{"metadata":{"title":"The Art of the Fugue, Contrapunctus XV","number":"XV*","composer":"J.S. Bach","source_midi":"contrapunctus_xv.mid","tempo_bpm":130.0,"tempo_us_per_beat":461538,"ticks_per_beat":384,"time_signature":"4/4","key_signature":"D minor","total_duration_seconds":213.0,"total_measures":106,"beats_per_measure":4},"voices":[{"id":0,"name":"Lead","midi_channel":0,"midi_track":1,"color":"#E85D4A","pitch_min":61,"pitch_max":88,"note_count":152},{"id":1,"name":"Pad","midi_channel":1,"midi_track":2,"color":"#4A90D9","pitch_min":50,"pitch_max":93,"note_count":128},{"id":2,"name":"Arp","midi_channel":2,"midi_track":3,"color":"#27AE60","pitch_min":50,"pitch_max":100,"note_count":1536},{"id":3,"name":"Sub Bass","midi_channel":3,"midi_track":4,"color":"#8E44AD","pitch_min":25,"pitch_max":38,"note_count":242},{"id":4,"name":"Pluck","midi_channel":4,"midi_track":5,"color":"#E8A04A","pitch_min":55,"pitch_max":81,"note_count":232},{"id":5,"name":"Stab","midi_channel":5,"midi_track":6,"color":"#D94A7B","pitch_min":55,"pitch_max":82,"note_count":952},{"id":6,"name":"Hi-Hat","midi_channel":6,"midi_track":7,"color":"#7F8C8D","pitch_min":80,"pitch_max":82,"note_count":1072},{"id":7,"name":"Kick","midi_channel":7,"midi_track":8,"color":"#2C3E50","pitch_min":36,"pitch_max":36,"note_count":352},{"id":8,"name":"Clap","midi_channel":8,"midi_track":9,"color":"#C0392B","pitch_min":74,"pitch_max":74,"note_count":184},{"id":9,"name":"FX Rise","midi_channel":9,"midi_track":10,"color":"#1ABC9C","pitch_min":48,"pitch_max":91,"note_count":288},{"id":10,"name":"Acid","midi_channel":10,"midi_track":11,"color":"#F39C12","pitch_min":38,"pitch_max":64,"note_count":240},{"id":11,"name":"Supersaw","midi_channel":11,"midi_track":12,"color":"#9B59B6","pitch_min":62,"pitch_max":88,"note_count":96}],"notes":[{"voice":3,"pitch":38,"start":0.0,"duration":0.25,"velocity":90,"measure":1,"beat":1.0,"subject_pos":-1,"motif":"","motif_pos":-1,"best_pos":3,"similarity":0.232},{"voice":6,"pitch":80,"start":0.0,"duration":0.25,"velocity":60,"measure":1,"beat":1.0,"subject_pos":-1,"motif":"","motif_pos":-1,"best_pos":3,"similarity":0.232},{"voice":7,"pitch":36,"start":0.0,"duration":0.25,"velocity":100,"measure":1,"beat":1.0,"subject_pos":-1,"motif":"","motif_pos":-1,"best_pos":3,"similarity":0.232},{"voice":6,"pitch":80,"start":0.25,"duration":0.25,"velocity":90,"measure":1,"beat":1.5,"subject_pos":-1,"motif":"","motif_pos":-1,"best_pos":4,"similarity":0.357},{"voice":3,"pitch":38,"start":0.5,"duration":0.25,"velocity":90,"measure":1,"beat":2.0,"subject_pos":-1,"motif":"","motif_pos":-1,"best_pos":4,"similarity":0.357},{"voice":6,"pitch":80,"start":0.5,"duration":0.25,"velocity":60,"measure":1,"beat":2.0,"subject_pos":-1,"motif":"","motif_pos":-1,"best_pos":4,"similarity":0.371},{"voice":7,"pitch":36,"start":0.5,"duration":0.25,"velocity":100,"measure":1,"beat":2.0,"subject_pos":-1,"motif":"","motif_pos":-1,"best_pos":4,"similarity":0.357},{"voice":6,"pitch":80,"start":0.75,"duration":0.25,"velocity":90,"measure":1,"beat":2.5,"subject_pos":-1,"motif":"","motif_pos":-1,"best_pos":4,"similarity":0.389},{"voice":3,"pitch":38,"start":1.0,"duration":0.25,"velocity":90,"measure":1,"beat":3.0,"subject_pos":-1,"motif":"","motif_pos":-1,"best_pos":4,"similarity":0.371},{"voice":6,"pitch":80,"start":1.0,"duration":0.25,"velocity":60,"measure":1,"beat":3.0,"subject_pos":-1,"motif":"","motif_pos":-1,"best_pos":4,"similarity":0.389},{"voice":7,"pitch":36,"start":1.0,"duration":0.25,"velocity":100,"measure":1,"beat":3.0,"subject_pos":-1,"motif":"","motif_pos":-1,"best_pos":4,"similarity":0.371},{"voice":6,"pitch":80,"start":1.25,"duration":0.25,"velocity":90,"measure":1,"beat":3.5,"subject_pos":-1,"motif":"","motif_pos":-1,"best_pos":4,"similarity":0.389},{"voice":3,"pitch":38,"start":1.5,"duration":0.25,"velocity":90,"measure":1,"beat":4.0,"subject_pos":-1,"motif":"","motif_pos":-1,"best_pos":4,"similarity":0.389},{"voice":6,"pitch":80,"start":1.5,"duration":0.25,"velocity":60,"measure":1,"beat":4.0,"subject_pos":-1,"motif":"","motif_pos":-1,"best_pos":4,"similarity":0.389},{"voice":7,"pitch":36,"start":1.5,"duration":0.25,"velocity":100,"measure":1,"beat":4.0,"subject_pos":-1,"motif":"","motif_pos":-1,"best_pos":4,"similarity":0.389},{"voice":6,"pitch":80,"start":1.75,"duration":0.25,"velocity":90,"measure":1,"beat":4.5,"subject_pos":-1,"motif":"","motif_pos":-1,"best_pos":4,"similarity":0.389},{"voice":3,"pitch":38,"start":2.0,"duration":0.25,"velocity":90,"measure":2,"beat":1.0,"subject_pos":-1,"motif":"","motif_pos":-1,"best_pos":4,"similarity":0.389},{"voice":6,"pitch":80,"start":2.0,"duration":0.25,"velocity":60,"measure":2,"beat":1.0,"subject_pos":-1,"motif":"","motif_pos":-1,"best_pos":4,"similarity":0.389},{"voice":7,"pitch":36,"start":2.0,"duration":0.25,"velocity":100,"measure":2,"beat":1.0,"subject_pos":-1,"motif":"","motif_pos":-1,"best_pos":4,"similarity":0.389},{"voice":6,"pitch":80,"start":2.25,"duration":0.25,"velocity":90,"measure":2,"beat":1.5,"subject_pos":-1,"motif":"","motif_pos":-1,"best_pos":4,"similarity":0.389},{"voice":3,"pitch":38,"start":2.5,"duration":0.25,"velocity":90,"measure":2,"beat":2.0,"subject_pos":-1,"motif":"","motif_pos":-1,"best_pos":4,"similarity":0.389},{"voice":6,"pitch":80,"start":2.5,"duration":0.25,"velocity":60,"measure":2,"beat":2.0,"subject_pos":-1,"motif":"","motif_pos":-1,"best_pos":4,"similarity":0.389},{"voice":7,"pitch":36,"start":2.5,"duration":0.25,"velocity":100,"measure":2,"beat":2.0,"subject_pos":-1,"motif":"","motif_pos":-1,"best_pos":4,"similarity":0.389},{"voice":6,"pitch":80,"start":2.75,"duration":0.25,"velocity":90,"measure":2,"beat":2.5,"subject_pos":-1,"motif":"","motif_pos":-1,"best_pos":4,"similarity":0.389},{"voice":3,"pitch":38,"start":3.0,"duration":0.25,"velocity":90,"measure":2,"beat":3.0,"subject_pos":-1,"motif":"","motif_pos":-1,"best_pos":4,"similarity":0.389},{"voice":6,"pitch":80,"start":3.0,"duration":0.25,"velocity":60,"measure":2,"beat":3.0,"subject_pos":-1,"motif":"","motif_pos":-1,"best_pos":4,"similarity":0.389},{"voice":7,"pitch":36,"start":3.0,"duration":0.25,"velocity":100,"measure":2,"beat":3.0,"subject_pos":-1,"motif":"","motif_pos":-1,"best_pos":4,"similarity":0.389},{"voice":6,"pitch":80,"start":3.25,"duration":0.25,"velocity":90,"measure":2,"beat":3.5,"subject_pos":-1,"motif":"","motif_pos":-1,"best_pos":4,"similarity":0.389},{"voice":3,"pitch":38,"start":3.5,"duration":0.25,"velocity":90,"measure":2,"beat":4.0,"subject_pos":-1,"motif":"","motif_pos":-1,"best_pos":4,"similarity":0.389},{"voice":6,"pitch":80,"start":3.5,"duration":0.25,"velocity":60,"measure":2,"beat":4.0,"subject_pos":-1,"motif":"","motif_pos":-1,"best_pos":4,"similarity":0.389},{"voice":7,"pitch":36,"start":3.5,"duration":0.25,"velocity":100,"measure":2,"beat":4.0,"subject_pos":-1,"motif":"","motif_pos":-1,"best_pos":4,"similarity":0.389},{"voice":6,"pitch":80,"start":3.75,"duration":0.25,"velocity":90,"measure":2,"beat":4.5,"subject_pos":-1,"motif":"","motif_pos":-1,"best_pos":4,"similarity":0.389},{"voice":3,"pitch":38,"start":4.0,"duration":0.25,"velocity":90,"measure":3,"beat":1.0,"subject_pos":-1,"motif":"","motif_pos":-1,"best_pos":4,"similarity":0.389},{"voice":6,"pitch":80,"start":4.0,"duration":0.25,"velocity":60,"measure":3,"beat":1.0,"subject_pos":-1,"motif":"","motif_pos":-1,"best_pos":4,"similarity":0.389},{"voice":7,"pitch":36,"start":4.0,"duration":0.25,"velocity":100,"measure":3,"beat":1.0,"subject_pos":-1,"motif":"","motif_pos":-1,"best_pos":4,"similarity":0.389},{"voice":6,"pitch":80,"start":4.25,"duration":0.25,"velocity":90,"measure":3,"beat":1.5,"subject_pos":-1,"motif":"","motif_pos":-1,"best_pos":4,"similarity":0.389},{"voice":3,"pitch":38,"start":4.5,"duration":0.25,"velocity":90,"measure":3,"beat":2.0,"subject_pos":-1,"motif":"","motif_pos":-1,"best_pos":4,"similarity":0.389},{"voice":6,"pitch":80,"start":4.5,"duration":0.25,"velocity":60,"measure":3,"beat":2.0,"subject_pos":-1,"motif":"","motif_pos":-1,"best_pos":4,"similarity":0.389},{"voice":7,"pitch":36,"start":4.5,"duration":0.25,"velocity":100,"measure":3,"beat":2.0,"subject_pos":-1,"motif":"","motif_pos":-1,"best_pos":4,"similarity":0.389},{"voice":6,"pitch":80,"start":4.75,"duration":0.25,"velocity":90,"measure":3,"beat":2.5,"subject_pos":-1,"motif":"","motif_pos":-1,"best_pos":4,"similarity":0.389},{"voice":3,"pitch":38,"start":5.0,"duration":0.25,"velocity":90,"measure":3,"beat":3.0,"subject_pos":-1,"motif":"","motif_pos":-1,"best_pos":4,"similarity":0.389},{"voice":6,"pitch":80,"start":5.0,"duration":0.25,"velocity":60,"measure":3,"beat":3.0,"subject_pos":-1,"motif":"","motif_pos":-1,"best_pos":4,"similarity":0.389},{"voice":7,"pitch":36,"start":5.0,"duration":0.25,"velocity":100,"measure":3,"beat":3.0,"subject_pos":-1,"motif":"","motif_pos":-1,"best_pos":4,"similarity":0.389},{"voice":6,"pitch":80,"start":5.25,"duration":0.25,"velocity":90,"measure":3,"beat":3.5,"subject_pos":-1,"motif":"","motif_pos":-1,"best_pos":4,"similarity":0.389},{"voice":3,"pitch":38,"start":5.5,"duration":0.25,"velocity":90,"measure":3,"beat":4.0,"subject_pos":-1,"motif":"","motif_pos":-1,"best_pos":4,"similarity":0.389},{"voice":6,"pitch":80,"start":5.5,"duration":0.25,"velocity":60,"measure":3,"beat":4.0,"subject_pos":-1,"motif":"","motif_pos":-1,"best_pos":4,"similarity":0.389},{"voice":7,"pitch":36,"start":5.5,"duration":0.25,"velocity":100,"measure":3,"beat":4.0,"subject_pos":-1,"motif":"","motif_pos":-1,"best_pos":4,"similarity":0.389},{"voice":6,"pitch":80,"start":5.75,"duration":0.25,"velocity":90,"measure":3,"beat":4.5,"subject_pos":-1,"motif":"","motif_pos":-1,"best_pos":4,"similarity":0.389},{"voice":3,"pitch":38,"start":6.0,"duration":0.25,"velocity":90,"measure":4,"beat":1.0,"subject_pos":-1,"motif":"","motif_pos":-1,"best_pos":4,"similarity":0.389},{"voice":6,"pitch":80,"start":6.0,"duration":0.25,"velocity":60,"measure":4,"beat":1.0,"subject_pos":-1,"motif":"","motif_pos":-1,"best_pos":4,"similarity":0.389},{"voice":7,"pitch":36,"start":6.0,"duration":0.25,"velocity":100,"measure":4,"beat":1.0,"subject_pos":-1,"motif":"","motif_pos":-1,"best_pos":4,"similarity":0.389},{"voice":6,"pitch":80,"start":6.25,"duration":0.25,"velocity":90,"measure":4,"beat":1.5,"subject_pos":-1,"motif":"","motif_pos":-1,"best_pos":4,"similarity":0.389},{"voice":3,"pitch":38,"start":6.5,"duration":0.25,"velocity":90,"measure":4,"beat":2.0,"subject_pos":-1,"motif":"","motif_pos":-1,"best_pos":4,"similarity":0.389},{"voice":6,"pitch":80,"start":6.5,"duration":0.25,"velocity":60,"measure":4,"beat":2.0,"subject_pos":-1,"motif":"","motif_pos":-1,"best_pos":4,"similarity":0.389},{"voice":7,"pitch":36,"start":6.5,"duration":0.25,"velocity":100,"measure":4,"beat":2.0,"subject_pos":-1,"motif":"","motif_pos":-1,"best_pos":4,"similarity":0.389},{"voice":6,"pitch":80,"start":6.75,"duration":0.25,"velocity":90,"measure":4,"beat":2.5,"subject_pos":-1,"motif":"","motif_pos":-1,"best_pos":4,"similarity":0.389},{"voice":3,"pitch":38,"start":7.0,"duration":0.25,"velocity":90,"measure":4,"beat":3.0,"subject_pos":-1,"motif":"","motif_pos":-1,"best_pos":4,"similarity":0.389},{"voice":6,"pitch":80,"start":7.0,"duration":0.25,"velocity":60,"measure":4,"beat":3.0,"subject_pos":-1,"motif":"","motif_pos":-1,"best_pos":4,"similarity":0.389},{"voice":7,"pitch":36,"start":7.0,"duration":0.25,"velocity":100,"measure":4,"beat":3.0,"subject_pos":-1,"motif":"","motif_pos":-1,"best_pos":4,"similarity":0.389},{"voice":6,"pitch":80,"start":7.25,"duration":0.25,"velocity":90,"measure":4,"beat":3.5,"subject_pos":-1,"motif":"","motif_pos":-1,"best_pos":4,"similarity":0.389},{"voice":3,"pitch":38,"start":7.5,"duration":0.25,"velocity":90,"measure":4,"beat":4.0,"subject_pos":-1,"motif":"","motif_pos":-1,"best_pos":4,"similarity":0.389},{"voice":6,"pitch":80,"start":7.5,"duration":0.25,"velocity":60,"measure":4,"beat":4.0,"subject_pos":-1,"motif":"","motif_pos":-1,"best_pos":4,"similarity":0.389},{"voice":7,"pitch":36,"start":7.5,"duration":0.25,"velocity":100,"measure":4,"beat":4.0,"subject_pos":-1,"motif":"","motif_pos":-1,"best_pos":4,"similarity":0.389},{"voice":6,"pitch":80,"start":7.75,"duration":0.25,"velocity":90,"measure":4,"beat":4.5,"subject_pos":-1,"motif":"","motif_pos":-1,"best_pos":4,"similarity":0.389},{"voice":3,"pitch":38,"start":8.0,"duration":0.25,"velocity":90,"measure":5,"beat":1.0,"subject_pos":-1,"motif":"","motif_pos":-1,"best_pos":4,"similarity":0.389},{"voice":6,"pitch":80,"start":8.0,"duration":0.25,"velocity":60,"measure":5,"beat":1.0,"subject_pos":-1,"motif":"","motif_pos":-1,"best_pos":4,"similarity":0.389},{"voice":7,"pitch":36,"start":8.0,"duration":0.25,"velocity":100,"measure":5,"beat":1.0,"subject_pos":-1,"motif":"","motif_pos":-1,"best_pos":4,"similarity":0.389},{"voice":6,"pitch":80,"start":8.25,"duration":0.25,"velocity":90,"measure":5,"beat":1.5,"subject_pos":-1,"motif":"","motif_pos":-1,"best_pos":4,"similarity":0.389},{"voice":3,"pitch":38,"start":8.5,"duration":0.25,"velocity":90,"measure":5,"beat":2.0,"subject_pos":-1,"motif":"","motif_pos":-1,"best_pos":4,"similarity":0.389},{"voice":6,"pitch":80,"start":8.5,"duration":0.25,"velocity":60,"measure":5,"beat":2.0,"subject_pos":-1,"motif":"","motif_pos":-1,"best_pos":4,"similarity":0.389},{"voice":7,"pitch":36,"start":8.5,"duration":0.25,"velocity":100,"measure":5,"beat":2.0,"subject_pos":-1,"motif":"","motif_pos":-1,"best_pos":4,"similarity":0.389},{"voice":8,"pitch":74,"start":8.5,"duration":0.25,"velocity":85,"measure":5,"beat":2.0,"subject_pos":-1,"motif":"","motif_pos":-1,"best_pos":3,"similarity":0.232},{"voice":6,"pitch":80,"start":8.75,"duration":0.25,"velocity":90,"measure":5,"beat":2.5,"subject_pos":-1,"motif":"","motif_pos":-1,"best_pos":4,"similarity":0.389},{"voice":3,"pitch":38,"start":9.0,"duration":0.25,"velocity":90,"measure":5,"beat":3.0,"subject_pos":-1,"motif":"","motif_pos":-1,"best_pos":4,"similarity":0.389},{"voice":6,"pitch":80,"start":9.0,"duration":0.25,"velocity":60,"measure":5,"beat":3.0,"subject_pos":-1,"motif":"","motif_pos":-1,"best_pos":4,"similarity":0.389},{"voice":7,"pitch":36,"start":9.0,"duration":0.25,"velocity":100,"measure":5,"beat":3.0,"subject_pos":-1,"motif":"","motif_pos":-1,"best_pos":4,"similarity":0.389},{"voice":6,"pitch":80,"start":9.25,"duration":0.25,"velocity":90,"measure":5,"beat":3.5,"subject_pos":-1,"motif":"","motif_pos":-1,"best_pos":4,"similarity":0.389},{"voice":3,"pitch":38,"start":9.5,"duration":0.25,"velocity":90,"measure":5,"beat":4.0,"subject_pos":-1,"motif":"","motif_pos":-1,"best_pos":4,"similarity":0.389},{"voice":6,"pitch":80,"start":9.5,"duration":0.25,"velocity":60,"measure":5,"beat":4.0,"subject_pos":-1,"motif":"","motif_pos":-1,"best_pos":4,"similarity":0.389},{"voice":7,"pitch":36,"start":9.5,"duration":0.25,"velocity":100,"measure":5,"beat":4.0,"subject_pos":-1,"motif":"","motif_pos":-1,"best_pos":4,"similarity":0.389},{"voice":8,"pitch":74,"start":9.5,"duration":0.25,"velocity":85,"measure":5,"beat":4.0,"subject_pos":-1,"motif":"","motif_pos":-1,"best_pos":4,"similarity":0.357},{"voice":6,"pitch":80,"start":9.75,"duration":0.25,"velocity":90,"measure":5,"beat":4.5,"subject_pos":-1,"motif":"","motif_pos":-1,"best_pos":4,"similarity":0.389},{"voice":3,"pitch":38,"start":10.0,"duration":0.25,"velocity":90,"measure":6,"beat":1.0,"subject_pos":-1,"motif":"","motif_pos":-1,"best_pos":4,"similarity":0.389},{"voice":6,"pitch":80,"start":10.0,"duration":0.25,"velocity":60,"measure":6,"beat":1.0,"subject_pos":-1,"motif":"","motif_pos":-1,"best_pos":4,"similarity":0.389},{"voice":7,"pitch":36,"start":10.0,"duration":0.25,"velocity":100,"measure":6,"beat":1.0,"subject_pos":-1,"motif":"","motif_pos":-1,"best_pos":4,"similarity":0.389},{"voice":6,"pitch":80,"start":10.25,"duration":0.25,"velocity":90,"measure":6,"beat":1.5,"subject_pos":-1,"motif":"","motif_pos":-1,"best_pos":4,"similarity":0.389},{"voice":3,"pitch":38,"start":10.5,"duration":0.25,"velocity":90,"measure":6,"beat":2.0,"subject_pos":-1,"motif":"","motif_pos":-1,"best_pos":4,"similarity":0.389},{"voice":6,"pitch":80,"start":10.5,"duration":0.25,"velocity":60,"measure":6,"beat":2.0,"subject_pos":-1,"motif":"","motif_pos":-1,"best_pos":4,"similarity":0.389},{"voice":7,"pitch":36,"start":10.5,"duration":0.25,"velocity":100,"measure":6,"beat":2.0,"subject_pos":-1,"motif":"","motif_pos":-1,"best_pos":4,"similarity":0.389},{"voice":8,"pitch":74,"start":10.5,"duration":0.25,"velocity":85,"measure":6,"beat":2.0,"subject_pos":-1,"motif":"","motif_pos":-1,"best_pos":4,"similarity":0.371},{"voice":6,"pitch":80,"start":10.75,"duration":0.25,"velocity":90,"measure":6,"beat":2.5,"subject_pos":-1,"motif":"","motif_pos":-1,"best_pos":4,"similarity":0.389},{"voice":3,"pitch":38,"start":11.0,"duration":0.25,"velocity":90,"measure":6,"beat":3.0,"subject_pos":-1,"motif":"","motif_pos":-1,"best_pos":4,"similarity":0.389},{"voice":6,"pitch":80,"start":11.0,"duration":0.25,"velocity":60,"measure":6,"beat":3.0,"subject_pos":-1,"motif":"","motif_pos":-1,"best_pos":4,"similarity":0.389},{"voice":7,"pitch":36,"start":11.0,"duration":0.25,"velocity":100,"measure":6,"beat":3.0,"subject_pos":-1,"motif":"","motif_pos":-1,"best_pos":4,"similarity":0.389},{"voice":6,"pitch":80,"start":11.25,"duration":0.25,"velocity":90,"measure":6,"beat":3.5,"subject_pos":-1,"motif":"","motif_pos":-1,"best_pos":4,"similarity":0.389},{"voice":3,"pitch":38,"start":11.5,"duration":0.25,"velocity":90,"measure":6,"beat":4.0,"subject_pos":-1,"motif":"","motif_pos":-1,"best_pos":4,"similarity":0.389},{"voice":6,"pitch":80,"start":11.5,"duration":0.25,"velocity":60,"measure":6,"beat":4.0,"subject_pos":-1,"motif":"","motif_pos":-1,"best_pos":4,"similarity":0.389},{"voice":7,"pitch":36,"start":11.5,"duration":0.25,"velocity":100,"measure":6,"beat":4.0,"subject_pos":-1,"motif":"","motif_pos":-1,"best_pos":4,"similarity":0.389},{"voice":8,"pitch":74,"start":11.5,"duration":0.25,"velocity":85,"measure":6,"beat":4.0,"subject_pos":-1,"motif":"","motif_pos":-1,"best_pos":4,"similarity":0.389},{"voice":6,"pitch":80,"start":11.75,"duration":0.25,"velocity":90,"measure":6,"beat":4.5,"subject_pos":-1,"motif":"","motif_pos":-1,"best_pos":4,"similarity":0.389},{"voice":3,"pitch":38,"start":12.0,"duration":0.25,"velocity":90,"measure":7,"beat":1.0,"subject_pos":-1,"motif":"","motif_pos":-1,"best_pos":4,"similarity":0.389},{"voice":6,"pitch":80,"start":12.0,"duration":0.25,"velocity":60,"measure":7,"beat":1.0,"subject_pos":-1,"motif":"","motif_pos":-1,"best_pos":4,"similarity":0.389},{"voice":7,"pitch":36,"start":12.0,"duration":0.25,"velocity":100,"measure":7,"beat":1.0,"subject_pos":-1,"motif":"","motif_pos":-1,"best_pos":4,"similarity":0.389},{"voice":9,"pitch":60,"start":12.0,"duration":0.125,"velocity":40,"measure":7,"beat":1.0,"subject_pos":-1,"motif":"","motif_pos":-1,"best_pos":4,"similarity":0.429},{"voice":9,"pitch":61,"start":12.125,"duration":0.125,"velocity":41,"measure":7,"beat":1.25,"subject_pos":-1,"motif":"","motif_pos":-1,"best_pos":5,"similarity":0.571},{"voice":6,"pitch":80,"start":12.25,"duration":0.25,"velocity":90,"measure":7,"beat":1.5,"subject_pos":-1,"motif":"","motif_pos":-1,"best_pos":4,"similarity":0.389},{"voice":9,"pitch":62,"start":12.25,"duration":0.125,"velocity":42,"measure":7,"beat":1.5,"subject_pos":-1,"motif":"","motif_pos":-1,"best_pos":5,"similarity":0.607},{"voice":9,"pitch":63,"start":12.375,"duration":0.125,"velocity":43,"measure":7,"beat":1.75,"subject_pos":-1,"motif":"","motif_pos":-1,"best_pos":5,"similarity":0.614},{"voice":3,"pitch":38,"start":12.5,"duration":0.25,"velocity":90,"measure":7,"beat":2.0,"subject_pos":-1,"motif":"","motif_pos":-1,"best_pos":4,"similarity":0.389},{"voice":6,"pitch":80,"start":12.5,"duration":0.25,"velocity":60,"measure":7,"beat":2.0,"subject_pos":-1,"motif":"","motif_pos":-1,"best_pos":4,"similarity":0.389},{"voice":7,"pitch":36,"start":12.5,"duration":0.25,"velocity":100,"measure":7,"beat":2.0,"subject_pos":-1,"motif":"","motif_pos":-1,"best_pos":4,"similarity":0.389},{"voice":8,"pitch":74,"start":12.5,"duration":0.25,"velocity":85,"measure":7,"beat":2.0,"subject_pos":-1,"motif":"","motif_pos":-1,"best_pos":4,"similarity":0.389},{"voice":9,"pitch":64,"start":12.5,"duration":0.125,"velocity":44,"measure":7,"beat":2.0,"subject_pos":-1,"motif":"","motif_pos":-1,"best_pos":5,"similarity":0.614},{"voice":9,"pitch":65,"start":12.625,"duration":0.125,"velocity":45,"measure":7,"beat":2.25,"subject_pos":-1,"motif":"","motif_pos":-1,"best_pos":5,"similarity":0.614},{"voice":6,"pitch":80,"start":12.75,"duration":0.25,"velocity":90,"measure":7,"beat":2.5,"subject_pos":-1,"motif":"","motif_pos":-1,"best_pos":4,"similarity":0.389},{"voice":9,"pitch":66,"start":12.75,"duration":0.125,"velocity":46,"measure":7,"beat":2.5,"subject_pos":-1,"motif":"","motif_pos":-1,"best_pos":5,"similarity":0.614},{"voice":9,"pitch":67,"start":12.875,"duration":0.125,"velocity":47,"measure":7,"beat":2.75,"subject_pos":-1,"motif":"","motif_pos":-1,"best_pos":5,"similarity":0.614},{"voice":3,"pitch":38,"start":13.0,"duration":0.25,"velocity":90,"measure":7,"beat":3.0,"subject_pos":-1,"motif":"","motif_pos":-1,"best_pos":4,"similarity":0.389},{"voice":6,"pitch":80,"start":13.0,"duration":0.25,"velocity":60,"measure":7,"beat":3.0,"subject_pos":-1,"motif":"","motif_pos":-1,"best_pos":4,"similarity":0.389},{"voice":7,"pitch":36,"start":13.0,"duration":0.25,"velocity":100,"measure":7,"beat":3.0,"subject_pos":-1,"motif":"","motif_pos":-1,"best_pos":4,"similarity":0.389},{"voice":9,"pitch":68,"start":13.0,"duration":0.125,"velocity":48,"measure":7,"beat":3.0,"subject_pos":-1,"motif":"","motif_pos":-1,"best_pos":5,"similarity":0.614},{"voice":9,"pitch":69,"start":13.125,"duration":0.125,"velocity":49,"measure":7,"beat":3.25,"subject_pos":-1,"motif":"","motif_pos":-1,"best_pos":5,"similarity":0.614},{"voice":6,"pitch":80,"start":13.25,"duration":0.25,"velocity":90,"measure":7,"beat":3.5,"subject_pos":-1,"motif":"","motif_pos":-1,"best_pos":4,"similarity":0.389},{"voice":9,"pitch":70,"start":13.25,"duration":0.125,"velocity":50,"measure":7,"beat":3.5,"subject_pos":-1,"motif":"","motif_pos":-1,"best_pos":5,"similarity":0.614},{"voice":9,"pitch":71,"start":13.375,"duration":0.125,"velocity":51,"measure":7,"beat":3.75,"subject_pos":-1,"motif":"","motif_pos":-1,"best_pos":5,"similarity":0.614},{"voice":3,"pitch":38,"start":13.5,"duration":0.25,"velocity":90,"measure":7,"beat":4.0,"subject_pos":-1,"motif":"","motif_pos":-1,"best_pos":4,"similarity":0.389},{"voice":6,"pitch":80,"start":13.5,"duration":0.25,"velocity":60,"measure":7,"beat":4.0,"subject_pos":-1,"motif":"","motif_pos":-1,"best_pos":4,"similarity":0.389},{"voice":7,"pitch":36,"start":13.5,"duration":0.25,"velocity":100,"measure":7,"beat":4.0,"subject_pos":-1,"motif":"","motif_pos":-1,"best_pos":4,"similarity":0.389},{"voice":8,"pitch":74,"start":13.5,"duration":0.25,"velocity":85,"measure":7,"beat":4.0,"subject_pos":-1,"motif":"","motif_pos":-1,"best_pos":4,"similarity":0.389},{"voice":9,"pitch":72,"start":13.5,"duration":0.125,"velocity":52,"measure":7,"beat":4.0,"subject_pos":-1,"motif":"","motif_pos":-1,"best_pos":5,"similarity":0.614},{"voice":9,"pitch":73,"start":13.625,"duration":0.125,"velocity":53,"measure":7,"beat":4.25,"subject_pos":-1,"motif":"","motif_pos":-1,"best_pos":5,"similarity":0.614},{"voice":6,"pitch":80,"start":13.75,"duration":0.25,"velocity":90,"measure":7,"beat":4.5,"subject_pos":-1,"motif":"","motif_pos":-1,"best_pos":4,"similarity":0.389},{"voice":9,"pitch":74,"start":13.75,"duration":0.125,"velocity":54,"measure":7,"beat":4.5,"subject_pos":-1,"motif":"","motif_pos":-1,"best_pos":5,"similarity":0.614},{"voice":9,"pitch":75,"start":13.875,"duration":0.125,"velocity":55,"measure":7,"beat":4.75,"subject_pos":-1,"motif":"","motif_pos":-1,"best_pos":5,"similarity":0.614},{"voice":3,"pitch":38,"start":14.0,"duration":0.25,"velocity":90,"measure":8,"beat":1.0,"subject_pos":-1,"motif":"","motif_pos":-1,"best_pos":4,"similarity":0.389},{"voice":6,"pitch":80,"start":14.0,"duration":0.25,"velocity":60,"measure":8,"beat":1.0,"subject_pos":-1,"motif":"","motif_pos":-1,"best_pos":4,"similarity":0.389},{"voice":7,"pitch":36,"start":14.0,"duration":0.25,"velocity":100,"measure":8,"beat":1.0,"subject_pos":-1,"motif":"","motif_pos":-1,"best_pos":4,"similarity":0.389},{"voice":9,"pitch":76,"start":14.0,"duration":0.125,"velocity":56,"measure":8,"beat":1.0,"subject_pos":-1,"motif":"","motif_pos":-1,"best_pos":5,"similarity":0.614},{"voice":9,"pitch":77,"start":14.125,"duration":0.125,"velocity":57,"measure":8,"beat":1.25,"subject_pos":-1,"motif":"","motif_pos":-1,"best_pos":5,"similarity":0.614},{"voice":6,"pitch":80,"start":14.25,"duration":0.25,"velocity":90,"measure":8,"beat":1.5,"subject_pos":-1,"motif":"","motif_pos":-1,"best_pos":4,"similarity":0.389},{"voice":9,"pitch":78,"start":14.25,"duration":0.125,"velocity":58,"measure":8,"beat":1.5,"subject_pos":-1,"motif":"","motif_pos":-1,"best_pos":5,"similarity":0.614},{"voice":9,"pitch":79,"start":14.375,"duration":0.125,"velocity":59,"measure":8,"beat":1.75,"subject_pos":-1,"motif":"","motif_pos":-1,"best_pos":5,"similarity":0.614},{"voice":3,"pitch":38,"start":14.5,"duration":0.25,"velocity":90,"measure":8,"beat":2.0,"subject_pos":-1,"motif":"","motif_pos":-1,"best_pos":5,"similarity":0.364},{"voice":6,"pitch":80,"start":14.5,"duration":0.25,"velocity":60,"measure":8,"beat":2.0,"subject_pos":-1,"motif":"","motif_pos":-1,"best_pos":4,"similarity":0.389},{"voice":7,"pitch":36,"start":14.5,"duration":0.25,"velocity":100,"measure":8,"beat":2.0,"subject_pos":-1,"motif":"","motif_pos":-1,"best_pos":4,"similarity":0.389},{"voice":8,"pitch":74,"start":14.5,"duration":0.25,"velocity":85,"measure":8,"beat":2.0,"subject_pos":-1,"motif":"","motif_pos":-1,"best_pos":4,"similarity":0.389},{"voice":9,"pitch":80,"start":14.5,"duration":0.125,"velocity":60,"measure":8,"beat":2.0,"subject_pos":-1,"motif":"","motif_pos":-1,"best_pos":5,"similarity":0.614},{"voice":9,"pitch":81,"start":14.625,"duration":0.125,"velocity":61,"measure":8,"beat":2.25,"subject_pos":-1,"motif":"","motif_pos":-1,"best_pos":5,"similarity":0.614},{"voice":6,"pitch":80,"start":14.75,"duration":0.25,"velocity":90,"measure":8,"beat":2.5,"subject_pos":-1,"motif":"","motif_pos":-1,"best_pos":4,"similarity":0.389},{"voice":9,"pitch":82,"start":14.75,"duration":0.125,"velocity":62,"measure":8,"beat":2.5,"subject_pos":-1,"motif":"","motif_pos":-1,"best_pos":5,"similarity":0.614},{"voice":9,"pitch":83,"start":14.875,"duration":0.125,"velocity":63,"measure":8,"beat":2.75,"subject_pos":-1,"motif":"","motif_pos":-1,"best_pos":5,"similarity":0.614},{"voice":3,"pitch":38,"start":15.0,"duration":0.25,"velocity":90,"measure":8,"beat":3.0,"subject_pos":-1,"motif":"","motif_pos":-1,"best_pos":4,"similarity":0.354},{"voice":6,"pitch":80,"start":15.0,"duration":0.25,"velocity":60,"measure":8,"beat":3.0,"subject_pos":-1,"motif":"","motif_pos":-1,"best_pos":4,"similarity":0.389},{"voice":7,"pitch":36,"start":15.0,"duration":0.25,"velocity":100,"measure":8,"beat":3.0,"subject_pos":-1,"motif":"","motif_pos":-1,"best_pos":4,"similarity":0.389},{"voice":9,"pitch":84,"start":15.0,"duration":0.125,"velocity":64,"measure":8,"beat":3.0,"subject_pos":-1,"motif":"","motif_pos":-1,"best_pos":5,"similarity":0.614},{"voice":9,"pitch":85,"start":15.125,"duration":0.125,"velocity":65,"measure":8,"beat":3.25,"subject_pos":-1,"motif":"","motif_pos":-1,"best_pos":5,"similarity":0.614},{"voice":6,"pitch":80,"start":15.25,"duration":0.25,"velocity":90,"measure":8,"beat":3.5,"subject_pos":-1,"motif":"","motif_pos":-1,"best_pos":4,"similarity":0.389},{"voice":9,"pitch":86,"start":15.25,"duration":0.125,"velocity":66,"measure":8,"beat":3.5,"subject_pos":-1,"motif":"","motif_pos":-1,"best_pos":5,"similarity":0.614},{"voice":9,"pitch":87,"start":15.375,"duration":0.125,"velocity":67,"measure":8,"beat":3.75,"subject_pos":-1,"motif":"","motif_pos":-1,"best_pos":5,"similarity":0.614},{"voice":3,"pitch":38,"start":15.5,"duration":0.25,"velocity":90,"measure":8,"beat":4.0,"subject_pos":-1,"motif":"","motif_pos":-1,"best_pos":5,"similarity":0.293},{"voice":6,"pitch":80,"start":15.5,"duration":0.25,"velocity":60,"measure":8,"beat":4.0,"subject_pos":-1,"motif":"","motif_pos":-1,"best_pos":4,"similarity":0.389},{"voice":7,"pitch":36,"start":15.5,"duration":0.25,"velocity":100,"measure":8,"beat":4.0,"subject_pos":-1,"motif":"","motif_pos":-1,"best_pos":4,"similarity":0.389},{"voice":8,"pitch":74,"start":15.5,"duration":0.25,"velocity":85,"measure":8,"beat":4.0,"subject_pos":-1,"motif":"","motif_pos":-1,"best_pos":4,"similarity":0.389},{"voice":9,"pitch":88,"start":15.5,"duration":0.125,"velocity":68,"measure":8,"beat":4.0,"subject_pos":-1,"motif":"","motif_pos":-1,"best_pos":5,"similarity":0.614},{"voice":9,"pitch":89,"start":15.625,"duration":0.125,"velocity":69,"measure":8,"beat":4.25,"subject_pos":-1,"motif":"","motif_pos":-1,"best_pos":5,"similarity":0.614},{"voice":6,"pitch":80,"start":15.75,"duration":0.25,"velocity":90,"measure":8,"beat":4.5,"subject_pos":-1,"motif":"","motif_pos":-1,"best_pos":4,"similarity":0.389},{"voice":9,"pitch":90,"start":15.75,"duration":0.125,"velocity":70,"measure":8,"beat":4.5,"subject_pos":-1,"motif":"","motif_pos":-1,"best_pos":6,"similarity":0.589},{"voice":9,"pitch":91,"start":15.875,"duration":0.125,"velocity":71,"measure":8,"beat":4.75,"subject_pos":-1,"motif":"","motif_pos":-1,"best_pos":7,"similarity":0.429},{"voice":0,"pitch":62,"start":16.0,"duration":1.0,"velocity":90,"measure":9,"beat":1.0,"subject_pos":0,"motif":"subject","motif_pos":0,"best_pos":0,"similarity":1.0},{"voice":1,"pitch":62,"start":16.0,"duration":8.0,"velocity":50,"measure":9,"beat":1.0,"subject_pos":-1,"motif":"","motif_pos":-1,"best_pos":5,"similarity":0.157},{"voice":1,"pitch":65,"start":16.0,"duration":8.0,"velocity":50,"measure":9,"beat":1.0,"subject_pos":-1,"motif":"","motif_pos":-1,"best_pos":6,"similarity":0.171},{"voice":1,"pitch":69,"start":16.0,"duration":8.0,"velocity":50,"measure":9,"beat":1.0,"subject_pos":-1,"motif":"","motif_pos":-1,"best_pos":1,"similarity":0.171},{"voice":3,"pitch":28,"start":16.0,"duration":0.25,"velocity":95,"measure":9,"beat":1.0,"subject_pos":-1,"motif":"","motif_pos":-1,"best_pos":3,"similarity":0.268},{"voice":6,"pitch":80,"start":16.0,"duration":0.25,"velocity":65,"measure":9,"beat":1.0,"subject_pos":-1,"motif":"","motif_pos":-1,"best_pos":4,"similarity":0.389},{"voice":7,"pitch":36,"start":16.0,"duration":0.25,"velocity":100,"measure":9,"beat":1.0,"subject_pos":-1,"motif":"","motif_pos":-1,"best_pos":4,"similarity":0.389},{"voice":6,"pitch":80,"start":16.25,"duration":0.25,"velocity":95,"measure":9,"beat":1.5,"subject_pos":-1,"motif":"","motif_pos":-1,"best_pos":4,"similarity":0.389},{"voice":3,"pitch":28,"start":16.5,"duration":0.25,"velocity":95,"measure":9,"beat":2.0,"subject_pos":-1,"motif":"","motif_pos":-1,"best_pos":4,"similarity":0.339},{"voice":6,"pitch":80,"start":16.5,"duration":0.25,"velocity":65,"measure":9,"beat":2.0,"subject_pos":-1,"motif":"","motif_pos":-1,"best_pos":4,"similarity":0.389},{"voice":7,"pitch":36,"start":16.5,"duration":0.25,"velocity":100,"measure":9,"beat":2.0,"subject_pos":-1,"motif":"","motif_pos":-1,"best_pos":4,"similarity":0.389},{"voice":8,"pitch":74,"start":16.5,"duration":0.25,"velocity":85,"measure":9,"beat":2.0,"subject_pos":-1,"motif":"","motif_pos":-1,"best_pos":4,"similarity":0.389},{"voice":6,"pitch":80,"start":16.75,"duration":0.25,"velocity":95,"measure":9,"beat":2.5,"subject_pos":-1,"motif":"","motif_pos":-1,"best_pos":4,"similarity":0.389},{"voice":0,"pitch":69,"start":17.0,"duration":1.0,"velocity":90,"measure":9,"beat":3.0,"subject_pos":1,"motif":"subject","motif_pos":1,"best_pos":1,"similarity":1.0},{"voice":3,"pitch":28,"start":17.0,"duration":0.25,"velocity":95,"measure":9,"beat":3.0,"subject_pos":-1,"motif":"","motif_pos":-1,"best_pos":4,"similarity":0.336},{"voice":6,"pitch":80,"start":17.0,"duration":0.25,"velocity":65,"measure":9,"beat":3.0,"subject_pos":-1,"motif":"","motif_pos":-1,"best_pos":4,"similarity":0.389},{"voice":7,"pitch":36,"start":17.0,"duration":0.25,"velocity":100,"measure":9,"beat":3.0,"subject_pos":-1,"motif":"","motif_pos":-1,"best_pos":4,"similarity":0.389},{"voice":6,"pitch":80,"start":17.25,"duration":0.25,"velocity":95,"measure":9,"beat":3.5,"subject_pos":-1,"motif":"","motif_pos":-1,"best_pos":4,"similarity":0.389},{"voice":3,"pitch":28,"start":17.5,"duration":0.25,"velocity":95,"measure":9,"beat":4.0,"subject_pos":-1,"motif":"","motif_pos":-1,"best_pos":5,"similarity":0.293},{"voice":6,"pitch":80,"start":17.5,"duration":0.25,"velocity":65,"measure":9,"beat":4.0,"subject_pos":-1,"motif":"","motif_pos":-1,"best_pos":4,"similarity":0.389},{"voice":7,"pitch":36,"start":17.5,"duration":0.25,"velocity":100,"measure":9,"beat":4.0,"subject_pos":-1,"motif":"","motif_pos":-1,"best_pos":4,"similarity":0.389},{"voice":8,"pitch":74,"start":17.5,"duration":0.25,"velocity":85,"measure":9,"beat":4.0,"subject_pos":-1,"motif":"","motif_pos":-1,"best_pos":4,"similarity":0.389},{"voice":6,"pitch":80,"start":17.75,"duration":0.25,"velocity":95,"measure":9,"beat":4.5,"subject_pos":-1,"motif":"","motif_pos":-1,"best_pos":4,"similarity":0.389},{"voice":0,"pitch":65,"start":18.0,"duration":1.0,"velocity":90,"measure":10,"beat":1.0,"subject_pos":2,"motif":"subject","motif_pos":2,"best_pos":2,"similarity":1.0},{"voice":3,"pitch":36,"start":18.0,"duration":0.25,"velocity":95,"measure":10,"beat":1.0,"subject_pos":-1,"motif":"","motif_pos":-1,"best_pos":3,"similarity":0.268},{"voice":6,"pitch":80,"start":18.0,"duration":0.25,"velocity":65,"measure":10,"beat":1.0,"subject_pos":-1,"motif":"","motif_pos":-1,"best_pos":4,"similarity":0.389},{"voice":7,"pitch":36,"start":18.0,"duration":0.25,"velocity":100,"measure":10,"beat":1.0,"subject_pos":-1,"motif":"","motif_pos":-1,"best_pos":4,"similarity":0.389},{"voice":6,"pitch":80,"start":18.25,"duration":0.25,"velocity":95,"measure":10,"beat":1.5,"subject_pos":-1,"motif":"","motif_pos":-1,"best_pos":4,"similarity":0.389},{"voice":3,"pitch":36,"start":18.5,"duration":0.25,"velocity":95,"measure":10,"beat":2.0,"subject_pos":-1,"motif":"","motif_pos":-1,"best_pos":4,"similarity":0.375},{"voice":6,"pitch":80,"start":18.5,"duration":0.25,"velocity":65,"measure":10,"beat":2.0,"subject_pos":-1,"motif":"","motif_pos":-1,"best_pos":4,"similarity":0.389},{"voice":7,"pitch":36,"start":18.5,"duration":0.25,"velocity":100,"measure":10,"beat":2.0,"subject_pos":-1,"motif":"","motif_pos":-1,"best_pos":4,"similarity":0.389},{"voice":8,"pitch":74,"start":18.5,"duration":0.25,"velocity":85,"measure":10,"beat":2.0,"subject_pos":-1,"motif":"","motif_pos":-1,"best_pos":4,"similarity":0.389},{"voice":6,"pitch":80,"start":18.75,"duration":0.25,"velocity":95,"measure":10,"beat":2.5,"subject_pos":-1,"motif":"","motif_pos":-1,"best_pos":4,"similarity":0.389},{"voice":0,"pitch":62,"start":19.0,"duration":1.0,"velocity":90,"measure":10,"beat":3.0,"subject_pos":3,"motif":"subject","motif_pos":3,"best_pos":3,"similarity":1.0},{"voice":3,"pitch":36,"start":19.0,"duration":0.25,"velocity":95,"measure":10,"beat":3.0,"subject_pos":-1,"motif":"","motif_pos":-1,"best_pos":4,"similarity":0.479},{"voice":6,"pitch":80,"start":19.0,"duration":0.25,"velocity":65,"measure":10,"beat":3.0,"subject_pos":-1,"motif":"","motif_pos":-1,"best_pos":4,"similarity":0.389},{"voice":7,"pitch":36,"start":19.0,"duration":0.25,"velocity":100,"measure":10,"beat":3.0,"subject_pos":-1,"motif":"","motif_pos":-1,"best_pos":4,"similarity":0.389},{"voice":6,"pitch":80,"start":19.25,"duration":0.25,"velocity":95,"measure":10,"beat":3.5,"subject_pos":-1,"motif":"","motif_pos":-1,"best_pos":4,"similarity":0.389},{"voice":3,"pitch":36,"start":19.5,"duration":0.25,"velocity":95,"measure":10,"beat":4.0,"subject_pos":-1,"motif":"","motif_pos":-1,"best_pos":5,"similarity":0.579},{"voice":6,"pitch":80,"start":19.5,"duration":0.25,"velocity":65,"measure":10,"beat":4.0,"subject_pos":-1,"motif":"","motif_pos":-1,"best_pos":4,"similarity":0.389},{"voice":7,"pitch":36,"start":19.5,"duration":0.25,"velocity":100,"measure":10,"beat":4.0,"subject_pos":-1,"motif":"","motif_pos":-1,"best_pos":4,"similarity":0.389},{"voice":8,"pitch":74,"start":19.5,"duration":0.25,"velocity":85,"measure":10,"beat":4.0,"subject_pos":-1,"motif":"","motif_pos":-1,"best_pos":4,"similarity":0.389},{"voice":6,"pitch":80,"start":19.75,"duration":0.25,"velocity":95,"measure":10,"beat":4.5,"subject_pos":-1,"motif":"","motif_pos":-1,"best_pos":4,"similarity":0.389},{"voice":0,"pitch":61,"start":20.0,"duration":1.0,"velocity":90,"measure":11,"beat":1.0,"subject_pos":4,"motif":"subject","motif_pos":4,"best_pos":4,"similarity":1.0},{"voice":3,"pitch":38,"start":20.0,"duration":0.25,"velocity":95,"measure":11,"beat":1.0,"subject_pos":-1,"motif":"","motif_pos":-1,"best_pos":6,"similarity":0.536},{"voice":6,"pitch":80,"start":20.0,"duration":0.25,"velocity":65,"measure":11,"beat":1.0,"subject_pos":-1,"motif":"","motif_pos":-1,"best_pos":4,"similarity":0.389},{"voice":7,"pitch":36,"start":20.0,"duration":0.25,"velocity":100,"measure":11,"beat":1.0,"subject_pos":-1,"motif":"","motif_pos":-1,"best_pos":4,"similarity":0.389},{"voice":6,"pitch":80,"start":20.25,"duration":0.25,"velocity":95,"measure":11,"beat":1.5,"subject_pos":-1,"motif":"","motif_pos":-1,"best_pos":4,"similarity":0.389},{"voice":3,"pitch":38,"start":20.5,"duration":0.25,"velocity":95,"measure":11,"beat":2.0,"subject_pos":-1,"motif":"","motif_pos":-1,"best_pos":4,"similarity":0.346},{"voice":6,"pitch":80,"start":20.5,"duration":0.25,"velocity":65,"measure":11,"beat":2.0,"subject_pos":-1,"motif":"","motif_pos":-1,"best_pos":4,"similarity":0.389},{"voice":7,"pitch":36,"start":20.5,"duration":0.25,"velocity":100,"measure":11,"beat":2.0,"subject_pos":-1,"motif":"","motif_pos":-1,"best_pos":4,"similarity":0.389},{"voice":8,"pitch":74,"start":20.5,"duration":0.25,"velocity":85,"measure":11,"beat":2.0,"subject_pos":-1,"motif":"","motif_pos":-1,"best_pos":4,"similarity":0.389},{"voice":6,"pitch":80,"start":20.75,"duration":0.25,"velocity":95,"measure":11,"beat":2.5,"subject_pos":-1,"motif":"","motif_pos":-1,"best_pos":4,"similarity":0.389},{"voice":0,"pitch":62,"start":21.0,"duration":0.5,"velocity":90,"measure":11,"beat":3.0,"subject_pos":5,"motif":"subject","motif_pos":5,"best_pos":5,"similarity":1.0},{"voice":3,"pitch":38,"start":21.0,"duration":0.25,"velocity":95,"measure":11,"beat":3.0,"subject_pos":-1,"motif":"","motif_pos":-1,"best_pos":4,"similarity":0.343},{"voice":6,"pitch":80,"start":21.0,"duration":0.25,"velocity":65,"measure":11,"beat":3.0,"subject_pos":-1,"motif":"","motif_pos":-1,"best_pos":4,"similarity":0.389},{"voice":7,"pitch":36,"start":21.0,"duration":0.25,"velocity":100,"measure":11,"beat":3.0,"subject_pos":-1,"motif":"","motif_pos":-1,"best_pos":4,"similarity":0.389},{"voice":6,"pitch":80,"start":21.25,"duration":0.25,"velocity":95,"measure":11,"beat":3.5,"subject_pos":-1,"motif":"","motif_pos":-1,"best_pos":4,"similarity":0.389},{"voice":0,"pitch":64,"start":21.5,"duration":0.5,"velocity":90,"measure":11,"beat":4.0,"subject_pos":6,"motif":"subject","motif_pos":6,"best_pos":6,"similarity":1.0},{"voice":3,"pitch":38,"start":21.5,"duration":0.25,"velocity":95,"measure":11,"beat":4.0,"subject_pos":-1,"motif":"","motif_pos":-1,"best_pos":2,"similarity":0.464},{"voice":6,"pitch":80,"start":21.5,"duration":0.25,"velocity":65,"measure":11,"beat":4.0,"subject_pos":-1,"motif":"","motif_pos":-1,"best_pos":4,"similarity":0.389},{"voice":7,"pitch":36,"start":21.5,"duration":0.25,"velocity":100,"measure":11,"beat":4.0,"subject_pos":-1,"motif":"","motif_pos":-1,"best_pos":4,"similarity":0.389},{"voice":8,"pitch":74,"start":21.5,"duration":0.25,"velocity":85,"measure":11,"beat":4.0,"subject_pos":-1,"motif":"","motif_pos":-1,"best_pos":4,"similarity":0.389},{"voice":6,"pitch":80,"start":21.75,"duration":0.25,"velocity":95,"measure":11,"beat":4.5,"subject_pos":-1,"motif":"","motif_pos":-1,"best_pos":4,"similarity":0.389},{"voice":0,"pitch":65,"start":22.0,"duration":1.0,"velocity":90,"measure":12,"beat":1.0,"subject_pos":7,"motif":"subject","motif_pos":7,"best_pos":7,"similarity":1.0},{"voice":3,"pitch":35,"start":22.0,"duration":0.25,"velocity":95,"measure":12,"beat":1.0,"subject_pos":-1,"motif":"","motif_pos":-1,"best_pos":3,"similarity":0.554},{"voice":6,"pitch":80,"start":22.0,"duration":0.25,"velocity":65,"measure":12,"beat":1.0,"subject_pos":-1,"motif":"","motif_pos":-1,"best_pos":4,"similarity":0.389},{"voice":7,"pitch":36,"start":22.0,"duration":0.25,"velocity":100,"measure":12,"beat":1.0,"subject_pos":-1,"motif":"","motif_pos":-1,"best_pos":4,"similarity":0.389},{"voice":6,"pitch":80,"start":22.25,"duration":0.25,"velocity":95,"measure":12,"beat":1.5,"subject_pos":-1,"motif":"","motif_pos":-1,"best_pos":4,"similarity":0.389},{"voice":3,"pitch":35,"start":22.5,"duration":0.25,"velocity":95,"measure":12,"beat":2.0,"subject_pos":-1,"motif":"","motif_pos":-1,"best_pos":4,"similarity":0.482},{"voice":6,"pitch":80,"start":22.5,"duration":0.25,"velocity":65,"measure":12,"beat":2.0,"subject_pos":-1,"motif":"","motif_pos":-1,"best_pos":4,"similarity":0.389},{"voice":7,"pitch":36,"start":22.5,"duration":0.25,"velocity":100,"measure":12,"beat":2.0,"subject_pos":-1,"motif":"","motif_pos":-1,"best_pos":4,"similarity":0.389},{"voice":8,"pitch":74,"start":22.5,"duration":0.25,"velocity":85,"measure":12,"beat":2.0,"subject_pos":-1,"motif":"","motif_pos":-1,"best_pos":4,"similarity":0.389},{"voice":6,"pitch":80,"start":22.75,"duration":0.25,"velocity":95,"measure":12,"beat":2.5,"subject_pos":-1,"motif":"","motif_pos":-1,"best_pos":4,"similarity":0.389},{"voice":0,"pitch":69,"start":23.0,"duration":0.5,"velocity":85,"measure":12,"beat":3.0,"subject_pos":0,"motif":"subject","motif_pos":0,"best_pos":0,"similarity":1.0},{"voice":3,"pitch":35,"start":23.0,"duration":0.25,"velocity":95,"measure":12,"beat":3.0,"subject_pos":-1,"motif":"","motif_pos":-1,"best_pos":4,"similarity":0.371},{"voice":6,"pitch":80,"start":23.0,"duration":0.25,"velocity":65,"measure":12,"beat":3.0,"subject_pos":-1,"motif":"","motif_pos":-1,"best_pos":4,"similarity":0.389},{"voice":7,"pitch":36,"start":23.0,"duration":0.25,"velocity":100,"measure":12,"beat":3.0,"subject_pos":-1,"motif":"","motif_pos":-1,"best_pos":4,"similarity":0.389},{"voice":6,"pitch":80,"start":23.25,"duration":0.25,"velocity":95,"measure":12,"beat":3.5,"subject_pos":-1,"motif":"","motif_pos":-1,"best_pos":4,"similarity":0.389},{"voice":0,"pitch":74,"start":23.5,"duration":0.5,"velocity":85,"measure":12,"beat":4.0,"subject_pos":1,"motif":"subject","motif_pos":1,"best_pos":1,"similarity":1.0},{"voice":3,"pitch":35,"start":23.5,"duration":0.25,"velocity":95,"measure":12,"beat":4.0,"subject_pos":-1,"motif":"","motif_pos":-1,"best_pos":5,"similarity":0.293},{"voice":6,"pitch":80,"start":23.5,"duration":0.25,"velocity":65,"measure":12,"beat":4.0,"subject_pos":-1,"motif":"","motif_pos":-1,"best_pos":4,"similarity":0.389},{"voice":7,"pitch":36,"start":23.5,"duration":0.25,"velocity":100,"measure":12,"beat":4.0,"subject_pos":-1,"motif":"","motif_pos":-1,"best_pos":4,"similarity":0.389},{"voice":8,"pitch":74,"start":23.5,"duration":0.25,"velocity":85,"measure":12,"beat":4.0,"subject_pos":-1,"motif":"","motif_pos":-1,"best_pos":4,"similarity":0.389},{"voice":6,"pitch":80,"start":23.75,"duration":0.25,"velocity":95,"measure":12,"beat":4.5,"subject_pos":-1,"motif":"","motif_pos":-1,"best_pos":4,"similarity":0.389},{"voice":0,"pitch":72,"start":24.0,"duration":0.5,"velocity":85,"measure":13,"beat":1.0,"subject_pos":2,"motif":"subject","motif_pos":2,"best_pos":2,"similarity":1.0},{"voice":1,"pitch":62,"start":24.0,"duration":8.0,"velocity":50,"measure":13,"beat":1.0,"subject_pos":-1,"motif":"","motif_pos":-1,"best_pos":5,"similarity":0.157},{"voice":1,"pitch":65,"start":24.0,"duration":8.0,"velocity":50,"measure":13,"beat":1.0,"subject_pos":-1,"motif":"","motif_pos":-1,"best_pos":6,"similarity":0.171},{"voice":1,"pitch":69,"start":24.0,"duration":8.0,"velocity":50,"measure":13,"beat":1.0,"subject_pos":-1,"motif":"","motif_pos":-1,"best_pos":1,"similarity":0.171},{"voice":2,"pitch":62,"start":24.0,"duration":0.125,"velocity":70,"measure":13,"beat":1.0,"subject_pos":-1,"motif":"","motif_pos":-1,"best_pos":5,"similarity":0.157},{"voice":3,"pitch":28,"start":24.0,"duration":0.25,"velocity":95,"measure":13,"beat":1.0,"subject_pos":-1,"motif":"","motif_pos":-1,"best_pos":3,"similarity":0.296},{"voice":6,"pitch":80,"start":24.0,"duration":0.25,"velocity":65,"measure":13,"beat":1.0,"subject_pos":-1,"motif":"","motif_pos":-1,"best_pos":4,"similarity":0.389},{"voice":7,"pitch":36,"start":24.0,"duration":0.25,"velocity":100,"measure":13,"beat":1.0,"subject_pos":-1,"motif":"","motif_pos":-1,"best_pos":4,"similarity":0.389},{"voice":2,"pitch":65,"start":24.125,"duration":0.125,"velocity":70,"measure":13,"beat":1.25,"subject_pos":-1,"motif":"","motif_pos":-1,"best_pos":6,"similarity":0.171},{"voice":2,"pitch":69,"start":24.25,"duration":0.125,"velocity":70,"measure":13,"beat":1.5,"subject_pos":-1,"motif":"","motif_pos":-1,"best_pos":0,"similarity":0.286},{"voice":6,"pitch":80,"start":24.25,"duration":0.25,"velocity":95,"measure":13,"beat":1.5,"subject_pos":-1,"motif":"","motif_pos":-1,"best_pos":4,"similarity":0.389},{"voice":2,"pitch":74,"start":24.375,"duration":0.125,"velocity":70,"measure":13,"beat":1.75,"subject_pos":-1,"motif":"","motif_pos":-1,"best_pos":1,"similarity":0.286},{"voice":0,"pitch":69,"start":24.5,"duration":0.5,"velocity":85,"measure":13,"beat":2.0,"subject_pos":3,"motif":"subject","motif_pos":3,"best_pos":3,"similarity":1.0},{"voice":2,"pitch":77,"start":24.5,"duration":0.125,"velocity":70,"measure":13,"beat":2.0,"subject_pos":-1,"motif":"","motif_pos":-1,"best_pos":6,"similarity":0.186},{"voice":3,"pitch":28,"start":24.5,"duration":0.25,"velocity":95,"measure":13,"beat":2.0,"subject_pos":-1,"motif":"","motif_pos":-1,"best_pos":4,"similarity":0.361},{"voice":6,"pitch":80,"start":24.5,"duration":0.25,"velocity":65,"measure":13,"beat":2.0,"subject_pos":-1,"motif":"","motif_pos":-1,"best_pos":4,"similarity":0.389},{"voice":7,"pitch":36,"start":24.5,"duration":0.25,"velocity":100,"measure":13,"beat":2.0,"subject_pos":-1,"motif":"","motif_pos":-1,"best_pos":4,"similarity":0.389},{"voice":8,"pitch":74,"start":24.5,"duration":0.25,"velocity":85,"measure":13,"beat":2.0,"subject_pos":-1,"motif":"","motif_pos":-1,"best_pos":4,"similarity":0.389},{"voice":2,"pitch":81,"start":24.625,"duration":0.125,"velocity":70,"measure":13,"beat":2.25,"subject_pos":-1,"motif":"","motif_pos":-1,"best_pos":0,"similarity":0.286},{"voice":2,"pitch":86,"start":24.75,"duration":0.125,"velocity":70,"measure":13,"beat":2.5,"subject_pos":-1,"motif":"","motif_pos":-1,"best_pos":1,"similarity":0.293},{"voice":6,"pitch":80,"start":24.75,"duration":0.25,"velocity":95,"measure":13,"beat":2.5,"subject_pos":-1,"motif":"","motif_pos":-1,"best_pos":4,"similarity":0.389},{"voice":2,"pitch":89,"start":24.875,"duration":0.125,"velocity":70,"measure":13,"beat":2.75,"subject_pos":-1,"motif":"","motif_pos":-1,"best_pos":2,"similarity":0.164},{"voice":0,"pitch":68,"start":25.0,"duration":0.5,"velocity":85,"measure":13,"beat":3.0,"subject_pos":4,"motif":"subject","motif_pos":4,"best_pos":4,"similarity":1.0},{"voice":2,"pitch":62,"start":25.0,"duration":0.125,"velocity":70,"measure":13,"beat":3.0,"subject_pos":-1,"motif":"","motif_pos":-1,"best_pos":5,"similarity":0.171},{"voice":3,"pitch":28,"start":25.0,"duration":0.25,"velocity":95,"measure":13,"beat":3.0,"subject_pos":-1,"motif":"","motif_pos":-1,"best_pos":4,"similarity":0.357},{"voice":6,"pitch":80,"start":25.0,"duration":0.25,"velocity":65,"measure":13,"beat":3.0,"subject_pos":-1,"motif":"","motif_pos":-1,"best_pos":4,"similarity":0.389},{"voice":7,"pitch":36,"start":25.0,"duration":0.25,"velocity":100,"measure":13,"beat":3.0,"subject_pos":-1,"motif":"","motif_pos":-1,"best_pos":4,"similarity":0.389},{"voice":2,"pitch":65,"start":25.125,"duration":0.125,"velocity":70,"measure":13,"beat":3.25,"subject_pos":-1,"motif":"","motif_pos":-1,"best_pos":6,"similarity":0.179},{"voice":2,"pitch":69,"start":25.25,"duration":0.125,"velocity":70,"measure":13,"beat":3.5,"subject_pos":-1,"motif":"","motif_pos":-1,"best_pos":0,"similarity":0.286},{"voice":6,"pitch":80,"start":25.25,"duration":0.25,"velocity":95,"measure":13,"beat":3.5,"subject_pos":-1,"motif":"","motif_pos":-1,"best_pos":4,"similarity":0.389},{"voice":2,"pitch":74,"start":25.375,"duration":0.125,"velocity":70,"measure":13,"beat":3.75,"subject_pos":-1,"motif":"","motif_pos":-1,"best_pos":1,"similarity":0.286},{"voice":0,"pitch":69,"start":25.5,"duration":0.25,"velocity":85,"measure":13,"beat":4.0,"subject_pos":5,"motif":"subject","motif_pos":5,"best_pos":5,"similarity":1.0},{"voice":2,"pitch":77,"start":25.5,"duration":0.125,"velocity":70,"measure":13,"beat":4.0,"subject_pos":-1,"motif":"","motif_pos":-1,"best_pos":6,"similarity":0.186},{"voice":3,"pitch":28,"start":25.5,"duration":0.25,"velocity":95,"measure":13,"beat":4.0,"subject_pos":-1,"motif":"","motif_pos":-1,"best_pos":0,"similarity":0.329},{"voice":6,"pitch":80,"start":25.5,"duration":0.25,"velocity":65,"measure":13,"beat":4.0,"subject_pos":-1,"motif":"","motif_pos":-1,"best_pos":4,"similarity":0.389},{"voice":7,"pitch":36,"start":25.5,"duration":0.25,"velocity":100,"measure":13,"beat":4.0,"subject_pos":-1,"motif":"","motif_pos":-1,"best_pos":4,"similarity":0.389},{"voice":8,"pitch":74,"start":25.5,"duration":0.25,"velocity":85,"measure":13,"beat":4.0,"subject_pos":-1,"motif":"","motif_pos":-1,"best_pos":4,"similarity":0.389},{"voice":2,"pitch":81,"start":25.625,"duration":0.125,"velocity":70,"measure":13,"beat":4.25,"subject_pos":-1,"motif":"","motif_pos":-1,"best_pos":0,"similarity":0.286},{"voice":0,"pitch":71,"start":25.75,"duration":0.25,"velocity":85,"measure":13,"beat":4.5,"subject_pos":6,"motif":"subject","motif_pos":6,"best_pos":6,"similarity":1.0},{"voice":2,"pitch":86,"start":25.75,"duration":0.125,"velocity":70,"measure":13,"beat":4.5,"subject_pos":-1,"motif":"","motif_pos":-1,"best_pos":1,"similarity":0.293},{"voice":6,"pitch":80,"start":25.75,"duration":0.25,"velocity":95,"measure":13,"beat":4.5,"subject_pos":-1,"motif":"","motif_pos":-1,"best_pos":4,"similarity":0.389},{"voice":2,"pitch":89,"start":25.875,"duration":0.125,"velocity":70,"measure":13,"beat":4.75,"subject_pos":-1,"motif":"","motif_pos":-1,"best_pos":2,"similarity":0.164},{"voice":0,"pitch":72,"start":26.0,"duration":1.0,"velocity":85,"measure":14,"beat":1.0,"subject_pos":7,"motif":"subject","motif_pos":7,"best_pos":7,"similarity":1.0},{"voice":2,"pitch":67,"start":26.0,"duration":0.125,"velocity":70,"measure":14,"beat":1.0,"subject_pos":-1,"motif":"","motif_pos":-1,"best_pos":5,"similarity":0.171},{"voice":3,"pitch":33,"start":26.0,"duration":0.25,"velocity":95,"measure":14,"beat":1.0,"subject_pos":-1,"motif":"","motif_pos":-1,"best_pos":1,"similarity":0.407},{"voice":6,"pitch":80,"start":26.0,"duration":0.25,"velocity":65,"measure":14,"beat":1.0,"subject_pos":-1,"motif":"","motif_pos":-1,"best_pos":4,"similarity":0.389},{"voice":7,"pitch":36,"start":26.0,"duration":0.25,"velocity":100,"measure":14,"beat":1.0,"subject_pos":-1,"motif":"","motif_pos":-1,"best_pos":4,"similarity":0.389},{"voice":2,"pitch":70,"start":26.125,"duration":0.125,"velocity":70,"measure":14,"beat":1.25,"subject_pos":-1,"motif":"","motif_pos":-1,"best_pos":6,"similarity":0.179},{"voice":2,"pitch":74,"start":26.25,"duration":0.125,"velocity":70,"measure":14,"beat":1.5,"subject_pos":-1,"motif":"","motif_pos":-1,"best_pos":0,"similarity":0.286},{"voice":6,"pitch":80,"start":26.25,"duration":0.25,"velocity":95,"measure":14,"beat":1.5,"subject_pos":-1,"motif":"","motif_pos":-1,"best_pos":4,"similarity":0.389},{"voice":2,"pitch":79,"start":26.375,"duration":0.125,"velocity":70,"measure":14,"beat":1.75,"subject_pos":-1,"motif":"","motif_pos":-1,"best_pos":1,"similarity":0.286},{"voice":2,"pitch":82,"start":26.5,"duration":0.125,"velocity":70,"measure":14,"beat":2.0,"subject_pos":-1,"motif":"","motif_pos":-1,"best_pos":6,"similarity":0.186},{"voice":3,"pitch":33,"start":26.5,"duration":0.25,"velocity":95,"measure":14,"beat":2.0,"subject_pos":-1,"motif":"","motif_pos":-1,"best_pos":4,"similarity":0.357},{"voice":6,"pitch":80,"start":26.5,"duration":0.25,"velocity":65,"measure":14,"beat":2.0,"subject_pos":-1,"motif":"","motif_pos":-1,"best_pos":4,"similarity":0.389},{"voice":7,"pitch":36,"start":26.5,"duration":0.25,"velocity":100,"measure":14,"beat":2.0,"subject_pos":-1,"motif":"","motif_pos":-1,"best_pos":4,"similarity":0.389},{"voice":8,"pitch":74,"start":26.5,"duration":0.25,"velocity":85,"measure":14,"beat":2.0,"subject_pos":-1,"motif":"","motif_pos":-1,"best_pos":4,"similarity":0.389},{"voice":2,"pitch":86,"start":26.625,"duration":0.125,"velocity":70,"measure":14,"beat":2.25,"subject_pos":-1,"motif":"","motif_pos":-1,"best_pos":0,"similarity":0.286},{"voice":2,"pitch":91,"start":26.75,"duration":0.125,"velocity":70,"measure":14,"beat":2.5,"subject_pos":-1,"motif":"","motif_pos":-1,"best_pos":1,"similarity":0.293},{"voice":6,"pitch":80,"start":26.75,"duration":0.25,"velocity":95,"measure":14,"beat":2.5,"subject_pos":-1,"motif":"","motif_pos":-1,"best_pos":4,"similarity":0.389},{"voice":2,"pitch":94,"start":26.875,"duration":0.125,"velocity":70,"measure":14,"beat":2.75,"subject_pos":-1,"motif":"","motif_pos":-1,"best_pos":2,"similarity":0.164},{"voice":2,"pitch":67,"start":27.0,"duration":0.125,"velocity":70,"measure":14,"beat":3.0,"subject_pos":-1,"motif":"","motif_pos":-1,"best_pos":5,"similarity":0.171},{"voice":3,"pitch":33,"start":27.0,"duration":0.25,"velocity":95,"measure":14,"beat":3.0,"subject_pos":-1,"motif":"","motif_pos":-1,"best_pos":4,"similarity":0.407},{"voice":6,"pitch":80,"start":27.0,"duration":0.25,"velocity":65,"measure":14,"beat":3.0,"subject_pos":-1,"motif":"","motif_pos":-1,"best_pos":4,"similarity":0.389},{"voice":7,"pitch":36,"start":27.0,"duration":0.25,"velocity":100,"measure":14,"beat":3.0,"subject_pos":-1,"motif":"","motif_pos":-1,"best_pos":4,"similarity":0.389},{"voice":2,"pitch":70,"start":27.125,"duration":0.125,"velocity":70,"measure":14,"beat":3.25,"subject_pos":-1,"motif":"","motif_pos":-1,"best_pos":6,"similarity":0.179},{"voice":2,"pitch":74,"start":27.25,"duration":0.125,"velocity":70,"measure":14,"beat":3.5,"subject_pos":-1,"motif":"","motif_pos":-1,"best_pos":0,"similarity":0.286},{"voice":6,"pitch":80,"start":27.25,"duration":0.25,"velocity":95,"measure":14,"beat":3.5,"subject_pos":-1,"motif":"","motif_pos":-1,"best_pos":4,"similarity":0.389},{"voice":2,"pitch":79,"start":27.375,"duration":0.125,"velocity":70,"measure":14,"beat":3.75,"subject_pos":-1,"motif":"","motif_pos":-1,"best_pos":1,"similarity":0.286},{"voice":2,"pitch":82,"start":27.5,"duration":0.125,"velocity":70,"measure":14,"beat":4.0,"subject_pos":-1,"motif":"","motif_pos":-1,"best_pos":6,"similarity":0.186},{"voice":3,"pitch":33,"start":27.5,"duration":0.25,"velocity":95,"measure":14,"beat":4.0,"subject_pos":-1,"motif":"","motif_pos":-1,"best_pos":5,"similarity":0.436},{"voice":6,"pitch":80,"start":27.5,"duration":0.25,"velocity":65,"measure":14,"beat":4.0,"subject_pos":-1,"motif":"","motif_pos":-1,"best_pos":4,"similarity":0.389},{"voice":7,"pitch":36,"start":27.5,"duration":0.25,"velocity":100,"measure":14,"beat":4.0,"subject_pos":-1,"motif":"","motif_pos":-1,"best_pos":4,"similarity":0.389},{"voice":8,"pitch":74,"start":27.5,"duration":0.25,"velocity":85,"measure":14,"beat":4.0,"subject_pos":-1,"motif":"","motif_pos":-1,"best_pos":4,"similarity":0.389},{"voice":2,"pitch":86,"start":27.625,"duration":0.125,"velocity":70,"measure":14,"beat":4.25,"subject_pos":-1,"motif":"","motif_pos":-1,"best_pos":0,"similarity":0.286},{"voice":2,"pitch":91,"start":27.75,"duration":0.125,"velocity":70,"measure":14,"beat":4.5,"subject_pos":-1,"motif":"","motif_pos":-1,"best_pos":1,"similarity":0.286},{"voice":6,"pitch":80,"start":27.75,"duration":0.25,"velocity":95,"measure":14,"beat":4.5,"subject_pos":-1,"motif":"","motif_pos":-1,"best_pos":4,"similarity":0.389},{"voice":2,"pitch":94,"start":27.875,"duration":0.125,"velocity":70,"measure":14,"beat":4.75,"subject_pos":-1,"motif":"","motif_pos":-1,"best_pos":2,"similarity":0.161},{"voice":2,"pitch":70,"start":28.0,"duration":0.125,"velocity":70,"measure":15,"beat":1.0,"subject_pos":-1,"motif":"","motif_pos":-1,"best_pos":0,"similarity":0.143},{"voice":3,"pitch":36,"start":28.0,"duration":0.25,"velocity":95,"measure":15,"beat":1.0,"subject_pos":-1,"motif":"","motif_pos":-1,"best_pos":6,"similarity":0.393},{"voice":6,"pitch":80,"start":28.0,"duration":0.25,"velocity":65,"measure":15,"beat":1.0,"subject_pos":-1,"motif":"","motif_pos":-1,"best_pos":4,"similarity":0.389},{"voice":7,"pitch":36,"start":28.0,"duration":0.25,"velocity":100,"measure":15,"beat":1.0,"subject_pos":-1,"motif":"","motif_pos":-1,"best_pos":4,"similarity":0.389},{"voice":2,"pitch":74,"start":28.125,"duration":0.125,"velocity":70,"measure":15,"beat":1.25,"subject_pos":-1,"motif":"","motif_pos":-1,"best_pos":5,"similarity":0.186},{"voice":2,"pitch":77,"start":28.25,"duration":0.125,"velocity":70,"measure":15,"beat":1.5,"subject_pos":-1,"motif":"","motif_pos":-1,"best_pos":0,"similarity":0.286},{"voice":6,"pitch":80,"start":28.25,"duration":0.25,"velocity":95,"measure":15,"beat":1.5,"subject_pos":-1,"motif":"","motif_pos":-1,"best_pos":4,"similarity":0.389},{"voice":2,"pitch":82,"start":28.375,"duration":0.125,"velocity":70,"measure":15,"beat":1.75,"subject_pos":-1,"motif":"","motif_pos":-1,"best_pos":1,"similarity":0.286},{"voice":2,"pitch":86,"start":28.5,"duration":0.125,"velocity":70,"measure":15,"beat":2.0,"subject_pos":-1,"motif":"","motif_pos":-1,"best_pos":5,"similarity":0.186},{"voice":3,"pitch":36,"start":28.5,"duration":0.25,"velocity":95,"measure":15,"beat":2.0,"subject_pos":-1,"motif":"","motif_pos":-1,"best_pos":4,"similarity":0.357},{"voice":6,"pitch":80,"start":28.5,"duration":0.25,"velocity":65,"measure":15,"beat":2.0,"subject_pos":-1,"motif":"","motif_pos":-1,"best_pos":4,"similarity":0.389},{"voice":7,"pitch":36,"start":28.5,"duration":0.25,"velocity":100,"measure":15,"beat":2.0,"subject_pos":-1,"motif":"","motif_pos":-1,"best_pos":4,"similarity":0.389},{"voice":8,"pitch":74,"start":28.5,"duration":0.25,"velocity":85,"measure":15,"beat":2.0,"subject_pos":-1,"motif":"","motif_pos":-1,"best_pos":4,"similarity":0.389},{"voice":2,"pitch":89,"start":28.625,"duration":0.125,"velocity":70,"measure":15,"beat":2.25,"subject_pos":-1,"motif":"","motif_pos":-1,"best_pos":0,"similarity":0.286},{"voice":2,"pitch":94,"start":28.75,"duration":0.125,"velocity":70,"measure":15,"beat":2.5,"subject_pos":-1,"motif":"","motif_pos":-1,"best_pos":1,"similarity":0.286},{"voice":6,"pitch":80,"start":28.75,"duration":0.25,"velocity":95,"measure":15,"beat":2.5,"subject_pos":-1,"motif":"","motif_pos":-1,"best_pos":4,"similarity":0.389},{"voice":2,"pitch":98,"start":28.875,"duration":0.125,"velocity":70,"measure":15,"beat":2.75,"subject_pos":-1,"motif":"","motif_pos":-1,"best_pos":2,"similarity":0.161},{"voice":2,"pitch":70,"start":29.0,"duration":0.125,"velocity":70,"measure":15,"beat":3.0,"subject_pos":-1,"motif":"","motif_pos":-1,"best_pos":0,"similarity":0.143},{"voice":3,"pitch":36,"start":29.0,"duration":0.25,"velocity":95,"measure":15,"beat":3.0,"subject_pos":-1,"motif":"","motif_pos":-1,"best_pos":4,"similarity":0.35},{"voice":6,"pitch":80,"start":29.0,"duration":0.25,"velocity":65,"measure":15,"beat":3.0,"subject_pos":-1,"motif":"","motif_pos":-1,"best_pos":4,"similarity":0.389},{"voice":7,"pitch":36,"start":29.0,"duration":0.25,"velocity":100,"measure":15,"beat":3.0,"subject_pos":-1,"motif":"","motif_pos":-1,"best_pos":4,"similarity":0.389},{"voice":2,"pitch":74,"start":29.125,"duration":0.125,"velocity":70,"measure":15,"beat":3.25,"subject_pos":-1,"motif":"","motif_pos":-1,"best_pos":5,"similarity":0.186},{"voice":2,"pitch":77,"start":29.25,"duration":0.125,"velocity":70,"measure":15,"beat":3.5,"subject_pos":-1,"motif":"","motif_pos":-1,"best_pos":0,"similarity":0.286},{"voice":6,"pitch":80,"start":29.25,"duration":0.25,"velocity":95,"measure":15,"beat":3.5,"subject_pos":-1,"motif":"","motif_pos":-1,"best_pos":4,"similarity":0.389},{"voice":2,"pitch":82,"start":29.375,"duration":0.125,"velocity":70,"measure":15,"beat":3.75,"subject_pos":-1,"motif":"","motif_pos":-1,"best_pos":1,"similarity":0.286},{"voice":2,"pitch":86,"start":29.5,"duration":0.125,"velocity":70,"measure":15,"beat":4.0,"subject_pos":-1,"motif":"","motif_pos":-1,"best_pos":5,"similarity":0.186},{"voice":3,"pitch":36,"start":29.5,"duration":0.25,"velocity":95,"measure":15,"beat":4.0,"subject_pos":-1,"motif":"","motif_pos":-1,"best_pos":3,"similarity":0.439},{"voice":6,"pitch":80,"start":29.5,"duration":0.25,"velocity":65,"measure":15,"beat":4.0,"subject_pos":-1,"motif":"","motif_pos":-1,"best_pos":4,"similarity":0.389},{"voice":7,"pitch":36,"start":29.5,"duration":0.25,"velocity":100,"measure":15,"beat":4.0,"subject_pos":-1,"motif":"","motif_pos":-1,"best_pos":4,"similarity":0.389},{"voice":8,"pitch":74,"start":29.5,"duration":0.25,"velocity":85,"measure":15,"beat":4.0,"subject_pos":-1,"motif":"","motif_pos":-1,"best_pos":4,"similarity":0.389},{"voice":2,"pitch":89,"start":29.625,"duration":0.125,"velocity":70,"measure":15,"beat":4.25,"subject_pos":-1,"motif":"","motif_pos":-1,"best_pos":0,"similarity":0.286},{"voice":2,"pitch":94,"start":29.75,"duration":0.125,"velocity":70,"measure":15,"beat":4.5,"subject_pos":-1,"motif":"","motif_pos":-1,"best_pos":1,"similarity":0.286},{"voice":6,"pitch":80,"start":29.75,"duration":0.25,"velocity":95,"measure":15,"beat":4.5,"subject_pos":-1,"motif":"","motif_pos":-1,"best_pos":4,"similarity":0.389},{"voice":2,"pitch":98,"start":29.875,"duration":0.125,"velocity":70,"measure":15,"beat":4.75,"subject_pos":-1,"motif":"","motif_pos":-1,"best_pos":2,"similarity":0.161},{"voice":2,"pitch":69,"start":30.0,"duration":0.125,"velocity":70,"measure":16,"beat":1.0,"subject_pos":-1,"motif":"","motif_pos":-1,"best_pos":0,"similarity":0.143},{"voice":3,"pitch":35,"start":30.0,"duration":0.25,"velocity":95,"measure":16,"beat":1.0,"subject_pos":-1,"motif":"","motif_pos":-1,"best_pos":4,"similarity":0.532},{"voice":6,"pitch":80,"start":30.0,"duration":0.25,"velocity":65,"measure":16,"beat":1.0,"subject_pos":-1,"motif":"","motif_pos":-1,"best_pos":4,"similarity":0.389},{"voice":7,"pitch":36,"start":30.0,"duration":0.25,"velocity":100,"measure":16,"beat":1.0,"subject_pos":-1,"motif":"","motif_pos":-1,"best_pos":4,"similarity":0.389},{"voice":2,"pitch":73,"start":30.125,"duration":0.125,"velocity":70,"measure":16,"beat":1.25,"subject_pos":-1,"motif":"","motif_pos":-1,"best_pos":5,"similarity":0.207},{"voice":2,"pitch":76,"start":30.25,"duration":0.125,"velocity":70,"measure":16,"beat":1.5,"subject_pos":-1,"motif":"","motif_pos":-1,"best_pos":5,"similarity":0.286},{"voice":6,"pitch":80,"start":30.25,"duration":0.25,"velocity":95,"measure":16,"beat":1.5,"subject_pos":-1,"motif":"","motif_pos":-1,"best_pos":4,"similarity":0.389},{"voice":2,"pitch":79,"start":30.375,"duration":0.125,"velocity":70,"measure":16,"beat":1.75,"subject_pos":-1,"motif":"","motif_pos":-1,"best_pos":5,"similarity":0.386},{"voice":2,"pitch":81,"start":30.5,"duration":0.125,"velocity":70,"measure":16,"beat":2.0,"subject_pos":-1,"motif":"","motif_pos":-1,"best_pos":6,"similarity":0.357},{"voice":3,"pitch":35,"start":30.5,"duration":0.25,"velocity":95,"measure":16,"beat":2.0,"subject_pos":-1,"motif":"","motif_pos":-1,"best_pos":5,"similarity":0.436},{"voice":6,"pitch":80,"start":30.5,"duration":0.25,"velocity":65,"measure":16,"beat":2.0,"subject_pos":-1,"motif":"","motif_pos":-1,"best_pos":4,"similarity":0.389},{"voice":7,"pitch":36,"start":30.5,"duration":0.25,"velocity":100,"measure":16,"beat":2.0,"subject_pos":-1,"motif":"","motif_pos":-1,"best_pos":4,"similarity":0.389},{"voice":8,"pitch":74,"start":30.5,"duration":0.25,"velocity":85,"measure":16,"beat":2.0,"subject_pos":-1,"motif":"","motif_pos":-1,"best_pos":4,"similarity":0.389},{"voice":2,"pitch":85,"start":30.625,"duration":0.125,"velocity":70,"measure":16,"beat":2.25,"subject_pos":-1,"motif":"","motif_pos":-1,"best_pos":5,"similarity":0.221},{"voice":2,"pitch":88,"start":30.75,"duration":0.125,"velocity":70,"measure":16,"beat":2.5,"subject_pos":-1,"motif":"","motif_pos":-1,"best_pos":5,"similarity":0.286},{"voice":6,"pitch":80,"start":30.75,"duration":0.25,"velocity":95,"measure":16,"beat":2.5,"subject_pos":-1,"motif":"","motif_pos":-1,"best_pos":4,"similarity":0.389},{"voice":2,"pitch":91,"start":30.875,"duration":0.125,"velocity":70,"measure":16,"beat":2.75,"subject_pos":-1,"motif":"","motif_pos":-1,"best_pos":5,"similarity":0.386},{"voice":2,"pitch":93,"start":31.0,"duration":0.125,"velocity":70,"measure":16,"beat":3.0,"subject_pos":-1,"motif":"","motif_pos":-1,"best_pos":6,"similarity":0.357},{"voice":3,"pitch":35,"start":31.0,"duration":0.25,"velocity":95,"measure":16,"beat":3.0,"subject_pos":-1,"motif":"","motif_pos":-1,"best_pos":4,"similarity":0.371},{"voice":6,"pitch":80,"start":31.0,"duration":0.25,"velocity":65,"measure":16,"beat":3.0,"subject_pos":-1,"motif":"","motif_pos":-1,"best_pos":4,"similarity":0.389},{"voice":7,"pitch":36,"start":31.0,"duration":0.25,"velocity":100,"measure":16,"beat":3.0,"subject_pos":-1,"motif":"","motif_pos":-1,"best_pos":4,"similarity":0.389},{"voice":2,"pitch":97,"start":31.125,"duration":0.125,"velocity":70,"measure":16,"beat":3.25,"subject_pos":-1,"motif":"","motif_pos":-1,"best_pos":7,"similarity":0.189},{"voice":2,"pitch":69,"start":31.25,"duration":0.125,"velocity":70,"measure":16,"beat":3.5,"subject_pos":-1,"motif":"","motif_pos":-1,"best_pos":0,"similarity":0.143},{"voice":6,"pitch":80,"start":31.25,"duration":0.25,"velocity":95,"measure":16,"beat":3.5,"subject_pos":-1,"motif":"","motif_pos":-1,"best_pos":4,"similarity":0.389},{"voice":2,"pitch":73,"start":31.375,"duration":0.125,"velocity":70,"measure":16,"beat":3.75,"subject_pos":-1,"motif":"","motif_pos":-1,"best_pos":5,"similarity":0.207},{"voice":2,"pitch":76,"start":31.5,"duration":0.125,"velocity":70,"measure":16,"beat":4.0,"subject_pos":-1,"motif":"","motif_pos":-1,"best_pos":5,"similarity":0.286},{"voice":3,"pitch":35,"start":31.5,"duration":0.25,"velocity":95,"measure":16,"beat":4.0,"subject_pos":-1,"motif":"","motif_pos":-1,"best_pos":5,"similarity":0.293},{"voice":6,"pitch":80,"start":31.5,"duration":0.25,"velocity":65,"measure":16,"beat":4.0,"subject_pos":-1,"motif":"","motif_pos":-1,"best_pos":4,"similarity":0.389},{"voice":7,"pitch":36,"start":31.5,"duration":0.25,"velocity":100,"measure":16,"beat":4.0,"subject_pos":-1,"motif":"","motif_pos":-1,"best_pos":4,"similarity":0.389},{"voice":8,"pitch":74,"start":31.5,"duration":0.25,"velocity":85,"measure":16,"beat":4.0,"subject_pos":-1,"motif":"","motif_pos":-1,"best_pos":4,"similarity":0.389},{"voice":2,"pitch":79,"start":31.625,"duration":0.125,"velocity":70,"measure":16,"beat":4.25,"subject_pos":-1,"motif":"","motif_pos":-1,"best_pos":5,"similarity":0.386},{"voice":2,"pitch":81,"start":31.75,"duration":0.125,"velocity":70,"measure":16,"beat":4.5,"subject_pos":-1,"motif":"","motif_pos":-1,"best_pos":6,"similarity":0.357},{"voice":6,"pitch":80,"start":31.75,"duration":0.25,"velocity":95,"measure":16,"beat":4.5,"subject_pos":-1,"motif":"","motif_pos":-1,"best_pos":4,"similarity":0.389},{"voice":2,"pitch":85,"start":31.875,"duration":0.125,"velocity":70,"measure":16,"beat":4.75,"subject_pos":-1,"motif":"","motif_pos":-1,"best_pos":7,"similarity":0.189},{"voice":1,"pitch":62,"start":32.0,"duration":8.0,"velocity":50,"measure":17,"beat":1.0,"subject_pos":-1,"motif":"","motif_pos":-1,"best_pos":5,"similarity":0.157},{"voice":1,"pitch":65,"start":32.0,"duration":8.0,"velocity":50,"measure":17,"beat":1.0,"subject_pos":-1,"motif":"","motif_pos":-1,"best_pos":6,"similarity":0.171},{"voice":1,"pitch":69,"start":32.0,"duration":8.0,"velocity":50,"measure":17,"beat":1.0,"subject_pos":-1,"motif":"","motif_pos":-1,"best_pos":1,"similarity":0.171},{"voice":2,"pitch":62,"start":32.0,"duration":0.125,"velocity":70,"measure":17,"beat":1.0,"subject_pos":-1,"motif":"","motif_pos":-1,"best_pos":5,"similarity":0.157},{"voice":3,"pitch":28,"start":32.0,"duration":0.25,"velocity":95,"measure":17,"beat":1.0,"subject_pos":-1,"motif":"","motif_pos":-1,"best_pos":3,"similarity":0.296},{"voice":4,"pitch":74,"start":32.0,"duration":0.25,"velocity":75,"measure":17,"beat":1.0,"subject_pos":0,"motif":"subject","motif_pos":0,"best_pos":0,"similarity":1.0},{"voice":6,"pitch":80,"start":32.0,"duration":0.25,"velocity":65,"measure":17,"beat":1.0,"subject_pos":-1,"motif":"","motif_pos":-1,"best_pos":4,"similarity":0.389},{"voice":7,"pitch":36,"start":32.0,"duration":0.25,"velocity":100,"measure":17,"beat":1.0,"subject_pos":-1,"motif":"","motif_pos":-1,"best_pos":4,"similarity":0.389},{"voice":10,"pitch":50,"start":32.0,"duration":0.25,"velocity":85,"measure":17,"beat":1.0,"subject_pos":0,"motif":"subject","motif_pos":0,"best_pos":0,"similarity":1.0},{"voice":2,"pitch":65,"start":32.125,"duration":0.125,"velocity":70,"measure":17,"beat":1.25,"subject_pos":-1,"motif":"","motif_pos":-1,"best_pos":6,"similarity":0.171},{"voice":2,"pitch":69,"start":32.25,"duration":0.125,"velocity":70,"measure":17,"beat":1.5,"subject_pos":-1,"motif":"","motif_pos":-1,"best_pos":0,"similarity":0.286},{"voice":4,"pitch":81,"start":32.25,"duration":0.25,"velocity":75,"measure":17,"beat":1.5,"subject_pos":1,"motif":"subject","motif_pos":1,"best_pos":1,"similarity":1.0},{"voice":6,"pitch":80,"start":32.25,"duration":0.25,"velocity":95,"measure":17,"beat":1.5,"subject_pos":-1,"motif":"","motif_pos":-1,"best_pos":4,"similarity":0.389},{"voice":10,"pitch":57,"start":32.25,"duration":0.25,"velocity":85,"measure":17,"beat":1.5,"subject_pos":1,"motif":"subject","motif_pos":1,"best_pos":1,"similarity":1.0},{"voice":2,"pitch":74,"start":32.375,"duration":0.125,"velocity":70,"measure":17,"beat":1.75,"subject_pos":-1,"motif":"","motif_pos":-1,"best_pos":1,"similarity":0.286},{"voice":2,"pitch":77,"start":32.5,"duration":0.125,"velocity":70,"measure":17,"beat":2.0,"subject_pos":-1,"motif":"","motif_pos":-1,"best_pos":6,"similarity":0.186},{"voice":3,"pitch":28,"start":32.5,"duration":0.25,"velocity":95,"measure":17,"beat":2.0,"subject_pos":-1,"motif":"","motif_pos":-1,"best_pos":4,"similarity":0.371},{"voice":4,"pitch":77,"start":32.5,"duration":0.25,"velocity":75,"measure":17,"beat":2.0,"subject_pos":2,"motif":"subject","motif_pos":2,"best_pos":2,"similarity":1.0},{"voice":6,"pitch":80,"start":32.5,"duration":0.25,"velocity":65,"measure":17,"beat":2.0,"subject_pos":-1,"motif":"","motif_pos":-1,"best_pos":4,"similarity":0.389},{"voice":7,"pitch":36,"start":32.5,"duration":0.25,"velocity":100,"measure":17,"beat":2.0,"subject_pos":-1,"motif":"","motif_pos":-1,"best_pos":4,"similarity":0.389},{"voice":8,"pitch":74,"start":32.5,"duration":0.25,"velocity":85,"measure":17,"beat":2.0,"subject_pos":-1,"motif":"","motif_pos":-1,"best_pos":4,"similarity":0.389},{"voice":10,"pitch":53,"start":32.5,"duration":0.25,"velocity":85,"measure":17,"beat":2.0,"subject_pos":2,"motif":"subject","motif_pos":2,"best_pos":2,"similarity":1.0},{"voice":2,"pitch":81,"start":32.625,"duration":0.125,"velocity":70,"measure":17,"beat":2.25,"subject_pos":-1,"motif":"","motif_pos":-1,"best_pos":0,"similarity":0.286},{"voice":2,"pitch":86,"start":32.75,"duration":0.125,"velocity":70,"measure":17,"beat":2.5,"subject_pos":-1,"motif":"","motif_pos":-1,"best_pos":1,"similarity":0.293},{"voice":4,"pitch":74,"start":32.75,"duration":0.25,"velocity":75,"measure":17,"beat":2.5,"subject_pos":3,"motif":"subject","motif_pos":3,"best_pos":3,"similarity":1.0},{"voice":6,"pitch":80,"start":32.75,"duration":0.25,"velocity":95,"measure":17,"beat":2.5,"subject_pos":-1,"motif":"","motif_pos":-1,"best_pos":4,"similarity":0.389},{"voice":10,"pitch":50,"start":32.75,"duration":0.25,"velocity":85,"measure":17,"beat":2.5,"subject_pos":3,"motif":"subject","motif_pos":3,"best_pos":3,"similarity":1.0},{"voice":2,"pitch":89,"start":32.875,"duration":0.125,"velocity":70,"measure":17,"beat":2.75,"subject_pos":-1,"motif":"","motif_pos":-1,"best_pos":2,"similarity":0.164},{"voice":2,"pitch":62,"start":33.0,"duration":0.125,"velocity":70,"measure":17,"beat":3.0,"subject_pos":-1,"motif":"","motif_pos":-1,"best_pos":5,"similarity":0.171},{"voice":3,"pitch":28,"start":33.0,"duration":0.25,"velocity":95,"measure":17,"beat":3.0,"subject_pos":-1,"motif":"","motif_pos":-1,"best_pos":4,"similarity":0.414},{"voice":4,"pitch":73,"start":33.0,"duration":0.25,"velocity":75,"measure":17,"beat":3.0,"subject_pos":4,"motif":"subject","motif_pos":4,"best_pos":4,"similarity":1.0},{"voice":6,"pitch":80,"start":33.0,"duration":0.25,"velocity":65,"measure":17,"beat":3.0,"subject_pos":-1,"motif":"","motif_pos":-1,"best_pos":4,"similarity":0.389},{"voice":7,"pitch":36,"start":33.0,"duration":0.25,"velocity":100,"measure":17,"beat":3.0,"subject_pos":-1,"motif":"","motif_pos":-1,"best_pos":4,"similarity":0.389},{"voice":10,"pitch":49,"start":33.0,"duration":0.25,"velocity":85,"measure":17,"beat":3.0,"subject_pos":4,"motif":"subject","motif_pos":4,"best_pos":4,"similarity":1.0},{"voice":2,"pitch":65,"start":33.125,"duration":0.125,"velocity":70,"measure":17,"beat":3.25,"subject_pos":-1,"motif":"","motif_pos":-1,"best_pos":6,"similarity":0.179},{"voice":2,"pitch":69,"start":33.25,"duration":0.125,"velocity":70,"measure":17,"beat":3.5,"subject_pos":-1,"motif":"","motif_pos":-1,"best_pos":0,"similarity":0.286},{"voice":4,"pitch":74,"start":33.25,"duration":0.125,"velocity":75,"measure":17,"beat":3.5,"subject_pos":5,"motif":"subject","motif_pos":5,"best_pos":5,"similarity":1.0},{"voice":6,"pitch":80,"start":33.25,"duration":0.25,"velocity":95,"measure":17,"beat":3.5,"subject_pos":-1,"motif":"","motif_pos":-1,"best_pos":4,"similarity":0.389},{"voice":10,"pitch":50,"start":33.25,"duration":0.125,"velocity":85,"measure":17,"beat":3.5,"subject_pos":5,"motif":"subject","motif_pos":5,"best_pos":5,"similarity":1.0},{"voice":2,"pitch":74,"start":33.375,"duration":0.125,"velocity":70,"measure":17,"beat":3.75,"subject_pos":-1,"motif":"","motif_pos":-1,"best_pos":1,"similarity":0.286},{"voice":4,"pitch":76,"start":33.375,"duration":0.125,"velocity":75,"measure":17,"beat":3.75,"subject_pos":6,"motif":"subject","motif_pos":6,"best_pos":6,"similarity":1.0},{"voice":10,"pitch":52,"start":33.375,"duration":0.125,"velocity":85,"measure":17,"beat":3.75,"subject_pos":6,"motif":"subject","motif_pos":6,"best_pos":6,"similarity":1.0},{"voice":2,"pitch":77,"start":33.5,"duration":0.125,"velocity":70,"measure":17,"beat":4.0,"subject_pos":-1,"motif":"","motif_pos":-1,"best_pos":6,"similarity":0.186},{"voice":3,"pitch":28,"start":33.5,"duration":0.25,"velocity":95,"measure":17,"beat":4.0,"subject_pos":-1,"motif":"","motif_pos":-1,"best_pos":5,"similarity":0.436},{"voice":4,"pitch":77,"start":33.5,"duration":0.25,"velocity":75,"measure":17,"beat":4.0,"subject_pos":7,"motif":"subject","motif_pos":7,"best_pos":7,"similarity":1.0},{"voice":6,"pitch":80,"start":33.5,"duration":0.25,"velocity":65,"measure":17,"beat":4.0,"subject_pos":-1,"motif":"","motif_pos":-1,"best_pos":4,"similarity":0.389},{"voice":7,"pitch":36,"start":33.5,"duration":0.25,"velocity":100,"measure":17,"beat":4.0,"subject_pos":-1,"motif":"","motif_pos":-1,"best_pos":4,"similarity":0.389},{"voice":8,"pitch":74,"start":33.5,"duration":0.25,"velocity":85,"measure":17,"beat":4.0,"subject_pos":-1,"motif":"","motif_pos":-1,"best_pos":4,"similarity":0.389},{"voice":10,"pitch":53,"start":33.5,"duration":0.5,"velocity":85,"measure":17,"beat":4.0,"subject_pos":7,"motif":"subject","motif_pos":7,"best_pos":7,"similarity":1.0},{"voice":2,"pitch":81,"start":33.625,"duration":0.125,"velocity":70,"measure":17,"beat":4.25,"subject_pos":-1,"motif":"","motif_pos":-1,"best_pos":0,"similarity":0.286},{"voice":2,"pitch":86,"start":33.75,"duration":0.125,"velocity":70,"measure":17,"beat":4.5,"subject_pos":-1,"motif":"","motif_pos":-1,"best_pos":1,"similarity":0.286},{"voice":6,"pitch":80,"start":33.75,"duration":0.25,"velocity":95,"measure":17,"beat":4.5,"subject_pos":-1,"motif":"","motif_pos":-1,"best_pos":4,"similarity":0.389},{"voice":2,"pitch":89,"start":33.875,"duration":0.125,"velocity":70,"measure":17,"beat":4.75,"subject_pos":-1,"motif":"","motif_pos":-1,"best_pos":2,"similarity":0.161},{"voice":2,"pitch":65,"start":34.0,"duration":0.125,"velocity":70,"measure":18,"beat":1.0,"subject_pos":-1,"motif":"","motif_pos":-1,"best_pos":0,"similarity":0.143},{"voice":3,"pitch":31,"start":34.0,"duration":0.25,"velocity":95,"measure":18,"beat":1.0,"subject_pos":-1,"motif":"","motif_pos":-1,"best_pos":6,"similarity":0.393},{"voice":6,"pitch":80,"start":34.0,"duration":0.25,"velocity":65,"measure":18,"beat":1.0,"subject_pos":-1,"motif":"","motif_pos":-1,"best_pos":4,"similarity":0.389},{"voice":7,"pitch":36,"start":34.0,"duration":0.25,"velocity":100,"measure":18,"beat":1.0,"subject_pos":-1,"motif":"","motif_pos":-1,"best_pos":4,"similarity":0.389},{"voice":10,"pitch":57,"start":34.0,"duration":0.25,"velocity":80,"measure":18,"beat":1.0,"subject_pos":0,"motif":"subject_inv","motif_pos":0,"best_pos":0,"similarity":1.0},{"voice":2,"pitch":69,"start":34.125,"duration":0.125,"velocity":70,"measure":18,"beat":1.25,"subject_pos":-1,"motif":"","motif_pos":-1,"best_pos":5,"similarity":0.186},{"voice":2,"pitch":72,"start":34.25,"duration":0.125,"velocity":70,"measure":18,"beat":1.5,"subject_pos":-1,"motif":"","motif_pos":-1,"best_pos":0,"similarity":0.286},{"voice":6,"pitch":80,"start":34.25,"duration":0.25,"velocity":95,"measure":18,"beat":1.5,"subject_pos":-1,"motif":"","motif_pos":-1,"best_pos":4,"similarity":0.389},{"voice":10,"pitch":50,"start":34.25,"duration":0.25,"velocity":80,"measure":18,"beat":1.5,"subject_pos":1,"motif":"subject_inv","motif_pos":1,"best_pos":1,"similarity":1.0},{"voice":2,"pitch":77,"start":34.375,"duration":0.125,"velocity":70,"measure":18,"beat":1.75,"subject_pos":-1,"motif":"","motif_pos":-1,"best_pos":1,"similarity":0.286},{"voice":2,"pitch":81,"start":34.5,"duration":0.125,"velocity":70,"measure":18,"beat":2.0,"subject_pos":-1,"motif":"","motif_pos":-1,"best_pos":5,"similarity":0.186},{"voice":3,"pitch":31,"start":34.5,"duration":0.25,"velocity":95,"measure":18,"beat":2.0,"subject_pos":-1,"motif":"","motif_pos":-1,"best_pos":4,"similarity":0.346},{"voice":6,"pitch":80,"start":34.5,"duration":0.25,"velocity":65,"measure":18,"beat":2.0,"subject_pos":-1,"motif":"","motif_pos":-1,"best_pos":4,"similarity":0.389},{"voice":7,"pitch":36,"start":34.5,"duration":0.25,"velocity":100,"measure":18,"beat":2.0,"subject_pos":-1,"motif":"","motif_pos":-1,"best_pos":4,"similarity":0.389},{"voice":8,"pitch":74,"start":34.5,"duration":0.25,"velocity":85,"measure":18,"beat":2.0,"subject_pos":-1,"motif":"","motif_pos":-1,"best_pos":4,"similarity":0.389},{"voice":10,"pitch":54,"start":34.5,"duration":0.25,"velocity":80,"measure":18,"beat":2.0,"subject_pos":2,"motif":"subject_inv","motif_pos":2,"best_pos":2,"similarity":1.0},{"voice":2,"pitch":84,"start":34.625,"duration":0.125,"velocity":70,"measure":18,"beat":2.25,"subject_pos":-1,"motif":"","motif_pos":-1,"best_pos":0,"similarity":0.286},{"voice":2,"pitch":89,"start":34.75,"duration":0.125,"velocity":70,"measure":18,"beat":2.5,"subject_pos":-1,"motif":"","motif_pos":-1,"best_pos":1,"similarity":0.286},{"voice":6,"pitch":80,"start":34.75,"duration":0.25,"velocity":95,"measure":18,"beat":2.5,"subject_pos":-1,"motif":"","motif_pos":-1,"best_pos":4,"similarity":0.389},{"voice":10,"pitch":57,"start":34.75,"duration":0.25,"velocity":80,"measure":18,"beat":2.5,"subject_pos":3,"motif":"subject_inv","motif_pos":3,"best_pos":3,"similarity":1.0},{"voice":2,"pitch":93,"start":34.875,"duration":0.125,"velocity":70,"measure":18,"beat":2.75,"subject_pos":-1,"motif":"","motif_pos":-1,"best_pos":2,"similarity":0.161},{"voice":2,"pitch":65,"start":35.0,"duration":0.125,"velocity":70,"measure":18,"beat":3.0,"subject_pos":-1,"motif":"","motif_pos":-1,"best_pos":0,"similarity":0.143},{"voice":3,"pitch":31,"start":35.0,"duration":0.25,"velocity":95,"measure":18,"beat":3.0,"subject_pos":-1,"motif":"","motif_pos":-1,"best_pos":4,"similarity":0.35},{"voice":6,"pitch":80,"start":35.0,"duration":0.25,"velocity":65,"measure":18,"beat":3.0,"subject_pos":-1,"motif":"","motif_pos":-1,"best_pos":4,"similarity":0.389},{"voice":7,"pitch":36,"start":35.0,"duration":0.25,"velocity":100,"measure":18,"beat":3.0,"subject_pos":-1,"motif":"","motif_pos":-1,"best_pos":4,"similarity":0.389},{"voice":10,"pitch":58,"start":35.0,"duration":0.25,"velocity":80,"measure":18,"beat":3.0,"subject_pos":4,"motif":"subject_inv","motif_pos":4,"best_pos":4,"similarity":1.0},{"voice":2,"pitch":69,"start":35.125,"duration":0.125,"velocity":70,"measure":18,"beat":3.25,"subject_pos":-1,"motif":"","motif_pos":-1,"best_pos":5,"similarity":0.186},{"voice":2,"pitch":72,"start":35.25,"duration":0.125,"velocity":70,"measure":18,"beat":3.5,"subject_pos":-1,"motif":"","motif_pos":-1,"best_pos":0,"similarity":0.286},{"voice":6,"pitch":80,"start":35.25,"duration":0.25,"velocity":95,"measure":18,"beat":3.5,"subject_pos":-1,"motif":"","motif_pos":-1,"best_pos":4,"similarity":0.389},{"voice":10,"pitch":57,"start":35.25,"duration":0.125,"velocity":80,"measure":18,"beat":3.5,"subject_pos":5,"motif":"subject_inv","motif_pos":5,"best_pos":5,"similarity":1.0},{"voice":2,"pitch":77,"start":35.375,"duration":0.125,"velocity":70,"measure":18,"beat":3.75,"subject_pos":-1,"motif":"","motif_pos":-1,"best_pos":1,"similarity":0.286},{"voice":10,"pitch":55,"start":35.375,"duration":0.125,"velocity":80,"measure":18,"beat":3.75,"subject_pos":6,"motif":"subject_inv","motif_pos":6,"best_pos":6,"similarity":1.0},{"voice":2,"pitch":81,"start":35.5,"duration":0.125,"velocity":70,"measure":18,"beat":4.0,"subject_pos":-1,"motif":"","motif_pos":-1,"best_pos":5,"similarity":0.186},{"voice":3,"pitch":31,"start":35.5,"duration":0.25,"velocity":95,"measure":18,"beat":4.0,"subject_pos":-1,"motif":"","motif_pos":-1,"best_pos":0,"similarity":0.329},{"voice":6,"pitch":80,"start":35.5,"duration":0.25,"velocity":65,"measure":18,"beat":4.0,"subject_pos":-1,"motif":"","motif_pos":-1,"best_pos":4,"similarity":0.389},{"voice":7,"pitch":36,"start":35.5,"duration":0.25,"velocity":100,"measure":18,"beat":4.0,"subject_pos":-1,"motif":"","motif_pos":-1,"best_pos":4,"similarity":0.389},{"voice":8,"pitch":74,"start":35.5,"duration":0.25,"velocity":85,"measure":18,"beat":4.0,"subject_pos":-1,"motif":"","motif_pos":-1,"best_pos":4,"similarity":0.389},{"voice":10,"pitch":54,"start":35.5,"duration":0.5,"velocity":80,"measure":18,"beat":4.0,"subject_pos":7,"motif":"subject_inv","motif_pos":7,"best_pos":7,"similarity":1.0},{"voice":2,"pitch":84,"start":35.625,"duration":0.125,"velocity":70,"measure":18,"beat":4.25,"subject_pos":-1,"motif":"","motif_pos":-1,"best_pos":0,"similarity":0.286},{"voice":2,"pitch":89,"start":35.75,"duration":0.125,"velocity":70,"measure":18,"beat":4.5,"subject_pos":-1,"motif":"","motif_pos":-1,"best_pos":1,"similarity":0.286},{"voice":4,"pitch":69,"start":35.75,"duration":0.25,"velocity":70,"measure":18,"beat":4.5,"subject_pos":0,"motif":"subject","motif_pos":0,"best_pos":0,"similarity":1.0},{"voice":6,"pitch":80,"start":35.75,"duration":0.25,"velocity":95,"measure":18,"beat":4.5,"subject_pos":-1,"motif":"","motif_pos":-1,"best_pos":4,"similarity":0.389},{"voice":2,"pitch":93,"start":35.875,"duration":0.125,"velocity":70,"measure":18,"beat":4.75,"subject_pos":-1,"motif":"","motif_pos":-1,"best_pos":2,"similarity":0.161},{"voice":2,"pitch":70,"start":36.0,"duration":0.125,"velocity":70,"measure":19,"beat":1.0,"subject_pos":-1,"motif":"","motif_pos":-1,"best_pos":0,"similarity":0.143},{"voice":3,"pitch":36,"start":36.0,"duration":0.25,"velocity":95,"measure":19,"beat":1.0,"subject_pos":-1,"motif":"","motif_pos":-1,"best_pos":1,"similarity":0.407},{"voice":4,"pitch":74,"start":36.0,"duration":0.25,"velocity":70,"measure":19,"beat":1.0,"subject_pos":1,"motif":"subject","motif_pos":1,"best_pos":1,"similarity":1.0},{"voice":6,"pitch":80,"start":36.0,"duration":0.25,"velocity":65,"measure":19,"beat":1.0,"subject_pos":-1,"motif":"","motif_pos":-1,"best_pos":4,"similarity":0.389},{"voice":7,"pitch":36,"start":36.0,"duration":0.25,"velocity":100,"measure":19,"beat":1.0,"subject_pos":-1,"motif":"","motif_pos":-1,"best_pos":4,"similarity":0.389},{"voice":2,"pitch":74,"start":36.125,"duration":0.125,"velocity":70,"measure":19,"beat":1.25,"subject_pos":-1,"motif":"","motif_pos":-1,"best_pos":5,"similarity":0.186},{"voice":2,"pitch":77,"start":36.25,"duration":0.125,"velocity":70,"measure":19,"beat":1.5,"subject_pos":-1,"motif":"","motif_pos":-1,"best_pos":0,"similarity":0.286},{"voice":4,"pitch":72,"start":36.25,"duration":0.25,"velocity":70,"measure":19,"beat":1.5,"subject_pos":2,"motif":"subject","motif_pos":2,"best_pos":2,"similarity":1.0},{"voice":6,"pitch":80,"start":36.25,"duration":0.25,"velocity":95,"measure":19,"beat":1.5,"subject_pos":-1,"motif":"","motif_pos":-1,"best_pos":4,"similarity":0.389},{"voice":2,"pitch":82,"start":36.375,"duration":0.125,"velocity":70,"measure":19,"beat":1.75,"subject_pos":-1,"motif":"","motif_pos":-1,"best_pos":1,"similarity":0.286},{"voice":2,"pitch":86,"start":36.5,"duration":0.125,"velocity":70,"measure":19,"beat":2.0,"subject_pos":-1,"motif":"","motif_pos":-1,"best_pos":5,"similarity":0.186},{"voice":3,"pitch":36,"start":36.5,"duration":0.25,"velocity":95,"measure":19,"beat":2.0,"subject_pos":-1,"motif":"","motif_pos":-1,"best_pos":4,"similarity":0.357},{"voice":4,"pitch":69,"start":36.5,"duration":0.25,"velocity":70,"measure":19,"beat":2.0,"subject_pos":3,"motif":"subject","motif_pos":3,"best_pos":3,"similarity":1.0},{"voice":6,"pitch":80,"start":36.5,"duration":0.25,"velocity":65,"measure":19,"beat":2.0,"subject_pos":-1,"motif":"","motif_pos":-1,"best_pos":4,"similarity":0.389},{"voice":7,"pitch":36,"start":36.5,"duration":0.25,"velocity":100,"measure":19,"beat":2.0,"subject_pos":-1,"motif":"","motif_pos":-1,"best_pos":4,"similarity":0.389},{"voice":8,"pitch":74,"start":36.5,"duration":0.25,"velocity":85,"measure":19,"beat":2.0,"subject_pos":-1,"motif":"","motif_pos":-1,"best_pos":4,"similarity":0.389},{"voice":2,"pitch":89,"start":36.625,"duration":0.125,"velocity":70,"measure":19,"beat":2.25,"subject_pos":-1,"motif":"","motif_pos":-1,"best_pos":0,"similarity":0.286},{"voice":2,"pitch":94,"start":36.75,"duration":0.125,"velocity":70,"measure":19,"beat":2.5,"subject_pos":-1,"motif":"","motif_pos":-1,"best_pos":1,"similarity":0.286},{"voice":4,"pitch":68,"start":36.75,"duration":0.25,"velocity":70,"measure":19,"beat":2.5,"subject_pos":4,"motif":"subject","motif_pos":4,"best_pos":4,"similarity":1.0},{"voice":6,"pitch":80,"start":36.75,"duration":0.25,"velocity":95,"measure":19,"beat":2.5,"subject_pos":-1,"motif":"","motif_pos":-1,"best_pos":4,"similarity":0.389},{"voice":2,"pitch":98,"start":36.875,"duration":0.125,"velocity":70,"measure":19,"beat":2.75,"subject_pos":-1,"motif":"","motif_pos":-1,"best_pos":2,"similarity":0.161},{"voice":2,"pitch":70,"start":37.0,"duration":0.125,"velocity":70,"measure":19,"beat":3.0,"subject_pos":-1,"motif":"","motif_pos":-1,"best_pos":0,"similarity":0.143},{"voice":3,"pitch":36,"start":37.0,"duration":0.25,"velocity":95,"measure":19,"beat":3.0,"subject_pos":-1,"motif":"","motif_pos":-1,"best_pos":4,"similarity":0.35},{"voice":4,"pitch":69,"start":37.0,"duration":0.125,"velocity":70,"measure":19,"beat":3.0,"subject_pos":5,"motif":"subject","motif_pos":5,"best_pos":5,"similarity":1.0},{"voice":6,"pitch":80,"start":37.0,"duration":0.25,"velocity":65,"measure":19,"beat":3.0,"subject_pos":-1,"motif":"","motif_pos":-1,"best_pos":4,"similarity":0.389},{"voice":7,"pitch":36,"start":37.0,"duration":0.25,"velocity":100,"measure":19,"beat":3.0,"subject_pos":-1,"motif":"","motif_pos":-1,"best_pos":4,"similarity":0.389},{"voice":2,"pitch":74,"start":37.125,"duration":0.125,"velocity":70,"measure":19,"beat":3.25,"subject_pos":-1,"motif":"","motif_pos":-1,"best_pos":5,"similarity":0.186},{"voice":4,"pitch":71,"start":37.125,"duration":0.125,"velocity":70,"measure":19,"beat":3.25,"subject_pos":6,"motif":"subject","motif_pos":6,"best_pos":6,"similarity":1.0},{"voice":2,"pitch":77,"start":37.25,"duration":0.125,"velocity":70,"measure":19,"beat":3.5,"subject_pos":-1,"motif":"","motif_pos":-1,"best_pos":0,"similarity":0.286},{"voice":4,"pitch":72,"start":37.25,"duration":0.25,"velocity":70,"measure":19,"beat":3.5,"subject_pos":7,"motif":"subject","motif_pos":7,"best_pos":7,"similarity":1.0},{"voice":6,"pitch":80,"start":37.25,"duration":0.25,"velocity":95,"measure":19,"beat":3.5,"subject_pos":-1,"motif":"","motif_pos":-1,"best_pos":4,"similarity":0.389},{"voice":2,"pitch":82,"start":37.375,"duration":0.125,"velocity":70,"measure":19,"beat":3.75,"subject_pos":-1,"motif":"","motif_pos":-1,"best_pos":1,"similarity":0.286},{"voice":2,"pitch":86,"start":37.5,"duration":0.125,"velocity":70,"measure":19,"beat":4.0,"subject_pos":-1,"motif":"","motif_pos":-1,"best_pos":5,"similarity":0.186},{"voice":3,"pitch":36,"start":37.5,"duration":0.25,"velocity":95,"measure":19,"beat":4.0,"subject_pos":-1,"motif":"","motif_pos":-1,"best_pos":3,"similarity":0.439},{"voice":6,"pitch":80,"start":37.5,"duration":0.25,"velocity":65,"measure":19,"beat":4.0,"subject_pos":-1,"motif":"","motif_pos":-1,"best_pos":4,"similarity":0.389},{"voice":7,"pitch":36,"start":37.5,"duration":0.25,"velocity":100,"measure":19,"beat":4.0,"subject_pos":-1,"motif":"","motif_pos":-1,"best_pos":4,"similarity":0.389},{"voice":8,"pitch":74,"start":37.5,"duration":0.25,"velocity":85,"measure":19,"beat":4.0,"subject_pos":-1,"motif":"","motif_pos":-1,"best_pos":4,"similarity":0.389},{"voice":2,"pitch":89,"start":37.625,"duration":0.125,"velocity":70,"measure":19,"beat":4.25,"subject_pos":-1,"motif":"","motif_pos":-1,"best_pos":0,"similarity":0.286},{"voice":2,"pitch":94,"start":37.75,"duration":0.125,"velocity":70,"measure":19,"beat":4.5,"subject_pos":-1,"motif":"","motif_pos":-1,"best_pos":1,"similarity":0.286},{"voice":6,"pitch":80,"start":37.75,"duration":0.25,"velocity":95,"measure":19,"beat":4.5,"subject_pos":-1,"motif":"","motif_pos":-1,"best_pos":4,"similarity":0.389},{"voice":2,"pitch":98,"start":37.875,"duration":0.125,"velocity":70,"measure":19,"beat":4.75,"subject_pos":-1,"motif":"","motif_pos":-1,"best_pos":2,"similarity":0.161},{"voice":2,"pitch":69,"start":38.0,"duration":0.125,"velocity":70,"measure":20,"beat":1.0,"subject_pos":-1,"motif":"","motif_pos":-1,"best_pos":0,"similarity":0.143},{"voice":3,"pitch":35,"start":38.0,"duration":0.25,"velocity":95,"measure":20,"beat":1.0,"subject_pos":-1,"motif":"","motif_pos":-1,"best_pos":4,"similarity":0.532},{"voice":6,"pitch":80,"start":38.0,"duration":0.25,"velocity":65,"measure":20,"beat":1.0,"subject_pos":-1,"motif":"","motif_pos":-1,"best_pos":4,"similarity":0.389},{"voice":7,"pitch":36,"start":38.0,"duration":0.25,"velocity":100,"measure":20,"beat":1.0,"subject_pos":-1,"motif":"","motif_pos":-1,"best_pos":4,"similarity":0.389},{"voice":2,"pitch":73,"start":38.125,"duration":0.125,"velocity":70,"measure":20,"beat":1.25,"subject_pos":-1,"motif":"","motif_pos":-1,"best_pos":5,"similarity":0.207},{"voice":2,"pitch":76,"start":38.25,"duration":0.125,"velocity":70,"measure":20,"beat":1.5,"subject_pos":-1,"motif":"","motif_pos":-1,"best_pos":5,"similarity":0.286},{"voice":6,"pitch":80,"start":38.25,"duration":0.25,"velocity":95,"measure":20,"beat":1.5,"subject_pos":-1,"motif":"","motif_pos":-1,"best_pos":4,"similarity":0.389},{"voice":2,"pitch":79,"start":38.375,"duration":0.125,"velocity":70,"measure":20,"beat":1.75,"subject_pos":-1,"motif":"","motif_pos":-1,"best_pos":5,"similarity":0.386},{"voice":2,"pitch":81,"start":38.5,"duration":0.125,"velocity":70,"measure":20,"beat":2.0,"subject_pos":-1,"motif":"","motif_pos":-1,"best_pos":6,"similarity":0.357},{"voice":3,"pitch":35,"start":38.5,"duration":0.25,"velocity":95,"measure":20,"beat":2.0,"subject_pos":-1,"motif":"","motif_pos":-1,"best_pos":5,"similarity":0.436},{"voice":6,"pitch":80,"start":38.5,"duration":0.25,"velocity":65,"measure":20,"beat":2.0,"subject_pos":-1,"motif":"","motif_pos":-1,"best_pos":4,"similarity":0.389},{"voice":7,"pitch":36,"start":38.5,"duration":0.25,"velocity":100,"measure":20,"beat":2.0,"subject_pos":-1,"motif":"","motif_pos":-1,"best_pos":4,"similarity":0.389},{"voice":8,"pitch":74,"start":38.5,"duration":0.25,"velocity":85,"measure":20,"beat":2.0,"subject_pos":-1,"motif":"","motif_pos":-1,"best_pos":4,"similarity":0.389},{"voice":2,"pitch":85,"start":38.625,"duration":0.125,"velocity":70,"measure":20,"beat":2.25,"subject_pos":-1,"motif":"","motif_pos":-1,"best_pos":5,"similarity":0.221},{"voice":2,"pitch":88,"start":38.75,"duration":0.125,"velocity":70,"measure":20,"beat":2.5,"subject_pos":-1,"motif":"","motif_pos":-1,"best_pos":5,"similarity":0.286},{"voice":6,"pitch":80,"start":38.75,"duration":0.25,"velocity":95,"measure":20,"beat":2.5,"subject_pos":-1,"motif":"","motif_pos":-1,"best_pos":4,"similarity":0.389},{"voice":2,"pitch":91,"start":38.875,"duration":0.125,"velocity":70,"measure":20,"beat":2.75,"subject_pos":-1,"motif":"","motif_pos":-1,"best_pos":5,"similarity":0.386},{"voice":2,"pitch":93,"start":39.0,"duration":0.125,"velocity":70,"measure":20,"beat":3.0,"subject_pos":-1,"motif":"","motif_pos":-1,"best_pos":6,"similarity":0.357},{"voice":3,"pitch":35,"start":39.0,"duration":0.25,"velocity":95,"measure":20,"beat":3.0,"subject_pos":-1,"motif":"","motif_pos":-1,"best_pos":4,"similarity":0.371},{"voice":6,"pitch":80,"start":39.0,"duration":0.25,"velocity":65,"measure":20,"beat":3.0,"subject_pos":-1,"motif":"","motif_pos":-1,"best_pos":4,"similarity":0.389},{"voice":7,"pitch":36,"start":39.0,"duration":0.25,"velocity":100,"measure":20,"beat":3.0,"subject_pos":-1,"motif":"","motif_pos":-1,"best_pos":4,"similarity":0.389},{"voice":2,"pitch":97,"start":39.125,"duration":0.125,"velocity":70,"measure":20,"beat":3.25,"subject_pos":-1,"motif":"","motif_pos":-1,"best_pos":7,"similarity":0.189},{"voice":2,"pitch":69,"start":39.25,"duration":0.125,"velocity":70,"measure":20,"beat":3.5,"subject_pos":-1,"motif":"","motif_pos":-1,"best_pos":0,"similarity":0.143},{"voice":6,"pitch":80,"start":39.25,"duration":0.25,"velocity":95,"measure":20,"beat":3.5,"subject_pos":-1,"motif":"","motif_pos":-1,"best_pos":4,"similarity":0.389},{"voice":2,"pitch":73,"start":39.375,"duration":0.125,"velocity":70,"measure":20,"beat":3.75,"subject_pos":-1,"motif":"","motif_pos":-1,"best_pos":5,"similarity":0.207},{"voice":2,"pitch":76,"start":39.5,"duration":0.125,"velocity":70,"measure":20,"beat":4.0,"subject_pos":-1,"motif":"","motif_pos":-1,"best_pos":5,"similarity":0.286},{"voice":3,"pitch":35,"start":39.5,"duration":0.25,"velocity":95,"measure":20,"beat":4.0,"subject_pos":-1,"motif":"","motif_pos":-1,"best_pos":5,"similarity":0.293},{"voice":6,"pitch":80,"start":39.5,"duration":0.25,"velocity":65,"measure":20,"beat":4.0,"subject_pos":-1,"motif":"","motif_pos":-1,"best_pos":4,"similarity":0.389},{"voice":7,"pitch":36,"start":39.5,"duration":0.25,"velocity":100,"measure":20,"beat":4.0,"subject_pos":-1,"motif":"","motif_pos":-1,"best_pos":4,"similarity":0.389},{"voice":8,"pitch":74,"start":39.5,"duration":0.25,"velocity":85,"measure":20,"beat":4.0,"subject_pos":-1,"motif":"","motif_pos":-1,"best_pos":4,"similarity":0.389},{"voice":2,"pitch":79,"start":39.625,"duration":0.125,"velocity":70,"measure":20,"beat":4.25,"subject_pos":-1,"motif":"","motif_pos":-1,"best_pos":5,"similarity":0.386},{"voice":2,"pitch":81,"start":39.75,"duration":0.125,"velocity":70,"measure":20,"beat":4.5,"subject_pos":-1,"motif":"","motif_pos":-1,"best_pos":6,"similarity":0.357},{"voice":6,"pitch":80,"start":39.75,"duration":0.25,"velocity":95,"measure":20,"beat":4.5,"subject_pos":-1,"motif":"","motif_pos":-1,"best_pos":4,"similarity":0.389},{"voice":2,"pitch":85,"start":39.875,"duration":0.125,"velocity":70,"measure":20,"beat":4.75,"subject_pos":-1,"motif":"","motif_pos":-1,"best_pos":7,"similarity":0.189},{"voice":1,"pitch":62,"start":40.0,"duration":8.0,"velocity":50,"measure":21,"beat":1.0,"subject_pos":-1,"motif":"","motif_pos":-1,"best_pos":5,"similarity":0.157},{"voice":1,"pitch":65,"start":40.0,"duration":8.0,"velocity":50,"measure":21,"beat":1.0,"subject_pos":-1,"motif":"","motif_pos":-1,"best_pos":6,"similarity":0.171},{"voice":1,"pitch":69,"start":40.0,"duration":8.0,"velocity":50,"measure":21,"beat":1.0,"subject_pos":-1,"motif":"","motif_pos":-1,"best_pos":1,"similarity":0.143},{"voice":2,"pitch":62,"start":40.0,"duration":0.125,"velocity":70,"measure":21,"beat":1.0,"subject_pos":-1,"motif":"","motif_pos":-1,"best_pos":5,"similarity":0.157},{"voice":3,"pitch":28,"start":40.0,"duration":0.25,"velocity":95,"measure":21,"beat":1.0,"subject_pos":-1,"motif":"","motif_pos":-1,"best_pos":3,"similarity":0.296},{"voice":6,"pitch":80,"start":40.0,"duration":0.25,"velocity":65,"measure":21,"beat":1.0,"subject_pos":-1,"motif":"","motif_pos":-1,"best_pos":4,"similarity":0.389},{"voice":7,"pitch":36,"start":40.0,"duration":0.25,"velocity":100,"measure":21,"beat":1.0,"subject_pos":-1,"motif":"","motif_pos":-1,"best_pos":4,"similarity":0.389},{"voice":2,"pitch":65,"start":40.125,"duration":0.125,"velocity":70,"measure":21,"beat":1.25,"subject_pos":-1,"motif":"","motif_pos":-1,"best_pos":6,"similarity":0.171},{"voice":2,"pitch":69,"start":40.25,"duration":0.125,"velocity":70,"measure":21,"beat":1.5,"subject_pos":-1,"motif":"","motif_pos":-1,"best_pos":0,"similarity":0.286},{"voice":6,"pitch":80,"start":40.25,"duration":0.25,"velocity":95,"measure":21,"beat":1.5,"subject_pos":-1,"motif":"","motif_pos":-1,"best_pos":4,"similarity":0.389},{"voice":2,"pitch":74,"start":40.375,"duration":0.125,"velocity":70,"measure":21,"beat":1.75,"subject_pos":-1,"motif":"","motif_pos":-1,"best_pos":1,"similarity":0.286},{"voice":2,"pitch":77,"start":40.5,"duration":0.125,"velocity":70,"measure":21,"beat":2.0,"subject_pos":-1,"motif":"","motif_pos":-1,"best_pos":6,"similarity":0.186},{"voice":3,"pitch":28,"start":40.5,"duration":0.25,"velocity":95,"measure":21,"beat":2.0,"subject_pos":-1,"motif":"","motif_pos":-1,"best_pos":4,"similarity":0.361},{"voice":6,"pitch":80,"start":40.5,"duration":0.25,"velocity":65,"measure":21,"beat":2.0,"subject_pos":-1,"motif":"","motif_pos":-1,"best_pos":4,"similarity":0.389},{"voice":7,"pitch":36,"start":40.5,"duration":0.25,"velocity":100,"measure":21,"beat":2.0,"subject_pos":-1,"motif":"","motif_pos":-1,"best_pos":4,"similarity":0.389},{"voice":8,"pitch":74,"start":40.5,"duration":0.25,"velocity":85,"measure":21,"beat":2.0,"subject_pos":-1,"motif":"","motif_pos":-1,"best_pos":4,"similarity":0.389},{"voice":2,"pitch":81,"start":40.625,"duration":0.125,"velocity":70,"measure":21,"beat":2.25,"subject_pos":-1,"motif":"","motif_pos":-1,"best_pos":0,"similarity":0.286},{"voice":2,"pitch":86,"start":40.75,"duration":0.125,"velocity":70,"measure":21,"beat":2.5,"subject_pos":-1,"motif":"","motif_pos":-1,"best_pos":1,"similarity":0.293},{"voice":6,"pitch":80,"start":40.75,"duration":0.25,"velocity":95,"measure":21,"beat":2.5,"subject_pos":-1,"motif":"","motif_pos":-1,"best_pos":4,"similarity":0.389},{"voice":2,"pitch":89,"start":40.875,"duration":0.125,"velocity":70,"measure":21,"beat":2.75,"subject_pos":-1,"motif":"","motif_pos":-1,"best_pos":2,"similarity":0.164},{"voice":2,"pitch":62,"start":41.0,"duration":0.125,"velocity":70,"measure":21,"beat":3.0,"subject_pos":-1,"motif":"","motif_pos":-1,"best_pos":5,"similarity":0.171},{"voice":3,"pitch":28,"start":41.0,"duration":0.25,"velocity":95,"measure":21,"beat":3.0,"subject_pos":-1,"motif":"","motif_pos":-1,"best_pos":4,"similarity":0.357},{"voice":6,"pitch":80,"start":41.0,"duration":0.25,"velocity":65,"measure":21,"beat":3.0,"subject_pos":-1,"motif":"","motif_pos":-1,"best_pos":4,"similarity":0.389},{"voice":7,"pitch":36,"start":41.0,"duration":0.25,"velocity":100,"measure":21,"beat":3.0,"subject_pos":-1,"motif":"","motif_pos":-1,"best_pos":4,"similarity":0.389},{"voice":2,"pitch":65,"start":41.125,"duration":0.125,"velocity":70,"measure":21,"beat":3.25,"subject_pos":-1,"motif":"","motif_pos":-1,"best_pos":6,"similarity":0.179},{"voice":2,"pitch":69,"start":41.25,"duration":0.125,"velocity":70,"measure":21,"beat":3.5,"subject_pos":-1,"motif":"","motif_pos":-1,"best_pos":0,"similarity":0.286},{"voice":6,"pitch":80,"start":41.25,"duration":0.25,"velocity":95,"measure":21,"beat":3.5,"subject_pos":-1,"motif":"","motif_pos":-1,"best_pos":4,"similarity":0.389},{"voice":2,"pitch":74,"start":41.375,"duration":0.125,"velocity":70,"measure":21,"beat":3.75,"subject_pos":-1,"motif":"","motif_pos":-1,"best_pos":1,"similarity":0.286},{"voice":2,"pitch":77,"start":41.5,"duration":0.125,"velocity":70,"measure":21,"beat":4.0,"subject_pos":-1,"motif":"","motif_pos":-1,"best_pos":6,"similarity":0.186},{"voice":3,"pitch":28,"start":41.5,"duration":0.25,"velocity":95,"measure":21,"beat":4.0,"subject_pos":-1,"motif":"","motif_pos":-1,"best_pos":0,"similarity":0.329},{"voice":6,"pitch":80,"start":41.5,"duration":0.25,"velocity":65,"measure":21,"beat":4.0,"subject_pos":-1,"motif":"","motif_pos":-1,"best_pos":4,"similarity":0.389},{"voice":7,"pitch":36,"start":41.5,"duration":0.25,"velocity":100,"measure":21,"beat":4.0,"subject_pos":-1,"motif":"","motif_pos":-1,"best_pos":4,"similarity":0.389},{"voice":8,"pitch":74,"start":41.5,"duration":0.25,"velocity":85,"measure":21,"beat":4.0,"subject_pos":-1,"motif":"","motif_pos":-1,"best_pos":4,"similarity":0.389},{"voice":2,"pitch":81,"start":41.625,"duration":0.125,"velocity":70,"measure":21,"beat":4.25,"subject_pos":-1,"motif":"","motif_pos":-1,"best_pos":0,"similarity":0.286},{"voice":2,"pitch":86,"start":41.75,"duration":0.125,"velocity":70,"measure":21,"beat":4.5,"subject_pos":-1,"motif":"","motif_pos":-1,"best_pos":1,"similarity":0.293},{"voice":6,"pitch":80,"start":41.75,"duration":0.25,"velocity":95,"measure":21,"beat":4.5,"subject_pos":-1,"motif":"","motif_pos":-1,"best_pos":4,"similarity":0.389},{"voice":2,"pitch":89,"start":41.875,"duration":0.125,"velocity":70,"measure":21,"beat":4.75,"subject_pos":-1,"motif":"","motif_pos":-1,"best_pos":2,"similarity":0.164},{"voice":2,"pitch":67,"start":42.0,"duration":0.125,"velocity":70,"measure":22,"beat":1.0,"subject_pos":-1,"motif":"","motif_pos":-1,"best_pos":5,"similarity":0.171},{"voice":3,"pitch":33,"start":42.0,"duration":0.25,"velocity":95,"measure":22,"beat":1.0,"subject_pos":-1,"motif":"","motif_pos":-1,"best_pos":1,"similarity":0.407},{"voice":6,"pitch":80,"start":42.0,"duration":0.25,"velocity":65,"measure":22,"beat":1.0,"subject_pos":-1,"motif":"","motif_pos":-1,"best_pos":4,"similarity":0.389},{"voice":7,"pitch":36,"start":42.0,"duration":0.25,"velocity":100,"measure":22,"beat":1.0,"subject_pos":-1,"motif":"","motif_pos":-1,"best_pos":4,"similarity":0.389},{"voice":2,"pitch":70,"start":42.125,"duration":0.125,"velocity":70,"measure":22,"beat":1.25,"subject_pos":-1,"motif":"","motif_pos":-1,"best_pos":6,"similarity":0.179},{"voice":2,"pitch":74,"start":42.25,"duration":0.125,"velocity":70,"measure":22,"beat":1.5,"subject_pos":-1,"motif":"","motif_pos":-1,"best_pos":0,"similarity":0.286},{"voice":6,"pitch":80,"start":42.25,"duration":0.25,"velocity":95,"measure":22,"beat":1.5,"subject_pos":-1,"motif":"","motif_pos":-1,"best_pos":4,"similarity":0.389},{"voice":2,"pitch":79,"start":42.375,"duration":0.125,"velocity":70,"measure":22,"beat":1.75,"subject_pos":-1,"motif":"","motif_pos":-1,"best_pos":1,"similarity":0.286},{"voice":2,"pitch":82,"start":42.5,"duration":0.125,"velocity":70,"measure":22,"beat":2.0,"subject_pos":-1,"motif":"","motif_pos":-1,"best_pos":6,"similarity":0.186},{"voice":3,"pitch":33,"start":42.5,"duration":0.25,"velocity":95,"measure":22,"beat":2.0,"subject_pos":-1,"motif":"","motif_pos":-1,"best_pos":4,"similarity":0.375},{"voice":6,"pitch":80,"start":42.5,"duration":0.25,"velocity":65,"measure":22,"beat":2.0,"subject_pos":-1,"motif":"","motif_pos":-1,"best_pos":4,"similarity":0.389},{"voice":7,"pitch":36,"start":42.5,"duration":0.25,"velocity":100,"measure":22,"beat":2.0,"subject_pos":-1,"motif":"","motif_pos":-1,"best_pos":4,"similarity":0.389},{"voice":8,"pitch":74,"start":42.5,"duration":0.25,"velocity":85,"measure":22,"beat":2.0,"subject_pos":-1,"motif":"","motif_pos":-1,"best_pos":4,"similarity":0.389},{"voice":2,"pitch":86,"start":42.625,"duration":0.125,"velocity":70,"measure":22,"beat":2.25,"subject_pos":-1,"motif":"","motif_pos":-1,"best_pos":0,"similarity":0.286},{"voice":2,"pitch":91,"start":42.75,"duration":0.125,"velocity":70,"measure":22,"beat":2.5,"subject_pos":-1,"motif":"","motif_pos":-1,"best_pos":1,"similarity":0.293},{"voice":6,"pitch":80,"start":42.75,"duration":0.25,"velocity":95,"measure":22,"beat":2.5,"subject_pos":-1,"motif":"","motif_pos":-1,"best_pos":4,"similarity":0.389},{"voice":2,"pitch":94,"start":42.875,"duration":0.125,"velocity":70,"measure":22,"beat":2.75,"subject_pos":-1,"motif":"","motif_pos":-1,"best_pos":2,"similarity":0.164},{"voice":2,"pitch":67,"start":43.0,"duration":0.125,"velocity":70,"measure":22,"beat":3.0,"subject_pos":-1,"motif":"","motif_pos":-1,"best_pos":5,"similarity":0.171},{"voice":3,"pitch":33,"start":43.0,"duration":0.25,"velocity":95,"measure":22,"beat":3.0,"subject_pos":-1,"motif":"","motif_pos":-1,"best_pos":4,"similarity":0.479},{"voice":6,"pitch":80,"start":43.0,"duration":0.25,"velocity":65,"measure":22,"beat":3.0,"subject_pos":-1,"motif":"","motif_pos":-1,"best_pos":4,"similarity":0.389},{"voice":7,"pitch":36,"start":43.0,"duration":0.25,"velocity":100,"measure":22,"beat":3.0,"subject_pos":-1,"motif":"","motif_pos":-1,"best_pos":4,"similarity":0.389},{"voice":2,"pitch":70,"start":43.125,"duration":0.125,"velocity":70,"measure":22,"beat":3.25,"subject_pos":-1,"motif":"","motif_pos":-1,"best_pos":6,"similarity":0.179},{"voice":2,"pitch":74,"start":43.25,"duration":0.125,"velocity":70,"measure":22,"beat":3.5,"subject_pos":-1,"motif":"","motif_pos":-1,"best_pos":0,"similarity":0.286},{"voice":6,"pitch":80,"start":43.25,"duration":0.25,"velocity":95,"measure":22,"beat":3.5,"subject_pos":-1,"motif":"","motif_pos":-1,"best_pos":4,"similarity":0.389},{"voice":2,"pitch":79,"start":43.375,"duration":0.125,"velocity":70,"measure":22,"beat":3.75,"subject_pos":-1,"motif":"","motif_pos":-1,"best_pos":1,"similarity":0.286},{"voice":2,"pitch":82,"start":43.5,"duration":0.125,"velocity":70,"measure":22,"beat":4.0,"subject_pos":-1,"motif":"","motif_pos":-1,"best_pos":6,"similarity":0.186},{"voice":3,"pitch":33,"start":43.5,"duration":0.25,"velocity":95,"measure":22,"beat":4.0,"subject_pos":-1,"motif":"","motif_pos":-1,"best_pos":5,"similarity":0.579},{"voice":6,"pitch":80,"start":43.5,"duration":0.25,"velocity":65,"measure":22,"beat":4.0,"subject_pos":-1,"motif":"","motif_pos":-1,"best_pos":4,"similarity":0.389},{"voice":7,"pitch":36,"start":43.5,"duration":0.25,"velocity":100,"measure":22,"beat":4.0,"subject_pos":-1,"motif":"","motif_pos":-1,"best_pos":4,"similarity":0.389},{"voice":8,"pitch":74,"start":43.5,"duration":0.25,"velocity":85,"measure":22,"beat":4.0,"subject_pos":-1,"motif":"","motif_pos":-1,"best_pos":4,"similarity":0.389},{"voice":2,"pitch":86,"start":43.625,"duration":0.125,"velocity":70,"measure":22,"beat":4.25,"subject_pos":-1,"motif":"","motif_pos":-1,"best_pos":0,"similarity":0.286},{"voice":2,"pitch":91,"start":43.75,"duration":0.125,"velocity":70,"measure":22,"beat":4.5,"subject_pos":-1,"motif":"","motif_pos":-1,"best_pos":1,"similarity":0.286},{"voice":6,"pitch":80,"start":43.75,"duration":0.25,"velocity":95,"measure":22,"beat":4.5,"subject_pos":-1,"motif":"","motif_pos":-1,"best_pos":4,"similarity":0.389},{"voice":2,"pitch":94,"start":43.875,"duration":0.125,"velocity":70,"measure":22,"beat":4.75,"subject_pos":-1,"motif":"","motif_pos":-1,"best_pos":2,"similarity":0.161},{"voice":2,"pitch":69,"start":44.0,"duration":0.125,"velocity":70,"measure":23,"beat":1.0,"subject_pos":-1,"motif":"","motif_pos":-1,"best_pos":0,"similarity":0.143},{"voice":3,"pitch":35,"start":44.0,"duration":0.25,"velocity":95,"measure":23,"beat":1.0,"subject_pos":-1,"motif":"","motif_pos":-1,"best_pos":6,"similarity":0.536},{"voice":6,"pitch":80,"start":44.0,"duration":0.25,"velocity":65,"measure":23,"beat":1.0,"subject_pos":-1,"motif":"","motif_pos":-1,"best_pos":4,"similarity":0.389},{"voice":7,"pitch":36,"start":44.0,"duration":0.25,"velocity":100,"measure":23,"beat":1.0,"subject_pos":-1,"motif":"","motif_pos":-1,"best_pos":4,"similarity":0.389},{"voice":9,"pitch":55,"start":44.0,"duration":0.25,"velocity":30,"measure":23,"beat":1.0,"subject_pos":-1,"motif":"","motif_pos":-1,"best_pos":6,"similarity":0.304},{"voice":2,"pitch":73,"start":44.125,"duration":0.125,"velocity":70,"measure":23,"beat":1.25,"subject_pos":-1,"motif":"","motif_pos":-1,"best_pos":5,"similarity":0.207},{"voice":2,"pitch":76,"start":44.25,"duration":0.125,"velocity":70,"measure":23,"beat":1.5,"subject_pos":-1,"motif":"","motif_pos":-1,"best_pos":5,"similarity":0.286},{"voice":6,"pitch":80,"start":44.25,"duration":0.25,"velocity":95,"measure":23,"beat":1.5,"subject_pos":-1,"motif":"","motif_pos":-1,"best_pos":4,"similarity":0.389},{"voice":9,"pitch":55,"start":44.25,"duration":0.25,"velocity":31,"measure":23,"beat":1.5,"subject_pos":-1,"motif":"","motif_pos":-1,"best_pos":4,"similarity":0.4},{"voice":2,"pitch":79,"start":44.375,"duration":0.125,"velocity":70,"measure":23,"beat":1.75,"subject_pos":-1,"motif":"","motif_pos":-1,"best_pos":5,"similarity":0.386},{"voice":2,"pitch":81,"start":44.5,"duration":0.125,"velocity":70,"measure":23,"beat":2.0,"subject_pos":-1,"motif":"","motif_pos":-1,"best_pos":6,"similarity":0.357},{"voice":3,"pitch":35,"start":44.5,"duration":0.25,"velocity":95,"measure":23,"beat":2.0,"subject_pos":-1,"motif":"","motif_pos":-1,"best_pos":4,"similarity":0.339},{"voice":6,"pitch":80,"start":44.5,"duration":0.25,"velocity":65,"measure":23,"beat":2.0,"subject_pos":-1,"motif":"","motif_pos":-1,"best_pos":4,"similarity":0.389},{"voice":7,"pitch":36,"start":44.5,"duration":0.25,"velocity":100,"measure":23,"beat":2.0,"subject_pos":-1,"motif":"","motif_pos":-1,"best_pos":4,"similarity":0.389},{"voice":8,"pitch":74,"start":44.5,"duration":0.25,"velocity":85,"measure":23,"beat":2.0,"subject_pos":-1,"motif":"","motif_pos":-1,"best_pos":4,"similarity":0.389},{"voice":9,"pitch":55,"start":44.5,"duration":0.25,"velocity":32,"measure":23,"beat":2.0,"subject_pos":-1,"motif":"","motif_pos":-1,"best_pos":4,"similarity":0.55},{"voice":2,"pitch":85,"start":44.625,"duration":0.125,"velocity":70,"measure":23,"beat":2.25,"subject_pos":-1,"motif":"","motif_pos":-1,"best_pos":5,"similarity":0.221},{"voice":2,"pitch":88,"start":44.75,"duration":0.125,"velocity":70,"measure":23,"beat":2.5,"subject_pos":-1,"motif":"","motif_pos":-1,"best_pos":5,"similarity":0.286},{"voice":6,"pitch":80,"start":44.75,"duration":0.25,"velocity":95,"measure":23,"beat":2.5,"subject_pos":-1,"motif":"","motif_pos":-1,"best_pos":4,"similarity":0.389},{"voice":9,"pitch":56,"start":44.75,"duration":0.25,"velocity":33,"measure":23,"beat":2.5,"subject_pos":-1,"motif":"","motif_pos":-1,"best_pos":5,"similarity":0.579},{"voice":2,"pitch":91,"start":44.875,"duration":0.125,"velocity":70,"measure":23,"beat":2.75,"subject_pos":-1,"motif":"","motif_pos":-1,"best_pos":5,"similarity":0.386},{"voice":2,"pitch":93,"start":45.0,"duration":0.125,"velocity":70,"measure":23,"beat":3.0,"subject_pos":-1,"motif":"","motif_pos":-1,"best_pos":6,"similarity":0.357},{"voice":3,"pitch":35,"start":45.0,"duration":0.25,"velocity":95,"measure":23,"beat":3.0,"subject_pos":-1,"motif":"","motif_pos":-1,"best_pos":4,"similarity":0.343},{"voice":6,"pitch":80,"start":45.0,"duration":0.25,"velocity":65,"measure":23,"beat":3.0,"subject_pos":-1,"motif":"","motif_pos":-1,"best_pos":4,"similarity":0.389},{"voice":7,"pitch":36,"start":45.0,"duration":0.25,"velocity":100,"measure":23,"beat":3.0,"subject_pos":-1,"motif":"","motif_pos":-1,"best_pos":4,"similarity":0.389},{"voice":9,"pitch":56,"start":45.0,"duration":0.25,"velocity":34,"measure":23,"beat":3.0,"subject_pos":-1,"motif":"","motif_pos":-1,"best_pos":4,"similarity":0.568},{"voice":2,"pitch":97,"start":45.125,"duration":0.125,"velocity":70,"measure":23,"beat":3.25,"subject_pos":-1,"motif":"","motif_pos":-1,"best_pos":7,"similarity":0.189},{"voice":2,"pitch":69,"start":45.25,"duration":0.125,"velocity":70,"measure":23,"beat":3.5,"subject_pos":-1,"motif":"","motif_pos":-1,"best_pos":0,"similarity":0.143},{"voice":6,"pitch":80,"start":45.25,"duration":0.25,"velocity":95,"measure":23,"beat":3.5,"subject_pos":-1,"motif":"","motif_pos":-1,"best_pos":4,"similarity":0.389},{"voice":9,"pitch":57,"start":45.25,"duration":0.25,"velocity":35,"measure":23,"beat":3.5,"subject_pos":-1,"motif":"","motif_pos":-1,"best_pos":5,"similarity":0.579},{"voice":2,"pitch":73,"start":45.375,"duration":0.125,"velocity":70,"measure":23,"beat":3.75,"subject_pos":-1,"motif":"","motif_pos":-1,"best_pos":5,"similarity":0.207},{"voice":2,"pitch":76,"start":45.5,"duration":0.125,"velocity":70,"measure":23,"beat":4.0,"subject_pos":-1,"motif":"","motif_pos":-1,"best_pos":5,"similarity":0.286},{"voice":3,"pitch":35,"start":45.5,"duration":0.25,"velocity":95,"measure":23,"beat":4.0,"subject_pos":-1,"motif":"","motif_pos":-1,"best_pos":5,"similarity":0.293},{"voice":6,"pitch":80,"start":45.5,"duration":0.25,"velocity":65,"measure":23,"beat":4.0,"subject_pos":-1,"motif":"","motif_pos":-1,"best_pos":4,"similarity":0.389},{"voice":7,"pitch":36,"start":45.5,"duration":0.25,"velocity":100,"measure":23,"beat":4.0,"subject_pos":-1,"motif":"","motif_pos":-1,"best_pos":4,"similarity":0.389},{"voice":8,"pitch":74,"start":45.5,"duration":0.25,"velocity":85,"measure":23,"beat":4.0,"subject_pos":-1,"motif":"","motif_pos":-1,"best_pos":4,"similarity":0.389},{"voice":9,"pitch":57,"start":45.5,"duration":0.25,"velocity":36,"measure":23,"beat":4.0,"subject_pos":-1,"motif":"","motif_pos":-1,"best_pos":4,"similarity":0.568},{"voice":2,"pitch":79,"start":45.625,"duration":0.125,"velocity":70,"measure":23,"beat":4.25,"subject_pos":-1,"motif":"","motif_pos":-1,"best_pos":5,"similarity":0.386},{"voice":2,"pitch":81,"start":45.75,"duration":0.125,"velocity":70,"measure":23,"beat":4.5,"subject_pos":-1,"motif":"","motif_pos":-1,"best_pos":6,"similarity":0.357},{"voice":6,"pitch":80,"start":45.75,"duration":0.25,"velocity":95,"measure":23,"beat":4.5,"subject_pos":-1,"motif":"","motif_pos":-1,"best_pos":4,"similarity":0.389},{"voice":9,"pitch":58,"start":45.75,"duration":0.25,"velocity":37,"measure":23,"beat":4.5,"subject_pos":-1,"motif":"","motif_pos":-1,"best_pos":5,"similarity":0.579},{"voice":2,"pitch":85,"start":45.875,"duration":0.125,"velocity":70,"measure":23,"beat":4.75,"subject_pos":-1,"motif":"","motif_pos":-1,"best_pos":7,"similarity":0.189},{"voice":2,"pitch":62,"start":46.0,"duration":0.125,"velocity":70,"measure":24,"beat":1.0,"subject_pos":-1,"motif":"","motif_pos":-1,"best_pos":5,"similarity":0.157},{"voice":3,"pitch":28,"start":46.0,"duration":0.25,"velocity":95,"measure":24,"beat":1.0,"subject_pos":-1,"motif":"","motif_pos":-1,"best_pos":3,"similarity":0.296},{"voice":6,"pitch":80,"start":46.0,"duration":0.25,"velocity":65,"measure":24,"beat":1.0,"subject_pos":-1,"motif":"","motif_pos":-1,"best_pos":4,"similarity":0.389},{"voice":7,"pitch":36,"start":46.0,"duration":0.25,"velocity":100,"measure":24,"beat":1.0,"subject_pos":-1,"motif":"","motif_pos":-1,"best_pos":4,"similarity":0.389},{"voice":9,"pitch":58,"start":46.0,"duration":0.25,"velocity":38,"measure":24,"beat":1.0,"subject_pos":-1,"motif":"","motif_pos":-1,"best_pos":4,"similarity":0.568},{"voice":2,"pitch":65,"start":46.125,"duration":0.125,"velocity":70,"measure":24,"beat":1.25,"subject_pos":-1,"motif":"","motif_pos":-1,"best_pos":6,"similarity":0.171},{"voice":2,"pitch":69,"start":46.25,"duration":0.125,"velocity":70,"measure":24,"beat":1.5,"subject_pos":-1,"motif":"","motif_pos":-1,"best_pos":0,"similarity":0.286},{"voice":6,"pitch":80,"start":46.25,"duration":0.25,"velocity":95,"measure":24,"beat":1.5,"subject_pos":-1,"motif":"","motif_pos":-1,"best_pos":4,"similarity":0.389},{"voice":9,"pitch":59,"start":46.25,"duration":0.25,"velocity":39,"measure":24,"beat":1.5,"subject_pos":-1,"motif":"","motif_pos":-1,"best_pos":5,"similarity":0.579},{"voice":2,"pitch":74,"start":46.375,"duration":0.125,"velocity":70,"measure":24,"beat":1.75,"subject_pos":-1,"motif":"","motif_pos":-1,"best_pos":1,"similarity":0.286},{"voice":2,"pitch":77,"start":46.5,"duration":0.125,"velocity":70,"measure":24,"beat":2.0,"subject_pos":-1,"motif":"","motif_pos":-1,"best_pos":6,"similarity":0.186},{"voice":3,"pitch":28,"start":46.5,"duration":0.25,"velocity":95,"measure":24,"beat":2.0,"subject_pos":-1,"motif":"","motif_pos":-1,"best_pos":4,"similarity":0.389},{"voice":6,"pitch":80,"start":46.5,"duration":0.25,"velocity":65,"measure":24,"beat":2.0,"subject_pos":-1,"motif":"","motif_pos":-1,"best_pos":4,"similarity":0.389},{"voice":7,"pitch":36,"start":46.5,"duration":0.25,"velocity":100,"measure":24,"beat":2.0,"subject_pos":-1,"motif":"","motif_pos":-1,"best_pos":4,"similarity":0.389},{"voice":8,"pitch":74,"start":46.5,"duration":0.25,"velocity":85,"measure":24,"beat":2.0,"subject_pos":-1,"motif":"","motif_pos":-1,"best_pos":4,"similarity":0.389},{"voice":9,"pitch":59,"start":46.5,"duration":0.25,"velocity":40,"measure":24,"beat":2.0,"subject_pos":-1,"motif":"","motif_pos":-1,"best_pos":4,"similarity":0.568},{"voice":2,"pitch":81,"start":46.625,"duration":0.125,"velocity":70,"measure":24,"beat":2.25,"subject_pos":-1,"motif":"","motif_pos":-1,"best_pos":0,"similarity":0.286},{"voice":2,"pitch":86,"start":46.75,"duration":0.125,"velocity":70,"measure":24,"beat":2.5,"subject_pos":-1,"motif":"","motif_pos":-1,"best_pos":1,"similarity":0.293},{"voice":6,"pitch":80,"start":46.75,"duration":0.25,"velocity":95,"measure":24,"beat":2.5,"subject_pos":-1,"motif":"","motif_pos":-1,"best_pos":4,"similarity":0.389},{"voice":9,"pitch":60,"start":46.75,"duration":0.25,"velocity":41,"measure":24,"beat":2.5,"subject_pos":-1,"motif":"","motif_pos":-1,"best_pos":5,"similarity":0.579},{"voice":2,"pitch":89,"start":46.875,"duration":0.125,"velocity":70,"measure":24,"beat":2.75,"subject_pos":-1,"motif":"","motif_pos":-1,"best_pos":2,"similarity":0.164},{"voice":2,"pitch":62,"start":47.0,"duration":0.125,"velocity":70,"measure":24,"beat":3.0,"subject_pos":-1,"motif":"","motif_pos":-1,"best_pos":5,"similarity":0.171},{"voice":3,"pitch":28,"start":47.0,"duration":0.25,"velocity":95,"measure":24,"beat":3.0,"subject_pos":-1,"motif":"","motif_pos":-1,"best_pos":4,"similarity":0.379},{"voice":6,"pitch":80,"start":47.0,"duration":0.25,"velocity":65,"measure":24,"beat":3.0,"subject_pos":-1,"motif":"","motif_pos":-1,"best_pos":4,"similarity":0.389},{"voice":7,"pitch":36,"start":47.0,"duration":0.25,"velocity":100,"measure":24,"beat":3.0,"subject_pos":-1,"motif":"","motif_pos":-1,"best_pos":4,"similarity":0.389},{"voice":9,"pitch":60,"start":47.0,"duration":0.25,"velocity":42,"measure":24,"beat":3.0,"subject_pos":-1,"motif":"","motif_pos":-1,"best_pos":4,"similarity":0.568},{"voice":2,"pitch":65,"start":47.125,"duration":0.125,"velocity":70,"measure":24,"beat":3.25,"subject_pos":-1,"motif":"","motif_pos":-1,"best_pos":6,"similarity":0.179},{"voice":2,"pitch":69,"start":47.25,"duration":0.125,"velocity":70,"measure":24,"beat":3.5,"subject_pos":-1,"motif":"","motif_pos":-1,"best_pos":0,"similarity":0.286},{"voice":6,"pitch":80,"start":47.25,"duration":0.25,"velocity":95,"measure":24,"beat":3.5,"subject_pos":-1,"motif":"","motif_pos":-1,"best_pos":4,"similarity":0.389},{"voice":9,"pitch":61,"start":47.25,"duration":0.25,"velocity":43,"measure":24,"beat":3.5,"subject_pos":-1,"motif":"","motif_pos":-1,"best_pos":5,"similarity":0.579},{"voice":2,"pitch":74,"start":47.375,"duration":0.125,"velocity":70,"measure":24,"beat":3.75,"subject_pos":-1,"motif":"","motif_pos":-1,"best_pos":1,"similarity":0.286},{"voice":2,"pitch":77,"start":47.5,"duration":0.125,"velocity":70,"measure":24,"beat":4.0,"subject_pos":-1,"motif":"","motif_pos":-1,"best_pos":6,"similarity":0.186},{"voice":3,"pitch":28,"start":47.5,"duration":0.25,"velocity":95,"measure":24,"beat":4.0,"subject_pos":-1,"motif":"","motif_pos":-1,"best_pos":4,"similarity":0.389},{"voice":6,"pitch":80,"start":47.5,"duration":0.25,"velocity":65,"measure":24,"beat":4.0,"subject_pos":-1,"motif":"","motif_pos":-1,"best_pos":4,"similarity":0.389},{"voice":7,"pitch":36,"start":47.5,"duration":0.25,"velocity":100,"measure":24,"beat":4.0,"subject_pos":-1,"motif":"","motif_pos":-1,"best_pos":4,"similarity":0.389},{"voice":8,"pitch":74,"start":47.5,"duration":0.25,"velocity":85,"measure":24,"beat":4.0,"subject_pos":-1,"motif":"","motif_pos":-1,"best_pos":4,"similarity":0.389},{"voice":9,"pitch":61,"start":47.5,"duration":0.25,"velocity":44,"measure":24,"beat":4.0,"subject_pos":-1,"motif":"","motif_pos":-1,"best_pos":6,"similarity":0.536},{"voice":2,"pitch":81,"start":47.625,"duration":0.125,"velocity":70,"measure":24,"beat":4.25,"subject_pos":-1,"motif":"","motif_pos":-1,"best_pos":0,"similarity":0.286},{"voice":2,"pitch":86,"start":47.75,"duration":0.125,"velocity":70,"measure":24,"beat":4.5,"subject_pos":-1,"motif":"","motif_pos":-1,"best_pos":1,"similarity":0.293},{"voice":6,"pitch":80,"start":47.75,"duration":0.25,"velocity":95,"measure":24,"beat":4.5,"subject_pos":-1,"motif":"","motif_pos":-1,"best_pos":4,"similarity":0.389},{"voice":9,"pitch":62,"start":47.75,"duration":0.25,"velocity":45,"measure":24,"beat":4.5,"subject_pos":-1,"motif":"","motif_pos":-1,"best_pos":5,"similarity":0.507},{"voice":2,"pitch":89,"start":47.875,"duration":0.125,"velocity":70,"measure":24,"beat":4.75,"subject_pos":-1,"motif":"","motif_pos":-1,"best_pos":2,"similarity":0.164},{"voice":0,"pitch":81,"start":48.0,"duration":0.5,"velocity":90,"measure":25,"beat":1.0,"subject_pos":0,"motif":"subject_inv","motif_pos":0,"best_pos":0,"similarity":1.0},{"voice":1,"pitch":50,"start":48.0,"duration":8.0,"velocity":60,"measure":25,"beat":1.0,"subject_pos":-1,"motif":"","motif_pos":-1,"best_pos":5,"similarity":0.157},{"voice":1,"pitch":53,"start":48.0,"duration":8.0,"velocity":60,"measure":25,"beat":1.0,"subject_pos":-1,"motif":"","motif_pos":-1,"best_pos":6,"similarity":0.171},{"voice":1,"pitch":57,"start":48.0,"duration":8.0,"velocity":60,"measure":25,"beat":1.0,"subject_pos":-1,"motif":"","motif_pos":-1,"best_pos":1,"similarity":0.143},{"voice":1,"pitch":74,"start":48.0,"duration":8.0,"velocity":45,"measure":25,"beat":1.0,"subject_pos":-1,"motif":"","motif_pos":-1,"best_pos":5,"similarity":0.157},{"voice":1,"pitch":77,"start":48.0,"duration":8.0,"velocity":45,"measure":25,"beat":1.0,"subject_pos":-1,"motif":"","motif_pos":-1,"best_pos":6,"similarity":0.171},{"voice":1,"pitch":81,"start":48.0,"duration":8.0,"velocity":45,"measure":25,"beat":1.0,"subject_pos":-1,"motif":"","motif_pos":-1,"best_pos":1,"similarity":0.143},{"voice":2,"pitch":50,"start":48.0,"duration":0.0625,"velocity":65,"measure":25,"beat":1.0,"subject_pos":-1,"motif":"","motif_pos":-1,"best_pos":5,"similarity":0.171},{"voice":3,"pitch":28,"start":48.0,"duration":0.25,"velocity":100,"measure":25,"beat":1.0,"subject_pos":-1,"motif":"","motif_pos":-1,"best_pos":4,"similarity":0.389},{"voice":4,"pitch":74,"start":48.0,"duration":0.125,"velocity":70,"measure":25,"beat":1.0,"subject_pos":0,"motif":"subject","motif_pos":0,"best_pos":0,"similarity":1.0},{"voice":6,"pitch":80,"start":48.0,"duration":0.125,"velocity":55,"measure":25,"beat":1.0,"subject_pos":-1,"motif":"","motif_pos":-1,"best_pos":4,"similarity":0.468},{"voice":7,"pitch":36,"start":48.0,"duration":0.25,"velocity":110,"measure":25,"beat":1.0,"subject_pos":-1,"motif":"","motif_pos":-1,"best_pos":4,"similarity":0.389},{"voice":9,"pitch":62,"start":48.0,"duration":0.25,"velocity":46,"measure":25,"beat":1.0,"subject_pos":-1,"motif":"","motif_pos":-1,"best_pos":4,"similarity":0.425},{"voice":10,"pitch":50,"start":48.0,"duration":0.25,"velocity":90,"measure":25,"beat":1.0,"subject_pos":0,"motif":"subject","motif_pos":0,"best_pos":0,"similarity":1.0},{"voice":11,"pitch":74,"start":48.0,"duration":0.5,"velocity":100,"measure":25,"beat":1.0,"subject_pos":0,"motif":"subject","motif_pos":0,"best_pos":0,"similarity":1.0},{"voice":2,"pitch":53,"start":48.0625,"duration":0.0625,"velocity":65,"measure":25,"beat":1.125,"subject_pos":-1,"motif":"","motif_pos":-1,"best_pos":6,"similarity":0.179},{"voice":2,"pitch":57,"start":48.125,"duration":0.0625,"velocity":65,"measure":25,"beat":1.25,"subject_pos":-1,"motif":"","motif_pos":-1,"best_pos":0,"similarity":0.286},{"voice":4,"pitch":81,"start":48.125,"duration":0.125,"velocity":70,"measure":25,"beat":1.25,"subject_pos":1,"motif":"subject","motif_pos":1,"best_pos":1,"similarity":1.0},{"voice":6,"pitch":80,"start":48.125,"duration":0.125,"velocity":80,"measure":25,"beat":1.25,"subject_pos":-1,"motif":"","motif_pos":-1,"best_pos":5,"similarity":0.521},{"voice":2,"pitch":62,"start":48.1875,"duration":0.0625,"velocity":65,"measure":25,"beat":1.375,"subject_pos":-1,"motif":"","motif_pos":-1,"best_pos":1,"similarity":0.286},{"voice":2,"pitch":65,"start":48.25,"duration":0.0625,"velocity":65,"measure":25,"beat":1.5,"subject_pos":-1,"motif":"","motif_pos":-1,"best_pos":6,"similarity":0.186},{"voice":4,"pitch":77,"start":48.25,"duration":0.125,"velocity":70,"measure":25,"beat":1.5,"subject_pos":2,"motif":"subject","motif_pos":2,"best_pos":2,"similarity":1.0},{"voice":5,"pitch":62,"start":48.25,"duration":0.25,"velocity":80,"measure":25,"beat":1.5,"subject_pos":-1,"motif":"","motif_pos":-1,"best_pos":5,"similarity":0.157},{"voice":5,"pitch":65,"start":48.25,"duration":0.25,"velocity":80,"measure":25,"beat":1.5,"subject_pos":-1,"motif":"","motif_pos":-1,"best_pos":6,"similarity":0.171},{"voice":5,"pitch":69,"start":48.25,"duration":0.25,"velocity":80,"measure":25,"beat":1.5,"subject_pos":-1,"motif":"","motif_pos":-1,"best_pos":1,"similarity":0.171},{"voice":6,"pitch":82,"start":48.25,"duration":0.125,"velocity":100,"measure":25,"beat":1.5,"subject_pos":-1,"motif":"","motif_pos":-1,"best_pos":6,"similarity":0.421},{"voice":9,"pitch":62,"start":48.25,"duration":0.25,"velocity":47,"measure":25,"beat":1.5,"subject_pos":-1,"motif":"","motif_pos":-1,"best_pos":4,"similarity":0.557},{"voice":10,"pitch":57,"start":48.25,"duration":0.25,"velocity":90,"measure":25,"beat":1.5,"subject_pos":1,"motif":"subject","motif_pos":1,"best_pos":1,"similarity":1.0},{"voice":2,"pitch":69,"start":48.3125,"duration":0.0625,"velocity":65,"measure":25,"beat":1.625,"subject_pos":-1,"motif":"","motif_pos":-1,"best_pos":0,"similarity":0.286},{"voice":2,"pitch":74,"start":48.375,"duration":0.0625,"velocity":65,"measure":25,"beat":1.75,"subject_pos":-1,"motif":"","motif_pos":-1,"best_pos":1,"similarity":0.286},{"voice":4,"pitch":74,"start":48.375,"duration":0.125,"velocity":70,"measure":25,"beat":1.75,"subject_pos":3,"motif":"subject","motif_pos":3,"best_pos":3,"similarity":1.0},{"voice":6,"pitch":80,"start":48.375,"duration":0.125,"velocity":80,"measure":25,"beat":1.75,"subject_pos":-1,"motif":"","motif_pos":-1,"best_pos":3,"similarity":0.443},{"voice":2,"pitch":77,"start":48.4375,"duration":0.0625,"velocity":65,"measure":25,"beat":1.875,"subject_pos":-1,"motif":"","motif_pos":-1,"best_pos":6,"similarity":0.186},{"voice":0,"pitch":74,"start":48.5,"duration":0.5,"velocity":90,"measure":25,"beat":2.0,"subject_pos":1,"motif":"subject_inv","motif_pos":1,"best_pos":1,"similarity":1.0},{"voice":2,"pitch":81,"start":48.5,"duration":0.0625,"velocity":65,"measure":25,"beat":2.0,"subject_pos":-1,"motif":"","motif_pos":-1,"best_pos":1,"similarity":0.143},{"voice":3,"pitch":28,"start":48.5,"duration":0.25,"velocity":100,"measure":25,"beat":2.0,"subject_pos":-1,"motif":"","motif_pos":-1,"best_pos":5,"similarity":0.364},{"voice":4,"pitch":73,"start":48.5,"duration":0.125,"velocity":70,"measure":25,"beat":2.0,"subject_pos":4,"motif":"subject","motif_pos":4,"best_pos":4,"similarity":1.0},{"voice":6,"pitch":80,"start":48.5,"duration":0.125,"velocity":55,"measure":25,"beat":2.0,"subject_pos":-1,"motif":"","motif_pos":-1,"best_pos":4,"similarity":0.514},{"voice":7,"pitch":36,"start":48.5,"duration":0.25,"velocity":110,"measure":25,"beat":2.0,"subject_pos":-1,"motif":"","motif_pos":-1,"best_pos":4,"similarity":0.389},{"voice":8,"pitch":74,"start":48.5,"duration":0.25,"velocity":95,"measure":25,"beat":2.0,"subject_pos":-1,"motif":"","motif_pos":-1,"best_pos":4,"similarity":0.389},{"voice":9,"pitch":63,"start":48.5,"duration":0.25,"velocity":48,"measure":25,"beat":2.0,"subject_pos":-1,"motif":"","motif_pos":-1,"best_pos":5,"similarity":0.579},{"voice":10,"pitch":53,"start":48.5,"duration":0.25,"velocity":90,"measure":25,"beat":2.0,"subject_pos":2,"motif":"subject","motif_pos":2,"best_pos":2,"similarity":1.0},{"voice":11,"pitch":81,"start":48.5,"duration":0.5,"velocity":100,"measure":25,"beat":2.0,"subject_pos":1,"motif":"subject","motif_pos":1,"best_pos":1,"similarity":1.0},{"voice":2,"pitch":50,"start":48.5625,"duration":0.0625,"velocity":65,"measure":25,"beat":2.125,"subject_pos":-1,"motif":"","motif_pos":-1,"best_pos":5,"similarity":0.157},{"voice":2,"pitch":53,"start":48.625,"duration":0.0625,"velocity":65,"measure":25,"beat":2.25,"subject_pos":-1,"motif":"","motif_pos":-1,"best_pos":6,"similarity":0.171},{"voice":4,"pitch":74,"start":48.625,"duration":0.125,"velocity":70,"measure":25,"beat":2.25,"subject_pos":5,"motif":"subject","motif_pos":5,"best_pos":5,"similarity":1.0},{"voice":6,"pitch":80,"start":48.625,"duration":0.125,"velocity":80,"measure":25,"beat":2.25,"subject_pos":-1,"motif":"","motif_pos":-1,"best_pos":5,"similarity":0.55},{"voice":2,"pitch":57,"start":48.6875,"duration":0.0625,"velocity":65,"measure":25,"beat":2.375,"subject_pos":-1,"motif":"","motif_pos":-1,"best_pos":0,"similarity":0.286},{"voice":2,"pitch":62,"start":48.75,"duration":0.0625,"velocity":65,"measure":25,"beat":2.5,"subject_pos":-1,"motif":"","motif_pos":-1,"best_pos":1,"similarity":0.286},{"voice":4,"pitch":76,"start":48.75,"duration":0.125,"velocity":70,"measure":25,"beat":2.5,"subject_pos":6,"motif":"subject","motif_pos":6,"best_pos":6,"similarity":1.0},{"voice":5,"pitch":62,"start":48.75,"duration":0.25,"velocity":80,"measure":25,"beat":2.5,"subject_pos":-1,"motif":"","motif_pos":-1,"best_pos":5,"similarity":0.157},{"voice":5,"pitch":65,"start":48.75,"duration":0.25,"velocity":80,"measure":25,"beat":2.5,"subject_pos":-1,"motif":"","motif_pos":-1,"best_pos":6,"similarity":0.171},{"voice":5,"pitch":69,"start":48.75,"duration":0.25,"velocity":80,"measure":25,"beat":2.5,"subject_pos":-1,"motif":"","motif_pos":-1,"best_pos":1,"similarity":0.171},{"voice":6,"pitch":82,"start":48.75,"duration":0.125,"velocity":100,"measure":25,"beat":2.5,"subject_pos":-1,"motif":"","motif_pos":-1,"best_pos":6,"similarity":0.421},{"voice":9,"pitch":63,"start":48.75,"duration":0.25,"velocity":49,"measure":25,"beat":2.5,"subject_pos":-1,"motif":"","motif_pos":-1,"best_pos":4,"similarity":0.568},{"voice":10,"pitch":50,"start":48.75,"duration":0.25,"velocity":90,"measure":25,"beat":2.5,"subject_pos":3,"motif":"subject","motif_pos":3,"best_pos":3,"similarity":1.0},{"voice":2,"pitch":65,"start":48.8125,"duration":0.0625,"velocity":65,"measure":25,"beat":2.625,"subject_pos":-1,"motif":"","motif_pos":-1,"best_pos":6,"similarity":0.186},{"voice":2,"pitch":69,"start":48.875,"duration":0.0625,"velocity":65,"measure":25,"beat":2.75,"subject_pos":-1,"motif":"","motif_pos":-1,"best_pos":0,"similarity":0.286},{"voice":4,"pitch":77,"start":48.875,"duration":0.125,"velocity":70,"measure":25,"beat":2.75,"subject_pos":7,"motif":"subject","motif_pos":7,"best_pos":7,"similarity":1.0},{"voice":6,"pitch":80,"start":48.875,"duration":0.125,"velocity":80,"measure":25,"beat":2.75,"subject_pos":-1,"motif":"","motif_pos":-1,"best_pos":3,"similarity":0.443},{"voice":2,"pitch":74,"start":48.9375,"duration":0.0625,"velocity":65,"measure":25,"beat":2.875,"subject_pos":-1,"motif":"","motif_pos":-1,"best_pos":1,"similarity":0.286},{"voice":0,"pitch":78,"start":49.0,"duration":0.5,"velocity":90,"measure":25,"beat":3.0,"subject_pos":2,"motif":"subject_inv","motif_pos":2,"best_pos":2,"similarity":1.0},{"voice":2,"pitch":77,"start":49.0,"duration":0.0625,"velocity":65,"measure":25,"beat":3.0,"subject_pos":-1,"motif":"","motif_pos":-1,"best_pos":6,"similarity":0.186},{"voice":3,"pitch":28,"start":49.0,"duration":0.25,"velocity":100,"measure":25,"beat":3.0,"subject_pos":-1,"motif":"","motif_pos":-1,"best_pos":4,"similarity":0.354},{"voice":4,"pitch":69,"start":49.0,"duration":0.125,"velocity":70,"measure":25,"beat":3.0,"subject_pos":0,"motif":"subject","motif_pos":0,"best_pos":0,"similarity":1.0},{"voice":6,"pitch":80,"start":49.0,"duration":0.125,"velocity":55,"measure":25,"beat":3.0,"subject_pos":-1,"motif":"","motif_pos":-1,"best_pos":4,"similarity":0.514},{"voice":7,"pitch":36,"start":49.0,"duration":0.25,"velocity":110,"measure":25,"beat":3.0,"subject_pos":-1,"motif":"","motif_pos":-1,"best_pos":4,"similarity":0.389},{"voice":9,"pitch":64,"start":49.0,"duration":0.25,"velocity":50,"measure":25,"beat":3.0,"subject_pos":-1,"motif":"","motif_pos":-1,"best_pos":5,"similarity":0.579},{"voice":10,"pitch":49,"start":49.0,"duration":0.25,"velocity":90,"measure":25,"beat":3.0,"subject_pos":4,"motif":"subject","motif_pos":4,"best_pos":4,"similarity":1.0},{"voice":11,"pitch":77,"start":49.0,"duration":0.5,"velocity":100,"measure":25,"beat":3.0,"subject_pos":2,"motif":"subject","motif_pos":2,"best_pos":2,"similarity":1.0},{"voice":2,"pitch":81,"start":49.0625,"duration":0.0625,"velocity":65,"measure":25,"beat":3.125,"subject_pos":-1,"motif":"","motif_pos":-1,"best_pos":1,"similarity":0.143},{"voice":2,"pitch":50,"start":49.125,"duration":0.0625,"velocity":65,"measure":25,"beat":3.25,"subject_pos":-1,"motif":"","motif_pos":-1,"best_pos":5,"similarity":0.157},{"voice":4,"pitch":76,"start":49.125,"duration":0.125,"velocity":70,"measure":25,"beat":3.25,"subject_pos":1,"motif":"subject","motif_pos":1,"best_pos":1,"similarity":1.0},{"voice":6,"pitch":80,"start":49.125,"duration":0.125,"velocity":80,"measure":25,"beat":3.25,"subject_pos":-1,"motif":"","motif_pos":-1,"best_pos":5,"similarity":0.55},{"voice":2,"pitch":53,"start":49.1875,"duration":0.0625,"velocity":65,"measure":25,"beat":3.375,"subject_pos":-1,"motif":"","motif_pos":-1,"best_pos":6,"similarity":0.171},{"voice":2,"pitch":57,"start":49.25,"duration":0.0625,"velocity":65,"measure":25,"beat":3.5,"subject_pos":-1,"motif":"","motif_pos":-1,"best_pos":0,"similarity":0.286},{"voice":4,"pitch":72,"start":49.25,"duration":0.125,"velocity":70,"measure":25,"beat":3.5,"subject_pos":2,"motif":"subject","motif_pos":2,"best_pos":2,"similarity":1.0},{"voice":5,"pitch":62,"start":49.25,"duration":0.25,"velocity":80,"measure":25,"beat":3.5,"subject_pos":-1,"motif":"","motif_pos":-1,"best_pos":5,"similarity":0.157},{"voice":5,"pitch":65,"start":49.25,"duration":0.25,"velocity":80,"measure":25,"beat":3.5,"subject_pos":-1,"motif":"","motif_pos":-1,"best_pos":6,"similarity":0.171},{"voice":5,"pitch":69,"start":49.25,"duration":0.25,"velocity":80,"measure":25,"beat":3.5,"subject_pos":-1,"motif":"head_inv","motif_pos":0,"best_pos":0,"similarity":1.0},{"voice":6,"pitch":82,"start":49.25,"duration":0.125,"velocity":100,"measure":25,"beat":3.5,"subject_pos":-1,"motif":"","motif_pos":-1,"best_pos":6,"similarity":0.421},{"voice":9,"pitch":64,"start":49.25,"duration":0.25,"velocity":51,"measure":25,"beat":3.5,"subject_pos":-1,"motif":"","motif_pos":-1,"best_pos":4,"similarity":0.568},{"voice":10,"pitch":50,"start":49.25,"duration":0.125,"velocity":90,"measure":25,"beat":3.5,"subject_pos":5,"motif":"subject","motif_pos":5,"best_pos":5,"similarity":1.0},{"voice":2,"pitch":62,"start":49.3125,"duration":0.0625,"velocity":65,"measure":25,"beat":3.625,"subject_pos":-1,"motif":"","motif_pos":-1,"best_pos":1,"similarity":0.286},{"voice":2,"pitch":65,"start":49.375,"duration":0.0625,"velocity":65,"measure":25,"beat":3.75,"subject_pos":-1,"motif":"","motif_pos":-1,"best_pos":6,"similarity":0.186},{"voice":4,"pitch":69,"start":49.375,"duration":0.125,"velocity":70,"measure":25,"beat":3.75,"subject_pos":3,"motif":"subject","motif_pos":3,"best_pos":3,"similarity":1.0},{"voice":6,"pitch":80,"start":49.375,"duration":0.125,"velocity":80,"measure":25,"beat":3.75,"subject_pos":-1,"motif":"","motif_pos":-1,"best_pos":3,"similarity":0.443},{"voice":10,"pitch":52,"start":49.375,"duration":0.125,"velocity":90,"measure":25,"beat":3.75,"subject_pos":6,"motif":"subject","motif_pos":6,"best_pos":6,"similarity":1.0},{"voice":2,"pitch":69,"start":49.4375,"duration":0.0625,"velocity":65,"measure":25,"beat":3.875,"subject_pos":-1,"motif":"","motif_pos":-1,"best_pos":0,"similarity":0.286},{"voice":0,"pitch":81,"start":49.5,"duration":0.5,"velocity":90,"measure":25,"beat":4.0,"subject_pos":3,"motif":"subject_inv","motif_pos":3,"best_pos":3,"similarity":1.0},{"voice":2,"pitch":74,"start":49.5,"duration":0.0625,"velocity":65,"measure":25,"beat":4.0,"subject_pos":-1,"motif":"","motif_pos":-1,"best_pos":1,"similarity":0.286},{"voice":3,"pitch":28,"start":49.5,"duration":0.25,"velocity":100,"measure":25,"beat":4.0,"subject_pos":-1,"motif":"","motif_pos":-1,"best_pos":5,"similarity":0.293},{"voice":4,"pitch":68,"start":49.5,"duration":0.125,"velocity":70,"measure":25,"beat":4.0,"subject_pos":4,"motif":"subject","motif_pos":4,"best_pos":4,"similarity":1.0},{"voice":6,"pitch":80,"start":49.5,"duration":0.125,"velocity":55,"measure":25,"beat":4.0,"subject_pos":-1,"motif":"","motif_pos":-1,"best_pos":4,"similarity":0.514},{"voice":7,"pitch":36,"start":49.5,"duration":0.25,"velocity":110,"measure":25,"beat":4.0,"subject_pos":-1,"motif":"","motif_pos":-1,"best_pos":4,"similarity":0.389},{"voice":8,"pitch":74,"start":49.5,"duration":0.25,"velocity":95,"measure":25,"beat":4.0,"subject_pos":-1,"motif":"","motif_pos":-1,"best_pos":4,"similarity":0.389},{"voice":9,"pitch":65,"start":49.5,"duration":0.25,"velocity":52,"measure":25,"beat":4.0,"subject_pos":-1,"motif":"","motif_pos":-1,"best_pos":5,"similarity":0.579},{"voice":10,"pitch":53,"start":49.5,"duration":0.5,"velocity":90,"measure":25,"beat":4.0,"subject_pos":7,"motif":"subject","motif_pos":7,"best_pos":7,"similarity":1.0},{"voice":11,"pitch":74,"start":49.5,"duration":0.5,"velocity":100,"measure":25,"beat":4.0,"subject_pos":3,"motif":"subject","motif_pos":3,"best_pos":3,"similarity":1.0},{"voice":2,"pitch":77,"start":49.5625,"duration":0.0625,"velocity":65,"measure":25,"beat":4.125,"subject_pos":-1,"motif":"","motif_pos":-1,"best_pos":6,"similarity":0.186},{"voice":2,"pitch":81,"start":49.625,"duration":0.0625,"velocity":65,"measure":25,"beat":4.25,"subject_pos":-1,"motif":"","motif_pos":-1,"best_pos":1,"similarity":0.143},{"voice":4,"pitch":69,"start":49.625,"duration":0.125,"velocity":70,"measure":25,"beat":4.25,"subject_pos":5,"motif":"subject","motif_pos":5,"best_pos":5,"similarity":1.0},{"voice":6,"pitch":80,"start":49.625,"duration":0.125,"velocity":80,"measure":25,"beat":4.25,"subject_pos":-1,"motif":"","motif_pos":-1,"best_pos":5,"similarity":0.55},{"voice":2,"pitch":50,"start":49.6875,"duration":0.0625,"velocity":65,"measure":25,"beat":4.375,"subject_pos":-1,"motif":"","motif_pos":-1,"best_pos":5,"similarity":0.157},{"voice":2,"pitch":53,"start":49.75,"duration":0.0625,"velocity":65,"measure":25,"beat":4.5,"subject_pos":-1,"motif":"","motif_pos":-1,"best_pos":6,"similarity":0.171},{"voice":4,"pitch":71,"start":49.75,"duration":0.125,"velocity":70,"measure":25,"beat":4.5,"subject_pos":6,"motif":"subject","motif_pos":6,"best_pos":6,"similarity":1.0},{"voice":5,"pitch":62,"start":49.75,"duration":0.25,"velocity":80,"measure":25,"beat":4.5,"subject_pos":-1,"motif":"head_inv","motif_pos":1,"best_pos":1,"similarity":1.0},{"voice":5,"pitch":65,"start":49.75,"duration":0.25,"velocity":80,"measure":25,"beat":4.5,"subject_pos":-1,"motif":"head_inv","motif_pos":2,"best_pos":2,"similarity":1.0},{"voice":5,"pitch":69,"start":49.75,"duration":0.25,"velocity":80,"measure":25,"beat":4.5,"subject_pos":-1,"motif":"head_inv","motif_pos":3,"best_pos":3,"similarity":1.0},{"voice":6,"pitch":82,"start":49.75,"duration":0.125,"velocity":100,"measure":25,"beat":4.5,"subject_pos":-1,"motif":"","motif_pos":-1,"best_pos":6,"similarity":0.421},{"voice":9,"pitch":65,"start":49.75,"duration":0.25,"velocity":53,"measure":25,"beat":4.5,"subject_pos":-1,"motif":"","motif_pos":-1,"best_pos":4,"similarity":0.568},{"voice":2,"pitch":57,"start":49.8125,"duration":0.0625,"velocity":65,"measure":25,"beat":4.625,"subject_pos":-1,"motif":"","motif_pos":-1,"best_pos":0,"similarity":0.293},{"voice":2,"pitch":62,"start":49.875,"duration":0.0625,"velocity":65,"measure":25,"beat":4.75,"subject_pos":-1,"motif":"","motif_pos":-1,"best_pos":1,"similarity":0.3},{"voice":4,"pitch":72,"start":49.875,"duration":0.125,"velocity":70,"measure":25,"beat":4.75,"subject_pos":7,"motif":"subject","motif_pos":7,"best_pos":7,"similarity":1.0},{"voice":6,"pitch":80,"start":49.875,"duration":0.125,"velocity":80,"measure":25,"beat":4.75,"subject_pos":-1,"motif":"","motif_pos":-1,"best_pos":3,"similarity":0.443},{"voice":2,"pitch":65,"start":49.9375,"duration":0.0625,"velocity":65,"measure":25,"beat":4.875,"subject_pos":-1,"motif":"","motif_pos":-1,"best_pos":2,"similarity":0.189},{"voice":0,"pitch":82,"start":50.0,"duration":0.5,"velocity":90,"measure":26,"beat":1.0,"subject_pos":4,"motif":"subject_inv","motif_pos":4,"best_pos":4,"similarity":1.0},{"voice":2,"pitch":58,"start":50.0,"duration":0.0625,"velocity":65,"measure":26,"beat":1.0,"subject_pos":-1,"motif":"","motif_pos":-1,"best_pos":0,"similarity":0.143},{"voice":3,"pitch":36,"start":50.0,"duration":0.25,"velocity":100,"measure":26,"beat":1.0,"subject_pos":-1,"motif":"","motif_pos":-1,"best_pos":3,"similarity":0.268},{"voice":4,"pitch":64,"start":50.0,"duration":0.125,"velocity":70,"measure":26,"beat":1.0,"subject_pos":0,"motif":"subject","motif_pos":0,"best_pos":0,"similarity":1.0},{"voice":6,"pitch":80,"start":50.0,"duration":0.125,"velocity":55,"measure":26,"beat":1.0,"subject_pos":-1,"motif":"","motif_pos":-1,"best_pos":4,"similarity":0.514},{"voice":7,"pitch":36,"start":50.0,"duration":0.25,"velocity":110,"measure":26,"beat":1.0,"subject_pos":-1,"motif":"","motif_pos":-1,"best_pos":4,"similarity":0.389},{"voice":9,"pitch":66,"start":50.0,"duration":0.25,"velocity":54,"measure":26,"beat":1.0,"subject_pos":-1,"motif":"","motif_pos":-1,"best_pos":5,"similarity":0.579},{"voice":10,"pitch":45,"start":50.0,"duration":0.25,"velocity":85,"measure":26,"beat":1.0,"subject_pos":0,"motif":"subject","motif_pos":0,"best_pos":0,"similarity":1.0},{"voice":11,"pitch":73,"start":50.0,"duration":0.5,"velocity":100,"measure":26,"beat":1.0,"subject_pos":4,"motif":"subject","motif_pos":4,"best_pos":4,"similarity":1.0},{"voice":2,"pitch":62,"start":50.0625,"duration":0.0625,"velocity":65,"measure":26,"beat":1.125,"subject_pos":-1,"motif":"","motif_pos":-1,"best_pos":5,"similarity":0.186},{"voice":2,"pitch":65,"start":50.125,"duration":0.0625,"velocity":65,"measure":26,"beat":1.25,"subject_pos":-1,"motif":"","motif_pos":-1,"best_pos":0,"similarity":0.286},{"voice":4,"pitch":71,"start":50.125,"duration":0.125,"velocity":70,"measure":26,"beat":1.25,"subject_pos":1,"motif":"subject","motif_pos":1,"best_pos":1,"similarity":1.0},{"voice":6,"pitch":80,"start":50.125,"duration":0.125,"velocity":80,"measure":26,"beat":1.25,"subject_pos":-1,"motif":"","motif_pos":-1,"best_pos":5,"similarity":0.55},{"voice":2,"pitch":70,"start":50.1875,"duration":0.0625,"velocity":65,"measure":26,"beat":1.375,"subject_pos":-1,"motif":"","motif_pos":-1,"best_pos":1,"similarity":0.286},{"voice":2,"pitch":74,"start":50.25,"duration":0.0625,"velocity":65,"measure":26,"beat":1.5,"subject_pos":-1,"motif":"","motif_pos":-1,"best_pos":5,"similarity":0.186},{"voice":4,"pitch":67,"start":50.25,"duration":0.125,"velocity":70,"measure":26,"beat":1.5,"subject_pos":2,"motif":"subject","motif_pos":2,"best_pos":2,"similarity":1.0},{"voice":5,"pitch":70,"start":50.25,"duration":0.25,"velocity":80,"measure":26,"beat":1.5,"subject_pos":-1,"motif":"head_inv","motif_pos":4,"best_pos":4,"similarity":1.0},{"voice":5,"pitch":74,"start":50.25,"duration":0.25,"velocity":80,"measure":26,"beat":1.5,"subject_pos":-1,"motif":"","motif_pos":-1,"best_pos":6,"similarity":0.286},{"voice":5,"pitch":77,"start":50.25,"duration":0.25,"velocity":80,"measure":26,"beat":1.5,"subject_pos":-1,"motif":"","motif_pos":-1,"best_pos":7,"similarity":0.179},{"voice":6,"pitch":82,"start":50.25,"duration":0.125,"velocity":100,"measure":26,"beat":1.5,"subject_pos":-1,"motif":"","motif_pos":-1,"best_pos":6,"similarity":0.421},{"voice":9,"pitch":66,"start":50.25,"duration":0.25,"velocity":55,"measure":26,"beat":1.5,"subject_pos":-1,"motif":"","motif_pos":-1,"best_pos":4,"similarity":0.568},{"voice":10,"pitch":50,"start":50.25,"duration":0.25,"velocity":85,"measure":26,"beat":1.5,"subject_pos":1,"motif":"subject","motif_pos":1,"best_pos":1,"similarity":1.0},{"voice":2,"pitch":77,"start":50.3125,"duration":0.0625,"velocity":65,"measure":26,"beat":1.625,"subject_pos":-1,"motif":"","motif_pos":-1,"best_pos":0,"similarity":0.286},{"voice":2,"pitch":82,"start":50.375,"duration":0.0625,"velocity":65,"measure":26,"beat":1.75,"subject_pos":-1,"motif":"","motif_pos":-1,"best_pos":1,"similarity":0.286},{"voice":4,"pitch":64,"start":50.375,"duration":0.125,"velocity":70,"measure":26,"beat":1.75,"subject_pos":3,"motif":"subject","motif_pos":3,"best_pos":3,"similarity":1.0},{"voice":6,"pitch":80,"start":50.375,"duration":0.125,"velocity":80,"measure":26,"beat":1.75,"subject_pos":-1,"motif":"","motif_pos":-1,"best_pos":3,"similarity":0.443},{"voice":2,"pitch":86,"start":50.4375,"duration":0.0625,"velocity":65,"measure":26,"beat":1.875,"subject_pos":-1,"motif":"","motif_pos":-1,"best_pos":5,"similarity":0.171},{"voice":0,"pitch":81,"start":50.5,"duration":0.25,"velocity":90,"measure":26,"beat":2.0,"subject_pos":5,"motif":"subject_inv","motif_pos":5,"best_pos":5,"similarity":1.0},{"voice":2,"pitch":89,"start":50.5,"duration":0.0625,"velocity":65,"measure":26,"beat":2.0,"subject_pos":-1,"motif":"","motif_pos":-1,"best_pos":6,"similarity":0.157},{"voice":3,"pitch":36,"start":50.5,"duration":0.25,"velocity":100,"measure":26,"beat":2.0,"subject_pos":-1,"motif":"","motif_pos":-1,"best_pos":4,"similarity":0.375},{"voice":4,"pitch":63,"start":50.5,"duration":0.125,"velocity":70,"measure":26,"beat":2.0,"subject_pos":4,"motif":"subject","motif_pos":4,"best_pos":4,"similarity":1.0},{"voice":6,"pitch":80,"start":50.5,"duration":0.125,"velocity":55,"measure":26,"beat":2.0,"subject_pos":-1,"motif":"","motif_pos":-1,"best_pos":4,"similarity":0.514},{"voice":7,"pitch":36,"start":50.5,"duration":0.25,"velocity":110,"measure":26,"beat":2.0,"subject_pos":-1,"motif":"","motif_pos":-1,"best_pos":4,"similarity":0.389},{"voice":8,"pitch":74,"start":50.5,"duration":0.25,"velocity":95,"measure":26,"beat":2.0,"subject_pos":-1,"motif":"","motif_pos":-1,"best_pos":4,"similarity":0.389},{"voice":9,"pitch":67,"start":50.5,"duration":0.25,"velocity":56,"measure":26,"beat":2.0,"subject_pos":-1,"motif":"","motif_pos":-1,"best_pos":5,"similarity":0.579},{"voice":10,"pitch":48,"start":50.5,"duration":0.25,"velocity":85,"measure":26,"beat":2.0,"subject_pos":2,"motif":"subject","motif_pos":2,"best_pos":2,"similarity":1.0},{"voice":11,"pitch":74,"start":50.5,"duration":0.25,"velocity":100,"measure":26,"beat":2.0,"subject_pos":5,"motif":"subject","motif_pos":5,"best_pos":5,"similarity":1.0},{"voice":2,"pitch":58,"start":50.5625,"duration":0.0625,"velocity":65,"measure":26,"beat":2.125,"subject_pos":-1,"motif":"","motif_pos":-1,"best_pos":0,"similarity":0.143},{"voice":2,"pitch":62,"start":50.625,"duration":0.0625,"velocity":65,"measure":26,"beat":2.25,"subject_pos":-1,"motif":"","motif_pos":-1,"best_pos":5,"similarity":0.186},{"voice":4,"pitch":64,"start":50.625,"duration":0.125,"velocity":70,"measure":26,"beat":2.25,"subject_pos":5,"motif":"subject","motif_pos":5,"best_pos":5,"similarity":1.0},{"voice":6,"pitch":80,"start":50.625,"duration":0.125,"velocity":80,"measure":26,"beat":2.25,"subject_pos":-1,"motif":"","motif_pos":-1,"best_pos":5,"similarity":0.55},{"voice":2,"pitch":65,"start":50.6875,"duration":0.0625,"velocity":65,"measure":26,"beat":2.375,"subject_pos":-1,"motif":"","motif_pos":-1,"best_pos":0,"similarity":0.286},{"voice":0,"pitch":79,"start":50.75,"duration":0.25,"velocity":90,"measure":26,"beat":2.5,"subject_pos":6,"motif":"subject_inv","motif_pos":6,"best_pos":6,"similarity":1.0},{"voice":2,"pitch":70,"start":50.75,"duration":0.0625,"velocity":65,"measure":26,"beat":2.5,"subject_pos":-1,"motif":"","motif_pos":-1,"best_pos":1,"similarity":0.286},{"voice":4,"pitch":66,"start":50.75,"duration":0.125,"velocity":70,"measure":26,"beat":2.5,"subject_pos":6,"motif":"subject","motif_pos":6,"best_pos":6,"similarity":1.0},{"voice":5,"pitch":70,"start":50.75,"duration":0.25,"velocity":80,"measure":26,"beat":2.5,"subject_pos":-1,"motif":"","motif_pos":-1,"best_pos":0,"similarity":0.15},{"voice":5,"pitch":74,"start":50.75,"duration":0.25,"velocity":80,"measure":26,"beat":2.5,"subject_pos":-1,"motif":"","motif_pos":-1,"best_pos":5,"similarity":0.171},{"voice":5,"pitch":77,"start":50.75,"duration":0.25,"velocity":80,"measure":26,"beat":2.5,"subject_pos":-1,"motif":"","motif_pos":-1,"best_pos":6,"similarity":0.157},{"voice":6,"pitch":82,"start":50.75,"duration":0.125,"velocity":100,"measure":26,"beat":2.5,"subject_pos":-1,"motif":"","motif_pos":-1,"best_pos":6,"similarity":0.421},{"voice":9,"pitch":67,"start":50.75,"duration":0.25,"velocity":57,"measure":26,"beat":2.5,"subject_pos":-1,"motif":"","motif_pos":-1,"best_pos":4,"similarity":0.568},{"voice":10,"pitch":45,"start":50.75,"duration":0.25,"velocity":85,"measure":26,"beat":2.5,"subject_pos":3,"motif":"subject","motif_pos":3,"best_pos":3,"similarity":1.0},{"voice":11,"pitch":76,"start":50.75,"duration":0.25,"velocity":100,"measure":26,"beat":2.5,"subject_pos":6,"motif":"subject","motif_pos":6,"best_pos":6,"similarity":1.0},{"voice":2,"pitch":74,"start":50.8125,"duration":0.0625,"velocity":65,"measure":26,"beat":2.625,"subject_pos":-1,"motif":"","motif_pos":-1,"best_pos":5,"similarity":0.186},{"voice":2,"pitch":77,"start":50.875,"duration":0.0625,"velocity":65,"measure":26,"beat":2.75,"subject_pos":-1,"motif":"","motif_pos":-1,"best_pos":0,"similarity":0.286},{"voice":4,"pitch":67,"start":50.875,"duration":0.125,"velocity":70,"measure":26,"beat":2.75,"subject_pos":7,"motif":"subject","motif_pos":7,"best_pos":7,"similarity":1.0},{"voice":6,"pitch":80,"start":50.875,"duration":0.125,"velocity":80,"measure":26,"beat":2.75,"subject_pos":-1,"motif":"","motif_pos":-1,"best_pos":3,"similarity":0.443},{"voice":2,"pitch":82,"start":50.9375,"duration":0.0625,"velocity":65,"measure":26,"beat":2.875,"subject_pos":-1,"motif":"","motif_pos":-1,"best_pos":1,"similarity":0.286},{"voice":0,"pitch":78,"start":51.0,"duration":1.0,"velocity":90,"measure":26,"beat":3.0,"subject_pos":7,"motif":"subject_inv","motif_pos":7,"best_pos":7,"similarity":1.0},{"voice":2,"pitch":86,"start":51.0,"duration":0.0625,"velocity":65,"measure":26,"beat":3.0,"subject_pos":-1,"motif":"","motif_pos":-1,"best_pos":5,"similarity":0.171},{"voice":3,"pitch":36,"start":51.0,"duration":0.25,"velocity":100,"measure":26,"beat":3.0,"subject_pos":-1,"motif":"","motif_pos":-1,"best_pos":4,"similarity":0.479},{"voice":4,"pitch":59,"start":51.0,"duration":0.125,"velocity":70,"measure":26,"beat":3.0,"subject_pos":0,"motif":"subject","motif_pos":0,"best_pos":0,"similarity":1.0},{"voice":6,"pitch":80,"start":51.0,"duration":0.125,"velocity":55,"measure":26,"beat":3.0,"subject_pos":-1,"motif":"","motif_pos":-1,"best_pos":4,"similarity":0.514},{"voice":7,"pitch":36,"start":51.0,"duration":0.25,"velocity":110,"measure":26,"beat":3.0,"subject_pos":-1,"motif":"","motif_pos":-1,"best_pos":4,"similarity":0.389},{"voice":9,"pitch":68,"start":51.0,"duration":0.25,"velocity":58,"measure":26,"beat":3.0,"subject_pos":-1,"motif":"","motif_pos":-1,"best_pos":5,"similarity":0.579},{"voice":10,"pitch":44,"start":51.0,"duration":0.25,"velocity":85,"measure":26,"beat":3.0,"subject_pos":4,"motif":"subject","motif_pos":4,"best_pos":4,"similarity":1.0},{"voice":11,"pitch":77,"start":51.0,"duration":1.0,"velocity":100,"measure":26,"beat":3.0,"subject_pos":7,"motif":"subject","motif_pos":7,"best_pos":7,"similarity":1.0},{"voice":2,"pitch":89,"start":51.0625,"duration":0.0625,"velocity":65,"measure":26,"beat":3.125,"subject_pos":-1,"motif":"","motif_pos":-1,"best_pos":6,"similarity":0.157},{"voice":2,"pitch":58,"start":51.125,"duration":0.0625,"velocity":65,"measure":26,"beat":3.25,"subject_pos":-1,"motif":"","motif_pos":-1,"best_pos":0,"similarity":0.143},{"voice":4,"pitch":66,"start":51.125,"duration":0.125,"velocity":70,"measure":26,"beat":3.25,"subject_pos":1,"motif":"subject","motif_pos":1,"best_pos":1,"similarity":1.0},{"voice":6,"pitch":80,"start":51.125,"duration":0.125,"velocity":80,"measure":26,"beat":3.25,"subject_pos":-1,"motif":"","motif_pos":-1,"best_pos":5,"similarity":0.55},{"voice":2,"pitch":62,"start":51.1875,"duration":0.0625,"velocity":65,"measure":26,"beat":3.375,"subject_pos":-1,"motif":"","motif_pos":-1,"best_pos":5,"similarity":0.186},{"voice":2,"pitch":65,"start":51.25,"duration":0.0625,"velocity":65,"measure":26,"beat":3.5,"subject_pos":-1,"motif":"","motif_pos":-1,"best_pos":0,"similarity":0.286},{"voice":4,"pitch":62,"start":51.25,"duration":0.125,"velocity":70,"measure":26,"beat":3.5,"subject_pos":2,"motif":"subject","motif_pos":2,"best_pos":2,"similarity":1.0},{"voice":5,"pitch":70,"start":51.25,"duration":0.25,"velocity":80,"measure":26,"beat":3.5,"subject_pos":-1,"motif":"","motif_pos":-1,"best_pos":0,"similarity":0.15},{"voice":5,"pitch":74,"start":51.25,"duration":0.25,"velocity":80,"measure":26,"beat":3.5,"subject_pos":-1,"motif":"","motif_pos":-1,"best_pos":5,"similarity":0.171},{"voice":5,"pitch":77,"start":51.25,"duration":0.25,"velocity":80,"measure":26,"beat":3.5,"subject_pos":-1,"motif":"","motif_pos":-1,"best_pos":6,"similarity":0.157},{"voice":6,"pitch":82,"start":51.25,"duration":0.125,"velocity":100,"measure":26,"beat":3.5,"subject_pos":-1,"motif":"","motif_pos":-1,"best_pos":6,"similarity":0.421},{"voice":9,"pitch":68,"start":51.25,"duration":0.25,"velocity":59,"measure":26,"beat":3.5,"subject_pos":-1,"motif":"","motif_pos":-1,"best_pos":4,"similarity":0.568},{"voice":10,"pitch":45,"start":51.25,"duration":0.125,"velocity":85,"measure":26,"beat":3.5,"subject_pos":5,"motif":"subject","motif_pos":5,"best_pos":5,"similarity":1.0},{"voice":2,"pitch":70,"start":51.3125,"duration":0.0625,"velocity":65,"measure":26,"beat":3.625,"subject_pos":-1,"motif":"","motif_pos":-1,"best_pos":1,"similarity":0.286},{"voice":2,"pitch":74,"start":51.375,"duration":0.0625,"velocity":65,"measure":26,"beat":3.75,"subject_pos":-1,"motif":"","motif_pos":-1,"best_pos":5,"similarity":0.186},{"voice":4,"pitch":59,"start":51.375,"duration":0.125,"velocity":70,"measure":26,"beat":3.75,"subject_pos":3,"motif":"subject","motif_pos":3,"best_pos":3,"similarity":1.0},{"voice":6,"pitch":80,"start":51.375,"duration":0.125,"velocity":80,"measure":26,"beat":3.75,"subject_pos":-1,"motif":"","motif_pos":-1,"best_pos":3,"similarity":0.443},{"voice":10,"pitch":47,"start":51.375,"duration":0.125,"velocity":85,"measure":26,"beat":3.75,"subject_pos":6,"motif":"subject","motif_pos":6,"best_pos":6,"similarity":1.0},{"voice":2,"pitch":77,"start":51.4375,"duration":0.0625,"velocity":65,"measure":26,"beat":3.875,"subject_pos":-1,"motif":"","motif_pos":-1,"best_pos":0,"similarity":0.286},{"voice":2,"pitch":82,"start":51.5,"duration":0.0625,"velocity":65,"measure":26,"beat":4.0,"subject_pos":-1,"motif":"","motif_pos":-1,"best_pos":1,"similarity":0.286},{"voice":3,"pitch":36,"start":51.5,"duration":0.25,"velocity":100,"measure":26,"beat":4.0,"subject_pos":-1,"motif":"","motif_pos":-1,"best_pos":5,"similarity":0.579},{"voice":4,"pitch":58,"start":51.5,"duration":0.125,"velocity":70,"measure":26,"beat":4.0,"subject_pos":4,"motif":"subject","motif_pos":4,"best_pos":4,"similarity":1.0},{"voice":6,"pitch":80,"start":51.5,"duration":0.125,"velocity":55,"measure":26,"beat":4.0,"subject_pos":-1,"motif":"","motif_pos":-1,"best_pos":4,"similarity":0.514},{"voice":7,"pitch":36,"start":51.5,"duration":0.25,"velocity":110,"measure":26,"beat":4.0,"subject_pos":-1,"motif":"","motif_pos":-1,"best_pos":4,"similarity":0.389},{"voice":8,"pitch":74,"start":51.5,"duration":0.25,"velocity":95,"measure":26,"beat":4.0,"subject_pos":-1,"motif":"","motif_pos":-1,"best_pos":4,"similarity":0.389},{"voice":9,"pitch":69,"start":51.5,"duration":0.25,"velocity":60,"measure":26,"beat":4.0,"subject_pos":-1,"motif":"","motif_pos":-1,"best_pos":5,"similarity":0.579},{"voice":10,"pitch":48,"start":51.5,"duration":0.5,"velocity":85,"measure":26,"beat":4.0,"subject_pos":7,"motif":"subject","motif_pos":7,"best_pos":7,"similarity":1.0},{"voice":2,"pitch":86,"start":51.5625,"duration":0.0625,"velocity":65,"measure":26,"beat":4.125,"subject_pos":-1,"motif":"","motif_pos":-1,"best_pos":5,"similarity":0.171},{"voice":2,"pitch":89,"start":51.625,"duration":0.0625,"velocity":65,"measure":26,"beat":4.25,"subject_pos":-1,"motif":"","motif_pos":-1,"best_pos":6,"similarity":0.157},{"voice":4,"pitch":59,"start":51.625,"duration":0.125,"velocity":70,"measure":26,"beat":4.25,"subject_pos":5,"motif":"subject","motif_pos":5,"best_pos":5,"similarity":1.0},{"voice":6,"pitch":80,"start":51.625,"duration":0.125,"velocity":80,"measure":26,"beat":4.25,"subject_pos":-1,"motif":"","motif_pos":-1,"best_pos":5,"similarity":0.55},{"voice":2,"pitch":58,"start":51.6875,"duration":0.0625,"velocity":65,"measure":26,"beat":4.375,"subject_pos":-1,"motif":"","motif_pos":-1,"best_pos":0,"similarity":0.143},{"voice":2,"pitch":62,"start":51.75,"duration":0.0625,"velocity":65,"measure":26,"beat":4.5,"subject_pos":-1,"motif":"","motif_pos":-1,"best_pos":5,"similarity":0.186},{"voice":4,"pitch":61,"start":51.75,"duration":0.125,"velocity":70,"measure":26,"beat":4.5,"subject_pos":6,"motif":"subject","motif_pos":6,"best_pos":6,"similarity":1.0},{"voice":5,"pitch":70,"start":51.75,"duration":0.25,"velocity":80,"measure":26,"beat":4.5,"subject_pos":-1,"motif":"","motif_pos":-1,"best_pos":0,"similarity":0.161},{"voice":5,"pitch":74,"start":51.75,"duration":0.25,"velocity":80,"measure":26,"beat":4.5,"subject_pos":-1,"motif":"","motif_pos":-1,"best_pos":1,"similarity":0.179},{"voice":5,"pitch":77,"start":51.75,"duration":0.25,"velocity":80,"measure":26,"beat":4.5,"subject_pos":-1,"motif":"","motif_pos":-1,"best_pos":1,"similarity":0.221},{"voice":6,"pitch":82,"start":51.75,"duration":0.125,"velocity":100,"measure":26,"beat":4.5,"subject_pos":-1,"motif":"","motif_pos":-1,"best_pos":6,"similarity":0.421},{"voice":9,"pitch":69,"start":51.75,"duration":0.25,"velocity":61,"measure":26,"beat":4.5,"subject_pos":-1,"motif":"","motif_pos":-1,"best_pos":6,"similarity":0.536},{"voice":2,"pitch":65,"start":51.8125,"duration":0.0625,"velocity":65,"measure":26,"beat":4.625,"subject_pos":-1,"motif":"","motif_pos":-1,"best_pos":0,"similarity":0.286},{"voice":2,"pitch":70,"start":51.875,"duration":0.0625,"velocity":65,"measure":26,"beat":4.75,"subject_pos":-1,"motif":"","motif_pos":-1,"best_pos":1,"similarity":0.286},{"voice":4,"pitch":62,"start":51.875,"duration":0.125,"velocity":70,"measure":26,"beat":4.75,"subject_pos":7,"motif":"subject","motif_pos":7,"best_pos":7,"similarity":1.0},{"voice":6,"pitch":80,"start":51.875,"duration":0.125,"velocity":80,"measure":26,"beat":4.75,"subject_pos":-1,"motif":"","motif_pos":-1,"best_pos":3,"similarity":0.443},{"voice":2,"pitch":74,"start":51.9375,"duration":0.0625,"velocity":65,"measure":26,"beat":4.875,"subject_pos":-1,"motif":"","motif_pos":-1,"best_pos":2,"similarity":0.161},{"voice":0,"pitch":74,"start":52.0,"duration":0.25,"velocity":85,"measure":27,"beat":1.0,"subject_pos":0,"motif":"subject","motif_pos":0,"best_pos":0,"similarity":1.0},{"voice":2,"pitch":60,"start":52.0,"duration":0.0625,"velocity":65,"measure":27,"beat":1.0,"subject_pos":-1,"motif":"","motif_pos":-1,"best_pos":0,"similarity":0.143},{"voice":3,"pitch":38,"start":52.0,"duration":0.25,"velocity":100,"measure":27,"beat":1.0,"subject_pos":-1,"motif":"","motif_pos":-1,"best_pos":6,"similarity":0.536},{"voice":6,"pitch":80,"start":52.0,"duration":0.125,"velocity":55,"measure":27,"beat":1.0,"subject_pos":-1,"motif":"","motif_pos":-1,"best_pos":4,"similarity":0.514},{"voice":7,"pitch":36,"start":52.0,"duration":0.25,"velocity":110,"measure":27,"beat":1.0,"subject_pos":-1,"motif":"","motif_pos":-1,"best_pos":4,"similarity":0.389},{"voice":9,"pitch":70,"start":52.0,"duration":0.25,"velocity":62,"measure":27,"beat":1.0,"subject_pos":-1,"motif":"","motif_pos":-1,"best_pos":5,"similarity":0.507},{"voice":10,"pitch":50,"start":52.0,"duration":0.25,"velocity":88,"measure":27,"beat":1.0,"subject_pos":0,"motif":"subject_inv","motif_pos":0,"best_pos":0,"similarity":1.0},{"voice":11,"pitch":69,"start":52.0,"duration":0.5,"velocity":95,"measure":27,"beat":1.0,"subject_pos":0,"motif":"subject_inv","motif_pos":0,"best_pos":0,"similarity":1.0},{"voice":2,"pitch":64,"start":52.0625,"duration":0.0625,"velocity":65,"measure":27,"beat":1.125,"subject_pos":-1,"motif":"","motif_pos":-1,"best_pos":5,"similarity":0.207},{"voice":2,"pitch":67,"start":52.125,"duration":0.0625,"velocity":65,"measure":27,"beat":1.25,"subject_pos":-1,"motif":"","motif_pos":-1,"best_pos":5,"similarity":0.286},{"voice":6,"pitch":80,"start":52.125,"duration":0.125,"velocity":80,"measure":27,"beat":1.25,"subject_pos":-1,"motif":"","motif_pos":-1,"best_pos":5,"similarity":0.55},{"voice":2,"pitch":70,"start":52.1875,"duration":0.0625,"velocity":65,"measure":27,"beat":1.375,"subject_pos":-1,"motif":"","motif_pos":-1,"best_pos":5,"similarity":0.386},{"voice":0,"pitch":81,"start":52.25,"duration":0.25,"velocity":85,"measure":27,"beat":1.5,"subject_pos":1,"motif":"subject","motif_pos":1,"best_pos":1,"similarity":1.0},{"voice":2,"pitch":72,"start":52.25,"duration":0.0625,"velocity":65,"measure":27,"beat":1.5,"subject_pos":-1,"motif":"","motif_pos":-1,"best_pos":6,"similarity":0.357},{"voice":5,"pitch":72,"start":52.25,"duration":0.25,"velocity":80,"measure":27,"beat":1.5,"subject_pos":-1,"motif":"","motif_pos":-1,"best_pos":2,"similarity":0.211},{"voice":5,"pitch":76,"start":52.25,"duration":0.25,"velocity":80,"measure":27,"beat":1.5,"subject_pos":-1,"motif":"","motif_pos":-1,"best_pos":5,"similarity":0.221},{"voice":5,"pitch":79,"start":52.25,"duration":0.25,"velocity":80,"measure":27,"beat":1.5,"subject_pos":-1,"motif":"","motif_pos":-1,"best_pos":6,"similarity":0.236},{"voice":5,"pitch":82,"start":52.25,"duration":0.25,"velocity":80,"measure":27,"beat":1.5,"subject_pos":-1,"motif":"","motif_pos":-1,"best_pos":6,"similarity":0.179},{"voice":6,"pitch":82,"start":52.25,"duration":0.125,"velocity":100,"measure":27,"beat":1.5,"subject_pos":-1,"motif":"","motif_pos":-1,"best_pos":6,"similarity":0.421},{"voice":9,"pitch":70,"start":52.25,"duration":0.25,"velocity":63,"measure":27,"beat":1.5,"subject_pos":-1,"motif":"","motif_pos":-1,"best_pos":4,"similarity":0.425},{"voice":10,"pitch":43,"start":52.25,"duration":0.25,"velocity":88,"measure":27,"beat":1.5,"subject_pos":1,"motif":"subject_inv","motif_pos":1,"best_pos":1,"similarity":1.0},{"voice":2,"pitch":76,"start":52.3125,"duration":0.0625,"velocity":65,"measure":27,"beat":1.625,"subject_pos":-1,"motif":"","motif_pos":-1,"best_pos":5,"similarity":0.221},{"voice":2,"pitch":79,"start":52.375,"duration":0.0625,"velocity":65,"measure":27,"beat":1.75,"subject_pos":-1,"motif":"","motif_pos":-1,"best_pos":5,"similarity":0.286},{"voice":6,"pitch":80,"start":52.375,"duration":0.125,"velocity":80,"measure":27,"beat":1.75,"subject_pos":-1,"motif":"","motif_pos":-1,"best_pos":3,"similarity":0.443},{"voice":2,"pitch":82,"start":52.4375,"duration":0.0625,"velocity":65,"measure":27,"beat":1.875,"subject_pos":-1,"motif":"","motif_pos":-1,"best_pos":5,"similarity":0.386},{"voice":0,"pitch":77,"start":52.5,"duration":0.25,"velocity":85,"measure":27,"beat":2.0,"subject_pos":2,"motif":"subject","motif_pos":2,"best_pos":2,"similarity":1.0},{"voice":2,"pitch":84,"start":52.5,"duration":0.0625,"velocity":65,"measure":27,"beat":2.0,"subject_pos":-1,"motif":"","motif_pos":-1,"best_pos":6,"similarity":0.357},{"voice":3,"pitch":38,"start":52.5,"duration":0.25,"velocity":100,"measure":27,"beat":2.0,"subject_pos":-1,"motif":"","motif_pos":-1,"best_pos":4,"similarity":0.346},{"voice":6,"pitch":80,"start":52.5,"duration":0.125,"velocity":55,"measure":27,"beat":2.0,"subject_pos":-1,"motif":"","motif_pos":-1,"best_pos":4,"similarity":0.514},{"voice":7,"pitch":36,"start":52.5,"duration":0.25,"velocity":110,"measure":27,"beat":2.0,"subject_pos":-1,"motif":"","motif_pos":-1,"best_pos":4,"similarity":0.389},{"voice":8,"pitch":74,"start":52.5,"duration":0.25,"velocity":95,"measure":27,"beat":2.0,"subject_pos":-1,"motif":"","motif_pos":-1,"best_pos":4,"similarity":0.389},{"voice":9,"pitch":70,"start":52.5,"duration":0.25,"velocity":64,"measure":27,"beat":2.0,"subject_pos":-1,"motif":"","motif_pos":-1,"best_pos":4,"similarity":0.557},{"voice":10,"pitch":47,"start":52.5,"duration":0.25,"velocity":88,"measure":27,"beat":2.0,"subject_pos":2,"motif":"subject_inv","motif_pos":2,"best_pos":2,"similarity":1.0},{"voice":11,"pitch":62,"start":52.5,"duration":0.5,"velocity":95,"measure":27,"beat":2.0,"subject_pos":1,"motif":"subject_inv","motif_pos":1,"best_pos":1,"similarity":1.0},{"voice":2,"pitch":88,"start":52.5625,"duration":0.0625,"velocity":65,"measure":27,"beat":2.125,"subject_pos":-1,"motif":"","motif_pos":-1,"best_pos":5,"similarity":0.221},{"voice":2,"pitch":91,"start":52.625,"duration":0.0625,"velocity":65,"measure":27,"beat":2.25,"subject_pos":-1,"motif":"","motif_pos":-1,"best_pos":6,"similarity":0.236},{"voice":6,"pitch":80,"start":52.625,"duration":0.125,"velocity":80,"measure":27,"beat":2.25,"subject_pos":-1,"motif":"","motif_pos":-1,"best_pos":5,"similarity":0.55},{"voice":2,"pitch":94,"start":52.6875,"duration":0.0625,"velocity":65,"measure":27,"beat":2.375,"subject_pos":-1,"motif":"","motif_pos":-1,"best_pos":6,"similarity":0.179},{"voice":0,"pitch":74,"start":52.75,"duration":0.25,"velocity":85,"measure":27,"beat":2.5,"subject_pos":3,"motif":"subject","motif_pos":3,"best_pos":3,"similarity":1.0},{"voice":2,"pitch":60,"start":52.75,"duration":0.0625,"velocity":65,"measure":27,"beat":2.5,"subject_pos":-1,"motif":"","motif_pos":-1,"best_pos":0,"similarity":0.143},{"voice":5,"pitch":72,"start":52.75,"duration":0.25,"velocity":80,"measure":27,"beat":2.5,"subject_pos":-1,"motif":"","motif_pos":-1,"best_pos":0,"similarity":0.143},{"voice":5,"pitch":76,"start":52.75,"duration":0.25,"velocity":80,"measure":27,"beat":2.5,"subject_pos":-1,"motif":"","motif_pos":-1,"best_pos":5,"similarity":0.207},{"voice":5,"pitch":79,"start":52.75,"duration":0.25,"velocity":80,"measure":27,"beat":2.5,"subject_pos":-1,"motif":"","motif_pos":-1,"best_pos":6,"similarity":0.229},{"voice":5,"pitch":82,"start":52.75,"duration":0.25,"velocity":80,"measure":27,"beat":2.5,"subject_pos":-1,"motif":"","motif_pos":-1,"best_pos":6,"similarity":0.179},{"voice":6,"pitch":82,"start":52.75,"duration":0.125,"velocity":100,"measure":27,"beat":2.5,"subject_pos":-1,"motif":"","motif_pos":-1,"best_pos":6,"similarity":0.421},{"voice":9,"pitch":71,"start":52.75,"duration":0.25,"velocity":65,"measure":27,"beat":2.5,"subject_pos":-1,"motif":"","motif_pos":-1,"best_pos":5,"similarity":0.579},{"voice":10,"pitch":50,"start":52.75,"duration":0.25,"velocity":88,"measure":27,"beat":2.5,"subject_pos":3,"motif":"subject_inv","motif_pos":3,"best_pos":3,"similarity":1.0},{"voice":2,"pitch":64,"start":52.8125,"duration":0.0625,"velocity":65,"measure":27,"beat":2.625,"subject_pos":-1,"motif":"","motif_pos":-1,"best_pos":5,"similarity":0.207},{"voice":2,"pitch":67,"start":52.875,"duration":0.0625,"velocity":65,"measure":27,"beat":2.75,"subject_pos":-1,"motif":"","motif_pos":-1,"best_pos":5,"similarity":0.286},{"voice":6,"pitch":80,"start":52.875,"duration":0.125,"velocity":80,"measure":27,"beat":2.75,"subject_pos":-1,"motif":"","motif_pos":-1,"best_pos":3,"similarity":0.443},{"voice":2,"pitch":70,"start":52.9375,"duration":0.0625,"velocity":65,"measure":27,"beat":2.875,"subject_pos":-1,"motif":"","motif_pos":-1,"best_pos":5,"similarity":0.386},{"voice":0,"pitch":73,"start":53.0,"duration":0.25,"velocity":85,"measure":27,"beat":3.0,"subject_pos":4,"motif":"subject","motif_pos":4,"best_pos":4,"similarity":1.0},{"voice":2,"pitch":72,"start":53.0,"duration":0.0625,"velocity":65,"measure":27,"beat":3.0,"subject_pos":-1,"motif":"","motif_pos":-1,"best_pos":6,"similarity":0.357},{"voice":3,"pitch":38,"start":53.0,"duration":0.25,"velocity":100,"measure":27,"beat":3.0,"subject_pos":-1,"motif":"","motif_pos":-1,"best_pos":4,"similarity":0.343},{"voice":6,"pitch":80,"start":53.0,"duration":0.125,"velocity":55,"measure":27,"beat":3.0,"subject_pos":-1,"motif":"","motif_pos":-1,"best_pos":4,"similarity":0.514},{"voice":7,"pitch":36,"start":53.0,"duration":0.25,"velocity":110,"measure":27,"beat":3.0,"subject_pos":-1,"motif":"","motif_pos":-1,"best_pos":4,"similarity":0.389},{"voice":9,"pitch":71,"start":53.0,"duration":0.25,"velocity":66,"measure":27,"beat":3.0,"subject_pos":-1,"motif":"","motif_pos":-1,"best_pos":4,"similarity":0.568},{"voice":10,"pitch":51,"start":53.0,"duration":0.25,"velocity":88,"measure":27,"beat":3.0,"subject_pos":4,"motif":"subject_inv","motif_pos":4,"best_pos":4,"similarity":1.0},{"voice":11,"pitch":66,"start":53.0,"duration":0.5,"velocity":95,"measure":27,"beat":3.0,"subject_pos":2,"motif":"subject_inv","motif_pos":2,"best_pos":2,"similarity":1.0},{"voice":2,"pitch":76,"start":53.0625,"duration":0.0625,"velocity":65,"measure":27,"beat":3.125,"subject_pos":-1,"motif":"","motif_pos":-1,"best_pos":5,"similarity":0.221},{"voice":2,"pitch":79,"start":53.125,"duration":0.0625,"velocity":65,"measure":27,"beat":3.25,"subject_pos":-1,"motif":"","motif_pos":-1,"best_pos":5,"similarity":0.286},{"voice":6,"pitch":80,"start":53.125,"duration":0.125,"velocity":80,"measure":27,"beat":3.25,"subject_pos":-1,"motif":"","motif_pos":-1,"best_pos":5,"similarity":0.55},{"voice":2,"pitch":82,"start":53.1875,"duration":0.0625,"velocity":65,"measure":27,"beat":3.375,"subject_pos":-1,"motif":"","motif_pos":-1,"best_pos":5,"similarity":0.386},{"voice":0,"pitch":74,"start":53.25,"duration":0.125,"velocity":85,"measure":27,"beat":3.5,"subject_pos":5,"motif":"subject","motif_pos":5,"best_pos":5,"similarity":1.0},{"voice":2,"pitch":84,"start":53.25,"duration":0.0625,"velocity":65,"measure":27,"beat":3.5,"subject_pos":-1,"motif":"","motif_pos":-1,"best_pos":6,"similarity":0.357},{"voice":5,"pitch":72,"start":53.25,"duration":0.25,"velocity":80,"measure":27,"beat":3.5,"subject_pos":-1,"motif":"","motif_pos":-1,"best_pos":0,"similarity":0.143},{"voice":5,"pitch":76,"start":53.25,"duration":0.25,"velocity":80,"measure":27,"beat":3.5,"subject_pos":-1,"motif":"","motif_pos":-1,"best_pos":5,"similarity":0.207},{"voice":5,"pitch":79,"start":53.25,"duration":0.25,"velocity":80,"measure":27,"beat":3.5,"subject_pos":-1,"motif":"","motif_pos":-1,"best_pos":6,"similarity":0.229},{"voice":5,"pitch":82,"start":53.25,"duration":0.25,"velocity":80,"measure":27,"beat":3.5,"subject_pos":-1,"motif":"","motif_pos":-1,"best_pos":6,"similarity":0.179},{"voice":6,"pitch":82,"start":53.25,"duration":0.125,"velocity":100,"measure":27,"beat":3.5,"subject_pos":-1,"motif":"","motif_pos":-1,"best_pos":6,"similarity":0.421},{"voice":9,"pitch":72,"start":53.25,"duration":0.25,"velocity":67,"measure":27,"beat":3.5,"subject_pos":-1,"motif":"","motif_pos":-1,"best_pos":5,"similarity":0.579},{"voice":10,"pitch":50,"start":53.25,"duration":0.125,"velocity":88,"measure":27,"beat":3.5,"subject_pos":5,"motif":"subject_inv","motif_pos":5,"best_pos":5,"similarity":1.0},{"voice":2,"pitch":88,"start":53.3125,"duration":0.0625,"velocity":65,"measure":27,"beat":3.625,"subject_pos":-1,"motif":"","motif_pos":-1,"best_pos":5,"similarity":0.221},{"voice":0,"pitch":76,"start":53.375,"duration":0.125,"velocity":85,"measure":27,"beat":3.75,"subject_pos":6,"motif":"subject","motif_pos":6,"best_pos":6,"similarity":1.0},{"voice":2,"pitch":91,"start":53.375,"duration":0.0625,"velocity":65,"measure":27,"beat":3.75,"subject_pos":-1,"motif":"","motif_pos":-1,"best_pos":6,"similarity":0.236},{"voice":6,"pitch":80,"start":53.375,"duration":0.125,"velocity":80,"measure":27,"beat":3.75,"subject_pos":-1,"motif":"","motif_pos":-1,"best_pos":3,"similarity":0.443},{"voice":10,"pitch":48,"start":53.375,"duration":0.125,"velocity":88,"measure":27,"beat":3.75,"subject_pos":6,"motif":"subject_inv","motif_pos":6,"best_pos":6,"similarity":1.0},{"voice":2,"pitch":94,"start":53.4375,"duration":0.0625,"velocity":65,"measure":27,"beat":3.875,"subject_pos":-1,"motif":"","motif_pos":-1,"best_pos":6,"similarity":0.179},{"voice":0,"pitch":77,"start":53.5,"duration":0.5,"velocity":85,"measure":27,"beat":4.0,"subject_pos":7,"motif":"subject","motif_pos":7,"best_pos":7,"similarity":1.0},{"voice":2,"pitch":60,"start":53.5,"duration":0.0625,"velocity":65,"measure":27,"beat":4.0,"subject_pos":-1,"motif":"","motif_pos":-1,"best_pos":0,"similarity":0.143},{"voice":3,"pitch":38,"start":53.5,"duration":0.25,"velocity":100,"measure":27,"beat":4.0,"subject_pos":-1,"motif":"","motif_pos":-1,"best_pos":2,"similarity":0.464},{"voice":6,"pitch":80,"start":53.5,"duration":0.125,"velocity":55,"measure":27,"beat":4.0,"subject_pos":-1,"motif":"","motif_pos":-1,"best_pos":4,"similarity":0.514},{"voice":7,"pitch":36,"start":53.5,"duration":0.25,"velocity":110,"measure":27,"beat":4.0,"subject_pos":-1,"motif":"","motif_pos":-1,"best_pos":4,"similarity":0.389},{"voice":8,"pitch":74,"start":53.5,"duration":0.25,"velocity":95,"measure":27,"beat":4.0,"subject_pos":-1,"motif":"","motif_pos":-1,"best_pos":4,"similarity":0.389},{"voice":9,"pitch":72,"start":53.5,"duration":0.25,"velocity":68,"measure":27,"beat":4.0,"subject_pos":-1,"motif":"","motif_pos":-1,"best_pos":4,"similarity":0.568},{"voice":10,"pitch":47,"start":53.5,"duration":0.5,"velocity":88,"measure":27,"beat":4.0,"subject_pos":7,"motif":"subject_inv","motif_pos":7,"best_pos":7,"similarity":1.0},{"voice":11,"pitch":69,"start":53.5,"duration":0.5,"velocity":95,"measure":27,"beat":4.0,"subject_pos":3,"motif":"subject_inv","motif_pos":3,"best_pos":3,"similarity":1.0},{"voice":2,"pitch":64,"start":53.5625,"duration":0.0625,"velocity":65,"measure":27,"beat":4.125,"subject_pos":-1,"motif":"","motif_pos":-1,"best_pos":5,"similarity":0.207},{"voice":2,"pitch":67,"start":53.625,"duration":0.0625,"velocity":65,"measure":27,"beat":4.25,"subject_pos":-1,"motif":"","motif_pos":-1,"best_pos":5,"similarity":0.286},{"voice":6,"pitch":80,"start":53.625,"duration":0.125,"velocity":80,"measure":27,"beat":4.25,"subject_pos":-1,"motif":"","motif_pos":-1,"best_pos":5,"similarity":0.55},{"voice":2,"pitch":70,"start":53.6875,"duration":0.0625,"velocity":65,"measure":27,"beat":4.375,"subject_pos":-1,"motif":"","motif_pos":-1,"best_pos":5,"similarity":0.386},{"voice":2,"pitch":72,"start":53.75,"duration":0.0625,"velocity":65,"measure":27,"beat":4.5,"subject_pos":-1,"motif":"","motif_pos":-1,"best_pos":6,"similarity":0.357},{"voice":5,"pitch":72,"start":53.75,"duration":0.25,"velocity":80,"measure":27,"beat":4.5,"subject_pos":-1,"motif":"","motif_pos":-1,"best_pos":0,"similarity":0.143},{"voice":5,"pitch":76,"start":53.75,"duration":0.25,"velocity":80,"measure":27,"beat":4.5,"subject_pos":-1,"motif":"","motif_pos":-1,"best_pos":5,"similarity":0.207},{"voice":5,"pitch":79,"start":53.75,"duration":0.25,"velocity":80,"measure":27,"beat":4.5,"subject_pos":-1,"motif":"","motif_pos":-1,"best_pos":6,"similarity":0.229},{"voice":5,"pitch":82,"start":53.75,"duration":0.25,"velocity":80,"measure":27,"beat":4.5,"subject_pos":-1,"motif":"","motif_pos":-1,"best_pos":6,"similarity":0.179},{"voice":6,"pitch":82,"start":53.75,"duration":0.125,"velocity":100,"measure":27,"beat":4.5,"subject_pos":-1,"motif":"","motif_pos":-1,"best_pos":6,"similarity":0.421},{"voice":9,"pitch":73,"start":53.75,"duration":0.25,"velocity":69,"measure":27,"beat":4.5,"subject_pos":-1,"motif":"","motif_pos":-1,"best_pos":5,"similarity":0.579},{"voice":2,"pitch":76,"start":53.8125,"duration":0.0625,"velocity":65,"measure":27,"beat":4.625,"subject_pos":-1,"motif":"","motif_pos":-1,"best_pos":5,"similarity":0.221},{"voice":2,"pitch":79,"start":53.875,"duration":0.0625,"velocity":65,"measure":27,"beat":4.75,"subject_pos":-1,"motif":"","motif_pos":-1,"best_pos":6,"similarity":0.236},{"voice":6,"pitch":80,"start":53.875,"duration":0.125,"velocity":80,"measure":27,"beat":4.75,"subject_pos":-1,"motif":"","motif_pos":-1,"best_pos":3,"similarity":0.443},{"voice":2,"pitch":82,"start":53.9375,"duration":0.0625,"velocity":65,"measure":27,"beat":4.875,"subject_pos":-1,"motif":"","motif_pos":-1,"best_pos":6,"similarity":0.179},{"voice":2,"pitch":57,"start":54.0,"duration":0.0625,"velocity":65,"measure":28,"beat":1.0,"subject_pos":-1,"motif":"","motif_pos":-1,"best_pos":0,"similarity":0.143},{"voice":3,"pitch":35,"start":54.0,"duration":0.25,"velocity":100,"measure":28,"beat":1.0,"subject_pos":-1,"motif":"","motif_pos":-1,"best_pos":3,"similarity":0.554},{"voice":6,"pitch":80,"start":54.0,"duration":0.125,"velocity":55,"measure":28,"beat":1.0,"subject_pos":-1,"motif":"","motif_pos":-1,"best_pos":4,"similarity":0.514},{"voice":7,"pitch":36,"start":54.0,"duration":0.25,"velocity":110,"measure":28,"beat":1.0,"subject_pos":-1,"motif":"","motif_pos":-1,"best_pos":4,"similarity":0.389},{"voice":9,"pitch":73,"start":54.0,"duration":0.25,"velocity":70,"measure":28,"beat":1.0,"subject_pos":-1,"motif":"","motif_pos":-1,"best_pos":4,"similarity":0.568},{"voice":10,"pitch":57,"start":54.0,"duration":0.25,"velocity":82,"measure":28,"beat":1.0,"subject_pos":0,"motif":"subject_inv","motif_pos":0,"best_pos":0,"similarity":1.0},{"voice":11,"pitch":70,"start":54.0,"duration":0.5,"velocity":95,"measure":28,"beat":1.0,"subject_pos":4,"motif":"subject_inv","motif_pos":4,"best_pos":4,"similarity":1.0},{"voice":2,"pitch":61,"start":54.0625,"duration":0.0625,"velocity":65,"measure":28,"beat":1.125,"subject_pos":-1,"motif":"","motif_pos":-1,"best_pos":5,"similarity":0.207},{"voice":2,"pitch":64,"start":54.125,"duration":0.0625,"velocity":65,"measure":28,"beat":1.25,"subject_pos":-1,"motif":"","motif_pos":-1,"best_pos":5,"similarity":0.286},{"voice":6,"pitch":80,"start":54.125,"duration":0.125,"velocity":80,"measure":28,"beat":1.25,"subject_pos":-1,"motif":"","motif_pos":-1,"best_pos":5,"similarity":0.55},{"voice":2,"pitch":67,"start":54.1875,"duration":0.0625,"velocity":65,"measure":28,"beat":1.375,"subject_pos":-1,"motif":"","motif_pos":-1,"best_pos":5,"similarity":0.386},{"voice":2,"pitch":69,"start":54.25,"duration":0.0625,"velocity":65,"measure":28,"beat":1.5,"subject_pos":-1,"motif":"","motif_pos":-1,"best_pos":6,"similarity":0.357},{"voice":5,"pitch":69,"start":54.25,"duration":0.25,"velocity":80,"measure":28,"beat":1.5,"subject_pos":-1,"motif":"","motif_pos":-1,"best_pos":0,"similarity":0.143},{"voice":5,"pitch":73,"start":54.25,"duration":0.25,"velocity":80,"measure":28,"beat":1.5,"subject_pos":-1,"motif":"","motif_pos":-1,"best_pos":5,"similarity":0.207},{"voice":5,"pitch":76,"start":54.25,"duration":0.25,"velocity":80,"measure":28,"beat":1.5,"subject_pos":-1,"motif":"","motif_pos":-1,"best_pos":6,"similarity":0.229},{"voice":5,"pitch":79,"start":54.25,"duration":0.25,"velocity":80,"measure":28,"beat":1.5,"subject_pos":-1,"motif":"","motif_pos":-1,"best_pos":6,"similarity":0.179},{"voice":6,"pitch":82,"start":54.25,"duration":0.125,"velocity":100,"measure":28,"beat":1.5,"subject_pos":-1,"motif":"","motif_pos":-1,"best_pos":6,"similarity":0.421},{"voice":9,"pitch":74,"start":54.25,"duration":0.25,"velocity":71,"measure":28,"beat":1.5,"subject_pos":-1,"motif":"","motif_pos":-1,"best_pos":5,"similarity":0.579},{"voice":10,"pitch":52,"start":54.25,"duration":0.25,"velocity":82,"measure":28,"beat":1.5,"subject_pos":1,"motif":"subject_inv","motif_pos":1,"best_pos":1,"similarity":1.0},{"voice":2,"pitch":73,"start":54.3125,"duration":0.0625,"velocity":65,"measure":28,"beat":1.625,"subject_pos":-1,"motif":"","motif_pos":-1,"best_pos":5,"similarity":0.221},{"voice":2,"pitch":76,"start":54.375,"duration":0.0625,"velocity":65,"measure":28,"beat":1.75,"subject_pos":-1,"motif":"","motif_pos":-1,"best_pos":5,"similarity":0.286},{"voice":6,"pitch":80,"start":54.375,"duration":0.125,"velocity":80,"measure":28,"beat":1.75,"subject_pos":-1,"motif":"","motif_pos":-1,"best_pos":3,"similarity":0.443},{"voice":2,"pitch":79,"start":54.4375,"duration":0.0625,"velocity":65,"measure":28,"beat":1.875,"subject_pos":-1,"motif":"","motif_pos":-1,"best_pos":5,"similarity":0.386},{"voice":2,"pitch":81,"start":54.5,"duration":0.0625,"velocity":65,"measure":28,"beat":2.0,"subject_pos":-1,"motif":"","motif_pos":-1,"best_pos":6,"similarity":0.357},{"voice":3,"pitch":35,"start":54.5,"duration":0.25,"velocity":100,"measure":28,"beat":2.0,"subject_pos":-1,"motif":"","motif_pos":-1,"best_pos":4,"similarity":0.482},{"voice":6,"pitch":80,"start":54.5,"duration":0.125,"velocity":55,"measure":28,"beat":2.0,"subject_pos":-1,"motif":"","motif_pos":-1,"best_pos":4,"similarity":0.514},{"voice":7,"pitch":36,"start":54.5,"duration":0.25,"velocity":110,"measure":28,"beat":2.0,"subject_pos":-1,"motif":"","motif_pos":-1,"best_pos":4,"similarity":0.389},{"voice":8,"pitch":74,"start":54.5,"duration":0.25,"velocity":95,"measure":28,"beat":2.0,"subject_pos":-1,"motif":"","motif_pos":-1,"best_pos":4,"similarity":0.389},{"voice":9,"pitch":74,"start":54.5,"duration":0.25,"velocity":72,"measure":28,"beat":2.0,"subject_pos":-1,"motif":"","motif_pos":-1,"best_pos":4,"similarity":0.568},{"voice":10,"pitch":54,"start":54.5,"duration":0.25,"velocity":82,"measure":28,"beat":2.0,"subject_pos":2,"motif":"subject_inv","motif_pos":2,"best_pos":2,"similarity":1.0},{"voice":11,"pitch":69,"start":54.5,"duration":0.25,"velocity":95,"measure":28,"beat":2.0,"subject_pos":5,"motif":"subject_inv","motif_pos":5,"best_pos":5,"similarity":1.0},{"voice":2,"pitch":85,"start":54.5625,"duration":0.0625,"velocity":65,"measure":28,"beat":2.125,"subject_pos":-1,"motif":"","motif_pos":-1,"best_pos":5,"similarity":0.221},{"voice":2,"pitch":88,"start":54.625,"duration":0.0625,"velocity":65,"measure":28,"beat":2.25,"subject_pos":-1,"motif":"","motif_pos":-1,"best_pos":6,"similarity":0.236},{"voice":6,"pitch":80,"start":54.625,"duration":0.125,"velocity":80,"measure":28,"beat":2.25,"subject_pos":-1,"motif":"","motif_pos":-1,"best_pos":5,"similarity":0.55},{"voice":2,"pitch":91,"start":54.6875,"duration":0.0625,"velocity":65,"measure":28,"beat":2.375,"subject_pos":-1,"motif":"","motif_pos":-1,"best_pos":6,"similarity":0.179},{"voice":2,"pitch":57,"start":54.75,"duration":0.0625,"velocity":65,"measure":28,"beat":2.5,"subject_pos":-1,"motif":"","motif_pos":-1,"best_pos":0,"similarity":0.143},{"voice":5,"pitch":69,"start":54.75,"duration":0.25,"velocity":80,"measure":28,"beat":2.5,"subject_pos":-1,"motif":"","motif_pos":-1,"best_pos":0,"similarity":0.143},{"voice":5,"pitch":73,"start":54.75,"duration":0.25,"velocity":80,"measure":28,"beat":2.5,"subject_pos":-1,"motif":"","motif_pos":-1,"best_pos":5,"similarity":0.207},{"voice":5,"pitch":76,"start":54.75,"duration":0.25,"velocity":80,"measure":28,"beat":2.5,"subject_pos":-1,"motif":"","motif_pos":-1,"best_pos":6,"similarity":0.229},{"voice":5,"pitch":79,"start":54.75,"duration":0.25,"velocity":80,"measure":28,"beat":2.5,"subject_pos":-1,"motif":"","motif_pos":-1,"best_pos":6,"similarity":0.179},{"voice":6,"pitch":82,"start":54.75,"duration":0.125,"velocity":100,"measure":28,"beat":2.5,"subject_pos":-1,"motif":"","motif_pos":-1,"best_pos":6,"similarity":0.421},{"voice":9,"pitch":75,"start":54.75,"duration":0.25,"velocity":73,"measure":28,"beat":2.5,"subject_pos":-1,"motif":"","motif_pos":-1,"best_pos":5,"similarity":0.579},{"voice":10,"pitch":57,"start":54.75,"duration":0.25,"velocity":82,"measure":28,"beat":2.5,"subject_pos":3,"motif":"subject_inv","motif_pos":3,"best_pos":3,"similarity":1.0},{"voice":11,"pitch":67,"start":54.75,"duration":0.25,"velocity":95,"measure":28,"beat":2.5,"subject_pos":6,"motif":"subject_inv","motif_pos":6,"best_pos":6,"similarity":1.0},{"voice":2,"pitch":61,"start":54.8125,"duration":0.0625,"velocity":65,"measure":28,"beat":2.625,"subject_pos":-1,"motif":"","motif_pos":-1,"best_pos":5,"similarity":0.207},{"voice":2,"pitch":64,"start":54.875,"duration":0.0625,"velocity":65,"measure":28,"beat":2.75,"subject_pos":-1,"motif":"","motif_pos":-1,"best_pos":5,"similarity":0.286},{"voice":6,"pitch":80,"start":54.875,"duration":0.125,"velocity":80,"measure":28,"beat":2.75,"subject_pos":-1,"motif":"","motif_pos":-1,"best_pos":3,"similarity":0.443},{"voice":2,"pitch":67,"start":54.9375,"duration":0.0625,"velocity":65,"measure":28,"beat":2.875,"subject_pos":-1,"motif":"","motif_pos":-1,"best_pos":5,"similarity":0.386},{"voice":2,"pitch":69,"start":55.0,"duration":0.0625,"velocity":65,"measure":28,"beat":3.0,"subject_pos":-1,"motif":"","motif_pos":-1,"best_pos":6,"similarity":0.357},{"voice":3,"pitch":35,"start":55.0,"duration":0.25,"velocity":100,"measure":28,"beat":3.0,"subject_pos":-1,"motif":"","motif_pos":-1,"best_pos":4,"similarity":0.371},{"voice":6,"pitch":80,"start":55.0,"duration":0.125,"velocity":55,"measure":28,"beat":3.0,"subject_pos":-1,"motif":"","motif_pos":-1,"best_pos":4,"similarity":0.514},{"voice":7,"pitch":36,"start":55.0,"duration":0.25,"velocity":110,"measure":28,"beat":3.0,"subject_pos":-1,"motif":"","motif_pos":-1,"best_pos":4,"similarity":0.389},{"voice":9,"pitch":75,"start":55.0,"duration":0.25,"velocity":74,"measure":28,"beat":3.0,"subject_pos":-1,"motif":"","motif_pos":-1,"best_pos":4,"similarity":0.568},{"voice":10,"pitch":58,"start":55.0,"duration":0.25,"velocity":82,"measure":28,"beat":3.0,"subject_pos":4,"motif":"subject_inv","motif_pos":4,"best_pos":4,"similarity":1.0},{"voice":11,"pitch":66,"start":55.0,"duration":1.0,"velocity":95,"measure":28,"beat":3.0,"subject_pos":7,"motif":"subject_inv","motif_pos":7,"best_pos":7,"similarity":1.0},{"voice":2,"pitch":73,"start":55.0625,"duration":0.0625,"velocity":65,"measure":28,"beat":3.125,"subject_pos":-1,"motif":"","motif_pos":-1,"best_pos":5,"similarity":0.221},{"voice":2,"pitch":76,"start":55.125,"duration":0.0625,"velocity":65,"measure":28,"beat":3.25,"subject_pos":-1,"motif":"","motif_pos":-1,"best_pos":5,"similarity":0.286},{"voice":6,"pitch":80,"start":55.125,"duration":0.125,"velocity":80,"measure":28,"beat":3.25,"subject_pos":-1,"motif":"","motif_pos":-1,"best_pos":5,"similarity":0.55},{"voice":2,"pitch":79,"start":55.1875,"duration":0.0625,"velocity":65,"measure":28,"beat":3.375,"subject_pos":-1,"motif":"","motif_pos":-1,"best_pos":5,"similarity":0.386},{"voice":2,"pitch":81,"start":55.25,"duration":0.0625,"velocity":65,"measure":28,"beat":3.5,"subject_pos":-1,"motif":"","motif_pos":-1,"best_pos":6,"similarity":0.357},{"voice":5,"pitch":69,"start":55.25,"duration":0.25,"velocity":80,"measure":28,"beat":3.5,"subject_pos":-1,"motif":"","motif_pos":-1,"best_pos":0,"similarity":0.143},{"voice":5,"pitch":73,"start":55.25,"duration":0.25,"velocity":80,"measure":28,"beat":3.5,"subject_pos":-1,"motif":"","motif_pos":-1,"best_pos":5,"similarity":0.207},{"voice":5,"pitch":76,"start":55.25,"duration":0.25,"velocity":80,"measure":28,"beat":3.5,"subject_pos":-1,"motif":"","motif_pos":-1,"best_pos":6,"similarity":0.229},{"voice":5,"pitch":79,"start":55.25,"duration":0.25,"velocity":80,"measure":28,"beat":3.5,"subject_pos":-1,"motif":"","motif_pos":-1,"best_pos":6,"similarity":0.179},{"voice":6,"pitch":82,"start":55.25,"duration":0.125,"velocity":100,"measure":28,"beat":3.5,"subject_pos":-1,"motif":"","motif_pos":-1,"best_pos":6,"similarity":0.421},{"voice":9,"pitch":76,"start":55.25,"duration":0.25,"velocity":75,"measure":28,"beat":3.5,"subject_pos":-1,"motif":"","motif_pos":-1,"best_pos":5,"similarity":0.579},{"voice":10,"pitch":57,"start":55.25,"duration":0.125,"velocity":82,"measure":28,"beat":3.5,"subject_pos":5,"motif":"subject_inv","motif_pos":5,"best_pos":5,"similarity":1.0},{"voice":2,"pitch":85,"start":55.3125,"duration":0.0625,"velocity":65,"measure":28,"beat":3.625,"subject_pos":-1,"motif":"","motif_pos":-1,"best_pos":5,"similarity":0.221},{"voice":2,"pitch":88,"start":55.375,"duration":0.0625,"velocity":65,"measure":28,"beat":3.75,"subject_pos":-1,"motif":"","motif_pos":-1,"best_pos":6,"similarity":0.236},{"voice":6,"pitch":80,"start":55.375,"duration":0.125,"velocity":80,"measure":28,"beat":3.75,"subject_pos":-1,"motif":"","motif_pos":-1,"best_pos":3,"similarity":0.443},{"voice":10,"pitch":55,"start":55.375,"duration":0.125,"velocity":82,"measure":28,"beat":3.75,"subject_pos":6,"motif":"subject_inv","motif_pos":6,"best_pos":6,"similarity":1.0},{"voice":2,"pitch":91,"start":55.4375,"duration":0.0625,"velocity":65,"measure":28,"beat":3.875,"subject_pos":-1,"motif":"","motif_pos":-1,"best_pos":6,"similarity":0.179},{"voice":2,"pitch":57,"start":55.5,"duration":0.0625,"velocity":65,"measure":28,"beat":4.0,"subject_pos":-1,"motif":"","motif_pos":-1,"best_pos":0,"similarity":0.143},{"voice":3,"pitch":35,"start":55.5,"duration":0.25,"velocity":100,"measure":28,"beat":4.0,"subject_pos":-1,"motif":"","motif_pos":-1,"best_pos":5,"similarity":0.293},{"voice":6,"pitch":80,"start":55.5,"duration":0.125,"velocity":55,"measure":28,"beat":4.0,"subject_pos":-1,"motif":"","motif_pos":-1,"best_pos":4,"similarity":0.514},{"voice":7,"pitch":36,"start":55.5,"duration":0.25,"velocity":110,"measure":28,"beat":4.0,"subject_pos":-1,"motif":"","motif_pos":-1,"best_pos":4,"similarity":0.389},{"voice":8,"pitch":74,"start":55.5,"duration":0.25,"velocity":95,"measure":28,"beat":4.0,"subject_pos":-1,"motif":"","motif_pos":-1,"best_pos":4,"similarity":0.389},{"voice":9,"pitch":76,"start":55.5,"duration":0.25,"velocity":76,"measure":28,"beat":4.0,"subject_pos":-1,"motif":"","motif_pos":-1,"best_pos":6,"similarity":0.536},{"voice":10,"pitch":54,"start":55.5,"duration":0.5,"velocity":82,"measure":28,"beat":4.0,"subject_pos":7,"motif":"subject_inv","motif_pos":7,"best_pos":7,"similarity":1.0},{"voice":2,"pitch":61,"start":55.5625,"duration":0.0625,"velocity":65,"measure":28,"beat":4.125,"subject_pos":-1,"motif":"","motif_pos":-1,"best_pos":5,"similarity":0.207},{"voice":2,"pitch":64,"start":55.625,"duration":0.0625,"velocity":65,"measure":28,"beat":4.25,"subject_pos":-1,"motif":"","motif_pos":-1,"best_pos":5,"similarity":0.286},{"voice":6,"pitch":80,"start":55.625,"duration":0.125,"velocity":80,"measure":28,"beat":4.25,"subject_pos":-1,"motif":"","motif_pos":-1,"best_pos":5,"similarity":0.55},{"voice":2,"pitch":67,"start":55.6875,"duration":0.0625,"velocity":65,"measure":28,"beat":4.375,"subject_pos":-1,"motif":"","motif_pos":-1,"best_pos":5,"similarity":0.386},{"voice":2,"pitch":69,"start":55.75,"duration":0.0625,"velocity":65,"measure":28,"beat":4.5,"subject_pos":-1,"motif":"","motif_pos":-1,"best_pos":6,"similarity":0.357},{"voice":5,"pitch":69,"start":55.75,"duration":0.25,"velocity":80,"measure":28,"beat":4.5,"subject_pos":-1,"motif":"","motif_pos":-1,"best_pos":0,"similarity":0.143},{"voice":5,"pitch":73,"start":55.75,"duration":0.25,"velocity":80,"measure":28,"beat":4.5,"subject_pos":-1,"motif":"","motif_pos":-1,"best_pos":5,"similarity":0.207},{"voice":5,"pitch":76,"start":55.75,"duration":0.25,"velocity":80,"measure":28,"beat":4.5,"subject_pos":-1,"motif":"","motif_pos":-1,"best_pos":6,"similarity":0.229},{"voice":5,"pitch":79,"start":55.75,"duration":0.25,"velocity":80,"measure":28,"beat":4.5,"subject_pos":-1,"motif":"","motif_pos":-1,"best_pos":6,"similarity":0.179},{"voice":6,"pitch":82,"start":55.75,"duration":0.125,"velocity":100,"measure":28,"beat":4.5,"subject_pos":-1,"motif":"","motif_pos":-1,"best_pos":6,"similarity":0.421},{"voice":9,"pitch":77,"start":55.75,"duration":0.25,"velocity":77,"measure":28,"beat":4.5,"subject_pos":-1,"motif":"","motif_pos":-1,"best_pos":5,"similarity":0.507},{"voice":2,"pitch":73,"start":55.8125,"duration":0.0625,"velocity":65,"measure":28,"beat":4.625,"subject_pos":-1,"motif":"","motif_pos":-1,"best_pos":5,"similarity":0.221},{"voice":2,"pitch":76,"start":55.875,"duration":0.0625,"velocity":65,"measure":28,"beat":4.75,"subject_pos":-1,"motif":"","motif_pos":-1,"best_pos":6,"similarity":0.236},{"voice":6,"pitch":80,"start":55.875,"duration":0.125,"velocity":80,"measure":28,"beat":4.75,"subject_pos":-1,"motif":"","motif_pos":-1,"best_pos":3,"similarity":0.443},{"voice":2,"pitch":79,"start":55.9375,"duration":0.0625,"velocity":65,"measure":28,"beat":4.875,"subject_pos":-1,"motif":"","motif_pos":-1,"best_pos":6,"similarity":0.179},{"voice":1,"pitch":50,"start":56.0,"duration":8.0,"velocity":60,"measure":29,"beat":1.0,"subject_pos":-1,"motif":"","motif_pos":-1,"best_pos":5,"similarity":0.157},{"voice":1,"pitch":53,"start":56.0,"duration":8.0,"velocity":60,"measure":29,"beat":1.0,"subject_pos":-1,"motif":"","motif_pos":-1,"best_pos":6,"similarity":0.171},{"voice":1,"pitch":57,"start":56.0,"duration":8.0,"velocity":60,"measure":29,"beat":1.0,"subject_pos":-1,"motif":"","motif_pos":-1,"best_pos":1,"similarity":0.143},{"voice":1,"pitch":74,"start":56.0,"duration":8.0,"velocity":45,"measure":29,"beat":1.0,"subject_pos":-1,"motif":"","motif_pos":-1,"best_pos":5,"similarity":0.157},{"voice":1,"pitch":77,"start":56.0,"duration":8.0,"velocity":45,"measure":29,"beat":1.0,"subject_pos":-1,"motif":"","motif_pos":-1,"best_pos":6,"similarity":0.171},{"voice":1,"pitch":81,"start":56.0,"duration":8.0,"velocity":45,"measure":29,"beat":1.0,"subject_pos":-1,"motif":"","motif_pos":-1,"best_pos":1,"similarity":0.15},{"voice":2,"pitch":50,"start":56.0,"duration":0.0625,"velocity":65,"measure":29,"beat":1.0,"subject_pos":-1,"motif":"","motif_pos":-1,"best_pos":5,"similarity":0.171},{"voice":3,"pitch":28,"start":56.0,"duration":0.25,"velocity":100,"measure":29,"beat":1.0,"subject_pos":-1,"motif":"","motif_pos":-1,"best_pos":3,"similarity":0.296},{"voice":6,"pitch":80,"start":56.0,"duration":0.125,"velocity":55,"measure":29,"beat":1.0,"subject_pos":-1,"motif":"","motif_pos":-1,"best_pos":4,"similarity":0.514},{"voice":7,"pitch":36,"start":56.0,"duration":0.25,"velocity":110,"measure":29,"beat":1.0,"subject_pos":-1,"motif":"","motif_pos":-1,"best_pos":4,"similarity":0.389},{"voice":9,"pitch":77,"start":56.0,"duration":0.125,"velocity":78,"measure":29,"beat":1.0,"subject_pos":-1,"motif":"","motif_pos":-1,"best_pos":4,"similarity":0.425},{"voice":2,"pitch":53,"start":56.0625,"duration":0.0625,"velocity":65,"measure":29,"beat":1.125,"subject_pos":-1,"motif":"","motif_pos":-1,"best_pos":6,"similarity":0.179},{"voice":2,"pitch":57,"start":56.125,"duration":0.0625,"velocity":65,"measure":29,"beat":1.25,"subject_pos":-1,"motif":"","motif_pos":-1,"best_pos":0,"similarity":0.286},{"voice":6,"pitch":80,"start":56.125,"duration":0.125,"velocity":80,"measure":29,"beat":1.25,"subject_pos":-1,"motif":"","motif_pos":-1,"best_pos":5,"similarity":0.55},{"voice":9,"pitch":77,"start":56.125,"duration":0.125,"velocity":79,"measure":29,"beat":1.25,"subject_pos":-1,"motif":"","motif_pos":-1,"best_pos":4,"similarity":0.557},{"voice":2,"pitch":62,"start":56.1875,"duration":0.0625,"velocity":65,"measure":29,"beat":1.375,"subject_pos":-1,"motif":"","motif_pos":-1,"best_pos":1,"similarity":0.286},{"voice":2,"pitch":65,"start":56.25,"duration":0.0625,"velocity":65,"measure":29,"beat":1.5,"subject_pos":-1,"motif":"","motif_pos":-1,"best_pos":6,"similarity":0.186},{"voice":5,"pitch":62,"start":56.25,"duration":0.25,"velocity":80,"measure":29,"beat":1.5,"subject_pos":-1,"motif":"","motif_pos":-1,"best_pos":5,"similarity":0.171},{"voice":5,"pitch":65,"start":56.25,"duration":0.25,"velocity":80,"measure":29,"beat":1.5,"subject_pos":-1,"motif":"","motif_pos":-1,"best_pos":6,"similarity":0.179},{"voice":5,"pitch":69,"start":56.25,"duration":0.25,"velocity":80,"measure":29,"beat":1.5,"subject_pos":-1,"motif":"","motif_pos":-1,"best_pos":1,"similarity":0.171},{"voice":6,"pitch":82,"start":56.25,"duration":0.125,"velocity":100,"measure":29,"beat":1.5,"subject_pos":-1,"motif":"","motif_pos":-1,"best_pos":6,"similarity":0.421},{"voice":9,"pitch":78,"start":56.25,"duration":0.125,"velocity":80,"measure":29,"beat":1.5,"subject_pos":-1,"motif":"","motif_pos":-1,"best_pos":5,"similarity":0.579},{"voice":2,"pitch":69,"start":56.3125,"duration":0.0625,"velocity":65,"measure":29,"beat":1.625,"subject_pos":-1,"motif":"","motif_pos":-1,"best_pos":0,"similarity":0.286},{"voice":2,"pitch":74,"start":56.375,"duration":0.0625,"velocity":65,"measure":29,"beat":1.75,"subject_pos":-1,"motif":"","motif_pos":-1,"best_pos":1,"similarity":0.286},{"voice":6,"pitch":80,"start":56.375,"duration":0.125,"velocity":80,"measure":29,"beat":1.75,"subject_pos":-1,"motif":"","motif_pos":-1,"best_pos":3,"similarity":0.443},{"voice":9,"pitch":78,"start":56.375,"duration":0.125,"velocity":81,"measure":29,"beat":1.75,"subject_pos":-1,"motif":"","motif_pos":-1,"best_pos":4,"similarity":0.568},{"voice":2,"pitch":77,"start":56.4375,"duration":0.0625,"velocity":65,"measure":29,"beat":1.875,"subject_pos":-1,"motif":"","motif_pos":-1,"best_pos":6,"similarity":0.186},{"voice":2,"pitch":81,"start":56.5,"duration":0.0625,"velocity":65,"measure":29,"beat":2.0,"subject_pos":-1,"motif":"","motif_pos":-1,"best_pos":1,"similarity":0.143},{"voice":3,"pitch":28,"start":56.5,"duration":0.25,"velocity":100,"measure":29,"beat":2.0,"subject_pos":-1,"motif":"","motif_pos":-1,"best_pos":4,"similarity":0.361},{"voice":6,"pitch":80,"start":56.5,"duration":0.125,"velocity":55,"measure":29,"beat":2.0,"subject_pos":-1,"motif":"","motif_pos":-1,"best_pos":4,"similarity":0.514},{"voice":7,"pitch":36,"start":56.5,"duration":0.25,"velocity":110,"measure":29,"beat":2.0,"subject_pos":-1,"motif":"","motif_pos":-1,"best_pos":4,"similarity":0.389},{"voice":8,"pitch":74,"start":56.5,"duration":0.25,"velocity":95,"measure":29,"beat":2.0,"subject_pos":-1,"motif":"","motif_pos":-1,"best_pos":4,"similarity":0.389},{"voice":9,"pitch":79,"start":56.5,"duration":0.125,"velocity":82,"measure":29,"beat":2.0,"subject_pos":-1,"motif":"","motif_pos":-1,"best_pos":5,"similarity":0.579},{"voice":2,"pitch":50,"start":56.5625,"duration":0.0625,"velocity":65,"measure":29,"beat":2.125,"subject_pos":-1,"motif":"","motif_pos":-1,"best_pos":5,"similarity":0.157},{"voice":2,"pitch":53,"start":56.625,"duration":0.0625,"velocity":65,"measure":29,"beat":2.25,"subject_pos":-1,"motif":"","motif_pos":-1,"best_pos":6,"similarity":0.171},{"voice":6,"pitch":80,"start":56.625,"duration":0.125,"velocity":80,"measure":29,"beat":2.25,"subject_pos":-1,"motif":"","motif_pos":-1,"best_pos":5,"similarity":0.55},{"voice":9,"pitch":79,"start":56.625,"duration":0.125,"velocity":83,"measure":29,"beat":2.25,"subject_pos":-1,"motif":"","motif_pos":-1,"best_pos":4,"similarity":0.568},{"voice":2,"pitch":57,"start":56.6875,"duration":0.0625,"velocity":65,"measure":29,"beat":2.375,"subject_pos":-1,"motif":"","motif_pos":-1,"best_pos":0,"similarity":0.286},{"voice":2,"pitch":62,"start":56.75,"duration":0.0625,"velocity":65,"measure":29,"beat":2.5,"subject_pos":-1,"motif":"","motif_pos":-1,"best_pos":1,"similarity":0.286},{"voice":5,"pitch":62,"start":56.75,"duration":0.25,"velocity":80,"measure":29,"beat":2.5,"subject_pos":-1,"motif":"","motif_pos":-1,"best_pos":5,"similarity":0.157},{"voice":5,"pitch":65,"start":56.75,"duration":0.25,"velocity":80,"measure":29,"beat":2.5,"subject_pos":-1,"motif":"","motif_pos":-1,"best_pos":6,"similarity":0.171},{"voice":5,"pitch":69,"start":56.75,"duration":0.25,"velocity":80,"measure":29,"beat":2.5,"subject_pos":-1,"motif":"","motif_pos":-1,"best_pos":1,"similarity":0.171},{"voice":6,"pitch":82,"start":56.75,"duration":0.125,"velocity":100,"measure":29,"beat":2.5,"subject_pos":-1,"motif":"","motif_pos":-1,"best_pos":6,"similarity":0.421},{"voice":9,"pitch":80,"start":56.75,"duration":0.125,"velocity":84,"measure":29,"beat":2.5,"subject_pos":-1,"motif":"","motif_pos":-1,"best_pos":5,"similarity":0.579},{"voice":2,"pitch":65,"start":56.8125,"duration":0.0625,"velocity":65,"measure":29,"beat":2.625,"subject_pos":-1,"motif":"","motif_pos":-1,"best_pos":6,"similarity":0.186},{"voice":2,"pitch":69,"start":56.875,"duration":0.0625,"velocity":65,"measure":29,"beat":2.75,"subject_pos":-1,"motif":"","motif_pos":-1,"best_pos":0,"similarity":0.286},{"voice":6,"pitch":80,"start":56.875,"duration":0.125,"velocity":80,"measure":29,"beat":2.75,"subject_pos":-1,"motif":"","motif_pos":-1,"best_pos":3,"similarity":0.443},{"voice":9,"pitch":80,"start":56.875,"duration":0.125,"velocity":85,"measure":29,"beat":2.75,"subject_pos":-1,"motif":"","motif_pos":-1,"best_pos":4,"similarity":0.568},{"voice":2,"pitch":74,"start":56.9375,"duration":0.0625,"velocity":65,"measure":29,"beat":2.875,"subject_pos":-1,"motif":"","motif_pos":-1,"best_pos":1,"similarity":0.286},{"voice":2,"pitch":77,"start":57.0,"duration":0.0625,"velocity":65,"measure":29,"beat":3.0,"subject_pos":-1,"motif":"","motif_pos":-1,"best_pos":6,"similarity":0.186},{"voice":3,"pitch":28,"start":57.0,"duration":0.25,"velocity":100,"measure":29,"beat":3.0,"subject_pos":-1,"motif":"","motif_pos":-1,"best_pos":4,"similarity":0.357},{"voice":6,"pitch":80,"start":57.0,"duration":0.125,"velocity":55,"measure":29,"beat":3.0,"subject_pos":-1,"motif":"","motif_pos":-1,"best_pos":4,"similarity":0.514},{"voice":7,"pitch":36,"start":57.0,"duration":0.25,"velocity":110,"measure":29,"beat":3.0,"subject_pos":-1,"motif":"","motif_pos":-1,"best_pos":4,"similarity":0.389},{"voice":9,"pitch":81,"start":57.0,"duration":0.125,"velocity":86,"measure":29,"beat":3.0,"subject_pos":-1,"motif":"","motif_pos":-1,"best_pos":5,"similarity":0.579},{"voice":2,"pitch":81,"start":57.0625,"duration":0.0625,"velocity":65,"measure":29,"beat":3.125,"subject_pos":-1,"motif":"","motif_pos":-1,"best_pos":1,"similarity":0.143},{"voice":2,"pitch":50,"start":57.125,"duration":0.0625,"velocity":65,"measure":29,"beat":3.25,"subject_pos":-1,"motif":"","motif_pos":-1,"best_pos":5,"similarity":0.157},{"voice":6,"pitch":80,"start":57.125,"duration":0.125,"velocity":80,"measure":29,"beat":3.25,"subject_pos":-1,"motif":"","motif_pos":-1,"best_pos":5,"similarity":0.55},{"voice":9,"pitch":81,"start":57.125,"duration":0.125,"velocity":87,"measure":29,"beat":3.25,"subject_pos":-1,"motif":"","motif_pos":-1,"best_pos":4,"similarity":0.568},{"voice":2,"pitch":53,"start":57.1875,"duration":0.0625,"velocity":65,"measure":29,"beat":3.375,"subject_pos":-1,"motif":"","motif_pos":-1,"best_pos":6,"similarity":0.171},{"voice":2,"pitch":57,"start":57.25,"duration":0.0625,"velocity":65,"measure":29,"beat":3.5,"subject_pos":-1,"motif":"","motif_pos":-1,"best_pos":0,"similarity":0.286},{"voice":5,"pitch":62,"start":57.25,"duration":0.25,"velocity":80,"measure":29,"beat":3.5,"subject_pos":-1,"motif":"","motif_pos":-1,"best_pos":5,"similarity":0.157},{"voice":5,"pitch":65,"start":57.25,"duration":0.25,"velocity":80,"measure":29,"beat":3.5,"subject_pos":-1,"motif":"","motif_pos":-1,"best_pos":6,"similarity":0.171},{"voice":5,"pitch":69,"start":57.25,"duration":0.25,"velocity":80,"measure":29,"beat":3.5,"subject_pos":-1,"motif":"","motif_pos":-1,"best_pos":1,"similarity":0.171},{"voice":6,"pitch":82,"start":57.25,"duration":0.125,"velocity":100,"measure":29,"beat":3.5,"subject_pos":-1,"motif":"","motif_pos":-1,"best_pos":6,"similarity":0.421},{"voice":9,"pitch":82,"start":57.25,"duration":0.125,"velocity":88,"measure":29,"beat":3.5,"subject_pos":-1,"motif":"","motif_pos":-1,"best_pos":5,"similarity":0.579},{"voice":2,"pitch":62,"start":57.3125,"duration":0.0625,"velocity":65,"measure":29,"beat":3.625,"subject_pos":-1,"motif":"","motif_pos":-1,"best_pos":1,"similarity":0.286},{"voice":2,"pitch":65,"start":57.375,"duration":0.0625,"velocity":65,"measure":29,"beat":3.75,"subject_pos":-1,"motif":"","motif_pos":-1,"best_pos":6,"similarity":0.186},{"voice":6,"pitch":80,"start":57.375,"duration":0.125,"velocity":80,"measure":29,"beat":3.75,"subject_pos":-1,"motif":"","motif_pos":-1,"best_pos":3,"similarity":0.443},{"voice":9,"pitch":82,"start":57.375,"duration":0.125,"velocity":89,"measure":29,"beat":3.75,"subject_pos":-1,"motif":"","motif_pos":-1,"best_pos":4,"similarity":0.568},{"voice":2,"pitch":69,"start":57.4375,"duration":0.0625,"velocity":65,"measure":29,"beat":3.875,"subject_pos":-1,"motif":"","motif_pos":-1,"best_pos":0,"similarity":0.286},{"voice":2,"pitch":74,"start":57.5,"duration":0.0625,"velocity":65,"measure":29,"beat":4.0,"subject_pos":-1,"motif":"","motif_pos":-1,"best_pos":1,"similarity":0.286},{"voice":3,"pitch":28,"start":57.5,"duration":0.25,"velocity":100,"measure":29,"beat":4.0,"subject_pos":-1,"motif":"","motif_pos":-1,"best_pos":0,"similarity":0.329},{"voice":6,"pitch":80,"start":57.5,"duration":0.125,"velocity":55,"measure":29,"beat":4.0,"subject_pos":-1,"motif":"","motif_pos":-1,"best_pos":4,"similarity":0.514},{"voice":7,"pitch":36,"start":57.5,"duration":0.25,"velocity":110,"measure":29,"beat":4.0,"subject_pos":-1,"motif":"","motif_pos":-1,"best_pos":4,"similarity":0.389},{"voice":8,"pitch":74,"start":57.5,"duration":0.25,"velocity":95,"measure":29,"beat":4.0,"subject_pos":-1,"motif":"","motif_pos":-1,"best_pos":4,"similarity":0.389},{"voice":9,"pitch":83,"start":57.5,"duration":0.125,"velocity":90,"measure":29,"beat":4.0,"subject_pos":-1,"motif":"","motif_pos":-1,"best_pos":5,"similarity":0.579},{"voice":2,"pitch":77,"start":57.5625,"duration":0.0625,"velocity":65,"measure":29,"beat":4.125,"subject_pos":-1,"motif":"","motif_pos":-1,"best_pos":6,"similarity":0.186},{"voice":2,"pitch":81,"start":57.625,"duration":0.0625,"velocity":65,"measure":29,"beat":4.25,"subject_pos":-1,"motif":"","motif_pos":-1,"best_pos":1,"similarity":0.143},{"voice":6,"pitch":80,"start":57.625,"duration":0.125,"velocity":80,"measure":29,"beat":4.25,"subject_pos":-1,"motif":"","motif_pos":-1,"best_pos":5,"similarity":0.55},{"voice":9,"pitch":83,"start":57.625,"duration":0.125,"velocity":91,"measure":29,"beat":4.25,"subject_pos":-1,"motif":"","motif_pos":-1,"best_pos":6,"similarity":0.536},{"voice":2,"pitch":50,"start":57.6875,"duration":0.0625,"velocity":65,"measure":29,"beat":4.375,"subject_pos":-1,"motif":"","motif_pos":-1,"best_pos":5,"similarity":0.157},{"voice":2,"pitch":53,"start":57.75,"duration":0.0625,"velocity":65,"measure":29,"beat":4.5,"subject_pos":-1,"motif":"","motif_pos":-1,"best_pos":6,"similarity":0.171},{"voice":5,"pitch":62,"start":57.75,"duration":0.25,"velocity":80,"measure":29,"beat":4.5,"subject_pos":-1,"motif":"","motif_pos":-1,"best_pos":5,"similarity":0.157},{"voice":5,"pitch":65,"start":57.75,"duration":0.25,"velocity":80,"measure":29,"beat":4.5,"subject_pos":-1,"motif":"","motif_pos":-1,"best_pos":0,"similarity":0.286},{"voice":5,"pitch":69,"start":57.75,"duration":0.25,"velocity":80,"measure":29,"beat":4.5,"subject_pos":-1,"motif":"","motif_pos":-1,"best_pos":1,"similarity":0.429},{"voice":6,"pitch":82,"start":57.75,"duration":0.125,"velocity":100,"measure":29,"beat":4.5,"subject_pos":-1,"motif":"","motif_pos":-1,"best_pos":6,"similarity":0.421},{"voice":9,"pitch":84,"start":57.75,"duration":0.125,"velocity":92,"measure":29,"beat":4.5,"subject_pos":-1,"motif":"","motif_pos":-1,"best_pos":5,"similarity":0.436},{"voice":2,"pitch":57,"start":57.8125,"duration":0.0625,"velocity":65,"measure":29,"beat":4.625,"subject_pos":-1,"motif":"","motif_pos":-1,"best_pos":0,"similarity":0.286},{"voice":2,"pitch":62,"start":57.875,"duration":0.0625,"velocity":65,"measure":29,"beat":4.75,"subject_pos":-1,"motif":"","motif_pos":-1,"best_pos":1,"similarity":0.293},{"voice":6,"pitch":80,"start":57.875,"duration":0.125,"velocity":80,"measure":29,"beat":4.75,"subject_pos":-1,"motif":"","motif_pos":-1,"best_pos":3,"similarity":0.443},{"voice":9,"pitch":84,"start":57.875,"duration":0.125,"velocity":93,"measure":29,"beat":4.75,"subject_pos":-1,"motif":"","motif_pos":-1,"best_pos":5,"similarity":0.257},{"voice":2,"pitch":65,"start":57.9375,"duration":0.0625,"velocity":65,"measure":29,"beat":4.875,"subject_pos":-1,"motif":"","motif_pos":-1,"best_pos":2,"similarity":0.164},{"voice":2,"pitch":55,"start":58.0,"duration":0.0625,"velocity":65,"measure":30,"beat":1.0,"subject_pos":-1,"motif":"","motif_pos":-1,"best_pos":5,"similarity":0.171},{"voice":3,"pitch":33,"start":58.0,"duration":0.25,"velocity":100,"measure":30,"beat":1.0,"subject_pos":-1,"motif":"","motif_pos":-1,"best_pos":1,"similarity":0.407},{"voice":6,"pitch":80,"start":58.0,"duration":0.125,"velocity":55,"measure":30,"beat":1.0,"subject_pos":-1,"motif":"","motif_pos":-1,"best_pos":4,"similarity":0.514},{"voice":7,"pitch":36,"start":58.0,"duration":0.25,"velocity":110,"measure":30,"beat":1.0,"subject_pos":-1,"motif":"","motif_pos":-1,"best_pos":4,"similarity":0.389},{"voice":2,"pitch":58,"start":58.0625,"duration":0.0625,"velocity":65,"measure":30,"beat":1.125,"subject_pos":-1,"motif":"","motif_pos":-1,"best_pos":6,"similarity":0.179},{"voice":2,"pitch":62,"start":58.125,"duration":0.0625,"velocity":65,"measure":30,"beat":1.25,"subject_pos":-1,"motif":"","motif_pos":-1,"best_pos":0,"similarity":0.286},{"voice":6,"pitch":80,"start":58.125,"duration":0.125,"velocity":80,"measure":30,"beat":1.25,"subject_pos":-1,"motif":"","motif_pos":-1,"best_pos":5,"similarity":0.55},{"voice":2,"pitch":67,"start":58.1875,"duration":0.0625,"velocity":65,"measure":30,"beat":1.375,"subject_pos":-1,"motif":"","motif_pos":-1,"best_pos":1,"similarity":0.286},{"voice":2,"pitch":70,"start":58.25,"duration":0.0625,"velocity":65,"measure":30,"beat":1.5,"subject_pos":-1,"motif":"","motif_pos":-1,"best_pos":6,"similarity":0.186},{"voice":5,"pitch":67,"start":58.25,"duration":0.25,"velocity":80,"measure":30,"beat":1.5,"subject_pos":-1,"motif":"","motif_pos":-1,"best_pos":2,"similarity":0.357},{"voice":5,"pitch":70,"start":58.25,"duration":0.25,"velocity":80,"measure":30,"beat":1.5,"subject_pos":-1,"motif":"","motif_pos":-1,"best_pos":3,"similarity":0.214},{"voice":5,"pitch":74,"start":58.25,"duration":0.25,"velocity":80,"measure":30,"beat":1.5,"subject_pos":-1,"motif":"","motif_pos":-1,"best_pos":1,"similarity":0.171},{"voice":6,"pitch":82,"start":58.25,"duration":0.125,"velocity":100,"measure":30,"beat":1.5,"subject_pos":-1,"motif":"","motif_pos":-1,"best_pos":6,"similarity":0.421},{"voice":2,"pitch":74,"start":58.3125,"duration":0.0625,"velocity":65,"measure":30,"beat":1.625,"subject_pos":-1,"motif":"","motif_pos":-1,"best_pos":0,"similarity":0.286},{"voice":2,"pitch":79,"start":58.375,"duration":0.0625,"velocity":65,"measure":30,"beat":1.75,"subject_pos":-1,"motif":"","motif_pos":-1,"best_pos":1,"similarity":0.286},{"voice":6,"pitch":80,"start":58.375,"duration":0.125,"velocity":80,"measure":30,"beat":1.75,"subject_pos":-1,"motif":"","motif_pos":-1,"best_pos":3,"similarity":0.443},{"voice":2,"pitch":82,"start":58.4375,"duration":0.0625,"velocity":65,"measure":30,"beat":1.875,"subject_pos":-1,"motif":"","motif_pos":-1,"best_pos":6,"similarity":0.186},{"voice":2,"pitch":86,"start":58.5,"duration":0.0625,"velocity":65,"measure":30,"beat":2.0,"subject_pos":-1,"motif":"","motif_pos":-1,"best_pos":1,"similarity":0.143},{"voice":3,"pitch":33,"start":58.5,"duration":0.25,"velocity":100,"measure":30,"beat":2.0,"subject_pos":-1,"motif":"","motif_pos":-1,"best_pos":4,"similarity":0.357},{"voice":6,"pitch":80,"start":58.5,"duration":0.125,"velocity":55,"measure":30,"beat":2.0,"subject_pos":-1,"motif":"","motif_pos":-1,"best_pos":4,"similarity":0.514},{"voice":7,"pitch":36,"start":58.5,"duration":0.25,"velocity":110,"measure":30,"beat":2.0,"subject_pos":-1,"motif":"","motif_pos":-1,"best_pos":4,"similarity":0.389},{"voice":8,"pitch":74,"start":58.5,"duration":0.25,"velocity":95,"measure":30,"beat":2.0,"subject_pos":-1,"motif":"","motif_pos":-1,"best_pos":4,"similarity":0.389},{"voice":2,"pitch":55,"start":58.5625,"duration":0.0625,"velocity":65,"measure":30,"beat":2.125,"subject_pos":-1,"motif":"","motif_pos":-1,"best_pos":5,"similarity":0.157},{"voice":2,"pitch":58,"start":58.625,"duration":0.0625,"velocity":65,"measure":30,"beat":2.25,"subject_pos":-1,"motif":"","motif_pos":-1,"best_pos":6,"similarity":0.171},{"voice":6,"pitch":80,"start":58.625,"duration":0.125,"velocity":80,"measure":30,"beat":2.25,"subject_pos":-1,"motif":"","motif_pos":-1,"best_pos":5,"similarity":0.55},{"voice":2,"pitch":62,"start":58.6875,"duration":0.0625,"velocity":65,"measure":30,"beat":2.375,"subject_pos":-1,"motif":"","motif_pos":-1,"best_pos":0,"similarity":0.286},{"voice":2,"pitch":67,"start":58.75,"duration":0.0625,"velocity":65,"measure":30,"beat":2.5,"subject_pos":-1,"motif":"","motif_pos":-1,"best_pos":1,"similarity":0.286},{"voice":5,"pitch":67,"start":58.75,"duration":0.25,"velocity":80,"measure":30,"beat":2.5,"subject_pos":-1,"motif":"","motif_pos":-1,"best_pos":5,"similarity":0.157},{"voice":5,"pitch":70,"start":58.75,"duration":0.25,"velocity":80,"measure":30,"beat":2.5,"subject_pos":-1,"motif":"","motif_pos":-1,"best_pos":6,"similarity":0.171},{"voice":5,"pitch":74,"start":58.75,"duration":0.25,"velocity":80,"measure":30,"beat":2.5,"subject_pos":-1,"motif":"","motif_pos":-1,"best_pos":1,"similarity":0.171},{"voice":6,"pitch":82,"start":58.75,"duration":0.125,"velocity":100,"measure":30,"beat":2.5,"subject_pos":-1,"motif":"","motif_pos":-1,"best_pos":6,"similarity":0.421},{"voice":2,"pitch":70,"start":58.8125,"duration":0.0625,"velocity":65,"measure":30,"beat":2.625,"subject_pos":-1,"motif":"","motif_pos":-1,"best_pos":6,"similarity":0.186},{"voice":2,"pitch":74,"start":58.875,"duration":0.0625,"velocity":65,"measure":30,"beat":2.75,"subject_pos":-1,"motif":"","motif_pos":-1,"best_pos":0,"similarity":0.286},{"voice":6,"pitch":80,"start":58.875,"duration":0.125,"velocity":80,"measure":30,"beat":2.75,"subject_pos":-1,"motif":"","motif_pos":-1,"best_pos":3,"similarity":0.443},{"voice":2,"pitch":79,"start":58.9375,"duration":0.0625,"velocity":65,"measure":30,"beat":2.875,"subject_pos":-1,"motif":"","motif_pos":-1,"best_pos":1,"similarity":0.286},{"voice":2,"pitch":82,"start":59.0,"duration":0.0625,"velocity":65,"measure":30,"beat":3.0,"subject_pos":-1,"motif":"","motif_pos":-1,"best_pos":6,"similarity":0.186},{"voice":3,"pitch":33,"start":59.0,"duration":0.25,"velocity":100,"measure":30,"beat":3.0,"subject_pos":-1,"motif":"","motif_pos":-1,"best_pos":4,"similarity":0.407},{"voice":6,"pitch":80,"start":59.0,"duration":0.125,"velocity":55,"measure":30,"beat":3.0,"subject_pos":-1,"motif":"","motif_pos":-1,"best_pos":4,"similarity":0.514},{"voice":7,"pitch":36,"start":59.0,"duration":0.25,"velocity":110,"measure":30,"beat":3.0,"subject_pos":-1,"motif":"","motif_pos":-1,"best_pos":4,"similarity":0.389},{"voice":2,"pitch":86,"start":59.0625,"duration":0.0625,"velocity":65,"measure":30,"beat":3.125,"subject_pos":-1,"motif":"","motif_pos":-1,"best_pos":1,"similarity":0.143},{"voice":2,"pitch":55,"start":59.125,"duration":0.0625,"velocity":65,"measure":30,"beat":3.25,"subject_pos":-1,"motif":"","motif_pos":-1,"best_pos":5,"similarity":0.157},{"voice":6,"pitch":80,"start":59.125,"duration":0.125,"velocity":80,"measure":30,"beat":3.25,"subject_pos":-1,"motif":"","motif_pos":-1,"best_pos":5,"similarity":0.55},{"voice":2,"pitch":58,"start":59.1875,"duration":0.0625,"velocity":65,"measure":30,"beat":3.375,"subject_pos":-1,"motif":"","motif_pos":-1,"best_pos":6,"similarity":0.171},{"voice":2,"pitch":62,"start":59.25,"duration":0.0625,"velocity":65,"measure":30,"beat":3.5,"subject_pos":-1,"motif":"","motif_pos":-1,"best_pos":0,"similarity":0.286},{"voice":5,"pitch":67,"start":59.25,"duration":0.25,"velocity":80,"measure":30,"beat":3.5,"subject_pos":-1,"motif":"","motif_pos":-1,"best_pos":5,"similarity":0.157},{"voice":5,"pitch":70,"start":59.25,"duration":0.25,"velocity":80,"measure":30,"beat":3.5,"subject_pos":-1,"motif":"","motif_pos":-1,"best_pos":6,"similarity":0.171},{"voice":5,"pitch":74,"start":59.25,"duration":0.25,"velocity":80,"measure":30,"beat":3.5,"subject_pos":-1,"motif":"","motif_pos":-1,"best_pos":1,"similarity":0.171},{"voice":6,"pitch":82,"start":59.25,"duration":0.125,"velocity":100,"measure":30,"beat":3.5,"subject_pos":-1,"motif":"","motif_pos":-1,"best_pos":6,"similarity":0.421},{"voice":2,"pitch":67,"start":59.3125,"duration":0.0625,"velocity":65,"measure":30,"beat":3.625,"subject_pos":-1,"motif":"","motif_pos":-1,"best_pos":1,"similarity":0.286},{"voice":2,"pitch":70,"start":59.375,"duration":0.0625,"velocity":65,"measure":30,"beat":3.75,"subject_pos":-1,"motif":"","motif_pos":-1,"best_pos":6,"similarity":0.186},{"voice":6,"pitch":80,"start":59.375,"duration":0.125,"velocity":80,"measure":30,"beat":3.75,"subject_pos":-1,"motif":"","motif_pos":-1,"best_pos":3,"similarity":0.443},{"voice":2,"pitch":74,"start":59.4375,"duration":0.0625,"velocity":65,"measure":30,"beat":3.875,"subject_pos":-1,"motif":"","motif_pos":-1,"best_pos":0,"similarity":0.286},{"voice":2,"pitch":79,"start":59.5,"duration":0.0625,"velocity":65,"measure":30,"beat":4.0,"subject_pos":-1,"motif":"","motif_pos":-1,"best_pos":1,"similarity":0.286},{"voice":3,"pitch":33,"start":59.5,"duration":0.25,"velocity":100,"measure":30,"beat":4.0,"subject_pos":-1,"motif":"","motif_pos":-1,"best_pos":5,"similarity":0.436},{"voice":6,"pitch":80,"start":59.5,"duration":0.125,"velocity":55,"measure":30,"beat":4.0,"subject_pos":-1,"motif":"","motif_pos":-1,"best_pos":4,"similarity":0.514},{"voice":7,"pitch":36,"start":59.5,"duration":0.25,"velocity":110,"measure":30,"beat":4.0,"subject_pos":-1,"motif":"","motif_pos":-1,"best_pos":4,"similarity":0.389},{"voice":8,"pitch":74,"start":59.5,"duration":0.25,"velocity":95,"measure":30,"beat":4.0,"subject_pos":-1,"motif":"","motif_pos":-1,"best_pos":4,"similarity":0.389},{"voice":2,"pitch":82,"start":59.5625,"duration":0.0625,"velocity":65,"measure":30,"beat":4.125,"subject_pos":-1,"motif":"","motif_pos":-1,"best_pos":6,"similarity":0.186},{"voice":2,"pitch":86,"start":59.625,"duration":0.0625,"velocity":65,"measure":30,"beat":4.25,"subject_pos":-1,"motif":"","motif_pos":-1,"best_pos":1,"similarity":0.143},{"voice":6,"pitch":80,"start":59.625,"duration":0.125,"velocity":80,"measure":30,"beat":4.25,"subject_pos":-1,"motif":"","motif_pos":-1,"best_pos":5,"similarity":0.55},{"voice":2,"pitch":55,"start":59.6875,"duration":0.0625,"velocity":65,"measure":30,"beat":4.375,"subject_pos":-1,"motif":"","motif_pos":-1,"best_pos":5,"similarity":0.157},{"voice":2,"pitch":58,"start":59.75,"duration":0.0625,"velocity":65,"measure":30,"beat":4.5,"subject_pos":-1,"motif":"","motif_pos":-1,"best_pos":6,"similarity":0.171},{"voice":5,"pitch":67,"start":59.75,"duration":0.25,"velocity":80,"measure":30,"beat":4.5,"subject_pos":-1,"motif":"","motif_pos":-1,"best_pos":5,"similarity":0.157},{"voice":5,"pitch":70,"start":59.75,"duration":0.25,"velocity":80,"measure":30,"beat":4.5,"subject_pos":-1,"motif":"","motif_pos":-1,"best_pos":0,"similarity":0.286},{"voice":5,"pitch":74,"start":59.75,"duration":0.25,"velocity":80,"measure":30,"beat":4.5,"subject_pos":-1,"motif":"","motif_pos":-1,"best_pos":1,"similarity":0.436},{"voice":6,"pitch":82,"start":59.75,"duration":0.125,"velocity":100,"measure":30,"beat":4.5,"subject_pos":-1,"motif":"","motif_pos":-1,"best_pos":6,"similarity":0.421},{"voice":2,"pitch":62,"start":59.8125,"duration":0.0625,"velocity":65,"measure":30,"beat":4.625,"subject_pos":-1,"motif":"","motif_pos":-1,"best_pos":0,"similarity":0.286},{"voice":2,"pitch":67,"start":59.875,"duration":0.0625,"velocity":65,"measure":30,"beat":4.75,"subject_pos":-1,"motif":"","motif_pos":-1,"best_pos":1,"similarity":0.286},{"voice":6,"pitch":80,"start":59.875,"duration":0.125,"velocity":80,"measure":30,"beat":4.75,"subject_pos":-1,"motif":"","motif_pos":-1,"best_pos":3,"similarity":0.443},{"voice":2,"pitch":70,"start":59.9375,"duration":0.0625,"velocity":65,"measure":30,"beat":4.875,"subject_pos":-1,"motif":"","motif_pos":-1,"best_pos":2,"similarity":0.161},{"voice":2,"pitch":58,"start":60.0,"duration":0.0625,"velocity":65,"measure":31,"beat":1.0,"subject_pos":-1,"motif":"","motif_pos":-1,"best_pos":0,"similarity":0.143},{"voice":3,"pitch":36,"start":60.0,"duration":0.25,"velocity":100,"measure":31,"beat":1.0,"subject_pos":-1,"motif":"","motif_pos":-1,"best_pos":6,"similarity":0.393},{"voice":6,"pitch":80,"start":60.0,"duration":0.125,"velocity":55,"measure":31,"beat":1.0,"subject_pos":-1,"motif":"","motif_pos":-1,"best_pos":4,"similarity":0.514},{"voice":7,"pitch":36,"start":60.0,"duration":0.25,"velocity":110,"measure":31,"beat":1.0,"subject_pos":-1,"motif":"","motif_pos":-1,"best_pos":4,"similarity":0.389},{"voice":2,"pitch":62,"start":60.0625,"duration":0.0625,"velocity":65,"measure":31,"beat":1.125,"subject_pos":-1,"motif":"","motif_pos":-1,"best_pos":5,"similarity":0.186},{"voice":2,"pitch":65,"start":60.125,"duration":0.0625,"velocity":65,"measure":31,"beat":1.25,"subject_pos":-1,"motif":"","motif_pos":-1,"best_pos":0,"similarity":0.286},{"voice":6,"pitch":80,"start":60.125,"duration":0.125,"velocity":80,"measure":31,"beat":1.25,"subject_pos":-1,"motif":"","motif_pos":-1,"best_pos":5,"similarity":0.55},{"voice":2,"pitch":70,"start":60.1875,"duration":0.0625,"velocity":65,"measure":31,"beat":1.375,"subject_pos":-1,"motif":"","motif_pos":-1,"best_pos":1,"similarity":0.286},{"voice":2,"pitch":74,"start":60.25,"duration":0.0625,"velocity":65,"measure":31,"beat":1.5,"subject_pos":-1,"motif":"","motif_pos":-1,"best_pos":5,"similarity":0.186},{"voice":5,"pitch":70,"start":60.25,"duration":0.25,"velocity":80,"measure":31,"beat":1.5,"subject_pos":-1,"motif":"","motif_pos":-1,"best_pos":2,"similarity":0.371},{"voice":5,"pitch":74,"start":60.25,"duration":0.25,"velocity":80,"measure":31,"beat":1.5,"subject_pos":-1,"motif":"","motif_pos":-1,"best_pos":3,"similarity":0.225},{"voice":5,"pitch":77,"start":60.25,"duration":0.25,"velocity":80,"measure":31,"beat":1.5,"subject_pos":-1,"motif":"","motif_pos":-1,"best_pos":6,"similarity":0.164},{"voice":6,"pitch":82,"start":60.25,"duration":0.125,"velocity":100,"measure":31,"beat":1.5,"subject_pos":-1,"motif":"","motif_pos":-1,"best_pos":6,"similarity":0.421},{"voice":2,"pitch":77,"start":60.3125,"duration":0.0625,"velocity":65,"measure":31,"beat":1.625,"subject_pos":-1,"motif":"","motif_pos":-1,"best_pos":0,"similarity":0.286},{"voice":2,"pitch":82,"start":60.375,"duration":0.0625,"velocity":65,"measure":31,"beat":1.75,"subject_pos":-1,"motif":"","motif_pos":-1,"best_pos":1,"similarity":0.286},{"voice":6,"pitch":80,"start":60.375,"duration":0.125,"velocity":80,"measure":31,"beat":1.75,"subject_pos":-1,"motif":"","motif_pos":-1,"best_pos":3,"similarity":0.443},{"voice":2,"pitch":86,"start":60.4375,"duration":0.0625,"velocity":65,"measure":31,"beat":1.875,"subject_pos":-1,"motif":"","motif_pos":-1,"best_pos":5,"similarity":0.171},{"voice":2,"pitch":89,"start":60.5,"duration":0.0625,"velocity":65,"measure":31,"beat":2.0,"subject_pos":-1,"motif":"","motif_pos":-1,"best_pos":6,"similarity":0.157},{"voice":3,"pitch":36,"start":60.5,"duration":0.25,"velocity":100,"measure":31,"beat":2.0,"subject_pos":-1,"motif":"","motif_pos":-1,"best_pos":4,"similarity":0.339},{"voice":6,"pitch":80,"start":60.5,"duration":0.125,"velocity":55,"measure":31,"beat":2.0,"subject_pos":-1,"motif":"","motif_pos":-1,"best_pos":4,"similarity":0.514},{"voice":7,"pitch":36,"start":60.5,"duration":0.25,"velocity":110,"measure":31,"beat":2.0,"subject_pos":-1,"motif":"","motif_pos":-1,"best_pos":4,"similarity":0.389},{"voice":8,"pitch":74,"start":60.5,"duration":0.25,"velocity":95,"measure":31,"beat":2.0,"subject_pos":-1,"motif":"","motif_pos":-1,"best_pos":4,"similarity":0.389},{"voice":2,"pitch":58,"start":60.5625,"duration":0.0625,"velocity":65,"measure":31,"beat":2.125,"subject_pos":-1,"motif":"","motif_pos":-1,"best_pos":0,"similarity":0.143},{"voice":2,"pitch":62,"start":60.625,"duration":0.0625,"velocity":65,"measure":31,"beat":2.25,"subject_pos":-1,"motif":"","motif_pos":-1,"best_pos":5,"similarity":0.186},{"voice":6,"pitch":80,"start":60.625,"duration":0.125,"velocity":80,"measure":31,"beat":2.25,"subject_pos":-1,"motif":"","motif_pos":-1,"best_pos":5,"similarity":0.55},{"voice":2,"pitch":65,"start":60.6875,"duration":0.0625,"velocity":65,"measure":31,"beat":2.375,"subject_pos":-1,"motif":"","motif_pos":-1,"best_pos":0,"similarity":0.286},{"voice":2,"pitch":70,"start":60.75,"duration":0.0625,"velocity":65,"measure":31,"beat":2.5,"subject_pos":-1,"motif":"","motif_pos":-1,"best_pos":1,"similarity":0.286},{"voice":5,"pitch":70,"start":60.75,"duration":0.25,"velocity":80,"measure":31,"beat":2.5,"subject_pos":-1,"motif":"","motif_pos":-1,"best_pos":0,"similarity":0.15},{"voice":5,"pitch":74,"start":60.75,"duration":0.25,"velocity":80,"measure":31,"beat":2.5,"subject_pos":-1,"motif":"","motif_pos":-1,"best_pos":5,"similarity":0.171},{"voice":5,"pitch":77,"start":60.75,"duration":0.25,"velocity":80,"measure":31,"beat":2.5,"subject_pos":-1,"motif":"","motif_pos":-1,"best_pos":6,"similarity":0.157},{"voice":6,"pitch":82,"start":60.75,"duration":0.125,"velocity":100,"measure":31,"beat":2.5,"subject_pos":-1,"motif":"","motif_pos":-1,"best_pos":6,"similarity":0.421},{"voice":2,"pitch":74,"start":60.8125,"duration":0.0625,"velocity":65,"measure":31,"beat":2.625,"subject_pos":-1,"motif":"","motif_pos":-1,"best_pos":5,"similarity":0.186},{"voice":2,"pitch":77,"start":60.875,"duration":0.0625,"velocity":65,"measure":31,"beat":2.75,"subject_pos":-1,"motif":"","motif_pos":-1,"best_pos":0,"similarity":0.286},{"voice":6,"pitch":80,"start":60.875,"duration":0.125,"velocity":80,"measure":31,"beat":2.75,"subject_pos":-1,"motif":"","motif_pos":-1,"best_pos":3,"similarity":0.443},{"voice":2,"pitch":82,"start":60.9375,"duration":0.0625,"velocity":65,"measure":31,"beat":2.875,"subject_pos":-1,"motif":"","motif_pos":-1,"best_pos":1,"similarity":0.286},{"voice":2,"pitch":86,"start":61.0,"duration":0.0625,"velocity":65,"measure":31,"beat":3.0,"subject_pos":-1,"motif":"","motif_pos":-1,"best_pos":5,"similarity":0.171},{"voice":3,"pitch":36,"start":61.0,"duration":0.25,"velocity":100,"measure":31,"beat":3.0,"subject_pos":-1,"motif":"","motif_pos":-1,"best_pos":4,"similarity":0.336},{"voice":6,"pitch":80,"start":61.0,"duration":0.125,"velocity":55,"measure":31,"beat":3.0,"subject_pos":-1,"motif":"","motif_pos":-1,"best_pos":4,"similarity":0.514},{"voice":7,"pitch":36,"start":61.0,"duration":0.25,"velocity":110,"measure":31,"beat":3.0,"subject_pos":-1,"motif":"","motif_pos":-1,"best_pos":4,"similarity":0.389},{"voice":2,"pitch":89,"start":61.0625,"duration":0.0625,"velocity":65,"measure":31,"beat":3.125,"subject_pos":-1,"motif":"","motif_pos":-1,"best_pos":6,"similarity":0.157},{"voice":2,"pitch":58,"start":61.125,"duration":0.0625,"velocity":65,"measure":31,"beat":3.25,"subject_pos":-1,"motif":"","motif_pos":-1,"best_pos":0,"similarity":0.143},{"voice":6,"pitch":80,"start":61.125,"duration":0.125,"velocity":80,"measure":31,"beat":3.25,"subject_pos":-1,"motif":"","motif_pos":-1,"best_pos":5,"similarity":0.55},{"voice":2,"pitch":62,"start":61.1875,"duration":0.0625,"velocity":65,"measure":31,"beat":3.375,"subject_pos":-1,"motif":"","motif_pos":-1,"best_pos":5,"similarity":0.186},{"voice":2,"pitch":65,"start":61.25,"duration":0.0625,"velocity":65,"measure":31,"beat":3.5,"subject_pos":-1,"motif":"","motif_pos":-1,"best_pos":0,"similarity":0.286},{"voice":5,"pitch":70,"start":61.25,"duration":0.25,"velocity":80,"measure":31,"beat":3.5,"subject_pos":-1,"motif":"","motif_pos":-1,"best_pos":0,"similarity":0.15},{"voice":5,"pitch":74,"start":61.25,"duration":0.25,"velocity":80,"measure":31,"beat":3.5,"subject_pos":-1,"motif":"","motif_pos":-1,"best_pos":5,"similarity":0.171},{"voice":5,"pitch":77,"start":61.25,"duration":0.25,"velocity":80,"measure":31,"beat":3.5,"subject_pos":-1,"motif":"","motif_pos":-1,"best_pos":6,"similarity":0.157},{"voice":6,"pitch":82,"start":61.25,"duration":0.125,"velocity":100,"measure":31,"beat":3.5,"subject_pos":-1,"motif":"","motif_pos":-1,"best_pos":6,"similarity":0.421},{"voice":2,"pitch":70,"start":61.3125,"duration":0.0625,"velocity":65,"measure":31,"beat":3.625,"subject_pos":-1,"motif":"","motif_pos":-1,"best_pos":1,"similarity":0.286},{"voice":2,"pitch":74,"start":61.375,"duration":0.0625,"velocity":65,"measure":31,"beat":3.75,"subject_pos":-1,"motif":"","motif_pos":-1,"best_pos":5,"similarity":0.186},{"voice":6,"pitch":80,"start":61.375,"duration":0.125,"velocity":80,"measure":31,"beat":3.75,"subject_pos":-1,"motif":"","motif_pos":-1,"best_pos":3,"similarity":0.443},{"voice":2,"pitch":77,"start":61.4375,"duration":0.0625,"velocity":65,"measure":31,"beat":3.875,"subject_pos":-1,"motif":"","motif_pos":-1,"best_pos":0,"similarity":0.286},{"voice":2,"pitch":82,"start":61.5,"duration":0.0625,"velocity":65,"measure":31,"beat":4.0,"subject_pos":-1,"motif":"","motif_pos":-1,"best_pos":1,"similarity":0.286},{"voice":3,"pitch":36,"start":61.5,"duration":0.25,"velocity":100,"measure":31,"beat":4.0,"subject_pos":-1,"motif":"","motif_pos":-1,"best_pos":5,"similarity":0.293},{"voice":6,"pitch":80,"start":61.5,"duration":0.125,"velocity":55,"measure":31,"beat":4.0,"subject_pos":-1,"motif":"","motif_pos":-1,"best_pos":4,"similarity":0.514},{"voice":7,"pitch":36,"start":61.5,"duration":0.25,"velocity":110,"measure":31,"beat":4.0,"subject_pos":-1,"motif":"","motif_pos":-1,"best_pos":4,"similarity":0.389},{"voice":8,"pitch":74,"start":61.5,"duration":0.25,"velocity":95,"measure":31,"beat":4.0,"subject_pos":-1,"motif":"","motif_pos":-1,"best_pos":4,"similarity":0.389},{"voice":2,"pitch":86,"start":61.5625,"duration":0.0625,"velocity":65,"measure":31,"beat":4.125,"subject_pos":-1,"motif":"","motif_pos":-1,"best_pos":5,"similarity":0.171},{"voice":2,"pitch":89,"start":61.625,"duration":0.0625,"velocity":65,"measure":31,"beat":4.25,"subject_pos":-1,"motif":"","motif_pos":-1,"best_pos":6,"similarity":0.157},{"voice":6,"pitch":80,"start":61.625,"duration":0.125,"velocity":80,"measure":31,"beat":4.25,"subject_pos":-1,"motif":"","motif_pos":-1,"best_pos":5,"similarity":0.55},{"voice":2,"pitch":58,"start":61.6875,"duration":0.0625,"velocity":65,"measure":31,"beat":4.375,"subject_pos":-1,"motif":"","motif_pos":-1,"best_pos":0,"similarity":0.143},{"voice":2,"pitch":62,"start":61.75,"duration":0.0625,"velocity":65,"measure":31,"beat":4.5,"subject_pos":-1,"motif":"","motif_pos":-1,"best_pos":5,"similarity":0.186},{"voice":5,"pitch":70,"start":61.75,"duration":0.25,"velocity":80,"measure":31,"beat":4.5,"subject_pos":-1,"motif":"","motif_pos":-1,"best_pos":0,"similarity":0.143},{"voice":5,"pitch":74,"start":61.75,"duration":0.25,"velocity":80,"measure":31,"beat":4.5,"subject_pos":-1,"motif":"","motif_pos":-1,"best_pos":5,"similarity":0.171},{"voice":5,"pitch":77,"start":61.75,"duration":0.25,"velocity":80,"measure":31,"beat":4.5,"subject_pos":-1,"motif":"","motif_pos":-1,"best_pos":6,"similarity":0.157},{"voice":6,"pitch":82,"start":61.75,"duration":0.125,"velocity":100,"measure":31,"beat":4.5,"subject_pos":-1,"motif":"","motif_pos":-1,"best_pos":6,"similarity":0.421},{"voice":2,"pitch":65,"start":61.8125,"duration":0.0625,"velocity":65,"measure":31,"beat":4.625,"subject_pos":-1,"motif":"","motif_pos":-1,"best_pos":0,"similarity":0.286},{"voice":2,"pitch":70,"start":61.875,"duration":0.0625,"velocity":65,"measure":31,"beat":4.75,"subject_pos":-1,"motif":"","motif_pos":-1,"best_pos":1,"similarity":0.293},{"voice":6,"pitch":80,"start":61.875,"duration":0.125,"velocity":80,"measure":31,"beat":4.75,"subject_pos":-1,"motif":"","motif_pos":-1,"best_pos":3,"similarity":0.443},{"voice":2,"pitch":74,"start":61.9375,"duration":0.0625,"velocity":65,"measure":31,"beat":4.875,"subject_pos":-1,"motif":"","motif_pos":-1,"best_pos":2,"similarity":0.164},{"voice":2,"pitch":50,"start":62.0,"duration":0.0625,"velocity":65,"measure":32,"beat":1.0,"subject_pos":-1,"motif":"","motif_pos":-1,"best_pos":5,"similarity":0.157},{"voice":3,"pitch":28,"start":62.0,"duration":0.25,"velocity":100,"measure":32,"beat":1.0,"subject_pos":-1,"motif":"","motif_pos":-1,"best_pos":3,"similarity":0.268},{"voice":6,"pitch":80,"start":62.0,"duration":0.125,"velocity":55,"measure":32,"beat":1.0,"subject_pos":-1,"motif":"","motif_pos":-1,"best_pos":4,"similarity":0.514},{"voice":7,"pitch":36,"start":62.0,"duration":0.25,"velocity":110,"measure":32,"beat":1.0,"subject_pos":-1,"motif":"","motif_pos":-1,"best_pos":4,"similarity":0.389},{"voice":2,"pitch":53,"start":62.0625,"duration":0.0625,"velocity":65,"measure":32,"beat":1.125,"subject_pos":-1,"motif":"","motif_pos":-1,"best_pos":6,"similarity":0.171},{"voice":2,"pitch":57,"start":62.125,"duration":0.0625,"velocity":65,"measure":32,"beat":1.25,"subject_pos":-1,"motif":"","motif_pos":-1,"best_pos":0,"similarity":0.286},{"voice":6,"pitch":80,"start":62.125,"duration":0.125,"velocity":80,"measure":32,"beat":1.25,"subject_pos":-1,"motif":"","motif_pos":-1,"best_pos":5,"similarity":0.55},{"voice":2,"pitch":62,"start":62.1875,"duration":0.0625,"velocity":65,"measure":32,"beat":1.375,"subject_pos":-1,"motif":"","motif_pos":-1,"best_pos":1,"similarity":0.286},{"voice":2,"pitch":65,"start":62.25,"duration":0.0625,"velocity":65,"measure":32,"beat":1.5,"subject_pos":-1,"motif":"","motif_pos":-1,"best_pos":6,"similarity":0.186},{"voice":5,"pitch":62,"start":62.25,"duration":0.25,"velocity":80,"measure":32,"beat":1.5,"subject_pos":-1,"motif":"","motif_pos":-1,"best_pos":5,"similarity":0.171},{"voice":5,"pitch":65,"start":62.25,"duration":0.25,"velocity":80,"measure":32,"beat":1.5,"subject_pos":-1,"motif":"","motif_pos":-1,"best_pos":6,"similarity":0.179},{"voice":5,"pitch":69,"start":62.25,"duration":0.25,"velocity":80,"measure":32,"beat":1.5,"subject_pos":-1,"motif":"","motif_pos":-1,"best_pos":1,"similarity":0.171},{"voice":6,"pitch":82,"start":62.25,"duration":0.125,"velocity":100,"measure":32,"beat":1.5,"subject_pos":-1,"motif":"","motif_pos":-1,"best_pos":6,"similarity":0.421},{"voice":2,"pitch":69,"start":62.3125,"duration":0.0625,"velocity":65,"measure":32,"beat":1.625,"subject_pos":-1,"motif":"","motif_pos":-1,"best_pos":0,"similarity":0.286},{"voice":2,"pitch":74,"start":62.375,"duration":0.0625,"velocity":65,"measure":32,"beat":1.75,"subject_pos":-1,"motif":"","motif_pos":-1,"best_pos":1,"similarity":0.286},{"voice":6,"pitch":80,"start":62.375,"duration":0.125,"velocity":80,"measure":32,"beat":1.75,"subject_pos":-1,"motif":"","motif_pos":-1,"best_pos":3,"similarity":0.443},{"voice":2,"pitch":77,"start":62.4375,"duration":0.0625,"velocity":65,"measure":32,"beat":1.875,"subject_pos":-1,"motif":"","motif_pos":-1,"best_pos":6,"similarity":0.186},{"voice":2,"pitch":81,"start":62.5,"duration":0.0625,"velocity":65,"measure":32,"beat":2.0,"subject_pos":-1,"motif":"","motif_pos":-1,"best_pos":1,"similarity":0.143},{"voice":3,"pitch":28,"start":62.5,"duration":0.25,"velocity":100,"measure":32,"beat":2.0,"subject_pos":-1,"motif":"","motif_pos":-1,"best_pos":4,"similarity":0.375},{"voice":6,"pitch":80,"start":62.5,"duration":0.125,"velocity":55,"measure":32,"beat":2.0,"subject_pos":-1,"motif":"","motif_pos":-1,"best_pos":4,"similarity":0.514},{"voice":7,"pitch":36,"start":62.5,"duration":0.25,"velocity":110,"measure":32,"beat":2.0,"subject_pos":-1,"motif":"","motif_pos":-1,"best_pos":4,"similarity":0.389},{"voice":8,"pitch":74,"start":62.5,"duration":0.25,"velocity":95,"measure":32,"beat":2.0,"subject_pos":-1,"motif":"","motif_pos":-1,"best_pos":4,"similarity":0.389},{"voice":2,"pitch":50,"start":62.5625,"duration":0.0625,"velocity":65,"measure":32,"beat":2.125,"subject_pos":-1,"motif":"","motif_pos":-1,"best_pos":5,"similarity":0.157},{"voice":2,"pitch":53,"start":62.625,"duration":0.0625,"velocity":65,"measure":32,"beat":2.25,"subject_pos":-1,"motif":"","motif_pos":-1,"best_pos":6,"similarity":0.171},{"voice":6,"pitch":80,"start":62.625,"duration":0.125,"velocity":80,"measure":32,"beat":2.25,"subject_pos":-1,"motif":"","motif_pos":-1,"best_pos":5,"similarity":0.55},{"voice":2,"pitch":57,"start":62.6875,"duration":0.0625,"velocity":65,"measure":32,"beat":2.375,"subject_pos":-1,"motif":"","motif_pos":-1,"best_pos":0,"similarity":0.286},{"voice":2,"pitch":62,"start":62.75,"duration":0.0625,"velocity":65,"measure":32,"beat":2.5,"subject_pos":-1,"motif":"","motif_pos":-1,"best_pos":1,"similarity":0.286},{"voice":5,"pitch":62,"start":62.75,"duration":0.25,"velocity":80,"measure":32,"beat":2.5,"subject_pos":-1,"motif":"","motif_pos":-1,"best_pos":5,"similarity":0.157},{"voice":5,"pitch":65,"start":62.75,"duration":0.25,"velocity":80,"measure":32,"beat":2.5,"subject_pos":-1,"motif":"","motif_pos":-1,"best_pos":6,"similarity":0.171},{"voice":5,"pitch":69,"start":62.75,"duration":0.25,"velocity":80,"measure":32,"beat":2.5,"subject_pos":-1,"motif":"","motif_pos":-1,"best_pos":1,"similarity":0.171},{"voice":6,"pitch":82,"start":62.75,"duration":0.125,"velocity":100,"measure":32,"beat":2.5,"subject_pos":-1,"motif":"","motif_pos":-1,"best_pos":6,"similarity":0.421},{"voice":2,"pitch":65,"start":62.8125,"duration":0.0625,"velocity":65,"measure":32,"beat":2.625,"subject_pos":-1,"motif":"","motif_pos":-1,"best_pos":6,"similarity":0.186},{"voice":2,"pitch":69,"start":62.875,"duration":0.0625,"velocity":65,"measure":32,"beat":2.75,"subject_pos":-1,"motif":"","motif_pos":-1,"best_pos":0,"similarity":0.286},{"voice":6,"pitch":80,"start":62.875,"duration":0.125,"velocity":80,"measure":32,"beat":2.75,"subject_pos":-1,"motif":"","motif_pos":-1,"best_pos":3,"similarity":0.443},{"voice":2,"pitch":74,"start":62.9375,"duration":0.0625,"velocity":65,"measure":32,"beat":2.875,"subject_pos":-1,"motif":"","motif_pos":-1,"best_pos":1,"similarity":0.286},{"voice":2,"pitch":77,"start":63.0,"duration":0.0625,"velocity":65,"measure":32,"beat":3.0,"subject_pos":-1,"motif":"","motif_pos":-1,"best_pos":6,"similarity":0.186},{"voice":3,"pitch":28,"start":63.0,"duration":0.25,"velocity":100,"measure":32,"beat":3.0,"subject_pos":-1,"motif":"","motif_pos":-1,"best_pos":4,"similarity":0.361},{"voice":6,"pitch":80,"start":63.0,"duration":0.125,"velocity":55,"measure":32,"beat":3.0,"subject_pos":-1,"motif":"","motif_pos":-1,"best_pos":4,"similarity":0.514},{"voice":7,"pitch":36,"start":63.0,"duration":0.25,"velocity":110,"measure":32,"beat":3.0,"subject_pos":-1,"motif":"","motif_pos":-1,"best_pos":4,"similarity":0.389},{"voice":2,"pitch":81,"start":63.0625,"duration":0.0625,"velocity":65,"measure":32,"beat":3.125,"subject_pos":-1,"motif":"","motif_pos":-1,"best_pos":1,"similarity":0.143},{"voice":2,"pitch":50,"start":63.125,"duration":0.0625,"velocity":65,"measure":32,"beat":3.25,"subject_pos":-1,"motif":"","motif_pos":-1,"best_pos":5,"similarity":0.157},{"voice":6,"pitch":80,"start":63.125,"duration":0.125,"velocity":80,"measure":32,"beat":3.25,"subject_pos":-1,"motif":"","motif_pos":-1,"best_pos":5,"similarity":0.55},{"voice":2,"pitch":53,"start":63.1875,"duration":0.0625,"velocity":65,"measure":32,"beat":3.375,"subject_pos":-1,"motif":"","motif_pos":-1,"best_pos":6,"similarity":0.171},{"voice":2,"pitch":57,"start":63.25,"duration":0.0625,"velocity":65,"measure":32,"beat":3.5,"subject_pos":-1,"motif":"","motif_pos":-1,"best_pos":0,"similarity":0.286},{"voice":5,"pitch":62,"start":63.25,"duration":0.25,"velocity":80,"measure":32,"beat":3.5,"subject_pos":-1,"motif":"","motif_pos":-1,"best_pos":5,"similarity":0.157},{"voice":5,"pitch":65,"start":63.25,"duration":0.25,"velocity":80,"measure":32,"beat":3.5,"subject_pos":-1,"motif":"","motif_pos":-1,"best_pos":6,"similarity":0.171},{"voice":5,"pitch":69,"start":63.25,"duration":0.25,"velocity":80,"measure":32,"beat":3.5,"subject_pos":-1,"motif":"","motif_pos":-1,"best_pos":1,"similarity":0.171},{"voice":6,"pitch":82,"start":63.25,"duration":0.125,"velocity":100,"measure":32,"beat":3.5,"subject_pos":-1,"motif":"","motif_pos":-1,"best_pos":6,"similarity":0.421},{"voice":2,"pitch":62,"start":63.3125,"duration":0.0625,"velocity":65,"measure":32,"beat":3.625,"subject_pos":-1,"motif":"","motif_pos":-1,"best_pos":1,"similarity":0.286},{"voice":2,"pitch":65,"start":63.375,"duration":0.0625,"velocity":65,"measure":32,"beat":3.75,"subject_pos":-1,"motif":"","motif_pos":-1,"best_pos":6,"similarity":0.186},{"voice":6,"pitch":80,"start":63.375,"duration":0.125,"velocity":80,"measure":32,"beat":3.75,"subject_pos":-1,"motif":"","motif_pos":-1,"best_pos":3,"similarity":0.443},{"voice":2,"pitch":69,"start":63.4375,"duration":0.0625,"velocity":65,"measure":32,"beat":3.875,"subject_pos":-1,"motif":"","motif_pos":-1,"best_pos":0,"similarity":0.286},{"voice":2,"pitch":74,"start":63.5,"duration":0.0625,"velocity":65,"measure":32,"beat":4.0,"subject_pos":-1,"motif":"","motif_pos":-1,"best_pos":1,"similarity":0.286},{"voice":3,"pitch":28,"start":63.5,"duration":0.25,"velocity":100,"measure":32,"beat":4.0,"subject_pos":-1,"motif":"","motif_pos":-1,"best_pos":4,"similarity":0.425},{"voice":6,"pitch":80,"start":63.5,"duration":0.125,"velocity":55,"measure":32,"beat":4.0,"subject_pos":-1,"motif":"","motif_pos":-1,"best_pos":4,"similarity":0.514},{"voice":7,"pitch":36,"start":63.5,"duration":0.25,"velocity":110,"measure":32,"beat":4.0,"subject_pos":-1,"motif":"","motif_pos":-1,"best_pos":4,"similarity":0.389},{"voice":8,"pitch":74,"start":63.5,"duration":0.25,"velocity":95,"measure":32,"beat":4.0,"subject_pos":-1,"motif":"","motif_pos":-1,"best_pos":4,"similarity":0.389},{"voice":2,"pitch":77,"start":63.5625,"duration":0.0625,"velocity":65,"measure":32,"beat":4.125,"subject_pos":-1,"motif":"","motif_pos":-1,"best_pos":6,"similarity":0.186},{"voice":2,"pitch":81,"start":63.625,"duration":0.0625,"velocity":65,"measure":32,"beat":4.25,"subject_pos":-1,"motif":"","motif_pos":-1,"best_pos":1,"similarity":0.143},{"voice":6,"pitch":80,"start":63.625,"duration":0.125,"velocity":80,"measure":32,"beat":4.25,"subject_pos":-1,"motif":"","motif_pos":-1,"best_pos":5,"similarity":0.55},{"voice":2,"pitch":50,"start":63.6875,"duration":0.0625,"velocity":65,"measure":32,"beat":4.375,"subject_pos":-1,"motif":"","motif_pos":-1,"best_pos":5,"similarity":0.157},{"voice":2,"pitch":53,"start":63.75,"duration":0.0625,"velocity":65,"measure":32,"beat":4.5,"subject_pos":-1,"motif":"","motif_pos":-1,"best_pos":6,"similarity":0.171},{"voice":5,"pitch":62,"start":63.75,"duration":0.25,"velocity":80,"measure":32,"beat":4.5,"subject_pos":-1,"motif":"","motif_pos":-1,"best_pos":5,"similarity":0.157},{"voice":5,"pitch":65,"start":63.75,"duration":0.25,"velocity":80,"measure":32,"beat":4.5,"subject_pos":-1,"motif":"","motif_pos":-1,"best_pos":5,"similarity":0.214},{"voice":5,"pitch":69,"start":63.75,"duration":0.25,"velocity":80,"measure":32,"beat":4.5,"subject_pos":-1,"motif":"","motif_pos":-1,"best_pos":6,"similarity":0.25},{"voice":6,"pitch":82,"start":63.75,"duration":0.125,"velocity":100,"measure":32,"beat":4.5,"subject_pos":-1,"motif":"","motif_pos":-1,"best_pos":6,"similarity":0.421},{"voice":2,"pitch":57,"start":63.8125,"duration":0.0625,"velocity":65,"measure":32,"beat":4.625,"subject_pos":-1,"motif":"","motif_pos":-1,"best_pos":0,"similarity":0.357},{"voice":2,"pitch":62,"start":63.875,"duration":0.0625,"velocity":65,"measure":32,"beat":4.75,"subject_pos":-1,"motif":"","motif_pos":-1,"best_pos":1,"similarity":0.429},{"voice":6,"pitch":80,"start":63.875,"duration":0.125,"velocity":80,"measure":32,"beat":4.75,"subject_pos":-1,"motif":"","motif_pos":-1,"best_pos":2,"similarity":0.436},{"voice":2,"pitch":65,"start":63.9375,"duration":0.0625,"velocity":65,"measure":32,"beat":4.875,"subject_pos":-1,"motif":"","motif_pos":-1,"best_pos":2,"similarity":0.436},{"voice":1,"pitch":62,"start":64.0,"duration":2.0,"velocity":55,"measure":33,"beat":1.0,"subject_pos":0,"motif":"subject","motif_pos":0,"best_pos":0,"similarity":1.0},{"voice":2,"pitch":62,"start":64.0,"duration":0.5,"velocity":40,"measure":33,"beat":1.0,"subject_pos":-1,"motif":"","motif_pos":-1,"best_pos":3,"similarity":0.371},{"voice":3,"pitch":28,"start":64.0,"duration":1.0,"velocity":80,"measure":33,"beat":1.0,"subject_pos":-1,"motif":"","motif_pos":-1,"best_pos":5,"similarity":0.436},{"voice":6,"pitch":80,"start":64.0,"duration":0.5,"velocity":50,"measure":33,"beat":1.0,"subject_pos":-1,"motif":"","motif_pos":-1,"best_pos":4,"similarity":0.436},{"voice":7,"pitch":36,"start":64.0,"duration":0.25,"velocity":90,"measure":33,"beat":1.0,"subject_pos":-1,"motif":"","motif_pos":-1,"best_pos":4,"similarity":0.389},{"voice":10,"pitch":50,"start":64.0,"duration":0.75,"velocity":80,"measure":33,"beat":1.0,"subject_pos":0,"motif":"subject","motif_pos":0,"best_pos":0,"similarity":1.0},{"voice":2,"pitch":69,"start":64.5,"duration":0.5,"velocity":40,"measure":33,"beat":2.0,"subject_pos":-1,"motif":"","motif_pos":-1,"best_pos":0,"similarity":0.393},{"voice":6,"pitch":80,"start":64.5,"duration":0.5,"velocity":50,"measure":33,"beat":2.0,"subject_pos":-1,"motif":"","motif_pos":-1,"best_pos":4,"similarity":0.443},{"voice":10,"pitch":57,"start":64.75,"duration":0.25,"velocity":80,"measure":33,"beat":2.5,"subject_pos":1,"motif":"subject","motif_pos":1,"best_pos":1,"similarity":1.0},{"voice":2,"pitch":74,"start":65.0,"duration":0.5,"velocity":40,"measure":33,"beat":3.0,"subject_pos":-1,"motif":"","motif_pos":-1,"best_pos":1,"similarity":0.5},{"voice":6,"pitch":80,"start":65.0,"duration":0.5,"velocity":50,"measure":33,"beat":3.0,"subject_pos":-1,"motif":"","motif_pos":-1,"best_pos":4,"similarity":0.389},{"voice":8,"pitch":74,"start":65.0,"duration":0.25,"velocity":75,"measure":33,"beat":3.0,"subject_pos":-1,"motif":"","motif_pos":-1,"best_pos":4,"similarity":0.389},{"voice":10,"pitch":53,"start":65.0,"duration":0.75,"velocity":80,"measure":33,"beat":3.0,"subject_pos":2,"motif":"subject","motif_pos":2,"best_pos":2,"similarity":1.0},{"voice":7,"pitch":36,"start":65.25,"duration":0.25,"velocity":70,"measure":33,"beat":3.5,"subject_pos":-1,"motif":"","motif_pos":-1,"best_pos":4,"similarity":0.389},{"voice":2,"pitch":69,"start":65.5,"duration":0.5,"velocity":40,"measure":33,"beat":4.0,"subject_pos":-1,"motif":"","motif_pos":-1,"best_pos":2,"similarity":0.436},{"voice":6,"pitch":80,"start":65.5,"duration":0.5,"velocity":50,"measure":33,"beat":4.0,"subject_pos":-1,"motif":"","motif_pos":-1,"best_pos":4,"similarity":0.389},{"voice":10,"pitch":50,"start":65.75,"duration":0.25,"velocity":80,"measure":33,"beat":4.5,"subject_pos":3,"motif":"subject","motif_pos":3,"best_pos":3,"similarity":1.0},{"voice":1,"pitch":69,"start":66.0,"duration":2.0,"velocity":55,"measure":34,"beat":1.0,"subject_pos":1,"motif":"subject","motif_pos":1,"best_pos":1,"similarity":1.0},{"voice":2,"pitch":65,"start":66.0,"duration":0.5,"velocity":40,"measure":34,"beat":1.0,"subject_pos":-1,"motif":"","motif_pos":-1,"best_pos":0,"similarity":0.304},{"voice":3,"pitch":31,"start":66.0,"duration":1.0,"velocity":80,"measure":34,"beat":1.0,"subject_pos":-1,"motif":"","motif_pos":-1,"best_pos":5,"similarity":0.507},{"voice":6,"pitch":80,"start":66.0,"duration":0.5,"velocity":50,"measure":34,"beat":1.0,"subject_pos":-1,"motif":"","motif_pos":-1,"best_pos":4,"similarity":0.389},{"voice":7,"pitch":36,"start":66.0,"duration":0.25,"velocity":90,"measure":34,"beat":1.0,"subject_pos":-1,"motif":"","motif_pos":-1,"best_pos":4,"similarity":0.389},{"voice":10,"pitch":49,"start":66.0,"duration":1.0,"velocity":80,"measure":34,"beat":1.0,"subject_pos":4,"motif":"subject","motif_pos":4,"best_pos":4,"similarity":1.0},{"voice":2,"pitch":72,"start":66.5,"duration":0.5,"velocity":40,"measure":34,"beat":2.0,"subject_pos":-1,"motif":"","motif_pos":-1,"best_pos":0,"similarity":0.375},{"voice":6,"pitch":80,"start":66.5,"duration":0.5,"velocity":50,"measure":34,"beat":2.0,"subject_pos":-1,"motif":"","motif_pos":-1,"best_pos":4,"similarity":0.389},{"voice":2,"pitch":77,"start":67.0,"duration":0.5,"velocity":40,"measure":34,"beat":3.0,"subject_pos":-1,"motif":"","motif_pos":-1,"best_pos":1,"similarity":0.464},{"voice":6,"pitch":80,"start":67.0,"duration":0.5,"velocity":50,"measure":34,"beat":3.0,"subject_pos":-1,"motif":"","motif_pos":-1,"best_pos":4,"similarity":0.389},{"voice":8,"pitch":74,"start":67.0,"duration":0.25,"velocity":75,"measure":34,"beat":3.0,"subject_pos":-1,"motif":"","motif_pos":-1,"best_pos":4,"similarity":0.389},{"voice":10,"pitch":50,"start":67.0,"duration":0.25,"velocity":80,"measure":34,"beat":3.0,"subject_pos":5,"motif":"subject","motif_pos":5,"best_pos":5,"similarity":1.0},{"voice":7,"pitch":36,"start":67.25,"duration":0.25,"velocity":70,"measure":34,"beat":3.5,"subject_pos":-1,"motif":"","motif_pos":-1,"best_pos":4,"similarity":0.389},{"voice":10,"pitch":52,"start":67.25,"duration":0.25,"velocity":80,"measure":34,"beat":3.5,"subject_pos":6,"motif":"subject","motif_pos":6,"best_pos":6,"similarity":1.0},{"voice":2,"pitch":72,"start":67.5,"duration":0.5,"velocity":40,"measure":34,"beat":4.0,"subject_pos":-1,"motif":"","motif_pos":-1,"best_pos":2,"similarity":0.364},{"voice":6,"pitch":80,"start":67.5,"duration":0.5,"velocity":50,"measure":34,"beat":4.0,"subject_pos":-1,"motif":"","motif_pos":-1,"best_pos":4,"similarity":0.389},{"voice":10,"pitch":53,"start":67.5,"duration":0.75,"velocity":80,"measure":34,"beat":4.0,"subject_pos":7,"motif":"subject","motif_pos":7,"best_pos":7,"similarity":1.0},{"voice":1,"pitch":65,"start":68.0,"duration":2.0,"velocity":55,"measure":35,"beat":1.0,"subject_pos":2,"motif":"subject","motif_pos":2,"best_pos":2,"similarity":1.0},{"voice":2,"pitch":67,"start":68.0,"duration":0.5,"velocity":40,"measure":35,"beat":1.0,"subject_pos":-1,"motif":"","motif_pos":-1,"best_pos":0,"similarity":0.304},{"voice":3,"pitch":33,"start":68.0,"duration":1.0,"velocity":80,"measure":35,"beat":1.0,"subject_pos":-1,"motif":"","motif_pos":-1,"best_pos":6,"similarity":0.5},{"voice":6,"pitch":80,"start":68.0,"duration":0.5,"velocity":50,"measure":35,"beat":1.0,"subject_pos":-1,"motif":"","motif_pos":-1,"best_pos":4,"similarity":0.389},{"voice":7,"pitch":36,"start":68.0,"duration":0.25,"velocity":90,"measure":35,"beat":1.0,"subject_pos":-1,"motif":"","motif_pos":-1,"best_pos":4,"similarity":0.389},{"voice":2,"pitch":74,"start":68.5,"duration":0.5,"velocity":40,"measure":35,"beat":2.0,"subject_pos":-1,"motif":"","motif_pos":-1,"best_pos":0,"similarity":0.375},{"voice":6,"pitch":80,"start":68.5,"duration":0.5,"velocity":50,"measure":35,"beat":2.0,"subject_pos":-1,"motif":"","motif_pos":-1,"best_pos":4,"similarity":0.389},{"voice":2,"pitch":79,"start":69.0,"duration":0.5,"velocity":40,"measure":35,"beat":3.0,"subject_pos":-1,"motif":"","motif_pos":-1,"best_pos":1,"similarity":0.464},{"voice":6,"pitch":80,"start":69.0,"duration":0.5,"velocity":50,"measure":35,"beat":3.0,"subject_pos":-1,"motif":"","motif_pos":-1,"best_pos":4,"similarity":0.389},{"voice":8,"pitch":74,"start":69.0,"duration":0.25,"velocity":75,"measure":35,"beat":3.0,"subject_pos":-1,"motif":"","motif_pos":-1,"best_pos":4,"similarity":0.389},{"voice":7,"pitch":36,"start":69.25,"duration":0.25,"velocity":70,"measure":35,"beat":3.5,"subject_pos":-1,"motif":"","motif_pos":-1,"best_pos":4,"similarity":0.389},{"voice":2,"pitch":74,"start":69.5,"duration":0.5,"velocity":40,"measure":35,"beat":4.0,"subject_pos":-1,"motif":"","motif_pos":-1,"best_pos":2,"similarity":0.364},{"voice":6,"pitch":80,"start":69.5,"duration":0.5,"velocity":50,"measure":35,"beat":4.0,"subject_pos":-1,"motif":"","motif_pos":-1,"best_pos":4,"similarity":0.389},{"voice":1,"pitch":62,"start":70.0,"duration":2.0,"velocity":55,"measure":36,"beat":1.0,"subject_pos":3,"motif":"subject","motif_pos":3,"best_pos":3,"similarity":1.0},{"voice":2,"pitch":69,"start":70.0,"duration":0.5,"velocity":40,"measure":36,"beat":1.0,"subject_pos":-1,"motif":"","motif_pos":-1,"best_pos":0,"similarity":0.304},{"voice":3,"pitch":35,"start":70.0,"duration":1.0,"velocity":80,"measure":36,"beat":1.0,"subject_pos":-1,"motif":"","motif_pos":-1,"best_pos":6,"similarity":0.364},{"voice":6,"pitch":80,"start":70.0,"duration":0.5,"velocity":50,"measure":36,"beat":1.0,"subject_pos":-1,"motif":"","motif_pos":-1,"best_pos":4,"similarity":0.389},{"voice":7,"pitch":36,"start":70.0,"duration":0.25,"velocity":90,"measure":36,"beat":1.0,"subject_pos":-1,"motif":"","motif_pos":-1,"best_pos":4,"similarity":0.389},{"voice":10,"pitch":57,"start":70.25,"duration":0.75,"velocity":75,"measure":36,"beat":1.5,"subject_pos":0,"motif":"subject_inv","motif_pos":0,"best_pos":0,"similarity":1.0},{"voice":2,"pitch":76,"start":70.5,"duration":0.5,"velocity":40,"measure":36,"beat":2.0,"subject_pos":-1,"motif":"","motif_pos":-1,"best_pos":0,"similarity":0.357},{"voice":6,"pitch":80,"start":70.5,"duration":0.5,"velocity":50,"measure":36,"beat":2.0,"subject_pos":-1,"motif":"","motif_pos":-1,"best_pos":4,"similarity":0.389},{"voice":2,"pitch":81,"start":71.0,"duration":0.5,"velocity":40,"measure":36,"beat":3.0,"subject_pos":-1,"motif":"","motif_pos":-1,"best_pos":1,"similarity":0.429},{"voice":6,"pitch":80,"start":71.0,"duration":0.5,"velocity":50,"measure":36,"beat":3.0,"subject_pos":-1,"motif":"","motif_pos":-1,"best_pos":4,"similarity":0.389},{"voice":8,"pitch":74,"start":71.0,"duration":0.25,"velocity":75,"measure":36,"beat":3.0,"subject_pos":-1,"motif":"","motif_pos":-1,"best_pos":4,"similarity":0.389},{"voice":10,"pitch":50,"start":71.0,"duration":0.25,"velocity":75,"measure":36,"beat":3.0,"subject_pos":1,"motif":"subject_inv","motif_pos":1,"best_pos":1,"similarity":1.0},{"voice":7,"pitch":36,"start":71.25,"duration":0.25,"velocity":70,"measure":36,"beat":3.5,"subject_pos":-1,"motif":"","motif_pos":-1,"best_pos":4,"similarity":0.389},{"voice":10,"pitch":54,"start":71.25,"duration":0.75,"velocity":75,"measure":36,"beat":3.5,"subject_pos":2,"motif":"subject_inv","motif_pos":2,"best_pos":2,"similarity":1.0},{"voice":2,"pitch":76,"start":71.5,"duration":0.5,"velocity":40,"measure":36,"beat":4.0,"subject_pos":-1,"motif":"","motif_pos":-1,"best_pos":2,"similarity":0.293},{"voice":6,"pitch":80,"start":71.5,"duration":0.5,"velocity":50,"measure":36,"beat":4.0,"subject_pos":-1,"motif":"","motif_pos":-1,"best_pos":4,"similarity":0.389},{"voice":1,"pitch":61,"start":72.0,"duration":2.0,"velocity":55,"measure":37,"beat":1.0,"subject_pos":4,"motif":"subject","motif_pos":4,"best_pos":4,"similarity":1.0},{"voice":2,"pitch":62,"start":72.0,"duration":0.5,"velocity":40,"measure":37,"beat":1.0,"subject_pos":-1,"motif":"","motif_pos":-1,"best_pos":0,"similarity":0.304},{"voice":3,"pitch":28,"start":72.0,"duration":1.0,"velocity":80,"measure":37,"beat":1.0,"subject_pos":-1,"motif":"","motif_pos":-1,"best_pos":0,"similarity":0.229},{"voice":4,"pitch":69,"start":72.0,"duration":0.5,"velocity":65,"measure":37,"beat":1.0,"subject_pos":0,"motif":"subject","motif_pos":0,"best_pos":0,"similarity":1.0},{"voice":6,"pitch":80,"start":72.0,"duration":0.5,"velocity":50,"measure":37,"beat":1.0,"subject_pos":-1,"motif":"","motif_pos":-1,"best_pos":4,"similarity":0.389},{"voice":7,"pitch":36,"start":72.0,"duration":0.25,"velocity":90,"measure":37,"beat":1.0,"subject_pos":-1,"motif":"","motif_pos":-1,"best_pos":4,"similarity":0.389},{"voice":10,"pitch":57,"start":72.0,"duration":0.25,"velocity":75,"measure":37,"beat":1.0,"subject_pos":3,"motif":"subject_inv","motif_pos":3,"best_pos":3,"similarity":1.0},{"voice":10,"pitch":58,"start":72.25,"duration":1.0,"velocity":75,"measure":37,"beat":1.5,"subject_pos":4,"motif":"subject_inv","motif_pos":4,"best_pos":4,"similarity":1.0},{"voice":2,"pitch":69,"start":72.5,"duration":0.5,"velocity":40,"measure":37,"beat":2.0,"subject_pos":-1,"motif":"","motif_pos":-1,"best_pos":0,"similarity":0.364},{"voice":4,"pitch":74,"start":72.5,"duration":0.5,"velocity":65,"measure":37,"beat":2.0,"subject_pos":1,"motif":"subject","motif_pos":1,"best_pos":1,"similarity":1.0},{"voice":6,"pitch":80,"start":72.5,"duration":0.5,"velocity":50,"measure":37,"beat":2.0,"subject_pos":-1,"motif":"","motif_pos":-1,"best_pos":4,"similarity":0.389},{"voice":2,"pitch":74,"start":73.0,"duration":0.5,"velocity":40,"measure":37,"beat":3.0,"subject_pos":-1,"motif":"","motif_pos":-1,"best_pos":1,"similarity":0.443},{"voice":4,"pitch":72,"start":73.0,"duration":0.5,"velocity":65,"measure":37,"beat":3.0,"subject_pos":2,"motif":"subject","motif_pos":2,"best_pos":2,"similarity":1.0},{"voice":6,"pitch":80,"start":73.0,"duration":0.5,"velocity":50,"measure":37,"beat":3.0,"subject_pos":-1,"motif":"","motif_pos":-1,"best_pos":4,"similarity":0.389},{"voice":8,"pitch":74,"start":73.0,"duration":0.25,"velocity":75,"measure":37,"beat":3.0,"subject_pos":-1,"motif":"","motif_pos":-1,"best_pos":4,"similarity":0.389},{"voice":7,"pitch":36,"start":73.25,"duration":0.25,"velocity":70,"measure":37,"beat":3.5,"subject_pos":-1,"motif":"","motif_pos":-1,"best_pos":4,"similarity":0.389},{"voice":10,"pitch":57,"start":73.25,"duration":0.25,"velocity":75,"measure":37,"beat":3.5,"subject_pos":5,"motif":"subject_inv","motif_pos":5,"best_pos":5,"similarity":1.0},{"voice":2,"pitch":69,"start":73.5,"duration":0.5,"velocity":40,"measure":37,"beat":4.0,"subject_pos":-1,"motif":"","motif_pos":-1,"best_pos":2,"similarity":0.321},{"voice":4,"pitch":69,"start":73.5,"duration":0.5,"velocity":65,"measure":37,"beat":4.0,"subject_pos":3,"motif":"subject","motif_pos":3,"best_pos":3,"similarity":1.0},{"voice":6,"pitch":80,"start":73.5,"duration":0.5,"velocity":50,"measure":37,"beat":4.0,"subject_pos":-1,"motif":"","motif_pos":-1,"best_pos":4,"similarity":0.389},{"voice":10,"pitch":55,"start":73.5,"duration":0.25,"velocity":75,"measure":37,"beat":4.0,"subject_pos":6,"motif":"subject_inv","motif_pos":6,"best_pos":6,"similarity":1.0},{"voice":10,"pitch":54,"start":73.75,"duration":0.75,"velocity":75,"measure":37,"beat":4.5,"subject_pos":7,"motif":"subject_inv","motif_pos":7,"best_pos":7,"similarity":1.0},{"voice":1,"pitch":62,"start":74.0,"duration":1.0,"velocity":55,"measure":38,"beat":1.0,"subject_pos":5,"motif":"subject","motif_pos":5,"best_pos":5,"similarity":1.0},{"voice":2,"pitch":70,"start":74.0,"duration":0.5,"velocity":40,"measure":38,"beat":1.0,"subject_pos":-1,"motif":"","motif_pos":-1,"best_pos":5,"similarity":0.314},{"voice":3,"pitch":36,"start":74.0,"duration":1.0,"velocity":80,"measure":38,"beat":1.0,"subject_pos":-1,"motif":"","motif_pos":-1,"best_pos":1,"similarity":0.314},{"voice":4,"pitch":68,"start":74.0,"duration":0.5,"velocity":65,"measure":38,"beat":1.0,"subject_pos":4,"motif":"subject","motif_pos":4,"best_pos":4,"similarity":1.0},{"voice":6,"pitch":80,"start":74.0,"duration":0.5,"velocity":50,"measure":38,"beat":1.0,"subject_pos":-1,"motif":"","motif_pos":-1,"best_pos":4,"similarity":0.389},{"voice":7,"pitch":36,"start":74.0,"duration":0.25,"velocity":90,"measure":38,"beat":1.0,"subject_pos":-1,"motif":"","motif_pos":-1,"best_pos":4,"similarity":0.389},{"voice":2,"pitch":77,"start":74.5,"duration":0.5,"velocity":40,"measure":38,"beat":2.0,"subject_pos":-1,"motif":"","motif_pos":-1,"best_pos":0,"similarity":0.357},{"voice":4,"pitch":69,"start":74.5,"duration":0.25,"velocity":65,"measure":38,"beat":2.0,"subject_pos":5,"motif":"subject","motif_pos":5,"best_pos":5,"similarity":1.0},{"voice":6,"pitch":80,"start":74.5,"duration":0.5,"velocity":50,"measure":38,"beat":2.0,"subject_pos":-1,"motif":"","motif_pos":-1,"best_pos":4,"similarity":0.389},{"voice":4,"pitch":71,"start":74.75,"duration":0.25,"velocity":65,"measure":38,"beat":2.5,"subject_pos":6,"motif":"subject","motif_pos":6,"best_pos":6,"similarity":1.0},{"voice":1,"pitch":64,"start":75.0,"duration":1.0,"velocity":55,"measure":38,"beat":3.0,"subject_pos":6,"motif":"subject","motif_pos":6,"best_pos":6,"similarity":1.0},{"voice":2,"pitch":82,"start":75.0,"duration":0.5,"velocity":40,"measure":38,"beat":3.0,"subject_pos":-1,"motif":"","motif_pos":-1,"best_pos":1,"similarity":0.429},{"voice":4,"pitch":72,"start":75.0,"duration":0.5,"velocity":65,"measure":38,"beat":3.0,"subject_pos":7,"motif":"subject","motif_pos":7,"best_pos":7,"similarity":1.0},{"voice":6,"pitch":80,"start":75.0,"duration":0.5,"velocity":50,"measure":38,"beat":3.0,"subject_pos":-1,"motif":"","motif_pos":-1,"best_pos":4,"similarity":0.389},{"voice":8,"pitch":74,"start":75.0,"duration":0.25,"velocity":75,"measure":38,"beat":3.0,"subject_pos":-1,"motif":"","motif_pos":-1,"best_pos":4,"similarity":0.389},{"voice":7,"pitch":36,"start":75.25,"duration":0.25,"velocity":70,"measure":38,"beat":3.5,"subject_pos":-1,"motif":"","motif_pos":-1,"best_pos":4,"similarity":0.389},{"voice":2,"pitch":77,"start":75.5,"duration":0.5,"velocity":40,"measure":38,"beat":4.0,"subject_pos":-1,"motif":"","motif_pos":-1,"best_pos":2,"similarity":0.293},{"voice":6,"pitch":80,"start":75.5,"duration":0.5,"velocity":50,"measure":38,"beat":4.0,"subject_pos":-1,"motif":"","motif_pos":-1,"best_pos":4,"similarity":0.389},{"voice":1,"pitch":65,"start":76.0,"duration":2.0,"velocity":55,"measure":39,"beat":1.0,"subject_pos":7,"motif":"subject","motif_pos":7,"best_pos":7,"similarity":1.0},{"voice":2,"pitch":60,"start":76.0,"duration":0.5,"velocity":40,"measure":39,"beat":1.0,"subject_pos":-1,"motif":"","motif_pos":-1,"best_pos":0,"similarity":0.304},{"voice":3,"pitch":38,"start":76.0,"duration":1.0,"velocity":80,"measure":39,"beat":1.0,"subject_pos":-1,"motif":"","motif_pos":-1,"best_pos":2,"similarity":0.393},{"voice":6,"pitch":80,"start":76.0,"duration":0.5,"velocity":50,"measure":39,"beat":1.0,"subject_pos":-1,"motif":"","motif_pos":-1,"best_pos":4,"similarity":0.389},{"voice":7,"pitch":36,"start":76.0,"duration":0.25,"velocity":90,"measure":39,"beat":1.0,"subject_pos":-1,"motif":"","motif_pos":-1,"best_pos":4,"similarity":0.389},{"voice":2,"pitch":67,"start":76.5,"duration":0.5,"velocity":40,"measure":39,"beat":2.0,"subject_pos":-1,"motif":"","motif_pos":-1,"best_pos":0,"similarity":0.357},{"voice":6,"pitch":80,"start":76.5,"duration":0.5,"velocity":50,"measure":39,"beat":2.0,"subject_pos":-1,"motif":"","motif_pos":-1,"best_pos":4,"similarity":0.389},{"voice":2,"pitch":72,"start":77.0,"duration":0.5,"velocity":40,"measure":39,"beat":3.0,"subject_pos":-1,"motif":"","motif_pos":-1,"best_pos":1,"similarity":0.429},{"voice":6,"pitch":80,"start":77.0,"duration":0.5,"velocity":50,"measure":39,"beat":3.0,"subject_pos":-1,"motif":"","motif_pos":-1,"best_pos":4,"similarity":0.389},{"voice":8,"pitch":74,"start":77.0,"duration":0.25,"velocity":75,"measure":39,"beat":3.0,"subject_pos":-1,"motif":"","motif_pos":-1,"best_pos":4,"similarity":0.389},{"voice":7,"pitch":36,"start":77.25,"duration":0.25,"velocity":70,"measure":39,"beat":3.5,"subject_pos":-1,"motif":"","motif_pos":-1,"best_pos":4,"similarity":0.389},{"voice":2,"pitch":67,"start":77.5,"duration":0.5,"velocity":40,"measure":39,"beat":4.0,"subject_pos":-1,"motif":"","motif_pos":-1,"best_pos":2,"similarity":0.293},{"voice":6,"pitch":80,"start":77.5,"duration":0.5,"velocity":50,"measure":39,"beat":4.0,"subject_pos":-1,"motif":"","motif_pos":-1,"best_pos":4,"similarity":0.389},{"voice":2,"pitch":69,"start":78.0,"duration":0.5,"velocity":40,"measure":40,"beat":1.0,"subject_pos":-1,"motif":"","motif_pos":-1,"best_pos":0,"similarity":0.304},{"voice":3,"pitch":35,"start":78.0,"duration":1.0,"velocity":80,"measure":40,"beat":1.0,"subject_pos":-1,"motif":"","motif_pos":-1,"best_pos":3,"similarity":0.386},{"voice":6,"pitch":80,"start":78.0,"duration":0.5,"velocity":50,"measure":40,"beat":1.0,"subject_pos":-1,"motif":"","motif_pos":-1,"best_pos":4,"similarity":0.389},{"voice":7,"pitch":36,"start":78.0,"duration":0.25,"velocity":90,"measure":40,"beat":1.0,"subject_pos":-1,"motif":"","motif_pos":-1,"best_pos":4,"similarity":0.389},{"voice":2,"pitch":76,"start":78.5,"duration":0.5,"velocity":40,"measure":40,"beat":2.0,"subject_pos":-1,"motif":"","motif_pos":-1,"best_pos":0,"similarity":0.357},{"voice":6,"pitch":80,"start":78.5,"duration":0.5,"velocity":50,"measure":40,"beat":2.0,"subject_pos":-1,"motif":"","motif_pos":-1,"best_pos":4,"similarity":0.389},{"voice":2,"pitch":81,"start":79.0,"duration":0.5,"velocity":40,"measure":40,"beat":3.0,"subject_pos":-1,"motif":"","motif_pos":-1,"best_pos":1,"similarity":0.429},{"voice":6,"pitch":80,"start":79.0,"duration":0.5,"velocity":50,"measure":40,"beat":3.0,"subject_pos":-1,"motif":"","motif_pos":-1,"best_pos":4,"similarity":0.389},{"voice":8,"pitch":74,"start":79.0,"duration":0.25,"velocity":75,"measure":40,"beat":3.0,"subject_pos":-1,"motif":"","motif_pos":-1,"best_pos":4,"similarity":0.389},{"voice":7,"pitch":36,"start":79.25,"duration":0.25,"velocity":70,"measure":40,"beat":3.5,"subject_pos":-1,"motif":"","motif_pos":-1,"best_pos":4,"similarity":0.389},{"voice":2,"pitch":76,"start":79.5,"duration":0.5,"velocity":40,"measure":40,"beat":4.0,"subject_pos":-1,"motif":"","motif_pos":-1,"best_pos":2,"similarity":0.293},{"voice":4,"pitch":74,"start":79.5,"duration":0.5,"velocity":60,"measure":40,"beat":4.0,"subject_pos":0,"motif":"subject","motif_pos":0,"best_pos":0,"similarity":1.0},{"voice":6,"pitch":80,"start":79.5,"duration":0.5,"velocity":50,"measure":40,"beat":4.0,"subject_pos":-1,"motif":"","motif_pos":-1,"best_pos":4,"similarity":0.389},{"voice":2,"pitch":62,"start":80.0,"duration":0.5,"velocity":40,"measure":41,"beat":1.0,"subject_pos":-1,"motif":"","motif_pos":-1,"best_pos":0,"similarity":0.304},{"voice":3,"pitch":28,"start":80.0,"duration":1.0,"velocity":80,"measure":41,"beat":1.0,"subject_pos":-1,"motif":"","motif_pos":-1,"best_pos":0,"similarity":0.304},{"voice":4,"pitch":81,"start":80.0,"duration":0.5,"velocity":60,"measure":41,"beat":1.0,"subject_pos":1,"motif":"subject","motif_pos":1,"best_pos":1,"similarity":1.0},{"voice":6,"pitch":80,"start":80.0,"duration":0.5,"velocity":50,"measure":41,"beat":1.0,"subject_pos":-1,"motif":"","motif_pos":-1,"best_pos":4,"similarity":0.389},{"voice":7,"pitch":36,"start":80.0,"duration":0.25,"velocity":90,"measure":41,"beat":1.0,"subject_pos":-1,"motif":"","motif_pos":-1,"best_pos":4,"similarity":0.389},{"voice":2,"pitch":69,"start":80.5,"duration":0.5,"velocity":40,"measure":41,"beat":2.0,"subject_pos":-1,"motif":"","motif_pos":-1,"best_pos":0,"similarity":0.393},{"voice":4,"pitch":77,"start":80.5,"duration":0.5,"velocity":60,"measure":41,"beat":2.0,"subject_pos":2,"motif":"subject","motif_pos":2,"best_pos":2,"similarity":1.0},{"voice":6,"pitch":80,"start":80.5,"duration":0.5,"velocity":50,"measure":41,"beat":2.0,"subject_pos":-1,"motif":"","motif_pos":-1,"best_pos":4,"similarity":0.389},{"voice":2,"pitch":74,"start":81.0,"duration":0.5,"velocity":40,"measure":41,"beat":3.0,"subject_pos":-1,"motif":"","motif_pos":-1,"best_pos":1,"similarity":0.5},{"voice":4,"pitch":74,"start":81.0,"duration":0.5,"velocity":60,"measure":41,"beat":3.0,"subject_pos":3,"motif":"subject","motif_pos":3,"best_pos":3,"similarity":1.0},{"voice":6,"pitch":80,"start":81.0,"duration":0.5,"velocity":50,"measure":41,"beat":3.0,"subject_pos":-1,"motif":"","motif_pos":-1,"best_pos":4,"similarity":0.389},{"voice":8,"pitch":74,"start":81.0,"duration":0.25,"velocity":75,"measure":41,"beat":3.0,"subject_pos":-1,"motif":"","motif_pos":-1,"best_pos":4,"similarity":0.389},{"voice":7,"pitch":36,"start":81.25,"duration":0.25,"velocity":70,"measure":41,"beat":3.5,"subject_pos":-1,"motif":"","motif_pos":-1,"best_pos":4,"similarity":0.389},{"voice":2,"pitch":69,"start":81.5,"duration":0.5,"velocity":40,"measure":41,"beat":4.0,"subject_pos":-1,"motif":"","motif_pos":-1,"best_pos":2,"similarity":0.436},{"voice":4,"pitch":73,"start":81.5,"duration":0.5,"velocity":60,"measure":41,"beat":4.0,"subject_pos":4,"motif":"subject","motif_pos":4,"best_pos":4,"similarity":1.0},{"voice":6,"pitch":80,"start":81.5,"duration":0.5,"velocity":50,"measure":41,"beat":4.0,"subject_pos":-1,"motif":"","motif_pos":-1,"best_pos":4,"similarity":0.389},{"voice":2,"pitch":67,"start":82.0,"duration":0.5,"velocity":40,"measure":42,"beat":1.0,"subject_pos":-1,"motif":"","motif_pos":-1,"best_pos":0,"similarity":0.304},{"voice":3,"pitch":33,"start":82.0,"duration":1.0,"velocity":80,"measure":42,"beat":1.0,"subject_pos":-1,"motif":"","motif_pos":-1,"best_pos":1,"similarity":0.321},{"voice":4,"pitch":74,"start":82.0,"duration":0.25,"velocity":60,"measure":42,"beat":1.0,"subject_pos":5,"motif":"subject","motif_pos":5,"best_pos":5,"similarity":1.0},{"voice":6,"pitch":80,"start":82.0,"duration":0.5,"velocity":50,"measure":42,"beat":1.0,"subject_pos":-1,"motif":"","motif_pos":-1,"best_pos":4,"similarity":0.389},{"voice":7,"pitch":36,"start":82.0,"duration":0.25,"velocity":90,"measure":42,"beat":1.0,"subject_pos":-1,"motif":"","motif_pos":-1,"best_pos":4,"similarity":0.389},{"voice":4,"pitch":76,"start":82.25,"duration":0.25,"velocity":60,"measure":42,"beat":1.5,"subject_pos":6,"motif":"subject","motif_pos":6,"best_pos":6,"similarity":1.0},{"voice":2,"pitch":74,"start":82.5,"duration":0.5,"velocity":40,"measure":42,"beat":2.0,"subject_pos":-1,"motif":"","motif_pos":-1,"best_pos":0,"similarity":0.393},{"voice":4,"pitch":77,"start":82.5,"duration":0.5,"velocity":60,"measure":42,"beat":2.0,"subject_pos":7,"motif":"subject","motif_pos":7,"best_pos":7,"similarity":1.0},{"voice":6,"pitch":80,"start":82.5,"duration":0.5,"velocity":50,"measure":42,"beat":2.0,"subject_pos":-1,"motif":"","motif_pos":-1,"best_pos":4,"similarity":0.389},{"voice":2,"pitch":79,"start":83.0,"duration":0.5,"velocity":40,"measure":42,"beat":3.0,"subject_pos":-1,"motif":"","motif_pos":-1,"best_pos":1,"similarity":0.5},{"voice":6,"pitch":80,"start":83.0,"duration":0.5,"velocity":50,"measure":42,"beat":3.0,"subject_pos":-1,"motif":"","motif_pos":-1,"best_pos":4,"similarity":0.389},{"voice":8,"pitch":74,"start":83.0,"duration":0.25,"velocity":75,"measure":42,"beat":3.0,"subject_pos":-1,"motif":"","motif_pos":-1,"best_pos":4,"similarity":0.389},{"voice":7,"pitch":36,"start":83.25,"duration":0.25,"velocity":70,"measure":42,"beat":3.5,"subject_pos":-1,"motif":"","motif_pos":-1,"best_pos":4,"similarity":0.389},{"voice":2,"pitch":74,"start":83.5,"duration":0.5,"velocity":40,"measure":42,"beat":4.0,"subject_pos":-1,"motif":"","motif_pos":-1,"best_pos":2,"similarity":0.436},{"voice":6,"pitch":80,"start":83.5,"duration":0.5,"velocity":50,"measure":42,"beat":4.0,"subject_pos":-1,"motif":"","motif_pos":-1,"best_pos":4,"similarity":0.389},{"voice":2,"pitch":70,"start":84.0,"duration":0.5,"velocity":40,"measure":43,"beat":1.0,"subject_pos":-1,"motif":"","motif_pos":-1,"best_pos":0,"similarity":0.304},{"voice":3,"pitch":36,"start":84.0,"duration":1.0,"velocity":80,"measure":43,"beat":1.0,"subject_pos":-1,"motif":"","motif_pos":-1,"best_pos":3,"similarity":0.293},{"voice":6,"pitch":80,"start":84.0,"duration":0.5,"velocity":50,"measure":43,"beat":1.0,"subject_pos":-1,"motif":"","motif_pos":-1,"best_pos":4,"similarity":0.389},{"voice":7,"pitch":36,"start":84.0,"duration":0.25,"velocity":90,"measure":43,"beat":1.0,"subject_pos":-1,"motif":"","motif_pos":-1,"best_pos":4,"similarity":0.389},{"voice":2,"pitch":77,"start":84.5,"duration":0.5,"velocity":40,"measure":43,"beat":2.0,"subject_pos":-1,"motif":"","motif_pos":-1,"best_pos":0,"similarity":0.357},{"voice":6,"pitch":80,"start":84.5,"duration":0.5,"velocity":50,"measure":43,"beat":2.0,"subject_pos":-1,"motif":"","motif_pos":-1,"best_pos":4,"similarity":0.389},{"voice":2,"pitch":82,"start":85.0,"duration":0.5,"velocity":40,"measure":43,"beat":3.0,"subject_pos":-1,"motif":"","motif_pos":-1,"best_pos":1,"similarity":0.429},{"voice":6,"pitch":80,"start":85.0,"duration":0.5,"velocity":50,"measure":43,"beat":3.0,"subject_pos":-1,"motif":"","motif_pos":-1,"best_pos":4,"similarity":0.389},{"voice":8,"pitch":74,"start":85.0,"duration":0.25,"velocity":75,"measure":43,"beat":3.0,"subject_pos":-1,"motif":"","motif_pos":-1,"best_pos":4,"similarity":0.389},{"voice":7,"pitch":36,"start":85.25,"duration":0.25,"velocity":70,"measure":43,"beat":3.5,"subject_pos":-1,"motif":"","motif_pos":-1,"best_pos":4,"similarity":0.389},{"voice":2,"pitch":77,"start":85.5,"duration":0.5,"velocity":40,"measure":43,"beat":4.0,"subject_pos":-1,"motif":"","motif_pos":-1,"best_pos":2,"similarity":0.293},{"voice":6,"pitch":80,"start":85.5,"duration":0.5,"velocity":50,"measure":43,"beat":4.0,"subject_pos":-1,"motif":"","motif_pos":-1,"best_pos":4,"similarity":0.389},{"voice":2,"pitch":69,"start":86.0,"duration":0.5,"velocity":40,"measure":44,"beat":1.0,"subject_pos":-1,"motif":"","motif_pos":-1,"best_pos":0,"similarity":0.304},{"voice":3,"pitch":35,"start":86.0,"duration":1.0,"velocity":80,"measure":44,"beat":1.0,"subject_pos":-1,"motif":"","motif_pos":-1,"best_pos":4,"similarity":0.336},{"voice":6,"pitch":80,"start":86.0,"duration":0.5,"velocity":50,"measure":44,"beat":1.0,"subject_pos":-1,"motif":"","motif_pos":-1,"best_pos":4,"similarity":0.389},{"voice":7,"pitch":36,"start":86.0,"duration":0.25,"velocity":90,"measure":44,"beat":1.0,"subject_pos":-1,"motif":"","motif_pos":-1,"best_pos":4,"similarity":0.389},{"voice":2,"pitch":76,"start":86.5,"duration":0.5,"velocity":40,"measure":44,"beat":2.0,"subject_pos":-1,"motif":"","motif_pos":-1,"best_pos":0,"similarity":0.357},{"voice":6,"pitch":80,"start":86.5,"duration":0.5,"velocity":50,"measure":44,"beat":2.0,"subject_pos":-1,"motif":"","motif_pos":-1,"best_pos":4,"similarity":0.389},{"voice":2,"pitch":81,"start":87.0,"duration":0.5,"velocity":40,"measure":44,"beat":3.0,"subject_pos":-1,"motif":"","motif_pos":-1,"best_pos":1,"similarity":0.429},{"voice":6,"pitch":80,"start":87.0,"duration":0.5,"velocity":50,"measure":44,"beat":3.0,"subject_pos":-1,"motif":"","motif_pos":-1,"best_pos":4,"similarity":0.389},{"voice":8,"pitch":74,"start":87.0,"duration":0.25,"velocity":75,"measure":44,"beat":3.0,"subject_pos":-1,"motif":"","motif_pos":-1,"best_pos":4,"similarity":0.389},{"voice":7,"pitch":36,"start":87.25,"duration":0.25,"velocity":70,"measure":44,"beat":3.5,"subject_pos":-1,"motif":"","motif_pos":-1,"best_pos":4,"similarity":0.389},{"voice":2,"pitch":76,"start":87.5,"duration":0.5,"velocity":40,"measure":44,"beat":4.0,"subject_pos":-1,"motif":"","motif_pos":-1,"best_pos":2,"similarity":0.293},{"voice":6,"pitch":80,"start":87.5,"duration":0.5,"velocity":50,"measure":44,"beat":4.0,"subject_pos":-1,"motif":"","motif_pos":-1,"best_pos":4,"similarity":0.389},{"voice":2,"pitch":62,"start":88.0,"duration":0.5,"velocity":40,"measure":45,"beat":1.0,"subject_pos":-1,"motif":"","motif_pos":-1,"best_pos":0,"similarity":0.304},{"voice":3,"pitch":28,"start":88.0,"duration":1.0,"velocity":80,"measure":45,"beat":1.0,"subject_pos":-1,"motif":"","motif_pos":-1,"best_pos":0,"similarity":0.307},{"voice":6,"pitch":80,"start":88.0,"duration":0.5,"velocity":50,"measure":45,"beat":1.0,"subject_pos":-1,"motif":"","motif_pos":-1,"best_pos":4,"similarity":0.389},{"voice":7,"pitch":36,"start":88.0,"duration":0.25,"velocity":90,"measure":45,"beat":1.0,"subject_pos":-1,"motif":"","motif_pos":-1,"best_pos":4,"similarity":0.389},{"voice":2,"pitch":69,"start":88.5,"duration":0.5,"velocity":40,"measure":45,"beat":2.0,"subject_pos":-1,"motif":"","motif_pos":-1,"best_pos":0,"similarity":0.393},{"voice":6,"pitch":80,"start":88.5,"duration":0.5,"velocity":50,"measure":45,"beat":2.0,"subject_pos":-1,"motif":"","motif_pos":-1,"best_pos":4,"similarity":0.389},{"voice":2,"pitch":74,"start":89.0,"duration":0.5,"velocity":40,"measure":45,"beat":3.0,"subject_pos":-1,"motif":"","motif_pos":-1,"best_pos":1,"similarity":0.5},{"voice":6,"pitch":80,"start":89.0,"duration":0.5,"velocity":50,"measure":45,"beat":3.0,"subject_pos":-1,"motif":"","motif_pos":-1,"best_pos":4,"similarity":0.389},{"voice":8,"pitch":74,"start":89.0,"duration":0.25,"velocity":75,"measure":45,"beat":3.0,"subject_pos":-1,"motif":"","motif_pos":-1,"best_pos":4,"similarity":0.389},{"voice":7,"pitch":36,"start":89.25,"duration":0.25,"velocity":70,"measure":45,"beat":3.5,"subject_pos":-1,"motif":"","motif_pos":-1,"best_pos":4,"similarity":0.389},{"voice":2,"pitch":69,"start":89.5,"duration":0.5,"velocity":40,"measure":45,"beat":4.0,"subject_pos":-1,"motif":"","motif_pos":-1,"best_pos":2,"similarity":0.436},{"voice":6,"pitch":80,"start":89.5,"duration":0.5,"velocity":50,"measure":45,"beat":4.0,"subject_pos":-1,"motif":"","motif_pos":-1,"best_pos":4,"similarity":0.389},{"voice":2,"pitch":67,"start":90.0,"duration":0.5,"velocity":40,"measure":46,"beat":1.0,"subject_pos":-1,"motif":"","motif_pos":-1,"best_pos":0,"similarity":0.304},{"voice":3,"pitch":33,"start":90.0,"duration":1.0,"velocity":80,"measure":46,"beat":1.0,"subject_pos":-1,"motif":"","motif_pos":-1,"best_pos":1,"similarity":0.364},{"voice":6,"pitch":80,"start":90.0,"duration":0.5,"velocity":50,"measure":46,"beat":1.0,"subject_pos":-1,"motif":"","motif_pos":-1,"best_pos":4,"similarity":0.389},{"voice":7,"pitch":36,"start":90.0,"duration":0.25,"velocity":90,"measure":46,"beat":1.0,"subject_pos":-1,"motif":"","motif_pos":-1,"best_pos":4,"similarity":0.389},{"voice":2,"pitch":74,"start":90.5,"duration":0.5,"velocity":40,"measure":46,"beat":2.0,"subject_pos":-1,"motif":"","motif_pos":-1,"best_pos":0,"similarity":0.375},{"voice":6,"pitch":80,"start":90.5,"duration":0.5,"velocity":50,"measure":46,"beat":2.0,"subject_pos":-1,"motif":"","motif_pos":-1,"best_pos":4,"similarity":0.389},{"voice":2,"pitch":79,"start":91.0,"duration":0.5,"velocity":40,"measure":46,"beat":3.0,"subject_pos":-1,"motif":"","motif_pos":-1,"best_pos":1,"similarity":0.464},{"voice":6,"pitch":80,"start":91.0,"duration":0.5,"velocity":50,"measure":46,"beat":3.0,"subject_pos":-1,"motif":"","motif_pos":-1,"best_pos":4,"similarity":0.389},{"voice":8,"pitch":74,"start":91.0,"duration":0.25,"velocity":75,"measure":46,"beat":3.0,"subject_pos":-1,"motif":"","motif_pos":-1,"best_pos":4,"similarity":0.389},{"voice":7,"pitch":36,"start":91.25,"duration":0.25,"velocity":70,"measure":46,"beat":3.5,"subject_pos":-1,"motif":"","motif_pos":-1,"best_pos":4,"similarity":0.389},{"voice":2,"pitch":74,"start":91.5,"duration":0.5,"velocity":40,"measure":46,"beat":4.0,"subject_pos":-1,"motif":"","motif_pos":-1,"best_pos":2,"similarity":0.364},{"voice":6,"pitch":80,"start":91.5,"duration":0.5,"velocity":50,"measure":46,"beat":4.0,"subject_pos":-1,"motif":"","motif_pos":-1,"best_pos":4,"similarity":0.389},{"voice":2,"pitch":69,"start":92.0,"duration":0.5,"velocity":40,"measure":47,"beat":1.0,"subject_pos":-1,"motif":"","motif_pos":-1,"best_pos":0,"similarity":0.304},{"voice":3,"pitch":35,"start":92.0,"duration":1.0,"velocity":80,"measure":47,"beat":1.0,"subject_pos":-1,"motif":"","motif_pos":-1,"best_pos":6,"similarity":0.3},{"voice":6,"pitch":80,"start":92.0,"duration":0.5,"velocity":50,"measure":47,"beat":1.0,"subject_pos":-1,"motif":"","motif_pos":-1,"best_pos":4,"similarity":0.389},{"voice":7,"pitch":36,"start":92.0,"duration":0.25,"velocity":90,"measure":47,"beat":1.0,"subject_pos":-1,"motif":"","motif_pos":-1,"best_pos":4,"similarity":0.389},{"voice":2,"pitch":76,"start":92.5,"duration":0.5,"velocity":40,"measure":47,"beat":2.0,"subject_pos":-1,"motif":"","motif_pos":-1,"best_pos":0,"similarity":0.357},{"voice":6,"pitch":80,"start":92.5,"duration":0.5,"velocity":50,"measure":47,"beat":2.0,"subject_pos":-1,"motif":"","motif_pos":-1,"best_pos":4,"similarity":0.389},{"voice":2,"pitch":81,"start":93.0,"duration":0.5,"velocity":40,"measure":47,"beat":3.0,"subject_pos":-1,"motif":"","motif_pos":-1,"best_pos":1,"similarity":0.429},{"voice":6,"pitch":80,"start":93.0,"duration":0.5,"velocity":50,"measure":47,"beat":3.0,"subject_pos":-1,"motif":"","motif_pos":-1,"best_pos":4,"similarity":0.389},{"voice":8,"pitch":74,"start":93.0,"duration":0.25,"velocity":75,"measure":47,"beat":3.0,"subject_pos":-1,"motif":"","motif_pos":-1,"best_pos":4,"similarity":0.389},{"voice":7,"pitch":36,"start":93.25,"duration":0.25,"velocity":70,"measure":47,"beat":3.5,"subject_pos":-1,"motif":"","motif_pos":-1,"best_pos":4,"similarity":0.389},{"voice":2,"pitch":76,"start":93.5,"duration":0.5,"velocity":40,"measure":47,"beat":4.0,"subject_pos":-1,"motif":"","motif_pos":-1,"best_pos":2,"similarity":0.293},{"voice":6,"pitch":80,"start":93.5,"duration":0.5,"velocity":50,"measure":47,"beat":4.0,"subject_pos":-1,"motif":"","motif_pos":-1,"best_pos":4,"similarity":0.389},{"voice":2,"pitch":62,"start":94.0,"duration":0.5,"velocity":40,"measure":48,"beat":1.0,"subject_pos":-1,"motif":"","motif_pos":-1,"best_pos":0,"similarity":0.304},{"voice":3,"pitch":28,"start":94.0,"duration":1.0,"velocity":80,"measure":48,"beat":1.0,"subject_pos":-1,"motif":"","motif_pos":-1,"best_pos":3,"similarity":0.257},{"voice":6,"pitch":80,"start":94.0,"duration":0.5,"velocity":50,"measure":48,"beat":1.0,"subject_pos":-1,"motif":"","motif_pos":-1,"best_pos":4,"similarity":0.389},{"voice":7,"pitch":36,"start":94.0,"duration":0.25,"velocity":90,"measure":48,"beat":1.0,"subject_pos":-1,"motif":"","motif_pos":-1,"best_pos":4,"similarity":0.389},{"voice":2,"pitch":69,"start":94.5,"duration":0.5,"velocity":40,"measure":48,"beat":2.0,"subject_pos":-1,"motif":"","motif_pos":-1,"best_pos":0,"similarity":0.364},{"voice":6,"pitch":80,"start":94.5,"duration":0.5,"velocity":50,"measure":48,"beat":2.0,"subject_pos":-1,"motif":"","motif_pos":-1,"best_pos":4,"similarity":0.389},{"voice":2,"pitch":74,"start":95.0,"duration":0.5,"velocity":40,"measure":48,"beat":3.0,"subject_pos":-1,"motif":"","motif_pos":-1,"best_pos":1,"similarity":0.45},{"voice":6,"pitch":80,"start":95.0,"duration":0.5,"velocity":50,"measure":48,"beat":3.0,"subject_pos":-1,"motif":"","motif_pos":-1,"best_pos":4,"similarity":0.389},{"voice":8,"pitch":74,"start":95.0,"duration":0.25,"velocity":75,"measure":48,"beat":3.0,"subject_pos":-1,"motif":"","motif_pos":-1,"best_pos":4,"similarity":0.389},{"voice":7,"pitch":36,"start":95.25,"duration":0.25,"velocity":70,"measure":48,"beat":3.5,"subject_pos":-1,"motif":"","motif_pos":-1,"best_pos":4,"similarity":0.389},{"voice":2,"pitch":69,"start":95.5,"duration":0.5,"velocity":40,"measure":48,"beat":4.0,"subject_pos":-1,"motif":"","motif_pos":-1,"best_pos":2,"similarity":0.336},{"voice":6,"pitch":80,"start":95.5,"duration":0.5,"velocity":50,"measure":48,"beat":4.0,"subject_pos":-1,"motif":"","motif_pos":-1,"best_pos":4,"similarity":0.389},{"voice":0,"pitch":62,"start":96.0,"duration":0.5,"velocity":85,"measure":49,"beat":1.0,"subject_pos":0,"motif":"subject","motif_pos":0,"best_pos":0,"similarity":1.0},{"voice":3,"pitch":28,"start":96.0,"duration":0.5,"velocity":80,"measure":49,"beat":1.0,"subject_pos":-1,"motif":"","motif_pos":-1,"best_pos":0,"similarity":0.214},{"voice":6,"pitch":80,"start":96.0,"duration":0.125,"velocity":50,"measure":49,"beat":1.0,"subject_pos":-1,"motif":"","motif_pos":-1,"best_pos":4,"similarity":0.389},{"voice":7,"pitch":36,"start":96.0,"duration":0.25,"velocity":80,"measure":49,"beat":1.0,"subject_pos":-1,"motif":"","motif_pos":-1,"best_pos":4,"similarity":0.389},{"voice":9,"pitch":48,"start":96.0,"duration":0.125,"velocity":20,"measure":49,"beat":1.0,"subject_pos":-1,"motif":"","motif_pos":-1,"best_pos":3,"similarity":0.275},{"voice":10,"pitch":50,"start":96.0,"duration":0.25,"velocity":80,"measure":49,"beat":1.0,"subject_pos":0,"motif":"subject","motif_pos":0,"best_pos":0,"similarity":1.0},{"voice":6,"pitch":80,"start":96.125,"duration":0.125,"velocity":50,"measure":49,"beat":1.25,"subject_pos":-1,"motif":"","motif_pos":-1,"best_pos":4,"similarity":0.389},{"voice":9,"pitch":48,"start":96.125,"duration":0.125,"velocity":20,"measure":49,"beat":1.25,"subject_pos":-1,"motif":"","motif_pos":-1,"best_pos":4,"similarity":0.411},{"voice":6,"pitch":80,"start":96.25,"duration":0.125,"velocity":50,"measure":49,"beat":1.5,"subject_pos":-1,"motif":"","motif_pos":-1,"best_pos":4,"similarity":0.389},{"voice":9,"pitch":48,"start":96.25,"duration":0.125,"velocity":21,"measure":49,"beat":1.5,"subject_pos":-1,"motif":"","motif_pos":-1,"best_pos":5,"similarity":0.429},{"voice":10,"pitch":57,"start":96.25,"duration":0.25,"velocity":80,"measure":49,"beat":1.5,"subject_pos":1,"motif":"subject","motif_pos":1,"best_pos":1,"similarity":1.0},{"voice":6,"pitch":80,"start":96.375,"duration":0.125,"velocity":50,"measure":49,"beat":1.75,"subject_pos":-1,"motif":"","motif_pos":-1,"best_pos":4,"similarity":0.389},{"voice":9,"pitch":48,"start":96.375,"duration":0.125,"velocity":21,"measure":49,"beat":1.75,"subject_pos":-1,"motif":"","motif_pos":-1,"best_pos":4,"similarity":0.532},{"voice":0,"pitch":69,"start":96.5,"duration":0.5,"velocity":85,"measure":49,"beat":2.0,"subject_pos":1,"motif":"subject","motif_pos":1,"best_pos":1,"similarity":1.0},{"voice":5,"pitch":69,"start":96.5,"duration":0.5,"velocity":80,"measure":49,"beat":2.0,"subject_pos":0,"motif":"subject_inv","motif_pos":0,"best_pos":0,"similarity":1.0},{"voice":6,"pitch":80,"start":96.5,"duration":0.125,"velocity":50,"measure":49,"beat":2.0,"subject_pos":-1,"motif":"","motif_pos":-1,"best_pos":4,"similarity":0.389},{"voice":7,"pitch":36,"start":96.5,"duration":0.25,"velocity":80,"measure":49,"beat":2.0,"subject_pos":-1,"motif":"","motif_pos":-1,"best_pos":4,"similarity":0.389},{"voice":8,"pitch":74,"start":96.5,"duration":0.25,"velocity":70,"measure":49,"beat":2.0,"subject_pos":-1,"motif":"","motif_pos":-1,"best_pos":4,"similarity":0.389},{"voice":9,"pitch":49,"start":96.5,"duration":0.125,"velocity":22,"measure":49,"beat":2.0,"subject_pos":-1,"motif":"","motif_pos":-1,"best_pos":5,"similarity":0.507},{"voice":10,"pitch":53,"start":96.5,"duration":0.25,"velocity":80,"measure":49,"beat":2.0,"subject_pos":2,"motif":"subject","motif_pos":2,"best_pos":2,"similarity":1.0},{"voice":6,"pitch":80,"start":96.625,"duration":0.125,"velocity":50,"measure":49,"beat":2.25,"subject_pos":-1,"motif":"","motif_pos":-1,"best_pos":4,"similarity":0.389},{"voice":9,"pitch":49,"start":96.625,"duration":0.125,"velocity":23,"measure":49,"beat":2.25,"subject_pos":-1,"motif":"","motif_pos":-1,"best_pos":4,"similarity":0.425},{"voice":6,"pitch":80,"start":96.75,"duration":0.125,"velocity":50,"measure":49,"beat":2.5,"subject_pos":-1,"motif":"","motif_pos":-1,"best_pos":4,"similarity":0.389},{"voice":9,"pitch":49,"start":96.75,"duration":0.125,"velocity":23,"measure":49,"beat":2.5,"subject_pos":-1,"motif":"","motif_pos":-1,"best_pos":5,"similarity":0.436},{"voice":10,"pitch":50,"start":96.75,"duration":0.25,"velocity":80,"measure":49,"beat":2.5,"subject_pos":3,"motif":"subject","motif_pos":3,"best_pos":3,"similarity":1.0},{"voice":6,"pitch":80,"start":96.875,"duration":0.125,"velocity":50,"measure":49,"beat":2.75,"subject_pos":-1,"motif":"","motif_pos":-1,"best_pos":4,"similarity":0.389},{"voice":9,"pitch":49,"start":96.875,"duration":0.125,"velocity":24,"measure":49,"beat":2.75,"subject_pos":-1,"motif":"","motif_pos":-1,"best_pos":4,"similarity":0.532},{"voice":0,"pitch":65,"start":97.0,"duration":0.5,"velocity":85,"measure":49,"beat":3.0,"subject_pos":2,"motif":"subject","motif_pos":2,"best_pos":2,"similarity":1.0},{"voice":4,"pitch":57,"start":97.0,"duration":0.5,"velocity":75,"measure":49,"beat":3.0,"subject_pos":0,"motif":"subject","motif_pos":0,"best_pos":0,"similarity":1.0},{"voice":5,"pitch":62,"start":97.0,"duration":0.5,"velocity":80,"measure":49,"beat":3.0,"subject_pos":1,"motif":"subject_inv","motif_pos":1,"best_pos":1,"similarity":1.0},{"voice":6,"pitch":80,"start":97.0,"duration":0.125,"velocity":50,"measure":49,"beat":3.0,"subject_pos":-1,"motif":"","motif_pos":-1,"best_pos":4,"similarity":0.389},{"voice":7,"pitch":36,"start":97.0,"duration":0.25,"velocity":80,"measure":49,"beat":3.0,"subject_pos":-1,"motif":"","motif_pos":-1,"best_pos":4,"similarity":0.389},{"voice":9,"pitch":50,"start":97.0,"duration":0.125,"velocity":25,"measure":49,"beat":3.0,"subject_pos":-1,"motif":"","motif_pos":-1,"best_pos":5,"similarity":0.507},{"voice":10,"pitch":49,"start":97.0,"duration":0.25,"velocity":80,"measure":49,"beat":3.0,"subject_pos":4,"motif":"subject","motif_pos":4,"best_pos":4,"similarity":1.0},{"voice":6,"pitch":80,"start":97.125,"duration":0.125,"velocity":50,"measure":49,"beat":3.25,"subject_pos":-1,"motif":"","motif_pos":-1,"best_pos":4,"similarity":0.389},{"voice":9,"pitch":50,"start":97.125,"duration":0.125,"velocity":25,"measure":49,"beat":3.25,"subject_pos":-1,"motif":"","motif_pos":-1,"best_pos":4,"similarity":0.425},{"voice":6,"pitch":80,"start":97.25,"duration":0.125,"velocity":50,"measure":49,"beat":3.5,"subject_pos":-1,"motif":"","motif_pos":-1,"best_pos":4,"similarity":0.389},{"voice":9,"pitch":50,"start":97.25,"duration":0.125,"velocity":26,"measure":49,"beat":3.5,"subject_pos":-1,"motif":"","motif_pos":-1,"best_pos":4,"similarity":0.521},{"voice":10,"pitch":50,"start":97.25,"duration":0.125,"velocity":80,"measure":49,"beat":3.5,"subject_pos":5,"motif":"subject","motif_pos":5,"best_pos":5,"similarity":1.0},{"voice":6,"pitch":80,"start":97.375,"duration":0.125,"velocity":50,"measure":49,"beat":3.75,"subject_pos":-1,"motif":"","motif_pos":-1,"best_pos":4,"similarity":0.389},{"voice":9,"pitch":51,"start":97.375,"duration":0.125,"velocity":26,"measure":49,"beat":3.75,"subject_pos":-1,"motif":"","motif_pos":-1,"best_pos":5,"similarity":0.507},{"voice":10,"pitch":52,"start":97.375,"duration":0.125,"velocity":80,"measure":49,"beat":3.75,"subject_pos":6,"motif":"subject","motif_pos":6,"best_pos":6,"similarity":1.0},{"voice":0,"pitch":62,"start":97.5,"duration":0.5,"velocity":85,"measure":49,"beat":4.0,"subject_pos":3,"motif":"subject","motif_pos":3,"best_pos":3,"similarity":1.0},{"voice":4,"pitch":62,"start":97.5,"duration":0.5,"velocity":75,"measure":49,"beat":4.0,"subject_pos":1,"motif":"subject","motif_pos":1,"best_pos":1,"similarity":1.0},{"voice":5,"pitch":66,"start":97.5,"duration":0.5,"velocity":80,"measure":49,"beat":4.0,"subject_pos":2,"motif":"subject_inv","motif_pos":2,"best_pos":2,"similarity":1.0},{"voice":6,"pitch":80,"start":97.5,"duration":0.125,"velocity":50,"measure":49,"beat":4.0,"subject_pos":-1,"motif":"","motif_pos":-1,"best_pos":4,"similarity":0.389},{"voice":7,"pitch":36,"start":97.5,"duration":0.25,"velocity":80,"measure":49,"beat":4.0,"subject_pos":-1,"motif":"","motif_pos":-1,"best_pos":4,"similarity":0.389},{"voice":8,"pitch":74,"start":97.5,"duration":0.25,"velocity":70,"measure":49,"beat":4.0,"subject_pos":-1,"motif":"","motif_pos":-1,"best_pos":4,"similarity":0.389},{"voice":9,"pitch":51,"start":97.5,"duration":0.125,"velocity":27,"measure":49,"beat":4.0,"subject_pos":-1,"motif":"","motif_pos":-1,"best_pos":4,"similarity":0.425},{"voice":10,"pitch":53,"start":97.5,"duration":0.5,"velocity":80,"measure":49,"beat":4.0,"subject_pos":7,"motif":"subject","motif_pos":7,"best_pos":7,"similarity":1.0},{"voice":6,"pitch":80,"start":97.625,"duration":0.125,"velocity":50,"measure":49,"beat":4.25,"subject_pos":-1,"motif":"","motif_pos":-1,"best_pos":4,"similarity":0.389},{"voice":9,"pitch":51,"start":97.625,"duration":0.125,"velocity":28,"measure":49,"beat":4.25,"subject_pos":-1,"motif":"","motif_pos":-1,"best_pos":5,"similarity":0.436},{"voice":6,"pitch":80,"start":97.75,"duration":0.125,"velocity":50,"measure":49,"beat":4.5,"subject_pos":-1,"motif":"","motif_pos":-1,"best_pos":4,"similarity":0.389},{"voice":9,"pitch":51,"start":97.75,"duration":0.125,"velocity":28,"measure":49,"beat":4.5,"subject_pos":-1,"motif":"","motif_pos":-1,"best_pos":4,"similarity":0.532},{"voice":6,"pitch":80,"start":97.875,"duration":0.125,"velocity":50,"measure":49,"beat":4.75,"subject_pos":-1,"motif":"","motif_pos":-1,"best_pos":4,"similarity":0.389},{"voice":9,"pitch":52,"start":97.875,"duration":0.125,"velocity":29,"measure":49,"beat":4.75,"subject_pos":-1,"motif":"","motif_pos":-1,"best_pos":5,"similarity":0.507},{"voice":0,"pitch":61,"start":98.0,"duration":0.5,"velocity":85,"measure":50,"beat":1.0,"subject_pos":4,"motif":"subject","motif_pos":4,"best_pos":4,"similarity":1.0},{"voice":3,"pitch":36,"start":98.0,"duration":0.5,"velocity":82,"measure":50,"beat":1.0,"subject_pos":-1,"motif":"","motif_pos":-1,"best_pos":2,"similarity":0.3},{"voice":4,"pitch":60,"start":98.0,"duration":0.5,"velocity":75,"measure":50,"beat":1.0,"subject_pos":2,"motif":"subject","motif_pos":2,"best_pos":2,"similarity":1.0},{"voice":5,"pitch":69,"start":98.0,"duration":0.5,"velocity":80,"measure":50,"beat":1.0,"subject_pos":3,"motif":"subject_inv","motif_pos":3,"best_pos":3,"similarity":1.0},{"voice":6,"pitch":80,"start":98.0,"duration":0.125,"velocity":56,"measure":50,"beat":1.0,"subject_pos":-1,"motif":"","motif_pos":-1,"best_pos":4,"similarity":0.389},{"voice":7,"pitch":36,"start":98.0,"duration":0.25,"velocity":83,"measure":50,"beat":1.0,"subject_pos":-1,"motif":"","motif_pos":-1,"best_pos":4,"similarity":0.389},{"voice":9,"pitch":52,"start":98.0,"duration":0.125,"velocity":30,"measure":50,"beat":1.0,"subject_pos":-1,"motif":"","motif_pos":-1,"best_pos":4,"similarity":0.425},{"voice":10,"pitch":45,"start":98.0,"duration":0.25,"velocity":85,"measure":50,"beat":1.0,"subject_pos":0,"motif":"subject_inv","motif_pos":0,"best_pos":0,"similarity":1.0},{"voice":6,"pitch":80,"start":98.125,"duration":0.125,"velocity":56,"measure":50,"beat":1.25,"subject_pos":-1,"motif":"","motif_pos":-1,"best_pos":4,"similarity":0.389},{"voice":9,"pitch":52,"start":98.125,"duration":0.125,"velocity":30,"measure":50,"beat":1.25,"subject_pos":-1,"motif":"","motif_pos":-1,"best_pos":4,"similarity":0.521},{"voice":6,"pitch":80,"start":98.25,"duration":0.125,"velocity":56,"measure":50,"beat":1.5,"subject_pos":-1,"motif":"","motif_pos":-1,"best_pos":4,"similarity":0.389},{"voice":9,"pitch":53,"start":98.25,"duration":0.125,"velocity":31,"measure":50,"beat":1.5,"subject_pos":-1,"motif":"","motif_pos":-1,"best_pos":5,"similarity":0.507},{"voice":10,"pitch":38,"start":98.25,"duration":0.25,"velocity":85,"measure":50,"beat":1.5,"subject_pos":1,"motif":"subject_inv","motif_pos":1,"best_pos":1,"similarity":1.0},{"voice":6,"pitch":80,"start":98.375,"duration":0.125,"velocity":56,"measure":50,"beat":1.75,"subject_pos":-1,"motif":"","motif_pos":-1,"best_pos":4,"similarity":0.389},{"voice":9,"pitch":53,"start":98.375,"duration":0.125,"velocity":31,"measure":50,"beat":1.75,"subject_pos":-1,"motif":"","motif_pos":-1,"best_pos":4,"similarity":0.425},{"voice":0,"pitch":62,"start":98.5,"duration":0.25,"velocity":85,"measure":50,"beat":2.0,"subject_pos":5,"motif":"subject","motif_pos":5,"best_pos":5,"similarity":1.0},{"voice":4,"pitch":57,"start":98.5,"duration":0.5,"velocity":75,"measure":50,"beat":2.0,"subject_pos":3,"motif":"subject","motif_pos":3,"best_pos":3,"similarity":1.0},{"voice":5,"pitch":70,"start":98.5,"duration":0.5,"velocity":80,"measure":50,"beat":2.0,"subject_pos":4,"motif":"subject_inv","motif_pos":4,"best_pos":4,"similarity":1.0},{"voice":6,"pitch":80,"start":98.5,"duration":0.125,"velocity":56,"measure":50,"beat":2.0,"subject_pos":-1,"motif":"","motif_pos":-1,"best_pos":4,"similarity":0.389},{"voice":7,"pitch":36,"start":98.5,"duration":0.25,"velocity":83,"measure":50,"beat":2.0,"subject_pos":-1,"motif":"","motif_pos":-1,"best_pos":4,"similarity":0.389},{"voice":8,"pitch":74,"start":98.5,"duration":0.25,"velocity":73,"measure":50,"beat":2.0,"subject_pos":-1,"motif":"","motif_pos":-1,"best_pos":4,"similarity":0.389},{"voice":9,"pitch":53,"start":98.5,"duration":0.125,"velocity":32,"measure":50,"beat":2.0,"subject_pos":-1,"motif":"","motif_pos":-1,"best_pos":5,"similarity":0.436},{"voice":10,"pitch":42,"start":98.5,"duration":0.25,"velocity":85,"measure":50,"beat":2.0,"subject_pos":2,"motif":"subject_inv","motif_pos":2,"best_pos":2,"similarity":1.0},{"voice":6,"pitch":80,"start":98.625,"duration":0.125,"velocity":56,"measure":50,"beat":2.25,"subject_pos":-1,"motif":"","motif_pos":-1,"best_pos":4,"similarity":0.389},{"voice":9,"pitch":53,"start":98.625,"duration":0.125,"velocity":33,"measure":50,"beat":2.25,"subject_pos":-1,"motif":"","motif_pos":-1,"best_pos":4,"similarity":0.532},{"voice":0,"pitch":64,"start":98.75,"duration":0.25,"velocity":85,"measure":50,"beat":2.5,"subject_pos":6,"motif":"subject","motif_pos":6,"best_pos":6,"similarity":1.0},{"voice":6,"pitch":80,"start":98.75,"duration":0.125,"velocity":56,"measure":50,"beat":2.5,"subject_pos":-1,"motif":"","motif_pos":-1,"best_pos":4,"similarity":0.389},{"voice":9,"pitch":54,"start":98.75,"duration":0.125,"velocity":33,"measure":50,"beat":2.5,"subject_pos":-1,"motif":"","motif_pos":-1,"best_pos":5,"similarity":0.507},{"voice":10,"pitch":45,"start":98.75,"duration":0.25,"velocity":85,"measure":50,"beat":2.5,"subject_pos":3,"motif":"subject_inv","motif_pos":3,"best_pos":3,"similarity":1.0},{"voice":6,"pitch":80,"start":98.875,"duration":0.125,"velocity":56,"measure":50,"beat":2.75,"subject_pos":-1,"motif":"","motif_pos":-1,"best_pos":4,"similarity":0.389},{"voice":9,"pitch":54,"start":98.875,"duration":0.125,"velocity":34,"measure":50,"beat":2.75,"subject_pos":-1,"motif":"","motif_pos":-1,"best_pos":4,"similarity":0.425},{"voice":0,"pitch":65,"start":99.0,"duration":1.0,"velocity":85,"measure":50,"beat":3.0,"subject_pos":7,"motif":"subject","motif_pos":7,"best_pos":7,"similarity":1.0},{"voice":4,"pitch":56,"start":99.0,"duration":0.5,"velocity":75,"measure":50,"beat":3.0,"subject_pos":4,"motif":"subject","motif_pos":4,"best_pos":4,"similarity":1.0},{"voice":5,"pitch":69,"start":99.0,"duration":0.25,"velocity":80,"measure":50,"beat":3.0,"subject_pos":5,"motif":"subject_inv","motif_pos":5,"best_pos":5,"similarity":1.0},{"voice":6,"pitch":80,"start":99.0,"duration":0.125,"velocity":56,"measure":50,"beat":3.0,"subject_pos":-1,"motif":"","motif_pos":-1,"best_pos":4,"similarity":0.389},{"voice":7,"pitch":36,"start":99.0,"duration":0.25,"velocity":83,"measure":50,"beat":3.0,"subject_pos":-1,"motif":"","motif_pos":-1,"best_pos":4,"similarity":0.389},{"voice":9,"pitch":54,"start":99.0,"duration":0.125,"velocity":35,"measure":50,"beat":3.0,"subject_pos":-1,"motif":"","motif_pos":-1,"best_pos":4,"similarity":0.521},{"voice":10,"pitch":46,"start":99.0,"duration":0.25,"velocity":85,"measure":50,"beat":3.0,"subject_pos":4,"motif":"subject_inv","motif_pos":4,"best_pos":4,"similarity":1.0},{"voice":6,"pitch":80,"start":99.125,"duration":0.125,"velocity":56,"measure":50,"beat":3.25,"subject_pos":-1,"motif":"","motif_pos":-1,"best_pos":4,"similarity":0.389},{"voice":9,"pitch":55,"start":99.125,"duration":0.125,"velocity":35,"measure":50,"beat":3.25,"subject_pos":-1,"motif":"","motif_pos":-1,"best_pos":5,"similarity":0.507},{"voice":5,"pitch":67,"start":99.25,"duration":0.25,"velocity":80,"measure":50,"beat":3.5,"subject_pos":6,"motif":"subject_inv","motif_pos":6,"best_pos":6,"similarity":1.0},{"voice":6,"pitch":80,"start":99.25,"duration":0.125,"velocity":56,"measure":50,"beat":3.5,"subject_pos":-1,"motif":"","motif_pos":-1,"best_pos":4,"similarity":0.389},{"voice":9,"pitch":55,"start":99.25,"duration":0.125,"velocity":36,"measure":50,"beat":3.5,"subject_pos":-1,"motif":"","motif_pos":-1,"best_pos":4,"similarity":0.425},{"voice":10,"pitch":45,"start":99.25,"duration":0.125,"velocity":85,"measure":50,"beat":3.5,"subject_pos":5,"motif":"subject_inv","motif_pos":5,"best_pos":5,"similarity":1.0},{"voice":6,"pitch":80,"start":99.375,"duration":0.125,"velocity":56,"measure":50,"beat":3.75,"subject_pos":-1,"motif":"","motif_pos":-1,"best_pos":4,"similarity":0.389},{"voice":9,"pitch":55,"start":99.375,"duration":0.125,"velocity":36,"measure":50,"beat":3.75,"subject_pos":-1,"motif":"","motif_pos":-1,"best_pos":5,"similarity":0.436},{"voice":10,"pitch":43,"start":99.375,"duration":0.125,"velocity":85,"measure":50,"beat":3.75,"subject_pos":6,"motif":"subject_inv","motif_pos":6,"best_pos":6,"similarity":1.0},{"voice":4,"pitch":57,"start":99.5,"duration":0.25,"velocity":75,"measure":50,"beat":4.0,"subject_pos":5,"motif":"subject","motif_pos":5,"best_pos":5,"similarity":1.0},{"voice":5,"pitch":66,"start":99.5,"duration":1.0,"velocity":80,"measure":50,"beat":4.0,"subject_pos":7,"motif":"subject_inv","motif_pos":7,"best_pos":7,"similarity":1.0},{"voice":6,"pitch":80,"start":99.5,"duration":0.125,"velocity":56,"measure":50,"beat":4.0,"subject_pos":-1,"motif":"","motif_pos":-1,"best_pos":4,"similarity":0.389},{"voice":7,"pitch":36,"start":99.5,"duration":0.25,"velocity":83,"measure":50,"beat":4.0,"subject_pos":-1,"motif":"","motif_pos":-1,"best_pos":4,"similarity":0.389},{"voice":8,"pitch":74,"start":99.5,"duration":0.25,"velocity":73,"measure":50,"beat":4.0,"subject_pos":-1,"motif":"","motif_pos":-1,"best_pos":4,"similarity":0.389},{"voice":9,"pitch":55,"start":99.5,"duration":0.125,"velocity":37,"measure":50,"beat":4.0,"subject_pos":-1,"motif":"","motif_pos":-1,"best_pos":4,"similarity":0.532},{"voice":10,"pitch":42,"start":99.5,"duration":0.5,"velocity":85,"measure":50,"beat":4.0,"subject_pos":7,"motif":"subject_inv","motif_pos":7,"best_pos":7,"similarity":1.0},{"voice":6,"pitch":80,"start":99.625,"duration":0.125,"velocity":56,"measure":50,"beat":4.25,"subject_pos":-1,"motif":"","motif_pos":-1,"best_pos":4,"similarity":0.389},{"voice":9,"pitch":56,"start":99.625,"duration":0.125,"velocity":38,"measure":50,"beat":4.25,"subject_pos":-1,"motif":"","motif_pos":-1,"best_pos":5,"similarity":0.507},{"voice":4,"pitch":59,"start":99.75,"duration":0.25,"velocity":75,"measure":50,"beat":4.5,"subject_pos":6,"motif":"subject","motif_pos":6,"best_pos":6,"similarity":1.0},{"voice":6,"pitch":80,"start":99.75,"duration":0.125,"velocity":56,"measure":50,"beat":4.5,"subject_pos":-1,"motif":"","motif_pos":-1,"best_pos":4,"similarity":0.389},{"voice":9,"pitch":56,"start":99.75,"duration":0.125,"velocity":38,"measure":50,"beat":4.5,"subject_pos":-1,"motif":"","motif_pos":-1,"best_pos":4,"similarity":0.425},{"voice":6,"pitch":80,"start":99.875,"duration":0.125,"velocity":56,"measure":50,"beat":4.75,"subject_pos":-1,"motif":"","motif_pos":-1,"best_pos":4,"similarity":0.389},{"voice":9,"pitch":56,"start":99.875,"duration":0.125,"velocity":39,"measure":50,"beat":4.75,"subject_pos":-1,"motif":"","motif_pos":-1,"best_pos":4,"similarity":0.521},{"voice":0,"pitch":69,"start":100.0,"duration":0.5,"velocity":80,"measure":51,"beat":1.0,"subject_pos":0,"motif":"subject","motif_pos":0,"best_pos":0,"similarity":1.0},{"voice":3,"pitch":33,"start":100.0,"duration":0.5,"velocity":85,"measure":51,"beat":1.0,"subject_pos":-1,"motif":"","motif_pos":-1,"best_pos":5,"similarity":0.321},{"voice":4,"pitch":60,"start":100.0,"duration":1.0,"velocity":75,"measure":51,"beat":1.0,"subject_pos":7,"motif":"subject","motif_pos":7,"best_pos":7,"similarity":1.0},{"voice":6,"pitch":80,"start":100.0,"duration":0.125,"velocity":62,"measure":51,"beat":1.0,"subject_pos":-1,"motif":"","motif_pos":-1,"best_pos":4,"similarity":0.389},{"voice":7,"pitch":36,"start":100.0,"duration":0.25,"velocity":87,"measure":51,"beat":1.0,"subject_pos":-1,"motif":"","motif_pos":-1,"best_pos":4,"similarity":0.389},{"voice":9,"pitch":57,"start":100.0,"duration":0.125,"velocity":40,"measure":51,"beat":1.0,"subject_pos":-1,"motif":"","motif_pos":-1,"best_pos":5,"similarity":0.507},{"voice":10,"pitch":50,"start":100.0,"duration":0.25,"velocity":90,"measure":51,"beat":1.0,"subject_pos":0,"motif":"subject","motif_pos":0,"best_pos":0,"similarity":1.0},{"voice":6,"pitch":80,"start":100.125,"duration":0.125,"velocity":62,"measure":51,"beat":1.25,"subject_pos":-1,"motif":"","motif_pos":-1,"best_pos":4,"similarity":0.389},{"voice":9,"pitch":57,"start":100.125,"duration":0.125,"velocity":40,"measure":51,"beat":1.25,"subject_pos":-1,"motif":"","motif_pos":-1,"best_pos":4,"similarity":0.425},{"voice":6,"pitch":80,"start":100.25,"duration":0.125,"velocity":62,"measure":51,"beat":1.5,"subject_pos":-1,"motif":"","motif_pos":-1,"best_pos":4,"similarity":0.389},{"voice":9,"pitch":57,"start":100.25,"duration":0.125,"velocity":41,"measure":51,"beat":1.5,"subject_pos":-1,"motif":"","motif_pos":-1,"best_pos":5,"similarity":0.436},{"voice":10,"pitch":55,"start":100.25,"duration":0.25,"velocity":90,"measure":51,"beat":1.5,"subject_pos":1,"motif":"subject","motif_pos":1,"best_pos":1,"similarity":1.0},{"voice":6,"pitch":80,"start":100.375,"duration":0.125,"velocity":62,"measure":51,"beat":1.75,"subject_pos":-1,"motif":"","motif_pos":-1,"best_pos":4,"similarity":0.389},{"voice":9,"pitch":57,"start":100.375,"duration":0.125,"velocity":41,"measure":51,"beat":1.75,"subject_pos":-1,"motif":"","motif_pos":-1,"best_pos":4,"similarity":0.532},{"voice":0,"pitch":74,"start":100.5,"duration":0.5,"velocity":80,"measure":51,"beat":2.0,"subject_pos":1,"motif":"subject","motif_pos":1,"best_pos":1,"similarity":1.0},{"voice":6,"pitch":80,"start":100.5,"duration":0.125,"velocity":62,"measure":51,"beat":2.0,"subject_pos":-1,"motif":"","motif_pos":-1,"best_pos":4,"similarity":0.389},{"voice":7,"pitch":36,"start":100.5,"duration":0.25,"velocity":87,"measure":51,"beat":2.0,"subject_pos":-1,"motif":"","motif_pos":-1,"best_pos":4,"similarity":0.389},{"voice":8,"pitch":74,"start":100.5,"duration":0.25,"velocity":76,"measure":51,"beat":2.0,"subject_pos":-1,"motif":"","motif_pos":-1,"best_pos":4,"similarity":0.389},{"voice":9,"pitch":58,"start":100.5,"duration":0.125,"velocity":42,"measure":51,"beat":2.0,"subject_pos":-1,"motif":"","motif_pos":-1,"best_pos":5,"similarity":0.507},{"voice":10,"pitch":53,"start":100.5,"duration":0.25,"velocity":90,"measure":51,"beat":2.0,"subject_pos":2,"motif":"subject","motif_pos":2,"best_pos":2,"similarity":1.0},{"voice":6,"pitch":80,"start":100.625,"duration":0.125,"velocity":62,"measure":51,"beat":2.25,"subject_pos":-1,"motif":"","motif_pos":-1,"best_pos":4,"similarity":0.389},{"voice":9,"pitch":58,"start":100.625,"duration":0.125,"velocity":43,"measure":51,"beat":2.25,"subject_pos":-1,"motif":"","motif_pos":-1,"best_pos":4,"similarity":0.425},{"voice":6,"pitch":80,"start":100.75,"duration":0.125,"velocity":62,"measure":51,"beat":2.5,"subject_pos":-1,"motif":"","motif_pos":-1,"best_pos":4,"similarity":0.389},{"voice":9,"pitch":58,"start":100.75,"duration":0.125,"velocity":43,"measure":51,"beat":2.5,"subject_pos":-1,"motif":"","motif_pos":-1,"best_pos":5,"similarity":0.436},{"voice":10,"pitch":50,"start":100.75,"duration":0.25,"velocity":90,"measure":51,"beat":2.5,"subject_pos":3,"motif":"subject","motif_pos":3,"best_pos":3,"similarity":1.0},{"voice":6,"pitch":80,"start":100.875,"duration":0.125,"velocity":62,"measure":51,"beat":2.75,"subject_pos":-1,"motif":"","motif_pos":-1,"best_pos":4,"similarity":0.389},{"voice":9,"pitch":58,"start":100.875,"duration":0.125,"velocity":44,"measure":51,"beat":2.75,"subject_pos":-1,"motif":"","motif_pos":-1,"best_pos":4,"similarity":0.532},{"voice":0,"pitch":72,"start":101.0,"duration":0.5,"velocity":80,"measure":51,"beat":3.0,"subject_pos":2,"motif":"subject","motif_pos":2,"best_pos":2,"similarity":1.0},{"voice":6,"pitch":80,"start":101.0,"duration":0.125,"velocity":62,"measure":51,"beat":3.0,"subject_pos":-1,"motif":"","motif_pos":-1,"best_pos":4,"similarity":0.389},{"voice":7,"pitch":36,"start":101.0,"duration":0.25,"velocity":87,"measure":51,"beat":3.0,"subject_pos":-1,"motif":"","motif_pos":-1,"best_pos":4,"similarity":0.389},{"voice":9,"pitch":59,"start":101.0,"duration":0.125,"velocity":45,"measure":51,"beat":3.0,"subject_pos":-1,"motif":"","motif_pos":-1,"best_pos":5,"similarity":0.507},{"voice":10,"pitch":49,"start":101.0,"duration":0.25,"velocity":90,"measure":51,"beat":3.0,"subject_pos":4,"motif":"subject","motif_pos":4,"best_pos":4,"similarity":1.0},{"voice":6,"pitch":80,"start":101.125,"duration":0.125,"velocity":62,"measure":51,"beat":3.25,"subject_pos":-1,"motif":"","motif_pos":-1,"best_pos":4,"similarity":0.389},{"voice":9,"pitch":59,"start":101.125,"duration":0.125,"velocity":45,"measure":51,"beat":3.25,"subject_pos":-1,"motif":"","motif_pos":-1,"best_pos":4,"similarity":0.425},{"voice":6,"pitch":80,"start":101.25,"duration":0.125,"velocity":62,"measure":51,"beat":3.5,"subject_pos":-1,"motif":"","motif_pos":-1,"best_pos":4,"similarity":0.389},{"voice":9,"pitch":59,"start":101.25,"duration":0.125,"velocity":46,"measure":51,"beat":3.5,"subject_pos":-1,"motif":"","motif_pos":-1,"best_pos":4,"similarity":0.521},{"voice":10,"pitch":50,"start":101.25,"duration":0.125,"velocity":90,"measure":51,"beat":3.5,"subject_pos":5,"motif":"subject","motif_pos":5,"best_pos":5,"similarity":1.0},{"voice":6,"pitch":80,"start":101.375,"duration":0.125,"velocity":62,"measure":51,"beat":3.75,"subject_pos":-1,"motif":"","motif_pos":-1,"best_pos":4,"similarity":0.389},{"voice":9,"pitch":60,"start":101.375,"duration":0.125,"velocity":46,"measure":51,"beat":3.75,"subject_pos":-1,"motif":"","motif_pos":-1,"best_pos":5,"similarity":0.507},{"voice":10,"pitch":52,"start":101.375,"duration":0.125,"velocity":90,"measure":51,"beat":3.75,"subject_pos":6,"motif":"subject","motif_pos":6,"best_pos":6,"similarity":1.0},{"voice":0,"pitch":69,"start":101.5,"duration":0.5,"velocity":80,"measure":51,"beat":4.0,"subject_pos":3,"motif":"subject","motif_pos":3,"best_pos":3,"similarity":1.0},{"voice":6,"pitch":80,"start":101.5,"duration":0.125,"velocity":62,"measure":51,"beat":4.0,"subject_pos":-1,"motif":"","motif_pos":-1,"best_pos":4,"similarity":0.389},{"voice":7,"pitch":36,"start":101.5,"duration":0.25,"velocity":87,"measure":51,"beat":4.0,"subject_pos":-1,"motif":"","motif_pos":-1,"best_pos":4,"similarity":0.389},{"voice":8,"pitch":74,"start":101.5,"duration":0.25,"velocity":76,"measure":51,"beat":4.0,"subject_pos":-1,"motif":"","motif_pos":-1,"best_pos":4,"similarity":0.389},{"voice":9,"pitch":60,"start":101.5,"duration":0.125,"velocity":47,"measure":51,"beat":4.0,"subject_pos":-1,"motif":"","motif_pos":-1,"best_pos":4,"similarity":0.425},{"voice":10,"pitch":53,"start":101.5,"duration":0.5,"velocity":90,"measure":51,"beat":4.0,"subject_pos":7,"motif":"subject","motif_pos":7,"best_pos":7,"similarity":1.0},{"voice":6,"pitch":80,"start":101.625,"duration":0.125,"velocity":62,"measure":51,"beat":4.25,"subject_pos":-1,"motif":"","motif_pos":-1,"best_pos":4,"similarity":0.389},{"voice":9,"pitch":60,"start":101.625,"duration":0.125,"velocity":48,"measure":51,"beat":4.25,"subject_pos":-1,"motif":"","motif_pos":-1,"best_pos":5,"similarity":0.436},{"voice":6,"pitch":80,"start":101.75,"duration":0.125,"velocity":62,"measure":51,"beat":4.5,"subject_pos":-1,"motif":"","motif_pos":-1,"best_pos":4,"similarity":0.389},{"voice":9,"pitch":60,"start":101.75,"duration":0.125,"velocity":48,"measure":51,"beat":4.5,"subject_pos":-1,"motif":"","motif_pos":-1,"best_pos":4,"similarity":0.532},{"voice":6,"pitch":80,"start":101.875,"duration":0.125,"velocity":62,"measure":51,"beat":4.75,"subject_pos":-1,"motif":"","motif_pos":-1,"best_pos":4,"similarity":0.389},{"voice":9,"pitch":61,"start":101.875,"duration":0.125,"velocity":49,"measure":51,"beat":4.75,"subject_pos":-1,"motif":"","motif_pos":-1,"best_pos":5,"similarity":0.507},{"voice":0,"pitch":68,"start":102.0,"duration":0.5,"velocity":80,"measure":52,"beat":1.0,"subject_pos":4,"motif":"subject","motif_pos":4,"best_pos":4,"similarity":1.0},{"voice":3,"pitch":35,"start":102.0,"duration":0.5,"velocity":87,"measure":52,"beat":1.0,"subject_pos":-1,"motif":"","motif_pos":-1,"best_pos":6,"similarity":0.3},{"voice":6,"pitch":80,"start":102.0,"duration":0.125,"velocity":68,"measure":52,"beat":1.0,"subject_pos":-1,"motif":"","motif_pos":-1,"best_pos":4,"similarity":0.389},{"voice":7,"pitch":36,"start":102.0,"duration":0.25,"velocity":91,"measure":52,"beat":1.0,"subject_pos":-1,"motif":"","motif_pos":-1,"best_pos":4,"similarity":0.389},{"voice":9,"pitch":61,"start":102.0,"duration":0.125,"velocity":50,"measure":52,"beat":1.0,"subject_pos":-1,"motif":"","motif_pos":-1,"best_pos":4,"similarity":0.425},{"voice":10,"pitch":57,"start":102.0,"duration":0.25,"velocity":95,"measure":52,"beat":1.0,"subject_pos":0,"motif":"subject","motif_pos":0,"best_pos":0,"similarity":1.0},{"voice":6,"pitch":80,"start":102.125,"duration":0.125,"velocity":68,"measure":52,"beat":1.25,"subject_pos":-1,"motif":"","motif_pos":-1,"best_pos":4,"similarity":0.389},{"voice":9,"pitch":61,"start":102.125,"duration":0.125,"velocity":50,"measure":52,"beat":1.25,"subject_pos":-1,"motif":"","motif_pos":-1,"best_pos":4,"similarity":0.521},{"voice":6,"pitch":80,"start":102.25,"duration":0.125,"velocity":68,"measure":52,"beat":1.5,"subject_pos":-1,"motif":"","motif_pos":-1,"best_pos":4,"similarity":0.389},{"voice":9,"pitch":62,"start":102.25,"duration":0.125,"velocity":51,"measure":52,"beat":1.5,"subject_pos":-1,"motif":"","motif_pos":-1,"best_pos":5,"similarity":0.507},{"voice":10,"pitch":64,"start":102.25,"duration":0.25,"velocity":95,"measure":52,"beat":1.5,"subject_pos":1,"motif":"subject","motif_pos":1,"best_pos":1,"similarity":1.0},{"voice":6,"pitch":80,"start":102.375,"duration":0.125,"velocity":68,"measure":52,"beat":1.75,"subject_pos":-1,"motif":"","motif_pos":-1,"best_pos":4,"similarity":0.389},{"voice":9,"pitch":62,"start":102.375,"duration":0.125,"velocity":51,"measure":52,"beat":1.75,"subject_pos":-1,"motif":"","motif_pos":-1,"best_pos":4,"similarity":0.425},{"voice":0,"pitch":69,"start":102.5,"duration":0.25,"velocity":80,"measure":52,"beat":2.0,"subject_pos":5,"motif":"subject","motif_pos":5,"best_pos":5,"similarity":1.0},{"voice":6,"pitch":80,"start":102.5,"duration":0.125,"velocity":68,"measure":52,"beat":2.0,"subject_pos":-1,"motif":"","motif_pos":-1,"best_pos":4,"similarity":0.389},{"voice":7,"pitch":36,"start":102.5,"duration":0.25,"velocity":91,"measure":52,"beat":2.0,"subject_pos":-1,"motif":"","motif_pos":-1,"best_pos":4,"similarity":0.389},{"voice":8,"pitch":74,"start":102.5,"duration":0.25,"velocity":79,"measure":52,"beat":2.0,"subject_pos":-1,"motif":"","motif_pos":-1,"best_pos":4,"similarity":0.389},{"voice":9,"pitch":62,"start":102.5,"duration":0.125,"velocity":52,"measure":52,"beat":2.0,"subject_pos":-1,"motif":"","motif_pos":-1,"best_pos":5,"similarity":0.436},{"voice":10,"pitch":60,"start":102.5,"duration":0.25,"velocity":95,"measure":52,"beat":2.0,"subject_pos":2,"motif":"subject","motif_pos":2,"best_pos":2,"similarity":1.0},{"voice":6,"pitch":80,"start":102.625,"duration":0.125,"velocity":68,"measure":52,"beat":2.25,"subject_pos":-1,"motif":"","motif_pos":-1,"best_pos":4,"similarity":0.389},{"voice":9,"pitch":62,"start":102.625,"duration":0.125,"velocity":53,"measure":52,"beat":2.25,"subject_pos":-1,"motif":"","motif_pos":-1,"best_pos":4,"similarity":0.532},{"voice":0,"pitch":71,"start":102.75,"duration":0.25,"velocity":80,"measure":52,"beat":2.5,"subject_pos":6,"motif":"subject","motif_pos":6,"best_pos":6,"similarity":1.0},{"voice":6,"pitch":80,"start":102.75,"duration":0.125,"velocity":68,"measure":52,"beat":2.5,"subject_pos":-1,"motif":"","motif_pos":-1,"best_pos":4,"similarity":0.389},{"voice":9,"pitch":63,"start":102.75,"duration":0.125,"velocity":53,"measure":52,"beat":2.5,"subject_pos":-1,"motif":"","motif_pos":-1,"best_pos":5,"similarity":0.507},{"voice":10,"pitch":57,"start":102.75,"duration":0.25,"velocity":95,"measure":52,"beat":2.5,"subject_pos":3,"motif":"subject","motif_pos":3,"best_pos":3,"similarity":1.0},{"voice":6,"pitch":80,"start":102.875,"duration":0.125,"velocity":68,"measure":52,"beat":2.75,"subject_pos":-1,"motif":"","motif_pos":-1,"best_pos":4,"similarity":0.389},{"voice":9,"pitch":63,"start":102.875,"duration":0.125,"velocity":54,"measure":52,"beat":2.75,"subject_pos":-1,"motif":"","motif_pos":-1,"best_pos":4,"similarity":0.425},{"voice":0,"pitch":72,"start":103.0,"duration":1.0,"velocity":80,"measure":52,"beat":3.0,"subject_pos":7,"motif":"subject","motif_pos":7,"best_pos":7,"similarity":1.0},{"voice":6,"pitch":80,"start":103.0,"duration":0.125,"velocity":68,"measure":52,"beat":3.0,"subject_pos":-1,"motif":"","motif_pos":-1,"best_pos":4,"similarity":0.389},{"voice":7,"pitch":36,"start":103.0,"duration":0.25,"velocity":91,"measure":52,"beat":3.0,"subject_pos":-1,"motif":"","motif_pos":-1,"best_pos":4,"similarity":0.389},{"voice":9,"pitch":63,"start":103.0,"duration":0.125,"velocity":55,"measure":52,"beat":3.0,"subject_pos":-1,"motif":"","motif_pos":-1,"best_pos":4,"similarity":0.521},{"voice":10,"pitch":56,"start":103.0,"duration":0.25,"velocity":95,"measure":52,"beat":3.0,"subject_pos":4,"motif":"subject","motif_pos":4,"best_pos":4,"similarity":1.0},{"voice":6,"pitch":80,"start":103.125,"duration":0.125,"velocity":68,"measure":52,"beat":3.25,"subject_pos":-1,"motif":"","motif_pos":-1,"best_pos":4,"similarity":0.389},{"voice":9,"pitch":64,"start":103.125,"duration":0.125,"velocity":55,"measure":52,"beat":3.25,"subject_pos":-1,"motif":"","motif_pos":-1,"best_pos":5,"similarity":0.507},{"voice":6,"pitch":80,"start":103.25,"duration":0.125,"velocity":68,"measure":52,"beat":3.5,"subject_pos":-1,"motif":"","motif_pos":-1,"best_pos":4,"similarity":0.389},{"voice":9,"pitch":64,"start":103.25,"duration":0.125,"velocity":56,"measure":52,"beat":3.5,"subject_pos":-1,"motif":"","motif_pos":-1,"best_pos":4,"similarity":0.425},{"voice":10,"pitch":57,"start":103.25,"duration":0.125,"velocity":95,"measure":52,"beat":3.5,"subject_pos":5,"motif":"subject","motif_pos":5,"best_pos":5,"similarity":1.0},{"voice":6,"pitch":80,"start":103.375,"duration":0.125,"velocity":68,"measure":52,"beat":3.75,"subject_pos":-1,"motif":"","motif_pos":-1,"best_pos":4,"similarity":0.389},{"voice":9,"pitch":64,"start":103.375,"duration":0.125,"velocity":56,"measure":52,"beat":3.75,"subject_pos":-1,"motif":"","motif_pos":-1,"best_pos":5,"similarity":0.436},{"voice":10,"pitch":59,"start":103.375,"duration":0.125,"velocity":95,"measure":52,"beat":3.75,"subject_pos":6,"motif":"subject","motif_pos":6,"best_pos":6,"similarity":1.0},{"voice":6,"pitch":80,"start":103.5,"duration":0.125,"velocity":68,"measure":52,"beat":4.0,"subject_pos":-1,"motif":"","motif_pos":-1,"best_pos":4,"similarity":0.389},{"voice":7,"pitch":36,"start":103.5,"duration":0.25,"velocity":91,"measure":52,"beat":4.0,"subject_pos":-1,"motif":"","motif_pos":-1,"best_pos":4,"similarity":0.389},{"voice":8,"pitch":74,"start":103.5,"duration":0.25,"velocity":79,"measure":52,"beat":4.0,"subject_pos":-1,"motif":"","motif_pos":-1,"best_pos":4,"similarity":0.389},{"voice":9,"pitch":64,"start":103.5,"duration":0.125,"velocity":57,"measure":52,"beat":4.0,"subject_pos":-1,"motif":"","motif_pos":-1,"best_pos":4,"similarity":0.532},{"voice":10,"pitch":60,"start":103.5,"duration":0.5,"velocity":95,"measure":52,"beat":4.0,"subject_pos":7,"motif":"subject","motif_pos":7,"best_pos":7,"similarity":1.0},{"voice":6,"pitch":80,"start":103.625,"duration":0.125,"velocity":68,"measure":52,"beat":4.25,"subject_pos":-1,"motif":"","motif_pos":-1,"best_pos":4,"similarity":0.389},{"voice":9,"pitch":65,"start":103.625,"duration":0.125,"velocity":58,"measure":52,"beat":4.25,"subject_pos":-1,"motif":"","motif_pos":-1,"best_pos":5,"similarity":0.507},{"voice":6,"pitch":80,"start":103.75,"duration":0.125,"velocity":68,"measure":52,"beat":4.5,"subject_pos":-1,"motif":"","motif_pos":-1,"best_pos":4,"similarity":0.389},{"voice":9,"pitch":65,"start":103.75,"duration":0.125,"velocity":58,"measure":52,"beat":4.5,"subject_pos":-1,"motif":"","motif_pos":-1,"best_pos":4,"similarity":0.425},{"voice":6,"pitch":80,"start":103.875,"duration":0.125,"velocity":68,"measure":52,"beat":4.75,"subject_pos":-1,"motif":"","motif_pos":-1,"best_pos":4,"similarity":0.389},{"voice":9,"pitch":65,"start":103.875,"duration":0.125,"velocity":59,"measure":52,"beat":4.75,"subject_pos":-1,"motif":"","motif_pos":-1,"best_pos":4,"similarity":0.521},{"voice":3,"pitch":28,"start":104.0,"duration":0.5,"velocity":90,"measure":53,"beat":1.0,"subject_pos":-1,"motif":"","motif_pos":-1,"best_pos":0,"similarity":0.221},{"voice":6,"pitch":80,"start":104.0,"duration":0.125,"velocity":75,"measure":53,"beat":1.0,"subject_pos":-1,"motif":"","motif_pos":-1,"best_pos":4,"similarity":0.389},{"voice":7,"pitch":36,"start":104.0,"duration":0.25,"velocity":95,"measure":53,"beat":1.0,"subject_pos":-1,"motif":"","motif_pos":-1,"best_pos":4,"similarity":0.389},{"voice":9,"pitch":66,"start":104.0,"duration":0.125,"velocity":60,"measure":53,"beat":1.0,"subject_pos":-1,"motif":"","motif_pos":-1,"best_pos":5,"similarity":0.507},{"voice":6,"pitch":80,"start":104.125,"duration":0.125,"velocity":75,"measure":53,"beat":1.25,"subject_pos":-1,"motif":"","motif_pos":-1,"best_pos":4,"similarity":0.389},{"voice":9,"pitch":66,"start":104.125,"duration":0.125,"velocity":60,"measure":53,"beat":1.25,"subject_pos":-1,"motif":"","motif_pos":-1,"best_pos":4,"similarity":0.425},{"voice":6,"pitch":80,"start":104.25,"duration":0.125,"velocity":75,"measure":53,"beat":1.5,"subject_pos":-1,"motif":"","motif_pos":-1,"best_pos":4,"similarity":0.389},{"voice":9,"pitch":66,"start":104.25,"duration":0.125,"velocity":61,"measure":53,"beat":1.5,"subject_pos":-1,"motif":"","motif_pos":-1,"best_pos":5,"similarity":0.436},{"voice":6,"pitch":80,"start":104.375,"duration":0.125,"velocity":75,"measure":53,"beat":1.75,"subject_pos":-1,"motif":"","motif_pos":-1,"best_pos":4,"similarity":0.389},{"voice":9,"pitch":66,"start":104.375,"duration":0.125,"velocity":61,"measure":53,"beat":1.75,"subject_pos":-1,"motif":"","motif_pos":-1,"best_pos":4,"similarity":0.532},{"voice":6,"pitch":80,"start":104.5,"duration":0.125,"velocity":75,"measure":53,"beat":2.0,"subject_pos":-1,"motif":"","motif_pos":-1,"best_pos":4,"similarity":0.389},{"voice":7,"pitch":36,"start":104.5,"duration":0.25,"velocity":95,"measure":53,"beat":2.0,"subject_pos":-1,"motif":"","motif_pos":-1,"best_pos":4,"similarity":0.389},{"voice":8,"pitch":74,"start":104.5,"duration":0.25,"velocity":82,"measure":53,"beat":2.0,"subject_pos":-1,"motif":"","motif_pos":-1,"best_pos":4,"similarity":0.389},{"voice":9,"pitch":67,"start":104.5,"duration":0.125,"velocity":62,"measure":53,"beat":2.0,"subject_pos":-1,"motif":"","motif_pos":-1,"best_pos":5,"similarity":0.507},{"voice":6,"pitch":80,"start":104.625,"duration":0.125,"velocity":75,"measure":53,"beat":2.25,"subject_pos":-1,"motif":"","motif_pos":-1,"best_pos":4,"similarity":0.389},{"voice":9,"pitch":67,"start":104.625,"duration":0.125,"velocity":63,"measure":53,"beat":2.25,"subject_pos":-1,"motif":"","motif_pos":-1,"best_pos":4,"similarity":0.425},{"voice":6,"pitch":80,"start":104.75,"duration":0.125,"velocity":75,"measure":53,"beat":2.5,"subject_pos":-1,"motif":"","motif_pos":-1,"best_pos":4,"similarity":0.389},{"voice":9,"pitch":67,"start":104.75,"duration":0.125,"velocity":63,"measure":53,"beat":2.5,"subject_pos":-1,"motif":"","motif_pos":-1,"best_pos":5,"similarity":0.436},{"voice":6,"pitch":80,"start":104.875,"duration":0.125,"velocity":75,"measure":53,"beat":2.75,"subject_pos":-1,"motif":"","motif_pos":-1,"best_pos":4,"similarity":0.389},{"voice":9,"pitch":67,"start":104.875,"duration":0.125,"velocity":64,"measure":53,"beat":2.75,"subject_pos":-1,"motif":"","motif_pos":-1,"best_pos":4,"similarity":0.532},{"voice":6,"pitch":80,"start":105.0,"duration":0.125,"velocity":75,"measure":53,"beat":3.0,"subject_pos":-1,"motif":"","motif_pos":-1,"best_pos":4,"similarity":0.389},{"voice":7,"pitch":36,"start":105.0,"duration":0.25,"velocity":95,"measure":53,"beat":3.0,"subject_pos":-1,"motif":"","motif_pos":-1,"best_pos":4,"similarity":0.389},{"voice":9,"pitch":68,"start":105.0,"duration":0.125,"velocity":65,"measure":53,"beat":3.0,"subject_pos":-1,"motif":"","motif_pos":-1,"best_pos":5,"similarity":0.507},{"voice":6,"pitch":80,"start":105.125,"duration":0.125,"velocity":75,"measure":53,"beat":3.25,"subject_pos":-1,"motif":"","motif_pos":-1,"best_pos":4,"similarity":0.389},{"voice":9,"pitch":68,"start":105.125,"duration":0.125,"velocity":65,"measure":53,"beat":3.25,"subject_pos":-1,"motif":"","motif_pos":-1,"best_pos":4,"similarity":0.425},{"voice":6,"pitch":80,"start":105.25,"duration":0.125,"velocity":75,"measure":53,"beat":3.5,"subject_pos":-1,"motif":"","motif_pos":-1,"best_pos":4,"similarity":0.389},{"voice":9,"pitch":68,"start":105.25,"duration":0.125,"velocity":66,"measure":53,"beat":3.5,"subject_pos":-1,"motif":"","motif_pos":-1,"best_pos":4,"similarity":0.521},{"voice":6,"pitch":80,"start":105.375,"duration":0.125,"velocity":75,"measure":53,"beat":3.75,"subject_pos":-1,"motif":"","motif_pos":-1,"best_pos":4,"similarity":0.389},{"voice":9,"pitch":69,"start":105.375,"duration":0.125,"velocity":66,"measure":53,"beat":3.75,"subject_pos":-1,"motif":"","motif_pos":-1,"best_pos":5,"similarity":0.507},{"voice":6,"pitch":80,"start":105.5,"duration":0.125,"velocity":75,"measure":53,"beat":4.0,"subject_pos":-1,"motif":"","motif_pos":-1,"best_pos":4,"similarity":0.389},{"voice":7,"pitch":36,"start":105.5,"duration":0.25,"velocity":95,"measure":53,"beat":4.0,"subject_pos":-1,"motif":"","motif_pos":-1,"best_pos":4,"similarity":0.389},{"voice":8,"pitch":74,"start":105.5,"duration":0.25,"velocity":82,"measure":53,"beat":4.0,"subject_pos":-1,"motif":"","motif_pos":-1,"best_pos":4,"similarity":0.389},{"voice":9,"pitch":69,"start":105.5,"duration":0.125,"velocity":67,"measure":53,"beat":4.0,"subject_pos":-1,"motif":"","motif_pos":-1,"best_pos":4,"similarity":0.425},{"voice":6,"pitch":80,"start":105.625,"duration":0.125,"velocity":75,"measure":53,"beat":4.25,"subject_pos":-1,"motif":"","motif_pos":-1,"best_pos":4,"similarity":0.389},{"voice":9,"pitch":69,"start":105.625,"duration":0.125,"velocity":68,"measure":53,"beat":4.25,"subject_pos":-1,"motif":"","motif_pos":-1,"best_pos":5,"similarity":0.436},{"voice":6,"pitch":80,"start":105.75,"duration":0.125,"velocity":75,"measure":53,"beat":4.5,"subject_pos":-1,"motif":"","motif_pos":-1,"best_pos":4,"similarity":0.389},{"voice":9,"pitch":69,"start":105.75,"duration":0.125,"velocity":68,"measure":53,"beat":4.5,"subject_pos":-1,"motif":"","motif_pos":-1,"best_pos":4,"similarity":0.532},{"voice":6,"pitch":80,"start":105.875,"duration":0.125,"velocity":75,"measure":53,"beat":4.75,"subject_pos":-1,"motif":"","motif_pos":-1,"best_pos":4,"similarity":0.389},{"voice":9,"pitch":70,"start":105.875,"duration":0.125,"velocity":69,"measure":53,"beat":4.75,"subject_pos":-1,"motif":"","motif_pos":-1,"best_pos":5,"similarity":0.507},{"voice":3,"pitch":36,"start":106.0,"duration":0.5,"velocity":92,"measure":54,"beat":1.0,"subject_pos":-1,"motif":"","motif_pos":-1,"best_pos":3,"similarity":0.379},{"voice":6,"pitch":80,"start":106.0,"duration":0.125,"velocity":81,"measure":54,"beat":1.0,"subject_pos":-1,"motif":"","motif_pos":-1,"best_pos":4,"similarity":0.389},{"voice":7,"pitch":36,"start":106.0,"duration":0.25,"velocity":98,"measure":54,"beat":1.0,"subject_pos":-1,"motif":"","motif_pos":-1,"best_pos":4,"similarity":0.389},{"voice":9,"pitch":70,"start":106.0,"duration":0.125,"velocity":70,"measure":54,"beat":1.0,"subject_pos":-1,"motif":"","motif_pos":-1,"best_pos":4,"similarity":0.425},{"voice":6,"pitch":80,"start":106.125,"duration":0.125,"velocity":81,"measure":54,"beat":1.25,"subject_pos":-1,"motif":"","motif_pos":-1,"best_pos":4,"similarity":0.389},{"voice":9,"pitch":70,"start":106.125,"duration":0.125,"velocity":70,"measure":54,"beat":1.25,"subject_pos":-1,"motif":"","motif_pos":-1,"best_pos":4,"similarity":0.521},{"voice":6,"pitch":80,"start":106.25,"duration":0.125,"velocity":81,"measure":54,"beat":1.5,"subject_pos":-1,"motif":"","motif_pos":-1,"best_pos":4,"similarity":0.389},{"voice":9,"pitch":71,"start":106.25,"duration":0.125,"velocity":71,"measure":54,"beat":1.5,"subject_pos":-1,"motif":"","motif_pos":-1,"best_pos":5,"similarity":0.507},{"voice":6,"pitch":80,"start":106.375,"duration":0.125,"velocity":81,"measure":54,"beat":1.75,"subject_pos":-1,"motif":"","motif_pos":-1,"best_pos":4,"similarity":0.389},{"voice":9,"pitch":71,"start":106.375,"duration":0.125,"velocity":71,"measure":54,"beat":1.75,"subject_pos":-1,"motif":"","motif_pos":-1,"best_pos":4,"similarity":0.425},{"voice":6,"pitch":80,"start":106.5,"duration":0.125,"velocity":81,"measure":54,"beat":2.0,"subject_pos":-1,"motif":"","motif_pos":-1,"best_pos":4,"similarity":0.389},{"voice":7,"pitch":36,"start":106.5,"duration":0.25,"velocity":98,"measure":54,"beat":2.0,"subject_pos":-1,"motif":"","motif_pos":-1,"best_pos":4,"similarity":0.389},{"voice":8,"pitch":74,"start":106.5,"duration":0.25,"velocity":85,"measure":54,"beat":2.0,"subject_pos":-1,"motif":"","motif_pos":-1,"best_pos":4,"similarity":0.389},{"voice":9,"pitch":71,"start":106.5,"duration":0.125,"velocity":72,"measure":54,"beat":2.0,"subject_pos":-1,"motif":"","motif_pos":-1,"best_pos":5,"similarity":0.436},{"voice":6,"pitch":80,"start":106.625,"duration":0.125,"velocity":81,"measure":54,"beat":2.25,"subject_pos":-1,"motif":"","motif_pos":-1,"best_pos":4,"similarity":0.389},{"voice":9,"pitch":71,"start":106.625,"duration":0.125,"velocity":73,"measure":54,"beat":2.25,"subject_pos":-1,"motif":"","motif_pos":-1,"best_pos":4,"similarity":0.532},{"voice":6,"pitch":80,"start":106.75,"duration":0.125,"velocity":81,"measure":54,"beat":2.5,"subject_pos":-1,"motif":"","motif_pos":-1,"best_pos":4,"similarity":0.389},{"voice":9,"pitch":72,"start":106.75,"duration":0.125,"velocity":73,"measure":54,"beat":2.5,"subject_pos":-1,"motif":"","motif_pos":-1,"best_pos":5,"similarity":0.507},{"voice":6,"pitch":80,"start":106.875,"duration":0.125,"velocity":81,"measure":54,"beat":2.75,"subject_pos":-1,"motif":"","motif_pos":-1,"best_pos":4,"similarity":0.389},{"voice":9,"pitch":72,"start":106.875,"duration":0.125,"velocity":74,"measure":54,"beat":2.75,"subject_pos":-1,"motif":"","motif_pos":-1,"best_pos":4,"similarity":0.425},{"voice":6,"pitch":80,"start":107.0,"duration":0.125,"velocity":81,"measure":54,"beat":3.0,"subject_pos":-1,"motif":"","motif_pos":-1,"best_pos":4,"similarity":0.389},{"voice":7,"pitch":36,"start":107.0,"duration":0.25,"velocity":98,"measure":54,"beat":3.0,"subject_pos":-1,"motif":"","motif_pos":-1,"best_pos":4,"similarity":0.389},{"voice":9,"pitch":72,"start":107.0,"duration":0.125,"velocity":75,"measure":54,"beat":3.0,"subject_pos":-1,"motif":"","motif_pos":-1,"best_pos":4,"similarity":0.521},{"voice":6,"pitch":80,"start":107.125,"duration":0.125,"velocity":81,"measure":54,"beat":3.25,"subject_pos":-1,"motif":"","motif_pos":-1,"best_pos":4,"similarity":0.389},{"voice":9,"pitch":73,"start":107.125,"duration":0.125,"velocity":75,"measure":54,"beat":3.25,"subject_pos":-1,"motif":"","motif_pos":-1,"best_pos":5,"similarity":0.507},{"voice":6,"pitch":80,"start":107.25,"duration":0.125,"velocity":81,"measure":54,"beat":3.5,"subject_pos":-1,"motif":"","motif_pos":-1,"best_pos":4,"similarity":0.389},{"voice":9,"pitch":73,"start":107.25,"duration":0.125,"velocity":76,"measure":54,"beat":3.5,"subject_pos":-1,"motif":"","motif_pos":-1,"best_pos":4,"similarity":0.425},{"voice":6,"pitch":80,"start":107.375,"duration":0.125,"velocity":81,"measure":54,"beat":3.75,"subject_pos":-1,"motif":"","motif_pos":-1,"best_pos":4,"similarity":0.389},{"voice":9,"pitch":73,"start":107.375,"duration":0.125,"velocity":76,"measure":54,"beat":3.75,"subject_pos":-1,"motif":"","motif_pos":-1,"best_pos":5,"similarity":0.436},{"voice":6,"pitch":80,"start":107.5,"duration":0.125,"velocity":81,"measure":54,"beat":4.0,"subject_pos":-1,"motif":"","motif_pos":-1,"best_pos":4,"similarity":0.389},{"voice":7,"pitch":36,"start":107.5,"duration":0.25,"velocity":98,"measure":54,"beat":4.0,"subject_pos":-1,"motif":"","motif_pos":-1,"best_pos":4,"similarity":0.389},{"voice":8,"pitch":74,"start":107.5,"duration":0.25,"velocity":85,"measure":54,"beat":4.0,"subject_pos":-1,"motif":"","motif_pos":-1,"best_pos":4,"similarity":0.389},{"voice":9,"pitch":73,"start":107.5,"duration":0.125,"velocity":77,"measure":54,"beat":4.0,"subject_pos":-1,"motif":"","motif_pos":-1,"best_pos":4,"similarity":0.532},{"voice":6,"pitch":80,"start":107.625,"duration":0.125,"velocity":81,"measure":54,"beat":4.25,"subject_pos":-1,"motif":"","motif_pos":-1,"best_pos":4,"similarity":0.389},{"voice":9,"pitch":74,"start":107.625,"duration":0.125,"velocity":78,"measure":54,"beat":4.25,"subject_pos":-1,"motif":"","motif_pos":-1,"best_pos":5,"similarity":0.507},{"voice":6,"pitch":80,"start":107.75,"duration":0.125,"velocity":81,"measure":54,"beat":4.5,"subject_pos":-1,"motif":"","motif_pos":-1,"best_pos":4,"similarity":0.389},{"voice":9,"pitch":74,"start":107.75,"duration":0.125,"velocity":78,"measure":54,"beat":4.5,"subject_pos":-1,"motif":"","motif_pos":-1,"best_pos":4,"similarity":0.425},{"voice":6,"pitch":80,"start":107.875,"duration":0.125,"velocity":81,"measure":54,"beat":4.75,"subject_pos":-1,"motif":"","motif_pos":-1,"best_pos":4,"similarity":0.389},{"voice":9,"pitch":74,"start":107.875,"duration":0.125,"velocity":79,"measure":54,"beat":4.75,"subject_pos":-1,"motif":"","motif_pos":-1,"best_pos":4,"similarity":0.521},{"voice":3,"pitch":35,"start":108.0,"duration":0.5,"velocity":95,"measure":55,"beat":1.0,"subject_pos":-1,"motif":"","motif_pos":-1,"best_pos":4,"similarity":0.471},{"voice":6,"pitch":80,"start":108.0,"duration":0.125,"velocity":87,"measure":55,"beat":1.0,"subject_pos":-1,"motif":"","motif_pos":-1,"best_pos":4,"similarity":0.389},{"voice":7,"pitch":36,"start":108.0,"duration":0.25,"velocity":102,"measure":55,"beat":1.0,"subject_pos":-1,"motif":"","motif_pos":-1,"best_pos":4,"similarity":0.389},{"voice":8,"pitch":74,"start":108.0,"duration":0.25,"velocity":60,"measure":55,"beat":1.0,"subject_pos":-1,"motif":"","motif_pos":-1,"best_pos":4,"similarity":0.389},{"voice":9,"pitch":75,"start":108.0,"duration":0.125,"velocity":80,"measure":55,"beat":1.0,"subject_pos":-1,"motif":"","motif_pos":-1,"best_pos":5,"similarity":0.507},{"voice":6,"pitch":80,"start":108.125,"duration":0.125,"velocity":87,"measure":55,"beat":1.25,"subject_pos":-1,"motif":"","motif_pos":-1,"best_pos":4,"similarity":0.389},{"voice":9,"pitch":75,"start":108.125,"duration":0.125,"velocity":80,"measure":55,"beat":1.25,"subject_pos":-1,"motif":"","motif_pos":-1,"best_pos":4,"similarity":0.425},{"voice":6,"pitch":80,"start":108.25,"duration":0.125,"velocity":87,"measure":55,"beat":1.5,"subject_pos":-1,"motif":"","motif_pos":-1,"best_pos":4,"similarity":0.389},{"voice":8,"pitch":74,"start":108.25,"duration":0.25,"velocity":62,"measure":55,"beat":1.5,"subject_pos":-1,"motif":"","motif_pos":-1,"best_pos":4,"similarity":0.389},{"voice":9,"pitch":75,"start":108.25,"duration":0.125,"velocity":81,"measure":55,"beat":1.5,"subject_pos":-1,"motif":"","motif_pos":-1,"best_pos":5,"similarity":0.436},{"voice":6,"pitch":80,"start":108.375,"duration":0.125,"velocity":87,"measure":55,"beat":1.75,"subject_pos":-1,"motif":"","motif_pos":-1,"best_pos":4,"similarity":0.389},{"voice":9,"pitch":75,"start":108.375,"duration":0.125,"velocity":81,"measure":55,"beat":1.75,"subject_pos":-1,"motif":"","motif_pos":-1,"best_pos":4,"similarity":0.532},{"voice":6,"pitch":80,"start":108.5,"duration":0.125,"velocity":87,"measure":55,"beat":2.0,"subject_pos":-1,"motif":"","motif_pos":-1,"best_pos":4,"similarity":0.389},{"voice":7,"pitch":36,"start":108.5,"duration":0.25,"velocity":102,"measure":55,"beat":2.0,"subject_pos":-1,"motif":"","motif_pos":-1,"best_pos":4,"similarity":0.389},{"voice":8,"pitch":74,"start":108.5,"duration":0.25,"velocity":64,"measure":55,"beat":2.0,"subject_pos":-1,"motif":"","motif_pos":-1,"best_pos":4,"similarity":0.389},{"voice":9,"pitch":76,"start":108.5,"duration":0.125,"velocity":82,"measure":55,"beat":2.0,"subject_pos":-1,"motif":"","motif_pos":-1,"best_pos":5,"similarity":0.507},{"voice":6,"pitch":80,"start":108.625,"duration":0.125,"velocity":87,"measure":55,"beat":2.25,"subject_pos":-1,"motif":"","motif_pos":-1,"best_pos":4,"similarity":0.389},{"voice":9,"pitch":76,"start":108.625,"duration":0.125,"velocity":83,"measure":55,"beat":2.25,"subject_pos":-1,"motif":"","motif_pos":-1,"best_pos":4,"similarity":0.425},{"voice":6,"pitch":80,"start":108.75,"duration":0.125,"velocity":87,"measure":55,"beat":2.5,"subject_pos":-1,"motif":"","motif_pos":-1,"best_pos":4,"similarity":0.389},{"voice":8,"pitch":74,"start":108.75,"duration":0.25,"velocity":66,"measure":55,"beat":2.5,"subject_pos":-1,"motif":"","motif_pos":-1,"best_pos":4,"similarity":0.389},{"voice":9,"pitch":76,"start":108.75,"duration":0.125,"velocity":83,"measure":55,"beat":2.5,"subject_pos":-1,"motif":"","motif_pos":-1,"best_pos":5,"similarity":0.436},{"voice":6,"pitch":80,"start":108.875,"duration":0.125,"velocity":87,"measure":55,"beat":2.75,"subject_pos":-1,"motif":"","motif_pos":-1,"best_pos":4,"similarity":0.389},{"voice":9,"pitch":76,"start":108.875,"duration":0.125,"velocity":84,"measure":55,"beat":2.75,"subject_pos":-1,"motif":"","motif_pos":-1,"best_pos":4,"similarity":0.532},{"voice":6,"pitch":80,"start":109.0,"duration":0.125,"velocity":87,"measure":55,"beat":3.0,"subject_pos":-1,"motif":"","motif_pos":-1,"best_pos":4,"similarity":0.389},{"voice":7,"pitch":36,"start":109.0,"duration":0.25,"velocity":102,"measure":55,"beat":3.0,"subject_pos":-1,"motif":"","motif_pos":-1,"best_pos":4,"similarity":0.389},{"voice":8,"pitch":74,"start":109.0,"duration":0.25,"velocity":68,"measure":55,"beat":3.0,"subject_pos":-1,"motif":"","motif_pos":-1,"best_pos":4,"similarity":0.389},{"voice":9,"pitch":77,"start":109.0,"duration":0.125,"velocity":85,"measure":55,"beat":3.0,"subject_pos":-1,"motif":"","motif_pos":-1,"best_pos":5,"similarity":0.507},{"voice":6,"pitch":80,"start":109.125,"duration":0.125,"velocity":87,"measure":55,"beat":3.25,"subject_pos":-1,"motif":"","motif_pos":-1,"best_pos":4,"similarity":0.389},{"voice":9,"pitch":77,"start":109.125,"duration":0.125,"velocity":85,"measure":55,"beat":3.25,"subject_pos":-1,"motif":"","motif_pos":-1,"best_pos":4,"similarity":0.425},{"voice":6,"pitch":80,"start":109.25,"duration":0.125,"velocity":87,"measure":55,"beat":3.5,"subject_pos":-1,"motif":"","motif_pos":-1,"best_pos":4,"similarity":0.389},{"voice":8,"pitch":74,"start":109.25,"duration":0.25,"velocity":70,"measure":55,"beat":3.5,"subject_pos":-1,"motif":"","motif_pos":-1,"best_pos":4,"similarity":0.389},{"voice":9,"pitch":77,"start":109.25,"duration":0.125,"velocity":86,"measure":55,"beat":3.5,"subject_pos":-1,"motif":"","motif_pos":-1,"best_pos":4,"similarity":0.521},{"voice":6,"pitch":80,"start":109.375,"duration":0.125,"velocity":87,"measure":55,"beat":3.75,"subject_pos":-1,"motif":"","motif_pos":-1,"best_pos":4,"similarity":0.389},{"voice":9,"pitch":78,"start":109.375,"duration":0.125,"velocity":86,"measure":55,"beat":3.75,"subject_pos":-1,"motif":"","motif_pos":-1,"best_pos":5,"similarity":0.507},{"voice":6,"pitch":80,"start":109.5,"duration":0.125,"velocity":87,"measure":55,"beat":4.0,"subject_pos":-1,"motif":"","motif_pos":-1,"best_pos":4,"similarity":0.389},{"voice":7,"pitch":36,"start":109.5,"duration":0.25,"velocity":102,"measure":55,"beat":4.0,"subject_pos":-1,"motif":"","motif_pos":-1,"best_pos":4,"similarity":0.389},{"voice":8,"pitch":74,"start":109.5,"duration":0.25,"velocity":72,"measure":55,"beat":4.0,"subject_pos":-1,"motif":"","motif_pos":-1,"best_pos":4,"similarity":0.389},{"voice":9,"pitch":78,"start":109.5,"duration":0.125,"velocity":87,"measure":55,"beat":4.0,"subject_pos":-1,"motif":"","motif_pos":-1,"best_pos":4,"similarity":0.425},{"voice":6,"pitch":80,"start":109.625,"duration":0.125,"velocity":87,"measure":55,"beat":4.25,"subject_pos":-1,"motif":"","motif_pos":-1,"best_pos":4,"similarity":0.389},{"voice":9,"pitch":78,"start":109.625,"duration":0.125,"velocity":88,"measure":55,"beat":4.25,"subject_pos":-1,"motif":"","motif_pos":-1,"best_pos":5,"similarity":0.436},{"voice":6,"pitch":80,"start":109.75,"duration":0.125,"velocity":87,"measure":55,"beat":4.5,"subject_pos":-1,"motif":"","motif_pos":-1,"best_pos":4,"similarity":0.389},{"voice":8,"pitch":74,"start":109.75,"duration":0.25,"velocity":74,"measure":55,"beat":4.5,"subject_pos":-1,"motif":"","motif_pos":-1,"best_pos":4,"similarity":0.389},{"voice":9,"pitch":78,"start":109.75,"duration":0.125,"velocity":88,"measure":55,"beat":4.5,"subject_pos":-1,"motif":"","motif_pos":-1,"best_pos":4,"similarity":0.532},{"voice":6,"pitch":80,"start":109.875,"duration":0.125,"velocity":87,"measure":55,"beat":4.75,"subject_pos":-1,"motif":"","motif_pos":-1,"best_pos":4,"similarity":0.389},{"voice":9,"pitch":79,"start":109.875,"duration":0.125,"velocity":89,"measure":55,"beat":4.75,"subject_pos":-1,"motif":"","motif_pos":-1,"best_pos":5,"similarity":0.507},{"voice":3,"pitch":35,"start":110.0,"duration":0.5,"velocity":97,"measure":56,"beat":1.0,"subject_pos":-1,"motif":"","motif_pos":-1,"best_pos":5,"similarity":0.357},{"voice":6,"pitch":80,"start":110.0,"duration":0.125,"velocity":93,"measure":56,"beat":1.0,"subject_pos":-1,"motif":"","motif_pos":-1,"best_pos":4,"similarity":0.389},{"voice":7,"pitch":36,"start":110.0,"duration":0.25,"velocity":106,"measure":56,"beat":1.0,"subject_pos":-1,"motif":"","motif_pos":-1,"best_pos":4,"similarity":0.389},{"voice":8,"pitch":74,"start":110.0,"duration":0.25,"velocity":76,"measure":56,"beat":1.0,"subject_pos":-1,"motif":"","motif_pos":-1,"best_pos":4,"similarity":0.389},{"voice":9,"pitch":79,"start":110.0,"duration":0.125,"velocity":90,"measure":56,"beat":1.0,"subject_pos":-1,"motif":"","motif_pos":-1,"best_pos":4,"similarity":0.425},{"voice":6,"pitch":80,"start":110.125,"duration":0.125,"velocity":93,"measure":56,"beat":1.25,"subject_pos":-1,"motif":"","motif_pos":-1,"best_pos":4,"similarity":0.389},{"voice":9,"pitch":79,"start":110.125,"duration":0.125,"velocity":90,"measure":56,"beat":1.25,"subject_pos":-1,"motif":"","motif_pos":-1,"best_pos":4,"similarity":0.521},{"voice":6,"pitch":80,"start":110.25,"duration":0.125,"velocity":93,"measure":56,"beat":1.5,"subject_pos":-1,"motif":"","motif_pos":-1,"best_pos":4,"similarity":0.389},{"voice":8,"pitch":74,"start":110.25,"duration":0.25,"velocity":78,"measure":56,"beat":1.5,"subject_pos":-1,"motif":"","motif_pos":-1,"best_pos":4,"similarity":0.389},{"voice":9,"pitch":80,"start":110.25,"duration":0.125,"velocity":91,"measure":56,"beat":1.5,"subject_pos":-1,"motif":"","motif_pos":-1,"best_pos":5,"similarity":0.507},{"voice":6,"pitch":80,"start":110.375,"duration":0.125,"velocity":93,"measure":56,"beat":1.75,"subject_pos":-1,"motif":"","motif_pos":-1,"best_pos":4,"similarity":0.389},{"voice":9,"pitch":80,"start":110.375,"duration":0.125,"velocity":91,"measure":56,"beat":1.75,"subject_pos":-1,"motif":"","motif_pos":-1,"best_pos":4,"similarity":0.425},{"voice":6,"pitch":80,"start":110.5,"duration":0.125,"velocity":93,"measure":56,"beat":2.0,"subject_pos":-1,"motif":"","motif_pos":-1,"best_pos":4,"similarity":0.389},{"voice":7,"pitch":36,"start":110.5,"duration":0.25,"velocity":106,"measure":56,"beat":2.0,"subject_pos":-1,"motif":"","motif_pos":-1,"best_pos":4,"similarity":0.389},{"voice":8,"pitch":74,"start":110.5,"duration":0.25,"velocity":80,"measure":56,"beat":2.0,"subject_pos":-1,"motif":"","motif_pos":-1,"best_pos":4,"similarity":0.389},{"voice":9,"pitch":80,"start":110.5,"duration":0.125,"velocity":92,"measure":56,"beat":2.0,"subject_pos":-1,"motif":"","motif_pos":-1,"best_pos":5,"similarity":0.436},{"voice":6,"pitch":80,"start":110.625,"duration":0.125,"velocity":93,"measure":56,"beat":2.25,"subject_pos":-1,"motif":"","motif_pos":-1,"best_pos":4,"similarity":0.389},{"voice":9,"pitch":80,"start":110.625,"duration":0.125,"velocity":93,"measure":56,"beat":2.25,"subject_pos":-1,"motif":"","motif_pos":-1,"best_pos":4,"similarity":0.532},{"voice":6,"pitch":80,"start":110.75,"duration":0.125,"velocity":93,"measure":56,"beat":2.5,"subject_pos":-1,"motif":"","motif_pos":-1,"best_pos":4,"similarity":0.389},{"voice":8,"pitch":74,"start":110.75,"duration":0.25,"velocity":82,"measure":56,"beat":2.5,"subject_pos":-1,"motif":"","motif_pos":-1,"best_pos":4,"similarity":0.389},{"voice":9,"pitch":81,"start":110.75,"duration":0.125,"velocity":93,"measure":56,"beat":2.5,"subject_pos":-1,"motif":"","motif_pos":-1,"best_pos":5,"similarity":0.507},{"voice":6,"pitch":80,"start":110.875,"duration":0.125,"velocity":93,"measure":56,"beat":2.75,"subject_pos":-1,"motif":"","motif_pos":-1,"best_pos":4,"similarity":0.389},{"voice":9,"pitch":81,"start":110.875,"duration":0.125,"velocity":94,"measure":56,"beat":2.75,"subject_pos":-1,"motif":"","motif_pos":-1,"best_pos":4,"similarity":0.425},{"voice":6,"pitch":80,"start":111.0,"duration":0.125,"velocity":93,"measure":56,"beat":3.0,"subject_pos":-1,"motif":"","motif_pos":-1,"best_pos":4,"similarity":0.389},{"voice":7,"pitch":36,"start":111.0,"duration":0.25,"velocity":106,"measure":56,"beat":3.0,"subject_pos":-1,"motif":"","motif_pos":-1,"best_pos":4,"similarity":0.389},{"voice":8,"pitch":74,"start":111.0,"duration":0.25,"velocity":84,"measure":56,"beat":3.0,"subject_pos":-1,"motif":"","motif_pos":-1,"best_pos":4,"similarity":0.389},{"voice":9,"pitch":81,"start":111.0,"duration":0.125,"velocity":95,"measure":56,"beat":3.0,"subject_pos":-1,"motif":"","motif_pos":-1,"best_pos":4,"similarity":0.521},{"voice":6,"pitch":80,"start":111.125,"duration":0.125,"velocity":93,"measure":56,"beat":3.25,"subject_pos":-1,"motif":"","motif_pos":-1,"best_pos":4,"similarity":0.389},{"voice":9,"pitch":82,"start":111.125,"duration":0.125,"velocity":95,"measure":56,"beat":3.25,"subject_pos":-1,"motif":"","motif_pos":-1,"best_pos":5,"similarity":0.507},{"voice":6,"pitch":80,"start":111.25,"duration":0.125,"velocity":93,"measure":56,"beat":3.5,"subject_pos":-1,"motif":"","motif_pos":-1,"best_pos":4,"similarity":0.389},{"voice":8,"pitch":74,"start":111.25,"duration":0.25,"velocity":86,"measure":56,"beat":3.5,"subject_pos":-1,"motif":"","motif_pos":-1,"best_pos":4,"similarity":0.389},{"voice":9,"pitch":82,"start":111.25,"duration":0.125,"velocity":96,"measure":56,"beat":3.5,"subject_pos":-1,"motif":"","motif_pos":-1,"best_pos":4,"similarity":0.425},{"voice":6,"pitch":80,"start":111.375,"duration":0.125,"velocity":93,"measure":56,"beat":3.75,"subject_pos":-1,"motif":"","motif_pos":-1,"best_pos":4,"similarity":0.389},{"voice":9,"pitch":82,"start":111.375,"duration":0.125,"velocity":96,"measure":56,"beat":3.75,"subject_pos":-1,"motif":"","motif_pos":-1,"best_pos":5,"similarity":0.436},{"voice":6,"pitch":80,"start":111.5,"duration":0.125,"velocity":93,"measure":56,"beat":4.0,"subject_pos":-1,"motif":"","motif_pos":-1,"best_pos":4,"similarity":0.389},{"voice":7,"pitch":36,"start":111.5,"duration":0.25,"velocity":106,"measure":56,"beat":4.0,"subject_pos":-1,"motif":"","motif_pos":-1,"best_pos":4,"similarity":0.389},{"voice":8,"pitch":74,"start":111.5,"duration":0.25,"velocity":88,"measure":56,"beat":4.0,"subject_pos":-1,"motif":"","motif_pos":-1,"best_pos":4,"similarity":0.389},{"voice":9,"pitch":82,"start":111.5,"duration":0.125,"velocity":97,"measure":56,"beat":4.0,"subject_pos":-1,"motif":"","motif_pos":-1,"best_pos":4,"similarity":0.532},{"voice":6,"pitch":80,"start":111.625,"duration":0.125,"velocity":93,"measure":56,"beat":4.25,"subject_pos":-1,"motif":"","motif_pos":-1,"best_pos":4,"similarity":0.389},{"voice":9,"pitch":83,"start":111.625,"duration":0.125,"velocity":98,"measure":56,"beat":4.25,"subject_pos":-1,"motif":"","motif_pos":-1,"best_pos":5,"similarity":0.507},{"voice":6,"pitch":80,"start":111.75,"duration":0.125,"velocity":93,"measure":56,"beat":4.5,"subject_pos":-1,"motif":"","motif_pos":-1,"best_pos":4,"similarity":0.389},{"voice":8,"pitch":74,"start":111.75,"duration":0.25,"velocity":90,"measure":56,"beat":4.5,"subject_pos":-1,"motif":"","motif_pos":-1,"best_pos":4,"similarity":0.389},{"voice":9,"pitch":83,"start":111.75,"duration":0.125,"velocity":98,"measure":56,"beat":4.5,"subject_pos":-1,"motif":"","motif_pos":-1,"best_pos":6,"similarity":0.393},{"voice":6,"pitch":80,"start":111.875,"duration":0.125,"velocity":93,"measure":56,"beat":4.75,"subject_pos":-1,"motif":"","motif_pos":-1,"best_pos":4,"similarity":0.389},{"voice":9,"pitch":83,"start":111.875,"duration":0.125,"velocity":99,"measure":56,"beat":4.75,"subject_pos":-1,"motif":"","motif_pos":-1,"best_pos":5,"similarity":0.293},{"voice":0,"pitch":81,"start":112.0,"duration":0.5,"velocity":95,"measure":57,"beat":1.0,"subject_pos":0,"motif":"subject_inv","motif_pos":0,"best_pos":0,"similarity":1.0},{"voice":1,"pitch":50,"start":112.0,"duration":8.0,"velocity":55,"measure":57,"beat":1.0,"subject_pos":-1,"motif":"","motif_pos":-1,"best_pos":6,"similarity":0.221},{"voice":1,"pitch":53,"start":112.0,"duration":8.0,"velocity":55,"measure":57,"beat":1.0,"subject_pos":-1,"motif":"","motif_pos":-1,"best_pos":6,"similarity":0.189},{"voice":1,"pitch":57,"start":112.0,"duration":8.0,"velocity":55,"measure":57,"beat":1.0,"subject_pos":-1,"motif":"","motif_pos":-1,"best_pos":0,"similarity":0.286},{"voice":1,"pitch":62,"start":112.0,"duration":8.0,"velocity":50,"measure":57,"beat":1.0,"subject_pos":-1,"motif":"","motif_pos":-1,"best_pos":1,"similarity":0.286},{"voice":1,"pitch":65,"start":112.0,"duration":8.0,"velocity":50,"measure":57,"beat":1.0,"subject_pos":-1,"motif":"","motif_pos":-1,"best_pos":6,"similarity":0.186},{"voice":1,"pitch":69,"start":112.0,"duration":8.0,"velocity":50,"measure":57,"beat":1.0,"subject_pos":-1,"motif":"","motif_pos":-1,"best_pos":0,"similarity":0.286},{"voice":1,"pitch":74,"start":112.0,"duration":8.0,"velocity":40,"measure":57,"beat":1.0,"subject_pos":-1,"motif":"","motif_pos":-1,"best_pos":1,"similarity":0.286},{"voice":1,"pitch":77,"start":112.0,"duration":8.0,"velocity":40,"measure":57,"beat":1.0,"subject_pos":-1,"motif":"","motif_pos":-1,"best_pos":6,"similarity":0.186},{"voice":1,"pitch":81,"start":112.0,"duration":8.0,"velocity":40,"measure":57,"beat":1.0,"subject_pos":-1,"motif":"","motif_pos":-1,"best_pos":1,"similarity":0.143},{"voice":2,"pitch":62,"start":112.0,"duration":0.0625,"velocity":60,"measure":57,"beat":1.0,"subject_pos":-1,"motif":"","motif_pos":-1,"best_pos":3,"similarity":0.221},{"voice":3,"pitch":28,"start":112.0,"duration":0.25,"velocity":105,"measure":57,"beat":1.0,"subject_pos":-1,"motif":"","motif_pos":-1,"best_pos":3,"similarity":0.296},{"voice":4,"pitch":74,"start":112.0,"duration":0.125,"velocity":75,"measure":57,"beat":1.0,"subject_pos":0,"motif":"subject","motif_pos":0,"best_pos":0,"similarity":1.0},{"voice":5,"pitch":62,"start":112.0,"duration":0.25,"velocity":85,"measure":57,"beat":1.0,"subject_pos":-1,"motif":"","motif_pos":-1,"best_pos":5,"similarity":0.336},{"voice":5,"pitch":65,"start":112.0,"duration":0.25,"velocity":85,"measure":57,"beat":1.0,"subject_pos":-1,"motif":"","motif_pos":-1,"best_pos":6,"similarity":0.243},{"voice":5,"pitch":69,"start":112.0,"duration":0.25,"velocity":85,"measure":57,"beat":1.0,"subject_pos":-1,"motif":"","motif_pos":-1,"best_pos":0,"similarity":0.286},{"voice":5,"pitch":74,"start":112.0,"duration":0.25,"velocity":85,"measure":57,"beat":1.0,"subject_pos":-1,"motif":"","motif_pos":-1,"best_pos":1,"similarity":0.286},{"voice":5,"pitch":77,"start":112.0,"duration":0.25,"velocity":85,"measure":57,"beat":1.0,"subject_pos":-1,"motif":"","motif_pos":-1,"best_pos":6,"similarity":0.186},{"voice":5,"pitch":81,"start":112.0,"duration":0.25,"velocity":85,"measure":57,"beat":1.0,"subject_pos":-1,"motif":"","motif_pos":-1,"best_pos":1,"similarity":0.143},{"voice":6,"pitch":80,"start":112.0,"duration":0.125,"velocity":60,"measure":57,"beat":1.0,"subject_pos":-1,"motif":"","motif_pos":-1,"best_pos":4,"similarity":0.468},{"voice":7,"pitch":36,"start":112.0,"duration":0.25,"velocity":115,"measure":57,"beat":1.0,"subject_pos":-1,"motif":"","motif_pos":-1,"best_pos":4,"similarity":0.389},{"voice":8,"pitch":74,"start":112.0,"duration":0.25,"velocity":92,"measure":57,"beat":1.0,"subject_pos":-1,"motif":"","motif_pos":-1,"best_pos":4,"similarity":0.389},{"voice":10,"pitch":50,"start":112.0,"duration":0.25,"velocity":90,"measure":57,"beat":1.0,"subject_pos":0,"motif":"subject","motif_pos":0,"best_pos":0,"similarity":1.0},{"voice":11,"pitch":74,"start":112.0,"duration":0.5,"velocity":110,"measure":57,"beat":1.0,"subject_pos":0,"motif":"subject","motif_pos":0,"best_pos":0,"similarity":1.0},{"voice":2,"pitch":65,"start":112.0625,"duration":0.0625,"velocity":63,"measure":57,"beat":1.125,"subject_pos":-1,"motif":"","motif_pos":-1,"best_pos":6,"similarity":0.179},{"voice":2,"pitch":69,"start":112.125,"duration":0.0625,"velocity":66,"measure":57,"beat":1.25,"subject_pos":-1,"motif":"","motif_pos":-1,"best_pos":0,"similarity":0.286},{"voice":4,"pitch":81,"start":112.125,"duration":0.125,"velocity":75,"measure":57,"beat":1.25,"subject_pos":1,"motif":"subject","motif_pos":1,"best_pos":1,"similarity":1.0},{"voice":6,"pitch":80,"start":112.125,"duration":0.125,"velocity":85,"measure":57,"beat":1.25,"subject_pos":-1,"motif":"","motif_pos":-1,"best_pos":5,"similarity":0.521},{"voice":2,"pitch":74,"start":112.1875,"duration":0.0625,"velocity":69,"measure":57,"beat":1.375,"subject_pos":-1,"motif":"","motif_pos":-1,"best_pos":1,"similarity":0.286},{"voice":2,"pitch":77,"start":112.25,"duration":0.0625,"velocity":72,"measure":57,"beat":1.5,"subject_pos":-1,"motif":"","motif_pos":-1,"best_pos":6,"similarity":0.186},{"voice":4,"pitch":77,"start":112.25,"duration":0.125,"velocity":75,"measure":57,"beat":1.5,"subject_pos":2,"motif":"subject","motif_pos":2,"best_pos":2,"similarity":1.0},{"voice":6,"pitch":82,"start":112.25,"duration":0.125,"velocity":105,"measure":57,"beat":1.5,"subject_pos":-1,"motif":"","motif_pos":-1,"best_pos":6,"similarity":0.421},{"voice":8,"pitch":74,"start":112.25,"duration":0.25,"velocity":94,"measure":57,"beat":1.5,"subject_pos":-1,"motif":"","motif_pos":-1,"best_pos":4,"similarity":0.389},{"voice":10,"pitch":57,"start":112.25,"duration":0.25,"velocity":90,"measure":57,"beat":1.5,"subject_pos":1,"motif":"subject","motif_pos":1,"best_pos":1,"similarity":1.0},{"voice":2,"pitch":81,"start":112.3125,"duration":0.0625,"velocity":75,"measure":57,"beat":1.625,"subject_pos":-1,"motif":"","motif_pos":-1,"best_pos":0,"similarity":0.293},{"voice":2,"pitch":86,"start":112.375,"duration":0.0625,"velocity":78,"measure":57,"beat":1.75,"subject_pos":-1,"motif":"","motif_pos":-1,"best_pos":1,"similarity":0.318},{"voice":4,"pitch":74,"start":112.375,"duration":0.125,"velocity":75,"measure":57,"beat":1.75,"subject_pos":3,"motif":"subject","motif_pos":3,"best_pos":3,"similarity":1.0},{"voice":6,"pitch":80,"start":112.375,"duration":0.125,"velocity":85,"measure":57,"beat":1.75,"subject_pos":-1,"motif":"","motif_pos":-1,"best_pos":3,"similarity":0.443},{"voice":2,"pitch":89,"start":112.4375,"duration":0.0625,"velocity":81,"measure":57,"beat":1.875,"subject_pos":-1,"motif":"","motif_pos":-1,"best_pos":6,"similarity":0.3},{"voice":0,"pitch":74,"start":112.5,"duration":0.5,"velocity":95,"measure":57,"beat":2.0,"subject_pos":1,"motif":"subject_inv","motif_pos":1,"best_pos":1,"similarity":1.0},{"voice":2,"pitch":89,"start":112.5,"duration":0.0625,"velocity":60,"measure":57,"beat":2.0,"subject_pos":-1,"motif":"","motif_pos":-1,"best_pos":2,"similarity":0.407},{"voice":3,"pitch":28,"start":112.5,"duration":0.25,"velocity":105,"measure":57,"beat":2.0,"subject_pos":-1,"motif":"","motif_pos":-1,"best_pos":4,"similarity":0.354},{"voice":4,"pitch":73,"start":112.5,"duration":0.125,"velocity":75,"measure":57,"beat":2.0,"subject_pos":4,"motif":"subject","motif_pos":4,"best_pos":4,"similarity":1.0},{"voice":5,"pitch":62,"start":112.5,"duration":0.25,"velocity":85,"measure":57,"beat":2.0,"subject_pos":-1,"motif":"","motif_pos":-1,"best_pos":5,"similarity":0.157},{"voice":5,"pitch":65,"start":112.5,"duration":0.25,"velocity":85,"measure":57,"beat":2.0,"subject_pos":-1,"motif":"","motif_pos":-1,"best_pos":6,"similarity":0.171},{"voice":5,"pitch":69,"start":112.5,"duration":0.25,"velocity":85,"measure":57,"beat":2.0,"subject_pos":-1,"motif":"","motif_pos":-1,"best_pos":0,"similarity":0.286},{"voice":5,"pitch":74,"start":112.5,"duration":0.25,"velocity":85,"measure":57,"beat":2.0,"subject_pos":-1,"motif":"","motif_pos":-1,"best_pos":1,"similarity":0.286},{"voice":5,"pitch":77,"start":112.5,"duration":0.25,"velocity":85,"measure":57,"beat":2.0,"subject_pos":-1,"motif":"","motif_pos":-1,"best_pos":6,"similarity":0.186},{"voice":5,"pitch":81,"start":112.5,"duration":0.25,"velocity":85,"measure":57,"beat":2.0,"subject_pos":-1,"motif":"","motif_pos":-1,"best_pos":1,"similarity":0.143},{"voice":6,"pitch":80,"start":112.5,"duration":0.125,"velocity":60,"measure":57,"beat":2.0,"subject_pos":-1,"motif":"","motif_pos":-1,"best_pos":4,"similarity":0.514},{"voice":7,"pitch":36,"start":112.5,"duration":0.25,"velocity":115,"measure":57,"beat":2.0,"subject_pos":-1,"motif":"","motif_pos":-1,"best_pos":4,"similarity":0.389},{"voice":8,"pitch":74,"start":112.5,"duration":0.25,"velocity":100,"measure":57,"beat":2.0,"subject_pos":-1,"motif":"","motif_pos":-1,"best_pos":4,"similarity":0.389},{"voice":10,"pitch":53,"start":112.5,"duration":0.25,"velocity":90,"measure":57,"beat":2.0,"subject_pos":2,"motif":"subject","motif_pos":2,"best_pos":2,"similarity":1.0},{"voice":11,"pitch":81,"start":112.5,"duration":0.5,"velocity":110,"measure":57,"beat":2.0,"subject_pos":1,"motif":"subject","motif_pos":1,"best_pos":1,"similarity":1.0},{"voice":2,"pitch":86,"start":112.5625,"duration":0.0625,"velocity":63,"measure":57,"beat":2.125,"subject_pos":-1,"motif":"","motif_pos":-1,"best_pos":3,"similarity":0.368},{"voice":2,"pitch":81,"start":112.625,"duration":0.0625,"velocity":66,"measure":57,"beat":2.25,"subject_pos":-1,"motif":"","motif_pos":-1,"best_pos":1,"similarity":0.436},{"voice":4,"pitch":74,"start":112.625,"duration":0.125,"velocity":75,"measure":57,"beat":2.25,"subject_pos":5,"motif":"subject","motif_pos":5,"best_pos":5,"similarity":1.0},{"voice":6,"pitch":80,"start":112.625,"duration":0.125,"velocity":85,"measure":57,"beat":2.25,"subject_pos":-1,"motif":"","motif_pos":-1,"best_pos":5,"similarity":0.55},{"voice":2,"pitch":77,"start":112.6875,"duration":0.0625,"velocity":69,"measure":57,"beat":2.375,"subject_pos":-1,"motif":"","motif_pos":-1,"best_pos":2,"similarity":0.586},{"voice":2,"pitch":74,"start":112.75,"duration":0.0625,"velocity":72,"measure":57,"beat":2.5,"subject_pos":-1,"motif":"","motif_pos":-1,"best_pos":3,"similarity":0.457},{"voice":4,"pitch":76,"start":112.75,"duration":0.125,"velocity":75,"measure":57,"beat":2.5,"subject_pos":6,"motif":"subject","motif_pos":6,"best_pos":6,"similarity":1.0},{"voice":6,"pitch":82,"start":112.75,"duration":0.125,"velocity":105,"measure":57,"beat":2.5,"subject_pos":-1,"motif":"","motif_pos":-1,"best_pos":6,"similarity":0.421},{"voice":8,"pitch":74,"start":112.75,"duration":0.25,"velocity":98,"measure":57,"beat":2.5,"subject_pos":-1,"motif":"","motif_pos":-1,"best_pos":4,"similarity":0.389},{"voice":10,"pitch":50,"start":112.75,"duration":0.25,"velocity":90,"measure":57,"beat":2.5,"subject_pos":3,"motif":"subject","motif_pos":3,"best_pos":3,"similarity":1.0},{"voice":2,"pitch":69,"start":112.8125,"duration":0.0625,"velocity":75,"measure":57,"beat":2.625,"subject_pos":-1,"motif":"","motif_pos":-1,"best_pos":1,"similarity":0.464},{"voice":2,"pitch":65,"start":112.875,"duration":0.0625,"velocity":78,"measure":57,"beat":2.75,"subject_pos":-1,"motif":"","motif_pos":-1,"best_pos":2,"similarity":0.661},{"voice":4,"pitch":77,"start":112.875,"duration":0.125,"velocity":75,"measure":57,"beat":2.75,"subject_pos":7,"motif":"subject","motif_pos":7,"best_pos":7,"similarity":1.0},{"voice":6,"pitch":80,"start":112.875,"duration":0.125,"velocity":85,"measure":57,"beat":2.75,"subject_pos":-1,"motif":"","motif_pos":-1,"best_pos":3,"similarity":0.443},{"voice":2,"pitch":62,"start":112.9375,"duration":0.0625,"velocity":81,"measure":57,"beat":2.875,"subject_pos":-1,"motif":"","motif_pos":-1,"best_pos":3,"similarity":0.625},{"voice":0,"pitch":78,"start":113.0,"duration":0.5,"velocity":95,"measure":57,"beat":3.0,"subject_pos":2,"motif":"subject_inv","motif_pos":2,"best_pos":2,"similarity":1.0},{"voice":2,"pitch":62,"start":113.0,"duration":0.0625,"velocity":60,"measure":57,"beat":3.0,"subject_pos":-1,"motif":"","motif_pos":-1,"best_pos":4,"similarity":0.471},{"voice":3,"pitch":28,"start":113.0,"duration":0.25,"velocity":105,"measure":57,"beat":3.0,"subject_pos":-1,"motif":"","motif_pos":-1,"best_pos":4,"similarity":0.343},{"voice":4,"pitch":69,"start":113.0,"duration":0.125,"velocity":75,"measure":57,"beat":3.0,"subject_pos":0,"motif":"subject","motif_pos":0,"best_pos":0,"similarity":1.0},{"voice":5,"pitch":62,"start":113.0,"duration":0.25,"velocity":85,"measure":57,"beat":3.0,"subject_pos":-1,"motif":"","motif_pos":-1,"best_pos":5,"similarity":0.157},{"voice":5,"pitch":65,"start":113.0,"duration":0.25,"velocity":85,"measure":57,"beat":3.0,"subject_pos":-1,"motif":"","motif_pos":-1,"best_pos":6,"similarity":0.171},{"voice":5,"pitch":69,"start":113.0,"duration":0.25,"velocity":85,"measure":57,"beat":3.0,"subject_pos":-1,"motif":"","motif_pos":-1,"best_pos":0,"similarity":0.286},{"voice":5,"pitch":74,"start":113.0,"duration":0.25,"velocity":85,"measure":57,"beat":3.0,"subject_pos":-1,"motif":"","motif_pos":-1,"best_pos":1,"similarity":0.286},{"voice":5,"pitch":77,"start":113.0,"duration":0.25,"velocity":85,"measure":57,"beat":3.0,"subject_pos":-1,"motif":"","motif_pos":-1,"best_pos":6,"similarity":0.186},{"voice":5,"pitch":81,"start":113.0,"duration":0.25,"velocity":85,"measure":57,"beat":3.0,"subject_pos":-1,"motif":"","motif_pos":-1,"best_pos":1,"similarity":0.143},{"voice":6,"pitch":80,"start":113.0,"duration":0.125,"velocity":60,"measure":57,"beat":3.0,"subject_pos":-1,"motif":"","motif_pos":-1,"best_pos":4,"similarity":0.514},{"voice":7,"pitch":36,"start":113.0,"duration":0.25,"velocity":115,"measure":57,"beat":3.0,"subject_pos":-1,"motif":"","motif_pos":-1,"best_pos":4,"similarity":0.389},{"voice":8,"pitch":74,"start":113.0,"duration":0.25,"velocity":100,"measure":57,"beat":3.0,"subject_pos":-1,"motif":"","motif_pos":-1,"best_pos":4,"similarity":0.389},{"voice":10,"pitch":49,"start":113.0,"duration":0.25,"velocity":90,"measure":57,"beat":3.0,"subject_pos":4,"motif":"subject","motif_pos":4,"best_pos":4,"similarity":1.0},{"voice":11,"pitch":77,"start":113.0,"duration":0.5,"velocity":110,"measure":57,"beat":3.0,"subject_pos":2,"motif":"subject","motif_pos":2,"best_pos":2,"similarity":1.0},{"voice":2,"pitch":65,"start":113.0625,"duration":0.0625,"velocity":63,"measure":57,"beat":3.125,"subject_pos":-1,"motif":"","motif_pos":-1,"best_pos":5,"similarity":0.3},{"voice":2,"pitch":69,"start":113.125,"duration":0.0625,"velocity":66,"measure":57,"beat":3.25,"subject_pos":-1,"motif":"","motif_pos":-1,"best_pos":0,"similarity":0.286},{"voice":4,"pitch":76,"start":113.125,"duration":0.125,"velocity":75,"measure":57,"beat":3.25,"subject_pos":1,"motif":"subject","motif_pos":1,"best_pos":1,"similarity":1.0},{"voice":6,"pitch":80,"start":113.125,"duration":0.125,"velocity":85,"measure":57,"beat":3.25,"subject_pos":-1,"motif":"","motif_pos":-1,"best_pos":5,"similarity":0.55},{"voice":2,"pitch":74,"start":113.1875,"duration":0.0625,"velocity":69,"measure":57,"beat":3.375,"subject_pos":-1,"motif":"","motif_pos":-1,"best_pos":1,"similarity":0.286},{"voice":2,"pitch":77,"start":113.25,"duration":0.0625,"velocity":72,"measure":57,"beat":3.5,"subject_pos":-1,"motif":"","motif_pos":-1,"best_pos":6,"similarity":0.186},{"voice":4,"pitch":72,"start":113.25,"duration":0.125,"velocity":75,"measure":57,"beat":3.5,"subject_pos":2,"motif":"subject","motif_pos":2,"best_pos":2,"similarity":1.0},{"voice":6,"pitch":82,"start":113.25,"duration":0.125,"velocity":105,"measure":57,"beat":3.5,"subject_pos":-1,"motif":"","motif_pos":-1,"best_pos":6,"similarity":0.421},{"voice":8,"pitch":74,"start":113.25,"duration":0.25,"velocity":102,"measure":57,"beat":3.5,"subject_pos":-1,"motif":"","motif_pos":-1,"best_pos":4,"similarity":0.389},{"voice":10,"pitch":50,"start":113.25,"duration":0.125,"velocity":90,"measure":57,"beat":3.5,"subject_pos":5,"motif":"subject","motif_pos":5,"best_pos":5,"similarity":1.0},{"voice":2,"pitch":81,"start":113.3125,"duration":0.0625,"velocity":75,"measure":57,"beat":3.625,"subject_pos":-1,"motif":"","motif_pos":-1,"best_pos":0,"similarity":0.293},{"voice":2,"pitch":86,"start":113.375,"duration":0.0625,"velocity":78,"measure":57,"beat":3.75,"subject_pos":-1,"motif":"","motif_pos":-1,"best_pos":1,"similarity":0.318},{"voice":4,"pitch":69,"start":113.375,"duration":0.125,"velocity":75,"measure":57,"beat":3.75,"subject_pos":3,"motif":"subject","motif_pos":3,"best_pos":3,"similarity":1.0},{"voice":6,"pitch":80,"start":113.375,"duration":0.125,"velocity":85,"measure":57,"beat":3.75,"subject_pos":-1,"motif":"","motif_pos":-1,"best_pos":3,"similarity":0.443},{"voice":10,"pitch":52,"start":113.375,"duration":0.125,"velocity":90,"measure":57,"beat":3.75,"subject_pos":6,"motif":"subject","motif_pos":6,"best_pos":6,"similarity":1.0},{"voice":2,"pitch":89,"start":113.4375,"duration":0.0625,"velocity":81,"measure":57,"beat":3.875,"subject_pos":-1,"motif":"","motif_pos":-1,"best_pos":6,"similarity":0.3},{"voice":0,"pitch":81,"start":113.5,"duration":0.5,"velocity":95,"measure":57,"beat":4.0,"subject_pos":3,"motif":"subject_inv","motif_pos":3,"best_pos":3,"similarity":1.0},{"voice":2,"pitch":89,"start":113.5,"duration":0.0625,"velocity":60,"measure":57,"beat":4.0,"subject_pos":-1,"motif":"","motif_pos":-1,"best_pos":2,"similarity":0.407},{"voice":3,"pitch":28,"start":113.5,"duration":0.25,"velocity":105,"measure":57,"beat":4.0,"subject_pos":-1,"motif":"","motif_pos":-1,"best_pos":5,"similarity":0.293},{"voice":4,"pitch":68,"start":113.5,"duration":0.125,"velocity":75,"measure":57,"beat":4.0,"subject_pos":4,"motif":"subject","motif_pos":4,"best_pos":4,"similarity":1.0},{"voice":5,"pitch":62,"start":113.5,"duration":0.25,"velocity":85,"measure":57,"beat":4.0,"subject_pos":-1,"motif":"","motif_pos":-1,"best_pos":5,"similarity":0.157},{"voice":5,"pitch":65,"start":113.5,"duration":0.25,"velocity":85,"measure":57,"beat":4.0,"subject_pos":-1,"motif":"","motif_pos":-1,"best_pos":6,"similarity":0.171},{"voice":5,"pitch":69,"start":113.5,"duration":0.25,"velocity":85,"measure":57,"beat":4.0,"subject_pos":-1,"motif":"","motif_pos":-1,"best_pos":0,"similarity":0.286},{"voice":5,"pitch":74,"start":113.5,"duration":0.25,"velocity":85,"measure":57,"beat":4.0,"subject_pos":-1,"motif":"","motif_pos":-1,"best_pos":1,"similarity":0.286},{"voice":5,"pitch":77,"start":113.5,"duration":0.25,"velocity":85,"measure":57,"beat":4.0,"subject_pos":-1,"motif":"","motif_pos":-1,"best_pos":6,"similarity":0.186},{"voice":5,"pitch":81,"start":113.5,"duration":0.25,"velocity":85,"measure":57,"beat":4.0,"subject_pos":-1,"motif":"","motif_pos":-1,"best_pos":1,"similarity":0.15},{"voice":6,"pitch":80,"start":113.5,"duration":0.125,"velocity":60,"measure":57,"beat":4.0,"subject_pos":-1,"motif":"","motif_pos":-1,"best_pos":4,"similarity":0.514},{"voice":7,"pitch":36,"start":113.5,"duration":0.25,"velocity":115,"measure":57,"beat":4.0,"subject_pos":-1,"motif":"","motif_pos":-1,"best_pos":4,"similarity":0.389},{"voice":8,"pitch":74,"start":113.5,"duration":0.25,"velocity":100,"measure":57,"beat":4.0,"subject_pos":-1,"motif":"","motif_pos":-1,"best_pos":4,"similarity":0.389},{"voice":10,"pitch":53,"start":113.5,"duration":0.5,"velocity":90,"measure":57,"beat":4.0,"subject_pos":7,"motif":"subject","motif_pos":7,"best_pos":7,"similarity":1.0},{"voice":11,"pitch":74,"start":113.5,"duration":0.5,"velocity":110,"measure":57,"beat":4.0,"subject_pos":3,"motif":"subject","motif_pos":3,"best_pos":3,"similarity":1.0},{"voice":2,"pitch":86,"start":113.5625,"duration":0.0625,"velocity":63,"measure":57,"beat":4.125,"subject_pos":-1,"motif":"","motif_pos":-1,"best_pos":3,"similarity":0.368},{"voice":2,"pitch":81,"start":113.625,"duration":0.0625,"velocity":66,"measure":57,"beat":4.25,"subject_pos":-1,"motif":"","motif_pos":-1,"best_pos":1,"similarity":0.436},{"voice":4,"pitch":69,"start":113.625,"duration":0.125,"velocity":75,"measure":57,"beat":4.25,"subject_pos":5,"motif":"subject","motif_pos":5,"best_pos":5,"similarity":1.0},{"voice":6,"pitch":80,"start":113.625,"duration":0.125,"velocity":85,"measure":57,"beat":4.25,"subject_pos":-1,"motif":"","motif_pos":-1,"best_pos":5,"similarity":0.55},{"voice":2,"pitch":77,"start":113.6875,"duration":0.0625,"velocity":69,"measure":57,"beat":4.375,"subject_pos":-1,"motif":"","motif_pos":-1,"best_pos":2,"similarity":0.586},{"voice":2,"pitch":74,"start":113.75,"duration":0.0625,"velocity":72,"measure":57,"beat":4.5,"subject_pos":-1,"motif":"","motif_pos":-1,"best_pos":3,"similarity":0.457},{"voice":4,"pitch":71,"start":113.75,"duration":0.125,"velocity":75,"measure":57,"beat":4.5,"subject_pos":6,"motif":"subject","motif_pos":6,"best_pos":6,"similarity":1.0},{"voice":6,"pitch":82,"start":113.75,"duration":0.125,"velocity":105,"measure":57,"beat":4.5,"subject_pos":-1,"motif":"","motif_pos":-1,"best_pos":6,"similarity":0.421},{"voice":8,"pitch":74,"start":113.75,"duration":0.25,"velocity":106,"measure":57,"beat":4.5,"subject_pos":-1,"motif":"","motif_pos":-1,"best_pos":4,"similarity":0.389},{"voice":2,"pitch":69,"start":113.8125,"duration":0.0625,"velocity":75,"measure":57,"beat":4.625,"subject_pos":-1,"motif":"","motif_pos":-1,"best_pos":1,"similarity":0.429},{"voice":2,"pitch":65,"start":113.875,"duration":0.0625,"velocity":78,"measure":57,"beat":4.75,"subject_pos":-1,"motif":"","motif_pos":-1,"best_pos":2,"similarity":0.579},{"voice":4,"pitch":72,"start":113.875,"duration":0.125,"velocity":75,"measure":57,"beat":4.75,"subject_pos":7,"motif":"subject","motif_pos":7,"best_pos":7,"similarity":1.0},{"voice":6,"pitch":80,"start":113.875,"duration":0.125,"velocity":85,"measure":57,"beat":4.75,"subject_pos":-1,"motif":"","motif_pos":-1,"best_pos":3,"similarity":0.443},{"voice":2,"pitch":62,"start":113.9375,"duration":0.0625,"velocity":81,"measure":57,"beat":4.875,"subject_pos":-1,"motif":"","motif_pos":-1,"best_pos":3,"similarity":0.479},{"voice":0,"pitch":82,"start":114.0,"duration":0.5,"velocity":95,"measure":58,"beat":1.0,"subject_pos":4,"motif":"subject_inv","motif_pos":4,"best_pos":4,"similarity":1.0},{"voice":2,"pitch":70,"start":114.0,"duration":0.0625,"velocity":60,"measure":58,"beat":1.0,"subject_pos":-1,"motif":"","motif_pos":-1,"best_pos":4,"similarity":0.321},{"voice":3,"pitch":36,"start":114.0,"duration":0.25,"velocity":105,"measure":58,"beat":1.0,"subject_pos":-1,"motif":"","motif_pos":-1,"best_pos":3,"similarity":0.268},{"voice":4,"pitch":64,"start":114.0,"duration":0.125,"velocity":75,"measure":58,"beat":1.0,"subject_pos":0,"motif":"subject","motif_pos":0,"best_pos":0,"similarity":1.0},{"voice":5,"pitch":58,"start":114.0,"duration":0.25,"velocity":85,"measure":58,"beat":1.0,"subject_pos":-1,"motif":"","motif_pos":-1,"best_pos":0,"similarity":0.143},{"voice":5,"pitch":62,"start":114.0,"duration":0.25,"velocity":85,"measure":58,"beat":1.0,"subject_pos":-1,"motif":"","motif_pos":-1,"best_pos":5,"similarity":0.186},{"voice":5,"pitch":65,"start":114.0,"duration":0.25,"velocity":85,"measure":58,"beat":1.0,"subject_pos":-1,"motif":"","motif_pos":-1,"best_pos":0,"similarity":0.286},{"voice":5,"pitch":70,"start":114.0,"duration":0.25,"velocity":85,"measure":58,"beat":1.0,"subject_pos":-1,"motif":"","motif_pos":-1,"best_pos":1,"similarity":0.286},{"voice":5,"pitch":74,"start":114.0,"duration":0.25,"velocity":85,"measure":58,"beat":1.0,"subject_pos":-1,"motif":"","motif_pos":-1,"best_pos":5,"similarity":0.171},{"voice":5,"pitch":77,"start":114.0,"duration":0.25,"velocity":85,"measure":58,"beat":1.0,"subject_pos":-1,"motif":"","motif_pos":-1,"best_pos":6,"similarity":0.157},{"voice":6,"pitch":80,"start":114.0,"duration":0.125,"velocity":60,"measure":58,"beat":1.0,"subject_pos":-1,"motif":"","motif_pos":-1,"best_pos":4,"similarity":0.514},{"voice":7,"pitch":36,"start":114.0,"duration":0.25,"velocity":115,"measure":58,"beat":1.0,"subject_pos":-1,"motif":"","motif_pos":-1,"best_pos":4,"similarity":0.389},{"voice":8,"pitch":74,"start":114.0,"duration":0.25,"velocity":108,"measure":58,"beat":1.0,"subject_pos":-1,"motif":"","motif_pos":-1,"best_pos":4,"similarity":0.389},{"voice":10,"pitch":57,"start":114.0,"duration":0.25,"velocity":88,"measure":58,"beat":1.0,"subject_pos":0,"motif":"subject_inv","motif_pos":0,"best_pos":0,"similarity":1.0},{"voice":11,"pitch":73,"start":114.0,"duration":0.5,"velocity":110,"measure":58,"beat":1.0,"subject_pos":4,"motif":"subject","motif_pos":4,"best_pos":4,"similarity":1.0},{"voice":2,"pitch":74,"start":114.0625,"duration":0.0625,"velocity":63,"measure":58,"beat":1.125,"subject_pos":-1,"motif":"","motif_pos":-1,"best_pos":5,"similarity":0.257},{"voice":2,"pitch":77,"start":114.125,"duration":0.0625,"velocity":66,"measure":58,"beat":1.25,"subject_pos":-1,"motif":"","motif_pos":-1,"best_pos":0,"similarity":0.286},{"voice":4,"pitch":71,"start":114.125,"duration":0.125,"velocity":75,"measure":58,"beat":1.25,"subject_pos":1,"motif":"subject","motif_pos":1,"best_pos":1,"similarity":1.0},{"voice":6,"pitch":80,"start":114.125,"duration":0.125,"velocity":85,"measure":58,"beat":1.25,"subject_pos":-1,"motif":"","motif_pos":-1,"best_pos":5,"similarity":0.55},{"voice":2,"pitch":82,"start":114.1875,"duration":0.0625,"velocity":69,"measure":58,"beat":1.375,"subject_pos":-1,"motif":"","motif_pos":-1,"best_pos":1,"similarity":0.286},{"voice":2,"pitch":86,"start":114.25,"duration":0.0625,"velocity":72,"measure":58,"beat":1.5,"subject_pos":-1,"motif":"","motif_pos":-1,"best_pos":5,"similarity":0.186},{"voice":4,"pitch":67,"start":114.25,"duration":0.125,"velocity":75,"measure":58,"beat":1.5,"subject_pos":2,"motif":"subject","motif_pos":2,"best_pos":2,"similarity":1.0},{"voice":6,"pitch":82,"start":114.25,"duration":0.125,"velocity":105,"measure":58,"beat":1.5,"subject_pos":-1,"motif":"","motif_pos":-1,"best_pos":6,"similarity":0.421},{"voice":8,"pitch":74,"start":114.25,"duration":0.25,"velocity":110,"measure":58,"beat":1.5,"subject_pos":-1,"motif":"","motif_pos":-1,"best_pos":4,"similarity":0.389},{"voice":10,"pitch":50,"start":114.25,"duration":0.25,"velocity":88,"measure":58,"beat":1.5,"subject_pos":1,"motif":"subject_inv","motif_pos":1,"best_pos":1,"similarity":1.0},{"voice":2,"pitch":89,"start":114.3125,"duration":0.0625,"velocity":75,"measure":58,"beat":1.625,"subject_pos":-1,"motif":"","motif_pos":-1,"best_pos":0,"similarity":0.293},{"voice":2,"pitch":94,"start":114.375,"duration":0.0625,"velocity":78,"measure":58,"beat":1.75,"subject_pos":-1,"motif":"","motif_pos":-1,"best_pos":1,"similarity":0.307},{"voice":4,"pitch":64,"start":114.375,"duration":0.125,"velocity":75,"measure":58,"beat":1.75,"subject_pos":3,"motif":"subject","motif_pos":3,"best_pos":3,"similarity":1.0},{"voice":6,"pitch":80,"start":114.375,"duration":0.125,"velocity":85,"measure":58,"beat":1.75,"subject_pos":-1,"motif":"","motif_pos":-1,"best_pos":3,"similarity":0.443},{"voice":2,"pitch":98,"start":114.4375,"duration":0.0625,"velocity":81,"measure":58,"beat":1.875,"subject_pos":-1,"motif":"","motif_pos":-1,"best_pos":1,"similarity":0.293},{"voice":0,"pitch":81,"start":114.5,"duration":0.25,"velocity":95,"measure":58,"beat":2.0,"subject_pos":5,"motif":"subject_inv","motif_pos":5,"best_pos":5,"similarity":1.0},{"voice":2,"pitch":98,"start":114.5,"duration":0.0625,"velocity":60,"measure":58,"beat":2.0,"subject_pos":-1,"motif":"","motif_pos":-1,"best_pos":1,"similarity":0.339},{"voice":3,"pitch":36,"start":114.5,"duration":0.25,"velocity":105,"measure":58,"beat":2.0,"subject_pos":-1,"motif":"","motif_pos":-1,"best_pos":4,"similarity":0.375},{"voice":4,"pitch":63,"start":114.5,"duration":0.125,"velocity":75,"measure":58,"beat":2.0,"subject_pos":4,"motif":"subject","motif_pos":4,"best_pos":4,"similarity":1.0},{"voice":5,"pitch":58,"start":114.5,"duration":0.25,"velocity":85,"measure":58,"beat":2.0,"subject_pos":-1,"motif":"","motif_pos":-1,"best_pos":0,"similarity":0.143},{"voice":5,"pitch":62,"start":114.5,"duration":0.25,"velocity":85,"measure":58,"beat":2.0,"subject_pos":-1,"motif":"","motif_pos":-1,"best_pos":5,"similarity":0.186},{"voice":5,"pitch":65,"start":114.5,"duration":0.25,"velocity":85,"measure":58,"beat":2.0,"subject_pos":-1,"motif":"","motif_pos":-1,"best_pos":0,"similarity":0.286},{"voice":5,"pitch":70,"start":114.5,"duration":0.25,"velocity":85,"measure":58,"beat":2.0,"subject_pos":-1,"motif":"","motif_pos":-1,"best_pos":1,"similarity":0.286},{"voice":5,"pitch":74,"start":114.5,"duration":0.25,"velocity":85,"measure":58,"beat":2.0,"subject_pos":-1,"motif":"","motif_pos":-1,"best_pos":5,"similarity":0.171},{"voice":5,"pitch":77,"start":114.5,"duration":0.25,"velocity":85,"measure":58,"beat":2.0,"subject_pos":-1,"motif":"","motif_pos":-1,"best_pos":6,"similarity":0.157},{"voice":6,"pitch":80,"start":114.5,"duration":0.125,"velocity":60,"measure":58,"beat":2.0,"subject_pos":-1,"motif":"","motif_pos":-1,"best_pos":4,"similarity":0.514},{"voice":7,"pitch":36,"start":114.5,"duration":0.25,"velocity":115,"measure":58,"beat":2.0,"subject_pos":-1,"motif":"","motif_pos":-1,"best_pos":4,"similarity":0.389},{"voice":8,"pitch":74,"start":114.5,"duration":0.25,"velocity":100,"measure":58,"beat":2.0,"subject_pos":-1,"motif":"","motif_pos":-1,"best_pos":4,"similarity":0.389},{"voice":10,"pitch":54,"start":114.5,"duration":0.25,"velocity":88,"measure":58,"beat":2.0,"subject_pos":2,"motif":"subject_inv","motif_pos":2,"best_pos":2,"similarity":1.0},{"voice":11,"pitch":74,"start":114.5,"duration":0.25,"velocity":110,"measure":58,"beat":2.0,"subject_pos":5,"motif":"subject","motif_pos":5,"best_pos":5,"similarity":1.0},{"voice":2,"pitch":94,"start":114.5625,"duration":0.0625,"velocity":63,"measure":58,"beat":2.125,"subject_pos":-1,"motif":"","motif_pos":-1,"best_pos":2,"similarity":0.393},{"voice":2,"pitch":89,"start":114.625,"duration":0.0625,"velocity":66,"measure":58,"beat":2.25,"subject_pos":-1,"motif":"","motif_pos":-1,"best_pos":2,"similarity":0.443},{"voice":4,"pitch":64,"start":114.625,"duration":0.125,"velocity":75,"measure":58,"beat":2.25,"subject_pos":5,"motif":"subject","motif_pos":5,"best_pos":5,"similarity":1.0},{"voice":6,"pitch":80,"start":114.625,"duration":0.125,"velocity":85,"measure":58,"beat":2.25,"subject_pos":-1,"motif":"","motif_pos":-1,"best_pos":5,"similarity":0.55},{"voice":2,"pitch":86,"start":114.6875,"duration":0.0625,"velocity":69,"measure":58,"beat":2.375,"subject_pos":-1,"motif":"","motif_pos":-1,"best_pos":3,"similarity":0.386},{"voice":0,"pitch":79,"start":114.75,"duration":0.25,"velocity":95,"measure":58,"beat":2.5,"subject_pos":6,"motif":"subject_inv","motif_pos":6,"best_pos":6,"similarity":1.0},{"voice":2,"pitch":82,"start":114.75,"duration":0.0625,"velocity":72,"measure":58,"beat":2.5,"subject_pos":-1,"motif":"","motif_pos":-1,"best_pos":2,"similarity":0.393},{"voice":4,"pitch":66,"start":114.75,"duration":0.125,"velocity":75,"measure":58,"beat":2.5,"subject_pos":6,"motif":"subject","motif_pos":6,"best_pos":6,"similarity":1.0},{"voice":6,"pitch":82,"start":114.75,"duration":0.125,"velocity":105,"measure":58,"beat":2.5,"subject_pos":-1,"motif":"","motif_pos":-1,"best_pos":6,"similarity":0.421},{"voice":8,"pitch":74,"start":114.75,"duration":0.25,"velocity":114,"measure":58,"beat":2.5,"subject_pos":-1,"motif":"","motif_pos":-1,"best_pos":4,"similarity":0.389},{"voice":10,"pitch":57,"start":114.75,"duration":0.25,"velocity":88,"measure":58,"beat":2.5,"subject_pos":3,"motif":"subject_inv","motif_pos":3,"best_pos":3,"similarity":1.0},{"voice":11,"pitch":76,"start":114.75,"duration":0.25,"velocity":110,"measure":58,"beat":2.5,"subject_pos":6,"motif":"subject","motif_pos":6,"best_pos":6,"similarity":1.0},{"voice":2,"pitch":77,"start":114.8125,"duration":0.0625,"velocity":75,"measure":58,"beat":2.625,"subject_pos":-1,"motif":"","motif_pos":-1,"best_pos":2,"similarity":0.479},{"voice":2,"pitch":74,"start":114.875,"duration":0.0625,"velocity":78,"measure":58,"beat":2.75,"subject_pos":-1,"motif":"","motif_pos":-1,"best_pos":3,"similarity":0.475},{"voice":4,"pitch":67,"start":114.875,"duration":0.125,"velocity":75,"measure":58,"beat":2.75,"subject_pos":7,"motif":"subject","motif_pos":7,"best_pos":7,"similarity":1.0},{"voice":6,"pitch":80,"start":114.875,"duration":0.125,"velocity":85,"measure":58,"beat":2.75,"subject_pos":-1,"motif":"","motif_pos":-1,"best_pos":3,"similarity":0.443},{"voice":2,"pitch":70,"start":114.9375,"duration":0.0625,"velocity":81,"measure":58,"beat":2.875,"subject_pos":-1,"motif":"","motif_pos":-1,"best_pos":3,"similarity":0.407},{"voice":0,"pitch":78,"start":115.0,"duration":1.0,"velocity":95,"measure":58,"beat":3.0,"subject_pos":7,"motif":"subject_inv","motif_pos":7,"best_pos":7,"similarity":1.0},{"voice":2,"pitch":70,"start":115.0,"duration":0.0625,"velocity":60,"measure":58,"beat":3.0,"subject_pos":-1,"motif":"","motif_pos":-1,"best_pos":4,"similarity":0.357},{"voice":3,"pitch":36,"start":115.0,"duration":0.25,"velocity":105,"measure":58,"beat":3.0,"subject_pos":-1,"motif":"","motif_pos":-1,"best_pos":4,"similarity":0.479},{"voice":4,"pitch":59,"start":115.0,"duration":0.125,"velocity":75,"measure":58,"beat":3.0,"subject_pos":0,"motif":"subject","motif_pos":0,"best_pos":0,"similarity":1.0},{"voice":5,"pitch":58,"start":115.0,"duration":0.25,"velocity":85,"measure":58,"beat":3.0,"subject_pos":-1,"motif":"","motif_pos":-1,"best_pos":0,"similarity":0.143},{"voice":5,"pitch":62,"start":115.0,"duration":0.25,"velocity":85,"measure":58,"beat":3.0,"subject_pos":-1,"motif":"","motif_pos":-1,"best_pos":5,"similarity":0.186},{"voice":5,"pitch":65,"start":115.0,"duration":0.25,"velocity":85,"measure":58,"beat":3.0,"subject_pos":-1,"motif":"","motif_pos":-1,"best_pos":0,"similarity":0.286},{"voice":5,"pitch":70,"start":115.0,"duration":0.25,"velocity":85,"measure":58,"beat":3.0,"subject_pos":-1,"motif":"","motif_pos":-1,"best_pos":1,"similarity":0.286},{"voice":5,"pitch":74,"start":115.0,"duration":0.25,"velocity":85,"measure":58,"beat":3.0,"subject_pos":-1,"motif":"","motif_pos":-1,"best_pos":5,"similarity":0.171},{"voice":5,"pitch":77,"start":115.0,"duration":0.25,"velocity":85,"measure":58,"beat":3.0,"subject_pos":-1,"motif":"","motif_pos":-1,"best_pos":6,"similarity":0.157},{"voice":6,"pitch":80,"start":115.0,"duration":0.125,"velocity":60,"measure":58,"beat":3.0,"subject_pos":-1,"motif":"","motif_pos":-1,"best_pos":4,"similarity":0.514},{"voice":7,"pitch":36,"start":115.0,"duration":0.25,"velocity":115,"measure":58,"beat":3.0,"subject_pos":-1,"motif":"","motif_pos":-1,"best_pos":4,"similarity":0.389},{"voice":8,"pitch":74,"start":115.0,"duration":0.25,"velocity":116,"measure":58,"beat":3.0,"subject_pos":-1,"motif":"","motif_pos":-1,"best_pos":4,"similarity":0.389},{"voice":10,"pitch":58,"start":115.0,"duration":0.25,"velocity":88,"measure":58,"beat":3.0,"subject_pos":4,"motif":"subject_inv","motif_pos":4,"best_pos":4,"similarity":1.0},{"voice":11,"pitch":77,"start":115.0,"duration":1.0,"velocity":110,"measure":58,"beat":3.0,"subject_pos":7,"motif":"subject","motif_pos":7,"best_pos":7,"similarity":1.0},{"voice":2,"pitch":74,"start":115.0625,"duration":0.0625,"velocity":63,"measure":58,"beat":3.125,"subject_pos":-1,"motif":"","motif_pos":-1,"best_pos":5,"similarity":0.293},{"voice":2,"pitch":77,"start":115.125,"duration":0.0625,"velocity":66,"measure":58,"beat":3.25,"subject_pos":-1,"motif":"","motif_pos":-1,"best_pos":0,"similarity":0.286},{"voice":4,"pitch":66,"start":115.125,"duration":0.125,"velocity":75,"measure":58,"beat":3.25,"subject_pos":1,"motif":"subject","motif_pos":1,"best_pos":1,"similarity":1.0},{"voice":6,"pitch":80,"start":115.125,"duration":0.125,"velocity":85,"measure":58,"beat":3.25,"subject_pos":-1,"motif":"","motif_pos":-1,"best_pos":5,"similarity":0.55},{"voice":2,"pitch":82,"start":115.1875,"duration":0.0625,"velocity":69,"measure":58,"beat":3.375,"subject_pos":-1,"motif":"","motif_pos":-1,"best_pos":1,"similarity":0.286},{"voice":2,"pitch":86,"start":115.25,"duration":0.0625,"velocity":72,"measure":58,"beat":3.5,"subject_pos":-1,"motif":"","motif_pos":-1,"best_pos":5,"similarity":0.186},{"voice":4,"pitch":62,"start":115.25,"duration":0.125,"velocity":75,"measure":58,"beat":3.5,"subject_pos":2,"motif":"subject","motif_pos":2,"best_pos":2,"similarity":1.0},{"voice":6,"pitch":82,"start":115.25,"duration":0.125,"velocity":105,"measure":58,"beat":3.5,"subject_pos":-1,"motif":"","motif_pos":-1,"best_pos":6,"similarity":0.421},{"voice":8,"pitch":74,"start":115.25,"duration":0.25,"velocity":118,"measure":58,"beat":3.5,"subject_pos":-1,"motif":"","motif_pos":-1,"best_pos":4,"similarity":0.389},{"voice":10,"pitch":57,"start":115.25,"duration":0.125,"velocity":88,"measure":58,"beat":3.5,"subject_pos":5,"motif":"subject_inv","motif_pos":5,"best_pos":5,"similarity":1.0},{"voice":2,"pitch":89,"start":115.3125,"duration":0.0625,"velocity":75,"measure":58,"beat":3.625,"subject_pos":-1,"motif":"","motif_pos":-1,"best_pos":0,"similarity":0.293},{"voice":2,"pitch":94,"start":115.375,"duration":0.0625,"velocity":78,"measure":58,"beat":3.75,"subject_pos":-1,"motif":"","motif_pos":-1,"best_pos":1,"similarity":0.307},{"voice":4,"pitch":59,"start":115.375,"duration":0.125,"velocity":75,"measure":58,"beat":3.75,"subject_pos":3,"motif":"subject","motif_pos":3,"best_pos":3,"similarity":1.0},{"voice":6,"pitch":80,"start":115.375,"duration":0.125,"velocity":85,"measure":58,"beat":3.75,"subject_pos":-1,"motif":"","motif_pos":-1,"best_pos":3,"similarity":0.443},{"voice":10,"pitch":55,"start":115.375,"duration":0.125,"velocity":88,"measure":58,"beat":3.75,"subject_pos":6,"motif":"subject_inv","motif_pos":6,"best_pos":6,"similarity":1.0},{"voice":2,"pitch":98,"start":115.4375,"duration":0.0625,"velocity":81,"measure":58,"beat":3.875,"subject_pos":-1,"motif":"","motif_pos":-1,"best_pos":1,"similarity":0.293},{"voice":2,"pitch":98,"start":115.5,"duration":0.0625,"velocity":60,"measure":58,"beat":4.0,"subject_pos":-1,"motif":"","motif_pos":-1,"best_pos":1,"similarity":0.339},{"voice":3,"pitch":36,"start":115.5,"duration":0.25,"velocity":105,"measure":58,"beat":4.0,"subject_pos":-1,"motif":"","motif_pos":-1,"best_pos":5,"similarity":0.579},{"voice":4,"pitch":58,"start":115.5,"duration":0.125,"velocity":75,"measure":58,"beat":4.0,"subject_pos":4,"motif":"subject","motif_pos":4,"best_pos":4,"similarity":1.0},{"voice":5,"pitch":58,"start":115.5,"duration":0.25,"velocity":85,"measure":58,"beat":4.0,"subject_pos":-1,"motif":"","motif_pos":-1,"best_pos":0,"similarity":0.143},{"voice":5,"pitch":62,"start":115.5,"duration":0.25,"velocity":85,"measure":58,"beat":4.0,"subject_pos":-1,"motif":"","motif_pos":-1,"best_pos":5,"similarity":0.186},{"voice":5,"pitch":65,"start":115.5,"duration":0.25,"velocity":85,"measure":58,"beat":4.0,"subject_pos":-1,"motif":"","motif_pos":-1,"best_pos":0,"similarity":0.286},{"voice":5,"pitch":70,"start":115.5,"duration":0.25,"velocity":85,"measure":58,"beat":4.0,"subject_pos":-1,"motif":"","motif_pos":-1,"best_pos":1,"similarity":0.286},{"voice":5,"pitch":74,"start":115.5,"duration":0.25,"velocity":85,"measure":58,"beat":4.0,"subject_pos":-1,"motif":"","motif_pos":-1,"best_pos":5,"similarity":0.171},{"voice":5,"pitch":77,"start":115.5,"duration":0.25,"velocity":85,"measure":58,"beat":4.0,"subject_pos":-1,"motif":"","motif_pos":-1,"best_pos":6,"similarity":0.157},{"voice":6,"pitch":80,"start":115.5,"duration":0.125,"velocity":60,"measure":58,"beat":4.0,"subject_pos":-1,"motif":"","motif_pos":-1,"best_pos":4,"similarity":0.514},{"voice":7,"pitch":36,"start":115.5,"duration":0.25,"velocity":115,"measure":58,"beat":4.0,"subject_pos":-1,"motif":"","motif_pos":-1,"best_pos":4,"similarity":0.389},{"voice":8,"pitch":74,"start":115.5,"duration":0.25,"velocity":100,"measure":58,"beat":4.0,"subject_pos":-1,"motif":"","motif_pos":-1,"best_pos":4,"similarity":0.389},{"voice":10,"pitch":54,"start":115.5,"duration":0.5,"velocity":88,"measure":58,"beat":4.0,"subject_pos":7,"motif":"subject_inv","motif_pos":7,"best_pos":7,"similarity":1.0},{"voice":2,"pitch":94,"start":115.5625,"duration":0.0625,"velocity":63,"measure":58,"beat":4.125,"subject_pos":-1,"motif":"","motif_pos":-1,"best_pos":2,"similarity":0.393},{"voice":2,"pitch":89,"start":115.625,"duration":0.0625,"velocity":66,"measure":58,"beat":4.25,"subject_pos":-1,"motif":"","motif_pos":-1,"best_pos":2,"similarity":0.443},{"voice":4,"pitch":59,"start":115.625,"duration":0.125,"velocity":75,"measure":58,"beat":4.25,"subject_pos":5,"motif":"subject","motif_pos":5,"best_pos":5,"similarity":1.0},{"voice":6,"pitch":80,"start":115.625,"duration":0.125,"velocity":85,"measure":58,"beat":4.25,"subject_pos":-1,"motif":"","motif_pos":-1,"best_pos":5,"similarity":0.55},{"voice":2,"pitch":86,"start":115.6875,"duration":0.0625,"velocity":69,"measure":58,"beat":4.375,"subject_pos":-1,"motif":"","motif_pos":-1,"best_pos":3,"similarity":0.386},{"voice":2,"pitch":82,"start":115.75,"duration":0.0625,"velocity":72,"measure":58,"beat":4.5,"subject_pos":-1,"motif":"","motif_pos":-1,"best_pos":2,"similarity":0.393},{"voice":4,"pitch":61,"start":115.75,"duration":0.125,"velocity":75,"measure":58,"beat":4.5,"subject_pos":6,"motif":"subject","motif_pos":6,"best_pos":6,"similarity":1.0},{"voice":6,"pitch":82,"start":115.75,"duration":0.125,"velocity":105,"measure":58,"beat":4.5,"subject_pos":-1,"motif":"","motif_pos":-1,"best_pos":6,"similarity":0.421},{"voice":8,"pitch":74,"start":115.75,"duration":0.25,"velocity":122,"measure":58,"beat":4.5,"subject_pos":-1,"motif":"","motif_pos":-1,"best_pos":4,"similarity":0.389},{"voice":2,"pitch":77,"start":115.8125,"duration":0.0625,"velocity":75,"measure":58,"beat":4.625,"subject_pos":-1,"motif":"","motif_pos":-1,"best_pos":2,"similarity":0.443},{"voice":2,"pitch":74,"start":115.875,"duration":0.0625,"velocity":78,"measure":58,"beat":4.75,"subject_pos":-1,"motif":"","motif_pos":-1,"best_pos":3,"similarity":0.404},{"voice":4,"pitch":62,"start":115.875,"duration":0.125,"velocity":75,"measure":58,"beat":4.75,"subject_pos":7,"motif":"subject","motif_pos":7,"best_pos":7,"similarity":1.0},{"voice":6,"pitch":80,"start":115.875,"duration":0.125,"velocity":85,"measure":58,"beat":4.75,"subject_pos":-1,"motif":"","motif_pos":-1,"best_pos":3,"similarity":0.443},{"voice":2,"pitch":70,"start":115.9375,"duration":0.0625,"velocity":81,"measure":58,"beat":4.875,"subject_pos":-1,"motif":"","motif_pos":-1,"best_pos":2,"similarity":0.304},{"voice":0,"pitch":76,"start":116.0,"duration":0.5,"velocity":90,"measure":59,"beat":1.0,"subject_pos":0,"motif":"subject","motif_pos":0,"best_pos":0,"similarity":1.0},{"voice":2,"pitch":60,"start":116.0,"duration":0.0625,"velocity":60,"measure":59,"beat":1.0,"subject_pos":-1,"motif":"","motif_pos":-1,"best_pos":4,"similarity":0.225},{"voice":3,"pitch":38,"start":116.0,"duration":0.25,"velocity":105,"measure":59,"beat":1.0,"subject_pos":-1,"motif":"","motif_pos":-1,"best_pos":6,"similarity":0.536},{"voice":4,"pitch":74,"start":116.0,"duration":0.125,"velocity":75,"measure":59,"beat":1.0,"subject_pos":0,"motif":"subject","motif_pos":0,"best_pos":0,"similarity":1.0},{"voice":5,"pitch":60,"start":116.0,"duration":0.25,"velocity":85,"measure":59,"beat":1.0,"subject_pos":-1,"motif":"","motif_pos":-1,"best_pos":0,"similarity":0.143},{"voice":5,"pitch":64,"start":116.0,"duration":0.25,"velocity":85,"measure":59,"beat":1.0,"subject_pos":-1,"motif":"","motif_pos":-1,"best_pos":5,"similarity":0.207},{"voice":5,"pitch":67,"start":116.0,"duration":0.25,"velocity":85,"measure":59,"beat":1.0,"subject_pos":-1,"motif":"","motif_pos":-1,"best_pos":5,"similarity":0.286},{"voice":5,"pitch":70,"start":116.0,"duration":0.25,"velocity":85,"measure":59,"beat":1.0,"subject_pos":-1,"motif":"","motif_pos":-1,"best_pos":5,"similarity":0.386},{"voice":5,"pitch":72,"start":116.0,"duration":0.25,"velocity":85,"measure":59,"beat":1.0,"subject_pos":-1,"motif":"","motif_pos":-1,"best_pos":6,"similarity":0.357},{"voice":5,"pitch":76,"start":116.0,"duration":0.25,"velocity":85,"measure":59,"beat":1.0,"subject_pos":-1,"motif":"","motif_pos":-1,"best_pos":5,"similarity":0.221},{"voice":5,"pitch":79,"start":116.0,"duration":0.25,"velocity":85,"measure":59,"beat":1.0,"subject_pos":-1,"motif":"","motif_pos":-1,"best_pos":6,"similarity":0.236},{"voice":5,"pitch":82,"start":116.0,"duration":0.25,"velocity":85,"measure":59,"beat":1.0,"subject_pos":-1,"motif":"","motif_pos":-1,"best_pos":6,"similarity":0.179},{"voice":6,"pitch":80,"start":116.0,"duration":0.125,"velocity":60,"measure":59,"beat":1.0,"subject_pos":-1,"motif":"","motif_pos":-1,"best_pos":4,"similarity":0.514},{"voice":7,"pitch":36,"start":116.0,"duration":0.25,"velocity":115,"measure":59,"beat":1.0,"subject_pos":-1,"motif":"","motif_pos":-1,"best_pos":4,"similarity":0.389},{"voice":10,"pitch":52,"start":116.0,"duration":0.25,"velocity":90,"measure":59,"beat":1.0,"subject_pos":0,"motif":"subject","motif_pos":0,"best_pos":0,"similarity":1.0},{"voice":11,"pitch":69,"start":116.0,"duration":0.5,"velocity":105,"measure":59,"beat":1.0,"subject_pos":0,"motif":"subject_inv","motif_pos":0,"best_pos":0,"similarity":1.0},{"voice":2,"pitch":64,"start":116.0625,"duration":0.0625,"velocity":63,"measure":59,"beat":1.125,"subject_pos":-1,"motif":"","motif_pos":-1,"best_pos":4,"similarity":0.25},{"voice":2,"pitch":67,"start":116.125,"duration":0.0625,"velocity":66,"measure":59,"beat":1.25,"subject_pos":-1,"motif":"","motif_pos":-1,"best_pos":5,"similarity":0.286},{"voice":4,"pitch":81,"start":116.125,"duration":0.125,"velocity":75,"measure":59,"beat":1.25,"subject_pos":1,"motif":"subject","motif_pos":1,"best_pos":1,"similarity":1.0},{"voice":6,"pitch":80,"start":116.125,"duration":0.125,"velocity":85,"measure":59,"beat":1.25,"subject_pos":-1,"motif":"","motif_pos":-1,"best_pos":5,"similarity":0.55},{"voice":2,"pitch":70,"start":116.1875,"duration":0.0625,"velocity":69,"measure":59,"beat":1.375,"subject_pos":-1,"motif":"","motif_pos":-1,"best_pos":5,"similarity":0.386},{"voice":2,"pitch":72,"start":116.25,"duration":0.0625,"velocity":72,"measure":59,"beat":1.5,"subject_pos":-1,"motif":"","motif_pos":-1,"best_pos":6,"similarity":0.357},{"voice":4,"pitch":77,"start":116.25,"duration":0.125,"velocity":75,"measure":59,"beat":1.5,"subject_pos":2,"motif":"subject","motif_pos":2,"best_pos":2,"similarity":1.0},{"voice":6,"pitch":82,"start":116.25,"duration":0.125,"velocity":105,"measure":59,"beat":1.5,"subject_pos":-1,"motif":"","motif_pos":-1,"best_pos":6,"similarity":0.421},{"voice":10,"pitch":59,"start":116.25,"duration":0.25,"velocity":90,"measure":59,"beat":1.5,"subject_pos":1,"motif":"subject","motif_pos":1,"best_pos":1,"similarity":1.0},{"voice":2,"pitch":76,"start":116.3125,"duration":0.0625,"velocity":75,"measure":59,"beat":1.625,"subject_pos":-1,"motif":"","motif_pos":-1,"best_pos":5,"similarity":0.221},{"voice":2,"pitch":79,"start":116.375,"duration":0.0625,"velocity":78,"measure":59,"beat":1.75,"subject_pos":-1,"motif":"","motif_pos":-1,"best_pos":5,"similarity":0.286},{"voice":4,"pitch":74,"start":116.375,"duration":0.125,"velocity":75,"measure":59,"beat":1.75,"subject_pos":3,"motif":"subject","motif_pos":3,"best_pos":3,"similarity":1.0},{"voice":6,"pitch":80,"start":116.375,"duration":0.125,"velocity":85,"measure":59,"beat":1.75,"subject_pos":-1,"motif":"","motif_pos":-1,"best_pos":3,"similarity":0.443},{"voice":2,"pitch":82,"start":116.4375,"duration":0.0625,"velocity":81,"measure":59,"beat":1.875,"subject_pos":-1,"motif":"","motif_pos":-1,"best_pos":5,"similarity":0.386},{"voice":0,"pitch":83,"start":116.5,"duration":0.5,"velocity":90,"measure":59,"beat":2.0,"subject_pos":1,"motif":"subject","motif_pos":1,"best_pos":1,"similarity":1.0},{"voice":2,"pitch":84,"start":116.5,"duration":0.0625,"velocity":60,"measure":59,"beat":2.0,"subject_pos":-1,"motif":"","motif_pos":-1,"best_pos":6,"similarity":0.357},{"voice":3,"pitch":38,"start":116.5,"duration":0.25,"velocity":105,"measure":59,"beat":2.0,"subject_pos":-1,"motif":"","motif_pos":-1,"best_pos":4,"similarity":0.346},{"voice":4,"pitch":73,"start":116.5,"duration":0.125,"velocity":75,"measure":59,"beat":2.0,"subject_pos":4,"motif":"subject","motif_pos":4,"best_pos":4,"similarity":1.0},{"voice":5,"pitch":60,"start":116.5,"duration":0.25,"velocity":85,"measure":59,"beat":2.0,"subject_pos":-1,"motif":"","motif_pos":-1,"best_pos":0,"similarity":0.143},{"voice":5,"pitch":64,"start":116.5,"duration":0.25,"velocity":85,"measure":59,"beat":2.0,"subject_pos":-1,"motif":"","motif_pos":-1,"best_pos":5,"similarity":0.207},{"voice":5,"pitch":67,"start":116.5,"duration":0.25,"velocity":85,"measure":59,"beat":2.0,"subject_pos":-1,"motif":"","motif_pos":-1,"best_pos":5,"similarity":0.286},{"voice":5,"pitch":70,"start":116.5,"duration":0.25,"velocity":85,"measure":59,"beat":2.0,"subject_pos":-1,"motif":"","motif_pos":-1,"best_pos":5,"similarity":0.386},{"voice":5,"pitch":72,"start":116.5,"duration":0.25,"velocity":85,"measure":59,"beat":2.0,"subject_pos":-1,"motif":"","motif_pos":-1,"best_pos":6,"similarity":0.357},{"voice":5,"pitch":76,"start":116.5,"duration":0.25,"velocity":85,"measure":59,"beat":2.0,"subject_pos":-1,"motif":"","motif_pos":-1,"best_pos":5,"similarity":0.221},{"voice":5,"pitch":79,"start":116.5,"duration":0.25,"velocity":85,"measure":59,"beat":2.0,"subject_pos":-1,"motif":"","motif_pos":-1,"best_pos":6,"similarity":0.236},{"voice":5,"pitch":82,"start":116.5,"duration":0.25,"velocity":85,"measure":59,"beat":2.0,"subject_pos":-1,"motif":"","motif_pos":-1,"best_pos":6,"similarity":0.179},{"voice":6,"pitch":80,"start":116.5,"duration":0.125,"velocity":60,"measure":59,"beat":2.0,"subject_pos":-1,"motif":"","motif_pos":-1,"best_pos":4,"similarity":0.514},{"voice":7,"pitch":36,"start":116.5,"duration":0.25,"velocity":115,"measure":59,"beat":2.0,"subject_pos":-1,"motif":"","motif_pos":-1,"best_pos":4,"similarity":0.389},{"voice":8,"pitch":74,"start":116.5,"duration":0.25,"velocity":100,"measure":59,"beat":2.0,"subject_pos":-1,"motif":"","motif_pos":-1,"best_pos":4,"similarity":0.389},{"voice":10,"pitch":55,"start":116.5,"duration":0.25,"velocity":90,"measure":59,"beat":2.0,"subject_pos":2,"motif":"subject","motif_pos":2,"best_pos":2,"similarity":1.0},{"voice":11,"pitch":62,"start":116.5,"duration":0.5,"velocity":105,"measure":59,"beat":2.0,"subject_pos":1,"motif":"subject_inv","motif_pos":1,"best_pos":1,"similarity":1.0},{"voice":2,"pitch":88,"start":116.5625,"duration":0.0625,"velocity":63,"measure":59,"beat":2.125,"subject_pos":-1,"motif":"","motif_pos":-1,"best_pos":1,"similarity":0.321},{"voice":2,"pitch":88,"start":116.625,"duration":0.0625,"velocity":66,"measure":59,"beat":2.25,"subject_pos":-1,"motif":"","motif_pos":-1,"best_pos":1,"similarity":0.375},{"voice":4,"pitch":74,"start":116.625,"duration":0.125,"velocity":75,"measure":59,"beat":2.25,"subject_pos":5,"motif":"subject","motif_pos":5,"best_pos":5,"similarity":1.0},{"voice":6,"pitch":80,"start":116.625,"duration":0.125,"velocity":85,"measure":59,"beat":2.25,"subject_pos":-1,"motif":"","motif_pos":-1,"best_pos":5,"similarity":0.55},{"voice":2,"pitch":84,"start":116.6875,"duration":0.0625,"velocity":69,"measure":59,"beat":2.375,"subject_pos":-1,"motif":"","motif_pos":-1,"best_pos":2,"similarity":0.471},{"voice":2,"pitch":82,"start":116.75,"duration":0.0625,"velocity":72,"measure":59,"beat":2.5,"subject_pos":-1,"motif":"","motif_pos":-1,"best_pos":2,"similarity":0.607},{"voice":4,"pitch":76,"start":116.75,"duration":0.125,"velocity":75,"measure":59,"beat":2.5,"subject_pos":6,"motif":"subject","motif_pos":6,"best_pos":6,"similarity":1.0},{"voice":6,"pitch":82,"start":116.75,"duration":0.125,"velocity":105,"measure":59,"beat":2.5,"subject_pos":-1,"motif":"","motif_pos":-1,"best_pos":6,"similarity":0.421},{"voice":10,"pitch":52,"start":116.75,"duration":0.25,"velocity":90,"measure":59,"beat":2.5,"subject_pos":3,"motif":"subject","motif_pos":3,"best_pos":3,"similarity":1.0},{"voice":2,"pitch":79,"start":116.8125,"duration":0.0625,"velocity":75,"measure":59,"beat":2.625,"subject_pos":-1,"motif":"","motif_pos":-1,"best_pos":3,"similarity":0.507},{"voice":2,"pitch":76,"start":116.875,"duration":0.0625,"velocity":78,"measure":59,"beat":2.75,"subject_pos":-1,"motif":"","motif_pos":-1,"best_pos":3,"similarity":0.4},{"voice":4,"pitch":77,"start":116.875,"duration":0.125,"velocity":75,"measure":59,"beat":2.75,"subject_pos":7,"motif":"subject","motif_pos":7,"best_pos":7,"similarity":1.0},{"voice":6,"pitch":80,"start":116.875,"duration":0.125,"velocity":85,"measure":59,"beat":2.75,"subject_pos":-1,"motif":"","motif_pos":-1,"best_pos":3,"similarity":0.443},{"voice":2,"pitch":72,"start":116.9375,"duration":0.0625,"velocity":81,"measure":59,"beat":2.875,"subject_pos":-1,"motif":"","motif_pos":-1,"best_pos":2,"similarity":0.471},{"voice":0,"pitch":79,"start":117.0,"duration":0.5,"velocity":90,"measure":59,"beat":3.0,"subject_pos":2,"motif":"subject","motif_pos":2,"best_pos":2,"similarity":1.0},{"voice":2,"pitch":70,"start":117.0,"duration":0.0625,"velocity":60,"measure":59,"beat":3.0,"subject_pos":-1,"motif":"","motif_pos":-1,"best_pos":2,"similarity":0.607},{"voice":3,"pitch":38,"start":117.0,"duration":0.25,"velocity":105,"measure":59,"beat":3.0,"subject_pos":-1,"motif":"","motif_pos":-1,"best_pos":4,"similarity":0.343},{"voice":4,"pitch":69,"start":117.0,"duration":0.125,"velocity":75,"measure":59,"beat":3.0,"subject_pos":0,"motif":"subject","motif_pos":0,"best_pos":0,"similarity":1.0},{"voice":5,"pitch":60,"start":117.0,"duration":0.25,"velocity":85,"measure":59,"beat":3.0,"subject_pos":-1,"motif":"","motif_pos":-1,"best_pos":0,"similarity":0.143},{"voice":5,"pitch":64,"start":117.0,"duration":0.25,"velocity":85,"measure":59,"beat":3.0,"subject_pos":-1,"motif":"","motif_pos":-1,"best_pos":5,"similarity":0.207},{"voice":5,"pitch":67,"start":117.0,"duration":0.25,"velocity":85,"measure":59,"beat":3.0,"subject_pos":-1,"motif":"","motif_pos":-1,"best_pos":5,"similarity":0.286},{"voice":5,"pitch":70,"start":117.0,"duration":0.25,"velocity":85,"measure":59,"beat":3.0,"subject_pos":-1,"motif":"","motif_pos":-1,"best_pos":5,"similarity":0.386},{"voice":5,"pitch":72,"start":117.0,"duration":0.25,"velocity":85,"measure":59,"beat":3.0,"subject_pos":-1,"motif":"","motif_pos":-1,"best_pos":6,"similarity":0.357},{"voice":5,"pitch":76,"start":117.0,"duration":0.25,"velocity":85,"measure":59,"beat":3.0,"subject_pos":-1,"motif":"","motif_pos":-1,"best_pos":5,"similarity":0.221},{"voice":5,"pitch":79,"start":117.0,"duration":0.25,"velocity":85,"measure":59,"beat":3.0,"subject_pos":-1,"motif":"","motif_pos":-1,"best_pos":6,"similarity":0.236},{"voice":5,"pitch":82,"start":117.0,"duration":0.25,"velocity":85,"measure":59,"beat":3.0,"subject_pos":-1,"motif":"","motif_pos":-1,"best_pos":6,"similarity":0.179},{"voice":6,"pitch":80,"start":117.0,"duration":0.125,"velocity":60,"measure":59,"beat":3.0,"subject_pos":-1,"motif":"","motif_pos":-1,"best_pos":4,"similarity":0.514},{"voice":7,"pitch":36,"start":117.0,"duration":0.25,"velocity":115,"measure":59,"beat":3.0,"subject_pos":-1,"motif":"","motif_pos":-1,"best_pos":4,"similarity":0.389},{"voice":10,"pitch":51,"start":117.0,"duration":0.25,"velocity":90,"measure":59,"beat":3.0,"subject_pos":4,"motif":"subject","motif_pos":4,"best_pos":4,"similarity":1.0},{"voice":11,"pitch":66,"start":117.0,"duration":0.5,"velocity":105,"measure":59,"beat":3.0,"subject_pos":2,"motif":"subject_inv","motif_pos":2,"best_pos":2,"similarity":1.0},{"voice":2,"pitch":67,"start":117.0625,"duration":0.0625,"velocity":63,"measure":59,"beat":3.125,"subject_pos":-1,"motif":"","motif_pos":-1,"best_pos":3,"similarity":0.518},{"voice":2,"pitch":64,"start":117.125,"duration":0.0625,"velocity":66,"measure":59,"beat":3.25,"subject_pos":-1,"motif":"","motif_pos":-1,"best_pos":3,"similarity":0.475},{"voice":4,"pitch":76,"start":117.125,"duration":0.125,"velocity":75,"measure":59,"beat":3.25,"subject_pos":1,"motif":"subject","motif_pos":1,"best_pos":1,"similarity":1.0},{"voice":6,"pitch":80,"start":117.125,"duration":0.125,"velocity":85,"measure":59,"beat":3.25,"subject_pos":-1,"motif":"","motif_pos":-1,"best_pos":5,"similarity":0.55},{"voice":2,"pitch":60,"start":117.1875,"duration":0.0625,"velocity":69,"measure":59,"beat":3.375,"subject_pos":-1,"motif":"","motif_pos":-1,"best_pos":3,"similarity":0.407},{"voice":2,"pitch":60,"start":117.25,"duration":0.0625,"velocity":72,"measure":59,"beat":3.5,"subject_pos":-1,"motif":"","motif_pos":-1,"best_pos":4,"similarity":0.368},{"voice":4,"pitch":72,"start":117.25,"duration":0.125,"velocity":75,"measure":59,"beat":3.5,"subject_pos":2,"motif":"subject","motif_pos":2,"best_pos":2,"similarity":1.0},{"voice":6,"pitch":82,"start":117.25,"duration":0.125,"velocity":105,"measure":59,"beat":3.5,"subject_pos":-1,"motif":"","motif_pos":-1,"best_pos":6,"similarity":0.421},{"voice":10,"pitch":52,"start":117.25,"duration":0.125,"velocity":90,"measure":59,"beat":3.5,"subject_pos":5,"motif":"subject","motif_pos":5,"best_pos":5,"similarity":1.0},{"voice":2,"pitch":64,"start":117.3125,"duration":0.0625,"velocity":75,"measure":59,"beat":3.625,"subject_pos":-1,"motif":"","motif_pos":-1,"best_pos":5,"similarity":0.314},{"voice":2,"pitch":67,"start":117.375,"duration":0.0625,"velocity":78,"measure":59,"beat":3.75,"subject_pos":-1,"motif":"","motif_pos":-1,"best_pos":5,"similarity":0.293},{"voice":4,"pitch":69,"start":117.375,"duration":0.125,"velocity":75,"measure":59,"beat":3.75,"subject_pos":3,"motif":"subject","motif_pos":3,"best_pos":3,"similarity":1.0},{"voice":6,"pitch":80,"start":117.375,"duration":0.125,"velocity":85,"measure":59,"beat":3.75,"subject_pos":-1,"motif":"","motif_pos":-1,"best_pos":3,"similarity":0.443},{"voice":10,"pitch":54,"start":117.375,"duration":0.125,"velocity":90,"measure":59,"beat":3.75,"subject_pos":6,"motif":"subject","motif_pos":6,"best_pos":6,"similarity":1.0},{"voice":2,"pitch":70,"start":117.4375,"duration":0.0625,"velocity":81,"measure":59,"beat":3.875,"subject_pos":-1,"motif":"","motif_pos":-1,"best_pos":5,"similarity":0.386},{"voice":0,"pitch":76,"start":117.5,"duration":0.5,"velocity":90,"measure":59,"beat":4.0,"subject_pos":3,"motif":"subject","motif_pos":3,"best_pos":3,"similarity":1.0},{"voice":2,"pitch":72,"start":117.5,"duration":0.0625,"velocity":60,"measure":59,"beat":4.0,"subject_pos":-1,"motif":"","motif_pos":-1,"best_pos":6,"similarity":0.357},{"voice":3,"pitch":38,"start":117.5,"duration":0.25,"velocity":105,"measure":59,"beat":4.0,"subject_pos":-1,"motif":"","motif_pos":-1,"best_pos":2,"similarity":0.464},{"voice":4,"pitch":68,"start":117.5,"duration":0.125,"velocity":75,"measure":59,"beat":4.0,"subject_pos":4,"motif":"subject","motif_pos":4,"best_pos":4,"similarity":1.0},{"voice":5,"pitch":60,"start":117.5,"duration":0.25,"velocity":85,"measure":59,"beat":4.0,"subject_pos":-1,"motif":"","motif_pos":-1,"best_pos":0,"similarity":0.143},{"voice":5,"pitch":64,"start":117.5,"duration":0.25,"velocity":85,"measure":59,"beat":4.0,"subject_pos":-1,"motif":"","motif_pos":-1,"best_pos":5,"similarity":0.207},{"voice":5,"pitch":67,"start":117.5,"duration":0.25,"velocity":85,"measure":59,"beat":4.0,"subject_pos":-1,"motif":"","motif_pos":-1,"best_pos":5,"similarity":0.286},{"voice":5,"pitch":70,"start":117.5,"duration":0.25,"velocity":85,"measure":59,"beat":4.0,"subject_pos":-1,"motif":"","motif_pos":-1,"best_pos":5,"similarity":0.386},{"voice":5,"pitch":72,"start":117.5,"duration":0.25,"velocity":85,"measure":59,"beat":4.0,"subject_pos":-1,"motif":"","motif_pos":-1,"best_pos":6,"similarity":0.357},{"voice":5,"pitch":76,"start":117.5,"duration":0.25,"velocity":85,"measure":59,"beat":4.0,"subject_pos":-1,"motif":"","motif_pos":-1,"best_pos":5,"similarity":0.221},{"voice":5,"pitch":79,"start":117.5,"duration":0.25,"velocity":85,"measure":59,"beat":4.0,"subject_pos":-1,"motif":"","motif_pos":-1,"best_pos":6,"similarity":0.236},{"voice":5,"pitch":82,"start":117.5,"duration":0.25,"velocity":85,"measure":59,"beat":4.0,"subject_pos":-1,"motif":"","motif_pos":-1,"best_pos":6,"similarity":0.179},{"voice":6,"pitch":80,"start":117.5,"duration":0.125,"velocity":60,"measure":59,"beat":4.0,"subject_pos":-1,"motif":"","motif_pos":-1,"best_pos":4,"similarity":0.514},{"voice":7,"pitch":36,"start":117.5,"duration":0.25,"velocity":115,"measure":59,"beat":4.0,"subject_pos":-1,"motif":"","motif_pos":-1,"best_pos":4,"similarity":0.389},{"voice":8,"pitch":74,"start":117.5,"duration":0.25,"velocity":100,"measure":59,"beat":4.0,"subject_pos":-1,"motif":"","motif_pos":-1,"best_pos":4,"similarity":0.389},{"voice":10,"pitch":55,"start":117.5,"duration":0.5,"velocity":90,"measure":59,"beat":4.0,"subject_pos":7,"motif":"subject","motif_pos":7,"best_pos":7,"similarity":1.0},{"voice":11,"pitch":69,"start":117.5,"duration":0.5,"velocity":105,"measure":59,"beat":4.0,"subject_pos":3,"motif":"subject_inv","motif_pos":3,"best_pos":3,"similarity":1.0},{"voice":2,"pitch":76,"start":117.5625,"duration":0.0625,"velocity":63,"measure":59,"beat":4.125,"subject_pos":-1,"motif":"","motif_pos":-1,"best_pos":5,"similarity":0.221},{"voice":2,"pitch":79,"start":117.625,"duration":0.0625,"velocity":66,"measure":59,"beat":4.25,"subject_pos":-1,"motif":"","motif_pos":-1,"best_pos":5,"similarity":0.286},{"voice":4,"pitch":69,"start":117.625,"duration":0.125,"velocity":75,"measure":59,"beat":4.25,"subject_pos":5,"motif":"subject","motif_pos":5,"best_pos":5,"similarity":1.0},{"voice":6,"pitch":80,"start":117.625,"duration":0.125,"velocity":85,"measure":59,"beat":4.25,"subject_pos":-1,"motif":"","motif_pos":-1,"best_pos":5,"similarity":0.55},{"voice":2,"pitch":82,"start":117.6875,"duration":0.0625,"velocity":69,"measure":59,"beat":4.375,"subject_pos":-1,"motif":"","motif_pos":-1,"best_pos":5,"similarity":0.386},{"voice":2,"pitch":84,"start":117.75,"duration":0.0625,"velocity":72,"measure":59,"beat":4.5,"subject_pos":-1,"motif":"","motif_pos":-1,"best_pos":6,"similarity":0.357},{"voice":4,"pitch":71,"start":117.75,"duration":0.125,"velocity":75,"measure":59,"beat":4.5,"subject_pos":6,"motif":"subject","motif_pos":6,"best_pos":6,"similarity":1.0},{"voice":6,"pitch":82,"start":117.75,"duration":0.125,"velocity":105,"measure":59,"beat":4.5,"subject_pos":-1,"motif":"","motif_pos":-1,"best_pos":6,"similarity":0.421},{"voice":2,"pitch":88,"start":117.8125,"duration":0.0625,"velocity":75,"measure":59,"beat":4.625,"subject_pos":-1,"motif":"","motif_pos":-1,"best_pos":6,"similarity":0.293},{"voice":2,"pitch":88,"start":117.875,"duration":0.0625,"velocity":78,"measure":59,"beat":4.75,"subject_pos":-1,"motif":"","motif_pos":-1,"best_pos":2,"similarity":0.293},{"voice":4,"pitch":72,"start":117.875,"duration":0.125,"velocity":75,"measure":59,"beat":4.75,"subject_pos":7,"motif":"subject","motif_pos":7,"best_pos":7,"similarity":1.0},{"voice":6,"pitch":80,"start":117.875,"duration":0.125,"velocity":85,"measure":59,"beat":4.75,"subject_pos":-1,"motif":"","motif_pos":-1,"best_pos":3,"similarity":0.443},{"voice":2,"pitch":84,"start":117.9375,"duration":0.0625,"velocity":81,"measure":59,"beat":4.875,"subject_pos":-1,"motif":"","motif_pos":-1,"best_pos":2,"similarity":0.304},{"voice":0,"pitch":75,"start":118.0,"duration":0.5,"velocity":90,"measure":60,"beat":1.0,"subject_pos":4,"motif":"subject","motif_pos":4,"best_pos":4,"similarity":1.0},{"voice":2,"pitch":69,"start":118.0,"duration":0.0625,"velocity":60,"measure":60,"beat":1.0,"subject_pos":-1,"motif":"","motif_pos":-1,"best_pos":3,"similarity":0.214},{"voice":3,"pitch":35,"start":118.0,"duration":0.25,"velocity":105,"measure":60,"beat":1.0,"subject_pos":-1,"motif":"","motif_pos":-1,"best_pos":3,"similarity":0.554},{"voice":4,"pitch":64,"start":118.0,"duration":0.125,"velocity":75,"measure":60,"beat":1.0,"subject_pos":0,"motif":"subject","motif_pos":0,"best_pos":0,"similarity":1.0},{"voice":5,"pitch":57,"start":118.0,"duration":0.25,"velocity":85,"measure":60,"beat":1.0,"subject_pos":-1,"motif":"","motif_pos":-1,"best_pos":0,"similarity":0.143},{"voice":5,"pitch":61,"start":118.0,"duration":0.25,"velocity":85,"measure":60,"beat":1.0,"subject_pos":-1,"motif":"","motif_pos":-1,"best_pos":5,"similarity":0.207},{"voice":5,"pitch":64,"start":118.0,"duration":0.25,"velocity":85,"measure":60,"beat":1.0,"subject_pos":-1,"motif":"","motif_pos":-1,"best_pos":5,"similarity":0.286},{"voice":5,"pitch":67,"start":118.0,"duration":0.25,"velocity":85,"measure":60,"beat":1.0,"subject_pos":-1,"motif":"","motif_pos":-1,"best_pos":5,"similarity":0.386},{"voice":5,"pitch":69,"start":118.0,"duration":0.25,"velocity":85,"measure":60,"beat":1.0,"subject_pos":-1,"motif":"","motif_pos":-1,"best_pos":6,"similarity":0.357},{"voice":5,"pitch":73,"start":118.0,"duration":0.25,"velocity":85,"measure":60,"beat":1.0,"subject_pos":-1,"motif":"","motif_pos":-1,"best_pos":5,"similarity":0.221},{"voice":5,"pitch":76,"start":118.0,"duration":0.25,"velocity":85,"measure":60,"beat":1.0,"subject_pos":-1,"motif":"","motif_pos":-1,"best_pos":6,"similarity":0.236},{"voice":5,"pitch":79,"start":118.0,"duration":0.25,"velocity":85,"measure":60,"beat":1.0,"subject_pos":-1,"motif":"","motif_pos":-1,"best_pos":6,"similarity":0.179},{"voice":6,"pitch":80,"start":118.0,"duration":0.125,"velocity":60,"measure":60,"beat":1.0,"subject_pos":-1,"motif":"","motif_pos":-1,"best_pos":4,"similarity":0.514},{"voice":7,"pitch":36,"start":118.0,"duration":0.25,"velocity":115,"measure":60,"beat":1.0,"subject_pos":-1,"motif":"","motif_pos":-1,"best_pos":4,"similarity":0.389},{"voice":10,"pitch":56,"start":118.0,"duration":0.25,"velocity":88,"measure":60,"beat":1.0,"subject_pos":0,"motif":"subject_inv","motif_pos":0,"best_pos":0,"similarity":1.0},{"voice":11,"pitch":70,"start":118.0,"duration":0.5,"velocity":105,"measure":60,"beat":1.0,"subject_pos":4,"motif":"subject_inv","motif_pos":4,"best_pos":4,"similarity":1.0},{"voice":2,"pitch":73,"start":118.0625,"duration":0.0625,"velocity":63,"measure":60,"beat":1.125,"subject_pos":-1,"motif":"","motif_pos":-1,"best_pos":4,"similarity":0.25},{"voice":2,"pitch":76,"start":118.125,"duration":0.0625,"velocity":66,"measure":60,"beat":1.25,"subject_pos":-1,"motif":"","motif_pos":-1,"best_pos":5,"similarity":0.286},{"voice":4,"pitch":71,"start":118.125,"duration":0.125,"velocity":75,"measure":60,"beat":1.25,"subject_pos":1,"motif":"subject","motif_pos":1,"best_pos":1,"similarity":1.0},{"voice":6,"pitch":80,"start":118.125,"duration":0.125,"velocity":85,"measure":60,"beat":1.25,"subject_pos":-1,"motif":"","motif_pos":-1,"best_pos":5,"similarity":0.55},{"voice":2,"pitch":79,"start":118.1875,"duration":0.0625,"velocity":69,"measure":60,"beat":1.375,"subject_pos":-1,"motif":"","motif_pos":-1,"best_pos":5,"similarity":0.386},{"voice":2,"pitch":81,"start":118.25,"duration":0.0625,"velocity":72,"measure":60,"beat":1.5,"subject_pos":-1,"motif":"","motif_pos":-1,"best_pos":6,"similarity":0.357},{"voice":4,"pitch":67,"start":118.25,"duration":0.125,"velocity":75,"measure":60,"beat":1.5,"subject_pos":2,"motif":"subject","motif_pos":2,"best_pos":2,"similarity":1.0},{"voice":6,"pitch":82,"start":118.25,"duration":0.125,"velocity":105,"measure":60,"beat":1.5,"subject_pos":-1,"motif":"","motif_pos":-1,"best_pos":6,"similarity":0.421},{"voice":10,"pitch":49,"start":118.25,"duration":0.25,"velocity":88,"measure":60,"beat":1.5,"subject_pos":1,"motif":"subject_inv","motif_pos":1,"best_pos":1,"similarity":1.0},{"voice":2,"pitch":85,"start":118.3125,"duration":0.0625,"velocity":75,"measure":60,"beat":1.625,"subject_pos":-1,"motif":"","motif_pos":-1,"best_pos":5,"similarity":0.221},{"voice":2,"pitch":88,"start":118.375,"duration":0.0625,"velocity":78,"measure":60,"beat":1.75,"subject_pos":-1,"motif":"","motif_pos":-1,"best_pos":5,"similarity":0.286},{"voice":4,"pitch":64,"start":118.375,"duration":0.125,"velocity":75,"measure":60,"beat":1.75,"subject_pos":3,"motif":"subject","motif_pos":3,"best_pos":3,"similarity":1.0},{"voice":6,"pitch":80,"start":118.375,"duration":0.125,"velocity":85,"measure":60,"beat":1.75,"subject_pos":-1,"motif":"","motif_pos":-1,"best_pos":3,"similarity":0.443},{"voice":2,"pitch":91,"start":118.4375,"duration":0.0625,"velocity":81,"measure":60,"beat":1.875,"subject_pos":-1,"motif":"","motif_pos":-1,"best_pos":5,"similarity":0.386},{"voice":0,"pitch":76,"start":118.5,"duration":0.25,"velocity":90,"measure":60,"beat":2.0,"subject_pos":5,"motif":"subject","motif_pos":5,"best_pos":5,"similarity":1.0},{"voice":2,"pitch":93,"start":118.5,"duration":0.0625,"velocity":60,"measure":60,"beat":2.0,"subject_pos":-1,"motif":"","motif_pos":-1,"best_pos":6,"similarity":0.357},{"voice":3,"pitch":35,"start":118.5,"duration":0.25,"velocity":105,"measure":60,"beat":2.0,"subject_pos":-1,"motif":"","motif_pos":-1,"best_pos":4,"similarity":0.482},{"voice":4,"pitch":63,"start":118.5,"duration":0.125,"velocity":75,"measure":60,"beat":2.0,"subject_pos":4,"motif":"subject","motif_pos":4,"best_pos":4,"similarity":1.0},{"voice":5,"pitch":57,"start":118.5,"duration":0.25,"velocity":85,"measure":60,"beat":2.0,"subject_pos":-1,"motif":"","motif_pos":-1,"best_pos":0,"similarity":0.143},{"voice":5,"pitch":61,"start":118.5,"duration":0.25,"velocity":85,"measure":60,"beat":2.0,"subject_pos":-1,"motif":"","motif_pos":-1,"best_pos":5,"similarity":0.207},{"voice":5,"pitch":64,"start":118.5,"duration":0.25,"velocity":85,"measure":60,"beat":2.0,"subject_pos":-1,"motif":"","motif_pos":-1,"best_pos":5,"similarity":0.286},{"voice":5,"pitch":67,"start":118.5,"duration":0.25,"velocity":85,"measure":60,"beat":2.0,"subject_pos":-1,"motif":"","motif_pos":-1,"best_pos":5,"similarity":0.386},{"voice":5,"pitch":69,"start":118.5,"duration":0.25,"velocity":85,"measure":60,"beat":2.0,"subject_pos":-1,"motif":"","motif_pos":-1,"best_pos":6,"similarity":0.357},{"voice":5,"pitch":73,"start":118.5,"duration":0.25,"velocity":85,"measure":60,"beat":2.0,"subject_pos":-1,"motif":"","motif_pos":-1,"best_pos":5,"similarity":0.221},{"voice":5,"pitch":76,"start":118.5,"duration":0.25,"velocity":85,"measure":60,"beat":2.0,"subject_pos":-1,"motif":"","motif_pos":-1,"best_pos":6,"similarity":0.236},{"voice":5,"pitch":79,"start":118.5,"duration":0.25,"velocity":85,"measure":60,"beat":2.0,"subject_pos":-1,"motif":"","motif_pos":-1,"best_pos":6,"similarity":0.179},{"voice":6,"pitch":80,"start":118.5,"duration":0.125,"velocity":60,"measure":60,"beat":2.0,"subject_pos":-1,"motif":"","motif_pos":-1,"best_pos":4,"similarity":0.514},{"voice":7,"pitch":36,"start":118.5,"duration":0.25,"velocity":115,"measure":60,"beat":2.0,"subject_pos":-1,"motif":"","motif_pos":-1,"best_pos":4,"similarity":0.389},{"voice":8,"pitch":74,"start":118.5,"duration":0.25,"velocity":100,"measure":60,"beat":2.0,"subject_pos":-1,"motif":"","motif_pos":-1,"best_pos":4,"similarity":0.389},{"voice":10,"pitch":53,"start":118.5,"duration":0.25,"velocity":88,"measure":60,"beat":2.0,"subject_pos":2,"motif":"subject_inv","motif_pos":2,"best_pos":2,"similarity":1.0},{"voice":11,"pitch":69,"start":118.5,"duration":0.25,"velocity":105,"measure":60,"beat":2.0,"subject_pos":5,"motif":"subject_inv","motif_pos":5,"best_pos":5,"similarity":1.0},{"voice":2,"pitch":97,"start":118.5625,"duration":0.0625,"velocity":63,"measure":60,"beat":2.125,"subject_pos":-1,"motif":"","motif_pos":-1,"best_pos":1,"similarity":0.321},{"voice":2,"pitch":97,"start":118.625,"duration":0.0625,"velocity":66,"measure":60,"beat":2.25,"subject_pos":-1,"motif":"","motif_pos":-1,"best_pos":1,"similarity":0.375},{"voice":4,"pitch":64,"start":118.625,"duration":0.125,"velocity":75,"measure":60,"beat":2.25,"subject_pos":5,"motif":"subject","motif_pos":5,"best_pos":5,"similarity":1.0},{"voice":6,"pitch":80,"start":118.625,"duration":0.125,"velocity":85,"measure":60,"beat":2.25,"subject_pos":-1,"motif":"","motif_pos":-1,"best_pos":5,"similarity":0.55},{"voice":2,"pitch":93,"start":118.6875,"duration":0.0625,"velocity":69,"measure":60,"beat":2.375,"subject_pos":-1,"motif":"","motif_pos":-1,"best_pos":2,"similarity":0.471},{"voice":0,"pitch":78,"start":118.75,"duration":0.25,"velocity":90,"measure":60,"beat":2.5,"subject_pos":6,"motif":"subject","motif_pos":6,"best_pos":6,"similarity":1.0},{"voice":2,"pitch":91,"start":118.75,"duration":0.0625,"velocity":72,"measure":60,"beat":2.5,"subject_pos":-1,"motif":"","motif_pos":-1,"best_pos":2,"similarity":0.607},{"voice":4,"pitch":66,"start":118.75,"duration":0.125,"velocity":75,"measure":60,"beat":2.5,"subject_pos":6,"motif":"subject","motif_pos":6,"best_pos":6,"similarity":1.0},{"voice":6,"pitch":82,"start":118.75,"duration":0.125,"velocity":105,"measure":60,"beat":2.5,"subject_pos":-1,"motif":"","motif_pos":-1,"best_pos":6,"similarity":0.421},{"voice":10,"pitch":56,"start":118.75,"duration":0.25,"velocity":88,"measure":60,"beat":2.5,"subject_pos":3,"motif":"subject_inv","motif_pos":3,"best_pos":3,"similarity":1.0},{"voice":11,"pitch":67,"start":118.75,"duration":0.25,"velocity":105,"measure":60,"beat":2.5,"subject_pos":6,"motif":"subject_inv","motif_pos":6,"best_pos":6,"similarity":1.0},{"voice":2,"pitch":88,"start":118.8125,"duration":0.0625,"velocity":75,"measure":60,"beat":2.625,"subject_pos":-1,"motif":"","motif_pos":-1,"best_pos":3,"similarity":0.507},{"voice":2,"pitch":85,"start":118.875,"duration":0.0625,"velocity":78,"measure":60,"beat":2.75,"subject_pos":-1,"motif":"","motif_pos":-1,"best_pos":3,"similarity":0.4},{"voice":4,"pitch":67,"start":118.875,"duration":0.125,"velocity":75,"measure":60,"beat":2.75,"subject_pos":7,"motif":"subject","motif_pos":7,"best_pos":7,"similarity":1.0},{"voice":6,"pitch":80,"start":118.875,"duration":0.125,"velocity":85,"measure":60,"beat":2.75,"subject_pos":-1,"motif":"","motif_pos":-1,"best_pos":3,"similarity":0.443},{"voice":2,"pitch":81,"start":118.9375,"duration":0.0625,"velocity":81,"measure":60,"beat":2.875,"subject_pos":-1,"motif":"","motif_pos":-1,"best_pos":2,"similarity":0.471},{"voice":0,"pitch":79,"start":119.0,"duration":1.0,"velocity":90,"measure":60,"beat":3.0,"subject_pos":7,"motif":"subject","motif_pos":7,"best_pos":7,"similarity":1.0},{"voice":2,"pitch":79,"start":119.0,"duration":0.0625,"velocity":60,"measure":60,"beat":3.0,"subject_pos":-1,"motif":"","motif_pos":-1,"best_pos":2,"similarity":0.607},{"voice":3,"pitch":35,"start":119.0,"duration":0.25,"velocity":105,"measure":60,"beat":3.0,"subject_pos":-1,"motif":"","motif_pos":-1,"best_pos":4,"similarity":0.371},{"voice":4,"pitch":59,"start":119.0,"duration":0.125,"velocity":75,"measure":60,"beat":3.0,"subject_pos":0,"motif":"subject","motif_pos":0,"best_pos":0,"similarity":1.0},{"voice":5,"pitch":57,"start":119.0,"duration":0.25,"velocity":85,"measure":60,"beat":3.0,"subject_pos":-1,"motif":"","motif_pos":-1,"best_pos":0,"similarity":0.143},{"voice":5,"pitch":61,"start":119.0,"duration":0.25,"velocity":85,"measure":60,"beat":3.0,"subject_pos":-1,"motif":"","motif_pos":-1,"best_pos":5,"similarity":0.207},{"voice":5,"pitch":64,"start":119.0,"duration":0.25,"velocity":85,"measure":60,"beat":3.0,"subject_pos":-1,"motif":"","motif_pos":-1,"best_pos":5,"similarity":0.286},{"voice":5,"pitch":67,"start":119.0,"duration":0.25,"velocity":85,"measure":60,"beat":3.0,"subject_pos":-1,"motif":"","motif_pos":-1,"best_pos":5,"similarity":0.386},{"voice":5,"pitch":69,"start":119.0,"duration":0.25,"velocity":85,"measure":60,"beat":3.0,"subject_pos":-1,"motif":"","motif_pos":-1,"best_pos":6,"similarity":0.357},{"voice":5,"pitch":73,"start":119.0,"duration":0.25,"velocity":85,"measure":60,"beat":3.0,"subject_pos":-1,"motif":"","motif_pos":-1,"best_pos":5,"similarity":0.221},{"voice":5,"pitch":76,"start":119.0,"duration":0.25,"velocity":85,"measure":60,"beat":3.0,"subject_pos":-1,"motif":"","motif_pos":-1,"best_pos":6,"similarity":0.236},{"voice":5,"pitch":79,"start":119.0,"duration":0.25,"velocity":85,"measure":60,"beat":3.0,"subject_pos":-1,"motif":"","motif_pos":-1,"best_pos":6,"similarity":0.179},{"voice":6,"pitch":80,"start":119.0,"duration":0.125,"velocity":60,"measure":60,"beat":3.0,"subject_pos":-1,"motif":"","motif_pos":-1,"best_pos":4,"similarity":0.514},{"voice":7,"pitch":36,"start":119.0,"duration":0.25,"velocity":115,"measure":60,"beat":3.0,"subject_pos":-1,"motif":"","motif_pos":-1,"best_pos":4,"similarity":0.389},{"voice":10,"pitch":57,"start":119.0,"duration":0.25,"velocity":88,"measure":60,"beat":3.0,"subject_pos":4,"motif":"subject_inv","motif_pos":4,"best_pos":4,"similarity":1.0},{"voice":11,"pitch":66,"start":119.0,"duration":1.0,"velocity":105,"measure":60,"beat":3.0,"subject_pos":7,"motif":"subject_inv","motif_pos":7,"best_pos":7,"similarity":1.0},{"voice":2,"pitch":76,"start":119.0625,"duration":0.0625,"velocity":63,"measure":60,"beat":3.125,"subject_pos":-1,"motif":"","motif_pos":-1,"best_pos":3,"similarity":0.518},{"voice":2,"pitch":73,"start":119.125,"duration":0.0625,"velocity":66,"measure":60,"beat":3.25,"subject_pos":-1,"motif":"","motif_pos":-1,"best_pos":3,"similarity":0.475},{"voice":4,"pitch":66,"start":119.125,"duration":0.125,"velocity":75,"measure":60,"beat":3.25,"subject_pos":1,"motif":"subject","motif_pos":1,"best_pos":1,"similarity":1.0},{"voice":6,"pitch":80,"start":119.125,"duration":0.125,"velocity":85,"measure":60,"beat":3.25,"subject_pos":-1,"motif":"","motif_pos":-1,"best_pos":5,"similarity":0.55},{"voice":2,"pitch":69,"start":119.1875,"duration":0.0625,"velocity":69,"measure":60,"beat":3.375,"subject_pos":-1,"motif":"","motif_pos":-1,"best_pos":3,"similarity":0.407},{"voice":2,"pitch":69,"start":119.25,"duration":0.0625,"velocity":72,"measure":60,"beat":3.5,"subject_pos":-1,"motif":"","motif_pos":-1,"best_pos":4,"similarity":0.368},{"voice":4,"pitch":62,"start":119.25,"duration":0.125,"velocity":75,"measure":60,"beat":3.5,"subject_pos":2,"motif":"subject","motif_pos":2,"best_pos":2,"similarity":1.0},{"voice":6,"pitch":82,"start":119.25,"duration":0.125,"velocity":105,"measure":60,"beat":3.5,"subject_pos":-1,"motif":"","motif_pos":-1,"best_pos":6,"similarity":0.421},{"voice":10,"pitch":56,"start":119.25,"duration":0.125,"velocity":88,"measure":60,"beat":3.5,"subject_pos":5,"motif":"subject_inv","motif_pos":5,"best_pos":5,"similarity":1.0},{"voice":2,"pitch":73,"start":119.3125,"duration":0.0625,"velocity":75,"measure":60,"beat":3.625,"subject_pos":-1,"motif":"","motif_pos":-1,"best_pos":5,"similarity":0.314},{"voice":2,"pitch":76,"start":119.375,"duration":0.0625,"velocity":78,"measure":60,"beat":3.75,"subject_pos":-1,"motif":"","motif_pos":-1,"best_pos":5,"similarity":0.293},{"voice":4,"pitch":59,"start":119.375,"duration":0.125,"velocity":75,"measure":60,"beat":3.75,"subject_pos":3,"motif":"subject","motif_pos":3,"best_pos":3,"similarity":1.0},{"voice":6,"pitch":80,"start":119.375,"duration":0.125,"velocity":85,"measure":60,"beat":3.75,"subject_pos":-1,"motif":"","motif_pos":-1,"best_pos":3,"similarity":0.443},{"voice":10,"pitch":54,"start":119.375,"duration":0.125,"velocity":88,"measure":60,"beat":3.75,"subject_pos":6,"motif":"subject_inv","motif_pos":6,"best_pos":6,"similarity":1.0},{"voice":2,"pitch":79,"start":119.4375,"duration":0.0625,"velocity":81,"measure":60,"beat":3.875,"subject_pos":-1,"motif":"","motif_pos":-1,"best_pos":5,"similarity":0.386},{"voice":2,"pitch":81,"start":119.5,"duration":0.0625,"velocity":60,"measure":60,"beat":4.0,"subject_pos":-1,"motif":"","motif_pos":-1,"best_pos":6,"similarity":0.357},{"voice":3,"pitch":35,"start":119.5,"duration":0.25,"velocity":105,"measure":60,"beat":4.0,"subject_pos":-1,"motif":"","motif_pos":-1,"best_pos":5,"similarity":0.293},{"voice":4,"pitch":58,"start":119.5,"duration":0.125,"velocity":75,"measure":60,"beat":4.0,"subject_pos":4,"motif":"subject","motif_pos":4,"best_pos":4,"similarity":1.0},{"voice":5,"pitch":57,"start":119.5,"duration":0.25,"velocity":85,"measure":60,"beat":4.0,"subject_pos":-1,"motif":"","motif_pos":-1,"best_pos":0,"similarity":0.143},{"voice":5,"pitch":61,"start":119.5,"duration":0.25,"velocity":85,"measure":60,"beat":4.0,"subject_pos":-1,"motif":"","motif_pos":-1,"best_pos":5,"similarity":0.207},{"voice":5,"pitch":64,"start":119.5,"duration":0.25,"velocity":85,"measure":60,"beat":4.0,"subject_pos":-1,"motif":"","motif_pos":-1,"best_pos":5,"similarity":0.286},{"voice":5,"pitch":67,"start":119.5,"duration":0.25,"velocity":85,"measure":60,"beat":4.0,"subject_pos":-1,"motif":"","motif_pos":-1,"best_pos":5,"similarity":0.386},{"voice":5,"pitch":69,"start":119.5,"duration":0.25,"velocity":85,"measure":60,"beat":4.0,"subject_pos":-1,"motif":"","motif_pos":-1,"best_pos":6,"similarity":0.357},{"voice":5,"pitch":73,"start":119.5,"duration":0.25,"velocity":85,"measure":60,"beat":4.0,"subject_pos":-1,"motif":"","motif_pos":-1,"best_pos":5,"similarity":0.221},{"voice":5,"pitch":76,"start":119.5,"duration":0.25,"velocity":85,"measure":60,"beat":4.0,"subject_pos":-1,"motif":"","motif_pos":-1,"best_pos":6,"similarity":0.236},{"voice":5,"pitch":79,"start":119.5,"duration":0.25,"velocity":85,"measure":60,"beat":4.0,"subject_pos":-1,"motif":"","motif_pos":-1,"best_pos":6,"similarity":0.179},{"voice":6,"pitch":80,"start":119.5,"duration":0.125,"velocity":60,"measure":60,"beat":4.0,"subject_pos":-1,"motif":"","motif_pos":-1,"best_pos":4,"similarity":0.514},{"voice":7,"pitch":36,"start":119.5,"duration":0.25,"velocity":115,"measure":60,"beat":4.0,"subject_pos":-1,"motif":"","motif_pos":-1,"best_pos":4,"similarity":0.389},{"voice":8,"pitch":74,"start":119.5,"duration":0.25,"velocity":100,"measure":60,"beat":4.0,"subject_pos":-1,"motif":"","motif_pos":-1,"best_pos":4,"similarity":0.389},{"voice":10,"pitch":53,"start":119.5,"duration":0.5,"velocity":88,"measure":60,"beat":4.0,"subject_pos":7,"motif":"subject_inv","motif_pos":7,"best_pos":7,"similarity":1.0},{"voice":2,"pitch":85,"start":119.5625,"duration":0.0625,"velocity":63,"measure":60,"beat":4.125,"subject_pos":-1,"motif":"","motif_pos":-1,"best_pos":5,"similarity":0.221},{"voice":2,"pitch":88,"start":119.625,"duration":0.0625,"velocity":66,"measure":60,"beat":4.25,"subject_pos":-1,"motif":"","motif_pos":-1,"best_pos":5,"similarity":0.286},{"voice":4,"pitch":59,"start":119.625,"duration":0.125,"velocity":75,"measure":60,"beat":4.25,"subject_pos":5,"motif":"subject","motif_pos":5,"best_pos":5,"similarity":1.0},{"voice":6,"pitch":80,"start":119.625,"duration":0.125,"velocity":85,"measure":60,"beat":4.25,"subject_pos":-1,"motif":"","motif_pos":-1,"best_pos":5,"similarity":0.55},{"voice":2,"pitch":91,"start":119.6875,"duration":0.0625,"velocity":69,"measure":60,"beat":4.375,"subject_pos":-1,"motif":"","motif_pos":-1,"best_pos":5,"similarity":0.386},{"voice":2,"pitch":93,"start":119.75,"duration":0.0625,"velocity":72,"measure":60,"beat":4.5,"subject_pos":-1,"motif":"","motif_pos":-1,"best_pos":6,"similarity":0.357},{"voice":4,"pitch":61,"start":119.75,"duration":0.125,"velocity":75,"measure":60,"beat":4.5,"subject_pos":6,"motif":"subject","motif_pos":6,"best_pos":6,"similarity":1.0},{"voice":6,"pitch":82,"start":119.75,"duration":0.125,"velocity":105,"measure":60,"beat":4.5,"subject_pos":-1,"motif":"","motif_pos":-1,"best_pos":6,"similarity":0.421},{"voice":2,"pitch":97,"start":119.8125,"duration":0.0625,"velocity":75,"measure":60,"beat":4.625,"subject_pos":-1,"motif":"","motif_pos":-1,"best_pos":6,"similarity":0.293},{"voice":2,"pitch":97,"start":119.875,"duration":0.0625,"velocity":78,"measure":60,"beat":4.75,"subject_pos":-1,"motif":"","motif_pos":-1,"best_pos":2,"similarity":0.304},{"voice":4,"pitch":62,"start":119.875,"duration":0.125,"velocity":75,"measure":60,"beat":4.75,"subject_pos":7,"motif":"subject","motif_pos":7,"best_pos":7,"similarity":1.0},{"voice":6,"pitch":80,"start":119.875,"duration":0.125,"velocity":85,"measure":60,"beat":4.75,"subject_pos":-1,"motif":"","motif_pos":-1,"best_pos":3,"similarity":0.443},{"voice":2,"pitch":93,"start":119.9375,"duration":0.0625,"velocity":81,"measure":60,"beat":4.875,"subject_pos":-1,"motif":"","motif_pos":-1,"best_pos":2,"similarity":0.307},{"voice":0,"pitch":81,"start":120.0,"duration":0.25,"velocity":88,"measure":61,"beat":1.0,"subject_pos":0,"motif":"subject","motif_pos":0,"best_pos":0,"similarity":1.0},{"voice":1,"pitch":50,"start":120.0,"duration":8.0,"velocity":55,"measure":61,"beat":1.0,"subject_pos":-1,"motif":"","motif_pos":-1,"best_pos":5,"similarity":0.157},{"voice":1,"pitch":53,"start":120.0,"duration":8.0,"velocity":55,"measure":61,"beat":1.0,"subject_pos":-1,"motif":"","motif_pos":-1,"best_pos":6,"similarity":0.171},{"voice":1,"pitch":57,"start":120.0,"duration":8.0,"velocity":55,"measure":61,"beat":1.0,"subject_pos":-1,"motif":"","motif_pos":-1,"best_pos":0,"similarity":0.286},{"voice":1,"pitch":62,"start":120.0,"duration":8.0,"velocity":50,"measure":61,"beat":1.0,"subject_pos":-1,"motif":"","motif_pos":-1,"best_pos":1,"similarity":0.286},{"voice":1,"pitch":65,"start":120.0,"duration":8.0,"velocity":50,"measure":61,"beat":1.0,"subject_pos":-1,"motif":"","motif_pos":-1,"best_pos":6,"similarity":0.186},{"voice":1,"pitch":69,"start":120.0,"duration":8.0,"velocity":50,"measure":61,"beat":1.0,"subject_pos":-1,"motif":"","motif_pos":-1,"best_pos":0,"similarity":0.286},{"voice":1,"pitch":74,"start":120.0,"duration":8.0,"velocity":40,"measure":61,"beat":1.0,"subject_pos":-1,"motif":"","motif_pos":-1,"best_pos":1,"similarity":0.286},{"voice":1,"pitch":77,"start":120.0,"duration":8.0,"velocity":40,"measure":61,"beat":1.0,"subject_pos":-1,"motif":"","motif_pos":-1,"best_pos":6,"similarity":0.186},{"voice":1,"pitch":81,"start":120.0,"duration":8.0,"velocity":40,"measure":61,"beat":1.0,"subject_pos":-1,"motif":"","motif_pos":-1,"best_pos":1,"similarity":0.143},{"voice":2,"pitch":62,"start":120.0,"duration":0.0625,"velocity":60,"measure":61,"beat":1.0,"subject_pos":-1,"motif":"","motif_pos":-1,"best_pos":4,"similarity":0.204},{"voice":3,"pitch":28,"start":120.0,"duration":0.25,"velocity":105,"measure":61,"beat":1.0,"subject_pos":-1,"motif":"","motif_pos":-1,"best_pos":3,"similarity":0.296},{"voice":5,"pitch":62,"start":120.0,"duration":0.25,"velocity":85,"measure":61,"beat":1.0,"subject_pos":-1,"motif":"","motif_pos":-1,"best_pos":5,"similarity":0.171},{"voice":5,"pitch":65,"start":120.0,"duration":0.25,"velocity":85,"measure":61,"beat":1.0,"subject_pos":-1,"motif":"","motif_pos":-1,"best_pos":6,"similarity":0.179},{"voice":5,"pitch":69,"start":120.0,"duration":0.25,"velocity":85,"measure":61,"beat":1.0,"subject_pos":-1,"motif":"","motif_pos":-1,"best_pos":0,"similarity":0.286},{"voice":5,"pitch":74,"start":120.0,"duration":0.25,"velocity":85,"measure":61,"beat":1.0,"subject_pos":-1,"motif":"","motif_pos":-1,"best_pos":1,"similarity":0.286},{"voice":5,"pitch":77,"start":120.0,"duration":0.25,"velocity":85,"measure":61,"beat":1.0,"subject_pos":-1,"motif":"","motif_pos":-1,"best_pos":6,"similarity":0.186},{"voice":5,"pitch":81,"start":120.0,"duration":0.25,"velocity":85,"measure":61,"beat":1.0,"subject_pos":-1,"motif":"","motif_pos":-1,"best_pos":1,"similarity":0.143},{"voice":6,"pitch":80,"start":120.0,"duration":0.125,"velocity":60,"measure":61,"beat":1.0,"subject_pos":-1,"motif":"","motif_pos":-1,"best_pos":4,"similarity":0.514},{"voice":7,"pitch":36,"start":120.0,"duration":0.25,"velocity":115,"measure":61,"beat":1.0,"subject_pos":-1,"motif":"","motif_pos":-1,"best_pos":4,"similarity":0.389},{"voice":10,"pitch":54,"start":120.0,"duration":0.25,"velocity":90,"measure":61,"beat":1.0,"subject_pos":0,"motif":"subject","motif_pos":0,"best_pos":0,"similarity":1.0},{"voice":11,"pitch":74,"start":120.0,"duration":0.25,"velocity":100,"measure":61,"beat":1.0,"subject_pos":0,"motif":"subject","motif_pos":0,"best_pos":0,"similarity":1.0},{"voice":2,"pitch":65,"start":120.0625,"duration":0.0625,"velocity":63,"measure":61,"beat":1.125,"subject_pos":-1,"motif":"","motif_pos":-1,"best_pos":5,"similarity":0.193},{"voice":2,"pitch":69,"start":120.125,"duration":0.0625,"velocity":66,"measure":61,"beat":1.25,"subject_pos":-1,"motif":"","motif_pos":-1,"best_pos":0,"similarity":0.286},{"voice":6,"pitch":80,"start":120.125,"duration":0.125,"velocity":85,"measure":61,"beat":1.25,"subject_pos":-1,"motif":"","motif_pos":-1,"best_pos":5,"similarity":0.55},{"voice":2,"pitch":74,"start":120.1875,"duration":0.0625,"velocity":69,"measure":61,"beat":1.375,"subject_pos":-1,"motif":"","motif_pos":-1,"best_pos":1,"similarity":0.286},{"voice":0,"pitch":86,"start":120.25,"duration":0.25,"velocity":88,"measure":61,"beat":1.5,"subject_pos":1,"motif":"subject","motif_pos":1,"best_pos":1,"similarity":1.0},{"voice":2,"pitch":77,"start":120.25,"duration":0.0625,"velocity":72,"measure":61,"beat":1.5,"subject_pos":-1,"motif":"","motif_pos":-1,"best_pos":6,"similarity":0.186},{"voice":6,"pitch":82,"start":120.25,"duration":0.125,"velocity":105,"measure":61,"beat":1.5,"subject_pos":-1,"motif":"","motif_pos":-1,"best_pos":6,"similarity":0.421},{"voice":10,"pitch":61,"start":120.25,"duration":0.25,"velocity":90,"measure":61,"beat":1.5,"subject_pos":1,"motif":"subject","motif_pos":1,"best_pos":1,"similarity":1.0},{"voice":11,"pitch":79,"start":120.25,"duration":0.25,"velocity":100,"measure":61,"beat":1.5,"subject_pos":1,"motif":"subject","motif_pos":1,"best_pos":1,"similarity":1.0},{"voice":2,"pitch":81,"start":120.3125,"duration":0.0625,"velocity":75,"measure":61,"beat":1.625,"subject_pos":-1,"motif":"","motif_pos":-1,"best_pos":0,"similarity":0.293},{"voice":2,"pitch":86,"start":120.375,"duration":0.0625,"velocity":78,"measure":61,"beat":1.75,"subject_pos":-1,"motif":"","motif_pos":-1,"best_pos":1,"similarity":0.318},{"voice":6,"pitch":80,"start":120.375,"duration":0.125,"velocity":85,"measure":61,"beat":1.75,"subject_pos":-1,"motif":"","motif_pos":-1,"best_pos":3,"similarity":0.443},{"voice":2,"pitch":89,"start":120.4375,"duration":0.0625,"velocity":81,"measure":61,"beat":1.875,"subject_pos":-1,"motif":"","motif_pos":-1,"best_pos":6,"similarity":0.3},{"voice":0,"pitch":84,"start":120.5,"duration":0.25,"velocity":88,"measure":61,"beat":2.0,"subject_pos":2,"motif":"subject","motif_pos":2,"best_pos":2,"similarity":1.0},{"voice":2,"pitch":89,"start":120.5,"duration":0.0625,"velocity":60,"measure":61,"beat":2.0,"subject_pos":-1,"motif":"","motif_pos":-1,"best_pos":2,"similarity":0.407},{"voice":3,"pitch":28,"start":120.5,"duration":0.25,"velocity":105,"measure":61,"beat":2.0,"subject_pos":-1,"motif":"","motif_pos":-1,"best_pos":4,"similarity":0.361},{"voice":5,"pitch":62,"start":120.5,"duration":0.25,"velocity":85,"measure":61,"beat":2.0,"subject_pos":-1,"motif":"","motif_pos":-1,"best_pos":5,"similarity":0.157},{"voice":5,"pitch":65,"start":120.5,"duration":0.25,"velocity":85,"measure":61,"beat":2.0,"subject_pos":-1,"motif":"","motif_pos":-1,"best_pos":6,"similarity":0.171},{"voice":5,"pitch":69,"start":120.5,"duration":0.25,"velocity":85,"measure":61,"beat":2.0,"subject_pos":-1,"motif":"","motif_pos":-1,"best_pos":0,"similarity":0.286},{"voice":5,"pitch":74,"start":120.5,"duration":0.25,"velocity":85,"measure":61,"beat":2.0,"subject_pos":-1,"motif":"","motif_pos":-1,"best_pos":1,"similarity":0.286},{"voice":5,"pitch":77,"start":120.5,"duration":0.25,"velocity":85,"measure":61,"beat":2.0,"subject_pos":-1,"motif":"","motif_pos":-1,"best_pos":6,"similarity":0.186},{"voice":5,"pitch":81,"start":120.5,"duration":0.25,"velocity":85,"measure":61,"beat":2.0,"subject_pos":-1,"motif":"","motif_pos":-1,"best_pos":1,"similarity":0.143},{"voice":6,"pitch":80,"start":120.5,"duration":0.125,"velocity":60,"measure":61,"beat":2.0,"subject_pos":-1,"motif":"","motif_pos":-1,"best_pos":4,"similarity":0.514},{"voice":7,"pitch":36,"start":120.5,"duration":0.25,"velocity":115,"measure":61,"beat":2.0,"subject_pos":-1,"motif":"","motif_pos":-1,"best_pos":4,"similarity":0.389},{"voice":8,"pitch":74,"start":120.5,"duration":0.25,"velocity":100,"measure":61,"beat":2.0,"subject_pos":-1,"motif":"","motif_pos":-1,"best_pos":4,"similarity":0.389},{"voice":10,"pitch":57,"start":120.5,"duration":0.25,"velocity":90,"measure":61,"beat":2.0,"subject_pos":2,"motif":"subject","motif_pos":2,"best_pos":2,"similarity":1.0},{"voice":11,"pitch":77,"start":120.5,"duration":0.25,"velocity":100,"measure":61,"beat":2.0,"subject_pos":2,"motif":"subject","motif_pos":2,"best_pos":2,"similarity":1.0},{"voice":2,"pitch":86,"start":120.5625,"duration":0.0625,"velocity":63,"measure":61,"beat":2.125,"subject_pos":-1,"motif":"","motif_pos":-1,"best_pos":3,"similarity":0.368},{"voice":2,"pitch":81,"start":120.625,"duration":0.0625,"velocity":66,"measure":61,"beat":2.25,"subject_pos":-1,"motif":"","motif_pos":-1,"best_pos":1,"similarity":0.436},{"voice":6,"pitch":80,"start":120.625,"duration":0.125,"velocity":85,"measure":61,"beat":2.25,"subject_pos":-1,"motif":"","motif_pos":-1,"best_pos":5,"similarity":0.55},{"voice":2,"pitch":77,"start":120.6875,"duration":0.0625,"velocity":69,"measure":61,"beat":2.375,"subject_pos":-1,"motif":"","motif_pos":-1,"best_pos":2,"similarity":0.586},{"voice":0,"pitch":81,"start":120.75,"duration":0.25,"velocity":88,"measure":61,"beat":2.5,"subject_pos":3,"motif":"subject","motif_pos":3,"best_pos":3,"similarity":1.0},{"voice":2,"pitch":74,"start":120.75,"duration":0.0625,"velocity":72,"measure":61,"beat":2.5,"subject_pos":-1,"motif":"","motif_pos":-1,"best_pos":3,"similarity":0.457},{"voice":6,"pitch":82,"start":120.75,"duration":0.125,"velocity":105,"measure":61,"beat":2.5,"subject_pos":-1,"motif":"","motif_pos":-1,"best_pos":6,"similarity":0.421},{"voice":10,"pitch":54,"start":120.75,"duration":0.25,"velocity":90,"measure":61,"beat":2.5,"subject_pos":3,"motif":"subject","motif_pos":3,"best_pos":3,"similarity":1.0},{"voice":11,"pitch":74,"start":120.75,"duration":0.25,"velocity":100,"measure":61,"beat":2.5,"subject_pos":3,"motif":"subject","motif_pos":3,"best_pos":3,"similarity":1.0},{"voice":2,"pitch":69,"start":120.8125,"duration":0.0625,"velocity":75,"measure":61,"beat":2.625,"subject_pos":-1,"motif":"","motif_pos":-1,"best_pos":1,"similarity":0.464},{"voice":2,"pitch":65,"start":120.875,"duration":0.0625,"velocity":78,"measure":61,"beat":2.75,"subject_pos":-1,"motif":"","motif_pos":-1,"best_pos":2,"similarity":0.661},{"voice":6,"pitch":80,"start":120.875,"duration":0.125,"velocity":85,"measure":61,"beat":2.75,"subject_pos":-1,"motif":"","motif_pos":-1,"best_pos":3,"similarity":0.443},{"voice":2,"pitch":62,"start":120.9375,"duration":0.0625,"velocity":81,"measure":61,"beat":2.875,"subject_pos":-1,"motif":"","motif_pos":-1,"best_pos":3,"similarity":0.625},{"voice":0,"pitch":80,"start":121.0,"duration":0.25,"velocity":88,"measure":61,"beat":3.0,"subject_pos":4,"motif":"subject","motif_pos":4,"best_pos":4,"similarity":1.0},{"voice":2,"pitch":62,"start":121.0,"duration":0.0625,"velocity":60,"measure":61,"beat":3.0,"subject_pos":-1,"motif":"","motif_pos":-1,"best_pos":4,"similarity":0.471},{"voice":3,"pitch":28,"start":121.0,"duration":0.25,"velocity":105,"measure":61,"beat":3.0,"subject_pos":-1,"motif":"","motif_pos":-1,"best_pos":4,"similarity":0.357},{"voice":5,"pitch":62,"start":121.0,"duration":0.25,"velocity":85,"measure":61,"beat":3.0,"subject_pos":-1,"motif":"","motif_pos":-1,"best_pos":5,"similarity":0.157},{"voice":5,"pitch":65,"start":121.0,"duration":0.25,"velocity":85,"measure":61,"beat":3.0,"subject_pos":-1,"motif":"","motif_pos":-1,"best_pos":6,"similarity":0.171},{"voice":5,"pitch":69,"start":121.0,"duration":0.25,"velocity":85,"measure":61,"beat":3.0,"subject_pos":-1,"motif":"","motif_pos":-1,"best_pos":0,"similarity":0.286},{"voice":5,"pitch":74,"start":121.0,"duration":0.25,"velocity":85,"measure":61,"beat":3.0,"subject_pos":-1,"motif":"","motif_pos":-1,"best_pos":1,"similarity":0.286},{"voice":5,"pitch":77,"start":121.0,"duration":0.25,"velocity":85,"measure":61,"beat":3.0,"subject_pos":-1,"motif":"","motif_pos":-1,"best_pos":6,"similarity":0.186},{"voice":5,"pitch":81,"start":121.0,"duration":0.25,"velocity":85,"measure":61,"beat":3.0,"subject_pos":-1,"motif":"","motif_pos":-1,"best_pos":1,"similarity":0.143},{"voice":6,"pitch":80,"start":121.0,"duration":0.125,"velocity":60,"measure":61,"beat":3.0,"subject_pos":-1,"motif":"","motif_pos":-1,"best_pos":4,"similarity":0.514},{"voice":7,"pitch":36,"start":121.0,"duration":0.25,"velocity":115,"measure":61,"beat":3.0,"subject_pos":-1,"motif":"","motif_pos":-1,"best_pos":4,"similarity":0.389},{"voice":10,"pitch":53,"start":121.0,"duration":0.25,"velocity":90,"measure":61,"beat":3.0,"subject_pos":4,"motif":"subject","motif_pos":4,"best_pos":4,"similarity":1.0},{"voice":11,"pitch":73,"start":121.0,"duration":0.25,"velocity":100,"measure":61,"beat":3.0,"subject_pos":4,"motif":"subject","motif_pos":4,"best_pos":4,"similarity":1.0},{"voice":2,"pitch":65,"start":121.0625,"duration":0.0625,"velocity":63,"measure":61,"beat":3.125,"subject_pos":-1,"motif":"","motif_pos":-1,"best_pos":5,"similarity":0.3},{"voice":2,"pitch":69,"start":121.125,"duration":0.0625,"velocity":66,"measure":61,"beat":3.25,"subject_pos":-1,"motif":"","motif_pos":-1,"best_pos":0,"similarity":0.286},{"voice":6,"pitch":80,"start":121.125,"duration":0.125,"velocity":85,"measure":61,"beat":3.25,"subject_pos":-1,"motif":"","motif_pos":-1,"best_pos":5,"similarity":0.55},{"voice":2,"pitch":74,"start":121.1875,"duration":0.0625,"velocity":69,"measure":61,"beat":3.375,"subject_pos":-1,"motif":"","motif_pos":-1,"best_pos":1,"similarity":0.286},{"voice":0,"pitch":81,"start":121.25,"duration":0.125,"velocity":88,"measure":61,"beat":3.5,"subject_pos":5,"motif":"subject","motif_pos":5,"best_pos":5,"similarity":1.0},{"voice":2,"pitch":77,"start":121.25,"duration":0.0625,"velocity":72,"measure":61,"beat":3.5,"subject_pos":-1,"motif":"","motif_pos":-1,"best_pos":6,"similarity":0.186},{"voice":6,"pitch":82,"start":121.25,"duration":0.125,"velocity":105,"measure":61,"beat":3.5,"subject_pos":-1,"motif":"","motif_pos":-1,"best_pos":6,"similarity":0.421},{"voice":10,"pitch":54,"start":121.25,"duration":0.125,"velocity":90,"measure":61,"beat":3.5,"subject_pos":5,"motif":"subject","motif_pos":5,"best_pos":5,"similarity":1.0},{"voice":11,"pitch":74,"start":121.25,"duration":0.125,"velocity":100,"measure":61,"beat":3.5,"subject_pos":5,"motif":"subject","motif_pos":5,"best_pos":5,"similarity":1.0},{"voice":2,"pitch":81,"start":121.3125,"duration":0.0625,"velocity":75,"measure":61,"beat":3.625,"subject_pos":-1,"motif":"","motif_pos":-1,"best_pos":0,"similarity":0.293},{"voice":0,"pitch":83,"start":121.375,"duration":0.125,"velocity":88,"measure":61,"beat":3.75,"subject_pos":6,"motif":"subject","motif_pos":6,"best_pos":6,"similarity":1.0},{"voice":2,"pitch":86,"start":121.375,"duration":0.0625,"velocity":78,"measure":61,"beat":3.75,"subject_pos":-1,"motif":"","motif_pos":-1,"best_pos":1,"similarity":0.318},{"voice":6,"pitch":80,"start":121.375,"duration":0.125,"velocity":85,"measure":61,"beat":3.75,"subject_pos":-1,"motif":"","motif_pos":-1,"best_pos":3,"similarity":0.443},{"voice":10,"pitch":56,"start":121.375,"duration":0.125,"velocity":90,"measure":61,"beat":3.75,"subject_pos":6,"motif":"subject","motif_pos":6,"best_pos":6,"similarity":1.0},{"voice":11,"pitch":76,"start":121.375,"duration":0.125,"velocity":100,"measure":61,"beat":3.75,"subject_pos":6,"motif":"subject","motif_pos":6,"best_pos":6,"similarity":1.0},{"voice":2,"pitch":89,"start":121.4375,"duration":0.0625,"velocity":81,"measure":61,"beat":3.875,"subject_pos":-1,"motif":"","motif_pos":-1,"best_pos":6,"similarity":0.3},{"voice":0,"pitch":84,"start":121.5,"duration":0.5,"velocity":88,"measure":61,"beat":4.0,"subject_pos":7,"motif":"subject","motif_pos":7,"best_pos":7,"similarity":1.0},{"voice":2,"pitch":89,"start":121.5,"duration":0.0625,"velocity":60,"measure":61,"beat":4.0,"subject_pos":-1,"motif":"","motif_pos":-1,"best_pos":2,"similarity":0.407},{"voice":3,"pitch":28,"start":121.5,"duration":0.25,"velocity":105,"measure":61,"beat":4.0,"subject_pos":-1,"motif":"","motif_pos":-1,"best_pos":0,"similarity":0.329},{"voice":5,"pitch":62,"start":121.5,"duration":0.25,"velocity":85,"measure":61,"beat":4.0,"subject_pos":-1,"motif":"","motif_pos":-1,"best_pos":5,"similarity":0.157},{"voice":5,"pitch":65,"start":121.5,"duration":0.25,"velocity":85,"measure":61,"beat":4.0,"subject_pos":-1,"motif":"","motif_pos":-1,"best_pos":6,"similarity":0.171},{"voice":5,"pitch":69,"start":121.5,"duration":0.25,"velocity":85,"measure":61,"beat":4.0,"subject_pos":-1,"motif":"","motif_pos":-1,"best_pos":0,"similarity":0.286},{"voice":5,"pitch":74,"start":121.5,"duration":0.25,"velocity":85,"measure":61,"beat":4.0,"subject_pos":-1,"motif":"","motif_pos":-1,"best_pos":1,"similarity":0.286},{"voice":5,"pitch":77,"start":121.5,"duration":0.25,"velocity":85,"measure":61,"beat":4.0,"subject_pos":-1,"motif":"","motif_pos":-1,"best_pos":6,"similarity":0.186},{"voice":5,"pitch":81,"start":121.5,"duration":0.25,"velocity":85,"measure":61,"beat":4.0,"subject_pos":-1,"motif":"","motif_pos":-1,"best_pos":1,"similarity":0.143},{"voice":6,"pitch":80,"start":121.5,"duration":0.125,"velocity":60,"measure":61,"beat":4.0,"subject_pos":-1,"motif":"","motif_pos":-1,"best_pos":4,"similarity":0.514},{"voice":7,"pitch":36,"start":121.5,"duration":0.25,"velocity":115,"measure":61,"beat":4.0,"subject_pos":-1,"motif":"","motif_pos":-1,"best_pos":4,"similarity":0.389},{"voice":8,"pitch":74,"start":121.5,"duration":0.25,"velocity":100,"measure":61,"beat":4.0,"subject_pos":-1,"motif":"","motif_pos":-1,"best_pos":4,"similarity":0.389},{"voice":10,"pitch":57,"start":121.5,"duration":0.5,"velocity":90,"measure":61,"beat":4.0,"subject_pos":7,"motif":"subject","motif_pos":7,"best_pos":7,"similarity":1.0},{"voice":11,"pitch":77,"start":121.5,"duration":0.5,"velocity":100,"measure":61,"beat":4.0,"subject_pos":7,"motif":"subject","motif_pos":7,"best_pos":7,"similarity":1.0},{"voice":2,"pitch":86,"start":121.5625,"duration":0.0625,"velocity":63,"measure":61,"beat":4.125,"subject_pos":-1,"motif":"","motif_pos":-1,"best_pos":3,"similarity":0.368},{"voice":2,"pitch":81,"start":121.625,"duration":0.0625,"velocity":66,"measure":61,"beat":4.25,"subject_pos":-1,"motif":"","motif_pos":-1,"best_pos":1,"similarity":0.436},{"voice":6,"pitch":80,"start":121.625,"duration":0.125,"velocity":85,"measure":61,"beat":4.25,"subject_pos":-1,"motif":"","motif_pos":-1,"best_pos":5,"similarity":0.55},{"voice":2,"pitch":77,"start":121.6875,"duration":0.0625,"velocity":69,"measure":61,"beat":4.375,"subject_pos":-1,"motif":"","motif_pos":-1,"best_pos":2,"similarity":0.586},{"voice":2,"pitch":74,"start":121.75,"duration":0.0625,"velocity":72,"measure":61,"beat":4.5,"subject_pos":-1,"motif":"","motif_pos":-1,"best_pos":3,"similarity":0.457},{"voice":6,"pitch":82,"start":121.75,"duration":0.125,"velocity":105,"measure":61,"beat":4.5,"subject_pos":-1,"motif":"","motif_pos":-1,"best_pos":6,"similarity":0.421},{"voice":2,"pitch":69,"start":121.8125,"duration":0.0625,"velocity":75,"measure":61,"beat":4.625,"subject_pos":-1,"motif":"","motif_pos":-1,"best_pos":1,"similarity":0.429},{"voice":2,"pitch":65,"start":121.875,"duration":0.0625,"velocity":78,"measure":61,"beat":4.75,"subject_pos":-1,"motif":"","motif_pos":-1,"best_pos":2,"similarity":0.589},{"voice":6,"pitch":80,"start":121.875,"duration":0.125,"velocity":85,"measure":61,"beat":4.75,"subject_pos":-1,"motif":"","motif_pos":-1,"best_pos":3,"similarity":0.443},{"voice":2,"pitch":62,"start":121.9375,"duration":0.0625,"velocity":81,"measure":61,"beat":4.875,"subject_pos":-1,"motif":"","motif_pos":-1,"best_pos":3,"similarity":0.482},{"voice":0,"pitch":74,"start":122.0,"duration":0.25,"velocity":85,"measure":62,"beat":1.0,"subject_pos":0,"motif":"subject_inv","motif_pos":0,"best_pos":0,"similarity":1.0},{"voice":2,"pitch":67,"start":122.0,"duration":0.0625,"velocity":60,"measure":62,"beat":1.0,"subject_pos":-1,"motif":"","motif_pos":-1,"best_pos":4,"similarity":0.329},{"voice":3,"pitch":33,"start":122.0,"duration":0.25,"velocity":105,"measure":62,"beat":1.0,"subject_pos":-1,"motif":"","motif_pos":-1,"best_pos":1,"similarity":0.407},{"voice":5,"pitch":55,"start":122.0,"duration":0.25,"velocity":85,"measure":62,"beat":1.0,"subject_pos":-1,"motif":"","motif_pos":-1,"best_pos":5,"similarity":0.157},{"voice":5,"pitch":58,"start":122.0,"duration":0.25,"velocity":85,"measure":62,"beat":1.0,"subject_pos":-1,"motif":"","motif_pos":-1,"best_pos":6,"similarity":0.171},{"voice":5,"pitch":62,"start":122.0,"duration":0.25,"velocity":85,"measure":62,"beat":1.0,"subject_pos":-1,"motif":"","motif_pos":-1,"best_pos":0,"similarity":0.286},{"voice":5,"pitch":67,"start":122.0,"duration":0.25,"velocity":85,"measure":62,"beat":1.0,"subject_pos":-1,"motif":"","motif_pos":-1,"best_pos":1,"similarity":0.286},{"voice":5,"pitch":70,"start":122.0,"duration":0.25,"velocity":85,"measure":62,"beat":1.0,"subject_pos":-1,"motif":"","motif_pos":-1,"best_pos":6,"similarity":0.186},{"voice":5,"pitch":74,"start":122.0,"duration":0.25,"velocity":85,"measure":62,"beat":1.0,"subject_pos":-1,"motif":"","motif_pos":-1,"best_pos":1,"similarity":0.143},{"voice":6,"pitch":80,"start":122.0,"duration":0.125,"velocity":60,"measure":62,"beat":1.0,"subject_pos":-1,"motif":"","motif_pos":-1,"best_pos":4,"similarity":0.514},{"voice":7,"pitch":36,"start":122.0,"duration":0.25,"velocity":115,"measure":62,"beat":1.0,"subject_pos":-1,"motif":"","motif_pos":-1,"best_pos":4,"similarity":0.389},{"voice":10,"pitch":55,"start":122.0,"duration":0.25,"velocity":88,"measure":62,"beat":1.0,"subject_pos":0,"motif":"subject_inv","motif_pos":0,"best_pos":0,"similarity":1.0},{"voice":11,"pitch":81,"start":122.0,"duration":0.25,"velocity":105,"measure":62,"beat":1.0,"subject_pos":0,"motif":"subject","motif_pos":0,"best_pos":0,"similarity":1.0},{"voice":2,"pitch":70,"start":122.0625,"duration":0.0625,"velocity":63,"measure":62,"beat":1.125,"subject_pos":-1,"motif":"","motif_pos":-1,"best_pos":5,"similarity":0.229},{"voice":2,"pitch":74,"start":122.125,"duration":0.0625,"velocity":66,"measure":62,"beat":1.25,"subject_pos":-1,"motif":"","motif_pos":-1,"best_pos":0,"similarity":0.286},{"voice":6,"pitch":80,"start":122.125,"duration":0.125,"velocity":85,"measure":62,"beat":1.25,"subject_pos":-1,"motif":"","motif_pos":-1,"best_pos":5,"similarity":0.55},{"voice":2,"pitch":79,"start":122.1875,"duration":0.0625,"velocity":69,"measure":62,"beat":1.375,"subject_pos":-1,"motif":"","motif_pos":-1,"best_pos":1,"similarity":0.286},{"voice":0,"pitch":69,"start":122.25,"duration":0.25,"velocity":85,"measure":62,"beat":1.5,"subject_pos":1,"motif":"subject_inv","motif_pos":1,"best_pos":1,"similarity":1.0},{"voice":2,"pitch":82,"start":122.25,"duration":0.0625,"velocity":72,"measure":62,"beat":1.5,"subject_pos":-1,"motif":"","motif_pos":-1,"best_pos":6,"similarity":0.186},{"voice":6,"pitch":82,"start":122.25,"duration":0.125,"velocity":105,"measure":62,"beat":1.5,"subject_pos":-1,"motif":"","motif_pos":-1,"best_pos":6,"similarity":0.421},{"voice":10,"pitch":48,"start":122.25,"duration":0.25,"velocity":88,"measure":62,"beat":1.5,"subject_pos":1,"motif":"subject_inv","motif_pos":1,"best_pos":1,"similarity":1.0},{"voice":11,"pitch":88,"start":122.25,"duration":0.25,"velocity":105,"measure":62,"beat":1.5,"subject_pos":1,"motif":"subject","motif_pos":1,"best_pos":1,"similarity":1.0},{"voice":2,"pitch":86,"start":122.3125,"duration":0.0625,"velocity":75,"measure":62,"beat":1.625,"subject_pos":-1,"motif":"","motif_pos":-1,"best_pos":0,"similarity":0.293},{"voice":2,"pitch":91,"start":122.375,"duration":0.0625,"velocity":78,"measure":62,"beat":1.75,"subject_pos":-1,"motif":"","motif_pos":-1,"best_pos":1,"similarity":0.318},{"voice":6,"pitch":80,"start":122.375,"duration":0.125,"velocity":85,"measure":62,"beat":1.75,"subject_pos":-1,"motif":"","motif_pos":-1,"best_pos":3,"similarity":0.443},{"voice":2,"pitch":94,"start":122.4375,"duration":0.0625,"velocity":81,"measure":62,"beat":1.875,"subject_pos":-1,"motif":"","motif_pos":-1,"best_pos":6,"similarity":0.3},{"voice":0,"pitch":71,"start":122.5,"duration":0.25,"velocity":85,"measure":62,"beat":2.0,"subject_pos":2,"motif":"subject_inv","motif_pos":2,"best_pos":2,"similarity":1.0},{"voice":2,"pitch":94,"start":122.5,"duration":0.0625,"velocity":60,"measure":62,"beat":2.0,"subject_pos":-1,"motif":"","motif_pos":-1,"best_pos":2,"similarity":0.407},{"voice":3,"pitch":33,"start":122.5,"duration":0.25,"velocity":105,"measure":62,"beat":2.0,"subject_pos":-1,"motif":"","motif_pos":-1,"best_pos":4,"similarity":0.357},{"voice":5,"pitch":55,"start":122.5,"duration":0.25,"velocity":85,"measure":62,"beat":2.0,"subject_pos":-1,"motif":"","motif_pos":-1,"best_pos":5,"similarity":0.157},{"voice":5,"pitch":58,"start":122.5,"duration":0.25,"velocity":85,"measure":62,"beat":2.0,"subject_pos":-1,"motif":"","motif_pos":-1,"best_pos":6,"similarity":0.171},{"voice":5,"pitch":62,"start":122.5,"duration":0.25,"velocity":85,"measure":62,"beat":2.0,"subject_pos":-1,"motif":"","motif_pos":-1,"best_pos":0,"similarity":0.286},{"voice":5,"pitch":67,"start":122.5,"duration":0.25,"velocity":85,"measure":62,"beat":2.0,"subject_pos":-1,"motif":"","motif_pos":-1,"best_pos":1,"similarity":0.286},{"voice":5,"pitch":70,"start":122.5,"duration":0.25,"velocity":85,"measure":62,"beat":2.0,"subject_pos":-1,"motif":"","motif_pos":-1,"best_pos":6,"similarity":0.186},{"voice":5,"pitch":74,"start":122.5,"duration":0.25,"velocity":85,"measure":62,"beat":2.0,"subject_pos":-1,"motif":"","motif_pos":-1,"best_pos":1,"similarity":0.143},{"voice":6,"pitch":80,"start":122.5,"duration":0.125,"velocity":60,"measure":62,"beat":2.0,"subject_pos":-1,"motif":"","motif_pos":-1,"best_pos":4,"similarity":0.514},{"voice":7,"pitch":36,"start":122.5,"duration":0.25,"velocity":115,"measure":62,"beat":2.0,"subject_pos":-1,"motif":"","motif_pos":-1,"best_pos":4,"similarity":0.389},{"voice":8,"pitch":74,"start":122.5,"duration":0.25,"velocity":100,"measure":62,"beat":2.0,"subject_pos":-1,"motif":"","motif_pos":-1,"best_pos":4,"similarity":0.389},{"voice":10,"pitch":52,"start":122.5,"duration":0.25,"velocity":88,"measure":62,"beat":2.0,"subject_pos":2,"motif":"subject_inv","motif_pos":2,"best_pos":2,"similarity":1.0},{"voice":11,"pitch":84,"start":122.5,"duration":0.25,"velocity":105,"measure":62,"beat":2.0,"subject_pos":2,"motif":"subject","motif_pos":2,"best_pos":2,"similarity":1.0},{"voice":2,"pitch":91,"start":122.5625,"duration":0.0625,"velocity":63,"measure":62,"beat":2.125,"subject_pos":-1,"motif":"","motif_pos":-1,"best_pos":3,"similarity":0.368},{"voice":2,"pitch":86,"start":122.625,"duration":0.0625,"velocity":66,"measure":62,"beat":2.25,"subject_pos":-1,"motif":"","motif_pos":-1,"best_pos":1,"similarity":0.436},{"voice":6,"pitch":80,"start":122.625,"duration":0.125,"velocity":85,"measure":62,"beat":2.25,"subject_pos":-1,"motif":"","motif_pos":-1,"best_pos":5,"similarity":0.55},{"voice":2,"pitch":82,"start":122.6875,"duration":0.0625,"velocity":69,"measure":62,"beat":2.375,"subject_pos":-1,"motif":"","motif_pos":-1,"best_pos":2,"similarity":0.586},{"voice":0,"pitch":74,"start":122.75,"duration":0.25,"velocity":85,"measure":62,"beat":2.5,"subject_pos":3,"motif":"subject_inv","motif_pos":3,"best_pos":3,"similarity":1.0},{"voice":2,"pitch":79,"start":122.75,"duration":0.0625,"velocity":72,"measure":62,"beat":2.5,"subject_pos":-1,"motif":"","motif_pos":-1,"best_pos":3,"similarity":0.457},{"voice":6,"pitch":82,"start":122.75,"duration":0.125,"velocity":105,"measure":62,"beat":2.5,"subject_pos":-1,"motif":"","motif_pos":-1,"best_pos":6,"similarity":0.421},{"voice":10,"pitch":55,"start":122.75,"duration":0.25,"velocity":88,"measure":62,"beat":2.5,"subject_pos":3,"motif":"subject_inv","motif_pos":3,"best_pos":3,"similarity":1.0},{"voice":11,"pitch":81,"start":122.75,"duration":0.25,"velocity":105,"measure":62,"beat":2.5,"subject_pos":3,"motif":"subject","motif_pos":3,"best_pos":3,"similarity":1.0},{"voice":2,"pitch":74,"start":122.8125,"duration":0.0625,"velocity":75,"measure":62,"beat":2.625,"subject_pos":-1,"motif":"","motif_pos":-1,"best_pos":1,"similarity":0.464},{"voice":2,"pitch":70,"start":122.875,"duration":0.0625,"velocity":78,"measure":62,"beat":2.75,"subject_pos":-1,"motif":"","motif_pos":-1,"best_pos":2,"similarity":0.661},{"voice":6,"pitch":80,"start":122.875,"duration":0.125,"velocity":85,"measure":62,"beat":2.75,"subject_pos":-1,"motif":"","motif_pos":-1,"best_pos":3,"similarity":0.443},{"voice":2,"pitch":67,"start":122.9375,"duration":0.0625,"velocity":81,"measure":62,"beat":2.875,"subject_pos":-1,"motif":"","motif_pos":-1,"best_pos":3,"similarity":0.625},{"voice":0,"pitch":75,"start":123.0,"duration":0.25,"velocity":85,"measure":62,"beat":3.0,"subject_pos":4,"motif":"subject_inv","motif_pos":4,"best_pos":4,"similarity":1.0},{"voice":2,"pitch":67,"start":123.0,"duration":0.0625,"velocity":60,"measure":62,"beat":3.0,"subject_pos":-1,"motif":"","motif_pos":-1,"best_pos":4,"similarity":0.471},{"voice":3,"pitch":33,"start":123.0,"duration":0.25,"velocity":105,"measure":62,"beat":3.0,"subject_pos":-1,"motif":"","motif_pos":-1,"best_pos":4,"similarity":0.407},{"voice":5,"pitch":55,"start":123.0,"duration":0.25,"velocity":85,"measure":62,"beat":3.0,"subject_pos":-1,"motif":"","motif_pos":-1,"best_pos":5,"similarity":0.157},{"voice":5,"pitch":58,"start":123.0,"duration":0.25,"velocity":85,"measure":62,"beat":3.0,"subject_pos":-1,"motif":"","motif_pos":-1,"best_pos":6,"similarity":0.171},{"voice":5,"pitch":62,"start":123.0,"duration":0.25,"velocity":85,"measure":62,"beat":3.0,"subject_pos":-1,"motif":"","motif_pos":-1,"best_pos":0,"similarity":0.286},{"voice":5,"pitch":67,"start":123.0,"duration":0.25,"velocity":85,"measure":62,"beat":3.0,"subject_pos":-1,"motif":"","motif_pos":-1,"best_pos":1,"similarity":0.286},{"voice":5,"pitch":70,"start":123.0,"duration":0.25,"velocity":85,"measure":62,"beat":3.0,"subject_pos":-1,"motif":"","motif_pos":-1,"best_pos":6,"similarity":0.186},{"voice":5,"pitch":74,"start":123.0,"duration":0.25,"velocity":85,"measure":62,"beat":3.0,"subject_pos":-1,"motif":"","motif_pos":-1,"best_pos":1,"similarity":0.143},{"voice":6,"pitch":80,"start":123.0,"duration":0.125,"velocity":60,"measure":62,"beat":3.0,"subject_pos":-1,"motif":"","motif_pos":-1,"best_pos":4,"similarity":0.514},{"voice":7,"pitch":36,"start":123.0,"duration":0.25,"velocity":115,"measure":62,"beat":3.0,"subject_pos":-1,"motif":"","motif_pos":-1,"best_pos":4,"similarity":0.389},{"voice":10,"pitch":56,"start":123.0,"duration":0.25,"velocity":88,"measure":62,"beat":3.0,"subject_pos":4,"motif":"subject_inv","motif_pos":4,"best_pos":4,"similarity":1.0},{"voice":11,"pitch":80,"start":123.0,"duration":0.25,"velocity":105,"measure":62,"beat":3.0,"subject_pos":4,"motif":"subject","motif_pos":4,"best_pos":4,"similarity":1.0},{"voice":2,"pitch":70,"start":123.0625,"duration":0.0625,"velocity":63,"measure":62,"beat":3.125,"subject_pos":-1,"motif":"","motif_pos":-1,"best_pos":5,"similarity":0.3},{"voice":2,"pitch":74,"start":123.125,"duration":0.0625,"velocity":66,"measure":62,"beat":3.25,"subject_pos":-1,"motif":"","motif_pos":-1,"best_pos":0,"similarity":0.286},{"voice":6,"pitch":80,"start":123.125,"duration":0.125,"velocity":85,"measure":62,"beat":3.25,"subject_pos":-1,"motif":"","motif_pos":-1,"best_pos":5,"similarity":0.55},{"voice":2,"pitch":79,"start":123.1875,"duration":0.0625,"velocity":69,"measure":62,"beat":3.375,"subject_pos":-1,"motif":"","motif_pos":-1,"best_pos":1,"similarity":0.286},{"voice":0,"pitch":74,"start":123.25,"duration":0.125,"velocity":85,"measure":62,"beat":3.5,"subject_pos":5,"motif":"subject_inv","motif_pos":5,"best_pos":5,"similarity":1.0},{"voice":2,"pitch":82,"start":123.25,"duration":0.0625,"velocity":72,"measure":62,"beat":3.5,"subject_pos":-1,"motif":"","motif_pos":-1,"best_pos":6,"similarity":0.186},{"voice":6,"pitch":82,"start":123.25,"duration":0.125,"velocity":105,"measure":62,"beat":3.5,"subject_pos":-1,"motif":"","motif_pos":-1,"best_pos":6,"similarity":0.421},{"voice":10,"pitch":55,"start":123.25,"duration":0.125,"velocity":88,"measure":62,"beat":3.5,"subject_pos":5,"motif":"subject_inv","motif_pos":5,"best_pos":5,"similarity":1.0},{"voice":11,"pitch":81,"start":123.25,"duration":0.125,"velocity":105,"measure":62,"beat":3.5,"subject_pos":5,"motif":"subject","motif_pos":5,"best_pos":5,"similarity":1.0},{"voice":2,"pitch":86,"start":123.3125,"duration":0.0625,"velocity":75,"measure":62,"beat":3.625,"subject_pos":-1,"motif":"","motif_pos":-1,"best_pos":0,"similarity":0.293},{"voice":0,"pitch":72,"start":123.375,"duration":0.125,"velocity":85,"measure":62,"beat":3.75,"subject_pos":6,"motif":"subject_inv","motif_pos":6,"best_pos":6,"similarity":1.0},{"voice":2,"pitch":91,"start":123.375,"duration":0.0625,"velocity":78,"measure":62,"beat":3.75,"subject_pos":-1,"motif":"","motif_pos":-1,"best_pos":1,"similarity":0.318},{"voice":6,"pitch":80,"start":123.375,"duration":0.125,"velocity":85,"measure":62,"beat":3.75,"subject_pos":-1,"motif":"","motif_pos":-1,"best_pos":3,"similarity":0.443},{"voice":10,"pitch":53,"start":123.375,"duration":0.125,"velocity":88,"measure":62,"beat":3.75,"subject_pos":6,"motif":"subject_inv","motif_pos":6,"best_pos":6,"similarity":1.0},{"voice":11,"pitch":83,"start":123.375,"duration":0.125,"velocity":105,"measure":62,"beat":3.75,"subject_pos":6,"motif":"subject","motif_pos":6,"best_pos":6,"similarity":1.0},{"voice":2,"pitch":94,"start":123.4375,"duration":0.0625,"velocity":81,"measure":62,"beat":3.875,"subject_pos":-1,"motif":"","motif_pos":-1,"best_pos":6,"similarity":0.3},{"voice":0,"pitch":71,"start":123.5,"duration":0.5,"velocity":85,"measure":62,"beat":4.0,"subject_pos":7,"motif":"subject_inv","motif_pos":7,"best_pos":7,"similarity":1.0},{"voice":2,"pitch":94,"start":123.5,"duration":0.0625,"velocity":60,"measure":62,"beat":4.0,"subject_pos":-1,"motif":"","motif_pos":-1,"best_pos":2,"similarity":0.407},{"voice":3,"pitch":33,"start":123.5,"duration":0.25,"velocity":105,"measure":62,"beat":4.0,"subject_pos":-1,"motif":"","motif_pos":-1,"best_pos":5,"similarity":0.436},{"voice":5,"pitch":55,"start":123.5,"duration":0.25,"velocity":85,"measure":62,"beat":4.0,"subject_pos":-1,"motif":"","motif_pos":-1,"best_pos":5,"similarity":0.157},{"voice":5,"pitch":58,"start":123.5,"duration":0.25,"velocity":85,"measure":62,"beat":4.0,"subject_pos":-1,"motif":"","motif_pos":-1,"best_pos":6,"similarity":0.171},{"voice":5,"pitch":62,"start":123.5,"duration":0.25,"velocity":85,"measure":62,"beat":4.0,"subject_pos":-1,"motif":"","motif_pos":-1,"best_pos":0,"similarity":0.286},{"voice":5,"pitch":67,"start":123.5,"duration":0.25,"velocity":85,"measure":62,"beat":4.0,"subject_pos":-1,"motif":"","motif_pos":-1,"best_pos":1,"similarity":0.286},{"voice":5,"pitch":70,"start":123.5,"duration":0.25,"velocity":85,"measure":62,"beat":4.0,"subject_pos":-1,"motif":"","motif_pos":-1,"best_pos":6,"similarity":0.186},{"voice":5,"pitch":74,"start":123.5,"duration":0.25,"velocity":85,"measure":62,"beat":4.0,"subject_pos":-1,"motif":"","motif_pos":-1,"best_pos":1,"similarity":0.15},{"voice":6,"pitch":80,"start":123.5,"duration":0.125,"velocity":60,"measure":62,"beat":4.0,"subject_pos":-1,"motif":"","motif_pos":-1,"best_pos":4,"similarity":0.514},{"voice":7,"pitch":36,"start":123.5,"duration":0.25,"velocity":115,"measure":62,"beat":4.0,"subject_pos":-1,"motif":"","motif_pos":-1,"best_pos":4,"similarity":0.389},{"voice":8,"pitch":74,"start":123.5,"duration":0.25,"velocity":100,"measure":62,"beat":4.0,"subject_pos":-1,"motif":"","motif_pos":-1,"best_pos":4,"similarity":0.389},{"voice":10,"pitch":52,"start":123.5,"duration":0.5,"velocity":88,"measure":62,"beat":4.0,"subject_pos":7,"motif":"subject_inv","motif_pos":7,"best_pos":7,"similarity":1.0},{"voice":11,"pitch":84,"start":123.5,"duration":0.5,"velocity":105,"measure":62,"beat":4.0,"subject_pos":7,"motif":"subject","motif_pos":7,"best_pos":7,"similarity":1.0},{"voice":2,"pitch":91,"start":123.5625,"duration":0.0625,"velocity":63,"measure":62,"beat":4.125,"subject_pos":-1,"motif":"","motif_pos":-1,"best_pos":3,"similarity":0.368},{"voice":2,"pitch":86,"start":123.625,"duration":0.0625,"velocity":66,"measure":62,"beat":4.25,"subject_pos":-1,"motif":"","motif_pos":-1,"best_pos":1,"similarity":0.436},{"voice":6,"pitch":80,"start":123.625,"duration":0.125,"velocity":85,"measure":62,"beat":4.25,"subject_pos":-1,"motif":"","motif_pos":-1,"best_pos":5,"similarity":0.55},{"voice":2,"pitch":82,"start":123.6875,"duration":0.0625,"velocity":69,"measure":62,"beat":4.375,"subject_pos":-1,"motif":"","motif_pos":-1,"best_pos":2,"similarity":0.586},{"voice":2,"pitch":79,"start":123.75,"duration":0.0625,"velocity":72,"measure":62,"beat":4.5,"subject_pos":-1,"motif":"","motif_pos":-1,"best_pos":3,"similarity":0.457},{"voice":6,"pitch":82,"start":123.75,"duration":0.125,"velocity":105,"measure":62,"beat":4.5,"subject_pos":-1,"motif":"","motif_pos":-1,"best_pos":6,"similarity":0.421},{"voice":2,"pitch":74,"start":123.8125,"duration":0.0625,"velocity":75,"measure":62,"beat":4.625,"subject_pos":-1,"motif":"","motif_pos":-1,"best_pos":1,"similarity":0.436},{"voice":2,"pitch":70,"start":123.875,"duration":0.0625,"velocity":78,"measure":62,"beat":4.75,"subject_pos":-1,"motif":"","motif_pos":-1,"best_pos":2,"similarity":0.593},{"voice":6,"pitch":80,"start":123.875,"duration":0.125,"velocity":85,"measure":62,"beat":4.75,"subject_pos":-1,"motif":"","motif_pos":-1,"best_pos":3,"similarity":0.443},{"voice":2,"pitch":67,"start":123.9375,"duration":0.0625,"velocity":81,"measure":62,"beat":4.875,"subject_pos":-1,"motif":"","motif_pos":-1,"best_pos":3,"similarity":0.507},{"voice":2,"pitch":70,"start":124.0,"duration":0.0625,"velocity":60,"measure":63,"beat":1.0,"subject_pos":-1,"motif":"","motif_pos":-1,"best_pos":4,"similarity":0.35},{"voice":3,"pitch":36,"start":124.0,"duration":0.25,"velocity":105,"measure":63,"beat":1.0,"subject_pos":-1,"motif":"","motif_pos":-1,"best_pos":6,"similarity":0.393},{"voice":5,"pitch":58,"start":124.0,"duration":0.25,"velocity":85,"measure":63,"beat":1.0,"subject_pos":-1,"motif":"","motif_pos":-1,"best_pos":0,"similarity":0.143},{"voice":5,"pitch":62,"start":124.0,"duration":0.25,"velocity":85,"measure":63,"beat":1.0,"subject_pos":-1,"motif":"","motif_pos":-1,"best_pos":5,"similarity":0.186},{"voice":5,"pitch":65,"start":124.0,"duration":0.25,"velocity":85,"measure":63,"beat":1.0,"subject_pos":-1,"motif":"","motif_pos":-1,"best_pos":0,"similarity":0.286},{"voice":5,"pitch":70,"start":124.0,"duration":0.25,"velocity":85,"measure":63,"beat":1.0,"subject_pos":-1,"motif":"","motif_pos":-1,"best_pos":1,"similarity":0.286},{"voice":5,"pitch":74,"start":124.0,"duration":0.25,"velocity":85,"measure":63,"beat":1.0,"subject_pos":-1,"motif":"","motif_pos":-1,"best_pos":5,"similarity":0.171},{"voice":5,"pitch":77,"start":124.0,"duration":0.25,"velocity":85,"measure":63,"beat":1.0,"subject_pos":-1,"motif":"","motif_pos":-1,"best_pos":6,"similarity":0.157},{"voice":6,"pitch":80,"start":124.0,"duration":0.125,"velocity":60,"measure":63,"beat":1.0,"subject_pos":-1,"motif":"","motif_pos":-1,"best_pos":4,"similarity":0.514},{"voice":7,"pitch":36,"start":124.0,"duration":0.25,"velocity":115,"measure":63,"beat":1.0,"subject_pos":-1,"motif":"","motif_pos":-1,"best_pos":4,"similarity":0.389},{"voice":10,"pitch":56,"start":124.0,"duration":0.25,"velocity":90,"measure":63,"beat":1.0,"subject_pos":0,"motif":"subject","motif_pos":0,"best_pos":0,"similarity":1.0},{"voice":2,"pitch":74,"start":124.0625,"duration":0.0625,"velocity":63,"measure":63,"beat":1.125,"subject_pos":-1,"motif":"","motif_pos":-1,"best_pos":5,"similarity":0.271},{"voice":2,"pitch":77,"start":124.125,"duration":0.0625,"velocity":66,"measure":63,"beat":1.25,"subject_pos":-1,"motif":"","motif_pos":-1,"best_pos":0,"similarity":0.286},{"voice":6,"pitch":80,"start":124.125,"duration":0.125,"velocity":85,"measure":63,"beat":1.25,"subject_pos":-1,"motif":"","motif_pos":-1,"best_pos":5,"similarity":0.55},{"voice":2,"pitch":82,"start":124.1875,"duration":0.0625,"velocity":69,"measure":63,"beat":1.375,"subject_pos":-1,"motif":"","motif_pos":-1,"best_pos":1,"similarity":0.286},{"voice":2,"pitch":86,"start":124.25,"duration":0.0625,"velocity":72,"measure":63,"beat":1.5,"subject_pos":-1,"motif":"","motif_pos":-1,"best_pos":5,"similarity":0.186},{"voice":6,"pitch":82,"start":124.25,"duration":0.125,"velocity":105,"measure":63,"beat":1.5,"subject_pos":-1,"motif":"","motif_pos":-1,"best_pos":6,"similarity":0.421},{"voice":10,"pitch":63,"start":124.25,"duration":0.25,"velocity":90,"measure":63,"beat":1.5,"subject_pos":1,"motif":"subject","motif_pos":1,"best_pos":1,"similarity":1.0},{"voice":2,"pitch":89,"start":124.3125,"duration":0.0625,"velocity":75,"measure":63,"beat":1.625,"subject_pos":-1,"motif":"","motif_pos":-1,"best_pos":0,"similarity":0.293},{"voice":2,"pitch":94,"start":124.375,"duration":0.0625,"velocity":78,"measure":63,"beat":1.75,"subject_pos":-1,"motif":"","motif_pos":-1,"best_pos":1,"similarity":0.307},{"voice":6,"pitch":80,"start":124.375,"duration":0.125,"velocity":85,"measure":63,"beat":1.75,"subject_pos":-1,"motif":"","motif_pos":-1,"best_pos":3,"similarity":0.443},{"voice":2,"pitch":98,"start":124.4375,"duration":0.0625,"velocity":81,"measure":63,"beat":1.875,"subject_pos":-1,"motif":"","motif_pos":-1,"best_pos":1,"similarity":0.293},{"voice":2,"pitch":98,"start":124.5,"duration":0.0625,"velocity":60,"measure":63,"beat":2.0,"subject_pos":-1,"motif":"","motif_pos":-1,"best_pos":1,"similarity":0.339},{"voice":3,"pitch":36,"start":124.5,"duration":0.25,"velocity":105,"measure":63,"beat":2.0,"subject_pos":-1,"motif":"","motif_pos":-1,"best_pos":4,"similarity":0.339},{"voice":5,"pitch":58,"start":124.5,"duration":0.25,"velocity":85,"measure":63,"beat":2.0,"subject_pos":-1,"motif":"","motif_pos":-1,"best_pos":0,"similarity":0.143},{"voice":5,"pitch":62,"start":124.5,"duration":0.25,"velocity":85,"measure":63,"beat":2.0,"subject_pos":-1,"motif":"","motif_pos":-1,"best_pos":5,"similarity":0.186},{"voice":5,"pitch":65,"start":124.5,"duration":0.25,"velocity":85,"measure":63,"beat":2.0,"subject_pos":-1,"motif":"","motif_pos":-1,"best_pos":0,"similarity":0.286},{"voice":5,"pitch":70,"start":124.5,"duration":0.25,"velocity":85,"measure":63,"beat":2.0,"subject_pos":-1,"motif":"","motif_pos":-1,"best_pos":1,"similarity":0.286},{"voice":5,"pitch":74,"start":124.5,"duration":0.25,"velocity":85,"measure":63,"beat":2.0,"subject_pos":-1,"motif":"","motif_pos":-1,"best_pos":5,"similarity":0.171},{"voice":5,"pitch":77,"start":124.5,"duration":0.25,"velocity":85,"measure":63,"beat":2.0,"subject_pos":-1,"motif":"","motif_pos":-1,"best_pos":6,"similarity":0.157},{"voice":6,"pitch":80,"start":124.5,"duration":0.125,"velocity":60,"measure":63,"beat":2.0,"subject_pos":-1,"motif":"","motif_pos":-1,"best_pos":4,"similarity":0.514},{"voice":7,"pitch":36,"start":124.5,"duration":0.25,"velocity":115,"measure":63,"beat":2.0,"subject_pos":-1,"motif":"","motif_pos":-1,"best_pos":4,"similarity":0.389},{"voice":8,"pitch":74,"start":124.5,"duration":0.25,"velocity":100,"measure":63,"beat":2.0,"subject_pos":-1,"motif":"","motif_pos":-1,"best_pos":4,"similarity":0.389},{"voice":10,"pitch":59,"start":124.5,"duration":0.25,"velocity":90,"measure":63,"beat":2.0,"subject_pos":2,"motif":"subject","motif_pos":2,"best_pos":2,"similarity":1.0},{"voice":2,"pitch":94,"start":124.5625,"duration":0.0625,"velocity":63,"measure":63,"beat":2.125,"subject_pos":-1,"motif":"","motif_pos":-1,"best_pos":2,"similarity":0.393},{"voice":2,"pitch":89,"start":124.625,"duration":0.0625,"velocity":66,"measure":63,"beat":2.25,"subject_pos":-1,"motif":"","motif_pos":-1,"best_pos":2,"similarity":0.443},{"voice":6,"pitch":80,"start":124.625,"duration":0.125,"velocity":85,"measure":63,"beat":2.25,"subject_pos":-1,"motif":"","motif_pos":-1,"best_pos":5,"similarity":0.55},{"voice":2,"pitch":86,"start":124.6875,"duration":0.0625,"velocity":69,"measure":63,"beat":2.375,"subject_pos":-1,"motif":"","motif_pos":-1,"best_pos":3,"similarity":0.386},{"voice":2,"pitch":82,"start":124.75,"duration":0.0625,"velocity":72,"measure":63,"beat":2.5,"subject_pos":-1,"motif":"","motif_pos":-1,"best_pos":2,"similarity":0.393},{"voice":6,"pitch":82,"start":124.75,"duration":0.125,"velocity":105,"measure":63,"beat":2.5,"subject_pos":-1,"motif":"","motif_pos":-1,"best_pos":6,"similarity":0.421},{"voice":10,"pitch":56,"start":124.75,"duration":0.25,"velocity":90,"measure":63,"beat":2.5,"subject_pos":3,"motif":"subject","motif_pos":3,"best_pos":3,"similarity":1.0},{"voice":2,"pitch":77,"start":124.8125,"duration":0.0625,"velocity":75,"measure":63,"beat":2.625,"subject_pos":-1,"motif":"","motif_pos":-1,"best_pos":2,"similarity":0.479},{"voice":2,"pitch":74,"start":124.875,"duration":0.0625,"velocity":78,"measure":63,"beat":2.75,"subject_pos":-1,"motif":"","motif_pos":-1,"best_pos":3,"similarity":0.475},{"voice":6,"pitch":80,"start":124.875,"duration":0.125,"velocity":85,"measure":63,"beat":2.75,"subject_pos":-1,"motif":"","motif_pos":-1,"best_pos":3,"similarity":0.443},{"voice":2,"pitch":70,"start":124.9375,"duration":0.0625,"velocity":81,"measure":63,"beat":2.875,"subject_pos":-1,"motif":"","motif_pos":-1,"best_pos":3,"similarity":0.407},{"voice":2,"pitch":70,"start":125.0,"duration":0.0625,"velocity":60,"measure":63,"beat":3.0,"subject_pos":-1,"motif":"","motif_pos":-1,"best_pos":4,"similarity":0.357},{"voice":3,"pitch":36,"start":125.0,"duration":0.25,"velocity":105,"measure":63,"beat":3.0,"subject_pos":-1,"motif":"","motif_pos":-1,"best_pos":4,"similarity":0.336},{"voice":5,"pitch":58,"start":125.0,"duration":0.25,"velocity":85,"measure":63,"beat":3.0,"subject_pos":-1,"motif":"","motif_pos":-1,"best_pos":0,"similarity":0.143},{"voice":5,"pitch":62,"start":125.0,"duration":0.25,"velocity":85,"measure":63,"beat":3.0,"subject_pos":-1,"motif":"","motif_pos":-1,"best_pos":5,"similarity":0.186},{"voice":5,"pitch":65,"start":125.0,"duration":0.25,"velocity":85,"measure":63,"beat":3.0,"subject_pos":-1,"motif":"","motif_pos":-1,"best_pos":0,"similarity":0.286},{"voice":5,"pitch":70,"start":125.0,"duration":0.25,"velocity":85,"measure":63,"beat":3.0,"subject_pos":-1,"motif":"","motif_pos":-1,"best_pos":1,"similarity":0.286},{"voice":5,"pitch":74,"start":125.0,"duration":0.25,"velocity":85,"measure":63,"beat":3.0,"subject_pos":-1,"motif":"","motif_pos":-1,"best_pos":5,"similarity":0.171},{"voice":5,"pitch":77,"start":125.0,"duration":0.25,"velocity":85,"measure":63,"beat":3.0,"subject_pos":-1,"motif":"","motif_pos":-1,"best_pos":6,"similarity":0.157},{"voice":6,"pitch":80,"start":125.0,"duration":0.125,"velocity":60,"measure":63,"beat":3.0,"subject_pos":-1,"motif":"","motif_pos":-1,"best_pos":4,"similarity":0.514},{"voice":7,"pitch":36,"start":125.0,"duration":0.25,"velocity":115,"measure":63,"beat":3.0,"subject_pos":-1,"motif":"","motif_pos":-1,"best_pos":4,"similarity":0.389},{"voice":10,"pitch":55,"start":125.0,"duration":0.25,"velocity":90,"measure":63,"beat":3.0,"subject_pos":4,"motif":"subject","motif_pos":4,"best_pos":4,"similarity":1.0},{"voice":2,"pitch":74,"start":125.0625,"duration":0.0625,"velocity":63,"measure":63,"beat":3.125,"subject_pos":-1,"motif":"","motif_pos":-1,"best_pos":5,"similarity":0.293},{"voice":2,"pitch":77,"start":125.125,"duration":0.0625,"velocity":66,"measure":63,"beat":3.25,"subject_pos":-1,"motif":"","motif_pos":-1,"best_pos":0,"similarity":0.286},{"voice":6,"pitch":80,"start":125.125,"duration":0.125,"velocity":85,"measure":63,"beat":3.25,"subject_pos":-1,"motif":"","motif_pos":-1,"best_pos":5,"similarity":0.55},{"voice":2,"pitch":82,"start":125.1875,"duration":0.0625,"velocity":69,"measure":63,"beat":3.375,"subject_pos":-1,"motif":"","motif_pos":-1,"best_pos":1,"similarity":0.286},{"voice":2,"pitch":86,"start":125.25,"duration":0.0625,"velocity":72,"measure":63,"beat":3.5,"subject_pos":-1,"motif":"","motif_pos":-1,"best_pos":5,"similarity":0.186},{"voice":6,"pitch":82,"start":125.25,"duration":0.125,"velocity":105,"measure":63,"beat":3.5,"subject_pos":-1,"motif":"","motif_pos":-1,"best_pos":6,"similarity":0.421},{"voice":10,"pitch":56,"start":125.25,"duration":0.125,"velocity":90,"measure":63,"beat":3.5,"subject_pos":5,"motif":"subject","motif_pos":5,"best_pos":5,"similarity":1.0},{"voice":2,"pitch":89,"start":125.3125,"duration":0.0625,"velocity":75,"measure":63,"beat":3.625,"subject_pos":-1,"motif":"","motif_pos":-1,"best_pos":0,"similarity":0.293},{"voice":2,"pitch":94,"start":125.375,"duration":0.0625,"velocity":78,"measure":63,"beat":3.75,"subject_pos":-1,"motif":"","motif_pos":-1,"best_pos":1,"similarity":0.307},{"voice":6,"pitch":80,"start":125.375,"duration":0.125,"velocity":85,"measure":63,"beat":3.75,"subject_pos":-1,"motif":"","motif_pos":-1,"best_pos":3,"similarity":0.443},{"voice":10,"pitch":58,"start":125.375,"duration":0.125,"velocity":90,"measure":63,"beat":3.75,"subject_pos":6,"motif":"subject","motif_pos":6,"best_pos":6,"similarity":1.0},{"voice":2,"pitch":98,"start":125.4375,"duration":0.0625,"velocity":81,"measure":63,"beat":3.875,"subject_pos":-1,"motif":"","motif_pos":-1,"best_pos":1,"similarity":0.293},{"voice":2,"pitch":98,"start":125.5,"duration":0.0625,"velocity":60,"measure":63,"beat":4.0,"subject_pos":-1,"motif":"","motif_pos":-1,"best_pos":1,"similarity":0.339},{"voice":3,"pitch":36,"start":125.5,"duration":0.25,"velocity":105,"measure":63,"beat":4.0,"subject_pos":-1,"motif":"","motif_pos":-1,"best_pos":5,"similarity":0.293},{"voice":5,"pitch":58,"start":125.5,"duration":0.25,"velocity":85,"measure":63,"beat":4.0,"subject_pos":-1,"motif":"","motif_pos":-1,"best_pos":0,"similarity":0.143},{"voice":5,"pitch":62,"start":125.5,"duration":0.25,"velocity":85,"measure":63,"beat":4.0,"subject_pos":-1,"motif":"","motif_pos":-1,"best_pos":5,"similarity":0.186},{"voice":5,"pitch":65,"start":125.5,"duration":0.25,"velocity":85,"measure":63,"beat":4.0,"subject_pos":-1,"motif":"","motif_pos":-1,"best_pos":0,"similarity":0.286},{"voice":5,"pitch":70,"start":125.5,"duration":0.25,"velocity":85,"measure":63,"beat":4.0,"subject_pos":-1,"motif":"","motif_pos":-1,"best_pos":1,"similarity":0.286},{"voice":5,"pitch":74,"start":125.5,"duration":0.25,"velocity":85,"measure":63,"beat":4.0,"subject_pos":-1,"motif":"","motif_pos":-1,"best_pos":5,"similarity":0.171},{"voice":5,"pitch":77,"start":125.5,"duration":0.25,"velocity":85,"measure":63,"beat":4.0,"subject_pos":-1,"motif":"","motif_pos":-1,"best_pos":6,"similarity":0.157},{"voice":6,"pitch":80,"start":125.5,"duration":0.125,"velocity":60,"measure":63,"beat":4.0,"subject_pos":-1,"motif":"","motif_pos":-1,"best_pos":4,"similarity":0.514},{"voice":7,"pitch":36,"start":125.5,"duration":0.25,"velocity":115,"measure":63,"beat":4.0,"subject_pos":-1,"motif":"","motif_pos":-1,"best_pos":4,"similarity":0.389},{"voice":8,"pitch":74,"start":125.5,"duration":0.25,"velocity":100,"measure":63,"beat":4.0,"subject_pos":-1,"motif":"","motif_pos":-1,"best_pos":4,"similarity":0.389},{"voice":10,"pitch":59,"start":125.5,"duration":0.5,"velocity":90,"measure":63,"beat":4.0,"subject_pos":7,"motif":"subject","motif_pos":7,"best_pos":7,"similarity":1.0},{"voice":2,"pitch":94,"start":125.5625,"duration":0.0625,"velocity":63,"measure":63,"beat":4.125,"subject_pos":-1,"motif":"","motif_pos":-1,"best_pos":2,"similarity":0.393},{"voice":2,"pitch":89,"start":125.625,"duration":0.0625,"velocity":66,"measure":63,"beat":4.25,"subject_pos":-1,"motif":"","motif_pos":-1,"best_pos":2,"similarity":0.443},{"voice":6,"pitch":80,"start":125.625,"duration":0.125,"velocity":85,"measure":63,"beat":4.25,"subject_pos":-1,"motif":"","motif_pos":-1,"best_pos":5,"similarity":0.55},{"voice":2,"pitch":86,"start":125.6875,"duration":0.0625,"velocity":69,"measure":63,"beat":4.375,"subject_pos":-1,"motif":"","motif_pos":-1,"best_pos":3,"similarity":0.386},{"voice":2,"pitch":82,"start":125.75,"duration":0.0625,"velocity":72,"measure":63,"beat":4.5,"subject_pos":-1,"motif":"","motif_pos":-1,"best_pos":2,"similarity":0.393},{"voice":6,"pitch":82,"start":125.75,"duration":0.125,"velocity":105,"measure":63,"beat":4.5,"subject_pos":-1,"motif":"","motif_pos":-1,"best_pos":6,"similarity":0.421},{"voice":2,"pitch":77,"start":125.8125,"duration":0.0625,"velocity":75,"measure":63,"beat":4.625,"subject_pos":-1,"motif":"","motif_pos":-1,"best_pos":2,"similarity":0.443},{"voice":2,"pitch":74,"start":125.875,"duration":0.0625,"velocity":78,"measure":63,"beat":4.75,"subject_pos":-1,"motif":"","motif_pos":-1,"best_pos":3,"similarity":0.421},{"voice":6,"pitch":80,"start":125.875,"duration":0.125,"velocity":85,"measure":63,"beat":4.75,"subject_pos":-1,"motif":"","motif_pos":-1,"best_pos":3,"similarity":0.443},{"voice":2,"pitch":70,"start":125.9375,"duration":0.0625,"velocity":81,"measure":63,"beat":4.875,"subject_pos":-1,"motif":"","motif_pos":-1,"best_pos":2,"similarity":0.307},{"voice":2,"pitch":62,"start":126.0,"duration":0.0625,"velocity":60,"measure":64,"beat":1.0,"subject_pos":-1,"motif":"","motif_pos":-1,"best_pos":5,"similarity":0.243},{"voice":3,"pitch":28,"start":126.0,"duration":0.25,"velocity":105,"measure":64,"beat":1.0,"subject_pos":-1,"motif":"","motif_pos":-1,"best_pos":3,"similarity":0.268},{"voice":5,"pitch":62,"start":126.0,"duration":0.25,"velocity":85,"measure":64,"beat":1.0,"subject_pos":-1,"motif":"","motif_pos":-1,"best_pos":5,"similarity":0.171},{"voice":5,"pitch":65,"start":126.0,"duration":0.25,"velocity":85,"measure":64,"beat":1.0,"subject_pos":-1,"motif":"","motif_pos":-1,"best_pos":6,"similarity":0.179},{"voice":5,"pitch":69,"start":126.0,"duration":0.25,"velocity":85,"measure":64,"beat":1.0,"subject_pos":-1,"motif":"","motif_pos":-1,"best_pos":0,"similarity":0.286},{"voice":5,"pitch":74,"start":126.0,"duration":0.25,"velocity":85,"measure":64,"beat":1.0,"subject_pos":-1,"motif":"","motif_pos":-1,"best_pos":1,"similarity":0.286},{"voice":5,"pitch":77,"start":126.0,"duration":0.25,"velocity":85,"measure":64,"beat":1.0,"subject_pos":-1,"motif":"","motif_pos":-1,"best_pos":6,"similarity":0.186},{"voice":5,"pitch":81,"start":126.0,"duration":0.25,"velocity":85,"measure":64,"beat":1.0,"subject_pos":-1,"motif":"","motif_pos":-1,"best_pos":1,"similarity":0.143},{"voice":6,"pitch":80,"start":126.0,"duration":0.125,"velocity":60,"measure":64,"beat":1.0,"subject_pos":-1,"motif":"","motif_pos":-1,"best_pos":4,"similarity":0.514},{"voice":7,"pitch":36,"start":126.0,"duration":0.25,"velocity":115,"measure":64,"beat":1.0,"subject_pos":-1,"motif":"","motif_pos":-1,"best_pos":4,"similarity":0.389},{"voice":10,"pitch":54,"start":126.0,"duration":0.25,"velocity":88,"measure":64,"beat":1.0,"subject_pos":0,"motif":"subject_inv","motif_pos":0,"best_pos":0,"similarity":1.0},{"voice":2,"pitch":65,"start":126.0625,"duration":0.0625,"velocity":63,"measure":64,"beat":1.125,"subject_pos":-1,"motif":"","motif_pos":-1,"best_pos":5,"similarity":0.193},{"voice":2,"pitch":69,"start":126.125,"duration":0.0625,"velocity":66,"measure":64,"beat":1.25,"subject_pos":-1,"motif":"","motif_pos":-1,"best_pos":0,"similarity":0.286},{"voice":6,"pitch":80,"start":126.125,"duration":0.125,"velocity":85,"measure":64,"beat":1.25,"subject_pos":-1,"motif":"","motif_pos":-1,"best_pos":5,"similarity":0.55},{"voice":2,"pitch":74,"start":126.1875,"duration":0.0625,"velocity":69,"measure":64,"beat":1.375,"subject_pos":-1,"motif":"","motif_pos":-1,"best_pos":1,"similarity":0.286},{"voice":2,"pitch":77,"start":126.25,"duration":0.0625,"velocity":72,"measure":64,"beat":1.5,"subject_pos":-1,"motif":"","motif_pos":-1,"best_pos":6,"similarity":0.186},{"voice":6,"pitch":82,"start":126.25,"duration":0.125,"velocity":105,"measure":64,"beat":1.5,"subject_pos":-1,"motif":"","motif_pos":-1,"best_pos":6,"similarity":0.421},{"voice":10,"pitch":47,"start":126.25,"duration":0.25,"velocity":88,"measure":64,"beat":1.5,"subject_pos":1,"motif":"subject_inv","motif_pos":1,"best_pos":1,"similarity":1.0},{"voice":2,"pitch":81,"start":126.3125,"duration":0.0625,"velocity":75,"measure":64,"beat":1.625,"subject_pos":-1,"motif":"","motif_pos":-1,"best_pos":0,"similarity":0.293},{"voice":2,"pitch":86,"start":126.375,"duration":0.0625,"velocity":78,"measure":64,"beat":1.75,"subject_pos":-1,"motif":"","motif_pos":-1,"best_pos":1,"similarity":0.318},{"voice":6,"pitch":80,"start":126.375,"duration":0.125,"velocity":85,"measure":64,"beat":1.75,"subject_pos":-1,"motif":"","motif_pos":-1,"best_pos":3,"similarity":0.443},{"voice":2,"pitch":89,"start":126.4375,"duration":0.0625,"velocity":81,"measure":64,"beat":1.875,"subject_pos":-1,"motif":"","motif_pos":-1,"best_pos":6,"similarity":0.3},{"voice":2,"pitch":89,"start":126.5,"duration":0.0625,"velocity":60,"measure":64,"beat":2.0,"subject_pos":-1,"motif":"","motif_pos":-1,"best_pos":2,"similarity":0.407},{"voice":3,"pitch":28,"start":126.5,"duration":0.25,"velocity":105,"measure":64,"beat":2.0,"subject_pos":-1,"motif":"","motif_pos":-1,"best_pos":4,"similarity":0.375},{"voice":5,"pitch":62,"start":126.5,"duration":0.25,"velocity":85,"measure":64,"beat":2.0,"subject_pos":-1,"motif":"","motif_pos":-1,"best_pos":5,"similarity":0.157},{"voice":5,"pitch":65,"start":126.5,"duration":0.25,"velocity":85,"measure":64,"beat":2.0,"subject_pos":-1,"motif":"","motif_pos":-1,"best_pos":6,"similarity":0.171},{"voice":5,"pitch":69,"start":126.5,"duration":0.25,"velocity":85,"measure":64,"beat":2.0,"subject_pos":-1,"motif":"","motif_pos":-1,"best_pos":0,"similarity":0.286},{"voice":5,"pitch":74,"start":126.5,"duration":0.25,"velocity":85,"measure":64,"beat":2.0,"subject_pos":-1,"motif":"","motif_pos":-1,"best_pos":1,"similarity":0.286},{"voice":5,"pitch":77,"start":126.5,"duration":0.25,"velocity":85,"measure":64,"beat":2.0,"subject_pos":-1,"motif":"","motif_pos":-1,"best_pos":6,"similarity":0.186},{"voice":5,"pitch":81,"start":126.5,"duration":0.25,"velocity":85,"measure":64,"beat":2.0,"subject_pos":-1,"motif":"","motif_pos":-1,"best_pos":1,"similarity":0.143},{"voice":6,"pitch":80,"start":126.5,"duration":0.125,"velocity":60,"measure":64,"beat":2.0,"subject_pos":-1,"motif":"","motif_pos":-1,"best_pos":4,"similarity":0.514},{"voice":7,"pitch":36,"start":126.5,"duration":0.25,"velocity":115,"measure":64,"beat":2.0,"subject_pos":-1,"motif":"","motif_pos":-1,"best_pos":4,"similarity":0.389},{"voice":8,"pitch":74,"start":126.5,"duration":0.25,"velocity":100,"measure":64,"beat":2.0,"subject_pos":-1,"motif":"","motif_pos":-1,"best_pos":4,"similarity":0.389},{"voice":10,"pitch":51,"start":126.5,"duration":0.25,"velocity":88,"measure":64,"beat":2.0,"subject_pos":2,"motif":"subject_inv","motif_pos":2,"best_pos":2,"similarity":1.0},{"voice":2,"pitch":86,"start":126.5625,"duration":0.0625,"velocity":63,"measure":64,"beat":2.125,"subject_pos":-1,"motif":"","motif_pos":-1,"best_pos":3,"similarity":0.368},{"voice":2,"pitch":81,"start":126.625,"duration":0.0625,"velocity":66,"measure":64,"beat":2.25,"subject_pos":-1,"motif":"","motif_pos":-1,"best_pos":1,"similarity":0.436},{"voice":6,"pitch":80,"start":126.625,"duration":0.125,"velocity":85,"measure":64,"beat":2.25,"subject_pos":-1,"motif":"","motif_pos":-1,"best_pos":5,"similarity":0.55},{"voice":2,"pitch":77,"start":126.6875,"duration":0.0625,"velocity":69,"measure":64,"beat":2.375,"subject_pos":-1,"motif":"","motif_pos":-1,"best_pos":2,"similarity":0.586},{"voice":2,"pitch":74,"start":126.75,"duration":0.0625,"velocity":72,"measure":64,"beat":2.5,"subject_pos":-1,"motif":"","motif_pos":-1,"best_pos":3,"similarity":0.457},{"voice":6,"pitch":82,"start":126.75,"duration":0.125,"velocity":105,"measure":64,"beat":2.5,"subject_pos":-1,"motif":"","motif_pos":-1,"best_pos":6,"similarity":0.421},{"voice":10,"pitch":54,"start":126.75,"duration":0.25,"velocity":88,"measure":64,"beat":2.5,"subject_pos":3,"motif":"subject_inv","motif_pos":3,"best_pos":3,"similarity":1.0},{"voice":2,"pitch":69,"start":126.8125,"duration":0.0625,"velocity":75,"measure":64,"beat":2.625,"subject_pos":-1,"motif":"","motif_pos":-1,"best_pos":1,"similarity":0.464},{"voice":2,"pitch":65,"start":126.875,"duration":0.0625,"velocity":78,"measure":64,"beat":2.75,"subject_pos":-1,"motif":"","motif_pos":-1,"best_pos":2,"similarity":0.661},{"voice":6,"pitch":80,"start":126.875,"duration":0.125,"velocity":85,"measure":64,"beat":2.75,"subject_pos":-1,"motif":"","motif_pos":-1,"best_pos":3,"similarity":0.443},{"voice":2,"pitch":62,"start":126.9375,"duration":0.0625,"velocity":81,"measure":64,"beat":2.875,"subject_pos":-1,"motif":"","motif_pos":-1,"best_pos":3,"similarity":0.625},{"voice":2,"pitch":62,"start":127.0,"duration":0.0625,"velocity":60,"measure":64,"beat":3.0,"subject_pos":-1,"motif":"","motif_pos":-1,"best_pos":4,"similarity":0.471},{"voice":3,"pitch":28,"start":127.0,"duration":0.25,"velocity":105,"measure":64,"beat":3.0,"subject_pos":-1,"motif":"","motif_pos":-1,"best_pos":4,"similarity":0.379},{"voice":5,"pitch":62,"start":127.0,"duration":0.25,"velocity":85,"measure":64,"beat":3.0,"subject_pos":-1,"motif":"","motif_pos":-1,"best_pos":5,"similarity":0.157},{"voice":5,"pitch":65,"start":127.0,"duration":0.25,"velocity":85,"measure":64,"beat":3.0,"subject_pos":-1,"motif":"","motif_pos":-1,"best_pos":6,"similarity":0.171},{"voice":5,"pitch":69,"start":127.0,"duration":0.25,"velocity":85,"measure":64,"beat":3.0,"subject_pos":-1,"motif":"","motif_pos":-1,"best_pos":0,"similarity":0.286},{"voice":5,"pitch":74,"start":127.0,"duration":0.25,"velocity":85,"measure":64,"beat":3.0,"subject_pos":-1,"motif":"","motif_pos":-1,"best_pos":1,"similarity":0.286},{"voice":5,"pitch":77,"start":127.0,"duration":0.25,"velocity":85,"measure":64,"beat":3.0,"subject_pos":-1,"motif":"","motif_pos":-1,"best_pos":6,"similarity":0.186},{"voice":5,"pitch":81,"start":127.0,"duration":0.25,"velocity":85,"measure":64,"beat":3.0,"subject_pos":-1,"motif":"","motif_pos":-1,"best_pos":1,"similarity":0.143},{"voice":6,"pitch":80,"start":127.0,"duration":0.125,"velocity":60,"measure":64,"beat":3.0,"subject_pos":-1,"motif":"","motif_pos":-1,"best_pos":4,"similarity":0.514},{"voice":7,"pitch":36,"start":127.0,"duration":0.25,"velocity":115,"measure":64,"beat":3.0,"subject_pos":-1,"motif":"","motif_pos":-1,"best_pos":4,"similarity":0.389},{"voice":10,"pitch":55,"start":127.0,"duration":0.25,"velocity":88,"measure":64,"beat":3.0,"subject_pos":4,"motif":"subject_inv","motif_pos":4,"best_pos":4,"similarity":1.0},{"voice":2,"pitch":65,"start":127.0625,"duration":0.0625,"velocity":63,"measure":64,"beat":3.125,"subject_pos":-1,"motif":"","motif_pos":-1,"best_pos":5,"similarity":0.3},{"voice":2,"pitch":69,"start":127.125,"duration":0.0625,"velocity":66,"measure":64,"beat":3.25,"subject_pos":-1,"motif":"","motif_pos":-1,"best_pos":0,"similarity":0.286},{"voice":6,"pitch":80,"start":127.125,"duration":0.125,"velocity":85,"measure":64,"beat":3.25,"subject_pos":-1,"motif":"","motif_pos":-1,"best_pos":5,"similarity":0.55},{"voice":2,"pitch":74,"start":127.1875,"duration":0.0625,"velocity":69,"measure":64,"beat":3.375,"subject_pos":-1,"motif":"","motif_pos":-1,"best_pos":1,"similarity":0.286},{"voice":2,"pitch":77,"start":127.25,"duration":0.0625,"velocity":72,"measure":64,"beat":3.5,"subject_pos":-1,"motif":"","motif_pos":-1,"best_pos":6,"similarity":0.186},{"voice":6,"pitch":82,"start":127.25,"duration":0.125,"velocity":105,"measure":64,"beat":3.5,"subject_pos":-1,"motif":"","motif_pos":-1,"best_pos":6,"similarity":0.421},{"voice":10,"pitch":54,"start":127.25,"duration":0.125,"velocity":88,"measure":64,"beat":3.5,"subject_pos":5,"motif":"subject_inv","motif_pos":5,"best_pos":5,"similarity":1.0},{"voice":2,"pitch":81,"start":127.3125,"duration":0.0625,"velocity":75,"measure":64,"beat":3.625,"subject_pos":-1,"motif":"","motif_pos":-1,"best_pos":0,"similarity":0.293},{"voice":2,"pitch":86,"start":127.375,"duration":0.0625,"velocity":78,"measure":64,"beat":3.75,"subject_pos":-1,"motif":"","motif_pos":-1,"best_pos":1,"similarity":0.318},{"voice":6,"pitch":80,"start":127.375,"duration":0.125,"velocity":85,"measure":64,"beat":3.75,"subject_pos":-1,"motif":"","motif_pos":-1,"best_pos":3,"similarity":0.443},{"voice":10,"pitch":52,"start":127.375,"duration":0.125,"velocity":88,"measure":64,"beat":3.75,"subject_pos":6,"motif":"subject_inv","motif_pos":6,"best_pos":6,"similarity":1.0},{"voice":2,"pitch":89,"start":127.4375,"duration":0.0625,"velocity":81,"measure":64,"beat":3.875,"subject_pos":-1,"motif":"","motif_pos":-1,"best_pos":6,"similarity":0.3},{"voice":2,"pitch":89,"start":127.5,"duration":0.0625,"velocity":60,"measure":64,"beat":4.0,"subject_pos":-1,"motif":"","motif_pos":-1,"best_pos":2,"similarity":0.407},{"voice":3,"pitch":28,"start":127.5,"duration":0.25,"velocity":105,"measure":64,"beat":4.0,"subject_pos":-1,"motif":"","motif_pos":-1,"best_pos":4,"similarity":0.389},{"voice":5,"pitch":62,"start":127.5,"duration":0.25,"velocity":85,"measure":64,"beat":4.0,"subject_pos":-1,"motif":"","motif_pos":-1,"best_pos":5,"similarity":0.157},{"voice":5,"pitch":65,"start":127.5,"duration":0.25,"velocity":85,"measure":64,"beat":4.0,"subject_pos":-1,"motif":"","motif_pos":-1,"best_pos":6,"similarity":0.171},{"voice":5,"pitch":69,"start":127.5,"duration":0.25,"velocity":85,"measure":64,"beat":4.0,"subject_pos":-1,"motif":"","motif_pos":-1,"best_pos":0,"similarity":0.286},{"voice":5,"pitch":74,"start":127.5,"duration":0.25,"velocity":85,"measure":64,"beat":4.0,"subject_pos":-1,"motif":"","motif_pos":-1,"best_pos":1,"similarity":0.286},{"voice":5,"pitch":77,"start":127.5,"duration":0.25,"velocity":85,"measure":64,"beat":4.0,"subject_pos":-1,"motif":"","motif_pos":-1,"best_pos":6,"similarity":0.186},{"voice":5,"pitch":81,"start":127.5,"duration":0.25,"velocity":85,"measure":64,"beat":4.0,"subject_pos":-1,"motif":"","motif_pos":-1,"best_pos":1,"similarity":0.143},{"voice":6,"pitch":80,"start":127.5,"duration":0.125,"velocity":60,"measure":64,"beat":4.0,"subject_pos":-1,"motif":"","motif_pos":-1,"best_pos":4,"similarity":0.514},{"voice":7,"pitch":36,"start":127.5,"duration":0.25,"velocity":115,"measure":64,"beat":4.0,"subject_pos":-1,"motif":"","motif_pos":-1,"best_pos":4,"similarity":0.389},{"voice":8,"pitch":74,"start":127.5,"duration":0.25,"velocity":100,"measure":64,"beat":4.0,"subject_pos":-1,"motif":"","motif_pos":-1,"best_pos":4,"similarity":0.389},{"voice":10,"pitch":51,"start":127.5,"duration":0.5,"velocity":88,"measure":64,"beat":4.0,"subject_pos":7,"motif":"subject_inv","motif_pos":7,"best_pos":7,"similarity":1.0},{"voice":2,"pitch":86,"start":127.5625,"duration":0.0625,"velocity":63,"measure":64,"beat":4.125,"subject_pos":-1,"motif":"","motif_pos":-1,"best_pos":3,"similarity":0.368},{"voice":2,"pitch":81,"start":127.625,"duration":0.0625,"velocity":66,"measure":64,"beat":4.25,"subject_pos":-1,"motif":"","motif_pos":-1,"best_pos":1,"similarity":0.436},{"voice":6,"pitch":80,"start":127.625,"duration":0.125,"velocity":85,"measure":64,"beat":4.25,"subject_pos":-1,"motif":"","motif_pos":-1,"best_pos":5,"similarity":0.55},{"voice":2,"pitch":77,"start":127.6875,"duration":0.0625,"velocity":69,"measure":64,"beat":4.375,"subject_pos":-1,"motif":"","motif_pos":-1,"best_pos":2,"similarity":0.586},{"voice":2,"pitch":74,"start":127.75,"duration":0.0625,"velocity":72,"measure":64,"beat":4.5,"subject_pos":-1,"motif":"","motif_pos":-1,"best_pos":3,"similarity":0.457},{"voice":6,"pitch":82,"start":127.75,"duration":0.125,"velocity":105,"measure":64,"beat":4.5,"subject_pos":-1,"motif":"","motif_pos":-1,"best_pos":6,"similarity":0.421},{"voice":2,"pitch":69,"start":127.8125,"duration":0.0625,"velocity":75,"measure":64,"beat":4.625,"subject_pos":-1,"motif":"","motif_pos":-1,"best_pos":1,"similarity":0.464},{"voice":2,"pitch":65,"start":127.875,"duration":0.0625,"velocity":78,"measure":64,"beat":4.75,"subject_pos":-1,"motif":"","motif_pos":-1,"best_pos":2,"similarity":0.661},{"voice":6,"pitch":80,"start":127.875,"duration":0.125,"velocity":85,"measure":64,"beat":4.75,"subject_pos":-1,"motif":"","motif_pos":-1,"best_pos":3,"similarity":0.443},{"voice":2,"pitch":62,"start":127.9375,"duration":0.0625,"velocity":81,"measure":64,"beat":4.875,"subject_pos":-1,"motif":"","motif_pos":-1,"best_pos":3,"similarity":0.625},{"voice":1,"pitch":50,"start":128.0,"duration":8.0,"velocity":55,"measure":65,"beat":1.0,"subject_pos":-1,"motif":"","motif_pos":-1,"best_pos":5,"similarity":0.157},{"voice":1,"pitch":53,"start":128.0,"duration":8.0,"velocity":55,"measure":65,"beat":1.0,"subject_pos":-1,"motif":"","motif_pos":-1,"best_pos":6,"similarity":0.171},{"voice":1,"pitch":57,"start":128.0,"duration":8.0,"velocity":55,"measure":65,"beat":1.0,"subject_pos":-1,"motif":"","motif_pos":-1,"best_pos":0,"similarity":0.286},{"voice":1,"pitch":62,"start":128.0,"duration":8.0,"velocity":50,"measure":65,"beat":1.0,"subject_pos":-1,"motif":"","motif_pos":-1,"best_pos":1,"similarity":0.286},{"voice":1,"pitch":65,"start":128.0,"duration":8.0,"velocity":50,"measure":65,"beat":1.0,"subject_pos":-1,"motif":"","motif_pos":-1,"best_pos":6,"similarity":0.186},{"voice":1,"pitch":69,"start":128.0,"duration":8.0,"velocity":50,"measure":65,"beat":1.0,"subject_pos":-1,"motif":"","motif_pos":-1,"best_pos":0,"similarity":0.286},{"voice":1,"pitch":74,"start":128.0,"duration":8.0,"velocity":40,"measure":65,"beat":1.0,"subject_pos":-1,"motif":"","motif_pos":-1,"best_pos":1,"similarity":0.286},{"voice":1,"pitch":77,"start":128.0,"duration":8.0,"velocity":40,"measure":65,"beat":1.0,"subject_pos":-1,"motif":"","motif_pos":-1,"best_pos":6,"similarity":0.186},{"voice":1,"pitch":81,"start":128.0,"duration":8.0,"velocity":40,"measure":65,"beat":1.0,"subject_pos":-1,"motif":"","motif_pos":-1,"best_pos":1,"similarity":0.143},{"voice":2,"pitch":62,"start":128.0,"duration":0.0625,"velocity":60,"measure":65,"beat":1.0,"subject_pos":-1,"motif":"","motif_pos":-1,"best_pos":4,"similarity":0.471},{"voice":3,"pitch":28,"start":128.0,"duration":0.25,"velocity":105,"measure":65,"beat":1.0,"subject_pos":-1,"motif":"","motif_pos":-1,"best_pos":4,"similarity":0.389},{"voice":5,"pitch":62,"start":128.0,"duration":0.25,"velocity":85,"measure":65,"beat":1.0,"subject_pos":-1,"motif":"","motif_pos":-1,"best_pos":5,"similarity":0.157},{"voice":5,"pitch":65,"start":128.0,"duration":0.25,"velocity":85,"measure":65,"beat":1.0,"subject_pos":-1,"motif":"","motif_pos":-1,"best_pos":6,"similarity":0.171},{"voice":5,"pitch":69,"start":128.0,"duration":0.25,"velocity":85,"measure":65,"beat":1.0,"subject_pos":-1,"motif":"","motif_pos":-1,"best_pos":0,"similarity":0.286},{"voice":5,"pitch":74,"start":128.0,"duration":0.25,"velocity":85,"measure":65,"beat":1.0,"subject_pos":-1,"motif":"","motif_pos":-1,"best_pos":1,"similarity":0.286},{"voice":5,"pitch":77,"start":128.0,"duration":0.25,"velocity":85,"measure":65,"beat":1.0,"subject_pos":-1,"motif":"","motif_pos":-1,"best_pos":6,"similarity":0.186},{"voice":5,"pitch":81,"start":128.0,"duration":0.25,"velocity":85,"measure":65,"beat":1.0,"subject_pos":-1,"motif":"","motif_pos":-1,"best_pos":1,"similarity":0.143},{"voice":6,"pitch":80,"start":128.0,"duration":0.125,"velocity":60,"measure":65,"beat":1.0,"subject_pos":-1,"motif":"","motif_pos":-1,"best_pos":4,"similarity":0.514},{"voice":7,"pitch":36,"start":128.0,"duration":0.25,"velocity":115,"measure":65,"beat":1.0,"subject_pos":-1,"motif":"","motif_pos":-1,"best_pos":4,"similarity":0.389},{"voice":2,"pitch":65,"start":128.0625,"duration":0.0625,"velocity":63,"measure":65,"beat":1.125,"subject_pos":-1,"motif":"","motif_pos":-1,"best_pos":5,"similarity":0.3},{"voice":2,"pitch":69,"start":128.125,"duration":0.0625,"velocity":66,"measure":65,"beat":1.25,"subject_pos":-1,"motif":"","motif_pos":-1,"best_pos":0,"similarity":0.286},{"voice":6,"pitch":80,"start":128.125,"duration":0.125,"velocity":85,"measure":65,"beat":1.25,"subject_pos":-1,"motif":"","motif_pos":-1,"best_pos":5,"similarity":0.55},{"voice":2,"pitch":74,"start":128.1875,"duration":0.0625,"velocity":69,"measure":65,"beat":1.375,"subject_pos":-1,"motif":"","motif_pos":-1,"best_pos":1,"similarity":0.286},{"voice":2,"pitch":77,"start":128.25,"duration":0.0625,"velocity":72,"measure":65,"beat":1.5,"subject_pos":-1,"motif":"","motif_pos":-1,"best_pos":6,"similarity":0.186},{"voice":6,"pitch":82,"start":128.25,"duration":0.125,"velocity":105,"measure":65,"beat":1.5,"subject_pos":-1,"motif":"","motif_pos":-1,"best_pos":6,"similarity":0.421},{"voice":2,"pitch":81,"start":128.3125,"duration":0.0625,"velocity":75,"measure":65,"beat":1.625,"subject_pos":-1,"motif":"","motif_pos":-1,"best_pos":0,"similarity":0.293},{"voice":2,"pitch":86,"start":128.375,"duration":0.0625,"velocity":78,"measure":65,"beat":1.75,"subject_pos":-1,"motif":"","motif_pos":-1,"best_pos":1,"similarity":0.318},{"voice":6,"pitch":80,"start":128.375,"duration":0.125,"velocity":85,"measure":65,"beat":1.75,"subject_pos":-1,"motif":"","motif_pos":-1,"best_pos":3,"similarity":0.443},{"voice":2,"pitch":89,"start":128.4375,"duration":0.0625,"velocity":81,"measure":65,"beat":1.875,"subject_pos":-1,"motif":"","motif_pos":-1,"best_pos":6,"similarity":0.3},{"voice":2,"pitch":89,"start":128.5,"duration":0.0625,"velocity":60,"measure":65,"beat":2.0,"subject_pos":-1,"motif":"","motif_pos":-1,"best_pos":2,"similarity":0.407},{"voice":3,"pitch":28,"start":128.5,"duration":0.25,"velocity":105,"measure":65,"beat":2.0,"subject_pos":-1,"motif":"","motif_pos":-1,"best_pos":5,"similarity":0.364},{"voice":5,"pitch":62,"start":128.5,"duration":0.25,"velocity":85,"measure":65,"beat":2.0,"subject_pos":-1,"motif":"","motif_pos":-1,"best_pos":5,"similarity":0.157},{"voice":5,"pitch":65,"start":128.5,"duration":0.25,"velocity":85,"measure":65,"beat":2.0,"subject_pos":-1,"motif":"","motif_pos":-1,"best_pos":6,"similarity":0.171},{"voice":5,"pitch":69,"start":128.5,"duration":0.25,"velocity":85,"measure":65,"beat":2.0,"subject_pos":-1,"motif":"","motif_pos":-1,"best_pos":0,"similarity":0.286},{"voice":5,"pitch":74,"start":128.5,"duration":0.25,"velocity":85,"measure":65,"beat":2.0,"subject_pos":-1,"motif":"","motif_pos":-1,"best_pos":1,"similarity":0.286},{"voice":5,"pitch":77,"start":128.5,"duration":0.25,"velocity":85,"measure":65,"beat":2.0,"subject_pos":-1,"motif":"","motif_pos":-1,"best_pos":6,"similarity":0.186},{"voice":5,"pitch":81,"start":128.5,"duration":0.25,"velocity":85,"measure":65,"beat":2.0,"subject_pos":-1,"motif":"","motif_pos":-1,"best_pos":1,"similarity":0.143},{"voice":6,"pitch":80,"start":128.5,"duration":0.125,"velocity":60,"measure":65,"beat":2.0,"subject_pos":-1,"motif":"","motif_pos":-1,"best_pos":4,"similarity":0.514},{"voice":7,"pitch":36,"start":128.5,"duration":0.25,"velocity":115,"measure":65,"beat":2.0,"subject_pos":-1,"motif":"","motif_pos":-1,"best_pos":4,"similarity":0.389},{"voice":8,"pitch":74,"start":128.5,"duration":0.25,"velocity":100,"measure":65,"beat":2.0,"subject_pos":-1,"motif":"","motif_pos":-1,"best_pos":4,"similarity":0.389},{"voice":2,"pitch":86,"start":128.5625,"duration":0.0625,"velocity":63,"measure":65,"beat":2.125,"subject_pos":-1,"motif":"","motif_pos":-1,"best_pos":3,"similarity":0.368},{"voice":2,"pitch":81,"start":128.625,"duration":0.0625,"velocity":66,"measure":65,"beat":2.25,"subject_pos":-1,"motif":"","motif_pos":-1,"best_pos":1,"similarity":0.436},{"voice":6,"pitch":80,"start":128.625,"duration":0.125,"velocity":85,"measure":65,"beat":2.25,"subject_pos":-1,"motif":"","motif_pos":-1,"best_pos":5,"similarity":0.55},{"voice":2,"pitch":77,"start":128.6875,"duration":0.0625,"velocity":69,"measure":65,"beat":2.375,"subject_pos":-1,"motif":"","motif_pos":-1,"best_pos":2,"similarity":0.586},{"voice":2,"pitch":74,"start":128.75,"duration":0.0625,"velocity":72,"measure":65,"beat":2.5,"subject_pos":-1,"motif":"","motif_pos":-1,"best_pos":3,"similarity":0.457},{"voice":6,"pitch":82,"start":128.75,"duration":0.125,"velocity":105,"measure":65,"beat":2.5,"subject_pos":-1,"motif":"","motif_pos":-1,"best_pos":6,"similarity":0.421},{"voice":2,"pitch":69,"start":128.8125,"duration":0.0625,"velocity":75,"measure":65,"beat":2.625,"subject_pos":-1,"motif":"","motif_pos":-1,"best_pos":1,"similarity":0.464},{"voice":2,"pitch":65,"start":128.875,"duration":0.0625,"velocity":78,"measure":65,"beat":2.75,"subject_pos":-1,"motif":"","motif_pos":-1,"best_pos":2,"similarity":0.661},{"voice":6,"pitch":80,"start":128.875,"duration":0.125,"velocity":85,"measure":65,"beat":2.75,"subject_pos":-1,"motif":"","motif_pos":-1,"best_pos":3,"similarity":0.443},{"voice":2,"pitch":62,"start":128.9375,"duration":0.0625,"velocity":81,"measure":65,"beat":2.875,"subject_pos":-1,"motif":"","motif_pos":-1,"best_pos":3,"similarity":0.625},{"voice":2,"pitch":62,"start":129.0,"duration":0.0625,"velocity":60,"measure":65,"beat":3.0,"subject_pos":-1,"motif":"","motif_pos":-1,"best_pos":4,"similarity":0.471},{"voice":3,"pitch":28,"start":129.0,"duration":0.25,"velocity":105,"measure":65,"beat":3.0,"subject_pos":-1,"motif":"","motif_pos":-1,"best_pos":4,"similarity":0.354},{"voice":5,"pitch":62,"start":129.0,"duration":0.25,"velocity":85,"measure":65,"beat":3.0,"subject_pos":-1,"motif":"","motif_pos":-1,"best_pos":5,"similarity":0.157},{"voice":5,"pitch":65,"start":129.0,"duration":0.25,"velocity":85,"measure":65,"beat":3.0,"subject_pos":-1,"motif":"","motif_pos":-1,"best_pos":6,"similarity":0.171},{"voice":5,"pitch":69,"start":129.0,"duration":0.25,"velocity":85,"measure":65,"beat":3.0,"subject_pos":-1,"motif":"","motif_pos":-1,"best_pos":0,"similarity":0.286},{"voice":5,"pitch":74,"start":129.0,"duration":0.25,"velocity":85,"measure":65,"beat":3.0,"subject_pos":-1,"motif":"","motif_pos":-1,"best_pos":1,"similarity":0.286},{"voice":5,"pitch":77,"start":129.0,"duration":0.25,"velocity":85,"measure":65,"beat":3.0,"subject_pos":-1,"motif":"","motif_pos":-1,"best_pos":6,"similarity":0.186},{"voice":5,"pitch":81,"start":129.0,"duration":0.25,"velocity":85,"measure":65,"beat":3.0,"subject_pos":-1,"motif":"","motif_pos":-1,"best_pos":1,"similarity":0.143},{"voice":6,"pitch":80,"start":129.0,"duration":0.125,"velocity":60,"measure":65,"beat":3.0,"subject_pos":-1,"motif":"","motif_pos":-1,"best_pos":4,"similarity":0.514},{"voice":7,"pitch":36,"start":129.0,"duration":0.25,"velocity":115,"measure":65,"beat":3.0,"subject_pos":-1,"motif":"","motif_pos":-1,"best_pos":4,"similarity":0.389},{"voice":2,"pitch":65,"start":129.0625,"duration":0.0625,"velocity":63,"measure":65,"beat":3.125,"subject_pos":-1,"motif":"","motif_pos":-1,"best_pos":5,"similarity":0.3},{"voice":2,"pitch":69,"start":129.125,"duration":0.0625,"velocity":66,"measure":65,"beat":3.25,"subject_pos":-1,"motif":"","motif_pos":-1,"best_pos":0,"similarity":0.286},{"voice":6,"pitch":80,"start":129.125,"duration":0.125,"velocity":85,"measure":65,"beat":3.25,"subject_pos":-1,"motif":"","motif_pos":-1,"best_pos":5,"similarity":0.55},{"voice":2,"pitch":74,"start":129.1875,"duration":0.0625,"velocity":69,"measure":65,"beat":3.375,"subject_pos":-1,"motif":"","motif_pos":-1,"best_pos":1,"similarity":0.286},{"voice":2,"pitch":77,"start":129.25,"duration":0.0625,"velocity":72,"measure":65,"beat":3.5,"subject_pos":-1,"motif":"","motif_pos":-1,"best_pos":6,"similarity":0.186},{"voice":6,"pitch":82,"start":129.25,"duration":0.125,"velocity":105,"measure":65,"beat":3.5,"subject_pos":-1,"motif":"","motif_pos":-1,"best_pos":6,"similarity":0.421},{"voice":2,"pitch":81,"start":129.3125,"duration":0.0625,"velocity":75,"measure":65,"beat":3.625,"subject_pos":-1,"motif":"","motif_pos":-1,"best_pos":0,"similarity":0.293},{"voice":2,"pitch":86,"start":129.375,"duration":0.0625,"velocity":78,"measure":65,"beat":3.75,"subject_pos":-1,"motif":"","motif_pos":-1,"best_pos":1,"similarity":0.318},{"voice":6,"pitch":80,"start":129.375,"duration":0.125,"velocity":85,"measure":65,"beat":3.75,"subject_pos":-1,"motif":"","motif_pos":-1,"best_pos":3,"similarity":0.443},{"voice":2,"pitch":89,"start":129.4375,"duration":0.0625,"velocity":81,"measure":65,"beat":3.875,"subject_pos":-1,"motif":"","motif_pos":-1,"best_pos":6,"similarity":0.3},{"voice":2,"pitch":89,"start":129.5,"duration":0.0625,"velocity":60,"measure":65,"beat":4.0,"subject_pos":-1,"motif":"","motif_pos":-1,"best_pos":2,"similarity":0.407},{"voice":3,"pitch":28,"start":129.5,"duration":0.25,"velocity":105,"measure":65,"beat":4.0,"subject_pos":-1,"motif":"","motif_pos":-1,"best_pos":5,"similarity":0.293},{"voice":5,"pitch":62,"start":129.5,"duration":0.25,"velocity":85,"measure":65,"beat":4.0,"subject_pos":-1,"motif":"","motif_pos":-1,"best_pos":5,"similarity":0.157},{"voice":5,"pitch":65,"start":129.5,"duration":0.25,"velocity":85,"measure":65,"beat":4.0,"subject_pos":-1,"motif":"","motif_pos":-1,"best_pos":6,"similarity":0.171},{"voice":5,"pitch":69,"start":129.5,"duration":0.25,"velocity":85,"measure":65,"beat":4.0,"subject_pos":-1,"motif":"","motif_pos":-1,"best_pos":0,"similarity":0.286},{"voice":5,"pitch":74,"start":129.5,"duration":0.25,"velocity":85,"measure":65,"beat":4.0,"subject_pos":-1,"motif":"","motif_pos":-1,"best_pos":1,"similarity":0.286},{"voice":5,"pitch":77,"start":129.5,"duration":0.25,"velocity":85,"measure":65,"beat":4.0,"subject_pos":-1,"motif":"","motif_pos":-1,"best_pos":6,"similarity":0.186},{"voice":5,"pitch":81,"start":129.5,"duration":0.25,"velocity":85,"measure":65,"beat":4.0,"subject_pos":-1,"motif":"","motif_pos":-1,"best_pos":1,"similarity":0.15},{"voice":6,"pitch":80,"start":129.5,"duration":0.125,"velocity":60,"measure":65,"beat":4.0,"subject_pos":-1,"motif":"","motif_pos":-1,"best_pos":4,"similarity":0.514},{"voice":7,"pitch":36,"start":129.5,"duration":0.25,"velocity":115,"measure":65,"beat":4.0,"subject_pos":-1,"motif":"","motif_pos":-1,"best_pos":4,"similarity":0.389},{"voice":8,"pitch":74,"start":129.5,"duration":0.25,"velocity":100,"measure":65,"beat":4.0,"subject_pos":-1,"motif":"","motif_pos":-1,"best_pos":4,"similarity":0.389},{"voice":2,"pitch":86,"start":129.5625,"duration":0.0625,"velocity":63,"measure":65,"beat":4.125,"subject_pos":-1,"motif":"","motif_pos":-1,"best_pos":3,"similarity":0.368},{"voice":2,"pitch":81,"start":129.625,"duration":0.0625,"velocity":66,"measure":65,"beat":4.25,"subject_pos":-1,"motif":"","motif_pos":-1,"best_pos":1,"similarity":0.436},{"voice":6,"pitch":80,"start":129.625,"duration":0.125,"velocity":85,"measure":65,"beat":4.25,"subject_pos":-1,"motif":"","motif_pos":-1,"best_pos":5,"similarity":0.55},{"voice":2,"pitch":77,"start":129.6875,"duration":0.0625,"velocity":69,"measure":65,"beat":4.375,"subject_pos":-1,"motif":"","motif_pos":-1,"best_pos":2,"similarity":0.586},{"voice":2,"pitch":74,"start":129.75,"duration":0.0625,"velocity":72,"measure":65,"beat":4.5,"subject_pos":-1,"motif":"","motif_pos":-1,"best_pos":3,"similarity":0.457},{"voice":6,"pitch":82,"start":129.75,"duration":0.125,"velocity":105,"measure":65,"beat":4.5,"subject_pos":-1,"motif":"","motif_pos":-1,"best_pos":6,"similarity":0.421},{"voice":2,"pitch":69,"start":129.8125,"duration":0.0625,"velocity":75,"measure":65,"beat":4.625,"subject_pos":-1,"motif":"","motif_pos":-1,"best_pos":1,"similarity":0.429},{"voice":2,"pitch":65,"start":129.875,"duration":0.0625,"velocity":78,"measure":65,"beat":4.75,"subject_pos":-1,"motif":"","motif_pos":-1,"best_pos":2,"similarity":0.579},{"voice":6,"pitch":80,"start":129.875,"duration":0.125,"velocity":85,"measure":65,"beat":4.75,"subject_pos":-1,"motif":"","motif_pos":-1,"best_pos":3,"similarity":0.443},{"voice":2,"pitch":62,"start":129.9375,"duration":0.0625,"velocity":81,"measure":65,"beat":4.875,"subject_pos":-1,"motif":"","motif_pos":-1,"best_pos":3,"similarity":0.479},{"voice":2,"pitch":70,"start":130.0,"duration":0.0625,"velocity":60,"measure":66,"beat":1.0,"subject_pos":-1,"motif":"","motif_pos":-1,"best_pos":4,"similarity":0.321},{"voice":3,"pitch":36,"start":130.0,"duration":0.25,"velocity":105,"measure":66,"beat":1.0,"subject_pos":-1,"motif":"","motif_pos":-1,"best_pos":3,"similarity":0.268},{"voice":5,"pitch":58,"start":130.0,"duration":0.25,"velocity":85,"measure":66,"beat":1.0,"subject_pos":-1,"motif":"","motif_pos":-1,"best_pos":0,"similarity":0.143},{"voice":5,"pitch":62,"start":130.0,"duration":0.25,"velocity":85,"measure":66,"beat":1.0,"subject_pos":-1,"motif":"","motif_pos":-1,"best_pos":5,"similarity":0.186},{"voice":5,"pitch":65,"start":130.0,"duration":0.25,"velocity":85,"measure":66,"beat":1.0,"subject_pos":-1,"motif":"","motif_pos":-1,"best_pos":0,"similarity":0.286},{"voice":5,"pitch":70,"start":130.0,"duration":0.25,"velocity":85,"measure":66,"beat":1.0,"subject_pos":-1,"motif":"","motif_pos":-1,"best_pos":1,"similarity":0.286},{"voice":5,"pitch":74,"start":130.0,"duration":0.25,"velocity":85,"measure":66,"beat":1.0,"subject_pos":-1,"motif":"","motif_pos":-1,"best_pos":5,"similarity":0.171},{"voice":5,"pitch":77,"start":130.0,"duration":0.25,"velocity":85,"measure":66,"beat":1.0,"subject_pos":-1,"motif":"","motif_pos":-1,"best_pos":6,"similarity":0.157},{"voice":6,"pitch":80,"start":130.0,"duration":0.125,"velocity":60,"measure":66,"beat":1.0,"subject_pos":-1,"motif":"","motif_pos":-1,"best_pos":4,"similarity":0.514},{"voice":7,"pitch":36,"start":130.0,"duration":0.25,"velocity":115,"measure":66,"beat":1.0,"subject_pos":-1,"motif":"","motif_pos":-1,"best_pos":4,"similarity":0.389},{"voice":2,"pitch":74,"start":130.0625,"duration":0.0625,"velocity":63,"measure":66,"beat":1.125,"subject_pos":-1,"motif":"","motif_pos":-1,"best_pos":5,"similarity":0.257},{"voice":2,"pitch":77,"start":130.125,"duration":0.0625,"velocity":66,"measure":66,"beat":1.25,"subject_pos":-1,"motif":"","motif_pos":-1,"best_pos":0,"similarity":0.286},{"voice":6,"pitch":80,"start":130.125,"duration":0.125,"velocity":85,"measure":66,"beat":1.25,"subject_pos":-1,"motif":"","motif_pos":-1,"best_pos":5,"similarity":0.55},{"voice":2,"pitch":82,"start":130.1875,"duration":0.0625,"velocity":69,"measure":66,"beat":1.375,"subject_pos":-1,"motif":"","motif_pos":-1,"best_pos":1,"similarity":0.286},{"voice":2,"pitch":86,"start":130.25,"duration":0.0625,"velocity":72,"measure":66,"beat":1.5,"subject_pos":-1,"motif":"","motif_pos":-1,"best_pos":5,"similarity":0.186},{"voice":6,"pitch":82,"start":130.25,"duration":0.125,"velocity":105,"measure":66,"beat":1.5,"subject_pos":-1,"motif":"","motif_pos":-1,"best_pos":6,"similarity":0.421},{"voice":2,"pitch":89,"start":130.3125,"duration":0.0625,"velocity":75,"measure":66,"beat":1.625,"subject_pos":-1,"motif":"","motif_pos":-1,"best_pos":0,"similarity":0.293},{"voice":2,"pitch":94,"start":130.375,"duration":0.0625,"velocity":78,"measure":66,"beat":1.75,"subject_pos":-1,"motif":"","motif_pos":-1,"best_pos":1,"similarity":0.307},{"voice":6,"pitch":80,"start":130.375,"duration":0.125,"velocity":85,"measure":66,"beat":1.75,"subject_pos":-1,"motif":"","motif_pos":-1,"best_pos":3,"similarity":0.443},{"voice":2,"pitch":98,"start":130.4375,"duration":0.0625,"velocity":81,"measure":66,"beat":1.875,"subject_pos":-1,"motif":"","motif_pos":-1,"best_pos":1,"similarity":0.293},{"voice":2,"pitch":98,"start":130.5,"duration":0.0625,"velocity":60,"measure":66,"beat":2.0,"subject_pos":-1,"motif":"","motif_pos":-1,"best_pos":1,"similarity":0.339},{"voice":3,"pitch":36,"start":130.5,"duration":0.25,"velocity":105,"measure":66,"beat":2.0,"subject_pos":-1,"motif":"","motif_pos":-1,"best_pos":4,"similarity":0.375},{"voice":5,"pitch":58,"start":130.5,"duration":0.25,"velocity":85,"measure":66,"beat":2.0,"subject_pos":-1,"motif":"","motif_pos":-1,"best_pos":0,"similarity":0.143},{"voice":5,"pitch":62,"start":130.5,"duration":0.25,"velocity":85,"measure":66,"beat":2.0,"subject_pos":-1,"motif":"","motif_pos":-1,"best_pos":5,"similarity":0.186},{"voice":5,"pitch":65,"start":130.5,"duration":0.25,"velocity":85,"measure":66,"beat":2.0,"subject_pos":-1,"motif":"","motif_pos":-1,"best_pos":0,"similarity":0.286},{"voice":5,"pitch":70,"start":130.5,"duration":0.25,"velocity":85,"measure":66,"beat":2.0,"subject_pos":-1,"motif":"","motif_pos":-1,"best_pos":1,"similarity":0.286},{"voice":5,"pitch":74,"start":130.5,"duration":0.25,"velocity":85,"measure":66,"beat":2.0,"subject_pos":-1,"motif":"","motif_pos":-1,"best_pos":5,"similarity":0.171},{"voice":5,"pitch":77,"start":130.5,"duration":0.25,"velocity":85,"measure":66,"beat":2.0,"subject_pos":-1,"motif":"","motif_pos":-1,"best_pos":6,"similarity":0.157},{"voice":6,"pitch":80,"start":130.5,"duration":0.125,"velocity":60,"measure":66,"beat":2.0,"subject_pos":-1,"motif":"","motif_pos":-1,"best_pos":4,"similarity":0.514},{"voice":7,"pitch":36,"start":130.5,"duration":0.25,"velocity":115,"measure":66,"beat":2.0,"subject_pos":-1,"motif":"","motif_pos":-1,"best_pos":4,"similarity":0.389},{"voice":8,"pitch":74,"start":130.5,"duration":0.25,"velocity":100,"measure":66,"beat":2.0,"subject_pos":-1,"motif":"","motif_pos":-1,"best_pos":4,"similarity":0.389},{"voice":2,"pitch":94,"start":130.5625,"duration":0.0625,"velocity":63,"measure":66,"beat":2.125,"subject_pos":-1,"motif":"","motif_pos":-1,"best_pos":2,"similarity":0.393},{"voice":2,"pitch":89,"start":130.625,"duration":0.0625,"velocity":66,"measure":66,"beat":2.25,"subject_pos":-1,"motif":"","motif_pos":-1,"best_pos":2,"similarity":0.443},{"voice":6,"pitch":80,"start":130.625,"duration":0.125,"velocity":85,"measure":66,"beat":2.25,"subject_pos":-1,"motif":"","motif_pos":-1,"best_pos":5,"similarity":0.55},{"voice":2,"pitch":86,"start":130.6875,"duration":0.0625,"velocity":69,"measure":66,"beat":2.375,"subject_pos":-1,"motif":"","motif_pos":-1,"best_pos":3,"similarity":0.386},{"voice":2,"pitch":82,"start":130.75,"duration":0.0625,"velocity":72,"measure":66,"beat":2.5,"subject_pos":-1,"motif":"","motif_pos":-1,"best_pos":2,"similarity":0.393},{"voice":6,"pitch":82,"start":130.75,"duration":0.125,"velocity":105,"measure":66,"beat":2.5,"subject_pos":-1,"motif":"","motif_pos":-1,"best_pos":6,"similarity":0.421},{"voice":2,"pitch":77,"start":130.8125,"duration":0.0625,"velocity":75,"measure":66,"beat":2.625,"subject_pos":-1,"motif":"","motif_pos":-1,"best_pos":2,"similarity":0.479},{"voice":2,"pitch":74,"start":130.875,"duration":0.0625,"velocity":78,"measure":66,"beat":2.75,"subject_pos":-1,"motif":"","motif_pos":-1,"best_pos":3,"similarity":0.475},{"voice":6,"pitch":80,"start":130.875,"duration":0.125,"velocity":85,"measure":66,"beat":2.75,"subject_pos":-1,"motif":"","motif_pos":-1,"best_pos":3,"similarity":0.443},{"voice":2,"pitch":70,"start":130.9375,"duration":0.0625,"velocity":81,"measure":66,"beat":2.875,"subject_pos":-1,"motif":"","motif_pos":-1,"best_pos":3,"similarity":0.407},{"voice":2,"pitch":70,"start":131.0,"duration":0.0625,"velocity":60,"measure":66,"beat":3.0,"subject_pos":-1,"motif":"","motif_pos":-1,"best_pos":4,"similarity":0.357},{"voice":3,"pitch":36,"start":131.0,"duration":0.25,"velocity":105,"measure":66,"beat":3.0,"subject_pos":-1,"motif":"","motif_pos":-1,"best_pos":4,"similarity":0.479},{"voice":5,"pitch":58,"start":131.0,"duration":0.25,"velocity":85,"measure":66,"beat":3.0,"subject_pos":-1,"motif":"","motif_pos":-1,"best_pos":0,"similarity":0.143},{"voice":5,"pitch":62,"start":131.0,"duration":0.25,"velocity":85,"measure":66,"beat":3.0,"subject_pos":-1,"motif":"","motif_pos":-1,"best_pos":5,"similarity":0.186},{"voice":5,"pitch":65,"start":131.0,"duration":0.25,"velocity":85,"measure":66,"beat":3.0,"subject_pos":-1,"motif":"","motif_pos":-1,"best_pos":0,"similarity":0.286},{"voice":5,"pitch":70,"start":131.0,"duration":0.25,"velocity":85,"measure":66,"beat":3.0,"subject_pos":-1,"motif":"","motif_pos":-1,"best_pos":1,"similarity":0.286},{"voice":5,"pitch":74,"start":131.0,"duration":0.25,"velocity":85,"measure":66,"beat":3.0,"subject_pos":-1,"motif":"","motif_pos":-1,"best_pos":5,"similarity":0.171},{"voice":5,"pitch":77,"start":131.0,"duration":0.25,"velocity":85,"measure":66,"beat":3.0,"subject_pos":-1,"motif":"","motif_pos":-1,"best_pos":6,"similarity":0.157},{"voice":6,"pitch":80,"start":131.0,"duration":0.125,"velocity":60,"measure":66,"beat":3.0,"subject_pos":-1,"motif":"","motif_pos":-1,"best_pos":4,"similarity":0.514},{"voice":7,"pitch":36,"start":131.0,"duration":0.25,"velocity":115,"measure":66,"beat":3.0,"subject_pos":-1,"motif":"","motif_pos":-1,"best_pos":4,"similarity":0.389},{"voice":2,"pitch":74,"start":131.0625,"duration":0.0625,"velocity":63,"measure":66,"beat":3.125,"subject_pos":-1,"motif":"","motif_pos":-1,"best_pos":5,"similarity":0.293},{"voice":2,"pitch":77,"start":131.125,"duration":0.0625,"velocity":66,"measure":66,"beat":3.25,"subject_pos":-1,"motif":"","motif_pos":-1,"best_pos":0,"similarity":0.286},{"voice":6,"pitch":80,"start":131.125,"duration":0.125,"velocity":85,"measure":66,"beat":3.25,"subject_pos":-1,"motif":"","motif_pos":-1,"best_pos":5,"similarity":0.55},{"voice":2,"pitch":82,"start":131.1875,"duration":0.0625,"velocity":69,"measure":66,"beat":3.375,"subject_pos":-1,"motif":"","motif_pos":-1,"best_pos":1,"similarity":0.286},{"voice":2,"pitch":86,"start":131.25,"duration":0.0625,"velocity":72,"measure":66,"beat":3.5,"subject_pos":-1,"motif":"","motif_pos":-1,"best_pos":5,"similarity":0.186},{"voice":6,"pitch":82,"start":131.25,"duration":0.125,"velocity":105,"measure":66,"beat":3.5,"subject_pos":-1,"motif":"","motif_pos":-1,"best_pos":6,"similarity":0.421},{"voice":2,"pitch":89,"start":131.3125,"duration":0.0625,"velocity":75,"measure":66,"beat":3.625,"subject_pos":-1,"motif":"","motif_pos":-1,"best_pos":0,"similarity":0.293},{"voice":2,"pitch":94,"start":131.375,"duration":0.0625,"velocity":78,"measure":66,"beat":3.75,"subject_pos":-1,"motif":"","motif_pos":-1,"best_pos":1,"similarity":0.307},{"voice":6,"pitch":80,"start":131.375,"duration":0.125,"velocity":85,"measure":66,"beat":3.75,"subject_pos":-1,"motif":"","motif_pos":-1,"best_pos":3,"similarity":0.443},{"voice":2,"pitch":98,"start":131.4375,"duration":0.0625,"velocity":81,"measure":66,"beat":3.875,"subject_pos":-1,"motif":"","motif_pos":-1,"best_pos":1,"similarity":0.293},{"voice":2,"pitch":98,"start":131.5,"duration":0.0625,"velocity":60,"measure":66,"beat":4.0,"subject_pos":-1,"motif":"","motif_pos":-1,"best_pos":1,"similarity":0.339},{"voice":3,"pitch":36,"start":131.5,"duration":0.25,"velocity":105,"measure":66,"beat":4.0,"subject_pos":-1,"motif":"","motif_pos":-1,"best_pos":5,"similarity":0.579},{"voice":5,"pitch":58,"start":131.5,"duration":0.25,"velocity":85,"measure":66,"beat":4.0,"subject_pos":-1,"motif":"","motif_pos":-1,"best_pos":0,"similarity":0.143},{"voice":5,"pitch":62,"start":131.5,"duration":0.25,"velocity":85,"measure":66,"beat":4.0,"subject_pos":-1,"motif":"","motif_pos":-1,"best_pos":5,"similarity":0.186},{"voice":5,"pitch":65,"start":131.5,"duration":0.25,"velocity":85,"measure":66,"beat":4.0,"subject_pos":-1,"motif":"","motif_pos":-1,"best_pos":0,"similarity":0.286},{"voice":5,"pitch":70,"start":131.5,"duration":0.25,"velocity":85,"measure":66,"beat":4.0,"subject_pos":-1,"motif":"","motif_pos":-1,"best_pos":1,"similarity":0.286},{"voice":5,"pitch":74,"start":131.5,"duration":0.25,"velocity":85,"measure":66,"beat":4.0,"subject_pos":-1,"motif":"","motif_pos":-1,"best_pos":5,"similarity":0.171},{"voice":5,"pitch":77,"start":131.5,"duration":0.25,"velocity":85,"measure":66,"beat":4.0,"subject_pos":-1,"motif":"","motif_pos":-1,"best_pos":6,"similarity":0.157},{"voice":6,"pitch":80,"start":131.5,"duration":0.125,"velocity":60,"measure":66,"beat":4.0,"subject_pos":-1,"motif":"","motif_pos":-1,"best_pos":4,"similarity":0.514},{"voice":7,"pitch":36,"start":131.5,"duration":0.25,"velocity":115,"measure":66,"beat":4.0,"subject_pos":-1,"motif":"","motif_pos":-1,"best_pos":4,"similarity":0.389},{"voice":8,"pitch":74,"start":131.5,"duration":0.25,"velocity":100,"measure":66,"beat":4.0,"subject_pos":-1,"motif":"","motif_pos":-1,"best_pos":4,"similarity":0.389},{"voice":2,"pitch":94,"start":131.5625,"duration":0.0625,"velocity":63,"measure":66,"beat":4.125,"subject_pos":-1,"motif":"","motif_pos":-1,"best_pos":2,"similarity":0.393},{"voice":2,"pitch":89,"start":131.625,"duration":0.0625,"velocity":66,"measure":66,"beat":4.25,"subject_pos":-1,"motif":"","motif_pos":-1,"best_pos":2,"similarity":0.443},{"voice":6,"pitch":80,"start":131.625,"duration":0.125,"velocity":85,"measure":66,"beat":4.25,"subject_pos":-1,"motif":"","motif_pos":-1,"best_pos":5,"similarity":0.55},{"voice":2,"pitch":86,"start":131.6875,"duration":0.0625,"velocity":69,"measure":66,"beat":4.375,"subject_pos":-1,"motif":"","motif_pos":-1,"best_pos":3,"similarity":0.386},{"voice":2,"pitch":82,"start":131.75,"duration":0.0625,"velocity":72,"measure":66,"beat":4.5,"subject_pos":-1,"motif":"","motif_pos":-1,"best_pos":2,"similarity":0.393},{"voice":6,"pitch":82,"start":131.75,"duration":0.125,"velocity":105,"measure":66,"beat":4.5,"subject_pos":-1,"motif":"","motif_pos":-1,"best_pos":6,"similarity":0.421},{"voice":2,"pitch":77,"start":131.8125,"duration":0.0625,"velocity":75,"measure":66,"beat":4.625,"subject_pos":-1,"motif":"","motif_pos":-1,"best_pos":2,"similarity":0.443},{"voice":2,"pitch":74,"start":131.875,"duration":0.0625,"velocity":78,"measure":66,"beat":4.75,"subject_pos":-1,"motif":"","motif_pos":-1,"best_pos":3,"similarity":0.404},{"voice":6,"pitch":80,"start":131.875,"duration":0.125,"velocity":85,"measure":66,"beat":4.75,"subject_pos":-1,"motif":"","motif_pos":-1,"best_pos":3,"similarity":0.443},{"voice":2,"pitch":70,"start":131.9375,"duration":0.0625,"velocity":81,"measure":66,"beat":4.875,"subject_pos":-1,"motif":"","motif_pos":-1,"best_pos":2,"similarity":0.304},{"voice":2,"pitch":60,"start":132.0,"duration":0.0625,"velocity":60,"measure":67,"beat":1.0,"subject_pos":-1,"motif":"","motif_pos":-1,"best_pos":4,"similarity":0.225},{"voice":3,"pitch":38,"start":132.0,"duration":0.25,"velocity":105,"measure":67,"beat":1.0,"subject_pos":-1,"motif":"","motif_pos":-1,"best_pos":6,"similarity":0.536},{"voice":5,"pitch":60,"start":132.0,"duration":0.25,"velocity":85,"measure":67,"beat":1.0,"subject_pos":-1,"motif":"","motif_pos":-1,"best_pos":0,"similarity":0.143},{"voice":5,"pitch":64,"start":132.0,"duration":0.25,"velocity":85,"measure":67,"beat":1.0,"subject_pos":-1,"motif":"","motif_pos":-1,"best_pos":5,"similarity":0.207},{"voice":5,"pitch":67,"start":132.0,"duration":0.25,"velocity":85,"measure":67,"beat":1.0,"subject_pos":-1,"motif":"","motif_pos":-1,"best_pos":5,"similarity":0.286},{"voice":5,"pitch":70,"start":132.0,"duration":0.25,"velocity":85,"measure":67,"beat":1.0,"subject_pos":-1,"motif":"","motif_pos":-1,"best_pos":5,"similarity":0.386},{"voice":5,"pitch":72,"start":132.0,"duration":0.25,"velocity":85,"measure":67,"beat":1.0,"subject_pos":-1,"motif":"","motif_pos":-1,"best_pos":6,"similarity":0.357},{"voice":5,"pitch":76,"start":132.0,"duration":0.25,"velocity":85,"measure":67,"beat":1.0,"subject_pos":-1,"motif":"","motif_pos":-1,"best_pos":5,"similarity":0.221},{"voice":5,"pitch":79,"start":132.0,"duration":0.25,"velocity":85,"measure":67,"beat":1.0,"subject_pos":-1,"motif":"","motif_pos":-1,"best_pos":6,"similarity":0.236},{"voice":5,"pitch":82,"start":132.0,"duration":0.25,"velocity":85,"measure":67,"beat":1.0,"subject_pos":-1,"motif":"","motif_pos":-1,"best_pos":6,"similarity":0.179},{"voice":6,"pitch":80,"start":132.0,"duration":0.125,"velocity":60,"measure":67,"beat":1.0,"subject_pos":-1,"motif":"","motif_pos":-1,"best_pos":4,"similarity":0.514},{"voice":7,"pitch":36,"start":132.0,"duration":0.25,"velocity":115,"measure":67,"beat":1.0,"subject_pos":-1,"motif":"","motif_pos":-1,"best_pos":4,"similarity":0.389},{"voice":2,"pitch":64,"start":132.0625,"duration":0.0625,"velocity":63,"measure":67,"beat":1.125,"subject_pos":-1,"motif":"","motif_pos":-1,"best_pos":4,"similarity":0.25},{"voice":2,"pitch":67,"start":132.125,"duration":0.0625,"velocity":66,"measure":67,"beat":1.25,"subject_pos":-1,"motif":"","motif_pos":-1,"best_pos":5,"similarity":0.286},{"voice":6,"pitch":80,"start":132.125,"duration":0.125,"velocity":85,"measure":67,"beat":1.25,"subject_pos":-1,"motif":"","motif_pos":-1,"best_pos":5,"similarity":0.55},{"voice":2,"pitch":70,"start":132.1875,"duration":0.0625,"velocity":69,"measure":67,"beat":1.375,"subject_pos":-1,"motif":"","motif_pos":-1,"best_pos":5,"similarity":0.386},{"voice":2,"pitch":72,"start":132.25,"duration":0.0625,"velocity":72,"measure":67,"beat":1.5,"subject_pos":-1,"motif":"","motif_pos":-1,"best_pos":6,"similarity":0.357},{"voice":6,"pitch":82,"start":132.25,"duration":0.125,"velocity":105,"measure":67,"beat":1.5,"subject_pos":-1,"motif":"","motif_pos":-1,"best_pos":6,"similarity":0.421},{"voice":2,"pitch":76,"start":132.3125,"duration":0.0625,"velocity":75,"measure":67,"beat":1.625,"subject_pos":-1,"motif":"","motif_pos":-1,"best_pos":5,"similarity":0.221},{"voice":2,"pitch":79,"start":132.375,"duration":0.0625,"velocity":78,"measure":67,"beat":1.75,"subject_pos":-1,"motif":"","motif_pos":-1,"best_pos":5,"similarity":0.286},{"voice":6,"pitch":80,"start":132.375,"duration":0.125,"velocity":85,"measure":67,"beat":1.75,"subject_pos":-1,"motif":"","motif_pos":-1,"best_pos":3,"similarity":0.443},{"voice":2,"pitch":82,"start":132.4375,"duration":0.0625,"velocity":81,"measure":67,"beat":1.875,"subject_pos":-1,"motif":"","motif_pos":-1,"best_pos":5,"similarity":0.386},{"voice":2,"pitch":84,"start":132.5,"duration":0.0625,"velocity":60,"measure":67,"beat":2.0,"subject_pos":-1,"motif":"","motif_pos":-1,"best_pos":6,"similarity":0.357},{"voice":3,"pitch":38,"start":132.5,"duration":0.25,"velocity":105,"measure":67,"beat":2.0,"subject_pos":-1,"motif":"","motif_pos":-1,"best_pos":4,"similarity":0.346},{"voice":5,"pitch":60,"start":132.5,"duration":0.25,"velocity":85,"measure":67,"beat":2.0,"subject_pos":-1,"motif":"","motif_pos":-1,"best_pos":0,"similarity":0.143},{"voice":5,"pitch":64,"start":132.5,"duration":0.25,"velocity":85,"measure":67,"beat":2.0,"subject_pos":-1,"motif":"","motif_pos":-1,"best_pos":5,"similarity":0.207},{"voice":5,"pitch":67,"start":132.5,"duration":0.25,"velocity":85,"measure":67,"beat":2.0,"subject_pos":-1,"motif":"","motif_pos":-1,"best_pos":5,"similarity":0.286},{"voice":5,"pitch":70,"start":132.5,"duration":0.25,"velocity":85,"measure":67,"beat":2.0,"subject_pos":-1,"motif":"","motif_pos":-1,"best_pos":5,"similarity":0.386},{"voice":5,"pitch":72,"start":132.5,"duration":0.25,"velocity":85,"measure":67,"beat":2.0,"subject_pos":-1,"motif":"","motif_pos":-1,"best_pos":6,"similarity":0.357},{"voice":5,"pitch":76,"start":132.5,"duration":0.25,"velocity":85,"measure":67,"beat":2.0,"subject_pos":-1,"motif":"","motif_pos":-1,"best_pos":5,"similarity":0.221},{"voice":5,"pitch":79,"start":132.5,"duration":0.25,"velocity":85,"measure":67,"beat":2.0,"subject_pos":-1,"motif":"","motif_pos":-1,"best_pos":6,"similarity":0.236},{"voice":5,"pitch":82,"start":132.5,"duration":0.25,"velocity":85,"measure":67,"beat":2.0,"subject_pos":-1,"motif":"","motif_pos":-1,"best_pos":6,"similarity":0.179},{"voice":6,"pitch":80,"start":132.5,"duration":0.125,"velocity":60,"measure":67,"beat":2.0,"subject_pos":-1,"motif":"","motif_pos":-1,"best_pos":4,"similarity":0.514},{"voice":7,"pitch":36,"start":132.5,"duration":0.25,"velocity":115,"measure":67,"beat":2.0,"subject_pos":-1,"motif":"","motif_pos":-1,"best_pos":4,"similarity":0.389},{"voice":8,"pitch":74,"start":132.5,"duration":0.25,"velocity":100,"measure":67,"beat":2.0,"subject_pos":-1,"motif":"","motif_pos":-1,"best_pos":4,"similarity":0.389},{"voice":2,"pitch":88,"start":132.5625,"duration":0.0625,"velocity":63,"measure":67,"beat":2.125,"subject_pos":-1,"motif":"","motif_pos":-1,"best_pos":1,"similarity":0.321},{"voice":2,"pitch":88,"start":132.625,"duration":0.0625,"velocity":66,"measure":67,"beat":2.25,"subject_pos":-1,"motif":"","motif_pos":-1,"best_pos":1,"similarity":0.375},{"voice":6,"pitch":80,"start":132.625,"duration":0.125,"velocity":85,"measure":67,"beat":2.25,"subject_pos":-1,"motif":"","motif_pos":-1,"best_pos":5,"similarity":0.55},{"voice":2,"pitch":84,"start":132.6875,"duration":0.0625,"velocity":69,"measure":67,"beat":2.375,"subject_pos":-1,"motif":"","motif_pos":-1,"best_pos":2,"similarity":0.471},{"voice":2,"pitch":82,"start":132.75,"duration":0.0625,"velocity":72,"measure":67,"beat":2.5,"subject_pos":-1,"motif":"","motif_pos":-1,"best_pos":2,"similarity":0.607},{"voice":6,"pitch":82,"start":132.75,"duration":0.125,"velocity":105,"measure":67,"beat":2.5,"subject_pos":-1,"motif":"","motif_pos":-1,"best_pos":6,"similarity":0.421},{"voice":2,"pitch":79,"start":132.8125,"duration":0.0625,"velocity":75,"measure":67,"beat":2.625,"subject_pos":-1,"motif":"","motif_pos":-1,"best_pos":3,"similarity":0.507},{"voice":2,"pitch":76,"start":132.875,"duration":0.0625,"velocity":78,"measure":67,"beat":2.75,"subject_pos":-1,"motif":"","motif_pos":-1,"best_pos":3,"similarity":0.4},{"voice":6,"pitch":80,"start":132.875,"duration":0.125,"velocity":85,"measure":67,"beat":2.75,"subject_pos":-1,"motif":"","motif_pos":-1,"best_pos":3,"similarity":0.443},{"voice":2,"pitch":72,"start":132.9375,"duration":0.0625,"velocity":81,"measure":67,"beat":2.875,"subject_pos":-1,"motif":"","motif_pos":-1,"best_pos":2,"similarity":0.471},{"voice":2,"pitch":70,"start":133.0,"duration":0.0625,"velocity":60,"measure":67,"beat":3.0,"subject_pos":-1,"motif":"","motif_pos":-1,"best_pos":2,"similarity":0.607},{"voice":3,"pitch":38,"start":133.0,"duration":0.25,"velocity":105,"measure":67,"beat":3.0,"subject_pos":-1,"motif":"","motif_pos":-1,"best_pos":4,"similarity":0.343},{"voice":5,"pitch":60,"start":133.0,"duration":0.25,"velocity":85,"measure":67,"beat":3.0,"subject_pos":-1,"motif":"","motif_pos":-1,"best_pos":0,"similarity":0.143},{"voice":5,"pitch":64,"start":133.0,"duration":0.25,"velocity":85,"measure":67,"beat":3.0,"subject_pos":-1,"motif":"","motif_pos":-1,"best_pos":5,"similarity":0.207},{"voice":5,"pitch":67,"start":133.0,"duration":0.25,"velocity":85,"measure":67,"beat":3.0,"subject_pos":-1,"motif":"","motif_pos":-1,"best_pos":5,"similarity":0.286},{"voice":5,"pitch":70,"start":133.0,"duration":0.25,"velocity":85,"measure":67,"beat":3.0,"subject_pos":-1,"motif":"","motif_pos":-1,"best_pos":5,"similarity":0.386},{"voice":5,"pitch":72,"start":133.0,"duration":0.25,"velocity":85,"measure":67,"beat":3.0,"subject_pos":-1,"motif":"","motif_pos":-1,"best_pos":6,"similarity":0.357},{"voice":5,"pitch":76,"start":133.0,"duration":0.25,"velocity":85,"measure":67,"beat":3.0,"subject_pos":-1,"motif":"","motif_pos":-1,"best_pos":5,"similarity":0.221},{"voice":5,"pitch":79,"start":133.0,"duration":0.25,"velocity":85,"measure":67,"beat":3.0,"subject_pos":-1,"motif":"","motif_pos":-1,"best_pos":6,"similarity":0.236},{"voice":5,"pitch":82,"start":133.0,"duration":0.25,"velocity":85,"measure":67,"beat":3.0,"subject_pos":-1,"motif":"","motif_pos":-1,"best_pos":6,"similarity":0.179},{"voice":6,"pitch":80,"start":133.0,"duration":0.125,"velocity":60,"measure":67,"beat":3.0,"subject_pos":-1,"motif":"","motif_pos":-1,"best_pos":4,"similarity":0.514},{"voice":7,"pitch":36,"start":133.0,"duration":0.25,"velocity":115,"measure":67,"beat":3.0,"subject_pos":-1,"motif":"","motif_pos":-1,"best_pos":4,"similarity":0.389},{"voice":2,"pitch":67,"start":133.0625,"duration":0.0625,"velocity":63,"measure":67,"beat":3.125,"subject_pos":-1,"motif":"","motif_pos":-1,"best_pos":3,"similarity":0.518},{"voice":2,"pitch":64,"start":133.125,"duration":0.0625,"velocity":66,"measure":67,"beat":3.25,"subject_pos":-1,"motif":"","motif_pos":-1,"best_pos":3,"similarity":0.475},{"voice":6,"pitch":80,"start":133.125,"duration":0.125,"velocity":85,"measure":67,"beat":3.25,"subject_pos":-1,"motif":"","motif_pos":-1,"best_pos":5,"similarity":0.55},{"voice":2,"pitch":60,"start":133.1875,"duration":0.0625,"velocity":69,"measure":67,"beat":3.375,"subject_pos":-1,"motif":"","motif_pos":-1,"best_pos":3,"similarity":0.407},{"voice":2,"pitch":60,"start":133.25,"duration":0.0625,"velocity":72,"measure":67,"beat":3.5,"subject_pos":-1,"motif":"","motif_pos":-1,"best_pos":4,"similarity":0.368},{"voice":6,"pitch":82,"start":133.25,"duration":0.125,"velocity":105,"measure":67,"beat":3.5,"subject_pos":-1,"motif":"","motif_pos":-1,"best_pos":6,"similarity":0.421},{"voice":2,"pitch":64,"start":133.3125,"duration":0.0625,"velocity":75,"measure":67,"beat":3.625,"subject_pos":-1,"motif":"","motif_pos":-1,"best_pos":5,"similarity":0.314},{"voice":2,"pitch":67,"start":133.375,"duration":0.0625,"velocity":78,"measure":67,"beat":3.75,"subject_pos":-1,"motif":"","motif_pos":-1,"best_pos":5,"similarity":0.293},{"voice":6,"pitch":80,"start":133.375,"duration":0.125,"velocity":85,"measure":67,"beat":3.75,"subject_pos":-1,"motif":"","motif_pos":-1,"best_pos":3,"similarity":0.443},{"voice":2,"pitch":70,"start":133.4375,"duration":0.0625,"velocity":81,"measure":67,"beat":3.875,"subject_pos":-1,"motif":"","motif_pos":-1,"best_pos":5,"similarity":0.386},{"voice":2,"pitch":72,"start":133.5,"duration":0.0625,"velocity":60,"measure":67,"beat":4.0,"subject_pos":-1,"motif":"","motif_pos":-1,"best_pos":6,"similarity":0.357},{"voice":3,"pitch":38,"start":133.5,"duration":0.25,"velocity":105,"measure":67,"beat":4.0,"subject_pos":-1,"motif":"","motif_pos":-1,"best_pos":2,"similarity":0.464},{"voice":5,"pitch":60,"start":133.5,"duration":0.25,"velocity":85,"measure":67,"beat":4.0,"subject_pos":-1,"motif":"","motif_pos":-1,"best_pos":0,"similarity":0.143},{"voice":5,"pitch":64,"start":133.5,"duration":0.25,"velocity":85,"measure":67,"beat":4.0,"subject_pos":-1,"motif":"","motif_pos":-1,"best_pos":5,"similarity":0.207},{"voice":5,"pitch":67,"start":133.5,"duration":0.25,"velocity":85,"measure":67,"beat":4.0,"subject_pos":-1,"motif":"","motif_pos":-1,"best_pos":5,"similarity":0.286},{"voice":5,"pitch":70,"start":133.5,"duration":0.25,"velocity":85,"measure":67,"beat":4.0,"subject_pos":-1,"motif":"","motif_pos":-1,"best_pos":5,"similarity":0.386},{"voice":5,"pitch":72,"start":133.5,"duration":0.25,"velocity":85,"measure":67,"beat":4.0,"subject_pos":-1,"motif":"","motif_pos":-1,"best_pos":6,"similarity":0.357},{"voice":5,"pitch":76,"start":133.5,"duration":0.25,"velocity":85,"measure":67,"beat":4.0,"subject_pos":-1,"motif":"","motif_pos":-1,"best_pos":5,"similarity":0.221},{"voice":5,"pitch":79,"start":133.5,"duration":0.25,"velocity":85,"measure":67,"beat":4.0,"subject_pos":-1,"motif":"","motif_pos":-1,"best_pos":6,"similarity":0.236},{"voice":5,"pitch":82,"start":133.5,"duration":0.25,"velocity":85,"measure":67,"beat":4.0,"subject_pos":-1,"motif":"","motif_pos":-1,"best_pos":6,"similarity":0.179},{"voice":6,"pitch":80,"start":133.5,"duration":0.125,"velocity":60,"measure":67,"beat":4.0,"subject_pos":-1,"motif":"","motif_pos":-1,"best_pos":4,"similarity":0.514},{"voice":7,"pitch":36,"start":133.5,"duration":0.25,"velocity":115,"measure":67,"beat":4.0,"subject_pos":-1,"motif":"","motif_pos":-1,"best_pos":4,"similarity":0.389},{"voice":8,"pitch":74,"start":133.5,"duration":0.25,"velocity":100,"measure":67,"beat":4.0,"subject_pos":-1,"motif":"","motif_pos":-1,"best_pos":4,"similarity":0.389},{"voice":2,"pitch":76,"start":133.5625,"duration":0.0625,"velocity":63,"measure":67,"beat":4.125,"subject_pos":-1,"motif":"","motif_pos":-1,"best_pos":5,"similarity":0.221},{"voice":2,"pitch":79,"start":133.625,"duration":0.0625,"velocity":66,"measure":67,"beat":4.25,"subject_pos":-1,"motif":"","motif_pos":-1,"best_pos":5,"similarity":0.286},{"voice":6,"pitch":80,"start":133.625,"duration":0.125,"velocity":85,"measure":67,"beat":4.25,"subject_pos":-1,"motif":"","motif_pos":-1,"best_pos":5,"similarity":0.55},{"voice":2,"pitch":82,"start":133.6875,"duration":0.0625,"velocity":69,"measure":67,"beat":4.375,"subject_pos":-1,"motif":"","motif_pos":-1,"best_pos":5,"similarity":0.386},{"voice":2,"pitch":84,"start":133.75,"duration":0.0625,"velocity":72,"measure":67,"beat":4.5,"subject_pos":-1,"motif":"","motif_pos":-1,"best_pos":6,"similarity":0.357},{"voice":6,"pitch":82,"start":133.75,"duration":0.125,"velocity":105,"measure":67,"beat":4.5,"subject_pos":-1,"motif":"","motif_pos":-1,"best_pos":6,"similarity":0.421},{"voice":2,"pitch":88,"start":133.8125,"duration":0.0625,"velocity":75,"measure":67,"beat":4.625,"subject_pos":-1,"motif":"","motif_pos":-1,"best_pos":6,"similarity":0.293},{"voice":2,"pitch":88,"start":133.875,"duration":0.0625,"velocity":78,"measure":67,"beat":4.75,"subject_pos":-1,"motif":"","motif_pos":-1,"best_pos":2,"similarity":0.293},{"voice":6,"pitch":80,"start":133.875,"duration":0.125,"velocity":85,"measure":67,"beat":4.75,"subject_pos":-1,"motif":"","motif_pos":-1,"best_pos":3,"similarity":0.443},{"voice":2,"pitch":84,"start":133.9375,"duration":0.0625,"velocity":81,"measure":67,"beat":4.875,"subject_pos":-1,"motif":"","motif_pos":-1,"best_pos":2,"similarity":0.304},{"voice":2,"pitch":69,"start":134.0,"duration":0.0625,"velocity":60,"measure":68,"beat":1.0,"subject_pos":-1,"motif":"","motif_pos":-1,"best_pos":3,"similarity":0.214},{"voice":3,"pitch":35,"start":134.0,"duration":0.25,"velocity":105,"measure":68,"beat":1.0,"subject_pos":-1,"motif":"","motif_pos":-1,"best_pos":3,"similarity":0.554},{"voice":5,"pitch":57,"start":134.0,"duration":0.25,"velocity":85,"measure":68,"beat":1.0,"subject_pos":-1,"motif":"","motif_pos":-1,"best_pos":0,"similarity":0.143},{"voice":5,"pitch":61,"start":134.0,"duration":0.25,"velocity":85,"measure":68,"beat":1.0,"subject_pos":-1,"motif":"","motif_pos":-1,"best_pos":5,"similarity":0.207},{"voice":5,"pitch":64,"start":134.0,"duration":0.25,"velocity":85,"measure":68,"beat":1.0,"subject_pos":-1,"motif":"","motif_pos":-1,"best_pos":5,"similarity":0.286},{"voice":5,"pitch":67,"start":134.0,"duration":0.25,"velocity":85,"measure":68,"beat":1.0,"subject_pos":-1,"motif":"","motif_pos":-1,"best_pos":5,"similarity":0.386},{"voice":5,"pitch":69,"start":134.0,"duration":0.25,"velocity":85,"measure":68,"beat":1.0,"subject_pos":-1,"motif":"","motif_pos":-1,"best_pos":6,"similarity":0.357},{"voice":5,"pitch":73,"start":134.0,"duration":0.25,"velocity":85,"measure":68,"beat":1.0,"subject_pos":-1,"motif":"","motif_pos":-1,"best_pos":5,"similarity":0.221},{"voice":5,"pitch":76,"start":134.0,"duration":0.25,"velocity":85,"measure":68,"beat":1.0,"subject_pos":-1,"motif":"","motif_pos":-1,"best_pos":6,"similarity":0.236},{"voice":5,"pitch":79,"start":134.0,"duration":0.25,"velocity":85,"measure":68,"beat":1.0,"subject_pos":-1,"motif":"","motif_pos":-1,"best_pos":6,"similarity":0.179},{"voice":6,"pitch":80,"start":134.0,"duration":0.125,"velocity":60,"measure":68,"beat":1.0,"subject_pos":-1,"motif":"","motif_pos":-1,"best_pos":4,"similarity":0.514},{"voice":7,"pitch":36,"start":134.0,"duration":0.25,"velocity":115,"measure":68,"beat":1.0,"subject_pos":-1,"motif":"","motif_pos":-1,"best_pos":4,"similarity":0.389},{"voice":2,"pitch":73,"start":134.0625,"duration":0.0625,"velocity":63,"measure":68,"beat":1.125,"subject_pos":-1,"motif":"","motif_pos":-1,"best_pos":4,"similarity":0.25},{"voice":2,"pitch":76,"start":134.125,"duration":0.0625,"velocity":66,"measure":68,"beat":1.25,"subject_pos":-1,"motif":"","motif_pos":-1,"best_pos":5,"similarity":0.286},{"voice":6,"pitch":80,"start":134.125,"duration":0.125,"velocity":85,"measure":68,"beat":1.25,"subject_pos":-1,"motif":"","motif_pos":-1,"best_pos":5,"similarity":0.55},{"voice":2,"pitch":79,"start":134.1875,"duration":0.0625,"velocity":69,"measure":68,"beat":1.375,"subject_pos":-1,"motif":"","motif_pos":-1,"best_pos":5,"similarity":0.386},{"voice":2,"pitch":81,"start":134.25,"duration":0.0625,"velocity":72,"measure":68,"beat":1.5,"subject_pos":-1,"motif":"","motif_pos":-1,"best_pos":6,"similarity":0.357},{"voice":6,"pitch":82,"start":134.25,"duration":0.125,"velocity":105,"measure":68,"beat":1.5,"subject_pos":-1,"motif":"","motif_pos":-1,"best_pos":6,"similarity":0.421},{"voice":2,"pitch":85,"start":134.3125,"duration":0.0625,"velocity":75,"measure":68,"beat":1.625,"subject_pos":-1,"motif":"","motif_pos":-1,"best_pos":5,"similarity":0.221},{"voice":2,"pitch":88,"start":134.375,"duration":0.0625,"velocity":78,"measure":68,"beat":1.75,"subject_pos":-1,"motif":"","motif_pos":-1,"best_pos":5,"similarity":0.286},{"voice":6,"pitch":80,"start":134.375,"duration":0.125,"velocity":85,"measure":68,"beat":1.75,"subject_pos":-1,"motif":"","motif_pos":-1,"best_pos":3,"similarity":0.443},{"voice":2,"pitch":91,"start":134.4375,"duration":0.0625,"velocity":81,"measure":68,"beat":1.875,"subject_pos":-1,"motif":"","motif_pos":-1,"best_pos":5,"similarity":0.386},{"voice":2,"pitch":93,"start":134.5,"duration":0.0625,"velocity":60,"measure":68,"beat":2.0,"subject_pos":-1,"motif":"","motif_pos":-1,"best_pos":6,"similarity":0.357},{"voice":3,"pitch":35,"start":134.5,"duration":0.25,"velocity":105,"measure":68,"beat":2.0,"subject_pos":-1,"motif":"","motif_pos":-1,"best_pos":4,"similarity":0.482},{"voice":5,"pitch":57,"start":134.5,"duration":0.25,"velocity":85,"measure":68,"beat":2.0,"subject_pos":-1,"motif":"","motif_pos":-1,"best_pos":0,"similarity":0.143},{"voice":5,"pitch":61,"start":134.5,"duration":0.25,"velocity":85,"measure":68,"beat":2.0,"subject_pos":-1,"motif":"","motif_pos":-1,"best_pos":5,"similarity":0.207},{"voice":5,"pitch":64,"start":134.5,"duration":0.25,"velocity":85,"measure":68,"beat":2.0,"subject_pos":-1,"motif":"","motif_pos":-1,"best_pos":5,"similarity":0.286},{"voice":5,"pitch":67,"start":134.5,"duration":0.25,"velocity":85,"measure":68,"beat":2.0,"subject_pos":-1,"motif":"","motif_pos":-1,"best_pos":5,"similarity":0.386},{"voice":5,"pitch":69,"start":134.5,"duration":0.25,"velocity":85,"measure":68,"beat":2.0,"subject_pos":-1,"motif":"","motif_pos":-1,"best_pos":6,"similarity":0.357},{"voice":5,"pitch":73,"start":134.5,"duration":0.25,"velocity":85,"measure":68,"beat":2.0,"subject_pos":-1,"motif":"","motif_pos":-1,"best_pos":5,"similarity":0.221},{"voice":5,"pitch":76,"start":134.5,"duration":0.25,"velocity":85,"measure":68,"beat":2.0,"subject_pos":-1,"motif":"","motif_pos":-1,"best_pos":6,"similarity":0.236},{"voice":5,"pitch":79,"start":134.5,"duration":0.25,"velocity":85,"measure":68,"beat":2.0,"subject_pos":-1,"motif":"","motif_pos":-1,"best_pos":6,"similarity":0.179},{"voice":6,"pitch":80,"start":134.5,"duration":0.125,"velocity":60,"measure":68,"beat":2.0,"subject_pos":-1,"motif":"","motif_pos":-1,"best_pos":4,"similarity":0.514},{"voice":7,"pitch":36,"start":134.5,"duration":0.25,"velocity":115,"measure":68,"beat":2.0,"subject_pos":-1,"motif":"","motif_pos":-1,"best_pos":4,"similarity":0.389},{"voice":8,"pitch":74,"start":134.5,"duration":0.25,"velocity":100,"measure":68,"beat":2.0,"subject_pos":-1,"motif":"","motif_pos":-1,"best_pos":4,"similarity":0.389},{"voice":2,"pitch":97,"start":134.5625,"duration":0.0625,"velocity":63,"measure":68,"beat":2.125,"subject_pos":-1,"motif":"","motif_pos":-1,"best_pos":1,"similarity":0.321},{"voice":2,"pitch":97,"start":134.625,"duration":0.0625,"velocity":66,"measure":68,"beat":2.25,"subject_pos":-1,"motif":"","motif_pos":-1,"best_pos":1,"similarity":0.375},{"voice":6,"pitch":80,"start":134.625,"duration":0.125,"velocity":85,"measure":68,"beat":2.25,"subject_pos":-1,"motif":"","motif_pos":-1,"best_pos":5,"similarity":0.55},{"voice":2,"pitch":93,"start":134.6875,"duration":0.0625,"velocity":69,"measure":68,"beat":2.375,"subject_pos":-1,"motif":"","motif_pos":-1,"best_pos":2,"similarity":0.471},{"voice":2,"pitch":91,"start":134.75,"duration":0.0625,"velocity":72,"measure":68,"beat":2.5,"subject_pos":-1,"motif":"","motif_pos":-1,"best_pos":2,"similarity":0.607},{"voice":6,"pitch":82,"start":134.75,"duration":0.125,"velocity":105,"measure":68,"beat":2.5,"subject_pos":-1,"motif":"","motif_pos":-1,"best_pos":6,"similarity":0.421},{"voice":2,"pitch":88,"start":134.8125,"duration":0.0625,"velocity":75,"measure":68,"beat":2.625,"subject_pos":-1,"motif":"","motif_pos":-1,"best_pos":3,"similarity":0.507},{"voice":2,"pitch":85,"start":134.875,"duration":0.0625,"velocity":78,"measure":68,"beat":2.75,"subject_pos":-1,"motif":"","motif_pos":-1,"best_pos":3,"similarity":0.4},{"voice":6,"pitch":80,"start":134.875,"duration":0.125,"velocity":85,"measure":68,"beat":2.75,"subject_pos":-1,"motif":"","motif_pos":-1,"best_pos":3,"similarity":0.443},{"voice":2,"pitch":81,"start":134.9375,"duration":0.0625,"velocity":81,"measure":68,"beat":2.875,"subject_pos":-1,"motif":"","motif_pos":-1,"best_pos":2,"similarity":0.471},{"voice":2,"pitch":79,"start":135.0,"duration":0.0625,"velocity":60,"measure":68,"beat":3.0,"subject_pos":-1,"motif":"","motif_pos":-1,"best_pos":2,"similarity":0.607},{"voice":3,"pitch":35,"start":135.0,"duration":0.25,"velocity":105,"measure":68,"beat":3.0,"subject_pos":-1,"motif":"","motif_pos":-1,"best_pos":4,"similarity":0.371},{"voice":5,"pitch":57,"start":135.0,"duration":0.25,"velocity":85,"measure":68,"beat":3.0,"subject_pos":-1,"motif":"","motif_pos":-1,"best_pos":0,"similarity":0.143},{"voice":5,"pitch":61,"start":135.0,"duration":0.25,"velocity":85,"measure":68,"beat":3.0,"subject_pos":-1,"motif":"","motif_pos":-1,"best_pos":5,"similarity":0.207},{"voice":5,"pitch":64,"start":135.0,"duration":0.25,"velocity":85,"measure":68,"beat":3.0,"subject_pos":-1,"motif":"","motif_pos":-1,"best_pos":5,"similarity":0.286},{"voice":5,"pitch":67,"start":135.0,"duration":0.25,"velocity":85,"measure":68,"beat":3.0,"subject_pos":-1,"motif":"","motif_pos":-1,"best_pos":5,"similarity":0.386},{"voice":5,"pitch":69,"start":135.0,"duration":0.25,"velocity":85,"measure":68,"beat":3.0,"subject_pos":-1,"motif":"","motif_pos":-1,"best_pos":6,"similarity":0.357},{"voice":5,"pitch":73,"start":135.0,"duration":0.25,"velocity":85,"measure":68,"beat":3.0,"subject_pos":-1,"motif":"","motif_pos":-1,"best_pos":5,"similarity":0.221},{"voice":5,"pitch":76,"start":135.0,"duration":0.25,"velocity":85,"measure":68,"beat":3.0,"subject_pos":-1,"motif":"","motif_pos":-1,"best_pos":6,"similarity":0.236},{"voice":5,"pitch":79,"start":135.0,"duration":0.25,"velocity":85,"measure":68,"beat":3.0,"subject_pos":-1,"motif":"","motif_pos":-1,"best_pos":6,"similarity":0.179},{"voice":6,"pitch":80,"start":135.0,"duration":0.125,"velocity":60,"measure":68,"beat":3.0,"subject_pos":-1,"motif":"","motif_pos":-1,"best_pos":4,"similarity":0.514},{"voice":7,"pitch":36,"start":135.0,"duration":0.25,"velocity":115,"measure":68,"beat":3.0,"subject_pos":-1,"motif":"","motif_pos":-1,"best_pos":4,"similarity":0.389},{"voice":2,"pitch":76,"start":135.0625,"duration":0.0625,"velocity":63,"measure":68,"beat":3.125,"subject_pos":-1,"motif":"","motif_pos":-1,"best_pos":3,"similarity":0.518},{"voice":2,"pitch":73,"start":135.125,"duration":0.0625,"velocity":66,"measure":68,"beat":3.25,"subject_pos":-1,"motif":"","motif_pos":-1,"best_pos":3,"similarity":0.475},{"voice":6,"pitch":80,"start":135.125,"duration":0.125,"velocity":85,"measure":68,"beat":3.25,"subject_pos":-1,"motif":"","motif_pos":-1,"best_pos":5,"similarity":0.55},{"voice":2,"pitch":69,"start":135.1875,"duration":0.0625,"velocity":69,"measure":68,"beat":3.375,"subject_pos":-1,"motif":"","motif_pos":-1,"best_pos":3,"similarity":0.407},{"voice":2,"pitch":69,"start":135.25,"duration":0.0625,"velocity":72,"measure":68,"beat":3.5,"subject_pos":-1,"motif":"","motif_pos":-1,"best_pos":4,"similarity":0.368},{"voice":6,"pitch":82,"start":135.25,"duration":0.125,"velocity":105,"measure":68,"beat":3.5,"subject_pos":-1,"motif":"","motif_pos":-1,"best_pos":6,"similarity":0.421},{"voice":2,"pitch":73,"start":135.3125,"duration":0.0625,"velocity":75,"measure":68,"beat":3.625,"subject_pos":-1,"motif":"","motif_pos":-1,"best_pos":5,"similarity":0.314},{"voice":2,"pitch":76,"start":135.375,"duration":0.0625,"velocity":78,"measure":68,"beat":3.75,"subject_pos":-1,"motif":"","motif_pos":-1,"best_pos":5,"similarity":0.293},{"voice":6,"pitch":80,"start":135.375,"duration":0.125,"velocity":85,"measure":68,"beat":3.75,"subject_pos":-1,"motif":"","motif_pos":-1,"best_pos":3,"similarity":0.443},{"voice":2,"pitch":79,"start":135.4375,"duration":0.0625,"velocity":81,"measure":68,"beat":3.875,"subject_pos":-1,"motif":"","motif_pos":-1,"best_pos":5,"similarity":0.386},{"voice":2,"pitch":81,"start":135.5,"duration":0.0625,"velocity":60,"measure":68,"beat":4.0,"subject_pos":-1,"motif":"","motif_pos":-1,"best_pos":6,"similarity":0.357},{"voice":3,"pitch":35,"start":135.5,"duration":0.25,"velocity":105,"measure":68,"beat":4.0,"subject_pos":-1,"motif":"","motif_pos":-1,"best_pos":5,"similarity":0.293},{"voice":5,"pitch":57,"start":135.5,"duration":0.25,"velocity":85,"measure":68,"beat":4.0,"subject_pos":-1,"motif":"","motif_pos":-1,"best_pos":0,"similarity":0.143},{"voice":5,"pitch":61,"start":135.5,"duration":0.25,"velocity":85,"measure":68,"beat":4.0,"subject_pos":-1,"motif":"","motif_pos":-1,"best_pos":5,"similarity":0.207},{"voice":5,"pitch":64,"start":135.5,"duration":0.25,"velocity":85,"measure":68,"beat":4.0,"subject_pos":-1,"motif":"","motif_pos":-1,"best_pos":5,"similarity":0.286},{"voice":5,"pitch":67,"start":135.5,"duration":0.25,"velocity":85,"measure":68,"beat":4.0,"subject_pos":-1,"motif":"","motif_pos":-1,"best_pos":5,"similarity":0.386},{"voice":5,"pitch":69,"start":135.5,"duration":0.25,"velocity":85,"measure":68,"beat":4.0,"subject_pos":-1,"motif":"","motif_pos":-1,"best_pos":6,"similarity":0.357},{"voice":5,"pitch":73,"start":135.5,"duration":0.25,"velocity":85,"measure":68,"beat":4.0,"subject_pos":-1,"motif":"","motif_pos":-1,"best_pos":5,"similarity":0.221},{"voice":5,"pitch":76,"start":135.5,"duration":0.25,"velocity":85,"measure":68,"beat":4.0,"subject_pos":-1,"motif":"","motif_pos":-1,"best_pos":6,"similarity":0.236},{"voice":5,"pitch":79,"start":135.5,"duration":0.25,"velocity":85,"measure":68,"beat":4.0,"subject_pos":-1,"motif":"","motif_pos":-1,"best_pos":6,"similarity":0.179},{"voice":6,"pitch":80,"start":135.5,"duration":0.125,"velocity":60,"measure":68,"beat":4.0,"subject_pos":-1,"motif":"","motif_pos":-1,"best_pos":4,"similarity":0.514},{"voice":7,"pitch":36,"start":135.5,"duration":0.25,"velocity":115,"measure":68,"beat":4.0,"subject_pos":-1,"motif":"","motif_pos":-1,"best_pos":4,"similarity":0.389},{"voice":8,"pitch":74,"start":135.5,"duration":0.25,"velocity":100,"measure":68,"beat":4.0,"subject_pos":-1,"motif":"","motif_pos":-1,"best_pos":4,"similarity":0.389},{"voice":2,"pitch":85,"start":135.5625,"duration":0.0625,"velocity":63,"measure":68,"beat":4.125,"subject_pos":-1,"motif":"","motif_pos":-1,"best_pos":5,"similarity":0.221},{"voice":2,"pitch":88,"start":135.625,"duration":0.0625,"velocity":66,"measure":68,"beat":4.25,"subject_pos":-1,"motif":"","motif_pos":-1,"best_pos":5,"similarity":0.286},{"voice":6,"pitch":80,"start":135.625,"duration":0.125,"velocity":85,"measure":68,"beat":4.25,"subject_pos":-1,"motif":"","motif_pos":-1,"best_pos":5,"similarity":0.55},{"voice":2,"pitch":91,"start":135.6875,"duration":0.0625,"velocity":69,"measure":68,"beat":4.375,"subject_pos":-1,"motif":"","motif_pos":-1,"best_pos":5,"similarity":0.386},{"voice":2,"pitch":93,"start":135.75,"duration":0.0625,"velocity":72,"measure":68,"beat":4.5,"subject_pos":-1,"motif":"","motif_pos":-1,"best_pos":6,"similarity":0.357},{"voice":6,"pitch":82,"start":135.75,"duration":0.125,"velocity":105,"measure":68,"beat":4.5,"subject_pos":-1,"motif":"","motif_pos":-1,"best_pos":6,"similarity":0.421},{"voice":2,"pitch":97,"start":135.8125,"duration":0.0625,"velocity":75,"measure":68,"beat":4.625,"subject_pos":-1,"motif":"","motif_pos":-1,"best_pos":6,"similarity":0.293},{"voice":2,"pitch":97,"start":135.875,"duration":0.0625,"velocity":78,"measure":68,"beat":4.75,"subject_pos":-1,"motif":"","motif_pos":-1,"best_pos":2,"similarity":0.304},{"voice":6,"pitch":80,"start":135.875,"duration":0.125,"velocity":85,"measure":68,"beat":4.75,"subject_pos":-1,"motif":"","motif_pos":-1,"best_pos":3,"similarity":0.443},{"voice":2,"pitch":93,"start":135.9375,"duration":0.0625,"velocity":81,"measure":68,"beat":4.875,"subject_pos":-1,"motif":"","motif_pos":-1,"best_pos":2,"similarity":0.307},{"voice":1,"pitch":50,"start":136.0,"duration":8.0,"velocity":55,"measure":69,"beat":1.0,"subject_pos":-1,"motif":"","motif_pos":-1,"best_pos":5,"similarity":0.157},{"voice":1,"pitch":53,"start":136.0,"duration":8.0,"velocity":55,"measure":69,"beat":1.0,"subject_pos":-1,"motif":"","motif_pos":-1,"best_pos":6,"similarity":0.171},{"voice":1,"pitch":57,"start":136.0,"duration":8.0,"velocity":55,"measure":69,"beat":1.0,"subject_pos":-1,"motif":"","motif_pos":-1,"best_pos":0,"similarity":0.286},{"voice":1,"pitch":62,"start":136.0,"duration":8.0,"velocity":50,"measure":69,"beat":1.0,"subject_pos":-1,"motif":"","motif_pos":-1,"best_pos":1,"similarity":0.286},{"voice":1,"pitch":65,"start":136.0,"duration":8.0,"velocity":50,"measure":69,"beat":1.0,"subject_pos":-1,"motif":"","motif_pos":-1,"best_pos":6,"similarity":0.186},{"voice":1,"pitch":69,"start":136.0,"duration":8.0,"velocity":50,"measure":69,"beat":1.0,"subject_pos":-1,"motif":"","motif_pos":-1,"best_pos":0,"similarity":0.286},{"voice":1,"pitch":74,"start":136.0,"duration":8.0,"velocity":40,"measure":69,"beat":1.0,"subject_pos":-1,"motif":"","motif_pos":-1,"best_pos":1,"similarity":0.286},{"voice":1,"pitch":77,"start":136.0,"duration":8.0,"velocity":40,"measure":69,"beat":1.0,"subject_pos":-1,"motif":"","motif_pos":-1,"best_pos":6,"similarity":0.186},{"voice":1,"pitch":81,"start":136.0,"duration":8.0,"velocity":40,"measure":69,"beat":1.0,"subject_pos":-1,"motif":"","motif_pos":-1,"best_pos":1,"similarity":0.143},{"voice":2,"pitch":62,"start":136.0,"duration":0.0625,"velocity":60,"measure":69,"beat":1.0,"subject_pos":-1,"motif":"","motif_pos":-1,"best_pos":4,"similarity":0.204},{"voice":3,"pitch":28,"start":136.0,"duration":0.25,"velocity":105,"measure":69,"beat":1.0,"subject_pos":-1,"motif":"","motif_pos":-1,"best_pos":3,"similarity":0.296},{"voice":5,"pitch":62,"start":136.0,"duration":0.25,"velocity":85,"measure":69,"beat":1.0,"subject_pos":-1,"motif":"","motif_pos":-1,"best_pos":5,"similarity":0.171},{"voice":5,"pitch":65,"start":136.0,"duration":0.25,"velocity":85,"measure":69,"beat":1.0,"subject_pos":-1,"motif":"","motif_pos":-1,"best_pos":6,"similarity":0.179},{"voice":5,"pitch":69,"start":136.0,"duration":0.25,"velocity":85,"measure":69,"beat":1.0,"subject_pos":-1,"motif":"","motif_pos":-1,"best_pos":0,"similarity":0.286},{"voice":5,"pitch":74,"start":136.0,"duration":0.25,"velocity":85,"measure":69,"beat":1.0,"subject_pos":-1,"motif":"","motif_pos":-1,"best_pos":1,"similarity":0.286},{"voice":5,"pitch":77,"start":136.0,"duration":0.25,"velocity":85,"measure":69,"beat":1.0,"subject_pos":-1,"motif":"","motif_pos":-1,"best_pos":6,"similarity":0.186},{"voice":5,"pitch":81,"start":136.0,"duration":0.25,"velocity":85,"measure":69,"beat":1.0,"subject_pos":-1,"motif":"","motif_pos":-1,"best_pos":1,"similarity":0.143},{"voice":6,"pitch":80,"start":136.0,"duration":0.125,"velocity":60,"measure":69,"beat":1.0,"subject_pos":-1,"motif":"","motif_pos":-1,"best_pos":4,"similarity":0.514},{"voice":7,"pitch":36,"start":136.0,"duration":0.25,"velocity":115,"measure":69,"beat":1.0,"subject_pos":-1,"motif":"","motif_pos":-1,"best_pos":4,"similarity":0.389},{"voice":2,"pitch":65,"start":136.0625,"duration":0.0625,"velocity":63,"measure":69,"beat":1.125,"subject_pos":-1,"motif":"","motif_pos":-1,"best_pos":5,"similarity":0.193},{"voice":2,"pitch":69,"start":136.125,"duration":0.0625,"velocity":66,"measure":69,"beat":1.25,"subject_pos":-1,"motif":"","motif_pos":-1,"best_pos":0,"similarity":0.286},{"voice":6,"pitch":80,"start":136.125,"duration":0.125,"velocity":85,"measure":69,"beat":1.25,"subject_pos":-1,"motif":"","motif_pos":-1,"best_pos":5,"similarity":0.55},{"voice":2,"pitch":74,"start":136.1875,"duration":0.0625,"velocity":69,"measure":69,"beat":1.375,"subject_pos":-1,"motif":"","motif_pos":-1,"best_pos":1,"similarity":0.286},{"voice":2,"pitch":77,"start":136.25,"duration":0.0625,"velocity":72,"measure":69,"beat":1.5,"subject_pos":-1,"motif":"","motif_pos":-1,"best_pos":6,"similarity":0.186},{"voice":6,"pitch":82,"start":136.25,"duration":0.125,"velocity":105,"measure":69,"beat":1.5,"subject_pos":-1,"motif":"","motif_pos":-1,"best_pos":6,"similarity":0.421},{"voice":2,"pitch":81,"start":136.3125,"duration":0.0625,"velocity":75,"measure":69,"beat":1.625,"subject_pos":-1,"motif":"","motif_pos":-1,"best_pos":0,"similarity":0.293},{"voice":2,"pitch":86,"start":136.375,"duration":0.0625,"velocity":78,"measure":69,"beat":1.75,"subject_pos":-1,"motif":"","motif_pos":-1,"best_pos":1,"similarity":0.318},{"voice":6,"pitch":80,"start":136.375,"duration":0.125,"velocity":85,"measure":69,"beat":1.75,"subject_pos":-1,"motif":"","motif_pos":-1,"best_pos":3,"similarity":0.443},{"voice":2,"pitch":89,"start":136.4375,"duration":0.0625,"velocity":81,"measure":69,"beat":1.875,"subject_pos":-1,"motif":"","motif_pos":-1,"best_pos":6,"similarity":0.3},{"voice":2,"pitch":89,"start":136.5,"duration":0.0625,"velocity":60,"measure":69,"beat":2.0,"subject_pos":-1,"motif":"","motif_pos":-1,"best_pos":2,"similarity":0.407},{"voice":3,"pitch":28,"start":136.5,"duration":0.25,"velocity":105,"measure":69,"beat":2.0,"subject_pos":-1,"motif":"","motif_pos":-1,"best_pos":4,"similarity":0.361},{"voice":5,"pitch":62,"start":136.5,"duration":0.25,"velocity":85,"measure":69,"beat":2.0,"subject_pos":-1,"motif":"","motif_pos":-1,"best_pos":5,"similarity":0.157},{"voice":5,"pitch":65,"start":136.5,"duration":0.25,"velocity":85,"measure":69,"beat":2.0,"subject_pos":-1,"motif":"","motif_pos":-1,"best_pos":6,"similarity":0.171},{"voice":5,"pitch":69,"start":136.5,"duration":0.25,"velocity":85,"measure":69,"beat":2.0,"subject_pos":-1,"motif":"","motif_pos":-1,"best_pos":0,"similarity":0.286},{"voice":5,"pitch":74,"start":136.5,"duration":0.25,"velocity":85,"measure":69,"beat":2.0,"subject_pos":-1,"motif":"","motif_pos":-1,"best_pos":1,"similarity":0.286},{"voice":5,"pitch":77,"start":136.5,"duration":0.25,"velocity":85,"measure":69,"beat":2.0,"subject_pos":-1,"motif":"","motif_pos":-1,"best_pos":6,"similarity":0.186},{"voice":5,"pitch":81,"start":136.5,"duration":0.25,"velocity":85,"measure":69,"beat":2.0,"subject_pos":-1,"motif":"","motif_pos":-1,"best_pos":1,"similarity":0.143},{"voice":6,"pitch":80,"start":136.5,"duration":0.125,"velocity":60,"measure":69,"beat":2.0,"subject_pos":-1,"motif":"","motif_pos":-1,"best_pos":4,"similarity":0.514},{"voice":7,"pitch":36,"start":136.5,"duration":0.25,"velocity":115,"measure":69,"beat":2.0,"subject_pos":-1,"motif":"","motif_pos":-1,"best_pos":4,"similarity":0.389},{"voice":8,"pitch":74,"start":136.5,"duration":0.25,"velocity":100,"measure":69,"beat":2.0,"subject_pos":-1,"motif":"","motif_pos":-1,"best_pos":4,"similarity":0.389},{"voice":2,"pitch":86,"start":136.5625,"duration":0.0625,"velocity":63,"measure":69,"beat":2.125,"subject_pos":-1,"motif":"","motif_pos":-1,"best_pos":3,"similarity":0.368},{"voice":2,"pitch":81,"start":136.625,"duration":0.0625,"velocity":66,"measure":69,"beat":2.25,"subject_pos":-1,"motif":"","motif_pos":-1,"best_pos":1,"similarity":0.436},{"voice":6,"pitch":80,"start":136.625,"duration":0.125,"velocity":85,"measure":69,"beat":2.25,"subject_pos":-1,"motif":"","motif_pos":-1,"best_pos":5,"similarity":0.55},{"voice":2,"pitch":77,"start":136.6875,"duration":0.0625,"velocity":69,"measure":69,"beat":2.375,"subject_pos":-1,"motif":"","motif_pos":-1,"best_pos":2,"similarity":0.586},{"voice":2,"pitch":74,"start":136.75,"duration":0.0625,"velocity":72,"measure":69,"beat":2.5,"subject_pos":-1,"motif":"","motif_pos":-1,"best_pos":3,"similarity":0.457},{"voice":6,"pitch":82,"start":136.75,"duration":0.125,"velocity":105,"measure":69,"beat":2.5,"subject_pos":-1,"motif":"","motif_pos":-1,"best_pos":6,"similarity":0.421},{"voice":2,"pitch":69,"start":136.8125,"duration":0.0625,"velocity":75,"measure":69,"beat":2.625,"subject_pos":-1,"motif":"","motif_pos":-1,"best_pos":1,"similarity":0.464},{"voice":2,"pitch":65,"start":136.875,"duration":0.0625,"velocity":78,"measure":69,"beat":2.75,"subject_pos":-1,"motif":"","motif_pos":-1,"best_pos":2,"similarity":0.661},{"voice":6,"pitch":80,"start":136.875,"duration":0.125,"velocity":85,"measure":69,"beat":2.75,"subject_pos":-1,"motif":"","motif_pos":-1,"best_pos":3,"similarity":0.443},{"voice":2,"pitch":62,"start":136.9375,"duration":0.0625,"velocity":81,"measure":69,"beat":2.875,"subject_pos":-1,"motif":"","motif_pos":-1,"best_pos":3,"similarity":0.625},{"voice":2,"pitch":62,"start":137.0,"duration":0.0625,"velocity":60,"measure":69,"beat":3.0,"subject_pos":-1,"motif":"","motif_pos":-1,"best_pos":4,"similarity":0.471},{"voice":3,"pitch":28,"start":137.0,"duration":0.25,"velocity":105,"measure":69,"beat":3.0,"subject_pos":-1,"motif":"","motif_pos":-1,"best_pos":4,"similarity":0.357},{"voice":5,"pitch":62,"start":137.0,"duration":0.25,"velocity":85,"measure":69,"beat":3.0,"subject_pos":-1,"motif":"","motif_pos":-1,"best_pos":5,"similarity":0.157},{"voice":5,"pitch":65,"start":137.0,"duration":0.25,"velocity":85,"measure":69,"beat":3.0,"subject_pos":-1,"motif":"","motif_pos":-1,"best_pos":6,"similarity":0.171},{"voice":5,"pitch":69,"start":137.0,"duration":0.25,"velocity":85,"measure":69,"beat":3.0,"subject_pos":-1,"motif":"","motif_pos":-1,"best_pos":0,"similarity":0.286},{"voice":5,"pitch":74,"start":137.0,"duration":0.25,"velocity":85,"measure":69,"beat":3.0,"subject_pos":-1,"motif":"","motif_pos":-1,"best_pos":1,"similarity":0.286},{"voice":5,"pitch":77,"start":137.0,"duration":0.25,"velocity":85,"measure":69,"beat":3.0,"subject_pos":-1,"motif":"","motif_pos":-1,"best_pos":6,"similarity":0.186},{"voice":5,"pitch":81,"start":137.0,"duration":0.25,"velocity":85,"measure":69,"beat":3.0,"subject_pos":-1,"motif":"","motif_pos":-1,"best_pos":1,"similarity":0.143},{"voice":6,"pitch":80,"start":137.0,"duration":0.125,"velocity":60,"measure":69,"beat":3.0,"subject_pos":-1,"motif":"","motif_pos":-1,"best_pos":4,"similarity":0.514},{"voice":7,"pitch":36,"start":137.0,"duration":0.25,"velocity":115,"measure":69,"beat":3.0,"subject_pos":-1,"motif":"","motif_pos":-1,"best_pos":4,"similarity":0.389},{"voice":2,"pitch":65,"start":137.0625,"duration":0.0625,"velocity":63,"measure":69,"beat":3.125,"subject_pos":-1,"motif":"","motif_pos":-1,"best_pos":5,"similarity":0.3},{"voice":2,"pitch":69,"start":137.125,"duration":0.0625,"velocity":66,"measure":69,"beat":3.25,"subject_pos":-1,"motif":"","motif_pos":-1,"best_pos":0,"similarity":0.286},{"voice":6,"pitch":80,"start":137.125,"duration":0.125,"velocity":85,"measure":69,"beat":3.25,"subject_pos":-1,"motif":"","motif_pos":-1,"best_pos":5,"similarity":0.55},{"voice":2,"pitch":74,"start":137.1875,"duration":0.0625,"velocity":69,"measure":69,"beat":3.375,"subject_pos":-1,"motif":"","motif_pos":-1,"best_pos":1,"similarity":0.286},{"voice":2,"pitch":77,"start":137.25,"duration":0.0625,"velocity":72,"measure":69,"beat":3.5,"subject_pos":-1,"motif":"","motif_pos":-1,"best_pos":6,"similarity":0.186},{"voice":6,"pitch":82,"start":137.25,"duration":0.125,"velocity":105,"measure":69,"beat":3.5,"subject_pos":-1,"motif":"","motif_pos":-1,"best_pos":6,"similarity":0.421},{"voice":2,"pitch":81,"start":137.3125,"duration":0.0625,"velocity":75,"measure":69,"beat":3.625,"subject_pos":-1,"motif":"","motif_pos":-1,"best_pos":0,"similarity":0.293},{"voice":2,"pitch":86,"start":137.375,"duration":0.0625,"velocity":78,"measure":69,"beat":3.75,"subject_pos":-1,"motif":"","motif_pos":-1,"best_pos":1,"similarity":0.318},{"voice":6,"pitch":80,"start":137.375,"duration":0.125,"velocity":85,"measure":69,"beat":3.75,"subject_pos":-1,"motif":"","motif_pos":-1,"best_pos":3,"similarity":0.443},{"voice":2,"pitch":89,"start":137.4375,"duration":0.0625,"velocity":81,"measure":69,"beat":3.875,"subject_pos":-1,"motif":"","motif_pos":-1,"best_pos":6,"similarity":0.3},{"voice":2,"pitch":89,"start":137.5,"duration":0.0625,"velocity":60,"measure":69,"beat":4.0,"subject_pos":-1,"motif":"","motif_pos":-1,"best_pos":2,"similarity":0.407},{"voice":3,"pitch":28,"start":137.5,"duration":0.25,"velocity":105,"measure":69,"beat":4.0,"subject_pos":-1,"motif":"","motif_pos":-1,"best_pos":0,"similarity":0.329},{"voice":5,"pitch":62,"start":137.5,"duration":0.25,"velocity":85,"measure":69,"beat":4.0,"subject_pos":-1,"motif":"","motif_pos":-1,"best_pos":5,"similarity":0.157},{"voice":5,"pitch":65,"start":137.5,"duration":0.25,"velocity":85,"measure":69,"beat":4.0,"subject_pos":-1,"motif":"","motif_pos":-1,"best_pos":6,"similarity":0.171},{"voice":5,"pitch":69,"start":137.5,"duration":0.25,"velocity":85,"measure":69,"beat":4.0,"subject_pos":-1,"motif":"","motif_pos":-1,"best_pos":0,"similarity":0.286},{"voice":5,"pitch":74,"start":137.5,"duration":0.25,"velocity":85,"measure":69,"beat":4.0,"subject_pos":-1,"motif":"","motif_pos":-1,"best_pos":1,"similarity":0.286},{"voice":5,"pitch":77,"start":137.5,"duration":0.25,"velocity":85,"measure":69,"beat":4.0,"subject_pos":-1,"motif":"","motif_pos":-1,"best_pos":6,"similarity":0.186},{"voice":5,"pitch":81,"start":137.5,"duration":0.25,"velocity":85,"measure":69,"beat":4.0,"subject_pos":-1,"motif":"","motif_pos":-1,"best_pos":1,"similarity":0.143},{"voice":6,"pitch":80,"start":137.5,"duration":0.125,"velocity":60,"measure":69,"beat":4.0,"subject_pos":-1,"motif":"","motif_pos":-1,"best_pos":4,"similarity":0.514},{"voice":7,"pitch":36,"start":137.5,"duration":0.25,"velocity":115,"measure":69,"beat":4.0,"subject_pos":-1,"motif":"","motif_pos":-1,"best_pos":4,"similarity":0.389},{"voice":8,"pitch":74,"start":137.5,"duration":0.25,"velocity":100,"measure":69,"beat":4.0,"subject_pos":-1,"motif":"","motif_pos":-1,"best_pos":4,"similarity":0.389},{"voice":2,"pitch":86,"start":137.5625,"duration":0.0625,"velocity":63,"measure":69,"beat":4.125,"subject_pos":-1,"motif":"","motif_pos":-1,"best_pos":3,"similarity":0.368},{"voice":2,"pitch":81,"start":137.625,"duration":0.0625,"velocity":66,"measure":69,"beat":4.25,"subject_pos":-1,"motif":"","motif_pos":-1,"best_pos":1,"similarity":0.436},{"voice":6,"pitch":80,"start":137.625,"duration":0.125,"velocity":85,"measure":69,"beat":4.25,"subject_pos":-1,"motif":"","motif_pos":-1,"best_pos":5,"similarity":0.55},{"voice":2,"pitch":77,"start":137.6875,"duration":0.0625,"velocity":69,"measure":69,"beat":4.375,"subject_pos":-1,"motif":"","motif_pos":-1,"best_pos":2,"similarity":0.586},{"voice":2,"pitch":74,"start":137.75,"duration":0.0625,"velocity":72,"measure":69,"beat":4.5,"subject_pos":-1,"motif":"","motif_pos":-1,"best_pos":3,"similarity":0.457},{"voice":6,"pitch":82,"start":137.75,"duration":0.125,"velocity":105,"measure":69,"beat":4.5,"subject_pos":-1,"motif":"","motif_pos":-1,"best_pos":6,"similarity":0.421},{"voice":2,"pitch":69,"start":137.8125,"duration":0.0625,"velocity":75,"measure":69,"beat":4.625,"subject_pos":-1,"motif":"","motif_pos":-1,"best_pos":1,"similarity":0.429},{"voice":2,"pitch":65,"start":137.875,"duration":0.0625,"velocity":78,"measure":69,"beat":4.75,"subject_pos":-1,"motif":"","motif_pos":-1,"best_pos":2,"similarity":0.589},{"voice":6,"pitch":80,"start":137.875,"duration":0.125,"velocity":85,"measure":69,"beat":4.75,"subject_pos":-1,"motif":"","motif_pos":-1,"best_pos":3,"similarity":0.443},{"voice":2,"pitch":62,"start":137.9375,"duration":0.0625,"velocity":81,"measure":69,"beat":4.875,"subject_pos":-1,"motif":"","motif_pos":-1,"best_pos":3,"similarity":0.482},{"voice":2,"pitch":67,"start":138.0,"duration":0.0625,"velocity":60,"measure":70,"beat":1.0,"subject_pos":-1,"motif":"","motif_pos":-1,"best_pos":4,"similarity":0.329},{"voice":3,"pitch":33,"start":138.0,"duration":0.25,"velocity":105,"measure":70,"beat":1.0,"subject_pos":-1,"motif":"","motif_pos":-1,"best_pos":1,"similarity":0.407},{"voice":5,"pitch":55,"start":138.0,"duration":0.25,"velocity":85,"measure":70,"beat":1.0,"subject_pos":-1,"motif":"","motif_pos":-1,"best_pos":5,"similarity":0.157},{"voice":5,"pitch":58,"start":138.0,"duration":0.25,"velocity":85,"measure":70,"beat":1.0,"subject_pos":-1,"motif":"","motif_pos":-1,"best_pos":6,"similarity":0.171},{"voice":5,"pitch":62,"start":138.0,"duration":0.25,"velocity":85,"measure":70,"beat":1.0,"subject_pos":-1,"motif":"","motif_pos":-1,"best_pos":0,"similarity":0.286},{"voice":5,"pitch":67,"start":138.0,"duration":0.25,"velocity":85,"measure":70,"beat":1.0,"subject_pos":-1,"motif":"","motif_pos":-1,"best_pos":1,"similarity":0.286},{"voice":5,"pitch":70,"start":138.0,"duration":0.25,"velocity":85,"measure":70,"beat":1.0,"subject_pos":-1,"motif":"","motif_pos":-1,"best_pos":6,"similarity":0.186},{"voice":5,"pitch":74,"start":138.0,"duration":0.25,"velocity":85,"measure":70,"beat":1.0,"subject_pos":-1,"motif":"","motif_pos":-1,"best_pos":1,"similarity":0.143},{"voice":6,"pitch":80,"start":138.0,"duration":0.125,"velocity":60,"measure":70,"beat":1.0,"subject_pos":-1,"motif":"","motif_pos":-1,"best_pos":4,"similarity":0.514},{"voice":7,"pitch":36,"start":138.0,"duration":0.25,"velocity":115,"measure":70,"beat":1.0,"subject_pos":-1,"motif":"","motif_pos":-1,"best_pos":4,"similarity":0.389},{"voice":2,"pitch":70,"start":138.0625,"duration":0.0625,"velocity":63,"measure":70,"beat":1.125,"subject_pos":-1,"motif":"","motif_pos":-1,"best_pos":5,"similarity":0.229},{"voice":2,"pitch":74,"start":138.125,"duration":0.0625,"velocity":66,"measure":70,"beat":1.25,"subject_pos":-1,"motif":"","motif_pos":-1,"best_pos":0,"similarity":0.286},{"voice":6,"pitch":80,"start":138.125,"duration":0.125,"velocity":85,"measure":70,"beat":1.25,"subject_pos":-1,"motif":"","motif_pos":-1,"best_pos":5,"similarity":0.55},{"voice":2,"pitch":79,"start":138.1875,"duration":0.0625,"velocity":69,"measure":70,"beat":1.375,"subject_pos":-1,"motif":"","motif_pos":-1,"best_pos":1,"similarity":0.286},{"voice":2,"pitch":82,"start":138.25,"duration":0.0625,"velocity":72,"measure":70,"beat":1.5,"subject_pos":-1,"motif":"","motif_pos":-1,"best_pos":6,"similarity":0.186},{"voice":6,"pitch":82,"start":138.25,"duration":0.125,"velocity":105,"measure":70,"beat":1.5,"subject_pos":-1,"motif":"","motif_pos":-1,"best_pos":6,"similarity":0.421},{"voice":2,"pitch":86,"start":138.3125,"duration":0.0625,"velocity":75,"measure":70,"beat":1.625,"subject_pos":-1,"motif":"","motif_pos":-1,"best_pos":0,"similarity":0.293},{"voice":2,"pitch":91,"start":138.375,"duration":0.0625,"velocity":78,"measure":70,"beat":1.75,"subject_pos":-1,"motif":"","motif_pos":-1,"best_pos":1,"similarity":0.318},{"voice":6,"pitch":80,"start":138.375,"duration":0.125,"velocity":85,"measure":70,"beat":1.75,"subject_pos":-1,"motif":"","motif_pos":-1,"best_pos":3,"similarity":0.443},{"voice":2,"pitch":94,"start":138.4375,"duration":0.0625,"velocity":81,"measure":70,"beat":1.875,"subject_pos":-1,"motif":"","motif_pos":-1,"best_pos":6,"similarity":0.3},{"voice":2,"pitch":94,"start":138.5,"duration":0.0625,"velocity":60,"measure":70,"beat":2.0,"subject_pos":-1,"motif":"","motif_pos":-1,"best_pos":2,"similarity":0.407},{"voice":3,"pitch":33,"start":138.5,"duration":0.25,"velocity":105,"measure":70,"beat":2.0,"subject_pos":-1,"motif":"","motif_pos":-1,"best_pos":4,"similarity":0.357},{"voice":5,"pitch":55,"start":138.5,"duration":0.25,"velocity":85,"measure":70,"beat":2.0,"subject_pos":-1,"motif":"","motif_pos":-1,"best_pos":5,"similarity":0.157},{"voice":5,"pitch":58,"start":138.5,"duration":0.25,"velocity":85,"measure":70,"beat":2.0,"subject_pos":-1,"motif":"","motif_pos":-1,"best_pos":6,"similarity":0.171},{"voice":5,"pitch":62,"start":138.5,"duration":0.25,"velocity":85,"measure":70,"beat":2.0,"subject_pos":-1,"motif":"","motif_pos":-1,"best_pos":0,"similarity":0.286},{"voice":5,"pitch":67,"start":138.5,"duration":0.25,"velocity":85,"measure":70,"beat":2.0,"subject_pos":-1,"motif":"","motif_pos":-1,"best_pos":1,"similarity":0.286},{"voice":5,"pitch":70,"start":138.5,"duration":0.25,"velocity":85,"measure":70,"beat":2.0,"subject_pos":-1,"motif":"","motif_pos":-1,"best_pos":6,"similarity":0.186},{"voice":5,"pitch":74,"start":138.5,"duration":0.25,"velocity":85,"measure":70,"beat":2.0,"subject_pos":-1,"motif":"","motif_pos":-1,"best_pos":1,"similarity":0.143},{"voice":6,"pitch":80,"start":138.5,"duration":0.125,"velocity":60,"measure":70,"beat":2.0,"subject_pos":-1,"motif":"","motif_pos":-1,"best_pos":4,"similarity":0.514},{"voice":7,"pitch":36,"start":138.5,"duration":0.25,"velocity":115,"measure":70,"beat":2.0,"subject_pos":-1,"motif":"","motif_pos":-1,"best_pos":4,"similarity":0.389},{"voice":8,"pitch":74,"start":138.5,"duration":0.25,"velocity":100,"measure":70,"beat":2.0,"subject_pos":-1,"motif":"","motif_pos":-1,"best_pos":4,"similarity":0.389},{"voice":2,"pitch":91,"start":138.5625,"duration":0.0625,"velocity":63,"measure":70,"beat":2.125,"subject_pos":-1,"motif":"","motif_pos":-1,"best_pos":3,"similarity":0.368},{"voice":2,"pitch":86,"start":138.625,"duration":0.0625,"velocity":66,"measure":70,"beat":2.25,"subject_pos":-1,"motif":"","motif_pos":-1,"best_pos":1,"similarity":0.436},{"voice":6,"pitch":80,"start":138.625,"duration":0.125,"velocity":85,"measure":70,"beat":2.25,"subject_pos":-1,"motif":"","motif_pos":-1,"best_pos":5,"similarity":0.55},{"voice":2,"pitch":82,"start":138.6875,"duration":0.0625,"velocity":69,"measure":70,"beat":2.375,"subject_pos":-1,"motif":"","motif_pos":-1,"best_pos":2,"similarity":0.586},{"voice":2,"pitch":79,"start":138.75,"duration":0.0625,"velocity":72,"measure":70,"beat":2.5,"subject_pos":-1,"motif":"","motif_pos":-1,"best_pos":3,"similarity":0.457},{"voice":6,"pitch":82,"start":138.75,"duration":0.125,"velocity":105,"measure":70,"beat":2.5,"subject_pos":-1,"motif":"","motif_pos":-1,"best_pos":6,"similarity":0.421},{"voice":2,"pitch":74,"start":138.8125,"duration":0.0625,"velocity":75,"measure":70,"beat":2.625,"subject_pos":-1,"motif":"","motif_pos":-1,"best_pos":1,"similarity":0.464},{"voice":2,"pitch":70,"start":138.875,"duration":0.0625,"velocity":78,"measure":70,"beat":2.75,"subject_pos":-1,"motif":"","motif_pos":-1,"best_pos":2,"similarity":0.661},{"voice":6,"pitch":80,"start":138.875,"duration":0.125,"velocity":85,"measure":70,"beat":2.75,"subject_pos":-1,"motif":"","motif_pos":-1,"best_pos":3,"similarity":0.443},{"voice":2,"pitch":67,"start":138.9375,"duration":0.0625,"velocity":81,"measure":70,"beat":2.875,"subject_pos":-1,"motif":"","motif_pos":-1,"best_pos":3,"similarity":0.625},{"voice":2,"pitch":67,"start":139.0,"duration":0.0625,"velocity":60,"measure":70,"beat":3.0,"subject_pos":-1,"motif":"","motif_pos":-1,"best_pos":4,"similarity":0.471},{"voice":3,"pitch":33,"start":139.0,"duration":0.25,"velocity":105,"measure":70,"beat":3.0,"subject_pos":-1,"motif":"","motif_pos":-1,"best_pos":4,"similarity":0.407},{"voice":5,"pitch":55,"start":139.0,"duration":0.25,"velocity":85,"measure":70,"beat":3.0,"subject_pos":-1,"motif":"","motif_pos":-1,"best_pos":5,"similarity":0.157},{"voice":5,"pitch":58,"start":139.0,"duration":0.25,"velocity":85,"measure":70,"beat":3.0,"subject_pos":-1,"motif":"","motif_pos":-1,"best_pos":6,"similarity":0.171},{"voice":5,"pitch":62,"start":139.0,"duration":0.25,"velocity":85,"measure":70,"beat":3.0,"subject_pos":-1,"motif":"","motif_pos":-1,"best_pos":0,"similarity":0.286},{"voice":5,"pitch":67,"start":139.0,"duration":0.25,"velocity":85,"measure":70,"beat":3.0,"subject_pos":-1,"motif":"","motif_pos":-1,"best_pos":1,"similarity":0.286},{"voice":5,"pitch":70,"start":139.0,"duration":0.25,"velocity":85,"measure":70,"beat":3.0,"subject_pos":-1,"motif":"","motif_pos":-1,"best_pos":6,"similarity":0.186},{"voice":5,"pitch":74,"start":139.0,"duration":0.25,"velocity":85,"measure":70,"beat":3.0,"subject_pos":-1,"motif":"","motif_pos":-1,"best_pos":1,"similarity":0.143},{"voice":6,"pitch":80,"start":139.0,"duration":0.125,"velocity":60,"measure":70,"beat":3.0,"subject_pos":-1,"motif":"","motif_pos":-1,"best_pos":4,"similarity":0.514},{"voice":7,"pitch":36,"start":139.0,"duration":0.25,"velocity":115,"measure":70,"beat":3.0,"subject_pos":-1,"motif":"","motif_pos":-1,"best_pos":4,"similarity":0.389},{"voice":2,"pitch":70,"start":139.0625,"duration":0.0625,"velocity":63,"measure":70,"beat":3.125,"subject_pos":-1,"motif":"","motif_pos":-1,"best_pos":5,"similarity":0.3},{"voice":2,"pitch":74,"start":139.125,"duration":0.0625,"velocity":66,"measure":70,"beat":3.25,"subject_pos":-1,"motif":"","motif_pos":-1,"best_pos":0,"similarity":0.286},{"voice":6,"pitch":80,"start":139.125,"duration":0.125,"velocity":85,"measure":70,"beat":3.25,"subject_pos":-1,"motif":"","motif_pos":-1,"best_pos":5,"similarity":0.55},{"voice":2,"pitch":79,"start":139.1875,"duration":0.0625,"velocity":69,"measure":70,"beat":3.375,"subject_pos":-1,"motif":"","motif_pos":-1,"best_pos":1,"similarity":0.286},{"voice":2,"pitch":82,"start":139.25,"duration":0.0625,"velocity":72,"measure":70,"beat":3.5,"subject_pos":-1,"motif":"","motif_pos":-1,"best_pos":6,"similarity":0.186},{"voice":6,"pitch":82,"start":139.25,"duration":0.125,"velocity":105,"measure":70,"beat":3.5,"subject_pos":-1,"motif":"","motif_pos":-1,"best_pos":6,"similarity":0.421},{"voice":2,"pitch":86,"start":139.3125,"duration":0.0625,"velocity":75,"measure":70,"beat":3.625,"subject_pos":-1,"motif":"","motif_pos":-1,"best_pos":0,"similarity":0.293},{"voice":2,"pitch":91,"start":139.375,"duration":0.0625,"velocity":78,"measure":70,"beat":3.75,"subject_pos":-1,"motif":"","motif_pos":-1,"best_pos":1,"similarity":0.318},{"voice":6,"pitch":80,"start":139.375,"duration":0.125,"velocity":85,"measure":70,"beat":3.75,"subject_pos":-1,"motif":"","motif_pos":-1,"best_pos":3,"similarity":0.443},{"voice":2,"pitch":94,"start":139.4375,"duration":0.0625,"velocity":81,"measure":70,"beat":3.875,"subject_pos":-1,"motif":"","motif_pos":-1,"best_pos":6,"similarity":0.3},{"voice":2,"pitch":94,"start":139.5,"duration":0.0625,"velocity":60,"measure":70,"beat":4.0,"subject_pos":-1,"motif":"","motif_pos":-1,"best_pos":2,"similarity":0.407},{"voice":3,"pitch":33,"start":139.5,"duration":0.25,"velocity":105,"measure":70,"beat":4.0,"subject_pos":-1,"motif":"","motif_pos":-1,"best_pos":5,"similarity":0.436},{"voice":5,"pitch":55,"start":139.5,"duration":0.25,"velocity":85,"measure":70,"beat":4.0,"subject_pos":-1,"motif":"","motif_pos":-1,"best_pos":5,"similarity":0.157},{"voice":5,"pitch":58,"start":139.5,"duration":0.25,"velocity":85,"measure":70,"beat":4.0,"subject_pos":-1,"motif":"","motif_pos":-1,"best_pos":6,"similarity":0.171},{"voice":5,"pitch":62,"start":139.5,"duration":0.25,"velocity":85,"measure":70,"beat":4.0,"subject_pos":-1,"motif":"","motif_pos":-1,"best_pos":0,"similarity":0.286},{"voice":5,"pitch":67,"start":139.5,"duration":0.25,"velocity":85,"measure":70,"beat":4.0,"subject_pos":-1,"motif":"","motif_pos":-1,"best_pos":1,"similarity":0.286},{"voice":5,"pitch":70,"start":139.5,"duration":0.25,"velocity":85,"measure":70,"beat":4.0,"subject_pos":-1,"motif":"","motif_pos":-1,"best_pos":6,"similarity":0.186},{"voice":5,"pitch":74,"start":139.5,"duration":0.25,"velocity":85,"measure":70,"beat":4.0,"subject_pos":-1,"motif":"","motif_pos":-1,"best_pos":1,"similarity":0.15},{"voice":6,"pitch":80,"start":139.5,"duration":0.125,"velocity":60,"measure":70,"beat":4.0,"subject_pos":-1,"motif":"","motif_pos":-1,"best_pos":4,"similarity":0.514},{"voice":7,"pitch":36,"start":139.5,"duration":0.25,"velocity":115,"measure":70,"beat":4.0,"subject_pos":-1,"motif":"","motif_pos":-1,"best_pos":4,"similarity":0.389},{"voice":8,"pitch":74,"start":139.5,"duration":0.25,"velocity":100,"measure":70,"beat":4.0,"subject_pos":-1,"motif":"","motif_pos":-1,"best_pos":4,"similarity":0.389},{"voice":2,"pitch":91,"start":139.5625,"duration":0.0625,"velocity":63,"measure":70,"beat":4.125,"subject_pos":-1,"motif":"","motif_pos":-1,"best_pos":3,"similarity":0.368},{"voice":2,"pitch":86,"start":139.625,"duration":0.0625,"velocity":66,"measure":70,"beat":4.25,"subject_pos":-1,"motif":"","motif_pos":-1,"best_pos":1,"similarity":0.436},{"voice":6,"pitch":80,"start":139.625,"duration":0.125,"velocity":85,"measure":70,"beat":4.25,"subject_pos":-1,"motif":"","motif_pos":-1,"best_pos":5,"similarity":0.55},{"voice":2,"pitch":82,"start":139.6875,"duration":0.0625,"velocity":69,"measure":70,"beat":4.375,"subject_pos":-1,"motif":"","motif_pos":-1,"best_pos":2,"similarity":0.586},{"voice":2,"pitch":79,"start":139.75,"duration":0.0625,"velocity":72,"measure":70,"beat":4.5,"subject_pos":-1,"motif":"","motif_pos":-1,"best_pos":3,"similarity":0.457},{"voice":6,"pitch":82,"start":139.75,"duration":0.125,"velocity":105,"measure":70,"beat":4.5,"subject_pos":-1,"motif":"","motif_pos":-1,"best_pos":6,"similarity":0.421},{"voice":2,"pitch":74,"start":139.8125,"duration":0.0625,"velocity":75,"measure":70,"beat":4.625,"subject_pos":-1,"motif":"","motif_pos":-1,"best_pos":1,"similarity":0.436},{"voice":2,"pitch":70,"start":139.875,"duration":0.0625,"velocity":78,"measure":70,"beat":4.75,"subject_pos":-1,"motif":"","motif_pos":-1,"best_pos":2,"similarity":0.593},{"voice":6,"pitch":80,"start":139.875,"duration":0.125,"velocity":85,"measure":70,"beat":4.75,"subject_pos":-1,"motif":"","motif_pos":-1,"best_pos":3,"similarity":0.443},{"voice":2,"pitch":67,"start":139.9375,"duration":0.0625,"velocity":81,"measure":70,"beat":4.875,"subject_pos":-1,"motif":"","motif_pos":-1,"best_pos":3,"similarity":0.507},{"voice":2,"pitch":70,"start":140.0,"duration":0.0625,"velocity":60,"measure":71,"beat":1.0,"subject_pos":-1,"motif":"","motif_pos":-1,"best_pos":4,"similarity":0.35},{"voice":3,"pitch":36,"start":140.0,"duration":0.25,"velocity":105,"measure":71,"beat":1.0,"subject_pos":-1,"motif":"","motif_pos":-1,"best_pos":6,"similarity":0.393},{"voice":5,"pitch":58,"start":140.0,"duration":0.25,"velocity":85,"measure":71,"beat":1.0,"subject_pos":-1,"motif":"","motif_pos":-1,"best_pos":0,"similarity":0.143},{"voice":5,"pitch":62,"start":140.0,"duration":0.25,"velocity":85,"measure":71,"beat":1.0,"subject_pos":-1,"motif":"","motif_pos":-1,"best_pos":5,"similarity":0.186},{"voice":5,"pitch":65,"start":140.0,"duration":0.25,"velocity":85,"measure":71,"beat":1.0,"subject_pos":-1,"motif":"","motif_pos":-1,"best_pos":0,"similarity":0.286},{"voice":5,"pitch":70,"start":140.0,"duration":0.25,"velocity":85,"measure":71,"beat":1.0,"subject_pos":-1,"motif":"","motif_pos":-1,"best_pos":1,"similarity":0.286},{"voice":5,"pitch":74,"start":140.0,"duration":0.25,"velocity":85,"measure":71,"beat":1.0,"subject_pos":-1,"motif":"","motif_pos":-1,"best_pos":5,"similarity":0.171},{"voice":5,"pitch":77,"start":140.0,"duration":0.25,"velocity":85,"measure":71,"beat":1.0,"subject_pos":-1,"motif":"","motif_pos":-1,"best_pos":6,"similarity":0.157},{"voice":6,"pitch":80,"start":140.0,"duration":0.125,"velocity":60,"measure":71,"beat":1.0,"subject_pos":-1,"motif":"","motif_pos":-1,"best_pos":4,"similarity":0.514},{"voice":7,"pitch":36,"start":140.0,"duration":0.25,"velocity":115,"measure":71,"beat":1.0,"subject_pos":-1,"motif":"","motif_pos":-1,"best_pos":4,"similarity":0.389},{"voice":2,"pitch":74,"start":140.0625,"duration":0.0625,"velocity":63,"measure":71,"beat":1.125,"subject_pos":-1,"motif":"","motif_pos":-1,"best_pos":5,"similarity":0.271},{"voice":2,"pitch":77,"start":140.125,"duration":0.0625,"velocity":66,"measure":71,"beat":1.25,"subject_pos":-1,"motif":"","motif_pos":-1,"best_pos":0,"similarity":0.286},{"voice":6,"pitch":80,"start":140.125,"duration":0.125,"velocity":85,"measure":71,"beat":1.25,"subject_pos":-1,"motif":"","motif_pos":-1,"best_pos":5,"similarity":0.55},{"voice":2,"pitch":82,"start":140.1875,"duration":0.0625,"velocity":69,"measure":71,"beat":1.375,"subject_pos":-1,"motif":"","motif_pos":-1,"best_pos":1,"similarity":0.286},{"voice":2,"pitch":86,"start":140.25,"duration":0.0625,"velocity":72,"measure":71,"beat":1.5,"subject_pos":-1,"motif":"","motif_pos":-1,"best_pos":5,"similarity":0.186},{"voice":6,"pitch":82,"start":140.25,"duration":0.125,"velocity":105,"measure":71,"beat":1.5,"subject_pos":-1,"motif":"","motif_pos":-1,"best_pos":6,"similarity":0.421},{"voice":2,"pitch":89,"start":140.3125,"duration":0.0625,"velocity":75,"measure":71,"beat":1.625,"subject_pos":-1,"motif":"","motif_pos":-1,"best_pos":0,"similarity":0.293},{"voice":2,"pitch":94,"start":140.375,"duration":0.0625,"velocity":78,"measure":71,"beat":1.75,"subject_pos":-1,"motif":"","motif_pos":-1,"best_pos":1,"similarity":0.307},{"voice":6,"pitch":80,"start":140.375,"duration":0.125,"velocity":85,"measure":71,"beat":1.75,"subject_pos":-1,"motif":"","motif_pos":-1,"best_pos":3,"similarity":0.443},{"voice":2,"pitch":98,"start":140.4375,"duration":0.0625,"velocity":81,"measure":71,"beat":1.875,"subject_pos":-1,"motif":"","motif_pos":-1,"best_pos":1,"similarity":0.293},{"voice":2,"pitch":98,"start":140.5,"duration":0.0625,"velocity":60,"measure":71,"beat":2.0,"subject_pos":-1,"motif":"","motif_pos":-1,"best_pos":1,"similarity":0.339},{"voice":3,"pitch":36,"start":140.5,"duration":0.25,"velocity":105,"measure":71,"beat":2.0,"subject_pos":-1,"motif":"","motif_pos":-1,"best_pos":4,"similarity":0.339},{"voice":5,"pitch":58,"start":140.5,"duration":0.25,"velocity":85,"measure":71,"beat":2.0,"subject_pos":-1,"motif":"","motif_pos":-1,"best_pos":0,"similarity":0.143},{"voice":5,"pitch":62,"start":140.5,"duration":0.25,"velocity":85,"measure":71,"beat":2.0,"subject_pos":-1,"motif":"","motif_pos":-1,"best_pos":5,"similarity":0.186},{"voice":5,"pitch":65,"start":140.5,"duration":0.25,"velocity":85,"measure":71,"beat":2.0,"subject_pos":-1,"motif":"","motif_pos":-1,"best_pos":0,"similarity":0.286},{"voice":5,"pitch":70,"start":140.5,"duration":0.25,"velocity":85,"measure":71,"beat":2.0,"subject_pos":-1,"motif":"","motif_pos":-1,"best_pos":1,"similarity":0.286},{"voice":5,"pitch":74,"start":140.5,"duration":0.25,"velocity":85,"measure":71,"beat":2.0,"subject_pos":-1,"motif":"","motif_pos":-1,"best_pos":5,"similarity":0.171},{"voice":5,"pitch":77,"start":140.5,"duration":0.25,"velocity":85,"measure":71,"beat":2.0,"subject_pos":-1,"motif":"","motif_pos":-1,"best_pos":6,"similarity":0.157},{"voice":6,"pitch":80,"start":140.5,"duration":0.125,"velocity":60,"measure":71,"beat":2.0,"subject_pos":-1,"motif":"","motif_pos":-1,"best_pos":4,"similarity":0.514},{"voice":7,"pitch":36,"start":140.5,"duration":0.25,"velocity":115,"measure":71,"beat":2.0,"subject_pos":-1,"motif":"","motif_pos":-1,"best_pos":4,"similarity":0.389},{"voice":8,"pitch":74,"start":140.5,"duration":0.25,"velocity":100,"measure":71,"beat":2.0,"subject_pos":-1,"motif":"","motif_pos":-1,"best_pos":4,"similarity":0.389},{"voice":2,"pitch":94,"start":140.5625,"duration":0.0625,"velocity":63,"measure":71,"beat":2.125,"subject_pos":-1,"motif":"","motif_pos":-1,"best_pos":2,"similarity":0.393},{"voice":2,"pitch":89,"start":140.625,"duration":0.0625,"velocity":66,"measure":71,"beat":2.25,"subject_pos":-1,"motif":"","motif_pos":-1,"best_pos":2,"similarity":0.443},{"voice":6,"pitch":80,"start":140.625,"duration":0.125,"velocity":85,"measure":71,"beat":2.25,"subject_pos":-1,"motif":"","motif_pos":-1,"best_pos":5,"similarity":0.55},{"voice":2,"pitch":86,"start":140.6875,"duration":0.0625,"velocity":69,"measure":71,"beat":2.375,"subject_pos":-1,"motif":"","motif_pos":-1,"best_pos":3,"similarity":0.386},{"voice":2,"pitch":82,"start":140.75,"duration":0.0625,"velocity":72,"measure":71,"beat":2.5,"subject_pos":-1,"motif":"","motif_pos":-1,"best_pos":2,"similarity":0.393},{"voice":6,"pitch":82,"start":140.75,"duration":0.125,"velocity":105,"measure":71,"beat":2.5,"subject_pos":-1,"motif":"","motif_pos":-1,"best_pos":6,"similarity":0.421},{"voice":2,"pitch":77,"start":140.8125,"duration":0.0625,"velocity":75,"measure":71,"beat":2.625,"subject_pos":-1,"motif":"","motif_pos":-1,"best_pos":2,"similarity":0.479},{"voice":2,"pitch":74,"start":140.875,"duration":0.0625,"velocity":78,"measure":71,"beat":2.75,"subject_pos":-1,"motif":"","motif_pos":-1,"best_pos":3,"similarity":0.475},{"voice":6,"pitch":80,"start":140.875,"duration":0.125,"velocity":85,"measure":71,"beat":2.75,"subject_pos":-1,"motif":"","motif_pos":-1,"best_pos":3,"similarity":0.443},{"voice":2,"pitch":70,"start":140.9375,"duration":0.0625,"velocity":81,"measure":71,"beat":2.875,"subject_pos":-1,"motif":"","motif_pos":-1,"best_pos":3,"similarity":0.407},{"voice":2,"pitch":70,"start":141.0,"duration":0.0625,"velocity":60,"measure":71,"beat":3.0,"subject_pos":-1,"motif":"","motif_pos":-1,"best_pos":4,"similarity":0.357},{"voice":3,"pitch":36,"start":141.0,"duration":0.25,"velocity":105,"measure":71,"beat":3.0,"subject_pos":-1,"motif":"","motif_pos":-1,"best_pos":4,"similarity":0.336},{"voice":5,"pitch":58,"start":141.0,"duration":0.25,"velocity":85,"measure":71,"beat":3.0,"subject_pos":-1,"motif":"","motif_pos":-1,"best_pos":0,"similarity":0.143},{"voice":5,"pitch":62,"start":141.0,"duration":0.25,"velocity":85,"measure":71,"beat":3.0,"subject_pos":-1,"motif":"","motif_pos":-1,"best_pos":5,"similarity":0.186},{"voice":5,"pitch":65,"start":141.0,"duration":0.25,"velocity":85,"measure":71,"beat":3.0,"subject_pos":-1,"motif":"","motif_pos":-1,"best_pos":0,"similarity":0.286},{"voice":5,"pitch":70,"start":141.0,"duration":0.25,"velocity":85,"measure":71,"beat":3.0,"subject_pos":-1,"motif":"","motif_pos":-1,"best_pos":1,"similarity":0.286},{"voice":5,"pitch":74,"start":141.0,"duration":0.25,"velocity":85,"measure":71,"beat":3.0,"subject_pos":-1,"motif":"","motif_pos":-1,"best_pos":5,"similarity":0.171},{"voice":5,"pitch":77,"start":141.0,"duration":0.25,"velocity":85,"measure":71,"beat":3.0,"subject_pos":-1,"motif":"","motif_pos":-1,"best_pos":6,"similarity":0.157},{"voice":6,"pitch":80,"start":141.0,"duration":0.125,"velocity":60,"measure":71,"beat":3.0,"subject_pos":-1,"motif":"","motif_pos":-1,"best_pos":4,"similarity":0.514},{"voice":7,"pitch":36,"start":141.0,"duration":0.25,"velocity":115,"measure":71,"beat":3.0,"subject_pos":-1,"motif":"","motif_pos":-1,"best_pos":4,"similarity":0.389},{"voice":2,"pitch":74,"start":141.0625,"duration":0.0625,"velocity":63,"measure":71,"beat":3.125,"subject_pos":-1,"motif":"","motif_pos":-1,"best_pos":5,"similarity":0.293},{"voice":2,"pitch":77,"start":141.125,"duration":0.0625,"velocity":66,"measure":71,"beat":3.25,"subject_pos":-1,"motif":"","motif_pos":-1,"best_pos":0,"similarity":0.286},{"voice":6,"pitch":80,"start":141.125,"duration":0.125,"velocity":85,"measure":71,"beat":3.25,"subject_pos":-1,"motif":"","motif_pos":-1,"best_pos":5,"similarity":0.55},{"voice":2,"pitch":82,"start":141.1875,"duration":0.0625,"velocity":69,"measure":71,"beat":3.375,"subject_pos":-1,"motif":"","motif_pos":-1,"best_pos":1,"similarity":0.286},{"voice":2,"pitch":86,"start":141.25,"duration":0.0625,"velocity":72,"measure":71,"beat":3.5,"subject_pos":-1,"motif":"","motif_pos":-1,"best_pos":5,"similarity":0.186},{"voice":6,"pitch":82,"start":141.25,"duration":0.125,"velocity":105,"measure":71,"beat":3.5,"subject_pos":-1,"motif":"","motif_pos":-1,"best_pos":6,"similarity":0.421},{"voice":2,"pitch":89,"start":141.3125,"duration":0.0625,"velocity":75,"measure":71,"beat":3.625,"subject_pos":-1,"motif":"","motif_pos":-1,"best_pos":0,"similarity":0.293},{"voice":2,"pitch":94,"start":141.375,"duration":0.0625,"velocity":78,"measure":71,"beat":3.75,"subject_pos":-1,"motif":"","motif_pos":-1,"best_pos":1,"similarity":0.307},{"voice":6,"pitch":80,"start":141.375,"duration":0.125,"velocity":85,"measure":71,"beat":3.75,"subject_pos":-1,"motif":"","motif_pos":-1,"best_pos":3,"similarity":0.443},{"voice":2,"pitch":98,"start":141.4375,"duration":0.0625,"velocity":81,"measure":71,"beat":3.875,"subject_pos":-1,"motif":"","motif_pos":-1,"best_pos":1,"similarity":0.293},{"voice":2,"pitch":98,"start":141.5,"duration":0.0625,"velocity":60,"measure":71,"beat":4.0,"subject_pos":-1,"motif":"","motif_pos":-1,"best_pos":1,"similarity":0.339},{"voice":3,"pitch":36,"start":141.5,"duration":0.25,"velocity":105,"measure":71,"beat":4.0,"subject_pos":-1,"motif":"","motif_pos":-1,"best_pos":5,"similarity":0.293},{"voice":5,"pitch":58,"start":141.5,"duration":0.25,"velocity":85,"measure":71,"beat":4.0,"subject_pos":-1,"motif":"","motif_pos":-1,"best_pos":0,"similarity":0.143},{"voice":5,"pitch":62,"start":141.5,"duration":0.25,"velocity":85,"measure":71,"beat":4.0,"subject_pos":-1,"motif":"","motif_pos":-1,"best_pos":5,"similarity":0.186},{"voice":5,"pitch":65,"start":141.5,"duration":0.25,"velocity":85,"measure":71,"beat":4.0,"subject_pos":-1,"motif":"","motif_pos":-1,"best_pos":0,"similarity":0.286},{"voice":5,"pitch":70,"start":141.5,"duration":0.25,"velocity":85,"measure":71,"beat":4.0,"subject_pos":-1,"motif":"","motif_pos":-1,"best_pos":1,"similarity":0.286},{"voice":5,"pitch":74,"start":141.5,"duration":0.25,"velocity":85,"measure":71,"beat":4.0,"subject_pos":-1,"motif":"","motif_pos":-1,"best_pos":5,"similarity":0.171},{"voice":5,"pitch":77,"start":141.5,"duration":0.25,"velocity":85,"measure":71,"beat":4.0,"subject_pos":-1,"motif":"","motif_pos":-1,"best_pos":6,"similarity":0.157},{"voice":6,"pitch":80,"start":141.5,"duration":0.125,"velocity":60,"measure":71,"beat":4.0,"subject_pos":-1,"motif":"","motif_pos":-1,"best_pos":4,"similarity":0.514},{"voice":7,"pitch":36,"start":141.5,"duration":0.25,"velocity":115,"measure":71,"beat":4.0,"subject_pos":-1,"motif":"","motif_pos":-1,"best_pos":4,"similarity":0.389},{"voice":8,"pitch":74,"start":141.5,"duration":0.25,"velocity":100,"measure":71,"beat":4.0,"subject_pos":-1,"motif":"","motif_pos":-1,"best_pos":4,"similarity":0.389},{"voice":2,"pitch":94,"start":141.5625,"duration":0.0625,"velocity":63,"measure":71,"beat":4.125,"subject_pos":-1,"motif":"","motif_pos":-1,"best_pos":2,"similarity":0.393},{"voice":2,"pitch":89,"start":141.625,"duration":0.0625,"velocity":66,"measure":71,"beat":4.25,"subject_pos":-1,"motif":"","motif_pos":-1,"best_pos":2,"similarity":0.443},{"voice":6,"pitch":80,"start":141.625,"duration":0.125,"velocity":85,"measure":71,"beat":4.25,"subject_pos":-1,"motif":"","motif_pos":-1,"best_pos":5,"similarity":0.55},{"voice":2,"pitch":86,"start":141.6875,"duration":0.0625,"velocity":69,"measure":71,"beat":4.375,"subject_pos":-1,"motif":"","motif_pos":-1,"best_pos":3,"similarity":0.386},{"voice":2,"pitch":82,"start":141.75,"duration":0.0625,"velocity":72,"measure":71,"beat":4.5,"subject_pos":-1,"motif":"","motif_pos":-1,"best_pos":2,"similarity":0.393},{"voice":6,"pitch":82,"start":141.75,"duration":0.125,"velocity":105,"measure":71,"beat":4.5,"subject_pos":-1,"motif":"","motif_pos":-1,"best_pos":6,"similarity":0.421},{"voice":2,"pitch":77,"start":141.8125,"duration":0.0625,"velocity":75,"measure":71,"beat":4.625,"subject_pos":-1,"motif":"","motif_pos":-1,"best_pos":2,"similarity":0.443},{"voice":2,"pitch":74,"start":141.875,"duration":0.0625,"velocity":78,"measure":71,"beat":4.75,"subject_pos":-1,"motif":"","motif_pos":-1,"best_pos":3,"similarity":0.421},{"voice":6,"pitch":80,"start":141.875,"duration":0.125,"velocity":85,"measure":71,"beat":4.75,"subject_pos":-1,"motif":"","motif_pos":-1,"best_pos":3,"similarity":0.443},{"voice":2,"pitch":70,"start":141.9375,"duration":0.0625,"velocity":81,"measure":71,"beat":4.875,"subject_pos":-1,"motif":"","motif_pos":-1,"best_pos":2,"similarity":0.307},{"voice":2,"pitch":62,"start":142.0,"duration":0.0625,"velocity":60,"measure":72,"beat":1.0,"subject_pos":-1,"motif":"","motif_pos":-1,"best_pos":5,"similarity":0.243},{"voice":3,"pitch":28,"start":142.0,"duration":0.25,"velocity":105,"measure":72,"beat":1.0,"subject_pos":-1,"motif":"","motif_pos":-1,"best_pos":3,"similarity":0.268},{"voice":5,"pitch":62,"start":142.0,"duration":0.25,"velocity":85,"measure":72,"beat":1.0,"subject_pos":-1,"motif":"","motif_pos":-1,"best_pos":5,"similarity":0.171},{"voice":5,"pitch":65,"start":142.0,"duration":0.25,"velocity":85,"measure":72,"beat":1.0,"subject_pos":-1,"motif":"","motif_pos":-1,"best_pos":6,"similarity":0.179},{"voice":5,"pitch":69,"start":142.0,"duration":0.25,"velocity":85,"measure":72,"beat":1.0,"subject_pos":-1,"motif":"","motif_pos":-1,"best_pos":0,"similarity":0.286},{"voice":5,"pitch":74,"start":142.0,"duration":0.25,"velocity":85,"measure":72,"beat":1.0,"subject_pos":-1,"motif":"","motif_pos":-1,"best_pos":1,"similarity":0.286},{"voice":5,"pitch":77,"start":142.0,"duration":0.25,"velocity":85,"measure":72,"beat":1.0,"subject_pos":-1,"motif":"","motif_pos":-1,"best_pos":6,"similarity":0.186},{"voice":5,"pitch":81,"start":142.0,"duration":0.25,"velocity":85,"measure":72,"beat":1.0,"subject_pos":-1,"motif":"","motif_pos":-1,"best_pos":1,"similarity":0.143},{"voice":6,"pitch":80,"start":142.0,"duration":0.125,"velocity":60,"measure":72,"beat":1.0,"subject_pos":-1,"motif":"","motif_pos":-1,"best_pos":4,"similarity":0.514},{"voice":7,"pitch":36,"start":142.0,"duration":0.25,"velocity":115,"measure":72,"beat":1.0,"subject_pos":-1,"motif":"","motif_pos":-1,"best_pos":4,"similarity":0.389},{"voice":2,"pitch":65,"start":142.0625,"duration":0.0625,"velocity":63,"measure":72,"beat":1.125,"subject_pos":-1,"motif":"","motif_pos":-1,"best_pos":5,"similarity":0.193},{"voice":2,"pitch":69,"start":142.125,"duration":0.0625,"velocity":66,"measure":72,"beat":1.25,"subject_pos":-1,"motif":"","motif_pos":-1,"best_pos":0,"similarity":0.286},{"voice":6,"pitch":80,"start":142.125,"duration":0.125,"velocity":85,"measure":72,"beat":1.25,"subject_pos":-1,"motif":"","motif_pos":-1,"best_pos":5,"similarity":0.55},{"voice":2,"pitch":74,"start":142.1875,"duration":0.0625,"velocity":69,"measure":72,"beat":1.375,"subject_pos":-1,"motif":"","motif_pos":-1,"best_pos":1,"similarity":0.286},{"voice":2,"pitch":77,"start":142.25,"duration":0.0625,"velocity":72,"measure":72,"beat":1.5,"subject_pos":-1,"motif":"","motif_pos":-1,"best_pos":6,"similarity":0.186},{"voice":6,"pitch":82,"start":142.25,"duration":0.125,"velocity":105,"measure":72,"beat":1.5,"subject_pos":-1,"motif":"","motif_pos":-1,"best_pos":6,"similarity":0.421},{"voice":2,"pitch":81,"start":142.3125,"duration":0.0625,"velocity":75,"measure":72,"beat":1.625,"subject_pos":-1,"motif":"","motif_pos":-1,"best_pos":0,"similarity":0.293},{"voice":2,"pitch":86,"start":142.375,"duration":0.0625,"velocity":78,"measure":72,"beat":1.75,"subject_pos":-1,"motif":"","motif_pos":-1,"best_pos":1,"similarity":0.318},{"voice":6,"pitch":80,"start":142.375,"duration":0.125,"velocity":85,"measure":72,"beat":1.75,"subject_pos":-1,"motif":"","motif_pos":-1,"best_pos":3,"similarity":0.443},{"voice":2,"pitch":89,"start":142.4375,"duration":0.0625,"velocity":81,"measure":72,"beat":1.875,"subject_pos":-1,"motif":"","motif_pos":-1,"best_pos":6,"similarity":0.3},{"voice":2,"pitch":89,"start":142.5,"duration":0.0625,"velocity":60,"measure":72,"beat":2.0,"subject_pos":-1,"motif":"","motif_pos":-1,"best_pos":2,"similarity":0.407},{"voice":3,"pitch":28,"start":142.5,"duration":0.25,"velocity":105,"measure":72,"beat":2.0,"subject_pos":-1,"motif":"","motif_pos":-1,"best_pos":4,"similarity":0.375},{"voice":5,"pitch":62,"start":142.5,"duration":0.25,"velocity":85,"measure":72,"beat":2.0,"subject_pos":-1,"motif":"","motif_pos":-1,"best_pos":5,"similarity":0.157},{"voice":5,"pitch":65,"start":142.5,"duration":0.25,"velocity":85,"measure":72,"beat":2.0,"subject_pos":-1,"motif":"","motif_pos":-1,"best_pos":6,"similarity":0.171},{"voice":5,"pitch":69,"start":142.5,"duration":0.25,"velocity":85,"measure":72,"beat":2.0,"subject_pos":-1,"motif":"","motif_pos":-1,"best_pos":0,"similarity":0.286},{"voice":5,"pitch":74,"start":142.5,"duration":0.25,"velocity":85,"measure":72,"beat":2.0,"subject_pos":-1,"motif":"","motif_pos":-1,"best_pos":1,"similarity":0.286},{"voice":5,"pitch":77,"start":142.5,"duration":0.25,"velocity":85,"measure":72,"beat":2.0,"subject_pos":-1,"motif":"","motif_pos":-1,"best_pos":6,"similarity":0.186},{"voice":5,"pitch":81,"start":142.5,"duration":0.25,"velocity":85,"measure":72,"beat":2.0,"subject_pos":-1,"motif":"","motif_pos":-1,"best_pos":1,"similarity":0.143},{"voice":6,"pitch":80,"start":142.5,"duration":0.125,"velocity":60,"measure":72,"beat":2.0,"subject_pos":-1,"motif":"","motif_pos":-1,"best_pos":4,"similarity":0.514},{"voice":7,"pitch":36,"start":142.5,"duration":0.25,"velocity":115,"measure":72,"beat":2.0,"subject_pos":-1,"motif":"","motif_pos":-1,"best_pos":4,"similarity":0.389},{"voice":8,"pitch":74,"start":142.5,"duration":0.25,"velocity":100,"measure":72,"beat":2.0,"subject_pos":-1,"motif":"","motif_pos":-1,"best_pos":4,"similarity":0.389},{"voice":2,"pitch":86,"start":142.5625,"duration":0.0625,"velocity":63,"measure":72,"beat":2.125,"subject_pos":-1,"motif":"","motif_pos":-1,"best_pos":3,"similarity":0.368},{"voice":2,"pitch":81,"start":142.625,"duration":0.0625,"velocity":66,"measure":72,"beat":2.25,"subject_pos":-1,"motif":"","motif_pos":-1,"best_pos":1,"similarity":0.436},{"voice":6,"pitch":80,"start":142.625,"duration":0.125,"velocity":85,"measure":72,"beat":2.25,"subject_pos":-1,"motif":"","motif_pos":-1,"best_pos":5,"similarity":0.55},{"voice":2,"pitch":77,"start":142.6875,"duration":0.0625,"velocity":69,"measure":72,"beat":2.375,"subject_pos":-1,"motif":"","motif_pos":-1,"best_pos":2,"similarity":0.586},{"voice":2,"pitch":74,"start":142.75,"duration":0.0625,"velocity":72,"measure":72,"beat":2.5,"subject_pos":-1,"motif":"","motif_pos":-1,"best_pos":3,"similarity":0.457},{"voice":6,"pitch":82,"start":142.75,"duration":0.125,"velocity":105,"measure":72,"beat":2.5,"subject_pos":-1,"motif":"","motif_pos":-1,"best_pos":6,"similarity":0.421},{"voice":2,"pitch":69,"start":142.8125,"duration":0.0625,"velocity":75,"measure":72,"beat":2.625,"subject_pos":-1,"motif":"","motif_pos":-1,"best_pos":1,"similarity":0.464},{"voice":2,"pitch":65,"start":142.875,"duration":0.0625,"velocity":78,"measure":72,"beat":2.75,"subject_pos":-1,"motif":"","motif_pos":-1,"best_pos":2,"similarity":0.661},{"voice":6,"pitch":80,"start":142.875,"duration":0.125,"velocity":85,"measure":72,"beat":2.75,"subject_pos":-1,"motif":"","motif_pos":-1,"best_pos":3,"similarity":0.443},{"voice":2,"pitch":62,"start":142.9375,"duration":0.0625,"velocity":81,"measure":72,"beat":2.875,"subject_pos":-1,"motif":"","motif_pos":-1,"best_pos":3,"similarity":0.625},{"voice":2,"pitch":62,"start":143.0,"duration":0.0625,"velocity":60,"measure":72,"beat":3.0,"subject_pos":-1,"motif":"","motif_pos":-1,"best_pos":4,"similarity":0.471},{"voice":3,"pitch":28,"start":143.0,"duration":0.25,"velocity":105,"measure":72,"beat":3.0,"subject_pos":-1,"motif":"","motif_pos":-1,"best_pos":4,"similarity":0.361},{"voice":5,"pitch":62,"start":143.0,"duration":0.25,"velocity":85,"measure":72,"beat":3.0,"subject_pos":-1,"motif":"","motif_pos":-1,"best_pos":5,"similarity":0.157},{"voice":5,"pitch":65,"start":143.0,"duration":0.25,"velocity":85,"measure":72,"beat":3.0,"subject_pos":-1,"motif":"","motif_pos":-1,"best_pos":6,"similarity":0.171},{"voice":5,"pitch":69,"start":143.0,"duration":0.25,"velocity":85,"measure":72,"beat":3.0,"subject_pos":-1,"motif":"","motif_pos":-1,"best_pos":0,"similarity":0.286},{"voice":5,"pitch":74,"start":143.0,"duration":0.25,"velocity":85,"measure":72,"beat":3.0,"subject_pos":-1,"motif":"","motif_pos":-1,"best_pos":1,"similarity":0.286},{"voice":5,"pitch":77,"start":143.0,"duration":0.25,"velocity":85,"measure":72,"beat":3.0,"subject_pos":-1,"motif":"","motif_pos":-1,"best_pos":6,"similarity":0.186},{"voice":5,"pitch":81,"start":143.0,"duration":0.25,"velocity":85,"measure":72,"beat":3.0,"subject_pos":-1,"motif":"","motif_pos":-1,"best_pos":1,"similarity":0.143},{"voice":6,"pitch":80,"start":143.0,"duration":0.125,"velocity":60,"measure":72,"beat":3.0,"subject_pos":-1,"motif":"","motif_pos":-1,"best_pos":4,"similarity":0.514},{"voice":7,"pitch":36,"start":143.0,"duration":0.25,"velocity":115,"measure":72,"beat":3.0,"subject_pos":-1,"motif":"","motif_pos":-1,"best_pos":4,"similarity":0.389},{"voice":2,"pitch":65,"start":143.0625,"duration":0.0625,"velocity":63,"measure":72,"beat":3.125,"subject_pos":-1,"motif":"","motif_pos":-1,"best_pos":5,"similarity":0.3},{"voice":2,"pitch":69,"start":143.125,"duration":0.0625,"velocity":66,"measure":72,"beat":3.25,"subject_pos":-1,"motif":"","motif_pos":-1,"best_pos":0,"similarity":0.286},{"voice":6,"pitch":80,"start":143.125,"duration":0.125,"velocity":85,"measure":72,"beat":3.25,"subject_pos":-1,"motif":"","motif_pos":-1,"best_pos":5,"similarity":0.55},{"voice":2,"pitch":74,"start":143.1875,"duration":0.0625,"velocity":69,"measure":72,"beat":3.375,"subject_pos":-1,"motif":"","motif_pos":-1,"best_pos":1,"similarity":0.286},{"voice":2,"pitch":77,"start":143.25,"duration":0.0625,"velocity":72,"measure":72,"beat":3.5,"subject_pos":-1,"motif":"","motif_pos":-1,"best_pos":6,"similarity":0.186},{"voice":6,"pitch":82,"start":143.25,"duration":0.125,"velocity":105,"measure":72,"beat":3.5,"subject_pos":-1,"motif":"","motif_pos":-1,"best_pos":6,"similarity":0.421},{"voice":2,"pitch":81,"start":143.3125,"duration":0.0625,"velocity":75,"measure":72,"beat":3.625,"subject_pos":-1,"motif":"","motif_pos":-1,"best_pos":0,"similarity":0.293},{"voice":2,"pitch":86,"start":143.375,"duration":0.0625,"velocity":78,"measure":72,"beat":3.75,"subject_pos":-1,"motif":"","motif_pos":-1,"best_pos":1,"similarity":0.318},{"voice":6,"pitch":80,"start":143.375,"duration":0.125,"velocity":85,"measure":72,"beat":3.75,"subject_pos":-1,"motif":"","motif_pos":-1,"best_pos":3,"similarity":0.443},{"voice":2,"pitch":89,"start":143.4375,"duration":0.0625,"velocity":81,"measure":72,"beat":3.875,"subject_pos":-1,"motif":"","motif_pos":-1,"best_pos":6,"similarity":0.3},{"voice":2,"pitch":89,"start":143.5,"duration":0.0625,"velocity":60,"measure":72,"beat":4.0,"subject_pos":-1,"motif":"","motif_pos":-1,"best_pos":2,"similarity":0.407},{"voice":3,"pitch":28,"start":143.5,"duration":0.25,"velocity":105,"measure":72,"beat":4.0,"subject_pos":-1,"motif":"","motif_pos":-1,"best_pos":4,"similarity":0.425},{"voice":5,"pitch":62,"start":143.5,"duration":0.25,"velocity":85,"measure":72,"beat":4.0,"subject_pos":-1,"motif":"","motif_pos":-1,"best_pos":5,"similarity":0.157},{"voice":5,"pitch":65,"start":143.5,"duration":0.25,"velocity":85,"measure":72,"beat":4.0,"subject_pos":-1,"motif":"","motif_pos":-1,"best_pos":6,"similarity":0.171},{"voice":5,"pitch":69,"start":143.5,"duration":0.25,"velocity":85,"measure":72,"beat":4.0,"subject_pos":-1,"motif":"","motif_pos":-1,"best_pos":0,"similarity":0.286},{"voice":5,"pitch":74,"start":143.5,"duration":0.25,"velocity":85,"measure":72,"beat":4.0,"subject_pos":-1,"motif":"","motif_pos":-1,"best_pos":1,"similarity":0.286},{"voice":5,"pitch":77,"start":143.5,"duration":0.25,"velocity":85,"measure":72,"beat":4.0,"subject_pos":-1,"motif":"","motif_pos":-1,"best_pos":6,"similarity":0.186},{"voice":5,"pitch":81,"start":143.5,"duration":0.25,"velocity":85,"measure":72,"beat":4.0,"subject_pos":-1,"motif":"","motif_pos":-1,"best_pos":1,"similarity":0.143},{"voice":6,"pitch":80,"start":143.5,"duration":0.125,"velocity":60,"measure":72,"beat":4.0,"subject_pos":-1,"motif":"","motif_pos":-1,"best_pos":4,"similarity":0.514},{"voice":7,"pitch":36,"start":143.5,"duration":0.25,"velocity":115,"measure":72,"beat":4.0,"subject_pos":-1,"motif":"","motif_pos":-1,"best_pos":4,"similarity":0.389},{"voice":8,"pitch":74,"start":143.5,"duration":0.25,"velocity":100,"measure":72,"beat":4.0,"subject_pos":-1,"motif":"","motif_pos":-1,"best_pos":4,"similarity":0.389},{"voice":2,"pitch":86,"start":143.5625,"duration":0.0625,"velocity":63,"measure":72,"beat":4.125,"subject_pos":-1,"motif":"","motif_pos":-1,"best_pos":3,"similarity":0.368},{"voice":2,"pitch":81,"start":143.625,"duration":0.0625,"velocity":66,"measure":72,"beat":4.25,"subject_pos":-1,"motif":"","motif_pos":-1,"best_pos":1,"similarity":0.436},{"voice":6,"pitch":80,"start":143.625,"duration":0.125,"velocity":85,"measure":72,"beat":4.25,"subject_pos":-1,"motif":"","motif_pos":-1,"best_pos":5,"similarity":0.55},{"voice":2,"pitch":77,"start":143.6875,"duration":0.0625,"velocity":69,"measure":72,"beat":4.375,"subject_pos":-1,"motif":"","motif_pos":-1,"best_pos":2,"similarity":0.586},{"voice":2,"pitch":74,"start":143.75,"duration":0.0625,"velocity":72,"measure":72,"beat":4.5,"subject_pos":-1,"motif":"","motif_pos":-1,"best_pos":3,"similarity":0.457},{"voice":6,"pitch":82,"start":143.75,"duration":0.125,"velocity":105,"measure":72,"beat":4.5,"subject_pos":-1,"motif":"","motif_pos":-1,"best_pos":6,"similarity":0.421},{"voice":2,"pitch":69,"start":143.8125,"duration":0.0625,"velocity":75,"measure":72,"beat":4.625,"subject_pos":-1,"motif":"","motif_pos":-1,"best_pos":1,"similarity":0.464},{"voice":2,"pitch":65,"start":143.875,"duration":0.0625,"velocity":78,"measure":72,"beat":4.75,"subject_pos":-1,"motif":"","motif_pos":-1,"best_pos":2,"similarity":0.661},{"voice":6,"pitch":80,"start":143.875,"duration":0.125,"velocity":85,"measure":72,"beat":4.75,"subject_pos":-1,"motif":"","motif_pos":-1,"best_pos":2,"similarity":0.436},{"voice":2,"pitch":62,"start":143.9375,"duration":0.0625,"velocity":81,"measure":72,"beat":4.875,"subject_pos":-1,"motif":"","motif_pos":-1,"best_pos":3,"similarity":0.625},{"voice":0,"pitch":74,"start":144.0,"duration":1.5,"velocity":75,"measure":73,"beat":1.0,"subject_pos":0,"motif":"subject","motif_pos":0,"best_pos":0,"similarity":1.0},{"voice":1,"pitch":62,"start":144.0,"duration":8.0,"velocity":40,"measure":73,"beat":1.0,"subject_pos":-1,"motif":"","motif_pos":-1,"best_pos":5,"similarity":0.157},{"voice":1,"pitch":65,"start":144.0,"duration":8.0,"velocity":40,"measure":73,"beat":1.0,"subject_pos":-1,"motif":"","motif_pos":-1,"best_pos":6,"similarity":0.171},{"voice":1,"pitch":69,"start":144.0,"duration":8.0,"velocity":40,"measure":73,"beat":1.0,"subject_pos":-1,"motif":"","motif_pos":-1,"best_pos":1,"similarity":0.171},{"voice":3,"pitch":28,"start":144.0,"duration":2.0,"velocity":70,"measure":73,"beat":1.0,"subject_pos":-1,"motif":"","motif_pos":-1,"best_pos":5,"similarity":0.436},{"voice":6,"pitch":80,"start":144.0,"duration":0.5,"velocity":45,"measure":73,"beat":1.0,"subject_pos":-1,"motif":"","motif_pos":-1,"best_pos":4,"similarity":0.436},{"voice":7,"pitch":36,"start":144.0,"duration":0.25,"velocity":80,"measure":73,"beat":1.0,"subject_pos":-1,"motif":"","motif_pos":-1,"best_pos":4,"similarity":0.389},{"voice":10,"pitch":50,"start":144.0,"duration":1.0,"velocity":60,"measure":73,"beat":1.0,"subject_pos":0,"motif":"subject","motif_pos":0,"best_pos":0,"similarity":1.0},{"voice":6,"pitch":80,"start":144.5,"duration":0.5,"velocity":45,"measure":73,"beat":2.0,"subject_pos":-1,"motif":"","motif_pos":-1,"best_pos":4,"similarity":0.443},{"voice":6,"pitch":80,"start":145.0,"duration":0.5,"velocity":45,"measure":73,"beat":3.0,"subject_pos":-1,"motif":"","motif_pos":-1,"best_pos":4,"similarity":0.389},{"voice":8,"pitch":74,"start":145.0,"duration":0.25,"velocity":65,"measure":73,"beat":3.0,"subject_pos":-1,"motif":"","motif_pos":-1,"best_pos":4,"similarity":0.389},{"voice":10,"pitch":57,"start":145.0,"duration":1.0,"velocity":60,"measure":73,"beat":3.0,"subject_pos":1,"motif":"subject","motif_pos":1,"best_pos":1,"similarity":1.0},{"voice":7,"pitch":36,"start":145.25,"duration":0.25,"velocity":60,"measure":73,"beat":3.5,"subject_pos":-1,"motif":"","motif_pos":-1,"best_pos":4,"similarity":0.389},{"voice":0,"pitch":81,"start":145.5,"duration":1.0,"velocity":75,"measure":73,"beat":4.0,"subject_pos":1,"motif":"subject","motif_pos":1,"best_pos":1,"similarity":1.0},{"voice":6,"pitch":80,"start":145.5,"duration":0.5,"velocity":45,"measure":73,"beat":4.0,"subject_pos":-1,"motif":"","motif_pos":-1,"best_pos":4,"similarity":0.389},{"voice":3,"pitch":31,"start":146.0,"duration":2.0,"velocity":70,"measure":74,"beat":1.0,"subject_pos":-1,"motif":"","motif_pos":-1,"best_pos":5,"similarity":0.507},{"voice":6,"pitch":80,"start":146.0,"duration":0.5,"velocity":45,"measure":74,"beat":1.0,"subject_pos":-1,"motif":"","motif_pos":-1,"best_pos":4,"similarity":0.389},{"voice":7,"pitch":36,"start":146.0,"duration":0.25,"velocity":80,"measure":74,"beat":1.0,"subject_pos":-1,"motif":"","motif_pos":-1,"best_pos":4,"similarity":0.389},{"voice":10,"pitch":53,"start":146.0,"duration":1.0,"velocity":60,"measure":74,"beat":1.0,"subject_pos":2,"motif":"subject","motif_pos":2,"best_pos":2,"similarity":1.0},{"voice":0,"pitch":77,"start":146.5,"duration":1.5,"velocity":75,"measure":74,"beat":2.0,"subject_pos":2,"motif":"subject","motif_pos":2,"best_pos":2,"similarity":1.0},{"voice":6,"pitch":80,"start":146.5,"duration":0.5,"velocity":45,"measure":74,"beat":2.0,"subject_pos":-1,"motif":"","motif_pos":-1,"best_pos":4,"similarity":0.389},{"voice":6,"pitch":80,"start":147.0,"duration":0.5,"velocity":45,"measure":74,"beat":3.0,"subject_pos":-1,"motif":"","motif_pos":-1,"best_pos":4,"similarity":0.389},{"voice":8,"pitch":74,"start":147.0,"duration":0.25,"velocity":65,"measure":74,"beat":3.0,"subject_pos":-1,"motif":"","motif_pos":-1,"best_pos":4,"similarity":0.389},{"voice":10,"pitch":50,"start":147.0,"duration":1.0,"velocity":60,"measure":74,"beat":3.0,"subject_pos":3,"motif":"subject","motif_pos":3,"best_pos":3,"similarity":1.0},{"voice":7,"pitch":36,"start":147.25,"duration":0.25,"velocity":60,"measure":74,"beat":3.5,"subject_pos":-1,"motif":"","motif_pos":-1,"best_pos":4,"similarity":0.389},{"voice":6,"pitch":80,"start":147.5,"duration":0.5,"velocity":45,"measure":74,"beat":4.0,"subject_pos":-1,"motif":"","motif_pos":-1,"best_pos":4,"similarity":0.389},{"voice":0,"pitch":74,"start":148.0,"duration":1.0,"velocity":75,"measure":75,"beat":1.0,"subject_pos":3,"motif":"subject","motif_pos":3,"best_pos":3,"similarity":1.0},{"voice":3,"pitch":33,"start":148.0,"duration":2.0,"velocity":70,"measure":75,"beat":1.0,"subject_pos":-1,"motif":"","motif_pos":-1,"best_pos":6,"similarity":0.5},{"voice":6,"pitch":80,"start":148.0,"duration":0.5,"velocity":45,"measure":75,"beat":1.0,"subject_pos":-1,"motif":"","motif_pos":-1,"best_pos":4,"similarity":0.389},{"voice":7,"pitch":36,"start":148.0,"duration":0.25,"velocity":80,"measure":75,"beat":1.0,"subject_pos":-1,"motif":"","motif_pos":-1,"best_pos":4,"similarity":0.389},{"voice":10,"pitch":49,"start":148.0,"duration":1.0,"velocity":60,"measure":75,"beat":1.0,"subject_pos":4,"motif":"subject","motif_pos":4,"best_pos":4,"similarity":1.0},{"voice":6,"pitch":80,"start":148.5,"duration":0.5,"velocity":45,"measure":75,"beat":2.0,"subject_pos":-1,"motif":"","motif_pos":-1,"best_pos":4,"similarity":0.389},{"voice":0,"pitch":73,"start":149.0,"duration":2.0,"velocity":75,"measure":75,"beat":3.0,"subject_pos":4,"motif":"subject","motif_pos":4,"best_pos":4,"similarity":1.0},{"voice":6,"pitch":80,"start":149.0,"duration":0.5,"velocity":45,"measure":75,"beat":3.0,"subject_pos":-1,"motif":"","motif_pos":-1,"best_pos":4,"similarity":0.389},{"voice":8,"pitch":74,"start":149.0,"duration":0.25,"velocity":65,"measure":75,"beat":3.0,"subject_pos":-1,"motif":"","motif_pos":-1,"best_pos":4,"similarity":0.389},{"voice":10,"pitch":50,"start":149.0,"duration":0.5,"velocity":60,"measure":75,"beat":3.0,"subject_pos":5,"motif":"subject","motif_pos":5,"best_pos":5,"similarity":1.0},{"voice":7,"pitch":36,"start":149.25,"duration":0.25,"velocity":60,"measure":75,"beat":3.5,"subject_pos":-1,"motif":"","motif_pos":-1,"best_pos":4,"similarity":0.389},{"voice":6,"pitch":80,"start":149.5,"duration":0.5,"velocity":45,"measure":75,"beat":4.0,"subject_pos":-1,"motif":"","motif_pos":-1,"best_pos":4,"similarity":0.389},{"voice":10,"pitch":52,"start":149.5,"duration":0.5,"velocity":60,"measure":75,"beat":4.0,"subject_pos":6,"motif":"subject","motif_pos":6,"best_pos":6,"similarity":1.0},{"voice":3,"pitch":35,"start":150.0,"duration":2.0,"velocity":70,"measure":76,"beat":1.0,"subject_pos":-1,"motif":"","motif_pos":-1,"best_pos":6,"similarity":0.364},{"voice":6,"pitch":80,"start":150.0,"duration":0.5,"velocity":45,"measure":76,"beat":1.0,"subject_pos":-1,"motif":"","motif_pos":-1,"best_pos":4,"similarity":0.389},{"voice":7,"pitch":36,"start":150.0,"duration":0.25,"velocity":80,"measure":76,"beat":1.0,"subject_pos":-1,"motif":"","motif_pos":-1,"best_pos":4,"similarity":0.389},{"voice":10,"pitch":53,"start":150.0,"duration":1.0,"velocity":60,"measure":76,"beat":1.0,"subject_pos":7,"motif":"subject","motif_pos":7,"best_pos":7,"similarity":1.0},{"voice":6,"pitch":80,"start":150.5,"duration":0.5,"velocity":45,"measure":76,"beat":2.0,"subject_pos":-1,"motif":"","motif_pos":-1,"best_pos":4,"similarity":0.389},{"voice":0,"pitch":74,"start":151.0,"duration":0.5,"velocity":75,"measure":76,"beat":3.0,"subject_pos":5,"motif":"subject","motif_pos":5,"best_pos":5,"similarity":1.0},{"voice":6,"pitch":80,"start":151.0,"duration":0.5,"velocity":45,"measure":76,"beat":3.0,"subject_pos":-1,"motif":"","motif_pos":-1,"best_pos":4,"similarity":0.389},{"voice":8,"pitch":74,"start":151.0,"duration":0.25,"velocity":65,"measure":76,"beat":3.0,"subject_pos":-1,"motif":"","motif_pos":-1,"best_pos":4,"similarity":0.389},{"voice":7,"pitch":36,"start":151.25,"duration":0.25,"velocity":60,"measure":76,"beat":3.5,"subject_pos":-1,"motif":"","motif_pos":-1,"best_pos":4,"similarity":0.389},{"voice":0,"pitch":76,"start":151.5,"duration":0.5,"velocity":75,"measure":76,"beat":4.0,"subject_pos":6,"motif":"subject","motif_pos":6,"best_pos":6,"similarity":1.0},{"voice":6,"pitch":80,"start":151.5,"duration":0.5,"velocity":45,"measure":76,"beat":4.0,"subject_pos":-1,"motif":"","motif_pos":-1,"best_pos":4,"similarity":0.389},{"voice":0,"pitch":77,"start":152.0,"duration":1.5,"velocity":75,"measure":77,"beat":1.0,"subject_pos":7,"motif":"subject","motif_pos":7,"best_pos":7,"similarity":1.0},{"voice":1,"pitch":62,"start":152.0,"duration":8.0,"velocity":40,"measure":77,"beat":1.0,"subject_pos":-1,"motif":"","motif_pos":-1,"best_pos":5,"similarity":0.157},{"voice":1,"pitch":65,"start":152.0,"duration":8.0,"velocity":40,"measure":77,"beat":1.0,"subject_pos":-1,"motif":"","motif_pos":-1,"best_pos":6,"similarity":0.171},{"voice":1,"pitch":69,"start":152.0,"duration":8.0,"velocity":40,"measure":77,"beat":1.0,"subject_pos":-1,"motif":"","motif_pos":-1,"best_pos":1,"similarity":0.143},{"voice":3,"pitch":28,"start":152.0,"duration":2.0,"velocity":70,"measure":77,"beat":1.0,"subject_pos":-1,"motif":"","motif_pos":-1,"best_pos":0,"similarity":0.221},{"voice":6,"pitch":80,"start":152.0,"duration":0.5,"velocity":45,"measure":77,"beat":1.0,"subject_pos":-1,"motif":"","motif_pos":-1,"best_pos":4,"similarity":0.389},{"voice":7,"pitch":36,"start":152.0,"duration":0.25,"velocity":80,"measure":77,"beat":1.0,"subject_pos":-1,"motif":"","motif_pos":-1,"best_pos":4,"similarity":0.389},{"voice":9,"pitch":50,"start":152.0,"duration":0.125,"velocity":25,"measure":77,"beat":1.0,"subject_pos":-1,"motif":"","motif_pos":-1,"best_pos":3,"similarity":0.339},{"voice":9,"pitch":50,"start":152.125,"duration":0.125,"velocity":26,"measure":77,"beat":1.25,"subject_pos":-1,"motif":"","motif_pos":-1,"best_pos":4,"similarity":0.554},{"voice":9,"pitch":51,"start":152.25,"duration":0.125,"velocity":27,"measure":77,"beat":1.5,"subject_pos":-1,"motif":"","motif_pos":-1,"best_pos":5,"similarity":0.571},{"voice":9,"pitch":51,"start":152.375,"duration":0.125,"velocity":28,"measure":77,"beat":1.75,"subject_pos":-1,"motif":"","motif_pos":-1,"best_pos":4,"similarity":0.568},{"voice":6,"pitch":80,"start":152.5,"duration":0.5,"velocity":45,"measure":77,"beat":2.0,"subject_pos":-1,"motif":"","motif_pos":-1,"best_pos":4,"similarity":0.389},{"voice":9,"pitch":52,"start":152.5,"duration":0.125,"velocity":29,"measure":77,"beat":2.0,"subject_pos":-1,"motif":"","motif_pos":-1,"best_pos":5,"similarity":0.579},{"voice":9,"pitch":52,"start":152.625,"duration":0.125,"velocity":30,"measure":77,"beat":2.25,"subject_pos":-1,"motif":"","motif_pos":-1,"best_pos":4,"similarity":0.568},{"voice":9,"pitch":53,"start":152.75,"duration":0.125,"velocity":31,"measure":77,"beat":2.5,"subject_pos":-1,"motif":"","motif_pos":-1,"best_pos":5,"similarity":0.579},{"voice":9,"pitch":54,"start":152.875,"duration":0.125,"velocity":32,"measure":77,"beat":2.75,"subject_pos":-1,"motif":"","motif_pos":-1,"best_pos":5,"similarity":0.543},{"voice":6,"pitch":80,"start":153.0,"duration":0.5,"velocity":45,"measure":77,"beat":3.0,"subject_pos":-1,"motif":"","motif_pos":-1,"best_pos":4,"similarity":0.389},{"voice":8,"pitch":74,"start":153.0,"duration":0.25,"velocity":65,"measure":77,"beat":3.0,"subject_pos":-1,"motif":"","motif_pos":-1,"best_pos":4,"similarity":0.389},{"voice":9,"pitch":54,"start":153.0,"duration":0.125,"velocity":33,"measure":77,"beat":3.0,"subject_pos":-1,"motif":"","motif_pos":-1,"best_pos":4,"similarity":0.557},{"voice":9,"pitch":55,"start":153.125,"duration":0.125,"velocity":34,"measure":77,"beat":3.25,"subject_pos":-1,"motif":"","motif_pos":-1,"best_pos":5,"similarity":0.579},{"voice":7,"pitch":36,"start":153.25,"duration":0.25,"velocity":60,"measure":77,"beat":3.5,"subject_pos":-1,"motif":"","motif_pos":-1,"best_pos":4,"similarity":0.389},{"voice":9,"pitch":55,"start":153.25,"duration":0.125,"velocity":35,"measure":77,"beat":3.5,"subject_pos":-1,"motif":"","motif_pos":-1,"best_pos":4,"similarity":0.568},{"voice":9,"pitch":56,"start":153.375,"duration":0.125,"velocity":36,"measure":77,"beat":3.75,"subject_pos":-1,"motif":"","motif_pos":-1,"best_pos":5,"similarity":0.579},{"voice":6,"pitch":80,"start":153.5,"duration":0.5,"velocity":45,"measure":77,"beat":4.0,"subject_pos":-1,"motif":"","motif_pos":-1,"best_pos":4,"similarity":0.389},{"voice":9,"pitch":57,"start":153.5,"duration":0.125,"velocity":37,"measure":77,"beat":4.0,"subject_pos":-1,"motif":"","motif_pos":-1,"best_pos":5,"similarity":0.543},{"voice":9,"pitch":57,"start":153.625,"duration":0.125,"velocity":38,"measure":77,"beat":4.25,"subject_pos":-1,"motif":"","motif_pos":-1,"best_pos":4,"similarity":0.557},{"voice":9,"pitch":58,"start":153.75,"duration":0.125,"velocity":39,"measure":77,"beat":4.5,"subject_pos":-1,"motif":"","motif_pos":-1,"best_pos":5,"similarity":0.579},{"voice":9,"pitch":58,"start":153.875,"duration":0.125,"velocity":40,"measure":77,"beat":4.75,"subject_pos":-1,"motif":"","motif_pos":-1,"best_pos":4,"similarity":0.568},{"voice":3,"pitch":36,"start":154.0,"duration":2.0,"velocity":70,"measure":78,"beat":1.0,"subject_pos":-1,"motif":"","motif_pos":-1,"best_pos":1,"similarity":0.336},{"voice":6,"pitch":80,"start":154.0,"duration":0.5,"velocity":45,"measure":78,"beat":1.0,"subject_pos":-1,"motif":"","motif_pos":-1,"best_pos":4,"similarity":0.389},{"voice":7,"pitch":36,"start":154.0,"duration":0.25,"velocity":80,"measure":78,"beat":1.0,"subject_pos":-1,"motif":"","motif_pos":-1,"best_pos":4,"similarity":0.389},{"voice":9,"pitch":59,"start":154.0,"duration":0.125,"velocity":41,"measure":78,"beat":1.0,"subject_pos":-1,"motif":"","motif_pos":-1,"best_pos":5,"similarity":0.579},{"voice":9,"pitch":60,"start":154.125,"duration":0.125,"velocity":42,"measure":78,"beat":1.25,"subject_pos":-1,"motif":"","motif_pos":-1,"best_pos":5,"similarity":0.543},{"voice":9,"pitch":60,"start":154.25,"duration":0.125,"velocity":43,"measure":78,"beat":1.5,"subject_pos":-1,"motif":"","motif_pos":-1,"best_pos":4,"similarity":0.557},{"voice":9,"pitch":61,"start":154.375,"duration":0.125,"velocity":44,"measure":78,"beat":1.75,"subject_pos":-1,"motif":"","motif_pos":-1,"best_pos":5,"similarity":0.579},{"voice":6,"pitch":80,"start":154.5,"duration":0.5,"velocity":45,"measure":78,"beat":2.0,"subject_pos":-1,"motif":"","motif_pos":-1,"best_pos":4,"similarity":0.389},{"voice":9,"pitch":61,"start":154.5,"duration":0.125,"velocity":45,"measure":78,"beat":2.0,"subject_pos":-1,"motif":"","motif_pos":-1,"best_pos":4,"similarity":0.568},{"voice":9,"pitch":62,"start":154.625,"duration":0.125,"velocity":46,"measure":78,"beat":2.25,"subject_pos":-1,"motif":"","motif_pos":-1,"best_pos":5,"similarity":0.579},{"voice":9,"pitch":63,"start":154.75,"duration":0.125,"velocity":47,"measure":78,"beat":2.5,"subject_pos":-1,"motif":"","motif_pos":-1,"best_pos":5,"similarity":0.543},{"voice":9,"pitch":63,"start":154.875,"duration":0.125,"velocity":48,"measure":78,"beat":2.75,"subject_pos":-1,"motif":"","motif_pos":-1,"best_pos":4,"similarity":0.557},{"voice":6,"pitch":80,"start":155.0,"duration":0.5,"velocity":45,"measure":78,"beat":3.0,"subject_pos":-1,"motif":"","motif_pos":-1,"best_pos":4,"similarity":0.389},{"voice":8,"pitch":74,"start":155.0,"duration":0.25,"velocity":65,"measure":78,"beat":3.0,"subject_pos":-1,"motif":"","motif_pos":-1,"best_pos":4,"similarity":0.389},{"voice":9,"pitch":64,"start":155.0,"duration":0.125,"velocity":49,"measure":78,"beat":3.0,"subject_pos":-1,"motif":"","motif_pos":-1,"best_pos":5,"similarity":0.579},{"voice":9,"pitch":64,"start":155.125,"duration":0.125,"velocity":50,"measure":78,"beat":3.25,"subject_pos":-1,"motif":"","motif_pos":-1,"best_pos":4,"similarity":0.568},{"voice":7,"pitch":36,"start":155.25,"duration":0.25,"velocity":60,"measure":78,"beat":3.5,"subject_pos":-1,"motif":"","motif_pos":-1,"best_pos":4,"similarity":0.389},{"voice":9,"pitch":65,"start":155.25,"duration":0.125,"velocity":51,"measure":78,"beat":3.5,"subject_pos":-1,"motif":"","motif_pos":-1,"best_pos":5,"similarity":0.579},{"voice":9,"pitch":66,"start":155.375,"duration":0.125,"velocity":52,"measure":78,"beat":3.75,"subject_pos":-1,"motif":"","motif_pos":-1,"best_pos":5,"similarity":0.543},{"voice":6,"pitch":80,"start":155.5,"duration":0.5,"velocity":45,"measure":78,"beat":4.0,"subject_pos":-1,"motif":"","motif_pos":-1,"best_pos":4,"similarity":0.389},{"voice":9,"pitch":66,"start":155.5,"duration":0.125,"velocity":53,"measure":78,"beat":4.0,"subject_pos":-1,"motif":"","motif_pos":-1,"best_pos":4,"similarity":0.557},{"voice":9,"pitch":67,"start":155.625,"duration":0.125,"velocity":54,"measure":78,"beat":4.25,"subject_pos":-1,"motif":"","motif_pos":-1,"best_pos":5,"similarity":0.579},{"voice":9,"pitch":67,"start":155.75,"duration":0.125,"velocity":55,"measure":78,"beat":4.5,"subject_pos":-1,"motif":"","motif_pos":-1,"best_pos":4,"similarity":0.568},{"voice":9,"pitch":68,"start":155.875,"duration":0.125,"velocity":56,"measure":78,"beat":4.75,"subject_pos":-1,"motif":"","motif_pos":-1,"best_pos":5,"similarity":0.579},{"voice":3,"pitch":35,"start":156.0,"duration":2.0,"velocity":70,"measure":79,"beat":1.0,"subject_pos":-1,"motif":"","motif_pos":-1,"best_pos":2,"similarity":0.314},{"voice":6,"pitch":80,"start":156.0,"duration":0.5,"velocity":45,"measure":79,"beat":1.0,"subject_pos":-1,"motif":"","motif_pos":-1,"best_pos":4,"similarity":0.389},{"voice":7,"pitch":36,"start":156.0,"duration":0.25,"velocity":80,"measure":79,"beat":1.0,"subject_pos":-1,"motif":"","motif_pos":-1,"best_pos":4,"similarity":0.389},{"voice":9,"pitch":69,"start":156.0,"duration":0.125,"velocity":57,"measure":79,"beat":1.0,"subject_pos":-1,"motif":"","motif_pos":-1,"best_pos":5,"similarity":0.543},{"voice":9,"pitch":69,"start":156.125,"duration":0.125,"velocity":58,"measure":79,"beat":1.25,"subject_pos":-1,"motif":"","motif_pos":-1,"best_pos":4,"similarity":0.557},{"voice":9,"pitch":70,"start":156.25,"duration":0.125,"velocity":59,"measure":79,"beat":1.5,"subject_pos":-1,"motif":"","motif_pos":-1,"best_pos":5,"similarity":0.579},{"voice":9,"pitch":70,"start":156.375,"duration":0.125,"velocity":60,"measure":79,"beat":1.75,"subject_pos":-1,"motif":"","motif_pos":-1,"best_pos":4,"similarity":0.568},{"voice":6,"pitch":80,"start":156.5,"duration":0.5,"velocity":45,"measure":79,"beat":2.0,"subject_pos":-1,"motif":"","motif_pos":-1,"best_pos":4,"similarity":0.389},{"voice":9,"pitch":71,"start":156.5,"duration":0.125,"velocity":61,"measure":79,"beat":2.0,"subject_pos":-1,"motif":"","motif_pos":-1,"best_pos":5,"similarity":0.579},{"voice":9,"pitch":71,"start":156.625,"duration":0.125,"velocity":62,"measure":79,"beat":2.25,"subject_pos":-1,"motif":"","motif_pos":-1,"best_pos":4,"similarity":0.568},{"voice":9,"pitch":72,"start":156.75,"duration":0.125,"velocity":63,"measure":79,"beat":2.5,"subject_pos":-1,"motif":"","motif_pos":-1,"best_pos":5,"similarity":0.579},{"voice":9,"pitch":73,"start":156.875,"duration":0.125,"velocity":64,"measure":79,"beat":2.75,"subject_pos":-1,"motif":"","motif_pos":-1,"best_pos":5,"similarity":0.543},{"voice":6,"pitch":80,"start":157.0,"duration":0.5,"velocity":45,"measure":79,"beat":3.0,"subject_pos":-1,"motif":"","motif_pos":-1,"best_pos":4,"similarity":0.389},{"voice":8,"pitch":74,"start":157.0,"duration":0.25,"velocity":65,"measure":79,"beat":3.0,"subject_pos":-1,"motif":"","motif_pos":-1,"best_pos":4,"similarity":0.389},{"voice":9,"pitch":73,"start":157.0,"duration":0.125,"velocity":65,"measure":79,"beat":3.0,"subject_pos":-1,"motif":"","motif_pos":-1,"best_pos":4,"similarity":0.557},{"voice":9,"pitch":74,"start":157.125,"duration":0.125,"velocity":66,"measure":79,"beat":3.25,"subject_pos":-1,"motif":"","motif_pos":-1,"best_pos":5,"similarity":0.579},{"voice":7,"pitch":36,"start":157.25,"duration":0.25,"velocity":60,"measure":79,"beat":3.5,"subject_pos":-1,"motif":"","motif_pos":-1,"best_pos":4,"similarity":0.389},{"voice":9,"pitch":74,"start":157.25,"duration":0.125,"velocity":67,"measure":79,"beat":3.5,"subject_pos":-1,"motif":"","motif_pos":-1,"best_pos":4,"similarity":0.568},{"voice":9,"pitch":75,"start":157.375,"duration":0.125,"velocity":68,"measure":79,"beat":3.75,"subject_pos":-1,"motif":"","motif_pos":-1,"best_pos":5,"similarity":0.579},{"voice":6,"pitch":80,"start":157.5,"duration":0.5,"velocity":45,"measure":79,"beat":4.0,"subject_pos":-1,"motif":"","motif_pos":-1,"best_pos":4,"similarity":0.389},{"voice":9,"pitch":76,"start":157.5,"duration":0.125,"velocity":69,"measure":79,"beat":4.0,"subject_pos":-1,"motif":"","motif_pos":-1,"best_pos":5,"similarity":0.543},{"voice":9,"pitch":76,"start":157.625,"duration":0.125,"velocity":70,"measure":79,"beat":4.25,"subject_pos":-1,"motif":"","motif_pos":-1,"best_pos":4,"similarity":0.557},{"voice":9,"pitch":77,"start":157.75,"duration":0.125,"velocity":71,"measure":79,"beat":4.5,"subject_pos":-1,"motif":"","motif_pos":-1,"best_pos":5,"similarity":0.579},{"voice":9,"pitch":77,"start":157.875,"duration":0.125,"velocity":72,"measure":79,"beat":4.75,"subject_pos":-1,"motif":"","motif_pos":-1,"best_pos":4,"similarity":0.568},{"voice":3,"pitch":28,"start":158.0,"duration":2.0,"velocity":70,"measure":80,"beat":1.0,"subject_pos":-1,"motif":"","motif_pos":-1,"best_pos":1,"similarity":0.293},{"voice":6,"pitch":80,"start":158.0,"duration":0.5,"velocity":45,"measure":80,"beat":1.0,"subject_pos":-1,"motif":"","motif_pos":-1,"best_pos":4,"similarity":0.389},{"voice":7,"pitch":36,"start":158.0,"duration":0.25,"velocity":80,"measure":80,"beat":1.0,"subject_pos":-1,"motif":"","motif_pos":-1,"best_pos":4,"similarity":0.389},{"voice":9,"pitch":78,"start":158.0,"duration":0.125,"velocity":73,"measure":80,"beat":1.0,"subject_pos":-1,"motif":"","motif_pos":-1,"best_pos":5,"similarity":0.579},{"voice":9,"pitch":79,"start":158.125,"duration":0.125,"velocity":74,"measure":80,"beat":1.25,"subject_pos":-1,"motif":"","motif_pos":-1,"best_pos":5,"similarity":0.543},{"voice":9,"pitch":79,"start":158.25,"duration":0.125,"velocity":75,"measure":80,"beat":1.5,"subject_pos":-1,"motif":"","motif_pos":-1,"best_pos":4,"similarity":0.557},{"voice":9,"pitch":80,"start":158.375,"duration":0.125,"velocity":76,"measure":80,"beat":1.75,"subject_pos":-1,"motif":"","motif_pos":-1,"best_pos":5,"similarity":0.579},{"voice":6,"pitch":80,"start":158.5,"duration":0.5,"velocity":45,"measure":80,"beat":2.0,"subject_pos":-1,"motif":"","motif_pos":-1,"best_pos":4,"similarity":0.389},{"voice":9,"pitch":80,"start":158.5,"duration":0.125,"velocity":77,"measure":80,"beat":2.0,"subject_pos":-1,"motif":"","motif_pos":-1,"best_pos":4,"similarity":0.568},{"voice":9,"pitch":81,"start":158.625,"duration":0.125,"velocity":78,"measure":80,"beat":2.25,"subject_pos":-1,"motif":"","motif_pos":-1,"best_pos":5,"similarity":0.579},{"voice":9,"pitch":82,"start":158.75,"duration":0.125,"velocity":79,"measure":80,"beat":2.5,"subject_pos":-1,"motif":"","motif_pos":-1,"best_pos":5,"similarity":0.543},{"voice":9,"pitch":82,"start":158.875,"duration":0.125,"velocity":80,"measure":80,"beat":2.75,"subject_pos":-1,"motif":"","motif_pos":-1,"best_pos":4,"similarity":0.557},{"voice":6,"pitch":80,"start":159.0,"duration":0.5,"velocity":45,"measure":80,"beat":3.0,"subject_pos":-1,"motif":"","motif_pos":-1,"best_pos":4,"similarity":0.389},{"voice":8,"pitch":74,"start":159.0,"duration":0.25,"velocity":65,"measure":80,"beat":3.0,"subject_pos":-1,"motif":"","motif_pos":-1,"best_pos":4,"similarity":0.389},{"voice":9,"pitch":83,"start":159.0,"duration":0.125,"velocity":81,"measure":80,"beat":3.0,"subject_pos":-1,"motif":"","motif_pos":-1,"best_pos":5,"similarity":0.579},{"voice":9,"pitch":83,"start":159.125,"duration":0.125,"velocity":82,"measure":80,"beat":3.25,"subject_pos":-1,"motif":"","motif_pos":-1,"best_pos":4,"similarity":0.568},{"voice":7,"pitch":36,"start":159.25,"duration":0.25,"velocity":60,"measure":80,"beat":3.5,"subject_pos":-1,"motif":"","motif_pos":-1,"best_pos":4,"similarity":0.389},{"voice":9,"pitch":84,"start":159.25,"duration":0.125,"velocity":83,"measure":80,"beat":3.5,"subject_pos":-1,"motif":"","motif_pos":-1,"best_pos":5,"similarity":0.579},{"voice":9,"pitch":85,"start":159.375,"duration":0.125,"velocity":84,"measure":80,"beat":3.75,"subject_pos":-1,"motif":"","motif_pos":-1,"best_pos":5,"similarity":0.543},{"voice":6,"pitch":80,"start":159.5,"duration":0.5,"velocity":45,"measure":80,"beat":4.0,"subject_pos":-1,"motif":"","motif_pos":-1,"best_pos":4,"similarity":0.389},{"voice":9,"pitch":85,"start":159.5,"duration":0.125,"velocity":85,"measure":80,"beat":4.0,"subject_pos":-1,"motif":"","motif_pos":-1,"best_pos":4,"similarity":0.557},{"voice":9,"pitch":86,"start":159.625,"duration":0.125,"velocity":86,"measure":80,"beat":4.25,"subject_pos":-1,"motif":"","motif_pos":-1,"best_pos":5,"similarity":0.579},{"voice":9,"pitch":86,"start":159.75,"duration":0.125,"velocity":87,"measure":80,"beat":4.5,"subject_pos":-1,"motif":"","motif_pos":-1,"best_pos":6,"similarity":0.536},{"voice":9,"pitch":87,"start":159.875,"duration":0.125,"velocity":88,"measure":80,"beat":4.75,"subject_pos":-1,"motif":"","motif_pos":-1,"best_pos":7,"similarity":0.393},{"voice":0,"pitch":81,"start":160.0,"duration":0.5,"velocity":95,"measure":81,"beat":1.0,"subject_pos":0,"motif":"subject","motif_pos":0,"best_pos":0,"similarity":1.0},{"voice":1,"pitch":50,"start":160.0,"duration":8.0,"velocity":45,"measure":81,"beat":1.0,"subject_pos":-1,"motif":"","motif_pos":-1,"best_pos":5,"similarity":0.157},{"voice":1,"pitch":53,"start":160.0,"duration":8.0,"velocity":45,"measure":81,"beat":1.0,"subject_pos":-1,"motif":"","motif_pos":-1,"best_pos":6,"similarity":0.171},{"voice":1,"pitch":57,"start":160.0,"duration":8.0,"velocity":45,"measure":81,"beat":1.0,"subject_pos":-1,"motif":"","motif_pos":-1,"best_pos":0,"similarity":0.286},{"voice":1,"pitch":62,"start":160.0,"duration":8.0,"velocity":45,"measure":81,"beat":1.0,"subject_pos":-1,"motif":"","motif_pos":-1,"best_pos":1,"similarity":0.286},{"voice":1,"pitch":65,"start":160.0,"duration":8.0,"velocity":45,"measure":81,"beat":1.0,"subject_pos":-1,"motif":"","motif_pos":-1,"best_pos":6,"similarity":0.186},{"voice":1,"pitch":69,"start":160.0,"duration":8.0,"velocity":45,"measure":81,"beat":1.0,"subject_pos":-1,"motif":"","motif_pos":-1,"best_pos":0,"similarity":0.286},{"voice":1,"pitch":74,"start":160.0,"duration":8.0,"velocity":45,"measure":81,"beat":1.0,"subject_pos":-1,"motif":"","motif_pos":-1,"best_pos":1,"similarity":0.286},{"voice":1,"pitch":77,"start":160.0,"duration":8.0,"velocity":45,"measure":81,"beat":1.0,"subject_pos":-1,"motif":"","motif_pos":-1,"best_pos":6,"similarity":0.186},{"voice":1,"pitch":81,"start":160.0,"duration":8.0,"velocity":45,"measure":81,"beat":1.0,"subject_pos":-1,"motif":"","motif_pos":-1,"best_pos":0,"similarity":0.286},{"voice":1,"pitch":86,"start":160.0,"duration":8.0,"velocity":45,"measure":81,"beat":1.0,"subject_pos":-1,"motif":"","motif_pos":-1,"best_pos":1,"similarity":0.286},{"voice":1,"pitch":89,"start":160.0,"duration":8.0,"velocity":45,"measure":81,"beat":1.0,"subject_pos":-1,"motif":"","motif_pos":-1,"best_pos":6,"similarity":0.186},{"voice":1,"pitch":93,"start":160.0,"duration":8.0,"velocity":45,"measure":81,"beat":1.0,"subject_pos":-1,"motif":"","motif_pos":-1,"best_pos":1,"similarity":0.143},{"voice":2,"pitch":62,"start":160.0,"duration":0.0625,"velocity":70,"measure":81,"beat":1.0,"subject_pos":-1,"motif":"","motif_pos":-1,"best_pos":4,"similarity":0.471},{"voice":3,"pitch":26,"start":160.0,"duration":2.0,"velocity":110,"measure":81,"beat":1.0,"subject_pos":0,"motif":"subject","motif_pos":0,"best_pos":0,"similarity":1.0},{"voice":4,"pitch":74,"start":160.0,"duration":0.125,"velocity":70,"measure":81,"beat":1.0,"subject_pos":0,"motif":"subject","motif_pos":0,"best_pos":0,"similarity":1.0},{"voice":5,"pitch":62,"start":160.0,"duration":0.25,"velocity":90,"measure":81,"beat":1.0,"subject_pos":-1,"motif":"","motif_pos":-1,"best_pos":5,"similarity":0.157},{"voice":5,"pitch":65,"start":160.0,"duration":0.25,"velocity":90,"measure":81,"beat":1.0,"subject_pos":-1,"motif":"","motif_pos":-1,"best_pos":6,"similarity":0.171},{"voice":5,"pitch":69,"start":160.0,"duration":0.25,"velocity":90,"measure":81,"beat":1.0,"subject_pos":-1,"motif":"","motif_pos":-1,"best_pos":0,"similarity":0.286},{"voice":5,"pitch":74,"start":160.0,"duration":0.25,"velocity":90,"measure":81,"beat":1.0,"subject_pos":-1,"motif":"","motif_pos":-1,"best_pos":1,"similarity":0.286},{"voice":5,"pitch":77,"start":160.0,"duration":0.25,"velocity":90,"measure":81,"beat":1.0,"subject_pos":-1,"motif":"","motif_pos":-1,"best_pos":6,"similarity":0.186},{"voice":5,"pitch":81,"start":160.0,"duration":0.25,"velocity":90,"measure":81,"beat":1.0,"subject_pos":-1,"motif":"","motif_pos":-1,"best_pos":1,"similarity":0.143},{"voice":6,"pitch":80,"start":160.0,"duration":0.125,"velocity":65,"measure":81,"beat":1.0,"subject_pos":-1,"motif":"","motif_pos":-1,"best_pos":4,"similarity":0.468},{"voice":7,"pitch":36,"start":160.0,"duration":0.25,"velocity":120,"measure":81,"beat":1.0,"subject_pos":-1,"motif":"","motif_pos":-1,"best_pos":4,"similarity":0.389},{"voice":10,"pitch":50,"start":160.0,"duration":0.25,"velocity":85,"measure":81,"beat":1.0,"subject_pos":0,"motif":"subject","motif_pos":0,"best_pos":0,"similarity":1.0},{"voice":11,"pitch":74,"start":160.0,"duration":0.5,"velocity":110,"measure":81,"beat":1.0,"subject_pos":0,"motif":"subject","motif_pos":0,"best_pos":0,"similarity":1.0},{"voice":2,"pitch":65,"start":160.0625,"duration":0.0625,"velocity":70,"measure":81,"beat":1.125,"subject_pos":-1,"motif":"","motif_pos":-1,"best_pos":5,"similarity":0.3},{"voice":2,"pitch":69,"start":160.125,"duration":0.0625,"velocity":70,"measure":81,"beat":1.25,"subject_pos":-1,"motif":"","motif_pos":-1,"best_pos":0,"similarity":0.286},{"voice":4,"pitch":81,"start":160.125,"duration":0.125,"velocity":70,"measure":81,"beat":1.25,"subject_pos":1,"motif":"subject","motif_pos":1,"best_pos":1,"similarity":1.0},{"voice":6,"pitch":80,"start":160.125,"duration":0.125,"velocity":90,"measure":81,"beat":1.25,"subject_pos":-1,"motif":"","motif_pos":-1,"best_pos":5,"similarity":0.521},{"voice":2,"pitch":74,"start":160.1875,"duration":0.0625,"velocity":70,"measure":81,"beat":1.375,"subject_pos":-1,"motif":"","motif_pos":-1,"best_pos":1,"similarity":0.286},{"voice":2,"pitch":77,"start":160.25,"duration":0.0625,"velocity":70,"measure":81,"beat":1.5,"subject_pos":-1,"motif":"","motif_pos":-1,"best_pos":6,"similarity":0.186},{"voice":4,"pitch":77,"start":160.25,"duration":0.125,"velocity":70,"measure":81,"beat":1.5,"subject_pos":2,"motif":"subject","motif_pos":2,"best_pos":2,"similarity":1.0},{"voice":6,"pitch":82,"start":160.25,"duration":0.125,"velocity":110,"measure":81,"beat":1.5,"subject_pos":-1,"motif":"","motif_pos":-1,"best_pos":6,"similarity":0.421},{"voice":10,"pitch":57,"start":160.25,"duration":0.25,"velocity":85,"measure":81,"beat":1.5,"subject_pos":1,"motif":"subject","motif_pos":1,"best_pos":1,"similarity":1.0},{"voice":2,"pitch":81,"start":160.3125,"duration":0.0625,"velocity":70,"measure":81,"beat":1.625,"subject_pos":-1,"motif":"","motif_pos":-1,"best_pos":0,"similarity":0.286},{"voice":2,"pitch":86,"start":160.375,"duration":0.0625,"velocity":70,"measure":81,"beat":1.75,"subject_pos":-1,"motif":"","motif_pos":-1,"best_pos":1,"similarity":0.293},{"voice":4,"pitch":74,"start":160.375,"duration":0.125,"velocity":70,"measure":81,"beat":1.75,"subject_pos":3,"motif":"subject","motif_pos":3,"best_pos":3,"similarity":1.0},{"voice":6,"pitch":80,"start":160.375,"duration":0.125,"velocity":90,"measure":81,"beat":1.75,"subject_pos":-1,"motif":"","motif_pos":-1,"best_pos":3,"similarity":0.443},{"voice":2,"pitch":89,"start":160.4375,"duration":0.0625,"velocity":70,"measure":81,"beat":1.875,"subject_pos":-1,"motif":"","motif_pos":-1,"best_pos":2,"similarity":0.164},{"voice":0,"pitch":88,"start":160.5,"duration":0.5,"velocity":95,"measure":81,"beat":2.0,"subject_pos":1,"motif":"subject","motif_pos":1,"best_pos":1,"similarity":1.0},{"voice":2,"pitch":62,"start":160.5,"duration":0.0625,"velocity":70,"measure":81,"beat":2.0,"subject_pos":-1,"motif":"","motif_pos":-1,"best_pos":5,"similarity":0.171},{"voice":4,"pitch":73,"start":160.5,"duration":0.125,"velocity":70,"measure":81,"beat":2.0,"subject_pos":4,"motif":"subject","motif_pos":4,"best_pos":4,"similarity":1.0},{"voice":5,"pitch":62,"start":160.5,"duration":0.25,"velocity":90,"measure":81,"beat":2.0,"subject_pos":-1,"motif":"","motif_pos":-1,"best_pos":5,"similarity":0.157},{"voice":5,"pitch":65,"start":160.5,"duration":0.25,"velocity":90,"measure":81,"beat":2.0,"subject_pos":-1,"motif":"","motif_pos":-1,"best_pos":6,"similarity":0.171},{"voice":5,"pitch":69,"start":160.5,"duration":0.25,"velocity":90,"measure":81,"beat":2.0,"subject_pos":-1,"motif":"","motif_pos":-1,"best_pos":0,"similarity":0.286},{"voice":5,"pitch":74,"start":160.5,"duration":0.25,"velocity":90,"measure":81,"beat":2.0,"subject_pos":-1,"motif":"","motif_pos":-1,"best_pos":1,"similarity":0.286},{"voice":5,"pitch":77,"start":160.5,"duration":0.25,"velocity":90,"measure":81,"beat":2.0,"subject_pos":-1,"motif":"","motif_pos":-1,"best_pos":6,"similarity":0.186},{"voice":5,"pitch":81,"start":160.5,"duration":0.25,"velocity":90,"measure":81,"beat":2.0,"subject_pos":-1,"motif":"","motif_pos":-1,"best_pos":1,"similarity":0.143},{"voice":6,"pitch":80,"start":160.5,"duration":0.125,"velocity":65,"measure":81,"beat":2.0,"subject_pos":-1,"motif":"","motif_pos":-1,"best_pos":4,"similarity":0.514},{"voice":7,"pitch":36,"start":160.5,"duration":0.25,"velocity":120,"measure":81,"beat":2.0,"subject_pos":-1,"motif":"","motif_pos":-1,"best_pos":4,"similarity":0.389},{"voice":8,"pitch":74,"start":160.5,"duration":0.25,"velocity":105,"measure":81,"beat":2.0,"subject_pos":-1,"motif":"","motif_pos":-1,"best_pos":4,"similarity":0.389},{"voice":10,"pitch":53,"start":160.5,"duration":0.25,"velocity":85,"measure":81,"beat":2.0,"subject_pos":2,"motif":"subject","motif_pos":2,"best_pos":2,"similarity":1.0},{"voice":11,"pitch":81,"start":160.5,"duration":0.5,"velocity":110,"measure":81,"beat":2.0,"subject_pos":1,"motif":"subject","motif_pos":1,"best_pos":1,"similarity":1.0},{"voice":2,"pitch":65,"start":160.5625,"duration":0.0625,"velocity":70,"measure":81,"beat":2.125,"subject_pos":-1,"motif":"","motif_pos":-1,"best_pos":6,"similarity":0.179},{"voice":2,"pitch":69,"start":160.625,"duration":0.0625,"velocity":70,"measure":81,"beat":2.25,"subject_pos":-1,"motif":"","motif_pos":-1,"best_pos":0,"similarity":0.286},{"voice":4,"pitch":74,"start":160.625,"duration":0.125,"velocity":70,"measure":81,"beat":2.25,"subject_pos":5,"motif":"subject","motif_pos":5,"best_pos":5,"similarity":1.0},{"voice":6,"pitch":80,"start":160.625,"duration":0.125,"velocity":90,"measure":81,"beat":2.25,"subject_pos":-1,"motif":"","motif_pos":-1,"best_pos":5,"similarity":0.55},{"voice":2,"pitch":74,"start":160.6875,"duration":0.0625,"velocity":70,"measure":81,"beat":2.375,"subject_pos":-1,"motif":"","motif_pos":-1,"best_pos":1,"similarity":0.286},{"voice":2,"pitch":77,"start":160.75,"duration":0.0625,"velocity":70,"measure":81,"beat":2.5,"subject_pos":-1,"motif":"","motif_pos":-1,"best_pos":6,"similarity":0.186},{"voice":4,"pitch":76,"start":160.75,"duration":0.125,"velocity":70,"measure":81,"beat":2.5,"subject_pos":6,"motif":"subject","motif_pos":6,"best_pos":6,"similarity":1.0},{"voice":6,"pitch":82,"start":160.75,"duration":0.125,"velocity":110,"measure":81,"beat":2.5,"subject_pos":-1,"motif":"","motif_pos":-1,"best_pos":6,"similarity":0.421},{"voice":10,"pitch":50,"start":160.75,"duration":0.25,"velocity":85,"measure":81,"beat":2.5,"subject_pos":3,"motif":"subject","motif_pos":3,"best_pos":3,"similarity":1.0},{"voice":2,"pitch":81,"start":160.8125,"duration":0.0625,"velocity":70,"measure":81,"beat":2.625,"subject_pos":-1,"motif":"","motif_pos":-1,"best_pos":0,"similarity":0.286},{"voice":2,"pitch":86,"start":160.875,"duration":0.0625,"velocity":70,"measure":81,"beat":2.75,"subject_pos":-1,"motif":"","motif_pos":-1,"best_pos":1,"similarity":0.293},{"voice":4,"pitch":77,"start":160.875,"duration":0.125,"velocity":70,"measure":81,"beat":2.75,"subject_pos":7,"motif":"subject","motif_pos":7,"best_pos":7,"similarity":1.0},{"voice":6,"pitch":80,"start":160.875,"duration":0.125,"velocity":90,"measure":81,"beat":2.75,"subject_pos":-1,"motif":"","motif_pos":-1,"best_pos":3,"similarity":0.443},{"voice":2,"pitch":89,"start":160.9375,"duration":0.0625,"velocity":70,"measure":81,"beat":2.875,"subject_pos":-1,"motif":"","motif_pos":-1,"best_pos":2,"similarity":0.164},{"voice":0,"pitch":84,"start":161.0,"duration":0.5,"velocity":95,"measure":81,"beat":3.0,"subject_pos":2,"motif":"subject","motif_pos":2,"best_pos":2,"similarity":1.0},{"voice":2,"pitch":62,"start":161.0,"duration":0.0625,"velocity":70,"measure":81,"beat":3.0,"subject_pos":-1,"motif":"","motif_pos":-1,"best_pos":5,"similarity":0.171},{"voice":4,"pitch":71,"start":161.0,"duration":0.125,"velocity":70,"measure":81,"beat":3.0,"subject_pos":0,"motif":"subject_inv","motif_pos":0,"best_pos":0,"similarity":1.0},{"voice":5,"pitch":62,"start":161.0,"duration":0.25,"velocity":90,"measure":81,"beat":3.0,"subject_pos":-1,"motif":"","motif_pos":-1,"best_pos":5,"similarity":0.157},{"voice":5,"pitch":65,"start":161.0,"duration":0.25,"velocity":90,"measure":81,"beat":3.0,"subject_pos":-1,"motif":"","motif_pos":-1,"best_pos":6,"similarity":0.171},{"voice":5,"pitch":69,"start":161.0,"duration":0.25,"velocity":90,"measure":81,"beat":3.0,"subject_pos":-1,"motif":"","motif_pos":-1,"best_pos":0,"similarity":0.286},{"voice":5,"pitch":74,"start":161.0,"duration":0.25,"velocity":90,"measure":81,"beat":3.0,"subject_pos":-1,"motif":"","motif_pos":-1,"best_pos":1,"similarity":0.286},{"voice":5,"pitch":77,"start":161.0,"duration":0.25,"velocity":90,"measure":81,"beat":3.0,"subject_pos":-1,"motif":"","motif_pos":-1,"best_pos":6,"similarity":0.186},{"voice":5,"pitch":81,"start":161.0,"duration":0.25,"velocity":90,"measure":81,"beat":3.0,"subject_pos":-1,"motif":"","motif_pos":-1,"best_pos":1,"similarity":0.143},{"voice":6,"pitch":80,"start":161.0,"duration":0.125,"velocity":65,"measure":81,"beat":3.0,"subject_pos":-1,"motif":"","motif_pos":-1,"best_pos":4,"similarity":0.514},{"voice":7,"pitch":36,"start":161.0,"duration":0.25,"velocity":120,"measure":81,"beat":3.0,"subject_pos":-1,"motif":"","motif_pos":-1,"best_pos":4,"similarity":0.389},{"voice":10,"pitch":49,"start":161.0,"duration":0.25,"velocity":85,"measure":81,"beat":3.0,"subject_pos":4,"motif":"subject","motif_pos":4,"best_pos":4,"similarity":1.0},{"voice":11,"pitch":77,"start":161.0,"duration":0.5,"velocity":110,"measure":81,"beat":3.0,"subject_pos":2,"motif":"subject","motif_pos":2,"best_pos":2,"similarity":1.0},{"voice":2,"pitch":65,"start":161.0625,"duration":0.0625,"velocity":70,"measure":81,"beat":3.125,"subject_pos":-1,"motif":"","motif_pos":-1,"best_pos":6,"similarity":0.179},{"voice":2,"pitch":69,"start":161.125,"duration":0.0625,"velocity":70,"measure":81,"beat":3.25,"subject_pos":-1,"motif":"","motif_pos":-1,"best_pos":0,"similarity":0.286},{"voice":4,"pitch":64,"start":161.125,"duration":0.125,"velocity":70,"measure":81,"beat":3.25,"subject_pos":1,"motif":"subject_inv","motif_pos":1,"best_pos":1,"similarity":1.0},{"voice":6,"pitch":80,"start":161.125,"duration":0.125,"velocity":90,"measure":81,"beat":3.25,"subject_pos":-1,"motif":"","motif_pos":-1,"best_pos":5,"similarity":0.55},{"voice":2,"pitch":74,"start":161.1875,"duration":0.0625,"velocity":70,"measure":81,"beat":3.375,"subject_pos":-1,"motif":"","motif_pos":-1,"best_pos":1,"similarity":0.286},{"voice":2,"pitch":77,"start":161.25,"duration":0.0625,"velocity":70,"measure":81,"beat":3.5,"subject_pos":-1,"motif":"","motif_pos":-1,"best_pos":6,"similarity":0.186},{"voice":4,"pitch":68,"start":161.25,"duration":0.125,"velocity":70,"measure":81,"beat":3.5,"subject_pos":2,"motif":"subject_inv","motif_pos":2,"best_pos":2,"similarity":1.0},{"voice":6,"pitch":82,"start":161.25,"duration":0.125,"velocity":110,"measure":81,"beat":3.5,"subject_pos":-1,"motif":"","motif_pos":-1,"best_pos":6,"similarity":0.421},{"voice":10,"pitch":50,"start":161.25,"duration":0.125,"velocity":85,"measure":81,"beat":3.5,"subject_pos":5,"motif":"subject","motif_pos":5,"best_pos":5,"similarity":1.0},{"voice":2,"pitch":81,"start":161.3125,"duration":0.0625,"velocity":70,"measure":81,"beat":3.625,"subject_pos":-1,"motif":"","motif_pos":-1,"best_pos":0,"similarity":0.286},{"voice":2,"pitch":86,"start":161.375,"duration":0.0625,"velocity":70,"measure":81,"beat":3.75,"subject_pos":-1,"motif":"","motif_pos":-1,"best_pos":1,"similarity":0.293},{"voice":4,"pitch":71,"start":161.375,"duration":0.125,"velocity":70,"measure":81,"beat":3.75,"subject_pos":3,"motif":"subject_inv","motif_pos":3,"best_pos":3,"similarity":1.0},{"voice":6,"pitch":80,"start":161.375,"duration":0.125,"velocity":90,"measure":81,"beat":3.75,"subject_pos":-1,"motif":"","motif_pos":-1,"best_pos":3,"similarity":0.443},{"voice":10,"pitch":52,"start":161.375,"duration":0.125,"velocity":85,"measure":81,"beat":3.75,"subject_pos":6,"motif":"subject","motif_pos":6,"best_pos":6,"similarity":1.0},{"voice":2,"pitch":89,"start":161.4375,"duration":0.0625,"velocity":70,"measure":81,"beat":3.875,"subject_pos":-1,"motif":"","motif_pos":-1,"best_pos":2,"similarity":0.164},{"voice":0,"pitch":81,"start":161.5,"duration":0.5,"velocity":95,"measure":81,"beat":4.0,"subject_pos":3,"motif":"subject","motif_pos":3,"best_pos":3,"similarity":1.0},{"voice":2,"pitch":62,"start":161.5,"duration":0.0625,"velocity":70,"measure":81,"beat":4.0,"subject_pos":-1,"motif":"","motif_pos":-1,"best_pos":5,"similarity":0.171},{"voice":4,"pitch":72,"start":161.5,"duration":0.125,"velocity":70,"measure":81,"beat":4.0,"subject_pos":4,"motif":"subject_inv","motif_pos":4,"best_pos":4,"similarity":1.0},{"voice":5,"pitch":62,"start":161.5,"duration":0.25,"velocity":90,"measure":81,"beat":4.0,"subject_pos":-1,"motif":"","motif_pos":-1,"best_pos":5,"similarity":0.157},{"voice":5,"pitch":65,"start":161.5,"duration":0.25,"velocity":90,"measure":81,"beat":4.0,"subject_pos":-1,"motif":"","motif_pos":-1,"best_pos":6,"similarity":0.171},{"voice":5,"pitch":69,"start":161.5,"duration":0.25,"velocity":90,"measure":81,"beat":4.0,"subject_pos":-1,"motif":"","motif_pos":-1,"best_pos":0,"similarity":0.286},{"voice":5,"pitch":74,"start":161.5,"duration":0.25,"velocity":90,"measure":81,"beat":4.0,"subject_pos":-1,"motif":"","motif_pos":-1,"best_pos":1,"similarity":0.286},{"voice":5,"pitch":77,"start":161.5,"duration":0.25,"velocity":90,"measure":81,"beat":4.0,"subject_pos":-1,"motif":"","motif_pos":-1,"best_pos":6,"similarity":0.186},{"voice":5,"pitch":81,"start":161.5,"duration":0.25,"velocity":90,"measure":81,"beat":4.0,"subject_pos":-1,"motif":"","motif_pos":-1,"best_pos":1,"similarity":0.15},{"voice":6,"pitch":80,"start":161.5,"duration":0.125,"velocity":65,"measure":81,"beat":4.0,"subject_pos":-1,"motif":"","motif_pos":-1,"best_pos":4,"similarity":0.514},{"voice":7,"pitch":36,"start":161.5,"duration":0.25,"velocity":120,"measure":81,"beat":4.0,"subject_pos":-1,"motif":"","motif_pos":-1,"best_pos":4,"similarity":0.389},{"voice":8,"pitch":74,"start":161.5,"duration":0.25,"velocity":105,"measure":81,"beat":4.0,"subject_pos":-1,"motif":"","motif_pos":-1,"best_pos":4,"similarity":0.389},{"voice":10,"pitch":53,"start":161.5,"duration":0.5,"velocity":85,"measure":81,"beat":4.0,"subject_pos":7,"motif":"subject","motif_pos":7,"best_pos":7,"similarity":1.0},{"voice":11,"pitch":74,"start":161.5,"duration":0.5,"velocity":110,"measure":81,"beat":4.0,"subject_pos":3,"motif":"subject","motif_pos":3,"best_pos":3,"similarity":1.0},{"voice":2,"pitch":65,"start":161.5625,"duration":0.0625,"velocity":70,"measure":81,"beat":4.125,"subject_pos":-1,"motif":"","motif_pos":-1,"best_pos":6,"similarity":0.179},{"voice":2,"pitch":69,"start":161.625,"duration":0.0625,"velocity":70,"measure":81,"beat":4.25,"subject_pos":-1,"motif":"","motif_pos":-1,"best_pos":0,"similarity":0.286},{"voice":4,"pitch":71,"start":161.625,"duration":0.125,"velocity":70,"measure":81,"beat":4.25,"subject_pos":5,"motif":"subject_inv","motif_pos":5,"best_pos":5,"similarity":1.0},{"voice":6,"pitch":80,"start":161.625,"duration":0.125,"velocity":90,"measure":81,"beat":4.25,"subject_pos":-1,"motif":"","motif_pos":-1,"best_pos":5,"similarity":0.55},{"voice":2,"pitch":74,"start":161.6875,"duration":0.0625,"velocity":70,"measure":81,"beat":4.375,"subject_pos":-1,"motif":"","motif_pos":-1,"best_pos":1,"similarity":0.286},{"voice":2,"pitch":77,"start":161.75,"duration":0.0625,"velocity":70,"measure":81,"beat":4.5,"subject_pos":-1,"motif":"","motif_pos":-1,"best_pos":6,"similarity":0.186},{"voice":4,"pitch":69,"start":161.75,"duration":0.125,"velocity":70,"measure":81,"beat":4.5,"subject_pos":6,"motif":"subject_inv","motif_pos":6,"best_pos":6,"similarity":1.0},{"voice":6,"pitch":82,"start":161.75,"duration":0.125,"velocity":110,"measure":81,"beat":4.5,"subject_pos":-1,"motif":"","motif_pos":-1,"best_pos":6,"similarity":0.421},{"voice":2,"pitch":81,"start":161.8125,"duration":0.0625,"velocity":70,"measure":81,"beat":4.625,"subject_pos":-1,"motif":"","motif_pos":-1,"best_pos":0,"similarity":0.286},{"voice":2,"pitch":86,"start":161.875,"duration":0.0625,"velocity":70,"measure":81,"beat":4.75,"subject_pos":-1,"motif":"","motif_pos":-1,"best_pos":1,"similarity":0.286},{"voice":4,"pitch":68,"start":161.875,"duration":0.125,"velocity":70,"measure":81,"beat":4.75,"subject_pos":7,"motif":"subject_inv","motif_pos":7,"best_pos":7,"similarity":1.0},{"voice":6,"pitch":80,"start":161.875,"duration":0.125,"velocity":90,"measure":81,"beat":4.75,"subject_pos":-1,"motif":"","motif_pos":-1,"best_pos":3,"similarity":0.443},{"voice":2,"pitch":89,"start":161.9375,"duration":0.0625,"velocity":70,"measure":81,"beat":4.875,"subject_pos":-1,"motif":"","motif_pos":-1,"best_pos":2,"similarity":0.161},{"voice":0,"pitch":80,"start":162.0,"duration":0.5,"velocity":95,"measure":82,"beat":1.0,"subject_pos":4,"motif":"subject","motif_pos":4,"best_pos":4,"similarity":1.0},{"voice":2,"pitch":70,"start":162.0,"duration":0.0625,"velocity":70,"measure":82,"beat":1.0,"subject_pos":-1,"motif":"","motif_pos":-1,"best_pos":0,"similarity":0.143},{"voice":3,"pitch":33,"start":162.0,"duration":2.0,"velocity":110,"measure":82,"beat":1.0,"subject_pos":1,"motif":"subject","motif_pos":1,"best_pos":1,"similarity":1.0},{"voice":4,"pitch":68,"start":162.0,"duration":0.125,"velocity":70,"measure":82,"beat":1.0,"subject_pos":0,"motif":"subject","motif_pos":0,"best_pos":0,"similarity":1.0},{"voice":5,"pitch":58,"start":162.0,"duration":0.25,"velocity":90,"measure":82,"beat":1.0,"subject_pos":-1,"motif":"","motif_pos":-1,"best_pos":0,"similarity":0.143},{"voice":5,"pitch":62,"start":162.0,"duration":0.25,"velocity":90,"measure":82,"beat":1.0,"subject_pos":-1,"motif":"","motif_pos":-1,"best_pos":5,"similarity":0.186},{"voice":5,"pitch":65,"start":162.0,"duration":0.25,"velocity":90,"measure":82,"beat":1.0,"subject_pos":-1,"motif":"","motif_pos":-1,"best_pos":0,"similarity":0.286},{"voice":5,"pitch":70,"start":162.0,"duration":0.25,"velocity":90,"measure":82,"beat":1.0,"subject_pos":-1,"motif":"","motif_pos":-1,"best_pos":1,"similarity":0.286},{"voice":5,"pitch":74,"start":162.0,"duration":0.25,"velocity":90,"measure":82,"beat":1.0,"subject_pos":-1,"motif":"","motif_pos":-1,"best_pos":5,"similarity":0.171},{"voice":5,"pitch":77,"start":162.0,"duration":0.25,"velocity":90,"measure":82,"beat":1.0,"subject_pos":-1,"motif":"","motif_pos":-1,"best_pos":6,"similarity":0.157},{"voice":6,"pitch":80,"start":162.0,"duration":0.125,"velocity":65,"measure":82,"beat":1.0,"subject_pos":-1,"motif":"","motif_pos":-1,"best_pos":4,"similarity":0.514},{"voice":7,"pitch":36,"start":162.0,"duration":0.25,"velocity":120,"measure":82,"beat":1.0,"subject_pos":-1,"motif":"","motif_pos":-1,"best_pos":4,"similarity":0.389},{"voice":10,"pitch":53,"start":162.0,"duration":0.25,"velocity":85,"measure":82,"beat":1.0,"subject_pos":0,"motif":"subject","motif_pos":0,"best_pos":0,"similarity":1.0},{"voice":11,"pitch":73,"start":162.0,"duration":0.5,"velocity":110,"measure":82,"beat":1.0,"subject_pos":4,"motif":"subject","motif_pos":4,"best_pos":4,"similarity":1.0},{"voice":2,"pitch":74,"start":162.0625,"duration":0.0625,"velocity":70,"measure":82,"beat":1.125,"subject_pos":-1,"motif":"","motif_pos":-1,"best_pos":5,"similarity":0.186},{"voice":2,"pitch":77,"start":162.125,"duration":0.0625,"velocity":70,"measure":82,"beat":1.25,"subject_pos":-1,"motif":"","motif_pos":-1,"best_pos":0,"similarity":0.286},{"voice":4,"pitch":75,"start":162.125,"duration":0.125,"velocity":70,"measure":82,"beat":1.25,"subject_pos":1,"motif":"subject","motif_pos":1,"best_pos":1,"similarity":1.0},{"voice":6,"pitch":80,"start":162.125,"duration":0.125,"velocity":90,"measure":82,"beat":1.25,"subject_pos":-1,"motif":"","motif_pos":-1,"best_pos":5,"similarity":0.55},{"voice":2,"pitch":82,"start":162.1875,"duration":0.0625,"velocity":70,"measure":82,"beat":1.375,"subject_pos":-1,"motif":"","motif_pos":-1,"best_pos":1,"similarity":0.286},{"voice":2,"pitch":86,"start":162.25,"duration":0.0625,"velocity":70,"measure":82,"beat":1.5,"subject_pos":-1,"motif":"","motif_pos":-1,"best_pos":5,"similarity":0.186},{"voice":4,"pitch":71,"start":162.25,"duration":0.125,"velocity":70,"measure":82,"beat":1.5,"subject_pos":2,"motif":"subject","motif_pos":2,"best_pos":2,"similarity":1.0},{"voice":6,"pitch":82,"start":162.25,"duration":0.125,"velocity":110,"measure":82,"beat":1.5,"subject_pos":-1,"motif":"","motif_pos":-1,"best_pos":6,"similarity":0.421},{"voice":10,"pitch":60,"start":162.25,"duration":0.25,"velocity":85,"measure":82,"beat":1.5,"subject_pos":1,"motif":"subject","motif_pos":1,"best_pos":1,"similarity":1.0},{"voice":2,"pitch":89,"start":162.3125,"duration":0.0625,"velocity":70,"measure":82,"beat":1.625,"subject_pos":-1,"motif":"","motif_pos":-1,"best_pos":0,"similarity":0.286},{"voice":2,"pitch":94,"start":162.375,"duration":0.0625,"velocity":70,"measure":82,"beat":1.75,"subject_pos":-1,"motif":"","motif_pos":-1,"best_pos":1,"similarity":0.286},{"voice":4,"pitch":68,"start":162.375,"duration":0.125,"velocity":70,"measure":82,"beat":1.75,"subject_pos":3,"motif":"subject","motif_pos":3,"best_pos":3,"similarity":1.0},{"voice":6,"pitch":80,"start":162.375,"duration":0.125,"velocity":90,"measure":82,"beat":1.75,"subject_pos":-1,"motif":"","motif_pos":-1,"best_pos":3,"similarity":0.443},{"voice":2,"pitch":98,"start":162.4375,"duration":0.0625,"velocity":70,"measure":82,"beat":1.875,"subject_pos":-1,"motif":"","motif_pos":-1,"best_pos":2,"similarity":0.161},{"voice":0,"pitch":81,"start":162.5,"duration":0.25,"velocity":95,"measure":82,"beat":2.0,"subject_pos":5,"motif":"subject","motif_pos":5,"best_pos":5,"similarity":1.0},{"voice":2,"pitch":70,"start":162.5,"duration":0.0625,"velocity":70,"measure":82,"beat":2.0,"subject_pos":-1,"motif":"","motif_pos":-1,"best_pos":0,"similarity":0.143},{"voice":4,"pitch":67,"start":162.5,"duration":0.125,"velocity":70,"measure":82,"beat":2.0,"subject_pos":4,"motif":"subject","motif_pos":4,"best_pos":4,"similarity":1.0},{"voice":5,"pitch":58,"start":162.5,"duration":0.25,"velocity":90,"measure":82,"beat":2.0,"subject_pos":-1,"motif":"","motif_pos":-1,"best_pos":0,"similarity":0.143},{"voice":5,"pitch":62,"start":162.5,"duration":0.25,"velocity":90,"measure":82,"beat":2.0,"subject_pos":-1,"motif":"","motif_pos":-1,"best_pos":5,"similarity":0.186},{"voice":5,"pitch":65,"start":162.5,"duration":0.25,"velocity":90,"measure":82,"beat":2.0,"subject_pos":-1,"motif":"","motif_pos":-1,"best_pos":0,"similarity":0.286},{"voice":5,"pitch":70,"start":162.5,"duration":0.25,"velocity":90,"measure":82,"beat":2.0,"subject_pos":-1,"motif":"","motif_pos":-1,"best_pos":1,"similarity":0.286},{"voice":5,"pitch":74,"start":162.5,"duration":0.25,"velocity":90,"measure":82,"beat":2.0,"subject_pos":-1,"motif":"","motif_pos":-1,"best_pos":5,"similarity":0.171},{"voice":5,"pitch":77,"start":162.5,"duration":0.25,"velocity":90,"measure":82,"beat":2.0,"subject_pos":-1,"motif":"","motif_pos":-1,"best_pos":6,"similarity":0.157},{"voice":6,"pitch":80,"start":162.5,"duration":0.125,"velocity":65,"measure":82,"beat":2.0,"subject_pos":-1,"motif":"","motif_pos":-1,"best_pos":4,"similarity":0.514},{"voice":7,"pitch":36,"start":162.5,"duration":0.25,"velocity":120,"measure":82,"beat":2.0,"subject_pos":-1,"motif":"","motif_pos":-1,"best_pos":4,"similarity":0.389},{"voice":8,"pitch":74,"start":162.5,"duration":0.25,"velocity":105,"measure":82,"beat":2.0,"subject_pos":-1,"motif":"","motif_pos":-1,"best_pos":4,"similarity":0.389},{"voice":10,"pitch":56,"start":162.5,"duration":0.25,"velocity":85,"measure":82,"beat":2.0,"subject_pos":2,"motif":"subject","motif_pos":2,"best_pos":2,"similarity":1.0},{"voice":11,"pitch":74,"start":162.5,"duration":0.25,"velocity":110,"measure":82,"beat":2.0,"subject_pos":5,"motif":"subject","motif_pos":5,"best_pos":5,"similarity":1.0},{"voice":2,"pitch":74,"start":162.5625,"duration":0.0625,"velocity":70,"measure":82,"beat":2.125,"subject_pos":-1,"motif":"","motif_pos":-1,"best_pos":5,"similarity":0.186},{"voice":2,"pitch":77,"start":162.625,"duration":0.0625,"velocity":70,"measure":82,"beat":2.25,"subject_pos":-1,"motif":"","motif_pos":-1,"best_pos":0,"similarity":0.286},{"voice":4,"pitch":68,"start":162.625,"duration":0.125,"velocity":70,"measure":82,"beat":2.25,"subject_pos":5,"motif":"subject","motif_pos":5,"best_pos":5,"similarity":1.0},{"voice":6,"pitch":80,"start":162.625,"duration":0.125,"velocity":90,"measure":82,"beat":2.25,"subject_pos":-1,"motif":"","motif_pos":-1,"best_pos":5,"similarity":0.55},{"voice":2,"pitch":82,"start":162.6875,"duration":0.0625,"velocity":70,"measure":82,"beat":2.375,"subject_pos":-1,"motif":"","motif_pos":-1,"best_pos":1,"similarity":0.286},{"voice":0,"pitch":83,"start":162.75,"duration":0.25,"velocity":95,"measure":82,"beat":2.5,"subject_pos":6,"motif":"subject","motif_pos":6,"best_pos":6,"similarity":1.0},{"voice":2,"pitch":86,"start":162.75,"duration":0.0625,"velocity":70,"measure":82,"beat":2.5,"subject_pos":-1,"motif":"","motif_pos":-1,"best_pos":5,"similarity":0.186},{"voice":4,"pitch":70,"start":162.75,"duration":0.125,"velocity":70,"measure":82,"beat":2.5,"subject_pos":6,"motif":"subject","motif_pos":6,"best_pos":6,"similarity":1.0},{"voice":6,"pitch":82,"start":162.75,"duration":0.125,"velocity":110,"measure":82,"beat":2.5,"subject_pos":-1,"motif":"","motif_pos":-1,"best_pos":6,"similarity":0.421},{"voice":10,"pitch":53,"start":162.75,"duration":0.25,"velocity":85,"measure":82,"beat":2.5,"subject_pos":3,"motif":"subject","motif_pos":3,"best_pos":3,"similarity":1.0},{"voice":11,"pitch":76,"start":162.75,"duration":0.25,"velocity":110,"measure":82,"beat":2.5,"subject_pos":6,"motif":"subject","motif_pos":6,"best_pos":6,"similarity":1.0},{"voice":2,"pitch":89,"start":162.8125,"duration":0.0625,"velocity":70,"measure":82,"beat":2.625,"subject_pos":-1,"motif":"","motif_pos":-1,"best_pos":0,"similarity":0.286},{"voice":2,"pitch":94,"start":162.875,"duration":0.0625,"velocity":70,"measure":82,"beat":2.75,"subject_pos":-1,"motif":"","motif_pos":-1,"best_pos":1,"similarity":0.286},{"voice":4,"pitch":71,"start":162.875,"duration":0.125,"velocity":70,"measure":82,"beat":2.75,"subject_pos":7,"motif":"subject","motif_pos":7,"best_pos":7,"similarity":1.0},{"voice":6,"pitch":80,"start":162.875,"duration":0.125,"velocity":90,"measure":82,"beat":2.75,"subject_pos":-1,"motif":"","motif_pos":-1,"best_pos":3,"similarity":0.443},{"voice":2,"pitch":98,"start":162.9375,"duration":0.0625,"velocity":70,"measure":82,"beat":2.875,"subject_pos":-1,"motif":"","motif_pos":-1,"best_pos":2,"similarity":0.161},{"voice":0,"pitch":84,"start":163.0,"duration":1.0,"velocity":95,"measure":82,"beat":3.0,"subject_pos":7,"motif":"subject","motif_pos":7,"best_pos":7,"similarity":1.0},{"voice":2,"pitch":70,"start":163.0,"duration":0.0625,"velocity":70,"measure":82,"beat":3.0,"subject_pos":-1,"motif":"","motif_pos":-1,"best_pos":0,"similarity":0.143},{"voice":4,"pitch":65,"start":163.0,"duration":0.125,"velocity":70,"measure":82,"beat":3.0,"subject_pos":0,"motif":"subject_inv","motif_pos":0,"best_pos":0,"similarity":1.0},{"voice":5,"pitch":58,"start":163.0,"duration":0.25,"velocity":90,"measure":82,"beat":3.0,"subject_pos":-1,"motif":"","motif_pos":-1,"best_pos":0,"similarity":0.143},{"voice":5,"pitch":62,"start":163.0,"duration":0.25,"velocity":90,"measure":82,"beat":3.0,"subject_pos":-1,"motif":"","motif_pos":-1,"best_pos":5,"similarity":0.186},{"voice":5,"pitch":65,"start":163.0,"duration":0.25,"velocity":90,"measure":82,"beat":3.0,"subject_pos":-1,"motif":"","motif_pos":-1,"best_pos":0,"similarity":0.286},{"voice":5,"pitch":70,"start":163.0,"duration":0.25,"velocity":90,"measure":82,"beat":3.0,"subject_pos":-1,"motif":"","motif_pos":-1,"best_pos":1,"similarity":0.286},{"voice":5,"pitch":74,"start":163.0,"duration":0.25,"velocity":90,"measure":82,"beat":3.0,"subject_pos":-1,"motif":"","motif_pos":-1,"best_pos":5,"similarity":0.171},{"voice":5,"pitch":77,"start":163.0,"duration":0.25,"velocity":90,"measure":82,"beat":3.0,"subject_pos":-1,"motif":"","motif_pos":-1,"best_pos":6,"similarity":0.157},{"voice":6,"pitch":80,"start":163.0,"duration":0.125,"velocity":65,"measure":82,"beat":3.0,"subject_pos":-1,"motif":"","motif_pos":-1,"best_pos":4,"similarity":0.514},{"voice":7,"pitch":36,"start":163.0,"duration":0.25,"velocity":120,"measure":82,"beat":3.0,"subject_pos":-1,"motif":"","motif_pos":-1,"best_pos":4,"similarity":0.389},{"voice":10,"pitch":52,"start":163.0,"duration":0.25,"velocity":85,"measure":82,"beat":3.0,"subject_pos":4,"motif":"subject","motif_pos":4,"best_pos":4,"similarity":1.0},{"voice":11,"pitch":77,"start":163.0,"duration":1.0,"velocity":110,"measure":82,"beat":3.0,"subject_pos":7,"motif":"subject","motif_pos":7,"best_pos":7,"similarity":1.0},{"voice":2,"pitch":74,"start":163.0625,"duration":0.0625,"velocity":70,"measure":82,"beat":3.125,"subject_pos":-1,"motif":"","motif_pos":-1,"best_pos":5,"similarity":0.186},{"voice":2,"pitch":77,"start":163.125,"duration":0.0625,"velocity":70,"measure":82,"beat":3.25,"subject_pos":-1,"motif":"","motif_pos":-1,"best_pos":0,"similarity":0.286},{"voice":4,"pitch":58,"start":163.125,"duration":0.125,"velocity":70,"measure":82,"beat":3.25,"subject_pos":1,"motif":"subject_inv","motif_pos":1,"best_pos":1,"similarity":1.0},{"voice":6,"pitch":80,"start":163.125,"duration":0.125,"velocity":90,"measure":82,"beat":3.25,"subject_pos":-1,"motif":"","motif_pos":-1,"best_pos":5,"similarity":0.55},{"voice":2,"pitch":82,"start":163.1875,"duration":0.0625,"velocity":70,"measure":82,"beat":3.375,"subject_pos":-1,"motif":"","motif_pos":-1,"best_pos":1,"similarity":0.286},{"voice":2,"pitch":86,"start":163.25,"duration":0.0625,"velocity":70,"measure":82,"beat":3.5,"subject_pos":-1,"motif":"","motif_pos":-1,"best_pos":5,"similarity":0.186},{"voice":4,"pitch":62,"start":163.25,"duration":0.125,"velocity":70,"measure":82,"beat":3.5,"subject_pos":2,"motif":"subject_inv","motif_pos":2,"best_pos":2,"similarity":1.0},{"voice":6,"pitch":82,"start":163.25,"duration":0.125,"velocity":110,"measure":82,"beat":3.5,"subject_pos":-1,"motif":"","motif_pos":-1,"best_pos":6,"similarity":0.421},{"voice":10,"pitch":53,"start":163.25,"duration":0.125,"velocity":85,"measure":82,"beat":3.5,"subject_pos":5,"motif":"subject","motif_pos":5,"best_pos":5,"similarity":1.0},{"voice":2,"pitch":89,"start":163.3125,"duration":0.0625,"velocity":70,"measure":82,"beat":3.625,"subject_pos":-1,"motif":"","motif_pos":-1,"best_pos":0,"similarity":0.286},{"voice":2,"pitch":94,"start":163.375,"duration":0.0625,"velocity":70,"measure":82,"beat":3.75,"subject_pos":-1,"motif":"","motif_pos":-1,"best_pos":1,"similarity":0.286},{"voice":4,"pitch":65,"start":163.375,"duration":0.125,"velocity":70,"measure":82,"beat":3.75,"subject_pos":3,"motif":"subject_inv","motif_pos":3,"best_pos":3,"similarity":1.0},{"voice":6,"pitch":80,"start":163.375,"duration":0.125,"velocity":90,"measure":82,"beat":3.75,"subject_pos":-1,"motif":"","motif_pos":-1,"best_pos":3,"similarity":0.443},{"voice":10,"pitch":55,"start":163.375,"duration":0.125,"velocity":85,"measure":82,"beat":3.75,"subject_pos":6,"motif":"subject","motif_pos":6,"best_pos":6,"similarity":1.0},{"voice":2,"pitch":98,"start":163.4375,"duration":0.0625,"velocity":70,"measure":82,"beat":3.875,"subject_pos":-1,"motif":"","motif_pos":-1,"best_pos":2,"similarity":0.161},{"voice":2,"pitch":70,"start":163.5,"duration":0.0625,"velocity":70,"measure":82,"beat":4.0,"subject_pos":-1,"motif":"","motif_pos":-1,"best_pos":0,"similarity":0.143},{"voice":4,"pitch":66,"start":163.5,"duration":0.125,"velocity":70,"measure":82,"beat":4.0,"subject_pos":4,"motif":"subject_inv","motif_pos":4,"best_pos":4,"similarity":1.0},{"voice":5,"pitch":58,"start":163.5,"duration":0.25,"velocity":90,"measure":82,"beat":4.0,"subject_pos":-1,"motif":"","motif_pos":-1,"best_pos":0,"similarity":0.143},{"voice":5,"pitch":62,"start":163.5,"duration":0.25,"velocity":90,"measure":82,"beat":4.0,"subject_pos":-1,"motif":"","motif_pos":-1,"best_pos":5,"similarity":0.186},{"voice":5,"pitch":65,"start":163.5,"duration":0.25,"velocity":90,"measure":82,"beat":4.0,"subject_pos":-1,"motif":"","motif_pos":-1,"best_pos":0,"similarity":0.286},{"voice":5,"pitch":70,"start":163.5,"duration":0.25,"velocity":90,"measure":82,"beat":4.0,"subject_pos":-1,"motif":"","motif_pos":-1,"best_pos":1,"similarity":0.286},{"voice":5,"pitch":74,"start":163.5,"duration":0.25,"velocity":90,"measure":82,"beat":4.0,"subject_pos":-1,"motif":"","motif_pos":-1,"best_pos":5,"similarity":0.171},{"voice":5,"pitch":77,"start":163.5,"duration":0.25,"velocity":90,"measure":82,"beat":4.0,"subject_pos":-1,"motif":"","motif_pos":-1,"best_pos":6,"similarity":0.157},{"voice":6,"pitch":80,"start":163.5,"duration":0.125,"velocity":65,"measure":82,"beat":4.0,"subject_pos":-1,"motif":"","motif_pos":-1,"best_pos":4,"similarity":0.514},{"voice":7,"pitch":36,"start":163.5,"duration":0.25,"velocity":120,"measure":82,"beat":4.0,"subject_pos":-1,"motif":"","motif_pos":-1,"best_pos":4,"similarity":0.389},{"voice":8,"pitch":74,"start":163.5,"duration":0.25,"velocity":105,"measure":82,"beat":4.0,"subject_pos":-1,"motif":"","motif_pos":-1,"best_pos":4,"similarity":0.389},{"voice":10,"pitch":56,"start":163.5,"duration":0.5,"velocity":85,"measure":82,"beat":4.0,"subject_pos":7,"motif":"subject","motif_pos":7,"best_pos":7,"similarity":1.0},{"voice":2,"pitch":74,"start":163.5625,"duration":0.0625,"velocity":70,"measure":82,"beat":4.125,"subject_pos":-1,"motif":"","motif_pos":-1,"best_pos":5,"similarity":0.186},{"voice":2,"pitch":77,"start":163.625,"duration":0.0625,"velocity":70,"measure":82,"beat":4.25,"subject_pos":-1,"motif":"","motif_pos":-1,"best_pos":0,"similarity":0.286},{"voice":4,"pitch":65,"start":163.625,"duration":0.125,"velocity":70,"measure":82,"beat":4.25,"subject_pos":5,"motif":"subject_inv","motif_pos":5,"best_pos":5,"similarity":1.0},{"voice":6,"pitch":80,"start":163.625,"duration":0.125,"velocity":90,"measure":82,"beat":4.25,"subject_pos":-1,"motif":"","motif_pos":-1,"best_pos":5,"similarity":0.55},{"voice":2,"pitch":82,"start":163.6875,"duration":0.0625,"velocity":70,"measure":82,"beat":4.375,"subject_pos":-1,"motif":"","motif_pos":-1,"best_pos":1,"similarity":0.286},{"voice":2,"pitch":86,"start":163.75,"duration":0.0625,"velocity":70,"measure":82,"beat":4.5,"subject_pos":-1,"motif":"","motif_pos":-1,"best_pos":5,"similarity":0.186},{"voice":4,"pitch":63,"start":163.75,"duration":0.125,"velocity":70,"measure":82,"beat":4.5,"subject_pos":6,"motif":"subject_inv","motif_pos":6,"best_pos":6,"similarity":1.0},{"voice":6,"pitch":82,"start":163.75,"duration":0.125,"velocity":110,"measure":82,"beat":4.5,"subject_pos":-1,"motif":"","motif_pos":-1,"best_pos":6,"similarity":0.421},{"voice":2,"pitch":89,"start":163.8125,"duration":0.0625,"velocity":70,"measure":82,"beat":4.625,"subject_pos":-1,"motif":"","motif_pos":-1,"best_pos":0,"similarity":0.286},{"voice":2,"pitch":94,"start":163.875,"duration":0.0625,"velocity":70,"measure":82,"beat":4.75,"subject_pos":-1,"motif":"","motif_pos":-1,"best_pos":1,"similarity":0.286},{"voice":4,"pitch":62,"start":163.875,"duration":0.125,"velocity":70,"measure":82,"beat":4.75,"subject_pos":7,"motif":"subject_inv","motif_pos":7,"best_pos":7,"similarity":1.0},{"voice":6,"pitch":80,"start":163.875,"duration":0.125,"velocity":90,"measure":82,"beat":4.75,"subject_pos":-1,"motif":"","motif_pos":-1,"best_pos":3,"similarity":0.443},{"voice":2,"pitch":98,"start":163.9375,"duration":0.0625,"velocity":70,"measure":82,"beat":4.875,"subject_pos":-1,"motif":"","motif_pos":-1,"best_pos":2,"similarity":0.161},{"voice":0,"pitch":76,"start":164.0,"duration":0.5,"velocity":90,"measure":83,"beat":1.0,"subject_pos":0,"motif":"subject_inv","motif_pos":0,"best_pos":0,"similarity":1.0},{"voice":2,"pitch":72,"start":164.0,"duration":0.0625,"velocity":70,"measure":83,"beat":1.0,"subject_pos":-1,"motif":"","motif_pos":-1,"best_pos":0,"similarity":0.143},{"voice":3,"pitch":29,"start":164.0,"duration":2.0,"velocity":110,"measure":83,"beat":1.0,"subject_pos":2,"motif":"subject","motif_pos":2,"best_pos":2,"similarity":1.0},{"voice":4,"pitch":62,"start":164.0,"duration":0.125,"velocity":70,"measure":83,"beat":1.0,"subject_pos":0,"motif":"subject","motif_pos":0,"best_pos":0,"similarity":1.0},{"voice":5,"pitch":60,"start":164.0,"duration":0.25,"velocity":90,"measure":83,"beat":1.0,"subject_pos":-1,"motif":"","motif_pos":-1,"best_pos":0,"similarity":0.143},{"voice":5,"pitch":64,"start":164.0,"duration":0.25,"velocity":90,"measure":83,"beat":1.0,"subject_pos":-1,"motif":"","motif_pos":-1,"best_pos":5,"similarity":0.207},{"voice":5,"pitch":67,"start":164.0,"duration":0.25,"velocity":90,"measure":83,"beat":1.0,"subject_pos":-1,"motif":"","motif_pos":-1,"best_pos":5,"similarity":0.286},{"voice":5,"pitch":70,"start":164.0,"duration":0.25,"velocity":90,"measure":83,"beat":1.0,"subject_pos":-1,"motif":"","motif_pos":-1,"best_pos":5,"similarity":0.386},{"voice":5,"pitch":72,"start":164.0,"duration":0.25,"velocity":90,"measure":83,"beat":1.0,"subject_pos":-1,"motif":"","motif_pos":-1,"best_pos":6,"similarity":0.357},{"voice":5,"pitch":76,"start":164.0,"duration":0.25,"velocity":90,"measure":83,"beat":1.0,"subject_pos":-1,"motif":"","motif_pos":-1,"best_pos":5,"similarity":0.221},{"voice":5,"pitch":79,"start":164.0,"duration":0.25,"velocity":90,"measure":83,"beat":1.0,"subject_pos":-1,"motif":"","motif_pos":-1,"best_pos":6,"similarity":0.236},{"voice":5,"pitch":82,"start":164.0,"duration":0.25,"velocity":90,"measure":83,"beat":1.0,"subject_pos":-1,"motif":"","motif_pos":-1,"best_pos":6,"similarity":0.179},{"voice":6,"pitch":80,"start":164.0,"duration":0.125,"velocity":65,"measure":83,"beat":1.0,"subject_pos":-1,"motif":"","motif_pos":-1,"best_pos":4,"similarity":0.514},{"voice":7,"pitch":36,"start":164.0,"duration":0.25,"velocity":120,"measure":83,"beat":1.0,"subject_pos":-1,"motif":"","motif_pos":-1,"best_pos":4,"similarity":0.389},{"voice":10,"pitch":56,"start":164.0,"duration":0.25,"velocity":85,"measure":83,"beat":1.0,"subject_pos":0,"motif":"subject","motif_pos":0,"best_pos":0,"similarity":1.0},{"voice":11,"pitch":69,"start":164.0,"duration":0.25,"velocity":105,"measure":83,"beat":1.0,"subject_pos":0,"motif":"subject_inv","motif_pos":0,"best_pos":0,"similarity":1.0},{"voice":2,"pitch":76,"start":164.0625,"duration":0.0625,"velocity":70,"measure":83,"beat":1.125,"subject_pos":-1,"motif":"","motif_pos":-1,"best_pos":5,"similarity":0.207},{"voice":2,"pitch":79,"start":164.125,"duration":0.0625,"velocity":70,"measure":83,"beat":1.25,"subject_pos":-1,"motif":"","motif_pos":-1,"best_pos":5,"similarity":0.286},{"voice":4,"pitch":69,"start":164.125,"duration":0.125,"velocity":70,"measure":83,"beat":1.25,"subject_pos":1,"motif":"subject","motif_pos":1,"best_pos":1,"similarity":1.0},{"voice":6,"pitch":80,"start":164.125,"duration":0.125,"velocity":90,"measure":83,"beat":1.25,"subject_pos":-1,"motif":"","motif_pos":-1,"best_pos":5,"similarity":0.55},{"voice":2,"pitch":82,"start":164.1875,"duration":0.0625,"velocity":70,"measure":83,"beat":1.375,"subject_pos":-1,"motif":"","motif_pos":-1,"best_pos":5,"similarity":0.386},{"voice":2,"pitch":84,"start":164.25,"duration":0.0625,"velocity":70,"measure":83,"beat":1.5,"subject_pos":-1,"motif":"","motif_pos":-1,"best_pos":6,"similarity":0.357},{"voice":4,"pitch":65,"start":164.25,"duration":0.125,"velocity":70,"measure":83,"beat":1.5,"subject_pos":2,"motif":"subject","motif_pos":2,"best_pos":2,"similarity":1.0},{"voice":6,"pitch":82,"start":164.25,"duration":0.125,"velocity":110,"measure":83,"beat":1.5,"subject_pos":-1,"motif":"","motif_pos":-1,"best_pos":6,"similarity":0.421},{"voice":10,"pitch":63,"start":164.25,"duration":0.25,"velocity":85,"measure":83,"beat":1.5,"subject_pos":1,"motif":"subject","motif_pos":1,"best_pos":1,"similarity":1.0},{"voice":11,"pitch":62,"start":164.25,"duration":0.25,"velocity":105,"measure":83,"beat":1.5,"subject_pos":1,"motif":"subject_inv","motif_pos":1,"best_pos":1,"similarity":1.0},{"voice":2,"pitch":88,"start":164.3125,"duration":0.0625,"velocity":70,"measure":83,"beat":1.625,"subject_pos":-1,"motif":"","motif_pos":-1,"best_pos":5,"similarity":0.221},{"voice":2,"pitch":91,"start":164.375,"duration":0.0625,"velocity":70,"measure":83,"beat":1.75,"subject_pos":-1,"motif":"","motif_pos":-1,"best_pos":5,"similarity":0.286},{"voice":4,"pitch":62,"start":164.375,"duration":0.125,"velocity":70,"measure":83,"beat":1.75,"subject_pos":3,"motif":"subject","motif_pos":3,"best_pos":3,"similarity":1.0},{"voice":6,"pitch":80,"start":164.375,"duration":0.125,"velocity":90,"measure":83,"beat":1.75,"subject_pos":-1,"motif":"","motif_pos":-1,"best_pos":3,"similarity":0.443},{"voice":2,"pitch":94,"start":164.4375,"duration":0.0625,"velocity":70,"measure":83,"beat":1.875,"subject_pos":-1,"motif":"","motif_pos":-1,"best_pos":5,"similarity":0.386},{"voice":0,"pitch":69,"start":164.5,"duration":0.5,"velocity":90,"measure":83,"beat":2.0,"subject_pos":1,"motif":"subject_inv","motif_pos":1,"best_pos":1,"similarity":1.0},{"voice":2,"pitch":96,"start":164.5,"duration":0.0625,"velocity":70,"measure":83,"beat":2.0,"subject_pos":-1,"motif":"","motif_pos":-1,"best_pos":6,"similarity":0.357},{"voice":4,"pitch":61,"start":164.5,"duration":0.125,"velocity":70,"measure":83,"beat":2.0,"subject_pos":4,"motif":"subject","motif_pos":4,"best_pos":4,"similarity":1.0},{"voice":5,"pitch":60,"start":164.5,"duration":0.25,"velocity":90,"measure":83,"beat":2.0,"subject_pos":-1,"motif":"","motif_pos":-1,"best_pos":0,"similarity":0.143},{"voice":5,"pitch":64,"start":164.5,"duration":0.25,"velocity":90,"measure":83,"beat":2.0,"subject_pos":-1,"motif":"","motif_pos":-1,"best_pos":5,"similarity":0.207},{"voice":5,"pitch":67,"start":164.5,"duration":0.25,"velocity":90,"measure":83,"beat":2.0,"subject_pos":-1,"motif":"","motif_pos":-1,"best_pos":5,"similarity":0.286},{"voice":5,"pitch":70,"start":164.5,"duration":0.25,"velocity":90,"measure":83,"beat":2.0,"subject_pos":-1,"motif":"","motif_pos":-1,"best_pos":5,"similarity":0.386},{"voice":5,"pitch":72,"start":164.5,"duration":0.25,"velocity":90,"measure":83,"beat":2.0,"subject_pos":-1,"motif":"","motif_pos":-1,"best_pos":6,"similarity":0.357},{"voice":5,"pitch":76,"start":164.5,"duration":0.25,"velocity":90,"measure":83,"beat":2.0,"subject_pos":-1,"motif":"","motif_pos":-1,"best_pos":5,"similarity":0.221},{"voice":5,"pitch":79,"start":164.5,"duration":0.25,"velocity":90,"measure":83,"beat":2.0,"subject_pos":-1,"motif":"","motif_pos":-1,"best_pos":6,"similarity":0.236},{"voice":5,"pitch":82,"start":164.5,"duration":0.25,"velocity":90,"measure":83,"beat":2.0,"subject_pos":-1,"motif":"","motif_pos":-1,"best_pos":6,"similarity":0.179},{"voice":6,"pitch":80,"start":164.5,"duration":0.125,"velocity":65,"measure":83,"beat":2.0,"subject_pos":-1,"motif":"","motif_pos":-1,"best_pos":4,"similarity":0.514},{"voice":7,"pitch":36,"start":164.5,"duration":0.25,"velocity":120,"measure":83,"beat":2.0,"subject_pos":-1,"motif":"","motif_pos":-1,"best_pos":4,"similarity":0.389},{"voice":8,"pitch":74,"start":164.5,"duration":0.25,"velocity":105,"measure":83,"beat":2.0,"subject_pos":-1,"motif":"","motif_pos":-1,"best_pos":4,"similarity":0.389},{"voice":10,"pitch":59,"start":164.5,"duration":0.25,"velocity":85,"measure":83,"beat":2.0,"subject_pos":2,"motif":"subject","motif_pos":2,"best_pos":2,"similarity":1.0},{"voice":11,"pitch":66,"start":164.5,"duration":0.25,"velocity":105,"measure":83,"beat":2.0,"subject_pos":2,"motif":"subject_inv","motif_pos":2,"best_pos":2,"similarity":1.0},{"voice":2,"pitch":100,"start":164.5625,"duration":0.0625,"velocity":70,"measure":83,"beat":2.125,"subject_pos":-1,"motif":"","motif_pos":-1,"best_pos":7,"similarity":0.189},{"voice":2,"pitch":72,"start":164.625,"duration":0.0625,"velocity":70,"measure":83,"beat":2.25,"subject_pos":-1,"motif":"","motif_pos":-1,"best_pos":0,"similarity":0.143},{"voice":4,"pitch":62,"start":164.625,"duration":0.125,"velocity":70,"measure":83,"beat":2.25,"subject_pos":5,"motif":"subject","motif_pos":5,"best_pos":5,"similarity":1.0},{"voice":6,"pitch":80,"start":164.625,"duration":0.125,"velocity":90,"measure":83,"beat":2.25,"subject_pos":-1,"motif":"","motif_pos":-1,"best_pos":5,"similarity":0.55},{"voice":2,"pitch":76,"start":164.6875,"duration":0.0625,"velocity":70,"measure":83,"beat":2.375,"subject_pos":-1,"motif":"","motif_pos":-1,"best_pos":5,"similarity":0.207},{"voice":2,"pitch":79,"start":164.75,"duration":0.0625,"velocity":70,"measure":83,"beat":2.5,"subject_pos":-1,"motif":"","motif_pos":-1,"best_pos":5,"similarity":0.286},{"voice":4,"pitch":64,"start":164.75,"duration":0.125,"velocity":70,"measure":83,"beat":2.5,"subject_pos":6,"motif":"subject","motif_pos":6,"best_pos":6,"similarity":1.0},{"voice":6,"pitch":82,"start":164.75,"duration":0.125,"velocity":110,"measure":83,"beat":2.5,"subject_pos":-1,"motif":"","motif_pos":-1,"best_pos":6,"similarity":0.421},{"voice":10,"pitch":56,"start":164.75,"duration":0.25,"velocity":85,"measure":83,"beat":2.5,"subject_pos":3,"motif":"subject","motif_pos":3,"best_pos":3,"similarity":1.0},{"voice":11,"pitch":69,"start":164.75,"duration":0.25,"velocity":105,"measure":83,"beat":2.5,"subject_pos":3,"motif":"subject_inv","motif_pos":3,"best_pos":3,"similarity":1.0},{"voice":2,"pitch":82,"start":164.8125,"duration":0.0625,"velocity":70,"measure":83,"beat":2.625,"subject_pos":-1,"motif":"","motif_pos":-1,"best_pos":5,"similarity":0.386},{"voice":2,"pitch":84,"start":164.875,"duration":0.0625,"velocity":70,"measure":83,"beat":2.75,"subject_pos":-1,"motif":"","motif_pos":-1,"best_pos":6,"similarity":0.357},{"voice":4,"pitch":65,"start":164.875,"duration":0.125,"velocity":70,"measure":83,"beat":2.75,"subject_pos":7,"motif":"subject","motif_pos":7,"best_pos":7,"similarity":1.0},{"voice":6,"pitch":80,"start":164.875,"duration":0.125,"velocity":90,"measure":83,"beat":2.75,"subject_pos":-1,"motif":"","motif_pos":-1,"best_pos":3,"similarity":0.443},{"voice":2,"pitch":88,"start":164.9375,"duration":0.0625,"velocity":70,"measure":83,"beat":2.875,"subject_pos":-1,"motif":"","motif_pos":-1,"best_pos":5,"similarity":0.221},{"voice":0,"pitch":73,"start":165.0,"duration":0.5,"velocity":90,"measure":83,"beat":3.0,"subject_pos":2,"motif":"subject_inv","motif_pos":2,"best_pos":2,"similarity":1.0},{"voice":2,"pitch":91,"start":165.0,"duration":0.0625,"velocity":70,"measure":83,"beat":3.0,"subject_pos":-1,"motif":"","motif_pos":-1,"best_pos":5,"similarity":0.286},{"voice":4,"pitch":74,"start":165.0,"duration":0.125,"velocity":70,"measure":83,"beat":3.0,"subject_pos":0,"motif":"subject_inv","motif_pos":0,"best_pos":0,"similarity":1.0},{"voice":5,"pitch":60,"start":165.0,"duration":0.25,"velocity":90,"measure":83,"beat":3.0,"subject_pos":-1,"motif":"","motif_pos":-1,"best_pos":0,"similarity":0.143},{"voice":5,"pitch":64,"start":165.0,"duration":0.25,"velocity":90,"measure":83,"beat":3.0,"subject_pos":-1,"motif":"","motif_pos":-1,"best_pos":5,"similarity":0.207},{"voice":5,"pitch":67,"start":165.0,"duration":0.25,"velocity":90,"measure":83,"beat":3.0,"subject_pos":-1,"motif":"","motif_pos":-1,"best_pos":5,"similarity":0.286},{"voice":5,"pitch":70,"start":165.0,"duration":0.25,"velocity":90,"measure":83,"beat":3.0,"subject_pos":-1,"motif":"","motif_pos":-1,"best_pos":5,"similarity":0.386},{"voice":5,"pitch":72,"start":165.0,"duration":0.25,"velocity":90,"measure":83,"beat":3.0,"subject_pos":-1,"motif":"","motif_pos":-1,"best_pos":6,"similarity":0.357},{"voice":5,"pitch":76,"start":165.0,"duration":0.25,"velocity":90,"measure":83,"beat":3.0,"subject_pos":-1,"motif":"","motif_pos":-1,"best_pos":5,"similarity":0.221},{"voice":5,"pitch":79,"start":165.0,"duration":0.25,"velocity":90,"measure":83,"beat":3.0,"subject_pos":-1,"motif":"","motif_pos":-1,"best_pos":6,"similarity":0.236},{"voice":5,"pitch":82,"start":165.0,"duration":0.25,"velocity":90,"measure":83,"beat":3.0,"subject_pos":-1,"motif":"","motif_pos":-1,"best_pos":6,"similarity":0.179},{"voice":6,"pitch":80,"start":165.0,"duration":0.125,"velocity":65,"measure":83,"beat":3.0,"subject_pos":-1,"motif":"","motif_pos":-1,"best_pos":4,"similarity":0.514},{"voice":7,"pitch":36,"start":165.0,"duration":0.25,"velocity":120,"measure":83,"beat":3.0,"subject_pos":-1,"motif":"","motif_pos":-1,"best_pos":4,"similarity":0.389},{"voice":10,"pitch":55,"start":165.0,"duration":0.25,"velocity":85,"measure":83,"beat":3.0,"subject_pos":4,"motif":"subject","motif_pos":4,"best_pos":4,"similarity":1.0},{"voice":11,"pitch":70,"start":165.0,"duration":0.25,"velocity":105,"measure":83,"beat":3.0,"subject_pos":4,"motif":"subject_inv","motif_pos":4,"best_pos":4,"similarity":1.0},{"voice":2,"pitch":94,"start":165.0625,"duration":0.0625,"velocity":70,"measure":83,"beat":3.125,"subject_pos":-1,"motif":"","motif_pos":-1,"best_pos":5,"similarity":0.386},{"voice":2,"pitch":96,"start":165.125,"duration":0.0625,"velocity":70,"measure":83,"beat":3.25,"subject_pos":-1,"motif":"","motif_pos":-1,"best_pos":6,"similarity":0.357},{"voice":4,"pitch":67,"start":165.125,"duration":0.125,"velocity":70,"measure":83,"beat":3.25,"subject_pos":1,"motif":"subject_inv","motif_pos":1,"best_pos":1,"similarity":1.0},{"voice":6,"pitch":80,"start":165.125,"duration":0.125,"velocity":90,"measure":83,"beat":3.25,"subject_pos":-1,"motif":"","motif_pos":-1,"best_pos":5,"similarity":0.55},{"voice":2,"pitch":100,"start":165.1875,"duration":0.0625,"velocity":70,"measure":83,"beat":3.375,"subject_pos":-1,"motif":"","motif_pos":-1,"best_pos":7,"similarity":0.189},{"voice":2,"pitch":72,"start":165.25,"duration":0.0625,"velocity":70,"measure":83,"beat":3.5,"subject_pos":-1,"motif":"","motif_pos":-1,"best_pos":0,"similarity":0.143},{"voice":4,"pitch":71,"start":165.25,"duration":0.125,"velocity":70,"measure":83,"beat":3.5,"subject_pos":2,"motif":"subject_inv","motif_pos":2,"best_pos":2,"similarity":1.0},{"voice":6,"pitch":82,"start":165.25,"duration":0.125,"velocity":110,"measure":83,"beat":3.5,"subject_pos":-1,"motif":"","motif_pos":-1,"best_pos":6,"similarity":0.421},{"voice":10,"pitch":56,"start":165.25,"duration":0.125,"velocity":85,"measure":83,"beat":3.5,"subject_pos":5,"motif":"subject","motif_pos":5,"best_pos":5,"similarity":1.0},{"voice":11,"pitch":69,"start":165.25,"duration":0.125,"velocity":105,"measure":83,"beat":3.5,"subject_pos":5,"motif":"subject_inv","motif_pos":5,"best_pos":5,"similarity":1.0},{"voice":2,"pitch":76,"start":165.3125,"duration":0.0625,"velocity":70,"measure":83,"beat":3.625,"subject_pos":-1,"motif":"","motif_pos":-1,"best_pos":5,"similarity":0.207},{"voice":2,"pitch":79,"start":165.375,"duration":0.0625,"velocity":70,"measure":83,"beat":3.75,"subject_pos":-1,"motif":"","motif_pos":-1,"best_pos":5,"similarity":0.286},{"voice":4,"pitch":74,"start":165.375,"duration":0.125,"velocity":70,"measure":83,"beat":3.75,"subject_pos":3,"motif":"subject_inv","motif_pos":3,"best_pos":3,"similarity":1.0},{"voice":6,"pitch":80,"start":165.375,"duration":0.125,"velocity":90,"measure":83,"beat":3.75,"subject_pos":-1,"motif":"","motif_pos":-1,"best_pos":3,"similarity":0.443},{"voice":10,"pitch":58,"start":165.375,"duration":0.125,"velocity":85,"measure":83,"beat":3.75,"subject_pos":6,"motif":"subject","motif_pos":6,"best_pos":6,"similarity":1.0},{"voice":11,"pitch":67,"start":165.375,"duration":0.125,"velocity":105,"measure":83,"beat":3.75,"subject_pos":6,"motif":"subject_inv","motif_pos":6,"best_pos":6,"similarity":1.0},{"voice":2,"pitch":82,"start":165.4375,"duration":0.0625,"velocity":70,"measure":83,"beat":3.875,"subject_pos":-1,"motif":"","motif_pos":-1,"best_pos":5,"similarity":0.386},{"voice":0,"pitch":76,"start":165.5,"duration":0.5,"velocity":90,"measure":83,"beat":4.0,"subject_pos":3,"motif":"subject_inv","motif_pos":3,"best_pos":3,"similarity":1.0},{"voice":2,"pitch":84,"start":165.5,"duration":0.0625,"velocity":70,"measure":83,"beat":4.0,"subject_pos":-1,"motif":"","motif_pos":-1,"best_pos":6,"similarity":0.357},{"voice":4,"pitch":75,"start":165.5,"duration":0.125,"velocity":70,"measure":83,"beat":4.0,"subject_pos":4,"motif":"subject_inv","motif_pos":4,"best_pos":4,"similarity":1.0},{"voice":5,"pitch":60,"start":165.5,"duration":0.25,"velocity":90,"measure":83,"beat":4.0,"subject_pos":-1,"motif":"","motif_pos":-1,"best_pos":0,"similarity":0.143},{"voice":5,"pitch":64,"start":165.5,"duration":0.25,"velocity":90,"measure":83,"beat":4.0,"subject_pos":-1,"motif":"","motif_pos":-1,"best_pos":5,"similarity":0.207},{"voice":5,"pitch":67,"start":165.5,"duration":0.25,"velocity":90,"measure":83,"beat":4.0,"subject_pos":-1,"motif":"","motif_pos":-1,"best_pos":5,"similarity":0.286},{"voice":5,"pitch":70,"start":165.5,"duration":0.25,"velocity":90,"measure":83,"beat":4.0,"subject_pos":-1,"motif":"","motif_pos":-1,"best_pos":5,"similarity":0.386},{"voice":5,"pitch":72,"start":165.5,"duration":0.25,"velocity":90,"measure":83,"beat":4.0,"subject_pos":-1,"motif":"","motif_pos":-1,"best_pos":6,"similarity":0.357},{"voice":5,"pitch":76,"start":165.5,"duration":0.25,"velocity":90,"measure":83,"beat":4.0,"subject_pos":-1,"motif":"","motif_pos":-1,"best_pos":5,"similarity":0.221},{"voice":5,"pitch":79,"start":165.5,"duration":0.25,"velocity":90,"measure":83,"beat":4.0,"subject_pos":-1,"motif":"","motif_pos":-1,"best_pos":6,"similarity":0.236},{"voice":5,"pitch":82,"start":165.5,"duration":0.25,"velocity":90,"measure":83,"beat":4.0,"subject_pos":-1,"motif":"","motif_pos":-1,"best_pos":6,"similarity":0.179},{"voice":6,"pitch":80,"start":165.5,"duration":0.125,"velocity":65,"measure":83,"beat":4.0,"subject_pos":-1,"motif":"","motif_pos":-1,"best_pos":4,"similarity":0.514},{"voice":7,"pitch":36,"start":165.5,"duration":0.25,"velocity":120,"measure":83,"beat":4.0,"subject_pos":-1,"motif":"","motif_pos":-1,"best_pos":4,"similarity":0.389},{"voice":8,"pitch":74,"start":165.5,"duration":0.25,"velocity":105,"measure":83,"beat":4.0,"subject_pos":-1,"motif":"","motif_pos":-1,"best_pos":4,"similarity":0.389},{"voice":10,"pitch":59,"start":165.5,"duration":0.5,"velocity":85,"measure":83,"beat":4.0,"subject_pos":7,"motif":"subject","motif_pos":7,"best_pos":7,"similarity":1.0},{"voice":11,"pitch":66,"start":165.5,"duration":0.5,"velocity":105,"measure":83,"beat":4.0,"subject_pos":7,"motif":"subject_inv","motif_pos":7,"best_pos":7,"similarity":1.0},{"voice":2,"pitch":88,"start":165.5625,"duration":0.0625,"velocity":70,"measure":83,"beat":4.125,"subject_pos":-1,"motif":"","motif_pos":-1,"best_pos":5,"similarity":0.221},{"voice":2,"pitch":91,"start":165.625,"duration":0.0625,"velocity":70,"measure":83,"beat":4.25,"subject_pos":-1,"motif":"","motif_pos":-1,"best_pos":5,"similarity":0.286},{"voice":4,"pitch":74,"start":165.625,"duration":0.125,"velocity":70,"measure":83,"beat":4.25,"subject_pos":5,"motif":"subject_inv","motif_pos":5,"best_pos":5,"similarity":1.0},{"voice":6,"pitch":80,"start":165.625,"duration":0.125,"velocity":90,"measure":83,"beat":4.25,"subject_pos":-1,"motif":"","motif_pos":-1,"best_pos":5,"similarity":0.55},{"voice":2,"pitch":94,"start":165.6875,"duration":0.0625,"velocity":70,"measure":83,"beat":4.375,"subject_pos":-1,"motif":"","motif_pos":-1,"best_pos":5,"similarity":0.386},{"voice":2,"pitch":96,"start":165.75,"duration":0.0625,"velocity":70,"measure":83,"beat":4.5,"subject_pos":-1,"motif":"","motif_pos":-1,"best_pos":6,"similarity":0.357},{"voice":4,"pitch":72,"start":165.75,"duration":0.125,"velocity":70,"measure":83,"beat":4.5,"subject_pos":6,"motif":"subject_inv","motif_pos":6,"best_pos":6,"similarity":1.0},{"voice":6,"pitch":82,"start":165.75,"duration":0.125,"velocity":110,"measure":83,"beat":4.5,"subject_pos":-1,"motif":"","motif_pos":-1,"best_pos":6,"similarity":0.421},{"voice":2,"pitch":100,"start":165.8125,"duration":0.0625,"velocity":70,"measure":83,"beat":4.625,"subject_pos":-1,"motif":"","motif_pos":-1,"best_pos":7,"similarity":0.189},{"voice":2,"pitch":72,"start":165.875,"duration":0.0625,"velocity":70,"measure":83,"beat":4.75,"subject_pos":-1,"motif":"","motif_pos":-1,"best_pos":0,"similarity":0.157},{"voice":4,"pitch":71,"start":165.875,"duration":0.125,"velocity":70,"measure":83,"beat":4.75,"subject_pos":7,"motif":"subject_inv","motif_pos":7,"best_pos":7,"similarity":1.0},{"voice":6,"pitch":80,"start":165.875,"duration":0.125,"velocity":90,"measure":83,"beat":4.75,"subject_pos":-1,"motif":"","motif_pos":-1,"best_pos":3,"similarity":0.443},{"voice":2,"pitch":76,"start":165.9375,"duration":0.0625,"velocity":70,"measure":83,"beat":4.875,"subject_pos":-1,"motif":"","motif_pos":-1,"best_pos":1,"similarity":0.179},{"voice":0,"pitch":77,"start":166.0,"duration":0.5,"velocity":90,"measure":84,"beat":1.0,"subject_pos":4,"motif":"subject_inv","motif_pos":4,"best_pos":4,"similarity":1.0},{"voice":2,"pitch":69,"start":166.0,"duration":0.0625,"velocity":70,"measure":84,"beat":1.0,"subject_pos":-1,"motif":"","motif_pos":-1,"best_pos":0,"similarity":0.143},{"voice":3,"pitch":26,"start":166.0,"duration":2.0,"velocity":110,"measure":84,"beat":1.0,"subject_pos":3,"motif":"subject","motif_pos":3,"best_pos":3,"similarity":1.0},{"voice":4,"pitch":71,"start":166.0,"duration":0.125,"velocity":70,"measure":84,"beat":1.0,"subject_pos":0,"motif":"subject","motif_pos":0,"best_pos":0,"similarity":1.0},{"voice":5,"pitch":57,"start":166.0,"duration":0.25,"velocity":90,"measure":84,"beat":1.0,"subject_pos":-1,"motif":"","motif_pos":-1,"best_pos":0,"similarity":0.143},{"voice":5,"pitch":61,"start":166.0,"duration":0.25,"velocity":90,"measure":84,"beat":1.0,"subject_pos":-1,"motif":"","motif_pos":-1,"best_pos":5,"similarity":0.207},{"voice":5,"pitch":64,"start":166.0,"duration":0.25,"velocity":90,"measure":84,"beat":1.0,"subject_pos":-1,"motif":"","motif_pos":-1,"best_pos":5,"similarity":0.286},{"voice":5,"pitch":67,"start":166.0,"duration":0.25,"velocity":90,"measure":84,"beat":1.0,"subject_pos":-1,"motif":"","motif_pos":-1,"best_pos":5,"similarity":0.386},{"voice":5,"pitch":69,"start":166.0,"duration":0.25,"velocity":90,"measure":84,"beat":1.0,"subject_pos":-1,"motif":"","motif_pos":-1,"best_pos":6,"similarity":0.357},{"voice":5,"pitch":73,"start":166.0,"duration":0.25,"velocity":90,"measure":84,"beat":1.0,"subject_pos":-1,"motif":"","motif_pos":-1,"best_pos":5,"similarity":0.221},{"voice":5,"pitch":76,"start":166.0,"duration":0.25,"velocity":90,"measure":84,"beat":1.0,"subject_pos":-1,"motif":"","motif_pos":-1,"best_pos":6,"similarity":0.236},{"voice":5,"pitch":79,"start":166.0,"duration":0.25,"velocity":90,"measure":84,"beat":1.0,"subject_pos":-1,"motif":"","motif_pos":-1,"best_pos":6,"similarity":0.179},{"voice":6,"pitch":80,"start":166.0,"duration":0.125,"velocity":65,"measure":84,"beat":1.0,"subject_pos":-1,"motif":"","motif_pos":-1,"best_pos":4,"similarity":0.514},{"voice":7,"pitch":36,"start":166.0,"duration":0.25,"velocity":120,"measure":84,"beat":1.0,"subject_pos":-1,"motif":"","motif_pos":-1,"best_pos":4,"similarity":0.389},{"voice":10,"pitch":50,"start":166.0,"duration":0.25,"velocity":85,"measure":84,"beat":1.0,"subject_pos":0,"motif":"subject","motif_pos":0,"best_pos":0,"similarity":1.0},{"voice":11,"pitch":81,"start":166.0,"duration":0.5,"velocity":100,"measure":84,"beat":1.0,"subject_pos":0,"motif":"subject","motif_pos":0,"best_pos":0,"similarity":1.0},{"voice":2,"pitch":73,"start":166.0625,"duration":0.0625,"velocity":70,"measure":84,"beat":1.125,"subject_pos":-1,"motif":"","motif_pos":-1,"best_pos":5,"similarity":0.207},{"voice":2,"pitch":76,"start":166.125,"duration":0.0625,"velocity":70,"measure":84,"beat":1.25,"subject_pos":-1,"motif":"","motif_pos":-1,"best_pos":5,"similarity":0.293},{"voice":4,"pitch":78,"start":166.125,"duration":0.125,"velocity":70,"measure":84,"beat":1.25,"subject_pos":1,"motif":"subject","motif_pos":1,"best_pos":1,"similarity":1.0},{"voice":6,"pitch":80,"start":166.125,"duration":0.125,"velocity":90,"measure":84,"beat":1.25,"subject_pos":-1,"motif":"","motif_pos":-1,"best_pos":5,"similarity":0.55},{"voice":2,"pitch":79,"start":166.1875,"duration":0.0625,"velocity":70,"measure":84,"beat":1.375,"subject_pos":-1,"motif":"","motif_pos":-1,"best_pos":5,"similarity":0.386},{"voice":2,"pitch":81,"start":166.25,"duration":0.0625,"velocity":70,"measure":84,"beat":1.5,"subject_pos":-1,"motif":"","motif_pos":-1,"best_pos":6,"similarity":0.357},{"voice":4,"pitch":74,"start":166.25,"duration":0.125,"velocity":70,"measure":84,"beat":1.5,"subject_pos":2,"motif":"subject","motif_pos":2,"best_pos":2,"similarity":1.0},{"voice":6,"pitch":82,"start":166.25,"duration":0.125,"velocity":110,"measure":84,"beat":1.5,"subject_pos":-1,"motif":"","motif_pos":-1,"best_pos":6,"similarity":0.421},{"voice":10,"pitch":57,"start":166.25,"duration":0.25,"velocity":85,"measure":84,"beat":1.5,"subject_pos":1,"motif":"subject","motif_pos":1,"best_pos":1,"similarity":1.0},{"voice":2,"pitch":85,"start":166.3125,"duration":0.0625,"velocity":70,"measure":84,"beat":1.625,"subject_pos":-1,"motif":"","motif_pos":-1,"best_pos":5,"similarity":0.221},{"voice":2,"pitch":88,"start":166.375,"duration":0.0625,"velocity":70,"measure":84,"beat":1.75,"subject_pos":-1,"motif":"","motif_pos":-1,"best_pos":5,"similarity":0.286},{"voice":4,"pitch":71,"start":166.375,"duration":0.125,"velocity":70,"measure":84,"beat":1.75,"subject_pos":3,"motif":"subject","motif_pos":3,"best_pos":3,"similarity":1.0},{"voice":6,"pitch":80,"start":166.375,"duration":0.125,"velocity":90,"measure":84,"beat":1.75,"subject_pos":-1,"motif":"","motif_pos":-1,"best_pos":3,"similarity":0.443},{"voice":2,"pitch":91,"start":166.4375,"duration":0.0625,"velocity":70,"measure":84,"beat":1.875,"subject_pos":-1,"motif":"","motif_pos":-1,"best_pos":5,"similarity":0.386},{"voice":0,"pitch":76,"start":166.5,"duration":0.25,"velocity":90,"measure":84,"beat":2.0,"subject_pos":5,"motif":"subject_inv","motif_pos":5,"best_pos":5,"similarity":1.0},{"voice":2,"pitch":93,"start":166.5,"duration":0.0625,"velocity":70,"measure":84,"beat":2.0,"subject_pos":-1,"motif":"","motif_pos":-1,"best_pos":6,"similarity":0.357},{"voice":4,"pitch":70,"start":166.5,"duration":0.125,"velocity":70,"measure":84,"beat":2.0,"subject_pos":4,"motif":"subject","motif_pos":4,"best_pos":4,"similarity":1.0},{"voice":5,"pitch":57,"start":166.5,"duration":0.25,"velocity":90,"measure":84,"beat":2.0,"subject_pos":-1,"motif":"","motif_pos":-1,"best_pos":0,"similarity":0.143},{"voice":5,"pitch":61,"start":166.5,"duration":0.25,"velocity":90,"measure":84,"beat":2.0,"subject_pos":-1,"motif":"","motif_pos":-1,"best_pos":5,"similarity":0.207},{"voice":5,"pitch":64,"start":166.5,"duration":0.25,"velocity":90,"measure":84,"beat":2.0,"subject_pos":-1,"motif":"","motif_pos":-1,"best_pos":5,"similarity":0.286},{"voice":5,"pitch":67,"start":166.5,"duration":0.25,"velocity":90,"measure":84,"beat":2.0,"subject_pos":-1,"motif":"","motif_pos":-1,"best_pos":5,"similarity":0.386},{"voice":5,"pitch":69,"start":166.5,"duration":0.25,"velocity":90,"measure":84,"beat":2.0,"subject_pos":-1,"motif":"","motif_pos":-1,"best_pos":6,"similarity":0.357},{"voice":5,"pitch":73,"start":166.5,"duration":0.25,"velocity":90,"measure":84,"beat":2.0,"subject_pos":-1,"motif":"","motif_pos":-1,"best_pos":5,"similarity":0.221},{"voice":5,"pitch":76,"start":166.5,"duration":0.25,"velocity":90,"measure":84,"beat":2.0,"subject_pos":-1,"motif":"","motif_pos":-1,"best_pos":6,"similarity":0.236},{"voice":5,"pitch":79,"start":166.5,"duration":0.25,"velocity":90,"measure":84,"beat":2.0,"subject_pos":-1,"motif":"","motif_pos":-1,"best_pos":6,"similarity":0.179},{"voice":6,"pitch":80,"start":166.5,"duration":0.125,"velocity":65,"measure":84,"beat":2.0,"subject_pos":-1,"motif":"","motif_pos":-1,"best_pos":4,"similarity":0.514},{"voice":7,"pitch":36,"start":166.5,"duration":0.25,"velocity":120,"measure":84,"beat":2.0,"subject_pos":-1,"motif":"","motif_pos":-1,"best_pos":4,"similarity":0.389},{"voice":8,"pitch":74,"start":166.5,"duration":0.25,"velocity":105,"measure":84,"beat":2.0,"subject_pos":-1,"motif":"","motif_pos":-1,"best_pos":4,"similarity":0.389},{"voice":10,"pitch":53,"start":166.5,"duration":0.25,"velocity":85,"measure":84,"beat":2.0,"subject_pos":2,"motif":"subject","motif_pos":2,"best_pos":2,"similarity":1.0},{"voice":11,"pitch":88,"start":166.5,"duration":0.5,"velocity":100,"measure":84,"beat":2.0,"subject_pos":1,"motif":"subject","motif_pos":1,"best_pos":1,"similarity":1.0},{"voice":2,"pitch":97,"start":166.5625,"duration":0.0625,"velocity":70,"measure":84,"beat":2.125,"subject_pos":-1,"motif":"","motif_pos":-1,"best_pos":7,"similarity":0.189},{"voice":2,"pitch":69,"start":166.625,"duration":0.0625,"velocity":70,"measure":84,"beat":2.25,"subject_pos":-1,"motif":"","motif_pos":-1,"best_pos":0,"similarity":0.143},{"voice":4,"pitch":71,"start":166.625,"duration":0.125,"velocity":70,"measure":84,"beat":2.25,"subject_pos":5,"motif":"subject","motif_pos":5,"best_pos":5,"similarity":1.0},{"voice":6,"pitch":80,"start":166.625,"duration":0.125,"velocity":90,"measure":84,"beat":2.25,"subject_pos":-1,"motif":"","motif_pos":-1,"best_pos":5,"similarity":0.55},{"voice":2,"pitch":73,"start":166.6875,"duration":0.0625,"velocity":70,"measure":84,"beat":2.375,"subject_pos":-1,"motif":"","motif_pos":-1,"best_pos":5,"similarity":0.207},{"voice":0,"pitch":74,"start":166.75,"duration":0.25,"velocity":90,"measure":84,"beat":2.5,"subject_pos":6,"motif":"subject_inv","motif_pos":6,"best_pos":6,"similarity":1.0},{"voice":2,"pitch":76,"start":166.75,"duration":0.0625,"velocity":70,"measure":84,"beat":2.5,"subject_pos":-1,"motif":"","motif_pos":-1,"best_pos":5,"similarity":0.286},{"voice":4,"pitch":73,"start":166.75,"duration":0.125,"velocity":70,"measure":84,"beat":2.5,"subject_pos":6,"motif":"subject","motif_pos":6,"best_pos":6,"similarity":1.0},{"voice":6,"pitch":82,"start":166.75,"duration":0.125,"velocity":110,"measure":84,"beat":2.5,"subject_pos":-1,"motif":"","motif_pos":-1,"best_pos":6,"similarity":0.421},{"voice":10,"pitch":50,"start":166.75,"duration":0.25,"velocity":85,"measure":84,"beat":2.5,"subject_pos":3,"motif":"subject","motif_pos":3,"best_pos":3,"similarity":1.0},{"voice":2,"pitch":79,"start":166.8125,"duration":0.0625,"velocity":70,"measure":84,"beat":2.625,"subject_pos":-1,"motif":"","motif_pos":-1,"best_pos":5,"similarity":0.386},{"voice":2,"pitch":81,"start":166.875,"duration":0.0625,"velocity":70,"measure":84,"beat":2.75,"subject_pos":-1,"motif":"","motif_pos":-1,"best_pos":6,"similarity":0.357},{"voice":4,"pitch":74,"start":166.875,"duration":0.125,"velocity":70,"measure":84,"beat":2.75,"subject_pos":7,"motif":"subject","motif_pos":7,"best_pos":7,"similarity":1.0},{"voice":6,"pitch":80,"start":166.875,"duration":0.125,"velocity":90,"measure":84,"beat":2.75,"subject_pos":-1,"motif":"","motif_pos":-1,"best_pos":3,"similarity":0.443},{"voice":2,"pitch":85,"start":166.9375,"duration":0.0625,"velocity":70,"measure":84,"beat":2.875,"subject_pos":-1,"motif":"","motif_pos":-1,"best_pos":5,"similarity":0.221},{"voice":0,"pitch":73,"start":167.0,"duration":1.0,"velocity":90,"measure":84,"beat":3.0,"subject_pos":7,"motif":"subject_inv","motif_pos":7,"best_pos":7,"similarity":1.0},{"voice":2,"pitch":88,"start":167.0,"duration":0.0625,"velocity":70,"measure":84,"beat":3.0,"subject_pos":-1,"motif":"","motif_pos":-1,"best_pos":5,"similarity":0.286},{"voice":4,"pitch":68,"start":167.0,"duration":0.125,"velocity":70,"measure":84,"beat":3.0,"subject_pos":0,"motif":"subject_inv","motif_pos":0,"best_pos":0,"similarity":1.0},{"voice":5,"pitch":57,"start":167.0,"duration":0.25,"velocity":90,"measure":84,"beat":3.0,"subject_pos":-1,"motif":"","motif_pos":-1,"best_pos":0,"similarity":0.143},{"voice":5,"pitch":61,"start":167.0,"duration":0.25,"velocity":90,"measure":84,"beat":3.0,"subject_pos":-1,"motif":"","motif_pos":-1,"best_pos":5,"similarity":0.207},{"voice":5,"pitch":64,"start":167.0,"duration":0.25,"velocity":90,"measure":84,"beat":3.0,"subject_pos":-1,"motif":"","motif_pos":-1,"best_pos":5,"similarity":0.286},{"voice":5,"pitch":67,"start":167.0,"duration":0.25,"velocity":90,"measure":84,"beat":3.0,"subject_pos":-1,"motif":"","motif_pos":-1,"best_pos":5,"similarity":0.386},{"voice":5,"pitch":69,"start":167.0,"duration":0.25,"velocity":90,"measure":84,"beat":3.0,"subject_pos":-1,"motif":"","motif_pos":-1,"best_pos":6,"similarity":0.357},{"voice":5,"pitch":73,"start":167.0,"duration":0.25,"velocity":90,"measure":84,"beat":3.0,"subject_pos":-1,"motif":"","motif_pos":-1,"best_pos":5,"similarity":0.221},{"voice":5,"pitch":76,"start":167.0,"duration":0.25,"velocity":90,"measure":84,"beat":3.0,"subject_pos":-1,"motif":"","motif_pos":-1,"best_pos":6,"similarity":0.236},{"voice":5,"pitch":79,"start":167.0,"duration":0.25,"velocity":90,"measure":84,"beat":3.0,"subject_pos":-1,"motif":"","motif_pos":-1,"best_pos":6,"similarity":0.179},{"voice":6,"pitch":80,"start":167.0,"duration":0.125,"velocity":65,"measure":84,"beat":3.0,"subject_pos":-1,"motif":"","motif_pos":-1,"best_pos":4,"similarity":0.514},{"voice":7,"pitch":36,"start":167.0,"duration":0.25,"velocity":120,"measure":84,"beat":3.0,"subject_pos":-1,"motif":"","motif_pos":-1,"best_pos":4,"similarity":0.389},{"voice":10,"pitch":49,"start":167.0,"duration":0.25,"velocity":85,"measure":84,"beat":3.0,"subject_pos":4,"motif":"subject","motif_pos":4,"best_pos":4,"similarity":1.0},{"voice":11,"pitch":84,"start":167.0,"duration":0.5,"velocity":100,"measure":84,"beat":3.0,"subject_pos":2,"motif":"subject","motif_pos":2,"best_pos":2,"similarity":1.0},{"voice":2,"pitch":91,"start":167.0625,"duration":0.0625,"velocity":70,"measure":84,"beat":3.125,"subject_pos":-1,"motif":"","motif_pos":-1,"best_pos":5,"similarity":0.386},{"voice":2,"pitch":93,"start":167.125,"duration":0.0625,"velocity":70,"measure":84,"beat":3.25,"subject_pos":-1,"motif":"","motif_pos":-1,"best_pos":6,"similarity":0.357},{"voice":4,"pitch":61,"start":167.125,"duration":0.125,"velocity":70,"measure":84,"beat":3.25,"subject_pos":1,"motif":"subject_inv","motif_pos":1,"best_pos":1,"similarity":1.0},{"voice":6,"pitch":80,"start":167.125,"duration":0.125,"velocity":90,"measure":84,"beat":3.25,"subject_pos":-1,"motif":"","motif_pos":-1,"best_pos":5,"similarity":0.55},{"voice":2,"pitch":97,"start":167.1875,"duration":0.0625,"velocity":70,"measure":84,"beat":3.375,"subject_pos":-1,"motif":"","motif_pos":-1,"best_pos":7,"similarity":0.189},{"voice":2,"pitch":69,"start":167.25,"duration":0.0625,"velocity":70,"measure":84,"beat":3.5,"subject_pos":-1,"motif":"","motif_pos":-1,"best_pos":0,"similarity":0.143},{"voice":4,"pitch":65,"start":167.25,"duration":0.125,"velocity":70,"measure":84,"beat":3.5,"subject_pos":2,"motif":"subject_inv","motif_pos":2,"best_pos":2,"similarity":1.0},{"voice":6,"pitch":82,"start":167.25,"duration":0.125,"velocity":110,"measure":84,"beat":3.5,"subject_pos":-1,"motif":"","motif_pos":-1,"best_pos":6,"similarity":0.421},{"voice":10,"pitch":50,"start":167.25,"duration":0.125,"velocity":85,"measure":84,"beat":3.5,"subject_pos":5,"motif":"subject","motif_pos":5,"best_pos":5,"similarity":1.0},{"voice":2,"pitch":73,"start":167.3125,"duration":0.0625,"velocity":70,"measure":84,"beat":3.625,"subject_pos":-1,"motif":"","motif_pos":-1,"best_pos":5,"similarity":0.207},{"voice":2,"pitch":76,"start":167.375,"duration":0.0625,"velocity":70,"measure":84,"beat":3.75,"subject_pos":-1,"motif":"","motif_pos":-1,"best_pos":5,"similarity":0.286},{"voice":4,"pitch":68,"start":167.375,"duration":0.125,"velocity":70,"measure":84,"beat":3.75,"subject_pos":3,"motif":"subject_inv","motif_pos":3,"best_pos":3,"similarity":1.0},{"voice":6,"pitch":80,"start":167.375,"duration":0.125,"velocity":90,"measure":84,"beat":3.75,"subject_pos":-1,"motif":"","motif_pos":-1,"best_pos":3,"similarity":0.443},{"voice":10,"pitch":52,"start":167.375,"duration":0.125,"velocity":85,"measure":84,"beat":3.75,"subject_pos":6,"motif":"subject","motif_pos":6,"best_pos":6,"similarity":1.0},{"voice":2,"pitch":79,"start":167.4375,"duration":0.0625,"velocity":70,"measure":84,"beat":3.875,"subject_pos":-1,"motif":"","motif_pos":-1,"best_pos":5,"similarity":0.386},{"voice":2,"pitch":81,"start":167.5,"duration":0.0625,"velocity":70,"measure":84,"beat":4.0,"subject_pos":-1,"motif":"","motif_pos":-1,"best_pos":6,"similarity":0.357},{"voice":4,"pitch":69,"start":167.5,"duration":0.125,"velocity":70,"measure":84,"beat":4.0,"subject_pos":4,"motif":"subject_inv","motif_pos":4,"best_pos":4,"similarity":1.0},{"voice":5,"pitch":57,"start":167.5,"duration":0.25,"velocity":90,"measure":84,"beat":4.0,"subject_pos":-1,"motif":"","motif_pos":-1,"best_pos":0,"similarity":0.143},{"voice":5,"pitch":61,"start":167.5,"duration":0.25,"velocity":90,"measure":84,"beat":4.0,"subject_pos":-1,"motif":"","motif_pos":-1,"best_pos":5,"similarity":0.207},{"voice":5,"pitch":64,"start":167.5,"duration":0.25,"velocity":90,"measure":84,"beat":4.0,"subject_pos":-1,"motif":"","motif_pos":-1,"best_pos":5,"similarity":0.286},{"voice":5,"pitch":67,"start":167.5,"duration":0.25,"velocity":90,"measure":84,"beat":4.0,"subject_pos":-1,"motif":"","motif_pos":-1,"best_pos":5,"similarity":0.386},{"voice":5,"pitch":69,"start":167.5,"duration":0.25,"velocity":90,"measure":84,"beat":4.0,"subject_pos":-1,"motif":"","motif_pos":-1,"best_pos":6,"similarity":0.357},{"voice":5,"pitch":73,"start":167.5,"duration":0.25,"velocity":90,"measure":84,"beat":4.0,"subject_pos":-1,"motif":"","motif_pos":-1,"best_pos":5,"similarity":0.221},{"voice":5,"pitch":76,"start":167.5,"duration":0.25,"velocity":90,"measure":84,"beat":4.0,"subject_pos":-1,"motif":"","motif_pos":-1,"best_pos":6,"similarity":0.236},{"voice":5,"pitch":79,"start":167.5,"duration":0.25,"velocity":90,"measure":84,"beat":4.0,"subject_pos":-1,"motif":"","motif_pos":-1,"best_pos":6,"similarity":0.179},{"voice":6,"pitch":80,"start":167.5,"duration":0.125,"velocity":65,"measure":84,"beat":4.0,"subject_pos":-1,"motif":"","motif_pos":-1,"best_pos":4,"similarity":0.514},{"voice":7,"pitch":36,"start":167.5,"duration":0.25,"velocity":120,"measure":84,"beat":4.0,"subject_pos":-1,"motif":"","motif_pos":-1,"best_pos":4,"similarity":0.389},{"voice":8,"pitch":74,"start":167.5,"duration":0.25,"velocity":105,"measure":84,"beat":4.0,"subject_pos":-1,"motif":"","motif_pos":-1,"best_pos":4,"similarity":0.389},{"voice":10,"pitch":53,"start":167.5,"duration":0.5,"velocity":85,"measure":84,"beat":4.0,"subject_pos":7,"motif":"subject","motif_pos":7,"best_pos":7,"similarity":1.0},{"voice":11,"pitch":81,"start":167.5,"duration":0.5,"velocity":100,"measure":84,"beat":4.0,"subject_pos":3,"motif":"subject","motif_pos":3,"best_pos":3,"similarity":1.0},{"voice":2,"pitch":85,"start":167.5625,"duration":0.0625,"velocity":70,"measure":84,"beat":4.125,"subject_pos":-1,"motif":"","motif_pos":-1,"best_pos":5,"similarity":0.221},{"voice":2,"pitch":88,"start":167.625,"duration":0.0625,"velocity":70,"measure":84,"beat":4.25,"subject_pos":-1,"motif":"","motif_pos":-1,"best_pos":5,"similarity":0.286},{"voice":4,"pitch":68,"start":167.625,"duration":0.125,"velocity":70,"measure":84,"beat":4.25,"subject_pos":5,"motif":"subject_inv","motif_pos":5,"best_pos":5,"similarity":1.0},{"voice":6,"pitch":80,"start":167.625,"duration":0.125,"velocity":90,"measure":84,"beat":4.25,"subject_pos":-1,"motif":"","motif_pos":-1,"best_pos":5,"similarity":0.55},{"voice":2,"pitch":91,"start":167.6875,"duration":0.0625,"velocity":70,"measure":84,"beat":4.375,"subject_pos":-1,"motif":"","motif_pos":-1,"best_pos":5,"similarity":0.386},{"voice":2,"pitch":93,"start":167.75,"duration":0.0625,"velocity":70,"measure":84,"beat":4.5,"subject_pos":-1,"motif":"","motif_pos":-1,"best_pos":6,"similarity":0.357},{"voice":4,"pitch":66,"start":167.75,"duration":0.125,"velocity":70,"measure":84,"beat":4.5,"subject_pos":6,"motif":"subject_inv","motif_pos":6,"best_pos":6,"similarity":1.0},{"voice":6,"pitch":82,"start":167.75,"duration":0.125,"velocity":110,"measure":84,"beat":4.5,"subject_pos":-1,"motif":"","motif_pos":-1,"best_pos":6,"similarity":0.421},{"voice":2,"pitch":97,"start":167.8125,"duration":0.0625,"velocity":70,"measure":84,"beat":4.625,"subject_pos":-1,"motif":"","motif_pos":-1,"best_pos":7,"similarity":0.189},{"voice":2,"pitch":69,"start":167.875,"duration":0.0625,"velocity":70,"measure":84,"beat":4.75,"subject_pos":-1,"motif":"","motif_pos":-1,"best_pos":0,"similarity":0.143},{"voice":4,"pitch":65,"start":167.875,"duration":0.125,"velocity":70,"measure":84,"beat":4.75,"subject_pos":7,"motif":"subject_inv","motif_pos":7,"best_pos":7,"similarity":1.0},{"voice":6,"pitch":80,"start":167.875,"duration":0.125,"velocity":90,"measure":84,"beat":4.75,"subject_pos":-1,"motif":"","motif_pos":-1,"best_pos":3,"similarity":0.443},{"voice":2,"pitch":73,"start":167.9375,"duration":0.0625,"velocity":70,"measure":84,"beat":4.875,"subject_pos":-1,"motif":"","motif_pos":-1,"best_pos":1,"similarity":0.143},{"voice":0,"pitch":81,"start":168.0,"duration":0.5,"velocity":88,"measure":85,"beat":1.0,"subject_pos":0,"motif":"subject","motif_pos":0,"best_pos":0,"similarity":1.0},{"voice":1,"pitch":50,"start":168.0,"duration":8.0,"velocity":45,"measure":85,"beat":1.0,"subject_pos":-1,"motif":"","motif_pos":-1,"best_pos":5,"similarity":0.157},{"voice":1,"pitch":53,"start":168.0,"duration":8.0,"velocity":45,"measure":85,"beat":1.0,"subject_pos":-1,"motif":"","motif_pos":-1,"best_pos":6,"similarity":0.171},{"voice":1,"pitch":57,"start":168.0,"duration":8.0,"velocity":45,"measure":85,"beat":1.0,"subject_pos":-1,"motif":"","motif_pos":-1,"best_pos":0,"similarity":0.286},{"voice":1,"pitch":62,"start":168.0,"duration":8.0,"velocity":45,"measure":85,"beat":1.0,"subject_pos":-1,"motif":"","motif_pos":-1,"best_pos":1,"similarity":0.286},{"voice":1,"pitch":65,"start":168.0,"duration":8.0,"velocity":45,"measure":85,"beat":1.0,"subject_pos":-1,"motif":"","motif_pos":-1,"best_pos":6,"similarity":0.186},{"voice":1,"pitch":69,"start":168.0,"duration":8.0,"velocity":45,"measure":85,"beat":1.0,"subject_pos":-1,"motif":"","motif_pos":-1,"best_pos":0,"similarity":0.286},{"voice":1,"pitch":74,"start":168.0,"duration":8.0,"velocity":45,"measure":85,"beat":1.0,"subject_pos":-1,"motif":"","motif_pos":-1,"best_pos":1,"similarity":0.286},{"voice":1,"pitch":77,"start":168.0,"duration":8.0,"velocity":45,"measure":85,"beat":1.0,"subject_pos":-1,"motif":"","motif_pos":-1,"best_pos":6,"similarity":0.186},{"voice":1,"pitch":81,"start":168.0,"duration":8.0,"velocity":45,"measure":85,"beat":1.0,"subject_pos":-1,"motif":"","motif_pos":-1,"best_pos":0,"similarity":0.286},{"voice":1,"pitch":86,"start":168.0,"duration":8.0,"velocity":45,"measure":85,"beat":1.0,"subject_pos":-1,"motif":"","motif_pos":-1,"best_pos":1,"similarity":0.286},{"voice":1,"pitch":89,"start":168.0,"duration":8.0,"velocity":45,"measure":85,"beat":1.0,"subject_pos":-1,"motif":"","motif_pos":-1,"best_pos":6,"similarity":0.186},{"voice":1,"pitch":93,"start":168.0,"duration":8.0,"velocity":45,"measure":85,"beat":1.0,"subject_pos":-1,"motif":"","motif_pos":-1,"best_pos":1,"similarity":0.143},{"voice":2,"pitch":62,"start":168.0,"duration":0.0625,"velocity":70,"measure":85,"beat":1.0,"subject_pos":-1,"motif":"","motif_pos":-1,"best_pos":5,"similarity":0.157},{"voice":3,"pitch":25,"start":168.0,"duration":2.0,"velocity":110,"measure":85,"beat":1.0,"subject_pos":4,"motif":"subject","motif_pos":4,"best_pos":4,"similarity":1.0},{"voice":4,"pitch":65,"start":168.0,"duration":0.125,"velocity":70,"measure":85,"beat":1.0,"subject_pos":0,"motif":"subject","motif_pos":0,"best_pos":0,"similarity":1.0},{"voice":5,"pitch":62,"start":168.0,"duration":0.25,"velocity":90,"measure":85,"beat":1.0,"subject_pos":-1,"motif":"","motif_pos":-1,"best_pos":5,"similarity":0.171},{"voice":5,"pitch":65,"start":168.0,"duration":0.25,"velocity":90,"measure":85,"beat":1.0,"subject_pos":-1,"motif":"","motif_pos":-1,"best_pos":6,"similarity":0.179},{"voice":5,"pitch":69,"start":168.0,"duration":0.25,"velocity":90,"measure":85,"beat":1.0,"subject_pos":-1,"motif":"","motif_pos":-1,"best_pos":0,"similarity":0.286},{"voice":5,"pitch":74,"start":168.0,"duration":0.25,"velocity":90,"measure":85,"beat":1.0,"subject_pos":-1,"motif":"","motif_pos":-1,"best_pos":1,"similarity":0.286},{"voice":5,"pitch":77,"start":168.0,"duration":0.25,"velocity":90,"measure":85,"beat":1.0,"subject_pos":-1,"motif":"","motif_pos":-1,"best_pos":6,"similarity":0.186},{"voice":5,"pitch":81,"start":168.0,"duration":0.25,"velocity":90,"measure":85,"beat":1.0,"subject_pos":-1,"motif":"","motif_pos":-1,"best_pos":1,"similarity":0.143},{"voice":6,"pitch":80,"start":168.0,"duration":0.125,"velocity":65,"measure":85,"beat":1.0,"subject_pos":-1,"motif":"","motif_pos":-1,"best_pos":4,"similarity":0.514},{"voice":7,"pitch":36,"start":168.0,"duration":0.25,"velocity":120,"measure":85,"beat":1.0,"subject_pos":-1,"motif":"","motif_pos":-1,"best_pos":4,"similarity":0.389},{"voice":10,"pitch":53,"start":168.0,"duration":0.25,"velocity":85,"measure":85,"beat":1.0,"subject_pos":0,"motif":"subject","motif_pos":0,"best_pos":0,"similarity":1.0},{"voice":11,"pitch":80,"start":168.0,"duration":0.5,"velocity":100,"measure":85,"beat":1.0,"subject_pos":4,"motif":"subject","motif_pos":4,"best_pos":4,"similarity":1.0},{"voice":2,"pitch":65,"start":168.0625,"duration":0.0625,"velocity":70,"measure":85,"beat":1.125,"subject_pos":-1,"motif":"","motif_pos":-1,"best_pos":6,"similarity":0.171},{"voice":2,"pitch":69,"start":168.125,"duration":0.0625,"velocity":70,"measure":85,"beat":1.25,"subject_pos":-1,"motif":"","motif_pos":-1,"best_pos":0,"similarity":0.286},{"voice":4,"pitch":72,"start":168.125,"duration":0.125,"velocity":70,"measure":85,"beat":1.25,"subject_pos":1,"motif":"subject","motif_pos":1,"best_pos":1,"similarity":1.0},{"voice":6,"pitch":80,"start":168.125,"duration":0.125,"velocity":90,"measure":85,"beat":1.25,"subject_pos":-1,"motif":"","motif_pos":-1,"best_pos":5,"similarity":0.55},{"voice":2,"pitch":74,"start":168.1875,"duration":0.0625,"velocity":70,"measure":85,"beat":1.375,"subject_pos":-1,"motif":"","motif_pos":-1,"best_pos":1,"similarity":0.286},{"voice":2,"pitch":77,"start":168.25,"duration":0.0625,"velocity":70,"measure":85,"beat":1.5,"subject_pos":-1,"motif":"","motif_pos":-1,"best_pos":6,"similarity":0.186},{"voice":4,"pitch":68,"start":168.25,"duration":0.125,"velocity":70,"measure":85,"beat":1.5,"subject_pos":2,"motif":"subject","motif_pos":2,"best_pos":2,"similarity":1.0},{"voice":6,"pitch":82,"start":168.25,"duration":0.125,"velocity":110,"measure":85,"beat":1.5,"subject_pos":-1,"motif":"","motif_pos":-1,"best_pos":6,"similarity":0.421},{"voice":10,"pitch":60,"start":168.25,"duration":0.25,"velocity":85,"measure":85,"beat":1.5,"subject_pos":1,"motif":"subject","motif_pos":1,"best_pos":1,"similarity":1.0},{"voice":2,"pitch":81,"start":168.3125,"duration":0.0625,"velocity":70,"measure":85,"beat":1.625,"subject_pos":-1,"motif":"","motif_pos":-1,"best_pos":0,"similarity":0.286},{"voice":2,"pitch":86,"start":168.375,"duration":0.0625,"velocity":70,"measure":85,"beat":1.75,"subject_pos":-1,"motif":"","motif_pos":-1,"best_pos":1,"similarity":0.293},{"voice":4,"pitch":65,"start":168.375,"duration":0.125,"velocity":70,"measure":85,"beat":1.75,"subject_pos":3,"motif":"subject","motif_pos":3,"best_pos":3,"similarity":1.0},{"voice":6,"pitch":80,"start":168.375,"duration":0.125,"velocity":90,"measure":85,"beat":1.75,"subject_pos":-1,"motif":"","motif_pos":-1,"best_pos":3,"similarity":0.443},{"voice":2,"pitch":89,"start":168.4375,"duration":0.0625,"velocity":70,"measure":85,"beat":1.875,"subject_pos":-1,"motif":"","motif_pos":-1,"best_pos":2,"similarity":0.164},{"voice":0,"pitch":86,"start":168.5,"duration":0.5,"velocity":88,"measure":85,"beat":2.0,"subject_pos":1,"motif":"subject","motif_pos":1,"best_pos":1,"similarity":1.0},{"voice":2,"pitch":62,"start":168.5,"duration":0.0625,"velocity":70,"measure":85,"beat":2.0,"subject_pos":-1,"motif":"","motif_pos":-1,"best_pos":5,"similarity":0.171},{"voice":4,"pitch":64,"start":168.5,"duration":0.125,"velocity":70,"measure":85,"beat":2.0,"subject_pos":4,"motif":"subject","motif_pos":4,"best_pos":4,"similarity":1.0},{"voice":5,"pitch":62,"start":168.5,"duration":0.25,"velocity":90,"measure":85,"beat":2.0,"subject_pos":-1,"motif":"","motif_pos":-1,"best_pos":5,"similarity":0.157},{"voice":5,"pitch":65,"start":168.5,"duration":0.25,"velocity":90,"measure":85,"beat":2.0,"subject_pos":-1,"motif":"","motif_pos":-1,"best_pos":6,"similarity":0.171},{"voice":5,"pitch":69,"start":168.5,"duration":0.25,"velocity":90,"measure":85,"beat":2.0,"subject_pos":-1,"motif":"","motif_pos":-1,"best_pos":0,"similarity":0.286},{"voice":5,"pitch":74,"start":168.5,"duration":0.25,"velocity":90,"measure":85,"beat":2.0,"subject_pos":-1,"motif":"","motif_pos":-1,"best_pos":1,"similarity":0.286},{"voice":5,"pitch":77,"start":168.5,"duration":0.25,"velocity":90,"measure":85,"beat":2.0,"subject_pos":-1,"motif":"","motif_pos":-1,"best_pos":6,"similarity":0.186},{"voice":5,"pitch":81,"start":168.5,"duration":0.25,"velocity":90,"measure":85,"beat":2.0,"subject_pos":-1,"motif":"","motif_pos":-1,"best_pos":1,"similarity":0.143},{"voice":6,"pitch":80,"start":168.5,"duration":0.125,"velocity":65,"measure":85,"beat":2.0,"subject_pos":-1,"motif":"","motif_pos":-1,"best_pos":4,"similarity":0.514},{"voice":7,"pitch":36,"start":168.5,"duration":0.25,"velocity":120,"measure":85,"beat":2.0,"subject_pos":-1,"motif":"","motif_pos":-1,"best_pos":4,"similarity":0.389},{"voice":8,"pitch":74,"start":168.5,"duration":0.25,"velocity":105,"measure":85,"beat":2.0,"subject_pos":-1,"motif":"","motif_pos":-1,"best_pos":4,"similarity":0.389},{"voice":10,"pitch":56,"start":168.5,"duration":0.25,"velocity":85,"measure":85,"beat":2.0,"subject_pos":2,"motif":"subject","motif_pos":2,"best_pos":2,"similarity":1.0},{"voice":11,"pitch":81,"start":168.5,"duration":0.25,"velocity":100,"measure":85,"beat":2.0,"subject_pos":5,"motif":"subject","motif_pos":5,"best_pos":5,"similarity":1.0},{"voice":2,"pitch":65,"start":168.5625,"duration":0.0625,"velocity":70,"measure":85,"beat":2.125,"subject_pos":-1,"motif":"","motif_pos":-1,"best_pos":6,"similarity":0.179},{"voice":2,"pitch":69,"start":168.625,"duration":0.0625,"velocity":70,"measure":85,"beat":2.25,"subject_pos":-1,"motif":"","motif_pos":-1,"best_pos":0,"similarity":0.286},{"voice":4,"pitch":65,"start":168.625,"duration":0.125,"velocity":70,"measure":85,"beat":2.25,"subject_pos":5,"motif":"subject","motif_pos":5,"best_pos":5,"similarity":1.0},{"voice":6,"pitch":80,"start":168.625,"duration":0.125,"velocity":90,"measure":85,"beat":2.25,"subject_pos":-1,"motif":"","motif_pos":-1,"best_pos":5,"similarity":0.55},{"voice":2,"pitch":74,"start":168.6875,"duration":0.0625,"velocity":70,"measure":85,"beat":2.375,"subject_pos":-1,"motif":"","motif_pos":-1,"best_pos":1,"similarity":0.286},{"voice":2,"pitch":77,"start":168.75,"duration":0.0625,"velocity":70,"measure":85,"beat":2.5,"subject_pos":-1,"motif":"","motif_pos":-1,"best_pos":6,"similarity":0.186},{"voice":4,"pitch":67,"start":168.75,"duration":0.125,"velocity":70,"measure":85,"beat":2.5,"subject_pos":6,"motif":"subject","motif_pos":6,"best_pos":6,"similarity":1.0},{"voice":6,"pitch":82,"start":168.75,"duration":0.125,"velocity":110,"measure":85,"beat":2.5,"subject_pos":-1,"motif":"","motif_pos":-1,"best_pos":6,"similarity":0.421},{"voice":10,"pitch":53,"start":168.75,"duration":0.25,"velocity":85,"measure":85,"beat":2.5,"subject_pos":3,"motif":"subject","motif_pos":3,"best_pos":3,"similarity":1.0},{"voice":11,"pitch":83,"start":168.75,"duration":0.25,"velocity":100,"measure":85,"beat":2.5,"subject_pos":6,"motif":"subject","motif_pos":6,"best_pos":6,"similarity":1.0},{"voice":2,"pitch":81,"start":168.8125,"duration":0.0625,"velocity":70,"measure":85,"beat":2.625,"subject_pos":-1,"motif":"","motif_pos":-1,"best_pos":0,"similarity":0.286},{"voice":2,"pitch":86,"start":168.875,"duration":0.0625,"velocity":70,"measure":85,"beat":2.75,"subject_pos":-1,"motif":"","motif_pos":-1,"best_pos":1,"similarity":0.293},{"voice":4,"pitch":68,"start":168.875,"duration":0.125,"velocity":70,"measure":85,"beat":2.75,"subject_pos":7,"motif":"subject","motif_pos":7,"best_pos":7,"similarity":1.0},{"voice":6,"pitch":80,"start":168.875,"duration":0.125,"velocity":90,"measure":85,"beat":2.75,"subject_pos":-1,"motif":"","motif_pos":-1,"best_pos":3,"similarity":0.443},{"voice":2,"pitch":89,"start":168.9375,"duration":0.0625,"velocity":70,"measure":85,"beat":2.875,"subject_pos":-1,"motif":"","motif_pos":-1,"best_pos":2,"similarity":0.164},{"voice":0,"pitch":84,"start":169.0,"duration":0.5,"velocity":88,"measure":85,"beat":3.0,"subject_pos":2,"motif":"subject","motif_pos":2,"best_pos":2,"similarity":1.0},{"voice":2,"pitch":62,"start":169.0,"duration":0.0625,"velocity":70,"measure":85,"beat":3.0,"subject_pos":-1,"motif":"","motif_pos":-1,"best_pos":5,"similarity":0.171},{"voice":4,"pitch":62,"start":169.0,"duration":0.125,"velocity":70,"measure":85,"beat":3.0,"subject_pos":0,"motif":"subject_inv","motif_pos":0,"best_pos":0,"similarity":1.0},{"voice":5,"pitch":62,"start":169.0,"duration":0.25,"velocity":90,"measure":85,"beat":3.0,"subject_pos":-1,"motif":"","motif_pos":-1,"best_pos":5,"similarity":0.157},{"voice":5,"pitch":65,"start":169.0,"duration":0.25,"velocity":90,"measure":85,"beat":3.0,"subject_pos":-1,"motif":"","motif_pos":-1,"best_pos":6,"similarity":0.171},{"voice":5,"pitch":69,"start":169.0,"duration":0.25,"velocity":90,"measure":85,"beat":3.0,"subject_pos":-1,"motif":"","motif_pos":-1,"best_pos":0,"similarity":0.286},{"voice":5,"pitch":74,"start":169.0,"duration":0.25,"velocity":90,"measure":85,"beat":3.0,"subject_pos":-1,"motif":"","motif_pos":-1,"best_pos":1,"similarity":0.286},{"voice":5,"pitch":77,"start":169.0,"duration":0.25,"velocity":90,"measure":85,"beat":3.0,"subject_pos":-1,"motif":"","motif_pos":-1,"best_pos":6,"similarity":0.186},{"voice":5,"pitch":81,"start":169.0,"duration":0.25,"velocity":90,"measure":85,"beat":3.0,"subject_pos":-1,"motif":"","motif_pos":-1,"best_pos":1,"similarity":0.143},{"voice":6,"pitch":80,"start":169.0,"duration":0.125,"velocity":65,"measure":85,"beat":3.0,"subject_pos":-1,"motif":"","motif_pos":-1,"best_pos":4,"similarity":0.514},{"voice":7,"pitch":36,"start":169.0,"duration":0.25,"velocity":120,"measure":85,"beat":3.0,"subject_pos":-1,"motif":"","motif_pos":-1,"best_pos":4,"similarity":0.389},{"voice":10,"pitch":52,"start":169.0,"duration":0.25,"velocity":85,"measure":85,"beat":3.0,"subject_pos":4,"motif":"subject","motif_pos":4,"best_pos":4,"similarity":1.0},{"voice":11,"pitch":84,"start":169.0,"duration":1.0,"velocity":100,"measure":85,"beat":3.0,"subject_pos":7,"motif":"subject","motif_pos":7,"best_pos":7,"similarity":1.0},{"voice":2,"pitch":65,"start":169.0625,"duration":0.0625,"velocity":70,"measure":85,"beat":3.125,"subject_pos":-1,"motif":"","motif_pos":-1,"best_pos":6,"similarity":0.179},{"voice":2,"pitch":69,"start":169.125,"duration":0.0625,"velocity":70,"measure":85,"beat":3.25,"subject_pos":-1,"motif":"","motif_pos":-1,"best_pos":0,"similarity":0.286},{"voice":4,"pitch":55,"start":169.125,"duration":0.125,"velocity":70,"measure":85,"beat":3.25,"subject_pos":1,"motif":"subject_inv","motif_pos":1,"best_pos":1,"similarity":1.0},{"voice":6,"pitch":80,"start":169.125,"duration":0.125,"velocity":90,"measure":85,"beat":3.25,"subject_pos":-1,"motif":"","motif_pos":-1,"best_pos":5,"similarity":0.55},{"voice":2,"pitch":74,"start":169.1875,"duration":0.0625,"velocity":70,"measure":85,"beat":3.375,"subject_pos":-1,"motif":"","motif_pos":-1,"best_pos":1,"similarity":0.286},{"voice":2,"pitch":77,"start":169.25,"duration":0.0625,"velocity":70,"measure":85,"beat":3.5,"subject_pos":-1,"motif":"","motif_pos":-1,"best_pos":6,"similarity":0.186},{"voice":4,"pitch":59,"start":169.25,"duration":0.125,"velocity":70,"measure":85,"beat":3.5,"subject_pos":2,"motif":"subject_inv","motif_pos":2,"best_pos":2,"similarity":1.0},{"voice":6,"pitch":82,"start":169.25,"duration":0.125,"velocity":110,"measure":85,"beat":3.5,"subject_pos":-1,"motif":"","motif_pos":-1,"best_pos":6,"similarity":0.421},{"voice":10,"pitch":53,"start":169.25,"duration":0.125,"velocity":85,"measure":85,"beat":3.5,"subject_pos":5,"motif":"subject","motif_pos":5,"best_pos":5,"similarity":1.0},{"voice":2,"pitch":81,"start":169.3125,"duration":0.0625,"velocity":70,"measure":85,"beat":3.625,"subject_pos":-1,"motif":"","motif_pos":-1,"best_pos":0,"similarity":0.286},{"voice":2,"pitch":86,"start":169.375,"duration":0.0625,"velocity":70,"measure":85,"beat":3.75,"subject_pos":-1,"motif":"","motif_pos":-1,"best_pos":1,"similarity":0.293},{"voice":4,"pitch":62,"start":169.375,"duration":0.125,"velocity":70,"measure":85,"beat":3.75,"subject_pos":3,"motif":"subject_inv","motif_pos":3,"best_pos":3,"similarity":1.0},{"voice":6,"pitch":80,"start":169.375,"duration":0.125,"velocity":90,"measure":85,"beat":3.75,"subject_pos":-1,"motif":"","motif_pos":-1,"best_pos":3,"similarity":0.443},{"voice":10,"pitch":55,"start":169.375,"duration":0.125,"velocity":85,"measure":85,"beat":3.75,"subject_pos":6,"motif":"subject","motif_pos":6,"best_pos":6,"similarity":1.0},{"voice":2,"pitch":89,"start":169.4375,"duration":0.0625,"velocity":70,"measure":85,"beat":3.875,"subject_pos":-1,"motif":"","motif_pos":-1,"best_pos":2,"similarity":0.164},{"voice":0,"pitch":81,"start":169.5,"duration":0.5,"velocity":88,"measure":85,"beat":4.0,"subject_pos":3,"motif":"subject","motif_pos":3,"best_pos":3,"similarity":1.0},{"voice":2,"pitch":62,"start":169.5,"duration":0.0625,"velocity":70,"measure":85,"beat":4.0,"subject_pos":-1,"motif":"","motif_pos":-1,"best_pos":5,"similarity":0.171},{"voice":4,"pitch":63,"start":169.5,"duration":0.125,"velocity":70,"measure":85,"beat":4.0,"subject_pos":4,"motif":"subject_inv","motif_pos":4,"best_pos":4,"similarity":1.0},{"voice":5,"pitch":62,"start":169.5,"duration":0.25,"velocity":90,"measure":85,"beat":4.0,"subject_pos":-1,"motif":"","motif_pos":-1,"best_pos":5,"similarity":0.157},{"voice":5,"pitch":65,"start":169.5,"duration":0.25,"velocity":90,"measure":85,"beat":4.0,"subject_pos":-1,"motif":"","motif_pos":-1,"best_pos":6,"similarity":0.171},{"voice":5,"pitch":69,"start":169.5,"duration":0.25,"velocity":90,"measure":85,"beat":4.0,"subject_pos":-1,"motif":"","motif_pos":-1,"best_pos":0,"similarity":0.286},{"voice":5,"pitch":74,"start":169.5,"duration":0.25,"velocity":90,"measure":85,"beat":4.0,"subject_pos":-1,"motif":"","motif_pos":-1,"best_pos":1,"similarity":0.286},{"voice":5,"pitch":77,"start":169.5,"duration":0.25,"velocity":90,"measure":85,"beat":4.0,"subject_pos":-1,"motif":"","motif_pos":-1,"best_pos":6,"similarity":0.186},{"voice":5,"pitch":81,"start":169.5,"duration":0.25,"velocity":90,"measure":85,"beat":4.0,"subject_pos":-1,"motif":"","motif_pos":-1,"best_pos":1,"similarity":0.143},{"voice":6,"pitch":80,"start":169.5,"duration":0.125,"velocity":65,"measure":85,"beat":4.0,"subject_pos":-1,"motif":"","motif_pos":-1,"best_pos":4,"similarity":0.514},{"voice":7,"pitch":36,"start":169.5,"duration":0.25,"velocity":120,"measure":85,"beat":4.0,"subject_pos":-1,"motif":"","motif_pos":-1,"best_pos":4,"similarity":0.389},{"voice":8,"pitch":74,"start":169.5,"duration":0.25,"velocity":105,"measure":85,"beat":4.0,"subject_pos":-1,"motif":"","motif_pos":-1,"best_pos":4,"similarity":0.389},{"voice":10,"pitch":56,"start":169.5,"duration":0.5,"velocity":85,"measure":85,"beat":4.0,"subject_pos":7,"motif":"subject","motif_pos":7,"best_pos":7,"similarity":1.0},{"voice":2,"pitch":65,"start":169.5625,"duration":0.0625,"velocity":70,"measure":85,"beat":4.125,"subject_pos":-1,"motif":"","motif_pos":-1,"best_pos":6,"similarity":0.179},{"voice":2,"pitch":69,"start":169.625,"duration":0.0625,"velocity":70,"measure":85,"beat":4.25,"subject_pos":-1,"motif":"","motif_pos":-1,"best_pos":0,"similarity":0.286},{"voice":4,"pitch":62,"start":169.625,"duration":0.125,"velocity":70,"measure":85,"beat":4.25,"subject_pos":5,"motif":"subject_inv","motif_pos":5,"best_pos":5,"similarity":1.0},{"voice":6,"pitch":80,"start":169.625,"duration":0.125,"velocity":90,"measure":85,"beat":4.25,"subject_pos":-1,"motif":"","motif_pos":-1,"best_pos":5,"similarity":0.55},{"voice":2,"pitch":74,"start":169.6875,"duration":0.0625,"velocity":70,"measure":85,"beat":4.375,"subject_pos":-1,"motif":"","motif_pos":-1,"best_pos":1,"similarity":0.286},{"voice":2,"pitch":77,"start":169.75,"duration":0.0625,"velocity":70,"measure":85,"beat":4.5,"subject_pos":-1,"motif":"","motif_pos":-1,"best_pos":6,"similarity":0.186},{"voice":4,"pitch":60,"start":169.75,"duration":0.125,"velocity":70,"measure":85,"beat":4.5,"subject_pos":6,"motif":"subject_inv","motif_pos":6,"best_pos":6,"similarity":1.0},{"voice":6,"pitch":82,"start":169.75,"duration":0.125,"velocity":110,"measure":85,"beat":4.5,"subject_pos":-1,"motif":"","motif_pos":-1,"best_pos":6,"similarity":0.421},{"voice":2,"pitch":81,"start":169.8125,"duration":0.0625,"velocity":70,"measure":85,"beat":4.625,"subject_pos":-1,"motif":"","motif_pos":-1,"best_pos":0,"similarity":0.286},{"voice":2,"pitch":86,"start":169.875,"duration":0.0625,"velocity":70,"measure":85,"beat":4.75,"subject_pos":-1,"motif":"","motif_pos":-1,"best_pos":1,"similarity":0.293},{"voice":4,"pitch":59,"start":169.875,"duration":0.125,"velocity":70,"measure":85,"beat":4.75,"subject_pos":7,"motif":"subject_inv","motif_pos":7,"best_pos":7,"similarity":1.0},{"voice":6,"pitch":80,"start":169.875,"duration":0.125,"velocity":90,"measure":85,"beat":4.75,"subject_pos":-1,"motif":"","motif_pos":-1,"best_pos":3,"similarity":0.443},{"voice":2,"pitch":89,"start":169.9375,"duration":0.0625,"velocity":70,"measure":85,"beat":4.875,"subject_pos":-1,"motif":"","motif_pos":-1,"best_pos":2,"similarity":0.164},{"voice":0,"pitch":80,"start":170.0,"duration":0.5,"velocity":88,"measure":86,"beat":1.0,"subject_pos":4,"motif":"subject","motif_pos":4,"best_pos":4,"similarity":1.0},{"voice":2,"pitch":67,"start":170.0,"duration":0.0625,"velocity":70,"measure":86,"beat":1.0,"subject_pos":-1,"motif":"","motif_pos":-1,"best_pos":5,"similarity":0.171},{"voice":3,"pitch":26,"start":170.0,"duration":1.0,"velocity":110,"measure":86,"beat":1.0,"subject_pos":5,"motif":"subject","motif_pos":5,"best_pos":5,"similarity":1.0},{"voice":4,"pitch":74,"start":170.0,"duration":0.125,"velocity":70,"measure":86,"beat":1.0,"subject_pos":0,"motif":"subject","motif_pos":0,"best_pos":0,"similarity":1.0},{"voice":5,"pitch":55,"start":170.0,"duration":0.25,"velocity":90,"measure":86,"beat":1.0,"subject_pos":-1,"motif":"","motif_pos":-1,"best_pos":5,"similarity":0.157},{"voice":5,"pitch":58,"start":170.0,"duration":0.25,"velocity":90,"measure":86,"beat":1.0,"subject_pos":-1,"motif":"","motif_pos":-1,"best_pos":6,"similarity":0.171},{"voice":5,"pitch":62,"start":170.0,"duration":0.25,"velocity":90,"measure":86,"beat":1.0,"subject_pos":-1,"motif":"","motif_pos":-1,"best_pos":0,"similarity":0.286},{"voice":5,"pitch":67,"start":170.0,"duration":0.25,"velocity":90,"measure":86,"beat":1.0,"subject_pos":-1,"motif":"","motif_pos":-1,"best_pos":1,"similarity":0.286},{"voice":5,"pitch":70,"start":170.0,"duration":0.25,"velocity":90,"measure":86,"beat":1.0,"subject_pos":-1,"motif":"","motif_pos":-1,"best_pos":6,"similarity":0.186},{"voice":5,"pitch":74,"start":170.0,"duration":0.25,"velocity":90,"measure":86,"beat":1.0,"subject_pos":-1,"motif":"","motif_pos":-1,"best_pos":1,"similarity":0.143},{"voice":6,"pitch":80,"start":170.0,"duration":0.125,"velocity":65,"measure":86,"beat":1.0,"subject_pos":-1,"motif":"","motif_pos":-1,"best_pos":4,"similarity":0.514},{"voice":7,"pitch":36,"start":170.0,"duration":0.25,"velocity":120,"measure":86,"beat":1.0,"subject_pos":-1,"motif":"","motif_pos":-1,"best_pos":4,"similarity":0.389},{"voice":10,"pitch":56,"start":170.0,"duration":0.25,"velocity":85,"measure":86,"beat":1.0,"subject_pos":0,"motif":"subject","motif_pos":0,"best_pos":0,"similarity":1.0},{"voice":11,"pitch":74,"start":170.0,"duration":0.25,"velocity":100,"measure":86,"beat":1.0,"subject_pos":0,"motif":"subject","motif_pos":0,"best_pos":0,"similarity":1.0},{"voice":2,"pitch":70,"start":170.0625,"duration":0.0625,"velocity":70,"measure":86,"beat":1.125,"subject_pos":-1,"motif":"","motif_pos":-1,"best_pos":6,"similarity":0.179},{"voice":2,"pitch":74,"start":170.125,"duration":0.0625,"velocity":70,"measure":86,"beat":1.25,"subject_pos":-1,"motif":"","motif_pos":-1,"best_pos":0,"similarity":0.286},{"voice":4,"pitch":81,"start":170.125,"duration":0.125,"velocity":70,"measure":86,"beat":1.25,"subject_pos":1,"motif":"subject","motif_pos":1,"best_pos":1,"similarity":1.0},{"voice":6,"pitch":80,"start":170.125,"duration":0.125,"velocity":90,"measure":86,"beat":1.25,"subject_pos":-1,"motif":"","motif_pos":-1,"best_pos":5,"similarity":0.55},{"voice":2,"pitch":79,"start":170.1875,"duration":0.0625,"velocity":70,"measure":86,"beat":1.375,"subject_pos":-1,"motif":"","motif_pos":-1,"best_pos":1,"similarity":0.286},{"voice":2,"pitch":82,"start":170.25,"duration":0.0625,"velocity":70,"measure":86,"beat":1.5,"subject_pos":-1,"motif":"","motif_pos":-1,"best_pos":6,"similarity":0.186},{"voice":4,"pitch":77,"start":170.25,"duration":0.125,"velocity":70,"measure":86,"beat":1.5,"subject_pos":2,"motif":"subject","motif_pos":2,"best_pos":2,"similarity":1.0},{"voice":6,"pitch":82,"start":170.25,"duration":0.125,"velocity":110,"measure":86,"beat":1.5,"subject_pos":-1,"motif":"","motif_pos":-1,"best_pos":6,"similarity":0.421},{"voice":10,"pitch":63,"start":170.25,"duration":0.25,"velocity":85,"measure":86,"beat":1.5,"subject_pos":1,"motif":"subject","motif_pos":1,"best_pos":1,"similarity":1.0},{"voice":11,"pitch":79,"start":170.25,"duration":0.25,"velocity":100,"measure":86,"beat":1.5,"subject_pos":1,"motif":"subject","motif_pos":1,"best_pos":1,"similarity":1.0},{"voice":2,"pitch":86,"start":170.3125,"duration":0.0625,"velocity":70,"measure":86,"beat":1.625,"subject_pos":-1,"motif":"","motif_pos":-1,"best_pos":0,"similarity":0.286},{"voice":2,"pitch":91,"start":170.375,"duration":0.0625,"velocity":70,"measure":86,"beat":1.75,"subject_pos":-1,"motif":"","motif_pos":-1,"best_pos":1,"similarity":0.293},{"voice":4,"pitch":74,"start":170.375,"duration":0.125,"velocity":70,"measure":86,"beat":1.75,"subject_pos":3,"motif":"subject","motif_pos":3,"best_pos":3,"similarity":1.0},{"voice":6,"pitch":80,"start":170.375,"duration":0.125,"velocity":90,"measure":86,"beat":1.75,"subject_pos":-1,"motif":"","motif_pos":-1,"best_pos":3,"similarity":0.443},{"voice":2,"pitch":94,"start":170.4375,"duration":0.0625,"velocity":70,"measure":86,"beat":1.875,"subject_pos":-1,"motif":"","motif_pos":-1,"best_pos":2,"similarity":0.164},{"voice":0,"pitch":81,"start":170.5,"duration":0.25,"velocity":88,"measure":86,"beat":2.0,"subject_pos":5,"motif":"subject","motif_pos":5,"best_pos":5,"similarity":1.0},{"voice":2,"pitch":67,"start":170.5,"duration":0.0625,"velocity":70,"measure":86,"beat":2.0,"subject_pos":-1,"motif":"","motif_pos":-1,"best_pos":5,"similarity":0.171},{"voice":4,"pitch":73,"start":170.5,"duration":0.125,"velocity":70,"measure":86,"beat":2.0,"subject_pos":4,"motif":"subject","motif_pos":4,"best_pos":4,"similarity":1.0},{"voice":5,"pitch":55,"start":170.5,"duration":0.25,"velocity":90,"measure":86,"beat":2.0,"subject_pos":-1,"motif":"","motif_pos":-1,"best_pos":5,"similarity":0.157},{"voice":5,"pitch":58,"start":170.5,"duration":0.25,"velocity":90,"measure":86,"beat":2.0,"subject_pos":-1,"motif":"","motif_pos":-1,"best_pos":6,"similarity":0.171},{"voice":5,"pitch":62,"start":170.5,"duration":0.25,"velocity":90,"measure":86,"beat":2.0,"subject_pos":-1,"motif":"","motif_pos":-1,"best_pos":0,"similarity":0.286},{"voice":5,"pitch":67,"start":170.5,"duration":0.25,"velocity":90,"measure":86,"beat":2.0,"subject_pos":-1,"motif":"","motif_pos":-1,"best_pos":1,"similarity":0.286},{"voice":5,"pitch":70,"start":170.5,"duration":0.25,"velocity":90,"measure":86,"beat":2.0,"subject_pos":-1,"motif":"","motif_pos":-1,"best_pos":6,"similarity":0.186},{"voice":5,"pitch":74,"start":170.5,"duration":0.25,"velocity":90,"measure":86,"beat":2.0,"subject_pos":-1,"motif":"","motif_pos":-1,"best_pos":1,"similarity":0.143},{"voice":6,"pitch":80,"start":170.5,"duration":0.125,"velocity":65,"measure":86,"beat":2.0,"subject_pos":-1,"motif":"","motif_pos":-1,"best_pos":4,"similarity":0.514},{"voice":7,"pitch":36,"start":170.5,"duration":0.25,"velocity":120,"measure":86,"beat":2.0,"subject_pos":-1,"motif":"","motif_pos":-1,"best_pos":4,"similarity":0.389},{"voice":8,"pitch":74,"start":170.5,"duration":0.25,"velocity":105,"measure":86,"beat":2.0,"subject_pos":-1,"motif":"","motif_pos":-1,"best_pos":4,"similarity":0.389},{"voice":10,"pitch":59,"start":170.5,"duration":0.25,"velocity":85,"measure":86,"beat":2.0,"subject_pos":2,"motif":"subject","motif_pos":2,"best_pos":2,"similarity":1.0},{"voice":11,"pitch":77,"start":170.5,"duration":0.25,"velocity":100,"measure":86,"beat":2.0,"subject_pos":2,"motif":"subject","motif_pos":2,"best_pos":2,"similarity":1.0},{"voice":2,"pitch":70,"start":170.5625,"duration":0.0625,"velocity":70,"measure":86,"beat":2.125,"subject_pos":-1,"motif":"","motif_pos":-1,"best_pos":6,"similarity":0.179},{"voice":2,"pitch":74,"start":170.625,"duration":0.0625,"velocity":70,"measure":86,"beat":2.25,"subject_pos":-1,"motif":"","motif_pos":-1,"best_pos":0,"similarity":0.286},{"voice":4,"pitch":74,"start":170.625,"duration":0.125,"velocity":70,"measure":86,"beat":2.25,"subject_pos":5,"motif":"subject","motif_pos":5,"best_pos":5,"similarity":1.0},{"voice":6,"pitch":80,"start":170.625,"duration":0.125,"velocity":90,"measure":86,"beat":2.25,"subject_pos":-1,"motif":"","motif_pos":-1,"best_pos":5,"similarity":0.55},{"voice":2,"pitch":79,"start":170.6875,"duration":0.0625,"velocity":70,"measure":86,"beat":2.375,"subject_pos":-1,"motif":"","motif_pos":-1,"best_pos":1,"similarity":0.286},{"voice":0,"pitch":83,"start":170.75,"duration":0.25,"velocity":88,"measure":86,"beat":2.5,"subject_pos":6,"motif":"subject","motif_pos":6,"best_pos":6,"similarity":1.0},{"voice":2,"pitch":82,"start":170.75,"duration":0.0625,"velocity":70,"measure":86,"beat":2.5,"subject_pos":-1,"motif":"","motif_pos":-1,"best_pos":6,"similarity":0.186},{"voice":4,"pitch":76,"start":170.75,"duration":0.125,"velocity":70,"measure":86,"beat":2.5,"subject_pos":6,"motif":"subject","motif_pos":6,"best_pos":6,"similarity":1.0},{"voice":6,"pitch":82,"start":170.75,"duration":0.125,"velocity":110,"measure":86,"beat":2.5,"subject_pos":-1,"motif":"","motif_pos":-1,"best_pos":6,"similarity":0.421},{"voice":10,"pitch":56,"start":170.75,"duration":0.25,"velocity":85,"measure":86,"beat":2.5,"subject_pos":3,"motif":"subject","motif_pos":3,"best_pos":3,"similarity":1.0},{"voice":11,"pitch":74,"start":170.75,"duration":0.25,"velocity":100,"measure":86,"beat":2.5,"subject_pos":3,"motif":"subject","motif_pos":3,"best_pos":3,"similarity":1.0},{"voice":2,"pitch":86,"start":170.8125,"duration":0.0625,"velocity":70,"measure":86,"beat":2.625,"subject_pos":-1,"motif":"","motif_pos":-1,"best_pos":0,"similarity":0.286},{"voice":2,"pitch":91,"start":170.875,"duration":0.0625,"velocity":70,"measure":86,"beat":2.75,"subject_pos":-1,"motif":"","motif_pos":-1,"best_pos":1,"similarity":0.293},{"voice":4,"pitch":77,"start":170.875,"duration":0.125,"velocity":70,"measure":86,"beat":2.75,"subject_pos":7,"motif":"subject","motif_pos":7,"best_pos":7,"similarity":1.0},{"voice":6,"pitch":80,"start":170.875,"duration":0.125,"velocity":90,"measure":86,"beat":2.75,"subject_pos":-1,"motif":"","motif_pos":-1,"best_pos":3,"similarity":0.443},{"voice":2,"pitch":94,"start":170.9375,"duration":0.0625,"velocity":70,"measure":86,"beat":2.875,"subject_pos":-1,"motif":"","motif_pos":-1,"best_pos":2,"similarity":0.164},{"voice":0,"pitch":84,"start":171.0,"duration":1.0,"velocity":88,"measure":86,"beat":3.0,"subject_pos":7,"motif":"subject","motif_pos":7,"best_pos":7,"similarity":1.0},{"voice":2,"pitch":67,"start":171.0,"duration":0.0625,"velocity":70,"measure":86,"beat":3.0,"subject_pos":-1,"motif":"","motif_pos":-1,"best_pos":5,"similarity":0.171},{"voice":3,"pitch":28,"start":171.0,"duration":1.0,"velocity":110,"measure":86,"beat":3.0,"subject_pos":6,"motif":"subject","motif_pos":6,"best_pos":6,"similarity":1.0},{"voice":4,"pitch":71,"start":171.0,"duration":0.125,"velocity":70,"measure":86,"beat":3.0,"subject_pos":0,"motif":"subject_inv","motif_pos":0,"best_pos":0,"similarity":1.0},{"voice":5,"pitch":55,"start":171.0,"duration":0.25,"velocity":90,"measure":86,"beat":3.0,"subject_pos":-1,"motif":"","motif_pos":-1,"best_pos":5,"similarity":0.157},{"voice":5,"pitch":58,"start":171.0,"duration":0.25,"velocity":90,"measure":86,"beat":3.0,"subject_pos":-1,"motif":"","motif_pos":-1,"best_pos":6,"similarity":0.171},{"voice":5,"pitch":62,"start":171.0,"duration":0.25,"velocity":90,"measure":86,"beat":3.0,"subject_pos":-1,"motif":"","motif_pos":-1,"best_pos":0,"similarity":0.286},{"voice":5,"pitch":67,"start":171.0,"duration":0.25,"velocity":90,"measure":86,"beat":3.0,"subject_pos":-1,"motif":"","motif_pos":-1,"best_pos":1,"similarity":0.286},{"voice":5,"pitch":70,"start":171.0,"duration":0.25,"velocity":90,"measure":86,"beat":3.0,"subject_pos":-1,"motif":"","motif_pos":-1,"best_pos":6,"similarity":0.186},{"voice":5,"pitch":74,"start":171.0,"duration":0.25,"velocity":90,"measure":86,"beat":3.0,"subject_pos":-1,"motif":"","motif_pos":-1,"best_pos":1,"similarity":0.143},{"voice":6,"pitch":80,"start":171.0,"duration":0.125,"velocity":65,"measure":86,"beat":3.0,"subject_pos":-1,"motif":"","motif_pos":-1,"best_pos":4,"similarity":0.514},{"voice":7,"pitch":36,"start":171.0,"duration":0.25,"velocity":120,"measure":86,"beat":3.0,"subject_pos":-1,"motif":"","motif_pos":-1,"best_pos":4,"similarity":0.389},{"voice":10,"pitch":55,"start":171.0,"duration":0.25,"velocity":85,"measure":86,"beat":3.0,"subject_pos":4,"motif":"subject","motif_pos":4,"best_pos":4,"similarity":1.0},{"voice":11,"pitch":73,"start":171.0,"duration":0.25,"velocity":100,"measure":86,"beat":3.0,"subject_pos":4,"motif":"subject","motif_pos":4,"best_pos":4,"similarity":1.0},{"voice":2,"pitch":70,"start":171.0625,"duration":0.0625,"velocity":70,"measure":86,"beat":3.125,"subject_pos":-1,"motif":"","motif_pos":-1,"best_pos":6,"similarity":0.179},{"voice":2,"pitch":74,"start":171.125,"duration":0.0625,"velocity":70,"measure":86,"beat":3.25,"subject_pos":-1,"motif":"","motif_pos":-1,"best_pos":0,"similarity":0.286},{"voice":4,"pitch":64,"start":171.125,"duration":0.125,"velocity":70,"measure":86,"beat":3.25,"subject_pos":1,"motif":"subject_inv","motif_pos":1,"best_pos":1,"similarity":1.0},{"voice":6,"pitch":80,"start":171.125,"duration":0.125,"velocity":90,"measure":86,"beat":3.25,"subject_pos":-1,"motif":"","motif_pos":-1,"best_pos":5,"similarity":0.55},{"voice":2,"pitch":79,"start":171.1875,"duration":0.0625,"velocity":70,"measure":86,"beat":3.375,"subject_pos":-1,"motif":"","motif_pos":-1,"best_pos":1,"similarity":0.286},{"voice":2,"pitch":82,"start":171.25,"duration":0.0625,"velocity":70,"measure":86,"beat":3.5,"subject_pos":-1,"motif":"","motif_pos":-1,"best_pos":6,"similarity":0.186},{"voice":4,"pitch":68,"start":171.25,"duration":0.125,"velocity":70,"measure":86,"beat":3.5,"subject_pos":2,"motif":"subject_inv","motif_pos":2,"best_pos":2,"similarity":1.0},{"voice":6,"pitch":82,"start":171.25,"duration":0.125,"velocity":110,"measure":86,"beat":3.5,"subject_pos":-1,"motif":"","motif_pos":-1,"best_pos":6,"similarity":0.421},{"voice":10,"pitch":56,"start":171.25,"duration":0.125,"velocity":85,"measure":86,"beat":3.5,"subject_pos":5,"motif":"subject","motif_pos":5,"best_pos":5,"similarity":1.0},{"voice":11,"pitch":74,"start":171.25,"duration":0.125,"velocity":100,"measure":86,"beat":3.5,"subject_pos":5,"motif":"subject","motif_pos":5,"best_pos":5,"similarity":1.0},{"voice":2,"pitch":86,"start":171.3125,"duration":0.0625,"velocity":70,"measure":86,"beat":3.625,"subject_pos":-1,"motif":"","motif_pos":-1,"best_pos":0,"similarity":0.286},{"voice":2,"pitch":91,"start":171.375,"duration":0.0625,"velocity":70,"measure":86,"beat":3.75,"subject_pos":-1,"motif":"","motif_pos":-1,"best_pos":1,"similarity":0.293},{"voice":4,"pitch":71,"start":171.375,"duration":0.125,"velocity":70,"measure":86,"beat":3.75,"subject_pos":3,"motif":"subject_inv","motif_pos":3,"best_pos":3,"similarity":1.0},{"voice":6,"pitch":80,"start":171.375,"duration":0.125,"velocity":90,"measure":86,"beat":3.75,"subject_pos":-1,"motif":"","motif_pos":-1,"best_pos":3,"similarity":0.443},{"voice":10,"pitch":58,"start":171.375,"duration":0.125,"velocity":85,"measure":86,"beat":3.75,"subject_pos":6,"motif":"subject","motif_pos":6,"best_pos":6,"similarity":1.0},{"voice":11,"pitch":76,"start":171.375,"duration":0.125,"velocity":100,"measure":86,"beat":3.75,"subject_pos":6,"motif":"subject","motif_pos":6,"best_pos":6,"similarity":1.0},{"voice":2,"pitch":94,"start":171.4375,"duration":0.0625,"velocity":70,"measure":86,"beat":3.875,"subject_pos":-1,"motif":"","motif_pos":-1,"best_pos":2,"similarity":0.164},{"voice":2,"pitch":67,"start":171.5,"duration":0.0625,"velocity":70,"measure":86,"beat":4.0,"subject_pos":-1,"motif":"","motif_pos":-1,"best_pos":5,"similarity":0.171},{"voice":4,"pitch":72,"start":171.5,"duration":0.125,"velocity":70,"measure":86,"beat":4.0,"subject_pos":4,"motif":"subject_inv","motif_pos":4,"best_pos":4,"similarity":1.0},{"voice":5,"pitch":55,"start":171.5,"duration":0.25,"velocity":90,"measure":86,"beat":4.0,"subject_pos":-1,"motif":"","motif_pos":-1,"best_pos":5,"similarity":0.157},{"voice":5,"pitch":58,"start":171.5,"duration":0.25,"velocity":90,"measure":86,"beat":4.0,"subject_pos":-1,"motif":"","motif_pos":-1,"best_pos":6,"similarity":0.171},{"voice":5,"pitch":62,"start":171.5,"duration":0.25,"velocity":90,"measure":86,"beat":4.0,"subject_pos":-1,"motif":"","motif_pos":-1,"best_pos":0,"similarity":0.286},{"voice":5,"pitch":67,"start":171.5,"duration":0.25,"velocity":90,"measure":86,"beat":4.0,"subject_pos":-1,"motif":"","motif_pos":-1,"best_pos":1,"similarity":0.286},{"voice":5,"pitch":70,"start":171.5,"duration":0.25,"velocity":90,"measure":86,"beat":4.0,"subject_pos":-1,"motif":"","motif_pos":-1,"best_pos":6,"similarity":0.186},{"voice":5,"pitch":74,"start":171.5,"duration":0.25,"velocity":90,"measure":86,"beat":4.0,"subject_pos":-1,"motif":"","motif_pos":-1,"best_pos":1,"similarity":0.15},{"voice":6,"pitch":80,"start":171.5,"duration":0.125,"velocity":65,"measure":86,"beat":4.0,"subject_pos":-1,"motif":"","motif_pos":-1,"best_pos":4,"similarity":0.514},{"voice":7,"pitch":36,"start":171.5,"duration":0.25,"velocity":120,"measure":86,"beat":4.0,"subject_pos":-1,"motif":"","motif_pos":-1,"best_pos":4,"similarity":0.389},{"voice":8,"pitch":74,"start":171.5,"duration":0.25,"velocity":105,"measure":86,"beat":4.0,"subject_pos":-1,"motif":"","motif_pos":-1,"best_pos":4,"similarity":0.389},{"voice":10,"pitch":59,"start":171.5,"duration":0.5,"velocity":85,"measure":86,"beat":4.0,"subject_pos":7,"motif":"subject","motif_pos":7,"best_pos":7,"similarity":1.0},{"voice":11,"pitch":77,"start":171.5,"duration":0.5,"velocity":100,"measure":86,"beat":4.0,"subject_pos":7,"motif":"subject","motif_pos":7,"best_pos":7,"similarity":1.0},{"voice":2,"pitch":70,"start":171.5625,"duration":0.0625,"velocity":70,"measure":86,"beat":4.125,"subject_pos":-1,"motif":"","motif_pos":-1,"best_pos":6,"similarity":0.179},{"voice":2,"pitch":74,"start":171.625,"duration":0.0625,"velocity":70,"measure":86,"beat":4.25,"subject_pos":-1,"motif":"","motif_pos":-1,"best_pos":0,"similarity":0.286},{"voice":4,"pitch":71,"start":171.625,"duration":0.125,"velocity":70,"measure":86,"beat":4.25,"subject_pos":5,"motif":"subject_inv","motif_pos":5,"best_pos":5,"similarity":1.0},{"voice":6,"pitch":80,"start":171.625,"duration":0.125,"velocity":90,"measure":86,"beat":4.25,"subject_pos":-1,"motif":"","motif_pos":-1,"best_pos":5,"similarity":0.55},{"voice":2,"pitch":79,"start":171.6875,"duration":0.0625,"velocity":70,"measure":86,"beat":4.375,"subject_pos":-1,"motif":"","motif_pos":-1,"best_pos":1,"similarity":0.286},{"voice":2,"pitch":82,"start":171.75,"duration":0.0625,"velocity":70,"measure":86,"beat":4.5,"subject_pos":-1,"motif":"","motif_pos":-1,"best_pos":6,"similarity":0.186},{"voice":4,"pitch":69,"start":171.75,"duration":0.125,"velocity":70,"measure":86,"beat":4.5,"subject_pos":6,"motif":"subject_inv","motif_pos":6,"best_pos":6,"similarity":1.0},{"voice":6,"pitch":82,"start":171.75,"duration":0.125,"velocity":110,"measure":86,"beat":4.5,"subject_pos":-1,"motif":"","motif_pos":-1,"best_pos":6,"similarity":0.421},{"voice":2,"pitch":86,"start":171.8125,"duration":0.0625,"velocity":70,"measure":86,"beat":4.625,"subject_pos":-1,"motif":"","motif_pos":-1,"best_pos":0,"similarity":0.286},{"voice":2,"pitch":91,"start":171.875,"duration":0.0625,"velocity":70,"measure":86,"beat":4.75,"subject_pos":-1,"motif":"","motif_pos":-1,"best_pos":1,"similarity":0.286},{"voice":4,"pitch":68,"start":171.875,"duration":0.125,"velocity":70,"measure":86,"beat":4.75,"subject_pos":7,"motif":"subject_inv","motif_pos":7,"best_pos":7,"similarity":1.0},{"voice":6,"pitch":80,"start":171.875,"duration":0.125,"velocity":90,"measure":86,"beat":4.75,"subject_pos":-1,"motif":"","motif_pos":-1,"best_pos":3,"similarity":0.443},{"voice":2,"pitch":94,"start":171.9375,"duration":0.0625,"velocity":70,"measure":86,"beat":4.875,"subject_pos":-1,"motif":"","motif_pos":-1,"best_pos":2,"similarity":0.161},{"voice":0,"pitch":74,"start":172.0,"duration":0.25,"velocity":90,"measure":87,"beat":1.0,"subject_pos":0,"motif":"subject","motif_pos":0,"best_pos":0,"similarity":1.0},{"voice":2,"pitch":70,"start":172.0,"duration":0.0625,"velocity":70,"measure":87,"beat":1.0,"subject_pos":-1,"motif":"","motif_pos":-1,"best_pos":0,"similarity":0.143},{"voice":3,"pitch":29,"start":172.0,"duration":2.0,"velocity":110,"measure":87,"beat":1.0,"subject_pos":7,"motif":"subject","motif_pos":7,"best_pos":7,"similarity":1.0},{"voice":5,"pitch":58,"start":172.0,"duration":0.25,"velocity":90,"measure":87,"beat":1.0,"subject_pos":-1,"motif":"","motif_pos":-1,"best_pos":0,"similarity":0.143},{"voice":5,"pitch":62,"start":172.0,"duration":0.25,"velocity":90,"measure":87,"beat":1.0,"subject_pos":-1,"motif":"","motif_pos":-1,"best_pos":5,"similarity":0.186},{"voice":5,"pitch":65,"start":172.0,"duration":0.25,"velocity":90,"measure":87,"beat":1.0,"subject_pos":-1,"motif":"","motif_pos":-1,"best_pos":0,"similarity":0.286},{"voice":5,"pitch":70,"start":172.0,"duration":0.25,"velocity":90,"measure":87,"beat":1.0,"subject_pos":-1,"motif":"","motif_pos":-1,"best_pos":1,"similarity":0.286},{"voice":5,"pitch":74,"start":172.0,"duration":0.25,"velocity":90,"measure":87,"beat":1.0,"subject_pos":-1,"motif":"","motif_pos":-1,"best_pos":5,"similarity":0.171},{"voice":5,"pitch":77,"start":172.0,"duration":0.25,"velocity":90,"measure":87,"beat":1.0,"subject_pos":-1,"motif":"","motif_pos":-1,"best_pos":6,"similarity":0.157},{"voice":6,"pitch":80,"start":172.0,"duration":0.125,"velocity":65,"measure":87,"beat":1.0,"subject_pos":-1,"motif":"","motif_pos":-1,"best_pos":4,"similarity":0.514},{"voice":7,"pitch":36,"start":172.0,"duration":0.25,"velocity":120,"measure":87,"beat":1.0,"subject_pos":-1,"motif":"","motif_pos":-1,"best_pos":4,"similarity":0.389},{"voice":10,"pitch":50,"start":172.0,"duration":0.25,"velocity":85,"measure":87,"beat":1.0,"subject_pos":0,"motif":"subject","motif_pos":0,"best_pos":0,"similarity":1.0},{"voice":11,"pitch":69,"start":172.0,"duration":0.5,"velocity":95,"measure":87,"beat":1.0,"subject_pos":0,"motif":"subject","motif_pos":0,"best_pos":0,"similarity":1.0},{"voice":2,"pitch":74,"start":172.0625,"duration":0.0625,"velocity":70,"measure":87,"beat":1.125,"subject_pos":-1,"motif":"","motif_pos":-1,"best_pos":5,"similarity":0.186},{"voice":2,"pitch":77,"start":172.125,"duration":0.0625,"velocity":70,"measure":87,"beat":1.25,"subject_pos":-1,"motif":"","motif_pos":-1,"best_pos":0,"similarity":0.286},{"voice":6,"pitch":80,"start":172.125,"duration":0.125,"velocity":90,"measure":87,"beat":1.25,"subject_pos":-1,"motif":"","motif_pos":-1,"best_pos":5,"similarity":0.55},{"voice":2,"pitch":82,"start":172.1875,"duration":0.0625,"velocity":70,"measure":87,"beat":1.375,"subject_pos":-1,"motif":"","motif_pos":-1,"best_pos":1,"similarity":0.286},{"voice":0,"pitch":81,"start":172.25,"duration":0.25,"velocity":90,"measure":87,"beat":1.5,"subject_pos":1,"motif":"subject","motif_pos":1,"best_pos":1,"similarity":1.0},{"voice":2,"pitch":86,"start":172.25,"duration":0.0625,"velocity":70,"measure":87,"beat":1.5,"subject_pos":-1,"motif":"","motif_pos":-1,"best_pos":5,"similarity":0.186},{"voice":6,"pitch":82,"start":172.25,"duration":0.125,"velocity":110,"measure":87,"beat":1.5,"subject_pos":-1,"motif":"","motif_pos":-1,"best_pos":6,"similarity":0.421},{"voice":10,"pitch":57,"start":172.25,"duration":0.25,"velocity":85,"measure":87,"beat":1.5,"subject_pos":1,"motif":"subject","motif_pos":1,"best_pos":1,"similarity":1.0},{"voice":2,"pitch":89,"start":172.3125,"duration":0.0625,"velocity":70,"measure":87,"beat":1.625,"subject_pos":-1,"motif":"","motif_pos":-1,"best_pos":0,"similarity":0.286},{"voice":2,"pitch":94,"start":172.375,"duration":0.0625,"velocity":70,"measure":87,"beat":1.75,"subject_pos":-1,"motif":"","motif_pos":-1,"best_pos":1,"similarity":0.286},{"voice":6,"pitch":80,"start":172.375,"duration":0.125,"velocity":90,"measure":87,"beat":1.75,"subject_pos":-1,"motif":"","motif_pos":-1,"best_pos":3,"similarity":0.443},{"voice":2,"pitch":98,"start":172.4375,"duration":0.0625,"velocity":70,"measure":87,"beat":1.875,"subject_pos":-1,"motif":"","motif_pos":-1,"best_pos":2,"similarity":0.161},{"voice":0,"pitch":77,"start":172.5,"duration":0.25,"velocity":90,"measure":87,"beat":2.0,"subject_pos":2,"motif":"subject","motif_pos":2,"best_pos":2,"similarity":1.0},{"voice":2,"pitch":70,"start":172.5,"duration":0.0625,"velocity":70,"measure":87,"beat":2.0,"subject_pos":-1,"motif":"","motif_pos":-1,"best_pos":0,"similarity":0.143},{"voice":5,"pitch":58,"start":172.5,"duration":0.25,"velocity":90,"measure":87,"beat":2.0,"subject_pos":-1,"motif":"","motif_pos":-1,"best_pos":0,"similarity":0.143},{"voice":5,"pitch":62,"start":172.5,"duration":0.25,"velocity":90,"measure":87,"beat":2.0,"subject_pos":-1,"motif":"","motif_pos":-1,"best_pos":5,"similarity":0.186},{"voice":5,"pitch":65,"start":172.5,"duration":0.25,"velocity":90,"measure":87,"beat":2.0,"subject_pos":-1,"motif":"","motif_pos":-1,"best_pos":0,"similarity":0.286},{"voice":5,"pitch":70,"start":172.5,"duration":0.25,"velocity":90,"measure":87,"beat":2.0,"subject_pos":-1,"motif":"","motif_pos":-1,"best_pos":1,"similarity":0.286},{"voice":5,"pitch":74,"start":172.5,"duration":0.25,"velocity":90,"measure":87,"beat":2.0,"subject_pos":-1,"motif":"","motif_pos":-1,"best_pos":5,"similarity":0.171},{"voice":5,"pitch":77,"start":172.5,"duration":0.25,"velocity":90,"measure":87,"beat":2.0,"subject_pos":-1,"motif":"","motif_pos":-1,"best_pos":6,"similarity":0.157},{"voice":6,"pitch":80,"start":172.5,"duration":0.125,"velocity":65,"measure":87,"beat":2.0,"subject_pos":-1,"motif":"","motif_pos":-1,"best_pos":4,"similarity":0.514},{"voice":7,"pitch":36,"start":172.5,"duration":0.25,"velocity":120,"measure":87,"beat":2.0,"subject_pos":-1,"motif":"","motif_pos":-1,"best_pos":4,"similarity":0.389},{"voice":8,"pitch":74,"start":172.5,"duration":0.25,"velocity":105,"measure":87,"beat":2.0,"subject_pos":-1,"motif":"","motif_pos":-1,"best_pos":4,"similarity":0.389},{"voice":10,"pitch":53,"start":172.5,"duration":0.25,"velocity":85,"measure":87,"beat":2.0,"subject_pos":2,"motif":"subject","motif_pos":2,"best_pos":2,"similarity":1.0},{"voice":11,"pitch":76,"start":172.5,"duration":0.5,"velocity":95,"measure":87,"beat":2.0,"subject_pos":1,"motif":"subject","motif_pos":1,"best_pos":1,"similarity":1.0},{"voice":2,"pitch":74,"start":172.5625,"duration":0.0625,"velocity":70,"measure":87,"beat":2.125,"subject_pos":-1,"motif":"","motif_pos":-1,"best_pos":5,"similarity":0.186},{"voice":2,"pitch":77,"start":172.625,"duration":0.0625,"velocity":70,"measure":87,"beat":2.25,"subject_pos":-1,"motif":"","motif_pos":-1,"best_pos":0,"similarity":0.286},{"voice":6,"pitch":80,"start":172.625,"duration":0.125,"velocity":90,"measure":87,"beat":2.25,"subject_pos":-1,"motif":"","motif_pos":-1,"best_pos":5,"similarity":0.55},{"voice":2,"pitch":82,"start":172.6875,"duration":0.0625,"velocity":70,"measure":87,"beat":2.375,"subject_pos":-1,"motif":"","motif_pos":-1,"best_pos":1,"similarity":0.286},{"voice":0,"pitch":74,"start":172.75,"duration":0.25,"velocity":90,"measure":87,"beat":2.5,"subject_pos":3,"motif":"subject","motif_pos":3,"best_pos":3,"similarity":1.0},{"voice":2,"pitch":86,"start":172.75,"duration":0.0625,"velocity":70,"measure":87,"beat":2.5,"subject_pos":-1,"motif":"","motif_pos":-1,"best_pos":5,"similarity":0.186},{"voice":6,"pitch":82,"start":172.75,"duration":0.125,"velocity":110,"measure":87,"beat":2.5,"subject_pos":-1,"motif":"","motif_pos":-1,"best_pos":6,"similarity":0.421},{"voice":10,"pitch":50,"start":172.75,"duration":0.25,"velocity":85,"measure":87,"beat":2.5,"subject_pos":3,"motif":"subject","motif_pos":3,"best_pos":3,"similarity":1.0},{"voice":2,"pitch":89,"start":172.8125,"duration":0.0625,"velocity":70,"measure":87,"beat":2.625,"subject_pos":-1,"motif":"","motif_pos":-1,"best_pos":0,"similarity":0.286},{"voice":2,"pitch":94,"start":172.875,"duration":0.0625,"velocity":70,"measure":87,"beat":2.75,"subject_pos":-1,"motif":"","motif_pos":-1,"best_pos":1,"similarity":0.286},{"voice":6,"pitch":80,"start":172.875,"duration":0.125,"velocity":90,"measure":87,"beat":2.75,"subject_pos":-1,"motif":"","motif_pos":-1,"best_pos":3,"similarity":0.443},{"voice":2,"pitch":98,"start":172.9375,"duration":0.0625,"velocity":70,"measure":87,"beat":2.875,"subject_pos":-1,"motif":"","motif_pos":-1,"best_pos":2,"similarity":0.161},{"voice":0,"pitch":73,"start":173.0,"duration":0.25,"velocity":90,"measure":87,"beat":3.0,"subject_pos":4,"motif":"subject","motif_pos":4,"best_pos":4,"similarity":1.0},{"voice":2,"pitch":70,"start":173.0,"duration":0.0625,"velocity":70,"measure":87,"beat":3.0,"subject_pos":-1,"motif":"","motif_pos":-1,"best_pos":0,"similarity":0.143},{"voice":5,"pitch":58,"start":173.0,"duration":0.25,"velocity":90,"measure":87,"beat":3.0,"subject_pos":-1,"motif":"","motif_pos":-1,"best_pos":0,"similarity":0.143},{"voice":5,"pitch":62,"start":173.0,"duration":0.25,"velocity":90,"measure":87,"beat":3.0,"subject_pos":-1,"motif":"","motif_pos":-1,"best_pos":5,"similarity":0.186},{"voice":5,"pitch":65,"start":173.0,"duration":0.25,"velocity":90,"measure":87,"beat":3.0,"subject_pos":-1,"motif":"","motif_pos":-1,"best_pos":0,"similarity":0.286},{"voice":5,"pitch":70,"start":173.0,"duration":0.25,"velocity":90,"measure":87,"beat":3.0,"subject_pos":-1,"motif":"","motif_pos":-1,"best_pos":1,"similarity":0.286},{"voice":5,"pitch":74,"start":173.0,"duration":0.25,"velocity":90,"measure":87,"beat":3.0,"subject_pos":-1,"motif":"","motif_pos":-1,"best_pos":5,"similarity":0.171},{"voice":5,"pitch":77,"start":173.0,"duration":0.25,"velocity":90,"measure":87,"beat":3.0,"subject_pos":-1,"motif":"","motif_pos":-1,"best_pos":6,"similarity":0.157},{"voice":6,"pitch":80,"start":173.0,"duration":0.125,"velocity":65,"measure":87,"beat":3.0,"subject_pos":-1,"motif":"","motif_pos":-1,"best_pos":4,"similarity":0.514},{"voice":7,"pitch":36,"start":173.0,"duration":0.25,"velocity":120,"measure":87,"beat":3.0,"subject_pos":-1,"motif":"","motif_pos":-1,"best_pos":4,"similarity":0.389},{"voice":10,"pitch":49,"start":173.0,"duration":0.25,"velocity":85,"measure":87,"beat":3.0,"subject_pos":4,"motif":"subject","motif_pos":4,"best_pos":4,"similarity":1.0},{"voice":11,"pitch":72,"start":173.0,"duration":0.5,"velocity":95,"measure":87,"beat":3.0,"subject_pos":2,"motif":"subject","motif_pos":2,"best_pos":2,"similarity":1.0},{"voice":2,"pitch":74,"start":173.0625,"duration":0.0625,"velocity":70,"measure":87,"beat":3.125,"subject_pos":-1,"motif":"","motif_pos":-1,"best_pos":5,"similarity":0.186},{"voice":2,"pitch":77,"start":173.125,"duration":0.0625,"velocity":70,"measure":87,"beat":3.25,"subject_pos":-1,"motif":"","motif_pos":-1,"best_pos":0,"similarity":0.286},{"voice":6,"pitch":80,"start":173.125,"duration":0.125,"velocity":90,"measure":87,"beat":3.25,"subject_pos":-1,"motif":"","motif_pos":-1,"best_pos":5,"similarity":0.55},{"voice":2,"pitch":82,"start":173.1875,"duration":0.0625,"velocity":70,"measure":87,"beat":3.375,"subject_pos":-1,"motif":"","motif_pos":-1,"best_pos":1,"similarity":0.286},{"voice":0,"pitch":74,"start":173.25,"duration":0.125,"velocity":90,"measure":87,"beat":3.5,"subject_pos":5,"motif":"subject","motif_pos":5,"best_pos":5,"similarity":1.0},{"voice":2,"pitch":86,"start":173.25,"duration":0.0625,"velocity":70,"measure":87,"beat":3.5,"subject_pos":-1,"motif":"","motif_pos":-1,"best_pos":5,"similarity":0.186},{"voice":6,"pitch":82,"start":173.25,"duration":0.125,"velocity":110,"measure":87,"beat":3.5,"subject_pos":-1,"motif":"","motif_pos":-1,"best_pos":6,"similarity":0.421},{"voice":10,"pitch":50,"start":173.25,"duration":0.125,"velocity":85,"measure":87,"beat":3.5,"subject_pos":5,"motif":"subject","motif_pos":5,"best_pos":5,"similarity":1.0},{"voice":2,"pitch":89,"start":173.3125,"duration":0.0625,"velocity":70,"measure":87,"beat":3.625,"subject_pos":-1,"motif":"","motif_pos":-1,"best_pos":0,"similarity":0.286},{"voice":0,"pitch":76,"start":173.375,"duration":0.125,"velocity":90,"measure":87,"beat":3.75,"subject_pos":6,"motif":"subject","motif_pos":6,"best_pos":6,"similarity":1.0},{"voice":2,"pitch":94,"start":173.375,"duration":0.0625,"velocity":70,"measure":87,"beat":3.75,"subject_pos":-1,"motif":"","motif_pos":-1,"best_pos":1,"similarity":0.286},{"voice":6,"pitch":80,"start":173.375,"duration":0.125,"velocity":90,"measure":87,"beat":3.75,"subject_pos":-1,"motif":"","motif_pos":-1,"best_pos":3,"similarity":0.443},{"voice":10,"pitch":52,"start":173.375,"duration":0.125,"velocity":85,"measure":87,"beat":3.75,"subject_pos":6,"motif":"subject","motif_pos":6,"best_pos":6,"similarity":1.0},{"voice":2,"pitch":98,"start":173.4375,"duration":0.0625,"velocity":70,"measure":87,"beat":3.875,"subject_pos":-1,"motif":"","motif_pos":-1,"best_pos":2,"similarity":0.161},{"voice":0,"pitch":77,"start":173.5,"duration":0.5,"velocity":90,"measure":87,"beat":4.0,"subject_pos":7,"motif":"subject","motif_pos":7,"best_pos":7,"similarity":1.0},{"voice":2,"pitch":70,"start":173.5,"duration":0.0625,"velocity":70,"measure":87,"beat":4.0,"subject_pos":-1,"motif":"","motif_pos":-1,"best_pos":0,"similarity":0.143},{"voice":5,"pitch":58,"start":173.5,"duration":0.25,"velocity":90,"measure":87,"beat":4.0,"subject_pos":-1,"motif":"","motif_pos":-1,"best_pos":0,"similarity":0.143},{"voice":5,"pitch":62,"start":173.5,"duration":0.25,"velocity":90,"measure":87,"beat":4.0,"subject_pos":-1,"motif":"","motif_pos":-1,"best_pos":5,"similarity":0.186},{"voice":5,"pitch":65,"start":173.5,"duration":0.25,"velocity":90,"measure":87,"beat":4.0,"subject_pos":-1,"motif":"","motif_pos":-1,"best_pos":0,"similarity":0.286},{"voice":5,"pitch":70,"start":173.5,"duration":0.25,"velocity":90,"measure":87,"beat":4.0,"subject_pos":-1,"motif":"","motif_pos":-1,"best_pos":1,"similarity":0.286},{"voice":5,"pitch":74,"start":173.5,"duration":0.25,"velocity":90,"measure":87,"beat":4.0,"subject_pos":-1,"motif":"","motif_pos":-1,"best_pos":5,"similarity":0.171},{"voice":5,"pitch":77,"start":173.5,"duration":0.25,"velocity":90,"measure":87,"beat":4.0,"subject_pos":-1,"motif":"","motif_pos":-1,"best_pos":6,"similarity":0.157},{"voice":6,"pitch":80,"start":173.5,"duration":0.125,"velocity":65,"measure":87,"beat":4.0,"subject_pos":-1,"motif":"","motif_pos":-1,"best_pos":4,"similarity":0.514},{"voice":7,"pitch":36,"start":173.5,"duration":0.25,"velocity":120,"measure":87,"beat":4.0,"subject_pos":-1,"motif":"","motif_pos":-1,"best_pos":4,"similarity":0.389},{"voice":8,"pitch":74,"start":173.5,"duration":0.25,"velocity":105,"measure":87,"beat":4.0,"subject_pos":-1,"motif":"","motif_pos":-1,"best_pos":4,"similarity":0.389},{"voice":10,"pitch":53,"start":173.5,"duration":0.5,"velocity":85,"measure":87,"beat":4.0,"subject_pos":7,"motif":"subject","motif_pos":7,"best_pos":7,"similarity":1.0},{"voice":11,"pitch":69,"start":173.5,"duration":0.5,"velocity":95,"measure":87,"beat":4.0,"subject_pos":3,"motif":"subject","motif_pos":3,"best_pos":3,"similarity":1.0},{"voice":2,"pitch":74,"start":173.5625,"duration":0.0625,"velocity":70,"measure":87,"beat":4.125,"subject_pos":-1,"motif":"","motif_pos":-1,"best_pos":5,"similarity":0.186},{"voice":2,"pitch":77,"start":173.625,"duration":0.0625,"velocity":70,"measure":87,"beat":4.25,"subject_pos":-1,"motif":"","motif_pos":-1,"best_pos":0,"similarity":0.286},{"voice":6,"pitch":80,"start":173.625,"duration":0.125,"velocity":90,"measure":87,"beat":4.25,"subject_pos":-1,"motif":"","motif_pos":-1,"best_pos":5,"similarity":0.55},{"voice":2,"pitch":82,"start":173.6875,"duration":0.0625,"velocity":70,"measure":87,"beat":4.375,"subject_pos":-1,"motif":"","motif_pos":-1,"best_pos":1,"similarity":0.286},{"voice":2,"pitch":86,"start":173.75,"duration":0.0625,"velocity":70,"measure":87,"beat":4.5,"subject_pos":-1,"motif":"","motif_pos":-1,"best_pos":5,"similarity":0.186},{"voice":6,"pitch":82,"start":173.75,"duration":0.125,"velocity":110,"measure":87,"beat":4.5,"subject_pos":-1,"motif":"","motif_pos":-1,"best_pos":6,"similarity":0.421},{"voice":2,"pitch":89,"start":173.8125,"duration":0.0625,"velocity":70,"measure":87,"beat":4.625,"subject_pos":-1,"motif":"","motif_pos":-1,"best_pos":0,"similarity":0.286},{"voice":2,"pitch":94,"start":173.875,"duration":0.0625,"velocity":70,"measure":87,"beat":4.75,"subject_pos":-1,"motif":"","motif_pos":-1,"best_pos":1,"similarity":0.293},{"voice":6,"pitch":80,"start":173.875,"duration":0.125,"velocity":90,"measure":87,"beat":4.75,"subject_pos":-1,"motif":"","motif_pos":-1,"best_pos":3,"similarity":0.443},{"voice":2,"pitch":98,"start":173.9375,"duration":0.0625,"velocity":70,"measure":87,"beat":4.875,"subject_pos":-1,"motif":"","motif_pos":-1,"best_pos":2,"similarity":0.164},{"voice":0,"pitch":81,"start":174.0,"duration":0.25,"velocity":85,"measure":88,"beat":1.0,"subject_pos":0,"motif":"subject_inv","motif_pos":0,"best_pos":0,"similarity":1.0},{"voice":2,"pitch":62,"start":174.0,"duration":0.0625,"velocity":70,"measure":88,"beat":1.0,"subject_pos":-1,"motif":"","motif_pos":-1,"best_pos":5,"similarity":0.157},{"voice":3,"pitch":33,"start":174.0,"duration":2.0,"velocity":105,"measure":88,"beat":1.0,"subject_pos":0,"motif":"subject","motif_pos":0,"best_pos":0,"similarity":1.0},{"voice":5,"pitch":62,"start":174.0,"duration":0.25,"velocity":90,"measure":88,"beat":1.0,"subject_pos":-1,"motif":"","motif_pos":-1,"best_pos":5,"similarity":0.171},{"voice":5,"pitch":65,"start":174.0,"duration":0.25,"velocity":90,"measure":88,"beat":1.0,"subject_pos":-1,"motif":"","motif_pos":-1,"best_pos":6,"similarity":0.179},{"voice":5,"pitch":69,"start":174.0,"duration":0.25,"velocity":90,"measure":88,"beat":1.0,"subject_pos":-1,"motif":"","motif_pos":-1,"best_pos":0,"similarity":0.286},{"voice":5,"pitch":74,"start":174.0,"duration":0.25,"velocity":90,"measure":88,"beat":1.0,"subject_pos":-1,"motif":"","motif_pos":-1,"best_pos":1,"similarity":0.286},{"voice":5,"pitch":77,"start":174.0,"duration":0.25,"velocity":90,"measure":88,"beat":1.0,"subject_pos":-1,"motif":"","motif_pos":-1,"best_pos":6,"similarity":0.186},{"voice":5,"pitch":81,"start":174.0,"duration":0.25,"velocity":90,"measure":88,"beat":1.0,"subject_pos":-1,"motif":"","motif_pos":-1,"best_pos":1,"similarity":0.143},{"voice":6,"pitch":80,"start":174.0,"duration":0.125,"velocity":65,"measure":88,"beat":1.0,"subject_pos":-1,"motif":"","motif_pos":-1,"best_pos":4,"similarity":0.514},{"voice":7,"pitch":36,"start":174.0,"duration":0.25,"velocity":120,"measure":88,"beat":1.0,"subject_pos":-1,"motif":"","motif_pos":-1,"best_pos":4,"similarity":0.389},{"voice":10,"pitch":53,"start":174.0,"duration":0.25,"velocity":85,"measure":88,"beat":1.0,"subject_pos":0,"motif":"subject","motif_pos":0,"best_pos":0,"similarity":1.0},{"voice":11,"pitch":68,"start":174.0,"duration":0.5,"velocity":95,"measure":88,"beat":1.0,"subject_pos":4,"motif":"subject","motif_pos":4,"best_pos":4,"similarity":1.0},{"voice":2,"pitch":65,"start":174.0625,"duration":0.0625,"velocity":70,"measure":88,"beat":1.125,"subject_pos":-1,"motif":"","motif_pos":-1,"best_pos":6,"similarity":0.171},{"voice":2,"pitch":69,"start":174.125,"duration":0.0625,"velocity":70,"measure":88,"beat":1.25,"subject_pos":-1,"motif":"","motif_pos":-1,"best_pos":0,"similarity":0.286},{"voice":6,"pitch":80,"start":174.125,"duration":0.125,"velocity":90,"measure":88,"beat":1.25,"subject_pos":-1,"motif":"","motif_pos":-1,"best_pos":5,"similarity":0.55},{"voice":2,"pitch":74,"start":174.1875,"duration":0.0625,"velocity":70,"measure":88,"beat":1.375,"subject_pos":-1,"motif":"","motif_pos":-1,"best_pos":1,"similarity":0.286},{"voice":0,"pitch":76,"start":174.25,"duration":0.25,"velocity":85,"measure":88,"beat":1.5,"subject_pos":1,"motif":"subject_inv","motif_pos":1,"best_pos":1,"similarity":1.0},{"voice":2,"pitch":77,"start":174.25,"duration":0.0625,"velocity":70,"measure":88,"beat":1.5,"subject_pos":-1,"motif":"","motif_pos":-1,"best_pos":6,"similarity":0.186},{"voice":6,"pitch":82,"start":174.25,"duration":0.125,"velocity":110,"measure":88,"beat":1.5,"subject_pos":-1,"motif":"","motif_pos":-1,"best_pos":6,"similarity":0.421},{"voice":10,"pitch":60,"start":174.25,"duration":0.25,"velocity":85,"measure":88,"beat":1.5,"subject_pos":1,"motif":"subject","motif_pos":1,"best_pos":1,"similarity":1.0},{"voice":2,"pitch":81,"start":174.3125,"duration":0.0625,"velocity":70,"measure":88,"beat":1.625,"subject_pos":-1,"motif":"","motif_pos":-1,"best_pos":0,"similarity":0.286},{"voice":2,"pitch":86,"start":174.375,"duration":0.0625,"velocity":70,"measure":88,"beat":1.75,"subject_pos":-1,"motif":"","motif_pos":-1,"best_pos":1,"similarity":0.293},{"voice":6,"pitch":80,"start":174.375,"duration":0.125,"velocity":90,"measure":88,"beat":1.75,"subject_pos":-1,"motif":"","motif_pos":-1,"best_pos":3,"similarity":0.443},{"voice":2,"pitch":89,"start":174.4375,"duration":0.0625,"velocity":70,"measure":88,"beat":1.875,"subject_pos":-1,"motif":"","motif_pos":-1,"best_pos":2,"similarity":0.164},{"voice":0,"pitch":78,"start":174.5,"duration":0.25,"velocity":85,"measure":88,"beat":2.0,"subject_pos":2,"motif":"subject_inv","motif_pos":2,"best_pos":2,"similarity":1.0},{"voice":2,"pitch":62,"start":174.5,"duration":0.0625,"velocity":70,"measure":88,"beat":2.0,"subject_pos":-1,"motif":"","motif_pos":-1,"best_pos":5,"similarity":0.171},{"voice":5,"pitch":62,"start":174.5,"duration":0.25,"velocity":90,"measure":88,"beat":2.0,"subject_pos":-1,"motif":"","motif_pos":-1,"best_pos":5,"similarity":0.157},{"voice":5,"pitch":65,"start":174.5,"duration":0.25,"velocity":90,"measure":88,"beat":2.0,"subject_pos":-1,"motif":"","motif_pos":-1,"best_pos":6,"similarity":0.171},{"voice":5,"pitch":69,"start":174.5,"duration":0.25,"velocity":90,"measure":88,"beat":2.0,"subject_pos":-1,"motif":"","motif_pos":-1,"best_pos":0,"similarity":0.286},{"voice":5,"pitch":74,"start":174.5,"duration":0.25,"velocity":90,"measure":88,"beat":2.0,"subject_pos":-1,"motif":"","motif_pos":-1,"best_pos":1,"similarity":0.286},{"voice":5,"pitch":77,"start":174.5,"duration":0.25,"velocity":90,"measure":88,"beat":2.0,"subject_pos":-1,"motif":"","motif_pos":-1,"best_pos":6,"similarity":0.186},{"voice":5,"pitch":81,"start":174.5,"duration":0.25,"velocity":90,"measure":88,"beat":2.0,"subject_pos":-1,"motif":"","motif_pos":-1,"best_pos":1,"similarity":0.143},{"voice":6,"pitch":80,"start":174.5,"duration":0.125,"velocity":65,"measure":88,"beat":2.0,"subject_pos":-1,"motif":"","motif_pos":-1,"best_pos":4,"similarity":0.514},{"voice":7,"pitch":36,"start":174.5,"duration":0.25,"velocity":120,"measure":88,"beat":2.0,"subject_pos":-1,"motif":"","motif_pos":-1,"best_pos":4,"similarity":0.389},{"voice":8,"pitch":74,"start":174.5,"duration":0.25,"velocity":105,"measure":88,"beat":2.0,"subject_pos":-1,"motif":"","motif_pos":-1,"best_pos":4,"similarity":0.389},{"voice":10,"pitch":56,"start":174.5,"duration":0.25,"velocity":85,"measure":88,"beat":2.0,"subject_pos":2,"motif":"subject","motif_pos":2,"best_pos":2,"similarity":1.0},{"voice":11,"pitch":69,"start":174.5,"duration":0.25,"velocity":95,"measure":88,"beat":2.0,"subject_pos":5,"motif":"subject","motif_pos":5,"best_pos":5,"similarity":1.0},{"voice":2,"pitch":65,"start":174.5625,"duration":0.0625,"velocity":70,"measure":88,"beat":2.125,"subject_pos":-1,"motif":"","motif_pos":-1,"best_pos":6,"similarity":0.179},{"voice":2,"pitch":69,"start":174.625,"duration":0.0625,"velocity":70,"measure":88,"beat":2.25,"subject_pos":-1,"motif":"","motif_pos":-1,"best_pos":0,"similarity":0.286},{"voice":6,"pitch":80,"start":174.625,"duration":0.125,"velocity":90,"measure":88,"beat":2.25,"subject_pos":-1,"motif":"","motif_pos":-1,"best_pos":5,"similarity":0.55},{"voice":2,"pitch":74,"start":174.6875,"duration":0.0625,"velocity":70,"measure":88,"beat":2.375,"subject_pos":-1,"motif":"","motif_pos":-1,"best_pos":1,"similarity":0.286},{"voice":0,"pitch":81,"start":174.75,"duration":0.25,"velocity":85,"measure":88,"beat":2.5,"subject_pos":3,"motif":"subject_inv","motif_pos":3,"best_pos":3,"similarity":1.0},{"voice":2,"pitch":77,"start":174.75,"duration":0.0625,"velocity":70,"measure":88,"beat":2.5,"subject_pos":-1,"motif":"","motif_pos":-1,"best_pos":6,"similarity":0.186},{"voice":6,"pitch":82,"start":174.75,"duration":0.125,"velocity":110,"measure":88,"beat":2.5,"subject_pos":-1,"motif":"","motif_pos":-1,"best_pos":6,"similarity":0.421},{"voice":10,"pitch":53,"start":174.75,"duration":0.25,"velocity":85,"measure":88,"beat":2.5,"subject_pos":3,"motif":"subject","motif_pos":3,"best_pos":3,"similarity":1.0},{"voice":11,"pitch":71,"start":174.75,"duration":0.25,"velocity":95,"measure":88,"beat":2.5,"subject_pos":6,"motif":"subject","motif_pos":6,"best_pos":6,"similarity":1.0},{"voice":2,"pitch":81,"start":174.8125,"duration":0.0625,"velocity":70,"measure":88,"beat":2.625,"subject_pos":-1,"motif":"","motif_pos":-1,"best_pos":0,"similarity":0.286},{"voice":2,"pitch":86,"start":174.875,"duration":0.0625,"velocity":70,"measure":88,"beat":2.75,"subject_pos":-1,"motif":"","motif_pos":-1,"best_pos":1,"similarity":0.293},{"voice":6,"pitch":80,"start":174.875,"duration":0.125,"velocity":90,"measure":88,"beat":2.75,"subject_pos":-1,"motif":"","motif_pos":-1,"best_pos":3,"similarity":0.443},{"voice":2,"pitch":89,"start":174.9375,"duration":0.0625,"velocity":70,"measure":88,"beat":2.875,"subject_pos":-1,"motif":"","motif_pos":-1,"best_pos":2,"similarity":0.164},{"voice":0,"pitch":82,"start":175.0,"duration":0.25,"velocity":85,"measure":88,"beat":3.0,"subject_pos":4,"motif":"subject_inv","motif_pos":4,"best_pos":4,"similarity":1.0},{"voice":2,"pitch":62,"start":175.0,"duration":0.0625,"velocity":70,"measure":88,"beat":3.0,"subject_pos":-1,"motif":"","motif_pos":-1,"best_pos":5,"similarity":0.171},{"voice":5,"pitch":62,"start":175.0,"duration":0.25,"velocity":90,"measure":88,"beat":3.0,"subject_pos":-1,"motif":"","motif_pos":-1,"best_pos":5,"similarity":0.157},{"voice":5,"pitch":65,"start":175.0,"duration":0.25,"velocity":90,"measure":88,"beat":3.0,"subject_pos":-1,"motif":"","motif_pos":-1,"best_pos":6,"similarity":0.171},{"voice":5,"pitch":69,"start":175.0,"duration":0.25,"velocity":90,"measure":88,"beat":3.0,"subject_pos":-1,"motif":"","motif_pos":-1,"best_pos":0,"similarity":0.286},{"voice":5,"pitch":74,"start":175.0,"duration":0.25,"velocity":90,"measure":88,"beat":3.0,"subject_pos":-1,"motif":"","motif_pos":-1,"best_pos":1,"similarity":0.286},{"voice":5,"pitch":77,"start":175.0,"duration":0.25,"velocity":90,"measure":88,"beat":3.0,"subject_pos":-1,"motif":"","motif_pos":-1,"best_pos":6,"similarity":0.186},{"voice":5,"pitch":81,"start":175.0,"duration":0.25,"velocity":90,"measure":88,"beat":3.0,"subject_pos":-1,"motif":"","motif_pos":-1,"best_pos":1,"similarity":0.143},{"voice":6,"pitch":80,"start":175.0,"duration":0.125,"velocity":65,"measure":88,"beat":3.0,"subject_pos":-1,"motif":"","motif_pos":-1,"best_pos":4,"similarity":0.514},{"voice":7,"pitch":36,"start":175.0,"duration":0.25,"velocity":120,"measure":88,"beat":3.0,"subject_pos":-1,"motif":"","motif_pos":-1,"best_pos":4,"similarity":0.389},{"voice":10,"pitch":52,"start":175.0,"duration":0.25,"velocity":85,"measure":88,"beat":3.0,"subject_pos":4,"motif":"subject","motif_pos":4,"best_pos":4,"similarity":1.0},{"voice":11,"pitch":72,"start":175.0,"duration":1.0,"velocity":95,"measure":88,"beat":3.0,"subject_pos":7,"motif":"subject","motif_pos":7,"best_pos":7,"similarity":1.0},{"voice":2,"pitch":65,"start":175.0625,"duration":0.0625,"velocity":70,"measure":88,"beat":3.125,"subject_pos":-1,"motif":"","motif_pos":-1,"best_pos":6,"similarity":0.179},{"voice":2,"pitch":69,"start":175.125,"duration":0.0625,"velocity":70,"measure":88,"beat":3.25,"subject_pos":-1,"motif":"","motif_pos":-1,"best_pos":0,"similarity":0.286},{"voice":6,"pitch":80,"start":175.125,"duration":0.125,"velocity":90,"measure":88,"beat":3.25,"subject_pos":-1,"motif":"","motif_pos":-1,"best_pos":5,"similarity":0.55},{"voice":2,"pitch":74,"start":175.1875,"duration":0.0625,"velocity":70,"measure":88,"beat":3.375,"subject_pos":-1,"motif":"","motif_pos":-1,"best_pos":1,"similarity":0.286},{"voice":0,"pitch":81,"start":175.25,"duration":0.125,"velocity":85,"measure":88,"beat":3.5,"subject_pos":5,"motif":"subject_inv","motif_pos":5,"best_pos":5,"similarity":1.0},{"voice":2,"pitch":77,"start":175.25,"duration":0.0625,"velocity":70,"measure":88,"beat":3.5,"subject_pos":-1,"motif":"","motif_pos":-1,"best_pos":6,"similarity":0.186},{"voice":6,"pitch":82,"start":175.25,"duration":0.125,"velocity":110,"measure":88,"beat":3.5,"subject_pos":-1,"motif":"","motif_pos":-1,"best_pos":6,"similarity":0.421},{"voice":10,"pitch":53,"start":175.25,"duration":0.125,"velocity":85,"measure":88,"beat":3.5,"subject_pos":5,"motif":"subject","motif_pos":5,"best_pos":5,"similarity":1.0},{"voice":2,"pitch":81,"start":175.3125,"duration":0.0625,"velocity":70,"measure":88,"beat":3.625,"subject_pos":-1,"motif":"","motif_pos":-1,"best_pos":0,"similarity":0.286},{"voice":0,"pitch":79,"start":175.375,"duration":0.125,"velocity":85,"measure":88,"beat":3.75,"subject_pos":6,"motif":"subject_inv","motif_pos":6,"best_pos":6,"similarity":1.0},{"voice":2,"pitch":86,"start":175.375,"duration":0.0625,"velocity":70,"measure":88,"beat":3.75,"subject_pos":-1,"motif":"","motif_pos":-1,"best_pos":1,"similarity":0.293},{"voice":6,"pitch":80,"start":175.375,"duration":0.125,"velocity":90,"measure":88,"beat":3.75,"subject_pos":-1,"motif":"","motif_pos":-1,"best_pos":3,"similarity":0.443},{"voice":10,"pitch":55,"start":175.375,"duration":0.125,"velocity":85,"measure":88,"beat":3.75,"subject_pos":6,"motif":"subject","motif_pos":6,"best_pos":6,"similarity":1.0},{"voice":2,"pitch":89,"start":175.4375,"duration":0.0625,"velocity":70,"measure":88,"beat":3.875,"subject_pos":-1,"motif":"","motif_pos":-1,"best_pos":2,"similarity":0.164},{"voice":0,"pitch":78,"start":175.5,"duration":0.5,"velocity":85,"measure":88,"beat":4.0,"subject_pos":7,"motif":"subject_inv","motif_pos":7,"best_pos":7,"similarity":1.0},{"voice":2,"pitch":62,"start":175.5,"duration":0.0625,"velocity":70,"measure":88,"beat":4.0,"subject_pos":-1,"motif":"","motif_pos":-1,"best_pos":5,"similarity":0.171},{"voice":5,"pitch":62,"start":175.5,"duration":0.25,"velocity":90,"measure":88,"beat":4.0,"subject_pos":-1,"motif":"","motif_pos":-1,"best_pos":5,"similarity":0.157},{"voice":5,"pitch":65,"start":175.5,"duration":0.25,"velocity":90,"measure":88,"beat":4.0,"subject_pos":-1,"motif":"","motif_pos":-1,"best_pos":6,"similarity":0.171},{"voice":5,"pitch":69,"start":175.5,"duration":0.25,"velocity":90,"measure":88,"beat":4.0,"subject_pos":-1,"motif":"","motif_pos":-1,"best_pos":0,"similarity":0.286},{"voice":5,"pitch":74,"start":175.5,"duration":0.25,"velocity":90,"measure":88,"beat":4.0,"subject_pos":-1,"motif":"","motif_pos":-1,"best_pos":1,"similarity":0.286},{"voice":5,"pitch":77,"start":175.5,"duration":0.25,"velocity":90,"measure":88,"beat":4.0,"subject_pos":-1,"motif":"","motif_pos":-1,"best_pos":6,"similarity":0.186},{"voice":5,"pitch":81,"start":175.5,"duration":0.25,"velocity":90,"measure":88,"beat":4.0,"subject_pos":-1,"motif":"","motif_pos":-1,"best_pos":1,"similarity":0.143},{"voice":6,"pitch":80,"start":175.5,"duration":0.125,"velocity":65,"measure":88,"beat":4.0,"subject_pos":-1,"motif":"","motif_pos":-1,"best_pos":4,"similarity":0.514},{"voice":7,"pitch":36,"start":175.5,"duration":0.25,"velocity":120,"measure":88,"beat":4.0,"subject_pos":-1,"motif":"","motif_pos":-1,"best_pos":4,"similarity":0.389},{"voice":8,"pitch":74,"start":175.5,"duration":0.25,"velocity":105,"measure":88,"beat":4.0,"subject_pos":-1,"motif":"","motif_pos":-1,"best_pos":4,"similarity":0.389},{"voice":10,"pitch":56,"start":175.5,"duration":0.5,"velocity":85,"measure":88,"beat":4.0,"subject_pos":7,"motif":"subject","motif_pos":7,"best_pos":7,"similarity":1.0},{"voice":2,"pitch":65,"start":175.5625,"duration":0.0625,"velocity":70,"measure":88,"beat":4.125,"subject_pos":-1,"motif":"","motif_pos":-1,"best_pos":6,"similarity":0.179},{"voice":2,"pitch":69,"start":175.625,"duration":0.0625,"velocity":70,"measure":88,"beat":4.25,"subject_pos":-1,"motif":"","motif_pos":-1,"best_pos":0,"similarity":0.286},{"voice":6,"pitch":80,"start":175.625,"duration":0.125,"velocity":90,"measure":88,"beat":4.25,"subject_pos":-1,"motif":"","motif_pos":-1,"best_pos":5,"similarity":0.55},{"voice":2,"pitch":74,"start":175.6875,"duration":0.0625,"velocity":70,"measure":88,"beat":4.375,"subject_pos":-1,"motif":"","motif_pos":-1,"best_pos":1,"similarity":0.286},{"voice":2,"pitch":77,"start":175.75,"duration":0.0625,"velocity":70,"measure":88,"beat":4.5,"subject_pos":-1,"motif":"","motif_pos":-1,"best_pos":6,"similarity":0.186},{"voice":6,"pitch":82,"start":175.75,"duration":0.125,"velocity":110,"measure":88,"beat":4.5,"subject_pos":-1,"motif":"","motif_pos":-1,"best_pos":6,"similarity":0.421},{"voice":2,"pitch":81,"start":175.8125,"duration":0.0625,"velocity":70,"measure":88,"beat":4.625,"subject_pos":-1,"motif":"","motif_pos":-1,"best_pos":0,"similarity":0.286},{"voice":2,"pitch":86,"start":175.875,"duration":0.0625,"velocity":70,"measure":88,"beat":4.75,"subject_pos":-1,"motif":"","motif_pos":-1,"best_pos":1,"similarity":0.293},{"voice":6,"pitch":80,"start":175.875,"duration":0.125,"velocity":90,"measure":88,"beat":4.75,"subject_pos":-1,"motif":"","motif_pos":-1,"best_pos":3,"similarity":0.443},{"voice":2,"pitch":89,"start":175.9375,"duration":0.0625,"velocity":70,"measure":88,"beat":4.875,"subject_pos":-1,"motif":"","motif_pos":-1,"best_pos":2,"similarity":0.164},{"voice":0,"pitch":69,"start":176.0,"duration":0.5,"velocity":92,"measure":89,"beat":1.0,"subject_pos":0,"motif":"subject","motif_pos":0,"best_pos":0,"similarity":1.0},{"voice":1,"pitch":50,"start":176.0,"duration":8.0,"velocity":45,"measure":89,"beat":1.0,"subject_pos":-1,"motif":"","motif_pos":-1,"best_pos":5,"similarity":0.157},{"voice":1,"pitch":53,"start":176.0,"duration":8.0,"velocity":45,"measure":89,"beat":1.0,"subject_pos":-1,"motif":"","motif_pos":-1,"best_pos":6,"similarity":0.171},{"voice":1,"pitch":57,"start":176.0,"duration":8.0,"velocity":45,"measure":89,"beat":1.0,"subject_pos":-1,"motif":"","motif_pos":-1,"best_pos":0,"similarity":0.286},{"voice":1,"pitch":62,"start":176.0,"duration":8.0,"velocity":45,"measure":89,"beat":1.0,"subject_pos":-1,"motif":"","motif_pos":-1,"best_pos":1,"similarity":0.286},{"voice":1,"pitch":65,"start":176.0,"duration":8.0,"velocity":45,"measure":89,"beat":1.0,"subject_pos":-1,"motif":"","motif_pos":-1,"best_pos":6,"similarity":0.186},{"voice":1,"pitch":69,"start":176.0,"duration":8.0,"velocity":45,"measure":89,"beat":1.0,"subject_pos":-1,"motif":"","motif_pos":-1,"best_pos":0,"similarity":0.286},{"voice":1,"pitch":74,"start":176.0,"duration":8.0,"velocity":45,"measure":89,"beat":1.0,"subject_pos":-1,"motif":"","motif_pos":-1,"best_pos":1,"similarity":0.286},{"voice":1,"pitch":77,"start":176.0,"duration":8.0,"velocity":45,"measure":89,"beat":1.0,"subject_pos":-1,"motif":"","motif_pos":-1,"best_pos":6,"similarity":0.186},{"voice":1,"pitch":81,"start":176.0,"duration":8.0,"velocity":45,"measure":89,"beat":1.0,"subject_pos":-1,"motif":"","motif_pos":-1,"best_pos":0,"similarity":0.286},{"voice":1,"pitch":86,"start":176.0,"duration":8.0,"velocity":45,"measure":89,"beat":1.0,"subject_pos":-1,"motif":"","motif_pos":-1,"best_pos":1,"similarity":0.286},{"voice":1,"pitch":89,"start":176.0,"duration":8.0,"velocity":45,"measure":89,"beat":1.0,"subject_pos":-1,"motif":"","motif_pos":-1,"best_pos":6,"similarity":0.186},{"voice":1,"pitch":93,"start":176.0,"duration":8.0,"velocity":45,"measure":89,"beat":1.0,"subject_pos":-1,"motif":"","motif_pos":-1,"best_pos":1,"similarity":0.143},{"voice":2,"pitch":62,"start":176.0,"duration":0.0625,"velocity":70,"measure":89,"beat":1.0,"subject_pos":-1,"motif":"","motif_pos":-1,"best_pos":5,"similarity":0.171},{"voice":3,"pitch":38,"start":176.0,"duration":2.0,"velocity":105,"measure":89,"beat":1.0,"subject_pos":1,"motif":"subject","motif_pos":1,"best_pos":1,"similarity":1.0},{"voice":5,"pitch":62,"start":176.0,"duration":0.25,"velocity":90,"measure":89,"beat":1.0,"subject_pos":-1,"motif":"","motif_pos":-1,"best_pos":5,"similarity":0.157},{"voice":5,"pitch":65,"start":176.0,"duration":0.25,"velocity":90,"measure":89,"beat":1.0,"subject_pos":-1,"motif":"","motif_pos":-1,"best_pos":6,"similarity":0.171},{"voice":5,"pitch":69,"start":176.0,"duration":0.25,"velocity":90,"measure":89,"beat":1.0,"subject_pos":-1,"motif":"","motif_pos":-1,"best_pos":0,"similarity":0.286},{"voice":5,"pitch":74,"start":176.0,"duration":0.25,"velocity":90,"measure":89,"beat":1.0,"subject_pos":-1,"motif":"","motif_pos":-1,"best_pos":1,"similarity":0.286},{"voice":5,"pitch":77,"start":176.0,"duration":0.25,"velocity":90,"measure":89,"beat":1.0,"subject_pos":-1,"motif":"","motif_pos":-1,"best_pos":6,"similarity":0.186},{"voice":5,"pitch":81,"start":176.0,"duration":0.25,"velocity":90,"measure":89,"beat":1.0,"subject_pos":-1,"motif":"","motif_pos":-1,"best_pos":1,"similarity":0.143},{"voice":6,"pitch":80,"start":176.0,"duration":0.125,"velocity":65,"measure":89,"beat":1.0,"subject_pos":-1,"motif":"","motif_pos":-1,"best_pos":4,"similarity":0.514},{"voice":7,"pitch":36,"start":176.0,"duration":0.25,"velocity":120,"measure":89,"beat":1.0,"subject_pos":-1,"motif":"","motif_pos":-1,"best_pos":4,"similarity":0.389},{"voice":11,"pitch":76,"start":176.0,"duration":0.25,"velocity":90,"measure":89,"beat":1.0,"subject_pos":0,"motif":"subject_inv","motif_pos":0,"best_pos":0,"similarity":1.0},{"voice":2,"pitch":65,"start":176.0625,"duration":0.0625,"velocity":70,"measure":89,"beat":1.125,"subject_pos":-1,"motif":"","motif_pos":-1,"best_pos":6,"similarity":0.179},{"voice":2,"pitch":69,"start":176.125,"duration":0.0625,"velocity":70,"measure":89,"beat":1.25,"subject_pos":-1,"motif":"","motif_pos":-1,"best_pos":0,"similarity":0.286},{"voice":6,"pitch":80,"start":176.125,"duration":0.125,"velocity":90,"measure":89,"beat":1.25,"subject_pos":-1,"motif":"","motif_pos":-1,"best_pos":5,"similarity":0.55},{"voice":2,"pitch":74,"start":176.1875,"duration":0.0625,"velocity":70,"measure":89,"beat":1.375,"subject_pos":-1,"motif":"","motif_pos":-1,"best_pos":1,"similarity":0.286},{"voice":2,"pitch":77,"start":176.25,"duration":0.0625,"velocity":70,"measure":89,"beat":1.5,"subject_pos":-1,"motif":"","motif_pos":-1,"best_pos":6,"similarity":0.186},{"voice":6,"pitch":82,"start":176.25,"duration":0.125,"velocity":110,"measure":89,"beat":1.5,"subject_pos":-1,"motif":"","motif_pos":-1,"best_pos":6,"similarity":0.421},{"voice":11,"pitch":71,"start":176.25,"duration":0.25,"velocity":90,"measure":89,"beat":1.5,"subject_pos":1,"motif":"subject_inv","motif_pos":1,"best_pos":1,"similarity":1.0},{"voice":2,"pitch":81,"start":176.3125,"duration":0.0625,"velocity":70,"measure":89,"beat":1.625,"subject_pos":-1,"motif":"","motif_pos":-1,"best_pos":0,"similarity":0.286},{"voice":2,"pitch":86,"start":176.375,"duration":0.0625,"velocity":70,"measure":89,"beat":1.75,"subject_pos":-1,"motif":"","motif_pos":-1,"best_pos":1,"similarity":0.293},{"voice":6,"pitch":80,"start":176.375,"duration":0.125,"velocity":90,"measure":89,"beat":1.75,"subject_pos":-1,"motif":"","motif_pos":-1,"best_pos":3,"similarity":0.443},{"voice":2,"pitch":89,"start":176.4375,"duration":0.0625,"velocity":70,"measure":89,"beat":1.875,"subject_pos":-1,"motif":"","motif_pos":-1,"best_pos":2,"similarity":0.164},{"voice":0,"pitch":76,"start":176.5,"duration":0.5,"velocity":92,"measure":89,"beat":2.0,"subject_pos":1,"motif":"subject","motif_pos":1,"best_pos":1,"similarity":1.0},{"voice":2,"pitch":62,"start":176.5,"duration":0.0625,"velocity":70,"measure":89,"beat":2.0,"subject_pos":-1,"motif":"","motif_pos":-1,"best_pos":5,"similarity":0.171},{"voice":5,"pitch":62,"start":176.5,"duration":0.25,"velocity":90,"measure":89,"beat":2.0,"subject_pos":-1,"motif":"","motif_pos":-1,"best_pos":5,"similarity":0.157},{"voice":5,"pitch":65,"start":176.5,"duration":0.25,"velocity":90,"measure":89,"beat":2.0,"subject_pos":-1,"motif":"","motif_pos":-1,"best_pos":6,"similarity":0.171},{"voice":5,"pitch":69,"start":176.5,"duration":0.25,"velocity":90,"measure":89,"beat":2.0,"subject_pos":-1,"motif":"","motif_pos":-1,"best_pos":0,"similarity":0.286},{"voice":5,"pitch":74,"start":176.5,"duration":0.25,"velocity":90,"measure":89,"beat":2.0,"subject_pos":-1,"motif":"","motif_pos":-1,"best_pos":1,"similarity":0.286},{"voice":5,"pitch":77,"start":176.5,"duration":0.25,"velocity":90,"measure":89,"beat":2.0,"subject_pos":-1,"motif":"","motif_pos":-1,"best_pos":6,"similarity":0.186},{"voice":5,"pitch":81,"start":176.5,"duration":0.25,"velocity":90,"measure":89,"beat":2.0,"subject_pos":-1,"motif":"","motif_pos":-1,"best_pos":1,"similarity":0.143},{"voice":6,"pitch":80,"start":176.5,"duration":0.125,"velocity":65,"measure":89,"beat":2.0,"subject_pos":-1,"motif":"","motif_pos":-1,"best_pos":4,"similarity":0.514},{"voice":7,"pitch":36,"start":176.5,"duration":0.25,"velocity":120,"measure":89,"beat":2.0,"subject_pos":-1,"motif":"","motif_pos":-1,"best_pos":4,"similarity":0.389},{"voice":8,"pitch":74,"start":176.5,"duration":0.25,"velocity":105,"measure":89,"beat":2.0,"subject_pos":-1,"motif":"","motif_pos":-1,"best_pos":4,"similarity":0.389},{"voice":11,"pitch":73,"start":176.5,"duration":0.25,"velocity":90,"measure":89,"beat":2.0,"subject_pos":2,"motif":"subject_inv","motif_pos":2,"best_pos":2,"similarity":1.0},{"voice":2,"pitch":65,"start":176.5625,"duration":0.0625,"velocity":70,"measure":89,"beat":2.125,"subject_pos":-1,"motif":"","motif_pos":-1,"best_pos":6,"similarity":0.179},{"voice":2,"pitch":69,"start":176.625,"duration":0.0625,"velocity":70,"measure":89,"beat":2.25,"subject_pos":-1,"motif":"","motif_pos":-1,"best_pos":0,"similarity":0.286},{"voice":6,"pitch":80,"start":176.625,"duration":0.125,"velocity":90,"measure":89,"beat":2.25,"subject_pos":-1,"motif":"","motif_pos":-1,"best_pos":5,"similarity":0.55},{"voice":2,"pitch":74,"start":176.6875,"duration":0.0625,"velocity":70,"measure":89,"beat":2.375,"subject_pos":-1,"motif":"","motif_pos":-1,"best_pos":1,"similarity":0.286},{"voice":2,"pitch":77,"start":176.75,"duration":0.0625,"velocity":70,"measure":89,"beat":2.5,"subject_pos":-1,"motif":"","motif_pos":-1,"best_pos":6,"similarity":0.186},{"voice":6,"pitch":82,"start":176.75,"duration":0.125,"velocity":110,"measure":89,"beat":2.5,"subject_pos":-1,"motif":"","motif_pos":-1,"best_pos":6,"similarity":0.421},{"voice":11,"pitch":76,"start":176.75,"duration":0.25,"velocity":90,"measure":89,"beat":2.5,"subject_pos":3,"motif":"subject_inv","motif_pos":3,"best_pos":3,"similarity":1.0},{"voice":2,"pitch":81,"start":176.8125,"duration":0.0625,"velocity":70,"measure":89,"beat":2.625,"subject_pos":-1,"motif":"","motif_pos":-1,"best_pos":0,"similarity":0.286},{"voice":2,"pitch":86,"start":176.875,"duration":0.0625,"velocity":70,"measure":89,"beat":2.75,"subject_pos":-1,"motif":"","motif_pos":-1,"best_pos":1,"similarity":0.293},{"voice":6,"pitch":80,"start":176.875,"duration":0.125,"velocity":90,"measure":89,"beat":2.75,"subject_pos":-1,"motif":"","motif_pos":-1,"best_pos":3,"similarity":0.443},{"voice":2,"pitch":89,"start":176.9375,"duration":0.0625,"velocity":70,"measure":89,"beat":2.875,"subject_pos":-1,"motif":"","motif_pos":-1,"best_pos":2,"similarity":0.164},{"voice":0,"pitch":72,"start":177.0,"duration":0.5,"velocity":92,"measure":89,"beat":3.0,"subject_pos":2,"motif":"subject","motif_pos":2,"best_pos":2,"similarity":1.0},{"voice":2,"pitch":62,"start":177.0,"duration":0.0625,"velocity":70,"measure":89,"beat":3.0,"subject_pos":-1,"motif":"","motif_pos":-1,"best_pos":5,"similarity":0.171},{"voice":5,"pitch":62,"start":177.0,"duration":0.25,"velocity":90,"measure":89,"beat":3.0,"subject_pos":-1,"motif":"","motif_pos":-1,"best_pos":5,"similarity":0.157},{"voice":5,"pitch":65,"start":177.0,"duration":0.25,"velocity":90,"measure":89,"beat":3.0,"subject_pos":-1,"motif":"","motif_pos":-1,"best_pos":6,"similarity":0.171},{"voice":5,"pitch":69,"start":177.0,"duration":0.25,"velocity":90,"measure":89,"beat":3.0,"subject_pos":-1,"motif":"","motif_pos":-1,"best_pos":0,"similarity":0.286},{"voice":5,"pitch":74,"start":177.0,"duration":0.25,"velocity":90,"measure":89,"beat":3.0,"subject_pos":-1,"motif":"","motif_pos":-1,"best_pos":1,"similarity":0.286},{"voice":5,"pitch":77,"start":177.0,"duration":0.25,"velocity":90,"measure":89,"beat":3.0,"subject_pos":-1,"motif":"","motif_pos":-1,"best_pos":6,"similarity":0.186},{"voice":5,"pitch":81,"start":177.0,"duration":0.25,"velocity":90,"measure":89,"beat":3.0,"subject_pos":-1,"motif":"","motif_pos":-1,"best_pos":1,"similarity":0.143},{"voice":6,"pitch":80,"start":177.0,"duration":0.125,"velocity":65,"measure":89,"beat":3.0,"subject_pos":-1,"motif":"","motif_pos":-1,"best_pos":4,"similarity":0.514},{"voice":7,"pitch":36,"start":177.0,"duration":0.25,"velocity":120,"measure":89,"beat":3.0,"subject_pos":-1,"motif":"","motif_pos":-1,"best_pos":4,"similarity":0.389},{"voice":11,"pitch":77,"start":177.0,"duration":0.25,"velocity":90,"measure":89,"beat":3.0,"subject_pos":4,"motif":"subject_inv","motif_pos":4,"best_pos":4,"similarity":1.0},{"voice":2,"pitch":65,"start":177.0625,"duration":0.0625,"velocity":70,"measure":89,"beat":3.125,"subject_pos":-1,"motif":"","motif_pos":-1,"best_pos":6,"similarity":0.179},{"voice":2,"pitch":69,"start":177.125,"duration":0.0625,"velocity":70,"measure":89,"beat":3.25,"subject_pos":-1,"motif":"","motif_pos":-1,"best_pos":0,"similarity":0.286},{"voice":6,"pitch":80,"start":177.125,"duration":0.125,"velocity":90,"measure":89,"beat":3.25,"subject_pos":-1,"motif":"","motif_pos":-1,"best_pos":5,"similarity":0.55},{"voice":2,"pitch":74,"start":177.1875,"duration":0.0625,"velocity":70,"measure":89,"beat":3.375,"subject_pos":-1,"motif":"","motif_pos":-1,"best_pos":1,"similarity":0.286},{"voice":2,"pitch":77,"start":177.25,"duration":0.0625,"velocity":70,"measure":89,"beat":3.5,"subject_pos":-1,"motif":"","motif_pos":-1,"best_pos":6,"similarity":0.186},{"voice":6,"pitch":82,"start":177.25,"duration":0.125,"velocity":110,"measure":89,"beat":3.5,"subject_pos":-1,"motif":"","motif_pos":-1,"best_pos":6,"similarity":0.421},{"voice":11,"pitch":76,"start":177.25,"duration":0.125,"velocity":90,"measure":89,"beat":3.5,"subject_pos":5,"motif":"subject_inv","motif_pos":5,"best_pos":5,"similarity":1.0},{"voice":2,"pitch":81,"start":177.3125,"duration":0.0625,"velocity":70,"measure":89,"beat":3.625,"subject_pos":-1,"motif":"","motif_pos":-1,"best_pos":0,"similarity":0.286},{"voice":2,"pitch":86,"start":177.375,"duration":0.0625,"velocity":70,"measure":89,"beat":3.75,"subject_pos":-1,"motif":"","motif_pos":-1,"best_pos":1,"similarity":0.293},{"voice":6,"pitch":80,"start":177.375,"duration":0.125,"velocity":90,"measure":89,"beat":3.75,"subject_pos":-1,"motif":"","motif_pos":-1,"best_pos":3,"similarity":0.443},{"voice":11,"pitch":74,"start":177.375,"duration":0.125,"velocity":90,"measure":89,"beat":3.75,"subject_pos":6,"motif":"subject_inv","motif_pos":6,"best_pos":6,"similarity":1.0},{"voice":2,"pitch":89,"start":177.4375,"duration":0.0625,"velocity":70,"measure":89,"beat":3.875,"subject_pos":-1,"motif":"","motif_pos":-1,"best_pos":2,"similarity":0.164},{"voice":0,"pitch":69,"start":177.5,"duration":0.5,"velocity":92,"measure":89,"beat":4.0,"subject_pos":3,"motif":"subject","motif_pos":3,"best_pos":3,"similarity":1.0},{"voice":2,"pitch":62,"start":177.5,"duration":0.0625,"velocity":70,"measure":89,"beat":4.0,"subject_pos":-1,"motif":"","motif_pos":-1,"best_pos":5,"similarity":0.171},{"voice":5,"pitch":62,"start":177.5,"duration":0.25,"velocity":90,"measure":89,"beat":4.0,"subject_pos":-1,"motif":"","motif_pos":-1,"best_pos":5,"similarity":0.157},{"voice":5,"pitch":65,"start":177.5,"duration":0.25,"velocity":90,"measure":89,"beat":4.0,"subject_pos":-1,"motif":"","motif_pos":-1,"best_pos":6,"similarity":0.171},{"voice":5,"pitch":69,"start":177.5,"duration":0.25,"velocity":90,"measure":89,"beat":4.0,"subject_pos":-1,"motif":"","motif_pos":-1,"best_pos":0,"similarity":0.286},{"voice":5,"pitch":74,"start":177.5,"duration":0.25,"velocity":90,"measure":89,"beat":4.0,"subject_pos":-1,"motif":"","motif_pos":-1,"best_pos":1,"similarity":0.286},{"voice":5,"pitch":77,"start":177.5,"duration":0.25,"velocity":90,"measure":89,"beat":4.0,"subject_pos":-1,"motif":"","motif_pos":-1,"best_pos":6,"similarity":0.186},{"voice":5,"pitch":81,"start":177.5,"duration":0.25,"velocity":90,"measure":89,"beat":4.0,"subject_pos":-1,"motif":"","motif_pos":-1,"best_pos":1,"similarity":0.15},{"voice":6,"pitch":80,"start":177.5,"duration":0.125,"velocity":65,"measure":89,"beat":4.0,"subject_pos":-1,"motif":"","motif_pos":-1,"best_pos":4,"similarity":0.514},{"voice":7,"pitch":36,"start":177.5,"duration":0.25,"velocity":120,"measure":89,"beat":4.0,"subject_pos":-1,"motif":"","motif_pos":-1,"best_pos":4,"similarity":0.389},{"voice":8,"pitch":74,"start":177.5,"duration":0.25,"velocity":105,"measure":89,"beat":4.0,"subject_pos":-1,"motif":"","motif_pos":-1,"best_pos":4,"similarity":0.389},{"voice":11,"pitch":73,"start":177.5,"duration":0.5,"velocity":90,"measure":89,"beat":4.0,"subject_pos":7,"motif":"subject_inv","motif_pos":7,"best_pos":7,"similarity":1.0},{"voice":2,"pitch":65,"start":177.5625,"duration":0.0625,"velocity":70,"measure":89,"beat":4.125,"subject_pos":-1,"motif":"","motif_pos":-1,"best_pos":6,"similarity":0.179},{"voice":2,"pitch":69,"start":177.625,"duration":0.0625,"velocity":70,"measure":89,"beat":4.25,"subject_pos":-1,"motif":"","motif_pos":-1,"best_pos":0,"similarity":0.286},{"voice":6,"pitch":80,"start":177.625,"duration":0.125,"velocity":90,"measure":89,"beat":4.25,"subject_pos":-1,"motif":"","motif_pos":-1,"best_pos":5,"similarity":0.55},{"voice":2,"pitch":74,"start":177.6875,"duration":0.0625,"velocity":70,"measure":89,"beat":4.375,"subject_pos":-1,"motif":"","motif_pos":-1,"best_pos":1,"similarity":0.286},{"voice":2,"pitch":77,"start":177.75,"duration":0.0625,"velocity":70,"measure":89,"beat":4.5,"subject_pos":-1,"motif":"","motif_pos":-1,"best_pos":6,"similarity":0.186},{"voice":6,"pitch":82,"start":177.75,"duration":0.125,"velocity":110,"measure":89,"beat":4.5,"subject_pos":-1,"motif":"","motif_pos":-1,"best_pos":6,"similarity":0.421},{"voice":2,"pitch":81,"start":177.8125,"duration":0.0625,"velocity":70,"measure":89,"beat":4.625,"subject_pos":-1,"motif":"","motif_pos":-1,"best_pos":0,"similarity":0.286},{"voice":2,"pitch":86,"start":177.875,"duration":0.0625,"velocity":70,"measure":89,"beat":4.75,"subject_pos":-1,"motif":"","motif_pos":-1,"best_pos":1,"similarity":0.286},{"voice":6,"pitch":80,"start":177.875,"duration":0.125,"velocity":90,"measure":89,"beat":4.75,"subject_pos":-1,"motif":"","motif_pos":-1,"best_pos":3,"similarity":0.443},{"voice":2,"pitch":89,"start":177.9375,"duration":0.0625,"velocity":70,"measure":89,"beat":4.875,"subject_pos":-1,"motif":"","motif_pos":-1,"best_pos":2,"similarity":0.161},{"voice":0,"pitch":68,"start":178.0,"duration":0.5,"velocity":92,"measure":90,"beat":1.0,"subject_pos":4,"motif":"subject","motif_pos":4,"best_pos":4,"similarity":1.0},{"voice":2,"pitch":70,"start":178.0,"duration":0.0625,"velocity":70,"measure":90,"beat":1.0,"subject_pos":-1,"motif":"","motif_pos":-1,"best_pos":0,"similarity":0.143},{"voice":3,"pitch":36,"start":178.0,"duration":2.0,"velocity":105,"measure":90,"beat":1.0,"subject_pos":2,"motif":"subject","motif_pos":2,"best_pos":2,"similarity":1.0},{"voice":5,"pitch":58,"start":178.0,"duration":0.25,"velocity":90,"measure":90,"beat":1.0,"subject_pos":-1,"motif":"","motif_pos":-1,"best_pos":0,"similarity":0.143},{"voice":5,"pitch":62,"start":178.0,"duration":0.25,"velocity":90,"measure":90,"beat":1.0,"subject_pos":-1,"motif":"","motif_pos":-1,"best_pos":5,"similarity":0.186},{"voice":5,"pitch":65,"start":178.0,"duration":0.25,"velocity":90,"measure":90,"beat":1.0,"subject_pos":-1,"motif":"","motif_pos":-1,"best_pos":0,"similarity":0.286},{"voice":5,"pitch":70,"start":178.0,"duration":0.25,"velocity":90,"measure":90,"beat":1.0,"subject_pos":-1,"motif":"","motif_pos":-1,"best_pos":1,"similarity":0.286},{"voice":5,"pitch":74,"start":178.0,"duration":0.25,"velocity":90,"measure":90,"beat":1.0,"subject_pos":-1,"motif":"","motif_pos":-1,"best_pos":5,"similarity":0.171},{"voice":5,"pitch":77,"start":178.0,"duration":0.25,"velocity":90,"measure":90,"beat":1.0,"subject_pos":-1,"motif":"","motif_pos":-1,"best_pos":6,"similarity":0.157},{"voice":6,"pitch":80,"start":178.0,"duration":0.125,"velocity":65,"measure":90,"beat":1.0,"subject_pos":-1,"motif":"","motif_pos":-1,"best_pos":4,"similarity":0.514},{"voice":7,"pitch":36,"start":178.0,"duration":0.25,"velocity":120,"measure":90,"beat":1.0,"subject_pos":-1,"motif":"","motif_pos":-1,"best_pos":4,"similarity":0.389},{"voice":2,"pitch":74,"start":178.0625,"duration":0.0625,"velocity":70,"measure":90,"beat":1.125,"subject_pos":-1,"motif":"","motif_pos":-1,"best_pos":5,"similarity":0.186},{"voice":2,"pitch":77,"start":178.125,"duration":0.0625,"velocity":70,"measure":90,"beat":1.25,"subject_pos":-1,"motif":"","motif_pos":-1,"best_pos":0,"similarity":0.286},{"voice":6,"pitch":80,"start":178.125,"duration":0.125,"velocity":90,"measure":90,"beat":1.25,"subject_pos":-1,"motif":"","motif_pos":-1,"best_pos":5,"similarity":0.55},{"voice":2,"pitch":82,"start":178.1875,"duration":0.0625,"velocity":70,"measure":90,"beat":1.375,"subject_pos":-1,"motif":"","motif_pos":-1,"best_pos":1,"similarity":0.286},{"voice":2,"pitch":86,"start":178.25,"duration":0.0625,"velocity":70,"measure":90,"beat":1.5,"subject_pos":-1,"motif":"","motif_pos":-1,"best_pos":5,"similarity":0.186},{"voice":6,"pitch":82,"start":178.25,"duration":0.125,"velocity":110,"measure":90,"beat":1.5,"subject_pos":-1,"motif":"","motif_pos":-1,"best_pos":6,"similarity":0.421},{"voice":2,"pitch":89,"start":178.3125,"duration":0.0625,"velocity":70,"measure":90,"beat":1.625,"subject_pos":-1,"motif":"","motif_pos":-1,"best_pos":0,"similarity":0.286},{"voice":2,"pitch":94,"start":178.375,"duration":0.0625,"velocity":70,"measure":90,"beat":1.75,"subject_pos":-1,"motif":"","motif_pos":-1,"best_pos":1,"similarity":0.286},{"voice":6,"pitch":80,"start":178.375,"duration":0.125,"velocity":90,"measure":90,"beat":1.75,"subject_pos":-1,"motif":"","motif_pos":-1,"best_pos":3,"similarity":0.443},{"voice":2,"pitch":98,"start":178.4375,"duration":0.0625,"velocity":70,"measure":90,"beat":1.875,"subject_pos":-1,"motif":"","motif_pos":-1,"best_pos":2,"similarity":0.161},{"voice":0,"pitch":69,"start":178.5,"duration":0.25,"velocity":92,"measure":90,"beat":2.0,"subject_pos":5,"motif":"subject","motif_pos":5,"best_pos":5,"similarity":1.0},{"voice":2,"pitch":70,"start":178.5,"duration":0.0625,"velocity":70,"measure":90,"beat":2.0,"subject_pos":-1,"motif":"","motif_pos":-1,"best_pos":0,"similarity":0.143},{"voice":5,"pitch":58,"start":178.5,"duration":0.25,"velocity":90,"measure":90,"beat":2.0,"subject_pos":-1,"motif":"","motif_pos":-1,"best_pos":0,"similarity":0.143},{"voice":5,"pitch":62,"start":178.5,"duration":0.25,"velocity":90,"measure":90,"beat":2.0,"subject_pos":-1,"motif":"","motif_pos":-1,"best_pos":5,"similarity":0.186},{"voice":5,"pitch":65,"start":178.5,"duration":0.25,"velocity":90,"measure":90,"beat":2.0,"subject_pos":-1,"motif":"","motif_pos":-1,"best_pos":0,"similarity":0.286},{"voice":5,"pitch":70,"start":178.5,"duration":0.25,"velocity":90,"measure":90,"beat":2.0,"subject_pos":-1,"motif":"","motif_pos":-1,"best_pos":1,"similarity":0.286},{"voice":5,"pitch":74,"start":178.5,"duration":0.25,"velocity":90,"measure":90,"beat":2.0,"subject_pos":-1,"motif":"","motif_pos":-1,"best_pos":5,"similarity":0.171},{"voice":5,"pitch":77,"start":178.5,"duration":0.25,"velocity":90,"measure":90,"beat":2.0,"subject_pos":-1,"motif":"","motif_pos":-1,"best_pos":6,"similarity":0.157},{"voice":6,"pitch":80,"start":178.5,"duration":0.125,"velocity":65,"measure":90,"beat":2.0,"subject_pos":-1,"motif":"","motif_pos":-1,"best_pos":4,"similarity":0.514},{"voice":7,"pitch":36,"start":178.5,"duration":0.25,"velocity":120,"measure":90,"beat":2.0,"subject_pos":-1,"motif":"","motif_pos":-1,"best_pos":4,"similarity":0.389},{"voice":8,"pitch":74,"start":178.5,"duration":0.25,"velocity":105,"measure":90,"beat":2.0,"subject_pos":-1,"motif":"","motif_pos":-1,"best_pos":4,"similarity":0.389},{"voice":2,"pitch":74,"start":178.5625,"duration":0.0625,"velocity":70,"measure":90,"beat":2.125,"subject_pos":-1,"motif":"","motif_pos":-1,"best_pos":5,"similarity":0.186},{"voice":2,"pitch":77,"start":178.625,"duration":0.0625,"velocity":70,"measure":90,"beat":2.25,"subject_pos":-1,"motif":"","motif_pos":-1,"best_pos":0,"similarity":0.286},{"voice":6,"pitch":80,"start":178.625,"duration":0.125,"velocity":90,"measure":90,"beat":2.25,"subject_pos":-1,"motif":"","motif_pos":-1,"best_pos":5,"similarity":0.55},{"voice":2,"pitch":82,"start":178.6875,"duration":0.0625,"velocity":70,"measure":90,"beat":2.375,"subject_pos":-1,"motif":"","motif_pos":-1,"best_pos":1,"similarity":0.286},{"voice":0,"pitch":71,"start":178.75,"duration":0.25,"velocity":92,"measure":90,"beat":2.5,"subject_pos":6,"motif":"subject","motif_pos":6,"best_pos":6,"similarity":1.0},{"voice":2,"pitch":86,"start":178.75,"duration":0.0625,"velocity":70,"measure":90,"beat":2.5,"subject_pos":-1,"motif":"","motif_pos":-1,"best_pos":5,"similarity":0.186},{"voice":6,"pitch":82,"start":178.75,"duration":0.125,"velocity":110,"measure":90,"beat":2.5,"subject_pos":-1,"motif":"","motif_pos":-1,"best_pos":6,"similarity":0.421},{"voice":2,"pitch":89,"start":178.8125,"duration":0.0625,"velocity":70,"measure":90,"beat":2.625,"subject_pos":-1,"motif":"","motif_pos":-1,"best_pos":0,"similarity":0.286},{"voice":2,"pitch":94,"start":178.875,"duration":0.0625,"velocity":70,"measure":90,"beat":2.75,"subject_pos":-1,"motif":"","motif_pos":-1,"best_pos":1,"similarity":0.286},{"voice":6,"pitch":80,"start":178.875,"duration":0.125,"velocity":90,"measure":90,"beat":2.75,"subject_pos":-1,"motif":"","motif_pos":-1,"best_pos":3,"similarity":0.443},{"voice":2,"pitch":98,"start":178.9375,"duration":0.0625,"velocity":70,"measure":90,"beat":2.875,"subject_pos":-1,"motif":"","motif_pos":-1,"best_pos":2,"similarity":0.161},{"voice":0,"pitch":72,"start":179.0,"duration":1.0,"velocity":92,"measure":90,"beat":3.0,"subject_pos":7,"motif":"subject","motif_pos":7,"best_pos":7,"similarity":1.0},{"voice":2,"pitch":70,"start":179.0,"duration":0.0625,"velocity":70,"measure":90,"beat":3.0,"subject_pos":-1,"motif":"","motif_pos":-1,"best_pos":0,"similarity":0.143},{"voice":5,"pitch":58,"start":179.0,"duration":0.25,"velocity":90,"measure":90,"beat":3.0,"subject_pos":-1,"motif":"","motif_pos":-1,"best_pos":0,"similarity":0.143},{"voice":5,"pitch":62,"start":179.0,"duration":0.25,"velocity":90,"measure":90,"beat":3.0,"subject_pos":-1,"motif":"","motif_pos":-1,"best_pos":5,"similarity":0.186},{"voice":5,"pitch":65,"start":179.0,"duration":0.25,"velocity":90,"measure":90,"beat":3.0,"subject_pos":-1,"motif":"","motif_pos":-1,"best_pos":0,"similarity":0.286},{"voice":5,"pitch":70,"start":179.0,"duration":0.25,"velocity":90,"measure":90,"beat":3.0,"subject_pos":-1,"motif":"","motif_pos":-1,"best_pos":1,"similarity":0.286},{"voice":5,"pitch":74,"start":179.0,"duration":0.25,"velocity":90,"measure":90,"beat":3.0,"subject_pos":-1,"motif":"","motif_pos":-1,"best_pos":5,"similarity":0.171},{"voice":5,"pitch":77,"start":179.0,"duration":0.25,"velocity":90,"measure":90,"beat":3.0,"subject_pos":-1,"motif":"","motif_pos":-1,"best_pos":6,"similarity":0.157},{"voice":6,"pitch":80,"start":179.0,"duration":0.125,"velocity":65,"measure":90,"beat":3.0,"subject_pos":-1,"motif":"","motif_pos":-1,"best_pos":4,"similarity":0.514},{"voice":7,"pitch":36,"start":179.0,"duration":0.25,"velocity":120,"measure":90,"beat":3.0,"subject_pos":-1,"motif":"","motif_pos":-1,"best_pos":4,"similarity":0.389},{"voice":2,"pitch":74,"start":179.0625,"duration":0.0625,"velocity":70,"measure":90,"beat":3.125,"subject_pos":-1,"motif":"","motif_pos":-1,"best_pos":5,"similarity":0.186},{"voice":2,"pitch":77,"start":179.125,"duration":0.0625,"velocity":70,"measure":90,"beat":3.25,"subject_pos":-1,"motif":"","motif_pos":-1,"best_pos":0,"similarity":0.286},{"voice":6,"pitch":80,"start":179.125,"duration":0.125,"velocity":90,"measure":90,"beat":3.25,"subject_pos":-1,"motif":"","motif_pos":-1,"best_pos":5,"similarity":0.55},{"voice":2,"pitch":82,"start":179.1875,"duration":0.0625,"velocity":70,"measure":90,"beat":3.375,"subject_pos":-1,"motif":"","motif_pos":-1,"best_pos":1,"similarity":0.286},{"voice":2,"pitch":86,"start":179.25,"duration":0.0625,"velocity":70,"measure":90,"beat":3.5,"subject_pos":-1,"motif":"","motif_pos":-1,"best_pos":5,"similarity":0.186},{"voice":6,"pitch":82,"start":179.25,"duration":0.125,"velocity":110,"measure":90,"beat":3.5,"subject_pos":-1,"motif":"","motif_pos":-1,"best_pos":6,"similarity":0.421},{"voice":2,"pitch":89,"start":179.3125,"duration":0.0625,"velocity":70,"measure":90,"beat":3.625,"subject_pos":-1,"motif":"","motif_pos":-1,"best_pos":0,"similarity":0.286},{"voice":2,"pitch":94,"start":179.375,"duration":0.0625,"velocity":70,"measure":90,"beat":3.75,"subject_pos":-1,"motif":"","motif_pos":-1,"best_pos":1,"similarity":0.286},{"voice":6,"pitch":80,"start":179.375,"duration":0.125,"velocity":90,"measure":90,"beat":3.75,"subject_pos":-1,"motif":"","motif_pos":-1,"best_pos":3,"similarity":0.443},{"voice":2,"pitch":98,"start":179.4375,"duration":0.0625,"velocity":70,"measure":90,"beat":3.875,"subject_pos":-1,"motif":"","motif_pos":-1,"best_pos":2,"similarity":0.161},{"voice":2,"pitch":70,"start":179.5,"duration":0.0625,"velocity":70,"measure":90,"beat":4.0,"subject_pos":-1,"motif":"","motif_pos":-1,"best_pos":0,"similarity":0.143},{"voice":5,"pitch":58,"start":179.5,"duration":0.25,"velocity":90,"measure":90,"beat":4.0,"subject_pos":-1,"motif":"","motif_pos":-1,"best_pos":0,"similarity":0.143},{"voice":5,"pitch":62,"start":179.5,"duration":0.25,"velocity":90,"measure":90,"beat":4.0,"subject_pos":-1,"motif":"","motif_pos":-1,"best_pos":5,"similarity":0.186},{"voice":5,"pitch":65,"start":179.5,"duration":0.25,"velocity":90,"measure":90,"beat":4.0,"subject_pos":-1,"motif":"","motif_pos":-1,"best_pos":0,"similarity":0.286},{"voice":5,"pitch":70,"start":179.5,"duration":0.25,"velocity":90,"measure":90,"beat":4.0,"subject_pos":-1,"motif":"","motif_pos":-1,"best_pos":1,"similarity":0.286},{"voice":5,"pitch":74,"start":179.5,"duration":0.25,"velocity":90,"measure":90,"beat":4.0,"subject_pos":-1,"motif":"","motif_pos":-1,"best_pos":5,"similarity":0.171},{"voice":5,"pitch":77,"start":179.5,"duration":0.25,"velocity":90,"measure":90,"beat":4.0,"subject_pos":-1,"motif":"","motif_pos":-1,"best_pos":6,"similarity":0.157},{"voice":6,"pitch":80,"start":179.5,"duration":0.125,"velocity":65,"measure":90,"beat":4.0,"subject_pos":-1,"motif":"","motif_pos":-1,"best_pos":4,"similarity":0.514},{"voice":7,"pitch":36,"start":179.5,"duration":0.25,"velocity":120,"measure":90,"beat":4.0,"subject_pos":-1,"motif":"","motif_pos":-1,"best_pos":4,"similarity":0.389},{"voice":8,"pitch":74,"start":179.5,"duration":0.25,"velocity":105,"measure":90,"beat":4.0,"subject_pos":-1,"motif":"","motif_pos":-1,"best_pos":4,"similarity":0.389},{"voice":2,"pitch":74,"start":179.5625,"duration":0.0625,"velocity":70,"measure":90,"beat":4.125,"subject_pos":-1,"motif":"","motif_pos":-1,"best_pos":5,"similarity":0.186},{"voice":2,"pitch":77,"start":179.625,"duration":0.0625,"velocity":70,"measure":90,"beat":4.25,"subject_pos":-1,"motif":"","motif_pos":-1,"best_pos":0,"similarity":0.286},{"voice":6,"pitch":80,"start":179.625,"duration":0.125,"velocity":90,"measure":90,"beat":4.25,"subject_pos":-1,"motif":"","motif_pos":-1,"best_pos":5,"similarity":0.55},{"voice":2,"pitch":82,"start":179.6875,"duration":0.0625,"velocity":70,"measure":90,"beat":4.375,"subject_pos":-1,"motif":"","motif_pos":-1,"best_pos":1,"similarity":0.286},{"voice":2,"pitch":86,"start":179.75,"duration":0.0625,"velocity":70,"measure":90,"beat":4.5,"subject_pos":-1,"motif":"","motif_pos":-1,"best_pos":5,"similarity":0.186},{"voice":6,"pitch":82,"start":179.75,"duration":0.125,"velocity":110,"measure":90,"beat":4.5,"subject_pos":-1,"motif":"","motif_pos":-1,"best_pos":6,"similarity":0.421},{"voice":2,"pitch":89,"start":179.8125,"duration":0.0625,"velocity":70,"measure":90,"beat":4.625,"subject_pos":-1,"motif":"","motif_pos":-1,"best_pos":0,"similarity":0.286},{"voice":2,"pitch":94,"start":179.875,"duration":0.0625,"velocity":70,"measure":90,"beat":4.75,"subject_pos":-1,"motif":"","motif_pos":-1,"best_pos":1,"similarity":0.286},{"voice":6,"pitch":80,"start":179.875,"duration":0.125,"velocity":90,"measure":90,"beat":4.75,"subject_pos":-1,"motif":"","motif_pos":-1,"best_pos":3,"similarity":0.443},{"voice":2,"pitch":98,"start":179.9375,"duration":0.0625,"velocity":70,"measure":90,"beat":4.875,"subject_pos":-1,"motif":"","motif_pos":-1,"best_pos":2,"similarity":0.161},{"voice":2,"pitch":72,"start":180.0,"duration":0.0625,"velocity":70,"measure":91,"beat":1.0,"subject_pos":-1,"motif":"","motif_pos":-1,"best_pos":0,"similarity":0.143},{"voice":3,"pitch":33,"start":180.0,"duration":2.0,"velocity":105,"measure":91,"beat":1.0,"subject_pos":3,"motif":"subject","motif_pos":3,"best_pos":3,"similarity":1.0},{"voice":5,"pitch":60,"start":180.0,"duration":0.25,"velocity":90,"measure":91,"beat":1.0,"subject_pos":-1,"motif":"","motif_pos":-1,"best_pos":0,"similarity":0.143},{"voice":5,"pitch":64,"start":180.0,"duration":0.25,"velocity":90,"measure":91,"beat":1.0,"subject_pos":-1,"motif":"","motif_pos":-1,"best_pos":5,"similarity":0.207},{"voice":5,"pitch":67,"start":180.0,"duration":0.25,"velocity":90,"measure":91,"beat":1.0,"subject_pos":-1,"motif":"","motif_pos":-1,"best_pos":5,"similarity":0.286},{"voice":5,"pitch":70,"start":180.0,"duration":0.25,"velocity":90,"measure":91,"beat":1.0,"subject_pos":-1,"motif":"","motif_pos":-1,"best_pos":5,"similarity":0.386},{"voice":5,"pitch":72,"start":180.0,"duration":0.25,"velocity":90,"measure":91,"beat":1.0,"subject_pos":-1,"motif":"","motif_pos":-1,"best_pos":6,"similarity":0.357},{"voice":5,"pitch":76,"start":180.0,"duration":0.25,"velocity":90,"measure":91,"beat":1.0,"subject_pos":-1,"motif":"","motif_pos":-1,"best_pos":5,"similarity":0.221},{"voice":5,"pitch":79,"start":180.0,"duration":0.25,"velocity":90,"measure":91,"beat":1.0,"subject_pos":-1,"motif":"","motif_pos":-1,"best_pos":6,"similarity":0.236},{"voice":5,"pitch":82,"start":180.0,"duration":0.25,"velocity":90,"measure":91,"beat":1.0,"subject_pos":-1,"motif":"","motif_pos":-1,"best_pos":6,"similarity":0.179},{"voice":6,"pitch":80,"start":180.0,"duration":0.125,"velocity":65,"measure":91,"beat":1.0,"subject_pos":-1,"motif":"","motif_pos":-1,"best_pos":4,"similarity":0.514},{"voice":7,"pitch":36,"start":180.0,"duration":0.25,"velocity":120,"measure":91,"beat":1.0,"subject_pos":-1,"motif":"","motif_pos":-1,"best_pos":4,"similarity":0.389},{"voice":2,"pitch":76,"start":180.0625,"duration":0.0625,"velocity":70,"measure":91,"beat":1.125,"subject_pos":-1,"motif":"","motif_pos":-1,"best_pos":5,"similarity":0.207},{"voice":2,"pitch":79,"start":180.125,"duration":0.0625,"velocity":70,"measure":91,"beat":1.25,"subject_pos":-1,"motif":"","motif_pos":-1,"best_pos":5,"similarity":0.286},{"voice":6,"pitch":80,"start":180.125,"duration":0.125,"velocity":90,"measure":91,"beat":1.25,"subject_pos":-1,"motif":"","motif_pos":-1,"best_pos":5,"similarity":0.55},{"voice":2,"pitch":82,"start":180.1875,"duration":0.0625,"velocity":70,"measure":91,"beat":1.375,"subject_pos":-1,"motif":"","motif_pos":-1,"best_pos":5,"similarity":0.386},{"voice":2,"pitch":84,"start":180.25,"duration":0.0625,"velocity":70,"measure":91,"beat":1.5,"subject_pos":-1,"motif":"","motif_pos":-1,"best_pos":6,"similarity":0.357},{"voice":6,"pitch":82,"start":180.25,"duration":0.125,"velocity":110,"measure":91,"beat":1.5,"subject_pos":-1,"motif":"","motif_pos":-1,"best_pos":6,"similarity":0.421},{"voice":2,"pitch":88,"start":180.3125,"duration":0.0625,"velocity":70,"measure":91,"beat":1.625,"subject_pos":-1,"motif":"","motif_pos":-1,"best_pos":5,"similarity":0.221},{"voice":2,"pitch":91,"start":180.375,"duration":0.0625,"velocity":70,"measure":91,"beat":1.75,"subject_pos":-1,"motif":"","motif_pos":-1,"best_pos":5,"similarity":0.286},{"voice":6,"pitch":80,"start":180.375,"duration":0.125,"velocity":90,"measure":91,"beat":1.75,"subject_pos":-1,"motif":"","motif_pos":-1,"best_pos":3,"similarity":0.443},{"voice":2,"pitch":94,"start":180.4375,"duration":0.0625,"velocity":70,"measure":91,"beat":1.875,"subject_pos":-1,"motif":"","motif_pos":-1,"best_pos":5,"similarity":0.386},{"voice":2,"pitch":96,"start":180.5,"duration":0.0625,"velocity":70,"measure":91,"beat":2.0,"subject_pos":-1,"motif":"","motif_pos":-1,"best_pos":6,"similarity":0.357},{"voice":5,"pitch":60,"start":180.5,"duration":0.25,"velocity":90,"measure":91,"beat":2.0,"subject_pos":-1,"motif":"","motif_pos":-1,"best_pos":0,"similarity":0.143},{"voice":5,"pitch":64,"start":180.5,"duration":0.25,"velocity":90,"measure":91,"beat":2.0,"subject_pos":-1,"motif":"","motif_pos":-1,"best_pos":5,"similarity":0.207},{"voice":5,"pitch":67,"start":180.5,"duration":0.25,"velocity":90,"measure":91,"beat":2.0,"subject_pos":-1,"motif":"","motif_pos":-1,"best_pos":5,"similarity":0.286},{"voice":5,"pitch":70,"start":180.5,"duration":0.25,"velocity":90,"measure":91,"beat":2.0,"subject_pos":-1,"motif":"","motif_pos":-1,"best_pos":5,"similarity":0.386},{"voice":5,"pitch":72,"start":180.5,"duration":0.25,"velocity":90,"measure":91,"beat":2.0,"subject_pos":-1,"motif":"","motif_pos":-1,"best_pos":6,"similarity":0.357},{"voice":5,"pitch":76,"start":180.5,"duration":0.25,"velocity":90,"measure":91,"beat":2.0,"subject_pos":-1,"motif":"","motif_pos":-1,"best_pos":5,"similarity":0.221},{"voice":5,"pitch":79,"start":180.5,"duration":0.25,"velocity":90,"measure":91,"beat":2.0,"subject_pos":-1,"motif":"","motif_pos":-1,"best_pos":6,"similarity":0.236},{"voice":5,"pitch":82,"start":180.5,"duration":0.25,"velocity":90,"measure":91,"beat":2.0,"subject_pos":-1,"motif":"","motif_pos":-1,"best_pos":6,"similarity":0.179},{"voice":6,"pitch":80,"start":180.5,"duration":0.125,"velocity":65,"measure":91,"beat":2.0,"subject_pos":-1,"motif":"","motif_pos":-1,"best_pos":4,"similarity":0.514},{"voice":7,"pitch":36,"start":180.5,"duration":0.25,"velocity":120,"measure":91,"beat":2.0,"subject_pos":-1,"motif":"","motif_pos":-1,"best_pos":4,"similarity":0.389},{"voice":8,"pitch":74,"start":180.5,"duration":0.25,"velocity":105,"measure":91,"beat":2.0,"subject_pos":-1,"motif":"","motif_pos":-1,"best_pos":4,"similarity":0.389},{"voice":2,"pitch":100,"start":180.5625,"duration":0.0625,"velocity":70,"measure":91,"beat":2.125,"subject_pos":-1,"motif":"","motif_pos":-1,"best_pos":7,"similarity":0.189},{"voice":2,"pitch":72,"start":180.625,"duration":0.0625,"velocity":70,"measure":91,"beat":2.25,"subject_pos":-1,"motif":"","motif_pos":-1,"best_pos":0,"similarity":0.143},{"voice":6,"pitch":80,"start":180.625,"duration":0.125,"velocity":90,"measure":91,"beat":2.25,"subject_pos":-1,"motif":"","motif_pos":-1,"best_pos":5,"similarity":0.55},{"voice":2,"pitch":76,"start":180.6875,"duration":0.0625,"velocity":70,"measure":91,"beat":2.375,"subject_pos":-1,"motif":"","motif_pos":-1,"best_pos":5,"similarity":0.207},{"voice":2,"pitch":79,"start":180.75,"duration":0.0625,"velocity":70,"measure":91,"beat":2.5,"subject_pos":-1,"motif":"","motif_pos":-1,"best_pos":5,"similarity":0.286},{"voice":6,"pitch":82,"start":180.75,"duration":0.125,"velocity":110,"measure":91,"beat":2.5,"subject_pos":-1,"motif":"","motif_pos":-1,"best_pos":6,"similarity":0.421},{"voice":2,"pitch":82,"start":180.8125,"duration":0.0625,"velocity":70,"measure":91,"beat":2.625,"subject_pos":-1,"motif":"","motif_pos":-1,"best_pos":5,"similarity":0.386},{"voice":2,"pitch":84,"start":180.875,"duration":0.0625,"velocity":70,"measure":91,"beat":2.75,"subject_pos":-1,"motif":"","motif_pos":-1,"best_pos":6,"similarity":0.357},{"voice":6,"pitch":80,"start":180.875,"duration":0.125,"velocity":90,"measure":91,"beat":2.75,"subject_pos":-1,"motif":"","motif_pos":-1,"best_pos":3,"similarity":0.443},{"voice":2,"pitch":88,"start":180.9375,"duration":0.0625,"velocity":70,"measure":91,"beat":2.875,"subject_pos":-1,"motif":"","motif_pos":-1,"best_pos":5,"similarity":0.221},{"voice":2,"pitch":91,"start":181.0,"duration":0.0625,"velocity":70,"measure":91,"beat":3.0,"subject_pos":-1,"motif":"","motif_pos":-1,"best_pos":5,"similarity":0.286},{"voice":5,"pitch":60,"start":181.0,"duration":0.25,"velocity":90,"measure":91,"beat":3.0,"subject_pos":-1,"motif":"","motif_pos":-1,"best_pos":0,"similarity":0.143},{"voice":5,"pitch":64,"start":181.0,"duration":0.25,"velocity":90,"measure":91,"beat":3.0,"subject_pos":-1,"motif":"","motif_pos":-1,"best_pos":5,"similarity":0.207},{"voice":5,"pitch":67,"start":181.0,"duration":0.25,"velocity":90,"measure":91,"beat":3.0,"subject_pos":-1,"motif":"","motif_pos":-1,"best_pos":5,"similarity":0.286},{"voice":5,"pitch":70,"start":181.0,"duration":0.25,"velocity":90,"measure":91,"beat":3.0,"subject_pos":-1,"motif":"","motif_pos":-1,"best_pos":5,"similarity":0.386},{"voice":5,"pitch":72,"start":181.0,"duration":0.25,"velocity":90,"measure":91,"beat":3.0,"subject_pos":-1,"motif":"","motif_pos":-1,"best_pos":6,"similarity":0.357},{"voice":5,"pitch":76,"start":181.0,"duration":0.25,"velocity":90,"measure":91,"beat":3.0,"subject_pos":-1,"motif":"","motif_pos":-1,"best_pos":5,"similarity":0.221},{"voice":5,"pitch":79,"start":181.0,"duration":0.25,"velocity":90,"measure":91,"beat":3.0,"subject_pos":-1,"motif":"","motif_pos":-1,"best_pos":6,"similarity":0.236},{"voice":5,"pitch":82,"start":181.0,"duration":0.25,"velocity":90,"measure":91,"beat":3.0,"subject_pos":-1,"motif":"","motif_pos":-1,"best_pos":6,"similarity":0.179},{"voice":6,"pitch":80,"start":181.0,"duration":0.125,"velocity":65,"measure":91,"beat":3.0,"subject_pos":-1,"motif":"","motif_pos":-1,"best_pos":4,"similarity":0.514},{"voice":7,"pitch":36,"start":181.0,"duration":0.25,"velocity":120,"measure":91,"beat":3.0,"subject_pos":-1,"motif":"","motif_pos":-1,"best_pos":4,"similarity":0.389},{"voice":2,"pitch":94,"start":181.0625,"duration":0.0625,"velocity":70,"measure":91,"beat":3.125,"subject_pos":-1,"motif":"","motif_pos":-1,"best_pos":5,"similarity":0.386},{"voice":2,"pitch":96,"start":181.125,"duration":0.0625,"velocity":70,"measure":91,"beat":3.25,"subject_pos":-1,"motif":"","motif_pos":-1,"best_pos":6,"similarity":0.357},{"voice":6,"pitch":80,"start":181.125,"duration":0.125,"velocity":90,"measure":91,"beat":3.25,"subject_pos":-1,"motif":"","motif_pos":-1,"best_pos":5,"similarity":0.55},{"voice":2,"pitch":100,"start":181.1875,"duration":0.0625,"velocity":70,"measure":91,"beat":3.375,"subject_pos":-1,"motif":"","motif_pos":-1,"best_pos":7,"similarity":0.189},{"voice":2,"pitch":72,"start":181.25,"duration":0.0625,"velocity":70,"measure":91,"beat":3.5,"subject_pos":-1,"motif":"","motif_pos":-1,"best_pos":0,"similarity":0.143},{"voice":6,"pitch":82,"start":181.25,"duration":0.125,"velocity":110,"measure":91,"beat":3.5,"subject_pos":-1,"motif":"","motif_pos":-1,"best_pos":6,"similarity":0.421},{"voice":2,"pitch":76,"start":181.3125,"duration":0.0625,"velocity":70,"measure":91,"beat":3.625,"subject_pos":-1,"motif":"","motif_pos":-1,"best_pos":5,"similarity":0.207},{"voice":2,"pitch":79,"start":181.375,"duration":0.0625,"velocity":70,"measure":91,"beat":3.75,"subject_pos":-1,"motif":"","motif_pos":-1,"best_pos":5,"similarity":0.286},{"voice":6,"pitch":80,"start":181.375,"duration":0.125,"velocity":90,"measure":91,"beat":3.75,"subject_pos":-1,"motif":"","motif_pos":-1,"best_pos":3,"similarity":0.443},{"voice":2,"pitch":82,"start":181.4375,"duration":0.0625,"velocity":70,"measure":91,"beat":3.875,"subject_pos":-1,"motif":"","motif_pos":-1,"best_pos":5,"similarity":0.386},{"voice":2,"pitch":84,"start":181.5,"duration":0.0625,"velocity":70,"measure":91,"beat":4.0,"subject_pos":-1,"motif":"","motif_pos":-1,"best_pos":6,"similarity":0.357},{"voice":5,"pitch":60,"start":181.5,"duration":0.25,"velocity":90,"measure":91,"beat":4.0,"subject_pos":-1,"motif":"","motif_pos":-1,"best_pos":0,"similarity":0.143},{"voice":5,"pitch":64,"start":181.5,"duration":0.25,"velocity":90,"measure":91,"beat":4.0,"subject_pos":-1,"motif":"","motif_pos":-1,"best_pos":5,"similarity":0.207},{"voice":5,"pitch":67,"start":181.5,"duration":0.25,"velocity":90,"measure":91,"beat":4.0,"subject_pos":-1,"motif":"","motif_pos":-1,"best_pos":5,"similarity":0.286},{"voice":5,"pitch":70,"start":181.5,"duration":0.25,"velocity":90,"measure":91,"beat":4.0,"subject_pos":-1,"motif":"","motif_pos":-1,"best_pos":5,"similarity":0.386},{"voice":5,"pitch":72,"start":181.5,"duration":0.25,"velocity":90,"measure":91,"beat":4.0,"subject_pos":-1,"motif":"","motif_pos":-1,"best_pos":6,"similarity":0.357},{"voice":5,"pitch":76,"start":181.5,"duration":0.25,"velocity":90,"measure":91,"beat":4.0,"subject_pos":-1,"motif":"","motif_pos":-1,"best_pos":5,"similarity":0.221},{"voice":5,"pitch":79,"start":181.5,"duration":0.25,"velocity":90,"measure":91,"beat":4.0,"subject_pos":-1,"motif":"","motif_pos":-1,"best_pos":6,"similarity":0.236},{"voice":5,"pitch":82,"start":181.5,"duration":0.25,"velocity":90,"measure":91,"beat":4.0,"subject_pos":-1,"motif":"","motif_pos":-1,"best_pos":6,"similarity":0.179},{"voice":6,"pitch":80,"start":181.5,"duration":0.125,"velocity":65,"measure":91,"beat":4.0,"subject_pos":-1,"motif":"","motif_pos":-1,"best_pos":4,"similarity":0.514},{"voice":7,"pitch":36,"start":181.5,"duration":0.25,"velocity":120,"measure":91,"beat":4.0,"subject_pos":-1,"motif":"","motif_pos":-1,"best_pos":4,"similarity":0.389},{"voice":8,"pitch":74,"start":181.5,"duration":0.25,"velocity":105,"measure":91,"beat":4.0,"subject_pos":-1,"motif":"","motif_pos":-1,"best_pos":4,"similarity":0.389},{"voice":2,"pitch":88,"start":181.5625,"duration":0.0625,"velocity":70,"measure":91,"beat":4.125,"subject_pos":-1,"motif":"","motif_pos":-1,"best_pos":5,"similarity":0.221},{"voice":2,"pitch":91,"start":181.625,"duration":0.0625,"velocity":70,"measure":91,"beat":4.25,"subject_pos":-1,"motif":"","motif_pos":-1,"best_pos":5,"similarity":0.286},{"voice":6,"pitch":80,"start":181.625,"duration":0.125,"velocity":90,"measure":91,"beat":4.25,"subject_pos":-1,"motif":"","motif_pos":-1,"best_pos":5,"similarity":0.55},{"voice":2,"pitch":94,"start":181.6875,"duration":0.0625,"velocity":70,"measure":91,"beat":4.375,"subject_pos":-1,"motif":"","motif_pos":-1,"best_pos":5,"similarity":0.386},{"voice":2,"pitch":96,"start":181.75,"duration":0.0625,"velocity":70,"measure":91,"beat":4.5,"subject_pos":-1,"motif":"","motif_pos":-1,"best_pos":6,"similarity":0.357},{"voice":6,"pitch":82,"start":181.75,"duration":0.125,"velocity":110,"measure":91,"beat":4.5,"subject_pos":-1,"motif":"","motif_pos":-1,"best_pos":6,"similarity":0.421},{"voice":2,"pitch":100,"start":181.8125,"duration":0.0625,"velocity":70,"measure":91,"beat":4.625,"subject_pos":-1,"motif":"","motif_pos":-1,"best_pos":7,"similarity":0.189},{"voice":2,"pitch":72,"start":181.875,"duration":0.0625,"velocity":70,"measure":91,"beat":4.75,"subject_pos":-1,"motif":"","motif_pos":-1,"best_pos":0,"similarity":0.157},{"voice":6,"pitch":80,"start":181.875,"duration":0.125,"velocity":90,"measure":91,"beat":4.75,"subject_pos":-1,"motif":"","motif_pos":-1,"best_pos":3,"similarity":0.443},{"voice":2,"pitch":76,"start":181.9375,"duration":0.0625,"velocity":70,"measure":91,"beat":4.875,"subject_pos":-1,"motif":"","motif_pos":-1,"best_pos":1,"similarity":0.179},{"voice":2,"pitch":69,"start":182.0,"duration":0.0625,"velocity":70,"measure":92,"beat":1.0,"subject_pos":-1,"motif":"","motif_pos":-1,"best_pos":0,"similarity":0.143},{"voice":3,"pitch":32,"start":182.0,"duration":2.0,"velocity":105,"measure":92,"beat":1.0,"subject_pos":4,"motif":"subject","motif_pos":4,"best_pos":4,"similarity":1.0},{"voice":5,"pitch":57,"start":182.0,"duration":0.25,"velocity":90,"measure":92,"beat":1.0,"subject_pos":-1,"motif":"","motif_pos":-1,"best_pos":0,"similarity":0.143},{"voice":5,"pitch":61,"start":182.0,"duration":0.25,"velocity":90,"measure":92,"beat":1.0,"subject_pos":-1,"motif":"","motif_pos":-1,"best_pos":5,"similarity":0.207},{"voice":5,"pitch":64,"start":182.0,"duration":0.25,"velocity":90,"measure":92,"beat":1.0,"subject_pos":-1,"motif":"","motif_pos":-1,"best_pos":5,"similarity":0.286},{"voice":5,"pitch":67,"start":182.0,"duration":0.25,"velocity":90,"measure":92,"beat":1.0,"subject_pos":-1,"motif":"","motif_pos":-1,"best_pos":5,"similarity":0.386},{"voice":5,"pitch":69,"start":182.0,"duration":0.25,"velocity":90,"measure":92,"beat":1.0,"subject_pos":-1,"motif":"","motif_pos":-1,"best_pos":6,"similarity":0.357},{"voice":5,"pitch":73,"start":182.0,"duration":0.25,"velocity":90,"measure":92,"beat":1.0,"subject_pos":-1,"motif":"","motif_pos":-1,"best_pos":5,"similarity":0.221},{"voice":5,"pitch":76,"start":182.0,"duration":0.25,"velocity":90,"measure":92,"beat":1.0,"subject_pos":-1,"motif":"","motif_pos":-1,"best_pos":6,"similarity":0.236},{"voice":5,"pitch":79,"start":182.0,"duration":0.25,"velocity":90,"measure":92,"beat":1.0,"subject_pos":-1,"motif":"","motif_pos":-1,"best_pos":6,"similarity":0.179},{"voice":6,"pitch":80,"start":182.0,"duration":0.125,"velocity":65,"measure":92,"beat":1.0,"subject_pos":-1,"motif":"","motif_pos":-1,"best_pos":4,"similarity":0.514},{"voice":7,"pitch":36,"start":182.0,"duration":0.25,"velocity":120,"measure":92,"beat":1.0,"subject_pos":-1,"motif":"","motif_pos":-1,"best_pos":4,"similarity":0.389},{"voice":2,"pitch":73,"start":182.0625,"duration":0.0625,"velocity":70,"measure":92,"beat":1.125,"subject_pos":-1,"motif":"","motif_pos":-1,"best_pos":5,"similarity":0.207},{"voice":2,"pitch":76,"start":182.125,"duration":0.0625,"velocity":70,"measure":92,"beat":1.25,"subject_pos":-1,"motif":"","motif_pos":-1,"best_pos":5,"similarity":0.293},{"voice":6,"pitch":80,"start":182.125,"duration":0.125,"velocity":90,"measure":92,"beat":1.25,"subject_pos":-1,"motif":"","motif_pos":-1,"best_pos":5,"similarity":0.55},{"voice":2,"pitch":79,"start":182.1875,"duration":0.0625,"velocity":70,"measure":92,"beat":1.375,"subject_pos":-1,"motif":"","motif_pos":-1,"best_pos":5,"similarity":0.386},{"voice":2,"pitch":81,"start":182.25,"duration":0.0625,"velocity":70,"measure":92,"beat":1.5,"subject_pos":-1,"motif":"","motif_pos":-1,"best_pos":6,"similarity":0.357},{"voice":6,"pitch":82,"start":182.25,"duration":0.125,"velocity":110,"measure":92,"beat":1.5,"subject_pos":-1,"motif":"","motif_pos":-1,"best_pos":6,"similarity":0.421},{"voice":2,"pitch":85,"start":182.3125,"duration":0.0625,"velocity":70,"measure":92,"beat":1.625,"subject_pos":-1,"motif":"","motif_pos":-1,"best_pos":5,"similarity":0.221},{"voice":2,"pitch":88,"start":182.375,"duration":0.0625,"velocity":70,"measure":92,"beat":1.75,"subject_pos":-1,"motif":"","motif_pos":-1,"best_pos":5,"similarity":0.286},{"voice":6,"pitch":80,"start":182.375,"duration":0.125,"velocity":90,"measure":92,"beat":1.75,"subject_pos":-1,"motif":"","motif_pos":-1,"best_pos":3,"similarity":0.443},{"voice":2,"pitch":91,"start":182.4375,"duration":0.0625,"velocity":70,"measure":92,"beat":1.875,"subject_pos":-1,"motif":"","motif_pos":-1,"best_pos":5,"similarity":0.386},{"voice":2,"pitch":93,"start":182.5,"duration":0.0625,"velocity":70,"measure":92,"beat":2.0,"subject_pos":-1,"motif":"","motif_pos":-1,"best_pos":6,"similarity":0.357},{"voice":5,"pitch":57,"start":182.5,"duration":0.25,"velocity":90,"measure":92,"beat":2.0,"subject_pos":-1,"motif":"","motif_pos":-1,"best_pos":0,"similarity":0.143},{"voice":5,"pitch":61,"start":182.5,"duration":0.25,"velocity":90,"measure":92,"beat":2.0,"subject_pos":-1,"motif":"","motif_pos":-1,"best_pos":5,"similarity":0.207},{"voice":5,"pitch":64,"start":182.5,"duration":0.25,"velocity":90,"measure":92,"beat":2.0,"subject_pos":-1,"motif":"","motif_pos":-1,"best_pos":5,"similarity":0.286},{"voice":5,"pitch":67,"start":182.5,"duration":0.25,"velocity":90,"measure":92,"beat":2.0,"subject_pos":-1,"motif":"","motif_pos":-1,"best_pos":5,"similarity":0.386},{"voice":5,"pitch":69,"start":182.5,"duration":0.25,"velocity":90,"measure":92,"beat":2.0,"subject_pos":-1,"motif":"","motif_pos":-1,"best_pos":6,"similarity":0.357},{"voice":5,"pitch":73,"start":182.5,"duration":0.25,"velocity":90,"measure":92,"beat":2.0,"subject_pos":-1,"motif":"","motif_pos":-1,"best_pos":5,"similarity":0.221},{"voice":5,"pitch":76,"start":182.5,"duration":0.25,"velocity":90,"measure":92,"beat":2.0,"subject_pos":-1,"motif":"","motif_pos":-1,"best_pos":6,"similarity":0.236},{"voice":5,"pitch":79,"start":182.5,"duration":0.25,"velocity":90,"measure":92,"beat":2.0,"subject_pos":-1,"motif":"","motif_pos":-1,"best_pos":6,"similarity":0.179},{"voice":6,"pitch":80,"start":182.5,"duration":0.125,"velocity":65,"measure":92,"beat":2.0,"subject_pos":-1,"motif":"","motif_pos":-1,"best_pos":4,"similarity":0.514},{"voice":7,"pitch":36,"start":182.5,"duration":0.25,"velocity":120,"measure":92,"beat":2.0,"subject_pos":-1,"motif":"","motif_pos":-1,"best_pos":4,"similarity":0.389},{"voice":8,"pitch":74,"start":182.5,"duration":0.25,"velocity":105,"measure":92,"beat":2.0,"subject_pos":-1,"motif":"","motif_pos":-1,"best_pos":4,"similarity":0.389},{"voice":2,"pitch":97,"start":182.5625,"duration":0.0625,"velocity":70,"measure":92,"beat":2.125,"subject_pos":-1,"motif":"","motif_pos":-1,"best_pos":7,"similarity":0.189},{"voice":2,"pitch":69,"start":182.625,"duration":0.0625,"velocity":70,"measure":92,"beat":2.25,"subject_pos":-1,"motif":"","motif_pos":-1,"best_pos":0,"similarity":0.143},{"voice":6,"pitch":80,"start":182.625,"duration":0.125,"velocity":90,"measure":92,"beat":2.25,"subject_pos":-1,"motif":"","motif_pos":-1,"best_pos":5,"similarity":0.55},{"voice":2,"pitch":73,"start":182.6875,"duration":0.0625,"velocity":70,"measure":92,"beat":2.375,"subject_pos":-1,"motif":"","motif_pos":-1,"best_pos":5,"similarity":0.207},{"voice":2,"pitch":76,"start":182.75,"duration":0.0625,"velocity":70,"measure":92,"beat":2.5,"subject_pos":-1,"motif":"","motif_pos":-1,"best_pos":5,"similarity":0.286},{"voice":6,"pitch":82,"start":182.75,"duration":0.125,"velocity":110,"measure":92,"beat":2.5,"subject_pos":-1,"motif":"","motif_pos":-1,"best_pos":6,"similarity":0.421},{"voice":2,"pitch":79,"start":182.8125,"duration":0.0625,"velocity":70,"measure":92,"beat":2.625,"subject_pos":-1,"motif":"","motif_pos":-1,"best_pos":5,"similarity":0.386},{"voice":2,"pitch":81,"start":182.875,"duration":0.0625,"velocity":70,"measure":92,"beat":2.75,"subject_pos":-1,"motif":"","motif_pos":-1,"best_pos":6,"similarity":0.357},{"voice":6,"pitch":80,"start":182.875,"duration":0.125,"velocity":90,"measure":92,"beat":2.75,"subject_pos":-1,"motif":"","motif_pos":-1,"best_pos":3,"similarity":0.443},{"voice":2,"pitch":85,"start":182.9375,"duration":0.0625,"velocity":70,"measure":92,"beat":2.875,"subject_pos":-1,"motif":"","motif_pos":-1,"best_pos":5,"similarity":0.221},{"voice":2,"pitch":88,"start":183.0,"duration":0.0625,"velocity":70,"measure":92,"beat":3.0,"subject_pos":-1,"motif":"","motif_pos":-1,"best_pos":5,"similarity":0.286},{"voice":5,"pitch":57,"start":183.0,"duration":0.25,"velocity":90,"measure":92,"beat":3.0,"subject_pos":-1,"motif":"","motif_pos":-1,"best_pos":0,"similarity":0.143},{"voice":5,"pitch":61,"start":183.0,"duration":0.25,"velocity":90,"measure":92,"beat":3.0,"subject_pos":-1,"motif":"","motif_pos":-1,"best_pos":5,"similarity":0.207},{"voice":5,"pitch":64,"start":183.0,"duration":0.25,"velocity":90,"measure":92,"beat":3.0,"subject_pos":-1,"motif":"","motif_pos":-1,"best_pos":5,"similarity":0.286},{"voice":5,"pitch":67,"start":183.0,"duration":0.25,"velocity":90,"measure":92,"beat":3.0,"subject_pos":-1,"motif":"","motif_pos":-1,"best_pos":5,"similarity":0.386},{"voice":5,"pitch":69,"start":183.0,"duration":0.25,"velocity":90,"measure":92,"beat":3.0,"subject_pos":-1,"motif":"","motif_pos":-1,"best_pos":6,"similarity":0.357},{"voice":5,"pitch":73,"start":183.0,"duration":0.25,"velocity":90,"measure":92,"beat":3.0,"subject_pos":-1,"motif":"","motif_pos":-1,"best_pos":5,"similarity":0.221},{"voice":5,"pitch":76,"start":183.0,"duration":0.25,"velocity":90,"measure":92,"beat":3.0,"subject_pos":-1,"motif":"","motif_pos":-1,"best_pos":6,"similarity":0.236},{"voice":5,"pitch":79,"start":183.0,"duration":0.25,"velocity":90,"measure":92,"beat":3.0,"subject_pos":-1,"motif":"","motif_pos":-1,"best_pos":6,"similarity":0.179},{"voice":6,"pitch":80,"start":183.0,"duration":0.125,"velocity":65,"measure":92,"beat":3.0,"subject_pos":-1,"motif":"","motif_pos":-1,"best_pos":4,"similarity":0.514},{"voice":7,"pitch":36,"start":183.0,"duration":0.25,"velocity":120,"measure":92,"beat":3.0,"subject_pos":-1,"motif":"","motif_pos":-1,"best_pos":4,"similarity":0.389},{"voice":2,"pitch":91,"start":183.0625,"duration":0.0625,"velocity":70,"measure":92,"beat":3.125,"subject_pos":-1,"motif":"","motif_pos":-1,"best_pos":5,"similarity":0.386},{"voice":2,"pitch":93,"start":183.125,"duration":0.0625,"velocity":70,"measure":92,"beat":3.25,"subject_pos":-1,"motif":"","motif_pos":-1,"best_pos":6,"similarity":0.357},{"voice":6,"pitch":80,"start":183.125,"duration":0.125,"velocity":90,"measure":92,"beat":3.25,"subject_pos":-1,"motif":"","motif_pos":-1,"best_pos":5,"similarity":0.55},{"voice":2,"pitch":97,"start":183.1875,"duration":0.0625,"velocity":70,"measure":92,"beat":3.375,"subject_pos":-1,"motif":"","motif_pos":-1,"best_pos":7,"similarity":0.189},{"voice":2,"pitch":69,"start":183.25,"duration":0.0625,"velocity":70,"measure":92,"beat":3.5,"subject_pos":-1,"motif":"","motif_pos":-1,"best_pos":0,"similarity":0.143},{"voice":6,"pitch":82,"start":183.25,"duration":0.125,"velocity":110,"measure":92,"beat":3.5,"subject_pos":-1,"motif":"","motif_pos":-1,"best_pos":6,"similarity":0.421},{"voice":2,"pitch":73,"start":183.3125,"duration":0.0625,"velocity":70,"measure":92,"beat":3.625,"subject_pos":-1,"motif":"","motif_pos":-1,"best_pos":5,"similarity":0.207},{"voice":2,"pitch":76,"start":183.375,"duration":0.0625,"velocity":70,"measure":92,"beat":3.75,"subject_pos":-1,"motif":"","motif_pos":-1,"best_pos":5,"similarity":0.286},{"voice":6,"pitch":80,"start":183.375,"duration":0.125,"velocity":90,"measure":92,"beat":3.75,"subject_pos":-1,"motif":"","motif_pos":-1,"best_pos":3,"similarity":0.443},{"voice":2,"pitch":79,"start":183.4375,"duration":0.0625,"velocity":70,"measure":92,"beat":3.875,"subject_pos":-1,"motif":"","motif_pos":-1,"best_pos":5,"similarity":0.386},{"voice":2,"pitch":81,"start":183.5,"duration":0.0625,"velocity":70,"measure":92,"beat":4.0,"subject_pos":-1,"motif":"","motif_pos":-1,"best_pos":6,"similarity":0.357},{"voice":5,"pitch":57,"start":183.5,"duration":0.25,"velocity":90,"measure":92,"beat":4.0,"subject_pos":-1,"motif":"","motif_pos":-1,"best_pos":0,"similarity":0.143},{"voice":5,"pitch":61,"start":183.5,"duration":0.25,"velocity":90,"measure":92,"beat":4.0,"subject_pos":-1,"motif":"","motif_pos":-1,"best_pos":5,"similarity":0.207},{"voice":5,"pitch":64,"start":183.5,"duration":0.25,"velocity":90,"measure":92,"beat":4.0,"subject_pos":-1,"motif":"","motif_pos":-1,"best_pos":5,"similarity":0.286},{"voice":5,"pitch":67,"start":183.5,"duration":0.25,"velocity":90,"measure":92,"beat":4.0,"subject_pos":-1,"motif":"","motif_pos":-1,"best_pos":5,"similarity":0.386},{"voice":5,"pitch":69,"start":183.5,"duration":0.25,"velocity":90,"measure":92,"beat":4.0,"subject_pos":-1,"motif":"","motif_pos":-1,"best_pos":6,"similarity":0.357},{"voice":5,"pitch":73,"start":183.5,"duration":0.25,"velocity":90,"measure":92,"beat":4.0,"subject_pos":-1,"motif":"","motif_pos":-1,"best_pos":5,"similarity":0.221},{"voice":5,"pitch":76,"start":183.5,"duration":0.25,"velocity":90,"measure":92,"beat":4.0,"subject_pos":-1,"motif":"","motif_pos":-1,"best_pos":6,"similarity":0.236},{"voice":5,"pitch":79,"start":183.5,"duration":0.25,"velocity":90,"measure":92,"beat":4.0,"subject_pos":-1,"motif":"","motif_pos":-1,"best_pos":6,"similarity":0.179},{"voice":6,"pitch":80,"start":183.5,"duration":0.125,"velocity":65,"measure":92,"beat":4.0,"subject_pos":-1,"motif":"","motif_pos":-1,"best_pos":4,"similarity":0.514},{"voice":7,"pitch":36,"start":183.5,"duration":0.25,"velocity":120,"measure":92,"beat":4.0,"subject_pos":-1,"motif":"","motif_pos":-1,"best_pos":4,"similarity":0.389},{"voice":8,"pitch":74,"start":183.5,"duration":0.25,"velocity":105,"measure":92,"beat":4.0,"subject_pos":-1,"motif":"","motif_pos":-1,"best_pos":4,"similarity":0.389},{"voice":2,"pitch":85,"start":183.5625,"duration":0.0625,"velocity":70,"measure":92,"beat":4.125,"subject_pos":-1,"motif":"","motif_pos":-1,"best_pos":5,"similarity":0.221},{"voice":2,"pitch":88,"start":183.625,"duration":0.0625,"velocity":70,"measure":92,"beat":4.25,"subject_pos":-1,"motif":"","motif_pos":-1,"best_pos":5,"similarity":0.286},{"voice":6,"pitch":80,"start":183.625,"duration":0.125,"velocity":90,"measure":92,"beat":4.25,"subject_pos":-1,"motif":"","motif_pos":-1,"best_pos":5,"similarity":0.55},{"voice":2,"pitch":91,"start":183.6875,"duration":0.0625,"velocity":70,"measure":92,"beat":4.375,"subject_pos":-1,"motif":"","motif_pos":-1,"best_pos":5,"similarity":0.386},{"voice":2,"pitch":93,"start":183.75,"duration":0.0625,"velocity":70,"measure":92,"beat":4.5,"subject_pos":-1,"motif":"","motif_pos":-1,"best_pos":6,"similarity":0.357},{"voice":6,"pitch":82,"start":183.75,"duration":0.125,"velocity":110,"measure":92,"beat":4.5,"subject_pos":-1,"motif":"","motif_pos":-1,"best_pos":6,"similarity":0.421},{"voice":2,"pitch":97,"start":183.8125,"duration":0.0625,"velocity":70,"measure":92,"beat":4.625,"subject_pos":-1,"motif":"","motif_pos":-1,"best_pos":7,"similarity":0.189},{"voice":2,"pitch":69,"start":183.875,"duration":0.0625,"velocity":70,"measure":92,"beat":4.75,"subject_pos":-1,"motif":"","motif_pos":-1,"best_pos":0,"similarity":0.143},{"voice":6,"pitch":80,"start":183.875,"duration":0.125,"velocity":90,"measure":92,"beat":4.75,"subject_pos":-1,"motif":"","motif_pos":-1,"best_pos":3,"similarity":0.443},{"voice":2,"pitch":73,"start":183.9375,"duration":0.0625,"velocity":70,"measure":92,"beat":4.875,"subject_pos":-1,"motif":"","motif_pos":-1,"best_pos":1,"similarity":0.143},{"voice":1,"pitch":50,"start":184.0,"duration":8.0,"velocity":45,"measure":93,"beat":1.0,"subject_pos":-1,"motif":"","motif_pos":-1,"best_pos":5,"similarity":0.157},{"voice":1,"pitch":53,"start":184.0,"duration":8.0,"velocity":45,"measure":93,"beat":1.0,"subject_pos":-1,"motif":"","motif_pos":-1,"best_pos":6,"similarity":0.171},{"voice":1,"pitch":57,"start":184.0,"duration":8.0,"velocity":45,"measure":93,"beat":1.0,"subject_pos":-1,"motif":"","motif_pos":-1,"best_pos":0,"similarity":0.286},{"voice":1,"pitch":62,"start":184.0,"duration":8.0,"velocity":45,"measure":93,"beat":1.0,"subject_pos":-1,"motif":"","motif_pos":-1,"best_pos":1,"similarity":0.286},{"voice":1,"pitch":65,"start":184.0,"duration":8.0,"velocity":45,"measure":93,"beat":1.0,"subject_pos":-1,"motif":"","motif_pos":-1,"best_pos":6,"similarity":0.186},{"voice":1,"pitch":69,"start":184.0,"duration":8.0,"velocity":45,"measure":93,"beat":1.0,"subject_pos":-1,"motif":"","motif_pos":-1,"best_pos":0,"similarity":0.286},{"voice":1,"pitch":74,"start":184.0,"duration":8.0,"velocity":45,"measure":93,"beat":1.0,"subject_pos":-1,"motif":"","motif_pos":-1,"best_pos":1,"similarity":0.286},{"voice":1,"pitch":77,"start":184.0,"duration":8.0,"velocity":45,"measure":93,"beat":1.0,"subject_pos":-1,"motif":"","motif_pos":-1,"best_pos":6,"similarity":0.186},{"voice":1,"pitch":81,"start":184.0,"duration":8.0,"velocity":45,"measure":93,"beat":1.0,"subject_pos":-1,"motif":"","motif_pos":-1,"best_pos":0,"similarity":0.286},{"voice":1,"pitch":86,"start":184.0,"duration":8.0,"velocity":45,"measure":93,"beat":1.0,"subject_pos":-1,"motif":"","motif_pos":-1,"best_pos":1,"similarity":0.286},{"voice":1,"pitch":89,"start":184.0,"duration":8.0,"velocity":45,"measure":93,"beat":1.0,"subject_pos":-1,"motif":"","motif_pos":-1,"best_pos":6,"similarity":0.186},{"voice":1,"pitch":93,"start":184.0,"duration":8.0,"velocity":45,"measure":93,"beat":1.0,"subject_pos":-1,"motif":"","motif_pos":-1,"best_pos":1,"similarity":0.143},{"voice":2,"pitch":62,"start":184.0,"duration":0.0625,"velocity":70,"measure":93,"beat":1.0,"subject_pos":-1,"motif":"","motif_pos":-1,"best_pos":5,"similarity":0.157},{"voice":3,"pitch":33,"start":184.0,"duration":1.0,"velocity":105,"measure":93,"beat":1.0,"subject_pos":5,"motif":"subject","motif_pos":5,"best_pos":5,"similarity":1.0},{"voice":5,"pitch":62,"start":184.0,"duration":0.25,"velocity":90,"measure":93,"beat":1.0,"subject_pos":-1,"motif":"","motif_pos":-1,"best_pos":5,"similarity":0.171},{"voice":5,"pitch":65,"start":184.0,"duration":0.25,"velocity":90,"measure":93,"beat":1.0,"subject_pos":-1,"motif":"","motif_pos":-1,"best_pos":6,"similarity":0.179},{"voice":5,"pitch":69,"start":184.0,"duration":0.25,"velocity":90,"measure":93,"beat":1.0,"subject_pos":-1,"motif":"","motif_pos":-1,"best_pos":0,"similarity":0.286},{"voice":5,"pitch":74,"start":184.0,"duration":0.25,"velocity":90,"measure":93,"beat":1.0,"subject_pos":-1,"motif":"","motif_pos":-1,"best_pos":1,"similarity":0.286},{"voice":5,"pitch":77,"start":184.0,"duration":0.25,"velocity":90,"measure":93,"beat":1.0,"subject_pos":-1,"motif":"","motif_pos":-1,"best_pos":6,"similarity":0.186},{"voice":5,"pitch":81,"start":184.0,"duration":0.25,"velocity":90,"measure":93,"beat":1.0,"subject_pos":-1,"motif":"","motif_pos":-1,"best_pos":1,"similarity":0.143},{"voice":6,"pitch":80,"start":184.0,"duration":0.125,"velocity":65,"measure":93,"beat":1.0,"subject_pos":-1,"motif":"","motif_pos":-1,"best_pos":4,"similarity":0.514},{"voice":7,"pitch":36,"start":184.0,"duration":0.25,"velocity":120,"measure":93,"beat":1.0,"subject_pos":-1,"motif":"","motif_pos":-1,"best_pos":4,"similarity":0.389},{"voice":2,"pitch":65,"start":184.0625,"duration":0.0625,"velocity":70,"measure":93,"beat":1.125,"subject_pos":-1,"motif":"","motif_pos":-1,"best_pos":6,"similarity":0.171},{"voice":2,"pitch":69,"start":184.125,"duration":0.0625,"velocity":70,"measure":93,"beat":1.25,"subject_pos":-1,"motif":"","motif_pos":-1,"best_pos":0,"similarity":0.286},{"voice":6,"pitch":80,"start":184.125,"duration":0.125,"velocity":90,"measure":93,"beat":1.25,"subject_pos":-1,"motif":"","motif_pos":-1,"best_pos":5,"similarity":0.55},{"voice":2,"pitch":74,"start":184.1875,"duration":0.0625,"velocity":70,"measure":93,"beat":1.375,"subject_pos":-1,"motif":"","motif_pos":-1,"best_pos":1,"similarity":0.286},{"voice":2,"pitch":77,"start":184.25,"duration":0.0625,"velocity":70,"measure":93,"beat":1.5,"subject_pos":-1,"motif":"","motif_pos":-1,"best_pos":6,"similarity":0.186},{"voice":6,"pitch":82,"start":184.25,"duration":0.125,"velocity":110,"measure":93,"beat":1.5,"subject_pos":-1,"motif":"","motif_pos":-1,"best_pos":6,"similarity":0.421},{"voice":2,"pitch":81,"start":184.3125,"duration":0.0625,"velocity":70,"measure":93,"beat":1.625,"subject_pos":-1,"motif":"","motif_pos":-1,"best_pos":0,"similarity":0.286},{"voice":2,"pitch":86,"start":184.375,"duration":0.0625,"velocity":70,"measure":93,"beat":1.75,"subject_pos":-1,"motif":"","motif_pos":-1,"best_pos":1,"similarity":0.293},{"voice":6,"pitch":80,"start":184.375,"duration":0.125,"velocity":90,"measure":93,"beat":1.75,"subject_pos":-1,"motif":"","motif_pos":-1,"best_pos":3,"similarity":0.443},{"voice":2,"pitch":89,"start":184.4375,"duration":0.0625,"velocity":70,"measure":93,"beat":1.875,"subject_pos":-1,"motif":"","motif_pos":-1,"best_pos":2,"similarity":0.164},{"voice":2,"pitch":62,"start":184.5,"duration":0.0625,"velocity":70,"measure":93,"beat":2.0,"subject_pos":-1,"motif":"","motif_pos":-1,"best_pos":5,"similarity":0.171},{"voice":5,"pitch":62,"start":184.5,"duration":0.25,"velocity":90,"measure":93,"beat":2.0,"subject_pos":-1,"motif":"","motif_pos":-1,"best_pos":5,"similarity":0.157},{"voice":5,"pitch":65,"start":184.5,"duration":0.25,"velocity":90,"measure":93,"beat":2.0,"subject_pos":-1,"motif":"","motif_pos":-1,"best_pos":6,"similarity":0.171},{"voice":5,"pitch":69,"start":184.5,"duration":0.25,"velocity":90,"measure":93,"beat":2.0,"subject_pos":-1,"motif":"","motif_pos":-1,"best_pos":0,"similarity":0.286},{"voice":5,"pitch":74,"start":184.5,"duration":0.25,"velocity":90,"measure":93,"beat":2.0,"subject_pos":-1,"motif":"","motif_pos":-1,"best_pos":1,"similarity":0.286},{"voice":5,"pitch":77,"start":184.5,"duration":0.25,"velocity":90,"measure":93,"beat":2.0,"subject_pos":-1,"motif":"","motif_pos":-1,"best_pos":6,"similarity":0.186},{"voice":5,"pitch":81,"start":184.5,"duration":0.25,"velocity":90,"measure":93,"beat":2.0,"subject_pos":-1,"motif":"","motif_pos":-1,"best_pos":1,"similarity":0.143},{"voice":6,"pitch":80,"start":184.5,"duration":0.125,"velocity":65,"measure":93,"beat":2.0,"subject_pos":-1,"motif":"","motif_pos":-1,"best_pos":4,"similarity":0.514},{"voice":7,"pitch":36,"start":184.5,"duration":0.25,"velocity":120,"measure":93,"beat":2.0,"subject_pos":-1,"motif":"","motif_pos":-1,"best_pos":4,"similarity":0.389},{"voice":8,"pitch":74,"start":184.5,"duration":0.25,"velocity":105,"measure":93,"beat":2.0,"subject_pos":-1,"motif":"","motif_pos":-1,"best_pos":4,"similarity":0.389},{"voice":2,"pitch":65,"start":184.5625,"duration":0.0625,"velocity":70,"measure":93,"beat":2.125,"subject_pos":-1,"motif":"","motif_pos":-1,"best_pos":6,"similarity":0.179},{"voice":2,"pitch":69,"start":184.625,"duration":0.0625,"velocity":70,"measure":93,"beat":2.25,"subject_pos":-1,"motif":"","motif_pos":-1,"best_pos":0,"similarity":0.286},{"voice":6,"pitch":80,"start":184.625,"duration":0.125,"velocity":90,"measure":93,"beat":2.25,"subject_pos":-1,"motif":"","motif_pos":-1,"best_pos":5,"similarity":0.55},{"voice":2,"pitch":74,"start":184.6875,"duration":0.0625,"velocity":70,"measure":93,"beat":2.375,"subject_pos":-1,"motif":"","motif_pos":-1,"best_pos":1,"similarity":0.286},{"voice":2,"pitch":77,"start":184.75,"duration":0.0625,"velocity":70,"measure":93,"beat":2.5,"subject_pos":-1,"motif":"","motif_pos":-1,"best_pos":6,"similarity":0.186},{"voice":6,"pitch":82,"start":184.75,"duration":0.125,"velocity":110,"measure":93,"beat":2.5,"subject_pos":-1,"motif":"","motif_pos":-1,"best_pos":6,"similarity":0.421},{"voice":2,"pitch":81,"start":184.8125,"duration":0.0625,"velocity":70,"measure":93,"beat":2.625,"subject_pos":-1,"motif":"","motif_pos":-1,"best_pos":0,"similarity":0.286},{"voice":2,"pitch":86,"start":184.875,"duration":0.0625,"velocity":70,"measure":93,"beat":2.75,"subject_pos":-1,"motif":"","motif_pos":-1,"best_pos":1,"similarity":0.293},{"voice":6,"pitch":80,"start":184.875,"duration":0.125,"velocity":90,"measure":93,"beat":2.75,"subject_pos":-1,"motif":"","motif_pos":-1,"best_pos":3,"similarity":0.443},{"voice":2,"pitch":89,"start":184.9375,"duration":0.0625,"velocity":70,"measure":93,"beat":2.875,"subject_pos":-1,"motif":"","motif_pos":-1,"best_pos":2,"similarity":0.164},{"voice":2,"pitch":62,"start":185.0,"duration":0.0625,"velocity":70,"measure":93,"beat":3.0,"subject_pos":-1,"motif":"","motif_pos":-1,"best_pos":5,"similarity":0.171},{"voice":3,"pitch":35,"start":185.0,"duration":1.0,"velocity":105,"measure":93,"beat":3.0,"subject_pos":6,"motif":"subject","motif_pos":6,"best_pos":6,"similarity":1.0},{"voice":5,"pitch":62,"start":185.0,"duration":0.25,"velocity":90,"measure":93,"beat":3.0,"subject_pos":-1,"motif":"","motif_pos":-1,"best_pos":5,"similarity":0.157},{"voice":5,"pitch":65,"start":185.0,"duration":0.25,"velocity":90,"measure":93,"beat":3.0,"subject_pos":-1,"motif":"","motif_pos":-1,"best_pos":6,"similarity":0.171},{"voice":5,"pitch":69,"start":185.0,"duration":0.25,"velocity":90,"measure":93,"beat":3.0,"subject_pos":-1,"motif":"","motif_pos":-1,"best_pos":0,"similarity":0.286},{"voice":5,"pitch":74,"start":185.0,"duration":0.25,"velocity":90,"measure":93,"beat":3.0,"subject_pos":-1,"motif":"","motif_pos":-1,"best_pos":1,"similarity":0.286},{"voice":5,"pitch":77,"start":185.0,"duration":0.25,"velocity":90,"measure":93,"beat":3.0,"subject_pos":-1,"motif":"","motif_pos":-1,"best_pos":6,"similarity":0.186},{"voice":5,"pitch":81,"start":185.0,"duration":0.25,"velocity":90,"measure":93,"beat":3.0,"subject_pos":-1,"motif":"","motif_pos":-1,"best_pos":1,"similarity":0.143},{"voice":6,"pitch":80,"start":185.0,"duration":0.125,"velocity":65,"measure":93,"beat":3.0,"subject_pos":-1,"motif":"","motif_pos":-1,"best_pos":4,"similarity":0.514},{"voice":7,"pitch":36,"start":185.0,"duration":0.25,"velocity":120,"measure":93,"beat":3.0,"subject_pos":-1,"motif":"","motif_pos":-1,"best_pos":4,"similarity":0.389},{"voice":2,"pitch":65,"start":185.0625,"duration":0.0625,"velocity":70,"measure":93,"beat":3.125,"subject_pos":-1,"motif":"","motif_pos":-1,"best_pos":6,"similarity":0.179},{"voice":2,"pitch":69,"start":185.125,"duration":0.0625,"velocity":70,"measure":93,"beat":3.25,"subject_pos":-1,"motif":"","motif_pos":-1,"best_pos":0,"similarity":0.286},{"voice":6,"pitch":80,"start":185.125,"duration":0.125,"velocity":90,"measure":93,"beat":3.25,"subject_pos":-1,"motif":"","motif_pos":-1,"best_pos":5,"similarity":0.55},{"voice":2,"pitch":74,"start":185.1875,"duration":0.0625,"velocity":70,"measure":93,"beat":3.375,"subject_pos":-1,"motif":"","motif_pos":-1,"best_pos":1,"similarity":0.286},{"voice":2,"pitch":77,"start":185.25,"duration":0.0625,"velocity":70,"measure":93,"beat":3.5,"subject_pos":-1,"motif":"","motif_pos":-1,"best_pos":6,"similarity":0.186},{"voice":6,"pitch":82,"start":185.25,"duration":0.125,"velocity":110,"measure":93,"beat":3.5,"subject_pos":-1,"motif":"","motif_pos":-1,"best_pos":6,"similarity":0.421},{"voice":2,"pitch":81,"start":185.3125,"duration":0.0625,"velocity":70,"measure":93,"beat":3.625,"subject_pos":-1,"motif":"","motif_pos":-1,"best_pos":0,"similarity":0.286},{"voice":2,"pitch":86,"start":185.375,"duration":0.0625,"velocity":70,"measure":93,"beat":3.75,"subject_pos":-1,"motif":"","motif_pos":-1,"best_pos":1,"similarity":0.293},{"voice":6,"pitch":80,"start":185.375,"duration":0.125,"velocity":90,"measure":93,"beat":3.75,"subject_pos":-1,"motif":"","motif_pos":-1,"best_pos":3,"similarity":0.443},{"voice":2,"pitch":89,"start":185.4375,"duration":0.0625,"velocity":70,"measure":93,"beat":3.875,"subject_pos":-1,"motif":"","motif_pos":-1,"best_pos":2,"similarity":0.164},{"voice":2,"pitch":62,"start":185.5,"duration":0.0625,"velocity":70,"measure":93,"beat":4.0,"subject_pos":-1,"motif":"","motif_pos":-1,"best_pos":5,"similarity":0.171},{"voice":5,"pitch":62,"start":185.5,"duration":0.25,"velocity":90,"measure":93,"beat":4.0,"subject_pos":-1,"motif":"","motif_pos":-1,"best_pos":5,"similarity":0.157},{"voice":5,"pitch":65,"start":185.5,"duration":0.25,"velocity":90,"measure":93,"beat":4.0,"subject_pos":-1,"motif":"","motif_pos":-1,"best_pos":6,"similarity":0.171},{"voice":5,"pitch":69,"start":185.5,"duration":0.25,"velocity":90,"measure":93,"beat":4.0,"subject_pos":-1,"motif":"","motif_pos":-1,"best_pos":0,"similarity":0.286},{"voice":5,"pitch":74,"start":185.5,"duration":0.25,"velocity":90,"measure":93,"beat":4.0,"subject_pos":-1,"motif":"","motif_pos":-1,"best_pos":1,"similarity":0.286},{"voice":5,"pitch":77,"start":185.5,"duration":0.25,"velocity":90,"measure":93,"beat":4.0,"subject_pos":-1,"motif":"","motif_pos":-1,"best_pos":6,"similarity":0.186},{"voice":5,"pitch":81,"start":185.5,"duration":0.25,"velocity":90,"measure":93,"beat":4.0,"subject_pos":-1,"motif":"","motif_pos":-1,"best_pos":1,"similarity":0.143},{"voice":6,"pitch":80,"start":185.5,"duration":0.125,"velocity":65,"measure":93,"beat":4.0,"subject_pos":-1,"motif":"","motif_pos":-1,"best_pos":4,"similarity":0.514},{"voice":7,"pitch":36,"start":185.5,"duration":0.25,"velocity":120,"measure":93,"beat":4.0,"subject_pos":-1,"motif":"","motif_pos":-1,"best_pos":4,"similarity":0.389},{"voice":8,"pitch":74,"start":185.5,"duration":0.25,"velocity":105,"measure":93,"beat":4.0,"subject_pos":-1,"motif":"","motif_pos":-1,"best_pos":4,"similarity":0.389},{"voice":2,"pitch":65,"start":185.5625,"duration":0.0625,"velocity":70,"measure":93,"beat":4.125,"subject_pos":-1,"motif":"","motif_pos":-1,"best_pos":6,"similarity":0.179},{"voice":2,"pitch":69,"start":185.625,"duration":0.0625,"velocity":70,"measure":93,"beat":4.25,"subject_pos":-1,"motif":"","motif_pos":-1,"best_pos":0,"similarity":0.286},{"voice":6,"pitch":80,"start":185.625,"duration":0.125,"velocity":90,"measure":93,"beat":4.25,"subject_pos":-1,"motif":"","motif_pos":-1,"best_pos":5,"similarity":0.55},{"voice":2,"pitch":74,"start":185.6875,"duration":0.0625,"velocity":70,"measure":93,"beat":4.375,"subject_pos":-1,"motif":"","motif_pos":-1,"best_pos":1,"similarity":0.286},{"voice":2,"pitch":77,"start":185.75,"duration":0.0625,"velocity":70,"measure":93,"beat":4.5,"subject_pos":-1,"motif":"","motif_pos":-1,"best_pos":6,"similarity":0.186},{"voice":6,"pitch":82,"start":185.75,"duration":0.125,"velocity":110,"measure":93,"beat":4.5,"subject_pos":-1,"motif":"","motif_pos":-1,"best_pos":6,"similarity":0.421},{"voice":2,"pitch":81,"start":185.8125,"duration":0.0625,"velocity":70,"measure":93,"beat":4.625,"subject_pos":-1,"motif":"","motif_pos":-1,"best_pos":0,"similarity":0.286},{"voice":2,"pitch":86,"start":185.875,"duration":0.0625,"velocity":70,"measure":93,"beat":4.75,"subject_pos":-1,"motif":"","motif_pos":-1,"best_pos":1,"similarity":0.293},{"voice":6,"pitch":80,"start":185.875,"duration":0.125,"velocity":90,"measure":93,"beat":4.75,"subject_pos":-1,"motif":"","motif_pos":-1,"best_pos":3,"similarity":0.443},{"voice":2,"pitch":89,"start":185.9375,"duration":0.0625,"velocity":70,"measure":93,"beat":4.875,"subject_pos":-1,"motif":"","motif_pos":-1,"best_pos":2,"similarity":0.164},{"voice":2,"pitch":67,"start":186.0,"duration":0.0625,"velocity":70,"measure":94,"beat":1.0,"subject_pos":-1,"motif":"","motif_pos":-1,"best_pos":5,"similarity":0.171},{"voice":3,"pitch":36,"start":186.0,"duration":2.0,"velocity":105,"measure":94,"beat":1.0,"subject_pos":7,"motif":"subject","motif_pos":7,"best_pos":7,"similarity":1.0},{"voice":5,"pitch":55,"start":186.0,"duration":0.25,"velocity":90,"measure":94,"beat":1.0,"subject_pos":-1,"motif":"","motif_pos":-1,"best_pos":5,"similarity":0.157},{"voice":5,"pitch":58,"start":186.0,"duration":0.25,"velocity":90,"measure":94,"beat":1.0,"subject_pos":-1,"motif":"","motif_pos":-1,"best_pos":6,"similarity":0.171},{"voice":5,"pitch":62,"start":186.0,"duration":0.25,"velocity":90,"measure":94,"beat":1.0,"subject_pos":-1,"motif":"","motif_pos":-1,"best_pos":0,"similarity":0.286},{"voice":5,"pitch":67,"start":186.0,"duration":0.25,"velocity":90,"measure":94,"beat":1.0,"subject_pos":-1,"motif":"","motif_pos":-1,"best_pos":1,"similarity":0.286},{"voice":5,"pitch":70,"start":186.0,"duration":0.25,"velocity":90,"measure":94,"beat":1.0,"subject_pos":-1,"motif":"","motif_pos":-1,"best_pos":6,"similarity":0.186},{"voice":5,"pitch":74,"start":186.0,"duration":0.25,"velocity":90,"measure":94,"beat":1.0,"subject_pos":-1,"motif":"","motif_pos":-1,"best_pos":1,"similarity":0.143},{"voice":6,"pitch":80,"start":186.0,"duration":0.125,"velocity":65,"measure":94,"beat":1.0,"subject_pos":-1,"motif":"","motif_pos":-1,"best_pos":4,"similarity":0.514},{"voice":7,"pitch":36,"start":186.0,"duration":0.25,"velocity":120,"measure":94,"beat":1.0,"subject_pos":-1,"motif":"","motif_pos":-1,"best_pos":4,"similarity":0.389},{"voice":2,"pitch":70,"start":186.0625,"duration":0.0625,"velocity":70,"measure":94,"beat":1.125,"subject_pos":-1,"motif":"","motif_pos":-1,"best_pos":6,"similarity":0.179},{"voice":2,"pitch":74,"start":186.125,"duration":0.0625,"velocity":70,"measure":94,"beat":1.25,"subject_pos":-1,"motif":"","motif_pos":-1,"best_pos":0,"similarity":0.286},{"voice":6,"pitch":80,"start":186.125,"duration":0.125,"velocity":90,"measure":94,"beat":1.25,"subject_pos":-1,"motif":"","motif_pos":-1,"best_pos":5,"similarity":0.55},{"voice":2,"pitch":79,"start":186.1875,"duration":0.0625,"velocity":70,"measure":94,"beat":1.375,"subject_pos":-1,"motif":"","motif_pos":-1,"best_pos":1,"similarity":0.286},{"voice":2,"pitch":82,"start":186.25,"duration":0.0625,"velocity":70,"measure":94,"beat":1.5,"subject_pos":-1,"motif":"","motif_pos":-1,"best_pos":6,"similarity":0.186},{"voice":6,"pitch":82,"start":186.25,"duration":0.125,"velocity":110,"measure":94,"beat":1.5,"subject_pos":-1,"motif":"","motif_pos":-1,"best_pos":6,"similarity":0.421},{"voice":2,"pitch":86,"start":186.3125,"duration":0.0625,"velocity":70,"measure":94,"beat":1.625,"subject_pos":-1,"motif":"","motif_pos":-1,"best_pos":0,"similarity":0.286},{"voice":2,"pitch":91,"start":186.375,"duration":0.0625,"velocity":70,"measure":94,"beat":1.75,"subject_pos":-1,"motif":"","motif_pos":-1,"best_pos":1,"similarity":0.293},{"voice":6,"pitch":80,"start":186.375,"duration":0.125,"velocity":90,"measure":94,"beat":1.75,"subject_pos":-1,"motif":"","motif_pos":-1,"best_pos":3,"similarity":0.443},{"voice":2,"pitch":94,"start":186.4375,"duration":0.0625,"velocity":70,"measure":94,"beat":1.875,"subject_pos":-1,"motif":"","motif_pos":-1,"best_pos":2,"similarity":0.164},{"voice":2,"pitch":67,"start":186.5,"duration":0.0625,"velocity":70,"measure":94,"beat":2.0,"subject_pos":-1,"motif":"","motif_pos":-1,"best_pos":5,"similarity":0.171},{"voice":5,"pitch":55,"start":186.5,"duration":0.25,"velocity":90,"measure":94,"beat":2.0,"subject_pos":-1,"motif":"","motif_pos":-1,"best_pos":5,"similarity":0.157},{"voice":5,"pitch":58,"start":186.5,"duration":0.25,"velocity":90,"measure":94,"beat":2.0,"subject_pos":-1,"motif":"","motif_pos":-1,"best_pos":6,"similarity":0.171},{"voice":5,"pitch":62,"start":186.5,"duration":0.25,"velocity":90,"measure":94,"beat":2.0,"subject_pos":-1,"motif":"","motif_pos":-1,"best_pos":0,"similarity":0.286},{"voice":5,"pitch":67,"start":186.5,"duration":0.25,"velocity":90,"measure":94,"beat":2.0,"subject_pos":-1,"motif":"","motif_pos":-1,"best_pos":1,"similarity":0.286},{"voice":5,"pitch":70,"start":186.5,"duration":0.25,"velocity":90,"measure":94,"beat":2.0,"subject_pos":-1,"motif":"","motif_pos":-1,"best_pos":6,"similarity":0.186},{"voice":5,"pitch":74,"start":186.5,"duration":0.25,"velocity":90,"measure":94,"beat":2.0,"subject_pos":-1,"motif":"","motif_pos":-1,"best_pos":1,"similarity":0.143},{"voice":6,"pitch":80,"start":186.5,"duration":0.125,"velocity":65,"measure":94,"beat":2.0,"subject_pos":-1,"motif":"","motif_pos":-1,"best_pos":4,"similarity":0.514},{"voice":7,"pitch":36,"start":186.5,"duration":0.25,"velocity":120,"measure":94,"beat":2.0,"subject_pos":-1,"motif":"","motif_pos":-1,"best_pos":4,"similarity":0.389},{"voice":8,"pitch":74,"start":186.5,"duration":0.25,"velocity":105,"measure":94,"beat":2.0,"subject_pos":-1,"motif":"","motif_pos":-1,"best_pos":4,"similarity":0.389},{"voice":2,"pitch":70,"start":186.5625,"duration":0.0625,"velocity":70,"measure":94,"beat":2.125,"subject_pos":-1,"motif":"","motif_pos":-1,"best_pos":6,"similarity":0.179},{"voice":2,"pitch":74,"start":186.625,"duration":0.0625,"velocity":70,"measure":94,"beat":2.25,"subject_pos":-1,"motif":"","motif_pos":-1,"best_pos":0,"similarity":0.286},{"voice":6,"pitch":80,"start":186.625,"duration":0.125,"velocity":90,"measure":94,"beat":2.25,"subject_pos":-1,"motif":"","motif_pos":-1,"best_pos":5,"similarity":0.55},{"voice":2,"pitch":79,"start":186.6875,"duration":0.0625,"velocity":70,"measure":94,"beat":2.375,"subject_pos":-1,"motif":"","motif_pos":-1,"best_pos":1,"similarity":0.286},{"voice":2,"pitch":82,"start":186.75,"duration":0.0625,"velocity":70,"measure":94,"beat":2.5,"subject_pos":-1,"motif":"","motif_pos":-1,"best_pos":6,"similarity":0.186},{"voice":6,"pitch":82,"start":186.75,"duration":0.125,"velocity":110,"measure":94,"beat":2.5,"subject_pos":-1,"motif":"","motif_pos":-1,"best_pos":6,"similarity":0.421},{"voice":2,"pitch":86,"start":186.8125,"duration":0.0625,"velocity":70,"measure":94,"beat":2.625,"subject_pos":-1,"motif":"","motif_pos":-1,"best_pos":0,"similarity":0.286},{"voice":2,"pitch":91,"start":186.875,"duration":0.0625,"velocity":70,"measure":94,"beat":2.75,"subject_pos":-1,"motif":"","motif_pos":-1,"best_pos":1,"similarity":0.293},{"voice":6,"pitch":80,"start":186.875,"duration":0.125,"velocity":90,"measure":94,"beat":2.75,"subject_pos":-1,"motif":"","motif_pos":-1,"best_pos":3,"similarity":0.443},{"voice":2,"pitch":94,"start":186.9375,"duration":0.0625,"velocity":70,"measure":94,"beat":2.875,"subject_pos":-1,"motif":"","motif_pos":-1,"best_pos":2,"similarity":0.164},{"voice":2,"pitch":67,"start":187.0,"duration":0.0625,"velocity":70,"measure":94,"beat":3.0,"subject_pos":-1,"motif":"","motif_pos":-1,"best_pos":5,"similarity":0.171},{"voice":5,"pitch":55,"start":187.0,"duration":0.25,"velocity":90,"measure":94,"beat":3.0,"subject_pos":-1,"motif":"","motif_pos":-1,"best_pos":5,"similarity":0.157},{"voice":5,"pitch":58,"start":187.0,"duration":0.25,"velocity":90,"measure":94,"beat":3.0,"subject_pos":-1,"motif":"","motif_pos":-1,"best_pos":6,"similarity":0.171},{"voice":5,"pitch":62,"start":187.0,"duration":0.25,"velocity":90,"measure":94,"beat":3.0,"subject_pos":-1,"motif":"","motif_pos":-1,"best_pos":0,"similarity":0.286},{"voice":5,"pitch":67,"start":187.0,"duration":0.25,"velocity":90,"measure":94,"beat":3.0,"subject_pos":-1,"motif":"","motif_pos":-1,"best_pos":1,"similarity":0.286},{"voice":5,"pitch":70,"start":187.0,"duration":0.25,"velocity":90,"measure":94,"beat":3.0,"subject_pos":-1,"motif":"","motif_pos":-1,"best_pos":6,"similarity":0.186},{"voice":5,"pitch":74,"start":187.0,"duration":0.25,"velocity":90,"measure":94,"beat":3.0,"subject_pos":-1,"motif":"","motif_pos":-1,"best_pos":1,"similarity":0.143},{"voice":6,"pitch":80,"start":187.0,"duration":0.125,"velocity":65,"measure":94,"beat":3.0,"subject_pos":-1,"motif":"","motif_pos":-1,"best_pos":4,"similarity":0.514},{"voice":7,"pitch":36,"start":187.0,"duration":0.25,"velocity":120,"measure":94,"beat":3.0,"subject_pos":-1,"motif":"","motif_pos":-1,"best_pos":4,"similarity":0.389},{"voice":2,"pitch":70,"start":187.0625,"duration":0.0625,"velocity":70,"measure":94,"beat":3.125,"subject_pos":-1,"motif":"","motif_pos":-1,"best_pos":6,"similarity":0.179},{"voice":2,"pitch":74,"start":187.125,"duration":0.0625,"velocity":70,"measure":94,"beat":3.25,"subject_pos":-1,"motif":"","motif_pos":-1,"best_pos":0,"similarity":0.286},{"voice":6,"pitch":80,"start":187.125,"duration":0.125,"velocity":90,"measure":94,"beat":3.25,"subject_pos":-1,"motif":"","motif_pos":-1,"best_pos":5,"similarity":0.55},{"voice":2,"pitch":79,"start":187.1875,"duration":0.0625,"velocity":70,"measure":94,"beat":3.375,"subject_pos":-1,"motif":"","motif_pos":-1,"best_pos":1,"similarity":0.286},{"voice":2,"pitch":82,"start":187.25,"duration":0.0625,"velocity":70,"measure":94,"beat":3.5,"subject_pos":-1,"motif":"","motif_pos":-1,"best_pos":6,"similarity":0.186},{"voice":6,"pitch":82,"start":187.25,"duration":0.125,"velocity":110,"measure":94,"beat":3.5,"subject_pos":-1,"motif":"","motif_pos":-1,"best_pos":6,"similarity":0.421},{"voice":2,"pitch":86,"start":187.3125,"duration":0.0625,"velocity":70,"measure":94,"beat":3.625,"subject_pos":-1,"motif":"","motif_pos":-1,"best_pos":0,"similarity":0.286},{"voice":2,"pitch":91,"start":187.375,"duration":0.0625,"velocity":70,"measure":94,"beat":3.75,"subject_pos":-1,"motif":"","motif_pos":-1,"best_pos":1,"similarity":0.293},{"voice":6,"pitch":80,"start":187.375,"duration":0.125,"velocity":90,"measure":94,"beat":3.75,"subject_pos":-1,"motif":"","motif_pos":-1,"best_pos":3,"similarity":0.443},{"voice":2,"pitch":94,"start":187.4375,"duration":0.0625,"velocity":70,"measure":94,"beat":3.875,"subject_pos":-1,"motif":"","motif_pos":-1,"best_pos":2,"similarity":0.164},{"voice":2,"pitch":67,"start":187.5,"duration":0.0625,"velocity":70,"measure":94,"beat":4.0,"subject_pos":-1,"motif":"","motif_pos":-1,"best_pos":5,"similarity":0.171},{"voice":5,"pitch":55,"start":187.5,"duration":0.25,"velocity":90,"measure":94,"beat":4.0,"subject_pos":-1,"motif":"","motif_pos":-1,"best_pos":5,"similarity":0.157},{"voice":5,"pitch":58,"start":187.5,"duration":0.25,"velocity":90,"measure":94,"beat":4.0,"subject_pos":-1,"motif":"","motif_pos":-1,"best_pos":6,"similarity":0.171},{"voice":5,"pitch":62,"start":187.5,"duration":0.25,"velocity":90,"measure":94,"beat":4.0,"subject_pos":-1,"motif":"","motif_pos":-1,"best_pos":0,"similarity":0.286},{"voice":5,"pitch":67,"start":187.5,"duration":0.25,"velocity":90,"measure":94,"beat":4.0,"subject_pos":-1,"motif":"","motif_pos":-1,"best_pos":1,"similarity":0.286},{"voice":5,"pitch":70,"start":187.5,"duration":0.25,"velocity":90,"measure":94,"beat":4.0,"subject_pos":-1,"motif":"","motif_pos":-1,"best_pos":6,"similarity":0.186},{"voice":5,"pitch":74,"start":187.5,"duration":0.25,"velocity":90,"measure":94,"beat":4.0,"subject_pos":-1,"motif":"","motif_pos":-1,"best_pos":1,"similarity":0.15},{"voice":6,"pitch":80,"start":187.5,"duration":0.125,"velocity":65,"measure":94,"beat":4.0,"subject_pos":-1,"motif":"","motif_pos":-1,"best_pos":4,"similarity":0.514},{"voice":7,"pitch":36,"start":187.5,"duration":0.25,"velocity":120,"measure":94,"beat":4.0,"subject_pos":-1,"motif":"","motif_pos":-1,"best_pos":4,"similarity":0.389},{"voice":8,"pitch":74,"start":187.5,"duration":0.25,"velocity":105,"measure":94,"beat":4.0,"subject_pos":-1,"motif":"","motif_pos":-1,"best_pos":4,"similarity":0.389},{"voice":2,"pitch":70,"start":187.5625,"duration":0.0625,"velocity":70,"measure":94,"beat":4.125,"subject_pos":-1,"motif":"","motif_pos":-1,"best_pos":6,"similarity":0.179},{"voice":2,"pitch":74,"start":187.625,"duration":0.0625,"velocity":70,"measure":94,"beat":4.25,"subject_pos":-1,"motif":"","motif_pos":-1,"best_pos":0,"similarity":0.286},{"voice":6,"pitch":80,"start":187.625,"duration":0.125,"velocity":90,"measure":94,"beat":4.25,"subject_pos":-1,"motif":"","motif_pos":-1,"best_pos":5,"similarity":0.55},{"voice":2,"pitch":79,"start":187.6875,"duration":0.0625,"velocity":70,"measure":94,"beat":4.375,"subject_pos":-1,"motif":"","motif_pos":-1,"best_pos":1,"similarity":0.286},{"voice":2,"pitch":82,"start":187.75,"duration":0.0625,"velocity":70,"measure":94,"beat":4.5,"subject_pos":-1,"motif":"","motif_pos":-1,"best_pos":6,"similarity":0.186},{"voice":6,"pitch":82,"start":187.75,"duration":0.125,"velocity":110,"measure":94,"beat":4.5,"subject_pos":-1,"motif":"","motif_pos":-1,"best_pos":6,"similarity":0.421},{"voice":2,"pitch":86,"start":187.8125,"duration":0.0625,"velocity":70,"measure":94,"beat":4.625,"subject_pos":-1,"motif":"","motif_pos":-1,"best_pos":0,"similarity":0.286},{"voice":2,"pitch":91,"start":187.875,"duration":0.0625,"velocity":70,"measure":94,"beat":4.75,"subject_pos":-1,"motif":"","motif_pos":-1,"best_pos":1,"similarity":0.286},{"voice":6,"pitch":80,"start":187.875,"duration":0.125,"velocity":90,"measure":94,"beat":4.75,"subject_pos":-1,"motif":"","motif_pos":-1,"best_pos":3,"similarity":0.443},{"voice":2,"pitch":94,"start":187.9375,"duration":0.0625,"velocity":70,"measure":94,"beat":4.875,"subject_pos":-1,"motif":"","motif_pos":-1,"best_pos":2,"similarity":0.161},{"voice":2,"pitch":69,"start":188.0,"duration":0.0625,"velocity":70,"measure":95,"beat":1.0,"subject_pos":-1,"motif":"","motif_pos":-1,"best_pos":0,"similarity":0.143},{"voice":5,"pitch":57,"start":188.0,"duration":0.25,"velocity":90,"measure":95,"beat":1.0,"subject_pos":-1,"motif":"","motif_pos":-1,"best_pos":0,"similarity":0.143},{"voice":5,"pitch":61,"start":188.0,"duration":0.25,"velocity":90,"measure":95,"beat":1.0,"subject_pos":-1,"motif":"","motif_pos":-1,"best_pos":5,"similarity":0.207},{"voice":5,"pitch":64,"start":188.0,"duration":0.25,"velocity":90,"measure":95,"beat":1.0,"subject_pos":-1,"motif":"","motif_pos":-1,"best_pos":5,"similarity":0.286},{"voice":5,"pitch":67,"start":188.0,"duration":0.25,"velocity":90,"measure":95,"beat":1.0,"subject_pos":-1,"motif":"","motif_pos":-1,"best_pos":5,"similarity":0.386},{"voice":5,"pitch":69,"start":188.0,"duration":0.25,"velocity":90,"measure":95,"beat":1.0,"subject_pos":-1,"motif":"","motif_pos":-1,"best_pos":6,"similarity":0.357},{"voice":5,"pitch":73,"start":188.0,"duration":0.25,"velocity":90,"measure":95,"beat":1.0,"subject_pos":-1,"motif":"","motif_pos":-1,"best_pos":5,"similarity":0.221},{"voice":5,"pitch":76,"start":188.0,"duration":0.25,"velocity":90,"measure":95,"beat":1.0,"subject_pos":-1,"motif":"","motif_pos":-1,"best_pos":6,"similarity":0.236},{"voice":5,"pitch":79,"start":188.0,"duration":0.25,"velocity":90,"measure":95,"beat":1.0,"subject_pos":-1,"motif":"","motif_pos":-1,"best_pos":6,"similarity":0.179},{"voice":6,"pitch":80,"start":188.0,"duration":0.125,"velocity":65,"measure":95,"beat":1.0,"subject_pos":-1,"motif":"","motif_pos":-1,"best_pos":4,"similarity":0.514},{"voice":7,"pitch":36,"start":188.0,"duration":0.25,"velocity":120,"measure":95,"beat":1.0,"subject_pos":-1,"motif":"","motif_pos":-1,"best_pos":4,"similarity":0.389},{"voice":2,"pitch":73,"start":188.0625,"duration":0.0625,"velocity":70,"measure":95,"beat":1.125,"subject_pos":-1,"motif":"","motif_pos":-1,"best_pos":5,"similarity":0.207},{"voice":2,"pitch":76,"start":188.125,"duration":0.0625,"velocity":70,"measure":95,"beat":1.25,"subject_pos":-1,"motif":"","motif_pos":-1,"best_pos":5,"similarity":0.286},{"voice":6,"pitch":80,"start":188.125,"duration":0.125,"velocity":90,"measure":95,"beat":1.25,"subject_pos":-1,"motif":"","motif_pos":-1,"best_pos":5,"similarity":0.55},{"voice":2,"pitch":79,"start":188.1875,"duration":0.0625,"velocity":70,"measure":95,"beat":1.375,"subject_pos":-1,"motif":"","motif_pos":-1,"best_pos":5,"similarity":0.386},{"voice":2,"pitch":81,"start":188.25,"duration":0.0625,"velocity":70,"measure":95,"beat":1.5,"subject_pos":-1,"motif":"","motif_pos":-1,"best_pos":6,"similarity":0.357},{"voice":6,"pitch":82,"start":188.25,"duration":0.125,"velocity":110,"measure":95,"beat":1.5,"subject_pos":-1,"motif":"","motif_pos":-1,"best_pos":6,"similarity":0.421},{"voice":2,"pitch":85,"start":188.3125,"duration":0.0625,"velocity":70,"measure":95,"beat":1.625,"subject_pos":-1,"motif":"","motif_pos":-1,"best_pos":5,"similarity":0.221},{"voice":2,"pitch":88,"start":188.375,"duration":0.0625,"velocity":70,"measure":95,"beat":1.75,"subject_pos":-1,"motif":"","motif_pos":-1,"best_pos":5,"similarity":0.286},{"voice":6,"pitch":80,"start":188.375,"duration":0.125,"velocity":90,"measure":95,"beat":1.75,"subject_pos":-1,"motif":"","motif_pos":-1,"best_pos":3,"similarity":0.443},{"voice":2,"pitch":91,"start":188.4375,"duration":0.0625,"velocity":70,"measure":95,"beat":1.875,"subject_pos":-1,"motif":"","motif_pos":-1,"best_pos":5,"similarity":0.386},{"voice":2,"pitch":93,"start":188.5,"duration":0.0625,"velocity":70,"measure":95,"beat":2.0,"subject_pos":-1,"motif":"","motif_pos":-1,"best_pos":6,"similarity":0.357},{"voice":5,"pitch":57,"start":188.5,"duration":0.25,"velocity":90,"measure":95,"beat":2.0,"subject_pos":-1,"motif":"","motif_pos":-1,"best_pos":0,"similarity":0.143},{"voice":5,"pitch":61,"start":188.5,"duration":0.25,"velocity":90,"measure":95,"beat":2.0,"subject_pos":-1,"motif":"","motif_pos":-1,"best_pos":5,"similarity":0.207},{"voice":5,"pitch":64,"start":188.5,"duration":0.25,"velocity":90,"measure":95,"beat":2.0,"subject_pos":-1,"motif":"","motif_pos":-1,"best_pos":5,"similarity":0.286},{"voice":5,"pitch":67,"start":188.5,"duration":0.25,"velocity":90,"measure":95,"beat":2.0,"subject_pos":-1,"motif":"","motif_pos":-1,"best_pos":5,"similarity":0.386},{"voice":5,"pitch":69,"start":188.5,"duration":0.25,"velocity":90,"measure":95,"beat":2.0,"subject_pos":-1,"motif":"","motif_pos":-1,"best_pos":6,"similarity":0.357},{"voice":5,"pitch":73,"start":188.5,"duration":0.25,"velocity":90,"measure":95,"beat":2.0,"subject_pos":-1,"motif":"","motif_pos":-1,"best_pos":5,"similarity":0.221},{"voice":5,"pitch":76,"start":188.5,"duration":0.25,"velocity":90,"measure":95,"beat":2.0,"subject_pos":-1,"motif":"","motif_pos":-1,"best_pos":6,"similarity":0.236},{"voice":5,"pitch":79,"start":188.5,"duration":0.25,"velocity":90,"measure":95,"beat":2.0,"subject_pos":-1,"motif":"","motif_pos":-1,"best_pos":6,"similarity":0.179},{"voice":6,"pitch":80,"start":188.5,"duration":0.125,"velocity":65,"measure":95,"beat":2.0,"subject_pos":-1,"motif":"","motif_pos":-1,"best_pos":4,"similarity":0.514},{"voice":7,"pitch":36,"start":188.5,"duration":0.25,"velocity":120,"measure":95,"beat":2.0,"subject_pos":-1,"motif":"","motif_pos":-1,"best_pos":4,"similarity":0.389},{"voice":8,"pitch":74,"start":188.5,"duration":0.25,"velocity":105,"measure":95,"beat":2.0,"subject_pos":-1,"motif":"","motif_pos":-1,"best_pos":4,"similarity":0.389},{"voice":2,"pitch":97,"start":188.5625,"duration":0.0625,"velocity":70,"measure":95,"beat":2.125,"subject_pos":-1,"motif":"","motif_pos":-1,"best_pos":7,"similarity":0.189},{"voice":2,"pitch":69,"start":188.625,"duration":0.0625,"velocity":70,"measure":95,"beat":2.25,"subject_pos":-1,"motif":"","motif_pos":-1,"best_pos":0,"similarity":0.143},{"voice":6,"pitch":80,"start":188.625,"duration":0.125,"velocity":90,"measure":95,"beat":2.25,"subject_pos":-1,"motif":"","motif_pos":-1,"best_pos":5,"similarity":0.55},{"voice":2,"pitch":73,"start":188.6875,"duration":0.0625,"velocity":70,"measure":95,"beat":2.375,"subject_pos":-1,"motif":"","motif_pos":-1,"best_pos":5,"similarity":0.207},{"voice":2,"pitch":76,"start":188.75,"duration":0.0625,"velocity":70,"measure":95,"beat":2.5,"subject_pos":-1,"motif":"","motif_pos":-1,"best_pos":5,"similarity":0.286},{"voice":6,"pitch":82,"start":188.75,"duration":0.125,"velocity":110,"measure":95,"beat":2.5,"subject_pos":-1,"motif":"","motif_pos":-1,"best_pos":6,"similarity":0.421},{"voice":2,"pitch":79,"start":188.8125,"duration":0.0625,"velocity":70,"measure":95,"beat":2.625,"subject_pos":-1,"motif":"","motif_pos":-1,"best_pos":5,"similarity":0.386},{"voice":2,"pitch":81,"start":188.875,"duration":0.0625,"velocity":70,"measure":95,"beat":2.75,"subject_pos":-1,"motif":"","motif_pos":-1,"best_pos":6,"similarity":0.357},{"voice":6,"pitch":80,"start":188.875,"duration":0.125,"velocity":90,"measure":95,"beat":2.75,"subject_pos":-1,"motif":"","motif_pos":-1,"best_pos":3,"similarity":0.443},{"voice":2,"pitch":85,"start":188.9375,"duration":0.0625,"velocity":70,"measure":95,"beat":2.875,"subject_pos":-1,"motif":"","motif_pos":-1,"best_pos":5,"similarity":0.221},{"voice":2,"pitch":88,"start":189.0,"duration":0.0625,"velocity":70,"measure":95,"beat":3.0,"subject_pos":-1,"motif":"","motif_pos":-1,"best_pos":5,"similarity":0.286},{"voice":5,"pitch":57,"start":189.0,"duration":0.25,"velocity":90,"measure":95,"beat":3.0,"subject_pos":-1,"motif":"","motif_pos":-1,"best_pos":0,"similarity":0.143},{"voice":5,"pitch":61,"start":189.0,"duration":0.25,"velocity":90,"measure":95,"beat":3.0,"subject_pos":-1,"motif":"","motif_pos":-1,"best_pos":5,"similarity":0.207},{"voice":5,"pitch":64,"start":189.0,"duration":0.25,"velocity":90,"measure":95,"beat":3.0,"subject_pos":-1,"motif":"","motif_pos":-1,"best_pos":5,"similarity":0.286},{"voice":5,"pitch":67,"start":189.0,"duration":0.25,"velocity":90,"measure":95,"beat":3.0,"subject_pos":-1,"motif":"","motif_pos":-1,"best_pos":5,"similarity":0.386},{"voice":5,"pitch":69,"start":189.0,"duration":0.25,"velocity":90,"measure":95,"beat":3.0,"subject_pos":-1,"motif":"","motif_pos":-1,"best_pos":6,"similarity":0.357},{"voice":5,"pitch":73,"start":189.0,"duration":0.25,"velocity":90,"measure":95,"beat":3.0,"subject_pos":-1,"motif":"","motif_pos":-1,"best_pos":5,"similarity":0.221},{"voice":5,"pitch":76,"start":189.0,"duration":0.25,"velocity":90,"measure":95,"beat":3.0,"subject_pos":-1,"motif":"","motif_pos":-1,"best_pos":6,"similarity":0.236},{"voice":5,"pitch":79,"start":189.0,"duration":0.25,"velocity":90,"measure":95,"beat":3.0,"subject_pos":-1,"motif":"","motif_pos":-1,"best_pos":6,"similarity":0.179},{"voice":6,"pitch":80,"start":189.0,"duration":0.125,"velocity":65,"measure":95,"beat":3.0,"subject_pos":-1,"motif":"","motif_pos":-1,"best_pos":4,"similarity":0.514},{"voice":7,"pitch":36,"start":189.0,"duration":0.25,"velocity":120,"measure":95,"beat":3.0,"subject_pos":-1,"motif":"","motif_pos":-1,"best_pos":4,"similarity":0.389},{"voice":2,"pitch":91,"start":189.0625,"duration":0.0625,"velocity":70,"measure":95,"beat":3.125,"subject_pos":-1,"motif":"","motif_pos":-1,"best_pos":5,"similarity":0.386},{"voice":2,"pitch":93,"start":189.125,"duration":0.0625,"velocity":70,"measure":95,"beat":3.25,"subject_pos":-1,"motif":"","motif_pos":-1,"best_pos":6,"similarity":0.357},{"voice":6,"pitch":80,"start":189.125,"duration":0.125,"velocity":90,"measure":95,"beat":3.25,"subject_pos":-1,"motif":"","motif_pos":-1,"best_pos":5,"similarity":0.55},{"voice":2,"pitch":97,"start":189.1875,"duration":0.0625,"velocity":70,"measure":95,"beat":3.375,"subject_pos":-1,"motif":"","motif_pos":-1,"best_pos":7,"similarity":0.189},{"voice":2,"pitch":69,"start":189.25,"duration":0.0625,"velocity":70,"measure":95,"beat":3.5,"subject_pos":-1,"motif":"","motif_pos":-1,"best_pos":0,"similarity":0.143},{"voice":6,"pitch":82,"start":189.25,"duration":0.125,"velocity":110,"measure":95,"beat":3.5,"subject_pos":-1,"motif":"","motif_pos":-1,"best_pos":6,"similarity":0.421},{"voice":2,"pitch":73,"start":189.3125,"duration":0.0625,"velocity":70,"measure":95,"beat":3.625,"subject_pos":-1,"motif":"","motif_pos":-1,"best_pos":5,"similarity":0.207},{"voice":2,"pitch":76,"start":189.375,"duration":0.0625,"velocity":70,"measure":95,"beat":3.75,"subject_pos":-1,"motif":"","motif_pos":-1,"best_pos":5,"similarity":0.286},{"voice":6,"pitch":80,"start":189.375,"duration":0.125,"velocity":90,"measure":95,"beat":3.75,"subject_pos":-1,"motif":"","motif_pos":-1,"best_pos":3,"similarity":0.443},{"voice":2,"pitch":79,"start":189.4375,"duration":0.0625,"velocity":70,"measure":95,"beat":3.875,"subject_pos":-1,"motif":"","motif_pos":-1,"best_pos":5,"similarity":0.386},{"voice":2,"pitch":81,"start":189.5,"duration":0.0625,"velocity":70,"measure":95,"beat":4.0,"subject_pos":-1,"motif":"","motif_pos":-1,"best_pos":6,"similarity":0.357},{"voice":5,"pitch":57,"start":189.5,"duration":0.25,"velocity":90,"measure":95,"beat":4.0,"subject_pos":-1,"motif":"","motif_pos":-1,"best_pos":0,"similarity":0.143},{"voice":5,"pitch":61,"start":189.5,"duration":0.25,"velocity":90,"measure":95,"beat":4.0,"subject_pos":-1,"motif":"","motif_pos":-1,"best_pos":5,"similarity":0.207},{"voice":5,"pitch":64,"start":189.5,"duration":0.25,"velocity":90,"measure":95,"beat":4.0,"subject_pos":-1,"motif":"","motif_pos":-1,"best_pos":5,"similarity":0.286},{"voice":5,"pitch":67,"start":189.5,"duration":0.25,"velocity":90,"measure":95,"beat":4.0,"subject_pos":-1,"motif":"","motif_pos":-1,"best_pos":5,"similarity":0.386},{"voice":5,"pitch":69,"start":189.5,"duration":0.25,"velocity":90,"measure":95,"beat":4.0,"subject_pos":-1,"motif":"","motif_pos":-1,"best_pos":6,"similarity":0.357},{"voice":5,"pitch":73,"start":189.5,"duration":0.25,"velocity":90,"measure":95,"beat":4.0,"subject_pos":-1,"motif":"","motif_pos":-1,"best_pos":5,"similarity":0.221},{"voice":5,"pitch":76,"start":189.5,"duration":0.25,"velocity":90,"measure":95,"beat":4.0,"subject_pos":-1,"motif":"","motif_pos":-1,"best_pos":6,"similarity":0.236},{"voice":5,"pitch":79,"start":189.5,"duration":0.25,"velocity":90,"measure":95,"beat":4.0,"subject_pos":-1,"motif":"","motif_pos":-1,"best_pos":6,"similarity":0.179},{"voice":6,"pitch":80,"start":189.5,"duration":0.125,"velocity":65,"measure":95,"beat":4.0,"subject_pos":-1,"motif":"","motif_pos":-1,"best_pos":4,"similarity":0.514},{"voice":7,"pitch":36,"start":189.5,"duration":0.25,"velocity":120,"measure":95,"beat":4.0,"subject_pos":-1,"motif":"","motif_pos":-1,"best_pos":4,"similarity":0.389},{"voice":8,"pitch":74,"start":189.5,"duration":0.25,"velocity":105,"measure":95,"beat":4.0,"subject_pos":-1,"motif":"","motif_pos":-1,"best_pos":5,"similarity":0.364},{"voice":2,"pitch":85,"start":189.5625,"duration":0.0625,"velocity":70,"measure":95,"beat":4.125,"subject_pos":-1,"motif":"","motif_pos":-1,"best_pos":5,"similarity":0.221},{"voice":2,"pitch":88,"start":189.625,"duration":0.0625,"velocity":70,"measure":95,"beat":4.25,"subject_pos":-1,"motif":"","motif_pos":-1,"best_pos":5,"similarity":0.286},{"voice":6,"pitch":80,"start":189.625,"duration":0.125,"velocity":90,"measure":95,"beat":4.25,"subject_pos":-1,"motif":"","motif_pos":-1,"best_pos":5,"similarity":0.55},{"voice":2,"pitch":91,"start":189.6875,"duration":0.0625,"velocity":70,"measure":95,"beat":4.375,"subject_pos":-1,"motif":"","motif_pos":-1,"best_pos":5,"similarity":0.386},{"voice":2,"pitch":93,"start":189.75,"duration":0.0625,"velocity":70,"measure":95,"beat":4.5,"subject_pos":-1,"motif":"","motif_pos":-1,"best_pos":6,"similarity":0.357},{"voice":6,"pitch":82,"start":189.75,"duration":0.125,"velocity":110,"measure":95,"beat":4.5,"subject_pos":-1,"motif":"","motif_pos":-1,"best_pos":6,"similarity":0.421},{"voice":2,"pitch":97,"start":189.8125,"duration":0.0625,"velocity":70,"measure":95,"beat":4.625,"subject_pos":-1,"motif":"","motif_pos":-1,"best_pos":7,"similarity":0.189},{"voice":2,"pitch":69,"start":189.875,"duration":0.0625,"velocity":70,"measure":95,"beat":4.75,"subject_pos":-1,"motif":"","motif_pos":-1,"best_pos":0,"similarity":0.143},{"voice":6,"pitch":80,"start":189.875,"duration":0.125,"velocity":90,"measure":95,"beat":4.75,"subject_pos":-1,"motif":"","motif_pos":-1,"best_pos":3,"similarity":0.443},{"voice":2,"pitch":73,"start":189.9375,"duration":0.0625,"velocity":70,"measure":95,"beat":4.875,"subject_pos":-1,"motif":"","motif_pos":-1,"best_pos":1,"similarity":0.143},{"voice":2,"pitch":62,"start":190.0,"duration":0.0625,"velocity":70,"measure":96,"beat":1.0,"subject_pos":-1,"motif":"","motif_pos":-1,"best_pos":5,"similarity":0.157},{"voice":5,"pitch":62,"start":190.0,"duration":0.25,"velocity":90,"measure":96,"beat":1.0,"subject_pos":-1,"motif":"","motif_pos":-1,"best_pos":5,"similarity":0.171},{"voice":5,"pitch":65,"start":190.0,"duration":0.25,"velocity":90,"measure":96,"beat":1.0,"subject_pos":-1,"motif":"","motif_pos":-1,"best_pos":6,"similarity":0.179},{"voice":5,"pitch":69,"start":190.0,"duration":0.25,"velocity":90,"measure":96,"beat":1.0,"subject_pos":-1,"motif":"","motif_pos":-1,"best_pos":0,"similarity":0.286},{"voice":5,"pitch":74,"start":190.0,"duration":0.25,"velocity":90,"measure":96,"beat":1.0,"subject_pos":-1,"motif":"","motif_pos":-1,"best_pos":1,"similarity":0.286},{"voice":5,"pitch":77,"start":190.0,"duration":0.25,"velocity":90,"measure":96,"beat":1.0,"subject_pos":-1,"motif":"","motif_pos":-1,"best_pos":6,"similarity":0.186},{"voice":5,"pitch":81,"start":190.0,"duration":0.25,"velocity":90,"measure":96,"beat":1.0,"subject_pos":-1,"motif":"","motif_pos":-1,"best_pos":1,"similarity":0.143},{"voice":6,"pitch":80,"start":190.0,"duration":0.125,"velocity":65,"measure":96,"beat":1.0,"subject_pos":-1,"motif":"","motif_pos":-1,"best_pos":4,"similarity":0.514},{"voice":7,"pitch":36,"start":190.0,"duration":0.25,"velocity":120,"measure":96,"beat":1.0,"subject_pos":-1,"motif":"","motif_pos":-1,"best_pos":4,"similarity":0.389},{"voice":2,"pitch":65,"start":190.0625,"duration":0.0625,"velocity":70,"measure":96,"beat":1.125,"subject_pos":-1,"motif":"","motif_pos":-1,"best_pos":6,"similarity":0.171},{"voice":2,"pitch":69,"start":190.125,"duration":0.0625,"velocity":70,"measure":96,"beat":1.25,"subject_pos":-1,"motif":"","motif_pos":-1,"best_pos":0,"similarity":0.286},{"voice":6,"pitch":80,"start":190.125,"duration":0.125,"velocity":90,"measure":96,"beat":1.25,"subject_pos":-1,"motif":"","motif_pos":-1,"best_pos":5,"similarity":0.55},{"voice":2,"pitch":74,"start":190.1875,"duration":0.0625,"velocity":70,"measure":96,"beat":1.375,"subject_pos":-1,"motif":"","motif_pos":-1,"best_pos":1,"similarity":0.286},{"voice":2,"pitch":77,"start":190.25,"duration":0.0625,"velocity":70,"measure":96,"beat":1.5,"subject_pos":-1,"motif":"","motif_pos":-1,"best_pos":6,"similarity":0.186},{"voice":6,"pitch":82,"start":190.25,"duration":0.125,"velocity":110,"measure":96,"beat":1.5,"subject_pos":-1,"motif":"","motif_pos":-1,"best_pos":6,"similarity":0.421},{"voice":2,"pitch":81,"start":190.3125,"duration":0.0625,"velocity":70,"measure":96,"beat":1.625,"subject_pos":-1,"motif":"","motif_pos":-1,"best_pos":0,"similarity":0.286},{"voice":2,"pitch":86,"start":190.375,"duration":0.0625,"velocity":70,"measure":96,"beat":1.75,"subject_pos":-1,"motif":"","motif_pos":-1,"best_pos":1,"similarity":0.293},{"voice":6,"pitch":80,"start":190.375,"duration":0.125,"velocity":90,"measure":96,"beat":1.75,"subject_pos":-1,"motif":"","motif_pos":-1,"best_pos":3,"similarity":0.443},{"voice":2,"pitch":89,"start":190.4375,"duration":0.0625,"velocity":70,"measure":96,"beat":1.875,"subject_pos":-1,"motif":"","motif_pos":-1,"best_pos":2,"similarity":0.164},{"voice":2,"pitch":62,"start":190.5,"duration":0.0625,"velocity":70,"measure":96,"beat":2.0,"subject_pos":-1,"motif":"","motif_pos":-1,"best_pos":5,"similarity":0.171},{"voice":5,"pitch":62,"start":190.5,"duration":0.25,"velocity":90,"measure":96,"beat":2.0,"subject_pos":-1,"motif":"","motif_pos":-1,"best_pos":5,"similarity":0.157},{"voice":5,"pitch":65,"start":190.5,"duration":0.25,"velocity":90,"measure":96,"beat":2.0,"subject_pos":-1,"motif":"","motif_pos":-1,"best_pos":6,"similarity":0.171},{"voice":5,"pitch":69,"start":190.5,"duration":0.25,"velocity":90,"measure":96,"beat":2.0,"subject_pos":-1,"motif":"","motif_pos":-1,"best_pos":0,"similarity":0.286},{"voice":5,"pitch":74,"start":190.5,"duration":0.25,"velocity":90,"measure":96,"beat":2.0,"subject_pos":-1,"motif":"","motif_pos":-1,"best_pos":1,"similarity":0.286},{"voice":5,"pitch":77,"start":190.5,"duration":0.25,"velocity":90,"measure":96,"beat":2.0,"subject_pos":-1,"motif":"","motif_pos":-1,"best_pos":6,"similarity":0.186},{"voice":5,"pitch":81,"start":190.5,"duration":0.25,"velocity":90,"measure":96,"beat":2.0,"subject_pos":-1,"motif":"","motif_pos":-1,"best_pos":1,"similarity":0.143},{"voice":6,"pitch":80,"start":190.5,"duration":0.125,"velocity":65,"measure":96,"beat":2.0,"subject_pos":-1,"motif":"","motif_pos":-1,"best_pos":4,"similarity":0.514},{"voice":7,"pitch":36,"start":190.5,"duration":0.25,"velocity":120,"measure":96,"beat":2.0,"subject_pos":-1,"motif":"","motif_pos":-1,"best_pos":4,"similarity":0.389},{"voice":8,"pitch":74,"start":190.5,"duration":0.25,"velocity":105,"measure":96,"beat":2.0,"subject_pos":-1,"motif":"","motif_pos":-1,"best_pos":6,"similarity":0.321},{"voice":2,"pitch":65,"start":190.5625,"duration":0.0625,"velocity":70,"measure":96,"beat":2.125,"subject_pos":-1,"motif":"","motif_pos":-1,"best_pos":6,"similarity":0.179},{"voice":2,"pitch":69,"start":190.625,"duration":0.0625,"velocity":70,"measure":96,"beat":2.25,"subject_pos":-1,"motif":"","motif_pos":-1,"best_pos":0,"similarity":0.286},{"voice":6,"pitch":80,"start":190.625,"duration":0.125,"velocity":90,"measure":96,"beat":2.25,"subject_pos":-1,"motif":"","motif_pos":-1,"best_pos":5,"similarity":0.55},{"voice":2,"pitch":74,"start":190.6875,"duration":0.0625,"velocity":70,"measure":96,"beat":2.375,"subject_pos":-1,"motif":"","motif_pos":-1,"best_pos":1,"similarity":0.286},{"voice":2,"pitch":77,"start":190.75,"duration":0.0625,"velocity":70,"measure":96,"beat":2.5,"subject_pos":-1,"motif":"","motif_pos":-1,"best_pos":6,"similarity":0.186},{"voice":6,"pitch":82,"start":190.75,"duration":0.125,"velocity":110,"measure":96,"beat":2.5,"subject_pos":-1,"motif":"","motif_pos":-1,"best_pos":6,"similarity":0.421},{"voice":2,"pitch":81,"start":190.8125,"duration":0.0625,"velocity":70,"measure":96,"beat":2.625,"subject_pos":-1,"motif":"","motif_pos":-1,"best_pos":0,"similarity":0.286},{"voice":2,"pitch":86,"start":190.875,"duration":0.0625,"velocity":70,"measure":96,"beat":2.75,"subject_pos":-1,"motif":"","motif_pos":-1,"best_pos":1,"similarity":0.293},{"voice":6,"pitch":80,"start":190.875,"duration":0.125,"velocity":90,"measure":96,"beat":2.75,"subject_pos":-1,"motif":"","motif_pos":-1,"best_pos":3,"similarity":0.443},{"voice":2,"pitch":89,"start":190.9375,"duration":0.0625,"velocity":70,"measure":96,"beat":2.875,"subject_pos":-1,"motif":"","motif_pos":-1,"best_pos":2,"similarity":0.164},{"voice":2,"pitch":62,"start":191.0,"duration":0.0625,"velocity":70,"measure":96,"beat":3.0,"subject_pos":-1,"motif":"","motif_pos":-1,"best_pos":5,"similarity":0.171},{"voice":5,"pitch":62,"start":191.0,"duration":0.25,"velocity":90,"measure":96,"beat":3.0,"subject_pos":-1,"motif":"","motif_pos":-1,"best_pos":5,"similarity":0.157},{"voice":5,"pitch":65,"start":191.0,"duration":0.25,"velocity":90,"measure":96,"beat":3.0,"subject_pos":-1,"motif":"","motif_pos":-1,"best_pos":6,"similarity":0.171},{"voice":5,"pitch":69,"start":191.0,"duration":0.25,"velocity":90,"measure":96,"beat":3.0,"subject_pos":-1,"motif":"","motif_pos":-1,"best_pos":0,"similarity":0.286},{"voice":5,"pitch":74,"start":191.0,"duration":0.25,"velocity":90,"measure":96,"beat":3.0,"subject_pos":-1,"motif":"","motif_pos":-1,"best_pos":1,"similarity":0.286},{"voice":5,"pitch":77,"start":191.0,"duration":0.25,"velocity":90,"measure":96,"beat":3.0,"subject_pos":-1,"motif":"","motif_pos":-1,"best_pos":6,"similarity":0.186},{"voice":5,"pitch":81,"start":191.0,"duration":0.25,"velocity":90,"measure":96,"beat":3.0,"subject_pos":-1,"motif":"","motif_pos":-1,"best_pos":1,"similarity":0.143},{"voice":6,"pitch":80,"start":191.0,"duration":0.125,"velocity":65,"measure":96,"beat":3.0,"subject_pos":-1,"motif":"","motif_pos":-1,"best_pos":4,"similarity":0.514},{"voice":7,"pitch":36,"start":191.0,"duration":0.25,"velocity":120,"measure":96,"beat":3.0,"subject_pos":-1,"motif":"","motif_pos":-1,"best_pos":4,"similarity":0.389},{"voice":2,"pitch":65,"start":191.0625,"duration":0.0625,"velocity":70,"measure":96,"beat":3.125,"subject_pos":-1,"motif":"","motif_pos":-1,"best_pos":6,"similarity":0.179},{"voice":2,"pitch":69,"start":191.125,"duration":0.0625,"velocity":70,"measure":96,"beat":3.25,"subject_pos":-1,"motif":"","motif_pos":-1,"best_pos":0,"similarity":0.286},{"voice":6,"pitch":80,"start":191.125,"duration":0.125,"velocity":90,"measure":96,"beat":3.25,"subject_pos":-1,"motif":"","motif_pos":-1,"best_pos":5,"similarity":0.55},{"voice":2,"pitch":74,"start":191.1875,"duration":0.0625,"velocity":70,"measure":96,"beat":3.375,"subject_pos":-1,"motif":"","motif_pos":-1,"best_pos":1,"similarity":0.286},{"voice":2,"pitch":77,"start":191.25,"duration":0.0625,"velocity":70,"measure":96,"beat":3.5,"subject_pos":-1,"motif":"","motif_pos":-1,"best_pos":6,"similarity":0.186},{"voice":6,"pitch":82,"start":191.25,"duration":0.125,"velocity":110,"measure":96,"beat":3.5,"subject_pos":-1,"motif":"","motif_pos":-1,"best_pos":6,"similarity":0.421},{"voice":2,"pitch":81,"start":191.3125,"duration":0.0625,"velocity":70,"measure":96,"beat":3.625,"subject_pos":-1,"motif":"","motif_pos":-1,"best_pos":0,"similarity":0.286},{"voice":2,"pitch":86,"start":191.375,"duration":0.0625,"velocity":70,"measure":96,"beat":3.75,"subject_pos":-1,"motif":"","motif_pos":-1,"best_pos":1,"similarity":0.293},{"voice":6,"pitch":80,"start":191.375,"duration":0.125,"velocity":90,"measure":96,"beat":3.75,"subject_pos":-1,"motif":"","motif_pos":-1,"best_pos":3,"similarity":0.443},{"voice":2,"pitch":89,"start":191.4375,"duration":0.0625,"velocity":70,"measure":96,"beat":3.875,"subject_pos":-1,"motif":"","motif_pos":-1,"best_pos":2,"similarity":0.164},{"voice":2,"pitch":62,"start":191.5,"duration":0.0625,"velocity":70,"measure":96,"beat":4.0,"subject_pos":-1,"motif":"","motif_pos":-1,"best_pos":5,"similarity":0.171},{"voice":5,"pitch":62,"start":191.5,"duration":0.25,"velocity":90,"measure":96,"beat":4.0,"subject_pos":-1,"motif":"","motif_pos":-1,"best_pos":5,"similarity":0.157},{"voice":5,"pitch":65,"start":191.5,"duration":0.25,"velocity":90,"measure":96,"beat":4.0,"subject_pos":-1,"motif":"","motif_pos":-1,"best_pos":6,"similarity":0.171},{"voice":5,"pitch":69,"start":191.5,"duration":0.25,"velocity":90,"measure":96,"beat":4.0,"subject_pos":-1,"motif":"","motif_pos":-1,"best_pos":0,"similarity":0.286},{"voice":5,"pitch":74,"start":191.5,"duration":0.25,"velocity":90,"measure":96,"beat":4.0,"subject_pos":-1,"motif":"","motif_pos":-1,"best_pos":1,"similarity":0.286},{"voice":5,"pitch":77,"start":191.5,"duration":0.25,"velocity":90,"measure":96,"beat":4.0,"subject_pos":-1,"motif":"","motif_pos":-1,"best_pos":6,"similarity":0.186},{"voice":5,"pitch":81,"start":191.5,"duration":0.25,"velocity":90,"measure":96,"beat":4.0,"subject_pos":-1,"motif":"","motif_pos":-1,"best_pos":1,"similarity":0.143},{"voice":6,"pitch":80,"start":191.5,"duration":0.125,"velocity":65,"measure":96,"beat":4.0,"subject_pos":-1,"motif":"","motif_pos":-1,"best_pos":4,"similarity":0.514},{"voice":7,"pitch":36,"start":191.5,"duration":0.25,"velocity":120,"measure":96,"beat":4.0,"subject_pos":-1,"motif":"","motif_pos":-1,"best_pos":4,"similarity":0.389},{"voice":8,"pitch":74,"start":191.5,"duration":0.25,"velocity":105,"measure":96,"beat":4.0,"subject_pos":-1,"motif":"","motif_pos":-1,"best_pos":5,"similarity":0.221},{"voice":2,"pitch":65,"start":191.5625,"duration":0.0625,"velocity":70,"measure":96,"beat":4.125,"subject_pos":-1,"motif":"","motif_pos":-1,"best_pos":6,"similarity":0.179},{"voice":2,"pitch":69,"start":191.625,"duration":0.0625,"velocity":70,"measure":96,"beat":4.25,"subject_pos":-1,"motif":"","motif_pos":-1,"best_pos":0,"similarity":0.286},{"voice":6,"pitch":80,"start":191.625,"duration":0.125,"velocity":90,"measure":96,"beat":4.25,"subject_pos":-1,"motif":"","motif_pos":-1,"best_pos":5,"similarity":0.55},{"voice":2,"pitch":74,"start":191.6875,"duration":0.0625,"velocity":70,"measure":96,"beat":4.375,"subject_pos":-1,"motif":"","motif_pos":-1,"best_pos":1,"similarity":0.286},{"voice":2,"pitch":77,"start":191.75,"duration":0.0625,"velocity":70,"measure":96,"beat":4.5,"subject_pos":-1,"motif":"","motif_pos":-1,"best_pos":6,"similarity":0.186},{"voice":6,"pitch":82,"start":191.75,"duration":0.125,"velocity":110,"measure":96,"beat":4.5,"subject_pos":-1,"motif":"","motif_pos":-1,"best_pos":6,"similarity":0.421},{"voice":2,"pitch":81,"start":191.8125,"duration":0.0625,"velocity":70,"measure":96,"beat":4.625,"subject_pos":-1,"motif":"","motif_pos":-1,"best_pos":0,"similarity":0.286},{"voice":2,"pitch":86,"start":191.875,"duration":0.0625,"velocity":70,"measure":96,"beat":4.75,"subject_pos":-1,"motif":"","motif_pos":-1,"best_pos":1,"similarity":0.286},{"voice":6,"pitch":80,"start":191.875,"duration":0.125,"velocity":90,"measure":96,"beat":4.75,"subject_pos":-1,"motif":"","motif_pos":-1,"best_pos":2,"similarity":0.436},{"voice":2,"pitch":89,"start":191.9375,"duration":0.0625,"velocity":70,"measure":96,"beat":4.875,"subject_pos":-1,"motif":"","motif_pos":-1,"best_pos":6,"similarity":0.157},{"voice":0,"pitch":62,"start":192.0,"duration":1.0,"velocity":70,"measure":97,"beat":1.0,"subject_pos":0,"motif":"subject","motif_pos":0,"best_pos":0,"similarity":1.0},{"voice":1,"pitch":62,"start":192.0,"duration":16.0,"velocity":35,"measure":97,"beat":1.0,"subject_pos":-1,"motif":"","motif_pos":-1,"best_pos":5,"similarity":0.157},{"voice":1,"pitch":65,"start":192.0,"duration":16.0,"velocity":35,"measure":97,"beat":1.0,"subject_pos":-1,"motif":"","motif_pos":-1,"best_pos":6,"similarity":0.171},{"voice":1,"pitch":69,"start":192.0,"duration":16.0,"velocity":35,"measure":97,"beat":1.0,"subject_pos":-1,"motif":"","motif_pos":-1,"best_pos":0,"similarity":0.286},{"voice":1,"pitch":74,"start":192.0,"duration":16.0,"velocity":25,"measure":97,"beat":1.0,"subject_pos":-1,"motif":"","motif_pos":-1,"best_pos":1,"similarity":0.286},{"voice":1,"pitch":77,"start":192.0,"duration":16.0,"velocity":25,"measure":97,"beat":1.0,"subject_pos":-1,"motif":"","motif_pos":-1,"best_pos":6,"similarity":0.186},{"voice":1,"pitch":81,"start":192.0,"duration":16.0,"velocity":25,"measure":97,"beat":1.0,"subject_pos":-1,"motif":"","motif_pos":-1,"best_pos":1,"similarity":0.143},{"voice":3,"pitch":38,"start":192.0,"duration":8.0,"velocity":60,"measure":97,"beat":1.0,"subject_pos":-1,"motif":"","motif_pos":-1,"best_pos":6,"similarity":0.436},{"voice":6,"pitch":80,"start":192.0,"duration":0.5,"velocity":40,"measure":97,"beat":1.0,"subject_pos":-1,"motif":"","motif_pos":-1,"best_pos":4,"similarity":0.436},{"voice":7,"pitch":36,"start":192.0,"duration":0.25,"velocity":80,"measure":97,"beat":1.0,"subject_pos":-1,"motif":"","motif_pos":-1,"best_pos":4,"similarity":0.389},{"voice":6,"pitch":80,"start":192.5,"duration":0.5,"velocity":40,"measure":97,"beat":2.0,"subject_pos":-1,"motif":"","motif_pos":-1,"best_pos":4,"similarity":0.443},{"voice":0,"pitch":69,"start":193.0,"duration":1.0,"velocity":70,"measure":97,"beat":3.0,"subject_pos":1,"motif":"subject","motif_pos":1,"best_pos":1,"similarity":1.0},{"voice":6,"pitch":80,"start":193.0,"duration":0.5,"velocity":40,"measure":97,"beat":3.0,"subject_pos":-1,"motif":"","motif_pos":-1,"best_pos":4,"similarity":0.389},{"voice":7,"pitch":36,"start":193.0,"duration":0.25,"velocity":60,"measure":97,"beat":3.0,"subject_pos":-1,"motif":"","motif_pos":-1,"best_pos":4,"similarity":0.389},{"voice":6,"pitch":80,"start":193.5,"duration":0.5,"velocity":40,"measure":97,"beat":4.0,"subject_pos":-1,"motif":"","motif_pos":-1,"best_pos":4,"similarity":0.389},{"voice":0,"pitch":65,"start":194.0,"duration":1.0,"velocity":70,"measure":98,"beat":1.0,"subject_pos":2,"motif":"subject","motif_pos":2,"best_pos":2,"similarity":1.0},{"voice":6,"pitch":80,"start":194.0,"duration":0.5,"velocity":30,"measure":98,"beat":1.0,"subject_pos":-1,"motif":"","motif_pos":-1,"best_pos":4,"similarity":0.389},{"voice":7,"pitch":36,"start":194.0,"duration":0.25,"velocity":70,"measure":98,"beat":1.0,"subject_pos":-1,"motif":"","motif_pos":-1,"best_pos":4,"similarity":0.389},{"voice":6,"pitch":80,"start":194.5,"duration":0.5,"velocity":30,"measure":98,"beat":2.0,"subject_pos":-1,"motif":"","motif_pos":-1,"best_pos":4,"similarity":0.389},{"voice":0,"pitch":62,"start":195.0,"duration":1.0,"velocity":70,"measure":98,"beat":3.0,"subject_pos":3,"motif":"subject","motif_pos":3,"best_pos":3,"similarity":1.0},{"voice":6,"pitch":80,"start":195.0,"duration":0.5,"velocity":30,"measure":98,"beat":3.0,"subject_pos":-1,"motif":"","motif_pos":-1,"best_pos":4,"similarity":0.389},{"voice":7,"pitch":36,"start":195.0,"duration":0.25,"velocity":52,"measure":98,"beat":3.0,"subject_pos":-1,"motif":"","motif_pos":-1,"best_pos":4,"similarity":0.389},{"voice":6,"pitch":80,"start":195.5,"duration":0.5,"velocity":30,"measure":98,"beat":4.0,"subject_pos":-1,"motif":"","motif_pos":-1,"best_pos":4,"similarity":0.389},{"voice":0,"pitch":61,"start":196.0,"duration":1.0,"velocity":70,"measure":99,"beat":1.0,"subject_pos":4,"motif":"subject","motif_pos":4,"best_pos":4,"similarity":1.0},{"voice":6,"pitch":80,"start":196.0,"duration":0.5,"velocity":20,"measure":99,"beat":1.0,"subject_pos":-1,"motif":"","motif_pos":-1,"best_pos":4,"similarity":0.389},{"voice":7,"pitch":36,"start":196.0,"duration":0.25,"velocity":60,"measure":99,"beat":1.0,"subject_pos":-1,"motif":"","motif_pos":-1,"best_pos":4,"similarity":0.389},{"voice":10,"pitch":50,"start":196.0,"duration":1.0,"velocity":45,"measure":99,"beat":1.0,"subject_pos":0,"motif":"subject","motif_pos":0,"best_pos":0,"similarity":1.0},{"voice":6,"pitch":80,"start":196.5,"duration":0.5,"velocity":20,"measure":99,"beat":2.0,"subject_pos":-1,"motif":"","motif_pos":-1,"best_pos":4,"similarity":0.389},{"voice":0,"pitch":62,"start":197.0,"duration":0.5,"velocity":70,"measure":99,"beat":3.0,"subject_pos":5,"motif":"subject","motif_pos":5,"best_pos":5,"similarity":1.0},{"voice":6,"pitch":80,"start":197.0,"duration":0.5,"velocity":20,"measure":99,"beat":3.0,"subject_pos":-1,"motif":"","motif_pos":-1,"best_pos":4,"similarity":0.389},{"voice":7,"pitch":36,"start":197.0,"duration":0.25,"velocity":45,"measure":99,"beat":3.0,"subject_pos":-1,"motif":"","motif_pos":-1,"best_pos":4,"similarity":0.389},{"voice":10,"pitch":57,"start":197.0,"duration":1.0,"velocity":45,"measure":99,"beat":3.0,"subject_pos":1,"motif":"subject","motif_pos":1,"best_pos":1,"similarity":1.0},{"voice":0,"pitch":64,"start":197.5,"duration":0.5,"velocity":70,"measure":99,"beat":4.0,"subject_pos":6,"motif":"subject","motif_pos":6,"best_pos":6,"similarity":1.0},{"voice":6,"pitch":80,"start":197.5,"duration":0.5,"velocity":20,"measure":99,"beat":4.0,"subject_pos":-1,"motif":"","motif_pos":-1,"best_pos":4,"similarity":0.389},{"voice":0,"pitch":65,"start":198.0,"duration":1.0,"velocity":70,"measure":100,"beat":1.0,"subject_pos":7,"motif":"subject","motif_pos":7,"best_pos":7,"similarity":1.0},{"voice":6,"pitch":80,"start":198.0,"duration":0.5,"velocity":10,"measure":100,"beat":1.0,"subject_pos":-1,"motif":"","motif_pos":-1,"best_pos":4,"similarity":0.389},{"voice":7,"pitch":36,"start":198.0,"duration":0.25,"velocity":50,"measure":100,"beat":1.0,"subject_pos":-1,"motif":"","motif_pos":-1,"best_pos":4,"similarity":0.389},{"voice":10,"pitch":53,"start":198.0,"duration":1.0,"velocity":45,"measure":100,"beat":1.0,"subject_pos":2,"motif":"subject","motif_pos":2,"best_pos":2,"similarity":1.0},{"voice":6,"pitch":80,"start":198.5,"duration":0.5,"velocity":10,"measure":100,"beat":2.0,"subject_pos":-1,"motif":"","motif_pos":-1,"best_pos":5,"similarity":0.364},{"voice":0,"pitch":62,"start":199.0,"duration":2.0,"velocity":50,"measure":100,"beat":3.0,"subject_pos":0,"motif":"subject","motif_pos":0,"best_pos":0,"similarity":1.0},{"voice":6,"pitch":80,"start":199.0,"duration":0.5,"velocity":10,"measure":100,"beat":3.0,"subject_pos":-1,"motif":"","motif_pos":-1,"best_pos":6,"similarity":0.321},{"voice":7,"pitch":36,"start":199.0,"duration":0.25,"velocity":37,"measure":100,"beat":3.0,"subject_pos":-1,"motif":"","motif_pos":-1,"best_pos":4,"similarity":0.389},{"voice":10,"pitch":50,"start":199.0,"duration":1.0,"velocity":45,"measure":100,"beat":3.0,"subject_pos":3,"motif":"subject","motif_pos":3,"best_pos":3,"similarity":1.0},{"voice":6,"pitch":80,"start":199.5,"duration":0.5,"velocity":10,"measure":100,"beat":4.0,"subject_pos":-1,"motif":"","motif_pos":-1,"best_pos":5,"similarity":0.221},{"voice":3,"pitch":26,"start":200.0,"duration":8.0,"velocity":40,"measure":101,"beat":1.0,"subject_pos":-1,"motif":"","motif_pos":-1,"best_pos":7,"similarity":0.214},{"voice":7,"pitch":36,"start":200.0,"duration":0.25,"velocity":40,"measure":101,"beat":1.0,"subject_pos":-1,"motif":"","motif_pos":-1,"best_pos":4,"similarity":0.389},{"voice":10,"pitch":49,"start":200.0,"duration":1.0,"velocity":45,"measure":101,"beat":1.0,"subject_pos":4,"motif":"subject","motif_pos":4,"best_pos":4,"similarity":1.0},{"voice":0,"pitch":69,"start":201.0,"duration":2.0,"velocity":50,"measure":101,"beat":3.0,"subject_pos":1,"motif":"subject","motif_pos":1,"best_pos":1,"similarity":1.0},{"voice":7,"pitch":36,"start":201.0,"duration":0.25,"velocity":30,"measure":101,"beat":3.0,"subject_pos":-1,"motif":"","motif_pos":-1,"best_pos":4,"similarity":0.389},{"voice":10,"pitch":50,"start":201.0,"duration":0.5,"velocity":45,"measure":101,"beat":3.0,"subject_pos":5,"motif":"subject","motif_pos":5,"best_pos":5,"similarity":1.0},{"voice":10,"pitch":52,"start":201.5,"duration":0.5,"velocity":45,"measure":101,"beat":4.0,"subject_pos":6,"motif":"subject","motif_pos":6,"best_pos":6,"similarity":1.0},{"voice":7,"pitch":36,"start":202.0,"duration":0.25,"velocity":30,"measure":102,"beat":1.0,"subject_pos":-1,"motif":"","motif_pos":-1,"best_pos":4,"similarity":0.389},{"voice":10,"pitch":53,"start":202.0,"duration":1.0,"velocity":45,"measure":102,"beat":1.0,"subject_pos":7,"motif":"subject","motif_pos":7,"best_pos":7,"similarity":1.0},{"voice":0,"pitch":65,"start":203.0,"duration":2.0,"velocity":50,"measure":102,"beat":3.0,"subject_pos":2,"motif":"subject","motif_pos":2,"best_pos":2,"similarity":1.0},{"voice":7,"pitch":36,"start":203.0,"duration":0.25,"velocity":22,"measure":102,"beat":3.0,"subject_pos":-1,"motif":"","motif_pos":-1,"best_pos":4,"similarity":0.389},{"voice":7,"pitch":36,"start":204.0,"duration":0.25,"velocity":20,"measure":103,"beat":1.0,"subject_pos":-1,"motif":"","motif_pos":-1,"best_pos":4,"similarity":0.389},{"voice":0,"pitch":62,"start":205.0,"duration":2.0,"velocity":50,"measure":103,"beat":3.0,"subject_pos":3,"motif":"subject","motif_pos":3,"best_pos":3,"similarity":1.0},{"voice":7,"pitch":36,"start":205.0,"duration":0.25,"velocity":15,"measure":103,"beat":3.0,"subject_pos":-1,"motif":"","motif_pos":-1,"best_pos":5,"similarity":0.364},{"voice":7,"pitch":36,"start":206.0,"duration":0.25,"velocity":10,"measure":104,"beat":1.0,"subject_pos":-1,"motif":"","motif_pos":-1,"best_pos":6,"similarity":0.321},{"voice":0,"pitch":61,"start":207.0,"duration":2.0,"velocity":50,"measure":104,"beat":3.0,"subject_pos":4,"motif":"subject","motif_pos":4,"best_pos":4,"similarity":1.0},{"voice":7,"pitch":36,"start":207.0,"duration":0.25,"velocity":7,"measure":104,"beat":3.0,"subject_pos":-1,"motif":"","motif_pos":-1,"best_pos":5,"similarity":0.221},{"voice":0,"pitch":62,"start":209.0,"duration":1.0,"velocity":50,"measure":105,"beat":3.0,"subject_pos":5,"motif":"subject","motif_pos":5,"best_pos":5,"similarity":1.0},{"voice":0,"pitch":64,"start":210.0,"duration":1.0,"velocity":50,"measure":106,"beat":1.0,"subject_pos":6,"motif":"subject","motif_pos":6,"best_pos":6,"similarity":1.0},{"voice":0,"pitch":65,"start":211.0,"duration":2.0,"velocity":50,"measure":106,"beat":3.0,"subject_pos":7,"motif":"subject","motif_pos":7,"best_pos":7,"similarity":1.0}]}