{"metadata":{"title":"The Art of the Fugue, Contrapunctus XII","number":"XII","composer":"J.S. Bach","source_midi":"kunst_der_fuge_xii_mutopia.mid","tempo_bpm":120.0,"tempo_us_per_beat":500000,"ticks_per_beat":384,"time_signature":"4/4","key_signature":"D minor","total_duration_seconds":267.9997,"total_measures":101,"beats_per_measure":4},"voices":[{"id":0,"name":"Upper","midi_channel":0,"midi_track":1,"color":"#E85D4A","pitch_min":38,"pitch_max":82,"note_count":1166},{"id":1,"name":"Lower","midi_channel":1,"midi_track":2,"color":"#4A90D9","pitch_min":40,"pitch_max":70,"note_count":1138}],"notes":[{"voice":0,"pitch":69,"start":0.0,"duration":0.5,"velocity":127,"measure":1,"beat":1.0,"subject_pos":-1,"motif":"","motif_pos":-1,"best_pos":2,"similarity":0.243,"stretto":false,"stretto_voices":0,"combination":[],"aug_dim":"","rhythm_ratio":1.0,"chromatic_density":0.385},{"voice":0,"pitch":62,"start":0.5,"duration":0.1667,"velocity":127,"measure":1,"beat":1.75,"subject_pos":-1,"motif":"","motif_pos":-1,"best_pos":3,"similarity":0.529,"stretto":false,"stretto_voices":0,"combination":[],"aug_dim":"","rhythm_ratio":1.0,"chromatic_density":0.385},{"voice":0,"pitch":61,"start":0.6667,"duration":0.1667,"velocity":127,"measure":1,"beat":2.0,"subject_pos":-1,"motif":"","motif_pos":-1,"best_pos":4,"similarity":0.736,"stretto":false,"stretto_voices":0,"combination":[],"aug_dim":"","rhythm_ratio":1.0,"chromatic_density":0.385},{"voice":0,"pitch":62,"start":0.8333,"duration":0.1667,"velocity":127,"measure":1,"beat":2.25,"subject_pos":-1,"motif":"","motif_pos":-1,"best_pos":5,"similarity":0.736,"stretto":false,"stretto_voices":0,"combination":[],"aug_dim":"","rhythm_ratio":1.0,"chromatic_density":0.385},{"voice":0,"pitch":64,"start":1.0,"duration":0.1667,"velocity":127,"measure":1,"beat":2.5,"subject_pos":-1,"motif":"","motif_pos":-1,"best_pos":6,"similarity":0.529,"stretto":false,"stretto_voices":0,"combination":[],"aug_dim":"","rhythm_ratio":1.0,"chromatic_density":0.385},{"voice":0,"pitch":62,"start":1.1667,"duration":0.1667,"velocity":127,"measure":1,"beat":2.75,"subject_pos":-1,"motif":"","motif_pos":-1,"best_pos":5,"similarity":0.479,"stretto":false,"stretto_voices":0,"combination":[],"aug_dim":"","rhythm_ratio":1.0,"chromatic_density":0.385},{"voice":0,"pitch":64,"start":1.3333,"duration":0.1667,"velocity":127,"measure":1,"beat":3.0,"subject_pos":-1,"motif":"","motif_pos":-1,"best_pos":6,"similarity":0.593,"stretto":false,"stretto_voices":0,"combination":[],"aug_dim":"","rhythm_ratio":1.0,"chromatic_density":0.385},{"voice":0,"pitch":65,"start":1.5,"duration":0.1667,"velocity":127,"measure":1,"beat":3.25,"subject_pos":-1,"motif":"","motif_pos":-1,"best_pos":3,"similarity":0.543,"stretto":false,"stretto_voices":0,"combination":[],"aug_dim":"","rhythm_ratio":1.0,"chromatic_density":0.385},{"voice":0,"pitch":64,"start":1.6667,"duration":0.1667,"velocity":127,"measure":1,"beat":3.5,"subject_pos":-1,"motif":"","motif_pos":-1,"best_pos":4,"similarity":0.743,"stretto":false,"stretto_voices":0,"combination":[],"aug_dim":"","rhythm_ratio":1.0,"chromatic_density":0.385},{"voice":0,"pitch":65,"start":1.8333,"duration":0.1667,"velocity":127,"measure":1,"beat":3.75,"subject_pos":-1,"motif":"","motif_pos":-1,"best_pos":5,"similarity":0.736,"stretto":false,"stretto_voices":0,"combination":[],"aug_dim":"","rhythm_ratio":1.0,"chromatic_density":0.385},{"voice":0,"pitch":67,"start":2.0,"duration":0.1667,"velocity":127,"measure":1,"beat":4.0,"subject_pos":-1,"motif":"","motif_pos":-1,"best_pos":6,"similarity":0.529,"stretto":false,"stretto_voices":0,"combination":[],"aug_dim":"","rhythm_ratio":1.0,"chromatic_density":0.385},{"voice":0,"pitch":65,"start":2.1667,"duration":0.1667,"velocity":127,"measure":1,"beat":4.25,"subject_pos":-1,"motif":"","motif_pos":-1,"best_pos":4,"similarity":0.443,"stretto":false,"stretto_voices":0,"combination":[],"aug_dim":"","rhythm_ratio":1.0,"chromatic_density":0.385},{"voice":0,"pitch":67,"start":2.3333,"duration":0.1667,"velocity":127,"measure":1,"beat":4.5,"subject_pos":-1,"motif":"","motif_pos":-1,"best_pos":5,"similarity":0.514,"stretto":false,"stretto_voices":0,"combination":[],"aug_dim":"","rhythm_ratio":1.0,"chromatic_density":0.385},{"voice":0,"pitch":69,"start":2.5,"duration":0.1667,"velocity":127,"measure":1,"beat":4.75,"subject_pos":-1,"motif":"","motif_pos":-1,"best_pos":6,"similarity":0.421,"stretto":false,"stretto_voices":0,"combination":[],"aug_dim":"","rhythm_ratio":1.0,"chromatic_density":0.385},{"voice":0,"pitch":67,"start":2.6667,"duration":0.1667,"velocity":127,"measure":2,"beat":1.0,"subject_pos":-1,"motif":"","motif_pos":-1,"best_pos":5,"similarity":0.471,"stretto":false,"stretto_voices":0,"combination":[],"aug_dim":"","rhythm_ratio":1.0,"chromatic_density":0.4},{"voice":0,"pitch":69,"start":2.8333,"duration":0.1667,"velocity":127,"measure":2,"beat":1.25,"subject_pos":-1,"motif":"","motif_pos":-1,"best_pos":6,"similarity":0.593,"stretto":false,"stretto_voices":0,"combination":[],"aug_dim":"","rhythm_ratio":1.0,"chromatic_density":0.4},{"voice":0,"pitch":70,"start":3.0,"duration":0.3333,"velocity":127,"measure":2,"beat":1.5,"subject_pos":-1,"motif":"","motif_pos":-1,"best_pos":7,"similarity":0.436,"stretto":false,"stretto_voices":0,"combination":[],"aug_dim":"","rhythm_ratio":1.0,"chromatic_density":0.4},{"voice":0,"pitch":69,"start":3.5,"duration":0.3333,"velocity":127,"measure":2,"beat":2.25,"subject_pos":-1,"motif":"","motif_pos":-1,"best_pos":2,"similarity":0.379,"stretto":false,"stretto_voices":0,"combination":[],"aug_dim":"","rhythm_ratio":1.0,"chromatic_density":0.4},{"voice":0,"pitch":67,"start":4.0,"duration":0.3333,"velocity":127,"measure":2,"beat":3.0,"subject_pos":-1,"motif":"","motif_pos":-1,"best_pos":2,"similarity":0.404,"stretto":false,"stretto_voices":0,"combination":[],"aug_dim":"","rhythm_ratio":1.0,"chromatic_density":0.4},{"voice":0,"pitch":67,"start":4.4132,"duration":0.3333,"velocity":127,"measure":2,"beat":3.6198,"subject_pos":-1,"motif":"","motif_pos":-1,"best_pos":2,"similarity":0.429,"stretto":false,"stretto_voices":0,"combination":[],"aug_dim":"","rhythm_ratio":1.0,"chromatic_density":0.4},{"voice":0,"pitch":65,"start":4.5,"duration":0.8333,"velocity":127,"measure":2,"beat":3.75,"subject_pos":-1,"motif":"","motif_pos":-1,"best_pos":3,"similarity":0.679,"stretto":false,"stretto_voices":0,"combination":[],"aug_dim":"","rhythm_ratio":1.0,"chromatic_density":0.4},{"voice":0,"pitch":64,"start":5.3333,"duration":0.1667,"velocity":127,"measure":3,"beat":1.0,"subject_pos":-1,"motif":"","motif_pos":-1,"best_pos":4,"similarity":0.839,"stretto":false,"stretto_voices":0,"combination":[],"aug_dim":"","rhythm_ratio":1.0,"chromatic_density":0.316},{"voice":0,"pitch":65,"start":5.5,"duration":0.3333,"velocity":127,"measure":3,"beat":1.25,"subject_pos":-1,"motif":"","motif_pos":-1,"best_pos":5,"similarity":0.821,"stretto":false,"stretto_voices":0,"combination":[],"aug_dim":"","rhythm_ratio":1.0,"chromatic_density":0.316},{"voice":0,"pitch":67,"start":5.8333,"duration":0.1667,"velocity":127,"measure":3,"beat":1.75,"subject_pos":-1,"motif":"","motif_pos":-1,"best_pos":6,"similarity":0.643,"stretto":false,"stretto_voices":0,"combination":[],"aug_dim":"","rhythm_ratio":1.0,"chromatic_density":0.316},{"voice":0,"pitch":69,"start":6.0,"duration":0.3333,"velocity":127,"measure":3,"beat":2.0,"subject_pos":-1,"motif":"","motif_pos":-1,"best_pos":6,"similarity":0.375,"stretto":false,"stretto_voices":0,"combination":[],"aug_dim":"","rhythm_ratio":1.0,"chromatic_density":0.316},{"voice":1,"pitch":57,"start":6.0,"duration":0.5,"velocity":127,"measure":3,"beat":2.0,"subject_pos":-1,"motif":"","motif_pos":-1,"best_pos":2,"similarity":0.243,"stretto":false,"stretto_voices":0,"combination":[],"aug_dim":"","rhythm_ratio":1.0,"chromatic_density":0.316},{"voice":0,"pitch":79,"start":6.3333,"duration":0.1667,"velocity":127,"measure":3,"beat":2.5,"subject_pos":-1,"motif":"","motif_pos":-1,"best_pos":1,"similarity":0.35,"stretto":false,"stretto_voices":0,"combination":[],"aug_dim":"","rhythm_ratio":1.0,"chromatic_density":0.316},{"voice":0,"pitch":77,"start":6.5,"duration":0.3333,"velocity":127,"measure":3,"beat":2.75,"subject_pos":-1,"motif":"","motif_pos":-1,"best_pos":2,"similarity":0.371,"stretto":false,"stretto_voices":0,"combination":[],"aug_dim":"","rhythm_ratio":1.0,"chromatic_density":0.316},{"voice":1,"pitch":50,"start":6.5,"duration":0.1667,"velocity":127,"measure":3,"beat":2.75,"subject_pos":-1,"motif":"","motif_pos":-1,"best_pos":3,"similarity":0.529,"stretto":false,"stretto_voices":0,"combination":[],"aug_dim":"","rhythm_ratio":1.0,"chromatic_density":0.316},{"voice":1,"pitch":49,"start":6.6667,"duration":0.1667,"velocity":127,"measure":3,"beat":3.0,"subject_pos":-1,"motif":"","motif_pos":-1,"best_pos":4,"similarity":0.736,"stretto":false,"stretto_voices":0,"combination":[],"aug_dim":"","rhythm_ratio":1.0,"chromatic_density":0.316},{"voice":0,"pitch":69,"start":6.8333,"duration":0.1667,"velocity":127,"measure":3,"beat":3.25,"subject_pos":-1,"motif":"","motif_pos":-1,"best_pos":1,"similarity":0.321,"stretto":false,"stretto_voices":0,"combination":[],"aug_dim":"","rhythm_ratio":1.0,"chromatic_density":0.316},{"voice":1,"pitch":50,"start":6.8333,"duration":0.1667,"velocity":127,"measure":3,"beat":3.25,"subject_pos":-1,"motif":"","motif_pos":-1,"best_pos":5,"similarity":0.736,"stretto":false,"stretto_voices":0,"combination":[],"aug_dim":"","rhythm_ratio":1.0,"chromatic_density":0.316},{"voice":0,"pitch":67,"start":7.0,"duration":0.3333,"velocity":127,"measure":3,"beat":3.5,"subject_pos":-1,"motif":"","motif_pos":-1,"best_pos":2,"similarity":0.357,"stretto":false,"stretto_voices":0,"combination":[],"aug_dim":"","rhythm_ratio":1.0,"chromatic_density":0.316},{"voice":1,"pitch":52,"start":7.0,"duration":0.1667,"velocity":127,"measure":3,"beat":3.5,"subject_pos":-1,"motif":"","motif_pos":-1,"best_pos":6,"similarity":0.529,"stretto":false,"stretto_voices":0,"combination":[],"aug_dim":"","rhythm_ratio":1.0,"chromatic_density":0.316},{"voice":1,"pitch":50,"start":7.1667,"duration":0.1667,"velocity":127,"measure":3,"beat":3.75,"subject_pos":-1,"motif":"","motif_pos":-1,"best_pos":5,"similarity":0.479,"stretto":false,"stretto_voices":0,"combination":[],"aug_dim":"","rhythm_ratio":1.0,"chromatic_density":0.316},{"voice":0,"pitch":76,"start":7.3333,"duration":0.1667,"velocity":127,"measure":3,"beat":4.0,"subject_pos":-1,"motif":"","motif_pos":-1,"best_pos":1,"similarity":0.429,"stretto":false,"stretto_voices":0,"combination":[],"aug_dim":"","rhythm_ratio":1.0,"chromatic_density":0.316},{"voice":1,"pitch":52,"start":7.3333,"duration":0.1667,"velocity":127,"measure":3,"beat":4.0,"subject_pos":-1,"motif":"","motif_pos":-1,"best_pos":6,"similarity":0.593,"stretto":false,"stretto_voices":0,"combination":[],"aug_dim":"","rhythm_ratio":1.0,"chromatic_density":0.316},{"voice":0,"pitch":74,"start":7.5,"duration":0.3333,"velocity":127,"measure":3,"beat":4.25,"subject_pos":-1,"motif":"","motif_pos":-1,"best_pos":2,"similarity":0.464,"stretto":false,"stretto_voices":0,"combination":[],"aug_dim":"","rhythm_ratio":1.0,"chromatic_density":0.316},{"voice":1,"pitch":53,"start":7.5,"duration":0.1667,"velocity":127,"measure":3,"beat":4.25,"subject_pos":-1,"motif":"","motif_pos":-1,"best_pos":3,"similarity":0.543,"stretto":false,"stretto_voices":0,"combination":[],"aug_dim":"","rhythm_ratio":1.0,"chromatic_density":0.316},{"voice":1,"pitch":52,"start":7.6667,"duration":0.1667,"velocity":127,"measure":3,"beat":4.5,"subject_pos":-1,"motif":"","motif_pos":-1,"best_pos":4,"similarity":0.743,"stretto":false,"stretto_voices":0,"combination":[],"aug_dim":"","rhythm_ratio":1.0,"chromatic_density":0.316},{"voice":0,"pitch":65,"start":7.8333,"duration":0.1667,"velocity":127,"measure":3,"beat":4.75,"subject_pos":-1,"motif":"","motif_pos":-1,"best_pos":3,"similarity":0.454,"stretto":false,"stretto_voices":0,"combination":[],"aug_dim":"","rhythm_ratio":1.0,"chromatic_density":0.316},{"voice":1,"pitch":53,"start":7.8333,"duration":0.1667,"velocity":127,"measure":3,"beat":4.75,"subject_pos":-1,"motif":"","motif_pos":-1,"best_pos":5,"similarity":0.736,"stretto":false,"stretto_voices":0,"combination":[],"aug_dim":"","rhythm_ratio":1.0,"chromatic_density":0.316},{"voice":0,"pitch":64,"start":8.0,"duration":0.3333,"velocity":127,"measure":4,"beat":1.0,"subject_pos":-1,"motif":"","motif_pos":-1,"best_pos":4,"similarity":0.371,"stretto":false,"stretto_voices":0,"combination":[],"aug_dim":"","rhythm_ratio":1.0,"chromatic_density":0.35},{"voice":1,"pitch":55,"start":8.0,"duration":0.1667,"velocity":127,"measure":4,"beat":1.0,"subject_pos":-1,"motif":"","motif_pos":-1,"best_pos":6,"similarity":0.529,"stretto":false,"stretto_voices":0,"combination":[],"aug_dim":"","rhythm_ratio":1.0,"chromatic_density":0.35},{"voice":1,"pitch":53,"start":8.1667,"duration":0.1667,"velocity":127,"measure":4,"beat":1.25,"subject_pos":-1,"motif":"","motif_pos":-1,"best_pos":4,"similarity":0.443,"stretto":false,"stretto_voices":0,"combination":[],"aug_dim":"","rhythm_ratio":1.0,"chromatic_density":0.35},{"voice":0,"pitch":74,"start":8.3333,"duration":0.1667,"velocity":127,"measure":4,"beat":1.5,"subject_pos":-1,"motif":"","motif_pos":-1,"best_pos":3,"similarity":0.375,"stretto":false,"stretto_voices":0,"combination":[],"aug_dim":"","rhythm_ratio":1.0,"chromatic_density":0.35},{"voice":1,"pitch":55,"start":8.3333,"duration":0.1667,"velocity":127,"measure":4,"beat":1.5,"subject_pos":-1,"motif":"","motif_pos":-1,"best_pos":5,"similarity":0.514,"stretto":false,"stretto_voices":0,"combination":[],"aug_dim":"","rhythm_ratio":1.0,"chromatic_density":0.35},{"voice":0,"pitch":73,"start":8.5,"duration":0.3333,"velocity":127,"measure":4,"beat":1.75,"subject_pos":-1,"motif":"","motif_pos":-1,"best_pos":4,"similarity":0.364,"stretto":false,"stretto_voices":0,"combination":[],"aug_dim":"","rhythm_ratio":1.0,"chromatic_density":0.35},{"voice":1,"pitch":57,"start":8.5,"duration":0.1667,"velocity":127,"measure":4,"beat":1.75,"subject_pos":-1,"motif":"","motif_pos":-1,"best_pos":6,"similarity":0.421,"stretto":false,"stretto_voices":0,"combination":[],"aug_dim":"","rhythm_ratio":1.0,"chromatic_density":0.35},{"voice":1,"pitch":55,"start":8.6667,"duration":0.1667,"velocity":127,"measure":4,"beat":2.0,"subject_pos":-1,"motif":"","motif_pos":-1,"best_pos":5,"similarity":0.471,"stretto":false,"stretto_voices":0,"combination":[],"aug_dim":"","rhythm_ratio":1.0,"chromatic_density":0.35},{"voice":0,"pitch":64,"start":8.8333,"duration":0.1667,"velocity":127,"measure":4,"beat":2.25,"subject_pos":-1,"motif":"","motif_pos":-1,"best_pos":3,"similarity":0.243,"stretto":false,"stretto_voices":0,"combination":[],"aug_dim":"","rhythm_ratio":1.0,"chromatic_density":0.35},{"voice":1,"pitch":57,"start":8.8333,"duration":0.1667,"velocity":127,"measure":4,"beat":2.25,"subject_pos":-1,"motif":"","motif_pos":-1,"best_pos":6,"similarity":0.593,"stretto":false,"stretto_voices":0,"combination":[],"aug_dim":"","rhythm_ratio":1.0,"chromatic_density":0.35},{"voice":0,"pitch":64,"start":9.0,"duration":0.1667,"velocity":127,"measure":4,"beat":2.5,"subject_pos":-1,"motif":"","motif_pos":-1,"best_pos":2,"similarity":0.429,"stretto":false,"stretto_voices":0,"combination":[],"aug_dim":"","rhythm_ratio":1.0,"chromatic_density":0.35},{"voice":1,"pitch":58,"start":9.0,"duration":0.3333,"velocity":127,"measure":4,"beat":2.5,"subject_pos":-1,"motif":"","motif_pos":-1,"best_pos":7,"similarity":0.436,"stretto":false,"stretto_voices":0,"combination":[],"aug_dim":"","rhythm_ratio":1.0,"chromatic_density":0.35},{"voice":0,"pitch":62,"start":9.1667,"duration":0.1667,"velocity":127,"measure":4,"beat":2.75,"subject_pos":-1,"motif":"tail","motif_pos":3,"best_pos":3,"similarity":1.0,"stretto":false,"stretto_voices":0,"combination":[],"aug_dim":"","rhythm_ratio":1.0,"chromatic_density":0.35},{"voice":0,"pitch":61,"start":9.3333,"duration":0.1667,"velocity":127,"measure":4,"beat":3.0,"subject_pos":-1,"motif":"tail","motif_pos":4,"best_pos":4,"similarity":1.0,"stretto":false,"stretto_voices":0,"combination":[],"aug_dim":"","rhythm_ratio":1.0,"chromatic_density":0.35},{"voice":0,"pitch":62,"start":9.5,"duration":0.1667,"velocity":127,"measure":4,"beat":3.25,"subject_pos":-1,"motif":"tail","motif_pos":5,"best_pos":5,"similarity":1.0,"stretto":false,"stretto_voices":0,"combination":[],"aug_dim":"","rhythm_ratio":1.0,"chromatic_density":0.35},{"voice":1,"pitch":57,"start":9.5,"duration":0.3333,"velocity":127,"measure":4,"beat":3.25,"subject_pos":-1,"motif":"","motif_pos":-1,"best_pos":2,"similarity":0.379,"stretto":false,"stretto_voices":0,"combination":[],"aug_dim":"","rhythm_ratio":1.0,"chromatic_density":0.35},{"voice":0,"pitch":64,"start":9.6667,"duration":0.1667,"velocity":127,"measure":4,"beat":3.5,"subject_pos":-1,"motif":"tail","motif_pos":6,"best_pos":6,"similarity":1.0,"stretto":false,"stretto_voices":0,"combination":[],"aug_dim":"","rhythm_ratio":1.0,"chromatic_density":0.35},{"voice":0,"pitch":65,"start":9.8333,"duration":0.1667,"velocity":127,"measure":4,"beat":3.75,"subject_pos":-1,"motif":"tail","motif_pos":7,"best_pos":7,"similarity":1.0,"stretto":false,"stretto_voices":0,"combination":[],"aug_dim":"","rhythm_ratio":1.0,"chromatic_density":0.35},{"voice":0,"pitch":67,"start":10.0,"duration":0.1667,"velocity":127,"measure":4,"beat":4.0,"subject_pos":-1,"motif":"","motif_pos":-1,"best_pos":5,"similarity":0.607,"stretto":false,"stretto_voices":0,"combination":[],"aug_dim":"","rhythm_ratio":1.0,"chromatic_density":0.35},{"voice":1,"pitch":55,"start":10.0,"duration":0.3333,"velocity":127,"measure":4,"beat":4.0,"subject_pos":-1,"motif":"","motif_pos":-1,"best_pos":2,"similarity":0.404,"stretto":false,"stretto_voices":0,"combination":[],"aug_dim":"","rhythm_ratio":1.0,"chromatic_density":0.35},{"voice":0,"pitch":69,"start":10.1667,"duration":0.1667,"velocity":127,"measure":4,"beat":4.25,"subject_pos":-1,"motif":"","motif_pos":-1,"best_pos":6,"similarity":0.661,"stretto":false,"stretto_voices":0,"combination":[],"aug_dim":"","rhythm_ratio":1.0,"chromatic_density":0.35},{"voice":0,"pitch":70,"start":10.3333,"duration":0.1667,"velocity":127,"measure":4,"beat":4.5,"subject_pos":-1,"motif":"","motif_pos":-1,"best_pos":7,"similarity":0.464,"stretto":false,"stretto_voices":0,"combination":[],"aug_dim":"","rhythm_ratio":1.0,"chromatic_density":0.35},{"voice":1,"pitch":55,"start":10.4132,"duration":0.3333,"velocity":127,"measure":4,"beat":4.6198,"subject_pos":-1,"motif":"","motif_pos":-1,"best_pos":2,"similarity":0.429,"stretto":false,"stretto_voices":0,"combination":[],"aug_dim":"","rhythm_ratio":1.0,"chromatic_density":0.35},{"voice":0,"pitch":70,"start":10.5,"duration":0.1667,"velocity":127,"measure":4,"beat":4.75,"subject_pos":-1,"motif":"","motif_pos":-1,"best_pos":3,"similarity":0.421,"stretto":false,"stretto_voices":0,"combination":[],"aug_dim":"","rhythm_ratio":1.0,"chromatic_density":0.35},{"voice":1,"pitch":53,"start":10.5,"duration":0.8333,"velocity":127,"measure":4,"beat":4.75,"subject_pos":-1,"motif":"","motif_pos":-1,"best_pos":3,"similarity":0.679,"stretto":false,"stretto_voices":0,"combination":[],"aug_dim":"","rhythm_ratio":1.0,"chromatic_density":0.35},{"voice":0,"pitch":69,"start":10.6667,"duration":0.1667,"velocity":127,"measure":5,"beat":1.0,"subject_pos":-1,"motif":"","motif_pos":-1,"best_pos":4,"similarity":0.514,"stretto":false,"stretto_voices":0,"combination":[],"aug_dim":"","rhythm_ratio":1.0,"chromatic_density":0.211},{"voice":0,"pitch":67,"start":10.8333,"duration":0.1667,"velocity":127,"measure":5,"beat":1.25,"subject_pos":-1,"motif":"","motif_pos":-1,"best_pos":5,"similarity":0.536,"stretto":false,"stretto_voices":0,"combination":[],"aug_dim":"","rhythm_ratio":1.0,"chromatic_density":0.211},{"voice":0,"pitch":69,"start":11.0,"duration":0.1667,"velocity":127,"measure":5,"beat":1.5,"subject_pos":-1,"motif":"","motif_pos":-1,"best_pos":5,"similarity":0.589,"stretto":false,"stretto_voices":0,"combination":[],"aug_dim":"","rhythm_ratio":1.0,"chromatic_density":0.211},{"voice":0,"pitch":71,"start":11.1667,"duration":0.1667,"velocity":127,"measure":5,"beat":1.75,"subject_pos":-1,"motif":"","motif_pos":-1,"best_pos":5,"similarity":0.621,"stretto":false,"stretto_voices":0,"combination":[],"aug_dim":"","rhythm_ratio":1.0,"chromatic_density":0.211},{"voice":0,"pitch":73,"start":11.3333,"duration":0.1667,"velocity":127,"measure":5,"beat":2.0,"subject_pos":-1,"motif":"","motif_pos":-1,"best_pos":6,"similarity":0.65,"stretto":false,"stretto_voices":0,"combination":[],"aug_dim":"","rhythm_ratio":1.0,"chromatic_density":0.211},{"voice":1,"pitch":52,"start":11.3333,"duration":0.1667,"velocity":127,"measure":5,"beat":2.0,"subject_pos":-1,"motif":"","motif_pos":-1,"best_pos":4,"similarity":0.839,"stretto":false,"stretto_voices":0,"combination":[],"aug_dim":"","rhythm_ratio":1.0,"chromatic_density":0.211},{"voice":0,"pitch":74,"start":11.5,"duration":0.1667,"velocity":127,"measure":5,"beat":2.25,"subject_pos":-1,"motif":"","motif_pos":-1,"best_pos":5,"similarity":0.729,"stretto":false,"stretto_voices":0,"combination":[],"aug_dim":"","rhythm_ratio":1.0,"chromatic_density":0.211},{"voice":1,"pitch":53,"start":11.5,"duration":0.3333,"velocity":127,"measure":5,"beat":2.25,"subject_pos":-1,"motif":"","motif_pos":-1,"best_pos":5,"similarity":0.821,"stretto":false,"stretto_voices":0,"combination":[],"aug_dim":"","rhythm_ratio":1.0,"chromatic_density":0.211},{"voice":0,"pitch":76,"start":11.6667,"duration":0.1667,"velocity":127,"measure":5,"beat":2.5,"subject_pos":-1,"motif":"","motif_pos":-1,"best_pos":6,"similarity":0.721,"stretto":false,"stretto_voices":0,"combination":[],"aug_dim":"","rhythm_ratio":1.0,"chromatic_density":0.211},{"voice":0,"pitch":77,"start":11.8333,"duration":0.1667,"velocity":127,"measure":5,"beat":2.75,"subject_pos":-1,"motif":"","motif_pos":-1,"best_pos":7,"similarity":0.5,"stretto":false,"stretto_voices":0,"combination":[],"aug_dim":"","rhythm_ratio":1.0,"chromatic_density":0.211},{"voice":1,"pitch":55,"start":11.8333,"duration":0.1667,"velocity":127,"measure":5,"beat":2.75,"subject_pos":-1,"motif":"","motif_pos":-1,"best_pos":6,"similarity":0.643,"stretto":false,"stretto_voices":0,"combination":[],"aug_dim":"","rhythm_ratio":1.0,"chromatic_density":0.211},{"voice":0,"pitch":77,"start":12.0,"duration":0.1667,"velocity":127,"measure":5,"beat":3.0,"subject_pos":-1,"motif":"","motif_pos":-1,"best_pos":2,"similarity":0.421,"stretto":false,"stretto_voices":0,"combination":[],"aug_dim":"","rhythm_ratio":1.0,"chromatic_density":0.211},{"voice":1,"pitch":57,"start":12.0,"duration":0.3333,"velocity":127,"measure":5,"beat":3.0,"subject_pos":-1,"motif":"","motif_pos":-1,"best_pos":6,"similarity":0.375,"stretto":false,"stretto_voices":0,"combination":[],"aug_dim":"","rhythm_ratio":1.0,"chromatic_density":0.211},{"voice":0,"pitch":74,"start":12.1667,"duration":0.1667,"velocity":127,"measure":5,"beat":3.25,"subject_pos":-1,"motif":"","motif_pos":-1,"best_pos":5,"similarity":0.464,"stretto":false,"stretto_voices":0,"combination":[],"aug_dim":"","rhythm_ratio":1.0,"chromatic_density":0.211},{"voice":0,"pitch":76,"start":12.3333,"duration":0.1667,"velocity":127,"measure":5,"beat":3.5,"subject_pos":-1,"motif":"","motif_pos":-1,"best_pos":6,"similarity":0.479,"stretto":false,"stretto_voices":0,"combination":[],"aug_dim":"","rhythm_ratio":1.0,"chromatic_density":0.211},{"voice":1,"pitch":67,"start":12.3333,"duration":0.1667,"velocity":127,"measure":5,"beat":3.5,"subject_pos":-1,"motif":"","motif_pos":-1,"best_pos":1,"similarity":0.35,"stretto":false,"stretto_voices":0,"combination":[],"aug_dim":"","rhythm_ratio":1.0,"chromatic_density":0.211},{"voice":0,"pitch":76,"start":12.5,"duration":0.1667,"velocity":127,"measure":5,"beat":3.75,"subject_pos":-1,"motif":"","motif_pos":-1,"best_pos":2,"similarity":0.443,"stretto":false,"stretto_voices":0,"combination":[],"aug_dim":"","rhythm_ratio":1.0,"chromatic_density":0.211},{"voice":1,"pitch":65,"start":12.5,"duration":0.3333,"velocity":127,"measure":5,"beat":3.75,"subject_pos":-1,"motif":"","motif_pos":-1,"best_pos":2,"similarity":0.371,"stretto":false,"stretto_voices":0,"combination":[],"aug_dim":"","rhythm_ratio":1.0,"chromatic_density":0.211},{"voice":0,"pitch":73,"start":12.6667,"duration":0.1667,"velocity":127,"measure":5,"beat":4.0,"subject_pos":-1,"motif":"","motif_pos":-1,"best_pos":3,"similarity":0.471,"stretto":false,"stretto_voices":0,"combination":[],"aug_dim":"","rhythm_ratio":1.0,"chromatic_density":0.211},{"voice":0,"pitch":74,"start":12.8333,"duration":0.1667,"velocity":127,"measure":5,"beat":4.25,"subject_pos":-1,"motif":"","motif_pos":-1,"best_pos":4,"similarity":0.446,"stretto":false,"stretto_voices":0,"combination":[],"aug_dim":"","rhythm_ratio":1.0,"chromatic_density":0.211},{"voice":1,"pitch":57,"start":12.8333,"duration":0.1667,"velocity":127,"measure":5,"beat":4.25,"subject_pos":-1,"motif":"","motif_pos":-1,"best_pos":1,"similarity":0.321,"stretto":false,"stretto_voices":0,"combination":[],"aug_dim":"","rhythm_ratio":1.0,"chromatic_density":0.211},{"voice":0,"pitch":74,"start":13.0,"duration":0.1667,"velocity":127,"measure":5,"beat":4.5,"subject_pos":-1,"motif":"","motif_pos":-1,"best_pos":2,"similarity":0.443,"stretto":false,"stretto_voices":0,"combination":[],"aug_dim":"","rhythm_ratio":1.0,"chromatic_density":0.211},{"voice":1,"pitch":55,"start":13.0,"duration":0.3333,"velocity":127,"measure":5,"beat":4.5,"subject_pos":-1,"motif":"","motif_pos":-1,"best_pos":2,"similarity":0.357,"stretto":false,"stretto_voices":0,"combination":[],"aug_dim":"","rhythm_ratio":1.0,"chromatic_density":0.211},{"voice":0,"pitch":71,"start":13.1667,"duration":0.1667,"velocity":127,"measure":5,"beat":4.75,"subject_pos":-1,"motif":"","motif_pos":-1,"best_pos":3,"similarity":0.471,"stretto":false,"stretto_voices":0,"combination":[],"aug_dim":"","rhythm_ratio":1.0,"chromatic_density":0.211},{"voice":0,"pitch":72,"start":13.3333,"duration":0.1667,"velocity":127,"measure":6,"beat":1.0,"subject_pos":-1,"motif":"","motif_pos":-1,"best_pos":4,"similarity":0.446,"stretto":false,"stretto_voices":0,"combination":[],"aug_dim":"","rhythm_ratio":1.0,"chromatic_density":0.3},{"voice":1,"pitch":64,"start":13.3333,"duration":0.1667,"velocity":127,"measure":6,"beat":1.0,"subject_pos":-1,"motif":"","motif_pos":-1,"best_pos":1,"similarity":0.429,"stretto":false,"stretto_voices":0,"combination":[],"aug_dim":"","rhythm_ratio":1.0,"chromatic_density":0.3},{"voice":0,"pitch":72,"start":13.5,"duration":0.1667,"velocity":127,"measure":6,"beat":1.25,"subject_pos":-1,"motif":"","motif_pos":-1,"best_pos":2,"similarity":0.443,"stretto":false,"stretto_voices":0,"combination":[],"aug_dim":"","rhythm_ratio":1.0,"chromatic_density":0.3},{"voice":1,"pitch":62,"start":13.5,"duration":0.3333,"velocity":127,"measure":6,"beat":1.25,"subject_pos":-1,"motif":"","motif_pos":-1,"best_pos":2,"similarity":0.464,"stretto":false,"stretto_voices":0,"combination":[],"aug_dim":"","rhythm_ratio":1.0,"chromatic_density":0.3},{"voice":0,"pitch":69,"start":13.6667,"duration":0.1667,"velocity":127,"measure":6,"beat":1.5,"subject_pos":-1,"motif":"","motif_pos":-1,"best_pos":3,"similarity":0.471,"stretto":false,"stretto_voices":0,"combination":[],"aug_dim":"","rhythm_ratio":1.0,"chromatic_density":0.3},{"voice":0,"pitch":70,"start":13.8333,"duration":0.1667,"velocity":127,"measure":6,"beat":1.75,"subject_pos":-1,"motif":"","motif_pos":-1,"best_pos":5,"similarity":0.414,"stretto":false,"stretto_voices":0,"combination":[],"aug_dim":"","rhythm_ratio":1.0,"chromatic_density":0.3},{"voice":1,"pitch":53,"start":13.8333,"duration":0.1667,"velocity":127,"measure":6,"beat":1.75,"subject_pos":-1,"motif":"","motif_pos":-1,"best_pos":3,"similarity":0.454,"stretto":false,"stretto_voices":0,"combination":[],"aug_dim":"","rhythm_ratio":1.0,"chromatic_density":0.3},{"voice":0,"pitch":70,"start":14.0,"duration":0.1667,"velocity":127,"measure":6,"beat":2.0,"subject_pos":-1,"motif":"","motif_pos":-1,"best_pos":2,"similarity":0.421,"stretto":false,"stretto_voices":0,"combination":[],"aug_dim":"","rhythm_ratio":1.0,"chromatic_density":0.3},{"voice":1,"pitch":52,"start":14.0,"duration":0.3333,"velocity":127,"measure":6,"beat":2.0,"subject_pos":-1,"motif":"","motif_pos":-1,"best_pos":4,"similarity":0.371,"stretto":false,"stretto_voices":0,"combination":[],"aug_dim":"","rhythm_ratio":1.0,"chromatic_density":0.3},{"voice":0,"pitch":67,"start":14.1667,"duration":0.1667,"velocity":127,"measure":6,"beat":2.25,"subject_pos":-1,"motif":"","motif_pos":-1,"best_pos":5,"similarity":0.464,"stretto":false,"stretto_voices":0,"combination":[],"aug_dim":"","rhythm_ratio":1.0,"chromatic_density":0.3},{"voice":0,"pitch":69,"start":14.3333,"duration":0.1667,"velocity":127,"measure":6,"beat":2.5,"subject_pos":-1,"motif":"","motif_pos":-1,"best_pos":6,"similarity":0.479,"stretto":false,"stretto_voices":0,"combination":[],"aug_dim":"","rhythm_ratio":1.0,"chromatic_density":0.3},{"voice":1,"pitch":62,"start":14.3333,"duration":0.1667,"velocity":127,"measure":6,"beat":2.5,"subject_pos":-1,"motif":"","motif_pos":-1,"best_pos":3,"similarity":0.375,"stretto":false,"stretto_voices":0,"combination":[],"aug_dim":"","rhythm_ratio":1.0,"chromatic_density":0.3},{"voice":0,"pitch":69,"start":14.5,"duration":0.1667,"velocity":127,"measure":6,"beat":2.75,"subject_pos":-1,"motif":"","motif_pos":-1,"best_pos":4,"similarity":0.329,"stretto":false,"stretto_voices":0,"combination":[],"aug_dim":"","rhythm_ratio":1.0,"chromatic_density":0.3},{"voice":1,"pitch":61,"start":14.5,"duration":0.3333,"velocity":127,"measure":6,"beat":2.75,"subject_pos":-1,"motif":"","motif_pos":-1,"best_pos":4,"similarity":0.364,"stretto":false,"stretto_voices":0,"combination":[],"aug_dim":"","rhythm_ratio":1.0,"chromatic_density":0.3},{"voice":0,"pitch":65,"start":14.6667,"duration":0.1667,"velocity":127,"measure":6,"beat":3.0,"subject_pos":-1,"motif":"","motif_pos":-1,"best_pos":2,"similarity":0.393,"stretto":false,"stretto_voices":0,"combination":[],"aug_dim":"","rhythm_ratio":1.0,"chromatic_density":0.3},{"voice":0,"pitch":67,"start":14.8333,"duration":0.4132,"velocity":127,"measure":6,"beat":3.25,"subject_pos":-1,"motif":"","motif_pos":-1,"best_pos":3,"similarity":0.429,"stretto":false,"stretto_voices":0,"combination":[],"aug_dim":"","rhythm_ratio":1.0,"chromatic_density":0.3},{"voice":1,"pitch":52,"start":14.8333,"duration":0.1667,"velocity":127,"measure":6,"beat":3.25,"subject_pos":-1,"motif":"","motif_pos":-1,"best_pos":3,"similarity":0.243,"stretto":false,"stretto_voices":0,"combination":[],"aug_dim":"","rhythm_ratio":1.0,"chromatic_density":0.3},{"voice":0,"pitch":65,"start":15.0,"duration":0.6667,"velocity":127,"measure":6,"beat":3.5,"subject_pos":-1,"motif":"","motif_pos":-1,"best_pos":4,"similarity":0.571,"stretto":false,"stretto_voices":0,"combination":[],"aug_dim":"","rhythm_ratio":1.0,"chromatic_density":0.3},{"voice":1,"pitch":52,"start":15.0,"duration":0.1667,"velocity":127,"measure":6,"beat":3.5,"subject_pos":-1,"motif":"","motif_pos":-1,"best_pos":2,"similarity":0.429,"stretto":false,"stretto_voices":0,"combination":[],"aug_dim":"","rhythm_ratio":1.0,"chromatic_density":0.3},{"voice":1,"pitch":50,"start":15.1667,"duration":0.1667,"velocity":127,"measure":6,"beat":3.75,"subject_pos":-1,"motif":"tail","motif_pos":3,"best_pos":3,"similarity":1.0,"stretto":false,"stretto_voices":0,"combination":[],"aug_dim":"","rhythm_ratio":1.0,"chromatic_density":0.3},{"voice":1,"pitch":49,"start":15.3333,"duration":0.1667,"velocity":127,"measure":6,"beat":4.0,"subject_pos":-1,"motif":"tail","motif_pos":4,"best_pos":4,"similarity":1.0,"stretto":false,"stretto_voices":0,"combination":[],"aug_dim":"","rhythm_ratio":1.0,"chromatic_density":0.3},{"voice":1,"pitch":50,"start":15.5,"duration":0.1667,"velocity":127,"measure":6,"beat":4.25,"subject_pos":-1,"motif":"tail","motif_pos":5,"best_pos":5,"similarity":1.0,"stretto":false,"stretto_voices":0,"combination":[],"aug_dim":"","rhythm_ratio":1.0,"chromatic_density":0.3},{"voice":0,"pitch":67,"start":15.6667,"duration":0.1667,"velocity":127,"measure":6,"beat":4.5,"subject_pos":-1,"motif":"","motif_pos":-1,"best_pos":5,"similarity":0.643,"stretto":false,"stretto_voices":0,"combination":[],"aug_dim":"","rhythm_ratio":1.0,"chromatic_density":0.3},{"voice":1,"pitch":52,"start":15.6667,"duration":0.1667,"velocity":127,"measure":6,"beat":4.5,"subject_pos":-1,"motif":"tail","motif_pos":6,"best_pos":6,"similarity":1.0,"stretto":false,"stretto_voices":0,"combination":[],"aug_dim":"","rhythm_ratio":1.0,"chromatic_density":0.3},{"voice":0,"pitch":69,"start":15.8333,"duration":0.1667,"velocity":127,"measure":6,"beat":4.75,"subject_pos":-1,"motif":"","motif_pos":-1,"best_pos":6,"similarity":0.679,"stretto":false,"stretto_voices":0,"combination":[],"aug_dim":"","rhythm_ratio":1.0,"chromatic_density":0.3},{"voice":1,"pitch":53,"start":15.8333,"duration":0.1667,"velocity":127,"measure":6,"beat":4.75,"subject_pos":-1,"motif":"tail","motif_pos":7,"best_pos":7,"similarity":1.0,"stretto":false,"stretto_voices":0,"combination":[],"aug_dim":"","rhythm_ratio":1.0,"chromatic_density":0.3},{"voice":0,"pitch":70,"start":16.0,"duration":0.1667,"velocity":127,"measure":7,"beat":1.0,"subject_pos":-1,"motif":"","motif_pos":-1,"best_pos":7,"similarity":0.464,"stretto":false,"stretto_voices":0,"combination":[],"aug_dim":"","rhythm_ratio":1.0,"chromatic_density":0.409},{"voice":1,"pitch":55,"start":16.0,"duration":0.1667,"velocity":127,"measure":7,"beat":1.0,"subject_pos":-1,"motif":"","motif_pos":-1,"best_pos":5,"similarity":0.607,"stretto":false,"stretto_voices":0,"combination":[],"aug_dim":"","rhythm_ratio":1.0,"chromatic_density":0.409},{"voice":0,"pitch":69,"start":16.1667,"duration":0.1667,"velocity":127,"measure":7,"beat":1.25,"subject_pos":-1,"motif":"","motif_pos":-1,"best_pos":1,"similarity":0.357,"stretto":false,"stretto_voices":0,"combination":[],"aug_dim":"","rhythm_ratio":1.0,"chromatic_density":0.409},{"voice":1,"pitch":57,"start":16.1667,"duration":0.1667,"velocity":127,"measure":7,"beat":1.25,"subject_pos":-1,"motif":"","motif_pos":-1,"best_pos":6,"similarity":0.661,"stretto":false,"stretto_voices":0,"combination":[],"aug_dim":"","rhythm_ratio":1.0,"chromatic_density":0.409},{"voice":0,"pitch":67,"start":16.3333,"duration":0.1667,"velocity":127,"measure":7,"beat":1.5,"subject_pos":-1,"motif":"","motif_pos":-1,"best_pos":2,"similarity":0.5,"stretto":false,"stretto_voices":0,"combination":[],"aug_dim":"","rhythm_ratio":1.0,"chromatic_density":0.409},{"voice":1,"pitch":58,"start":16.3333,"duration":0.1667,"velocity":127,"measure":7,"beat":1.5,"subject_pos":-1,"motif":"","motif_pos":-1,"best_pos":7,"similarity":0.464,"stretto":false,"stretto_voices":0,"combination":[],"aug_dim":"","rhythm_ratio":1.0,"chromatic_density":0.409},{"voice":0,"pitch":74,"start":16.4132,"duration":0.3333,"velocity":127,"measure":7,"beat":1.6198,"subject_pos":-1,"motif":"tail","motif_pos":3,"best_pos":3,"similarity":1.0,"stretto":false,"stretto_voices":0,"combination":[],"aug_dim":"","rhythm_ratio":1.0,"chromatic_density":0.409},{"voice":0,"pitch":73,"start":16.5,"duration":0.6667,"velocity":127,"measure":7,"beat":1.75,"subject_pos":-1,"motif":"tail","motif_pos":4,"best_pos":4,"similarity":1.0,"stretto":false,"stretto_voices":0,"combination":[],"aug_dim":"","rhythm_ratio":1.0,"chromatic_density":0.409},{"voice":1,"pitch":58,"start":16.5,"duration":0.1667,"velocity":127,"measure":7,"beat":1.75,"subject_pos":-1,"motif":"","motif_pos":-1,"best_pos":3,"similarity":0.421,"stretto":false,"stretto_voices":0,"combination":[],"aug_dim":"","rhythm_ratio":1.0,"chromatic_density":0.409},{"voice":1,"pitch":57,"start":16.6667,"duration":0.1667,"velocity":127,"measure":7,"beat":2.0,"subject_pos":-1,"motif":"","motif_pos":-1,"best_pos":4,"similarity":0.514,"stretto":false,"stretto_voices":0,"combination":[],"aug_dim":"","rhythm_ratio":1.0,"chromatic_density":0.409},{"voice":1,"pitch":55,"start":16.8333,"duration":0.1667,"velocity":127,"measure":7,"beat":2.25,"subject_pos":-1,"motif":"","motif_pos":-1,"best_pos":5,"similarity":0.536,"stretto":false,"stretto_voices":0,"combination":[],"aug_dim":"","rhythm_ratio":1.0,"chromatic_density":0.409},{"voice":1,"pitch":57,"start":17.0,"duration":0.1667,"velocity":127,"measure":7,"beat":2.5,"subject_pos":-1,"motif":"","motif_pos":-1,"best_pos":5,"similarity":0.589,"stretto":false,"stretto_voices":0,"combination":[],"aug_dim":"","rhythm_ratio":1.0,"chromatic_density":0.409},{"voice":0,"pitch":74,"start":17.1666,"duration":0.1667,"velocity":127,"measure":7,"beat":2.75,"subject_pos":-1,"motif":"tail","motif_pos":5,"best_pos":5,"similarity":1.0,"stretto":false,"stretto_voices":0,"combination":[],"aug_dim":"","rhythm_ratio":1.0,"chromatic_density":0.409},{"voice":1,"pitch":59,"start":17.1666,"duration":0.1667,"velocity":127,"measure":7,"beat":2.75,"subject_pos":-1,"motif":"","motif_pos":-1,"best_pos":5,"similarity":0.621,"stretto":false,"stretto_voices":0,"combination":[],"aug_dim":"","rhythm_ratio":1.0,"chromatic_density":0.409},{"voice":0,"pitch":76,"start":17.3333,"duration":0.1667,"velocity":127,"measure":7,"beat":3.0,"subject_pos":-1,"motif":"tail","motif_pos":6,"best_pos":6,"similarity":1.0,"stretto":false,"stretto_voices":0,"combination":[],"aug_dim":"","rhythm_ratio":1.0,"chromatic_density":0.409},{"voice":1,"pitch":61,"start":17.3333,"duration":0.1667,"velocity":127,"measure":7,"beat":3.0,"subject_pos":-1,"motif":"","motif_pos":-1,"best_pos":6,"similarity":0.65,"stretto":false,"stretto_voices":0,"combination":[],"aug_dim":"","rhythm_ratio":1.0,"chromatic_density":0.409},{"voice":0,"pitch":77,"start":17.5,"duration":0.1667,"velocity":127,"measure":7,"beat":3.25,"subject_pos":-1,"motif":"tail","motif_pos":7,"best_pos":7,"similarity":1.0,"stretto":false,"stretto_voices":0,"combination":[],"aug_dim":"","rhythm_ratio":1.0,"chromatic_density":0.409},{"voice":1,"pitch":62,"start":17.5,"duration":0.1667,"velocity":127,"measure":7,"beat":3.25,"subject_pos":-1,"motif":"","motif_pos":-1,"best_pos":5,"similarity":0.729,"stretto":false,"stretto_voices":0,"combination":[],"aug_dim":"","rhythm_ratio":1.0,"chromatic_density":0.409},{"voice":0,"pitch":76,"start":17.6666,"duration":0.1667,"velocity":127,"measure":7,"beat":3.5,"subject_pos":-1,"motif":"","motif_pos":-1,"best_pos":4,"similarity":0.421,"stretto":false,"stretto_voices":0,"combination":[],"aug_dim":"","rhythm_ratio":1.0,"chromatic_density":0.409},{"voice":1,"pitch":64,"start":17.6666,"duration":0.1667,"velocity":127,"measure":7,"beat":3.5,"subject_pos":-1,"motif":"","motif_pos":-1,"best_pos":6,"similarity":0.721,"stretto":false,"stretto_voices":0,"combination":[],"aug_dim":"","rhythm_ratio":1.0,"chromatic_density":0.409},{"voice":0,"pitch":74,"start":17.8333,"duration":0.1667,"velocity":127,"measure":7,"beat":3.75,"subject_pos":-1,"motif":"","motif_pos":-1,"best_pos":3,"similarity":0.364,"stretto":false,"stretto_voices":0,"combination":[],"aug_dim":"","rhythm_ratio":1.0,"chromatic_density":0.409},{"voice":1,"pitch":65,"start":17.8333,"duration":0.1667,"velocity":127,"measure":7,"beat":3.75,"subject_pos":-1,"motif":"","motif_pos":-1,"best_pos":7,"similarity":0.5,"stretto":false,"stretto_voices":0,"combination":[],"aug_dim":"","rhythm_ratio":1.0,"chromatic_density":0.409},{"voice":0,"pitch":80,"start":18.0,"duration":1.5,"velocity":127,"measure":7,"beat":4.0,"subject_pos":-1,"motif":"","motif_pos":-1,"best_pos":4,"similarity":0.464,"stretto":false,"stretto_voices":0,"combination":[],"aug_dim":"","rhythm_ratio":1.0,"chromatic_density":0.409},{"voice":1,"pitch":65,"start":18.0,"duration":0.1667,"velocity":127,"measure":7,"beat":4.0,"subject_pos":-1,"motif":"","motif_pos":-1,"best_pos":2,"similarity":0.421,"stretto":false,"stretto_voices":0,"combination":[],"aug_dim":"","rhythm_ratio":1.0,"chromatic_density":0.409},{"voice":1,"pitch":62,"start":18.1666,"duration":0.1667,"velocity":127,"measure":7,"beat":4.25,"subject_pos":-1,"motif":"","motif_pos":-1,"best_pos":5,"similarity":0.464,"stretto":false,"stretto_voices":0,"combination":[],"aug_dim":"","rhythm_ratio":1.0,"chromatic_density":0.409},{"voice":1,"pitch":64,"start":18.3333,"duration":0.1667,"velocity":127,"measure":7,"beat":4.5,"subject_pos":-1,"motif":"","motif_pos":-1,"best_pos":6,"similarity":0.479,"stretto":false,"stretto_voices":0,"combination":[],"aug_dim":"","rhythm_ratio":1.0,"chromatic_density":0.409},{"voice":1,"pitch":64,"start":18.5,"duration":0.1667,"velocity":127,"measure":7,"beat":4.75,"subject_pos":-1,"motif":"","motif_pos":-1,"best_pos":2,"similarity":0.443,"stretto":false,"stretto_voices":0,"combination":[],"aug_dim":"","rhythm_ratio":1.0,"chromatic_density":0.409},{"voice":1,"pitch":61,"start":18.6666,"duration":0.1667,"velocity":127,"measure":8,"beat":1.0,"subject_pos":-1,"motif":"","motif_pos":-1,"best_pos":3,"similarity":0.471,"stretto":false,"stretto_voices":0,"combination":[],"aug_dim":"","rhythm_ratio":1.0,"chromatic_density":0.267},{"voice":1,"pitch":62,"start":18.8333,"duration":0.1667,"velocity":127,"measure":8,"beat":1.25,"subject_pos":-1,"motif":"","motif_pos":-1,"best_pos":4,"similarity":0.446,"stretto":false,"stretto_voices":0,"combination":[],"aug_dim":"","rhythm_ratio":1.0,"chromatic_density":0.267},{"voice":1,"pitch":62,"start":19.0,"duration":0.1667,"velocity":127,"measure":8,"beat":1.5,"subject_pos":-1,"motif":"","motif_pos":-1,"best_pos":2,"similarity":0.443,"stretto":false,"stretto_voices":0,"combination":[],"aug_dim":"","rhythm_ratio":1.0,"chromatic_density":0.267},{"voice":1,"pitch":59,"start":19.1666,"duration":0.1667,"velocity":127,"measure":8,"beat":1.75,"subject_pos":-1,"motif":"","motif_pos":-1,"best_pos":3,"similarity":0.471,"stretto":false,"stretto_voices":0,"combination":[],"aug_dim":"","rhythm_ratio":1.0,"chromatic_density":0.267},{"voice":1,"pitch":60,"start":19.3333,"duration":0.1667,"velocity":127,"measure":8,"beat":2.0,"subject_pos":-1,"motif":"","motif_pos":-1,"best_pos":4,"similarity":0.446,"stretto":false,"stretto_voices":0,"combination":[],"aug_dim":"","rhythm_ratio":1.0,"chromatic_density":0.267},{"voice":0,"pitch":81,"start":19.5,"duration":0.3333,"velocity":127,"measure":8,"beat":2.25,"subject_pos":-1,"motif":"","motif_pos":-1,"best_pos":5,"similarity":0.464,"stretto":false,"stretto_voices":0,"combination":[],"aug_dim":"","rhythm_ratio":1.0,"chromatic_density":0.267},{"voice":1,"pitch":60,"start":19.5,"duration":0.1667,"velocity":127,"measure":8,"beat":2.25,"subject_pos":-1,"motif":"","motif_pos":-1,"best_pos":2,"similarity":0.443,"stretto":false,"stretto_voices":0,"combination":[],"aug_dim":"","rhythm_ratio":1.0,"chromatic_density":0.267},{"voice":1,"pitch":57,"start":19.6666,"duration":0.1667,"velocity":127,"measure":8,"beat":2.5,"subject_pos":-1,"motif":"","motif_pos":-1,"best_pos":3,"similarity":0.471,"stretto":false,"stretto_voices":0,"combination":[],"aug_dim":"","rhythm_ratio":1.0,"chromatic_density":0.267},{"voice":1,"pitch":58,"start":19.8333,"duration":0.1667,"velocity":127,"measure":8,"beat":2.75,"subject_pos":-1,"motif":"","motif_pos":-1,"best_pos":5,"similarity":0.414,"stretto":false,"stretto_voices":0,"combination":[],"aug_dim":"","rhythm_ratio":1.0,"chromatic_density":0.267},{"voice":1,"pitch":58,"start":20.0,"duration":0.1667,"velocity":127,"measure":8,"beat":3.0,"subject_pos":-1,"motif":"","motif_pos":-1,"best_pos":2,"similarity":0.421,"stretto":false,"stretto_voices":0,"combination":[],"aug_dim":"","rhythm_ratio":1.0,"chromatic_density":0.267},{"voice":1,"pitch":55,"start":20.1666,"duration":0.1667,"velocity":127,"measure":8,"beat":3.25,"subject_pos":-1,"motif":"","motif_pos":-1,"best_pos":5,"similarity":0.464,"stretto":false,"stretto_voices":0,"combination":[],"aug_dim":"","rhythm_ratio":1.0,"chromatic_density":0.267},{"voice":0,"pitch":73,"start":20.3333,"duration":0.1667,"velocity":127,"measure":8,"beat":3.5,"subject_pos":-1,"motif":"","motif_pos":-1,"best_pos":4,"similarity":0.443,"stretto":false,"stretto_voices":0,"combination":[],"aug_dim":"","rhythm_ratio":1.0,"chromatic_density":0.267},{"voice":1,"pitch":57,"start":20.3333,"duration":0.1667,"velocity":127,"measure":8,"beat":3.5,"subject_pos":-1,"motif":"","motif_pos":-1,"best_pos":6,"similarity":0.479,"stretto":false,"stretto_voices":0,"combination":[],"aug_dim":"","rhythm_ratio":1.0,"chromatic_density":0.267},{"voice":0,"pitch":74,"start":20.5,"duration":0.3333,"velocity":127,"measure":8,"beat":3.75,"subject_pos":-1,"motif":"","motif_pos":-1,"best_pos":5,"similarity":0.579,"stretto":false,"stretto_voices":0,"combination":[],"aug_dim":"","rhythm_ratio":1.0,"chromatic_density":0.267},{"voice":1,"pitch":57,"start":20.5,"duration":0.1667,"velocity":127,"measure":8,"beat":3.75,"subject_pos":-1,"motif":"","motif_pos":-1,"best_pos":4,"similarity":0.329,"stretto":false,"stretto_voices":0,"combination":[],"aug_dim":"","rhythm_ratio":1.0,"chromatic_density":0.267},{"voice":1,"pitch":53,"start":20.6666,"duration":0.1667,"velocity":127,"measure":8,"beat":4.0,"subject_pos":-1,"motif":"","motif_pos":-1,"best_pos":2,"similarity":0.393,"stretto":false,"stretto_voices":0,"combination":[],"aug_dim":"","rhythm_ratio":1.0,"chromatic_density":0.267},{"voice":0,"pitch":76,"start":20.8333,"duration":0.1667,"velocity":127,"measure":8,"beat":4.25,"subject_pos":-1,"motif":"head_inv","motif_pos":0,"best_pos":0,"similarity":1.0,"stretto":false,"stretto_voices":0,"combination":[],"aug_dim":"","rhythm_ratio":1.0,"chromatic_density":0.267},{"voice":1,"pitch":55,"start":20.8333,"duration":0.4132,"velocity":127,"measure":8,"beat":4.25,"subject_pos":-1,"motif":"","motif_pos":-1,"best_pos":3,"similarity":0.429,"stretto":false,"stretto_voices":0,"combination":[],"aug_dim":"","rhythm_ratio":1.0,"chromatic_density":0.267},{"voice":0,"pitch":69,"start":21.0,"duration":0.1667,"velocity":127,"measure":8,"beat":4.5,"subject_pos":-1,"motif":"head_inv","motif_pos":1,"best_pos":1,"similarity":1.0,"stretto":false,"stretto_voices":0,"combination":[],"aug_dim":"","rhythm_ratio":1.0,"chromatic_density":0.267},{"voice":1,"pitch":53,"start":21.0,"duration":0.6667,"velocity":127,"measure":8,"beat":4.5,"subject_pos":-1,"motif":"","motif_pos":-1,"best_pos":4,"similarity":0.571,"stretto":false,"stretto_voices":0,"combination":[],"aug_dim":"","rhythm_ratio":1.0,"chromatic_density":0.267},{"voice":0,"pitch":71,"start":21.1666,"duration":0.1667,"velocity":127,"measure":8,"beat":4.75,"subject_pos":-1,"motif":"head_inv","motif_pos":2,"best_pos":2,"similarity":1.0,"stretto":false,"stretto_voices":0,"combination":[],"aug_dim":"","rhythm_ratio":1.0,"chromatic_density":0.267},{"voice":0,"pitch":73,"start":21.3333,"duration":0.1667,"velocity":127,"measure":9,"beat":1.0,"subject_pos":-1,"motif":"head_inv","motif_pos":3,"best_pos":3,"similarity":1.0,"stretto":false,"stretto_voices":0,"combination":[],"aug_dim":"","rhythm_ratio":1.0,"chromatic_density":0.524},{"voice":0,"pitch":74,"start":21.5,"duration":0.1667,"velocity":127,"measure":9,"beat":1.25,"subject_pos":-1,"motif":"head_inv","motif_pos":4,"best_pos":4,"similarity":1.0,"stretto":false,"stretto_voices":0,"combination":[],"aug_dim":"","rhythm_ratio":1.0,"chromatic_density":0.524},{"voice":0,"pitch":76,"start":21.6666,"duration":0.1667,"velocity":127,"measure":9,"beat":1.5,"subject_pos":-1,"motif":"","motif_pos":-1,"best_pos":6,"similarity":0.721,"stretto":false,"stretto_voices":0,"combination":[],"aug_dim":"","rhythm_ratio":1.0,"chromatic_density":0.524},{"voice":1,"pitch":55,"start":21.6666,"duration":0.1667,"velocity":127,"measure":9,"beat":1.5,"subject_pos":-1,"motif":"","motif_pos":-1,"best_pos":5,"similarity":0.643,"stretto":false,"stretto_voices":0,"combination":[],"aug_dim":"","rhythm_ratio":1.0,"chromatic_density":0.524},{"voice":0,"pitch":77,"start":21.8333,"duration":0.1667,"velocity":127,"measure":9,"beat":1.75,"subject_pos":-1,"motif":"","motif_pos":-1,"best_pos":7,"similarity":0.5,"stretto":false,"stretto_voices":0,"combination":[],"aug_dim":"","rhythm_ratio":1.0,"chromatic_density":0.524},{"voice":1,"pitch":57,"start":21.8333,"duration":0.1667,"velocity":127,"measure":9,"beat":1.75,"subject_pos":-1,"motif":"","motif_pos":-1,"best_pos":6,"similarity":0.679,"stretto":false,"stretto_voices":0,"combination":[],"aug_dim":"","rhythm_ratio":1.0,"chromatic_density":0.524},{"voice":0,"pitch":67,"start":22.0,"duration":0.6667,"velocity":127,"measure":9,"beat":2.0,"subject_pos":-1,"motif":"","motif_pos":-1,"best_pos":0,"similarity":0.161,"stretto":false,"stretto_voices":0,"combination":[],"aug_dim":"","rhythm_ratio":1.0,"chromatic_density":0.524},{"voice":1,"pitch":58,"start":22.0,"duration":0.1667,"velocity":127,"measure":9,"beat":2.0,"subject_pos":-1,"motif":"","motif_pos":-1,"best_pos":7,"similarity":0.464,"stretto":false,"stretto_voices":0,"combination":[],"aug_dim":"","rhythm_ratio":1.0,"chromatic_density":0.524},{"voice":1,"pitch":57,"start":22.1666,"duration":0.1667,"velocity":127,"measure":9,"beat":2.25,"subject_pos":-1,"motif":"","motif_pos":-1,"best_pos":1,"similarity":0.357,"stretto":false,"stretto_voices":0,"combination":[],"aug_dim":"","rhythm_ratio":1.0,"chromatic_density":0.524},{"voice":1,"pitch":55,"start":22.3333,"duration":0.1667,"velocity":127,"measure":9,"beat":2.5,"subject_pos":-1,"motif":"","motif_pos":-1,"best_pos":2,"similarity":0.5,"stretto":false,"stretto_voices":0,"combination":[],"aug_dim":"","rhythm_ratio":1.0,"chromatic_density":0.524},{"voice":1,"pitch":62,"start":22.4132,"duration":0.3333,"velocity":127,"measure":9,"beat":2.6198,"subject_pos":-1,"motif":"tail","motif_pos":3,"best_pos":3,"similarity":1.0,"stretto":false,"stretto_voices":0,"combination":[],"aug_dim":"","rhythm_ratio":1.0,"chromatic_density":0.524},{"voice":1,"pitch":61,"start":22.5,"duration":0.6667,"velocity":127,"measure":9,"beat":2.75,"subject_pos":-1,"motif":"tail","motif_pos":4,"best_pos":4,"similarity":1.0,"stretto":false,"stretto_voices":0,"combination":[],"aug_dim":"","rhythm_ratio":1.0,"chromatic_density":0.524},{"voice":0,"pitch":79,"start":22.6666,"duration":0.1667,"velocity":127,"measure":9,"beat":3.0,"subject_pos":-1,"motif":"","motif_pos":-1,"best_pos":1,"similarity":0.357,"stretto":false,"stretto_voices":0,"combination":[],"aug_dim":"","rhythm_ratio":1.0,"chromatic_density":0.524},{"voice":0,"pitch":77,"start":22.8333,"duration":0.1667,"velocity":127,"measure":9,"beat":3.25,"subject_pos":-1,"motif":"","motif_pos":-1,"best_pos":3,"similarity":0.45,"stretto":false,"stretto_voices":0,"combination":[],"aug_dim":"","rhythm_ratio":1.0,"chromatic_density":0.524},{"voice":0,"pitch":76,"start":23.0,"duration":0.1667,"velocity":127,"measure":9,"beat":3.5,"subject_pos":-1,"motif":"","motif_pos":-1,"best_pos":2,"similarity":0.5,"stretto":false,"stretto_voices":0,"combination":[],"aug_dim":"","rhythm_ratio":1.0,"chromatic_density":0.524},{"voice":0,"pitch":74,"start":23.1666,"duration":0.1667,"velocity":127,"measure":9,"beat":3.75,"subject_pos":-1,"motif":"","motif_pos":-1,"best_pos":3,"similarity":0.643,"stretto":false,"stretto_voices":0,"combination":[],"aug_dim":"","rhythm_ratio":1.0,"chromatic_density":0.524},{"voice":1,"pitch":62,"start":23.1666,"duration":0.1667,"velocity":127,"measure":9,"beat":3.75,"subject_pos":-1,"motif":"tail","motif_pos":5,"best_pos":5,"similarity":1.0,"stretto":false,"stretto_voices":0,"combination":[],"aug_dim":"","rhythm_ratio":1.0,"chromatic_density":0.524},{"voice":0,"pitch":73,"start":23.3333,"duration":0.1667,"velocity":127,"measure":9,"beat":4.0,"subject_pos":-1,"motif":"","motif_pos":-1,"best_pos":4,"similarity":0.714,"stretto":false,"stretto_voices":0,"combination":[],"aug_dim":"","rhythm_ratio":1.0,"chromatic_density":0.524},{"voice":1,"pitch":64,"start":23.3333,"duration":0.1667,"velocity":127,"measure":9,"beat":4.0,"subject_pos":-1,"motif":"tail","motif_pos":6,"best_pos":6,"similarity":1.0,"stretto":false,"stretto_voices":0,"combination":[],"aug_dim":"","rhythm_ratio":1.0,"chromatic_density":0.524},{"voice":0,"pitch":74,"start":23.5,"duration":0.6667,"velocity":127,"measure":9,"beat":4.25,"subject_pos":-1,"motif":"","motif_pos":-1,"best_pos":5,"similarity":0.536,"stretto":false,"stretto_voices":0,"combination":[],"aug_dim":"","rhythm_ratio":1.0,"chromatic_density":0.524},{"voice":1,"pitch":65,"start":23.5,"duration":0.1667,"velocity":127,"measure":9,"beat":4.25,"subject_pos":-1,"motif":"tail","motif_pos":7,"best_pos":7,"similarity":1.0,"stretto":false,"stretto_voices":0,"combination":[],"aug_dim":"","rhythm_ratio":1.0,"chromatic_density":0.524},{"voice":1,"pitch":64,"start":23.6666,"duration":0.1667,"velocity":127,"measure":9,"beat":4.5,"subject_pos":-1,"motif":"","motif_pos":-1,"best_pos":4,"similarity":0.421,"stretto":false,"stretto_voices":0,"combination":[],"aug_dim":"","rhythm_ratio":1.0,"chromatic_density":0.524},{"voice":1,"pitch":62,"start":23.8333,"duration":0.1667,"velocity":127,"measure":9,"beat":4.75,"subject_pos":-1,"motif":"","motif_pos":-1,"best_pos":3,"similarity":0.364,"stretto":false,"stretto_voices":0,"combination":[],"aug_dim":"","rhythm_ratio":1.0,"chromatic_density":0.524},{"voice":1,"pitch":68,"start":24.0,"duration":1.5,"velocity":127,"measure":10,"beat":1.0,"subject_pos":-1,"motif":"","motif_pos":-1,"best_pos":4,"similarity":0.464,"stretto":false,"stretto_voices":0,"combination":[],"aug_dim":"","rhythm_ratio":1.0,"chromatic_density":0.571},{"voice":0,"pitch":71,"start":24.1666,"duration":0.1667,"velocity":127,"measure":10,"beat":1.25,"subject_pos":-1,"motif":"","motif_pos":-1,"best_pos":3,"similarity":0.543,"stretto":false,"stretto_voices":0,"combination":[],"aug_dim":"","rhythm_ratio":1.0,"chromatic_density":0.571},{"voice":0,"pitch":73,"start":24.3333,"duration":0.1667,"velocity":127,"measure":10,"beat":1.5,"subject_pos":-1,"motif":"","motif_pos":-1,"best_pos":4,"similarity":0.679,"stretto":false,"stretto_voices":0,"combination":[],"aug_dim":"","rhythm_ratio":1.0,"chromatic_density":0.571},{"voice":0,"pitch":74,"start":24.5,"duration":0.1667,"velocity":127,"measure":10,"beat":1.75,"subject_pos":-1,"motif":"","motif_pos":-1,"best_pos":5,"similarity":0.8,"stretto":false,"stretto_voices":0,"combination":[],"aug_dim":"","rhythm_ratio":1.0,"chromatic_density":0.571},{"voice":0,"pitch":76,"start":24.6666,"duration":0.1667,"velocity":127,"measure":10,"beat":2.0,"subject_pos":-1,"motif":"","motif_pos":-1,"best_pos":6,"similarity":0.721,"stretto":false,"stretto_voices":0,"combination":[],"aug_dim":"","rhythm_ratio":1.0,"chromatic_density":0.571},{"voice":0,"pitch":77,"start":24.8333,"duration":0.1667,"velocity":127,"measure":10,"beat":2.25,"subject_pos":-1,"motif":"","motif_pos":-1,"best_pos":7,"similarity":0.5,"stretto":false,"stretto_voices":0,"combination":[],"aug_dim":"","rhythm_ratio":1.0,"chromatic_density":0.571},{"voice":0,"pitch":76,"start":25.0,"duration":0.1667,"velocity":127,"measure":10,"beat":2.5,"subject_pos":-1,"motif":"","motif_pos":-1,"best_pos":4,"similarity":0.611,"stretto":false,"stretto_voices":0,"combination":[],"aug_dim":"","rhythm_ratio":1.0,"chromatic_density":0.571},{"voice":0,"pitch":77,"start":25.1666,"duration":0.1667,"velocity":127,"measure":10,"beat":2.75,"subject_pos":-1,"motif":"","motif_pos":-1,"best_pos":2,"similarity":0.529,"stretto":false,"stretto_voices":0,"combination":[],"aug_dim":"","rhythm_ratio":1.0,"chromatic_density":0.571},{"voice":0,"pitch":74,"start":25.3333,"duration":0.1667,"velocity":127,"measure":10,"beat":3.0,"subject_pos":-1,"motif":"","motif_pos":-1,"best_pos":3,"similarity":0.8,"stretto":false,"stretto_voices":0,"combination":[],"aug_dim":"","rhythm_ratio":1.0,"chromatic_density":0.571},{"voice":0,"pitch":73,"start":25.5,"duration":0.1667,"velocity":127,"measure":10,"beat":3.25,"subject_pos":-1,"motif":"","motif_pos":-1,"best_pos":4,"similarity":0.864,"stretto":false,"stretto_voices":0,"combination":[],"aug_dim":"","rhythm_ratio":1.0,"chromatic_density":0.571},{"voice":1,"pitch":69,"start":25.5,"duration":0.3333,"velocity":127,"measure":10,"beat":3.25,"subject_pos":-1,"motif":"","motif_pos":-1,"best_pos":5,"similarity":0.464,"stretto":false,"stretto_voices":0,"combination":[],"aug_dim":"","rhythm_ratio":1.0,"chromatic_density":0.571},{"voice":0,"pitch":74,"start":25.6666,"duration":0.1667,"velocity":127,"measure":10,"beat":3.5,"subject_pos":-1,"motif":"","motif_pos":-1,"best_pos":5,"similarity":0.786,"stretto":false,"stretto_voices":0,"combination":[],"aug_dim":"","rhythm_ratio":1.0,"chromatic_density":0.571},{"voice":0,"pitch":76,"start":25.8333,"duration":0.1667,"velocity":127,"measure":10,"beat":3.75,"subject_pos":-1,"motif":"","motif_pos":-1,"best_pos":6,"similarity":0.5,"stretto":false,"stretto_voices":0,"combination":[],"aug_dim":"","rhythm_ratio":1.0,"chromatic_density":0.571},{"voice":0,"pitch":69,"start":26.0,"duration":0.6667,"velocity":127,"measure":10,"beat":4.0,"subject_pos":-1,"motif":"","motif_pos":-1,"best_pos":6,"similarity":0.375,"stretto":false,"stretto_voices":0,"combination":[],"aug_dim":"","rhythm_ratio":1.0,"chromatic_density":0.571},{"voice":1,"pitch":61,"start":26.3333,"duration":0.1667,"velocity":127,"measure":10,"beat":4.5,"subject_pos":-1,"motif":"","motif_pos":-1,"best_pos":4,"similarity":0.443,"stretto":false,"stretto_voices":0,"combination":[],"aug_dim":"","rhythm_ratio":1.0,"chromatic_density":0.571},{"voice":1,"pitch":62,"start":26.5,"duration":0.3333,"velocity":127,"measure":10,"beat":4.75,"subject_pos":-1,"motif":"","motif_pos":-1,"best_pos":5,"similarity":0.579,"stretto":false,"stretto_voices":0,"combination":[],"aug_dim":"","rhythm_ratio":1.0,"chromatic_density":0.571},{"voice":0,"pitch":70,"start":26.6666,"duration":0.1667,"velocity":127,"measure":11,"beat":1.0,"subject_pos":-1,"motif":"","motif_pos":-1,"best_pos":2,"similarity":0.421,"stretto":false,"stretto_voices":0,"combination":[],"aug_dim":"","rhythm_ratio":1.0,"chromatic_density":0.231},{"voice":0,"pitch":67,"start":26.8333,"duration":0.1667,"velocity":127,"measure":11,"beat":1.25,"subject_pos":-1,"motif":"","motif_pos":-1,"best_pos":3,"similarity":0.514,"stretto":false,"stretto_voices":0,"combination":[],"aug_dim":"","rhythm_ratio":1.0,"chromatic_density":0.231},{"voice":1,"pitch":64,"start":26.8333,"duration":0.1667,"velocity":127,"measure":11,"beat":1.25,"subject_pos":-1,"motif":"head_inv","motif_pos":0,"best_pos":0,"similarity":1.0,"stretto":false,"stretto_voices":0,"combination":[],"aug_dim":"","rhythm_ratio":1.0,"chromatic_density":0.231},{"voice":0,"pitch":65,"start":27.0,"duration":0.1667,"velocity":127,"measure":11,"beat":1.5,"subject_pos":-1,"motif":"","motif_pos":-1,"best_pos":4,"similarity":0.507,"stretto":false,"stretto_voices":0,"combination":[],"aug_dim":"","rhythm_ratio":1.0,"chromatic_density":0.231},{"voice":1,"pitch":57,"start":27.0,"duration":0.1667,"velocity":127,"measure":11,"beat":1.5,"subject_pos":-1,"motif":"head_inv","motif_pos":1,"best_pos":1,"similarity":1.0,"stretto":false,"stretto_voices":0,"combination":[],"aug_dim":"","rhythm_ratio":1.0,"chromatic_density":0.231},{"voice":0,"pitch":67,"start":27.1666,"duration":0.1667,"velocity":127,"measure":11,"beat":1.75,"subject_pos":-1,"motif":"","motif_pos":-1,"best_pos":5,"similarity":0.429,"stretto":false,"stretto_voices":0,"combination":[],"aug_dim":"","rhythm_ratio":1.0,"chromatic_density":0.231},{"voice":1,"pitch":59,"start":27.1666,"duration":0.1667,"velocity":127,"measure":11,"beat":1.75,"subject_pos":-1,"motif":"head_inv","motif_pos":2,"best_pos":2,"similarity":1.0,"stretto":false,"stretto_voices":0,"combination":[],"aug_dim":"","rhythm_ratio":1.0,"chromatic_density":0.231},{"voice":0,"pitch":64,"start":27.3333,"duration":0.1667,"velocity":127,"measure":11,"beat":2.0,"subject_pos":-1,"motif":"","motif_pos":-1,"best_pos":4,"similarity":0.471,"stretto":false,"stretto_voices":0,"combination":[],"aug_dim":"","rhythm_ratio":1.0,"chromatic_density":0.231},{"voice":1,"pitch":61,"start":27.3333,"duration":0.1667,"velocity":127,"measure":11,"beat":2.0,"subject_pos":-1,"motif":"head_inv","motif_pos":3,"best_pos":3,"similarity":1.0,"stretto":false,"stretto_voices":0,"combination":[],"aug_dim":"","rhythm_ratio":1.0,"chromatic_density":0.231},{"voice":0,"pitch":65,"start":27.5,"duration":0.1667,"velocity":127,"measure":11,"beat":2.25,"subject_pos":-1,"motif":"","motif_pos":-1,"best_pos":5,"similarity":0.407,"stretto":false,"stretto_voices":0,"combination":[],"aug_dim":"","rhythm_ratio":1.0,"chromatic_density":0.231},{"voice":1,"pitch":62,"start":27.5,"duration":0.1667,"velocity":127,"measure":11,"beat":2.25,"subject_pos":-1,"motif":"head_inv","motif_pos":4,"best_pos":4,"similarity":1.0,"stretto":false,"stretto_voices":0,"combination":[],"aug_dim":"","rhythm_ratio":1.0,"chromatic_density":0.231},{"voice":0,"pitch":69,"start":27.6666,"duration":0.1667,"velocity":127,"measure":11,"beat":2.5,"subject_pos":-1,"motif":"","motif_pos":-1,"best_pos":0,"similarity":0.464,"stretto":false,"stretto_voices":0,"combination":[],"aug_dim":"","rhythm_ratio":1.0,"chromatic_density":0.231},{"voice":1,"pitch":64,"start":27.6666,"duration":0.1667,"velocity":127,"measure":11,"beat":2.5,"subject_pos":-1,"motif":"","motif_pos":-1,"best_pos":6,"similarity":0.721,"stretto":false,"stretto_voices":0,"combination":[],"aug_dim":"","rhythm_ratio":1.0,"chromatic_density":0.231},{"voice":0,"pitch":74,"start":27.8333,"duration":0.1667,"velocity":127,"measure":11,"beat":2.75,"subject_pos":-1,"motif":"","motif_pos":-1,"best_pos":1,"similarity":0.714,"stretto":false,"stretto_voices":0,"combination":[],"aug_dim":"","rhythm_ratio":1.0,"chromatic_density":0.231},{"voice":1,"pitch":65,"start":27.8333,"duration":0.1667,"velocity":127,"measure":11,"beat":2.75,"subject_pos":-1,"motif":"","motif_pos":-1,"best_pos":7,"similarity":0.5,"stretto":false,"stretto_voices":0,"combination":[],"aug_dim":"","rhythm_ratio":1.0,"chromatic_density":0.231},{"voice":0,"pitch":72,"start":28.0,"duration":0.1667,"velocity":127,"measure":11,"beat":3.0,"subject_pos":-1,"motif":"","motif_pos":-1,"best_pos":2,"similarity":0.786,"stretto":false,"stretto_voices":0,"combination":[],"aug_dim":"","rhythm_ratio":1.0,"chromatic_density":0.231},{"voice":1,"pitch":55,"start":28.0,"duration":0.6667,"velocity":127,"measure":11,"beat":3.0,"subject_pos":-1,"motif":"","motif_pos":-1,"best_pos":0,"similarity":0.161,"stretto":false,"stretto_voices":0,"combination":[],"aug_dim":"","rhythm_ratio":1.0,"chromatic_density":0.231},{"voice":0,"pitch":70,"start":28.1666,"duration":0.1667,"velocity":127,"measure":11,"beat":3.25,"subject_pos":-1,"motif":"","motif_pos":-1,"best_pos":3,"similarity":0.804,"stretto":false,"stretto_voices":0,"combination":[],"aug_dim":"","rhythm_ratio":1.0,"chromatic_density":0.231},{"voice":0,"pitch":69,"start":28.3333,"duration":0.1667,"velocity":127,"measure":11,"beat":3.5,"subject_pos":-1,"motif":"","motif_pos":-1,"best_pos":4,"similarity":0.757,"stretto":false,"stretto_voices":0,"combination":[],"aug_dim":"","rhythm_ratio":1.0,"chromatic_density":0.231},{"voice":0,"pitch":70,"start":28.5,"duration":0.1667,"velocity":127,"measure":11,"beat":3.75,"subject_pos":-1,"motif":"","motif_pos":-1,"best_pos":5,"similarity":0.55,"stretto":false,"stretto_voices":0,"combination":[],"aug_dim":"","rhythm_ratio":1.0,"chromatic_density":0.231},{"voice":0,"pitch":74,"start":28.6666,"duration":0.1667,"velocity":127,"measure":11,"beat":4.0,"subject_pos":-1,"motif":"","motif_pos":-1,"best_pos":0,"similarity":0.321,"stretto":false,"stretto_voices":0,"combination":[],"aug_dim":"","rhythm_ratio":1.0,"chromatic_density":0.231},{"voice":1,"pitch":67,"start":28.6666,"duration":0.1667,"velocity":127,"measure":11,"beat":4.0,"subject_pos":-1,"motif":"","motif_pos":-1,"best_pos":1,"similarity":0.357,"stretto":false,"stretto_voices":0,"combination":[],"aug_dim":"","rhythm_ratio":1.0,"chromatic_density":0.231},{"voice":0,"pitch":79,"start":28.8333,"duration":0.1667,"velocity":127,"measure":11,"beat":4.25,"subject_pos":-1,"motif":"","motif_pos":-1,"best_pos":1,"similarity":0.357,"stretto":false,"stretto_voices":0,"combination":[],"aug_dim":"","rhythm_ratio":1.0,"chromatic_density":0.231},{"voice":1,"pitch":65,"start":28.8333,"duration":0.1667,"velocity":127,"measure":11,"beat":4.25,"subject_pos":-1,"motif":"","motif_pos":-1,"best_pos":3,"similarity":0.45,"stretto":false,"stretto_voices":0,"combination":[],"aug_dim":"","rhythm_ratio":1.0,"chromatic_density":0.231},{"voice":0,"pitch":73,"start":29.0,"duration":0.1667,"velocity":127,"measure":11,"beat":4.5,"subject_pos":-1,"motif":"","motif_pos":-1,"best_pos":2,"similarity":0.286,"stretto":false,"stretto_voices":0,"combination":[],"aug_dim":"","rhythm_ratio":1.0,"chromatic_density":0.231},{"voice":1,"pitch":64,"start":29.0,"duration":0.1667,"velocity":127,"measure":11,"beat":4.5,"subject_pos":-1,"motif":"","motif_pos":-1,"best_pos":2,"similarity":0.5,"stretto":false,"stretto_voices":0,"combination":[],"aug_dim":"","rhythm_ratio":1.0,"chromatic_density":0.231},{"voice":0,"pitch":76,"start":29.1666,"duration":0.1667,"velocity":127,"measure":11,"beat":4.75,"subject_pos":-1,"motif":"","motif_pos":-1,"best_pos":3,"similarity":0.257,"stretto":false,"stretto_voices":0,"combination":[],"aug_dim":"","rhythm_ratio":1.0,"chromatic_density":0.231},{"voice":1,"pitch":62,"start":29.1666,"duration":0.1667,"velocity":127,"measure":11,"beat":4.75,"subject_pos":-1,"motif":"","motif_pos":-1,"best_pos":3,"similarity":0.643,"stretto":false,"stretto_voices":0,"combination":[],"aug_dim":"","rhythm_ratio":1.0,"chromatic_density":0.231},{"voice":0,"pitch":69,"start":29.3333,"duration":0.1667,"velocity":127,"measure":12,"beat":1.0,"subject_pos":-1,"motif":"","motif_pos":-1,"best_pos":4,"similarity":0.325,"stretto":false,"stretto_voices":0,"combination":[],"aug_dim":"","rhythm_ratio":1.0,"chromatic_density":0.44},{"voice":1,"pitch":61,"start":29.3333,"duration":0.1667,"velocity":127,"measure":12,"beat":1.0,"subject_pos":-1,"motif":"","motif_pos":-1,"best_pos":4,"similarity":0.714,"stretto":false,"stretto_voices":0,"combination":[],"aug_dim":"","rhythm_ratio":1.0,"chromatic_density":0.44},{"voice":0,"pitch":70,"start":29.5,"duration":0.1667,"velocity":127,"measure":12,"beat":1.25,"subject_pos":-1,"motif":"","motif_pos":-1,"best_pos":3,"similarity":0.368,"stretto":false,"stretto_voices":0,"combination":[],"aug_dim":"","rhythm_ratio":1.0,"chromatic_density":0.44},{"voice":1,"pitch":62,"start":29.5,"duration":0.6667,"velocity":127,"measure":12,"beat":1.25,"subject_pos":-1,"motif":"","motif_pos":-1,"best_pos":5,"similarity":0.536,"stretto":false,"stretto_voices":0,"combination":[],"aug_dim":"","rhythm_ratio":1.0,"chromatic_density":0.44},{"voice":0,"pitch":69,"start":29.6666,"duration":0.1667,"velocity":127,"measure":12,"beat":1.5,"subject_pos":-1,"motif":"","motif_pos":-1,"best_pos":2,"similarity":0.407,"stretto":false,"stretto_voices":0,"combination":[],"aug_dim":"","rhythm_ratio":1.0,"chromatic_density":0.44},{"voice":0,"pitch":67,"start":29.8333,"duration":0.1667,"velocity":127,"measure":12,"beat":1.75,"subject_pos":-1,"motif":"","motif_pos":-1,"best_pos":2,"similarity":0.45,"stretto":false,"stretto_voices":0,"combination":[],"aug_dim":"","rhythm_ratio":1.0,"chromatic_density":0.44},{"voice":0,"pitch":65,"start":30.0,"duration":0.1667,"velocity":127,"measure":12,"beat":2.0,"subject_pos":-1,"motif":"","motif_pos":-1,"best_pos":4,"similarity":0.464,"stretto":false,"stretto_voices":0,"combination":[],"aug_dim":"","rhythm_ratio":1.0,"chromatic_density":0.44},{"voice":0,"pitch":67,"start":30.1666,"duration":0.1667,"velocity":127,"measure":12,"beat":2.25,"subject_pos":-1,"motif":"","motif_pos":-1,"best_pos":5,"similarity":0.393,"stretto":false,"stretto_voices":0,"combination":[],"aug_dim":"","rhythm_ratio":1.0,"chromatic_density":0.44},{"voice":1,"pitch":59,"start":30.1666,"duration":0.1667,"velocity":127,"measure":12,"beat":2.25,"subject_pos":-1,"motif":"","motif_pos":-1,"best_pos":3,"similarity":0.543,"stretto":false,"stretto_voices":0,"combination":[],"aug_dim":"","rhythm_ratio":1.0,"chromatic_density":0.44},{"voice":0,"pitch":64,"start":30.3333,"duration":0.1667,"velocity":127,"measure":12,"beat":2.5,"subject_pos":-1,"motif":"","motif_pos":-1,"best_pos":4,"similarity":0.429,"stretto":false,"stretto_voices":0,"combination":[],"aug_dim":"","rhythm_ratio":1.0,"chromatic_density":0.44},{"voice":1,"pitch":61,"start":30.3333,"duration":0.1667,"velocity":127,"measure":12,"beat":2.5,"subject_pos":-1,"motif":"","motif_pos":-1,"best_pos":4,"similarity":0.679,"stretto":false,"stretto_voices":0,"combination":[],"aug_dim":"","rhythm_ratio":1.0,"chromatic_density":0.44},{"voice":0,"pitch":65,"start":30.5,"duration":0.3333,"velocity":127,"measure":12,"beat":2.75,"subject_pos":-1,"motif":"","motif_pos":-1,"best_pos":5,"similarity":0.321,"stretto":false,"stretto_voices":0,"combination":[],"aug_dim":"","rhythm_ratio":1.0,"chromatic_density":0.44},{"voice":1,"pitch":62,"start":30.5,"duration":0.1667,"velocity":127,"measure":12,"beat":2.75,"subject_pos":-1,"motif":"","motif_pos":-1,"best_pos":5,"similarity":0.8,"stretto":false,"stretto_voices":0,"combination":[],"aug_dim":"","rhythm_ratio":1.0,"chromatic_density":0.44},{"voice":1,"pitch":64,"start":30.6666,"duration":0.1667,"velocity":127,"measure":12,"beat":3.0,"subject_pos":-1,"motif":"","motif_pos":-1,"best_pos":6,"similarity":0.721,"stretto":false,"stretto_voices":0,"combination":[],"aug_dim":"","rhythm_ratio":1.0,"chromatic_density":0.44},{"voice":0,"pitch":74,"start":30.8333,"duration":0.1667,"velocity":127,"measure":12,"beat":3.25,"subject_pos":-1,"motif":"","motif_pos":-1,"best_pos":1,"similarity":0.243,"stretto":false,"stretto_voices":0,"combination":[],"aug_dim":"","rhythm_ratio":1.0,"chromatic_density":0.44},{"voice":1,"pitch":65,"start":30.8333,"duration":0.1667,"velocity":127,"measure":12,"beat":3.25,"subject_pos":-1,"motif":"","motif_pos":-1,"best_pos":7,"similarity":0.5,"stretto":false,"stretto_voices":0,"combination":[],"aug_dim":"","rhythm_ratio":1.0,"chromatic_density":0.44},{"voice":0,"pitch":67,"start":31.0,"duration":0.3333,"velocity":127,"measure":12,"beat":3.5,"subject_pos":-1,"motif":"","motif_pos":-1,"best_pos":2,"similarity":0.357,"stretto":false,"stretto_voices":0,"combination":[],"aug_dim":"","rhythm_ratio":1.0,"chromatic_density":0.44},{"voice":1,"pitch":64,"start":31.0,"duration":0.1667,"velocity":127,"measure":12,"beat":3.5,"subject_pos":-1,"motif":"","motif_pos":-1,"best_pos":4,"similarity":0.611,"stretto":false,"stretto_voices":0,"combination":[],"aug_dim":"","rhythm_ratio":1.0,"chromatic_density":0.44},{"voice":1,"pitch":65,"start":31.1666,"duration":0.1667,"velocity":127,"measure":12,"beat":3.75,"subject_pos":-1,"motif":"","motif_pos":-1,"best_pos":2,"similarity":0.529,"stretto":false,"stretto_voices":0,"combination":[],"aug_dim":"","rhythm_ratio":1.0,"chromatic_density":0.44},{"voice":0,"pitch":65,"start":31.3333,"duration":0.1667,"velocity":127,"measure":12,"beat":4.0,"subject_pos":-1,"motif":"enigmatic_cell","motif_pos":0,"best_pos":0,"similarity":1.0,"stretto":false,"stretto_voices":0,"combination":[],"aug_dim":"","rhythm_ratio":1.0,"chromatic_density":0.44},{"voice":1,"pitch":62,"start":31.3333,"duration":0.1667,"velocity":127,"measure":12,"beat":4.0,"subject_pos":-1,"motif":"","motif_pos":-1,"best_pos":3,"similarity":0.8,"stretto":false,"stretto_voices":0,"combination":[],"aug_dim":"","rhythm_ratio":1.0,"chromatic_density":0.44},{"voice":0,"pitch":64,"start":31.5,"duration":0.1667,"velocity":127,"measure":12,"beat":4.25,"subject_pos":-1,"motif":"enigmatic_cell","motif_pos":1,"best_pos":1,"similarity":1.0,"stretto":false,"stretto_voices":0,"combination":[],"aug_dim":"","rhythm_ratio":1.0,"chromatic_density":0.44},{"voice":1,"pitch":61,"start":31.5,"duration":0.1667,"velocity":127,"measure":12,"beat":4.25,"subject_pos":-1,"motif":"","motif_pos":-1,"best_pos":4,"similarity":0.864,"stretto":false,"stretto_voices":0,"combination":[],"aug_dim":"","rhythm_ratio":1.0,"chromatic_density":0.44},{"voice":0,"pitch":69,"start":31.6666,"duration":0.1667,"velocity":127,"measure":12,"beat":4.5,"subject_pos":-1,"motif":"enigmatic_cell","motif_pos":2,"best_pos":2,"similarity":1.0,"stretto":false,"stretto_voices":0,"combination":[],"aug_dim":"","rhythm_ratio":1.0,"chromatic_density":0.44},{"voice":1,"pitch":62,"start":31.6666,"duration":0.1667,"velocity":127,"measure":12,"beat":4.5,"subject_pos":-1,"motif":"","motif_pos":-1,"best_pos":5,"similarity":0.786,"stretto":false,"stretto_voices":0,"combination":[],"aug_dim":"","rhythm_ratio":1.0,"chromatic_density":0.44},{"voice":0,"pitch":67,"start":31.8333,"duration":0.1667,"velocity":127,"measure":12,"beat":4.75,"subject_pos":-1,"motif":"","motif_pos":-1,"best_pos":2,"similarity":0.721,"stretto":false,"stretto_voices":0,"combination":[],"aug_dim":"","rhythm_ratio":1.0,"chromatic_density":0.44},{"voice":1,"pitch":64,"start":31.8333,"duration":0.1667,"velocity":127,"measure":12,"beat":4.75,"subject_pos":-1,"motif":"","motif_pos":-1,"best_pos":6,"similarity":0.5,"stretto":false,"stretto_voices":0,"combination":[],"aug_dim":"","rhythm_ratio":1.0,"chromatic_density":0.44},{"voice":0,"pitch":65,"start":32.0,"duration":0.1667,"velocity":127,"measure":13,"beat":1.0,"subject_pos":-1,"motif":"","motif_pos":-1,"best_pos":3,"similarity":0.664,"stretto":false,"stretto_voices":0,"combination":[],"aug_dim":"","rhythm_ratio":1.0,"chromatic_density":0.438},{"voice":1,"pitch":57,"start":32.0,"duration":0.6667,"velocity":127,"measure":13,"beat":1.0,"subject_pos":-1,"motif":"","motif_pos":-1,"best_pos":6,"similarity":0.375,"stretto":false,"stretto_voices":0,"combination":[],"aug_dim":"","rhythm_ratio":1.0,"chromatic_density":0.438},{"voice":0,"pitch":64,"start":32.1666,"duration":0.1667,"velocity":127,"measure":13,"beat":1.25,"subject_pos":-1,"motif":"","motif_pos":-1,"best_pos":4,"similarity":0.543,"stretto":false,"stretto_voices":0,"combination":[],"aug_dim":"","rhythm_ratio":1.0,"chromatic_density":0.438},{"voice":0,"pitch":62,"start":32.3333,"duration":0.1667,"velocity":127,"measure":13,"beat":1.5,"subject_pos":-1,"motif":"","motif_pos":-1,"best_pos":3,"similarity":0.643,"stretto":false,"stretto_voices":0,"combination":[],"aug_dim":"","rhythm_ratio":1.0,"chromatic_density":0.438},{"voice":0,"pitch":61,"start":32.5,"duration":0.5,"velocity":127,"measure":13,"beat":1.75,"subject_pos":-1,"motif":"","motif_pos":-1,"best_pos":4,"similarity":0.679,"stretto":false,"stretto_voices":0,"combination":[],"aug_dim":"","rhythm_ratio":1.0,"chromatic_density":0.438},{"voice":1,"pitch":58,"start":32.6666,"duration":0.1667,"velocity":127,"measure":13,"beat":2.0,"subject_pos":-1,"motif":"","motif_pos":-1,"best_pos":2,"similarity":0.421,"stretto":false,"stretto_voices":0,"combination":[],"aug_dim":"","rhythm_ratio":1.0,"chromatic_density":0.438},{"voice":1,"pitch":55,"start":32.8333,"duration":0.1667,"velocity":127,"measure":13,"beat":2.25,"subject_pos":-1,"motif":"","motif_pos":-1,"best_pos":3,"similarity":0.514,"stretto":false,"stretto_voices":0,"combination":[],"aug_dim":"","rhythm_ratio":1.0,"chromatic_density":0.438},{"voice":0,"pitch":62,"start":33.0,"duration":0.3333,"velocity":127,"measure":13,"beat":2.5,"subject_pos":-1,"motif":"","motif_pos":-1,"best_pos":5,"similarity":0.464,"stretto":false,"stretto_voices":0,"combination":[],"aug_dim":"","rhythm_ratio":1.0,"chromatic_density":0.438},{"voice":1,"pitch":53,"start":33.0,"duration":0.1667,"velocity":127,"measure":13,"beat":2.5,"subject_pos":-1,"motif":"","motif_pos":-1,"best_pos":4,"similarity":0.507,"stretto":false,"stretto_voices":0,"combination":[],"aug_dim":"","rhythm_ratio":1.0,"chromatic_density":0.438},{"voice":1,"pitch":55,"start":33.1666,"duration":0.1667,"velocity":127,"measure":13,"beat":2.75,"subject_pos":-1,"motif":"","motif_pos":-1,"best_pos":5,"similarity":0.429,"stretto":false,"stretto_voices":0,"combination":[],"aug_dim":"","rhythm_ratio":1.0,"chromatic_density":0.438},{"voice":1,"pitch":52,"start":33.3333,"duration":0.1667,"velocity":127,"measure":13,"beat":3.0,"subject_pos":-1,"motif":"","motif_pos":-1,"best_pos":4,"similarity":0.471,"stretto":false,"stretto_voices":0,"combination":[],"aug_dim":"","rhythm_ratio":1.0,"chromatic_density":0.438},{"voice":1,"pitch":53,"start":33.5,"duration":0.1667,"velocity":127,"measure":13,"beat":3.25,"subject_pos":-1,"motif":"","motif_pos":-1,"best_pos":5,"similarity":0.407,"stretto":false,"stretto_voices":0,"combination":[],"aug_dim":"","rhythm_ratio":1.0,"chromatic_density":0.438},{"voice":1,"pitch":57,"start":33.6666,"duration":0.1667,"velocity":127,"measure":13,"beat":3.5,"subject_pos":-1,"motif":"","motif_pos":-1,"best_pos":0,"similarity":0.464,"stretto":false,"stretto_voices":0,"combination":[],"aug_dim":"","rhythm_ratio":1.0,"chromatic_density":0.438},{"voice":1,"pitch":62,"start":33.8333,"duration":0.1667,"velocity":127,"measure":13,"beat":3.75,"subject_pos":-1,"motif":"","motif_pos":-1,"best_pos":1,"similarity":0.714,"stretto":false,"stretto_voices":0,"combination":[],"aug_dim":"","rhythm_ratio":1.0,"chromatic_density":0.438},{"voice":1,"pitch":60,"start":34.0,"duration":0.1667,"velocity":127,"measure":13,"beat":4.0,"subject_pos":-1,"motif":"","motif_pos":-1,"best_pos":2,"similarity":0.786,"stretto":false,"stretto_voices":0,"combination":[],"aug_dim":"","rhythm_ratio":1.0,"chromatic_density":0.438},{"voice":1,"pitch":58,"start":34.1666,"duration":0.1667,"velocity":127,"measure":13,"beat":4.25,"subject_pos":-1,"motif":"","motif_pos":-1,"best_pos":3,"similarity":0.804,"stretto":false,"stretto_voices":0,"combination":[],"aug_dim":"","rhythm_ratio":1.0,"chromatic_density":0.438},{"voice":1,"pitch":57,"start":34.3333,"duration":0.1667,"velocity":127,"measure":13,"beat":4.5,"subject_pos":-1,"motif":"","motif_pos":-1,"best_pos":4,"similarity":0.757,"stretto":false,"stretto_voices":0,"combination":[],"aug_dim":"","rhythm_ratio":1.0,"chromatic_density":0.438},{"voice":1,"pitch":58,"start":34.5,"duration":0.1667,"velocity":127,"measure":13,"beat":4.75,"subject_pos":-1,"motif":"","motif_pos":-1,"best_pos":5,"similarity":0.55,"stretto":false,"stretto_voices":0,"combination":[],"aug_dim":"","rhythm_ratio":1.0,"chromatic_density":0.438},{"voice":1,"pitch":62,"start":34.6666,"duration":0.1667,"velocity":127,"measure":14,"beat":1.0,"subject_pos":-1,"motif":"","motif_pos":-1,"best_pos":0,"similarity":0.321,"stretto":false,"stretto_voices":0,"combination":[],"aug_dim":"","rhythm_ratio":1.0,"chromatic_density":0.278},{"voice":1,"pitch":67,"start":34.8333,"duration":0.1667,"velocity":127,"measure":14,"beat":1.25,"subject_pos":-1,"motif":"","motif_pos":-1,"best_pos":1,"similarity":0.357,"stretto":false,"stretto_voices":0,"combination":[],"aug_dim":"","rhythm_ratio":1.0,"chromatic_density":0.278},{"voice":1,"pitch":61,"start":35.0,"duration":0.1667,"velocity":127,"measure":14,"beat":1.5,"subject_pos":-1,"motif":"","motif_pos":-1,"best_pos":2,"similarity":0.286,"stretto":false,"stretto_voices":0,"combination":[],"aug_dim":"","rhythm_ratio":1.0,"chromatic_density":0.278},{"voice":1,"pitch":64,"start":35.1666,"duration":0.1667,"velocity":127,"measure":14,"beat":1.75,"subject_pos":-1,"motif":"","motif_pos":-1,"best_pos":3,"similarity":0.257,"stretto":false,"stretto_voices":0,"combination":[],"aug_dim":"","rhythm_ratio":1.0,"chromatic_density":0.278},{"voice":1,"pitch":57,"start":35.3333,"duration":0.1667,"velocity":127,"measure":14,"beat":2.0,"subject_pos":-1,"motif":"","motif_pos":-1,"best_pos":4,"similarity":0.325,"stretto":false,"stretto_voices":0,"combination":[],"aug_dim":"","rhythm_ratio":1.0,"chromatic_density":0.278},{"voice":1,"pitch":58,"start":35.5,"duration":0.1667,"velocity":127,"measure":14,"beat":2.25,"subject_pos":-1,"motif":"","motif_pos":-1,"best_pos":3,"similarity":0.368,"stretto":false,"stretto_voices":0,"combination":[],"aug_dim":"","rhythm_ratio":1.0,"chromatic_density":0.278},{"voice":1,"pitch":57,"start":35.6666,"duration":0.1667,"velocity":127,"measure":14,"beat":2.5,"subject_pos":-1,"motif":"","motif_pos":-1,"best_pos":2,"similarity":0.407,"stretto":false,"stretto_voices":0,"combination":[],"aug_dim":"","rhythm_ratio":1.0,"chromatic_density":0.278},{"voice":1,"pitch":55,"start":35.8333,"duration":0.1667,"velocity":127,"measure":14,"beat":2.75,"subject_pos":-1,"motif":"","motif_pos":-1,"best_pos":2,"similarity":0.45,"stretto":false,"stretto_voices":0,"combination":[],"aug_dim":"","rhythm_ratio":1.0,"chromatic_density":0.278},{"voice":0,"pitch":74,"start":36.0,"duration":0.5,"velocity":127,"measure":14,"beat":3.0,"subject_pos":-1,"motif":"","motif_pos":-1,"best_pos":2,"similarity":0.3,"stretto":false,"stretto_voices":0,"combination":[],"aug_dim":"","rhythm_ratio":1.0,"chromatic_density":0.278},{"voice":1,"pitch":53,"start":36.0,"duration":0.1667,"velocity":127,"measure":14,"beat":3.0,"subject_pos":-1,"motif":"","motif_pos":-1,"best_pos":4,"similarity":0.464,"stretto":false,"stretto_voices":0,"combination":[],"aug_dim":"","rhythm_ratio":1.0,"chromatic_density":0.278},{"voice":1,"pitch":55,"start":36.1666,"duration":0.1667,"velocity":127,"measure":14,"beat":3.25,"subject_pos":-1,"motif":"","motif_pos":-1,"best_pos":5,"similarity":0.393,"stretto":false,"stretto_voices":0,"combination":[],"aug_dim":"","rhythm_ratio":1.0,"chromatic_density":0.278},{"voice":1,"pitch":52,"start":36.3333,"duration":0.1667,"velocity":127,"measure":14,"beat":3.5,"subject_pos":-1,"motif":"","motif_pos":-1,"best_pos":4,"similarity":0.429,"stretto":false,"stretto_voices":0,"combination":[],"aug_dim":"","rhythm_ratio":1.0,"chromatic_density":0.278},{"voice":0,"pitch":69,"start":36.5,"duration":0.1667,"velocity":127,"measure":14,"beat":3.75,"subject_pos":-1,"motif":"","motif_pos":-1,"best_pos":3,"similarity":0.579,"stretto":false,"stretto_voices":0,"combination":[],"aug_dim":"","rhythm_ratio":1.0,"chromatic_density":0.278},{"voice":1,"pitch":53,"start":36.5,"duration":0.3333,"velocity":127,"measure":14,"beat":3.75,"subject_pos":-1,"motif":"","motif_pos":-1,"best_pos":5,"similarity":0.321,"stretto":false,"stretto_voices":0,"combination":[],"aug_dim":"","rhythm_ratio":1.0,"chromatic_density":0.278},{"voice":0,"pitch":68,"start":36.6666,"duration":0.1667,"velocity":127,"measure":14,"beat":4.0,"subject_pos":-1,"motif":"","motif_pos":-1,"best_pos":4,"similarity":0.757,"stretto":false,"stretto_voices":0,"combination":[],"aug_dim":"","rhythm_ratio":1.0,"chromatic_density":0.278},{"voice":0,"pitch":69,"start":36.8333,"duration":0.1667,"velocity":127,"measure":14,"beat":4.25,"subject_pos":-1,"motif":"","motif_pos":-1,"best_pos":5,"similarity":0.746,"stretto":false,"stretto_voices":0,"combination":[],"aug_dim":"","rhythm_ratio":1.0,"chromatic_density":0.278},{"voice":1,"pitch":62,"start":36.8333,"duration":0.1667,"velocity":127,"measure":14,"beat":4.25,"subject_pos":-1,"motif":"","motif_pos":-1,"best_pos":1,"similarity":0.243,"stretto":false,"stretto_voices":0,"combination":[],"aug_dim":"","rhythm_ratio":1.0,"chromatic_density":0.278},{"voice":0,"pitch":71,"start":37.0,"duration":0.1667,"velocity":127,"measure":14,"beat":4.5,"subject_pos":-1,"motif":"","motif_pos":-1,"best_pos":6,"similarity":0.529,"stretto":false,"stretto_voices":0,"combination":[],"aug_dim":"","rhythm_ratio":1.0,"chromatic_density":0.278},{"voice":1,"pitch":55,"start":37.0,"duration":0.3333,"velocity":127,"measure":14,"beat":4.5,"subject_pos":-1,"motif":"","motif_pos":-1,"best_pos":2,"similarity":0.357,"stretto":false,"stretto_voices":0,"combination":[],"aug_dim":"","rhythm_ratio":1.0,"chromatic_density":0.278},{"voice":0,"pitch":69,"start":37.1666,"duration":0.1667,"velocity":127,"measure":14,"beat":4.75,"subject_pos":-1,"motif":"","motif_pos":-1,"best_pos":5,"similarity":0.479,"stretto":false,"stretto_voices":0,"combination":[],"aug_dim":"","rhythm_ratio":1.0,"chromatic_density":0.278},{"voice":0,"pitch":71,"start":37.3333,"duration":0.1667,"velocity":127,"measure":15,"beat":1.0,"subject_pos":-1,"motif":"","motif_pos":-1,"best_pos":6,"similarity":0.593,"stretto":false,"stretto_voices":0,"combination":[],"aug_dim":"","rhythm_ratio":1.0,"chromatic_density":0.579},{"voice":1,"pitch":53,"start":37.3333,"duration":0.1667,"velocity":127,"measure":15,"beat":1.0,"subject_pos":-1,"motif":"enigmatic_cell","motif_pos":0,"best_pos":0,"similarity":1.0,"stretto":false,"stretto_voices":0,"combination":[],"aug_dim":"","rhythm_ratio":1.0,"chromatic_density":0.579},{"voice":0,"pitch":72,"start":37.5,"duration":0.1667,"velocity":127,"measure":15,"beat":1.25,"subject_pos":-1,"motif":"","motif_pos":-1,"best_pos":5,"similarity":0.436,"stretto":false,"stretto_voices":0,"combination":[],"aug_dim":"","rhythm_ratio":1.0,"chromatic_density":0.579},{"voice":1,"pitch":52,"start":37.5,"duration":0.1667,"velocity":127,"measure":15,"beat":1.25,"subject_pos":-1,"motif":"enigmatic_cell","motif_pos":1,"best_pos":1,"similarity":1.0,"stretto":false,"stretto_voices":0,"combination":[],"aug_dim":"","rhythm_ratio":1.0,"chromatic_density":0.579},{"voice":0,"pitch":71,"start":37.6666,"duration":0.1667,"velocity":127,"measure":15,"beat":1.5,"subject_pos":-1,"motif":"","motif_pos":-1,"best_pos":4,"similarity":0.539,"stretto":false,"stretto_voices":0,"combination":[],"aug_dim":"","rhythm_ratio":1.0,"chromatic_density":0.579},{"voice":1,"pitch":57,"start":37.6666,"duration":0.1667,"velocity":127,"measure":15,"beat":1.5,"subject_pos":-1,"motif":"enigmatic_cell","motif_pos":2,"best_pos":2,"similarity":1.0,"stretto":false,"stretto_voices":0,"combination":[],"aug_dim":"","rhythm_ratio":1.0,"chromatic_density":0.579},{"voice":0,"pitch":73,"start":37.8333,"duration":0.1667,"velocity":127,"measure":15,"beat":1.75,"subject_pos":-1,"motif":"","motif_pos":-1,"best_pos":6,"similarity":0.625,"stretto":false,"stretto_voices":0,"combination":[],"aug_dim":"","rhythm_ratio":1.0,"chromatic_density":0.579},{"voice":1,"pitch":55,"start":37.8333,"duration":0.1667,"velocity":127,"measure":15,"beat":1.75,"subject_pos":-1,"motif":"","motif_pos":-1,"best_pos":2,"similarity":0.721,"stretto":false,"stretto_voices":0,"combination":[],"aug_dim":"","rhythm_ratio":1.0,"chromatic_density":0.579},{"voice":0,"pitch":74,"start":38.0,"duration":0.1667,"velocity":127,"measure":15,"beat":2.0,"subject_pos":-1,"motif":"","motif_pos":-1,"best_pos":3,"similarity":0.543,"stretto":false,"stretto_voices":0,"combination":[],"aug_dim":"","rhythm_ratio":1.0,"chromatic_density":0.579},{"voice":1,"pitch":53,"start":38.0,"duration":0.1667,"velocity":127,"measure":15,"beat":2.0,"subject_pos":-1,"motif":"","motif_pos":-1,"best_pos":3,"similarity":0.664,"stretto":false,"stretto_voices":0,"combination":[],"aug_dim":"","rhythm_ratio":1.0,"chromatic_density":0.579},{"voice":0,"pitch":73,"start":38.1666,"duration":0.1667,"velocity":127,"measure":15,"beat":2.25,"subject_pos":-1,"motif":"","motif_pos":-1,"best_pos":4,"similarity":0.743,"stretto":false,"stretto_voices":0,"combination":[],"aug_dim":"","rhythm_ratio":1.0,"chromatic_density":0.579},{"voice":1,"pitch":52,"start":38.1666,"duration":0.1667,"velocity":127,"measure":15,"beat":2.25,"subject_pos":-1,"motif":"","motif_pos":-1,"best_pos":4,"similarity":0.543,"stretto":false,"stretto_voices":0,"combination":[],"aug_dim":"","rhythm_ratio":1.0,"chromatic_density":0.579},{"voice":0,"pitch":74,"start":38.3333,"duration":0.1667,"velocity":127,"measure":15,"beat":2.5,"subject_pos":-1,"motif":"","motif_pos":-1,"best_pos":5,"similarity":0.736,"stretto":false,"stretto_voices":0,"combination":[],"aug_dim":"","rhythm_ratio":1.0,"chromatic_density":0.579},{"voice":1,"pitch":50,"start":38.3333,"duration":0.1667,"velocity":127,"measure":15,"beat":2.5,"subject_pos":-1,"motif":"","motif_pos":-1,"best_pos":3,"similarity":0.643,"stretto":false,"stretto_voices":0,"combination":[],"aug_dim":"","rhythm_ratio":1.0,"chromatic_density":0.579},{"voice":0,"pitch":76,"start":38.5,"duration":0.1667,"velocity":127,"measure":15,"beat":2.75,"subject_pos":-1,"motif":"","motif_pos":-1,"best_pos":6,"similarity":0.529,"stretto":false,"stretto_voices":0,"combination":[],"aug_dim":"","rhythm_ratio":1.0,"chromatic_density":0.579},{"voice":1,"pitch":49,"start":38.5,"duration":0.5,"velocity":127,"measure":15,"beat":2.75,"subject_pos":-1,"motif":"","motif_pos":-1,"best_pos":4,"similarity":0.679,"stretto":false,"stretto_voices":0,"combination":[],"aug_dim":"","rhythm_ratio":1.0,"chromatic_density":0.579},{"voice":0,"pitch":74,"start":38.6666,"duration":0.1667,"velocity":127,"measure":15,"beat":3.0,"subject_pos":-1,"motif":"","motif_pos":-1,"best_pos":5,"similarity":0.479,"stretto":false,"stretto_voices":0,"combination":[],"aug_dim":"","rhythm_ratio":1.0,"chromatic_density":0.579},{"voice":0,"pitch":76,"start":38.8333,"duration":0.1667,"velocity":127,"measure":15,"beat":3.25,"subject_pos":-1,"motif":"","motif_pos":-1,"best_pos":6,"similarity":0.593,"stretto":false,"stretto_voices":0,"combination":[],"aug_dim":"","rhythm_ratio":1.0,"chromatic_density":0.579},{"voice":0,"pitch":77,"start":39.0,"duration":0.3333,"velocity":127,"measure":15,"beat":3.5,"subject_pos":-1,"motif":"","motif_pos":-1,"best_pos":7,"similarity":0.436,"stretto":false,"stretto_voices":0,"combination":[],"aug_dim":"","rhythm_ratio":1.0,"chromatic_density":0.579},{"voice":1,"pitch":50,"start":39.0,"duration":0.3333,"velocity":127,"measure":15,"beat":3.5,"subject_pos":-1,"motif":"","motif_pos":-1,"best_pos":5,"similarity":0.464,"stretto":false,"stretto_voices":0,"combination":[],"aug_dim":"","rhythm_ratio":1.0,"chromatic_density":0.579},{"voice":0,"pitch":76,"start":39.5,"duration":0.3333,"velocity":127,"measure":15,"beat":4.25,"subject_pos":-1,"motif":"","motif_pos":-1,"best_pos":2,"similarity":0.389,"stretto":false,"stretto_voices":0,"combination":[],"aug_dim":"","rhythm_ratio":1.0,"chromatic_density":0.579},{"voice":0,"pitch":74,"start":40.0,"duration":0.3333,"velocity":127,"measure":16,"beat":1.0,"subject_pos":-1,"motif":"","motif_pos":-1,"best_pos":2,"similarity":0.457,"stretto":false,"stretto_voices":0,"combination":[],"aug_dim":"","rhythm_ratio":1.0,"chromatic_density":0.444},{"voice":0,"pitch":74,"start":40.4132,"duration":0.3333,"velocity":127,"measure":16,"beat":1.6198,"subject_pos":-1,"motif":"","motif_pos":-1,"best_pos":3,"similarity":0.529,"stretto":false,"stretto_voices":0,"combination":[],"aug_dim":"","rhythm_ratio":1.0,"chromatic_density":0.444},{"voice":0,"pitch":73,"start":40.5,"duration":0.8333,"velocity":127,"measure":16,"beat":1.75,"subject_pos":-1,"motif":"","motif_pos":-1,"best_pos":4,"similarity":0.55,"stretto":false,"stretto_voices":0,"combination":[],"aug_dim":"","rhythm_ratio":1.0,"chromatic_density":0.444},{"voice":0,"pitch":69,"start":41.3333,"duration":0.1667,"velocity":127,"measure":16,"beat":3.0,"subject_pos":-1,"motif":"","motif_pos":-1,"best_pos":5,"similarity":0.507,"stretto":false,"stretto_voices":0,"combination":[],"aug_dim":"","rhythm_ratio":1.0,"chromatic_density":0.444},{"voice":0,"pitch":71,"start":41.5,"duration":0.3333,"velocity":127,"measure":16,"beat":3.25,"subject_pos":-1,"motif":"","motif_pos":-1,"best_pos":5,"similarity":0.604,"stretto":false,"stretto_voices":0,"combination":[],"aug_dim":"","rhythm_ratio":1.0,"chromatic_density":0.444},{"voice":0,"pitch":73,"start":41.8333,"duration":0.1667,"velocity":127,"measure":16,"beat":3.75,"subject_pos":-1,"motif":"","motif_pos":-1,"best_pos":6,"similarity":0.65,"stretto":false,"stretto_voices":0,"combination":[],"aug_dim":"","rhythm_ratio":1.0,"chromatic_density":0.444},{"voice":0,"pitch":74,"start":42.0,"duration":0.1667,"velocity":127,"measure":16,"beat":4.0,"subject_pos":-1,"motif":"","motif_pos":-1,"best_pos":7,"similarity":0.464,"stretto":false,"stretto_voices":0,"combination":[],"aug_dim":"","rhythm_ratio":1.0,"chromatic_density":0.444},{"voice":1,"pitch":62,"start":42.0,"duration":0.5,"velocity":127,"measure":16,"beat":4.0,"subject_pos":-1,"motif":"","motif_pos":-1,"best_pos":2,"similarity":0.3,"stretto":false,"stretto_voices":0,"combination":[],"aug_dim":"","rhythm_ratio":1.0,"chromatic_density":0.444},{"voice":0,"pitch":72,"start":42.1666,"duration":0.1667,"velocity":127,"measure":16,"beat":4.25,"subject_pos":-1,"motif":"","motif_pos":-1,"best_pos":3,"similarity":0.593,"stretto":false,"stretto_voices":0,"combination":[],"aug_dim":"","rhythm_ratio":1.0,"chromatic_density":0.444},{"voice":0,"pitch":71,"start":42.3333,"duration":0.1667,"velocity":127,"measure":16,"beat":4.5,"subject_pos":-1,"motif":"","motif_pos":-1,"best_pos":4,"similarity":0.668,"stretto":false,"stretto_voices":0,"combination":[],"aug_dim":"","rhythm_ratio":1.0,"chromatic_density":0.444},{"voice":0,"pitch":72,"start":42.5,"duration":0.3333,"velocity":127,"measure":16,"beat":4.75,"subject_pos":-1,"motif":"","motif_pos":-1,"best_pos":5,"similarity":0.5,"stretto":false,"stretto_voices":0,"combination":[],"aug_dim":"","rhythm_ratio":1.0,"chromatic_density":0.444},{"voice":1,"pitch":57,"start":42.5,"duration":0.1667,"velocity":127,"measure":16,"beat":4.75,"subject_pos":-1,"motif":"","motif_pos":-1,"best_pos":3,"similarity":0.579,"stretto":false,"stretto_voices":0,"combination":[],"aug_dim":"","rhythm_ratio":1.0,"chromatic_density":0.444},{"voice":1,"pitch":56,"start":42.6666,"duration":0.1667,"velocity":127,"measure":17,"beat":1.0,"subject_pos":-1,"motif":"","motif_pos":-1,"best_pos":4,"similarity":0.757,"stretto":false,"stretto_voices":0,"combination":[],"aug_dim":"","rhythm_ratio":1.0,"chromatic_density":0.44},{"voice":0,"pitch":81,"start":42.8333,"duration":0.1667,"velocity":127,"measure":17,"beat":1.25,"subject_pos":-1,"motif":"","motif_pos":-1,"best_pos":3,"similarity":0.371,"stretto":false,"stretto_voices":0,"combination":[],"aug_dim":"","rhythm_ratio":1.0,"chromatic_density":0.44},{"voice":1,"pitch":57,"start":42.8333,"duration":0.1667,"velocity":127,"measure":17,"beat":1.25,"subject_pos":-1,"motif":"","motif_pos":-1,"best_pos":5,"similarity":0.746,"stretto":false,"stretto_voices":0,"combination":[],"aug_dim":"","rhythm_ratio":1.0,"chromatic_density":0.44},{"voice":0,"pitch":80,"start":43.0,"duration":0.3333,"velocity":127,"measure":17,"beat":1.5,"subject_pos":-1,"motif":"","motif_pos":-1,"best_pos":4,"similarity":0.454,"stretto":false,"stretto_voices":0,"combination":[],"aug_dim":"","rhythm_ratio":1.0,"chromatic_density":0.44},{"voice":1,"pitch":59,"start":43.0,"duration":0.1667,"velocity":127,"measure":17,"beat":1.5,"subject_pos":-1,"motif":"","motif_pos":-1,"best_pos":6,"similarity":0.529,"stretto":false,"stretto_voices":0,"combination":[],"aug_dim":"","rhythm_ratio":1.0,"chromatic_density":0.44},{"voice":1,"pitch":57,"start":43.1666,"duration":0.1667,"velocity":127,"measure":17,"beat":1.75,"subject_pos":-1,"motif":"","motif_pos":-1,"best_pos":5,"similarity":0.479,"stretto":false,"stretto_voices":0,"combination":[],"aug_dim":"","rhythm_ratio":1.0,"chromatic_density":0.44},{"voice":0,"pitch":74,"start":43.3333,"duration":0.1667,"velocity":127,"measure":17,"beat":2.0,"subject_pos":-1,"motif":"","motif_pos":-1,"best_pos":5,"similarity":0.464,"stretto":false,"stretto_voices":0,"combination":[],"aug_dim":"","rhythm_ratio":1.0,"chromatic_density":0.44},{"voice":1,"pitch":59,"start":43.3333,"duration":0.1667,"velocity":127,"measure":17,"beat":2.0,"subject_pos":-1,"motif":"","motif_pos":-1,"best_pos":6,"similarity":0.593,"stretto":false,"stretto_voices":0,"combination":[],"aug_dim":"","rhythm_ratio":1.0,"chromatic_density":0.44},{"voice":0,"pitch":76,"start":43.5,"duration":0.3333,"velocity":127,"measure":17,"beat":2.25,"subject_pos":-1,"motif":"","motif_pos":-1,"best_pos":6,"similarity":0.429,"stretto":false,"stretto_voices":0,"combination":[],"aug_dim":"","rhythm_ratio":1.0,"chromatic_density":0.44},{"voice":1,"pitch":60,"start":43.5,"duration":0.1667,"velocity":127,"measure":17,"beat":2.25,"subject_pos":-1,"motif":"","motif_pos":-1,"best_pos":5,"similarity":0.436,"stretto":false,"stretto_voices":0,"combination":[],"aug_dim":"","rhythm_ratio":1.0,"chromatic_density":0.44},{"voice":1,"pitch":59,"start":43.6666,"duration":0.1667,"velocity":127,"measure":17,"beat":2.5,"subject_pos":-1,"motif":"","motif_pos":-1,"best_pos":4,"similarity":0.539,"stretto":false,"stretto_voices":0,"combination":[],"aug_dim":"","rhythm_ratio":1.0,"chromatic_density":0.44},{"voice":0,"pitch":79,"start":43.8333,"duration":0.1667,"velocity":127,"measure":17,"beat":2.75,"subject_pos":-1,"motif":"","motif_pos":-1,"best_pos":1,"similarity":0.429,"stretto":false,"stretto_voices":0,"combination":[],"aug_dim":"","rhythm_ratio":1.0,"chromatic_density":0.44},{"voice":1,"pitch":61,"start":43.8333,"duration":0.1667,"velocity":127,"measure":17,"beat":2.75,"subject_pos":-1,"motif":"","motif_pos":-1,"best_pos":6,"similarity":0.625,"stretto":false,"stretto_voices":0,"combination":[],"aug_dim":"","rhythm_ratio":1.0,"chromatic_density":0.44},{"voice":0,"pitch":77,"start":44.0,"duration":0.1667,"velocity":127,"measure":17,"beat":3.0,"subject_pos":-1,"motif":"","motif_pos":-1,"best_pos":2,"similarity":0.482,"stretto":false,"stretto_voices":0,"combination":[],"aug_dim":"","rhythm_ratio":1.0,"chromatic_density":0.44},{"voice":1,"pitch":62,"start":44.0,"duration":0.1667,"velocity":127,"measure":17,"beat":3.0,"subject_pos":-1,"motif":"","motif_pos":-1,"best_pos":3,"similarity":0.543,"stretto":false,"stretto_voices":0,"combination":[],"aug_dim":"","rhythm_ratio":1.0,"chromatic_density":0.44},{"voice":0,"pitch":76,"start":44.1666,"duration":0.1667,"velocity":127,"measure":17,"beat":3.25,"subject_pos":-1,"motif":"","motif_pos":-1,"best_pos":2,"similarity":0.429,"stretto":false,"stretto_voices":0,"combination":[],"aug_dim":"","rhythm_ratio":1.0,"chromatic_density":0.44},{"voice":1,"pitch":61,"start":44.1666,"duration":0.1667,"velocity":127,"measure":17,"beat":3.25,"subject_pos":-1,"motif":"","motif_pos":-1,"best_pos":4,"similarity":0.743,"stretto":false,"stretto_voices":0,"combination":[],"aug_dim":"","rhythm_ratio":1.0,"chromatic_density":0.44},{"voice":0,"pitch":74,"start":44.3333,"duration":0.1667,"velocity":127,"measure":17,"beat":3.5,"subject_pos":-1,"motif":"","motif_pos":-1,"best_pos":3,"similarity":0.507,"stretto":false,"stretto_voices":0,"combination":[],"aug_dim":"","rhythm_ratio":1.0,"chromatic_density":0.44},{"voice":1,"pitch":62,"start":44.3333,"duration":0.1667,"velocity":127,"measure":17,"beat":3.5,"subject_pos":-1,"motif":"","motif_pos":-1,"best_pos":5,"similarity":0.736,"stretto":false,"stretto_voices":0,"combination":[],"aug_dim":"","rhythm_ratio":1.0,"chromatic_density":0.44},{"voice":0,"pitch":73,"start":44.5,"duration":0.3333,"velocity":127,"measure":17,"beat":3.75,"subject_pos":-1,"motif":"","motif_pos":-1,"best_pos":4,"similarity":0.407,"stretto":false,"stretto_voices":0,"combination":[],"aug_dim":"","rhythm_ratio":1.0,"chromatic_density":0.44},{"voice":1,"pitch":64,"start":44.5,"duration":0.1667,"velocity":127,"measure":17,"beat":3.75,"subject_pos":-1,"motif":"","motif_pos":-1,"best_pos":6,"similarity":0.529,"stretto":false,"stretto_voices":0,"combination":[],"aug_dim":"","rhythm_ratio":1.0,"chromatic_density":0.44},{"voice":1,"pitch":62,"start":44.6666,"duration":0.1667,"velocity":127,"measure":17,"beat":4.0,"subject_pos":-1,"motif":"","motif_pos":-1,"best_pos":5,"similarity":0.479,"stretto":false,"stretto_voices":0,"combination":[],"aug_dim":"","rhythm_ratio":1.0,"chromatic_density":0.44},{"voice":0,"pitch":82,"start":44.8333,"duration":0.1667,"velocity":127,"measure":17,"beat":4.25,"subject_pos":-1,"motif":"","motif_pos":-1,"best_pos":3,"similarity":0.357,"stretto":false,"stretto_voices":0,"combination":[],"aug_dim":"","rhythm_ratio":1.0,"chromatic_density":0.44},{"voice":1,"pitch":64,"start":44.8333,"duration":0.1667,"velocity":127,"measure":17,"beat":4.25,"subject_pos":-1,"motif":"","motif_pos":-1,"best_pos":6,"similarity":0.593,"stretto":false,"stretto_voices":0,"combination":[],"aug_dim":"","rhythm_ratio":1.0,"chromatic_density":0.44},{"voice":0,"pitch":81,"start":45.0,"duration":0.1667,"velocity":127,"measure":17,"beat":4.5,"subject_pos":-1,"motif":"","motif_pos":-1,"best_pos":1,"similarity":0.464,"stretto":false,"stretto_voices":0,"combination":[],"aug_dim":"","rhythm_ratio":1.0,"chromatic_density":0.44},{"voice":1,"pitch":65,"start":45.0,"duration":0.3333,"velocity":127,"measure":17,"beat":4.5,"subject_pos":-1,"motif":"","motif_pos":-1,"best_pos":7,"similarity":0.436,"stretto":false,"stretto_voices":0,"combination":[],"aug_dim":"","rhythm_ratio":1.0,"chromatic_density":0.44},{"voice":0,"pitch":77,"start":45.1666,"duration":0.1667,"velocity":127,"measure":17,"beat":4.75,"subject_pos":-1,"motif":"","motif_pos":-1,"best_pos":2,"similarity":0.65,"stretto":false,"stretto_voices":0,"combination":[],"aug_dim":"","rhythm_ratio":1.0,"chromatic_density":0.44},{"voice":0,"pitch":74,"start":45.3333,"duration":0.1667,"velocity":127,"measure":18,"beat":1.0,"subject_pos":-1,"motif":"","motif_pos":-1,"best_pos":3,"similarity":0.586,"stretto":false,"stretto_voices":0,"combination":[],"aug_dim":"","rhythm_ratio":1.0,"chromatic_density":0.176},{"voice":0,"pitch":74,"start":45.5,"duration":0.1667,"velocity":127,"measure":18,"beat":1.25,"subject_pos":-1,"motif":"","motif_pos":-1,"best_pos":4,"similarity":0.421,"stretto":false,"stretto_voices":0,"combination":[],"aug_dim":"","rhythm_ratio":1.0,"chromatic_density":0.176},{"voice":1,"pitch":64,"start":45.5,"duration":0.3333,"velocity":127,"measure":18,"beat":1.25,"subject_pos":-1,"motif":"","motif_pos":-1,"best_pos":2,"similarity":0.389,"stretto":false,"stretto_voices":0,"combination":[],"aug_dim":"","rhythm_ratio":1.0,"chromatic_density":0.176},{"voice":0,"pitch":79,"start":45.6666,"duration":0.1667,"velocity":127,"measure":18,"beat":1.5,"subject_pos":-1,"motif":"","motif_pos":-1,"best_pos":1,"similarity":0.329,"stretto":false,"stretto_voices":0,"combination":[],"aug_dim":"","rhythm_ratio":1.0,"chromatic_density":0.176},{"voice":0,"pitch":72,"start":45.8333,"duration":0.1667,"velocity":127,"measure":18,"beat":1.75,"subject_pos":-1,"motif":"","motif_pos":-1,"best_pos":2,"similarity":0.2,"stretto":false,"stretto_voices":0,"combination":[],"aug_dim":"","rhythm_ratio":1.0,"chromatic_density":0.176},{"voice":0,"pitch":72,"start":46.0,"duration":0.1667,"velocity":127,"measure":18,"beat":2.0,"subject_pos":-1,"motif":"","motif_pos":-1,"best_pos":0,"similarity":0.307,"stretto":false,"stretto_voices":0,"combination":[],"aug_dim":"","rhythm_ratio":1.0,"chromatic_density":0.176},{"voice":1,"pitch":62,"start":46.0,"duration":0.3333,"velocity":127,"measure":18,"beat":2.0,"subject_pos":-1,"motif":"","motif_pos":-1,"best_pos":2,"similarity":0.457,"stretto":false,"stretto_voices":0,"combination":[],"aug_dim":"","rhythm_ratio":1.0,"chromatic_density":0.176},{"voice":0,"pitch":77,"start":46.1666,"duration":0.1667,"velocity":127,"measure":18,"beat":2.25,"subject_pos":-1,"motif":"","motif_pos":-1,"best_pos":1,"similarity":0.4,"stretto":false,"stretto_voices":0,"combination":[],"aug_dim":"","rhythm_ratio":1.0,"chromatic_density":0.176},{"voice":0,"pitch":70,"start":46.3333,"duration":0.1667,"velocity":127,"measure":18,"beat":2.5,"subject_pos":-1,"motif":"","motif_pos":-1,"best_pos":2,"similarity":0.35,"stretto":false,"stretto_voices":0,"combination":[],"aug_dim":"","rhythm_ratio":1.0,"chromatic_density":0.176},{"voice":1,"pitch":62,"start":46.4131,"duration":0.3333,"velocity":127,"measure":18,"beat":2.6198,"subject_pos":-1,"motif":"","motif_pos":-1,"best_pos":3,"similarity":0.529,"stretto":false,"stretto_voices":0,"combination":[],"aug_dim":"","rhythm_ratio":1.0,"chromatic_density":0.176},{"voice":0,"pitch":70,"start":46.5,"duration":0.1667,"velocity":127,"measure":18,"beat":2.75,"subject_pos":-1,"motif":"","motif_pos":-1,"best_pos":3,"similarity":0.486,"stretto":false,"stretto_voices":0,"combination":[],"aug_dim":"","rhythm_ratio":1.0,"chromatic_density":0.176},{"voice":1,"pitch":61,"start":46.5,"duration":0.8333,"velocity":127,"measure":18,"beat":2.75,"subject_pos":-1,"motif":"","motif_pos":-1,"best_pos":4,"similarity":0.55,"stretto":false,"stretto_voices":0,"combination":[],"aug_dim":"","rhythm_ratio":1.0,"chromatic_density":0.176},{"voice":0,"pitch":69,"start":46.6666,"duration":0.1667,"velocity":127,"measure":18,"beat":3.0,"subject_pos":-1,"motif":"","motif_pos":-1,"best_pos":4,"similarity":0.486,"stretto":false,"stretto_voices":0,"combination":[],"aug_dim":"","rhythm_ratio":1.0,"chromatic_density":0.176},{"voice":0,"pitch":67,"start":46.8333,"duration":0.1667,"velocity":127,"measure":18,"beat":3.25,"subject_pos":-1,"motif":"","motif_pos":-1,"best_pos":5,"similarity":0.479,"stretto":false,"stretto_voices":0,"combination":[],"aug_dim":"","rhythm_ratio":1.0,"chromatic_density":0.176},{"voice":0,"pitch":69,"start":47.0,"duration":0.1667,"velocity":127,"measure":18,"beat":3.5,"subject_pos":-1,"motif":"","motif_pos":-1,"best_pos":6,"similarity":0.4,"stretto":false,"stretto_voices":0,"combination":[],"aug_dim":"","rhythm_ratio":1.0,"chromatic_density":0.176},{"voice":0,"pitch":73,"start":47.1666,"duration":0.1667,"velocity":127,"measure":18,"beat":3.75,"subject_pos":-1,"motif":"","motif_pos":-1,"best_pos":5,"similarity":0.257,"stretto":false,"stretto_voices":0,"combination":[],"aug_dim":"","rhythm_ratio":1.0,"chromatic_density":0.176},{"voice":0,"pitch":76,"start":47.3333,"duration":0.1667,"velocity":127,"measure":18,"beat":4.0,"subject_pos":-1,"motif":"","motif_pos":-1,"best_pos":6,"similarity":0.236,"stretto":false,"stretto_voices":0,"combination":[],"aug_dim":"","rhythm_ratio":1.0,"chromatic_density":0.176},{"voice":1,"pitch":57,"start":47.3333,"duration":0.1667,"velocity":127,"measure":18,"beat":4.0,"subject_pos":-1,"motif":"","motif_pos":-1,"best_pos":5,"similarity":0.507,"stretto":false,"stretto_voices":0,"combination":[],"aug_dim":"","rhythm_ratio":1.0,"chromatic_density":0.176},{"voice":0,"pitch":79,"start":47.5,"duration":0.1667,"velocity":127,"measure":18,"beat":4.25,"subject_pos":-1,"motif":"","motif_pos":-1,"best_pos":1,"similarity":0.411,"stretto":false,"stretto_voices":0,"combination":[],"aug_dim":"","rhythm_ratio":1.0,"chromatic_density":0.176},{"voice":1,"pitch":59,"start":47.5,"duration":0.3333,"velocity":127,"measure":18,"beat":4.25,"subject_pos":-1,"motif":"","motif_pos":-1,"best_pos":5,"similarity":0.604,"stretto":false,"stretto_voices":0,"combination":[],"aug_dim":"","rhythm_ratio":1.0,"chromatic_density":0.176},{"voice":0,"pitch":77,"start":47.6666,"duration":0.1667,"velocity":127,"measure":18,"beat":4.5,"subject_pos":-1,"motif":"","motif_pos":-1,"best_pos":3,"similarity":0.596,"stretto":false,"stretto_voices":0,"combination":[],"aug_dim":"","rhythm_ratio":1.0,"chromatic_density":0.176},{"voice":0,"pitch":76,"start":47.8333,"duration":0.1667,"velocity":127,"measure":18,"beat":4.75,"subject_pos":-1,"motif":"","motif_pos":-1,"best_pos":4,"similarity":0.664,"stretto":false,"stretto_voices":0,"combination":[],"aug_dim":"","rhythm_ratio":1.0,"chromatic_density":0.176},{"voice":1,"pitch":61,"start":47.8333,"duration":0.1667,"velocity":127,"measure":18,"beat":4.75,"subject_pos":-1,"motif":"","motif_pos":-1,"best_pos":6,"similarity":0.65,"stretto":false,"stretto_voices":0,"combination":[],"aug_dim":"","rhythm_ratio":1.0,"chromatic_density":0.176},{"voice":0,"pitch":77,"start":48.0,"duration":0.1667,"velocity":127,"measure":19,"beat":1.0,"subject_pos":-1,"motif":"","motif_pos":-1,"best_pos":5,"similarity":0.507,"stretto":false,"stretto_voices":0,"combination":[],"aug_dim":"","rhythm_ratio":1.0,"chromatic_density":0.37},{"voice":1,"pitch":62,"start":48.0,"duration":0.1667,"velocity":127,"measure":19,"beat":1.0,"subject_pos":-1,"motif":"","motif_pos":-1,"best_pos":7,"similarity":0.464,"stretto":false,"stretto_voices":0,"combination":[],"aug_dim":"","rhythm_ratio":1.0,"chromatic_density":0.37},{"voice":0,"pitch":76,"start":48.1666,"duration":0.1667,"velocity":127,"measure":19,"beat":1.25,"subject_pos":-1,"motif":"","motif_pos":-1,"best_pos":4,"similarity":0.514,"stretto":false,"stretto_voices":0,"combination":[],"aug_dim":"","rhythm_ratio":1.0,"chromatic_density":0.37},{"voice":1,"pitch":60,"start":48.1666,"duration":0.1667,"velocity":127,"measure":19,"beat":1.25,"subject_pos":-1,"motif":"","motif_pos":-1,"best_pos":3,"similarity":0.593,"stretto":false,"stretto_voices":0,"combination":[],"aug_dim":"","rhythm_ratio":1.0,"chromatic_density":0.37},{"voice":0,"pitch":74,"start":48.3333,"duration":0.1667,"velocity":127,"measure":19,"beat":1.5,"subject_pos":-1,"motif":"","motif_pos":-1,"best_pos":5,"similarity":0.479,"stretto":false,"stretto_voices":0,"combination":[],"aug_dim":"","rhythm_ratio":1.0,"chromatic_density":0.37},{"voice":1,"pitch":59,"start":48.3333,"duration":0.1667,"velocity":127,"measure":19,"beat":1.5,"subject_pos":-1,"motif":"","motif_pos":-1,"best_pos":4,"similarity":0.668,"stretto":false,"stretto_voices":0,"combination":[],"aug_dim":"","rhythm_ratio":1.0,"chromatic_density":0.37},{"voice":0,"pitch":76,"start":48.5,"duration":0.1667,"velocity":127,"measure":19,"beat":1.75,"subject_pos":-1,"motif":"","motif_pos":-1,"best_pos":6,"similarity":0.4,"stretto":false,"stretto_voices":0,"combination":[],"aug_dim":"","rhythm_ratio":1.0,"chromatic_density":0.37},{"voice":1,"pitch":60,"start":48.5,"duration":0.3333,"velocity":127,"measure":19,"beat":1.75,"subject_pos":-1,"motif":"","motif_pos":-1,"best_pos":5,"similarity":0.5,"stretto":false,"stretto_voices":0,"combination":[],"aug_dim":"","rhythm_ratio":1.0,"chromatic_density":0.37},{"voice":0,"pitch":74,"start":48.6666,"duration":0.1667,"velocity":127,"measure":19,"beat":2.0,"subject_pos":-1,"motif":"","motif_pos":-1,"best_pos":2,"similarity":0.464,"stretto":false,"stretto_voices":0,"combination":[],"aug_dim":"","rhythm_ratio":1.0,"chromatic_density":0.37},{"voice":0,"pitch":72,"start":48.8333,"duration":0.1667,"velocity":127,"measure":19,"beat":2.25,"subject_pos":-1,"motif":"","motif_pos":-1,"best_pos":5,"similarity":0.4,"stretto":false,"stretto_voices":0,"combination":[],"aug_dim":"","rhythm_ratio":1.0,"chromatic_density":0.37},{"voice":1,"pitch":69,"start":48.8333,"duration":0.1667,"velocity":127,"measure":19,"beat":2.25,"subject_pos":-1,"motif":"","motif_pos":-1,"best_pos":3,"similarity":0.371,"stretto":false,"stretto_voices":0,"combination":[],"aug_dim":"","rhythm_ratio":1.0,"chromatic_density":0.37},{"voice":0,"pitch":74,"start":49.0,"duration":0.1667,"velocity":127,"measure":19,"beat":2.5,"subject_pos":-1,"motif":"","motif_pos":-1,"best_pos":2,"similarity":0.386,"stretto":false,"stretto_voices":0,"combination":[],"aug_dim":"","rhythm_ratio":1.0,"chromatic_density":0.37},{"voice":1,"pitch":68,"start":49.0,"duration":0.3333,"velocity":127,"measure":19,"beat":2.5,"subject_pos":-1,"motif":"","motif_pos":-1,"best_pos":4,"similarity":0.454,"stretto":false,"stretto_voices":0,"combination":[],"aug_dim":"","rhythm_ratio":1.0,"chromatic_density":0.37},{"voice":0,"pitch":72,"start":49.1666,"duration":0.1667,"velocity":127,"measure":19,"beat":2.75,"subject_pos":-1,"motif":"","motif_pos":-1,"best_pos":3,"similarity":0.657,"stretto":false,"stretto_voices":0,"combination":[],"aug_dim":"","rhythm_ratio":1.0,"chromatic_density":0.37},{"voice":0,"pitch":71,"start":49.3333,"duration":0.1667,"velocity":127,"measure":19,"beat":3.0,"subject_pos":-1,"motif":"","motif_pos":-1,"best_pos":4,"similarity":0.829,"stretto":false,"stretto_voices":0,"combination":[],"aug_dim":"","rhythm_ratio":1.0,"chromatic_density":0.37},{"voice":1,"pitch":62,"start":49.3333,"duration":0.1667,"velocity":127,"measure":19,"beat":3.0,"subject_pos":-1,"motif":"","motif_pos":-1,"best_pos":5,"similarity":0.464,"stretto":false,"stretto_voices":0,"combination":[],"aug_dim":"","rhythm_ratio":1.0,"chromatic_density":0.37},{"voice":0,"pitch":72,"start":49.5,"duration":0.1667,"velocity":127,"measure":19,"beat":3.25,"subject_pos":-1,"motif":"","motif_pos":-1,"best_pos":5,"similarity":0.821,"stretto":false,"stretto_voices":0,"combination":[],"aug_dim":"","rhythm_ratio":1.0,"chromatic_density":0.37},{"voice":1,"pitch":64,"start":49.5,"duration":0.3333,"velocity":127,"measure":19,"beat":3.25,"subject_pos":-1,"motif":"","motif_pos":-1,"best_pos":6,"similarity":0.429,"stretto":false,"stretto_voices":0,"combination":[],"aug_dim":"","rhythm_ratio":1.0,"chromatic_density":0.37},{"voice":0,"pitch":74,"start":49.6666,"duration":0.1667,"velocity":127,"measure":19,"beat":3.5,"subject_pos":-1,"motif":"","motif_pos":-1,"best_pos":6,"similarity":0.643,"stretto":false,"stretto_voices":0,"combination":[],"aug_dim":"","rhythm_ratio":1.0,"chromatic_density":0.37},{"voice":0,"pitch":76,"start":49.8333,"duration":0.1667,"velocity":127,"measure":19,"beat":3.75,"subject_pos":-1,"motif":"","motif_pos":-1,"best_pos":6,"similarity":0.404,"stretto":false,"stretto_voices":0,"combination":[],"aug_dim":"","rhythm_ratio":1.0,"chromatic_density":0.37},{"voice":1,"pitch":67,"start":49.8333,"duration":0.1667,"velocity":127,"measure":19,"beat":3.75,"subject_pos":-1,"motif":"","motif_pos":-1,"best_pos":1,"similarity":0.429,"stretto":false,"stretto_voices":0,"combination":[],"aug_dim":"","rhythm_ratio":1.0,"chromatic_density":0.37},{"voice":0,"pitch":74,"start":49.9999,"duration":0.1667,"velocity":127,"measure":19,"beat":4.0,"subject_pos":-1,"motif":"","motif_pos":-1,"best_pos":5,"similarity":0.471,"stretto":false,"stretto_voices":0,"combination":[],"aug_dim":"","rhythm_ratio":1.0,"chromatic_density":0.37},{"voice":1,"pitch":65,"start":49.9999,"duration":0.1667,"velocity":127,"measure":19,"beat":4.0,"subject_pos":-1,"motif":"","motif_pos":-1,"best_pos":2,"similarity":0.482,"stretto":false,"stretto_voices":0,"combination":[],"aug_dim":"","rhythm_ratio":1.0,"chromatic_density":0.37},{"voice":0,"pitch":76,"start":50.1666,"duration":0.1667,"velocity":127,"measure":19,"beat":4.25,"subject_pos":-1,"motif":"","motif_pos":-1,"best_pos":6,"similarity":0.593,"stretto":false,"stretto_voices":0,"combination":[],"aug_dim":"","rhythm_ratio":1.0,"chromatic_density":0.37},{"voice":1,"pitch":64,"start":50.1666,"duration":0.1667,"velocity":127,"measure":19,"beat":4.25,"subject_pos":-1,"motif":"","motif_pos":-1,"best_pos":2,"similarity":0.429,"stretto":false,"stretto_voices":0,"combination":[],"aug_dim":"","rhythm_ratio":1.0,"chromatic_density":0.37},{"voice":0,"pitch":77,"start":50.3333,"duration":0.1667,"velocity":127,"measure":19,"beat":4.5,"subject_pos":-1,"motif":"","motif_pos":-1,"best_pos":3,"similarity":0.543,"stretto":false,"stretto_voices":0,"combination":[],"aug_dim":"","rhythm_ratio":1.0,"chromatic_density":0.37},{"voice":1,"pitch":62,"start":50.3333,"duration":0.1667,"velocity":127,"measure":19,"beat":4.5,"subject_pos":-1,"motif":"","motif_pos":-1,"best_pos":3,"similarity":0.507,"stretto":false,"stretto_voices":0,"combination":[],"aug_dim":"","rhythm_ratio":1.0,"chromatic_density":0.37},{"voice":0,"pitch":76,"start":50.4999,"duration":0.1667,"velocity":127,"measure":19,"beat":4.75,"subject_pos":-1,"motif":"","motif_pos":-1,"best_pos":4,"similarity":0.743,"stretto":false,"stretto_voices":0,"combination":[],"aug_dim":"","rhythm_ratio":1.0,"chromatic_density":0.37},{"voice":1,"pitch":61,"start":50.4999,"duration":0.3333,"velocity":127,"measure":19,"beat":4.75,"subject_pos":-1,"motif":"","motif_pos":-1,"best_pos":4,"similarity":0.407,"stretto":false,"stretto_voices":0,"combination":[],"aug_dim":"","rhythm_ratio":1.0,"chromatic_density":0.37},{"voice":0,"pitch":77,"start":50.6666,"duration":0.1667,"velocity":127,"measure":20,"beat":1.0,"subject_pos":-1,"motif":"","motif_pos":-1,"best_pos":5,"similarity":0.736,"stretto":false,"stretto_voices":0,"combination":[],"aug_dim":"","rhythm_ratio":1.0,"chromatic_density":0.077},{"voice":0,"pitch":79,"start":50.8333,"duration":0.1667,"velocity":127,"measure":20,"beat":1.25,"subject_pos":-1,"motif":"","motif_pos":-1,"best_pos":6,"similarity":0.529,"stretto":false,"stretto_voices":0,"combination":[],"aug_dim":"","rhythm_ratio":1.0,"chromatic_density":0.077},{"voice":1,"pitch":70,"start":50.8333,"duration":0.1667,"velocity":127,"measure":20,"beat":1.25,"subject_pos":-1,"motif":"","motif_pos":-1,"best_pos":3,"similarity":0.357,"stretto":false,"stretto_voices":0,"combination":[],"aug_dim":"","rhythm_ratio":1.0,"chromatic_density":0.077},{"voice":0,"pitch":77,"start":50.9999,"duration":0.1667,"velocity":127,"measure":20,"beat":1.5,"subject_pos":-1,"motif":"","motif_pos":-1,"best_pos":2,"similarity":0.586,"stretto":false,"stretto_voices":0,"combination":[],"aug_dim":"","rhythm_ratio":1.0,"chromatic_density":0.077},{"voice":1,"pitch":69,"start":50.9999,"duration":0.1667,"velocity":127,"measure":20,"beat":1.5,"subject_pos":-1,"motif":"","motif_pos":-1,"best_pos":1,"similarity":0.464,"stretto":false,"stretto_voices":0,"combination":[],"aug_dim":"","rhythm_ratio":1.0,"chromatic_density":0.077},{"voice":0,"pitch":74,"start":51.1666,"duration":0.1667,"velocity":127,"measure":20,"beat":1.75,"subject_pos":-1,"motif":"","motif_pos":-1,"best_pos":3,"similarity":0.443,"stretto":false,"stretto_voices":0,"combination":[],"aug_dim":"","rhythm_ratio":1.0,"chromatic_density":0.077},{"voice":1,"pitch":65,"start":51.1666,"duration":0.1667,"velocity":127,"measure":20,"beat":1.75,"subject_pos":-1,"motif":"","motif_pos":-1,"best_pos":2,"similarity":0.65,"stretto":false,"stretto_voices":0,"combination":[],"aug_dim":"","rhythm_ratio":1.0,"chromatic_density":0.077},{"voice":0,"pitch":81,"start":51.3333,"duration":0.1667,"velocity":127,"measure":20,"beat":2.0,"subject_pos":-1,"motif":"","motif_pos":-1,"best_pos":1,"similarity":0.293,"stretto":false,"stretto_voices":0,"combination":[],"aug_dim":"","rhythm_ratio":1.0,"chromatic_density":0.077},{"voice":1,"pitch":62,"start":51.3333,"duration":0.1667,"velocity":127,"measure":20,"beat":2.0,"subject_pos":-1,"motif":"","motif_pos":-1,"best_pos":3,"similarity":0.586,"stretto":false,"stretto_voices":0,"combination":[],"aug_dim":"","rhythm_ratio":1.0,"chromatic_density":0.077},{"voice":0,"pitch":70,"start":51.4999,"duration":0.1667,"velocity":127,"measure":20,"beat":2.25,"subject_pos":-1,"motif":"","motif_pos":-1,"best_pos":2,"similarity":0.157,"stretto":false,"stretto_voices":0,"combination":[],"aug_dim":"","rhythm_ratio":1.0,"chromatic_density":0.077},{"voice":1,"pitch":62,"start":51.4999,"duration":0.1667,"velocity":127,"measure":20,"beat":2.25,"subject_pos":-1,"motif":"","motif_pos":-1,"best_pos":4,"similarity":0.421,"stretto":false,"stretto_voices":0,"combination":[],"aug_dim":"","rhythm_ratio":1.0,"chromatic_density":0.077},{"voice":0,"pitch":76,"start":51.6666,"duration":0.1667,"velocity":127,"measure":20,"beat":2.5,"subject_pos":-1,"motif":"","motif_pos":-1,"best_pos":1,"similarity":0.143,"stretto":false,"stretto_voices":0,"combination":[],"aug_dim":"","rhythm_ratio":1.0,"chromatic_density":0.077},{"voice":1,"pitch":67,"start":51.6666,"duration":0.1667,"velocity":127,"measure":20,"beat":2.5,"subject_pos":-1,"motif":"","motif_pos":-1,"best_pos":1,"similarity":0.329,"stretto":false,"stretto_voices":0,"combination":[],"aug_dim":"","rhythm_ratio":1.0,"chromatic_density":0.077},{"voice":0,"pitch":79,"start":51.8333,"duration":0.1667,"velocity":127,"measure":20,"beat":2.75,"subject_pos":-1,"motif":"","motif_pos":-1,"best_pos":6,"similarity":0.143,"stretto":false,"stretto_voices":0,"combination":[],"aug_dim":"","rhythm_ratio":1.0,"chromatic_density":0.077},{"voice":1,"pitch":60,"start":51.8333,"duration":0.1667,"velocity":127,"measure":20,"beat":2.75,"subject_pos":-1,"motif":"","motif_pos":-1,"best_pos":2,"similarity":0.2,"stretto":false,"stretto_voices":0,"combination":[],"aug_dim":"","rhythm_ratio":1.0,"chromatic_density":0.077},{"voice":0,"pitch":69,"start":51.9999,"duration":0.1667,"velocity":127,"measure":20,"beat":3.0,"subject_pos":-1,"motif":"","motif_pos":-1,"best_pos":0,"similarity":0.286,"stretto":false,"stretto_voices":0,"combination":[],"aug_dim":"","rhythm_ratio":1.0,"chromatic_density":0.077},{"voice":1,"pitch":60,"start":51.9999,"duration":0.1667,"velocity":127,"measure":20,"beat":3.0,"subject_pos":-1,"motif":"","motif_pos":-1,"best_pos":0,"similarity":0.307,"stretto":false,"stretto_voices":0,"combination":[],"aug_dim":"","rhythm_ratio":1.0,"chromatic_density":0.077},{"voice":0,"pitch":74,"start":52.1666,"duration":0.1667,"velocity":127,"measure":20,"beat":3.25,"subject_pos":-1,"motif":"","motif_pos":-1,"best_pos":1,"similarity":0.286,"stretto":false,"stretto_voices":0,"combination":[],"aug_dim":"","rhythm_ratio":1.0,"chromatic_density":0.077},{"voice":1,"pitch":65,"start":52.1666,"duration":0.1667,"velocity":127,"measure":20,"beat":3.25,"subject_pos":-1,"motif":"","motif_pos":-1,"best_pos":1,"similarity":0.4,"stretto":false,"stretto_voices":0,"combination":[],"aug_dim":"","rhythm_ratio":1.0,"chromatic_density":0.077},{"voice":0,"pitch":77,"start":52.3333,"duration":0.1667,"velocity":127,"measure":20,"beat":3.5,"subject_pos":-1,"motif":"","motif_pos":-1,"best_pos":2,"similarity":0.161,"stretto":false,"stretto_voices":0,"combination":[],"aug_dim":"","rhythm_ratio":1.0,"chromatic_density":0.077},{"voice":1,"pitch":58,"start":52.3333,"duration":0.1667,"velocity":127,"measure":20,"beat":3.5,"subject_pos":-1,"motif":"","motif_pos":-1,"best_pos":2,"similarity":0.35,"stretto":false,"stretto_voices":0,"combination":[],"aug_dim":"","rhythm_ratio":1.0,"chromatic_density":0.077},{"voice":0,"pitch":67,"start":52.4999,"duration":0.1667,"velocity":127,"measure":20,"beat":3.75,"subject_pos":-1,"motif":"","motif_pos":-1,"best_pos":0,"similarity":0.143,"stretto":false,"stretto_voices":0,"combination":[],"aug_dim":"","rhythm_ratio":1.0,"chromatic_density":0.077},{"voice":1,"pitch":58,"start":52.4999,"duration":0.1667,"velocity":127,"measure":20,"beat":3.75,"subject_pos":-1,"motif":"","motif_pos":-1,"best_pos":3,"similarity":0.486,"stretto":false,"stretto_voices":0,"combination":[],"aug_dim":"","rhythm_ratio":1.0,"chromatic_density":0.077},{"voice":0,"pitch":73,"start":52.6666,"duration":0.1667,"velocity":127,"measure":20,"beat":4.0,"subject_pos":-1,"motif":"","motif_pos":-1,"best_pos":1,"similarity":0.143,"stretto":false,"stretto_voices":0,"combination":[],"aug_dim":"","rhythm_ratio":1.0,"chromatic_density":0.077},{"voice":1,"pitch":57,"start":52.6666,"duration":0.1667,"velocity":127,"measure":20,"beat":4.0,"subject_pos":-1,"motif":"","motif_pos":-1,"best_pos":4,"similarity":0.486,"stretto":false,"stretto_voices":0,"combination":[],"aug_dim":"","rhythm_ratio":1.0,"chromatic_density":0.077},{"voice":0,"pitch":76,"start":52.8333,"duration":0.1667,"velocity":127,"measure":20,"beat":4.25,"subject_pos":-1,"motif":"","motif_pos":-1,"best_pos":6,"similarity":0.143,"stretto":false,"stretto_voices":0,"combination":[],"aug_dim":"","rhythm_ratio":1.0,"chromatic_density":0.077},{"voice":1,"pitch":55,"start":52.8333,"duration":0.1667,"velocity":127,"measure":20,"beat":4.25,"subject_pos":-1,"motif":"","motif_pos":-1,"best_pos":5,"similarity":0.479,"stretto":false,"stretto_voices":0,"combination":[],"aug_dim":"","rhythm_ratio":1.0,"chromatic_density":0.077},{"voice":0,"pitch":65,"start":52.9999,"duration":0.1667,"velocity":127,"measure":20,"beat":4.5,"subject_pos":-1,"motif":"","motif_pos":-1,"best_pos":0,"similarity":0.286,"stretto":false,"stretto_voices":0,"combination":[],"aug_dim":"","rhythm_ratio":1.0,"chromatic_density":0.077},{"voice":1,"pitch":57,"start":52.9999,"duration":0.1667,"velocity":127,"measure":20,"beat":4.5,"subject_pos":-1,"motif":"","motif_pos":-1,"best_pos":6,"similarity":0.4,"stretto":false,"stretto_voices":0,"combination":[],"aug_dim":"","rhythm_ratio":1.0,"chromatic_density":0.077},{"voice":0,"pitch":69,"start":53.1666,"duration":0.1667,"velocity":127,"measure":20,"beat":4.75,"subject_pos":-1,"motif":"","motif_pos":-1,"best_pos":1,"similarity":0.5,"stretto":false,"stretto_voices":0,"combination":[],"aug_dim":"","rhythm_ratio":1.0,"chromatic_density":0.077},{"voice":1,"pitch":61,"start":53.1666,"duration":0.1667,"velocity":127,"measure":20,"beat":4.75,"subject_pos":-1,"motif":"","motif_pos":-1,"best_pos":5,"similarity":0.257,"stretto":false,"stretto_voices":0,"combination":[],"aug_dim":"","rhythm_ratio":1.0,"chromatic_density":0.077},{"voice":0,"pitch":67,"start":53.3333,"duration":0.1667,"velocity":127,"measure":21,"beat":1.0,"subject_pos":-1,"motif":"","motif_pos":-1,"best_pos":2,"similarity":0.507,"stretto":false,"stretto_voices":0,"combination":[],"aug_dim":"","rhythm_ratio":1.0,"chromatic_density":0.391},{"voice":1,"pitch":64,"start":53.3333,"duration":0.1667,"velocity":127,"measure":21,"beat":1.0,"subject_pos":-1,"motif":"","motif_pos":-1,"best_pos":6,"similarity":0.236,"stretto":false,"stretto_voices":0,"combination":[],"aug_dim":"","rhythm_ratio":1.0,"chromatic_density":0.391},{"voice":0,"pitch":70,"start":53.4999,"duration":0.1667,"velocity":127,"measure":21,"beat":1.25,"subject_pos":-1,"motif":"","motif_pos":-1,"best_pos":3,"similarity":0.514,"stretto":false,"stretto_voices":0,"combination":[],"aug_dim":"","rhythm_ratio":1.0,"chromatic_density":0.391},{"voice":1,"pitch":67,"start":53.4999,"duration":0.1667,"velocity":127,"measure":21,"beat":1.25,"subject_pos":-1,"motif":"","motif_pos":-1,"best_pos":1,"similarity":0.411,"stretto":false,"stretto_voices":0,"combination":[],"aug_dim":"","rhythm_ratio":1.0,"chromatic_density":0.391},{"voice":0,"pitch":69,"start":53.6666,"duration":0.1667,"velocity":127,"measure":21,"beat":1.5,"subject_pos":-1,"motif":"","motif_pos":-1,"best_pos":4,"similarity":0.493,"stretto":false,"stretto_voices":0,"combination":[],"aug_dim":"","rhythm_ratio":1.0,"chromatic_density":0.391},{"voice":1,"pitch":65,"start":53.6666,"duration":0.1667,"velocity":127,"measure":21,"beat":1.5,"subject_pos":-1,"motif":"","motif_pos":-1,"best_pos":3,"similarity":0.596,"stretto":false,"stretto_voices":0,"combination":[],"aug_dim":"","rhythm_ratio":1.0,"chromatic_density":0.391},{"voice":0,"pitch":73,"start":53.8333,"duration":0.1667,"velocity":127,"measure":21,"beat":1.75,"subject_pos":-1,"motif":"","motif_pos":-1,"best_pos":4,"similarity":0.536,"stretto":false,"stretto_voices":0,"combination":[],"aug_dim":"","rhythm_ratio":1.0,"chromatic_density":0.391},{"voice":1,"pitch":64,"start":53.8333,"duration":0.1667,"velocity":127,"measure":21,"beat":1.75,"subject_pos":-1,"motif":"","motif_pos":-1,"best_pos":4,"similarity":0.664,"stretto":false,"stretto_voices":0,"combination":[],"aug_dim":"","rhythm_ratio":1.0,"chromatic_density":0.391},{"voice":0,"pitch":74,"start":53.9999,"duration":0.1667,"velocity":127,"measure":21,"beat":2.0,"subject_pos":-1,"motif":"","motif_pos":-1,"best_pos":5,"similarity":0.732,"stretto":false,"stretto_voices":0,"combination":[],"aug_dim":"","rhythm_ratio":1.0,"chromatic_density":0.391},{"voice":1,"pitch":65,"start":53.9999,"duration":0.1667,"velocity":127,"measure":21,"beat":2.0,"subject_pos":-1,"motif":"","motif_pos":-1,"best_pos":5,"similarity":0.507,"stretto":false,"stretto_voices":0,"combination":[],"aug_dim":"","rhythm_ratio":1.0,"chromatic_density":0.391},{"voice":0,"pitch":76,"start":54.1666,"duration":0.1667,"velocity":127,"measure":21,"beat":2.25,"subject_pos":-1,"motif":"","motif_pos":-1,"best_pos":6,"similarity":0.714,"stretto":false,"stretto_voices":0,"combination":[],"aug_dim":"","rhythm_ratio":1.0,"chromatic_density":0.391},{"voice":1,"pitch":64,"start":54.1666,"duration":0.1667,"velocity":127,"measure":21,"beat":2.25,"subject_pos":-1,"motif":"","motif_pos":-1,"best_pos":4,"similarity":0.514,"stretto":false,"stretto_voices":0,"combination":[],"aug_dim":"","rhythm_ratio":1.0,"chromatic_density":0.391},{"voice":0,"pitch":77,"start":54.3333,"duration":0.1667,"velocity":127,"measure":21,"beat":2.5,"subject_pos":-1,"motif":"","motif_pos":-1,"best_pos":7,"similarity":0.5,"stretto":false,"stretto_voices":0,"combination":[],"aug_dim":"","rhythm_ratio":1.0,"chromatic_density":0.391},{"voice":1,"pitch":62,"start":54.3333,"duration":0.1667,"velocity":127,"measure":21,"beat":2.5,"subject_pos":-1,"motif":"","motif_pos":-1,"best_pos":5,"similarity":0.479,"stretto":false,"stretto_voices":0,"combination":[],"aug_dim":"","rhythm_ratio":1.0,"chromatic_density":0.391},{"voice":0,"pitch":68,"start":54.4999,"duration":1.0,"velocity":127,"measure":21,"beat":2.75,"subject_pos":-1,"motif":"","motif_pos":-1,"best_pos":4,"similarity":0.521,"stretto":false,"stretto_voices":0,"combination":[],"aug_dim":"","rhythm_ratio":1.0,"chromatic_density":0.391},{"voice":1,"pitch":64,"start":54.4999,"duration":0.1667,"velocity":127,"measure":21,"beat":2.75,"subject_pos":-1,"motif":"","motif_pos":-1,"best_pos":6,"similarity":0.4,"stretto":false,"stretto_voices":0,"combination":[],"aug_dim":"","rhythm_ratio":1.0,"chromatic_density":0.391},{"voice":1,"pitch":62,"start":54.6666,"duration":0.1667,"velocity":127,"measure":21,"beat":3.0,"subject_pos":-1,"motif":"","motif_pos":-1,"best_pos":2,"similarity":0.464,"stretto":false,"stretto_voices":0,"combination":[],"aug_dim":"","rhythm_ratio":1.0,"chromatic_density":0.391},{"voice":1,"pitch":60,"start":54.8333,"duration":0.1667,"velocity":127,"measure":21,"beat":3.25,"subject_pos":-1,"motif":"","motif_pos":-1,"best_pos":5,"similarity":0.4,"stretto":false,"stretto_voices":0,"combination":[],"aug_dim":"","rhythm_ratio":1.0,"chromatic_density":0.391},{"voice":1,"pitch":62,"start":54.9999,"duration":0.1667,"velocity":127,"measure":21,"beat":3.5,"subject_pos":-1,"motif":"","motif_pos":-1,"best_pos":2,"similarity":0.386,"stretto":false,"stretto_voices":0,"combination":[],"aug_dim":"","rhythm_ratio":1.0,"chromatic_density":0.391},{"voice":1,"pitch":60,"start":55.1666,"duration":0.1667,"velocity":127,"measure":21,"beat":3.75,"subject_pos":-1,"motif":"","motif_pos":-1,"best_pos":3,"similarity":0.657,"stretto":false,"stretto_voices":0,"combination":[],"aug_dim":"","rhythm_ratio":1.0,"chromatic_density":0.391},{"voice":1,"pitch":59,"start":55.3333,"duration":0.1667,"velocity":127,"measure":21,"beat":4.0,"subject_pos":-1,"motif":"","motif_pos":-1,"best_pos":4,"similarity":0.829,"stretto":false,"stretto_voices":0,"combination":[],"aug_dim":"","rhythm_ratio":1.0,"chromatic_density":0.391},{"voice":0,"pitch":69,"start":55.4999,"duration":0.3333,"velocity":127,"measure":21,"beat":4.25,"subject_pos":-1,"motif":"","motif_pos":-1,"best_pos":5,"similarity":0.721,"stretto":false,"stretto_voices":0,"combination":[],"aug_dim":"","rhythm_ratio":1.0,"chromatic_density":0.391},{"voice":1,"pitch":60,"start":55.4999,"duration":0.1667,"velocity":127,"measure":21,"beat":4.25,"subject_pos":-1,"motif":"","motif_pos":-1,"best_pos":5,"similarity":0.821,"stretto":false,"stretto_voices":0,"combination":[],"aug_dim":"","rhythm_ratio":1.0,"chromatic_density":0.391},{"voice":1,"pitch":62,"start":55.6666,"duration":0.1667,"velocity":127,"measure":21,"beat":4.5,"subject_pos":-1,"motif":"","motif_pos":-1,"best_pos":6,"similarity":0.643,"stretto":false,"stretto_voices":0,"combination":[],"aug_dim":"","rhythm_ratio":1.0,"chromatic_density":0.391},{"voice":1,"pitch":64,"start":55.8333,"duration":0.1667,"velocity":127,"measure":21,"beat":4.75,"subject_pos":-1,"motif":"","motif_pos":-1,"best_pos":6,"similarity":0.404,"stretto":false,"stretto_voices":0,"combination":[],"aug_dim":"","rhythm_ratio":1.0,"chromatic_density":0.391},{"voice":1,"pitch":62,"start":55.9999,"duration":0.1667,"velocity":127,"measure":22,"beat":1.0,"subject_pos":-1,"motif":"","motif_pos":-1,"best_pos":5,"similarity":0.471,"stretto":false,"stretto_voices":0,"combination":[],"aug_dim":"","rhythm_ratio":1.0,"chromatic_density":0.2},{"voice":1,"pitch":64,"start":56.1666,"duration":0.1667,"velocity":127,"measure":22,"beat":1.25,"subject_pos":-1,"motif":"","motif_pos":-1,"best_pos":6,"similarity":0.593,"stretto":false,"stretto_voices":0,"combination":[],"aug_dim":"","rhythm_ratio":1.0,"chromatic_density":0.2},{"voice":0,"pitch":71,"start":56.3333,"duration":0.1667,"velocity":127,"measure":22,"beat":1.5,"subject_pos":-1,"motif":"","motif_pos":-1,"best_pos":6,"similarity":0.714,"stretto":false,"stretto_voices":0,"combination":[],"aug_dim":"","rhythm_ratio":1.0,"chromatic_density":0.2},{"voice":1,"pitch":65,"start":56.3333,"duration":0.1667,"velocity":127,"measure":22,"beat":1.5,"subject_pos":-1,"motif":"","motif_pos":-1,"best_pos":3,"similarity":0.543,"stretto":false,"stretto_voices":0,"combination":[],"aug_dim":"","rhythm_ratio":1.0,"chromatic_density":0.2},{"voice":0,"pitch":72,"start":56.4999,"duration":0.3333,"velocity":127,"measure":22,"beat":1.75,"subject_pos":-1,"motif":"","motif_pos":-1,"best_pos":7,"similarity":0.5,"stretto":false,"stretto_voices":0,"combination":[],"aug_dim":"","rhythm_ratio":1.0,"chromatic_density":0.2},{"voice":1,"pitch":64,"start":56.4999,"duration":0.1667,"velocity":127,"measure":22,"beat":1.75,"subject_pos":-1,"motif":"","motif_pos":-1,"best_pos":4,"similarity":0.743,"stretto":false,"stretto_voices":0,"combination":[],"aug_dim":"","rhythm_ratio":1.0,"chromatic_density":0.2},{"voice":1,"pitch":65,"start":56.6666,"duration":0.1667,"velocity":127,"measure":22,"beat":2.0,"subject_pos":-1,"motif":"","motif_pos":-1,"best_pos":5,"similarity":0.736,"stretto":false,"stretto_voices":0,"combination":[],"aug_dim":"","rhythm_ratio":1.0,"chromatic_density":0.2},{"voice":0,"pitch":69,"start":56.8333,"duration":0.1667,"velocity":127,"measure":22,"beat":2.25,"subject_pos":-1,"motif":"","motif_pos":-1,"best_pos":3,"similarity":0.361,"stretto":false,"stretto_voices":0,"combination":[],"aug_dim":"","rhythm_ratio":1.0,"chromatic_density":0.2},{"voice":1,"pitch":67,"start":56.8333,"duration":0.1667,"velocity":127,"measure":22,"beat":2.25,"subject_pos":-1,"motif":"","motif_pos":-1,"best_pos":6,"similarity":0.529,"stretto":false,"stretto_voices":0,"combination":[],"aug_dim":"","rhythm_ratio":1.0,"chromatic_density":0.2},{"voice":0,"pitch":74,"start":56.9999,"duration":0.3333,"velocity":127,"measure":22,"beat":2.5,"subject_pos":-1,"motif":"","motif_pos":-1,"best_pos":1,"similarity":0.371,"stretto":false,"stretto_voices":0,"combination":[],"aug_dim":"","rhythm_ratio":1.0,"chromatic_density":0.2},{"voice":1,"pitch":65,"start":56.9999,"duration":0.1667,"velocity":127,"measure":22,"beat":2.5,"subject_pos":-1,"motif":"","motif_pos":-1,"best_pos":2,"similarity":0.586,"stretto":false,"stretto_voices":0,"combination":[],"aug_dim":"","rhythm_ratio":1.0,"chromatic_density":0.2},{"voice":1,"pitch":62,"start":57.1666,"duration":0.1667,"velocity":127,"measure":22,"beat":2.75,"subject_pos":-1,"motif":"","motif_pos":-1,"best_pos":3,"similarity":0.443,"stretto":false,"stretto_voices":0,"combination":[],"aug_dim":"","rhythm_ratio":1.0,"chromatic_density":0.2},{"voice":0,"pitch":77,"start":57.3333,"duration":0.1667,"velocity":127,"measure":22,"beat":3.0,"subject_pos":-1,"motif":"","motif_pos":-1,"best_pos":2,"similarity":0.321,"stretto":false,"stretto_voices":0,"combination":[],"aug_dim":"","rhythm_ratio":1.0,"chromatic_density":0.2},{"voice":1,"pitch":69,"start":57.3333,"duration":0.1667,"velocity":127,"measure":22,"beat":3.0,"subject_pos":-1,"motif":"","motif_pos":-1,"best_pos":1,"similarity":0.293,"stretto":false,"stretto_voices":0,"combination":[],"aug_dim":"","rhythm_ratio":1.0,"chromatic_density":0.2},{"voice":0,"pitch":77,"start":57.4999,"duration":0.1667,"velocity":127,"measure":22,"beat":3.25,"subject_pos":-1,"motif":"","motif_pos":-1,"best_pos":3,"similarity":0.407,"stretto":false,"stretto_voices":0,"combination":[],"aug_dim":"","rhythm_ratio":1.0,"chromatic_density":0.2},{"voice":1,"pitch":58,"start":57.4999,"duration":0.1667,"velocity":127,"measure":22,"beat":3.25,"subject_pos":-1,"motif":"","motif_pos":-1,"best_pos":2,"similarity":0.157,"stretto":false,"stretto_voices":0,"combination":[],"aug_dim":"","rhythm_ratio":1.0,"chromatic_density":0.2},{"voice":0,"pitch":76,"start":57.6666,"duration":0.1667,"velocity":127,"measure":22,"beat":3.5,"subject_pos":-1,"motif":"","motif_pos":-1,"best_pos":2,"similarity":0.393,"stretto":false,"stretto_voices":0,"combination":[],"aug_dim":"","rhythm_ratio":1.0,"chromatic_density":0.2},{"voice":1,"pitch":64,"start":57.6666,"duration":0.1667,"velocity":127,"measure":22,"beat":3.5,"subject_pos":-1,"motif":"","motif_pos":-1,"best_pos":1,"similarity":0.143,"stretto":false,"stretto_voices":0,"combination":[],"aug_dim":"","rhythm_ratio":1.0,"chromatic_density":0.2},{"voice":0,"pitch":74,"start":57.8333,"duration":0.1667,"velocity":127,"measure":22,"beat":3.75,"subject_pos":-1,"motif":"","motif_pos":-1,"best_pos":2,"similarity":0.45,"stretto":false,"stretto_voices":0,"combination":[],"aug_dim":"","rhythm_ratio":1.0,"chromatic_density":0.2},{"voice":1,"pitch":67,"start":57.8333,"duration":0.1667,"velocity":127,"measure":22,"beat":3.75,"subject_pos":-1,"motif":"","motif_pos":-1,"best_pos":6,"similarity":0.143,"stretto":false,"stretto_voices":0,"combination":[],"aug_dim":"","rhythm_ratio":1.0,"chromatic_density":0.2},{"voice":0,"pitch":72,"start":57.9999,"duration":0.1667,"velocity":127,"measure":22,"beat":4.0,"subject_pos":-1,"motif":"","motif_pos":-1,"best_pos":5,"similarity":0.418,"stretto":false,"stretto_voices":0,"combination":[],"aug_dim":"","rhythm_ratio":1.0,"chromatic_density":0.2},{"voice":1,"pitch":57,"start":57.9999,"duration":0.1667,"velocity":127,"measure":22,"beat":4.0,"subject_pos":-1,"motif":"","motif_pos":-1,"best_pos":0,"similarity":0.286,"stretto":false,"stretto_voices":0,"combination":[],"aug_dim":"","rhythm_ratio":1.0,"chromatic_density":0.2},{"voice":0,"pitch":74,"start":58.1666,"duration":0.1667,"velocity":127,"measure":22,"beat":4.25,"subject_pos":-1,"motif":"","motif_pos":-1,"best_pos":6,"similarity":0.364,"stretto":false,"stretto_voices":0,"combination":[],"aug_dim":"","rhythm_ratio":1.0,"chromatic_density":0.2},{"voice":1,"pitch":62,"start":58.1666,"duration":0.1667,"velocity":127,"measure":22,"beat":4.25,"subject_pos":-1,"motif":"","motif_pos":-1,"best_pos":1,"similarity":0.286,"stretto":false,"stretto_voices":0,"combination":[],"aug_dim":"","rhythm_ratio":1.0,"chromatic_density":0.2},{"voice":0,"pitch":71,"start":58.3333,"duration":0.1667,"velocity":127,"measure":22,"beat":4.5,"subject_pos":-1,"motif":"","motif_pos":-1,"best_pos":3,"similarity":0.318,"stretto":false,"stretto_voices":0,"combination":[],"aug_dim":"","rhythm_ratio":1.0,"chromatic_density":0.2},{"voice":1,"pitch":65,"start":58.3333,"duration":0.1667,"velocity":127,"measure":22,"beat":4.5,"subject_pos":-1,"motif":"","motif_pos":-1,"best_pos":2,"similarity":0.161,"stretto":false,"stretto_voices":0,"combination":[],"aug_dim":"","rhythm_ratio":1.0,"chromatic_density":0.2},{"voice":0,"pitch":76,"start":58.4999,"duration":0.5,"velocity":127,"measure":22,"beat":4.75,"subject_pos":-1,"motif":"","motif_pos":-1,"best_pos":1,"similarity":0.329,"stretto":false,"stretto_voices":0,"combination":[],"aug_dim":"","rhythm_ratio":1.0,"chromatic_density":0.2},{"voice":1,"pitch":55,"start":58.4999,"duration":0.1667,"velocity":127,"measure":22,"beat":4.75,"subject_pos":-1,"motif":"","motif_pos":-1,"best_pos":0,"similarity":0.143,"stretto":false,"stretto_voices":0,"combination":[],"aug_dim":"","rhythm_ratio":1.0,"chromatic_density":0.2},{"voice":1,"pitch":61,"start":58.6666,"duration":0.1667,"velocity":127,"measure":23,"beat":1.0,"subject_pos":-1,"motif":"","motif_pos":-1,"best_pos":1,"similarity":0.143,"stretto":false,"stretto_voices":0,"combination":[],"aug_dim":"","rhythm_ratio":1.0,"chromatic_density":0.312},{"voice":1,"pitch":64,"start":58.8333,"duration":0.1667,"velocity":127,"measure":23,"beat":1.25,"subject_pos":-1,"motif":"","motif_pos":-1,"best_pos":6,"similarity":0.143,"stretto":false,"stretto_voices":0,"combination":[],"aug_dim":"","rhythm_ratio":1.0,"chromatic_density":0.312},{"voice":0,"pitch":69,"start":58.9999,"duration":0.5,"velocity":127,"measure":23,"beat":1.5,"subject_pos":-1,"motif":"","motif_pos":-1,"best_pos":2,"similarity":0.271,"stretto":false,"stretto_voices":0,"combination":[],"aug_dim":"","rhythm_ratio":1.0,"chromatic_density":0.312},{"voice":1,"pitch":53,"start":58.9999,"duration":0.1667,"velocity":127,"measure":23,"beat":1.5,"subject_pos":-1,"motif":"","motif_pos":-1,"best_pos":0,"similarity":0.286,"stretto":false,"stretto_voices":0,"combination":[],"aug_dim":"","rhythm_ratio":1.0,"chromatic_density":0.312},{"voice":1,"pitch":57,"start":59.1666,"duration":0.1667,"velocity":127,"measure":23,"beat":1.75,"subject_pos":-1,"motif":"","motif_pos":-1,"best_pos":1,"similarity":0.5,"stretto":false,"stretto_voices":0,"combination":[],"aug_dim":"","rhythm_ratio":1.0,"chromatic_density":0.312},{"voice":1,"pitch":55,"start":59.3333,"duration":0.1667,"velocity":127,"measure":23,"beat":2.0,"subject_pos":-1,"motif":"","motif_pos":-1,"best_pos":2,"similarity":0.507,"stretto":false,"stretto_voices":0,"combination":[],"aug_dim":"","rhythm_ratio":1.0,"chromatic_density":0.312},{"voice":1,"pitch":58,"start":59.4999,"duration":0.1667,"velocity":127,"measure":23,"beat":2.25,"subject_pos":-1,"motif":"","motif_pos":-1,"best_pos":3,"similarity":0.514,"stretto":false,"stretto_voices":0,"combination":[],"aug_dim":"","rhythm_ratio":1.0,"chromatic_density":0.312},{"voice":1,"pitch":57,"start":59.6666,"duration":0.1667,"velocity":127,"measure":23,"beat":2.5,"subject_pos":-1,"motif":"","motif_pos":-1,"best_pos":4,"similarity":0.493,"stretto":false,"stretto_voices":0,"combination":[],"aug_dim":"","rhythm_ratio":1.0,"chromatic_density":0.312},{"voice":1,"pitch":61,"start":59.8333,"duration":0.1667,"velocity":127,"measure":23,"beat":2.75,"subject_pos":-1,"motif":"","motif_pos":-1,"best_pos":4,"similarity":0.536,"stretto":false,"stretto_voices":0,"combination":[],"aug_dim":"","rhythm_ratio":1.0,"chromatic_density":0.312},{"voice":0,"pitch":69,"start":59.9999,"duration":0.5,"velocity":127,"measure":23,"beat":3.0,"subject_pos":-1,"motif":"","motif_pos":-1,"best_pos":0,"similarity":0.318,"stretto":false,"stretto_voices":0,"combination":[],"aug_dim":"","rhythm_ratio":1.0,"chromatic_density":0.312},{"voice":1,"pitch":62,"start":59.9999,"duration":0.1667,"velocity":127,"measure":23,"beat":3.0,"subject_pos":-1,"motif":"","motif_pos":-1,"best_pos":5,"similarity":0.732,"stretto":false,"stretto_voices":0,"combination":[],"aug_dim":"","rhythm_ratio":1.0,"chromatic_density":0.312},{"voice":1,"pitch":64,"start":60.1666,"duration":0.1667,"velocity":127,"measure":23,"beat":3.25,"subject_pos":-1,"motif":"","motif_pos":-1,"best_pos":6,"similarity":0.714,"stretto":false,"stretto_voices":0,"combination":[],"aug_dim":"","rhythm_ratio":1.0,"chromatic_density":0.312},{"voice":1,"pitch":65,"start":60.3333,"duration":0.1667,"velocity":127,"measure":23,"beat":3.5,"subject_pos":-1,"motif":"","motif_pos":-1,"best_pos":7,"similarity":0.5,"stretto":false,"stretto_voices":0,"combination":[],"aug_dim":"","rhythm_ratio":1.0,"chromatic_density":0.312},{"voice":0,"pitch":76,"start":60.4999,"duration":0.1667,"velocity":127,"measure":23,"beat":3.75,"subject_pos":-1,"motif":"","motif_pos":-1,"best_pos":1,"similarity":0.386,"stretto":false,"stretto_voices":0,"combination":[],"aug_dim":"","rhythm_ratio":1.0,"chromatic_density":0.312},{"voice":1,"pitch":55,"start":60.4999,"duration":1.0,"velocity":127,"measure":23,"beat":3.75,"subject_pos":-1,"motif":"","motif_pos":-1,"best_pos":5,"similarity":0.393,"stretto":false,"stretto_voices":0,"combination":[],"aug_dim":"","rhythm_ratio":1.0,"chromatic_density":0.312},{"voice":0,"pitch":77,"start":60.6666,"duration":0.1667,"velocity":127,"measure":23,"beat":4.0,"subject_pos":-1,"motif":"","motif_pos":-1,"best_pos":3,"similarity":0.4,"stretto":false,"stretto_voices":0,"combination":[],"aug_dim":"","rhythm_ratio":1.0,"chromatic_density":0.312},{"voice":0,"pitch":76,"start":60.8333,"duration":0.1667,"velocity":127,"measure":23,"beat":4.25,"subject_pos":-1,"motif":"","motif_pos":-1,"best_pos":4,"similarity":0.479,"stretto":false,"stretto_voices":0,"combination":[],"aug_dim":"","rhythm_ratio":1.0,"chromatic_density":0.312},{"voice":0,"pitch":74,"start":60.9999,"duration":0.1667,"velocity":127,"measure":23,"beat":4.5,"subject_pos":-1,"motif":"","motif_pos":-1,"best_pos":5,"similarity":0.479,"stretto":false,"stretto_voices":0,"combination":[],"aug_dim":"","rhythm_ratio":1.0,"chromatic_density":0.312},{"voice":0,"pitch":76,"start":61.1666,"duration":0.1667,"velocity":127,"measure":23,"beat":4.75,"subject_pos":-1,"motif":"","motif_pos":-1,"best_pos":6,"similarity":0.4,"stretto":false,"stretto_voices":0,"combination":[],"aug_dim":"","rhythm_ratio":1.0,"chromatic_density":0.312},{"voice":0,"pitch":74,"start":61.3333,"duration":0.1667,"velocity":127,"measure":24,"beat":1.0,"subject_pos":-1,"motif":"","motif_pos":-1,"best_pos":2,"similarity":0.464,"stretto":false,"stretto_voices":0,"combination":[],"aug_dim":"","rhythm_ratio":1.0,"chromatic_density":0.389},{"voice":0,"pitch":72,"start":61.4999,"duration":0.1667,"velocity":127,"measure":24,"beat":1.25,"subject_pos":-1,"motif":"","motif_pos":-1,"best_pos":5,"similarity":0.4,"stretto":false,"stretto_voices":0,"combination":[],"aug_dim":"","rhythm_ratio":1.0,"chromatic_density":0.389},{"voice":1,"pitch":57,"start":61.4999,"duration":0.3333,"velocity":127,"measure":24,"beat":1.25,"subject_pos":-1,"motif":"","motif_pos":-1,"best_pos":5,"similarity":0.579,"stretto":false,"stretto_voices":0,"combination":[],"aug_dim":"","rhythm_ratio":1.0,"chromatic_density":0.389},{"voice":0,"pitch":74,"start":61.6666,"duration":0.1667,"velocity":127,"measure":24,"beat":1.5,"subject_pos":-1,"motif":"","motif_pos":-1,"best_pos":2,"similarity":0.386,"stretto":false,"stretto_voices":0,"combination":[],"aug_dim":"","rhythm_ratio":1.0,"chromatic_density":0.389},{"voice":0,"pitch":72,"start":61.8333,"duration":0.1667,"velocity":127,"measure":24,"beat":1.75,"subject_pos":-1,"motif":"","motif_pos":-1,"best_pos":3,"similarity":0.593,"stretto":false,"stretto_voices":0,"combination":[],"aug_dim":"","rhythm_ratio":1.0,"chromatic_density":0.389},{"voice":0,"pitch":71,"start":61.9999,"duration":0.1667,"velocity":127,"measure":24,"beat":2.0,"subject_pos":-1,"motif":"","motif_pos":-1,"best_pos":4,"similarity":0.671,"stretto":false,"stretto_voices":0,"combination":[],"aug_dim":"","rhythm_ratio":1.0,"chromatic_density":0.389},{"voice":0,"pitch":72,"start":62.1666,"duration":0.1667,"velocity":127,"measure":24,"beat":2.25,"subject_pos":-1,"motif":"","motif_pos":-1,"best_pos":5,"similarity":0.507,"stretto":false,"stretto_voices":0,"combination":[],"aug_dim":"","rhythm_ratio":1.0,"chromatic_density":0.389},{"voice":0,"pitch":71,"start":62.3333,"duration":0.1667,"velocity":127,"measure":24,"beat":2.5,"subject_pos":-1,"motif":"","motif_pos":-1,"best_pos":4,"similarity":0.514,"stretto":false,"stretto_voices":0,"combination":[],"aug_dim":"","rhythm_ratio":1.0,"chromatic_density":0.389},{"voice":1,"pitch":59,"start":62.3333,"duration":0.1667,"velocity":127,"measure":24,"beat":2.5,"subject_pos":-1,"motif":"","motif_pos":-1,"best_pos":6,"similarity":0.643,"stretto":false,"stretto_voices":0,"combination":[],"aug_dim":"","rhythm_ratio":1.0,"chromatic_density":0.389},{"voice":0,"pitch":69,"start":62.4999,"duration":0.1667,"velocity":127,"measure":24,"beat":2.75,"subject_pos":-1,"motif":"","motif_pos":-1,"best_pos":5,"similarity":0.479,"stretto":false,"stretto_voices":0,"combination":[],"aug_dim":"","rhythm_ratio":1.0,"chromatic_density":0.389},{"voice":1,"pitch":60,"start":62.4999,"duration":0.3333,"velocity":127,"measure":24,"beat":2.75,"subject_pos":-1,"motif":"","motif_pos":-1,"best_pos":7,"similarity":0.464,"stretto":false,"stretto_voices":0,"combination":[],"aug_dim":"","rhythm_ratio":1.0,"chromatic_density":0.389},{"voice":0,"pitch":71,"start":62.6666,"duration":0.1667,"velocity":127,"measure":24,"beat":3.0,"subject_pos":-1,"motif":"","motif_pos":-1,"best_pos":6,"similarity":0.4,"stretto":false,"stretto_voices":0,"combination":[],"aug_dim":"","rhythm_ratio":1.0,"chromatic_density":0.389},{"voice":0,"pitch":69,"start":62.8333,"duration":0.1667,"velocity":127,"measure":24,"beat":3.25,"subject_pos":-1,"motif":"","motif_pos":-1,"best_pos":3,"similarity":0.657,"stretto":false,"stretto_voices":0,"combination":[],"aug_dim":"","rhythm_ratio":1.0,"chromatic_density":0.389},{"voice":1,"pitch":57,"start":62.8333,"duration":0.1667,"velocity":127,"measure":24,"beat":3.25,"subject_pos":-1,"motif":"","motif_pos":-1,"best_pos":3,"similarity":0.361,"stretto":false,"stretto_voices":0,"combination":[],"aug_dim":"","rhythm_ratio":1.0,"chromatic_density":0.389},{"voice":0,"pitch":68,"start":62.9999,"duration":0.3333,"velocity":127,"measure":24,"beat":3.5,"subject_pos":-1,"motif":"","motif_pos":-1,"best_pos":4,"similarity":0.829,"stretto":false,"stretto_voices":0,"combination":[],"aug_dim":"","rhythm_ratio":1.0,"chromatic_density":0.389},{"voice":1,"pitch":62,"start":62.9999,"duration":0.3333,"velocity":127,"measure":24,"beat":3.5,"subject_pos":-1,"motif":"","motif_pos":-1,"best_pos":1,"similarity":0.371,"stretto":false,"stretto_voices":0,"combination":[],"aug_dim":"","rhythm_ratio":1.0,"chromatic_density":0.389},{"voice":1,"pitch":65,"start":63.3333,"duration":0.1667,"velocity":127,"measure":24,"beat":4.0,"subject_pos":-1,"motif":"","motif_pos":-1,"best_pos":2,"similarity":0.321,"stretto":false,"stretto_voices":0,"combination":[],"aug_dim":"","rhythm_ratio":1.0,"chromatic_density":0.389},{"voice":0,"pitch":69,"start":63.4999,"duration":0.3333,"velocity":127,"measure":24,"beat":4.25,"subject_pos":-1,"motif":"","motif_pos":-1,"best_pos":5,"similarity":0.821,"stretto":false,"stretto_voices":0,"combination":[],"aug_dim":"","rhythm_ratio":1.0,"chromatic_density":0.389},{"voice":1,"pitch":65,"start":63.4999,"duration":0.1667,"velocity":127,"measure":24,"beat":4.25,"subject_pos":-1,"motif":"","motif_pos":-1,"best_pos":3,"similarity":0.407,"stretto":false,"stretto_voices":0,"combination":[],"aug_dim":"","rhythm_ratio":1.0,"chromatic_density":0.389},{"voice":1,"pitch":64,"start":63.6666,"duration":0.1667,"velocity":127,"measure":24,"beat":4.5,"subject_pos":-1,"motif":"","motif_pos":-1,"best_pos":2,"similarity":0.393,"stretto":false,"stretto_voices":0,"combination":[],"aug_dim":"","rhythm_ratio":1.0,"chromatic_density":0.389},{"voice":1,"pitch":62,"start":63.8333,"duration":0.1667,"velocity":127,"measure":24,"beat":4.75,"subject_pos":-1,"motif":"","motif_pos":-1,"best_pos":2,"similarity":0.45,"stretto":false,"stretto_voices":0,"combination":[],"aug_dim":"","rhythm_ratio":1.0,"chromatic_density":0.389},{"voice":0,"pitch":71,"start":63.9999,"duration":0.3333,"velocity":127,"measure":25,"beat":1.0,"subject_pos":-1,"motif":"","motif_pos":-1,"best_pos":6,"similarity":0.643,"stretto":false,"stretto_voices":0,"combination":[],"aug_dim":"","rhythm_ratio":1.0,"chromatic_density":0.154},{"voice":1,"pitch":60,"start":63.9999,"duration":0.1667,"velocity":127,"measure":25,"beat":1.0,"subject_pos":-1,"motif":"","motif_pos":-1,"best_pos":5,"similarity":0.418,"stretto":false,"stretto_voices":0,"combination":[],"aug_dim":"","rhythm_ratio":1.0,"chromatic_density":0.154},{"voice":1,"pitch":62,"start":64.1666,"duration":0.1667,"velocity":127,"measure":25,"beat":1.25,"subject_pos":-1,"motif":"","motif_pos":-1,"best_pos":6,"similarity":0.364,"stretto":false,"stretto_voices":0,"combination":[],"aug_dim":"","rhythm_ratio":1.0,"chromatic_density":0.154},{"voice":1,"pitch":59,"start":64.3333,"duration":0.1667,"velocity":127,"measure":25,"beat":1.5,"subject_pos":-1,"motif":"","motif_pos":-1,"best_pos":3,"similarity":0.318,"stretto":false,"stretto_voices":0,"combination":[],"aug_dim":"","rhythm_ratio":1.0,"chromatic_density":0.154},{"voice":0,"pitch":71,"start":64.4131,"duration":0.3333,"velocity":127,"measure":25,"beat":1.6198,"subject_pos":-1,"motif":"","motif_pos":-1,"best_pos":4,"similarity":0.586,"stretto":false,"stretto_voices":0,"combination":[],"aug_dim":"","rhythm_ratio":1.0,"chromatic_density":0.154},{"voice":0,"pitch":72,"start":64.4999,"duration":0.8333,"velocity":127,"measure":25,"beat":1.75,"subject_pos":-1,"motif":"","motif_pos":-1,"best_pos":5,"similarity":0.657,"stretto":false,"stretto_voices":0,"combination":[],"aug_dim":"","rhythm_ratio":1.0,"chromatic_density":0.154},{"voice":1,"pitch":64,"start":64.4999,"duration":0.5,"velocity":127,"measure":25,"beat":1.75,"subject_pos":-1,"motif":"","motif_pos":-1,"best_pos":1,"similarity":0.329,"stretto":false,"stretto_voices":0,"combination":[],"aug_dim":"","rhythm_ratio":1.0,"chromatic_density":0.154},{"voice":1,"pitch":57,"start":64.9999,"duration":0.5,"velocity":127,"measure":25,"beat":2.5,"subject_pos":-1,"motif":"","motif_pos":-1,"best_pos":2,"similarity":0.271,"stretto":false,"stretto_voices":0,"combination":[],"aug_dim":"","rhythm_ratio":1.0,"chromatic_density":0.154},{"voice":0,"pitch":74,"start":65.3333,"duration":0.1667,"velocity":127,"measure":25,"beat":3.0,"subject_pos":-1,"motif":"","motif_pos":-1,"best_pos":6,"similarity":0.493,"stretto":false,"stretto_voices":0,"combination":[],"aug_dim":"","rhythm_ratio":1.0,"chromatic_density":0.154},{"voice":0,"pitch":72,"start":65.4999,"duration":0.3333,"velocity":127,"measure":25,"beat":3.25,"subject_pos":-1,"motif":"","motif_pos":-1,"best_pos":3,"similarity":0.464,"stretto":false,"stretto_voices":0,"combination":[],"aug_dim":"","rhythm_ratio":1.0,"chromatic_density":0.154},{"voice":0,"pitch":71,"start":65.8333,"duration":0.1667,"velocity":127,"measure":25,"beat":3.75,"subject_pos":-1,"motif":"","motif_pos":-1,"best_pos":4,"similarity":0.4,"stretto":false,"stretto_voices":0,"combination":[],"aug_dim":"","rhythm_ratio":1.0,"chromatic_density":0.154},{"voice":0,"pitch":69,"start":65.9999,"duration":0.1667,"velocity":127,"measure":25,"beat":4.0,"subject_pos":-1,"motif":"","motif_pos":-1,"best_pos":2,"similarity":0.375,"stretto":false,"stretto_voices":0,"combination":[],"aug_dim":"","rhythm_ratio":1.0,"chromatic_density":0.154},{"voice":1,"pitch":57,"start":65.9999,"duration":0.5,"velocity":127,"measure":25,"beat":4.0,"subject_pos":-1,"motif":"","motif_pos":-1,"best_pos":0,"similarity":0.318,"stretto":false,"stretto_voices":0,"combination":[],"aug_dim":"","rhythm_ratio":1.0,"chromatic_density":0.154},{"voice":0,"pitch":64,"start":66.1666,"duration":0.1667,"velocity":127,"measure":25,"beat":4.25,"subject_pos":-1,"motif":"","motif_pos":-1,"best_pos":0,"similarity":0.357,"stretto":false,"stretto_voices":0,"combination":[],"aug_dim":"","rhythm_ratio":1.0,"chromatic_density":0.154},{"voice":0,"pitch":69,"start":66.3333,"duration":0.1667,"velocity":127,"measure":25,"beat":4.5,"subject_pos":-1,"motif":"","motif_pos":-1,"best_pos":1,"similarity":0.436,"stretto":false,"stretto_voices":0,"combination":[],"aug_dim":"","rhythm_ratio":1.0,"chromatic_density":0.154},{"voice":0,"pitch":72,"start":66.4999,"duration":0.1667,"velocity":127,"measure":25,"beat":4.75,"subject_pos":-1,"motif":"","motif_pos":-1,"best_pos":2,"similarity":0.45,"stretto":false,"stretto_voices":0,"combination":[],"aug_dim":"","rhythm_ratio":1.0,"chromatic_density":0.154},{"voice":1,"pitch":64,"start":66.4999,"duration":0.1667,"velocity":127,"measure":25,"beat":4.75,"subject_pos":-1,"motif":"","motif_pos":-1,"best_pos":1,"similarity":0.386,"stretto":false,"stretto_voices":0,"combination":[],"aug_dim":"","rhythm_ratio":1.0,"chromatic_density":0.154},{"voice":0,"pitch":69,"start":66.6666,"duration":0.1667,"velocity":127,"measure":26,"beat":1.0,"subject_pos":-1,"motif":"","motif_pos":-1,"best_pos":3,"similarity":0.4,"stretto":false,"stretto_voices":0,"combination":[],"aug_dim":"","rhythm_ratio":1.0,"chromatic_density":0.24},{"voice":1,"pitch":65,"start":66.6666,"duration":0.1667,"velocity":127,"measure":26,"beat":1.0,"subject_pos":-1,"motif":"","motif_pos":-1,"best_pos":3,"similarity":0.4,"stretto":false,"stretto_voices":0,"combination":[],"aug_dim":"","rhythm_ratio":1.0,"chromatic_density":0.24},{"voice":0,"pitch":72,"start":66.8333,"duration":0.1667,"velocity":127,"measure":26,"beat":1.25,"subject_pos":-1,"motif":"","motif_pos":-1,"best_pos":4,"similarity":0.271,"stretto":false,"stretto_voices":0,"combination":[],"aug_dim":"","rhythm_ratio":1.0,"chromatic_density":0.24},{"voice":1,"pitch":64,"start":66.8333,"duration":0.1667,"velocity":127,"measure":26,"beat":1.25,"subject_pos":-1,"motif":"","motif_pos":-1,"best_pos":4,"similarity":0.479,"stretto":false,"stretto_voices":0,"combination":[],"aug_dim":"","rhythm_ratio":1.0,"chromatic_density":0.24},{"voice":0,"pitch":76,"start":66.9999,"duration":0.3333,"velocity":127,"measure":26,"beat":1.5,"subject_pos":-1,"motif":"","motif_pos":-1,"best_pos":5,"similarity":0.257,"stretto":false,"stretto_voices":0,"combination":[],"aug_dim":"","rhythm_ratio":1.0,"chromatic_density":0.24},{"voice":1,"pitch":62,"start":66.9999,"duration":0.1667,"velocity":127,"measure":26,"beat":1.5,"subject_pos":-1,"motif":"","motif_pos":-1,"best_pos":5,"similarity":0.479,"stretto":false,"stretto_voices":0,"combination":[],"aug_dim":"","rhythm_ratio":1.0,"chromatic_density":0.24},{"voice":1,"pitch":64,"start":67.1666,"duration":0.1667,"velocity":127,"measure":26,"beat":1.75,"subject_pos":-1,"motif":"","motif_pos":-1,"best_pos":6,"similarity":0.4,"stretto":false,"stretto_voices":0,"combination":[],"aug_dim":"","rhythm_ratio":1.0,"chromatic_density":0.24},{"voice":0,"pitch":68,"start":67.3333,"duration":0.1667,"velocity":127,"measure":26,"beat":2.0,"subject_pos":-1,"motif":"","motif_pos":-1,"best_pos":6,"similarity":0.307,"stretto":false,"stretto_voices":0,"combination":[],"aug_dim":"","rhythm_ratio":1.0,"chromatic_density":0.24},{"voice":1,"pitch":62,"start":67.3333,"duration":0.1667,"velocity":127,"measure":26,"beat":2.0,"subject_pos":-1,"motif":"","motif_pos":-1,"best_pos":2,"similarity":0.464,"stretto":false,"stretto_voices":0,"combination":[],"aug_dim":"","rhythm_ratio":1.0,"chromatic_density":0.24},{"voice":0,"pitch":69,"start":67.4999,"duration":0.3333,"velocity":127,"measure":26,"beat":2.25,"subject_pos":-1,"motif":"","motif_pos":-1,"best_pos":7,"similarity":0.293,"stretto":false,"stretto_voices":0,"combination":[],"aug_dim":"","rhythm_ratio":1.0,"chromatic_density":0.24},{"voice":1,"pitch":60,"start":67.4999,"duration":0.1667,"velocity":127,"measure":26,"beat":2.25,"subject_pos":-1,"motif":"","motif_pos":-1,"best_pos":5,"similarity":0.4,"stretto":false,"stretto_voices":0,"combination":[],"aug_dim":"","rhythm_ratio":1.0,"chromatic_density":0.24},{"voice":1,"pitch":62,"start":67.6666,"duration":0.1667,"velocity":127,"measure":26,"beat":2.5,"subject_pos":-1,"motif":"","motif_pos":-1,"best_pos":2,"similarity":0.386,"stretto":false,"stretto_voices":0,"combination":[],"aug_dim":"","rhythm_ratio":1.0,"chromatic_density":0.24},{"voice":0,"pitch":77,"start":67.8333,"duration":0.1667,"velocity":127,"measure":26,"beat":2.75,"subject_pos":-1,"motif":"","motif_pos":-1,"best_pos":1,"similarity":0.143,"stretto":false,"stretto_voices":0,"combination":[],"aug_dim":"","rhythm_ratio":1.0,"chromatic_density":0.24},{"voice":1,"pitch":60,"start":67.8333,"duration":0.1667,"velocity":127,"measure":26,"beat":2.75,"subject_pos":-1,"motif":"","motif_pos":-1,"best_pos":3,"similarity":0.593,"stretto":false,"stretto_voices":0,"combination":[],"aug_dim":"","rhythm_ratio":1.0,"chromatic_density":0.24},{"voice":0,"pitch":67,"start":67.9999,"duration":0.3333,"velocity":127,"measure":26,"beat":3.0,"subject_pos":-1,"motif":"","motif_pos":-1,"best_pos":0,"similarity":0.071,"stretto":false,"stretto_voices":0,"combination":[],"aug_dim":"","rhythm_ratio":1.0,"chromatic_density":0.24},{"voice":1,"pitch":59,"start":67.9999,"duration":0.1667,"velocity":127,"measure":26,"beat":3.0,"subject_pos":-1,"motif":"","motif_pos":-1,"best_pos":4,"similarity":0.671,"stretto":false,"stretto_voices":0,"combination":[],"aug_dim":"","rhythm_ratio":1.0,"chromatic_density":0.24},{"voice":1,"pitch":60,"start":68.1666,"duration":0.1667,"velocity":127,"measure":26,"beat":3.25,"subject_pos":-1,"motif":"","motif_pos":-1,"best_pos":5,"similarity":0.507,"stretto":false,"stretto_voices":0,"combination":[],"aug_dim":"","rhythm_ratio":1.0,"chromatic_density":0.24},{"voice":0,"pitch":76,"start":68.3333,"duration":0.1667,"velocity":127,"measure":26,"beat":3.5,"subject_pos":-1,"motif":"","motif_pos":-1,"best_pos":1,"similarity":0.071,"stretto":false,"stretto_voices":0,"combination":[],"aug_dim":"","rhythm_ratio":1.0,"chromatic_density":0.24},{"voice":1,"pitch":59,"start":68.3333,"duration":0.1667,"velocity":127,"measure":26,"beat":3.5,"subject_pos":-1,"motif":"","motif_pos":-1,"best_pos":4,"similarity":0.514,"stretto":false,"stretto_voices":0,"combination":[],"aug_dim":"","rhythm_ratio":1.0,"chromatic_density":0.24},{"voice":0,"pitch":65,"start":68.4999,"duration":0.3333,"velocity":127,"measure":26,"beat":3.75,"subject_pos":-1,"motif":"","motif_pos":-1,"best_pos":0,"similarity":0.071,"stretto":false,"stretto_voices":0,"combination":[],"aug_dim":"","rhythm_ratio":1.0,"chromatic_density":0.24},{"voice":1,"pitch":57,"start":68.4999,"duration":0.1667,"velocity":127,"measure":26,"beat":3.75,"subject_pos":-1,"motif":"","motif_pos":-1,"best_pos":5,"similarity":0.479,"stretto":false,"stretto_voices":0,"combination":[],"aug_dim":"","rhythm_ratio":1.0,"chromatic_density":0.24},{"voice":1,"pitch":59,"start":68.6666,"duration":0.1667,"velocity":127,"measure":26,"beat":4.0,"subject_pos":-1,"motif":"","motif_pos":-1,"best_pos":6,"similarity":0.4,"stretto":false,"stretto_voices":0,"combination":[],"aug_dim":"","rhythm_ratio":1.0,"chromatic_density":0.24},{"voice":0,"pitch":74,"start":68.8333,"duration":0.1667,"velocity":127,"measure":26,"beat":4.25,"subject_pos":-1,"motif":"","motif_pos":-1,"best_pos":1,"similarity":0.079,"stretto":false,"stretto_voices":0,"combination":[],"aug_dim":"","rhythm_ratio":1.0,"chromatic_density":0.24},{"voice":1,"pitch":57,"start":68.8333,"duration":0.1667,"velocity":127,"measure":26,"beat":4.25,"subject_pos":-1,"motif":"tail","motif_pos":3,"best_pos":3,"similarity":1.0,"stretto":false,"stretto_voices":0,"combination":[],"aug_dim":"","rhythm_ratio":1.0,"chromatic_density":0.24},{"voice":0,"pitch":64,"start":68.9999,"duration":0.1667,"velocity":127,"measure":26,"beat":4.5,"subject_pos":-1,"motif":"","motif_pos":-1,"best_pos":0,"similarity":0.321,"stretto":false,"stretto_voices":0,"combination":[],"aug_dim":"","rhythm_ratio":1.0,"chromatic_density":0.24},{"voice":1,"pitch":56,"start":68.9999,"duration":0.3333,"velocity":127,"measure":26,"beat":4.5,"subject_pos":-1,"motif":"tail","motif_pos":4,"best_pos":4,"similarity":1.0,"stretto":false,"stretto_voices":0,"combination":[],"aug_dim":"","rhythm_ratio":1.0,"chromatic_density":0.24},{"voice":0,"pitch":71,"start":69.1666,"duration":0.1667,"velocity":127,"measure":26,"beat":4.75,"subject_pos":-1,"motif":"","motif_pos":-1,"best_pos":1,"similarity":0.429,"stretto":false,"stretto_voices":0,"combination":[],"aug_dim":"","rhythm_ratio":1.0,"chromatic_density":0.24},{"voice":0,"pitch":74,"start":69.3333,"duration":0.1667,"velocity":127,"measure":27,"beat":1.0,"subject_pos":-1,"motif":"","motif_pos":-1,"best_pos":2,"similarity":0.436,"stretto":false,"stretto_voices":0,"combination":[],"aug_dim":"","rhythm_ratio":1.0,"chromatic_density":0.4},{"voice":0,"pitch":72,"start":69.4999,"duration":0.1667,"velocity":127,"measure":27,"beat":1.25,"subject_pos":-1,"motif":"","motif_pos":-1,"best_pos":3,"similarity":0.521,"stretto":false,"stretto_voices":0,"combination":[],"aug_dim":"","rhythm_ratio":1.0,"chromatic_density":0.4},{"voice":1,"pitch":57,"start":69.4999,"duration":0.3333,"velocity":127,"measure":27,"beat":1.25,"subject_pos":-1,"motif":"tail","motif_pos":5,"best_pos":5,"similarity":1.0,"stretto":false,"stretto_voices":0,"combination":[],"aug_dim":"","rhythm_ratio":1.0,"chromatic_density":0.4},{"voice":0,"pitch":71,"start":69.6666,"duration":0.1667,"velocity":127,"measure":27,"beat":1.5,"subject_pos":-1,"motif":"","motif_pos":-1,"best_pos":2,"similarity":0.429,"stretto":false,"stretto_voices":0,"combination":[],"aug_dim":"","rhythm_ratio":1.0,"chromatic_density":0.4},{"voice":0,"pitch":69,"start":69.8333,"duration":0.1667,"velocity":127,"measure":27,"beat":1.75,"subject_pos":0,"motif":"subject","motif_pos":0,"best_pos":0,"similarity":1.0,"stretto":false,"stretto_voices":0,"combination":[],"aug_dim":"","rhythm_ratio":1.0,"chromatic_density":0.4},{"voice":0,"pitch":68,"start":69.9999,"duration":0.1667,"velocity":127,"measure":27,"beat":2.0,"subject_pos":-1,"motif":"subject","motif_pos":0,"best_pos":0,"similarity":1.0,"stretto":false,"stretto_voices":0,"combination":[],"aug_dim":"","rhythm_ratio":1.0,"chromatic_density":0.4},{"voice":1,"pitch":59,"start":69.9999,"duration":0.3333,"velocity":127,"measure":27,"beat":2.0,"subject_pos":-1,"motif":"tail","motif_pos":6,"best_pos":6,"similarity":1.0,"stretto":false,"stretto_voices":0,"combination":[],"aug_dim":"","rhythm_ratio":1.0,"chromatic_density":0.4},{"voice":0,"pitch":74,"start":70.1666,"duration":0.1667,"velocity":127,"measure":27,"beat":2.25,"subject_pos":-1,"motif":"subject","motif_pos":0,"best_pos":0,"similarity":1.0,"stretto":false,"stretto_voices":0,"combination":[],"aug_dim":"","rhythm_ratio":1.0,"chromatic_density":0.4},{"voice":0,"pitch":77,"start":70.3333,"duration":0.1667,"velocity":127,"measure":27,"beat":2.5,"subject_pos":-1,"motif":"subject","motif_pos":0,"best_pos":0,"similarity":1.0,"stretto":false,"stretto_voices":0,"combination":[],"aug_dim":"","rhythm_ratio":1.0,"chromatic_density":0.4},{"voice":0,"pitch":76,"start":70.4999,"duration":0.1667,"velocity":127,"measure":27,"beat":2.75,"subject_pos":1,"motif":"subject","motif_pos":1,"best_pos":1,"similarity":1.0,"stretto":false,"stretto_voices":0,"combination":[],"aug_dim":"","rhythm_ratio":1.0,"chromatic_density":0.4},{"voice":1,"pitch":60,"start":70.4999,"duration":0.8333,"velocity":127,"measure":27,"beat":2.75,"subject_pos":-1,"motif":"tail","motif_pos":7,"best_pos":7,"similarity":1.0,"stretto":false,"stretto_voices":0,"combination":[],"aug_dim":"","rhythm_ratio":1.0,"chromatic_density":0.4},{"voice":0,"pitch":74,"start":70.6666,"duration":0.1667,"velocity":127,"measure":27,"beat":3.0,"subject_pos":2,"motif":"subject","motif_pos":2,"best_pos":2,"similarity":1.0,"stretto":false,"stretto_voices":0,"combination":[],"aug_dim":"","rhythm_ratio":1.0,"chromatic_density":0.4},{"voice":0,"pitch":72,"start":70.8333,"duration":0.1667,"velocity":127,"measure":27,"beat":3.25,"subject_pos":3,"motif":"subject","motif_pos":3,"best_pos":3,"similarity":1.0,"stretto":false,"stretto_voices":0,"combination":[],"aug_dim":"","rhythm_ratio":1.0,"chromatic_density":0.4},{"voice":0,"pitch":71,"start":70.9999,"duration":0.1667,"velocity":127,"measure":27,"beat":3.5,"subject_pos":4,"motif":"subject","motif_pos":4,"best_pos":4,"similarity":1.0,"stretto":false,"stretto_voices":0,"combination":[],"aug_dim":"","rhythm_ratio":1.0,"chromatic_density":0.4},{"voice":0,"pitch":69,"start":71.1666,"duration":0.1667,"velocity":127,"measure":27,"beat":3.75,"subject_pos":5,"motif":"subject","motif_pos":5,"best_pos":5,"similarity":1.0,"stretto":false,"stretto_voices":0,"combination":[],"aug_dim":"","rhythm_ratio":1.0,"chromatic_density":0.4},{"voice":0,"pitch":68,"start":71.3333,"duration":0.1667,"velocity":127,"measure":27,"beat":4.0,"subject_pos":6,"motif":"subject","motif_pos":6,"best_pos":6,"similarity":1.0,"stretto":false,"stretto_voices":0,"combination":[],"aug_dim":"","rhythm_ratio":1.0,"chromatic_density":0.4},{"voice":1,"pitch":62,"start":71.3333,"duration":0.1667,"velocity":127,"measure":27,"beat":4.0,"subject_pos":-1,"motif":"","motif_pos":-1,"best_pos":6,"similarity":0.464,"stretto":false,"stretto_voices":0,"combination":[],"aug_dim":"","rhythm_ratio":1.0,"chromatic_density":0.4},{"voice":0,"pitch":69,"start":71.4999,"duration":0.1667,"velocity":127,"measure":27,"beat":4.25,"subject_pos":7,"motif":"subject","motif_pos":7,"best_pos":7,"similarity":1.0,"stretto":false,"stretto_voices":0,"combination":[],"aug_dim":"","rhythm_ratio":1.0,"chromatic_density":0.4},{"voice":1,"pitch":60,"start":71.4999,"duration":0.3333,"velocity":127,"measure":27,"beat":4.25,"subject_pos":-1,"motif":"","motif_pos":-1,"best_pos":3,"similarity":0.464,"stretto":false,"stretto_voices":0,"combination":[],"aug_dim":"","rhythm_ratio":1.0,"chromatic_density":0.4},{"voice":0,"pitch":64,"start":71.6666,"duration":0.1667,"velocity":127,"measure":27,"beat":4.5,"subject_pos":-1,"motif":"subject","motif_pos":7,"best_pos":7,"similarity":1.0,"stretto":false,"stretto_voices":0,"combination":[],"aug_dim":"","rhythm_ratio":1.0,"chromatic_density":0.4},{"voice":0,"pitch":71,"start":71.8333,"duration":0.1667,"velocity":127,"measure":27,"beat":4.75,"subject_pos":8,"motif":"subject","motif_pos":8,"best_pos":0,"similarity":1.0,"stretto":false,"stretto_voices":0,"combination":[],"aug_dim":"","rhythm_ratio":1.0,"chromatic_density":0.4},{"voice":1,"pitch":59,"start":71.8333,"duration":0.1667,"velocity":127,"measure":27,"beat":4.75,"subject_pos":-1,"motif":"","motif_pos":-1,"best_pos":4,"similarity":0.4,"stretto":false,"stretto_voices":0,"combination":[],"aug_dim":"","rhythm_ratio":1.0,"chromatic_density":0.4},{"voice":0,"pitch":72,"start":71.9999,"duration":0.1667,"velocity":127,"measure":28,"beat":1.0,"subject_pos":-1,"motif":"","motif_pos":-1,"best_pos":5,"similarity":0.346,"stretto":false,"stretto_voices":0,"combination":[],"aug_dim":"","rhythm_ratio":1.0,"chromatic_density":0.13},{"voice":1,"pitch":57,"start":71.9999,"duration":0.1667,"velocity":127,"measure":28,"beat":1.0,"subject_pos":-1,"motif":"","motif_pos":-1,"best_pos":2,"similarity":0.375,"stretto":false,"stretto_voices":0,"combination":[],"aug_dim":"","rhythm_ratio":1.0,"chromatic_density":0.13},{"voice":0,"pitch":71,"start":72.1666,"duration":0.1667,"velocity":127,"measure":28,"beat":1.25,"subject_pos":-1,"motif":"","motif_pos":-1,"best_pos":4,"similarity":0.329,"stretto":false,"stretto_voices":0,"combination":[],"aug_dim":"","rhythm_ratio":1.0,"chromatic_density":0.13},{"voice":1,"pitch":52,"start":72.1666,"duration":0.1667,"velocity":127,"measure":28,"beat":1.25,"subject_pos":-1,"motif":"","motif_pos":-1,"best_pos":0,"similarity":0.357,"stretto":false,"stretto_voices":0,"combination":[],"aug_dim":"","rhythm_ratio":1.0,"chromatic_density":0.13},{"voice":0,"pitch":69,"start":72.3333,"duration":0.1667,"velocity":127,"measure":28,"beat":1.5,"subject_pos":-1,"motif":"","motif_pos":-1,"best_pos":0,"similarity":0.357,"stretto":false,"stretto_voices":0,"combination":[],"aug_dim":"","rhythm_ratio":1.0,"chromatic_density":0.13},{"voice":1,"pitch":57,"start":72.3333,"duration":0.1667,"velocity":127,"measure":28,"beat":1.5,"subject_pos":-1,"motif":"","motif_pos":-1,"best_pos":1,"similarity":0.436,"stretto":false,"stretto_voices":0,"combination":[],"aug_dim":"","rhythm_ratio":1.0,"chromatic_density":0.13},{"voice":0,"pitch":76,"start":72.4999,"duration":0.6667,"velocity":127,"measure":28,"beat":1.75,"subject_pos":-1,"motif":"","motif_pos":-1,"best_pos":1,"similarity":0.464,"stretto":false,"stretto_voices":0,"combination":[],"aug_dim":"","rhythm_ratio":1.0,"chromatic_density":0.13},{"voice":1,"pitch":60,"start":72.4999,"duration":0.1667,"velocity":127,"measure":28,"beat":1.75,"subject_pos":-1,"motif":"","motif_pos":-1,"best_pos":2,"similarity":0.45,"stretto":false,"stretto_voices":0,"combination":[],"aug_dim":"","rhythm_ratio":1.0,"chromatic_density":0.13},{"voice":1,"pitch":57,"start":72.6666,"duration":0.1667,"velocity":127,"measure":28,"beat":2.0,"subject_pos":-1,"motif":"","motif_pos":-1,"best_pos":3,"similarity":0.4,"stretto":false,"stretto_voices":0,"combination":[],"aug_dim":"","rhythm_ratio":1.0,"chromatic_density":0.13},{"voice":1,"pitch":60,"start":72.8333,"duration":0.1667,"velocity":127,"measure":28,"beat":2.25,"subject_pos":-1,"motif":"","motif_pos":-1,"best_pos":4,"similarity":0.271,"stretto":false,"stretto_voices":0,"combination":[],"aug_dim":"","rhythm_ratio":1.0,"chromatic_density":0.13},{"voice":1,"pitch":64,"start":72.9999,"duration":0.3333,"velocity":127,"measure":28,"beat":2.5,"subject_pos":-1,"motif":"","motif_pos":-1,"best_pos":5,"similarity":0.257,"stretto":false,"stretto_voices":0,"combination":[],"aug_dim":"","rhythm_ratio":1.0,"chromatic_density":0.13},{"voice":0,"pitch":71,"start":73.1666,"duration":0.1667,"velocity":127,"measure":28,"beat":2.75,"subject_pos":-1,"motif":"","motif_pos":-1,"best_pos":2,"similarity":0.364,"stretto":false,"stretto_voices":0,"combination":[],"aug_dim":"","rhythm_ratio":1.0,"chromatic_density":0.13},{"voice":0,"pitch":74,"start":73.3333,"duration":0.1667,"velocity":127,"measure":28,"beat":3.0,"subject_pos":-1,"motif":"","motif_pos":-1,"best_pos":3,"similarity":0.3,"stretto":false,"stretto_voices":0,"combination":[],"aug_dim":"","rhythm_ratio":1.0,"chromatic_density":0.13},{"voice":1,"pitch":56,"start":73.3333,"duration":0.1667,"velocity":127,"measure":28,"beat":3.0,"subject_pos":-1,"motif":"","motif_pos":-1,"best_pos":6,"similarity":0.307,"stretto":false,"stretto_voices":0,"combination":[],"aug_dim":"","rhythm_ratio":1.0,"chromatic_density":0.13},{"voice":0,"pitch":74,"start":73.4999,"duration":0.1667,"velocity":127,"measure":28,"beat":3.25,"subject_pos":-1,"motif":"","motif_pos":-1,"best_pos":1,"similarity":0.286,"stretto":false,"stretto_voices":0,"combination":[],"aug_dim":"","rhythm_ratio":1.0,"chromatic_density":0.13},{"voice":1,"pitch":57,"start":73.4999,"duration":0.3333,"velocity":127,"measure":28,"beat":3.25,"subject_pos":-1,"motif":"","motif_pos":-1,"best_pos":7,"similarity":0.293,"stretto":false,"stretto_voices":0,"combination":[],"aug_dim":"","rhythm_ratio":1.0,"chromatic_density":0.13},{"voice":0,"pitch":72,"start":73.6666,"duration":0.1667,"velocity":127,"measure":28,"beat":3.5,"subject_pos":-1,"motif":"","motif_pos":-1,"best_pos":2,"similarity":0.304,"stretto":false,"stretto_voices":0,"combination":[],"aug_dim":"","rhythm_ratio":1.0,"chromatic_density":0.13},{"voice":0,"pitch":81,"start":73.8333,"duration":0.1667,"velocity":127,"measure":28,"beat":3.75,"subject_pos":-1,"motif":"","motif_pos":-1,"best_pos":3,"similarity":0.179,"stretto":false,"stretto_voices":0,"combination":[],"aug_dim":"","rhythm_ratio":1.0,"chromatic_density":0.13},{"voice":1,"pitch":65,"start":73.8333,"duration":0.1667,"velocity":127,"measure":28,"beat":3.75,"subject_pos":-1,"motif":"","motif_pos":-1,"best_pos":1,"similarity":0.143,"stretto":false,"stretto_voices":0,"combination":[],"aug_dim":"","rhythm_ratio":1.0,"chromatic_density":0.13},{"voice":0,"pitch":72,"start":73.9999,"duration":0.1667,"velocity":127,"measure":28,"beat":4.0,"subject_pos":-1,"motif":"","motif_pos":-1,"best_pos":3,"similarity":0.286,"stretto":false,"stretto_voices":0,"combination":[],"aug_dim":"","rhythm_ratio":1.0,"chromatic_density":0.13},{"voice":1,"pitch":55,"start":73.9999,"duration":0.3333,"velocity":127,"measure":28,"beat":4.0,"subject_pos":-1,"motif":"","motif_pos":-1,"best_pos":0,"similarity":0.071,"stretto":false,"stretto_voices":0,"combination":[],"aug_dim":"","rhythm_ratio":1.0,"chromatic_density":0.13},{"voice":0,"pitch":71,"start":74.1666,"duration":0.1667,"velocity":127,"measure":28,"beat":4.25,"subject_pos":-1,"motif":"","motif_pos":-1,"best_pos":4,"similarity":0.293,"stretto":false,"stretto_voices":0,"combination":[],"aug_dim":"","rhythm_ratio":1.0,"chromatic_density":0.13},{"voice":0,"pitch":79,"start":74.3333,"duration":0.1667,"velocity":127,"measure":28,"beat":4.5,"subject_pos":-1,"motif":"","motif_pos":-1,"best_pos":1,"similarity":0.243,"stretto":false,"stretto_voices":0,"combination":[],"aug_dim":"","rhythm_ratio":1.0,"chromatic_density":0.13},{"voice":1,"pitch":64,"start":74.3333,"duration":0.1667,"velocity":127,"measure":28,"beat":4.5,"subject_pos":-1,"motif":"","motif_pos":-1,"best_pos":1,"similarity":0.071,"stretto":false,"stretto_voices":0,"combination":[],"aug_dim":"","rhythm_ratio":1.0,"chromatic_density":0.13},{"voice":0,"pitch":71,"start":74.4999,"duration":0.1667,"velocity":127,"measure":28,"beat":4.75,"subject_pos":-1,"motif":"","motif_pos":-1,"best_pos":1,"similarity":0.286,"stretto":false,"stretto_voices":0,"combination":[],"aug_dim":"","rhythm_ratio":1.0,"chromatic_density":0.13},{"voice":1,"pitch":53,"start":74.4999,"duration":0.3333,"velocity":127,"measure":28,"beat":4.75,"subject_pos":-1,"motif":"","motif_pos":-1,"best_pos":0,"similarity":0.071,"stretto":false,"stretto_voices":0,"combination":[],"aug_dim":"","rhythm_ratio":1.0,"chromatic_density":0.13},{"voice":0,"pitch":69,"start":74.6666,"duration":0.1667,"velocity":127,"measure":29,"beat":1.0,"subject_pos":-1,"motif":"","motif_pos":-1,"best_pos":2,"similarity":0.304,"stretto":false,"stretto_voices":0,"combination":[],"aug_dim":"","rhythm_ratio":1.0,"chromatic_density":0.25},{"voice":0,"pitch":77,"start":74.8333,"duration":0.1667,"velocity":127,"measure":29,"beat":1.25,"subject_pos":-1,"motif":"","motif_pos":-1,"best_pos":1,"similarity":0.214,"stretto":false,"stretto_voices":0,"combination":[],"aug_dim":"","rhythm_ratio":1.0,"chromatic_density":0.25},{"voice":1,"pitch":62,"start":74.8333,"duration":0.1667,"velocity":127,"measure":29,"beat":1.25,"subject_pos":-1,"motif":"","motif_pos":-1,"best_pos":1,"similarity":0.079,"stretto":false,"stretto_voices":0,"combination":[],"aug_dim":"","rhythm_ratio":1.0,"chromatic_density":0.25},{"voice":0,"pitch":69,"start":74.9999,"duration":0.1667,"velocity":127,"measure":29,"beat":1.5,"subject_pos":-1,"motif":"","motif_pos":-1,"best_pos":3,"similarity":0.321,"stretto":false,"stretto_voices":0,"combination":[],"aug_dim":"","rhythm_ratio":1.0,"chromatic_density":0.25},{"voice":1,"pitch":52,"start":74.9999,"duration":0.1667,"velocity":127,"measure":29,"beat":1.5,"subject_pos":-1,"motif":"","motif_pos":-1,"best_pos":0,"similarity":0.321,"stretto":false,"stretto_voices":0,"combination":[],"aug_dim":"","rhythm_ratio":1.0,"chromatic_density":0.25},{"voice":0,"pitch":68,"start":75.1666,"duration":0.1667,"velocity":127,"measure":29,"beat":1.75,"subject_pos":-1,"motif":"","motif_pos":-1,"best_pos":4,"similarity":0.357,"stretto":false,"stretto_voices":0,"combination":[],"aug_dim":"","rhythm_ratio":1.0,"chromatic_density":0.25},{"voice":1,"pitch":59,"start":75.1666,"duration":0.1667,"velocity":127,"measure":29,"beat":1.75,"subject_pos":-1,"motif":"","motif_pos":-1,"best_pos":1,"similarity":0.429,"stretto":false,"stretto_voices":0,"combination":[],"aug_dim":"","rhythm_ratio":1.0,"chromatic_density":0.25},{"voice":0,"pitch":71,"start":75.3333,"duration":0.1667,"velocity":127,"measure":29,"beat":2.0,"subject_pos":-1,"motif":"","motif_pos":-1,"best_pos":5,"similarity":0.214,"stretto":false,"stretto_voices":0,"combination":[],"aug_dim":"","rhythm_ratio":1.0,"chromatic_density":0.25},{"voice":1,"pitch":62,"start":75.3333,"duration":0.1667,"velocity":127,"measure":29,"beat":2.0,"subject_pos":-1,"motif":"","motif_pos":-1,"best_pos":2,"similarity":0.436,"stretto":false,"stretto_voices":0,"combination":[],"aug_dim":"","rhythm_ratio":1.0,"chromatic_density":0.25},{"voice":0,"pitch":64,"start":75.4999,"duration":0.3333,"velocity":127,"measure":29,"beat":2.25,"subject_pos":-1,"motif":"","motif_pos":-1,"best_pos":0,"similarity":0.171,"stretto":false,"stretto_voices":0,"combination":[],"aug_dim":"","rhythm_ratio":1.0,"chromatic_density":0.25},{"voice":1,"pitch":60,"start":75.4999,"duration":0.1667,"velocity":127,"measure":29,"beat":2.25,"subject_pos":-1,"motif":"","motif_pos":-1,"best_pos":3,"similarity":0.521,"stretto":false,"stretto_voices":0,"combination":[],"aug_dim":"","rhythm_ratio":1.0,"chromatic_density":0.25},{"voice":1,"pitch":59,"start":75.6666,"duration":0.1667,"velocity":127,"measure":29,"beat":2.5,"subject_pos":-1,"motif":"","motif_pos":-1,"best_pos":2,"similarity":0.429,"stretto":false,"stretto_voices":0,"combination":[],"aug_dim":"","rhythm_ratio":1.0,"chromatic_density":0.25},{"voice":1,"pitch":57,"start":75.8333,"duration":0.1667,"velocity":127,"measure":29,"beat":2.75,"subject_pos":0,"motif":"subject","motif_pos":0,"best_pos":0,"similarity":1.0,"stretto":false,"stretto_voices":0,"combination":[],"aug_dim":"","rhythm_ratio":1.0,"chromatic_density":0.25},{"voice":1,"pitch":56,"start":75.9999,"duration":0.1667,"velocity":127,"measure":29,"beat":3.0,"subject_pos":-1,"motif":"subject","motif_pos":0,"best_pos":0,"similarity":1.0,"stretto":false,"stretto_voices":0,"combination":[],"aug_dim":"","rhythm_ratio":1.0,"chromatic_density":0.25},{"voice":1,"pitch":62,"start":76.1666,"duration":0.1667,"velocity":127,"measure":29,"beat":3.25,"subject_pos":-1,"motif":"subject","motif_pos":0,"best_pos":0,"similarity":1.0,"stretto":false,"stretto_voices":0,"combination":[],"aug_dim":"","rhythm_ratio":1.0,"chromatic_density":0.25},{"voice":1,"pitch":65,"start":76.3333,"duration":0.1667,"velocity":127,"measure":29,"beat":3.5,"subject_pos":-1,"motif":"subject","motif_pos":0,"best_pos":0,"similarity":1.0,"stretto":false,"stretto_voices":0,"combination":[],"aug_dim":"","rhythm_ratio":1.0,"chromatic_density":0.25},{"voice":1,"pitch":64,"start":76.4999,"duration":0.1667,"velocity":127,"measure":29,"beat":3.75,"subject_pos":1,"motif":"subject","motif_pos":1,"best_pos":1,"similarity":1.0,"stretto":false,"stretto_voices":0,"combination":[],"aug_dim":"","rhythm_ratio":1.0,"chromatic_density":0.25},{"voice":1,"pitch":62,"start":76.6666,"duration":0.1667,"velocity":127,"measure":29,"beat":4.0,"subject_pos":2,"motif":"subject","motif_pos":2,"best_pos":2,"similarity":1.0,"stretto":false,"stretto_voices":0,"combination":[],"aug_dim":"","rhythm_ratio":1.0,"chromatic_density":0.25},{"voice":1,"pitch":60,"start":76.8333,"duration":0.1667,"velocity":127,"measure":29,"beat":4.25,"subject_pos":3,"motif":"subject","motif_pos":3,"best_pos":3,"similarity":1.0,"stretto":false,"stretto_voices":0,"combination":[],"aug_dim":"","rhythm_ratio":1.0,"chromatic_density":0.25},{"voice":0,"pitch":74,"start":76.9999,"duration":0.6667,"velocity":127,"measure":29,"beat":4.5,"subject_pos":-1,"motif":"","motif_pos":-1,"best_pos":1,"similarity":0.321,"stretto":false,"stretto_voices":0,"combination":[],"aug_dim":"","rhythm_ratio":1.0,"chromatic_density":0.25},{"voice":1,"pitch":59,"start":76.9999,"duration":0.1667,"velocity":127,"measure":29,"beat":4.5,"subject_pos":4,"motif":"subject","motif_pos":4,"best_pos":4,"similarity":1.0,"stretto":false,"stretto_voices":0,"combination":[],"aug_dim":"","rhythm_ratio":1.0,"chromatic_density":0.25},{"voice":1,"pitch":57,"start":77.1666,"duration":0.1667,"velocity":127,"measure":29,"beat":4.75,"subject_pos":5,"motif":"subject","motif_pos":5,"best_pos":5,"similarity":1.0,"stretto":false,"stretto_voices":0,"combination":[],"aug_dim":"","rhythm_ratio":1.0,"chromatic_density":0.25},{"voice":1,"pitch":56,"start":77.3333,"duration":0.1667,"velocity":127,"measure":30,"beat":1.0,"subject_pos":6,"motif":"subject","motif_pos":6,"best_pos":6,"similarity":1.0,"stretto":false,"stretto_voices":0,"combination":[],"aug_dim":"","rhythm_ratio":1.0,"chromatic_density":0.25},{"voice":1,"pitch":57,"start":77.4999,"duration":0.1667,"velocity":127,"measure":30,"beat":1.25,"subject_pos":7,"motif":"subject","motif_pos":7,"best_pos":7,"similarity":1.0,"stretto":false,"stretto_voices":0,"combination":[],"aug_dim":"","rhythm_ratio":1.0,"chromatic_density":0.25},{"voice":0,"pitch":72,"start":77.6666,"duration":0.1667,"velocity":127,"measure":30,"beat":1.5,"subject_pos":-1,"motif":"","motif_pos":-1,"best_pos":4,"similarity":0.443,"stretto":false,"stretto_voices":0,"combination":[],"aug_dim":"","rhythm_ratio":1.0,"chromatic_density":0.25},{"voice":1,"pitch":52,"start":77.6666,"duration":0.1667,"velocity":127,"measure":30,"beat":1.5,"subject_pos":-1,"motif":"subject","motif_pos":7,"best_pos":7,"similarity":1.0,"stretto":false,"stretto_voices":0,"combination":[],"aug_dim":"","rhythm_ratio":1.0,"chromatic_density":0.25},{"voice":0,"pitch":74,"start":77.8333,"duration":0.1667,"velocity":127,"measure":30,"beat":1.75,"subject_pos":-1,"motif":"","motif_pos":-1,"best_pos":5,"similarity":0.514,"stretto":false,"stretto_voices":0,"combination":[],"aug_dim":"","rhythm_ratio":1.0,"chromatic_density":0.25},{"voice":1,"pitch":59,"start":77.8333,"duration":0.1667,"velocity":127,"measure":30,"beat":1.75,"subject_pos":8,"motif":"subject","motif_pos":8,"best_pos":0,"similarity":1.0,"stretto":false,"stretto_voices":0,"combination":[],"aug_dim":"","rhythm_ratio":1.0,"chromatic_density":0.25},{"voice":0,"pitch":76,"start":77.9999,"duration":0.1667,"velocity":127,"measure":30,"beat":2.0,"subject_pos":-1,"motif":"","motif_pos":-1,"best_pos":1,"similarity":0.457,"stretto":false,"stretto_voices":0,"combination":[],"aug_dim":"","rhythm_ratio":1.0,"chromatic_density":0.25},{"voice":1,"pitch":60,"start":77.9999,"duration":0.1667,"velocity":127,"measure":30,"beat":2.0,"subject_pos":-1,"motif":"","motif_pos":-1,"best_pos":5,"similarity":0.346,"stretto":false,"stretto_voices":0,"combination":[],"aug_dim":"","rhythm_ratio":1.0,"chromatic_density":0.25},{"voice":0,"pitch":74,"start":78.1666,"duration":0.1667,"velocity":127,"measure":30,"beat":2.25,"subject_pos":-1,"motif":"","motif_pos":-1,"best_pos":2,"similarity":0.657,"stretto":false,"stretto_voices":0,"combination":[],"aug_dim":"","rhythm_ratio":1.0,"chromatic_density":0.25},{"voice":1,"pitch":59,"start":78.1666,"duration":0.1667,"velocity":127,"measure":30,"beat":2.25,"subject_pos":-1,"motif":"","motif_pos":-1,"best_pos":4,"similarity":0.329,"stretto":false,"stretto_voices":0,"combination":[],"aug_dim":"","rhythm_ratio":1.0,"chromatic_density":0.25},{"voice":0,"pitch":72,"start":78.3333,"duration":0.1667,"velocity":127,"measure":30,"beat":2.5,"subject_pos":-1,"motif":"","motif_pos":-1,"best_pos":3,"similarity":0.793,"stretto":false,"stretto_voices":0,"combination":[],"aug_dim":"","rhythm_ratio":1.0,"chromatic_density":0.25},{"voice":1,"pitch":57,"start":78.3333,"duration":0.1667,"velocity":127,"measure":30,"beat":2.5,"subject_pos":-1,"motif":"","motif_pos":-1,"best_pos":0,"similarity":0.357,"stretto":false,"stretto_voices":0,"combination":[],"aug_dim":"","rhythm_ratio":1.0,"chromatic_density":0.25},{"voice":0,"pitch":71,"start":78.4999,"duration":0.1667,"velocity":127,"measure":30,"beat":2.75,"subject_pos":-1,"motif":"","motif_pos":-1,"best_pos":4,"similarity":0.893,"stretto":false,"stretto_voices":0,"combination":[],"aug_dim":"","rhythm_ratio":1.0,"chromatic_density":0.25},{"voice":1,"pitch":64,"start":78.4999,"duration":0.6667,"velocity":127,"measure":30,"beat":2.75,"subject_pos":-1,"motif":"","motif_pos":-1,"best_pos":1,"similarity":0.464,"stretto":false,"stretto_voices":0,"combination":[],"aug_dim":"","rhythm_ratio":1.0,"chromatic_density":0.25},{"voice":0,"pitch":72,"start":78.6666,"duration":0.1667,"velocity":127,"measure":30,"beat":3.0,"subject_pos":-1,"motif":"","motif_pos":-1,"best_pos":5,"similarity":0.821,"stretto":false,"stretto_voices":0,"combination":[],"aug_dim":"","rhythm_ratio":1.0,"chromatic_density":0.25},{"voice":0,"pitch":74,"start":78.8333,"duration":0.1667,"velocity":127,"measure":30,"beat":3.25,"subject_pos":-1,"motif":"","motif_pos":-1,"best_pos":6,"similarity":0.643,"stretto":false,"stretto_voices":0,"combination":[],"aug_dim":"","rhythm_ratio":1.0,"chromatic_density":0.25},{"voice":0,"pitch":76,"start":78.9999,"duration":0.1667,"velocity":127,"measure":30,"beat":3.5,"subject_pos":-1,"motif":"","motif_pos":-1,"best_pos":5,"similarity":0.521,"stretto":false,"stretto_voices":0,"combination":[],"aug_dim":"","rhythm_ratio":1.0,"chromatic_density":0.25},{"voice":0,"pitch":78,"start":79.1666,"duration":0.1667,"velocity":127,"measure":30,"beat":3.75,"subject_pos":-1,"motif":"","motif_pos":-1,"best_pos":5,"similarity":0.586,"stretto":false,"stretto_voices":0,"combination":[],"aug_dim":"","rhythm_ratio":1.0,"chromatic_density":0.25},{"voice":1,"pitch":59,"start":79.1666,"duration":0.1667,"velocity":127,"measure":30,"beat":3.75,"subject_pos":-1,"motif":"","motif_pos":-1,"best_pos":2,"similarity":0.364,"stretto":false,"stretto_voices":0,"combination":[],"aug_dim":"","rhythm_ratio":1.0,"chromatic_density":0.25},{"voice":0,"pitch":80,"start":79.3333,"duration":0.1667,"velocity":127,"measure":30,"beat":4.0,"subject_pos":-1,"motif":"enigmatic_cell","motif_pos":0,"best_pos":0,"similarity":1.0,"stretto":false,"stretto_voices":0,"combination":[],"aug_dim":"","rhythm_ratio":1.0,"chromatic_density":0.25},{"voice":1,"pitch":62,"start":79.3333,"duration":0.1667,"velocity":127,"measure":30,"beat":4.0,"subject_pos":-1,"motif":"","motif_pos":-1,"best_pos":3,"similarity":0.3,"stretto":false,"stretto_voices":0,"combination":[],"aug_dim":"","rhythm_ratio":1.0,"chromatic_density":0.25},{"voice":0,"pitch":81,"start":79.4999,"duration":0.1667,"velocity":127,"measure":30,"beat":4.25,"subject_pos":-1,"motif":"enigmatic_cell","motif_pos":1,"best_pos":1,"similarity":1.0,"stretto":false,"stretto_voices":0,"combination":[],"aug_dim":"","rhythm_ratio":1.0,"chromatic_density":0.25},{"voice":1,"pitch":62,"start":79.4999,"duration":0.1667,"velocity":127,"measure":30,"beat":4.25,"subject_pos":-1,"motif":"","motif_pos":-1,"best_pos":1,"similarity":0.286,"stretto":false,"stretto_voices":0,"combination":[],"aug_dim":"","rhythm_ratio":1.0,"chromatic_density":0.25},{"voice":0,"pitch":76,"start":79.6666,"duration":0.1667,"velocity":127,"measure":30,"beat":4.5,"subject_pos":-1,"motif":"enigmatic_cell","motif_pos":2,"best_pos":2,"similarity":1.0,"stretto":false,"stretto_voices":0,"combination":[],"aug_dim":"","rhythm_ratio":1.0,"chromatic_density":0.25},{"voice":1,"pitch":60,"start":79.6666,"duration":0.1667,"velocity":127,"measure":30,"beat":4.5,"subject_pos":-1,"motif":"","motif_pos":-1,"best_pos":2,"similarity":0.304,"stretto":false,"stretto_voices":0,"combination":[],"aug_dim":"","rhythm_ratio":1.0,"chromatic_density":0.25},{"voice":0,"pitch":72,"start":79.8333,"duration":0.1667,"velocity":127,"measure":30,"beat":4.75,"subject_pos":-1,"motif":"","motif_pos":-1,"best_pos":5,"similarity":0.321,"stretto":false,"stretto_voices":0,"combination":[],"aug_dim":"","rhythm_ratio":1.0,"chromatic_density":0.25},{"voice":1,"pitch":69,"start":79.8333,"duration":0.1667,"velocity":127,"measure":30,"beat":4.75,"subject_pos":-1,"motif":"","motif_pos":-1,"best_pos":3,"similarity":0.179,"stretto":false,"stretto_voices":0,"combination":[],"aug_dim":"","rhythm_ratio":1.0,"chromatic_density":0.25},{"voice":0,"pitch":74,"start":79.9999,"duration":0.1667,"velocity":127,"measure":31,"beat":1.0,"subject_pos":-1,"motif":"","motif_pos":-1,"best_pos":6,"similarity":0.321,"stretto":false,"stretto_voices":0,"combination":[],"aug_dim":"","rhythm_ratio":1.0,"chromatic_density":0.25},{"voice":1,"pitch":60,"start":79.9999,"duration":0.1667,"velocity":127,"measure":31,"beat":1.0,"subject_pos":-1,"motif":"","motif_pos":-1,"best_pos":3,"similarity":0.286,"stretto":false,"stretto_voices":0,"combination":[],"aug_dim":"","rhythm_ratio":1.0,"chromatic_density":0.25},{"voice":0,"pitch":79,"start":80.1666,"duration":0.1667,"velocity":127,"measure":31,"beat":1.25,"subject_pos":-1,"motif":"","motif_pos":-1,"best_pos":1,"similarity":0.329,"stretto":false,"stretto_voices":0,"combination":[],"aug_dim":"","rhythm_ratio":1.0,"chromatic_density":0.25},{"voice":1,"pitch":59,"start":80.1666,"duration":0.1667,"velocity":127,"measure":31,"beat":1.25,"subject_pos":-1,"motif":"","motif_pos":-1,"best_pos":4,"similarity":0.293,"stretto":false,"stretto_voices":0,"combination":[],"aug_dim":"","rhythm_ratio":1.0,"chromatic_density":0.25},{"voice":0,"pitch":71,"start":80.3333,"duration":0.1667,"velocity":127,"measure":31,"beat":1.5,"subject_pos":-1,"motif":"","motif_pos":-1,"best_pos":4,"similarity":0.307,"stretto":false,"stretto_voices":0,"combination":[],"aug_dim":"","rhythm_ratio":1.0,"chromatic_density":0.25},{"voice":1,"pitch":67,"start":80.3333,"duration":0.1667,"velocity":127,"measure":31,"beat":1.5,"subject_pos":-1,"motif":"","motif_pos":-1,"best_pos":1,"similarity":0.243,"stretto":false,"stretto_voices":0,"combination":[],"aug_dim":"","rhythm_ratio":1.0,"chromatic_density":0.25},{"voice":0,"pitch":72,"start":80.4999,"duration":0.1667,"velocity":127,"measure":31,"beat":1.75,"subject_pos":-1,"motif":"","motif_pos":-1,"best_pos":5,"similarity":0.314,"stretto":false,"stretto_voices":0,"combination":[],"aug_dim":"","rhythm_ratio":1.0,"chromatic_density":0.25},{"voice":1,"pitch":59,"start":80.4999,"duration":0.1667,"velocity":127,"measure":31,"beat":1.75,"subject_pos":-1,"motif":"","motif_pos":-1,"best_pos":1,"similarity":0.286,"stretto":false,"stretto_voices":0,"combination":[],"aug_dim":"","rhythm_ratio":1.0,"chromatic_density":0.25},{"voice":0,"pitch":77,"start":80.6666,"duration":0.1667,"velocity":127,"measure":31,"beat":2.0,"subject_pos":-1,"motif":"","motif_pos":-1,"best_pos":1,"similarity":0.314,"stretto":false,"stretto_voices":0,"combination":[],"aug_dim":"","rhythm_ratio":1.0,"chromatic_density":0.25},{"voice":1,"pitch":57,"start":80.6666,"duration":0.1667,"velocity":127,"measure":31,"beat":2.0,"subject_pos":-1,"motif":"","motif_pos":-1,"best_pos":2,"similarity":0.304,"stretto":false,"stretto_voices":0,"combination":[],"aug_dim":"","rhythm_ratio":1.0,"chromatic_density":0.25},{"voice":0,"pitch":69,"start":80.8333,"duration":0.1667,"velocity":127,"measure":31,"beat":2.25,"subject_pos":-1,"motif":"","motif_pos":-1,"best_pos":5,"similarity":0.307,"stretto":false,"stretto_voices":0,"combination":[],"aug_dim":"","rhythm_ratio":1.0,"chromatic_density":0.25},{"voice":1,"pitch":65,"start":80.8333,"duration":0.1667,"velocity":127,"measure":31,"beat":2.25,"subject_pos":-1,"motif":"","motif_pos":-1,"best_pos":1,"similarity":0.214,"stretto":false,"stretto_voices":0,"combination":[],"aug_dim":"","rhythm_ratio":1.0,"chromatic_density":0.25},{"voice":0,"pitch":71,"start":80.9999,"duration":0.1667,"velocity":127,"measure":31,"beat":2.5,"subject_pos":-1,"motif":"","motif_pos":-1,"best_pos":0,"similarity":0.464,"stretto":false,"stretto_voices":0,"combination":[],"aug_dim":"","rhythm_ratio":1.0,"chromatic_density":0.25},{"voice":1,"pitch":57,"start":80.9999,"duration":0.1667,"velocity":127,"measure":31,"beat":2.5,"subject_pos":-1,"motif":"","motif_pos":-1,"best_pos":3,"similarity":0.321,"stretto":false,"stretto_voices":0,"combination":[],"aug_dim":"","rhythm_ratio":1.0,"chromatic_density":0.25},{"voice":0,"pitch":76,"start":81.1666,"duration":0.1667,"velocity":127,"measure":31,"beat":2.75,"subject_pos":-1,"motif":"","motif_pos":-1,"best_pos":1,"similarity":0.714,"stretto":false,"stretto_voices":0,"combination":[],"aug_dim":"","rhythm_ratio":1.0,"chromatic_density":0.25},{"voice":1,"pitch":56,"start":81.1666,"duration":0.1667,"velocity":127,"measure":31,"beat":2.75,"subject_pos":-1,"motif":"","motif_pos":-1,"best_pos":4,"similarity":0.357,"stretto":false,"stretto_voices":0,"combination":[],"aug_dim":"","rhythm_ratio":1.0,"chromatic_density":0.25},{"voice":0,"pitch":74,"start":81.3333,"duration":0.1667,"velocity":127,"measure":31,"beat":3.0,"subject_pos":-1,"motif":"","motif_pos":-1,"best_pos":2,"similarity":0.721,"stretto":false,"stretto_voices":0,"combination":[],"aug_dim":"","rhythm_ratio":1.0,"chromatic_density":0.25},{"voice":1,"pitch":59,"start":81.3333,"duration":0.1667,"velocity":127,"measure":31,"beat":3.0,"subject_pos":-1,"motif":"","motif_pos":-1,"best_pos":5,"similarity":0.214,"stretto":false,"stretto_voices":0,"combination":[],"aug_dim":"","rhythm_ratio":1.0,"chromatic_density":0.25},{"voice":0,"pitch":72,"start":81.4999,"duration":0.1667,"velocity":127,"measure":31,"beat":3.25,"subject_pos":-1,"motif":"","motif_pos":-1,"best_pos":3,"similarity":0.729,"stretto":false,"stretto_voices":0,"combination":[],"aug_dim":"","rhythm_ratio":1.0,"chromatic_density":0.25},{"voice":1,"pitch":52,"start":81.4999,"duration":0.3333,"velocity":127,"measure":31,"beat":3.25,"subject_pos":-1,"motif":"","motif_pos":-1,"best_pos":0,"similarity":0.171,"stretto":false,"stretto_voices":0,"combination":[],"aug_dim":"","rhythm_ratio":1.0,"chromatic_density":0.25},{"voice":0,"pitch":71,"start":81.6666,"duration":0.1667,"velocity":127,"measure":31,"beat":3.5,"subject_pos":-1,"motif":"","motif_pos":-1,"best_pos":4,"similarity":0.607,"stretto":false,"stretto_voices":0,"combination":[],"aug_dim":"","rhythm_ratio":1.0,"chromatic_density":0.25},{"voice":0,"pitch":69,"start":81.8333,"duration":0.1667,"velocity":127,"measure":31,"beat":3.75,"subject_pos":-1,"motif":"","motif_pos":-1,"best_pos":5,"similarity":0.507,"stretto":false,"stretto_voices":0,"combination":[],"aug_dim":"","rhythm_ratio":1.0,"chromatic_density":0.25},{"voice":0,"pitch":71,"start":81.9999,"duration":0.1667,"velocity":127,"measure":31,"beat":4.0,"subject_pos":-1,"motif":"","motif_pos":-1,"best_pos":6,"similarity":0.4,"stretto":false,"stretto_voices":0,"combination":[],"aug_dim":"","rhythm_ratio":1.0,"chromatic_density":0.25},{"voice":0,"pitch":69,"start":82.1666,"duration":0.1667,"velocity":127,"measure":31,"beat":4.25,"subject_pos":-1,"motif":"","motif_pos":-1,"best_pos":3,"similarity":0.593,"stretto":false,"stretto_voices":0,"combination":[],"aug_dim":"","rhythm_ratio":1.0,"chromatic_density":0.25},{"voice":0,"pitch":68,"start":82.3333,"duration":0.1667,"velocity":127,"measure":31,"beat":4.5,"subject_pos":-1,"motif":"","motif_pos":-1,"best_pos":4,"similarity":0.671,"stretto":false,"stretto_voices":0,"combination":[],"aug_dim":"","rhythm_ratio":1.0,"chromatic_density":0.25},{"voice":0,"pitch":69,"start":82.4999,"duration":0.1667,"velocity":127,"measure":31,"beat":4.75,"subject_pos":-1,"motif":"","motif_pos":-1,"best_pos":5,"similarity":0.507,"stretto":false,"stretto_voices":0,"combination":[],"aug_dim":"","rhythm_ratio":1.0,"chromatic_density":0.25},{"voice":0,"pitch":68,"start":82.6666,"duration":0.1667,"velocity":127,"measure":32,"beat":1.0,"subject_pos":-1,"motif":"","motif_pos":-1,"best_pos":4,"similarity":0.507,"stretto":false,"stretto_voices":0,"combination":[],"aug_dim":"","rhythm_ratio":1.0,"chromatic_density":0.136},{"voice":0,"pitch":66,"start":82.8333,"duration":0.1667,"velocity":127,"measure":32,"beat":1.25,"subject_pos":-1,"motif":"","motif_pos":-1,"best_pos":5,"similarity":0.464,"stretto":false,"stretto_voices":0,"combination":[],"aug_dim":"","rhythm_ratio":1.0,"chromatic_density":0.136},{"voice":0,"pitch":68,"start":82.9999,"duration":0.1667,"velocity":127,"measure":32,"beat":1.5,"subject_pos":-1,"motif":"","motif_pos":-1,"best_pos":6,"similarity":0.371,"stretto":false,"stretto_voices":0,"combination":[],"aug_dim":"","rhythm_ratio":1.0,"chromatic_density":0.136},{"voice":1,"pitch":62,"start":82.9999,"duration":0.6667,"velocity":127,"measure":32,"beat":1.5,"subject_pos":-1,"motif":"","motif_pos":-1,"best_pos":1,"similarity":0.321,"stretto":false,"stretto_voices":0,"combination":[],"aug_dim":"","rhythm_ratio":1.0,"chromatic_density":0.136},{"voice":0,"pitch":64,"start":83.1666,"duration":0.1667,"velocity":127,"measure":32,"beat":1.75,"subject_pos":-1,"motif":"","motif_pos":-1,"best_pos":2,"similarity":0.321,"stretto":false,"stretto_voices":0,"combination":[],"aug_dim":"","rhythm_ratio":1.0,"chromatic_density":0.136},{"voice":0,"pitch":68,"start":83.3333,"duration":0.1667,"velocity":127,"measure":32,"beat":2.0,"subject_pos":-1,"motif":"","motif_pos":-1,"best_pos":3,"similarity":0.2,"stretto":false,"stretto_voices":0,"combination":[],"aug_dim":"","rhythm_ratio":1.0,"chromatic_density":0.136},{"voice":0,"pitch":71,"start":83.4999,"duration":0.1667,"velocity":127,"measure":32,"beat":2.25,"subject_pos":-1,"motif":"","motif_pos":-1,"best_pos":0,"similarity":0.464,"stretto":false,"stretto_voices":0,"combination":[],"aug_dim":"","rhythm_ratio":1.0,"chromatic_density":0.136},{"voice":0,"pitch":76,"start":83.6666,"duration":0.1667,"velocity":127,"measure":32,"beat":2.5,"subject_pos":-1,"motif":"","motif_pos":-1,"best_pos":1,"similarity":0.714,"stretto":false,"stretto_voices":0,"combination":[],"aug_dim":"","rhythm_ratio":1.0,"chromatic_density":0.136},{"voice":1,"pitch":60,"start":83.6666,"duration":0.1667,"velocity":127,"measure":32,"beat":2.5,"subject_pos":-1,"motif":"","motif_pos":-1,"best_pos":4,"similarity":0.443,"stretto":false,"stretto_voices":0,"combination":[],"aug_dim":"","rhythm_ratio":1.0,"chromatic_density":0.136},{"voice":0,"pitch":74,"start":83.8332,"duration":0.1667,"velocity":127,"measure":32,"beat":2.75,"subject_pos":-1,"motif":"","motif_pos":-1,"best_pos":2,"similarity":0.721,"stretto":false,"stretto_voices":0,"combination":[],"aug_dim":"","rhythm_ratio":1.0,"chromatic_density":0.136},{"voice":1,"pitch":62,"start":83.8332,"duration":0.1667,"velocity":127,"measure":32,"beat":2.75,"subject_pos":-1,"motif":"","motif_pos":-1,"best_pos":5,"similarity":0.514,"stretto":false,"stretto_voices":0,"combination":[],"aug_dim":"","rhythm_ratio":1.0,"chromatic_density":0.136},{"voice":0,"pitch":72,"start":83.9999,"duration":0.1667,"velocity":127,"measure":32,"beat":3.0,"subject_pos":-1,"motif":"","motif_pos":-1,"best_pos":3,"similarity":0.664,"stretto":false,"stretto_voices":0,"combination":[],"aug_dim":"","rhythm_ratio":1.0,"chromatic_density":0.136},{"voice":1,"pitch":64,"start":83.9999,"duration":0.1667,"velocity":127,"measure":32,"beat":3.0,"subject_pos":-1,"motif":"","motif_pos":-1,"best_pos":1,"similarity":0.457,"stretto":false,"stretto_voices":0,"combination":[],"aug_dim":"","rhythm_ratio":1.0,"chromatic_density":0.136},{"voice":0,"pitch":71,"start":84.1666,"duration":0.1667,"velocity":127,"measure":32,"beat":3.25,"subject_pos":-1,"motif":"","motif_pos":-1,"best_pos":4,"similarity":0.479,"stretto":false,"stretto_voices":0,"combination":[],"aug_dim":"","rhythm_ratio":1.0,"chromatic_density":0.136},{"voice":1,"pitch":62,"start":84.1666,"duration":0.1667,"velocity":127,"measure":32,"beat":3.25,"subject_pos":-1,"motif":"","motif_pos":-1,"best_pos":2,"similarity":0.657,"stretto":false,"stretto_voices":0,"combination":[],"aug_dim":"","rhythm_ratio":1.0,"chromatic_density":0.136},{"voice":0,"pitch":69,"start":84.3332,"duration":0.1667,"velocity":127,"measure":32,"beat":3.5,"subject_pos":-1,"motif":"","motif_pos":-1,"best_pos":0,"similarity":0.446,"stretto":false,"stretto_voices":0,"combination":[],"aug_dim":"","rhythm_ratio":1.0,"chromatic_density":0.136},{"voice":1,"pitch":60,"start":84.3332,"duration":0.1667,"velocity":127,"measure":32,"beat":3.5,"subject_pos":-1,"motif":"","motif_pos":-1,"best_pos":3,"similarity":0.793,"stretto":false,"stretto_voices":0,"combination":[],"aug_dim":"","rhythm_ratio":1.0,"chromatic_density":0.136},{"voice":0,"pitch":74,"start":84.4999,"duration":0.6667,"velocity":127,"measure":32,"beat":3.75,"subject_pos":-1,"motif":"","motif_pos":-1,"best_pos":1,"similarity":0.625,"stretto":false,"stretto_voices":0,"combination":[],"aug_dim":"","rhythm_ratio":1.0,"chromatic_density":0.136},{"voice":1,"pitch":59,"start":84.4999,"duration":0.1667,"velocity":127,"measure":32,"beat":3.75,"subject_pos":-1,"motif":"","motif_pos":-1,"best_pos":4,"similarity":0.893,"stretto":false,"stretto_voices":0,"combination":[],"aug_dim":"","rhythm_ratio":1.0,"chromatic_density":0.136},{"voice":1,"pitch":60,"start":84.6666,"duration":0.1667,"velocity":127,"measure":32,"beat":4.0,"subject_pos":-1,"motif":"","motif_pos":-1,"best_pos":5,"similarity":0.821,"stretto":false,"stretto_voices":0,"combination":[],"aug_dim":"","rhythm_ratio":1.0,"chromatic_density":0.136},{"voice":1,"pitch":62,"start":84.8332,"duration":0.1667,"velocity":127,"measure":32,"beat":4.25,"subject_pos":-1,"motif":"","motif_pos":-1,"best_pos":6,"similarity":0.643,"stretto":false,"stretto_voices":0,"combination":[],"aug_dim":"","rhythm_ratio":1.0,"chromatic_density":0.136},{"voice":1,"pitch":64,"start":84.9999,"duration":0.1667,"velocity":127,"measure":32,"beat":4.5,"subject_pos":-1,"motif":"","motif_pos":-1,"best_pos":5,"similarity":0.521,"stretto":false,"stretto_voices":0,"combination":[],"aug_dim":"","rhythm_ratio":1.0,"chromatic_density":0.136},{"voice":0,"pitch":72,"start":85.1666,"duration":0.1667,"velocity":127,"measure":32,"beat":4.75,"subject_pos":-1,"motif":"","motif_pos":-1,"best_pos":3,"similarity":0.579,"stretto":false,"stretto_voices":0,"combination":[],"aug_dim":"","rhythm_ratio":1.0,"chromatic_density":0.136},{"voice":1,"pitch":66,"start":85.1666,"duration":0.1667,"velocity":127,"measure":32,"beat":4.75,"subject_pos":-1,"motif":"","motif_pos":-1,"best_pos":5,"similarity":0.586,"stretto":false,"stretto_voices":0,"combination":[],"aug_dim":"","rhythm_ratio":1.0,"chromatic_density":0.136},{"voice":0,"pitch":71,"start":85.3332,"duration":0.1667,"velocity":127,"measure":33,"beat":1.0,"subject_pos":-1,"motif":"","motif_pos":-1,"best_pos":4,"similarity":0.675,"stretto":false,"stretto_voices":0,"combination":[],"aug_dim":"","rhythm_ratio":1.0,"chromatic_density":0.273},{"voice":1,"pitch":68,"start":85.3332,"duration":0.1667,"velocity":127,"measure":33,"beat":1.0,"subject_pos":-1,"motif":"enigmatic_cell","motif_pos":0,"best_pos":0,"similarity":1.0,"stretto":false,"stretto_voices":0,"combination":[],"aug_dim":"","rhythm_ratio":1.0,"chromatic_density":0.273},{"voice":0,"pitch":72,"start":85.4999,"duration":0.3333,"velocity":127,"measure":33,"beat":1.25,"subject_pos":-1,"motif":"","motif_pos":-1,"best_pos":5,"similarity":0.529,"stretto":false,"stretto_voices":0,"combination":[],"aug_dim":"","rhythm_ratio":1.0,"chromatic_density":0.273},{"voice":1,"pitch":69,"start":85.4999,"duration":0.1667,"velocity":127,"measure":33,"beat":1.25,"subject_pos":-1,"motif":"enigmatic_cell","motif_pos":1,"best_pos":1,"similarity":1.0,"stretto":false,"stretto_voices":0,"combination":[],"aug_dim":"","rhythm_ratio":1.0,"chromatic_density":0.273},{"voice":1,"pitch":64,"start":85.6666,"duration":0.1667,"velocity":127,"measure":33,"beat":1.5,"subject_pos":-1,"motif":"enigmatic_cell","motif_pos":2,"best_pos":2,"similarity":1.0,"stretto":false,"stretto_voices":0,"combination":[],"aug_dim":"","rhythm_ratio":1.0,"chromatic_density":0.273},{"voice":1,"pitch":60,"start":85.8332,"duration":0.1667,"velocity":127,"measure":33,"beat":1.75,"subject_pos":-1,"motif":"","motif_pos":-1,"best_pos":5,"similarity":0.321,"stretto":false,"stretto_voices":0,"combination":[],"aug_dim":"","rhythm_ratio":1.0,"chromatic_density":0.273},{"voice":0,"pitch":77,"start":85.9999,"duration":0.3333,"velocity":127,"measure":33,"beat":2.0,"subject_pos":-1,"motif":"","motif_pos":-1,"best_pos":1,"similarity":0.5,"stretto":false,"stretto_voices":0,"combination":[],"aug_dim":"","rhythm_ratio":1.0,"chromatic_density":0.273},{"voice":1,"pitch":62,"start":85.9999,"duration":0.1667,"velocity":127,"measure":33,"beat":2.0,"subject_pos":-1,"motif":"","motif_pos":-1,"best_pos":6,"similarity":0.321,"stretto":false,"stretto_voices":0,"combination":[],"aug_dim":"","rhythm_ratio":1.0,"chromatic_density":0.273},{"voice":1,"pitch":67,"start":86.1666,"duration":0.1667,"velocity":127,"measure":33,"beat":2.25,"subject_pos":-1,"motif":"","motif_pos":-1,"best_pos":1,"similarity":0.329,"stretto":false,"stretto_voices":0,"combination":[],"aug_dim":"","rhythm_ratio":1.0,"chromatic_density":0.273},{"voice":1,"pitch":59,"start":86.3332,"duration":0.1667,"velocity":127,"measure":33,"beat":2.5,"subject_pos":-1,"motif":"","motif_pos":-1,"best_pos":4,"similarity":0.307,"stretto":false,"stretto_voices":0,"combination":[],"aug_dim":"","rhythm_ratio":1.0,"chromatic_density":0.273},{"voice":0,"pitch":76,"start":86.4999,"duration":0.3333,"velocity":127,"measure":33,"beat":2.75,"subject_pos":-1,"motif":"","motif_pos":-1,"best_pos":2,"similarity":0.5,"stretto":false,"stretto_voices":0,"combination":[],"aug_dim":"","rhythm_ratio":1.0,"chromatic_density":0.273},{"voice":1,"pitch":60,"start":86.4999,"duration":0.1667,"velocity":127,"measure":33,"beat":2.75,"subject_pos":-1,"motif":"","motif_pos":-1,"best_pos":5,"similarity":0.314,"stretto":false,"stretto_voices":0,"combination":[],"aug_dim":"","rhythm_ratio":1.0,"chromatic_density":0.273},{"voice":1,"pitch":65,"start":86.6666,"duration":0.1667,"velocity":127,"measure":33,"beat":3.0,"subject_pos":-1,"motif":"","motif_pos":-1,"best_pos":1,"similarity":0.314,"stretto":false,"stretto_voices":0,"combination":[],"aug_dim":"","rhythm_ratio":1.0,"chromatic_density":0.273},{"voice":1,"pitch":57,"start":86.8332,"duration":0.1667,"velocity":127,"measure":33,"beat":3.25,"subject_pos":-1,"motif":"","motif_pos":-1,"best_pos":5,"similarity":0.307,"stretto":false,"stretto_voices":0,"combination":[],"aug_dim":"","rhythm_ratio":1.0,"chromatic_density":0.273},{"voice":0,"pitch":74,"start":86.9999,"duration":0.3333,"velocity":127,"measure":33,"beat":3.5,"subject_pos":-1,"motif":"","motif_pos":-1,"best_pos":3,"similarity":0.464,"stretto":false,"stretto_voices":0,"combination":[],"aug_dim":"","rhythm_ratio":1.0,"chromatic_density":0.273},{"voice":1,"pitch":59,"start":86.9999,"duration":0.1667,"velocity":127,"measure":33,"beat":3.5,"subject_pos":-1,"motif":"","motif_pos":-1,"best_pos":0,"similarity":0.464,"stretto":false,"stretto_voices":0,"combination":[],"aug_dim":"","rhythm_ratio":1.0,"chromatic_density":0.273},{"voice":1,"pitch":64,"start":87.1666,"duration":0.1667,"velocity":127,"measure":33,"beat":3.75,"subject_pos":-1,"motif":"","motif_pos":-1,"best_pos":1,"similarity":0.714,"stretto":false,"stretto_voices":0,"combination":[],"aug_dim":"","rhythm_ratio":1.0,"chromatic_density":0.273},{"voice":0,"pitch":68,"start":87.3332,"duration":0.1667,"velocity":127,"measure":33,"beat":4.0,"subject_pos":-1,"motif":"","motif_pos":-1,"best_pos":4,"similarity":0.464,"stretto":false,"stretto_voices":0,"combination":[],"aug_dim":"","rhythm_ratio":1.0,"chromatic_density":0.273},{"voice":1,"pitch":62,"start":87.3332,"duration":0.1667,"velocity":127,"measure":33,"beat":4.0,"subject_pos":-1,"motif":"","motif_pos":-1,"best_pos":2,"similarity":0.721,"stretto":false,"stretto_voices":0,"combination":[],"aug_dim":"","rhythm_ratio":1.0,"chromatic_density":0.273},{"voice":0,"pitch":69,"start":87.4999,"duration":0.3333,"velocity":127,"measure":33,"beat":4.25,"subject_pos":-1,"motif":"","motif_pos":-1,"best_pos":5,"similarity":0.464,"stretto":false,"stretto_voices":0,"combination":[],"aug_dim":"","rhythm_ratio":1.0,"chromatic_density":0.273},{"voice":1,"pitch":60,"start":87.4999,"duration":0.1667,"velocity":127,"measure":33,"beat":4.25,"subject_pos":-1,"motif":"","motif_pos":-1,"best_pos":3,"similarity":0.729,"stretto":false,"stretto_voices":0,"combination":[],"aug_dim":"","rhythm_ratio":1.0,"chromatic_density":0.273},{"voice":1,"pitch":59,"start":87.6666,"duration":0.1667,"velocity":127,"measure":33,"beat":4.5,"subject_pos":-1,"motif":"","motif_pos":-1,"best_pos":4,"similarity":0.607,"stretto":false,"stretto_voices":0,"combination":[],"aug_dim":"","rhythm_ratio":1.0,"chromatic_density":0.273},{"voice":0,"pitch":72,"start":87.8332,"duration":0.1667,"velocity":127,"measure":33,"beat":4.75,"subject_pos":-1,"motif":"","motif_pos":-1,"best_pos":6,"similarity":0.286,"stretto":false,"stretto_voices":0,"combination":[],"aug_dim":"","rhythm_ratio":1.0,"chromatic_density":0.273},{"voice":1,"pitch":57,"start":87.8332,"duration":0.1667,"velocity":127,"measure":33,"beat":4.75,"subject_pos":-1,"motif":"","motif_pos":-1,"best_pos":5,"similarity":0.507,"stretto":false,"stretto_voices":0,"combination":[],"aug_dim":"","rhythm_ratio":1.0,"chromatic_density":0.273},{"voice":0,"pitch":65,"start":87.9999,"duration":0.5,"velocity":127,"measure":34,"beat":1.0,"subject_pos":-1,"motif":"","motif_pos":-1,"best_pos":3,"similarity":0.407,"stretto":false,"stretto_voices":0,"combination":[],"aug_dim":"","rhythm_ratio":1.0,"chromatic_density":0.316},{"voice":1,"pitch":59,"start":87.9999,"duration":0.1667,"velocity":127,"measure":34,"beat":1.0,"subject_pos":-1,"motif":"","motif_pos":-1,"best_pos":6,"similarity":0.4,"stretto":false,"stretto_voices":0,"combination":[],"aug_dim":"","rhythm_ratio":1.0,"chromatic_density":0.316},{"voice":1,"pitch":57,"start":88.1666,"duration":0.1667,"velocity":127,"measure":34,"beat":1.25,"subject_pos":-1,"motif":"","motif_pos":-1,"best_pos":3,"similarity":0.593,"stretto":false,"stretto_voices":0,"combination":[],"aug_dim":"","rhythm_ratio":1.0,"chromatic_density":0.316},{"voice":1,"pitch":56,"start":88.3332,"duration":0.1667,"velocity":127,"measure":34,"beat":1.5,"subject_pos":-1,"motif":"","motif_pos":-1,"best_pos":4,"similarity":0.671,"stretto":false,"stretto_voices":0,"combination":[],"aug_dim":"","rhythm_ratio":1.0,"chromatic_density":0.316},{"voice":0,"pitch":64,"start":88.4999,"duration":0.3333,"velocity":127,"measure":34,"beat":1.75,"subject_pos":-1,"motif":"","motif_pos":-1,"best_pos":4,"similarity":0.543,"stretto":false,"stretto_voices":0,"combination":[],"aug_dim":"","rhythm_ratio":1.0,"chromatic_density":0.316},{"voice":1,"pitch":57,"start":88.4999,"duration":0.1667,"velocity":127,"measure":34,"beat":1.75,"subject_pos":-1,"motif":"","motif_pos":-1,"best_pos":5,"similarity":0.507,"stretto":false,"stretto_voices":0,"combination":[],"aug_dim":"","rhythm_ratio":1.0,"chromatic_density":0.316},{"voice":1,"pitch":56,"start":88.6666,"duration":0.1667,"velocity":127,"measure":34,"beat":2.0,"subject_pos":-1,"motif":"","motif_pos":-1,"best_pos":4,"similarity":0.507,"stretto":false,"stretto_voices":0,"combination":[],"aug_dim":"","rhythm_ratio":1.0,"chromatic_density":0.316},{"voice":1,"pitch":54,"start":88.8332,"duration":0.1667,"velocity":127,"measure":34,"beat":2.25,"subject_pos":-1,"motif":"","motif_pos":-1,"best_pos":5,"similarity":0.464,"stretto":false,"stretto_voices":0,"combination":[],"aug_dim":"","rhythm_ratio":1.0,"chromatic_density":0.316},{"voice":1,"pitch":56,"start":88.9999,"duration":0.1667,"velocity":127,"measure":34,"beat":2.5,"subject_pos":-1,"motif":"","motif_pos":-1,"best_pos":6,"similarity":0.371,"stretto":false,"stretto_voices":0,"combination":[],"aug_dim":"","rhythm_ratio":1.0,"chromatic_density":0.316},{"voice":1,"pitch":52,"start":89.1666,"duration":0.1667,"velocity":127,"measure":34,"beat":2.75,"subject_pos":-1,"motif":"","motif_pos":-1,"best_pos":2,"similarity":0.321,"stretto":false,"stretto_voices":0,"combination":[],"aug_dim":"","rhythm_ratio":1.0,"chromatic_density":0.316},{"voice":1,"pitch":56,"start":89.3332,"duration":0.1667,"velocity":127,"measure":34,"beat":3.0,"subject_pos":-1,"motif":"","motif_pos":-1,"best_pos":3,"similarity":0.2,"stretto":false,"stretto_voices":0,"combination":[],"aug_dim":"","rhythm_ratio":1.0,"chromatic_density":0.316},{"voice":1,"pitch":59,"start":89.4999,"duration":0.1667,"velocity":127,"measure":34,"beat":3.25,"subject_pos":-1,"motif":"","motif_pos":-1,"best_pos":0,"similarity":0.464,"stretto":false,"stretto_voices":0,"combination":[],"aug_dim":"","rhythm_ratio":1.0,"chromatic_density":0.316},{"voice":1,"pitch":64,"start":89.6666,"duration":0.1667,"velocity":127,"measure":34,"beat":3.5,"subject_pos":-1,"motif":"","motif_pos":-1,"best_pos":1,"similarity":0.714,"stretto":false,"stretto_voices":0,"combination":[],"aug_dim":"","rhythm_ratio":1.0,"chromatic_density":0.316},{"voice":1,"pitch":62,"start":89.8332,"duration":0.1667,"velocity":127,"measure":34,"beat":3.75,"subject_pos":-1,"motif":"","motif_pos":-1,"best_pos":2,"similarity":0.721,"stretto":false,"stretto_voices":0,"combination":[],"aug_dim":"","rhythm_ratio":1.0,"chromatic_density":0.316},{"voice":1,"pitch":60,"start":89.9999,"duration":0.1667,"velocity":127,"measure":34,"beat":4.0,"subject_pos":-1,"motif":"","motif_pos":-1,"best_pos":3,"similarity":0.664,"stretto":false,"stretto_voices":0,"combination":[],"aug_dim":"","rhythm_ratio":1.0,"chromatic_density":0.316},{"voice":0,"pitch":62,"start":90.1666,"duration":0.1667,"velocity":127,"measure":34,"beat":4.25,"subject_pos":-1,"motif":"","motif_pos":-1,"best_pos":5,"similarity":0.607,"stretto":false,"stretto_voices":0,"combination":[],"aug_dim":"","rhythm_ratio":1.0,"chromatic_density":0.316},{"voice":1,"pitch":59,"start":90.1666,"duration":0.1667,"velocity":127,"measure":34,"beat":4.25,"subject_pos":-1,"motif":"","motif_pos":-1,"best_pos":4,"similarity":0.479,"stretto":false,"stretto_voices":0,"combination":[],"aug_dim":"","rhythm_ratio":1.0,"chromatic_density":0.316},{"voice":0,"pitch":64,"start":90.3332,"duration":0.1667,"velocity":127,"measure":34,"beat":4.5,"subject_pos":-1,"motif":"","motif_pos":-1,"best_pos":6,"similarity":0.657,"stretto":false,"stretto_voices":0,"combination":[],"aug_dim":"","rhythm_ratio":1.0,"chromatic_density":0.316},{"voice":1,"pitch":57,"start":90.3332,"duration":0.1667,"velocity":127,"measure":34,"beat":4.5,"subject_pos":-1,"motif":"","motif_pos":-1,"best_pos":0,"similarity":0.446,"stretto":false,"stretto_voices":0,"combination":[],"aug_dim":"","rhythm_ratio":1.0,"chromatic_density":0.316},{"voice":0,"pitch":65,"start":90.4999,"duration":0.1667,"velocity":127,"measure":34,"beat":4.75,"subject_pos":-1,"motif":"","motif_pos":-1,"best_pos":5,"similarity":0.636,"stretto":false,"stretto_voices":0,"combination":[],"aug_dim":"","rhythm_ratio":1.0,"chromatic_density":0.316},{"voice":1,"pitch":62,"start":90.4999,"duration":0.6667,"velocity":127,"measure":34,"beat":4.75,"subject_pos":-1,"motif":"","motif_pos":-1,"best_pos":1,"similarity":0.625,"stretto":false,"stretto_voices":0,"combination":[],"aug_dim":"","rhythm_ratio":1.0,"chromatic_density":0.316},{"voice":0,"pitch":67,"start":90.6666,"duration":0.1667,"velocity":127,"measure":35,"beat":1.0,"subject_pos":-1,"motif":"","motif_pos":-1,"best_pos":6,"similarity":0.464,"stretto":false,"stretto_voices":0,"combination":[],"aug_dim":"","rhythm_ratio":1.0,"chromatic_density":0.412},{"voice":0,"pitch":65,"start":90.8332,"duration":0.1667,"velocity":127,"measure":35,"beat":1.25,"subject_pos":-1,"motif":"","motif_pos":-1,"best_pos":3,"similarity":0.664,"stretto":false,"stretto_voices":0,"combination":[],"aug_dim":"","rhythm_ratio":1.0,"chromatic_density":0.412},{"voice":0,"pitch":64,"start":90.9999,"duration":0.6667,"velocity":127,"measure":35,"beat":1.5,"subject_pos":-1,"motif":"","motif_pos":-1,"best_pos":4,"similarity":0.829,"stretto":false,"stretto_voices":0,"combination":[],"aug_dim":"","rhythm_ratio":1.0,"chromatic_density":0.412},{"voice":1,"pitch":60,"start":91.1666,"duration":0.1667,"velocity":127,"measure":35,"beat":1.75,"subject_pos":-1,"motif":"","motif_pos":-1,"best_pos":3,"similarity":0.579,"stretto":false,"stretto_voices":0,"combination":[],"aug_dim":"","rhythm_ratio":1.0,"chromatic_density":0.412},{"voice":1,"pitch":59,"start":91.3332,"duration":0.1667,"velocity":127,"measure":35,"beat":2.0,"subject_pos":-1,"motif":"","motif_pos":-1,"best_pos":4,"similarity":0.675,"stretto":false,"stretto_voices":0,"combination":[],"aug_dim":"","rhythm_ratio":1.0,"chromatic_density":0.412},{"voice":1,"pitch":60,"start":91.4999,"duration":0.3333,"velocity":127,"measure":35,"beat":2.25,"subject_pos":-1,"motif":"","motif_pos":-1,"best_pos":5,"similarity":0.529,"stretto":false,"stretto_voices":0,"combination":[],"aug_dim":"","rhythm_ratio":1.0,"chromatic_density":0.412},{"voice":0,"pitch":65,"start":91.6666,"duration":0.1667,"velocity":127,"measure":35,"beat":2.5,"subject_pos":-1,"motif":"","motif_pos":-1,"best_pos":5,"similarity":0.821,"stretto":false,"stretto_voices":0,"combination":[],"aug_dim":"","rhythm_ratio":1.0,"chromatic_density":0.412},{"voice":0,"pitch":67,"start":91.8332,"duration":0.1667,"velocity":127,"measure":35,"beat":2.75,"subject_pos":-1,"motif":"","motif_pos":-1,"best_pos":6,"similarity":0.643,"stretto":false,"stretto_voices":0,"combination":[],"aug_dim":"","rhythm_ratio":1.0,"chromatic_density":0.412},{"voice":0,"pitch":69,"start":91.9999,"duration":0.1667,"velocity":127,"measure":35,"beat":3.0,"subject_pos":-1,"motif":"","motif_pos":-1,"best_pos":6,"similarity":0.661,"stretto":false,"stretto_voices":0,"combination":[],"aug_dim":"","rhythm_ratio":1.0,"chromatic_density":0.412},{"voice":1,"pitch":65,"start":91.9999,"duration":0.3333,"velocity":127,"measure":35,"beat":3.0,"subject_pos":-1,"motif":"","motif_pos":-1,"best_pos":1,"similarity":0.5,"stretto":false,"stretto_voices":0,"combination":[],"aug_dim":"","rhythm_ratio":1.0,"chromatic_density":0.412},{"voice":0,"pitch":70,"start":92.1666,"duration":0.1667,"velocity":127,"measure":35,"beat":3.25,"subject_pos":-1,"motif":"","motif_pos":-1,"best_pos":7,"similarity":0.464,"stretto":false,"stretto_voices":0,"combination":[],"aug_dim":"","rhythm_ratio":1.0,"chromatic_density":0.412},{"voice":0,"pitch":69,"start":92.3332,"duration":0.1667,"velocity":127,"measure":35,"beat":3.5,"subject_pos":-1,"motif":"","motif_pos":-1,"best_pos":4,"similarity":0.486,"stretto":false,"stretto_voices":0,"combination":[],"aug_dim":"","rhythm_ratio":1.0,"chromatic_density":0.412},{"voice":0,"pitch":67,"start":92.4999,"duration":0.1667,"velocity":127,"measure":35,"beat":3.75,"subject_pos":-1,"motif":"","motif_pos":-1,"best_pos":5,"similarity":0.479,"stretto":false,"stretto_voices":0,"combination":[],"aug_dim":"","rhythm_ratio":1.0,"chromatic_density":0.412},{"voice":1,"pitch":64,"start":92.4999,"duration":0.3333,"velocity":127,"measure":35,"beat":3.75,"subject_pos":-1,"motif":"","motif_pos":-1,"best_pos":2,"similarity":0.5,"stretto":false,"stretto_voices":0,"combination":[],"aug_dim":"","rhythm_ratio":1.0,"chromatic_density":0.412},{"voice":0,"pitch":69,"start":92.6666,"duration":0.1667,"velocity":127,"measure":35,"beat":4.0,"subject_pos":-1,"motif":"","motif_pos":-1,"best_pos":6,"similarity":0.4,"stretto":false,"stretto_voices":0,"combination":[],"aug_dim":"","rhythm_ratio":1.0,"chromatic_density":0.412},{"voice":0,"pitch":67,"start":92.8332,"duration":0.1667,"velocity":127,"measure":35,"beat":4.25,"subject_pos":-1,"motif":"","motif_pos":-1,"best_pos":2,"similarity":0.464,"stretto":false,"stretto_voices":0,"combination":[],"aug_dim":"","rhythm_ratio":1.0,"chromatic_density":0.412},{"voice":0,"pitch":65,"start":92.9999,"duration":0.1667,"velocity":127,"measure":35,"beat":4.5,"subject_pos":-1,"motif":"","motif_pos":-1,"best_pos":5,"similarity":0.4,"stretto":false,"stretto_voices":0,"combination":[],"aug_dim":"","rhythm_ratio":1.0,"chromatic_density":0.412},{"voice":1,"pitch":62,"start":92.9999,"duration":0.3333,"velocity":127,"measure":35,"beat":4.5,"subject_pos":-1,"motif":"","motif_pos":-1,"best_pos":3,"similarity":0.464,"stretto":false,"stretto_voices":0,"combination":[],"aug_dim":"","rhythm_ratio":1.0,"chromatic_density":0.412},{"voice":0,"pitch":67,"start":93.1666,"duration":0.1667,"velocity":127,"measure":35,"beat":4.75,"subject_pos":-1,"motif":"","motif_pos":-1,"best_pos":2,"similarity":0.386,"stretto":false,"stretto_voices":0,"combination":[],"aug_dim":"","rhythm_ratio":1.0,"chromatic_density":0.412},{"voice":0,"pitch":65,"start":93.3332,"duration":0.1667,"velocity":127,"measure":36,"beat":1.0,"subject_pos":-1,"motif":"","motif_pos":-1,"best_pos":3,"similarity":0.593,"stretto":false,"stretto_voices":0,"combination":[],"aug_dim":"","rhythm_ratio":1.0,"chromatic_density":0.538},{"voice":1,"pitch":56,"start":93.3332,"duration":0.1667,"velocity":127,"measure":36,"beat":1.0,"subject_pos":-1,"motif":"","motif_pos":-1,"best_pos":4,"similarity":0.464,"stretto":false,"stretto_voices":0,"combination":[],"aug_dim":"","rhythm_ratio":1.0,"chromatic_density":0.538},{"voice":0,"pitch":64,"start":93.4999,"duration":0.1667,"velocity":127,"measure":36,"beat":1.25,"subject_pos":-1,"motif":"","motif_pos":-1,"best_pos":4,"similarity":0.671,"stretto":false,"stretto_voices":0,"combination":[],"aug_dim":"","rhythm_ratio":1.0,"chromatic_density":0.538},{"voice":1,"pitch":57,"start":93.4999,"duration":0.3333,"velocity":127,"measure":36,"beat":1.25,"subject_pos":-1,"motif":"","motif_pos":-1,"best_pos":5,"similarity":0.464,"stretto":false,"stretto_voices":0,"combination":[],"aug_dim":"","rhythm_ratio":1.0,"chromatic_density":0.538},{"voice":0,"pitch":65,"start":93.6666,"duration":0.1667,"velocity":127,"measure":36,"beat":1.5,"subject_pos":-1,"motif":"","motif_pos":-1,"best_pos":5,"similarity":0.507,"stretto":false,"stretto_voices":0,"combination":[],"aug_dim":"","rhythm_ratio":1.0,"chromatic_density":0.538},{"voice":0,"pitch":64,"start":93.8332,"duration":0.1667,"velocity":127,"measure":36,"beat":1.75,"subject_pos":-1,"motif":"","motif_pos":-1,"best_pos":4,"similarity":0.514,"stretto":false,"stretto_voices":0,"combination":[],"aug_dim":"","rhythm_ratio":1.0,"chromatic_density":0.538},{"voice":1,"pitch":60,"start":93.8332,"duration":0.1667,"velocity":127,"measure":36,"beat":1.75,"subject_pos":-1,"motif":"","motif_pos":-1,"best_pos":6,"similarity":0.286,"stretto":false,"stretto_voices":0,"combination":[],"aug_dim":"","rhythm_ratio":1.0,"chromatic_density":0.538},{"voice":0,"pitch":62,"start":93.9999,"duration":0.1667,"velocity":127,"measure":36,"beat":2.0,"subject_pos":-1,"motif":"","motif_pos":-1,"best_pos":5,"similarity":0.479,"stretto":false,"stretto_voices":0,"combination":[],"aug_dim":"","rhythm_ratio":1.0,"chromatic_density":0.538},{"voice":1,"pitch":53,"start":93.9999,"duration":0.5,"velocity":127,"measure":36,"beat":2.0,"subject_pos":-1,"motif":"","motif_pos":-1,"best_pos":3,"similarity":0.407,"stretto":false,"stretto_voices":0,"combination":[],"aug_dim":"","rhythm_ratio":1.0,"chromatic_density":0.538},{"voice":0,"pitch":64,"start":94.1666,"duration":0.1667,"velocity":127,"measure":36,"beat":2.25,"subject_pos":-1,"motif":"","motif_pos":-1,"best_pos":6,"similarity":0.4,"stretto":false,"stretto_voices":0,"combination":[],"aug_dim":"","rhythm_ratio":1.0,"chromatic_density":0.538},{"voice":0,"pitch":62,"start":94.3332,"duration":0.1667,"velocity":127,"measure":36,"beat":2.5,"subject_pos":-1,"motif":"tail","motif_pos":3,"best_pos":3,"similarity":1.0,"stretto":false,"stretto_voices":0,"combination":[],"aug_dim":"","rhythm_ratio":1.0,"chromatic_density":0.538},{"voice":0,"pitch":61,"start":94.4999,"duration":0.3333,"velocity":127,"measure":36,"beat":2.75,"subject_pos":-1,"motif":"tail","motif_pos":4,"best_pos":4,"similarity":1.0,"stretto":false,"stretto_voices":0,"combination":[],"aug_dim":"","rhythm_ratio":1.0,"chromatic_density":0.538},{"voice":1,"pitch":52,"start":94.4999,"duration":0.3333,"velocity":127,"measure":36,"beat":2.75,"subject_pos":-1,"motif":"","motif_pos":-1,"best_pos":4,"similarity":0.543,"stretto":false,"stretto_voices":0,"combination":[],"aug_dim":"","rhythm_ratio":1.0,"chromatic_density":0.538},{"voice":0,"pitch":62,"start":94.9999,"duration":0.3333,"velocity":127,"measure":36,"beat":3.5,"subject_pos":-1,"motif":"tail","motif_pos":5,"best_pos":5,"similarity":1.0,"stretto":false,"stretto_voices":0,"combination":[],"aug_dim":"","rhythm_ratio":1.0,"chromatic_density":0.538},{"voice":0,"pitch":64,"start":95.4999,"duration":0.3333,"velocity":127,"measure":36,"beat":4.25,"subject_pos":-1,"motif":"tail","motif_pos":6,"best_pos":6,"similarity":1.0,"stretto":false,"stretto_voices":0,"combination":[],"aug_dim":"","rhythm_ratio":1.0,"chromatic_density":0.538},{"voice":0,"pitch":65,"start":95.9999,"duration":0.8333,"velocity":127,"measure":37,"beat":1.0,"subject_pos":-1,"motif":"tail","motif_pos":7,"best_pos":7,"similarity":1.0,"stretto":false,"stretto_voices":0,"combination":[],"aug_dim":"","rhythm_ratio":1.0,"chromatic_density":0.333},{"voice":1,"pitch":50,"start":96.1666,"duration":0.1667,"velocity":127,"measure":37,"beat":1.25,"subject_pos":-1,"motif":"","motif_pos":-1,"best_pos":5,"similarity":0.607,"stretto":false,"stretto_voices":0,"combination":[],"aug_dim":"","rhythm_ratio":1.0,"chromatic_density":0.333},{"voice":1,"pitch":52,"start":96.3332,"duration":0.1667,"velocity":127,"measure":37,"beat":1.5,"subject_pos":-1,"motif":"","motif_pos":-1,"best_pos":6,"similarity":0.657,"stretto":false,"stretto_voices":0,"combination":[],"aug_dim":"","rhythm_ratio":1.0,"chromatic_density":0.333},{"voice":1,"pitch":53,"start":96.4999,"duration":0.1667,"velocity":127,"measure":37,"beat":1.75,"subject_pos":-1,"motif":"","motif_pos":-1,"best_pos":5,"similarity":0.636,"stretto":false,"stretto_voices":0,"combination":[],"aug_dim":"","rhythm_ratio":1.0,"chromatic_density":0.333},{"voice":1,"pitch":55,"start":96.6666,"duration":0.1667,"velocity":127,"measure":37,"beat":2.0,"subject_pos":-1,"motif":"","motif_pos":-1,"best_pos":6,"similarity":0.464,"stretto":false,"stretto_voices":0,"combination":[],"aug_dim":"","rhythm_ratio":1.0,"chromatic_density":0.333},{"voice":0,"pitch":69,"start":96.8332,"duration":0.1667,"velocity":127,"measure":37,"beat":2.25,"subject_pos":-1,"motif":"","motif_pos":-1,"best_pos":1,"similarity":0.507,"stretto":false,"stretto_voices":0,"combination":[],"aug_dim":"","rhythm_ratio":1.0,"chromatic_density":0.333},{"voice":1,"pitch":53,"start":96.8332,"duration":0.1667,"velocity":127,"measure":37,"beat":2.25,"subject_pos":-1,"motif":"","motif_pos":-1,"best_pos":3,"similarity":0.664,"stretto":false,"stretto_voices":0,"combination":[],"aug_dim":"","rhythm_ratio":1.0,"chromatic_density":0.333},{"voice":0,"pitch":67,"start":96.9999,"duration":0.3333,"velocity":127,"measure":37,"beat":2.5,"subject_pos":-1,"motif":"","motif_pos":-1,"best_pos":2,"similarity":0.521,"stretto":false,"stretto_voices":0,"combination":[],"aug_dim":"","rhythm_ratio":1.0,"chromatic_density":0.333},{"voice":1,"pitch":52,"start":96.9999,"duration":0.6667,"velocity":127,"measure":37,"beat":2.5,"subject_pos":-1,"motif":"","motif_pos":-1,"best_pos":4,"similarity":0.829,"stretto":false,"stretto_voices":0,"combination":[],"aug_dim":"","rhythm_ratio":1.0,"chromatic_density":0.333},{"voice":0,"pitch":65,"start":97.3332,"duration":0.1667,"velocity":127,"measure":37,"beat":3.0,"subject_pos":-1,"motif":"","motif_pos":-1,"best_pos":5,"similarity":0.4,"stretto":false,"stretto_voices":0,"combination":[],"aug_dim":"","rhythm_ratio":1.0,"chromatic_density":0.333},{"voice":0,"pitch":67,"start":97.4999,"duration":0.1667,"velocity":127,"measure":37,"beat":3.25,"subject_pos":-1,"motif":"","motif_pos":-1,"best_pos":6,"similarity":0.364,"stretto":false,"stretto_voices":0,"combination":[],"aug_dim":"","rhythm_ratio":1.0,"chromatic_density":0.333},{"voice":0,"pitch":65,"start":97.6666,"duration":0.1667,"velocity":127,"measure":37,"beat":3.5,"subject_pos":-1,"motif":"","motif_pos":-1,"best_pos":3,"similarity":0.479,"stretto":false,"stretto_voices":0,"combination":[],"aug_dim":"","rhythm_ratio":1.0,"chromatic_density":0.333},{"voice":1,"pitch":53,"start":97.6666,"duration":0.1667,"velocity":127,"measure":37,"beat":3.5,"subject_pos":-1,"motif":"","motif_pos":-1,"best_pos":5,"similarity":0.821,"stretto":false,"stretto_voices":0,"combination":[],"aug_dim":"","rhythm_ratio":1.0,"chromatic_density":0.333},{"voice":0,"pitch":64,"start":97.8332,"duration":0.1667,"velocity":127,"measure":37,"beat":3.75,"subject_pos":-1,"motif":"","motif_pos":-1,"best_pos":4,"similarity":0.436,"stretto":false,"stretto_voices":0,"combination":[],"aug_dim":"","rhythm_ratio":1.0,"chromatic_density":0.333},{"voice":1,"pitch":55,"start":97.8332,"duration":0.1667,"velocity":127,"measure":37,"beat":3.75,"subject_pos":-1,"motif":"","motif_pos":-1,"best_pos":6,"similarity":0.643,"stretto":false,"stretto_voices":0,"combination":[],"aug_dim":"","rhythm_ratio":1.0,"chromatic_density":0.333},{"voice":0,"pitch":73,"start":97.9999,"duration":1.0,"velocity":127,"measure":37,"beat":4.0,"subject_pos":-1,"motif":"","motif_pos":-1,"best_pos":4,"similarity":0.393,"stretto":false,"stretto_voices":0,"combination":[],"aug_dim":"","rhythm_ratio":1.0,"chromatic_density":0.333},{"voice":1,"pitch":57,"start":97.9999,"duration":0.1667,"velocity":127,"measure":37,"beat":4.0,"subject_pos":-1,"motif":"","motif_pos":-1,"best_pos":6,"similarity":0.661,"stretto":false,"stretto_voices":0,"combination":[],"aug_dim":"","rhythm_ratio":1.0,"chromatic_density":0.333},{"voice":1,"pitch":58,"start":98.1666,"duration":0.1667,"velocity":127,"measure":37,"beat":4.25,"subject_pos":-1,"motif":"","motif_pos":-1,"best_pos":7,"similarity":0.464,"stretto":false,"stretto_voices":0,"combination":[],"aug_dim":"","rhythm_ratio":1.0,"chromatic_density":0.333},{"voice":1,"pitch":57,"start":98.3332,"duration":0.1667,"velocity":127,"measure":37,"beat":4.5,"subject_pos":-1,"motif":"","motif_pos":-1,"best_pos":4,"similarity":0.486,"stretto":false,"stretto_voices":0,"combination":[],"aug_dim":"","rhythm_ratio":1.0,"chromatic_density":0.333},{"voice":1,"pitch":55,"start":98.4999,"duration":0.1667,"velocity":127,"measure":37,"beat":4.75,"subject_pos":-1,"motif":"","motif_pos":-1,"best_pos":5,"similarity":0.479,"stretto":false,"stretto_voices":0,"combination":[],"aug_dim":"","rhythm_ratio":1.0,"chromatic_density":0.333},{"voice":1,"pitch":57,"start":98.6666,"duration":0.1667,"velocity":127,"measure":38,"beat":1.0,"subject_pos":-1,"motif":"","motif_pos":-1,"best_pos":6,"similarity":0.4,"stretto":false,"stretto_voices":0,"combination":[],"aug_dim":"","rhythm_ratio":1.0,"chromatic_density":0.2},{"voice":1,"pitch":55,"start":98.8332,"duration":0.1667,"velocity":127,"measure":38,"beat":1.25,"subject_pos":-1,"motif":"","motif_pos":-1,"best_pos":2,"similarity":0.464,"stretto":false,"stretto_voices":0,"combination":[],"aug_dim":"","rhythm_ratio":1.0,"chromatic_density":0.2},{"voice":0,"pitch":74,"start":98.9999,"duration":0.1667,"velocity":127,"measure":38,"beat":1.5,"subject_pos":-1,"motif":"","motif_pos":-1,"best_pos":1,"similarity":0.314,"stretto":false,"stretto_voices":0,"combination":[],"aug_dim":"","rhythm_ratio":1.0,"chromatic_density":0.2},{"voice":1,"pitch":53,"start":98.9999,"duration":0.1667,"velocity":127,"measure":38,"beat":1.5,"subject_pos":-1,"motif":"","motif_pos":-1,"best_pos":5,"similarity":0.4,"stretto":false,"stretto_voices":0,"combination":[],"aug_dim":"","rhythm_ratio":1.0,"chromatic_density":0.2},{"voice":0,"pitch":70,"start":99.1666,"duration":0.1667,"velocity":127,"measure":38,"beat":1.75,"subject_pos":-1,"motif":"","motif_pos":-1,"best_pos":2,"similarity":0.307,"stretto":false,"stretto_voices":0,"combination":[],"aug_dim":"","rhythm_ratio":1.0,"chromatic_density":0.2},{"voice":1,"pitch":55,"start":99.1666,"duration":0.1667,"velocity":127,"measure":38,"beat":1.75,"subject_pos":-1,"motif":"","motif_pos":-1,"best_pos":2,"similarity":0.386,"stretto":false,"stretto_voices":0,"combination":[],"aug_dim":"","rhythm_ratio":1.0,"chromatic_density":0.2},{"voice":0,"pitch":79,"start":99.3332,"duration":0.1667,"velocity":127,"measure":38,"beat":2.0,"subject_pos":-1,"motif":"","motif_pos":-1,"best_pos":1,"similarity":0.243,"stretto":false,"stretto_voices":0,"combination":[],"aug_dim":"","rhythm_ratio":1.0,"chromatic_density":0.2},{"voice":1,"pitch":53,"start":99.3332,"duration":0.1667,"velocity":127,"measure":38,"beat":2.0,"subject_pos":-1,"motif":"","motif_pos":-1,"best_pos":3,"similarity":0.593,"stretto":false,"stretto_voices":0,"combination":[],"aug_dim":"","rhythm_ratio":1.0,"chromatic_density":0.2},{"voice":0,"pitch":72,"start":99.4999,"duration":0.1667,"velocity":127,"measure":38,"beat":2.25,"subject_pos":-1,"motif":"","motif_pos":-1,"best_pos":2,"similarity":0.35,"stretto":false,"stretto_voices":0,"combination":[],"aug_dim":"","rhythm_ratio":1.0,"chromatic_density":0.2},{"voice":1,"pitch":52,"start":99.4999,"duration":0.1667,"velocity":127,"measure":38,"beat":2.25,"subject_pos":-1,"motif":"","motif_pos":-1,"best_pos":4,"similarity":0.671,"stretto":false,"stretto_voices":0,"combination":[],"aug_dim":"","rhythm_ratio":1.0,"chromatic_density":0.2},{"voice":0,"pitch":69,"start":99.6666,"duration":0.1667,"velocity":127,"measure":38,"beat":2.5,"subject_pos":-1,"motif":"","motif_pos":-1,"best_pos":3,"similarity":0.318,"stretto":false,"stretto_voices":0,"combination":[],"aug_dim":"","rhythm_ratio":1.0,"chromatic_density":0.2},{"voice":1,"pitch":53,"start":99.6666,"duration":0.1667,"velocity":127,"measure":38,"beat":2.5,"subject_pos":-1,"motif":"","motif_pos":-1,"best_pos":5,"similarity":0.507,"stretto":false,"stretto_voices":0,"combination":[],"aug_dim":"","rhythm_ratio":1.0,"chromatic_density":0.2},{"voice":0,"pitch":77,"start":99.8332,"duration":0.1667,"velocity":127,"measure":38,"beat":2.75,"subject_pos":-1,"motif":"","motif_pos":-1,"best_pos":1,"similarity":0.314,"stretto":false,"stretto_voices":0,"combination":[],"aug_dim":"","rhythm_ratio":1.0,"chromatic_density":0.2},{"voice":1,"pitch":52,"start":99.8332,"duration":0.1667,"velocity":127,"measure":38,"beat":2.75,"subject_pos":-1,"motif":"","motif_pos":-1,"best_pos":4,"similarity":0.514,"stretto":false,"stretto_voices":0,"combination":[],"aug_dim":"","rhythm_ratio":1.0,"chromatic_density":0.2},{"voice":0,"pitch":70,"start":99.9999,"duration":0.1667,"velocity":127,"measure":38,"beat":3.0,"subject_pos":-1,"motif":"","motif_pos":-1,"best_pos":2,"similarity":0.386,"stretto":false,"stretto_voices":0,"combination":[],"aug_dim":"","rhythm_ratio":1.0,"chromatic_density":0.2},{"voice":1,"pitch":50,"start":99.9999,"duration":0.1667,"velocity":127,"measure":38,"beat":3.0,"subject_pos":-1,"motif":"","motif_pos":-1,"best_pos":5,"similarity":0.479,"stretto":false,"stretto_voices":0,"combination":[],"aug_dim":"","rhythm_ratio":1.0,"chromatic_density":0.2},{"voice":0,"pitch":67,"start":100.1666,"duration":0.1667,"velocity":127,"measure":38,"beat":3.25,"subject_pos":-1,"motif":"","motif_pos":-1,"best_pos":3,"similarity":0.343,"stretto":false,"stretto_voices":0,"combination":[],"aug_dim":"","rhythm_ratio":1.0,"chromatic_density":0.2},{"voice":1,"pitch":52,"start":100.1666,"duration":0.1667,"velocity":127,"measure":38,"beat":3.25,"subject_pos":-1,"motif":"","motif_pos":-1,"best_pos":6,"similarity":0.4,"stretto":false,"stretto_voices":0,"combination":[],"aug_dim":"","rhythm_ratio":1.0,"chromatic_density":0.2},{"voice":0,"pitch":76,"start":100.3332,"duration":0.1667,"velocity":127,"measure":38,"beat":3.5,"subject_pos":-1,"motif":"","motif_pos":-1,"best_pos":1,"similarity":0.171,"stretto":false,"stretto_voices":0,"combination":[],"aug_dim":"","rhythm_ratio":1.0,"chromatic_density":0.2},{"voice":1,"pitch":50,"start":100.3332,"duration":0.1667,"velocity":127,"measure":38,"beat":3.5,"subject_pos":-1,"motif":"tail","motif_pos":3,"best_pos":3,"similarity":1.0,"stretto":false,"stretto_voices":0,"combination":[],"aug_dim":"","rhythm_ratio":1.0,"chromatic_density":0.2},{"voice":0,"pitch":69,"start":100.4999,"duration":0.1667,"velocity":127,"measure":38,"beat":3.75,"subject_pos":-1,"motif":"","motif_pos":-1,"best_pos":1,"similarity":0.286,"stretto":false,"stretto_voices":0,"combination":[],"aug_dim":"","rhythm_ratio":1.0,"chromatic_density":0.2},{"voice":1,"pitch":49,"start":100.4999,"duration":0.3333,"velocity":127,"measure":38,"beat":3.75,"subject_pos":-1,"motif":"tail","motif_pos":4,"best_pos":4,"similarity":1.0,"stretto":false,"stretto_voices":0,"combination":[],"aug_dim":"","rhythm_ratio":1.0,"chromatic_density":0.2},{"voice":0,"pitch":67,"start":100.6666,"duration":0.1667,"velocity":127,"measure":38,"beat":4.0,"subject_pos":-1,"motif":"","motif_pos":-1,"best_pos":2,"similarity":0.286,"stretto":false,"stretto_voices":0,"combination":[],"aug_dim":"","rhythm_ratio":1.0,"chromatic_density":0.2},{"voice":0,"pitch":76,"start":100.8332,"duration":0.1667,"velocity":127,"measure":38,"beat":4.25,"subject_pos":-1,"motif":"","motif_pos":-1,"best_pos":1,"similarity":0.171,"stretto":false,"stretto_voices":0,"combination":[],"aug_dim":"","rhythm_ratio":1.0,"chromatic_density":0.2},{"voice":0,"pitch":69,"start":100.9999,"duration":0.1667,"velocity":127,"measure":38,"beat":4.5,"subject_pos":-1,"motif":"","motif_pos":-1,"best_pos":1,"similarity":0.286,"stretto":false,"stretto_voices":0,"combination":[],"aug_dim":"","rhythm_ratio":1.0,"chromatic_density":0.2},{"voice":1,"pitch":50,"start":100.9999,"duration":0.3333,"velocity":127,"measure":38,"beat":4.5,"subject_pos":-1,"motif":"tail","motif_pos":5,"best_pos":5,"similarity":1.0,"stretto":false,"stretto_voices":0,"combination":[],"aug_dim":"","rhythm_ratio":1.0,"chromatic_density":0.2},{"voice":0,"pitch":65,"start":101.1666,"duration":0.1667,"velocity":127,"measure":38,"beat":4.75,"subject_pos":-1,"motif":"","motif_pos":-1,"best_pos":2,"similarity":0.293,"stretto":false,"stretto_voices":0,"combination":[],"aug_dim":"","rhythm_ratio":1.0,"chromatic_density":0.2},{"voice":0,"pitch":74,"start":101.3332,"duration":0.1667,"velocity":127,"measure":39,"beat":1.0,"subject_pos":-1,"motif":"","motif_pos":-1,"best_pos":1,"similarity":0.243,"stretto":false,"stretto_voices":0,"combination":[],"aug_dim":"","rhythm_ratio":1.0,"chromatic_density":0.3},{"voice":0,"pitch":67,"start":101.4999,"duration":0.1667,"velocity":127,"measure":39,"beat":1.25,"subject_pos":-1,"motif":"","motif_pos":-1,"best_pos":2,"similarity":0.421,"stretto":false,"stretto_voices":0,"combination":[],"aug_dim":"","rhythm_ratio":1.0,"chromatic_density":0.3},{"voice":1,"pitch":52,"start":101.4999,"duration":0.3333,"velocity":127,"measure":39,"beat":1.25,"subject_pos":-1,"motif":"tail","motif_pos":6,"best_pos":6,"similarity":1.0,"stretto":false,"stretto_voices":0,"combination":[],"aug_dim":"","rhythm_ratio":1.0,"chromatic_density":0.3},{"voice":0,"pitch":64,"start":101.6666,"duration":0.1667,"velocity":127,"measure":39,"beat":1.5,"subject_pos":-1,"motif":"","motif_pos":-1,"best_pos":3,"similarity":0.461,"stretto":false,"stretto_voices":0,"combination":[],"aug_dim":"","rhythm_ratio":1.0,"chromatic_density":0.3},{"voice":0,"pitch":73,"start":101.8332,"duration":0.1667,"velocity":127,"measure":39,"beat":1.75,"subject_pos":-1,"motif":"enigmatic_cell","motif_pos":0,"best_pos":0,"similarity":1.0,"stretto":false,"stretto_voices":0,"combination":[],"aug_dim":"","rhythm_ratio":1.0,"chromatic_density":0.3},{"voice":0,"pitch":74,"start":101.9999,"duration":0.1667,"velocity":127,"measure":39,"beat":2.0,"subject_pos":-1,"motif":"enigmatic_cell","motif_pos":1,"best_pos":1,"similarity":1.0,"stretto":false,"stretto_voices":0,"combination":[],"aug_dim":"","rhythm_ratio":1.0,"chromatic_density":0.3},{"voice":1,"pitch":53,"start":101.9999,"duration":0.8333,"velocity":127,"measure":39,"beat":2.0,"subject_pos":-1,"motif":"tail","motif_pos":7,"best_pos":7,"similarity":1.0,"stretto":false,"stretto_voices":0,"combination":[],"aug_dim":"","rhythm_ratio":1.0,"chromatic_density":0.3},{"voice":0,"pitch":69,"start":102.1666,"duration":0.1667,"velocity":127,"measure":39,"beat":2.25,"subject_pos":-1,"motif":"enigmatic_cell","motif_pos":2,"best_pos":2,"similarity":1.0,"stretto":false,"stretto_voices":0,"combination":[],"aug_dim":"","rhythm_ratio":1.0,"chromatic_density":0.3},{"voice":0,"pitch":65,"start":102.3332,"duration":0.1667,"velocity":127,"measure":39,"beat":2.5,"subject_pos":-1,"motif":"","motif_pos":-1,"best_pos":2,"similarity":0.657,"stretto":false,"stretto_voices":0,"combination":[],"aug_dim":"","rhythm_ratio":1.0,"chromatic_density":0.3},{"voice":0,"pitch":62,"start":102.4999,"duration":0.1667,"velocity":127,"measure":39,"beat":2.75,"subject_pos":-1,"motif":"","motif_pos":-1,"best_pos":3,"similarity":0.607,"stretto":false,"stretto_voices":0,"combination":[],"aug_dim":"","rhythm_ratio":1.0,"chromatic_density":0.3},{"voice":0,"pitch":64,"start":102.6666,"duration":0.1667,"velocity":127,"measure":39,"beat":3.0,"subject_pos":-1,"motif":"","motif_pos":-1,"best_pos":4,"similarity":0.614,"stretto":false,"stretto_voices":0,"combination":[],"aug_dim":"","rhythm_ratio":1.0,"chromatic_density":0.3},{"voice":0,"pitch":65,"start":102.8332,"duration":0.1667,"velocity":127,"measure":39,"beat":3.25,"subject_pos":-1,"motif":"","motif_pos":-1,"best_pos":5,"similarity":0.543,"stretto":false,"stretto_voices":0,"combination":[],"aug_dim":"","rhythm_ratio":1.0,"chromatic_density":0.3},{"voice":1,"pitch":57,"start":102.8332,"duration":0.1667,"velocity":127,"measure":39,"beat":3.25,"subject_pos":-1,"motif":"","motif_pos":-1,"best_pos":1,"similarity":0.507,"stretto":false,"stretto_voices":0,"combination":[],"aug_dim":"","rhythm_ratio":1.0,"chromatic_density":0.3},{"voice":0,"pitch":64,"start":102.9999,"duration":0.1667,"velocity":127,"measure":39,"beat":3.5,"subject_pos":-1,"motif":"","motif_pos":-1,"best_pos":4,"similarity":0.629,"stretto":false,"stretto_voices":0,"combination":[],"aug_dim":"","rhythm_ratio":1.0,"chromatic_density":0.3},{"voice":1,"pitch":55,"start":102.9999,"duration":0.3333,"velocity":127,"measure":39,"beat":3.5,"subject_pos":-1,"motif":"","motif_pos":-1,"best_pos":2,"similarity":0.521,"stretto":false,"stretto_voices":0,"combination":[],"aug_dim":"","rhythm_ratio":1.0,"chromatic_density":0.3},{"voice":0,"pitch":65,"start":103.1666,"duration":0.1667,"velocity":127,"measure":39,"beat":3.75,"subject_pos":-1,"motif":"","motif_pos":-1,"best_pos":5,"similarity":0.507,"stretto":false,"stretto_voices":0,"combination":[],"aug_dim":"","rhythm_ratio":1.0,"chromatic_density":0.3},{"voice":0,"pitch":62,"start":103.3332,"duration":0.1667,"velocity":127,"measure":39,"beat":4.0,"subject_pos":-1,"motif":"","motif_pos":-1,"best_pos":3,"similarity":0.543,"stretto":false,"stretto_voices":0,"combination":[],"aug_dim":"","rhythm_ratio":1.0,"chromatic_density":0.3},{"voice":1,"pitch":53,"start":103.3332,"duration":0.1667,"velocity":127,"measure":39,"beat":4.0,"subject_pos":-1,"motif":"","motif_pos":-1,"best_pos":5,"similarity":0.4,"stretto":false,"stretto_voices":0,"combination":[],"aug_dim":"","rhythm_ratio":1.0,"chromatic_density":0.3},{"voice":0,"pitch":64,"start":103.4999,"duration":0.6667,"velocity":127,"measure":39,"beat":4.25,"subject_pos":-1,"motif":"","motif_pos":-1,"best_pos":4,"similarity":0.614,"stretto":false,"stretto_voices":0,"combination":[],"aug_dim":"","rhythm_ratio":1.0,"chromatic_density":0.3},{"voice":1,"pitch":55,"start":103.4999,"duration":0.1667,"velocity":127,"measure":39,"beat":4.25,"subject_pos":-1,"motif":"","motif_pos":-1,"best_pos":6,"similarity":0.364,"stretto":false,"stretto_voices":0,"combination":[],"aug_dim":"","rhythm_ratio":1.0,"chromatic_density":0.3},{"voice":1,"pitch":53,"start":103.6666,"duration":0.1667,"velocity":127,"measure":39,"beat":4.5,"subject_pos":-1,"motif":"","motif_pos":-1,"best_pos":3,"similarity":0.479,"stretto":false,"stretto_voices":0,"combination":[],"aug_dim":"","rhythm_ratio":1.0,"chromatic_density":0.3},{"voice":1,"pitch":52,"start":103.8332,"duration":0.1667,"velocity":127,"measure":39,"beat":4.75,"subject_pos":-1,"motif":"","motif_pos":-1,"best_pos":4,"similarity":0.436,"stretto":false,"stretto_voices":0,"combination":[],"aug_dim":"","rhythm_ratio":1.0,"chromatic_density":0.3},{"voice":1,"pitch":61,"start":103.9999,"duration":1.0,"velocity":127,"measure":40,"beat":1.0,"subject_pos":-1,"motif":"","motif_pos":-1,"best_pos":4,"similarity":0.393,"stretto":false,"stretto_voices":0,"combination":[],"aug_dim":"","rhythm_ratio":1.0,"chromatic_density":0.222},{"voice":0,"pitch":65,"start":104.1666,"duration":0.1667,"velocity":127,"measure":40,"beat":1.25,"subject_pos":-1,"motif":"","motif_pos":-1,"best_pos":5,"similarity":0.671,"stretto":false,"stretto_voices":0,"combination":[],"aug_dim":"","rhythm_ratio":1.0,"chromatic_density":0.222},{"voice":0,"pitch":67,"start":104.3332,"duration":0.1667,"velocity":127,"measure":40,"beat":1.5,"subject_pos":-1,"motif":"","motif_pos":-1,"best_pos":6,"similarity":0.464,"stretto":false,"stretto_voices":0,"combination":[],"aug_dim":"","rhythm_ratio":1.0,"chromatic_density":0.222},{"voice":0,"pitch":65,"start":104.4999,"duration":0.1667,"velocity":127,"measure":40,"beat":1.75,"subject_pos":-1,"motif":"","motif_pos":-1,"best_pos":2,"similarity":0.407,"stretto":false,"stretto_voices":0,"combination":[],"aug_dim":"","rhythm_ratio":1.0,"chromatic_density":0.222},{"voice":0,"pitch":67,"start":104.6666,"duration":0.1667,"velocity":127,"measure":40,"beat":2.0,"subject_pos":-1,"motif":"","motif_pos":-1,"best_pos":3,"similarity":0.371,"stretto":false,"stretto_voices":0,"combination":[],"aug_dim":"","rhythm_ratio":1.0,"chromatic_density":0.222},{"voice":0,"pitch":64,"start":104.8332,"duration":0.1667,"velocity":127,"measure":40,"beat":2.25,"subject_pos":-1,"motif":"","motif_pos":-1,"best_pos":4,"similarity":0.45,"stretto":false,"stretto_voices":0,"combination":[],"aug_dim":"","rhythm_ratio":1.0,"chromatic_density":0.222},{"voice":0,"pitch":65,"start":104.9999,"duration":0.3333,"velocity":127,"measure":40,"beat":2.5,"subject_pos":-1,"motif":"","motif_pos":-1,"best_pos":3,"similarity":0.414,"stretto":false,"stretto_voices":0,"combination":[],"aug_dim":"","rhythm_ratio":1.0,"chromatic_density":0.222},{"voice":1,"pitch":62,"start":104.9999,"duration":0.1667,"velocity":127,"measure":40,"beat":2.5,"subject_pos":-1,"motif":"","motif_pos":-1,"best_pos":1,"similarity":0.314,"stretto":false,"stretto_voices":0,"combination":[],"aug_dim":"","rhythm_ratio":1.0,"chromatic_density":0.222},{"voice":1,"pitch":58,"start":105.1666,"duration":0.1667,"velocity":127,"measure":40,"beat":2.75,"subject_pos":-1,"motif":"","motif_pos":-1,"best_pos":2,"similarity":0.307,"stretto":false,"stretto_voices":0,"combination":[],"aug_dim":"","rhythm_ratio":1.0,"chromatic_density":0.222},{"voice":1,"pitch":67,"start":105.3332,"duration":0.1667,"velocity":127,"measure":40,"beat":3.0,"subject_pos":-1,"motif":"","motif_pos":-1,"best_pos":1,"similarity":0.243,"stretto":false,"stretto_voices":0,"combination":[],"aug_dim":"","rhythm_ratio":1.0,"chromatic_density":0.222},{"voice":0,"pitch":64,"start":105.4999,"duration":0.3333,"velocity":127,"measure":40,"beat":3.25,"subject_pos":-1,"motif":"","motif_pos":-1,"best_pos":2,"similarity":0.514,"stretto":false,"stretto_voices":0,"combination":[],"aug_dim":"","rhythm_ratio":1.0,"chromatic_density":0.222},{"voice":1,"pitch":60,"start":105.4999,"duration":0.1667,"velocity":127,"measure":40,"beat":3.25,"subject_pos":-1,"motif":"","motif_pos":-1,"best_pos":2,"similarity":0.35,"stretto":false,"stretto_voices":0,"combination":[],"aug_dim":"","rhythm_ratio":1.0,"chromatic_density":0.222},{"voice":1,"pitch":57,"start":105.6666,"duration":0.1667,"velocity":127,"measure":40,"beat":3.5,"subject_pos":-1,"motif":"","motif_pos":-1,"best_pos":3,"similarity":0.318,"stretto":false,"stretto_voices":0,"combination":[],"aug_dim":"","rhythm_ratio":1.0,"chromatic_density":0.222},{"voice":1,"pitch":65,"start":105.8332,"duration":0.1667,"velocity":127,"measure":40,"beat":3.75,"subject_pos":-1,"motif":"","motif_pos":-1,"best_pos":1,"similarity":0.314,"stretto":false,"stretto_voices":0,"combination":[],"aug_dim":"","rhythm_ratio":1.0,"chromatic_density":0.222},{"voice":0,"pitch":62,"start":105.9999,"duration":0.3333,"velocity":127,"measure":40,"beat":4.0,"subject_pos":-1,"motif":"tail","motif_pos":3,"best_pos":3,"similarity":1.0,"stretto":false,"stretto_voices":0,"combination":[],"aug_dim":"","rhythm_ratio":1.0,"chromatic_density":0.222},{"voice":1,"pitch":58,"start":105.9999,"duration":0.1667,"velocity":127,"measure":40,"beat":4.0,"subject_pos":-1,"motif":"","motif_pos":-1,"best_pos":2,"similarity":0.386,"stretto":false,"stretto_voices":0,"combination":[],"aug_dim":"","rhythm_ratio":1.0,"chromatic_density":0.222},{"voice":1,"pitch":55,"start":106.1666,"duration":0.1667,"velocity":127,"measure":40,"beat":4.25,"subject_pos":-1,"motif":"","motif_pos":-1,"best_pos":3,"similarity":0.343,"stretto":false,"stretto_voices":0,"combination":[],"aug_dim":"","rhythm_ratio":1.0,"chromatic_density":0.222},{"voice":1,"pitch":64,"start":106.3332,"duration":0.1667,"velocity":127,"measure":40,"beat":4.5,"subject_pos":-1,"motif":"","motif_pos":-1,"best_pos":1,"similarity":0.171,"stretto":false,"stretto_voices":0,"combination":[],"aug_dim":"","rhythm_ratio":1.0,"chromatic_density":0.222},{"voice":0,"pitch":61,"start":106.4999,"duration":0.3333,"velocity":127,"measure":40,"beat":4.75,"subject_pos":-1,"motif":"tail","motif_pos":4,"best_pos":4,"similarity":1.0,"stretto":false,"stretto_voices":0,"combination":[],"aug_dim":"","rhythm_ratio":1.0,"chromatic_density":0.222},{"voice":1,"pitch":57,"start":106.4999,"duration":0.1667,"velocity":127,"measure":40,"beat":4.75,"subject_pos":-1,"motif":"","motif_pos":-1,"best_pos":1,"similarity":0.286,"stretto":false,"stretto_voices":0,"combination":[],"aug_dim":"","rhythm_ratio":1.0,"chromatic_density":0.222},{"voice":1,"pitch":55,"start":106.6666,"duration":0.1667,"velocity":127,"measure":41,"beat":1.0,"subject_pos":-1,"motif":"","motif_pos":-1,"best_pos":2,"similarity":0.286,"stretto":false,"stretto_voices":0,"combination":[],"aug_dim":"","rhythm_ratio":1.0,"chromatic_density":0.304},{"voice":1,"pitch":64,"start":106.8332,"duration":0.1667,"velocity":127,"measure":41,"beat":1.25,"subject_pos":-1,"motif":"","motif_pos":-1,"best_pos":1,"similarity":0.171,"stretto":false,"stretto_voices":0,"combination":[],"aug_dim":"","rhythm_ratio":1.0,"chromatic_density":0.304},{"voice":0,"pitch":62,"start":106.9999,"duration":0.3333,"velocity":127,"measure":41,"beat":1.5,"subject_pos":-1,"motif":"tail","motif_pos":5,"best_pos":5,"similarity":1.0,"stretto":false,"stretto_voices":0,"combination":[],"aug_dim":"","rhythm_ratio":1.0,"chromatic_density":0.304},{"voice":1,"pitch":57,"start":106.9999,"duration":0.1667,"velocity":127,"measure":41,"beat":1.5,"subject_pos":-1,"motif":"","motif_pos":-1,"best_pos":1,"similarity":0.286,"stretto":false,"stretto_voices":0,"combination":[],"aug_dim":"","rhythm_ratio":1.0,"chromatic_density":0.304},{"voice":1,"pitch":53,"start":107.1666,"duration":0.1667,"velocity":127,"measure":41,"beat":1.75,"subject_pos":-1,"motif":"","motif_pos":-1,"best_pos":2,"similarity":0.293,"stretto":false,"stretto_voices":0,"combination":[],"aug_dim":"","rhythm_ratio":1.0,"chromatic_density":0.304},{"voice":1,"pitch":62,"start":107.3332,"duration":0.1667,"velocity":127,"measure":41,"beat":2.0,"subject_pos":-1,"motif":"","motif_pos":-1,"best_pos":1,"similarity":0.243,"stretto":false,"stretto_voices":0,"combination":[],"aug_dim":"","rhythm_ratio":1.0,"chromatic_density":0.304},{"voice":0,"pitch":64,"start":107.4999,"duration":0.3333,"velocity":127,"measure":41,"beat":2.25,"subject_pos":-1,"motif":"tail","motif_pos":6,"best_pos":6,"similarity":1.0,"stretto":false,"stretto_voices":0,"combination":[],"aug_dim":"","rhythm_ratio":1.0,"chromatic_density":0.304},{"voice":1,"pitch":55,"start":107.4999,"duration":0.1667,"velocity":127,"measure":41,"beat":2.25,"subject_pos":-1,"motif":"","motif_pos":-1,"best_pos":2,"similarity":0.421,"stretto":false,"stretto_voices":0,"combination":[],"aug_dim":"","rhythm_ratio":1.0,"chromatic_density":0.304},{"voice":1,"pitch":52,"start":107.6666,"duration":0.1667,"velocity":127,"measure":41,"beat":2.5,"subject_pos":-1,"motif":"","motif_pos":-1,"best_pos":3,"similarity":0.461,"stretto":false,"stretto_voices":0,"combination":[],"aug_dim":"","rhythm_ratio":1.0,"chromatic_density":0.304},{"voice":1,"pitch":61,"start":107.8332,"duration":0.1667,"velocity":127,"measure":41,"beat":2.75,"subject_pos":-1,"motif":"enigmatic_cell","motif_pos":0,"best_pos":0,"similarity":1.0,"stretto":false,"stretto_voices":0,"combination":[],"aug_dim":"","rhythm_ratio":1.0,"chromatic_density":0.304},{"voice":0,"pitch":65,"start":107.9999,"duration":0.1667,"velocity":127,"measure":41,"beat":3.0,"subject_pos":-1,"motif":"tail","motif_pos":7,"best_pos":7,"similarity":1.0,"stretto":false,"stretto_voices":0,"combination":[],"aug_dim":"","rhythm_ratio":1.0,"chromatic_density":0.304},{"voice":1,"pitch":62,"start":107.9999,"duration":0.1667,"velocity":127,"measure":41,"beat":3.0,"subject_pos":-1,"motif":"enigmatic_cell","motif_pos":1,"best_pos":1,"similarity":1.0,"stretto":false,"stretto_voices":0,"combination":[],"aug_dim":"","rhythm_ratio":1.0,"chromatic_density":0.304},{"voice":0,"pitch":64,"start":108.1666,"duration":0.1667,"velocity":127,"measure":41,"beat":3.25,"subject_pos":-1,"motif":"","motif_pos":-1,"best_pos":1,"similarity":0.357,"stretto":false,"stretto_voices":0,"combination":[],"aug_dim":"","rhythm_ratio":1.0,"chromatic_density":0.304},{"voice":1,"pitch":57,"start":108.1666,"duration":0.1667,"velocity":127,"measure":41,"beat":3.25,"subject_pos":-1,"motif":"enigmatic_cell","motif_pos":2,"best_pos":2,"similarity":1.0,"stretto":false,"stretto_voices":0,"combination":[],"aug_dim":"","rhythm_ratio":1.0,"chromatic_density":0.304},{"voice":0,"pitch":62,"start":108.3332,"duration":0.1667,"velocity":127,"measure":41,"beat":3.5,"subject_pos":-1,"motif":"","motif_pos":-1,"best_pos":2,"similarity":0.436,"stretto":false,"stretto_voices":0,"combination":[],"aug_dim":"","rhythm_ratio":1.0,"chromatic_density":0.304},{"voice":1,"pitch":53,"start":108.3332,"duration":0.1667,"velocity":127,"measure":41,"beat":3.5,"subject_pos":-1,"motif":"","motif_pos":-1,"best_pos":2,"similarity":0.657,"stretto":false,"stretto_voices":0,"combination":[],"aug_dim":"","rhythm_ratio":1.0,"chromatic_density":0.304},{"voice":0,"pitch":70,"start":108.4999,"duration":0.1667,"velocity":127,"measure":41,"beat":3.75,"subject_pos":-1,"motif":"","motif_pos":-1,"best_pos":3,"similarity":0.45,"stretto":false,"stretto_voices":0,"combination":[],"aug_dim":"","rhythm_ratio":1.0,"chromatic_density":0.304},{"voice":1,"pitch":50,"start":108.4999,"duration":0.1667,"velocity":127,"measure":41,"beat":3.75,"subject_pos":-1,"motif":"","motif_pos":-1,"best_pos":3,"similarity":0.607,"stretto":false,"stretto_voices":0,"combination":[],"aug_dim":"","rhythm_ratio":1.0,"chromatic_density":0.304},{"voice":0,"pitch":69,"start":108.6666,"duration":0.1667,"velocity":127,"measure":41,"beat":4.0,"subject_pos":-1,"motif":"","motif_pos":-1,"best_pos":4,"similarity":0.4,"stretto":false,"stretto_voices":0,"combination":[],"aug_dim":"","rhythm_ratio":1.0,"chromatic_density":0.304},{"voice":1,"pitch":52,"start":108.6666,"duration":0.1667,"velocity":127,"measure":41,"beat":4.0,"subject_pos":-1,"motif":"","motif_pos":-1,"best_pos":4,"similarity":0.614,"stretto":false,"stretto_voices":0,"combination":[],"aug_dim":"","rhythm_ratio":1.0,"chromatic_density":0.304},{"voice":0,"pitch":67,"start":108.8332,"duration":0.1667,"velocity":127,"measure":41,"beat":4.25,"subject_pos":-1,"motif":"","motif_pos":-1,"best_pos":2,"similarity":0.286,"stretto":false,"stretto_voices":0,"combination":[],"aug_dim":"","rhythm_ratio":1.0,"chromatic_density":0.304},{"voice":1,"pitch":53,"start":108.8332,"duration":0.1667,"velocity":127,"measure":41,"beat":4.25,"subject_pos":-1,"motif":"","motif_pos":-1,"best_pos":5,"similarity":0.543,"stretto":false,"stretto_voices":0,"combination":[],"aug_dim":"","rhythm_ratio":1.0,"chromatic_density":0.304},{"voice":0,"pitch":73,"start":108.9999,"duration":0.3333,"velocity":127,"measure":41,"beat":4.5,"subject_pos":-1,"motif":"","motif_pos":-1,"best_pos":1,"similarity":0.321,"stretto":false,"stretto_voices":0,"combination":[],"aug_dim":"","rhythm_ratio":1.0,"chromatic_density":0.304},{"voice":1,"pitch":52,"start":108.9999,"duration":0.1667,"velocity":127,"measure":41,"beat":4.5,"subject_pos":-1,"motif":"","motif_pos":-1,"best_pos":4,"similarity":0.629,"stretto":false,"stretto_voices":0,"combination":[],"aug_dim":"","rhythm_ratio":1.0,"chromatic_density":0.304},{"voice":1,"pitch":53,"start":109.1666,"duration":0.1667,"velocity":127,"measure":41,"beat":4.75,"subject_pos":-1,"motif":"","motif_pos":-1,"best_pos":5,"similarity":0.507,"stretto":false,"stretto_voices":0,"combination":[],"aug_dim":"","rhythm_ratio":1.0,"chromatic_density":0.304},{"voice":1,"pitch":50,"start":109.3332,"duration":0.1667,"velocity":127,"measure":42,"beat":1.0,"subject_pos":-1,"motif":"","motif_pos":-1,"best_pos":3,"similarity":0.543,"stretto":false,"stretto_voices":0,"combination":[],"aug_dim":"","rhythm_ratio":1.0,"chromatic_density":0.286},{"voice":1,"pitch":52,"start":109.4999,"duration":0.6667,"velocity":127,"measure":42,"beat":1.25,"subject_pos":-1,"motif":"","motif_pos":-1,"best_pos":4,"similarity":0.614,"stretto":false,"stretto_voices":0,"combination":[],"aug_dim":"","rhythm_ratio":1.0,"chromatic_density":0.286},{"voice":0,"pitch":67,"start":109.6666,"duration":0.1667,"velocity":127,"measure":42,"beat":1.5,"subject_pos":-1,"motif":"","motif_pos":-1,"best_pos":2,"similarity":0.429,"stretto":false,"stretto_voices":0,"combination":[],"aug_dim":"","rhythm_ratio":1.0,"chromatic_density":0.286},{"voice":0,"pitch":62,"start":109.8332,"duration":0.1667,"velocity":127,"measure":42,"beat":1.75,"subject_pos":-1,"motif":"","motif_pos":-1,"best_pos":3,"similarity":0.643,"stretto":false,"stretto_voices":0,"combination":[],"aug_dim":"","rhythm_ratio":1.0,"chromatic_density":0.286},{"voice":0,"pitch":61,"start":109.9999,"duration":0.1667,"velocity":127,"measure":42,"beat":2.0,"subject_pos":-1,"motif":"","motif_pos":-1,"best_pos":4,"similarity":0.768,"stretto":false,"stretto_voices":0,"combination":[],"aug_dim":"","rhythm_ratio":1.0,"chromatic_density":0.286},{"voice":0,"pitch":62,"start":110.1666,"duration":0.1667,"velocity":127,"measure":42,"beat":2.25,"subject_pos":-1,"motif":"","motif_pos":-1,"best_pos":5,"similarity":0.732,"stretto":false,"stretto_voices":0,"combination":[],"aug_dim":"","rhythm_ratio":1.0,"chromatic_density":0.286},{"voice":1,"pitch":53,"start":110.1666,"duration":0.1667,"velocity":127,"measure":42,"beat":2.25,"subject_pos":-1,"motif":"","motif_pos":-1,"best_pos":5,"similarity":0.671,"stretto":false,"stretto_voices":0,"combination":[],"aug_dim":"","rhythm_ratio":1.0,"chromatic_density":0.286},{"voice":0,"pitch":64,"start":110.3332,"duration":0.1667,"velocity":127,"measure":42,"beat":2.5,"subject_pos":-1,"motif":"head_inv","motif_pos":0,"best_pos":0,"similarity":1.0,"stretto":false,"stretto_voices":0,"combination":[],"aug_dim":"","rhythm_ratio":1.0,"chromatic_density":0.286},{"voice":1,"pitch":55,"start":110.3332,"duration":0.1667,"velocity":127,"measure":42,"beat":2.5,"subject_pos":-1,"motif":"","motif_pos":-1,"best_pos":6,"similarity":0.464,"stretto":false,"stretto_voices":0,"combination":[],"aug_dim":"","rhythm_ratio":1.0,"chromatic_density":0.286},{"voice":0,"pitch":57,"start":110.4999,"duration":0.1667,"velocity":127,"measure":42,"beat":2.75,"subject_pos":-1,"motif":"head_inv","motif_pos":1,"best_pos":1,"similarity":1.0,"stretto":false,"stretto_voices":0,"combination":[],"aug_dim":"","rhythm_ratio":1.0,"chromatic_density":0.286},{"voice":1,"pitch":53,"start":110.4999,"duration":0.1667,"velocity":127,"measure":42,"beat":2.75,"subject_pos":-1,"motif":"","motif_pos":-1,"best_pos":2,"similarity":0.407,"stretto":false,"stretto_voices":0,"combination":[],"aug_dim":"","rhythm_ratio":1.0,"chromatic_density":0.286},{"voice":0,"pitch":59,"start":110.6666,"duration":0.1667,"velocity":127,"measure":42,"beat":3.0,"subject_pos":-1,"motif":"head_inv","motif_pos":2,"best_pos":2,"similarity":1.0,"stretto":false,"stretto_voices":0,"combination":[],"aug_dim":"","rhythm_ratio":1.0,"chromatic_density":0.286},{"voice":1,"pitch":55,"start":110.6666,"duration":0.1667,"velocity":127,"measure":42,"beat":3.0,"subject_pos":-1,"motif":"","motif_pos":-1,"best_pos":3,"similarity":0.371,"stretto":false,"stretto_voices":0,"combination":[],"aug_dim":"","rhythm_ratio":1.0,"chromatic_density":0.286},{"voice":0,"pitch":61,"start":110.8332,"duration":0.1667,"velocity":127,"measure":42,"beat":3.25,"subject_pos":-1,"motif":"head_inv","motif_pos":3,"best_pos":3,"similarity":1.0,"stretto":false,"stretto_voices":0,"combination":[],"aug_dim":"","rhythm_ratio":1.0,"chromatic_density":0.286},{"voice":1,"pitch":52,"start":110.8332,"duration":0.1667,"velocity":127,"measure":42,"beat":3.25,"subject_pos":-1,"motif":"","motif_pos":-1,"best_pos":4,"similarity":0.45,"stretto":false,"stretto_voices":0,"combination":[],"aug_dim":"","rhythm_ratio":1.0,"chromatic_density":0.286},{"voice":0,"pitch":62,"start":110.9999,"duration":0.1667,"velocity":127,"measure":42,"beat":3.5,"subject_pos":-1,"motif":"head_inv","motif_pos":4,"best_pos":4,"similarity":1.0,"stretto":false,"stretto_voices":0,"combination":[],"aug_dim":"","rhythm_ratio":1.0,"chromatic_density":0.286},{"voice":1,"pitch":53,"start":110.9999,"duration":0.3333,"velocity":127,"measure":42,"beat":3.5,"subject_pos":-1,"motif":"","motif_pos":-1,"best_pos":3,"similarity":0.414,"stretto":false,"stretto_voices":0,"combination":[],"aug_dim":"","rhythm_ratio":1.0,"chromatic_density":0.286},{"voice":0,"pitch":55,"start":111.1666,"duration":0.1667,"velocity":127,"measure":42,"beat":3.75,"subject_pos":-1,"motif":"","motif_pos":-1,"best_pos":5,"similarity":0.25,"stretto":false,"stretto_voices":0,"combination":[],"aug_dim":"","rhythm_ratio":1.0,"chromatic_density":0.286},{"voice":0,"pitch":58,"start":111.3332,"duration":0.1667,"velocity":127,"measure":42,"beat":4.0,"subject_pos":-1,"motif":"","motif_pos":-1,"best_pos":5,"similarity":0.364,"stretto":false,"stretto_voices":0,"combination":[],"aug_dim":"","rhythm_ratio":1.0,"chromatic_density":0.286},{"voice":0,"pitch":60,"start":111.4999,"duration":0.1667,"velocity":127,"measure":42,"beat":4.25,"subject_pos":-1,"motif":"","motif_pos":-1,"best_pos":6,"similarity":0.321,"stretto":false,"stretto_voices":0,"combination":[],"aug_dim":"","rhythm_ratio":1.0,"chromatic_density":0.286},{"voice":1,"pitch":52,"start":111.4999,"duration":0.3333,"velocity":127,"measure":42,"beat":4.25,"subject_pos":-1,"motif":"","motif_pos":-1,"best_pos":2,"similarity":0.514,"stretto":false,"stretto_voices":0,"combination":[],"aug_dim":"","rhythm_ratio":1.0,"chromatic_density":0.286},{"voice":0,"pitch":53,"start":111.6666,"duration":0.1667,"velocity":127,"measure":42,"beat":4.5,"subject_pos":-1,"motif":"","motif_pos":-1,"best_pos":5,"similarity":0.229,"stretto":false,"stretto_voices":0,"combination":[],"aug_dim":"","rhythm_ratio":1.0,"chromatic_density":0.286},{"voice":0,"pitch":57,"start":111.8332,"duration":0.1667,"velocity":127,"measure":42,"beat":4.75,"subject_pos":-1,"motif":"enigmatic_cell","motif_pos":0,"best_pos":0,"similarity":1.0,"stretto":false,"stretto_voices":0,"combination":[],"aug_dim":"","rhythm_ratio":1.0,"chromatic_density":0.286},{"voice":0,"pitch":58,"start":111.9999,"duration":0.1667,"velocity":127,"measure":43,"beat":1.0,"subject_pos":-1,"motif":"enigmatic_cell","motif_pos":1,"best_pos":1,"similarity":1.0,"stretto":false,"stretto_voices":0,"combination":[],"aug_dim":"","rhythm_ratio":1.0,"chromatic_density":0.35},{"voice":1,"pitch":50,"start":111.9999,"duration":0.3333,"velocity":127,"measure":43,"beat":1.0,"subject_pos":-1,"motif":"tail","motif_pos":3,"best_pos":3,"similarity":1.0,"stretto":false,"stretto_voices":0,"combination":[],"aug_dim":"","rhythm_ratio":1.0,"chromatic_density":0.35},{"voice":0,"pitch":52,"start":112.1666,"duration":0.1667,"velocity":127,"measure":43,"beat":1.25,"subject_pos":-1,"motif":"enigmatic_cell","motif_pos":2,"best_pos":2,"similarity":1.0,"stretto":false,"stretto_voices":0,"combination":[],"aug_dim":"","rhythm_ratio":1.0,"chromatic_density":0.35},{"voice":0,"pitch":55,"start":112.3332,"duration":0.1667,"velocity":127,"measure":43,"beat":1.5,"subject_pos":-1,"motif":"","motif_pos":-1,"best_pos":5,"similarity":0.364,"stretto":false,"stretto_voices":0,"combination":[],"aug_dim":"","rhythm_ratio":1.0,"chromatic_density":0.35},{"voice":0,"pitch":57,"start":112.4999,"duration":0.1667,"velocity":127,"measure":43,"beat":1.75,"subject_pos":-1,"motif":"","motif_pos":-1,"best_pos":6,"similarity":0.321,"stretto":false,"stretto_voices":0,"combination":[],"aug_dim":"","rhythm_ratio":1.0,"chromatic_density":0.35},{"voice":1,"pitch":49,"start":112.4999,"duration":0.3333,"velocity":127,"measure":43,"beat":1.75,"subject_pos":-1,"motif":"tail","motif_pos":4,"best_pos":4,"similarity":1.0,"stretto":false,"stretto_voices":0,"combination":[],"aug_dim":"","rhythm_ratio":1.0,"chromatic_density":0.35},{"voice":0,"pitch":69,"start":112.6666,"duration":0.1667,"velocity":127,"measure":43,"beat":2.0,"subject_pos":-1,"motif":"","motif_pos":-1,"best_pos":1,"similarity":0.357,"stretto":false,"stretto_voices":0,"combination":[],"aug_dim":"","rhythm_ratio":1.0,"chromatic_density":0.35},{"voice":0,"pitch":67,"start":112.8332,"duration":0.1667,"velocity":127,"measure":43,"beat":2.25,"subject_pos":-1,"motif":"","motif_pos":-1,"best_pos":2,"similarity":0.436,"stretto":false,"stretto_voices":0,"combination":[],"aug_dim":"","rhythm_ratio":1.0,"chromatic_density":0.35},{"voice":0,"pitch":65,"start":112.9999,"duration":0.1667,"velocity":127,"measure":43,"beat":2.5,"subject_pos":-1,"motif":"","motif_pos":-1,"best_pos":2,"similarity":0.364,"stretto":false,"stretto_voices":0,"combination":[],"aug_dim":"","rhythm_ratio":1.0,"chromatic_density":0.35},{"voice":1,"pitch":50,"start":112.9999,"duration":0.3333,"velocity":127,"measure":43,"beat":2.5,"subject_pos":-1,"motif":"tail","motif_pos":5,"best_pos":5,"similarity":1.0,"stretto":false,"stretto_voices":0,"combination":[],"aug_dim":"","rhythm_ratio":1.0,"chromatic_density":0.35},{"voice":0,"pitch":74,"start":113.1666,"duration":0.1667,"velocity":127,"measure":43,"beat":2.75,"subject_pos":-1,"motif":"","motif_pos":-1,"best_pos":1,"similarity":0.5,"stretto":false,"stretto_voices":0,"combination":[],"aug_dim":"","rhythm_ratio":1.0,"chromatic_density":0.35},{"voice":0,"pitch":72,"start":113.3332,"duration":0.1667,"velocity":127,"measure":43,"beat":3.0,"subject_pos":-1,"motif":"","motif_pos":-1,"best_pos":2,"similarity":0.679,"stretto":false,"stretto_voices":0,"combination":[],"aug_dim":"","rhythm_ratio":1.0,"chromatic_density":0.35},{"voice":0,"pitch":70,"start":113.4999,"duration":0.1667,"velocity":127,"measure":43,"beat":3.25,"subject_pos":-1,"motif":"","motif_pos":-1,"best_pos":3,"similarity":0.739,"stretto":false,"stretto_voices":0,"combination":[],"aug_dim":"","rhythm_ratio":1.0,"chromatic_density":0.35},{"voice":1,"pitch":52,"start":113.4999,"duration":0.3333,"velocity":127,"measure":43,"beat":3.25,"subject_pos":-1,"motif":"tail","motif_pos":6,"best_pos":6,"similarity":1.0,"stretto":false,"stretto_voices":0,"combination":[],"aug_dim":"","rhythm_ratio":1.0,"chromatic_density":0.35},{"voice":0,"pitch":69,"start":113.6666,"duration":0.1667,"velocity":127,"measure":43,"beat":3.5,"subject_pos":-1,"motif":"","motif_pos":-1,"best_pos":4,"similarity":0.729,"stretto":false,"stretto_voices":0,"combination":[],"aug_dim":"","rhythm_ratio":1.0,"chromatic_density":0.35},{"voice":0,"pitch":70,"start":113.8332,"duration":0.1667,"velocity":127,"measure":43,"beat":3.75,"subject_pos":-1,"motif":"","motif_pos":-1,"best_pos":5,"similarity":0.493,"stretto":false,"stretto_voices":0,"combination":[],"aug_dim":"","rhythm_ratio":1.0,"chromatic_density":0.35},{"voice":0,"pitch":69,"start":113.9999,"duration":0.5,"velocity":127,"measure":43,"beat":4.0,"subject_pos":-1,"motif":"","motif_pos":-1,"best_pos":4,"similarity":0.421,"stretto":false,"stretto_voices":0,"combination":[],"aug_dim":"","rhythm_ratio":1.0,"chromatic_density":0.35},{"voice":1,"pitch":53,"start":113.9999,"duration":0.1667,"velocity":127,"measure":43,"beat":4.0,"subject_pos":-1,"motif":"tail","motif_pos":7,"best_pos":7,"similarity":1.0,"stretto":false,"stretto_voices":0,"combination":[],"aug_dim":"","rhythm_ratio":1.0,"chromatic_density":0.35},{"voice":1,"pitch":52,"start":114.1666,"duration":0.1667,"velocity":127,"measure":43,"beat":4.25,"subject_pos":-1,"motif":"","motif_pos":-1,"best_pos":1,"similarity":0.357,"stretto":false,"stretto_voices":0,"combination":[],"aug_dim":"","rhythm_ratio":1.0,"chromatic_density":0.35},{"voice":1,"pitch":50,"start":114.3332,"duration":0.1667,"velocity":127,"measure":43,"beat":4.5,"subject_pos":-1,"motif":"","motif_pos":-1,"best_pos":2,"similarity":0.436,"stretto":false,"stretto_voices":0,"combination":[],"aug_dim":"","rhythm_ratio":1.0,"chromatic_density":0.35},{"voice":0,"pitch":62,"start":114.4999,"duration":0.1667,"velocity":127,"measure":43,"beat":4.75,"subject_pos":-1,"motif":"","motif_pos":-1,"best_pos":3,"similarity":0.607,"stretto":false,"stretto_voices":0,"combination":[],"aug_dim":"","rhythm_ratio":1.0,"chromatic_density":0.35},{"voice":1,"pitch":58,"start":114.4999,"duration":0.1667,"velocity":127,"measure":43,"beat":4.75,"subject_pos":-1,"motif":"","motif_pos":-1,"best_pos":3,"similarity":0.45,"stretto":false,"stretto_voices":0,"combination":[],"aug_dim":"","rhythm_ratio":1.0,"chromatic_density":0.35},{"voice":0,"pitch":61,"start":114.6666,"duration":0.1667,"velocity":127,"measure":44,"beat":1.0,"subject_pos":-1,"motif":"","motif_pos":-1,"best_pos":4,"similarity":0.771,"stretto":false,"stretto_voices":0,"combination":[],"aug_dim":"","rhythm_ratio":1.0,"chromatic_density":0.308},{"voice":1,"pitch":57,"start":114.6666,"duration":0.1667,"velocity":127,"measure":44,"beat":1.0,"subject_pos":-1,"motif":"","motif_pos":-1,"best_pos":4,"similarity":0.4,"stretto":false,"stretto_voices":0,"combination":[],"aug_dim":"","rhythm_ratio":1.0,"chromatic_density":0.308},{"voice":0,"pitch":62,"start":114.8332,"duration":0.1667,"velocity":127,"measure":44,"beat":1.25,"subject_pos":-1,"motif":"","motif_pos":-1,"best_pos":5,"similarity":0.736,"stretto":false,"stretto_voices":0,"combination":[],"aug_dim":"","rhythm_ratio":1.0,"chromatic_density":0.308},{"voice":1,"pitch":55,"start":114.8332,"duration":0.1667,"velocity":127,"measure":44,"beat":1.25,"subject_pos":-1,"motif":"","motif_pos":-1,"best_pos":2,"similarity":0.286,"stretto":false,"stretto_voices":0,"combination":[],"aug_dim":"","rhythm_ratio":1.0,"chromatic_density":0.308},{"voice":0,"pitch":64,"start":114.9999,"duration":0.1667,"velocity":127,"measure":44,"beat":1.5,"subject_pos":-1,"motif":"","motif_pos":-1,"best_pos":6,"similarity":0.529,"stretto":false,"stretto_voices":0,"combination":[],"aug_dim":"","rhythm_ratio":1.0,"chromatic_density":0.308},{"voice":1,"pitch":61,"start":114.9999,"duration":0.3333,"velocity":127,"measure":44,"beat":1.5,"subject_pos":-1,"motif":"","motif_pos":-1,"best_pos":1,"similarity":0.321,"stretto":false,"stretto_voices":0,"combination":[],"aug_dim":"","rhythm_ratio":1.0,"chromatic_density":0.308},{"voice":0,"pitch":62,"start":115.1666,"duration":0.1667,"velocity":127,"measure":44,"beat":1.75,"subject_pos":-1,"motif":"","motif_pos":-1,"best_pos":5,"similarity":0.479,"stretto":false,"stretto_voices":0,"combination":[],"aug_dim":"","rhythm_ratio":1.0,"chromatic_density":0.308},{"voice":0,"pitch":64,"start":115.3332,"duration":0.1667,"velocity":127,"measure":44,"beat":2.0,"subject_pos":-1,"motif":"","motif_pos":-1,"best_pos":6,"similarity":0.593,"stretto":false,"stretto_voices":0,"combination":[],"aug_dim":"","rhythm_ratio":1.0,"chromatic_density":0.308},{"voice":0,"pitch":65,"start":115.4999,"duration":0.1667,"velocity":127,"measure":44,"beat":2.25,"subject_pos":-1,"motif":"","motif_pos":-1,"best_pos":3,"similarity":0.543,"stretto":false,"stretto_voices":0,"combination":[],"aug_dim":"","rhythm_ratio":1.0,"chromatic_density":0.308},{"voice":0,"pitch":64,"start":115.6666,"duration":0.1667,"velocity":127,"measure":44,"beat":2.5,"subject_pos":-1,"motif":"","motif_pos":-1,"best_pos":4,"similarity":0.743,"stretto":false,"stretto_voices":0,"combination":[],"aug_dim":"","rhythm_ratio":1.0,"chromatic_density":0.308},{"voice":1,"pitch":55,"start":115.6666,"duration":0.1667,"velocity":127,"measure":44,"beat":2.5,"subject_pos":-1,"motif":"","motif_pos":-1,"best_pos":2,"similarity":0.429,"stretto":false,"stretto_voices":0,"combination":[],"aug_dim":"","rhythm_ratio":1.0,"chromatic_density":0.308},{"voice":0,"pitch":65,"start":115.8332,"duration":0.1667,"velocity":127,"measure":44,"beat":2.75,"subject_pos":-1,"motif":"","motif_pos":-1,"best_pos":5,"similarity":0.736,"stretto":false,"stretto_voices":0,"combination":[],"aug_dim":"","rhythm_ratio":1.0,"chromatic_density":0.308},{"voice":1,"pitch":50,"start":115.8332,"duration":0.1667,"velocity":127,"measure":44,"beat":2.75,"subject_pos":-1,"motif":"","motif_pos":-1,"best_pos":3,"similarity":0.643,"stretto":false,"stretto_voices":0,"combination":[],"aug_dim":"","rhythm_ratio":1.0,"chromatic_density":0.308},{"voice":0,"pitch":67,"start":115.9999,"duration":0.1667,"velocity":127,"measure":44,"beat":3.0,"subject_pos":-1,"motif":"","motif_pos":-1,"best_pos":6,"similarity":0.529,"stretto":false,"stretto_voices":0,"combination":[],"aug_dim":"","rhythm_ratio":1.0,"chromatic_density":0.308},{"voice":1,"pitch":49,"start":115.9999,"duration":0.1667,"velocity":127,"measure":44,"beat":3.0,"subject_pos":-1,"motif":"","motif_pos":-1,"best_pos":4,"similarity":0.768,"stretto":false,"stretto_voices":0,"combination":[],"aug_dim":"","rhythm_ratio":1.0,"chromatic_density":0.308},{"voice":0,"pitch":65,"start":116.1666,"duration":0.1667,"velocity":127,"measure":44,"beat":3.25,"subject_pos":-1,"motif":"","motif_pos":-1,"best_pos":4,"similarity":0.443,"stretto":false,"stretto_voices":0,"combination":[],"aug_dim":"","rhythm_ratio":1.0,"chromatic_density":0.308},{"voice":1,"pitch":50,"start":116.1666,"duration":0.1667,"velocity":127,"measure":44,"beat":3.25,"subject_pos":-1,"motif":"","motif_pos":-1,"best_pos":5,"similarity":0.732,"stretto":false,"stretto_voices":0,"combination":[],"aug_dim":"","rhythm_ratio":1.0,"chromatic_density":0.308},{"voice":0,"pitch":67,"start":116.3332,"duration":0.1667,"velocity":127,"measure":44,"beat":3.5,"subject_pos":-1,"motif":"","motif_pos":-1,"best_pos":5,"similarity":0.514,"stretto":false,"stretto_voices":0,"combination":[],"aug_dim":"","rhythm_ratio":1.0,"chromatic_density":0.308},{"voice":1,"pitch":52,"start":116.3332,"duration":0.1667,"velocity":127,"measure":44,"beat":3.5,"subject_pos":-1,"motif":"head_inv","motif_pos":0,"best_pos":0,"similarity":1.0,"stretto":false,"stretto_voices":0,"combination":[],"aug_dim":"","rhythm_ratio":1.0,"chromatic_density":0.308},{"voice":0,"pitch":69,"start":116.4999,"duration":0.1667,"velocity":127,"measure":44,"beat":3.75,"subject_pos":-1,"motif":"","motif_pos":-1,"best_pos":6,"similarity":0.421,"stretto":false,"stretto_voices":0,"combination":[],"aug_dim":"","rhythm_ratio":1.0,"chromatic_density":0.308},{"voice":1,"pitch":45,"start":116.4999,"duration":0.1667,"velocity":127,"measure":44,"beat":3.75,"subject_pos":-1,"motif":"head_inv","motif_pos":1,"best_pos":1,"similarity":1.0,"stretto":false,"stretto_voices":0,"combination":[],"aug_dim":"","rhythm_ratio":1.0,"chromatic_density":0.308},{"voice":0,"pitch":67,"start":116.6666,"duration":0.1667,"velocity":127,"measure":44,"beat":4.0,"subject_pos":-1,"motif":"","motif_pos":-1,"best_pos":5,"similarity":0.471,"stretto":false,"stretto_voices":0,"combination":[],"aug_dim":"","rhythm_ratio":1.0,"chromatic_density":0.308},{"voice":1,"pitch":47,"start":116.6666,"duration":0.1667,"velocity":127,"measure":44,"beat":4.0,"subject_pos":-1,"motif":"head_inv","motif_pos":2,"best_pos":2,"similarity":1.0,"stretto":false,"stretto_voices":0,"combination":[],"aug_dim":"","rhythm_ratio":1.0,"chromatic_density":0.308},{"voice":0,"pitch":69,"start":116.8332,"duration":0.1667,"velocity":127,"measure":44,"beat":4.25,"subject_pos":-1,"motif":"","motif_pos":-1,"best_pos":6,"similarity":0.593,"stretto":false,"stretto_voices":0,"combination":[],"aug_dim":"","rhythm_ratio":1.0,"chromatic_density":0.308},{"voice":1,"pitch":49,"start":116.8332,"duration":0.1667,"velocity":127,"measure":44,"beat":4.25,"subject_pos":-1,"motif":"head_inv","motif_pos":3,"best_pos":3,"similarity":1.0,"stretto":false,"stretto_voices":0,"combination":[],"aug_dim":"","rhythm_ratio":1.0,"chromatic_density":0.308},{"voice":0,"pitch":70,"start":116.9999,"duration":0.3333,"velocity":127,"measure":44,"beat":4.5,"subject_pos":-1,"motif":"","motif_pos":-1,"best_pos":7,"similarity":0.436,"stretto":false,"stretto_voices":0,"combination":[],"aug_dim":"","rhythm_ratio":1.0,"chromatic_density":0.308},{"voice":1,"pitch":50,"start":116.9999,"duration":0.1667,"velocity":127,"measure":44,"beat":4.5,"subject_pos":-1,"motif":"head_inv","motif_pos":4,"best_pos":4,"similarity":1.0,"stretto":false,"stretto_voices":0,"combination":[],"aug_dim":"","rhythm_ratio":1.0,"chromatic_density":0.308},{"voice":1,"pitch":43,"start":117.1665,"duration":0.1667,"velocity":127,"measure":44,"beat":4.75,"subject_pos":-1,"motif":"","motif_pos":-1,"best_pos":5,"similarity":0.25,"stretto":false,"stretto_voices":0,"combination":[],"aug_dim":"","rhythm_ratio":1.0,"chromatic_density":0.308},{"voice":1,"pitch":46,"start":117.3332,"duration":0.1667,"velocity":127,"measure":45,"beat":1.0,"subject_pos":-1,"motif":"","motif_pos":-1,"best_pos":5,"similarity":0.364,"stretto":false,"stretto_voices":0,"combination":[],"aug_dim":"","rhythm_ratio":1.0,"chromatic_density":0.25},{"voice":0,"pitch":69,"start":117.4999,"duration":0.3333,"velocity":127,"measure":45,"beat":1.25,"subject_pos":-1,"motif":"","motif_pos":-1,"best_pos":2,"similarity":0.379,"stretto":false,"stretto_voices":0,"combination":[],"aug_dim":"","rhythm_ratio":1.0,"chromatic_density":0.25},{"voice":1,"pitch":48,"start":117.4999,"duration":0.1667,"velocity":127,"measure":45,"beat":1.25,"subject_pos":-1,"motif":"","motif_pos":-1,"best_pos":6,"similarity":0.321,"stretto":false,"stretto_voices":0,"combination":[],"aug_dim":"","rhythm_ratio":1.0,"chromatic_density":0.25},{"voice":1,"pitch":41,"start":117.6665,"duration":0.1667,"velocity":127,"measure":45,"beat":1.5,"subject_pos":-1,"motif":"","motif_pos":-1,"best_pos":5,"similarity":0.229,"stretto":false,"stretto_voices":0,"combination":[],"aug_dim":"","rhythm_ratio":1.0,"chromatic_density":0.25},{"voice":1,"pitch":45,"start":117.8332,"duration":0.1667,"velocity":127,"measure":45,"beat":1.75,"subject_pos":-1,"motif":"enigmatic_cell","motif_pos":0,"best_pos":0,"similarity":1.0,"stretto":false,"stretto_voices":0,"combination":[],"aug_dim":"","rhythm_ratio":1.0,"chromatic_density":0.25},{"voice":0,"pitch":67,"start":117.9999,"duration":0.3333,"velocity":127,"measure":45,"beat":2.0,"subject_pos":-1,"motif":"","motif_pos":-1,"best_pos":2,"similarity":0.404,"stretto":false,"stretto_voices":0,"combination":[],"aug_dim":"","rhythm_ratio":1.0,"chromatic_density":0.25},{"voice":1,"pitch":46,"start":117.9999,"duration":0.1667,"velocity":127,"measure":45,"beat":2.0,"subject_pos":-1,"motif":"enigmatic_cell","motif_pos":1,"best_pos":1,"similarity":1.0,"stretto":false,"stretto_voices":0,"combination":[],"aug_dim":"","rhythm_ratio":1.0,"chromatic_density":0.25},{"voice":1,"pitch":40,"start":118.1665,"duration":0.1667,"velocity":127,"measure":45,"beat":2.25,"subject_pos":-1,"motif":"enigmatic_cell","motif_pos":2,"best_pos":2,"similarity":1.0,"stretto":false,"stretto_voices":0,"combination":[],"aug_dim":"","rhythm_ratio":1.0,"chromatic_density":0.25},{"voice":1,"pitch":43,"start":118.3332,"duration":0.1667,"velocity":127,"measure":45,"beat":2.5,"subject_pos":-1,"motif":"","motif_pos":-1,"best_pos":5,"similarity":0.364,"stretto":false,"stretto_voices":0,"combination":[],"aug_dim":"","rhythm_ratio":1.0,"chromatic_density":0.25},{"voice":0,"pitch":67,"start":118.4131,"duration":0.3333,"velocity":127,"measure":45,"beat":2.6198,"subject_pos":-1,"motif":"","motif_pos":-1,"best_pos":2,"similarity":0.429,"stretto":false,"stretto_voices":0,"combination":[],"aug_dim":"","rhythm_ratio":1.0,"chromatic_density":0.25},{"voice":0,"pitch":65,"start":118.4999,"duration":0.8333,"velocity":127,"measure":45,"beat":2.75,"subject_pos":-1,"motif":"","motif_pos":-1,"best_pos":3,"similarity":0.679,"stretto":false,"stretto_voices":0,"combination":[],"aug_dim":"","rhythm_ratio":1.0,"chromatic_density":0.25},{"voice":1,"pitch":45,"start":118.4999,"duration":0.1667,"velocity":127,"measure":45,"beat":2.75,"subject_pos":-1,"motif":"","motif_pos":-1,"best_pos":6,"similarity":0.321,"stretto":false,"stretto_voices":0,"combination":[],"aug_dim":"","rhythm_ratio":1.0,"chromatic_density":0.25},{"voice":1,"pitch":57,"start":118.6665,"duration":0.1667,"velocity":127,"measure":45,"beat":3.0,"subject_pos":-1,"motif":"","motif_pos":-1,"best_pos":1,"similarity":0.357,"stretto":false,"stretto_voices":0,"combination":[],"aug_dim":"","rhythm_ratio":1.0,"chromatic_density":0.25},{"voice":1,"pitch":55,"start":118.8332,"duration":0.1667,"velocity":127,"measure":45,"beat":3.25,"subject_pos":-1,"motif":"","motif_pos":-1,"best_pos":2,"similarity":0.436,"stretto":false,"stretto_voices":0,"combination":[],"aug_dim":"","rhythm_ratio":1.0,"chromatic_density":0.25},{"voice":1,"pitch":53,"start":118.9999,"duration":0.1667,"velocity":127,"measure":45,"beat":3.5,"subject_pos":-1,"motif":"","motif_pos":-1,"best_pos":2,"similarity":0.364,"stretto":false,"stretto_voices":0,"combination":[],"aug_dim":"","rhythm_ratio":1.0,"chromatic_density":0.25},{"voice":1,"pitch":62,"start":119.1665,"duration":0.1667,"velocity":127,"measure":45,"beat":3.75,"subject_pos":-1,"motif":"","motif_pos":-1,"best_pos":1,"similarity":0.5,"stretto":false,"stretto_voices":0,"combination":[],"aug_dim":"","rhythm_ratio":1.0,"chromatic_density":0.25},{"voice":0,"pitch":64,"start":119.3332,"duration":0.1667,"velocity":127,"measure":45,"beat":4.0,"subject_pos":-1,"motif":"","motif_pos":-1,"best_pos":4,"similarity":0.839,"stretto":false,"stretto_voices":0,"combination":[],"aug_dim":"","rhythm_ratio":1.0,"chromatic_density":0.25},{"voice":1,"pitch":60,"start":119.3332,"duration":0.1667,"velocity":127,"measure":45,"beat":4.0,"subject_pos":-1,"motif":"","motif_pos":-1,"best_pos":2,"similarity":0.679,"stretto":false,"stretto_voices":0,"combination":[],"aug_dim":"","rhythm_ratio":1.0,"chromatic_density":0.25},{"voice":0,"pitch":65,"start":119.4999,"duration":0.3333,"velocity":127,"measure":45,"beat":4.25,"subject_pos":-1,"motif":"","motif_pos":-1,"best_pos":5,"similarity":0.821,"stretto":false,"stretto_voices":0,"combination":[],"aug_dim":"","rhythm_ratio":1.0,"chromatic_density":0.25},{"voice":1,"pitch":58,"start":119.4999,"duration":0.1667,"velocity":127,"measure":45,"beat":4.25,"subject_pos":-1,"motif":"","motif_pos":-1,"best_pos":3,"similarity":0.739,"stretto":false,"stretto_voices":0,"combination":[],"aug_dim":"","rhythm_ratio":1.0,"chromatic_density":0.25},{"voice":1,"pitch":57,"start":119.6665,"duration":0.1667,"velocity":127,"measure":45,"beat":4.5,"subject_pos":-1,"motif":"","motif_pos":-1,"best_pos":4,"similarity":0.729,"stretto":false,"stretto_voices":0,"combination":[],"aug_dim":"","rhythm_ratio":1.0,"chromatic_density":0.25},{"voice":0,"pitch":67,"start":119.8332,"duration":0.1667,"velocity":127,"measure":45,"beat":4.75,"subject_pos":-1,"motif":"","motif_pos":-1,"best_pos":6,"similarity":0.643,"stretto":false,"stretto_voices":0,"combination":[],"aug_dim":"","rhythm_ratio":1.0,"chromatic_density":0.25},{"voice":1,"pitch":58,"start":119.8332,"duration":0.1667,"velocity":127,"measure":45,"beat":4.75,"subject_pos":-1,"motif":"","motif_pos":-1,"best_pos":5,"similarity":0.493,"stretto":false,"stretto_voices":0,"combination":[],"aug_dim":"","rhythm_ratio":1.0,"chromatic_density":0.25},{"voice":0,"pitch":69,"start":119.9999,"duration":0.3333,"velocity":127,"measure":46,"beat":1.0,"subject_pos":-1,"motif":"","motif_pos":-1,"best_pos":6,"similarity":0.375,"stretto":false,"stretto_voices":0,"combination":[],"aug_dim":"","rhythm_ratio":1.0,"chromatic_density":0.304},{"voice":1,"pitch":57,"start":119.9999,"duration":0.5,"velocity":127,"measure":46,"beat":1.0,"subject_pos":-1,"motif":"","motif_pos":-1,"best_pos":4,"similarity":0.421,"stretto":false,"stretto_voices":0,"combination":[],"aug_dim":"","rhythm_ratio":1.0,"chromatic_density":0.304},{"voice":0,"pitch":79,"start":120.3332,"duration":0.1667,"velocity":127,"measure":46,"beat":1.5,"subject_pos":-1,"motif":"","motif_pos":-1,"best_pos":1,"similarity":0.35,"stretto":false,"stretto_voices":0,"combination":[],"aug_dim":"","rhythm_ratio":1.0,"chromatic_density":0.304},{"voice":0,"pitch":77,"start":120.4999,"duration":0.3333,"velocity":127,"measure":46,"beat":1.75,"subject_pos":-1,"motif":"","motif_pos":-1,"best_pos":2,"similarity":0.371,"stretto":false,"stretto_voices":0,"combination":[],"aug_dim":"","rhythm_ratio":1.0,"chromatic_density":0.304},{"voice":1,"pitch":50,"start":120.4999,"duration":0.1667,"velocity":127,"measure":46,"beat":1.75,"subject_pos":-1,"motif":"","motif_pos":-1,"best_pos":3,"similarity":0.607,"stretto":false,"stretto_voices":0,"combination":[],"aug_dim":"","rhythm_ratio":1.0,"chromatic_density":0.304},{"voice":1,"pitch":49,"start":120.6665,"duration":0.1667,"velocity":127,"measure":46,"beat":2.0,"subject_pos":-1,"motif":"","motif_pos":-1,"best_pos":4,"similarity":0.771,"stretto":false,"stretto_voices":0,"combination":[],"aug_dim":"","rhythm_ratio":1.0,"chromatic_density":0.304},{"voice":0,"pitch":69,"start":120.8332,"duration":0.1667,"velocity":127,"measure":46,"beat":2.25,"subject_pos":-1,"motif":"","motif_pos":-1,"best_pos":1,"similarity":0.321,"stretto":false,"stretto_voices":0,"combination":[],"aug_dim":"","rhythm_ratio":1.0,"chromatic_density":0.304},{"voice":1,"pitch":50,"start":120.8332,"duration":0.1667,"velocity":127,"measure":46,"beat":2.25,"subject_pos":-1,"motif":"","motif_pos":-1,"best_pos":5,"similarity":0.736,"stretto":false,"stretto_voices":0,"combination":[],"aug_dim":"","rhythm_ratio":1.0,"chromatic_density":0.304},{"voice":0,"pitch":67,"start":120.9999,"duration":0.3333,"velocity":127,"measure":46,"beat":2.5,"subject_pos":-1,"motif":"","motif_pos":-1,"best_pos":2,"similarity":0.357,"stretto":false,"stretto_voices":0,"combination":[],"aug_dim":"","rhythm_ratio":1.0,"chromatic_density":0.304},{"voice":1,"pitch":52,"start":120.9999,"duration":0.1667,"velocity":127,"measure":46,"beat":2.5,"subject_pos":-1,"motif":"","motif_pos":-1,"best_pos":6,"similarity":0.529,"stretto":false,"stretto_voices":0,"combination":[],"aug_dim":"","rhythm_ratio":1.0,"chromatic_density":0.304},{"voice":1,"pitch":50,"start":121.1665,"duration":0.1667,"velocity":127,"measure":46,"beat":2.75,"subject_pos":-1,"motif":"","motif_pos":-1,"best_pos":5,"similarity":0.479,"stretto":false,"stretto_voices":0,"combination":[],"aug_dim":"","rhythm_ratio":1.0,"chromatic_density":0.304},{"voice":0,"pitch":76,"start":121.3332,"duration":0.1667,"velocity":127,"measure":46,"beat":3.0,"subject_pos":-1,"motif":"","motif_pos":-1,"best_pos":1,"similarity":0.429,"stretto":false,"stretto_voices":0,"combination":[],"aug_dim":"","rhythm_ratio":1.0,"chromatic_density":0.304},{"voice":1,"pitch":52,"start":121.3332,"duration":0.1667,"velocity":127,"measure":46,"beat":3.0,"subject_pos":-1,"motif":"","motif_pos":-1,"best_pos":6,"similarity":0.593,"stretto":false,"stretto_voices":0,"combination":[],"aug_dim":"","rhythm_ratio":1.0,"chromatic_density":0.304},{"voice":0,"pitch":74,"start":121.4999,"duration":0.3333,"velocity":127,"measure":46,"beat":3.25,"subject_pos":-1,"motif":"","motif_pos":-1,"best_pos":2,"similarity":0.464,"stretto":false,"stretto_voices":0,"combination":[],"aug_dim":"","rhythm_ratio":1.0,"chromatic_density":0.304},{"voice":1,"pitch":53,"start":121.4999,"duration":0.1667,"velocity":127,"measure":46,"beat":3.25,"subject_pos":-1,"motif":"","motif_pos":-1,"best_pos":3,"similarity":0.543,"stretto":false,"stretto_voices":0,"combination":[],"aug_dim":"","rhythm_ratio":1.0,"chromatic_density":0.304},{"voice":1,"pitch":52,"start":121.6665,"duration":0.1667,"velocity":127,"measure":46,"beat":3.5,"subject_pos":-1,"motif":"","motif_pos":-1,"best_pos":4,"similarity":0.743,"stretto":false,"stretto_voices":0,"combination":[],"aug_dim":"","rhythm_ratio":1.0,"chromatic_density":0.304},{"voice":0,"pitch":65,"start":121.8332,"duration":0.1667,"velocity":127,"measure":46,"beat":3.75,"subject_pos":-1,"motif":"","motif_pos":-1,"best_pos":3,"similarity":0.454,"stretto":false,"stretto_voices":0,"combination":[],"aug_dim":"","rhythm_ratio":1.0,"chromatic_density":0.304},{"voice":1,"pitch":53,"start":121.8332,"duration":0.1667,"velocity":127,"measure":46,"beat":3.75,"subject_pos":-1,"motif":"","motif_pos":-1,"best_pos":5,"similarity":0.736,"stretto":false,"stretto_voices":0,"combination":[],"aug_dim":"","rhythm_ratio":1.0,"chromatic_density":0.304},{"voice":0,"pitch":64,"start":121.9999,"duration":0.3333,"velocity":127,"measure":46,"beat":4.0,"subject_pos":-1,"motif":"","motif_pos":-1,"best_pos":4,"similarity":0.371,"stretto":false,"stretto_voices":0,"combination":[],"aug_dim":"","rhythm_ratio":1.0,"chromatic_density":0.304},{"voice":1,"pitch":55,"start":121.9999,"duration":0.1667,"velocity":127,"measure":46,"beat":4.0,"subject_pos":-1,"motif":"","motif_pos":-1,"best_pos":6,"similarity":0.529,"stretto":false,"stretto_voices":0,"combination":[],"aug_dim":"","rhythm_ratio":1.0,"chromatic_density":0.304},{"voice":1,"pitch":53,"start":122.1665,"duration":0.1667,"velocity":127,"measure":46,"beat":4.25,"subject_pos":-1,"motif":"","motif_pos":-1,"best_pos":4,"similarity":0.443,"stretto":false,"stretto_voices":0,"combination":[],"aug_dim":"","rhythm_ratio":1.0,"chromatic_density":0.304},{"voice":0,"pitch":74,"start":122.3332,"duration":0.1667,"velocity":127,"measure":46,"beat":4.5,"subject_pos":-1,"motif":"","motif_pos":-1,"best_pos":3,"similarity":0.375,"stretto":false,"stretto_voices":0,"combination":[],"aug_dim":"","rhythm_ratio":1.0,"chromatic_density":0.304},{"voice":1,"pitch":55,"start":122.3332,"duration":0.1667,"velocity":127,"measure":46,"beat":4.5,"subject_pos":-1,"motif":"","motif_pos":-1,"best_pos":5,"similarity":0.514,"stretto":false,"stretto_voices":0,"combination":[],"aug_dim":"","rhythm_ratio":1.0,"chromatic_density":0.304},{"voice":0,"pitch":73,"start":122.4999,"duration":0.3333,"velocity":127,"measure":46,"beat":4.75,"subject_pos":-1,"motif":"","motif_pos":-1,"best_pos":4,"similarity":0.364,"stretto":false,"stretto_voices":0,"combination":[],"aug_dim":"","rhythm_ratio":1.0,"chromatic_density":0.304},{"voice":1,"pitch":57,"start":122.4999,"duration":0.1667,"velocity":127,"measure":46,"beat":4.75,"subject_pos":-1,"motif":"","motif_pos":-1,"best_pos":6,"similarity":0.421,"stretto":false,"stretto_voices":0,"combination":[],"aug_dim":"","rhythm_ratio":1.0,"chromatic_density":0.304},{"voice":1,"pitch":55,"start":122.6665,"duration":0.1667,"velocity":127,"measure":47,"beat":1.0,"subject_pos":-1,"motif":"","motif_pos":-1,"best_pos":5,"similarity":0.471,"stretto":false,"stretto_voices":0,"combination":[],"aug_dim":"","rhythm_ratio":1.0,"chromatic_density":0.412},{"voice":0,"pitch":64,"start":122.8332,"duration":0.1667,"velocity":127,"measure":47,"beat":1.25,"subject_pos":-1,"motif":"","motif_pos":-1,"best_pos":3,"similarity":0.243,"stretto":false,"stretto_voices":0,"combination":[],"aug_dim":"","rhythm_ratio":1.0,"chromatic_density":0.412},{"voice":1,"pitch":57,"start":122.8332,"duration":0.1667,"velocity":127,"measure":47,"beat":1.25,"subject_pos":-1,"motif":"","motif_pos":-1,"best_pos":6,"similarity":0.593,"stretto":false,"stretto_voices":0,"combination":[],"aug_dim":"","rhythm_ratio":1.0,"chromatic_density":0.412},{"voice":0,"pitch":64,"start":122.9999,"duration":0.1667,"velocity":127,"measure":47,"beat":1.5,"subject_pos":-1,"motif":"","motif_pos":-1,"best_pos":2,"similarity":0.429,"stretto":false,"stretto_voices":0,"combination":[],"aug_dim":"","rhythm_ratio":1.0,"chromatic_density":0.412},{"voice":1,"pitch":58,"start":122.9999,"duration":0.3333,"velocity":127,"measure":47,"beat":1.5,"subject_pos":-1,"motif":"","motif_pos":-1,"best_pos":7,"similarity":0.436,"stretto":false,"stretto_voices":0,"combination":[],"aug_dim":"","rhythm_ratio":1.0,"chromatic_density":0.412},{"voice":0,"pitch":62,"start":123.1665,"duration":0.1667,"velocity":127,"measure":47,"beat":1.75,"subject_pos":-1,"motif":"tail","motif_pos":3,"best_pos":3,"similarity":1.0,"stretto":false,"stretto_voices":0,"combination":[],"aug_dim":"","rhythm_ratio":1.0,"chromatic_density":0.412},{"voice":0,"pitch":61,"start":123.3332,"duration":0.1667,"velocity":127,"measure":47,"beat":2.0,"subject_pos":-1,"motif":"tail","motif_pos":4,"best_pos":4,"similarity":1.0,"stretto":false,"stretto_voices":0,"combination":[],"aug_dim":"","rhythm_ratio":1.0,"chromatic_density":0.412},{"voice":0,"pitch":62,"start":123.4999,"duration":0.1667,"velocity":127,"measure":47,"beat":2.25,"subject_pos":-1,"motif":"tail","motif_pos":5,"best_pos":5,"similarity":1.0,"stretto":false,"stretto_voices":0,"combination":[],"aug_dim":"","rhythm_ratio":1.0,"chromatic_density":0.412},{"voice":1,"pitch":57,"start":123.4999,"duration":0.3333,"velocity":127,"measure":47,"beat":2.25,"subject_pos":-1,"motif":"","motif_pos":-1,"best_pos":2,"similarity":0.379,"stretto":false,"stretto_voices":0,"combination":[],"aug_dim":"","rhythm_ratio":1.0,"chromatic_density":0.412},{"voice":0,"pitch":64,"start":123.6665,"duration":0.1667,"velocity":127,"measure":47,"beat":2.5,"subject_pos":-1,"motif":"tail","motif_pos":6,"best_pos":6,"similarity":1.0,"stretto":false,"stretto_voices":0,"combination":[],"aug_dim":"","rhythm_ratio":1.0,"chromatic_density":0.412},{"voice":0,"pitch":65,"start":123.8332,"duration":0.1667,"velocity":127,"measure":47,"beat":2.75,"subject_pos":-1,"motif":"tail","motif_pos":7,"best_pos":7,"similarity":1.0,"stretto":false,"stretto_voices":0,"combination":[],"aug_dim":"","rhythm_ratio":1.0,"chromatic_density":0.412},{"voice":0,"pitch":67,"start":123.9999,"duration":0.1667,"velocity":127,"measure":47,"beat":3.0,"subject_pos":-1,"motif":"","motif_pos":-1,"best_pos":5,"similarity":0.607,"stretto":false,"stretto_voices":0,"combination":[],"aug_dim":"","rhythm_ratio":1.0,"chromatic_density":0.412},{"voice":1,"pitch":55,"start":123.9999,"duration":0.3333,"velocity":127,"measure":47,"beat":3.0,"subject_pos":-1,"motif":"","motif_pos":-1,"best_pos":2,"similarity":0.404,"stretto":false,"stretto_voices":0,"combination":[],"aug_dim":"","rhythm_ratio":1.0,"chromatic_density":0.412},{"voice":0,"pitch":69,"start":124.1665,"duration":0.1667,"velocity":127,"measure":47,"beat":3.25,"subject_pos":-1,"motif":"","motif_pos":-1,"best_pos":6,"similarity":0.661,"stretto":false,"stretto_voices":0,"combination":[],"aug_dim":"","rhythm_ratio":1.0,"chromatic_density":0.412},{"voice":0,"pitch":70,"start":124.3332,"duration":0.1667,"velocity":127,"measure":47,"beat":3.5,"subject_pos":-1,"motif":"","motif_pos":-1,"best_pos":7,"similarity":0.464,"stretto":false,"stretto_voices":0,"combination":[],"aug_dim":"","rhythm_ratio":1.0,"chromatic_density":0.412},{"voice":1,"pitch":55,"start":124.4131,"duration":0.3333,"velocity":127,"measure":47,"beat":3.6198,"subject_pos":-1,"motif":"","motif_pos":-1,"best_pos":2,"similarity":0.429,"stretto":false,"stretto_voices":0,"combination":[],"aug_dim":"","rhythm_ratio":1.0,"chromatic_density":0.412},{"voice":0,"pitch":70,"start":124.4999,"duration":0.1667,"velocity":127,"measure":47,"beat":3.75,"subject_pos":-1,"motif":"","motif_pos":-1,"best_pos":3,"similarity":0.421,"stretto":false,"stretto_voices":0,"combination":[],"aug_dim":"","rhythm_ratio":1.0,"chromatic_density":0.412},{"voice":1,"pitch":53,"start":124.4999,"duration":0.8333,"velocity":127,"measure":47,"beat":3.75,"subject_pos":-1,"motif":"","motif_pos":-1,"best_pos":3,"similarity":0.679,"stretto":false,"stretto_voices":0,"combination":[],"aug_dim":"","rhythm_ratio":1.0,"chromatic_density":0.412},{"voice":0,"pitch":69,"start":124.6665,"duration":0.1667,"velocity":127,"measure":47,"beat":4.0,"subject_pos":-1,"motif":"","motif_pos":-1,"best_pos":4,"similarity":0.514,"stretto":false,"stretto_voices":0,"combination":[],"aug_dim":"","rhythm_ratio":1.0,"chromatic_density":0.412},{"voice":0,"pitch":67,"start":124.8332,"duration":0.1667,"velocity":127,"measure":47,"beat":4.25,"subject_pos":-1,"motif":"","motif_pos":-1,"best_pos":5,"similarity":0.536,"stretto":false,"stretto_voices":0,"combination":[],"aug_dim":"","rhythm_ratio":1.0,"chromatic_density":0.412},{"voice":0,"pitch":69,"start":124.9999,"duration":0.1667,"velocity":127,"measure":47,"beat":4.5,"subject_pos":-1,"motif":"","motif_pos":-1,"best_pos":5,"similarity":0.589,"stretto":false,"stretto_voices":0,"combination":[],"aug_dim":"","rhythm_ratio":1.0,"chromatic_density":0.412},{"voice":0,"pitch":71,"start":125.1665,"duration":0.1667,"velocity":127,"measure":47,"beat":4.75,"subject_pos":-1,"motif":"","motif_pos":-1,"best_pos":5,"similarity":0.621,"stretto":false,"stretto_voices":0,"combination":[],"aug_dim":"","rhythm_ratio":1.0,"chromatic_density":0.412},{"voice":0,"pitch":73,"start":125.3332,"duration":0.1667,"velocity":127,"measure":48,"beat":1.0,"subject_pos":-1,"motif":"","motif_pos":-1,"best_pos":6,"similarity":0.65,"stretto":false,"stretto_voices":0,"combination":[],"aug_dim":"","rhythm_ratio":1.0,"chromatic_density":0.286},{"voice":1,"pitch":52,"start":125.3332,"duration":0.1667,"velocity":127,"measure":48,"beat":1.0,"subject_pos":-1,"motif":"","motif_pos":-1,"best_pos":4,"similarity":0.839,"stretto":false,"stretto_voices":0,"combination":[],"aug_dim":"","rhythm_ratio":1.0,"chromatic_density":0.286},{"voice":0,"pitch":74,"start":125.4999,"duration":0.1667,"velocity":127,"measure":48,"beat":1.25,"subject_pos":-1,"motif":"","motif_pos":-1,"best_pos":5,"similarity":0.729,"stretto":false,"stretto_voices":0,"combination":[],"aug_dim":"","rhythm_ratio":1.0,"chromatic_density":0.286},{"voice":1,"pitch":53,"start":125.4999,"duration":0.3333,"velocity":127,"measure":48,"beat":1.25,"subject_pos":-1,"motif":"","motif_pos":-1,"best_pos":5,"similarity":0.821,"stretto":false,"stretto_voices":0,"combination":[],"aug_dim":"","rhythm_ratio":1.0,"chromatic_density":0.286},{"voice":0,"pitch":76,"start":125.6665,"duration":0.1667,"velocity":127,"measure":48,"beat":1.5,"subject_pos":-1,"motif":"","motif_pos":-1,"best_pos":6,"similarity":0.721,"stretto":false,"stretto_voices":0,"combination":[],"aug_dim":"","rhythm_ratio":1.0,"chromatic_density":0.286},{"voice":0,"pitch":77,"start":125.8332,"duration":0.1667,"velocity":127,"measure":48,"beat":1.75,"subject_pos":-1,"motif":"","motif_pos":-1,"best_pos":7,"similarity":0.5,"stretto":false,"stretto_voices":0,"combination":[],"aug_dim":"","rhythm_ratio":1.0,"chromatic_density":0.286},{"voice":1,"pitch":55,"start":125.8332,"duration":0.1667,"velocity":127,"measure":48,"beat":1.75,"subject_pos":-1,"motif":"","motif_pos":-1,"best_pos":6,"similarity":0.643,"stretto":false,"stretto_voices":0,"combination":[],"aug_dim":"","rhythm_ratio":1.0,"chromatic_density":0.286},{"voice":0,"pitch":77,"start":125.9999,"duration":0.1667,"velocity":127,"measure":48,"beat":2.0,"subject_pos":-1,"motif":"","motif_pos":-1,"best_pos":2,"similarity":0.421,"stretto":false,"stretto_voices":0,"combination":[],"aug_dim":"","rhythm_ratio":1.0,"chromatic_density":0.286},{"voice":1,"pitch":57,"start":125.9999,"duration":0.3333,"velocity":127,"measure":48,"beat":2.0,"subject_pos":-1,"motif":"","motif_pos":-1,"best_pos":6,"similarity":0.375,"stretto":false,"stretto_voices":0,"combination":[],"aug_dim":"","rhythm_ratio":1.0,"chromatic_density":0.286},{"voice":0,"pitch":74,"start":126.1665,"duration":0.1667,"velocity":127,"measure":48,"beat":2.25,"subject_pos":-1,"motif":"","motif_pos":-1,"best_pos":5,"similarity":0.464,"stretto":false,"stretto_voices":0,"combination":[],"aug_dim":"","rhythm_ratio":1.0,"chromatic_density":0.286},{"voice":0,"pitch":76,"start":126.3332,"duration":0.1667,"velocity":127,"measure":48,"beat":2.5,"subject_pos":-1,"motif":"","motif_pos":-1,"best_pos":6,"similarity":0.479,"stretto":false,"stretto_voices":0,"combination":[],"aug_dim":"","rhythm_ratio":1.0,"chromatic_density":0.286},{"voice":1,"pitch":67,"start":126.3332,"duration":0.1667,"velocity":127,"measure":48,"beat":2.5,"subject_pos":-1,"motif":"","motif_pos":-1,"best_pos":1,"similarity":0.35,"stretto":false,"stretto_voices":0,"combination":[],"aug_dim":"","rhythm_ratio":1.0,"chromatic_density":0.286},{"voice":0,"pitch":76,"start":126.4999,"duration":0.1667,"velocity":127,"measure":48,"beat":2.75,"subject_pos":-1,"motif":"","motif_pos":-1,"best_pos":2,"similarity":0.443,"stretto":false,"stretto_voices":0,"combination":[],"aug_dim":"","rhythm_ratio":1.0,"chromatic_density":0.286},{"voice":1,"pitch":65,"start":126.4999,"duration":0.3333,"velocity":127,"measure":48,"beat":2.75,"subject_pos":-1,"motif":"","motif_pos":-1,"best_pos":2,"similarity":0.371,"stretto":false,"stretto_voices":0,"combination":[],"aug_dim":"","rhythm_ratio":1.0,"chromatic_density":0.286},{"voice":0,"pitch":73,"start":126.6665,"duration":0.1667,"velocity":127,"measure":48,"beat":3.0,"subject_pos":-1,"motif":"","motif_pos":-1,"best_pos":3,"similarity":0.471,"stretto":false,"stretto_voices":0,"combination":[],"aug_dim":"","rhythm_ratio":1.0,"chromatic_density":0.286},{"voice":0,"pitch":74,"start":126.8332,"duration":0.1667,"velocity":127,"measure":48,"beat":3.25,"subject_pos":-1,"motif":"","motif_pos":-1,"best_pos":4,"similarity":0.446,"stretto":false,"stretto_voices":0,"combination":[],"aug_dim":"","rhythm_ratio":1.0,"chromatic_density":0.286},{"voice":1,"pitch":57,"start":126.8332,"duration":0.1667,"velocity":127,"measure":48,"beat":3.25,"subject_pos":-1,"motif":"","motif_pos":-1,"best_pos":1,"similarity":0.321,"stretto":false,"stretto_voices":0,"combination":[],"aug_dim":"","rhythm_ratio":1.0,"chromatic_density":0.286},{"voice":0,"pitch":74,"start":126.9999,"duration":0.1667,"velocity":127,"measure":48,"beat":3.5,"subject_pos":-1,"motif":"","motif_pos":-1,"best_pos":2,"similarity":0.443,"stretto":false,"stretto_voices":0,"combination":[],"aug_dim":"","rhythm_ratio":1.0,"chromatic_density":0.286},{"voice":1,"pitch":55,"start":126.9999,"duration":0.3333,"velocity":127,"measure":48,"beat":3.5,"subject_pos":-1,"motif":"","motif_pos":-1,"best_pos":2,"similarity":0.357,"stretto":false,"stretto_voices":0,"combination":[],"aug_dim":"","rhythm_ratio":1.0,"chromatic_density":0.286},{"voice":0,"pitch":71,"start":127.1665,"duration":0.1667,"velocity":127,"measure":48,"beat":3.75,"subject_pos":-1,"motif":"","motif_pos":-1,"best_pos":3,"similarity":0.471,"stretto":false,"stretto_voices":0,"combination":[],"aug_dim":"","rhythm_ratio":1.0,"chromatic_density":0.286},{"voice":0,"pitch":72,"start":127.3332,"duration":0.1667,"velocity":127,"measure":48,"beat":4.0,"subject_pos":-1,"motif":"","motif_pos":-1,"best_pos":4,"similarity":0.446,"stretto":false,"stretto_voices":0,"combination":[],"aug_dim":"","rhythm_ratio":1.0,"chromatic_density":0.286},{"voice":1,"pitch":64,"start":127.3332,"duration":0.1667,"velocity":127,"measure":48,"beat":4.0,"subject_pos":-1,"motif":"","motif_pos":-1,"best_pos":1,"similarity":0.429,"stretto":false,"stretto_voices":0,"combination":[],"aug_dim":"","rhythm_ratio":1.0,"chromatic_density":0.286},{"voice":0,"pitch":72,"start":127.4999,"duration":0.1667,"velocity":127,"measure":48,"beat":4.25,"subject_pos":-1,"motif":"","motif_pos":-1,"best_pos":2,"similarity":0.443,"stretto":false,"stretto_voices":0,"combination":[],"aug_dim":"","rhythm_ratio":1.0,"chromatic_density":0.286},{"voice":1,"pitch":62,"start":127.4999,"duration":0.3333,"velocity":127,"measure":48,"beat":4.25,"subject_pos":-1,"motif":"","motif_pos":-1,"best_pos":2,"similarity":0.464,"stretto":false,"stretto_voices":0,"combination":[],"aug_dim":"","rhythm_ratio":1.0,"chromatic_density":0.286},{"voice":0,"pitch":69,"start":127.6665,"duration":0.1667,"velocity":127,"measure":48,"beat":4.5,"subject_pos":-1,"motif":"","motif_pos":-1,"best_pos":3,"similarity":0.471,"stretto":false,"stretto_voices":0,"combination":[],"aug_dim":"","rhythm_ratio":1.0,"chromatic_density":0.286},{"voice":0,"pitch":70,"start":127.8332,"duration":0.1667,"velocity":127,"measure":48,"beat":4.75,"subject_pos":-1,"motif":"","motif_pos":-1,"best_pos":5,"similarity":0.414,"stretto":false,"stretto_voices":0,"combination":[],"aug_dim":"","rhythm_ratio":1.0,"chromatic_density":0.286},{"voice":1,"pitch":53,"start":127.8332,"duration":0.1667,"velocity":127,"measure":48,"beat":4.75,"subject_pos":-1,"motif":"","motif_pos":-1,"best_pos":3,"similarity":0.454,"stretto":false,"stretto_voices":0,"combination":[],"aug_dim":"","rhythm_ratio":1.0,"chromatic_density":0.286},{"voice":0,"pitch":70,"start":127.9999,"duration":0.1667,"velocity":127,"measure":49,"beat":1.0,"subject_pos":-1,"motif":"","motif_pos":-1,"best_pos":2,"similarity":0.421,"stretto":false,"stretto_voices":0,"combination":[],"aug_dim":"","rhythm_ratio":1.0,"chromatic_density":0.348},{"voice":1,"pitch":52,"start":127.9999,"duration":0.3333,"velocity":127,"measure":49,"beat":1.0,"subject_pos":-1,"motif":"","motif_pos":-1,"best_pos":4,"similarity":0.371,"stretto":false,"stretto_voices":0,"combination":[],"aug_dim":"","rhythm_ratio":1.0,"chromatic_density":0.348},{"voice":0,"pitch":67,"start":128.1665,"duration":0.1667,"velocity":127,"measure":49,"beat":1.25,"subject_pos":-1,"motif":"","motif_pos":-1,"best_pos":5,"similarity":0.464,"stretto":false,"stretto_voices":0,"combination":[],"aug_dim":"","rhythm_ratio":1.0,"chromatic_density":0.348},{"voice":0,"pitch":69,"start":128.3332,"duration":0.1667,"velocity":127,"measure":49,"beat":1.5,"subject_pos":-1,"motif":"","motif_pos":-1,"best_pos":6,"similarity":0.479,"stretto":false,"stretto_voices":0,"combination":[],"aug_dim":"","rhythm_ratio":1.0,"chromatic_density":0.348},{"voice":1,"pitch":62,"start":128.3332,"duration":0.1667,"velocity":127,"measure":49,"beat":1.5,"subject_pos":-1,"motif":"","motif_pos":-1,"best_pos":3,"similarity":0.375,"stretto":false,"stretto_voices":0,"combination":[],"aug_dim":"","rhythm_ratio":1.0,"chromatic_density":0.348},{"voice":0,"pitch":69,"start":128.4999,"duration":0.1667,"velocity":127,"measure":49,"beat":1.75,"subject_pos":-1,"motif":"","motif_pos":-1,"best_pos":4,"similarity":0.329,"stretto":false,"stretto_voices":0,"combination":[],"aug_dim":"","rhythm_ratio":1.0,"chromatic_density":0.348},{"voice":1,"pitch":61,"start":128.4999,"duration":0.3333,"velocity":127,"measure":49,"beat":1.75,"subject_pos":-1,"motif":"","motif_pos":-1,"best_pos":4,"similarity":0.364,"stretto":false,"stretto_voices":0,"combination":[],"aug_dim":"","rhythm_ratio":1.0,"chromatic_density":0.348},{"voice":0,"pitch":65,"start":128.6665,"duration":0.1667,"velocity":127,"measure":49,"beat":2.0,"subject_pos":-1,"motif":"","motif_pos":-1,"best_pos":2,"similarity":0.393,"stretto":false,"stretto_voices":0,"combination":[],"aug_dim":"","rhythm_ratio":1.0,"chromatic_density":0.348},{"voice":0,"pitch":67,"start":128.8332,"duration":0.4132,"velocity":127,"measure":49,"beat":2.25,"subject_pos":-1,"motif":"","motif_pos":-1,"best_pos":3,"similarity":0.429,"stretto":false,"stretto_voices":0,"combination":[],"aug_dim":"","rhythm_ratio":1.0,"chromatic_density":0.348},{"voice":1,"pitch":52,"start":128.8332,"duration":0.1667,"velocity":127,"measure":49,"beat":2.25,"subject_pos":-1,"motif":"","motif_pos":-1,"best_pos":3,"similarity":0.243,"stretto":false,"stretto_voices":0,"combination":[],"aug_dim":"","rhythm_ratio":1.0,"chromatic_density":0.348},{"voice":0,"pitch":65,"start":128.9999,"duration":0.6667,"velocity":127,"measure":49,"beat":2.5,"subject_pos":-1,"motif":"","motif_pos":-1,"best_pos":4,"similarity":0.571,"stretto":false,"stretto_voices":0,"combination":[],"aug_dim":"","rhythm_ratio":1.0,"chromatic_density":0.348},{"voice":1,"pitch":52,"start":128.9999,"duration":0.1667,"velocity":127,"measure":49,"beat":2.5,"subject_pos":-1,"motif":"","motif_pos":-1,"best_pos":2,"similarity":0.429,"stretto":false,"stretto_voices":0,"combination":[],"aug_dim":"","rhythm_ratio":1.0,"chromatic_density":0.348},{"voice":1,"pitch":50,"start":129.1665,"duration":0.1667,"velocity":127,"measure":49,"beat":2.75,"subject_pos":-1,"motif":"tail","motif_pos":3,"best_pos":3,"similarity":1.0,"stretto":false,"stretto_voices":0,"combination":[],"aug_dim":"","rhythm_ratio":1.0,"chromatic_density":0.348},{"voice":1,"pitch":49,"start":129.3332,"duration":0.1667,"velocity":127,"measure":49,"beat":3.0,"subject_pos":-1,"motif":"tail","motif_pos":4,"best_pos":4,"similarity":1.0,"stretto":false,"stretto_voices":0,"combination":[],"aug_dim":"","rhythm_ratio":1.0,"chromatic_density":0.348},{"voice":1,"pitch":50,"start":129.4999,"duration":0.1667,"velocity":127,"measure":49,"beat":3.25,"subject_pos":-1,"motif":"tail","motif_pos":5,"best_pos":5,"similarity":1.0,"stretto":false,"stretto_voices":0,"combination":[],"aug_dim":"","rhythm_ratio":1.0,"chromatic_density":0.348},{"voice":0,"pitch":67,"start":129.6665,"duration":0.1667,"velocity":127,"measure":49,"beat":3.5,"subject_pos":-1,"motif":"","motif_pos":-1,"best_pos":5,"similarity":0.643,"stretto":false,"stretto_voices":0,"combination":[],"aug_dim":"","rhythm_ratio":1.0,"chromatic_density":0.348},{"voice":1,"pitch":52,"start":129.6665,"duration":0.1667,"velocity":127,"measure":49,"beat":3.5,"subject_pos":-1,"motif":"tail","motif_pos":6,"best_pos":6,"similarity":1.0,"stretto":false,"stretto_voices":0,"combination":[],"aug_dim":"","rhythm_ratio":1.0,"chromatic_density":0.348},{"voice":0,"pitch":69,"start":129.8332,"duration":0.1667,"velocity":127,"measure":49,"beat":3.75,"subject_pos":-1,"motif":"","motif_pos":-1,"best_pos":6,"similarity":0.679,"stretto":false,"stretto_voices":0,"combination":[],"aug_dim":"","rhythm_ratio":1.0,"chromatic_density":0.348},{"voice":1,"pitch":53,"start":129.8332,"duration":0.1667,"velocity":127,"measure":49,"beat":3.75,"subject_pos":-1,"motif":"tail","motif_pos":7,"best_pos":7,"similarity":1.0,"stretto":false,"stretto_voices":0,"combination":[],"aug_dim":"","rhythm_ratio":1.0,"chromatic_density":0.348},{"voice":0,"pitch":70,"start":129.9999,"duration":0.1667,"velocity":127,"measure":49,"beat":4.0,"subject_pos":-1,"motif":"","motif_pos":-1,"best_pos":7,"similarity":0.464,"stretto":false,"stretto_voices":0,"combination":[],"aug_dim":"","rhythm_ratio":1.0,"chromatic_density":0.348},{"voice":1,"pitch":55,"start":129.9999,"duration":0.1667,"velocity":127,"measure":49,"beat":4.0,"subject_pos":-1,"motif":"","motif_pos":-1,"best_pos":5,"similarity":0.607,"stretto":false,"stretto_voices":0,"combination":[],"aug_dim":"","rhythm_ratio":1.0,"chromatic_density":0.348},{"voice":0,"pitch":69,"start":130.1665,"duration":0.1667,"velocity":127,"measure":49,"beat":4.25,"subject_pos":-1,"motif":"","motif_pos":-1,"best_pos":1,"similarity":0.357,"stretto":false,"stretto_voices":0,"combination":[],"aug_dim":"","rhythm_ratio":1.0,"chromatic_density":0.348},{"voice":1,"pitch":57,"start":130.1665,"duration":0.1667,"velocity":127,"measure":49,"beat":4.25,"subject_pos":-1,"motif":"","motif_pos":-1,"best_pos":6,"similarity":0.661,"stretto":false,"stretto_voices":0,"combination":[],"aug_dim":"","rhythm_ratio":1.0,"chromatic_density":0.348},{"voice":0,"pitch":67,"start":130.3332,"duration":0.1667,"velocity":127,"measure":49,"beat":4.5,"subject_pos":-1,"motif":"","motif_pos":-1,"best_pos":2,"similarity":0.5,"stretto":false,"stretto_voices":0,"combination":[],"aug_dim":"","rhythm_ratio":1.0,"chromatic_density":0.348},{"voice":1,"pitch":58,"start":130.3332,"duration":0.1667,"velocity":127,"measure":49,"beat":4.5,"subject_pos":-1,"motif":"","motif_pos":-1,"best_pos":7,"similarity":0.464,"stretto":false,"stretto_voices":0,"combination":[],"aug_dim":"","rhythm_ratio":1.0,"chromatic_density":0.348},{"voice":0,"pitch":74,"start":130.4131,"duration":0.3333,"velocity":127,"measure":49,"beat":4.6198,"subject_pos":-1,"motif":"tail","motif_pos":3,"best_pos":3,"similarity":1.0,"stretto":false,"stretto_voices":0,"combination":[],"aug_dim":"","rhythm_ratio":1.0,"chromatic_density":0.348},{"voice":0,"pitch":73,"start":130.4999,"duration":0.6667,"velocity":127,"measure":49,"beat":4.75,"subject_pos":-1,"motif":"tail","motif_pos":4,"best_pos":4,"similarity":1.0,"stretto":false,"stretto_voices":0,"combination":[],"aug_dim":"","rhythm_ratio":1.0,"chromatic_density":0.348},{"voice":1,"pitch":58,"start":130.4999,"duration":0.1667,"velocity":127,"measure":49,"beat":4.75,"subject_pos":-1,"motif":"","motif_pos":-1,"best_pos":3,"similarity":0.421,"stretto":false,"stretto_voices":0,"combination":[],"aug_dim":"","rhythm_ratio":1.0,"chromatic_density":0.348},{"voice":1,"pitch":57,"start":130.6665,"duration":0.1667,"velocity":127,"measure":50,"beat":1.0,"subject_pos":-1,"motif":"","motif_pos":-1,"best_pos":4,"similarity":0.514,"stretto":false,"stretto_voices":0,"combination":[],"aug_dim":"","rhythm_ratio":1.0,"chromatic_density":0.294},{"voice":1,"pitch":55,"start":130.8332,"duration":0.1667,"velocity":127,"measure":50,"beat":1.25,"subject_pos":-1,"motif":"","motif_pos":-1,"best_pos":5,"similarity":0.536,"stretto":false,"stretto_voices":0,"combination":[],"aug_dim":"","rhythm_ratio":1.0,"chromatic_density":0.294},{"voice":1,"pitch":57,"start":130.9999,"duration":0.1667,"velocity":127,"measure":50,"beat":1.5,"subject_pos":-1,"motif":"","motif_pos":-1,"best_pos":5,"similarity":0.589,"stretto":false,"stretto_voices":0,"combination":[],"aug_dim":"","rhythm_ratio":1.0,"chromatic_density":0.294},{"voice":0,"pitch":74,"start":131.1665,"duration":0.1667,"velocity":127,"measure":50,"beat":1.75,"subject_pos":-1,"motif":"tail","motif_pos":5,"best_pos":5,"similarity":1.0,"stretto":false,"stretto_voices":0,"combination":[],"aug_dim":"","rhythm_ratio":1.0,"chromatic_density":0.294},{"voice":1,"pitch":59,"start":131.1665,"duration":0.1667,"velocity":127,"measure":50,"beat":1.75,"subject_pos":-1,"motif":"","motif_pos":-1,"best_pos":5,"similarity":0.621,"stretto":false,"stretto_voices":0,"combination":[],"aug_dim":"","rhythm_ratio":1.0,"chromatic_density":0.294},{"voice":0,"pitch":76,"start":131.3332,"duration":0.1667,"velocity":127,"measure":50,"beat":2.0,"subject_pos":-1,"motif":"tail","motif_pos":6,"best_pos":6,"similarity":1.0,"stretto":false,"stretto_voices":0,"combination":[],"aug_dim":"","rhythm_ratio":1.0,"chromatic_density":0.294},{"voice":1,"pitch":61,"start":131.3332,"duration":0.1667,"velocity":127,"measure":50,"beat":2.0,"subject_pos":-1,"motif":"","motif_pos":-1,"best_pos":6,"similarity":0.65,"stretto":false,"stretto_voices":0,"combination":[],"aug_dim":"","rhythm_ratio":1.0,"chromatic_density":0.294},{"voice":0,"pitch":77,"start":131.4999,"duration":0.1667,"velocity":127,"measure":50,"beat":2.25,"subject_pos":-1,"motif":"tail","motif_pos":7,"best_pos":7,"similarity":1.0,"stretto":false,"stretto_voices":0,"combination":[],"aug_dim":"","rhythm_ratio":1.0,"chromatic_density":0.294},{"voice":1,"pitch":62,"start":131.4999,"duration":0.1667,"velocity":127,"measure":50,"beat":2.25,"subject_pos":-1,"motif":"","motif_pos":-1,"best_pos":5,"similarity":0.729,"stretto":false,"stretto_voices":0,"combination":[],"aug_dim":"","rhythm_ratio":1.0,"chromatic_density":0.294},{"voice":0,"pitch":76,"start":131.6665,"duration":0.1667,"velocity":127,"measure":50,"beat":2.5,"subject_pos":-1,"motif":"","motif_pos":-1,"best_pos":4,"similarity":0.421,"stretto":false,"stretto_voices":0,"combination":[],"aug_dim":"","rhythm_ratio":1.0,"chromatic_density":0.294},{"voice":1,"pitch":64,"start":131.6665,"duration":0.1667,"velocity":127,"measure":50,"beat":2.5,"subject_pos":-1,"motif":"","motif_pos":-1,"best_pos":6,"similarity":0.721,"stretto":false,"stretto_voices":0,"combination":[],"aug_dim":"","rhythm_ratio":1.0,"chromatic_density":0.294},{"voice":0,"pitch":74,"start":131.8332,"duration":0.1667,"velocity":127,"measure":50,"beat":2.75,"subject_pos":-1,"motif":"","motif_pos":-1,"best_pos":3,"similarity":0.364,"stretto":false,"stretto_voices":0,"combination":[],"aug_dim":"","rhythm_ratio":1.0,"chromatic_density":0.294},{"voice":1,"pitch":65,"start":131.8332,"duration":0.1667,"velocity":127,"measure":50,"beat":2.75,"subject_pos":-1,"motif":"","motif_pos":-1,"best_pos":7,"similarity":0.5,"stretto":false,"stretto_voices":0,"combination":[],"aug_dim":"","rhythm_ratio":1.0,"chromatic_density":0.294},{"voice":0,"pitch":80,"start":131.9999,"duration":1.5,"velocity":127,"measure":50,"beat":3.0,"subject_pos":-1,"motif":"","motif_pos":-1,"best_pos":4,"similarity":0.464,"stretto":false,"stretto_voices":0,"combination":[],"aug_dim":"","rhythm_ratio":1.0,"chromatic_density":0.294},{"voice":1,"pitch":65,"start":131.9999,"duration":0.1667,"velocity":127,"measure":50,"beat":3.0,"subject_pos":-1,"motif":"","motif_pos":-1,"best_pos":2,"similarity":0.421,"stretto":false,"stretto_voices":0,"combination":[],"aug_dim":"","rhythm_ratio":1.0,"chromatic_density":0.294},{"voice":1,"pitch":62,"start":132.1665,"duration":0.1667,"velocity":127,"measure":50,"beat":3.25,"subject_pos":-1,"motif":"","motif_pos":-1,"best_pos":5,"similarity":0.464,"stretto":false,"stretto_voices":0,"combination":[],"aug_dim":"","rhythm_ratio":1.0,"chromatic_density":0.294},{"voice":1,"pitch":64,"start":132.3332,"duration":0.1667,"velocity":127,"measure":50,"beat":3.5,"subject_pos":-1,"motif":"","motif_pos":-1,"best_pos":6,"similarity":0.479,"stretto":false,"stretto_voices":0,"combination":[],"aug_dim":"","rhythm_ratio":1.0,"chromatic_density":0.294},{"voice":1,"pitch":64,"start":132.4999,"duration":0.1667,"velocity":127,"measure":50,"beat":3.75,"subject_pos":-1,"motif":"","motif_pos":-1,"best_pos":2,"similarity":0.443,"stretto":false,"stretto_voices":0,"combination":[],"aug_dim":"","rhythm_ratio":1.0,"chromatic_density":0.294},{"voice":1,"pitch":61,"start":132.6665,"duration":0.1667,"velocity":127,"measure":50,"beat":4.0,"subject_pos":-1,"motif":"","motif_pos":-1,"best_pos":3,"similarity":0.471,"stretto":false,"stretto_voices":0,"combination":[],"aug_dim":"","rhythm_ratio":1.0,"chromatic_density":0.294},{"voice":1,"pitch":62,"start":132.8332,"duration":0.1667,"velocity":127,"measure":50,"beat":4.25,"subject_pos":-1,"motif":"","motif_pos":-1,"best_pos":4,"similarity":0.446,"stretto":false,"stretto_voices":0,"combination":[],"aug_dim":"","rhythm_ratio":1.0,"chromatic_density":0.294},{"voice":1,"pitch":62,"start":132.9999,"duration":0.1667,"velocity":127,"measure":50,"beat":4.5,"subject_pos":-1,"motif":"","motif_pos":-1,"best_pos":2,"similarity":0.443,"stretto":false,"stretto_voices":0,"combination":[],"aug_dim":"","rhythm_ratio":1.0,"chromatic_density":0.294},{"voice":1,"pitch":59,"start":133.1665,"duration":0.1667,"velocity":127,"measure":50,"beat":4.75,"subject_pos":-1,"motif":"","motif_pos":-1,"best_pos":3,"similarity":0.471,"stretto":false,"stretto_voices":0,"combination":[],"aug_dim":"","rhythm_ratio":1.0,"chromatic_density":0.294},{"voice":1,"pitch":60,"start":133.3332,"duration":0.1667,"velocity":127,"measure":51,"beat":1.0,"subject_pos":-1,"motif":"","motif_pos":-1,"best_pos":4,"similarity":0.446,"stretto":false,"stretto_voices":0,"combination":[],"aug_dim":"","rhythm_ratio":1.0,"chromatic_density":0.222},{"voice":0,"pitch":81,"start":133.4999,"duration":0.3333,"velocity":127,"measure":51,"beat":1.25,"subject_pos":-1,"motif":"","motif_pos":-1,"best_pos":5,"similarity":0.464,"stretto":false,"stretto_voices":0,"combination":[],"aug_dim":"","rhythm_ratio":1.0,"chromatic_density":0.222},{"voice":1,"pitch":60,"start":133.4999,"duration":0.1667,"velocity":127,"measure":51,"beat":1.25,"subject_pos":-1,"motif":"","motif_pos":-1,"best_pos":2,"similarity":0.443,"stretto":false,"stretto_voices":0,"combination":[],"aug_dim":"","rhythm_ratio":1.0,"chromatic_density":0.222},{"voice":1,"pitch":57,"start":133.6665,"duration":0.1667,"velocity":127,"measure":51,"beat":1.5,"subject_pos":-1,"motif":"","motif_pos":-1,"best_pos":3,"similarity":0.471,"stretto":false,"stretto_voices":0,"combination":[],"aug_dim":"","rhythm_ratio":1.0,"chromatic_density":0.222},{"voice":1,"pitch":58,"start":133.8332,"duration":0.1667,"velocity":127,"measure":51,"beat":1.75,"subject_pos":-1,"motif":"","motif_pos":-1,"best_pos":5,"similarity":0.414,"stretto":false,"stretto_voices":0,"combination":[],"aug_dim":"","rhythm_ratio":1.0,"chromatic_density":0.222},{"voice":1,"pitch":58,"start":133.9999,"duration":0.1667,"velocity":127,"measure":51,"beat":2.0,"subject_pos":-1,"motif":"","motif_pos":-1,"best_pos":2,"similarity":0.421,"stretto":false,"stretto_voices":0,"combination":[],"aug_dim":"","rhythm_ratio":1.0,"chromatic_density":0.222},{"voice":1,"pitch":55,"start":134.1665,"duration":0.1667,"velocity":127,"measure":51,"beat":2.25,"subject_pos":-1,"motif":"","motif_pos":-1,"best_pos":5,"similarity":0.464,"stretto":false,"stretto_voices":0,"combination":[],"aug_dim":"","rhythm_ratio":1.0,"chromatic_density":0.222},{"voice":0,"pitch":73,"start":134.3332,"duration":0.1667,"velocity":127,"measure":51,"beat":2.5,"subject_pos":-1,"motif":"","motif_pos":-1,"best_pos":4,"similarity":0.443,"stretto":false,"stretto_voices":0,"combination":[],"aug_dim":"","rhythm_ratio":1.0,"chromatic_density":0.222},{"voice":1,"pitch":57,"start":134.3332,"duration":0.1667,"velocity":127,"measure":51,"beat":2.5,"subject_pos":-1,"motif":"","motif_pos":-1,"best_pos":6,"similarity":0.479,"stretto":false,"stretto_voices":0,"combination":[],"aug_dim":"","rhythm_ratio":1.0,"chromatic_density":0.222},{"voice":0,"pitch":74,"start":134.4999,"duration":0.3333,"velocity":127,"measure":51,"beat":2.75,"subject_pos":-1,"motif":"","motif_pos":-1,"best_pos":5,"similarity":0.579,"stretto":false,"stretto_voices":0,"combination":[],"aug_dim":"","rhythm_ratio":1.0,"chromatic_density":0.222},{"voice":1,"pitch":57,"start":134.4999,"duration":0.1667,"velocity":127,"measure":51,"beat":2.75,"subject_pos":-1,"motif":"","motif_pos":-1,"best_pos":4,"similarity":0.329,"stretto":false,"stretto_voices":0,"combination":[],"aug_dim":"","rhythm_ratio":1.0,"chromatic_density":0.222},{"voice":1,"pitch":53,"start":134.6665,"duration":0.1667,"velocity":127,"measure":51,"beat":3.0,"subject_pos":-1,"motif":"","motif_pos":-1,"best_pos":2,"similarity":0.393,"stretto":false,"stretto_voices":0,"combination":[],"aug_dim":"","rhythm_ratio":1.0,"chromatic_density":0.222},{"voice":0,"pitch":76,"start":134.8332,"duration":0.1667,"velocity":127,"measure":51,"beat":3.25,"subject_pos":-1,"motif":"head_inv","motif_pos":0,"best_pos":0,"similarity":1.0,"stretto":false,"stretto_voices":0,"combination":[],"aug_dim":"","rhythm_ratio":1.0,"chromatic_density":0.222},{"voice":1,"pitch":55,"start":134.8332,"duration":0.4132,"velocity":127,"measure":51,"beat":3.25,"subject_pos":-1,"motif":"","motif_pos":-1,"best_pos":3,"similarity":0.429,"stretto":false,"stretto_voices":0,"combination":[],"aug_dim":"","rhythm_ratio":1.0,"chromatic_density":0.222},{"voice":0,"pitch":69,"start":134.9999,"duration":0.1667,"velocity":127,"measure":51,"beat":3.5,"subject_pos":-1,"motif":"head_inv","motif_pos":1,"best_pos":1,"similarity":1.0,"stretto":false,"stretto_voices":0,"combination":[],"aug_dim":"","rhythm_ratio":1.0,"chromatic_density":0.222},{"voice":1,"pitch":53,"start":134.9999,"duration":0.6667,"velocity":127,"measure":51,"beat":3.5,"subject_pos":-1,"motif":"","motif_pos":-1,"best_pos":4,"similarity":0.571,"stretto":false,"stretto_voices":0,"combination":[],"aug_dim":"","rhythm_ratio":1.0,"chromatic_density":0.222},{"voice":0,"pitch":71,"start":135.1665,"duration":0.1667,"velocity":127,"measure":51,"beat":3.75,"subject_pos":-1,"motif":"head_inv","motif_pos":2,"best_pos":2,"similarity":1.0,"stretto":false,"stretto_voices":0,"combination":[],"aug_dim":"","rhythm_ratio":1.0,"chromatic_density":0.222},{"voice":0,"pitch":73,"start":135.3332,"duration":0.1667,"velocity":127,"measure":51,"beat":4.0,"subject_pos":-1,"motif":"head_inv","motif_pos":3,"best_pos":3,"similarity":1.0,"stretto":false,"stretto_voices":0,"combination":[],"aug_dim":"","rhythm_ratio":1.0,"chromatic_density":0.222},{"voice":0,"pitch":74,"start":135.4999,"duration":0.1667,"velocity":127,"measure":51,"beat":4.25,"subject_pos":-1,"motif":"head_inv","motif_pos":4,"best_pos":4,"similarity":1.0,"stretto":false,"stretto_voices":0,"combination":[],"aug_dim":"","rhythm_ratio":1.0,"chromatic_density":0.222},{"voice":0,"pitch":76,"start":135.6665,"duration":0.1667,"velocity":127,"measure":51,"beat":4.5,"subject_pos":-1,"motif":"","motif_pos":-1,"best_pos":6,"similarity":0.721,"stretto":false,"stretto_voices":0,"combination":[],"aug_dim":"","rhythm_ratio":1.0,"chromatic_density":0.222},{"voice":1,"pitch":55,"start":135.6665,"duration":0.1667,"velocity":127,"measure":51,"beat":4.5,"subject_pos":-1,"motif":"","motif_pos":-1,"best_pos":5,"similarity":0.643,"stretto":false,"stretto_voices":0,"combination":[],"aug_dim":"","rhythm_ratio":1.0,"chromatic_density":0.222},{"voice":0,"pitch":77,"start":135.8332,"duration":0.1667,"velocity":127,"measure":51,"beat":4.75,"subject_pos":-1,"motif":"","motif_pos":-1,"best_pos":7,"similarity":0.5,"stretto":false,"stretto_voices":0,"combination":[],"aug_dim":"","rhythm_ratio":1.0,"chromatic_density":0.222},{"voice":1,"pitch":57,"start":135.8332,"duration":0.1667,"velocity":127,"measure":51,"beat":4.75,"subject_pos":-1,"motif":"","motif_pos":-1,"best_pos":6,"similarity":0.679,"stretto":false,"stretto_voices":0,"combination":[],"aug_dim":"","rhythm_ratio":1.0,"chromatic_density":0.222},{"voice":0,"pitch":67,"start":135.9999,"duration":0.6667,"velocity":127,"measure":52,"beat":1.0,"subject_pos":-1,"motif":"","motif_pos":-1,"best_pos":0,"similarity":0.161,"stretto":false,"stretto_voices":0,"combination":[],"aug_dim":"","rhythm_ratio":1.0,"chromatic_density":0.474},{"voice":1,"pitch":58,"start":135.9999,"duration":0.1667,"velocity":127,"measure":52,"beat":1.0,"subject_pos":-1,"motif":"","motif_pos":-1,"best_pos":7,"similarity":0.464,"stretto":false,"stretto_voices":0,"combination":[],"aug_dim":"","rhythm_ratio":1.0,"chromatic_density":0.474},{"voice":1,"pitch":57,"start":136.1665,"duration":0.1667,"velocity":127,"measure":52,"beat":1.25,"subject_pos":-1,"motif":"","motif_pos":-1,"best_pos":1,"similarity":0.357,"stretto":false,"stretto_voices":0,"combination":[],"aug_dim":"","rhythm_ratio":1.0,"chromatic_density":0.474},{"voice":1,"pitch":55,"start":136.3332,"duration":0.1667,"velocity":127,"measure":52,"beat":1.5,"subject_pos":-1,"motif":"","motif_pos":-1,"best_pos":2,"similarity":0.5,"stretto":false,"stretto_voices":0,"combination":[],"aug_dim":"","rhythm_ratio":1.0,"chromatic_density":0.474},{"voice":1,"pitch":62,"start":136.4131,"duration":0.3333,"velocity":127,"measure":52,"beat":1.6198,"subject_pos":-1,"motif":"tail","motif_pos":3,"best_pos":3,"similarity":1.0,"stretto":false,"stretto_voices":0,"combination":[],"aug_dim":"","rhythm_ratio":1.0,"chromatic_density":0.474},{"voice":1,"pitch":61,"start":136.4999,"duration":0.6667,"velocity":127,"measure":52,"beat":1.75,"subject_pos":-1,"motif":"tail","motif_pos":4,"best_pos":4,"similarity":1.0,"stretto":false,"stretto_voices":0,"combination":[],"aug_dim":"","rhythm_ratio":1.0,"chromatic_density":0.474},{"voice":0,"pitch":79,"start":136.6665,"duration":0.1667,"velocity":127,"measure":52,"beat":2.0,"subject_pos":-1,"motif":"","motif_pos":-1,"best_pos":1,"similarity":0.357,"stretto":false,"stretto_voices":0,"combination":[],"aug_dim":"","rhythm_ratio":1.0,"chromatic_density":0.474},{"voice":0,"pitch":77,"start":136.8332,"duration":0.1667,"velocity":127,"measure":52,"beat":2.25,"subject_pos":-1,"motif":"","motif_pos":-1,"best_pos":3,"similarity":0.45,"stretto":false,"stretto_voices":0,"combination":[],"aug_dim":"","rhythm_ratio":1.0,"chromatic_density":0.474},{"voice":0,"pitch":76,"start":136.9999,"duration":0.1667,"velocity":127,"measure":52,"beat":2.5,"subject_pos":-1,"motif":"","motif_pos":-1,"best_pos":2,"similarity":0.5,"stretto":false,"stretto_voices":0,"combination":[],"aug_dim":"","rhythm_ratio":1.0,"chromatic_density":0.474},{"voice":0,"pitch":74,"start":137.1665,"duration":0.1667,"velocity":127,"measure":52,"beat":2.75,"subject_pos":-1,"motif":"","motif_pos":-1,"best_pos":3,"similarity":0.643,"stretto":false,"stretto_voices":0,"combination":[],"aug_dim":"","rhythm_ratio":1.0,"chromatic_density":0.474},{"voice":1,"pitch":62,"start":137.1665,"duration":0.1667,"velocity":127,"measure":52,"beat":2.75,"subject_pos":-1,"motif":"tail","motif_pos":5,"best_pos":5,"similarity":1.0,"stretto":false,"stretto_voices":0,"combination":[],"aug_dim":"","rhythm_ratio":1.0,"chromatic_density":0.474},{"voice":0,"pitch":73,"start":137.3332,"duration":0.1667,"velocity":127,"measure":52,"beat":3.0,"subject_pos":-1,"motif":"","motif_pos":-1,"best_pos":4,"similarity":0.714,"stretto":false,"stretto_voices":0,"combination":[],"aug_dim":"","rhythm_ratio":1.0,"chromatic_density":0.474},{"voice":1,"pitch":64,"start":137.3332,"duration":0.1667,"velocity":127,"measure":52,"beat":3.0,"subject_pos":-1,"motif":"tail","motif_pos":6,"best_pos":6,"similarity":1.0,"stretto":false,"stretto_voices":0,"combination":[],"aug_dim":"","rhythm_ratio":1.0,"chromatic_density":0.474},{"voice":0,"pitch":74,"start":137.4999,"duration":0.6667,"velocity":127,"measure":52,"beat":3.25,"subject_pos":-1,"motif":"","motif_pos":-1,"best_pos":5,"similarity":0.536,"stretto":false,"stretto_voices":0,"combination":[],"aug_dim":"","rhythm_ratio":1.0,"chromatic_density":0.474},{"voice":1,"pitch":65,"start":137.4999,"duration":0.1667,"velocity":127,"measure":52,"beat":3.25,"subject_pos":-1,"motif":"tail","motif_pos":7,"best_pos":7,"similarity":1.0,"stretto":false,"stretto_voices":0,"combination":[],"aug_dim":"","rhythm_ratio":1.0,"chromatic_density":0.474},{"voice":1,"pitch":64,"start":137.6665,"duration":0.1667,"velocity":127,"measure":52,"beat":3.5,"subject_pos":-1,"motif":"","motif_pos":-1,"best_pos":4,"similarity":0.421,"stretto":false,"stretto_voices":0,"combination":[],"aug_dim":"","rhythm_ratio":1.0,"chromatic_density":0.474},{"voice":1,"pitch":62,"start":137.8332,"duration":0.1667,"velocity":127,"measure":52,"beat":3.75,"subject_pos":-1,"motif":"","motif_pos":-1,"best_pos":3,"similarity":0.364,"stretto":false,"stretto_voices":0,"combination":[],"aug_dim":"","rhythm_ratio":1.0,"chromatic_density":0.474},{"voice":1,"pitch":68,"start":137.9999,"duration":1.5,"velocity":127,"measure":52,"beat":4.0,"subject_pos":-1,"motif":"","motif_pos":-1,"best_pos":4,"similarity":0.464,"stretto":false,"stretto_voices":0,"combination":[],"aug_dim":"","rhythm_ratio":1.0,"chromatic_density":0.474},{"voice":0,"pitch":71,"start":138.1665,"duration":0.1667,"velocity":127,"measure":52,"beat":4.25,"subject_pos":-1,"motif":"","motif_pos":-1,"best_pos":3,"similarity":0.543,"stretto":false,"stretto_voices":0,"combination":[],"aug_dim":"","rhythm_ratio":1.0,"chromatic_density":0.474},{"voice":0,"pitch":73,"start":138.3332,"duration":0.1667,"velocity":127,"measure":52,"beat":4.5,"subject_pos":-1,"motif":"","motif_pos":-1,"best_pos":4,"similarity":0.679,"stretto":false,"stretto_voices":0,"combination":[],"aug_dim":"","rhythm_ratio":1.0,"chromatic_density":0.474},{"voice":0,"pitch":74,"start":138.4999,"duration":0.1667,"velocity":127,"measure":52,"beat":4.75,"subject_pos":-1,"motif":"","motif_pos":-1,"best_pos":5,"similarity":0.8,"stretto":false,"stretto_voices":0,"combination":[],"aug_dim":"","rhythm_ratio":1.0,"chromatic_density":0.474},{"voice":0,"pitch":76,"start":138.6665,"duration":0.1667,"velocity":127,"measure":53,"beat":1.0,"subject_pos":-1,"motif":"","motif_pos":-1,"best_pos":6,"similarity":0.721,"stretto":false,"stretto_voices":0,"combination":[],"aug_dim":"","rhythm_ratio":1.0,"chromatic_density":0.412},{"voice":0,"pitch":77,"start":138.8332,"duration":0.1667,"velocity":127,"measure":53,"beat":1.25,"subject_pos":-1,"motif":"","motif_pos":-1,"best_pos":7,"similarity":0.5,"stretto":false,"stretto_voices":0,"combination":[],"aug_dim":"","rhythm_ratio":1.0,"chromatic_density":0.412},{"voice":0,"pitch":76,"start":138.9999,"duration":0.1667,"velocity":127,"measure":53,"beat":1.5,"subject_pos":-1,"motif":"","motif_pos":-1,"best_pos":4,"similarity":0.611,"stretto":false,"stretto_voices":0,"combination":[],"aug_dim":"","rhythm_ratio":1.0,"chromatic_density":0.412},{"voice":0,"pitch":77,"start":139.1665,"duration":0.1667,"velocity":127,"measure":53,"beat":1.75,"subject_pos":-1,"motif":"","motif_pos":-1,"best_pos":2,"similarity":0.529,"stretto":false,"stretto_voices":0,"combination":[],"aug_dim":"","rhythm_ratio":1.0,"chromatic_density":0.412},{"voice":0,"pitch":74,"start":139.3332,"duration":0.1667,"velocity":127,"measure":53,"beat":2.0,"subject_pos":-1,"motif":"","motif_pos":-1,"best_pos":3,"similarity":0.8,"stretto":false,"stretto_voices":0,"combination":[],"aug_dim":"","rhythm_ratio":1.0,"chromatic_density":0.412},{"voice":0,"pitch":73,"start":139.4999,"duration":0.1667,"velocity":127,"measure":53,"beat":2.25,"subject_pos":-1,"motif":"","motif_pos":-1,"best_pos":4,"similarity":0.864,"stretto":false,"stretto_voices":0,"combination":[],"aug_dim":"","rhythm_ratio":1.0,"chromatic_density":0.412},{"voice":1,"pitch":69,"start":139.4999,"duration":0.3333,"velocity":127,"measure":53,"beat":2.25,"subject_pos":-1,"motif":"","motif_pos":-1,"best_pos":5,"similarity":0.464,"stretto":false,"stretto_voices":0,"combination":[],"aug_dim":"","rhythm_ratio":1.0,"chromatic_density":0.412},{"voice":0,"pitch":74,"start":139.6665,"duration":0.1667,"velocity":127,"measure":53,"beat":2.5,"subject_pos":-1,"motif":"","motif_pos":-1,"best_pos":5,"similarity":0.786,"stretto":false,"stretto_voices":0,"combination":[],"aug_dim":"","rhythm_ratio":1.0,"chromatic_density":0.412},{"voice":0,"pitch":76,"start":139.8332,"duration":0.1667,"velocity":127,"measure":53,"beat":2.75,"subject_pos":-1,"motif":"","motif_pos":-1,"best_pos":6,"similarity":0.5,"stretto":false,"stretto_voices":0,"combination":[],"aug_dim":"","rhythm_ratio":1.0,"chromatic_density":0.412},{"voice":0,"pitch":69,"start":139.9999,"duration":0.6667,"velocity":127,"measure":53,"beat":3.0,"subject_pos":-1,"motif":"","motif_pos":-1,"best_pos":6,"similarity":0.375,"stretto":false,"stretto_voices":0,"combination":[],"aug_dim":"","rhythm_ratio":1.0,"chromatic_density":0.412},{"voice":1,"pitch":61,"start":140.3332,"duration":0.1667,"velocity":127,"measure":53,"beat":3.5,"subject_pos":-1,"motif":"","motif_pos":-1,"best_pos":4,"similarity":0.443,"stretto":false,"stretto_voices":0,"combination":[],"aug_dim":"","rhythm_ratio":1.0,"chromatic_density":0.412},{"voice":1,"pitch":62,"start":140.4999,"duration":0.3333,"velocity":127,"measure":53,"beat":3.75,"subject_pos":-1,"motif":"","motif_pos":-1,"best_pos":5,"similarity":0.579,"stretto":false,"stretto_voices":0,"combination":[],"aug_dim":"","rhythm_ratio":1.0,"chromatic_density":0.412},{"voice":0,"pitch":70,"start":140.6665,"duration":0.1667,"velocity":127,"measure":53,"beat":4.0,"subject_pos":-1,"motif":"","motif_pos":-1,"best_pos":2,"similarity":0.421,"stretto":false,"stretto_voices":0,"combination":[],"aug_dim":"","rhythm_ratio":1.0,"chromatic_density":0.412},{"voice":0,"pitch":67,"start":140.8332,"duration":0.1667,"velocity":127,"measure":53,"beat":4.25,"subject_pos":-1,"motif":"","motif_pos":-1,"best_pos":3,"similarity":0.514,"stretto":false,"stretto_voices":0,"combination":[],"aug_dim":"","rhythm_ratio":1.0,"chromatic_density":0.412},{"voice":1,"pitch":64,"start":140.8332,"duration":0.1667,"velocity":127,"measure":53,"beat":4.25,"subject_pos":-1,"motif":"head_inv","motif_pos":0,"best_pos":0,"similarity":1.0,"stretto":false,"stretto_voices":0,"combination":[],"aug_dim":"","rhythm_ratio":1.0,"chromatic_density":0.412},{"voice":0,"pitch":65,"start":140.9999,"duration":0.1667,"velocity":127,"measure":53,"beat":4.5,"subject_pos":-1,"motif":"","motif_pos":-1,"best_pos":4,"similarity":0.507,"stretto":false,"stretto_voices":0,"combination":[],"aug_dim":"","rhythm_ratio":1.0,"chromatic_density":0.412},{"voice":1,"pitch":57,"start":140.9999,"duration":0.1667,"velocity":127,"measure":53,"beat":4.5,"subject_pos":-1,"motif":"head_inv","motif_pos":1,"best_pos":1,"similarity":1.0,"stretto":false,"stretto_voices":0,"combination":[],"aug_dim":"","rhythm_ratio":1.0,"chromatic_density":0.412},{"voice":0,"pitch":67,"start":141.1665,"duration":0.1667,"velocity":127,"measure":53,"beat":4.75,"subject_pos":-1,"motif":"","motif_pos":-1,"best_pos":5,"similarity":0.429,"stretto":false,"stretto_voices":0,"combination":[],"aug_dim":"","rhythm_ratio":1.0,"chromatic_density":0.412},{"voice":1,"pitch":59,"start":141.1665,"duration":0.1667,"velocity":127,"measure":53,"beat":4.75,"subject_pos":-1,"motif":"head_inv","motif_pos":2,"best_pos":2,"similarity":1.0,"stretto":false,"stretto_voices":0,"combination":[],"aug_dim":"","rhythm_ratio":1.0,"chromatic_density":0.412},{"voice":0,"pitch":64,"start":141.3332,"duration":0.1667,"velocity":127,"measure":54,"beat":1.0,"subject_pos":-1,"motif":"","motif_pos":-1,"best_pos":4,"similarity":0.471,"stretto":false,"stretto_voices":0,"combination":[],"aug_dim":"","rhythm_ratio":1.0,"chromatic_density":0.4},{"voice":1,"pitch":61,"start":141.3332,"duration":0.1667,"velocity":127,"measure":54,"beat":1.0,"subject_pos":-1,"motif":"head_inv","motif_pos":3,"best_pos":3,"similarity":1.0,"stretto":false,"stretto_voices":0,"combination":[],"aug_dim":"","rhythm_ratio":1.0,"chromatic_density":0.4},{"voice":0,"pitch":65,"start":141.4999,"duration":0.1667,"velocity":127,"measure":54,"beat":1.25,"subject_pos":-1,"motif":"","motif_pos":-1,"best_pos":5,"similarity":0.407,"stretto":false,"stretto_voices":0,"combination":[],"aug_dim":"","rhythm_ratio":1.0,"chromatic_density":0.4},{"voice":1,"pitch":62,"start":141.4999,"duration":0.1667,"velocity":127,"measure":54,"beat":1.25,"subject_pos":-1,"motif":"head_inv","motif_pos":4,"best_pos":4,"similarity":1.0,"stretto":false,"stretto_voices":0,"combination":[],"aug_dim":"","rhythm_ratio":1.0,"chromatic_density":0.4},{"voice":0,"pitch":69,"start":141.6665,"duration":0.1667,"velocity":127,"measure":54,"beat":1.5,"subject_pos":-1,"motif":"","motif_pos":-1,"best_pos":0,"similarity":0.464,"stretto":false,"stretto_voices":0,"combination":[],"aug_dim":"","rhythm_ratio":1.0,"chromatic_density":0.4},{"voice":1,"pitch":64,"start":141.6665,"duration":0.1667,"velocity":127,"measure":54,"beat":1.5,"subject_pos":-1,"motif":"","motif_pos":-1,"best_pos":6,"similarity":0.721,"stretto":false,"stretto_voices":0,"combination":[],"aug_dim":"","rhythm_ratio":1.0,"chromatic_density":0.4},{"voice":0,"pitch":74,"start":141.8332,"duration":0.1667,"velocity":127,"measure":54,"beat":1.75,"subject_pos":-1,"motif":"","motif_pos":-1,"best_pos":1,"similarity":0.714,"stretto":false,"stretto_voices":0,"combination":[],"aug_dim":"","rhythm_ratio":1.0,"chromatic_density":0.4},{"voice":1,"pitch":65,"start":141.8332,"duration":0.1667,"velocity":127,"measure":54,"beat":1.75,"subject_pos":-1,"motif":"","motif_pos":-1,"best_pos":7,"similarity":0.5,"stretto":false,"stretto_voices":0,"combination":[],"aug_dim":"","rhythm_ratio":1.0,"chromatic_density":0.4},{"voice":0,"pitch":72,"start":141.9999,"duration":0.1667,"velocity":127,"measure":54,"beat":2.0,"subject_pos":-1,"motif":"","motif_pos":-1,"best_pos":2,"similarity":0.786,"stretto":false,"stretto_voices":0,"combination":[],"aug_dim":"","rhythm_ratio":1.0,"chromatic_density":0.4},{"voice":1,"pitch":55,"start":141.9999,"duration":0.6667,"velocity":127,"measure":54,"beat":2.0,"subject_pos":-1,"motif":"","motif_pos":-1,"best_pos":0,"similarity":0.161,"stretto":false,"stretto_voices":0,"combination":[],"aug_dim":"","rhythm_ratio":1.0,"chromatic_density":0.4},{"voice":0,"pitch":70,"start":142.1665,"duration":0.1667,"velocity":127,"measure":54,"beat":2.25,"subject_pos":-1,"motif":"","motif_pos":-1,"best_pos":3,"similarity":0.804,"stretto":false,"stretto_voices":0,"combination":[],"aug_dim":"","rhythm_ratio":1.0,"chromatic_density":0.4},{"voice":0,"pitch":69,"start":142.3332,"duration":0.1667,"velocity":127,"measure":54,"beat":2.5,"subject_pos":-1,"motif":"","motif_pos":-1,"best_pos":4,"similarity":0.757,"stretto":false,"stretto_voices":0,"combination":[],"aug_dim":"","rhythm_ratio":1.0,"chromatic_density":0.4},{"voice":0,"pitch":70,"start":142.4999,"duration":0.1667,"velocity":127,"measure":54,"beat":2.75,"subject_pos":-1,"motif":"","motif_pos":-1,"best_pos":5,"similarity":0.55,"stretto":false,"stretto_voices":0,"combination":[],"aug_dim":"","rhythm_ratio":1.0,"chromatic_density":0.4},{"voice":0,"pitch":74,"start":142.6665,"duration":0.1667,"velocity":127,"measure":54,"beat":3.0,"subject_pos":-1,"motif":"","motif_pos":-1,"best_pos":0,"similarity":0.321,"stretto":false,"stretto_voices":0,"combination":[],"aug_dim":"","rhythm_ratio":1.0,"chromatic_density":0.4},{"voice":1,"pitch":67,"start":142.6665,"duration":0.1667,"velocity":127,"measure":54,"beat":3.0,"subject_pos":-1,"motif":"","motif_pos":-1,"best_pos":1,"similarity":0.357,"stretto":false,"stretto_voices":0,"combination":[],"aug_dim":"","rhythm_ratio":1.0,"chromatic_density":0.4},{"voice":0,"pitch":79,"start":142.8332,"duration":0.1667,"velocity":127,"measure":54,"beat":3.25,"subject_pos":-1,"motif":"","motif_pos":-1,"best_pos":1,"similarity":0.357,"stretto":false,"stretto_voices":0,"combination":[],"aug_dim":"","rhythm_ratio":1.0,"chromatic_density":0.4},{"voice":1,"pitch":65,"start":142.8332,"duration":0.1667,"velocity":127,"measure":54,"beat":3.25,"subject_pos":-1,"motif":"","motif_pos":-1,"best_pos":3,"similarity":0.45,"stretto":false,"stretto_voices":0,"combination":[],"aug_dim":"","rhythm_ratio":1.0,"chromatic_density":0.4},{"voice":0,"pitch":73,"start":142.9999,"duration":0.1667,"velocity":127,"measure":54,"beat":3.5,"subject_pos":-1,"motif":"","motif_pos":-1,"best_pos":2,"similarity":0.286,"stretto":false,"stretto_voices":0,"combination":[],"aug_dim":"","rhythm_ratio":1.0,"chromatic_density":0.4},{"voice":1,"pitch":64,"start":142.9999,"duration":0.1667,"velocity":127,"measure":54,"beat":3.5,"subject_pos":-1,"motif":"","motif_pos":-1,"best_pos":2,"similarity":0.5,"stretto":false,"stretto_voices":0,"combination":[],"aug_dim":"","rhythm_ratio":1.0,"chromatic_density":0.4},{"voice":0,"pitch":76,"start":143.1665,"duration":0.1667,"velocity":127,"measure":54,"beat":3.75,"subject_pos":-1,"motif":"","motif_pos":-1,"best_pos":3,"similarity":0.257,"stretto":false,"stretto_voices":0,"combination":[],"aug_dim":"","rhythm_ratio":1.0,"chromatic_density":0.4},{"voice":1,"pitch":62,"start":143.1665,"duration":0.1667,"velocity":127,"measure":54,"beat":3.75,"subject_pos":-1,"motif":"","motif_pos":-1,"best_pos":3,"similarity":0.643,"stretto":false,"stretto_voices":0,"combination":[],"aug_dim":"","rhythm_ratio":1.0,"chromatic_density":0.4},{"voice":0,"pitch":69,"start":143.3332,"duration":0.1667,"velocity":127,"measure":54,"beat":4.0,"subject_pos":-1,"motif":"","motif_pos":-1,"best_pos":4,"similarity":0.325,"stretto":false,"stretto_voices":0,"combination":[],"aug_dim":"","rhythm_ratio":1.0,"chromatic_density":0.4},{"voice":1,"pitch":61,"start":143.3332,"duration":0.1667,"velocity":127,"measure":54,"beat":4.0,"subject_pos":-1,"motif":"","motif_pos":-1,"best_pos":4,"similarity":0.714,"stretto":false,"stretto_voices":0,"combination":[],"aug_dim":"","rhythm_ratio":1.0,"chromatic_density":0.4},{"voice":0,"pitch":70,"start":143.4999,"duration":0.1667,"velocity":127,"measure":54,"beat":4.25,"subject_pos":-1,"motif":"","motif_pos":-1,"best_pos":3,"similarity":0.368,"stretto":false,"stretto_voices":0,"combination":[],"aug_dim":"","rhythm_ratio":1.0,"chromatic_density":0.4},{"voice":1,"pitch":62,"start":143.4999,"duration":0.6667,"velocity":127,"measure":54,"beat":4.25,"subject_pos":-1,"motif":"","motif_pos":-1,"best_pos":5,"similarity":0.536,"stretto":false,"stretto_voices":0,"combination":[],"aug_dim":"","rhythm_ratio":1.0,"chromatic_density":0.4},{"voice":0,"pitch":69,"start":143.6665,"duration":0.1667,"velocity":127,"measure":54,"beat":4.5,"subject_pos":-1,"motif":"","motif_pos":-1,"best_pos":2,"similarity":0.407,"stretto":false,"stretto_voices":0,"combination":[],"aug_dim":"","rhythm_ratio":1.0,"chromatic_density":0.4},{"voice":0,"pitch":67,"start":143.8332,"duration":0.1667,"velocity":127,"measure":54,"beat":4.75,"subject_pos":-1,"motif":"","motif_pos":-1,"best_pos":2,"similarity":0.45,"stretto":false,"stretto_voices":0,"combination":[],"aug_dim":"","rhythm_ratio":1.0,"chromatic_density":0.4},{"voice":0,"pitch":65,"start":143.9999,"duration":0.1667,"velocity":127,"measure":55,"beat":1.0,"subject_pos":-1,"motif":"","motif_pos":-1,"best_pos":4,"similarity":0.464,"stretto":false,"stretto_voices":0,"combination":[],"aug_dim":"","rhythm_ratio":1.0,"chromatic_density":0.417},{"voice":0,"pitch":67,"start":144.1665,"duration":0.1667,"velocity":127,"measure":55,"beat":1.25,"subject_pos":-1,"motif":"","motif_pos":-1,"best_pos":5,"similarity":0.393,"stretto":false,"stretto_voices":0,"combination":[],"aug_dim":"","rhythm_ratio":1.0,"chromatic_density":0.417},{"voice":1,"pitch":59,"start":144.1665,"duration":0.1667,"velocity":127,"measure":55,"beat":1.25,"subject_pos":-1,"motif":"","motif_pos":-1,"best_pos":3,"similarity":0.543,"stretto":false,"stretto_voices":0,"combination":[],"aug_dim":"","rhythm_ratio":1.0,"chromatic_density":0.417},{"voice":0,"pitch":64,"start":144.3332,"duration":0.1667,"velocity":127,"measure":55,"beat":1.5,"subject_pos":-1,"motif":"","motif_pos":-1,"best_pos":4,"similarity":0.429,"stretto":false,"stretto_voices":0,"combination":[],"aug_dim":"","rhythm_ratio":1.0,"chromatic_density":0.417},{"voice":1,"pitch":61,"start":144.3332,"duration":0.1667,"velocity":127,"measure":55,"beat":1.5,"subject_pos":-1,"motif":"","motif_pos":-1,"best_pos":4,"similarity":0.679,"stretto":false,"stretto_voices":0,"combination":[],"aug_dim":"","rhythm_ratio":1.0,"chromatic_density":0.417},{"voice":0,"pitch":65,"start":144.4999,"duration":0.3333,"velocity":127,"measure":55,"beat":1.75,"subject_pos":-1,"motif":"","motif_pos":-1,"best_pos":5,"similarity":0.321,"stretto":false,"stretto_voices":0,"combination":[],"aug_dim":"","rhythm_ratio":1.0,"chromatic_density":0.417},{"voice":1,"pitch":62,"start":144.4999,"duration":0.1667,"velocity":127,"measure":55,"beat":1.75,"subject_pos":-1,"motif":"","motif_pos":-1,"best_pos":5,"similarity":0.8,"stretto":false,"stretto_voices":0,"combination":[],"aug_dim":"","rhythm_ratio":1.0,"chromatic_density":0.417},{"voice":1,"pitch":64,"start":144.6665,"duration":0.1667,"velocity":127,"measure":55,"beat":2.0,"subject_pos":-1,"motif":"","motif_pos":-1,"best_pos":6,"similarity":0.721,"stretto":false,"stretto_voices":0,"combination":[],"aug_dim":"","rhythm_ratio":1.0,"chromatic_density":0.417},{"voice":0,"pitch":74,"start":144.8332,"duration":0.1667,"velocity":127,"measure":55,"beat":2.25,"subject_pos":-1,"motif":"","motif_pos":-1,"best_pos":1,"similarity":0.243,"stretto":false,"stretto_voices":0,"combination":[],"aug_dim":"","rhythm_ratio":1.0,"chromatic_density":0.417},{"voice":1,"pitch":65,"start":144.8332,"duration":0.1667,"velocity":127,"measure":55,"beat":2.25,"subject_pos":-1,"motif":"","motif_pos":-1,"best_pos":7,"similarity":0.5,"stretto":false,"stretto_voices":0,"combination":[],"aug_dim":"","rhythm_ratio":1.0,"chromatic_density":0.417},{"voice":0,"pitch":67,"start":144.9999,"duration":0.3333,"velocity":127,"measure":55,"beat":2.5,"subject_pos":-1,"motif":"","motif_pos":-1,"best_pos":2,"similarity":0.357,"stretto":false,"stretto_voices":0,"combination":[],"aug_dim":"","rhythm_ratio":1.0,"chromatic_density":0.417},{"voice":1,"pitch":64,"start":144.9999,"duration":0.1667,"velocity":127,"measure":55,"beat":2.5,"subject_pos":-1,"motif":"","motif_pos":-1,"best_pos":4,"similarity":0.611,"stretto":false,"stretto_voices":0,"combination":[],"aug_dim":"","rhythm_ratio":1.0,"chromatic_density":0.417},{"voice":1,"pitch":65,"start":145.1665,"duration":0.1667,"velocity":127,"measure":55,"beat":2.75,"subject_pos":-1,"motif":"","motif_pos":-1,"best_pos":2,"similarity":0.529,"stretto":false,"stretto_voices":0,"combination":[],"aug_dim":"","rhythm_ratio":1.0,"chromatic_density":0.417},{"voice":0,"pitch":65,"start":145.3332,"duration":0.1667,"velocity":127,"measure":55,"beat":3.0,"subject_pos":-1,"motif":"enigmatic_cell","motif_pos":0,"best_pos":0,"similarity":1.0,"stretto":false,"stretto_voices":0,"combination":[],"aug_dim":"","rhythm_ratio":1.0,"chromatic_density":0.417},{"voice":1,"pitch":62,"start":145.3332,"duration":0.1667,"velocity":127,"measure":55,"beat":3.0,"subject_pos":-1,"motif":"","motif_pos":-1,"best_pos":3,"similarity":0.8,"stretto":false,"stretto_voices":0,"combination":[],"aug_dim":"","rhythm_ratio":1.0,"chromatic_density":0.417},{"voice":0,"pitch":64,"start":145.4999,"duration":0.1667,"velocity":127,"measure":55,"beat":3.25,"subject_pos":-1,"motif":"enigmatic_cell","motif_pos":1,"best_pos":1,"similarity":1.0,"stretto":false,"stretto_voices":0,"combination":[],"aug_dim":"","rhythm_ratio":1.0,"chromatic_density":0.417},{"voice":1,"pitch":61,"start":145.4999,"duration":0.1667,"velocity":127,"measure":55,"beat":3.25,"subject_pos":-1,"motif":"","motif_pos":-1,"best_pos":4,"similarity":0.864,"stretto":false,"stretto_voices":0,"combination":[],"aug_dim":"","rhythm_ratio":1.0,"chromatic_density":0.417},{"voice":0,"pitch":69,"start":145.6665,"duration":0.1667,"velocity":127,"measure":55,"beat":3.5,"subject_pos":-1,"motif":"enigmatic_cell","motif_pos":2,"best_pos":2,"similarity":1.0,"stretto":false,"stretto_voices":0,"combination":[],"aug_dim":"","rhythm_ratio":1.0,"chromatic_density":0.417},{"voice":1,"pitch":62,"start":145.6665,"duration":0.1667,"velocity":127,"measure":55,"beat":3.5,"subject_pos":-1,"motif":"","motif_pos":-1,"best_pos":5,"similarity":0.786,"stretto":false,"stretto_voices":0,"combination":[],"aug_dim":"","rhythm_ratio":1.0,"chromatic_density":0.417},{"voice":0,"pitch":67,"start":145.8332,"duration":0.1667,"velocity":127,"measure":55,"beat":3.75,"subject_pos":-1,"motif":"","motif_pos":-1,"best_pos":2,"similarity":0.721,"stretto":false,"stretto_voices":0,"combination":[],"aug_dim":"","rhythm_ratio":1.0,"chromatic_density":0.417},{"voice":1,"pitch":64,"start":145.8332,"duration":0.1667,"velocity":127,"measure":55,"beat":3.75,"subject_pos":-1,"motif":"","motif_pos":-1,"best_pos":6,"similarity":0.5,"stretto":false,"stretto_voices":0,"combination":[],"aug_dim":"","rhythm_ratio":1.0,"chromatic_density":0.417},{"voice":0,"pitch":65,"start":145.9999,"duration":0.1667,"velocity":127,"measure":55,"beat":4.0,"subject_pos":-1,"motif":"","motif_pos":-1,"best_pos":3,"similarity":0.664,"stretto":false,"stretto_voices":0,"combination":[],"aug_dim":"","rhythm_ratio":1.0,"chromatic_density":0.417},{"voice":1,"pitch":57,"start":145.9999,"duration":0.6667,"velocity":127,"measure":55,"beat":4.0,"subject_pos":-1,"motif":"","motif_pos":-1,"best_pos":6,"similarity":0.375,"stretto":false,"stretto_voices":0,"combination":[],"aug_dim":"","rhythm_ratio":1.0,"chromatic_density":0.417},{"voice":0,"pitch":64,"start":146.1665,"duration":0.1667,"velocity":127,"measure":55,"beat":4.25,"subject_pos":-1,"motif":"","motif_pos":-1,"best_pos":4,"similarity":0.543,"stretto":false,"stretto_voices":0,"combination":[],"aug_dim":"","rhythm_ratio":1.0,"chromatic_density":0.417},{"voice":0,"pitch":62,"start":146.3332,"duration":0.1667,"velocity":127,"measure":55,"beat":4.5,"subject_pos":-1,"motif":"","motif_pos":-1,"best_pos":3,"similarity":0.643,"stretto":false,"stretto_voices":0,"combination":[],"aug_dim":"","rhythm_ratio":1.0,"chromatic_density":0.417},{"voice":0,"pitch":61,"start":146.4999,"duration":0.5,"velocity":127,"measure":55,"beat":4.75,"subject_pos":-1,"motif":"","motif_pos":-1,"best_pos":4,"similarity":0.679,"stretto":false,"stretto_voices":0,"combination":[],"aug_dim":"","rhythm_ratio":1.0,"chromatic_density":0.417},{"voice":1,"pitch":58,"start":146.6665,"duration":0.1667,"velocity":127,"measure":56,"beat":1.0,"subject_pos":-1,"motif":"","motif_pos":-1,"best_pos":2,"similarity":0.421,"stretto":false,"stretto_voices":0,"combination":[],"aug_dim":"","rhythm_ratio":1.0,"chromatic_density":0.2},{"voice":1,"pitch":55,"start":146.8332,"duration":0.1667,"velocity":127,"measure":56,"beat":1.25,"subject_pos":-1,"motif":"","motif_pos":-1,"best_pos":3,"similarity":0.514,"stretto":false,"stretto_voices":0,"combination":[],"aug_dim":"","rhythm_ratio":1.0,"chromatic_density":0.2},{"voice":0,"pitch":62,"start":146.9999,"duration":0.3333,"velocity":127,"measure":56,"beat":1.5,"subject_pos":-1,"motif":"","motif_pos":-1,"best_pos":5,"similarity":0.464,"stretto":false,"stretto_voices":0,"combination":[],"aug_dim":"","rhythm_ratio":1.0,"chromatic_density":0.2},{"voice":1,"pitch":53,"start":146.9999,"duration":0.1667,"velocity":127,"measure":56,"beat":1.5,"subject_pos":-1,"motif":"","motif_pos":-1,"best_pos":4,"similarity":0.507,"stretto":false,"stretto_voices":0,"combination":[],"aug_dim":"","rhythm_ratio":1.0,"chromatic_density":0.2},{"voice":1,"pitch":55,"start":147.1665,"duration":0.1667,"velocity":127,"measure":56,"beat":1.75,"subject_pos":-1,"motif":"","motif_pos":-1,"best_pos":5,"similarity":0.429,"stretto":false,"stretto_voices":0,"combination":[],"aug_dim":"","rhythm_ratio":1.0,"chromatic_density":0.2},{"voice":1,"pitch":52,"start":147.3332,"duration":0.1667,"velocity":127,"measure":56,"beat":2.0,"subject_pos":-1,"motif":"","motif_pos":-1,"best_pos":4,"similarity":0.471,"stretto":false,"stretto_voices":0,"combination":[],"aug_dim":"","rhythm_ratio":1.0,"chromatic_density":0.2},{"voice":1,"pitch":53,"start":147.4999,"duration":0.1667,"velocity":127,"measure":56,"beat":2.25,"subject_pos":-1,"motif":"","motif_pos":-1,"best_pos":5,"similarity":0.407,"stretto":false,"stretto_voices":0,"combination":[],"aug_dim":"","rhythm_ratio":1.0,"chromatic_density":0.2},{"voice":1,"pitch":57,"start":147.6665,"duration":0.1667,"velocity":127,"measure":56,"beat":2.5,"subject_pos":-1,"motif":"","motif_pos":-1,"best_pos":0,"similarity":0.464,"stretto":false,"stretto_voices":0,"combination":[],"aug_dim":"","rhythm_ratio":1.0,"chromatic_density":0.2},{"voice":1,"pitch":62,"start":147.8332,"duration":0.1667,"velocity":127,"measure":56,"beat":2.75,"subject_pos":-1,"motif":"","motif_pos":-1,"best_pos":1,"similarity":0.714,"stretto":false,"stretto_voices":0,"combination":[],"aug_dim":"","rhythm_ratio":1.0,"chromatic_density":0.2},{"voice":1,"pitch":60,"start":147.9999,"duration":0.1667,"velocity":127,"measure":56,"beat":3.0,"subject_pos":-1,"motif":"","motif_pos":-1,"best_pos":2,"similarity":0.786,"stretto":false,"stretto_voices":0,"combination":[],"aug_dim":"","rhythm_ratio":1.0,"chromatic_density":0.2},{"voice":1,"pitch":58,"start":148.1665,"duration":0.1667,"velocity":127,"measure":56,"beat":3.25,"subject_pos":-1,"motif":"","motif_pos":-1,"best_pos":3,"similarity":0.804,"stretto":false,"stretto_voices":0,"combination":[],"aug_dim":"","rhythm_ratio":1.0,"chromatic_density":0.2},{"voice":1,"pitch":57,"start":148.3332,"duration":0.1667,"velocity":127,"measure":56,"beat":3.5,"subject_pos":-1,"motif":"","motif_pos":-1,"best_pos":4,"similarity":0.757,"stretto":false,"stretto_voices":0,"combination":[],"aug_dim":"","rhythm_ratio":1.0,"chromatic_density":0.2},{"voice":1,"pitch":58,"start":148.4999,"duration":0.1667,"velocity":127,"measure":56,"beat":3.75,"subject_pos":-1,"motif":"","motif_pos":-1,"best_pos":5,"similarity":0.55,"stretto":false,"stretto_voices":0,"combination":[],"aug_dim":"","rhythm_ratio":1.0,"chromatic_density":0.2},{"voice":1,"pitch":62,"start":148.6665,"duration":0.1667,"velocity":127,"measure":56,"beat":4.0,"subject_pos":-1,"motif":"","motif_pos":-1,"best_pos":0,"similarity":0.321,"stretto":false,"stretto_voices":0,"combination":[],"aug_dim":"","rhythm_ratio":1.0,"chromatic_density":0.2},{"voice":1,"pitch":67,"start":148.8332,"duration":0.1667,"velocity":127,"measure":56,"beat":4.25,"subject_pos":-1,"motif":"","motif_pos":-1,"best_pos":1,"similarity":0.357,"stretto":false,"stretto_voices":0,"combination":[],"aug_dim":"","rhythm_ratio":1.0,"chromatic_density":0.2},{"voice":1,"pitch":61,"start":148.9999,"duration":0.1667,"velocity":127,"measure":56,"beat":4.5,"subject_pos":-1,"motif":"","motif_pos":-1,"best_pos":2,"similarity":0.286,"stretto":false,"stretto_voices":0,"combination":[],"aug_dim":"","rhythm_ratio":1.0,"chromatic_density":0.2},{"voice":1,"pitch":64,"start":149.1665,"duration":0.1667,"velocity":127,"measure":56,"beat":4.75,"subject_pos":-1,"motif":"","motif_pos":-1,"best_pos":3,"similarity":0.257,"stretto":false,"stretto_voices":0,"combination":[],"aug_dim":"","rhythm_ratio":1.0,"chromatic_density":0.2},{"voice":1,"pitch":57,"start":149.3332,"duration":0.1667,"velocity":127,"measure":57,"beat":1.0,"subject_pos":-1,"motif":"","motif_pos":-1,"best_pos":4,"similarity":0.325,"stretto":false,"stretto_voices":0,"combination":[],"aug_dim":"","rhythm_ratio":1.0,"chromatic_density":0.364},{"voice":1,"pitch":58,"start":149.4999,"duration":0.1667,"velocity":127,"measure":57,"beat":1.25,"subject_pos":-1,"motif":"","motif_pos":-1,"best_pos":3,"similarity":0.368,"stretto":false,"stretto_voices":0,"combination":[],"aug_dim":"","rhythm_ratio":1.0,"chromatic_density":0.364},{"voice":1,"pitch":57,"start":149.6665,"duration":0.1667,"velocity":127,"measure":57,"beat":1.5,"subject_pos":-1,"motif":"","motif_pos":-1,"best_pos":2,"similarity":0.407,"stretto":false,"stretto_voices":0,"combination":[],"aug_dim":"","rhythm_ratio":1.0,"chromatic_density":0.364},{"voice":1,"pitch":55,"start":149.8332,"duration":0.1667,"velocity":127,"measure":57,"beat":1.75,"subject_pos":-1,"motif":"","motif_pos":-1,"best_pos":2,"similarity":0.45,"stretto":false,"stretto_voices":0,"combination":[],"aug_dim":"","rhythm_ratio":1.0,"chromatic_density":0.364},{"voice":0,"pitch":74,"start":149.9999,"duration":0.5,"velocity":127,"measure":57,"beat":2.0,"subject_pos":-1,"motif":"","motif_pos":-1,"best_pos":2,"similarity":0.3,"stretto":false,"stretto_voices":0,"combination":[],"aug_dim":"","rhythm_ratio":1.0,"chromatic_density":0.364},{"voice":1,"pitch":53,"start":149.9999,"duration":0.1667,"velocity":127,"measure":57,"beat":2.0,"subject_pos":-1,"motif":"","motif_pos":-1,"best_pos":4,"similarity":0.464,"stretto":false,"stretto_voices":0,"combination":[],"aug_dim":"","rhythm_ratio":1.0,"chromatic_density":0.364},{"voice":1,"pitch":55,"start":150.1665,"duration":0.1667,"velocity":127,"measure":57,"beat":2.25,"subject_pos":-1,"motif":"","motif_pos":-1,"best_pos":5,"similarity":0.393,"stretto":false,"stretto_voices":0,"combination":[],"aug_dim":"","rhythm_ratio":1.0,"chromatic_density":0.364},{"voice":1,"pitch":52,"start":150.3332,"duration":0.1667,"velocity":127,"measure":57,"beat":2.5,"subject_pos":-1,"motif":"","motif_pos":-1,"best_pos":4,"similarity":0.429,"stretto":false,"stretto_voices":0,"combination":[],"aug_dim":"","rhythm_ratio":1.0,"chromatic_density":0.364},{"voice":0,"pitch":69,"start":150.4998,"duration":0.1667,"velocity":127,"measure":57,"beat":2.75,"subject_pos":-1,"motif":"","motif_pos":-1,"best_pos":3,"similarity":0.579,"stretto":false,"stretto_voices":0,"combination":[],"aug_dim":"","rhythm_ratio":1.0,"chromatic_density":0.364},{"voice":1,"pitch":53,"start":150.4998,"duration":0.3333,"velocity":127,"measure":57,"beat":2.75,"subject_pos":-1,"motif":"","motif_pos":-1,"best_pos":5,"similarity":0.321,"stretto":false,"stretto_voices":0,"combination":[],"aug_dim":"","rhythm_ratio":1.0,"chromatic_density":0.364},{"voice":0,"pitch":68,"start":150.6665,"duration":0.1667,"velocity":127,"measure":57,"beat":3.0,"subject_pos":-1,"motif":"","motif_pos":-1,"best_pos":4,"similarity":0.757,"stretto":false,"stretto_voices":0,"combination":[],"aug_dim":"","rhythm_ratio":1.0,"chromatic_density":0.364},{"voice":0,"pitch":69,"start":150.8332,"duration":0.1667,"velocity":127,"measure":57,"beat":3.25,"subject_pos":-1,"motif":"","motif_pos":-1,"best_pos":5,"similarity":0.746,"stretto":false,"stretto_voices":0,"combination":[],"aug_dim":"","rhythm_ratio":1.0,"chromatic_density":0.364},{"voice":1,"pitch":62,"start":150.8332,"duration":0.1667,"velocity":127,"measure":57,"beat":3.25,"subject_pos":-1,"motif":"","motif_pos":-1,"best_pos":1,"similarity":0.243,"stretto":false,"stretto_voices":0,"combination":[],"aug_dim":"","rhythm_ratio":1.0,"chromatic_density":0.364},{"voice":0,"pitch":71,"start":150.9998,"duration":0.1667,"velocity":127,"measure":57,"beat":3.5,"subject_pos":-1,"motif":"","motif_pos":-1,"best_pos":6,"similarity":0.529,"stretto":false,"stretto_voices":0,"combination":[],"aug_dim":"","rhythm_ratio":1.0,"chromatic_density":0.364},{"voice":1,"pitch":55,"start":150.9998,"duration":0.3333,"velocity":127,"measure":57,"beat":3.5,"subject_pos":-1,"motif":"","motif_pos":-1,"best_pos":2,"similarity":0.357,"stretto":false,"stretto_voices":0,"combination":[],"aug_dim":"","rhythm_ratio":1.0,"chromatic_density":0.364},{"voice":0,"pitch":69,"start":151.1665,"duration":0.1667,"velocity":127,"measure":57,"beat":3.75,"subject_pos":-1,"motif":"","motif_pos":-1,"best_pos":5,"similarity":0.479,"stretto":false,"stretto_voices":0,"combination":[],"aug_dim":"","rhythm_ratio":1.0,"chromatic_density":0.364},{"voice":0,"pitch":71,"start":151.3332,"duration":0.1667,"velocity":127,"measure":57,"beat":4.0,"subject_pos":-1,"motif":"","motif_pos":-1,"best_pos":6,"similarity":0.593,"stretto":false,"stretto_voices":0,"combination":[],"aug_dim":"","rhythm_ratio":1.0,"chromatic_density":0.364},{"voice":1,"pitch":53,"start":151.3332,"duration":0.1667,"velocity":127,"measure":57,"beat":4.0,"subject_pos":-1,"motif":"enigmatic_cell","motif_pos":0,"best_pos":0,"similarity":1.0,"stretto":false,"stretto_voices":0,"combination":[],"aug_dim":"","rhythm_ratio":1.0,"chromatic_density":0.364},{"voice":0,"pitch":72,"start":151.4998,"duration":0.1667,"velocity":127,"measure":57,"beat":4.25,"subject_pos":-1,"motif":"","motif_pos":-1,"best_pos":5,"similarity":0.436,"stretto":false,"stretto_voices":0,"combination":[],"aug_dim":"","rhythm_ratio":1.0,"chromatic_density":0.364},{"voice":1,"pitch":52,"start":151.4998,"duration":0.1667,"velocity":127,"measure":57,"beat":4.25,"subject_pos":-1,"motif":"enigmatic_cell","motif_pos":1,"best_pos":1,"similarity":1.0,"stretto":false,"stretto_voices":0,"combination":[],"aug_dim":"","rhythm_ratio":1.0,"chromatic_density":0.364},{"voice":0,"pitch":71,"start":151.6665,"duration":0.1667,"velocity":127,"measure":57,"beat":4.5,"subject_pos":-1,"motif":"","motif_pos":-1,"best_pos":4,"similarity":0.539,"stretto":false,"stretto_voices":0,"combination":[],"aug_dim":"","rhythm_ratio":1.0,"chromatic_density":0.364},{"voice":1,"pitch":57,"start":151.6665,"duration":0.1667,"velocity":127,"measure":57,"beat":4.5,"subject_pos":-1,"motif":"enigmatic_cell","motif_pos":2,"best_pos":2,"similarity":1.0,"stretto":false,"stretto_voices":0,"combination":[],"aug_dim":"","rhythm_ratio":1.0,"chromatic_density":0.364},{"voice":0,"pitch":73,"start":151.8332,"duration":0.1667,"velocity":127,"measure":57,"beat":4.75,"subject_pos":-1,"motif":"","motif_pos":-1,"best_pos":6,"similarity":0.625,"stretto":false,"stretto_voices":0,"combination":[],"aug_dim":"","rhythm_ratio":1.0,"chromatic_density":0.364},{"voice":1,"pitch":55,"start":151.8332,"duration":0.1667,"velocity":127,"measure":57,"beat":4.75,"subject_pos":-1,"motif":"","motif_pos":-1,"best_pos":2,"similarity":0.721,"stretto":false,"stretto_voices":0,"combination":[],"aug_dim":"","rhythm_ratio":1.0,"chromatic_density":0.364},{"voice":0,"pitch":74,"start":151.9998,"duration":0.1667,"velocity":127,"measure":58,"beat":1.0,"subject_pos":-1,"motif":"","motif_pos":-1,"best_pos":3,"similarity":0.543,"stretto":false,"stretto_voices":0,"combination":[],"aug_dim":"","rhythm_ratio":1.0,"chromatic_density":0.615},{"voice":1,"pitch":53,"start":151.9998,"duration":0.1667,"velocity":127,"measure":58,"beat":1.0,"subject_pos":-1,"motif":"","motif_pos":-1,"best_pos":3,"similarity":0.664,"stretto":false,"stretto_voices":0,"combination":[],"aug_dim":"","rhythm_ratio":1.0,"chromatic_density":0.615},{"voice":0,"pitch":73,"start":152.1665,"duration":0.1667,"velocity":127,"measure":58,"beat":1.25,"subject_pos":-1,"motif":"","motif_pos":-1,"best_pos":4,"similarity":0.743,"stretto":false,"stretto_voices":0,"combination":[],"aug_dim":"","rhythm_ratio":1.0,"chromatic_density":0.615},{"voice":1,"pitch":52,"start":152.1665,"duration":0.1667,"velocity":127,"measure":58,"beat":1.25,"subject_pos":-1,"motif":"","motif_pos":-1,"best_pos":4,"similarity":0.543,"stretto":false,"stretto_voices":0,"combination":[],"aug_dim":"","rhythm_ratio":1.0,"chromatic_density":0.615},{"voice":0,"pitch":74,"start":152.3332,"duration":0.1667,"velocity":127,"measure":58,"beat":1.5,"subject_pos":-1,"motif":"","motif_pos":-1,"best_pos":5,"similarity":0.736,"stretto":false,"stretto_voices":0,"combination":[],"aug_dim":"","rhythm_ratio":1.0,"chromatic_density":0.615},{"voice":1,"pitch":50,"start":152.3332,"duration":0.1667,"velocity":127,"measure":58,"beat":1.5,"subject_pos":-1,"motif":"","motif_pos":-1,"best_pos":3,"similarity":0.643,"stretto":false,"stretto_voices":0,"combination":[],"aug_dim":"","rhythm_ratio":1.0,"chromatic_density":0.615},{"voice":0,"pitch":76,"start":152.4998,"duration":0.1667,"velocity":127,"measure":58,"beat":1.75,"subject_pos":-1,"motif":"","motif_pos":-1,"best_pos":6,"similarity":0.529,"stretto":false,"stretto_voices":0,"combination":[],"aug_dim":"","rhythm_ratio":1.0,"chromatic_density":0.615},{"voice":1,"pitch":49,"start":152.4998,"duration":0.5,"velocity":127,"measure":58,"beat":1.75,"subject_pos":-1,"motif":"","motif_pos":-1,"best_pos":4,"similarity":0.679,"stretto":false,"stretto_voices":0,"combination":[],"aug_dim":"","rhythm_ratio":1.0,"chromatic_density":0.615},{"voice":0,"pitch":74,"start":152.6665,"duration":0.1667,"velocity":127,"measure":58,"beat":2.0,"subject_pos":-1,"motif":"","motif_pos":-1,"best_pos":5,"similarity":0.479,"stretto":false,"stretto_voices":0,"combination":[],"aug_dim":"","rhythm_ratio":1.0,"chromatic_density":0.615},{"voice":0,"pitch":76,"start":152.8332,"duration":0.1667,"velocity":127,"measure":58,"beat":2.25,"subject_pos":-1,"motif":"","motif_pos":-1,"best_pos":6,"similarity":0.593,"stretto":false,"stretto_voices":0,"combination":[],"aug_dim":"","rhythm_ratio":1.0,"chromatic_density":0.615},{"voice":0,"pitch":77,"start":152.9998,"duration":0.3333,"velocity":127,"measure":58,"beat":2.5,"subject_pos":-1,"motif":"","motif_pos":-1,"best_pos":7,"similarity":0.436,"stretto":false,"stretto_voices":0,"combination":[],"aug_dim":"","rhythm_ratio":1.0,"chromatic_density":0.615},{"voice":1,"pitch":50,"start":152.9998,"duration":0.3333,"velocity":127,"measure":58,"beat":2.5,"subject_pos":-1,"motif":"","motif_pos":-1,"best_pos":5,"similarity":0.464,"stretto":false,"stretto_voices":0,"combination":[],"aug_dim":"","rhythm_ratio":1.0,"chromatic_density":0.615},{"voice":0,"pitch":76,"start":153.4998,"duration":0.3333,"velocity":127,"measure":58,"beat":3.25,"subject_pos":-1,"motif":"","motif_pos":-1,"best_pos":2,"similarity":0.389,"stretto":false,"stretto_voices":0,"combination":[],"aug_dim":"","rhythm_ratio":1.0,"chromatic_density":0.615},{"voice":0,"pitch":74,"start":153.9998,"duration":0.3333,"velocity":127,"measure":58,"beat":4.0,"subject_pos":-1,"motif":"","motif_pos":-1,"best_pos":2,"similarity":0.457,"stretto":false,"stretto_voices":0,"combination":[],"aug_dim":"","rhythm_ratio":1.0,"chromatic_density":0.615},{"voice":0,"pitch":74,"start":154.413,"duration":0.3333,"velocity":127,"measure":58,"beat":4.6198,"subject_pos":-1,"motif":"","motif_pos":-1,"best_pos":3,"similarity":0.529,"stretto":false,"stretto_voices":0,"combination":[],"aug_dim":"","rhythm_ratio":1.0,"chromatic_density":0.615},{"voice":0,"pitch":73,"start":154.4998,"duration":0.8333,"velocity":127,"measure":58,"beat":4.75,"subject_pos":-1,"motif":"","motif_pos":-1,"best_pos":4,"similarity":0.55,"stretto":false,"stretto_voices":0,"combination":[],"aug_dim":"","rhythm_ratio":1.0,"chromatic_density":0.615},{"voice":0,"pitch":69,"start":155.3332,"duration":0.1667,"velocity":127,"measure":59,"beat":2.0,"subject_pos":-1,"motif":"","motif_pos":-1,"best_pos":5,"similarity":0.507,"stretto":false,"stretto_voices":0,"combination":[],"aug_dim":"","rhythm_ratio":1.0,"chromatic_density":0.462},{"voice":0,"pitch":71,"start":155.4998,"duration":0.3333,"velocity":127,"measure":59,"beat":2.25,"subject_pos":-1,"motif":"","motif_pos":-1,"best_pos":5,"similarity":0.604,"stretto":false,"stretto_voices":0,"combination":[],"aug_dim":"","rhythm_ratio":1.0,"chromatic_density":0.462},{"voice":0,"pitch":73,"start":155.8332,"duration":0.1667,"velocity":127,"measure":59,"beat":2.75,"subject_pos":-1,"motif":"","motif_pos":-1,"best_pos":6,"similarity":0.65,"stretto":false,"stretto_voices":0,"combination":[],"aug_dim":"","rhythm_ratio":1.0,"chromatic_density":0.462},{"voice":0,"pitch":74,"start":155.9998,"duration":0.1667,"velocity":127,"measure":59,"beat":3.0,"subject_pos":-1,"motif":"","motif_pos":-1,"best_pos":7,"similarity":0.464,"stretto":false,"stretto_voices":0,"combination":[],"aug_dim":"","rhythm_ratio":1.0,"chromatic_density":0.462},{"voice":1,"pitch":62,"start":155.9998,"duration":0.5,"velocity":127,"measure":59,"beat":3.0,"subject_pos":-1,"motif":"","motif_pos":-1,"best_pos":2,"similarity":0.3,"stretto":false,"stretto_voices":0,"combination":[],"aug_dim":"","rhythm_ratio":1.0,"chromatic_density":0.462},{"voice":0,"pitch":72,"start":156.1665,"duration":0.1667,"velocity":127,"measure":59,"beat":3.25,"subject_pos":-1,"motif":"","motif_pos":-1,"best_pos":3,"similarity":0.593,"stretto":false,"stretto_voices":0,"combination":[],"aug_dim":"","rhythm_ratio":1.0,"chromatic_density":0.462},{"voice":0,"pitch":71,"start":156.3332,"duration":0.1667,"velocity":127,"measure":59,"beat":3.5,"subject_pos":-1,"motif":"","motif_pos":-1,"best_pos":4,"similarity":0.668,"stretto":false,"stretto_voices":0,"combination":[],"aug_dim":"","rhythm_ratio":1.0,"chromatic_density":0.462},{"voice":0,"pitch":72,"start":156.4998,"duration":0.3333,"velocity":127,"measure":59,"beat":3.75,"subject_pos":-1,"motif":"","motif_pos":-1,"best_pos":5,"similarity":0.5,"stretto":false,"stretto_voices":0,"combination":[],"aug_dim":"","rhythm_ratio":1.0,"chromatic_density":0.462},{"voice":1,"pitch":57,"start":156.4998,"duration":0.1667,"velocity":127,"measure":59,"beat":3.75,"subject_pos":-1,"motif":"","motif_pos":-1,"best_pos":3,"similarity":0.579,"stretto":false,"stretto_voices":0,"combination":[],"aug_dim":"","rhythm_ratio":1.0,"chromatic_density":0.462},{"voice":1,"pitch":56,"start":156.6665,"duration":0.1667,"velocity":127,"measure":59,"beat":4.0,"subject_pos":-1,"motif":"","motif_pos":-1,"best_pos":4,"similarity":0.757,"stretto":false,"stretto_voices":0,"combination":[],"aug_dim":"","rhythm_ratio":1.0,"chromatic_density":0.462},{"voice":0,"pitch":81,"start":156.8332,"duration":0.1667,"velocity":127,"measure":59,"beat":4.25,"subject_pos":-1,"motif":"","motif_pos":-1,"best_pos":3,"similarity":0.371,"stretto":false,"stretto_voices":0,"combination":[],"aug_dim":"","rhythm_ratio":1.0,"chromatic_density":0.462},{"voice":1,"pitch":57,"start":156.8332,"duration":0.1667,"velocity":127,"measure":59,"beat":4.25,"subject_pos":-1,"motif":"","motif_pos":-1,"best_pos":5,"similarity":0.746,"stretto":false,"stretto_voices":0,"combination":[],"aug_dim":"","rhythm_ratio":1.0,"chromatic_density":0.462},{"voice":0,"pitch":80,"start":156.9998,"duration":0.3333,"velocity":127,"measure":59,"beat":4.5,"subject_pos":-1,"motif":"","motif_pos":-1,"best_pos":4,"similarity":0.454,"stretto":false,"stretto_voices":0,"combination":[],"aug_dim":"","rhythm_ratio":1.0,"chromatic_density":0.462},{"voice":1,"pitch":59,"start":156.9998,"duration":0.1667,"velocity":127,"measure":59,"beat":4.5,"subject_pos":-1,"motif":"","motif_pos":-1,"best_pos":6,"similarity":0.529,"stretto":false,"stretto_voices":0,"combination":[],"aug_dim":"","rhythm_ratio":1.0,"chromatic_density":0.462},{"voice":1,"pitch":57,"start":157.1665,"duration":0.1667,"velocity":127,"measure":59,"beat":4.75,"subject_pos":-1,"motif":"","motif_pos":-1,"best_pos":5,"similarity":0.479,"stretto":false,"stretto_voices":0,"combination":[],"aug_dim":"","rhythm_ratio":1.0,"chromatic_density":0.462},{"voice":0,"pitch":74,"start":157.3332,"duration":0.1667,"velocity":127,"measure":60,"beat":1.0,"subject_pos":-1,"motif":"","motif_pos":-1,"best_pos":5,"similarity":0.464,"stretto":false,"stretto_voices":0,"combination":[],"aug_dim":"","rhythm_ratio":1.0,"chromatic_density":0.435},{"voice":1,"pitch":59,"start":157.3332,"duration":0.1667,"velocity":127,"measure":60,"beat":1.0,"subject_pos":-1,"motif":"","motif_pos":-1,"best_pos":6,"similarity":0.593,"stretto":false,"stretto_voices":0,"combination":[],"aug_dim":"","rhythm_ratio":1.0,"chromatic_density":0.435},{"voice":0,"pitch":76,"start":157.4998,"duration":0.3333,"velocity":127,"measure":60,"beat":1.25,"subject_pos":-1,"motif":"","motif_pos":-1,"best_pos":6,"similarity":0.429,"stretto":false,"stretto_voices":0,"combination":[],"aug_dim":"","rhythm_ratio":1.0,"chromatic_density":0.435},{"voice":1,"pitch":60,"start":157.4998,"duration":0.1667,"velocity":127,"measure":60,"beat":1.25,"subject_pos":-1,"motif":"","motif_pos":-1,"best_pos":5,"similarity":0.436,"stretto":false,"stretto_voices":0,"combination":[],"aug_dim":"","rhythm_ratio":1.0,"chromatic_density":0.435},{"voice":1,"pitch":59,"start":157.6665,"duration":0.1667,"velocity":127,"measure":60,"beat":1.5,"subject_pos":-1,"motif":"","motif_pos":-1,"best_pos":4,"similarity":0.539,"stretto":false,"stretto_voices":0,"combination":[],"aug_dim":"","rhythm_ratio":1.0,"chromatic_density":0.435},{"voice":0,"pitch":79,"start":157.8332,"duration":0.1667,"velocity":127,"measure":60,"beat":1.75,"subject_pos":-1,"motif":"","motif_pos":-1,"best_pos":1,"similarity":0.429,"stretto":false,"stretto_voices":0,"combination":[],"aug_dim":"","rhythm_ratio":1.0,"chromatic_density":0.435},{"voice":1,"pitch":61,"start":157.8332,"duration":0.1667,"velocity":127,"measure":60,"beat":1.75,"subject_pos":-1,"motif":"","motif_pos":-1,"best_pos":6,"similarity":0.625,"stretto":false,"stretto_voices":0,"combination":[],"aug_dim":"","rhythm_ratio":1.0,"chromatic_density":0.435},{"voice":0,"pitch":77,"start":157.9998,"duration":0.1667,"velocity":127,"measure":60,"beat":2.0,"subject_pos":-1,"motif":"","motif_pos":-1,"best_pos":2,"similarity":0.482,"stretto":false,"stretto_voices":0,"combination":[],"aug_dim":"","rhythm_ratio":1.0,"chromatic_density":0.435},{"voice":1,"pitch":62,"start":157.9998,"duration":0.1667,"velocity":127,"measure":60,"beat":2.0,"subject_pos":-1,"motif":"","motif_pos":-1,"best_pos":3,"similarity":0.543,"stretto":false,"stretto_voices":0,"combination":[],"aug_dim":"","rhythm_ratio":1.0,"chromatic_density":0.435},{"voice":0,"pitch":76,"start":158.1665,"duration":0.1667,"velocity":127,"measure":60,"beat":2.25,"subject_pos":-1,"motif":"","motif_pos":-1,"best_pos":2,"similarity":0.429,"stretto":false,"stretto_voices":0,"combination":[],"aug_dim":"","rhythm_ratio":1.0,"chromatic_density":0.435},{"voice":1,"pitch":61,"start":158.1665,"duration":0.1667,"velocity":127,"measure":60,"beat":2.25,"subject_pos":-1,"motif":"","motif_pos":-1,"best_pos":4,"similarity":0.743,"stretto":false,"stretto_voices":0,"combination":[],"aug_dim":"","rhythm_ratio":1.0,"chromatic_density":0.435},{"voice":0,"pitch":74,"start":158.3332,"duration":0.1667,"velocity":127,"measure":60,"beat":2.5,"subject_pos":-1,"motif":"","motif_pos":-1,"best_pos":3,"similarity":0.507,"stretto":false,"stretto_voices":0,"combination":[],"aug_dim":"","rhythm_ratio":1.0,"chromatic_density":0.435},{"voice":1,"pitch":62,"start":158.3332,"duration":0.1667,"velocity":127,"measure":60,"beat":2.5,"subject_pos":-1,"motif":"","motif_pos":-1,"best_pos":5,"similarity":0.736,"stretto":false,"stretto_voices":0,"combination":[],"aug_dim":"","rhythm_ratio":1.0,"chromatic_density":0.435},{"voice":0,"pitch":73,"start":158.4998,"duration":0.3333,"velocity":127,"measure":60,"beat":2.75,"subject_pos":-1,"motif":"","motif_pos":-1,"best_pos":4,"similarity":0.407,"stretto":false,"stretto_voices":0,"combination":[],"aug_dim":"","rhythm_ratio":1.0,"chromatic_density":0.435},{"voice":1,"pitch":64,"start":158.4998,"duration":0.1667,"velocity":127,"measure":60,"beat":2.75,"subject_pos":-1,"motif":"","motif_pos":-1,"best_pos":6,"similarity":0.529,"stretto":false,"stretto_voices":0,"combination":[],"aug_dim":"","rhythm_ratio":1.0,"chromatic_density":0.435},{"voice":1,"pitch":62,"start":158.6665,"duration":0.1667,"velocity":127,"measure":60,"beat":3.0,"subject_pos":-1,"motif":"","motif_pos":-1,"best_pos":5,"similarity":0.479,"stretto":false,"stretto_voices":0,"combination":[],"aug_dim":"","rhythm_ratio":1.0,"chromatic_density":0.435},{"voice":0,"pitch":82,"start":158.8332,"duration":0.1667,"velocity":127,"measure":60,"beat":3.25,"subject_pos":-1,"motif":"","motif_pos":-1,"best_pos":3,"similarity":0.357,"stretto":false,"stretto_voices":0,"combination":[],"aug_dim":"","rhythm_ratio":1.0,"chromatic_density":0.435},{"voice":1,"pitch":64,"start":158.8332,"duration":0.1667,"velocity":127,"measure":60,"beat":3.25,"subject_pos":-1,"motif":"","motif_pos":-1,"best_pos":6,"similarity":0.593,"stretto":false,"stretto_voices":0,"combination":[],"aug_dim":"","rhythm_ratio":1.0,"chromatic_density":0.435},{"voice":0,"pitch":81,"start":158.9998,"duration":0.1667,"velocity":127,"measure":60,"beat":3.5,"subject_pos":-1,"motif":"","motif_pos":-1,"best_pos":1,"similarity":0.464,"stretto":false,"stretto_voices":0,"combination":[],"aug_dim":"","rhythm_ratio":1.0,"chromatic_density":0.435},{"voice":1,"pitch":65,"start":158.9998,"duration":0.3333,"velocity":127,"measure":60,"beat":3.5,"subject_pos":-1,"motif":"","motif_pos":-1,"best_pos":7,"similarity":0.436,"stretto":false,"stretto_voices":0,"combination":[],"aug_dim":"","rhythm_ratio":1.0,"chromatic_density":0.435},{"voice":0,"pitch":77,"start":159.1665,"duration":0.1667,"velocity":127,"measure":60,"beat":3.75,"subject_pos":-1,"motif":"","motif_pos":-1,"best_pos":2,"similarity":0.65,"stretto":false,"stretto_voices":0,"combination":[],"aug_dim":"","rhythm_ratio":1.0,"chromatic_density":0.435},{"voice":0,"pitch":74,"start":159.3332,"duration":0.1667,"velocity":127,"measure":60,"beat":4.0,"subject_pos":-1,"motif":"","motif_pos":-1,"best_pos":3,"similarity":0.586,"stretto":false,"stretto_voices":0,"combination":[],"aug_dim":"","rhythm_ratio":1.0,"chromatic_density":0.435},{"voice":0,"pitch":74,"start":159.4998,"duration":0.1667,"velocity":127,"measure":60,"beat":4.25,"subject_pos":-1,"motif":"","motif_pos":-1,"best_pos":4,"similarity":0.421,"stretto":false,"stretto_voices":0,"combination":[],"aug_dim":"","rhythm_ratio":1.0,"chromatic_density":0.435},{"voice":1,"pitch":64,"start":159.4998,"duration":0.3333,"velocity":127,"measure":60,"beat":4.25,"subject_pos":-1,"motif":"","motif_pos":-1,"best_pos":2,"similarity":0.389,"stretto":false,"stretto_voices":0,"combination":[],"aug_dim":"","rhythm_ratio":1.0,"chromatic_density":0.435},{"voice":0,"pitch":79,"start":159.6665,"duration":0.1667,"velocity":127,"measure":60,"beat":4.5,"subject_pos":-1,"motif":"","motif_pos":-1,"best_pos":1,"similarity":0.329,"stretto":false,"stretto_voices":0,"combination":[],"aug_dim":"","rhythm_ratio":1.0,"chromatic_density":0.435},{"voice":0,"pitch":72,"start":159.8332,"duration":0.1667,"velocity":127,"measure":60,"beat":4.75,"subject_pos":-1,"motif":"","motif_pos":-1,"best_pos":2,"similarity":0.2,"stretto":false,"stretto_voices":0,"combination":[],"aug_dim":"","rhythm_ratio":1.0,"chromatic_density":0.435},{"voice":0,"pitch":72,"start":159.9998,"duration":0.1667,"velocity":127,"measure":61,"beat":1.0,"subject_pos":-1,"motif":"","motif_pos":-1,"best_pos":0,"similarity":0.307,"stretto":false,"stretto_voices":0,"combination":[],"aug_dim":"","rhythm_ratio":1.0,"chromatic_density":0.364},{"voice":1,"pitch":62,"start":159.9998,"duration":0.3333,"velocity":127,"measure":61,"beat":1.0,"subject_pos":-1,"motif":"","motif_pos":-1,"best_pos":2,"similarity":0.457,"stretto":false,"stretto_voices":0,"combination":[],"aug_dim":"","rhythm_ratio":1.0,"chromatic_density":0.364},{"voice":0,"pitch":77,"start":160.1665,"duration":0.1667,"velocity":127,"measure":61,"beat":1.25,"subject_pos":-1,"motif":"","motif_pos":-1,"best_pos":1,"similarity":0.4,"stretto":false,"stretto_voices":0,"combination":[],"aug_dim":"","rhythm_ratio":1.0,"chromatic_density":0.364},{"voice":0,"pitch":70,"start":160.3332,"duration":0.1667,"velocity":127,"measure":61,"beat":1.5,"subject_pos":-1,"motif":"","motif_pos":-1,"best_pos":2,"similarity":0.35,"stretto":false,"stretto_voices":0,"combination":[],"aug_dim":"","rhythm_ratio":1.0,"chromatic_density":0.364},{"voice":1,"pitch":62,"start":160.413,"duration":0.3333,"velocity":127,"measure":61,"beat":1.6198,"subject_pos":-1,"motif":"","motif_pos":-1,"best_pos":3,"similarity":0.529,"stretto":false,"stretto_voices":0,"combination":[],"aug_dim":"","rhythm_ratio":1.0,"chromatic_density":0.364},{"voice":0,"pitch":70,"start":160.4998,"duration":0.1667,"velocity":127,"measure":61,"beat":1.75,"subject_pos":-1,"motif":"","motif_pos":-1,"best_pos":3,"similarity":0.486,"stretto":false,"stretto_voices":0,"combination":[],"aug_dim":"","rhythm_ratio":1.0,"chromatic_density":0.364},{"voice":1,"pitch":61,"start":160.4998,"duration":0.8333,"velocity":127,"measure":61,"beat":1.75,"subject_pos":-1,"motif":"","motif_pos":-1,"best_pos":4,"similarity":0.55,"stretto":false,"stretto_voices":0,"combination":[],"aug_dim":"","rhythm_ratio":1.0,"chromatic_density":0.364},{"voice":0,"pitch":69,"start":160.6665,"duration":0.1667,"velocity":127,"measure":61,"beat":2.0,"subject_pos":-1,"motif":"","motif_pos":-1,"best_pos":4,"similarity":0.486,"stretto":false,"stretto_voices":0,"combination":[],"aug_dim":"","rhythm_ratio":1.0,"chromatic_density":0.364},{"voice":0,"pitch":67,"start":160.8332,"duration":0.1667,"velocity":127,"measure":61,"beat":2.25,"subject_pos":-1,"motif":"","motif_pos":-1,"best_pos":5,"similarity":0.479,"stretto":false,"stretto_voices":0,"combination":[],"aug_dim":"","rhythm_ratio":1.0,"chromatic_density":0.364},{"voice":0,"pitch":69,"start":160.9998,"duration":0.1667,"velocity":127,"measure":61,"beat":2.5,"subject_pos":-1,"motif":"","motif_pos":-1,"best_pos":6,"similarity":0.4,"stretto":false,"stretto_voices":0,"combination":[],"aug_dim":"","rhythm_ratio":1.0,"chromatic_density":0.364},{"voice":0,"pitch":73,"start":161.1665,"duration":0.1667,"velocity":127,"measure":61,"beat":2.75,"subject_pos":-1,"motif":"","motif_pos":-1,"best_pos":5,"similarity":0.257,"stretto":false,"stretto_voices":0,"combination":[],"aug_dim":"","rhythm_ratio":1.0,"chromatic_density":0.364},{"voice":0,"pitch":76,"start":161.3332,"duration":0.1667,"velocity":127,"measure":61,"beat":3.0,"subject_pos":-1,"motif":"","motif_pos":-1,"best_pos":6,"similarity":0.236,"stretto":false,"stretto_voices":0,"combination":[],"aug_dim":"","rhythm_ratio":1.0,"chromatic_density":0.364},{"voice":1,"pitch":57,"start":161.3332,"duration":0.1667,"velocity":127,"measure":61,"beat":3.0,"subject_pos":-1,"motif":"","motif_pos":-1,"best_pos":5,"similarity":0.507,"stretto":false,"stretto_voices":0,"combination":[],"aug_dim":"","rhythm_ratio":1.0,"chromatic_density":0.364},{"voice":0,"pitch":79,"start":161.4998,"duration":0.1667,"velocity":127,"measure":61,"beat":3.25,"subject_pos":-1,"motif":"","motif_pos":-1,"best_pos":1,"similarity":0.411,"stretto":false,"stretto_voices":0,"combination":[],"aug_dim":"","rhythm_ratio":1.0,"chromatic_density":0.364},{"voice":1,"pitch":59,"start":161.4998,"duration":0.3333,"velocity":127,"measure":61,"beat":3.25,"subject_pos":-1,"motif":"","motif_pos":-1,"best_pos":5,"similarity":0.604,"stretto":false,"stretto_voices":0,"combination":[],"aug_dim":"","rhythm_ratio":1.0,"chromatic_density":0.364},{"voice":0,"pitch":77,"start":161.6665,"duration":0.1667,"velocity":127,"measure":61,"beat":3.5,"subject_pos":-1,"motif":"","motif_pos":-1,"best_pos":3,"similarity":0.596,"stretto":false,"stretto_voices":0,"combination":[],"aug_dim":"","rhythm_ratio":1.0,"chromatic_density":0.364},{"voice":0,"pitch":76,"start":161.8332,"duration":0.1667,"velocity":127,"measure":61,"beat":3.75,"subject_pos":-1,"motif":"","motif_pos":-1,"best_pos":4,"similarity":0.664,"stretto":false,"stretto_voices":0,"combination":[],"aug_dim":"","rhythm_ratio":1.0,"chromatic_density":0.364},{"voice":1,"pitch":61,"start":161.8332,"duration":0.1667,"velocity":127,"measure":61,"beat":3.75,"subject_pos":-1,"motif":"","motif_pos":-1,"best_pos":6,"similarity":0.65,"stretto":false,"stretto_voices":0,"combination":[],"aug_dim":"","rhythm_ratio":1.0,"chromatic_density":0.364},{"voice":0,"pitch":77,"start":161.9998,"duration":0.1667,"velocity":127,"measure":61,"beat":4.0,"subject_pos":-1,"motif":"","motif_pos":-1,"best_pos":5,"similarity":0.507,"stretto":false,"stretto_voices":0,"combination":[],"aug_dim":"","rhythm_ratio":1.0,"chromatic_density":0.364},{"voice":1,"pitch":62,"start":161.9998,"duration":0.1667,"velocity":127,"measure":61,"beat":4.0,"subject_pos":-1,"motif":"","motif_pos":-1,"best_pos":7,"similarity":0.464,"stretto":false,"stretto_voices":0,"combination":[],"aug_dim":"","rhythm_ratio":1.0,"chromatic_density":0.364},{"voice":0,"pitch":76,"start":162.1665,"duration":0.1667,"velocity":127,"measure":61,"beat":4.25,"subject_pos":-1,"motif":"","motif_pos":-1,"best_pos":4,"similarity":0.514,"stretto":false,"stretto_voices":0,"combination":[],"aug_dim":"","rhythm_ratio":1.0,"chromatic_density":0.364},{"voice":1,"pitch":60,"start":162.1665,"duration":0.1667,"velocity":127,"measure":61,"beat":4.25,"subject_pos":-1,"motif":"","motif_pos":-1,"best_pos":3,"similarity":0.593,"stretto":false,"stretto_voices":0,"combination":[],"aug_dim":"","rhythm_ratio":1.0,"chromatic_density":0.364},{"voice":0,"pitch":74,"start":162.3332,"duration":0.1667,"velocity":127,"measure":61,"beat":4.5,"subject_pos":-1,"motif":"","motif_pos":-1,"best_pos":5,"similarity":0.479,"stretto":false,"stretto_voices":0,"combination":[],"aug_dim":"","rhythm_ratio":1.0,"chromatic_density":0.364},{"voice":1,"pitch":59,"start":162.3332,"duration":0.1667,"velocity":127,"measure":61,"beat":4.5,"subject_pos":-1,"motif":"","motif_pos":-1,"best_pos":4,"similarity":0.668,"stretto":false,"stretto_voices":0,"combination":[],"aug_dim":"","rhythm_ratio":1.0,"chromatic_density":0.364},{"voice":0,"pitch":76,"start":162.4998,"duration":0.1667,"velocity":127,"measure":61,"beat":4.75,"subject_pos":-1,"motif":"","motif_pos":-1,"best_pos":6,"similarity":0.4,"stretto":false,"stretto_voices":0,"combination":[],"aug_dim":"","rhythm_ratio":1.0,"chromatic_density":0.364},{"voice":1,"pitch":60,"start":162.4998,"duration":0.3333,"velocity":127,"measure":61,"beat":4.75,"subject_pos":-1,"motif":"","motif_pos":-1,"best_pos":5,"similarity":0.5,"stretto":false,"stretto_voices":0,"combination":[],"aug_dim":"","rhythm_ratio":1.0,"chromatic_density":0.364},{"voice":0,"pitch":74,"start":162.6665,"duration":0.1667,"velocity":127,"measure":62,"beat":1.0,"subject_pos":-1,"motif":"","motif_pos":-1,"best_pos":2,"similarity":0.464,"stretto":false,"stretto_voices":0,"combination":[],"aug_dim":"","rhythm_ratio":1.0,"chromatic_density":0.346},{"voice":0,"pitch":72,"start":162.8332,"duration":0.1667,"velocity":127,"measure":62,"beat":1.25,"subject_pos":-1,"motif":"","motif_pos":-1,"best_pos":5,"similarity":0.4,"stretto":false,"stretto_voices":0,"combination":[],"aug_dim":"","rhythm_ratio":1.0,"chromatic_density":0.346},{"voice":1,"pitch":69,"start":162.8332,"duration":0.1667,"velocity":127,"measure":62,"beat":1.25,"subject_pos":-1,"motif":"","motif_pos":-1,"best_pos":3,"similarity":0.371,"stretto":false,"stretto_voices":0,"combination":[],"aug_dim":"","rhythm_ratio":1.0,"chromatic_density":0.346},{"voice":0,"pitch":74,"start":162.9998,"duration":0.1667,"velocity":127,"measure":62,"beat":1.5,"subject_pos":-1,"motif":"","motif_pos":-1,"best_pos":2,"similarity":0.386,"stretto":false,"stretto_voices":0,"combination":[],"aug_dim":"","rhythm_ratio":1.0,"chromatic_density":0.346},{"voice":1,"pitch":68,"start":162.9998,"duration":0.3333,"velocity":127,"measure":62,"beat":1.5,"subject_pos":-1,"motif":"","motif_pos":-1,"best_pos":4,"similarity":0.454,"stretto":false,"stretto_voices":0,"combination":[],"aug_dim":"","rhythm_ratio":1.0,"chromatic_density":0.346},{"voice":0,"pitch":72,"start":163.1665,"duration":0.1667,"velocity":127,"measure":62,"beat":1.75,"subject_pos":-1,"motif":"","motif_pos":-1,"best_pos":3,"similarity":0.657,"stretto":false,"stretto_voices":0,"combination":[],"aug_dim":"","rhythm_ratio":1.0,"chromatic_density":0.346},{"voice":0,"pitch":71,"start":163.3332,"duration":0.1667,"velocity":127,"measure":62,"beat":2.0,"subject_pos":-1,"motif":"","motif_pos":-1,"best_pos":4,"similarity":0.829,"stretto":false,"stretto_voices":0,"combination":[],"aug_dim":"","rhythm_ratio":1.0,"chromatic_density":0.346},{"voice":1,"pitch":62,"start":163.3332,"duration":0.1667,"velocity":127,"measure":62,"beat":2.0,"subject_pos":-1,"motif":"","motif_pos":-1,"best_pos":5,"similarity":0.464,"stretto":false,"stretto_voices":0,"combination":[],"aug_dim":"","rhythm_ratio":1.0,"chromatic_density":0.346},{"voice":0,"pitch":72,"start":163.4998,"duration":0.1667,"velocity":127,"measure":62,"beat":2.25,"subject_pos":-1,"motif":"","motif_pos":-1,"best_pos":5,"similarity":0.821,"stretto":false,"stretto_voices":0,"combination":[],"aug_dim":"","rhythm_ratio":1.0,"chromatic_density":0.346},{"voice":1,"pitch":64,"start":163.4998,"duration":0.3333,"velocity":127,"measure":62,"beat":2.25,"subject_pos":-1,"motif":"","motif_pos":-1,"best_pos":6,"similarity":0.429,"stretto":false,"stretto_voices":0,"combination":[],"aug_dim":"","rhythm_ratio":1.0,"chromatic_density":0.346},{"voice":0,"pitch":74,"start":163.6665,"duration":0.1667,"velocity":127,"measure":62,"beat":2.5,"subject_pos":-1,"motif":"","motif_pos":-1,"best_pos":6,"similarity":0.643,"stretto":false,"stretto_voices":0,"combination":[],"aug_dim":"","rhythm_ratio":1.0,"chromatic_density":0.346},{"voice":0,"pitch":76,"start":163.8332,"duration":0.1667,"velocity":127,"measure":62,"beat":2.75,"subject_pos":-1,"motif":"","motif_pos":-1,"best_pos":6,"similarity":0.404,"stretto":false,"stretto_voices":0,"combination":[],"aug_dim":"","rhythm_ratio":1.0,"chromatic_density":0.346},{"voice":1,"pitch":67,"start":163.8332,"duration":0.1667,"velocity":127,"measure":62,"beat":2.75,"subject_pos":-1,"motif":"","motif_pos":-1,"best_pos":1,"similarity":0.429,"stretto":false,"stretto_voices":0,"combination":[],"aug_dim":"","rhythm_ratio":1.0,"chromatic_density":0.346},{"voice":0,"pitch":74,"start":163.9998,"duration":0.1667,"velocity":127,"measure":62,"beat":3.0,"subject_pos":-1,"motif":"","motif_pos":-1,"best_pos":5,"similarity":0.471,"stretto":false,"stretto_voices":0,"combination":[],"aug_dim":"","rhythm_ratio":1.0,"chromatic_density":0.346},{"voice":1,"pitch":65,"start":163.9998,"duration":0.1667,"velocity":127,"measure":62,"beat":3.0,"subject_pos":-1,"motif":"","motif_pos":-1,"best_pos":2,"similarity":0.482,"stretto":false,"stretto_voices":0,"combination":[],"aug_dim":"","rhythm_ratio":1.0,"chromatic_density":0.346},{"voice":0,"pitch":76,"start":164.1665,"duration":0.1667,"velocity":127,"measure":62,"beat":3.25,"subject_pos":-1,"motif":"","motif_pos":-1,"best_pos":6,"similarity":0.593,"stretto":false,"stretto_voices":0,"combination":[],"aug_dim":"","rhythm_ratio":1.0,"chromatic_density":0.346},{"voice":1,"pitch":64,"start":164.1665,"duration":0.1667,"velocity":127,"measure":62,"beat":3.25,"subject_pos":-1,"motif":"","motif_pos":-1,"best_pos":2,"similarity":0.429,"stretto":false,"stretto_voices":0,"combination":[],"aug_dim":"","rhythm_ratio":1.0,"chromatic_density":0.346},{"voice":0,"pitch":77,"start":164.3332,"duration":0.1667,"velocity":127,"measure":62,"beat":3.5,"subject_pos":-1,"motif":"","motif_pos":-1,"best_pos":3,"similarity":0.543,"stretto":false,"stretto_voices":0,"combination":[],"aug_dim":"","rhythm_ratio":1.0,"chromatic_density":0.346},{"voice":1,"pitch":62,"start":164.3332,"duration":0.1667,"velocity":127,"measure":62,"beat":3.5,"subject_pos":-1,"motif":"","motif_pos":-1,"best_pos":3,"similarity":0.507,"stretto":false,"stretto_voices":0,"combination":[],"aug_dim":"","rhythm_ratio":1.0,"chromatic_density":0.346},{"voice":0,"pitch":76,"start":164.4998,"duration":0.1667,"velocity":127,"measure":62,"beat":3.75,"subject_pos":-1,"motif":"","motif_pos":-1,"best_pos":4,"similarity":0.743,"stretto":false,"stretto_voices":0,"combination":[],"aug_dim":"","rhythm_ratio":1.0,"chromatic_density":0.346},{"voice":1,"pitch":61,"start":164.4998,"duration":0.3333,"velocity":127,"measure":62,"beat":3.75,"subject_pos":-1,"motif":"","motif_pos":-1,"best_pos":4,"similarity":0.407,"stretto":false,"stretto_voices":0,"combination":[],"aug_dim":"","rhythm_ratio":1.0,"chromatic_density":0.346},{"voice":0,"pitch":77,"start":164.6665,"duration":0.1667,"velocity":127,"measure":62,"beat":4.0,"subject_pos":-1,"motif":"","motif_pos":-1,"best_pos":5,"similarity":0.736,"stretto":false,"stretto_voices":0,"combination":[],"aug_dim":"","rhythm_ratio":1.0,"chromatic_density":0.346},{"voice":0,"pitch":79,"start":164.8332,"duration":0.1667,"velocity":127,"measure":62,"beat":4.25,"subject_pos":-1,"motif":"","motif_pos":-1,"best_pos":6,"similarity":0.529,"stretto":false,"stretto_voices":0,"combination":[],"aug_dim":"","rhythm_ratio":1.0,"chromatic_density":0.346},{"voice":1,"pitch":70,"start":164.8332,"duration":0.1667,"velocity":127,"measure":62,"beat":4.25,"subject_pos":-1,"motif":"","motif_pos":-1,"best_pos":3,"similarity":0.357,"stretto":false,"stretto_voices":0,"combination":[],"aug_dim":"","rhythm_ratio":1.0,"chromatic_density":0.346},{"voice":0,"pitch":77,"start":164.9998,"duration":0.1667,"velocity":127,"measure":62,"beat":4.5,"subject_pos":-1,"motif":"","motif_pos":-1,"best_pos":2,"similarity":0.586,"stretto":false,"stretto_voices":0,"combination":[],"aug_dim":"","rhythm_ratio":1.0,"chromatic_density":0.346},{"voice":1,"pitch":69,"start":164.9998,"duration":0.1667,"velocity":127,"measure":62,"beat":4.5,"subject_pos":-1,"motif":"","motif_pos":-1,"best_pos":1,"similarity":0.464,"stretto":false,"stretto_voices":0,"combination":[],"aug_dim":"","rhythm_ratio":1.0,"chromatic_density":0.346},{"voice":0,"pitch":74,"start":165.1665,"duration":0.1667,"velocity":127,"measure":62,"beat":4.75,"subject_pos":-1,"motif":"","motif_pos":-1,"best_pos":3,"similarity":0.443,"stretto":false,"stretto_voices":0,"combination":[],"aug_dim":"","rhythm_ratio":1.0,"chromatic_density":0.346},{"voice":1,"pitch":65,"start":165.1665,"duration":0.1667,"velocity":127,"measure":62,"beat":4.75,"subject_pos":-1,"motif":"","motif_pos":-1,"best_pos":2,"similarity":0.65,"stretto":false,"stretto_voices":0,"combination":[],"aug_dim":"","rhythm_ratio":1.0,"chromatic_density":0.346},{"voice":0,"pitch":81,"start":165.3332,"duration":0.1667,"velocity":127,"measure":63,"beat":1.0,"subject_pos":-1,"motif":"","motif_pos":-1,"best_pos":1,"similarity":0.293,"stretto":false,"stretto_voices":0,"combination":[],"aug_dim":"","rhythm_ratio":1.0,"chromatic_density":0.111},{"voice":1,"pitch":62,"start":165.3332,"duration":0.1667,"velocity":127,"measure":63,"beat":1.0,"subject_pos":-1,"motif":"","motif_pos":-1,"best_pos":3,"similarity":0.586,"stretto":false,"stretto_voices":0,"combination":[],"aug_dim":"","rhythm_ratio":1.0,"chromatic_density":0.111},{"voice":0,"pitch":70,"start":165.4998,"duration":0.1667,"velocity":127,"measure":63,"beat":1.25,"subject_pos":-1,"motif":"","motif_pos":-1,"best_pos":2,"similarity":0.157,"stretto":false,"stretto_voices":0,"combination":[],"aug_dim":"","rhythm_ratio":1.0,"chromatic_density":0.111},{"voice":1,"pitch":62,"start":165.4998,"duration":0.1667,"velocity":127,"measure":63,"beat":1.25,"subject_pos":-1,"motif":"","motif_pos":-1,"best_pos":4,"similarity":0.421,"stretto":false,"stretto_voices":0,"combination":[],"aug_dim":"","rhythm_ratio":1.0,"chromatic_density":0.111},{"voice":0,"pitch":76,"start":165.6665,"duration":0.1667,"velocity":127,"measure":63,"beat":1.5,"subject_pos":-1,"motif":"","motif_pos":-1,"best_pos":1,"similarity":0.143,"stretto":false,"stretto_voices":0,"combination":[],"aug_dim":"","rhythm_ratio":1.0,"chromatic_density":0.111},{"voice":1,"pitch":67,"start":165.6665,"duration":0.1667,"velocity":127,"measure":63,"beat":1.5,"subject_pos":-1,"motif":"","motif_pos":-1,"best_pos":1,"similarity":0.329,"stretto":false,"stretto_voices":0,"combination":[],"aug_dim":"","rhythm_ratio":1.0,"chromatic_density":0.111},{"voice":0,"pitch":79,"start":165.8332,"duration":0.1667,"velocity":127,"measure":63,"beat":1.75,"subject_pos":-1,"motif":"","motif_pos":-1,"best_pos":6,"similarity":0.143,"stretto":false,"stretto_voices":0,"combination":[],"aug_dim":"","rhythm_ratio":1.0,"chromatic_density":0.111},{"voice":1,"pitch":60,"start":165.8332,"duration":0.1667,"velocity":127,"measure":63,"beat":1.75,"subject_pos":-1,"motif":"","motif_pos":-1,"best_pos":2,"similarity":0.2,"stretto":false,"stretto_voices":0,"combination":[],"aug_dim":"","rhythm_ratio":1.0,"chromatic_density":0.111},{"voice":0,"pitch":69,"start":165.9998,"duration":0.1667,"velocity":127,"measure":63,"beat":2.0,"subject_pos":-1,"motif":"","motif_pos":-1,"best_pos":0,"similarity":0.286,"stretto":false,"stretto_voices":0,"combination":[],"aug_dim":"","rhythm_ratio":1.0,"chromatic_density":0.111},{"voice":1,"pitch":60,"start":165.9998,"duration":0.1667,"velocity":127,"measure":63,"beat":2.0,"subject_pos":-1,"motif":"","motif_pos":-1,"best_pos":0,"similarity":0.307,"stretto":false,"stretto_voices":0,"combination":[],"aug_dim":"","rhythm_ratio":1.0,"chromatic_density":0.111},{"voice":0,"pitch":74,"start":166.1665,"duration":0.1667,"velocity":127,"measure":63,"beat":2.25,"subject_pos":-1,"motif":"","motif_pos":-1,"best_pos":1,"similarity":0.286,"stretto":false,"stretto_voices":0,"combination":[],"aug_dim":"","rhythm_ratio":1.0,"chromatic_density":0.111},{"voice":1,"pitch":65,"start":166.1665,"duration":0.1667,"velocity":127,"measure":63,"beat":2.25,"subject_pos":-1,"motif":"","motif_pos":-1,"best_pos":1,"similarity":0.4,"stretto":false,"stretto_voices":0,"combination":[],"aug_dim":"","rhythm_ratio":1.0,"chromatic_density":0.111},{"voice":0,"pitch":77,"start":166.3332,"duration":0.1667,"velocity":127,"measure":63,"beat":2.5,"subject_pos":-1,"motif":"","motif_pos":-1,"best_pos":2,"similarity":0.161,"stretto":false,"stretto_voices":0,"combination":[],"aug_dim":"","rhythm_ratio":1.0,"chromatic_density":0.111},{"voice":1,"pitch":58,"start":166.3332,"duration":0.1667,"velocity":127,"measure":63,"beat":2.5,"subject_pos":-1,"motif":"","motif_pos":-1,"best_pos":2,"similarity":0.35,"stretto":false,"stretto_voices":0,"combination":[],"aug_dim":"","rhythm_ratio":1.0,"chromatic_density":0.111},{"voice":0,"pitch":67,"start":166.4998,"duration":0.1667,"velocity":127,"measure":63,"beat":2.75,"subject_pos":-1,"motif":"","motif_pos":-1,"best_pos":0,"similarity":0.143,"stretto":false,"stretto_voices":0,"combination":[],"aug_dim":"","rhythm_ratio":1.0,"chromatic_density":0.111},{"voice":1,"pitch":58,"start":166.4998,"duration":0.1667,"velocity":127,"measure":63,"beat":2.75,"subject_pos":-1,"motif":"","motif_pos":-1,"best_pos":3,"similarity":0.486,"stretto":false,"stretto_voices":0,"combination":[],"aug_dim":"","rhythm_ratio":1.0,"chromatic_density":0.111},{"voice":0,"pitch":73,"start":166.6665,"duration":0.1667,"velocity":127,"measure":63,"beat":3.0,"subject_pos":-1,"motif":"","motif_pos":-1,"best_pos":1,"similarity":0.143,"stretto":false,"stretto_voices":0,"combination":[],"aug_dim":"","rhythm_ratio":1.0,"chromatic_density":0.111},{"voice":1,"pitch":57,"start":166.6665,"duration":0.1667,"velocity":127,"measure":63,"beat":3.0,"subject_pos":-1,"motif":"","motif_pos":-1,"best_pos":4,"similarity":0.486,"stretto":false,"stretto_voices":0,"combination":[],"aug_dim":"","rhythm_ratio":1.0,"chromatic_density":0.111},{"voice":0,"pitch":76,"start":166.8332,"duration":0.1667,"velocity":127,"measure":63,"beat":3.25,"subject_pos":-1,"motif":"","motif_pos":-1,"best_pos":6,"similarity":0.143,"stretto":false,"stretto_voices":0,"combination":[],"aug_dim":"","rhythm_ratio":1.0,"chromatic_density":0.111},{"voice":1,"pitch":55,"start":166.8332,"duration":0.1667,"velocity":127,"measure":63,"beat":3.25,"subject_pos":-1,"motif":"","motif_pos":-1,"best_pos":5,"similarity":0.479,"stretto":false,"stretto_voices":0,"combination":[],"aug_dim":"","rhythm_ratio":1.0,"chromatic_density":0.111},{"voice":0,"pitch":65,"start":166.9998,"duration":0.1667,"velocity":127,"measure":63,"beat":3.5,"subject_pos":-1,"motif":"","motif_pos":-1,"best_pos":0,"similarity":0.286,"stretto":false,"stretto_voices":0,"combination":[],"aug_dim":"","rhythm_ratio":1.0,"chromatic_density":0.111},{"voice":1,"pitch":57,"start":166.9998,"duration":0.1667,"velocity":127,"measure":63,"beat":3.5,"subject_pos":-1,"motif":"","motif_pos":-1,"best_pos":6,"similarity":0.4,"stretto":false,"stretto_voices":0,"combination":[],"aug_dim":"","rhythm_ratio":1.0,"chromatic_density":0.111},{"voice":0,"pitch":69,"start":167.1665,"duration":0.1667,"velocity":127,"measure":63,"beat":3.75,"subject_pos":-1,"motif":"","motif_pos":-1,"best_pos":1,"similarity":0.5,"stretto":false,"stretto_voices":0,"combination":[],"aug_dim":"","rhythm_ratio":1.0,"chromatic_density":0.111},{"voice":1,"pitch":61,"start":167.1665,"duration":0.1667,"velocity":127,"measure":63,"beat":3.75,"subject_pos":-1,"motif":"","motif_pos":-1,"best_pos":5,"similarity":0.257,"stretto":false,"stretto_voices":0,"combination":[],"aug_dim":"","rhythm_ratio":1.0,"chromatic_density":0.111},{"voice":0,"pitch":67,"start":167.3332,"duration":0.1667,"velocity":127,"measure":63,"beat":4.0,"subject_pos":-1,"motif":"","motif_pos":-1,"best_pos":2,"similarity":0.507,"stretto":false,"stretto_voices":0,"combination":[],"aug_dim":"","rhythm_ratio":1.0,"chromatic_density":0.111},{"voice":1,"pitch":64,"start":167.3332,"duration":0.1667,"velocity":127,"measure":63,"beat":4.0,"subject_pos":-1,"motif":"","motif_pos":-1,"best_pos":6,"similarity":0.236,"stretto":false,"stretto_voices":0,"combination":[],"aug_dim":"","rhythm_ratio":1.0,"chromatic_density":0.111},{"voice":0,"pitch":70,"start":167.4998,"duration":0.1667,"velocity":127,"measure":63,"beat":4.25,"subject_pos":-1,"motif":"","motif_pos":-1,"best_pos":3,"similarity":0.514,"stretto":false,"stretto_voices":0,"combination":[],"aug_dim":"","rhythm_ratio":1.0,"chromatic_density":0.111},{"voice":1,"pitch":67,"start":167.4998,"duration":0.1667,"velocity":127,"measure":63,"beat":4.25,"subject_pos":-1,"motif":"","motif_pos":-1,"best_pos":1,"similarity":0.411,"stretto":false,"stretto_voices":0,"combination":[],"aug_dim":"","rhythm_ratio":1.0,"chromatic_density":0.111},{"voice":0,"pitch":69,"start":167.6665,"duration":0.1667,"velocity":127,"measure":63,"beat":4.5,"subject_pos":-1,"motif":"","motif_pos":-1,"best_pos":4,"similarity":0.493,"stretto":false,"stretto_voices":0,"combination":[],"aug_dim":"","rhythm_ratio":1.0,"chromatic_density":0.111},{"voice":1,"pitch":65,"start":167.6665,"duration":0.1667,"velocity":127,"measure":63,"beat":4.5,"subject_pos":-1,"motif":"","motif_pos":-1,"best_pos":3,"similarity":0.596,"stretto":false,"stretto_voices":0,"combination":[],"aug_dim":"","rhythm_ratio":1.0,"chromatic_density":0.111},{"voice":0,"pitch":73,"start":167.8332,"duration":0.1667,"velocity":127,"measure":63,"beat":4.75,"subject_pos":-1,"motif":"","motif_pos":-1,"best_pos":4,"similarity":0.536,"stretto":false,"stretto_voices":0,"combination":[],"aug_dim":"","rhythm_ratio":1.0,"chromatic_density":0.111},{"voice":1,"pitch":64,"start":167.8332,"duration":0.1667,"velocity":127,"measure":63,"beat":4.75,"subject_pos":-1,"motif":"","motif_pos":-1,"best_pos":4,"similarity":0.664,"stretto":false,"stretto_voices":0,"combination":[],"aug_dim":"","rhythm_ratio":1.0,"chromatic_density":0.111},{"voice":0,"pitch":74,"start":167.9998,"duration":0.1667,"velocity":127,"measure":64,"beat":1.0,"subject_pos":-1,"motif":"","motif_pos":-1,"best_pos":5,"similarity":0.732,"stretto":false,"stretto_voices":0,"combination":[],"aug_dim":"","rhythm_ratio":1.0,"chromatic_density":0.381},{"voice":1,"pitch":65,"start":167.9998,"duration":0.1667,"velocity":127,"measure":64,"beat":1.0,"subject_pos":-1,"motif":"","motif_pos":-1,"best_pos":5,"similarity":0.507,"stretto":false,"stretto_voices":0,"combination":[],"aug_dim":"","rhythm_ratio":1.0,"chromatic_density":0.381},{"voice":0,"pitch":76,"start":168.1665,"duration":0.1667,"velocity":127,"measure":64,"beat":1.25,"subject_pos":-1,"motif":"","motif_pos":-1,"best_pos":6,"similarity":0.714,"stretto":false,"stretto_voices":0,"combination":[],"aug_dim":"","rhythm_ratio":1.0,"chromatic_density":0.381},{"voice":1,"pitch":64,"start":168.1665,"duration":0.1667,"velocity":127,"measure":64,"beat":1.25,"subject_pos":-1,"motif":"","motif_pos":-1,"best_pos":4,"similarity":0.514,"stretto":false,"stretto_voices":0,"combination":[],"aug_dim":"","rhythm_ratio":1.0,"chromatic_density":0.381},{"voice":0,"pitch":77,"start":168.3332,"duration":0.1667,"velocity":127,"measure":64,"beat":1.5,"subject_pos":-1,"motif":"","motif_pos":-1,"best_pos":7,"similarity":0.5,"stretto":false,"stretto_voices":0,"combination":[],"aug_dim":"","rhythm_ratio":1.0,"chromatic_density":0.381},{"voice":1,"pitch":62,"start":168.3332,"duration":0.1667,"velocity":127,"measure":64,"beat":1.5,"subject_pos":-1,"motif":"","motif_pos":-1,"best_pos":5,"similarity":0.479,"stretto":false,"stretto_voices":0,"combination":[],"aug_dim":"","rhythm_ratio":1.0,"chromatic_density":0.381},{"voice":0,"pitch":68,"start":168.4998,"duration":1.0,"velocity":127,"measure":64,"beat":1.75,"subject_pos":-1,"motif":"","motif_pos":-1,"best_pos":4,"similarity":0.521,"stretto":false,"stretto_voices":0,"combination":[],"aug_dim":"","rhythm_ratio":1.0,"chromatic_density":0.381},{"voice":1,"pitch":64,"start":168.4998,"duration":0.1667,"velocity":127,"measure":64,"beat":1.75,"subject_pos":-1,"motif":"","motif_pos":-1,"best_pos":6,"similarity":0.4,"stretto":false,"stretto_voices":0,"combination":[],"aug_dim":"","rhythm_ratio":1.0,"chromatic_density":0.381},{"voice":1,"pitch":62,"start":168.6665,"duration":0.1667,"velocity":127,"measure":64,"beat":2.0,"subject_pos":-1,"motif":"","motif_pos":-1,"best_pos":2,"similarity":0.464,"stretto":false,"stretto_voices":0,"combination":[],"aug_dim":"","rhythm_ratio":1.0,"chromatic_density":0.381},{"voice":1,"pitch":60,"start":168.8332,"duration":0.1667,"velocity":127,"measure":64,"beat":2.25,"subject_pos":-1,"motif":"","motif_pos":-1,"best_pos":5,"similarity":0.4,"stretto":false,"stretto_voices":0,"combination":[],"aug_dim":"","rhythm_ratio":1.0,"chromatic_density":0.381},{"voice":1,"pitch":62,"start":168.9998,"duration":0.1667,"velocity":127,"measure":64,"beat":2.5,"subject_pos":-1,"motif":"","motif_pos":-1,"best_pos":2,"similarity":0.386,"stretto":false,"stretto_voices":0,"combination":[],"aug_dim":"","rhythm_ratio":1.0,"chromatic_density":0.381},{"voice":1,"pitch":60,"start":169.1665,"duration":0.1667,"velocity":127,"measure":64,"beat":2.75,"subject_pos":-1,"motif":"","motif_pos":-1,"best_pos":3,"similarity":0.657,"stretto":false,"stretto_voices":0,"combination":[],"aug_dim":"","rhythm_ratio":1.0,"chromatic_density":0.381},{"voice":1,"pitch":59,"start":169.3332,"duration":0.1667,"velocity":127,"measure":64,"beat":3.0,"subject_pos":-1,"motif":"","motif_pos":-1,"best_pos":4,"similarity":0.829,"stretto":false,"stretto_voices":0,"combination":[],"aug_dim":"","rhythm_ratio":1.0,"chromatic_density":0.381},{"voice":0,"pitch":69,"start":169.4998,"duration":0.3333,"velocity":127,"measure":64,"beat":3.25,"subject_pos":-1,"motif":"","motif_pos":-1,"best_pos":5,"similarity":0.721,"stretto":false,"stretto_voices":0,"combination":[],"aug_dim":"","rhythm_ratio":1.0,"chromatic_density":0.381},{"voice":1,"pitch":60,"start":169.4998,"duration":0.1667,"velocity":127,"measure":64,"beat":3.25,"subject_pos":-1,"motif":"","motif_pos":-1,"best_pos":5,"similarity":0.821,"stretto":false,"stretto_voices":0,"combination":[],"aug_dim":"","rhythm_ratio":1.0,"chromatic_density":0.381},{"voice":1,"pitch":62,"start":169.6665,"duration":0.1667,"velocity":127,"measure":64,"beat":3.5,"subject_pos":-1,"motif":"","motif_pos":-1,"best_pos":6,"similarity":0.643,"stretto":false,"stretto_voices":0,"combination":[],"aug_dim":"","rhythm_ratio":1.0,"chromatic_density":0.381},{"voice":1,"pitch":64,"start":169.8332,"duration":0.1667,"velocity":127,"measure":64,"beat":3.75,"subject_pos":-1,"motif":"","motif_pos":-1,"best_pos":6,"similarity":0.404,"stretto":false,"stretto_voices":0,"combination":[],"aug_dim":"","rhythm_ratio":1.0,"chromatic_density":0.381},{"voice":1,"pitch":62,"start":169.9998,"duration":0.1667,"velocity":127,"measure":64,"beat":4.0,"subject_pos":-1,"motif":"","motif_pos":-1,"best_pos":5,"similarity":0.471,"stretto":false,"stretto_voices":0,"combination":[],"aug_dim":"","rhythm_ratio":1.0,"chromatic_density":0.381},{"voice":1,"pitch":64,"start":170.1665,"duration":0.1667,"velocity":127,"measure":64,"beat":4.25,"subject_pos":-1,"motif":"","motif_pos":-1,"best_pos":6,"similarity":0.593,"stretto":false,"stretto_voices":0,"combination":[],"aug_dim":"","rhythm_ratio":1.0,"chromatic_density":0.381},{"voice":0,"pitch":71,"start":170.3332,"duration":0.1667,"velocity":127,"measure":64,"beat":4.5,"subject_pos":-1,"motif":"","motif_pos":-1,"best_pos":6,"similarity":0.714,"stretto":false,"stretto_voices":0,"combination":[],"aug_dim":"","rhythm_ratio":1.0,"chromatic_density":0.381},{"voice":1,"pitch":65,"start":170.3332,"duration":0.1667,"velocity":127,"measure":64,"beat":4.5,"subject_pos":-1,"motif":"","motif_pos":-1,"best_pos":3,"similarity":0.543,"stretto":false,"stretto_voices":0,"combination":[],"aug_dim":"","rhythm_ratio":1.0,"chromatic_density":0.381},{"voice":0,"pitch":72,"start":170.4998,"duration":0.3333,"velocity":127,"measure":64,"beat":4.75,"subject_pos":-1,"motif":"","motif_pos":-1,"best_pos":7,"similarity":0.5,"stretto":false,"stretto_voices":0,"combination":[],"aug_dim":"","rhythm_ratio":1.0,"chromatic_density":0.381},{"voice":1,"pitch":64,"start":170.4998,"duration":0.1667,"velocity":127,"measure":64,"beat":4.75,"subject_pos":-1,"motif":"","motif_pos":-1,"best_pos":4,"similarity":0.743,"stretto":false,"stretto_voices":0,"combination":[],"aug_dim":"","rhythm_ratio":1.0,"chromatic_density":0.381},{"voice":1,"pitch":65,"start":170.6665,"duration":0.1667,"velocity":127,"measure":65,"beat":1.0,"subject_pos":-1,"motif":"","motif_pos":-1,"best_pos":5,"similarity":0.736,"stretto":false,"stretto_voices":0,"combination":[],"aug_dim":"","rhythm_ratio":1.0,"chromatic_density":0.042},{"voice":0,"pitch":69,"start":170.8332,"duration":0.1667,"velocity":127,"measure":65,"beat":1.25,"subject_pos":-1,"motif":"","motif_pos":-1,"best_pos":3,"similarity":0.361,"stretto":false,"stretto_voices":0,"combination":[],"aug_dim":"","rhythm_ratio":1.0,"chromatic_density":0.042},{"voice":1,"pitch":67,"start":170.8332,"duration":0.1667,"velocity":127,"measure":65,"beat":1.25,"subject_pos":-1,"motif":"","motif_pos":-1,"best_pos":6,"similarity":0.529,"stretto":false,"stretto_voices":0,"combination":[],"aug_dim":"","rhythm_ratio":1.0,"chromatic_density":0.042},{"voice":0,"pitch":74,"start":170.9998,"duration":0.3333,"velocity":127,"measure":65,"beat":1.5,"subject_pos":-1,"motif":"","motif_pos":-1,"best_pos":1,"similarity":0.371,"stretto":false,"stretto_voices":0,"combination":[],"aug_dim":"","rhythm_ratio":1.0,"chromatic_density":0.042},{"voice":1,"pitch":65,"start":170.9998,"duration":0.1667,"velocity":127,"measure":65,"beat":1.5,"subject_pos":-1,"motif":"","motif_pos":-1,"best_pos":2,"similarity":0.586,"stretto":false,"stretto_voices":0,"combination":[],"aug_dim":"","rhythm_ratio":1.0,"chromatic_density":0.042},{"voice":1,"pitch":62,"start":171.1665,"duration":0.1667,"velocity":127,"measure":65,"beat":1.75,"subject_pos":-1,"motif":"","motif_pos":-1,"best_pos":3,"similarity":0.443,"stretto":false,"stretto_voices":0,"combination":[],"aug_dim":"","rhythm_ratio":1.0,"chromatic_density":0.042},{"voice":0,"pitch":77,"start":171.3332,"duration":0.1667,"velocity":127,"measure":65,"beat":2.0,"subject_pos":-1,"motif":"","motif_pos":-1,"best_pos":2,"similarity":0.321,"stretto":false,"stretto_voices":0,"combination":[],"aug_dim":"","rhythm_ratio":1.0,"chromatic_density":0.042},{"voice":1,"pitch":69,"start":171.3332,"duration":0.1667,"velocity":127,"measure":65,"beat":2.0,"subject_pos":-1,"motif":"","motif_pos":-1,"best_pos":1,"similarity":0.293,"stretto":false,"stretto_voices":0,"combination":[],"aug_dim":"","rhythm_ratio":1.0,"chromatic_density":0.042},{"voice":0,"pitch":77,"start":171.4998,"duration":0.1667,"velocity":127,"measure":65,"beat":2.25,"subject_pos":-1,"motif":"","motif_pos":-1,"best_pos":3,"similarity":0.407,"stretto":false,"stretto_voices":0,"combination":[],"aug_dim":"","rhythm_ratio":1.0,"chromatic_density":0.042},{"voice":1,"pitch":58,"start":171.4998,"duration":0.1667,"velocity":127,"measure":65,"beat":2.25,"subject_pos":-1,"motif":"","motif_pos":-1,"best_pos":2,"similarity":0.157,"stretto":false,"stretto_voices":0,"combination":[],"aug_dim":"","rhythm_ratio":1.0,"chromatic_density":0.042},{"voice":0,"pitch":76,"start":171.6665,"duration":0.1667,"velocity":127,"measure":65,"beat":2.5,"subject_pos":-1,"motif":"","motif_pos":-1,"best_pos":2,"similarity":0.393,"stretto":false,"stretto_voices":0,"combination":[],"aug_dim":"","rhythm_ratio":1.0,"chromatic_density":0.042},{"voice":1,"pitch":64,"start":171.6665,"duration":0.1667,"velocity":127,"measure":65,"beat":2.5,"subject_pos":-1,"motif":"","motif_pos":-1,"best_pos":1,"similarity":0.143,"stretto":false,"stretto_voices":0,"combination":[],"aug_dim":"","rhythm_ratio":1.0,"chromatic_density":0.042},{"voice":0,"pitch":74,"start":171.8332,"duration":0.1667,"velocity":127,"measure":65,"beat":2.75,"subject_pos":-1,"motif":"","motif_pos":-1,"best_pos":2,"similarity":0.45,"stretto":false,"stretto_voices":0,"combination":[],"aug_dim":"","rhythm_ratio":1.0,"chromatic_density":0.042},{"voice":1,"pitch":67,"start":171.8332,"duration":0.1667,"velocity":127,"measure":65,"beat":2.75,"subject_pos":-1,"motif":"","motif_pos":-1,"best_pos":6,"similarity":0.143,"stretto":false,"stretto_voices":0,"combination":[],"aug_dim":"","rhythm_ratio":1.0,"chromatic_density":0.042},{"voice":0,"pitch":72,"start":171.9998,"duration":0.1667,"velocity":127,"measure":65,"beat":3.0,"subject_pos":-1,"motif":"","motif_pos":-1,"best_pos":5,"similarity":0.418,"stretto":false,"stretto_voices":0,"combination":[],"aug_dim":"","rhythm_ratio":1.0,"chromatic_density":0.042},{"voice":1,"pitch":57,"start":171.9998,"duration":0.1667,"velocity":127,"measure":65,"beat":3.0,"subject_pos":-1,"motif":"","motif_pos":-1,"best_pos":0,"similarity":0.286,"stretto":false,"stretto_voices":0,"combination":[],"aug_dim":"","rhythm_ratio":1.0,"chromatic_density":0.042},{"voice":0,"pitch":74,"start":172.1665,"duration":0.1667,"velocity":127,"measure":65,"beat":3.25,"subject_pos":-1,"motif":"","motif_pos":-1,"best_pos":6,"similarity":0.364,"stretto":false,"stretto_voices":0,"combination":[],"aug_dim":"","rhythm_ratio":1.0,"chromatic_density":0.042},{"voice":1,"pitch":62,"start":172.1665,"duration":0.1667,"velocity":127,"measure":65,"beat":3.25,"subject_pos":-1,"motif":"","motif_pos":-1,"best_pos":1,"similarity":0.286,"stretto":false,"stretto_voices":0,"combination":[],"aug_dim":"","rhythm_ratio":1.0,"chromatic_density":0.042},{"voice":0,"pitch":71,"start":172.3332,"duration":0.1667,"velocity":127,"measure":65,"beat":3.5,"subject_pos":-1,"motif":"","motif_pos":-1,"best_pos":3,"similarity":0.318,"stretto":false,"stretto_voices":0,"combination":[],"aug_dim":"","rhythm_ratio":1.0,"chromatic_density":0.042},{"voice":1,"pitch":65,"start":172.3332,"duration":0.1667,"velocity":127,"measure":65,"beat":3.5,"subject_pos":-1,"motif":"","motif_pos":-1,"best_pos":2,"similarity":0.161,"stretto":false,"stretto_voices":0,"combination":[],"aug_dim":"","rhythm_ratio":1.0,"chromatic_density":0.042},{"voice":0,"pitch":76,"start":172.4998,"duration":0.5,"velocity":127,"measure":65,"beat":3.75,"subject_pos":-1,"motif":"","motif_pos":-1,"best_pos":1,"similarity":0.329,"stretto":false,"stretto_voices":0,"combination":[],"aug_dim":"","rhythm_ratio":1.0,"chromatic_density":0.042},{"voice":1,"pitch":55,"start":172.4998,"duration":0.1667,"velocity":127,"measure":65,"beat":3.75,"subject_pos":-1,"motif":"","motif_pos":-1,"best_pos":0,"similarity":0.143,"stretto":false,"stretto_voices":0,"combination":[],"aug_dim":"","rhythm_ratio":1.0,"chromatic_density":0.042},{"voice":1,"pitch":61,"start":172.6665,"duration":0.1667,"velocity":127,"measure":65,"beat":4.0,"subject_pos":-1,"motif":"","motif_pos":-1,"best_pos":1,"similarity":0.143,"stretto":false,"stretto_voices":0,"combination":[],"aug_dim":"","rhythm_ratio":1.0,"chromatic_density":0.042},{"voice":1,"pitch":64,"start":172.8332,"duration":0.1667,"velocity":127,"measure":65,"beat":4.25,"subject_pos":-1,"motif":"","motif_pos":-1,"best_pos":6,"similarity":0.143,"stretto":false,"stretto_voices":0,"combination":[],"aug_dim":"","rhythm_ratio":1.0,"chromatic_density":0.042},{"voice":0,"pitch":69,"start":172.9998,"duration":0.5,"velocity":127,"measure":65,"beat":4.5,"subject_pos":-1,"motif":"","motif_pos":-1,"best_pos":2,"similarity":0.271,"stretto":false,"stretto_voices":0,"combination":[],"aug_dim":"","rhythm_ratio":1.0,"chromatic_density":0.042},{"voice":1,"pitch":53,"start":172.9998,"duration":0.1667,"velocity":127,"measure":65,"beat":4.5,"subject_pos":-1,"motif":"","motif_pos":-1,"best_pos":0,"similarity":0.286,"stretto":false,"stretto_voices":0,"combination":[],"aug_dim":"","rhythm_ratio":1.0,"chromatic_density":0.042},{"voice":1,"pitch":57,"start":173.1665,"duration":0.1667,"velocity":127,"measure":65,"beat":4.75,"subject_pos":-1,"motif":"","motif_pos":-1,"best_pos":1,"similarity":0.5,"stretto":false,"stretto_voices":0,"combination":[],"aug_dim":"","rhythm_ratio":1.0,"chromatic_density":0.042},{"voice":1,"pitch":55,"start":173.3332,"duration":0.1667,"velocity":127,"measure":66,"beat":1.0,"subject_pos":-1,"motif":"","motif_pos":-1,"best_pos":2,"similarity":0.507,"stretto":false,"stretto_voices":0,"combination":[],"aug_dim":"","rhythm_ratio":1.0,"chromatic_density":0.294},{"voice":1,"pitch":58,"start":173.4998,"duration":0.1667,"velocity":127,"measure":66,"beat":1.25,"subject_pos":-1,"motif":"","motif_pos":-1,"best_pos":3,"similarity":0.514,"stretto":false,"stretto_voices":0,"combination":[],"aug_dim":"","rhythm_ratio":1.0,"chromatic_density":0.294},{"voice":1,"pitch":57,"start":173.6665,"duration":0.1667,"velocity":127,"measure":66,"beat":1.5,"subject_pos":-1,"motif":"","motif_pos":-1,"best_pos":4,"similarity":0.493,"stretto":false,"stretto_voices":0,"combination":[],"aug_dim":"","rhythm_ratio":1.0,"chromatic_density":0.294},{"voice":1,"pitch":61,"start":173.8332,"duration":0.1667,"velocity":127,"measure":66,"beat":1.75,"subject_pos":-1,"motif":"","motif_pos":-1,"best_pos":4,"similarity":0.536,"stretto":false,"stretto_voices":0,"combination":[],"aug_dim":"","rhythm_ratio":1.0,"chromatic_density":0.294},{"voice":0,"pitch":69,"start":173.9998,"duration":0.5,"velocity":127,"measure":66,"beat":2.0,"subject_pos":-1,"motif":"","motif_pos":-1,"best_pos":0,"similarity":0.318,"stretto":false,"stretto_voices":0,"combination":[],"aug_dim":"","rhythm_ratio":1.0,"chromatic_density":0.294},{"voice":1,"pitch":62,"start":173.9998,"duration":0.1667,"velocity":127,"measure":66,"beat":2.0,"subject_pos":-1,"motif":"","motif_pos":-1,"best_pos":5,"similarity":0.732,"stretto":false,"stretto_voices":0,"combination":[],"aug_dim":"","rhythm_ratio":1.0,"chromatic_density":0.294},{"voice":1,"pitch":64,"start":174.1665,"duration":0.1667,"velocity":127,"measure":66,"beat":2.25,"subject_pos":-1,"motif":"","motif_pos":-1,"best_pos":6,"similarity":0.714,"stretto":false,"stretto_voices":0,"combination":[],"aug_dim":"","rhythm_ratio":1.0,"chromatic_density":0.294},{"voice":1,"pitch":65,"start":174.3332,"duration":0.1667,"velocity":127,"measure":66,"beat":2.5,"subject_pos":-1,"motif":"","motif_pos":-1,"best_pos":7,"similarity":0.5,"stretto":false,"stretto_voices":0,"combination":[],"aug_dim":"","rhythm_ratio":1.0,"chromatic_density":0.294},{"voice":0,"pitch":76,"start":174.4998,"duration":0.1667,"velocity":127,"measure":66,"beat":2.75,"subject_pos":-1,"motif":"","motif_pos":-1,"best_pos":1,"similarity":0.386,"stretto":false,"stretto_voices":0,"combination":[],"aug_dim":"","rhythm_ratio":1.0,"chromatic_density":0.294},{"voice":1,"pitch":55,"start":174.4998,"duration":1.0,"velocity":127,"measure":66,"beat":2.75,"subject_pos":-1,"motif":"","motif_pos":-1,"best_pos":5,"similarity":0.393,"stretto":false,"stretto_voices":0,"combination":[],"aug_dim":"","rhythm_ratio":1.0,"chromatic_density":0.294},{"voice":0,"pitch":77,"start":174.6665,"duration":0.1667,"velocity":127,"measure":66,"beat":3.0,"subject_pos":-1,"motif":"","motif_pos":-1,"best_pos":3,"similarity":0.4,"stretto":false,"stretto_voices":0,"combination":[],"aug_dim":"","rhythm_ratio":1.0,"chromatic_density":0.294},{"voice":0,"pitch":76,"start":174.8332,"duration":0.1667,"velocity":127,"measure":66,"beat":3.25,"subject_pos":-1,"motif":"","motif_pos":-1,"best_pos":4,"similarity":0.479,"stretto":false,"stretto_voices":0,"combination":[],"aug_dim":"","rhythm_ratio":1.0,"chromatic_density":0.294},{"voice":0,"pitch":74,"start":174.9998,"duration":0.1667,"velocity":127,"measure":66,"beat":3.5,"subject_pos":-1,"motif":"","motif_pos":-1,"best_pos":5,"similarity":0.479,"stretto":false,"stretto_voices":0,"combination":[],"aug_dim":"","rhythm_ratio":1.0,"chromatic_density":0.294},{"voice":0,"pitch":76,"start":175.1665,"duration":0.1667,"velocity":127,"measure":66,"beat":3.75,"subject_pos":-1,"motif":"","motif_pos":-1,"best_pos":6,"similarity":0.4,"stretto":false,"stretto_voices":0,"combination":[],"aug_dim":"","rhythm_ratio":1.0,"chromatic_density":0.294},{"voice":0,"pitch":74,"start":175.3332,"duration":0.1667,"velocity":127,"measure":66,"beat":4.0,"subject_pos":-1,"motif":"","motif_pos":-1,"best_pos":2,"similarity":0.464,"stretto":false,"stretto_voices":0,"combination":[],"aug_dim":"","rhythm_ratio":1.0,"chromatic_density":0.294},{"voice":0,"pitch":72,"start":175.4998,"duration":0.1667,"velocity":127,"measure":66,"beat":4.25,"subject_pos":-1,"motif":"","motif_pos":-1,"best_pos":5,"similarity":0.4,"stretto":false,"stretto_voices":0,"combination":[],"aug_dim":"","rhythm_ratio":1.0,"chromatic_density":0.294},{"voice":1,"pitch":57,"start":175.4998,"duration":0.3333,"velocity":127,"measure":66,"beat":4.25,"subject_pos":-1,"motif":"","motif_pos":-1,"best_pos":5,"similarity":0.579,"stretto":false,"stretto_voices":0,"combination":[],"aug_dim":"","rhythm_ratio":1.0,"chromatic_density":0.294},{"voice":0,"pitch":74,"start":175.6665,"duration":0.1667,"velocity":127,"measure":66,"beat":4.5,"subject_pos":-1,"motif":"","motif_pos":-1,"best_pos":2,"similarity":0.386,"stretto":false,"stretto_voices":0,"combination":[],"aug_dim":"","rhythm_ratio":1.0,"chromatic_density":0.294},{"voice":0,"pitch":72,"start":175.8332,"duration":0.1667,"velocity":127,"measure":66,"beat":4.75,"subject_pos":-1,"motif":"","motif_pos":-1,"best_pos":3,"similarity":0.593,"stretto":false,"stretto_voices":0,"combination":[],"aug_dim":"","rhythm_ratio":1.0,"chromatic_density":0.294},{"voice":0,"pitch":71,"start":175.9998,"duration":0.1667,"velocity":127,"measure":67,"beat":1.0,"subject_pos":-1,"motif":"","motif_pos":-1,"best_pos":4,"similarity":0.671,"stretto":false,"stretto_voices":0,"combination":[],"aug_dim":"","rhythm_ratio":1.0,"chromatic_density":0.368},{"voice":0,"pitch":72,"start":176.1665,"duration":0.1667,"velocity":127,"measure":67,"beat":1.25,"subject_pos":-1,"motif":"","motif_pos":-1,"best_pos":5,"similarity":0.507,"stretto":false,"stretto_voices":0,"combination":[],"aug_dim":"","rhythm_ratio":1.0,"chromatic_density":0.368},{"voice":0,"pitch":71,"start":176.3332,"duration":0.1667,"velocity":127,"measure":67,"beat":1.5,"subject_pos":-1,"motif":"","motif_pos":-1,"best_pos":4,"similarity":0.514,"stretto":false,"stretto_voices":0,"combination":[],"aug_dim":"","rhythm_ratio":1.0,"chromatic_density":0.368},{"voice":1,"pitch":59,"start":176.3332,"duration":0.1667,"velocity":127,"measure":67,"beat":1.5,"subject_pos":-1,"motif":"","motif_pos":-1,"best_pos":6,"similarity":0.643,"stretto":false,"stretto_voices":0,"combination":[],"aug_dim":"","rhythm_ratio":1.0,"chromatic_density":0.368},{"voice":0,"pitch":69,"start":176.4998,"duration":0.1667,"velocity":127,"measure":67,"beat":1.75,"subject_pos":-1,"motif":"","motif_pos":-1,"best_pos":5,"similarity":0.479,"stretto":false,"stretto_voices":0,"combination":[],"aug_dim":"","rhythm_ratio":1.0,"chromatic_density":0.368},{"voice":1,"pitch":60,"start":176.4998,"duration":0.3333,"velocity":127,"measure":67,"beat":1.75,"subject_pos":-1,"motif":"","motif_pos":-1,"best_pos":7,"similarity":0.464,"stretto":false,"stretto_voices":0,"combination":[],"aug_dim":"","rhythm_ratio":1.0,"chromatic_density":0.368},{"voice":0,"pitch":71,"start":176.6665,"duration":0.1667,"velocity":127,"measure":67,"beat":2.0,"subject_pos":-1,"motif":"","motif_pos":-1,"best_pos":6,"similarity":0.4,"stretto":false,"stretto_voices":0,"combination":[],"aug_dim":"","rhythm_ratio":1.0,"chromatic_density":0.368},{"voice":0,"pitch":69,"start":176.8332,"duration":0.1667,"velocity":127,"measure":67,"beat":2.25,"subject_pos":-1,"motif":"","motif_pos":-1,"best_pos":3,"similarity":0.657,"stretto":false,"stretto_voices":0,"combination":[],"aug_dim":"","rhythm_ratio":1.0,"chromatic_density":0.368},{"voice":1,"pitch":57,"start":176.8332,"duration":0.1667,"velocity":127,"measure":67,"beat":2.25,"subject_pos":-1,"motif":"","motif_pos":-1,"best_pos":3,"similarity":0.361,"stretto":false,"stretto_voices":0,"combination":[],"aug_dim":"","rhythm_ratio":1.0,"chromatic_density":0.368},{"voice":0,"pitch":68,"start":176.9998,"duration":0.3333,"velocity":127,"measure":67,"beat":2.5,"subject_pos":-1,"motif":"","motif_pos":-1,"best_pos":4,"similarity":0.829,"stretto":false,"stretto_voices":0,"combination":[],"aug_dim":"","rhythm_ratio":1.0,"chromatic_density":0.368},{"voice":1,"pitch":62,"start":176.9998,"duration":0.3333,"velocity":127,"measure":67,"beat":2.5,"subject_pos":-1,"motif":"","motif_pos":-1,"best_pos":1,"similarity":0.371,"stretto":false,"stretto_voices":0,"combination":[],"aug_dim":"","rhythm_ratio":1.0,"chromatic_density":0.368},{"voice":1,"pitch":65,"start":177.3332,"duration":0.1667,"velocity":127,"measure":67,"beat":3.0,"subject_pos":-1,"motif":"","motif_pos":-1,"best_pos":2,"similarity":0.321,"stretto":false,"stretto_voices":0,"combination":[],"aug_dim":"","rhythm_ratio":1.0,"chromatic_density":0.368},{"voice":0,"pitch":69,"start":177.4998,"duration":0.3333,"velocity":127,"measure":67,"beat":3.25,"subject_pos":-1,"motif":"","motif_pos":-1,"best_pos":5,"similarity":0.821,"stretto":false,"stretto_voices":0,"combination":[],"aug_dim":"","rhythm_ratio":1.0,"chromatic_density":0.368},{"voice":1,"pitch":65,"start":177.4998,"duration":0.1667,"velocity":127,"measure":67,"beat":3.25,"subject_pos":-1,"motif":"","motif_pos":-1,"best_pos":3,"similarity":0.407,"stretto":false,"stretto_voices":0,"combination":[],"aug_dim":"","rhythm_ratio":1.0,"chromatic_density":0.368},{"voice":1,"pitch":64,"start":177.6665,"duration":0.1667,"velocity":127,"measure":67,"beat":3.5,"subject_pos":-1,"motif":"","motif_pos":-1,"best_pos":2,"similarity":0.393,"stretto":false,"stretto_voices":0,"combination":[],"aug_dim":"","rhythm_ratio":1.0,"chromatic_density":0.368},{"voice":1,"pitch":62,"start":177.8332,"duration":0.1667,"velocity":127,"measure":67,"beat":3.75,"subject_pos":-1,"motif":"","motif_pos":-1,"best_pos":2,"similarity":0.45,"stretto":false,"stretto_voices":0,"combination":[],"aug_dim":"","rhythm_ratio":1.0,"chromatic_density":0.368},{"voice":0,"pitch":71,"start":177.9998,"duration":0.3333,"velocity":127,"measure":67,"beat":4.0,"subject_pos":-1,"motif":"","motif_pos":-1,"best_pos":6,"similarity":0.643,"stretto":false,"stretto_voices":0,"combination":[],"aug_dim":"","rhythm_ratio":1.0,"chromatic_density":0.368},{"voice":1,"pitch":60,"start":177.9998,"duration":0.1667,"velocity":127,"measure":67,"beat":4.0,"subject_pos":-1,"motif":"","motif_pos":-1,"best_pos":5,"similarity":0.418,"stretto":false,"stretto_voices":0,"combination":[],"aug_dim":"","rhythm_ratio":1.0,"chromatic_density":0.368},{"voice":1,"pitch":62,"start":178.1665,"duration":0.1667,"velocity":127,"measure":67,"beat":4.25,"subject_pos":-1,"motif":"","motif_pos":-1,"best_pos":6,"similarity":0.364,"stretto":false,"stretto_voices":0,"combination":[],"aug_dim":"","rhythm_ratio":1.0,"chromatic_density":0.368},{"voice":1,"pitch":59,"start":178.3332,"duration":0.1667,"velocity":127,"measure":67,"beat":4.5,"subject_pos":-1,"motif":"","motif_pos":-1,"best_pos":3,"similarity":0.318,"stretto":false,"stretto_voices":0,"combination":[],"aug_dim":"","rhythm_ratio":1.0,"chromatic_density":0.368},{"voice":0,"pitch":71,"start":178.413,"duration":0.3333,"velocity":127,"measure":67,"beat":4.6198,"subject_pos":-1,"motif":"","motif_pos":-1,"best_pos":4,"similarity":0.586,"stretto":false,"stretto_voices":0,"combination":[],"aug_dim":"","rhythm_ratio":1.0,"chromatic_density":0.368},{"voice":0,"pitch":72,"start":178.4998,"duration":0.8333,"velocity":127,"measure":67,"beat":4.75,"subject_pos":-1,"motif":"","motif_pos":-1,"best_pos":5,"similarity":0.657,"stretto":false,"stretto_voices":0,"combination":[],"aug_dim":"","rhythm_ratio":1.0,"chromatic_density":0.368},{"voice":1,"pitch":64,"start":178.4998,"duration":0.5,"velocity":127,"measure":67,"beat":4.75,"subject_pos":-1,"motif":"","motif_pos":-1,"best_pos":1,"similarity":0.329,"stretto":false,"stretto_voices":0,"combination":[],"aug_dim":"","rhythm_ratio":1.0,"chromatic_density":0.368},{"voice":1,"pitch":57,"start":178.9998,"duration":0.5,"velocity":127,"measure":68,"beat":1.5,"subject_pos":-1,"motif":"","motif_pos":-1,"best_pos":2,"similarity":0.271,"stretto":false,"stretto_voices":0,"combination":[],"aug_dim":"","rhythm_ratio":1.0,"chromatic_density":0.214},{"voice":0,"pitch":74,"start":179.3332,"duration":0.1667,"velocity":127,"measure":68,"beat":2.0,"subject_pos":-1,"motif":"","motif_pos":-1,"best_pos":6,"similarity":0.493,"stretto":false,"stretto_voices":0,"combination":[],"aug_dim":"","rhythm_ratio":1.0,"chromatic_density":0.214},{"voice":0,"pitch":72,"start":179.4998,"duration":0.3333,"velocity":127,"measure":68,"beat":2.25,"subject_pos":-1,"motif":"","motif_pos":-1,"best_pos":3,"similarity":0.464,"stretto":false,"stretto_voices":0,"combination":[],"aug_dim":"","rhythm_ratio":1.0,"chromatic_density":0.214},{"voice":0,"pitch":71,"start":179.8332,"duration":0.1667,"velocity":127,"measure":68,"beat":2.75,"subject_pos":-1,"motif":"","motif_pos":-1,"best_pos":4,"similarity":0.4,"stretto":false,"stretto_voices":0,"combination":[],"aug_dim":"","rhythm_ratio":1.0,"chromatic_density":0.214},{"voice":0,"pitch":69,"start":179.9998,"duration":0.1667,"velocity":127,"measure":68,"beat":3.0,"subject_pos":-1,"motif":"","motif_pos":-1,"best_pos":2,"similarity":0.375,"stretto":false,"stretto_voices":0,"combination":[],"aug_dim":"","rhythm_ratio":1.0,"chromatic_density":0.214},{"voice":1,"pitch":57,"start":179.9998,"duration":0.5,"velocity":127,"measure":68,"beat":3.0,"subject_pos":-1,"motif":"","motif_pos":-1,"best_pos":0,"similarity":0.318,"stretto":false,"stretto_voices":0,"combination":[],"aug_dim":"","rhythm_ratio":1.0,"chromatic_density":0.214},{"voice":0,"pitch":64,"start":180.1665,"duration":0.1667,"velocity":127,"measure":68,"beat":3.25,"subject_pos":-1,"motif":"","motif_pos":-1,"best_pos":0,"similarity":0.357,"stretto":false,"stretto_voices":0,"combination":[],"aug_dim":"","rhythm_ratio":1.0,"chromatic_density":0.214},{"voice":0,"pitch":69,"start":180.3332,"duration":0.1667,"velocity":127,"measure":68,"beat":3.5,"subject_pos":-1,"motif":"","motif_pos":-1,"best_pos":1,"similarity":0.436,"stretto":false,"stretto_voices":0,"combination":[],"aug_dim":"","rhythm_ratio":1.0,"chromatic_density":0.214},{"voice":0,"pitch":72,"start":180.4998,"duration":0.1667,"velocity":127,"measure":68,"beat":3.75,"subject_pos":-1,"motif":"","motif_pos":-1,"best_pos":2,"similarity":0.45,"stretto":false,"stretto_voices":0,"combination":[],"aug_dim":"","rhythm_ratio":1.0,"chromatic_density":0.214},{"voice":1,"pitch":64,"start":180.4998,"duration":0.1667,"velocity":127,"measure":68,"beat":3.75,"subject_pos":-1,"motif":"","motif_pos":-1,"best_pos":1,"similarity":0.386,"stretto":false,"stretto_voices":0,"combination":[],"aug_dim":"","rhythm_ratio":1.0,"chromatic_density":0.214},{"voice":0,"pitch":69,"start":180.6665,"duration":0.1667,"velocity":127,"measure":68,"beat":4.0,"subject_pos":-1,"motif":"","motif_pos":-1,"best_pos":3,"similarity":0.4,"stretto":false,"stretto_voices":0,"combination":[],"aug_dim":"","rhythm_ratio":1.0,"chromatic_density":0.214},{"voice":1,"pitch":65,"start":180.6665,"duration":0.1667,"velocity":127,"measure":68,"beat":4.0,"subject_pos":-1,"motif":"","motif_pos":-1,"best_pos":3,"similarity":0.4,"stretto":false,"stretto_voices":0,"combination":[],"aug_dim":"","rhythm_ratio":1.0,"chromatic_density":0.214},{"voice":0,"pitch":72,"start":180.8332,"duration":0.1667,"velocity":127,"measure":68,"beat":4.25,"subject_pos":-1,"motif":"","motif_pos":-1,"best_pos":4,"similarity":0.271,"stretto":false,"stretto_voices":0,"combination":[],"aug_dim":"","rhythm_ratio":1.0,"chromatic_density":0.214},{"voice":1,"pitch":64,"start":180.8332,"duration":0.1667,"velocity":127,"measure":68,"beat":4.25,"subject_pos":-1,"motif":"","motif_pos":-1,"best_pos":4,"similarity":0.479,"stretto":false,"stretto_voices":0,"combination":[],"aug_dim":"","rhythm_ratio":1.0,"chromatic_density":0.214},{"voice":0,"pitch":76,"start":180.9998,"duration":0.3333,"velocity":127,"measure":68,"beat":4.5,"subject_pos":-1,"motif":"","motif_pos":-1,"best_pos":5,"similarity":0.257,"stretto":false,"stretto_voices":0,"combination":[],"aug_dim":"","rhythm_ratio":1.0,"chromatic_density":0.214},{"voice":1,"pitch":62,"start":180.9998,"duration":0.1667,"velocity":127,"measure":68,"beat":4.5,"subject_pos":-1,"motif":"","motif_pos":-1,"best_pos":5,"similarity":0.479,"stretto":false,"stretto_voices":0,"combination":[],"aug_dim":"","rhythm_ratio":1.0,"chromatic_density":0.214},{"voice":1,"pitch":64,"start":181.1665,"duration":0.1667,"velocity":127,"measure":68,"beat":4.75,"subject_pos":-1,"motif":"","motif_pos":-1,"best_pos":6,"similarity":0.4,"stretto":false,"stretto_voices":0,"combination":[],"aug_dim":"","rhythm_ratio":1.0,"chromatic_density":0.214},{"voice":0,"pitch":68,"start":181.3332,"duration":0.1667,"velocity":127,"measure":69,"beat":1.0,"subject_pos":-1,"motif":"","motif_pos":-1,"best_pos":6,"similarity":0.307,"stretto":false,"stretto_voices":0,"combination":[],"aug_dim":"","rhythm_ratio":1.0,"chromatic_density":0.304},{"voice":1,"pitch":62,"start":181.3332,"duration":0.1667,"velocity":127,"measure":69,"beat":1.0,"subject_pos":-1,"motif":"","motif_pos":-1,"best_pos":2,"similarity":0.464,"stretto":false,"stretto_voices":0,"combination":[],"aug_dim":"","rhythm_ratio":1.0,"chromatic_density":0.304},{"voice":0,"pitch":69,"start":181.4998,"duration":0.3333,"velocity":127,"measure":69,"beat":1.25,"subject_pos":-1,"motif":"","motif_pos":-1,"best_pos":7,"similarity":0.293,"stretto":false,"stretto_voices":0,"combination":[],"aug_dim":"","rhythm_ratio":1.0,"chromatic_density":0.304},{"voice":1,"pitch":60,"start":181.4998,"duration":0.1667,"velocity":127,"measure":69,"beat":1.25,"subject_pos":-1,"motif":"","motif_pos":-1,"best_pos":5,"similarity":0.4,"stretto":false,"stretto_voices":0,"combination":[],"aug_dim":"","rhythm_ratio":1.0,"chromatic_density":0.304},{"voice":1,"pitch":62,"start":181.6665,"duration":0.1667,"velocity":127,"measure":69,"beat":1.5,"subject_pos":-1,"motif":"","motif_pos":-1,"best_pos":2,"similarity":0.386,"stretto":false,"stretto_voices":0,"combination":[],"aug_dim":"","rhythm_ratio":1.0,"chromatic_density":0.304},{"voice":0,"pitch":77,"start":181.8332,"duration":0.1667,"velocity":127,"measure":69,"beat":1.75,"subject_pos":-1,"motif":"","motif_pos":-1,"best_pos":1,"similarity":0.143,"stretto":false,"stretto_voices":0,"combination":[],"aug_dim":"","rhythm_ratio":1.0,"chromatic_density":0.304},{"voice":1,"pitch":60,"start":181.8332,"duration":0.1667,"velocity":127,"measure":69,"beat":1.75,"subject_pos":-1,"motif":"","motif_pos":-1,"best_pos":3,"similarity":0.593,"stretto":false,"stretto_voices":0,"combination":[],"aug_dim":"","rhythm_ratio":1.0,"chromatic_density":0.304},{"voice":0,"pitch":67,"start":181.9998,"duration":0.3333,"velocity":127,"measure":69,"beat":2.0,"subject_pos":-1,"motif":"","motif_pos":-1,"best_pos":0,"similarity":0.071,"stretto":false,"stretto_voices":0,"combination":[],"aug_dim":"","rhythm_ratio":1.0,"chromatic_density":0.304},{"voice":1,"pitch":59,"start":181.9998,"duration":0.1667,"velocity":127,"measure":69,"beat":2.0,"subject_pos":-1,"motif":"","motif_pos":-1,"best_pos":4,"similarity":0.671,"stretto":false,"stretto_voices":0,"combination":[],"aug_dim":"","rhythm_ratio":1.0,"chromatic_density":0.304},{"voice":1,"pitch":60,"start":182.1665,"duration":0.1667,"velocity":127,"measure":69,"beat":2.25,"subject_pos":-1,"motif":"","motif_pos":-1,"best_pos":5,"similarity":0.507,"stretto":false,"stretto_voices":0,"combination":[],"aug_dim":"","rhythm_ratio":1.0,"chromatic_density":0.304},{"voice":0,"pitch":76,"start":182.3332,"duration":0.1667,"velocity":127,"measure":69,"beat":2.5,"subject_pos":-1,"motif":"","motif_pos":-1,"best_pos":1,"similarity":0.071,"stretto":false,"stretto_voices":0,"combination":[],"aug_dim":"","rhythm_ratio":1.0,"chromatic_density":0.304},{"voice":1,"pitch":59,"start":182.3332,"duration":0.1667,"velocity":127,"measure":69,"beat":2.5,"subject_pos":-1,"motif":"","motif_pos":-1,"best_pos":4,"similarity":0.514,"stretto":false,"stretto_voices":0,"combination":[],"aug_dim":"","rhythm_ratio":1.0,"chromatic_density":0.304},{"voice":0,"pitch":65,"start":182.4998,"duration":0.3333,"velocity":127,"measure":69,"beat":2.75,"subject_pos":-1,"motif":"","motif_pos":-1,"best_pos":0,"similarity":0.071,"stretto":false,"stretto_voices":0,"combination":[],"aug_dim":"","rhythm_ratio":1.0,"chromatic_density":0.304},{"voice":1,"pitch":57,"start":182.4998,"duration":0.1667,"velocity":127,"measure":69,"beat":2.75,"subject_pos":-1,"motif":"","motif_pos":-1,"best_pos":5,"similarity":0.479,"stretto":false,"stretto_voices":0,"combination":[],"aug_dim":"","rhythm_ratio":1.0,"chromatic_density":0.304},{"voice":1,"pitch":59,"start":182.6665,"duration":0.1667,"velocity":127,"measure":69,"beat":3.0,"subject_pos":-1,"motif":"","motif_pos":-1,"best_pos":6,"similarity":0.4,"stretto":false,"stretto_voices":0,"combination":[],"aug_dim":"","rhythm_ratio":1.0,"chromatic_density":0.304},{"voice":0,"pitch":74,"start":182.8332,"duration":0.1667,"velocity":127,"measure":69,"beat":3.25,"subject_pos":-1,"motif":"","motif_pos":-1,"best_pos":1,"similarity":0.079,"stretto":false,"stretto_voices":0,"combination":[],"aug_dim":"","rhythm_ratio":1.0,"chromatic_density":0.304},{"voice":1,"pitch":57,"start":182.8332,"duration":0.1667,"velocity":127,"measure":69,"beat":3.25,"subject_pos":-1,"motif":"tail","motif_pos":3,"best_pos":3,"similarity":1.0,"stretto":false,"stretto_voices":0,"combination":[],"aug_dim":"","rhythm_ratio":1.0,"chromatic_density":0.304},{"voice":0,"pitch":64,"start":182.9998,"duration":0.1667,"velocity":127,"measure":69,"beat":3.5,"subject_pos":-1,"motif":"","motif_pos":-1,"best_pos":0,"similarity":0.321,"stretto":false,"stretto_voices":0,"combination":[],"aug_dim":"","rhythm_ratio":1.0,"chromatic_density":0.304},{"voice":1,"pitch":56,"start":182.9998,"duration":0.3333,"velocity":127,"measure":69,"beat":3.5,"subject_pos":-1,"motif":"tail","motif_pos":4,"best_pos":4,"similarity":1.0,"stretto":false,"stretto_voices":0,"combination":[],"aug_dim":"","rhythm_ratio":1.0,"chromatic_density":0.304},{"voice":0,"pitch":71,"start":183.1665,"duration":0.1667,"velocity":127,"measure":69,"beat":3.75,"subject_pos":-1,"motif":"","motif_pos":-1,"best_pos":1,"similarity":0.429,"stretto":false,"stretto_voices":0,"combination":[],"aug_dim":"","rhythm_ratio":1.0,"chromatic_density":0.304},{"voice":0,"pitch":74,"start":183.3331,"duration":0.1667,"velocity":127,"measure":69,"beat":4.0,"subject_pos":-1,"motif":"","motif_pos":-1,"best_pos":2,"similarity":0.436,"stretto":false,"stretto_voices":0,"combination":[],"aug_dim":"","rhythm_ratio":1.0,"chromatic_density":0.304},{"voice":0,"pitch":72,"start":183.4998,"duration":0.1667,"velocity":127,"measure":69,"beat":4.25,"subject_pos":-1,"motif":"","motif_pos":-1,"best_pos":3,"similarity":0.521,"stretto":false,"stretto_voices":0,"combination":[],"aug_dim":"","rhythm_ratio":1.0,"chromatic_density":0.304},{"voice":1,"pitch":57,"start":183.4998,"duration":0.3333,"velocity":127,"measure":69,"beat":4.25,"subject_pos":-1,"motif":"tail","motif_pos":5,"best_pos":5,"similarity":1.0,"stretto":false,"stretto_voices":0,"combination":[],"aug_dim":"","rhythm_ratio":1.0,"chromatic_density":0.304},{"voice":0,"pitch":71,"start":183.6665,"duration":0.1667,"velocity":127,"measure":69,"beat":4.5,"subject_pos":-1,"motif":"","motif_pos":-1,"best_pos":2,"similarity":0.429,"stretto":false,"stretto_voices":0,"combination":[],"aug_dim":"","rhythm_ratio":1.0,"chromatic_density":0.304},{"voice":0,"pitch":69,"start":183.8331,"duration":0.1667,"velocity":127,"measure":69,"beat":4.75,"subject_pos":0,"motif":"subject","motif_pos":0,"best_pos":0,"similarity":1.0,"stretto":false,"stretto_voices":0,"combination":[],"aug_dim":"","rhythm_ratio":1.0,"chromatic_density":0.304},{"voice":0,"pitch":68,"start":183.9998,"duration":0.1667,"velocity":127,"measure":70,"beat":1.0,"subject_pos":-1,"motif":"subject","motif_pos":0,"best_pos":0,"similarity":1.0,"stretto":false,"stretto_voices":0,"combination":[],"aug_dim":"","rhythm_ratio":1.0,"chromatic_density":0.348},{"voice":1,"pitch":59,"start":183.9998,"duration":0.3333,"velocity":127,"measure":70,"beat":1.0,"subject_pos":-1,"motif":"tail","motif_pos":6,"best_pos":6,"similarity":1.0,"stretto":false,"stretto_voices":0,"combination":[],"aug_dim":"","rhythm_ratio":1.0,"chromatic_density":0.348},{"voice":0,"pitch":74,"start":184.1665,"duration":0.1667,"velocity":127,"measure":70,"beat":1.25,"subject_pos":-1,"motif":"subject","motif_pos":0,"best_pos":0,"similarity":1.0,"stretto":false,"stretto_voices":0,"combination":[],"aug_dim":"","rhythm_ratio":1.0,"chromatic_density":0.348},{"voice":0,"pitch":77,"start":184.3331,"duration":0.1667,"velocity":127,"measure":70,"beat":1.5,"subject_pos":-1,"motif":"subject","motif_pos":0,"best_pos":0,"similarity":1.0,"stretto":false,"stretto_voices":0,"combination":[],"aug_dim":"","rhythm_ratio":1.0,"chromatic_density":0.348},{"voice":0,"pitch":76,"start":184.4998,"duration":0.1667,"velocity":127,"measure":70,"beat":1.75,"subject_pos":1,"motif":"subject","motif_pos":1,"best_pos":1,"similarity":1.0,"stretto":false,"stretto_voices":0,"combination":[],"aug_dim":"","rhythm_ratio":1.0,"chromatic_density":0.348},{"voice":1,"pitch":60,"start":184.4998,"duration":0.8333,"velocity":127,"measure":70,"beat":1.75,"subject_pos":-1,"motif":"tail","motif_pos":7,"best_pos":7,"similarity":1.0,"stretto":false,"stretto_voices":0,"combination":[],"aug_dim":"","rhythm_ratio":1.0,"chromatic_density":0.348},{"voice":0,"pitch":74,"start":184.6665,"duration":0.1667,"velocity":127,"measure":70,"beat":2.0,"subject_pos":2,"motif":"subject","motif_pos":2,"best_pos":2,"similarity":1.0,"stretto":false,"stretto_voices":0,"combination":[],"aug_dim":"","rhythm_ratio":1.0,"chromatic_density":0.348},{"voice":0,"pitch":72,"start":184.8331,"duration":0.1667,"velocity":127,"measure":70,"beat":2.25,"subject_pos":3,"motif":"subject","motif_pos":3,"best_pos":3,"similarity":1.0,"stretto":false,"stretto_voices":0,"combination":[],"aug_dim":"","rhythm_ratio":1.0,"chromatic_density":0.348},{"voice":0,"pitch":71,"start":184.9998,"duration":0.1667,"velocity":127,"measure":70,"beat":2.5,"subject_pos":4,"motif":"subject","motif_pos":4,"best_pos":4,"similarity":1.0,"stretto":false,"stretto_voices":0,"combination":[],"aug_dim":"","rhythm_ratio":1.0,"chromatic_density":0.348},{"voice":0,"pitch":69,"start":185.1665,"duration":0.1667,"velocity":127,"measure":70,"beat":2.75,"subject_pos":5,"motif":"subject","motif_pos":5,"best_pos":5,"similarity":1.0,"stretto":false,"stretto_voices":0,"combination":[],"aug_dim":"","rhythm_ratio":1.0,"chromatic_density":0.348},{"voice":0,"pitch":68,"start":185.3331,"duration":0.1667,"velocity":127,"measure":70,"beat":3.0,"subject_pos":6,"motif":"subject","motif_pos":6,"best_pos":6,"similarity":1.0,"stretto":false,"stretto_voices":0,"combination":[],"aug_dim":"","rhythm_ratio":1.0,"chromatic_density":0.348},{"voice":1,"pitch":62,"start":185.3331,"duration":0.1667,"velocity":127,"measure":70,"beat":3.0,"subject_pos":-1,"motif":"","motif_pos":-1,"best_pos":6,"similarity":0.464,"stretto":false,"stretto_voices":0,"combination":[],"aug_dim":"","rhythm_ratio":1.0,"chromatic_density":0.348},{"voice":0,"pitch":69,"start":185.4998,"duration":0.1667,"velocity":127,"measure":70,"beat":3.25,"subject_pos":7,"motif":"subject","motif_pos":7,"best_pos":7,"similarity":1.0,"stretto":false,"stretto_voices":0,"combination":[],"aug_dim":"","rhythm_ratio":1.0,"chromatic_density":0.348},{"voice":1,"pitch":60,"start":185.4998,"duration":0.3333,"velocity":127,"measure":70,"beat":3.25,"subject_pos":-1,"motif":"","motif_pos":-1,"best_pos":3,"similarity":0.464,"stretto":false,"stretto_voices":0,"combination":[],"aug_dim":"","rhythm_ratio":1.0,"chromatic_density":0.348},{"voice":0,"pitch":64,"start":185.6665,"duration":0.1667,"velocity":127,"measure":70,"beat":3.5,"subject_pos":-1,"motif":"subject","motif_pos":7,"best_pos":7,"similarity":1.0,"stretto":false,"stretto_voices":0,"combination":[],"aug_dim":"","rhythm_ratio":1.0,"chromatic_density":0.348},{"voice":0,"pitch":71,"start":185.8331,"duration":0.1667,"velocity":127,"measure":70,"beat":3.75,"subject_pos":8,"motif":"subject","motif_pos":8,"best_pos":0,"similarity":1.0,"stretto":false,"stretto_voices":0,"combination":[],"aug_dim":"","rhythm_ratio":1.0,"chromatic_density":0.348},{"voice":1,"pitch":59,"start":185.8331,"duration":0.1667,"velocity":127,"measure":70,"beat":3.75,"subject_pos":-1,"motif":"","motif_pos":-1,"best_pos":4,"similarity":0.4,"stretto":false,"stretto_voices":0,"combination":[],"aug_dim":"","rhythm_ratio":1.0,"chromatic_density":0.348},{"voice":0,"pitch":72,"start":185.9998,"duration":0.1667,"velocity":127,"measure":70,"beat":4.0,"subject_pos":-1,"motif":"","motif_pos":-1,"best_pos":5,"similarity":0.346,"stretto":false,"stretto_voices":0,"combination":[],"aug_dim":"","rhythm_ratio":1.0,"chromatic_density":0.348},{"voice":1,"pitch":57,"start":185.9998,"duration":0.1667,"velocity":127,"measure":70,"beat":4.0,"subject_pos":-1,"motif":"","motif_pos":-1,"best_pos":2,"similarity":0.375,"stretto":false,"stretto_voices":0,"combination":[],"aug_dim":"","rhythm_ratio":1.0,"chromatic_density":0.348},{"voice":0,"pitch":71,"start":186.1665,"duration":0.1667,"velocity":127,"measure":70,"beat":4.25,"subject_pos":-1,"motif":"","motif_pos":-1,"best_pos":4,"similarity":0.329,"stretto":false,"stretto_voices":0,"combination":[],"aug_dim":"","rhythm_ratio":1.0,"chromatic_density":0.348},{"voice":1,"pitch":52,"start":186.1665,"duration":0.1667,"velocity":127,"measure":70,"beat":4.25,"subject_pos":-1,"motif":"","motif_pos":-1,"best_pos":0,"similarity":0.357,"stretto":false,"stretto_voices":0,"combination":[],"aug_dim":"","rhythm_ratio":1.0,"chromatic_density":0.348},{"voice":0,"pitch":69,"start":186.3331,"duration":0.1667,"velocity":127,"measure":70,"beat":4.5,"subject_pos":-1,"motif":"","motif_pos":-1,"best_pos":0,"similarity":0.357,"stretto":false,"stretto_voices":0,"combination":[],"aug_dim":"","rhythm_ratio":1.0,"chromatic_density":0.348},{"voice":1,"pitch":57,"start":186.3331,"duration":0.1667,"velocity":127,"measure":70,"beat":4.5,"subject_pos":-1,"motif":"","motif_pos":-1,"best_pos":1,"similarity":0.436,"stretto":false,"stretto_voices":0,"combination":[],"aug_dim":"","rhythm_ratio":1.0,"chromatic_density":0.348},{"voice":0,"pitch":76,"start":186.4998,"duration":0.6667,"velocity":127,"measure":70,"beat":4.75,"subject_pos":-1,"motif":"","motif_pos":-1,"best_pos":1,"similarity":0.464,"stretto":false,"stretto_voices":0,"combination":[],"aug_dim":"","rhythm_ratio":1.0,"chromatic_density":0.348},{"voice":1,"pitch":60,"start":186.4998,"duration":0.1667,"velocity":127,"measure":70,"beat":4.75,"subject_pos":-1,"motif":"","motif_pos":-1,"best_pos":2,"similarity":0.45,"stretto":false,"stretto_voices":0,"combination":[],"aug_dim":"","rhythm_ratio":1.0,"chromatic_density":0.348},{"voice":1,"pitch":57,"start":186.6665,"duration":0.1667,"velocity":127,"measure":71,"beat":1.0,"subject_pos":-1,"motif":"","motif_pos":-1,"best_pos":3,"similarity":0.4,"stretto":false,"stretto_voices":0,"combination":[],"aug_dim":"","rhythm_ratio":1.0,"chromatic_density":0.136},{"voice":1,"pitch":60,"start":186.8331,"duration":0.1667,"velocity":127,"measure":71,"beat":1.25,"subject_pos":-1,"motif":"","motif_pos":-1,"best_pos":4,"similarity":0.271,"stretto":false,"stretto_voices":0,"combination":[],"aug_dim":"","rhythm_ratio":1.0,"chromatic_density":0.136},{"voice":1,"pitch":64,"start":186.9998,"duration":0.3333,"velocity":127,"measure":71,"beat":1.5,"subject_pos":-1,"motif":"","motif_pos":-1,"best_pos":5,"similarity":0.257,"stretto":false,"stretto_voices":0,"combination":[],"aug_dim":"","rhythm_ratio":1.0,"chromatic_density":0.136},{"voice":0,"pitch":71,"start":187.1665,"duration":0.1667,"velocity":127,"measure":71,"beat":1.75,"subject_pos":-1,"motif":"","motif_pos":-1,"best_pos":2,"similarity":0.364,"stretto":false,"stretto_voices":0,"combination":[],"aug_dim":"","rhythm_ratio":1.0,"chromatic_density":0.136},{"voice":0,"pitch":74,"start":187.3331,"duration":0.1667,"velocity":127,"measure":71,"beat":2.0,"subject_pos":-1,"motif":"","motif_pos":-1,"best_pos":3,"similarity":0.3,"stretto":false,"stretto_voices":0,"combination":[],"aug_dim":"","rhythm_ratio":1.0,"chromatic_density":0.136},{"voice":1,"pitch":56,"start":187.3331,"duration":0.1667,"velocity":127,"measure":71,"beat":2.0,"subject_pos":-1,"motif":"","motif_pos":-1,"best_pos":6,"similarity":0.307,"stretto":false,"stretto_voices":0,"combination":[],"aug_dim":"","rhythm_ratio":1.0,"chromatic_density":0.136},{"voice":0,"pitch":74,"start":187.4998,"duration":0.1667,"velocity":127,"measure":71,"beat":2.25,"subject_pos":-1,"motif":"","motif_pos":-1,"best_pos":1,"similarity":0.286,"stretto":false,"stretto_voices":0,"combination":[],"aug_dim":"","rhythm_ratio":1.0,"chromatic_density":0.136},{"voice":1,"pitch":57,"start":187.4998,"duration":0.3333,"velocity":127,"measure":71,"beat":2.25,"subject_pos":-1,"motif":"","motif_pos":-1,"best_pos":7,"similarity":0.293,"stretto":false,"stretto_voices":0,"combination":[],"aug_dim":"","rhythm_ratio":1.0,"chromatic_density":0.136},{"voice":0,"pitch":72,"start":187.6665,"duration":0.1667,"velocity":127,"measure":71,"beat":2.5,"subject_pos":-1,"motif":"","motif_pos":-1,"best_pos":2,"similarity":0.304,"stretto":false,"stretto_voices":0,"combination":[],"aug_dim":"","rhythm_ratio":1.0,"chromatic_density":0.136},{"voice":0,"pitch":81,"start":187.8331,"duration":0.1667,"velocity":127,"measure":71,"beat":2.75,"subject_pos":-1,"motif":"","motif_pos":-1,"best_pos":3,"similarity":0.179,"stretto":false,"stretto_voices":0,"combination":[],"aug_dim":"","rhythm_ratio":1.0,"chromatic_density":0.136},{"voice":1,"pitch":65,"start":187.8331,"duration":0.1667,"velocity":127,"measure":71,"beat":2.75,"subject_pos":-1,"motif":"","motif_pos":-1,"best_pos":1,"similarity":0.143,"stretto":false,"stretto_voices":0,"combination":[],"aug_dim":"","rhythm_ratio":1.0,"chromatic_density":0.136},{"voice":0,"pitch":72,"start":187.9998,"duration":0.1667,"velocity":127,"measure":71,"beat":3.0,"subject_pos":-1,"motif":"","motif_pos":-1,"best_pos":3,"similarity":0.286,"stretto":false,"stretto_voices":0,"combination":[],"aug_dim":"","rhythm_ratio":1.0,"chromatic_density":0.136},{"voice":1,"pitch":55,"start":187.9998,"duration":0.3333,"velocity":127,"measure":71,"beat":3.0,"subject_pos":-1,"motif":"","motif_pos":-1,"best_pos":0,"similarity":0.071,"stretto":false,"stretto_voices":0,"combination":[],"aug_dim":"","rhythm_ratio":1.0,"chromatic_density":0.136},{"voice":0,"pitch":71,"start":188.1665,"duration":0.1667,"velocity":127,"measure":71,"beat":3.25,"subject_pos":-1,"motif":"","motif_pos":-1,"best_pos":4,"similarity":0.293,"stretto":false,"stretto_voices":0,"combination":[],"aug_dim":"","rhythm_ratio":1.0,"chromatic_density":0.136},{"voice":0,"pitch":79,"start":188.3331,"duration":0.1667,"velocity":127,"measure":71,"beat":3.5,"subject_pos":-1,"motif":"","motif_pos":-1,"best_pos":1,"similarity":0.243,"stretto":false,"stretto_voices":0,"combination":[],"aug_dim":"","rhythm_ratio":1.0,"chromatic_density":0.136},{"voice":1,"pitch":64,"start":188.3331,"duration":0.1667,"velocity":127,"measure":71,"beat":3.5,"subject_pos":-1,"motif":"","motif_pos":-1,"best_pos":1,"similarity":0.071,"stretto":false,"stretto_voices":0,"combination":[],"aug_dim":"","rhythm_ratio":1.0,"chromatic_density":0.136},{"voice":0,"pitch":71,"start":188.4998,"duration":0.1667,"velocity":127,"measure":71,"beat":3.75,"subject_pos":-1,"motif":"","motif_pos":-1,"best_pos":1,"similarity":0.286,"stretto":false,"stretto_voices":0,"combination":[],"aug_dim":"","rhythm_ratio":1.0,"chromatic_density":0.136},{"voice":1,"pitch":53,"start":188.4998,"duration":0.3333,"velocity":127,"measure":71,"beat":3.75,"subject_pos":-1,"motif":"","motif_pos":-1,"best_pos":0,"similarity":0.071,"stretto":false,"stretto_voices":0,"combination":[],"aug_dim":"","rhythm_ratio":1.0,"chromatic_density":0.136},{"voice":0,"pitch":69,"start":188.6665,"duration":0.1667,"velocity":127,"measure":71,"beat":4.0,"subject_pos":-1,"motif":"","motif_pos":-1,"best_pos":2,"similarity":0.304,"stretto":false,"stretto_voices":0,"combination":[],"aug_dim":"","rhythm_ratio":1.0,"chromatic_density":0.136},{"voice":0,"pitch":77,"start":188.8331,"duration":0.1667,"velocity":127,"measure":71,"beat":4.25,"subject_pos":-1,"motif":"","motif_pos":-1,"best_pos":1,"similarity":0.214,"stretto":false,"stretto_voices":0,"combination":[],"aug_dim":"","rhythm_ratio":1.0,"chromatic_density":0.136},{"voice":1,"pitch":62,"start":188.8331,"duration":0.1667,"velocity":127,"measure":71,"beat":4.25,"subject_pos":-1,"motif":"","motif_pos":-1,"best_pos":1,"similarity":0.079,"stretto":false,"stretto_voices":0,"combination":[],"aug_dim":"","rhythm_ratio":1.0,"chromatic_density":0.136},{"voice":0,"pitch":69,"start":188.9998,"duration":0.1667,"velocity":127,"measure":71,"beat":4.5,"subject_pos":-1,"motif":"","motif_pos":-1,"best_pos":3,"similarity":0.321,"stretto":false,"stretto_voices":0,"combination":[],"aug_dim":"","rhythm_ratio":1.0,"chromatic_density":0.136},{"voice":1,"pitch":52,"start":188.9998,"duration":0.1667,"velocity":127,"measure":71,"beat":4.5,"subject_pos":-1,"motif":"","motif_pos":-1,"best_pos":0,"similarity":0.321,"stretto":false,"stretto_voices":0,"combination":[],"aug_dim":"","rhythm_ratio":1.0,"chromatic_density":0.136},{"voice":0,"pitch":68,"start":189.1665,"duration":0.1667,"velocity":127,"measure":71,"beat":4.75,"subject_pos":-1,"motif":"","motif_pos":-1,"best_pos":4,"similarity":0.357,"stretto":false,"stretto_voices":0,"combination":[],"aug_dim":"","rhythm_ratio":1.0,"chromatic_density":0.136},{"voice":1,"pitch":59,"start":189.1665,"duration":0.1667,"velocity":127,"measure":71,"beat":4.75,"subject_pos":-1,"motif":"","motif_pos":-1,"best_pos":1,"similarity":0.429,"stretto":false,"stretto_voices":0,"combination":[],"aug_dim":"","rhythm_ratio":1.0,"chromatic_density":0.136},{"voice":0,"pitch":71,"start":189.3331,"duration":0.1667,"velocity":127,"measure":72,"beat":1.0,"subject_pos":-1,"motif":"","motif_pos":-1,"best_pos":5,"similarity":0.214,"stretto":false,"stretto_voices":0,"combination":[],"aug_dim":"","rhythm_ratio":1.0,"chromatic_density":0.316},{"voice":1,"pitch":62,"start":189.3331,"duration":0.1667,"velocity":127,"measure":72,"beat":1.0,"subject_pos":-1,"motif":"","motif_pos":-1,"best_pos":2,"similarity":0.436,"stretto":false,"stretto_voices":0,"combination":[],"aug_dim":"","rhythm_ratio":1.0,"chromatic_density":0.316},{"voice":0,"pitch":64,"start":189.4998,"duration":0.3333,"velocity":127,"measure":72,"beat":1.25,"subject_pos":-1,"motif":"","motif_pos":-1,"best_pos":0,"similarity":0.171,"stretto":false,"stretto_voices":0,"combination":[],"aug_dim":"","rhythm_ratio":1.0,"chromatic_density":0.316},{"voice":1,"pitch":60,"start":189.4998,"duration":0.1667,"velocity":127,"measure":72,"beat":1.25,"subject_pos":-1,"motif":"","motif_pos":-1,"best_pos":3,"similarity":0.521,"stretto":false,"stretto_voices":0,"combination":[],"aug_dim":"","rhythm_ratio":1.0,"chromatic_density":0.316},{"voice":1,"pitch":59,"start":189.6665,"duration":0.1667,"velocity":127,"measure":72,"beat":1.5,"subject_pos":-1,"motif":"","motif_pos":-1,"best_pos":2,"similarity":0.429,"stretto":false,"stretto_voices":0,"combination":[],"aug_dim":"","rhythm_ratio":1.0,"chromatic_density":0.316},{"voice":1,"pitch":57,"start":189.8331,"duration":0.1667,"velocity":127,"measure":72,"beat":1.75,"subject_pos":0,"motif":"subject","motif_pos":0,"best_pos":0,"similarity":1.0,"stretto":false,"stretto_voices":0,"combination":[],"aug_dim":"","rhythm_ratio":1.0,"chromatic_density":0.316},{"voice":1,"pitch":56,"start":189.9998,"duration":0.1667,"velocity":127,"measure":72,"beat":2.0,"subject_pos":-1,"motif":"subject","motif_pos":0,"best_pos":0,"similarity":1.0,"stretto":false,"stretto_voices":0,"combination":[],"aug_dim":"","rhythm_ratio":1.0,"chromatic_density":0.316},{"voice":1,"pitch":62,"start":190.1665,"duration":0.1667,"velocity":127,"measure":72,"beat":2.25,"subject_pos":-1,"motif":"subject","motif_pos":0,"best_pos":0,"similarity":1.0,"stretto":false,"stretto_voices":0,"combination":[],"aug_dim":"","rhythm_ratio":1.0,"chromatic_density":0.316},{"voice":1,"pitch":65,"start":190.3331,"duration":0.1667,"velocity":127,"measure":72,"beat":2.5,"subject_pos":-1,"motif":"subject","motif_pos":0,"best_pos":0,"similarity":1.0,"stretto":false,"stretto_voices":0,"combination":[],"aug_dim":"","rhythm_ratio":1.0,"chromatic_density":0.316},{"voice":1,"pitch":64,"start":190.4998,"duration":0.1667,"velocity":127,"measure":72,"beat":2.75,"subject_pos":1,"motif":"subject","motif_pos":1,"best_pos":1,"similarity":1.0,"stretto":false,"stretto_voices":0,"combination":[],"aug_dim":"","rhythm_ratio":1.0,"chromatic_density":0.316},{"voice":1,"pitch":62,"start":190.6665,"duration":0.1667,"velocity":127,"measure":72,"beat":3.0,"subject_pos":2,"motif":"subject","motif_pos":2,"best_pos":2,"similarity":1.0,"stretto":false,"stretto_voices":0,"combination":[],"aug_dim":"","rhythm_ratio":1.0,"chromatic_density":0.316},{"voice":1,"pitch":60,"start":190.8331,"duration":0.1667,"velocity":127,"measure":72,"beat":3.25,"subject_pos":3,"motif":"subject","motif_pos":3,"best_pos":3,"similarity":1.0,"stretto":false,"stretto_voices":0,"combination":[],"aug_dim":"","rhythm_ratio":1.0,"chromatic_density":0.316},{"voice":0,"pitch":74,"start":190.9998,"duration":0.6667,"velocity":127,"measure":72,"beat":3.5,"subject_pos":-1,"motif":"","motif_pos":-1,"best_pos":1,"similarity":0.321,"stretto":false,"stretto_voices":0,"combination":[],"aug_dim":"","rhythm_ratio":1.0,"chromatic_density":0.316},{"voice":1,"pitch":59,"start":190.9998,"duration":0.1667,"velocity":127,"measure":72,"beat":3.5,"subject_pos":4,"motif":"subject","motif_pos":4,"best_pos":4,"similarity":1.0,"stretto":false,"stretto_voices":0,"combination":[],"aug_dim":"","rhythm_ratio":1.0,"chromatic_density":0.316},{"voice":1,"pitch":57,"start":191.1665,"duration":0.1667,"velocity":127,"measure":72,"beat":3.75,"subject_pos":5,"motif":"subject","motif_pos":5,"best_pos":5,"similarity":1.0,"stretto":false,"stretto_voices":0,"combination":[],"aug_dim":"","rhythm_ratio":1.0,"chromatic_density":0.316},{"voice":1,"pitch":56,"start":191.3331,"duration":0.1667,"velocity":127,"measure":72,"beat":4.0,"subject_pos":6,"motif":"subject","motif_pos":6,"best_pos":6,"similarity":1.0,"stretto":false,"stretto_voices":0,"combination":[],"aug_dim":"","rhythm_ratio":1.0,"chromatic_density":0.316},{"voice":1,"pitch":57,"start":191.4998,"duration":0.1667,"velocity":127,"measure":72,"beat":4.25,"subject_pos":7,"motif":"subject","motif_pos":7,"best_pos":7,"similarity":1.0,"stretto":false,"stretto_voices":0,"combination":[],"aug_dim":"","rhythm_ratio":1.0,"chromatic_density":0.316},{"voice":0,"pitch":72,"start":191.6665,"duration":0.1667,"velocity":127,"measure":72,"beat":4.5,"subject_pos":-1,"motif":"","motif_pos":-1,"best_pos":4,"similarity":0.443,"stretto":false,"stretto_voices":0,"combination":[],"aug_dim":"","rhythm_ratio":1.0,"chromatic_density":0.316},{"voice":1,"pitch":52,"start":191.6665,"duration":0.1667,"velocity":127,"measure":72,"beat":4.5,"subject_pos":-1,"motif":"subject","motif_pos":7,"best_pos":7,"similarity":1.0,"stretto":false,"stretto_voices":0,"combination":[],"aug_dim":"","rhythm_ratio":1.0,"chromatic_density":0.316},{"voice":0,"pitch":74,"start":191.8331,"duration":0.1667,"velocity":127,"measure":72,"beat":4.75,"subject_pos":-1,"motif":"","motif_pos":-1,"best_pos":5,"similarity":0.514,"stretto":false,"stretto_voices":0,"combination":[],"aug_dim":"","rhythm_ratio":1.0,"chromatic_density":0.316},{"voice":1,"pitch":59,"start":191.8331,"duration":0.1667,"velocity":127,"measure":72,"beat":4.75,"subject_pos":8,"motif":"subject","motif_pos":8,"best_pos":0,"similarity":1.0,"stretto":false,"stretto_voices":0,"combination":[],"aug_dim":"","rhythm_ratio":1.0,"chromatic_density":0.316},{"voice":0,"pitch":76,"start":191.9998,"duration":0.1667,"velocity":127,"measure":73,"beat":1.0,"subject_pos":-1,"motif":"","motif_pos":-1,"best_pos":1,"similarity":0.457,"stretto":false,"stretto_voices":0,"combination":[],"aug_dim":"","rhythm_ratio":1.0,"chromatic_density":0.231},{"voice":1,"pitch":60,"start":191.9998,"duration":0.1667,"velocity":127,"measure":73,"beat":1.0,"subject_pos":-1,"motif":"","motif_pos":-1,"best_pos":5,"similarity":0.346,"stretto":false,"stretto_voices":0,"combination":[],"aug_dim":"","rhythm_ratio":1.0,"chromatic_density":0.231},{"voice":0,"pitch":74,"start":192.1665,"duration":0.1667,"velocity":127,"measure":73,"beat":1.25,"subject_pos":-1,"motif":"","motif_pos":-1,"best_pos":2,"similarity":0.657,"stretto":false,"stretto_voices":0,"combination":[],"aug_dim":"","rhythm_ratio":1.0,"chromatic_density":0.231},{"voice":1,"pitch":59,"start":192.1665,"duration":0.1667,"velocity":127,"measure":73,"beat":1.25,"subject_pos":-1,"motif":"","motif_pos":-1,"best_pos":4,"similarity":0.329,"stretto":false,"stretto_voices":0,"combination":[],"aug_dim":"","rhythm_ratio":1.0,"chromatic_density":0.231},{"voice":0,"pitch":72,"start":192.3331,"duration":0.1667,"velocity":127,"measure":73,"beat":1.5,"subject_pos":-1,"motif":"","motif_pos":-1,"best_pos":3,"similarity":0.793,"stretto":false,"stretto_voices":0,"combination":[],"aug_dim":"","rhythm_ratio":1.0,"chromatic_density":0.231},{"voice":1,"pitch":57,"start":192.3331,"duration":0.1667,"velocity":127,"measure":73,"beat":1.5,"subject_pos":-1,"motif":"","motif_pos":-1,"best_pos":0,"similarity":0.357,"stretto":false,"stretto_voices":0,"combination":[],"aug_dim":"","rhythm_ratio":1.0,"chromatic_density":0.231},{"voice":0,"pitch":71,"start":192.4998,"duration":0.1667,"velocity":127,"measure":73,"beat":1.75,"subject_pos":-1,"motif":"","motif_pos":-1,"best_pos":4,"similarity":0.893,"stretto":false,"stretto_voices":0,"combination":[],"aug_dim":"","rhythm_ratio":1.0,"chromatic_density":0.231},{"voice":1,"pitch":64,"start":192.4998,"duration":0.6667,"velocity":127,"measure":73,"beat":1.75,"subject_pos":-1,"motif":"","motif_pos":-1,"best_pos":1,"similarity":0.464,"stretto":false,"stretto_voices":0,"combination":[],"aug_dim":"","rhythm_ratio":1.0,"chromatic_density":0.231},{"voice":0,"pitch":72,"start":192.6665,"duration":0.1667,"velocity":127,"measure":73,"beat":2.0,"subject_pos":-1,"motif":"","motif_pos":-1,"best_pos":5,"similarity":0.821,"stretto":false,"stretto_voices":0,"combination":[],"aug_dim":"","rhythm_ratio":1.0,"chromatic_density":0.231},{"voice":0,"pitch":74,"start":192.8331,"duration":0.1667,"velocity":127,"measure":73,"beat":2.25,"subject_pos":-1,"motif":"","motif_pos":-1,"best_pos":6,"similarity":0.643,"stretto":false,"stretto_voices":0,"combination":[],"aug_dim":"","rhythm_ratio":1.0,"chromatic_density":0.231},{"voice":0,"pitch":76,"start":192.9998,"duration":0.1667,"velocity":127,"measure":73,"beat":2.5,"subject_pos":-1,"motif":"","motif_pos":-1,"best_pos":5,"similarity":0.521,"stretto":false,"stretto_voices":0,"combination":[],"aug_dim":"","rhythm_ratio":1.0,"chromatic_density":0.231},{"voice":0,"pitch":78,"start":193.1665,"duration":0.1667,"velocity":127,"measure":73,"beat":2.75,"subject_pos":-1,"motif":"","motif_pos":-1,"best_pos":5,"similarity":0.586,"stretto":false,"stretto_voices":0,"combination":[],"aug_dim":"","rhythm_ratio":1.0,"chromatic_density":0.231},{"voice":1,"pitch":59,"start":193.1665,"duration":0.1667,"velocity":127,"measure":73,"beat":2.75,"subject_pos":-1,"motif":"","motif_pos":-1,"best_pos":2,"similarity":0.364,"stretto":false,"stretto_voices":0,"combination":[],"aug_dim":"","rhythm_ratio":1.0,"chromatic_density":0.231},{"voice":0,"pitch":80,"start":193.3331,"duration":0.1667,"velocity":127,"measure":73,"beat":3.0,"subject_pos":-1,"motif":"enigmatic_cell","motif_pos":0,"best_pos":0,"similarity":1.0,"stretto":false,"stretto_voices":0,"combination":[],"aug_dim":"","rhythm_ratio":1.0,"chromatic_density":0.231},{"voice":1,"pitch":62,"start":193.3331,"duration":0.1667,"velocity":127,"measure":73,"beat":3.0,"subject_pos":-1,"motif":"","motif_pos":-1,"best_pos":3,"similarity":0.3,"stretto":false,"stretto_voices":0,"combination":[],"aug_dim":"","rhythm_ratio":1.0,"chromatic_density":0.231},{"voice":0,"pitch":81,"start":193.4998,"duration":0.1667,"velocity":127,"measure":73,"beat":3.25,"subject_pos":-1,"motif":"enigmatic_cell","motif_pos":1,"best_pos":1,"similarity":1.0,"stretto":false,"stretto_voices":0,"combination":[],"aug_dim":"","rhythm_ratio":1.0,"chromatic_density":0.231},{"voice":1,"pitch":62,"start":193.4998,"duration":0.1667,"velocity":127,"measure":73,"beat":3.25,"subject_pos":-1,"motif":"","motif_pos":-1,"best_pos":1,"similarity":0.286,"stretto":false,"stretto_voices":0,"combination":[],"aug_dim":"","rhythm_ratio":1.0,"chromatic_density":0.231},{"voice":0,"pitch":76,"start":193.6665,"duration":0.1667,"velocity":127,"measure":73,"beat":3.5,"subject_pos":-1,"motif":"enigmatic_cell","motif_pos":2,"best_pos":2,"similarity":1.0,"stretto":false,"stretto_voices":0,"combination":[],"aug_dim":"","rhythm_ratio":1.0,"chromatic_density":0.231},{"voice":1,"pitch":60,"start":193.6665,"duration":0.1667,"velocity":127,"measure":73,"beat":3.5,"subject_pos":-1,"motif":"","motif_pos":-1,"best_pos":2,"similarity":0.304,"stretto":false,"stretto_voices":0,"combination":[],"aug_dim":"","rhythm_ratio":1.0,"chromatic_density":0.231},{"voice":0,"pitch":72,"start":193.8331,"duration":0.1667,"velocity":127,"measure":73,"beat":3.75,"subject_pos":-1,"motif":"","motif_pos":-1,"best_pos":5,"similarity":0.321,"stretto":false,"stretto_voices":0,"combination":[],"aug_dim":"","rhythm_ratio":1.0,"chromatic_density":0.231},{"voice":1,"pitch":69,"start":193.8331,"duration":0.1667,"velocity":127,"measure":73,"beat":3.75,"subject_pos":-1,"motif":"","motif_pos":-1,"best_pos":3,"similarity":0.179,"stretto":false,"stretto_voices":0,"combination":[],"aug_dim":"","rhythm_ratio":1.0,"chromatic_density":0.231},{"voice":0,"pitch":74,"start":193.9998,"duration":0.1667,"velocity":127,"measure":73,"beat":4.0,"subject_pos":-1,"motif":"","motif_pos":-1,"best_pos":6,"similarity":0.321,"stretto":false,"stretto_voices":0,"combination":[],"aug_dim":"","rhythm_ratio":1.0,"chromatic_density":0.231},{"voice":1,"pitch":60,"start":193.9998,"duration":0.1667,"velocity":127,"measure":73,"beat":4.0,"subject_pos":-1,"motif":"","motif_pos":-1,"best_pos":3,"similarity":0.286,"stretto":false,"stretto_voices":0,"combination":[],"aug_dim":"","rhythm_ratio":1.0,"chromatic_density":0.231},{"voice":0,"pitch":79,"start":194.1665,"duration":0.1667,"velocity":127,"measure":73,"beat":4.25,"subject_pos":-1,"motif":"","motif_pos":-1,"best_pos":1,"similarity":0.329,"stretto":false,"stretto_voices":0,"combination":[],"aug_dim":"","rhythm_ratio":1.0,"chromatic_density":0.231},{"voice":1,"pitch":59,"start":194.1665,"duration":0.1667,"velocity":127,"measure":73,"beat":4.25,"subject_pos":-1,"motif":"","motif_pos":-1,"best_pos":4,"similarity":0.293,"stretto":false,"stretto_voices":0,"combination":[],"aug_dim":"","rhythm_ratio":1.0,"chromatic_density":0.231},{"voice":0,"pitch":71,"start":194.3331,"duration":0.1667,"velocity":127,"measure":73,"beat":4.5,"subject_pos":-1,"motif":"","motif_pos":-1,"best_pos":4,"similarity":0.307,"stretto":false,"stretto_voices":0,"combination":[],"aug_dim":"","rhythm_ratio":1.0,"chromatic_density":0.231},{"voice":1,"pitch":67,"start":194.3331,"duration":0.1667,"velocity":127,"measure":73,"beat":4.5,"subject_pos":-1,"motif":"","motif_pos":-1,"best_pos":1,"similarity":0.243,"stretto":false,"stretto_voices":0,"combination":[],"aug_dim":"","rhythm_ratio":1.0,"chromatic_density":0.231},{"voice":0,"pitch":72,"start":194.4998,"duration":0.1667,"velocity":127,"measure":73,"beat":4.75,"subject_pos":-1,"motif":"","motif_pos":-1,"best_pos":5,"similarity":0.314,"stretto":false,"stretto_voices":0,"combination":[],"aug_dim":"","rhythm_ratio":1.0,"chromatic_density":0.231},{"voice":1,"pitch":59,"start":194.4998,"duration":0.1667,"velocity":127,"measure":73,"beat":4.75,"subject_pos":-1,"motif":"","motif_pos":-1,"best_pos":1,"similarity":0.286,"stretto":false,"stretto_voices":0,"combination":[],"aug_dim":"","rhythm_ratio":1.0,"chromatic_density":0.231},{"voice":0,"pitch":77,"start":194.6665,"duration":0.1667,"velocity":127,"measure":74,"beat":1.0,"subject_pos":-1,"motif":"","motif_pos":-1,"best_pos":1,"similarity":0.314,"stretto":false,"stretto_voices":0,"combination":[],"aug_dim":"","rhythm_ratio":1.0,"chromatic_density":0.238},{"voice":1,"pitch":57,"start":194.6665,"duration":0.1667,"velocity":127,"measure":74,"beat":1.0,"subject_pos":-1,"motif":"","motif_pos":-1,"best_pos":2,"similarity":0.304,"stretto":false,"stretto_voices":0,"combination":[],"aug_dim":"","rhythm_ratio":1.0,"chromatic_density":0.238},{"voice":0,"pitch":69,"start":194.8331,"duration":0.1667,"velocity":127,"measure":74,"beat":1.25,"subject_pos":-1,"motif":"","motif_pos":-1,"best_pos":5,"similarity":0.307,"stretto":false,"stretto_voices":0,"combination":[],"aug_dim":"","rhythm_ratio":1.0,"chromatic_density":0.238},{"voice":1,"pitch":65,"start":194.8331,"duration":0.1667,"velocity":127,"measure":74,"beat":1.25,"subject_pos":-1,"motif":"","motif_pos":-1,"best_pos":1,"similarity":0.214,"stretto":false,"stretto_voices":0,"combination":[],"aug_dim":"","rhythm_ratio":1.0,"chromatic_density":0.238},{"voice":0,"pitch":71,"start":194.9998,"duration":0.1667,"velocity":127,"measure":74,"beat":1.5,"subject_pos":-1,"motif":"","motif_pos":-1,"best_pos":0,"similarity":0.464,"stretto":false,"stretto_voices":0,"combination":[],"aug_dim":"","rhythm_ratio":1.0,"chromatic_density":0.238},{"voice":1,"pitch":57,"start":194.9998,"duration":0.1667,"velocity":127,"measure":74,"beat":1.5,"subject_pos":-1,"motif":"","motif_pos":-1,"best_pos":3,"similarity":0.321,"stretto":false,"stretto_voices":0,"combination":[],"aug_dim":"","rhythm_ratio":1.0,"chromatic_density":0.238},{"voice":0,"pitch":76,"start":195.1665,"duration":0.1667,"velocity":127,"measure":74,"beat":1.75,"subject_pos":-1,"motif":"","motif_pos":-1,"best_pos":1,"similarity":0.714,"stretto":false,"stretto_voices":0,"combination":[],"aug_dim":"","rhythm_ratio":1.0,"chromatic_density":0.238},{"voice":1,"pitch":56,"start":195.1665,"duration":0.1667,"velocity":127,"measure":74,"beat":1.75,"subject_pos":-1,"motif":"","motif_pos":-1,"best_pos":4,"similarity":0.357,"stretto":false,"stretto_voices":0,"combination":[],"aug_dim":"","rhythm_ratio":1.0,"chromatic_density":0.238},{"voice":0,"pitch":74,"start":195.3331,"duration":0.1667,"velocity":127,"measure":74,"beat":2.0,"subject_pos":-1,"motif":"","motif_pos":-1,"best_pos":2,"similarity":0.721,"stretto":false,"stretto_voices":0,"combination":[],"aug_dim":"","rhythm_ratio":1.0,"chromatic_density":0.238},{"voice":1,"pitch":59,"start":195.3331,"duration":0.1667,"velocity":127,"measure":74,"beat":2.0,"subject_pos":-1,"motif":"","motif_pos":-1,"best_pos":5,"similarity":0.214,"stretto":false,"stretto_voices":0,"combination":[],"aug_dim":"","rhythm_ratio":1.0,"chromatic_density":0.238},{"voice":0,"pitch":72,"start":195.4998,"duration":0.1667,"velocity":127,"measure":74,"beat":2.25,"subject_pos":-1,"motif":"","motif_pos":-1,"best_pos":3,"similarity":0.729,"stretto":false,"stretto_voices":0,"combination":[],"aug_dim":"","rhythm_ratio":1.0,"chromatic_density":0.238},{"voice":1,"pitch":52,"start":195.4998,"duration":0.3333,"velocity":127,"measure":74,"beat":2.25,"subject_pos":-1,"motif":"","motif_pos":-1,"best_pos":0,"similarity":0.171,"stretto":false,"stretto_voices":0,"combination":[],"aug_dim":"","rhythm_ratio":1.0,"chromatic_density":0.238},{"voice":0,"pitch":71,"start":195.6665,"duration":0.1667,"velocity":127,"measure":74,"beat":2.5,"subject_pos":-1,"motif":"","motif_pos":-1,"best_pos":4,"similarity":0.607,"stretto":false,"stretto_voices":0,"combination":[],"aug_dim":"","rhythm_ratio":1.0,"chromatic_density":0.238},{"voice":0,"pitch":69,"start":195.8331,"duration":0.1667,"velocity":127,"measure":74,"beat":2.75,"subject_pos":-1,"motif":"","motif_pos":-1,"best_pos":5,"similarity":0.507,"stretto":false,"stretto_voices":0,"combination":[],"aug_dim":"","rhythm_ratio":1.0,"chromatic_density":0.238},{"voice":0,"pitch":71,"start":195.9998,"duration":0.1667,"velocity":127,"measure":74,"beat":3.0,"subject_pos":-1,"motif":"","motif_pos":-1,"best_pos":6,"similarity":0.4,"stretto":false,"stretto_voices":0,"combination":[],"aug_dim":"","rhythm_ratio":1.0,"chromatic_density":0.238},{"voice":0,"pitch":69,"start":196.1665,"duration":0.1667,"velocity":127,"measure":74,"beat":3.25,"subject_pos":-1,"motif":"","motif_pos":-1,"best_pos":3,"similarity":0.593,"stretto":false,"stretto_voices":0,"combination":[],"aug_dim":"","rhythm_ratio":1.0,"chromatic_density":0.238},{"voice":0,"pitch":68,"start":196.3331,"duration":0.1667,"velocity":127,"measure":74,"beat":3.5,"subject_pos":-1,"motif":"","motif_pos":-1,"best_pos":4,"similarity":0.671,"stretto":false,"stretto_voices":0,"combination":[],"aug_dim":"","rhythm_ratio":1.0,"chromatic_density":0.238},{"voice":0,"pitch":69,"start":196.4998,"duration":0.1667,"velocity":127,"measure":74,"beat":3.75,"subject_pos":-1,"motif":"","motif_pos":-1,"best_pos":5,"similarity":0.507,"stretto":false,"stretto_voices":0,"combination":[],"aug_dim":"","rhythm_ratio":1.0,"chromatic_density":0.238},{"voice":0,"pitch":68,"start":196.6665,"duration":0.1667,"velocity":127,"measure":74,"beat":4.0,"subject_pos":-1,"motif":"","motif_pos":-1,"best_pos":4,"similarity":0.507,"stretto":false,"stretto_voices":0,"combination":[],"aug_dim":"","rhythm_ratio":1.0,"chromatic_density":0.238},{"voice":0,"pitch":66,"start":196.8331,"duration":0.1667,"velocity":127,"measure":74,"beat":4.25,"subject_pos":-1,"motif":"","motif_pos":-1,"best_pos":5,"similarity":0.464,"stretto":false,"stretto_voices":0,"combination":[],"aug_dim":"","rhythm_ratio":1.0,"chromatic_density":0.238},{"voice":0,"pitch":68,"start":196.9998,"duration":0.1667,"velocity":127,"measure":74,"beat":4.5,"subject_pos":-1,"motif":"","motif_pos":-1,"best_pos":6,"similarity":0.371,"stretto":false,"stretto_voices":0,"combination":[],"aug_dim":"","rhythm_ratio":1.0,"chromatic_density":0.238},{"voice":1,"pitch":62,"start":196.9998,"duration":0.6667,"velocity":127,"measure":74,"beat":4.5,"subject_pos":-1,"motif":"","motif_pos":-1,"best_pos":1,"similarity":0.321,"stretto":false,"stretto_voices":0,"combination":[],"aug_dim":"","rhythm_ratio":1.0,"chromatic_density":0.238},{"voice":0,"pitch":64,"start":197.1665,"duration":0.1667,"velocity":127,"measure":74,"beat":4.75,"subject_pos":-1,"motif":"","motif_pos":-1,"best_pos":2,"similarity":0.321,"stretto":false,"stretto_voices":0,"combination":[],"aug_dim":"","rhythm_ratio":1.0,"chromatic_density":0.238},{"voice":0,"pitch":68,"start":197.3331,"duration":0.1667,"velocity":127,"measure":75,"beat":1.0,"subject_pos":-1,"motif":"","motif_pos":-1,"best_pos":3,"similarity":0.2,"stretto":false,"stretto_voices":0,"combination":[],"aug_dim":"","rhythm_ratio":1.0,"chromatic_density":0.261},{"voice":0,"pitch":71,"start":197.4998,"duration":0.1667,"velocity":127,"measure":75,"beat":1.25,"subject_pos":-1,"motif":"","motif_pos":-1,"best_pos":0,"similarity":0.464,"stretto":false,"stretto_voices":0,"combination":[],"aug_dim":"","rhythm_ratio":1.0,"chromatic_density":0.261},{"voice":0,"pitch":76,"start":197.6665,"duration":0.1667,"velocity":127,"measure":75,"beat":1.5,"subject_pos":-1,"motif":"","motif_pos":-1,"best_pos":1,"similarity":0.714,"stretto":false,"stretto_voices":0,"combination":[],"aug_dim":"","rhythm_ratio":1.0,"chromatic_density":0.261},{"voice":1,"pitch":60,"start":197.6665,"duration":0.1667,"velocity":127,"measure":75,"beat":1.5,"subject_pos":-1,"motif":"","motif_pos":-1,"best_pos":4,"similarity":0.443,"stretto":false,"stretto_voices":0,"combination":[],"aug_dim":"","rhythm_ratio":1.0,"chromatic_density":0.261},{"voice":0,"pitch":74,"start":197.8331,"duration":0.1667,"velocity":127,"measure":75,"beat":1.75,"subject_pos":-1,"motif":"","motif_pos":-1,"best_pos":2,"similarity":0.721,"stretto":false,"stretto_voices":0,"combination":[],"aug_dim":"","rhythm_ratio":1.0,"chromatic_density":0.261},{"voice":1,"pitch":62,"start":197.8331,"duration":0.1667,"velocity":127,"measure":75,"beat":1.75,"subject_pos":-1,"motif":"","motif_pos":-1,"best_pos":5,"similarity":0.514,"stretto":false,"stretto_voices":0,"combination":[],"aug_dim":"","rhythm_ratio":1.0,"chromatic_density":0.261},{"voice":0,"pitch":72,"start":197.9998,"duration":0.1667,"velocity":127,"measure":75,"beat":2.0,"subject_pos":-1,"motif":"","motif_pos":-1,"best_pos":3,"similarity":0.664,"stretto":false,"stretto_voices":0,"combination":[],"aug_dim":"","rhythm_ratio":1.0,"chromatic_density":0.261},{"voice":1,"pitch":64,"start":197.9998,"duration":0.1667,"velocity":127,"measure":75,"beat":2.0,"subject_pos":-1,"motif":"","motif_pos":-1,"best_pos":1,"similarity":0.457,"stretto":false,"stretto_voices":0,"combination":[],"aug_dim":"","rhythm_ratio":1.0,"chromatic_density":0.261},{"voice":0,"pitch":71,"start":198.1665,"duration":0.1667,"velocity":127,"measure":75,"beat":2.25,"subject_pos":-1,"motif":"","motif_pos":-1,"best_pos":4,"similarity":0.479,"stretto":false,"stretto_voices":0,"combination":[],"aug_dim":"","rhythm_ratio":1.0,"chromatic_density":0.261},{"voice":1,"pitch":62,"start":198.1665,"duration":0.1667,"velocity":127,"measure":75,"beat":2.25,"subject_pos":-1,"motif":"","motif_pos":-1,"best_pos":2,"similarity":0.657,"stretto":false,"stretto_voices":0,"combination":[],"aug_dim":"","rhythm_ratio":1.0,"chromatic_density":0.261},{"voice":0,"pitch":69,"start":198.3331,"duration":0.1667,"velocity":127,"measure":75,"beat":2.5,"subject_pos":-1,"motif":"","motif_pos":-1,"best_pos":0,"similarity":0.446,"stretto":false,"stretto_voices":0,"combination":[],"aug_dim":"","rhythm_ratio":1.0,"chromatic_density":0.261},{"voice":1,"pitch":60,"start":198.3331,"duration":0.1667,"velocity":127,"measure":75,"beat":2.5,"subject_pos":-1,"motif":"","motif_pos":-1,"best_pos":3,"similarity":0.793,"stretto":false,"stretto_voices":0,"combination":[],"aug_dim":"","rhythm_ratio":1.0,"chromatic_density":0.261},{"voice":0,"pitch":74,"start":198.4998,"duration":0.6667,"velocity":127,"measure":75,"beat":2.75,"subject_pos":-1,"motif":"","motif_pos":-1,"best_pos":1,"similarity":0.625,"stretto":false,"stretto_voices":0,"combination":[],"aug_dim":"","rhythm_ratio":1.0,"chromatic_density":0.261},{"voice":1,"pitch":59,"start":198.4998,"duration":0.1667,"velocity":127,"measure":75,"beat":2.75,"subject_pos":-1,"motif":"","motif_pos":-1,"best_pos":4,"similarity":0.893,"stretto":false,"stretto_voices":0,"combination":[],"aug_dim":"","rhythm_ratio":1.0,"chromatic_density":0.261},{"voice":1,"pitch":60,"start":198.6665,"duration":0.1667,"velocity":127,"measure":75,"beat":3.0,"subject_pos":-1,"motif":"","motif_pos":-1,"best_pos":5,"similarity":0.821,"stretto":false,"stretto_voices":0,"combination":[],"aug_dim":"","rhythm_ratio":1.0,"chromatic_density":0.261},{"voice":1,"pitch":62,"start":198.8331,"duration":0.1667,"velocity":127,"measure":75,"beat":3.25,"subject_pos":-1,"motif":"","motif_pos":-1,"best_pos":6,"similarity":0.643,"stretto":false,"stretto_voices":0,"combination":[],"aug_dim":"","rhythm_ratio":1.0,"chromatic_density":0.261},{"voice":1,"pitch":64,"start":198.9998,"duration":0.1667,"velocity":127,"measure":75,"beat":3.5,"subject_pos":-1,"motif":"","motif_pos":-1,"best_pos":5,"similarity":0.521,"stretto":false,"stretto_voices":0,"combination":[],"aug_dim":"","rhythm_ratio":1.0,"chromatic_density":0.261},{"voice":0,"pitch":72,"start":199.1665,"duration":0.1667,"velocity":127,"measure":75,"beat":3.75,"subject_pos":-1,"motif":"","motif_pos":-1,"best_pos":3,"similarity":0.579,"stretto":false,"stretto_voices":0,"combination":[],"aug_dim":"","rhythm_ratio":1.0,"chromatic_density":0.261},{"voice":1,"pitch":66,"start":199.1665,"duration":0.1667,"velocity":127,"measure":75,"beat":3.75,"subject_pos":-1,"motif":"","motif_pos":-1,"best_pos":5,"similarity":0.586,"stretto":false,"stretto_voices":0,"combination":[],"aug_dim":"","rhythm_ratio":1.0,"chromatic_density":0.261},{"voice":0,"pitch":71,"start":199.3331,"duration":0.1667,"velocity":127,"measure":75,"beat":4.0,"subject_pos":-1,"motif":"","motif_pos":-1,"best_pos":4,"similarity":0.675,"stretto":false,"stretto_voices":0,"combination":[],"aug_dim":"","rhythm_ratio":1.0,"chromatic_density":0.261},{"voice":1,"pitch":68,"start":199.3331,"duration":0.1667,"velocity":127,"measure":75,"beat":4.0,"subject_pos":-1,"motif":"enigmatic_cell","motif_pos":0,"best_pos":0,"similarity":1.0,"stretto":false,"stretto_voices":0,"combination":[],"aug_dim":"","rhythm_ratio":1.0,"chromatic_density":0.261},{"voice":0,"pitch":72,"start":199.4998,"duration":0.3333,"velocity":127,"measure":75,"beat":4.25,"subject_pos":-1,"motif":"","motif_pos":-1,"best_pos":5,"similarity":0.529,"stretto":false,"stretto_voices":0,"combination":[],"aug_dim":"","rhythm_ratio":1.0,"chromatic_density":0.261},{"voice":1,"pitch":69,"start":199.4998,"duration":0.1667,"velocity":127,"measure":75,"beat":4.25,"subject_pos":-1,"motif":"enigmatic_cell","motif_pos":1,"best_pos":1,"similarity":1.0,"stretto":false,"stretto_voices":0,"combination":[],"aug_dim":"","rhythm_ratio":1.0,"chromatic_density":0.261},{"voice":1,"pitch":64,"start":199.6665,"duration":0.1667,"velocity":127,"measure":75,"beat":4.5,"subject_pos":-1,"motif":"enigmatic_cell","motif_pos":2,"best_pos":2,"similarity":1.0,"stretto":false,"stretto_voices":0,"combination":[],"aug_dim":"","rhythm_ratio":1.0,"chromatic_density":0.261},{"voice":1,"pitch":60,"start":199.8331,"duration":0.1667,"velocity":127,"measure":75,"beat":4.75,"subject_pos":-1,"motif":"","motif_pos":-1,"best_pos":5,"similarity":0.321,"stretto":false,"stretto_voices":0,"combination":[],"aug_dim":"","rhythm_ratio":1.0,"chromatic_density":0.261},{"voice":0,"pitch":77,"start":199.9998,"duration":0.3333,"velocity":127,"measure":76,"beat":1.0,"subject_pos":-1,"motif":"","motif_pos":-1,"best_pos":1,"similarity":0.5,"stretto":false,"stretto_voices":0,"combination":[],"aug_dim":"","rhythm_ratio":1.0,"chromatic_density":0.318},{"voice":1,"pitch":62,"start":199.9998,"duration":0.1667,"velocity":127,"measure":76,"beat":1.0,"subject_pos":-1,"motif":"","motif_pos":-1,"best_pos":6,"similarity":0.321,"stretto":false,"stretto_voices":0,"combination":[],"aug_dim":"","rhythm_ratio":1.0,"chromatic_density":0.318},{"voice":1,"pitch":67,"start":200.1665,"duration":0.1667,"velocity":127,"measure":76,"beat":1.25,"subject_pos":-1,"motif":"","motif_pos":-1,"best_pos":1,"similarity":0.329,"stretto":false,"stretto_voices":0,"combination":[],"aug_dim":"","rhythm_ratio":1.0,"chromatic_density":0.318},{"voice":1,"pitch":59,"start":200.3331,"duration":0.1667,"velocity":127,"measure":76,"beat":1.5,"subject_pos":-1,"motif":"","motif_pos":-1,"best_pos":4,"similarity":0.307,"stretto":false,"stretto_voices":0,"combination":[],"aug_dim":"","rhythm_ratio":1.0,"chromatic_density":0.318},{"voice":0,"pitch":76,"start":200.4998,"duration":0.3333,"velocity":127,"measure":76,"beat":1.75,"subject_pos":-1,"motif":"","motif_pos":-1,"best_pos":2,"similarity":0.5,"stretto":false,"stretto_voices":0,"combination":[],"aug_dim":"","rhythm_ratio":1.0,"chromatic_density":0.318},{"voice":1,"pitch":60,"start":200.4998,"duration":0.1667,"velocity":127,"measure":76,"beat":1.75,"subject_pos":-1,"motif":"","motif_pos":-1,"best_pos":5,"similarity":0.314,"stretto":false,"stretto_voices":0,"combination":[],"aug_dim":"","rhythm_ratio":1.0,"chromatic_density":0.318},{"voice":1,"pitch":65,"start":200.6665,"duration":0.1667,"velocity":127,"measure":76,"beat":2.0,"subject_pos":-1,"motif":"","motif_pos":-1,"best_pos":1,"similarity":0.314,"stretto":false,"stretto_voices":0,"combination":[],"aug_dim":"","rhythm_ratio":1.0,"chromatic_density":0.318},{"voice":1,"pitch":57,"start":200.8331,"duration":0.1667,"velocity":127,"measure":76,"beat":2.25,"subject_pos":-1,"motif":"","motif_pos":-1,"best_pos":5,"similarity":0.307,"stretto":false,"stretto_voices":0,"combination":[],"aug_dim":"","rhythm_ratio":1.0,"chromatic_density":0.318},{"voice":0,"pitch":74,"start":200.9998,"duration":0.3333,"velocity":127,"measure":76,"beat":2.5,"subject_pos":-1,"motif":"","motif_pos":-1,"best_pos":3,"similarity":0.464,"stretto":false,"stretto_voices":0,"combination":[],"aug_dim":"","rhythm_ratio":1.0,"chromatic_density":0.318},{"voice":1,"pitch":59,"start":200.9998,"duration":0.1667,"velocity":127,"measure":76,"beat":2.5,"subject_pos":-1,"motif":"","motif_pos":-1,"best_pos":0,"similarity":0.464,"stretto":false,"stretto_voices":0,"combination":[],"aug_dim":"","rhythm_ratio":1.0,"chromatic_density":0.318},{"voice":1,"pitch":64,"start":201.1665,"duration":0.1667,"velocity":127,"measure":76,"beat":2.75,"subject_pos":-1,"motif":"","motif_pos":-1,"best_pos":1,"similarity":0.714,"stretto":false,"stretto_voices":0,"combination":[],"aug_dim":"","rhythm_ratio":1.0,"chromatic_density":0.318},{"voice":0,"pitch":68,"start":201.3331,"duration":0.1667,"velocity":127,"measure":76,"beat":3.0,"subject_pos":-1,"motif":"","motif_pos":-1,"best_pos":4,"similarity":0.464,"stretto":false,"stretto_voices":0,"combination":[],"aug_dim":"","rhythm_ratio":1.0,"chromatic_density":0.318},{"voice":1,"pitch":62,"start":201.3331,"duration":0.1667,"velocity":127,"measure":76,"beat":3.0,"subject_pos":-1,"motif":"","motif_pos":-1,"best_pos":2,"similarity":0.721,"stretto":false,"stretto_voices":0,"combination":[],"aug_dim":"","rhythm_ratio":1.0,"chromatic_density":0.318},{"voice":0,"pitch":69,"start":201.4998,"duration":0.3333,"velocity":127,"measure":76,"beat":3.25,"subject_pos":-1,"motif":"","motif_pos":-1,"best_pos":5,"similarity":0.464,"stretto":false,"stretto_voices":0,"combination":[],"aug_dim":"","rhythm_ratio":1.0,"chromatic_density":0.318},{"voice":1,"pitch":60,"start":201.4998,"duration":0.1667,"velocity":127,"measure":76,"beat":3.25,"subject_pos":-1,"motif":"","motif_pos":-1,"best_pos":3,"similarity":0.729,"stretto":false,"stretto_voices":0,"combination":[],"aug_dim":"","rhythm_ratio":1.0,"chromatic_density":0.318},{"voice":1,"pitch":59,"start":201.6665,"duration":0.1667,"velocity":127,"measure":76,"beat":3.5,"subject_pos":-1,"motif":"","motif_pos":-1,"best_pos":4,"similarity":0.607,"stretto":false,"stretto_voices":0,"combination":[],"aug_dim":"","rhythm_ratio":1.0,"chromatic_density":0.318},{"voice":0,"pitch":72,"start":201.8331,"duration":0.1667,"velocity":127,"measure":76,"beat":3.75,"subject_pos":-1,"motif":"","motif_pos":-1,"best_pos":6,"similarity":0.286,"stretto":false,"stretto_voices":0,"combination":[],"aug_dim":"","rhythm_ratio":1.0,"chromatic_density":0.318},{"voice":1,"pitch":57,"start":201.8331,"duration":0.1667,"velocity":127,"measure":76,"beat":3.75,"subject_pos":-1,"motif":"","motif_pos":-1,"best_pos":5,"similarity":0.507,"stretto":false,"stretto_voices":0,"combination":[],"aug_dim":"","rhythm_ratio":1.0,"chromatic_density":0.318},{"voice":0,"pitch":65,"start":201.9998,"duration":0.5,"velocity":127,"measure":76,"beat":4.0,"subject_pos":-1,"motif":"","motif_pos":-1,"best_pos":3,"similarity":0.407,"stretto":false,"stretto_voices":0,"combination":[],"aug_dim":"","rhythm_ratio":1.0,"chromatic_density":0.318},{"voice":1,"pitch":59,"start":201.9998,"duration":0.1667,"velocity":127,"measure":76,"beat":4.0,"subject_pos":-1,"motif":"","motif_pos":-1,"best_pos":6,"similarity":0.4,"stretto":false,"stretto_voices":0,"combination":[],"aug_dim":"","rhythm_ratio":1.0,"chromatic_density":0.318},{"voice":1,"pitch":57,"start":202.1665,"duration":0.1667,"velocity":127,"measure":76,"beat":4.25,"subject_pos":-1,"motif":"","motif_pos":-1,"best_pos":3,"similarity":0.593,"stretto":false,"stretto_voices":0,"combination":[],"aug_dim":"","rhythm_ratio":1.0,"chromatic_density":0.318},{"voice":1,"pitch":56,"start":202.3331,"duration":0.1667,"velocity":127,"measure":76,"beat":4.5,"subject_pos":-1,"motif":"","motif_pos":-1,"best_pos":4,"similarity":0.671,"stretto":false,"stretto_voices":0,"combination":[],"aug_dim":"","rhythm_ratio":1.0,"chromatic_density":0.318},{"voice":0,"pitch":64,"start":202.4998,"duration":0.3333,"velocity":127,"measure":76,"beat":4.75,"subject_pos":-1,"motif":"","motif_pos":-1,"best_pos":4,"similarity":0.543,"stretto":false,"stretto_voices":0,"combination":[],"aug_dim":"","rhythm_ratio":1.0,"chromatic_density":0.318},{"voice":1,"pitch":57,"start":202.4998,"duration":0.1667,"velocity":127,"measure":76,"beat":4.75,"subject_pos":-1,"motif":"","motif_pos":-1,"best_pos":5,"similarity":0.507,"stretto":false,"stretto_voices":0,"combination":[],"aug_dim":"","rhythm_ratio":1.0,"chromatic_density":0.318},{"voice":1,"pitch":56,"start":202.6665,"duration":0.1667,"velocity":127,"measure":77,"beat":1.0,"subject_pos":-1,"motif":"","motif_pos":-1,"best_pos":4,"similarity":0.507,"stretto":false,"stretto_voices":0,"combination":[],"aug_dim":"","rhythm_ratio":1.0,"chromatic_density":0.176},{"voice":1,"pitch":54,"start":202.8331,"duration":0.1667,"velocity":127,"measure":77,"beat":1.25,"subject_pos":-1,"motif":"","motif_pos":-1,"best_pos":5,"similarity":0.464,"stretto":false,"stretto_voices":0,"combination":[],"aug_dim":"","rhythm_ratio":1.0,"chromatic_density":0.176},{"voice":1,"pitch":56,"start":202.9998,"duration":0.1667,"velocity":127,"measure":77,"beat":1.5,"subject_pos":-1,"motif":"","motif_pos":-1,"best_pos":6,"similarity":0.371,"stretto":false,"stretto_voices":0,"combination":[],"aug_dim":"","rhythm_ratio":1.0,"chromatic_density":0.176},{"voice":1,"pitch":52,"start":203.1665,"duration":0.1667,"velocity":127,"measure":77,"beat":1.75,"subject_pos":-1,"motif":"","motif_pos":-1,"best_pos":2,"similarity":0.321,"stretto":false,"stretto_voices":0,"combination":[],"aug_dim":"","rhythm_ratio":1.0,"chromatic_density":0.176},{"voice":1,"pitch":56,"start":203.3331,"duration":0.1667,"velocity":127,"measure":77,"beat":2.0,"subject_pos":-1,"motif":"","motif_pos":-1,"best_pos":3,"similarity":0.2,"stretto":false,"stretto_voices":0,"combination":[],"aug_dim":"","rhythm_ratio":1.0,"chromatic_density":0.176},{"voice":1,"pitch":59,"start":203.4998,"duration":0.1667,"velocity":127,"measure":77,"beat":2.25,"subject_pos":-1,"motif":"","motif_pos":-1,"best_pos":0,"similarity":0.464,"stretto":false,"stretto_voices":0,"combination":[],"aug_dim":"","rhythm_ratio":1.0,"chromatic_density":0.176},{"voice":1,"pitch":64,"start":203.6665,"duration":0.1667,"velocity":127,"measure":77,"beat":2.5,"subject_pos":-1,"motif":"","motif_pos":-1,"best_pos":1,"similarity":0.714,"stretto":false,"stretto_voices":0,"combination":[],"aug_dim":"","rhythm_ratio":1.0,"chromatic_density":0.176},{"voice":1,"pitch":62,"start":203.8331,"duration":0.1667,"velocity":127,"measure":77,"beat":2.75,"subject_pos":-1,"motif":"","motif_pos":-1,"best_pos":2,"similarity":0.721,"stretto":false,"stretto_voices":0,"combination":[],"aug_dim":"","rhythm_ratio":1.0,"chromatic_density":0.176},{"voice":1,"pitch":60,"start":203.9998,"duration":0.1667,"velocity":127,"measure":77,"beat":3.0,"subject_pos":-1,"motif":"","motif_pos":-1,"best_pos":3,"similarity":0.664,"stretto":false,"stretto_voices":0,"combination":[],"aug_dim":"","rhythm_ratio":1.0,"chromatic_density":0.176},{"voice":0,"pitch":62,"start":204.1665,"duration":0.1667,"velocity":127,"measure":77,"beat":3.25,"subject_pos":-1,"motif":"","motif_pos":-1,"best_pos":5,"similarity":0.607,"stretto":false,"stretto_voices":0,"combination":[],"aug_dim":"","rhythm_ratio":1.0,"chromatic_density":0.176},{"voice":1,"pitch":59,"start":204.1665,"duration":0.1667,"velocity":127,"measure":77,"beat":3.25,"subject_pos":-1,"motif":"","motif_pos":-1,"best_pos":4,"similarity":0.479,"stretto":false,"stretto_voices":0,"combination":[],"aug_dim":"","rhythm_ratio":1.0,"chromatic_density":0.176},{"voice":0,"pitch":64,"start":204.3331,"duration":0.1667,"velocity":127,"measure":77,"beat":3.5,"subject_pos":-1,"motif":"","motif_pos":-1,"best_pos":6,"similarity":0.657,"stretto":false,"stretto_voices":0,"combination":[],"aug_dim":"","rhythm_ratio":1.0,"chromatic_density":0.176},{"voice":1,"pitch":57,"start":204.3331,"duration":0.1667,"velocity":127,"measure":77,"beat":3.5,"subject_pos":-1,"motif":"","motif_pos":-1,"best_pos":0,"similarity":0.446,"stretto":false,"stretto_voices":0,"combination":[],"aug_dim":"","rhythm_ratio":1.0,"chromatic_density":0.176},{"voice":0,"pitch":65,"start":204.4998,"duration":0.1667,"velocity":127,"measure":77,"beat":3.75,"subject_pos":-1,"motif":"","motif_pos":-1,"best_pos":5,"similarity":0.636,"stretto":false,"stretto_voices":0,"combination":[],"aug_dim":"","rhythm_ratio":1.0,"chromatic_density":0.176},{"voice":1,"pitch":62,"start":204.4998,"duration":0.6667,"velocity":127,"measure":77,"beat":3.75,"subject_pos":-1,"motif":"","motif_pos":-1,"best_pos":1,"similarity":0.625,"stretto":false,"stretto_voices":0,"combination":[],"aug_dim":"","rhythm_ratio":1.0,"chromatic_density":0.176},{"voice":0,"pitch":67,"start":204.6665,"duration":0.1667,"velocity":127,"measure":77,"beat":4.0,"subject_pos":-1,"motif":"","motif_pos":-1,"best_pos":6,"similarity":0.464,"stretto":false,"stretto_voices":0,"combination":[],"aug_dim":"","rhythm_ratio":1.0,"chromatic_density":0.176},{"voice":0,"pitch":65,"start":204.8331,"duration":0.1667,"velocity":127,"measure":77,"beat":4.25,"subject_pos":-1,"motif":"","motif_pos":-1,"best_pos":3,"similarity":0.664,"stretto":false,"stretto_voices":0,"combination":[],"aug_dim":"","rhythm_ratio":1.0,"chromatic_density":0.176},{"voice":0,"pitch":64,"start":204.9998,"duration":0.6667,"velocity":127,"measure":77,"beat":4.5,"subject_pos":-1,"motif":"","motif_pos":-1,"best_pos":4,"similarity":0.829,"stretto":false,"stretto_voices":0,"combination":[],"aug_dim":"","rhythm_ratio":1.0,"chromatic_density":0.176},{"voice":1,"pitch":60,"start":205.1665,"duration":0.1667,"velocity":127,"measure":77,"beat":4.75,"subject_pos":-1,"motif":"","motif_pos":-1,"best_pos":3,"similarity":0.579,"stretto":false,"stretto_voices":0,"combination":[],"aug_dim":"","rhythm_ratio":1.0,"chromatic_density":0.176},{"voice":1,"pitch":59,"start":205.3331,"duration":0.1667,"velocity":127,"measure":78,"beat":1.0,"subject_pos":-1,"motif":"","motif_pos":-1,"best_pos":4,"similarity":0.675,"stretto":false,"stretto_voices":0,"combination":[],"aug_dim":"","rhythm_ratio":1.0,"chromatic_density":0.4},{"voice":1,"pitch":60,"start":205.4998,"duration":0.3333,"velocity":127,"measure":78,"beat":1.25,"subject_pos":-1,"motif":"","motif_pos":-1,"best_pos":5,"similarity":0.529,"stretto":false,"stretto_voices":0,"combination":[],"aug_dim":"","rhythm_ratio":1.0,"chromatic_density":0.4},{"voice":0,"pitch":65,"start":205.6665,"duration":0.1667,"velocity":127,"measure":78,"beat":1.5,"subject_pos":-1,"motif":"","motif_pos":-1,"best_pos":5,"similarity":0.821,"stretto":false,"stretto_voices":0,"combination":[],"aug_dim":"","rhythm_ratio":1.0,"chromatic_density":0.4},{"voice":0,"pitch":67,"start":205.8331,"duration":0.1667,"velocity":127,"measure":78,"beat":1.75,"subject_pos":-1,"motif":"","motif_pos":-1,"best_pos":6,"similarity":0.643,"stretto":false,"stretto_voices":0,"combination":[],"aug_dim":"","rhythm_ratio":1.0,"chromatic_density":0.4},{"voice":0,"pitch":69,"start":205.9998,"duration":0.1667,"velocity":127,"measure":78,"beat":2.0,"subject_pos":-1,"motif":"","motif_pos":-1,"best_pos":6,"similarity":0.661,"stretto":false,"stretto_voices":0,"combination":[],"aug_dim":"","rhythm_ratio":1.0,"chromatic_density":0.4},{"voice":1,"pitch":65,"start":205.9998,"duration":0.3333,"velocity":127,"measure":78,"beat":2.0,"subject_pos":-1,"motif":"","motif_pos":-1,"best_pos":1,"similarity":0.5,"stretto":false,"stretto_voices":0,"combination":[],"aug_dim":"","rhythm_ratio":1.0,"chromatic_density":0.4},{"voice":0,"pitch":70,"start":206.1665,"duration":0.1667,"velocity":127,"measure":78,"beat":2.25,"subject_pos":-1,"motif":"","motif_pos":-1,"best_pos":7,"similarity":0.464,"stretto":false,"stretto_voices":0,"combination":[],"aug_dim":"","rhythm_ratio":1.0,"chromatic_density":0.4},{"voice":0,"pitch":69,"start":206.3331,"duration":0.1667,"velocity":127,"measure":78,"beat":2.5,"subject_pos":-1,"motif":"","motif_pos":-1,"best_pos":4,"similarity":0.486,"stretto":false,"stretto_voices":0,"combination":[],"aug_dim":"","rhythm_ratio":1.0,"chromatic_density":0.4},{"voice":0,"pitch":67,"start":206.4998,"duration":0.1667,"velocity":127,"measure":78,"beat":2.75,"subject_pos":-1,"motif":"","motif_pos":-1,"best_pos":5,"similarity":0.479,"stretto":false,"stretto_voices":0,"combination":[],"aug_dim":"","rhythm_ratio":1.0,"chromatic_density":0.4},{"voice":1,"pitch":64,"start":206.4998,"duration":0.3333,"velocity":127,"measure":78,"beat":2.75,"subject_pos":-1,"motif":"","motif_pos":-1,"best_pos":2,"similarity":0.5,"stretto":false,"stretto_voices":0,"combination":[],"aug_dim":"","rhythm_ratio":1.0,"chromatic_density":0.4},{"voice":0,"pitch":69,"start":206.6665,"duration":0.1667,"velocity":127,"measure":78,"beat":3.0,"subject_pos":-1,"motif":"","motif_pos":-1,"best_pos":6,"similarity":0.4,"stretto":false,"stretto_voices":0,"combination":[],"aug_dim":"","rhythm_ratio":1.0,"chromatic_density":0.4},{"voice":0,"pitch":67,"start":206.8331,"duration":0.1667,"velocity":127,"measure":78,"beat":3.25,"subject_pos":-1,"motif":"","motif_pos":-1,"best_pos":2,"similarity":0.464,"stretto":false,"stretto_voices":0,"combination":[],"aug_dim":"","rhythm_ratio":1.0,"chromatic_density":0.4},{"voice":0,"pitch":65,"start":206.9998,"duration":0.1667,"velocity":127,"measure":78,"beat":3.5,"subject_pos":-1,"motif":"","motif_pos":-1,"best_pos":5,"similarity":0.4,"stretto":false,"stretto_voices":0,"combination":[],"aug_dim":"","rhythm_ratio":1.0,"chromatic_density":0.4},{"voice":1,"pitch":62,"start":206.9998,"duration":0.3333,"velocity":127,"measure":78,"beat":3.5,"subject_pos":-1,"motif":"","motif_pos":-1,"best_pos":3,"similarity":0.464,"stretto":false,"stretto_voices":0,"combination":[],"aug_dim":"","rhythm_ratio":1.0,"chromatic_density":0.4},{"voice":0,"pitch":67,"start":207.1665,"duration":0.1667,"velocity":127,"measure":78,"beat":3.75,"subject_pos":-1,"motif":"","motif_pos":-1,"best_pos":2,"similarity":0.386,"stretto":false,"stretto_voices":0,"combination":[],"aug_dim":"","rhythm_ratio":1.0,"chromatic_density":0.4},{"voice":0,"pitch":65,"start":207.3331,"duration":0.1667,"velocity":127,"measure":78,"beat":4.0,"subject_pos":-1,"motif":"","motif_pos":-1,"best_pos":3,"similarity":0.593,"stretto":false,"stretto_voices":0,"combination":[],"aug_dim":"","rhythm_ratio":1.0,"chromatic_density":0.4},{"voice":1,"pitch":56,"start":207.3331,"duration":0.1667,"velocity":127,"measure":78,"beat":4.0,"subject_pos":-1,"motif":"","motif_pos":-1,"best_pos":4,"similarity":0.464,"stretto":false,"stretto_voices":0,"combination":[],"aug_dim":"","rhythm_ratio":1.0,"chromatic_density":0.4},{"voice":0,"pitch":64,"start":207.4998,"duration":0.1667,"velocity":127,"measure":78,"beat":4.25,"subject_pos":-1,"motif":"","motif_pos":-1,"best_pos":4,"similarity":0.671,"stretto":false,"stretto_voices":0,"combination":[],"aug_dim":"","rhythm_ratio":1.0,"chromatic_density":0.4},{"voice":1,"pitch":57,"start":207.4998,"duration":0.3333,"velocity":127,"measure":78,"beat":4.25,"subject_pos":-1,"motif":"","motif_pos":-1,"best_pos":5,"similarity":0.464,"stretto":false,"stretto_voices":0,"combination":[],"aug_dim":"","rhythm_ratio":1.0,"chromatic_density":0.4},{"voice":0,"pitch":65,"start":207.6665,"duration":0.1667,"velocity":127,"measure":78,"beat":4.5,"subject_pos":-1,"motif":"","motif_pos":-1,"best_pos":5,"similarity":0.507,"stretto":false,"stretto_voices":0,"combination":[],"aug_dim":"","rhythm_ratio":1.0,"chromatic_density":0.4},{"voice":0,"pitch":64,"start":207.8331,"duration":0.1667,"velocity":127,"measure":78,"beat":4.75,"subject_pos":-1,"motif":"","motif_pos":-1,"best_pos":4,"similarity":0.514,"stretto":false,"stretto_voices":0,"combination":[],"aug_dim":"","rhythm_ratio":1.0,"chromatic_density":0.4},{"voice":1,"pitch":60,"start":207.8331,"duration":0.1667,"velocity":127,"measure":78,"beat":4.75,"subject_pos":-1,"motif":"","motif_pos":-1,"best_pos":6,"similarity":0.286,"stretto":false,"stretto_voices":0,"combination":[],"aug_dim":"","rhythm_ratio":1.0,"chromatic_density":0.4},{"voice":0,"pitch":62,"start":207.9998,"duration":0.1667,"velocity":127,"measure":79,"beat":1.0,"subject_pos":-1,"motif":"","motif_pos":-1,"best_pos":5,"similarity":0.479,"stretto":false,"stretto_voices":0,"combination":[],"aug_dim":"","rhythm_ratio":1.0,"chromatic_density":0.5},{"voice":1,"pitch":53,"start":207.9998,"duration":0.5,"velocity":127,"measure":79,"beat":1.0,"subject_pos":-1,"motif":"","motif_pos":-1,"best_pos":3,"similarity":0.407,"stretto":false,"stretto_voices":0,"combination":[],"aug_dim":"","rhythm_ratio":1.0,"chromatic_density":0.5},{"voice":0,"pitch":64,"start":208.1665,"duration":0.1667,"velocity":127,"measure":79,"beat":1.25,"subject_pos":-1,"motif":"","motif_pos":-1,"best_pos":6,"similarity":0.4,"stretto":false,"stretto_voices":0,"combination":[],"aug_dim":"","rhythm_ratio":1.0,"chromatic_density":0.5},{"voice":0,"pitch":62,"start":208.3331,"duration":0.1667,"velocity":127,"measure":79,"beat":1.5,"subject_pos":-1,"motif":"tail","motif_pos":3,"best_pos":3,"similarity":1.0,"stretto":false,"stretto_voices":0,"combination":[],"aug_dim":"","rhythm_ratio":1.0,"chromatic_density":0.5},{"voice":0,"pitch":61,"start":208.4998,"duration":0.3333,"velocity":127,"measure":79,"beat":1.75,"subject_pos":-1,"motif":"tail","motif_pos":4,"best_pos":4,"similarity":1.0,"stretto":false,"stretto_voices":0,"combination":[],"aug_dim":"","rhythm_ratio":1.0,"chromatic_density":0.5},{"voice":1,"pitch":52,"start":208.4998,"duration":0.3333,"velocity":127,"measure":79,"beat":1.75,"subject_pos":-1,"motif":"","motif_pos":-1,"best_pos":4,"similarity":0.543,"stretto":false,"stretto_voices":0,"combination":[],"aug_dim":"","rhythm_ratio":1.0,"chromatic_density":0.5},{"voice":0,"pitch":62,"start":208.9998,"duration":0.3333,"velocity":127,"measure":79,"beat":2.5,"subject_pos":-1,"motif":"tail","motif_pos":5,"best_pos":5,"similarity":1.0,"stretto":false,"stretto_voices":0,"combination":[],"aug_dim":"","rhythm_ratio":1.0,"chromatic_density":0.5},{"voice":0,"pitch":64,"start":209.4998,"duration":0.3333,"velocity":127,"measure":79,"beat":3.25,"subject_pos":-1,"motif":"tail","motif_pos":6,"best_pos":6,"similarity":1.0,"stretto":false,"stretto_voices":0,"combination":[],"aug_dim":"","rhythm_ratio":1.0,"chromatic_density":0.5},{"voice":0,"pitch":65,"start":209.9998,"duration":0.8333,"velocity":127,"measure":79,"beat":4.0,"subject_pos":-1,"motif":"tail","motif_pos":7,"best_pos":7,"similarity":1.0,"stretto":false,"stretto_voices":0,"combination":[],"aug_dim":"","rhythm_ratio":1.0,"chromatic_density":0.5},{"voice":1,"pitch":50,"start":210.1665,"duration":0.1667,"velocity":127,"measure":79,"beat":4.25,"subject_pos":-1,"motif":"","motif_pos":-1,"best_pos":5,"similarity":0.607,"stretto":false,"stretto_voices":0,"combination":[],"aug_dim":"","rhythm_ratio":1.0,"chromatic_density":0.5},{"voice":1,"pitch":52,"start":210.3331,"duration":0.1667,"velocity":127,"measure":79,"beat":4.5,"subject_pos":-1,"motif":"","motif_pos":-1,"best_pos":6,"similarity":0.657,"stretto":false,"stretto_voices":0,"combination":[],"aug_dim":"","rhythm_ratio":1.0,"chromatic_density":0.5},{"voice":1,"pitch":53,"start":210.4998,"duration":0.1667,"velocity":127,"measure":79,"beat":4.75,"subject_pos":-1,"motif":"","motif_pos":-1,"best_pos":5,"similarity":0.636,"stretto":false,"stretto_voices":0,"combination":[],"aug_dim":"","rhythm_ratio":1.0,"chromatic_density":0.5},{"voice":1,"pitch":55,"start":210.6665,"duration":0.1667,"velocity":127,"measure":80,"beat":1.0,"subject_pos":-1,"motif":"","motif_pos":-1,"best_pos":6,"similarity":0.464,"stretto":false,"stretto_voices":0,"combination":[],"aug_dim":"","rhythm_ratio":1.0,"chromatic_density":0.3},{"voice":0,"pitch":69,"start":210.8331,"duration":0.1667,"velocity":127,"measure":80,"beat":1.25,"subject_pos":-1,"motif":"","motif_pos":-1,"best_pos":1,"similarity":0.507,"stretto":false,"stretto_voices":0,"combination":[],"aug_dim":"","rhythm_ratio":1.0,"chromatic_density":0.3},{"voice":1,"pitch":53,"start":210.8331,"duration":0.1667,"velocity":127,"measure":80,"beat":1.25,"subject_pos":-1,"motif":"","motif_pos":-1,"best_pos":3,"similarity":0.664,"stretto":false,"stretto_voices":0,"combination":[],"aug_dim":"","rhythm_ratio":1.0,"chromatic_density":0.3},{"voice":0,"pitch":67,"start":210.9998,"duration":0.3333,"velocity":127,"measure":80,"beat":1.5,"subject_pos":-1,"motif":"","motif_pos":-1,"best_pos":2,"similarity":0.521,"stretto":false,"stretto_voices":0,"combination":[],"aug_dim":"","rhythm_ratio":1.0,"chromatic_density":0.3},{"voice":1,"pitch":52,"start":210.9998,"duration":0.6667,"velocity":127,"measure":80,"beat":1.5,"subject_pos":-1,"motif":"","motif_pos":-1,"best_pos":4,"similarity":0.829,"stretto":false,"stretto_voices":0,"combination":[],"aug_dim":"","rhythm_ratio":1.0,"chromatic_density":0.3},{"voice":0,"pitch":65,"start":211.3331,"duration":0.1667,"velocity":127,"measure":80,"beat":2.0,"subject_pos":-1,"motif":"","motif_pos":-1,"best_pos":5,"similarity":0.4,"stretto":false,"stretto_voices":0,"combination":[],"aug_dim":"","rhythm_ratio":1.0,"chromatic_density":0.3},{"voice":0,"pitch":67,"start":211.4998,"duration":0.1667,"velocity":127,"measure":80,"beat":2.25,"subject_pos":-1,"motif":"","motif_pos":-1,"best_pos":6,"similarity":0.364,"stretto":false,"stretto_voices":0,"combination":[],"aug_dim":"","rhythm_ratio":1.0,"chromatic_density":0.3},{"voice":0,"pitch":65,"start":211.6665,"duration":0.1667,"velocity":127,"measure":80,"beat":2.5,"subject_pos":-1,"motif":"","motif_pos":-1,"best_pos":3,"similarity":0.479,"stretto":false,"stretto_voices":0,"combination":[],"aug_dim":"","rhythm_ratio":1.0,"chromatic_density":0.3},{"voice":1,"pitch":53,"start":211.6665,"duration":0.1667,"velocity":127,"measure":80,"beat":2.5,"subject_pos":-1,"motif":"","motif_pos":-1,"best_pos":5,"similarity":0.821,"stretto":false,"stretto_voices":0,"combination":[],"aug_dim":"","rhythm_ratio":1.0,"chromatic_density":0.3},{"voice":0,"pitch":64,"start":211.8331,"duration":0.1667,"velocity":127,"measure":80,"beat":2.75,"subject_pos":-1,"motif":"","motif_pos":-1,"best_pos":4,"similarity":0.436,"stretto":false,"stretto_voices":0,"combination":[],"aug_dim":"","rhythm_ratio":1.0,"chromatic_density":0.3},{"voice":1,"pitch":55,"start":211.8331,"duration":0.1667,"velocity":127,"measure":80,"beat":2.75,"subject_pos":-1,"motif":"","motif_pos":-1,"best_pos":6,"similarity":0.643,"stretto":false,"stretto_voices":0,"combination":[],"aug_dim":"","rhythm_ratio":1.0,"chromatic_density":0.3},{"voice":0,"pitch":73,"start":211.9998,"duration":1.0,"velocity":127,"measure":80,"beat":3.0,"subject_pos":-1,"motif":"","motif_pos":-1,"best_pos":4,"similarity":0.393,"stretto":false,"stretto_voices":0,"combination":[],"aug_dim":"","rhythm_ratio":1.0,"chromatic_density":0.3},{"voice":1,"pitch":57,"start":211.9998,"duration":0.1667,"velocity":127,"measure":80,"beat":3.0,"subject_pos":-1,"motif":"","motif_pos":-1,"best_pos":6,"similarity":0.661,"stretto":false,"stretto_voices":0,"combination":[],"aug_dim":"","rhythm_ratio":1.0,"chromatic_density":0.3},{"voice":1,"pitch":58,"start":212.1665,"duration":0.1667,"velocity":127,"measure":80,"beat":3.25,"subject_pos":-1,"motif":"","motif_pos":-1,"best_pos":7,"similarity":0.464,"stretto":false,"stretto_voices":0,"combination":[],"aug_dim":"","rhythm_ratio":1.0,"chromatic_density":0.3},{"voice":1,"pitch":57,"start":212.3331,"duration":0.1667,"velocity":127,"measure":80,"beat":3.5,"subject_pos":-1,"motif":"","motif_pos":-1,"best_pos":4,"similarity":0.486,"stretto":false,"stretto_voices":0,"combination":[],"aug_dim":"","rhythm_ratio":1.0,"chromatic_density":0.3},{"voice":1,"pitch":55,"start":212.4998,"duration":0.1667,"velocity":127,"measure":80,"beat":3.75,"subject_pos":-1,"motif":"","motif_pos":-1,"best_pos":5,"similarity":0.479,"stretto":false,"stretto_voices":0,"combination":[],"aug_dim":"","rhythm_ratio":1.0,"chromatic_density":0.3},{"voice":1,"pitch":57,"start":212.6665,"duration":0.1667,"velocity":127,"measure":80,"beat":4.0,"subject_pos":-1,"motif":"","motif_pos":-1,"best_pos":6,"similarity":0.4,"stretto":false,"stretto_voices":0,"combination":[],"aug_dim":"","rhythm_ratio":1.0,"chromatic_density":0.3},{"voice":1,"pitch":55,"start":212.8331,"duration":0.1667,"velocity":127,"measure":80,"beat":4.25,"subject_pos":-1,"motif":"","motif_pos":-1,"best_pos":2,"similarity":0.464,"stretto":false,"stretto_voices":0,"combination":[],"aug_dim":"","rhythm_ratio":1.0,"chromatic_density":0.3},{"voice":0,"pitch":74,"start":212.9998,"duration":0.1667,"velocity":127,"measure":80,"beat":4.5,"subject_pos":-1,"motif":"","motif_pos":-1,"best_pos":1,"similarity":0.314,"stretto":false,"stretto_voices":0,"combination":[],"aug_dim":"","rhythm_ratio":1.0,"chromatic_density":0.3},{"voice":1,"pitch":53,"start":212.9998,"duration":0.1667,"velocity":127,"measure":80,"beat":4.5,"subject_pos":-1,"motif":"","motif_pos":-1,"best_pos":5,"similarity":0.4,"stretto":false,"stretto_voices":0,"combination":[],"aug_dim":"","rhythm_ratio":1.0,"chromatic_density":0.3},{"voice":0,"pitch":70,"start":213.1665,"duration":0.1667,"velocity":127,"measure":80,"beat":4.75,"subject_pos":-1,"motif":"","motif_pos":-1,"best_pos":2,"similarity":0.307,"stretto":false,"stretto_voices":0,"combination":[],"aug_dim":"","rhythm_ratio":1.0,"chromatic_density":0.3},{"voice":1,"pitch":55,"start":213.1665,"duration":0.1667,"velocity":127,"measure":80,"beat":4.75,"subject_pos":-1,"motif":"","motif_pos":-1,"best_pos":2,"similarity":0.386,"stretto":false,"stretto_voices":0,"combination":[],"aug_dim":"","rhythm_ratio":1.0,"chromatic_density":0.3},{"voice":0,"pitch":79,"start":213.3331,"duration":0.1667,"velocity":127,"measure":81,"beat":1.0,"subject_pos":-1,"motif":"","motif_pos":-1,"best_pos":1,"similarity":0.243,"stretto":false,"stretto_voices":0,"combination":[],"aug_dim":"","rhythm_ratio":1.0,"chromatic_density":0.208},{"voice":1,"pitch":53,"start":213.3331,"duration":0.1667,"velocity":127,"measure":81,"beat":1.0,"subject_pos":-1,"motif":"","motif_pos":-1,"best_pos":3,"similarity":0.593,"stretto":false,"stretto_voices":0,"combination":[],"aug_dim":"","rhythm_ratio":1.0,"chromatic_density":0.208},{"voice":0,"pitch":72,"start":213.4998,"duration":0.1667,"velocity":127,"measure":81,"beat":1.25,"subject_pos":-1,"motif":"","motif_pos":-1,"best_pos":2,"similarity":0.35,"stretto":false,"stretto_voices":0,"combination":[],"aug_dim":"","rhythm_ratio":1.0,"chromatic_density":0.208},{"voice":1,"pitch":52,"start":213.4998,"duration":0.1667,"velocity":127,"measure":81,"beat":1.25,"subject_pos":-1,"motif":"","motif_pos":-1,"best_pos":4,"similarity":0.671,"stretto":false,"stretto_voices":0,"combination":[],"aug_dim":"","rhythm_ratio":1.0,"chromatic_density":0.208},{"voice":0,"pitch":69,"start":213.6665,"duration":0.1667,"velocity":127,"measure":81,"beat":1.5,"subject_pos":-1,"motif":"","motif_pos":-1,"best_pos":3,"similarity":0.318,"stretto":false,"stretto_voices":0,"combination":[],"aug_dim":"","rhythm_ratio":1.0,"chromatic_density":0.208},{"voice":1,"pitch":53,"start":213.6665,"duration":0.1667,"velocity":127,"measure":81,"beat":1.5,"subject_pos":-1,"motif":"","motif_pos":-1,"best_pos":5,"similarity":0.507,"stretto":false,"stretto_voices":0,"combination":[],"aug_dim":"","rhythm_ratio":1.0,"chromatic_density":0.208},{"voice":0,"pitch":77,"start":213.8331,"duration":0.1667,"velocity":127,"measure":81,"beat":1.75,"subject_pos":-1,"motif":"","motif_pos":-1,"best_pos":1,"similarity":0.314,"stretto":false,"stretto_voices":0,"combination":[],"aug_dim":"","rhythm_ratio":1.0,"chromatic_density":0.208},{"voice":1,"pitch":52,"start":213.8331,"duration":0.1667,"velocity":127,"measure":81,"beat":1.75,"subject_pos":-1,"motif":"","motif_pos":-1,"best_pos":4,"similarity":0.514,"stretto":false,"stretto_voices":0,"combination":[],"aug_dim":"","rhythm_ratio":1.0,"chromatic_density":0.208},{"voice":0,"pitch":70,"start":213.9998,"duration":0.1667,"velocity":127,"measure":81,"beat":2.0,"subject_pos":-1,"motif":"","motif_pos":-1,"best_pos":2,"similarity":0.386,"stretto":false,"stretto_voices":0,"combination":[],"aug_dim":"","rhythm_ratio":1.0,"chromatic_density":0.208},{"voice":1,"pitch":50,"start":213.9998,"duration":0.1667,"velocity":127,"measure":81,"beat":2.0,"subject_pos":-1,"motif":"","motif_pos":-1,"best_pos":5,"similarity":0.479,"stretto":false,"stretto_voices":0,"combination":[],"aug_dim":"","rhythm_ratio":1.0,"chromatic_density":0.208},{"voice":0,"pitch":67,"start":214.1665,"duration":0.1667,"velocity":127,"measure":81,"beat":2.25,"subject_pos":-1,"motif":"","motif_pos":-1,"best_pos":3,"similarity":0.343,"stretto":false,"stretto_voices":0,"combination":[],"aug_dim":"","rhythm_ratio":1.0,"chromatic_density":0.208},{"voice":1,"pitch":52,"start":214.1665,"duration":0.1667,"velocity":127,"measure":81,"beat":2.25,"subject_pos":-1,"motif":"","motif_pos":-1,"best_pos":6,"similarity":0.4,"stretto":false,"stretto_voices":0,"combination":[],"aug_dim":"","rhythm_ratio":1.0,"chromatic_density":0.208},{"voice":0,"pitch":76,"start":214.3331,"duration":0.1667,"velocity":127,"measure":81,"beat":2.5,"subject_pos":-1,"motif":"","motif_pos":-1,"best_pos":1,"similarity":0.171,"stretto":false,"stretto_voices":0,"combination":[],"aug_dim":"","rhythm_ratio":1.0,"chromatic_density":0.208},{"voice":1,"pitch":50,"start":214.3331,"duration":0.1667,"velocity":127,"measure":81,"beat":2.5,"subject_pos":-1,"motif":"tail","motif_pos":3,"best_pos":3,"similarity":1.0,"stretto":false,"stretto_voices":0,"combination":[],"aug_dim":"","rhythm_ratio":1.0,"chromatic_density":0.208},{"voice":0,"pitch":69,"start":214.4998,"duration":0.1667,"velocity":127,"measure":81,"beat":2.75,"subject_pos":-1,"motif":"","motif_pos":-1,"best_pos":1,"similarity":0.286,"stretto":false,"stretto_voices":0,"combination":[],"aug_dim":"","rhythm_ratio":1.0,"chromatic_density":0.208},{"voice":1,"pitch":49,"start":214.4998,"duration":0.3333,"velocity":127,"measure":81,"beat":2.75,"subject_pos":-1,"motif":"tail","motif_pos":4,"best_pos":4,"similarity":1.0,"stretto":false,"stretto_voices":0,"combination":[],"aug_dim":"","rhythm_ratio":1.0,"chromatic_density":0.208},{"voice":0,"pitch":67,"start":214.6665,"duration":0.1667,"velocity":127,"measure":81,"beat":3.0,"subject_pos":-1,"motif":"","motif_pos":-1,"best_pos":2,"similarity":0.286,"stretto":false,"stretto_voices":0,"combination":[],"aug_dim":"","rhythm_ratio":1.0,"chromatic_density":0.208},{"voice":0,"pitch":76,"start":214.8331,"duration":0.1667,"velocity":127,"measure":81,"beat":3.25,"subject_pos":-1,"motif":"","motif_pos":-1,"best_pos":1,"similarity":0.171,"stretto":false,"stretto_voices":0,"combination":[],"aug_dim":"","rhythm_ratio":1.0,"chromatic_density":0.208},{"voice":0,"pitch":69,"start":214.9998,"duration":0.1667,"velocity":127,"measure":81,"beat":3.5,"subject_pos":-1,"motif":"","motif_pos":-1,"best_pos":1,"similarity":0.286,"stretto":false,"stretto_voices":0,"combination":[],"aug_dim":"","rhythm_ratio":1.0,"chromatic_density":0.208},{"voice":1,"pitch":50,"start":214.9998,"duration":0.3333,"velocity":127,"measure":81,"beat":3.5,"subject_pos":-1,"motif":"tail","motif_pos":5,"best_pos":5,"similarity":1.0,"stretto":false,"stretto_voices":0,"combination":[],"aug_dim":"","rhythm_ratio":1.0,"chromatic_density":0.208},{"voice":0,"pitch":65,"start":215.1665,"duration":0.1667,"velocity":127,"measure":81,"beat":3.75,"subject_pos":-1,"motif":"","motif_pos":-1,"best_pos":2,"similarity":0.293,"stretto":false,"stretto_voices":0,"combination":[],"aug_dim":"","rhythm_ratio":1.0,"chromatic_density":0.208},{"voice":0,"pitch":74,"start":215.3331,"duration":0.1667,"velocity":127,"measure":81,"beat":4.0,"subject_pos":-1,"motif":"","motif_pos":-1,"best_pos":1,"similarity":0.243,"stretto":false,"stretto_voices":0,"combination":[],"aug_dim":"","rhythm_ratio":1.0,"chromatic_density":0.208},{"voice":0,"pitch":67,"start":215.4998,"duration":0.1667,"velocity":127,"measure":81,"beat":4.25,"subject_pos":-1,"motif":"","motif_pos":-1,"best_pos":2,"similarity":0.421,"stretto":false,"stretto_voices":0,"combination":[],"aug_dim":"","rhythm_ratio":1.0,"chromatic_density":0.208},{"voice":1,"pitch":52,"start":215.4998,"duration":0.3333,"velocity":127,"measure":81,"beat":4.25,"subject_pos":-1,"motif":"tail","motif_pos":6,"best_pos":6,"similarity":1.0,"stretto":false,"stretto_voices":0,"combination":[],"aug_dim":"","rhythm_ratio":1.0,"chromatic_density":0.208},{"voice":0,"pitch":64,"start":215.6665,"duration":0.1667,"velocity":127,"measure":81,"beat":4.5,"subject_pos":-1,"motif":"","motif_pos":-1,"best_pos":3,"similarity":0.461,"stretto":false,"stretto_voices":0,"combination":[],"aug_dim":"","rhythm_ratio":1.0,"chromatic_density":0.208},{"voice":0,"pitch":73,"start":215.8331,"duration":0.1667,"velocity":127,"measure":81,"beat":4.75,"subject_pos":-1,"motif":"enigmatic_cell","motif_pos":0,"best_pos":0,"similarity":1.0,"stretto":false,"stretto_voices":0,"combination":[],"aug_dim":"","rhythm_ratio":1.0,"chromatic_density":0.208},{"voice":0,"pitch":74,"start":215.9998,"duration":0.1667,"velocity":127,"measure":82,"beat":1.0,"subject_pos":-1,"motif":"enigmatic_cell","motif_pos":1,"best_pos":1,"similarity":1.0,"stretto":false,"stretto_voices":0,"combination":[],"aug_dim":"","rhythm_ratio":1.0,"chromatic_density":0.263},{"voice":1,"pitch":53,"start":215.9998,"duration":0.8333,"velocity":127,"measure":82,"beat":1.0,"subject_pos":-1,"motif":"tail","motif_pos":7,"best_pos":7,"similarity":1.0,"stretto":false,"stretto_voices":0,"combination":[],"aug_dim":"","rhythm_ratio":1.0,"chromatic_density":0.263},{"voice":0,"pitch":69,"start":216.1665,"duration":0.1667,"velocity":127,"measure":82,"beat":1.25,"subject_pos":-1,"motif":"enigmatic_cell","motif_pos":2,"best_pos":2,"similarity":1.0,"stretto":false,"stretto_voices":0,"combination":[],"aug_dim":"","rhythm_ratio":1.0,"chromatic_density":0.263},{"voice":0,"pitch":65,"start":216.3331,"duration":0.1667,"velocity":127,"measure":82,"beat":1.5,"subject_pos":-1,"motif":"","motif_pos":-1,"best_pos":2,"similarity":0.657,"stretto":false,"stretto_voices":0,"combination":[],"aug_dim":"","rhythm_ratio":1.0,"chromatic_density":0.263},{"voice":0,"pitch":62,"start":216.4998,"duration":0.1667,"velocity":127,"measure":82,"beat":1.75,"subject_pos":-1,"motif":"","motif_pos":-1,"best_pos":3,"similarity":0.607,"stretto":false,"stretto_voices":0,"combination":[],"aug_dim":"","rhythm_ratio":1.0,"chromatic_density":0.263},{"voice":0,"pitch":64,"start":216.6664,"duration":0.1667,"velocity":127,"measure":82,"beat":2.0,"subject_pos":-1,"motif":"","motif_pos":-1,"best_pos":4,"similarity":0.614,"stretto":false,"stretto_voices":0,"combination":[],"aug_dim":"","rhythm_ratio":1.0,"chromatic_density":0.263},{"voice":0,"pitch":65,"start":216.8331,"duration":0.1667,"velocity":127,"measure":82,"beat":2.25,"subject_pos":-1,"motif":"","motif_pos":-1,"best_pos":5,"similarity":0.543,"stretto":false,"stretto_voices":0,"combination":[],"aug_dim":"","rhythm_ratio":1.0,"chromatic_density":0.263},{"voice":1,"pitch":57,"start":216.8331,"duration":0.1667,"velocity":127,"measure":82,"beat":2.25,"subject_pos":-1,"motif":"","motif_pos":-1,"best_pos":1,"similarity":0.507,"stretto":false,"stretto_voices":0,"combination":[],"aug_dim":"","rhythm_ratio":1.0,"chromatic_density":0.263},{"voice":0,"pitch":64,"start":216.9998,"duration":0.1667,"velocity":127,"measure":82,"beat":2.5,"subject_pos":-1,"motif":"","motif_pos":-1,"best_pos":4,"similarity":0.629,"stretto":false,"stretto_voices":0,"combination":[],"aug_dim":"","rhythm_ratio":1.0,"chromatic_density":0.263},{"voice":1,"pitch":55,"start":216.9998,"duration":0.3333,"velocity":127,"measure":82,"beat":2.5,"subject_pos":-1,"motif":"","motif_pos":-1,"best_pos":2,"similarity":0.521,"stretto":false,"stretto_voices":0,"combination":[],"aug_dim":"","rhythm_ratio":1.0,"chromatic_density":0.263},{"voice":0,"pitch":65,"start":217.1664,"duration":0.1667,"velocity":127,"measure":82,"beat":2.75,"subject_pos":-1,"motif":"","motif_pos":-1,"best_pos":5,"similarity":0.507,"stretto":false,"stretto_voices":0,"combination":[],"aug_dim":"","rhythm_ratio":1.0,"chromatic_density":0.263},{"voice":0,"pitch":62,"start":217.3331,"duration":0.1667,"velocity":127,"measure":82,"beat":3.0,"subject_pos":-1,"motif":"","motif_pos":-1,"best_pos":3,"similarity":0.543,"stretto":false,"stretto_voices":0,"combination":[],"aug_dim":"","rhythm_ratio":1.0,"chromatic_density":0.263},{"voice":1,"pitch":53,"start":217.3331,"duration":0.1667,"velocity":127,"measure":82,"beat":3.0,"subject_pos":-1,"motif":"","motif_pos":-1,"best_pos":5,"similarity":0.4,"stretto":false,"stretto_voices":0,"combination":[],"aug_dim":"","rhythm_ratio":1.0,"chromatic_density":0.263},{"voice":0,"pitch":64,"start":217.4998,"duration":0.6667,"velocity":127,"measure":82,"beat":3.25,"subject_pos":-1,"motif":"","motif_pos":-1,"best_pos":4,"similarity":0.614,"stretto":false,"stretto_voices":0,"combination":[],"aug_dim":"","rhythm_ratio":1.0,"chromatic_density":0.263},{"voice":1,"pitch":55,"start":217.4998,"duration":0.1667,"velocity":127,"measure":82,"beat":3.25,"subject_pos":-1,"motif":"","motif_pos":-1,"best_pos":6,"similarity":0.364,"stretto":false,"stretto_voices":0,"combination":[],"aug_dim":"","rhythm_ratio":1.0,"chromatic_density":0.263},{"voice":1,"pitch":53,"start":217.6664,"duration":0.1667,"velocity":127,"measure":82,"beat":3.5,"subject_pos":-1,"motif":"","motif_pos":-1,"best_pos":3,"similarity":0.479,"stretto":false,"stretto_voices":0,"combination":[],"aug_dim":"","rhythm_ratio":1.0,"chromatic_density":0.263},{"voice":1,"pitch":52,"start":217.8331,"duration":0.1667,"velocity":127,"measure":82,"beat":3.75,"subject_pos":-1,"motif":"","motif_pos":-1,"best_pos":4,"similarity":0.436,"stretto":false,"stretto_voices":0,"combination":[],"aug_dim":"","rhythm_ratio":1.0,"chromatic_density":0.263},{"voice":1,"pitch":61,"start":217.9998,"duration":1.0,"velocity":127,"measure":82,"beat":4.0,"subject_pos":-1,"motif":"","motif_pos":-1,"best_pos":4,"similarity":0.393,"stretto":false,"stretto_voices":0,"combination":[],"aug_dim":"","rhythm_ratio":1.0,"chromatic_density":0.263},{"voice":0,"pitch":65,"start":218.1664,"duration":0.1667,"velocity":127,"measure":82,"beat":4.25,"subject_pos":-1,"motif":"","motif_pos":-1,"best_pos":5,"similarity":0.671,"stretto":false,"stretto_voices":0,"combination":[],"aug_dim":"","rhythm_ratio":1.0,"chromatic_density":0.263},{"voice":0,"pitch":67,"start":218.3331,"duration":0.1667,"velocity":127,"measure":82,"beat":4.5,"subject_pos":-1,"motif":"","motif_pos":-1,"best_pos":6,"similarity":0.464,"stretto":false,"stretto_voices":0,"combination":[],"aug_dim":"","rhythm_ratio":1.0,"chromatic_density":0.263},{"voice":0,"pitch":65,"start":218.4998,"duration":0.1667,"velocity":127,"measure":82,"beat":4.75,"subject_pos":-1,"motif":"","motif_pos":-1,"best_pos":2,"similarity":0.407,"stretto":false,"stretto_voices":0,"combination":[],"aug_dim":"","rhythm_ratio":1.0,"chromatic_density":0.263},{"voice":0,"pitch":67,"start":218.6664,"duration":0.1667,"velocity":127,"measure":83,"beat":1.0,"subject_pos":-1,"motif":"","motif_pos":-1,"best_pos":3,"similarity":0.371,"stretto":false,"stretto_voices":0,"combination":[],"aug_dim":"","rhythm_ratio":1.0,"chromatic_density":0.211},{"voice":0,"pitch":64,"start":218.8331,"duration":0.1667,"velocity":127,"measure":83,"beat":1.25,"subject_pos":-1,"motif":"","motif_pos":-1,"best_pos":4,"similarity":0.45,"stretto":false,"stretto_voices":0,"combination":[],"aug_dim":"","rhythm_ratio":1.0,"chromatic_density":0.211},{"voice":0,"pitch":65,"start":218.9998,"duration":0.3333,"velocity":127,"measure":83,"beat":1.5,"subject_pos":-1,"motif":"","motif_pos":-1,"best_pos":3,"similarity":0.414,"stretto":false,"stretto_voices":0,"combination":[],"aug_dim":"","rhythm_ratio":1.0,"chromatic_density":0.211},{"voice":1,"pitch":62,"start":218.9998,"duration":0.1667,"velocity":127,"measure":83,"beat":1.5,"subject_pos":-1,"motif":"","motif_pos":-1,"best_pos":1,"similarity":0.314,"stretto":false,"stretto_voices":0,"combination":[],"aug_dim":"","rhythm_ratio":1.0,"chromatic_density":0.211},{"voice":1,"pitch":58,"start":219.1664,"duration":0.1667,"velocity":127,"measure":83,"beat":1.75,"subject_pos":-1,"motif":"","motif_pos":-1,"best_pos":2,"similarity":0.307,"stretto":false,"stretto_voices":0,"combination":[],"aug_dim":"","rhythm_ratio":1.0,"chromatic_density":0.211},{"voice":1,"pitch":67,"start":219.3331,"duration":0.1667,"velocity":127,"measure":83,"beat":2.0,"subject_pos":-1,"motif":"","motif_pos":-1,"best_pos":1,"similarity":0.243,"stretto":false,"stretto_voices":0,"combination":[],"aug_dim":"","rhythm_ratio":1.0,"chromatic_density":0.211},{"voice":0,"pitch":64,"start":219.4998,"duration":0.3333,"velocity":127,"measure":83,"beat":2.25,"subject_pos":-1,"motif":"","motif_pos":-1,"best_pos":2,"similarity":0.514,"stretto":false,"stretto_voices":0,"combination":[],"aug_dim":"","rhythm_ratio":1.0,"chromatic_density":0.211},{"voice":1,"pitch":60,"start":219.4998,"duration":0.1667,"velocity":127,"measure":83,"beat":2.25,"subject_pos":-1,"motif":"","motif_pos":-1,"best_pos":2,"similarity":0.35,"stretto":false,"stretto_voices":0,"combination":[],"aug_dim":"","rhythm_ratio":1.0,"chromatic_density":0.211},{"voice":1,"pitch":57,"start":219.6664,"duration":0.1667,"velocity":127,"measure":83,"beat":2.5,"subject_pos":-1,"motif":"","motif_pos":-1,"best_pos":3,"similarity":0.318,"stretto":false,"stretto_voices":0,"combination":[],"aug_dim":"","rhythm_ratio":1.0,"chromatic_density":0.211},{"voice":1,"pitch":65,"start":219.8331,"duration":0.1667,"velocity":127,"measure":83,"beat":2.75,"subject_pos":-1,"motif":"","motif_pos":-1,"best_pos":1,"similarity":0.314,"stretto":false,"stretto_voices":0,"combination":[],"aug_dim":"","rhythm_ratio":1.0,"chromatic_density":0.211},{"voice":0,"pitch":62,"start":219.9998,"duration":0.3333,"velocity":127,"measure":83,"beat":3.0,"subject_pos":-1,"motif":"tail","motif_pos":3,"best_pos":3,"similarity":1.0,"stretto":false,"stretto_voices":0,"combination":[],"aug_dim":"","rhythm_ratio":1.0,"chromatic_density":0.211},{"voice":1,"pitch":58,"start":219.9998,"duration":0.1667,"velocity":127,"measure":83,"beat":3.0,"subject_pos":-1,"motif":"","motif_pos":-1,"best_pos":2,"similarity":0.386,"stretto":false,"stretto_voices":0,"combination":[],"aug_dim":"","rhythm_ratio":1.0,"chromatic_density":0.211},{"voice":1,"pitch":55,"start":220.1664,"duration":0.1667,"velocity":127,"measure":83,"beat":3.25,"subject_pos":-1,"motif":"","motif_pos":-1,"best_pos":3,"similarity":0.343,"stretto":false,"stretto_voices":0,"combination":[],"aug_dim":"","rhythm_ratio":1.0,"chromatic_density":0.211},{"voice":1,"pitch":64,"start":220.3331,"duration":0.1667,"velocity":127,"measure":83,"beat":3.5,"subject_pos":-1,"motif":"","motif_pos":-1,"best_pos":1,"similarity":0.171,"stretto":false,"stretto_voices":0,"combination":[],"aug_dim":"","rhythm_ratio":1.0,"chromatic_density":0.211},{"voice":0,"pitch":61,"start":220.4998,"duration":0.3333,"velocity":127,"measure":83,"beat":3.75,"subject_pos":-1,"motif":"tail","motif_pos":4,"best_pos":4,"similarity":1.0,"stretto":false,"stretto_voices":0,"combination":[],"aug_dim":"","rhythm_ratio":1.0,"chromatic_density":0.211},{"voice":1,"pitch":57,"start":220.4998,"duration":0.1667,"velocity":127,"measure":83,"beat":3.75,"subject_pos":-1,"motif":"","motif_pos":-1,"best_pos":1,"similarity":0.286,"stretto":false,"stretto_voices":0,"combination":[],"aug_dim":"","rhythm_ratio":1.0,"chromatic_density":0.211},{"voice":1,"pitch":55,"start":220.6664,"duration":0.1667,"velocity":127,"measure":83,"beat":4.0,"subject_pos":-1,"motif":"","motif_pos":-1,"best_pos":2,"similarity":0.286,"stretto":false,"stretto_voices":0,"combination":[],"aug_dim":"","rhythm_ratio":1.0,"chromatic_density":0.211},{"voice":1,"pitch":64,"start":220.8331,"duration":0.1667,"velocity":127,"measure":83,"beat":4.25,"subject_pos":-1,"motif":"","motif_pos":-1,"best_pos":1,"similarity":0.171,"stretto":false,"stretto_voices":0,"combination":[],"aug_dim":"","rhythm_ratio":1.0,"chromatic_density":0.211},{"voice":0,"pitch":62,"start":220.9998,"duration":0.3333,"velocity":127,"measure":83,"beat":4.5,"subject_pos":-1,"motif":"tail","motif_pos":5,"best_pos":5,"similarity":1.0,"stretto":false,"stretto_voices":0,"combination":[],"aug_dim":"","rhythm_ratio":1.0,"chromatic_density":0.211},{"voice":1,"pitch":57,"start":220.9998,"duration":0.1667,"velocity":127,"measure":83,"beat":4.5,"subject_pos":-1,"motif":"","motif_pos":-1,"best_pos":1,"similarity":0.286,"stretto":false,"stretto_voices":0,"combination":[],"aug_dim":"","rhythm_ratio":1.0,"chromatic_density":0.211},{"voice":1,"pitch":53,"start":221.1664,"duration":0.1667,"velocity":127,"measure":83,"beat":4.75,"subject_pos":-1,"motif":"","motif_pos":-1,"best_pos":2,"similarity":0.293,"stretto":false,"stretto_voices":0,"combination":[],"aug_dim":"","rhythm_ratio":1.0,"chromatic_density":0.211},{"voice":1,"pitch":62,"start":221.3331,"duration":0.1667,"velocity":127,"measure":84,"beat":1.0,"subject_pos":-1,"motif":"","motif_pos":-1,"best_pos":1,"similarity":0.243,"stretto":false,"stretto_voices":0,"combination":[],"aug_dim":"","rhythm_ratio":1.0,"chromatic_density":0.318},{"voice":0,"pitch":64,"start":221.4998,"duration":0.3333,"velocity":127,"measure":84,"beat":1.25,"subject_pos":-1,"motif":"tail","motif_pos":6,"best_pos":6,"similarity":1.0,"stretto":false,"stretto_voices":0,"combination":[],"aug_dim":"","rhythm_ratio":1.0,"chromatic_density":0.318},{"voice":1,"pitch":55,"start":221.4998,"duration":0.1667,"velocity":127,"measure":84,"beat":1.25,"subject_pos":-1,"motif":"","motif_pos":-1,"best_pos":2,"similarity":0.421,"stretto":false,"stretto_voices":0,"combination":[],"aug_dim":"","rhythm_ratio":1.0,"chromatic_density":0.318},{"voice":1,"pitch":52,"start":221.6664,"duration":0.1667,"velocity":127,"measure":84,"beat":1.5,"subject_pos":-1,"motif":"","motif_pos":-1,"best_pos":3,"similarity":0.461,"stretto":false,"stretto_voices":0,"combination":[],"aug_dim":"","rhythm_ratio":1.0,"chromatic_density":0.318},{"voice":1,"pitch":61,"start":221.8331,"duration":0.1667,"velocity":127,"measure":84,"beat":1.75,"subject_pos":-1,"motif":"enigmatic_cell","motif_pos":0,"best_pos":0,"similarity":1.0,"stretto":false,"stretto_voices":0,"combination":[],"aug_dim":"","rhythm_ratio":1.0,"chromatic_density":0.318},{"voice":0,"pitch":65,"start":221.9998,"duration":0.1667,"velocity":127,"measure":84,"beat":2.0,"subject_pos":-1,"motif":"tail","motif_pos":7,"best_pos":7,"similarity":1.0,"stretto":false,"stretto_voices":0,"combination":[],"aug_dim":"","rhythm_ratio":1.0,"chromatic_density":0.318},{"voice":1,"pitch":62,"start":221.9998,"duration":0.1667,"velocity":127,"measure":84,"beat":2.0,"subject_pos":-1,"motif":"enigmatic_cell","motif_pos":1,"best_pos":1,"similarity":1.0,"stretto":false,"stretto_voices":0,"combination":[],"aug_dim":"","rhythm_ratio":1.0,"chromatic_density":0.318},{"voice":0,"pitch":64,"start":222.1664,"duration":0.1667,"velocity":127,"measure":84,"beat":2.25,"subject_pos":-1,"motif":"","motif_pos":-1,"best_pos":1,"similarity":0.357,"stretto":false,"stretto_voices":0,"combination":[],"aug_dim":"","rhythm_ratio":1.0,"chromatic_density":0.318},{"voice":1,"pitch":57,"start":222.1664,"duration":0.1667,"velocity":127,"measure":84,"beat":2.25,"subject_pos":-1,"motif":"enigmatic_cell","motif_pos":2,"best_pos":2,"similarity":1.0,"stretto":false,"stretto_voices":0,"combination":[],"aug_dim":"","rhythm_ratio":1.0,"chromatic_density":0.318},{"voice":0,"pitch":62,"start":222.3331,"duration":0.1667,"velocity":127,"measure":84,"beat":2.5,"subject_pos":-1,"motif":"","motif_pos":-1,"best_pos":2,"similarity":0.436,"stretto":false,"stretto_voices":0,"combination":[],"aug_dim":"","rhythm_ratio":1.0,"chromatic_density":0.318},{"voice":1,"pitch":53,"start":222.3331,"duration":0.1667,"velocity":127,"measure":84,"beat":2.5,"subject_pos":-1,"motif":"","motif_pos":-1,"best_pos":2,"similarity":0.657,"stretto":false,"stretto_voices":0,"combination":[],"aug_dim":"","rhythm_ratio":1.0,"chromatic_density":0.318},{"voice":0,"pitch":70,"start":222.4998,"duration":0.1667,"velocity":127,"measure":84,"beat":2.75,"subject_pos":-1,"motif":"","motif_pos":-1,"best_pos":3,"similarity":0.45,"stretto":false,"stretto_voices":0,"combination":[],"aug_dim":"","rhythm_ratio":1.0,"chromatic_density":0.318},{"voice":1,"pitch":50,"start":222.4998,"duration":0.1667,"velocity":127,"measure":84,"beat":2.75,"subject_pos":-1,"motif":"","motif_pos":-1,"best_pos":3,"similarity":0.607,"stretto":false,"stretto_voices":0,"combination":[],"aug_dim":"","rhythm_ratio":1.0,"chromatic_density":0.318},{"voice":0,"pitch":69,"start":222.6664,"duration":0.1667,"velocity":127,"measure":84,"beat":3.0,"subject_pos":-1,"motif":"","motif_pos":-1,"best_pos":4,"similarity":0.4,"stretto":false,"stretto_voices":0,"combination":[],"aug_dim":"","rhythm_ratio":1.0,"chromatic_density":0.318},{"voice":1,"pitch":52,"start":222.6664,"duration":0.1667,"velocity":127,"measure":84,"beat":3.0,"subject_pos":-1,"motif":"","motif_pos":-1,"best_pos":4,"similarity":0.614,"stretto":false,"stretto_voices":0,"combination":[],"aug_dim":"","rhythm_ratio":1.0,"chromatic_density":0.318},{"voice":0,"pitch":67,"start":222.8331,"duration":0.1667,"velocity":127,"measure":84,"beat":3.25,"subject_pos":-1,"motif":"","motif_pos":-1,"best_pos":2,"similarity":0.286,"stretto":false,"stretto_voices":0,"combination":[],"aug_dim":"","rhythm_ratio":1.0,"chromatic_density":0.318},{"voice":1,"pitch":53,"start":222.8331,"duration":0.1667,"velocity":127,"measure":84,"beat":3.25,"subject_pos":-1,"motif":"","motif_pos":-1,"best_pos":5,"similarity":0.543,"stretto":false,"stretto_voices":0,"combination":[],"aug_dim":"","rhythm_ratio":1.0,"chromatic_density":0.318},{"voice":0,"pitch":73,"start":222.9998,"duration":0.3333,"velocity":127,"measure":84,"beat":3.5,"subject_pos":-1,"motif":"","motif_pos":-1,"best_pos":1,"similarity":0.321,"stretto":false,"stretto_voices":0,"combination":[],"aug_dim":"","rhythm_ratio":1.0,"chromatic_density":0.318},{"voice":1,"pitch":52,"start":222.9998,"duration":0.1667,"velocity":127,"measure":84,"beat":3.5,"subject_pos":-1,"motif":"","motif_pos":-1,"best_pos":4,"similarity":0.629,"stretto":false,"stretto_voices":0,"combination":[],"aug_dim":"","rhythm_ratio":1.0,"chromatic_density":0.318},{"voice":1,"pitch":53,"start":223.1664,"duration":0.1667,"velocity":127,"measure":84,"beat":3.75,"subject_pos":-1,"motif":"","motif_pos":-1,"best_pos":5,"similarity":0.507,"stretto":false,"stretto_voices":0,"combination":[],"aug_dim":"","rhythm_ratio":1.0,"chromatic_density":0.318},{"voice":1,"pitch":50,"start":223.3331,"duration":0.1667,"velocity":127,"measure":84,"beat":4.0,"subject_pos":-1,"motif":"","motif_pos":-1,"best_pos":3,"similarity":0.543,"stretto":false,"stretto_voices":0,"combination":[],"aug_dim":"","rhythm_ratio":1.0,"chromatic_density":0.318},{"voice":1,"pitch":52,"start":223.4998,"duration":0.6667,"velocity":127,"measure":84,"beat":4.25,"subject_pos":-1,"motif":"","motif_pos":-1,"best_pos":4,"similarity":0.614,"stretto":false,"stretto_voices":0,"combination":[],"aug_dim":"","rhythm_ratio":1.0,"chromatic_density":0.318},{"voice":0,"pitch":67,"start":223.6664,"duration":0.1667,"velocity":127,"measure":84,"beat":4.5,"subject_pos":-1,"motif":"","motif_pos":-1,"best_pos":2,"similarity":0.429,"stretto":false,"stretto_voices":0,"combination":[],"aug_dim":"","rhythm_ratio":1.0,"chromatic_density":0.318},{"voice":0,"pitch":62,"start":223.8331,"duration":0.1667,"velocity":127,"measure":84,"beat":4.75,"subject_pos":-1,"motif":"","motif_pos":-1,"best_pos":3,"similarity":0.643,"stretto":false,"stretto_voices":0,"combination":[],"aug_dim":"","rhythm_ratio":1.0,"chromatic_density":0.318},{"voice":0,"pitch":61,"start":223.9998,"duration":0.1667,"velocity":127,"measure":85,"beat":1.0,"subject_pos":-1,"motif":"","motif_pos":-1,"best_pos":4,"similarity":0.768,"stretto":false,"stretto_voices":0,"combination":[],"aug_dim":"","rhythm_ratio":1.0,"chromatic_density":0.261},{"voice":0,"pitch":62,"start":224.1664,"duration":0.1667,"velocity":127,"measure":85,"beat":1.25,"subject_pos":-1,"motif":"","motif_pos":-1,"best_pos":5,"similarity":0.732,"stretto":false,"stretto_voices":0,"combination":[],"aug_dim":"","rhythm_ratio":1.0,"chromatic_density":0.261},{"voice":1,"pitch":53,"start":224.1664,"duration":0.1667,"velocity":127,"measure":85,"beat":1.25,"subject_pos":-1,"motif":"","motif_pos":-1,"best_pos":5,"similarity":0.671,"stretto":false,"stretto_voices":0,"combination":[],"aug_dim":"","rhythm_ratio":1.0,"chromatic_density":0.261},{"voice":0,"pitch":64,"start":224.3331,"duration":0.1667,"velocity":127,"measure":85,"beat":1.5,"subject_pos":-1,"motif":"head_inv","motif_pos":0,"best_pos":0,"similarity":1.0,"stretto":false,"stretto_voices":0,"combination":[],"aug_dim":"","rhythm_ratio":1.0,"chromatic_density":0.261},{"voice":1,"pitch":55,"start":224.3331,"duration":0.1667,"velocity":127,"measure":85,"beat":1.5,"subject_pos":-1,"motif":"","motif_pos":-1,"best_pos":6,"similarity":0.464,"stretto":false,"stretto_voices":0,"combination":[],"aug_dim":"","rhythm_ratio":1.0,"chromatic_density":0.261},{"voice":0,"pitch":57,"start":224.4998,"duration":0.1667,"velocity":127,"measure":85,"beat":1.75,"subject_pos":-1,"motif":"head_inv","motif_pos":1,"best_pos":1,"similarity":1.0,"stretto":false,"stretto_voices":0,"combination":[],"aug_dim":"","rhythm_ratio":1.0,"chromatic_density":0.261},{"voice":1,"pitch":53,"start":224.4998,"duration":0.1667,"velocity":127,"measure":85,"beat":1.75,"subject_pos":-1,"motif":"","motif_pos":-1,"best_pos":2,"similarity":0.407,"stretto":false,"stretto_voices":0,"combination":[],"aug_dim":"","rhythm_ratio":1.0,"chromatic_density":0.261},{"voice":0,"pitch":59,"start":224.6664,"duration":0.1667,"velocity":127,"measure":85,"beat":2.0,"subject_pos":-1,"motif":"head_inv","motif_pos":2,"best_pos":2,"similarity":1.0,"stretto":false,"stretto_voices":0,"combination":[],"aug_dim":"","rhythm_ratio":1.0,"chromatic_density":0.261},{"voice":1,"pitch":55,"start":224.6664,"duration":0.1667,"velocity":127,"measure":85,"beat":2.0,"subject_pos":-1,"motif":"","motif_pos":-1,"best_pos":3,"similarity":0.371,"stretto":false,"stretto_voices":0,"combination":[],"aug_dim":"","rhythm_ratio":1.0,"chromatic_density":0.261},{"voice":0,"pitch":61,"start":224.8331,"duration":0.1667,"velocity":127,"measure":85,"beat":2.25,"subject_pos":-1,"motif":"head_inv","motif_pos":3,"best_pos":3,"similarity":1.0,"stretto":false,"stretto_voices":0,"combination":[],"aug_dim":"","rhythm_ratio":1.0,"chromatic_density":0.261},{"voice":1,"pitch":52,"start":224.8331,"duration":0.1667,"velocity":127,"measure":85,"beat":2.25,"subject_pos":-1,"motif":"","motif_pos":-1,"best_pos":4,"similarity":0.45,"stretto":false,"stretto_voices":0,"combination":[],"aug_dim":"","rhythm_ratio":1.0,"chromatic_density":0.261},{"voice":0,"pitch":62,"start":224.9998,"duration":0.1667,"velocity":127,"measure":85,"beat":2.5,"subject_pos":-1,"motif":"head_inv","motif_pos":4,"best_pos":4,"similarity":1.0,"stretto":false,"stretto_voices":0,"combination":[],"aug_dim":"","rhythm_ratio":1.0,"chromatic_density":0.261},{"voice":1,"pitch":53,"start":224.9998,"duration":0.3333,"velocity":127,"measure":85,"beat":2.5,"subject_pos":-1,"motif":"","motif_pos":-1,"best_pos":3,"similarity":0.414,"stretto":false,"stretto_voices":0,"combination":[],"aug_dim":"","rhythm_ratio":1.0,"chromatic_density":0.261},{"voice":0,"pitch":55,"start":225.1664,"duration":0.1667,"velocity":127,"measure":85,"beat":2.75,"subject_pos":-1,"motif":"","motif_pos":-1,"best_pos":5,"similarity":0.25,"stretto":false,"stretto_voices":0,"combination":[],"aug_dim":"","rhythm_ratio":1.0,"chromatic_density":0.261},{"voice":0,"pitch":58,"start":225.3331,"duration":0.1667,"velocity":127,"measure":85,"beat":3.0,"subject_pos":-1,"motif":"","motif_pos":-1,"best_pos":5,"similarity":0.364,"stretto":false,"stretto_voices":0,"combination":[],"aug_dim":"","rhythm_ratio":1.0,"chromatic_density":0.261},{"voice":0,"pitch":60,"start":225.4998,"duration":0.1667,"velocity":127,"measure":85,"beat":3.25,"subject_pos":-1,"motif":"","motif_pos":-1,"best_pos":6,"similarity":0.321,"stretto":false,"stretto_voices":0,"combination":[],"aug_dim":"","rhythm_ratio":1.0,"chromatic_density":0.261},{"voice":1,"pitch":52,"start":225.4998,"duration":0.3333,"velocity":127,"measure":85,"beat":3.25,"subject_pos":-1,"motif":"","motif_pos":-1,"best_pos":2,"similarity":0.514,"stretto":false,"stretto_voices":0,"combination":[],"aug_dim":"","rhythm_ratio":1.0,"chromatic_density":0.261},{"voice":0,"pitch":53,"start":225.6664,"duration":0.1667,"velocity":127,"measure":85,"beat":3.5,"subject_pos":-1,"motif":"","motif_pos":-1,"best_pos":5,"similarity":0.229,"stretto":false,"stretto_voices":0,"combination":[],"aug_dim":"","rhythm_ratio":1.0,"chromatic_density":0.261},{"voice":0,"pitch":57,"start":225.8331,"duration":0.1667,"velocity":127,"measure":85,"beat":3.75,"subject_pos":-1,"motif":"enigmatic_cell","motif_pos":0,"best_pos":0,"similarity":1.0,"stretto":false,"stretto_voices":0,"combination":[],"aug_dim":"","rhythm_ratio":1.0,"chromatic_density":0.261},{"voice":0,"pitch":58,"start":225.9998,"duration":0.1667,"velocity":127,"measure":85,"beat":4.0,"subject_pos":-1,"motif":"enigmatic_cell","motif_pos":1,"best_pos":1,"similarity":1.0,"stretto":false,"stretto_voices":0,"combination":[],"aug_dim":"","rhythm_ratio":1.0,"chromatic_density":0.261},{"voice":1,"pitch":50,"start":225.9998,"duration":0.3333,"velocity":127,"measure":85,"beat":4.0,"subject_pos":-1,"motif":"tail","motif_pos":3,"best_pos":3,"similarity":1.0,"stretto":false,"stretto_voices":0,"combination":[],"aug_dim":"","rhythm_ratio":1.0,"chromatic_density":0.261},{"voice":0,"pitch":52,"start":226.1664,"duration":0.1667,"velocity":127,"measure":85,"beat":4.25,"subject_pos":-1,"motif":"enigmatic_cell","motif_pos":2,"best_pos":2,"similarity":1.0,"stretto":false,"stretto_voices":0,"combination":[],"aug_dim":"","rhythm_ratio":1.0,"chromatic_density":0.261},{"voice":0,"pitch":55,"start":226.3331,"duration":0.1667,"velocity":127,"measure":85,"beat":4.5,"subject_pos":-1,"motif":"","motif_pos":-1,"best_pos":5,"similarity":0.364,"stretto":false,"stretto_voices":0,"combination":[],"aug_dim":"","rhythm_ratio":1.0,"chromatic_density":0.261},{"voice":0,"pitch":57,"start":226.4998,"duration":0.1667,"velocity":127,"measure":85,"beat":4.75,"subject_pos":-1,"motif":"","motif_pos":-1,"best_pos":6,"similarity":0.321,"stretto":false,"stretto_voices":0,"combination":[],"aug_dim":"","rhythm_ratio":1.0,"chromatic_density":0.261},{"voice":1,"pitch":49,"start":226.4998,"duration":0.3333,"velocity":127,"measure":85,"beat":4.75,"subject_pos":-1,"motif":"tail","motif_pos":4,"best_pos":4,"similarity":1.0,"stretto":false,"stretto_voices":0,"combination":[],"aug_dim":"","rhythm_ratio":1.0,"chromatic_density":0.261},{"voice":0,"pitch":69,"start":226.6664,"duration":0.1667,"velocity":127,"measure":86,"beat":1.0,"subject_pos":-1,"motif":"","motif_pos":-1,"best_pos":1,"similarity":0.357,"stretto":false,"stretto_voices":0,"combination":[],"aug_dim":"","rhythm_ratio":1.0,"chromatic_density":0.381},{"voice":0,"pitch":67,"start":226.8331,"duration":0.1667,"velocity":127,"measure":86,"beat":1.25,"subject_pos":-1,"motif":"","motif_pos":-1,"best_pos":2,"similarity":0.436,"stretto":false,"stretto_voices":0,"combination":[],"aug_dim":"","rhythm_ratio":1.0,"chromatic_density":0.381},{"voice":0,"pitch":65,"start":226.9998,"duration":0.1667,"velocity":127,"measure":86,"beat":1.5,"subject_pos":-1,"motif":"","motif_pos":-1,"best_pos":2,"similarity":0.364,"stretto":false,"stretto_voices":0,"combination":[],"aug_dim":"","rhythm_ratio":1.0,"chromatic_density":0.381},{"voice":1,"pitch":50,"start":226.9998,"duration":0.3333,"velocity":127,"measure":86,"beat":1.5,"subject_pos":-1,"motif":"tail","motif_pos":5,"best_pos":5,"similarity":1.0,"stretto":false,"stretto_voices":0,"combination":[],"aug_dim":"","rhythm_ratio":1.0,"chromatic_density":0.381},{"voice":0,"pitch":74,"start":227.1664,"duration":0.1667,"velocity":127,"measure":86,"beat":1.75,"subject_pos":-1,"motif":"","motif_pos":-1,"best_pos":1,"similarity":0.5,"stretto":false,"stretto_voices":0,"combination":[],"aug_dim":"","rhythm_ratio":1.0,"chromatic_density":0.381},{"voice":0,"pitch":72,"start":227.3331,"duration":0.1667,"velocity":127,"measure":86,"beat":2.0,"subject_pos":-1,"motif":"","motif_pos":-1,"best_pos":2,"similarity":0.679,"stretto":false,"stretto_voices":0,"combination":[],"aug_dim":"","rhythm_ratio":1.0,"chromatic_density":0.381},{"voice":0,"pitch":70,"start":227.4998,"duration":0.1667,"velocity":127,"measure":86,"beat":2.25,"subject_pos":-1,"motif":"","motif_pos":-1,"best_pos":3,"similarity":0.739,"stretto":false,"stretto_voices":0,"combination":[],"aug_dim":"","rhythm_ratio":1.0,"chromatic_density":0.381},{"voice":1,"pitch":52,"start":227.4998,"duration":0.3333,"velocity":127,"measure":86,"beat":2.25,"subject_pos":-1,"motif":"tail","motif_pos":6,"best_pos":6,"similarity":1.0,"stretto":false,"stretto_voices":0,"combination":[],"aug_dim":"","rhythm_ratio":1.0,"chromatic_density":0.381},{"voice":0,"pitch":69,"start":227.6664,"duration":0.1667,"velocity":127,"measure":86,"beat":2.5,"subject_pos":-1,"motif":"","motif_pos":-1,"best_pos":4,"similarity":0.729,"stretto":false,"stretto_voices":0,"combination":[],"aug_dim":"","rhythm_ratio":1.0,"chromatic_density":0.381},{"voice":0,"pitch":70,"start":227.8331,"duration":0.1667,"velocity":127,"measure":86,"beat":2.75,"subject_pos":-1,"motif":"","motif_pos":-1,"best_pos":5,"similarity":0.493,"stretto":false,"stretto_voices":0,"combination":[],"aug_dim":"","rhythm_ratio":1.0,"chromatic_density":0.381},{"voice":0,"pitch":69,"start":227.9998,"duration":0.5,"velocity":127,"measure":86,"beat":3.0,"subject_pos":-1,"motif":"","motif_pos":-1,"best_pos":4,"similarity":0.421,"stretto":false,"stretto_voices":0,"combination":[],"aug_dim":"","rhythm_ratio":1.0,"chromatic_density":0.381},{"voice":1,"pitch":53,"start":227.9998,"duration":0.1667,"velocity":127,"measure":86,"beat":3.0,"subject_pos":-1,"motif":"tail","motif_pos":7,"best_pos":7,"similarity":1.0,"stretto":false,"stretto_voices":0,"combination":[],"aug_dim":"","rhythm_ratio":1.0,"chromatic_density":0.381},{"voice":1,"pitch":52,"start":228.1664,"duration":0.1667,"velocity":127,"measure":86,"beat":3.25,"subject_pos":-1,"motif":"","motif_pos":-1,"best_pos":1,"similarity":0.357,"stretto":false,"stretto_voices":0,"combination":[],"aug_dim":"","rhythm_ratio":1.0,"chromatic_density":0.381},{"voice":1,"pitch":50,"start":228.3331,"duration":0.1667,"velocity":127,"measure":86,"beat":3.5,"subject_pos":-1,"motif":"","motif_pos":-1,"best_pos":2,"similarity":0.436,"stretto":false,"stretto_voices":0,"combination":[],"aug_dim":"","rhythm_ratio":1.0,"chromatic_density":0.381},{"voice":0,"pitch":62,"start":228.4998,"duration":0.1667,"velocity":127,"measure":86,"beat":3.75,"subject_pos":-1,"motif":"","motif_pos":-1,"best_pos":3,"similarity":0.607,"stretto":false,"stretto_voices":0,"combination":[],"aug_dim":"","rhythm_ratio":1.0,"chromatic_density":0.381},{"voice":1,"pitch":58,"start":228.4998,"duration":0.1667,"velocity":127,"measure":86,"beat":3.75,"subject_pos":-1,"motif":"","motif_pos":-1,"best_pos":3,"similarity":0.45,"stretto":false,"stretto_voices":0,"combination":[],"aug_dim":"","rhythm_ratio":1.0,"chromatic_density":0.381},{"voice":0,"pitch":61,"start":228.6664,"duration":0.1667,"velocity":127,"measure":86,"beat":4.0,"subject_pos":-1,"motif":"","motif_pos":-1,"best_pos":4,"similarity":0.771,"stretto":false,"stretto_voices":0,"combination":[],"aug_dim":"","rhythm_ratio":1.0,"chromatic_density":0.381},{"voice":1,"pitch":57,"start":228.6664,"duration":0.1667,"velocity":127,"measure":86,"beat":4.0,"subject_pos":-1,"motif":"","motif_pos":-1,"best_pos":4,"similarity":0.4,"stretto":false,"stretto_voices":0,"combination":[],"aug_dim":"","rhythm_ratio":1.0,"chromatic_density":0.381},{"voice":0,"pitch":62,"start":228.8331,"duration":0.1667,"velocity":127,"measure":86,"beat":4.25,"subject_pos":-1,"motif":"","motif_pos":-1,"best_pos":5,"similarity":0.736,"stretto":false,"stretto_voices":0,"combination":[],"aug_dim":"","rhythm_ratio":1.0,"chromatic_density":0.381},{"voice":1,"pitch":55,"start":228.8331,"duration":0.1667,"velocity":127,"measure":86,"beat":4.25,"subject_pos":-1,"motif":"","motif_pos":-1,"best_pos":2,"similarity":0.286,"stretto":false,"stretto_voices":0,"combination":[],"aug_dim":"","rhythm_ratio":1.0,"chromatic_density":0.381},{"voice":0,"pitch":64,"start":228.9998,"duration":0.1667,"velocity":127,"measure":86,"beat":4.5,"subject_pos":-1,"motif":"","motif_pos":-1,"best_pos":6,"similarity":0.529,"stretto":false,"stretto_voices":0,"combination":[],"aug_dim":"","rhythm_ratio":1.0,"chromatic_density":0.381},{"voice":1,"pitch":61,"start":228.9998,"duration":0.3333,"velocity":127,"measure":86,"beat":4.5,"subject_pos":-1,"motif":"","motif_pos":-1,"best_pos":1,"similarity":0.321,"stretto":false,"stretto_voices":0,"combination":[],"aug_dim":"","rhythm_ratio":1.0,"chromatic_density":0.381},{"voice":0,"pitch":62,"start":229.1664,"duration":0.1667,"velocity":127,"measure":86,"beat":4.75,"subject_pos":-1,"motif":"","motif_pos":-1,"best_pos":5,"similarity":0.479,"stretto":false,"stretto_voices":0,"combination":[],"aug_dim":"","rhythm_ratio":1.0,"chromatic_density":0.381},{"voice":0,"pitch":64,"start":229.3331,"duration":0.1667,"velocity":127,"measure":87,"beat":1.0,"subject_pos":-1,"motif":"","motif_pos":-1,"best_pos":6,"similarity":0.593,"stretto":false,"stretto_voices":0,"combination":[],"aug_dim":"","rhythm_ratio":1.0,"chromatic_density":0.333},{"voice":0,"pitch":65,"start":229.4998,"duration":0.1667,"velocity":127,"measure":87,"beat":1.25,"subject_pos":-1,"motif":"","motif_pos":-1,"best_pos":3,"similarity":0.543,"stretto":false,"stretto_voices":0,"combination":[],"aug_dim":"","rhythm_ratio":1.0,"chromatic_density":0.333},{"voice":0,"pitch":64,"start":229.6664,"duration":0.1667,"velocity":127,"measure":87,"beat":1.5,"subject_pos":-1,"motif":"","motif_pos":-1,"best_pos":4,"similarity":0.743,"stretto":false,"stretto_voices":0,"combination":[],"aug_dim":"","rhythm_ratio":1.0,"chromatic_density":0.333},{"voice":1,"pitch":55,"start":229.6664,"duration":0.1667,"velocity":127,"measure":87,"beat":1.5,"subject_pos":-1,"motif":"","motif_pos":-1,"best_pos":2,"similarity":0.429,"stretto":false,"stretto_voices":0,"combination":[],"aug_dim":"","rhythm_ratio":1.0,"chromatic_density":0.333},{"voice":0,"pitch":65,"start":229.8331,"duration":0.1667,"velocity":127,"measure":87,"beat":1.75,"subject_pos":-1,"motif":"","motif_pos":-1,"best_pos":5,"similarity":0.736,"stretto":false,"stretto_voices":0,"combination":[],"aug_dim":"","rhythm_ratio":1.0,"chromatic_density":0.333},{"voice":1,"pitch":50,"start":229.8331,"duration":0.1667,"velocity":127,"measure":87,"beat":1.75,"subject_pos":-1,"motif":"","motif_pos":-1,"best_pos":3,"similarity":0.643,"stretto":false,"stretto_voices":0,"combination":[],"aug_dim":"","rhythm_ratio":1.0,"chromatic_density":0.333},{"voice":0,"pitch":67,"start":229.9998,"duration":0.1667,"velocity":127,"measure":87,"beat":2.0,"subject_pos":-1,"motif":"","motif_pos":-1,"best_pos":6,"similarity":0.529,"stretto":false,"stretto_voices":0,"combination":[],"aug_dim":"","rhythm_ratio":1.0,"chromatic_density":0.333},{"voice":1,"pitch":49,"start":229.9998,"duration":0.1667,"velocity":127,"measure":87,"beat":2.0,"subject_pos":-1,"motif":"","motif_pos":-1,"best_pos":4,"similarity":0.768,"stretto":false,"stretto_voices":0,"combination":[],"aug_dim":"","rhythm_ratio":1.0,"chromatic_density":0.333},{"voice":0,"pitch":65,"start":230.1664,"duration":0.1667,"velocity":127,"measure":87,"beat":2.25,"subject_pos":-1,"motif":"","motif_pos":-1,"best_pos":4,"similarity":0.443,"stretto":false,"stretto_voices":0,"combination":[],"aug_dim":"","rhythm_ratio":1.0,"chromatic_density":0.333},{"voice":1,"pitch":50,"start":230.1664,"duration":0.1667,"velocity":127,"measure":87,"beat":2.25,"subject_pos":-1,"motif":"","motif_pos":-1,"best_pos":5,"similarity":0.732,"stretto":false,"stretto_voices":0,"combination":[],"aug_dim":"","rhythm_ratio":1.0,"chromatic_density":0.333},{"voice":0,"pitch":67,"start":230.3331,"duration":0.1667,"velocity":127,"measure":87,"beat":2.5,"subject_pos":-1,"motif":"","motif_pos":-1,"best_pos":5,"similarity":0.514,"stretto":false,"stretto_voices":0,"combination":[],"aug_dim":"","rhythm_ratio":1.0,"chromatic_density":0.333},{"voice":1,"pitch":52,"start":230.3331,"duration":0.1667,"velocity":127,"measure":87,"beat":2.5,"subject_pos":-1,"motif":"head_inv","motif_pos":0,"best_pos":0,"similarity":1.0,"stretto":false,"stretto_voices":0,"combination":[],"aug_dim":"","rhythm_ratio":1.0,"chromatic_density":0.333},{"voice":0,"pitch":69,"start":230.4998,"duration":0.1667,"velocity":127,"measure":87,"beat":2.75,"subject_pos":-1,"motif":"","motif_pos":-1,"best_pos":6,"similarity":0.421,"stretto":false,"stretto_voices":0,"combination":[],"aug_dim":"","rhythm_ratio":1.0,"chromatic_density":0.333},{"voice":1,"pitch":45,"start":230.4998,"duration":0.1667,"velocity":127,"measure":87,"beat":2.75,"subject_pos":-1,"motif":"head_inv","motif_pos":1,"best_pos":1,"similarity":1.0,"stretto":false,"stretto_voices":0,"combination":[],"aug_dim":"","rhythm_ratio":1.0,"chromatic_density":0.333},{"voice":0,"pitch":67,"start":230.6664,"duration":0.1667,"velocity":127,"measure":87,"beat":3.0,"subject_pos":-1,"motif":"","motif_pos":-1,"best_pos":5,"similarity":0.471,"stretto":false,"stretto_voices":0,"combination":[],"aug_dim":"","rhythm_ratio":1.0,"chromatic_density":0.333},{"voice":1,"pitch":47,"start":230.6664,"duration":0.1667,"velocity":127,"measure":87,"beat":3.0,"subject_pos":-1,"motif":"head_inv","motif_pos":2,"best_pos":2,"similarity":1.0,"stretto":false,"stretto_voices":0,"combination":[],"aug_dim":"","rhythm_ratio":1.0,"chromatic_density":0.333},{"voice":0,"pitch":69,"start":230.8331,"duration":0.1667,"velocity":127,"measure":87,"beat":3.25,"subject_pos":-1,"motif":"","motif_pos":-1,"best_pos":6,"similarity":0.593,"stretto":false,"stretto_voices":0,"combination":[],"aug_dim":"","rhythm_ratio":1.0,"chromatic_density":0.333},{"voice":1,"pitch":49,"start":230.8331,"duration":0.1667,"velocity":127,"measure":87,"beat":3.25,"subject_pos":-1,"motif":"head_inv","motif_pos":3,"best_pos":3,"similarity":1.0,"stretto":false,"stretto_voices":0,"combination":[],"aug_dim":"","rhythm_ratio":1.0,"chromatic_density":0.333},{"voice":0,"pitch":70,"start":230.9998,"duration":0.3333,"velocity":127,"measure":87,"beat":3.5,"subject_pos":-1,"motif":"","motif_pos":-1,"best_pos":7,"similarity":0.436,"stretto":false,"stretto_voices":0,"combination":[],"aug_dim":"","rhythm_ratio":1.0,"chromatic_density":0.333},{"voice":1,"pitch":50,"start":230.9998,"duration":0.1667,"velocity":127,"measure":87,"beat":3.5,"subject_pos":-1,"motif":"head_inv","motif_pos":4,"best_pos":4,"similarity":1.0,"stretto":false,"stretto_voices":0,"combination":[],"aug_dim":"","rhythm_ratio":1.0,"chromatic_density":0.333},{"voice":1,"pitch":43,"start":231.1664,"duration":0.1667,"velocity":127,"measure":87,"beat":3.75,"subject_pos":-1,"motif":"","motif_pos":-1,"best_pos":5,"similarity":0.25,"stretto":false,"stretto_voices":0,"combination":[],"aug_dim":"","rhythm_ratio":1.0,"chromatic_density":0.333},{"voice":1,"pitch":46,"start":231.3331,"duration":0.1667,"velocity":127,"measure":87,"beat":4.0,"subject_pos":-1,"motif":"","motif_pos":-1,"best_pos":5,"similarity":0.364,"stretto":false,"stretto_voices":0,"combination":[],"aug_dim":"","rhythm_ratio":1.0,"chromatic_density":0.333},{"voice":0,"pitch":69,"start":231.4998,"duration":0.3333,"velocity":127,"measure":87,"beat":4.25,"subject_pos":-1,"motif":"","motif_pos":-1,"best_pos":2,"similarity":0.379,"stretto":false,"stretto_voices":0,"combination":[],"aug_dim":"","rhythm_ratio":1.0,"chromatic_density":0.333},{"voice":1,"pitch":48,"start":231.4998,"duration":0.1667,"velocity":127,"measure":87,"beat":4.25,"subject_pos":-1,"motif":"","motif_pos":-1,"best_pos":6,"similarity":0.321,"stretto":false,"stretto_voices":0,"combination":[],"aug_dim":"","rhythm_ratio":1.0,"chromatic_density":0.333},{"voice":1,"pitch":41,"start":231.6664,"duration":0.1667,"velocity":127,"measure":87,"beat":4.5,"subject_pos":-1,"motif":"","motif_pos":-1,"best_pos":5,"similarity":0.229,"stretto":false,"stretto_voices":0,"combination":[],"aug_dim":"","rhythm_ratio":1.0,"chromatic_density":0.333},{"voice":1,"pitch":45,"start":231.8331,"duration":0.1667,"velocity":127,"measure":87,"beat":4.75,"subject_pos":-1,"motif":"enigmatic_cell","motif_pos":0,"best_pos":0,"similarity":1.0,"stretto":false,"stretto_voices":0,"combination":[],"aug_dim":"","rhythm_ratio":1.0,"chromatic_density":0.333},{"voice":0,"pitch":67,"start":231.9998,"duration":0.3333,"velocity":127,"measure":88,"beat":1.0,"subject_pos":-1,"motif":"","motif_pos":-1,"best_pos":2,"similarity":0.404,"stretto":false,"stretto_voices":0,"combination":[],"aug_dim":"","rhythm_ratio":1.0,"chromatic_density":0.25},{"voice":1,"pitch":46,"start":231.9998,"duration":0.1667,"velocity":127,"measure":88,"beat":1.0,"subject_pos":-1,"motif":"enigmatic_cell","motif_pos":1,"best_pos":1,"similarity":1.0,"stretto":false,"stretto_voices":0,"combination":[],"aug_dim":"","rhythm_ratio":1.0,"chromatic_density":0.25},{"voice":1,"pitch":40,"start":232.1664,"duration":0.1667,"velocity":127,"measure":88,"beat":1.25,"subject_pos":-1,"motif":"enigmatic_cell","motif_pos":2,"best_pos":2,"similarity":1.0,"stretto":false,"stretto_voices":0,"combination":[],"aug_dim":"","rhythm_ratio":1.0,"chromatic_density":0.25},{"voice":1,"pitch":43,"start":232.3331,"duration":0.1667,"velocity":127,"measure":88,"beat":1.5,"subject_pos":-1,"motif":"","motif_pos":-1,"best_pos":5,"similarity":0.364,"stretto":false,"stretto_voices":0,"combination":[],"aug_dim":"","rhythm_ratio":1.0,"chromatic_density":0.25},{"voice":0,"pitch":67,"start":232.413,"duration":0.3333,"velocity":127,"measure":88,"beat":1.6198,"subject_pos":-1,"motif":"","motif_pos":-1,"best_pos":2,"similarity":0.429,"stretto":false,"stretto_voices":0,"combination":[],"aug_dim":"","rhythm_ratio":1.0,"chromatic_density":0.25},{"voice":0,"pitch":65,"start":232.4998,"duration":0.8333,"velocity":127,"measure":88,"beat":1.75,"subject_pos":-1,"motif":"","motif_pos":-1,"best_pos":3,"similarity":0.679,"stretto":false,"stretto_voices":0,"combination":[],"aug_dim":"","rhythm_ratio":1.0,"chromatic_density":0.25},{"voice":1,"pitch":45,"start":232.4998,"duration":0.1667,"velocity":127,"measure":88,"beat":1.75,"subject_pos":-1,"motif":"","motif_pos":-1,"best_pos":6,"similarity":0.321,"stretto":false,"stretto_voices":0,"combination":[],"aug_dim":"","rhythm_ratio":1.0,"chromatic_density":0.25},{"voice":1,"pitch":57,"start":232.6664,"duration":0.1667,"velocity":127,"measure":88,"beat":2.0,"subject_pos":-1,"motif":"","motif_pos":-1,"best_pos":1,"similarity":0.357,"stretto":false,"stretto_voices":0,"combination":[],"aug_dim":"","rhythm_ratio":1.0,"chromatic_density":0.25},{"voice":1,"pitch":55,"start":232.8331,"duration":0.1667,"velocity":127,"measure":88,"beat":2.25,"subject_pos":-1,"motif":"","motif_pos":-1,"best_pos":2,"similarity":0.436,"stretto":false,"stretto_voices":0,"combination":[],"aug_dim":"","rhythm_ratio":1.0,"chromatic_density":0.25},{"voice":1,"pitch":53,"start":232.9998,"duration":0.1667,"velocity":127,"measure":88,"beat":2.5,"subject_pos":-1,"motif":"","motif_pos":-1,"best_pos":2,"similarity":0.364,"stretto":false,"stretto_voices":0,"combination":[],"aug_dim":"","rhythm_ratio":1.0,"chromatic_density":0.25},{"voice":1,"pitch":62,"start":233.1664,"duration":0.1667,"velocity":127,"measure":88,"beat":2.75,"subject_pos":-1,"motif":"","motif_pos":-1,"best_pos":1,"similarity":0.5,"stretto":false,"stretto_voices":0,"combination":[],"aug_dim":"","rhythm_ratio":1.0,"chromatic_density":0.25},{"voice":0,"pitch":64,"start":233.3331,"duration":0.1667,"velocity":127,"measure":88,"beat":3.0,"subject_pos":-1,"motif":"","motif_pos":-1,"best_pos":4,"similarity":0.839,"stretto":false,"stretto_voices":0,"combination":[],"aug_dim":"","rhythm_ratio":1.0,"chromatic_density":0.25},{"voice":1,"pitch":60,"start":233.3331,"duration":0.1667,"velocity":127,"measure":88,"beat":3.0,"subject_pos":-1,"motif":"","motif_pos":-1,"best_pos":2,"similarity":0.679,"stretto":false,"stretto_voices":0,"combination":[],"aug_dim":"","rhythm_ratio":1.0,"chromatic_density":0.25},{"voice":0,"pitch":65,"start":233.4998,"duration":0.3333,"velocity":127,"measure":88,"beat":3.25,"subject_pos":-1,"motif":"","motif_pos":-1,"best_pos":5,"similarity":0.821,"stretto":false,"stretto_voices":0,"combination":[],"aug_dim":"","rhythm_ratio":1.0,"chromatic_density":0.25},{"voice":1,"pitch":58,"start":233.4998,"duration":0.1667,"velocity":127,"measure":88,"beat":3.25,"subject_pos":-1,"motif":"","motif_pos":-1,"best_pos":3,"similarity":0.739,"stretto":false,"stretto_voices":0,"combination":[],"aug_dim":"","rhythm_ratio":1.0,"chromatic_density":0.25},{"voice":1,"pitch":57,"start":233.6664,"duration":0.1667,"velocity":127,"measure":88,"beat":3.5,"subject_pos":-1,"motif":"","motif_pos":-1,"best_pos":4,"similarity":0.729,"stretto":false,"stretto_voices":0,"combination":[],"aug_dim":"","rhythm_ratio":1.0,"chromatic_density":0.25},{"voice":0,"pitch":67,"start":233.8331,"duration":0.1667,"velocity":127,"measure":88,"beat":3.75,"subject_pos":-1,"motif":"","motif_pos":-1,"best_pos":6,"similarity":0.643,"stretto":false,"stretto_voices":0,"combination":[],"aug_dim":"","rhythm_ratio":1.0,"chromatic_density":0.25},{"voice":1,"pitch":58,"start":233.8331,"duration":0.1667,"velocity":127,"measure":88,"beat":3.75,"subject_pos":-1,"motif":"","motif_pos":-1,"best_pos":5,"similarity":0.493,"stretto":false,"stretto_voices":0,"combination":[],"aug_dim":"","rhythm_ratio":1.0,"chromatic_density":0.25},{"voice":0,"pitch":69,"start":233.9998,"duration":0.3333,"velocity":127,"measure":88,"beat":4.0,"subject_pos":-1,"motif":"","motif_pos":-1,"best_pos":6,"similarity":0.375,"stretto":false,"stretto_voices":0,"combination":[],"aug_dim":"","rhythm_ratio":1.0,"chromatic_density":0.25},{"voice":1,"pitch":57,"start":233.9998,"duration":0.5,"velocity":127,"measure":88,"beat":4.0,"subject_pos":-1,"motif":"","motif_pos":-1,"best_pos":4,"similarity":0.421,"stretto":false,"stretto_voices":0,"combination":[],"aug_dim":"","rhythm_ratio":1.0,"chromatic_density":0.25},{"voice":0,"pitch":79,"start":234.3331,"duration":0.1667,"velocity":127,"measure":88,"beat":4.5,"subject_pos":-1,"motif":"","motif_pos":-1,"best_pos":1,"similarity":0.35,"stretto":false,"stretto_voices":0,"combination":[],"aug_dim":"","rhythm_ratio":1.0,"chromatic_density":0.25},{"voice":0,"pitch":77,"start":234.4998,"duration":0.3333,"velocity":127,"measure":88,"beat":4.75,"subject_pos":-1,"motif":"","motif_pos":-1,"best_pos":2,"similarity":0.371,"stretto":false,"stretto_voices":0,"combination":[],"aug_dim":"","rhythm_ratio":1.0,"chromatic_density":0.25},{"voice":1,"pitch":50,"start":234.4998,"duration":0.1667,"velocity":127,"measure":88,"beat":4.75,"subject_pos":-1,"motif":"","motif_pos":-1,"best_pos":3,"similarity":0.607,"stretto":false,"stretto_voices":0,"combination":[],"aug_dim":"","rhythm_ratio":1.0,"chromatic_density":0.25},{"voice":1,"pitch":49,"start":234.6664,"duration":0.1667,"velocity":127,"measure":89,"beat":1.0,"subject_pos":-1,"motif":"","motif_pos":-1,"best_pos":4,"similarity":0.771,"stretto":false,"stretto_voices":0,"combination":[],"aug_dim":"","rhythm_ratio":1.0,"chromatic_density":0.304},{"voice":0,"pitch":69,"start":234.8331,"duration":0.1667,"velocity":127,"measure":89,"beat":1.25,"subject_pos":-1,"motif":"","motif_pos":-1,"best_pos":1,"similarity":0.321,"stretto":false,"stretto_voices":0,"combination":[],"aug_dim":"","rhythm_ratio":1.0,"chromatic_density":0.304},{"voice":1,"pitch":50,"start":234.8331,"duration":0.1667,"velocity":127,"measure":89,"beat":1.25,"subject_pos":-1,"motif":"","motif_pos":-1,"best_pos":5,"similarity":0.736,"stretto":false,"stretto_voices":0,"combination":[],"aug_dim":"","rhythm_ratio":1.0,"chromatic_density":0.304},{"voice":0,"pitch":67,"start":234.9998,"duration":0.3333,"velocity":127,"measure":89,"beat":1.5,"subject_pos":-1,"motif":"","motif_pos":-1,"best_pos":2,"similarity":0.357,"stretto":false,"stretto_voices":0,"combination":[],"aug_dim":"","rhythm_ratio":1.0,"chromatic_density":0.304},{"voice":1,"pitch":52,"start":234.9998,"duration":0.1667,"velocity":127,"measure":89,"beat":1.5,"subject_pos":-1,"motif":"","motif_pos":-1,"best_pos":6,"similarity":0.529,"stretto":false,"stretto_voices":0,"combination":[],"aug_dim":"","rhythm_ratio":1.0,"chromatic_density":0.304},{"voice":1,"pitch":50,"start":235.1664,"duration":0.1667,"velocity":127,"measure":89,"beat":1.75,"subject_pos":-1,"motif":"","motif_pos":-1,"best_pos":5,"similarity":0.479,"stretto":false,"stretto_voices":0,"combination":[],"aug_dim":"","rhythm_ratio":1.0,"chromatic_density":0.304},{"voice":0,"pitch":76,"start":235.3331,"duration":0.1667,"velocity":127,"measure":89,"beat":2.0,"subject_pos":-1,"motif":"","motif_pos":-1,"best_pos":1,"similarity":0.429,"stretto":false,"stretto_voices":0,"combination":[],"aug_dim":"","rhythm_ratio":1.0,"chromatic_density":0.304},{"voice":1,"pitch":52,"start":235.3331,"duration":0.1667,"velocity":127,"measure":89,"beat":2.0,"subject_pos":-1,"motif":"","motif_pos":-1,"best_pos":6,"similarity":0.593,"stretto":false,"stretto_voices":0,"combination":[],"aug_dim":"","rhythm_ratio":1.0,"chromatic_density":0.304},{"voice":0,"pitch":74,"start":235.4998,"duration":0.3333,"velocity":127,"measure":89,"beat":2.25,"subject_pos":-1,"motif":"","motif_pos":-1,"best_pos":2,"similarity":0.464,"stretto":false,"stretto_voices":0,"combination":[],"aug_dim":"","rhythm_ratio":1.0,"chromatic_density":0.304},{"voice":1,"pitch":53,"start":235.4998,"duration":0.1667,"velocity":127,"measure":89,"beat":2.25,"subject_pos":-1,"motif":"","motif_pos":-1,"best_pos":3,"similarity":0.543,"stretto":false,"stretto_voices":0,"combination":[],"aug_dim":"","rhythm_ratio":1.0,"chromatic_density":0.304},{"voice":1,"pitch":52,"start":235.6664,"duration":0.1667,"velocity":127,"measure":89,"beat":2.5,"subject_pos":-1,"motif":"","motif_pos":-1,"best_pos":4,"similarity":0.743,"stretto":false,"stretto_voices":0,"combination":[],"aug_dim":"","rhythm_ratio":1.0,"chromatic_density":0.304},{"voice":0,"pitch":65,"start":235.8331,"duration":0.1667,"velocity":127,"measure":89,"beat":2.75,"subject_pos":-1,"motif":"","motif_pos":-1,"best_pos":3,"similarity":0.454,"stretto":false,"stretto_voices":0,"combination":[],"aug_dim":"","rhythm_ratio":1.0,"chromatic_density":0.304},{"voice":1,"pitch":53,"start":235.8331,"duration":0.1667,"velocity":127,"measure":89,"beat":2.75,"subject_pos":-1,"motif":"","motif_pos":-1,"best_pos":5,"similarity":0.736,"stretto":false,"stretto_voices":0,"combination":[],"aug_dim":"","rhythm_ratio":1.0,"chromatic_density":0.304},{"voice":0,"pitch":64,"start":235.9998,"duration":0.3333,"velocity":127,"measure":89,"beat":3.0,"subject_pos":-1,"motif":"","motif_pos":-1,"best_pos":4,"similarity":0.371,"stretto":false,"stretto_voices":0,"combination":[],"aug_dim":"","rhythm_ratio":1.0,"chromatic_density":0.304},{"voice":1,"pitch":55,"start":235.9998,"duration":0.1667,"velocity":127,"measure":89,"beat":3.0,"subject_pos":-1,"motif":"","motif_pos":-1,"best_pos":6,"similarity":0.529,"stretto":false,"stretto_voices":0,"combination":[],"aug_dim":"","rhythm_ratio":1.0,"chromatic_density":0.304},{"voice":1,"pitch":53,"start":236.1664,"duration":0.1667,"velocity":127,"measure":89,"beat":3.25,"subject_pos":-1,"motif":"","motif_pos":-1,"best_pos":4,"similarity":0.443,"stretto":false,"stretto_voices":0,"combination":[],"aug_dim":"","rhythm_ratio":1.0,"chromatic_density":0.304},{"voice":0,"pitch":74,"start":236.3331,"duration":0.1667,"velocity":127,"measure":89,"beat":3.5,"subject_pos":-1,"motif":"","motif_pos":-1,"best_pos":3,"similarity":0.375,"stretto":false,"stretto_voices":0,"combination":[],"aug_dim":"","rhythm_ratio":1.0,"chromatic_density":0.304},{"voice":1,"pitch":55,"start":236.3331,"duration":0.1667,"velocity":127,"measure":89,"beat":3.5,"subject_pos":-1,"motif":"","motif_pos":-1,"best_pos":5,"similarity":0.514,"stretto":false,"stretto_voices":0,"combination":[],"aug_dim":"","rhythm_ratio":1.0,"chromatic_density":0.304},{"voice":0,"pitch":73,"start":236.4998,"duration":0.3333,"velocity":127,"measure":89,"beat":3.75,"subject_pos":-1,"motif":"","motif_pos":-1,"best_pos":4,"similarity":0.364,"stretto":false,"stretto_voices":0,"combination":[],"aug_dim":"","rhythm_ratio":1.0,"chromatic_density":0.304},{"voice":1,"pitch":57,"start":236.4998,"duration":0.1667,"velocity":127,"measure":89,"beat":3.75,"subject_pos":-1,"motif":"","motif_pos":-1,"best_pos":6,"similarity":0.421,"stretto":false,"stretto_voices":0,"combination":[],"aug_dim":"","rhythm_ratio":1.0,"chromatic_density":0.304},{"voice":1,"pitch":55,"start":236.6664,"duration":0.1667,"velocity":127,"measure":89,"beat":4.0,"subject_pos":-1,"motif":"","motif_pos":-1,"best_pos":5,"similarity":0.471,"stretto":false,"stretto_voices":0,"combination":[],"aug_dim":"","rhythm_ratio":1.0,"chromatic_density":0.304},{"voice":0,"pitch":64,"start":236.8331,"duration":0.1667,"velocity":127,"measure":89,"beat":4.25,"subject_pos":-1,"motif":"","motif_pos":-1,"best_pos":3,"similarity":0.243,"stretto":false,"stretto_voices":0,"combination":[],"aug_dim":"","rhythm_ratio":1.0,"chromatic_density":0.304},{"voice":1,"pitch":57,"start":236.8331,"duration":0.1667,"velocity":127,"measure":89,"beat":4.25,"subject_pos":-1,"motif":"","motif_pos":-1,"best_pos":6,"similarity":0.593,"stretto":false,"stretto_voices":0,"combination":[],"aug_dim":"","rhythm_ratio":1.0,"chromatic_density":0.304},{"voice":0,"pitch":64,"start":236.9998,"duration":0.1667,"velocity":127,"measure":89,"beat":4.5,"subject_pos":-1,"motif":"","motif_pos":-1,"best_pos":2,"similarity":0.429,"stretto":false,"stretto_voices":0,"combination":[],"aug_dim":"","rhythm_ratio":1.0,"chromatic_density":0.304},{"voice":1,"pitch":58,"start":236.9998,"duration":0.3333,"velocity":127,"measure":89,"beat":4.5,"subject_pos":-1,"motif":"","motif_pos":-1,"best_pos":7,"similarity":0.436,"stretto":false,"stretto_voices":0,"combination":[],"aug_dim":"","rhythm_ratio":1.0,"chromatic_density":0.304},{"voice":0,"pitch":62,"start":237.1664,"duration":0.1667,"velocity":127,"measure":89,"beat":4.75,"subject_pos":-1,"motif":"tail","motif_pos":3,"best_pos":3,"similarity":1.0,"stretto":false,"stretto_voices":0,"combination":[],"aug_dim":"","rhythm_ratio":1.0,"chromatic_density":0.304},{"voice":0,"pitch":61,"start":237.3331,"duration":0.1667,"velocity":127,"measure":90,"beat":1.0,"subject_pos":-1,"motif":"tail","motif_pos":4,"best_pos":4,"similarity":1.0,"stretto":false,"stretto_voices":0,"combination":[],"aug_dim":"","rhythm_ratio":1.0,"chromatic_density":0.421},{"voice":0,"pitch":62,"start":237.4998,"duration":0.1667,"velocity":127,"measure":90,"beat":1.25,"subject_pos":-1,"motif":"tail","motif_pos":5,"best_pos":5,"similarity":1.0,"stretto":false,"stretto_voices":0,"combination":[],"aug_dim":"","rhythm_ratio":1.0,"chromatic_density":0.421},{"voice":1,"pitch":57,"start":237.4998,"duration":0.3333,"velocity":127,"measure":90,"beat":1.25,"subject_pos":-1,"motif":"","motif_pos":-1,"best_pos":2,"similarity":0.379,"stretto":false,"stretto_voices":0,"combination":[],"aug_dim":"","rhythm_ratio":1.0,"chromatic_density":0.421},{"voice":0,"pitch":64,"start":237.6664,"duration":0.1667,"velocity":127,"measure":90,"beat":1.5,"subject_pos":-1,"motif":"tail","motif_pos":6,"best_pos":6,"similarity":1.0,"stretto":false,"stretto_voices":0,"combination":[],"aug_dim":"","rhythm_ratio":1.0,"chromatic_density":0.421},{"voice":0,"pitch":65,"start":237.8331,"duration":0.1667,"velocity":127,"measure":90,"beat":1.75,"subject_pos":-1,"motif":"tail","motif_pos":7,"best_pos":7,"similarity":1.0,"stretto":false,"stretto_voices":0,"combination":[],"aug_dim":"","rhythm_ratio":1.0,"chromatic_density":0.421},{"voice":0,"pitch":67,"start":237.9998,"duration":0.1667,"velocity":127,"measure":90,"beat":2.0,"subject_pos":-1,"motif":"","motif_pos":-1,"best_pos":5,"similarity":0.607,"stretto":false,"stretto_voices":0,"combination":[],"aug_dim":"","rhythm_ratio":1.0,"chromatic_density":0.421},{"voice":1,"pitch":55,"start":237.9998,"duration":0.3333,"velocity":127,"measure":90,"beat":2.0,"subject_pos":-1,"motif":"","motif_pos":-1,"best_pos":2,"similarity":0.404,"stretto":false,"stretto_voices":0,"combination":[],"aug_dim":"","rhythm_ratio":1.0,"chromatic_density":0.421},{"voice":0,"pitch":69,"start":238.1664,"duration":0.1667,"velocity":127,"measure":90,"beat":2.25,"subject_pos":-1,"motif":"","motif_pos":-1,"best_pos":6,"similarity":0.661,"stretto":false,"stretto_voices":0,"combination":[],"aug_dim":"","rhythm_ratio":1.0,"chromatic_density":0.421},{"voice":0,"pitch":70,"start":238.3331,"duration":0.1667,"velocity":127,"measure":90,"beat":2.5,"subject_pos":-1,"motif":"","motif_pos":-1,"best_pos":7,"similarity":0.464,"stretto":false,"stretto_voices":0,"combination":[],"aug_dim":"","rhythm_ratio":1.0,"chromatic_density":0.421},{"voice":1,"pitch":55,"start":238.413,"duration":0.3333,"velocity":127,"measure":90,"beat":2.6198,"subject_pos":-1,"motif":"","motif_pos":-1,"best_pos":2,"similarity":0.429,"stretto":false,"stretto_voices":0,"combination":[],"aug_dim":"","rhythm_ratio":1.0,"chromatic_density":0.421},{"voice":0,"pitch":70,"start":238.4998,"duration":0.1667,"velocity":127,"measure":90,"beat":2.75,"subject_pos":-1,"motif":"","motif_pos":-1,"best_pos":3,"similarity":0.421,"stretto":false,"stretto_voices":0,"combination":[],"aug_dim":"","rhythm_ratio":1.0,"chromatic_density":0.421},{"voice":1,"pitch":53,"start":238.4998,"duration":0.8333,"velocity":127,"measure":90,"beat":2.75,"subject_pos":-1,"motif":"","motif_pos":-1,"best_pos":3,"similarity":0.679,"stretto":false,"stretto_voices":0,"combination":[],"aug_dim":"","rhythm_ratio":1.0,"chromatic_density":0.421},{"voice":0,"pitch":69,"start":238.6664,"duration":0.1667,"velocity":127,"measure":90,"beat":3.0,"subject_pos":-1,"motif":"","motif_pos":-1,"best_pos":4,"similarity":0.514,"stretto":false,"stretto_voices":0,"combination":[],"aug_dim":"","rhythm_ratio":1.0,"chromatic_density":0.421},{"voice":0,"pitch":67,"start":238.8331,"duration":0.1667,"velocity":127,"measure":90,"beat":3.25,"subject_pos":-1,"motif":"","motif_pos":-1,"best_pos":5,"similarity":0.536,"stretto":false,"stretto_voices":0,"combination":[],"aug_dim":"","rhythm_ratio":1.0,"chromatic_density":0.421},{"voice":0,"pitch":69,"start":238.9998,"duration":0.1667,"velocity":127,"measure":90,"beat":3.5,"subject_pos":-1,"motif":"","motif_pos":-1,"best_pos":5,"similarity":0.589,"stretto":false,"stretto_voices":0,"combination":[],"aug_dim":"","rhythm_ratio":1.0,"chromatic_density":0.421},{"voice":0,"pitch":71,"start":239.1664,"duration":0.1667,"velocity":127,"measure":90,"beat":3.75,"subject_pos":-1,"motif":"","motif_pos":-1,"best_pos":5,"similarity":0.621,"stretto":false,"stretto_voices":0,"combination":[],"aug_dim":"","rhythm_ratio":1.0,"chromatic_density":0.421},{"voice":0,"pitch":73,"start":239.3331,"duration":0.1667,"velocity":127,"measure":90,"beat":4.0,"subject_pos":-1,"motif":"","motif_pos":-1,"best_pos":6,"similarity":0.65,"stretto":false,"stretto_voices":0,"combination":[],"aug_dim":"","rhythm_ratio":1.0,"chromatic_density":0.421},{"voice":1,"pitch":52,"start":239.3331,"duration":0.1667,"velocity":127,"measure":90,"beat":4.0,"subject_pos":-1,"motif":"","motif_pos":-1,"best_pos":4,"similarity":0.839,"stretto":false,"stretto_voices":0,"combination":[],"aug_dim":"","rhythm_ratio":1.0,"chromatic_density":0.421},{"voice":0,"pitch":74,"start":239.4998,"duration":0.1667,"velocity":127,"measure":90,"beat":4.25,"subject_pos":-1,"motif":"","motif_pos":-1,"best_pos":5,"similarity":0.729,"stretto":false,"stretto_voices":0,"combination":[],"aug_dim":"","rhythm_ratio":1.0,"chromatic_density":0.421},{"voice":1,"pitch":53,"start":239.4998,"duration":0.3333,"velocity":127,"measure":90,"beat":4.25,"subject_pos":-1,"motif":"","motif_pos":-1,"best_pos":5,"similarity":0.821,"stretto":false,"stretto_voices":0,"combination":[],"aug_dim":"","rhythm_ratio":1.0,"chromatic_density":0.421},{"voice":0,"pitch":76,"start":239.6664,"duration":0.1667,"velocity":127,"measure":90,"beat":4.5,"subject_pos":-1,"motif":"","motif_pos":-1,"best_pos":6,"similarity":0.721,"stretto":false,"stretto_voices":0,"combination":[],"aug_dim":"","rhythm_ratio":1.0,"chromatic_density":0.421},{"voice":0,"pitch":77,"start":239.8331,"duration":0.1667,"velocity":127,"measure":90,"beat":4.75,"subject_pos":-1,"motif":"","motif_pos":-1,"best_pos":7,"similarity":0.5,"stretto":false,"stretto_voices":0,"combination":[],"aug_dim":"","rhythm_ratio":1.0,"chromatic_density":0.421},{"voice":1,"pitch":55,"start":239.8331,"duration":0.1667,"velocity":127,"measure":90,"beat":4.75,"subject_pos":-1,"motif":"","motif_pos":-1,"best_pos":6,"similarity":0.643,"stretto":false,"stretto_voices":0,"combination":[],"aug_dim":"","rhythm_ratio":1.0,"chromatic_density":0.421},{"voice":0,"pitch":77,"start":239.9998,"duration":0.1667,"velocity":127,"measure":91,"beat":1.0,"subject_pos":-1,"motif":"","motif_pos":-1,"best_pos":2,"similarity":0.421,"stretto":false,"stretto_voices":0,"combination":[],"aug_dim":"","rhythm_ratio":1.0,"chromatic_density":0.25},{"voice":1,"pitch":57,"start":239.9998,"duration":0.3333,"velocity":127,"measure":91,"beat":1.0,"subject_pos":-1,"motif":"","motif_pos":-1,"best_pos":6,"similarity":0.375,"stretto":false,"stretto_voices":0,"combination":[],"aug_dim":"","rhythm_ratio":1.0,"chromatic_density":0.25},{"voice":0,"pitch":74,"start":240.1664,"duration":0.1667,"velocity":127,"measure":91,"beat":1.25,"subject_pos":-1,"motif":"","motif_pos":-1,"best_pos":5,"similarity":0.464,"stretto":false,"stretto_voices":0,"combination":[],"aug_dim":"","rhythm_ratio":1.0,"chromatic_density":0.25},{"voice":0,"pitch":76,"start":240.3331,"duration":0.1667,"velocity":127,"measure":91,"beat":1.5,"subject_pos":-1,"motif":"","motif_pos":-1,"best_pos":6,"similarity":0.479,"stretto":false,"stretto_voices":0,"combination":[],"aug_dim":"","rhythm_ratio":1.0,"chromatic_density":0.25},{"voice":1,"pitch":67,"start":240.3331,"duration":0.1667,"velocity":127,"measure":91,"beat":1.5,"subject_pos":-1,"motif":"","motif_pos":-1,"best_pos":1,"similarity":0.35,"stretto":false,"stretto_voices":0,"combination":[],"aug_dim":"","rhythm_ratio":1.0,"chromatic_density":0.25},{"voice":0,"pitch":76,"start":240.4998,"duration":0.1667,"velocity":127,"measure":91,"beat":1.75,"subject_pos":-1,"motif":"","motif_pos":-1,"best_pos":2,"similarity":0.443,"stretto":false,"stretto_voices":0,"combination":[],"aug_dim":"","rhythm_ratio":1.0,"chromatic_density":0.25},{"voice":1,"pitch":65,"start":240.4998,"duration":0.3333,"velocity":127,"measure":91,"beat":1.75,"subject_pos":-1,"motif":"","motif_pos":-1,"best_pos":2,"similarity":0.371,"stretto":false,"stretto_voices":0,"combination":[],"aug_dim":"","rhythm_ratio":1.0,"chromatic_density":0.25},{"voice":0,"pitch":73,"start":240.6664,"duration":0.1667,"velocity":127,"measure":91,"beat":2.0,"subject_pos":-1,"motif":"","motif_pos":-1,"best_pos":3,"similarity":0.471,"stretto":false,"stretto_voices":0,"combination":[],"aug_dim":"","rhythm_ratio":1.0,"chromatic_density":0.25},{"voice":0,"pitch":74,"start":240.8331,"duration":0.1667,"velocity":127,"measure":91,"beat":2.25,"subject_pos":-1,"motif":"","motif_pos":-1,"best_pos":4,"similarity":0.446,"stretto":false,"stretto_voices":0,"combination":[],"aug_dim":"","rhythm_ratio":1.0,"chromatic_density":0.25},{"voice":1,"pitch":57,"start":240.8331,"duration":0.1667,"velocity":127,"measure":91,"beat":2.25,"subject_pos":-1,"motif":"","motif_pos":-1,"best_pos":1,"similarity":0.321,"stretto":false,"stretto_voices":0,"combination":[],"aug_dim":"","rhythm_ratio":1.0,"chromatic_density":0.25},{"voice":0,"pitch":74,"start":240.9998,"duration":0.1667,"velocity":127,"measure":91,"beat":2.5,"subject_pos":-1,"motif":"","motif_pos":-1,"best_pos":2,"similarity":0.443,"stretto":false,"stretto_voices":0,"combination":[],"aug_dim":"","rhythm_ratio":1.0,"chromatic_density":0.25},{"voice":1,"pitch":55,"start":240.9998,"duration":0.3333,"velocity":127,"measure":91,"beat":2.5,"subject_pos":-1,"motif":"","motif_pos":-1,"best_pos":2,"similarity":0.357,"stretto":false,"stretto_voices":0,"combination":[],"aug_dim":"","rhythm_ratio":1.0,"chromatic_density":0.25},{"voice":0,"pitch":71,"start":241.1664,"duration":0.1667,"velocity":127,"measure":91,"beat":2.75,"subject_pos":-1,"motif":"","motif_pos":-1,"best_pos":3,"similarity":0.471,"stretto":false,"stretto_voices":0,"combination":[],"aug_dim":"","rhythm_ratio":1.0,"chromatic_density":0.25},{"voice":0,"pitch":72,"start":241.3331,"duration":0.1667,"velocity":127,"measure":91,"beat":3.0,"subject_pos":-1,"motif":"","motif_pos":-1,"best_pos":4,"similarity":0.446,"stretto":false,"stretto_voices":0,"combination":[],"aug_dim":"","rhythm_ratio":1.0,"chromatic_density":0.25},{"voice":1,"pitch":64,"start":241.3331,"duration":0.1667,"velocity":127,"measure":91,"beat":3.0,"subject_pos":-1,"motif":"","motif_pos":-1,"best_pos":1,"similarity":0.429,"stretto":false,"stretto_voices":0,"combination":[],"aug_dim":"","rhythm_ratio":1.0,"chromatic_density":0.25},{"voice":0,"pitch":72,"start":241.4998,"duration":0.1667,"velocity":127,"measure":91,"beat":3.25,"subject_pos":-1,"motif":"","motif_pos":-1,"best_pos":2,"similarity":0.443,"stretto":false,"stretto_voices":0,"combination":[],"aug_dim":"","rhythm_ratio":1.0,"chromatic_density":0.25},{"voice":1,"pitch":62,"start":241.4998,"duration":0.3333,"velocity":127,"measure":91,"beat":3.25,"subject_pos":-1,"motif":"","motif_pos":-1,"best_pos":2,"similarity":0.464,"stretto":false,"stretto_voices":0,"combination":[],"aug_dim":"","rhythm_ratio":1.0,"chromatic_density":0.25},{"voice":0,"pitch":69,"start":241.6664,"duration":0.1667,"velocity":127,"measure":91,"beat":3.5,"subject_pos":-1,"motif":"","motif_pos":-1,"best_pos":3,"similarity":0.471,"stretto":false,"stretto_voices":0,"combination":[],"aug_dim":"","rhythm_ratio":1.0,"chromatic_density":0.25},{"voice":0,"pitch":70,"start":241.8331,"duration":0.1667,"velocity":127,"measure":91,"beat":3.75,"subject_pos":-1,"motif":"","motif_pos":-1,"best_pos":5,"similarity":0.414,"stretto":false,"stretto_voices":0,"combination":[],"aug_dim":"","rhythm_ratio":1.0,"chromatic_density":0.25},{"voice":1,"pitch":53,"start":241.8331,"duration":0.1667,"velocity":127,"measure":91,"beat":3.75,"subject_pos":-1,"motif":"","motif_pos":-1,"best_pos":3,"similarity":0.454,"stretto":false,"stretto_voices":0,"combination":[],"aug_dim":"","rhythm_ratio":1.0,"chromatic_density":0.25},{"voice":0,"pitch":70,"start":241.9998,"duration":0.1667,"velocity":127,"measure":91,"beat":4.0,"subject_pos":-1,"motif":"","motif_pos":-1,"best_pos":2,"similarity":0.421,"stretto":false,"stretto_voices":0,"combination":[],"aug_dim":"","rhythm_ratio":1.0,"chromatic_density":0.25},{"voice":1,"pitch":52,"start":241.9998,"duration":0.3333,"velocity":127,"measure":91,"beat":4.0,"subject_pos":-1,"motif":"","motif_pos":-1,"best_pos":4,"similarity":0.371,"stretto":false,"stretto_voices":0,"combination":[],"aug_dim":"","rhythm_ratio":1.0,"chromatic_density":0.25},{"voice":0,"pitch":67,"start":242.1664,"duration":0.1667,"velocity":127,"measure":91,"beat":4.25,"subject_pos":-1,"motif":"","motif_pos":-1,"best_pos":5,"similarity":0.464,"stretto":false,"stretto_voices":0,"combination":[],"aug_dim":"","rhythm_ratio":1.0,"chromatic_density":0.25},{"voice":0,"pitch":69,"start":242.3331,"duration":0.1667,"velocity":127,"measure":91,"beat":4.5,"subject_pos":-1,"motif":"","motif_pos":-1,"best_pos":6,"similarity":0.479,"stretto":false,"stretto_voices":0,"combination":[],"aug_dim":"","rhythm_ratio":1.0,"chromatic_density":0.25},{"voice":1,"pitch":62,"start":242.3331,"duration":0.1667,"velocity":127,"measure":91,"beat":4.5,"subject_pos":-1,"motif":"","motif_pos":-1,"best_pos":3,"similarity":0.375,"stretto":false,"stretto_voices":0,"combination":[],"aug_dim":"","rhythm_ratio":1.0,"chromatic_density":0.25},{"voice":0,"pitch":69,"start":242.4998,"duration":0.1667,"velocity":127,"measure":91,"beat":4.75,"subject_pos":-1,"motif":"","motif_pos":-1,"best_pos":4,"similarity":0.329,"stretto":false,"stretto_voices":0,"combination":[],"aug_dim":"","rhythm_ratio":1.0,"chromatic_density":0.25},{"voice":1,"pitch":61,"start":242.4998,"duration":0.3333,"velocity":127,"measure":91,"beat":4.75,"subject_pos":-1,"motif":"","motif_pos":-1,"best_pos":4,"similarity":0.364,"stretto":false,"stretto_voices":0,"combination":[],"aug_dim":"","rhythm_ratio":1.0,"chromatic_density":0.25},{"voice":0,"pitch":65,"start":242.6664,"duration":0.1667,"velocity":127,"measure":92,"beat":1.0,"subject_pos":-1,"motif":"","motif_pos":-1,"best_pos":2,"similarity":0.393,"stretto":false,"stretto_voices":0,"combination":[],"aug_dim":"","rhythm_ratio":1.0,"chromatic_density":0.409},{"voice":0,"pitch":67,"start":242.8331,"duration":0.4132,"velocity":127,"measure":92,"beat":1.25,"subject_pos":-1,"motif":"","motif_pos":-1,"best_pos":3,"similarity":0.429,"stretto":false,"stretto_voices":0,"combination":[],"aug_dim":"","rhythm_ratio":1.0,"chromatic_density":0.409},{"voice":1,"pitch":52,"start":242.8331,"duration":0.1667,"velocity":127,"measure":92,"beat":1.25,"subject_pos":-1,"motif":"","motif_pos":-1,"best_pos":3,"similarity":0.243,"stretto":false,"stretto_voices":0,"combination":[],"aug_dim":"","rhythm_ratio":1.0,"chromatic_density":0.409},{"voice":0,"pitch":65,"start":242.9998,"duration":0.6667,"velocity":127,"measure":92,"beat":1.5,"subject_pos":-1,"motif":"","motif_pos":-1,"best_pos":4,"similarity":0.571,"stretto":false,"stretto_voices":0,"combination":[],"aug_dim":"","rhythm_ratio":1.0,"chromatic_density":0.409},{"voice":1,"pitch":52,"start":242.9998,"duration":0.1667,"velocity":127,"measure":92,"beat":1.5,"subject_pos":-1,"motif":"","motif_pos":-1,"best_pos":2,"similarity":0.429,"stretto":false,"stretto_voices":0,"combination":[],"aug_dim":"","rhythm_ratio":1.0,"chromatic_density":0.409},{"voice":1,"pitch":50,"start":243.1664,"duration":0.1667,"velocity":127,"measure":92,"beat":1.75,"subject_pos":-1,"motif":"tail","motif_pos":3,"best_pos":3,"similarity":1.0,"stretto":false,"stretto_voices":0,"combination":[],"aug_dim":"","rhythm_ratio":1.0,"chromatic_density":0.409},{"voice":1,"pitch":49,"start":243.3331,"duration":0.1667,"velocity":127,"measure":92,"beat":2.0,"subject_pos":-1,"motif":"tail","motif_pos":4,"best_pos":4,"similarity":1.0,"stretto":false,"stretto_voices":0,"combination":[],"aug_dim":"","rhythm_ratio":1.0,"chromatic_density":0.409},{"voice":1,"pitch":50,"start":243.4998,"duration":0.1667,"velocity":127,"measure":92,"beat":2.25,"subject_pos":-1,"motif":"tail","motif_pos":5,"best_pos":5,"similarity":1.0,"stretto":false,"stretto_voices":0,"combination":[],"aug_dim":"","rhythm_ratio":1.0,"chromatic_density":0.409},{"voice":0,"pitch":67,"start":243.6664,"duration":0.1667,"velocity":127,"measure":92,"beat":2.5,"subject_pos":-1,"motif":"","motif_pos":-1,"best_pos":5,"similarity":0.643,"stretto":false,"stretto_voices":0,"combination":[],"aug_dim":"","rhythm_ratio":1.0,"chromatic_density":0.409},{"voice":1,"pitch":52,"start":243.6664,"duration":0.1667,"velocity":127,"measure":92,"beat":2.5,"subject_pos":-1,"motif":"tail","motif_pos":6,"best_pos":6,"similarity":1.0,"stretto":false,"stretto_voices":0,"combination":[],"aug_dim":"","rhythm_ratio":1.0,"chromatic_density":0.409},{"voice":0,"pitch":69,"start":243.8331,"duration":0.1667,"velocity":127,"measure":92,"beat":2.75,"subject_pos":-1,"motif":"","motif_pos":-1,"best_pos":6,"similarity":0.679,"stretto":false,"stretto_voices":0,"combination":[],"aug_dim":"","rhythm_ratio":1.0,"chromatic_density":0.409},{"voice":1,"pitch":53,"start":243.8331,"duration":0.1667,"velocity":127,"measure":92,"beat":2.75,"subject_pos":-1,"motif":"tail","motif_pos":7,"best_pos":7,"similarity":1.0,"stretto":false,"stretto_voices":0,"combination":[],"aug_dim":"","rhythm_ratio":1.0,"chromatic_density":0.409},{"voice":0,"pitch":70,"start":243.9998,"duration":0.1667,"velocity":127,"measure":92,"beat":3.0,"subject_pos":-1,"motif":"","motif_pos":-1,"best_pos":7,"similarity":0.464,"stretto":false,"stretto_voices":0,"combination":[],"aug_dim":"","rhythm_ratio":1.0,"chromatic_density":0.409},{"voice":1,"pitch":55,"start":243.9998,"duration":0.1667,"velocity":127,"measure":92,"beat":3.0,"subject_pos":-1,"motif":"","motif_pos":-1,"best_pos":5,"similarity":0.607,"stretto":false,"stretto_voices":0,"combination":[],"aug_dim":"","rhythm_ratio":1.0,"chromatic_density":0.409},{"voice":0,"pitch":69,"start":244.1664,"duration":0.1667,"velocity":127,"measure":92,"beat":3.25,"subject_pos":-1,"motif":"","motif_pos":-1,"best_pos":1,"similarity":0.357,"stretto":false,"stretto_voices":0,"combination":[],"aug_dim":"","rhythm_ratio":1.0,"chromatic_density":0.409},{"voice":1,"pitch":57,"start":244.1664,"duration":0.1667,"velocity":127,"measure":92,"beat":3.25,"subject_pos":-1,"motif":"","motif_pos":-1,"best_pos":6,"similarity":0.661,"stretto":false,"stretto_voices":0,"combination":[],"aug_dim":"","rhythm_ratio":1.0,"chromatic_density":0.409},{"voice":0,"pitch":67,"start":244.3331,"duration":0.1667,"velocity":127,"measure":92,"beat":3.5,"subject_pos":-1,"motif":"","motif_pos":-1,"best_pos":2,"similarity":0.5,"stretto":false,"stretto_voices":0,"combination":[],"aug_dim":"","rhythm_ratio":1.0,"chromatic_density":0.409},{"voice":1,"pitch":58,"start":244.3331,"duration":0.1667,"velocity":127,"measure":92,"beat":3.5,"subject_pos":-1,"motif":"","motif_pos":-1,"best_pos":7,"similarity":0.464,"stretto":false,"stretto_voices":0,"combination":[],"aug_dim":"","rhythm_ratio":1.0,"chromatic_density":0.409},{"voice":0,"pitch":74,"start":244.413,"duration":0.3333,"velocity":127,"measure":92,"beat":3.6198,"subject_pos":-1,"motif":"tail","motif_pos":3,"best_pos":3,"similarity":1.0,"stretto":false,"stretto_voices":0,"combination":[],"aug_dim":"","rhythm_ratio":1.0,"chromatic_density":0.409},{"voice":0,"pitch":73,"start":244.4998,"duration":0.6667,"velocity":127,"measure":92,"beat":3.75,"subject_pos":-1,"motif":"tail","motif_pos":4,"best_pos":4,"similarity":1.0,"stretto":false,"stretto_voices":0,"combination":[],"aug_dim":"","rhythm_ratio":1.0,"chromatic_density":0.409},{"voice":1,"pitch":58,"start":244.4998,"duration":0.1667,"velocity":127,"measure":92,"beat":3.75,"subject_pos":-1,"motif":"","motif_pos":-1,"best_pos":3,"similarity":0.421,"stretto":false,"stretto_voices":0,"combination":[],"aug_dim":"","rhythm_ratio":1.0,"chromatic_density":0.409},{"voice":1,"pitch":57,"start":244.6664,"duration":0.1667,"velocity":127,"measure":92,"beat":4.0,"subject_pos":-1,"motif":"","motif_pos":-1,"best_pos":4,"similarity":0.514,"stretto":false,"stretto_voices":0,"combination":[],"aug_dim":"","rhythm_ratio":1.0,"chromatic_density":0.409},{"voice":1,"pitch":55,"start":244.8331,"duration":0.1667,"velocity":127,"measure":92,"beat":4.25,"subject_pos":-1,"motif":"","motif_pos":-1,"best_pos":5,"similarity":0.536,"stretto":false,"stretto_voices":0,"combination":[],"aug_dim":"","rhythm_ratio":1.0,"chromatic_density":0.409},{"voice":1,"pitch":57,"start":244.9998,"duration":0.1667,"velocity":127,"measure":92,"beat":4.5,"subject_pos":-1,"motif":"","motif_pos":-1,"best_pos":5,"similarity":0.589,"stretto":false,"stretto_voices":0,"combination":[],"aug_dim":"","rhythm_ratio":1.0,"chromatic_density":0.409},{"voice":0,"pitch":74,"start":245.1664,"duration":0.1667,"velocity":127,"measure":92,"beat":4.75,"subject_pos":-1,"motif":"tail","motif_pos":5,"best_pos":5,"similarity":1.0,"stretto":false,"stretto_voices":0,"combination":[],"aug_dim":"","rhythm_ratio":1.0,"chromatic_density":0.409},{"voice":1,"pitch":59,"start":245.1664,"duration":0.1667,"velocity":127,"measure":92,"beat":4.75,"subject_pos":-1,"motif":"","motif_pos":-1,"best_pos":5,"similarity":0.621,"stretto":false,"stretto_voices":0,"combination":[],"aug_dim":"","rhythm_ratio":1.0,"chromatic_density":0.409},{"voice":0,"pitch":76,"start":245.3331,"duration":0.1667,"velocity":127,"measure":93,"beat":1.0,"subject_pos":-1,"motif":"tail","motif_pos":6,"best_pos":6,"similarity":1.0,"stretto":false,"stretto_voices":0,"combination":[],"aug_dim":"","rhythm_ratio":1.0,"chromatic_density":0.5},{"voice":1,"pitch":61,"start":245.3331,"duration":0.1667,"velocity":127,"measure":93,"beat":1.0,"subject_pos":-1,"motif":"","motif_pos":-1,"best_pos":6,"similarity":0.65,"stretto":false,"stretto_voices":0,"combination":[],"aug_dim":"","rhythm_ratio":1.0,"chromatic_density":0.5},{"voice":0,"pitch":77,"start":245.4998,"duration":0.1667,"velocity":127,"measure":93,"beat":1.25,"subject_pos":-1,"motif":"tail","motif_pos":7,"best_pos":7,"similarity":1.0,"stretto":false,"stretto_voices":0,"combination":[],"aug_dim":"","rhythm_ratio":1.0,"chromatic_density":0.5},{"voice":1,"pitch":62,"start":245.4998,"duration":0.1667,"velocity":127,"measure":93,"beat":1.25,"subject_pos":-1,"motif":"","motif_pos":-1,"best_pos":5,"similarity":0.729,"stretto":false,"stretto_voices":0,"combination":[],"aug_dim":"","rhythm_ratio":1.0,"chromatic_density":0.5},{"voice":0,"pitch":76,"start":245.6664,"duration":0.1667,"velocity":127,"measure":93,"beat":1.5,"subject_pos":-1,"motif":"","motif_pos":-1,"best_pos":4,"similarity":0.421,"stretto":false,"stretto_voices":0,"combination":[],"aug_dim":"","rhythm_ratio":1.0,"chromatic_density":0.5},{"voice":1,"pitch":64,"start":245.6664,"duration":0.1667,"velocity":127,"measure":93,"beat":1.5,"subject_pos":-1,"motif":"","motif_pos":-1,"best_pos":6,"similarity":0.721,"stretto":false,"stretto_voices":0,"combination":[],"aug_dim":"","rhythm_ratio":1.0,"chromatic_density":0.5},{"voice":0,"pitch":74,"start":245.8331,"duration":0.1667,"velocity":127,"measure":93,"beat":1.75,"subject_pos":-1,"motif":"","motif_pos":-1,"best_pos":3,"similarity":0.364,"stretto":false,"stretto_voices":0,"combination":[],"aug_dim":"","rhythm_ratio":1.0,"chromatic_density":0.5},{"voice":1,"pitch":65,"start":245.8331,"duration":0.1667,"velocity":127,"measure":93,"beat":1.75,"subject_pos":-1,"motif":"","motif_pos":-1,"best_pos":7,"similarity":0.5,"stretto":false,"stretto_voices":0,"combination":[],"aug_dim":"","rhythm_ratio":1.0,"chromatic_density":0.5},{"voice":0,"pitch":80,"start":245.9998,"duration":1.5,"velocity":127,"measure":93,"beat":2.0,"subject_pos":-1,"motif":"","motif_pos":-1,"best_pos":4,"similarity":0.464,"stretto":false,"stretto_voices":0,"combination":[],"aug_dim":"","rhythm_ratio":1.0,"chromatic_density":0.5},{"voice":1,"pitch":65,"start":245.9998,"duration":0.1667,"velocity":127,"measure":93,"beat":2.0,"subject_pos":-1,"motif":"","motif_pos":-1,"best_pos":2,"similarity":0.421,"stretto":false,"stretto_voices":0,"combination":[],"aug_dim":"","rhythm_ratio":1.0,"chromatic_density":0.5},{"voice":1,"pitch":62,"start":246.1664,"duration":0.1667,"velocity":127,"measure":93,"beat":2.25,"subject_pos":-1,"motif":"","motif_pos":-1,"best_pos":5,"similarity":0.464,"stretto":false,"stretto_voices":0,"combination":[],"aug_dim":"","rhythm_ratio":1.0,"chromatic_density":0.5},{"voice":1,"pitch":64,"start":246.3331,"duration":0.1667,"velocity":127,"measure":93,"beat":2.5,"subject_pos":-1,"motif":"","motif_pos":-1,"best_pos":6,"similarity":0.479,"stretto":false,"stretto_voices":0,"combination":[],"aug_dim":"","rhythm_ratio":1.0,"chromatic_density":0.5},{"voice":1,"pitch":64,"start":246.4998,"duration":0.1667,"velocity":127,"measure":93,"beat":2.75,"subject_pos":-1,"motif":"","motif_pos":-1,"best_pos":2,"similarity":0.443,"stretto":false,"stretto_voices":0,"combination":[],"aug_dim":"","rhythm_ratio":1.0,"chromatic_density":0.5},{"voice":1,"pitch":61,"start":246.6664,"duration":0.1667,"velocity":127,"measure":93,"beat":3.0,"subject_pos":-1,"motif":"","motif_pos":-1,"best_pos":3,"similarity":0.471,"stretto":false,"stretto_voices":0,"combination":[],"aug_dim":"","rhythm_ratio":1.0,"chromatic_density":0.5},{"voice":1,"pitch":62,"start":246.8331,"duration":0.1667,"velocity":127,"measure":93,"beat":3.25,"subject_pos":-1,"motif":"","motif_pos":-1,"best_pos":4,"similarity":0.446,"stretto":false,"stretto_voices":0,"combination":[],"aug_dim":"","rhythm_ratio":1.0,"chromatic_density":0.5},{"voice":1,"pitch":62,"start":246.9998,"duration":0.1667,"velocity":127,"measure":93,"beat":3.5,"subject_pos":-1,"motif":"","motif_pos":-1,"best_pos":2,"similarity":0.443,"stretto":false,"stretto_voices":0,"combination":[],"aug_dim":"","rhythm_ratio":1.0,"chromatic_density":0.5},{"voice":1,"pitch":59,"start":247.1664,"duration":0.1667,"velocity":127,"measure":93,"beat":3.75,"subject_pos":-1,"motif":"","motif_pos":-1,"best_pos":3,"similarity":0.471,"stretto":false,"stretto_voices":0,"combination":[],"aug_dim":"","rhythm_ratio":1.0,"chromatic_density":0.5},{"voice":1,"pitch":60,"start":247.3331,"duration":0.1667,"velocity":127,"measure":93,"beat":4.0,"subject_pos":-1,"motif":"","motif_pos":-1,"best_pos":4,"similarity":0.446,"stretto":false,"stretto_voices":0,"combination":[],"aug_dim":"","rhythm_ratio":1.0,"chromatic_density":0.5},{"voice":0,"pitch":81,"start":247.4998,"duration":0.3333,"velocity":127,"measure":93,"beat":4.25,"subject_pos":-1,"motif":"","motif_pos":-1,"best_pos":5,"similarity":0.464,"stretto":false,"stretto_voices":0,"combination":[],"aug_dim":"","rhythm_ratio":1.0,"chromatic_density":0.5},{"voice":1,"pitch":60,"start":247.4998,"duration":0.1667,"velocity":127,"measure":93,"beat":4.25,"subject_pos":-1,"motif":"","motif_pos":-1,"best_pos":2,"similarity":0.443,"stretto":false,"stretto_voices":0,"combination":[],"aug_dim":"","rhythm_ratio":1.0,"chromatic_density":0.5},{"voice":1,"pitch":57,"start":247.6664,"duration":0.1667,"velocity":127,"measure":93,"beat":4.5,"subject_pos":-1,"motif":"","motif_pos":-1,"best_pos":3,"similarity":0.471,"stretto":false,"stretto_voices":0,"combination":[],"aug_dim":"","rhythm_ratio":1.0,"chromatic_density":0.5},{"voice":1,"pitch":58,"start":247.8331,"duration":0.1667,"velocity":127,"measure":93,"beat":4.75,"subject_pos":-1,"motif":"","motif_pos":-1,"best_pos":5,"similarity":0.414,"stretto":false,"stretto_voices":0,"combination":[],"aug_dim":"","rhythm_ratio":1.0,"chromatic_density":0.5},{"voice":1,"pitch":58,"start":247.9998,"duration":0.1667,"velocity":127,"measure":94,"beat":1.0,"subject_pos":-1,"motif":"","motif_pos":-1,"best_pos":2,"similarity":0.421,"stretto":false,"stretto_voices":0,"combination":[],"aug_dim":"","rhythm_ratio":1.0,"chromatic_density":0.286},{"voice":1,"pitch":55,"start":248.1664,"duration":0.1667,"velocity":127,"measure":94,"beat":1.25,"subject_pos":-1,"motif":"","motif_pos":-1,"best_pos":5,"similarity":0.464,"stretto":false,"stretto_voices":0,"combination":[],"aug_dim":"","rhythm_ratio":1.0,"chromatic_density":0.286},{"voice":0,"pitch":73,"start":248.3331,"duration":0.1667,"velocity":127,"measure":94,"beat":1.5,"subject_pos":-1,"motif":"","motif_pos":-1,"best_pos":4,"similarity":0.443,"stretto":false,"stretto_voices":0,"combination":[],"aug_dim":"","rhythm_ratio":1.0,"chromatic_density":0.286},{"voice":1,"pitch":57,"start":248.3331,"duration":0.1667,"velocity":127,"measure":94,"beat":1.5,"subject_pos":-1,"motif":"","motif_pos":-1,"best_pos":6,"similarity":0.479,"stretto":false,"stretto_voices":0,"combination":[],"aug_dim":"","rhythm_ratio":1.0,"chromatic_density":0.286},{"voice":0,"pitch":74,"start":248.4998,"duration":0.3333,"velocity":127,"measure":94,"beat":1.75,"subject_pos":-1,"motif":"","motif_pos":-1,"best_pos":5,"similarity":0.579,"stretto":false,"stretto_voices":0,"combination":[],"aug_dim":"","rhythm_ratio":1.0,"chromatic_density":0.286},{"voice":1,"pitch":57,"start":248.4998,"duration":0.1667,"velocity":127,"measure":94,"beat":1.75,"subject_pos":-1,"motif":"","motif_pos":-1,"best_pos":4,"similarity":0.329,"stretto":false,"stretto_voices":0,"combination":[],"aug_dim":"","rhythm_ratio":1.0,"chromatic_density":0.286},{"voice":1,"pitch":53,"start":248.6664,"duration":0.1667,"velocity":127,"measure":94,"beat":2.0,"subject_pos":-1,"motif":"","motif_pos":-1,"best_pos":2,"similarity":0.393,"stretto":false,"stretto_voices":0,"combination":[],"aug_dim":"","rhythm_ratio":1.0,"chromatic_density":0.286},{"voice":0,"pitch":76,"start":248.8331,"duration":0.1667,"velocity":127,"measure":94,"beat":2.25,"subject_pos":-1,"motif":"head_inv","motif_pos":0,"best_pos":0,"similarity":1.0,"stretto":false,"stretto_voices":0,"combination":[],"aug_dim":"","rhythm_ratio":1.0,"chromatic_density":0.286},{"voice":1,"pitch":55,"start":248.8331,"duration":0.4132,"velocity":127,"measure":94,"beat":2.25,"subject_pos":-1,"motif":"","motif_pos":-1,"best_pos":3,"similarity":0.429,"stretto":false,"stretto_voices":0,"combination":[],"aug_dim":"","rhythm_ratio":1.0,"chromatic_density":0.286},{"voice":0,"pitch":69,"start":248.9998,"duration":0.1667,"velocity":127,"measure":94,"beat":2.5,"subject_pos":-1,"motif":"head_inv","motif_pos":1,"best_pos":1,"similarity":1.0,"stretto":false,"stretto_voices":0,"combination":[],"aug_dim":"","rhythm_ratio":1.0,"chromatic_density":0.286},{"voice":1,"pitch":53,"start":248.9998,"duration":0.6667,"velocity":127,"measure":94,"beat":2.5,"subject_pos":-1,"motif":"","motif_pos":-1,"best_pos":4,"similarity":0.571,"stretto":false,"stretto_voices":0,"combination":[],"aug_dim":"","rhythm_ratio":1.0,"chromatic_density":0.286},{"voice":0,"pitch":71,"start":249.1664,"duration":0.1667,"velocity":127,"measure":94,"beat":2.75,"subject_pos":-1,"motif":"head_inv","motif_pos":2,"best_pos":2,"similarity":1.0,"stretto":false,"stretto_voices":0,"combination":[],"aug_dim":"","rhythm_ratio":1.0,"chromatic_density":0.286},{"voice":0,"pitch":73,"start":249.3331,"duration":0.1667,"velocity":127,"measure":94,"beat":3.0,"subject_pos":-1,"motif":"head_inv","motif_pos":3,"best_pos":3,"similarity":1.0,"stretto":false,"stretto_voices":0,"combination":[],"aug_dim":"","rhythm_ratio":1.0,"chromatic_density":0.286},{"voice":0,"pitch":74,"start":249.4998,"duration":0.1667,"velocity":127,"measure":94,"beat":3.25,"subject_pos":-1,"motif":"head_inv","motif_pos":4,"best_pos":4,"similarity":1.0,"stretto":false,"stretto_voices":0,"combination":[],"aug_dim":"","rhythm_ratio":1.0,"chromatic_density":0.286},{"voice":0,"pitch":76,"start":249.6664,"duration":0.1667,"velocity":127,"measure":94,"beat":3.5,"subject_pos":-1,"motif":"","motif_pos":-1,"best_pos":6,"similarity":0.721,"stretto":false,"stretto_voices":0,"combination":[],"aug_dim":"","rhythm_ratio":1.0,"chromatic_density":0.286},{"voice":1,"pitch":55,"start":249.6664,"duration":0.1667,"velocity":127,"measure":94,"beat":3.5,"subject_pos":-1,"motif":"","motif_pos":-1,"best_pos":5,"similarity":0.643,"stretto":false,"stretto_voices":0,"combination":[],"aug_dim":"","rhythm_ratio":1.0,"chromatic_density":0.286},{"voice":0,"pitch":77,"start":249.8331,"duration":0.1667,"velocity":127,"measure":94,"beat":3.75,"subject_pos":-1,"motif":"","motif_pos":-1,"best_pos":7,"similarity":0.5,"stretto":false,"stretto_voices":0,"combination":[],"aug_dim":"","rhythm_ratio":1.0,"chromatic_density":0.286},{"voice":1,"pitch":57,"start":249.8331,"duration":0.1667,"velocity":127,"measure":94,"beat":3.75,"subject_pos":-1,"motif":"","motif_pos":-1,"best_pos":6,"similarity":0.679,"stretto":false,"stretto_voices":0,"combination":[],"aug_dim":"","rhythm_ratio":1.0,"chromatic_density":0.286},{"voice":0,"pitch":67,"start":249.9998,"duration":0.6667,"velocity":127,"measure":94,"beat":4.0,"subject_pos":-1,"motif":"","motif_pos":-1,"best_pos":0,"similarity":0.161,"stretto":false,"stretto_voices":0,"combination":[],"aug_dim":"","rhythm_ratio":1.0,"chromatic_density":0.286},{"voice":1,"pitch":58,"start":249.9998,"duration":0.1667,"velocity":127,"measure":94,"beat":4.0,"subject_pos":-1,"motif":"","motif_pos":-1,"best_pos":7,"similarity":0.464,"stretto":false,"stretto_voices":0,"combination":[],"aug_dim":"","rhythm_ratio":1.0,"chromatic_density":0.286},{"voice":1,"pitch":57,"start":250.1664,"duration":0.1667,"velocity":127,"measure":94,"beat":4.25,"subject_pos":-1,"motif":"","motif_pos":-1,"best_pos":1,"similarity":0.357,"stretto":false,"stretto_voices":0,"combination":[],"aug_dim":"","rhythm_ratio":1.0,"chromatic_density":0.286},{"voice":1,"pitch":55,"start":250.3331,"duration":0.1667,"velocity":127,"measure":94,"beat":4.5,"subject_pos":-1,"motif":"","motif_pos":-1,"best_pos":2,"similarity":0.5,"stretto":false,"stretto_voices":0,"combination":[],"aug_dim":"","rhythm_ratio":1.0,"chromatic_density":0.286},{"voice":1,"pitch":62,"start":250.4129,"duration":0.3333,"velocity":127,"measure":94,"beat":4.6198,"subject_pos":-1,"motif":"tail","motif_pos":3,"best_pos":3,"similarity":1.0,"stretto":false,"stretto_voices":0,"combination":[],"aug_dim":"","rhythm_ratio":1.0,"chromatic_density":0.286},{"voice":1,"pitch":61,"start":250.4997,"duration":0.6667,"velocity":127,"measure":94,"beat":4.75,"subject_pos":-1,"motif":"tail","motif_pos":4,"best_pos":4,"similarity":1.0,"stretto":false,"stretto_voices":0,"combination":[],"aug_dim":"","rhythm_ratio":1.0,"chromatic_density":0.286},{"voice":0,"pitch":79,"start":250.6664,"duration":0.1667,"velocity":127,"measure":95,"beat":1.0,"subject_pos":-1,"motif":"","motif_pos":-1,"best_pos":1,"similarity":0.357,"stretto":false,"stretto_voices":0,"combination":[],"aug_dim":"","rhythm_ratio":1.0,"chromatic_density":0.529},{"voice":0,"pitch":77,"start":250.8331,"duration":0.1667,"velocity":127,"measure":95,"beat":1.25,"subject_pos":-1,"motif":"","motif_pos":-1,"best_pos":3,"similarity":0.45,"stretto":false,"stretto_voices":0,"combination":[],"aug_dim":"","rhythm_ratio":1.0,"chromatic_density":0.529},{"voice":0,"pitch":76,"start":250.9997,"duration":0.1667,"velocity":127,"measure":95,"beat":1.5,"subject_pos":-1,"motif":"","motif_pos":-1,"best_pos":2,"similarity":0.5,"stretto":false,"stretto_voices":0,"combination":[],"aug_dim":"","rhythm_ratio":1.0,"chromatic_density":0.529},{"voice":0,"pitch":74,"start":251.1664,"duration":0.1667,"velocity":127,"measure":95,"beat":1.75,"subject_pos":-1,"motif":"","motif_pos":-1,"best_pos":3,"similarity":0.643,"stretto":false,"stretto_voices":0,"combination":[],"aug_dim":"","rhythm_ratio":1.0,"chromatic_density":0.529},{"voice":1,"pitch":62,"start":251.1664,"duration":0.1667,"velocity":127,"measure":95,"beat":1.75,"subject_pos":-1,"motif":"tail","motif_pos":5,"best_pos":5,"similarity":1.0,"stretto":false,"stretto_voices":0,"combination":[],"aug_dim":"","rhythm_ratio":1.0,"chromatic_density":0.529},{"voice":0,"pitch":73,"start":251.3331,"duration":0.1667,"velocity":127,"measure":95,"beat":2.0,"subject_pos":-1,"motif":"","motif_pos":-1,"best_pos":4,"similarity":0.714,"stretto":false,"stretto_voices":0,"combination":[],"aug_dim":"","rhythm_ratio":1.0,"chromatic_density":0.529},{"voice":1,"pitch":64,"start":251.3331,"duration":0.1667,"velocity":127,"measure":95,"beat":2.0,"subject_pos":-1,"motif":"tail","motif_pos":6,"best_pos":6,"similarity":1.0,"stretto":false,"stretto_voices":0,"combination":[],"aug_dim":"","rhythm_ratio":1.0,"chromatic_density":0.529},{"voice":0,"pitch":74,"start":251.4997,"duration":0.6667,"velocity":127,"measure":95,"beat":2.25,"subject_pos":-1,"motif":"","motif_pos":-1,"best_pos":5,"similarity":0.536,"stretto":false,"stretto_voices":0,"combination":[],"aug_dim":"","rhythm_ratio":1.0,"chromatic_density":0.529},{"voice":1,"pitch":65,"start":251.4997,"duration":0.1667,"velocity":127,"measure":95,"beat":2.25,"subject_pos":-1,"motif":"tail","motif_pos":7,"best_pos":7,"similarity":1.0,"stretto":false,"stretto_voices":0,"combination":[],"aug_dim":"","rhythm_ratio":1.0,"chromatic_density":0.529},{"voice":1,"pitch":64,"start":251.6664,"duration":0.1667,"velocity":127,"measure":95,"beat":2.5,"subject_pos":-1,"motif":"","motif_pos":-1,"best_pos":4,"similarity":0.421,"stretto":false,"stretto_voices":0,"combination":[],"aug_dim":"","rhythm_ratio":1.0,"chromatic_density":0.529},{"voice":1,"pitch":62,"start":251.8331,"duration":0.1667,"velocity":127,"measure":95,"beat":2.75,"subject_pos":-1,"motif":"","motif_pos":-1,"best_pos":3,"similarity":0.364,"stretto":false,"stretto_voices":0,"combination":[],"aug_dim":"","rhythm_ratio":1.0,"chromatic_density":0.529},{"voice":1,"pitch":68,"start":251.9997,"duration":1.5,"velocity":127,"measure":95,"beat":3.0,"subject_pos":-1,"motif":"","motif_pos":-1,"best_pos":4,"similarity":0.464,"stretto":false,"stretto_voices":0,"combination":[],"aug_dim":"","rhythm_ratio":1.0,"chromatic_density":0.529},{"voice":0,"pitch":71,"start":252.1664,"duration":0.1667,"velocity":127,"measure":95,"beat":3.25,"subject_pos":-1,"motif":"","motif_pos":-1,"best_pos":3,"similarity":0.543,"stretto":false,"stretto_voices":0,"combination":[],"aug_dim":"","rhythm_ratio":1.0,"chromatic_density":0.529},{"voice":0,"pitch":73,"start":252.3331,"duration":0.1667,"velocity":127,"measure":95,"beat":3.5,"subject_pos":-1,"motif":"","motif_pos":-1,"best_pos":4,"similarity":0.679,"stretto":false,"stretto_voices":0,"combination":[],"aug_dim":"","rhythm_ratio":1.0,"chromatic_density":0.529},{"voice":0,"pitch":74,"start":252.4997,"duration":0.1667,"velocity":127,"measure":95,"beat":3.75,"subject_pos":-1,"motif":"","motif_pos":-1,"best_pos":5,"similarity":0.8,"stretto":false,"stretto_voices":0,"combination":[],"aug_dim":"","rhythm_ratio":1.0,"chromatic_density":0.529},{"voice":0,"pitch":76,"start":252.6664,"duration":0.1667,"velocity":127,"measure":95,"beat":4.0,"subject_pos":-1,"motif":"","motif_pos":-1,"best_pos":6,"similarity":0.721,"stretto":false,"stretto_voices":0,"combination":[],"aug_dim":"","rhythm_ratio":1.0,"chromatic_density":0.529},{"voice":0,"pitch":77,"start":252.8331,"duration":0.1667,"velocity":127,"measure":95,"beat":4.25,"subject_pos":-1,"motif":"","motif_pos":-1,"best_pos":7,"similarity":0.5,"stretto":false,"stretto_voices":0,"combination":[],"aug_dim":"","rhythm_ratio":1.0,"chromatic_density":0.529},{"voice":0,"pitch":76,"start":252.9997,"duration":0.1667,"velocity":127,"measure":95,"beat":4.5,"subject_pos":-1,"motif":"","motif_pos":-1,"best_pos":4,"similarity":0.611,"stretto":false,"stretto_voices":0,"combination":[],"aug_dim":"","rhythm_ratio":1.0,"chromatic_density":0.529},{"voice":0,"pitch":77,"start":253.1664,"duration":0.1667,"velocity":127,"measure":95,"beat":4.75,"subject_pos":-1,"motif":"","motif_pos":-1,"best_pos":2,"similarity":0.529,"stretto":false,"stretto_voices":0,"combination":[],"aug_dim":"","rhythm_ratio":1.0,"chromatic_density":0.529},{"voice":0,"pitch":74,"start":253.3331,"duration":0.1667,"velocity":127,"measure":96,"beat":1.0,"subject_pos":-1,"motif":"","motif_pos":-1,"best_pos":3,"similarity":0.8,"stretto":false,"stretto_voices":0,"combination":[],"aug_dim":"","rhythm_ratio":1.0,"chromatic_density":0.333},{"voice":0,"pitch":73,"start":253.4997,"duration":0.1667,"velocity":127,"measure":96,"beat":1.25,"subject_pos":-1,"motif":"","motif_pos":-1,"best_pos":4,"similarity":0.864,"stretto":false,"stretto_voices":0,"combination":[],"aug_dim":"","rhythm_ratio":1.0,"chromatic_density":0.333},{"voice":1,"pitch":69,"start":253.4997,"duration":0.3333,"velocity":127,"measure":96,"beat":1.25,"subject_pos":-1,"motif":"","motif_pos":-1,"best_pos":5,"similarity":0.464,"stretto":false,"stretto_voices":0,"combination":[],"aug_dim":"","rhythm_ratio":1.0,"chromatic_density":0.333},{"voice":0,"pitch":74,"start":253.6664,"duration":0.1667,"velocity":127,"measure":96,"beat":1.5,"subject_pos":-1,"motif":"","motif_pos":-1,"best_pos":5,"similarity":0.786,"stretto":false,"stretto_voices":0,"combination":[],"aug_dim":"","rhythm_ratio":1.0,"chromatic_density":0.333},{"voice":0,"pitch":76,"start":253.8331,"duration":0.1667,"velocity":127,"measure":96,"beat":1.75,"subject_pos":-1,"motif":"","motif_pos":-1,"best_pos":6,"similarity":0.5,"stretto":false,"stretto_voices":0,"combination":[],"aug_dim":"","rhythm_ratio":1.0,"chromatic_density":0.333},{"voice":0,"pitch":69,"start":253.9997,"duration":0.6667,"velocity":127,"measure":96,"beat":2.0,"subject_pos":-1,"motif":"","motif_pos":-1,"best_pos":6,"similarity":0.375,"stretto":false,"stretto_voices":0,"combination":[],"aug_dim":"","rhythm_ratio":1.0,"chromatic_density":0.333},{"voice":1,"pitch":61,"start":254.3331,"duration":0.1667,"velocity":127,"measure":96,"beat":2.5,"subject_pos":-1,"motif":"","motif_pos":-1,"best_pos":4,"similarity":0.443,"stretto":false,"stretto_voices":0,"combination":[],"aug_dim":"","rhythm_ratio":1.0,"chromatic_density":0.333},{"voice":1,"pitch":62,"start":254.4997,"duration":0.3333,"velocity":127,"measure":96,"beat":2.75,"subject_pos":-1,"motif":"","motif_pos":-1,"best_pos":5,"similarity":0.579,"stretto":false,"stretto_voices":0,"combination":[],"aug_dim":"","rhythm_ratio":1.0,"chromatic_density":0.333},{"voice":0,"pitch":70,"start":254.6664,"duration":0.1667,"velocity":127,"measure":96,"beat":3.0,"subject_pos":-1,"motif":"","motif_pos":-1,"best_pos":2,"similarity":0.421,"stretto":false,"stretto_voices":0,"combination":[],"aug_dim":"","rhythm_ratio":1.0,"chromatic_density":0.333},{"voice":0,"pitch":67,"start":254.8331,"duration":0.1667,"velocity":127,"measure":96,"beat":3.25,"subject_pos":-1,"motif":"","motif_pos":-1,"best_pos":3,"similarity":0.514,"stretto":false,"stretto_voices":0,"combination":[],"aug_dim":"","rhythm_ratio":1.0,"chromatic_density":0.333},{"voice":1,"pitch":64,"start":254.8331,"duration":0.1667,"velocity":127,"measure":96,"beat":3.25,"subject_pos":-1,"motif":"head_inv","motif_pos":0,"best_pos":0,"similarity":1.0,"stretto":false,"stretto_voices":0,"combination":[],"aug_dim":"","rhythm_ratio":1.0,"chromatic_density":0.333},{"voice":0,"pitch":65,"start":254.9997,"duration":0.1667,"velocity":127,"measure":96,"beat":3.5,"subject_pos":-1,"motif":"","motif_pos":-1,"best_pos":4,"similarity":0.507,"stretto":false,"stretto_voices":0,"combination":[],"aug_dim":"","rhythm_ratio":1.0,"chromatic_density":0.333},{"voice":1,"pitch":57,"start":254.9997,"duration":0.1667,"velocity":127,"measure":96,"beat":3.5,"subject_pos":-1,"motif":"head_inv","motif_pos":1,"best_pos":1,"similarity":1.0,"stretto":false,"stretto_voices":0,"combination":[],"aug_dim":"","rhythm_ratio":1.0,"chromatic_density":0.333},{"voice":0,"pitch":67,"start":255.1664,"duration":0.1667,"velocity":127,"measure":96,"beat":3.75,"subject_pos":-1,"motif":"","motif_pos":-1,"best_pos":5,"similarity":0.429,"stretto":false,"stretto_voices":0,"combination":[],"aug_dim":"","rhythm_ratio":1.0,"chromatic_density":0.333},{"voice":1,"pitch":59,"start":255.1664,"duration":0.1667,"velocity":127,"measure":96,"beat":3.75,"subject_pos":-1,"motif":"head_inv","motif_pos":2,"best_pos":2,"similarity":1.0,"stretto":false,"stretto_voices":0,"combination":[],"aug_dim":"","rhythm_ratio":1.0,"chromatic_density":0.333},{"voice":0,"pitch":64,"start":255.3331,"duration":0.1667,"velocity":127,"measure":96,"beat":4.0,"subject_pos":-1,"motif":"","motif_pos":-1,"best_pos":4,"similarity":0.471,"stretto":false,"stretto_voices":0,"combination":[],"aug_dim":"","rhythm_ratio":1.0,"chromatic_density":0.333},{"voice":1,"pitch":61,"start":255.3331,"duration":0.1667,"velocity":127,"measure":96,"beat":4.0,"subject_pos":-1,"motif":"head_inv","motif_pos":3,"best_pos":3,"similarity":1.0,"stretto":false,"stretto_voices":0,"combination":[],"aug_dim":"","rhythm_ratio":1.0,"chromatic_density":0.333},{"voice":0,"pitch":65,"start":255.4997,"duration":0.1667,"velocity":127,"measure":96,"beat":4.25,"subject_pos":-1,"motif":"","motif_pos":-1,"best_pos":5,"similarity":0.407,"stretto":false,"stretto_voices":0,"combination":[],"aug_dim":"","rhythm_ratio":1.0,"chromatic_density":0.333},{"voice":1,"pitch":62,"start":255.4997,"duration":0.1667,"velocity":127,"measure":96,"beat":4.25,"subject_pos":-1,"motif":"head_inv","motif_pos":4,"best_pos":4,"similarity":1.0,"stretto":false,"stretto_voices":0,"combination":[],"aug_dim":"","rhythm_ratio":1.0,"chromatic_density":0.333},{"voice":0,"pitch":69,"start":255.6664,"duration":0.1667,"velocity":127,"measure":96,"beat":4.5,"subject_pos":-1,"motif":"","motif_pos":-1,"best_pos":0,"similarity":0.464,"stretto":false,"stretto_voices":0,"combination":[],"aug_dim":"","rhythm_ratio":1.0,"chromatic_density":0.333},{"voice":1,"pitch":64,"start":255.6664,"duration":0.1667,"velocity":127,"measure":96,"beat":4.5,"subject_pos":-1,"motif":"","motif_pos":-1,"best_pos":6,"similarity":0.721,"stretto":false,"stretto_voices":0,"combination":[],"aug_dim":"","rhythm_ratio":1.0,"chromatic_density":0.333},{"voice":0,"pitch":74,"start":255.8331,"duration":0.1667,"velocity":127,"measure":96,"beat":4.75,"subject_pos":-1,"motif":"","motif_pos":-1,"best_pos":1,"similarity":0.714,"stretto":false,"stretto_voices":0,"combination":[],"aug_dim":"","rhythm_ratio":1.0,"chromatic_density":0.333},{"voice":1,"pitch":65,"start":255.8331,"duration":0.1667,"velocity":127,"measure":96,"beat":4.75,"subject_pos":-1,"motif":"","motif_pos":-1,"best_pos":7,"similarity":0.5,"stretto":false,"stretto_voices":0,"combination":[],"aug_dim":"","rhythm_ratio":1.0,"chromatic_density":0.333},{"voice":0,"pitch":72,"start":255.9997,"duration":0.1667,"velocity":127,"measure":97,"beat":1.0,"subject_pos":-1,"motif":"","motif_pos":-1,"best_pos":2,"similarity":0.786,"stretto":false,"stretto_voices":0,"combination":[],"aug_dim":"","rhythm_ratio":1.0,"chromatic_density":0.375},{"voice":1,"pitch":55,"start":255.9997,"duration":0.6667,"velocity":127,"measure":97,"beat":1.0,"subject_pos":-1,"motif":"","motif_pos":-1,"best_pos":0,"similarity":0.161,"stretto":false,"stretto_voices":0,"combination":[],"aug_dim":"","rhythm_ratio":1.0,"chromatic_density":0.375},{"voice":0,"pitch":70,"start":256.1664,"duration":0.1667,"velocity":127,"measure":97,"beat":1.25,"subject_pos":-1,"motif":"","motif_pos":-1,"best_pos":3,"similarity":0.804,"stretto":false,"stretto_voices":0,"combination":[],"aug_dim":"","rhythm_ratio":1.0,"chromatic_density":0.375},{"voice":0,"pitch":69,"start":256.3331,"duration":0.1667,"velocity":127,"measure":97,"beat":1.5,"subject_pos":-1,"motif":"","motif_pos":-1,"best_pos":4,"similarity":0.757,"stretto":false,"stretto_voices":0,"combination":[],"aug_dim":"","rhythm_ratio":1.0,"chromatic_density":0.375},{"voice":0,"pitch":70,"start":256.4997,"duration":0.1667,"velocity":127,"measure":97,"beat":1.75,"subject_pos":-1,"motif":"","motif_pos":-1,"best_pos":5,"similarity":0.55,"stretto":false,"stretto_voices":0,"combination":[],"aug_dim":"","rhythm_ratio":1.0,"chromatic_density":0.375},{"voice":0,"pitch":74,"start":256.6664,"duration":0.1667,"velocity":127,"measure":97,"beat":2.0,"subject_pos":-1,"motif":"","motif_pos":-1,"best_pos":0,"similarity":0.321,"stretto":false,"stretto_voices":0,"combination":[],"aug_dim":"","rhythm_ratio":1.0,"chromatic_density":0.375},{"voice":1,"pitch":67,"start":256.6664,"duration":0.1667,"velocity":127,"measure":97,"beat":2.0,"subject_pos":-1,"motif":"","motif_pos":-1,"best_pos":1,"similarity":0.357,"stretto":false,"stretto_voices":0,"combination":[],"aug_dim":"","rhythm_ratio":1.0,"chromatic_density":0.375},{"voice":0,"pitch":79,"start":256.8331,"duration":0.1667,"velocity":127,"measure":97,"beat":2.25,"subject_pos":-1,"motif":"","motif_pos":-1,"best_pos":1,"similarity":0.357,"stretto":false,"stretto_voices":0,"combination":[],"aug_dim":"","rhythm_ratio":1.0,"chromatic_density":0.375},{"voice":1,"pitch":65,"start":256.8331,"duration":0.1667,"velocity":127,"measure":97,"beat":2.25,"subject_pos":-1,"motif":"","motif_pos":-1,"best_pos":3,"similarity":0.45,"stretto":false,"stretto_voices":0,"combination":[],"aug_dim":"","rhythm_ratio":1.0,"chromatic_density":0.375},{"voice":0,"pitch":73,"start":256.9997,"duration":0.1667,"velocity":127,"measure":97,"beat":2.5,"subject_pos":-1,"motif":"","motif_pos":-1,"best_pos":2,"similarity":0.286,"stretto":false,"stretto_voices":0,"combination":[],"aug_dim":"","rhythm_ratio":1.0,"chromatic_density":0.375},{"voice":1,"pitch":64,"start":256.9997,"duration":0.1667,"velocity":127,"measure":97,"beat":2.5,"subject_pos":-1,"motif":"","motif_pos":-1,"best_pos":2,"similarity":0.5,"stretto":false,"stretto_voices":0,"combination":[],"aug_dim":"","rhythm_ratio":1.0,"chromatic_density":0.375},{"voice":0,"pitch":76,"start":257.1664,"duration":0.1667,"velocity":127,"measure":97,"beat":2.75,"subject_pos":-1,"motif":"","motif_pos":-1,"best_pos":3,"similarity":0.257,"stretto":false,"stretto_voices":0,"combination":[],"aug_dim":"","rhythm_ratio":1.0,"chromatic_density":0.375},{"voice":1,"pitch":62,"start":257.1664,"duration":0.1667,"velocity":127,"measure":97,"beat":2.75,"subject_pos":-1,"motif":"","motif_pos":-1,"best_pos":3,"similarity":0.643,"stretto":false,"stretto_voices":0,"combination":[],"aug_dim":"","rhythm_ratio":1.0,"chromatic_density":0.375},{"voice":0,"pitch":69,"start":257.3331,"duration":0.1667,"velocity":127,"measure":97,"beat":3.0,"subject_pos":-1,"motif":"","motif_pos":-1,"best_pos":4,"similarity":0.325,"stretto":false,"stretto_voices":0,"combination":[],"aug_dim":"","rhythm_ratio":1.0,"chromatic_density":0.375},{"voice":1,"pitch":61,"start":257.3331,"duration":0.1667,"velocity":127,"measure":97,"beat":3.0,"subject_pos":-1,"motif":"","motif_pos":-1,"best_pos":4,"similarity":0.714,"stretto":false,"stretto_voices":0,"combination":[],"aug_dim":"","rhythm_ratio":1.0,"chromatic_density":0.375},{"voice":0,"pitch":70,"start":257.4997,"duration":0.1667,"velocity":127,"measure":97,"beat":3.25,"subject_pos":-1,"motif":"","motif_pos":-1,"best_pos":3,"similarity":0.368,"stretto":false,"stretto_voices":0,"combination":[],"aug_dim":"","rhythm_ratio":1.0,"chromatic_density":0.375},{"voice":1,"pitch":62,"start":257.4997,"duration":0.6667,"velocity":127,"measure":97,"beat":3.25,"subject_pos":-1,"motif":"","motif_pos":-1,"best_pos":5,"similarity":0.536,"stretto":false,"stretto_voices":0,"combination":[],"aug_dim":"","rhythm_ratio":1.0,"chromatic_density":0.375},{"voice":0,"pitch":69,"start":257.6664,"duration":0.1667,"velocity":127,"measure":97,"beat":3.5,"subject_pos":-1,"motif":"","motif_pos":-1,"best_pos":2,"similarity":0.407,"stretto":false,"stretto_voices":0,"combination":[],"aug_dim":"","rhythm_ratio":1.0,"chromatic_density":0.375},{"voice":0,"pitch":67,"start":257.8331,"duration":0.1667,"velocity":127,"measure":97,"beat":3.75,"subject_pos":-1,"motif":"","motif_pos":-1,"best_pos":2,"similarity":0.45,"stretto":false,"stretto_voices":0,"combination":[],"aug_dim":"","rhythm_ratio":1.0,"chromatic_density":0.375},{"voice":0,"pitch":65,"start":257.9997,"duration":0.1667,"velocity":127,"measure":97,"beat":4.0,"subject_pos":-1,"motif":"","motif_pos":-1,"best_pos":4,"similarity":0.464,"stretto":false,"stretto_voices":0,"combination":[],"aug_dim":"","rhythm_ratio":1.0,"chromatic_density":0.375},{"voice":0,"pitch":67,"start":258.1664,"duration":0.1667,"velocity":127,"measure":97,"beat":4.25,"subject_pos":-1,"motif":"","motif_pos":-1,"best_pos":5,"similarity":0.393,"stretto":false,"stretto_voices":0,"combination":[],"aug_dim":"","rhythm_ratio":1.0,"chromatic_density":0.375},{"voice":1,"pitch":59,"start":258.1664,"duration":0.1667,"velocity":127,"measure":97,"beat":4.25,"subject_pos":-1,"motif":"","motif_pos":-1,"best_pos":3,"similarity":0.543,"stretto":false,"stretto_voices":0,"combination":[],"aug_dim":"","rhythm_ratio":1.0,"chromatic_density":0.375},{"voice":0,"pitch":64,"start":258.3331,"duration":0.1667,"velocity":127,"measure":97,"beat":4.5,"subject_pos":-1,"motif":"","motif_pos":-1,"best_pos":4,"similarity":0.429,"stretto":false,"stretto_voices":0,"combination":[],"aug_dim":"","rhythm_ratio":1.0,"chromatic_density":0.375},{"voice":1,"pitch":61,"start":258.3331,"duration":0.1667,"velocity":127,"measure":97,"beat":4.5,"subject_pos":-1,"motif":"","motif_pos":-1,"best_pos":4,"similarity":0.679,"stretto":false,"stretto_voices":0,"combination":[],"aug_dim":"","rhythm_ratio":1.0,"chromatic_density":0.375},{"voice":0,"pitch":65,"start":258.4997,"duration":0.3333,"velocity":127,"measure":97,"beat":4.75,"subject_pos":-1,"motif":"","motif_pos":-1,"best_pos":5,"similarity":0.321,"stretto":false,"stretto_voices":0,"combination":[],"aug_dim":"","rhythm_ratio":1.0,"chromatic_density":0.375},{"voice":1,"pitch":62,"start":258.4997,"duration":0.1667,"velocity":127,"measure":97,"beat":4.75,"subject_pos":-1,"motif":"","motif_pos":-1,"best_pos":5,"similarity":0.8,"stretto":false,"stretto_voices":0,"combination":[],"aug_dim":"","rhythm_ratio":1.0,"chromatic_density":0.375},{"voice":1,"pitch":64,"start":258.6664,"duration":0.1667,"velocity":127,"measure":98,"beat":1.0,"subject_pos":-1,"motif":"","motif_pos":-1,"best_pos":6,"similarity":0.721,"stretto":false,"stretto_voices":0,"combination":[],"aug_dim":"","rhythm_ratio":1.0,"chromatic_density":0.455},{"voice":0,"pitch":74,"start":258.8331,"duration":0.1667,"velocity":127,"measure":98,"beat":1.25,"subject_pos":-1,"motif":"","motif_pos":-1,"best_pos":1,"similarity":0.243,"stretto":false,"stretto_voices":0,"combination":[],"aug_dim":"","rhythm_ratio":1.0,"chromatic_density":0.455},{"voice":1,"pitch":65,"start":258.8331,"duration":0.1667,"velocity":127,"measure":98,"beat":1.25,"subject_pos":-1,"motif":"","motif_pos":-1,"best_pos":7,"similarity":0.5,"stretto":false,"stretto_voices":0,"combination":[],"aug_dim":"","rhythm_ratio":1.0,"chromatic_density":0.455},{"voice":0,"pitch":67,"start":258.9997,"duration":0.3333,"velocity":127,"measure":98,"beat":1.5,"subject_pos":-1,"motif":"","motif_pos":-1,"best_pos":2,"similarity":0.357,"stretto":false,"stretto_voices":0,"combination":[],"aug_dim":"","rhythm_ratio":1.0,"chromatic_density":0.455},{"voice":1,"pitch":64,"start":258.9997,"duration":0.1667,"velocity":127,"measure":98,"beat":1.5,"subject_pos":-1,"motif":"","motif_pos":-1,"best_pos":4,"similarity":0.611,"stretto":false,"stretto_voices":0,"combination":[],"aug_dim":"","rhythm_ratio":1.0,"chromatic_density":0.455},{"voice":1,"pitch":65,"start":259.1664,"duration":0.1667,"velocity":127,"measure":98,"beat":1.75,"subject_pos":-1,"motif":"","motif_pos":-1,"best_pos":2,"similarity":0.529,"stretto":false,"stretto_voices":0,"combination":[],"aug_dim":"","rhythm_ratio":1.0,"chromatic_density":0.455},{"voice":0,"pitch":65,"start":259.3331,"duration":0.1667,"velocity":127,"measure":98,"beat":2.0,"subject_pos":-1,"motif":"enigmatic_cell","motif_pos":0,"best_pos":0,"similarity":1.0,"stretto":false,"stretto_voices":0,"combination":[],"aug_dim":"","rhythm_ratio":1.0,"chromatic_density":0.455},{"voice":1,"pitch":62,"start":259.3331,"duration":0.1667,"velocity":127,"measure":98,"beat":2.0,"subject_pos":-1,"motif":"","motif_pos":-1,"best_pos":3,"similarity":0.8,"stretto":false,"stretto_voices":0,"combination":[],"aug_dim":"","rhythm_ratio":1.0,"chromatic_density":0.455},{"voice":0,"pitch":64,"start":259.4997,"duration":0.1667,"velocity":127,"measure":98,"beat":2.25,"subject_pos":-1,"motif":"enigmatic_cell","motif_pos":1,"best_pos":1,"similarity":1.0,"stretto":false,"stretto_voices":0,"combination":[],"aug_dim":"","rhythm_ratio":1.0,"chromatic_density":0.455},{"voice":1,"pitch":61,"start":259.4997,"duration":0.1667,"velocity":127,"measure":98,"beat":2.25,"subject_pos":-1,"motif":"","motif_pos":-1,"best_pos":4,"similarity":0.864,"stretto":false,"stretto_voices":0,"combination":[],"aug_dim":"","rhythm_ratio":1.0,"chromatic_density":0.455},{"voice":0,"pitch":69,"start":259.6664,"duration":0.1667,"velocity":127,"measure":98,"beat":2.5,"subject_pos":-1,"motif":"enigmatic_cell","motif_pos":2,"best_pos":2,"similarity":1.0,"stretto":false,"stretto_voices":0,"combination":[],"aug_dim":"","rhythm_ratio":1.0,"chromatic_density":0.455},{"voice":1,"pitch":62,"start":259.6664,"duration":0.1667,"velocity":127,"measure":98,"beat":2.5,"subject_pos":-1,"motif":"","motif_pos":-1,"best_pos":5,"similarity":0.786,"stretto":false,"stretto_voices":0,"combination":[],"aug_dim":"","rhythm_ratio":1.0,"chromatic_density":0.455},{"voice":0,"pitch":67,"start":259.8331,"duration":0.1667,"velocity":127,"measure":98,"beat":2.75,"subject_pos":-1,"motif":"","motif_pos":-1,"best_pos":2,"similarity":0.721,"stretto":false,"stretto_voices":0,"combination":[],"aug_dim":"","rhythm_ratio":1.0,"chromatic_density":0.455},{"voice":1,"pitch":64,"start":259.8331,"duration":0.1667,"velocity":127,"measure":98,"beat":2.75,"subject_pos":-1,"motif":"","motif_pos":-1,"best_pos":6,"similarity":0.5,"stretto":false,"stretto_voices":0,"combination":[],"aug_dim":"","rhythm_ratio":1.0,"chromatic_density":0.455},{"voice":0,"pitch":65,"start":259.9997,"duration":0.1667,"velocity":127,"measure":98,"beat":3.0,"subject_pos":-1,"motif":"","motif_pos":-1,"best_pos":3,"similarity":0.664,"stretto":false,"stretto_voices":0,"combination":[],"aug_dim":"","rhythm_ratio":1.0,"chromatic_density":0.455},{"voice":1,"pitch":57,"start":259.9997,"duration":0.6667,"velocity":127,"measure":98,"beat":3.0,"subject_pos":-1,"motif":"","motif_pos":-1,"best_pos":6,"similarity":0.375,"stretto":false,"stretto_voices":0,"combination":[],"aug_dim":"","rhythm_ratio":1.0,"chromatic_density":0.455},{"voice":0,"pitch":64,"start":260.1664,"duration":0.1667,"velocity":127,"measure":98,"beat":3.25,"subject_pos":-1,"motif":"","motif_pos":-1,"best_pos":4,"similarity":0.543,"stretto":false,"stretto_voices":0,"combination":[],"aug_dim":"","rhythm_ratio":1.0,"chromatic_density":0.455},{"voice":0,"pitch":62,"start":260.3331,"duration":0.1667,"velocity":127,"measure":98,"beat":3.5,"subject_pos":-1,"motif":"","motif_pos":-1,"best_pos":3,"similarity":0.643,"stretto":false,"stretto_voices":0,"combination":[],"aug_dim":"","rhythm_ratio":1.0,"chromatic_density":0.455},{"voice":0,"pitch":61,"start":260.4997,"duration":0.5,"velocity":127,"measure":98,"beat":3.75,"subject_pos":-1,"motif":"","motif_pos":-1,"best_pos":4,"similarity":0.696,"stretto":false,"stretto_voices":0,"combination":[],"aug_dim":"","rhythm_ratio":1.0,"chromatic_density":0.455},{"voice":1,"pitch":58,"start":260.6664,"duration":0.1667,"velocity":127,"measure":98,"beat":4.0,"subject_pos":-1,"motif":"","motif_pos":-1,"best_pos":2,"similarity":0.421,"stretto":false,"stretto_voices":0,"combination":[],"aug_dim":"","rhythm_ratio":1.0,"chromatic_density":0.455},{"voice":1,"pitch":55,"start":260.8331,"duration":0.1667,"velocity":127,"measure":98,"beat":4.25,"subject_pos":-1,"motif":"","motif_pos":-1,"best_pos":3,"similarity":0.514,"stretto":false,"stretto_voices":0,"combination":[],"aug_dim":"","rhythm_ratio":1.0,"chromatic_density":0.455},{"voice":0,"pitch":62,"start":260.9997,"duration":0.3333,"velocity":127,"measure":98,"beat":4.5,"subject_pos":-1,"motif":"","motif_pos":-1,"best_pos":5,"similarity":0.5,"stretto":false,"stretto_voices":0,"combination":[],"aug_dim":"","rhythm_ratio":1.0,"chromatic_density":0.455},{"voice":1,"pitch":53,"start":260.9997,"duration":0.1667,"velocity":127,"measure":98,"beat":4.5,"subject_pos":-1,"motif":"","motif_pos":-1,"best_pos":4,"similarity":0.507,"stretto":false,"stretto_voices":0,"combination":[],"aug_dim":"","rhythm_ratio":1.0,"chromatic_density":0.455},{"voice":1,"pitch":55,"start":261.1664,"duration":0.1667,"velocity":127,"measure":98,"beat":4.75,"subject_pos":-1,"motif":"","motif_pos":-1,"best_pos":5,"similarity":0.429,"stretto":false,"stretto_voices":0,"combination":[],"aug_dim":"","rhythm_ratio":1.0,"chromatic_density":0.455},{"voice":1,"pitch":52,"start":261.3331,"duration":0.1667,"velocity":127,"measure":99,"beat":1.0,"subject_pos":-1,"motif":"","motif_pos":-1,"best_pos":4,"similarity":0.471,"stretto":false,"stretto_voices":0,"combination":[],"aug_dim":"","rhythm_ratio":1.0,"chromatic_density":0.346},{"voice":1,"pitch":53,"start":261.4997,"duration":0.1667,"velocity":127,"measure":99,"beat":1.25,"subject_pos":-1,"motif":"","motif_pos":-1,"best_pos":5,"similarity":0.407,"stretto":false,"stretto_voices":0,"combination":[],"aug_dim":"","rhythm_ratio":1.0,"chromatic_density":0.346},{"voice":1,"pitch":57,"start":261.6664,"duration":0.1667,"velocity":127,"measure":99,"beat":1.5,"subject_pos":-1,"motif":"","motif_pos":-1,"best_pos":0,"similarity":0.464,"stretto":false,"stretto_voices":0,"combination":[],"aug_dim":"","rhythm_ratio":1.0,"chromatic_density":0.346},{"voice":0,"pitch":70,"start":261.8331,"duration":0.1667,"velocity":127,"measure":99,"beat":1.75,"subject_pos":-1,"motif":"","motif_pos":-1,"best_pos":3,"similarity":0.3,"stretto":false,"stretto_voices":0,"combination":[],"aug_dim":"","rhythm_ratio":1.0,"chromatic_density":0.346},{"voice":1,"pitch":62,"start":261.8331,"duration":0.1667,"velocity":127,"measure":99,"beat":1.75,"subject_pos":-1,"motif":"","motif_pos":-1,"best_pos":1,"similarity":0.714,"stretto":false,"stretto_voices":0,"combination":[],"aug_dim":"","rhythm_ratio":1.0,"chromatic_density":0.346},{"voice":0,"pitch":69,"start":261.9997,"duration":0.3333,"velocity":127,"measure":99,"beat":2.0,"subject_pos":-1,"motif":"","motif_pos":-1,"best_pos":4,"similarity":0.329,"stretto":false,"stretto_voices":0,"combination":[],"aug_dim":"","rhythm_ratio":1.0,"chromatic_density":0.346},{"voice":1,"pitch":60,"start":261.9997,"duration":0.1667,"velocity":127,"measure":99,"beat":2.0,"subject_pos":-1,"motif":"","motif_pos":-1,"best_pos":2,"similarity":0.786,"stretto":false,"stretto_voices":0,"combination":[],"aug_dim":"","rhythm_ratio":1.0,"chromatic_density":0.346},{"voice":1,"pitch":58,"start":262.1664,"duration":0.1667,"velocity":127,"measure":99,"beat":2.25,"subject_pos":-1,"motif":"","motif_pos":-1,"best_pos":3,"similarity":0.804,"stretto":false,"stretto_voices":0,"combination":[],"aug_dim":"","rhythm_ratio":1.0,"chromatic_density":0.346},{"voice":0,"pitch":77,"start":262.3331,"duration":0.1667,"velocity":127,"measure":99,"beat":2.5,"subject_pos":-1,"motif":"","motif_pos":-1,"best_pos":4,"similarity":0.25,"stretto":false,"stretto_voices":0,"combination":[],"aug_dim":"","rhythm_ratio":1.0,"chromatic_density":0.346},{"voice":1,"pitch":57,"start":262.3331,"duration":0.1667,"velocity":127,"measure":99,"beat":2.5,"subject_pos":-1,"motif":"","motif_pos":-1,"best_pos":4,"similarity":0.757,"stretto":false,"stretto_voices":0,"combination":[],"aug_dim":"","rhythm_ratio":1.0,"chromatic_density":0.346},{"voice":0,"pitch":67,"start":262.4997,"duration":0.1667,"velocity":127,"measure":99,"beat":2.75,"subject_pos":-1,"motif":"","motif_pos":-1,"best_pos":5,"similarity":0.446,"stretto":false,"stretto_voices":0,"combination":[],"aug_dim":"","rhythm_ratio":1.0,"chromatic_density":0.346},{"voice":1,"pitch":58,"start":262.4997,"duration":0.1667,"velocity":127,"measure":99,"beat":2.75,"subject_pos":-1,"motif":"","motif_pos":-1,"best_pos":5,"similarity":0.55,"stretto":false,"stretto_voices":0,"combination":[],"aug_dim":"","rhythm_ratio":1.0,"chromatic_density":0.346},{"voice":0,"pitch":69,"start":262.6664,"duration":0.1667,"velocity":127,"measure":99,"beat":3.0,"subject_pos":-1,"motif":"","motif_pos":-1,"best_pos":6,"similarity":0.571,"stretto":false,"stretto_voices":0,"combination":[],"aug_dim":"","rhythm_ratio":1.0,"chromatic_density":0.346},{"voice":1,"pitch":62,"start":262.6664,"duration":0.1667,"velocity":127,"measure":99,"beat":3.0,"subject_pos":-1,"motif":"","motif_pos":-1,"best_pos":0,"similarity":0.321,"stretto":false,"stretto_voices":0,"combination":[],"aug_dim":"","rhythm_ratio":1.0,"chromatic_density":0.346},{"voice":0,"pitch":70,"start":262.8331,"duration":0.1667,"velocity":127,"measure":99,"beat":3.25,"subject_pos":-1,"motif":"","motif_pos":-1,"best_pos":7,"similarity":0.429,"stretto":false,"stretto_voices":0,"combination":[],"aug_dim":"","rhythm_ratio":1.0,"chromatic_density":0.346},{"voice":1,"pitch":67,"start":262.8331,"duration":0.1667,"velocity":127,"measure":99,"beat":3.25,"subject_pos":-1,"motif":"","motif_pos":-1,"best_pos":1,"similarity":0.357,"stretto":false,"stretto_voices":0,"combination":[],"aug_dim":"","rhythm_ratio":1.0,"chromatic_density":0.346},{"voice":0,"pitch":69,"start":262.9997,"duration":0.1667,"velocity":127,"measure":99,"beat":3.5,"subject_pos":-1,"motif":"","motif_pos":-1,"best_pos":4,"similarity":0.425,"stretto":false,"stretto_voices":0,"combination":[],"aug_dim":"","rhythm_ratio":1.0,"chromatic_density":0.346},{"voice":1,"pitch":61,"start":262.9997,"duration":0.1667,"velocity":127,"measure":99,"beat":3.5,"subject_pos":-1,"motif":"","motif_pos":-1,"best_pos":2,"similarity":0.286,"stretto":false,"stretto_voices":0,"combination":[],"aug_dim":"","rhythm_ratio":1.0,"chromatic_density":0.346},{"voice":0,"pitch":73,"start":263.1664,"duration":0.1667,"velocity":127,"measure":99,"beat":3.75,"subject_pos":-1,"motif":"","motif_pos":-1,"best_pos":5,"similarity":0.357,"stretto":false,"stretto_voices":0,"combination":[],"aug_dim":"","rhythm_ratio":1.0,"chromatic_density":0.346},{"voice":1,"pitch":64,"start":263.1664,"duration":0.1667,"velocity":127,"measure":99,"beat":3.75,"subject_pos":-1,"motif":"","motif_pos":-1,"best_pos":3,"similarity":0.257,"stretto":false,"stretto_voices":0,"combination":[],"aug_dim":"","rhythm_ratio":1.0,"chromatic_density":0.346},{"voice":0,"pitch":76,"start":263.3331,"duration":0.1667,"velocity":127,"measure":99,"beat":4.0,"subject_pos":-1,"motif":"","motif_pos":-1,"best_pos":6,"similarity":0.3,"stretto":false,"stretto_voices":0,"combination":[],"aug_dim":"","rhythm_ratio":1.0,"chromatic_density":0.346},{"voice":1,"pitch":57,"start":263.3331,"duration":0.1667,"velocity":127,"measure":99,"beat":4.0,"subject_pos":-1,"motif":"","motif_pos":-1,"best_pos":4,"similarity":0.325,"stretto":false,"stretto_voices":0,"combination":[],"aug_dim":"","rhythm_ratio":1.0,"chromatic_density":0.346},{"voice":0,"pitch":79,"start":263.4997,"duration":0.1667,"velocity":127,"measure":99,"beat":4.25,"subject_pos":-1,"motif":"","motif_pos":-1,"best_pos":1,"similarity":0.393,"stretto":false,"stretto_voices":0,"combination":[],"aug_dim":"","rhythm_ratio":1.0,"chromatic_density":0.346},{"voice":1,"pitch":58,"start":263.4997,"duration":0.1667,"velocity":127,"measure":99,"beat":4.25,"subject_pos":-1,"motif":"","motif_pos":-1,"best_pos":3,"similarity":0.368,"stretto":false,"stretto_voices":0,"combination":[],"aug_dim":"","rhythm_ratio":1.0,"chromatic_density":0.346},{"voice":0,"pitch":77,"start":263.6664,"duration":0.1667,"velocity":127,"measure":99,"beat":4.5,"subject_pos":-1,"motif":"enigmatic_cell","motif_pos":0,"best_pos":0,"similarity":1.0,"stretto":false,"stretto_voices":0,"combination":[],"aug_dim":"","rhythm_ratio":1.0,"chromatic_density":0.346},{"voice":1,"pitch":57,"start":263.6664,"duration":0.1667,"velocity":127,"measure":99,"beat":4.5,"subject_pos":-1,"motif":"","motif_pos":-1,"best_pos":2,"similarity":0.407,"stretto":false,"stretto_voices":0,"combination":[],"aug_dim":"","rhythm_ratio":1.0,"chromatic_density":0.346},{"voice":0,"pitch":76,"start":263.8331,"duration":0.1667,"velocity":127,"measure":99,"beat":4.75,"subject_pos":-1,"motif":"enigmatic_cell","motif_pos":1,"best_pos":1,"similarity":1.0,"stretto":false,"stretto_voices":0,"combination":[],"aug_dim":"","rhythm_ratio":1.0,"chromatic_density":0.346},{"voice":1,"pitch":55,"start":263.8331,"duration":0.1667,"velocity":127,"measure":99,"beat":4.75,"subject_pos":-1,"motif":"","motif_pos":-1,"best_pos":2,"similarity":0.45,"stretto":false,"stretto_voices":0,"combination":[],"aug_dim":"","rhythm_ratio":1.0,"chromatic_density":0.346},{"voice":0,"pitch":81,"start":263.9997,"duration":0.3333,"velocity":127,"measure":100,"beat":1.0,"subject_pos":-1,"motif":"enigmatic_cell","motif_pos":2,"best_pos":2,"similarity":1.0,"stretto":false,"stretto_voices":0,"combination":[],"aug_dim":"","rhythm_ratio":1.0,"chromatic_density":0.36},{"voice":1,"pitch":53,"start":263.9997,"duration":0.1667,"velocity":127,"measure":100,"beat":1.0,"subject_pos":-1,"motif":"","motif_pos":-1,"best_pos":4,"similarity":0.464,"stretto":false,"stretto_voices":0,"combination":[],"aug_dim":"","rhythm_ratio":1.0,"chromatic_density":0.36},{"voice":1,"pitch":55,"start":264.1664,"duration":0.1667,"velocity":127,"measure":100,"beat":1.25,"subject_pos":-1,"motif":"","motif_pos":-1,"best_pos":5,"similarity":0.393,"stretto":false,"stretto_voices":0,"combination":[],"aug_dim":"","rhythm_ratio":1.0,"chromatic_density":0.36},{"voice":0,"pitch":73,"start":264.3331,"duration":0.1667,"velocity":127,"measure":100,"beat":1.5,"subject_pos":-1,"motif":"","motif_pos":-1,"best_pos":4,"similarity":0.536,"stretto":false,"stretto_voices":0,"combination":[],"aug_dim":"","rhythm_ratio":1.0,"chromatic_density":0.36},{"voice":1,"pitch":52,"start":264.3331,"duration":0.1667,"velocity":127,"measure":100,"beat":1.5,"subject_pos":-1,"motif":"","motif_pos":-1,"best_pos":4,"similarity":0.429,"stretto":false,"stretto_voices":0,"combination":[],"aug_dim":"","rhythm_ratio":1.0,"chromatic_density":0.36},{"voice":0,"pitch":74,"start":264.4997,"duration":0.1667,"velocity":127,"measure":100,"beat":1.75,"subject_pos":-1,"motif":"","motif_pos":-1,"best_pos":5,"similarity":0.714,"stretto":false,"stretto_voices":0,"combination":[],"aug_dim":"","rhythm_ratio":1.0,"chromatic_density":0.36},{"voice":1,"pitch":53,"start":264.4997,"duration":0.3333,"velocity":127,"measure":100,"beat":1.75,"subject_pos":-1,"motif":"","motif_pos":-1,"best_pos":5,"similarity":0.321,"stretto":false,"stretto_voices":0,"combination":[],"aug_dim":"","rhythm_ratio":1.0,"chromatic_density":0.36},{"voice":0,"pitch":76,"start":264.6664,"duration":0.1667,"velocity":127,"measure":100,"beat":2.0,"subject_pos":-1,"motif":"enigmatic_cell","motif_pos":0,"best_pos":0,"similarity":1.0,"stretto":false,"stretto_voices":0,"combination":[],"aug_dim":"","rhythm_ratio":1.0,"chromatic_density":0.36},{"voice":0,"pitch":77,"start":264.8331,"duration":0.1667,"velocity":127,"measure":100,"beat":2.25,"subject_pos":-1,"motif":"enigmatic_cell","motif_pos":1,"best_pos":1,"similarity":1.0,"stretto":false,"stretto_voices":0,"combination":[],"aug_dim":"","rhythm_ratio":1.0,"chromatic_density":0.36},{"voice":1,"pitch":62,"start":264.8331,"duration":0.1667,"velocity":127,"measure":100,"beat":2.25,"subject_pos":-1,"motif":"","motif_pos":-1,"best_pos":1,"similarity":0.243,"stretto":false,"stretto_voices":0,"combination":[],"aug_dim":"","rhythm_ratio":1.0,"chromatic_density":0.36},{"voice":0,"pitch":70,"start":264.9997,"duration":0.1667,"velocity":127,"measure":100,"beat":2.5,"subject_pos":-1,"motif":"enigmatic_cell","motif_pos":2,"best_pos":2,"similarity":1.0,"stretto":false,"stretto_voices":0,"combination":[],"aug_dim":"","rhythm_ratio":1.0,"chromatic_density":0.36},{"voice":1,"pitch":55,"start":264.9997,"duration":0.3333,"velocity":127,"measure":100,"beat":2.5,"subject_pos":-1,"motif":"","motif_pos":-1,"best_pos":2,"similarity":0.357,"stretto":false,"stretto_voices":0,"combination":[],"aug_dim":"","rhythm_ratio":1.0,"chromatic_density":0.36},{"voice":0,"pitch":75,"start":265.1664,"duration":0.1667,"velocity":127,"measure":100,"beat":2.75,"subject_pos":-1,"motif":"","motif_pos":-1,"best_pos":1,"similarity":0.482,"stretto":false,"stretto_voices":0,"combination":[],"aug_dim":"","rhythm_ratio":1.0,"chromatic_density":0.36},{"voice":0,"pitch":74,"start":265.3331,"duration":0.1667,"velocity":127,"measure":100,"beat":3.0,"subject_pos":-1,"motif":"","motif_pos":-1,"best_pos":3,"similarity":0.571,"stretto":false,"stretto_voices":0,"combination":[],"aug_dim":"","rhythm_ratio":1.0,"chromatic_density":0.36},{"voice":1,"pitch":53,"start":265.3331,"duration":0.1667,"velocity":127,"measure":100,"beat":3.0,"subject_pos":-1,"motif":"enigmatic_cell","motif_pos":0,"best_pos":0,"similarity":1.0,"stretto":false,"stretto_voices":0,"combination":[],"aug_dim":"","rhythm_ratio":1.0,"chromatic_density":0.36},{"voice":0,"pitch":73,"start":265.4997,"duration":0.1667,"velocity":127,"measure":100,"beat":3.25,"subject_pos":-1,"motif":"","motif_pos":-1,"best_pos":4,"similarity":0.75,"stretto":false,"stretto_voices":0,"combination":[],"aug_dim":"","rhythm_ratio":1.0,"chromatic_density":0.36},{"voice":1,"pitch":52,"start":265.4997,"duration":0.1667,"velocity":127,"measure":100,"beat":3.25,"subject_pos":-1,"motif":"enigmatic_cell","motif_pos":1,"best_pos":1,"similarity":1.0,"stretto":false,"stretto_voices":0,"combination":[],"aug_dim":"","rhythm_ratio":1.0,"chromatic_density":0.36},{"voice":0,"pitch":74,"start":265.6664,"duration":0.1667,"velocity":127,"measure":100,"beat":3.5,"subject_pos":-1,"motif":"","motif_pos":-1,"best_pos":5,"similarity":0.732,"stretto":false,"stretto_voices":0,"combination":[],"aug_dim":"","rhythm_ratio":1.0,"chromatic_density":0.36},{"voice":1,"pitch":57,"start":265.6664,"duration":0.1667,"velocity":127,"measure":100,"beat":3.5,"subject_pos":-1,"motif":"enigmatic_cell","motif_pos":2,"best_pos":2,"similarity":1.0,"stretto":false,"stretto_voices":0,"combination":[],"aug_dim":"","rhythm_ratio":1.0,"chromatic_density":0.36},{"voice":0,"pitch":76,"start":265.8331,"duration":0.1667,"velocity":127,"measure":100,"beat":3.75,"subject_pos":-1,"motif":"","motif_pos":-1,"best_pos":6,"similarity":0.5,"stretto":false,"stretto_voices":0,"combination":[],"aug_dim":"","rhythm_ratio":1.0,"chromatic_density":0.36},{"voice":1,"pitch":55,"start":265.8331,"duration":0.1667,"velocity":127,"measure":100,"beat":3.75,"subject_pos":-1,"motif":"","motif_pos":-1,"best_pos":2,"similarity":0.721,"stretto":false,"stretto_voices":0,"combination":[],"aug_dim":"","rhythm_ratio":1.0,"chromatic_density":0.36},{"voice":0,"pitch":69,"start":265.9997,"duration":0.3333,"velocity":127,"measure":100,"beat":4.0,"subject_pos":-1,"motif":"","motif_pos":-1,"best_pos":7,"similarity":0.214,"stretto":false,"stretto_voices":0,"combination":[],"aug_dim":"","rhythm_ratio":1.0,"chromatic_density":0.36},{"voice":1,"pitch":53,"start":265.9997,"duration":0.1667,"velocity":127,"measure":100,"beat":4.0,"subject_pos":-1,"motif":"","motif_pos":-1,"best_pos":3,"similarity":0.664,"stretto":false,"stretto_voices":0,"combination":[],"aug_dim":"","rhythm_ratio":1.0,"chromatic_density":0.36},{"voice":1,"pitch":52,"start":266.1664,"duration":0.1667,"velocity":127,"measure":100,"beat":4.25,"subject_pos":-1,"motif":"","motif_pos":-1,"best_pos":4,"similarity":0.543,"stretto":false,"stretto_voices":0,"combination":[],"aug_dim":"","rhythm_ratio":1.0,"chromatic_density":0.36},{"voice":1,"pitch":50,"start":266.3331,"duration":0.1667,"velocity":127,"measure":100,"beat":4.5,"subject_pos":-1,"motif":"","motif_pos":-1,"best_pos":3,"similarity":0.643,"stretto":false,"stretto_voices":0,"combination":[],"aug_dim":"","rhythm_ratio":1.0,"chromatic_density":0.36},{"voice":0,"pitch":45,"start":266.4997,"duration":0.3333,"velocity":127,"measure":100,"beat":4.75,"subject_pos":-1,"motif":"","motif_pos":-1,"best_pos":7,"similarity":0.036,"stretto":false,"stretto_voices":0,"combination":[],"aug_dim":"","rhythm_ratio":1.0,"chromatic_density":0.36},{"voice":1,"pitch":49,"start":266.4997,"duration":0.5,"velocity":127,"measure":100,"beat":4.75,"subject_pos":-1,"motif":"","motif_pos":-1,"best_pos":4,"similarity":0.679,"stretto":false,"stretto_voices":0,"combination":[],"aug_dim":"","rhythm_ratio":1.0,"chromatic_density":0.36},{"voice":0,"pitch":38,"start":266.9997,"duration":1.0,"velocity":127,"measure":101,"beat":1.5,"subject_pos":-1,"motif":"","motif_pos":-1,"best_pos":2,"similarity":0.029,"stretto":false,"stretto_voices":0,"combination":[],"aug_dim":"","rhythm_ratio":1.0,"chromatic_density":0.0},{"voice":1,"pitch":50,"start":266.9997,"duration":1.0,"velocity":127,"measure":101,"beat":1.5,"subject_pos":-1,"motif":"","motif_pos":-1,"best_pos":5,"similarity":0.464,"stretto":false,"stretto_voices":0,"combination":[],"aug_dim":"","rhythm_ratio":1.0,"chromatic_density":0.0}],"chromatic_density":[{"measure":1,"density":0.385,"chromatic_count":5,"interval_count":13},{"measure":2,"density":0.4,"chromatic_count":2,"interval_count":5},{"measure":3,"density":0.316,"chromatic_count":6,"interval_count":19},{"measure":4,"density":0.35,"chromatic_count":7,"interval_count":20},{"measure":5,"density":0.211,"chromatic_count":4,"interval_count":19},{"measure":6,"density":0.3,"chromatic_count":6,"interval_count":20},{"measure":7,"density":0.409,"chromatic_count":9,"interval_count":22},{"measure":8,"density":0.267,"chromatic_count":4,"interval_count":15},{"measure":9,"density":0.524,"chromatic_count":11,"interval_count":21},{"measure":10,"density":0.571,"chromatic_count":8,"interval_count":14},{"measure":11,"density":0.231,"chromatic_count":6,"interval_count":26},{"measure":12,"density":0.44,"chromatic_count":11,"interval_count":25},{"measure":13,"density":0.438,"chromatic_count":7,"interval_count":16},{"measure":14,"density":0.278,"chromatic_count":5,"interval_count":18},{"measure":15,"density":0.579,"chromatic_count":11,"interval_count":19},{"measure":16,"density":0.444,"chromatic_count":4,"interval_count":9},{"measure":17,"density":0.44,"chromatic_count":11,"interval_count":25},{"measure":18,"density":0.176,"chromatic_count":3,"interval_count":17},{"measure":19,"density":0.37,"chromatic_count":10,"interval_count":27},{"measure":20,"density":0.077,"chromatic_count":2,"interval_count":26},{"measure":21,"density":0.391,"chromatic_count":9,"interval_count":23},{"measure":22,"density":0.2,"chromatic_count":5,"interval_count":25},{"measure":23,"density":0.312,"chromatic_count":5,"interval_count":16},{"measure":24,"density":0.389,"chromatic_count":7,"interval_count":18},{"measure":25,"density":0.154,"chromatic_count":2,"interval_count":13},{"measure":26,"density":0.24,"chromatic_count":6,"interval_count":25},{"measure":27,"density":0.4,"chromatic_count":8,"interval_count":20},{"measure":28,"density":0.13,"chromatic_count":3,"interval_count":23},{"measure":29,"density":0.25,"chromatic_count":5,"interval_count":20},{"measure":30,"density":0.25,"chromatic_count":6,"interval_count":24},{"measure":31,"density":0.25,"chromatic_count":6,"interval_count":24},{"measure":32,"density":0.136,"chromatic_count":3,"interval_count":22},{"measure":33,"density":0.273,"chromatic_count":6,"interval_count":22},{"measure":34,"density":0.316,"chromatic_count":6,"interval_count":19},{"measure":35,"density":0.412,"chromatic_count":7,"interval_count":17},{"measure":36,"density":0.538,"chromatic_count":7,"interval_count":13},{"measure":37,"density":0.333,"chromatic_count":6,"interval_count":18},{"measure":38,"density":0.2,"chromatic_count":5,"interval_count":25},{"measure":39,"density":0.3,"chromatic_count":6,"interval_count":20},{"measure":40,"density":0.222,"chromatic_count":4,"interval_count":18},{"measure":41,"density":0.304,"chromatic_count":7,"interval_count":23},{"measure":42,"density":0.286,"chromatic_count":6,"interval_count":21},{"measure":43,"density":0.35,"chromatic_count":7,"interval_count":20},{"measure":44,"density":0.308,"chromatic_count":8,"interval_count":26},{"measure":45,"density":0.25,"chromatic_count":5,"interval_count":20},{"measure":46,"density":0.304,"chromatic_count":7,"interval_count":23},{"measure":47,"density":0.412,"chromatic_count":7,"interval_count":17},{"measure":48,"density":0.286,"chromatic_count":6,"interval_count":21},{"measure":49,"density":0.348,"chromatic_count":8,"interval_count":23},{"measure":50,"density":0.294,"chromatic_count":5,"interval_count":17},{"measure":51,"density":0.222,"chromatic_count":4,"interval_count":18},{"measure":52,"density":0.474,"chromatic_count":9,"interval_count":19},{"measure":53,"density":0.412,"chromatic_count":7,"interval_count":17},{"measure":54,"density":0.4,"chromatic_count":10,"interval_count":25},{"measure":55,"density":0.417,"chromatic_count":10,"interval_count":24},{"measure":56,"density":0.2,"chromatic_count":3,"interval_count":15},{"measure":57,"density":0.364,"chromatic_count":8,"interval_count":22},{"measure":58,"density":0.615,"chromatic_count":8,"interval_count":13},{"measure":59,"density":0.462,"chromatic_count":6,"interval_count":13},{"measure":60,"density":0.435,"chromatic_count":10,"interval_count":23},{"measure":61,"density":0.364,"chromatic_count":8,"interval_count":22},{"measure":62,"density":0.346,"chromatic_count":9,"interval_count":26},{"measure":63,"density":0.111,"chromatic_count":3,"interval_count":27},{"measure":64,"density":0.381,"chromatic_count":8,"interval_count":21},{"measure":65,"density":0.042,"chromatic_count":1,"interval_count":24},{"measure":66,"density":0.294,"chromatic_count":5,"interval_count":17},{"measure":67,"density":0.368,"chromatic_count":7,"interval_count":19},{"measure":68,"density":0.214,"chromatic_count":3,"interval_count":14},{"measure":69,"density":0.304,"chromatic_count":7,"interval_count":23},{"measure":70,"density":0.348,"chromatic_count":8,"interval_count":23},{"measure":71,"density":0.136,"chromatic_count":3,"interval_count":22},{"measure":72,"density":0.316,"chromatic_count":6,"interval_count":19},{"measure":73,"density":0.231,"chromatic_count":6,"interval_count":26},{"measure":74,"density":0.238,"chromatic_count":5,"interval_count":21},{"measure":75,"density":0.261,"chromatic_count":6,"interval_count":23},{"measure":76,"density":0.318,"chromatic_count":7,"interval_count":22},{"measure":77,"density":0.176,"chromatic_count":3,"interval_count":17},{"measure":78,"density":0.4,"chromatic_count":8,"interval_count":20},{"measure":79,"density":0.5,"chromatic_count":5,"interval_count":10},{"measure":80,"density":0.3,"chromatic_count":6,"interval_count":20},{"measure":81,"density":0.208,"chromatic_count":5,"interval_count":24},{"measure":82,"density":0.263,"chromatic_count":5,"interval_count":19},{"measure":83,"density":0.211,"chromatic_count":4,"interval_count":19},{"measure":84,"density":0.318,"chromatic_count":7,"interval_count":22},{"measure":85,"density":0.261,"chromatic_count":6,"interval_count":23},{"measure":86,"density":0.381,"chromatic_count":8,"interval_count":21},{"measure":87,"density":0.333,"chromatic_count":8,"interval_count":24},{"measure":88,"density":0.25,"chromatic_count":5,"interval_count":20},{"measure":89,"density":0.304,"chromatic_count":7,"interval_count":23},{"measure":90,"density":0.421,"chromatic_count":8,"interval_count":19},{"measure":91,"density":0.25,"chromatic_count":5,"interval_count":20},{"measure":92,"density":0.409,"chromatic_count":9,"interval_count":22},{"measure":93,"density":0.5,"chromatic_count":8,"interval_count":16},{"measure":94,"density":0.286,"chromatic_count":6,"interval_count":21},{"measure":95,"density":0.529,"chromatic_count":9,"interval_count":17},{"measure":96,"density":0.333,"chromatic_count":7,"interval_count":21},{"measure":97,"density":0.375,"chromatic_count":9,"interval_count":24},{"measure":98,"density":0.455,"chromatic_count":10,"interval_count":22},{"measure":99,"density":0.346,"chromatic_count":9,"interval_count":26},{"measure":100,"density":0.36,"chromatic_count":9,"interval_count":25},{"measure":101,"density":0.0,"chromatic_count":0,"interval_count":0}]}