{"metadata":{"title":"The Art of the Fugue, Contrapunctus V","number":"V","composer":"J.S. Bach","source_midi":"kunst_der_fuge_v_mutopia.mid","tempo_bpm":120.0,"tempo_us_per_beat":500000,"ticks_per_beat":384,"time_signature":"4/4","key_signature":"D minor","total_duration_seconds":182.0,"total_measures":90,"beats_per_measure":4},"voices":[{"id":0,"name":"Soprano","midi_channel":0,"midi_track":1,"color":"#E85D4A","pitch_min":59,"pitch_max":84,"note_count":319},{"id":1,"name":"Alto","midi_channel":1,"midi_track":2,"color":"#4A90D9","pitch_min":56,"pitch_max":81,"note_count":318},{"id":2,"name":"Tenor","midi_channel":2,"midi_track":3,"color":"#27AE60","pitch_min":48,"pitch_max":70,"note_count":283},{"id":3,"name":"Bass","midi_channel":3,"midi_track":4,"color":"#8E44AD","pitch_min":38,"pitch_max":67,"note_count":326}],"notes":[{"voice":1,"pitch":69,"start":0.0,"duration":1.0,"velocity":127,"measure":1,"beat":1.0,"subject_pos":0,"motif":"subject_inv","motif_pos":0,"best_pos":0,"similarity":1.0,"stretto":false,"stretto_voices":0,"combination":[],"aug_dim":"","rhythm_ratio":1.0,"mirror":false,"chromatic_density":0.0,"complexity":0.449,"dissonance":0},{"voice":1,"pitch":62,"start":1.0,"duration":0.75,"velocity":127,"measure":1,"beat":3.0,"subject_pos":1,"motif":"subject_inv","motif_pos":1,"best_pos":1,"similarity":1.0,"stretto":false,"stretto_voices":0,"combination":[],"aug_dim":"","rhythm_ratio":1.0,"mirror":false,"chromatic_density":0.0,"complexity":0.449,"dissonance":0},{"voice":1,"pitch":64,"start":1.75,"duration":0.25,"velocity":127,"measure":1,"beat":4.5,"subject_pos":2,"motif":"subject_inv","motif_pos":2,"best_pos":2,"similarity":1.0,"stretto":false,"stretto_voices":0,"combination":[],"aug_dim":"","rhythm_ratio":1.0,"mirror":false,"chromatic_density":0.0,"complexity":0.449,"dissonance":0},{"voice":1,"pitch":65,"start":2.0,"duration":0.75,"velocity":127,"measure":2,"beat":1.0,"subject_pos":3,"motif":"subject_inv","motif_pos":3,"best_pos":3,"similarity":1.0,"stretto":false,"stretto_voices":0,"combination":[],"aug_dim":"","rhythm_ratio":1.0,"mirror":false,"chromatic_density":0.0,"complexity":0.428,"dissonance":0},{"voice":1,"pitch":67,"start":2.75,"duration":0.25,"velocity":127,"measure":2,"beat":2.5,"subject_pos":4,"motif":"subject_inv","motif_pos":4,"best_pos":4,"similarity":1.0,"stretto":false,"stretto_voices":0,"combination":[],"aug_dim":"","rhythm_ratio":1.0,"mirror":false,"chromatic_density":0.0,"complexity":0.428,"dissonance":0},{"voice":1,"pitch":69,"start":3.0,"duration":1.0,"velocity":127,"measure":2,"beat":3.0,"subject_pos":5,"motif":"subject_inv","motif_pos":5,"best_pos":5,"similarity":1.0,"stretto":false,"stretto_voices":0,"combination":[],"aug_dim":"","rhythm_ratio":1.0,"mirror":false,"chromatic_density":0.0,"complexity":0.428,"dissonance":0},{"voice":1,"pitch":70,"start":4.0,"duration":1.0,"velocity":127,"measure":3,"beat":1.0,"subject_pos":6,"motif":"subject_inv","motif_pos":6,"best_pos":6,"similarity":1.0,"stretto":false,"stretto_voices":0,"combination":[],"aug_dim":"","rhythm_ratio":1.0,"mirror":false,"chromatic_density":0.5,"complexity":0.449,"dissonance":0},{"voice":1,"pitch":69,"start":5.0,"duration":0.75,"velocity":127,"measure":3,"beat":3.0,"subject_pos":7,"motif":"subject_inv","motif_pos":7,"best_pos":7,"similarity":1.0,"stretto":false,"stretto_voices":0,"combination":[],"aug_dim":"","rhythm_ratio":1.0,"mirror":false,"chromatic_density":0.5,"complexity":0.449,"dissonance":0},{"voice":1,"pitch":67,"start":5.75,"duration":0.25,"velocity":127,"measure":3,"beat":4.5,"subject_pos":8,"motif":"subject_inv","motif_pos":8,"best_pos":0,"similarity":1.0,"stretto":false,"stretto_voices":0,"combination":[],"aug_dim":"","rhythm_ratio":1.0,"mirror":false,"chromatic_density":0.5,"complexity":0.449,"dissonance":0},{"voice":1,"pitch":65,"start":6.0,"duration":1.25,"velocity":127,"measure":4,"beat":1.0,"subject_pos":-1,"motif":"","motif_pos":-1,"best_pos":3,"similarity":0.786,"stretto":false,"stretto_voices":0,"combination":[],"aug_dim":"","rhythm_ratio":1.0,"mirror":false,"chromatic_density":0.4,"complexity":0.44,"dissonance":0.0},{"voice":3,"pitch":50,"start":6.0,"duration":1.0,"velocity":127,"measure":4,"beat":1.0,"subject_pos":0,"motif":"subject","motif_pos":0,"best_pos":0,"similarity":1.0,"stretto":false,"stretto_voices":0,"combination":[],"aug_dim":"","rhythm_ratio":1.0,"mirror":false,"chromatic_density":0.4,"complexity":0.44,"dissonance":0.0},{"voice":3,"pitch":57,"start":7.0,"duration":0.75,"velocity":127,"measure":4,"beat":3.0,"subject_pos":1,"motif":"subject","motif_pos":1,"best_pos":1,"similarity":1.0,"stretto":false,"stretto_voices":0,"combination":[],"aug_dim":"","rhythm_ratio":1.0,"mirror":false,"chromatic_density":0.4,"complexity":0.44,"dissonance":0.0},{"voice":1,"pitch":64,"start":7.25,"duration":0.25,"velocity":127,"measure":4,"beat":3.5,"subject_pos":-1,"motif":"","motif_pos":-1,"best_pos":4,"similarity":0.893,"stretto":false,"stretto_voices":0,"combination":[],"aug_dim":"","rhythm_ratio":1.0,"mirror":false,"chromatic_density":0.4,"complexity":0.44,"dissonance":0.0},{"voice":1,"pitch":65,"start":7.5,"duration":0.25,"velocity":127,"measure":4,"beat":4.0,"subject_pos":-1,"motif":"","motif_pos":-1,"best_pos":5,"similarity":0.821,"stretto":false,"stretto_voices":0,"combination":[],"aug_dim":"","rhythm_ratio":1.0,"mirror":false,"chromatic_density":0.4,"complexity":0.44,"dissonance":0.0},{"voice":1,"pitch":67,"start":7.75,"duration":0.25,"velocity":127,"measure":4,"beat":4.5,"subject_pos":-1,"motif":"","motif_pos":-1,"best_pos":6,"similarity":0.643,"stretto":false,"stretto_voices":0,"combination":[],"aug_dim":"","rhythm_ratio":1.0,"mirror":false,"chromatic_density":0.4,"complexity":0.44,"dissonance":0.0},{"voice":3,"pitch":55,"start":7.75,"duration":0.25,"velocity":127,"measure":4,"beat":4.5,"subject_pos":2,"motif":"subject","motif_pos":2,"best_pos":2,"similarity":1.0,"stretto":false,"stretto_voices":0,"combination":[],"aug_dim":"","rhythm_ratio":1.0,"mirror":false,"chromatic_density":0.4,"complexity":0.44,"dissonance":0.0},{"voice":1,"pitch":69,"start":8.0,"duration":0.25,"velocity":127,"measure":5,"beat":1.0,"subject_pos":-1,"motif":"","motif_pos":-1,"best_pos":6,"similarity":0.661,"stretto":false,"stretto_voices":0,"combination":[],"aug_dim":"","rhythm_ratio":1.0,"mirror":false,"chromatic_density":0.571,"complexity":0.438,"dissonance":0.062},{"voice":3,"pitch":53,"start":8.0,"duration":0.75,"velocity":127,"measure":5,"beat":1.0,"subject_pos":3,"motif":"subject","motif_pos":3,"best_pos":3,"similarity":1.0,"stretto":false,"stretto_voices":0,"combination":[],"aug_dim":"","rhythm_ratio":1.0,"mirror":false,"chromatic_density":0.571,"complexity":0.438,"dissonance":0.062},{"voice":1,"pitch":70,"start":8.25,"duration":0.25,"velocity":127,"measure":5,"beat":1.5,"subject_pos":-1,"motif":"","motif_pos":-1,"best_pos":5,"similarity":0.6,"stretto":false,"stretto_voices":0,"combination":[],"aug_dim":"","rhythm_ratio":1.0,"mirror":false,"chromatic_density":0.571,"complexity":0.438,"dissonance":0.062},{"voice":1,"pitch":72,"start":8.5,"duration":0.75,"velocity":127,"measure":5,"beat":2.0,"subject_pos":-1,"motif":"","motif_pos":-1,"best_pos":6,"similarity":0.464,"stretto":false,"stretto_voices":0,"combination":[],"aug_dim":"","rhythm_ratio":1.0,"mirror":false,"chromatic_density":0.571,"complexity":0.438,"dissonance":0.062},{"voice":3,"pitch":52,"start":8.75,"duration":0.25,"velocity":127,"measure":5,"beat":2.5,"subject_pos":4,"motif":"subject","motif_pos":4,"best_pos":4,"similarity":1.0,"stretto":false,"stretto_voices":0,"combination":[],"aug_dim":"","rhythm_ratio":1.0,"mirror":false,"chromatic_density":0.571,"complexity":0.438,"dissonance":0.062},{"voice":3,"pitch":50,"start":9.0,"duration":1.0,"velocity":127,"measure":5,"beat":3.0,"subject_pos":5,"motif":"subject","motif_pos":5,"best_pos":5,"similarity":1.0,"stretto":false,"stretto_voices":0,"combination":[],"aug_dim":"","rhythm_ratio":1.0,"mirror":false,"chromatic_density":0.571,"complexity":0.438,"dissonance":0.062},{"voice":1,"pitch":70,"start":9.25,"duration":0.25,"velocity":127,"measure":5,"beat":3.5,"subject_pos":-1,"motif":"","motif_pos":-1,"best_pos":3,"similarity":0.593,"stretto":false,"stretto_voices":0,"combination":[],"aug_dim":"","rhythm_ratio":1.0,"mirror":false,"chromatic_density":0.571,"complexity":0.438,"dissonance":0.062},{"voice":1,"pitch":69,"start":9.5,"duration":0.25,"velocity":127,"measure":5,"beat":4.0,"subject_pos":-1,"motif":"enigmatic_cell","motif_pos":0,"best_pos":0,"similarity":1.0,"stretto":false,"stretto_voices":0,"combination":[],"aug_dim":"","rhythm_ratio":1.0,"mirror":false,"chromatic_density":0.571,"complexity":0.438,"dissonance":0.062},{"voice":1,"pitch":70,"start":9.75,"duration":0.25,"velocity":127,"measure":5,"beat":4.5,"subject_pos":-1,"motif":"enigmatic_cell","motif_pos":1,"best_pos":1,"similarity":1.0,"stretto":false,"stretto_voices":0,"combination":[],"aug_dim":"","rhythm_ratio":1.0,"mirror":false,"chromatic_density":0.571,"complexity":0.438,"dissonance":0.062},{"voice":1,"pitch":64,"start":10.0,"duration":0.25,"velocity":127,"measure":6,"beat":1.0,"subject_pos":-1,"motif":"enigmatic_cell","motif_pos":2,"best_pos":2,"similarity":1.0,"stretto":false,"stretto_voices":0,"combination":[],"aug_dim":"","rhythm_ratio":1.0,"mirror":false,"chromatic_density":0.286,"complexity":0.432,"dissonance":0.114},{"voice":3,"pitch":49,"start":10.0,"duration":1.0,"velocity":127,"measure":6,"beat":1.0,"subject_pos":6,"motif":"subject","motif_pos":6,"best_pos":6,"similarity":1.0,"stretto":false,"stretto_voices":0,"combination":[],"aug_dim":"","rhythm_ratio":1.0,"mirror":false,"chromatic_density":0.286,"complexity":0.432,"dissonance":0.114},{"voice":1,"pitch":65,"start":10.25,"duration":0.25,"velocity":127,"measure":6,"beat":1.5,"subject_pos":-1,"motif":"","motif_pos":-1,"best_pos":5,"similarity":0.65,"stretto":false,"stretto_voices":0,"combination":[],"aug_dim":"","rhythm_ratio":1.0,"mirror":false,"chromatic_density":0.286,"complexity":0.432,"dissonance":0.114},{"voice":1,"pitch":67,"start":10.5,"duration":0.75,"velocity":127,"measure":6,"beat":2.0,"subject_pos":-1,"motif":"","motif_pos":-1,"best_pos":6,"similarity":0.571,"stretto":false,"stretto_voices":0,"combination":[],"aug_dim":"","rhythm_ratio":1.0,"mirror":false,"chromatic_density":0.286,"complexity":0.432,"dissonance":0.114},{"voice":3,"pitch":50,"start":11.0,"duration":0.75,"velocity":127,"measure":6,"beat":3.0,"subject_pos":7,"motif":"subject","motif_pos":7,"best_pos":7,"similarity":1.0,"stretto":false,"stretto_voices":0,"combination":[],"aug_dim":"","rhythm_ratio":1.0,"mirror":false,"chromatic_density":0.286,"complexity":0.432,"dissonance":0.114},{"voice":1,"pitch":69,"start":11.25,"duration":0.25,"velocity":127,"measure":6,"beat":3.5,"subject_pos":-1,"motif":"","motif_pos":-1,"best_pos":6,"similarity":0.375,"stretto":false,"stretto_voices":0,"combination":[],"aug_dim":"","rhythm_ratio":1.0,"mirror":false,"chromatic_density":0.286,"complexity":0.432,"dissonance":0.114},{"voice":1,"pitch":65,"start":11.5,"duration":0.25,"velocity":127,"measure":6,"beat":4.0,"subject_pos":-1,"motif":"","motif_pos":-1,"best_pos":5,"similarity":0.371,"stretto":false,"stretto_voices":0,"combination":[],"aug_dim":"","rhythm_ratio":1.0,"mirror":false,"chromatic_density":0.286,"complexity":0.432,"dissonance":0.114},{"voice":1,"pitch":67,"start":11.75,"duration":0.25,"velocity":127,"measure":6,"beat":4.5,"subject_pos":-1,"motif":"","motif_pos":-1,"best_pos":5,"similarity":0.457,"stretto":false,"stretto_voices":0,"combination":[],"aug_dim":"","rhythm_ratio":1.0,"mirror":false,"chromatic_density":0.286,"complexity":0.432,"dissonance":0.114},{"voice":3,"pitch":52,"start":11.75,"duration":0.25,"velocity":127,"measure":6,"beat":4.5,"subject_pos":8,"motif":"subject","motif_pos":8,"best_pos":0,"similarity":1.0,"stretto":false,"stretto_voices":0,"combination":[],"aug_dim":"","rhythm_ratio":1.0,"mirror":false,"chromatic_density":0.286,"complexity":0.432,"dissonance":0.114},{"voice":0,"pitch":74,"start":12.0,"duration":1.0,"velocity":127,"measure":7,"beat":1.0,"subject_pos":0,"motif":"subject","motif_pos":0,"best_pos":0,"similarity":1.0,"stretto":false,"stretto_voices":0,"combination":[],"aug_dim":"","rhythm_ratio":1.0,"mirror":false,"chromatic_density":0.182,"complexity":0.539,"dissonance":0.158},{"voice":1,"pitch":69,"start":12.0,"duration":0.25,"velocity":127,"measure":7,"beat":1.0,"subject_pos":-1,"motif":"","motif_pos":-1,"best_pos":1,"similarity":0.457,"stretto":false,"stretto_voices":0,"combination":[],"aug_dim":"","rhythm_ratio":1.0,"mirror":false,"chromatic_density":0.182,"complexity":0.539,"dissonance":0.158},{"voice":3,"pitch":53,"start":12.0,"duration":1.25,"velocity":127,"measure":7,"beat":1.0,"subject_pos":-1,"motif":"","motif_pos":-1,"best_pos":5,"similarity":0.607,"stretto":false,"stretto_voices":0,"combination":[],"aug_dim":"","rhythm_ratio":1.0,"mirror":false,"chromatic_density":0.182,"complexity":0.539,"dissonance":0.158},{"voice":1,"pitch":67,"start":12.25,"duration":0.25,"velocity":127,"measure":7,"beat":1.5,"subject_pos":-1,"motif":"","motif_pos":-1,"best_pos":2,"similarity":0.593,"stretto":false,"stretto_voices":0,"combination":[],"aug_dim":"","rhythm_ratio":1.0,"mirror":false,"chromatic_density":0.182,"complexity":0.539,"dissonance":0.158},{"voice":1,"pitch":65,"start":12.5,"duration":0.25,"velocity":127,"measure":7,"beat":2.0,"subject_pos":-1,"motif":"","motif_pos":-1,"best_pos":3,"similarity":0.593,"stretto":false,"stretto_voices":0,"combination":[],"aug_dim":"","rhythm_ratio":1.0,"mirror":false,"chromatic_density":0.182,"complexity":0.539,"dissonance":0.158},{"voice":1,"pitch":64,"start":12.75,"duration":0.25,"velocity":127,"measure":7,"beat":2.5,"subject_pos":-1,"motif":"","motif_pos":-1,"best_pos":4,"similarity":0.493,"stretto":false,"stretto_voices":0,"combination":[],"aug_dim":"","rhythm_ratio":1.0,"mirror":false,"chromatic_density":0.182,"complexity":0.539,"dissonance":0.158},{"voice":0,"pitch":81,"start":13.0,"duration":0.75,"velocity":127,"measure":7,"beat":3.0,"subject_pos":1,"motif":"subject","motif_pos":1,"best_pos":1,"similarity":1.0,"stretto":false,"stretto_voices":0,"combination":[],"aug_dim":"","rhythm_ratio":1.0,"mirror":false,"chromatic_density":0.182,"complexity":0.539,"dissonance":0.158},{"voice":1,"pitch":62,"start":13.0,"duration":0.25,"velocity":127,"measure":7,"beat":3.0,"subject_pos":-1,"motif":"","motif_pos":-1,"best_pos":2,"similarity":0.657,"stretto":false,"stretto_voices":0,"combination":[],"aug_dim":"","rhythm_ratio":1.0,"mirror":false,"chromatic_density":0.182,"complexity":0.539,"dissonance":0.158},{"voice":1,"pitch":59,"start":13.25,"duration":0.25,"velocity":127,"measure":7,"beat":3.5,"subject_pos":-1,"motif":"","motif_pos":-1,"best_pos":3,"similarity":0.671,"stretto":false,"stretto_voices":0,"combination":[],"aug_dim":"","rhythm_ratio":1.0,"mirror":false,"chromatic_density":0.182,"complexity":0.539,"dissonance":0.158},{"voice":3,"pitch":55,"start":13.25,"duration":0.25,"velocity":127,"measure":7,"beat":3.5,"subject_pos":-1,"motif":"","motif_pos":-1,"best_pos":6,"similarity":0.464,"stretto":false,"stretto_voices":0,"combination":[],"aug_dim":"","rhythm_ratio":1.0,"mirror":false,"chromatic_density":0.182,"complexity":0.539,"dissonance":0.158},{"voice":1,"pitch":61,"start":13.5,"duration":0.5,"velocity":127,"measure":7,"beat":4.0,"subject_pos":-1,"motif":"","motif_pos":-1,"best_pos":4,"similarity":0.743,"stretto":false,"stretto_voices":0,"combination":[],"aug_dim":"","rhythm_ratio":1.0,"mirror":false,"chromatic_density":0.182,"complexity":0.539,"dissonance":0.158},{"voice":3,"pitch":53,"start":13.5,"duration":0.25,"velocity":127,"measure":7,"beat":4.0,"subject_pos":-1,"motif":"","motif_pos":-1,"best_pos":3,"similarity":0.5,"stretto":false,"stretto_voices":0,"combination":[],"aug_dim":"","rhythm_ratio":1.0,"mirror":false,"chromatic_density":0.182,"complexity":0.539,"dissonance":0.158},{"voice":0,"pitch":79,"start":13.75,"duration":0.25,"velocity":127,"measure":7,"beat":4.5,"subject_pos":2,"motif":"subject","motif_pos":2,"best_pos":2,"similarity":1.0,"stretto":false,"stretto_voices":0,"combination":[],"aug_dim":"","rhythm_ratio":1.0,"mirror":false,"chromatic_density":0.182,"complexity":0.539,"dissonance":0.158},{"voice":3,"pitch":52,"start":13.75,"duration":0.25,"velocity":127,"measure":7,"beat":4.5,"subject_pos":-1,"motif":"","motif_pos":-1,"best_pos":4,"similarity":0.5,"stretto":false,"stretto_voices":0,"combination":[],"aug_dim":"","rhythm_ratio":1.0,"mirror":false,"chromatic_density":0.182,"complexity":0.539,"dissonance":0.158},{"voice":0,"pitch":77,"start":14.0,"duration":0.75,"velocity":127,"measure":8,"beat":1.0,"subject_pos":3,"motif":"subject","motif_pos":3,"best_pos":3,"similarity":1.0,"stretto":false,"stretto_voices":0,"combination":[],"aug_dim":"","rhythm_ratio":1.0,"mirror":false,"chromatic_density":0.333,"complexity":0.489,"dissonance":0.096},{"voice":1,"pitch":62,"start":14.0,"duration":1.25,"velocity":127,"measure":8,"beat":1.0,"subject_pos":-1,"motif":"","motif_pos":-1,"best_pos":5,"similarity":0.8,"stretto":false,"stretto_voices":0,"combination":[],"aug_dim":"","rhythm_ratio":1.0,"mirror":false,"chromatic_density":0.333,"complexity":0.489,"dissonance":0.096},{"voice":3,"pitch":50,"start":14.0,"duration":0.25,"velocity":127,"measure":8,"beat":1.0,"subject_pos":-1,"motif":"","motif_pos":-1,"best_pos":4,"similarity":0.5,"stretto":false,"stretto_voices":0,"combination":[],"aug_dim":"","rhythm_ratio":1.0,"mirror":false,"chromatic_density":0.333,"complexity":0.489,"dissonance":0.096},{"voice":3,"pitch":53,"start":14.25,"duration":0.25,"velocity":127,"measure":8,"beat":1.5,"subject_pos":-1,"motif":"","motif_pos":-1,"best_pos":5,"similarity":0.518,"stretto":false,"stretto_voices":0,"combination":[],"aug_dim":"","rhythm_ratio":1.0,"mirror":false,"chromatic_density":0.333,"complexity":0.489,"dissonance":0.096},{"voice":3,"pitch":55,"start":14.5,"duration":0.25,"velocity":127,"measure":8,"beat":2.0,"subject_pos":-1,"motif":"","motif_pos":-1,"best_pos":5,"similarity":0.621,"stretto":false,"stretto_voices":0,"combination":[],"aug_dim":"","rhythm_ratio":1.0,"mirror":false,"chromatic_density":0.333,"complexity":0.489,"dissonance":0.096},{"voice":0,"pitch":76,"start":14.75,"duration":0.25,"velocity":127,"measure":8,"beat":2.5,"subject_pos":4,"motif":"subject","motif_pos":4,"best_pos":4,"similarity":1.0,"stretto":false,"stretto_voices":0,"combination":[],"aug_dim":"","rhythm_ratio":1.0,"mirror":false,"chromatic_density":0.333,"complexity":0.489,"dissonance":0.096},{"voice":3,"pitch":57,"start":14.75,"duration":0.25,"velocity":127,"measure":8,"beat":2.5,"subject_pos":-1,"motif":"","motif_pos":-1,"best_pos":6,"similarity":0.65,"stretto":false,"stretto_voices":0,"combination":[],"aug_dim":"","rhythm_ratio":1.0,"mirror":false,"chromatic_density":0.333,"complexity":0.489,"dissonance":0.096},{"voice":0,"pitch":74,"start":15.0,"duration":1.0,"velocity":127,"measure":8,"beat":3.0,"subject_pos":5,"motif":"subject","motif_pos":5,"best_pos":5,"similarity":1.0,"stretto":false,"stretto_voices":0,"combination":[],"aug_dim":"","rhythm_ratio":1.0,"mirror":false,"chromatic_density":0.333,"complexity":0.489,"dissonance":0.096},{"voice":3,"pitch":58,"start":15.0,"duration":1.0,"velocity":127,"measure":8,"beat":3.0,"subject_pos":-1,"motif":"","motif_pos":-1,"best_pos":7,"similarity":0.464,"stretto":false,"stretto_voices":0,"combination":[],"aug_dim":"","rhythm_ratio":1.0,"mirror":false,"chromatic_density":0.333,"complexity":0.489,"dissonance":0.096},{"voice":1,"pitch":64,"start":15.25,"duration":0.25,"velocity":127,"measure":8,"beat":3.5,"subject_pos":-1,"motif":"","motif_pos":-1,"best_pos":6,"similarity":0.721,"stretto":false,"stretto_voices":0,"combination":[],"aug_dim":"","rhythm_ratio":1.0,"mirror":false,"chromatic_density":0.333,"complexity":0.489,"dissonance":0.096},{"voice":1,"pitch":65,"start":15.5,"duration":0.25,"velocity":127,"measure":8,"beat":4.0,"subject_pos":-1,"motif":"","motif_pos":-1,"best_pos":5,"similarity":0.664,"stretto":false,"stretto_voices":0,"combination":[],"aug_dim":"","rhythm_ratio":1.0,"mirror":false,"chromatic_density":0.333,"complexity":0.489,"dissonance":0.096},{"voice":1,"pitch":67,"start":15.75,"duration":0.25,"velocity":127,"measure":8,"beat":4.5,"subject_pos":-1,"motif":"","motif_pos":-1,"best_pos":6,"similarity":0.579,"stretto":false,"stretto_voices":0,"combination":[],"aug_dim":"","rhythm_ratio":1.0,"mirror":false,"chromatic_density":0.333,"complexity":0.489,"dissonance":0.096},{"voice":0,"pitch":73,"start":16.0,"duration":1.0,"velocity":127,"measure":9,"beat":1.0,"subject_pos":6,"motif":"subject","motif_pos":6,"best_pos":6,"similarity":1.0,"stretto":false,"stretto_voices":0,"combination":[],"aug_dim":"","rhythm_ratio":1.0,"mirror":false,"chromatic_density":0.111,"complexity":0.532,"dissonance":0.054},{"voice":1,"pitch":69,"start":16.0,"duration":0.25,"velocity":127,"measure":9,"beat":1.0,"subject_pos":-1,"motif":"","motif_pos":-1,"best_pos":6,"similarity":0.375,"stretto":false,"stretto_voices":0,"combination":[],"aug_dim":"","rhythm_ratio":1.0,"mirror":false,"chromatic_density":0.111,"complexity":0.532,"dissonance":0.054},{"voice":3,"pitch":57,"start":16.0,"duration":0.75,"velocity":127,"measure":9,"beat":1.0,"subject_pos":-1,"motif":"","motif_pos":-1,"best_pos":4,"similarity":0.486,"stretto":false,"stretto_voices":0,"combination":[],"aug_dim":"","rhythm_ratio":1.0,"mirror":false,"chromatic_density":0.111,"complexity":0.532,"dissonance":0.054},{"voice":1,"pitch":64,"start":16.25,"duration":0.25,"velocity":127,"measure":9,"beat":1.5,"subject_pos":-1,"motif":"","motif_pos":-1,"best_pos":0,"similarity":0.3,"stretto":false,"stretto_voices":0,"combination":[],"aug_dim":"","rhythm_ratio":1.0,"mirror":false,"chromatic_density":0.111,"complexity":0.532,"dissonance":0.054},{"voice":1,"pitch":69,"start":16.5,"duration":0.75,"velocity":127,"measure":9,"beat":2.0,"subject_pos":-1,"motif":"","motif_pos":-1,"best_pos":1,"similarity":0.35,"stretto":false,"stretto_voices":0,"combination":[],"aug_dim":"","rhythm_ratio":1.0,"mirror":false,"chromatic_density":0.111,"complexity":0.532,"dissonance":0.054},{"voice":3,"pitch":45,"start":16.75,"duration":0.25,"velocity":127,"measure":9,"beat":2.5,"subject_pos":-1,"motif":"","motif_pos":-1,"best_pos":5,"similarity":0.507,"stretto":false,"stretto_voices":0,"combination":[],"aug_dim":"","rhythm_ratio":1.0,"mirror":false,"chromatic_density":0.111,"complexity":0.532,"dissonance":0.054},{"voice":0,"pitch":74,"start":17.0,"duration":0.75,"velocity":127,"measure":9,"beat":3.0,"subject_pos":7,"motif":"subject","motif_pos":7,"best_pos":7,"similarity":1.0,"stretto":false,"stretto_voices":0,"combination":[],"aug_dim":"","rhythm_ratio":1.0,"mirror":false,"chromatic_density":0.111,"complexity":0.532,"dissonance":0.054},{"voice":3,"pitch":47,"start":17.0,"duration":0.75,"velocity":127,"measure":9,"beat":3.0,"subject_pos":-1,"motif":"","motif_pos":-1,"best_pos":5,"similarity":0.589,"stretto":false,"stretto_voices":0,"combination":[],"aug_dim":"","rhythm_ratio":1.0,"mirror":false,"chromatic_density":0.111,"complexity":0.532,"dissonance":0.054},{"voice":1,"pitch":62,"start":17.25,"duration":0.25,"velocity":127,"measure":9,"beat":3.5,"subject_pos":-1,"motif":"","motif_pos":-1,"best_pos":0,"similarity":0.429,"stretto":false,"stretto_voices":0,"combination":[],"aug_dim":"","rhythm_ratio":1.0,"mirror":false,"chromatic_density":0.111,"complexity":0.532,"dissonance":0.054},{"voice":1,"pitch":67,"start":17.5,"duration":0.5,"velocity":127,"measure":9,"beat":4.0,"subject_pos":-1,"motif":"","motif_pos":-1,"best_pos":1,"similarity":0.579,"stretto":false,"stretto_voices":0,"combination":[],"aug_dim":"","rhythm_ratio":1.0,"mirror":false,"chromatic_density":0.111,"complexity":0.532,"dissonance":0.054},{"voice":0,"pitch":76,"start":17.75,"duration":0.25,"velocity":127,"measure":9,"beat":4.5,"subject_pos":8,"motif":"subject","motif_pos":8,"best_pos":0,"similarity":1.0,"stretto":false,"stretto_voices":0,"combination":[],"aug_dim":"","rhythm_ratio":1.0,"mirror":false,"chromatic_density":0.111,"complexity":0.532,"dissonance":0.054},{"voice":3,"pitch":49,"start":17.75,"duration":0.25,"velocity":127,"measure":9,"beat":4.5,"subject_pos":-1,"motif":"","motif_pos":-1,"best_pos":6,"similarity":0.643,"stretto":false,"stretto_voices":0,"combination":[],"aug_dim":"","rhythm_ratio":1.0,"mirror":false,"chromatic_density":0.111,"complexity":0.532,"dissonance":0.054},{"voice":0,"pitch":77,"start":18.0,"duration":1.25,"velocity":127,"measure":10,"beat":1.0,"subject_pos":-1,"motif":"","motif_pos":-1,"best_pos":7,"similarity":0.5,"stretto":false,"stretto_voices":0,"combination":[],"aug_dim":"","rhythm_ratio":1.0,"mirror":false,"chromatic_density":0.143,"complexity":0.678,"dissonance":0.096},{"voice":1,"pitch":65,"start":18.0,"duration":0.25,"velocity":127,"measure":10,"beat":1.0,"subject_pos":-1,"motif":"","motif_pos":-1,"best_pos":2,"similarity":0.479,"stretto":false,"stretto_voices":0,"combination":[],"aug_dim":"","rhythm_ratio":1.0,"mirror":false,"chromatic_density":0.143,"complexity":0.678,"dissonance":0.096},{"voice":2,"pitch":62,"start":18.0,"duration":1.0,"velocity":127,"measure":10,"beat":1.0,"subject_pos":0,"motif":"subject_inv","motif_pos":0,"best_pos":0,"similarity":1.0,"stretto":false,"stretto_voices":0,"combination":[],"aug_dim":"","rhythm_ratio":1.0,"mirror":false,"chromatic_density":0.143,"complexity":0.678,"dissonance":0.096},{"voice":3,"pitch":50,"start":18.0,"duration":0.75,"velocity":127,"measure":10,"beat":1.0,"subject_pos":-1,"motif":"","motif_pos":-1,"best_pos":5,"similarity":0.729,"stretto":false,"stretto_voices":0,"combination":[],"aug_dim":"","rhythm_ratio":1.0,"mirror":false,"chromatic_density":0.143,"complexity":0.678,"dissonance":0.096},{"voice":1,"pitch":69,"start":18.25,"duration":0.25,"velocity":127,"measure":10,"beat":1.5,"subject_pos":-1,"motif":"","motif_pos":-1,"best_pos":5,"similarity":0.457,"stretto":false,"stretto_voices":0,"combination":[],"aug_dim":"","rhythm_ratio":1.0,"mirror":false,"chromatic_density":0.143,"complexity":0.678,"dissonance":0.096},{"voice":1,"pitch":71,"start":18.5,"duration":0.25,"velocity":127,"measure":10,"beat":2.0,"subject_pos":-1,"motif":"","motif_pos":-1,"best_pos":5,"similarity":0.607,"stretto":false,"stretto_voices":0,"combination":[],"aug_dim":"","rhythm_ratio":1.0,"mirror":false,"chromatic_density":0.143,"complexity":0.678,"dissonance":0.096},{"voice":1,"pitch":73,"start":18.75,"duration":0.25,"velocity":127,"measure":10,"beat":2.5,"subject_pos":-1,"motif":"enigmatic_cell","motif_pos":0,"best_pos":0,"similarity":1.0,"stretto":false,"stretto_voices":0,"combination":[],"aug_dim":"","rhythm_ratio":1.0,"mirror":false,"chromatic_density":0.143,"complexity":0.678,"dissonance":0.096},{"voice":3,"pitch":52,"start":18.75,"duration":0.25,"velocity":127,"measure":10,"beat":2.5,"subject_pos":-1,"motif":"","motif_pos":-1,"best_pos":6,"similarity":0.721,"stretto":false,"stretto_voices":0,"combination":[],"aug_dim":"","rhythm_ratio":1.0,"mirror":false,"chromatic_density":0.143,"complexity":0.678,"dissonance":0.096},{"voice":1,"pitch":74,"start":19.0,"duration":0.25,"velocity":127,"measure":10,"beat":3.0,"subject_pos":-1,"motif":"enigmatic_cell","motif_pos":1,"best_pos":1,"similarity":1.0,"stretto":false,"stretto_voices":0,"combination":[],"aug_dim":"","rhythm_ratio":1.0,"mirror":false,"chromatic_density":0.143,"complexity":0.678,"dissonance":0.096},{"voice":2,"pitch":57,"start":19.0,"duration":0.75,"velocity":127,"measure":10,"beat":3.0,"subject_pos":1,"motif":"subject_inv","motif_pos":1,"best_pos":1,"similarity":1.0,"stretto":false,"stretto_voices":0,"combination":[],"aug_dim":"","rhythm_ratio":1.0,"mirror":false,"chromatic_density":0.143,"complexity":0.678,"dissonance":0.096},{"voice":3,"pitch":53,"start":19.0,"duration":0.5,"velocity":127,"measure":10,"beat":3.0,"subject_pos":-1,"motif":"","motif_pos":-1,"best_pos":7,"similarity":0.5,"stretto":false,"stretto_voices":0,"combination":[],"aug_dim":"","rhythm_ratio":1.0,"mirror":false,"chromatic_density":0.143,"complexity":0.678,"dissonance":0.096},{"voice":0,"pitch":81,"start":19.25,"duration":0.25,"velocity":127,"measure":10,"beat":3.5,"subject_pos":-1,"motif":"","motif_pos":-1,"best_pos":1,"similarity":0.571,"stretto":false,"stretto_voices":0,"combination":[],"aug_dim":"","rhythm_ratio":1.0,"mirror":false,"chromatic_density":0.143,"complexity":0.678,"dissonance":0.096},{"voice":1,"pitch":69,"start":19.25,"duration":0.25,"velocity":127,"measure":10,"beat":3.5,"subject_pos":-1,"motif":"enigmatic_cell","motif_pos":2,"best_pos":2,"similarity":1.0,"stretto":false,"stretto_voices":0,"combination":[],"aug_dim":"","rhythm_ratio":1.0,"mirror":false,"chromatic_density":0.143,"complexity":0.678,"dissonance":0.096},{"voice":0,"pitch":79,"start":19.5,"duration":0.25,"velocity":127,"measure":10,"beat":4.0,"subject_pos":-1,"motif":"","motif_pos":-1,"best_pos":2,"similarity":0.65,"stretto":false,"stretto_voices":0,"combination":[],"aug_dim":"","rhythm_ratio":1.0,"mirror":false,"chromatic_density":0.143,"complexity":0.678,"dissonance":0.096},{"voice":1,"pitch":74,"start":19.5,"duration":0.5,"velocity":127,"measure":10,"beat":4.0,"subject_pos":-1,"motif":"","motif_pos":-1,"best_pos":1,"similarity":0.607,"stretto":false,"stretto_voices":0,"combination":[],"aug_dim":"","rhythm_ratio":1.0,"mirror":false,"chromatic_density":0.143,"complexity":0.678,"dissonance":0.096},{"voice":3,"pitch":50,"start":19.5,"duration":0.5,"velocity":127,"measure":10,"beat":4.0,"subject_pos":-1,"motif":"","motif_pos":-1,"best_pos":3,"similarity":0.414,"stretto":false,"stretto_voices":0,"combination":[],"aug_dim":"","rhythm_ratio":1.0,"mirror":false,"chromatic_density":0.143,"complexity":0.678,"dissonance":0.096},{"voice":0,"pitch":77,"start":19.75,"duration":0.25,"velocity":127,"measure":10,"beat":4.5,"subject_pos":-1,"motif":"","motif_pos":-1,"best_pos":3,"similarity":0.657,"stretto":false,"stretto_voices":0,"combination":[],"aug_dim":"","rhythm_ratio":1.0,"mirror":false,"chromatic_density":0.143,"complexity":0.678,"dissonance":0.096},{"voice":2,"pitch":59,"start":19.75,"duration":0.25,"velocity":127,"measure":10,"beat":4.5,"subject_pos":2,"motif":"subject_inv","motif_pos":2,"best_pos":2,"similarity":1.0,"stretto":false,"stretto_voices":0,"combination":[],"aug_dim":"","rhythm_ratio":1.0,"mirror":false,"chromatic_density":0.143,"complexity":0.678,"dissonance":0.096},{"voice":0,"pitch":76,"start":20.0,"duration":0.25,"velocity":127,"measure":11,"beat":1.0,"subject_pos":-1,"motif":"","motif_pos":-1,"best_pos":4,"similarity":0.564,"stretto":false,"stretto_voices":0,"combination":[],"aug_dim":"","rhythm_ratio":1.0,"mirror":false,"chromatic_density":0.375,"complexity":0.575,"dissonance":0.119},{"voice":1,"pitch":72,"start":20.0,"duration":1.0,"velocity":127,"measure":11,"beat":1.0,"subject_pos":-1,"motif":"","motif_pos":-1,"best_pos":2,"similarity":0.507,"stretto":false,"stretto_voices":0,"combination":[],"aug_dim":"","rhythm_ratio":1.0,"mirror":false,"chromatic_density":0.375,"complexity":0.575,"dissonance":0.119},{"voice":2,"pitch":60,"start":20.0,"duration":0.75,"velocity":127,"measure":11,"beat":1.0,"subject_pos":3,"motif":"subject_inv","motif_pos":3,"best_pos":3,"similarity":1.0,"stretto":false,"stretto_voices":0,"combination":[],"aug_dim":"","rhythm_ratio":1.0,"mirror":false,"chromatic_density":0.375,"complexity":0.575,"dissonance":0.119},{"voice":3,"pitch":57,"start":20.0,"duration":1.25,"velocity":127,"measure":11,"beat":1.0,"subject_pos":-1,"motif":"","motif_pos":-1,"best_pos":3,"similarity":0.436,"stretto":false,"stretto_voices":0,"combination":[],"aug_dim":"","rhythm_ratio":1.0,"mirror":false,"chromatic_density":0.375,"complexity":0.575,"dissonance":0.119},{"voice":0,"pitch":80,"start":20.25,"duration":0.25,"velocity":127,"measure":11,"beat":1.5,"subject_pos":-1,"motif":"","motif_pos":-1,"best_pos":4,"similarity":0.607,"stretto":false,"stretto_voices":0,"combination":[],"aug_dim":"","rhythm_ratio":1.0,"mirror":false,"chromatic_density":0.375,"complexity":0.575,"dissonance":0.119},{"voice":0,"pitch":81,"start":20.5,"duration":0.25,"velocity":127,"measure":11,"beat":2.0,"subject_pos":-1,"motif":"","motif_pos":-1,"best_pos":5,"similarity":0.732,"stretto":false,"stretto_voices":0,"combination":[],"aug_dim":"","rhythm_ratio":1.0,"mirror":false,"chromatic_density":0.375,"complexity":0.575,"dissonance":0.119},{"voice":0,"pitch":83,"start":20.75,"duration":0.25,"velocity":127,"measure":11,"beat":2.5,"subject_pos":-1,"motif":"","motif_pos":-1,"best_pos":6,"similarity":0.714,"stretto":false,"stretto_voices":0,"combination":[],"aug_dim":"","rhythm_ratio":1.0,"mirror":false,"chromatic_density":0.375,"complexity":0.575,"dissonance":0.119},{"voice":2,"pitch":62,"start":20.75,"duration":0.25,"velocity":127,"measure":11,"beat":2.5,"subject_pos":4,"motif":"subject_inv","motif_pos":4,"best_pos":4,"similarity":1.0,"stretto":false,"stretto_voices":0,"combination":[],"aug_dim":"","rhythm_ratio":1.0,"mirror":false,"chromatic_density":0.375,"complexity":0.575,"dissonance":0.119},{"voice":0,"pitch":84,"start":21.0,"duration":1.25,"velocity":127,"measure":11,"beat":3.0,"subject_pos":-1,"motif":"","motif_pos":-1,"best_pos":7,"similarity":0.5,"stretto":false,"stretto_voices":0,"combination":[],"aug_dim":"","rhythm_ratio":1.0,"mirror":false,"chromatic_density":0.375,"complexity":0.575,"dissonance":0.119},{"voice":2,"pitch":64,"start":21.0,"duration":1.0,"velocity":127,"measure":11,"beat":3.0,"subject_pos":5,"motif":"subject_inv","motif_pos":5,"best_pos":5,"similarity":1.0,"stretto":false,"stretto_voices":0,"combination":[],"aug_dim":"","rhythm_ratio":1.0,"mirror":false,"chromatic_density":0.375,"complexity":0.575,"dissonance":0.119},{"voice":3,"pitch":57,"start":21.25,"duration":0.25,"velocity":127,"measure":11,"beat":3.5,"subject_pos":-1,"motif":"","motif_pos":-1,"best_pos":4,"similarity":0.643,"stretto":false,"stretto_voices":0,"combination":[],"aug_dim":"","rhythm_ratio":1.0,"mirror":false,"chromatic_density":0.375,"complexity":0.575,"dissonance":0.119},{"voice":3,"pitch":58,"start":21.5,"duration":0.25,"velocity":127,"measure":11,"beat":4.0,"subject_pos":-1,"motif":"","motif_pos":-1,"best_pos":5,"similarity":0.714,"stretto":false,"stretto_voices":0,"combination":[],"aug_dim":"","rhythm_ratio":1.0,"mirror":false,"chromatic_density":0.375,"complexity":0.575,"dissonance":0.119},{"voice":3,"pitch":60,"start":21.75,"duration":0.25,"velocity":127,"measure":11,"beat":4.5,"subject_pos":-1,"motif":"","motif_pos":-1,"best_pos":6,"similarity":0.607,"stretto":false,"stretto_voices":0,"combination":[],"aug_dim":"","rhythm_ratio":1.0,"mirror":false,"chromatic_density":0.375,"complexity":0.575,"dissonance":0.119},{"voice":2,"pitch":65,"start":22.0,"duration":1.0,"velocity":127,"measure":12,"beat":1.0,"subject_pos":6,"motif":"subject_inv","motif_pos":6,"best_pos":6,"similarity":1.0,"stretto":false,"stretto_voices":0,"combination":[],"aug_dim":"","rhythm_ratio":1.0,"mirror":false,"chromatic_density":0.375,"complexity":0.552,"dissonance":0.158},{"voice":3,"pitch":62,"start":22.0,"duration":1.0,"velocity":127,"measure":12,"beat":1.0,"subject_pos":-1,"motif":"","motif_pos":-1,"best_pos":6,"similarity":0.375,"stretto":false,"stretto_voices":0,"combination":[],"aug_dim":"","rhythm_ratio":1.0,"mirror":false,"chromatic_density":0.375,"complexity":0.552,"dissonance":0.158},{"voice":0,"pitch":84,"start":22.25,"duration":0.25,"velocity":127,"measure":12,"beat":1.5,"subject_pos":-1,"motif":"","motif_pos":-1,"best_pos":2,"similarity":0.443,"stretto":false,"stretto_voices":0,"combination":[],"aug_dim":"","rhythm_ratio":1.0,"mirror":false,"chromatic_density":0.375,"complexity":0.552,"dissonance":0.158},{"voice":0,"pitch":82,"start":22.5,"duration":0.25,"velocity":127,"measure":12,"beat":2.0,"subject_pos":-1,"motif":"","motif_pos":-1,"best_pos":3,"similarity":0.632,"stretto":false,"stretto_voices":0,"combination":[],"aug_dim":"","rhythm_ratio":1.0,"mirror":false,"chromatic_density":0.375,"complexity":0.552,"dissonance":0.158},{"voice":0,"pitch":81,"start":22.75,"duration":0.25,"velocity":127,"measure":12,"beat":2.5,"subject_pos":-1,"motif":"","motif_pos":-1,"best_pos":4,"similarity":0.714,"stretto":false,"stretto_voices":0,"combination":[],"aug_dim":"","rhythm_ratio":1.0,"mirror":false,"chromatic_density":0.375,"complexity":0.552,"dissonance":0.158},{"voice":0,"pitch":82,"start":23.0,"duration":1.25,"velocity":127,"measure":12,"beat":3.0,"subject_pos":-1,"motif":"","motif_pos":-1,"best_pos":5,"similarity":0.571,"stretto":false,"stretto_voices":0,"combination":[],"aug_dim":"","rhythm_ratio":1.0,"mirror":false,"chromatic_density":0.375,"complexity":0.552,"dissonance":0.158},{"voice":2,"pitch":64,"start":23.0,"duration":0.75,"velocity":127,"measure":12,"beat":3.0,"subject_pos":7,"motif":"subject_inv","motif_pos":7,"best_pos":7,"similarity":1.0,"stretto":false,"stretto_voices":0,"combination":[],"aug_dim":"","rhythm_ratio":1.0,"mirror":false,"chromatic_density":0.375,"complexity":0.552,"dissonance":0.158},{"voice":3,"pitch":55,"start":23.0,"duration":1.25,"velocity":127,"measure":12,"beat":3.0,"subject_pos":-1,"motif":"","motif_pos":-1,"best_pos":6,"similarity":0.221,"stretto":false,"stretto_voices":0,"combination":[],"aug_dim":"","rhythm_ratio":1.0,"mirror":false,"chromatic_density":0.375,"complexity":0.552,"dissonance":0.158},{"voice":1,"pitch":81,"start":23.25,"duration":0.25,"velocity":127,"measure":12,"beat":3.5,"subject_pos":-1,"motif":"","motif_pos":-1,"best_pos":1,"similarity":0.5,"stretto":false,"stretto_voices":0,"combination":[],"aug_dim":"","rhythm_ratio":1.0,"mirror":false,"chromatic_density":0.375,"complexity":0.552,"dissonance":0.158},{"voice":1,"pitch":79,"start":23.5,"duration":0.25,"velocity":127,"measure":12,"beat":4.0,"subject_pos":-1,"motif":"","motif_pos":-1,"best_pos":2,"similarity":0.625,"stretto":false,"stretto_voices":0,"combination":[],"aug_dim":"","rhythm_ratio":1.0,"mirror":false,"chromatic_density":0.375,"complexity":0.552,"dissonance":0.158},{"voice":1,"pitch":77,"start":23.75,"duration":0.25,"velocity":127,"measure":12,"beat":4.5,"subject_pos":-1,"motif":"","motif_pos":-1,"best_pos":3,"similarity":0.632,"stretto":false,"stretto_voices":0,"combination":[],"aug_dim":"","rhythm_ratio":1.0,"mirror":false,"chromatic_density":0.375,"complexity":0.552,"dissonance":0.158},{"voice":2,"pitch":62,"start":23.75,"duration":0.25,"velocity":127,"measure":12,"beat":4.5,"subject_pos":8,"motif":"subject_inv","motif_pos":8,"best_pos":0,"similarity":1.0,"stretto":false,"stretto_voices":0,"combination":[],"aug_dim":"","rhythm_ratio":1.0,"mirror":false,"chromatic_density":0.375,"complexity":0.552,"dissonance":0.158},{"voice":1,"pitch":76,"start":24.0,"duration":1.25,"velocity":127,"measure":13,"beat":1.0,"subject_pos":-1,"motif":"","motif_pos":-1,"best_pos":4,"similarity":0.532,"stretto":false,"stretto_voices":0,"combination":[],"aug_dim":"","rhythm_ratio":1.0,"mirror":false,"chromatic_density":0.333,"complexity":0.511,"dissonance":0.209},{"voice":2,"pitch":61,"start":24.0,"duration":1.25,"velocity":127,"measure":13,"beat":1.0,"subject_pos":-1,"motif":"","motif_pos":-1,"best_pos":4,"similarity":0.571,"stretto":false,"stretto_voices":0,"combination":[],"aug_dim":"","rhythm_ratio":1.0,"mirror":false,"chromatic_density":0.333,"complexity":0.511,"dissonance":0.209},{"voice":0,"pitch":82,"start":24.25,"duration":0.25,"velocity":127,"measure":13,"beat":1.5,"subject_pos":-1,"motif":"","motif_pos":-1,"best_pos":3,"similarity":0.414,"stretto":false,"stretto_voices":0,"combination":[],"aug_dim":"","rhythm_ratio":1.0,"mirror":false,"chromatic_density":0.333,"complexity":0.511,"dissonance":0.209},{"voice":3,"pitch":55,"start":24.25,"duration":0.25,"velocity":127,"measure":13,"beat":1.5,"subject_pos":-1,"motif":"","motif_pos":-1,"best_pos":2,"similarity":0.429,"stretto":false,"stretto_voices":0,"combination":[],"aug_dim":"","rhythm_ratio":1.0,"mirror":false,"chromatic_density":0.333,"complexity":0.511,"dissonance":0.209},{"voice":0,"pitch":81,"start":24.5,"duration":0.25,"velocity":127,"measure":13,"beat":2.0,"subject_pos":-1,"motif":"","motif_pos":-1,"best_pos":4,"similarity":0.55,"stretto":false,"stretto_voices":0,"combination":[],"aug_dim":"","rhythm_ratio":1.0,"mirror":false,"chromatic_density":0.333,"complexity":0.511,"dissonance":0.209},{"voice":3,"pitch":53,"start":24.5,"duration":0.25,"velocity":127,"measure":13,"beat":2.0,"subject_pos":-1,"motif":"","motif_pos":-1,"best_pos":3,"similarity":0.625,"stretto":false,"stretto_voices":0,"combination":[],"aug_dim":"","rhythm_ratio":1.0,"mirror":false,"chromatic_density":0.333,"complexity":0.511,"dissonance":0.209},{"voice":0,"pitch":79,"start":24.75,"duration":0.25,"velocity":127,"measure":13,"beat":2.5,"subject_pos":-1,"motif":"","motif_pos":-1,"best_pos":5,"similarity":0.607,"stretto":false,"stretto_voices":0,"combination":[],"aug_dim":"","rhythm_ratio":1.0,"mirror":false,"chromatic_density":0.333,"complexity":0.511,"dissonance":0.209},{"voice":3,"pitch":52,"start":24.75,"duration":0.25,"velocity":127,"measure":13,"beat":2.5,"subject_pos":-1,"motif":"","motif_pos":-1,"best_pos":4,"similarity":0.714,"stretto":false,"stretto_voices":0,"combination":[],"aug_dim":"","rhythm_ratio":1.0,"mirror":false,"chromatic_density":0.333,"complexity":0.511,"dissonance":0.209},{"voice":0,"pitch":81,"start":25.0,"duration":1.5,"velocity":127,"measure":13,"beat":3.0,"subject_pos":-1,"motif":"","motif_pos":-1,"best_pos":6,"similarity":0.657,"stretto":false,"stretto_voices":0,"combination":[],"aug_dim":"","rhythm_ratio":1.0,"mirror":false,"chromatic_density":0.333,"complexity":0.511,"dissonance":0.209},{"voice":3,"pitch":53,"start":25.0,"duration":1.25,"velocity":127,"measure":13,"beat":3.0,"subject_pos":-1,"motif":"","motif_pos":-1,"best_pos":5,"similarity":0.571,"stretto":false,"stretto_voices":0,"combination":[],"aug_dim":"","rhythm_ratio":1.0,"mirror":false,"chromatic_density":0.333,"complexity":0.511,"dissonance":0.209},{"voice":1,"pitch":79,"start":25.25,"duration":0.25,"velocity":127,"measure":13,"beat":3.5,"subject_pos":-1,"motif":"","motif_pos":-1,"best_pos":1,"similarity":0.411,"stretto":false,"stretto_voices":0,"combination":[],"aug_dim":"","rhythm_ratio":1.0,"mirror":false,"chromatic_density":0.333,"complexity":0.511,"dissonance":0.209},{"voice":2,"pitch":57,"start":25.25,"duration":0.25,"velocity":127,"measure":13,"beat":3.5,"subject_pos":-1,"motif":"","motif_pos":-1,"best_pos":5,"similarity":0.536,"stretto":false,"stretto_voices":0,"combination":[],"aug_dim":"","rhythm_ratio":1.0,"mirror":false,"chromatic_density":0.333,"complexity":0.511,"dissonance":0.209},{"voice":1,"pitch":77,"start":25.5,"duration":0.25,"velocity":127,"measure":13,"beat":4.0,"subject_pos":-1,"motif":"","motif_pos":-1,"best_pos":3,"similarity":0.579,"stretto":false,"stretto_voices":0,"combination":[],"aug_dim":"","rhythm_ratio":1.0,"mirror":false,"chromatic_density":0.333,"complexity":0.511,"dissonance":0.209},{"voice":2,"pitch":59,"start":25.5,"duration":0.25,"velocity":127,"measure":13,"beat":4.0,"subject_pos":-1,"motif":"","motif_pos":-1,"best_pos":5,"similarity":0.604,"stretto":false,"stretto_voices":0,"combination":[],"aug_dim":"","rhythm_ratio":1.0,"mirror":false,"chromatic_density":0.333,"complexity":0.511,"dissonance":0.209},{"voice":1,"pitch":76,"start":25.75,"duration":0.25,"velocity":127,"measure":13,"beat":4.5,"subject_pos":-1,"motif":"","motif_pos":-1,"best_pos":4,"similarity":0.693,"stretto":false,"stretto_voices":0,"combination":[],"aug_dim":"","rhythm_ratio":1.0,"mirror":false,"chromatic_density":0.333,"complexity":0.511,"dissonance":0.209},{"voice":2,"pitch":61,"start":25.75,"duration":0.25,"velocity":127,"measure":13,"beat":4.5,"subject_pos":-1,"motif":"","motif_pos":-1,"best_pos":6,"similarity":0.65,"stretto":false,"stretto_voices":0,"combination":[],"aug_dim":"","rhythm_ratio":1.0,"mirror":false,"chromatic_density":0.333,"complexity":0.511,"dissonance":0.209},{"voice":1,"pitch":77,"start":26.0,"duration":1.0,"velocity":127,"measure":14,"beat":1.0,"subject_pos":-1,"motif":"","motif_pos":-1,"best_pos":5,"similarity":0.564,"stretto":false,"stretto_voices":0,"combination":[],"aug_dim":"","rhythm_ratio":1.0,"mirror":false,"chromatic_density":0.429,"complexity":0.536,"dissonance":0.128},{"voice":2,"pitch":62,"start":26.0,"duration":1.25,"velocity":127,"measure":14,"beat":1.0,"subject_pos":-1,"motif":"","motif_pos":-1,"best_pos":7,"similarity":0.464,"stretto":false,"stretto_voices":0,"combination":[],"aug_dim":"","rhythm_ratio":1.0,"mirror":false,"chromatic_density":0.429,"complexity":0.536,"dissonance":0.128},{"voice":3,"pitch":53,"start":26.25,"duration":0.25,"velocity":127,"measure":14,"beat":1.5,"subject_pos":-1,"motif":"","motif_pos":-1,"best_pos":3,"similarity":0.414,"stretto":false,"stretto_voices":0,"combination":[],"aug_dim":"","rhythm_ratio":1.0,"mirror":false,"chromatic_density":0.429,"complexity":0.536,"dissonance":0.128},{"voice":0,"pitch":82,"start":26.5,"duration":0.5,"velocity":127,"measure":14,"beat":2.0,"subject_pos":-1,"motif":"","motif_pos":-1,"best_pos":7,"similarity":0.436,"stretto":false,"stretto_voices":0,"combination":[],"aug_dim":"","rhythm_ratio":1.0,"mirror":false,"chromatic_density":0.429,"complexity":0.536,"dissonance":0.128},{"voice":3,"pitch":52,"start":26.5,"duration":0.25,"velocity":127,"measure":14,"beat":2.0,"subject_pos":-1,"motif":"","motif_pos":-1,"best_pos":4,"similarity":0.486,"stretto":false,"stretto_voices":0,"combination":[],"aug_dim":"","rhythm_ratio":1.0,"mirror":false,"chromatic_density":0.429,"complexity":0.536,"dissonance":0.128},{"voice":3,"pitch":50,"start":26.75,"duration":0.25,"velocity":127,"measure":14,"beat":2.5,"subject_pos":-1,"motif":"","motif_pos":-1,"best_pos":5,"similarity":0.479,"stretto":false,"stretto_voices":0,"combination":[],"aug_dim":"","rhythm_ratio":1.0,"mirror":false,"chromatic_density":0.429,"complexity":0.536,"dissonance":0.128},{"voice":0,"pitch":79,"start":27.0,"duration":2.5,"velocity":127,"measure":14,"beat":3.0,"subject_pos":-1,"motif":"","motif_pos":-1,"best_pos":3,"similarity":0.493,"stretto":false,"stretto_voices":0,"combination":[],"aug_dim":"","rhythm_ratio":1.0,"mirror":false,"chromatic_density":0.429,"complexity":0.536,"dissonance":0.128},{"voice":1,"pitch":76,"start":27.0,"duration":1.0,"velocity":127,"measure":14,"beat":3.0,"subject_pos":-1,"motif":"","motif_pos":-1,"best_pos":4,"similarity":0.514,"stretto":false,"stretto_voices":0,"combination":[],"aug_dim":"","rhythm_ratio":1.0,"mirror":false,"chromatic_density":0.429,"complexity":0.536,"dissonance":0.128},{"voice":3,"pitch":52,"start":27.0,"duration":1.0,"velocity":127,"measure":14,"beat":3.0,"subject_pos":-1,"motif":"","motif_pos":-1,"best_pos":5,"similarity":0.404,"stretto":false,"stretto_voices":0,"combination":[],"aug_dim":"","rhythm_ratio":1.0,"mirror":false,"chromatic_density":0.429,"complexity":0.536,"dissonance":0.128},{"voice":2,"pitch":62,"start":27.25,"duration":0.25,"velocity":127,"measure":14,"beat":3.5,"subject_pos":-1,"motif":"","motif_pos":-1,"best_pos":3,"similarity":0.421,"stretto":false,"stretto_voices":0,"combination":[],"aug_dim":"","rhythm_ratio":1.0,"mirror":false,"chromatic_density":0.429,"complexity":0.536,"dissonance":0.128},{"voice":2,"pitch":61,"start":27.5,"duration":0.25,"velocity":127,"measure":14,"beat":4.0,"subject_pos":-1,"motif":"","motif_pos":-1,"best_pos":4,"similarity":0.55,"stretto":false,"stretto_voices":0,"combination":[],"aug_dim":"","rhythm_ratio":1.0,"mirror":false,"chromatic_density":0.429,"complexity":0.536,"dissonance":0.128},{"voice":2,"pitch":59,"start":27.75,"duration":0.25,"velocity":127,"measure":14,"beat":4.5,"subject_pos":-1,"motif":"","motif_pos":-1,"best_pos":5,"similarity":0.607,"stretto":false,"stretto_voices":0,"combination":[],"aug_dim":"","rhythm_ratio":1.0,"mirror":false,"chromatic_density":0.429,"complexity":0.536,"dissonance":0.128},{"voice":1,"pitch":76,"start":28.0,"duration":0.25,"velocity":127,"measure":15,"beat":1.0,"subject_pos":-1,"motif":"head_inv","motif_pos":0,"best_pos":0,"similarity":1.0,"stretto":false,"stretto_voices":0,"combination":[],"aug_dim":"","rhythm_ratio":1.0,"mirror":false,"chromatic_density":0.417,"complexity":0.614,"dissonance":0.05},{"voice":2,"pitch":61,"start":28.0,"duration":0.5,"velocity":127,"measure":15,"beat":1.0,"subject_pos":-1,"motif":"","motif_pos":-1,"best_pos":6,"similarity":0.657,"stretto":false,"stretto_voices":0,"combination":[],"aug_dim":"","rhythm_ratio":1.0,"mirror":false,"chromatic_density":0.417,"complexity":0.614,"dissonance":0.05},{"voice":3,"pitch":57,"start":28.0,"duration":3.25,"velocity":127,"measure":15,"beat":1.0,"subject_pos":-1,"motif":"","motif_pos":-1,"best_pos":6,"similarity":0.421,"stretto":false,"stretto_voices":0,"combination":[],"aug_dim":"","rhythm_ratio":1.0,"mirror":false,"chromatic_density":0.417,"complexity":0.614,"dissonance":0.05},{"voice":1,"pitch":69,"start":28.25,"duration":0.25,"velocity":127,"measure":15,"beat":1.5,"subject_pos":-1,"motif":"head_inv","motif_pos":1,"best_pos":1,"similarity":1.0,"stretto":false,"stretto_voices":0,"combination":[],"aug_dim":"","rhythm_ratio":1.0,"mirror":false,"chromatic_density":0.417,"complexity":0.614,"dissonance":0.05},{"voice":1,"pitch":71,"start":28.5,"duration":0.25,"velocity":127,"measure":15,"beat":2.0,"subject_pos":-1,"motif":"head_inv","motif_pos":2,"best_pos":2,"similarity":1.0,"stretto":false,"stretto_voices":0,"combination":[],"aug_dim":"","rhythm_ratio":1.0,"mirror":false,"chromatic_density":0.417,"complexity":0.614,"dissonance":0.05},{"voice":2,"pitch":62,"start":28.5,"duration":0.25,"velocity":127,"measure":15,"beat":2.0,"subject_pos":-1,"motif":"","motif_pos":-1,"best_pos":5,"similarity":0.764,"stretto":false,"stretto_voices":0,"combination":[],"aug_dim":"","rhythm_ratio":1.0,"mirror":false,"chromatic_density":0.417,"complexity":0.614,"dissonance":0.05},{"voice":1,"pitch":73,"start":28.75,"duration":0.25,"velocity":127,"measure":15,"beat":2.5,"subject_pos":-1,"motif":"head_inv","motif_pos":3,"best_pos":3,"similarity":1.0,"stretto":false,"stretto_voices":0,"combination":[],"aug_dim":"","rhythm_ratio":1.0,"mirror":false,"chromatic_density":0.417,"complexity":0.614,"dissonance":0.05},{"voice":2,"pitch":64,"start":28.75,"duration":0.25,"velocity":127,"measure":15,"beat":2.5,"subject_pos":-1,"motif":"","motif_pos":-1,"best_pos":6,"similarity":0.721,"stretto":false,"stretto_voices":0,"combination":[],"aug_dim":"","rhythm_ratio":1.0,"mirror":false,"chromatic_density":0.417,"complexity":0.614,"dissonance":0.05},{"voice":1,"pitch":74,"start":29.0,"duration":0.25,"velocity":127,"measure":15,"beat":3.0,"subject_pos":-1,"motif":"head_inv","motif_pos":4,"best_pos":4,"similarity":1.0,"stretto":false,"stretto_voices":0,"combination":[],"aug_dim":"","rhythm_ratio":1.0,"mirror":false,"chromatic_density":0.417,"complexity":0.614,"dissonance":0.05},{"voice":2,"pitch":65,"start":29.0,"duration":0.25,"velocity":127,"measure":15,"beat":3.0,"subject_pos":-1,"motif":"","motif_pos":-1,"best_pos":3,"similarity":0.55,"stretto":false,"stretto_voices":0,"combination":[],"aug_dim":"","rhythm_ratio":1.0,"mirror":false,"chromatic_density":0.417,"complexity":0.614,"dissonance":0.05},{"voice":1,"pitch":69,"start":29.25,"duration":0.25,"velocity":127,"measure":15,"beat":3.5,"subject_pos":-1,"motif":"","motif_pos":-1,"best_pos":0,"similarity":0.339,"stretto":false,"stretto_voices":0,"combination":[],"aug_dim":"","rhythm_ratio":1.0,"mirror":false,"chromatic_density":0.417,"complexity":0.614,"dissonance":0.05},{"voice":2,"pitch":64,"start":29.25,"duration":0.25,"velocity":127,"measure":15,"beat":3.5,"subject_pos":-1,"motif":"","motif_pos":-1,"best_pos":4,"similarity":0.771,"stretto":false,"stretto_voices":0,"combination":[],"aug_dim":"","rhythm_ratio":1.0,"mirror":false,"chromatic_density":0.417,"complexity":0.614,"dissonance":0.05},{"voice":0,"pitch":77,"start":29.5,"duration":0.5,"velocity":127,"measure":15,"beat":4.0,"subject_pos":-1,"motif":"","motif_pos":-1,"best_pos":3,"similarity":0.521,"stretto":false,"stretto_voices":0,"combination":[],"aug_dim":"","rhythm_ratio":1.0,"mirror":false,"chromatic_density":0.417,"complexity":0.614,"dissonance":0.05},{"voice":1,"pitch":74,"start":29.5,"duration":0.75,"velocity":127,"measure":15,"beat":4.0,"subject_pos":-1,"motif":"","motif_pos":-1,"best_pos":1,"similarity":0.429,"stretto":false,"stretto_voices":0,"combination":[],"aug_dim":"","rhythm_ratio":1.0,"mirror":false,"chromatic_density":0.417,"complexity":0.614,"dissonance":0.05},{"voice":2,"pitch":65,"start":29.5,"duration":0.25,"velocity":127,"measure":15,"beat":4.0,"subject_pos":-1,"motif":"","motif_pos":-1,"best_pos":5,"similarity":0.793,"stretto":false,"stretto_voices":0,"combination":[],"aug_dim":"","rhythm_ratio":1.0,"mirror":false,"chromatic_density":0.417,"complexity":0.614,"dissonance":0.05},{"voice":2,"pitch":67,"start":29.75,"duration":0.25,"velocity":127,"measure":15,"beat":4.5,"subject_pos":-1,"motif":"","motif_pos":-1,"best_pos":6,"similarity":0.643,"stretto":false,"stretto_voices":0,"combination":[],"aug_dim":"","rhythm_ratio":1.0,"mirror":false,"chromatic_density":0.417,"complexity":0.614,"dissonance":0.05},{"voice":0,"pitch":76,"start":30.0,"duration":1.0,"velocity":127,"measure":16,"beat":1.0,"subject_pos":-1,"motif":"","motif_pos":-1,"best_pos":4,"similarity":0.457,"stretto":false,"stretto_voices":0,"combination":[],"aug_dim":"","rhythm_ratio":1.0,"mirror":false,"chromatic_density":0.429,"complexity":0.458,"dissonance":0.125},{"voice":2,"pitch":69,"start":30.0,"duration":0.5,"velocity":127,"measure":16,"beat":1.0,"subject_pos":-1,"motif":"","motif_pos":-1,"best_pos":6,"similarity":0.375,"stretto":false,"stretto_voices":0,"combination":[],"aug_dim":"","rhythm_ratio":1.0,"mirror":false,"chromatic_density":0.429,"complexity":0.458,"dissonance":0.125},{"voice":1,"pitch":74,"start":30.25,"duration":0.25,"velocity":127,"measure":16,"beat":1.5,"subject_pos":-1,"motif":"","motif_pos":-1,"best_pos":2,"similarity":0.429,"stretto":false,"stretto_voices":0,"combination":[],"aug_dim":"","rhythm_ratio":1.0,"mirror":false,"chromatic_density":0.429,"complexity":0.458,"dissonance":0.125},{"voice":1,"pitch":73,"start":30.5,"duration":0.25,"velocity":127,"measure":16,"beat":2.0,"subject_pos":-1,"motif":"","motif_pos":-1,"best_pos":3,"similarity":0.464,"stretto":false,"stretto_voices":0,"combination":[],"aug_dim":"","rhythm_ratio":1.0,"mirror":false,"chromatic_density":0.429,"complexity":0.458,"dissonance":0.125},{"voice":2,"pitch":64,"start":30.5,"duration":0.5,"velocity":127,"measure":16,"beat":2.0,"subject_pos":-1,"motif":"","motif_pos":-1,"best_pos":0,"similarity":0.286,"stretto":false,"stretto_voices":0,"combination":[],"aug_dim":"","rhythm_ratio":1.0,"mirror":false,"chromatic_density":0.429,"complexity":0.458,"dissonance":0.125},{"voice":1,"pitch":71,"start":30.75,"duration":0.25,"velocity":127,"measure":16,"beat":2.5,"subject_pos":-1,"motif":"","motif_pos":-1,"best_pos":4,"similarity":0.518,"stretto":false,"stretto_voices":0,"combination":[],"aug_dim":"","rhythm_ratio":1.0,"mirror":false,"chromatic_density":0.429,"complexity":0.458,"dissonance":0.125},{"voice":1,"pitch":72,"start":31.0,"duration":1.0,"velocity":127,"measure":16,"beat":3.0,"subject_pos":-1,"motif":"","motif_pos":-1,"best_pos":5,"similarity":0.446,"stretto":false,"stretto_voices":0,"combination":[],"aug_dim":"","rhythm_ratio":1.0,"mirror":false,"chromatic_density":0.429,"complexity":0.458,"dissonance":0.125},{"voice":2,"pitch":69,"start":31.0,"duration":1.0,"velocity":127,"measure":16,"beat":3.0,"subject_pos":-1,"motif":"","motif_pos":-1,"best_pos":1,"similarity":0.321,"stretto":false,"stretto_voices":0,"combination":[],"aug_dim":"","rhythm_ratio":1.0,"mirror":false,"chromatic_density":0.429,"complexity":0.458,"dissonance":0.125},{"voice":3,"pitch":58,"start":31.25,"duration":0.25,"velocity":127,"measure":16,"beat":3.5,"subject_pos":-1,"motif":"","motif_pos":-1,"best_pos":3,"similarity":0.343,"stretto":false,"stretto_voices":0,"combination":[],"aug_dim":"","rhythm_ratio":1.0,"mirror":false,"chromatic_density":0.429,"complexity":0.458,"dissonance":0.125},{"voice":3,"pitch":57,"start":31.5,"duration":0.25,"velocity":127,"measure":16,"beat":4.0,"subject_pos":-1,"motif":"","motif_pos":-1,"best_pos":2,"similarity":0.379,"stretto":false,"stretto_voices":0,"combination":[],"aug_dim":"","rhythm_ratio":1.0,"mirror":false,"chromatic_density":0.429,"complexity":0.458,"dissonance":0.125},{"voice":3,"pitch":55,"start":31.75,"duration":0.25,"velocity":127,"measure":16,"beat":4.5,"subject_pos":-1,"motif":"","motif_pos":-1,"best_pos":2,"similarity":0.464,"stretto":false,"stretto_voices":0,"combination":[],"aug_dim":"","rhythm_ratio":1.0,"mirror":false,"chromatic_density":0.429,"complexity":0.458,"dissonance":0.125},{"voice":0,"pitch":74,"start":32.0,"duration":1.0,"velocity":127,"measure":17,"beat":1.0,"subject_pos":0,"motif":"subject_inv","motif_pos":0,"best_pos":0,"similarity":1.0,"stretto":false,"stretto_voices":0,"combination":[],"aug_dim":"","rhythm_ratio":1.0,"mirror":false,"chromatic_density":0.25,"complexity":0.535,"dissonance":0.164},{"voice":3,"pitch":53,"start":32.0,"duration":1.5,"velocity":127,"measure":17,"beat":1.0,"subject_pos":-1,"motif":"","motif_pos":-1,"best_pos":2,"similarity":0.571,"stretto":false,"stretto_voices":0,"combination":[],"aug_dim":"","rhythm_ratio":1.0,"mirror":false,"chromatic_density":0.25,"complexity":0.535,"dissonance":0.164},{"voice":1,"pitch":57,"start":32.25,"duration":0.25,"velocity":127,"measure":17,"beat":1.5,"subject_pos":-1,"motif":"","motif_pos":-1,"best_pos":4,"similarity":0.443,"stretto":false,"stretto_voices":0,"combination":[],"aug_dim":"","rhythm_ratio":1.0,"mirror":false,"chromatic_density":0.25,"complexity":0.535,"dissonance":0.164},{"voice":1,"pitch":59,"start":32.5,"duration":0.25,"velocity":127,"measure":17,"beat":2.0,"subject_pos":-1,"motif":"","motif_pos":-1,"best_pos":5,"similarity":0.579,"stretto":false,"stretto_voices":0,"combination":[],"aug_dim":"","rhythm_ratio":1.0,"mirror":false,"chromatic_density":0.25,"complexity":0.535,"dissonance":0.164},{"voice":1,"pitch":61,"start":32.75,"duration":0.25,"velocity":127,"measure":17,"beat":2.5,"subject_pos":-1,"motif":"","motif_pos":-1,"best_pos":6,"similarity":0.643,"stretto":false,"stretto_voices":0,"combination":[],"aug_dim":"","rhythm_ratio":1.0,"mirror":false,"chromatic_density":0.25,"complexity":0.535,"dissonance":0.164},{"voice":0,"pitch":69,"start":33.0,"duration":0.75,"velocity":127,"measure":17,"beat":3.0,"subject_pos":1,"motif":"subject_inv","motif_pos":1,"best_pos":1,"similarity":1.0,"stretto":false,"stretto_voices":0,"combination":[],"aug_dim":"","rhythm_ratio":1.0,"mirror":false,"chromatic_density":0.25,"complexity":0.535,"dissonance":0.164},{"voice":1,"pitch":62,"start":33.0,"duration":0.25,"velocity":127,"measure":17,"beat":3.0,"subject_pos":-1,"motif":"","motif_pos":-1,"best_pos":5,"similarity":0.729,"stretto":false,"stretto_voices":0,"combination":[],"aug_dim":"","rhythm_ratio":1.0,"mirror":false,"chromatic_density":0.25,"complexity":0.535,"dissonance":0.164},{"voice":1,"pitch":64,"start":33.25,"duration":0.25,"velocity":127,"measure":17,"beat":3.5,"subject_pos":-1,"motif":"","motif_pos":-1,"best_pos":6,"similarity":0.721,"stretto":false,"stretto_voices":0,"combination":[],"aug_dim":"","rhythm_ratio":1.0,"mirror":false,"chromatic_density":0.25,"complexity":0.535,"dissonance":0.164},{"voice":1,"pitch":65,"start":33.5,"duration":0.75,"velocity":127,"measure":17,"beat":4.0,"subject_pos":-1,"motif":"","motif_pos":-1,"best_pos":5,"similarity":0.664,"stretto":false,"stretto_voices":0,"combination":[],"aug_dim":"","rhythm_ratio":1.0,"mirror":false,"chromatic_density":0.25,"complexity":0.535,"dissonance":0.164},{"voice":3,"pitch":50,"start":33.5,"duration":0.5,"velocity":127,"measure":17,"beat":4.0,"subject_pos":-1,"motif":"","motif_pos":-1,"best_pos":0,"similarity":0.429,"stretto":false,"stretto_voices":0,"combination":[],"aug_dim":"","rhythm_ratio":1.0,"mirror":false,"chromatic_density":0.25,"complexity":0.535,"dissonance":0.164},{"voice":0,"pitch":71,"start":33.75,"duration":0.25,"velocity":127,"measure":17,"beat":4.5,"subject_pos":2,"motif":"subject_inv","motif_pos":2,"best_pos":2,"similarity":1.0,"stretto":false,"stretto_voices":0,"combination":[],"aug_dim":"","rhythm_ratio":1.0,"mirror":false,"chromatic_density":0.25,"complexity":0.535,"dissonance":0.164},{"voice":0,"pitch":72,"start":34.0,"duration":0.75,"velocity":127,"measure":18,"beat":1.0,"subject_pos":3,"motif":"subject_inv","motif_pos":3,"best_pos":3,"similarity":1.0,"stretto":false,"stretto_voices":0,"combination":[],"aug_dim":"","rhythm_ratio":1.0,"mirror":false,"chromatic_density":0.125,"complexity":0.535,"dissonance":0.068},{"voice":3,"pitch":57,"start":34.0,"duration":0.5,"velocity":127,"measure":18,"beat":1.0,"subject_pos":-1,"motif":"","motif_pos":-1,"best_pos":1,"similarity":0.607,"stretto":false,"stretto_voices":0,"combination":[],"aug_dim":"","rhythm_ratio":1.0,"mirror":false,"chromatic_density":0.125,"complexity":0.535,"dissonance":0.068},{"voice":1,"pitch":67,"start":34.25,"duration":0.25,"velocity":127,"measure":18,"beat":1.5,"subject_pos":-1,"motif":"","motif_pos":-1,"best_pos":6,"similarity":0.579,"stretto":false,"stretto_voices":0,"combination":[],"aug_dim":"","rhythm_ratio":1.0,"mirror":false,"chromatic_density":0.125,"complexity":0.535,"dissonance":0.068},{"voice":1,"pitch":69,"start":34.5,"duration":0.75,"velocity":127,"measure":18,"beat":2.0,"subject_pos":-1,"motif":"","motif_pos":-1,"best_pos":1,"similarity":0.457,"stretto":false,"stretto_voices":0,"combination":[],"aug_dim":"","rhythm_ratio":1.0,"mirror":false,"chromatic_density":0.125,"complexity":0.535,"dissonance":0.068},{"voice":3,"pitch":53,"start":34.5,"duration":0.5,"velocity":127,"measure":18,"beat":2.0,"subject_pos":-1,"motif":"","motif_pos":-1,"best_pos":2,"similarity":0.518,"stretto":false,"stretto_voices":0,"combination":[],"aug_dim":"","rhythm_ratio":1.0,"mirror":false,"chromatic_density":0.125,"complexity":0.535,"dissonance":0.068},{"voice":0,"pitch":74,"start":34.75,"duration":0.25,"velocity":127,"measure":18,"beat":2.5,"subject_pos":4,"motif":"subject_inv","motif_pos":4,"best_pos":4,"similarity":1.0,"stretto":false,"stretto_voices":0,"combination":[],"aug_dim":"","rhythm_ratio":1.0,"mirror":false,"chromatic_density":0.125,"complexity":0.535,"dissonance":0.068},{"voice":0,"pitch":76,"start":35.0,"duration":1.0,"velocity":127,"measure":18,"beat":3.0,"subject_pos":5,"motif":"subject_inv","motif_pos":5,"best_pos":5,"similarity":1.0,"stretto":false,"stretto_voices":0,"combination":[],"aug_dim":"","rhythm_ratio":1.0,"mirror":false,"chromatic_density":0.125,"complexity":0.535,"dissonance":0.068},{"voice":3,"pitch":60,"start":35.0,"duration":1.25,"velocity":127,"measure":18,"beat":3.0,"subject_pos":-1,"motif":"","motif_pos":-1,"best_pos":1,"similarity":0.429,"stretto":false,"stretto_voices":0,"combination":[],"aug_dim":"","rhythm_ratio":1.0,"mirror":false,"chromatic_density":0.125,"complexity":0.535,"dissonance":0.068},{"voice":1,"pitch":67,"start":35.25,"duration":0.25,"velocity":127,"measure":18,"beat":3.5,"subject_pos":-1,"motif":"","motif_pos":-1,"best_pos":2,"similarity":0.593,"stretto":false,"stretto_voices":0,"combination":[],"aug_dim":"","rhythm_ratio":1.0,"mirror":false,"chromatic_density":0.125,"complexity":0.535,"dissonance":0.068},{"voice":1,"pitch":65,"start":35.5,"duration":0.25,"velocity":127,"measure":18,"beat":4.0,"subject_pos":-1,"motif":"","motif_pos":-1,"best_pos":3,"similarity":0.593,"stretto":false,"stretto_voices":0,"combination":[],"aug_dim":"","rhythm_ratio":1.0,"mirror":false,"chromatic_density":0.125,"complexity":0.535,"dissonance":0.068},{"voice":1,"pitch":64,"start":35.75,"duration":0.25,"velocity":127,"measure":18,"beat":4.5,"subject_pos":-1,"motif":"","motif_pos":-1,"best_pos":4,"similarity":0.493,"stretto":false,"stretto_voices":0,"combination":[],"aug_dim":"","rhythm_ratio":1.0,"mirror":false,"chromatic_density":0.125,"complexity":0.535,"dissonance":0.068},{"voice":0,"pitch":77,"start":36.0,"duration":1.0,"velocity":127,"measure":19,"beat":1.0,"subject_pos":6,"motif":"subject_inv","motif_pos":6,"best_pos":6,"similarity":1.0,"stretto":false,"stretto_voices":0,"combination":[],"aug_dim":"","rhythm_ratio":1.0,"mirror":false,"chromatic_density":0.5,"complexity":0.51,"dissonance":0.214},{"voice":1,"pitch":62,"start":36.0,"duration":0.5,"velocity":127,"measure":19,"beat":1.0,"subject_pos":-1,"motif":"","motif_pos":-1,"best_pos":2,"similarity":0.364,"stretto":false,"stretto_voices":0,"combination":[],"aug_dim":"","rhythm_ratio":1.0,"mirror":false,"chromatic_density":0.5,"complexity":0.51,"dissonance":0.214},{"voice":3,"pitch":60,"start":36.25,"duration":0.25,"velocity":127,"measure":19,"beat":1.5,"subject_pos":-1,"motif":"","motif_pos":-1,"best_pos":2,"similarity":0.375,"stretto":false,"stretto_voices":0,"combination":[],"aug_dim":"","rhythm_ratio":1.0,"mirror":false,"chromatic_density":0.5,"complexity":0.51,"dissonance":0.214},{"voice":1,"pitch":74,"start":36.5,"duration":0.75,"velocity":127,"measure":19,"beat":2.0,"subject_pos":-1,"motif":"","motif_pos":-1,"best_pos":3,"similarity":0.307,"stretto":false,"stretto_voices":0,"combination":[],"aug_dim":"","rhythm_ratio":1.0,"mirror":false,"chromatic_density":0.5,"complexity":0.51,"dissonance":0.214},{"voice":3,"pitch":59,"start":36.5,"duration":0.25,"velocity":127,"measure":19,"beat":2.0,"subject_pos":-1,"motif":"","motif_pos":-1,"best_pos":2,"similarity":0.5,"stretto":false,"stretto_voices":0,"combination":[],"aug_dim":"","rhythm_ratio":1.0,"mirror":false,"chromatic_density":0.5,"complexity":0.51,"dissonance":0.214},{"voice":3,"pitch":57,"start":36.75,"duration":0.25,"velocity":127,"measure":19,"beat":2.5,"subject_pos":-1,"motif":"","motif_pos":-1,"best_pos":3,"similarity":0.65,"stretto":false,"stretto_voices":0,"combination":[],"aug_dim":"","rhythm_ratio":1.0,"mirror":false,"chromatic_density":0.5,"complexity":0.51,"dissonance":0.214},{"voice":0,"pitch":76,"start":37.0,"duration":0.75,"velocity":127,"measure":19,"beat":3.0,"subject_pos":7,"motif":"subject_inv","motif_pos":7,"best_pos":7,"similarity":1.0,"stretto":false,"stretto_voices":0,"combination":[],"aug_dim":"","rhythm_ratio":1.0,"mirror":false,"chromatic_density":0.5,"complexity":0.51,"dissonance":0.214},{"voice":3,"pitch":56,"start":37.0,"duration":1.0,"velocity":127,"measure":19,"beat":3.0,"subject_pos":-1,"motif":"","motif_pos":-1,"best_pos":4,"similarity":0.7,"stretto":false,"stretto_voices":0,"combination":[],"aug_dim":"","rhythm_ratio":1.0,"mirror":false,"chromatic_density":0.5,"complexity":0.51,"dissonance":0.214},{"voice":1,"pitch":74,"start":37.25,"duration":0.25,"velocity":127,"measure":19,"beat":3.5,"subject_pos":-1,"motif":"","motif_pos":-1,"best_pos":2,"similarity":0.364,"stretto":false,"stretto_voices":0,"combination":[],"aug_dim":"","rhythm_ratio":1.0,"mirror":false,"chromatic_density":0.5,"complexity":0.51,"dissonance":0.214},{"voice":1,"pitch":72,"start":37.5,"duration":0.25,"velocity":127,"measure":19,"beat":4.0,"subject_pos":-1,"motif":"","motif_pos":-1,"best_pos":3,"similarity":0.479,"stretto":false,"stretto_voices":0,"combination":[],"aug_dim":"","rhythm_ratio":1.0,"mirror":false,"chromatic_density":0.5,"complexity":0.51,"dissonance":0.214},{"voice":0,"pitch":74,"start":37.75,"duration":0.25,"velocity":127,"measure":19,"beat":4.5,"subject_pos":8,"motif":"subject_inv","motif_pos":8,"best_pos":0,"similarity":1.0,"stretto":true,"stretto_voices":2,"combination":[],"aug_dim":"","rhythm_ratio":1.0,"mirror":true,"chromatic_density":0.5,"complexity":0.51,"dissonance":0.214},{"voice":1,"pitch":71,"start":37.75,"duration":0.25,"velocity":127,"measure":19,"beat":4.5,"subject_pos":0,"motif":"subject_inv","motif_pos":0,"best_pos":0,"similarity":1.0,"stretto":true,"stretto_voices":2,"combination":[],"aug_dim":"","rhythm_ratio":1.0,"mirror":true,"chromatic_density":0.5,"complexity":0.51,"dissonance":0.214},{"voice":0,"pitch":72,"start":38.0,"duration":1.25,"velocity":127,"measure":20,"beat":1.0,"subject_pos":-1,"motif":"","motif_pos":-1,"best_pos":3,"similarity":0.786,"stretto":false,"stretto_voices":0,"combination":[],"aug_dim":"","rhythm_ratio":1.0,"mirror":false,"chromatic_density":0.273,"complexity":0.688,"dissonance":0.1},{"voice":1,"pitch":69,"start":38.0,"duration":0.25,"velocity":127,"measure":20,"beat":1.0,"subject_pos":-1,"motif":"subject_inv","motif_pos":0,"best_pos":0,"similarity":1.0,"stretto":true,"stretto_voices":2,"combination":[],"aug_dim":"","rhythm_ratio":0.72,"mirror":true,"chromatic_density":0.273,"complexity":0.688,"dissonance":0.1},{"voice":2,"pitch":57,"start":38.0,"duration":1.0,"velocity":127,"measure":20,"beat":1.0,"subject_pos":0,"motif":"subject","motif_pos":0,"best_pos":0,"similarity":1.0,"stretto":true,"stretto_voices":2,"combination":[],"aug_dim":"","rhythm_ratio":1.0,"mirror":true,"chromatic_density":0.273,"complexity":0.688,"dissonance":0.1},{"voice":3,"pitch":57,"start":38.0,"duration":1.25,"velocity":127,"measure":20,"beat":1.0,"subject_pos":-1,"motif":"","motif_pos":-1,"best_pos":5,"similarity":0.507,"stretto":false,"stretto_voices":0,"combination":[],"aug_dim":"","rhythm_ratio":1.0,"mirror":false,"chromatic_density":0.273,"complexity":0.688,"dissonance":0.1},{"voice":1,"pitch":64,"start":38.25,"duration":0.25,"velocity":127,"measure":20,"beat":1.5,"subject_pos":1,"motif":"subject_inv","motif_pos":1,"best_pos":1,"similarity":1.0,"stretto":true,"stretto_voices":2,"combination":[],"aug_dim":"","rhythm_ratio":0.72,"mirror":true,"chromatic_density":0.273,"complexity":0.688,"dissonance":0.1},{"voice":1,"pitch":66,"start":38.5,"duration":0.25,"velocity":127,"measure":20,"beat":2.0,"subject_pos":2,"motif":"subject_inv","motif_pos":2,"best_pos":2,"similarity":1.0,"stretto":true,"stretto_voices":2,"combination":[],"aug_dim":"","rhythm_ratio":0.72,"mirror":true,"chromatic_density":0.273,"complexity":0.688,"dissonance":0.1},{"voice":1,"pitch":68,"start":38.75,"duration":0.25,"velocity":127,"measure":20,"beat":2.5,"subject_pos":3,"motif":"subject_inv","motif_pos":3,"best_pos":3,"similarity":1.0,"stretto":true,"stretto_voices":2,"combination":[],"aug_dim":"","rhythm_ratio":0.72,"mirror":true,"chromatic_density":0.273,"complexity":0.688,"dissonance":0.1},{"voice":1,"pitch":69,"start":39.0,"duration":1.25,"velocity":127,"measure":20,"beat":3.0,"subject_pos":4,"motif":"subject_inv","motif_pos":4,"best_pos":4,"similarity":1.0,"stretto":true,"stretto_voices":2,"combination":[],"aug_dim":"","rhythm_ratio":0.72,"mirror":true,"chromatic_density":0.273,"complexity":0.688,"dissonance":0.1},{"voice":2,"pitch":64,"start":39.0,"duration":0.75,"velocity":127,"measure":20,"beat":3.0,"subject_pos":1,"motif":"subject","motif_pos":1,"best_pos":1,"similarity":1.0,"stretto":true,"stretto_voices":2,"combination":[],"aug_dim":"","rhythm_ratio":1.0,"mirror":true,"chromatic_density":0.273,"complexity":0.688,"dissonance":0.1},{"voice":0,"pitch":71,"start":39.25,"duration":0.25,"velocity":127,"measure":20,"beat":3.5,"subject_pos":-1,"motif":"","motif_pos":-1,"best_pos":4,"similarity":0.893,"stretto":false,"stretto_voices":0,"combination":[],"aug_dim":"","rhythm_ratio":1.0,"mirror":false,"chromatic_density":0.273,"complexity":0.688,"dissonance":0.1},{"voice":3,"pitch":55,"start":39.25,"duration":0.25,"velocity":127,"measure":20,"beat":3.5,"subject_pos":-1,"motif":"","motif_pos":-1,"best_pos":2,"similarity":0.593,"stretto":false,"stretto_voices":0,"combination":[],"aug_dim":"","rhythm_ratio":1.0,"mirror":false,"chromatic_density":0.273,"complexity":0.688,"dissonance":0.1},{"voice":0,"pitch":72,"start":39.5,"duration":0.25,"velocity":127,"measure":20,"beat":4.0,"subject_pos":-1,"motif":"","motif_pos":-1,"best_pos":5,"similarity":0.821,"stretto":false,"stretto_voices":0,"combination":[],"aug_dim":"","rhythm_ratio":1.0,"mirror":false,"chromatic_density":0.273,"complexity":0.688,"dissonance":0.1},{"voice":3,"pitch":53,"start":39.5,"duration":0.5,"velocity":127,"measure":20,"beat":4.0,"subject_pos":-1,"motif":"","motif_pos":-1,"best_pos":3,"similarity":0.593,"stretto":false,"stretto_voices":0,"combination":[],"aug_dim":"","rhythm_ratio":1.0,"mirror":false,"chromatic_density":0.273,"complexity":0.688,"dissonance":0.1},{"voice":0,"pitch":74,"start":39.75,"duration":0.25,"velocity":127,"measure":20,"beat":4.5,"subject_pos":-1,"motif":"","motif_pos":-1,"best_pos":6,"similarity":0.643,"stretto":false,"stretto_voices":0,"combination":[],"aug_dim":"","rhythm_ratio":1.0,"mirror":false,"chromatic_density":0.273,"complexity":0.688,"dissonance":0.1},{"voice":2,"pitch":62,"start":39.75,"duration":0.25,"velocity":127,"measure":20,"beat":4.5,"subject_pos":2,"motif":"subject","motif_pos":2,"best_pos":2,"similarity":1.0,"stretto":true,"stretto_voices":2,"combination":[],"aug_dim":"","rhythm_ratio":1.0,"mirror":true,"chromatic_density":0.273,"complexity":0.688,"dissonance":0.1},{"voice":0,"pitch":76,"start":40.0,"duration":0.5,"velocity":127,"measure":21,"beat":1.0,"subject_pos":-1,"motif":"","motif_pos":-1,"best_pos":6,"similarity":0.446,"stretto":false,"stretto_voices":0,"combination":[],"aug_dim":"","rhythm_ratio":1.0,"mirror":false,"chromatic_density":0.556,"complexity":0.655,"dissonance":0.171},{"voice":2,"pitch":60,"start":40.0,"duration":0.75,"velocity":127,"measure":21,"beat":1.0,"subject_pos":3,"motif":"subject","motif_pos":3,"best_pos":3,"similarity":1.0,"stretto":true,"stretto_voices":2,"combination":[],"aug_dim":"","rhythm_ratio":1.0,"mirror":true,"chromatic_density":0.556,"complexity":0.655,"dissonance":0.171},{"voice":3,"pitch":52,"start":40.0,"duration":3.0,"velocity":127,"measure":21,"beat":1.0,"subject_pos":-1,"motif":"","motif_pos":-1,"best_pos":4,"similarity":0.493,"stretto":false,"stretto_voices":0,"combination":[],"aug_dim":"","rhythm_ratio":1.0,"mirror":false,"chromatic_density":0.556,"complexity":0.655,"dissonance":0.171},{"voice":1,"pitch":68,"start":40.25,"duration":0.25,"velocity":127,"measure":21,"beat":1.5,"subject_pos":-1,"motif":"subject_inv","motif_pos":4,"best_pos":4,"similarity":1.0,"stretto":true,"stretto_voices":2,"combination":[],"aug_dim":"","rhythm_ratio":0.72,"mirror":true,"chromatic_density":0.556,"complexity":0.655,"dissonance":0.171},{"voice":0,"pitch":75,"start":40.5,"duration":0.75,"velocity":127,"measure":21,"beat":2.0,"subject_pos":-1,"motif":"","motif_pos":-1,"best_pos":4,"similarity":0.396,"stretto":false,"stretto_voices":0,"combination":[],"aug_dim":"","rhythm_ratio":1.0,"mirror":false,"chromatic_density":0.556,"complexity":0.655,"dissonance":0.171},{"voice":1,"pitch":69,"start":40.5,"duration":0.25,"velocity":127,"measure":21,"beat":2.0,"subject_pos":-1,"motif":"subject_inv","motif_pos":4,"best_pos":4,"similarity":1.0,"stretto":true,"stretto_voices":2,"combination":[],"aug_dim":"","rhythm_ratio":0.72,"mirror":true,"chromatic_density":0.556,"complexity":0.655,"dissonance":0.171},{"voice":1,"pitch":71,"start":40.75,"duration":0.25,"velocity":127,"measure":21,"beat":2.5,"subject_pos":5,"motif":"subject_inv","motif_pos":5,"best_pos":5,"similarity":1.0,"stretto":true,"stretto_voices":2,"combination":[],"aug_dim":"","rhythm_ratio":0.72,"mirror":true,"chromatic_density":0.556,"complexity":0.655,"dissonance":0.171},{"voice":2,"pitch":59,"start":40.75,"duration":0.25,"velocity":127,"measure":21,"beat":2.5,"subject_pos":4,"motif":"subject","motif_pos":4,"best_pos":4,"similarity":1.0,"stretto":true,"stretto_voices":2,"combination":[],"aug_dim":"","rhythm_ratio":1.0,"mirror":true,"chromatic_density":0.556,"complexity":0.655,"dissonance":0.171},{"voice":1,"pitch":72,"start":41.0,"duration":1.0,"velocity":127,"measure":21,"beat":3.0,"subject_pos":6,"motif":"subject_inv","motif_pos":6,"best_pos":6,"similarity":1.0,"stretto":true,"stretto_voices":2,"combination":[],"aug_dim":"","rhythm_ratio":0.72,"mirror":true,"chromatic_density":0.556,"complexity":0.655,"dissonance":0.171},{"voice":2,"pitch":57,"start":41.0,"duration":1.0,"velocity":127,"measure":21,"beat":3.0,"subject_pos":5,"motif":"subject","motif_pos":5,"best_pos":5,"similarity":1.0,"stretto":true,"stretto_voices":2,"combination":[],"aug_dim":"","rhythm_ratio":1.0,"mirror":true,"chromatic_density":0.556,"complexity":0.655,"dissonance":0.171},{"voice":0,"pitch":78,"start":41.25,"duration":0.25,"velocity":127,"measure":21,"beat":3.5,"subject_pos":-1,"motif":"","motif_pos":-1,"best_pos":1,"similarity":0.411,"stretto":false,"stretto_voices":0,"combination":[],"aug_dim":"","rhythm_ratio":1.0,"mirror":false,"chromatic_density":0.556,"complexity":0.655,"dissonance":0.171},{"voice":0,"pitch":76,"start":41.5,"duration":0.25,"velocity":127,"measure":21,"beat":4.0,"subject_pos":-1,"motif":"","motif_pos":-1,"best_pos":3,"similarity":0.579,"stretto":false,"stretto_voices":0,"combination":[],"aug_dim":"","rhythm_ratio":1.0,"mirror":false,"chromatic_density":0.556,"complexity":0.655,"dissonance":0.171},{"voice":0,"pitch":75,"start":41.75,"duration":0.25,"velocity":127,"measure":21,"beat":4.5,"subject_pos":-1,"motif":"","motif_pos":-1,"best_pos":4,"similarity":0.664,"stretto":false,"stretto_voices":0,"combination":[],"aug_dim":"","rhythm_ratio":1.0,"mirror":false,"chromatic_density":0.556,"complexity":0.655,"dissonance":0.171},{"voice":0,"pitch":76,"start":42.0,"duration":0.25,"velocity":127,"measure":22,"beat":1.0,"subject_pos":-1,"motif":"","motif_pos":-1,"best_pos":5,"similarity":0.507,"stretto":false,"stretto_voices":0,"combination":[],"aug_dim":"","rhythm_ratio":1.0,"mirror":false,"chromatic_density":0.556,"complexity":0.548,"dissonance":0.2},{"voice":1,"pitch":71,"start":42.0,"duration":1.25,"velocity":127,"measure":22,"beat":1.0,"subject_pos":7,"motif":"subject_inv","motif_pos":7,"best_pos":7,"similarity":1.0,"stretto":true,"stretto_voices":2,"combination":[],"aug_dim":"","rhythm_ratio":0.72,"mirror":true,"chromatic_density":0.556,"complexity":0.548,"dissonance":0.2},{"voice":2,"pitch":56,"start":42.0,"duration":1.0,"velocity":127,"measure":22,"beat":1.0,"subject_pos":6,"motif":"subject","motif_pos":6,"best_pos":6,"similarity":1.0,"stretto":true,"stretto_voices":2,"combination":[],"aug_dim":"","rhythm_ratio":1.0,"mirror":true,"chromatic_density":0.556,"complexity":0.548,"dissonance":0.2},{"voice":0,"pitch":74,"start":42.25,"duration":0.25,"velocity":127,"measure":22,"beat":1.5,"subject_pos":-1,"motif":"","motif_pos":-1,"best_pos":2,"similarity":0.657,"stretto":false,"stretto_voices":0,"combination":[],"aug_dim":"","rhythm_ratio":1.0,"mirror":false,"chromatic_density":0.556,"complexity":0.548,"dissonance":0.2},{"voice":0,"pitch":72,"start":42.5,"duration":0.25,"velocity":127,"measure":22,"beat":2.0,"subject_pos":-1,"motif":"","motif_pos":-1,"best_pos":3,"similarity":0.729,"stretto":false,"stretto_voices":0,"combination":[],"aug_dim":"","rhythm_ratio":1.0,"mirror":false,"chromatic_density":0.556,"complexity":0.548,"dissonance":0.2},{"voice":0,"pitch":71,"start":42.75,"duration":0.25,"velocity":127,"measure":22,"beat":2.5,"subject_pos":-1,"motif":"","motif_pos":-1,"best_pos":4,"similarity":0.736,"stretto":false,"stretto_voices":0,"combination":[],"aug_dim":"","rhythm_ratio":1.0,"mirror":false,"chromatic_density":0.556,"complexity":0.548,"dissonance":0.2},{"voice":0,"pitch":72,"start":43.0,"duration":0.75,"velocity":127,"measure":22,"beat":3.0,"subject_pos":-1,"motif":"","motif_pos":-1,"best_pos":5,"similarity":0.507,"stretto":false,"stretto_voices":0,"combination":[],"aug_dim":"","rhythm_ratio":1.0,"mirror":false,"chromatic_density":0.556,"complexity":0.548,"dissonance":0.2},{"voice":2,"pitch":57,"start":43.0,"duration":0.75,"velocity":127,"measure":22,"beat":3.0,"subject_pos":7,"motif":"subject","motif_pos":7,"best_pos":7,"similarity":1.0,"stretto":true,"stretto_voices":2,"combination":[],"aug_dim":"","rhythm_ratio":1.0,"mirror":true,"chromatic_density":0.556,"complexity":0.548,"dissonance":0.2},{"voice":1,"pitch":71,"start":43.25,"duration":0.25,"velocity":127,"measure":22,"beat":3.5,"subject_pos":-1,"motif":"subject_inv","motif_pos":7,"best_pos":7,"similarity":1.0,"stretto":true,"stretto_voices":2,"combination":[],"aug_dim":"","rhythm_ratio":0.72,"mirror":true,"chromatic_density":0.556,"complexity":0.548,"dissonance":0.2},{"voice":1,"pitch":69,"start":43.5,"duration":0.25,"velocity":127,"measure":22,"beat":4.0,"subject_pos":8,"motif":"subject_inv","motif_pos":8,"best_pos":0,"similarity":1.0,"stretto":true,"stretto_voices":2,"combination":[],"aug_dim":"","rhythm_ratio":0.72,"mirror":true,"chromatic_density":0.556,"complexity":0.548,"dissonance":0.2},{"voice":0,"pitch":71,"start":43.75,"duration":0.25,"velocity":127,"measure":22,"beat":4.5,"subject_pos":-1,"motif":"","motif_pos":-1,"best_pos":4,"similarity":0.454,"stretto":false,"stretto_voices":0,"combination":[],"aug_dim":"","rhythm_ratio":1.0,"mirror":false,"chromatic_density":0.556,"complexity":0.548,"dissonance":0.2},{"voice":1,"pitch":68,"start":43.75,"duration":0.25,"velocity":127,"measure":22,"beat":4.5,"subject_pos":-1,"motif":"","motif_pos":-1,"best_pos":4,"similarity":0.682,"stretto":false,"stretto_voices":0,"combination":[],"aug_dim":"","rhythm_ratio":1.0,"mirror":false,"chromatic_density":0.556,"complexity":0.548,"dissonance":0.2},{"voice":2,"pitch":59,"start":43.75,"duration":0.25,"velocity":127,"measure":22,"beat":4.5,"subject_pos":8,"motif":"subject","motif_pos":8,"best_pos":0,"similarity":1.0,"stretto":false,"stretto_voices":0,"combination":[],"aug_dim":"","rhythm_ratio":1.0,"mirror":true,"chromatic_density":0.556,"complexity":0.548,"dissonance":0.2},{"voice":0,"pitch":69,"start":44.0,"duration":1.25,"velocity":127,"measure":23,"beat":1.0,"subject_pos":-1,"motif":"","motif_pos":-1,"best_pos":4,"similarity":0.493,"stretto":false,"stretto_voices":0,"combination":[],"aug_dim":"","rhythm_ratio":1.0,"mirror":false,"chromatic_density":0.308,"complexity":0.579,"dissonance":0.058},{"voice":1,"pitch":69,"start":44.0,"duration":0.25,"velocity":127,"measure":23,"beat":1.0,"subject_pos":-1,"motif":"","motif_pos":-1,"best_pos":5,"similarity":0.507,"stretto":false,"stretto_voices":0,"combination":[],"aug_dim":"","rhythm_ratio":1.0,"mirror":false,"chromatic_density":0.308,"complexity":0.579,"dissonance":0.058},{"voice":2,"pitch":60,"start":44.0,"duration":1.25,"velocity":127,"measure":23,"beat":1.0,"subject_pos":-1,"motif":"","motif_pos":-1,"best_pos":5,"similarity":0.607,"stretto":false,"stretto_voices":0,"combination":[],"aug_dim":"","rhythm_ratio":1.0,"mirror":false,"chromatic_density":0.308,"complexity":0.579,"dissonance":0.058},{"voice":3,"pitch":57,"start":44.0,"duration":1.0,"velocity":127,"measure":23,"beat":1.0,"subject_pos":0,"motif":"subject_inv","motif_pos":0,"best_pos":0,"similarity":1.0,"stretto":false,"stretto_voices":0,"combination":[],"aug_dim":"","rhythm_ratio":1.0,"mirror":true,"chromatic_density":0.308,"complexity":0.579,"dissonance":0.058},{"voice":1,"pitch":67,"start":44.25,"duration":0.25,"velocity":127,"measure":23,"beat":1.5,"subject_pos":-1,"motif":"","motif_pos":-1,"best_pos":2,"similarity":0.657,"stretto":false,"stretto_voices":0,"combination":[],"aug_dim":"","rhythm_ratio":1.0,"mirror":false,"chromatic_density":0.308,"complexity":0.579,"dissonance":0.058},{"voice":1,"pitch":65,"start":44.5,"duration":0.25,"velocity":127,"measure":23,"beat":2.0,"subject_pos":-1,"motif":"","motif_pos":-1,"best_pos":3,"similarity":0.793,"stretto":false,"stretto_voices":0,"combination":[],"aug_dim":"","rhythm_ratio":1.0,"mirror":false,"chromatic_density":0.308,"complexity":0.579,"dissonance":0.058},{"voice":1,"pitch":64,"start":44.75,"duration":0.25,"velocity":127,"measure":23,"beat":2.5,"subject_pos":-1,"motif":"","motif_pos":-1,"best_pos":4,"similarity":0.857,"stretto":false,"stretto_voices":0,"combination":[],"aug_dim":"","rhythm_ratio":1.0,"mirror":false,"chromatic_density":0.308,"complexity":0.579,"dissonance":0.058},{"voice":1,"pitch":65,"start":45.0,"duration":0.75,"velocity":127,"measure":23,"beat":3.0,"subject_pos":-1,"motif":"","motif_pos":-1,"best_pos":5,"similarity":0.75,"stretto":false,"stretto_voices":0,"combination":[],"aug_dim":"","rhythm_ratio":1.0,"mirror":false,"chromatic_density":0.308,"complexity":0.579,"dissonance":0.058},{"voice":3,"pitch":50,"start":45.0,"duration":0.75,"velocity":127,"measure":23,"beat":3.0,"subject_pos":1,"motif":"subject_inv","motif_pos":1,"best_pos":1,"similarity":1.0,"stretto":false,"stretto_voices":0,"combination":[],"aug_dim":"","rhythm_ratio":1.0,"mirror":true,"chromatic_density":0.308,"complexity":0.579,"dissonance":0.058},{"voice":0,"pitch":70,"start":45.25,"duration":0.25,"velocity":127,"measure":23,"beat":3.5,"subject_pos":-1,"motif":"","motif_pos":-1,"best_pos":3,"similarity":0.543,"stretto":false,"stretto_voices":0,"combination":[],"aug_dim":"","rhythm_ratio":1.0,"mirror":false,"chromatic_density":0.308,"complexity":0.579,"dissonance":0.058},{"voice":2,"pitch":62,"start":45.25,"duration":0.25,"velocity":127,"measure":23,"beat":3.5,"subject_pos":-1,"motif":"","motif_pos":-1,"best_pos":6,"similarity":0.464,"stretto":false,"stretto_voices":0,"combination":[],"aug_dim":"","rhythm_ratio":1.0,"mirror":false,"chromatic_density":0.308,"complexity":0.579,"dissonance":0.058},{"voice":0,"pitch":69,"start":45.5,"duration":0.25,"velocity":127,"measure":23,"beat":4.0,"subject_pos":-1,"motif":"","motif_pos":-1,"best_pos":4,"similarity":0.561,"stretto":false,"stretto_voices":0,"combination":[],"aug_dim":"","rhythm_ratio":1.0,"mirror":false,"chromatic_density":0.308,"complexity":0.579,"dissonance":0.058},{"voice":2,"pitch":60,"start":45.5,"duration":0.25,"velocity":127,"measure":23,"beat":4.0,"subject_pos":-1,"motif":"","motif_pos":-1,"best_pos":2,"similarity":0.586,"stretto":false,"stretto_voices":0,"combination":[],"aug_dim":"","rhythm_ratio":1.0,"mirror":false,"chromatic_density":0.308,"complexity":0.579,"dissonance":0.058},{"voice":0,"pitch":67,"start":45.75,"duration":0.25,"velocity":127,"measure":23,"beat":4.5,"subject_pos":-1,"motif":"","motif_pos":-1,"best_pos":5,"similarity":0.5,"stretto":false,"stretto_voices":0,"combination":[],"aug_dim":"","rhythm_ratio":1.0,"mirror":false,"chromatic_density":0.308,"complexity":0.579,"dissonance":0.058},{"voice":1,"pitch":67,"start":45.75,"duration":0.25,"velocity":127,"measure":23,"beat":4.5,"subject_pos":-1,"motif":"","motif_pos":-1,"best_pos":6,"similarity":0.5,"stretto":false,"stretto_voices":0,"combination":[],"aug_dim":"","rhythm_ratio":1.0,"mirror":false,"chromatic_density":0.308,"complexity":0.579,"dissonance":0.058},{"voice":2,"pitch":58,"start":45.75,"duration":0.25,"velocity":127,"measure":23,"beat":4.5,"subject_pos":-1,"motif":"enigmatic_cell","motif_pos":0,"best_pos":0,"similarity":1.0,"stretto":false,"stretto_voices":0,"combination":[],"aug_dim":"","rhythm_ratio":1.0,"mirror":false,"chromatic_density":0.308,"complexity":0.579,"dissonance":0.058},{"voice":3,"pitch":52,"start":45.75,"duration":0.25,"velocity":127,"measure":23,"beat":4.5,"subject_pos":2,"motif":"subject_inv","motif_pos":2,"best_pos":2,"similarity":1.0,"stretto":false,"stretto_voices":0,"combination":[],"aug_dim":"","rhythm_ratio":1.0,"mirror":true,"chromatic_density":0.308,"complexity":0.579,"dissonance":0.058},{"voice":0,"pitch":69,"start":46.0,"duration":0.25,"velocity":127,"measure":24,"beat":1.0,"subject_pos":-1,"motif":"","motif_pos":-1,"best_pos":5,"similarity":0.446,"stretto":false,"stretto_voices":0,"combination":[],"aug_dim":"","rhythm_ratio":1.0,"mirror":false,"chromatic_density":0.182,"complexity":0.613,"dissonance":0.036},{"voice":1,"pitch":60,"start":46.0,"duration":0.5,"velocity":127,"measure":24,"beat":1.0,"subject_pos":-1,"motif":"","motif_pos":-1,"best_pos":5,"similarity":0.307,"stretto":false,"stretto_voices":0,"combination":[],"aug_dim":"","rhythm_ratio":1.0,"mirror":false,"chromatic_density":0.182,"complexity":0.613,"dissonance":0.036},{"voice":2,"pitch":57,"start":46.0,"duration":1.0,"velocity":127,"measure":24,"beat":1.0,"subject_pos":-1,"motif":"enigmatic_cell","motif_pos":1,"best_pos":1,"similarity":1.0,"stretto":false,"stretto_voices":0,"combination":[],"aug_dim":"","rhythm_ratio":1.0,"mirror":false,"chromatic_density":0.182,"complexity":0.613,"dissonance":0.036},{"voice":3,"pitch":53,"start":46.0,"duration":0.75,"velocity":127,"measure":24,"beat":1.0,"subject_pos":3,"motif":"subject_inv","motif_pos":3,"best_pos":3,"similarity":1.0,"stretto":false,"stretto_voices":0,"combination":[],"aug_dim":"","rhythm_ratio":1.0,"mirror":true,"chromatic_density":0.182,"complexity":0.613,"dissonance":0.036},{"voice":0,"pitch":72,"start":46.25,"duration":0.25,"velocity":127,"measure":24,"beat":1.5,"subject_pos":-1,"motif":"","motif_pos":-1,"best_pos":5,"similarity":0.479,"stretto":false,"stretto_voices":0,"combination":[],"aug_dim":"","rhythm_ratio":1.0,"mirror":false,"chromatic_density":0.182,"complexity":0.613,"dissonance":0.036},{"voice":0,"pitch":74,"start":46.5,"duration":0.25,"velocity":127,"measure":24,"beat":2.0,"subject_pos":-1,"motif":"","motif_pos":-1,"best_pos":5,"similarity":0.586,"stretto":false,"stretto_voices":0,"combination":[],"aug_dim":"","rhythm_ratio":1.0,"mirror":false,"chromatic_density":0.182,"complexity":0.613,"dissonance":0.036},{"voice":0,"pitch":76,"start":46.75,"duration":0.25,"velocity":127,"measure":24,"beat":2.5,"subject_pos":-1,"motif":"","motif_pos":-1,"best_pos":6,"similarity":0.65,"stretto":false,"stretto_voices":0,"combination":[],"aug_dim":"","rhythm_ratio":1.0,"mirror":false,"chromatic_density":0.182,"complexity":0.613,"dissonance":0.036},{"voice":3,"pitch":55,"start":46.75,"duration":0.25,"velocity":127,"measure":24,"beat":2.5,"subject_pos":4,"motif":"subject_inv","motif_pos":4,"best_pos":4,"similarity":1.0,"stretto":false,"stretto_voices":0,"combination":[],"aug_dim":"","rhythm_ratio":1.0,"mirror":true,"chromatic_density":0.182,"complexity":0.613,"dissonance":0.036},{"voice":0,"pitch":77,"start":47.0,"duration":0.25,"velocity":127,"measure":24,"beat":3.0,"subject_pos":-1,"motif":"","motif_pos":-1,"best_pos":5,"similarity":0.657,"stretto":false,"stretto_voices":0,"combination":[],"aug_dim":"","rhythm_ratio":1.0,"mirror":false,"chromatic_density":0.182,"complexity":0.613,"dissonance":0.036},{"voice":3,"pitch":57,"start":47.0,"duration":1.0,"velocity":127,"measure":24,"beat":3.0,"subject_pos":5,"motif":"subject_inv","motif_pos":5,"best_pos":5,"similarity":1.0,"stretto":false,"stretto_voices":0,"combination":[],"aug_dim":"","rhythm_ratio":1.0,"mirror":true,"chromatic_density":0.182,"complexity":0.613,"dissonance":0.036},{"voice":0,"pitch":79,"start":47.25,"duration":0.25,"velocity":127,"measure":24,"beat":3.5,"subject_pos":-1,"motif":"","motif_pos":-1,"best_pos":6,"similarity":0.579,"stretto":false,"stretto_voices":0,"combination":[],"aug_dim":"","rhythm_ratio":1.0,"mirror":false,"chromatic_density":0.182,"complexity":0.613,"dissonance":0.036},{"voice":2,"pitch":64,"start":47.25,"duration":0.25,"velocity":127,"measure":24,"beat":3.5,"subject_pos":-1,"motif":"enigmatic_cell","motif_pos":2,"best_pos":2,"similarity":1.0,"stretto":false,"stretto_voices":0,"combination":[],"aug_dim":"","rhythm_ratio":1.0,"mirror":false,"chromatic_density":0.182,"complexity":0.613,"dissonance":0.036},{"voice":0,"pitch":81,"start":47.5,"duration":0.75,"velocity":127,"measure":24,"beat":4.0,"subject_pos":-1,"motif":"","motif_pos":-1,"best_pos":1,"similarity":0.457,"stretto":false,"stretto_voices":0,"combination":[],"aug_dim":"","rhythm_ratio":1.0,"mirror":false,"chromatic_density":0.182,"complexity":0.613,"dissonance":0.036},{"voice":2,"pitch":62,"start":47.5,"duration":0.25,"velocity":127,"measure":24,"beat":4.0,"subject_pos":-1,"motif":"","motif_pos":-1,"best_pos":3,"similarity":0.579,"stretto":false,"stretto_voices":0,"combination":[],"aug_dim":"","rhythm_ratio":1.0,"mirror":false,"chromatic_density":0.182,"complexity":0.613,"dissonance":0.036},{"voice":2,"pitch":61,"start":47.75,"duration":0.25,"velocity":127,"measure":24,"beat":4.5,"subject_pos":-1,"motif":"","motif_pos":-1,"best_pos":4,"similarity":0.675,"stretto":false,"stretto_voices":0,"combination":[],"aug_dim":"","rhythm_ratio":1.0,"mirror":false,"chromatic_density":0.182,"complexity":0.613,"dissonance":0.036},{"voice":2,"pitch":62,"start":48.0,"duration":1.25,"velocity":127,"measure":25,"beat":1.0,"subject_pos":-1,"motif":"","motif_pos":-1,"best_pos":5,"similarity":0.529,"stretto":false,"stretto_voices":0,"combination":[],"aug_dim":"","rhythm_ratio":1.0,"mirror":false,"chromatic_density":0.6,"complexity":0.612,"dissonance":0.118},{"voice":3,"pitch":58,"start":48.0,"duration":1.0,"velocity":127,"measure":25,"beat":1.0,"subject_pos":6,"motif":"subject_inv","motif_pos":6,"best_pos":6,"similarity":1.0,"stretto":false,"stretto_voices":0,"combination":[],"aug_dim":"","rhythm_ratio":1.0,"mirror":true,"chromatic_density":0.6,"complexity":0.612,"dissonance":0.118},{"voice":0,"pitch":79,"start":48.25,"duration":0.25,"velocity":127,"measure":25,"beat":1.5,"subject_pos":-1,"motif":"","motif_pos":-1,"best_pos":2,"similarity":0.657,"stretto":false,"stretto_voices":0,"combination":[],"aug_dim":"","rhythm_ratio":1.0,"mirror":false,"chromatic_density":0.6,"complexity":0.612,"dissonance":0.118},{"voice":0,"pitch":77,"start":48.5,"duration":0.25,"velocity":127,"measure":25,"beat":2.0,"subject_pos":-1,"motif":"","motif_pos":-1,"best_pos":3,"similarity":0.729,"stretto":false,"stretto_voices":0,"combination":[],"aug_dim":"","rhythm_ratio":1.0,"mirror":false,"chromatic_density":0.6,"complexity":0.612,"dissonance":0.118},{"voice":0,"pitch":76,"start":48.75,"duration":0.25,"velocity":127,"measure":25,"beat":2.5,"subject_pos":-1,"motif":"tail_inv","motif_pos":0,"best_pos":0,"similarity":1.0,"stretto":false,"stretto_voices":0,"combination":[],"aug_dim":"","rhythm_ratio":1.0,"mirror":false,"chromatic_density":0.6,"complexity":0.612,"dissonance":0.118},{"voice":0,"pitch":77,"start":49.0,"duration":0.25,"velocity":127,"measure":25,"beat":3.0,"subject_pos":-1,"motif":"tail_inv","motif_pos":1,"best_pos":1,"similarity":1.0,"stretto":false,"stretto_voices":0,"combination":[],"aug_dim":"","rhythm_ratio":1.0,"mirror":false,"chromatic_density":0.6,"complexity":0.612,"dissonance":0.118},{"voice":3,"pitch":57,"start":49.0,"duration":0.75,"velocity":127,"measure":25,"beat":3.0,"subject_pos":7,"motif":"subject_inv","motif_pos":7,"best_pos":7,"similarity":1.0,"stretto":false,"stretto_voices":0,"combination":[],"aug_dim":"","rhythm_ratio":1.0,"mirror":false,"chromatic_density":0.6,"complexity":0.612,"dissonance":0.118},{"voice":0,"pitch":76,"start":49.25,"duration":0.25,"velocity":127,"measure":25,"beat":3.5,"subject_pos":-1,"motif":"tail_inv","motif_pos":2,"best_pos":2,"similarity":1.0,"stretto":false,"stretto_voices":0,"combination":[],"aug_dim":"","rhythm_ratio":1.0,"mirror":false,"chromatic_density":0.6,"complexity":0.612,"dissonance":0.118},{"voice":2,"pitch":61,"start":49.25,"duration":0.25,"velocity":127,"measure":25,"beat":3.5,"subject_pos":-1,"motif":"","motif_pos":-1,"best_pos":4,"similarity":0.414,"stretto":false,"stretto_voices":0,"combination":[],"aug_dim":"","rhythm_ratio":1.0,"mirror":false,"chromatic_density":0.6,"complexity":0.612,"dissonance":0.118},{"voice":0,"pitch":74,"start":49.5,"duration":0.25,"velocity":127,"measure":25,"beat":4.0,"subject_pos":-1,"motif":"tail_inv","motif_pos":3,"best_pos":3,"similarity":1.0,"stretto":false,"stretto_voices":0,"combination":[],"aug_dim":"","rhythm_ratio":1.0,"mirror":false,"chromatic_density":0.6,"complexity":0.612,"dissonance":0.118},{"voice":2,"pitch":64,"start":49.5,"duration":0.5,"velocity":127,"measure":25,"beat":4.0,"subject_pos":-1,"motif":"","motif_pos":-1,"best_pos":5,"similarity":0.236,"stretto":false,"stretto_voices":0,"combination":[],"aug_dim":"","rhythm_ratio":1.0,"mirror":false,"chromatic_density":0.6,"complexity":0.612,"dissonance":0.118},{"voice":0,"pitch":73,"start":49.75,"duration":0.25,"velocity":127,"measure":25,"beat":4.5,"subject_pos":-1,"motif":"tail_inv","motif_pos":4,"best_pos":4,"similarity":1.0,"stretto":false,"stretto_voices":0,"combination":[],"aug_dim":"","rhythm_ratio":1.0,"mirror":false,"chromatic_density":0.6,"complexity":0.612,"dissonance":0.118},{"voice":3,"pitch":55,"start":49.75,"duration":0.25,"velocity":127,"measure":25,"beat":4.5,"subject_pos":8,"motif":"subject_inv","motif_pos":8,"best_pos":0,"similarity":1.0,"stretto":false,"stretto_voices":0,"combination":[],"aug_dim":"","rhythm_ratio":1.0,"mirror":false,"chromatic_density":0.6,"complexity":0.612,"dissonance":0.118},{"voice":0,"pitch":74,"start":50.0,"duration":0.25,"velocity":127,"measure":26,"beat":1.0,"subject_pos":-1,"motif":"","motif_pos":-1,"best_pos":5,"similarity":0.536,"stretto":false,"stretto_voices":0,"combination":[],"aug_dim":"","rhythm_ratio":1.0,"mirror":false,"chromatic_density":0.3,"complexity":0.602,"dissonance":0.058},{"voice":1,"pitch":62,"start":50.0,"duration":1.0,"velocity":127,"measure":26,"beat":1.0,"subject_pos":0,"motif":"subject","motif_pos":0,"best_pos":0,"similarity":1.0,"stretto":false,"stretto_voices":0,"combination":[],"aug_dim":"","rhythm_ratio":1.0,"mirror":false,"chromatic_density":0.3,"complexity":0.602,"dissonance":0.058},{"voice":2,"pitch":57,"start":50.0,"duration":1.5,"velocity":127,"measure":26,"beat":1.0,"subject_pos":-1,"motif":"","motif_pos":-1,"best_pos":0,"similarity":0.464,"stretto":false,"stretto_voices":0,"combination":[],"aug_dim":"","rhythm_ratio":1.0,"mirror":false,"chromatic_density":0.3,"complexity":0.602,"dissonance":0.058},{"voice":3,"pitch":53,"start":50.0,"duration":1.25,"velocity":127,"measure":26,"beat":1.0,"subject_pos":-1,"motif":"","motif_pos":-1,"best_pos":3,"similarity":0.786,"stretto":false,"stretto_voices":0,"combination":[],"aug_dim":"","rhythm_ratio":1.0,"mirror":false,"chromatic_density":0.3,"complexity":0.602,"dissonance":0.058},{"voice":0,"pitch":69,"start":50.25,"duration":0.25,"velocity":127,"measure":26,"beat":1.5,"subject_pos":-1,"motif":"","motif_pos":-1,"best_pos":4,"similarity":0.436,"stretto":false,"stretto_voices":0,"combination":[],"aug_dim":"","rhythm_ratio":1.0,"mirror":false,"chromatic_density":0.3,"complexity":0.602,"dissonance":0.058},{"voice":0,"pitch":71,"start":50.5,"duration":0.25,"velocity":127,"measure":26,"beat":2.0,"subject_pos":-1,"motif":"","motif_pos":-1,"best_pos":5,"similarity":0.593,"stretto":false,"stretto_voices":0,"combination":[],"aug_dim":"","rhythm_ratio":1.0,"mirror":false,"chromatic_density":0.3,"complexity":0.602,"dissonance":0.058},{"voice":0,"pitch":73,"start":50.75,"duration":0.25,"velocity":127,"measure":26,"beat":2.5,"subject_pos":-1,"motif":"","motif_pos":-1,"best_pos":6,"similarity":0.65,"stretto":false,"stretto_voices":0,"combination":[],"aug_dim":"","rhythm_ratio":1.0,"mirror":false,"chromatic_density":0.3,"complexity":0.602,"dissonance":0.058},{"voice":0,"pitch":74,"start":51.0,"duration":1.25,"velocity":127,"measure":26,"beat":3.0,"subject_pos":-1,"motif":"","motif_pos":-1,"best_pos":7,"similarity":0.464,"stretto":false,"stretto_voices":0,"combination":[],"aug_dim":"","rhythm_ratio":1.0,"mirror":false,"chromatic_density":0.3,"complexity":0.602,"dissonance":0.058},{"voice":1,"pitch":69,"start":51.0,"duration":0.75,"velocity":127,"measure":26,"beat":3.0,"subject_pos":1,"motif":"subject","motif_pos":1,"best_pos":1,"similarity":1.0,"stretto":false,"stretto_voices":0,"combination":[],"aug_dim":"","rhythm_ratio":1.0,"mirror":false,"chromatic_density":0.3,"complexity":0.602,"dissonance":0.058},{"voice":3,"pitch":52,"start":51.25,"duration":0.25,"velocity":127,"measure":26,"beat":3.5,"subject_pos":-1,"motif":"","motif_pos":-1,"best_pos":4,"similarity":0.893,"stretto":false,"stretto_voices":0,"combination":[],"aug_dim":"","rhythm_ratio":1.0,"mirror":false,"chromatic_density":0.3,"complexity":0.602,"dissonance":0.058},{"voice":2,"pitch":62,"start":51.5,"duration":1.25,"velocity":127,"measure":26,"beat":4.0,"subject_pos":-1,"motif":"","motif_pos":-1,"best_pos":1,"similarity":0.679,"stretto":false,"stretto_voices":0,"combination":[],"aug_dim":"","rhythm_ratio":1.0,"mirror":false,"chromatic_density":0.3,"complexity":0.602,"dissonance":0.058},{"voice":3,"pitch":53,"start":51.5,"duration":0.25,"velocity":127,"measure":26,"beat":4.0,"subject_pos":-1,"motif":"","motif_pos":-1,"best_pos":5,"similarity":0.821,"stretto":false,"stretto_voices":0,"combination":[],"aug_dim":"","rhythm_ratio":1.0,"mirror":false,"chromatic_density":0.3,"complexity":0.602,"dissonance":0.058},{"voice":1,"pitch":67,"start":51.75,"duration":0.25,"velocity":127,"measure":26,"beat":4.5,"subject_pos":2,"motif":"subject","motif_pos":2,"best_pos":2,"similarity":1.0,"stretto":false,"stretto_voices":0,"combination":[],"aug_dim":"","rhythm_ratio":1.0,"mirror":false,"chromatic_density":0.3,"complexity":0.602,"dissonance":0.058},{"voice":3,"pitch":55,"start":51.75,"duration":0.25,"velocity":127,"measure":26,"beat":4.5,"subject_pos":-1,"motif":"","motif_pos":-1,"best_pos":6,"similarity":0.643,"stretto":false,"stretto_voices":0,"combination":[],"aug_dim":"","rhythm_ratio":1.0,"mirror":false,"chromatic_density":0.3,"complexity":0.602,"dissonance":0.058},{"voice":1,"pitch":65,"start":52.0,"duration":0.75,"velocity":127,"measure":27,"beat":1.0,"subject_pos":3,"motif":"subject","motif_pos":3,"best_pos":3,"similarity":1.0,"stretto":false,"stretto_voices":0,"combination":[],"aug_dim":"","rhythm_ratio":1.0,"mirror":false,"chromatic_density":0.25,"complexity":0.578,"dissonance":0.088},{"voice":3,"pitch":57,"start":52.0,"duration":1.0,"velocity":127,"measure":27,"beat":1.0,"subject_pos":-1,"motif":"","motif_pos":-1,"best_pos":6,"similarity":0.518,"stretto":false,"stretto_voices":0,"combination":[],"aug_dim":"","rhythm_ratio":1.0,"mirror":false,"chromatic_density":0.25,"complexity":0.578,"dissonance":0.088},{"voice":0,"pitch":72,"start":52.25,"duration":0.25,"velocity":127,"measure":27,"beat":1.5,"subject_pos":-1,"motif":"","motif_pos":-1,"best_pos":2,"similarity":0.593,"stretto":false,"stretto_voices":0,"combination":[],"aug_dim":"","rhythm_ratio":1.0,"mirror":false,"chromatic_density":0.25,"complexity":0.578,"dissonance":0.088},{"voice":0,"pitch":70,"start":52.5,"duration":0.25,"velocity":127,"measure":27,"beat":2.0,"subject_pos":-1,"motif":"","motif_pos":-1,"best_pos":3,"similarity":0.6,"stretto":false,"stretto_voices":0,"combination":[],"aug_dim":"","rhythm_ratio":1.0,"mirror":false,"chromatic_density":0.25,"complexity":0.578,"dissonance":0.088},{"voice":0,"pitch":69,"start":52.75,"duration":0.25,"velocity":127,"measure":27,"beat":2.5,"subject_pos":-1,"motif":"","motif_pos":-1,"best_pos":4,"similarity":0.479,"stretto":false,"stretto_voices":0,"combination":[],"aug_dim":"","rhythm_ratio":1.0,"mirror":false,"chromatic_density":0.25,"complexity":0.578,"dissonance":0.088},{"voice":1,"pitch":64,"start":52.75,"duration":0.25,"velocity":127,"measure":27,"beat":2.5,"subject_pos":4,"motif":"subject","motif_pos":4,"best_pos":4,"similarity":1.0,"stretto":false,"stretto_voices":0,"combination":[],"aug_dim":"","rhythm_ratio":1.0,"mirror":false,"chromatic_density":0.25,"complexity":0.578,"dissonance":0.088},{"voice":2,"pitch":60,"start":52.75,"duration":0.25,"velocity":127,"measure":27,"beat":2.5,"subject_pos":-1,"motif":"","motif_pos":-1,"best_pos":2,"similarity":0.661,"stretto":false,"stretto_voices":0,"combination":[],"aug_dim":"","rhythm_ratio":1.0,"mirror":false,"chromatic_density":0.25,"complexity":0.578,"dissonance":0.088},{"voice":0,"pitch":67,"start":53.0,"duration":2.25,"velocity":127,"measure":27,"beat":3.0,"subject_pos":-1,"motif":"","motif_pos":-1,"best_pos":2,"similarity":0.446,"stretto":false,"stretto_voices":0,"combination":[],"aug_dim":"","rhythm_ratio":1.0,"mirror":false,"chromatic_density":0.25,"complexity":0.578,"dissonance":0.088},{"voice":1,"pitch":62,"start":53.0,"duration":1.0,"velocity":127,"measure":27,"beat":3.0,"subject_pos":5,"motif":"subject","motif_pos":5,"best_pos":5,"similarity":1.0,"stretto":false,"stretto_voices":0,"combination":[],"aug_dim":"","rhythm_ratio":1.0,"mirror":false,"chromatic_density":0.25,"complexity":0.578,"dissonance":0.088},{"voice":2,"pitch":58,"start":53.0,"duration":1.25,"velocity":127,"measure":27,"beat":3.0,"subject_pos":-1,"motif":"","motif_pos":-1,"best_pos":3,"similarity":0.543,"stretto":false,"stretto_voices":0,"combination":[],"aug_dim":"","rhythm_ratio":1.0,"mirror":false,"chromatic_density":0.25,"complexity":0.578,"dissonance":0.088},{"voice":3,"pitch":57,"start":53.25,"duration":0.25,"velocity":127,"measure":27,"beat":3.5,"subject_pos":-1,"motif":"","motif_pos":-1,"best_pos":1,"similarity":0.429,"stretto":false,"stretto_voices":0,"combination":[],"aug_dim":"","rhythm_ratio":1.0,"mirror":false,"chromatic_density":0.25,"complexity":0.578,"dissonance":0.088},{"voice":3,"pitch":55,"start":53.5,"duration":0.25,"velocity":127,"measure":27,"beat":4.0,"subject_pos":-1,"motif":"","motif_pos":-1,"best_pos":2,"similarity":0.579,"stretto":false,"stretto_voices":0,"combination":[],"aug_dim":"","rhythm_ratio":1.0,"mirror":false,"chromatic_density":0.25,"complexity":0.578,"dissonance":0.088},{"voice":3,"pitch":53,"start":53.75,"duration":0.25,"velocity":127,"measure":27,"beat":4.5,"subject_pos":-1,"motif":"","motif_pos":-1,"best_pos":3,"similarity":0.604,"stretto":false,"stretto_voices":0,"combination":[],"aug_dim":"","rhythm_ratio":1.0,"mirror":false,"chromatic_density":0.25,"complexity":0.578,"dissonance":0.088},{"voice":1,"pitch":61,"start":54.0,"duration":1.0,"velocity":127,"measure":28,"beat":1.0,"subject_pos":6,"motif":"subject","motif_pos":6,"best_pos":6,"similarity":1.0,"stretto":false,"stretto_voices":0,"combination":[],"aug_dim":"","rhythm_ratio":1.0,"mirror":false,"chromatic_density":0.25,"complexity":0.577,"dissonance":0.126},{"voice":3,"pitch":52,"start":54.0,"duration":1.0,"velocity":127,"measure":28,"beat":1.0,"subject_pos":-1,"motif":"","motif_pos":-1,"best_pos":4,"similarity":0.5,"stretto":false,"stretto_voices":0,"combination":[],"aug_dim":"","rhythm_ratio":1.0,"mirror":false,"chromatic_density":0.25,"complexity":0.577,"dissonance":0.126},{"voice":2,"pitch":58,"start":54.25,"duration":0.25,"velocity":127,"measure":28,"beat":1.5,"subject_pos":-1,"motif":"","motif_pos":-1,"best_pos":3,"similarity":0.543,"stretto":false,"stretto_voices":0,"combination":[],"aug_dim":"","rhythm_ratio":1.0,"mirror":false,"chromatic_density":0.25,"complexity":0.577,"dissonance":0.126},{"voice":2,"pitch":57,"start":54.5,"duration":0.25,"velocity":127,"measure":28,"beat":2.0,"subject_pos":-1,"motif":"","motif_pos":-1,"best_pos":4,"similarity":0.55,"stretto":false,"stretto_voices":0,"combination":[],"aug_dim":"","rhythm_ratio":1.0,"mirror":false,"chromatic_density":0.25,"complexity":0.577,"dissonance":0.126},{"voice":2,"pitch":55,"start":54.75,"duration":0.25,"velocity":127,"measure":28,"beat":2.5,"subject_pos":-1,"motif":"","motif_pos":-1,"best_pos":5,"similarity":0.479,"stretto":false,"stretto_voices":0,"combination":[],"aug_dim":"","rhythm_ratio":1.0,"mirror":false,"chromatic_density":0.25,"complexity":0.577,"dissonance":0.126},{"voice":1,"pitch":62,"start":55.0,"duration":0.75,"velocity":127,"measure":28,"beat":3.0,"subject_pos":7,"motif":"subject","motif_pos":7,"best_pos":7,"similarity":1.0,"stretto":false,"stretto_voices":0,"combination":[],"aug_dim":"","rhythm_ratio":1.0,"mirror":false,"chromatic_density":0.25,"complexity":0.577,"dissonance":0.126},{"voice":2,"pitch":57,"start":55.0,"duration":0.75,"velocity":127,"measure":28,"beat":3.0,"subject_pos":-1,"motif":"","motif_pos":-1,"best_pos":6,"similarity":0.4,"stretto":false,"stretto_voices":0,"combination":[],"aug_dim":"","rhythm_ratio":1.0,"mirror":false,"chromatic_density":0.25,"complexity":0.577,"dissonance":0.126},{"voice":3,"pitch":50,"start":55.0,"duration":1.25,"velocity":127,"measure":28,"beat":3.0,"subject_pos":-1,"motif":"","motif_pos":-1,"best_pos":4,"similarity":0.414,"stretto":false,"stretto_voices":0,"combination":[],"aug_dim":"","rhythm_ratio":1.0,"mirror":false,"chromatic_density":0.25,"complexity":0.577,"dissonance":0.126},{"voice":0,"pitch":65,"start":55.25,"duration":0.25,"velocity":127,"measure":28,"beat":3.5,"subject_pos":-1,"motif":"","motif_pos":-1,"best_pos":2,"similarity":0.446,"stretto":false,"stretto_voices":0,"combination":[],"aug_dim":"","rhythm_ratio":1.0,"mirror":false,"chromatic_density":0.25,"complexity":0.577,"dissonance":0.126},{"voice":0,"pitch":70,"start":55.5,"duration":0.5,"velocity":127,"measure":28,"beat":4.0,"subject_pos":-1,"motif":"","motif_pos":-1,"best_pos":3,"similarity":0.464,"stretto":false,"stretto_voices":0,"combination":[],"aug_dim":"","rhythm_ratio":1.0,"mirror":false,"chromatic_density":0.25,"complexity":0.577,"dissonance":0.126},{"voice":1,"pitch":64,"start":55.75,"duration":0.25,"velocity":127,"measure":28,"beat":4.5,"subject_pos":8,"motif":"subject","motif_pos":8,"best_pos":0,"similarity":1.0,"stretto":false,"stretto_voices":0,"combination":[],"aug_dim":"","rhythm_ratio":1.0,"mirror":false,"chromatic_density":0.25,"complexity":0.577,"dissonance":0.126},{"voice":2,"pitch":55,"start":55.75,"duration":0.25,"velocity":127,"measure":28,"beat":4.5,"subject_pos":-1,"motif":"","motif_pos":-1,"best_pos":5,"similarity":0.507,"stretto":false,"stretto_voices":0,"combination":[],"aug_dim":"","rhythm_ratio":1.0,"mirror":false,"chromatic_density":0.25,"complexity":0.577,"dissonance":0.126},{"voice":0,"pitch":69,"start":56.0,"duration":0.5,"velocity":127,"measure":29,"beat":1.0,"subject_pos":-1,"motif":"","motif_pos":-1,"best_pos":4,"similarity":0.464,"stretto":false,"stretto_voices":0,"combination":[],"aug_dim":"","rhythm_ratio":1.0,"mirror":false,"chromatic_density":0.25,"complexity":0.468,"dissonance":0.067},{"voice":1,"pitch":65,"start":56.0,"duration":1.25,"velocity":127,"measure":29,"beat":1.0,"subject_pos":-1,"motif":"","motif_pos":-1,"best_pos":5,"similarity":0.607,"stretto":false,"stretto_voices":0,"combination":[],"aug_dim":"","rhythm_ratio":1.0,"mirror":false,"chromatic_density":0.25,"complexity":0.468,"dissonance":0.067},{"voice":2,"pitch":57,"start":56.0,"duration":0.5,"velocity":127,"measure":29,"beat":1.0,"subject_pos":-1,"motif":"","motif_pos":-1,"best_pos":6,"similarity":0.593,"stretto":false,"stretto_voices":0,"combination":[],"aug_dim":"","rhythm_ratio":1.0,"mirror":false,"chromatic_density":0.25,"complexity":0.468,"dissonance":0.067},{"voice":3,"pitch":50,"start":56.25,"duration":0.25,"velocity":127,"measure":29,"beat":1.5,"subject_pos":-1,"motif":"","motif_pos":-1,"best_pos":1,"similarity":0.429,"stretto":false,"stretto_voices":0,"combination":[],"aug_dim":"","rhythm_ratio":1.0,"mirror":false,"chromatic_density":0.25,"complexity":0.468,"dissonance":0.067},{"voice":2,"pitch":58,"start":56.5,"duration":0.5,"velocity":127,"measure":29,"beat":2.0,"subject_pos":-1,"motif":"","motif_pos":-1,"best_pos":5,"similarity":0.636,"stretto":false,"stretto_voices":0,"combination":[],"aug_dim":"","rhythm_ratio":1.0,"mirror":false,"chromatic_density":0.25,"complexity":0.468,"dissonance":0.067},{"voice":3,"pitch":48,"start":56.5,"duration":0.25,"velocity":127,"measure":29,"beat":2.0,"subject_pos":-1,"motif":"","motif_pos":-1,"best_pos":2,"similarity":0.643,"stretto":false,"stretto_voices":0,"combination":[],"aug_dim":"","rhythm_ratio":1.0,"mirror":false,"chromatic_density":0.25,"complexity":0.468,"dissonance":0.067},{"voice":3,"pitch":46,"start":56.75,"duration":0.25,"velocity":127,"measure":29,"beat":2.5,"subject_pos":-1,"motif":"","motif_pos":-1,"best_pos":3,"similarity":0.732,"stretto":false,"stretto_voices":0,"combination":[],"aug_dim":"","rhythm_ratio":1.0,"mirror":false,"chromatic_density":0.25,"complexity":0.468,"dissonance":0.067},{"voice":2,"pitch":60,"start":57.0,"duration":1.25,"velocity":127,"measure":29,"beat":3.0,"subject_pos":-1,"motif":"","motif_pos":-1,"best_pos":6,"similarity":0.464,"stretto":false,"stretto_voices":0,"combination":[],"aug_dim":"","rhythm_ratio":1.0,"mirror":false,"chromatic_density":0.25,"complexity":0.468,"dissonance":0.067},{"voice":3,"pitch":45,"start":57.0,"duration":1.0,"velocity":127,"measure":29,"beat":3.0,"subject_pos":-1,"motif":"","motif_pos":-1,"best_pos":4,"similarity":0.768,"stretto":false,"stretto_voices":0,"combination":[],"aug_dim":"","rhythm_ratio":1.0,"mirror":false,"chromatic_density":0.25,"complexity":0.468,"dissonance":0.067},{"voice":1,"pitch":67,"start":57.25,"duration":0.25,"velocity":127,"measure":29,"beat":3.5,"subject_pos":-1,"motif":"","motif_pos":-1,"best_pos":6,"similarity":0.464,"stretto":false,"stretto_voices":0,"combination":[],"aug_dim":"","rhythm_ratio":1.0,"mirror":false,"chromatic_density":0.25,"complexity":0.468,"dissonance":0.067},{"voice":1,"pitch":65,"start":57.5,"duration":0.25,"velocity":127,"measure":29,"beat":4.0,"subject_pos":-1,"motif":"","motif_pos":-1,"best_pos":2,"similarity":0.657,"stretto":false,"stretto_voices":0,"combination":[],"aug_dim":"","rhythm_ratio":1.0,"mirror":false,"chromatic_density":0.25,"complexity":0.468,"dissonance":0.067},{"voice":1,"pitch":63,"start":57.75,"duration":0.25,"velocity":127,"measure":29,"beat":4.5,"subject_pos":-1,"motif":"","motif_pos":-1,"best_pos":3,"similarity":0.729,"stretto":false,"stretto_voices":0,"combination":[],"aug_dim":"","rhythm_ratio":1.0,"mirror":false,"chromatic_density":0.25,"complexity":0.468,"dissonance":0.067},{"voice":1,"pitch":62,"start":58.0,"duration":2.25,"velocity":127,"measure":30,"beat":1.0,"subject_pos":-1,"motif":"","motif_pos":-1,"best_pos":4,"similarity":0.736,"stretto":false,"stretto_voices":0,"combination":[],"aug_dim":"","rhythm_ratio":1.0,"mirror":false,"chromatic_density":0.333,"complexity":0.414,"dissonance":0.068},{"voice":3,"pitch":46,"start":58.0,"duration":1.25,"velocity":127,"measure":30,"beat":1.0,"subject_pos":-1,"motif":"","motif_pos":-1,"best_pos":5,"similarity":0.571,"stretto":false,"stretto_voices":0,"combination":[],"aug_dim":"","rhythm_ratio":1.0,"mirror":false,"chromatic_density":0.333,"complexity":0.414,"dissonance":0.068},{"voice":2,"pitch":58,"start":58.25,"duration":0.25,"velocity":127,"measure":30,"beat":1.5,"subject_pos":-1,"motif":"","motif_pos":-1,"best_pos":3,"similarity":0.471,"stretto":false,"stretto_voices":0,"combination":[],"aug_dim":"","rhythm_ratio":1.0,"mirror":false,"chromatic_density":0.333,"complexity":0.414,"dissonance":0.068},{"voice":2,"pitch":57,"start":58.5,"duration":0.25,"velocity":127,"measure":30,"beat":2.0,"subject_pos":-1,"motif":"","motif_pos":-1,"best_pos":3,"similarity":0.45,"stretto":false,"stretto_voices":0,"combination":[],"aug_dim":"","rhythm_ratio":1.0,"mirror":false,"chromatic_density":0.333,"complexity":0.414,"dissonance":0.068},{"voice":2,"pitch":55,"start":58.75,"duration":0.25,"velocity":127,"measure":30,"beat":2.5,"subject_pos":-1,"motif":"","motif_pos":-1,"best_pos":3,"similarity":0.5,"stretto":false,"stretto_voices":0,"combination":[],"aug_dim":"","rhythm_ratio":1.0,"mirror":false,"chromatic_density":0.333,"complexity":0.414,"dissonance":0.068},{"voice":2,"pitch":53,"start":59.0,"duration":0.5,"velocity":127,"measure":30,"beat":3.0,"subject_pos":-1,"motif":"","motif_pos":-1,"best_pos":4,"similarity":0.543,"stretto":false,"stretto_voices":0,"combination":[],"aug_dim":"","rhythm_ratio":1.0,"mirror":false,"chromatic_density":0.333,"complexity":0.414,"dissonance":0.068},{"voice":3,"pitch":46,"start":59.25,"duration":0.25,"velocity":127,"measure":30,"beat":3.5,"subject_pos":-1,"motif":"","motif_pos":-1,"best_pos":6,"similarity":0.357,"stretto":false,"stretto_voices":0,"combination":[],"aug_dim":"","rhythm_ratio":1.0,"mirror":false,"chromatic_density":0.333,"complexity":0.414,"dissonance":0.068},{"voice":2,"pitch":55,"start":59.5,"duration":0.5,"velocity":127,"measure":30,"beat":4.0,"subject_pos":-1,"motif":"","motif_pos":-1,"best_pos":5,"similarity":0.55,"stretto":false,"stretto_voices":0,"combination":[],"aug_dim":"","rhythm_ratio":1.0,"mirror":false,"chromatic_density":0.333,"complexity":0.414,"dissonance":0.068},{"voice":3,"pitch":45,"start":59.5,"duration":0.25,"velocity":127,"measure":30,"beat":4.0,"subject_pos":-1,"motif":"","motif_pos":-1,"best_pos":2,"similarity":0.5,"stretto":false,"stretto_voices":0,"combination":[],"aug_dim":"","rhythm_ratio":1.0,"mirror":false,"chromatic_density":0.333,"complexity":0.414,"dissonance":0.068},{"voice":3,"pitch":43,"start":59.75,"duration":0.25,"velocity":127,"measure":30,"beat":4.5,"subject_pos":-1,"motif":"","motif_pos":-1,"best_pos":3,"similarity":0.661,"stretto":false,"stretto_voices":0,"combination":[],"aug_dim":"","rhythm_ratio":1.0,"mirror":false,"chromatic_density":0.333,"complexity":0.414,"dissonance":0.068},{"voice":2,"pitch":57,"start":60.0,"duration":1.25,"velocity":127,"measure":31,"beat":1.0,"subject_pos":-1,"motif":"","motif_pos":-1,"best_pos":1,"similarity":0.457,"stretto":false,"stretto_voices":0,"combination":[],"aug_dim":"","rhythm_ratio":1.0,"mirror":false,"chromatic_density":0.429,"complexity":0.393,"dissonance":0.2},{"voice":3,"pitch":42,"start":60.0,"duration":1.0,"velocity":127,"measure":31,"beat":1.0,"subject_pos":-1,"motif":"","motif_pos":-1,"best_pos":4,"similarity":0.721,"stretto":false,"stretto_voices":0,"combination":[],"aug_dim":"","rhythm_ratio":1.0,"mirror":false,"chromatic_density":0.429,"complexity":0.393,"dissonance":0.2},{"voice":1,"pitch":63,"start":60.25,"duration":0.25,"velocity":127,"measure":31,"beat":1.5,"subject_pos":-1,"motif":"","motif_pos":-1,"best_pos":5,"similarity":0.507,"stretto":false,"stretto_voices":0,"combination":[],"aug_dim":"","rhythm_ratio":1.0,"mirror":false,"chromatic_density":0.429,"complexity":0.393,"dissonance":0.2},{"voice":1,"pitch":62,"start":60.5,"duration":0.25,"velocity":127,"measure":31,"beat":2.0,"subject_pos":-1,"motif":"","motif_pos":-1,"best_pos":4,"similarity":0.386,"stretto":false,"stretto_voices":0,"combination":[],"aug_dim":"","rhythm_ratio":1.0,"mirror":false,"chromatic_density":0.429,"complexity":0.393,"dissonance":0.2},{"voice":1,"pitch":60,"start":60.75,"duration":0.25,"velocity":127,"measure":31,"beat":2.5,"subject_pos":-1,"motif":"","motif_pos":-1,"best_pos":2,"similarity":0.436,"stretto":false,"stretto_voices":0,"combination":[],"aug_dim":"","rhythm_ratio":1.0,"mirror":false,"chromatic_density":0.429,"complexity":0.393,"dissonance":0.2},{"voice":1,"pitch":58,"start":61.0,"duration":2.25,"velocity":127,"measure":31,"beat":3.0,"subject_pos":-1,"motif":"","motif_pos":-1,"best_pos":2,"similarity":0.364,"stretto":false,"stretto_voices":0,"combination":[],"aug_dim":"","rhythm_ratio":1.0,"mirror":false,"chromatic_density":0.429,"complexity":0.393,"dissonance":0.2},{"voice":3,"pitch":43,"start":61.0,"duration":1.25,"velocity":127,"measure":31,"beat":3.0,"subject_pos":-1,"motif":"","motif_pos":-1,"best_pos":5,"similarity":0.55,"stretto":false,"stretto_voices":0,"combination":[],"aug_dim":"","rhythm_ratio":1.0,"mirror":false,"chromatic_density":0.429,"complexity":0.393,"dissonance":0.2},{"voice":2,"pitch":55,"start":61.25,"duration":0.25,"velocity":127,"measure":31,"beat":3.5,"subject_pos":-1,"motif":"","motif_pos":-1,"best_pos":2,"similarity":0.593,"stretto":false,"stretto_voices":0,"combination":[],"aug_dim":"","rhythm_ratio":1.0,"mirror":false,"chromatic_density":0.429,"complexity":0.393,"dissonance":0.2},{"voice":2,"pitch":53,"start":61.5,"duration":0.25,"velocity":127,"measure":31,"beat":4.0,"subject_pos":-1,"motif":"","motif_pos":-1,"best_pos":3,"similarity":0.664,"stretto":false,"stretto_voices":0,"combination":[],"aug_dim":"","rhythm_ratio":1.0,"mirror":false,"chromatic_density":0.429,"complexity":0.393,"dissonance":0.2},{"voice":2,"pitch":52,"start":61.75,"duration":0.25,"velocity":127,"measure":31,"beat":4.5,"subject_pos":-1,"motif":"","motif_pos":-1,"best_pos":4,"similarity":0.671,"stretto":false,"stretto_voices":0,"combination":[],"aug_dim":"","rhythm_ratio":1.0,"mirror":false,"chromatic_density":0.429,"complexity":0.393,"dissonance":0.2},{"voice":2,"pitch":50,"start":62.0,"duration":0.5,"velocity":127,"measure":32,"beat":1.0,"subject_pos":-1,"motif":"","motif_pos":-1,"best_pos":5,"similarity":0.636,"stretto":false,"stretto_voices":0,"combination":[],"aug_dim":"","rhythm_ratio":1.0,"mirror":false,"chromatic_density":0.222,"complexity":0.38,"dissonance":0.138},{"voice":3,"pitch":43,"start":62.25,"duration":0.25,"velocity":127,"measure":32,"beat":1.5,"subject_pos":-1,"motif":"","motif_pos":-1,"best_pos":2,"similarity":0.379,"stretto":false,"stretto_voices":0,"combination":[],"aug_dim":"","rhythm_ratio":1.0,"mirror":false,"chromatic_density":0.222,"complexity":0.38,"dissonance":0.138},{"voice":2,"pitch":52,"start":62.5,"duration":0.5,"velocity":127,"measure":32,"beat":2.0,"subject_pos":-1,"motif":"","motif_pos":-1,"best_pos":6,"similarity":0.657,"stretto":false,"stretto_voices":0,"combination":[],"aug_dim":"","rhythm_ratio":1.0,"mirror":false,"chromatic_density":0.222,"complexity":0.38,"dissonance":0.138},{"voice":3,"pitch":41,"start":62.5,"duration":0.25,"velocity":127,"measure":32,"beat":2.0,"subject_pos":-1,"motif":"","motif_pos":-1,"best_pos":3,"similarity":0.557,"stretto":false,"stretto_voices":0,"combination":[],"aug_dim":"","rhythm_ratio":1.0,"mirror":false,"chromatic_density":0.222,"complexity":0.38,"dissonance":0.138},{"voice":3,"pitch":40,"start":62.75,"duration":0.25,"velocity":127,"measure":32,"beat":2.5,"subject_pos":-1,"motif":"","motif_pos":-1,"best_pos":4,"similarity":0.618,"stretto":false,"stretto_voices":0,"combination":[],"aug_dim":"","rhythm_ratio":1.0,"mirror":false,"chromatic_density":0.222,"complexity":0.38,"dissonance":0.138},{"voice":2,"pitch":53,"start":63.0,"duration":0.5,"velocity":127,"measure":32,"beat":3.0,"subject_pos":-1,"motif":"","motif_pos":-1,"best_pos":5,"similarity":0.693,"stretto":false,"stretto_voices":0,"combination":[],"aug_dim":"","rhythm_ratio":1.0,"mirror":false,"chromatic_density":0.222,"complexity":0.38,"dissonance":0.138},{"voice":3,"pitch":38,"start":63.0,"duration":0.5,"velocity":127,"measure":32,"beat":3.0,"subject_pos":-1,"motif":"","motif_pos":-1,"best_pos":5,"similarity":0.636,"stretto":false,"stretto_voices":0,"combination":[],"aug_dim":"","rhythm_ratio":1.0,"mirror":false,"chromatic_density":0.222,"complexity":0.38,"dissonance":0.138},{"voice":1,"pitch":62,"start":63.25,"duration":0.25,"velocity":127,"measure":32,"beat":3.5,"subject_pos":-1,"motif":"","motif_pos":-1,"best_pos":1,"similarity":0.571,"stretto":false,"stretto_voices":0,"combination":[],"aug_dim":"","rhythm_ratio":1.0,"mirror":false,"chromatic_density":0.222,"complexity":0.38,"dissonance":0.138},{"voice":1,"pitch":60,"start":63.5,"duration":0.25,"velocity":127,"measure":32,"beat":4.0,"subject_pos":-1,"motif":"","motif_pos":-1,"best_pos":2,"similarity":0.643,"stretto":false,"stretto_voices":0,"combination":[],"aug_dim":"","rhythm_ratio":1.0,"mirror":false,"chromatic_density":0.222,"complexity":0.38,"dissonance":0.138},{"voice":2,"pitch":55,"start":63.5,"duration":0.75,"velocity":127,"measure":32,"beat":4.0,"subject_pos":-1,"motif":"","motif_pos":-1,"best_pos":6,"similarity":0.579,"stretto":false,"stretto_voices":0,"combination":[],"aug_dim":"","rhythm_ratio":1.0,"mirror":false,"chromatic_density":0.222,"complexity":0.38,"dissonance":0.138},{"voice":3,"pitch":40,"start":63.5,"duration":0.5,"velocity":127,"measure":32,"beat":4.0,"subject_pos":-1,"motif":"","motif_pos":-1,"best_pos":6,"similarity":0.657,"stretto":false,"stretto_voices":0,"combination":[],"aug_dim":"","rhythm_ratio":1.0,"mirror":false,"chromatic_density":0.222,"complexity":0.38,"dissonance":0.138},{"voice":1,"pitch":58,"start":63.75,"duration":0.25,"velocity":127,"measure":32,"beat":4.5,"subject_pos":-1,"motif":"","motif_pos":-1,"best_pos":3,"similarity":0.614,"stretto":false,"stretto_voices":0,"combination":[],"aug_dim":"","rhythm_ratio":1.0,"mirror":false,"chromatic_density":0.222,"complexity":0.38,"dissonance":0.138},{"voice":1,"pitch":57,"start":64.0,"duration":0.75,"velocity":127,"measure":33,"beat":1.0,"subject_pos":-1,"motif":"","motif_pos":-1,"best_pos":4,"similarity":0.45,"stretto":false,"stretto_voices":0,"combination":[],"aug_dim":"","rhythm_ratio":1.0,"mirror":false,"chromatic_density":0.125,"complexity":0.552,"dissonance":0.082},{"voice":3,"pitch":41,"start":64.0,"duration":1.0,"velocity":127,"measure":33,"beat":1.0,"subject_pos":-1,"motif":"","motif_pos":-1,"best_pos":0,"similarity":0.446,"stretto":false,"stretto_voices":0,"combination":[],"aug_dim":"","rhythm_ratio":1.0,"mirror":false,"chromatic_density":0.125,"complexity":0.552,"dissonance":0.082},{"voice":2,"pitch":55,"start":64.25,"duration":0.25,"velocity":127,"measure":33,"beat":1.5,"subject_pos":-1,"motif":"","motif_pos":-1,"best_pos":2,"similarity":0.443,"stretto":false,"stretto_voices":0,"combination":[],"aug_dim":"","rhythm_ratio":1.0,"mirror":false,"chromatic_density":0.125,"complexity":0.552,"dissonance":0.082},{"voice":2,"pitch":53,"start":64.5,"duration":1.0,"velocity":127,"measure":33,"beat":2.0,"subject_pos":-1,"motif":"","motif_pos":-1,"best_pos":3,"similarity":0.614,"stretto":false,"stretto_voices":0,"combination":[],"aug_dim":"","rhythm_ratio":1.0,"mirror":false,"chromatic_density":0.125,"complexity":0.552,"dissonance":0.082},{"voice":1,"pitch":69,"start":64.75,"duration":0.25,"velocity":127,"measure":33,"beat":2.5,"subject_pos":-1,"motif":"","motif_pos":-1,"best_pos":1,"similarity":0.364,"stretto":false,"stretto_voices":0,"combination":[],"aug_dim":"","rhythm_ratio":1.0,"mirror":false,"chromatic_density":0.125,"complexity":0.552,"dissonance":0.082},{"voice":0,"pitch":72,"start":65.0,"duration":1.0,"velocity":127,"measure":33,"beat":3.0,"subject_pos":-1,"motif":"head_inv","motif_pos":0,"best_pos":0,"similarity":1.0,"stretto":false,"stretto_voices":0,"combination":[],"aug_dim":"","rhythm_ratio":1.0,"mirror":false,"chromatic_density":0.125,"complexity":0.552,"dissonance":0.082},{"voice":1,"pitch":67,"start":65.0,"duration":0.25,"velocity":127,"measure":33,"beat":3.0,"subject_pos":-1,"motif":"","motif_pos":-1,"best_pos":2,"similarity":0.443,"stretto":false,"stretto_voices":0,"combination":[],"aug_dim":"","rhythm_ratio":1.0,"mirror":false,"chromatic_density":0.125,"complexity":0.552,"dissonance":0.082},{"voice":3,"pitch":48,"start":65.0,"duration":0.75,"velocity":127,"measure":33,"beat":3.0,"subject_pos":-1,"motif":"","motif_pos":-1,"best_pos":1,"similarity":0.643,"stretto":false,"stretto_voices":0,"combination":[],"aug_dim":"","rhythm_ratio":1.0,"mirror":false,"chromatic_density":0.125,"complexity":0.552,"dissonance":0.082},{"voice":1,"pitch":65,"start":65.25,"duration":0.25,"velocity":127,"measure":33,"beat":3.5,"subject_pos":-1,"motif":"","motif_pos":-1,"best_pos":5,"similarity":0.386,"stretto":false,"stretto_voices":0,"combination":[],"aug_dim":"","rhythm_ratio":1.0,"mirror":false,"chromatic_density":0.125,"complexity":0.552,"dissonance":0.082},{"voice":1,"pitch":67,"start":65.5,"duration":0.5,"velocity":127,"measure":33,"beat":4.0,"subject_pos":-1,"motif":"","motif_pos":-1,"best_pos":6,"similarity":0.336,"stretto":false,"stretto_voices":0,"combination":[],"aug_dim":"","rhythm_ratio":1.0,"mirror":false,"chromatic_density":0.125,"complexity":0.552,"dissonance":0.082},{"voice":2,"pitch":52,"start":65.5,"duration":0.5,"velocity":127,"measure":33,"beat":4.0,"subject_pos":-1,"motif":"enigmatic_cell","motif_pos":0,"best_pos":0,"similarity":1.0,"stretto":false,"stretto_voices":0,"combination":[],"aug_dim":"","rhythm_ratio":1.0,"mirror":false,"chromatic_density":0.125,"complexity":0.552,"dissonance":0.082},{"voice":3,"pitch":46,"start":65.75,"duration":0.25,"velocity":127,"measure":33,"beat":4.5,"subject_pos":-1,"motif":"","motif_pos":-1,"best_pos":2,"similarity":0.579,"stretto":false,"stretto_voices":0,"combination":[],"aug_dim":"","rhythm_ratio":1.0,"mirror":false,"chromatic_density":0.125,"complexity":0.552,"dissonance":0.082},{"voice":0,"pitch":65,"start":66.0,"duration":0.75,"velocity":127,"measure":34,"beat":1.0,"subject_pos":-1,"motif":"head_inv","motif_pos":1,"best_pos":1,"similarity":1.0,"stretto":false,"stretto_voices":0,"combination":[],"aug_dim":"","rhythm_ratio":1.0,"mirror":false,"chromatic_density":0.25,"complexity":0.639,"dissonance":0.03},{"voice":1,"pitch":60,"start":66.0,"duration":0.5,"velocity":127,"measure":34,"beat":1.0,"subject_pos":-1,"motif":"","motif_pos":-1,"best_pos":0,"similarity":0.393,"stretto":false,"stretto_voices":0,"combination":[],"aug_dim":"","rhythm_ratio":1.0,"mirror":false,"chromatic_density":0.25,"complexity":0.639,"dissonance":0.03},{"voice":2,"pitch":53,"start":66.0,"duration":0.25,"velocity":127,"measure":34,"beat":1.0,"subject_pos":-1,"motif":"enigmatic_cell","motif_pos":1,"best_pos":1,"similarity":1.0,"stretto":false,"stretto_voices":0,"combination":[],"aug_dim":"","rhythm_ratio":1.0,"mirror":false,"chromatic_density":0.25,"complexity":0.639,"dissonance":0.03},{"voice":3,"pitch":45,"start":66.0,"duration":0.75,"velocity":127,"measure":34,"beat":1.0,"subject_pos":-1,"motif":"","motif_pos":-1,"best_pos":3,"similarity":0.45,"stretto":false,"stretto_voices":0,"combination":[],"aug_dim":"","rhythm_ratio":1.0,"mirror":false,"chromatic_density":0.25,"complexity":0.639,"dissonance":0.03},{"voice":2,"pitch":48,"start":66.25,"duration":0.25,"velocity":127,"measure":34,"beat":1.5,"subject_pos":-1,"motif":"enigmatic_cell","motif_pos":2,"best_pos":2,"similarity":1.0,"stretto":false,"stretto_voices":0,"combination":[],"aug_dim":"","rhythm_ratio":1.0,"mirror":false,"chromatic_density":0.25,"complexity":0.639,"dissonance":0.03},{"voice":2,"pitch":50,"start":66.5,"duration":0.25,"velocity":127,"measure":34,"beat":2.0,"subject_pos":-1,"motif":"","motif_pos":-1,"best_pos":5,"similarity":0.593,"stretto":false,"stretto_voices":0,"combination":[],"aug_dim":"","rhythm_ratio":1.0,"mirror":false,"chromatic_density":0.25,"complexity":0.639,"dissonance":0.03},{"voice":0,"pitch":67,"start":66.75,"duration":0.25,"velocity":127,"measure":34,"beat":2.5,"subject_pos":-1,"motif":"head_inv","motif_pos":2,"best_pos":2,"similarity":1.0,"stretto":false,"stretto_voices":0,"combination":[],"aug_dim":"","rhythm_ratio":1.0,"mirror":false,"chromatic_density":0.25,"complexity":0.639,"dissonance":0.03},{"voice":2,"pitch":52,"start":66.75,"duration":0.25,"velocity":127,"measure":34,"beat":2.5,"subject_pos":-1,"motif":"enigmatic_cell","motif_pos":0,"best_pos":0,"similarity":1.0,"stretto":false,"stretto_voices":0,"combination":[],"aug_dim":"","rhythm_ratio":1.0,"mirror":false,"chromatic_density":0.25,"complexity":0.639,"dissonance":0.03},{"voice":3,"pitch":43,"start":66.75,"duration":0.25,"velocity":127,"measure":34,"beat":2.5,"subject_pos":-1,"motif":"","motif_pos":-1,"best_pos":2,"similarity":0.643,"stretto":false,"stretto_voices":0,"combination":[],"aug_dim":"","rhythm_ratio":1.0,"mirror":false,"chromatic_density":0.25,"complexity":0.639,"dissonance":0.03},{"voice":0,"pitch":69,"start":67.0,"duration":0.75,"velocity":127,"measure":34,"beat":3.0,"subject_pos":-1,"motif":"head_inv","motif_pos":3,"best_pos":3,"similarity":1.0,"stretto":false,"stretto_voices":0,"combination":[],"aug_dim":"","rhythm_ratio":1.0,"mirror":false,"chromatic_density":0.25,"complexity":0.639,"dissonance":0.03},{"voice":2,"pitch":53,"start":67.0,"duration":0.5,"velocity":127,"measure":34,"beat":3.0,"subject_pos":-1,"motif":"enigmatic_cell","motif_pos":1,"best_pos":1,"similarity":1.0,"stretto":false,"stretto_voices":0,"combination":[],"aug_dim":"","rhythm_ratio":1.0,"mirror":false,"chromatic_density":0.25,"complexity":0.639,"dissonance":0.03},{"voice":3,"pitch":41,"start":67.0,"duration":1.0,"velocity":127,"measure":34,"beat":3.0,"subject_pos":-1,"motif":"","motif_pos":-1,"best_pos":3,"similarity":0.786,"stretto":false,"stretto_voices":0,"combination":[],"aug_dim":"","rhythm_ratio":1.0,"mirror":false,"chromatic_density":0.25,"complexity":0.639,"dissonance":0.03},{"voice":1,"pitch":65,"start":67.25,"duration":0.25,"velocity":127,"measure":34,"beat":3.5,"subject_pos":-1,"motif":"","motif_pos":-1,"best_pos":1,"similarity":0.5,"stretto":false,"stretto_voices":0,"combination":[],"aug_dim":"","rhythm_ratio":1.0,"mirror":false,"chromatic_density":0.25,"complexity":0.639,"dissonance":0.03},{"voice":1,"pitch":64,"start":67.5,"duration":0.25,"velocity":127,"measure":34,"beat":4.0,"subject_pos":-1,"motif":"","motif_pos":-1,"best_pos":2,"similarity":0.464,"stretto":false,"stretto_voices":0,"combination":[],"aug_dim":"","rhythm_ratio":1.0,"mirror":false,"chromatic_density":0.25,"complexity":0.639,"dissonance":0.03},{"voice":0,"pitch":70,"start":67.75,"duration":0.25,"velocity":127,"measure":34,"beat":4.5,"subject_pos":-1,"motif":"head_inv","motif_pos":4,"best_pos":4,"similarity":1.0,"stretto":false,"stretto_voices":0,"combination":[],"aug_dim":"","rhythm_ratio":1.0,"mirror":false,"chromatic_density":0.25,"complexity":0.639,"dissonance":0.03},{"voice":1,"pitch":62,"start":67.75,"duration":0.25,"velocity":127,"measure":34,"beat":4.5,"subject_pos":-1,"motif":"","motif_pos":-1,"best_pos":4,"similarity":0.421,"stretto":false,"stretto_voices":0,"combination":[],"aug_dim":"","rhythm_ratio":1.0,"mirror":false,"chromatic_density":0.25,"complexity":0.639,"dissonance":0.03},{"voice":0,"pitch":72,"start":68.0,"duration":1.0,"velocity":127,"measure":35,"beat":1.0,"subject_pos":-1,"motif":"","motif_pos":-1,"best_pos":6,"similarity":0.579,"stretto":false,"stretto_voices":0,"combination":[],"aug_dim":"","rhythm_ratio":1.0,"mirror":false,"chromatic_density":0.556,"complexity":0.515,"dissonance":0.113},{"voice":1,"pitch":67,"start":68.0,"duration":0.25,"velocity":127,"measure":35,"beat":1.0,"subject_pos":-1,"motif":"","motif_pos":-1,"best_pos":5,"similarity":0.546,"stretto":false,"stretto_voices":0,"combination":[],"aug_dim":"","rhythm_ratio":1.0,"mirror":false,"chromatic_density":0.556,"complexity":0.515,"dissonance":0.113},{"voice":3,"pitch":40,"start":68.0,"duration":1.0,"velocity":127,"measure":35,"beat":1.0,"subject_pos":-1,"motif":"","motif_pos":-1,"best_pos":4,"similarity":0.893,"stretto":false,"stretto_voices":0,"combination":[],"aug_dim":"","rhythm_ratio":1.0,"mirror":false,"chromatic_density":0.556,"complexity":0.515,"dissonance":0.113},{"voice":1,"pitch":69,"start":68.25,"duration":0.25,"velocity":127,"measure":35,"beat":1.5,"subject_pos":-1,"motif":"","motif_pos":-1,"best_pos":6,"similarity":0.621,"stretto":false,"stretto_voices":0,"combination":[],"aug_dim":"","rhythm_ratio":1.0,"mirror":false,"chromatic_density":0.556,"complexity":0.515,"dissonance":0.113},{"voice":1,"pitch":70,"start":68.5,"duration":0.75,"velocity":127,"measure":35,"beat":2.0,"subject_pos":-1,"motif":"","motif_pos":-1,"best_pos":3,"similarity":0.55,"stretto":false,"stretto_voices":0,"combination":[],"aug_dim":"","rhythm_ratio":1.0,"mirror":false,"chromatic_density":0.556,"complexity":0.515,"dissonance":0.113},{"voice":2,"pitch":48,"start":68.75,"duration":0.25,"velocity":127,"measure":35,"beat":2.5,"subject_pos":-1,"motif":"enigmatic_cell","motif_pos":2,"best_pos":2,"similarity":1.0,"stretto":false,"stretto_voices":0,"combination":[],"aug_dim":"","rhythm_ratio":1.0,"mirror":false,"chromatic_density":0.556,"complexity":0.515,"dissonance":0.113},{"voice":0,"pitch":74,"start":69.0,"duration":1.0,"velocity":127,"measure":35,"beat":3.0,"subject_pos":-1,"motif":"","motif_pos":-1,"best_pos":1,"similarity":0.457,"stretto":false,"stretto_voices":0,"combination":[],"aug_dim":"","rhythm_ratio":1.0,"mirror":false,"chromatic_density":0.556,"complexity":0.515,"dissonance":0.113},{"voice":2,"pitch":53,"start":69.0,"duration":0.75,"velocity":127,"measure":35,"beat":3.0,"subject_pos":-1,"motif":"","motif_pos":-1,"best_pos":3,"similarity":0.525,"stretto":false,"stretto_voices":0,"combination":[],"aug_dim":"","rhythm_ratio":1.0,"mirror":false,"chromatic_density":0.556,"complexity":0.515,"dissonance":0.113},{"voice":3,"pitch":41,"start":69.0,"duration":0.75,"velocity":127,"measure":35,"beat":3.0,"subject_pos":-1,"motif":"","motif_pos":-1,"best_pos":5,"similarity":0.821,"stretto":false,"stretto_voices":0,"combination":[],"aug_dim":"","rhythm_ratio":1.0,"mirror":false,"chromatic_density":0.556,"complexity":0.515,"dissonance":0.113},{"voice":1,"pitch":69,"start":69.25,"duration":0.25,"velocity":127,"measure":35,"beat":3.5,"subject_pos":-1,"motif":"","motif_pos":-1,"best_pos":4,"similarity":0.607,"stretto":false,"stretto_voices":0,"combination":[],"aug_dim":"","rhythm_ratio":1.0,"mirror":false,"chromatic_density":0.556,"complexity":0.515,"dissonance":0.113},{"voice":1,"pitch":70,"start":69.5,"duration":0.5,"velocity":127,"measure":35,"beat":4.0,"subject_pos":-1,"motif":"","motif_pos":-1,"best_pos":5,"similarity":0.464,"stretto":false,"stretto_voices":0,"combination":[],"aug_dim":"","rhythm_ratio":1.0,"mirror":false,"chromatic_density":0.556,"complexity":0.515,"dissonance":0.113},{"voice":2,"pitch":52,"start":69.75,"duration":0.25,"velocity":127,"measure":35,"beat":4.5,"subject_pos":-1,"motif":"","motif_pos":-1,"best_pos":4,"similarity":0.661,"stretto":false,"stretto_voices":0,"combination":[],"aug_dim":"","rhythm_ratio":1.0,"mirror":false,"chromatic_density":0.556,"complexity":0.515,"dissonance":0.113},{"voice":3,"pitch":43,"start":69.75,"duration":0.25,"velocity":127,"measure":35,"beat":4.5,"subject_pos":-1,"motif":"","motif_pos":-1,"best_pos":6,"similarity":0.643,"stretto":false,"stretto_voices":0,"combination":[],"aug_dim":"","rhythm_ratio":1.0,"mirror":false,"chromatic_density":0.556,"complexity":0.515,"dissonance":0.113},{"voice":0,"pitch":72,"start":70.0,"duration":0.75,"velocity":127,"measure":36,"beat":1.0,"subject_pos":-1,"motif":"","motif_pos":-1,"best_pos":2,"similarity":0.593,"stretto":false,"stretto_voices":0,"combination":[],"aug_dim":"","rhythm_ratio":1.0,"mirror":false,"chromatic_density":0.444,"complexity":0.563,"dissonance":0.1},{"voice":1,"pitch":69,"start":70.0,"duration":0.5,"velocity":127,"measure":36,"beat":1.0,"subject_pos":-1,"motif":"","motif_pos":-1,"best_pos":4,"similarity":0.425,"stretto":false,"stretto_voices":0,"combination":[],"aug_dim":"","rhythm_ratio":1.0,"mirror":false,"chromatic_density":0.444,"complexity":0.563,"dissonance":0.1},{"voice":2,"pitch":53,"start":70.0,"duration":0.25,"velocity":127,"measure":36,"beat":1.0,"subject_pos":-1,"motif":"","motif_pos":-1,"best_pos":5,"similarity":0.536,"stretto":false,"stretto_voices":0,"combination":[],"aug_dim":"","rhythm_ratio":1.0,"mirror":false,"chromatic_density":0.444,"complexity":0.563,"dissonance":0.1},{"voice":3,"pitch":45,"start":70.0,"duration":1.25,"velocity":127,"measure":36,"beat":1.0,"subject_pos":-1,"motif":"","motif_pos":-1,"best_pos":6,"similarity":0.661,"stretto":false,"stretto_voices":0,"combination":[],"aug_dim":"","rhythm_ratio":1.0,"mirror":false,"chromatic_density":0.444,"complexity":0.563,"dissonance":0.1},{"voice":2,"pitch":57,"start":70.25,"duration":0.25,"velocity":127,"measure":36,"beat":1.5,"subject_pos":-1,"motif":"","motif_pos":-1,"best_pos":6,"similarity":0.357,"stretto":false,"stretto_voices":0,"combination":[],"aug_dim":"","rhythm_ratio":1.0,"mirror":false,"chromatic_density":0.444,"complexity":0.563,"dissonance":0.1},{"voice":1,"pitch":64,"start":70.5,"duration":0.5,"velocity":127,"measure":36,"beat":2.0,"subject_pos":-1,"motif":"","motif_pos":-1,"best_pos":4,"similarity":0.443,"stretto":false,"stretto_voices":0,"combination":[],"aug_dim":"","rhythm_ratio":1.0,"mirror":false,"chromatic_density":0.444,"complexity":0.563,"dissonance":0.1},{"voice":2,"pitch":60,"start":70.5,"duration":1.75,"velocity":127,"measure":36,"beat":2.0,"subject_pos":-1,"motif":"","motif_pos":-1,"best_pos":1,"similarity":0.429,"stretto":false,"stretto_voices":0,"combination":[],"aug_dim":"","rhythm_ratio":1.0,"mirror":false,"chromatic_density":0.444,"complexity":0.563,"dissonance":0.1},{"voice":0,"pitch":70,"start":70.75,"duration":0.25,"velocity":127,"measure":36,"beat":2.5,"subject_pos":-1,"motif":"","motif_pos":-1,"best_pos":3,"similarity":0.664,"stretto":false,"stretto_voices":0,"combination":[],"aug_dim":"","rhythm_ratio":1.0,"mirror":false,"chromatic_density":0.444,"complexity":0.563,"dissonance":0.1},{"voice":0,"pitch":69,"start":71.0,"duration":1.25,"velocity":127,"measure":36,"beat":3.0,"subject_pos":-1,"motif":"","motif_pos":-1,"best_pos":4,"similarity":0.671,"stretto":false,"stretto_voices":0,"combination":[],"aug_dim":"","rhythm_ratio":1.0,"mirror":false,"chromatic_density":0.444,"complexity":0.563,"dissonance":0.1},{"voice":1,"pitch":65,"start":71.0,"duration":1.25,"velocity":127,"measure":36,"beat":3.0,"subject_pos":-1,"motif":"","motif_pos":-1,"best_pos":3,"similarity":0.6,"stretto":false,"stretto_voices":0,"combination":[],"aug_dim":"","rhythm_ratio":1.0,"mirror":false,"chromatic_density":0.444,"complexity":0.563,"dissonance":0.1},{"voice":3,"pitch":46,"start":71.25,"duration":0.25,"velocity":127,"measure":36,"beat":3.5,"subject_pos":-1,"motif":"","motif_pos":-1,"best_pos":7,"similarity":0.464,"stretto":false,"stretto_voices":0,"combination":[],"aug_dim":"","rhythm_ratio":1.0,"mirror":false,"chromatic_density":0.444,"complexity":0.563,"dissonance":0.1},{"voice":3,"pitch":45,"start":71.5,"duration":0.25,"velocity":127,"measure":36,"beat":4.0,"subject_pos":-1,"motif":"","motif_pos":-1,"best_pos":2,"similarity":0.379,"stretto":false,"stretto_voices":0,"combination":[],"aug_dim":"","rhythm_ratio":1.0,"mirror":false,"chromatic_density":0.444,"complexity":0.563,"dissonance":0.1},{"voice":3,"pitch":43,"start":71.75,"duration":0.25,"velocity":127,"measure":36,"beat":4.5,"subject_pos":-1,"motif":"","motif_pos":-1,"best_pos":2,"similarity":0.5,"stretto":false,"stretto_voices":0,"combination":[],"aug_dim":"","rhythm_ratio":1.0,"mirror":false,"chromatic_density":0.444,"complexity":0.563,"dissonance":0.1},{"voice":3,"pitch":41,"start":72.0,"duration":1.25,"velocity":127,"measure":37,"beat":1.0,"subject_pos":-1,"motif":"","motif_pos":-1,"best_pos":3,"similarity":0.5,"stretto":false,"stretto_voices":0,"combination":[],"aug_dim":"","rhythm_ratio":1.0,"mirror":false,"chromatic_density":0.333,"complexity":0.464,"dissonance":0.114},{"voice":0,"pitch":67,"start":72.25,"duration":0.25,"velocity":127,"measure":37,"beat":1.5,"subject_pos":-1,"motif":"","motif_pos":-1,"best_pos":5,"similarity":0.636,"stretto":false,"stretto_voices":0,"combination":[],"aug_dim":"","rhythm_ratio":1.0,"mirror":false,"chromatic_density":0.333,"complexity":0.464,"dissonance":0.114},{"voice":1,"pitch":64,"start":72.25,"duration":0.25,"velocity":127,"measure":37,"beat":1.5,"subject_pos":-1,"motif":"","motif_pos":-1,"best_pos":4,"similarity":0.8,"stretto":false,"stretto_voices":0,"combination":[],"aug_dim":"","rhythm_ratio":1.0,"mirror":false,"chromatic_density":0.333,"complexity":0.464,"dissonance":0.114},{"voice":2,"pitch":58,"start":72.25,"duration":0.25,"velocity":127,"measure":37,"beat":1.5,"subject_pos":-1,"motif":"","motif_pos":-1,"best_pos":3,"similarity":0.486,"stretto":false,"stretto_voices":0,"combination":[],"aug_dim":"","rhythm_ratio":1.0,"mirror":false,"chromatic_density":0.333,"complexity":0.464,"dissonance":0.114},{"voice":0,"pitch":69,"start":72.5,"duration":0.25,"velocity":127,"measure":37,"beat":2.0,"subject_pos":-1,"motif":"","motif_pos":-1,"best_pos":6,"similarity":0.657,"stretto":false,"stretto_voices":0,"combination":[],"aug_dim":"","rhythm_ratio":1.0,"mirror":false,"chromatic_density":0.333,"complexity":0.464,"dissonance":0.114},{"voice":1,"pitch":65,"start":72.5,"duration":0.25,"velocity":127,"measure":37,"beat":2.0,"subject_pos":-1,"motif":"","motif_pos":-1,"best_pos":5,"similarity":0.793,"stretto":false,"stretto_voices":0,"combination":[],"aug_dim":"","rhythm_ratio":1.0,"mirror":false,"chromatic_density":0.333,"complexity":0.464,"dissonance":0.114},{"voice":2,"pitch":57,"start":72.5,"duration":0.25,"velocity":127,"measure":37,"beat":2.0,"subject_pos":-1,"motif":"","motif_pos":-1,"best_pos":1,"similarity":0.429,"stretto":false,"stretto_voices":0,"combination":[],"aug_dim":"","rhythm_ratio":1.0,"mirror":false,"chromatic_density":0.333,"complexity":0.464,"dissonance":0.114},{"voice":0,"pitch":70,"start":72.75,"duration":0.25,"velocity":127,"measure":37,"beat":2.5,"subject_pos":-1,"motif":"","motif_pos":-1,"best_pos":5,"similarity":0.693,"stretto":false,"stretto_voices":0,"combination":[],"aug_dim":"","rhythm_ratio":1.0,"mirror":false,"chromatic_density":0.333,"complexity":0.464,"dissonance":0.114},{"voice":1,"pitch":67,"start":72.75,"duration":0.25,"velocity":127,"measure":37,"beat":2.5,"subject_pos":-1,"motif":"","motif_pos":-1,"best_pos":6,"similarity":0.643,"stretto":false,"stretto_voices":0,"combination":[],"aug_dim":"","rhythm_ratio":1.0,"mirror":false,"chromatic_density":0.333,"complexity":0.464,"dissonance":0.114},{"voice":2,"pitch":55,"start":72.75,"duration":0.25,"velocity":127,"measure":37,"beat":2.5,"subject_pos":-1,"motif":"","motif_pos":-1,"best_pos":2,"similarity":0.643,"stretto":false,"stretto_voices":0,"combination":[],"aug_dim":"","rhythm_ratio":1.0,"mirror":false,"chromatic_density":0.333,"complexity":0.464,"dissonance":0.114},{"voice":0,"pitch":72,"start":73.0,"duration":1.25,"velocity":127,"measure":37,"beat":3.0,"subject_pos":-1,"motif":"","motif_pos":-1,"best_pos":6,"similarity":0.579,"stretto":false,"stretto_voices":0,"combination":[],"aug_dim":"","rhythm_ratio":1.0,"mirror":false,"chromatic_density":0.333,"complexity":0.464,"dissonance":0.114},{"voice":1,"pitch":69,"start":73.0,"duration":1.25,"velocity":127,"measure":37,"beat":3.0,"subject_pos":-1,"motif":"","motif_pos":-1,"best_pos":6,"similarity":0.661,"stretto":false,"stretto_voices":0,"combination":[],"aug_dim":"","rhythm_ratio":1.0,"mirror":false,"chromatic_density":0.333,"complexity":0.464,"dissonance":0.114},{"voice":2,"pitch":53,"start":73.0,"duration":1.25,"velocity":127,"measure":37,"beat":3.0,"subject_pos":-1,"motif":"","motif_pos":-1,"best_pos":3,"similarity":0.786,"stretto":false,"stretto_voices":0,"combination":[],"aug_dim":"","rhythm_ratio":1.0,"mirror":false,"chromatic_density":0.333,"complexity":0.464,"dissonance":0.114},{"voice":3,"pitch":45,"start":73.25,"duration":0.25,"velocity":127,"measure":37,"beat":3.5,"subject_pos":-1,"motif":"","motif_pos":-1,"best_pos":4,"similarity":0.607,"stretto":false,"stretto_voices":0,"combination":[],"aug_dim":"","rhythm_ratio":1.0,"mirror":false,"chromatic_density":0.333,"complexity":0.464,"dissonance":0.114},{"voice":3,"pitch":46,"start":73.5,"duration":0.25,"velocity":127,"measure":37,"beat":4.0,"subject_pos":-1,"motif":"","motif_pos":-1,"best_pos":5,"similarity":0.679,"stretto":false,"stretto_voices":0,"combination":[],"aug_dim":"","rhythm_ratio":1.0,"mirror":false,"chromatic_density":0.333,"complexity":0.464,"dissonance":0.114},{"voice":3,"pitch":48,"start":73.75,"duration":0.25,"velocity":127,"measure":37,"beat":4.5,"subject_pos":-1,"motif":"","motif_pos":-1,"best_pos":6,"similarity":0.571,"stretto":false,"stretto_voices":0,"combination":[],"aug_dim":"","rhythm_ratio":1.0,"mirror":false,"chromatic_density":0.333,"complexity":0.464,"dissonance":0.114},{"voice":3,"pitch":50,"start":74.0,"duration":1.25,"velocity":127,"measure":38,"beat":1.0,"subject_pos":-1,"motif":"","motif_pos":-1,"best_pos":6,"similarity":0.518,"stretto":false,"stretto_voices":0,"combination":[],"aug_dim":"","rhythm_ratio":1.0,"mirror":false,"chromatic_density":0.214,"complexity":0.548,"dissonance":0.092},{"voice":0,"pitch":74,"start":74.25,"duration":0.25,"velocity":127,"measure":38,"beat":1.5,"subject_pos":-1,"motif":"","motif_pos":-1,"best_pos":1,"similarity":0.457,"stretto":false,"stretto_voices":0,"combination":[],"aug_dim":"","rhythm_ratio":1.0,"mirror":false,"chromatic_density":0.214,"complexity":0.548,"dissonance":0.092},{"voice":1,"pitch":70,"start":74.25,"duration":0.25,"velocity":127,"measure":38,"beat":1.5,"subject_pos":-1,"motif":"","motif_pos":-1,"best_pos":7,"similarity":0.464,"stretto":false,"stretto_voices":0,"combination":[],"aug_dim":"","rhythm_ratio":1.0,"mirror":false,"chromatic_density":0.214,"complexity":0.548,"dissonance":0.092},{"voice":2,"pitch":52,"start":74.25,"duration":0.25,"velocity":127,"measure":38,"beat":1.5,"subject_pos":-1,"motif":"","motif_pos":-1,"best_pos":4,"similarity":0.893,"stretto":false,"stretto_voices":0,"combination":[],"aug_dim":"","rhythm_ratio":1.0,"mirror":false,"chromatic_density":0.214,"complexity":0.548,"dissonance":0.092},{"voice":0,"pitch":72,"start":74.5,"duration":0.25,"velocity":127,"measure":38,"beat":2.0,"subject_pos":-1,"motif":"","motif_pos":-1,"best_pos":2,"similarity":0.586,"stretto":false,"stretto_voices":0,"combination":[],"aug_dim":"","rhythm_ratio":1.0,"mirror":false,"chromatic_density":0.214,"complexity":0.548,"dissonance":0.092},{"voice":1,"pitch":69,"start":74.5,"duration":0.25,"velocity":127,"measure":38,"beat":2.0,"subject_pos":-1,"motif":"","motif_pos":-1,"best_pos":2,"similarity":0.379,"stretto":false,"stretto_voices":0,"combination":[],"aug_dim":"","rhythm_ratio":1.0,"mirror":false,"chromatic_density":0.214,"complexity":0.548,"dissonance":0.092},{"voice":2,"pitch":53,"start":74.5,"duration":0.25,"velocity":127,"measure":38,"beat":2.0,"subject_pos":-1,"motif":"","motif_pos":-1,"best_pos":5,"similarity":0.821,"stretto":false,"stretto_voices":0,"combination":[],"aug_dim":"","rhythm_ratio":1.0,"mirror":false,"chromatic_density":0.214,"complexity":0.548,"dissonance":0.092},{"voice":0,"pitch":70,"start":74.75,"duration":0.25,"velocity":127,"measure":38,"beat":2.5,"subject_pos":-1,"motif":"","motif_pos":-1,"best_pos":3,"similarity":0.586,"stretto":false,"stretto_voices":0,"combination":[],"aug_dim":"","rhythm_ratio":1.0,"mirror":false,"chromatic_density":0.214,"complexity":0.548,"dissonance":0.092},{"voice":1,"pitch":67,"start":74.75,"duration":0.25,"velocity":127,"measure":38,"beat":2.5,"subject_pos":-1,"motif":"","motif_pos":-1,"best_pos":2,"similarity":0.436,"stretto":false,"stretto_voices":0,"combination":[],"aug_dim":"","rhythm_ratio":1.0,"mirror":false,"chromatic_density":0.214,"complexity":0.548,"dissonance":0.092},{"voice":2,"pitch":55,"start":74.75,"duration":0.25,"velocity":127,"measure":38,"beat":2.5,"subject_pos":-1,"motif":"","motif_pos":-1,"best_pos":6,"similarity":0.643,"stretto":false,"stretto_voices":0,"combination":[],"aug_dim":"","rhythm_ratio":1.0,"mirror":false,"chromatic_density":0.214,"complexity":0.548,"dissonance":0.092},{"voice":0,"pitch":69,"start":75.0,"duration":0.5,"velocity":127,"measure":38,"beat":3.0,"subject_pos":-1,"motif":"","motif_pos":-1,"best_pos":4,"similarity":0.45,"stretto":false,"stretto_voices":0,"combination":[],"aug_dim":"","rhythm_ratio":1.0,"mirror":false,"chromatic_density":0.214,"complexity":0.548,"dissonance":0.092},{"voice":1,"pitch":65,"start":75.0,"duration":0.5,"velocity":127,"measure":38,"beat":3.0,"subject_pos":-1,"motif":"","motif_pos":-1,"best_pos":2,"similarity":0.364,"stretto":false,"stretto_voices":0,"combination":[],"aug_dim":"","rhythm_ratio":1.0,"mirror":false,"chromatic_density":0.214,"complexity":0.548,"dissonance":0.092},{"voice":2,"pitch":57,"start":75.0,"duration":0.5,"velocity":127,"measure":38,"beat":3.0,"subject_pos":-1,"motif":"","motif_pos":-1,"best_pos":6,"similarity":0.446,"stretto":false,"stretto_voices":0,"combination":[],"aug_dim":"","rhythm_ratio":1.0,"mirror":false,"chromatic_density":0.214,"complexity":0.548,"dissonance":0.092},{"voice":3,"pitch":52,"start":75.25,"duration":0.25,"velocity":127,"measure":38,"beat":3.5,"subject_pos":-1,"motif":"","motif_pos":-1,"best_pos":1,"similarity":0.457,"stretto":false,"stretto_voices":0,"combination":[],"aug_dim":"","rhythm_ratio":1.0,"mirror":false,"chromatic_density":0.214,"complexity":0.548,"dissonance":0.092},{"voice":0,"pitch":77,"start":75.5,"duration":1.0,"velocity":127,"measure":38,"beat":4.0,"subject_pos":-1,"motif":"","motif_pos":-1,"best_pos":1,"similarity":0.393,"stretto":false,"stretto_voices":0,"combination":[],"aug_dim":"","rhythm_ratio":1.0,"mirror":false,"chromatic_density":0.214,"complexity":0.548,"dissonance":0.092},{"voice":1,"pitch":69,"start":75.5,"duration":0.5,"velocity":127,"measure":38,"beat":4.0,"subject_pos":-1,"motif":"","motif_pos":-1,"best_pos":1,"similarity":0.571,"stretto":false,"stretto_voices":0,"combination":[],"aug_dim":"","rhythm_ratio":1.0,"mirror":false,"chromatic_density":0.214,"complexity":0.548,"dissonance":0.092},{"voice":3,"pitch":50,"start":75.5,"duration":0.25,"velocity":127,"measure":38,"beat":4.0,"subject_pos":-1,"motif":"","motif_pos":-1,"best_pos":2,"similarity":0.604,"stretto":false,"stretto_voices":0,"combination":[],"aug_dim":"","rhythm_ratio":1.0,"mirror":false,"chromatic_density":0.214,"complexity":0.548,"dissonance":0.092},{"voice":3,"pitch":48,"start":75.75,"duration":0.25,"velocity":127,"measure":38,"beat":4.5,"subject_pos":-1,"motif":"","motif_pos":-1,"best_pos":3,"similarity":0.621,"stretto":false,"stretto_voices":0,"combination":[],"aug_dim":"","rhythm_ratio":1.0,"mirror":false,"chromatic_density":0.214,"complexity":0.548,"dissonance":0.092},{"voice":1,"pitch":67,"start":76.0,"duration":1.0,"velocity":127,"measure":39,"beat":1.0,"subject_pos":-1,"motif":"","motif_pos":-1,"best_pos":2,"similarity":0.65,"stretto":false,"stretto_voices":0,"combination":[],"aug_dim":"","rhythm_ratio":1.0,"mirror":false,"chromatic_density":0.111,"complexity":0.377,"dissonance":0.165},{"voice":3,"pitch":47,"start":76.0,"duration":0.25,"velocity":127,"measure":39,"beat":1.0,"subject_pos":-1,"motif":"","motif_pos":-1,"best_pos":4,"similarity":0.532,"stretto":false,"stretto_voices":0,"combination":[],"aug_dim":"","rhythm_ratio":1.0,"mirror":false,"chromatic_density":0.111,"complexity":0.377,"dissonance":0.165},{"voice":3,"pitch":50,"start":76.25,"duration":0.25,"velocity":127,"measure":39,"beat":1.5,"subject_pos":-1,"motif":"","motif_pos":-1,"best_pos":1,"similarity":0.429,"stretto":false,"stretto_voices":0,"combination":[],"aug_dim":"","rhythm_ratio":1.0,"mirror":false,"chromatic_density":0.111,"complexity":0.377,"dissonance":0.165},{"voice":0,"pitch":76,"start":76.5,"duration":1.0,"velocity":127,"measure":39,"beat":2.0,"subject_pos":-1,"motif":"","motif_pos":-1,"best_pos":2,"similarity":0.436,"stretto":false,"stretto_voices":0,"combination":[],"aug_dim":"","rhythm_ratio":1.0,"mirror":false,"chromatic_density":0.111,"complexity":0.377,"dissonance":0.165},{"voice":3,"pitch":48,"start":76.5,"duration":0.25,"velocity":127,"measure":39,"beat":2.0,"subject_pos":-1,"motif":"","motif_pos":-1,"best_pos":2,"similarity":0.471,"stretto":false,"stretto_voices":0,"combination":[],"aug_dim":"","rhythm_ratio":1.0,"mirror":false,"chromatic_density":0.111,"complexity":0.377,"dissonance":0.165},{"voice":3,"pitch":47,"start":76.75,"duration":0.25,"velocity":127,"measure":39,"beat":2.5,"subject_pos":-1,"motif":"","motif_pos":-1,"best_pos":3,"similarity":0.461,"stretto":false,"stretto_voices":0,"combination":[],"aug_dim":"","rhythm_ratio":1.0,"mirror":false,"chromatic_density":0.111,"complexity":0.377,"dissonance":0.165},{"voice":1,"pitch":65,"start":77.0,"duration":1.0,"velocity":127,"measure":39,"beat":3.0,"subject_pos":-1,"motif":"","motif_pos":-1,"best_pos":3,"similarity":0.629,"stretto":false,"stretto_voices":0,"combination":[],"aug_dim":"","rhythm_ratio":1.0,"mirror":false,"chromatic_density":0.111,"complexity":0.377,"dissonance":0.165},{"voice":3,"pitch":45,"start":77.0,"duration":0.25,"velocity":127,"measure":39,"beat":3.0,"subject_pos":-1,"motif":"","motif_pos":-1,"best_pos":3,"similarity":0.5,"stretto":false,"stretto_voices":0,"combination":[],"aug_dim":"","rhythm_ratio":1.0,"mirror":false,"chromatic_density":0.111,"complexity":0.377,"dissonance":0.165},{"voice":3,"pitch":43,"start":77.25,"duration":0.25,"velocity":127,"measure":39,"beat":3.5,"subject_pos":-1,"motif":"","motif_pos":-1,"best_pos":4,"similarity":0.607,"stretto":false,"stretto_voices":0,"combination":[],"aug_dim":"","rhythm_ratio":1.0,"mirror":false,"chromatic_density":0.111,"complexity":0.377,"dissonance":0.165},{"voice":0,"pitch":74,"start":77.5,"duration":1.0,"velocity":127,"measure":39,"beat":4.0,"subject_pos":-1,"motif":"","motif_pos":-1,"best_pos":2,"similarity":0.518,"stretto":false,"stretto_voices":0,"combination":[],"aug_dim":"","rhythm_ratio":1.0,"mirror":false,"chromatic_density":0.111,"complexity":0.377,"dissonance":0.165},{"voice":3,"pitch":45,"start":77.5,"duration":0.25,"velocity":127,"measure":39,"beat":4.0,"subject_pos":-1,"motif":"","motif_pos":-1,"best_pos":5,"similarity":0.679,"stretto":false,"stretto_voices":0,"combination":[],"aug_dim":"","rhythm_ratio":1.0,"mirror":false,"chromatic_density":0.111,"complexity":0.377,"dissonance":0.165},{"voice":3,"pitch":47,"start":77.75,"duration":0.25,"velocity":127,"measure":39,"beat":4.5,"subject_pos":-1,"motif":"","motif_pos":-1,"best_pos":6,"similarity":0.679,"stretto":false,"stretto_voices":0,"combination":[],"aug_dim":"","rhythm_ratio":1.0,"mirror":false,"chromatic_density":0.111,"complexity":0.377,"dissonance":0.165},{"voice":1,"pitch":64,"start":78.0,"duration":1.0,"velocity":127,"measure":40,"beat":1.0,"subject_pos":-1,"motif":"","motif_pos":-1,"best_pos":4,"similarity":0.471,"stretto":false,"stretto_voices":0,"combination":[],"aug_dim":"","rhythm_ratio":1.0,"mirror":false,"chromatic_density":0.111,"complexity":0.401,"dissonance":0.125},{"voice":3,"pitch":48,"start":78.0,"duration":0.25,"velocity":127,"measure":40,"beat":1.0,"subject_pos":-1,"motif":"","motif_pos":-1,"best_pos":5,"similarity":0.657,"stretto":false,"stretto_voices":0,"combination":[],"aug_dim":"","rhythm_ratio":1.0,"mirror":false,"chromatic_density":0.111,"complexity":0.401,"dissonance":0.125},{"voice":3,"pitch":50,"start":78.25,"duration":0.25,"velocity":127,"measure":40,"beat":1.5,"subject_pos":-1,"motif":"","motif_pos":-1,"best_pos":5,"similarity":0.607,"stretto":false,"stretto_voices":0,"combination":[],"aug_dim":"","rhythm_ratio":1.0,"mirror":false,"chromatic_density":0.111,"complexity":0.401,"dissonance":0.125},{"voice":0,"pitch":72,"start":78.5,"duration":1.0,"velocity":127,"measure":40,"beat":2.0,"subject_pos":-1,"motif":"","motif_pos":-1,"best_pos":2,"similarity":0.589,"stretto":false,"stretto_voices":0,"combination":[],"aug_dim":"","rhythm_ratio":1.0,"mirror":false,"chromatic_density":0.111,"complexity":0.401,"dissonance":0.125},{"voice":3,"pitch":52,"start":78.5,"duration":0.25,"velocity":127,"measure":40,"beat":2.0,"subject_pos":-1,"motif":"","motif_pos":-1,"best_pos":6,"similarity":0.661,"stretto":false,"stretto_voices":0,"combination":[],"aug_dim":"","rhythm_ratio":1.0,"mirror":false,"chromatic_density":0.111,"complexity":0.401,"dissonance":0.125},{"voice":3,"pitch":53,"start":78.75,"duration":0.25,"velocity":127,"measure":40,"beat":2.5,"subject_pos":-1,"motif":"","motif_pos":-1,"best_pos":5,"similarity":0.657,"stretto":false,"stretto_voices":0,"combination":[],"aug_dim":"","rhythm_ratio":1.0,"mirror":false,"chromatic_density":0.111,"complexity":0.401,"dissonance":0.125},{"voice":1,"pitch":62,"start":79.0,"duration":1.0,"velocity":127,"measure":40,"beat":3.0,"subject_pos":-1,"motif":"","motif_pos":-1,"best_pos":2,"similarity":0.429,"stretto":false,"stretto_voices":0,"combination":[],"aug_dim":"","rhythm_ratio":1.0,"mirror":false,"chromatic_density":0.111,"complexity":0.401,"dissonance":0.125},{"voice":3,"pitch":55,"start":79.0,"duration":0.25,"velocity":127,"measure":40,"beat":3.0,"subject_pos":-1,"motif":"","motif_pos":-1,"best_pos":6,"similarity":0.579,"stretto":false,"stretto_voices":0,"combination":[],"aug_dim":"","rhythm_ratio":1.0,"mirror":false,"chromatic_density":0.111,"complexity":0.401,"dissonance":0.125},{"voice":3,"pitch":57,"start":79.25,"duration":0.25,"velocity":127,"measure":40,"beat":3.5,"subject_pos":-1,"motif":"","motif_pos":-1,"best_pos":1,"similarity":0.457,"stretto":false,"stretto_voices":0,"combination":[],"aug_dim":"","rhythm_ratio":1.0,"mirror":false,"chromatic_density":0.111,"complexity":0.401,"dissonance":0.125},{"voice":0,"pitch":70,"start":79.5,"duration":1.25,"velocity":127,"measure":40,"beat":4.0,"subject_pos":-1,"motif":"bach","motif_pos":0,"best_pos":0,"similarity":1.0,"stretto":false,"stretto_voices":0,"combination":["bach_family","subject_family"],"aug_dim":"","rhythm_ratio":1.0,"mirror":false,"chromatic_density":0.111,"complexity":0.401,"dissonance":0.125},{"voice":3,"pitch":55,"start":79.5,"duration":0.25,"velocity":127,"measure":40,"beat":4.0,"subject_pos":-1,"motif":"","motif_pos":-1,"best_pos":2,"similarity":0.586,"stretto":false,"stretto_voices":0,"combination":[],"aug_dim":"","rhythm_ratio":1.0,"mirror":false,"chromatic_density":0.111,"complexity":0.401,"dissonance":0.125},{"voice":3,"pitch":53,"start":79.75,"duration":0.25,"velocity":127,"measure":40,"beat":4.5,"subject_pos":-1,"motif":"","motif_pos":-1,"best_pos":3,"similarity":0.586,"stretto":false,"stretto_voices":0,"combination":[],"aug_dim":"","rhythm_ratio":1.0,"mirror":false,"chromatic_density":0.111,"complexity":0.401,"dissonance":0.125},{"voice":1,"pitch":60,"start":80.0,"duration":0.5,"velocity":127,"measure":41,"beat":1.0,"subject_pos":-1,"motif":"","motif_pos":-1,"best_pos":0,"similarity":0.321,"stretto":false,"stretto_voices":0,"combination":[],"aug_dim":"","rhythm_ratio":1.0,"mirror":false,"chromatic_density":0.222,"complexity":0.694,"dissonance":0.121},{"voice":2,"pitch":60,"start":80.0,"duration":1.0,"velocity":127,"measure":41,"beat":1.0,"subject_pos":0,"motif":"subject_inv","motif_pos":0,"best_pos":0,"similarity":1.0,"stretto":false,"stretto_voices":0,"combination":["bach_family","subject_family"],"aug_dim":"","rhythm_ratio":1.0,"mirror":false,"chromatic_density":0.222,"complexity":0.694,"dissonance":0.121},{"voice":3,"pitch":52,"start":80.0,"duration":0.25,"velocity":127,"measure":41,"beat":1.0,"subject_pos":-1,"motif":"","motif_pos":-1,"best_pos":4,"similarity":0.45,"stretto":false,"stretto_voices":0,"combination":[],"aug_dim":"","rhythm_ratio":1.0,"mirror":false,"chromatic_density":0.222,"complexity":0.694,"dissonance":0.121},{"voice":3,"pitch":48,"start":80.25,"duration":0.25,"velocity":127,"measure":41,"beat":1.5,"subject_pos":-1,"motif":"","motif_pos":-1,"best_pos":0,"similarity":0.446,"stretto":false,"stretto_voices":0,"combination":[],"aug_dim":"","rhythm_ratio":1.0,"mirror":false,"chromatic_density":0.222,"complexity":0.694,"dissonance":0.121},{"voice":3,"pitch":53,"start":80.5,"duration":1.0,"velocity":127,"measure":41,"beat":2.0,"subject_pos":-1,"motif":"","motif_pos":-1,"best_pos":1,"similarity":0.607,"stretto":false,"stretto_voices":0,"combination":[],"aug_dim":"","rhythm_ratio":1.0,"mirror":false,"chromatic_density":0.222,"complexity":0.694,"dissonance":0.121},{"voice":0,"pitch":69,"start":80.75,"duration":0.25,"velocity":127,"measure":41,"beat":2.5,"subject_pos":-1,"motif":"bach","motif_pos":1,"best_pos":1,"similarity":1.0,"stretto":false,"stretto_voices":0,"combination":["bach_family","subject_family"],"aug_dim":"","rhythm_ratio":1.0,"mirror":false,"chromatic_density":0.222,"complexity":0.694,"dissonance":0.121},{"voice":0,"pitch":72,"start":81.0,"duration":0.25,"velocity":127,"measure":41,"beat":3.0,"subject_pos":-1,"motif":"bach","motif_pos":2,"best_pos":2,"similarity":1.0,"stretto":false,"stretto_voices":0,"combination":["bach_family","subject_family"],"aug_dim":"","rhythm_ratio":1.0,"mirror":false,"chromatic_density":0.222,"complexity":0.694,"dissonance":0.121},{"voice":1,"pitch":67,"start":81.0,"duration":1.0,"velocity":127,"measure":41,"beat":3.0,"subject_pos":0,"motif":"subject","motif_pos":0,"best_pos":0,"similarity":1.0,"stretto":true,"stretto_voices":2,"combination":["bach_family","subject_family"],"aug_dim":"","rhythm_ratio":1.0,"mirror":false,"chromatic_density":0.222,"complexity":0.694,"dissonance":0.121},{"voice":2,"pitch":55,"start":81.0,"duration":0.75,"velocity":127,"measure":41,"beat":3.0,"subject_pos":1,"motif":"subject_inv","motif_pos":1,"best_pos":1,"similarity":1.0,"stretto":true,"stretto_voices":2,"combination":["bach_family","subject_family"],"aug_dim":"","rhythm_ratio":1.0,"mirror":false,"chromatic_density":0.222,"complexity":0.694,"dissonance":0.121},{"voice":0,"pitch":71,"start":81.25,"duration":0.25,"velocity":127,"measure":41,"beat":3.5,"subject_pos":-1,"motif":"bach","motif_pos":3,"best_pos":3,"similarity":1.0,"stretto":false,"stretto_voices":0,"combination":["bach_family","subject_family"],"aug_dim":"","rhythm_ratio":1.0,"mirror":false,"chromatic_density":0.222,"complexity":0.694,"dissonance":0.121},{"voice":0,"pitch":72,"start":81.5,"duration":0.5,"velocity":127,"measure":41,"beat":4.0,"subject_pos":-1,"motif":"","motif_pos":-1,"best_pos":5,"similarity":0.429,"stretto":false,"stretto_voices":0,"combination":[],"aug_dim":"","rhythm_ratio":1.0,"mirror":false,"chromatic_density":0.222,"complexity":0.694,"dissonance":0.121},{"voice":3,"pitch":51,"start":81.5,"duration":0.5,"velocity":127,"measure":41,"beat":4.0,"subject_pos":-1,"motif":"","motif_pos":-1,"best_pos":2,"similarity":0.507,"stretto":false,"stretto_voices":0,"combination":[],"aug_dim":"","rhythm_ratio":1.0,"mirror":false,"chromatic_density":0.222,"complexity":0.694,"dissonance":0.121},{"voice":2,"pitch":57,"start":81.75,"duration":0.25,"velocity":127,"measure":41,"beat":4.5,"subject_pos":2,"motif":"subject_inv","motif_pos":2,"best_pos":2,"similarity":1.0,"stretto":true,"stretto_voices":2,"combination":[],"aug_dim":"","rhythm_ratio":1.0,"mirror":false,"chromatic_density":0.222,"complexity":0.694,"dissonance":0.121},{"voice":0,"pitch":66,"start":82.0,"duration":0.25,"velocity":127,"measure":42,"beat":1.0,"subject_pos":-1,"motif":"","motif_pos":-1,"best_pos":1,"similarity":0.286,"stretto":false,"stretto_voices":0,"combination":[],"aug_dim":"","rhythm_ratio":1.0,"mirror":false,"chromatic_density":0.111,"complexity":0.698,"dissonance":0.021},{"voice":1,"pitch":74,"start":82.0,"duration":0.75,"velocity":127,"measure":42,"beat":1.0,"subject_pos":1,"motif":"subject","motif_pos":1,"best_pos":1,"similarity":1.0,"stretto":true,"stretto_voices":2,"combination":[],"aug_dim":"","rhythm_ratio":1.0,"mirror":false,"chromatic_density":0.111,"complexity":0.698,"dissonance":0.021},{"voice":2,"pitch":58,"start":82.0,"duration":0.75,"velocity":127,"measure":42,"beat":1.0,"subject_pos":3,"motif":"subject_inv","motif_pos":3,"best_pos":3,"similarity":1.0,"stretto":true,"stretto_voices":2,"combination":[],"aug_dim":"","rhythm_ratio":1.0,"mirror":false,"chromatic_density":0.111,"complexity":0.698,"dissonance":0.021},{"voice":3,"pitch":50,"start":82.0,"duration":2.25,"velocity":127,"measure":42,"beat":1.0,"subject_pos":-1,"motif":"","motif_pos":-1,"best_pos":4,"similarity":0.407,"stretto":false,"stretto_voices":0,"combination":[],"aug_dim":"","rhythm_ratio":1.0,"mirror":false,"chromatic_density":0.111,"complexity":0.698,"dissonance":0.021},{"voice":0,"pitch":62,"start":82.25,"duration":0.25,"velocity":127,"measure":42,"beat":1.5,"subject_pos":-1,"motif":"","motif_pos":-1,"best_pos":0,"similarity":0.321,"stretto":false,"stretto_voices":0,"combination":[],"aug_dim":"","rhythm_ratio":1.0,"mirror":false,"chromatic_density":0.111,"complexity":0.698,"dissonance":0.021},{"voice":0,"pitch":67,"start":82.5,"duration":0.75,"velocity":127,"measure":42,"beat":2.0,"subject_pos":-1,"motif":"","motif_pos":-1,"best_pos":1,"similarity":0.357,"stretto":false,"stretto_voices":0,"combination":[],"aug_dim":"","rhythm_ratio":1.0,"mirror":false,"chromatic_density":0.111,"complexity":0.698,"dissonance":0.021},{"voice":1,"pitch":72,"start":82.75,"duration":0.25,"velocity":127,"measure":42,"beat":2.5,"subject_pos":2,"motif":"subject","motif_pos":2,"best_pos":2,"similarity":1.0,"stretto":true,"stretto_voices":2,"combination":[],"aug_dim":"","rhythm_ratio":1.0,"mirror":false,"chromatic_density":0.111,"complexity":0.698,"dissonance":0.021},{"voice":2,"pitch":60,"start":82.75,"duration":0.25,"velocity":127,"measure":42,"beat":2.5,"subject_pos":4,"motif":"subject_inv","motif_pos":4,"best_pos":4,"similarity":1.0,"stretto":true,"stretto_voices":2,"combination":[],"aug_dim":"","rhythm_ratio":1.0,"mirror":false,"chromatic_density":0.111,"complexity":0.698,"dissonance":0.021},{"voice":1,"pitch":70,"start":83.0,"duration":0.75,"velocity":127,"measure":42,"beat":3.0,"subject_pos":3,"motif":"subject","motif_pos":3,"best_pos":3,"similarity":1.0,"stretto":true,"stretto_voices":2,"combination":[],"aug_dim":"","rhythm_ratio":1.0,"mirror":false,"chromatic_density":0.111,"complexity":0.698,"dissonance":0.021},{"voice":2,"pitch":62,"start":83.0,"duration":1.0,"velocity":127,"measure":42,"beat":3.0,"subject_pos":5,"motif":"subject_inv","motif_pos":5,"best_pos":5,"similarity":1.0,"stretto":true,"stretto_voices":2,"combination":[],"aug_dim":"","rhythm_ratio":1.0,"mirror":false,"chromatic_density":0.111,"complexity":0.698,"dissonance":0.021},{"voice":0,"pitch":79,"start":83.25,"duration":0.25,"velocity":127,"measure":42,"beat":3.5,"subject_pos":-1,"motif":"","motif_pos":-1,"best_pos":1,"similarity":0.371,"stretto":false,"stretto_voices":0,"combination":[],"aug_dim":"","rhythm_ratio":1.0,"mirror":false,"chromatic_density":0.111,"complexity":0.698,"dissonance":0.021},{"voice":0,"pitch":77,"start":83.5,"duration":0.5,"velocity":127,"measure":42,"beat":4.0,"subject_pos":-1,"motif":"","motif_pos":-1,"best_pos":2,"similarity":0.464,"stretto":false,"stretto_voices":0,"combination":[],"aug_dim":"","rhythm_ratio":1.0,"mirror":false,"chromatic_density":0.111,"complexity":0.698,"dissonance":0.021},{"voice":1,"pitch":69,"start":83.75,"duration":0.25,"velocity":127,"measure":42,"beat":4.5,"subject_pos":4,"motif":"subject","motif_pos":4,"best_pos":4,"similarity":1.0,"stretto":true,"stretto_voices":2,"combination":[],"aug_dim":"","rhythm_ratio":1.0,"mirror":false,"chromatic_density":0.111,"complexity":0.698,"dissonance":0.021},{"voice":0,"pitch":70,"start":84.0,"duration":0.75,"velocity":127,"measure":43,"beat":1.0,"subject_pos":-1,"motif":"enigmatic_cell","motif_pos":0,"best_pos":0,"similarity":1.0,"stretto":false,"stretto_voices":0,"combination":[],"aug_dim":"","rhythm_ratio":1.0,"mirror":false,"chromatic_density":0.5,"complexity":0.671,"dissonance":0.159},{"voice":1,"pitch":67,"start":84.0,"duration":1.0,"velocity":127,"measure":43,"beat":1.0,"subject_pos":5,"motif":"subject","motif_pos":5,"best_pos":5,"similarity":1.0,"stretto":true,"stretto_voices":2,"combination":[],"aug_dim":"","rhythm_ratio":1.0,"mirror":false,"chromatic_density":0.5,"complexity":0.671,"dissonance":0.159},{"voice":2,"pitch":63,"start":84.0,"duration":1.0,"velocity":127,"measure":43,"beat":1.0,"subject_pos":6,"motif":"subject_inv","motif_pos":6,"best_pos":6,"similarity":1.0,"stretto":true,"stretto_voices":2,"combination":[],"aug_dim":"","rhythm_ratio":1.0,"mirror":false,"chromatic_density":0.5,"complexity":0.671,"dissonance":0.159},{"voice":3,"pitch":43,"start":84.25,"duration":0.25,"velocity":127,"measure":43,"beat":1.5,"subject_pos":-1,"motif":"","motif_pos":-1,"best_pos":0,"similarity":0.357,"stretto":false,"stretto_voices":0,"combination":[],"aug_dim":"","rhythm_ratio":1.0,"mirror":false,"chromatic_density":0.5,"complexity":0.671,"dissonance":0.159},{"voice":3,"pitch":48,"start":84.5,"duration":0.75,"velocity":127,"measure":43,"beat":2.0,"subject_pos":-1,"motif":"","motif_pos":-1,"best_pos":1,"similarity":0.5,"stretto":false,"stretto_voices":0,"combination":[],"aug_dim":"","rhythm_ratio":1.0,"mirror":false,"chromatic_density":0.5,"complexity":0.671,"dissonance":0.159},{"voice":0,"pitch":69,"start":84.75,"duration":0.25,"velocity":127,"measure":43,"beat":2.5,"subject_pos":-1,"motif":"enigmatic_cell","motif_pos":1,"best_pos":1,"similarity":1.0,"stretto":false,"stretto_voices":0,"combination":[],"aug_dim":"","rhythm_ratio":1.0,"mirror":false,"chromatic_density":0.5,"complexity":0.671,"dissonance":0.159},{"voice":0,"pitch":74,"start":85.0,"duration":0.5,"velocity":127,"measure":43,"beat":3.0,"subject_pos":-1,"motif":"enigmatic_cell","motif_pos":2,"best_pos":2,"similarity":1.0,"stretto":false,"stretto_voices":0,"combination":[],"aug_dim":"","rhythm_ratio":1.0,"mirror":false,"chromatic_density":0.5,"complexity":0.671,"dissonance":0.159},{"voice":1,"pitch":66,"start":85.0,"duration":1.0,"velocity":127,"measure":43,"beat":3.0,"subject_pos":6,"motif":"subject","motif_pos":6,"best_pos":6,"similarity":1.0,"stretto":true,"stretto_voices":2,"combination":[],"aug_dim":"","rhythm_ratio":1.0,"mirror":false,"chromatic_density":0.5,"complexity":0.671,"dissonance":0.159},{"voice":2,"pitch":62,"start":85.0,"duration":0.75,"velocity":127,"measure":43,"beat":3.0,"subject_pos":7,"motif":"subject_inv","motif_pos":7,"best_pos":7,"similarity":1.0,"stretto":true,"stretto_voices":2,"combination":[],"aug_dim":"","rhythm_ratio":1.0,"mirror":false,"chromatic_density":0.5,"complexity":0.671,"dissonance":0.159},{"voice":3,"pitch":48,"start":85.25,"duration":0.25,"velocity":127,"measure":43,"beat":3.5,"subject_pos":-1,"motif":"","motif_pos":-1,"best_pos":2,"similarity":0.507,"stretto":false,"stretto_voices":0,"combination":[],"aug_dim":"","rhythm_ratio":1.0,"mirror":false,"chromatic_density":0.5,"complexity":0.671,"dissonance":0.159},{"voice":3,"pitch":46,"start":85.5,"duration":0.25,"velocity":127,"measure":43,"beat":4.0,"subject_pos":-1,"motif":"","motif_pos":-1,"best_pos":3,"similarity":0.55,"stretto":false,"stretto_voices":0,"combination":[],"aug_dim":"","rhythm_ratio":1.0,"mirror":false,"chromatic_density":0.5,"complexity":0.671,"dissonance":0.159},{"voice":2,"pitch":60,"start":85.75,"duration":0.25,"velocity":127,"measure":43,"beat":4.5,"subject_pos":8,"motif":"subject_inv","motif_pos":8,"best_pos":0,"similarity":1.0,"stretto":true,"stretto_voices":2,"combination":[],"aug_dim":"","rhythm_ratio":1.0,"mirror":false,"chromatic_density":0.5,"complexity":0.671,"dissonance":0.159},{"voice":3,"pitch":45,"start":85.75,"duration":0.25,"velocity":127,"measure":43,"beat":4.5,"subject_pos":-1,"motif":"","motif_pos":-1,"best_pos":4,"similarity":0.439,"stretto":false,"stretto_voices":0,"combination":[],"aug_dim":"","rhythm_ratio":1.0,"mirror":false,"chromatic_density":0.5,"complexity":0.671,"dissonance":0.159},{"voice":1,"pitch":67,"start":86.0,"duration":0.75,"velocity":127,"measure":44,"beat":1.0,"subject_pos":7,"motif":"subject","motif_pos":7,"best_pos":7,"similarity":1.0,"stretto":false,"stretto_voices":0,"combination":[],"aug_dim":"","rhythm_ratio":1.0,"mirror":false,"chromatic_density":0.444,"complexity":0.559,"dissonance":0.143},{"voice":2,"pitch":58,"start":86.0,"duration":1.25,"velocity":127,"measure":44,"beat":1.0,"subject_pos":-1,"motif":"","motif_pos":-1,"best_pos":3,"similarity":0.786,"stretto":false,"stretto_voices":0,"combination":[],"aug_dim":"","rhythm_ratio":1.0,"mirror":false,"chromatic_density":0.444,"complexity":0.559,"dissonance":0.143},{"voice":3,"pitch":43,"start":86.0,"duration":0.25,"velocity":127,"measure":44,"beat":1.0,"subject_pos":-1,"motif":"","motif_pos":-1,"best_pos":4,"similarity":0.429,"stretto":false,"stretto_voices":0,"combination":[],"aug_dim":"","rhythm_ratio":1.0,"mirror":false,"chromatic_density":0.444,"complexity":0.559,"dissonance":0.143},{"voice":3,"pitch":50,"start":86.25,"duration":0.25,"velocity":127,"measure":44,"beat":1.5,"subject_pos":-1,"motif":"","motif_pos":-1,"best_pos":4,"similarity":0.464,"stretto":false,"stretto_voices":0,"combination":[],"aug_dim":"","rhythm_ratio":1.0,"mirror":false,"chromatic_density":0.444,"complexity":0.559,"dissonance":0.143},{"voice":3,"pitch":52,"start":86.5,"duration":0.25,"velocity":127,"measure":44,"beat":2.0,"subject_pos":-1,"motif":"","motif_pos":-1,"best_pos":5,"similarity":0.607,"stretto":false,"stretto_voices":0,"combination":[],"aug_dim":"","rhythm_ratio":1.0,"mirror":false,"chromatic_density":0.444,"complexity":0.559,"dissonance":0.143},{"voice":1,"pitch":69,"start":86.75,"duration":0.25,"velocity":127,"measure":44,"beat":2.5,"subject_pos":8,"motif":"subject","motif_pos":8,"best_pos":0,"similarity":1.0,"stretto":false,"stretto_voices":0,"combination":[],"aug_dim":"","rhythm_ratio":1.0,"mirror":false,"chromatic_density":0.444,"complexity":0.559,"dissonance":0.143},{"voice":3,"pitch":54,"start":86.75,"duration":0.25,"velocity":127,"measure":44,"beat":2.5,"subject_pos":-1,"motif":"","motif_pos":-1,"best_pos":6,"similarity":0.643,"stretto":false,"stretto_voices":0,"combination":[],"aug_dim":"","rhythm_ratio":1.0,"mirror":false,"chromatic_density":0.444,"complexity":0.559,"dissonance":0.143},{"voice":1,"pitch":70,"start":87.0,"duration":1.25,"velocity":127,"measure":44,"beat":3.0,"subject_pos":-1,"motif":"","motif_pos":-1,"best_pos":5,"similarity":0.607,"stretto":false,"stretto_voices":0,"combination":[],"aug_dim":"","rhythm_ratio":1.0,"mirror":false,"chromatic_density":0.444,"complexity":0.559,"dissonance":0.143},{"voice":3,"pitch":55,"start":87.0,"duration":1.5,"velocity":127,"measure":44,"beat":3.0,"subject_pos":-1,"motif":"","motif_pos":-1,"best_pos":7,"similarity":0.464,"stretto":false,"stretto_voices":0,"combination":[],"aug_dim":"","rhythm_ratio":1.0,"mirror":false,"chromatic_density":0.444,"complexity":0.559,"dissonance":0.143},{"voice":2,"pitch":57,"start":87.25,"duration":0.25,"velocity":127,"measure":44,"beat":3.5,"subject_pos":-1,"motif":"","motif_pos":-1,"best_pos":4,"similarity":0.893,"stretto":false,"stretto_voices":0,"combination":[],"aug_dim":"","rhythm_ratio":1.0,"mirror":false,"chromatic_density":0.444,"complexity":0.559,"dissonance":0.143},{"voice":0,"pitch":74,"start":87.5,"duration":0.5,"velocity":127,"measure":44,"beat":4.0,"subject_pos":-1,"motif":"","motif_pos":-1,"best_pos":0,"similarity":0.464,"stretto":false,"stretto_voices":0,"combination":[],"aug_dim":"","rhythm_ratio":1.0,"mirror":false,"chromatic_density":0.444,"complexity":0.559,"dissonance":0.143},{"voice":2,"pitch":58,"start":87.5,"duration":0.25,"velocity":127,"measure":44,"beat":4.0,"subject_pos":-1,"motif":"","motif_pos":-1,"best_pos":5,"similarity":0.821,"stretto":false,"stretto_voices":0,"combination":[],"aug_dim":"","rhythm_ratio":1.0,"mirror":false,"chromatic_density":0.444,"complexity":0.559,"dissonance":0.143},{"voice":2,"pitch":60,"start":87.75,"duration":0.25,"velocity":127,"measure":44,"beat":4.5,"subject_pos":-1,"motif":"","motif_pos":-1,"best_pos":6,"similarity":0.643,"stretto":false,"stretto_voices":0,"combination":[],"aug_dim":"","rhythm_ratio":1.0,"mirror":false,"chromatic_density":0.444,"complexity":0.559,"dissonance":0.143},{"voice":0,"pitch":79,"start":88.0,"duration":1.5,"velocity":127,"measure":45,"beat":1.0,"subject_pos":-1,"motif":"","motif_pos":-1,"best_pos":1,"similarity":0.65,"stretto":false,"stretto_voices":0,"combination":[],"aug_dim":"","rhythm_ratio":1.0,"mirror":false,"chromatic_density":0.182,"complexity":0.536,"dissonance":0.133},{"voice":2,"pitch":62,"start":88.0,"duration":1.25,"velocity":127,"measure":45,"beat":1.0,"subject_pos":-1,"motif":"","motif_pos":-1,"best_pos":6,"similarity":0.518,"stretto":false,"stretto_voices":0,"combination":[],"aug_dim":"","rhythm_ratio":1.0,"mirror":false,"chromatic_density":0.182,"complexity":0.536,"dissonance":0.133},{"voice":1,"pitch":72,"start":88.25,"duration":0.25,"velocity":127,"measure":45,"beat":1.5,"subject_pos":-1,"motif":"","motif_pos":-1,"best_pos":6,"similarity":0.464,"stretto":false,"stretto_voices":0,"combination":[],"aug_dim":"","rhythm_ratio":1.0,"mirror":false,"chromatic_density":0.182,"complexity":0.536,"dissonance":0.133},{"voice":1,"pitch":70,"start":88.5,"duration":0.25,"velocity":127,"measure":45,"beat":2.0,"subject_pos":-1,"motif":"","motif_pos":-1,"best_pos":3,"similarity":0.5,"stretto":false,"stretto_voices":0,"combination":[],"aug_dim":"","rhythm_ratio":1.0,"mirror":false,"chromatic_density":0.182,"complexity":0.536,"dissonance":0.133},{"voice":3,"pitch":53,"start":88.5,"duration":0.5,"velocity":127,"measure":45,"beat":2.0,"subject_pos":-1,"motif":"","motif_pos":-1,"best_pos":2,"similarity":0.532,"stretto":false,"stretto_voices":0,"combination":[],"aug_dim":"","rhythm_ratio":1.0,"mirror":false,"chromatic_density":0.182,"complexity":0.536,"dissonance":0.133},{"voice":1,"pitch":69,"start":88.75,"duration":0.25,"velocity":127,"measure":45,"beat":2.5,"subject_pos":-1,"motif":"","motif_pos":-1,"best_pos":4,"similarity":0.482,"stretto":false,"stretto_voices":0,"combination":[],"aug_dim":"","rhythm_ratio":1.0,"mirror":false,"chromatic_density":0.182,"complexity":0.536,"dissonance":0.133},{"voice":1,"pitch":67,"start":89.0,"duration":0.25,"velocity":127,"measure":45,"beat":3.0,"subject_pos":-1,"motif":"","motif_pos":-1,"best_pos":2,"similarity":0.436,"stretto":false,"stretto_voices":0,"combination":[],"aug_dim":"","rhythm_ratio":1.0,"mirror":false,"chromatic_density":0.182,"complexity":0.536,"dissonance":0.133},{"voice":3,"pitch":51,"start":89.0,"duration":1.25,"velocity":127,"measure":45,"beat":3.0,"subject_pos":-1,"motif":"","motif_pos":-1,"best_pos":3,"similarity":0.479,"stretto":false,"stretto_voices":0,"combination":[],"aug_dim":"","rhythm_ratio":1.0,"mirror":false,"chromatic_density":0.182,"complexity":0.536,"dissonance":0.133},{"voice":1,"pitch":70,"start":89.25,"duration":0.25,"velocity":127,"measure":45,"beat":3.5,"subject_pos":-1,"motif":"","motif_pos":-1,"best_pos":3,"similarity":0.514,"stretto":false,"stretto_voices":0,"combination":[],"aug_dim":"","rhythm_ratio":1.0,"mirror":false,"chromatic_density":0.182,"complexity":0.536,"dissonance":0.133},{"voice":2,"pitch":62,"start":89.25,"duration":0.25,"velocity":127,"measure":45,"beat":3.5,"subject_pos":-1,"motif":"","motif_pos":-1,"best_pos":1,"similarity":0.364,"stretto":false,"stretto_voices":0,"combination":[],"aug_dim":"","rhythm_ratio":1.0,"mirror":false,"chromatic_density":0.182,"complexity":0.536,"dissonance":0.133},{"voice":0,"pitch":77,"start":89.5,"duration":0.25,"velocity":127,"measure":45,"beat":4.0,"subject_pos":-1,"motif":"","motif_pos":-1,"best_pos":2,"similarity":0.593,"stretto":false,"stretto_voices":0,"combination":[],"aug_dim":"","rhythm_ratio":1.0,"mirror":false,"chromatic_density":0.182,"complexity":0.536,"dissonance":0.133},{"voice":1,"pitch":69,"start":89.5,"duration":0.25,"velocity":127,"measure":45,"beat":4.0,"subject_pos":-1,"motif":"","motif_pos":-1,"best_pos":4,"similarity":0.546,"stretto":false,"stretto_voices":0,"combination":[],"aug_dim":"","rhythm_ratio":1.0,"mirror":false,"chromatic_density":0.182,"complexity":0.536,"dissonance":0.133},{"voice":2,"pitch":60,"start":89.5,"duration":0.25,"velocity":127,"measure":45,"beat":4.0,"subject_pos":-1,"motif":"","motif_pos":-1,"best_pos":2,"similarity":0.443,"stretto":false,"stretto_voices":0,"combination":[],"aug_dim":"","rhythm_ratio":1.0,"mirror":false,"chromatic_density":0.182,"complexity":0.536,"dissonance":0.133},{"voice":0,"pitch":75,"start":89.75,"duration":0.25,"velocity":127,"measure":45,"beat":4.5,"subject_pos":-1,"motif":"","motif_pos":-1,"best_pos":3,"similarity":0.407,"stretto":false,"stretto_voices":0,"combination":[],"aug_dim":"","rhythm_ratio":1.0,"mirror":false,"chromatic_density":0.182,"complexity":0.536,"dissonance":0.133},{"voice":1,"pitch":67,"start":89.75,"duration":0.25,"velocity":127,"measure":45,"beat":4.5,"subject_pos":-1,"motif":"","motif_pos":-1,"best_pos":5,"similarity":0.493,"stretto":false,"stretto_voices":0,"combination":[],"aug_dim":"","rhythm_ratio":1.0,"mirror":false,"chromatic_density":0.182,"complexity":0.536,"dissonance":0.133},{"voice":2,"pitch":58,"start":89.75,"duration":0.25,"velocity":127,"measure":45,"beat":4.5,"subject_pos":-1,"motif":"","motif_pos":-1,"best_pos":5,"similarity":0.393,"stretto":false,"stretto_voices":0,"combination":[],"aug_dim":"","rhythm_ratio":1.0,"mirror":false,"chromatic_density":0.182,"complexity":0.536,"dissonance":0.133},{"voice":0,"pitch":77,"start":90.0,"duration":1.25,"velocity":127,"measure":46,"beat":1.0,"subject_pos":-1,"motif":"","motif_pos":-1,"best_pos":6,"similarity":0.364,"stretto":false,"stretto_voices":0,"combination":[],"aug_dim":"","rhythm_ratio":1.0,"mirror":false,"chromatic_density":0.273,"complexity":0.576,"dissonance":0.129},{"voice":1,"pitch":69,"start":90.0,"duration":0.5,"velocity":127,"measure":46,"beat":1.0,"subject_pos":-1,"motif":"","motif_pos":-1,"best_pos":6,"similarity":0.443,"stretto":false,"stretto_voices":0,"combination":[],"aug_dim":"","rhythm_ratio":1.0,"mirror":false,"chromatic_density":0.273,"complexity":0.576,"dissonance":0.129},{"voice":2,"pitch":60,"start":90.0,"duration":1.25,"velocity":127,"measure":46,"beat":1.0,"subject_pos":-1,"motif":"","motif_pos":-1,"best_pos":6,"similarity":0.336,"stretto":false,"stretto_voices":0,"combination":[],"aug_dim":"","rhythm_ratio":1.0,"mirror":false,"chromatic_density":0.273,"complexity":0.576,"dissonance":0.129},{"voice":3,"pitch":51,"start":90.25,"duration":0.25,"velocity":127,"measure":46,"beat":1.5,"subject_pos":-1,"motif":"","motif_pos":-1,"best_pos":3,"similarity":0.543,"stretto":false,"stretto_voices":0,"combination":[],"aug_dim":"","rhythm_ratio":1.0,"mirror":false,"chromatic_density":0.273,"complexity":0.576,"dissonance":0.129},{"voice":1,"pitch":72,"start":90.5,"duration":0.5,"velocity":127,"measure":46,"beat":2.0,"subject_pos":-1,"motif":"","motif_pos":-1,"best_pos":4,"similarity":0.25,"stretto":false,"stretto_voices":0,"combination":[],"aug_dim":"","rhythm_ratio":1.0,"mirror":false,"chromatic_density":0.273,"complexity":0.576,"dissonance":0.129},{"voice":3,"pitch":50,"start":90.5,"duration":0.25,"velocity":127,"measure":46,"beat":2.0,"subject_pos":-1,"motif":"","motif_pos":-1,"best_pos":4,"similarity":0.614,"stretto":false,"stretto_voices":0,"combination":[],"aug_dim":"","rhythm_ratio":1.0,"mirror":false,"chromatic_density":0.273,"complexity":0.576,"dissonance":0.129},{"voice":3,"pitch":48,"start":90.75,"duration":0.25,"velocity":127,"measure":46,"beat":2.5,"subject_pos":-1,"motif":"","motif_pos":-1,"best_pos":5,"similarity":0.607,"stretto":false,"stretto_voices":0,"combination":[],"aug_dim":"","rhythm_ratio":1.0,"mirror":false,"chromatic_density":0.273,"complexity":0.576,"dissonance":0.129},{"voice":1,"pitch":65,"start":91.0,"duration":0.75,"velocity":127,"measure":46,"beat":3.0,"subject_pos":-1,"motif":"","motif_pos":-1,"best_pos":5,"similarity":0.314,"stretto":false,"stretto_voices":0,"combination":[],"aug_dim":"","rhythm_ratio":1.0,"mirror":false,"chromatic_density":0.273,"complexity":0.576,"dissonance":0.129},{"voice":3,"pitch":50,"start":91.0,"duration":0.75,"velocity":127,"measure":46,"beat":3.0,"subject_pos":-1,"motif":"","motif_pos":-1,"best_pos":6,"similarity":0.657,"stretto":false,"stretto_voices":0,"combination":[],"aug_dim":"","rhythm_ratio":1.0,"mirror":false,"chromatic_density":0.273,"complexity":0.576,"dissonance":0.129},{"voice":0,"pitch":75,"start":91.25,"duration":0.25,"velocity":127,"measure":46,"beat":3.5,"subject_pos":-1,"motif":"","motif_pos":-1,"best_pos":3,"similarity":0.45,"stretto":false,"stretto_voices":0,"combination":[],"aug_dim":"","rhythm_ratio":1.0,"mirror":false,"chromatic_density":0.273,"complexity":0.576,"dissonance":0.129},{"voice":2,"pitch":53,"start":91.25,"duration":0.25,"velocity":127,"measure":46,"beat":3.5,"subject_pos":-1,"motif":"","motif_pos":-1,"best_pos":0,"similarity":0.364,"stretto":false,"stretto_voices":0,"combination":[],"aug_dim":"","rhythm_ratio":1.0,"mirror":false,"chromatic_density":0.273,"complexity":0.576,"dissonance":0.129},{"voice":0,"pitch":74,"start":91.5,"duration":0.75,"velocity":127,"measure":46,"beat":4.0,"subject_pos":-1,"motif":"","motif_pos":-1,"best_pos":4,"similarity":0.386,"stretto":false,"stretto_voices":0,"combination":[],"aug_dim":"","rhythm_ratio":1.0,"mirror":false,"chromatic_density":0.273,"complexity":0.576,"dissonance":0.129},{"voice":2,"pitch":58,"start":91.5,"duration":1.0,"velocity":127,"measure":46,"beat":4.0,"subject_pos":-1,"motif":"","motif_pos":-1,"best_pos":3,"similarity":0.45,"stretto":false,"stretto_voices":0,"combination":[],"aug_dim":"","rhythm_ratio":1.0,"mirror":false,"chromatic_density":0.273,"complexity":0.576,"dissonance":0.129},{"voice":1,"pitch":67,"start":91.75,"duration":0.25,"velocity":127,"measure":46,"beat":4.5,"subject_pos":-1,"motif":"","motif_pos":-1,"best_pos":1,"similarity":0.457,"stretto":false,"stretto_voices":0,"combination":[],"aug_dim":"","rhythm_ratio":1.0,"mirror":false,"chromatic_density":0.273,"complexity":0.576,"dissonance":0.129},{"voice":3,"pitch":51,"start":91.75,"duration":0.25,"velocity":127,"measure":46,"beat":4.5,"subject_pos":-1,"motif":"","motif_pos":-1,"best_pos":5,"similarity":0.621,"stretto":false,"stretto_voices":0,"combination":[],"aug_dim":"","rhythm_ratio":1.0,"mirror":false,"chromatic_density":0.273,"complexity":0.576,"dissonance":0.129},{"voice":1,"pitch":65,"start":92.0,"duration":0.25,"velocity":127,"measure":47,"beat":1.0,"subject_pos":-1,"motif":"","motif_pos":-1,"best_pos":2,"similarity":0.593,"stretto":false,"stretto_voices":0,"combination":[],"aug_dim":"","rhythm_ratio":1.0,"mirror":false,"chromatic_density":0.231,"complexity":0.601,"dissonance":0.077},{"voice":3,"pitch":53,"start":92.0,"duration":1.0,"velocity":127,"measure":47,"beat":1.0,"subject_pos":-1,"motif":"head_inv","motif_pos":0,"best_pos":0,"similarity":1.0,"stretto":false,"stretto_voices":0,"combination":[],"aug_dim":"","rhythm_ratio":1.0,"mirror":false,"chromatic_density":0.231,"complexity":0.601,"dissonance":0.077},{"voice":0,"pitch":67,"start":92.25,"duration":0.25,"velocity":127,"measure":47,"beat":1.5,"subject_pos":-1,"motif":"","motif_pos":-1,"best_pos":1,"similarity":0.429,"stretto":false,"stretto_voices":0,"combination":[],"aug_dim":"","rhythm_ratio":1.0,"mirror":false,"chromatic_density":0.231,"complexity":0.601,"dissonance":0.077},{"voice":1,"pitch":63,"start":92.25,"duration":0.25,"velocity":127,"measure":47,"beat":1.5,"subject_pos":-1,"motif":"","motif_pos":-1,"best_pos":3,"similarity":0.664,"stretto":false,"stretto_voices":0,"combination":[],"aug_dim":"","rhythm_ratio":1.0,"mirror":false,"chromatic_density":0.231,"complexity":0.601,"dissonance":0.077},{"voice":0,"pitch":65,"start":92.5,"duration":0.25,"velocity":127,"measure":47,"beat":2.0,"subject_pos":-1,"motif":"","motif_pos":-1,"best_pos":2,"similarity":0.589,"stretto":false,"stretto_voices":0,"combination":[],"aug_dim":"","rhythm_ratio":1.0,"mirror":false,"chromatic_density":0.231,"complexity":0.601,"dissonance":0.077},{"voice":1,"pitch":62,"start":92.5,"duration":0.25,"velocity":127,"measure":47,"beat":2.0,"subject_pos":-1,"motif":"","motif_pos":-1,"best_pos":4,"similarity":0.6,"stretto":false,"stretto_voices":0,"combination":[],"aug_dim":"","rhythm_ratio":1.0,"mirror":false,"chromatic_density":0.231,"complexity":0.601,"dissonance":0.077},{"voice":2,"pitch":57,"start":92.5,"duration":0.5,"velocity":127,"measure":47,"beat":2.0,"subject_pos":-1,"motif":"","motif_pos":-1,"best_pos":4,"similarity":0.579,"stretto":false,"stretto_voices":0,"combination":[],"aug_dim":"","rhythm_ratio":1.0,"mirror":false,"chromatic_density":0.231,"complexity":0.601,"dissonance":0.077},{"voice":0,"pitch":63,"start":92.75,"duration":0.25,"velocity":127,"measure":47,"beat":2.5,"subject_pos":-1,"motif":"","motif_pos":-1,"best_pos":3,"similarity":0.679,"stretto":false,"stretto_voices":0,"combination":[],"aug_dim":"","rhythm_ratio":1.0,"mirror":false,"chromatic_density":0.231,"complexity":0.601,"dissonance":0.077},{"voice":1,"pitch":60,"start":92.75,"duration":0.25,"velocity":127,"measure":47,"beat":2.5,"subject_pos":-1,"motif":"","motif_pos":-1,"best_pos":5,"similarity":0.493,"stretto":false,"stretto_voices":0,"combination":[],"aug_dim":"","rhythm_ratio":1.0,"mirror":false,"chromatic_density":0.231,"complexity":0.601,"dissonance":0.077},{"voice":0,"pitch":62,"start":93.0,"duration":0.25,"velocity":127,"measure":47,"beat":3.0,"subject_pos":-1,"motif":"","motif_pos":-1,"best_pos":4,"similarity":0.679,"stretto":false,"stretto_voices":0,"combination":[],"aug_dim":"","rhythm_ratio":1.0,"mirror":false,"chromatic_density":0.231,"complexity":0.601,"dissonance":0.077},{"voice":1,"pitch":62,"start":93.0,"duration":0.5,"velocity":127,"measure":47,"beat":3.0,"subject_pos":-1,"motif":"","motif_pos":-1,"best_pos":3,"similarity":0.386,"stretto":false,"stretto_voices":0,"combination":[],"aug_dim":"","rhythm_ratio":1.0,"mirror":false,"chromatic_density":0.231,"complexity":0.601,"dissonance":0.077},{"voice":2,"pitch":58,"start":93.0,"duration":0.5,"velocity":127,"measure":47,"beat":3.0,"subject_pos":-1,"motif":"","motif_pos":-1,"best_pos":5,"similarity":0.429,"stretto":false,"stretto_voices":0,"combination":[],"aug_dim":"","rhythm_ratio":1.0,"mirror":false,"chromatic_density":0.231,"complexity":0.601,"dissonance":0.077},{"voice":3,"pitch":46,"start":93.0,"duration":0.75,"velocity":127,"measure":47,"beat":3.0,"subject_pos":-1,"motif":"head_inv","motif_pos":1,"best_pos":1,"similarity":1.0,"stretto":false,"stretto_voices":0,"combination":[],"aug_dim":"","rhythm_ratio":1.0,"mirror":false,"chromatic_density":0.231,"complexity":0.601,"dissonance":0.077},{"voice":0,"pitch":65,"start":93.25,"duration":0.25,"velocity":127,"measure":47,"beat":3.5,"subject_pos":-1,"motif":"","motif_pos":-1,"best_pos":5,"similarity":0.607,"stretto":false,"stretto_voices":0,"combination":[],"aug_dim":"","rhythm_ratio":1.0,"mirror":false,"chromatic_density":0.231,"complexity":0.601,"dissonance":0.077},{"voice":0,"pitch":67,"start":93.5,"duration":0.25,"velocity":127,"measure":47,"beat":4.0,"subject_pos":-1,"motif":"","motif_pos":-1,"best_pos":5,"similarity":0.604,"stretto":false,"stretto_voices":0,"combination":[],"aug_dim":"","rhythm_ratio":1.0,"mirror":false,"chromatic_density":0.231,"complexity":0.601,"dissonance":0.077},{"voice":0,"pitch":69,"start":93.75,"duration":0.25,"velocity":127,"measure":47,"beat":4.5,"subject_pos":-1,"motif":"enigmatic_cell","motif_pos":0,"best_pos":0,"similarity":1.0,"stretto":false,"stretto_voices":0,"combination":[],"aug_dim":"","rhythm_ratio":1.0,"mirror":false,"chromatic_density":0.231,"complexity":0.601,"dissonance":0.077},{"voice":3,"pitch":48,"start":93.75,"duration":0.25,"velocity":127,"measure":47,"beat":4.5,"subject_pos":-1,"motif":"head_inv","motif_pos":2,"best_pos":2,"similarity":1.0,"stretto":false,"stretto_voices":0,"combination":[],"aug_dim":"","rhythm_ratio":1.0,"mirror":false,"chromatic_density":0.231,"complexity":0.601,"dissonance":0.077},{"voice":0,"pitch":70,"start":94.0,"duration":0.25,"velocity":127,"measure":48,"beat":1.0,"subject_pos":-1,"motif":"enigmatic_cell","motif_pos":1,"best_pos":1,"similarity":1.0,"stretto":false,"stretto_voices":0,"combination":[],"aug_dim":"","rhythm_ratio":1.0,"mirror":false,"chromatic_density":0.25,"complexity":0.629,"dissonance":0.097},{"voice":3,"pitch":50,"start":94.0,"duration":0.75,"velocity":127,"measure":48,"beat":1.0,"subject_pos":-1,"motif":"head_inv","motif_pos":3,"best_pos":3,"similarity":1.0,"stretto":false,"stretto_voices":0,"combination":[],"aug_dim":"","rhythm_ratio":1.0,"mirror":false,"chromatic_density":0.25,"complexity":0.629,"dissonance":0.097},{"voice":0,"pitch":65,"start":94.25,"duration":0.25,"velocity":127,"measure":48,"beat":1.5,"subject_pos":-1,"motif":"enigmatic_cell","motif_pos":2,"best_pos":2,"similarity":1.0,"stretto":false,"stretto_voices":0,"combination":[],"aug_dim":"","rhythm_ratio":1.0,"mirror":false,"chromatic_density":0.25,"complexity":0.629,"dissonance":0.097},{"voice":1,"pitch":57,"start":94.25,"duration":0.25,"velocity":127,"measure":48,"beat":1.5,"subject_pos":-1,"motif":"","motif_pos":-1,"best_pos":4,"similarity":0.564,"stretto":false,"stretto_voices":0,"combination":[],"aug_dim":"","rhythm_ratio":1.0,"mirror":false,"chromatic_density":0.25,"complexity":0.629,"dissonance":0.097},{"voice":0,"pitch":70,"start":94.5,"duration":0.75,"velocity":127,"measure":48,"beat":2.0,"subject_pos":-1,"motif":"","motif_pos":-1,"best_pos":1,"similarity":0.457,"stretto":false,"stretto_voices":0,"combination":[],"aug_dim":"","rhythm_ratio":1.0,"mirror":false,"chromatic_density":0.25,"complexity":0.629,"dissonance":0.097},{"voice":1,"pitch":58,"start":94.5,"duration":0.25,"velocity":127,"measure":48,"beat":2.0,"subject_pos":-1,"motif":"","motif_pos":-1,"best_pos":5,"similarity":0.657,"stretto":false,"stretto_voices":0,"combination":[],"aug_dim":"","rhythm_ratio":1.0,"mirror":false,"chromatic_density":0.25,"complexity":0.629,"dissonance":0.097},{"voice":1,"pitch":60,"start":94.75,"duration":0.25,"velocity":127,"measure":48,"beat":2.5,"subject_pos":-1,"motif":"","motif_pos":-1,"best_pos":6,"similarity":0.579,"stretto":false,"stretto_voices":0,"combination":[],"aug_dim":"","rhythm_ratio":1.0,"mirror":false,"chromatic_density":0.25,"complexity":0.629,"dissonance":0.097},{"voice":3,"pitch":51,"start":94.75,"duration":0.25,"velocity":127,"measure":48,"beat":2.5,"subject_pos":-1,"motif":"head_inv","motif_pos":4,"best_pos":4,"similarity":1.0,"stretto":false,"stretto_voices":0,"combination":[],"aug_dim":"","rhythm_ratio":1.0,"mirror":false,"chromatic_density":0.25,"complexity":0.629,"dissonance":0.097},{"voice":1,"pitch":62,"start":95.0,"duration":0.25,"velocity":127,"measure":48,"beat":3.0,"subject_pos":-1,"motif":"","motif_pos":-1,"best_pos":6,"similarity":0.404,"stretto":false,"stretto_voices":0,"combination":[],"aug_dim":"","rhythm_ratio":1.0,"mirror":false,"chromatic_density":0.25,"complexity":0.629,"dissonance":0.097},{"voice":2,"pitch":65,"start":95.0,"duration":1.0,"velocity":127,"measure":48,"beat":3.0,"subject_pos":-1,"motif":"head_inv","motif_pos":0,"best_pos":0,"similarity":1.0,"stretto":false,"stretto_voices":0,"combination":[],"aug_dim":"","rhythm_ratio":1.0,"mirror":false,"chromatic_density":0.25,"complexity":0.629,"dissonance":0.097},{"voice":3,"pitch":53,"start":95.0,"duration":1.0,"velocity":127,"measure":48,"beat":3.0,"subject_pos":-1,"motif":"","motif_pos":-1,"best_pos":6,"similarity":0.579,"stretto":false,"stretto_voices":0,"combination":[],"aug_dim":"","rhythm_ratio":1.0,"mirror":false,"chromatic_density":0.25,"complexity":0.629,"dissonance":0.097},{"voice":0,"pitch":72,"start":95.25,"duration":0.25,"velocity":127,"measure":48,"beat":3.5,"subject_pos":-1,"motif":"","motif_pos":-1,"best_pos":2,"similarity":0.529,"stretto":false,"stretto_voices":0,"combination":[],"aug_dim":"","rhythm_ratio":1.0,"mirror":false,"chromatic_density":0.25,"complexity":0.629,"dissonance":0.097},{"voice":1,"pitch":60,"start":95.25,"duration":0.25,"velocity":127,"measure":48,"beat":3.5,"subject_pos":-1,"motif":"","motif_pos":-1,"best_pos":2,"similarity":0.45,"stretto":false,"stretto_voices":0,"combination":[],"aug_dim":"","rhythm_ratio":1.0,"mirror":false,"chromatic_density":0.25,"complexity":0.629,"dissonance":0.097},{"voice":0,"pitch":70,"start":95.5,"duration":0.25,"velocity":127,"measure":48,"beat":4.0,"subject_pos":-1,"motif":"","motif_pos":-1,"best_pos":3,"similarity":0.729,"stretto":false,"stretto_voices":0,"combination":[],"aug_dim":"","rhythm_ratio":1.0,"mirror":false,"chromatic_density":0.25,"complexity":0.629,"dissonance":0.097},{"voice":1,"pitch":63,"start":95.5,"duration":0.5,"velocity":127,"measure":48,"beat":4.0,"subject_pos":-1,"motif":"enigmatic_cell","motif_pos":0,"best_pos":0,"similarity":1.0,"stretto":false,"stretto_voices":0,"combination":[],"aug_dim":"","rhythm_ratio":1.0,"mirror":false,"chromatic_density":0.25,"complexity":0.629,"dissonance":0.097},{"voice":0,"pitch":69,"start":95.75,"duration":0.25,"velocity":127,"measure":48,"beat":4.5,"subject_pos":-1,"motif":"","motif_pos":-1,"best_pos":4,"similarity":0.829,"stretto":false,"stretto_voices":0,"combination":[],"aug_dim":"","rhythm_ratio":1.0,"mirror":false,"chromatic_density":0.25,"complexity":0.629,"dissonance":0.097},{"voice":0,"pitch":70,"start":96.0,"duration":0.25,"velocity":127,"measure":49,"beat":1.0,"subject_pos":-1,"motif":"","motif_pos":-1,"best_pos":5,"similarity":0.821,"stretto":false,"stretto_voices":0,"combination":[],"aug_dim":"","rhythm_ratio":1.0,"mirror":false,"chromatic_density":0.214,"complexity":0.61,"dissonance":0.146},{"voice":1,"pitch":62,"start":96.0,"duration":0.5,"velocity":127,"measure":49,"beat":1.0,"subject_pos":-1,"motif":"enigmatic_cell","motif_pos":1,"best_pos":1,"similarity":1.0,"stretto":false,"stretto_voices":0,"combination":[],"aug_dim":"","rhythm_ratio":1.0,"mirror":false,"chromatic_density":0.214,"complexity":0.61,"dissonance":0.146},{"voice":2,"pitch":58,"start":96.0,"duration":0.75,"velocity":127,"measure":49,"beat":1.0,"subject_pos":-1,"motif":"head_inv","motif_pos":1,"best_pos":1,"similarity":1.0,"stretto":false,"stretto_voices":0,"combination":[],"aug_dim":"","rhythm_ratio":1.0,"mirror":false,"chromatic_density":0.214,"complexity":0.61,"dissonance":0.146},{"voice":3,"pitch":55,"start":96.0,"duration":1.0,"velocity":127,"measure":49,"beat":1.0,"subject_pos":-1,"motif":"","motif_pos":-1,"best_pos":1,"similarity":0.457,"stretto":false,"stretto_voices":0,"combination":[],"aug_dim":"","rhythm_ratio":1.0,"mirror":false,"chromatic_density":0.214,"complexity":0.61,"dissonance":0.146},{"voice":0,"pitch":72,"start":96.25,"duration":0.25,"velocity":127,"measure":49,"beat":1.5,"subject_pos":-1,"motif":"","motif_pos":-1,"best_pos":6,"similarity":0.643,"stretto":false,"stretto_voices":0,"combination":[],"aug_dim":"","rhythm_ratio":1.0,"mirror":false,"chromatic_density":0.214,"complexity":0.61,"dissonance":0.146},{"voice":0,"pitch":74,"start":96.5,"duration":0.75,"velocity":127,"measure":49,"beat":2.0,"subject_pos":-1,"motif":"","motif_pos":-1,"best_pos":6,"similarity":0.661,"stretto":false,"stretto_voices":0,"combination":[],"aug_dim":"","rhythm_ratio":1.0,"mirror":false,"chromatic_density":0.214,"complexity":0.61,"dissonance":0.146},{"voice":1,"pitch":67,"start":96.5,"duration":0.25,"velocity":127,"measure":49,"beat":2.0,"subject_pos":-1,"motif":"enigmatic_cell","motif_pos":2,"best_pos":2,"similarity":1.0,"stretto":false,"stretto_voices":0,"combination":[],"aug_dim":"","rhythm_ratio":1.0,"mirror":false,"chromatic_density":0.214,"complexity":0.61,"dissonance":0.146},{"voice":1,"pitch":69,"start":96.75,"duration":0.25,"velocity":127,"measure":49,"beat":2.5,"subject_pos":-1,"motif":"","motif_pos":-1,"best_pos":6,"similarity":0.657,"stretto":false,"stretto_voices":0,"combination":[],"aug_dim":"","rhythm_ratio":1.0,"mirror":false,"chromatic_density":0.214,"complexity":0.61,"dissonance":0.146},{"voice":2,"pitch":60,"start":96.75,"duration":0.25,"velocity":127,"measure":49,"beat":2.5,"subject_pos":-1,"motif":"head_inv","motif_pos":2,"best_pos":2,"similarity":1.0,"stretto":false,"stretto_voices":0,"combination":[],"aug_dim":"","rhythm_ratio":1.0,"mirror":false,"chromatic_density":0.214,"complexity":0.61,"dissonance":0.146},{"voice":1,"pitch":70,"start":97.0,"duration":0.25,"velocity":127,"measure":49,"beat":3.0,"subject_pos":-1,"motif":"","motif_pos":-1,"best_pos":5,"similarity":0.657,"stretto":false,"stretto_voices":0,"combination":[],"aug_dim":"","rhythm_ratio":1.0,"mirror":false,"chromatic_density":0.214,"complexity":0.61,"dissonance":0.146},{"voice":2,"pitch":62,"start":97.0,"duration":0.75,"velocity":127,"measure":49,"beat":3.0,"subject_pos":-1,"motif":"head_inv","motif_pos":3,"best_pos":3,"similarity":1.0,"stretto":false,"stretto_voices":0,"combination":[],"aug_dim":"","rhythm_ratio":1.0,"mirror":false,"chromatic_density":0.214,"complexity":0.61,"dissonance":0.146},{"voice":3,"pitch":53,"start":97.0,"duration":0.75,"velocity":127,"measure":49,"beat":3.0,"subject_pos":-1,"motif":"","motif_pos":-1,"best_pos":2,"similarity":0.593,"stretto":false,"stretto_voices":0,"combination":[],"aug_dim":"","rhythm_ratio":1.0,"mirror":false,"chromatic_density":0.214,"complexity":0.61,"dissonance":0.146},{"voice":0,"pitch":75,"start":97.25,"duration":0.25,"velocity":127,"measure":49,"beat":3.5,"subject_pos":-1,"motif":"","motif_pos":-1,"best_pos":5,"similarity":0.6,"stretto":false,"stretto_voices":0,"combination":[],"aug_dim":"","rhythm_ratio":1.0,"mirror":false,"chromatic_density":0.214,"complexity":0.61,"dissonance":0.146},{"voice":1,"pitch":72,"start":97.25,"duration":0.25,"velocity":127,"measure":49,"beat":3.5,"subject_pos":-1,"motif":"","motif_pos":-1,"best_pos":6,"similarity":0.579,"stretto":false,"stretto_voices":0,"combination":[],"aug_dim":"","rhythm_ratio":1.0,"mirror":false,"chromatic_density":0.214,"complexity":0.61,"dissonance":0.146},{"voice":0,"pitch":77,"start":97.5,"duration":0.75,"velocity":127,"measure":49,"beat":4.0,"subject_pos":-1,"motif":"","motif_pos":-1,"best_pos":6,"similarity":0.464,"stretto":false,"stretto_voices":0,"combination":[],"aug_dim":"","rhythm_ratio":1.0,"mirror":false,"chromatic_density":0.214,"complexity":0.61,"dissonance":0.146},{"voice":1,"pitch":74,"start":97.5,"duration":0.75,"velocity":127,"measure":49,"beat":4.0,"subject_pos":-1,"motif":"","motif_pos":-1,"best_pos":1,"similarity":0.457,"stretto":false,"stretto_voices":0,"combination":[],"aug_dim":"","rhythm_ratio":1.0,"mirror":false,"chromatic_density":0.214,"complexity":0.61,"dissonance":0.146},{"voice":2,"pitch":63,"start":97.75,"duration":0.25,"velocity":127,"measure":49,"beat":4.5,"subject_pos":-1,"motif":"head_inv","motif_pos":4,"best_pos":4,"similarity":1.0,"stretto":false,"stretto_voices":0,"combination":[],"aug_dim":"","rhythm_ratio":1.0,"mirror":false,"chromatic_density":0.214,"complexity":0.61,"dissonance":0.146},{"voice":3,"pitch":51,"start":97.75,"duration":0.25,"velocity":127,"measure":49,"beat":4.5,"subject_pos":-1,"motif":"","motif_pos":-1,"best_pos":3,"similarity":0.664,"stretto":false,"stretto_voices":0,"combination":[],"aug_dim":"","rhythm_ratio":1.0,"mirror":false,"chromatic_density":0.214,"complexity":0.61,"dissonance":0.146},{"voice":2,"pitch":65,"start":98.0,"duration":1.0,"velocity":127,"measure":50,"beat":1.0,"subject_pos":-1,"motif":"","motif_pos":-1,"best_pos":6,"similarity":0.579,"stretto":false,"stretto_voices":0,"combination":[],"aug_dim":"","rhythm_ratio":1.0,"mirror":false,"chromatic_density":0.308,"complexity":0.499,"dissonance":0.116},{"voice":3,"pitch":50,"start":98.0,"duration":1.25,"velocity":127,"measure":50,"beat":1.0,"subject_pos":-1,"motif":"","motif_pos":-1,"best_pos":4,"similarity":0.671,"stretto":false,"stretto_voices":0,"combination":[],"aug_dim":"","rhythm_ratio":1.0,"mirror":false,"chromatic_density":0.308,"complexity":0.499,"dissonance":0.116},{"voice":0,"pitch":75,"start":98.25,"duration":0.25,"velocity":127,"measure":50,"beat":1.5,"subject_pos":-1,"motif":"","motif_pos":-1,"best_pos":3,"similarity":0.471,"stretto":false,"stretto_voices":0,"combination":[],"aug_dim":"","rhythm_ratio":1.0,"mirror":false,"chromatic_density":0.308,"complexity":0.499,"dissonance":0.116},{"voice":1,"pitch":72,"start":98.25,"duration":0.25,"velocity":127,"measure":50,"beat":1.5,"subject_pos":-1,"motif":"","motif_pos":-1,"best_pos":2,"similarity":0.593,"stretto":false,"stretto_voices":0,"combination":[],"aug_dim":"","rhythm_ratio":1.0,"mirror":false,"chromatic_density":0.308,"complexity":0.499,"dissonance":0.116},{"voice":0,"pitch":74,"start":98.5,"duration":0.25,"velocity":127,"measure":50,"beat":2.0,"subject_pos":-1,"motif":"","motif_pos":-1,"best_pos":3,"similarity":0.45,"stretto":false,"stretto_voices":0,"combination":[],"aug_dim":"","rhythm_ratio":1.0,"mirror":false,"chromatic_density":0.308,"complexity":0.499,"dissonance":0.116},{"voice":1,"pitch":70,"start":98.5,"duration":0.25,"velocity":127,"measure":50,"beat":2.0,"subject_pos":-1,"motif":"","motif_pos":-1,"best_pos":3,"similarity":0.664,"stretto":false,"stretto_voices":0,"combination":[],"aug_dim":"","rhythm_ratio":1.0,"mirror":false,"chromatic_density":0.308,"complexity":0.499,"dissonance":0.116},{"voice":0,"pitch":72,"start":98.75,"duration":0.25,"velocity":127,"measure":50,"beat":2.5,"subject_pos":-1,"motif":"","motif_pos":-1,"best_pos":3,"similarity":0.5,"stretto":false,"stretto_voices":0,"combination":[],"aug_dim":"","rhythm_ratio":1.0,"mirror":false,"chromatic_density":0.308,"complexity":0.499,"dissonance":0.116},{"voice":1,"pitch":69,"start":98.75,"duration":0.25,"velocity":127,"measure":50,"beat":2.5,"subject_pos":-1,"motif":"","motif_pos":-1,"best_pos":4,"similarity":0.671,"stretto":false,"stretto_voices":0,"combination":[],"aug_dim":"","rhythm_ratio":1.0,"mirror":false,"chromatic_density":0.308,"complexity":0.499,"dissonance":0.116},{"voice":0,"pitch":70,"start":99.0,"duration":0.75,"velocity":127,"measure":50,"beat":3.0,"subject_pos":-1,"motif":"","motif_pos":-1,"best_pos":4,"similarity":0.543,"stretto":false,"stretto_voices":0,"combination":[],"aug_dim":"","rhythm_ratio":1.0,"mirror":false,"chromatic_density":0.308,"complexity":0.499,"dissonance":0.116},{"voice":1,"pitch":67,"start":99.0,"duration":0.25,"velocity":127,"measure":50,"beat":3.0,"subject_pos":-1,"motif":"","motif_pos":-1,"best_pos":5,"similarity":0.636,"stretto":false,"stretto_voices":0,"combination":[],"aug_dim":"","rhythm_ratio":1.0,"mirror":false,"chromatic_density":0.308,"complexity":0.499,"dissonance":0.116},{"voice":2,"pitch":67,"start":99.0,"duration":1.0,"velocity":127,"measure":50,"beat":3.0,"subject_pos":-1,"motif":"","motif_pos":-1,"best_pos":1,"similarity":0.457,"stretto":false,"stretto_voices":0,"combination":[],"aug_dim":"","rhythm_ratio":1.0,"mirror":false,"chromatic_density":0.308,"complexity":0.499,"dissonance":0.116},{"voice":1,"pitch":69,"start":99.25,"duration":0.25,"velocity":127,"measure":50,"beat":3.5,"subject_pos":-1,"motif":"","motif_pos":-1,"best_pos":6,"similarity":0.657,"stretto":false,"stretto_voices":0,"combination":[],"aug_dim":"","rhythm_ratio":1.0,"mirror":false,"chromatic_density":0.308,"complexity":0.499,"dissonance":0.116},{"voice":3,"pitch":48,"start":99.25,"duration":0.25,"velocity":127,"measure":50,"beat":3.5,"subject_pos":-1,"motif":"","motif_pos":-1,"best_pos":5,"similarity":0.636,"stretto":false,"stretto_voices":0,"combination":[],"aug_dim":"","rhythm_ratio":1.0,"mirror":false,"chromatic_density":0.308,"complexity":0.499,"dissonance":0.116},{"voice":1,"pitch":70,"start":99.5,"duration":0.75,"velocity":127,"measure":50,"beat":4.0,"subject_pos":-1,"motif":"","motif_pos":-1,"best_pos":7,"similarity":0.436,"stretto":false,"stretto_voices":0,"combination":[],"aug_dim":"","rhythm_ratio":1.0,"mirror":false,"chromatic_density":0.308,"complexity":0.499,"dissonance":0.116},{"voice":3,"pitch":50,"start":99.5,"duration":0.25,"velocity":127,"measure":50,"beat":4.0,"subject_pos":-1,"motif":"","motif_pos":-1,"best_pos":6,"similarity":0.657,"stretto":false,"stretto_voices":0,"combination":[],"aug_dim":"","rhythm_ratio":1.0,"mirror":false,"chromatic_density":0.308,"complexity":0.499,"dissonance":0.116},{"voice":0,"pitch":72,"start":99.75,"duration":0.25,"velocity":127,"measure":50,"beat":4.5,"subject_pos":-1,"motif":"","motif_pos":-1,"best_pos":5,"similarity":0.55,"stretto":false,"stretto_voices":0,"combination":[],"aug_dim":"","rhythm_ratio":1.0,"mirror":false,"chromatic_density":0.308,"complexity":0.499,"dissonance":0.116},{"voice":3,"pitch":51,"start":99.75,"duration":0.25,"velocity":127,"measure":50,"beat":4.5,"subject_pos":-1,"motif":"","motif_pos":-1,"best_pos":5,"similarity":0.621,"stretto":false,"stretto_voices":0,"combination":[],"aug_dim":"","rhythm_ratio":1.0,"mirror":false,"chromatic_density":0.308,"complexity":0.499,"dissonance":0.116},{"voice":0,"pitch":74,"start":100.0,"duration":0.5,"velocity":127,"measure":51,"beat":1.0,"subject_pos":-1,"motif":"","motif_pos":-1,"best_pos":6,"similarity":0.421,"stretto":false,"stretto_voices":0,"combination":[],"aug_dim":"","rhythm_ratio":1.0,"mirror":false,"chromatic_density":0.125,"complexity":0.536,"dissonance":0.073},{"voice":2,"pitch":65,"start":100.0,"duration":0.75,"velocity":127,"measure":51,"beat":1.0,"subject_pos":-1,"motif":"","motif_pos":-1,"best_pos":2,"similarity":0.593,"stretto":false,"stretto_voices":0,"combination":[],"aug_dim":"","rhythm_ratio":1.0,"mirror":false,"chromatic_density":0.125,"complexity":0.536,"dissonance":0.073},{"voice":3,"pitch":53,"start":100.0,"duration":4.5,"velocity":127,"measure":51,"beat":1.0,"subject_pos":-1,"motif":"","motif_pos":-1,"best_pos":6,"similarity":0.436,"stretto":false,"stretto_voices":0,"combination":[],"aug_dim":"","rhythm_ratio":1.0,"mirror":false,"chromatic_density":0.125,"complexity":0.536,"dissonance":0.073},{"voice":1,"pitch":67,"start":100.25,"duration":0.25,"velocity":127,"measure":51,"beat":1.5,"subject_pos":-1,"motif":"","motif_pos":-1,"best_pos":3,"similarity":0.407,"stretto":false,"stretto_voices":0,"combination":[],"aug_dim":"","rhythm_ratio":1.0,"mirror":false,"chromatic_density":0.125,"complexity":0.536,"dissonance":0.073},{"voice":0,"pitch":72,"start":100.5,"duration":0.5,"velocity":127,"measure":51,"beat":2.0,"subject_pos":-1,"motif":"","motif_pos":-1,"best_pos":2,"similarity":0.514,"stretto":false,"stretto_voices":0,"combination":[],"aug_dim":"","rhythm_ratio":1.0,"mirror":false,"chromatic_density":0.125,"complexity":0.536,"dissonance":0.073},{"voice":1,"pitch":69,"start":100.5,"duration":0.75,"velocity":127,"measure":51,"beat":2.0,"subject_pos":-1,"motif":"","motif_pos":-1,"best_pos":4,"similarity":0.357,"stretto":false,"stretto_voices":0,"combination":[],"aug_dim":"","rhythm_ratio":1.0,"mirror":false,"chromatic_density":0.125,"complexity":0.536,"dissonance":0.073},{"voice":2,"pitch":63,"start":100.75,"duration":0.25,"velocity":127,"measure":51,"beat":2.5,"subject_pos":-1,"motif":"","motif_pos":-1,"best_pos":3,"similarity":0.664,"stretto":false,"stretto_voices":0,"combination":[],"aug_dim":"","rhythm_ratio":1.0,"mirror":false,"chromatic_density":0.125,"complexity":0.536,"dissonance":0.073},{"voice":0,"pitch":77,"start":101.0,"duration":1.25,"velocity":127,"measure":51,"beat":3.0,"subject_pos":-1,"motif":"","motif_pos":-1,"best_pos":3,"similarity":0.65,"stretto":false,"stretto_voices":0,"combination":[],"aug_dim":"","rhythm_ratio":1.0,"mirror":false,"chromatic_density":0.125,"complexity":0.536,"dissonance":0.073},{"voice":2,"pitch":62,"start":101.0,"duration":1.25,"velocity":127,"measure":51,"beat":3.0,"subject_pos":-1,"motif":"","motif_pos":-1,"best_pos":4,"similarity":0.636,"stretto":false,"stretto_voices":0,"combination":[],"aug_dim":"","rhythm_ratio":1.0,"mirror":false,"chromatic_density":0.125,"complexity":0.536,"dissonance":0.073},{"voice":1,"pitch":65,"start":101.25,"duration":0.25,"velocity":127,"measure":51,"beat":3.5,"subject_pos":-1,"motif":"","motif_pos":-1,"best_pos":5,"similarity":0.443,"stretto":false,"stretto_voices":0,"combination":[],"aug_dim":"","rhythm_ratio":1.0,"mirror":false,"chromatic_density":0.125,"complexity":0.536,"dissonance":0.073},{"voice":1,"pitch":67,"start":101.5,"duration":0.25,"velocity":127,"measure":51,"beat":4.0,"subject_pos":-1,"motif":"","motif_pos":-1,"best_pos":5,"similarity":0.586,"stretto":false,"stretto_voices":0,"combination":[],"aug_dim":"","rhythm_ratio":1.0,"mirror":false,"chromatic_density":0.125,"complexity":0.536,"dissonance":0.073},{"voice":1,"pitch":69,"start":101.75,"duration":0.25,"velocity":127,"measure":51,"beat":4.5,"subject_pos":-1,"motif":"","motif_pos":-1,"best_pos":6,"similarity":0.65,"stretto":false,"stretto_voices":0,"combination":[],"aug_dim":"","rhythm_ratio":1.0,"mirror":false,"chromatic_density":0.125,"complexity":0.536,"dissonance":0.073},{"voice":1,"pitch":70,"start":102.0,"duration":1.25,"velocity":127,"measure":52,"beat":1.0,"subject_pos":-1,"motif":"","motif_pos":-1,"best_pos":7,"similarity":0.464,"stretto":false,"stretto_voices":0,"combination":[],"aug_dim":"","rhythm_ratio":1.0,"mirror":false,"chromatic_density":0.375,"complexity":0.423,"dissonance":0.171},{"voice":0,"pitch":76,"start":102.25,"duration":0.25,"velocity":127,"measure":52,"beat":1.5,"subject_pos":-1,"motif":"","motif_pos":-1,"best_pos":4,"similarity":0.786,"stretto":false,"stretto_voices":0,"combination":[],"aug_dim":"","rhythm_ratio":1.0,"mirror":false,"chromatic_density":0.375,"complexity":0.423,"dissonance":0.171},{"voice":2,"pitch":60,"start":102.25,"duration":0.25,"velocity":127,"measure":52,"beat":1.5,"subject_pos":-1,"motif":"","motif_pos":-1,"best_pos":4,"similarity":0.607,"stretto":false,"stretto_voices":0,"combination":[],"aug_dim":"","rhythm_ratio":1.0,"mirror":false,"chromatic_density":0.375,"complexity":0.423,"dissonance":0.171},{"voice":0,"pitch":77,"start":102.5,"duration":0.25,"velocity":127,"measure":52,"beat":2.0,"subject_pos":-1,"motif":"","motif_pos":-1,"best_pos":5,"similarity":0.714,"stretto":false,"stretto_voices":0,"combination":[],"aug_dim":"","rhythm_ratio":1.0,"mirror":false,"chromatic_density":0.375,"complexity":0.423,"dissonance":0.171},{"voice":2,"pitch":62,"start":102.5,"duration":0.25,"velocity":127,"measure":52,"beat":2.0,"subject_pos":-1,"motif":"","motif_pos":-1,"best_pos":5,"similarity":0.661,"stretto":false,"stretto_voices":0,"combination":[],"aug_dim":"","rhythm_ratio":1.0,"mirror":false,"chromatic_density":0.375,"complexity":0.423,"dissonance":0.171},{"voice":0,"pitch":79,"start":102.75,"duration":0.25,"velocity":127,"measure":52,"beat":2.5,"subject_pos":-1,"motif":"","motif_pos":-1,"best_pos":6,"similarity":0.5,"stretto":false,"stretto_voices":0,"combination":[],"aug_dim":"","rhythm_ratio":1.0,"mirror":false,"chromatic_density":0.375,"complexity":0.423,"dissonance":0.171},{"voice":2,"pitch":64,"start":102.75,"duration":0.25,"velocity":127,"measure":52,"beat":2.5,"subject_pos":-1,"motif":"","motif_pos":-1,"best_pos":6,"similarity":0.679,"stretto":false,"stretto_voices":0,"combination":[],"aug_dim":"","rhythm_ratio":1.0,"mirror":false,"chromatic_density":0.375,"complexity":0.423,"dissonance":0.171},{"voice":0,"pitch":72,"start":103.0,"duration":1.5,"velocity":127,"measure":52,"beat":3.0,"subject_pos":-1,"motif":"","motif_pos":-1,"best_pos":0,"similarity":0.357,"stretto":false,"stretto_voices":0,"combination":[],"aug_dim":"","rhythm_ratio":1.0,"mirror":false,"chromatic_density":0.375,"complexity":0.423,"dissonance":0.171},{"voice":2,"pitch":65,"start":103.0,"duration":1.5,"velocity":127,"measure":52,"beat":3.0,"subject_pos":-1,"motif":"","motif_pos":-1,"best_pos":7,"similarity":0.464,"stretto":false,"stretto_voices":0,"combination":[],"aug_dim":"","rhythm_ratio":1.0,"mirror":false,"chromatic_density":0.375,"complexity":0.423,"dissonance":0.171},{"voice":1,"pitch":70,"start":103.25,"duration":0.25,"velocity":127,"measure":52,"beat":3.5,"subject_pos":-1,"motif":"","motif_pos":-1,"best_pos":3,"similarity":0.421,"stretto":false,"stretto_voices":0,"combination":[],"aug_dim":"","rhythm_ratio":1.0,"mirror":false,"chromatic_density":0.375,"complexity":0.423,"dissonance":0.171},{"voice":1,"pitch":69,"start":103.5,"duration":0.25,"velocity":127,"measure":52,"beat":4.0,"subject_pos":-1,"motif":"","motif_pos":-1,"best_pos":4,"similarity":0.496,"stretto":false,"stretto_voices":0,"combination":[],"aug_dim":"","rhythm_ratio":1.0,"mirror":false,"chromatic_density":0.375,"complexity":0.423,"dissonance":0.171},{"voice":1,"pitch":67,"start":103.75,"duration":0.25,"velocity":127,"measure":52,"beat":4.5,"subject_pos":-1,"motif":"","motif_pos":-1,"best_pos":5,"similarity":0.5,"stretto":false,"stretto_voices":0,"combination":[],"aug_dim":"","rhythm_ratio":1.0,"mirror":false,"chromatic_density":0.375,"complexity":0.423,"dissonance":0.171},{"voice":1,"pitch":69,"start":104.0,"duration":0.5,"velocity":127,"measure":53,"beat":1.0,"subject_pos":-1,"motif":"","motif_pos":-1,"best_pos":6,"similarity":0.443,"stretto":false,"stretto_voices":0,"combination":[],"aug_dim":"","rhythm_ratio":1.0,"mirror":false,"chromatic_density":0.0,"complexity":0.585,"dissonance":0.143},{"voice":0,"pitch":77,"start":104.5,"duration":0.5,"velocity":127,"measure":53,"beat":2.0,"subject_pos":-1,"motif":"head_inv","motif_pos":0,"best_pos":0,"similarity":1.0,"stretto":false,"stretto_voices":0,"combination":[],"aug_dim":"","rhythm_ratio":1.0,"mirror":false,"chromatic_density":0.0,"complexity":0.585,"dissonance":0.143},{"voice":0,"pitch":72,"start":105.0,"duration":0.75,"velocity":127,"measure":53,"beat":3.0,"subject_pos":-1,"motif":"head_inv","motif_pos":1,"best_pos":1,"similarity":1.0,"stretto":false,"stretto_voices":0,"combination":[],"aug_dim":"","rhythm_ratio":1.0,"mirror":false,"chromatic_density":0.0,"complexity":0.585,"dissonance":0.143},{"voice":2,"pitch":65,"start":105.0,"duration":0.5,"velocity":127,"measure":53,"beat":3.0,"subject_pos":-1,"motif":"head_inv","motif_pos":0,"best_pos":0,"similarity":1.0,"stretto":false,"stretto_voices":0,"combination":[],"aug_dim":"","rhythm_ratio":1.0,"mirror":false,"chromatic_density":0.0,"complexity":0.585,"dissonance":0.143},{"voice":1,"pitch":72,"start":105.5,"duration":0.5,"velocity":127,"measure":53,"beat":4.0,"subject_pos":-1,"motif":"head_inv","motif_pos":0,"best_pos":0,"similarity":1.0,"stretto":false,"stretto_voices":0,"combination":[],"aug_dim":"","rhythm_ratio":1.0,"mirror":false,"chromatic_density":0.0,"complexity":0.585,"dissonance":0.143},{"voice":2,"pitch":60,"start":105.5,"duration":0.75,"velocity":127,"measure":53,"beat":4.0,"subject_pos":-1,"motif":"head_inv","motif_pos":1,"best_pos":1,"similarity":1.0,"stretto":false,"stretto_voices":0,"combination":[],"aug_dim":"","rhythm_ratio":1.0,"mirror":false,"chromatic_density":0.0,"complexity":0.585,"dissonance":0.143},{"voice":0,"pitch":74,"start":105.75,"duration":0.25,"velocity":127,"measure":53,"beat":4.5,"subject_pos":-1,"motif":"head_inv","motif_pos":2,"best_pos":2,"similarity":1.0,"stretto":false,"stretto_voices":0,"combination":[],"aug_dim":"","rhythm_ratio":1.0,"mirror":false,"chromatic_density":0.0,"complexity":0.585,"dissonance":0.143},{"voice":0,"pitch":75,"start":106.0,"duration":0.75,"velocity":127,"measure":54,"beat":1.0,"subject_pos":-1,"motif":"head_inv","motif_pos":3,"best_pos":3,"similarity":1.0,"stretto":false,"stretto_voices":0,"combination":[],"aug_dim":"","rhythm_ratio":1.0,"mirror":false,"chromatic_density":0.25,"complexity":0.739,"dissonance":0.151},{"voice":1,"pitch":67,"start":106.0,"duration":0.75,"velocity":127,"measure":54,"beat":1.0,"subject_pos":-1,"motif":"head_inv","motif_pos":1,"best_pos":1,"similarity":1.0,"stretto":false,"stretto_voices":0,"combination":[],"aug_dim":"","rhythm_ratio":1.0,"mirror":false,"chromatic_density":0.25,"complexity":0.739,"dissonance":0.151},{"voice":3,"pitch":60,"start":106.0,"duration":0.5,"velocity":127,"measure":54,"beat":1.0,"subject_pos":-1,"motif":"head_inv","motif_pos":0,"best_pos":0,"similarity":1.0,"stretto":false,"stretto_voices":0,"combination":[],"aug_dim":"","rhythm_ratio":1.0,"mirror":false,"chromatic_density":0.25,"complexity":0.739,"dissonance":0.151},{"voice":2,"pitch":62,"start":106.25,"duration":0.25,"velocity":127,"measure":54,"beat":1.5,"subject_pos":-1,"motif":"head_inv","motif_pos":2,"best_pos":2,"similarity":1.0,"stretto":false,"stretto_voices":0,"combination":[],"aug_dim":"","rhythm_ratio":1.0,"mirror":false,"chromatic_density":0.25,"complexity":0.739,"dissonance":0.151},{"voice":2,"pitch":63,"start":106.5,"duration":0.75,"velocity":127,"measure":54,"beat":2.0,"subject_pos":-1,"motif":"head_inv","motif_pos":3,"best_pos":3,"similarity":1.0,"stretto":false,"stretto_voices":0,"combination":[],"aug_dim":"","rhythm_ratio":1.0,"mirror":false,"chromatic_density":0.25,"complexity":0.739,"dissonance":0.151},{"voice":3,"pitch":55,"start":106.5,"duration":0.75,"velocity":127,"measure":54,"beat":2.0,"subject_pos":-1,"motif":"head_inv","motif_pos":1,"best_pos":1,"similarity":1.0,"stretto":false,"stretto_voices":0,"combination":[],"aug_dim":"","rhythm_ratio":1.0,"mirror":false,"chromatic_density":0.25,"complexity":0.739,"dissonance":0.151},{"voice":0,"pitch":77,"start":106.75,"duration":0.25,"velocity":127,"measure":54,"beat":2.5,"subject_pos":-1,"motif":"head_inv","motif_pos":4,"best_pos":4,"similarity":1.0,"stretto":false,"stretto_voices":0,"combination":[],"aug_dim":"","rhythm_ratio":1.0,"mirror":false,"chromatic_density":0.25,"complexity":0.739,"dissonance":0.151},{"voice":1,"pitch":69,"start":106.75,"duration":0.25,"velocity":127,"measure":54,"beat":2.5,"subject_pos":-1,"motif":"head_inv","motif_pos":2,"best_pos":2,"similarity":1.0,"stretto":false,"stretto_voices":0,"combination":[],"aug_dim":"","rhythm_ratio":1.0,"mirror":false,"chromatic_density":0.25,"complexity":0.739,"dissonance":0.151},{"voice":0,"pitch":79,"start":107.0,"duration":0.5,"velocity":127,"measure":54,"beat":3.0,"subject_pos":-1,"motif":"head_inv","motif_pos":0,"best_pos":0,"similarity":1.0,"stretto":false,"stretto_voices":0,"combination":[],"aug_dim":"","rhythm_ratio":1.0,"mirror":false,"chromatic_density":0.25,"complexity":0.739,"dissonance":0.151},{"voice":1,"pitch":70,"start":107.0,"duration":0.75,"velocity":127,"measure":54,"beat":3.0,"subject_pos":-1,"motif":"head_inv","motif_pos":3,"best_pos":3,"similarity":1.0,"stretto":false,"stretto_voices":0,"combination":[],"aug_dim":"","rhythm_ratio":1.0,"mirror":false,"chromatic_density":0.25,"complexity":0.739,"dissonance":0.151},{"voice":2,"pitch":65,"start":107.25,"duration":0.25,"velocity":127,"measure":54,"beat":3.5,"subject_pos":-1,"motif":"head_inv","motif_pos":4,"best_pos":4,"similarity":1.0,"stretto":false,"stretto_voices":0,"combination":[],"aug_dim":"","rhythm_ratio":1.0,"mirror":false,"chromatic_density":0.25,"complexity":0.739,"dissonance":0.151},{"voice":3,"pitch":57,"start":107.25,"duration":0.25,"velocity":127,"measure":54,"beat":3.5,"subject_pos":-1,"motif":"head_inv","motif_pos":2,"best_pos":2,"similarity":1.0,"stretto":false,"stretto_voices":0,"combination":[],"aug_dim":"","rhythm_ratio":1.0,"mirror":false,"chromatic_density":0.25,"complexity":0.739,"dissonance":0.151},{"voice":0,"pitch":74,"start":107.5,"duration":0.75,"velocity":127,"measure":54,"beat":4.0,"subject_pos":-1,"motif":"head_inv","motif_pos":1,"best_pos":1,"similarity":1.0,"stretto":false,"stretto_voices":0,"combination":[],"aug_dim":"","rhythm_ratio":1.0,"mirror":false,"chromatic_density":0.25,"complexity":0.739,"dissonance":0.151},{"voice":2,"pitch":67,"start":107.5,"duration":0.5,"velocity":127,"measure":54,"beat":4.0,"subject_pos":-1,"motif":"head_inv","motif_pos":0,"best_pos":0,"similarity":1.0,"stretto":false,"stretto_voices":0,"combination":[],"aug_dim":"","rhythm_ratio":1.0,"mirror":false,"chromatic_density":0.25,"complexity":0.739,"dissonance":0.151},{"voice":3,"pitch":58,"start":107.5,"duration":0.75,"velocity":127,"measure":54,"beat":4.0,"subject_pos":-1,"motif":"head_inv","motif_pos":3,"best_pos":3,"similarity":1.0,"stretto":false,"stretto_voices":0,"combination":[],"aug_dim":"","rhythm_ratio":1.0,"mirror":false,"chromatic_density":0.25,"complexity":0.739,"dissonance":0.151},{"voice":1,"pitch":72,"start":107.75,"duration":0.25,"velocity":127,"measure":54,"beat":4.5,"subject_pos":-1,"motif":"head_inv","motif_pos":4,"best_pos":4,"similarity":1.0,"stretto":false,"stretto_voices":0,"combination":[],"aug_dim":"","rhythm_ratio":1.0,"mirror":false,"chromatic_density":0.25,"complexity":0.739,"dissonance":0.151},{"voice":1,"pitch":74,"start":108.0,"duration":0.5,"velocity":127,"measure":55,"beat":1.0,"subject_pos":-1,"motif":"","motif_pos":-1,"best_pos":6,"similarity":0.375,"stretto":false,"stretto_voices":0,"combination":[],"aug_dim":"","rhythm_ratio":1.0,"mirror":false,"chromatic_density":0.333,"complexity":0.639,"dissonance":0.174},{"voice":2,"pitch":62,"start":108.0,"duration":0.75,"velocity":127,"measure":55,"beat":1.0,"subject_pos":-1,"motif":"head_inv","motif_pos":1,"best_pos":1,"similarity":1.0,"stretto":false,"stretto_voices":0,"combination":[],"aug_dim":"","rhythm_ratio":1.0,"mirror":false,"chromatic_density":0.333,"complexity":0.639,"dissonance":0.174},{"voice":0,"pitch":76,"start":108.25,"duration":0.25,"velocity":127,"measure":55,"beat":1.5,"subject_pos":-1,"motif":"head_inv","motif_pos":2,"best_pos":2,"similarity":1.0,"stretto":false,"stretto_voices":0,"combination":[],"aug_dim":"","rhythm_ratio":1.0,"mirror":false,"chromatic_density":0.333,"complexity":0.639,"dissonance":0.174},{"voice":3,"pitch":60,"start":108.25,"duration":0.25,"velocity":127,"measure":55,"beat":1.5,"subject_pos":-1,"motif":"head_inv","motif_pos":4,"best_pos":4,"similarity":1.0,"stretto":false,"stretto_voices":0,"combination":[],"aug_dim":"","rhythm_ratio":1.0,"mirror":false,"chromatic_density":0.333,"complexity":0.639,"dissonance":0.174},{"voice":0,"pitch":77,"start":108.5,"duration":0.75,"velocity":127,"measure":55,"beat":2.0,"subject_pos":-1,"motif":"head_inv","motif_pos":3,"best_pos":3,"similarity":1.0,"stretto":false,"stretto_voices":0,"combination":[],"aug_dim":"","rhythm_ratio":1.0,"mirror":false,"chromatic_density":0.333,"complexity":0.639,"dissonance":0.174},{"voice":1,"pitch":69,"start":108.5,"duration":0.75,"velocity":127,"measure":55,"beat":2.0,"subject_pos":-1,"motif":"","motif_pos":-1,"best_pos":4,"similarity":0.471,"stretto":false,"stretto_voices":0,"combination":[],"aug_dim":"","rhythm_ratio":1.0,"mirror":false,"chromatic_density":0.333,"complexity":0.639,"dissonance":0.174},{"voice":3,"pitch":62,"start":108.5,"duration":0.5,"velocity":127,"measure":55,"beat":2.0,"subject_pos":-1,"motif":"","motif_pos":-1,"best_pos":6,"similarity":0.375,"stretto":false,"stretto_voices":0,"combination":[],"aug_dim":"","rhythm_ratio":1.0,"mirror":false,"chromatic_density":0.333,"complexity":0.639,"dissonance":0.174},{"voice":2,"pitch":64,"start":108.75,"duration":0.25,"velocity":127,"measure":55,"beat":2.5,"subject_pos":-1,"motif":"head_inv","motif_pos":2,"best_pos":2,"similarity":1.0,"stretto":false,"stretto_voices":0,"combination":[],"aug_dim":"","rhythm_ratio":1.0,"mirror":false,"chromatic_density":0.333,"complexity":0.639,"dissonance":0.174},{"voice":2,"pitch":65,"start":109.0,"duration":0.75,"velocity":127,"measure":55,"beat":3.0,"subject_pos":-1,"motif":"head_inv","motif_pos":3,"best_pos":3,"similarity":1.0,"stretto":false,"stretto_voices":0,"combination":[],"aug_dim":"","rhythm_ratio":1.0,"mirror":false,"chromatic_density":0.333,"complexity":0.639,"dissonance":0.174},{"voice":3,"pitch":57,"start":109.0,"duration":0.75,"velocity":127,"measure":55,"beat":3.0,"subject_pos":-1,"motif":"","motif_pos":-1,"best_pos":4,"similarity":0.464,"stretto":false,"stretto_voices":0,"combination":[],"aug_dim":"","rhythm_ratio":1.0,"mirror":false,"chromatic_density":0.333,"complexity":0.639,"dissonance":0.174},{"voice":0,"pitch":79,"start":109.25,"duration":0.25,"velocity":127,"measure":55,"beat":3.5,"subject_pos":-1,"motif":"head_inv","motif_pos":4,"best_pos":4,"similarity":1.0,"stretto":false,"stretto_voices":0,"combination":[],"aug_dim":"","rhythm_ratio":1.0,"mirror":false,"chromatic_density":0.333,"complexity":0.639,"dissonance":0.174},{"voice":1,"pitch":70,"start":109.25,"duration":0.25,"velocity":127,"measure":55,"beat":3.5,"subject_pos":-1,"motif":"","motif_pos":-1,"best_pos":5,"similarity":0.6,"stretto":false,"stretto_voices":0,"combination":[],"aug_dim":"","rhythm_ratio":1.0,"mirror":false,"chromatic_density":0.333,"complexity":0.639,"dissonance":0.174},{"voice":0,"pitch":81,"start":109.5,"duration":0.5,"velocity":127,"measure":55,"beat":4.0,"subject_pos":-1,"motif":"","motif_pos":-1,"best_pos":6,"similarity":0.375,"stretto":false,"stretto_voices":0,"combination":[],"aug_dim":"","rhythm_ratio":1.0,"mirror":false,"chromatic_density":0.333,"complexity":0.639,"dissonance":0.174},{"voice":1,"pitch":72,"start":109.5,"duration":1.0,"velocity":127,"measure":55,"beat":4.0,"subject_pos":-1,"motif":"","motif_pos":-1,"best_pos":6,"similarity":0.464,"stretto":false,"stretto_voices":0,"combination":[],"aug_dim":"","rhythm_ratio":1.0,"mirror":false,"chromatic_density":0.333,"complexity":0.639,"dissonance":0.174},{"voice":2,"pitch":67,"start":109.75,"duration":0.25,"velocity":127,"measure":55,"beat":4.5,"subject_pos":-1,"motif":"head_inv","motif_pos":4,"best_pos":4,"similarity":1.0,"stretto":false,"stretto_voices":0,"combination":[],"aug_dim":"","rhythm_ratio":1.0,"mirror":false,"chromatic_density":0.333,"complexity":0.639,"dissonance":0.174},{"voice":3,"pitch":58,"start":109.75,"duration":0.25,"velocity":127,"measure":55,"beat":4.5,"subject_pos":-1,"motif":"","motif_pos":-1,"best_pos":5,"similarity":0.586,"stretto":false,"stretto_voices":0,"combination":[],"aug_dim":"","rhythm_ratio":1.0,"mirror":false,"chromatic_density":0.333,"complexity":0.639,"dissonance":0.174},{"voice":0,"pitch":76,"start":110.0,"duration":0.25,"velocity":127,"measure":56,"beat":1.0,"subject_pos":-1,"motif":"","motif_pos":-1,"best_pos":4,"similarity":0.464,"stretto":false,"stretto_voices":0,"combination":[],"aug_dim":"","rhythm_ratio":1.0,"mirror":false,"chromatic_density":0.333,"complexity":0.586,"dissonance":0.129},{"voice":2,"pitch":69,"start":110.0,"duration":0.5,"velocity":127,"measure":56,"beat":1.0,"subject_pos":-1,"motif":"","motif_pos":-1,"best_pos":6,"similarity":0.375,"stretto":false,"stretto_voices":0,"combination":[],"aug_dim":"","rhythm_ratio":1.0,"mirror":false,"chromatic_density":0.333,"complexity":0.586,"dissonance":0.129},{"voice":3,"pitch":60,"start":110.0,"duration":0.5,"velocity":127,"measure":56,"beat":1.0,"subject_pos":-1,"motif":"","motif_pos":-1,"best_pos":6,"similarity":0.436,"stretto":false,"stretto_voices":0,"combination":[],"aug_dim":"","rhythm_ratio":1.0,"mirror":false,"chromatic_density":0.333,"complexity":0.586,"dissonance":0.129},{"voice":0,"pitch":77,"start":110.25,"duration":0.25,"velocity":127,"measure":56,"beat":1.5,"subject_pos":-1,"motif":"","motif_pos":-1,"best_pos":5,"similarity":0.586,"stretto":false,"stretto_voices":0,"combination":[],"aug_dim":"","rhythm_ratio":1.0,"mirror":false,"chromatic_density":0.333,"complexity":0.586,"dissonance":0.129},{"voice":0,"pitch":79,"start":110.5,"duration":0.5,"velocity":127,"measure":56,"beat":2.0,"subject_pos":-1,"motif":"","motif_pos":-1,"best_pos":6,"similarity":0.436,"stretto":false,"stretto_voices":0,"combination":[],"aug_dim":"","rhythm_ratio":1.0,"mirror":false,"chromatic_density":0.333,"complexity":0.586,"dissonance":0.129},{"voice":1,"pitch":70,"start":110.5,"duration":1.0,"velocity":127,"measure":56,"beat":2.0,"subject_pos":-1,"motif":"","motif_pos":-1,"best_pos":3,"similarity":0.529,"stretto":false,"stretto_voices":0,"combination":[],"aug_dim":"","rhythm_ratio":1.0,"mirror":false,"chromatic_density":0.333,"complexity":0.586,"dissonance":0.129},{"voice":2,"pitch":64,"start":110.5,"duration":0.25,"velocity":127,"measure":56,"beat":2.0,"subject_pos":-1,"motif":"","motif_pos":-1,"best_pos":4,"similarity":0.464,"stretto":false,"stretto_voices":0,"combination":[],"aug_dim":"","rhythm_ratio":1.0,"mirror":false,"chromatic_density":0.333,"complexity":0.586,"dissonance":0.129},{"voice":3,"pitch":55,"start":110.5,"duration":0.25,"velocity":127,"measure":56,"beat":2.0,"subject_pos":-1,"motif":"","motif_pos":-1,"best_pos":5,"similarity":0.45,"stretto":false,"stretto_voices":0,"combination":[],"aug_dim":"","rhythm_ratio":1.0,"mirror":false,"chromatic_density":0.333,"complexity":0.586,"dissonance":0.129},{"voice":2,"pitch":65,"start":110.75,"duration":0.25,"velocity":127,"measure":56,"beat":2.5,"subject_pos":-1,"motif":"","motif_pos":-1,"best_pos":5,"similarity":0.586,"stretto":false,"stretto_voices":0,"combination":[],"aug_dim":"","rhythm_ratio":1.0,"mirror":false,"chromatic_density":0.333,"complexity":0.586,"dissonance":0.129},{"voice":3,"pitch":57,"start":110.75,"duration":0.25,"velocity":127,"measure":56,"beat":2.5,"subject_pos":-1,"motif":"enigmatic_cell","motif_pos":0,"best_pos":0,"similarity":1.0,"stretto":false,"stretto_voices":0,"combination":[],"aug_dim":"","rhythm_ratio":1.0,"mirror":false,"chromatic_density":0.333,"complexity":0.586,"dissonance":0.129},{"voice":0,"pitch":74,"start":111.0,"duration":0.25,"velocity":127,"measure":56,"beat":3.0,"subject_pos":-1,"motif":"","motif_pos":-1,"best_pos":5,"similarity":0.45,"stretto":false,"stretto_voices":0,"combination":[],"aug_dim":"","rhythm_ratio":1.0,"mirror":false,"chromatic_density":0.333,"complexity":0.586,"dissonance":0.129},{"voice":2,"pitch":67,"start":111.0,"duration":0.5,"velocity":127,"measure":56,"beat":3.0,"subject_pos":-1,"motif":"","motif_pos":-1,"best_pos":6,"similarity":0.436,"stretto":false,"stretto_voices":0,"combination":[],"aug_dim":"","rhythm_ratio":1.0,"mirror":false,"chromatic_density":0.333,"complexity":0.586,"dissonance":0.129},{"voice":3,"pitch":58,"start":111.0,"duration":0.5,"velocity":127,"measure":56,"beat":3.0,"subject_pos":-1,"motif":"enigmatic_cell","motif_pos":1,"best_pos":1,"similarity":1.0,"stretto":false,"stretto_voices":0,"combination":[],"aug_dim":"","rhythm_ratio":1.0,"mirror":false,"chromatic_density":0.333,"complexity":0.586,"dissonance":0.129},{"voice":0,"pitch":76,"start":111.25,"duration":0.25,"velocity":127,"measure":56,"beat":3.5,"subject_pos":-1,"motif":"","motif_pos":-1,"best_pos":6,"similarity":0.579,"stretto":false,"stretto_voices":0,"combination":[],"aug_dim":"","rhythm_ratio":1.0,"mirror":false,"chromatic_density":0.333,"complexity":0.586,"dissonance":0.129},{"voice":0,"pitch":77,"start":111.5,"duration":0.5,"velocity":127,"measure":56,"beat":4.0,"subject_pos":-1,"motif":"enigmatic_cell","motif_pos":0,"best_pos":0,"similarity":1.0,"stretto":false,"stretto_voices":0,"combination":[],"aug_dim":"","rhythm_ratio":1.0,"mirror":false,"chromatic_density":0.333,"complexity":0.586,"dissonance":0.129},{"voice":1,"pitch":69,"start":111.5,"duration":0.75,"velocity":127,"measure":56,"beat":4.0,"subject_pos":-1,"motif":"","motif_pos":-1,"best_pos":4,"similarity":0.539,"stretto":false,"stretto_voices":0,"combination":[],"aug_dim":"","rhythm_ratio":1.0,"mirror":false,"chromatic_density":0.333,"complexity":0.586,"dissonance":0.129},{"voice":2,"pitch":62,"start":111.5,"duration":0.75,"velocity":127,"measure":56,"beat":4.0,"subject_pos":-1,"motif":"","motif_pos":-1,"best_pos":2,"similarity":0.336,"stretto":false,"stretto_voices":0,"combination":[],"aug_dim":"","rhythm_ratio":1.0,"mirror":false,"chromatic_density":0.333,"complexity":0.586,"dissonance":0.129},{"voice":3,"pitch":53,"start":111.5,"duration":0.25,"velocity":127,"measure":56,"beat":4.0,"subject_pos":-1,"motif":"enigmatic_cell","motif_pos":2,"best_pos":2,"similarity":1.0,"stretto":false,"stretto_voices":0,"combination":[],"aug_dim":"","rhythm_ratio":1.0,"mirror":false,"chromatic_density":0.333,"complexity":0.586,"dissonance":0.129},{"voice":3,"pitch":55,"start":111.75,"duration":0.25,"velocity":127,"measure":56,"beat":4.5,"subject_pos":-1,"motif":"","motif_pos":-1,"best_pos":5,"similarity":0.464,"stretto":false,"stretto_voices":0,"combination":[],"aug_dim":"","rhythm_ratio":1.0,"mirror":false,"chromatic_density":0.333,"complexity":0.586,"dissonance":0.129},{"voice":0,"pitch":76,"start":112.0,"duration":1.0,"velocity":127,"measure":57,"beat":1.0,"subject_pos":-1,"motif":"enigmatic_cell","motif_pos":1,"best_pos":1,"similarity":1.0,"stretto":false,"stretto_voices":0,"combination":[],"aug_dim":"","rhythm_ratio":1.0,"mirror":false,"chromatic_density":0.364,"complexity":0.583,"dissonance":0.138},{"voice":3,"pitch":57,"start":112.0,"duration":1.25,"velocity":127,"measure":57,"beat":1.0,"subject_pos":-1,"motif":"","motif_pos":-1,"best_pos":1,"similarity":0.457,"stretto":false,"stretto_voices":0,"combination":[],"aug_dim":"","rhythm_ratio":1.0,"mirror":false,"chromatic_density":0.364,"complexity":0.583,"dissonance":0.138},{"voice":1,"pitch":71,"start":112.25,"duration":0.25,"velocity":127,"measure":57,"beat":1.5,"subject_pos":-1,"motif":"","motif_pos":-1,"best_pos":2,"similarity":0.386,"stretto":false,"stretto_voices":0,"combination":[],"aug_dim":"","rhythm_ratio":1.0,"mirror":false,"chromatic_density":0.364,"complexity":0.583,"dissonance":0.138},{"voice":2,"pitch":62,"start":112.25,"duration":0.25,"velocity":127,"measure":57,"beat":1.5,"subject_pos":-1,"motif":"","motif_pos":-1,"best_pos":3,"similarity":0.479,"stretto":false,"stretto_voices":0,"combination":[],"aug_dim":"","rhythm_ratio":1.0,"mirror":false,"chromatic_density":0.364,"complexity":0.583,"dissonance":0.138},{"voice":1,"pitch":69,"start":112.5,"duration":0.25,"velocity":127,"measure":57,"beat":2.0,"subject_pos":-1,"motif":"","motif_pos":-1,"best_pos":3,"similarity":0.586,"stretto":false,"stretto_voices":0,"combination":[],"aug_dim":"","rhythm_ratio":1.0,"mirror":false,"chromatic_density":0.364,"complexity":0.583,"dissonance":0.138},{"voice":2,"pitch":61,"start":112.5,"duration":0.25,"velocity":127,"measure":57,"beat":2.0,"subject_pos":-1,"motif":"","motif_pos":-1,"best_pos":4,"similarity":0.579,"stretto":false,"stretto_voices":0,"combination":[],"aug_dim":"","rhythm_ratio":1.0,"mirror":false,"chromatic_density":0.364,"complexity":0.583,"dissonance":0.138},{"voice":1,"pitch":68,"start":112.75,"duration":0.25,"velocity":127,"measure":57,"beat":2.5,"subject_pos":-1,"motif":"","motif_pos":-1,"best_pos":4,"similarity":0.65,"stretto":false,"stretto_voices":0,"combination":[],"aug_dim":"","rhythm_ratio":1.0,"mirror":false,"chromatic_density":0.364,"complexity":0.583,"dissonance":0.138},{"voice":2,"pitch":59,"start":112.75,"duration":0.25,"velocity":127,"measure":57,"beat":2.5,"subject_pos":-1,"motif":"","motif_pos":-1,"best_pos":5,"similarity":0.607,"stretto":false,"stretto_voices":0,"combination":[],"aug_dim":"","rhythm_ratio":1.0,"mirror":false,"chromatic_density":0.364,"complexity":0.583,"dissonance":0.138},{"voice":0,"pitch":81,"start":113.0,"duration":0.75,"velocity":127,"measure":57,"beat":3.0,"subject_pos":-1,"motif":"enigmatic_cell","motif_pos":2,"best_pos":2,"similarity":1.0,"stretto":false,"stretto_voices":0,"combination":[],"aug_dim":"","rhythm_ratio":1.0,"mirror":false,"chromatic_density":0.364,"complexity":0.583,"dissonance":0.138},{"voice":1,"pitch":69,"start":113.0,"duration":0.5,"velocity":127,"measure":57,"beat":3.0,"subject_pos":-1,"motif":"","motif_pos":-1,"best_pos":5,"similarity":0.464,"stretto":false,"stretto_voices":0,"combination":[],"aug_dim":"","rhythm_ratio":1.0,"mirror":false,"chromatic_density":0.364,"complexity":0.583,"dissonance":0.138},{"voice":2,"pitch":61,"start":113.0,"duration":1.0,"velocity":127,"measure":57,"beat":3.0,"subject_pos":-1,"motif":"enigmatic_cell","motif_pos":0,"best_pos":0,"similarity":1.0,"stretto":false,"stretto_voices":0,"combination":[],"aug_dim":"","rhythm_ratio":1.0,"mirror":false,"chromatic_density":0.364,"complexity":0.583,"dissonance":0.138},{"voice":3,"pitch":55,"start":113.25,"duration":0.25,"velocity":127,"measure":57,"beat":3.5,"subject_pos":-1,"motif":"","motif_pos":-1,"best_pos":2,"similarity":0.593,"stretto":false,"stretto_voices":0,"combination":[],"aug_dim":"","rhythm_ratio":1.0,"mirror":false,"chromatic_density":0.364,"complexity":0.583,"dissonance":0.138},{"voice":3,"pitch":53,"start":113.5,"duration":0.25,"velocity":127,"measure":57,"beat":4.0,"subject_pos":-1,"motif":"","motif_pos":-1,"best_pos":3,"similarity":0.6,"stretto":false,"stretto_voices":0,"combination":[],"aug_dim":"","rhythm_ratio":1.0,"mirror":false,"chromatic_density":0.364,"complexity":0.583,"dissonance":0.138},{"voice":0,"pitch":79,"start":113.75,"duration":0.25,"velocity":127,"measure":57,"beat":4.5,"subject_pos":-1,"motif":"","motif_pos":-1,"best_pos":2,"similarity":0.721,"stretto":false,"stretto_voices":0,"combination":[],"aug_dim":"","rhythm_ratio":1.0,"mirror":false,"chromatic_density":0.364,"complexity":0.583,"dissonance":0.138},{"voice":3,"pitch":52,"start":113.75,"duration":0.25,"velocity":127,"measure":57,"beat":4.5,"subject_pos":-1,"motif":"","motif_pos":-1,"best_pos":4,"similarity":0.479,"stretto":false,"stretto_voices":0,"combination":[],"aug_dim":"","rhythm_ratio":1.0,"mirror":false,"chromatic_density":0.364,"complexity":0.583,"dissonance":0.138},{"voice":0,"pitch":77,"start":114.0,"duration":0.75,"velocity":127,"measure":58,"beat":1.0,"subject_pos":-1,"motif":"","motif_pos":-1,"best_pos":3,"similarity":0.664,"stretto":false,"stretto_voices":0,"combination":[],"aug_dim":"","rhythm_ratio":1.0,"mirror":false,"chromatic_density":0.25,"complexity":0.59,"dissonance":0.083},{"voice":2,"pitch":62,"start":114.0,"duration":0.25,"velocity":127,"measure":58,"beat":1.0,"subject_pos":-1,"motif":"enigmatic_cell","motif_pos":1,"best_pos":1,"similarity":1.0,"stretto":false,"stretto_voices":0,"combination":[],"aug_dim":"","rhythm_ratio":1.0,"mirror":false,"chromatic_density":0.25,"complexity":0.59,"dissonance":0.083},{"voice":3,"pitch":50,"start":114.0,"duration":1.0,"velocity":127,"measure":58,"beat":1.0,"subject_pos":-1,"motif":"","motif_pos":-1,"best_pos":2,"similarity":0.393,"stretto":false,"stretto_voices":0,"combination":[],"aug_dim":"","rhythm_ratio":1.0,"mirror":false,"chromatic_density":0.25,"complexity":0.59,"dissonance":0.083},{"voice":2,"pitch":57,"start":114.25,"duration":0.25,"velocity":127,"measure":58,"beat":1.5,"subject_pos":-1,"motif":"enigmatic_cell","motif_pos":2,"best_pos":2,"similarity":1.0,"stretto":false,"stretto_voices":0,"combination":[],"aug_dim":"","rhythm_ratio":1.0,"mirror":false,"chromatic_density":0.25,"complexity":0.59,"dissonance":0.083},{"voice":2,"pitch":60,"start":114.5,"duration":0.75,"velocity":127,"measure":58,"beat":2.0,"subject_pos":-1,"motif":"","motif_pos":-1,"best_pos":2,"similarity":0.321,"stretto":false,"stretto_voices":0,"combination":[],"aug_dim":"","rhythm_ratio":1.0,"mirror":false,"chromatic_density":0.25,"complexity":0.59,"dissonance":0.083},{"voice":0,"pitch":76,"start":114.75,"duration":0.25,"velocity":127,"measure":58,"beat":2.5,"subject_pos":-1,"motif":"","motif_pos":-1,"best_pos":4,"similarity":0.543,"stretto":false,"stretto_voices":0,"combination":[],"aug_dim":"","rhythm_ratio":1.0,"mirror":false,"chromatic_density":0.25,"complexity":0.59,"dissonance":0.083},{"voice":0,"pitch":74,"start":115.0,"duration":1.0,"velocity":127,"measure":58,"beat":3.0,"subject_pos":-1,"motif":"tail","motif_pos":3,"best_pos":3,"similarity":1.0,"stretto":false,"stretto_voices":0,"combination":[],"aug_dim":"","rhythm_ratio":1.0,"mirror":false,"chromatic_density":0.25,"complexity":0.59,"dissonance":0.083},{"voice":1,"pitch":62,"start":115.0,"duration":1.0,"velocity":127,"measure":58,"beat":3.0,"subject_pos":0,"motif":"subject","motif_pos":0,"best_pos":0,"similarity":1.0,"stretto":false,"stretto_voices":0,"combination":[],"aug_dim":"","rhythm_ratio":1.0,"mirror":false,"chromatic_density":0.25,"complexity":0.59,"dissonance":0.083},{"voice":2,"pitch":57,"start":115.25,"duration":0.25,"velocity":127,"measure":58,"beat":3.5,"subject_pos":-1,"motif":"","motif_pos":-1,"best_pos":4,"similarity":0.4,"stretto":false,"stretto_voices":0,"combination":[],"aug_dim":"","rhythm_ratio":1.0,"mirror":false,"chromatic_density":0.25,"complexity":0.59,"dissonance":0.083},{"voice":2,"pitch":58,"start":115.5,"duration":0.25,"velocity":127,"measure":58,"beat":4.0,"subject_pos":-1,"motif":"","motif_pos":-1,"best_pos":5,"similarity":0.336,"stretto":false,"stretto_voices":0,"combination":[],"aug_dim":"","rhythm_ratio":1.0,"mirror":false,"chromatic_density":0.25,"complexity":0.59,"dissonance":0.083},{"voice":3,"pitch":55,"start":115.5,"duration":0.75,"velocity":127,"measure":58,"beat":4.0,"subject_pos":-1,"motif":"","motif_pos":-1,"best_pos":1,"similarity":0.514,"stretto":false,"stretto_voices":0,"combination":[],"aug_dim":"","rhythm_ratio":1.0,"mirror":false,"chromatic_density":0.25,"complexity":0.59,"dissonance":0.083},{"voice":2,"pitch":67,"start":115.75,"duration":0.25,"velocity":127,"measure":58,"beat":4.5,"subject_pos":-1,"motif":"","motif_pos":-1,"best_pos":2,"similarity":0.336,"stretto":false,"stretto_voices":0,"combination":[],"aug_dim":"","rhythm_ratio":1.0,"mirror":false,"chromatic_density":0.25,"complexity":0.59,"dissonance":0.083},{"voice":0,"pitch":73,"start":116.0,"duration":1.0,"velocity":127,"measure":59,"beat":1.0,"subject_pos":-1,"motif":"tail","motif_pos":4,"best_pos":4,"similarity":1.0,"stretto":false,"stretto_voices":0,"combination":[],"aug_dim":"","rhythm_ratio":1.0,"mirror":false,"chromatic_density":0.333,"complexity":0.673,"dissonance":0.12},{"voice":1,"pitch":69,"start":116.0,"duration":0.75,"velocity":127,"measure":59,"beat":1.0,"subject_pos":1,"motif":"subject","motif_pos":1,"best_pos":1,"similarity":1.0,"stretto":false,"stretto_voices":0,"combination":[],"aug_dim":"","rhythm_ratio":1.0,"mirror":false,"chromatic_density":0.333,"complexity":0.673,"dissonance":0.12},{"voice":2,"pitch":64,"start":116.0,"duration":0.5,"velocity":127,"measure":59,"beat":1.0,"subject_pos":-1,"motif":"","motif_pos":-1,"best_pos":3,"similarity":0.436,"stretto":false,"stretto_voices":0,"combination":[],"aug_dim":"","rhythm_ratio":1.0,"mirror":false,"chromatic_density":0.333,"complexity":0.673,"dissonance":0.12},{"voice":3,"pitch":52,"start":116.25,"duration":0.25,"velocity":127,"measure":59,"beat":1.5,"subject_pos":-1,"motif":"","motif_pos":-1,"best_pos":2,"similarity":0.529,"stretto":false,"stretto_voices":0,"combination":[],"aug_dim":"","rhythm_ratio":1.0,"mirror":false,"chromatic_density":0.333,"complexity":0.673,"dissonance":0.12},{"voice":2,"pitch":57,"start":116.5,"duration":0.75,"velocity":127,"measure":59,"beat":2.0,"subject_pos":-1,"motif":"","motif_pos":-1,"best_pos":4,"similarity":0.464,"stretto":false,"stretto_voices":0,"combination":[],"aug_dim":"","rhythm_ratio":1.0,"mirror":false,"chromatic_density":0.333,"complexity":0.673,"dissonance":0.12},{"voice":3,"pitch":53,"start":116.5,"duration":1.75,"velocity":127,"measure":59,"beat":2.0,"subject_pos":-1,"motif":"","motif_pos":-1,"best_pos":3,"similarity":0.671,"stretto":false,"stretto_voices":0,"combination":[],"aug_dim":"","rhythm_ratio":1.0,"mirror":false,"chromatic_density":0.333,"complexity":0.673,"dissonance":0.12},{"voice":1,"pitch":67,"start":116.75,"duration":0.25,"velocity":127,"measure":59,"beat":2.5,"subject_pos":2,"motif":"subject","motif_pos":2,"best_pos":2,"similarity":1.0,"stretto":false,"stretto_voices":0,"combination":[],"aug_dim":"","rhythm_ratio":1.0,"mirror":false,"chromatic_density":0.333,"complexity":0.673,"dissonance":0.12},{"voice":0,"pitch":74,"start":117.0,"duration":0.75,"velocity":127,"measure":59,"beat":3.0,"subject_pos":-1,"motif":"tail","motif_pos":5,"best_pos":5,"similarity":1.0,"stretto":false,"stretto_voices":0,"combination":[],"aug_dim":"","rhythm_ratio":1.0,"mirror":false,"chromatic_density":0.333,"complexity":0.673,"dissonance":0.12},{"voice":1,"pitch":65,"start":117.0,"duration":0.75,"velocity":127,"measure":59,"beat":3.0,"subject_pos":3,"motif":"subject","motif_pos":3,"best_pos":3,"similarity":1.0,"stretto":false,"stretto_voices":0,"combination":[],"aug_dim":"","rhythm_ratio":1.0,"mirror":false,"chromatic_density":0.333,"complexity":0.673,"dissonance":0.12},{"voice":2,"pitch":57,"start":117.25,"duration":0.25,"velocity":127,"measure":59,"beat":3.5,"subject_pos":-1,"motif":"","motif_pos":-1,"best_pos":5,"similarity":0.571,"stretto":false,"stretto_voices":0,"combination":[],"aug_dim":"","rhythm_ratio":1.0,"mirror":false,"chromatic_density":0.333,"complexity":0.673,"dissonance":0.12},{"voice":2,"pitch":59,"start":117.5,"duration":0.25,"velocity":127,"measure":59,"beat":4.0,"subject_pos":-1,"motif":"","motif_pos":-1,"best_pos":5,"similarity":0.65,"stretto":false,"stretto_voices":0,"combination":[],"aug_dim":"","rhythm_ratio":1.0,"mirror":false,"chromatic_density":0.333,"complexity":0.673,"dissonance":0.12},{"voice":0,"pitch":76,"start":117.75,"duration":0.25,"velocity":127,"measure":59,"beat":4.5,"subject_pos":-1,"motif":"tail","motif_pos":6,"best_pos":6,"similarity":1.0,"stretto":false,"stretto_voices":0,"combination":[],"aug_dim":"","rhythm_ratio":1.0,"mirror":false,"chromatic_density":0.333,"complexity":0.673,"dissonance":0.12},{"voice":1,"pitch":64,"start":117.75,"duration":0.25,"velocity":127,"measure":59,"beat":4.5,"subject_pos":4,"motif":"subject","motif_pos":4,"best_pos":4,"similarity":1.0,"stretto":false,"stretto_voices":0,"combination":[],"aug_dim":"","rhythm_ratio":1.0,"mirror":false,"chromatic_density":0.333,"complexity":0.673,"dissonance":0.12},{"voice":2,"pitch":61,"start":117.75,"duration":0.25,"velocity":127,"measure":59,"beat":4.5,"subject_pos":-1,"motif":"","motif_pos":-1,"best_pos":6,"similarity":0.679,"stretto":false,"stretto_voices":0,"combination":[],"aug_dim":"","rhythm_ratio":1.0,"mirror":false,"chromatic_density":0.333,"complexity":0.673,"dissonance":0.12},{"voice":0,"pitch":77,"start":118.0,"duration":1.25,"velocity":127,"measure":60,"beat":1.0,"subject_pos":-1,"motif":"tail","motif_pos":7,"best_pos":7,"similarity":1.0,"stretto":false,"stretto_voices":0,"combination":[],"aug_dim":"","rhythm_ratio":1.0,"mirror":false,"chromatic_density":0.375,"complexity":0.552,"dissonance":0.115},{"voice":1,"pitch":62,"start":118.0,"duration":1.0,"velocity":127,"measure":60,"beat":1.0,"subject_pos":5,"motif":"subject","motif_pos":5,"best_pos":5,"similarity":1.0,"stretto":false,"stretto_voices":0,"combination":[],"aug_dim":"","rhythm_ratio":1.0,"mirror":false,"chromatic_density":0.375,"complexity":0.552,"dissonance":0.115},{"voice":2,"pitch":62,"start":118.0,"duration":0.5,"velocity":127,"measure":60,"beat":1.0,"subject_pos":-1,"motif":"","motif_pos":-1,"best_pos":7,"similarity":0.464,"stretto":false,"stretto_voices":0,"combination":[],"aug_dim":"","rhythm_ratio":1.0,"mirror":false,"chromatic_density":0.375,"complexity":0.552,"dissonance":0.115},{"voice":3,"pitch":52,"start":118.25,"duration":0.25,"velocity":127,"measure":60,"beat":1.5,"subject_pos":-1,"motif":"","motif_pos":-1,"best_pos":4,"similarity":0.8,"stretto":false,"stretto_voices":0,"combination":[],"aug_dim":"","rhythm_ratio":1.0,"mirror":false,"chromatic_density":0.375,"complexity":0.552,"dissonance":0.115},{"voice":3,"pitch":53,"start":118.5,"duration":0.25,"velocity":127,"measure":60,"beat":2.0,"subject_pos":-1,"motif":"","motif_pos":-1,"best_pos":5,"similarity":0.793,"stretto":false,"stretto_voices":0,"combination":[],"aug_dim":"","rhythm_ratio":1.0,"mirror":false,"chromatic_density":0.375,"complexity":0.552,"dissonance":0.115},{"voice":3,"pitch":55,"start":118.75,"duration":0.25,"velocity":127,"measure":60,"beat":2.5,"subject_pos":-1,"motif":"","motif_pos":-1,"best_pos":6,"similarity":0.643,"stretto":false,"stretto_voices":0,"combination":[],"aug_dim":"","rhythm_ratio":1.0,"mirror":false,"chromatic_density":0.375,"complexity":0.552,"dissonance":0.115},{"voice":1,"pitch":61,"start":119.0,"duration":1.0,"velocity":127,"measure":60,"beat":3.0,"subject_pos":6,"motif":"subject","motif_pos":6,"best_pos":6,"similarity":1.0,"stretto":false,"stretto_voices":0,"combination":[],"aug_dim":"","rhythm_ratio":1.0,"mirror":false,"chromatic_density":0.375,"complexity":0.552,"dissonance":0.115},{"voice":3,"pitch":57,"start":119.0,"duration":1.25,"velocity":127,"measure":60,"beat":3.0,"subject_pos":-1,"motif":"","motif_pos":-1,"best_pos":6,"similarity":0.404,"stretto":false,"stretto_voices":0,"combination":[],"aug_dim":"","rhythm_ratio":1.0,"mirror":false,"chromatic_density":0.375,"complexity":0.552,"dissonance":0.115},{"voice":0,"pitch":79,"start":119.25,"duration":0.25,"velocity":127,"measure":60,"beat":3.5,"subject_pos":-1,"motif":"","motif_pos":-1,"best_pos":6,"similarity":0.464,"stretto":false,"stretto_voices":0,"combination":[],"aug_dim":"","rhythm_ratio":1.0,"mirror":false,"chromatic_density":0.375,"complexity":0.552,"dissonance":0.115},{"voice":0,"pitch":77,"start":119.5,"duration":0.25,"velocity":127,"measure":60,"beat":4.0,"subject_pos":-1,"motif":"","motif_pos":-1,"best_pos":3,"similarity":0.464,"stretto":false,"stretto_voices":0,"combination":[],"aug_dim":"","rhythm_ratio":1.0,"mirror":false,"chromatic_density":0.375,"complexity":0.552,"dissonance":0.115},{"voice":2,"pitch":69,"start":119.5,"duration":0.5,"velocity":127,"measure":60,"beat":4.0,"subject_pos":-1,"motif":"","motif_pos":-1,"best_pos":6,"similarity":0.436,"stretto":false,"stretto_voices":0,"combination":[],"aug_dim":"","rhythm_ratio":1.0,"mirror":false,"chromatic_density":0.375,"complexity":0.552,"dissonance":0.115},{"voice":0,"pitch":76,"start":119.75,"duration":0.25,"velocity":127,"measure":60,"beat":4.5,"subject_pos":-1,"motif":"","motif_pos":-1,"best_pos":4,"similarity":0.411,"stretto":false,"stretto_voices":0,"combination":[],"aug_dim":"","rhythm_ratio":1.0,"mirror":false,"chromatic_density":0.375,"complexity":0.552,"dissonance":0.115},{"voice":0,"pitch":74,"start":120.0,"duration":1.5,"velocity":127,"measure":61,"beat":1.0,"subject_pos":-1,"motif":"","motif_pos":-1,"best_pos":2,"similarity":0.371,"stretto":false,"stretto_voices":0,"combination":[],"aug_dim":"","rhythm_ratio":1.0,"mirror":false,"chromatic_density":0.4,"complexity":0.663,"dissonance":0.062},{"voice":1,"pitch":62,"start":120.0,"duration":0.75,"velocity":127,"measure":61,"beat":1.0,"subject_pos":7,"motif":"subject","motif_pos":7,"best_pos":7,"similarity":1.0,"stretto":false,"stretto_voices":0,"combination":[],"aug_dim":"","rhythm_ratio":1.0,"mirror":false,"chromatic_density":0.4,"complexity":0.663,"dissonance":0.062},{"voice":2,"pitch":70,"start":120.0,"duration":0.5,"velocity":127,"measure":61,"beat":1.0,"subject_pos":-1,"motif":"","motif_pos":-1,"best_pos":7,"similarity":0.357,"stretto":false,"stretto_voices":0,"combination":[],"aug_dim":"","rhythm_ratio":1.0,"mirror":false,"chromatic_density":0.4,"complexity":0.663,"dissonance":0.062},{"voice":3,"pitch":54,"start":120.25,"duration":0.25,"velocity":127,"measure":61,"beat":1.5,"subject_pos":-1,"motif":"enigmatic_cell","motif_pos":0,"best_pos":0,"similarity":1.0,"stretto":false,"stretto_voices":0,"combination":[],"aug_dim":"","rhythm_ratio":1.0,"mirror":false,"chromatic_density":0.4,"complexity":0.663,"dissonance":0.062},{"voice":2,"pitch":58,"start":120.5,"duration":0.5,"velocity":127,"measure":61,"beat":2.0,"subject_pos":-1,"motif":"","motif_pos":-1,"best_pos":3,"similarity":0.457,"stretto":false,"stretto_voices":0,"combination":[],"aug_dim":"","rhythm_ratio":1.0,"mirror":false,"chromatic_density":0.4,"complexity":0.663,"dissonance":0.062},{"voice":3,"pitch":55,"start":120.5,"duration":0.5,"velocity":127,"measure":61,"beat":2.0,"subject_pos":-1,"motif":"enigmatic_cell","motif_pos":1,"best_pos":1,"similarity":1.0,"stretto":false,"stretto_voices":0,"combination":[],"aug_dim":"","rhythm_ratio":1.0,"mirror":false,"chromatic_density":0.4,"complexity":0.663,"dissonance":0.062},{"voice":1,"pitch":64,"start":120.75,"duration":0.25,"velocity":127,"measure":61,"beat":2.5,"subject_pos":8,"motif":"subject","motif_pos":8,"best_pos":0,"similarity":1.0,"stretto":false,"stretto_voices":0,"combination":[],"aug_dim":"","rhythm_ratio":1.0,"mirror":false,"chromatic_density":0.4,"complexity":0.663,"dissonance":0.062},{"voice":1,"pitch":65,"start":121.0,"duration":1.25,"velocity":127,"measure":61,"beat":3.0,"subject_pos":-1,"motif":"","motif_pos":-1,"best_pos":5,"similarity":0.607,"stretto":false,"stretto_voices":0,"combination":[],"aug_dim":"","rhythm_ratio":1.0,"mirror":false,"chromatic_density":0.4,"complexity":0.663,"dissonance":0.062},{"voice":2,"pitch":57,"start":121.0,"duration":0.25,"velocity":127,"measure":61,"beat":3.0,"subject_pos":-1,"motif":"","motif_pos":-1,"best_pos":4,"similarity":0.536,"stretto":false,"stretto_voices":0,"combination":[],"aug_dim":"","rhythm_ratio":1.0,"mirror":false,"chromatic_density":0.4,"complexity":0.663,"dissonance":0.062},{"voice":3,"pitch":50,"start":121.0,"duration":1.0,"velocity":127,"measure":61,"beat":3.0,"subject_pos":-1,"motif":"enigmatic_cell","motif_pos":2,"best_pos":2,"similarity":1.0,"stretto":false,"stretto_voices":0,"combination":[],"aug_dim":"","rhythm_ratio":1.0,"mirror":false,"chromatic_density":0.4,"complexity":0.663,"dissonance":0.062},{"voice":2,"pitch":55,"start":121.25,"duration":0.25,"velocity":127,"measure":61,"beat":3.5,"subject_pos":-1,"motif":"","motif_pos":-1,"best_pos":5,"similarity":0.6,"stretto":false,"stretto_voices":0,"combination":[],"aug_dim":"","rhythm_ratio":1.0,"mirror":false,"chromatic_density":0.4,"complexity":0.663,"dissonance":0.062},{"voice":0,"pitch":69,"start":121.5,"duration":1.0,"velocity":127,"measure":61,"beat":4.0,"subject_pos":-1,"motif":"","motif_pos":-1,"best_pos":3,"similarity":0.261,"stretto":false,"stretto_voices":0,"combination":[],"aug_dim":"","rhythm_ratio":1.0,"mirror":false,"chromatic_density":0.4,"complexity":0.663,"dissonance":0.062},{"voice":2,"pitch":57,"start":121.5,"duration":0.25,"velocity":127,"measure":61,"beat":4.0,"subject_pos":-1,"motif":"","motif_pos":-1,"best_pos":6,"similarity":0.657,"stretto":false,"stretto_voices":0,"combination":[],"aug_dim":"","rhythm_ratio":1.0,"mirror":false,"chromatic_density":0.4,"complexity":0.663,"dissonance":0.062},{"voice":2,"pitch":58,"start":121.75,"duration":0.25,"velocity":127,"measure":61,"beat":4.5,"subject_pos":-1,"motif":"","motif_pos":-1,"best_pos":5,"similarity":0.693,"stretto":false,"stretto_voices":0,"combination":[],"aug_dim":"","rhythm_ratio":1.0,"mirror":false,"chromatic_density":0.4,"complexity":0.663,"dissonance":0.062},{"voice":2,"pitch":60,"start":122.0,"duration":1.25,"velocity":127,"measure":62,"beat":1.0,"subject_pos":-1,"motif":"","motif_pos":-1,"best_pos":6,"similarity":0.579,"stretto":false,"stretto_voices":0,"combination":[],"aug_dim":"","rhythm_ratio":1.0,"mirror":false,"chromatic_density":0.429,"complexity":0.536,"dissonance":0.107},{"voice":3,"pitch":45,"start":122.0,"duration":1.0,"velocity":127,"measure":62,"beat":1.0,"subject_pos":-1,"motif":"","motif_pos":-1,"best_pos":4,"similarity":0.5,"stretto":false,"stretto_voices":0,"combination":[],"aug_dim":"","rhythm_ratio":1.0,"mirror":false,"chromatic_density":0.429,"complexity":0.536,"dissonance":0.107},{"voice":1,"pitch":67,"start":122.25,"duration":0.25,"velocity":127,"measure":62,"beat":1.5,"subject_pos":-1,"motif":"","motif_pos":-1,"best_pos":6,"similarity":0.464,"stretto":false,"stretto_voices":0,"combination":[],"aug_dim":"","rhythm_ratio":1.0,"mirror":false,"chromatic_density":0.429,"complexity":0.536,"dissonance":0.107},{"voice":0,"pitch":72,"start":122.5,"duration":0.5,"velocity":127,"measure":62,"beat":2.0,"subject_pos":-1,"motif":"","motif_pos":-1,"best_pos":4,"similarity":0.179,"stretto":false,"stretto_voices":0,"combination":[],"aug_dim":"","rhythm_ratio":1.0,"mirror":false,"chromatic_density":0.429,"complexity":0.536,"dissonance":0.107},{"voice":1,"pitch":65,"start":122.5,"duration":0.25,"velocity":127,"measure":62,"beat":2.0,"subject_pos":-1,"motif":"","motif_pos":-1,"best_pos":2,"similarity":0.621,"stretto":false,"stretto_voices":0,"combination":[],"aug_dim":"","rhythm_ratio":1.0,"mirror":false,"chromatic_density":0.429,"complexity":0.536,"dissonance":0.107},{"voice":1,"pitch":63,"start":122.75,"duration":0.25,"velocity":127,"measure":62,"beat":2.5,"subject_pos":-1,"motif":"","motif_pos":-1,"best_pos":3,"similarity":0.657,"stretto":false,"stretto_voices":0,"combination":[],"aug_dim":"","rhythm_ratio":1.0,"mirror":false,"chromatic_density":0.429,"complexity":0.536,"dissonance":0.107},{"voice":0,"pitch":65,"start":123.0,"duration":1.25,"velocity":127,"measure":62,"beat":3.0,"subject_pos":-1,"motif":"","motif_pos":-1,"best_pos":0,"similarity":0.321,"stretto":false,"stretto_voices":0,"combination":[],"aug_dim":"","rhythm_ratio":1.0,"mirror":false,"chromatic_density":0.429,"complexity":0.536,"dissonance":0.107},{"voice":1,"pitch":62,"start":123.0,"duration":2.25,"velocity":127,"measure":62,"beat":3.0,"subject_pos":-1,"motif":"","motif_pos":-1,"best_pos":4,"similarity":0.593,"stretto":false,"stretto_voices":0,"combination":[],"aug_dim":"","rhythm_ratio":1.0,"mirror":false,"chromatic_density":0.429,"complexity":0.536,"dissonance":0.107},{"voice":3,"pitch":46,"start":123.0,"duration":1.0,"velocity":127,"measure":62,"beat":3.0,"subject_pos":-1,"motif":"","motif_pos":-1,"best_pos":5,"similarity":0.604,"stretto":false,"stretto_voices":0,"combination":[],"aug_dim":"","rhythm_ratio":1.0,"mirror":false,"chromatic_density":0.429,"complexity":0.536,"dissonance":0.107},{"voice":2,"pitch":60,"start":123.25,"duration":0.25,"velocity":127,"measure":62,"beat":3.5,"subject_pos":-1,"motif":"","motif_pos":-1,"best_pos":2,"similarity":0.379,"stretto":false,"stretto_voices":0,"combination":[],"aug_dim":"","rhythm_ratio":1.0,"mirror":false,"chromatic_density":0.429,"complexity":0.536,"dissonance":0.107},{"voice":2,"pitch":58,"start":123.5,"duration":0.25,"velocity":127,"measure":62,"beat":4.0,"subject_pos":-1,"motif":"","motif_pos":-1,"best_pos":3,"similarity":0.504,"stretto":false,"stretto_voices":0,"combination":[],"aug_dim":"","rhythm_ratio":1.0,"mirror":false,"chromatic_density":0.429,"complexity":0.536,"dissonance":0.107},{"voice":2,"pitch":57,"start":123.75,"duration":0.25,"velocity":127,"measure":62,"beat":4.5,"subject_pos":-1,"motif":"","motif_pos":-1,"best_pos":4,"similarity":0.446,"stretto":false,"stretto_voices":0,"combination":[],"aug_dim":"","rhythm_ratio":1.0,"mirror":false,"chromatic_density":0.429,"complexity":0.536,"dissonance":0.107},{"voice":2,"pitch":55,"start":124.0,"duration":2.25,"velocity":127,"measure":63,"beat":1.0,"subject_pos":-1,"motif":"","motif_pos":-1,"best_pos":4,"similarity":0.425,"stretto":false,"stretto_voices":0,"combination":[],"aug_dim":"","rhythm_ratio":1.0,"mirror":false,"chromatic_density":0.333,"complexity":0.43,"dissonance":0.148},{"voice":3,"pitch":47,"start":124.0,"duration":1.0,"velocity":127,"measure":63,"beat":1.0,"subject_pos":-1,"motif":"","motif_pos":-1,"best_pos":5,"similarity":0.625,"stretto":false,"stretto_voices":0,"combination":[],"aug_dim":"","rhythm_ratio":1.0,"mirror":false,"chromatic_density":0.333,"complexity":0.43,"dissonance":0.148},{"voice":0,"pitch":69,"start":124.25,"duration":0.25,"velocity":127,"measure":63,"beat":1.5,"subject_pos":-1,"motif":"","motif_pos":-1,"best_pos":1,"similarity":0.571,"stretto":false,"stretto_voices":0,"combination":[],"aug_dim":"","rhythm_ratio":1.0,"mirror":false,"chromatic_density":0.333,"complexity":0.43,"dissonance":0.148},{"voice":0,"pitch":67,"start":124.5,"duration":0.25,"velocity":127,"measure":63,"beat":2.0,"subject_pos":-1,"motif":"","motif_pos":-1,"best_pos":2,"similarity":0.65,"stretto":false,"stretto_voices":0,"combination":[],"aug_dim":"","rhythm_ratio":1.0,"mirror":false,"chromatic_density":0.333,"complexity":0.43,"dissonance":0.148},{"voice":0,"pitch":65,"start":124.75,"duration":0.25,"velocity":127,"measure":63,"beat":2.5,"subject_pos":-1,"motif":"","motif_pos":-1,"best_pos":3,"similarity":0.629,"stretto":false,"stretto_voices":0,"combination":[],"aug_dim":"","rhythm_ratio":1.0,"mirror":false,"chromatic_density":0.333,"complexity":0.43,"dissonance":0.148},{"voice":0,"pitch":64,"start":125.0,"duration":2.25,"velocity":127,"measure":63,"beat":3.0,"subject_pos":-1,"motif":"","motif_pos":-1,"best_pos":4,"similarity":0.543,"stretto":false,"stretto_voices":0,"combination":[],"aug_dim":"","rhythm_ratio":1.0,"mirror":false,"chromatic_density":0.333,"complexity":0.43,"dissonance":0.148},{"voice":3,"pitch":48,"start":125.0,"duration":1.0,"velocity":127,"measure":63,"beat":3.0,"subject_pos":-1,"motif":"","motif_pos":-1,"best_pos":5,"similarity":0.614,"stretto":false,"stretto_voices":0,"combination":[],"aug_dim":"","rhythm_ratio":1.0,"mirror":false,"chromatic_density":0.333,"complexity":0.43,"dissonance":0.148},{"voice":1,"pitch":62,"start":125.25,"duration":0.25,"velocity":127,"measure":63,"beat":3.5,"subject_pos":-1,"motif":"","motif_pos":-1,"best_pos":1,"similarity":0.429,"stretto":false,"stretto_voices":0,"combination":[],"aug_dim":"","rhythm_ratio":1.0,"mirror":false,"chromatic_density":0.333,"complexity":0.43,"dissonance":0.148},{"voice":1,"pitch":60,"start":125.5,"duration":0.25,"velocity":127,"measure":63,"beat":4.0,"subject_pos":-1,"motif":"","motif_pos":-1,"best_pos":2,"similarity":0.589,"stretto":false,"stretto_voices":0,"combination":[],"aug_dim":"","rhythm_ratio":1.0,"mirror":false,"chromatic_density":0.333,"complexity":0.43,"dissonance":0.148},{"voice":1,"pitch":58,"start":125.75,"duration":0.25,"velocity":127,"measure":63,"beat":4.5,"subject_pos":-1,"motif":"","motif_pos":-1,"best_pos":3,"similarity":0.643,"stretto":false,"stretto_voices":0,"combination":[],"aug_dim":"","rhythm_ratio":1.0,"mirror":false,"chromatic_density":0.333,"complexity":0.43,"dissonance":0.148},{"voice":1,"pitch":57,"start":126.0,"duration":1.5,"velocity":127,"measure":64,"beat":1.0,"subject_pos":-1,"motif":"","motif_pos":-1,"best_pos":3,"similarity":0.643,"stretto":false,"stretto_voices":0,"combination":[],"aug_dim":"","rhythm_ratio":1.0,"mirror":false,"chromatic_density":0.857,"complexity":0.507,"dissonance":0.152},{"voice":3,"pitch":49,"start":126.0,"duration":1.0,"velocity":127,"measure":64,"beat":1.0,"subject_pos":-1,"motif":"enigmatic_cell","motif_pos":0,"best_pos":0,"similarity":1.0,"stretto":false,"stretto_voices":0,"combination":[],"aug_dim":"","rhythm_ratio":1.0,"mirror":false,"chromatic_density":0.857,"complexity":0.507,"dissonance":0.152},{"voice":2,"pitch":55,"start":126.25,"duration":0.25,"velocity":127,"measure":64,"beat":1.5,"subject_pos":-1,"motif":"","motif_pos":-1,"best_pos":2,"similarity":0.429,"stretto":false,"stretto_voices":0,"combination":[],"aug_dim":"","rhythm_ratio":1.0,"mirror":false,"chromatic_density":0.857,"complexity":0.507,"dissonance":0.152},{"voice":2,"pitch":53,"start":126.5,"duration":0.25,"velocity":127,"measure":64,"beat":2.0,"subject_pos":-1,"motif":"","motif_pos":-1,"best_pos":3,"similarity":0.614,"stretto":false,"stretto_voices":0,"combination":[],"aug_dim":"","rhythm_ratio":1.0,"mirror":false,"chromatic_density":0.857,"complexity":0.507,"dissonance":0.152},{"voice":2,"pitch":52,"start":126.75,"duration":0.25,"velocity":127,"measure":64,"beat":2.5,"subject_pos":-1,"motif":"","motif_pos":-1,"best_pos":4,"similarity":0.675,"stretto":false,"stretto_voices":0,"combination":[],"aug_dim":"","rhythm_ratio":1.0,"mirror":false,"chromatic_density":0.857,"complexity":0.507,"dissonance":0.152},{"voice":2,"pitch":53,"start":127.0,"duration":1.0,"velocity":127,"measure":64,"beat":3.0,"subject_pos":-1,"motif":"","motif_pos":-1,"best_pos":5,"similarity":0.493,"stretto":false,"stretto_voices":0,"combination":[],"aug_dim":"","rhythm_ratio":1.0,"mirror":false,"chromatic_density":0.857,"complexity":0.507,"dissonance":0.152},{"voice":3,"pitch":50,"start":127.0,"duration":1.0,"velocity":127,"measure":64,"beat":3.0,"subject_pos":-1,"motif":"enigmatic_cell","motif_pos":1,"best_pos":1,"similarity":1.0,"stretto":false,"stretto_voices":0,"combination":[],"aug_dim":"","rhythm_ratio":1.0,"mirror":false,"chromatic_density":0.857,"complexity":0.507,"dissonance":0.152},{"voice":0,"pitch":62,"start":127.25,"duration":0.25,"velocity":127,"measure":64,"beat":3.5,"subject_pos":-1,"motif":"","motif_pos":-1,"best_pos":3,"similarity":0.65,"stretto":false,"stretto_voices":0,"combination":[],"aug_dim":"","rhythm_ratio":1.0,"mirror":false,"chromatic_density":0.857,"complexity":0.507,"dissonance":0.152},{"voice":0,"pitch":61,"start":127.5,"duration":0.25,"velocity":127,"measure":64,"beat":4.0,"subject_pos":-1,"motif":"","motif_pos":-1,"best_pos":4,"similarity":0.693,"stretto":false,"stretto_voices":0,"combination":[],"aug_dim":"","rhythm_ratio":1.0,"mirror":false,"chromatic_density":0.857,"complexity":0.507,"dissonance":0.152},{"voice":1,"pitch":56,"start":127.5,"duration":0.5,"velocity":127,"measure":64,"beat":4.0,"subject_pos":-1,"motif":"","motif_pos":-1,"best_pos":4,"similarity":0.686,"stretto":false,"stretto_voices":0,"combination":[],"aug_dim":"","rhythm_ratio":1.0,"mirror":false,"chromatic_density":0.857,"complexity":0.507,"dissonance":0.152},{"voice":0,"pitch":62,"start":127.75,"duration":0.25,"velocity":127,"measure":64,"beat":4.5,"subject_pos":-1,"motif":"","motif_pos":-1,"best_pos":5,"similarity":0.493,"stretto":false,"stretto_voices":0,"combination":[],"aug_dim":"","rhythm_ratio":1.0,"mirror":false,"chromatic_density":0.857,"complexity":0.507,"dissonance":0.152},{"voice":0,"pitch":61,"start":128.0,"duration":0.5,"velocity":127,"measure":65,"beat":1.0,"subject_pos":-1,"motif":"","motif_pos":-1,"best_pos":4,"similarity":0.357,"stretto":false,"stretto_voices":0,"combination":[],"aug_dim":"","rhythm_ratio":1.0,"mirror":false,"chromatic_density":0.0,"complexity":0.498,"dissonance":0.038},{"voice":1,"pitch":57,"start":128.0,"duration":0.5,"velocity":127,"measure":65,"beat":1.0,"subject_pos":-1,"motif":"","motif_pos":-1,"best_pos":5,"similarity":0.461,"stretto":false,"stretto_voices":0,"combination":[],"aug_dim":"","rhythm_ratio":1.0,"mirror":false,"chromatic_density":0.0,"complexity":0.498,"dissonance":0.038},{"voice":2,"pitch":52,"start":128.0,"duration":0.5,"velocity":127,"measure":65,"beat":1.0,"subject_pos":-1,"motif":"","motif_pos":-1,"best_pos":4,"similarity":0.357,"stretto":false,"stretto_voices":0,"combination":[],"aug_dim":"","rhythm_ratio":1.0,"mirror":false,"chromatic_density":0.0,"complexity":0.498,"dissonance":0.038},{"voice":3,"pitch":45,"start":128.0,"duration":0.5,"velocity":127,"measure":65,"beat":1.0,"subject_pos":-1,"motif":"enigmatic_cell","motif_pos":2,"best_pos":2,"similarity":1.0,"stretto":false,"stretto_voices":0,"combination":[],"aug_dim":"","rhythm_ratio":1.0,"mirror":false,"chromatic_density":0.0,"complexity":0.498,"dissonance":0.038},{"voice":0,"pitch":76,"start":128.5,"duration":0.5,"velocity":127,"measure":65,"beat":2.0,"subject_pos":-1,"motif":"","motif_pos":-1,"best_pos":0,"similarity":0.464,"stretto":false,"stretto_voices":0,"combination":[],"aug_dim":"","rhythm_ratio":1.0,"mirror":false,"chromatic_density":0.0,"complexity":0.498,"dissonance":0.038},{"voice":0,"pitch":81,"start":129.0,"duration":0.75,"velocity":127,"measure":65,"beat":3.0,"subject_pos":-1,"motif":"","motif_pos":-1,"best_pos":1,"similarity":0.714,"stretto":false,"stretto_voices":0,"combination":[],"aug_dim":"","rhythm_ratio":1.0,"mirror":false,"chromatic_density":0.0,"complexity":0.498,"dissonance":0.038},{"voice":3,"pitch":57,"start":129.0,"duration":0.5,"velocity":127,"measure":65,"beat":3.0,"subject_pos":-1,"motif":"","motif_pos":-1,"best_pos":0,"similarity":0.464,"stretto":false,"stretto_voices":0,"combination":[],"aug_dim":"","rhythm_ratio":1.0,"mirror":false,"chromatic_density":0.0,"complexity":0.498,"dissonance":0.038},{"voice":1,"pitch":69,"start":129.5,"duration":0.5,"velocity":127,"measure":65,"beat":4.0,"subject_pos":-1,"motif":"","motif_pos":-1,"best_pos":0,"similarity":0.464,"stretto":false,"stretto_voices":0,"combination":[],"aug_dim":"","rhythm_ratio":1.0,"mirror":false,"chromatic_density":0.0,"complexity":0.498,"dissonance":0.038},{"voice":3,"pitch":62,"start":129.5,"duration":0.75,"velocity":127,"measure":65,"beat":4.0,"subject_pos":-1,"motif":"","motif_pos":-1,"best_pos":1,"similarity":0.714,"stretto":false,"stretto_voices":0,"combination":[],"aug_dim":"","rhythm_ratio":1.0,"mirror":false,"chromatic_density":0.0,"complexity":0.498,"dissonance":0.038},{"voice":0,"pitch":79,"start":129.75,"duration":0.25,"velocity":127,"measure":65,"beat":4.5,"subject_pos":-1,"motif":"","motif_pos":-1,"best_pos":2,"similarity":0.721,"stretto":false,"stretto_voices":0,"combination":[],"aug_dim":"","rhythm_ratio":1.0,"mirror":false,"chromatic_density":0.0,"complexity":0.498,"dissonance":0.038},{"voice":0,"pitch":77,"start":130.0,"duration":0.75,"velocity":127,"measure":66,"beat":1.0,"subject_pos":-1,"motif":"","motif_pos":-1,"best_pos":3,"similarity":0.664,"stretto":false,"stretto_voices":0,"combination":[],"aug_dim":"","rhythm_ratio":1.0,"mirror":false,"chromatic_density":0.333,"complexity":0.599,"dissonance":0.124},{"voice":1,"pitch":74,"start":130.0,"duration":0.75,"velocity":127,"measure":66,"beat":1.0,"subject_pos":-1,"motif":"","motif_pos":-1,"best_pos":1,"similarity":0.714,"stretto":false,"stretto_voices":0,"combination":[],"aug_dim":"","rhythm_ratio":1.0,"mirror":false,"chromatic_density":0.333,"complexity":0.599,"dissonance":0.124},{"voice":2,"pitch":62,"start":130.0,"duration":0.5,"velocity":127,"measure":66,"beat":1.0,"subject_pos":-1,"motif":"head","motif_pos":0,"best_pos":0,"similarity":1.0,"stretto":false,"stretto_voices":0,"combination":[],"aug_dim":"","rhythm_ratio":1.0,"mirror":false,"chromatic_density":0.333,"complexity":0.599,"dissonance":0.124},{"voice":3,"pitch":60,"start":130.25,"duration":0.25,"velocity":127,"measure":66,"beat":1.5,"subject_pos":-1,"motif":"","motif_pos":-1,"best_pos":2,"similarity":0.721,"stretto":false,"stretto_voices":0,"combination":[],"aug_dim":"","rhythm_ratio":1.0,"mirror":false,"chromatic_density":0.333,"complexity":0.599,"dissonance":0.124},{"voice":2,"pitch":67,"start":130.5,"duration":0.75,"velocity":127,"measure":66,"beat":2.0,"subject_pos":-1,"motif":"head","motif_pos":1,"best_pos":1,"similarity":1.0,"stretto":false,"stretto_voices":0,"combination":[],"aug_dim":"","rhythm_ratio":1.0,"mirror":false,"chromatic_density":0.333,"complexity":0.599,"dissonance":0.124},{"voice":3,"pitch":58,"start":130.5,"duration":0.75,"velocity":127,"measure":66,"beat":2.0,"subject_pos":-1,"motif":"","motif_pos":-1,"best_pos":3,"similarity":0.664,"stretto":false,"stretto_voices":0,"combination":[],"aug_dim":"","rhythm_ratio":1.0,"mirror":false,"chromatic_density":0.333,"complexity":0.599,"dissonance":0.124},{"voice":0,"pitch":76,"start":130.75,"duration":0.25,"velocity":127,"measure":66,"beat":2.5,"subject_pos":-1,"motif":"","motif_pos":-1,"best_pos":4,"similarity":0.479,"stretto":false,"stretto_voices":0,"combination":[],"aug_dim":"","rhythm_ratio":1.0,"mirror":false,"chromatic_density":0.333,"complexity":0.599,"dissonance":0.124},{"voice":1,"pitch":72,"start":130.75,"duration":0.25,"velocity":127,"measure":66,"beat":2.5,"subject_pos":-1,"motif":"","motif_pos":-1,"best_pos":2,"similarity":0.721,"stretto":false,"stretto_voices":0,"combination":[],"aug_dim":"","rhythm_ratio":1.0,"mirror":false,"chromatic_density":0.333,"complexity":0.599,"dissonance":0.124},{"voice":0,"pitch":74,"start":131.0,"duration":0.5,"velocity":127,"measure":66,"beat":3.0,"subject_pos":-1,"motif":"head","motif_pos":0,"best_pos":0,"similarity":1.0,"stretto":false,"stretto_voices":0,"combination":[],"aug_dim":"","rhythm_ratio":1.0,"mirror":false,"chromatic_density":0.333,"complexity":0.599,"dissonance":0.124},{"voice":1,"pitch":70,"start":131.0,"duration":0.75,"velocity":127,"measure":66,"beat":3.0,"subject_pos":-1,"motif":"","motif_pos":-1,"best_pos":3,"similarity":0.664,"stretto":false,"stretto_voices":0,"combination":[],"aug_dim":"","rhythm_ratio":1.0,"mirror":false,"chromatic_density":0.333,"complexity":0.599,"dissonance":0.124},{"voice":2,"pitch":65,"start":131.25,"duration":0.25,"velocity":127,"measure":66,"beat":3.5,"subject_pos":-1,"motif":"head","motif_pos":2,"best_pos":2,"similarity":1.0,"stretto":false,"stretto_voices":0,"combination":[],"aug_dim":"","rhythm_ratio":1.0,"mirror":false,"chromatic_density":0.333,"complexity":0.599,"dissonance":0.124},{"voice":3,"pitch":57,"start":131.25,"duration":0.25,"velocity":127,"measure":66,"beat":3.5,"subject_pos":-1,"motif":"","motif_pos":-1,"best_pos":4,"similarity":0.479,"stretto":false,"stretto_voices":0,"combination":[],"aug_dim":"","rhythm_ratio":1.0,"mirror":false,"chromatic_density":0.333,"complexity":0.599,"dissonance":0.124},{"voice":0,"pitch":79,"start":131.5,"duration":0.75,"velocity":127,"measure":66,"beat":4.0,"subject_pos":-1,"motif":"head","motif_pos":1,"best_pos":1,"similarity":1.0,"stretto":false,"stretto_voices":0,"combination":[],"aug_dim":"","rhythm_ratio":1.0,"mirror":false,"chromatic_density":0.333,"complexity":0.599,"dissonance":0.124},{"voice":2,"pitch":64,"start":131.5,"duration":0.75,"velocity":127,"measure":66,"beat":4.0,"subject_pos":-1,"motif":"head","motif_pos":3,"best_pos":3,"similarity":1.0,"stretto":false,"stretto_voices":0,"combination":[],"aug_dim":"","rhythm_ratio":1.0,"mirror":false,"chromatic_density":0.333,"complexity":0.599,"dissonance":0.124},{"voice":3,"pitch":55,"start":131.5,"duration":0.5,"velocity":127,"measure":66,"beat":4.0,"subject_pos":-1,"motif":"head","motif_pos":0,"best_pos":0,"similarity":1.0,"stretto":false,"stretto_voices":0,"combination":[],"aug_dim":"","rhythm_ratio":1.0,"mirror":false,"chromatic_density":0.333,"complexity":0.599,"dissonance":0.124},{"voice":1,"pitch":69,"start":131.75,"duration":0.25,"velocity":127,"measure":66,"beat":4.5,"subject_pos":-1,"motif":"","motif_pos":-1,"best_pos":4,"similarity":0.479,"stretto":false,"stretto_voices":0,"combination":[],"aug_dim":"","rhythm_ratio":1.0,"mirror":false,"chromatic_density":0.333,"complexity":0.599,"dissonance":0.124},{"voice":1,"pitch":67,"start":132.0,"duration":0.5,"velocity":127,"measure":67,"beat":1.0,"subject_pos":-1,"motif":"head","motif_pos":0,"best_pos":0,"similarity":1.0,"stretto":false,"stretto_voices":0,"combination":[],"aug_dim":"","rhythm_ratio":1.0,"mirror":false,"chromatic_density":0.333,"complexity":0.677,"dissonance":0.123},{"voice":3,"pitch":60,"start":132.0,"duration":0.75,"velocity":127,"measure":67,"beat":1.0,"subject_pos":-1,"motif":"head","motif_pos":1,"best_pos":1,"similarity":1.0,"stretto":false,"stretto_voices":0,"combination":[],"aug_dim":"","rhythm_ratio":1.0,"mirror":false,"chromatic_density":0.333,"complexity":0.677,"dissonance":0.123},{"voice":0,"pitch":77,"start":132.25,"duration":0.25,"velocity":127,"measure":67,"beat":1.5,"subject_pos":-1,"motif":"head","motif_pos":2,"best_pos":2,"similarity":1.0,"stretto":false,"stretto_voices":0,"combination":[],"aug_dim":"","rhythm_ratio":1.0,"mirror":false,"chromatic_density":0.333,"complexity":0.677,"dissonance":0.123},{"voice":2,"pitch":62,"start":132.25,"duration":0.25,"velocity":127,"measure":67,"beat":1.5,"subject_pos":-1,"motif":"head","motif_pos":4,"best_pos":4,"similarity":1.0,"stretto":false,"stretto_voices":0,"combination":[],"aug_dim":"","rhythm_ratio":1.0,"mirror":false,"chromatic_density":0.333,"complexity":0.677,"dissonance":0.123},{"voice":0,"pitch":76,"start":132.5,"duration":0.75,"velocity":127,"measure":67,"beat":2.0,"subject_pos":-1,"motif":"head","motif_pos":3,"best_pos":3,"similarity":1.0,"stretto":false,"stretto_voices":0,"combination":[],"aug_dim":"","rhythm_ratio":1.0,"mirror":false,"chromatic_density":0.333,"complexity":0.677,"dissonance":0.123},{"voice":1,"pitch":72,"start":132.5,"duration":0.75,"velocity":127,"measure":67,"beat":2.0,"subject_pos":-1,"motif":"head","motif_pos":1,"best_pos":1,"similarity":1.0,"stretto":false,"stretto_voices":0,"combination":[],"aug_dim":"","rhythm_ratio":1.0,"mirror":false,"chromatic_density":0.333,"complexity":0.677,"dissonance":0.123},{"voice":2,"pitch":60,"start":132.5,"duration":0.5,"velocity":127,"measure":67,"beat":2.0,"subject_pos":-1,"motif":"","motif_pos":-1,"best_pos":2,"similarity":0.436,"stretto":false,"stretto_voices":0,"combination":[],"aug_dim":"","rhythm_ratio":1.0,"mirror":false,"chromatic_density":0.333,"complexity":0.677,"dissonance":0.123},{"voice":3,"pitch":58,"start":132.75,"duration":0.25,"velocity":127,"measure":67,"beat":2.5,"subject_pos":-1,"motif":"head","motif_pos":2,"best_pos":2,"similarity":1.0,"stretto":false,"stretto_voices":0,"combination":[],"aug_dim":"","rhythm_ratio":1.0,"mirror":false,"chromatic_density":0.333,"complexity":0.677,"dissonance":0.123},{"voice":2,"pitch":65,"start":133.0,"duration":0.75,"velocity":127,"measure":67,"beat":3.0,"subject_pos":-1,"motif":"","motif_pos":-1,"best_pos":3,"similarity":0.514,"stretto":false,"stretto_voices":0,"combination":[],"aug_dim":"","rhythm_ratio":1.0,"mirror":false,"chromatic_density":0.333,"complexity":0.677,"dissonance":0.123},{"voice":3,"pitch":57,"start":133.0,"duration":0.75,"velocity":127,"measure":67,"beat":3.0,"subject_pos":-1,"motif":"head","motif_pos":3,"best_pos":3,"similarity":1.0,"stretto":false,"stretto_voices":0,"combination":[],"aug_dim":"","rhythm_ratio":1.0,"mirror":false,"chromatic_density":0.333,"complexity":0.677,"dissonance":0.123},{"voice":0,"pitch":74,"start":133.25,"duration":0.25,"velocity":127,"measure":67,"beat":3.5,"subject_pos":-1,"motif":"head","motif_pos":4,"best_pos":4,"similarity":1.0,"stretto":false,"stretto_voices":0,"combination":[],"aug_dim":"","rhythm_ratio":1.0,"mirror":false,"chromatic_density":0.333,"complexity":0.677,"dissonance":0.123},{"voice":1,"pitch":70,"start":133.25,"duration":0.25,"velocity":127,"measure":67,"beat":3.5,"subject_pos":-1,"motif":"head","motif_pos":2,"best_pos":2,"similarity":1.0,"stretto":false,"stretto_voices":0,"combination":[],"aug_dim":"","rhythm_ratio":1.0,"mirror":false,"chromatic_density":0.333,"complexity":0.677,"dissonance":0.123},{"voice":0,"pitch":72,"start":133.5,"duration":0.5,"velocity":127,"measure":67,"beat":4.0,"subject_pos":-1,"motif":"","motif_pos":-1,"best_pos":2,"similarity":0.436,"stretto":false,"stretto_voices":0,"combination":[],"aug_dim":"","rhythm_ratio":1.0,"mirror":false,"chromatic_density":0.333,"complexity":0.677,"dissonance":0.123},{"voice":1,"pitch":69,"start":133.5,"duration":0.75,"velocity":127,"measure":67,"beat":4.0,"subject_pos":-1,"motif":"head","motif_pos":3,"best_pos":3,"similarity":1.0,"stretto":false,"stretto_voices":0,"combination":[],"aug_dim":"","rhythm_ratio":1.0,"mirror":false,"chromatic_density":0.333,"complexity":0.677,"dissonance":0.123},{"voice":2,"pitch":64,"start":133.75,"duration":0.25,"velocity":127,"measure":67,"beat":4.5,"subject_pos":-1,"motif":"","motif_pos":-1,"best_pos":4,"similarity":0.536,"stretto":false,"stretto_voices":0,"combination":[],"aug_dim":"","rhythm_ratio":1.0,"mirror":false,"chromatic_density":0.333,"complexity":0.677,"dissonance":0.123},{"voice":3,"pitch":55,"start":133.75,"duration":0.25,"velocity":127,"measure":67,"beat":4.5,"subject_pos":-1,"motif":"head","motif_pos":4,"best_pos":4,"similarity":1.0,"stretto":false,"stretto_voices":0,"combination":[],"aug_dim":"","rhythm_ratio":1.0,"mirror":false,"chromatic_density":0.333,"complexity":0.677,"dissonance":0.123},{"voice":0,"pitch":77,"start":134.0,"duration":0.25,"velocity":127,"measure":68,"beat":1.0,"subject_pos":-1,"motif":"","motif_pos":-1,"best_pos":1,"similarity":0.5,"stretto":false,"stretto_voices":0,"combination":[],"aug_dim":"","rhythm_ratio":1.0,"mirror":false,"chromatic_density":0.267,"complexity":0.586,"dissonance":0.102},{"voice":2,"pitch":62,"start":134.0,"duration":1.5,"velocity":127,"measure":68,"beat":1.0,"subject_pos":-1,"motif":"","motif_pos":-1,"best_pos":5,"similarity":0.471,"stretto":false,"stretto_voices":0,"combination":[],"aug_dim":"","rhythm_ratio":1.0,"mirror":false,"chromatic_density":0.267,"complexity":0.586,"dissonance":0.102},{"voice":3,"pitch":53,"start":134.0,"duration":0.5,"velocity":127,"measure":68,"beat":1.0,"subject_pos":-1,"motif":"","motif_pos":-1,"best_pos":2,"similarity":0.436,"stretto":false,"stretto_voices":0,"combination":[],"aug_dim":"","rhythm_ratio":1.0,"mirror":false,"chromatic_density":0.267,"complexity":0.586,"dissonance":0.102},{"voice":0,"pitch":76,"start":134.25,"duration":0.25,"velocity":127,"measure":68,"beat":1.5,"subject_pos":-1,"motif":"","motif_pos":-1,"best_pos":2,"similarity":0.436,"stretto":false,"stretto_voices":0,"combination":[],"aug_dim":"","rhythm_ratio":1.0,"mirror":false,"chromatic_density":0.267,"complexity":0.586,"dissonance":0.102},{"voice":1,"pitch":67,"start":134.25,"duration":0.25,"velocity":127,"measure":68,"beat":1.5,"subject_pos":-1,"motif":"head","motif_pos":4,"best_pos":4,"similarity":1.0,"stretto":false,"stretto_voices":0,"combination":[],"aug_dim":"","rhythm_ratio":1.0,"mirror":false,"chromatic_density":0.267,"complexity":0.586,"dissonance":0.102},{"voice":0,"pitch":74,"start":134.5,"duration":0.5,"velocity":127,"measure":68,"beat":2.0,"subject_pos":-1,"motif":"","motif_pos":-1,"best_pos":0,"similarity":0.446,"stretto":false,"stretto_voices":0,"combination":[],"aug_dim":"","rhythm_ratio":1.0,"mirror":false,"chromatic_density":0.267,"complexity":0.586,"dissonance":0.102},{"voice":1,"pitch":65,"start":134.5,"duration":0.5,"velocity":127,"measure":68,"beat":2.0,"subject_pos":-1,"motif":"","motif_pos":-1,"best_pos":2,"similarity":0.436,"stretto":false,"stretto_voices":0,"combination":[],"aug_dim":"","rhythm_ratio":1.0,"mirror":false,"chromatic_density":0.267,"complexity":0.586,"dissonance":0.102},{"voice":3,"pitch":58,"start":134.5,"duration":0.25,"velocity":127,"measure":68,"beat":2.0,"subject_pos":-1,"motif":"","motif_pos":-1,"best_pos":1,"similarity":0.5,"stretto":false,"stretto_voices":0,"combination":[],"aug_dim":"","rhythm_ratio":1.0,"mirror":false,"chromatic_density":0.267,"complexity":0.586,"dissonance":0.102},{"voice":3,"pitch":57,"start":134.75,"duration":0.25,"velocity":127,"measure":68,"beat":2.5,"subject_pos":-1,"motif":"","motif_pos":-1,"best_pos":2,"similarity":0.436,"stretto":false,"stretto_voices":0,"combination":[],"aug_dim":"","rhythm_ratio":1.0,"mirror":false,"chromatic_density":0.267,"complexity":0.586,"dissonance":0.102},{"voice":0,"pitch":79,"start":135.0,"duration":0.25,"velocity":127,"measure":68,"beat":3.0,"subject_pos":-1,"motif":"","motif_pos":-1,"best_pos":1,"similarity":0.607,"stretto":false,"stretto_voices":0,"combination":[],"aug_dim":"","rhythm_ratio":1.0,"mirror":false,"chromatic_density":0.267,"complexity":0.586,"dissonance":0.102},{"voice":1,"pitch":70,"start":135.0,"duration":0.25,"velocity":127,"measure":68,"beat":3.0,"subject_pos":-1,"motif":"","motif_pos":-1,"best_pos":1,"similarity":0.5,"stretto":false,"stretto_voices":0,"combination":[],"aug_dim":"","rhythm_ratio":1.0,"mirror":false,"chromatic_density":0.267,"complexity":0.586,"dissonance":0.102},{"voice":3,"pitch":55,"start":135.0,"duration":0.5,"velocity":127,"measure":68,"beat":3.0,"subject_pos":-1,"motif":"head","motif_pos":0,"best_pos":0,"similarity":1.0,"stretto":false,"stretto_voices":0,"combination":[],"aug_dim":"","rhythm_ratio":1.0,"mirror":false,"chromatic_density":0.267,"complexity":0.586,"dissonance":0.102},{"voice":0,"pitch":77,"start":135.25,"duration":0.25,"velocity":127,"measure":68,"beat":3.5,"subject_pos":-1,"motif":"","motif_pos":-1,"best_pos":2,"similarity":0.5,"stretto":false,"stretto_voices":0,"combination":[],"aug_dim":"","rhythm_ratio":1.0,"mirror":false,"chromatic_density":0.267,"complexity":0.586,"dissonance":0.102},{"voice":1,"pitch":69,"start":135.25,"duration":0.25,"velocity":127,"measure":68,"beat":3.5,"subject_pos":-1,"motif":"","motif_pos":-1,"best_pos":2,"similarity":0.436,"stretto":false,"stretto_voices":0,"combination":[],"aug_dim":"","rhythm_ratio":1.0,"mirror":false,"chromatic_density":0.267,"complexity":0.586,"dissonance":0.102},{"voice":0,"pitch":76,"start":135.5,"duration":0.5,"velocity":127,"measure":68,"beat":4.0,"subject_pos":-1,"motif":"","motif_pos":-1,"best_pos":4,"similarity":0.421,"stretto":false,"stretto_voices":0,"combination":[],"aug_dim":"","rhythm_ratio":1.0,"mirror":false,"chromatic_density":0.267,"complexity":0.586,"dissonance":0.102},{"voice":1,"pitch":67,"start":135.5,"duration":0.5,"velocity":127,"measure":68,"beat":4.0,"subject_pos":-1,"motif":"","motif_pos":-1,"best_pos":0,"similarity":0.429,"stretto":false,"stretto_voices":0,"combination":[],"aug_dim":"","rhythm_ratio":1.0,"mirror":false,"chromatic_density":0.267,"complexity":0.586,"dissonance":0.102},{"voice":2,"pitch":64,"start":135.5,"duration":0.75,"velocity":127,"measure":68,"beat":4.0,"subject_pos":-1,"motif":"","motif_pos":-1,"best_pos":3,"similarity":0.429,"stretto":false,"stretto_voices":0,"combination":[],"aug_dim":"","rhythm_ratio":1.0,"mirror":false,"chromatic_density":0.267,"complexity":0.586,"dissonance":0.102},{"voice":3,"pitch":60,"start":135.5,"duration":0.25,"velocity":127,"measure":68,"beat":4.0,"subject_pos":-1,"motif":"head","motif_pos":1,"best_pos":1,"similarity":1.0,"stretto":false,"stretto_voices":0,"combination":[],"aug_dim":"","rhythm_ratio":1.0,"mirror":false,"chromatic_density":0.267,"complexity":0.586,"dissonance":0.102},{"voice":3,"pitch":58,"start":135.75,"duration":0.25,"velocity":127,"measure":68,"beat":4.5,"subject_pos":-1,"motif":"head","motif_pos":2,"best_pos":2,"similarity":1.0,"stretto":false,"stretto_voices":0,"combination":[],"aug_dim":"","rhythm_ratio":1.0,"mirror":false,"chromatic_density":0.267,"complexity":0.586,"dissonance":0.102},{"voice":0,"pitch":81,"start":136.0,"duration":1.0,"velocity":127,"measure":69,"beat":1.0,"subject_pos":0,"motif":"subject_inv","motif_pos":0,"best_pos":0,"similarity":1.0,"stretto":false,"stretto_voices":0,"combination":[],"aug_dim":"","rhythm_ratio":1.0,"mirror":false,"chromatic_density":0.2,"complexity":0.613,"dissonance":0.113},{"voice":1,"pitch":72,"start":136.0,"duration":0.25,"velocity":127,"measure":69,"beat":1.0,"subject_pos":-1,"motif":"","motif_pos":-1,"best_pos":1,"similarity":0.589,"stretto":false,"stretto_voices":0,"combination":[],"aug_dim":"","rhythm_ratio":1.0,"mirror":false,"chromatic_density":0.2,"complexity":0.613,"dissonance":0.113},{"voice":3,"pitch":57,"start":136.0,"duration":1.0,"velocity":127,"measure":69,"beat":1.0,"subject_pos":-1,"motif":"head","motif_pos":3,"best_pos":3,"similarity":1.0,"stretto":false,"stretto_voices":0,"combination":[],"aug_dim":"","rhythm_ratio":1.0,"mirror":false,"chromatic_density":0.2,"complexity":0.613,"dissonance":0.113},{"voice":1,"pitch":70,"start":136.25,"duration":0.25,"velocity":127,"measure":69,"beat":1.5,"subject_pos":-1,"motif":"","motif_pos":-1,"best_pos":2,"similarity":0.536,"stretto":false,"stretto_voices":0,"combination":[],"aug_dim":"","rhythm_ratio":1.0,"mirror":false,"chromatic_density":0.2,"complexity":0.613,"dissonance":0.113},{"voice":2,"pitch":62,"start":136.25,"duration":0.25,"velocity":127,"measure":69,"beat":1.5,"subject_pos":-1,"motif":"","motif_pos":-1,"best_pos":4,"similarity":0.571,"stretto":false,"stretto_voices":0,"combination":[],"aug_dim":"","rhythm_ratio":1.0,"mirror":false,"chromatic_density":0.2,"complexity":0.613,"dissonance":0.113},{"voice":1,"pitch":72,"start":136.5,"duration":0.75,"velocity":127,"measure":69,"beat":2.0,"subject_pos":-1,"motif":"","motif_pos":-1,"best_pos":3,"similarity":0.436,"stretto":false,"stretto_voices":0,"combination":[],"aug_dim":"","rhythm_ratio":1.0,"mirror":false,"chromatic_density":0.2,"complexity":0.613,"dissonance":0.113},{"voice":2,"pitch":64,"start":136.5,"duration":0.25,"velocity":127,"measure":69,"beat":2.0,"subject_pos":-1,"motif":"","motif_pos":-1,"best_pos":5,"similarity":0.643,"stretto":false,"stretto_voices":0,"combination":[],"aug_dim":"","rhythm_ratio":1.0,"mirror":false,"chromatic_density":0.2,"complexity":0.613,"dissonance":0.113},{"voice":2,"pitch":66,"start":136.75,"duration":0.25,"velocity":127,"measure":69,"beat":2.5,"subject_pos":-1,"motif":"","motif_pos":-1,"best_pos":6,"similarity":0.679,"stretto":false,"stretto_voices":0,"combination":[],"aug_dim":"","rhythm_ratio":1.0,"mirror":false,"chromatic_density":0.2,"complexity":0.613,"dissonance":0.113},{"voice":0,"pitch":74,"start":137.0,"duration":0.75,"velocity":127,"measure":69,"beat":3.0,"subject_pos":1,"motif":"subject_inv","motif_pos":1,"best_pos":1,"similarity":1.0,"stretto":false,"stretto_voices":0,"combination":[],"aug_dim":"","rhythm_ratio":1.0,"mirror":false,"chromatic_density":0.2,"complexity":0.613,"dissonance":0.113},{"voice":2,"pitch":67,"start":137.0,"duration":1.0,"velocity":127,"measure":69,"beat":3.0,"subject_pos":-1,"motif":"","motif_pos":-1,"best_pos":5,"similarity":0.586,"stretto":false,"stretto_voices":0,"combination":[],"aug_dim":"","rhythm_ratio":1.0,"mirror":false,"chromatic_density":0.2,"complexity":0.613,"dissonance":0.113},{"voice":3,"pitch":55,"start":137.0,"duration":1.0,"velocity":127,"measure":69,"beat":3.0,"subject_pos":-1,"motif":"head","motif_pos":4,"best_pos":4,"similarity":1.0,"stretto":false,"stretto_voices":0,"combination":[],"aug_dim":"","rhythm_ratio":1.0,"mirror":false,"chromatic_density":0.2,"complexity":0.613,"dissonance":0.113},{"voice":1,"pitch":69,"start":137.25,"duration":0.25,"velocity":127,"measure":69,"beat":3.5,"subject_pos":-1,"motif":"","motif_pos":-1,"best_pos":4,"similarity":0.45,"stretto":false,"stretto_voices":0,"combination":[],"aug_dim":"","rhythm_ratio":1.0,"mirror":false,"chromatic_density":0.2,"complexity":0.613,"dissonance":0.113},{"voice":1,"pitch":70,"start":137.5,"duration":0.5,"velocity":127,"measure":69,"beat":4.0,"subject_pos":-1,"motif":"","motif_pos":-1,"best_pos":3,"similarity":0.443,"stretto":false,"stretto_voices":0,"combination":[],"aug_dim":"","rhythm_ratio":1.0,"mirror":false,"chromatic_density":0.2,"complexity":0.613,"dissonance":0.113},{"voice":0,"pitch":76,"start":137.75,"duration":0.25,"velocity":127,"measure":69,"beat":4.5,"subject_pos":2,"motif":"subject_inv","motif_pos":2,"best_pos":2,"similarity":1.0,"stretto":false,"stretto_voices":0,"combination":[],"aug_dim":"","rhythm_ratio":1.0,"mirror":false,"chromatic_density":0.2,"complexity":0.613,"dissonance":0.113},{"voice":0,"pitch":77,"start":138.0,"duration":0.75,"velocity":127,"measure":70,"beat":1.0,"subject_pos":3,"motif":"subject_inv","motif_pos":3,"best_pos":3,"similarity":1.0,"stretto":true,"stretto_voices":2,"combination":[],"aug_dim":"","rhythm_ratio":1.0,"mirror":false,"chromatic_density":0.273,"complexity":0.626,"dissonance":0.111},{"voice":1,"pitch":69,"start":138.0,"duration":0.25,"velocity":127,"measure":70,"beat":1.0,"subject_pos":-1,"motif":"","motif_pos":-1,"best_pos":4,"similarity":0.471,"stretto":false,"stretto_voices":0,"combination":[],"aug_dim":"","rhythm_ratio":1.0,"mirror":false,"chromatic_density":0.273,"complexity":0.626,"dissonance":0.111},{"voice":2,"pitch":69,"start":138.0,"duration":1.0,"velocity":127,"measure":70,"beat":1.0,"subject_pos":0,"motif":"subject_inv","motif_pos":0,"best_pos":0,"similarity":1.0,"stretto":true,"stretto_voices":2,"combination":[],"aug_dim":"","rhythm_ratio":1.0,"mirror":false,"chromatic_density":0.273,"complexity":0.626,"dissonance":0.111},{"voice":3,"pitch":50,"start":138.0,"duration":1.0,"velocity":127,"measure":70,"beat":1.0,"subject_pos":-1,"motif":"","motif_pos":-1,"best_pos":3,"similarity":0.236,"stretto":false,"stretto_voices":0,"combination":[],"aug_dim":"","rhythm_ratio":1.0,"mirror":false,"chromatic_density":0.273,"complexity":0.626,"dissonance":0.111},{"voice":1,"pitch":73,"start":138.25,"duration":0.25,"velocity":127,"measure":70,"beat":1.5,"subject_pos":-1,"motif":"","motif_pos":-1,"best_pos":4,"similarity":0.543,"stretto":false,"stretto_voices":0,"combination":[],"aug_dim":"","rhythm_ratio":1.0,"mirror":false,"chromatic_density":0.273,"complexity":0.626,"dissonance":0.111},{"voice":1,"pitch":74,"start":138.5,"duration":0.25,"velocity":127,"measure":70,"beat":2.0,"subject_pos":-1,"motif":"","motif_pos":-1,"best_pos":5,"similarity":0.732,"stretto":false,"stretto_voices":0,"combination":[],"aug_dim":"","rhythm_ratio":1.0,"mirror":false,"chromatic_density":0.273,"complexity":0.626,"dissonance":0.111},{"voice":0,"pitch":79,"start":138.75,"duration":0.25,"velocity":127,"measure":70,"beat":2.5,"subject_pos":4,"motif":"subject_inv","motif_pos":4,"best_pos":4,"similarity":1.0,"stretto":true,"stretto_voices":2,"combination":[],"aug_dim":"","rhythm_ratio":1.0,"mirror":false,"chromatic_density":0.273,"complexity":0.626,"dissonance":0.111},{"voice":1,"pitch":76,"start":138.75,"duration":0.25,"velocity":127,"measure":70,"beat":2.5,"subject_pos":-1,"motif":"","motif_pos":-1,"best_pos":6,"similarity":0.714,"stretto":false,"stretto_voices":0,"combination":[],"aug_dim":"","rhythm_ratio":1.0,"mirror":false,"chromatic_density":0.273,"complexity":0.626,"dissonance":0.111},{"voice":0,"pitch":81,"start":139.0,"duration":1.0,"velocity":127,"measure":70,"beat":3.0,"subject_pos":5,"motif":"subject_inv","motif_pos":5,"best_pos":5,"similarity":1.0,"stretto":true,"stretto_voices":2,"combination":[],"aug_dim":"","rhythm_ratio":1.0,"mirror":false,"chromatic_density":0.273,"complexity":0.626,"dissonance":0.111},{"voice":1,"pitch":77,"start":139.0,"duration":1.0,"velocity":127,"measure":70,"beat":3.0,"subject_pos":-1,"motif":"","motif_pos":-1,"best_pos":7,"similarity":0.5,"stretto":false,"stretto_voices":0,"combination":[],"aug_dim":"","rhythm_ratio":1.0,"mirror":false,"chromatic_density":0.273,"complexity":0.626,"dissonance":0.111},{"voice":2,"pitch":62,"start":139.0,"duration":0.75,"velocity":127,"measure":70,"beat":3.0,"subject_pos":1,"motif":"subject_inv","motif_pos":1,"best_pos":1,"similarity":1.0,"stretto":true,"stretto_voices":2,"combination":[],"aug_dim":"","rhythm_ratio":1.0,"mirror":false,"chromatic_density":0.273,"complexity":0.626,"dissonance":0.111},{"voice":3,"pitch":67,"start":139.25,"duration":0.25,"velocity":127,"measure":70,"beat":3.5,"subject_pos":-1,"motif":"","motif_pos":-1,"best_pos":1,"similarity":0.357,"stretto":false,"stretto_voices":0,"combination":[],"aug_dim":"","rhythm_ratio":1.0,"mirror":false,"chromatic_density":0.273,"complexity":0.626,"dissonance":0.111},{"voice":3,"pitch":65,"start":139.5,"duration":0.25,"velocity":127,"measure":70,"beat":4.0,"subject_pos":-1,"motif":"","motif_pos":-1,"best_pos":3,"similarity":0.45,"stretto":false,"stretto_voices":0,"combination":[],"aug_dim":"","rhythm_ratio":1.0,"mirror":false,"chromatic_density":0.273,"complexity":0.626,"dissonance":0.111},{"voice":2,"pitch":64,"start":139.75,"duration":0.25,"velocity":127,"measure":70,"beat":4.5,"subject_pos":2,"motif":"subject_inv","motif_pos":2,"best_pos":2,"similarity":1.0,"stretto":true,"stretto_voices":2,"combination":[],"aug_dim":"","rhythm_ratio":1.0,"mirror":false,"chromatic_density":0.273,"complexity":0.626,"dissonance":0.111},{"voice":3,"pitch":64,"start":139.75,"duration":0.25,"velocity":127,"measure":70,"beat":4.5,"subject_pos":-1,"motif":"","motif_pos":-1,"best_pos":2,"similarity":0.5,"stretto":false,"stretto_voices":0,"combination":[],"aug_dim":"","rhythm_ratio":1.0,"mirror":false,"chromatic_density":0.273,"complexity":0.626,"dissonance":0.111},{"voice":0,"pitch":82,"start":140.0,"duration":1.0,"velocity":127,"measure":71,"beat":1.0,"subject_pos":6,"motif":"subject_inv","motif_pos":6,"best_pos":6,"similarity":1.0,"stretto":true,"stretto_voices":2,"combination":[],"aug_dim":"","rhythm_ratio":1.0,"mirror":false,"chromatic_density":0.3,"complexity":0.63,"dissonance":0.084},{"voice":2,"pitch":65,"start":140.0,"duration":0.75,"velocity":127,"measure":71,"beat":1.0,"subject_pos":3,"motif":"subject_inv","motif_pos":3,"best_pos":3,"similarity":1.0,"stretto":true,"stretto_voices":2,"combination":[],"aug_dim":"","rhythm_ratio":1.0,"mirror":false,"chromatic_density":0.3,"complexity":0.63,"dissonance":0.084},{"voice":3,"pitch":62,"start":140.0,"duration":1.5,"velocity":127,"measure":71,"beat":1.0,"subject_pos":-1,"motif":"","motif_pos":-1,"best_pos":3,"similarity":0.643,"stretto":false,"stretto_voices":0,"combination":[],"aug_dim":"","rhythm_ratio":1.0,"mirror":false,"chromatic_density":0.3,"complexity":0.63,"dissonance":0.084},{"voice":1,"pitch":81,"start":140.25,"duration":0.25,"velocity":127,"measure":71,"beat":1.5,"subject_pos":-1,"motif":"","motif_pos":-1,"best_pos":1,"similarity":0.571,"stretto":false,"stretto_voices":0,"combination":[],"aug_dim":"","rhythm_ratio":1.0,"mirror":false,"chromatic_density":0.3,"complexity":0.63,"dissonance":0.084},{"voice":1,"pitch":79,"start":140.5,"duration":0.25,"velocity":127,"measure":71,"beat":2.0,"subject_pos":-1,"motif":"","motif_pos":-1,"best_pos":2,"similarity":0.65,"stretto":false,"stretto_voices":0,"combination":[],"aug_dim":"","rhythm_ratio":1.0,"mirror":false,"chromatic_density":0.3,"complexity":0.63,"dissonance":0.084},{"voice":1,"pitch":77,"start":140.75,"duration":0.25,"velocity":127,"measure":71,"beat":2.5,"subject_pos":-1,"motif":"","motif_pos":-1,"best_pos":3,"similarity":0.693,"stretto":false,"stretto_voices":0,"combination":[],"aug_dim":"","rhythm_ratio":1.0,"mirror":false,"chromatic_density":0.3,"complexity":0.63,"dissonance":0.084},{"voice":2,"pitch":67,"start":140.75,"duration":0.25,"velocity":127,"measure":71,"beat":2.5,"subject_pos":4,"motif":"subject_inv","motif_pos":4,"best_pos":4,"similarity":1.0,"stretto":true,"stretto_voices":2,"combination":[],"aug_dim":"","rhythm_ratio":1.0,"mirror":false,"chromatic_density":0.3,"complexity":0.63,"dissonance":0.084},{"voice":0,"pitch":81,"start":141.0,"duration":0.75,"velocity":127,"measure":71,"beat":3.0,"subject_pos":7,"motif":"subject_inv","motif_pos":7,"best_pos":7,"similarity":1.0,"stretto":true,"stretto_voices":2,"combination":[],"aug_dim":"","rhythm_ratio":1.0,"mirror":false,"chromatic_density":0.3,"complexity":0.63,"dissonance":0.084},{"voice":1,"pitch":76,"start":141.0,"duration":0.25,"velocity":127,"measure":71,"beat":3.0,"subject_pos":-1,"motif":"","motif_pos":-1,"best_pos":4,"similarity":0.607,"stretto":false,"stretto_voices":0,"combination":[],"aug_dim":"","rhythm_ratio":1.0,"mirror":false,"chromatic_density":0.3,"complexity":0.63,"dissonance":0.084},{"voice":2,"pitch":69,"start":141.0,"duration":1.0,"velocity":127,"measure":71,"beat":3.0,"subject_pos":5,"motif":"subject_inv","motif_pos":5,"best_pos":5,"similarity":1.0,"stretto":true,"stretto_voices":2,"combination":[],"aug_dim":"","rhythm_ratio":1.0,"mirror":false,"chromatic_density":0.3,"complexity":0.63,"dissonance":0.084},{"voice":1,"pitch":74,"start":141.25,"duration":0.25,"velocity":127,"measure":71,"beat":3.5,"subject_pos":-1,"motif":"","motif_pos":-1,"best_pos":5,"similarity":0.507,"stretto":false,"stretto_voices":0,"combination":[],"aug_dim":"","rhythm_ratio":1.0,"mirror":false,"chromatic_density":0.3,"complexity":0.63,"dissonance":0.084},{"voice":1,"pitch":76,"start":141.5,"duration":0.5,"velocity":127,"measure":71,"beat":4.0,"subject_pos":-1,"motif":"","motif_pos":-1,"best_pos":6,"similarity":0.4,"stretto":false,"stretto_voices":0,"combination":[],"aug_dim":"","rhythm_ratio":1.0,"mirror":false,"chromatic_density":0.3,"complexity":0.63,"dissonance":0.084},{"voice":3,"pitch":61,"start":141.5,"duration":0.5,"velocity":127,"measure":71,"beat":4.0,"subject_pos":-1,"motif":"enigmatic_cell","motif_pos":0,"best_pos":0,"similarity":1.0,"stretto":false,"stretto_voices":0,"combination":[],"aug_dim":"","rhythm_ratio":1.0,"mirror":false,"chromatic_density":0.3,"complexity":0.63,"dissonance":0.084},{"voice":0,"pitch":79,"start":141.75,"duration":0.25,"velocity":127,"measure":71,"beat":4.5,"subject_pos":8,"motif":"subject_inv","motif_pos":8,"best_pos":0,"similarity":1.0,"stretto":true,"stretto_voices":2,"combination":[],"aug_dim":"","rhythm_ratio":1.0,"mirror":false,"chromatic_density":0.3,"complexity":0.63,"dissonance":0.084},{"voice":0,"pitch":77,"start":142.0,"duration":1.25,"velocity":127,"measure":72,"beat":1.0,"subject_pos":-1,"motif":"","motif_pos":-1,"best_pos":3,"similarity":0.786,"stretto":false,"stretto_voices":0,"combination":[],"aug_dim":"","rhythm_ratio":1.0,"mirror":false,"chromatic_density":0.333,"complexity":0.708,"dissonance":0.042},{"voice":1,"pitch":74,"start":142.0,"duration":1.0,"velocity":127,"measure":72,"beat":1.0,"subject_pos":-1,"motif":"","motif_pos":-1,"best_pos":2,"similarity":0.307,"stretto":false,"stretto_voices":0,"combination":[],"aug_dim":"","rhythm_ratio":1.0,"mirror":false,"chromatic_density":0.333,"complexity":0.708,"dissonance":0.042},{"voice":2,"pitch":70,"start":142.0,"duration":1.0,"velocity":127,"measure":72,"beat":1.0,"subject_pos":6,"motif":"subject_inv","motif_pos":6,"best_pos":6,"similarity":1.0,"stretto":true,"stretto_voices":2,"combination":[],"aug_dim":"","rhythm_ratio":1.0,"mirror":false,"chromatic_density":0.333,"complexity":0.708,"dissonance":0.042},{"voice":3,"pitch":62,"start":142.0,"duration":0.25,"velocity":127,"measure":72,"beat":1.0,"subject_pos":-1,"motif":"enigmatic_cell","motif_pos":1,"best_pos":1,"similarity":1.0,"stretto":false,"stretto_voices":0,"combination":[],"aug_dim":"","rhythm_ratio":1.0,"mirror":false,"chromatic_density":0.333,"complexity":0.708,"dissonance":0.042},{"voice":3,"pitch":55,"start":142.25,"duration":0.25,"velocity":127,"measure":72,"beat":1.5,"subject_pos":-1,"motif":"enigmatic_cell","motif_pos":2,"best_pos":2,"similarity":1.0,"stretto":false,"stretto_voices":0,"combination":[],"aug_dim":"","rhythm_ratio":1.0,"mirror":false,"chromatic_density":0.333,"complexity":0.708,"dissonance":0.042},{"voice":3,"pitch":57,"start":142.5,"duration":0.25,"velocity":127,"measure":72,"beat":2.0,"subject_pos":0,"motif":"subject_inv","motif_pos":0,"best_pos":0,"similarity":1.0,"stretto":true,"stretto_voices":2,"combination":[],"aug_dim":"","rhythm_ratio":1.0,"mirror":false,"chromatic_density":0.333,"complexity":0.708,"dissonance":0.042},{"voice":3,"pitch":58,"start":142.75,"duration":0.25,"velocity":127,"measure":72,"beat":2.5,"subject_pos":-1,"motif":"subject_inv","motif_pos":0,"best_pos":0,"similarity":1.0,"stretto":true,"stretto_voices":2,"combination":[],"aug_dim":"","rhythm_ratio":1.0,"mirror":false,"chromatic_density":0.333,"complexity":0.708,"dissonance":0.042},{"voice":2,"pitch":69,"start":143.0,"duration":0.75,"velocity":127,"measure":72,"beat":3.0,"subject_pos":7,"motif":"subject_inv","motif_pos":7,"best_pos":7,"similarity":1.0,"stretto":true,"stretto_voices":2,"combination":[],"aug_dim":"","rhythm_ratio":1.0,"mirror":false,"chromatic_density":0.333,"complexity":0.708,"dissonance":0.042},{"voice":3,"pitch":60,"start":143.0,"duration":0.25,"velocity":127,"measure":72,"beat":3.0,"subject_pos":-1,"motif":"subject_inv","motif_pos":0,"best_pos":0,"similarity":1.0,"stretto":true,"stretto_voices":2,"combination":[],"aug_dim":"","rhythm_ratio":1.0,"mirror":false,"chromatic_density":0.333,"complexity":0.708,"dissonance":0.042},{"voice":0,"pitch":76,"start":143.25,"duration":0.25,"velocity":127,"measure":72,"beat":3.5,"subject_pos":-1,"motif":"","motif_pos":-1,"best_pos":4,"similarity":0.893,"stretto":false,"stretto_voices":0,"combination":[],"aug_dim":"","rhythm_ratio":1.0,"mirror":false,"chromatic_density":0.333,"complexity":0.708,"dissonance":0.042},{"voice":3,"pitch":48,"start":143.25,"duration":0.25,"velocity":127,"measure":72,"beat":3.5,"subject_pos":-1,"motif":"subject_inv","motif_pos":0,"best_pos":0,"similarity":1.0,"stretto":true,"stretto_voices":2,"combination":[],"aug_dim":"diminution","rhythm_ratio":0.41,"mirror":false,"chromatic_density":0.333,"complexity":0.708,"dissonance":0.042},{"voice":0,"pitch":77,"start":143.5,"duration":0.25,"velocity":127,"measure":72,"beat":4.0,"subject_pos":-1,"motif":"","motif_pos":-1,"best_pos":5,"similarity":0.821,"stretto":false,"stretto_voices":0,"combination":[],"aug_dim":"","rhythm_ratio":1.0,"mirror":false,"chromatic_density":0.333,"complexity":0.708,"dissonance":0.042},{"voice":3,"pitch":50,"start":143.5,"duration":0.25,"velocity":127,"measure":72,"beat":4.0,"subject_pos":1,"motif":"subject_inv","motif_pos":1,"best_pos":1,"similarity":1.0,"stretto":true,"stretto_voices":2,"combination":[],"aug_dim":"diminution","rhythm_ratio":0.41,"mirror":false,"chromatic_density":0.333,"complexity":0.708,"dissonance":0.042},{"voice":0,"pitch":79,"start":143.75,"duration":0.25,"velocity":127,"measure":72,"beat":4.5,"subject_pos":-1,"motif":"","motif_pos":-1,"best_pos":6,"similarity":0.643,"stretto":false,"stretto_voices":0,"combination":[],"aug_dim":"","rhythm_ratio":1.0,"mirror":false,"chromatic_density":0.333,"complexity":0.708,"dissonance":0.042},{"voice":2,"pitch":67,"start":143.75,"duration":0.25,"velocity":127,"measure":72,"beat":4.5,"subject_pos":8,"motif":"subject_inv","motif_pos":8,"best_pos":0,"similarity":1.0,"stretto":true,"stretto_voices":2,"combination":[],"aug_dim":"","rhythm_ratio":1.0,"mirror":false,"chromatic_density":0.333,"complexity":0.708,"dissonance":0.042},{"voice":3,"pitch":52,"start":143.75,"duration":0.25,"velocity":127,"measure":72,"beat":4.5,"subject_pos":2,"motif":"subject_inv","motif_pos":2,"best_pos":2,"similarity":1.0,"stretto":true,"stretto_voices":2,"combination":[],"aug_dim":"diminution","rhythm_ratio":0.41,"mirror":false,"chromatic_density":0.333,"complexity":0.708,"dissonance":0.042},{"voice":0,"pitch":81,"start":144.0,"duration":0.25,"velocity":127,"measure":73,"beat":1.0,"subject_pos":-1,"motif":"","motif_pos":-1,"best_pos":6,"similarity":0.404,"stretto":false,"stretto_voices":0,"combination":[],"aug_dim":"","rhythm_ratio":1.0,"mirror":false,"chromatic_density":0.231,"complexity":0.579,"dissonance":0.096},{"voice":2,"pitch":65,"start":144.0,"duration":1.25,"velocity":127,"measure":73,"beat":1.0,"subject_pos":-1,"motif":"","motif_pos":-1,"best_pos":3,"similarity":0.679,"stretto":false,"stretto_voices":0,"combination":[],"aug_dim":"","rhythm_ratio":1.0,"mirror":false,"chromatic_density":0.231,"complexity":0.579,"dissonance":0.096},{"voice":3,"pitch":53,"start":144.0,"duration":0.25,"velocity":127,"measure":73,"beat":1.0,"subject_pos":3,"motif":"subject_inv","motif_pos":3,"best_pos":3,"similarity":1.0,"stretto":false,"stretto_voices":0,"combination":[],"aug_dim":"diminution","rhythm_ratio":0.41,"mirror":false,"chromatic_density":0.231,"complexity":0.579,"dissonance":0.096},{"voice":0,"pitch":79,"start":144.25,"duration":0.25,"velocity":127,"measure":73,"beat":1.5,"subject_pos":-1,"motif":"","motif_pos":-1,"best_pos":2,"similarity":0.443,"stretto":false,"stretto_voices":0,"combination":[],"aug_dim":"","rhythm_ratio":1.0,"mirror":false,"chromatic_density":0.231,"complexity":0.579,"dissonance":0.096},{"voice":3,"pitch":55,"start":144.25,"duration":0.25,"velocity":127,"measure":73,"beat":1.5,"subject_pos":4,"motif":"subject_inv","motif_pos":4,"best_pos":4,"similarity":1.0,"stretto":false,"stretto_voices":0,"combination":[],"aug_dim":"diminution","rhythm_ratio":0.41,"mirror":false,"chromatic_density":0.231,"complexity":0.579,"dissonance":0.096},{"voice":0,"pitch":77,"start":144.5,"duration":0.25,"velocity":127,"measure":73,"beat":2.0,"subject_pos":-1,"motif":"","motif_pos":-1,"best_pos":3,"similarity":0.293,"stretto":false,"stretto_voices":0,"combination":[],"aug_dim":"","rhythm_ratio":1.0,"mirror":false,"chromatic_density":0.231,"complexity":0.579,"dissonance":0.096},{"voice":3,"pitch":57,"start":144.5,"duration":0.25,"velocity":127,"measure":73,"beat":2.0,"subject_pos":5,"motif":"subject_inv","motif_pos":5,"best_pos":5,"similarity":1.0,"stretto":false,"stretto_voices":0,"combination":[],"aug_dim":"diminution","rhythm_ratio":0.41,"mirror":false,"chromatic_density":0.231,"complexity":0.579,"dissonance":0.096},{"voice":0,"pitch":81,"start":144.75,"duration":0.25,"velocity":127,"measure":73,"beat":2.5,"subject_pos":-1,"motif":"","motif_pos":-1,"best_pos":1,"similarity":0.25,"stretto":false,"stretto_voices":0,"combination":[],"aug_dim":"","rhythm_ratio":1.0,"mirror":false,"chromatic_density":0.231,"complexity":0.579,"dissonance":0.096},{"voice":3,"pitch":53,"start":144.75,"duration":0.25,"velocity":127,"measure":73,"beat":2.5,"subject_pos":-1,"motif":"subject_inv","motif_pos":5,"best_pos":5,"similarity":1.0,"stretto":false,"stretto_voices":0,"combination":[],"aug_dim":"diminution","rhythm_ratio":0.41,"mirror":false,"chromatic_density":0.231,"complexity":0.579,"dissonance":0.096},{"voice":0,"pitch":74,"start":145.0,"duration":1.25,"velocity":127,"measure":73,"beat":3.0,"subject_pos":-1,"motif":"","motif_pos":-1,"best_pos":1,"similarity":0.321,"stretto":false,"stretto_voices":0,"combination":[],"aug_dim":"","rhythm_ratio":1.0,"mirror":false,"chromatic_density":0.231,"complexity":0.579,"dissonance":0.096},{"voice":3,"pitch":58,"start":145.0,"duration":0.5,"velocity":127,"measure":73,"beat":3.0,"subject_pos":6,"motif":"subject_inv","motif_pos":6,"best_pos":6,"similarity":1.0,"stretto":false,"stretto_voices":0,"combination":[],"aug_dim":"diminution","rhythm_ratio":0.41,"mirror":false,"chromatic_density":0.231,"complexity":0.579,"dissonance":0.096},{"voice":2,"pitch":64,"start":145.25,"duration":0.25,"velocity":127,"measure":73,"beat":3.5,"subject_pos":-1,"motif":"","motif_pos":-1,"best_pos":4,"similarity":0.679,"stretto":false,"stretto_voices":0,"combination":[],"aug_dim":"","rhythm_ratio":1.0,"mirror":false,"chromatic_density":0.231,"complexity":0.579,"dissonance":0.096},{"voice":2,"pitch":66,"start":145.5,"duration":0.25,"velocity":127,"measure":73,"beat":4.0,"subject_pos":-1,"motif":"","motif_pos":-1,"best_pos":6,"similarity":0.643,"stretto":false,"stretto_voices":0,"combination":[],"aug_dim":"","rhythm_ratio":1.0,"mirror":false,"chromatic_density":0.231,"complexity":0.579,"dissonance":0.096},{"voice":3,"pitch":57,"start":145.5,"duration":0.25,"velocity":127,"measure":73,"beat":4.0,"subject_pos":7,"motif":"subject_inv","motif_pos":7,"best_pos":7,"similarity":1.0,"stretto":false,"stretto_voices":0,"combination":[],"aug_dim":"diminution","rhythm_ratio":0.41,"mirror":false,"chromatic_density":0.231,"complexity":0.579,"dissonance":0.096},{"voice":2,"pitch":67,"start":145.75,"duration":0.25,"velocity":127,"measure":73,"beat":4.5,"subject_pos":-1,"motif":"","motif_pos":-1,"best_pos":5,"similarity":0.618,"stretto":false,"stretto_voices":0,"combination":[],"aug_dim":"","rhythm_ratio":1.0,"mirror":false,"chromatic_density":0.231,"complexity":0.579,"dissonance":0.096},{"voice":3,"pitch":55,"start":145.75,"duration":0.25,"velocity":127,"measure":73,"beat":4.5,"subject_pos":8,"motif":"subject_inv","motif_pos":8,"best_pos":0,"similarity":1.0,"stretto":false,"stretto_voices":0,"combination":[],"aug_dim":"diminution","rhythm_ratio":0.41,"mirror":false,"chromatic_density":0.231,"complexity":0.579,"dissonance":0.096},{"voice":2,"pitch":69,"start":146.0,"duration":0.25,"velocity":127,"measure":74,"beat":1.0,"subject_pos":-1,"motif":"","motif_pos":-1,"best_pos":6,"similarity":0.464,"stretto":false,"stretto_voices":0,"combination":[],"aug_dim":"","rhythm_ratio":1.0,"mirror":false,"chromatic_density":0.25,"complexity":0.488,"dissonance":0.173},{"voice":3,"pitch":54,"start":146.0,"duration":0.5,"velocity":127,"measure":74,"beat":1.0,"subject_pos":-1,"motif":"","motif_pos":-1,"best_pos":4,"similarity":0.536,"stretto":false,"stretto_voices":0,"combination":[],"aug_dim":"","rhythm_ratio":1.0,"mirror":false,"chromatic_density":0.25,"complexity":0.488,"dissonance":0.173},{"voice":0,"pitch":70,"start":146.25,"duration":0.25,"velocity":127,"measure":74,"beat":1.5,"subject_pos":-1,"motif":"","motif_pos":-1,"best_pos":2,"similarity":0.375,"stretto":false,"stretto_voices":0,"combination":[],"aug_dim":"","rhythm_ratio":1.0,"mirror":false,"chromatic_density":0.25,"complexity":0.488,"dissonance":0.173},{"voice":2,"pitch":67,"start":146.25,"duration":0.25,"velocity":127,"measure":74,"beat":1.5,"subject_pos":-1,"motif":"","motif_pos":-1,"best_pos":3,"similarity":0.486,"stretto":false,"stretto_voices":0,"combination":[],"aug_dim":"","rhythm_ratio":1.0,"mirror":false,"chromatic_density":0.25,"complexity":0.488,"dissonance":0.173},{"voice":0,"pitch":72,"start":146.5,"duration":1.0,"velocity":127,"measure":74,"beat":2.0,"subject_pos":-1,"motif":"","motif_pos":-1,"best_pos":1,"similarity":0.35,"stretto":false,"stretto_voices":0,"combination":[],"aug_dim":"","rhythm_ratio":1.0,"mirror":false,"chromatic_density":0.25,"complexity":0.488,"dissonance":0.173},{"voice":2,"pitch":66,"start":146.5,"duration":0.25,"velocity":127,"measure":74,"beat":2.0,"subject_pos":-1,"motif":"","motif_pos":-1,"best_pos":4,"similarity":0.443,"stretto":false,"stretto_voices":0,"combination":[],"aug_dim":"","rhythm_ratio":1.0,"mirror":false,"chromatic_density":0.25,"complexity":0.488,"dissonance":0.173},{"voice":3,"pitch":57,"start":146.5,"duration":0.5,"velocity":127,"measure":74,"beat":2.0,"subject_pos":-1,"motif":"","motif_pos":-1,"best_pos":6,"similarity":0.5,"stretto":false,"stretto_voices":0,"combination":[],"aug_dim":"","rhythm_ratio":1.0,"mirror":false,"chromatic_density":0.25,"complexity":0.488,"dissonance":0.173},{"voice":2,"pitch":69,"start":146.75,"duration":0.25,"velocity":127,"measure":74,"beat":2.5,"subject_pos":-1,"motif":"","motif_pos":-1,"best_pos":5,"similarity":0.264,"stretto":false,"stretto_voices":0,"combination":[],"aug_dim":"","rhythm_ratio":1.0,"mirror":false,"chromatic_density":0.25,"complexity":0.488,"dissonance":0.173},{"voice":2,"pitch":62,"start":147.0,"duration":0.5,"velocity":127,"measure":74,"beat":3.0,"subject_pos":-1,"motif":"","motif_pos":-1,"best_pos":0,"similarity":0.329,"stretto":false,"stretto_voices":0,"combination":[],"aug_dim":"","rhythm_ratio":1.0,"mirror":false,"chromatic_density":0.25,"complexity":0.488,"dissonance":0.173},{"voice":3,"pitch":58,"start":147.0,"duration":0.25,"velocity":127,"measure":74,"beat":3.0,"subject_pos":-1,"motif":"","motif_pos":-1,"best_pos":5,"similarity":0.461,"stretto":false,"stretto_voices":0,"combination":[],"aug_dim":"","rhythm_ratio":1.0,"mirror":false,"chromatic_density":0.25,"complexity":0.488,"dissonance":0.173},{"voice":3,"pitch":45,"start":147.25,"duration":0.25,"velocity":127,"measure":74,"beat":3.5,"subject_pos":-1,"motif":"","motif_pos":-1,"best_pos":4,"similarity":0.479,"stretto":false,"stretto_voices":0,"combination":[],"aug_dim":"","rhythm_ratio":1.0,"mirror":false,"chromatic_density":0.25,"complexity":0.488,"dissonance":0.173},{"voice":0,"pitch":70,"start":147.5,"duration":0.5,"velocity":127,"measure":74,"beat":4.0,"subject_pos":-1,"motif":"","motif_pos":-1,"best_pos":3,"similarity":0.45,"stretto":false,"stretto_voices":0,"combination":[],"aug_dim":"","rhythm_ratio":1.0,"mirror":false,"chromatic_density":0.25,"complexity":0.488,"dissonance":0.173},{"voice":2,"pitch":67,"start":147.5,"duration":0.75,"velocity":127,"measure":74,"beat":4.0,"subject_pos":-1,"motif":"","motif_pos":-1,"best_pos":1,"similarity":0.379,"stretto":false,"stretto_voices":0,"combination":[],"aug_dim":"","rhythm_ratio":1.0,"mirror":false,"chromatic_density":0.25,"complexity":0.488,"dissonance":0.173},{"voice":3,"pitch":46,"start":147.5,"duration":0.25,"velocity":127,"measure":74,"beat":4.0,"subject_pos":-1,"motif":"","motif_pos":-1,"best_pos":5,"similarity":0.65,"stretto":false,"stretto_voices":0,"combination":[],"aug_dim":"","rhythm_ratio":1.0,"mirror":false,"chromatic_density":0.25,"complexity":0.488,"dissonance":0.173},{"voice":3,"pitch":48,"start":147.75,"duration":0.25,"velocity":127,"measure":74,"beat":4.5,"subject_pos":-1,"motif":"","motif_pos":-1,"best_pos":6,"similarity":0.571,"stretto":false,"stretto_voices":0,"combination":[],"aug_dim":"","rhythm_ratio":1.0,"mirror":false,"chromatic_density":0.25,"complexity":0.488,"dissonance":0.173},{"voice":0,"pitch":69,"start":148.0,"duration":1.25,"velocity":127,"measure":75,"beat":1.0,"subject_pos":-1,"motif":"","motif_pos":-1,"best_pos":4,"similarity":0.396,"stretto":false,"stretto_voices":0,"combination":[],"aug_dim":"","rhythm_ratio":1.0,"mirror":false,"chromatic_density":0.231,"complexity":0.445,"dissonance":0.105},{"voice":3,"pitch":50,"start":148.0,"duration":0.25,"velocity":127,"measure":75,"beat":1.0,"subject_pos":-1,"motif":"","motif_pos":-1,"best_pos":5,"similarity":0.593,"stretto":false,"stretto_voices":0,"combination":[],"aug_dim":"","rhythm_ratio":1.0,"mirror":false,"chromatic_density":0.231,"complexity":0.445,"dissonance":0.105},{"voice":2,"pitch":61,"start":148.25,"duration":0.25,"velocity":127,"measure":75,"beat":1.5,"subject_pos":-1,"motif":"","motif_pos":-1,"best_pos":4,"similarity":0.364,"stretto":false,"stretto_voices":0,"combination":[],"aug_dim":"","rhythm_ratio":1.0,"mirror":false,"chromatic_density":0.231,"complexity":0.445,"dissonance":0.105},{"voice":3,"pitch":52,"start":148.25,"duration":0.25,"velocity":127,"measure":75,"beat":1.5,"subject_pos":-1,"motif":"","motif_pos":-1,"best_pos":6,"similarity":0.65,"stretto":false,"stretto_voices":0,"combination":[],"aug_dim":"","rhythm_ratio":1.0,"mirror":false,"chromatic_density":0.231,"complexity":0.445,"dissonance":0.105},{"voice":2,"pitch":62,"start":148.5,"duration":0.25,"velocity":127,"measure":75,"beat":2.0,"subject_pos":-1,"motif":"","motif_pos":-1,"best_pos":5,"similarity":0.429,"stretto":false,"stretto_voices":0,"combination":[],"aug_dim":"","rhythm_ratio":1.0,"mirror":false,"chromatic_density":0.231,"complexity":0.445,"dissonance":0.105},{"voice":3,"pitch":53,"start":148.5,"duration":0.25,"velocity":127,"measure":75,"beat":2.0,"subject_pos":-1,"motif":"","motif_pos":-1,"best_pos":7,"similarity":0.464,"stretto":false,"stretto_voices":0,"combination":[],"aug_dim":"","rhythm_ratio":1.0,"mirror":false,"chromatic_density":0.231,"complexity":0.445,"dissonance":0.105},{"voice":2,"pitch":65,"start":148.75,"duration":0.25,"velocity":127,"measure":75,"beat":2.5,"subject_pos":-1,"motif":"","motif_pos":-1,"best_pos":6,"similarity":0.286,"stretto":false,"stretto_voices":0,"combination":[],"aug_dim":"","rhythm_ratio":1.0,"mirror":false,"chromatic_density":0.231,"complexity":0.445,"dissonance":0.105},{"voice":3,"pitch":50,"start":148.75,"duration":0.25,"velocity":127,"measure":75,"beat":2.5,"subject_pos":-1,"motif":"","motif_pos":-1,"best_pos":0,"similarity":0.446,"stretto":false,"stretto_voices":0,"combination":[],"aug_dim":"","rhythm_ratio":1.0,"mirror":false,"chromatic_density":0.231,"complexity":0.445,"dissonance":0.105},{"voice":2,"pitch":58,"start":149.0,"duration":1.25,"velocity":127,"measure":75,"beat":3.0,"subject_pos":-1,"motif":"","motif_pos":-1,"best_pos":3,"similarity":0.407,"stretto":false,"stretto_voices":0,"combination":[],"aug_dim":"","rhythm_ratio":1.0,"mirror":false,"chromatic_density":0.231,"complexity":0.445,"dissonance":0.105},{"voice":3,"pitch":55,"start":149.0,"duration":0.25,"velocity":127,"measure":75,"beat":3.0,"subject_pos":-1,"motif":"","motif_pos":-1,"best_pos":1,"similarity":0.614,"stretto":false,"stretto_voices":0,"combination":[],"aug_dim":"","rhythm_ratio":1.0,"mirror":false,"chromatic_density":0.231,"complexity":0.445,"dissonance":0.105},{"voice":0,"pitch":62,"start":149.25,"duration":0.25,"velocity":127,"measure":75,"beat":3.5,"subject_pos":-1,"motif":"","motif_pos":-1,"best_pos":0,"similarity":0.293,"stretto":false,"stretto_voices":0,"combination":[],"aug_dim":"","rhythm_ratio":1.0,"mirror":false,"chromatic_density":0.231,"complexity":0.445,"dissonance":0.105},{"voice":3,"pitch":53,"start":149.25,"duration":0.25,"velocity":127,"measure":75,"beat":3.5,"subject_pos":-1,"motif":"","motif_pos":-1,"best_pos":2,"similarity":0.514,"stretto":false,"stretto_voices":0,"combination":[],"aug_dim":"","rhythm_ratio":1.0,"mirror":false,"chromatic_density":0.231,"complexity":0.445,"dissonance":0.105},{"voice":0,"pitch":67,"start":149.5,"duration":0.25,"velocity":127,"measure":75,"beat":4.0,"subject_pos":-1,"motif":"","motif_pos":-1,"best_pos":1,"similarity":0.336,"stretto":false,"stretto_voices":0,"combination":[],"aug_dim":"","rhythm_ratio":1.0,"mirror":false,"chromatic_density":0.231,"complexity":0.445,"dissonance":0.105},{"voice":3,"pitch":52,"start":149.5,"duration":0.25,"velocity":127,"measure":75,"beat":4.0,"subject_pos":-1,"motif":"","motif_pos":-1,"best_pos":4,"similarity":0.5,"stretto":false,"stretto_voices":0,"combination":[],"aug_dim":"","rhythm_ratio":1.0,"mirror":false,"chromatic_density":0.231,"complexity":0.445,"dissonance":0.105},{"voice":0,"pitch":70,"start":149.75,"duration":0.25,"velocity":127,"measure":75,"beat":4.5,"subject_pos":-1,"motif":"","motif_pos":-1,"best_pos":1,"similarity":0.286,"stretto":false,"stretto_voices":0,"combination":[],"aug_dim":"","rhythm_ratio":1.0,"mirror":false,"chromatic_density":0.231,"complexity":0.445,"dissonance":0.105},{"voice":3,"pitch":55,"start":149.75,"duration":0.25,"velocity":127,"measure":75,"beat":4.5,"subject_pos":-1,"motif":"","motif_pos":-1,"best_pos":5,"similarity":0.393,"stretto":false,"stretto_voices":0,"combination":[],"aug_dim":"","rhythm_ratio":1.0,"mirror":false,"chromatic_density":0.231,"complexity":0.445,"dissonance":0.105},{"voice":0,"pitch":64,"start":150.0,"duration":1.5,"velocity":127,"measure":76,"beat":1.0,"subject_pos":-1,"motif":"","motif_pos":-1,"best_pos":2,"similarity":0.464,"stretto":false,"stretto_voices":0,"combination":[],"aug_dim":"","rhythm_ratio":1.0,"mirror":false,"chromatic_density":0.182,"complexity":0.479,"dissonance":0.136},{"voice":3,"pitch":49,"start":150.0,"duration":0.25,"velocity":127,"measure":76,"beat":1.0,"subject_pos":-1,"motif":"","motif_pos":-1,"best_pos":4,"similarity":0.471,"stretto":false,"stretto_voices":0,"combination":[],"aug_dim":"","rhythm_ratio":1.0,"mirror":false,"chromatic_density":0.182,"complexity":0.479,"dissonance":0.136},{"voice":2,"pitch":57,"start":150.25,"duration":0.25,"velocity":127,"measure":76,"beat":1.5,"subject_pos":-1,"motif":"","motif_pos":-1,"best_pos":4,"similarity":0.471,"stretto":false,"stretto_voices":0,"combination":[],"aug_dim":"","rhythm_ratio":1.0,"mirror":false,"chromatic_density":0.182,"complexity":0.479,"dissonance":0.136},{"voice":3,"pitch":50,"start":150.25,"duration":0.25,"velocity":127,"measure":76,"beat":1.5,"subject_pos":-1,"motif":"","motif_pos":-1,"best_pos":5,"similarity":0.586,"stretto":false,"stretto_voices":0,"combination":[],"aug_dim":"","rhythm_ratio":1.0,"mirror":false,"chromatic_density":0.182,"complexity":0.479,"dissonance":0.136},{"voice":2,"pitch":55,"start":150.5,"duration":0.25,"velocity":127,"measure":76,"beat":2.0,"subject_pos":-1,"motif":"","motif_pos":-1,"best_pos":5,"similarity":0.464,"stretto":false,"stretto_voices":0,"combination":[],"aug_dim":"","rhythm_ratio":1.0,"mirror":false,"chromatic_density":0.182,"complexity":0.479,"dissonance":0.136},{"voice":3,"pitch":52,"start":150.5,"duration":0.25,"velocity":127,"measure":76,"beat":2.0,"subject_pos":-1,"motif":"","motif_pos":-1,"best_pos":6,"similarity":0.457,"stretto":false,"stretto_voices":0,"combination":[],"aug_dim":"","rhythm_ratio":1.0,"mirror":false,"chromatic_density":0.182,"complexity":0.479,"dissonance":0.136},{"voice":2,"pitch":57,"start":150.75,"duration":0.25,"velocity":127,"measure":76,"beat":2.5,"subject_pos":-1,"motif":"","motif_pos":-1,"best_pos":6,"similarity":0.371,"stretto":false,"stretto_voices":0,"combination":[],"aug_dim":"","rhythm_ratio":1.0,"mirror":false,"chromatic_density":0.182,"complexity":0.479,"dissonance":0.136},{"voice":3,"pitch":49,"start":150.75,"duration":0.25,"velocity":127,"measure":76,"beat":2.5,"subject_pos":-1,"motif":"","motif_pos":-1,"best_pos":3,"similarity":0.4,"stretto":false,"stretto_voices":0,"combination":[],"aug_dim":"","rhythm_ratio":1.0,"mirror":false,"chromatic_density":0.182,"complexity":0.479,"dissonance":0.136},{"voice":2,"pitch":53,"start":151.0,"duration":1.0,"velocity":127,"measure":76,"beat":3.0,"subject_pos":-1,"motif":"enigmatic_cell","motif_pos":0,"best_pos":0,"similarity":1.0,"stretto":false,"stretto_voices":0,"combination":[],"aug_dim":"","rhythm_ratio":1.0,"mirror":false,"chromatic_density":0.182,"complexity":0.479,"dissonance":0.136},{"voice":3,"pitch":50,"start":151.0,"duration":0.25,"velocity":127,"measure":76,"beat":3.0,"subject_pos":-1,"motif":"","motif_pos":-1,"best_pos":1,"similarity":0.386,"stretto":false,"stretto_voices":0,"combination":[],"aug_dim":"","rhythm_ratio":1.0,"mirror":false,"chromatic_density":0.182,"complexity":0.479,"dissonance":0.136},{"voice":3,"pitch":48,"start":151.25,"duration":0.25,"velocity":127,"measure":76,"beat":3.5,"subject_pos":-1,"motif":"","motif_pos":-1,"best_pos":2,"similarity":0.443,"stretto":false,"stretto_voices":0,"combination":[],"aug_dim":"","rhythm_ratio":1.0,"mirror":false,"chromatic_density":0.182,"complexity":0.479,"dissonance":0.136},{"voice":0,"pitch":62,"start":151.5,"duration":0.75,"velocity":127,"measure":76,"beat":4.0,"subject_pos":-1,"motif":"","motif_pos":-1,"best_pos":3,"similarity":0.625,"stretto":false,"stretto_voices":0,"combination":[],"aug_dim":"","rhythm_ratio":1.0,"mirror":false,"chromatic_density":0.182,"complexity":0.479,"dissonance":0.136},{"voice":3,"pitch":46,"start":151.5,"duration":0.25,"velocity":127,"measure":76,"beat":4.0,"subject_pos":-1,"motif":"","motif_pos":-1,"best_pos":2,"similarity":0.357,"stretto":false,"stretto_voices":0,"combination":[],"aug_dim":"","rhythm_ratio":1.0,"mirror":false,"chromatic_density":0.182,"complexity":0.479,"dissonance":0.136},{"voice":3,"pitch":50,"start":151.75,"duration":0.25,"velocity":127,"measure":76,"beat":4.5,"subject_pos":-1,"motif":"","motif_pos":-1,"best_pos":3,"similarity":0.357,"stretto":false,"stretto_voices":0,"combination":[],"aug_dim":"","rhythm_ratio":1.0,"mirror":false,"chromatic_density":0.182,"complexity":0.479,"dissonance":0.136},{"voice":2,"pitch":52,"start":152.0,"duration":1.0,"velocity":127,"measure":77,"beat":1.0,"subject_pos":-1,"motif":"enigmatic_cell","motif_pos":1,"best_pos":1,"similarity":1.0,"stretto":false,"stretto_voices":0,"combination":[],"aug_dim":"","rhythm_ratio":1.0,"mirror":false,"chromatic_density":0.286,"complexity":0.505,"dissonance":0.068},{"voice":3,"pitch":44,"start":152.0,"duration":0.25,"velocity":127,"measure":77,"beat":1.0,"subject_pos":-1,"motif":"","motif_pos":-1,"best_pos":4,"similarity":0.507,"stretto":false,"stretto_voices":0,"combination":[],"aug_dim":"","rhythm_ratio":1.0,"mirror":false,"chromatic_density":0.286,"complexity":0.505,"dissonance":0.068},{"voice":0,"pitch":61,"start":152.25,"duration":0.25,"velocity":127,"measure":77,"beat":1.5,"subject_pos":-1,"motif":"","motif_pos":-1,"best_pos":4,"similarity":0.696,"stretto":false,"stretto_voices":0,"combination":[],"aug_dim":"","rhythm_ratio":1.0,"mirror":false,"chromatic_density":0.286,"complexity":0.505,"dissonance":0.068},{"voice":3,"pitch":45,"start":152.25,"duration":0.25,"velocity":127,"measure":77,"beat":1.5,"subject_pos":-1,"motif":"","motif_pos":-1,"best_pos":5,"similarity":0.586,"stretto":false,"stretto_voices":0,"combination":[],"aug_dim":"","rhythm_ratio":1.0,"mirror":false,"chromatic_density":0.286,"complexity":0.505,"dissonance":0.068},{"voice":0,"pitch":62,"start":152.5,"duration":0.25,"velocity":127,"measure":77,"beat":2.0,"subject_pos":-1,"motif":"","motif_pos":-1,"best_pos":5,"similarity":0.536,"stretto":false,"stretto_voices":0,"combination":[],"aug_dim":"","rhythm_ratio":1.0,"mirror":false,"chromatic_density":0.286,"complexity":0.505,"dissonance":0.068},{"voice":3,"pitch":47,"start":152.5,"duration":0.25,"velocity":127,"measure":77,"beat":2.0,"subject_pos":-1,"motif":"","motif_pos":-1,"best_pos":6,"similarity":0.457,"stretto":false,"stretto_voices":0,"combination":[],"aug_dim":"","rhythm_ratio":1.0,"mirror":false,"chromatic_density":0.286,"complexity":0.505,"dissonance":0.068},{"voice":0,"pitch":59,"start":152.75,"duration":0.25,"velocity":127,"measure":77,"beat":2.5,"subject_pos":-1,"motif":"","motif_pos":-1,"best_pos":5,"similarity":0.404,"stretto":false,"stretto_voices":0,"combination":[],"aug_dim":"","rhythm_ratio":1.0,"mirror":false,"chromatic_density":0.286,"complexity":0.505,"dissonance":0.068},{"voice":3,"pitch":44,"start":152.75,"duration":0.25,"velocity":127,"measure":77,"beat":2.5,"subject_pos":-1,"motif":"","motif_pos":-1,"best_pos":3,"similarity":0.386,"stretto":false,"stretto_voices":0,"combination":[],"aug_dim":"","rhythm_ratio":1.0,"mirror":false,"chromatic_density":0.286,"complexity":0.505,"dissonance":0.068},{"voice":0,"pitch":61,"start":153.0,"duration":0.25,"velocity":127,"measure":77,"beat":3.0,"subject_pos":-1,"motif":"","motif_pos":-1,"best_pos":6,"similarity":0.389,"stretto":false,"stretto_voices":0,"combination":[],"aug_dim":"","rhythm_ratio":1.0,"mirror":false,"chromatic_density":0.286,"complexity":0.505,"dissonance":0.068},{"voice":2,"pitch":57,"start":153.0,"duration":0.75,"velocity":127,"measure":77,"beat":3.0,"subject_pos":-1,"motif":"enigmatic_cell","motif_pos":2,"best_pos":2,"similarity":1.0,"stretto":false,"stretto_voices":0,"combination":[],"aug_dim":"","rhythm_ratio":1.0,"mirror":false,"chromatic_density":0.286,"complexity":0.505,"dissonance":0.068},{"voice":3,"pitch":45,"start":153.0,"duration":0.25,"velocity":127,"measure":77,"beat":3.0,"subject_pos":-1,"motif":"","motif_pos":-1,"best_pos":5,"similarity":0.336,"stretto":false,"stretto_voices":0,"combination":[],"aug_dim":"","rhythm_ratio":1.0,"mirror":false,"chromatic_density":0.286,"complexity":0.505,"dissonance":0.068},{"voice":0,"pitch":64,"start":153.25,"duration":0.25,"velocity":127,"measure":77,"beat":3.5,"subject_pos":-1,"motif":"","motif_pos":-1,"best_pos":5,"similarity":0.329,"stretto":false,"stretto_voices":0,"combination":[],"aug_dim":"","rhythm_ratio":1.0,"mirror":false,"chromatic_density":0.286,"complexity":0.505,"dissonance":0.068},{"voice":3,"pitch":55,"start":153.25,"duration":0.25,"velocity":127,"measure":77,"beat":3.5,"subject_pos":-1,"motif":"","motif_pos":-1,"best_pos":1,"similarity":0.386,"stretto":false,"stretto_voices":0,"combination":[],"aug_dim":"","rhythm_ratio":1.0,"mirror":false,"chromatic_density":0.286,"complexity":0.505,"dissonance":0.068},{"voice":0,"pitch":69,"start":153.5,"duration":0.75,"velocity":127,"measure":77,"beat":4.0,"subject_pos":-1,"motif":"","motif_pos":-1,"best_pos":1,"similarity":0.386,"stretto":false,"stretto_voices":0,"combination":[],"aug_dim":"","rhythm_ratio":1.0,"mirror":false,"chromatic_density":0.286,"complexity":0.505,"dissonance":0.068},{"voice":3,"pitch":53,"start":153.5,"duration":0.25,"velocity":127,"measure":77,"beat":4.0,"subject_pos":-1,"motif":"","motif_pos":-1,"best_pos":3,"similarity":0.457,"stretto":false,"stretto_voices":0,"combination":[],"aug_dim":"","rhythm_ratio":1.0,"mirror":false,"chromatic_density":0.286,"complexity":0.505,"dissonance":0.068},{"voice":2,"pitch":55,"start":153.75,"duration":0.25,"velocity":127,"measure":77,"beat":4.5,"subject_pos":-1,"motif":"","motif_pos":-1,"best_pos":2,"similarity":0.721,"stretto":false,"stretto_voices":0,"combination":[],"aug_dim":"","rhythm_ratio":1.0,"mirror":false,"chromatic_density":0.286,"complexity":0.505,"dissonance":0.068},{"voice":3,"pitch":52,"start":153.75,"duration":0.25,"velocity":127,"measure":77,"beat":4.5,"subject_pos":-1,"motif":"","motif_pos":-1,"best_pos":4,"similarity":0.407,"stretto":false,"stretto_voices":0,"combination":[],"aug_dim":"","rhythm_ratio":1.0,"mirror":false,"chromatic_density":0.286,"complexity":0.505,"dissonance":0.068},{"voice":1,"pitch":62,"start":154.0,"duration":1.0,"velocity":127,"measure":78,"beat":1.0,"subject_pos":0,"motif":"subject","motif_pos":0,"best_pos":0,"similarity":1.0,"stretto":false,"stretto_voices":0,"combination":[],"aug_dim":"","rhythm_ratio":1.0,"mirror":false,"chromatic_density":0.25,"complexity":0.602,"dissonance":0.096},{"voice":2,"pitch":53,"start":154.0,"duration":0.75,"velocity":127,"measure":78,"beat":1.0,"subject_pos":-1,"motif":"","motif_pos":-1,"best_pos":3,"similarity":0.664,"stretto":false,"stretto_voices":0,"combination":[],"aug_dim":"","rhythm_ratio":1.0,"mirror":false,"chromatic_density":0.25,"complexity":0.602,"dissonance":0.096},{"voice":3,"pitch":50,"start":154.0,"duration":1.25,"velocity":127,"measure":78,"beat":1.0,"subject_pos":-1,"motif":"","motif_pos":-1,"best_pos":2,"similarity":0.518,"stretto":false,"stretto_voices":0,"combination":[],"aug_dim":"","rhythm_ratio":1.0,"mirror":false,"chromatic_density":0.25,"complexity":0.602,"dissonance":0.096},{"voice":0,"pitch":70,"start":154.25,"duration":0.25,"velocity":127,"measure":78,"beat":1.5,"subject_pos":-1,"motif":"","motif_pos":-1,"best_pos":3,"similarity":0.354,"stretto":false,"stretto_voices":0,"combination":[],"aug_dim":"","rhythm_ratio":1.0,"mirror":false,"chromatic_density":0.25,"complexity":0.602,"dissonance":0.096},{"voice":0,"pitch":69,"start":154.5,"duration":0.25,"velocity":127,"measure":78,"beat":2.0,"subject_pos":-1,"motif":"","motif_pos":-1,"best_pos":1,"similarity":0.429,"stretto":false,"stretto_voices":0,"combination":[],"aug_dim":"","rhythm_ratio":1.0,"mirror":false,"chromatic_density":0.25,"complexity":0.602,"dissonance":0.096},{"voice":0,"pitch":67,"start":154.75,"duration":0.25,"velocity":127,"measure":78,"beat":2.5,"subject_pos":-1,"motif":"","motif_pos":-1,"best_pos":2,"similarity":0.579,"stretto":false,"stretto_voices":0,"combination":[],"aug_dim":"","rhythm_ratio":1.0,"mirror":false,"chromatic_density":0.25,"complexity":0.602,"dissonance":0.096},{"voice":2,"pitch":52,"start":154.75,"duration":0.25,"velocity":127,"measure":78,"beat":2.5,"subject_pos":-1,"motif":"","motif_pos":-1,"best_pos":4,"similarity":0.543,"stretto":false,"stretto_voices":0,"combination":[],"aug_dim":"","rhythm_ratio":1.0,"mirror":false,"chromatic_density":0.25,"complexity":0.602,"dissonance":0.096},{"voice":0,"pitch":65,"start":155.0,"duration":0.25,"velocity":127,"measure":78,"beat":3.0,"subject_pos":-1,"motif":"","motif_pos":-1,"best_pos":3,"similarity":0.657,"stretto":false,"stretto_voices":0,"combination":[],"aug_dim":"","rhythm_ratio":1.0,"mirror":false,"chromatic_density":0.25,"complexity":0.602,"dissonance":0.096},{"voice":1,"pitch":69,"start":155.0,"duration":0.75,"velocity":127,"measure":78,"beat":3.0,"subject_pos":1,"motif":"subject","motif_pos":1,"best_pos":1,"similarity":1.0,"stretto":false,"stretto_voices":0,"combination":[],"aug_dim":"","rhythm_ratio":1.0,"mirror":false,"chromatic_density":0.25,"complexity":0.602,"dissonance":0.096},{"voice":2,"pitch":50,"start":155.0,"duration":1.0,"velocity":127,"measure":78,"beat":3.0,"subject_pos":-1,"motif":"tail","motif_pos":3,"best_pos":3,"similarity":1.0,"stretto":false,"stretto_voices":0,"combination":[],"aug_dim":"","rhythm_ratio":1.0,"mirror":false,"chromatic_density":0.25,"complexity":0.602,"dissonance":0.096},{"voice":0,"pitch":64,"start":155.25,"duration":0.25,"velocity":127,"measure":78,"beat":3.5,"subject_pos":-1,"motif":"","motif_pos":-1,"best_pos":4,"similarity":0.671,"stretto":false,"stretto_voices":0,"combination":[],"aug_dim":"","rhythm_ratio":1.0,"mirror":false,"chromatic_density":0.25,"complexity":0.602,"dissonance":0.096},{"voice":3,"pitch":48,"start":155.25,"duration":0.25,"velocity":127,"measure":78,"beat":3.5,"subject_pos":-1,"motif":"","motif_pos":-1,"best_pos":2,"similarity":0.643,"stretto":false,"stretto_voices":0,"combination":[],"aug_dim":"","rhythm_ratio":1.0,"mirror":false,"chromatic_density":0.25,"complexity":0.602,"dissonance":0.096},{"voice":0,"pitch":62,"start":155.5,"duration":0.25,"velocity":127,"measure":78,"beat":4.0,"subject_pos":-1,"motif":"","motif_pos":-1,"best_pos":5,"similarity":0.636,"stretto":false,"stretto_voices":0,"combination":[],"aug_dim":"","rhythm_ratio":1.0,"mirror":false,"chromatic_density":0.25,"complexity":0.602,"dissonance":0.096},{"voice":3,"pitch":46,"start":155.5,"duration":0.5,"velocity":127,"measure":78,"beat":4.0,"subject_pos":-1,"motif":"","motif_pos":-1,"best_pos":3,"similarity":0.721,"stretto":false,"stretto_voices":0,"combination":[],"aug_dim":"","rhythm_ratio":1.0,"mirror":false,"chromatic_density":0.25,"complexity":0.602,"dissonance":0.096},{"voice":0,"pitch":64,"start":155.75,"duration":0.25,"velocity":127,"measure":78,"beat":4.5,"subject_pos":-1,"motif":"","motif_pos":-1,"best_pos":6,"similarity":0.657,"stretto":false,"stretto_voices":0,"combination":[],"aug_dim":"","rhythm_ratio":1.0,"mirror":false,"chromatic_density":0.25,"complexity":0.602,"dissonance":0.096},{"voice":1,"pitch":67,"start":155.75,"duration":0.25,"velocity":127,"measure":78,"beat":4.5,"subject_pos":2,"motif":"subject","motif_pos":2,"best_pos":2,"similarity":1.0,"stretto":false,"stretto_voices":0,"combination":[],"aug_dim":"","rhythm_ratio":1.0,"mirror":false,"chromatic_density":0.25,"complexity":0.602,"dissonance":0.096},{"voice":0,"pitch":65,"start":156.0,"duration":0.25,"velocity":127,"measure":79,"beat":1.0,"subject_pos":-1,"motif":"","motif_pos":-1,"best_pos":5,"similarity":0.693,"stretto":false,"stretto_voices":0,"combination":[],"aug_dim":"","rhythm_ratio":1.0,"mirror":false,"chromatic_density":0.286,"complexity":0.61,"dissonance":0.092},{"voice":1,"pitch":65,"start":156.0,"duration":0.75,"velocity":127,"measure":79,"beat":1.0,"subject_pos":3,"motif":"subject","motif_pos":3,"best_pos":3,"similarity":1.0,"stretto":false,"stretto_voices":0,"combination":[],"aug_dim":"","rhythm_ratio":1.0,"mirror":false,"chromatic_density":0.286,"complexity":0.61,"dissonance":0.092},{"voice":2,"pitch":49,"start":156.0,"duration":1.0,"velocity":127,"measure":79,"beat":1.0,"subject_pos":-1,"motif":"tail","motif_pos":4,"best_pos":4,"similarity":1.0,"stretto":false,"stretto_voices":0,"combination":[],"aug_dim":"","rhythm_ratio":1.0,"mirror":false,"chromatic_density":0.286,"complexity":0.61,"dissonance":0.092},{"voice":3,"pitch":45,"start":156.0,"duration":0.25,"velocity":127,"measure":79,"beat":1.0,"subject_pos":-1,"motif":"","motif_pos":-1,"best_pos":4,"similarity":0.736,"stretto":false,"stretto_voices":0,"combination":[],"aug_dim":"","rhythm_ratio":1.0,"mirror":false,"chromatic_density":0.286,"complexity":0.61,"dissonance":0.092},{"voice":0,"pitch":67,"start":156.25,"duration":0.25,"velocity":127,"measure":79,"beat":1.5,"subject_pos":-1,"motif":"","motif_pos":-1,"best_pos":6,"similarity":0.579,"stretto":false,"stretto_voices":0,"combination":[],"aug_dim":"","rhythm_ratio":1.0,"mirror":false,"chromatic_density":0.286,"complexity":0.61,"dissonance":0.092},{"voice":3,"pitch":46,"start":156.25,"duration":0.25,"velocity":127,"measure":79,"beat":1.5,"subject_pos":-1,"motif":"","motif_pos":-1,"best_pos":5,"similarity":0.507,"stretto":false,"stretto_voices":0,"combination":[],"aug_dim":"","rhythm_ratio":1.0,"mirror":false,"chromatic_density":0.286,"complexity":0.61,"dissonance":0.092},{"voice":0,"pitch":69,"start":156.5,"duration":0.75,"velocity":127,"measure":79,"beat":2.0,"subject_pos":-1,"motif":"","motif_pos":-1,"best_pos":6,"similarity":0.404,"stretto":false,"stretto_voices":0,"combination":[],"aug_dim":"","rhythm_ratio":1.0,"mirror":false,"chromatic_density":0.286,"complexity":0.61,"dissonance":0.092},{"voice":3,"pitch":45,"start":156.5,"duration":0.25,"velocity":127,"measure":79,"beat":2.0,"subject_pos":-1,"motif":"","motif_pos":-1,"best_pos":4,"similarity":0.386,"stretto":false,"stretto_voices":0,"combination":[],"aug_dim":"","rhythm_ratio":1.0,"mirror":false,"chromatic_density":0.286,"complexity":0.61,"dissonance":0.092},{"voice":1,"pitch":64,"start":156.75,"duration":0.25,"velocity":127,"measure":79,"beat":2.5,"subject_pos":4,"motif":"subject","motif_pos":4,"best_pos":4,"similarity":1.0,"stretto":false,"stretto_voices":0,"combination":[],"aug_dim":"","rhythm_ratio":1.0,"mirror":false,"chromatic_density":0.286,"complexity":0.61,"dissonance":0.092},{"voice":3,"pitch":43,"start":156.75,"duration":0.25,"velocity":127,"measure":79,"beat":2.5,"subject_pos":-1,"motif":"","motif_pos":-1,"best_pos":2,"similarity":0.446,"stretto":false,"stretto_voices":0,"combination":[],"aug_dim":"","rhythm_ratio":1.0,"mirror":false,"chromatic_density":0.286,"complexity":0.61,"dissonance":0.092},{"voice":1,"pitch":62,"start":157.0,"duration":1.0,"velocity":127,"measure":79,"beat":3.0,"subject_pos":5,"motif":"subject","motif_pos":5,"best_pos":5,"similarity":1.0,"stretto":false,"stretto_voices":0,"combination":[],"aug_dim":"","rhythm_ratio":1.0,"mirror":false,"chromatic_density":0.286,"complexity":0.61,"dissonance":0.092},{"voice":2,"pitch":50,"start":157.0,"duration":0.75,"velocity":127,"measure":79,"beat":3.0,"subject_pos":-1,"motif":"tail","motif_pos":5,"best_pos":5,"similarity":1.0,"stretto":false,"stretto_voices":0,"combination":[],"aug_dim":"","rhythm_ratio":1.0,"mirror":false,"chromatic_density":0.286,"complexity":0.61,"dissonance":0.092},{"voice":3,"pitch":41,"start":157.0,"duration":0.5,"velocity":127,"measure":79,"beat":3.0,"subject_pos":-1,"motif":"","motif_pos":-1,"best_pos":2,"similarity":0.464,"stretto":false,"stretto_voices":0,"combination":[],"aug_dim":"","rhythm_ratio":1.0,"mirror":false,"chromatic_density":0.286,"complexity":0.61,"dissonance":0.092},{"voice":0,"pitch":67,"start":157.25,"duration":0.25,"velocity":127,"measure":79,"beat":3.5,"subject_pos":-1,"motif":"","motif_pos":-1,"best_pos":2,"similarity":0.493,"stretto":false,"stretto_voices":0,"combination":[],"aug_dim":"","rhythm_ratio":1.0,"mirror":false,"chromatic_density":0.286,"complexity":0.61,"dissonance":0.092},{"voice":0,"pitch":65,"start":157.5,"duration":0.25,"velocity":127,"measure":79,"beat":4.0,"subject_pos":-1,"motif":"","motif_pos":-1,"best_pos":4,"similarity":0.514,"stretto":false,"stretto_voices":0,"combination":[],"aug_dim":"","rhythm_ratio":1.0,"mirror":false,"chromatic_density":0.286,"complexity":0.61,"dissonance":0.092},{"voice":3,"pitch":46,"start":157.5,"duration":0.5,"velocity":127,"measure":79,"beat":4.0,"subject_pos":-1,"motif":"","motif_pos":-1,"best_pos":3,"similarity":0.571,"stretto":false,"stretto_voices":0,"combination":[],"aug_dim":"","rhythm_ratio":1.0,"mirror":false,"chromatic_density":0.286,"complexity":0.61,"dissonance":0.092},{"voice":0,"pitch":67,"start":157.75,"duration":0.25,"velocity":127,"measure":79,"beat":4.5,"subject_pos":-1,"motif":"","motif_pos":-1,"best_pos":5,"similarity":0.55,"stretto":false,"stretto_voices":0,"combination":[],"aug_dim":"","rhythm_ratio":1.0,"mirror":false,"chromatic_density":0.286,"complexity":0.61,"dissonance":0.092},{"voice":2,"pitch":52,"start":157.75,"duration":0.25,"velocity":127,"measure":79,"beat":4.5,"subject_pos":-1,"motif":"tail","motif_pos":6,"best_pos":6,"similarity":1.0,"stretto":false,"stretto_voices":0,"combination":[],"aug_dim":"","rhythm_ratio":1.0,"mirror":false,"chromatic_density":0.286,"complexity":0.61,"dissonance":0.092},{"voice":0,"pitch":69,"start":158.0,"duration":0.25,"velocity":127,"measure":80,"beat":1.0,"subject_pos":-1,"motif":"","motif_pos":-1,"best_pos":1,"similarity":0.457,"stretto":false,"stretto_voices":0,"combination":[],"aug_dim":"","rhythm_ratio":1.0,"mirror":false,"chromatic_density":0.286,"complexity":0.607,"dissonance":0.133},{"voice":1,"pitch":61,"start":158.0,"duration":1.0,"velocity":127,"measure":80,"beat":1.0,"subject_pos":6,"motif":"subject","motif_pos":6,"best_pos":6,"similarity":1.0,"stretto":false,"stretto_voices":0,"combination":[],"aug_dim":"","rhythm_ratio":1.0,"mirror":false,"chromatic_density":0.286,"complexity":0.607,"dissonance":0.133},{"voice":2,"pitch":53,"start":158.0,"duration":1.25,"velocity":127,"measure":80,"beat":1.0,"subject_pos":-1,"motif":"tail","motif_pos":7,"best_pos":7,"similarity":1.0,"stretto":false,"stretto_voices":0,"combination":[],"aug_dim":"","rhythm_ratio":1.0,"mirror":false,"chromatic_density":0.286,"complexity":0.607,"dissonance":0.133},{"voice":3,"pitch":45,"start":158.0,"duration":1.5,"velocity":127,"measure":80,"beat":1.0,"subject_pos":-1,"motif":"","motif_pos":-1,"best_pos":4,"similarity":0.714,"stretto":false,"stretto_voices":0,"combination":[],"aug_dim":"","rhythm_ratio":1.0,"mirror":false,"chromatic_density":0.286,"complexity":0.607,"dissonance":0.133},{"voice":0,"pitch":67,"start":158.25,"duration":0.25,"velocity":127,"measure":80,"beat":1.5,"subject_pos":-1,"motif":"","motif_pos":-1,"best_pos":2,"similarity":0.593,"stretto":false,"stretto_voices":0,"combination":[],"aug_dim":"","rhythm_ratio":1.0,"mirror":false,"chromatic_density":0.286,"complexity":0.607,"dissonance":0.133},{"voice":0,"pitch":65,"start":158.5,"duration":0.25,"velocity":127,"measure":80,"beat":2.0,"subject_pos":-1,"motif":"","motif_pos":-1,"best_pos":3,"similarity":0.593,"stretto":false,"stretto_voices":0,"combination":[],"aug_dim":"","rhythm_ratio":1.0,"mirror":false,"chromatic_density":0.286,"complexity":0.607,"dissonance":0.133},{"voice":0,"pitch":64,"start":158.75,"duration":0.25,"velocity":127,"measure":80,"beat":2.5,"subject_pos":-1,"motif":"","motif_pos":-1,"best_pos":4,"similarity":0.475,"stretto":false,"stretto_voices":0,"combination":[],"aug_dim":"","rhythm_ratio":1.0,"mirror":false,"chromatic_density":0.286,"complexity":0.607,"dissonance":0.133},{"voice":0,"pitch":62,"start":159.0,"duration":0.25,"velocity":127,"measure":80,"beat":3.0,"subject_pos":-1,"motif":"","motif_pos":-1,"best_pos":2,"similarity":0.436,"stretto":false,"stretto_voices":0,"combination":[],"aug_dim":"","rhythm_ratio":1.0,"mirror":false,"chromatic_density":0.286,"complexity":0.607,"dissonance":0.133},{"voice":1,"pitch":62,"start":159.0,"duration":0.75,"velocity":127,"measure":80,"beat":3.0,"subject_pos":7,"motif":"subject","motif_pos":7,"best_pos":7,"similarity":1.0,"stretto":false,"stretto_voices":0,"combination":[],"aug_dim":"","rhythm_ratio":1.0,"mirror":false,"chromatic_density":0.286,"complexity":0.607,"dissonance":0.133},{"voice":0,"pitch":70,"start":159.25,"duration":0.25,"velocity":127,"measure":80,"beat":3.5,"subject_pos":-1,"motif":"","motif_pos":-1,"best_pos":3,"similarity":0.45,"stretto":false,"stretto_voices":0,"combination":[],"aug_dim":"","rhythm_ratio":1.0,"mirror":false,"chromatic_density":0.286,"complexity":0.607,"dissonance":0.133},{"voice":2,"pitch":55,"start":159.25,"duration":0.25,"velocity":127,"measure":80,"beat":3.5,"subject_pos":-1,"motif":"","motif_pos":-1,"best_pos":6,"similarity":0.464,"stretto":false,"stretto_voices":0,"combination":[],"aug_dim":"","rhythm_ratio":1.0,"mirror":false,"chromatic_density":0.286,"complexity":0.607,"dissonance":0.133},{"voice":0,"pitch":69,"start":159.5,"duration":0.25,"velocity":127,"measure":80,"beat":4.0,"subject_pos":-1,"motif":"","motif_pos":-1,"best_pos":2,"similarity":0.436,"stretto":false,"stretto_voices":0,"combination":[],"aug_dim":"","rhythm_ratio":1.0,"mirror":false,"chromatic_density":0.286,"complexity":0.607,"dissonance":0.133},{"voice":2,"pitch":53,"start":159.5,"duration":0.25,"velocity":127,"measure":80,"beat":4.0,"subject_pos":-1,"motif":"","motif_pos":-1,"best_pos":3,"similarity":0.5,"stretto":false,"stretto_voices":0,"combination":[],"aug_dim":"","rhythm_ratio":1.0,"mirror":false,"chromatic_density":0.286,"complexity":0.607,"dissonance":0.133},{"voice":3,"pitch":47,"start":159.5,"duration":0.25,"velocity":127,"measure":80,"beat":4.0,"subject_pos":-1,"motif":"","motif_pos":-1,"best_pos":5,"similarity":0.714,"stretto":false,"stretto_voices":0,"combination":[],"aug_dim":"","rhythm_ratio":1.0,"mirror":false,"chromatic_density":0.286,"complexity":0.607,"dissonance":0.133},{"voice":0,"pitch":67,"start":159.75,"duration":0.25,"velocity":127,"measure":80,"beat":4.5,"subject_pos":-1,"motif":"","motif_pos":-1,"best_pos":3,"similarity":0.479,"stretto":false,"stretto_voices":0,"combination":[],"aug_dim":"","rhythm_ratio":1.0,"mirror":false,"chromatic_density":0.286,"complexity":0.607,"dissonance":0.133},{"voice":1,"pitch":64,"start":159.75,"duration":0.25,"velocity":127,"measure":80,"beat":4.5,"subject_pos":8,"motif":"subject","motif_pos":8,"best_pos":0,"similarity":1.0,"stretto":false,"stretto_voices":0,"combination":[],"aug_dim":"","rhythm_ratio":1.0,"mirror":false,"chromatic_density":0.286,"complexity":0.607,"dissonance":0.133},{"voice":2,"pitch":52,"start":159.75,"duration":0.25,"velocity":127,"measure":80,"beat":4.5,"subject_pos":-1,"motif":"","motif_pos":-1,"best_pos":4,"similarity":0.5,"stretto":false,"stretto_voices":0,"combination":[],"aug_dim":"","rhythm_ratio":1.0,"mirror":false,"chromatic_density":0.286,"complexity":0.607,"dissonance":0.133},{"voice":3,"pitch":49,"start":159.75,"duration":0.25,"velocity":127,"measure":80,"beat":4.5,"subject_pos":-1,"motif":"","motif_pos":-1,"best_pos":6,"similarity":0.714,"stretto":false,"stretto_voices":0,"combination":[],"aug_dim":"","rhythm_ratio":1.0,"mirror":false,"chromatic_density":0.286,"complexity":0.607,"dissonance":0.133},{"voice":0,"pitch":65,"start":160.0,"duration":0.25,"velocity":127,"measure":81,"beat":1.0,"subject_pos":-1,"motif":"","motif_pos":-1,"best_pos":4,"similarity":0.457,"stretto":false,"stretto_voices":0,"combination":[],"aug_dim":"","rhythm_ratio":1.0,"mirror":false,"chromatic_density":0.357,"complexity":0.554,"dissonance":0.14},{"voice":1,"pitch":65,"start":160.0,"duration":1.25,"velocity":127,"measure":81,"beat":1.0,"subject_pos":-1,"motif":"","motif_pos":-1,"best_pos":5,"similarity":0.607,"stretto":false,"stretto_voices":0,"combination":[],"aug_dim":"","rhythm_ratio":1.0,"mirror":false,"chromatic_density":0.357,"complexity":0.554,"dissonance":0.14},{"voice":2,"pitch":50,"start":160.0,"duration":0.25,"velocity":127,"measure":81,"beat":1.0,"subject_pos":-1,"motif":"","motif_pos":-1,"best_pos":4,"similarity":0.5,"stretto":false,"stretto_voices":0,"combination":[],"aug_dim":"","rhythm_ratio":1.0,"mirror":false,"chromatic_density":0.357,"complexity":0.554,"dissonance":0.14},{"voice":3,"pitch":50,"start":160.0,"duration":1.25,"velocity":127,"measure":81,"beat":1.0,"subject_pos":-1,"motif":"tail","motif_pos":3,"best_pos":3,"similarity":1.0,"stretto":false,"stretto_voices":0,"combination":[],"aug_dim":"","rhythm_ratio":1.0,"mirror":false,"chromatic_density":0.357,"complexity":0.554,"dissonance":0.14},{"voice":0,"pitch":69,"start":160.25,"duration":0.25,"velocity":127,"measure":81,"beat":1.5,"subject_pos":-1,"motif":"","motif_pos":-1,"best_pos":4,"similarity":0.5,"stretto":false,"stretto_voices":0,"combination":[],"aug_dim":"","rhythm_ratio":1.0,"mirror":false,"chromatic_density":0.357,"complexity":0.554,"dissonance":0.14},{"voice":2,"pitch":53,"start":160.25,"duration":0.25,"velocity":127,"measure":81,"beat":1.5,"subject_pos":-1,"motif":"","motif_pos":-1,"best_pos":5,"similarity":0.518,"stretto":false,"stretto_voices":0,"combination":[],"aug_dim":"","rhythm_ratio":1.0,"mirror":false,"chromatic_density":0.357,"complexity":0.554,"dissonance":0.14},{"voice":0,"pitch":71,"start":160.5,"duration":0.25,"velocity":127,"measure":81,"beat":2.0,"subject_pos":-1,"motif":"","motif_pos":-1,"best_pos":5,"similarity":0.607,"stretto":false,"stretto_voices":0,"combination":[],"aug_dim":"","rhythm_ratio":1.0,"mirror":false,"chromatic_density":0.357,"complexity":0.554,"dissonance":0.14},{"voice":2,"pitch":55,"start":160.5,"duration":0.25,"velocity":127,"measure":81,"beat":2.0,"subject_pos":-1,"motif":"","motif_pos":-1,"best_pos":5,"similarity":0.621,"stretto":false,"stretto_voices":0,"combination":[],"aug_dim":"","rhythm_ratio":1.0,"mirror":false,"chromatic_density":0.357,"complexity":0.554,"dissonance":0.14},{"voice":0,"pitch":73,"start":160.75,"duration":0.25,"velocity":127,"measure":81,"beat":2.5,"subject_pos":-1,"motif":"","motif_pos":-1,"best_pos":6,"similarity":0.643,"stretto":false,"stretto_voices":0,"combination":[],"aug_dim":"","rhythm_ratio":1.0,"mirror":false,"chromatic_density":0.357,"complexity":0.554,"dissonance":0.14},{"voice":2,"pitch":57,"start":160.75,"duration":0.25,"velocity":127,"measure":81,"beat":2.5,"subject_pos":-1,"motif":"","motif_pos":-1,"best_pos":6,"similarity":0.65,"stretto":false,"stretto_voices":0,"combination":[],"aug_dim":"","rhythm_ratio":1.0,"mirror":false,"chromatic_density":0.357,"complexity":0.554,"dissonance":0.14},{"voice":0,"pitch":74,"start":161.0,"duration":1.25,"velocity":127,"measure":81,"beat":3.0,"subject_pos":-1,"motif":"","motif_pos":-1,"best_pos":6,"similarity":0.507,"stretto":false,"stretto_voices":0,"combination":[],"aug_dim":"","rhythm_ratio":1.0,"mirror":false,"chromatic_density":0.357,"complexity":0.554,"dissonance":0.14},{"voice":2,"pitch":58,"start":161.0,"duration":1.25,"velocity":127,"measure":81,"beat":3.0,"subject_pos":-1,"motif":"","motif_pos":-1,"best_pos":5,"similarity":0.6,"stretto":false,"stretto_voices":0,"combination":[],"aug_dim":"","rhythm_ratio":1.0,"mirror":false,"chromatic_density":0.357,"complexity":0.554,"dissonance":0.14},{"voice":1,"pitch":67,"start":161.25,"duration":0.25,"velocity":127,"measure":81,"beat":3.5,"subject_pos":-1,"motif":"","motif_pos":-1,"best_pos":6,"similarity":0.464,"stretto":false,"stretto_voices":0,"combination":[],"aug_dim":"","rhythm_ratio":1.0,"mirror":false,"chromatic_density":0.357,"complexity":0.554,"dissonance":0.14},{"voice":3,"pitch":49,"start":161.25,"duration":0.25,"velocity":127,"measure":81,"beat":3.5,"subject_pos":-1,"motif":"tail","motif_pos":4,"best_pos":4,"similarity":1.0,"stretto":false,"stretto_voices":0,"combination":[],"aug_dim":"","rhythm_ratio":1.0,"mirror":false,"chromatic_density":0.357,"complexity":0.554,"dissonance":0.14},{"voice":1,"pitch":65,"start":161.5,"duration":0.25,"velocity":127,"measure":81,"beat":4.0,"subject_pos":-1,"motif":"","motif_pos":-1,"best_pos":3,"similarity":0.464,"stretto":false,"stretto_voices":0,"combination":[],"aug_dim":"","rhythm_ratio":1.0,"mirror":false,"chromatic_density":0.357,"complexity":0.554,"dissonance":0.14},{"voice":3,"pitch":50,"start":161.5,"duration":0.25,"velocity":127,"measure":81,"beat":4.0,"subject_pos":-1,"motif":"tail","motif_pos":5,"best_pos":5,"similarity":1.0,"stretto":false,"stretto_voices":0,"combination":[],"aug_dim":"","rhythm_ratio":1.0,"mirror":false,"chromatic_density":0.357,"complexity":0.554,"dissonance":0.14},{"voice":1,"pitch":64,"start":161.75,"duration":0.25,"velocity":127,"measure":81,"beat":4.5,"subject_pos":-1,"motif":"","motif_pos":-1,"best_pos":4,"similarity":0.464,"stretto":false,"stretto_voices":0,"combination":[],"aug_dim":"","rhythm_ratio":1.0,"mirror":false,"chromatic_density":0.357,"complexity":0.554,"dissonance":0.14},{"voice":3,"pitch":52,"start":161.75,"duration":0.25,"velocity":127,"measure":81,"beat":4.5,"subject_pos":-1,"motif":"tail","motif_pos":6,"best_pos":6,"similarity":1.0,"stretto":false,"stretto_voices":0,"combination":[],"aug_dim":"","rhythm_ratio":1.0,"mirror":false,"chromatic_density":0.357,"complexity":0.554,"dissonance":0.14},{"voice":1,"pitch":62,"start":162.0,"duration":1.5,"velocity":127,"measure":82,"beat":1.0,"subject_pos":-1,"motif":"","motif_pos":-1,"best_pos":3,"similarity":0.429,"stretto":false,"stretto_voices":0,"combination":[],"aug_dim":"","rhythm_ratio":1.0,"mirror":false,"chromatic_density":0.286,"complexity":0.576,"dissonance":0.116},{"voice":3,"pitch":53,"start":162.0,"duration":0.5,"velocity":127,"measure":82,"beat":1.0,"subject_pos":-1,"motif":"tail","motif_pos":7,"best_pos":7,"similarity":1.0,"stretto":false,"stretto_voices":0,"combination":[],"aug_dim":"","rhythm_ratio":1.0,"mirror":false,"chromatic_density":0.286,"complexity":0.576,"dissonance":0.116},{"voice":0,"pitch":75,"start":162.25,"duration":0.25,"velocity":127,"measure":82,"beat":1.5,"subject_pos":-1,"motif":"","motif_pos":-1,"best_pos":7,"similarity":0.393,"stretto":false,"stretto_voices":0,"combination":[],"aug_dim":"","rhythm_ratio":1.0,"mirror":false,"chromatic_density":0.286,"complexity":0.576,"dissonance":0.116},{"voice":2,"pitch":60,"start":162.25,"duration":0.25,"velocity":127,"measure":82,"beat":1.5,"subject_pos":-1,"motif":"","motif_pos":-1,"best_pos":6,"similarity":0.464,"stretto":false,"stretto_voices":0,"combination":[],"aug_dim":"","rhythm_ratio":1.0,"mirror":false,"chromatic_density":0.286,"complexity":0.576,"dissonance":0.116},{"voice":0,"pitch":74,"start":162.5,"duration":0.25,"velocity":127,"measure":82,"beat":2.0,"subject_pos":-1,"motif":"","motif_pos":-1,"best_pos":2,"similarity":0.379,"stretto":false,"stretto_voices":0,"combination":[],"aug_dim":"","rhythm_ratio":1.0,"mirror":false,"chromatic_density":0.286,"complexity":0.576,"dissonance":0.116},{"voice":2,"pitch":58,"start":162.5,"duration":0.25,"velocity":127,"measure":82,"beat":2.0,"subject_pos":-1,"motif":"","motif_pos":-1,"best_pos":3,"similarity":0.5,"stretto":false,"stretto_voices":0,"combination":[],"aug_dim":"","rhythm_ratio":1.0,"mirror":false,"chromatic_density":0.286,"complexity":0.576,"dissonance":0.116},{"voice":3,"pitch":54,"start":162.5,"duration":0.5,"velocity":127,"measure":82,"beat":2.0,"subject_pos":-1,"motif":"","motif_pos":-1,"best_pos":6,"similarity":0.579,"stretto":false,"stretto_voices":0,"combination":[],"aug_dim":"","rhythm_ratio":1.0,"mirror":false,"chromatic_density":0.286,"complexity":0.576,"dissonance":0.116},{"voice":0,"pitch":72,"start":162.75,"duration":0.25,"velocity":127,"measure":82,"beat":2.5,"subject_pos":-1,"motif":"","motif_pos":-1,"best_pos":2,"similarity":0.464,"stretto":false,"stretto_voices":0,"combination":[],"aug_dim":"","rhythm_ratio":1.0,"mirror":false,"chromatic_density":0.286,"complexity":0.576,"dissonance":0.116},{"voice":2,"pitch":57,"start":162.75,"duration":0.25,"velocity":127,"measure":82,"beat":2.5,"subject_pos":-1,"motif":"","motif_pos":-1,"best_pos":4,"similarity":0.5,"stretto":false,"stretto_voices":0,"combination":[],"aug_dim":"","rhythm_ratio":1.0,"mirror":false,"chromatic_density":0.286,"complexity":0.576,"dissonance":0.116},{"voice":0,"pitch":70,"start":163.0,"duration":0.25,"velocity":127,"measure":82,"beat":3.0,"subject_pos":-1,"motif":"","motif_pos":-1,"best_pos":4,"similarity":0.457,"stretto":false,"stretto_voices":0,"combination":[],"aug_dim":"","rhythm_ratio":1.0,"mirror":false,"chromatic_density":0.286,"complexity":0.576,"dissonance":0.116},{"voice":2,"pitch":55,"start":163.0,"duration":0.25,"velocity":127,"measure":82,"beat":3.0,"subject_pos":-1,"motif":"","motif_pos":-1,"best_pos":4,"similarity":0.5,"stretto":false,"stretto_voices":0,"combination":[],"aug_dim":"","rhythm_ratio":1.0,"mirror":false,"chromatic_density":0.286,"complexity":0.576,"dissonance":0.116},{"voice":3,"pitch":55,"start":163.0,"duration":1.25,"velocity":127,"measure":82,"beat":3.0,"subject_pos":-1,"motif":"tail","motif_pos":3,"best_pos":3,"similarity":1.0,"stretto":false,"stretto_voices":0,"combination":[],"aug_dim":"","rhythm_ratio":1.0,"mirror":false,"chromatic_density":0.286,"complexity":0.576,"dissonance":0.116},{"voice":0,"pitch":74,"start":163.25,"duration":0.25,"velocity":127,"measure":82,"beat":3.5,"subject_pos":-1,"motif":"","motif_pos":-1,"best_pos":4,"similarity":0.5,"stretto":false,"stretto_voices":0,"combination":[],"aug_dim":"","rhythm_ratio":1.0,"mirror":false,"chromatic_density":0.286,"complexity":0.576,"dissonance":0.116},{"voice":2,"pitch":58,"start":163.25,"duration":0.25,"velocity":127,"measure":82,"beat":3.5,"subject_pos":-1,"motif":"","motif_pos":-1,"best_pos":5,"similarity":0.518,"stretto":false,"stretto_voices":0,"combination":[],"aug_dim":"","rhythm_ratio":1.0,"mirror":false,"chromatic_density":0.286,"complexity":0.576,"dissonance":0.116},{"voice":0,"pitch":76,"start":163.5,"duration":0.25,"velocity":127,"measure":82,"beat":4.0,"subject_pos":-1,"motif":"","motif_pos":-1,"best_pos":5,"similarity":0.607,"stretto":false,"stretto_voices":0,"combination":[],"aug_dim":"","rhythm_ratio":1.0,"mirror":false,"chromatic_density":0.286,"complexity":0.576,"dissonance":0.116},{"voice":2,"pitch":60,"start":163.5,"duration":0.25,"velocity":127,"measure":82,"beat":4.0,"subject_pos":-1,"motif":"","motif_pos":-1,"best_pos":5,"similarity":0.621,"stretto":false,"stretto_voices":0,"combination":[],"aug_dim":"","rhythm_ratio":1.0,"mirror":false,"chromatic_density":0.286,"complexity":0.576,"dissonance":0.116},{"voice":0,"pitch":78,"start":163.75,"duration":0.25,"velocity":127,"measure":82,"beat":4.5,"subject_pos":-1,"motif":"","motif_pos":-1,"best_pos":6,"similarity":0.643,"stretto":false,"stretto_voices":0,"combination":[],"aug_dim":"","rhythm_ratio":1.0,"mirror":false,"chromatic_density":0.286,"complexity":0.576,"dissonance":0.116},{"voice":2,"pitch":62,"start":163.75,"duration":0.25,"velocity":127,"measure":82,"beat":4.5,"subject_pos":-1,"motif":"","motif_pos":-1,"best_pos":6,"similarity":0.65,"stretto":false,"stretto_voices":0,"combination":[],"aug_dim":"","rhythm_ratio":1.0,"mirror":false,"chromatic_density":0.286,"complexity":0.576,"dissonance":0.116},{"voice":0,"pitch":79,"start":164.0,"duration":1.25,"velocity":127,"measure":83,"beat":1.0,"subject_pos":-1,"motif":"","motif_pos":-1,"best_pos":5,"similarity":0.6,"stretto":false,"stretto_voices":0,"combination":[],"aug_dim":"","rhythm_ratio":1.0,"mirror":false,"chromatic_density":0.417,"complexity":0.633,"dissonance":0.137},{"voice":2,"pitch":63,"start":164.0,"duration":1.0,"velocity":127,"measure":83,"beat":1.0,"subject_pos":-1,"motif":"","motif_pos":-1,"best_pos":7,"similarity":0.464,"stretto":false,"stretto_voices":0,"combination":[],"aug_dim":"","rhythm_ratio":1.0,"mirror":false,"chromatic_density":0.417,"complexity":0.633,"dissonance":0.137},{"voice":1,"pitch":69,"start":164.25,"duration":0.25,"velocity":127,"measure":83,"beat":1.5,"subject_pos":-1,"motif":"","motif_pos":-1,"best_pos":4,"similarity":0.571,"stretto":false,"stretto_voices":0,"combination":[],"aug_dim":"","rhythm_ratio":1.0,"mirror":false,"chromatic_density":0.417,"complexity":0.633,"dissonance":0.137},{"voice":3,"pitch":54,"start":164.25,"duration":0.25,"velocity":127,"measure":83,"beat":1.5,"subject_pos":-1,"motif":"tail","motif_pos":4,"best_pos":4,"similarity":1.0,"stretto":false,"stretto_voices":0,"combination":[],"aug_dim":"","rhythm_ratio":1.0,"mirror":false,"chromatic_density":0.417,"complexity":0.633,"dissonance":0.137},{"voice":1,"pitch":70,"start":164.5,"duration":0.25,"velocity":127,"measure":83,"beat":2.0,"subject_pos":-1,"motif":"","motif_pos":-1,"best_pos":5,"similarity":0.679,"stretto":false,"stretto_voices":0,"combination":[],"aug_dim":"","rhythm_ratio":1.0,"mirror":false,"chromatic_density":0.417,"complexity":0.633,"dissonance":0.137},{"voice":3,"pitch":55,"start":164.5,"duration":0.25,"velocity":127,"measure":83,"beat":2.0,"subject_pos":-1,"motif":"tail","motif_pos":5,"best_pos":5,"similarity":1.0,"stretto":false,"stretto_voices":0,"combination":[],"aug_dim":"","rhythm_ratio":1.0,"mirror":false,"chromatic_density":0.417,"complexity":0.633,"dissonance":0.137},{"voice":1,"pitch":72,"start":164.75,"duration":0.25,"velocity":127,"measure":83,"beat":2.5,"subject_pos":-1,"motif":"","motif_pos":-1,"best_pos":6,"similarity":0.571,"stretto":false,"stretto_voices":0,"combination":[],"aug_dim":"","rhythm_ratio":1.0,"mirror":false,"chromatic_density":0.417,"complexity":0.633,"dissonance":0.137},{"voice":3,"pitch":57,"start":164.75,"duration":0.25,"velocity":127,"measure":83,"beat":2.5,"subject_pos":-1,"motif":"tail","motif_pos":6,"best_pos":6,"similarity":1.0,"stretto":false,"stretto_voices":0,"combination":[],"aug_dim":"","rhythm_ratio":1.0,"mirror":false,"chromatic_density":0.417,"complexity":0.633,"dissonance":0.137},{"voice":1,"pitch":74,"start":165.0,"duration":1.0,"velocity":127,"measure":83,"beat":3.0,"subject_pos":-1,"motif":"","motif_pos":-1,"best_pos":6,"similarity":0.375,"stretto":false,"stretto_voices":0,"combination":[],"aug_dim":"","rhythm_ratio":1.0,"mirror":false,"chromatic_density":0.417,"complexity":0.633,"dissonance":0.137},{"voice":2,"pitch":62,"start":165.0,"duration":0.5,"velocity":127,"measure":83,"beat":3.0,"subject_pos":-1,"motif":"head","motif_pos":0,"best_pos":0,"similarity":1.0,"stretto":false,"stretto_voices":0,"combination":[],"aug_dim":"","rhythm_ratio":1.0,"mirror":false,"chromatic_density":0.417,"complexity":0.633,"dissonance":0.137},{"voice":3,"pitch":58,"start":165.0,"duration":0.75,"velocity":127,"measure":83,"beat":3.0,"subject_pos":-1,"motif":"tail","motif_pos":7,"best_pos":7,"similarity":1.0,"stretto":false,"stretto_voices":0,"combination":[],"aug_dim":"","rhythm_ratio":1.0,"mirror":false,"chromatic_density":0.417,"complexity":0.633,"dissonance":0.137},{"voice":0,"pitch":81,"start":165.25,"duration":0.25,"velocity":127,"measure":83,"beat":3.5,"subject_pos":-1,"motif":"","motif_pos":-1,"best_pos":6,"similarity":0.464,"stretto":false,"stretto_voices":0,"combination":[],"aug_dim":"","rhythm_ratio":1.0,"mirror":false,"chromatic_density":0.417,"complexity":0.633,"dissonance":0.137},{"voice":0,"pitch":79,"start":165.5,"duration":0.25,"velocity":127,"measure":83,"beat":4.0,"subject_pos":-1,"motif":"","motif_pos":-1,"best_pos":2,"similarity":0.593,"stretto":false,"stretto_voices":0,"combination":[],"aug_dim":"","rhythm_ratio":1.0,"mirror":false,"chromatic_density":0.417,"complexity":0.633,"dissonance":0.137},{"voice":2,"pitch":67,"start":165.5,"duration":1.0,"velocity":127,"measure":83,"beat":4.0,"subject_pos":-1,"motif":"head","motif_pos":1,"best_pos":1,"similarity":1.0,"stretto":false,"stretto_voices":0,"combination":[],"aug_dim":"","rhythm_ratio":1.0,"mirror":false,"chromatic_density":0.417,"complexity":0.633,"dissonance":0.137},{"voice":0,"pitch":77,"start":165.75,"duration":0.25,"velocity":127,"measure":83,"beat":4.5,"subject_pos":-1,"motif":"","motif_pos":-1,"best_pos":3,"similarity":0.629,"stretto":false,"stretto_voices":0,"combination":[],"aug_dim":"","rhythm_ratio":1.0,"mirror":false,"chromatic_density":0.417,"complexity":0.633,"dissonance":0.137},{"voice":3,"pitch":59,"start":165.75,"duration":0.25,"velocity":127,"measure":83,"beat":4.5,"subject_pos":-1,"motif":"","motif_pos":-1,"best_pos":6,"similarity":0.579,"stretto":false,"stretto_voices":0,"combination":[],"aug_dim":"","rhythm_ratio":1.0,"mirror":false,"chromatic_density":0.417,"complexity":0.633,"dissonance":0.137},{"voice":0,"pitch":76,"start":166.0,"duration":0.25,"velocity":127,"measure":84,"beat":1.0,"subject_pos":-1,"motif":"","motif_pos":-1,"best_pos":4,"similarity":0.536,"stretto":false,"stretto_voices":0,"combination":[],"aug_dim":"","rhythm_ratio":1.0,"mirror":false,"chromatic_density":0.333,"complexity":0.657,"dissonance":0.067},{"voice":1,"pitch":69,"start":166.0,"duration":1.25,"velocity":127,"measure":84,"beat":1.0,"subject_pos":-1,"motif":"","motif_pos":-1,"best_pos":3,"similarity":0.321,"stretto":false,"stretto_voices":0,"combination":[],"aug_dim":"","rhythm_ratio":1.0,"mirror":false,"chromatic_density":0.333,"complexity":0.657,"dissonance":0.067},{"voice":3,"pitch":60,"start":166.0,"duration":0.25,"velocity":127,"measure":84,"beat":1.0,"subject_pos":-1,"motif":"","motif_pos":-1,"best_pos":7,"similarity":0.429,"stretto":false,"stretto_voices":0,"combination":[],"aug_dim":"","rhythm_ratio":1.0,"mirror":false,"chromatic_density":0.333,"complexity":0.657,"dissonance":0.067},{"voice":0,"pitch":73,"start":166.25,"duration":0.25,"velocity":127,"measure":84,"beat":1.5,"subject_pos":-1,"motif":"","motif_pos":-1,"best_pos":4,"similarity":0.479,"stretto":false,"stretto_voices":0,"combination":[],"aug_dim":"","rhythm_ratio":1.0,"mirror":false,"chromatic_density":0.333,"complexity":0.657,"dissonance":0.067},{"voice":3,"pitch":57,"start":166.25,"duration":0.25,"velocity":127,"measure":84,"beat":1.5,"subject_pos":-1,"motif":"head","motif_pos":0,"best_pos":0,"similarity":1.0,"stretto":false,"stretto_voices":0,"combination":[],"aug_dim":"","rhythm_ratio":1.0,"mirror":false,"chromatic_density":0.333,"complexity":0.657,"dissonance":0.067},{"voice":0,"pitch":74,"start":166.5,"duration":1.25,"velocity":127,"measure":84,"beat":2.0,"subject_pos":-1,"motif":"","motif_pos":-1,"best_pos":5,"similarity":0.368,"stretto":false,"stretto_voices":0,"combination":[],"aug_dim":"","rhythm_ratio":1.0,"mirror":false,"chromatic_density":0.333,"complexity":0.657,"dissonance":0.067},{"voice":2,"pitch":65,"start":166.5,"duration":0.25,"velocity":127,"measure":84,"beat":2.0,"subject_pos":-1,"motif":"head","motif_pos":2,"best_pos":2,"similarity":1.0,"stretto":false,"stretto_voices":0,"combination":[],"aug_dim":"","rhythm_ratio":1.0,"mirror":false,"chromatic_density":0.333,"complexity":0.657,"dissonance":0.067},{"voice":3,"pitch":62,"start":166.5,"duration":0.25,"velocity":127,"measure":84,"beat":2.0,"subject_pos":-1,"motif":"head","motif_pos":1,"best_pos":1,"similarity":1.0,"stretto":false,"stretto_voices":0,"combination":[],"aug_dim":"","rhythm_ratio":1.0,"mirror":false,"chromatic_density":0.333,"complexity":0.657,"dissonance":0.067},{"voice":2,"pitch":64,"start":166.75,"duration":0.25,"velocity":127,"measure":84,"beat":2.5,"subject_pos":-1,"motif":"head","motif_pos":3,"best_pos":3,"similarity":1.0,"stretto":false,"stretto_voices":0,"combination":[],"aug_dim":"","rhythm_ratio":1.0,"mirror":false,"chromatic_density":0.333,"complexity":0.657,"dissonance":0.067},{"voice":3,"pitch":60,"start":166.75,"duration":0.25,"velocity":127,"measure":84,"beat":2.5,"subject_pos":-1,"motif":"head","motif_pos":2,"best_pos":2,"similarity":1.0,"stretto":false,"stretto_voices":0,"combination":[],"aug_dim":"","rhythm_ratio":1.0,"mirror":false,"chromatic_density":0.333,"complexity":0.657,"dissonance":0.067},{"voice":2,"pitch":62,"start":167.0,"duration":0.25,"velocity":127,"measure":84,"beat":3.0,"subject_pos":-1,"motif":"head","motif_pos":4,"best_pos":4,"similarity":1.0,"stretto":false,"stretto_voices":0,"combination":[],"aug_dim":"","rhythm_ratio":1.0,"mirror":false,"chromatic_density":0.333,"complexity":0.657,"dissonance":0.067},{"voice":3,"pitch":59,"start":167.0,"duration":0.25,"velocity":127,"measure":84,"beat":3.0,"subject_pos":-1,"motif":"head","motif_pos":3,"best_pos":3,"similarity":1.0,"stretto":false,"stretto_voices":0,"combination":[],"aug_dim":"","rhythm_ratio":1.0,"mirror":false,"chromatic_density":0.333,"complexity":0.657,"dissonance":0.067},{"voice":1,"pitch":69,"start":167.25,"duration":0.25,"velocity":127,"measure":84,"beat":3.5,"subject_pos":-1,"motif":"","motif_pos":-1,"best_pos":4,"similarity":0.429,"stretto":false,"stretto_voices":0,"combination":[],"aug_dim":"","rhythm_ratio":1.0,"mirror":false,"chromatic_density":0.333,"complexity":0.657,"dissonance":0.067},{"voice":2,"pitch":65,"start":167.25,"duration":0.25,"velocity":127,"measure":84,"beat":3.5,"subject_pos":-1,"motif":"","motif_pos":-1,"best_pos":3,"similarity":0.514,"stretto":false,"stretto_voices":0,"combination":[],"aug_dim":"","rhythm_ratio":1.0,"mirror":false,"chromatic_density":0.333,"complexity":0.657,"dissonance":0.067},{"voice":3,"pitch":57,"start":167.25,"duration":0.25,"velocity":127,"measure":84,"beat":3.5,"subject_pos":-1,"motif":"head","motif_pos":4,"best_pos":4,"similarity":1.0,"stretto":false,"stretto_voices":0,"combination":[],"aug_dim":"","rhythm_ratio":1.0,"mirror":false,"chromatic_density":0.333,"complexity":0.657,"dissonance":0.067},{"voice":1,"pitch":67,"start":167.5,"duration":0.75,"velocity":127,"measure":84,"beat":4.0,"subject_pos":-1,"motif":"","motif_pos":-1,"best_pos":5,"similarity":0.546,"stretto":false,"stretto_voices":0,"combination":[],"aug_dim":"","rhythm_ratio":1.0,"mirror":false,"chromatic_density":0.333,"complexity":0.657,"dissonance":0.067},{"voice":2,"pitch":64,"start":167.5,"duration":0.25,"velocity":127,"measure":84,"beat":4.0,"subject_pos":-1,"motif":"","motif_pos":-1,"best_pos":4,"similarity":0.6,"stretto":false,"stretto_voices":0,"combination":[],"aug_dim":"","rhythm_ratio":1.0,"mirror":false,"chromatic_density":0.333,"complexity":0.657,"dissonance":0.067},{"voice":3,"pitch":58,"start":167.5,"duration":0.75,"velocity":127,"measure":84,"beat":4.0,"subject_pos":-1,"motif":"","motif_pos":-1,"best_pos":3,"similarity":0.529,"stretto":false,"stretto_voices":0,"combination":[],"aug_dim":"","rhythm_ratio":1.0,"mirror":false,"chromatic_density":0.333,"complexity":0.657,"dissonance":0.067},{"voice":0,"pitch":79,"start":167.75,"duration":0.25,"velocity":127,"measure":84,"beat":4.5,"subject_pos":-1,"motif":"","motif_pos":-1,"best_pos":1,"similarity":0.443,"stretto":false,"stretto_voices":0,"combination":[],"aug_dim":"","rhythm_ratio":1.0,"mirror":false,"chromatic_density":0.333,"complexity":0.657,"dissonance":0.067},{"voice":2,"pitch":62,"start":167.75,"duration":0.25,"velocity":127,"measure":84,"beat":4.5,"subject_pos":-1,"motif":"","motif_pos":-1,"best_pos":5,"similarity":0.6,"stretto":false,"stretto_voices":0,"combination":[],"aug_dim":"","rhythm_ratio":1.0,"mirror":false,"chromatic_density":0.333,"complexity":0.657,"dissonance":0.067},{"voice":0,"pitch":73,"start":168.0,"duration":0.5,"velocity":127,"measure":85,"beat":1.0,"subject_pos":-1,"motif":"","motif_pos":-1,"best_pos":2,"similarity":0.457,"stretto":false,"stretto_voices":0,"combination":[],"aug_dim":"","rhythm_ratio":1.0,"mirror":false,"chromatic_density":0.667,"complexity":0.514,"dissonance":0.095},{"voice":2,"pitch":64,"start":168.0,"duration":0.5,"velocity":127,"measure":85,"beat":1.0,"subject_pos":-1,"motif":"","motif_pos":-1,"best_pos":6,"similarity":0.657,"stretto":false,"stretto_voices":0,"combination":[],"aug_dim":"","rhythm_ratio":1.0,"mirror":false,"chromatic_density":0.667,"complexity":0.514,"dissonance":0.095},{"voice":1,"pitch":69,"start":168.25,"duration":0.25,"velocity":127,"measure":85,"beat":1.5,"subject_pos":-1,"motif":"","motif_pos":-1,"best_pos":6,"similarity":0.621,"stretto":false,"stretto_voices":0,"combination":[],"aug_dim":"","rhythm_ratio":1.0,"mirror":false,"chromatic_density":0.667,"complexity":0.514,"dissonance":0.095},{"voice":3,"pitch":57,"start":168.25,"duration":0.5,"velocity":127,"measure":85,"beat":1.5,"subject_pos":-1,"motif":"","motif_pos":-1,"best_pos":3,"similarity":0.514,"stretto":false,"stretto_voices":0,"combination":[],"aug_dim":"","rhythm_ratio":1.0,"mirror":false,"chromatic_density":0.667,"complexity":0.514,"dissonance":0.095},{"voice":0,"pitch":74,"start":168.5,"duration":1.0,"velocity":127,"measure":85,"beat":2.0,"subject_pos":-1,"motif":"","motif_pos":-1,"best_pos":3,"similarity":0.582,"stretto":false,"stretto_voices":0,"combination":[],"aug_dim":"","rhythm_ratio":1.0,"mirror":false,"chromatic_density":0.667,"complexity":0.514,"dissonance":0.095},{"voice":1,"pitch":70,"start":168.5,"duration":0.5,"velocity":127,"measure":85,"beat":2.0,"subject_pos":-1,"motif":"","motif_pos":-1,"best_pos":7,"similarity":0.436,"stretto":false,"stretto_voices":0,"combination":[],"aug_dim":"","rhythm_ratio":1.0,"mirror":false,"chromatic_density":0.667,"complexity":0.514,"dissonance":0.095},{"voice":2,"pitch":65,"start":168.5,"duration":0.5,"velocity":127,"measure":85,"beat":2.0,"subject_pos":-1,"motif":"","motif_pos":-1,"best_pos":7,"similarity":0.436,"stretto":false,"stretto_voices":0,"combination":[],"aug_dim":"","rhythm_ratio":1.0,"mirror":false,"chromatic_density":0.667,"complexity":0.514,"dissonance":0.095},{"voice":3,"pitch":56,"start":168.75,"duration":0.25,"velocity":127,"measure":85,"beat":2.5,"subject_pos":-1,"motif":"","motif_pos":-1,"best_pos":4,"similarity":0.614,"stretto":false,"stretto_voices":0,"combination":[],"aug_dim":"","rhythm_ratio":1.0,"mirror":false,"chromatic_density":0.667,"complexity":0.514,"dissonance":0.095},{"voice":1,"pitch":69,"start":169.0,"duration":0.75,"velocity":127,"measure":85,"beat":3.0,"subject_pos":-1,"motif":"","motif_pos":-1,"best_pos":1,"similarity":0.464,"stretto":false,"stretto_voices":0,"combination":[],"aug_dim":"","rhythm_ratio":1.0,"mirror":false,"chromatic_density":0.667,"complexity":0.514,"dissonance":0.095},{"voice":2,"pitch":64,"start":169.0,"duration":0.25,"velocity":127,"measure":85,"beat":3.0,"subject_pos":-1,"motif":"","motif_pos":-1,"best_pos":4,"similarity":0.486,"stretto":false,"stretto_voices":0,"combination":[],"aug_dim":"","rhythm_ratio":1.0,"mirror":false,"chromatic_density":0.667,"complexity":0.514,"dissonance":0.095},{"voice":3,"pitch":57,"start":169.0,"duration":0.5,"velocity":127,"measure":85,"beat":3.0,"subject_pos":-1,"motif":"","motif_pos":-1,"best_pos":5,"similarity":0.446,"stretto":false,"stretto_voices":0,"combination":[],"aug_dim":"","rhythm_ratio":1.0,"mirror":false,"chromatic_density":0.667,"complexity":0.514,"dissonance":0.095},{"voice":2,"pitch":62,"start":169.25,"duration":0.25,"velocity":127,"measure":85,"beat":3.5,"subject_pos":-1,"motif":"","motif_pos":-1,"best_pos":5,"similarity":0.479,"stretto":false,"stretto_voices":0,"combination":[],"aug_dim":"","rhythm_ratio":1.0,"mirror":false,"chromatic_density":0.667,"complexity":0.514,"dissonance":0.095},{"voice":0,"pitch":73,"start":169.5,"duration":0.5,"velocity":127,"measure":85,"beat":4.0,"subject_pos":-1,"motif":"","motif_pos":-1,"best_pos":4,"similarity":0.646,"stretto":false,"stretto_voices":0,"combination":[],"aug_dim":"","rhythm_ratio":1.0,"mirror":false,"chromatic_density":0.667,"complexity":0.514,"dissonance":0.095},{"voice":2,"pitch":64,"start":169.5,"duration":0.5,"velocity":127,"measure":85,"beat":4.0,"subject_pos":-1,"motif":"","motif_pos":-1,"best_pos":6,"similarity":0.4,"stretto":false,"stretto_voices":0,"combination":[],"aug_dim":"","rhythm_ratio":1.0,"mirror":false,"chromatic_density":0.667,"complexity":0.514,"dissonance":0.095},{"voice":3,"pitch":45,"start":169.5,"duration":0.5,"velocity":127,"measure":85,"beat":4.0,"subject_pos":-1,"motif":"","motif_pos":-1,"best_pos":6,"similarity":0.214,"stretto":false,"stretto_voices":0,"combination":[],"aug_dim":"","rhythm_ratio":1.0,"mirror":false,"chromatic_density":0.667,"complexity":0.514,"dissonance":0.095},{"voice":1,"pitch":67,"start":169.75,"duration":0.5,"velocity":127,"measure":85,"beat":4.5,"subject_pos":-1,"motif":"","motif_pos":-1,"best_pos":2,"similarity":0.65,"stretto":false,"stretto_voices":0,"combination":[],"aug_dim":"","rhythm_ratio":1.0,"mirror":false,"chromatic_density":0.667,"complexity":0.514,"dissonance":0.095},{"voice":0,"pitch":74,"start":170.0,"duration":1.0,"velocity":127,"measure":86,"beat":1.0,"subject_pos":-1,"motif":"","motif_pos":-1,"best_pos":5,"similarity":0.521,"stretto":false,"stretto_voices":0,"combination":[],"aug_dim":"","rhythm_ratio":1.0,"mirror":false,"chromatic_density":0.091,"complexity":0.585,"dissonance":0.084},{"voice":1,"pitch":62,"start":170.0,"duration":1.0,"velocity":127,"measure":86,"beat":1.0,"subject_pos":-1,"motif":"","motif_pos":-1,"best_pos":4,"similarity":0.464,"stretto":false,"stretto_voices":0,"combination":[],"aug_dim":"","rhythm_ratio":1.0,"mirror":false,"chromatic_density":0.091,"complexity":0.585,"dissonance":0.084},{"voice":2,"pitch":62,"start":170.0,"duration":1.0,"velocity":127,"measure":86,"beat":1.0,"subject_pos":-1,"motif":"","motif_pos":-1,"best_pos":4,"similarity":0.429,"stretto":false,"stretto_voices":0,"combination":[],"aug_dim":"","rhythm_ratio":1.0,"mirror":false,"chromatic_density":0.091,"complexity":0.585,"dissonance":0.084},{"voice":3,"pitch":57,"start":170.0,"duration":1.0,"velocity":127,"measure":86,"beat":1.0,"subject_pos":-1,"motif":"","motif_pos":-1,"best_pos":3,"similarity":0.15,"stretto":false,"stretto_voices":0,"combination":[],"aug_dim":"","rhythm_ratio":1.0,"mirror":false,"chromatic_density":0.091,"complexity":0.585,"dissonance":0.084},{"voice":3,"pitch":50,"start":170.0,"duration":1.0,"velocity":127,"measure":86,"beat":1.0,"subject_pos":-1,"motif":"","motif_pos":-1,"best_pos":4,"similarity":0.321,"stretto":false,"stretto_voices":0,"combination":[],"aug_dim":"","rhythm_ratio":1.0,"mirror":false,"chromatic_density":0.091,"complexity":0.585,"dissonance":0.084},{"voice":1,"pitch":64,"start":170.25,"duration":0.25,"velocity":127,"measure":86,"beat":1.5,"subject_pos":-1,"motif":"","motif_pos":-1,"best_pos":3,"similarity":0.621,"stretto":false,"stretto_voices":0,"combination":[],"aug_dim":"","rhythm_ratio":1.0,"mirror":false,"chromatic_density":0.091,"complexity":0.585,"dissonance":0.084},{"voice":1,"pitch":66,"start":170.5,"duration":0.5,"velocity":127,"measure":86,"beat":2.0,"subject_pos":-1,"motif":"","motif_pos":-1,"best_pos":5,"similarity":0.329,"stretto":false,"stretto_voices":0,"combination":[],"aug_dim":"","rhythm_ratio":1.0,"mirror":false,"chromatic_density":0.091,"complexity":0.585,"dissonance":0.084},{"voice":1,"pitch":69,"start":171.0,"duration":0.75,"velocity":127,"measure":86,"beat":3.0,"subject_pos":-1,"motif":"","motif_pos":-1,"best_pos":1,"similarity":0.429,"stretto":false,"stretto_voices":0,"combination":[],"aug_dim":"","rhythm_ratio":1.0,"mirror":false,"chromatic_density":0.091,"complexity":0.585,"dissonance":0.084},{"voice":3,"pitch":50,"start":171.0,"duration":0.75,"velocity":127,"measure":86,"beat":3.0,"subject_pos":-1,"motif":"","motif_pos":-1,"best_pos":5,"similarity":0.5,"stretto":false,"stretto_voices":0,"combination":[],"aug_dim":"","rhythm_ratio":1.0,"mirror":false,"chromatic_density":0.091,"complexity":0.585,"dissonance":0.084},{"voice":0,"pitch":74,"start":171.25,"duration":0.25,"velocity":127,"measure":86,"beat":3.5,"subject_pos":-1,"motif":"","motif_pos":-1,"best_pos":1,"similarity":0.429,"stretto":false,"stretto_voices":0,"combination":[],"aug_dim":"","rhythm_ratio":1.0,"mirror":false,"chromatic_density":0.091,"complexity":0.585,"dissonance":0.084},{"voice":2,"pitch":52,"start":171.25,"duration":0.25,"velocity":127,"measure":86,"beat":3.5,"subject_pos":-1,"motif":"","motif_pos":-1,"best_pos":5,"similarity":0.5,"stretto":false,"stretto_voices":0,"combination":[],"aug_dim":"","rhythm_ratio":1.0,"mirror":false,"chromatic_density":0.091,"complexity":0.585,"dissonance":0.084},{"voice":0,"pitch":72,"start":171.5,"duration":0.25,"velocity":127,"measure":86,"beat":4.0,"subject_pos":-1,"motif":"","motif_pos":-1,"best_pos":2,"similarity":0.643,"stretto":false,"stretto_voices":0,"combination":[],"aug_dim":"","rhythm_ratio":1.0,"mirror":false,"chromatic_density":0.091,"complexity":0.585,"dissonance":0.084},{"voice":2,"pitch":54,"start":171.5,"duration":0.25,"velocity":127,"measure":86,"beat":4.0,"subject_pos":-1,"motif":"","motif_pos":-1,"best_pos":6,"similarity":0.607,"stretto":false,"stretto_voices":0,"combination":[],"aug_dim":"","rhythm_ratio":1.0,"mirror":false,"chromatic_density":0.091,"complexity":0.585,"dissonance":0.084},{"voice":0,"pitch":70,"start":171.75,"duration":0.25,"velocity":127,"measure":86,"beat":4.5,"subject_pos":-1,"motif":"","motif_pos":-1,"best_pos":3,"similarity":0.721,"stretto":false,"stretto_voices":0,"combination":[],"aug_dim":"","rhythm_ratio":1.0,"mirror":false,"chromatic_density":0.091,"complexity":0.585,"dissonance":0.084},{"voice":1,"pitch":67,"start":171.75,"duration":0.25,"velocity":127,"measure":86,"beat":4.5,"subject_pos":-1,"motif":"","motif_pos":-1,"best_pos":3,"similarity":0.486,"stretto":false,"stretto_voices":0,"combination":[],"aug_dim":"","rhythm_ratio":1.0,"mirror":false,"chromatic_density":0.091,"complexity":0.585,"dissonance":0.084},{"voice":2,"pitch":55,"start":171.75,"duration":0.25,"velocity":127,"measure":86,"beat":4.5,"subject_pos":-1,"motif":"","motif_pos":-1,"best_pos":5,"similarity":0.6,"stretto":false,"stretto_voices":0,"combination":[],"aug_dim":"","rhythm_ratio":1.0,"mirror":false,"chromatic_density":0.091,"complexity":0.585,"dissonance":0.084},{"voice":3,"pitch":52,"start":171.75,"duration":0.25,"velocity":127,"measure":86,"beat":4.5,"subject_pos":-1,"motif":"","motif_pos":-1,"best_pos":5,"similarity":0.507,"stretto":false,"stretto_voices":0,"combination":[],"aug_dim":"","rhythm_ratio":1.0,"mirror":false,"chromatic_density":0.091,"complexity":0.585,"dissonance":0.084},{"voice":0,"pitch":69,"start":172.0,"duration":0.25,"velocity":127,"measure":87,"beat":1.0,"subject_pos":-1,"motif":"tail_inv","motif_pos":0,"best_pos":0,"similarity":1.0,"stretto":false,"stretto_voices":0,"combination":[],"aug_dim":"","rhythm_ratio":1.0,"mirror":false,"chromatic_density":0.316,"complexity":0.652,"dissonance":0.154},{"voice":1,"pitch":66,"start":172.0,"duration":0.75,"velocity":127,"measure":87,"beat":1.0,"subject_pos":-1,"motif":"","motif_pos":-1,"best_pos":1,"similarity":0.429,"stretto":false,"stretto_voices":0,"combination":[],"aug_dim":"","rhythm_ratio":1.0,"mirror":false,"chromatic_density":0.316,"complexity":0.652,"dissonance":0.154},{"voice":2,"pitch":57,"start":172.0,"duration":0.25,"velocity":127,"measure":87,"beat":1.0,"subject_pos":-1,"motif":"","motif_pos":-1,"best_pos":6,"similarity":0.464,"stretto":false,"stretto_voices":0,"combination":[],"aug_dim":"","rhythm_ratio":1.0,"mirror":false,"chromatic_density":0.316,"complexity":0.652,"dissonance":0.154},{"voice":3,"pitch":54,"start":172.0,"duration":0.75,"velocity":127,"measure":87,"beat":1.0,"subject_pos":-1,"motif":"","motif_pos":-1,"best_pos":6,"similarity":0.393,"stretto":false,"stretto_voices":0,"combination":[],"aug_dim":"","rhythm_ratio":1.0,"mirror":false,"chromatic_density":0.316,"complexity":0.652,"dissonance":0.154},{"voice":3,"pitch":50,"start":172.0,"duration":1.0,"velocity":127,"measure":87,"beat":1.0,"subject_pos":-1,"motif":"","motif_pos":-1,"best_pos":2,"similarity":0.386,"stretto":false,"stretto_voices":0,"combination":[],"aug_dim":"","rhythm_ratio":1.0,"mirror":false,"chromatic_density":0.316,"complexity":0.652,"dissonance":0.154},{"voice":0,"pitch":70,"start":172.25,"duration":0.25,"velocity":127,"measure":87,"beat":1.5,"subject_pos":-1,"motif":"tail_inv","motif_pos":1,"best_pos":1,"similarity":1.0,"stretto":false,"stretto_voices":0,"combination":[],"aug_dim":"","rhythm_ratio":1.0,"mirror":false,"chromatic_density":0.316,"complexity":0.652,"dissonance":0.154},{"voice":2,"pitch":55,"start":172.25,"duration":0.25,"velocity":127,"measure":87,"beat":1.5,"subject_pos":-1,"motif":"","motif_pos":-1,"best_pos":5,"similarity":0.479,"stretto":false,"stretto_voices":0,"combination":[],"aug_dim":"","rhythm_ratio":1.0,"mirror":false,"chromatic_density":0.316,"complexity":0.652,"dissonance":0.154},{"voice":0,"pitch":69,"start":172.5,"duration":0.25,"velocity":127,"measure":87,"beat":2.0,"subject_pos":-1,"motif":"tail_inv","motif_pos":2,"best_pos":2,"similarity":1.0,"stretto":false,"stretto_voices":0,"combination":[],"aug_dim":"","rhythm_ratio":1.0,"mirror":false,"chromatic_density":0.316,"complexity":0.652,"dissonance":0.154},{"voice":2,"pitch":57,"start":172.5,"duration":0.25,"velocity":127,"measure":87,"beat":2.0,"subject_pos":-1,"motif":"","motif_pos":-1,"best_pos":6,"similarity":0.593,"stretto":false,"stretto_voices":0,"combination":[],"aug_dim":"","rhythm_ratio":1.0,"mirror":false,"chromatic_density":0.316,"complexity":0.652,"dissonance":0.154},{"voice":0,"pitch":67,"start":172.75,"duration":0.25,"velocity":127,"measure":87,"beat":2.5,"subject_pos":-1,"motif":"tail_inv","motif_pos":3,"best_pos":3,"similarity":1.0,"stretto":false,"stretto_voices":0,"combination":[],"aug_dim":"","rhythm_ratio":1.0,"mirror":false,"chromatic_density":0.316,"complexity":0.652,"dissonance":0.154},{"voice":1,"pitch":64,"start":172.75,"duration":0.25,"velocity":127,"measure":87,"beat":2.5,"subject_pos":-1,"motif":"","motif_pos":-1,"best_pos":2,"similarity":0.643,"stretto":false,"stretto_voices":0,"combination":[],"aug_dim":"","rhythm_ratio":1.0,"mirror":false,"chromatic_density":0.316,"complexity":0.652,"dissonance":0.154},{"voice":2,"pitch":58,"start":172.75,"duration":0.25,"velocity":127,"measure":87,"beat":2.5,"subject_pos":-1,"motif":"","motif_pos":-1,"best_pos":5,"similarity":0.636,"stretto":false,"stretto_voices":0,"combination":[],"aug_dim":"","rhythm_ratio":1.0,"mirror":false,"chromatic_density":0.316,"complexity":0.652,"dissonance":0.154},{"voice":3,"pitch":55,"start":172.75,"duration":0.25,"velocity":127,"measure":87,"beat":2.5,"subject_pos":-1,"motif":"","motif_pos":-1,"best_pos":5,"similarity":0.471,"stretto":false,"stretto_voices":0,"combination":[],"aug_dim":"","rhythm_ratio":1.0,"mirror":false,"chromatic_density":0.316,"complexity":0.652,"dissonance":0.154},{"voice":0,"pitch":66,"start":173.0,"duration":0.25,"velocity":127,"measure":87,"beat":3.0,"subject_pos":-1,"motif":"tail_inv","motif_pos":4,"best_pos":4,"similarity":1.0,"stretto":false,"stretto_voices":0,"combination":[],"aug_dim":"","rhythm_ratio":1.0,"mirror":false,"chromatic_density":0.316,"complexity":0.652,"dissonance":0.154},{"voice":1,"pitch":62,"start":173.0,"duration":1.0,"velocity":127,"measure":87,"beat":3.0,"subject_pos":-1,"motif":"","motif_pos":-1,"best_pos":3,"similarity":0.786,"stretto":false,"stretto_voices":0,"combination":[],"aug_dim":"","rhythm_ratio":1.0,"mirror":false,"chromatic_density":0.316,"complexity":0.652,"dissonance":0.154},{"voice":2,"pitch":60,"start":173.0,"duration":0.25,"velocity":127,"measure":87,"beat":3.0,"subject_pos":-1,"motif":"","motif_pos":-1,"best_pos":6,"similarity":0.464,"stretto":false,"stretto_voices":0,"combination":[],"aug_dim":"","rhythm_ratio":1.0,"mirror":false,"chromatic_density":0.316,"complexity":0.652,"dissonance":0.154},{"voice":3,"pitch":57,"start":173.0,"duration":1.0,"velocity":127,"measure":87,"beat":3.0,"subject_pos":-1,"motif":"","motif_pos":-1,"best_pos":6,"similarity":0.593,"stretto":false,"stretto_voices":0,"combination":[],"aug_dim":"","rhythm_ratio":1.0,"mirror":false,"chromatic_density":0.316,"complexity":0.652,"dissonance":0.154},{"voice":0,"pitch":67,"start":173.25,"duration":0.25,"velocity":127,"measure":87,"beat":3.5,"subject_pos":-1,"motif":"","motif_pos":-1,"best_pos":5,"similarity":0.529,"stretto":false,"stretto_voices":0,"combination":[],"aug_dim":"","rhythm_ratio":1.0,"mirror":false,"chromatic_density":0.316,"complexity":0.652,"dissonance":0.154},{"voice":2,"pitch":58,"start":173.25,"duration":0.25,"velocity":127,"measure":87,"beat":3.5,"subject_pos":-1,"motif":"","motif_pos":-1,"best_pos":2,"similarity":0.371,"stretto":false,"stretto_voices":0,"combination":[],"aug_dim":"","rhythm_ratio":1.0,"mirror":false,"chromatic_density":0.316,"complexity":0.652,"dissonance":0.154},{"voice":0,"pitch":66,"start":173.5,"duration":0.25,"velocity":127,"measure":87,"beat":4.0,"subject_pos":-1,"motif":"","motif_pos":-1,"best_pos":4,"similarity":0.414,"stretto":false,"stretto_voices":0,"combination":[],"aug_dim":"","rhythm_ratio":1.0,"mirror":false,"chromatic_density":0.316,"complexity":0.652,"dissonance":0.154},{"voice":2,"pitch":60,"start":173.5,"duration":0.25,"velocity":127,"measure":87,"beat":4.0,"subject_pos":-1,"motif":"","motif_pos":-1,"best_pos":3,"similarity":0.364,"stretto":false,"stretto_voices":0,"combination":[],"aug_dim":"","rhythm_ratio":1.0,"mirror":false,"chromatic_density":0.316,"complexity":0.652,"dissonance":0.154},{"voice":0,"pitch":69,"start":173.75,"duration":0.25,"velocity":127,"measure":87,"beat":4.5,"subject_pos":-1,"motif":"","motif_pos":-1,"best_pos":1,"similarity":0.293,"stretto":false,"stretto_voices":0,"combination":[],"aug_dim":"","rhythm_ratio":1.0,"mirror":false,"chromatic_density":0.316,"complexity":0.652,"dissonance":0.154},{"voice":2,"pitch":54,"start":173.75,"duration":0.25,"velocity":127,"measure":87,"beat":4.5,"subject_pos":-1,"motif":"","motif_pos":-1,"best_pos":4,"similarity":0.507,"stretto":false,"stretto_voices":0,"combination":[],"aug_dim":"","rhythm_ratio":1.0,"mirror":false,"chromatic_density":0.316,"complexity":0.652,"dissonance":0.154},{"voice":0,"pitch":64,"start":174.0,"duration":0.25,"velocity":127,"measure":88,"beat":1.0,"subject_pos":-1,"motif":"","motif_pos":-1,"best_pos":2,"similarity":0.354,"stretto":false,"stretto_voices":0,"combination":[],"aug_dim":"","rhythm_ratio":1.0,"mirror":false,"chromatic_density":0.167,"complexity":0.732,"dissonance":0.173},{"voice":1,"pitch":61,"start":174.0,"duration":1.0,"velocity":127,"measure":88,"beat":1.0,"subject_pos":-1,"motif":"","motif_pos":-1,"best_pos":4,"similarity":0.893,"stretto":false,"stretto_voices":0,"combination":[],"aug_dim":"","rhythm_ratio":1.0,"mirror":false,"chromatic_density":0.167,"complexity":0.732,"dissonance":0.173},{"voice":2,"pitch":55,"start":174.0,"duration":0.25,"velocity":127,"measure":88,"beat":1.0,"subject_pos":-1,"motif":"","motif_pos":-1,"best_pos":5,"similarity":0.586,"stretto":false,"stretto_voices":0,"combination":[],"aug_dim":"","rhythm_ratio":1.0,"mirror":false,"chromatic_density":0.167,"complexity":0.732,"dissonance":0.173},{"voice":3,"pitch":58,"start":174.0,"duration":1.0,"velocity":127,"measure":88,"beat":1.0,"subject_pos":-1,"motif":"","motif_pos":-1,"best_pos":7,"similarity":0.436,"stretto":false,"stretto_voices":0,"combination":[],"aug_dim":"","rhythm_ratio":1.0,"mirror":false,"chromatic_density":0.167,"complexity":0.732,"dissonance":0.173},{"voice":3,"pitch":50,"start":174.0,"duration":1.0,"velocity":127,"measure":88,"beat":1.0,"subject_pos":-1,"motif":"","motif_pos":-1,"best_pos":0,"similarity":0.436,"stretto":false,"stretto_voices":0,"combination":[],"aug_dim":"","rhythm_ratio":1.0,"mirror":false,"chromatic_density":0.167,"complexity":0.732,"dissonance":0.173},{"voice":0,"pitch":62,"start":174.25,"duration":0.25,"velocity":127,"measure":88,"beat":1.5,"subject_pos":-1,"motif":"","motif_pos":-1,"best_pos":4,"similarity":0.411,"stretto":false,"stretto_voices":0,"combination":[],"aug_dim":"","rhythm_ratio":1.0,"mirror":false,"chromatic_density":0.167,"complexity":0.732,"dissonance":0.173},{"voice":2,"pitch":57,"start":174.25,"duration":0.25,"velocity":127,"measure":88,"beat":1.5,"subject_pos":-1,"motif":"","motif_pos":-1,"best_pos":1,"similarity":0.457,"stretto":false,"stretto_voices":0,"combination":[],"aug_dim":"","rhythm_ratio":1.0,"mirror":false,"chromatic_density":0.167,"complexity":0.732,"dissonance":0.173},{"voice":0,"pitch":64,"start":174.5,"duration":0.25,"velocity":127,"measure":88,"beat":2.0,"subject_pos":-1,"motif":"","motif_pos":-1,"best_pos":5,"similarity":0.411,"stretto":false,"stretto_voices":0,"combination":[],"aug_dim":"","rhythm_ratio":1.0,"mirror":false,"chromatic_density":0.167,"complexity":0.732,"dissonance":0.173},{"voice":2,"pitch":55,"start":174.5,"duration":0.25,"velocity":127,"measure":88,"beat":2.0,"subject_pos":-1,"motif":"","motif_pos":-1,"best_pos":2,"similarity":0.593,"stretto":false,"stretto_voices":0,"combination":[],"aug_dim":"","rhythm_ratio":1.0,"mirror":false,"chromatic_density":0.167,"complexity":0.732,"dissonance":0.173},{"voice":0,"pitch":67,"start":174.75,"duration":0.25,"velocity":127,"measure":88,"beat":2.5,"subject_pos":-1,"motif":"enigmatic_cell","motif_pos":0,"best_pos":0,"similarity":1.0,"stretto":false,"stretto_voices":0,"combination":[],"aug_dim":"","rhythm_ratio":1.0,"mirror":false,"chromatic_density":0.167,"complexity":0.732,"dissonance":0.173},{"voice":2,"pitch":52,"start":174.75,"duration":0.25,"velocity":127,"measure":88,"beat":2.5,"subject_pos":-1,"motif":"head","motif_pos":0,"best_pos":0,"similarity":1.0,"stretto":false,"stretto_voices":0,"combination":[],"aug_dim":"","rhythm_ratio":1.0,"mirror":false,"chromatic_density":0.167,"complexity":0.732,"dissonance":0.173},{"voice":0,"pitch":66,"start":175.0,"duration":0.25,"velocity":127,"measure":88,"beat":3.0,"subject_pos":-1,"motif":"enigmatic_cell","motif_pos":1,"best_pos":1,"similarity":1.0,"stretto":false,"stretto_voices":0,"combination":[],"aug_dim":"","rhythm_ratio":1.0,"mirror":false,"chromatic_density":0.167,"complexity":0.732,"dissonance":0.173},{"voice":1,"pitch":62,"start":175.0,"duration":0.75,"velocity":127,"measure":88,"beat":3.0,"subject_pos":-1,"motif":"","motif_pos":-1,"best_pos":5,"similarity":0.821,"stretto":false,"stretto_voices":0,"combination":[],"aug_dim":"","rhythm_ratio":1.0,"mirror":false,"chromatic_density":0.167,"complexity":0.732,"dissonance":0.173},{"voice":2,"pitch":57,"start":175.0,"duration":0.25,"velocity":127,"measure":88,"beat":3.0,"subject_pos":-1,"motif":"head","motif_pos":1,"best_pos":1,"similarity":1.0,"stretto":false,"stretto_voices":0,"combination":[],"aug_dim":"","rhythm_ratio":1.0,"mirror":false,"chromatic_density":0.167,"complexity":0.732,"dissonance":0.173},{"voice":3,"pitch":57,"start":175.0,"duration":0.75,"velocity":127,"measure":88,"beat":3.0,"subject_pos":-1,"motif":"","motif_pos":-1,"best_pos":1,"similarity":0.621,"stretto":false,"stretto_voices":0,"combination":[],"aug_dim":"","rhythm_ratio":1.0,"mirror":false,"chromatic_density":0.167,"complexity":0.732,"dissonance":0.173},{"voice":0,"pitch":69,"start":175.25,"duration":2.0,"velocity":127,"measure":88,"beat":3.5,"subject_pos":-1,"motif":"","motif_pos":-1,"best_pos":3,"similarity":0.346,"stretto":false,"stretto_voices":0,"combination":[],"aug_dim":"","rhythm_ratio":1.0,"mirror":false,"chromatic_density":0.167,"complexity":0.732,"dissonance":0.173},{"voice":2,"pitch":55,"start":175.25,"duration":0.25,"velocity":127,"measure":88,"beat":3.5,"subject_pos":-1,"motif":"head","motif_pos":2,"best_pos":2,"similarity":1.0,"stretto":false,"stretto_voices":0,"combination":[],"aug_dim":"","rhythm_ratio":1.0,"mirror":false,"chromatic_density":0.167,"complexity":0.732,"dissonance":0.173},{"voice":0,"pitch":72,"start":175.5,"duration":1.5,"velocity":127,"measure":88,"beat":4.0,"subject_pos":-1,"motif":"enigmatic_cell","motif_pos":2,"best_pos":2,"similarity":1.0,"stretto":false,"stretto_voices":0,"combination":[],"aug_dim":"","rhythm_ratio":1.0,"mirror":false,"chromatic_density":0.167,"complexity":0.732,"dissonance":0.173},{"voice":2,"pitch":54,"start":175.5,"duration":0.25,"velocity":127,"measure":88,"beat":4.0,"subject_pos":-1,"motif":"head","motif_pos":3,"best_pos":3,"similarity":1.0,"stretto":false,"stretto_voices":0,"combination":[],"aug_dim":"","rhythm_ratio":1.0,"mirror":false,"chromatic_density":0.167,"complexity":0.732,"dissonance":0.173},{"voice":1,"pitch":64,"start":175.75,"duration":0.25,"velocity":127,"measure":88,"beat":4.5,"subject_pos":-1,"motif":"","motif_pos":-1,"best_pos":6,"similarity":0.643,"stretto":false,"stretto_voices":0,"combination":[],"aug_dim":"","rhythm_ratio":1.0,"mirror":false,"chromatic_density":0.167,"complexity":0.732,"dissonance":0.173},{"voice":2,"pitch":52,"start":175.75,"duration":0.25,"velocity":127,"measure":88,"beat":4.5,"subject_pos":-1,"motif":"head","motif_pos":4,"best_pos":4,"similarity":1.0,"stretto":false,"stretto_voices":0,"combination":[],"aug_dim":"","rhythm_ratio":1.0,"mirror":false,"chromatic_density":0.167,"complexity":0.732,"dissonance":0.173},{"voice":3,"pitch":55,"start":175.75,"duration":0.25,"velocity":127,"measure":88,"beat":4.5,"subject_pos":-1,"motif":"","motif_pos":-1,"best_pos":2,"similarity":0.546,"stretto":false,"stretto_voices":0,"combination":[],"aug_dim":"","rhythm_ratio":1.0,"mirror":false,"chromatic_density":0.167,"complexity":0.732,"dissonance":0.173},{"voice":1,"pitch":66,"start":176.0,"duration":1.25,"velocity":127,"measure":89,"beat":1.0,"subject_pos":-1,"motif":"","motif_pos":-1,"best_pos":6,"similarity":0.661,"stretto":false,"stretto_voices":0,"combination":[],"aug_dim":"","rhythm_ratio":1.0,"mirror":false,"chromatic_density":0.333,"complexity":0.591,"dissonance":0.153},{"voice":2,"pitch":50,"start":176.0,"duration":1.25,"velocity":127,"measure":89,"beat":1.0,"subject_pos":-1,"motif":"","motif_pos":-1,"best_pos":3,"similarity":0.786,"stretto":false,"stretto_voices":0,"combination":[],"aug_dim":"","rhythm_ratio":1.0,"mirror":false,"chromatic_density":0.333,"complexity":0.591,"dissonance":0.153},{"voice":3,"pitch":54,"start":176.0,"duration":1.25,"velocity":127,"measure":89,"beat":1.0,"subject_pos":-1,"motif":"","motif_pos":-1,"best_pos":1,"similarity":0.357,"stretto":false,"stretto_voices":0,"combination":[],"aug_dim":"","rhythm_ratio":1.0,"mirror":false,"chromatic_density":0.333,"complexity":0.591,"dissonance":0.153},{"voice":3,"pitch":48,"start":176.25,"duration":0.25,"velocity":127,"measure":89,"beat":1.5,"subject_pos":-1,"motif":"","motif_pos":-1,"best_pos":3,"similarity":0.421,"stretto":false,"stretto_voices":0,"combination":[],"aug_dim":"","rhythm_ratio":1.0,"mirror":false,"chromatic_density":0.333,"complexity":0.591,"dissonance":0.153},{"voice":3,"pitch":46,"start":176.5,"duration":0.25,"velocity":127,"measure":89,"beat":2.0,"subject_pos":-1,"motif":"","motif_pos":-1,"best_pos":3,"similarity":0.45,"stretto":false,"stretto_voices":0,"combination":[],"aug_dim":"","rhythm_ratio":1.0,"mirror":false,"chromatic_density":0.333,"complexity":0.591,"dissonance":0.153},{"voice":3,"pitch":45,"start":176.75,"duration":0.25,"velocity":127,"measure":89,"beat":2.5,"subject_pos":-1,"motif":"","motif_pos":-1,"best_pos":4,"similarity":0.414,"stretto":false,"stretto_voices":0,"combination":[],"aug_dim":"","rhythm_ratio":1.0,"mirror":false,"chromatic_density":0.333,"complexity":0.591,"dissonance":0.153},{"voice":0,"pitch":72,"start":177.0,"duration":0.25,"velocity":127,"measure":89,"beat":3.0,"subject_pos":-1,"motif":"","motif_pos":-1,"best_pos":1,"similarity":0.364,"stretto":false,"stretto_voices":0,"combination":[],"aug_dim":"","rhythm_ratio":1.0,"mirror":false,"chromatic_density":0.333,"complexity":0.591,"dissonance":0.153},{"voice":3,"pitch":43,"start":177.0,"duration":1.0,"velocity":127,"measure":89,"beat":3.0,"subject_pos":-1,"motif":"","motif_pos":-1,"best_pos":4,"similarity":0.214,"stretto":false,"stretto_voices":0,"combination":[],"aug_dim":"","rhythm_ratio":1.0,"mirror":false,"chromatic_density":0.333,"complexity":0.591,"dissonance":0.153},{"voice":0,"pitch":70,"start":177.25,"duration":0.25,"velocity":127,"measure":89,"beat":3.5,"subject_pos":-1,"motif":"","motif_pos":-1,"best_pos":2,"similarity":0.343,"stretto":false,"stretto_voices":0,"combination":[],"aug_dim":"","rhythm_ratio":1.0,"mirror":false,"chromatic_density":0.333,"complexity":0.591,"dissonance":0.153},{"voice":1,"pitch":67,"start":177.25,"duration":0.25,"velocity":127,"measure":89,"beat":3.5,"subject_pos":-1,"motif":"","motif_pos":-1,"best_pos":7,"similarity":0.464,"stretto":false,"stretto_voices":0,"combination":[],"aug_dim":"","rhythm_ratio":1.0,"mirror":false,"chromatic_density":0.333,"complexity":0.591,"dissonance":0.153},{"voice":2,"pitch":49,"start":177.25,"duration":0.25,"velocity":127,"measure":89,"beat":3.5,"subject_pos":-1,"motif":"","motif_pos":-1,"best_pos":4,"similarity":0.893,"stretto":false,"stretto_voices":0,"combination":[],"aug_dim":"","rhythm_ratio":1.0,"mirror":false,"chromatic_density":0.333,"complexity":0.591,"dissonance":0.153},{"voice":3,"pitch":52,"start":177.25,"duration":0.25,"velocity":127,"measure":89,"beat":3.5,"subject_pos":-1,"motif":"","motif_pos":-1,"best_pos":5,"similarity":0.332,"stretto":false,"stretto_voices":0,"combination":[],"aug_dim":"","rhythm_ratio":1.0,"mirror":false,"chromatic_density":0.333,"complexity":0.591,"dissonance":0.153},{"voice":0,"pitch":74,"start":177.5,"duration":0.25,"velocity":127,"measure":89,"beat":4.0,"subject_pos":-1,"motif":"","motif_pos":-1,"best_pos":1,"similarity":0.286,"stretto":false,"stretto_voices":0,"combination":[],"aug_dim":"","rhythm_ratio":1.0,"mirror":false,"chromatic_density":0.333,"complexity":0.591,"dissonance":0.153},{"voice":0,"pitch":69,"start":177.5,"duration":0.25,"velocity":127,"measure":89,"beat":4.0,"subject_pos":-1,"motif":"","motif_pos":-1,"best_pos":2,"similarity":0.214,"stretto":false,"stretto_voices":0,"combination":[],"aug_dim":"","rhythm_ratio":1.0,"mirror":false,"chromatic_density":0.333,"complexity":0.591,"dissonance":0.153},{"voice":1,"pitch":66,"start":177.5,"duration":0.25,"velocity":127,"measure":89,"beat":4.0,"subject_pos":-1,"motif":"","motif_pos":-1,"best_pos":2,"similarity":0.371,"stretto":false,"stretto_voices":0,"combination":[],"aug_dim":"","rhythm_ratio":1.0,"mirror":false,"chromatic_density":0.333,"complexity":0.591,"dissonance":0.153},{"voice":2,"pitch":50,"start":177.5,"duration":0.25,"velocity":127,"measure":89,"beat":4.0,"subject_pos":-1,"motif":"","motif_pos":-1,"best_pos":5,"similarity":0.821,"stretto":false,"stretto_voices":0,"combination":[],"aug_dim":"","rhythm_ratio":1.0,"mirror":false,"chromatic_density":0.333,"complexity":0.591,"dissonance":0.153},{"voice":3,"pitch":54,"start":177.5,"duration":0.25,"velocity":127,"measure":89,"beat":4.0,"subject_pos":-1,"motif":"","motif_pos":-1,"best_pos":6,"similarity":0.3,"stretto":false,"stretto_voices":0,"combination":[],"aug_dim":"","rhythm_ratio":1.0,"mirror":false,"chromatic_density":0.333,"complexity":0.591,"dissonance":0.153},{"voice":0,"pitch":73,"start":177.75,"duration":0.25,"velocity":127,"measure":89,"beat":4.5,"subject_pos":-1,"motif":"","motif_pos":-1,"best_pos":1,"similarity":0.214,"stretto":false,"stretto_voices":0,"combination":[],"aug_dim":"","rhythm_ratio":1.0,"mirror":false,"chromatic_density":0.333,"complexity":0.591,"dissonance":0.153},{"voice":0,"pitch":67,"start":177.75,"duration":0.25,"velocity":127,"measure":89,"beat":4.5,"subject_pos":-1,"motif":"","motif_pos":-1,"best_pos":0,"similarity":0.3,"stretto":false,"stretto_voices":0,"combination":[],"aug_dim":"","rhythm_ratio":1.0,"mirror":false,"chromatic_density":0.333,"complexity":0.591,"dissonance":0.153},{"voice":1,"pitch":64,"start":177.75,"duration":0.25,"velocity":127,"measure":89,"beat":4.5,"subject_pos":-1,"motif":"","motif_pos":-1,"best_pos":2,"similarity":0.429,"stretto":false,"stretto_voices":0,"combination":[],"aug_dim":"","rhythm_ratio":1.0,"mirror":false,"chromatic_density":0.333,"complexity":0.591,"dissonance":0.153},{"voice":2,"pitch":52,"start":177.75,"duration":0.25,"velocity":127,"measure":89,"beat":4.5,"subject_pos":-1,"motif":"","motif_pos":-1,"best_pos":6,"similarity":0.643,"stretto":false,"stretto_voices":0,"combination":[],"aug_dim":"","rhythm_ratio":1.0,"mirror":false,"chromatic_density":0.333,"complexity":0.591,"dissonance":0.153},{"voice":3,"pitch":55,"start":177.75,"duration":0.25,"velocity":127,"measure":89,"beat":4.5,"subject_pos":-1,"motif":"","motif_pos":-1,"best_pos":5,"similarity":0.286,"stretto":false,"stretto_voices":0,"combination":[],"aug_dim":"","rhythm_ratio":1.0,"mirror":false,"chromatic_density":0.333,"complexity":0.591,"dissonance":0.153},{"voice":0,"pitch":74,"start":178.0,"duration":4.0,"velocity":127,"measure":90,"beat":1.0,"subject_pos":-1,"motif":"","motif_pos":-1,"best_pos":1,"similarity":0.314,"stretto":false,"stretto_voices":0,"combination":[],"aug_dim":"","rhythm_ratio":1.0,"mirror":false,"chromatic_density":0.0,"complexity":0.355,"dissonance":0.0},{"voice":0,"pitch":66,"start":178.0,"duration":4.0,"velocity":127,"measure":90,"beat":1.0,"subject_pos":-1,"motif":"","motif_pos":-1,"best_pos":2,"similarity":0.171,"stretto":false,"stretto_voices":0,"combination":[],"aug_dim":"","rhythm_ratio":1.0,"mirror":false,"chromatic_density":0.0,"complexity":0.355,"dissonance":0.0},{"voice":1,"pitch":62,"start":178.0,"duration":4.0,"velocity":127,"measure":90,"beat":1.0,"subject_pos":-1,"motif":"","motif_pos":-1,"best_pos":2,"similarity":0.286,"stretto":false,"stretto_voices":0,"combination":[],"aug_dim":"","rhythm_ratio":1.0,"mirror":false,"chromatic_density":0.0,"complexity":0.355,"dissonance":0.0},{"voice":2,"pitch":54,"start":178.0,"duration":4.0,"velocity":127,"measure":90,"beat":1.0,"subject_pos":-1,"motif":"","motif_pos":-1,"best_pos":6,"similarity":0.375,"stretto":false,"stretto_voices":0,"combination":[],"aug_dim":"","rhythm_ratio":1.0,"mirror":false,"chromatic_density":0.0,"complexity":0.355,"dissonance":0.0},{"voice":3,"pitch":57,"start":178.0,"duration":4.0,"velocity":127,"measure":90,"beat":1.0,"subject_pos":-1,"motif":"","motif_pos":-1,"best_pos":6,"similarity":0.286,"stretto":false,"stretto_voices":0,"combination":[],"aug_dim":"","rhythm_ratio":1.0,"mirror":false,"chromatic_density":0.0,"complexity":0.355,"dissonance":0.0},{"voice":3,"pitch":50,"start":178.0,"duration":4.0,"velocity":127,"measure":90,"beat":1.0,"subject_pos":-1,"motif":"","motif_pos":-1,"best_pos":7,"similarity":0.143,"stretto":false,"stretto_voices":0,"combination":[],"aug_dim":"","rhythm_ratio":1.0,"mirror":false,"chromatic_density":0.0,"complexity":0.355,"dissonance":0.0}],"chromatic_density":[{"measure":1,"density":0.0,"chromatic_count":0,"interval_count":2},{"measure":2,"density":0.0,"chromatic_count":0,"interval_count":2},{"measure":3,"density":0.5,"chromatic_count":1,"interval_count":2},{"measure":4,"density":0.4,"chromatic_count":2,"interval_count":5},{"measure":5,"density":0.571,"chromatic_count":4,"interval_count":7},{"measure":6,"density":0.286,"chromatic_count":2,"interval_count":7},{"measure":7,"density":0.182,"chromatic_count":2,"interval_count":11},{"measure":8,"density":0.333,"chromatic_count":3,"interval_count":9},{"measure":9,"density":0.111,"chromatic_count":1,"interval_count":9},{"measure":10,"density":0.143,"chromatic_count":2,"interval_count":14},{"measure":11,"density":0.375,"chromatic_count":3,"interval_count":8},{"measure":12,"density":0.375,"chromatic_count":3,"interval_count":8},{"measure":13,"density":0.333,"chromatic_count":4,"interval_count":12},{"measure":14,"density":0.429,"chromatic_count":3,"interval_count":7},{"measure":15,"density":0.417,"chromatic_count":5,"interval_count":12},{"measure":16,"density":0.429,"chromatic_count":3,"interval_count":7},{"measure":17,"density":0.25,"chromatic_count":2,"interval_count":8},{"measure":18,"density":0.125,"chromatic_count":1,"interval_count":8},{"measure":19,"density":0.5,"chromatic_count":4,"interval_count":8},{"measure":20,"density":0.273,"chromatic_count":3,"interval_count":11},{"measure":21,"density":0.556,"chromatic_count":5,"interval_count":9},{"measure":22,"density":0.556,"chromatic_count":5,"interval_count":9},{"measure":23,"density":0.308,"chromatic_count":4,"interval_count":13},{"measure":24,"density":0.182,"chromatic_count":2,"interval_count":11},{"measure":25,"density":0.6,"chromatic_count":6,"interval_count":10},{"measure":26,"density":0.3,"chromatic_count":3,"interval_count":10},{"measure":27,"density":0.25,"chromatic_count":2,"interval_count":8},{"measure":28,"density":0.25,"chromatic_count":2,"interval_count":8},{"measure":29,"density":0.25,"chromatic_count":2,"interval_count":8},{"measure":30,"density":0.333,"chromatic_count":2,"interval_count":6},{"measure":31,"density":0.429,"chromatic_count":3,"interval_count":7},{"measure":32,"density":0.222,"chromatic_count":2,"interval_count":9},{"measure":33,"density":0.125,"chromatic_count":1,"interval_count":8},{"measure":34,"density":0.25,"chromatic_count":3,"interval_count":12},{"measure":35,"density":0.556,"chromatic_count":5,"interval_count":9},{"measure":36,"density":0.444,"chromatic_count":4,"interval_count":9},{"measure":37,"density":0.333,"chromatic_count":4,"interval_count":12},{"measure":38,"density":0.214,"chromatic_count":3,"interval_count":14},{"measure":39,"density":0.111,"chromatic_count":1,"interval_count":9},{"measure":40,"density":0.111,"chromatic_count":1,"interval_count":9},{"measure":41,"density":0.222,"chromatic_count":2,"interval_count":9},{"measure":42,"density":0.111,"chromatic_count":1,"interval_count":9},{"measure":43,"density":0.5,"chromatic_count":4,"interval_count":8},{"measure":44,"density":0.444,"chromatic_count":4,"interval_count":9},{"measure":45,"density":0.182,"chromatic_count":2,"interval_count":11},{"measure":46,"density":0.273,"chromatic_count":3,"interval_count":11},{"measure":47,"density":0.231,"chromatic_count":3,"interval_count":13},{"measure":48,"density":0.25,"chromatic_count":3,"interval_count":12},{"measure":49,"density":0.214,"chromatic_count":3,"interval_count":14},{"measure":50,"density":0.308,"chromatic_count":4,"interval_count":13},{"measure":51,"density":0.125,"chromatic_count":1,"interval_count":8},{"measure":52,"density":0.375,"chromatic_count":3,"interval_count":8},{"measure":53,"density":0.0,"chromatic_count":0,"interval_count":4},{"measure":54,"density":0.25,"chromatic_count":3,"interval_count":12},{"measure":55,"density":0.333,"chromatic_count":4,"interval_count":12},{"measure":56,"density":0.333,"chromatic_count":5,"interval_count":15},{"measure":57,"density":0.364,"chromatic_count":4,"interval_count":11},{"measure":58,"density":0.25,"chromatic_count":2,"interval_count":8},{"measure":59,"density":0.333,"chromatic_count":3,"interval_count":9},{"measure":60,"density":0.375,"chromatic_count":3,"interval_count":8},{"measure":61,"density":0.4,"chromatic_count":4,"interval_count":10},{"measure":62,"density":0.429,"chromatic_count":3,"interval_count":7},{"measure":63,"density":0.333,"chromatic_count":2,"interval_count":6},{"measure":64,"density":0.857,"chromatic_count":6,"interval_count":7},{"measure":65,"density":0.0,"chromatic_count":0,"interval_count":6},{"measure":66,"density":0.333,"chromatic_count":4,"interval_count":12},{"measure":67,"density":0.333,"chromatic_count":4,"interval_count":12},{"measure":68,"density":0.267,"chromatic_count":4,"interval_count":15},{"measure":69,"density":0.2,"chromatic_count":2,"interval_count":10},{"measure":70,"density":0.273,"chromatic_count":3,"interval_count":11},{"measure":71,"density":0.3,"chromatic_count":3,"interval_count":10},{"measure":72,"density":0.333,"chromatic_count":4,"interval_count":12},{"measure":73,"density":0.231,"chromatic_count":3,"interval_count":13},{"measure":74,"density":0.25,"chromatic_count":3,"interval_count":12},{"measure":75,"density":0.231,"chromatic_count":3,"interval_count":13},{"measure":76,"density":0.182,"chromatic_count":2,"interval_count":11},{"measure":77,"density":0.286,"chromatic_count":4,"interval_count":14},{"measure":78,"density":0.25,"chromatic_count":3,"interval_count":12},{"measure":79,"density":0.286,"chromatic_count":4,"interval_count":14},{"measure":80,"density":0.286,"chromatic_count":4,"interval_count":14},{"measure":81,"density":0.357,"chromatic_count":5,"interval_count":14},{"measure":82,"density":0.286,"chromatic_count":4,"interval_count":14},{"measure":83,"density":0.417,"chromatic_count":5,"interval_count":12},{"measure":84,"density":0.333,"chromatic_count":5,"interval_count":15},{"measure":85,"density":0.667,"chromatic_count":8,"interval_count":12},{"measure":86,"density":0.091,"chromatic_count":1,"interval_count":11},{"measure":87,"density":0.316,"chromatic_count":6,"interval_count":19},{"measure":88,"density":0.167,"chromatic_count":3,"interval_count":18},{"measure":89,"density":0.333,"chromatic_count":6,"interval_count":18},{"measure":90,"density":0.0,"chromatic_count":0,"interval_count":2}],"complexity":[{"measure":1,"complexity":0.449,"voice_count":1,"note_density":0.094,"motif_saturation":1.0,"interval_diversity":0.286,"rhythm_variety":0.5},{"measure":2,"complexity":0.428,"voice_count":1,"note_density":0.094,"motif_saturation":1.0,"interval_diversity":0.143,"rhythm_variety":0.5},{"measure":3,"complexity":0.449,"voice_count":1,"note_density":0.094,"motif_saturation":1.0,"interval_diversity":0.286,"rhythm_variety":0.5},{"measure":4,"complexity":0.44,"voice_count":2,"note_density":0.219,"motif_saturation":0.429,"interval_diversity":0.429,"rhythm_variety":0.667},{"measure":5,"complexity":0.438,"voice_count":2,"note_density":0.281,"motif_saturation":0.556,"interval_diversity":0.286,"rhythm_variety":0.5},{"measure":6,"complexity":0.432,"voice_count":2,"note_density":0.281,"motif_saturation":0.444,"interval_diversity":0.429,"rhythm_variety":0.5},{"measure":7,"complexity":0.539,"voice_count":3,"note_density":0.438,"motif_saturation":0.214,"interval_diversity":0.571,"rhythm_variety":0.833},{"measure":8,"complexity":0.489,"voice_count":3,"note_density":0.375,"motif_saturation":0.25,"interval_diversity":0.429,"rhythm_variety":0.667},{"measure":9,"complexity":0.532,"voice_count":3,"note_density":0.375,"motif_saturation":0.25,"interval_diversity":0.714,"rhythm_variety":0.667},{"measure":10,"complexity":0.678,"voice_count":4,"note_density":0.562,"motif_saturation":0.333,"interval_diversity":0.714,"rhythm_variety":0.833},{"measure":11,"complexity":0.575,"voice_count":4,"note_density":0.406,"motif_saturation":0.231,"interval_diversity":0.571,"rhythm_variety":0.667},{"measure":12,"complexity":0.552,"voice_count":4,"note_density":0.375,"motif_saturation":0.25,"interval_diversity":0.429,"rhythm_variety":0.667},{"measure":13,"complexity":0.511,"voice_count":4,"note_density":0.5,"motif_saturation":0.0,"interval_diversity":0.571,"rhythm_variety":0.5},{"measure":14,"complexity":0.536,"voice_count":4,"note_density":0.375,"motif_saturation":0.0,"interval_diversity":0.571,"rhythm_variety":0.833},{"measure":15,"complexity":0.614,"voice_count":4,"note_density":0.5,"motif_saturation":0.312,"interval_diversity":0.571,"rhythm_variety":0.667},{"measure":16,"complexity":0.458,"voice_count":4,"note_density":0.344,"motif_saturation":0.0,"interval_diversity":0.429,"rhythm_variety":0.5},{"measure":17,"complexity":0.535,"voice_count":3,"note_density":0.344,"motif_saturation":0.273,"interval_diversity":0.571,"rhythm_variety":0.833},{"measure":18,"complexity":0.535,"voice_count":3,"note_density":0.344,"motif_saturation":0.273,"interval_diversity":0.571,"rhythm_variety":0.833},{"measure":19,"complexity":0.51,"voice_count":3,"note_density":0.375,"motif_saturation":0.333,"interval_diversity":0.429,"rhythm_variety":0.667},{"measure":20,"complexity":0.688,"voice_count":4,"note_density":0.469,"motif_saturation":0.533,"interval_diversity":0.571,"rhythm_variety":0.833},{"measure":21,"complexity":0.655,"voice_count":4,"note_density":0.406,"motif_saturation":0.538,"interval_diversity":0.429,"rhythm_variety":0.833},{"measure":22,"complexity":0.548,"voice_count":3,"note_density":0.406,"motif_saturation":0.462,"interval_diversity":0.429,"rhythm_variety":0.667},{"measure":23,"complexity":0.579,"voice_count":4,"note_density":0.531,"motif_saturation":0.235,"interval_diversity":0.429,"rhythm_variety":0.667},{"measure":24,"complexity":0.613,"voice_count":4,"note_density":0.469,"motif_saturation":0.333,"interval_diversity":0.571,"rhythm_variety":0.667},{"measure":25,"complexity":0.612,"voice_count":3,"note_density":0.406,"motif_saturation":0.615,"interval_diversity":0.429,"rhythm_variety":0.833},{"measure":26,"complexity":0.602,"voice_count":4,"note_density":0.438,"motif_saturation":0.214,"interval_diversity":0.571,"rhythm_variety":0.833},{"measure":27,"complexity":0.578,"voice_count":4,"note_density":0.406,"motif_saturation":0.231,"interval_diversity":0.429,"rhythm_variety":0.833},{"measure":28,"complexity":0.577,"voice_count":4,"note_density":0.375,"motif_saturation":0.25,"interval_diversity":0.429,"rhythm_variety":0.833},{"measure":29,"complexity":0.468,"voice_count":4,"note_density":0.375,"motif_saturation":0.0,"interval_diversity":0.286,"rhythm_variety":0.667},{"measure":30,"complexity":0.414,"voice_count":3,"note_density":0.312,"motif_saturation":0.0,"interval_diversity":0.429,"rhythm_variety":0.667},{"measure":31,"complexity":0.393,"voice_count":3,"note_density":0.312,"motif_saturation":0.0,"interval_diversity":0.286,"rhythm_variety":0.667},{"measure":32,"complexity":0.38,"voice_count":3,"note_density":0.375,"motif_saturation":0.0,"interval_diversity":0.286,"rhythm_variety":0.5},{"measure":33,"complexity":0.552,"voice_count":4,"note_density":0.375,"motif_saturation":0.167,"interval_diversity":0.571,"rhythm_variety":0.667},{"measure":34,"complexity":0.639,"voice_count":4,"note_density":0.5,"motif_saturation":0.5,"interval_diversity":0.429,"rhythm_variety":0.667},{"measure":35,"complexity":0.515,"voice_count":4,"note_density":0.406,"motif_saturation":0.077,"interval_diversity":0.429,"rhythm_variety":0.667},{"measure":36,"complexity":0.563,"voice_count":4,"note_density":0.406,"motif_saturation":0.0,"interval_diversity":0.714,"rhythm_variety":0.833},{"measure":37,"complexity":0.464,"voice_count":4,"note_density":0.5,"motif_saturation":0.0,"interval_diversity":0.429,"rhythm_variety":0.333},{"measure":38,"complexity":0.548,"voice_count":4,"note_density":0.562,"motif_saturation":0.0,"interval_diversity":0.571,"rhythm_variety":0.667},{"measure":39,"complexity":0.377,"voice_count":3,"note_density":0.375,"motif_saturation":0.0,"interval_diversity":0.429,"rhythm_variety":0.333},{"measure":40,"complexity":0.401,"voice_count":3,"note_density":0.375,"motif_saturation":0.083,"interval_diversity":0.286,"rhythm_variety":0.5},{"measure":41,"complexity":0.694,"voice_count":4,"note_density":0.406,"motif_saturation":0.538,"interval_diversity":0.857,"rhythm_variety":0.667},{"measure":42,"complexity":0.698,"voice_count":4,"note_density":0.406,"motif_saturation":0.538,"interval_diversity":0.714,"rhythm_variety":0.833},{"measure":43,"complexity":0.671,"voice_count":4,"note_density":0.406,"motif_saturation":0.615,"interval_diversity":0.571,"rhythm_variety":0.667},{"measure":44,"complexity":0.559,"voice_count":4,"note_density":0.406,"motif_saturation":0.154,"interval_diversity":0.429,"rhythm_variety":0.833},{"measure":45,"complexity":0.536,"voice_count":4,"note_density":0.5,"motif_saturation":0.0,"interval_diversity":0.571,"rhythm_variety":0.667},{"measure":46,"complexity":0.576,"voice_count":4,"note_density":0.469,"motif_saturation":0.0,"interval_diversity":0.714,"rhythm_variety":0.833},{"measure":47,"complexity":0.601,"voice_count":4,"note_density":0.531,"motif_saturation":0.235,"interval_diversity":0.571,"rhythm_variety":0.667},{"measure":48,"complexity":0.629,"voice_count":4,"note_density":0.5,"motif_saturation":0.375,"interval_diversity":0.571,"rhythm_variety":0.667},{"measure":49,"complexity":0.61,"voice_count":4,"note_density":0.562,"motif_saturation":0.333,"interval_diversity":0.429,"rhythm_variety":0.667},{"measure":50,"complexity":0.499,"voice_count":4,"note_density":0.531,"motif_saturation":0.0,"interval_diversity":0.286,"rhythm_variety":0.667},{"measure":51,"complexity":0.536,"voice_count":4,"note_density":0.375,"motif_saturation":0.0,"interval_diversity":0.571,"rhythm_variety":0.833},{"measure":52,"complexity":0.423,"voice_count":3,"note_density":0.375,"motif_saturation":0.0,"interval_diversity":0.571,"rhythm_variety":0.5},{"measure":53,"complexity":0.585,"voice_count":3,"note_density":0.219,"motif_saturation":0.857,"interval_diversity":0.429,"rhythm_variety":0.5},{"measure":54,"complexity":0.739,"voice_count":4,"note_density":0.5,"motif_saturation":1.0,"interval_diversity":0.429,"rhythm_variety":0.5},{"measure":55,"complexity":0.639,"voice_count":4,"note_density":0.5,"motif_saturation":0.5,"interval_diversity":0.429,"rhythm_variety":0.667},{"measure":56,"complexity":0.586,"voice_count":4,"note_density":0.594,"motif_saturation":0.211,"interval_diversity":0.429,"rhythm_variety":0.667},{"measure":57,"complexity":0.583,"voice_count":4,"note_density":0.469,"motif_saturation":0.2,"interval_diversity":0.429,"rhythm_variety":0.833},{"measure":58,"complexity":0.59,"voice_count":4,"note_density":0.375,"motif_saturation":0.333,"interval_diversity":0.714,"rhythm_variety":0.5},{"measure":59,"complexity":0.673,"voice_count":4,"note_density":0.438,"motif_saturation":0.5,"interval_diversity":0.571,"rhythm_variety":0.833},{"measure":60,"complexity":0.552,"voice_count":4,"note_density":0.375,"motif_saturation":0.25,"interval_diversity":0.429,"rhythm_variety":0.667},{"measure":61,"complexity":0.663,"voice_count":4,"note_density":0.438,"motif_saturation":0.357,"interval_diversity":0.571,"rhythm_variety":1.0},{"measure":62,"complexity":0.536,"voice_count":4,"note_density":0.375,"motif_saturation":0.0,"interval_diversity":0.571,"rhythm_variety":0.833},{"measure":63,"complexity":0.43,"voice_count":4,"note_density":0.312,"motif_saturation":0.0,"interval_diversity":0.286,"rhythm_variety":0.5},{"measure":64,"complexity":0.507,"voice_count":4,"note_density":0.344,"motif_saturation":0.182,"interval_diversity":0.286,"rhythm_variety":0.667},{"measure":65,"complexity":0.498,"voice_count":4,"note_density":0.312,"motif_saturation":0.1,"interval_diversity":0.571,"rhythm_variety":0.5},{"measure":66,"complexity":0.599,"voice_count":4,"note_density":0.5,"motif_saturation":0.438,"interval_diversity":0.429,"rhythm_variety":0.5},{"measure":67,"complexity":0.677,"voice_count":4,"note_density":0.5,"motif_saturation":0.75,"interval_diversity":0.429,"rhythm_variety":0.5},{"measure":68,"complexity":0.586,"voice_count":4,"note_density":0.594,"motif_saturation":0.211,"interval_diversity":0.429,"rhythm_variety":0.667},{"measure":69,"complexity":0.613,"voice_count":4,"note_density":0.438,"motif_saturation":0.357,"interval_diversity":0.571,"rhythm_variety":0.667},{"measure":70,"complexity":0.626,"voice_count":4,"note_density":0.469,"motif_saturation":0.4,"interval_diversity":0.714,"rhythm_variety":0.5},{"measure":71,"complexity":0.63,"voice_count":4,"note_density":0.438,"motif_saturation":0.5,"interval_diversity":0.286,"rhythm_variety":0.833},{"measure":72,"complexity":0.708,"voice_count":4,"note_density":0.5,"motif_saturation":0.688,"interval_diversity":0.571,"rhythm_variety":0.667},{"measure":73,"complexity":0.579,"voice_count":3,"note_density":0.5,"motif_saturation":0.438,"interval_diversity":0.714,"rhythm_variety":0.5},{"measure":74,"complexity":0.488,"voice_count":3,"note_density":0.469,"motif_saturation":0.0,"interval_diversity":0.714,"rhythm_variety":0.667},{"measure":75,"complexity":0.445,"voice_count":3,"note_density":0.5,"motif_saturation":0.0,"interval_diversity":0.714,"rhythm_variety":0.333},{"measure":76,"complexity":0.479,"voice_count":3,"note_density":0.438,"motif_saturation":0.071,"interval_diversity":0.571,"rhythm_variety":0.667},{"measure":77,"complexity":0.505,"voice_count":3,"note_density":0.531,"motif_saturation":0.118,"interval_diversity":0.714,"rhythm_variety":0.5},{"measure":78,"complexity":0.602,"voice_count":4,"note_density":0.5,"motif_saturation":0.25,"interval_diversity":0.429,"rhythm_variety":0.833},{"measure":79,"complexity":0.61,"voice_count":4,"note_density":0.562,"motif_saturation":0.333,"interval_diversity":0.429,"rhythm_variety":0.667},{"measure":80,"complexity":0.607,"voice_count":4,"note_density":0.562,"motif_saturation":0.222,"interval_diversity":0.429,"rhythm_variety":0.833},{"measure":81,"complexity":0.554,"voice_count":4,"note_density":0.562,"motif_saturation":0.222,"interval_diversity":0.571,"rhythm_variety":0.333},{"measure":82,"complexity":0.576,"voice_count":4,"note_density":0.562,"motif_saturation":0.111,"interval_diversity":0.571,"rhythm_variety":0.667},{"measure":83,"complexity":0.633,"voice_count":4,"note_density":0.5,"motif_saturation":0.375,"interval_diversity":0.429,"rhythm_variety":0.833},{"measure":84,"complexity":0.657,"voice_count":4,"note_density":0.625,"motif_saturation":0.4,"interval_diversity":0.714,"rhythm_variety":0.5},{"measure":85,"complexity":0.514,"voice_count":4,"note_density":0.5,"motif_saturation":0.0,"interval_diversity":0.429,"rhythm_variety":0.667},{"measure":86,"complexity":0.585,"voice_count":4,"note_density":0.531,"motif_saturation":0.0,"interval_diversity":0.857,"rhythm_variety":0.667},{"measure":87,"complexity":0.652,"voice_count":4,"note_density":0.719,"motif_saturation":0.217,"interval_diversity":0.857,"rhythm_variety":0.5},{"measure":88,"complexity":0.732,"voice_count":4,"note_density":0.688,"motif_saturation":0.364,"interval_diversity":0.857,"rhythm_variety":0.833},{"measure":89,"complexity":0.591,"voice_count":4,"note_density":0.688,"motif_saturation":0.0,"interval_diversity":0.857,"rhythm_variety":0.5},{"measure":90,"complexity":0.355,"voice_count":4,"note_density":0.188,"motif_saturation":0.0,"interval_diversity":0.286,"rhythm_variety":0.167}],"dissonance":[{"measure":1,"dissonance":0,"dissonant_pairs":0,"total_pairs":0},{"measure":2,"dissonance":0,"dissonant_pairs":0,"total_pairs":0},{"measure":3,"dissonance":0,"dissonant_pairs":0,"total_pairs":0},{"measure":4,"dissonance":0.0,"dissonant_pairs":0,"total_pairs":5},{"measure":5,"dissonance":0.062,"dissonant_pairs":0.5,"total_pairs":8},{"measure":6,"dissonance":0.114,"dissonant_pairs":0.8,"total_pairs":7},{"measure":7,"dissonance":0.158,"dissonant_pairs":3.8,"total_pairs":24},{"measure":8,"dissonance":0.096,"dissonant_pairs":2.3,"total_pairs":24},{"measure":9,"dissonance":0.054,"dissonant_pairs":1.3,"total_pairs":24},{"measure":10,"dissonance":0.096,"dissonant_pairs":4.6,"total_pairs":48},{"measure":11,"dissonance":0.119,"dissonant_pairs":4.3,"total_pairs":36},{"measure":12,"dissonance":0.158,"dissonant_pairs":4.9,"total_pairs":31},{"measure":13,"dissonance":0.209,"dissonant_pairs":9.0,"total_pairs":43},{"measure":14,"dissonance":0.128,"dissonant_pairs":5.1,"total_pairs":40},{"measure":15,"dissonance":0.05,"dissonant_pairs":1.5,"total_pairs":30},{"measure":16,"dissonance":0.125,"dissonant_pairs":2.5,"total_pairs":20},{"measure":17,"dissonance":0.164,"dissonant_pairs":3.6,"total_pairs":22},{"measure":18,"dissonance":0.068,"dissonant_pairs":1.5,"total_pairs":22},{"measure":19,"dissonance":0.214,"dissonant_pairs":4.7,"total_pairs":22},{"measure":20,"dissonance":0.1,"dissonant_pairs":4.8,"total_pairs":48},{"measure":21,"dissonance":0.171,"dissonant_pairs":7.7,"total_pairs":45},{"measure":22,"dissonance":0.2,"dissonant_pairs":4.8,"total_pairs":24},{"measure":23,"dissonance":0.058,"dissonant_pairs":2.8,"total_pairs":48},{"measure":24,"dissonance":0.036,"dissonant_pairs":1.0,"total_pairs":28},{"measure":25,"dissonance":0.118,"dissonant_pairs":2.6,"total_pairs":22},{"measure":26,"dissonance":0.058,"dissonant_pairs":2.8,"total_pairs":48},{"measure":27,"dissonance":0.088,"dissonant_pairs":3.0,"total_pairs":34},{"measure":28,"dissonance":0.126,"dissonant_pairs":3.9,"total_pairs":31},{"measure":29,"dissonance":0.067,"dissonant_pairs":1.8,"total_pairs":27},{"measure":30,"dissonance":0.068,"dissonant_pairs":1.5,"total_pairs":22},{"measure":31,"dissonance":0.2,"dissonant_pairs":4.4,"total_pairs":22},{"measure":32,"dissonance":0.138,"dissonant_pairs":1.8,"total_pairs":13},{"measure":33,"dissonance":0.082,"dissonant_pairs":2.8,"total_pairs":34},{"measure":34,"dissonance":0.03,"dissonant_pairs":1.0,"total_pairs":33},{"measure":35,"dissonance":0.113,"dissonant_pairs":4.4,"total_pairs":39},{"measure":36,"dissonance":0.1,"dissonant_pairs":4.8,"total_pairs":48},{"measure":37,"dissonance":0.114,"dissonant_pairs":4.8,"total_pairs":42},{"measure":38,"dissonance":0.092,"dissonant_pairs":3.3,"total_pairs":36},{"measure":39,"dissonance":0.165,"dissonant_pairs":3.3,"total_pairs":20},{"measure":40,"dissonance":0.125,"dissonant_pairs":2.5,"total_pairs":20},{"measure":41,"dissonance":0.121,"dissonant_pairs":4.1,"total_pairs":34},{"measure":42,"dissonance":0.021,"dissonant_pairs":1.0,"total_pairs":48},{"measure":43,"dissonance":0.159,"dissonant_pairs":6.2,"total_pairs":39},{"measure":44,"dissonance":0.143,"dissonant_pairs":4.3,"total_pairs":30},{"measure":45,"dissonance":0.133,"dissonant_pairs":5.3,"total_pairs":40},{"measure":46,"dissonance":0.129,"dissonant_pairs":5.8,"total_pairs":45},{"measure":47,"dissonance":0.077,"dissonant_pairs":2.3,"total_pairs":30},{"measure":48,"dissonance":0.097,"dissonant_pairs":3.3,"total_pairs":34},{"measure":49,"dissonance":0.146,"dissonant_pairs":7.0,"total_pairs":48},{"measure":50,"dissonance":0.116,"dissonant_pairs":5.0,"total_pairs":43},{"measure":51,"dissonance":0.073,"dissonant_pairs":3.3,"total_pairs":45},{"measure":52,"dissonance":0.171,"dissonant_pairs":3.6,"total_pairs":21},{"measure":53,"dissonance":0.143,"dissonant_pairs":1.0,"total_pairs":7},{"measure":54,"dissonance":0.151,"dissonant_pairs":6.8,"total_pairs":45},{"measure":55,"dissonance":0.174,"dissonant_pairs":7.5,"total_pairs":43},{"measure":56,"dissonance":0.129,"dissonant_pairs":5.4,"total_pairs":42},{"measure":57,"dissonance":0.138,"dissonant_pairs":5.1,"total_pairs":37},{"measure":58,"dissonance":0.083,"dissonant_pairs":2.5,"total_pairs":30},{"measure":59,"dissonance":0.12,"dissonant_pairs":5.4,"total_pairs":45},{"measure":60,"dissonance":0.115,"dissonant_pairs":3.8,"total_pairs":33},{"measure":61,"dissonance":0.062,"dissonant_pairs":2.8,"total_pairs":45},{"measure":62,"dissonance":0.107,"dissonant_pairs":4.3,"total_pairs":40},{"measure":63,"dissonance":0.148,"dissonant_pairs":4.6,"total_pairs":31},{"measure":64,"dissonance":0.152,"dissonant_pairs":4.7,"total_pairs":31},{"measure":65,"dissonance":0.038,"dissonant_pairs":0.5,"total_pairs":13},{"measure":66,"dissonance":0.124,"dissonant_pairs":5.6,"total_pairs":45},{"measure":67,"dissonance":0.123,"dissonant_pairs":5.3,"total_pairs":43},{"measure":68,"dissonance":0.102,"dissonant_pairs":4.6,"total_pairs":45},{"measure":69,"dissonance":0.113,"dissonant_pairs":5.1,"total_pairs":45},{"measure":70,"dissonance":0.111,"dissonant_pairs":5.0,"total_pairs":45},{"measure":71,"dissonance":0.084,"dissonant_pairs":3.8,"total_pairs":45},{"measure":72,"dissonance":0.042,"dissonant_pairs":1.5,"total_pairs":36},{"measure":73,"dissonance":0.096,"dissonant_pairs":2.3,"total_pairs":24},{"measure":74,"dissonance":0.173,"dissonant_pairs":3.8,"total_pairs":22},{"measure":75,"dissonance":0.105,"dissonant_pairs":2.3,"total_pairs":22},{"measure":76,"dissonance":0.136,"dissonant_pairs":3.0,"total_pairs":22},{"measure":77,"dissonance":0.068,"dissonant_pairs":1.5,"total_pairs":22},{"measure":78,"dissonance":0.096,"dissonant_pairs":4.3,"total_pairs":45},{"measure":79,"dissonance":0.092,"dissonant_pairs":4.4,"total_pairs":48},{"measure":80,"dissonance":0.133,"dissonant_pairs":6.4,"total_pairs":48},{"measure":81,"dissonance":0.14,"dissonant_pairs":6.7,"total_pairs":48},{"measure":82,"dissonance":0.116,"dissonant_pairs":4.3,"total_pairs":37},{"measure":83,"dissonance":0.137,"dissonant_pairs":5.9,"total_pairs":43},{"measure":84,"dissonance":0.067,"dissonant_pairs":2.8,"total_pairs":42},{"measure":85,"dissonance":0.095,"dissonant_pairs":4.1,"total_pairs":43},{"measure":86,"dissonance":0.084,"dissonant_pairs":3.1,"total_pairs":37},{"measure":87,"dissonance":0.154,"dissonant_pairs":7.4,"total_pairs":48},{"measure":88,"dissonance":0.173,"dissonant_pairs":8.3,"total_pairs":48},{"measure":89,"dissonance":0.153,"dissonant_pairs":5.5,"total_pairs":36},{"measure":90,"dissonance":0.0,"dissonant_pairs":0,"total_pairs":6}]}