{"metadata":{"title":"The Art of the Fugue, Contrapunctus III","number":"III","composer":"J.S. Bach","source_midi":"kunst_der_fuge_iii_mutopia.mid","tempo_bpm":120.0,"tempo_us_per_beat":500000,"ticks_per_beat":384,"time_signature":"4/4","key_signature":"D minor","total_duration_seconds":150.2609,"total_measures":72,"beats_per_measure":4},"voices":[{"id":0,"name":"Soprano","midi_channel":0,"midi_track":1,"color":"#E85D4A","pitch_min":61,"pitch_max":82,"note_count":205},{"id":1,"name":"Alto","midi_channel":1,"midi_track":2,"color":"#4A90D9","pitch_min":55,"pitch_max":77,"note_count":328},{"id":2,"name":"Tenor","midi_channel":2,"midi_track":3,"color":"#27AE60","pitch_min":46,"pitch_max":67,"note_count":258},{"id":3,"name":"Bass","midi_channel":3,"midi_track":4,"color":"#8E44AD","pitch_min":36,"pitch_max":60,"note_count":262}],"notes":[{"voice":2,"pitch":62,"start":0.0,"duration":1.0435,"velocity":127,"measure":1,"beat":1.0,"subject_pos":0,"motif":"subject_inv","motif_pos":0,"best_pos":0,"similarity":1.0,"stretto":false,"stretto_voices":0,"combination":[],"aug_dim":"","rhythm_ratio":1.0,"mirror":false,"chromatic_density":0.0,"complexity":0.371,"dissonance":0},{"voice":2,"pitch":57,"start":1.0435,"duration":1.0435,"velocity":127,"measure":1,"beat":3.0,"subject_pos":1,"motif":"subject_inv","motif_pos":1,"best_pos":1,"similarity":1.0,"stretto":false,"stretto_voices":0,"combination":[],"aug_dim":"","rhythm_ratio":1.0,"mirror":false,"chromatic_density":0.0,"complexity":0.371,"dissonance":0},{"voice":2,"pitch":60,"start":2.087,"duration":1.0435,"velocity":127,"measure":2,"beat":1.0,"subject_pos":2,"motif":"subject_inv","motif_pos":2,"best_pos":2,"similarity":1.0,"stretto":false,"stretto_voices":0,"combination":[],"aug_dim":"","rhythm_ratio":1.0,"mirror":false,"chromatic_density":0.0,"complexity":0.371,"dissonance":0},{"voice":2,"pitch":64,"start":3.1304,"duration":1.0435,"velocity":127,"measure":2,"beat":3.0,"subject_pos":3,"motif":"subject_inv","motif_pos":3,"best_pos":3,"similarity":1.0,"stretto":false,"stretto_voices":0,"combination":[],"aug_dim":"","rhythm_ratio":1.0,"mirror":false,"chromatic_density":0.0,"complexity":0.371,"dissonance":0},{"voice":2,"pitch":65,"start":4.1739,"duration":1.0435,"velocity":127,"measure":3,"beat":1.0,"subject_pos":4,"motif":"subject_inv","motif_pos":4,"best_pos":4,"similarity":1.0,"stretto":false,"stretto_voices":0,"combination":[],"aug_dim":"","rhythm_ratio":1.0,"mirror":false,"chromatic_density":0.5,"complexity":0.424,"dissonance":0},{"voice":2,"pitch":64,"start":5.2174,"duration":0.5217,"velocity":127,"measure":3,"beat":3.0,"subject_pos":5,"motif":"subject_inv","motif_pos":5,"best_pos":5,"similarity":1.0,"stretto":false,"stretto_voices":0,"combination":[],"aug_dim":"","rhythm_ratio":1.0,"mirror":false,"chromatic_density":0.5,"complexity":0.424,"dissonance":0},{"voice":2,"pitch":62,"start":5.7391,"duration":0.5217,"velocity":127,"measure":3,"beat":4.0,"subject_pos":6,"motif":"subject_inv","motif_pos":6,"best_pos":6,"similarity":1.0,"stretto":false,"stretto_voices":0,"combination":[],"aug_dim":"","rhythm_ratio":1.0,"mirror":false,"chromatic_density":0.5,"complexity":0.424,"dissonance":0},{"voice":2,"pitch":61,"start":6.2609,"duration":1.3043,"velocity":127,"measure":4,"beat":1.0,"subject_pos":7,"motif":"subject_inv","motif_pos":7,"best_pos":7,"similarity":1.0,"stretto":false,"stretto_voices":0,"combination":[],"aug_dim":"","rhythm_ratio":1.0,"mirror":false,"chromatic_density":0.0,"complexity":0.43,"dissonance":0},{"voice":2,"pitch":57,"start":7.5652,"duration":0.2609,"velocity":127,"measure":4,"beat":3.5,"subject_pos":0,"motif":"subject","motif_pos":0,"best_pos":0,"similarity":1.0,"stretto":false,"stretto_voices":0,"combination":[],"aug_dim":"","rhythm_ratio":1.0,"mirror":false,"chromatic_density":0.0,"complexity":0.43,"dissonance":0},{"voice":2,"pitch":59,"start":7.8261,"duration":0.2609,"velocity":127,"measure":4,"beat":4.0,"subject_pos":-1,"motif":"subject","motif_pos":0,"best_pos":0,"similarity":1.0,"stretto":false,"stretto_voices":0,"combination":[],"aug_dim":"","rhythm_ratio":1.0,"mirror":false,"chromatic_density":0.0,"complexity":0.43,"dissonance":0},{"voice":2,"pitch":61,"start":8.087,"duration":0.2609,"velocity":127,"measure":4,"beat":4.5,"subject_pos":-1,"motif":"subject","motif_pos":0,"best_pos":0,"similarity":1.0,"stretto":false,"stretto_voices":0,"combination":[],"aug_dim":"diminution","rhythm_ratio":0.41,"mirror":true,"chromatic_density":0.0,"complexity":0.43,"dissonance":0},{"voice":1,"pitch":69,"start":8.3478,"duration":1.0435,"velocity":127,"measure":5,"beat":1.0,"subject_pos":0,"motif":"subject_inv","motif_pos":0,"best_pos":0,"similarity":1.0,"stretto":true,"stretto_voices":2,"combination":[],"aug_dim":"","rhythm_ratio":1.0,"mirror":true,"chromatic_density":0.5,"complexity":0.552,"dissonance":0.2},{"voice":2,"pitch":62,"start":8.3478,"duration":0.5217,"velocity":127,"measure":5,"beat":1.0,"subject_pos":1,"motif":"subject","motif_pos":1,"best_pos":1,"similarity":1.0,"stretto":true,"stretto_voices":2,"combination":[],"aug_dim":"diminution","rhythm_ratio":0.41,"mirror":true,"chromatic_density":0.5,"complexity":0.552,"dissonance":0.2},{"voice":2,"pitch":60,"start":8.8696,"duration":1.0435,"velocity":127,"measure":5,"beat":2.0,"subject_pos":2,"motif":"subject","motif_pos":2,"best_pos":2,"similarity":1.0,"stretto":true,"stretto_voices":2,"combination":[],"aug_dim":"diminution","rhythm_ratio":0.41,"mirror":true,"chromatic_density":0.5,"complexity":0.552,"dissonance":0.2},{"voice":1,"pitch":62,"start":9.3913,"duration":1.0435,"velocity":127,"measure":5,"beat":3.0,"subject_pos":1,"motif":"subject_inv","motif_pos":1,"best_pos":1,"similarity":1.0,"stretto":true,"stretto_voices":2,"combination":[],"aug_dim":"","rhythm_ratio":1.0,"mirror":true,"chromatic_density":0.5,"complexity":0.552,"dissonance":0.2},{"voice":2,"pitch":59,"start":9.913,"duration":0.2609,"velocity":127,"measure":5,"beat":4.0,"subject_pos":-1,"motif":"subject","motif_pos":2,"best_pos":2,"similarity":1.0,"stretto":true,"stretto_voices":2,"combination":[],"aug_dim":"diminution","rhythm_ratio":0.41,"mirror":true,"chromatic_density":0.5,"complexity":0.552,"dissonance":0.2},{"voice":2,"pitch":58,"start":10.1739,"duration":0.2609,"velocity":127,"measure":5,"beat":4.5,"subject_pos":-1,"motif":"subject","motif_pos":2,"best_pos":2,"similarity":1.0,"stretto":true,"stretto_voices":2,"combination":[],"aug_dim":"diminution","rhythm_ratio":0.41,"mirror":true,"chromatic_density":0.5,"complexity":0.552,"dissonance":0.2},{"voice":1,"pitch":65,"start":10.4348,"duration":1.0435,"velocity":127,"measure":6,"beat":1.0,"subject_pos":2,"motif":"subject_inv","motif_pos":2,"best_pos":2,"similarity":1.0,"stretto":true,"stretto_voices":2,"combination":[],"aug_dim":"","rhythm_ratio":1.0,"mirror":true,"chromatic_density":0.667,"complexity":0.533,"dissonance":0.133},{"voice":2,"pitch":57,"start":10.4348,"duration":0.2609,"velocity":127,"measure":6,"beat":1.0,"subject_pos":3,"motif":"subject","motif_pos":3,"best_pos":3,"similarity":1.0,"stretto":true,"stretto_voices":2,"combination":[],"aug_dim":"diminution","rhythm_ratio":0.41,"mirror":true,"chromatic_density":0.667,"complexity":0.533,"dissonance":0.133},{"voice":2,"pitch":56,"start":10.6956,"duration":0.2609,"velocity":127,"measure":6,"beat":1.5,"subject_pos":4,"motif":"subject","motif_pos":4,"best_pos":4,"similarity":1.0,"stretto":true,"stretto_voices":2,"combination":[],"aug_dim":"diminution","rhythm_ratio":0.41,"mirror":true,"chromatic_density":0.667,"complexity":0.533,"dissonance":0.133},{"voice":2,"pitch":57,"start":10.9565,"duration":0.2609,"velocity":127,"measure":6,"beat":2.0,"subject_pos":5,"motif":"subject","motif_pos":5,"best_pos":5,"similarity":1.0,"stretto":true,"stretto_voices":2,"combination":[],"aug_dim":"diminution","rhythm_ratio":0.41,"mirror":true,"chromatic_density":0.667,"complexity":0.533,"dissonance":0.133},{"voice":2,"pitch":59,"start":11.2174,"duration":0.2609,"velocity":127,"measure":6,"beat":2.5,"subject_pos":6,"motif":"subject","motif_pos":6,"best_pos":6,"similarity":1.0,"stretto":true,"stretto_voices":2,"combination":[],"aug_dim":"diminution","rhythm_ratio":0.41,"mirror":true,"chromatic_density":0.667,"complexity":0.533,"dissonance":0.133},{"voice":1,"pitch":69,"start":11.4783,"duration":1.0435,"velocity":127,"measure":6,"beat":3.0,"subject_pos":3,"motif":"subject_inv","motif_pos":3,"best_pos":3,"similarity":1.0,"stretto":false,"stretto_voices":0,"combination":[],"aug_dim":"","rhythm_ratio":1.0,"mirror":true,"chromatic_density":0.667,"complexity":0.533,"dissonance":0.133},{"voice":2,"pitch":60,"start":11.4783,"duration":0.5217,"velocity":127,"measure":6,"beat":3.0,"subject_pos":7,"motif":"subject","motif_pos":7,"best_pos":7,"similarity":1.0,"stretto":true,"stretto_voices":2,"combination":[],"aug_dim":"diminution","rhythm_ratio":0.41,"mirror":true,"chromatic_density":0.667,"complexity":0.533,"dissonance":0.133},{"voice":2,"pitch":61,"start":12.0,"duration":1.0435,"velocity":127,"measure":6,"beat":4.0,"subject_pos":-1,"motif":"","motif_pos":-1,"best_pos":4,"similarity":0.593,"stretto":false,"stretto_voices":0,"combination":[],"aug_dim":"","rhythm_ratio":1.0,"mirror":false,"chromatic_density":0.667,"complexity":0.533,"dissonance":0.133},{"voice":1,"pitch":70,"start":12.5217,"duration":1.0435,"velocity":127,"measure":7,"beat":1.0,"subject_pos":4,"motif":"subject_inv","motif_pos":4,"best_pos":4,"similarity":1.0,"stretto":false,"stretto_voices":0,"combination":[],"aug_dim":"","rhythm_ratio":1.0,"mirror":true,"chromatic_density":0.6,"complexity":0.454,"dissonance":0.0},{"voice":2,"pitch":62,"start":13.0435,"duration":0.2609,"velocity":127,"measure":7,"beat":2.0,"subject_pos":-1,"motif":"","motif_pos":-1,"best_pos":5,"similarity":0.757,"stretto":false,"stretto_voices":0,"combination":[],"aug_dim":"","rhythm_ratio":1.0,"mirror":false,"chromatic_density":0.6,"complexity":0.454,"dissonance":0.0},{"voice":2,"pitch":64,"start":13.3043,"duration":0.2609,"velocity":127,"measure":7,"beat":2.5,"subject_pos":-1,"motif":"","motif_pos":-1,"best_pos":6,"similarity":0.732,"stretto":false,"stretto_voices":0,"combination":[],"aug_dim":"","rhythm_ratio":1.0,"mirror":false,"chromatic_density":0.6,"complexity":0.454,"dissonance":0.0},{"voice":1,"pitch":69,"start":13.5652,"duration":0.5217,"velocity":127,"measure":7,"beat":3.0,"subject_pos":5,"motif":"subject_inv","motif_pos":5,"best_pos":5,"similarity":1.0,"stretto":false,"stretto_voices":0,"combination":[],"aug_dim":"","rhythm_ratio":1.0,"mirror":true,"chromatic_density":0.6,"complexity":0.454,"dissonance":0.0},{"voice":2,"pitch":65,"start":13.5652,"duration":0.5217,"velocity":127,"measure":7,"beat":3.0,"subject_pos":-1,"motif":"","motif_pos":-1,"best_pos":7,"similarity":0.5,"stretto":false,"stretto_voices":0,"combination":[],"aug_dim":"","rhythm_ratio":1.0,"mirror":false,"chromatic_density":0.6,"complexity":0.454,"dissonance":0.0},{"voice":1,"pitch":67,"start":14.087,"duration":0.5217,"velocity":127,"measure":7,"beat":4.0,"subject_pos":6,"motif":"subject_inv","motif_pos":6,"best_pos":6,"similarity":1.0,"stretto":false,"stretto_voices":0,"combination":[],"aug_dim":"","rhythm_ratio":1.0,"mirror":true,"chromatic_density":0.6,"complexity":0.454,"dissonance":0.0},{"voice":2,"pitch":64,"start":14.087,"duration":0.7826,"velocity":127,"measure":7,"beat":4.0,"subject_pos":0,"motif":"subject_inv","motif_pos":0,"best_pos":0,"similarity":1.0,"stretto":false,"stretto_voices":0,"combination":[],"aug_dim":"diminution","rhythm_ratio":0.32,"mirror":true,"chromatic_density":0.6,"complexity":0.454,"dissonance":0.0},{"voice":1,"pitch":65,"start":14.6087,"duration":1.3043,"velocity":127,"measure":8,"beat":1.0,"subject_pos":7,"motif":"subject_inv","motif_pos":7,"best_pos":7,"similarity":1.0,"stretto":false,"stretto_voices":0,"combination":[],"aug_dim":"","rhythm_ratio":1.0,"mirror":true,"chromatic_density":0.556,"complexity":0.537,"dissonance":0.071},{"voice":2,"pitch":57,"start":14.8696,"duration":0.2609,"velocity":127,"measure":8,"beat":1.5,"subject_pos":1,"motif":"subject_inv","motif_pos":1,"best_pos":1,"similarity":1.0,"stretto":false,"stretto_voices":0,"combination":[],"aug_dim":"diminution","rhythm_ratio":0.32,"mirror":true,"chromatic_density":0.556,"complexity":0.537,"dissonance":0.071},{"voice":2,"pitch":59,"start":15.1304,"duration":0.2609,"velocity":127,"measure":8,"beat":2.0,"subject_pos":-1,"motif":"subject_inv","motif_pos":1,"best_pos":1,"similarity":1.0,"stretto":false,"stretto_voices":0,"combination":[],"aug_dim":"diminution","rhythm_ratio":0.32,"mirror":true,"chromatic_density":0.556,"complexity":0.537,"dissonance":0.071},{"voice":2,"pitch":61,"start":15.3913,"duration":0.2609,"velocity":127,"measure":8,"beat":2.5,"subject_pos":2,"motif":"subject_inv","motif_pos":2,"best_pos":2,"similarity":1.0,"stretto":false,"stretto_voices":0,"combination":[],"aug_dim":"diminution","rhythm_ratio":0.32,"mirror":true,"chromatic_density":0.556,"complexity":0.537,"dissonance":0.071},{"voice":2,"pitch":62,"start":15.6522,"duration":0.2609,"velocity":127,"measure":8,"beat":3.0,"subject_pos":-1,"motif":"subject_inv","motif_pos":2,"best_pos":2,"similarity":1.0,"stretto":false,"stretto_voices":0,"combination":[],"aug_dim":"diminution","rhythm_ratio":0.32,"mirror":true,"chromatic_density":0.556,"complexity":0.537,"dissonance":0.071},{"voice":1,"pitch":64,"start":15.913,"duration":0.2609,"velocity":127,"measure":8,"beat":3.5,"subject_pos":0,"motif":"subject","motif_pos":0,"best_pos":0,"similarity":1.0,"stretto":true,"stretto_voices":2,"combination":[],"aug_dim":"","rhythm_ratio":1.0,"mirror":true,"chromatic_density":0.556,"complexity":0.537,"dissonance":0.071},{"voice":2,"pitch":61,"start":15.913,"duration":0.2609,"velocity":127,"measure":8,"beat":3.5,"subject_pos":-1,"motif":"subject_inv","motif_pos":2,"best_pos":2,"similarity":1.0,"stretto":true,"stretto_voices":2,"combination":[],"aug_dim":"diminution","rhythm_ratio":0.32,"mirror":true,"chromatic_density":0.556,"complexity":0.537,"dissonance":0.071},{"voice":1,"pitch":65,"start":16.1739,"duration":0.2609,"velocity":127,"measure":8,"beat":4.0,"subject_pos":-1,"motif":"subject","motif_pos":0,"best_pos":0,"similarity":1.0,"stretto":true,"stretto_voices":2,"combination":[],"aug_dim":"","rhythm_ratio":1.0,"mirror":true,"chromatic_density":0.556,"complexity":0.537,"dissonance":0.071},{"voice":2,"pitch":62,"start":16.1739,"duration":0.2609,"velocity":127,"measure":8,"beat":4.0,"subject_pos":-1,"motif":"subject_inv","motif_pos":2,"best_pos":2,"similarity":1.0,"stretto":true,"stretto_voices":2,"combination":[],"aug_dim":"diminution","rhythm_ratio":0.32,"mirror":true,"chromatic_density":0.556,"complexity":0.537,"dissonance":0.071},{"voice":1,"pitch":67,"start":16.4348,"duration":0.2609,"velocity":127,"measure":8,"beat":4.5,"subject_pos":-1,"motif":"subject","motif_pos":0,"best_pos":0,"similarity":1.0,"stretto":false,"stretto_voices":0,"combination":[],"aug_dim":"diminution","rhythm_ratio":0.41,"mirror":true,"chromatic_density":0.556,"complexity":0.537,"dissonance":0.071},{"voice":2,"pitch":64,"start":16.4348,"duration":0.2609,"velocity":127,"measure":8,"beat":4.5,"subject_pos":3,"motif":"subject_inv","motif_pos":3,"best_pos":3,"similarity":1.0,"stretto":false,"stretto_voices":0,"combination":[],"aug_dim":"diminution","rhythm_ratio":0.32,"mirror":true,"chromatic_density":0.556,"complexity":0.537,"dissonance":0.071},{"voice":0,"pitch":74,"start":16.6956,"duration":1.0435,"velocity":127,"measure":9,"beat":1.0,"subject_pos":0,"motif":"subject_inv","motif_pos":0,"best_pos":0,"similarity":1.0,"stretto":true,"stretto_voices":3,"combination":[],"aug_dim":"","rhythm_ratio":1.0,"mirror":true,"chromatic_density":0.556,"complexity":0.632,"dissonance":0.195},{"voice":1,"pitch":69,"start":16.6956,"duration":0.5217,"velocity":127,"measure":9,"beat":1.0,"subject_pos":1,"motif":"subject","motif_pos":1,"best_pos":1,"similarity":1.0,"stretto":true,"stretto_voices":3,"combination":[],"aug_dim":"diminution","rhythm_ratio":0.41,"mirror":true,"chromatic_density":0.556,"complexity":0.632,"dissonance":0.195},{"voice":2,"pitch":65,"start":16.6956,"duration":0.2609,"velocity":127,"measure":9,"beat":1.0,"subject_pos":4,"motif":"subject_inv","motif_pos":4,"best_pos":4,"similarity":1.0,"stretto":true,"stretto_voices":3,"combination":[],"aug_dim":"diminution","rhythm_ratio":0.32,"mirror":true,"chromatic_density":0.556,"complexity":0.632,"dissonance":0.195},{"voice":2,"pitch":64,"start":16.9565,"duration":0.2609,"velocity":127,"measure":9,"beat":1.5,"subject_pos":5,"motif":"subject_inv","motif_pos":5,"best_pos":5,"similarity":1.0,"stretto":true,"stretto_voices":3,"combination":[],"aug_dim":"diminution","rhythm_ratio":0.32,"mirror":true,"chromatic_density":0.556,"complexity":0.632,"dissonance":0.195},{"voice":1,"pitch":67,"start":17.2174,"duration":1.0435,"velocity":127,"measure":9,"beat":2.0,"subject_pos":2,"motif":"subject","motif_pos":2,"best_pos":2,"similarity":1.0,"stretto":true,"stretto_voices":3,"combination":[],"aug_dim":"diminution","rhythm_ratio":0.41,"mirror":true,"chromatic_density":0.556,"complexity":0.632,"dissonance":0.195},{"voice":2,"pitch":62,"start":17.2174,"duration":0.2609,"velocity":127,"measure":9,"beat":2.0,"subject_pos":6,"motif":"subject_inv","motif_pos":6,"best_pos":6,"similarity":1.0,"stretto":true,"stretto_voices":3,"combination":[],"aug_dim":"diminution","rhythm_ratio":0.32,"mirror":true,"chromatic_density":0.556,"complexity":0.632,"dissonance":0.195},{"voice":2,"pitch":61,"start":17.4783,"duration":0.2609,"velocity":127,"measure":9,"beat":2.5,"subject_pos":7,"motif":"subject_inv","motif_pos":7,"best_pos":7,"similarity":1.0,"stretto":true,"stretto_voices":3,"combination":[],"aug_dim":"diminution","rhythm_ratio":0.32,"mirror":true,"chromatic_density":0.556,"complexity":0.632,"dissonance":0.195},{"voice":0,"pitch":69,"start":17.7391,"duration":1.0435,"velocity":127,"measure":9,"beat":3.0,"subject_pos":1,"motif":"subject_inv","motif_pos":1,"best_pos":1,"similarity":1.0,"stretto":false,"stretto_voices":0,"combination":[],"aug_dim":"","rhythm_ratio":1.0,"mirror":true,"chromatic_density":0.556,"complexity":0.632,"dissonance":0.195},{"voice":2,"pitch":62,"start":17.7391,"duration":0.5217,"velocity":127,"measure":9,"beat":3.0,"subject_pos":-1,"motif":"","motif_pos":-1,"best_pos":5,"similarity":0.464,"stretto":false,"stretto_voices":0,"combination":[],"aug_dim":"","rhythm_ratio":1.0,"mirror":false,"chromatic_density":0.556,"complexity":0.632,"dissonance":0.195},{"voice":1,"pitch":66,"start":18.2609,"duration":0.2609,"velocity":127,"measure":9,"beat":4.0,"subject_pos":-1,"motif":"subject","motif_pos":2,"best_pos":2,"similarity":1.0,"stretto":false,"stretto_voices":0,"combination":[],"aug_dim":"diminution","rhythm_ratio":0.41,"mirror":true,"chromatic_density":0.556,"complexity":0.632,"dissonance":0.195},{"voice":2,"pitch":50,"start":18.2609,"duration":0.5217,"velocity":127,"measure":9,"beat":4.0,"subject_pos":-1,"motif":"","motif_pos":-1,"best_pos":0,"similarity":0.307,"stretto":false,"stretto_voices":0,"combination":[],"aug_dim":"","rhythm_ratio":1.0,"mirror":false,"chromatic_density":0.556,"complexity":0.632,"dissonance":0.195},{"voice":1,"pitch":65,"start":18.5217,"duration":0.2609,"velocity":127,"measure":9,"beat":4.5,"subject_pos":-1,"motif":"subject","motif_pos":2,"best_pos":2,"similarity":1.0,"stretto":false,"stretto_voices":0,"combination":[],"aug_dim":"diminution","rhythm_ratio":0.41,"mirror":true,"chromatic_density":0.556,"complexity":0.632,"dissonance":0.195},{"voice":0,"pitch":72,"start":18.7826,"duration":1.0435,"velocity":127,"measure":10,"beat":1.0,"subject_pos":2,"motif":"subject_inv","motif_pos":2,"best_pos":2,"similarity":1.0,"stretto":false,"stretto_voices":0,"combination":[],"aug_dim":"","rhythm_ratio":1.0,"mirror":true,"chromatic_density":0.455,"complexity":0.564,"dissonance":0.15},{"voice":1,"pitch":64,"start":18.7826,"duration":0.2609,"velocity":127,"measure":10,"beat":1.0,"subject_pos":3,"motif":"subject","motif_pos":3,"best_pos":3,"similarity":1.0,"stretto":false,"stretto_voices":0,"combination":[],"aug_dim":"diminution","rhythm_ratio":0.41,"mirror":true,"chromatic_density":0.455,"complexity":0.564,"dissonance":0.15},{"voice":2,"pitch":57,"start":18.7826,"duration":0.2609,"velocity":127,"measure":10,"beat":1.0,"subject_pos":-1,"motif":"","motif_pos":-1,"best_pos":5,"similarity":0.436,"stretto":false,"stretto_voices":0,"combination":[],"aug_dim":"","rhythm_ratio":1.0,"mirror":false,"chromatic_density":0.455,"complexity":0.564,"dissonance":0.15},{"voice":1,"pitch":63,"start":19.0435,"duration":0.2609,"velocity":127,"measure":10,"beat":1.5,"subject_pos":4,"motif":"subject","motif_pos":4,"best_pos":4,"similarity":1.0,"stretto":false,"stretto_voices":0,"combination":[],"aug_dim":"diminution","rhythm_ratio":0.41,"mirror":true,"chromatic_density":0.455,"complexity":0.564,"dissonance":0.15},{"voice":2,"pitch":59,"start":19.0435,"duration":0.2609,"velocity":127,"measure":10,"beat":1.5,"subject_pos":-1,"motif":"","motif_pos":-1,"best_pos":6,"similarity":0.571,"stretto":false,"stretto_voices":0,"combination":[],"aug_dim":"","rhythm_ratio":1.0,"mirror":false,"chromatic_density":0.455,"complexity":0.564,"dissonance":0.15},{"voice":1,"pitch":64,"start":19.3043,"duration":0.2609,"velocity":127,"measure":10,"beat":2.0,"subject_pos":5,"motif":"subject","motif_pos":5,"best_pos":5,"similarity":1.0,"stretto":false,"stretto_voices":0,"combination":[],"aug_dim":"diminution","rhythm_ratio":0.41,"mirror":true,"chromatic_density":0.455,"complexity":0.564,"dissonance":0.15},{"voice":2,"pitch":60,"start":19.3043,"duration":0.7826,"velocity":127,"measure":10,"beat":2.0,"subject_pos":-1,"motif":"","motif_pos":-1,"best_pos":7,"similarity":0.429,"stretto":false,"stretto_voices":0,"combination":[],"aug_dim":"","rhythm_ratio":1.0,"mirror":false,"chromatic_density":0.455,"complexity":0.564,"dissonance":0.15},{"voice":1,"pitch":66,"start":19.5652,"duration":0.2609,"velocity":127,"measure":10,"beat":2.5,"subject_pos":6,"motif":"subject","motif_pos":6,"best_pos":6,"similarity":1.0,"stretto":false,"stretto_voices":0,"combination":[],"aug_dim":"diminution","rhythm_ratio":0.41,"mirror":true,"chromatic_density":0.455,"complexity":0.564,"dissonance":0.15},{"voice":0,"pitch":76,"start":19.8261,"duration":1.0435,"velocity":127,"measure":10,"beat":3.0,"subject_pos":3,"motif":"subject_inv","motif_pos":3,"best_pos":3,"similarity":1.0,"stretto":false,"stretto_voices":0,"combination":[],"aug_dim":"","rhythm_ratio":1.0,"mirror":true,"chromatic_density":0.455,"complexity":0.564,"dissonance":0.15},{"voice":1,"pitch":67,"start":19.8261,"duration":0.5217,"velocity":127,"measure":10,"beat":3.0,"subject_pos":7,"motif":"subject","motif_pos":7,"best_pos":7,"similarity":1.0,"stretto":false,"stretto_voices":0,"combination":[],"aug_dim":"diminution","rhythm_ratio":0.41,"mirror":true,"chromatic_density":0.455,"complexity":0.564,"dissonance":0.15},{"voice":2,"pitch":64,"start":20.087,"duration":0.2609,"velocity":127,"measure":10,"beat":3.5,"subject_pos":-1,"motif":"","motif_pos":-1,"best_pos":1,"similarity":0.571,"stretto":false,"stretto_voices":0,"combination":[],"aug_dim":"","rhythm_ratio":1.0,"mirror":false,"chromatic_density":0.455,"complexity":0.564,"dissonance":0.15},{"voice":1,"pitch":68,"start":20.3478,"duration":1.0435,"velocity":127,"measure":10,"beat":4.0,"subject_pos":-1,"motif":"","motif_pos":-1,"best_pos":4,"similarity":0.593,"stretto":false,"stretto_voices":0,"combination":[],"aug_dim":"","rhythm_ratio":1.0,"mirror":false,"chromatic_density":0.455,"complexity":0.564,"dissonance":0.15},{"voice":2,"pitch":62,"start":20.3478,"duration":0.2609,"velocity":127,"measure":10,"beat":4.0,"subject_pos":-1,"motif":"","motif_pos":-1,"best_pos":2,"similarity":0.643,"stretto":false,"stretto_voices":0,"combination":[],"aug_dim":"","rhythm_ratio":1.0,"mirror":false,"chromatic_density":0.455,"complexity":0.564,"dissonance":0.15},{"voice":2,"pitch":60,"start":20.6087,"duration":0.2609,"velocity":127,"measure":10,"beat":4.5,"subject_pos":-1,"motif":"","motif_pos":-1,"best_pos":3,"similarity":0.643,"stretto":false,"stretto_voices":0,"combination":[],"aug_dim":"","rhythm_ratio":1.0,"mirror":false,"chromatic_density":0.455,"complexity":0.564,"dissonance":0.15},{"voice":0,"pitch":77,"start":20.8696,"duration":1.0435,"velocity":127,"measure":11,"beat":1.0,"subject_pos":4,"motif":"subject_inv","motif_pos":4,"best_pos":4,"similarity":1.0,"stretto":false,"stretto_voices":0,"combination":[],"aug_dim":"","rhythm_ratio":1.0,"mirror":true,"chromatic_density":0.333,"complexity":0.517,"dissonance":0.305},{"voice":2,"pitch":59,"start":20.8696,"duration":0.2609,"velocity":127,"measure":11,"beat":1.0,"subject_pos":-1,"motif":"","motif_pos":-1,"best_pos":4,"similarity":0.536,"stretto":false,"stretto_voices":0,"combination":[],"aug_dim":"","rhythm_ratio":1.0,"mirror":false,"chromatic_density":0.333,"complexity":0.517,"dissonance":0.305},{"voice":2,"pitch":47,"start":21.1304,"duration":0.2609,"velocity":127,"measure":11,"beat":1.5,"subject_pos":-1,"motif":"","motif_pos":-1,"best_pos":4,"similarity":0.571,"stretto":false,"stretto_voices":0,"combination":[],"aug_dim":"","rhythm_ratio":1.0,"mirror":false,"chromatic_density":0.333,"complexity":0.517,"dissonance":0.305},{"voice":1,"pitch":69,"start":21.3913,"duration":0.2609,"velocity":127,"measure":11,"beat":2.0,"subject_pos":-1,"motif":"","motif_pos":-1,"best_pos":5,"similarity":0.757,"stretto":false,"stretto_voices":0,"combination":[],"aug_dim":"","rhythm_ratio":1.0,"mirror":false,"chromatic_density":0.333,"complexity":0.517,"dissonance":0.305},{"voice":2,"pitch":48,"start":21.3913,"duration":0.2609,"velocity":127,"measure":11,"beat":2.0,"subject_pos":-1,"motif":"","motif_pos":-1,"best_pos":5,"similarity":0.661,"stretto":false,"stretto_voices":0,"combination":[],"aug_dim":"","rhythm_ratio":1.0,"mirror":false,"chromatic_density":0.333,"complexity":0.517,"dissonance":0.305},{"voice":1,"pitch":71,"start":21.6522,"duration":0.2609,"velocity":127,"measure":11,"beat":2.5,"subject_pos":-1,"motif":"","motif_pos":-1,"best_pos":6,"similarity":0.732,"stretto":false,"stretto_voices":0,"combination":[],"aug_dim":"","rhythm_ratio":1.0,"mirror":false,"chromatic_density":0.333,"complexity":0.517,"dissonance":0.305},{"voice":2,"pitch":50,"start":21.6522,"duration":0.2609,"velocity":127,"measure":11,"beat":2.5,"subject_pos":-1,"motif":"","motif_pos":-1,"best_pos":6,"similarity":0.571,"stretto":false,"stretto_voices":0,"combination":[],"aug_dim":"","rhythm_ratio":1.0,"mirror":false,"chromatic_density":0.333,"complexity":0.517,"dissonance":0.305},{"voice":0,"pitch":76,"start":21.913,"duration":0.5217,"velocity":127,"measure":11,"beat":3.0,"subject_pos":5,"motif":"subject_inv","motif_pos":5,"best_pos":5,"similarity":1.0,"stretto":false,"stretto_voices":0,"combination":[],"aug_dim":"","rhythm_ratio":1.0,"mirror":true,"chromatic_density":0.333,"complexity":0.517,"dissonance":0.305},{"voice":1,"pitch":72,"start":21.913,"duration":0.5217,"velocity":127,"measure":11,"beat":3.0,"subject_pos":-1,"motif":"","motif_pos":-1,"best_pos":7,"similarity":0.5,"stretto":false,"stretto_voices":0,"combination":[],"aug_dim":"","rhythm_ratio":1.0,"mirror":false,"chromatic_density":0.333,"complexity":0.517,"dissonance":0.305},{"voice":2,"pitch":52,"start":21.913,"duration":0.2609,"velocity":127,"measure":11,"beat":3.0,"subject_pos":-1,"motif":"","motif_pos":-1,"best_pos":5,"similarity":0.521,"stretto":false,"stretto_voices":0,"combination":[],"aug_dim":"","rhythm_ratio":1.0,"mirror":false,"chromatic_density":0.333,"complexity":0.517,"dissonance":0.305},{"voice":2,"pitch":54,"start":22.1739,"duration":0.2609,"velocity":127,"measure":11,"beat":3.5,"subject_pos":-1,"motif":"","motif_pos":-1,"best_pos":6,"similarity":0.507,"stretto":false,"stretto_voices":0,"combination":[],"aug_dim":"","rhythm_ratio":1.0,"mirror":false,"chromatic_density":0.333,"complexity":0.517,"dissonance":0.305},{"voice":0,"pitch":74,"start":22.4348,"duration":0.5217,"velocity":127,"measure":11,"beat":4.0,"subject_pos":6,"motif":"subject_inv","motif_pos":6,"best_pos":6,"similarity":1.0,"stretto":false,"stretto_voices":0,"combination":[],"aug_dim":"","rhythm_ratio":1.0,"mirror":true,"chromatic_density":0.333,"complexity":0.517,"dissonance":0.305},{"voice":1,"pitch":71,"start":22.4348,"duration":0.7826,"velocity":127,"measure":11,"beat":4.0,"subject_pos":-1,"motif":"","motif_pos":-1,"best_pos":4,"similarity":0.414,"stretto":false,"stretto_voices":0,"combination":[],"aug_dim":"","rhythm_ratio":1.0,"mirror":false,"chromatic_density":0.333,"complexity":0.517,"dissonance":0.305},{"voice":2,"pitch":56,"start":22.4348,"duration":0.2609,"velocity":127,"measure":11,"beat":4.0,"subject_pos":-1,"motif":"","motif_pos":-1,"best_pos":6,"similarity":0.364,"stretto":false,"stretto_voices":0,"combination":[],"aug_dim":"","rhythm_ratio":1.0,"mirror":false,"chromatic_density":0.333,"complexity":0.517,"dissonance":0.305},{"voice":2,"pitch":52,"start":22.6956,"duration":0.2609,"velocity":127,"measure":11,"beat":4.5,"subject_pos":-1,"motif":"","motif_pos":-1,"best_pos":0,"similarity":0.464,"stretto":false,"stretto_voices":0,"combination":[],"aug_dim":"","rhythm_ratio":1.0,"mirror":false,"chromatic_density":0.333,"complexity":0.517,"dissonance":0.305},{"voice":0,"pitch":73,"start":22.9565,"duration":1.3043,"velocity":127,"measure":12,"beat":1.0,"subject_pos":7,"motif":"subject_inv","motif_pos":7,"best_pos":7,"similarity":1.0,"stretto":false,"stretto_voices":0,"combination":[],"aug_dim":"","rhythm_ratio":1.0,"mirror":true,"chromatic_density":0.2,"complexity":0.471,"dissonance":0.177},{"voice":2,"pitch":57,"start":22.9565,"duration":0.5217,"velocity":127,"measure":12,"beat":1.0,"subject_pos":-1,"motif":"","motif_pos":-1,"best_pos":1,"similarity":0.714,"stretto":false,"stretto_voices":0,"combination":[],"aug_dim":"","rhythm_ratio":1.0,"mirror":false,"chromatic_density":0.2,"complexity":0.471,"dissonance":0.177},{"voice":1,"pitch":64,"start":23.2174,"duration":0.2609,"velocity":127,"measure":12,"beat":1.5,"subject_pos":-1,"motif":"","motif_pos":-1,"best_pos":4,"similarity":0.507,"stretto":false,"stretto_voices":0,"combination":[],"aug_dim":"","rhythm_ratio":1.0,"mirror":false,"chromatic_density":0.2,"complexity":0.471,"dissonance":0.177},{"voice":1,"pitch":65,"start":23.4783,"duration":0.2609,"velocity":127,"measure":12,"beat":2.0,"subject_pos":-1,"motif":"","motif_pos":-1,"best_pos":5,"similarity":0.661,"stretto":false,"stretto_voices":0,"combination":[],"aug_dim":"","rhythm_ratio":1.0,"mirror":false,"chromatic_density":0.2,"complexity":0.471,"dissonance":0.177},{"voice":2,"pitch":55,"start":23.4783,"duration":0.5217,"velocity":127,"measure":12,"beat":2.0,"subject_pos":-1,"motif":"","motif_pos":-1,"best_pos":2,"similarity":0.721,"stretto":false,"stretto_voices":0,"combination":[],"aug_dim":"","rhythm_ratio":1.0,"mirror":false,"chromatic_density":0.2,"complexity":0.471,"dissonance":0.177},{"voice":1,"pitch":67,"start":23.7391,"duration":0.2609,"velocity":127,"measure":12,"beat":2.5,"subject_pos":-1,"motif":"","motif_pos":-1,"best_pos":6,"similarity":0.571,"stretto":false,"stretto_voices":0,"combination":[],"aug_dim":"","rhythm_ratio":1.0,"mirror":false,"chromatic_density":0.2,"complexity":0.471,"dissonance":0.177},{"voice":1,"pitch":69,"start":24.0,"duration":0.5217,"velocity":127,"measure":12,"beat":3.0,"subject_pos":-1,"motif":"","motif_pos":-1,"best_pos":6,"similarity":0.404,"stretto":false,"stretto_voices":0,"combination":[],"aug_dim":"","rhythm_ratio":1.0,"mirror":false,"chromatic_density":0.2,"complexity":0.471,"dissonance":0.177},{"voice":2,"pitch":53,"start":24.0,"duration":0.5217,"velocity":127,"measure":12,"beat":3.0,"subject_pos":-1,"motif":"","motif_pos":-1,"best_pos":3,"similarity":0.657,"stretto":false,"stretto_voices":0,"combination":[],"aug_dim":"","rhythm_ratio":1.0,"mirror":false,"chromatic_density":0.2,"complexity":0.471,"dissonance":0.177},{"voice":0,"pitch":69,"start":24.2609,"duration":0.2609,"velocity":127,"measure":12,"beat":3.5,"subject_pos":-1,"motif":"","motif_pos":-1,"best_pos":5,"similarity":0.536,"stretto":false,"stretto_voices":0,"combination":[],"aug_dim":"","rhythm_ratio":1.0,"mirror":false,"chromatic_density":0.2,"complexity":0.471,"dissonance":0.177},{"voice":0,"pitch":71,"start":24.5217,"duration":0.2609,"velocity":127,"measure":12,"beat":4.0,"subject_pos":-1,"motif":"","motif_pos":-1,"best_pos":5,"similarity":0.604,"stretto":false,"stretto_voices":0,"combination":[],"aug_dim":"","rhythm_ratio":1.0,"mirror":false,"chromatic_density":0.2,"complexity":0.471,"dissonance":0.177},{"voice":1,"pitch":67,"start":24.5217,"duration":0.7826,"velocity":127,"measure":12,"beat":4.0,"subject_pos":-1,"motif":"tail","motif_pos":3,"best_pos":3,"similarity":1.0,"stretto":false,"stretto_voices":0,"combination":[],"aug_dim":"","rhythm_ratio":1.0,"mirror":false,"chromatic_density":0.2,"complexity":0.471,"dissonance":0.177},{"voice":2,"pitch":52,"start":24.5217,"duration":0.5217,"velocity":127,"measure":12,"beat":4.0,"subject_pos":-1,"motif":"","motif_pos":-1,"best_pos":4,"similarity":0.493,"stretto":false,"stretto_voices":0,"combination":[],"aug_dim":"","rhythm_ratio":1.0,"mirror":false,"chromatic_density":0.2,"complexity":0.471,"dissonance":0.177},{"voice":0,"pitch":73,"start":24.7826,"duration":0.2609,"velocity":127,"measure":12,"beat":4.5,"subject_pos":-1,"motif":"","motif_pos":-1,"best_pos":6,"similarity":0.65,"stretto":false,"stretto_voices":0,"combination":[],"aug_dim":"","rhythm_ratio":1.0,"mirror":false,"chromatic_density":0.2,"complexity":0.471,"dissonance":0.177},{"voice":0,"pitch":74,"start":25.0435,"duration":1.3043,"velocity":127,"measure":13,"beat":1.0,"subject_pos":-1,"motif":"","motif_pos":-1,"best_pos":7,"similarity":0.464,"stretto":false,"stretto_voices":0,"combination":[],"aug_dim":"","rhythm_ratio":1.0,"mirror":false,"chromatic_density":0.455,"complexity":0.487,"dissonance":0.068},{"voice":2,"pitch":50,"start":25.0435,"duration":0.2609,"velocity":127,"measure":13,"beat":1.0,"subject_pos":-1,"motif":"","motif_pos":-1,"best_pos":4,"similarity":0.429,"stretto":false,"stretto_voices":0,"combination":[],"aug_dim":"","rhythm_ratio":1.0,"mirror":false,"chromatic_density":0.455,"complexity":0.487,"dissonance":0.068},{"voice":1,"pitch":66,"start":25.3043,"duration":0.2609,"velocity":127,"measure":13,"beat":1.5,"subject_pos":-1,"motif":"tail","motif_pos":4,"best_pos":4,"similarity":1.0,"stretto":false,"stretto_voices":0,"combination":[],"aug_dim":"","rhythm_ratio":1.0,"mirror":false,"chromatic_density":0.455,"complexity":0.487,"dissonance":0.068},{"voice":2,"pitch":62,"start":25.3043,"duration":0.2609,"velocity":127,"measure":13,"beat":1.5,"subject_pos":-1,"motif":"","motif_pos":-1,"best_pos":4,"similarity":0.464,"stretto":false,"stretto_voices":0,"combination":[],"aug_dim":"","rhythm_ratio":1.0,"mirror":false,"chromatic_density":0.455,"complexity":0.487,"dissonance":0.068},{"voice":1,"pitch":67,"start":25.5652,"duration":0.2609,"velocity":127,"measure":13,"beat":2.0,"subject_pos":-1,"motif":"tail","motif_pos":5,"best_pos":5,"similarity":1.0,"stretto":false,"stretto_voices":0,"combination":[],"aug_dim":"","rhythm_ratio":1.0,"mirror":false,"chromatic_density":0.455,"complexity":0.487,"dissonance":0.068},{"voice":2,"pitch":64,"start":25.5652,"duration":0.2609,"velocity":127,"measure":13,"beat":2.0,"subject_pos":-1,"motif":"","motif_pos":-1,"best_pos":5,"similarity":0.607,"stretto":false,"stretto_voices":0,"combination":[],"aug_dim":"","rhythm_ratio":1.0,"mirror":false,"chromatic_density":0.455,"complexity":0.487,"dissonance":0.068},{"voice":1,"pitch":69,"start":25.8261,"duration":0.2609,"velocity":127,"measure":13,"beat":2.5,"subject_pos":-1,"motif":"tail","motif_pos":6,"best_pos":6,"similarity":1.0,"stretto":false,"stretto_voices":0,"combination":[],"aug_dim":"","rhythm_ratio":1.0,"mirror":false,"chromatic_density":0.455,"complexity":0.487,"dissonance":0.068},{"voice":2,"pitch":66,"start":25.8261,"duration":0.2609,"velocity":127,"measure":13,"beat":2.5,"subject_pos":-1,"motif":"","motif_pos":-1,"best_pos":6,"similarity":0.643,"stretto":false,"stretto_voices":0,"combination":[],"aug_dim":"","rhythm_ratio":1.0,"mirror":false,"chromatic_density":0.455,"complexity":0.487,"dissonance":0.068},{"voice":1,"pitch":70,"start":26.087,"duration":0.5217,"velocity":127,"measure":13,"beat":3.0,"subject_pos":-1,"motif":"tail","motif_pos":7,"best_pos":7,"similarity":1.0,"stretto":false,"stretto_voices":0,"combination":[],"aug_dim":"","rhythm_ratio":1.0,"mirror":false,"chromatic_density":0.455,"complexity":0.487,"dissonance":0.068},{"voice":2,"pitch":67,"start":26.087,"duration":0.5217,"velocity":127,"measure":13,"beat":3.0,"subject_pos":-1,"motif":"","motif_pos":-1,"best_pos":7,"similarity":0.464,"stretto":false,"stretto_voices":0,"combination":[],"aug_dim":"","rhythm_ratio":1.0,"mirror":false,"chromatic_density":0.455,"complexity":0.487,"dissonance":0.068},{"voice":0,"pitch":74,"start":26.3478,"duration":0.2609,"velocity":127,"measure":13,"beat":3.5,"subject_pos":-1,"motif":"","motif_pos":-1,"best_pos":5,"similarity":0.607,"stretto":false,"stretto_voices":0,"combination":[],"aug_dim":"","rhythm_ratio":1.0,"mirror":false,"chromatic_density":0.455,"complexity":0.487,"dissonance":0.068},{"voice":0,"pitch":76,"start":26.6087,"duration":0.2609,"velocity":127,"measure":13,"beat":4.0,"subject_pos":-1,"motif":"","motif_pos":-1,"best_pos":6,"similarity":0.661,"stretto":false,"stretto_voices":0,"combination":[],"aug_dim":"","rhythm_ratio":1.0,"mirror":false,"chromatic_density":0.455,"complexity":0.487,"dissonance":0.068},{"voice":1,"pitch":69,"start":26.6087,"duration":0.5217,"velocity":127,"measure":13,"beat":4.0,"subject_pos":-1,"motif":"","motif_pos":-1,"best_pos":1,"similarity":0.446,"stretto":false,"stretto_voices":0,"combination":[],"aug_dim":"","rhythm_ratio":1.0,"mirror":false,"chromatic_density":0.455,"complexity":0.487,"dissonance":0.068},{"voice":2,"pitch":65,"start":26.6087,"duration":0.5217,"velocity":127,"measure":13,"beat":4.0,"subject_pos":-1,"motif":"","motif_pos":-1,"best_pos":3,"similarity":0.471,"stretto":false,"stretto_voices":0,"combination":[],"aug_dim":"","rhythm_ratio":1.0,"mirror":false,"chromatic_density":0.455,"complexity":0.487,"dissonance":0.068},{"voice":0,"pitch":77,"start":26.8696,"duration":0.2609,"velocity":127,"measure":13,"beat":4.5,"subject_pos":-1,"motif":"","motif_pos":-1,"best_pos":5,"similarity":0.593,"stretto":false,"stretto_voices":0,"combination":[],"aug_dim":"","rhythm_ratio":1.0,"mirror":false,"chromatic_density":0.455,"complexity":0.487,"dissonance":0.068},{"voice":0,"pitch":79,"start":27.1304,"duration":0.2609,"velocity":127,"measure":14,"beat":1.0,"subject_pos":-1,"motif":"","motif_pos":-1,"best_pos":6,"similarity":0.436,"stretto":false,"stretto_voices":0,"combination":[],"aug_dim":"","rhythm_ratio":1.0,"mirror":false,"chromatic_density":0.364,"complexity":0.461,"dissonance":0.225},{"voice":1,"pitch":67,"start":27.1304,"duration":1.3043,"velocity":127,"measure":14,"beat":1.0,"subject_pos":-1,"motif":"","motif_pos":-1,"best_pos":2,"similarity":0.643,"stretto":false,"stretto_voices":0,"combination":[],"aug_dim":"","rhythm_ratio":1.0,"mirror":false,"chromatic_density":0.364,"complexity":0.461,"dissonance":0.225},{"voice":2,"pitch":64,"start":27.1304,"duration":0.5217,"velocity":127,"measure":14,"beat":1.0,"subject_pos":-1,"motif":"","motif_pos":-1,"best_pos":2,"similarity":0.5,"stretto":false,"stretto_voices":0,"combination":[],"aug_dim":"","rhythm_ratio":1.0,"mirror":false,"chromatic_density":0.364,"complexity":0.461,"dissonance":0.225},{"voice":0,"pitch":71,"start":27.3913,"duration":0.2609,"velocity":127,"measure":14,"beat":1.5,"subject_pos":-1,"motif":"","motif_pos":-1,"best_pos":5,"similarity":0.45,"stretto":false,"stretto_voices":0,"combination":[],"aug_dim":"","rhythm_ratio":1.0,"mirror":false,"chromatic_density":0.364,"complexity":0.461,"dissonance":0.225},{"voice":0,"pitch":73,"start":27.6522,"duration":0.2609,"velocity":127,"measure":14,"beat":2.0,"subject_pos":-1,"motif":"","motif_pos":-1,"best_pos":6,"similarity":0.579,"stretto":false,"stretto_voices":0,"combination":[],"aug_dim":"","rhythm_ratio":1.0,"mirror":false,"chromatic_density":0.364,"complexity":0.461,"dissonance":0.225},{"voice":2,"pitch":62,"start":27.6522,"duration":0.5217,"velocity":127,"measure":14,"beat":2.0,"subject_pos":-1,"motif":"","motif_pos":-1,"best_pos":3,"similarity":0.714,"stretto":false,"stretto_voices":0,"combination":[],"aug_dim":"","rhythm_ratio":1.0,"mirror":false,"chromatic_density":0.364,"complexity":0.461,"dissonance":0.225},{"voice":0,"pitch":74,"start":27.913,"duration":0.2609,"velocity":127,"measure":14,"beat":2.5,"subject_pos":-1,"motif":"","motif_pos":-1,"best_pos":5,"similarity":0.6,"stretto":false,"stretto_voices":0,"combination":[],"aug_dim":"","rhythm_ratio":1.0,"mirror":false,"chromatic_density":0.364,"complexity":0.461,"dissonance":0.225},{"voice":0,"pitch":76,"start":28.1739,"duration":0.5217,"velocity":127,"measure":14,"beat":3.0,"subject_pos":-1,"motif":"","motif_pos":-1,"best_pos":6,"similarity":0.464,"stretto":false,"stretto_voices":0,"combination":[],"aug_dim":"","rhythm_ratio":1.0,"mirror":false,"chromatic_density":0.364,"complexity":0.461,"dissonance":0.225},{"voice":2,"pitch":61,"start":28.1739,"duration":0.5217,"velocity":127,"measure":14,"beat":3.0,"subject_pos":-1,"motif":"","motif_pos":-1,"best_pos":4,"similarity":0.829,"stretto":false,"stretto_voices":0,"combination":[],"aug_dim":"","rhythm_ratio":1.0,"mirror":false,"chromatic_density":0.364,"complexity":0.461,"dissonance":0.225},{"voice":1,"pitch":64,"start":28.4348,"duration":0.2609,"velocity":127,"measure":14,"beat":3.5,"subject_pos":-1,"motif":"","motif_pos":-1,"best_pos":3,"similarity":0.643,"stretto":false,"stretto_voices":0,"combination":[],"aug_dim":"","rhythm_ratio":1.0,"mirror":false,"chromatic_density":0.364,"complexity":0.461,"dissonance":0.225},{"voice":0,"pitch":74,"start":28.6956,"duration":0.7826,"velocity":127,"measure":14,"beat":4.0,"subject_pos":-1,"motif":"","motif_pos":-1,"best_pos":2,"similarity":0.532,"stretto":false,"stretto_voices":0,"combination":[],"aug_dim":"","rhythm_ratio":1.0,"mirror":false,"chromatic_density":0.364,"complexity":0.461,"dissonance":0.225},{"voice":1,"pitch":65,"start":28.6956,"duration":0.2609,"velocity":127,"measure":14,"beat":4.0,"subject_pos":-1,"motif":"","motif_pos":-1,"best_pos":5,"similarity":0.714,"stretto":false,"stretto_voices":0,"combination":[],"aug_dim":"","rhythm_ratio":1.0,"mirror":false,"chromatic_density":0.364,"complexity":0.461,"dissonance":0.225},{"voice":2,"pitch":62,"start":28.6956,"duration":0.5217,"velocity":127,"measure":14,"beat":4.0,"subject_pos":-1,"motif":"","motif_pos":-1,"best_pos":5,"similarity":0.764,"stretto":false,"stretto_voices":0,"combination":[],"aug_dim":"","rhythm_ratio":1.0,"mirror":false,"chromatic_density":0.364,"complexity":0.461,"dissonance":0.225},{"voice":1,"pitch":67,"start":28.9565,"duration":0.2609,"velocity":127,"measure":14,"beat":4.5,"subject_pos":-1,"motif":"","motif_pos":-1,"best_pos":6,"similarity":0.589,"stretto":false,"stretto_voices":0,"combination":[],"aug_dim":"","rhythm_ratio":1.0,"mirror":false,"chromatic_density":0.364,"complexity":0.461,"dissonance":0.225},{"voice":1,"pitch":69,"start":29.2174,"duration":0.7826,"velocity":127,"measure":15,"beat":1.0,"subject_pos":-1,"motif":"","motif_pos":-1,"best_pos":6,"similarity":0.404,"stretto":false,"stretto_voices":0,"combination":[],"aug_dim":"","rhythm_ratio":1.0,"mirror":false,"chromatic_density":0.556,"complexity":0.559,"dissonance":0.102},{"voice":2,"pitch":64,"start":29.2174,"duration":1.0435,"velocity":127,"measure":15,"beat":1.0,"subject_pos":-1,"motif":"","motif_pos":-1,"best_pos":6,"similarity":0.529,"stretto":false,"stretto_voices":0,"combination":[],"aug_dim":"","rhythm_ratio":1.0,"mirror":false,"chromatic_density":0.556,"complexity":0.559,"dissonance":0.102},{"voice":3,"pitch":57,"start":29.2174,"duration":1.0435,"velocity":127,"measure":15,"beat":1.0,"subject_pos":0,"motif":"subject_inv","motif_pos":0,"best_pos":0,"similarity":1.0,"stretto":false,"stretto_voices":0,"combination":[],"aug_dim":"","rhythm_ratio":1.0,"mirror":false,"chromatic_density":0.556,"complexity":0.559,"dissonance":0.102},{"voice":0,"pitch":73,"start":29.4783,"duration":0.2609,"velocity":127,"measure":15,"beat":1.5,"subject_pos":-1,"motif":"","motif_pos":-1,"best_pos":3,"similarity":0.55,"stretto":false,"stretto_voices":0,"combination":[],"aug_dim":"","rhythm_ratio":1.0,"mirror":false,"chromatic_density":0.556,"complexity":0.559,"dissonance":0.102},{"voice":0,"pitch":72,"start":29.7391,"duration":1.0435,"velocity":127,"measure":15,"beat":2.0,"subject_pos":-1,"motif":"","motif_pos":-1,"best_pos":4,"similarity":0.496,"stretto":false,"stretto_voices":0,"combination":[],"aug_dim":"","rhythm_ratio":1.0,"mirror":false,"chromatic_density":0.556,"complexity":0.559,"dissonance":0.102},{"voice":1,"pitch":67,"start":30.0,"duration":0.2609,"velocity":127,"measure":15,"beat":2.5,"subject_pos":-1,"motif":"","motif_pos":-1,"best_pos":2,"similarity":0.514,"stretto":false,"stretto_voices":0,"combination":[],"aug_dim":"","rhythm_ratio":1.0,"mirror":false,"chromatic_density":0.556,"complexity":0.559,"dissonance":0.102},{"voice":1,"pitch":66,"start":30.2609,"duration":0.2609,"velocity":127,"measure":15,"beat":3.0,"subject_pos":-1,"motif":"","motif_pos":-1,"best_pos":3,"similarity":0.525,"stretto":false,"stretto_voices":0,"combination":[],"aug_dim":"","rhythm_ratio":1.0,"mirror":false,"chromatic_density":0.556,"complexity":0.559,"dissonance":0.102},{"voice":2,"pitch":62,"start":30.2609,"duration":1.5652,"velocity":127,"measure":15,"beat":3.0,"subject_pos":-1,"motif":"","motif_pos":-1,"best_pos":2,"similarity":0.593,"stretto":false,"stretto_voices":0,"combination":[],"aug_dim":"","rhythm_ratio":1.0,"mirror":false,"chromatic_density":0.556,"complexity":0.559,"dissonance":0.102},{"voice":3,"pitch":50,"start":30.2609,"duration":1.0435,"velocity":127,"measure":15,"beat":3.0,"subject_pos":1,"motif":"subject_inv","motif_pos":1,"best_pos":1,"similarity":1.0,"stretto":false,"stretto_voices":0,"combination":[],"aug_dim":"","rhythm_ratio":1.0,"mirror":false,"chromatic_density":0.556,"complexity":0.559,"dissonance":0.102},{"voice":1,"pitch":64,"start":30.5217,"duration":0.2609,"velocity":127,"measure":15,"beat":3.5,"subject_pos":-1,"motif":"","motif_pos":-1,"best_pos":4,"similarity":0.579,"stretto":false,"stretto_voices":0,"combination":[],"aug_dim":"","rhythm_ratio":1.0,"mirror":false,"chromatic_density":0.556,"complexity":0.559,"dissonance":0.102},{"voice":0,"pitch":71,"start":30.7826,"duration":0.2609,"velocity":127,"measure":15,"beat":4.0,"subject_pos":-1,"motif":"","motif_pos":-1,"best_pos":3,"similarity":0.471,"stretto":false,"stretto_voices":0,"combination":[],"aug_dim":"","rhythm_ratio":1.0,"mirror":false,"chromatic_density":0.556,"complexity":0.559,"dissonance":0.102},{"voice":1,"pitch":65,"start":30.7826,"duration":1.8261,"velocity":127,"measure":15,"beat":4.0,"subject_pos":-1,"motif":"","motif_pos":-1,"best_pos":5,"similarity":0.461,"stretto":false,"stretto_voices":0,"combination":[],"aug_dim":"","rhythm_ratio":1.0,"mirror":false,"chromatic_density":0.556,"complexity":0.559,"dissonance":0.102},{"voice":0,"pitch":70,"start":31.0435,"duration":0.2609,"velocity":127,"measure":15,"beat":4.5,"subject_pos":-1,"motif":"","motif_pos":-1,"best_pos":4,"similarity":0.514,"stretto":false,"stretto_voices":0,"combination":[],"aug_dim":"","rhythm_ratio":1.0,"mirror":false,"chromatic_density":0.556,"complexity":0.559,"dissonance":0.102},{"voice":0,"pitch":69,"start":31.3043,"duration":0.2609,"velocity":127,"measure":16,"beat":1.0,"subject_pos":-1,"motif":"tail","motif_pos":3,"best_pos":3,"similarity":1.0,"stretto":false,"stretto_voices":0,"combination":[],"aug_dim":"","rhythm_ratio":1.0,"mirror":false,"chromatic_density":0.5,"complexity":0.602,"dissonance":0.113},{"voice":3,"pitch":53,"start":31.3043,"duration":1.0435,"velocity":127,"measure":16,"beat":1.0,"subject_pos":2,"motif":"subject_inv","motif_pos":2,"best_pos":2,"similarity":1.0,"stretto":false,"stretto_voices":0,"combination":[],"aug_dim":"","rhythm_ratio":1.0,"mirror":false,"chromatic_density":0.5,"complexity":0.602,"dissonance":0.113},{"voice":0,"pitch":68,"start":31.5652,"duration":0.2609,"velocity":127,"measure":16,"beat":1.5,"subject_pos":-1,"motif":"tail","motif_pos":4,"best_pos":4,"similarity":1.0,"stretto":false,"stretto_voices":0,"combination":[],"aug_dim":"","rhythm_ratio":1.0,"mirror":false,"chromatic_density":0.5,"complexity":0.602,"dissonance":0.113},{"voice":0,"pitch":69,"start":31.8261,"duration":0.2609,"velocity":127,"measure":16,"beat":2.0,"subject_pos":-1,"motif":"tail","motif_pos":5,"best_pos":5,"similarity":1.0,"stretto":false,"stretto_voices":0,"combination":[],"aug_dim":"","rhythm_ratio":1.0,"mirror":false,"chromatic_density":0.5,"complexity":0.602,"dissonance":0.113},{"voice":2,"pitch":60,"start":31.8261,"duration":0.2609,"velocity":127,"measure":16,"beat":2.0,"subject_pos":-1,"motif":"","motif_pos":-1,"best_pos":3,"similarity":0.6,"stretto":false,"stretto_voices":0,"combination":[],"aug_dim":"","rhythm_ratio":1.0,"mirror":false,"chromatic_density":0.5,"complexity":0.602,"dissonance":0.113},{"voice":0,"pitch":71,"start":32.0869,"duration":0.2609,"velocity":127,"measure":16,"beat":2.5,"subject_pos":-1,"motif":"tail","motif_pos":6,"best_pos":6,"similarity":1.0,"stretto":false,"stretto_voices":0,"combination":[],"aug_dim":"","rhythm_ratio":1.0,"mirror":false,"chromatic_density":0.5,"complexity":0.602,"dissonance":0.113},{"voice":2,"pitch":59,"start":32.0869,"duration":0.2609,"velocity":127,"measure":16,"beat":2.5,"subject_pos":-1,"motif":"","motif_pos":-1,"best_pos":4,"similarity":0.479,"stretto":false,"stretto_voices":0,"combination":[],"aug_dim":"","rhythm_ratio":1.0,"mirror":false,"chromatic_density":0.5,"complexity":0.602,"dissonance":0.113},{"voice":0,"pitch":72,"start":32.3478,"duration":0.5217,"velocity":127,"measure":16,"beat":3.0,"subject_pos":-1,"motif":"tail","motif_pos":7,"best_pos":7,"similarity":1.0,"stretto":false,"stretto_voices":0,"combination":[],"aug_dim":"","rhythm_ratio":1.0,"mirror":false,"chromatic_density":0.5,"complexity":0.602,"dissonance":0.113},{"voice":2,"pitch":57,"start":32.3478,"duration":0.5217,"velocity":127,"measure":16,"beat":3.0,"subject_pos":-1,"motif":"","motif_pos":-1,"best_pos":0,"similarity":0.357,"stretto":false,"stretto_voices":0,"combination":[],"aug_dim":"","rhythm_ratio":1.0,"mirror":false,"chromatic_density":0.5,"complexity":0.602,"dissonance":0.113},{"voice":3,"pitch":57,"start":32.3478,"duration":1.0435,"velocity":127,"measure":16,"beat":3.0,"subject_pos":3,"motif":"subject_inv","motif_pos":3,"best_pos":3,"similarity":1.0,"stretto":false,"stretto_voices":0,"combination":[],"aug_dim":"","rhythm_ratio":1.0,"mirror":false,"chromatic_density":0.5,"complexity":0.602,"dissonance":0.113},{"voice":1,"pitch":69,"start":32.6087,"duration":0.2609,"velocity":127,"measure":16,"beat":3.5,"subject_pos":-1,"motif":"","motif_pos":-1,"best_pos":1,"similarity":0.507,"stretto":false,"stretto_voices":0,"combination":[],"aug_dim":"","rhythm_ratio":1.0,"mirror":false,"chromatic_density":0.5,"complexity":0.602,"dissonance":0.113},{"voice":0,"pitch":73,"start":32.8696,"duration":1.0435,"velocity":127,"measure":16,"beat":4.0,"subject_pos":-1,"motif":"","motif_pos":-1,"best_pos":4,"similarity":0.593,"stretto":false,"stretto_voices":0,"combination":[],"aug_dim":"","rhythm_ratio":1.0,"mirror":false,"chromatic_density":0.5,"complexity":0.602,"dissonance":0.113},{"voice":1,"pitch":67,"start":32.8696,"duration":0.2609,"velocity":127,"measure":16,"beat":4.0,"subject_pos":-1,"motif":"","motif_pos":-1,"best_pos":2,"similarity":0.521,"stretto":false,"stretto_voices":0,"combination":[],"aug_dim":"","rhythm_ratio":1.0,"mirror":false,"chromatic_density":0.5,"complexity":0.602,"dissonance":0.113},{"voice":1,"pitch":65,"start":33.1304,"duration":0.2609,"velocity":127,"measure":16,"beat":4.5,"subject_pos":-1,"motif":"","motif_pos":-1,"best_pos":4,"similarity":0.429,"stretto":false,"stretto_voices":0,"combination":[],"aug_dim":"","rhythm_ratio":1.0,"mirror":false,"chromatic_density":0.5,"complexity":0.602,"dissonance":0.113},{"voice":1,"pitch":67,"start":33.3913,"duration":0.2609,"velocity":127,"measure":17,"beat":1.0,"subject_pos":-1,"motif":"","motif_pos":-1,"best_pos":3,"similarity":0.429,"stretto":false,"stretto_voices":0,"combination":[],"aug_dim":"","rhythm_ratio":1.0,"mirror":false,"chromatic_density":0.333,"complexity":0.602,"dissonance":0.163},{"voice":3,"pitch":58,"start":33.3913,"duration":1.0435,"velocity":127,"measure":17,"beat":1.0,"subject_pos":4,"motif":"subject_inv","motif_pos":4,"best_pos":4,"similarity":1.0,"stretto":false,"stretto_voices":0,"combination":[],"aug_dim":"","rhythm_ratio":1.0,"mirror":false,"chromatic_density":0.333,"complexity":0.602,"dissonance":0.163},{"voice":1,"pitch":64,"start":33.6522,"duration":0.2609,"velocity":127,"measure":17,"beat":1.5,"subject_pos":-1,"motif":"","motif_pos":-1,"best_pos":4,"similarity":0.607,"stretto":false,"stretto_voices":0,"combination":[],"aug_dim":"","rhythm_ratio":1.0,"mirror":false,"chromatic_density":0.333,"complexity":0.602,"dissonance":0.163},{"voice":0,"pitch":74,"start":33.913,"duration":0.2609,"velocity":127,"measure":17,"beat":2.0,"subject_pos":-1,"motif":"","motif_pos":-1,"best_pos":5,"similarity":0.757,"stretto":false,"stretto_voices":0,"combination":[],"aug_dim":"","rhythm_ratio":1.0,"mirror":false,"chromatic_density":0.333,"complexity":0.602,"dissonance":0.163},{"voice":1,"pitch":65,"start":33.913,"duration":0.2609,"velocity":127,"measure":17,"beat":2.0,"subject_pos":-1,"motif":"","motif_pos":-1,"best_pos":5,"similarity":0.679,"stretto":false,"stretto_voices":0,"combination":[],"aug_dim":"","rhythm_ratio":1.0,"mirror":false,"chromatic_density":0.333,"complexity":0.602,"dissonance":0.163},{"voice":2,"pitch":62,"start":33.913,"duration":0.7826,"velocity":127,"measure":17,"beat":2.0,"subject_pos":-1,"motif":"","motif_pos":-1,"best_pos":1,"similarity":0.436,"stretto":false,"stretto_voices":0,"combination":[],"aug_dim":"","rhythm_ratio":1.0,"mirror":false,"chromatic_density":0.333,"complexity":0.602,"dissonance":0.163},{"voice":0,"pitch":76,"start":34.1739,"duration":0.2609,"velocity":127,"measure":17,"beat":2.5,"subject_pos":-1,"motif":"","motif_pos":-1,"best_pos":6,"similarity":0.732,"stretto":false,"stretto_voices":0,"combination":[],"aug_dim":"","rhythm_ratio":1.0,"mirror":false,"chromatic_density":0.333,"complexity":0.602,"dissonance":0.163},{"voice":1,"pitch":67,"start":34.1739,"duration":0.2609,"velocity":127,"measure":17,"beat":2.5,"subject_pos":-1,"motif":"","motif_pos":-1,"best_pos":6,"similarity":0.589,"stretto":false,"stretto_voices":0,"combination":[],"aug_dim":"","rhythm_ratio":1.0,"mirror":false,"chromatic_density":0.333,"complexity":0.602,"dissonance":0.163},{"voice":0,"pitch":77,"start":34.4348,"duration":0.5217,"velocity":127,"measure":17,"beat":3.0,"subject_pos":-1,"motif":"","motif_pos":-1,"best_pos":7,"similarity":0.5,"stretto":false,"stretto_voices":0,"combination":[],"aug_dim":"","rhythm_ratio":1.0,"mirror":false,"chromatic_density":0.333,"complexity":0.602,"dissonance":0.163},{"voice":1,"pitch":69,"start":34.4348,"duration":1.3043,"velocity":127,"measure":17,"beat":3.0,"subject_pos":-1,"motif":"","motif_pos":-1,"best_pos":6,"similarity":0.375,"stretto":false,"stretto_voices":0,"combination":[],"aug_dim":"","rhythm_ratio":1.0,"mirror":false,"chromatic_density":0.333,"complexity":0.602,"dissonance":0.163},{"voice":3,"pitch":57,"start":34.4348,"duration":0.5217,"velocity":127,"measure":17,"beat":3.0,"subject_pos":5,"motif":"subject_inv","motif_pos":5,"best_pos":5,"similarity":1.0,"stretto":false,"stretto_voices":0,"combination":[],"aug_dim":"","rhythm_ratio":1.0,"mirror":false,"chromatic_density":0.333,"complexity":0.602,"dissonance":0.163},{"voice":2,"pitch":59,"start":34.6956,"duration":0.2609,"velocity":127,"measure":17,"beat":3.5,"subject_pos":-1,"motif":"","motif_pos":-1,"best_pos":5,"similarity":0.386,"stretto":false,"stretto_voices":0,"combination":[],"aug_dim":"","rhythm_ratio":1.0,"mirror":false,"chromatic_density":0.333,"complexity":0.602,"dissonance":0.163},{"voice":0,"pitch":76,"start":34.9565,"duration":0.7826,"velocity":127,"measure":17,"beat":4.0,"subject_pos":-1,"motif":"head_inv","motif_pos":0,"best_pos":0,"similarity":1.0,"stretto":false,"stretto_voices":0,"combination":[],"aug_dim":"","rhythm_ratio":1.0,"mirror":false,"chromatic_density":0.333,"complexity":0.602,"dissonance":0.163},{"voice":2,"pitch":61,"start":34.9565,"duration":0.2609,"velocity":127,"measure":17,"beat":4.0,"subject_pos":-1,"motif":"","motif_pos":-1,"best_pos":6,"similarity":0.371,"stretto":false,"stretto_voices":0,"combination":[],"aug_dim":"","rhythm_ratio":1.0,"mirror":false,"chromatic_density":0.333,"complexity":0.602,"dissonance":0.163},{"voice":3,"pitch":55,"start":34.9565,"duration":0.5217,"velocity":127,"measure":17,"beat":4.0,"subject_pos":6,"motif":"subject_inv","motif_pos":6,"best_pos":6,"similarity":1.0,"stretto":false,"stretto_voices":0,"combination":[],"aug_dim":"","rhythm_ratio":1.0,"mirror":false,"chromatic_density":0.333,"complexity":0.602,"dissonance":0.163},{"voice":2,"pitch":64,"start":35.2174,"duration":0.2609,"velocity":127,"measure":17,"beat":4.5,"subject_pos":-1,"motif":"","motif_pos":-1,"best_pos":6,"similarity":0.232,"stretto":false,"stretto_voices":0,"combination":[],"aug_dim":"","rhythm_ratio":1.0,"mirror":false,"chromatic_density":0.333,"complexity":0.602,"dissonance":0.163},{"voice":2,"pitch":57,"start":35.4783,"duration":0.5217,"velocity":127,"measure":18,"beat":1.0,"subject_pos":-1,"motif":"","motif_pos":-1,"best_pos":0,"similarity":0.3,"stretto":false,"stretto_voices":0,"combination":[],"aug_dim":"","rhythm_ratio":1.0,"mirror":false,"chromatic_density":0.462,"complexity":0.602,"dissonance":0.132},{"voice":3,"pitch":53,"start":35.4783,"duration":1.3043,"velocity":127,"measure":18,"beat":1.0,"subject_pos":7,"motif":"subject_inv","motif_pos":7,"best_pos":7,"similarity":1.0,"stretto":false,"stretto_voices":0,"combination":[],"aug_dim":"","rhythm_ratio":1.0,"mirror":false,"chromatic_density":0.462,"complexity":0.602,"dissonance":0.132},{"voice":0,"pitch":69,"start":35.7391,"duration":0.2609,"velocity":127,"measure":18,"beat":1.5,"subject_pos":-1,"motif":"head_inv","motif_pos":1,"best_pos":1,"similarity":1.0,"stretto":false,"stretto_voices":0,"combination":[],"aug_dim":"","rhythm_ratio":1.0,"mirror":false,"chromatic_density":0.462,"complexity":0.602,"dissonance":0.132},{"voice":1,"pitch":61,"start":35.7391,"duration":0.2609,"velocity":127,"measure":18,"beat":1.5,"subject_pos":-1,"motif":"","motif_pos":-1,"best_pos":4,"similarity":0.507,"stretto":false,"stretto_voices":0,"combination":[],"aug_dim":"","rhythm_ratio":1.0,"mirror":false,"chromatic_density":0.462,"complexity":0.602,"dissonance":0.132},{"voice":0,"pitch":71,"start":36.0,"duration":0.2609,"velocity":127,"measure":18,"beat":2.0,"subject_pos":-1,"motif":"head_inv","motif_pos":2,"best_pos":2,"similarity":1.0,"stretto":false,"stretto_voices":0,"combination":[],"aug_dim":"","rhythm_ratio":1.0,"mirror":false,"chromatic_density":0.462,"complexity":0.602,"dissonance":0.132},{"voice":1,"pitch":62,"start":36.0,"duration":0.2609,"velocity":127,"measure":18,"beat":2.0,"subject_pos":-1,"motif":"","motif_pos":-1,"best_pos":5,"similarity":0.714,"stretto":false,"stretto_voices":0,"combination":[],"aug_dim":"","rhythm_ratio":1.0,"mirror":false,"chromatic_density":0.462,"complexity":0.602,"dissonance":0.132},{"voice":0,"pitch":73,"start":36.2609,"duration":0.2609,"velocity":127,"measure":18,"beat":2.5,"subject_pos":-1,"motif":"head_inv","motif_pos":3,"best_pos":3,"similarity":1.0,"stretto":false,"stretto_voices":0,"combination":[],"aug_dim":"","rhythm_ratio":1.0,"mirror":false,"chromatic_density":0.462,"complexity":0.602,"dissonance":0.132},{"voice":1,"pitch":64,"start":36.2609,"duration":0.2609,"velocity":127,"measure":18,"beat":2.5,"subject_pos":-1,"motif":"","motif_pos":-1,"best_pos":6,"similarity":0.714,"stretto":false,"stretto_voices":0,"combination":[],"aug_dim":"","rhythm_ratio":1.0,"mirror":false,"chromatic_density":0.462,"complexity":0.602,"dissonance":0.132},{"voice":0,"pitch":74,"start":36.5217,"duration":0.7826,"velocity":127,"measure":18,"beat":3.0,"subject_pos":-1,"motif":"head_inv","motif_pos":4,"best_pos":4,"similarity":1.0,"stretto":false,"stretto_voices":0,"combination":[],"aug_dim":"","rhythm_ratio":1.0,"mirror":false,"chromatic_density":0.462,"complexity":0.602,"dissonance":0.132},{"voice":1,"pitch":65,"start":36.5217,"duration":0.2609,"velocity":127,"measure":18,"beat":3.0,"subject_pos":-1,"motif":"","motif_pos":-1,"best_pos":5,"similarity":0.664,"stretto":false,"stretto_voices":0,"combination":[],"aug_dim":"","rhythm_ratio":1.0,"mirror":false,"chromatic_density":0.462,"complexity":0.602,"dissonance":0.132},{"voice":1,"pitch":67,"start":36.7826,"duration":0.2609,"velocity":127,"measure":18,"beat":3.5,"subject_pos":-1,"motif":"","motif_pos":-1,"best_pos":5,"similarity":0.607,"stretto":false,"stretto_voices":0,"combination":[],"aug_dim":"","rhythm_ratio":1.0,"mirror":false,"chromatic_density":0.462,"complexity":0.602,"dissonance":0.132},{"voice":3,"pitch":52,"start":36.7826,"duration":0.2609,"velocity":127,"measure":18,"beat":3.5,"subject_pos":-1,"motif":"","motif_pos":-1,"best_pos":4,"similarity":0.893,"stretto":false,"stretto_voices":0,"combination":[],"aug_dim":"","rhythm_ratio":1.0,"mirror":false,"chromatic_density":0.462,"complexity":0.602,"dissonance":0.132},{"voice":1,"pitch":69,"start":37.0435,"duration":0.2609,"velocity":127,"measure":18,"beat":4.0,"subject_pos":-1,"motif":"enigmatic_cell","motif_pos":0,"best_pos":0,"similarity":1.0,"stretto":false,"stretto_voices":0,"combination":[],"aug_dim":"","rhythm_ratio":1.0,"mirror":false,"chromatic_density":0.462,"complexity":0.602,"dissonance":0.132},{"voice":3,"pitch":53,"start":37.0435,"duration":0.2609,"velocity":127,"measure":18,"beat":4.0,"subject_pos":-1,"motif":"","motif_pos":-1,"best_pos":5,"similarity":0.821,"stretto":false,"stretto_voices":0,"combination":[],"aug_dim":"","rhythm_ratio":1.0,"mirror":false,"chromatic_density":0.462,"complexity":0.602,"dissonance":0.132},{"voice":0,"pitch":76,"start":37.3043,"duration":0.2609,"velocity":127,"measure":18,"beat":4.5,"subject_pos":-1,"motif":"","motif_pos":-1,"best_pos":6,"similarity":0.464,"stretto":false,"stretto_voices":0,"combination":[],"aug_dim":"","rhythm_ratio":1.0,"mirror":false,"chromatic_density":0.462,"complexity":0.602,"dissonance":0.132},{"voice":1,"pitch":70,"start":37.3043,"duration":0.2609,"velocity":127,"measure":18,"beat":4.5,"subject_pos":-1,"motif":"enigmatic_cell","motif_pos":1,"best_pos":1,"similarity":1.0,"stretto":false,"stretto_voices":0,"combination":[],"aug_dim":"","rhythm_ratio":1.0,"mirror":false,"chromatic_density":0.462,"complexity":0.602,"dissonance":0.132},{"voice":3,"pitch":55,"start":37.3043,"duration":0.2609,"velocity":127,"measure":18,"beat":4.5,"subject_pos":-1,"motif":"","motif_pos":-1,"best_pos":6,"similarity":0.643,"stretto":false,"stretto_voices":0,"combination":[],"aug_dim":"","rhythm_ratio":1.0,"mirror":false,"chromatic_density":0.462,"complexity":0.602,"dissonance":0.132},{"voice":0,"pitch":73,"start":37.5652,"duration":0.5217,"velocity":127,"measure":19,"beat":1.0,"subject_pos":-1,"motif":"","motif_pos":-1,"best_pos":3,"similarity":0.393,"stretto":false,"stretto_voices":0,"combination":[],"aug_dim":"","rhythm_ratio":1.0,"mirror":false,"chromatic_density":0.364,"complexity":0.526,"dissonance":0.15},{"voice":1,"pitch":64,"start":37.5652,"duration":0.5217,"velocity":127,"measure":19,"beat":1.0,"subject_pos":-1,"motif":"enigmatic_cell","motif_pos":2,"best_pos":2,"similarity":1.0,"stretto":false,"stretto_voices":0,"combination":[],"aug_dim":"","rhythm_ratio":1.0,"mirror":false,"chromatic_density":0.364,"complexity":0.526,"dissonance":0.15},{"voice":3,"pitch":57,"start":37.5652,"duration":0.2609,"velocity":127,"measure":19,"beat":1.0,"subject_pos":-1,"motif":"","motif_pos":-1,"best_pos":6,"similarity":0.375,"stretto":false,"stretto_voices":0,"combination":[],"aug_dim":"","rhythm_ratio":1.0,"mirror":false,"chromatic_density":0.364,"complexity":0.526,"dissonance":0.15},{"voice":3,"pitch":45,"start":37.8261,"duration":0.2609,"velocity":127,"measure":19,"beat":1.5,"subject_pos":-1,"motif":"","motif_pos":-1,"best_pos":3,"similarity":0.314,"stretto":false,"stretto_voices":0,"combination":[],"aug_dim":"","rhythm_ratio":1.0,"mirror":false,"chromatic_density":0.364,"complexity":0.526,"dissonance":0.15},{"voice":0,"pitch":77,"start":38.0869,"duration":0.5217,"velocity":127,"measure":19,"beat":2.0,"subject_pos":-1,"motif":"","motif_pos":-1,"best_pos":4,"similarity":0.321,"stretto":false,"stretto_voices":0,"combination":[],"aug_dim":"","rhythm_ratio":1.0,"mirror":false,"chromatic_density":0.364,"complexity":0.526,"dissonance":0.15},{"voice":1,"pitch":69,"start":38.0869,"duration":1.0435,"velocity":127,"measure":19,"beat":2.0,"subject_pos":-1,"motif":"","motif_pos":-1,"best_pos":1,"similarity":0.536,"stretto":false,"stretto_voices":0,"combination":[],"aug_dim":"","rhythm_ratio":1.0,"mirror":false,"chromatic_density":0.364,"complexity":0.526,"dissonance":0.15},{"voice":3,"pitch":45,"start":38.3478,"duration":0.2609,"velocity":127,"measure":19,"beat":2.5,"subject_pos":-1,"motif":"","motif_pos":-1,"best_pos":4,"similarity":0.486,"stretto":false,"stretto_voices":0,"combination":[],"aug_dim":"","rhythm_ratio":1.0,"mirror":false,"chromatic_density":0.364,"complexity":0.526,"dissonance":0.15},{"voice":0,"pitch":74,"start":38.6087,"duration":0.7826,"velocity":127,"measure":19,"beat":3.0,"subject_pos":-1,"motif":"","motif_pos":-1,"best_pos":5,"similarity":0.386,"stretto":false,"stretto_voices":0,"combination":[],"aug_dim":"","rhythm_ratio":1.0,"mirror":false,"chromatic_density":0.364,"complexity":0.526,"dissonance":0.15},{"voice":3,"pitch":46,"start":38.6087,"duration":0.2609,"velocity":127,"measure":19,"beat":3.0,"subject_pos":-1,"motif":"","motif_pos":-1,"best_pos":3,"similarity":0.493,"stretto":false,"stretto_voices":0,"combination":[],"aug_dim":"","rhythm_ratio":1.0,"mirror":false,"chromatic_density":0.364,"complexity":0.526,"dissonance":0.15},{"voice":3,"pitch":45,"start":38.8696,"duration":0.2609,"velocity":127,"measure":19,"beat":3.5,"subject_pos":-1,"motif":"","motif_pos":-1,"best_pos":4,"similarity":0.675,"stretto":false,"stretto_voices":0,"combination":[],"aug_dim":"","rhythm_ratio":1.0,"mirror":false,"chromatic_density":0.364,"complexity":0.526,"dissonance":0.15},{"voice":1,"pitch":68,"start":39.1304,"duration":0.2609,"velocity":127,"measure":19,"beat":4.0,"subject_pos":-1,"motif":"","motif_pos":-1,"best_pos":2,"similarity":0.507,"stretto":false,"stretto_voices":0,"combination":[],"aug_dim":"","rhythm_ratio":1.0,"mirror":false,"chromatic_density":0.364,"complexity":0.526,"dissonance":0.15},{"voice":3,"pitch":47,"start":39.1304,"duration":0.2609,"velocity":127,"measure":19,"beat":4.0,"subject_pos":-1,"motif":"","motif_pos":-1,"best_pos":5,"similarity":0.721,"stretto":false,"stretto_voices":0,"combination":[],"aug_dim":"","rhythm_ratio":1.0,"mirror":false,"chromatic_density":0.364,"complexity":0.526,"dissonance":0.15},{"voice":0,"pitch":76,"start":39.3913,"duration":0.2609,"velocity":127,"measure":19,"beat":4.5,"subject_pos":-1,"motif":"","motif_pos":-1,"best_pos":6,"similarity":0.3,"stretto":false,"stretto_voices":0,"combination":[],"aug_dim":"","rhythm_ratio":1.0,"mirror":false,"chromatic_density":0.364,"complexity":0.526,"dissonance":0.15},{"voice":1,"pitch":67,"start":39.3913,"duration":0.5217,"velocity":127,"measure":19,"beat":4.5,"subject_pos":-1,"motif":"","motif_pos":-1,"best_pos":3,"similarity":0.514,"stretto":false,"stretto_voices":0,"combination":[],"aug_dim":"","rhythm_ratio":1.0,"mirror":false,"chromatic_density":0.364,"complexity":0.526,"dissonance":0.15},{"voice":3,"pitch":49,"start":39.3913,"duration":0.2609,"velocity":127,"measure":19,"beat":4.5,"subject_pos":-1,"motif":"","motif_pos":-1,"best_pos":6,"similarity":0.714,"stretto":false,"stretto_voices":0,"combination":[],"aug_dim":"","rhythm_ratio":1.0,"mirror":false,"chromatic_density":0.364,"complexity":0.526,"dissonance":0.15},{"voice":0,"pitch":69,"start":39.6522,"duration":0.5217,"velocity":127,"measure":20,"beat":1.0,"subject_pos":-1,"motif":"","motif_pos":-1,"best_pos":0,"similarity":0.375,"stretto":false,"stretto_voices":0,"combination":[],"aug_dim":"","rhythm_ratio":1.0,"mirror":false,"chromatic_density":0.333,"complexity":0.51,"dissonance":0.065},{"voice":3,"pitch":50,"start":39.6522,"duration":0.2609,"velocity":127,"measure":20,"beat":1.0,"subject_pos":-1,"motif":"","motif_pos":-1,"best_pos":7,"similarity":0.464,"stretto":false,"stretto_voices":0,"combination":[],"aug_dim":"","rhythm_ratio":1.0,"mirror":false,"chromatic_density":0.333,"complexity":0.51,"dissonance":0.065},{"voice":1,"pitch":66,"start":39.913,"duration":0.2609,"velocity":127,"measure":20,"beat":1.5,"subject_pos":-1,"motif":"","motif_pos":-1,"best_pos":4,"similarity":0.421,"stretto":false,"stretto_voices":0,"combination":[],"aug_dim":"","rhythm_ratio":1.0,"mirror":false,"chromatic_density":0.333,"complexity":0.51,"dissonance":0.065},{"voice":3,"pitch":38,"start":39.913,"duration":0.2609,"velocity":127,"measure":20,"beat":1.5,"subject_pos":-1,"motif":"","motif_pos":-1,"best_pos":5,"similarity":0.179,"stretto":false,"stretto_voices":0,"combination":[],"aug_dim":"","rhythm_ratio":1.0,"mirror":false,"chromatic_density":0.333,"complexity":0.51,"dissonance":0.065},{"voice":0,"pitch":74,"start":40.1739,"duration":1.0435,"velocity":127,"measure":20,"beat":2.0,"subject_pos":-1,"motif":"","motif_pos":-1,"best_pos":1,"similarity":0.536,"stretto":false,"stretto_voices":0,"combination":[],"aug_dim":"","rhythm_ratio":1.0,"mirror":false,"chromatic_density":0.333,"complexity":0.51,"dissonance":0.065},{"voice":1,"pitch":70,"start":40.1739,"duration":0.5217,"velocity":127,"measure":20,"beat":2.0,"subject_pos":-1,"motif":"","motif_pos":-1,"best_pos":2,"similarity":0.3,"stretto":false,"stretto_voices":0,"combination":[],"aug_dim":"","rhythm_ratio":1.0,"mirror":false,"chromatic_density":0.333,"complexity":0.51,"dissonance":0.065},{"voice":3,"pitch":50,"start":40.4348,"duration":0.2609,"velocity":127,"measure":20,"beat":2.5,"subject_pos":-1,"motif":"","motif_pos":-1,"best_pos":4,"similarity":0.343,"stretto":false,"stretto_voices":0,"combination":[],"aug_dim":"","rhythm_ratio":1.0,"mirror":false,"chromatic_density":0.333,"complexity":0.51,"dissonance":0.065},{"voice":1,"pitch":67,"start":40.6956,"duration":0.7826,"velocity":127,"measure":20,"beat":3.0,"subject_pos":-1,"motif":"","motif_pos":-1,"best_pos":5,"similarity":0.332,"stretto":false,"stretto_voices":0,"combination":[],"aug_dim":"","rhythm_ratio":1.0,"mirror":false,"chromatic_density":0.333,"complexity":0.51,"dissonance":0.065},{"voice":3,"pitch":51,"start":40.6956,"duration":0.2609,"velocity":127,"measure":20,"beat":3.0,"subject_pos":-1,"motif":"","motif_pos":-1,"best_pos":3,"similarity":0.457,"stretto":false,"stretto_voices":0,"combination":[],"aug_dim":"","rhythm_ratio":1.0,"mirror":false,"chromatic_density":0.333,"complexity":0.51,"dissonance":0.065},{"voice":3,"pitch":50,"start":40.9565,"duration":0.2609,"velocity":127,"measure":20,"beat":3.5,"subject_pos":-1,"motif":"","motif_pos":-1,"best_pos":4,"similarity":0.657,"stretto":false,"stretto_voices":0,"combination":[],"aug_dim":"","rhythm_ratio":1.0,"mirror":false,"chromatic_density":0.333,"complexity":0.51,"dissonance":0.065},{"voice":0,"pitch":73,"start":41.2174,"duration":0.2609,"velocity":127,"measure":20,"beat":4.0,"subject_pos":-1,"motif":"","motif_pos":-1,"best_pos":2,"similarity":0.507,"stretto":false,"stretto_voices":0,"combination":[],"aug_dim":"","rhythm_ratio":1.0,"mirror":false,"chromatic_density":0.333,"complexity":0.51,"dissonance":0.065},{"voice":3,"pitch":52,"start":41.2174,"duration":0.2609,"velocity":127,"measure":20,"beat":4.0,"subject_pos":-1,"motif":"","motif_pos":-1,"best_pos":5,"similarity":0.721,"stretto":false,"stretto_voices":0,"combination":[],"aug_dim":"","rhythm_ratio":1.0,"mirror":false,"chromatic_density":0.333,"complexity":0.51,"dissonance":0.065},{"voice":0,"pitch":72,"start":41.4783,"duration":0.5217,"velocity":127,"measure":20,"beat":4.5,"subject_pos":-1,"motif":"","motif_pos":-1,"best_pos":3,"similarity":0.514,"stretto":false,"stretto_voices":0,"combination":[],"aug_dim":"","rhythm_ratio":1.0,"mirror":false,"chromatic_density":0.333,"complexity":0.51,"dissonance":0.065},{"voice":1,"pitch":69,"start":41.4783,"duration":0.2609,"velocity":127,"measure":20,"beat":4.5,"subject_pos":-1,"motif":"","motif_pos":-1,"best_pos":6,"similarity":0.3,"stretto":false,"stretto_voices":0,"combination":[],"aug_dim":"","rhythm_ratio":1.0,"mirror":false,"chromatic_density":0.333,"complexity":0.51,"dissonance":0.065},{"voice":3,"pitch":54,"start":41.4783,"duration":0.2609,"velocity":127,"measure":20,"beat":4.5,"subject_pos":-1,"motif":"","motif_pos":-1,"best_pos":6,"similarity":0.714,"stretto":false,"stretto_voices":0,"combination":[],"aug_dim":"","rhythm_ratio":1.0,"mirror":false,"chromatic_density":0.333,"complexity":0.51,"dissonance":0.065},{"voice":1,"pitch":62,"start":41.7391,"duration":0.5217,"velocity":127,"measure":21,"beat":1.0,"subject_pos":-1,"motif":"","motif_pos":-1,"best_pos":0,"similarity":0.375,"stretto":false,"stretto_voices":0,"combination":[],"aug_dim":"","rhythm_ratio":1.0,"mirror":false,"chromatic_density":0.364,"complexity":0.51,"dissonance":0.14},{"voice":3,"pitch":55,"start":41.7391,"duration":0.2609,"velocity":127,"measure":21,"beat":1.0,"subject_pos":-1,"motif":"","motif_pos":-1,"best_pos":7,"similarity":0.464,"stretto":false,"stretto_voices":0,"combination":[],"aug_dim":"","rhythm_ratio":1.0,"mirror":false,"chromatic_density":0.364,"complexity":0.51,"dissonance":0.14},{"voice":0,"pitch":71,"start":42.0,"duration":0.2609,"velocity":127,"measure":21,"beat":1.5,"subject_pos":-1,"motif":"","motif_pos":-1,"best_pos":4,"similarity":0.421,"stretto":false,"stretto_voices":0,"combination":[],"aug_dim":"","rhythm_ratio":1.0,"mirror":false,"chromatic_density":0.364,"complexity":0.51,"dissonance":0.14},{"voice":3,"pitch":43,"start":42.0,"duration":0.2609,"velocity":127,"measure":21,"beat":1.5,"subject_pos":-1,"motif":"","motif_pos":-1,"best_pos":3,"similarity":0.314,"stretto":false,"stretto_voices":0,"combination":[],"aug_dim":"","rhythm_ratio":1.0,"mirror":false,"chromatic_density":0.364,"complexity":0.51,"dissonance":0.14},{"voice":0,"pitch":75,"start":42.2609,"duration":0.5217,"velocity":127,"measure":21,"beat":2.0,"subject_pos":-1,"motif":"","motif_pos":-1,"best_pos":2,"similarity":0.3,"stretto":false,"stretto_voices":0,"combination":[],"aug_dim":"","rhythm_ratio":1.0,"mirror":false,"chromatic_density":0.364,"complexity":0.51,"dissonance":0.14},{"voice":1,"pitch":67,"start":42.2609,"duration":1.0435,"velocity":127,"measure":21,"beat":2.0,"subject_pos":-1,"motif":"","motif_pos":-1,"best_pos":1,"similarity":0.536,"stretto":false,"stretto_voices":0,"combination":[],"aug_dim":"","rhythm_ratio":1.0,"mirror":false,"chromatic_density":0.364,"complexity":0.51,"dissonance":0.14},{"voice":3,"pitch":43,"start":42.5217,"duration":0.2609,"velocity":127,"measure":21,"beat":2.5,"subject_pos":-1,"motif":"","motif_pos":-1,"best_pos":4,"similarity":0.486,"stretto":false,"stretto_voices":0,"combination":[],"aug_dim":"","rhythm_ratio":1.0,"mirror":false,"chromatic_density":0.364,"complexity":0.51,"dissonance":0.14},{"voice":0,"pitch":72,"start":42.7826,"duration":0.7826,"velocity":127,"measure":21,"beat":3.0,"subject_pos":-1,"motif":"","motif_pos":-1,"best_pos":5,"similarity":0.332,"stretto":false,"stretto_voices":0,"combination":[],"aug_dim":"","rhythm_ratio":1.0,"mirror":false,"chromatic_density":0.364,"complexity":0.51,"dissonance":0.14},{"voice":3,"pitch":44,"start":42.7826,"duration":0.2609,"velocity":127,"measure":21,"beat":3.0,"subject_pos":-1,"motif":"","motif_pos":-1,"best_pos":3,"similarity":0.493,"stretto":false,"stretto_voices":0,"combination":[],"aug_dim":"","rhythm_ratio":1.0,"mirror":false,"chromatic_density":0.364,"complexity":0.51,"dissonance":0.14},{"voice":3,"pitch":43,"start":43.0435,"duration":0.2609,"velocity":127,"measure":21,"beat":3.5,"subject_pos":-1,"motif":"","motif_pos":-1,"best_pos":4,"similarity":0.675,"stretto":false,"stretto_voices":0,"combination":[],"aug_dim":"","rhythm_ratio":1.0,"mirror":false,"chromatic_density":0.364,"complexity":0.51,"dissonance":0.14},{"voice":1,"pitch":66,"start":43.3043,"duration":0.2609,"velocity":127,"measure":21,"beat":4.0,"subject_pos":-1,"motif":"","motif_pos":-1,"best_pos":2,"similarity":0.507,"stretto":false,"stretto_voices":0,"combination":[],"aug_dim":"","rhythm_ratio":1.0,"mirror":false,"chromatic_density":0.364,"complexity":0.51,"dissonance":0.14},{"voice":3,"pitch":45,"start":43.3043,"duration":0.2609,"velocity":127,"measure":21,"beat":4.0,"subject_pos":-1,"motif":"","motif_pos":-1,"best_pos":5,"similarity":0.721,"stretto":false,"stretto_voices":0,"combination":[],"aug_dim":"","rhythm_ratio":1.0,"mirror":false,"chromatic_density":0.364,"complexity":0.51,"dissonance":0.14},{"voice":0,"pitch":74,"start":43.5652,"duration":0.2609,"velocity":127,"measure":21,"beat":4.5,"subject_pos":-1,"motif":"","motif_pos":-1,"best_pos":6,"similarity":0.3,"stretto":false,"stretto_voices":0,"combination":[],"aug_dim":"","rhythm_ratio":1.0,"mirror":false,"chromatic_density":0.364,"complexity":0.51,"dissonance":0.14},{"voice":1,"pitch":65,"start":43.5652,"duration":0.5217,"velocity":127,"measure":21,"beat":4.5,"subject_pos":-1,"motif":"","motif_pos":-1,"best_pos":3,"similarity":0.514,"stretto":false,"stretto_voices":0,"combination":[],"aug_dim":"","rhythm_ratio":1.0,"mirror":false,"chromatic_density":0.364,"complexity":0.51,"dissonance":0.14},{"voice":3,"pitch":47,"start":43.5652,"duration":0.2609,"velocity":127,"measure":21,"beat":4.5,"subject_pos":-1,"motif":"","motif_pos":-1,"best_pos":6,"similarity":0.714,"stretto":false,"stretto_voices":0,"combination":[],"aug_dim":"","rhythm_ratio":1.0,"mirror":false,"chromatic_density":0.364,"complexity":0.51,"dissonance":0.14},{"voice":0,"pitch":67,"start":43.8261,"duration":0.5217,"velocity":127,"measure":22,"beat":1.0,"subject_pos":-1,"motif":"","motif_pos":-1,"best_pos":0,"similarity":0.375,"stretto":false,"stretto_voices":0,"combination":[],"aug_dim":"","rhythm_ratio":1.0,"mirror":false,"chromatic_density":0.333,"complexity":0.51,"dissonance":0.18},{"voice":3,"pitch":48,"start":43.8261,"duration":0.2609,"velocity":127,"measure":22,"beat":1.0,"subject_pos":-1,"motif":"","motif_pos":-1,"best_pos":7,"similarity":0.464,"stretto":false,"stretto_voices":0,"combination":[],"aug_dim":"","rhythm_ratio":1.0,"mirror":false,"chromatic_density":0.333,"complexity":0.51,"dissonance":0.18},{"voice":1,"pitch":64,"start":44.0869,"duration":0.2609,"velocity":127,"measure":22,"beat":1.5,"subject_pos":-1,"motif":"","motif_pos":-1,"best_pos":4,"similarity":0.421,"stretto":false,"stretto_voices":0,"combination":[],"aug_dim":"","rhythm_ratio":1.0,"mirror":false,"chromatic_density":0.333,"complexity":0.51,"dissonance":0.18},{"voice":3,"pitch":36,"start":44.0869,"duration":0.2609,"velocity":127,"measure":22,"beat":1.5,"subject_pos":-1,"motif":"","motif_pos":-1,"best_pos":5,"similarity":0.179,"stretto":false,"stretto_voices":0,"combination":[],"aug_dim":"","rhythm_ratio":1.0,"mirror":false,"chromatic_density":0.333,"complexity":0.51,"dissonance":0.18},{"voice":0,"pitch":72,"start":44.3478,"duration":1.0435,"velocity":127,"measure":22,"beat":2.0,"subject_pos":-1,"motif":"","motif_pos":-1,"best_pos":1,"similarity":0.536,"stretto":false,"stretto_voices":0,"combination":[],"aug_dim":"","rhythm_ratio":1.0,"mirror":false,"chromatic_density":0.333,"complexity":0.51,"dissonance":0.18},{"voice":1,"pitch":68,"start":44.3478,"duration":0.5217,"velocity":127,"measure":22,"beat":2.0,"subject_pos":-1,"motif":"","motif_pos":-1,"best_pos":2,"similarity":0.3,"stretto":false,"stretto_voices":0,"combination":[],"aug_dim":"","rhythm_ratio":1.0,"mirror":false,"chromatic_density":0.333,"complexity":0.51,"dissonance":0.18},{"voice":3,"pitch":48,"start":44.6087,"duration":0.2609,"velocity":127,"measure":22,"beat":2.5,"subject_pos":-1,"motif":"","motif_pos":-1,"best_pos":4,"similarity":0.343,"stretto":false,"stretto_voices":0,"combination":[],"aug_dim":"","rhythm_ratio":1.0,"mirror":false,"chromatic_density":0.333,"complexity":0.51,"dissonance":0.18},{"voice":1,"pitch":65,"start":44.8696,"duration":0.7826,"velocity":127,"measure":22,"beat":3.0,"subject_pos":-1,"motif":"","motif_pos":-1,"best_pos":5,"similarity":0.332,"stretto":false,"stretto_voices":0,"combination":[],"aug_dim":"","rhythm_ratio":1.0,"mirror":false,"chromatic_density":0.333,"complexity":0.51,"dissonance":0.18},{"voice":3,"pitch":49,"start":44.8696,"duration":0.2609,"velocity":127,"measure":22,"beat":3.0,"subject_pos":-1,"motif":"","motif_pos":-1,"best_pos":3,"similarity":0.457,"stretto":false,"stretto_voices":0,"combination":[],"aug_dim":"","rhythm_ratio":1.0,"mirror":false,"chromatic_density":0.333,"complexity":0.51,"dissonance":0.18},{"voice":3,"pitch":48,"start":45.1304,"duration":0.2609,"velocity":127,"measure":22,"beat":3.5,"subject_pos":-1,"motif":"","motif_pos":-1,"best_pos":4,"similarity":0.657,"stretto":false,"stretto_voices":0,"combination":[],"aug_dim":"","rhythm_ratio":1.0,"mirror":false,"chromatic_density":0.333,"complexity":0.51,"dissonance":0.18},{"voice":0,"pitch":71,"start":45.3913,"duration":0.2609,"velocity":127,"measure":22,"beat":4.0,"subject_pos":-1,"motif":"","motif_pos":-1,"best_pos":2,"similarity":0.5,"stretto":false,"stretto_voices":0,"combination":[],"aug_dim":"","rhythm_ratio":1.0,"mirror":false,"chromatic_density":0.333,"complexity":0.51,"dissonance":0.18},{"voice":3,"pitch":50,"start":45.3913,"duration":0.2609,"velocity":127,"measure":22,"beat":4.0,"subject_pos":-1,"motif":"","motif_pos":-1,"best_pos":5,"similarity":0.721,"stretto":false,"stretto_voices":0,"combination":[],"aug_dim":"","rhythm_ratio":1.0,"mirror":false,"chromatic_density":0.333,"complexity":0.51,"dissonance":0.18},{"voice":0,"pitch":70,"start":45.6522,"duration":0.5217,"velocity":127,"measure":22,"beat":4.5,"subject_pos":-1,"motif":"","motif_pos":-1,"best_pos":3,"similarity":0.5,"stretto":false,"stretto_voices":0,"combination":[],"aug_dim":"","rhythm_ratio":1.0,"mirror":false,"chromatic_density":0.333,"complexity":0.51,"dissonance":0.18},{"voice":1,"pitch":67,"start":45.6522,"duration":0.2609,"velocity":127,"measure":22,"beat":4.5,"subject_pos":-1,"motif":"","motif_pos":-1,"best_pos":6,"similarity":0.3,"stretto":false,"stretto_voices":0,"combination":[],"aug_dim":"","rhythm_ratio":1.0,"mirror":false,"chromatic_density":0.333,"complexity":0.51,"dissonance":0.18},{"voice":3,"pitch":52,"start":45.6522,"duration":0.2609,"velocity":127,"measure":22,"beat":4.5,"subject_pos":-1,"motif":"","motif_pos":-1,"best_pos":6,"similarity":0.714,"stretto":false,"stretto_voices":0,"combination":[],"aug_dim":"","rhythm_ratio":1.0,"mirror":false,"chromatic_density":0.333,"complexity":0.51,"dissonance":0.18},{"voice":1,"pitch":60,"start":45.913,"duration":0.5217,"velocity":127,"measure":23,"beat":1.0,"subject_pos":-1,"motif":"","motif_pos":-1,"best_pos":2,"similarity":0.204,"stretto":false,"stretto_voices":0,"combination":[],"aug_dim":"","rhythm_ratio":1.0,"mirror":false,"chromatic_density":0.4,"complexity":0.471,"dissonance":0.09},{"voice":3,"pitch":53,"start":45.913,"duration":0.2609,"velocity":127,"measure":23,"beat":1.0,"subject_pos":-1,"motif":"","motif_pos":-1,"best_pos":7,"similarity":0.464,"stretto":false,"stretto_voices":0,"combination":[],"aug_dim":"","rhythm_ratio":1.0,"mirror":false,"chromatic_density":0.4,"complexity":0.471,"dissonance":0.09},{"voice":0,"pitch":69,"start":46.1739,"duration":0.2609,"velocity":127,"measure":23,"beat":1.5,"subject_pos":-1,"motif":"","motif_pos":-1,"best_pos":4,"similarity":0.393,"stretto":false,"stretto_voices":0,"combination":[],"aug_dim":"","rhythm_ratio":1.0,"mirror":false,"chromatic_density":0.4,"complexity":0.471,"dissonance":0.09},{"voice":3,"pitch":41,"start":46.1739,"duration":0.2609,"velocity":127,"measure":23,"beat":1.5,"subject_pos":-1,"motif":"","motif_pos":-1,"best_pos":3,"similarity":0.2,"stretto":false,"stretto_voices":0,"combination":[],"aug_dim":"","rhythm_ratio":1.0,"mirror":false,"chromatic_density":0.4,"complexity":0.471,"dissonance":0.09},{"voice":0,"pitch":81,"start":46.4348,"duration":1.0435,"velocity":127,"measure":23,"beat":2.0,"subject_pos":0,"motif":"subject_inv","motif_pos":0,"best_pos":0,"similarity":1.0,"stretto":false,"stretto_voices":0,"combination":[],"aug_dim":"","rhythm_ratio":0.68,"mirror":false,"chromatic_density":0.4,"complexity":0.471,"dissonance":0.09},{"voice":1,"pitch":72,"start":46.4348,"duration":1.0435,"velocity":127,"measure":23,"beat":2.0,"subject_pos":-1,"motif":"","motif_pos":-1,"best_pos":3,"similarity":0.35,"stretto":false,"stretto_voices":0,"combination":[],"aug_dim":"","rhythm_ratio":1.0,"mirror":false,"chromatic_density":0.4,"complexity":0.471,"dissonance":0.09},{"voice":3,"pitch":53,"start":46.6956,"duration":0.2609,"velocity":127,"measure":23,"beat":2.5,"subject_pos":-1,"motif":"","motif_pos":-1,"best_pos":4,"similarity":0.364,"stretto":false,"stretto_voices":0,"combination":[],"aug_dim":"","rhythm_ratio":1.0,"mirror":false,"chromatic_density":0.4,"complexity":0.471,"dissonance":0.09},{"voice":3,"pitch":54,"start":46.9565,"duration":0.2609,"velocity":127,"measure":23,"beat":3.0,"subject_pos":-1,"motif":"","motif_pos":-1,"best_pos":5,"similarity":0.429,"stretto":false,"stretto_voices":0,"combination":[],"aug_dim":"","rhythm_ratio":1.0,"mirror":false,"chromatic_density":0.4,"complexity":0.471,"dissonance":0.09},{"voice":3,"pitch":55,"start":47.2174,"duration":0.2609,"velocity":127,"measure":23,"beat":3.5,"subject_pos":-1,"motif":"","motif_pos":-1,"best_pos":7,"similarity":0.357,"stretto":false,"stretto_voices":0,"combination":[],"aug_dim":"","rhythm_ratio":1.0,"mirror":false,"chromatic_density":0.4,"complexity":0.471,"dissonance":0.09},{"voice":0,"pitch":74,"start":47.4782,"duration":0.7826,"velocity":127,"measure":23,"beat":4.0,"subject_pos":1,"motif":"subject_inv","motif_pos":1,"best_pos":1,"similarity":1.0,"stretto":false,"stretto_voices":0,"combination":[],"aug_dim":"","rhythm_ratio":0.68,"mirror":false,"chromatic_density":0.4,"complexity":0.471,"dissonance":0.09},{"voice":1,"pitch":71,"start":47.4782,"duration":0.2609,"velocity":127,"measure":23,"beat":4.0,"subject_pos":-1,"motif":"","motif_pos":-1,"best_pos":3,"similarity":0.4,"stretto":false,"stretto_voices":0,"combination":[],"aug_dim":"","rhythm_ratio":1.0,"mirror":false,"chromatic_density":0.4,"complexity":0.471,"dissonance":0.09},{"voice":1,"pitch":70,"start":47.7391,"duration":0.2609,"velocity":127,"measure":23,"beat":4.5,"subject_pos":-1,"motif":"","motif_pos":-1,"best_pos":3,"similarity":0.5,"stretto":false,"stretto_voices":0,"combination":[],"aug_dim":"","rhythm_ratio":1.0,"mirror":false,"chromatic_density":0.4,"complexity":0.471,"dissonance":0.09},{"voice":3,"pitch":43,"start":47.7391,"duration":0.2609,"velocity":127,"measure":23,"beat":4.5,"subject_pos":-1,"motif":"","motif_pos":-1,"best_pos":1,"similarity":0.357,"stretto":false,"stretto_voices":0,"combination":[],"aug_dim":"","rhythm_ratio":1.0,"mirror":false,"chromatic_density":0.4,"complexity":0.471,"dissonance":0.09},{"voice":1,"pitch":69,"start":48.0,"duration":0.2609,"velocity":127,"measure":24,"beat":1.0,"subject_pos":-1,"motif":"tail","motif_pos":3,"best_pos":3,"similarity":1.0,"stretto":false,"stretto_voices":0,"combination":[],"aug_dim":"","rhythm_ratio":1.0,"mirror":false,"chromatic_density":0.467,"complexity":0.611,"dissonance":0.095},{"voice":3,"pitch":41,"start":48.0,"duration":0.2609,"velocity":127,"measure":24,"beat":1.0,"subject_pos":-1,"motif":"","motif_pos":-1,"best_pos":3,"similarity":0.45,"stretto":false,"stretto_voices":0,"combination":[],"aug_dim":"","rhythm_ratio":1.0,"mirror":false,"chromatic_density":0.467,"complexity":0.611,"dissonance":0.095},{"voice":0,"pitch":76,"start":48.2609,"duration":0.2609,"velocity":127,"measure":24,"beat":1.5,"subject_pos":-1,"motif":"subject_inv","motif_pos":1,"best_pos":1,"similarity":1.0,"stretto":false,"stretto_voices":0,"combination":[],"aug_dim":"","rhythm_ratio":0.68,"mirror":false,"chromatic_density":0.467,"complexity":0.611,"dissonance":0.095},{"voice":1,"pitch":68,"start":48.2609,"duration":0.2609,"velocity":127,"measure":24,"beat":1.5,"subject_pos":-1,"motif":"tail","motif_pos":4,"best_pos":4,"similarity":1.0,"stretto":false,"stretto_voices":0,"combination":[],"aug_dim":"","rhythm_ratio":1.0,"mirror":false,"chromatic_density":0.467,"complexity":0.611,"dissonance":0.095},{"voice":3,"pitch":40,"start":48.2609,"duration":0.2609,"velocity":127,"measure":24,"beat":1.5,"subject_pos":-1,"motif":"","motif_pos":-1,"best_pos":4,"similarity":0.386,"stretto":false,"stretto_voices":0,"combination":[],"aug_dim":"","rhythm_ratio":1.0,"mirror":false,"chromatic_density":0.467,"complexity":0.611,"dissonance":0.095},{"voice":0,"pitch":77,"start":48.5217,"duration":0.7826,"velocity":127,"measure":24,"beat":2.0,"subject_pos":2,"motif":"subject_inv","motif_pos":2,"best_pos":2,"similarity":1.0,"stretto":false,"stretto_voices":0,"combination":[],"aug_dim":"","rhythm_ratio":0.68,"mirror":false,"chromatic_density":0.467,"complexity":0.611,"dissonance":0.095},{"voice":1,"pitch":69,"start":48.5217,"duration":0.2609,"velocity":127,"measure":24,"beat":2.0,"subject_pos":-1,"motif":"tail","motif_pos":5,"best_pos":5,"similarity":1.0,"stretto":false,"stretto_voices":0,"combination":[],"aug_dim":"","rhythm_ratio":1.0,"mirror":false,"chromatic_density":0.467,"complexity":0.611,"dissonance":0.095},{"voice":3,"pitch":38,"start":48.5217,"duration":0.2609,"velocity":127,"measure":24,"beat":2.0,"subject_pos":-1,"motif":"","motif_pos":-1,"best_pos":2,"similarity":0.3,"stretto":false,"stretto_voices":0,"combination":[],"aug_dim":"","rhythm_ratio":1.0,"mirror":false,"chromatic_density":0.467,"complexity":0.611,"dissonance":0.095},{"voice":1,"pitch":71,"start":48.7826,"duration":0.2609,"velocity":127,"measure":24,"beat":2.5,"subject_pos":-1,"motif":"tail","motif_pos":6,"best_pos":6,"similarity":1.0,"stretto":false,"stretto_voices":0,"combination":[],"aug_dim":"","rhythm_ratio":1.0,"mirror":false,"chromatic_density":0.467,"complexity":0.611,"dissonance":0.095},{"voice":3,"pitch":50,"start":48.7826,"duration":0.2609,"velocity":127,"measure":24,"beat":2.5,"subject_pos":-1,"motif":"","motif_pos":-1,"best_pos":1,"similarity":0.214,"stretto":false,"stretto_voices":0,"combination":[],"aug_dim":"","rhythm_ratio":1.0,"mirror":false,"chromatic_density":0.467,"complexity":0.611,"dissonance":0.095},{"voice":1,"pitch":72,"start":49.0435,"duration":0.5217,"velocity":127,"measure":24,"beat":3.0,"subject_pos":-1,"motif":"tail","motif_pos":7,"best_pos":7,"similarity":1.0,"stretto":false,"stretto_voices":0,"combination":[],"aug_dim":"","rhythm_ratio":1.0,"mirror":false,"chromatic_density":0.467,"complexity":0.611,"dissonance":0.095},{"voice":3,"pitch":45,"start":49.0435,"duration":0.2609,"velocity":127,"measure":24,"beat":3.0,"subject_pos":-1,"motif":"","motif_pos":-1,"best_pos":2,"similarity":0.293,"stretto":false,"stretto_voices":0,"combination":[],"aug_dim":"","rhythm_ratio":1.0,"mirror":false,"chromatic_density":0.467,"complexity":0.611,"dissonance":0.095},{"voice":0,"pitch":79,"start":49.3043,"duration":0.2609,"velocity":127,"measure":24,"beat":3.5,"subject_pos":-1,"motif":"subject_inv","motif_pos":2,"best_pos":2,"similarity":1.0,"stretto":false,"stretto_voices":0,"combination":[],"aug_dim":"","rhythm_ratio":0.68,"mirror":false,"chromatic_density":0.467,"complexity":0.611,"dissonance":0.095},{"voice":3,"pitch":58,"start":49.3043,"duration":0.2609,"velocity":127,"measure":24,"beat":3.5,"subject_pos":-1,"motif":"","motif_pos":-1,"best_pos":3,"similarity":0.379,"stretto":false,"stretto_voices":0,"combination":[],"aug_dim":"","rhythm_ratio":1.0,"mirror":false,"chromatic_density":0.467,"complexity":0.611,"dissonance":0.095},{"voice":0,"pitch":81,"start":49.5652,"duration":0.7826,"velocity":127,"measure":24,"beat":4.0,"subject_pos":3,"motif":"subject_inv","motif_pos":3,"best_pos":3,"similarity":1.0,"stretto":false,"stretto_voices":0,"combination":[],"aug_dim":"","rhythm_ratio":0.68,"mirror":false,"chromatic_density":0.467,"complexity":0.611,"dissonance":0.095},{"voice":1,"pitch":73,"start":49.5652,"duration":1.0435,"velocity":127,"measure":24,"beat":4.0,"subject_pos":-1,"motif":"","motif_pos":-1,"best_pos":4,"similarity":0.593,"stretto":false,"stretto_voices":0,"combination":[],"aug_dim":"","rhythm_ratio":1.0,"mirror":false,"chromatic_density":0.467,"complexity":0.611,"dissonance":0.095},{"voice":3,"pitch":57,"start":49.5652,"duration":0.2609,"velocity":127,"measure":24,"beat":4.0,"subject_pos":-1,"motif":"","motif_pos":-1,"best_pos":1,"similarity":0.429,"stretto":false,"stretto_voices":0,"combination":[],"aug_dim":"","rhythm_ratio":1.0,"mirror":false,"chromatic_density":0.467,"complexity":0.611,"dissonance":0.095},{"voice":3,"pitch":55,"start":49.8261,"duration":0.2609,"velocity":127,"measure":24,"beat":4.5,"subject_pos":-1,"motif":"","motif_pos":-1,"best_pos":2,"similarity":0.579,"stretto":false,"stretto_voices":0,"combination":[],"aug_dim":"","rhythm_ratio":1.0,"mirror":false,"chromatic_density":0.467,"complexity":0.611,"dissonance":0.095},{"voice":3,"pitch":53,"start":50.0869,"duration":0.2609,"velocity":127,"measure":25,"beat":1.0,"subject_pos":-1,"motif":"","motif_pos":-1,"best_pos":3,"similarity":0.593,"stretto":false,"stretto_voices":0,"combination":[],"aug_dim":"","rhythm_ratio":1.0,"mirror":false,"chromatic_density":0.273,"complexity":0.589,"dissonance":0.137},{"voice":0,"pitch":79,"start":50.3478,"duration":0.2609,"velocity":127,"measure":25,"beat":1.5,"subject_pos":-1,"motif":"subject_inv","motif_pos":3,"best_pos":3,"similarity":1.0,"stretto":false,"stretto_voices":0,"combination":[],"aug_dim":"","rhythm_ratio":0.68,"mirror":false,"chromatic_density":0.273,"complexity":0.589,"dissonance":0.137},{"voice":3,"pitch":52,"start":50.3478,"duration":0.2609,"velocity":127,"measure":25,"beat":1.5,"subject_pos":-1,"motif":"","motif_pos":-1,"best_pos":4,"similarity":0.471,"stretto":false,"stretto_voices":0,"combination":[],"aug_dim":"","rhythm_ratio":1.0,"mirror":false,"chromatic_density":0.273,"complexity":0.589,"dissonance":0.137},{"voice":0,"pitch":82,"start":50.6087,"duration":1.0435,"velocity":127,"measure":25,"beat":2.0,"subject_pos":4,"motif":"subject_inv","motif_pos":4,"best_pos":4,"similarity":1.0,"stretto":false,"stretto_voices":0,"combination":[],"aug_dim":"","rhythm_ratio":0.68,"mirror":false,"chromatic_density":0.273,"complexity":0.589,"dissonance":0.137},{"voice":1,"pitch":74,"start":50.6087,"duration":0.2609,"velocity":127,"measure":25,"beat":2.0,"subject_pos":-1,"motif":"","motif_pos":-1,"best_pos":5,"similarity":0.757,"stretto":false,"stretto_voices":0,"combination":[],"aug_dim":"","rhythm_ratio":1.0,"mirror":false,"chromatic_density":0.273,"complexity":0.589,"dissonance":0.137},{"voice":3,"pitch":50,"start":50.6087,"duration":0.7826,"velocity":127,"measure":25,"beat":2.0,"subject_pos":-1,"motif":"","motif_pos":-1,"best_pos":2,"similarity":0.357,"stretto":false,"stretto_voices":0,"combination":[],"aug_dim":"","rhythm_ratio":1.0,"mirror":false,"chromatic_density":0.273,"complexity":0.589,"dissonance":0.137},{"voice":1,"pitch":76,"start":50.8696,"duration":0.2609,"velocity":127,"measure":25,"beat":2.5,"subject_pos":-1,"motif":"","motif_pos":-1,"best_pos":6,"similarity":0.732,"stretto":false,"stretto_voices":0,"combination":[],"aug_dim":"","rhythm_ratio":1.0,"mirror":false,"chromatic_density":0.273,"complexity":0.589,"dissonance":0.137},{"voice":1,"pitch":77,"start":51.1304,"duration":0.2609,"velocity":127,"measure":25,"beat":3.0,"subject_pos":-1,"motif":"","motif_pos":-1,"best_pos":7,"similarity":0.5,"stretto":false,"stretto_voices":0,"combination":[],"aug_dim":"","rhythm_ratio":1.0,"mirror":false,"chromatic_density":0.273,"complexity":0.589,"dissonance":0.137},{"voice":1,"pitch":74,"start":51.3913,"duration":0.2609,"velocity":127,"measure":25,"beat":3.5,"subject_pos":-1,"motif":"","motif_pos":-1,"best_pos":3,"similarity":0.407,"stretto":false,"stretto_voices":0,"combination":[],"aug_dim":"","rhythm_ratio":1.0,"mirror":false,"chromatic_density":0.273,"complexity":0.589,"dissonance":0.137},{"voice":3,"pitch":55,"start":51.3913,"duration":0.2609,"velocity":127,"measure":25,"beat":3.5,"subject_pos":-1,"motif":"","motif_pos":-1,"best_pos":1,"similarity":0.379,"stretto":false,"stretto_voices":0,"combination":[],"aug_dim":"","rhythm_ratio":1.0,"mirror":false,"chromatic_density":0.273,"complexity":0.589,"dissonance":0.137},{"voice":0,"pitch":81,"start":51.6522,"duration":0.2609,"velocity":127,"measure":25,"beat":4.0,"subject_pos":5,"motif":"subject_inv","motif_pos":5,"best_pos":5,"similarity":1.0,"stretto":false,"stretto_voices":0,"combination":[],"aug_dim":"","rhythm_ratio":0.68,"mirror":false,"chromatic_density":0.273,"complexity":0.589,"dissonance":0.137},{"voice":1,"pitch":76,"start":51.6522,"duration":0.7826,"velocity":127,"measure":25,"beat":4.0,"subject_pos":-1,"motif":"head_inv","motif_pos":0,"best_pos":0,"similarity":1.0,"stretto":false,"stretto_voices":0,"combination":[],"aug_dim":"","rhythm_ratio":1.0,"mirror":false,"chromatic_density":0.273,"complexity":0.589,"dissonance":0.137},{"voice":3,"pitch":49,"start":51.6522,"duration":0.5217,"velocity":127,"measure":25,"beat":4.0,"subject_pos":-1,"motif":"enigmatic_cell","motif_pos":0,"best_pos":0,"similarity":1.0,"stretto":false,"stretto_voices":0,"combination":[],"aug_dim":"","rhythm_ratio":1.0,"mirror":false,"chromatic_density":0.273,"complexity":0.589,"dissonance":0.137},{"voice":0,"pitch":79,"start":51.913,"duration":0.2609,"velocity":127,"measure":25,"beat":4.5,"subject_pos":6,"motif":"subject_inv","motif_pos":6,"best_pos":6,"similarity":1.0,"stretto":false,"stretto_voices":0,"combination":[],"aug_dim":"","rhythm_ratio":0.68,"mirror":false,"chromatic_density":0.273,"complexity":0.589,"dissonance":0.137},{"voice":0,"pitch":77,"start":52.1739,"duration":1.3043,"velocity":127,"measure":26,"beat":1.0,"subject_pos":7,"motif":"subject_inv","motif_pos":7,"best_pos":7,"similarity":1.0,"stretto":false,"stretto_voices":0,"combination":[],"aug_dim":"","rhythm_ratio":0.68,"mirror":false,"chromatic_density":0.455,"complexity":0.561,"dissonance":0.059},{"voice":3,"pitch":50,"start":52.1739,"duration":0.5217,"velocity":127,"measure":26,"beat":1.0,"subject_pos":-1,"motif":"enigmatic_cell","motif_pos":1,"best_pos":1,"similarity":1.0,"stretto":false,"stretto_voices":0,"combination":[],"aug_dim":"","rhythm_ratio":1.0,"mirror":false,"chromatic_density":0.455,"complexity":0.561,"dissonance":0.059},{"voice":1,"pitch":69,"start":52.4348,"duration":0.2609,"velocity":127,"measure":26,"beat":1.5,"subject_pos":-1,"motif":"head_inv","motif_pos":1,"best_pos":1,"similarity":1.0,"stretto":false,"stretto_voices":0,"combination":[],"aug_dim":"","rhythm_ratio":1.0,"mirror":false,"chromatic_density":0.455,"complexity":0.561,"dissonance":0.059},{"voice":1,"pitch":71,"start":52.6956,"duration":0.2609,"velocity":127,"measure":26,"beat":2.0,"subject_pos":-1,"motif":"head_inv","motif_pos":2,"best_pos":2,"similarity":1.0,"stretto":false,"stretto_voices":0,"combination":[],"aug_dim":"","rhythm_ratio":1.0,"mirror":false,"chromatic_density":0.455,"complexity":0.561,"dissonance":0.059},{"voice":1,"pitch":73,"start":52.9565,"duration":0.2609,"velocity":127,"measure":26,"beat":2.5,"subject_pos":-1,"motif":"head_inv","motif_pos":3,"best_pos":3,"similarity":1.0,"stretto":false,"stretto_voices":0,"combination":[],"aug_dim":"","rhythm_ratio":1.0,"mirror":false,"chromatic_density":0.455,"complexity":0.561,"dissonance":0.059},{"voice":3,"pitch":45,"start":52.9565,"duration":0.2609,"velocity":127,"measure":26,"beat":2.5,"subject_pos":-1,"motif":"enigmatic_cell","motif_pos":2,"best_pos":2,"similarity":1.0,"stretto":false,"stretto_voices":0,"combination":[],"aug_dim":"","rhythm_ratio":1.0,"mirror":false,"chromatic_density":0.455,"complexity":0.561,"dissonance":0.059},{"voice":1,"pitch":74,"start":53.2174,"duration":1.3043,"velocity":127,"measure":26,"beat":3.0,"subject_pos":-1,"motif":"head_inv","motif_pos":4,"best_pos":4,"similarity":1.0,"stretto":false,"stretto_voices":0,"combination":[],"aug_dim":"","rhythm_ratio":1.0,"mirror":false,"chromatic_density":0.455,"complexity":0.561,"dissonance":0.059},{"voice":3,"pitch":46,"start":53.2174,"duration":0.2609,"velocity":127,"measure":26,"beat":3.0,"subject_pos":-1,"motif":"","motif_pos":-1,"best_pos":7,"similarity":0.357,"stretto":false,"stretto_voices":0,"combination":[],"aug_dim":"","rhythm_ratio":1.0,"mirror":false,"chromatic_density":0.455,"complexity":0.561,"dissonance":0.059},{"voice":0,"pitch":76,"start":53.4782,"duration":0.2609,"velocity":127,"measure":26,"beat":3.5,"subject_pos":-1,"motif":"","motif_pos":-1,"best_pos":4,"similarity":0.679,"stretto":false,"stretto_voices":0,"combination":[],"aug_dim":"","rhythm_ratio":1.0,"mirror":false,"chromatic_density":0.455,"complexity":0.561,"dissonance":0.059},{"voice":3,"pitch":58,"start":53.4782,"duration":0.2609,"velocity":127,"measure":26,"beat":3.5,"subject_pos":-1,"motif":"","motif_pos":-1,"best_pos":3,"similarity":0.321,"stretto":false,"stretto_voices":0,"combination":[],"aug_dim":"","rhythm_ratio":1.0,"mirror":false,"chromatic_density":0.455,"complexity":0.561,"dissonance":0.059},{"voice":0,"pitch":78,"start":53.7391,"duration":0.2609,"velocity":127,"measure":26,"beat":4.0,"subject_pos":-1,"motif":"","motif_pos":-1,"best_pos":6,"similarity":0.643,"stretto":false,"stretto_voices":0,"combination":[],"aug_dim":"","rhythm_ratio":1.0,"mirror":false,"chromatic_density":0.455,"complexity":0.561,"dissonance":0.059},{"voice":3,"pitch":57,"start":53.7391,"duration":0.2609,"velocity":127,"measure":26,"beat":4.0,"subject_pos":-1,"motif":"","motif_pos":-1,"best_pos":2,"similarity":0.436,"stretto":false,"stretto_voices":0,"combination":[],"aug_dim":"","rhythm_ratio":1.0,"mirror":false,"chromatic_density":0.455,"complexity":0.561,"dissonance":0.059},{"voice":0,"pitch":79,"start":54.0,"duration":0.2609,"velocity":127,"measure":26,"beat":4.5,"subject_pos":-1,"motif":"","motif_pos":-1,"best_pos":5,"similarity":0.604,"stretto":false,"stretto_voices":0,"combination":[],"aug_dim":"","rhythm_ratio":1.0,"mirror":false,"chromatic_density":0.455,"complexity":0.561,"dissonance":0.059},{"voice":3,"pitch":55,"start":54.0,"duration":0.2609,"velocity":127,"measure":26,"beat":4.5,"subject_pos":-1,"motif":"","motif_pos":-1,"best_pos":3,"similarity":0.586,"stretto":false,"stretto_voices":0,"combination":[],"aug_dim":"","rhythm_ratio":1.0,"mirror":false,"chromatic_density":0.455,"complexity":0.561,"dissonance":0.059},{"voice":0,"pitch":81,"start":54.2609,"duration":0.5217,"velocity":127,"measure":27,"beat":1.0,"subject_pos":-1,"motif":"","motif_pos":-1,"best_pos":6,"similarity":0.436,"stretto":false,"stretto_voices":0,"combination":[],"aug_dim":"","rhythm_ratio":1.0,"mirror":false,"chromatic_density":0.385,"complexity":0.535,"dissonance":0.116},{"voice":3,"pitch":54,"start":54.2609,"duration":0.7826,"velocity":127,"measure":27,"beat":1.0,"subject_pos":-1,"motif":"","motif_pos":-1,"best_pos":4,"similarity":0.636,"stretto":false,"stretto_voices":0,"combination":[],"aug_dim":"","rhythm_ratio":1.0,"mirror":false,"chromatic_density":0.385,"complexity":0.535,"dissonance":0.116},{"voice":1,"pitch":72,"start":54.5217,"duration":0.2609,"velocity":127,"measure":27,"beat":1.5,"subject_pos":-1,"motif":"","motif_pos":-1,"best_pos":2,"similarity":0.657,"stretto":false,"stretto_voices":0,"combination":[],"aug_dim":"","rhythm_ratio":1.0,"mirror":false,"chromatic_density":0.385,"complexity":0.535,"dissonance":0.116},{"voice":0,"pitch":74,"start":54.7826,"duration":0.7826,"velocity":127,"measure":27,"beat":2.0,"subject_pos":-1,"motif":"","motif_pos":-1,"best_pos":0,"similarity":0.329,"stretto":false,"stretto_voices":0,"combination":[],"aug_dim":"","rhythm_ratio":1.0,"mirror":false,"chromatic_density":0.385,"complexity":0.535,"dissonance":0.116},{"voice":1,"pitch":70,"start":54.7826,"duration":0.2609,"velocity":127,"measure":27,"beat":2.0,"subject_pos":-1,"motif":"","motif_pos":-1,"best_pos":3,"similarity":0.729,"stretto":false,"stretto_voices":0,"combination":[],"aug_dim":"","rhythm_ratio":1.0,"mirror":false,"chromatic_density":0.385,"complexity":0.535,"dissonance":0.116},{"voice":1,"pitch":69,"start":55.0435,"duration":0.2609,"velocity":127,"measure":27,"beat":2.5,"subject_pos":-1,"motif":"","motif_pos":-1,"best_pos":4,"similarity":0.736,"stretto":false,"stretto_voices":0,"combination":[],"aug_dim":"","rhythm_ratio":1.0,"mirror":false,"chromatic_density":0.385,"complexity":0.535,"dissonance":0.116},{"voice":3,"pitch":52,"start":55.0435,"duration":0.1304,"velocity":127,"measure":27,"beat":2.5,"subject_pos":-1,"motif":"","motif_pos":-1,"best_pos":5,"similarity":0.636,"stretto":false,"stretto_voices":0,"combination":[],"aug_dim":"","rhythm_ratio":1.0,"mirror":false,"chromatic_density":0.385,"complexity":0.535,"dissonance":0.116},{"voice":3,"pitch":54,"start":55.1739,"duration":0.1304,"velocity":127,"measure":27,"beat":2.75,"subject_pos":-1,"motif":"","motif_pos":-1,"best_pos":6,"similarity":0.657,"stretto":false,"stretto_voices":0,"combination":[],"aug_dim":"","rhythm_ratio":1.0,"mirror":false,"chromatic_density":0.385,"complexity":0.535,"dissonance":0.116},{"voice":1,"pitch":70,"start":55.3043,"duration":1.5652,"velocity":127,"measure":27,"beat":3.0,"subject_pos":-1,"motif":"enigmatic_cell","motif_pos":0,"best_pos":0,"similarity":1.0,"stretto":false,"stretto_voices":0,"combination":[],"aug_dim":"","rhythm_ratio":1.0,"mirror":false,"chromatic_density":0.385,"complexity":0.535,"dissonance":0.116},{"voice":3,"pitch":55,"start":55.3043,"duration":0.2609,"velocity":127,"measure":27,"beat":3.0,"subject_pos":-1,"motif":"","motif_pos":-1,"best_pos":7,"similarity":0.436,"stretto":false,"stretto_voices":0,"combination":[],"aug_dim":"","rhythm_ratio":1.0,"mirror":false,"chromatic_density":0.385,"complexity":0.535,"dissonance":0.116},{"voice":0,"pitch":79,"start":55.5652,"duration":0.2609,"velocity":127,"measure":27,"beat":3.5,"subject_pos":-1,"motif":"","motif_pos":-1,"best_pos":1,"similarity":0.379,"stretto":false,"stretto_voices":0,"combination":[],"aug_dim":"","rhythm_ratio":1.0,"mirror":false,"chromatic_density":0.385,"complexity":0.535,"dissonance":0.116},{"voice":3,"pitch":53,"start":55.5652,"duration":0.2609,"velocity":127,"measure":27,"beat":3.5,"subject_pos":-1,"motif":"","motif_pos":-1,"best_pos":3,"similarity":0.471,"stretto":false,"stretto_voices":0,"combination":[],"aug_dim":"","rhythm_ratio":1.0,"mirror":false,"chromatic_density":0.385,"complexity":0.535,"dissonance":0.116},{"voice":0,"pitch":73,"start":55.8261,"duration":0.2609,"velocity":127,"measure":27,"beat":4.0,"subject_pos":-1,"motif":"","motif_pos":-1,"best_pos":4,"similarity":0.507,"stretto":false,"stretto_voices":0,"combination":[],"aug_dim":"","rhythm_ratio":1.0,"mirror":false,"chromatic_density":0.385,"complexity":0.535,"dissonance":0.116},{"voice":3,"pitch":52,"start":55.8261,"duration":0.2609,"velocity":127,"measure":27,"beat":4.0,"subject_pos":-1,"motif":"","motif_pos":-1,"best_pos":2,"similarity":0.436,"stretto":false,"stretto_voices":0,"combination":[],"aug_dim":"","rhythm_ratio":1.0,"mirror":false,"chromatic_density":0.385,"complexity":0.535,"dissonance":0.116},{"voice":0,"pitch":74,"start":56.0869,"duration":0.2609,"velocity":127,"measure":27,"beat":4.5,"subject_pos":-1,"motif":"","motif_pos":-1,"best_pos":5,"similarity":0.714,"stretto":false,"stretto_voices":0,"combination":[],"aug_dim":"","rhythm_ratio":1.0,"mirror":false,"chromatic_density":0.385,"complexity":0.535,"dissonance":0.116},{"voice":3,"pitch":50,"start":56.0869,"duration":0.2609,"velocity":127,"measure":27,"beat":4.5,"subject_pos":-1,"motif":"","motif_pos":-1,"best_pos":3,"similarity":0.586,"stretto":false,"stretto_voices":0,"combination":[],"aug_dim":"","rhythm_ratio":1.0,"mirror":false,"chromatic_density":0.385,"complexity":0.535,"dissonance":0.116},{"voice":0,"pitch":76,"start":56.3478,"duration":0.2609,"velocity":127,"measure":28,"beat":1.0,"subject_pos":-1,"motif":"","motif_pos":-1,"best_pos":6,"similarity":0.714,"stretto":false,"stretto_voices":0,"combination":[],"aug_dim":"","rhythm_ratio":1.0,"mirror":false,"chromatic_density":0.385,"complexity":0.526,"dissonance":0.143},{"voice":3,"pitch":49,"start":56.3478,"duration":0.7826,"velocity":127,"measure":28,"beat":1.0,"subject_pos":-1,"motif":"","motif_pos":-1,"best_pos":4,"similarity":0.636,"stretto":false,"stretto_voices":0,"combination":[],"aug_dim":"","rhythm_ratio":1.0,"mirror":false,"chromatic_density":0.385,"complexity":0.526,"dissonance":0.143},{"voice":0,"pitch":77,"start":56.6087,"duration":0.2609,"velocity":127,"measure":28,"beat":1.5,"subject_pos":-1,"motif":"","motif_pos":-1,"best_pos":5,"similarity":0.607,"stretto":false,"stretto_voices":0,"combination":[],"aug_dim":"","rhythm_ratio":1.0,"mirror":false,"chromatic_density":0.385,"complexity":0.526,"dissonance":0.143},{"voice":0,"pitch":79,"start":56.8696,"duration":0.2609,"velocity":127,"measure":28,"beat":2.0,"subject_pos":-1,"motif":"","motif_pos":-1,"best_pos":6,"similarity":0.464,"stretto":false,"stretto_voices":0,"combination":[],"aug_dim":"","rhythm_ratio":1.0,"mirror":false,"chromatic_density":0.385,"complexity":0.526,"dissonance":0.143},{"voice":1,"pitch":69,"start":56.8696,"duration":0.7826,"velocity":127,"measure":28,"beat":2.0,"subject_pos":-1,"motif":"enigmatic_cell","motif_pos":1,"best_pos":1,"similarity":1.0,"stretto":false,"stretto_voices":0,"combination":[],"aug_dim":"","rhythm_ratio":1.0,"mirror":false,"chromatic_density":0.385,"complexity":0.526,"dissonance":0.143},{"voice":0,"pitch":76,"start":57.1304,"duration":0.2609,"velocity":127,"measure":28,"beat":2.5,"subject_pos":-1,"motif":"","motif_pos":-1,"best_pos":3,"similarity":0.457,"stretto":false,"stretto_voices":0,"combination":[],"aug_dim":"","rhythm_ratio":1.0,"mirror":false,"chromatic_density":0.385,"complexity":0.526,"dissonance":0.143},{"voice":3,"pitch":47,"start":57.1304,"duration":0.1304,"velocity":127,"measure":28,"beat":2.5,"subject_pos":-1,"motif":"","motif_pos":-1,"best_pos":5,"similarity":0.636,"stretto":false,"stretto_voices":0,"combination":[],"aug_dim":"","rhythm_ratio":1.0,"mirror":false,"chromatic_density":0.385,"complexity":0.526,"dissonance":0.143},{"voice":3,"pitch":49,"start":57.2609,"duration":0.1304,"velocity":127,"measure":28,"beat":2.75,"subject_pos":-1,"motif":"","motif_pos":-1,"best_pos":6,"similarity":0.657,"stretto":false,"stretto_voices":0,"combination":[],"aug_dim":"","rhythm_ratio":1.0,"mirror":false,"chromatic_density":0.385,"complexity":0.526,"dissonance":0.143},{"voice":0,"pitch":77,"start":57.3913,"duration":1.3043,"velocity":127,"measure":28,"beat":3.0,"subject_pos":-1,"motif":"","motif_pos":-1,"best_pos":5,"similarity":0.429,"stretto":false,"stretto_voices":0,"combination":[],"aug_dim":"","rhythm_ratio":1.0,"mirror":false,"chromatic_density":0.385,"complexity":0.526,"dissonance":0.143},{"voice":3,"pitch":50,"start":57.3913,"duration":0.2609,"velocity":127,"measure":28,"beat":3.0,"subject_pos":-1,"motif":"","motif_pos":-1,"best_pos":7,"similarity":0.436,"stretto":false,"stretto_voices":0,"combination":[],"aug_dim":"","rhythm_ratio":1.0,"mirror":false,"chromatic_density":0.385,"complexity":0.526,"dissonance":0.143},{"voice":1,"pitch":74,"start":57.6522,"duration":0.2609,"velocity":127,"measure":28,"beat":3.5,"subject_pos":-1,"motif":"enigmatic_cell","motif_pos":2,"best_pos":2,"similarity":1.0,"stretto":false,"stretto_voices":0,"combination":[],"aug_dim":"","rhythm_ratio":1.0,"mirror":false,"chromatic_density":0.385,"complexity":0.526,"dissonance":0.143},{"voice":3,"pitch":48,"start":57.6522,"duration":0.2609,"velocity":127,"measure":28,"beat":3.5,"subject_pos":-1,"motif":"","motif_pos":-1,"best_pos":3,"similarity":0.471,"stretto":false,"stretto_voices":0,"combination":[],"aug_dim":"","rhythm_ratio":1.0,"mirror":false,"chromatic_density":0.385,"complexity":0.526,"dissonance":0.143},{"voice":1,"pitch":68,"start":57.913,"duration":0.2609,"velocity":127,"measure":28,"beat":4.0,"subject_pos":-1,"motif":"","motif_pos":-1,"best_pos":4,"similarity":0.471,"stretto":false,"stretto_voices":0,"combination":[],"aug_dim":"","rhythm_ratio":1.0,"mirror":false,"chromatic_density":0.385,"complexity":0.526,"dissonance":0.143},{"voice":3,"pitch":47,"start":57.913,"duration":0.2609,"velocity":127,"measure":28,"beat":4.0,"subject_pos":-1,"motif":"","motif_pos":-1,"best_pos":2,"similarity":0.429,"stretto":false,"stretto_voices":0,"combination":[],"aug_dim":"","rhythm_ratio":1.0,"mirror":false,"chromatic_density":0.385,"complexity":0.526,"dissonance":0.143},{"voice":1,"pitch":69,"start":58.1739,"duration":0.2609,"velocity":127,"measure":28,"beat":4.5,"subject_pos":-1,"motif":"","motif_pos":-1,"best_pos":5,"similarity":0.586,"stretto":false,"stretto_voices":0,"combination":[],"aug_dim":"","rhythm_ratio":1.0,"mirror":false,"chromatic_density":0.385,"complexity":0.526,"dissonance":0.143},{"voice":3,"pitch":45,"start":58.1739,"duration":0.2609,"velocity":127,"measure":28,"beat":4.5,"subject_pos":-1,"motif":"","motif_pos":-1,"best_pos":3,"similarity":0.536,"stretto":false,"stretto_voices":0,"combination":[],"aug_dim":"","rhythm_ratio":1.0,"mirror":false,"chromatic_density":0.385,"complexity":0.526,"dissonance":0.143},{"voice":1,"pitch":71,"start":58.4348,"duration":1.3043,"velocity":127,"measure":29,"beat":1.0,"subject_pos":-1,"motif":"","motif_pos":-1,"best_pos":1,"similarity":0.457,"stretto":false,"stretto_voices":0,"combination":[],"aug_dim":"","rhythm_ratio":1.0,"mirror":false,"chromatic_density":0.308,"complexity":0.621,"dissonance":0.124},{"voice":3,"pitch":44,"start":58.4348,"duration":0.5217,"velocity":127,"measure":29,"beat":1.0,"subject_pos":-1,"motif":"","motif_pos":-1,"best_pos":4,"similarity":0.464,"stretto":false,"stretto_voices":0,"combination":[],"aug_dim":"","rhythm_ratio":1.0,"mirror":false,"chromatic_density":0.308,"complexity":0.621,"dissonance":0.124},{"voice":0,"pitch":77,"start":58.6956,"duration":0.2609,"velocity":127,"measure":29,"beat":1.5,"subject_pos":-1,"motif":"","motif_pos":-1,"best_pos":3,"similarity":0.35,"stretto":false,"stretto_voices":0,"combination":[],"aug_dim":"","rhythm_ratio":1.0,"mirror":false,"chromatic_density":0.308,"complexity":0.621,"dissonance":0.124},{"voice":0,"pitch":76,"start":58.9565,"duration":0.2609,"velocity":127,"measure":29,"beat":2.0,"subject_pos":-1,"motif":"","motif_pos":-1,"best_pos":2,"similarity":0.393,"stretto":false,"stretto_voices":0,"combination":[],"aug_dim":"","rhythm_ratio":1.0,"mirror":false,"chromatic_density":0.308,"complexity":0.621,"dissonance":0.124},{"voice":2,"pitch":64,"start":58.9565,"duration":1.0435,"velocity":127,"measure":29,"beat":2.0,"subject_pos":0,"motif":"subject_inv","motif_pos":0,"best_pos":0,"similarity":1.0,"stretto":false,"stretto_voices":0,"combination":[],"aug_dim":"","rhythm_ratio":0.68,"mirror":false,"chromatic_density":0.308,"complexity":0.621,"dissonance":0.124},{"voice":3,"pitch":56,"start":58.9565,"duration":0.5217,"velocity":127,"measure":29,"beat":2.0,"subject_pos":-1,"motif":"","motif_pos":-1,"best_pos":4,"similarity":0.429,"stretto":false,"stretto_voices":0,"combination":[],"aug_dim":"","rhythm_ratio":1.0,"mirror":false,"chromatic_density":0.308,"complexity":0.621,"dissonance":0.124},{"voice":0,"pitch":74,"start":59.2174,"duration":0.2609,"velocity":127,"measure":29,"beat":2.5,"subject_pos":-1,"motif":"","motif_pos":-1,"best_pos":3,"similarity":0.5,"stretto":false,"stretto_voices":0,"combination":[],"aug_dim":"","rhythm_ratio":1.0,"mirror":false,"chromatic_density":0.308,"complexity":0.621,"dissonance":0.124},{"voice":0,"pitch":72,"start":59.4782,"duration":0.7826,"velocity":127,"measure":29,"beat":3.0,"subject_pos":-1,"motif":"","motif_pos":-1,"best_pos":4,"similarity":0.571,"stretto":false,"stretto_voices":0,"combination":[],"aug_dim":"","rhythm_ratio":1.0,"mirror":false,"chromatic_density":0.308,"complexity":0.621,"dissonance":0.124},{"voice":3,"pitch":57,"start":59.4782,"duration":0.5217,"velocity":127,"measure":29,"beat":3.0,"subject_pos":-1,"motif":"","motif_pos":-1,"best_pos":5,"similarity":0.375,"stretto":false,"stretto_voices":0,"combination":[],"aug_dim":"","rhythm_ratio":1.0,"mirror":false,"chromatic_density":0.308,"complexity":0.621,"dissonance":0.124},{"voice":1,"pitch":69,"start":59.7391,"duration":0.1304,"velocity":127,"measure":29,"beat":3.5,"subject_pos":-1,"motif":"","motif_pos":-1,"best_pos":2,"similarity":0.604,"stretto":false,"stretto_voices":0,"combination":[],"aug_dim":"","rhythm_ratio":1.0,"mirror":false,"chromatic_density":0.308,"complexity":0.621,"dissonance":0.124},{"voice":1,"pitch":67,"start":59.8696,"duration":0.1304,"velocity":127,"measure":29,"beat":3.75,"subject_pos":-1,"motif":"","motif_pos":-1,"best_pos":3,"similarity":0.621,"stretto":false,"stretto_voices":0,"combination":[],"aug_dim":"","rhythm_ratio":1.0,"mirror":false,"chromatic_density":0.308,"complexity":0.621,"dissonance":0.124},{"voice":1,"pitch":66,"start":60.0,"duration":0.2609,"velocity":127,"measure":29,"beat":4.0,"subject_pos":-1,"motif":"","motif_pos":-1,"best_pos":3,"similarity":0.543,"stretto":false,"stretto_voices":0,"combination":[],"aug_dim":"","rhythm_ratio":1.0,"mirror":false,"chromatic_density":0.308,"complexity":0.621,"dissonance":0.124},{"voice":2,"pitch":57,"start":60.0,"duration":0.7826,"velocity":127,"measure":29,"beat":4.0,"subject_pos":1,"motif":"subject_inv","motif_pos":1,"best_pos":1,"similarity":1.0,"stretto":false,"stretto_voices":0,"combination":[],"aug_dim":"","rhythm_ratio":0.68,"mirror":false,"chromatic_density":0.308,"complexity":0.621,"dissonance":0.124},{"voice":3,"pitch":45,"start":60.0,"duration":0.2609,"velocity":127,"measure":29,"beat":4.0,"subject_pos":-1,"motif":"","motif_pos":-1,"best_pos":5,"similarity":0.464,"stretto":false,"stretto_voices":0,"combination":[],"aug_dim":"","rhythm_ratio":1.0,"mirror":false,"chromatic_density":0.308,"complexity":0.621,"dissonance":0.124},{"voice":0,"pitch":74,"start":60.2609,"duration":0.2609,"velocity":127,"measure":29,"beat":4.5,"subject_pos":-1,"motif":"","motif_pos":-1,"best_pos":5,"similarity":0.607,"stretto":false,"stretto_voices":0,"combination":[],"aug_dim":"","rhythm_ratio":1.0,"mirror":false,"chromatic_density":0.308,"complexity":0.621,"dissonance":0.124},{"voice":1,"pitch":65,"start":60.2609,"duration":0.2609,"velocity":127,"measure":29,"beat":4.5,"subject_pos":-1,"motif":"","motif_pos":-1,"best_pos":4,"similarity":0.55,"stretto":false,"stretto_voices":0,"combination":[],"aug_dim":"","rhythm_ratio":1.0,"mirror":false,"chromatic_density":0.308,"complexity":0.621,"dissonance":0.124},{"voice":3,"pitch":47,"start":60.2609,"duration":0.2609,"velocity":127,"measure":29,"beat":4.5,"subject_pos":-1,"motif":"","motif_pos":-1,"best_pos":6,"similarity":0.589,"stretto":false,"stretto_voices":0,"combination":[],"aug_dim":"","rhythm_ratio":1.0,"mirror":false,"chromatic_density":0.308,"complexity":0.621,"dissonance":0.124},{"voice":0,"pitch":76,"start":60.5217,"duration":0.5217,"velocity":127,"measure":30,"beat":1.0,"subject_pos":-1,"motif":"","motif_pos":-1,"best_pos":6,"similarity":0.536,"stretto":false,"stretto_voices":0,"combination":[],"aug_dim":"","rhythm_ratio":1.0,"mirror":false,"chromatic_density":0.538,"complexity":0.674,"dissonance":0.184},{"voice":1,"pitch":64,"start":60.5217,"duration":0.2609,"velocity":127,"measure":30,"beat":1.0,"subject_pos":-1,"motif":"tail","motif_pos":3,"best_pos":3,"similarity":1.0,"stretto":false,"stretto_voices":0,"combination":[],"aug_dim":"","rhythm_ratio":1.0,"mirror":false,"chromatic_density":0.538,"complexity":0.674,"dissonance":0.184},{"voice":3,"pitch":48,"start":60.5217,"duration":0.5217,"velocity":127,"measure":30,"beat":1.0,"subject_pos":-1,"motif":"","motif_pos":-1,"best_pos":7,"similarity":0.429,"stretto":false,"stretto_voices":0,"combination":[],"aug_dim":"","rhythm_ratio":1.0,"mirror":false,"chromatic_density":0.538,"complexity":0.674,"dissonance":0.184},{"voice":1,"pitch":63,"start":60.7826,"duration":0.2609,"velocity":127,"measure":30,"beat":1.5,"subject_pos":-1,"motif":"tail","motif_pos":4,"best_pos":4,"similarity":1.0,"stretto":false,"stretto_voices":0,"combination":[],"aug_dim":"","rhythm_ratio":1.0,"mirror":false,"chromatic_density":0.538,"complexity":0.674,"dissonance":0.184},{"voice":2,"pitch":59,"start":60.7826,"duration":0.2609,"velocity":127,"measure":30,"beat":1.5,"subject_pos":-1,"motif":"subject_inv","motif_pos":1,"best_pos":1,"similarity":1.0,"stretto":false,"stretto_voices":0,"combination":[],"aug_dim":"","rhythm_ratio":0.68,"mirror":false,"chromatic_density":0.538,"complexity":0.674,"dissonance":0.184},{"voice":1,"pitch":64,"start":61.0435,"duration":0.2609,"velocity":127,"measure":30,"beat":2.0,"subject_pos":-1,"motif":"tail","motif_pos":5,"best_pos":5,"similarity":1.0,"stretto":false,"stretto_voices":0,"combination":[],"aug_dim":"","rhythm_ratio":1.0,"mirror":false,"chromatic_density":0.538,"complexity":0.674,"dissonance":0.184},{"voice":2,"pitch":60,"start":61.0435,"duration":0.7826,"velocity":127,"measure":30,"beat":2.0,"subject_pos":2,"motif":"subject_inv","motif_pos":2,"best_pos":2,"similarity":1.0,"stretto":false,"stretto_voices":0,"combination":[],"aug_dim":"","rhythm_ratio":0.68,"mirror":false,"chromatic_density":0.538,"complexity":0.674,"dissonance":0.184},{"voice":1,"pitch":66,"start":61.3043,"duration":0.2609,"velocity":127,"measure":30,"beat":2.5,"subject_pos":-1,"motif":"tail","motif_pos":6,"best_pos":6,"similarity":1.0,"stretto":false,"stretto_voices":0,"combination":[],"aug_dim":"","rhythm_ratio":1.0,"mirror":false,"chromatic_density":0.538,"complexity":0.674,"dissonance":0.184},{"voice":3,"pitch":45,"start":61.3043,"duration":0.2609,"velocity":127,"measure":30,"beat":2.5,"subject_pos":-1,"motif":"","motif_pos":-1,"best_pos":3,"similarity":0.457,"stretto":false,"stretto_voices":0,"combination":[],"aug_dim":"","rhythm_ratio":1.0,"mirror":false,"chromatic_density":0.538,"complexity":0.674,"dissonance":0.184},{"voice":1,"pitch":67,"start":61.5652,"duration":0.5217,"velocity":127,"measure":30,"beat":3.0,"subject_pos":-1,"motif":"tail","motif_pos":7,"best_pos":7,"similarity":1.0,"stretto":false,"stretto_voices":0,"combination":[],"aug_dim":"","rhythm_ratio":1.0,"mirror":false,"chromatic_density":0.538,"complexity":0.674,"dissonance":0.184},{"voice":3,"pitch":52,"start":61.5652,"duration":0.2609,"velocity":127,"measure":30,"beat":3.0,"subject_pos":-1,"motif":"","motif_pos":-1,"best_pos":4,"similarity":0.457,"stretto":false,"stretto_voices":0,"combination":[],"aug_dim":"","rhythm_ratio":1.0,"mirror":false,"chromatic_density":0.538,"complexity":0.674,"dissonance":0.184},{"voice":2,"pitch":62,"start":61.8261,"duration":0.2609,"velocity":127,"measure":30,"beat":3.5,"subject_pos":-1,"motif":"subject_inv","motif_pos":2,"best_pos":2,"similarity":1.0,"stretto":false,"stretto_voices":0,"combination":[],"aug_dim":"","rhythm_ratio":0.68,"mirror":false,"chromatic_density":0.538,"complexity":0.674,"dissonance":0.184},{"voice":3,"pitch":53,"start":61.8261,"duration":0.2609,"velocity":127,"measure":30,"beat":3.5,"subject_pos":-1,"motif":"","motif_pos":-1,"best_pos":5,"similarity":0.4,"stretto":false,"stretto_voices":0,"combination":[],"aug_dim":"","rhythm_ratio":1.0,"mirror":false,"chromatic_density":0.538,"complexity":0.674,"dissonance":0.184},{"voice":1,"pitch":68,"start":62.0869,"duration":1.0435,"velocity":127,"measure":30,"beat":4.0,"subject_pos":-1,"motif":"","motif_pos":-1,"best_pos":4,"similarity":0.593,"stretto":false,"stretto_voices":0,"combination":[],"aug_dim":"","rhythm_ratio":1.0,"mirror":false,"chromatic_density":0.538,"complexity":0.674,"dissonance":0.184},{"voice":2,"pitch":64,"start":62.0869,"duration":0.7826,"velocity":127,"measure":30,"beat":4.0,"subject_pos":3,"motif":"subject_inv","motif_pos":3,"best_pos":3,"similarity":1.0,"stretto":false,"stretto_voices":0,"combination":[],"aug_dim":"","rhythm_ratio":0.68,"mirror":false,"chromatic_density":0.538,"complexity":0.674,"dissonance":0.184},{"voice":3,"pitch":52,"start":62.0869,"duration":0.2609,"velocity":127,"measure":30,"beat":4.0,"subject_pos":-1,"motif":"","motif_pos":-1,"best_pos":1,"similarity":0.429,"stretto":false,"stretto_voices":0,"combination":[],"aug_dim":"","rhythm_ratio":1.0,"mirror":false,"chromatic_density":0.538,"complexity":0.674,"dissonance":0.184},{"voice":3,"pitch":50,"start":62.3478,"duration":0.2609,"velocity":127,"measure":30,"beat":4.5,"subject_pos":-1,"motif":"","motif_pos":-1,"best_pos":2,"similarity":0.579,"stretto":false,"stretto_voices":0,"combination":[],"aug_dim":"","rhythm_ratio":1.0,"mirror":false,"chromatic_density":0.538,"complexity":0.674,"dissonance":0.184},{"voice":3,"pitch":48,"start":62.6087,"duration":0.2609,"velocity":127,"measure":31,"beat":1.0,"subject_pos":-1,"motif":"","motif_pos":-1,"best_pos":3,"similarity":0.593,"stretto":false,"stretto_voices":0,"combination":[],"aug_dim":"","rhythm_ratio":1.0,"mirror":false,"chromatic_density":0.273,"complexity":0.571,"dissonance":0.095},{"voice":2,"pitch":62,"start":62.8695,"duration":0.2609,"velocity":127,"measure":31,"beat":1.5,"subject_pos":-1,"motif":"subject_inv","motif_pos":3,"best_pos":3,"similarity":1.0,"stretto":false,"stretto_voices":0,"combination":[],"aug_dim":"","rhythm_ratio":0.68,"mirror":false,"chromatic_density":0.273,"complexity":0.571,"dissonance":0.095},{"voice":3,"pitch":47,"start":62.8695,"duration":0.2609,"velocity":127,"measure":31,"beat":1.5,"subject_pos":-1,"motif":"","motif_pos":-1,"best_pos":4,"similarity":0.471,"stretto":false,"stretto_voices":0,"combination":[],"aug_dim":"","rhythm_ratio":1.0,"mirror":false,"chromatic_density":0.273,"complexity":0.571,"dissonance":0.095},{"voice":1,"pitch":69,"start":63.1304,"duration":0.2609,"velocity":127,"measure":31,"beat":2.0,"subject_pos":-1,"motif":"","motif_pos":-1,"best_pos":5,"similarity":0.757,"stretto":false,"stretto_voices":0,"combination":[],"aug_dim":"","rhythm_ratio":1.0,"mirror":false,"chromatic_density":0.273,"complexity":0.571,"dissonance":0.095},{"voice":2,"pitch":65,"start":63.1304,"duration":1.0435,"velocity":127,"measure":31,"beat":2.0,"subject_pos":4,"motif":"subject_inv","motif_pos":4,"best_pos":4,"similarity":1.0,"stretto":false,"stretto_voices":0,"combination":[],"aug_dim":"","rhythm_ratio":0.68,"mirror":false,"chromatic_density":0.273,"complexity":0.571,"dissonance":0.095},{"voice":3,"pitch":45,"start":63.1304,"duration":0.7826,"velocity":127,"measure":31,"beat":2.0,"subject_pos":-1,"motif":"","motif_pos":-1,"best_pos":2,"similarity":0.357,"stretto":false,"stretto_voices":0,"combination":[],"aug_dim":"","rhythm_ratio":1.0,"mirror":false,"chromatic_density":0.273,"complexity":0.571,"dissonance":0.095},{"voice":1,"pitch":71,"start":63.3913,"duration":0.2609,"velocity":127,"measure":31,"beat":2.5,"subject_pos":-1,"motif":"","motif_pos":-1,"best_pos":6,"similarity":0.732,"stretto":false,"stretto_voices":0,"combination":[],"aug_dim":"","rhythm_ratio":1.0,"mirror":false,"chromatic_density":0.273,"complexity":0.571,"dissonance":0.095},{"voice":1,"pitch":72,"start":63.6522,"duration":0.2609,"velocity":127,"measure":31,"beat":3.0,"subject_pos":-1,"motif":"","motif_pos":-1,"best_pos":7,"similarity":0.5,"stretto":false,"stretto_voices":0,"combination":[],"aug_dim":"","rhythm_ratio":1.0,"mirror":false,"chromatic_density":0.273,"complexity":0.571,"dissonance":0.095},{"voice":1,"pitch":69,"start":63.913,"duration":0.2609,"velocity":127,"measure":31,"beat":3.5,"subject_pos":-1,"motif":"","motif_pos":-1,"best_pos":3,"similarity":0.407,"stretto":false,"stretto_voices":0,"combination":[],"aug_dim":"","rhythm_ratio":1.0,"mirror":false,"chromatic_density":0.273,"complexity":0.571,"dissonance":0.095},{"voice":3,"pitch":50,"start":63.913,"duration":0.2609,"velocity":127,"measure":31,"beat":3.5,"subject_pos":-1,"motif":"","motif_pos":-1,"best_pos":1,"similarity":0.379,"stretto":false,"stretto_voices":0,"combination":[],"aug_dim":"","rhythm_ratio":1.0,"mirror":false,"chromatic_density":0.273,"complexity":0.571,"dissonance":0.095},{"voice":1,"pitch":71,"start":64.1739,"duration":0.7826,"velocity":127,"measure":31,"beat":4.0,"subject_pos":-1,"motif":"head_inv","motif_pos":0,"best_pos":0,"similarity":1.0,"stretto":false,"stretto_voices":0,"combination":[],"aug_dim":"","rhythm_ratio":1.0,"mirror":false,"chromatic_density":0.273,"complexity":0.571,"dissonance":0.095},{"voice":2,"pitch":64,"start":64.1739,"duration":0.2609,"velocity":127,"measure":31,"beat":4.0,"subject_pos":5,"motif":"subject_inv","motif_pos":5,"best_pos":5,"similarity":1.0,"stretto":false,"stretto_voices":0,"combination":[],"aug_dim":"","rhythm_ratio":0.68,"mirror":false,"chromatic_density":0.273,"complexity":0.571,"dissonance":0.095},{"voice":3,"pitch":44,"start":64.1739,"duration":0.5217,"velocity":127,"measure":31,"beat":4.0,"subject_pos":-1,"motif":"","motif_pos":-1,"best_pos":4,"similarity":0.464,"stretto":false,"stretto_voices":0,"combination":[],"aug_dim":"","rhythm_ratio":1.0,"mirror":false,"chromatic_density":0.273,"complexity":0.571,"dissonance":0.095},{"voice":2,"pitch":62,"start":64.4348,"duration":0.2609,"velocity":127,"measure":31,"beat":4.5,"subject_pos":6,"motif":"subject_inv","motif_pos":6,"best_pos":6,"similarity":1.0,"stretto":false,"stretto_voices":0,"combination":[],"aug_dim":"","rhythm_ratio":0.68,"mirror":false,"chromatic_density":0.273,"complexity":0.571,"dissonance":0.095},{"voice":2,"pitch":60,"start":64.6956,"duration":1.3043,"velocity":127,"measure":32,"beat":1.0,"subject_pos":7,"motif":"subject_inv","motif_pos":7,"best_pos":7,"similarity":1.0,"stretto":false,"stretto_voices":0,"combination":[],"aug_dim":"","rhythm_ratio":0.68,"mirror":false,"chromatic_density":0.417,"complexity":0.571,"dissonance":0.118},{"voice":3,"pitch":45,"start":64.6956,"duration":0.2609,"velocity":127,"measure":32,"beat":1.0,"subject_pos":-1,"motif":"","motif_pos":-1,"best_pos":5,"similarity":0.5,"stretto":false,"stretto_voices":0,"combination":[],"aug_dim":"","rhythm_ratio":1.0,"mirror":false,"chromatic_density":0.417,"complexity":0.571,"dissonance":0.118},{"voice":1,"pitch":64,"start":64.9565,"duration":0.2609,"velocity":127,"measure":32,"beat":1.5,"subject_pos":-1,"motif":"head_inv","motif_pos":1,"best_pos":1,"similarity":1.0,"stretto":false,"stretto_voices":0,"combination":[],"aug_dim":"","rhythm_ratio":1.0,"mirror":false,"chromatic_density":0.417,"complexity":0.571,"dissonance":0.118},{"voice":3,"pitch":48,"start":64.9565,"duration":0.2609,"velocity":127,"measure":32,"beat":1.5,"subject_pos":-1,"motif":"","motif_pos":-1,"best_pos":5,"similarity":0.471,"stretto":false,"stretto_voices":0,"combination":[],"aug_dim":"","rhythm_ratio":1.0,"mirror":false,"chromatic_density":0.417,"complexity":0.571,"dissonance":0.118},{"voice":1,"pitch":66,"start":65.2174,"duration":0.2609,"velocity":127,"measure":32,"beat":2.0,"subject_pos":-1,"motif":"head_inv","motif_pos":2,"best_pos":2,"similarity":1.0,"stretto":false,"stretto_voices":0,"combination":[],"aug_dim":"","rhythm_ratio":1.0,"mirror":false,"chromatic_density":0.417,"complexity":0.571,"dissonance":0.118},{"voice":3,"pitch":50,"start":65.2174,"duration":0.2609,"velocity":127,"measure":32,"beat":2.0,"subject_pos":-1,"motif":"","motif_pos":-1,"best_pos":5,"similarity":0.593,"stretto":false,"stretto_voices":0,"combination":[],"aug_dim":"","rhythm_ratio":1.0,"mirror":false,"chromatic_density":0.417,"complexity":0.571,"dissonance":0.118},{"voice":1,"pitch":68,"start":65.4782,"duration":0.2609,"velocity":127,"measure":32,"beat":2.5,"subject_pos":-1,"motif":"head_inv","motif_pos":3,"best_pos":3,"similarity":1.0,"stretto":false,"stretto_voices":0,"combination":[],"aug_dim":"","rhythm_ratio":1.0,"mirror":false,"chromatic_density":0.417,"complexity":0.571,"dissonance":0.118},{"voice":3,"pitch":52,"start":65.4782,"duration":0.2609,"velocity":127,"measure":32,"beat":2.5,"subject_pos":-1,"motif":"tail_inv","motif_pos":0,"best_pos":0,"similarity":1.0,"stretto":false,"stretto_voices":0,"combination":[],"aug_dim":"","rhythm_ratio":1.0,"mirror":false,"chromatic_density":0.417,"complexity":0.571,"dissonance":0.118},{"voice":1,"pitch":69,"start":65.7391,"duration":1.3043,"velocity":127,"measure":32,"beat":3.0,"subject_pos":-1,"motif":"tail_inv","motif_pos":0,"best_pos":0,"similarity":1.0,"stretto":false,"stretto_voices":0,"combination":[],"aug_dim":"","rhythm_ratio":1.0,"mirror":false,"chromatic_density":0.417,"complexity":0.571,"dissonance":0.118},{"voice":3,"pitch":53,"start":65.7391,"duration":0.5217,"velocity":127,"measure":32,"beat":3.0,"subject_pos":-1,"motif":"tail_inv","motif_pos":1,"best_pos":1,"similarity":1.0,"stretto":false,"stretto_voices":0,"combination":[],"aug_dim":"","rhythm_ratio":1.0,"mirror":false,"chromatic_density":0.417,"complexity":0.571,"dissonance":0.118},{"voice":2,"pitch":59,"start":66.0,"duration":0.2609,"velocity":127,"measure":32,"beat":3.5,"subject_pos":-1,"motif":"","motif_pos":-1,"best_pos":4,"similarity":0.679,"stretto":false,"stretto_voices":0,"combination":[],"aug_dim":"","rhythm_ratio":1.0,"mirror":false,"chromatic_density":0.417,"complexity":0.571,"dissonance":0.118},{"voice":2,"pitch":61,"start":66.2609,"duration":0.2609,"velocity":127,"measure":32,"beat":4.0,"subject_pos":-1,"motif":"","motif_pos":-1,"best_pos":6,"similarity":0.643,"stretto":false,"stretto_voices":0,"combination":[],"aug_dim":"","rhythm_ratio":1.0,"mirror":false,"chromatic_density":0.417,"complexity":0.571,"dissonance":0.118},{"voice":3,"pitch":52,"start":66.2609,"duration":0.2609,"velocity":127,"measure":32,"beat":4.0,"subject_pos":-1,"motif":"tail_inv","motif_pos":2,"best_pos":2,"similarity":1.0,"stretto":false,"stretto_voices":0,"combination":[],"aug_dim":"","rhythm_ratio":1.0,"mirror":false,"chromatic_density":0.417,"complexity":0.571,"dissonance":0.118},{"voice":2,"pitch":62,"start":66.5217,"duration":0.2609,"velocity":127,"measure":32,"beat":4.5,"subject_pos":-1,"motif":"","motif_pos":-1,"best_pos":5,"similarity":0.604,"stretto":false,"stretto_voices":0,"combination":[],"aug_dim":"","rhythm_ratio":1.0,"mirror":false,"chromatic_density":0.417,"complexity":0.571,"dissonance":0.118},{"voice":3,"pitch":50,"start":66.5217,"duration":0.2609,"velocity":127,"measure":32,"beat":4.5,"subject_pos":-1,"motif":"tail_inv","motif_pos":3,"best_pos":3,"similarity":1.0,"stretto":false,"stretto_voices":0,"combination":[],"aug_dim":"","rhythm_ratio":1.0,"mirror":false,"chromatic_density":0.417,"complexity":0.571,"dissonance":0.118},{"voice":2,"pitch":64,"start":66.7826,"duration":1.3043,"velocity":127,"measure":33,"beat":1.0,"subject_pos":-1,"motif":"head_inv","motif_pos":0,"best_pos":0,"similarity":1.0,"stretto":false,"stretto_voices":0,"combination":[],"aug_dim":"","rhythm_ratio":1.0,"mirror":false,"chromatic_density":0.357,"complexity":0.612,"dissonance":0.264},{"voice":3,"pitch":49,"start":66.7826,"duration":0.2609,"velocity":127,"measure":33,"beat":1.0,"subject_pos":-1,"motif":"tail_inv","motif_pos":4,"best_pos":4,"similarity":1.0,"stretto":false,"stretto_voices":0,"combination":[],"aug_dim":"","rhythm_ratio":1.0,"mirror":false,"chromatic_density":0.357,"complexity":0.612,"dissonance":0.264},{"voice":1,"pitch":70,"start":67.0435,"duration":0.2609,"velocity":127,"measure":33,"beat":1.5,"subject_pos":-1,"motif":"tail_inv","motif_pos":1,"best_pos":1,"similarity":1.0,"stretto":false,"stretto_voices":0,"combination":[],"aug_dim":"","rhythm_ratio":1.0,"mirror":false,"chromatic_density":0.357,"complexity":0.612,"dissonance":0.264},{"voice":3,"pitch":45,"start":67.0435,"duration":0.2609,"velocity":127,"measure":33,"beat":1.5,"subject_pos":-1,"motif":"","motif_pos":-1,"best_pos":5,"similarity":0.536,"stretto":false,"stretto_voices":0,"combination":[],"aug_dim":"","rhythm_ratio":1.0,"mirror":false,"chromatic_density":0.357,"complexity":0.612,"dissonance":0.264},{"voice":1,"pitch":69,"start":67.3043,"duration":0.2609,"velocity":127,"measure":33,"beat":2.0,"subject_pos":-1,"motif":"tail_inv","motif_pos":2,"best_pos":2,"similarity":1.0,"stretto":false,"stretto_voices":0,"combination":[],"aug_dim":"","rhythm_ratio":1.0,"mirror":false,"chromatic_density":0.357,"complexity":0.612,"dissonance":0.264},{"voice":3,"pitch":47,"start":67.3043,"duration":0.2609,"velocity":127,"measure":33,"beat":2.0,"subject_pos":-1,"motif":"","motif_pos":-1,"best_pos":5,"similarity":0.604,"stretto":false,"stretto_voices":0,"combination":[],"aug_dim":"","rhythm_ratio":1.0,"mirror":false,"chromatic_density":0.357,"complexity":0.612,"dissonance":0.264},{"voice":1,"pitch":67,"start":67.5652,"duration":0.2609,"velocity":127,"measure":33,"beat":2.5,"subject_pos":-1,"motif":"tail_inv","motif_pos":3,"best_pos":3,"similarity":1.0,"stretto":false,"stretto_voices":0,"combination":[],"aug_dim":"","rhythm_ratio":1.0,"mirror":false,"chromatic_density":0.357,"complexity":0.612,"dissonance":0.264},{"voice":3,"pitch":49,"start":67.5652,"duration":0.2609,"velocity":127,"measure":33,"beat":2.5,"subject_pos":-1,"motif":"","motif_pos":-1,"best_pos":6,"similarity":0.65,"stretto":false,"stretto_voices":0,"combination":[],"aug_dim":"","rhythm_ratio":1.0,"mirror":false,"chromatic_density":0.357,"complexity":0.612,"dissonance":0.264},{"voice":1,"pitch":66,"start":67.8261,"duration":0.5217,"velocity":127,"measure":33,"beat":3.0,"subject_pos":-1,"motif":"tail_inv","motif_pos":4,"best_pos":4,"similarity":1.0,"stretto":false,"stretto_voices":0,"combination":[],"aug_dim":"","rhythm_ratio":1.0,"mirror":false,"chromatic_density":0.357,"complexity":0.612,"dissonance":0.264},{"voice":3,"pitch":50,"start":67.8261,"duration":0.2609,"velocity":127,"measure":33,"beat":3.0,"subject_pos":-1,"motif":"","motif_pos":-1,"best_pos":5,"similarity":0.6,"stretto":false,"stretto_voices":0,"combination":[],"aug_dim":"","rhythm_ratio":1.0,"mirror":false,"chromatic_density":0.357,"complexity":0.612,"dissonance":0.264},{"voice":2,"pitch":57,"start":68.0869,"duration":0.2609,"velocity":127,"measure":33,"beat":3.5,"subject_pos":-1,"motif":"head_inv","motif_pos":1,"best_pos":1,"similarity":1.0,"stretto":false,"stretto_voices":0,"combination":[],"aug_dim":"","rhythm_ratio":1.0,"mirror":false,"chromatic_density":0.357,"complexity":0.612,"dissonance":0.264},{"voice":3,"pitch":52,"start":68.0869,"duration":0.2609,"velocity":127,"measure":33,"beat":3.5,"subject_pos":-1,"motif":"","motif_pos":-1,"best_pos":6,"similarity":0.464,"stretto":false,"stretto_voices":0,"combination":[],"aug_dim":"","rhythm_ratio":1.0,"mirror":false,"chromatic_density":0.357,"complexity":0.612,"dissonance":0.264},{"voice":1,"pitch":65,"start":68.3478,"duration":0.7826,"velocity":127,"measure":33,"beat":4.0,"subject_pos":-1,"motif":"","motif_pos":-1,"best_pos":4,"similarity":0.443,"stretto":false,"stretto_voices":0,"combination":[],"aug_dim":"","rhythm_ratio":1.0,"mirror":false,"chromatic_density":0.357,"complexity":0.612,"dissonance":0.264},{"voice":2,"pitch":59,"start":68.3478,"duration":0.2609,"velocity":127,"measure":33,"beat":4.0,"subject_pos":-1,"motif":"head_inv","motif_pos":2,"best_pos":2,"similarity":1.0,"stretto":false,"stretto_voices":0,"combination":[],"aug_dim":"","rhythm_ratio":1.0,"mirror":false,"chromatic_density":0.357,"complexity":0.612,"dissonance":0.264},{"voice":3,"pitch":50,"start":68.3478,"duration":0.2609,"velocity":127,"measure":33,"beat":4.0,"subject_pos":-1,"motif":"","motif_pos":-1,"best_pos":2,"similarity":0.586,"stretto":false,"stretto_voices":0,"combination":[],"aug_dim":"","rhythm_ratio":1.0,"mirror":false,"chromatic_density":0.357,"complexity":0.612,"dissonance":0.264},{"voice":2,"pitch":60,"start":68.6087,"duration":0.2609,"velocity":127,"measure":33,"beat":4.5,"subject_pos":-1,"motif":"head_inv","motif_pos":3,"best_pos":3,"similarity":1.0,"stretto":false,"stretto_voices":0,"combination":[],"aug_dim":"","rhythm_ratio":1.0,"mirror":false,"chromatic_density":0.357,"complexity":0.612,"dissonance":0.264},{"voice":3,"pitch":48,"start":68.6087,"duration":0.2609,"velocity":127,"measure":33,"beat":4.5,"subject_pos":-1,"motif":"","motif_pos":-1,"best_pos":3,"similarity":0.65,"stretto":false,"stretto_voices":0,"combination":[],"aug_dim":"","rhythm_ratio":1.0,"mirror":false,"chromatic_density":0.357,"complexity":0.612,"dissonance":0.264},{"voice":2,"pitch":62,"start":68.8695,"duration":1.3043,"velocity":127,"measure":34,"beat":1.0,"subject_pos":-1,"motif":"head_inv","motif_pos":4,"best_pos":4,"similarity":1.0,"stretto":false,"stretto_voices":0,"combination":[],"aug_dim":"","rhythm_ratio":1.0,"mirror":false,"chromatic_density":0.286,"complexity":0.494,"dissonance":0.209},{"voice":3,"pitch":47,"start":68.8695,"duration":0.2609,"velocity":127,"measure":34,"beat":1.0,"subject_pos":-1,"motif":"","motif_pos":-1,"best_pos":4,"similarity":0.607,"stretto":false,"stretto_voices":0,"combination":[],"aug_dim":"","rhythm_ratio":1.0,"mirror":false,"chromatic_density":0.286,"complexity":0.494,"dissonance":0.209},{"voice":1,"pitch":69,"start":69.1304,"duration":0.2609,"velocity":127,"measure":34,"beat":1.5,"subject_pos":-1,"motif":"","motif_pos":-1,"best_pos":1,"similarity":0.571,"stretto":false,"stretto_voices":0,"combination":[],"aug_dim":"","rhythm_ratio":1.0,"mirror":false,"chromatic_density":0.286,"complexity":0.494,"dissonance":0.209},{"voice":3,"pitch":43,"start":69.1304,"duration":0.2609,"velocity":127,"measure":34,"beat":1.5,"subject_pos":-1,"motif":"","motif_pos":-1,"best_pos":5,"similarity":0.536,"stretto":false,"stretto_voices":0,"combination":[],"aug_dim":"","rhythm_ratio":1.0,"mirror":false,"chromatic_density":0.286,"complexity":0.494,"dissonance":0.209},{"voice":1,"pitch":67,"start":69.3913,"duration":0.2609,"velocity":127,"measure":34,"beat":2.0,"subject_pos":-1,"motif":"","motif_pos":-1,"best_pos":2,"similarity":0.661,"stretto":false,"stretto_voices":0,"combination":[],"aug_dim":"","rhythm_ratio":1.0,"mirror":false,"chromatic_density":0.286,"complexity":0.494,"dissonance":0.209},{"voice":3,"pitch":45,"start":69.3913,"duration":0.2609,"velocity":127,"measure":34,"beat":2.0,"subject_pos":-1,"motif":"","motif_pos":-1,"best_pos":5,"similarity":0.604,"stretto":false,"stretto_voices":0,"combination":[],"aug_dim":"","rhythm_ratio":1.0,"mirror":false,"chromatic_density":0.286,"complexity":0.494,"dissonance":0.209},{"voice":1,"pitch":65,"start":69.6522,"duration":0.2609,"velocity":127,"measure":34,"beat":2.5,"subject_pos":-1,"motif":"","motif_pos":-1,"best_pos":3,"similarity":0.661,"stretto":false,"stretto_voices":0,"combination":[],"aug_dim":"","rhythm_ratio":1.0,"mirror":false,"chromatic_density":0.286,"complexity":0.494,"dissonance":0.209},{"voice":3,"pitch":47,"start":69.6522,"duration":0.2609,"velocity":127,"measure":34,"beat":2.5,"subject_pos":-1,"motif":"","motif_pos":-1,"best_pos":6,"similarity":0.65,"stretto":false,"stretto_voices":0,"combination":[],"aug_dim":"","rhythm_ratio":1.0,"mirror":false,"chromatic_density":0.286,"complexity":0.494,"dissonance":0.209},{"voice":1,"pitch":64,"start":69.913,"duration":0.5217,"velocity":127,"measure":34,"beat":3.0,"subject_pos":-1,"motif":"","motif_pos":-1,"best_pos":4,"similarity":0.543,"stretto":false,"stretto_voices":0,"combination":[],"aug_dim":"","rhythm_ratio":1.0,"mirror":false,"chromatic_density":0.286,"complexity":0.494,"dissonance":0.209},{"voice":3,"pitch":48,"start":69.913,"duration":0.2609,"velocity":127,"measure":34,"beat":3.0,"subject_pos":-1,"motif":"","motif_pos":-1,"best_pos":5,"similarity":0.6,"stretto":false,"stretto_voices":0,"combination":[],"aug_dim":"","rhythm_ratio":1.0,"mirror":false,"chromatic_density":0.286,"complexity":0.494,"dissonance":0.209},{"voice":2,"pitch":55,"start":70.1739,"duration":0.2609,"velocity":127,"measure":34,"beat":3.5,"subject_pos":-1,"motif":"","motif_pos":-1,"best_pos":5,"similarity":0.45,"stretto":false,"stretto_voices":0,"combination":[],"aug_dim":"","rhythm_ratio":1.0,"mirror":false,"chromatic_density":0.286,"complexity":0.494,"dissonance":0.209},{"voice":3,"pitch":50,"start":70.1739,"duration":0.2609,"velocity":127,"measure":34,"beat":3.5,"subject_pos":-1,"motif":"","motif_pos":-1,"best_pos":6,"similarity":0.464,"stretto":false,"stretto_voices":0,"combination":[],"aug_dim":"","rhythm_ratio":1.0,"mirror":false,"chromatic_density":0.286,"complexity":0.494,"dissonance":0.209},{"voice":1,"pitch":63,"start":70.4348,"duration":0.7826,"velocity":127,"measure":34,"beat":4.0,"subject_pos":-1,"motif":"","motif_pos":-1,"best_pos":4,"similarity":0.443,"stretto":false,"stretto_voices":0,"combination":[],"aug_dim":"","rhythm_ratio":1.0,"mirror":false,"chromatic_density":0.286,"complexity":0.494,"dissonance":0.209},{"voice":2,"pitch":57,"start":70.4348,"duration":0.2609,"velocity":127,"measure":34,"beat":4.0,"subject_pos":-1,"motif":"","motif_pos":-1,"best_pos":6,"similarity":0.579,"stretto":false,"stretto_voices":0,"combination":[],"aug_dim":"","rhythm_ratio":1.0,"mirror":false,"chromatic_density":0.286,"complexity":0.494,"dissonance":0.209},{"voice":3,"pitch":48,"start":70.4348,"duration":0.2609,"velocity":127,"measure":34,"beat":4.0,"subject_pos":-1,"motif":"","motif_pos":-1,"best_pos":2,"similarity":0.593,"stretto":false,"stretto_voices":0,"combination":[],"aug_dim":"","rhythm_ratio":1.0,"mirror":false,"chromatic_density":0.286,"complexity":0.494,"dissonance":0.209},{"voice":2,"pitch":58,"start":70.6956,"duration":0.2609,"velocity":127,"measure":34,"beat":4.5,"subject_pos":-1,"motif":"","motif_pos":-1,"best_pos":5,"similarity":0.607,"stretto":false,"stretto_voices":0,"combination":[],"aug_dim":"","rhythm_ratio":1.0,"mirror":false,"chromatic_density":0.286,"complexity":0.494,"dissonance":0.209},{"voice":3,"pitch":46,"start":70.6956,"duration":0.2609,"velocity":127,"measure":34,"beat":4.5,"subject_pos":-1,"motif":"","motif_pos":-1,"best_pos":3,"similarity":0.664,"stretto":false,"stretto_voices":0,"combination":[],"aug_dim":"","rhythm_ratio":1.0,"mirror":false,"chromatic_density":0.286,"complexity":0.494,"dissonance":0.209},{"voice":2,"pitch":60,"start":70.9565,"duration":0.2609,"velocity":127,"measure":35,"beat":1.0,"subject_pos":-1,"motif":"","motif_pos":-1,"best_pos":6,"similarity":0.464,"stretto":false,"stretto_voices":0,"combination":[],"aug_dim":"","rhythm_ratio":1.0,"mirror":false,"chromatic_density":0.214,"complexity":0.505,"dissonance":0.136},{"voice":3,"pitch":45,"start":70.9565,"duration":0.2609,"velocity":127,"measure":35,"beat":1.0,"subject_pos":-1,"motif":"","motif_pos":-1,"best_pos":4,"similarity":0.6,"stretto":false,"stretto_voices":0,"combination":[],"aug_dim":"","rhythm_ratio":1.0,"mirror":false,"chromatic_density":0.214,"complexity":0.505,"dissonance":0.136},{"voice":1,"pitch":67,"start":71.2174,"duration":0.2609,"velocity":127,"measure":35,"beat":1.5,"subject_pos":-1,"motif":"","motif_pos":-1,"best_pos":1,"similarity":0.571,"stretto":false,"stretto_voices":0,"combination":[],"aug_dim":"","rhythm_ratio":1.0,"mirror":false,"chromatic_density":0.214,"complexity":0.505,"dissonance":0.136},{"voice":2,"pitch":58,"start":71.2174,"duration":0.2609,"velocity":127,"measure":35,"beat":1.5,"subject_pos":-1,"motif":"","motif_pos":-1,"best_pos":2,"similarity":0.336,"stretto":false,"stretto_voices":0,"combination":[],"aug_dim":"","rhythm_ratio":1.0,"mirror":false,"chromatic_density":0.214,"complexity":0.505,"dissonance":0.136},{"voice":3,"pitch":43,"start":71.2174,"duration":0.2609,"velocity":127,"measure":35,"beat":1.5,"subject_pos":-1,"motif":"","motif_pos":-1,"best_pos":5,"similarity":0.493,"stretto":false,"stretto_voices":0,"combination":[],"aug_dim":"","rhythm_ratio":1.0,"mirror":false,"chromatic_density":0.214,"complexity":0.505,"dissonance":0.136},{"voice":1,"pitch":65,"start":71.4782,"duration":0.2609,"velocity":127,"measure":35,"beat":2.0,"subject_pos":-1,"motif":"","motif_pos":-1,"best_pos":2,"similarity":0.679,"stretto":false,"stretto_voices":0,"combination":[],"aug_dim":"","rhythm_ratio":1.0,"mirror":false,"chromatic_density":0.214,"complexity":0.505,"dissonance":0.136},{"voice":2,"pitch":60,"start":71.4782,"duration":1.0435,"velocity":127,"measure":35,"beat":2.0,"subject_pos":-1,"motif":"head_inv","motif_pos":0,"best_pos":0,"similarity":1.0,"stretto":false,"stretto_voices":0,"combination":[],"aug_dim":"","rhythm_ratio":1.0,"mirror":false,"chromatic_density":0.214,"complexity":0.505,"dissonance":0.136},{"voice":3,"pitch":45,"start":71.4782,"duration":0.2609,"velocity":127,"measure":35,"beat":2.0,"subject_pos":-1,"motif":"","motif_pos":-1,"best_pos":1,"similarity":0.386,"stretto":false,"stretto_voices":0,"combination":[],"aug_dim":"","rhythm_ratio":1.0,"mirror":false,"chromatic_density":0.214,"complexity":0.505,"dissonance":0.136},{"voice":1,"pitch":63,"start":71.7391,"duration":0.2609,"velocity":127,"measure":35,"beat":2.5,"subject_pos":-1,"motif":"","motif_pos":-1,"best_pos":3,"similarity":0.714,"stretto":false,"stretto_voices":0,"combination":[],"aug_dim":"","rhythm_ratio":1.0,"mirror":false,"chromatic_density":0.214,"complexity":0.505,"dissonance":0.136},{"voice":3,"pitch":41,"start":71.7391,"duration":0.2609,"velocity":127,"measure":35,"beat":2.5,"subject_pos":-1,"motif":"","motif_pos":-1,"best_pos":2,"similarity":0.514,"stretto":false,"stretto_voices":0,"combination":[],"aug_dim":"","rhythm_ratio":1.0,"mirror":false,"chromatic_density":0.214,"complexity":0.505,"dissonance":0.136},{"voice":1,"pitch":62,"start":72.0,"duration":0.7826,"velocity":127,"measure":35,"beat":3.0,"subject_pos":-1,"motif":"","motif_pos":-1,"best_pos":4,"similarity":0.661,"stretto":false,"stretto_voices":0,"combination":[],"aug_dim":"","rhythm_ratio":1.0,"mirror":false,"chromatic_density":0.214,"complexity":0.505,"dissonance":0.136},{"voice":3,"pitch":46,"start":72.0,"duration":0.2609,"velocity":127,"measure":35,"beat":3.0,"subject_pos":-1,"motif":"","motif_pos":-1,"best_pos":3,"similarity":0.65,"stretto":false,"stretto_voices":0,"combination":[],"aug_dim":"","rhythm_ratio":1.0,"mirror":false,"chromatic_density":0.214,"complexity":0.505,"dissonance":0.136},{"voice":3,"pitch":45,"start":72.2609,"duration":0.2609,"velocity":127,"measure":35,"beat":3.5,"subject_pos":-1,"motif":"","motif_pos":-1,"best_pos":4,"similarity":0.821,"stretto":false,"stretto_voices":0,"combination":[],"aug_dim":"","rhythm_ratio":1.0,"mirror":false,"chromatic_density":0.214,"complexity":0.505,"dissonance":0.136},{"voice":2,"pitch":53,"start":72.5217,"duration":0.7826,"velocity":127,"measure":35,"beat":4.0,"subject_pos":-1,"motif":"head_inv","motif_pos":1,"best_pos":1,"similarity":1.0,"stretto":false,"stretto_voices":0,"combination":[],"aug_dim":"","rhythm_ratio":1.0,"mirror":false,"chromatic_density":0.214,"complexity":0.505,"dissonance":0.136},{"voice":3,"pitch":46,"start":72.5217,"duration":0.2609,"velocity":127,"measure":35,"beat":4.0,"subject_pos":-1,"motif":"","motif_pos":-1,"best_pos":5,"similarity":0.786,"stretto":false,"stretto_voices":0,"combination":[],"aug_dim":"","rhythm_ratio":1.0,"mirror":false,"chromatic_density":0.214,"complexity":0.505,"dissonance":0.136},{"voice":1,"pitch":64,"start":72.7826,"duration":0.2609,"velocity":127,"measure":35,"beat":4.5,"subject_pos":-1,"motif":"","motif_pos":-1,"best_pos":6,"similarity":0.643,"stretto":false,"stretto_voices":0,"combination":[],"aug_dim":"","rhythm_ratio":1.0,"mirror":false,"chromatic_density":0.214,"complexity":0.505,"dissonance":0.136},{"voice":3,"pitch":48,"start":72.7826,"duration":0.2609,"velocity":127,"measure":35,"beat":4.5,"subject_pos":-1,"motif":"","motif_pos":-1,"best_pos":6,"similarity":0.643,"stretto":false,"stretto_voices":0,"combination":[],"aug_dim":"","rhythm_ratio":1.0,"mirror":false,"chromatic_density":0.214,"complexity":0.505,"dissonance":0.136},{"voice":1,"pitch":65,"start":73.0435,"duration":0.2609,"velocity":127,"measure":36,"beat":1.0,"subject_pos":-1,"motif":"","motif_pos":-1,"best_pos":3,"similarity":0.543,"stretto":false,"stretto_voices":0,"combination":[],"aug_dim":"","rhythm_ratio":1.0,"mirror":false,"chromatic_density":0.333,"complexity":0.462,"dissonance":0.159},{"voice":3,"pitch":50,"start":73.0435,"duration":0.7826,"velocity":127,"measure":36,"beat":1.0,"subject_pos":-1,"motif":"","motif_pos":-1,"best_pos":5,"similarity":0.593,"stretto":false,"stretto_voices":0,"combination":[],"aug_dim":"","rhythm_ratio":1.0,"mirror":false,"chromatic_density":0.333,"complexity":0.462,"dissonance":0.159},{"voice":1,"pitch":64,"start":73.3043,"duration":0.2609,"velocity":127,"measure":36,"beat":1.5,"subject_pos":-1,"motif":"","motif_pos":-1,"best_pos":4,"similarity":0.771,"stretto":false,"stretto_voices":0,"combination":[],"aug_dim":"","rhythm_ratio":1.0,"mirror":false,"chromatic_density":0.333,"complexity":0.462,"dissonance":0.159},{"voice":2,"pitch":55,"start":73.3043,"duration":0.2609,"velocity":127,"measure":36,"beat":1.5,"subject_pos":-1,"motif":"head_inv","motif_pos":2,"best_pos":2,"similarity":1.0,"stretto":false,"stretto_voices":0,"combination":[],"aug_dim":"","rhythm_ratio":1.0,"mirror":false,"chromatic_density":0.333,"complexity":0.462,"dissonance":0.159},{"voice":1,"pitch":65,"start":73.5652,"duration":0.2609,"velocity":127,"measure":36,"beat":2.0,"subject_pos":-1,"motif":"","motif_pos":-1,"best_pos":5,"similarity":0.793,"stretto":false,"stretto_voices":0,"combination":[],"aug_dim":"","rhythm_ratio":1.0,"mirror":false,"chromatic_density":0.333,"complexity":0.462,"dissonance":0.159},{"voice":2,"pitch":57,"start":73.5652,"duration":0.7826,"velocity":127,"measure":36,"beat":2.0,"subject_pos":-1,"motif":"head_inv","motif_pos":3,"best_pos":3,"similarity":1.0,"stretto":false,"stretto_voices":0,"combination":[],"aug_dim":"","rhythm_ratio":1.0,"mirror":false,"chromatic_density":0.333,"complexity":0.462,"dissonance":0.159},{"voice":1,"pitch":67,"start":73.8261,"duration":0.2609,"velocity":127,"measure":36,"beat":2.5,"subject_pos":-1,"motif":"","motif_pos":-1,"best_pos":6,"similarity":0.643,"stretto":false,"stretto_voices":0,"combination":[],"aug_dim":"","rhythm_ratio":1.0,"mirror":false,"chromatic_density":0.333,"complexity":0.462,"dissonance":0.159},{"voice":3,"pitch":52,"start":73.8261,"duration":0.2609,"velocity":127,"measure":36,"beat":2.5,"subject_pos":-1,"motif":"","motif_pos":-1,"best_pos":6,"similarity":0.65,"stretto":false,"stretto_voices":0,"combination":[],"aug_dim":"","rhythm_ratio":1.0,"mirror":false,"chromatic_density":0.333,"complexity":0.462,"dissonance":0.159},{"voice":1,"pitch":69,"start":74.0869,"duration":0.2609,"velocity":127,"measure":36,"beat":3.0,"subject_pos":-1,"motif":"","motif_pos":-1,"best_pos":6,"similarity":0.404,"stretto":false,"stretto_voices":0,"combination":[],"aug_dim":"","rhythm_ratio":1.0,"mirror":false,"chromatic_density":0.333,"complexity":0.462,"dissonance":0.159},{"voice":3,"pitch":53,"start":74.0869,"duration":0.7826,"velocity":127,"measure":36,"beat":3.0,"subject_pos":-1,"motif":"","motif_pos":-1,"best_pos":7,"similarity":0.464,"stretto":false,"stretto_voices":0,"combination":[],"aug_dim":"","rhythm_ratio":1.0,"mirror":false,"chromatic_density":0.333,"complexity":0.462,"dissonance":0.159},{"voice":1,"pitch":67,"start":74.3478,"duration":0.2609,"velocity":127,"measure":36,"beat":3.5,"subject_pos":-1,"motif":"","motif_pos":-1,"best_pos":2,"similarity":0.389,"stretto":false,"stretto_voices":0,"combination":[],"aug_dim":"","rhythm_ratio":1.0,"mirror":false,"chromatic_density":0.333,"complexity":0.462,"dissonance":0.159},{"voice":2,"pitch":58,"start":74.3478,"duration":0.2609,"velocity":127,"measure":36,"beat":3.5,"subject_pos":-1,"motif":"head_inv","motif_pos":4,"best_pos":4,"similarity":1.0,"stretto":false,"stretto_voices":0,"combination":[],"aug_dim":"","rhythm_ratio":1.0,"mirror":false,"chromatic_density":0.333,"complexity":0.462,"dissonance":0.159},{"voice":1,"pitch":69,"start":74.6087,"duration":0.7826,"velocity":127,"measure":36,"beat":4.0,"subject_pos":-1,"motif":"","motif_pos":-1,"best_pos":1,"similarity":0.386,"stretto":false,"stretto_voices":0,"combination":[],"aug_dim":"","rhythm_ratio":1.0,"mirror":false,"chromatic_density":0.333,"complexity":0.462,"dissonance":0.159},{"voice":2,"pitch":60,"start":74.6087,"duration":0.7826,"velocity":127,"measure":36,"beat":4.0,"subject_pos":-1,"motif":"","motif_pos":-1,"best_pos":6,"similarity":0.464,"stretto":false,"stretto_voices":0,"combination":[],"aug_dim":"","rhythm_ratio":1.0,"mirror":false,"chromatic_density":0.333,"complexity":0.462,"dissonance":0.159},{"voice":3,"pitch":50,"start":74.8695,"duration":0.2609,"velocity":127,"measure":36,"beat":4.5,"subject_pos":-1,"motif":"head","motif_pos":0,"best_pos":0,"similarity":1.0,"stretto":false,"stretto_voices":0,"combination":[],"aug_dim":"","rhythm_ratio":1.0,"mirror":false,"chromatic_density":0.333,"complexity":0.462,"dissonance":0.159},{"voice":3,"pitch":55,"start":75.1304,"duration":0.7826,"velocity":127,"measure":37,"beat":1.0,"subject_pos":-1,"motif":"head","motif_pos":1,"best_pos":1,"similarity":1.0,"stretto":false,"stretto_voices":0,"combination":[],"aug_dim":"","rhythm_ratio":1.0,"mirror":false,"chromatic_density":0.154,"complexity":0.526,"dissonance":0.071},{"voice":1,"pitch":67,"start":75.3913,"duration":0.2609,"velocity":127,"measure":37,"beat":1.5,"subject_pos":-1,"motif":"","motif_pos":-1,"best_pos":2,"similarity":0.45,"stretto":false,"stretto_voices":0,"combination":[],"aug_dim":"","rhythm_ratio":1.0,"mirror":false,"chromatic_density":0.154,"complexity":0.526,"dissonance":0.071},{"voice":2,"pitch":58,"start":75.3913,"duration":0.2609,"velocity":127,"measure":37,"beat":1.5,"subject_pos":-1,"motif":"","motif_pos":-1,"best_pos":2,"similarity":0.379,"stretto":false,"stretto_voices":0,"combination":[],"aug_dim":"","rhythm_ratio":1.0,"mirror":false,"chromatic_density":0.154,"complexity":0.526,"dissonance":0.071},{"voice":1,"pitch":70,"start":75.6522,"duration":0.2609,"velocity":127,"measure":37,"beat":2.0,"subject_pos":-1,"motif":"","motif_pos":-1,"best_pos":3,"similarity":0.457,"stretto":false,"stretto_voices":0,"combination":[],"aug_dim":"","rhythm_ratio":1.0,"mirror":false,"chromatic_density":0.154,"complexity":0.526,"dissonance":0.071},{"voice":2,"pitch":62,"start":75.6522,"duration":1.0435,"velocity":127,"measure":37,"beat":2.0,"subject_pos":-1,"motif":"","motif_pos":-1,"best_pos":1,"similarity":0.571,"stretto":false,"stretto_voices":0,"combination":[],"aug_dim":"","rhythm_ratio":1.0,"mirror":false,"chromatic_density":0.154,"complexity":0.526,"dissonance":0.071},{"voice":1,"pitch":69,"start":75.913,"duration":0.2609,"velocity":127,"measure":37,"beat":2.5,"subject_pos":-1,"motif":"","motif_pos":-1,"best_pos":4,"similarity":0.436,"stretto":false,"stretto_voices":0,"combination":[],"aug_dim":"","rhythm_ratio":1.0,"mirror":false,"chromatic_density":0.154,"complexity":0.526,"dissonance":0.071},{"voice":3,"pitch":53,"start":75.913,"duration":0.2609,"velocity":127,"measure":37,"beat":2.5,"subject_pos":-1,"motif":"head","motif_pos":2,"best_pos":2,"similarity":1.0,"stretto":false,"stretto_voices":0,"combination":[],"aug_dim":"","rhythm_ratio":1.0,"mirror":false,"chromatic_density":0.154,"complexity":0.526,"dissonance":0.071},{"voice":1,"pitch":67,"start":76.1739,"duration":0.2609,"velocity":127,"measure":37,"beat":3.0,"subject_pos":-1,"motif":"","motif_pos":-1,"best_pos":3,"similarity":0.446,"stretto":false,"stretto_voices":0,"combination":[],"aug_dim":"","rhythm_ratio":1.0,"mirror":false,"chromatic_density":0.154,"complexity":0.526,"dissonance":0.071},{"voice":3,"pitch":52,"start":76.1739,"duration":0.2609,"velocity":127,"measure":37,"beat":3.0,"subject_pos":-1,"motif":"head","motif_pos":3,"best_pos":3,"similarity":1.0,"stretto":false,"stretto_voices":0,"combination":[],"aug_dim":"","rhythm_ratio":1.0,"mirror":false,"chromatic_density":0.154,"complexity":0.526,"dissonance":0.071},{"voice":1,"pitch":65,"start":76.4348,"duration":0.2609,"velocity":127,"measure":37,"beat":3.5,"subject_pos":-1,"motif":"","motif_pos":-1,"best_pos":4,"similarity":0.429,"stretto":false,"stretto_voices":0,"combination":[],"aug_dim":"","rhythm_ratio":1.0,"mirror":false,"chromatic_density":0.154,"complexity":0.526,"dissonance":0.071},{"voice":3,"pitch":50,"start":76.4348,"duration":0.2609,"velocity":127,"measure":37,"beat":3.5,"subject_pos":-1,"motif":"head","motif_pos":4,"best_pos":4,"similarity":1.0,"stretto":false,"stretto_voices":0,"combination":[],"aug_dim":"","rhythm_ratio":1.0,"mirror":false,"chromatic_density":0.154,"complexity":0.526,"dissonance":0.071},{"voice":1,"pitch":67,"start":76.6956,"duration":0.7826,"velocity":127,"measure":37,"beat":4.0,"subject_pos":-1,"motif":"head_inv","motif_pos":0,"best_pos":0,"similarity":1.0,"stretto":false,"stretto_voices":0,"combination":[],"aug_dim":"","rhythm_ratio":1.0,"mirror":false,"chromatic_density":0.154,"complexity":0.526,"dissonance":0.071},{"voice":2,"pitch":60,"start":76.6956,"duration":0.2609,"velocity":127,"measure":37,"beat":4.0,"subject_pos":-1,"motif":"","motif_pos":-1,"best_pos":2,"similarity":0.65,"stretto":false,"stretto_voices":0,"combination":[],"aug_dim":"","rhythm_ratio":1.0,"mirror":false,"chromatic_density":0.154,"complexity":0.526,"dissonance":0.071},{"voice":3,"pitch":52,"start":76.6956,"duration":0.2609,"velocity":127,"measure":37,"beat":4.0,"subject_pos":-1,"motif":"","motif_pos":-1,"best_pos":1,"similarity":0.386,"stretto":false,"stretto_voices":0,"combination":[],"aug_dim":"","rhythm_ratio":1.0,"mirror":false,"chromatic_density":0.154,"complexity":0.526,"dissonance":0.071},{"voice":2,"pitch":58,"start":76.9565,"duration":0.2609,"velocity":127,"measure":37,"beat":4.5,"subject_pos":-1,"motif":"","motif_pos":-1,"best_pos":3,"similarity":0.693,"stretto":false,"stretto_voices":0,"combination":[],"aug_dim":"","rhythm_ratio":1.0,"mirror":false,"chromatic_density":0.154,"complexity":0.526,"dissonance":0.071},{"voice":3,"pitch":48,"start":76.9565,"duration":0.2609,"velocity":127,"measure":37,"beat":4.5,"subject_pos":-1,"motif":"","motif_pos":-1,"best_pos":2,"similarity":0.45,"stretto":false,"stretto_voices":0,"combination":[],"aug_dim":"","rhythm_ratio":1.0,"mirror":false,"chromatic_density":0.154,"complexity":0.526,"dissonance":0.071},{"voice":2,"pitch":57,"start":77.2174,"duration":1.3043,"velocity":127,"measure":38,"beat":1.0,"subject_pos":-1,"motif":"","motif_pos":-1,"best_pos":4,"similarity":0.636,"stretto":false,"stretto_voices":0,"combination":[],"aug_dim":"","rhythm_ratio":1.0,"mirror":false,"chromatic_density":0.4,"complexity":0.533,"dissonance":0.023},{"voice":3,"pitch":53,"start":77.2174,"duration":0.5217,"velocity":127,"measure":38,"beat":1.0,"subject_pos":-1,"motif":"","motif_pos":-1,"best_pos":1,"similarity":0.536,"stretto":false,"stretto_voices":0,"combination":[],"aug_dim":"","rhythm_ratio":1.0,"mirror":false,"chromatic_density":0.4,"complexity":0.533,"dissonance":0.023},{"voice":1,"pitch":60,"start":77.4782,"duration":0.2609,"velocity":127,"measure":38,"beat":1.5,"subject_pos":-1,"motif":"head_inv","motif_pos":1,"best_pos":1,"similarity":1.0,"stretto":false,"stretto_voices":0,"combination":[],"aug_dim":"","rhythm_ratio":1.0,"mirror":false,"chromatic_density":0.4,"complexity":0.533,"dissonance":0.023},{"voice":1,"pitch":62,"start":77.7391,"duration":0.2609,"velocity":127,"measure":38,"beat":2.0,"subject_pos":-1,"motif":"head_inv","motif_pos":2,"best_pos":2,"similarity":1.0,"stretto":false,"stretto_voices":0,"combination":[],"aug_dim":"","rhythm_ratio":1.0,"mirror":false,"chromatic_density":0.4,"complexity":0.533,"dissonance":0.023},{"voice":3,"pitch":52,"start":77.7391,"duration":0.5217,"velocity":127,"measure":38,"beat":2.0,"subject_pos":-1,"motif":"","motif_pos":-1,"best_pos":2,"similarity":0.536,"stretto":false,"stretto_voices":0,"combination":[],"aug_dim":"","rhythm_ratio":1.0,"mirror":false,"chromatic_density":0.4,"complexity":0.533,"dissonance":0.023},{"voice":1,"pitch":64,"start":78.0,"duration":0.2609,"velocity":127,"measure":38,"beat":2.5,"subject_pos":-1,"motif":"head_inv","motif_pos":3,"best_pos":3,"similarity":1.0,"stretto":false,"stretto_voices":0,"combination":[],"aug_dim":"","rhythm_ratio":1.0,"mirror":false,"chromatic_density":0.4,"complexity":0.533,"dissonance":0.023},{"voice":1,"pitch":65,"start":78.2609,"duration":0.2609,"velocity":127,"measure":38,"beat":3.0,"subject_pos":-1,"motif":"head_inv","motif_pos":4,"best_pos":4,"similarity":1.0,"stretto":false,"stretto_voices":0,"combination":[],"aug_dim":"","rhythm_ratio":1.0,"mirror":false,"chromatic_density":0.4,"complexity":0.533,"dissonance":0.023},{"voice":3,"pitch":50,"start":78.2609,"duration":1.0435,"velocity":127,"measure":38,"beat":3.0,"subject_pos":-1,"motif":"","motif_pos":-1,"best_pos":2,"similarity":0.571,"stretto":false,"stretto_voices":0,"combination":[],"aug_dim":"","rhythm_ratio":1.0,"mirror":false,"chromatic_density":0.4,"complexity":0.533,"dissonance":0.023},{"voice":1,"pitch":64,"start":78.5217,"duration":0.2609,"velocity":127,"measure":38,"beat":3.5,"subject_pos":-1,"motif":"","motif_pos":-1,"best_pos":4,"similarity":0.614,"stretto":false,"stretto_voices":0,"combination":[],"aug_dim":"","rhythm_ratio":1.0,"mirror":false,"chromatic_density":0.4,"complexity":0.533,"dissonance":0.023},{"voice":2,"pitch":55,"start":78.5217,"duration":0.2609,"velocity":127,"measure":38,"beat":3.5,"subject_pos":-1,"motif":"","motif_pos":-1,"best_pos":4,"similarity":0.607,"stretto":false,"stretto_voices":0,"combination":[],"aug_dim":"","rhythm_ratio":1.0,"mirror":false,"chromatic_density":0.4,"complexity":0.533,"dissonance":0.023},{"voice":1,"pitch":65,"start":78.7826,"duration":0.7826,"velocity":127,"measure":38,"beat":4.0,"subject_pos":-1,"motif":"","motif_pos":-1,"best_pos":3,"similarity":0.479,"stretto":false,"stretto_voices":0,"combination":[],"aug_dim":"","rhythm_ratio":1.0,"mirror":false,"chromatic_density":0.4,"complexity":0.533,"dissonance":0.023},{"voice":2,"pitch":57,"start":78.7826,"duration":0.2609,"velocity":127,"measure":38,"beat":4.0,"subject_pos":-1,"motif":"","motif_pos":-1,"best_pos":5,"similarity":0.661,"stretto":false,"stretto_voices":0,"combination":[],"aug_dim":"","rhythm_ratio":1.0,"mirror":false,"chromatic_density":0.4,"complexity":0.533,"dissonance":0.023},{"voice":2,"pitch":59,"start":79.0435,"duration":0.2609,"velocity":127,"measure":38,"beat":4.5,"subject_pos":-1,"motif":"enigmatic_cell","motif_pos":0,"best_pos":0,"similarity":1.0,"stretto":false,"stretto_voices":0,"combination":[],"aug_dim":"","rhythm_ratio":1.0,"mirror":false,"chromatic_density":0.4,"complexity":0.533,"dissonance":0.023},{"voice":2,"pitch":60,"start":79.3043,"duration":0.2609,"velocity":127,"measure":39,"beat":1.0,"subject_pos":-1,"motif":"enigmatic_cell","motif_pos":1,"best_pos":1,"similarity":1.0,"stretto":false,"stretto_voices":0,"combination":[],"aug_dim":"","rhythm_ratio":1.0,"mirror":false,"chromatic_density":0.417,"complexity":0.529,"dissonance":0.143},{"voice":3,"pitch":48,"start":79.3043,"duration":0.5217,"velocity":127,"measure":39,"beat":1.0,"subject_pos":-1,"motif":"","motif_pos":-1,"best_pos":3,"similarity":0.579,"stretto":false,"stretto_voices":0,"combination":[],"aug_dim":"","rhythm_ratio":1.0,"mirror":false,"chromatic_density":0.417,"complexity":0.529,"dissonance":0.143},{"voice":1,"pitch":64,"start":79.5652,"duration":0.1304,"velocity":127,"measure":39,"beat":1.5,"subject_pos":-1,"motif":"","motif_pos":-1,"best_pos":4,"similarity":0.579,"stretto":false,"stretto_voices":0,"combination":[],"aug_dim":"","rhythm_ratio":1.0,"mirror":false,"chromatic_density":0.417,"complexity":0.529,"dissonance":0.143},{"voice":2,"pitch":55,"start":79.5652,"duration":0.2609,"velocity":127,"measure":39,"beat":1.5,"subject_pos":-1,"motif":"enigmatic_cell","motif_pos":2,"best_pos":2,"similarity":1.0,"stretto":false,"stretto_voices":0,"combination":[],"aug_dim":"","rhythm_ratio":1.0,"mirror":false,"chromatic_density":0.417,"complexity":0.529,"dissonance":0.143},{"voice":1,"pitch":62,"start":79.6956,"duration":0.1304,"velocity":127,"measure":39,"beat":1.75,"subject_pos":-1,"motif":"","motif_pos":-1,"best_pos":5,"similarity":0.607,"stretto":false,"stretto_voices":0,"combination":[],"aug_dim":"","rhythm_ratio":1.0,"mirror":false,"chromatic_density":0.417,"complexity":0.529,"dissonance":0.143},{"voice":1,"pitch":64,"start":79.8261,"duration":0.5217,"velocity":127,"measure":39,"beat":2.0,"subject_pos":-1,"motif":"","motif_pos":-1,"best_pos":6,"similarity":0.657,"stretto":false,"stretto_voices":0,"combination":[],"aug_dim":"","rhythm_ratio":1.0,"mirror":false,"chromatic_density":0.417,"complexity":0.529,"dissonance":0.143},{"voice":2,"pitch":60,"start":79.8261,"duration":1.0435,"velocity":127,"measure":39,"beat":2.0,"subject_pos":-1,"motif":"","motif_pos":-1,"best_pos":1,"similarity":0.536,"stretto":false,"stretto_voices":0,"combination":[],"aug_dim":"","rhythm_ratio":1.0,"mirror":false,"chromatic_density":0.417,"complexity":0.529,"dissonance":0.143},{"voice":3,"pitch":48,"start":80.0869,"duration":0.2609,"velocity":127,"measure":39,"beat":2.5,"subject_pos":-1,"motif":"","motif_pos":-1,"best_pos":4,"similarity":0.621,"stretto":false,"stretto_voices":0,"combination":[],"aug_dim":"","rhythm_ratio":1.0,"mirror":false,"chromatic_density":0.417,"complexity":0.529,"dissonance":0.143},{"voice":1,"pitch":65,"start":80.3478,"duration":0.7826,"velocity":127,"measure":39,"beat":3.0,"subject_pos":-1,"motif":"","motif_pos":-1,"best_pos":5,"similarity":0.621,"stretto":false,"stretto_voices":0,"combination":[],"aug_dim":"","rhythm_ratio":1.0,"mirror":false,"chromatic_density":0.417,"complexity":0.529,"dissonance":0.143},{"voice":3,"pitch":49,"start":80.3478,"duration":0.2609,"velocity":127,"measure":39,"beat":3.0,"subject_pos":-1,"motif":"","motif_pos":-1,"best_pos":3,"similarity":0.493,"stretto":false,"stretto_voices":0,"combination":[],"aug_dim":"","rhythm_ratio":1.0,"mirror":false,"chromatic_density":0.417,"complexity":0.529,"dissonance":0.143},{"voice":3,"pitch":48,"start":80.6087,"duration":0.2609,"velocity":127,"measure":39,"beat":3.5,"subject_pos":-1,"motif":"","motif_pos":-1,"best_pos":4,"similarity":0.675,"stretto":false,"stretto_voices":0,"combination":[],"aug_dim":"","rhythm_ratio":1.0,"mirror":false,"chromatic_density":0.417,"complexity":0.529,"dissonance":0.143},{"voice":2,"pitch":59,"start":80.8695,"duration":0.2609,"velocity":127,"measure":39,"beat":4.0,"subject_pos":-1,"motif":"","motif_pos":-1,"best_pos":2,"similarity":0.5,"stretto":false,"stretto_voices":0,"combination":[],"aug_dim":"","rhythm_ratio":1.0,"mirror":false,"chromatic_density":0.417,"complexity":0.529,"dissonance":0.143},{"voice":3,"pitch":50,"start":80.8695,"duration":0.2609,"velocity":127,"measure":39,"beat":4.0,"subject_pos":-1,"motif":"","motif_pos":-1,"best_pos":5,"similarity":0.721,"stretto":false,"stretto_voices":0,"combination":[],"aug_dim":"","rhythm_ratio":1.0,"mirror":false,"chromatic_density":0.417,"complexity":0.529,"dissonance":0.143},{"voice":1,"pitch":67,"start":81.1304,"duration":0.2609,"velocity":127,"measure":39,"beat":4.5,"subject_pos":-1,"motif":"","motif_pos":-1,"best_pos":6,"similarity":0.436,"stretto":false,"stretto_voices":0,"combination":[],"aug_dim":"","rhythm_ratio":1.0,"mirror":false,"chromatic_density":0.417,"complexity":0.529,"dissonance":0.143},{"voice":2,"pitch":58,"start":81.1304,"duration":0.5217,"velocity":127,"measure":39,"beat":4.5,"subject_pos":-1,"motif":"","motif_pos":-1,"best_pos":3,"similarity":0.5,"stretto":false,"stretto_voices":0,"combination":[],"aug_dim":"","rhythm_ratio":1.0,"mirror":false,"chromatic_density":0.417,"complexity":0.529,"dissonance":0.143},{"voice":3,"pitch":52,"start":81.1304,"duration":0.2609,"velocity":127,"measure":39,"beat":4.5,"subject_pos":-1,"motif":"","motif_pos":-1,"best_pos":6,"similarity":0.714,"stretto":false,"stretto_voices":0,"combination":[],"aug_dim":"","rhythm_ratio":1.0,"mirror":false,"chromatic_density":0.417,"complexity":0.529,"dissonance":0.143},{"voice":1,"pitch":60,"start":81.3913,"duration":0.5217,"velocity":127,"measure":40,"beat":1.0,"subject_pos":-1,"motif":"","motif_pos":-1,"best_pos":7,"similarity":0.214,"stretto":false,"stretto_voices":0,"combination":[],"aug_dim":"","rhythm_ratio":1.0,"mirror":false,"chromatic_density":0.25,"complexity":0.531,"dissonance":0.082},{"voice":3,"pitch":53,"start":81.3913,"duration":0.2609,"velocity":127,"measure":40,"beat":1.0,"subject_pos":-1,"motif":"","motif_pos":-1,"best_pos":7,"similarity":0.464,"stretto":false,"stretto_voices":0,"combination":[],"aug_dim":"","rhythm_ratio":1.0,"mirror":false,"chromatic_density":0.25,"complexity":0.531,"dissonance":0.082},{"voice":2,"pitch":57,"start":81.6522,"duration":0.2609,"velocity":127,"measure":40,"beat":1.5,"subject_pos":-1,"motif":"","motif_pos":-1,"best_pos":4,"similarity":0.393,"stretto":false,"stretto_voices":0,"combination":[],"aug_dim":"","rhythm_ratio":1.0,"mirror":false,"chromatic_density":0.25,"complexity":0.531,"dissonance":0.082},{"voice":3,"pitch":41,"start":81.6522,"duration":0.2609,"velocity":127,"measure":40,"beat":1.5,"subject_pos":-1,"motif":"","motif_pos":-1,"best_pos":6,"similarity":0.15,"stretto":false,"stretto_voices":0,"combination":[],"aug_dim":"","rhythm_ratio":1.0,"mirror":false,"chromatic_density":0.25,"complexity":0.531,"dissonance":0.082},{"voice":1,"pitch":69,"start":81.913,"duration":1.0435,"velocity":127,"measure":40,"beat":2.0,"subject_pos":-1,"motif":"","motif_pos":-1,"best_pos":3,"similarity":0.35,"stretto":false,"stretto_voices":0,"combination":[],"aug_dim":"","rhythm_ratio":1.0,"mirror":false,"chromatic_density":0.25,"complexity":0.531,"dissonance":0.082},{"voice":2,"pitch":65,"start":81.913,"duration":0.5217,"velocity":127,"measure":40,"beat":2.0,"subject_pos":-1,"motif":"","motif_pos":-1,"best_pos":2,"similarity":0.3,"stretto":false,"stretto_voices":0,"combination":[],"aug_dim":"","rhythm_ratio":1.0,"mirror":false,"chromatic_density":0.25,"complexity":0.531,"dissonance":0.082},{"voice":3,"pitch":53,"start":82.1739,"duration":0.2609,"velocity":127,"measure":40,"beat":2.5,"subject_pos":-1,"motif":"","motif_pos":-1,"best_pos":2,"similarity":0.207,"stretto":false,"stretto_voices":0,"combination":[],"aug_dim":"","rhythm_ratio":1.0,"mirror":false,"chromatic_density":0.25,"complexity":0.531,"dissonance":0.082},{"voice":2,"pitch":62,"start":82.4348,"duration":0.7826,"velocity":127,"measure":40,"beat":3.0,"subject_pos":-1,"motif":"","motif_pos":-1,"best_pos":5,"similarity":0.332,"stretto":false,"stretto_voices":0,"combination":[],"aug_dim":"","rhythm_ratio":1.0,"mirror":false,"chromatic_density":0.25,"complexity":0.531,"dissonance":0.082},{"voice":3,"pitch":46,"start":82.4348,"duration":0.2609,"velocity":127,"measure":40,"beat":3.0,"subject_pos":-1,"motif":"","motif_pos":-1,"best_pos":3,"similarity":0.457,"stretto":false,"stretto_voices":0,"combination":[],"aug_dim":"","rhythm_ratio":1.0,"mirror":false,"chromatic_density":0.25,"complexity":0.531,"dissonance":0.082},{"voice":3,"pitch":45,"start":82.6956,"duration":0.2609,"velocity":127,"measure":40,"beat":3.5,"subject_pos":-1,"motif":"","motif_pos":-1,"best_pos":4,"similarity":0.657,"stretto":false,"stretto_voices":0,"combination":[],"aug_dim":"","rhythm_ratio":1.0,"mirror":false,"chromatic_density":0.25,"complexity":0.531,"dissonance":0.082},{"voice":1,"pitch":68,"start":82.9565,"duration":0.2609,"velocity":127,"measure":40,"beat":4.0,"subject_pos":-1,"motif":"","motif_pos":-1,"best_pos":2,"similarity":0.4,"stretto":false,"stretto_voices":0,"combination":[],"aug_dim":"","rhythm_ratio":1.0,"mirror":false,"chromatic_density":0.25,"complexity":0.531,"dissonance":0.082},{"voice":3,"pitch":47,"start":82.9565,"duration":0.2609,"velocity":127,"measure":40,"beat":4.0,"subject_pos":-1,"motif":"","motif_pos":-1,"best_pos":5,"similarity":0.721,"stretto":false,"stretto_voices":0,"combination":[],"aug_dim":"","rhythm_ratio":1.0,"mirror":false,"chromatic_density":0.25,"complexity":0.531,"dissonance":0.082},{"voice":1,"pitch":67,"start":83.2174,"duration":0.5217,"velocity":127,"measure":40,"beat":4.5,"subject_pos":-1,"motif":"","motif_pos":-1,"best_pos":3,"similarity":0.532,"stretto":false,"stretto_voices":0,"combination":[],"aug_dim":"","rhythm_ratio":1.0,"mirror":false,"chromatic_density":0.25,"complexity":0.531,"dissonance":0.082},{"voice":2,"pitch":64,"start":83.2174,"duration":0.2609,"velocity":127,"measure":40,"beat":4.5,"subject_pos":-1,"motif":"","motif_pos":-1,"best_pos":6,"similarity":0.3,"stretto":false,"stretto_voices":0,"combination":[],"aug_dim":"","rhythm_ratio":1.0,"mirror":false,"chromatic_density":0.25,"complexity":0.531,"dissonance":0.082},{"voice":3,"pitch":49,"start":83.2174,"duration":0.2609,"velocity":127,"measure":40,"beat":4.5,"subject_pos":-1,"motif":"","motif_pos":-1,"best_pos":6,"similarity":0.714,"stretto":false,"stretto_voices":0,"combination":[],"aug_dim":"","rhythm_ratio":1.0,"mirror":false,"chromatic_density":0.25,"complexity":0.531,"dissonance":0.082},{"voice":2,"pitch":57,"start":83.4782,"duration":0.5217,"velocity":127,"measure":41,"beat":1.0,"subject_pos":-1,"motif":"","motif_pos":-1,"best_pos":0,"similarity":0.375,"stretto":false,"stretto_voices":0,"combination":[],"aug_dim":"","rhythm_ratio":1.0,"mirror":false,"chromatic_density":0.385,"complexity":0.498,"dissonance":0.1},{"voice":3,"pitch":50,"start":83.4782,"duration":0.2609,"velocity":127,"measure":41,"beat":1.0,"subject_pos":-1,"motif":"","motif_pos":-1,"best_pos":7,"similarity":0.464,"stretto":false,"stretto_voices":0,"combination":[],"aug_dim":"","rhythm_ratio":1.0,"mirror":false,"chromatic_density":0.385,"complexity":0.498,"dissonance":0.1},{"voice":1,"pitch":66,"start":83.7391,"duration":0.1304,"velocity":127,"measure":41,"beat":1.5,"subject_pos":-1,"motif":"","motif_pos":-1,"best_pos":4,"similarity":0.6,"stretto":false,"stretto_voices":0,"combination":[],"aug_dim":"","rhythm_ratio":1.0,"mirror":false,"chromatic_density":0.385,"complexity":0.498,"dissonance":0.1},{"voice":3,"pitch":38,"start":83.7391,"duration":0.2609,"velocity":127,"measure":41,"beat":1.5,"subject_pos":-1,"motif":"","motif_pos":-1,"best_pos":5,"similarity":0.179,"stretto":false,"stretto_voices":0,"combination":[],"aug_dim":"","rhythm_ratio":1.0,"mirror":false,"chromatic_density":0.385,"complexity":0.498,"dissonance":0.1},{"voice":1,"pitch":64,"start":83.8695,"duration":0.1304,"velocity":127,"measure":41,"beat":1.75,"subject_pos":-1,"motif":"","motif_pos":-1,"best_pos":5,"similarity":0.618,"stretto":false,"stretto_voices":0,"combination":[],"aug_dim":"","rhythm_ratio":1.0,"mirror":false,"chromatic_density":0.385,"complexity":0.498,"dissonance":0.1},{"voice":1,"pitch":66,"start":84.0,"duration":0.5217,"velocity":127,"measure":41,"beat":2.0,"subject_pos":-1,"motif":"","motif_pos":-1,"best_pos":6,"similarity":0.657,"stretto":false,"stretto_voices":0,"combination":[],"aug_dim":"","rhythm_ratio":1.0,"mirror":false,"chromatic_density":0.385,"complexity":0.498,"dissonance":0.1},{"voice":2,"pitch":62,"start":84.0,"duration":1.0435,"velocity":127,"measure":41,"beat":2.0,"subject_pos":-1,"motif":"","motif_pos":-1,"best_pos":1,"similarity":0.536,"stretto":false,"stretto_voices":0,"combination":[],"aug_dim":"","rhythm_ratio":1.0,"mirror":false,"chromatic_density":0.385,"complexity":0.498,"dissonance":0.1},{"voice":3,"pitch":50,"start":84.2608,"duration":0.2609,"velocity":127,"measure":41,"beat":2.5,"subject_pos":-1,"motif":"","motif_pos":-1,"best_pos":4,"similarity":0.343,"stretto":false,"stretto_voices":0,"combination":[],"aug_dim":"","rhythm_ratio":1.0,"mirror":false,"chromatic_density":0.385,"complexity":0.498,"dissonance":0.1},{"voice":1,"pitch":67,"start":84.5217,"duration":0.7826,"velocity":127,"measure":41,"beat":3.0,"subject_pos":-1,"motif":"","motif_pos":-1,"best_pos":5,"similarity":0.621,"stretto":false,"stretto_voices":0,"combination":[],"aug_dim":"","rhythm_ratio":1.0,"mirror":false,"chromatic_density":0.385,"complexity":0.498,"dissonance":0.1},{"voice":3,"pitch":51,"start":84.5217,"duration":0.2609,"velocity":127,"measure":41,"beat":3.0,"subject_pos":-1,"motif":"","motif_pos":-1,"best_pos":3,"similarity":0.457,"stretto":false,"stretto_voices":0,"combination":[],"aug_dim":"","rhythm_ratio":1.0,"mirror":false,"chromatic_density":0.385,"complexity":0.498,"dissonance":0.1},{"voice":3,"pitch":50,"start":84.7826,"duration":0.2609,"velocity":127,"measure":41,"beat":3.5,"subject_pos":-1,"motif":"","motif_pos":-1,"best_pos":4,"similarity":0.657,"stretto":false,"stretto_voices":0,"combination":[],"aug_dim":"","rhythm_ratio":1.0,"mirror":false,"chromatic_density":0.385,"complexity":0.498,"dissonance":0.1},{"voice":2,"pitch":61,"start":85.0435,"duration":0.2609,"velocity":127,"measure":41,"beat":4.0,"subject_pos":-1,"motif":"","motif_pos":-1,"best_pos":2,"similarity":0.5,"stretto":false,"stretto_voices":0,"combination":[],"aug_dim":"","rhythm_ratio":1.0,"mirror":false,"chromatic_density":0.385,"complexity":0.498,"dissonance":0.1},{"voice":3,"pitch":52,"start":85.0435,"duration":0.2609,"velocity":127,"measure":41,"beat":4.0,"subject_pos":-1,"motif":"","motif_pos":-1,"best_pos":5,"similarity":0.721,"stretto":false,"stretto_voices":0,"combination":[],"aug_dim":"","rhythm_ratio":1.0,"mirror":false,"chromatic_density":0.385,"complexity":0.498,"dissonance":0.1},{"voice":1,"pitch":69,"start":85.3043,"duration":0.2609,"velocity":127,"measure":41,"beat":4.5,"subject_pos":-1,"motif":"","motif_pos":-1,"best_pos":6,"similarity":0.436,"stretto":false,"stretto_voices":0,"combination":[],"aug_dim":"","rhythm_ratio":1.0,"mirror":false,"chromatic_density":0.385,"complexity":0.498,"dissonance":0.1},{"voice":2,"pitch":60,"start":85.3043,"duration":0.5217,"velocity":127,"measure":41,"beat":4.5,"subject_pos":-1,"motif":"","motif_pos":-1,"best_pos":3,"similarity":0.5,"stretto":false,"stretto_voices":0,"combination":[],"aug_dim":"","rhythm_ratio":1.0,"mirror":false,"chromatic_density":0.385,"complexity":0.498,"dissonance":0.1},{"voice":3,"pitch":54,"start":85.3043,"duration":0.2609,"velocity":127,"measure":41,"beat":4.5,"subject_pos":-1,"motif":"","motif_pos":-1,"best_pos":6,"similarity":0.714,"stretto":false,"stretto_voices":0,"combination":[],"aug_dim":"","rhythm_ratio":1.0,"mirror":false,"chromatic_density":0.385,"complexity":0.498,"dissonance":0.1},{"voice":1,"pitch":62,"start":85.5652,"duration":0.5217,"velocity":127,"measure":42,"beat":1.0,"subject_pos":-1,"motif":"","motif_pos":-1,"best_pos":7,"similarity":0.214,"stretto":false,"stretto_voices":0,"combination":[],"aug_dim":"","rhythm_ratio":1.0,"mirror":false,"chromatic_density":0.25,"complexity":0.531,"dissonance":0.164},{"voice":3,"pitch":55,"start":85.5652,"duration":0.2609,"velocity":127,"measure":42,"beat":1.0,"subject_pos":-1,"motif":"","motif_pos":-1,"best_pos":7,"similarity":0.464,"stretto":false,"stretto_voices":0,"combination":[],"aug_dim":"","rhythm_ratio":1.0,"mirror":false,"chromatic_density":0.25,"complexity":0.531,"dissonance":0.164},{"voice":2,"pitch":59,"start":85.8261,"duration":0.2609,"velocity":127,"measure":42,"beat":1.5,"subject_pos":-1,"motif":"","motif_pos":-1,"best_pos":4,"similarity":0.393,"stretto":false,"stretto_voices":0,"combination":[],"aug_dim":"","rhythm_ratio":1.0,"mirror":false,"chromatic_density":0.25,"complexity":0.531,"dissonance":0.164},{"voice":3,"pitch":43,"start":85.8261,"duration":0.2609,"velocity":127,"measure":42,"beat":1.5,"subject_pos":-1,"motif":"","motif_pos":-1,"best_pos":6,"similarity":0.15,"stretto":false,"stretto_voices":0,"combination":[],"aug_dim":"","rhythm_ratio":1.0,"mirror":false,"chromatic_density":0.25,"complexity":0.531,"dissonance":0.164},{"voice":1,"pitch":71,"start":86.0869,"duration":1.0435,"velocity":127,"measure":42,"beat":2.0,"subject_pos":-1,"motif":"","motif_pos":-1,"best_pos":3,"similarity":0.35,"stretto":false,"stretto_voices":0,"combination":[],"aug_dim":"","rhythm_ratio":1.0,"mirror":false,"chromatic_density":0.25,"complexity":0.531,"dissonance":0.164},{"voice":2,"pitch":67,"start":86.0869,"duration":0.5217,"velocity":127,"measure":42,"beat":2.0,"subject_pos":-1,"motif":"","motif_pos":-1,"best_pos":2,"similarity":0.3,"stretto":false,"stretto_voices":0,"combination":[],"aug_dim":"","rhythm_ratio":1.0,"mirror":false,"chromatic_density":0.25,"complexity":0.531,"dissonance":0.164},{"voice":3,"pitch":55,"start":86.3478,"duration":0.2609,"velocity":127,"measure":42,"beat":2.5,"subject_pos":-1,"motif":"","motif_pos":-1,"best_pos":2,"similarity":0.207,"stretto":false,"stretto_voices":0,"combination":[],"aug_dim":"","rhythm_ratio":1.0,"mirror":false,"chromatic_density":0.25,"complexity":0.531,"dissonance":0.164},{"voice":2,"pitch":64,"start":86.6087,"duration":0.7826,"velocity":127,"measure":42,"beat":3.0,"subject_pos":-1,"motif":"","motif_pos":-1,"best_pos":3,"similarity":0.386,"stretto":false,"stretto_voices":0,"combination":[],"aug_dim":"","rhythm_ratio":1.0,"mirror":false,"chromatic_density":0.25,"complexity":0.531,"dissonance":0.164},{"voice":3,"pitch":48,"start":86.6087,"duration":0.2609,"velocity":127,"measure":42,"beat":3.0,"subject_pos":-1,"motif":"","motif_pos":-1,"best_pos":3,"similarity":0.457,"stretto":false,"stretto_voices":0,"combination":[],"aug_dim":"","rhythm_ratio":1.0,"mirror":false,"chromatic_density":0.25,"complexity":0.531,"dissonance":0.164},{"voice":3,"pitch":47,"start":86.8695,"duration":0.2609,"velocity":127,"measure":42,"beat":3.5,"subject_pos":-1,"motif":"","motif_pos":-1,"best_pos":4,"similarity":0.657,"stretto":false,"stretto_voices":0,"combination":[],"aug_dim":"","rhythm_ratio":1.0,"mirror":false,"chromatic_density":0.25,"complexity":0.531,"dissonance":0.164},{"voice":1,"pitch":70,"start":87.1304,"duration":0.2609,"velocity":127,"measure":42,"beat":4.0,"subject_pos":-1,"motif":"","motif_pos":-1,"best_pos":2,"similarity":0.411,"stretto":false,"stretto_voices":0,"combination":[],"aug_dim":"","rhythm_ratio":1.0,"mirror":false,"chromatic_density":0.25,"complexity":0.531,"dissonance":0.164},{"voice":3,"pitch":49,"start":87.1304,"duration":0.2609,"velocity":127,"measure":42,"beat":4.0,"subject_pos":-1,"motif":"","motif_pos":-1,"best_pos":5,"similarity":0.721,"stretto":false,"stretto_voices":0,"combination":[],"aug_dim":"","rhythm_ratio":1.0,"mirror":false,"chromatic_density":0.25,"complexity":0.531,"dissonance":0.164},{"voice":1,"pitch":69,"start":87.3913,"duration":0.5217,"velocity":127,"measure":42,"beat":4.5,"subject_pos":-1,"motif":"","motif_pos":-1,"best_pos":3,"similarity":0.489,"stretto":false,"stretto_voices":0,"combination":[],"aug_dim":"","rhythm_ratio":1.0,"mirror":false,"chromatic_density":0.25,"complexity":0.531,"dissonance":0.164},{"voice":2,"pitch":66,"start":87.3913,"duration":0.2609,"velocity":127,"measure":42,"beat":4.5,"subject_pos":-1,"motif":"","motif_pos":-1,"best_pos":4,"similarity":0.386,"stretto":false,"stretto_voices":0,"combination":[],"aug_dim":"","rhythm_ratio":1.0,"mirror":false,"chromatic_density":0.25,"complexity":0.531,"dissonance":0.164},{"voice":3,"pitch":51,"start":87.3913,"duration":0.2609,"velocity":127,"measure":42,"beat":4.5,"subject_pos":-1,"motif":"","motif_pos":-1,"best_pos":6,"similarity":0.714,"stretto":false,"stretto_voices":0,"combination":[],"aug_dim":"","rhythm_ratio":1.0,"mirror":false,"chromatic_density":0.25,"complexity":0.531,"dissonance":0.164},{"voice":0,"pitch":76,"start":87.6522,"duration":1.0435,"velocity":127,"measure":43,"beat":1.0,"subject_pos":0,"motif":"subject_inv","motif_pos":0,"best_pos":0,"similarity":1.0,"stretto":false,"stretto_voices":0,"combination":[],"aug_dim":"","rhythm_ratio":1.0,"mirror":false,"chromatic_density":0.556,"complexity":0.563,"dissonance":0.091},{"voice":2,"pitch":59,"start":87.6522,"duration":0.7826,"velocity":127,"measure":43,"beat":1.0,"subject_pos":-1,"motif":"","motif_pos":-1,"best_pos":5,"similarity":0.514,"stretto":false,"stretto_voices":0,"combination":[],"aug_dim":"","rhythm_ratio":1.0,"mirror":false,"chromatic_density":0.556,"complexity":0.563,"dissonance":0.091},{"voice":3,"pitch":52,"start":87.6522,"duration":0.7826,"velocity":127,"measure":43,"beat":1.0,"subject_pos":-1,"motif":"","motif_pos":-1,"best_pos":5,"similarity":0.514,"stretto":false,"stretto_voices":0,"combination":[],"aug_dim":"","rhythm_ratio":1.0,"mirror":false,"chromatic_density":0.556,"complexity":0.563,"dissonance":0.091},{"voice":1,"pitch":68,"start":87.913,"duration":0.2609,"velocity":127,"measure":43,"beat":1.5,"subject_pos":-1,"motif":"","motif_pos":-1,"best_pos":3,"similarity":0.471,"stretto":false,"stretto_voices":0,"combination":[],"aug_dim":"","rhythm_ratio":1.0,"mirror":false,"chromatic_density":0.556,"complexity":0.563,"dissonance":0.091},{"voice":1,"pitch":67,"start":88.1739,"duration":1.0435,"velocity":127,"measure":43,"beat":2.0,"subject_pos":-1,"motif":"","motif_pos":-1,"best_pos":3,"similarity":0.471,"stretto":false,"stretto_voices":0,"combination":[],"aug_dim":"","rhythm_ratio":1.0,"mirror":false,"chromatic_density":0.556,"complexity":0.563,"dissonance":0.091},{"voice":2,"pitch":61,"start":88.4348,"duration":0.2609,"velocity":127,"measure":43,"beat":2.5,"subject_pos":-1,"motif":"","motif_pos":-1,"best_pos":6,"similarity":0.579,"stretto":false,"stretto_voices":0,"combination":[],"aug_dim":"","rhythm_ratio":1.0,"mirror":false,"chromatic_density":0.556,"complexity":0.563,"dissonance":0.091},{"voice":3,"pitch":52,"start":88.4348,"duration":0.2609,"velocity":127,"measure":43,"beat":2.5,"subject_pos":-1,"motif":"","motif_pos":-1,"best_pos":4,"similarity":0.629,"stretto":false,"stretto_voices":0,"combination":[],"aug_dim":"","rhythm_ratio":1.0,"mirror":false,"chromatic_density":0.556,"complexity":0.563,"dissonance":0.091},{"voice":0,"pitch":69,"start":88.6956,"duration":1.0435,"velocity":127,"measure":43,"beat":3.0,"subject_pos":1,"motif":"subject_inv","motif_pos":1,"best_pos":1,"similarity":1.0,"stretto":false,"stretto_voices":0,"combination":[],"aug_dim":"","rhythm_ratio":1.0,"mirror":false,"chromatic_density":0.556,"complexity":0.563,"dissonance":0.091},{"voice":2,"pitch":62,"start":88.6956,"duration":0.7826,"velocity":127,"measure":43,"beat":3.0,"subject_pos":-1,"motif":"","motif_pos":-1,"best_pos":7,"similarity":0.429,"stretto":false,"stretto_voices":0,"combination":[],"aug_dim":"","rhythm_ratio":1.0,"mirror":false,"chromatic_density":0.556,"complexity":0.563,"dissonance":0.091},{"voice":3,"pitch":53,"start":88.6956,"duration":0.2609,"velocity":127,"measure":43,"beat":3.0,"subject_pos":-1,"motif":"","motif_pos":-1,"best_pos":5,"similarity":0.721,"stretto":false,"stretto_voices":0,"combination":[],"aug_dim":"","rhythm_ratio":1.0,"mirror":false,"chromatic_density":0.556,"complexity":0.563,"dissonance":0.091},{"voice":3,"pitch":55,"start":88.9565,"duration":0.2609,"velocity":127,"measure":43,"beat":3.5,"subject_pos":-1,"motif":"","motif_pos":-1,"best_pos":6,"similarity":0.607,"stretto":false,"stretto_voices":0,"combination":[],"aug_dim":"","rhythm_ratio":1.0,"mirror":false,"chromatic_density":0.556,"complexity":0.563,"dissonance":0.091},{"voice":1,"pitch":66,"start":89.2174,"duration":0.2609,"velocity":127,"measure":43,"beat":4.0,"subject_pos":-1,"motif":"","motif_pos":-1,"best_pos":3,"similarity":0.471,"stretto":false,"stretto_voices":0,"combination":[],"aug_dim":"","rhythm_ratio":1.0,"mirror":false,"chromatic_density":0.556,"complexity":0.563,"dissonance":0.091},{"voice":3,"pitch":57,"start":89.2174,"duration":1.3043,"velocity":127,"measure":43,"beat":4.0,"subject_pos":-1,"motif":"","motif_pos":-1,"best_pos":6,"similarity":0.518,"stretto":false,"stretto_voices":0,"combination":[],"aug_dim":"","rhythm_ratio":1.0,"mirror":false,"chromatic_density":0.556,"complexity":0.563,"dissonance":0.091},{"voice":1,"pitch":65,"start":89.4782,"duration":0.2609,"velocity":127,"measure":43,"beat":4.5,"subject_pos":-1,"motif":"","motif_pos":-1,"best_pos":4,"similarity":0.514,"stretto":false,"stretto_voices":0,"combination":[],"aug_dim":"","rhythm_ratio":1.0,"mirror":false,"chromatic_density":0.556,"complexity":0.563,"dissonance":0.091},{"voice":2,"pitch":62,"start":89.4782,"duration":0.2609,"velocity":127,"measure":43,"beat":4.5,"subject_pos":-1,"motif":"","motif_pos":-1,"best_pos":2,"similarity":0.443,"stretto":false,"stretto_voices":0,"combination":[],"aug_dim":"","rhythm_ratio":1.0,"mirror":false,"chromatic_density":0.556,"complexity":0.563,"dissonance":0.091},{"voice":0,"pitch":72,"start":89.7391,"duration":1.0435,"velocity":127,"measure":44,"beat":1.0,"subject_pos":2,"motif":"subject_inv","motif_pos":2,"best_pos":2,"similarity":1.0,"stretto":false,"stretto_voices":0,"combination":[],"aug_dim":"","rhythm_ratio":1.0,"mirror":false,"chromatic_density":0.571,"complexity":0.645,"dissonance":0.077},{"voice":1,"pitch":64,"start":89.7391,"duration":0.2609,"velocity":127,"measure":44,"beat":1.0,"subject_pos":-1,"motif":"tail","motif_pos":3,"best_pos":3,"similarity":1.0,"stretto":false,"stretto_voices":0,"combination":[],"aug_dim":"","rhythm_ratio":1.0,"mirror":false,"chromatic_density":0.571,"complexity":0.645,"dissonance":0.077},{"voice":2,"pitch":60,"start":89.7391,"duration":0.2609,"velocity":127,"measure":44,"beat":1.0,"subject_pos":-1,"motif":"","motif_pos":-1,"best_pos":3,"similarity":0.614,"stretto":false,"stretto_voices":0,"combination":[],"aug_dim":"","rhythm_ratio":1.0,"mirror":false,"chromatic_density":0.571,"complexity":0.645,"dissonance":0.077},{"voice":1,"pitch":63,"start":90.0,"duration":0.2609,"velocity":127,"measure":44,"beat":1.5,"subject_pos":-1,"motif":"tail","motif_pos":4,"best_pos":4,"similarity":1.0,"stretto":false,"stretto_voices":0,"combination":[],"aug_dim":"","rhythm_ratio":1.0,"mirror":false,"chromatic_density":0.571,"complexity":0.645,"dissonance":0.077},{"voice":2,"pitch":59,"start":90.0,"duration":0.2609,"velocity":127,"measure":44,"beat":1.5,"subject_pos":-1,"motif":"","motif_pos":-1,"best_pos":4,"similarity":0.696,"stretto":false,"stretto_voices":0,"combination":[],"aug_dim":"","rhythm_ratio":1.0,"mirror":false,"chromatic_density":0.571,"complexity":0.645,"dissonance":0.077},{"voice":1,"pitch":64,"start":90.2608,"duration":0.2609,"velocity":127,"measure":44,"beat":2.0,"subject_pos":-1,"motif":"tail","motif_pos":5,"best_pos":5,"similarity":1.0,"stretto":false,"stretto_voices":0,"combination":[],"aug_dim":"","rhythm_ratio":1.0,"mirror":false,"chromatic_density":0.571,"complexity":0.645,"dissonance":0.077},{"voice":2,"pitch":60,"start":90.2608,"duration":0.2609,"velocity":127,"measure":44,"beat":2.0,"subject_pos":-1,"motif":"","motif_pos":-1,"best_pos":5,"similarity":0.536,"stretto":false,"stretto_voices":0,"combination":[],"aug_dim":"","rhythm_ratio":1.0,"mirror":false,"chromatic_density":0.571,"complexity":0.645,"dissonance":0.077},{"voice":1,"pitch":66,"start":90.5217,"duration":0.2609,"velocity":127,"measure":44,"beat":2.5,"subject_pos":-1,"motif":"tail","motif_pos":6,"best_pos":6,"similarity":1.0,"stretto":false,"stretto_voices":0,"combination":[],"aug_dim":"","rhythm_ratio":1.0,"mirror":false,"chromatic_density":0.571,"complexity":0.645,"dissonance":0.077},{"voice":2,"pitch":57,"start":90.5217,"duration":0.2609,"velocity":127,"measure":44,"beat":2.5,"subject_pos":-1,"motif":"","motif_pos":-1,"best_pos":3,"similarity":0.543,"stretto":false,"stretto_voices":0,"combination":[],"aug_dim":"","rhythm_ratio":1.0,"mirror":false,"chromatic_density":0.571,"complexity":0.645,"dissonance":0.077},{"voice":3,"pitch":57,"start":90.5217,"duration":0.2609,"velocity":127,"measure":44,"beat":2.5,"subject_pos":-1,"motif":"","motif_pos":-1,"best_pos":2,"similarity":0.379,"stretto":false,"stretto_voices":0,"combination":[],"aug_dim":"","rhythm_ratio":1.0,"mirror":false,"chromatic_density":0.571,"complexity":0.645,"dissonance":0.077},{"voice":0,"pitch":76,"start":90.7826,"duration":1.0435,"velocity":127,"measure":44,"beat":3.0,"subject_pos":3,"motif":"subject_inv","motif_pos":3,"best_pos":3,"similarity":1.0,"stretto":false,"stretto_voices":0,"combination":[],"aug_dim":"","rhythm_ratio":1.0,"mirror":false,"chromatic_density":0.571,"complexity":0.645,"dissonance":0.077},{"voice":1,"pitch":67,"start":90.7826,"duration":0.5217,"velocity":127,"measure":44,"beat":3.0,"subject_pos":-1,"motif":"tail","motif_pos":7,"best_pos":7,"similarity":1.0,"stretto":false,"stretto_voices":0,"combination":[],"aug_dim":"","rhythm_ratio":1.0,"mirror":false,"chromatic_density":0.571,"complexity":0.645,"dissonance":0.077},{"voice":2,"pitch":59,"start":90.7826,"duration":0.7826,"velocity":127,"measure":44,"beat":3.0,"subject_pos":-1,"motif":"","motif_pos":-1,"best_pos":4,"similarity":0.614,"stretto":false,"stretto_voices":0,"combination":[],"aug_dim":"","rhythm_ratio":1.0,"mirror":false,"chromatic_density":0.571,"complexity":0.645,"dissonance":0.077},{"voice":3,"pitch":55,"start":90.7826,"duration":0.2609,"velocity":127,"measure":44,"beat":3.0,"subject_pos":-1,"motif":"","motif_pos":-1,"best_pos":3,"similarity":0.521,"stretto":false,"stretto_voices":0,"combination":[],"aug_dim":"","rhythm_ratio":1.0,"mirror":false,"chromatic_density":0.571,"complexity":0.645,"dissonance":0.077},{"voice":3,"pitch":54,"start":91.0435,"duration":0.2609,"velocity":127,"measure":44,"beat":3.5,"subject_pos":-1,"motif":"","motif_pos":-1,"best_pos":3,"similarity":0.507,"stretto":false,"stretto_voices":0,"combination":[],"aug_dim":"","rhythm_ratio":1.0,"mirror":false,"chromatic_density":0.571,"complexity":0.645,"dissonance":0.077},{"voice":1,"pitch":68,"start":91.3043,"duration":1.0435,"velocity":127,"measure":44,"beat":4.0,"subject_pos":-1,"motif":"","motif_pos":-1,"best_pos":4,"similarity":0.593,"stretto":false,"stretto_voices":0,"combination":[],"aug_dim":"","rhythm_ratio":1.0,"mirror":false,"chromatic_density":0.571,"complexity":0.645,"dissonance":0.077},{"voice":3,"pitch":52,"start":91.3043,"duration":0.7826,"velocity":127,"measure":44,"beat":4.0,"subject_pos":-1,"motif":"","motif_pos":-1,"best_pos":4,"similarity":0.557,"stretto":false,"stretto_voices":0,"combination":[],"aug_dim":"","rhythm_ratio":1.0,"mirror":false,"chromatic_density":0.571,"complexity":0.645,"dissonance":0.077},{"voice":2,"pitch":60,"start":91.5652,"duration":0.2609,"velocity":127,"measure":44,"beat":4.5,"subject_pos":-1,"motif":"","motif_pos":-1,"best_pos":5,"similarity":0.671,"stretto":false,"stretto_voices":0,"combination":[],"aug_dim":"","rhythm_ratio":1.0,"mirror":false,"chromatic_density":0.571,"complexity":0.645,"dissonance":0.077},{"voice":0,"pitch":77,"start":91.8261,"duration":1.0435,"velocity":127,"measure":45,"beat":1.0,"subject_pos":4,"motif":"subject_inv","motif_pos":4,"best_pos":4,"similarity":1.0,"stretto":false,"stretto_voices":0,"combination":[],"aug_dim":"","rhythm_ratio":1.0,"mirror":false,"chromatic_density":0.462,"complexity":0.579,"dissonance":0.18},{"voice":2,"pitch":62,"start":91.8261,"duration":0.2609,"velocity":127,"measure":45,"beat":1.0,"subject_pos":-1,"motif":"","motif_pos":-1,"best_pos":6,"similarity":0.464,"stretto":false,"stretto_voices":0,"combination":[],"aug_dim":"","rhythm_ratio":1.0,"mirror":false,"chromatic_density":0.462,"complexity":0.579,"dissonance":0.18},{"voice":2,"pitch":60,"start":92.0869,"duration":0.5217,"velocity":127,"measure":45,"beat":1.5,"subject_pos":-1,"motif":"","motif_pos":-1,"best_pos":3,"similarity":0.471,"stretto":false,"stretto_voices":0,"combination":[],"aug_dim":"","rhythm_ratio":1.0,"mirror":false,"chromatic_density":0.462,"complexity":0.579,"dissonance":0.18},{"voice":3,"pitch":53,"start":92.0869,"duration":0.2609,"velocity":127,"measure":45,"beat":1.5,"subject_pos":-1,"motif":"","motif_pos":-1,"best_pos":3,"similarity":0.479,"stretto":false,"stretto_voices":0,"combination":[],"aug_dim":"","rhythm_ratio":1.0,"mirror":false,"chromatic_density":0.462,"complexity":0.579,"dissonance":0.18},{"voice":1,"pitch":69,"start":92.3478,"duration":0.2609,"velocity":127,"measure":45,"beat":2.0,"subject_pos":-1,"motif":"","motif_pos":-1,"best_pos":5,"similarity":0.757,"stretto":false,"stretto_voices":0,"combination":[],"aug_dim":"","rhythm_ratio":1.0,"mirror":false,"chromatic_density":0.462,"complexity":0.579,"dissonance":0.18},{"voice":3,"pitch":52,"start":92.3478,"duration":0.2609,"velocity":127,"measure":45,"beat":2.0,"subject_pos":-1,"motif":"","motif_pos":-1,"best_pos":4,"similarity":0.421,"stretto":false,"stretto_voices":0,"combination":[],"aug_dim":"","rhythm_ratio":1.0,"mirror":false,"chromatic_density":0.462,"complexity":0.579,"dissonance":0.18},{"voice":1,"pitch":71,"start":92.6087,"duration":0.2609,"velocity":127,"measure":45,"beat":2.5,"subject_pos":-1,"motif":"","motif_pos":-1,"best_pos":6,"similarity":0.732,"stretto":false,"stretto_voices":0,"combination":[],"aug_dim":"","rhythm_ratio":1.0,"mirror":false,"chromatic_density":0.462,"complexity":0.579,"dissonance":0.18},{"voice":2,"pitch":59,"start":92.6087,"duration":0.5217,"velocity":127,"measure":45,"beat":2.5,"subject_pos":-1,"motif":"","motif_pos":-1,"best_pos":2,"similarity":0.5,"stretto":false,"stretto_voices":0,"combination":[],"aug_dim":"","rhythm_ratio":1.0,"mirror":false,"chromatic_density":0.462,"complexity":0.579,"dissonance":0.18},{"voice":3,"pitch":50,"start":92.6087,"duration":0.2609,"velocity":127,"measure":45,"beat":2.5,"subject_pos":-1,"motif":"","motif_pos":-1,"best_pos":2,"similarity":0.429,"stretto":false,"stretto_voices":0,"combination":[],"aug_dim":"","rhythm_ratio":1.0,"mirror":false,"chromatic_density":0.462,"complexity":0.579,"dissonance":0.18},{"voice":0,"pitch":76,"start":92.8695,"duration":0.5217,"velocity":127,"measure":45,"beat":3.0,"subject_pos":5,"motif":"subject_inv","motif_pos":5,"best_pos":5,"similarity":1.0,"stretto":false,"stretto_voices":0,"combination":[],"aug_dim":"","rhythm_ratio":1.0,"mirror":false,"chromatic_density":0.462,"complexity":0.579,"dissonance":0.18},{"voice":1,"pitch":72,"start":92.8695,"duration":0.5217,"velocity":127,"measure":45,"beat":3.0,"subject_pos":-1,"motif":"","motif_pos":-1,"best_pos":7,"similarity":0.5,"stretto":false,"stretto_voices":0,"combination":[],"aug_dim":"","rhythm_ratio":1.0,"mirror":false,"chromatic_density":0.462,"complexity":0.579,"dissonance":0.18},{"voice":3,"pitch":48,"start":92.8695,"duration":0.5217,"velocity":127,"measure":45,"beat":3.0,"subject_pos":-1,"motif":"","motif_pos":-1,"best_pos":3,"similarity":0.321,"stretto":false,"stretto_voices":0,"combination":[],"aug_dim":"","rhythm_ratio":1.0,"mirror":false,"chromatic_density":0.462,"complexity":0.579,"dissonance":0.18},{"voice":2,"pitch":57,"start":93.1304,"duration":0.5217,"velocity":127,"measure":45,"beat":3.5,"subject_pos":-1,"motif":"","motif_pos":-1,"best_pos":3,"similarity":0.643,"stretto":false,"stretto_voices":0,"combination":[],"aug_dim":"","rhythm_ratio":1.0,"mirror":false,"chromatic_density":0.462,"complexity":0.579,"dissonance":0.18},{"voice":0,"pitch":74,"start":93.3913,"duration":0.5217,"velocity":127,"measure":45,"beat":4.0,"subject_pos":6,"motif":"subject_inv","motif_pos":6,"best_pos":6,"similarity":1.0,"stretto":false,"stretto_voices":0,"combination":[],"aug_dim":"","rhythm_ratio":1.0,"mirror":false,"chromatic_density":0.462,"complexity":0.579,"dissonance":0.18},{"voice":1,"pitch":71,"start":93.3913,"duration":0.7826,"velocity":127,"measure":45,"beat":4.0,"subject_pos":-1,"motif":"head_inv","motif_pos":0,"best_pos":0,"similarity":1.0,"stretto":false,"stretto_voices":0,"combination":[],"aug_dim":"","rhythm_ratio":1.0,"mirror":false,"chromatic_density":0.462,"complexity":0.579,"dissonance":0.18},{"voice":3,"pitch":52,"start":93.3913,"duration":0.5217,"velocity":127,"measure":45,"beat":4.0,"subject_pos":-1,"motif":"","motif_pos":-1,"best_pos":4,"similarity":0.214,"stretto":false,"stretto_voices":0,"combination":[],"aug_dim":"","rhythm_ratio":1.0,"mirror":false,"chromatic_density":0.462,"complexity":0.579,"dissonance":0.18},{"voice":2,"pitch":56,"start":93.6522,"duration":0.2609,"velocity":127,"measure":45,"beat":4.5,"subject_pos":-1,"motif":"","motif_pos":-1,"best_pos":4,"similarity":0.714,"stretto":false,"stretto_voices":0,"combination":[],"aug_dim":"","rhythm_ratio":1.0,"mirror":false,"chromatic_density":0.462,"complexity":0.579,"dissonance":0.18},{"voice":0,"pitch":72,"start":93.913,"duration":1.3043,"velocity":127,"measure":46,"beat":1.0,"subject_pos":7,"motif":"subject_inv","motif_pos":7,"best_pos":7,"similarity":1.0,"stretto":false,"stretto_voices":0,"combination":[],"aug_dim":"","rhythm_ratio":1.0,"mirror":false,"chromatic_density":0.222,"complexity":0.586,"dissonance":0.14},{"voice":2,"pitch":57,"start":93.913,"duration":0.5217,"velocity":127,"measure":46,"beat":1.0,"subject_pos":-1,"motif":"head_inv","motif_pos":0,"best_pos":0,"similarity":1.0,"stretto":false,"stretto_voices":0,"combination":[],"aug_dim":"","rhythm_ratio":1.0,"mirror":false,"chromatic_density":0.222,"complexity":0.586,"dissonance":0.14},{"voice":3,"pitch":45,"start":93.913,"duration":0.5217,"velocity":127,"measure":46,"beat":1.0,"subject_pos":-1,"motif":"","motif_pos":-1,"best_pos":5,"similarity":0.179,"stretto":false,"stretto_voices":0,"combination":[],"aug_dim":"","rhythm_ratio":1.0,"mirror":false,"chromatic_density":0.222,"complexity":0.586,"dissonance":0.14},{"voice":1,"pitch":64,"start":94.1739,"duration":0.2609,"velocity":127,"measure":46,"beat":1.5,"subject_pos":-1,"motif":"head_inv","motif_pos":1,"best_pos":1,"similarity":1.0,"stretto":false,"stretto_voices":0,"combination":[],"aug_dim":"","rhythm_ratio":1.0,"mirror":false,"chromatic_density":0.222,"complexity":0.586,"dissonance":0.14},{"voice":1,"pitch":66,"start":94.4348,"duration":0.2609,"velocity":127,"measure":46,"beat":2.0,"subject_pos":-1,"motif":"head_inv","motif_pos":2,"best_pos":2,"similarity":1.0,"stretto":false,"stretto_voices":0,"combination":[],"aug_dim":"","rhythm_ratio":1.0,"mirror":false,"chromatic_density":0.222,"complexity":0.586,"dissonance":0.14},{"voice":1,"pitch":68,"start":94.6956,"duration":0.2609,"velocity":127,"measure":46,"beat":2.5,"subject_pos":-1,"motif":"head_inv","motif_pos":3,"best_pos":3,"similarity":1.0,"stretto":false,"stretto_voices":0,"combination":[],"aug_dim":"","rhythm_ratio":1.0,"mirror":false,"chromatic_density":0.222,"complexity":0.586,"dissonance":0.14},{"voice":1,"pitch":69,"start":94.9565,"duration":0.2609,"velocity":127,"measure":46,"beat":3.0,"subject_pos":-1,"motif":"head_inv","motif_pos":4,"best_pos":4,"similarity":1.0,"stretto":false,"stretto_voices":0,"combination":[],"aug_dim":"","rhythm_ratio":1.0,"mirror":false,"chromatic_density":0.222,"complexity":0.586,"dissonance":0.14},{"voice":0,"pitch":69,"start":95.2174,"duration":0.2609,"velocity":127,"measure":46,"beat":3.5,"subject_pos":-1,"motif":"","motif_pos":-1,"best_pos":4,"similarity":0.571,"stretto":false,"stretto_voices":0,"combination":[],"aug_dim":"","rhythm_ratio":1.0,"mirror":false,"chromatic_density":0.222,"complexity":0.586,"dissonance":0.14},{"voice":1,"pitch":67,"start":95.2174,"duration":0.2609,"velocity":127,"measure":46,"beat":3.5,"subject_pos":-1,"motif":"","motif_pos":-1,"best_pos":2,"similarity":0.657,"stretto":false,"stretto_voices":0,"combination":[],"aug_dim":"","rhythm_ratio":1.0,"mirror":false,"chromatic_density":0.222,"complexity":0.586,"dissonance":0.14},{"voice":0,"pitch":71,"start":95.4782,"duration":0.2609,"velocity":127,"measure":46,"beat":4.0,"subject_pos":-1,"motif":"","motif_pos":-1,"best_pos":5,"similarity":0.643,"stretto":false,"stretto_voices":0,"combination":[],"aug_dim":"","rhythm_ratio":1.0,"mirror":false,"chromatic_density":0.222,"complexity":0.586,"dissonance":0.14},{"voice":1,"pitch":65,"start":95.4782,"duration":0.2609,"velocity":127,"measure":46,"beat":4.0,"subject_pos":-1,"motif":"","motif_pos":-1,"best_pos":3,"similarity":0.757,"stretto":false,"stretto_voices":0,"combination":[],"aug_dim":"","rhythm_ratio":1.0,"mirror":false,"chromatic_density":0.222,"complexity":0.586,"dissonance":0.14},{"voice":0,"pitch":73,"start":95.7391,"duration":0.2609,"velocity":127,"measure":46,"beat":4.5,"subject_pos":-1,"motif":"","motif_pos":-1,"best_pos":6,"similarity":0.661,"stretto":false,"stretto_voices":0,"combination":[],"aug_dim":"","rhythm_ratio":1.0,"mirror":false,"chromatic_density":0.222,"complexity":0.586,"dissonance":0.14},{"voice":1,"pitch":64,"start":95.7391,"duration":0.2609,"velocity":127,"measure":46,"beat":4.5,"subject_pos":-1,"motif":"","motif_pos":-1,"best_pos":4,"similarity":0.857,"stretto":false,"stretto_voices":0,"combination":[],"aug_dim":"","rhythm_ratio":1.0,"mirror":false,"chromatic_density":0.222,"complexity":0.586,"dissonance":0.14},{"voice":0,"pitch":74,"start":96.0,"duration":0.2609,"velocity":127,"measure":47,"beat":1.0,"subject_pos":-1,"motif":"","motif_pos":-1,"best_pos":7,"similarity":0.464,"stretto":false,"stretto_voices":0,"combination":[],"aug_dim":"","rhythm_ratio":1.0,"mirror":false,"chromatic_density":0.375,"complexity":0.498,"dissonance":0.059},{"voice":1,"pitch":65,"start":96.0,"duration":0.2609,"velocity":127,"measure":47,"beat":1.0,"subject_pos":-1,"motif":"","motif_pos":-1,"best_pos":5,"similarity":0.75,"stretto":false,"stretto_voices":0,"combination":[],"aug_dim":"","rhythm_ratio":1.0,"mirror":false,"chromatic_density":0.375,"complexity":0.498,"dissonance":0.059},{"voice":0,"pitch":72,"start":96.2608,"duration":0.2609,"velocity":127,"measure":47,"beat":1.5,"subject_pos":-1,"motif":"","motif_pos":-1,"best_pos":3,"similarity":0.536,"stretto":false,"stretto_voices":0,"combination":[],"aug_dim":"","rhythm_ratio":1.0,"mirror":false,"chromatic_density":0.375,"complexity":0.498,"dissonance":0.059},{"voice":1,"pitch":66,"start":96.2608,"duration":0.2609,"velocity":127,"measure":47,"beat":1.5,"subject_pos":-1,"motif":"","motif_pos":-1,"best_pos":6,"similarity":0.643,"stretto":false,"stretto_voices":0,"combination":[],"aug_dim":"","rhythm_ratio":1.0,"mirror":false,"chromatic_density":0.375,"complexity":0.498,"dissonance":0.059},{"voice":2,"pitch":50,"start":96.2608,"duration":0.2609,"velocity":127,"measure":47,"beat":1.5,"subject_pos":-1,"motif":"head_inv","motif_pos":1,"best_pos":1,"similarity":1.0,"stretto":false,"stretto_voices":0,"combination":[],"aug_dim":"","rhythm_ratio":1.0,"mirror":false,"chromatic_density":0.375,"complexity":0.498,"dissonance":0.059},{"voice":0,"pitch":71,"start":96.5217,"duration":0.2609,"velocity":127,"measure":47,"beat":2.0,"subject_pos":-1,"motif":"","motif_pos":-1,"best_pos":4,"similarity":0.607,"stretto":false,"stretto_voices":0,"combination":[],"aug_dim":"","rhythm_ratio":1.0,"mirror":false,"chromatic_density":0.375,"complexity":0.498,"dissonance":0.059},{"voice":1,"pitch":67,"start":96.5217,"duration":0.2609,"velocity":127,"measure":47,"beat":2.0,"subject_pos":-1,"motif":"","motif_pos":-1,"best_pos":5,"similarity":0.629,"stretto":false,"stretto_voices":0,"combination":[],"aug_dim":"","rhythm_ratio":1.0,"mirror":false,"chromatic_density":0.375,"complexity":0.498,"dissonance":0.059},{"voice":2,"pitch":52,"start":96.5217,"duration":0.2609,"velocity":127,"measure":47,"beat":2.0,"subject_pos":-1,"motif":"head_inv","motif_pos":2,"best_pos":2,"similarity":1.0,"stretto":false,"stretto_voices":0,"combination":[],"aug_dim":"","rhythm_ratio":1.0,"mirror":false,"chromatic_density":0.375,"complexity":0.498,"dissonance":0.059},{"voice":0,"pitch":69,"start":96.7826,"duration":0.2609,"velocity":127,"measure":47,"beat":2.5,"subject_pos":-1,"motif":"","motif_pos":-1,"best_pos":5,"similarity":0.636,"stretto":false,"stretto_voices":0,"combination":[],"aug_dim":"","rhythm_ratio":1.0,"mirror":false,"chromatic_density":0.375,"complexity":0.498,"dissonance":0.059},{"voice":1,"pitch":69,"start":96.7826,"duration":0.5217,"velocity":127,"measure":47,"beat":2.5,"subject_pos":-1,"motif":"","motif_pos":-1,"best_pos":6,"similarity":0.475,"stretto":false,"stretto_voices":0,"combination":[],"aug_dim":"","rhythm_ratio":1.0,"mirror":false,"chromatic_density":0.375,"complexity":0.498,"dissonance":0.059},{"voice":2,"pitch":54,"start":96.7826,"duration":0.2609,"velocity":127,"measure":47,"beat":2.5,"subject_pos":-1,"motif":"head_inv","motif_pos":3,"best_pos":3,"similarity":1.0,"stretto":false,"stretto_voices":0,"combination":[],"aug_dim":"","rhythm_ratio":1.0,"mirror":false,"chromatic_density":0.375,"complexity":0.498,"dissonance":0.059},{"voice":0,"pitch":71,"start":97.0435,"duration":0.5217,"velocity":127,"measure":47,"beat":3.0,"subject_pos":-1,"motif":"","motif_pos":-1,"best_pos":6,"similarity":0.657,"stretto":false,"stretto_voices":0,"combination":[],"aug_dim":"","rhythm_ratio":1.0,"mirror":false,"chromatic_density":0.375,"complexity":0.498,"dissonance":0.059},{"voice":2,"pitch":55,"start":97.0435,"duration":0.5217,"velocity":127,"measure":47,"beat":3.0,"subject_pos":-1,"motif":"head_inv","motif_pos":4,"best_pos":4,"similarity":1.0,"stretto":false,"stretto_voices":0,"combination":[],"aug_dim":"","rhythm_ratio":1.0,"mirror":false,"chromatic_density":0.375,"complexity":0.498,"dissonance":0.059},{"voice":1,"pitch":67,"start":97.3043,"duration":0.2609,"velocity":127,"measure":47,"beat":3.5,"subject_pos":-1,"motif":"","motif_pos":-1,"best_pos":2,"similarity":0.593,"stretto":false,"stretto_voices":0,"combination":[],"aug_dim":"","rhythm_ratio":1.0,"mirror":false,"chromatic_density":0.375,"complexity":0.498,"dissonance":0.059},{"voice":0,"pitch":72,"start":97.5652,"duration":0.7826,"velocity":127,"measure":47,"beat":4.0,"subject_pos":-1,"motif":"","motif_pos":-1,"best_pos":3,"similarity":0.543,"stretto":false,"stretto_voices":0,"combination":[],"aug_dim":"","rhythm_ratio":1.0,"mirror":false,"chromatic_density":0.375,"complexity":0.498,"dissonance":0.059},{"voice":1,"pitch":65,"start":97.5652,"duration":0.2609,"velocity":127,"measure":47,"beat":4.0,"subject_pos":-1,"motif":"","motif_pos":-1,"best_pos":3,"similarity":0.6,"stretto":false,"stretto_voices":0,"combination":[],"aug_dim":"","rhythm_ratio":1.0,"mirror":false,"chromatic_density":0.375,"complexity":0.498,"dissonance":0.059},{"voice":2,"pitch":57,"start":97.5652,"duration":0.2609,"velocity":127,"measure":47,"beat":4.0,"subject_pos":-1,"motif":"","motif_pos":-1,"best_pos":6,"similarity":0.436,"stretto":false,"stretto_voices":0,"combination":[],"aug_dim":"","rhythm_ratio":1.0,"mirror":false,"chromatic_density":0.375,"complexity":0.498,"dissonance":0.059},{"voice":1,"pitch":64,"start":97.8261,"duration":0.2609,"velocity":127,"measure":47,"beat":4.5,"subject_pos":-1,"motif":"","motif_pos":-1,"best_pos":4,"similarity":0.507,"stretto":false,"stretto_voices":0,"combination":[],"aug_dim":"","rhythm_ratio":1.0,"mirror":false,"chromatic_density":0.375,"complexity":0.498,"dissonance":0.059},{"voice":2,"pitch":53,"start":97.8261,"duration":0.2609,"velocity":127,"measure":47,"beat":4.5,"subject_pos":-1,"motif":"","motif_pos":-1,"best_pos":2,"similarity":0.318,"stretto":false,"stretto_voices":0,"combination":[],"aug_dim":"","rhythm_ratio":1.0,"mirror":false,"chromatic_density":0.375,"complexity":0.498,"dissonance":0.059},{"voice":1,"pitch":62,"start":98.0869,"duration":0.2609,"velocity":127,"measure":48,"beat":1.0,"subject_pos":-1,"motif":"","motif_pos":-1,"best_pos":4,"similarity":0.457,"stretto":false,"stretto_voices":0,"combination":[],"aug_dim":"","rhythm_ratio":1.0,"mirror":false,"chromatic_density":0.2,"complexity":0.51,"dissonance":0.232},{"voice":2,"pitch":55,"start":98.0869,"duration":0.2609,"velocity":127,"measure":48,"beat":1.0,"subject_pos":-1,"motif":"","motif_pos":-1,"best_pos":6,"similarity":0.293,"stretto":false,"stretto_voices":0,"combination":[],"aug_dim":"","rhythm_ratio":1.0,"mirror":false,"chromatic_density":0.2,"complexity":0.51,"dissonance":0.232},{"voice":0,"pitch":71,"start":98.3478,"duration":0.2609,"velocity":127,"measure":48,"beat":1.5,"subject_pos":-1,"motif":"","motif_pos":-1,"best_pos":4,"similarity":0.771,"stretto":false,"stretto_voices":0,"combination":[],"aug_dim":"","rhythm_ratio":1.0,"mirror":false,"chromatic_density":0.2,"complexity":0.51,"dissonance":0.232},{"voice":1,"pitch":67,"start":98.3478,"duration":0.2609,"velocity":127,"measure":48,"beat":1.5,"subject_pos":-1,"motif":"","motif_pos":-1,"best_pos":5,"similarity":0.475,"stretto":false,"stretto_voices":0,"combination":[],"aug_dim":"","rhythm_ratio":1.0,"mirror":false,"chromatic_density":0.2,"complexity":0.51,"dissonance":0.232},{"voice":2,"pitch":65,"start":98.3478,"duration":0.2609,"velocity":127,"measure":48,"beat":1.5,"subject_pos":-1,"motif":"","motif_pos":-1,"best_pos":3,"similarity":0.321,"stretto":false,"stretto_voices":0,"combination":[],"aug_dim":"","rhythm_ratio":1.0,"mirror":false,"chromatic_density":0.2,"complexity":0.51,"dissonance":0.232},{"voice":0,"pitch":72,"start":98.6087,"duration":0.2609,"velocity":127,"measure":48,"beat":2.0,"subject_pos":-1,"motif":"","motif_pos":-1,"best_pos":5,"similarity":0.793,"stretto":false,"stretto_voices":0,"combination":[],"aug_dim":"","rhythm_ratio":1.0,"mirror":false,"chromatic_density":0.2,"complexity":0.51,"dissonance":0.232},{"voice":1,"pitch":69,"start":98.6087,"duration":0.2609,"velocity":127,"measure":48,"beat":2.0,"subject_pos":-1,"motif":"","motif_pos":-1,"best_pos":5,"similarity":0.607,"stretto":false,"stretto_voices":0,"combination":[],"aug_dim":"","rhythm_ratio":1.0,"mirror":false,"chromatic_density":0.2,"complexity":0.51,"dissonance":0.232},{"voice":2,"pitch":64,"start":98.6087,"duration":0.2609,"velocity":127,"measure":48,"beat":2.0,"subject_pos":-1,"motif":"","motif_pos":-1,"best_pos":2,"similarity":0.371,"stretto":false,"stretto_voices":0,"combination":[],"aug_dim":"","rhythm_ratio":1.0,"mirror":false,"chromatic_density":0.2,"complexity":0.51,"dissonance":0.232},{"voice":0,"pitch":74,"start":98.8695,"duration":0.2609,"velocity":127,"measure":48,"beat":2.5,"subject_pos":-1,"motif":"","motif_pos":-1,"best_pos":6,"similarity":0.643,"stretto":false,"stretto_voices":0,"combination":[],"aug_dim":"","rhythm_ratio":1.0,"mirror":false,"chromatic_density":0.2,"complexity":0.51,"dissonance":0.232},{"voice":1,"pitch":71,"start":98.8695,"duration":0.2609,"velocity":127,"measure":48,"beat":2.5,"subject_pos":-1,"motif":"","motif_pos":-1,"best_pos":6,"similarity":0.643,"stretto":false,"stretto_voices":0,"combination":[],"aug_dim":"","rhythm_ratio":1.0,"mirror":false,"chromatic_density":0.2,"complexity":0.51,"dissonance":0.232},{"voice":2,"pitch":62,"start":98.8695,"duration":0.2609,"velocity":127,"measure":48,"beat":2.5,"subject_pos":-1,"motif":"","motif_pos":-1,"best_pos":2,"similarity":0.464,"stretto":false,"stretto_voices":0,"combination":[],"aug_dim":"","rhythm_ratio":1.0,"mirror":false,"chromatic_density":0.2,"complexity":0.51,"dissonance":0.232},{"voice":0,"pitch":76,"start":99.1304,"duration":0.2609,"velocity":127,"measure":48,"beat":3.0,"subject_pos":-1,"motif":"","motif_pos":-1,"best_pos":1,"similarity":0.421,"stretto":false,"stretto_voices":0,"combination":[],"aug_dim":"","rhythm_ratio":1.0,"mirror":false,"chromatic_density":0.2,"complexity":0.51,"dissonance":0.232},{"voice":1,"pitch":72,"start":99.1304,"duration":0.2609,"velocity":127,"measure":48,"beat":3.0,"subject_pos":-1,"motif":"","motif_pos":-1,"best_pos":7,"similarity":0.464,"stretto":false,"stretto_voices":0,"combination":[],"aug_dim":"","rhythm_ratio":1.0,"mirror":false,"chromatic_density":0.2,"complexity":0.51,"dissonance":0.232},{"voice":2,"pitch":60,"start":99.1304,"duration":0.2609,"velocity":127,"measure":48,"beat":3.0,"subject_pos":-1,"motif":"","motif_pos":-1,"best_pos":3,"similarity":0.429,"stretto":false,"stretto_voices":0,"combination":[],"aug_dim":"","rhythm_ratio":1.0,"mirror":false,"chromatic_density":0.2,"complexity":0.51,"dissonance":0.232},{"voice":0,"pitch":74,"start":99.3913,"duration":0.2609,"velocity":127,"measure":48,"beat":3.5,"subject_pos":-1,"motif":"","motif_pos":-1,"best_pos":2,"similarity":0.532,"stretto":false,"stretto_voices":0,"combination":[],"aug_dim":"","rhythm_ratio":1.0,"mirror":false,"chromatic_density":0.2,"complexity":0.51,"dissonance":0.232},{"voice":1,"pitch":64,"start":99.3913,"duration":0.2609,"velocity":127,"measure":48,"beat":3.5,"subject_pos":-1,"motif":"","motif_pos":-1,"best_pos":4,"similarity":0.457,"stretto":false,"stretto_voices":0,"combination":[],"aug_dim":"","rhythm_ratio":1.0,"mirror":false,"chromatic_density":0.2,"complexity":0.51,"dissonance":0.232},{"voice":2,"pitch":48,"start":99.3913,"duration":0.2609,"velocity":127,"measure":48,"beat":3.5,"subject_pos":-1,"motif":"","motif_pos":-1,"best_pos":4,"similarity":0.5,"stretto":false,"stretto_voices":0,"combination":[],"aug_dim":"","rhythm_ratio":1.0,"mirror":false,"chromatic_density":0.2,"complexity":0.51,"dissonance":0.232},{"voice":0,"pitch":72,"start":99.6521,"duration":0.2609,"velocity":127,"measure":48,"beat":4.0,"subject_pos":-1,"motif":"","motif_pos":-1,"best_pos":2,"similarity":0.643,"stretto":false,"stretto_voices":0,"combination":[],"aug_dim":"","rhythm_ratio":1.0,"mirror":false,"chromatic_density":0.2,"complexity":0.51,"dissonance":0.232},{"voice":1,"pitch":65,"start":99.6521,"duration":0.2609,"velocity":127,"measure":48,"beat":4.0,"subject_pos":-1,"motif":"","motif_pos":-1,"best_pos":5,"similarity":0.593,"stretto":false,"stretto_voices":0,"combination":[],"aug_dim":"","rhythm_ratio":1.0,"mirror":false,"chromatic_density":0.2,"complexity":0.51,"dissonance":0.232},{"voice":2,"pitch":50,"start":99.6521,"duration":0.2609,"velocity":127,"measure":48,"beat":4.0,"subject_pos":-1,"motif":"","motif_pos":-1,"best_pos":5,"similarity":0.607,"stretto":false,"stretto_voices":0,"combination":[],"aug_dim":"","rhythm_ratio":1.0,"mirror":false,"chromatic_density":0.2,"complexity":0.51,"dissonance":0.232},{"voice":0,"pitch":70,"start":99.913,"duration":0.2609,"velocity":127,"measure":48,"beat":4.5,"subject_pos":-1,"motif":"","motif_pos":-1,"best_pos":3,"similarity":0.721,"stretto":false,"stretto_voices":0,"combination":[],"aug_dim":"","rhythm_ratio":1.0,"mirror":false,"chromatic_density":0.2,"complexity":0.51,"dissonance":0.232},{"voice":1,"pitch":67,"start":99.913,"duration":0.5217,"velocity":127,"measure":48,"beat":4.5,"subject_pos":-1,"motif":"","motif_pos":-1,"best_pos":1,"similarity":0.457,"stretto":false,"stretto_voices":0,"combination":[],"aug_dim":"","rhythm_ratio":1.0,"mirror":false,"chromatic_density":0.2,"complexity":0.51,"dissonance":0.232},{"voice":2,"pitch":52,"start":99.913,"duration":0.2609,"velocity":127,"measure":48,"beat":4.5,"subject_pos":-1,"motif":"","motif_pos":-1,"best_pos":6,"similarity":0.643,"stretto":false,"stretto_voices":0,"combination":[],"aug_dim":"","rhythm_ratio":1.0,"mirror":false,"chromatic_density":0.2,"complexity":0.51,"dissonance":0.232},{"voice":0,"pitch":69,"start":100.1739,"duration":0.5217,"velocity":127,"measure":49,"beat":1.0,"subject_pos":-1,"motif":"","motif_pos":-1,"best_pos":4,"similarity":0.8,"stretto":false,"stretto_voices":0,"combination":[],"aug_dim":"","rhythm_ratio":1.0,"mirror":false,"chromatic_density":0.312,"complexity":0.488,"dissonance":0.173},{"voice":2,"pitch":53,"start":100.1739,"duration":0.5217,"velocity":127,"measure":49,"beat":1.0,"subject_pos":-1,"motif":"","motif_pos":-1,"best_pos":5,"similarity":0.586,"stretto":false,"stretto_voices":0,"combination":[],"aug_dim":"","rhythm_ratio":1.0,"mirror":false,"chromatic_density":0.312,"complexity":0.488,"dissonance":0.173},{"voice":1,"pitch":65,"start":100.4348,"duration":0.2609,"velocity":127,"measure":49,"beat":1.5,"subject_pos":-1,"motif":"","motif_pos":-1,"best_pos":2,"similarity":0.593,"stretto":false,"stretto_voices":0,"combination":[],"aug_dim":"","rhythm_ratio":1.0,"mirror":false,"chromatic_density":0.312,"complexity":0.488,"dissonance":0.173},{"voice":0,"pitch":70,"start":100.6956,"duration":0.7826,"velocity":127,"measure":49,"beat":2.0,"subject_pos":-1,"motif":"","motif_pos":-1,"best_pos":5,"similarity":0.636,"stretto":false,"stretto_voices":0,"combination":[],"aug_dim":"","rhythm_ratio":1.0,"mirror":false,"chromatic_density":0.312,"complexity":0.488,"dissonance":0.173},{"voice":1,"pitch":63,"start":100.6956,"duration":0.2609,"velocity":127,"measure":49,"beat":2.0,"subject_pos":-1,"motif":"","motif_pos":-1,"best_pos":3,"similarity":0.6,"stretto":false,"stretto_voices":0,"combination":[],"aug_dim":"","rhythm_ratio":1.0,"mirror":false,"chromatic_density":0.312,"complexity":0.488,"dissonance":0.173},{"voice":2,"pitch":55,"start":100.6956,"duration":0.2609,"velocity":127,"measure":49,"beat":2.0,"subject_pos":-1,"motif":"","motif_pos":-1,"best_pos":6,"similarity":0.436,"stretto":false,"stretto_voices":0,"combination":[],"aug_dim":"","rhythm_ratio":1.0,"mirror":false,"chromatic_density":0.312,"complexity":0.488,"dissonance":0.173},{"voice":1,"pitch":62,"start":100.9565,"duration":0.2609,"velocity":127,"measure":49,"beat":2.5,"subject_pos":-1,"motif":"","motif_pos":-1,"best_pos":4,"similarity":0.507,"stretto":false,"stretto_voices":0,"combination":[],"aug_dim":"","rhythm_ratio":1.0,"mirror":false,"chromatic_density":0.312,"complexity":0.488,"dissonance":0.173},{"voice":2,"pitch":51,"start":100.9565,"duration":0.2609,"velocity":127,"measure":49,"beat":2.5,"subject_pos":-1,"motif":"","motif_pos":-1,"best_pos":2,"similarity":0.318,"stretto":false,"stretto_voices":0,"combination":[],"aug_dim":"","rhythm_ratio":1.0,"mirror":false,"chromatic_density":0.312,"complexity":0.488,"dissonance":0.173},{"voice":1,"pitch":60,"start":101.2174,"duration":0.2609,"velocity":127,"measure":49,"beat":3.0,"subject_pos":-1,"motif":"","motif_pos":-1,"best_pos":4,"similarity":0.457,"stretto":false,"stretto_voices":0,"combination":[],"aug_dim":"","rhythm_ratio":1.0,"mirror":false,"chromatic_density":0.312,"complexity":0.488,"dissonance":0.173},{"voice":2,"pitch":53,"start":101.2174,"duration":0.2609,"velocity":127,"measure":49,"beat":3.0,"subject_pos":-1,"motif":"","motif_pos":-1,"best_pos":6,"similarity":0.293,"stretto":false,"stretto_voices":0,"combination":[],"aug_dim":"","rhythm_ratio":1.0,"mirror":false,"chromatic_density":0.312,"complexity":0.488,"dissonance":0.173},{"voice":0,"pitch":69,"start":101.4782,"duration":0.2609,"velocity":127,"measure":49,"beat":3.5,"subject_pos":-1,"motif":"","motif_pos":-1,"best_pos":4,"similarity":0.8,"stretto":false,"stretto_voices":0,"combination":[],"aug_dim":"","rhythm_ratio":1.0,"mirror":false,"chromatic_density":0.312,"complexity":0.488,"dissonance":0.173},{"voice":1,"pitch":65,"start":101.4782,"duration":0.2609,"velocity":127,"measure":49,"beat":3.5,"subject_pos":-1,"motif":"","motif_pos":-1,"best_pos":5,"similarity":0.475,"stretto":false,"stretto_voices":0,"combination":[],"aug_dim":"","rhythm_ratio":1.0,"mirror":false,"chromatic_density":0.312,"complexity":0.488,"dissonance":0.173},{"voice":2,"pitch":63,"start":101.4782,"duration":0.2609,"velocity":127,"measure":49,"beat":3.5,"subject_pos":-1,"motif":"","motif_pos":-1,"best_pos":3,"similarity":0.321,"stretto":false,"stretto_voices":0,"combination":[],"aug_dim":"","rhythm_ratio":1.0,"mirror":false,"chromatic_density":0.312,"complexity":0.488,"dissonance":0.173},{"voice":0,"pitch":70,"start":101.7391,"duration":0.2609,"velocity":127,"measure":49,"beat":4.0,"subject_pos":-1,"motif":"","motif_pos":-1,"best_pos":5,"similarity":0.793,"stretto":false,"stretto_voices":0,"combination":[],"aug_dim":"","rhythm_ratio":1.0,"mirror":false,"chromatic_density":0.312,"complexity":0.488,"dissonance":0.173},{"voice":1,"pitch":67,"start":101.7391,"duration":0.2609,"velocity":127,"measure":49,"beat":4.0,"subject_pos":-1,"motif":"","motif_pos":-1,"best_pos":5,"similarity":0.607,"stretto":false,"stretto_voices":0,"combination":[],"aug_dim":"","rhythm_ratio":1.0,"mirror":false,"chromatic_density":0.312,"complexity":0.488,"dissonance":0.173},{"voice":2,"pitch":62,"start":101.7391,"duration":0.2609,"velocity":127,"measure":49,"beat":4.0,"subject_pos":-1,"motif":"","motif_pos":-1,"best_pos":2,"similarity":0.371,"stretto":false,"stretto_voices":0,"combination":[],"aug_dim":"","rhythm_ratio":1.0,"mirror":false,"chromatic_density":0.312,"complexity":0.488,"dissonance":0.173},{"voice":0,"pitch":72,"start":102.0,"duration":0.2609,"velocity":127,"measure":49,"beat":4.5,"subject_pos":-1,"motif":"","motif_pos":-1,"best_pos":6,"similarity":0.643,"stretto":false,"stretto_voices":0,"combination":[],"aug_dim":"","rhythm_ratio":1.0,"mirror":false,"chromatic_density":0.312,"complexity":0.488,"dissonance":0.173},{"voice":1,"pitch":69,"start":102.0,"duration":0.2609,"velocity":127,"measure":49,"beat":4.5,"subject_pos":-1,"motif":"","motif_pos":-1,"best_pos":6,"similarity":0.643,"stretto":false,"stretto_voices":0,"combination":[],"aug_dim":"","rhythm_ratio":1.0,"mirror":false,"chromatic_density":0.312,"complexity":0.488,"dissonance":0.173},{"voice":2,"pitch":60,"start":102.0,"duration":0.2609,"velocity":127,"measure":49,"beat":4.5,"subject_pos":-1,"motif":"","motif_pos":-1,"best_pos":2,"similarity":0.464,"stretto":false,"stretto_voices":0,"combination":[],"aug_dim":"","rhythm_ratio":1.0,"mirror":false,"chromatic_density":0.312,"complexity":0.488,"dissonance":0.173},{"voice":0,"pitch":74,"start":102.2608,"duration":0.2609,"velocity":127,"measure":50,"beat":1.0,"subject_pos":-1,"motif":"","motif_pos":-1,"best_pos":1,"similarity":0.421,"stretto":false,"stretto_voices":0,"combination":[],"aug_dim":"","rhythm_ratio":1.0,"mirror":false,"chromatic_density":0.333,"complexity":0.488,"dissonance":0.183},{"voice":1,"pitch":70,"start":102.2608,"duration":0.2609,"velocity":127,"measure":50,"beat":1.0,"subject_pos":-1,"motif":"","motif_pos":-1,"best_pos":7,"similarity":0.464,"stretto":false,"stretto_voices":0,"combination":[],"aug_dim":"","rhythm_ratio":1.0,"mirror":false,"chromatic_density":0.333,"complexity":0.488,"dissonance":0.183},{"voice":2,"pitch":58,"start":102.2608,"duration":0.2609,"velocity":127,"measure":50,"beat":1.0,"subject_pos":-1,"motif":"","motif_pos":-1,"best_pos":3,"similarity":0.429,"stretto":false,"stretto_voices":0,"combination":[],"aug_dim":"","rhythm_ratio":1.0,"mirror":false,"chromatic_density":0.333,"complexity":0.488,"dissonance":0.183},{"voice":0,"pitch":72,"start":102.5217,"duration":0.2609,"velocity":127,"measure":50,"beat":1.5,"subject_pos":-1,"motif":"","motif_pos":-1,"best_pos":2,"similarity":0.532,"stretto":false,"stretto_voices":0,"combination":[],"aug_dim":"","rhythm_ratio":1.0,"mirror":false,"chromatic_density":0.333,"complexity":0.488,"dissonance":0.183},{"voice":1,"pitch":62,"start":102.5217,"duration":0.2609,"velocity":127,"measure":50,"beat":1.5,"subject_pos":-1,"motif":"","motif_pos":-1,"best_pos":4,"similarity":0.45,"stretto":false,"stretto_voices":0,"combination":[],"aug_dim":"","rhythm_ratio":1.0,"mirror":false,"chromatic_density":0.333,"complexity":0.488,"dissonance":0.183},{"voice":2,"pitch":46,"start":102.5217,"duration":0.2609,"velocity":127,"measure":50,"beat":1.5,"subject_pos":-1,"motif":"","motif_pos":-1,"best_pos":4,"similarity":0.5,"stretto":false,"stretto_voices":0,"combination":[],"aug_dim":"","rhythm_ratio":1.0,"mirror":false,"chromatic_density":0.333,"complexity":0.488,"dissonance":0.183},{"voice":0,"pitch":70,"start":102.7826,"duration":0.2609,"velocity":127,"measure":50,"beat":2.0,"subject_pos":-1,"motif":"","motif_pos":-1,"best_pos":2,"similarity":0.589,"stretto":false,"stretto_voices":0,"combination":[],"aug_dim":"","rhythm_ratio":1.0,"mirror":false,"chromatic_density":0.333,"complexity":0.488,"dissonance":0.183},{"voice":1,"pitch":63,"start":102.7826,"duration":0.2609,"velocity":127,"measure":50,"beat":2.0,"subject_pos":-1,"motif":"","motif_pos":-1,"best_pos":5,"similarity":0.579,"stretto":false,"stretto_voices":0,"combination":[],"aug_dim":"","rhythm_ratio":1.0,"mirror":false,"chromatic_density":0.333,"complexity":0.488,"dissonance":0.183},{"voice":2,"pitch":48,"start":102.7826,"duration":0.2609,"velocity":127,"measure":50,"beat":2.0,"subject_pos":-1,"motif":"","motif_pos":-1,"best_pos":5,"similarity":0.607,"stretto":false,"stretto_voices":0,"combination":[],"aug_dim":"","rhythm_ratio":1.0,"mirror":false,"chromatic_density":0.333,"complexity":0.488,"dissonance":0.183},{"voice":0,"pitch":68,"start":103.0435,"duration":0.2609,"velocity":127,"measure":50,"beat":2.5,"subject_pos":-1,"motif":"","motif_pos":-1,"best_pos":3,"similarity":0.643,"stretto":false,"stretto_voices":0,"combination":[],"aug_dim":"","rhythm_ratio":1.0,"mirror":false,"chromatic_density":0.333,"complexity":0.488,"dissonance":0.183},{"voice":1,"pitch":65,"start":103.0435,"duration":0.2609,"velocity":127,"measure":50,"beat":2.5,"subject_pos":-1,"motif":"","motif_pos":-1,"best_pos":6,"similarity":0.429,"stretto":false,"stretto_voices":0,"combination":[],"aug_dim":"","rhythm_ratio":1.0,"mirror":false,"chromatic_density":0.333,"complexity":0.488,"dissonance":0.183},{"voice":2,"pitch":50,"start":103.0435,"duration":0.2609,"velocity":127,"measure":50,"beat":2.5,"subject_pos":-1,"motif":"","motif_pos":-1,"best_pos":6,"similarity":0.643,"stretto":false,"stretto_voices":0,"combination":[],"aug_dim":"","rhythm_ratio":1.0,"mirror":false,"chromatic_density":0.333,"complexity":0.488,"dissonance":0.183},{"voice":0,"pitch":67,"start":103.3043,"duration":1.3043,"velocity":127,"measure":50,"beat":3.0,"subject_pos":-1,"motif":"tail","motif_pos":3,"best_pos":3,"similarity":1.0,"stretto":false,"stretto_voices":0,"combination":[],"aug_dim":"","rhythm_ratio":1.0,"mirror":false,"chromatic_density":0.333,"complexity":0.488,"dissonance":0.183},{"voice":1,"pitch":58,"start":103.3043,"duration":0.2609,"velocity":127,"measure":50,"beat":3.0,"subject_pos":-1,"motif":"","motif_pos":-1,"best_pos":4,"similarity":0.4,"stretto":false,"stretto_voices":0,"combination":[],"aug_dim":"","rhythm_ratio":1.0,"mirror":false,"chromatic_density":0.333,"complexity":0.488,"dissonance":0.183},{"voice":2,"pitch":51,"start":103.3043,"duration":0.2609,"velocity":127,"measure":50,"beat":3.0,"subject_pos":-1,"motif":"","motif_pos":-1,"best_pos":5,"similarity":0.6,"stretto":false,"stretto_voices":0,"combination":[],"aug_dim":"","rhythm_ratio":1.0,"mirror":false,"chromatic_density":0.333,"complexity":0.488,"dissonance":0.183},{"voice":1,"pitch":59,"start":103.5652,"duration":0.2609,"velocity":127,"measure":50,"beat":3.5,"subject_pos":-1,"motif":"","motif_pos":-1,"best_pos":4,"similarity":0.593,"stretto":false,"stretto_voices":0,"combination":[],"aug_dim":"","rhythm_ratio":1.0,"mirror":false,"chromatic_density":0.333,"complexity":0.488,"dissonance":0.183},{"voice":2,"pitch":53,"start":103.5652,"duration":0.2609,"velocity":127,"measure":50,"beat":3.5,"subject_pos":-1,"motif":"","motif_pos":-1,"best_pos":6,"similarity":0.464,"stretto":false,"stretto_voices":0,"combination":[],"aug_dim":"","rhythm_ratio":1.0,"mirror":false,"chromatic_density":0.333,"complexity":0.488,"dissonance":0.183},{"voice":1,"pitch":60,"start":103.8261,"duration":0.2609,"velocity":127,"measure":50,"beat":4.0,"subject_pos":-1,"motif":"","motif_pos":-1,"best_pos":5,"similarity":0.757,"stretto":false,"stretto_voices":0,"combination":[],"aug_dim":"","rhythm_ratio":1.0,"mirror":false,"chromatic_density":0.333,"complexity":0.488,"dissonance":0.183},{"voice":2,"pitch":51,"start":103.8261,"duration":0.2609,"velocity":127,"measure":50,"beat":4.0,"subject_pos":-1,"motif":"","motif_pos":-1,"best_pos":3,"similarity":0.536,"stretto":false,"stretto_voices":0,"combination":[],"aug_dim":"","rhythm_ratio":1.0,"mirror":false,"chromatic_density":0.333,"complexity":0.488,"dissonance":0.183},{"voice":1,"pitch":62,"start":104.0869,"duration":0.2609,"velocity":127,"measure":50,"beat":4.5,"subject_pos":-1,"motif":"","motif_pos":-1,"best_pos":6,"similarity":0.732,"stretto":false,"stretto_voices":0,"combination":[],"aug_dim":"","rhythm_ratio":1.0,"mirror":false,"chromatic_density":0.333,"complexity":0.488,"dissonance":0.183},{"voice":2,"pitch":50,"start":104.0869,"duration":0.2609,"velocity":127,"measure":50,"beat":4.5,"subject_pos":-1,"motif":"","motif_pos":-1,"best_pos":4,"similarity":0.571,"stretto":false,"stretto_voices":0,"combination":[],"aug_dim":"","rhythm_ratio":1.0,"mirror":false,"chromatic_density":0.333,"complexity":0.488,"dissonance":0.183},{"voice":1,"pitch":63,"start":104.3478,"duration":0.2609,"velocity":127,"measure":51,"beat":1.0,"subject_pos":-1,"motif":"","motif_pos":-1,"best_pos":7,"similarity":0.5,"stretto":false,"stretto_voices":0,"combination":[],"aug_dim":"","rhythm_ratio":1.0,"mirror":false,"chromatic_density":0.444,"complexity":0.674,"dissonance":0.117},{"voice":2,"pitch":48,"start":104.3478,"duration":0.2609,"velocity":127,"measure":51,"beat":1.0,"subject_pos":-1,"motif":"","motif_pos":-1,"best_pos":4,"similarity":0.571,"stretto":false,"stretto_voices":0,"combination":[],"aug_dim":"","rhythm_ratio":1.0,"mirror":false,"chromatic_density":0.444,"complexity":0.674,"dissonance":0.117},{"voice":3,"pitch":48,"start":104.3478,"duration":1.0435,"velocity":127,"measure":51,"beat":1.0,"subject_pos":-1,"motif":"head_inv","motif_pos":0,"best_pos":0,"similarity":1.0,"stretto":false,"stretto_voices":0,"combination":[],"aug_dim":"","rhythm_ratio":1.0,"mirror":false,"chromatic_density":0.444,"complexity":0.674,"dissonance":0.117},{"voice":0,"pitch":66,"start":104.6087,"duration":0.2609,"velocity":127,"measure":51,"beat":1.5,"subject_pos":-1,"motif":"tail","motif_pos":4,"best_pos":4,"similarity":1.0,"stretto":false,"stretto_voices":0,"combination":[],"aug_dim":"","rhythm_ratio":1.0,"mirror":false,"chromatic_density":0.444,"complexity":0.674,"dissonance":0.117},{"voice":1,"pitch":62,"start":104.6087,"duration":0.2609,"velocity":127,"measure":51,"beat":1.5,"subject_pos":-1,"motif":"","motif_pos":-1,"best_pos":4,"similarity":0.425,"stretto":false,"stretto_voices":0,"combination":[],"aug_dim":"","rhythm_ratio":1.0,"mirror":false,"chromatic_density":0.444,"complexity":0.674,"dissonance":0.117},{"voice":2,"pitch":50,"start":104.6087,"duration":0.2609,"velocity":127,"measure":51,"beat":1.5,"subject_pos":-1,"motif":"","motif_pos":-1,"best_pos":5,"similarity":0.589,"stretto":false,"stretto_voices":0,"combination":[],"aug_dim":"","rhythm_ratio":1.0,"mirror":false,"chromatic_density":0.444,"complexity":0.674,"dissonance":0.117},{"voice":0,"pitch":67,"start":104.8695,"duration":0.2609,"velocity":127,"measure":51,"beat":2.0,"subject_pos":-1,"motif":"tail","motif_pos":5,"best_pos":5,"similarity":1.0,"stretto":false,"stretto_voices":0,"combination":[],"aug_dim":"","rhythm_ratio":1.0,"mirror":false,"chromatic_density":0.444,"complexity":0.674,"dissonance":0.117},{"voice":1,"pitch":60,"start":104.8695,"duration":0.2609,"velocity":127,"measure":51,"beat":2.0,"subject_pos":-1,"motif":"","motif_pos":-1,"best_pos":2,"similarity":0.436,"stretto":false,"stretto_voices":0,"combination":[],"aug_dim":"","rhythm_ratio":1.0,"mirror":false,"chromatic_density":0.444,"complexity":0.674,"dissonance":0.117},{"voice":2,"pitch":52,"start":104.8695,"duration":0.2609,"velocity":127,"measure":51,"beat":2.0,"subject_pos":-1,"motif":"","motif_pos":-1,"best_pos":5,"similarity":0.621,"stretto":false,"stretto_voices":0,"combination":[],"aug_dim":"","rhythm_ratio":1.0,"mirror":false,"chromatic_density":0.444,"complexity":0.674,"dissonance":0.117},{"voice":0,"pitch":69,"start":105.1304,"duration":0.2609,"velocity":127,"measure":51,"beat":2.5,"subject_pos":-1,"motif":"tail","motif_pos":6,"best_pos":6,"similarity":1.0,"stretto":false,"stretto_voices":0,"combination":[],"aug_dim":"","rhythm_ratio":1.0,"mirror":false,"chromatic_density":0.444,"complexity":0.674,"dissonance":0.117},{"voice":1,"pitch":63,"start":105.1304,"duration":0.2609,"velocity":127,"measure":51,"beat":2.5,"subject_pos":-1,"motif":"","motif_pos":-1,"best_pos":3,"similarity":0.479,"stretto":false,"stretto_voices":0,"combination":[],"aug_dim":"","rhythm_ratio":1.0,"mirror":false,"chromatic_density":0.444,"complexity":0.674,"dissonance":0.117},{"voice":2,"pitch":54,"start":105.1304,"duration":0.2609,"velocity":127,"measure":51,"beat":2.5,"subject_pos":-1,"motif":"","motif_pos":-1,"best_pos":6,"similarity":0.65,"stretto":false,"stretto_voices":0,"combination":[],"aug_dim":"","rhythm_ratio":1.0,"mirror":false,"chromatic_density":0.444,"complexity":0.674,"dissonance":0.117},{"voice":0,"pitch":70,"start":105.3913,"duration":0.2609,"velocity":127,"measure":51,"beat":3.0,"subject_pos":-1,"motif":"tail","motif_pos":7,"best_pos":7,"similarity":1.0,"stretto":false,"stretto_voices":0,"combination":[],"aug_dim":"","rhythm_ratio":1.0,"mirror":false,"chromatic_density":0.444,"complexity":0.674,"dissonance":0.117},{"voice":1,"pitch":62,"start":105.3913,"duration":0.2609,"velocity":127,"measure":51,"beat":3.0,"subject_pos":-1,"motif":"","motif_pos":-1,"best_pos":4,"similarity":0.493,"stretto":false,"stretto_voices":0,"combination":[],"aug_dim":"","rhythm_ratio":1.0,"mirror":false,"chromatic_density":0.444,"complexity":0.674,"dissonance":0.117},{"voice":2,"pitch":55,"start":105.3913,"duration":0.5217,"velocity":127,"measure":51,"beat":3.0,"subject_pos":-1,"motif":"","motif_pos":-1,"best_pos":7,"similarity":0.464,"stretto":false,"stretto_voices":0,"combination":[],"aug_dim":"","rhythm_ratio":1.0,"mirror":false,"chromatic_density":0.444,"complexity":0.674,"dissonance":0.117},{"voice":3,"pitch":43,"start":105.3913,"duration":1.0435,"velocity":127,"measure":51,"beat":3.0,"subject_pos":-1,"motif":"head_inv","motif_pos":1,"best_pos":1,"similarity":1.0,"stretto":false,"stretto_voices":0,"combination":[],"aug_dim":"","rhythm_ratio":1.0,"mirror":false,"chromatic_density":0.444,"complexity":0.674,"dissonance":0.117},{"voice":0,"pitch":69,"start":105.6521,"duration":0.2609,"velocity":127,"measure":51,"beat":3.5,"subject_pos":-1,"motif":"","motif_pos":-1,"best_pos":4,"similarity":0.771,"stretto":false,"stretto_voices":0,"combination":[],"aug_dim":"","rhythm_ratio":1.0,"mirror":false,"chromatic_density":0.444,"complexity":0.674,"dissonance":0.117},{"voice":1,"pitch":66,"start":105.6521,"duration":0.2609,"velocity":127,"measure":51,"beat":3.5,"subject_pos":-1,"motif":"","motif_pos":-1,"best_pos":4,"similarity":0.536,"stretto":false,"stretto_voices":0,"combination":[],"aug_dim":"","rhythm_ratio":1.0,"mirror":false,"chromatic_density":0.444,"complexity":0.674,"dissonance":0.117},{"voice":0,"pitch":70,"start":105.913,"duration":0.2609,"velocity":127,"measure":51,"beat":4.0,"subject_pos":-1,"motif":"","motif_pos":-1,"best_pos":5,"similarity":0.793,"stretto":false,"stretto_voices":0,"combination":[],"aug_dim":"","rhythm_ratio":1.0,"mirror":false,"chromatic_density":0.444,"complexity":0.674,"dissonance":0.117},{"voice":1,"pitch":67,"start":105.913,"duration":0.7826,"velocity":127,"measure":51,"beat":4.0,"subject_pos":-1,"motif":"","motif_pos":-1,"best_pos":5,"similarity":0.732,"stretto":false,"stretto_voices":0,"combination":[],"aug_dim":"","rhythm_ratio":1.0,"mirror":false,"chromatic_density":0.444,"complexity":0.674,"dissonance":0.117},{"voice":0,"pitch":72,"start":106.1739,"duration":0.2609,"velocity":127,"measure":51,"beat":4.5,"subject_pos":-1,"motif":"","motif_pos":-1,"best_pos":6,"similarity":0.643,"stretto":false,"stretto_voices":0,"combination":[],"aug_dim":"","rhythm_ratio":1.0,"mirror":false,"chromatic_density":0.444,"complexity":0.674,"dissonance":0.117},{"voice":2,"pitch":51,"start":106.1739,"duration":0.2609,"velocity":127,"measure":51,"beat":4.5,"subject_pos":-1,"motif":"enigmatic_cell","motif_pos":0,"best_pos":0,"similarity":1.0,"stretto":false,"stretto_voices":0,"combination":[],"aug_dim":"","rhythm_ratio":1.0,"mirror":false,"chromatic_density":0.444,"complexity":0.674,"dissonance":0.117},{"voice":0,"pitch":74,"start":106.4348,"duration":0.2609,"velocity":127,"measure":52,"beat":1.0,"subject_pos":-1,"motif":"tail","motif_pos":3,"best_pos":3,"similarity":1.0,"stretto":false,"stretto_voices":0,"combination":[],"aug_dim":"","rhythm_ratio":1.0,"mirror":false,"chromatic_density":0.429,"complexity":0.673,"dissonance":0.124},{"voice":2,"pitch":50,"start":106.4348,"duration":0.5217,"velocity":127,"measure":52,"beat":1.0,"subject_pos":-1,"motif":"enigmatic_cell","motif_pos":1,"best_pos":1,"similarity":1.0,"stretto":false,"stretto_voices":0,"combination":[],"aug_dim":"","rhythm_ratio":1.0,"mirror":false,"chromatic_density":0.429,"complexity":0.673,"dissonance":0.124},{"voice":3,"pitch":46,"start":106.4348,"duration":1.0435,"velocity":127,"measure":52,"beat":1.0,"subject_pos":-1,"motif":"head_inv","motif_pos":2,"best_pos":2,"similarity":1.0,"stretto":false,"stretto_voices":0,"combination":[],"aug_dim":"","rhythm_ratio":1.0,"mirror":false,"chromatic_density":0.429,"complexity":0.673,"dissonance":0.124},{"voice":0,"pitch":73,"start":106.6956,"duration":0.2609,"velocity":127,"measure":52,"beat":1.5,"subject_pos":-1,"motif":"tail","motif_pos":4,"best_pos":4,"similarity":1.0,"stretto":false,"stretto_voices":0,"combination":[],"aug_dim":"","rhythm_ratio":1.0,"mirror":false,"chromatic_density":0.429,"complexity":0.673,"dissonance":0.124},{"voice":1,"pitch":69,"start":106.6956,"duration":0.2609,"velocity":127,"measure":52,"beat":1.5,"subject_pos":-1,"motif":"","motif_pos":-1,"best_pos":6,"similarity":0.714,"stretto":false,"stretto_voices":0,"combination":[],"aug_dim":"","rhythm_ratio":1.0,"mirror":false,"chromatic_density":0.429,"complexity":0.673,"dissonance":0.124},{"voice":0,"pitch":74,"start":106.9565,"duration":0.2609,"velocity":127,"measure":52,"beat":2.0,"subject_pos":-1,"motif":"tail","motif_pos":5,"best_pos":5,"similarity":1.0,"stretto":false,"stretto_voices":0,"combination":[],"aug_dim":"","rhythm_ratio":1.0,"mirror":false,"chromatic_density":0.429,"complexity":0.673,"dissonance":0.124},{"voice":1,"pitch":70,"start":106.9565,"duration":0.7826,"velocity":127,"measure":52,"beat":2.0,"subject_pos":-1,"motif":"","motif_pos":-1,"best_pos":7,"similarity":0.5,"stretto":false,"stretto_voices":0,"combination":[],"aug_dim":"","rhythm_ratio":1.0,"mirror":false,"chromatic_density":0.429,"complexity":0.673,"dissonance":0.124},{"voice":0,"pitch":76,"start":107.2174,"duration":0.2609,"velocity":127,"measure":52,"beat":2.5,"subject_pos":-1,"motif":"tail","motif_pos":6,"best_pos":6,"similarity":1.0,"stretto":false,"stretto_voices":0,"combination":[],"aug_dim":"","rhythm_ratio":1.0,"mirror":false,"chromatic_density":0.429,"complexity":0.673,"dissonance":0.124},{"voice":2,"pitch":55,"start":107.2174,"duration":0.2609,"velocity":127,"measure":52,"beat":2.5,"subject_pos":-1,"motif":"enigmatic_cell","motif_pos":2,"best_pos":2,"similarity":1.0,"stretto":false,"stretto_voices":0,"combination":[],"aug_dim":"","rhythm_ratio":1.0,"mirror":false,"chromatic_density":0.429,"complexity":0.673,"dissonance":0.124},{"voice":0,"pitch":77,"start":107.4782,"duration":0.5217,"velocity":127,"measure":52,"beat":3.0,"subject_pos":-1,"motif":"tail","motif_pos":7,"best_pos":7,"similarity":1.0,"stretto":false,"stretto_voices":0,"combination":[],"aug_dim":"","rhythm_ratio":1.0,"mirror":false,"chromatic_density":0.429,"complexity":0.673,"dissonance":0.124},{"voice":2,"pitch":53,"start":107.4782,"duration":0.2609,"velocity":127,"measure":52,"beat":3.0,"subject_pos":-1,"motif":"","motif_pos":-1,"best_pos":2,"similarity":0.579,"stretto":false,"stretto_voices":0,"combination":[],"aug_dim":"","rhythm_ratio":1.0,"mirror":false,"chromatic_density":0.429,"complexity":0.673,"dissonance":0.124},{"voice":3,"pitch":50,"start":107.4782,"duration":1.0435,"velocity":127,"measure":52,"beat":3.0,"subject_pos":-1,"motif":"head_inv","motif_pos":3,"best_pos":3,"similarity":1.0,"stretto":false,"stretto_voices":0,"combination":[],"aug_dim":"","rhythm_ratio":1.0,"mirror":false,"chromatic_density":0.429,"complexity":0.673,"dissonance":0.124},{"voice":1,"pitch":74,"start":107.7391,"duration":0.2609,"velocity":127,"measure":52,"beat":3.5,"subject_pos":-1,"motif":"","motif_pos":-1,"best_pos":1,"similarity":0.507,"stretto":false,"stretto_voices":0,"combination":[],"aug_dim":"","rhythm_ratio":1.0,"mirror":false,"chromatic_density":0.429,"complexity":0.673,"dissonance":0.124},{"voice":2,"pitch":58,"start":107.7391,"duration":0.2609,"velocity":127,"measure":52,"beat":3.5,"subject_pos":-1,"motif":"","motif_pos":-1,"best_pos":1,"similarity":0.518,"stretto":false,"stretto_voices":0,"combination":[],"aug_dim":"","rhythm_ratio":1.0,"mirror":false,"chromatic_density":0.429,"complexity":0.673,"dissonance":0.124},{"voice":0,"pitch":78,"start":108.0,"duration":1.0435,"velocity":127,"measure":52,"beat":4.0,"subject_pos":-1,"motif":"","motif_pos":-1,"best_pos":4,"similarity":0.593,"stretto":false,"stretto_voices":0,"combination":[],"aug_dim":"","rhythm_ratio":1.0,"mirror":false,"chromatic_density":0.429,"complexity":0.673,"dissonance":0.124},{"voice":1,"pitch":72,"start":108.0,"duration":0.2609,"velocity":127,"measure":52,"beat":4.0,"subject_pos":-1,"motif":"","motif_pos":-1,"best_pos":2,"similarity":0.521,"stretto":false,"stretto_voices":0,"combination":[],"aug_dim":"","rhythm_ratio":1.0,"mirror":false,"chromatic_density":0.429,"complexity":0.673,"dissonance":0.124},{"voice":2,"pitch":57,"start":108.0,"duration":1.0435,"velocity":127,"measure":52,"beat":4.0,"subject_pos":-1,"motif":"","motif_pos":-1,"best_pos":2,"similarity":0.5,"stretto":false,"stretto_voices":0,"combination":[],"aug_dim":"","rhythm_ratio":1.0,"mirror":false,"chromatic_density":0.429,"complexity":0.673,"dissonance":0.124},{"voice":1,"pitch":70,"start":108.2608,"duration":0.2609,"velocity":127,"measure":52,"beat":4.5,"subject_pos":-1,"motif":"","motif_pos":-1,"best_pos":4,"similarity":0.429,"stretto":false,"stretto_voices":0,"combination":[],"aug_dim":"","rhythm_ratio":1.0,"mirror":false,"chromatic_density":0.429,"complexity":0.673,"dissonance":0.124},{"voice":1,"pitch":72,"start":108.5217,"duration":0.2609,"velocity":127,"measure":53,"beat":1.0,"subject_pos":-1,"motif":"","motif_pos":-1,"best_pos":3,"similarity":0.429,"stretto":false,"stretto_voices":0,"combination":[],"aug_dim":"","rhythm_ratio":1.0,"mirror":false,"chromatic_density":0.333,"complexity":0.571,"dissonance":0.155},{"voice":3,"pitch":51,"start":108.5217,"duration":1.0435,"velocity":127,"measure":53,"beat":1.0,"subject_pos":-1,"motif":"head_inv","motif_pos":4,"best_pos":4,"similarity":1.0,"stretto":false,"stretto_voices":0,"combination":[],"aug_dim":"","rhythm_ratio":1.0,"mirror":false,"chromatic_density":0.333,"complexity":0.571,"dissonance":0.155},{"voice":1,"pitch":69,"start":108.7826,"duration":0.2609,"velocity":127,"measure":53,"beat":1.5,"subject_pos":-1,"motif":"","motif_pos":-1,"best_pos":4,"similarity":0.607,"stretto":false,"stretto_voices":0,"combination":[],"aug_dim":"","rhythm_ratio":1.0,"mirror":false,"chromatic_density":0.333,"complexity":0.571,"dissonance":0.155},{"voice":0,"pitch":79,"start":109.0435,"duration":0.2609,"velocity":127,"measure":53,"beat":2.0,"subject_pos":-1,"motif":"","motif_pos":-1,"best_pos":5,"similarity":0.757,"stretto":false,"stretto_voices":0,"combination":[],"aug_dim":"","rhythm_ratio":1.0,"mirror":false,"chromatic_density":0.333,"complexity":0.571,"dissonance":0.155},{"voice":1,"pitch":70,"start":109.0435,"duration":0.2609,"velocity":127,"measure":53,"beat":2.0,"subject_pos":-1,"motif":"","motif_pos":-1,"best_pos":5,"similarity":0.679,"stretto":false,"stretto_voices":0,"combination":[],"aug_dim":"","rhythm_ratio":1.0,"mirror":false,"chromatic_density":0.333,"complexity":0.571,"dissonance":0.155},{"voice":2,"pitch":55,"start":109.0435,"duration":0.7826,"velocity":127,"measure":53,"beat":2.0,"subject_pos":-1,"motif":"","motif_pos":-1,"best_pos":2,"similarity":0.604,"stretto":false,"stretto_voices":0,"combination":[],"aug_dim":"","rhythm_ratio":1.0,"mirror":false,"chromatic_density":0.333,"complexity":0.571,"dissonance":0.155},{"voice":0,"pitch":81,"start":109.3043,"duration":0.2609,"velocity":127,"measure":53,"beat":2.5,"subject_pos":-1,"motif":"","motif_pos":-1,"best_pos":6,"similarity":0.732,"stretto":false,"stretto_voices":0,"combination":[],"aug_dim":"","rhythm_ratio":1.0,"mirror":false,"chromatic_density":0.333,"complexity":0.571,"dissonance":0.155},{"voice":1,"pitch":72,"start":109.3043,"duration":0.2609,"velocity":127,"measure":53,"beat":2.5,"subject_pos":-1,"motif":"","motif_pos":-1,"best_pos":6,"similarity":0.589,"stretto":false,"stretto_voices":0,"combination":[],"aug_dim":"","rhythm_ratio":1.0,"mirror":false,"chromatic_density":0.333,"complexity":0.571,"dissonance":0.155},{"voice":0,"pitch":82,"start":109.5652,"duration":0.5217,"velocity":127,"measure":53,"beat":3.0,"subject_pos":-1,"motif":"","motif_pos":-1,"best_pos":7,"similarity":0.5,"stretto":false,"stretto_voices":0,"combination":[],"aug_dim":"","rhythm_ratio":1.0,"mirror":false,"chromatic_density":0.333,"complexity":0.571,"dissonance":0.155},{"voice":1,"pitch":74,"start":109.5652,"duration":2.3478,"velocity":127,"measure":53,"beat":3.0,"subject_pos":-1,"motif":"","motif_pos":-1,"best_pos":3,"similarity":0.521,"stretto":false,"stretto_voices":0,"combination":[],"aug_dim":"","rhythm_ratio":1.0,"mirror":false,"chromatic_density":0.333,"complexity":0.571,"dissonance":0.155},{"voice":3,"pitch":50,"start":109.5652,"duration":0.5217,"velocity":127,"measure":53,"beat":3.0,"subject_pos":-1,"motif":"","motif_pos":-1,"best_pos":1,"similarity":0.429,"stretto":false,"stretto_voices":0,"combination":[],"aug_dim":"","rhythm_ratio":1.0,"mirror":false,"chromatic_density":0.333,"complexity":0.571,"dissonance":0.155},{"voice":2,"pitch":52,"start":109.8261,"duration":0.2609,"velocity":127,"measure":53,"beat":3.5,"subject_pos":-1,"motif":"","motif_pos":-1,"best_pos":3,"similarity":0.493,"stretto":false,"stretto_voices":0,"combination":[],"aug_dim":"","rhythm_ratio":1.0,"mirror":false,"chromatic_density":0.333,"complexity":0.571,"dissonance":0.155},{"voice":0,"pitch":81,"start":110.0869,"duration":0.7826,"velocity":127,"measure":53,"beat":4.0,"subject_pos":-1,"motif":"head_inv","motif_pos":0,"best_pos":0,"similarity":1.0,"stretto":false,"stretto_voices":0,"combination":[],"aug_dim":"","rhythm_ratio":1.0,"mirror":false,"chromatic_density":0.333,"complexity":0.571,"dissonance":0.155},{"voice":2,"pitch":54,"start":110.0869,"duration":0.2609,"velocity":127,"measure":53,"beat":4.0,"subject_pos":-1,"motif":"","motif_pos":-1,"best_pos":6,"similarity":0.407,"stretto":false,"stretto_voices":0,"combination":[],"aug_dim":"","rhythm_ratio":1.0,"mirror":false,"chromatic_density":0.333,"complexity":0.571,"dissonance":0.155},{"voice":3,"pitch":48,"start":110.0869,"duration":0.5217,"velocity":127,"measure":53,"beat":4.0,"subject_pos":-1,"motif":"","motif_pos":-1,"best_pos":2,"similarity":0.607,"stretto":false,"stretto_voices":0,"combination":[],"aug_dim":"","rhythm_ratio":1.0,"mirror":false,"chromatic_density":0.333,"complexity":0.571,"dissonance":0.155},{"voice":2,"pitch":57,"start":110.3478,"duration":0.2609,"velocity":127,"measure":53,"beat":4.5,"subject_pos":-1,"motif":"","motif_pos":-1,"best_pos":6,"similarity":0.232,"stretto":false,"stretto_voices":0,"combination":[],"aug_dim":"","rhythm_ratio":1.0,"mirror":false,"chromatic_density":0.333,"complexity":0.571,"dissonance":0.155},{"voice":2,"pitch":50,"start":110.6087,"duration":0.2609,"velocity":127,"measure":54,"beat":1.0,"subject_pos":-1,"motif":"","motif_pos":-1,"best_pos":3,"similarity":0.25,"stretto":false,"stretto_voices":0,"combination":[],"aug_dim":"","rhythm_ratio":1.0,"mirror":false,"chromatic_density":0.417,"complexity":0.527,"dissonance":0.172},{"voice":3,"pitch":46,"start":110.6087,"duration":1.3043,"velocity":127,"measure":54,"beat":1.0,"subject_pos":-1,"motif":"","motif_pos":-1,"best_pos":3,"similarity":0.714,"stretto":false,"stretto_voices":0,"combination":[],"aug_dim":"","rhythm_ratio":1.0,"mirror":false,"chromatic_density":0.417,"complexity":0.527,"dissonance":0.172},{"voice":0,"pitch":74,"start":110.8695,"duration":0.2609,"velocity":127,"measure":54,"beat":1.5,"subject_pos":-1,"motif":"head_inv","motif_pos":1,"best_pos":1,"similarity":1.0,"stretto":false,"stretto_voices":0,"combination":[],"aug_dim":"","rhythm_ratio":1.0,"mirror":false,"chromatic_density":0.417,"complexity":0.527,"dissonance":0.172},{"voice":2,"pitch":54,"start":110.8695,"duration":0.2609,"velocity":127,"measure":54,"beat":1.5,"subject_pos":-1,"motif":"","motif_pos":-1,"best_pos":4,"similarity":0.514,"stretto":false,"stretto_voices":0,"combination":[],"aug_dim":"","rhythm_ratio":1.0,"mirror":false,"chromatic_density":0.417,"complexity":0.527,"dissonance":0.172},{"voice":0,"pitch":76,"start":111.1304,"duration":0.2609,"velocity":127,"measure":54,"beat":2.0,"subject_pos":-1,"motif":"head_inv","motif_pos":2,"best_pos":2,"similarity":1.0,"stretto":false,"stretto_voices":0,"combination":[],"aug_dim":"","rhythm_ratio":1.0,"mirror":false,"chromatic_density":0.417,"complexity":0.527,"dissonance":0.172},{"voice":2,"pitch":55,"start":111.1304,"duration":0.2609,"velocity":127,"measure":54,"beat":2.0,"subject_pos":-1,"motif":"","motif_pos":-1,"best_pos":5,"similarity":0.721,"stretto":false,"stretto_voices":0,"combination":[],"aug_dim":"","rhythm_ratio":1.0,"mirror":false,"chromatic_density":0.417,"complexity":0.527,"dissonance":0.172},{"voice":0,"pitch":78,"start":111.3913,"duration":0.2609,"velocity":127,"measure":54,"beat":2.5,"subject_pos":-1,"motif":"head_inv","motif_pos":3,"best_pos":3,"similarity":1.0,"stretto":false,"stretto_voices":0,"combination":[],"aug_dim":"","rhythm_ratio":1.0,"mirror":false,"chromatic_density":0.417,"complexity":0.527,"dissonance":0.172},{"voice":2,"pitch":57,"start":111.3913,"duration":0.2609,"velocity":127,"measure":54,"beat":2.5,"subject_pos":-1,"motif":"","motif_pos":-1,"best_pos":6,"similarity":0.714,"stretto":false,"stretto_voices":0,"combination":[],"aug_dim":"","rhythm_ratio":1.0,"mirror":false,"chromatic_density":0.417,"complexity":0.527,"dissonance":0.172},{"voice":0,"pitch":79,"start":111.6521,"duration":1.3043,"velocity":127,"measure":54,"beat":3.0,"subject_pos":-1,"motif":"head_inv","motif_pos":4,"best_pos":4,"similarity":1.0,"stretto":false,"stretto_voices":0,"combination":[],"aug_dim":"","rhythm_ratio":1.0,"mirror":false,"chromatic_density":0.417,"complexity":0.527,"dissonance":0.172},{"voice":2,"pitch":58,"start":111.6521,"duration":0.2609,"velocity":127,"measure":54,"beat":3.0,"subject_pos":-1,"motif":"","motif_pos":-1,"best_pos":7,"similarity":0.5,"stretto":false,"stretto_voices":0,"combination":[],"aug_dim":"","rhythm_ratio":1.0,"mirror":false,"chromatic_density":0.417,"complexity":0.527,"dissonance":0.172},{"voice":1,"pitch":73,"start":111.913,"duration":0.2609,"velocity":127,"measure":54,"beat":3.5,"subject_pos":-1,"motif":"","motif_pos":-1,"best_pos":4,"similarity":0.721,"stretto":false,"stretto_voices":0,"combination":[],"aug_dim":"","rhythm_ratio":1.0,"mirror":false,"chromatic_density":0.417,"complexity":0.527,"dissonance":0.172},{"voice":3,"pitch":45,"start":111.913,"duration":0.2609,"velocity":127,"measure":54,"beat":3.5,"subject_pos":-1,"motif":"","motif_pos":-1,"best_pos":4,"similarity":0.786,"stretto":false,"stretto_voices":0,"combination":[],"aug_dim":"","rhythm_ratio":1.0,"mirror":false,"chromatic_density":0.417,"complexity":0.527,"dissonance":0.172},{"voice":1,"pitch":74,"start":112.1739,"duration":0.2609,"velocity":127,"measure":54,"beat":4.0,"subject_pos":-1,"motif":"","motif_pos":-1,"best_pos":5,"similarity":0.714,"stretto":false,"stretto_voices":0,"combination":[],"aug_dim":"","rhythm_ratio":1.0,"mirror":false,"chromatic_density":0.417,"complexity":0.527,"dissonance":0.172},{"voice":3,"pitch":47,"start":112.1739,"duration":0.2609,"velocity":127,"measure":54,"beat":4.0,"subject_pos":-1,"motif":"","motif_pos":-1,"best_pos":5,"similarity":0.75,"stretto":false,"stretto_voices":0,"combination":[],"aug_dim":"","rhythm_ratio":1.0,"mirror":false,"chromatic_density":0.417,"complexity":0.527,"dissonance":0.172},{"voice":1,"pitch":76,"start":112.4348,"duration":0.2609,"velocity":127,"measure":54,"beat":4.5,"subject_pos":-1,"motif":"","motif_pos":-1,"best_pos":6,"similarity":0.5,"stretto":false,"stretto_voices":0,"combination":[],"aug_dim":"","rhythm_ratio":1.0,"mirror":false,"chromatic_density":0.417,"complexity":0.527,"dissonance":0.172},{"voice":3,"pitch":49,"start":112.4348,"duration":0.2609,"velocity":127,"measure":54,"beat":4.5,"subject_pos":-1,"motif":"","motif_pos":-1,"best_pos":6,"similarity":0.714,"stretto":false,"stretto_voices":0,"combination":[],"aug_dim":"","rhythm_ratio":1.0,"mirror":false,"chromatic_density":0.417,"complexity":0.527,"dissonance":0.172},{"voice":1,"pitch":69,"start":112.6956,"duration":1.0435,"velocity":127,"measure":55,"beat":1.0,"subject_pos":0,"motif":"subject_inv","motif_pos":0,"best_pos":0,"similarity":1.0,"stretto":false,"stretto_voices":0,"combination":[],"aug_dim":"","rhythm_ratio":0.73,"mirror":false,"chromatic_density":0.538,"complexity":0.639,"dissonance":0.191},{"voice":3,"pitch":50,"start":112.6956,"duration":0.5217,"velocity":127,"measure":55,"beat":1.0,"subject_pos":-1,"motif":"","motif_pos":-1,"best_pos":5,"similarity":0.657,"stretto":false,"stretto_voices":0,"combination":[],"aug_dim":"","rhythm_ratio":1.0,"mirror":false,"chromatic_density":0.538,"complexity":0.639,"dissonance":0.191},{"voice":0,"pitch":78,"start":112.9565,"duration":0.2609,"velocity":127,"measure":55,"beat":1.5,"subject_pos":-1,"motif":"","motif_pos":-1,"best_pos":4,"similarity":0.743,"stretto":false,"stretto_voices":0,"combination":[],"aug_dim":"","rhythm_ratio":1.0,"mirror":false,"chromatic_density":0.538,"complexity":0.639,"dissonance":0.191},{"voice":2,"pitch":62,"start":112.9565,"duration":0.2609,"velocity":127,"measure":55,"beat":1.5,"subject_pos":-1,"motif":"","motif_pos":-1,"best_pos":3,"similarity":0.361,"stretto":false,"stretto_voices":0,"combination":[],"aug_dim":"","rhythm_ratio":1.0,"mirror":false,"chromatic_density":0.538,"complexity":0.639,"dissonance":0.191},{"voice":0,"pitch":79,"start":113.2174,"duration":0.2609,"velocity":127,"measure":55,"beat":2.0,"subject_pos":-1,"motif":"","motif_pos":-1,"best_pos":5,"similarity":0.736,"stretto":false,"stretto_voices":0,"combination":[],"aug_dim":"","rhythm_ratio":1.0,"mirror":false,"chromatic_density":0.538,"complexity":0.639,"dissonance":0.191},{"voice":2,"pitch":61,"start":113.2174,"duration":0.2609,"velocity":127,"measure":55,"beat":2.0,"subject_pos":-1,"motif":"","motif_pos":-1,"best_pos":3,"similarity":0.443,"stretto":false,"stretto_voices":0,"combination":[],"aug_dim":"","rhythm_ratio":1.0,"mirror":false,"chromatic_density":0.538,"complexity":0.639,"dissonance":0.191},{"voice":3,"pitch":52,"start":113.2174,"duration":0.2609,"velocity":127,"measure":55,"beat":2.0,"subject_pos":-1,"motif":"","motif_pos":-1,"best_pos":5,"similarity":0.607,"stretto":false,"stretto_voices":0,"combination":[],"aug_dim":"","rhythm_ratio":1.0,"mirror":false,"chromatic_density":0.538,"complexity":0.639,"dissonance":0.191},{"voice":0,"pitch":81,"start":113.4782,"duration":0.5217,"velocity":127,"measure":55,"beat":2.5,"subject_pos":-1,"motif":"","motif_pos":-1,"best_pos":6,"similarity":0.529,"stretto":false,"stretto_voices":0,"combination":[],"aug_dim":"","rhythm_ratio":1.0,"mirror":false,"chromatic_density":0.538,"complexity":0.639,"dissonance":0.191},{"voice":2,"pitch":60,"start":113.4782,"duration":0.5217,"velocity":127,"measure":55,"beat":2.5,"subject_pos":-1,"motif":"","motif_pos":-1,"best_pos":4,"similarity":0.496,"stretto":false,"stretto_voices":0,"combination":[],"aug_dim":"","rhythm_ratio":1.0,"mirror":false,"chromatic_density":0.538,"complexity":0.639,"dissonance":0.191},{"voice":3,"pitch":54,"start":113.4782,"duration":0.2609,"velocity":127,"measure":55,"beat":2.5,"subject_pos":-1,"motif":"enigmatic_cell","motif_pos":0,"best_pos":0,"similarity":1.0,"stretto":false,"stretto_voices":0,"combination":[],"aug_dim":"","rhythm_ratio":1.0,"mirror":false,"chromatic_density":0.538,"complexity":0.639,"dissonance":0.191},{"voice":1,"pitch":62,"start":113.7391,"duration":0.7826,"velocity":127,"measure":55,"beat":3.0,"subject_pos":1,"motif":"subject_inv","motif_pos":1,"best_pos":1,"similarity":1.0,"stretto":false,"stretto_voices":0,"combination":[],"aug_dim":"","rhythm_ratio":0.73,"mirror":false,"chromatic_density":0.538,"complexity":0.639,"dissonance":0.191},{"voice":3,"pitch":55,"start":113.7391,"duration":1.0435,"velocity":127,"measure":55,"beat":3.0,"subject_pos":-1,"motif":"enigmatic_cell","motif_pos":1,"best_pos":1,"similarity":1.0,"stretto":false,"stretto_voices":0,"combination":[],"aug_dim":"","rhythm_ratio":1.0,"mirror":false,"chromatic_density":0.538,"complexity":0.639,"dissonance":0.191},{"voice":0,"pitch":78,"start":114.0,"duration":0.2609,"velocity":127,"measure":55,"beat":3.5,"subject_pos":-1,"motif":"","motif_pos":-1,"best_pos":3,"similarity":0.379,"stretto":false,"stretto_voices":0,"combination":[],"aug_dim":"","rhythm_ratio":1.0,"mirror":false,"chromatic_density":0.538,"complexity":0.639,"dissonance":0.191},{"voice":2,"pitch":60,"start":114.0,"duration":0.2609,"velocity":127,"measure":55,"beat":3.5,"subject_pos":-1,"motif":"","motif_pos":-1,"best_pos":3,"similarity":0.429,"stretto":false,"stretto_voices":0,"combination":[],"aug_dim":"","rhythm_ratio":1.0,"mirror":false,"chromatic_density":0.538,"complexity":0.639,"dissonance":0.191},{"voice":0,"pitch":79,"start":114.2608,"duration":0.5217,"velocity":127,"measure":55,"beat":4.0,"subject_pos":-1,"motif":"","motif_pos":-1,"best_pos":5,"similarity":0.321,"stretto":false,"stretto_voices":0,"combination":[],"aug_dim":"","rhythm_ratio":1.0,"mirror":false,"chromatic_density":0.538,"complexity":0.639,"dissonance":0.191},{"voice":2,"pitch":59,"start":114.2608,"duration":0.2609,"velocity":127,"measure":55,"beat":4.0,"subject_pos":-1,"motif":"","motif_pos":-1,"best_pos":4,"similarity":0.439,"stretto":false,"stretto_voices":0,"combination":[],"aug_dim":"","rhythm_ratio":1.0,"mirror":false,"chromatic_density":0.538,"complexity":0.639,"dissonance":0.191},{"voice":1,"pitch":64,"start":114.5217,"duration":0.2609,"velocity":127,"measure":55,"beat":4.5,"subject_pos":-1,"motif":"subject_inv","motif_pos":1,"best_pos":1,"similarity":1.0,"stretto":false,"stretto_voices":0,"combination":[],"aug_dim":"","rhythm_ratio":0.73,"mirror":false,"chromatic_density":0.538,"complexity":0.639,"dissonance":0.191},{"voice":2,"pitch":58,"start":114.5217,"duration":0.2609,"velocity":127,"measure":55,"beat":4.5,"subject_pos":-1,"motif":"","motif_pos":-1,"best_pos":3,"similarity":0.5,"stretto":false,"stretto_voices":0,"combination":[],"aug_dim":"","rhythm_ratio":1.0,"mirror":false,"chromatic_density":0.538,"complexity":0.639,"dissonance":0.191},{"voice":1,"pitch":65,"start":114.7826,"duration":0.7826,"velocity":127,"measure":56,"beat":1.0,"subject_pos":2,"motif":"subject_inv","motif_pos":2,"best_pos":2,"similarity":1.0,"stretto":false,"stretto_voices":0,"combination":[],"aug_dim":"","rhythm_ratio":0.73,"mirror":false,"chromatic_density":0.364,"complexity":0.596,"dissonance":0.108},{"voice":2,"pitch":57,"start":114.7826,"duration":0.2609,"velocity":127,"measure":56,"beat":1.0,"subject_pos":-1,"motif":"tail","motif_pos":3,"best_pos":3,"similarity":1.0,"stretto":false,"stretto_voices":0,"combination":[],"aug_dim":"","rhythm_ratio":1.0,"mirror":false,"chromatic_density":0.364,"complexity":0.596,"dissonance":0.108},{"voice":3,"pitch":50,"start":114.7826,"duration":1.0435,"velocity":127,"measure":56,"beat":1.0,"subject_pos":-1,"motif":"enigmatic_cell","motif_pos":2,"best_pos":2,"similarity":1.0,"stretto":false,"stretto_voices":0,"combination":[],"aug_dim":"","rhythm_ratio":1.0,"mirror":false,"chromatic_density":0.364,"complexity":0.596,"dissonance":0.108},{"voice":2,"pitch":56,"start":115.0434,"duration":0.2609,"velocity":127,"measure":56,"beat":1.5,"subject_pos":-1,"motif":"tail","motif_pos":4,"best_pos":4,"similarity":1.0,"stretto":false,"stretto_voices":0,"combination":[],"aug_dim":"","rhythm_ratio":1.0,"mirror":false,"chromatic_density":0.364,"complexity":0.596,"dissonance":0.108},{"voice":2,"pitch":57,"start":115.3043,"duration":0.2609,"velocity":127,"measure":56,"beat":2.0,"subject_pos":-1,"motif":"tail","motif_pos":5,"best_pos":5,"similarity":1.0,"stretto":false,"stretto_voices":0,"combination":[],"aug_dim":"","rhythm_ratio":1.0,"mirror":false,"chromatic_density":0.364,"complexity":0.596,"dissonance":0.108},{"voice":1,"pitch":67,"start":115.5652,"duration":0.2609,"velocity":127,"measure":56,"beat":2.5,"subject_pos":-1,"motif":"subject_inv","motif_pos":2,"best_pos":2,"similarity":1.0,"stretto":false,"stretto_voices":0,"combination":[],"aug_dim":"","rhythm_ratio":0.73,"mirror":false,"chromatic_density":0.364,"complexity":0.596,"dissonance":0.108},{"voice":2,"pitch":59,"start":115.5652,"duration":0.2609,"velocity":127,"measure":56,"beat":2.5,"subject_pos":-1,"motif":"tail","motif_pos":6,"best_pos":6,"similarity":1.0,"stretto":false,"stretto_voices":0,"combination":[],"aug_dim":"","rhythm_ratio":1.0,"mirror":false,"chromatic_density":0.364,"complexity":0.596,"dissonance":0.108},{"voice":1,"pitch":69,"start":115.8261,"duration":0.7826,"velocity":127,"measure":56,"beat":3.0,"subject_pos":3,"motif":"subject_inv","motif_pos":3,"best_pos":3,"similarity":1.0,"stretto":false,"stretto_voices":0,"combination":[],"aug_dim":"","rhythm_ratio":0.73,"mirror":false,"chromatic_density":0.364,"complexity":0.596,"dissonance":0.108},{"voice":2,"pitch":60,"start":115.8261,"duration":0.5217,"velocity":127,"measure":56,"beat":3.0,"subject_pos":-1,"motif":"tail","motif_pos":7,"best_pos":7,"similarity":1.0,"stretto":false,"stretto_voices":0,"combination":[],"aug_dim":"","rhythm_ratio":1.0,"mirror":false,"chromatic_density":0.364,"complexity":0.596,"dissonance":0.108},{"voice":3,"pitch":48,"start":115.8261,"duration":0.2609,"velocity":127,"measure":56,"beat":3.0,"subject_pos":-1,"motif":"","motif_pos":-1,"best_pos":4,"similarity":0.489,"stretto":false,"stretto_voices":0,"combination":[],"aug_dim":"","rhythm_ratio":1.0,"mirror":false,"chromatic_density":0.364,"complexity":0.596,"dissonance":0.108},{"voice":3,"pitch":50,"start":116.0869,"duration":0.2609,"velocity":127,"measure":56,"beat":3.5,"subject_pos":-1,"motif":"","motif_pos":-1,"best_pos":5,"similarity":0.554,"stretto":false,"stretto_voices":0,"combination":[],"aug_dim":"","rhythm_ratio":1.0,"mirror":false,"chromatic_density":0.364,"complexity":0.596,"dissonance":0.108},{"voice":2,"pitch":61,"start":116.3478,"duration":1.0435,"velocity":127,"measure":56,"beat":4.0,"subject_pos":-1,"motif":"","motif_pos":-1,"best_pos":4,"similarity":0.593,"stretto":false,"stretto_voices":0,"combination":[],"aug_dim":"","rhythm_ratio":1.0,"mirror":false,"chromatic_density":0.364,"complexity":0.596,"dissonance":0.108},{"voice":3,"pitch":52,"start":116.3478,"duration":0.7826,"velocity":127,"measure":56,"beat":4.0,"subject_pos":-1,"motif":"","motif_pos":-1,"best_pos":6,"similarity":0.464,"stretto":false,"stretto_voices":0,"combination":[],"aug_dim":"","rhythm_ratio":1.0,"mirror":false,"chromatic_density":0.364,"complexity":0.596,"dissonance":0.108},{"voice":1,"pitch":67,"start":116.6087,"duration":0.2609,"velocity":127,"measure":56,"beat":4.5,"subject_pos":-1,"motif":"subject_inv","motif_pos":3,"best_pos":3,"similarity":1.0,"stretto":false,"stretto_voices":0,"combination":[],"aug_dim":"","rhythm_ratio":0.73,"mirror":false,"chromatic_density":0.364,"complexity":0.596,"dissonance":0.108},{"voice":1,"pitch":70,"start":116.8695,"duration":1.3043,"velocity":127,"measure":57,"beat":1.0,"subject_pos":4,"motif":"subject_inv","motif_pos":4,"best_pos":4,"similarity":1.0,"stretto":false,"stretto_voices":0,"combination":[],"aug_dim":"","rhythm_ratio":0.73,"mirror":false,"chromatic_density":0.556,"complexity":0.464,"dissonance":0.126},{"voice":3,"pitch":55,"start":117.1304,"duration":0.2609,"velocity":127,"measure":57,"beat":1.5,"subject_pos":-1,"motif":"","motif_pos":-1,"best_pos":1,"similarity":0.429,"stretto":false,"stretto_voices":0,"combination":[],"aug_dim":"","rhythm_ratio":1.0,"mirror":false,"chromatic_density":0.556,"complexity":0.464,"dissonance":0.126},{"voice":2,"pitch":62,"start":117.3913,"duration":0.2609,"velocity":127,"measure":57,"beat":2.0,"subject_pos":-1,"motif":"","motif_pos":-1,"best_pos":5,"similarity":0.757,"stretto":false,"stretto_voices":0,"combination":[],"aug_dim":"","rhythm_ratio":1.0,"mirror":false,"chromatic_density":0.556,"complexity":0.464,"dissonance":0.126},{"voice":3,"pitch":53,"start":117.3913,"duration":0.2609,"velocity":127,"measure":57,"beat":2.0,"subject_pos":-1,"motif":"","motif_pos":-1,"best_pos":2,"similarity":0.482,"stretto":false,"stretto_voices":0,"combination":[],"aug_dim":"","rhythm_ratio":1.0,"mirror":false,"chromatic_density":0.556,"complexity":0.464,"dissonance":0.126},{"voice":2,"pitch":64,"start":117.6521,"duration":0.2609,"velocity":127,"measure":57,"beat":2.5,"subject_pos":-1,"motif":"","motif_pos":-1,"best_pos":6,"similarity":0.732,"stretto":false,"stretto_voices":0,"combination":[],"aug_dim":"","rhythm_ratio":1.0,"mirror":false,"chromatic_density":0.556,"complexity":0.464,"dissonance":0.126},{"voice":3,"pitch":52,"start":117.6521,"duration":0.2609,"velocity":127,"measure":57,"beat":2.5,"subject_pos":-1,"motif":"","motif_pos":-1,"best_pos":2,"similarity":0.5,"stretto":false,"stretto_voices":0,"combination":[],"aug_dim":"","rhythm_ratio":1.0,"mirror":false,"chromatic_density":0.556,"complexity":0.464,"dissonance":0.126},{"voice":2,"pitch":65,"start":117.913,"duration":0.5217,"velocity":127,"measure":57,"beat":3.0,"subject_pos":-1,"motif":"","motif_pos":-1,"best_pos":7,"similarity":0.5,"stretto":false,"stretto_voices":0,"combination":[],"aug_dim":"","rhythm_ratio":1.0,"mirror":false,"chromatic_density":0.556,"complexity":0.464,"dissonance":0.126},{"voice":3,"pitch":50,"start":117.913,"duration":0.5217,"velocity":127,"measure":57,"beat":3.0,"subject_pos":-1,"motif":"","motif_pos":-1,"best_pos":3,"similarity":0.65,"stretto":false,"stretto_voices":0,"combination":[],"aug_dim":"","rhythm_ratio":1.0,"mirror":false,"chromatic_density":0.556,"complexity":0.464,"dissonance":0.126},{"voice":1,"pitch":69,"start":118.1739,"duration":0.5217,"velocity":127,"measure":57,"beat":3.5,"subject_pos":5,"motif":"subject_inv","motif_pos":5,"best_pos":5,"similarity":1.0,"stretto":false,"stretto_voices":0,"combination":[],"aug_dim":"","rhythm_ratio":0.73,"mirror":false,"chromatic_density":0.556,"complexity":0.464,"dissonance":0.126},{"voice":2,"pitch":64,"start":118.4348,"duration":0.5217,"velocity":127,"measure":57,"beat":4.0,"subject_pos":-1,"motif":"head_inv","motif_pos":0,"best_pos":0,"similarity":1.0,"stretto":false,"stretto_voices":0,"combination":[],"aug_dim":"","rhythm_ratio":1.0,"mirror":false,"chromatic_density":0.556,"complexity":0.464,"dissonance":0.126},{"voice":3,"pitch":49,"start":118.4348,"duration":0.5217,"velocity":127,"measure":57,"beat":4.0,"subject_pos":-1,"motif":"","motif_pos":-1,"best_pos":4,"similarity":0.711,"stretto":false,"stretto_voices":0,"combination":[],"aug_dim":"","rhythm_ratio":1.0,"mirror":false,"chromatic_density":0.556,"complexity":0.464,"dissonance":0.126},{"voice":1,"pitch":67,"start":118.6956,"duration":0.2609,"velocity":127,"measure":57,"beat":4.5,"subject_pos":6,"motif":"subject_inv","motif_pos":6,"best_pos":6,"similarity":1.0,"stretto":false,"stretto_voices":0,"combination":[],"aug_dim":"","rhythm_ratio":0.73,"mirror":false,"chromatic_density":0.556,"complexity":0.464,"dissonance":0.126},{"voice":0,"pitch":74,"start":118.9565,"duration":1.0435,"velocity":127,"measure":58,"beat":1.0,"subject_pos":0,"motif":"subject_inv","motif_pos":0,"best_pos":0,"similarity":1.0,"stretto":true,"stretto_voices":2,"combination":[],"aug_dim":"","rhythm_ratio":0.65,"mirror":false,"chromatic_density":0.25,"complexity":0.686,"dissonance":0.058},{"voice":1,"pitch":65,"start":118.9565,"duration":1.3043,"velocity":127,"measure":58,"beat":1.0,"subject_pos":7,"motif":"subject_inv","motif_pos":7,"best_pos":7,"similarity":1.0,"stretto":true,"stretto_voices":2,"combination":[],"aug_dim":"","rhythm_ratio":0.73,"mirror":false,"chromatic_density":0.25,"complexity":0.686,"dissonance":0.058},{"voice":3,"pitch":50,"start":118.9565,"duration":1.3043,"velocity":127,"measure":58,"beat":1.0,"subject_pos":-1,"motif":"","motif_pos":-1,"best_pos":5,"similarity":0.529,"stretto":false,"stretto_voices":0,"combination":[],"aug_dim":"","rhythm_ratio":1.0,"mirror":false,"chromatic_density":0.25,"complexity":0.686,"dissonance":0.058},{"voice":2,"pitch":57,"start":119.2174,"duration":0.2609,"velocity":127,"measure":58,"beat":1.5,"subject_pos":-1,"motif":"head_inv","motif_pos":1,"best_pos":1,"similarity":1.0,"stretto":false,"stretto_voices":0,"combination":[],"aug_dim":"","rhythm_ratio":1.0,"mirror":false,"chromatic_density":0.25,"complexity":0.686,"dissonance":0.058},{"voice":2,"pitch":59,"start":119.4782,"duration":0.2609,"velocity":127,"measure":58,"beat":2.0,"subject_pos":-1,"motif":"head_inv","motif_pos":2,"best_pos":2,"similarity":1.0,"stretto":false,"stretto_voices":0,"combination":[],"aug_dim":"","rhythm_ratio":1.0,"mirror":false,"chromatic_density":0.25,"complexity":0.686,"dissonance":0.058},{"voice":2,"pitch":61,"start":119.7391,"duration":0.2609,"velocity":127,"measure":58,"beat":2.5,"subject_pos":-1,"motif":"head_inv","motif_pos":3,"best_pos":3,"similarity":1.0,"stretto":false,"stretto_voices":0,"combination":[],"aug_dim":"","rhythm_ratio":1.0,"mirror":false,"chromatic_density":0.25,"complexity":0.686,"dissonance":0.058},{"voice":0,"pitch":69,"start":120.0,"duration":0.7826,"velocity":127,"measure":58,"beat":3.0,"subject_pos":1,"motif":"subject_inv","motif_pos":1,"best_pos":1,"similarity":1.0,"stretto":false,"stretto_voices":0,"combination":[],"aug_dim":"","rhythm_ratio":0.65,"mirror":false,"chromatic_density":0.25,"complexity":0.686,"dissonance":0.058},{"voice":2,"pitch":62,"start":120.0,"duration":0.2609,"velocity":127,"measure":58,"beat":3.0,"subject_pos":-1,"motif":"head_inv","motif_pos":4,"best_pos":4,"similarity":1.0,"stretto":false,"stretto_voices":0,"combination":[],"aug_dim":"","rhythm_ratio":1.0,"mirror":false,"chromatic_density":0.25,"complexity":0.686,"dissonance":0.058},{"voice":1,"pitch":64,"start":120.2608,"duration":0.2609,"velocity":127,"measure":58,"beat":3.5,"subject_pos":-1,"motif":"","motif_pos":-1,"best_pos":4,"similarity":0.786,"stretto":false,"stretto_voices":0,"combination":[],"aug_dim":"","rhythm_ratio":1.0,"mirror":false,"chromatic_density":0.25,"complexity":0.686,"dissonance":0.058},{"voice":2,"pitch":57,"start":120.2608,"duration":0.2609,"velocity":127,"measure":58,"beat":3.5,"subject_pos":-1,"motif":"","motif_pos":-1,"best_pos":2,"similarity":0.218,"stretto":false,"stretto_voices":0,"combination":[],"aug_dim":"","rhythm_ratio":1.0,"mirror":false,"chromatic_density":0.25,"complexity":0.686,"dissonance":0.058},{"voice":3,"pitch":48,"start":120.2608,"duration":0.5217,"velocity":127,"measure":58,"beat":3.5,"subject_pos":-1,"motif":"","motif_pos":-1,"best_pos":3,"similarity":0.464,"stretto":false,"stretto_voices":0,"combination":[],"aug_dim":"","rhythm_ratio":1.0,"mirror":false,"chromatic_density":0.25,"complexity":0.686,"dissonance":0.058},{"voice":1,"pitch":66,"start":120.5217,"duration":0.2609,"velocity":127,"measure":58,"beat":4.0,"subject_pos":-1,"motif":"","motif_pos":-1,"best_pos":5,"similarity":0.75,"stretto":false,"stretto_voices":0,"combination":[],"aug_dim":"","rhythm_ratio":1.0,"mirror":false,"chromatic_density":0.25,"complexity":0.686,"dissonance":0.058},{"voice":2,"pitch":50,"start":120.5217,"duration":0.5217,"velocity":127,"measure":58,"beat":4.0,"subject_pos":-1,"motif":"","motif_pos":-1,"best_pos":5,"similarity":0.343,"stretto":false,"stretto_voices":0,"combination":[],"aug_dim":"","rhythm_ratio":1.0,"mirror":false,"chromatic_density":0.25,"complexity":0.686,"dissonance":0.058},{"voice":0,"pitch":71,"start":120.7826,"duration":0.2609,"velocity":127,"measure":58,"beat":4.5,"subject_pos":-1,"motif":"subject_inv","motif_pos":1,"best_pos":1,"similarity":1.0,"stretto":false,"stretto_voices":0,"combination":[],"aug_dim":"","rhythm_ratio":0.65,"mirror":false,"chromatic_density":0.25,"complexity":0.686,"dissonance":0.058},{"voice":1,"pitch":68,"start":120.7826,"duration":0.2609,"velocity":127,"measure":58,"beat":4.5,"subject_pos":-1,"motif":"","motif_pos":-1,"best_pos":6,"similarity":0.714,"stretto":false,"stretto_voices":0,"combination":[],"aug_dim":"","rhythm_ratio":1.0,"mirror":false,"chromatic_density":0.25,"complexity":0.686,"dissonance":0.058},{"voice":3,"pitch":47,"start":120.7826,"duration":0.2609,"velocity":127,"measure":58,"beat":4.5,"subject_pos":-1,"motif":"","motif_pos":-1,"best_pos":3,"similarity":0.45,"stretto":false,"stretto_voices":0,"combination":[],"aug_dim":"","rhythm_ratio":1.0,"mirror":false,"chromatic_density":0.25,"complexity":0.686,"dissonance":0.058},{"voice":0,"pitch":72,"start":121.0434,"duration":0.7826,"velocity":127,"measure":59,"beat":1.0,"subject_pos":2,"motif":"subject_inv","motif_pos":2,"best_pos":2,"similarity":1.0,"stretto":false,"stretto_voices":0,"combination":[],"aug_dim":"","rhythm_ratio":0.65,"mirror":false,"chromatic_density":0.5,"complexity":0.643,"dissonance":0.14},{"voice":1,"pitch":69,"start":121.0434,"duration":0.2609,"velocity":127,"measure":59,"beat":1.0,"subject_pos":-1,"motif":"","motif_pos":-1,"best_pos":5,"similarity":0.729,"stretto":false,"stretto_voices":0,"combination":[],"aug_dim":"","rhythm_ratio":1.0,"mirror":false,"chromatic_density":0.5,"complexity":0.643,"dissonance":0.14},{"voice":2,"pitch":52,"start":121.0434,"duration":0.2609,"velocity":127,"measure":59,"beat":1.0,"subject_pos":-1,"motif":"tail","motif_pos":3,"best_pos":3,"similarity":1.0,"stretto":false,"stretto_voices":0,"combination":[],"aug_dim":"","rhythm_ratio":1.0,"mirror":false,"chromatic_density":0.5,"complexity":0.643,"dissonance":0.14},{"voice":3,"pitch":45,"start":121.0434,"duration":1.0435,"velocity":127,"measure":59,"beat":1.0,"subject_pos":-1,"motif":"","motif_pos":-1,"best_pos":2,"similarity":0.514,"stretto":false,"stretto_voices":0,"combination":[],"aug_dim":"","rhythm_ratio":1.0,"mirror":false,"chromatic_density":0.5,"complexity":0.643,"dissonance":0.14},{"voice":1,"pitch":71,"start":121.3043,"duration":0.2609,"velocity":127,"measure":59,"beat":1.5,"subject_pos":-1,"motif":"","motif_pos":-1,"best_pos":6,"similarity":0.721,"stretto":false,"stretto_voices":0,"combination":[],"aug_dim":"","rhythm_ratio":1.0,"mirror":false,"chromatic_density":0.5,"complexity":0.643,"dissonance":0.14},{"voice":2,"pitch":51,"start":121.3043,"duration":0.2609,"velocity":127,"measure":59,"beat":1.5,"subject_pos":-1,"motif":"tail","motif_pos":4,"best_pos":4,"similarity":1.0,"stretto":false,"stretto_voices":0,"combination":[],"aug_dim":"","rhythm_ratio":1.0,"mirror":false,"chromatic_density":0.5,"complexity":0.643,"dissonance":0.14},{"voice":1,"pitch":72,"start":121.5652,"duration":0.5217,"velocity":127,"measure":59,"beat":2.0,"subject_pos":-1,"motif":"","motif_pos":-1,"best_pos":7,"similarity":0.5,"stretto":false,"stretto_voices":0,"combination":[],"aug_dim":"","rhythm_ratio":1.0,"mirror":false,"chromatic_density":0.5,"complexity":0.643,"dissonance":0.14},{"voice":2,"pitch":52,"start":121.5652,"duration":0.2609,"velocity":127,"measure":59,"beat":2.0,"subject_pos":-1,"motif":"tail","motif_pos":5,"best_pos":5,"similarity":1.0,"stretto":false,"stretto_voices":0,"combination":[],"aug_dim":"","rhythm_ratio":1.0,"mirror":false,"chromatic_density":0.5,"complexity":0.643,"dissonance":0.14},{"voice":0,"pitch":74,"start":121.8261,"duration":0.2609,"velocity":127,"measure":59,"beat":2.5,"subject_pos":-1,"motif":"subject_inv","motif_pos":2,"best_pos":2,"similarity":1.0,"stretto":false,"stretto_voices":0,"combination":[],"aug_dim":"","rhythm_ratio":0.65,"mirror":false,"chromatic_density":0.5,"complexity":0.643,"dissonance":0.14},{"voice":2,"pitch":54,"start":121.8261,"duration":0.2609,"velocity":127,"measure":59,"beat":2.5,"subject_pos":-1,"motif":"tail","motif_pos":6,"best_pos":6,"similarity":1.0,"stretto":false,"stretto_voices":0,"combination":[],"aug_dim":"","rhythm_ratio":1.0,"mirror":false,"chromatic_density":0.5,"complexity":0.643,"dissonance":0.14},{"voice":0,"pitch":76,"start":122.0869,"duration":0.7826,"velocity":127,"measure":59,"beat":3.0,"subject_pos":3,"motif":"subject_inv","motif_pos":3,"best_pos":3,"similarity":1.0,"stretto":false,"stretto_voices":0,"combination":[],"aug_dim":"","rhythm_ratio":0.65,"mirror":false,"chromatic_density":0.5,"complexity":0.643,"dissonance":0.14},{"voice":1,"pitch":71,"start":122.0869,"duration":0.2609,"velocity":127,"measure":59,"beat":3.0,"subject_pos":-1,"motif":"","motif_pos":-1,"best_pos":4,"similarity":0.539,"stretto":false,"stretto_voices":0,"combination":[],"aug_dim":"","rhythm_ratio":1.0,"mirror":false,"chromatic_density":0.5,"complexity":0.643,"dissonance":0.14},{"voice":2,"pitch":55,"start":122.0869,"duration":0.7826,"velocity":127,"measure":59,"beat":3.0,"subject_pos":-1,"motif":"tail","motif_pos":7,"best_pos":7,"similarity":1.0,"stretto":false,"stretto_voices":0,"combination":[],"aug_dim":"","rhythm_ratio":1.0,"mirror":false,"chromatic_density":0.5,"complexity":0.643,"dissonance":0.14},{"voice":3,"pitch":43,"start":122.0869,"duration":0.2609,"velocity":127,"measure":59,"beat":3.0,"subject_pos":-1,"motif":"","motif_pos":-1,"best_pos":5,"similarity":0.546,"stretto":false,"stretto_voices":0,"combination":[],"aug_dim":"","rhythm_ratio":1.0,"mirror":false,"chromatic_density":0.5,"complexity":0.643,"dissonance":0.14},{"voice":1,"pitch":73,"start":122.3478,"duration":0.2609,"velocity":127,"measure":59,"beat":3.5,"subject_pos":-1,"motif":"","motif_pos":-1,"best_pos":6,"similarity":0.625,"stretto":false,"stretto_voices":0,"combination":[],"aug_dim":"","rhythm_ratio":1.0,"mirror":false,"chromatic_density":0.5,"complexity":0.643,"dissonance":0.14},{"voice":3,"pitch":45,"start":122.3478,"duration":0.2609,"velocity":127,"measure":59,"beat":3.5,"subject_pos":-1,"motif":"","motif_pos":-1,"best_pos":6,"similarity":0.621,"stretto":false,"stretto_voices":0,"combination":[],"aug_dim":"","rhythm_ratio":1.0,"mirror":false,"chromatic_density":0.5,"complexity":0.643,"dissonance":0.14},{"voice":1,"pitch":74,"start":122.6087,"duration":0.5217,"velocity":127,"measure":59,"beat":4.0,"subject_pos":-1,"motif":"","motif_pos":-1,"best_pos":7,"similarity":0.446,"stretto":false,"stretto_voices":0,"combination":[],"aug_dim":"","rhythm_ratio":1.0,"mirror":false,"chromatic_density":0.5,"complexity":0.643,"dissonance":0.14},{"voice":3,"pitch":46,"start":122.6087,"duration":0.5217,"velocity":127,"measure":59,"beat":4.0,"subject_pos":-1,"motif":"enigmatic_cell","motif_pos":0,"best_pos":0,"similarity":1.0,"stretto":false,"stretto_voices":0,"combination":[],"aug_dim":"","rhythm_ratio":1.0,"mirror":false,"chromatic_density":0.5,"complexity":0.643,"dissonance":0.14},{"voice":0,"pitch":74,"start":122.8695,"duration":0.2609,"velocity":127,"measure":59,"beat":4.5,"subject_pos":-1,"motif":"subject_inv","motif_pos":3,"best_pos":3,"similarity":1.0,"stretto":false,"stretto_voices":0,"combination":[],"aug_dim":"","rhythm_ratio":0.65,"mirror":false,"chromatic_density":0.5,"complexity":0.643,"dissonance":0.14},{"voice":2,"pitch":56,"start":122.8695,"duration":0.2609,"velocity":127,"measure":59,"beat":4.5,"subject_pos":-1,"motif":"","motif_pos":-1,"best_pos":6,"similarity":0.579,"stretto":false,"stretto_voices":0,"combination":[],"aug_dim":"","rhythm_ratio":1.0,"mirror":false,"chromatic_density":0.5,"complexity":0.643,"dissonance":0.14},{"voice":0,"pitch":77,"start":123.1304,"duration":1.3043,"velocity":127,"measure":60,"beat":1.0,"subject_pos":4,"motif":"subject_inv","motif_pos":4,"best_pos":4,"similarity":1.0,"stretto":false,"stretto_voices":0,"combination":[],"aug_dim":"","rhythm_ratio":0.65,"mirror":false,"chromatic_density":0.538,"complexity":0.59,"dissonance":0.15},{"voice":1,"pitch":73,"start":123.1304,"duration":0.2609,"velocity":127,"measure":60,"beat":1.0,"subject_pos":-1,"motif":"","motif_pos":-1,"best_pos":4,"similarity":0.411,"stretto":false,"stretto_voices":0,"combination":[],"aug_dim":"","rhythm_ratio":1.0,"mirror":false,"chromatic_density":0.538,"complexity":0.59,"dissonance":0.15},{"voice":2,"pitch":57,"start":123.1304,"duration":0.5217,"velocity":127,"measure":60,"beat":1.0,"subject_pos":-1,"motif":"","motif_pos":-1,"best_pos":7,"similarity":0.429,"stretto":false,"stretto_voices":0,"combination":[],"aug_dim":"","rhythm_ratio":1.0,"mirror":false,"chromatic_density":0.538,"complexity":0.59,"dissonance":0.15},{"voice":3,"pitch":45,"start":123.1304,"duration":0.2609,"velocity":127,"measure":60,"beat":1.0,"subject_pos":-1,"motif":"enigmatic_cell","motif_pos":1,"best_pos":1,"similarity":1.0,"stretto":false,"stretto_voices":0,"combination":[],"aug_dim":"","rhythm_ratio":1.0,"mirror":false,"chromatic_density":0.538,"complexity":0.59,"dissonance":0.15},{"voice":1,"pitch":72,"start":123.3913,"duration":0.2609,"velocity":127,"measure":60,"beat":1.5,"subject_pos":-1,"motif":"","motif_pos":-1,"best_pos":2,"similarity":0.5,"stretto":false,"stretto_voices":0,"combination":[],"aug_dim":"","rhythm_ratio":1.0,"mirror":false,"chromatic_density":0.538,"complexity":0.59,"dissonance":0.15},{"voice":3,"pitch":50,"start":123.3913,"duration":0.2609,"velocity":127,"measure":60,"beat":1.5,"subject_pos":-1,"motif":"enigmatic_cell","motif_pos":2,"best_pos":2,"similarity":1.0,"stretto":false,"stretto_voices":0,"combination":[],"aug_dim":"","rhythm_ratio":1.0,"mirror":false,"chromatic_density":0.538,"complexity":0.59,"dissonance":0.15},{"voice":1,"pitch":70,"start":123.6521,"duration":0.2609,"velocity":127,"measure":60,"beat":2.0,"subject_pos":-1,"motif":"","motif_pos":-1,"best_pos":3,"similarity":0.679,"stretto":false,"stretto_voices":0,"combination":[],"aug_dim":"","rhythm_ratio":1.0,"mirror":false,"chromatic_density":0.538,"complexity":0.59,"dissonance":0.15},{"voice":3,"pitch":52,"start":123.6521,"duration":0.2609,"velocity":127,"measure":60,"beat":2.0,"subject_pos":-1,"motif":"","motif_pos":-1,"best_pos":6,"similarity":0.657,"stretto":false,"stretto_voices":0,"combination":[],"aug_dim":"","rhythm_ratio":1.0,"mirror":false,"chromatic_density":0.538,"complexity":0.59,"dissonance":0.15},{"voice":1,"pitch":69,"start":123.913,"duration":0.2609,"velocity":127,"measure":60,"beat":2.5,"subject_pos":-1,"motif":"","motif_pos":-1,"best_pos":4,"similarity":0.757,"stretto":false,"stretto_voices":0,"combination":[],"aug_dim":"","rhythm_ratio":1.0,"mirror":false,"chromatic_density":0.538,"complexity":0.59,"dissonance":0.15},{"voice":3,"pitch":53,"start":123.913,"duration":0.2609,"velocity":127,"measure":60,"beat":2.5,"subject_pos":-1,"motif":"","motif_pos":-1,"best_pos":5,"similarity":0.729,"stretto":false,"stretto_voices":0,"combination":[],"aug_dim":"","rhythm_ratio":1.0,"mirror":false,"chromatic_density":0.538,"complexity":0.59,"dissonance":0.15},{"voice":1,"pitch":70,"start":124.1739,"duration":0.5217,"velocity":127,"measure":60,"beat":3.0,"subject_pos":-1,"motif":"","motif_pos":-1,"best_pos":5,"similarity":0.621,"stretto":false,"stretto_voices":0,"combination":[],"aug_dim":"","rhythm_ratio":1.0,"mirror":false,"chromatic_density":0.538,"complexity":0.59,"dissonance":0.15},{"voice":3,"pitch":55,"start":124.1739,"duration":0.5217,"velocity":127,"measure":60,"beat":3.0,"subject_pos":-1,"motif":"","motif_pos":-1,"best_pos":6,"similarity":0.721,"stretto":false,"stretto_voices":0,"combination":[],"aug_dim":"","rhythm_ratio":1.0,"mirror":false,"chromatic_density":0.538,"complexity":0.59,"dissonance":0.15},{"voice":0,"pitch":76,"start":124.4348,"duration":0.5217,"velocity":127,"measure":60,"beat":3.5,"subject_pos":5,"motif":"subject_inv","motif_pos":5,"best_pos":5,"similarity":1.0,"stretto":false,"stretto_voices":0,"combination":[],"aug_dim":"","rhythm_ratio":0.65,"mirror":false,"chromatic_density":0.538,"complexity":0.59,"dissonance":0.15},{"voice":1,"pitch":71,"start":124.6956,"duration":0.5217,"velocity":127,"measure":60,"beat":4.0,"subject_pos":-1,"motif":"","motif_pos":-1,"best_pos":1,"similarity":0.457,"stretto":false,"stretto_voices":0,"combination":[],"aug_dim":"","rhythm_ratio":1.0,"mirror":false,"chromatic_density":0.538,"complexity":0.59,"dissonance":0.15},{"voice":2,"pitch":64,"start":124.6956,"duration":0.5217,"velocity":127,"measure":60,"beat":4.0,"subject_pos":-1,"motif":"","motif_pos":-1,"best_pos":1,"similarity":0.371,"stretto":false,"stretto_voices":0,"combination":[],"aug_dim":"","rhythm_ratio":1.0,"mirror":false,"chromatic_density":0.538,"complexity":0.59,"dissonance":0.15},{"voice":3,"pitch":56,"start":124.6956,"duration":0.5217,"velocity":127,"measure":60,"beat":4.0,"subject_pos":-1,"motif":"","motif_pos":-1,"best_pos":5,"similarity":0.593,"stretto":false,"stretto_voices":0,"combination":[],"aug_dim":"","rhythm_ratio":1.0,"mirror":false,"chromatic_density":0.538,"complexity":0.59,"dissonance":0.15},{"voice":0,"pitch":74,"start":124.9565,"duration":0.2609,"velocity":127,"measure":60,"beat":4.5,"subject_pos":6,"motif":"subject_inv","motif_pos":6,"best_pos":6,"similarity":1.0,"stretto":false,"stretto_voices":0,"combination":[],"aug_dim":"","rhythm_ratio":0.65,"mirror":false,"chromatic_density":0.538,"complexity":0.59,"dissonance":0.15},{"voice":0,"pitch":73,"start":125.2174,"duration":0.5217,"velocity":127,"measure":61,"beat":1.0,"subject_pos":7,"motif":"subject_inv","motif_pos":7,"best_pos":7,"similarity":1.0,"stretto":false,"stretto_voices":0,"combination":[],"aug_dim":"","rhythm_ratio":0.65,"mirror":false,"chromatic_density":0.429,"complexity":0.618,"dissonance":0.05},{"voice":1,"pitch":69,"start":125.2174,"duration":0.2609,"velocity":127,"measure":61,"beat":1.0,"subject_pos":-1,"motif":"","motif_pos":-1,"best_pos":2,"similarity":0.604,"stretto":false,"stretto_voices":0,"combination":[],"aug_dim":"","rhythm_ratio":1.0,"mirror":false,"chromatic_density":0.429,"complexity":0.618,"dissonance":0.05},{"voice":2,"pitch":64,"start":125.2174,"duration":0.5217,"velocity":127,"measure":61,"beat":1.0,"subject_pos":-1,"motif":"","motif_pos":-1,"best_pos":2,"similarity":0.261,"stretto":false,"stretto_voices":0,"combination":[],"aug_dim":"","rhythm_ratio":1.0,"mirror":false,"chromatic_density":0.429,"complexity":0.618,"dissonance":0.05},{"voice":3,"pitch":57,"start":125.2174,"duration":0.2609,"velocity":127,"measure":61,"beat":1.0,"subject_pos":-1,"motif":"","motif_pos":-1,"best_pos":6,"similarity":0.579,"stretto":false,"stretto_voices":0,"combination":[],"aug_dim":"","rhythm_ratio":1.0,"mirror":false,"chromatic_density":0.429,"complexity":0.618,"dissonance":0.05},{"voice":1,"pitch":67,"start":125.4782,"duration":0.2609,"velocity":127,"measure":61,"beat":1.5,"subject_pos":-1,"motif":"","motif_pos":-1,"best_pos":3,"similarity":0.614,"stretto":false,"stretto_voices":0,"combination":[],"aug_dim":"","rhythm_ratio":1.0,"mirror":false,"chromatic_density":0.429,"complexity":0.618,"dissonance":0.05},{"voice":3,"pitch":58,"start":125.4782,"duration":0.2609,"velocity":127,"measure":61,"beat":1.5,"subject_pos":-1,"motif":"","motif_pos":-1,"best_pos":7,"similarity":0.429,"stretto":false,"stretto_voices":0,"combination":[],"aug_dim":"","rhythm_ratio":1.0,"mirror":false,"chromatic_density":0.429,"complexity":0.618,"dissonance":0.05},{"voice":0,"pitch":72,"start":125.7391,"duration":0.7826,"velocity":127,"measure":61,"beat":2.0,"subject_pos":-1,"motif":"","motif_pos":-1,"best_pos":4,"similarity":0.6,"stretto":false,"stretto_voices":0,"combination":[],"aug_dim":"","rhythm_ratio":1.0,"mirror":false,"chromatic_density":0.429,"complexity":0.618,"dissonance":0.05},{"voice":1,"pitch":66,"start":125.7391,"duration":0.2609,"velocity":127,"measure":61,"beat":2.0,"subject_pos":-1,"motif":"","motif_pos":-1,"best_pos":4,"similarity":0.507,"stretto":false,"stretto_voices":0,"combination":[],"aug_dim":"","rhythm_ratio":1.0,"mirror":false,"chromatic_density":0.429,"complexity":0.618,"dissonance":0.05},{"voice":3,"pitch":57,"start":125.7391,"duration":0.2609,"velocity":127,"measure":61,"beat":2.0,"subject_pos":-1,"motif":"","motif_pos":-1,"best_pos":2,"similarity":0.514,"stretto":false,"stretto_voices":0,"combination":[],"aug_dim":"","rhythm_ratio":1.0,"mirror":false,"chromatic_density":0.429,"complexity":0.618,"dissonance":0.05},{"voice":1,"pitch":69,"start":126.0,"duration":0.2609,"velocity":127,"measure":61,"beat":2.5,"subject_pos":-1,"motif":"","motif_pos":-1,"best_pos":5,"similarity":0.264,"stretto":false,"stretto_voices":0,"combination":[],"aug_dim":"","rhythm_ratio":1.0,"mirror":false,"chromatic_density":0.429,"complexity":0.618,"dissonance":0.05},{"voice":3,"pitch":55,"start":126.0,"duration":0.2609,"velocity":127,"measure":61,"beat":2.5,"subject_pos":-1,"motif":"tail","motif_pos":3,"best_pos":3,"similarity":1.0,"stretto":false,"stretto_voices":0,"combination":[],"aug_dim":"","rhythm_ratio":1.0,"mirror":false,"chromatic_density":0.429,"complexity":0.618,"dissonance":0.05},{"voice":1,"pitch":62,"start":126.2608,"duration":1.3043,"velocity":127,"measure":61,"beat":3.0,"subject_pos":-1,"motif":"","motif_pos":-1,"best_pos":5,"similarity":0.246,"stretto":false,"stretto_voices":0,"combination":[],"aug_dim":"","rhythm_ratio":1.0,"mirror":false,"chromatic_density":0.429,"complexity":0.618,"dissonance":0.05},{"voice":3,"pitch":54,"start":126.2608,"duration":0.5217,"velocity":127,"measure":61,"beat":3.0,"subject_pos":-1,"motif":"tail","motif_pos":4,"best_pos":4,"similarity":1.0,"stretto":false,"stretto_voices":0,"combination":[],"aug_dim":"","rhythm_ratio":1.0,"mirror":false,"chromatic_density":0.429,"complexity":0.618,"dissonance":0.05},{"voice":0,"pitch":69,"start":126.5217,"duration":0.2609,"velocity":127,"measure":61,"beat":3.5,"subject_pos":-1,"motif":"","motif_pos":-1,"best_pos":5,"similarity":0.546,"stretto":false,"stretto_voices":0,"combination":[],"aug_dim":"","rhythm_ratio":1.0,"mirror":false,"chromatic_density":0.429,"complexity":0.618,"dissonance":0.05},{"voice":0,"pitch":71,"start":126.7826,"duration":0.2609,"velocity":127,"measure":61,"beat":4.0,"subject_pos":-1,"motif":"","motif_pos":-1,"best_pos":5,"similarity":0.625,"stretto":false,"stretto_voices":0,"combination":[],"aug_dim":"","rhythm_ratio":1.0,"mirror":false,"chromatic_density":0.429,"complexity":0.618,"dissonance":0.05},{"voice":3,"pitch":55,"start":126.7826,"duration":0.2609,"velocity":127,"measure":61,"beat":4.0,"subject_pos":-1,"motif":"tail","motif_pos":5,"best_pos":5,"similarity":1.0,"stretto":false,"stretto_voices":0,"combination":[],"aug_dim":"","rhythm_ratio":1.0,"mirror":false,"chromatic_density":0.429,"complexity":0.618,"dissonance":0.05},{"voice":0,"pitch":73,"start":127.0434,"duration":0.2609,"velocity":127,"measure":61,"beat":4.5,"subject_pos":-1,"motif":"","motif_pos":-1,"best_pos":6,"similarity":0.661,"stretto":false,"stretto_voices":0,"combination":[],"aug_dim":"","rhythm_ratio":1.0,"mirror":false,"chromatic_density":0.429,"complexity":0.618,"dissonance":0.05},{"voice":3,"pitch":57,"start":127.0434,"duration":0.2609,"velocity":127,"measure":61,"beat":4.5,"subject_pos":-1,"motif":"tail","motif_pos":6,"best_pos":6,"similarity":1.0,"stretto":false,"stretto_voices":0,"combination":[],"aug_dim":"","rhythm_ratio":1.0,"mirror":false,"chromatic_density":0.429,"complexity":0.618,"dissonance":0.05},{"voice":0,"pitch":74,"start":127.3043,"duration":1.3043,"velocity":127,"measure":62,"beat":1.0,"subject_pos":-1,"motif":"","motif_pos":-1,"best_pos":7,"similarity":0.464,"stretto":false,"stretto_voices":0,"combination":[],"aug_dim":"","rhythm_ratio":1.0,"mirror":false,"chromatic_density":0.467,"complexity":0.434,"dissonance":0.191},{"voice":3,"pitch":58,"start":127.3043,"duration":0.2609,"velocity":127,"measure":62,"beat":1.0,"subject_pos":-1,"motif":"tail","motif_pos":7,"best_pos":7,"similarity":1.0,"stretto":false,"stretto_voices":0,"combination":[],"aug_dim":"","rhythm_ratio":1.0,"mirror":false,"chromatic_density":0.467,"complexity":0.434,"dissonance":0.191},{"voice":1,"pitch":66,"start":127.5652,"duration":0.2609,"velocity":127,"measure":62,"beat":1.5,"subject_pos":-1,"motif":"","motif_pos":-1,"best_pos":4,"similarity":0.514,"stretto":false,"stretto_voices":0,"combination":[],"aug_dim":"","rhythm_ratio":1.0,"mirror":false,"chromatic_density":0.467,"complexity":0.434,"dissonance":0.191},{"voice":3,"pitch":60,"start":127.5652,"duration":0.2609,"velocity":127,"measure":62,"beat":1.5,"subject_pos":-1,"motif":"","motif_pos":-1,"best_pos":6,"similarity":0.464,"stretto":false,"stretto_voices":0,"combination":[],"aug_dim":"","rhythm_ratio":1.0,"mirror":false,"chromatic_density":0.467,"complexity":0.434,"dissonance":0.191},{"voice":1,"pitch":67,"start":127.8261,"duration":0.2609,"velocity":127,"measure":62,"beat":2.0,"subject_pos":-1,"motif":"","motif_pos":-1,"best_pos":5,"similarity":0.721,"stretto":false,"stretto_voices":0,"combination":[],"aug_dim":"","rhythm_ratio":1.0,"mirror":false,"chromatic_density":0.467,"complexity":0.434,"dissonance":0.191},{"voice":3,"pitch":58,"start":127.8261,"duration":0.2609,"velocity":127,"measure":62,"beat":2.0,"subject_pos":-1,"motif":"","motif_pos":-1,"best_pos":3,"similarity":0.471,"stretto":false,"stretto_voices":0,"combination":[],"aug_dim":"","rhythm_ratio":1.0,"mirror":false,"chromatic_density":0.467,"complexity":0.434,"dissonance":0.191},{"voice":1,"pitch":69,"start":128.0869,"duration":0.2609,"velocity":127,"measure":62,"beat":2.5,"subject_pos":-1,"motif":"","motif_pos":-1,"best_pos":6,"similarity":0.714,"stretto":false,"stretto_voices":0,"combination":[],"aug_dim":"","rhythm_ratio":1.0,"mirror":false,"chromatic_density":0.467,"complexity":0.434,"dissonance":0.191},{"voice":3,"pitch":57,"start":128.0869,"duration":0.2609,"velocity":127,"measure":62,"beat":2.5,"subject_pos":-1,"motif":"","motif_pos":-1,"best_pos":1,"similarity":0.429,"stretto":false,"stretto_voices":0,"combination":[],"aug_dim":"","rhythm_ratio":1.0,"mirror":false,"chromatic_density":0.467,"complexity":0.434,"dissonance":0.191},{"voice":1,"pitch":70,"start":128.3478,"duration":0.2609,"velocity":127,"measure":62,"beat":3.0,"subject_pos":-1,"motif":"","motif_pos":-1,"best_pos":4,"similarity":0.579,"stretto":false,"stretto_voices":0,"combination":[],"aug_dim":"","rhythm_ratio":1.0,"mirror":false,"chromatic_density":0.467,"complexity":0.434,"dissonance":0.191},{"voice":3,"pitch":55,"start":128.3478,"duration":0.2609,"velocity":127,"measure":62,"beat":3.0,"subject_pos":-1,"motif":"","motif_pos":-1,"best_pos":2,"similarity":0.579,"stretto":false,"stretto_voices":0,"combination":[],"aug_dim":"","rhythm_ratio":1.0,"mirror":false,"chromatic_density":0.467,"complexity":0.434,"dissonance":0.191},{"voice":0,"pitch":74,"start":128.6087,"duration":0.2609,"velocity":127,"measure":62,"beat":3.5,"subject_pos":-1,"motif":"","motif_pos":-1,"best_pos":5,"similarity":0.607,"stretto":false,"stretto_voices":0,"combination":[],"aug_dim":"","rhythm_ratio":1.0,"mirror":false,"chromatic_density":0.467,"complexity":0.434,"dissonance":0.191},{"voice":1,"pitch":71,"start":128.6087,"duration":0.2609,"velocity":127,"measure":62,"beat":3.5,"subject_pos":-1,"motif":"","motif_pos":-1,"best_pos":5,"similarity":0.75,"stretto":false,"stretto_voices":0,"combination":[],"aug_dim":"","rhythm_ratio":1.0,"mirror":false,"chromatic_density":0.467,"complexity":0.434,"dissonance":0.191},{"voice":3,"pitch":53,"start":128.6087,"duration":0.2609,"velocity":127,"measure":62,"beat":3.5,"subject_pos":-1,"motif":"","motif_pos":-1,"best_pos":3,"similarity":0.593,"stretto":false,"stretto_voices":0,"combination":[],"aug_dim":"","rhythm_ratio":1.0,"mirror":false,"chromatic_density":0.467,"complexity":0.434,"dissonance":0.191},{"voice":0,"pitch":76,"start":128.8695,"duration":0.2609,"velocity":127,"measure":62,"beat":4.0,"subject_pos":-1,"motif":"","motif_pos":-1,"best_pos":6,"similarity":0.661,"stretto":false,"stretto_voices":0,"combination":[],"aug_dim":"","rhythm_ratio":1.0,"mirror":false,"chromatic_density":0.467,"complexity":0.434,"dissonance":0.191},{"voice":1,"pitch":73,"start":128.8695,"duration":0.2609,"velocity":127,"measure":62,"beat":4.0,"subject_pos":-1,"motif":"","motif_pos":-1,"best_pos":6,"similarity":0.732,"stretto":false,"stretto_voices":0,"combination":[],"aug_dim":"","rhythm_ratio":1.0,"mirror":false,"chromatic_density":0.467,"complexity":0.434,"dissonance":0.191},{"voice":3,"pitch":52,"start":128.8695,"duration":0.2609,"velocity":127,"measure":62,"beat":4.0,"subject_pos":-1,"motif":"","motif_pos":-1,"best_pos":4,"similarity":0.489,"stretto":false,"stretto_voices":0,"combination":[],"aug_dim":"","rhythm_ratio":1.0,"mirror":false,"chromatic_density":0.467,"complexity":0.434,"dissonance":0.191},{"voice":0,"pitch":77,"start":129.1304,"duration":0.2609,"velocity":127,"measure":62,"beat":4.5,"subject_pos":-1,"motif":"","motif_pos":-1,"best_pos":5,"similarity":0.629,"stretto":false,"stretto_voices":0,"combination":[],"aug_dim":"","rhythm_ratio":1.0,"mirror":false,"chromatic_density":0.467,"complexity":0.434,"dissonance":0.191},{"voice":1,"pitch":74,"start":129.1304,"duration":0.2609,"velocity":127,"measure":62,"beat":4.5,"subject_pos":-1,"motif":"","motif_pos":-1,"best_pos":5,"similarity":0.607,"stretto":false,"stretto_voices":0,"combination":[],"aug_dim":"","rhythm_ratio":1.0,"mirror":false,"chromatic_density":0.467,"complexity":0.434,"dissonance":0.191},{"voice":3,"pitch":50,"start":129.1304,"duration":0.2609,"velocity":127,"measure":62,"beat":4.5,"subject_pos":-1,"motif":"","motif_pos":-1,"best_pos":3,"similarity":0.543,"stretto":false,"stretto_voices":0,"combination":[],"aug_dim":"","rhythm_ratio":1.0,"mirror":false,"chromatic_density":0.467,"complexity":0.434,"dissonance":0.191},{"voice":0,"pitch":79,"start":129.3913,"duration":0.7826,"velocity":127,"measure":63,"beat":1.0,"subject_pos":-1,"motif":"","motif_pos":-1,"best_pos":6,"similarity":0.507,"stretto":false,"stretto_voices":0,"combination":[],"aug_dim":"","rhythm_ratio":1.0,"mirror":false,"chromatic_density":0.615,"complexity":0.615,"dissonance":0.183},{"voice":1,"pitch":76,"start":129.3913,"duration":0.2609,"velocity":127,"measure":63,"beat":1.0,"subject_pos":-1,"motif":"","motif_pos":-1,"best_pos":6,"similarity":0.464,"stretto":false,"stretto_voices":0,"combination":[],"aug_dim":"","rhythm_ratio":1.0,"mirror":false,"chromatic_density":0.615,"complexity":0.615,"dissonance":0.183},{"voice":2,"pitch":57,"start":129.3913,"duration":1.0435,"velocity":127,"measure":63,"beat":1.0,"subject_pos":0,"motif":"subject_inv","motif_pos":0,"best_pos":0,"similarity":1.0,"stretto":false,"stretto_voices":0,"combination":[],"aug_dim":"","rhythm_ratio":1.0,"mirror":false,"chromatic_density":0.615,"complexity":0.615,"dissonance":0.183},{"voice":3,"pitch":49,"start":129.3913,"duration":0.5217,"velocity":127,"measure":63,"beat":1.0,"subject_pos":-1,"motif":"","motif_pos":-1,"best_pos":3,"similarity":0.543,"stretto":false,"stretto_voices":0,"combination":[],"aug_dim":"","rhythm_ratio":1.0,"mirror":false,"chromatic_density":0.615,"complexity":0.615,"dissonance":0.183},{"voice":1,"pitch":74,"start":129.6521,"duration":0.2609,"velocity":127,"measure":63,"beat":1.5,"subject_pos":-1,"motif":"enigmatic_cell","motif_pos":0,"best_pos":0,"similarity":1.0,"stretto":false,"stretto_voices":0,"combination":[],"aug_dim":"","rhythm_ratio":1.0,"mirror":false,"chromatic_density":0.615,"complexity":0.615,"dissonance":0.183},{"voice":1,"pitch":75,"start":129.913,"duration":0.2609,"velocity":127,"measure":63,"beat":2.0,"subject_pos":-1,"motif":"enigmatic_cell","motif_pos":1,"best_pos":1,"similarity":1.0,"stretto":false,"stretto_voices":0,"combination":[],"aug_dim":"","rhythm_ratio":1.0,"mirror":false,"chromatic_density":0.615,"complexity":0.615,"dissonance":0.183},{"voice":3,"pitch":48,"start":129.913,"duration":1.0435,"velocity":127,"measure":63,"beat":2.0,"subject_pos":-1,"motif":"","motif_pos":-1,"best_pos":4,"similarity":0.496,"stretto":false,"stretto_voices":0,"combination":[],"aug_dim":"","rhythm_ratio":1.0,"mirror":false,"chromatic_density":0.615,"complexity":0.615,"dissonance":0.183},{"voice":0,"pitch":78,"start":130.1739,"duration":0.2609,"velocity":127,"measure":63,"beat":2.5,"subject_pos":-1,"motif":"","motif_pos":-1,"best_pos":4,"similarity":0.721,"stretto":false,"stretto_voices":0,"combination":[],"aug_dim":"","rhythm_ratio":1.0,"mirror":false,"chromatic_density":0.615,"complexity":0.615,"dissonance":0.183},{"voice":1,"pitch":69,"start":130.1739,"duration":0.2609,"velocity":127,"measure":63,"beat":2.5,"subject_pos":-1,"motif":"enigmatic_cell","motif_pos":2,"best_pos":2,"similarity":1.0,"stretto":false,"stretto_voices":0,"combination":[],"aug_dim":"","rhythm_ratio":1.0,"mirror":false,"chromatic_density":0.615,"complexity":0.615,"dissonance":0.183},{"voice":0,"pitch":79,"start":130.4348,"duration":0.7826,"velocity":127,"measure":63,"beat":3.0,"subject_pos":-1,"motif":"","motif_pos":-1,"best_pos":5,"similarity":0.714,"stretto":false,"stretto_voices":0,"combination":[],"aug_dim":"","rhythm_ratio":1.0,"mirror":false,"chromatic_density":0.615,"complexity":0.615,"dissonance":0.183},{"voice":1,"pitch":70,"start":130.4348,"duration":0.2609,"velocity":127,"measure":63,"beat":3.0,"subject_pos":-1,"motif":"","motif_pos":-1,"best_pos":5,"similarity":0.65,"stretto":false,"stretto_voices":0,"combination":[],"aug_dim":"","rhythm_ratio":1.0,"mirror":false,"chromatic_density":0.615,"complexity":0.615,"dissonance":0.183},{"voice":2,"pitch":50,"start":130.4348,"duration":1.0435,"velocity":127,"measure":63,"beat":3.0,"subject_pos":1,"motif":"subject_inv","motif_pos":1,"best_pos":1,"similarity":1.0,"stretto":false,"stretto_voices":0,"combination":[],"aug_dim":"","rhythm_ratio":1.0,"mirror":false,"chromatic_density":0.615,"complexity":0.615,"dissonance":0.183},{"voice":1,"pitch":72,"start":130.6956,"duration":0.2609,"velocity":127,"measure":63,"beat":3.5,"subject_pos":-1,"motif":"","motif_pos":-1,"best_pos":6,"similarity":0.571,"stretto":false,"stretto_voices":0,"combination":[],"aug_dim":"","rhythm_ratio":1.0,"mirror":false,"chromatic_density":0.615,"complexity":0.615,"dissonance":0.183},{"voice":1,"pitch":74,"start":130.9565,"duration":1.0435,"velocity":127,"measure":63,"beat":4.0,"subject_pos":-1,"motif":"","motif_pos":-1,"best_pos":6,"similarity":0.404,"stretto":false,"stretto_voices":0,"combination":[],"aug_dim":"","rhythm_ratio":1.0,"mirror":false,"chromatic_density":0.615,"complexity":0.615,"dissonance":0.183},{"voice":3,"pitch":47,"start":130.9565,"duration":0.2609,"velocity":127,"measure":63,"beat":4.0,"subject_pos":-1,"motif":"","motif_pos":-1,"best_pos":3,"similarity":0.471,"stretto":false,"stretto_voices":0,"combination":[],"aug_dim":"","rhythm_ratio":1.0,"mirror":false,"chromatic_density":0.615,"complexity":0.615,"dissonance":0.183},{"voice":0,"pitch":80,"start":131.2174,"duration":0.2609,"velocity":127,"measure":63,"beat":4.5,"subject_pos":-1,"motif":"","motif_pos":-1,"best_pos":6,"similarity":0.643,"stretto":false,"stretto_voices":0,"combination":[],"aug_dim":"","rhythm_ratio":1.0,"mirror":false,"chromatic_density":0.615,"complexity":0.615,"dissonance":0.183},{"voice":3,"pitch":46,"start":131.2174,"duration":0.2609,"velocity":127,"measure":63,"beat":4.5,"subject_pos":-1,"motif":"","motif_pos":-1,"best_pos":4,"similarity":0.514,"stretto":false,"stretto_voices":0,"combination":[],"aug_dim":"","rhythm_ratio":1.0,"mirror":false,"chromatic_density":0.615,"complexity":0.615,"dissonance":0.183},{"voice":0,"pitch":81,"start":131.4782,"duration":1.3043,"velocity":127,"measure":64,"beat":1.0,"subject_pos":-1,"motif":"","motif_pos":-1,"best_pos":6,"similarity":0.446,"stretto":false,"stretto_voices":0,"combination":[],"aug_dim":"","rhythm_ratio":1.0,"mirror":false,"chromatic_density":0.455,"complexity":0.692,"dissonance":0.048},{"voice":2,"pitch":53,"start":131.4782,"duration":1.0435,"velocity":127,"measure":64,"beat":1.0,"subject_pos":2,"motif":"subject_inv","motif_pos":2,"best_pos":2,"similarity":1.0,"stretto":false,"stretto_voices":0,"combination":[],"aug_dim":"","rhythm_ratio":1.0,"mirror":false,"chromatic_density":0.455,"complexity":0.692,"dissonance":0.048},{"voice":3,"pitch":45,"start":131.4782,"duration":0.2609,"velocity":127,"measure":64,"beat":1.0,"subject_pos":-1,"motif":"tail","motif_pos":3,"best_pos":3,"similarity":1.0,"stretto":false,"stretto_voices":0,"combination":[],"aug_dim":"","rhythm_ratio":1.0,"mirror":false,"chromatic_density":0.455,"complexity":0.692,"dissonance":0.048},{"voice":3,"pitch":44,"start":131.7391,"duration":0.2609,"velocity":127,"measure":64,"beat":1.5,"subject_pos":-1,"motif":"tail","motif_pos":4,"best_pos":4,"similarity":1.0,"stretto":false,"stretto_voices":0,"combination":[],"aug_dim":"","rhythm_ratio":1.0,"mirror":false,"chromatic_density":0.455,"complexity":0.692,"dissonance":0.048},{"voice":1,"pitch":72,"start":132.0,"duration":0.2609,"velocity":127,"measure":64,"beat":2.0,"subject_pos":-1,"motif":"","motif_pos":-1,"best_pos":3,"similarity":0.464,"stretto":false,"stretto_voices":0,"combination":[],"aug_dim":"","rhythm_ratio":1.0,"mirror":false,"chromatic_density":0.455,"complexity":0.692,"dissonance":0.048},{"voice":3,"pitch":45,"start":132.0,"duration":0.2609,"velocity":127,"measure":64,"beat":2.0,"subject_pos":-1,"motif":"tail","motif_pos":5,"best_pos":5,"similarity":1.0,"stretto":false,"stretto_voices":0,"combination":[],"aug_dim":"","rhythm_ratio":1.0,"mirror":false,"chromatic_density":0.455,"complexity":0.692,"dissonance":0.048},{"voice":1,"pitch":71,"start":132.2608,"duration":0.2609,"velocity":127,"measure":64,"beat":2.5,"subject_pos":-1,"motif":"","motif_pos":-1,"best_pos":4,"similarity":0.429,"stretto":false,"stretto_voices":0,"combination":[],"aug_dim":"","rhythm_ratio":1.0,"mirror":false,"chromatic_density":0.455,"complexity":0.692,"dissonance":0.048},{"voice":3,"pitch":47,"start":132.2608,"duration":0.2609,"velocity":127,"measure":64,"beat":2.5,"subject_pos":-1,"motif":"tail","motif_pos":6,"best_pos":6,"similarity":1.0,"stretto":false,"stretto_voices":0,"combination":[],"aug_dim":"","rhythm_ratio":1.0,"mirror":false,"chromatic_density":0.455,"complexity":0.692,"dissonance":0.048},{"voice":1,"pitch":69,"start":132.5217,"duration":0.5217,"velocity":127,"measure":64,"beat":3.0,"subject_pos":-1,"motif":"","motif_pos":-1,"best_pos":2,"similarity":0.364,"stretto":false,"stretto_voices":0,"combination":[],"aug_dim":"","rhythm_ratio":1.0,"mirror":false,"chromatic_density":0.455,"complexity":0.692,"dissonance":0.048},{"voice":2,"pitch":57,"start":132.5217,"duration":1.0435,"velocity":127,"measure":64,"beat":3.0,"subject_pos":3,"motif":"subject_inv","motif_pos":3,"best_pos":3,"similarity":1.0,"stretto":false,"stretto_voices":0,"combination":[],"aug_dim":"","rhythm_ratio":1.0,"mirror":false,"chromatic_density":0.455,"complexity":0.692,"dissonance":0.048},{"voice":3,"pitch":48,"start":132.5217,"duration":0.5217,"velocity":127,"measure":64,"beat":3.0,"subject_pos":-1,"motif":"tail","motif_pos":7,"best_pos":7,"similarity":1.0,"stretto":false,"stretto_voices":0,"combination":[],"aug_dim":"","rhythm_ratio":1.0,"mirror":false,"chromatic_density":0.455,"complexity":0.692,"dissonance":0.048},{"voice":0,"pitch":81,"start":132.7826,"duration":0.2609,"velocity":127,"measure":64,"beat":3.5,"subject_pos":-1,"motif":"","motif_pos":-1,"best_pos":1,"similarity":0.364,"stretto":false,"stretto_voices":0,"combination":[],"aug_dim":"","rhythm_ratio":1.0,"mirror":false,"chromatic_density":0.455,"complexity":0.692,"dissonance":0.048},{"voice":0,"pitch":79,"start":133.0434,"duration":0.2609,"velocity":127,"measure":64,"beat":4.0,"subject_pos":-1,"motif":"","motif_pos":-1,"best_pos":2,"similarity":0.45,"stretto":false,"stretto_voices":0,"combination":[],"aug_dim":"","rhythm_ratio":1.0,"mirror":false,"chromatic_density":0.455,"complexity":0.692,"dissonance":0.048},{"voice":1,"pitch":76,"start":133.0434,"duration":0.7826,"velocity":127,"measure":64,"beat":4.0,"subject_pos":-1,"motif":"","motif_pos":-1,"best_pos":1,"similarity":0.5,"stretto":false,"stretto_voices":0,"combination":[],"aug_dim":"","rhythm_ratio":1.0,"mirror":false,"chromatic_density":0.455,"complexity":0.692,"dissonance":0.048},{"voice":3,"pitch":49,"start":133.0434,"duration":1.0435,"velocity":127,"measure":64,"beat":4.0,"subject_pos":-1,"motif":"","motif_pos":-1,"best_pos":4,"similarity":0.593,"stretto":false,"stretto_voices":0,"combination":[],"aug_dim":"","rhythm_ratio":1.0,"mirror":false,"chromatic_density":0.455,"complexity":0.692,"dissonance":0.048},{"voice":0,"pitch":77,"start":133.3043,"duration":0.2609,"velocity":127,"measure":64,"beat":4.5,"subject_pos":-1,"motif":"","motif_pos":-1,"best_pos":4,"similarity":0.407,"stretto":false,"stretto_voices":0,"combination":[],"aug_dim":"","rhythm_ratio":1.0,"mirror":false,"chromatic_density":0.455,"complexity":0.692,"dissonance":0.048},{"voice":0,"pitch":79,"start":133.5652,"duration":0.5217,"velocity":127,"measure":65,"beat":1.0,"subject_pos":-1,"motif":"","motif_pos":-1,"best_pos":1,"similarity":0.386,"stretto":false,"stretto_voices":0,"combination":[],"aug_dim":"","rhythm_ratio":1.0,"mirror":false,"chromatic_density":0.529,"complexity":0.698,"dissonance":0.15},{"voice":2,"pitch":58,"start":133.5652,"duration":1.0435,"velocity":127,"measure":65,"beat":1.0,"subject_pos":4,"motif":"subject_inv","motif_pos":4,"best_pos":4,"similarity":1.0,"stretto":false,"stretto_voices":0,"combination":[],"aug_dim":"","rhythm_ratio":1.0,"mirror":false,"chromatic_density":0.529,"complexity":0.698,"dissonance":0.15},{"voice":1,"pitch":76,"start":133.8261,"duration":0.2609,"velocity":127,"measure":65,"beat":1.5,"subject_pos":-1,"motif":"","motif_pos":-1,"best_pos":2,"similarity":0.571,"stretto":false,"stretto_voices":0,"combination":[],"aug_dim":"","rhythm_ratio":1.0,"mirror":false,"chromatic_density":0.529,"complexity":0.698,"dissonance":0.15},{"voice":0,"pitch":77,"start":134.0869,"duration":0.2609,"velocity":127,"measure":65,"beat":2.0,"subject_pos":-1,"motif":"","motif_pos":-1,"best_pos":3,"similarity":0.464,"stretto":false,"stretto_voices":0,"combination":[],"aug_dim":"","rhythm_ratio":1.0,"mirror":false,"chromatic_density":0.529,"complexity":0.698,"dissonance":0.15},{"voice":1,"pitch":74,"start":134.0869,"duration":0.2609,"velocity":127,"measure":65,"beat":2.0,"subject_pos":-1,"motif":"","motif_pos":-1,"best_pos":3,"similarity":0.679,"stretto":false,"stretto_voices":0,"combination":[],"aug_dim":"","rhythm_ratio":1.0,"mirror":false,"chromatic_density":0.529,"complexity":0.698,"dissonance":0.15},{"voice":3,"pitch":50,"start":134.0869,"duration":0.2609,"velocity":127,"measure":65,"beat":2.0,"subject_pos":-1,"motif":"","motif_pos":-1,"best_pos":5,"similarity":0.757,"stretto":false,"stretto_voices":0,"combination":[],"aug_dim":"","rhythm_ratio":1.0,"mirror":false,"chromatic_density":0.529,"complexity":0.698,"dissonance":0.15},{"voice":0,"pitch":76,"start":134.3478,"duration":0.2609,"velocity":127,"measure":65,"beat":2.5,"subject_pos":-1,"motif":"","motif_pos":-1,"best_pos":2,"similarity":0.5,"stretto":false,"stretto_voices":0,"combination":[],"aug_dim":"","rhythm_ratio":1.0,"mirror":false,"chromatic_density":0.529,"complexity":0.698,"dissonance":0.15},{"voice":1,"pitch":73,"start":134.3478,"duration":0.2609,"velocity":127,"measure":65,"beat":2.5,"subject_pos":-1,"motif":"enigmatic_cell","motif_pos":0,"best_pos":0,"similarity":1.0,"stretto":false,"stretto_voices":0,"combination":[],"aug_dim":"","rhythm_ratio":1.0,"mirror":false,"chromatic_density":0.529,"complexity":0.698,"dissonance":0.15},{"voice":3,"pitch":52,"start":134.3478,"duration":0.2609,"velocity":127,"measure":65,"beat":2.5,"subject_pos":-1,"motif":"","motif_pos":-1,"best_pos":6,"similarity":0.732,"stretto":false,"stretto_voices":0,"combination":[],"aug_dim":"","rhythm_ratio":1.0,"mirror":false,"chromatic_density":0.529,"complexity":0.698,"dissonance":0.15},{"voice":0,"pitch":74,"start":134.6087,"duration":0.2609,"velocity":127,"measure":65,"beat":3.0,"subject_pos":-1,"motif":"tail","motif_pos":3,"best_pos":3,"similarity":1.0,"stretto":false,"stretto_voices":0,"combination":[],"aug_dim":"","rhythm_ratio":1.0,"mirror":false,"chromatic_density":0.529,"complexity":0.698,"dissonance":0.15},{"voice":1,"pitch":74,"start":134.6087,"duration":0.2609,"velocity":127,"measure":65,"beat":3.0,"subject_pos":-1,"motif":"enigmatic_cell","motif_pos":1,"best_pos":1,"similarity":1.0,"stretto":false,"stretto_voices":0,"combination":[],"aug_dim":"","rhythm_ratio":1.0,"mirror":false,"chromatic_density":0.529,"complexity":0.698,"dissonance":0.15},{"voice":2,"pitch":57,"start":134.6087,"duration":0.5217,"velocity":127,"measure":65,"beat":3.0,"subject_pos":5,"motif":"subject_inv","motif_pos":5,"best_pos":5,"similarity":1.0,"stretto":false,"stretto_voices":0,"combination":[],"aug_dim":"","rhythm_ratio":1.0,"mirror":false,"chromatic_density":0.529,"complexity":0.698,"dissonance":0.15},{"voice":3,"pitch":53,"start":134.6087,"duration":0.5217,"velocity":127,"measure":65,"beat":3.0,"subject_pos":-1,"motif":"","motif_pos":-1,"best_pos":7,"similarity":0.5,"stretto":false,"stretto_voices":0,"combination":[],"aug_dim":"","rhythm_ratio":1.0,"mirror":false,"chromatic_density":0.529,"complexity":0.698,"dissonance":0.15},{"voice":0,"pitch":73,"start":134.8695,"duration":0.2609,"velocity":127,"measure":65,"beat":3.5,"subject_pos":-1,"motif":"tail","motif_pos":4,"best_pos":4,"similarity":1.0,"stretto":false,"stretto_voices":0,"combination":[],"aug_dim":"","rhythm_ratio":1.0,"mirror":false,"chromatic_density":0.529,"complexity":0.698,"dissonance":0.15},{"voice":1,"pitch":69,"start":134.8695,"duration":0.2609,"velocity":127,"measure":65,"beat":3.5,"subject_pos":-1,"motif":"enigmatic_cell","motif_pos":2,"best_pos":2,"similarity":1.0,"stretto":false,"stretto_voices":0,"combination":[],"aug_dim":"","rhythm_ratio":1.0,"mirror":false,"chromatic_density":0.529,"complexity":0.698,"dissonance":0.15},{"voice":0,"pitch":74,"start":135.1304,"duration":0.2609,"velocity":127,"measure":65,"beat":4.0,"subject_pos":-1,"motif":"tail","motif_pos":5,"best_pos":5,"similarity":1.0,"stretto":false,"stretto_voices":0,"combination":[],"aug_dim":"","rhythm_ratio":1.0,"mirror":false,"chromatic_density":0.529,"complexity":0.698,"dissonance":0.15},{"voice":1,"pitch":70,"start":135.1304,"duration":0.2609,"velocity":127,"measure":65,"beat":4.0,"subject_pos":-1,"motif":"","motif_pos":-1,"best_pos":2,"similarity":0.4,"stretto":false,"stretto_voices":0,"combination":[],"aug_dim":"","rhythm_ratio":1.0,"mirror":false,"chromatic_density":0.529,"complexity":0.698,"dissonance":0.15},{"voice":2,"pitch":55,"start":135.1304,"duration":0.5217,"velocity":127,"measure":65,"beat":4.0,"subject_pos":6,"motif":"subject_inv","motif_pos":6,"best_pos":6,"similarity":1.0,"stretto":false,"stretto_voices":0,"combination":[],"aug_dim":"","rhythm_ratio":1.0,"mirror":false,"chromatic_density":0.529,"complexity":0.698,"dissonance":0.15},{"voice":3,"pitch":52,"start":135.1304,"duration":0.7826,"velocity":127,"measure":65,"beat":4.0,"subject_pos":-1,"motif":"head_inv","motif_pos":0,"best_pos":0,"similarity":1.0,"stretto":false,"stretto_voices":0,"combination":[],"aug_dim":"","rhythm_ratio":1.0,"mirror":false,"chromatic_density":0.529,"complexity":0.698,"dissonance":0.15},{"voice":0,"pitch":76,"start":135.3913,"duration":0.2609,"velocity":127,"measure":65,"beat":4.5,"subject_pos":-1,"motif":"tail","motif_pos":6,"best_pos":6,"similarity":1.0,"stretto":false,"stretto_voices":0,"combination":[],"aug_dim":"","rhythm_ratio":1.0,"mirror":false,"chromatic_density":0.529,"complexity":0.698,"dissonance":0.15},{"voice":1,"pitch":67,"start":135.3913,"duration":0.2609,"velocity":127,"measure":65,"beat":4.5,"subject_pos":-1,"motif":"","motif_pos":-1,"best_pos":5,"similarity":0.511,"stretto":false,"stretto_voices":0,"combination":[],"aug_dim":"","rhythm_ratio":1.0,"mirror":false,"chromatic_density":0.529,"complexity":0.698,"dissonance":0.15},{"voice":0,"pitch":77,"start":135.6521,"duration":0.2609,"velocity":127,"measure":66,"beat":1.0,"subject_pos":-1,"motif":"tail","motif_pos":7,"best_pos":7,"similarity":1.0,"stretto":false,"stretto_voices":0,"combination":[],"aug_dim":"","rhythm_ratio":1.0,"mirror":false,"chromatic_density":0.467,"complexity":0.618,"dissonance":0.156},{"voice":1,"pitch":69,"start":135.6521,"duration":1.3043,"velocity":127,"measure":66,"beat":1.0,"subject_pos":-1,"motif":"tail_inv","motif_pos":0,"best_pos":0,"similarity":1.0,"stretto":false,"stretto_voices":0,"combination":[],"aug_dim":"","rhythm_ratio":1.0,"mirror":false,"chromatic_density":0.467,"complexity":0.618,"dissonance":0.156},{"voice":2,"pitch":53,"start":135.6521,"duration":1.3043,"velocity":127,"measure":66,"beat":1.0,"subject_pos":7,"motif":"subject_inv","motif_pos":7,"best_pos":7,"similarity":1.0,"stretto":false,"stretto_voices":0,"combination":[],"aug_dim":"","rhythm_ratio":1.0,"mirror":false,"chromatic_density":0.467,"complexity":0.618,"dissonance":0.156},{"voice":0,"pitch":79,"start":135.913,"duration":0.2609,"velocity":127,"measure":66,"beat":1.5,"subject_pos":-1,"motif":"","motif_pos":-1,"best_pos":6,"similarity":0.464,"stretto":false,"stretto_voices":0,"combination":[],"aug_dim":"","rhythm_ratio":1.0,"mirror":false,"chromatic_density":0.467,"complexity":0.618,"dissonance":0.156},{"voice":3,"pitch":45,"start":135.913,"duration":0.2609,"velocity":127,"measure":66,"beat":1.5,"subject_pos":-1,"motif":"head_inv","motif_pos":1,"best_pos":1,"similarity":1.0,"stretto":false,"stretto_voices":0,"combination":[],"aug_dim":"","rhythm_ratio":1.0,"mirror":false,"chromatic_density":0.467,"complexity":0.618,"dissonance":0.156},{"voice":0,"pitch":77,"start":136.1739,"duration":0.2609,"velocity":127,"measure":66,"beat":2.0,"subject_pos":-1,"motif":"","motif_pos":-1,"best_pos":3,"similarity":0.664,"stretto":false,"stretto_voices":0,"combination":[],"aug_dim":"","rhythm_ratio":1.0,"mirror":false,"chromatic_density":0.467,"complexity":0.618,"dissonance":0.156},{"voice":3,"pitch":47,"start":136.1739,"duration":0.2609,"velocity":127,"measure":66,"beat":2.0,"subject_pos":-1,"motif":"head_inv","motif_pos":2,"best_pos":2,"similarity":1.0,"stretto":false,"stretto_voices":0,"combination":[],"aug_dim":"","rhythm_ratio":1.0,"mirror":false,"chromatic_density":0.467,"complexity":0.618,"dissonance":0.156},{"voice":0,"pitch":76,"start":136.4347,"duration":0.2609,"velocity":127,"measure":66,"beat":2.5,"subject_pos":-1,"motif":"","motif_pos":-1,"best_pos":4,"similarity":0.829,"stretto":false,"stretto_voices":0,"combination":[],"aug_dim":"","rhythm_ratio":1.0,"mirror":false,"chromatic_density":0.467,"complexity":0.618,"dissonance":0.156},{"voice":3,"pitch":49,"start":136.4347,"duration":0.2609,"velocity":127,"measure":66,"beat":2.5,"subject_pos":-1,"motif":"head_inv","motif_pos":3,"best_pos":3,"similarity":1.0,"stretto":false,"stretto_voices":0,"combination":[],"aug_dim":"","rhythm_ratio":1.0,"mirror":false,"chromatic_density":0.467,"complexity":0.618,"dissonance":0.156},{"voice":0,"pitch":77,"start":136.6956,"duration":0.2609,"velocity":127,"measure":66,"beat":3.0,"subject_pos":-1,"motif":"","motif_pos":-1,"best_pos":5,"similarity":0.821,"stretto":false,"stretto_voices":0,"combination":[],"aug_dim":"","rhythm_ratio":1.0,"mirror":false,"chromatic_density":0.467,"complexity":0.618,"dissonance":0.156},{"voice":3,"pitch":50,"start":136.6956,"duration":1.3043,"velocity":127,"measure":66,"beat":3.0,"subject_pos":-1,"motif":"head_inv","motif_pos":4,"best_pos":4,"similarity":1.0,"stretto":false,"stretto_voices":0,"combination":[],"aug_dim":"","rhythm_ratio":1.0,"mirror":false,"chromatic_density":0.467,"complexity":0.618,"dissonance":0.156},{"voice":0,"pitch":79,"start":136.9565,"duration":0.2609,"velocity":127,"measure":66,"beat":3.5,"subject_pos":-1,"motif":"","motif_pos":-1,"best_pos":6,"similarity":0.643,"stretto":false,"stretto_voices":0,"combination":[],"aug_dim":"","rhythm_ratio":1.0,"mirror":false,"chromatic_density":0.467,"complexity":0.618,"dissonance":0.156},{"voice":1,"pitch":70,"start":136.9565,"duration":0.2609,"velocity":127,"measure":66,"beat":3.5,"subject_pos":-1,"motif":"tail_inv","motif_pos":1,"best_pos":1,"similarity":1.0,"stretto":false,"stretto_voices":0,"combination":[],"aug_dim":"","rhythm_ratio":1.0,"mirror":false,"chromatic_density":0.467,"complexity":0.618,"dissonance":0.156},{"voice":2,"pitch":52,"start":136.9565,"duration":0.2609,"velocity":127,"measure":66,"beat":3.5,"subject_pos":-1,"motif":"","motif_pos":-1,"best_pos":4,"similarity":0.679,"stretto":false,"stretto_voices":0,"combination":[],"aug_dim":"","rhythm_ratio":1.0,"mirror":false,"chromatic_density":0.467,"complexity":0.618,"dissonance":0.156},{"voice":0,"pitch":81,"start":137.2174,"duration":0.5217,"velocity":127,"measure":66,"beat":4.0,"subject_pos":-1,"motif":"","motif_pos":-1,"best_pos":6,"similarity":0.375,"stretto":false,"stretto_voices":0,"combination":[],"aug_dim":"","rhythm_ratio":1.0,"mirror":false,"chromatic_density":0.467,"complexity":0.618,"dissonance":0.156},{"voice":1,"pitch":69,"start":137.2174,"duration":0.2609,"velocity":127,"measure":66,"beat":4.0,"subject_pos":-1,"motif":"tail_inv","motif_pos":2,"best_pos":2,"similarity":1.0,"stretto":false,"stretto_voices":0,"combination":[],"aug_dim":"","rhythm_ratio":1.0,"mirror":false,"chromatic_density":0.467,"complexity":0.618,"dissonance":0.156},{"voice":2,"pitch":54,"start":137.2174,"duration":0.2609,"velocity":127,"measure":66,"beat":4.0,"subject_pos":-1,"motif":"","motif_pos":-1,"best_pos":6,"similarity":0.643,"stretto":false,"stretto_voices":0,"combination":[],"aug_dim":"","rhythm_ratio":1.0,"mirror":false,"chromatic_density":0.467,"complexity":0.618,"dissonance":0.156},{"voice":1,"pitch":67,"start":137.4782,"duration":0.2609,"velocity":127,"measure":66,"beat":4.5,"subject_pos":-1,"motif":"tail_inv","motif_pos":3,"best_pos":3,"similarity":1.0,"stretto":false,"stretto_voices":0,"combination":[],"aug_dim":"","rhythm_ratio":1.0,"mirror":false,"chromatic_density":0.467,"complexity":0.618,"dissonance":0.156},{"voice":2,"pitch":55,"start":137.4782,"duration":0.2609,"velocity":127,"measure":66,"beat":4.5,"subject_pos":-1,"motif":"","motif_pos":-1,"best_pos":5,"similarity":0.604,"stretto":false,"stretto_voices":0,"combination":[],"aug_dim":"","rhythm_ratio":1.0,"mirror":false,"chromatic_density":0.467,"complexity":0.618,"dissonance":0.156},{"voice":0,"pitch":72,"start":137.7391,"duration":1.3043,"velocity":127,"measure":67,"beat":1.0,"subject_pos":-1,"motif":"","motif_pos":-1,"best_pos":3,"similarity":0.236,"stretto":false,"stretto_voices":0,"combination":[],"aug_dim":"","rhythm_ratio":1.0,"mirror":false,"chromatic_density":0.333,"complexity":0.614,"dissonance":0.18},{"voice":1,"pitch":66,"start":137.7391,"duration":0.2609,"velocity":127,"measure":67,"beat":1.0,"subject_pos":-1,"motif":"tail_inv","motif_pos":4,"best_pos":4,"similarity":1.0,"stretto":false,"stretto_voices":0,"combination":[],"aug_dim":"","rhythm_ratio":1.0,"mirror":false,"chromatic_density":0.333,"complexity":0.614,"dissonance":0.18},{"voice":2,"pitch":57,"start":137.7391,"duration":1.3043,"velocity":127,"measure":67,"beat":1.0,"subject_pos":0,"motif":"subject_inv","motif_pos":0,"best_pos":0,"similarity":1.0,"stretto":false,"stretto_voices":0,"combination":[],"aug_dim":"diminution","rhythm_ratio":0.5,"mirror":false,"chromatic_density":0.333,"complexity":0.614,"dissonance":0.18},{"voice":1,"pitch":67,"start":138.0,"duration":0.2609,"velocity":127,"measure":67,"beat":1.5,"subject_pos":-1,"motif":"","motif_pos":-1,"best_pos":5,"similarity":0.75,"stretto":false,"stretto_voices":0,"combination":[],"aug_dim":"","rhythm_ratio":1.0,"mirror":false,"chromatic_density":0.333,"complexity":0.614,"dissonance":0.18},{"voice":3,"pitch":48,"start":138.0,"duration":0.2609,"velocity":127,"measure":67,"beat":1.5,"subject_pos":-1,"motif":"","motif_pos":-1,"best_pos":2,"similarity":0.657,"stretto":false,"stretto_voices":0,"combination":[],"aug_dim":"","rhythm_ratio":1.0,"mirror":false,"chromatic_density":0.333,"complexity":0.614,"dissonance":0.18},{"voice":1,"pitch":69,"start":138.2608,"duration":0.5217,"velocity":127,"measure":67,"beat":2.0,"subject_pos":-1,"motif":"","motif_pos":-1,"best_pos":6,"similarity":0.5,"stretto":false,"stretto_voices":0,"combination":[],"aug_dim":"","rhythm_ratio":1.0,"mirror":false,"chromatic_density":0.333,"complexity":0.614,"dissonance":0.18},{"voice":3,"pitch":46,"start":138.2608,"duration":0.2609,"velocity":127,"measure":67,"beat":2.0,"subject_pos":-1,"motif":"","motif_pos":-1,"best_pos":3,"similarity":0.729,"stretto":false,"stretto_voices":0,"combination":[],"aug_dim":"","rhythm_ratio":1.0,"mirror":false,"chromatic_density":0.333,"complexity":0.614,"dissonance":0.18},{"voice":3,"pitch":45,"start":138.5217,"duration":0.2609,"velocity":127,"measure":67,"beat":2.5,"subject_pos":-1,"motif":"","motif_pos":-1,"best_pos":4,"similarity":0.8,"stretto":false,"stretto_voices":0,"combination":[],"aug_dim":"","rhythm_ratio":1.0,"mirror":false,"chromatic_density":0.333,"complexity":0.614,"dissonance":0.18},{"voice":1,"pitch":62,"start":138.7826,"duration":2.3478,"velocity":127,"measure":67,"beat":3.0,"subject_pos":-1,"motif":"","motif_pos":-1,"best_pos":6,"similarity":0.375,"stretto":false,"stretto_voices":0,"combination":[],"aug_dim":"","rhythm_ratio":1.0,"mirror":false,"chromatic_density":0.333,"complexity":0.614,"dissonance":0.18},{"voice":3,"pitch":46,"start":138.7826,"duration":1.3043,"velocity":127,"measure":67,"beat":3.0,"subject_pos":-1,"motif":"","motif_pos":-1,"best_pos":5,"similarity":0.636,"stretto":false,"stretto_voices":0,"combination":[],"aug_dim":"","rhythm_ratio":1.0,"mirror":false,"chromatic_density":0.333,"complexity":0.614,"dissonance":0.18},{"voice":0,"pitch":66,"start":139.0434,"duration":0.2609,"velocity":127,"measure":67,"beat":3.5,"subject_pos":-1,"motif":"","motif_pos":-1,"best_pos":4,"similarity":0.507,"stretto":false,"stretto_voices":0,"combination":[],"aug_dim":"","rhythm_ratio":1.0,"mirror":false,"chromatic_density":0.333,"complexity":0.614,"dissonance":0.18},{"voice":2,"pitch":50,"start":139.0434,"duration":0.2609,"velocity":127,"measure":67,"beat":3.5,"subject_pos":1,"motif":"subject_inv","motif_pos":1,"best_pos":1,"similarity":1.0,"stretto":false,"stretto_voices":0,"combination":[],"aug_dim":"diminution","rhythm_ratio":0.5,"mirror":false,"chromatic_density":0.333,"complexity":0.614,"dissonance":0.18},{"voice":0,"pitch":67,"start":139.3043,"duration":0.2609,"velocity":127,"measure":67,"beat":4.0,"subject_pos":-1,"motif":"","motif_pos":-1,"best_pos":5,"similarity":0.714,"stretto":false,"stretto_voices":0,"combination":[],"aug_dim":"","rhythm_ratio":1.0,"mirror":false,"chromatic_density":0.333,"complexity":0.614,"dissonance":0.18},{"voice":2,"pitch":52,"start":139.3043,"duration":0.2609,"velocity":127,"measure":67,"beat":4.0,"subject_pos":2,"motif":"subject_inv","motif_pos":2,"best_pos":2,"similarity":1.0,"stretto":false,"stretto_voices":0,"combination":[],"aug_dim":"diminution","rhythm_ratio":0.5,"mirror":false,"chromatic_density":0.333,"complexity":0.614,"dissonance":0.18},{"voice":0,"pitch":69,"start":139.5652,"duration":0.2609,"velocity":127,"measure":67,"beat":4.5,"subject_pos":-1,"motif":"","motif_pos":-1,"best_pos":6,"similarity":0.714,"stretto":false,"stretto_voices":0,"combination":[],"aug_dim":"","rhythm_ratio":1.0,"mirror":false,"chromatic_density":0.333,"complexity":0.614,"dissonance":0.18},{"voice":2,"pitch":54,"start":139.5652,"duration":0.2609,"velocity":127,"measure":67,"beat":4.5,"subject_pos":3,"motif":"subject_inv","motif_pos":3,"best_pos":3,"similarity":1.0,"stretto":false,"stretto_voices":0,"combination":[],"aug_dim":"diminution","rhythm_ratio":0.5,"mirror":false,"chromatic_density":0.333,"complexity":0.614,"dissonance":0.18},{"voice":0,"pitch":70,"start":139.8261,"duration":1.0435,"velocity":127,"measure":68,"beat":1.0,"subject_pos":-1,"motif":"","motif_pos":-1,"best_pos":7,"similarity":0.5,"stretto":false,"stretto_voices":0,"combination":[],"aug_dim":"","rhythm_ratio":1.0,"mirror":false,"chromatic_density":0.556,"complexity":0.594,"dissonance":0.139},{"voice":2,"pitch":55,"start":139.8261,"duration":1.3043,"velocity":127,"measure":68,"beat":1.0,"subject_pos":4,"motif":"subject_inv","motif_pos":4,"best_pos":4,"similarity":1.0,"stretto":false,"stretto_voices":0,"combination":[],"aug_dim":"diminution","rhythm_ratio":0.5,"mirror":false,"chromatic_density":0.556,"complexity":0.594,"dissonance":0.139},{"voice":3,"pitch":45,"start":140.0869,"duration":0.2609,"velocity":127,"measure":68,"beat":1.5,"subject_pos":-1,"motif":"","motif_pos":-1,"best_pos":4,"similarity":0.621,"stretto":false,"stretto_voices":0,"combination":[],"aug_dim":"","rhythm_ratio":1.0,"mirror":false,"chromatic_density":0.556,"complexity":0.594,"dissonance":0.139},{"voice":3,"pitch":46,"start":140.3478,"duration":0.2609,"velocity":127,"measure":68,"beat":2.0,"subject_pos":-1,"motif":"","motif_pos":-1,"best_pos":5,"similarity":0.436,"stretto":false,"stretto_voices":0,"combination":[],"aug_dim":"","rhythm_ratio":1.0,"mirror":false,"chromatic_density":0.556,"complexity":0.594,"dissonance":0.139},{"voice":3,"pitch":43,"start":140.6087,"duration":0.2609,"velocity":127,"measure":68,"beat":2.5,"subject_pos":-1,"motif":"","motif_pos":-1,"best_pos":0,"similarity":0.364,"stretto":false,"stretto_voices":0,"combination":[],"aug_dim":"","rhythm_ratio":1.0,"mirror":false,"chromatic_density":0.556,"complexity":0.594,"dissonance":0.139},{"voice":0,"pitch":69,"start":140.8695,"duration":1.3043,"velocity":127,"measure":68,"beat":3.0,"subject_pos":-1,"motif":"","motif_pos":-1,"best_pos":2,"similarity":0.514,"stretto":false,"stretto_voices":0,"combination":[],"aug_dim":"","rhythm_ratio":1.0,"mirror":false,"chromatic_density":0.556,"complexity":0.594,"dissonance":0.139},{"voice":3,"pitch":50,"start":140.8695,"duration":6.5217,"velocity":127,"measure":68,"beat":3.0,"subject_pos":-1,"motif":"","motif_pos":-1,"best_pos":1,"similarity":0.461,"stretto":false,"stretto_voices":0,"combination":[],"aug_dim":"","rhythm_ratio":1.0,"mirror":false,"chromatic_density":0.556,"complexity":0.594,"dissonance":0.139},{"voice":1,"pitch":63,"start":141.1304,"duration":0.2609,"velocity":127,"measure":68,"beat":3.5,"subject_pos":-1,"motif":"","motif_pos":-1,"best_pos":3,"similarity":0.357,"stretto":false,"stretto_voices":0,"combination":[],"aug_dim":"","rhythm_ratio":1.0,"mirror":false,"chromatic_density":0.556,"complexity":0.594,"dissonance":0.139},{"voice":2,"pitch":54,"start":141.1304,"duration":0.2609,"velocity":127,"measure":68,"beat":3.5,"subject_pos":-1,"motif":"subject_inv","motif_pos":4,"best_pos":4,"similarity":1.0,"stretto":false,"stretto_voices":0,"combination":[],"aug_dim":"diminution","rhythm_ratio":0.5,"mirror":false,"chromatic_density":0.556,"complexity":0.594,"dissonance":0.139},{"voice":1,"pitch":62,"start":141.3913,"duration":0.2609,"velocity":127,"measure":68,"beat":4.0,"subject_pos":-1,"motif":"","motif_pos":-1,"best_pos":2,"similarity":0.379,"stretto":false,"stretto_voices":0,"combination":[],"aug_dim":"","rhythm_ratio":1.0,"mirror":false,"chromatic_density":0.556,"complexity":0.594,"dissonance":0.139},{"voice":2,"pitch":55,"start":141.3913,"duration":0.2609,"velocity":127,"measure":68,"beat":4.0,"subject_pos":-1,"motif":"subject_inv","motif_pos":4,"best_pos":4,"similarity":1.0,"stretto":false,"stretto_voices":0,"combination":[],"aug_dim":"diminution","rhythm_ratio":0.5,"mirror":false,"chromatic_density":0.556,"complexity":0.594,"dissonance":0.139},{"voice":1,"pitch":60,"start":141.6521,"duration":0.2609,"velocity":127,"measure":68,"beat":4.5,"subject_pos":-1,"motif":"","motif_pos":-1,"best_pos":2,"similarity":0.446,"stretto":false,"stretto_voices":0,"combination":[],"aug_dim":"","rhythm_ratio":1.0,"mirror":false,"chromatic_density":0.556,"complexity":0.594,"dissonance":0.139},{"voice":2,"pitch":57,"start":141.6521,"duration":0.2609,"velocity":127,"measure":68,"beat":4.5,"subject_pos":5,"motif":"subject_inv","motif_pos":5,"best_pos":5,"similarity":1.0,"stretto":false,"stretto_voices":0,"combination":[],"aug_dim":"diminution","rhythm_ratio":0.5,"mirror":false,"chromatic_density":0.556,"complexity":0.594,"dissonance":0.139},{"voice":1,"pitch":58,"start":141.913,"duration":0.2609,"velocity":127,"measure":69,"beat":1.0,"subject_pos":-1,"motif":"","motif_pos":-1,"best_pos":2,"similarity":0.446,"stretto":false,"stretto_voices":0,"combination":[],"aug_dim":"","rhythm_ratio":1.0,"mirror":false,"chromatic_density":0.455,"complexity":0.542,"dissonance":0.068},{"voice":2,"pitch":58,"start":141.913,"duration":0.5217,"velocity":127,"measure":69,"beat":1.0,"subject_pos":6,"motif":"subject_inv","motif_pos":6,"best_pos":6,"similarity":1.0,"stretto":false,"stretto_voices":0,"combination":[],"aug_dim":"diminution","rhythm_ratio":0.5,"mirror":false,"chromatic_density":0.455,"complexity":0.542,"dissonance":0.068},{"voice":0,"pitch":66,"start":142.1739,"duration":0.2609,"velocity":127,"measure":69,"beat":1.5,"subject_pos":-1,"motif":"","motif_pos":-1,"best_pos":3,"similarity":0.514,"stretto":false,"stretto_voices":0,"combination":[],"aug_dim":"","rhythm_ratio":1.0,"mirror":false,"chromatic_density":0.455,"complexity":0.542,"dissonance":0.068},{"voice":1,"pitch":62,"start":142.1739,"duration":0.2609,"velocity":127,"measure":69,"beat":1.5,"subject_pos":-1,"motif":"","motif_pos":-1,"best_pos":3,"similarity":0.482,"stretto":false,"stretto_voices":0,"combination":[],"aug_dim":"","rhythm_ratio":1.0,"mirror":false,"chromatic_density":0.455,"complexity":0.542,"dissonance":0.068},{"voice":0,"pitch":67,"start":142.4347,"duration":0.7826,"velocity":127,"measure":69,"beat":2.0,"subject_pos":-1,"motif":"","motif_pos":-1,"best_pos":5,"similarity":0.446,"stretto":false,"stretto_voices":0,"combination":[],"aug_dim":"","rhythm_ratio":1.0,"mirror":false,"chromatic_density":0.455,"complexity":0.542,"dissonance":0.068},{"voice":1,"pitch":61,"start":142.4347,"duration":0.2609,"velocity":127,"measure":69,"beat":2.0,"subject_pos":-1,"motif":"","motif_pos":-1,"best_pos":4,"similarity":0.471,"stretto":false,"stretto_voices":0,"combination":[],"aug_dim":"","rhythm_ratio":1.0,"mirror":false,"chromatic_density":0.455,"complexity":0.542,"dissonance":0.068},{"voice":2,"pitch":57,"start":142.4347,"duration":0.2609,"velocity":127,"measure":69,"beat":2.0,"subject_pos":7,"motif":"subject_inv","motif_pos":7,"best_pos":7,"similarity":1.0,"stretto":false,"stretto_voices":0,"combination":[],"aug_dim":"diminution","rhythm_ratio":0.5,"mirror":false,"chromatic_density":0.455,"complexity":0.542,"dissonance":0.068},{"voice":1,"pitch":64,"start":142.6956,"duration":0.5217,"velocity":127,"measure":69,"beat":2.5,"subject_pos":-1,"motif":"","motif_pos":-1,"best_pos":6,"similarity":0.321,"stretto":false,"stretto_voices":0,"combination":[],"aug_dim":"","rhythm_ratio":1.0,"mirror":false,"chromatic_density":0.455,"complexity":0.542,"dissonance":0.068},{"voice":2,"pitch":55,"start":142.6956,"duration":0.2609,"velocity":127,"measure":69,"beat":2.5,"subject_pos":8,"motif":"subject_inv","motif_pos":8,"best_pos":0,"similarity":1.0,"stretto":false,"stretto_voices":0,"combination":[],"aug_dim":"diminution","rhythm_ratio":0.5,"mirror":false,"chromatic_density":0.455,"complexity":0.542,"dissonance":0.068},{"voice":2,"pitch":57,"start":142.9565,"duration":2.3478,"velocity":127,"measure":69,"beat":3.0,"subject_pos":-1,"motif":"","motif_pos":-1,"best_pos":6,"similarity":0.514,"stretto":false,"stretto_voices":0,"combination":[],"aug_dim":"","rhythm_ratio":1.0,"mirror":false,"chromatic_density":0.455,"complexity":0.542,"dissonance":0.068},{"voice":0,"pitch":67,"start":143.2174,"duration":0.2609,"velocity":127,"measure":69,"beat":3.5,"subject_pos":-1,"motif":"","motif_pos":-1,"best_pos":3,"similarity":0.414,"stretto":false,"stretto_voices":0,"combination":[],"aug_dim":"","rhythm_ratio":1.0,"mirror":false,"chromatic_density":0.455,"complexity":0.542,"dissonance":0.068},{"voice":1,"pitch":64,"start":143.2174,"duration":0.2609,"velocity":127,"measure":69,"beat":3.5,"subject_pos":-1,"motif":"","motif_pos":-1,"best_pos":2,"similarity":0.464,"stretto":false,"stretto_voices":0,"combination":[],"aug_dim":"","rhythm_ratio":1.0,"mirror":false,"chromatic_density":0.455,"complexity":0.542,"dissonance":0.068},{"voice":0,"pitch":66,"start":143.4782,"duration":0.2609,"velocity":127,"measure":69,"beat":4.0,"subject_pos":-1,"motif":"","motif_pos":-1,"best_pos":4,"similarity":0.55,"stretto":false,"stretto_voices":0,"combination":[],"aug_dim":"","rhythm_ratio":1.0,"mirror":false,"chromatic_density":0.455,"complexity":0.542,"dissonance":0.068},{"voice":1,"pitch":62,"start":143.4782,"duration":0.2609,"velocity":127,"measure":69,"beat":4.0,"subject_pos":-1,"motif":"","motif_pos":-1,"best_pos":3,"similarity":0.632,"stretto":false,"stretto_voices":0,"combination":[],"aug_dim":"","rhythm_ratio":1.0,"mirror":false,"chromatic_density":0.455,"complexity":0.542,"dissonance":0.068},{"voice":0,"pitch":64,"start":143.7391,"duration":0.2609,"velocity":127,"measure":69,"beat":4.5,"subject_pos":-1,"motif":"","motif_pos":-1,"best_pos":5,"similarity":0.607,"stretto":false,"stretto_voices":0,"combination":[],"aug_dim":"","rhythm_ratio":1.0,"mirror":false,"chromatic_density":0.455,"complexity":0.542,"dissonance":0.068},{"voice":1,"pitch":61,"start":143.7391,"duration":0.2609,"velocity":127,"measure":69,"beat":4.5,"subject_pos":-1,"motif":"","motif_pos":-1,"best_pos":4,"similarity":0.682,"stretto":false,"stretto_voices":0,"combination":[],"aug_dim":"","rhythm_ratio":1.0,"mirror":false,"chromatic_density":0.455,"complexity":0.542,"dissonance":0.068},{"voice":0,"pitch":66,"start":144.0,"duration":0.2609,"velocity":127,"measure":70,"beat":1.0,"subject_pos":-1,"motif":"","motif_pos":-1,"best_pos":6,"similarity":0.657,"stretto":false,"stretto_voices":0,"combination":[],"aug_dim":"","rhythm_ratio":1.0,"mirror":false,"chromatic_density":0.286,"complexity":0.439,"dissonance":0.071},{"voice":1,"pitch":62,"start":144.0,"duration":0.7826,"velocity":127,"measure":70,"beat":1.0,"subject_pos":-1,"motif":"","motif_pos":-1,"best_pos":5,"similarity":0.507,"stretto":false,"stretto_voices":0,"combination":[],"aug_dim":"","rhythm_ratio":1.0,"mirror":false,"chromatic_density":0.286,"complexity":0.439,"dissonance":0.071},{"voice":0,"pitch":67,"start":144.2608,"duration":0.2609,"velocity":127,"measure":70,"beat":1.5,"subject_pos":-1,"motif":"","motif_pos":-1,"best_pos":5,"similarity":0.621,"stretto":false,"stretto_voices":0,"combination":[],"aug_dim":"","rhythm_ratio":1.0,"mirror":false,"chromatic_density":0.286,"complexity":0.439,"dissonance":0.071},{"voice":0,"pitch":69,"start":144.5217,"duration":0.5217,"velocity":127,"measure":70,"beat":2.0,"subject_pos":-1,"motif":"","motif_pos":-1,"best_pos":6,"similarity":0.436,"stretto":false,"stretto_voices":0,"combination":[],"aug_dim":"","rhythm_ratio":1.0,"mirror":false,"chromatic_density":0.286,"complexity":0.439,"dissonance":0.071},{"voice":1,"pitch":60,"start":144.7826,"duration":0.2609,"velocity":127,"measure":70,"beat":2.5,"subject_pos":-1,"motif":"","motif_pos":-1,"best_pos":2,"similarity":0.657,"stretto":false,"stretto_voices":0,"combination":[],"aug_dim":"","rhythm_ratio":1.0,"mirror":false,"chromatic_density":0.286,"complexity":0.439,"dissonance":0.071},{"voice":0,"pitch":62,"start":145.0434,"duration":1.8261,"velocity":127,"measure":70,"beat":3.0,"subject_pos":-1,"motif":"","motif_pos":-1,"best_pos":3,"similarity":0.479,"stretto":false,"stretto_voices":0,"combination":[],"aug_dim":"","rhythm_ratio":1.0,"mirror":false,"chromatic_density":0.286,"complexity":0.439,"dissonance":0.071},{"voice":1,"pitch":58,"start":145.0434,"duration":1.3043,"velocity":127,"measure":70,"beat":3.0,"subject_pos":-1,"motif":"","motif_pos":-1,"best_pos":3,"similarity":0.729,"stretto":false,"stretto_voices":0,"combination":[],"aug_dim":"","rhythm_ratio":1.0,"mirror":false,"chromatic_density":0.286,"complexity":0.439,"dissonance":0.071},{"voice":2,"pitch":57,"start":145.3043,"duration":0.2609,"velocity":127,"measure":70,"beat":3.5,"subject_pos":-1,"motif":"","motif_pos":-1,"best_pos":2,"similarity":0.443,"stretto":false,"stretto_voices":0,"combination":[],"aug_dim":"","rhythm_ratio":1.0,"mirror":false,"chromatic_density":0.286,"complexity":0.439,"dissonance":0.071},{"voice":2,"pitch":55,"start":145.5652,"duration":0.2609,"velocity":127,"measure":70,"beat":4.0,"subject_pos":-1,"motif":"","motif_pos":-1,"best_pos":3,"similarity":0.621,"stretto":false,"stretto_voices":0,"combination":[],"aug_dim":"","rhythm_ratio":1.0,"mirror":false,"chromatic_density":0.286,"complexity":0.439,"dissonance":0.071},{"voice":2,"pitch":54,"start":145.8261,"duration":0.2609,"velocity":127,"measure":70,"beat":4.5,"subject_pos":-1,"motif":"","motif_pos":-1,"best_pos":4,"similarity":0.746,"stretto":false,"stretto_voices":0,"combination":[],"aug_dim":"","rhythm_ratio":1.0,"mirror":false,"chromatic_density":0.286,"complexity":0.439,"dissonance":0.071},{"voice":2,"pitch":55,"start":146.0869,"duration":2.3478,"velocity":127,"measure":71,"beat":1.0,"subject_pos":-1,"motif":"","motif_pos":-1,"best_pos":5,"similarity":0.636,"stretto":false,"stretto_voices":0,"combination":[],"aug_dim":"","rhythm_ratio":1.0,"mirror":false,"chromatic_density":0.75,"complexity":0.443,"dissonance":0.165},{"voice":1,"pitch":57,"start":146.3478,"duration":0.2609,"velocity":127,"measure":71,"beat":1.5,"subject_pos":-1,"motif":"","motif_pos":-1,"best_pos":4,"similarity":0.8,"stretto":false,"stretto_voices":0,"combination":[],"aug_dim":"","rhythm_ratio":1.0,"mirror":false,"chromatic_density":0.75,"complexity":0.443,"dissonance":0.165},{"voice":1,"pitch":58,"start":146.6087,"duration":1.8261,"velocity":127,"measure":71,"beat":2.0,"subject_pos":-1,"motif":"","motif_pos":-1,"best_pos":5,"similarity":0.636,"stretto":false,"stretto_voices":0,"combination":[],"aug_dim":"","rhythm_ratio":1.0,"mirror":false,"chromatic_density":0.75,"complexity":0.443,"dissonance":0.165},{"voice":0,"pitch":61,"start":146.8695,"duration":0.2609,"velocity":127,"measure":71,"beat":2.5,"subject_pos":-1,"motif":"","motif_pos":-1,"best_pos":4,"similarity":0.593,"stretto":false,"stretto_voices":0,"combination":[],"aug_dim":"","rhythm_ratio":1.0,"mirror":false,"chromatic_density":0.75,"complexity":0.443,"dissonance":0.165},{"voice":0,"pitch":62,"start":147.1304,"duration":3.1304,"velocity":127,"measure":71,"beat":3.0,"subject_pos":-1,"motif":"","motif_pos":-1,"best_pos":5,"similarity":0.436,"stretto":false,"stretto_voices":0,"combination":[],"aug_dim":"","rhythm_ratio":1.0,"mirror":false,"chromatic_density":0.75,"complexity":0.443,"dissonance":0.165},{"voice":3,"pitch":45,"start":147.3913,"duration":0.2609,"velocity":127,"measure":71,"beat":3.5,"subject_pos":-1,"motif":"","motif_pos":-1,"best_pos":2,"similarity":0.35,"stretto":false,"stretto_voices":0,"combination":[],"aug_dim":"","rhythm_ratio":1.0,"mirror":false,"chromatic_density":0.75,"complexity":0.443,"dissonance":0.165},{"voice":3,"pitch":46,"start":147.6521,"duration":0.2609,"velocity":127,"measure":71,"beat":4.0,"subject_pos":-1,"motif":"","motif_pos":-1,"best_pos":2,"similarity":0.329,"stretto":false,"stretto_voices":0,"combination":[],"aug_dim":"","rhythm_ratio":1.0,"mirror":false,"chromatic_density":0.75,"complexity":0.443,"dissonance":0.165},{"voice":3,"pitch":43,"start":147.913,"duration":0.2609,"velocity":127,"measure":71,"beat":4.5,"subject_pos":-1,"motif":"","motif_pos":-1,"best_pos":3,"similarity":0.329,"stretto":false,"stretto_voices":0,"combination":[],"aug_dim":"","rhythm_ratio":1.0,"mirror":false,"chromatic_density":0.75,"complexity":0.443,"dissonance":0.165},{"voice":3,"pitch":38,"start":148.1739,"duration":2.087,"velocity":127,"measure":72,"beat":1.0,"subject_pos":-1,"motif":"","motif_pos":-1,"best_pos":4,"similarity":0.179,"stretto":false,"stretto_voices":0,"combination":[],"aug_dim":"","rhythm_ratio":1.0,"mirror":false,"chromatic_density":0.333,"complexity":0.383,"dissonance":0.042},{"voice":1,"pitch":57,"start":148.4347,"duration":0.2609,"velocity":127,"measure":72,"beat":1.5,"subject_pos":-1,"motif":"","motif_pos":-1,"best_pos":4,"similarity":0.657,"stretto":false,"stretto_voices":0,"combination":[],"aug_dim":"","rhythm_ratio":1.0,"mirror":false,"chromatic_density":0.333,"complexity":0.383,"dissonance":0.042},{"voice":2,"pitch":54,"start":148.4347,"duration":0.2609,"velocity":127,"measure":72,"beat":1.5,"subject_pos":-1,"motif":"","motif_pos":-1,"best_pos":4,"similarity":0.657,"stretto":false,"stretto_voices":0,"combination":[],"aug_dim":"","rhythm_ratio":1.0,"mirror":false,"chromatic_density":0.333,"complexity":0.383,"dissonance":0.042},{"voice":1,"pitch":58,"start":148.6956,"duration":0.2609,"velocity":127,"measure":72,"beat":2.0,"subject_pos":-1,"motif":"","motif_pos":-1,"best_pos":5,"similarity":0.507,"stretto":false,"stretto_voices":0,"combination":[],"aug_dim":"","rhythm_ratio":1.0,"mirror":false,"chromatic_density":0.333,"complexity":0.383,"dissonance":0.042},{"voice":2,"pitch":55,"start":148.6956,"duration":0.2609,"velocity":127,"measure":72,"beat":2.0,"subject_pos":-1,"motif":"","motif_pos":-1,"best_pos":5,"similarity":0.507,"stretto":false,"stretto_voices":0,"combination":[],"aug_dim":"","rhythm_ratio":1.0,"mirror":false,"chromatic_density":0.333,"complexity":0.383,"dissonance":0.042},{"voice":1,"pitch":55,"start":148.9565,"duration":0.2609,"velocity":127,"measure":72,"beat":2.5,"subject_pos":-1,"motif":"","motif_pos":-1,"best_pos":5,"similarity":0.368,"stretto":false,"stretto_voices":0,"combination":[],"aug_dim":"","rhythm_ratio":1.0,"mirror":false,"chromatic_density":0.333,"complexity":0.383,"dissonance":0.042},{"voice":2,"pitch":52,"start":148.9565,"duration":0.2609,"velocity":127,"measure":72,"beat":2.5,"subject_pos":-1,"motif":"","motif_pos":-1,"best_pos":5,"similarity":0.368,"stretto":false,"stretto_voices":0,"combination":[],"aug_dim":"","rhythm_ratio":1.0,"mirror":false,"chromatic_density":0.333,"complexity":0.383,"dissonance":0.042},{"voice":1,"pitch":57,"start":149.2174,"duration":1.0435,"velocity":127,"measure":72,"beat":3.0,"subject_pos":-1,"motif":"","motif_pos":-1,"best_pos":6,"similarity":0.318,"stretto":false,"stretto_voices":0,"combination":[],"aug_dim":"","rhythm_ratio":1.0,"mirror":false,"chromatic_density":0.333,"complexity":0.383,"dissonance":0.042},{"voice":2,"pitch":54,"start":149.2174,"duration":1.0435,"velocity":127,"measure":72,"beat":3.0,"subject_pos":-1,"motif":"","motif_pos":-1,"best_pos":6,"similarity":0.318,"stretto":false,"stretto_voices":0,"combination":[],"aug_dim":"","rhythm_ratio":1.0,"mirror":false,"chromatic_density":0.333,"complexity":0.383,"dissonance":0.042}],"chromatic_density":[{"measure":1,"density":0.0,"chromatic_count":0,"interval_count":1},{"measure":2,"density":0.0,"chromatic_count":0,"interval_count":1},{"measure":3,"density":0.5,"chromatic_count":1,"interval_count":2},{"measure":4,"density":0.0,"chromatic_count":0,"interval_count":3},{"measure":5,"density":0.5,"chromatic_count":2,"interval_count":4},{"measure":6,"density":0.667,"chromatic_count":4,"interval_count":6},{"measure":7,"density":0.6,"chromatic_count":3,"interval_count":5},{"measure":8,"density":0.556,"chromatic_count":5,"interval_count":9},{"measure":9,"density":0.556,"chromatic_count":5,"interval_count":9},{"measure":10,"density":0.455,"chromatic_count":5,"interval_count":11},{"measure":11,"density":0.333,"chromatic_count":4,"interval_count":12},{"measure":12,"density":0.2,"chromatic_count":2,"interval_count":10},{"measure":13,"density":0.455,"chromatic_count":5,"interval_count":11},{"measure":14,"density":0.364,"chromatic_count":4,"interval_count":11},{"measure":15,"density":0.556,"chromatic_count":5,"interval_count":9},{"measure":16,"density":0.5,"chromatic_count":5,"interval_count":10},{"measure":17,"density":0.333,"chromatic_count":4,"interval_count":12},{"measure":18,"density":0.462,"chromatic_count":6,"interval_count":13},{"measure":19,"density":0.364,"chromatic_count":4,"interval_count":11},{"measure":20,"density":0.333,"chromatic_count":4,"interval_count":12},{"measure":21,"density":0.364,"chromatic_count":4,"interval_count":11},{"measure":22,"density":0.333,"chromatic_count":4,"interval_count":12},{"measure":23,"density":0.4,"chromatic_count":4,"interval_count":10},{"measure":24,"density":0.467,"chromatic_count":7,"interval_count":15},{"measure":25,"density":0.273,"chromatic_count":3,"interval_count":11},{"measure":26,"density":0.455,"chromatic_count":5,"interval_count":11},{"measure":27,"density":0.385,"chromatic_count":5,"interval_count":13},{"measure":28,"density":0.385,"chromatic_count":5,"interval_count":13},{"measure":29,"density":0.308,"chromatic_count":4,"interval_count":13},{"measure":30,"density":0.538,"chromatic_count":7,"interval_count":13},{"measure":31,"density":0.273,"chromatic_count":3,"interval_count":11},{"measure":32,"density":0.417,"chromatic_count":5,"interval_count":12},{"measure":33,"density":0.357,"chromatic_count":5,"interval_count":14},{"measure":34,"density":0.286,"chromatic_count":4,"interval_count":14},{"measure":35,"density":0.214,"chromatic_count":3,"interval_count":14},{"measure":36,"density":0.333,"chromatic_count":4,"interval_count":12},{"measure":37,"density":0.154,"chromatic_count":2,"interval_count":13},{"measure":38,"density":0.4,"chromatic_count":4,"interval_count":10},{"measure":39,"density":0.417,"chromatic_count":5,"interval_count":12},{"measure":40,"density":0.25,"chromatic_count":3,"interval_count":12},{"measure":41,"density":0.385,"chromatic_count":5,"interval_count":13},{"measure":42,"density":0.25,"chromatic_count":3,"interval_count":12},{"measure":43,"density":0.556,"chromatic_count":5,"interval_count":9},{"measure":44,"density":0.571,"chromatic_count":8,"interval_count":14},{"measure":45,"density":0.462,"chromatic_count":6,"interval_count":13},{"measure":46,"density":0.222,"chromatic_count":2,"interval_count":9},{"measure":47,"density":0.375,"chromatic_count":6,"interval_count":16},{"measure":48,"density":0.2,"chromatic_count":4,"interval_count":20},{"measure":49,"density":0.312,"chromatic_count":5,"interval_count":16},{"measure":50,"density":0.333,"chromatic_count":6,"interval_count":18},{"measure":51,"density":0.444,"chromatic_count":8,"interval_count":18},{"measure":52,"density":0.429,"chromatic_count":6,"interval_count":14},{"measure":53,"density":0.333,"chromatic_count":4,"interval_count":12},{"measure":54,"density":0.417,"chromatic_count":5,"interval_count":12},{"measure":55,"density":0.538,"chromatic_count":7,"interval_count":13},{"measure":56,"density":0.364,"chromatic_count":4,"interval_count":11},{"measure":57,"density":0.556,"chromatic_count":5,"interval_count":9},{"measure":58,"density":0.25,"chromatic_count":3,"interval_count":12},{"measure":59,"density":0.5,"chromatic_count":8,"interval_count":16},{"measure":60,"density":0.538,"chromatic_count":7,"interval_count":13},{"measure":61,"density":0.429,"chromatic_count":6,"interval_count":14},{"measure":62,"density":0.467,"chromatic_count":7,"interval_count":15},{"measure":63,"density":0.615,"chromatic_count":8,"interval_count":13},{"measure":64,"density":0.455,"chromatic_count":5,"interval_count":11},{"measure":65,"density":0.529,"chromatic_count":9,"interval_count":17},{"measure":66,"density":0.467,"chromatic_count":7,"interval_count":15},{"measure":67,"density":0.333,"chromatic_count":4,"interval_count":12},{"measure":68,"density":0.556,"chromatic_count":5,"interval_count":9},{"measure":69,"density":0.455,"chromatic_count":5,"interval_count":11},{"measure":70,"density":0.286,"chromatic_count":2,"interval_count":7},{"measure":71,"density":0.75,"chromatic_count":3,"interval_count":4},{"measure":72,"density":0.333,"chromatic_count":2,"interval_count":6}],"complexity":[{"measure":1,"complexity":0.371,"voice_count":1,"note_density":0.062,"motif_saturation":1.0,"interval_diversity":0.143,"rhythm_variety":0.167},{"measure":2,"complexity":0.371,"voice_count":1,"note_density":0.062,"motif_saturation":1.0,"interval_diversity":0.143,"rhythm_variety":0.167},{"measure":3,"complexity":0.424,"voice_count":1,"note_density":0.094,"motif_saturation":1.0,"interval_diversity":0.286,"rhythm_variety":0.333},{"measure":4,"complexity":0.43,"voice_count":1,"note_density":0.125,"motif_saturation":1.0,"interval_diversity":0.286,"rhythm_variety":0.333},{"measure":5,"complexity":0.552,"voice_count":2,"note_density":0.188,"motif_saturation":1.0,"interval_diversity":0.429,"rhythm_variety":0.5},{"measure":6,"complexity":0.533,"voice_count":2,"note_density":0.25,"motif_saturation":0.875,"interval_diversity":0.429,"rhythm_variety":0.5},{"measure":7,"complexity":0.454,"voice_count":2,"note_density":0.219,"motif_saturation":0.571,"interval_diversity":0.286,"rhythm_variety":0.667},{"measure":8,"complexity":0.537,"voice_count":2,"note_density":0.344,"motif_saturation":1.0,"interval_diversity":0.286,"rhythm_variety":0.333},{"measure":9,"complexity":0.632,"voice_count":3,"note_density":0.375,"motif_saturation":0.833,"interval_diversity":0.571,"rhythm_variety":0.5},{"measure":10,"complexity":0.564,"voice_count":3,"note_density":0.438,"motif_saturation":0.5,"interval_diversity":0.429,"rhythm_variety":0.667},{"measure":11,"complexity":0.517,"voice_count":3,"note_density":0.469,"motif_saturation":0.2,"interval_diversity":0.571,"rhythm_variety":0.667},{"measure":12,"complexity":0.471,"voice_count":3,"note_density":0.406,"motif_saturation":0.154,"interval_diversity":0.429,"rhythm_variety":0.667},{"measure":13,"complexity":0.487,"voice_count":3,"note_density":0.469,"motif_saturation":0.267,"interval_diversity":0.429,"rhythm_variety":0.5},{"measure":14,"complexity":0.461,"voice_count":3,"note_density":0.438,"motif_saturation":0.0,"interval_diversity":0.571,"rhythm_variety":0.667},{"measure":15,"complexity":0.559,"voice_count":4,"note_density":0.406,"motif_saturation":0.154,"interval_diversity":0.429,"rhythm_variety":0.833},{"measure":16,"complexity":0.602,"voice_count":4,"note_density":0.438,"motif_saturation":0.5,"interval_diversity":0.429,"rhythm_variety":0.5},{"measure":17,"complexity":0.602,"voice_count":4,"note_density":0.5,"motif_saturation":0.25,"interval_diversity":0.429,"rhythm_variety":0.833},{"measure":18,"complexity":0.602,"voice_count":4,"note_density":0.531,"motif_saturation":0.412,"interval_diversity":0.286,"rhythm_variety":0.667},{"measure":19,"complexity":0.526,"voice_count":3,"note_density":0.469,"motif_saturation":0.067,"interval_diversity":0.857,"rhythm_variety":0.667},{"measure":20,"complexity":0.51,"voice_count":3,"note_density":0.469,"motif_saturation":0.0,"interval_diversity":0.857,"rhythm_variety":0.667},{"measure":21,"complexity":0.51,"voice_count":3,"note_density":0.469,"motif_saturation":0.0,"interval_diversity":0.857,"rhythm_variety":0.667},{"measure":22,"complexity":0.51,"voice_count":3,"note_density":0.469,"motif_saturation":0.0,"interval_diversity":0.857,"rhythm_variety":0.667},{"measure":23,"complexity":0.471,"voice_count":3,"note_density":0.406,"motif_saturation":0.154,"interval_diversity":0.429,"rhythm_variety":0.667},{"measure":24,"complexity":0.611,"voice_count":3,"note_density":0.562,"motif_saturation":0.5,"interval_diversity":0.571,"rhythm_variety":0.667},{"measure":25,"complexity":0.589,"voice_count":3,"note_density":0.438,"motif_saturation":0.429,"interval_diversity":0.714,"rhythm_variety":0.667},{"measure":26,"complexity":0.561,"voice_count":3,"note_density":0.438,"motif_saturation":0.5,"interval_diversity":0.571,"rhythm_variety":0.5},{"measure":27,"complexity":0.535,"voice_count":3,"note_density":0.5,"motif_saturation":0.062,"interval_diversity":0.714,"rhythm_variety":0.833},{"measure":28,"complexity":0.526,"voice_count":3,"note_density":0.5,"motif_saturation":0.125,"interval_diversity":0.714,"rhythm_variety":0.667},{"measure":29,"complexity":0.621,"voice_count":4,"note_density":0.531,"motif_saturation":0.118,"interval_diversity":0.571,"rhythm_variety":1.0},{"measure":30,"complexity":0.674,"voice_count":4,"note_density":0.531,"motif_saturation":0.529,"interval_diversity":0.571,"rhythm_variety":0.667},{"measure":31,"complexity":0.571,"voice_count":3,"note_density":0.438,"motif_saturation":0.357,"interval_diversity":0.714,"rhythm_variety":0.667},{"measure":32,"complexity":0.571,"voice_count":3,"note_density":0.469,"motif_saturation":0.6,"interval_diversity":0.429,"rhythm_variety":0.5},{"measure":33,"complexity":0.612,"voice_count":3,"note_density":0.531,"motif_saturation":0.529,"interval_diversity":0.571,"rhythm_variety":0.667},{"measure":34,"complexity":0.494,"voice_count":3,"note_density":0.531,"motif_saturation":0.059,"interval_diversity":0.571,"rhythm_variety":0.667},{"measure":35,"complexity":0.505,"voice_count":3,"note_density":0.531,"motif_saturation":0.118,"interval_diversity":0.714,"rhythm_variety":0.5},{"measure":36,"complexity":0.462,"voice_count":3,"note_density":0.469,"motif_saturation":0.267,"interval_diversity":0.429,"rhythm_variety":0.333},{"measure":37,"complexity":0.526,"voice_count":3,"note_density":0.5,"motif_saturation":0.312,"interval_diversity":0.571,"rhythm_variety":0.5},{"measure":38,"complexity":0.533,"voice_count":3,"note_density":0.406,"motif_saturation":0.385,"interval_diversity":0.286,"rhythm_variety":0.833},{"measure":39,"complexity":0.529,"voice_count":3,"note_density":0.5,"motif_saturation":0.125,"interval_diversity":0.571,"rhythm_variety":0.833},{"measure":40,"complexity":0.531,"voice_count":3,"note_density":0.469,"motif_saturation":0.0,"interval_diversity":1.0,"rhythm_variety":0.667},{"measure":41,"complexity":0.498,"voice_count":3,"note_density":0.5,"motif_saturation":0.0,"interval_diversity":0.571,"rhythm_variety":0.833},{"measure":42,"complexity":0.531,"voice_count":3,"note_density":0.469,"motif_saturation":0.0,"interval_diversity":1.0,"rhythm_variety":0.667},{"measure":43,"complexity":0.563,"voice_count":4,"note_density":0.469,"motif_saturation":0.133,"interval_diversity":0.571,"rhythm_variety":0.667},{"measure":44,"complexity":0.645,"voice_count":4,"note_density":0.562,"motif_saturation":0.389,"interval_diversity":0.571,"rhythm_variety":0.667},{"measure":45,"complexity":0.579,"voice_count":4,"note_density":0.531,"motif_saturation":0.235,"interval_diversity":0.429,"rhythm_variety":0.667},{"measure":46,"complexity":0.586,"voice_count":4,"note_density":0.406,"motif_saturation":0.462,"interval_diversity":0.429,"rhythm_variety":0.5},{"measure":47,"complexity":0.498,"voice_count":3,"note_density":0.594,"motif_saturation":0.211,"interval_diversity":0.429,"rhythm_variety":0.5},{"measure":48,"complexity":0.51,"voice_count":3,"note_density":0.719,"motif_saturation":0.0,"interval_diversity":0.857,"rhythm_variety":0.333},{"measure":49,"complexity":0.488,"voice_count":3,"note_density":0.594,"motif_saturation":0.0,"interval_diversity":0.714,"rhythm_variety":0.5},{"measure":50,"complexity":0.488,"voice_count":3,"note_density":0.656,"motif_saturation":0.048,"interval_diversity":0.714,"rhythm_variety":0.333},{"measure":51,"complexity":0.674,"voice_count":4,"note_density":0.688,"motif_saturation":0.318,"interval_diversity":0.714,"rhythm_variety":0.667},{"measure":52,"complexity":0.673,"voice_count":4,"note_density":0.562,"motif_saturation":0.5,"interval_diversity":0.571,"rhythm_variety":0.667},{"measure":53,"complexity":0.571,"voice_count":4,"note_density":0.5,"motif_saturation":0.125,"interval_diversity":0.429,"rhythm_variety":0.833},{"measure":54,"complexity":0.527,"voice_count":4,"note_density":0.5,"motif_saturation":0.25,"interval_diversity":0.429,"rhythm_variety":0.333},{"measure":55,"complexity":0.639,"voice_count":4,"note_density":0.562,"motif_saturation":0.278,"interval_diversity":0.714,"rhythm_variety":0.667},{"measure":56,"complexity":0.596,"voice_count":3,"note_density":0.438,"motif_saturation":0.714,"interval_diversity":0.286,"rhythm_variety":0.667},{"measure":57,"complexity":0.464,"voice_count":3,"note_density":0.375,"motif_saturation":0.333,"interval_diversity":0.286,"rhythm_variety":0.5},{"measure":58,"complexity":0.686,"voice_count":4,"note_density":0.5,"motif_saturation":0.5,"interval_diversity":0.571,"rhythm_variety":0.833},{"measure":59,"complexity":0.643,"voice_count":4,"note_density":0.625,"motif_saturation":0.5,"interval_diversity":0.286,"rhythm_variety":0.667},{"measure":60,"complexity":0.59,"voice_count":4,"note_density":0.531,"motif_saturation":0.294,"interval_diversity":0.571,"rhythm_variety":0.5},{"measure":61,"complexity":0.618,"voice_count":4,"note_density":0.562,"motif_saturation":0.278,"interval_diversity":0.571,"rhythm_variety":0.667},{"measure":62,"complexity":0.434,"voice_count":3,"note_density":0.594,"motif_saturation":0.053,"interval_diversity":0.429,"rhythm_variety":0.333},{"measure":63,"complexity":0.615,"voice_count":4,"note_density":0.531,"motif_saturation":0.294,"interval_diversity":0.571,"rhythm_variety":0.667},{"measure":64,"complexity":0.692,"voice_count":4,"note_density":0.5,"motif_saturation":0.438,"interval_diversity":0.714,"rhythm_variety":0.833},{"measure":65,"complexity":0.698,"voice_count":4,"note_density":0.656,"motif_saturation":0.524,"interval_diversity":0.571,"rhythm_variety":0.667},{"measure":66,"complexity":0.618,"voice_count":4,"note_density":0.594,"motif_saturation":0.526,"interval_diversity":0.286,"rhythm_variety":0.5},{"measure":67,"complexity":0.614,"voice_count":4,"note_density":0.5,"motif_saturation":0.312,"interval_diversity":0.571,"rhythm_variety":0.667},{"measure":68,"complexity":0.594,"voice_count":4,"note_density":0.406,"motif_saturation":0.308,"interval_diversity":0.571,"rhythm_variety":0.667},{"measure":69,"complexity":0.542,"voice_count":3,"note_density":0.5,"motif_saturation":0.188,"interval_diversity":0.714,"rhythm_variety":0.667},{"measure":70,"complexity":0.439,"voice_count":3,"note_density":0.312,"motif_saturation":0.0,"interval_diversity":0.429,"rhythm_variety":0.833},{"measure":71,"complexity":0.443,"voice_count":4,"note_density":0.25,"motif_saturation":0.0,"interval_diversity":0.286,"rhythm_variety":0.667},{"measure":72,"complexity":0.383,"voice_count":3,"note_density":0.281,"motif_saturation":0.0,"interval_diversity":0.429,"rhythm_variety":0.5}],"dissonance":[{"measure":1,"dissonance":0,"dissonant_pairs":0,"total_pairs":0},{"measure":2,"dissonance":0,"dissonant_pairs":0,"total_pairs":0},{"measure":3,"dissonance":0,"dissonant_pairs":0,"total_pairs":0},{"measure":4,"dissonance":0,"dissonant_pairs":0,"total_pairs":0},{"measure":5,"dissonance":0.2,"dissonant_pairs":1.0,"total_pairs":5},{"measure":6,"dissonance":0.133,"dissonant_pairs":0.8,"total_pairs":6},{"measure":7,"dissonance":0.0,"dissonant_pairs":0,"total_pairs":4},{"measure":8,"dissonance":0.071,"dissonant_pairs":0.5,"total_pairs":7},{"measure":9,"dissonance":0.195,"dissonant_pairs":4.1,"total_pairs":21},{"measure":10,"dissonance":0.15,"dissonant_pairs":3.6,"total_pairs":24},{"measure":11,"dissonance":0.305,"dissonant_pairs":6.1,"total_pairs":20},{"measure":12,"dissonance":0.177,"dissonant_pairs":3.9,"total_pairs":22},{"measure":13,"dissonance":0.068,"dissonant_pairs":1.5,"total_pairs":22},{"measure":14,"dissonance":0.225,"dissonant_pairs":5.4,"total_pairs":24},{"measure":15,"dissonance":0.102,"dissonant_pairs":4.6,"total_pairs":45},{"measure":16,"dissonance":0.113,"dissonant_pairs":2.6,"total_pairs":23},{"measure":17,"dissonance":0.163,"dissonant_pairs":6.2,"total_pairs":38},{"measure":18,"dissonance":0.132,"dissonant_pairs":3.3,"total_pairs":25},{"measure":19,"dissonance":0.15,"dissonant_pairs":3.6,"total_pairs":24},{"measure":20,"dissonance":0.065,"dissonant_pairs":1.3,"total_pairs":20},{"measure":21,"dissonance":0.14,"dissonant_pairs":2.8,"total_pairs":20},{"measure":22,"dissonance":0.18,"dissonant_pairs":3.6,"total_pairs":20},{"measure":23,"dissonance":0.09,"dissonant_pairs":1.8,"total_pairs":20},{"measure":24,"dissonance":0.095,"dissonant_pairs":2.1,"total_pairs":22},{"measure":25,"dissonance":0.137,"dissonant_pairs":2.6,"total_pairs":19},{"measure":26,"dissonance":0.059,"dissonant_pairs":1.3,"total_pairs":22},{"measure":27,"dissonance":0.116,"dissonant_pairs":2.9,"total_pairs":25},{"measure":28,"dissonance":0.143,"dissonant_pairs":3.3,"total_pairs":23},{"measure":29,"dissonance":0.124,"dissonant_pairs":5.7,"total_pairs":46},{"measure":30,"dissonance":0.184,"dissonant_pairs":4.6,"total_pairs":25},{"measure":31,"dissonance":0.095,"dissonant_pairs":1.8,"total_pairs":19},{"measure":32,"dissonance":0.118,"dissonant_pairs":2.6,"total_pairs":22},{"measure":33,"dissonance":0.264,"dissonant_pairs":5.8,"total_pairs":22},{"measure":34,"dissonance":0.209,"dissonant_pairs":4.6,"total_pairs":22},{"measure":35,"dissonance":0.136,"dissonant_pairs":3.0,"total_pairs":22},{"measure":36,"dissonance":0.159,"dissonant_pairs":3.5,"total_pairs":22},{"measure":37,"dissonance":0.071,"dissonant_pairs":1.5,"total_pairs":21},{"measure":38,"dissonance":0.023,"dissonant_pairs":0.5,"total_pairs":22},{"measure":39,"dissonance":0.143,"dissonant_pairs":3.3,"total_pairs":23},{"measure":40,"dissonance":0.082,"dissonant_pairs":1.8,"total_pairs":22},{"measure":41,"dissonance":0.1,"dissonant_pairs":2.3,"total_pairs":23},{"measure":42,"dissonance":0.164,"dissonant_pairs":3.6,"total_pairs":22},{"measure":43,"dissonance":0.091,"dissonant_pairs":4.1,"total_pairs":45},{"measure":44,"dissonance":0.077,"dissonant_pairs":3.0,"total_pairs":39},{"measure":45,"dissonance":0.18,"dissonant_pairs":7.2,"total_pairs":40},{"measure":46,"dissonance":0.14,"dissonant_pairs":2.1,"total_pairs":15},{"measure":47,"dissonance":0.059,"dissonant_pairs":1.3,"total_pairs":22},{"measure":48,"dissonance":0.232,"dissonant_pairs":5.1,"total_pairs":22},{"measure":49,"dissonance":0.173,"dissonant_pairs":3.8,"total_pairs":22},{"measure":50,"dissonance":0.183,"dissonant_pairs":4.4,"total_pairs":24},{"measure":51,"dissonance":0.117,"dissonant_pairs":4.9,"total_pairs":42},{"measure":52,"dissonance":0.124,"dissonant_pairs":5.2,"total_pairs":42},{"measure":53,"dissonance":0.155,"dissonant_pairs":5.9,"total_pairs":38},{"measure":54,"dissonance":0.172,"dissonant_pairs":4.3,"total_pairs":25},{"measure":55,"dissonance":0.191,"dissonant_pairs":8.2,"total_pairs":43},{"measure":56,"dissonance":0.108,"dissonant_pairs":2.6,"total_pairs":24},{"measure":57,"dissonance":0.126,"dissonant_pairs":2.4,"total_pairs":19},{"measure":58,"dissonance":0.058,"dissonant_pairs":2.6,"total_pairs":45},{"measure":59,"dissonance":0.14,"dissonant_pairs":6.7,"total_pairs":48},{"measure":60,"dissonance":0.15,"dissonant_pairs":5.4,"total_pairs":36},{"measure":61,"dissonance":0.05,"dissonant_pairs":1.5,"total_pairs":30},{"measure":62,"dissonance":0.191,"dissonant_pairs":4.2,"total_pairs":22},{"measure":63,"dissonance":0.183,"dissonant_pairs":8.8,"total_pairs":48},{"measure":64,"dissonance":0.048,"dissonant_pairs":2.0,"total_pairs":42},{"measure":65,"dissonance":0.15,"dissonant_pairs":6.0,"total_pairs":40},{"measure":66,"dissonance":0.156,"dissonant_pairs":7.0,"total_pairs":45},{"measure":67,"dissonance":0.18,"dissonant_pairs":8.1,"total_pairs":45},{"measure":68,"dissonance":0.139,"dissonant_pairs":4.3,"total_pairs":31},{"measure":69,"dissonance":0.068,"dissonant_pairs":1.5,"total_pairs":22},{"measure":70,"dissonance":0.071,"dissonant_pairs":1.0,"total_pairs":14},{"measure":71,"dissonance":0.165,"dissonant_pairs":4.3,"total_pairs":26},{"measure":72,"dissonance":0.042,"dissonant_pairs":0.5,"total_pairs":12}]}