{"metadata":{"title":"The Art of the Fugue, Contrapunctus XIV","number":"XIV","composer":"J.S. Bach","source_midi":"kunst_der_fuge_xiv_mutopia.mid","tempo_bpm":120.0,"tempo_us_per_beat":500000,"ticks_per_beat":384,"time_signature":"4/4","key_signature":"D minor","total_duration_seconds":268.3633,"total_measures":122,"beats_per_measure":4},"voices":[{"id":0,"name":"Upper","midi_channel":0,"midi_track":1,"color":"#E85D4A","pitch_min":60,"pitch_max":86,"note_count":684},{"id":1,"name":"Lower","midi_channel":1,"midi_track":2,"color":"#4A90D9","pitch_min":38,"pitch_max":70,"note_count":712}],"notes":[{"voice":1,"pitch":57,"start":0.0,"duration":0.8182,"velocity":127,"measure":1,"beat":1.0,"subject_pos":0,"motif":"subject_inv","motif_pos":0,"best_pos":0,"similarity":1.0},{"voice":1,"pitch":50,"start":0.8182,"duration":1.6364,"velocity":127,"measure":1,"beat":2.5,"subject_pos":1,"motif":"subject_inv","motif_pos":1,"best_pos":1,"similarity":1.0},{"voice":1,"pitch":53,"start":2.4545,"duration":1.6364,"velocity":127,"measure":2,"beat":1.5,"subject_pos":2,"motif":"subject_inv","motif_pos":2,"best_pos":2,"similarity":1.0},{"voice":1,"pitch":57,"start":4.0909,"duration":1.6364,"velocity":127,"measure":2,"beat":4.5,"subject_pos":3,"motif":"subject_inv","motif_pos":3,"best_pos":3,"similarity":1.0},{"voice":1,"pitch":58,"start":5.7273,"duration":1.6364,"velocity":127,"measure":3,"beat":3.5,"subject_pos":4,"motif":"subject_inv","motif_pos":4,"best_pos":4,"similarity":1.0},{"voice":1,"pitch":57,"start":7.3636,"duration":1.6364,"velocity":127,"measure":4,"beat":2.5,"subject_pos":5,"motif":"subject_inv","motif_pos":5,"best_pos":5,"similarity":1.0},{"voice":1,"pitch":55,"start":9.0,"duration":1.6364,"velocity":127,"measure":5,"beat":1.5,"subject_pos":6,"motif":"subject_inv","motif_pos":6,"best_pos":6,"similarity":1.0},{"voice":1,"pitch":53,"start":10.6364,"duration":1.3636,"velocity":127,"measure":5,"beat":4.5,"subject_pos":7,"motif":"subject_inv","motif_pos":7,"best_pos":7,"similarity":1.0},{"voice":1,"pitch":52,"start":12.0,"duration":0.2727,"velocity":127,"measure":6,"beat":3.0,"subject_pos":-1,"motif":"","motif_pos":-1,"best_pos":4,"similarity":0.893},{"voice":1,"pitch":53,"start":12.2727,"duration":0.5455,"velocity":127,"measure":6,"beat":3.5,"subject_pos":-1,"motif":"","motif_pos":-1,"best_pos":5,"similarity":0.821},{"voice":1,"pitch":55,"start":12.8182,"duration":0.2727,"velocity":127,"measure":6,"beat":4.5,"subject_pos":-1,"motif":"","motif_pos":-1,"best_pos":6,"similarity":0.643},{"voice":0,"pitch":72,"start":13.0909,"duration":0.8182,"velocity":127,"measure":7,"beat":1.0,"subject_pos":-1,"motif":"","motif_pos":-1,"best_pos":4,"similarity":0.054},{"voice":1,"pitch":57,"start":13.0909,"duration":0.2727,"velocity":127,"measure":7,"beat":1.0,"subject_pos":-1,"motif":"","motif_pos":-1,"best_pos":6,"similarity":0.404},{"voice":1,"pitch":55,"start":13.3636,"duration":0.2727,"velocity":127,"measure":7,"beat":1.5,"subject_pos":-1,"motif":"","motif_pos":-1,"best_pos":5,"similarity":0.471},{"voice":1,"pitch":57,"start":13.6364,"duration":0.2727,"velocity":127,"measure":7,"beat":2.0,"subject_pos":-1,"motif":"","motif_pos":-1,"best_pos":6,"similarity":0.593},{"voice":0,"pitch":65,"start":13.9091,"duration":1.6364,"velocity":127,"measure":7,"beat":2.5,"subject_pos":-1,"motif":"","motif_pos":-1,"best_pos":0,"similarity":0.143},{"voice":1,"pitch":58,"start":13.9091,"duration":0.2727,"velocity":127,"measure":7,"beat":2.5,"subject_pos":-1,"motif":"","motif_pos":-1,"best_pos":7,"similarity":0.436},{"voice":1,"pitch":57,"start":14.1818,"duration":0.2727,"velocity":127,"measure":7,"beat":3.0,"subject_pos":-1,"motif":"","motif_pos":-1,"best_pos":2,"similarity":0.407},{"voice":1,"pitch":55,"start":14.4545,"duration":0.2727,"velocity":127,"measure":7,"beat":3.5,"subject_pos":-1,"motif":"","motif_pos":-1,"best_pos":2,"similarity":0.45},{"voice":1,"pitch":53,"start":14.7273,"duration":0.2727,"velocity":127,"measure":7,"beat":4.0,"subject_pos":-1,"motif":"","motif_pos":-1,"best_pos":5,"similarity":0.418},{"voice":1,"pitch":55,"start":15.0,"duration":0.2727,"velocity":127,"measure":7,"beat":4.5,"subject_pos":-1,"motif":"","motif_pos":-1,"best_pos":2,"similarity":0.421},{"voice":1,"pitch":52,"start":15.2727,"duration":0.2727,"velocity":127,"measure":8,"beat":1.0,"subject_pos":-1,"motif":"","motif_pos":-1,"best_pos":3,"similarity":0.514},{"voice":0,"pitch":69,"start":15.5454,"duration":1.6364,"velocity":127,"measure":8,"beat":1.5,"subject_pos":-1,"motif":"","motif_pos":-1,"best_pos":5,"similarity":0.243},{"voice":1,"pitch":50,"start":15.5454,"duration":0.2727,"velocity":127,"measure":8,"beat":1.5,"subject_pos":-1,"motif":"","motif_pos":-1,"best_pos":4,"similarity":0.507},{"voice":1,"pitch":52,"start":15.8182,"duration":0.2727,"velocity":127,"measure":8,"beat":2.0,"subject_pos":-1,"motif":"","motif_pos":-1,"best_pos":5,"similarity":0.429},{"voice":1,"pitch":49,"start":16.0909,"duration":0.2727,"velocity":127,"measure":8,"beat":2.5,"subject_pos":-1,"motif":"","motif_pos":-1,"best_pos":4,"similarity":0.436},{"voice":1,"pitch":50,"start":16.3636,"duration":0.2727,"velocity":127,"measure":8,"beat":3.0,"subject_pos":-1,"motif":"","motif_pos":-1,"best_pos":5,"similarity":0.336},{"voice":1,"pitch":57,"start":16.6363,"duration":0.2727,"velocity":127,"measure":8,"beat":3.5,"subject_pos":-1,"motif":"","motif_pos":-1,"best_pos":0,"similarity":0.429},{"voice":1,"pitch":62,"start":16.9091,"duration":0.2727,"velocity":127,"measure":8,"beat":4.0,"subject_pos":-1,"motif":"","motif_pos":-1,"best_pos":1,"similarity":0.579},{"voice":0,"pitch":72,"start":17.1818,"duration":1.6364,"velocity":127,"measure":8,"beat":4.5,"subject_pos":-1,"motif":"","motif_pos":-1,"best_pos":5,"similarity":0.379},{"voice":1,"pitch":60,"start":17.1818,"duration":0.2727,"velocity":127,"measure":8,"beat":4.5,"subject_pos":-1,"motif":"","motif_pos":-1,"best_pos":2,"similarity":0.461},{"voice":1,"pitch":62,"start":17.4545,"duration":0.2727,"velocity":127,"measure":9,"beat":1.0,"subject_pos":-1,"motif":"","motif_pos":-1,"best_pos":2,"similarity":0.386},{"voice":1,"pitch":58,"start":17.7273,"duration":0.2727,"velocity":127,"measure":9,"beat":1.5,"subject_pos":-1,"motif":"","motif_pos":-1,"best_pos":3,"similarity":0.586},{"voice":1,"pitch":57,"start":18.0,"duration":0.2727,"velocity":127,"measure":9,"beat":2.0,"subject_pos":-1,"motif":"","motif_pos":-1,"best_pos":4,"similarity":0.657},{"voice":1,"pitch":58,"start":18.2727,"duration":0.2727,"velocity":127,"measure":9,"beat":2.5,"subject_pos":-1,"motif":"","motif_pos":-1,"best_pos":5,"similarity":0.479},{"voice":1,"pitch":55,"start":18.5454,"duration":0.2727,"velocity":127,"measure":9,"beat":3.0,"subject_pos":-1,"motif":"","motif_pos":-1,"best_pos":3,"similarity":0.514},{"voice":0,"pitch":74,"start":18.8182,"duration":1.6364,"velocity":127,"measure":9,"beat":3.5,"subject_pos":-1,"motif":"","motif_pos":-1,"best_pos":1,"similarity":0.457},{"voice":1,"pitch":53,"start":18.8182,"duration":0.2727,"velocity":127,"measure":9,"beat":3.5,"subject_pos":-1,"motif":"","motif_pos":-1,"best_pos":4,"similarity":0.507},{"voice":1,"pitch":55,"start":19.0909,"duration":0.2727,"velocity":127,"measure":9,"beat":4.0,"subject_pos":-1,"motif":"","motif_pos":-1,"best_pos":5,"similarity":0.429},{"voice":1,"pitch":52,"start":19.3636,"duration":0.2727,"velocity":127,"measure":9,"beat":4.5,"subject_pos":-1,"motif":"","motif_pos":-1,"best_pos":4,"similarity":0.464},{"voice":1,"pitch":53,"start":19.6363,"duration":0.2727,"velocity":127,"measure":10,"beat":1.0,"subject_pos":-1,"motif":"","motif_pos":-1,"best_pos":4,"similarity":0.464},{"voice":1,"pitch":50,"start":19.9091,"duration":0.2727,"velocity":127,"measure":10,"beat":1.5,"subject_pos":-1,"motif":"","motif_pos":-1,"best_pos":5,"similarity":0.564},{"voice":1,"pitch":52,"start":20.1818,"duration":0.2727,"velocity":127,"measure":10,"beat":2.0,"subject_pos":-1,"motif":"","motif_pos":-1,"best_pos":6,"similarity":0.604},{"voice":0,"pitch":72,"start":20.4545,"duration":1.6364,"velocity":127,"measure":10,"beat":2.5,"subject_pos":-1,"motif":"","motif_pos":-1,"best_pos":2,"similarity":0.593},{"voice":1,"pitch":53,"start":20.4545,"duration":0.2727,"velocity":127,"measure":10,"beat":2.5,"subject_pos":-1,"motif":"","motif_pos":-1,"best_pos":5,"similarity":0.457},{"voice":1,"pitch":57,"start":20.7273,"duration":0.2727,"velocity":127,"measure":10,"beat":3.0,"subject_pos":-1,"motif":"","motif_pos":-1,"best_pos":1,"similarity":0.446},{"voice":1,"pitch":55,"start":21.0,"duration":0.2727,"velocity":127,"measure":10,"beat":3.5,"subject_pos":-1,"motif":"","motif_pos":-1,"best_pos":5,"similarity":0.464},{"voice":1,"pitch":57,"start":21.2727,"duration":0.2727,"velocity":127,"measure":10,"beat":4.0,"subject_pos":-1,"motif":"","motif_pos":-1,"best_pos":6,"similarity":0.586},{"voice":1,"pitch":58,"start":21.5454,"duration":0.2727,"velocity":127,"measure":10,"beat":4.5,"subject_pos":-1,"motif":"","motif_pos":-1,"best_pos":5,"similarity":0.693},{"voice":1,"pitch":60,"start":21.8182,"duration":0.2727,"velocity":127,"measure":11,"beat":1.0,"subject_pos":-1,"motif":"","motif_pos":-1,"best_pos":6,"similarity":0.579},{"voice":0,"pitch":70,"start":22.0909,"duration":1.6364,"velocity":127,"measure":11,"beat":1.5,"subject_pos":-1,"motif":"","motif_pos":-1,"best_pos":3,"similarity":0.664},{"voice":1,"pitch":62,"start":22.0909,"duration":0.2727,"velocity":127,"measure":11,"beat":1.5,"subject_pos":-1,"motif":"","motif_pos":-1,"best_pos":6,"similarity":0.518},{"voice":1,"pitch":64,"start":22.3636,"duration":0.2727,"velocity":127,"measure":11,"beat":2.0,"subject_pos":-1,"motif":"","motif_pos":-1,"best_pos":6,"similarity":0.393},{"voice":1,"pitch":61,"start":22.6363,"duration":0.2727,"velocity":127,"measure":11,"beat":2.5,"subject_pos":-1,"motif":"","motif_pos":-1,"best_pos":3,"similarity":0.379},{"voice":1,"pitch":62,"start":22.9091,"duration":0.2727,"velocity":127,"measure":11,"beat":3.0,"subject_pos":-1,"motif":"","motif_pos":-1,"best_pos":5,"similarity":0.321},{"voice":1,"pitch":50,"start":23.1818,"duration":0.2727,"velocity":127,"measure":11,"beat":3.5,"subject_pos":-1,"motif":"","motif_pos":-1,"best_pos":2,"similarity":0.175},{"voice":1,"pitch":62,"start":23.4545,"duration":0.5455,"velocity":127,"measure":11,"beat":4.0,"subject_pos":-1,"motif":"","motif_pos":-1,"best_pos":3,"similarity":0.336},{"voice":0,"pitch":69,"start":23.7272,"duration":1.3636,"velocity":127,"measure":11,"beat":4.5,"subject_pos":-1,"motif":"","motif_pos":-1,"best_pos":4,"similarity":0.636},{"voice":1,"pitch":61,"start":24.0,"duration":0.2727,"velocity":127,"measure":12,"beat":1.0,"subject_pos":-1,"motif":"","motif_pos":-1,"best_pos":4,"similarity":0.407},{"voice":1,"pitch":64,"start":24.2727,"duration":0.2727,"velocity":127,"measure":12,"beat":1.5,"subject_pos":-1,"motif":"","motif_pos":-1,"best_pos":1,"similarity":0.375},{"voice":1,"pitch":62,"start":24.5454,"duration":0.2727,"velocity":127,"measure":12,"beat":2.0,"subject_pos":-1,"motif":"","motif_pos":-1,"best_pos":5,"similarity":0.489},{"voice":1,"pitch":64,"start":24.8182,"duration":0.2727,"velocity":127,"measure":12,"beat":2.5,"subject_pos":-1,"motif":"","motif_pos":-1,"best_pos":6,"similarity":0.593},{"voice":0,"pitch":67,"start":25.0909,"duration":0.2727,"velocity":127,"measure":12,"beat":3.0,"subject_pos":-1,"motif":"","motif_pos":-1,"best_pos":4,"similarity":0.607},{"voice":1,"pitch":65,"start":25.0909,"duration":0.2727,"velocity":127,"measure":12,"beat":3.0,"subject_pos":-1,"motif":"","motif_pos":-1,"best_pos":5,"similarity":0.507},{"voice":0,"pitch":69,"start":25.3636,"duration":0.5455,"velocity":127,"measure":12,"beat":3.5,"subject_pos":-1,"motif":"","motif_pos":-1,"best_pos":5,"similarity":0.661},{"voice":1,"pitch":64,"start":25.3636,"duration":0.2727,"velocity":127,"measure":12,"beat":3.5,"subject_pos":-1,"motif":"","motif_pos":-1,"best_pos":4,"similarity":0.6},{"voice":1,"pitch":65,"start":25.6363,"duration":0.2727,"velocity":127,"measure":12,"beat":4.0,"subject_pos":-1,"motif":"","motif_pos":-1,"best_pos":5,"similarity":0.45},{"voice":0,"pitch":71,"start":25.9091,"duration":0.2727,"velocity":127,"measure":12,"beat":4.5,"subject_pos":-1,"motif":"","motif_pos":-1,"best_pos":6,"similarity":0.679},{"voice":1,"pitch":62,"start":25.9091,"duration":0.2727,"velocity":127,"measure":12,"beat":4.5,"subject_pos":-1,"motif":"","motif_pos":-1,"best_pos":3,"similarity":0.461},{"voice":0,"pitch":72,"start":26.1818,"duration":0.2727,"velocity":127,"measure":13,"beat":1.0,"subject_pos":-1,"motif":"","motif_pos":-1,"best_pos":7,"similarity":0.464},{"voice":1,"pitch":60,"start":26.1818,"duration":0.8182,"velocity":127,"measure":13,"beat":1.0,"subject_pos":-1,"motif":"","motif_pos":-1,"best_pos":4,"similarity":0.346},{"voice":0,"pitch":70,"start":26.4545,"duration":0.2727,"velocity":127,"measure":13,"beat":1.5,"subject_pos":-1,"motif":"","motif_pos":-1,"best_pos":4,"similarity":0.457},{"voice":0,"pitch":72,"start":26.7272,"duration":0.2727,"velocity":127,"measure":13,"beat":2.0,"subject_pos":-1,"motif":"","motif_pos":-1,"best_pos":5,"similarity":0.521},{"voice":0,"pitch":74,"start":27.0,"duration":0.2727,"velocity":127,"measure":13,"beat":2.5,"subject_pos":-1,"motif":"","motif_pos":-1,"best_pos":1,"similarity":0.457},{"voice":1,"pitch":53,"start":27.0,"duration":1.6364,"velocity":127,"measure":13,"beat":2.5,"subject_pos":-1,"motif":"","motif_pos":-1,"best_pos":3,"similarity":0.279},{"voice":0,"pitch":72,"start":27.2727,"duration":0.2727,"velocity":127,"measure":13,"beat":3.0,"subject_pos":-1,"motif":"","motif_pos":-1,"best_pos":2,"similarity":0.657},{"voice":0,"pitch":70,"start":27.5454,"duration":0.2727,"velocity":127,"measure":13,"beat":3.5,"subject_pos":-1,"motif":"","motif_pos":-1,"best_pos":3,"similarity":0.721},{"voice":0,"pitch":69,"start":27.8182,"duration":0.2727,"velocity":127,"measure":13,"beat":4.0,"subject_pos":-1,"motif":"","motif_pos":-1,"best_pos":4,"similarity":0.721},{"voice":0,"pitch":70,"start":28.0909,"duration":0.2727,"velocity":127,"measure":13,"beat":4.5,"subject_pos":-1,"motif":"","motif_pos":-1,"best_pos":5,"similarity":0.479},{"voice":0,"pitch":67,"start":28.3636,"duration":0.2727,"velocity":127,"measure":14,"beat":1.0,"subject_pos":-1,"motif":"","motif_pos":-1,"best_pos":3,"similarity":0.514},{"voice":0,"pitch":65,"start":28.6363,"duration":0.2727,"velocity":127,"measure":14,"beat":1.5,"subject_pos":-1,"motif":"","motif_pos":-1,"best_pos":4,"similarity":0.507},{"voice":1,"pitch":57,"start":28.6363,"duration":1.6364,"velocity":127,"measure":14,"beat":1.5,"subject_pos":-1,"motif":"","motif_pos":-1,"best_pos":4,"similarity":0.307},{"voice":0,"pitch":67,"start":28.9091,"duration":0.2727,"velocity":127,"measure":14,"beat":2.0,"subject_pos":-1,"motif":"","motif_pos":-1,"best_pos":5,"similarity":0.429},{"voice":0,"pitch":64,"start":29.1818,"duration":0.2727,"velocity":127,"measure":14,"beat":2.5,"subject_pos":-1,"motif":"","motif_pos":-1,"best_pos":4,"similarity":0.436},{"voice":0,"pitch":65,"start":29.4545,"duration":0.2727,"velocity":127,"measure":14,"beat":3.0,"subject_pos":-1,"motif":"","motif_pos":-1,"best_pos":5,"similarity":0.336},{"voice":0,"pitch":72,"start":29.7272,"duration":0.2727,"velocity":127,"measure":14,"beat":3.5,"subject_pos":-1,"motif":"","motif_pos":-1,"best_pos":0,"similarity":0.364},{"voice":0,"pitch":77,"start":30.0,"duration":0.2727,"velocity":127,"measure":14,"beat":4.0,"subject_pos":-1,"motif":"","motif_pos":-1,"best_pos":1,"similarity":0.461},{"voice":0,"pitch":76,"start":30.2727,"duration":0.2727,"velocity":127,"measure":14,"beat":4.5,"subject_pos":-1,"motif":"","motif_pos":-1,"best_pos":4,"similarity":0.579},{"voice":1,"pitch":60,"start":30.2727,"duration":1.6364,"velocity":127,"measure":14,"beat":4.5,"subject_pos":-1,"motif":"","motif_pos":-1,"best_pos":5,"similarity":0.379},{"voice":0,"pitch":77,"start":30.5454,"duration":0.2727,"velocity":127,"measure":15,"beat":1.0,"subject_pos":-1,"motif":"","motif_pos":-1,"best_pos":5,"similarity":0.443},{"voice":0,"pitch":74,"start":30.8182,"duration":0.2727,"velocity":127,"measure":15,"beat":1.5,"subject_pos":-1,"motif":"","motif_pos":-1,"best_pos":3,"similarity":0.514},{"voice":0,"pitch":72,"start":31.0909,"duration":0.2727,"velocity":127,"measure":15,"beat":2.0,"subject_pos":-1,"motif":"","motif_pos":-1,"best_pos":4,"similarity":0.454},{"voice":0,"pitch":74,"start":31.3636,"duration":0.2727,"velocity":127,"measure":15,"beat":2.5,"subject_pos":-1,"motif":"","motif_pos":-1,"best_pos":2,"similarity":0.386},{"voice":0,"pitch":70,"start":31.6363,"duration":0.2727,"velocity":127,"measure":15,"beat":3.0,"subject_pos":-1,"motif":"","motif_pos":-1,"best_pos":3,"similarity":0.586},{"voice":0,"pitch":69,"start":31.9091,"duration":0.2727,"velocity":127,"measure":15,"beat":3.5,"subject_pos":-1,"motif":"","motif_pos":-1,"best_pos":4,"similarity":0.686},{"voice":1,"pitch":62,"start":31.9091,"duration":1.6364,"velocity":127,"measure":15,"beat":3.5,"subject_pos":-1,"motif":"","motif_pos":-1,"best_pos":1,"similarity":0.457},{"voice":0,"pitch":70,"start":32.1818,"duration":0.2727,"velocity":127,"measure":15,"beat":4.0,"subject_pos":-1,"motif":"","motif_pos":-1,"best_pos":5,"similarity":0.536},{"voice":0,"pitch":67,"start":32.4545,"duration":0.2727,"velocity":127,"measure":15,"beat":4.5,"subject_pos":-1,"motif":"","motif_pos":-1,"best_pos":3,"similarity":0.4},{"voice":0,"pitch":69,"start":32.7272,"duration":0.2727,"velocity":127,"measure":16,"beat":1.0,"subject_pos":-1,"motif":"","motif_pos":-1,"best_pos":4,"similarity":0.357},{"voice":0,"pitch":65,"start":33.0,"duration":0.2727,"velocity":127,"measure":16,"beat":1.5,"subject_pos":-1,"motif":"","motif_pos":-1,"best_pos":5,"similarity":0.443},{"voice":0,"pitch":67,"start":33.2727,"duration":0.2727,"velocity":127,"measure":16,"beat":2.0,"subject_pos":-1,"motif":"","motif_pos":-1,"best_pos":5,"similarity":0.479},{"voice":0,"pitch":69,"start":33.5454,"duration":0.2727,"velocity":127,"measure":16,"beat":2.5,"subject_pos":-1,"motif":"","motif_pos":-1,"best_pos":6,"similarity":0.436},{"voice":1,"pitch":60,"start":33.5454,"duration":1.6364,"velocity":127,"measure":16,"beat":2.5,"subject_pos":-1,"motif":"","motif_pos":-1,"best_pos":2,"similarity":0.593},{"voice":0,"pitch":72,"start":33.8181,"duration":0.2727,"velocity":127,"measure":16,"beat":3.0,"subject_pos":-1,"motif":"","motif_pos":-1,"best_pos":1,"similarity":0.364},{"voice":0,"pitch":70,"start":34.0909,"duration":0.2727,"velocity":127,"measure":16,"beat":3.5,"subject_pos":-1,"motif":"","motif_pos":-1,"best_pos":4,"similarity":0.471},{"voice":0,"pitch":72,"start":34.3636,"duration":0.2727,"velocity":127,"measure":16,"beat":4.0,"subject_pos":-1,"motif":"","motif_pos":-1,"best_pos":5,"similarity":0.571},{"voice":0,"pitch":74,"start":34.6363,"duration":0.2727,"velocity":127,"measure":16,"beat":4.5,"subject_pos":-1,"motif":"","motif_pos":-1,"best_pos":5,"similarity":0.621},{"voice":0,"pitch":76,"start":34.9091,"duration":0.2727,"velocity":127,"measure":17,"beat":1.0,"subject_pos":-1,"motif":"","motif_pos":-1,"best_pos":6,"similarity":0.65},{"voice":0,"pitch":77,"start":35.1818,"duration":0.2727,"velocity":127,"measure":17,"beat":1.5,"subject_pos":-1,"motif":"","motif_pos":-1,"best_pos":5,"similarity":0.6},{"voice":1,"pitch":58,"start":35.1818,"duration":1.6364,"velocity":127,"measure":17,"beat":1.5,"subject_pos":-1,"motif":"","motif_pos":-1,"best_pos":3,"similarity":0.664},{"voice":0,"pitch":79,"start":35.4545,"duration":0.2727,"velocity":127,"measure":17,"beat":2.0,"subject_pos":-1,"motif":"","motif_pos":-1,"best_pos":6,"similarity":0.464},{"voice":0,"pitch":76,"start":35.7272,"duration":0.2727,"velocity":127,"measure":17,"beat":2.5,"subject_pos":-1,"motif":"","motif_pos":-1,"best_pos":3,"similarity":0.379},{"voice":0,"pitch":77,"start":36.0,"duration":0.2727,"velocity":127,"measure":17,"beat":3.0,"subject_pos":-1,"motif":"","motif_pos":-1,"best_pos":5,"similarity":0.321},{"voice":0,"pitch":65,"start":36.2727,"duration":0.2727,"velocity":127,"measure":17,"beat":3.5,"subject_pos":-1,"motif":"","motif_pos":-1,"best_pos":2,"similarity":0.175},{"voice":0,"pitch":77,"start":36.5454,"duration":0.5455,"velocity":127,"measure":17,"beat":4.0,"subject_pos":-1,"motif":"","motif_pos":-1,"best_pos":3,"similarity":0.336},{"voice":1,"pitch":57,"start":36.8181,"duration":1.3636,"velocity":127,"measure":17,"beat":4.5,"subject_pos":-1,"motif":"","motif_pos":-1,"best_pos":4,"similarity":0.636},{"voice":0,"pitch":76,"start":37.0909,"duration":0.2727,"velocity":127,"measure":18,"beat":1.0,"subject_pos":-1,"motif":"","motif_pos":-1,"best_pos":4,"similarity":0.407},{"voice":0,"pitch":79,"start":37.3636,"duration":0.2727,"velocity":127,"measure":18,"beat":1.5,"subject_pos":-1,"motif":"","motif_pos":-1,"best_pos":1,"similarity":0.364},{"voice":0,"pitch":77,"start":37.6363,"duration":0.2727,"velocity":127,"measure":18,"beat":2.0,"subject_pos":-1,"motif":"","motif_pos":-1,"best_pos":4,"similarity":0.471},{"voice":0,"pitch":79,"start":37.9091,"duration":0.2727,"velocity":127,"measure":18,"beat":2.5,"subject_pos":-1,"motif":"","motif_pos":-1,"best_pos":5,"similarity":0.514},{"voice":0,"pitch":81,"start":38.1818,"duration":0.2727,"velocity":127,"measure":18,"beat":3.0,"subject_pos":-1,"motif":"","motif_pos":-1,"best_pos":6,"similarity":0.421},{"voice":1,"pitch":55,"start":38.1818,"duration":0.2727,"velocity":127,"measure":18,"beat":3.0,"subject_pos":-1,"motif":"","motif_pos":-1,"best_pos":4,"similarity":0.607},{"voice":0,"pitch":79,"start":38.4545,"duration":0.2727,"velocity":127,"measure":18,"beat":3.5,"subject_pos":-1,"motif":"","motif_pos":-1,"best_pos":2,"similarity":0.332},{"voice":1,"pitch":57,"start":38.4545,"duration":0.5455,"velocity":127,"measure":18,"beat":3.5,"subject_pos":-1,"motif":"","motif_pos":-1,"best_pos":5,"similarity":0.661},{"voice":0,"pitch":81,"start":38.7272,"duration":0.2727,"velocity":127,"measure":18,"beat":4.0,"subject_pos":-1,"motif":"","motif_pos":-1,"best_pos":1,"similarity":0.35},{"voice":0,"pitch":77,"start":39.0,"duration":0.2727,"velocity":127,"measure":18,"beat":4.5,"subject_pos":-1,"motif":"","motif_pos":-1,"best_pos":3,"similarity":0.479},{"voice":1,"pitch":59,"start":39.0,"duration":0.2727,"velocity":127,"measure":18,"beat":4.5,"subject_pos":-1,"motif":"","motif_pos":-1,"best_pos":6,"similarity":0.679},{"voice":0,"pitch":76,"start":39.2727,"duration":0.8182,"velocity":127,"measure":19,"beat":1.0,"subject_pos":0,"motif":"subject_inv","motif_pos":0,"best_pos":0,"similarity":1.0},{"voice":1,"pitch":60,"start":39.2727,"duration":0.2727,"velocity":127,"measure":19,"beat":1.0,"subject_pos":-1,"motif":"","motif_pos":-1,"best_pos":3,"similarity":0.55},{"voice":1,"pitch":59,"start":39.5454,"duration":0.2727,"velocity":127,"measure":19,"beat":1.5,"subject_pos":-1,"motif":"","motif_pos":-1,"best_pos":4,"similarity":0.771},{"voice":1,"pitch":60,"start":39.8181,"duration":0.5455,"velocity":127,"measure":19,"beat":2.0,"subject_pos":-1,"motif":"","motif_pos":-1,"best_pos":5,"similarity":0.793},{"voice":0,"pitch":69,"start":40.0909,"duration":1.6364,"velocity":127,"measure":19,"beat":2.5,"subject_pos":1,"motif":"subject_inv","motif_pos":1,"best_pos":1,"similarity":1.0},{"voice":1,"pitch":62,"start":40.3636,"duration":0.2727,"velocity":127,"measure":19,"beat":3.0,"subject_pos":-1,"motif":"","motif_pos":-1,"best_pos":6,"similarity":0.643},{"voice":1,"pitch":64,"start":40.6363,"duration":0.2727,"velocity":127,"measure":19,"beat":3.5,"subject_pos":-1,"motif":"","motif_pos":-1,"best_pos":6,"similarity":0.404},{"voice":1,"pitch":62,"start":40.9091,"duration":0.2727,"velocity":127,"measure":19,"beat":4.0,"subject_pos":-1,"motif":"","motif_pos":-1,"best_pos":5,"similarity":0.471},{"voice":1,"pitch":64,"start":41.1818,"duration":0.2727,"velocity":127,"measure":19,"beat":4.5,"subject_pos":-1,"motif":"","motif_pos":-1,"best_pos":6,"similarity":0.593},{"voice":1,"pitch":65,"start":41.4545,"duration":0.2727,"velocity":127,"measure":20,"beat":1.0,"subject_pos":-1,"motif":"","motif_pos":-1,"best_pos":3,"similarity":0.543},{"voice":0,"pitch":72,"start":41.7272,"duration":1.6364,"velocity":127,"measure":20,"beat":1.5,"subject_pos":2,"motif":"subject_inv","motif_pos":2,"best_pos":2,"similarity":1.0},{"voice":1,"pitch":64,"start":41.7272,"duration":0.2727,"velocity":127,"measure":20,"beat":1.5,"subject_pos":-1,"motif":"","motif_pos":-1,"best_pos":4,"similarity":0.743},{"voice":1,"pitch":65,"start":42.0,"duration":0.2727,"velocity":127,"measure":20,"beat":2.0,"subject_pos":-1,"motif":"","motif_pos":-1,"best_pos":5,"similarity":0.736},{"voice":1,"pitch":67,"start":42.2727,"duration":0.2727,"velocity":127,"measure":20,"beat":2.5,"subject_pos":-1,"motif":"","motif_pos":-1,"best_pos":6,"similarity":0.529},{"voice":1,"pitch":65,"start":42.5454,"duration":0.2727,"velocity":127,"measure":20,"beat":3.0,"subject_pos":-1,"motif":"","motif_pos":-1,"best_pos":4,"similarity":0.443},{"voice":1,"pitch":67,"start":42.8181,"duration":0.2727,"velocity":127,"measure":20,"beat":3.5,"subject_pos":-1,"motif":"","motif_pos":-1,"best_pos":5,"similarity":0.514},{"voice":1,"pitch":69,"start":43.0909,"duration":0.2727,"velocity":127,"measure":20,"beat":4.0,"subject_pos":-1,"motif":"","motif_pos":-1,"best_pos":6,"similarity":0.421},{"voice":0,"pitch":76,"start":43.3636,"duration":1.6364,"velocity":127,"measure":20,"beat":4.5,"subject_pos":3,"motif":"subject_inv","motif_pos":3,"best_pos":3,"similarity":1.0},{"voice":1,"pitch":67,"start":43.3636,"duration":0.2727,"velocity":127,"measure":20,"beat":4.5,"subject_pos":-1,"motif":"","motif_pos":-1,"best_pos":5,"similarity":0.471},{"voice":1,"pitch":69,"start":43.6363,"duration":0.2727,"velocity":127,"measure":21,"beat":1.0,"subject_pos":-1,"motif":"","motif_pos":-1,"best_pos":6,"similarity":0.593},{"voice":1,"pitch":70,"start":43.909,"duration":0.2727,"velocity":127,"measure":21,"beat":1.5,"subject_pos":-1,"motif":"","motif_pos":-1,"best_pos":7,"similarity":0.436},{"voice":1,"pitch":69,"start":44.1818,"duration":0.2727,"velocity":127,"measure":21,"beat":2.0,"subject_pos":-1,"motif":"","motif_pos":-1,"best_pos":4,"similarity":0.479},{"voice":1,"pitch":67,"start":44.4545,"duration":0.2727,"velocity":127,"measure":21,"beat":2.5,"subject_pos":-1,"motif":"","motif_pos":-1,"best_pos":5,"similarity":0.464},{"voice":1,"pitch":69,"start":44.7272,"duration":0.5455,"velocity":127,"measure":21,"beat":3.0,"subject_pos":-1,"motif":"","motif_pos":-1,"best_pos":1,"similarity":0.464},{"voice":0,"pitch":77,"start":45.0,"duration":1.6364,"velocity":127,"measure":21,"beat":3.5,"subject_pos":4,"motif":"subject_inv","motif_pos":4,"best_pos":4,"similarity":1.0},{"voice":1,"pitch":65,"start":45.2727,"duration":0.2727,"velocity":127,"measure":21,"beat":4.0,"subject_pos":-1,"motif":"","motif_pos":-1,"best_pos":2,"similarity":0.618},{"voice":1,"pitch":62,"start":45.5454,"duration":0.2727,"velocity":127,"measure":21,"beat":4.5,"subject_pos":-1,"motif":"","motif_pos":-1,"best_pos":3,"similarity":0.536},{"voice":1,"pitch":58,"start":45.8181,"duration":0.2727,"velocity":127,"measure":22,"beat":1.0,"subject_pos":-1,"motif":"","motif_pos":-1,"best_pos":3,"similarity":0.643},{"voice":1,"pitch":57,"start":46.0909,"duration":0.2727,"velocity":127,"measure":22,"beat":1.5,"subject_pos":-1,"motif":"","motif_pos":-1,"best_pos":4,"similarity":0.679},{"voice":1,"pitch":58,"start":46.3636,"duration":0.5455,"velocity":127,"measure":22,"beat":2.0,"subject_pos":-1,"motif":"","motif_pos":-1,"best_pos":5,"similarity":0.464},{"voice":0,"pitch":76,"start":46.6363,"duration":1.6364,"velocity":127,"measure":22,"beat":2.5,"subject_pos":5,"motif":"subject_inv","motif_pos":5,"best_pos":5,"similarity":1.0},{"voice":1,"pitch":67,"start":46.909,"duration":0.2727,"velocity":127,"measure":22,"beat":3.0,"subject_pos":-1,"motif":"","motif_pos":-1,"best_pos":6,"similarity":0.214},{"voice":1,"pitch":58,"start":47.1818,"duration":0.2727,"velocity":127,"measure":22,"beat":3.5,"subject_pos":-1,"motif":"","motif_pos":-1,"best_pos":3,"similarity":0.379},{"voice":1,"pitch":57,"start":47.4545,"duration":0.2727,"velocity":127,"measure":22,"beat":4.0,"subject_pos":-1,"motif":"","motif_pos":-1,"best_pos":4,"similarity":0.457},{"voice":1,"pitch":55,"start":47.7272,"duration":0.2727,"velocity":127,"measure":22,"beat":4.5,"subject_pos":-1,"motif":"","motif_pos":-1,"best_pos":5,"similarity":0.457},{"voice":1,"pitch":57,"start":48.0,"duration":0.5455,"velocity":127,"measure":23,"beat":1.0,"subject_pos":-1,"motif":"","motif_pos":-1,"best_pos":6,"similarity":0.371},{"voice":0,"pitch":74,"start":48.2727,"duration":1.6364,"velocity":127,"measure":23,"beat":1.5,"subject_pos":6,"motif":"subject_inv","motif_pos":6,"best_pos":6,"similarity":1.0},{"voice":1,"pitch":65,"start":48.5454,"duration":0.2727,"velocity":127,"measure":23,"beat":2.0,"subject_pos":-1,"motif":"","motif_pos":-1,"best_pos":1,"similarity":0.279},{"voice":1,"pitch":57,"start":48.8181,"duration":0.2727,"velocity":127,"measure":23,"beat":2.5,"subject_pos":-1,"motif":"","motif_pos":-1,"best_pos":1,"similarity":0.364},{"voice":1,"pitch":55,"start":49.0909,"duration":0.2727,"velocity":127,"measure":23,"beat":3.0,"subject_pos":-1,"motif":"","motif_pos":-1,"best_pos":2,"similarity":0.443},{"voice":1,"pitch":53,"start":49.3636,"duration":0.2727,"velocity":127,"measure":23,"beat":3.5,"subject_pos":-1,"motif":"","motif_pos":-1,"best_pos":5,"similarity":0.386},{"voice":1,"pitch":55,"start":49.6363,"duration":0.5455,"velocity":127,"measure":23,"beat":4.0,"subject_pos":-1,"motif":"","motif_pos":-1,"best_pos":6,"similarity":0.336},{"voice":0,"pitch":72,"start":49.909,"duration":1.3636,"velocity":127,"measure":23,"beat":4.5,"subject_pos":7,"motif":"subject_inv","motif_pos":7,"best_pos":7,"similarity":1.0},{"voice":1,"pitch":64,"start":50.1818,"duration":0.2727,"velocity":127,"measure":24,"beat":1.0,"subject_pos":-1,"motif":"","motif_pos":-1,"best_pos":1,"similarity":0.214},{"voice":1,"pitch":55,"start":50.4545,"duration":0.2727,"velocity":127,"measure":24,"beat":1.5,"subject_pos":-1,"motif":"","motif_pos":-1,"best_pos":2,"similarity":0.393},{"voice":1,"pitch":53,"start":50.7272,"duration":0.2727,"velocity":127,"measure":24,"beat":2.0,"subject_pos":-1,"motif":"","motif_pos":-1,"best_pos":3,"similarity":0.596},{"voice":1,"pitch":52,"start":50.9999,"duration":0.2727,"velocity":127,"measure":24,"beat":2.5,"subject_pos":-1,"motif":"","motif_pos":-1,"best_pos":4,"similarity":0.664},{"voice":0,"pitch":71,"start":51.2727,"duration":0.2727,"velocity":127,"measure":24,"beat":3.0,"subject_pos":-1,"motif":"","motif_pos":-1,"best_pos":4,"similarity":0.893},{"voice":1,"pitch":53,"start":51.2727,"duration":0.5455,"velocity":127,"measure":24,"beat":3.0,"subject_pos":-1,"motif":"","motif_pos":-1,"best_pos":5,"similarity":0.507},{"voice":0,"pitch":72,"start":51.5454,"duration":0.5455,"velocity":127,"measure":24,"beat":3.5,"subject_pos":-1,"motif":"","motif_pos":-1,"best_pos":5,"similarity":0.821},{"voice":1,"pitch":52,"start":51.8181,"duration":0.2727,"velocity":127,"measure":24,"beat":4.0,"subject_pos":-1,"motif":"","motif_pos":-1,"best_pos":4,"similarity":0.386},{"voice":0,"pitch":74,"start":52.0909,"duration":0.2727,"velocity":127,"measure":24,"beat":4.5,"subject_pos":-1,"motif":"","motif_pos":-1,"best_pos":6,"similarity":0.643},{"voice":1,"pitch":50,"start":52.0909,"duration":0.2727,"velocity":127,"measure":24,"beat":4.5,"subject_pos":-1,"motif":"","motif_pos":-1,"best_pos":0,"similarity":0.393},{"voice":0,"pitch":76,"start":52.3636,"duration":0.2727,"velocity":127,"measure":25,"beat":1.0,"subject_pos":-1,"motif":"","motif_pos":-1,"best_pos":6,"similarity":0.404},{"voice":1,"pitch":55,"start":52.3636,"duration":0.5455,"velocity":127,"measure":25,"beat":1.0,"subject_pos":-1,"motif":"","motif_pos":-1,"best_pos":1,"similarity":0.5},{"voice":0,"pitch":74,"start":52.6363,"duration":0.2727,"velocity":127,"measure":25,"beat":1.5,"subject_pos":-1,"motif":"","motif_pos":-1,"best_pos":5,"similarity":0.471},{"voice":0,"pitch":76,"start":52.909,"duration":0.5455,"velocity":127,"measure":25,"beat":2.0,"subject_pos":-1,"motif":"","motif_pos":-1,"best_pos":6,"similarity":0.593},{"voice":1,"pitch":52,"start":52.909,"duration":0.2727,"velocity":127,"measure":25,"beat":2.0,"subject_pos":-1,"motif":"","motif_pos":-1,"best_pos":2,"similarity":0.436},{"voice":1,"pitch":48,"start":53.1818,"duration":0.8182,"velocity":127,"measure":25,"beat":2.5,"subject_pos":-1,"motif":"","motif_pos":-1,"best_pos":2,"similarity":0.375},{"voice":0,"pitch":77,"start":53.4545,"duration":0.2727,"velocity":127,"measure":25,"beat":3.0,"subject_pos":-1,"motif":"","motif_pos":-1,"best_pos":5,"similarity":0.636},{"voice":0,"pitch":79,"start":53.7272,"duration":0.2727,"velocity":127,"measure":25,"beat":3.5,"subject_pos":-1,"motif":"","motif_pos":-1,"best_pos":6,"similarity":0.464},{"voice":0,"pitch":77,"start":53.9999,"duration":0.2727,"velocity":127,"measure":25,"beat":4.0,"subject_pos":-1,"motif":"","motif_pos":-1,"best_pos":4,"similarity":0.443},{"voice":0,"pitch":79,"start":54.2727,"duration":0.2727,"velocity":127,"measure":25,"beat":4.5,"subject_pos":-1,"motif":"","motif_pos":-1,"best_pos":5,"similarity":0.514},{"voice":0,"pitch":81,"start":54.5454,"duration":0.2727,"velocity":127,"measure":26,"beat":1.0,"subject_pos":-1,"motif":"","motif_pos":-1,"best_pos":6,"similarity":0.421},{"voice":0,"pitch":79,"start":54.8181,"duration":0.2727,"velocity":127,"measure":26,"beat":1.5,"subject_pos":-1,"motif":"","motif_pos":-1,"best_pos":5,"similarity":0.471},{"voice":1,"pitch":60,"start":54.8181,"duration":1.0909,"velocity":127,"measure":26,"beat":1.5,"subject_pos":-1,"motif":"","motif_pos":-1,"best_pos":1,"similarity":0.357},{"voice":0,"pitch":81,"start":55.0909,"duration":0.2727,"velocity":127,"measure":26,"beat":2.0,"subject_pos":-1,"motif":"","motif_pos":-1,"best_pos":6,"similarity":0.593},{"voice":0,"pitch":82,"start":55.3636,"duration":0.2727,"velocity":127,"measure":26,"beat":2.5,"subject_pos":-1,"motif":"","motif_pos":-1,"best_pos":3,"similarity":0.543},{"voice":0,"pitch":81,"start":55.6363,"duration":0.2727,"velocity":127,"measure":26,"beat":3.0,"subject_pos":-1,"motif":"","motif_pos":-1,"best_pos":4,"similarity":0.743},{"voice":0,"pitch":82,"start":55.909,"duration":0.2727,"velocity":127,"measure":26,"beat":3.5,"subject_pos":-1,"motif":"","motif_pos":-1,"best_pos":5,"similarity":0.736},{"voice":1,"pitch":58,"start":55.909,"duration":0.1364,"velocity":127,"measure":26,"beat":3.5,"subject_pos":-1,"motif":"","motif_pos":-1,"best_pos":3,"similarity":0.45},{"voice":1,"pitch":57,"start":56.0454,"duration":0.1364,"velocity":127,"measure":26,"beat":3.75,"subject_pos":-1,"motif":"","motif_pos":-1,"best_pos":4,"similarity":0.4},{"voice":0,"pitch":84,"start":56.1818,"duration":0.2727,"velocity":127,"measure":26,"beat":4.0,"subject_pos":-1,"motif":"","motif_pos":-1,"best_pos":6,"similarity":0.529},{"voice":1,"pitch":55,"start":56.1818,"duration":0.1364,"velocity":127,"measure":26,"beat":4.0,"subject_pos":-1,"motif":"","motif_pos":-1,"best_pos":2,"similarity":0.429},{"voice":1,"pitch":53,"start":56.3181,"duration":0.1364,"velocity":127,"measure":26,"beat":4.25,"subject_pos":-1,"motif":"","motif_pos":-1,"best_pos":2,"similarity":0.307},{"voice":0,"pitch":82,"start":56.4545,"duration":0.2727,"velocity":127,"measure":26,"beat":4.5,"subject_pos":-1,"motif":"","motif_pos":-1,"best_pos":4,"similarity":0.443},{"voice":1,"pitch":64,"start":56.4545,"duration":1.3636,"velocity":127,"measure":26,"beat":4.5,"subject_pos":-1,"motif":"","motif_pos":-1,"best_pos":1,"similarity":0.386},{"voice":0,"pitch":84,"start":56.7272,"duration":0.2727,"velocity":127,"measure":27,"beat":1.0,"subject_pos":-1,"motif":"","motif_pos":-1,"best_pos":5,"similarity":0.514},{"voice":0,"pitch":86,"start":56.9999,"duration":0.2727,"velocity":127,"measure":27,"beat":1.5,"subject_pos":-1,"motif":"","motif_pos":-1,"best_pos":6,"similarity":0.421},{"voice":0,"pitch":84,"start":57.2727,"duration":0.2727,"velocity":127,"measure":27,"beat":2.0,"subject_pos":-1,"motif":"","motif_pos":-1,"best_pos":2,"similarity":0.464},{"voice":0,"pitch":82,"start":57.5454,"duration":0.2727,"velocity":127,"measure":27,"beat":2.5,"subject_pos":-1,"motif":"","motif_pos":-1,"best_pos":5,"similarity":0.4},{"voice":0,"pitch":84,"start":57.8181,"duration":0.5455,"velocity":127,"measure":27,"beat":3.0,"subject_pos":-1,"motif":"","motif_pos":-1,"best_pos":6,"similarity":0.364},{"voice":1,"pitch":60,"start":57.8181,"duration":0.2727,"velocity":127,"measure":27,"beat":3.0,"subject_pos":-1,"motif":"","motif_pos":-1,"best_pos":2,"similarity":0.461},{"voice":1,"pitch":65,"start":58.0909,"duration":1.6364,"velocity":127,"measure":27,"beat":3.5,"subject_pos":-1,"motif":"","motif_pos":-1,"best_pos":1,"similarity":0.536},{"voice":0,"pitch":81,"start":58.3636,"duration":0.2727,"velocity":127,"measure":27,"beat":4.0,"subject_pos":-1,"motif":"","motif_pos":-1,"best_pos":1,"similarity":0.464},{"voice":0,"pitch":77,"start":58.6363,"duration":0.2727,"velocity":127,"measure":27,"beat":4.5,"subject_pos":-1,"motif":"","motif_pos":-1,"best_pos":2,"similarity":0.679},{"voice":0,"pitch":74,"start":58.909,"duration":0.2727,"velocity":127,"measure":28,"beat":1.0,"subject_pos":-1,"motif":"","motif_pos":-1,"best_pos":3,"similarity":0.643},{"voice":0,"pitch":72,"start":59.1818,"duration":0.2727,"velocity":127,"measure":28,"beat":1.5,"subject_pos":-1,"motif":"","motif_pos":-1,"best_pos":4,"similarity":0.5},{"voice":0,"pitch":74,"start":59.4545,"duration":0.5455,"velocity":127,"measure":28,"beat":2.0,"subject_pos":-1,"motif":"","motif_pos":-1,"best_pos":6,"similarity":0.318},{"voice":1,"pitch":64,"start":59.7272,"duration":0.8182,"velocity":127,"measure":28,"beat":2.5,"subject_pos":-1,"motif":"","motif_pos":-1,"best_pos":2,"similarity":0.518},{"voice":0,"pitch":82,"start":59.9999,"duration":0.2727,"velocity":127,"measure":28,"beat":3.0,"subject_pos":-1,"motif":"","motif_pos":-1,"best_pos":1,"similarity":0.279},{"voice":0,"pitch":74,"start":60.2727,"duration":0.2727,"velocity":127,"measure":28,"beat":3.5,"subject_pos":-1,"motif":"","motif_pos":-1,"best_pos":1,"similarity":0.364},{"voice":0,"pitch":72,"start":60.5454,"duration":0.2727,"velocity":127,"measure":28,"beat":4.0,"subject_pos":-1,"motif":"","motif_pos":-1,"best_pos":2,"similarity":0.443},{"voice":1,"pitch":63,"start":60.5454,"duration":0.8182,"velocity":127,"measure":28,"beat":4.0,"subject_pos":-1,"motif":"","motif_pos":-1,"best_pos":3,"similarity":0.543},{"voice":0,"pitch":70,"start":60.8181,"duration":0.2727,"velocity":127,"measure":28,"beat":4.5,"subject_pos":-1,"motif":"","motif_pos":-1,"best_pos":5,"similarity":0.386},{"voice":0,"pitch":72,"start":61.0908,"duration":0.5455,"velocity":127,"measure":29,"beat":1.0,"subject_pos":-1,"motif":"","motif_pos":-1,"best_pos":6,"similarity":0.336},{"voice":1,"pitch":62,"start":61.3636,"duration":0.8182,"velocity":127,"measure":29,"beat":1.5,"subject_pos":-1,"motif":"","motif_pos":-1,"best_pos":3,"similarity":0.471},{"voice":0,"pitch":81,"start":61.6363,"duration":0.2727,"velocity":127,"measure":29,"beat":2.0,"subject_pos":-1,"motif":"","motif_pos":-1,"best_pos":1,"similarity":0.214},{"voice":0,"pitch":72,"start":61.909,"duration":0.2727,"velocity":127,"measure":29,"beat":2.5,"subject_pos":-1,"motif":"","motif_pos":-1,"best_pos":2,"similarity":0.393},{"voice":0,"pitch":70,"start":62.1818,"duration":0.2727,"velocity":127,"measure":29,"beat":3.0,"subject_pos":-1,"motif":"","motif_pos":-1,"best_pos":3,"similarity":0.589},{"voice":1,"pitch":61,"start":62.1818,"duration":0.8182,"velocity":127,"measure":29,"beat":3.0,"subject_pos":-1,"motif":"","motif_pos":-1,"best_pos":3,"similarity":0.443},{"voice":0,"pitch":69,"start":62.4545,"duration":0.2727,"velocity":127,"measure":29,"beat":3.5,"subject_pos":-1,"motif":"","motif_pos":-1,"best_pos":4,"similarity":0.643},{"voice":0,"pitch":70,"start":62.7272,"duration":0.5455,"velocity":127,"measure":29,"beat":4.0,"subject_pos":-1,"motif":"","motif_pos":-1,"best_pos":5,"similarity":0.464},{"voice":1,"pitch":60,"start":62.9999,"duration":1.3636,"velocity":127,"measure":29,"beat":4.5,"subject_pos":-1,"motif":"","motif_pos":-1,"best_pos":4,"similarity":0.421},{"voice":0,"pitch":79,"start":63.2727,"duration":0.2727,"velocity":127,"measure":30,"beat":1.0,"subject_pos":-1,"motif":"","motif_pos":-1,"best_pos":6,"similarity":0.214},{"voice":0,"pitch":70,"start":63.5454,"duration":0.2727,"velocity":127,"measure":30,"beat":1.5,"subject_pos":-1,"motif":"","motif_pos":-1,"best_pos":3,"similarity":0.379},{"voice":0,"pitch":69,"start":63.8181,"duration":0.2727,"velocity":127,"measure":30,"beat":2.0,"subject_pos":-1,"motif":"","motif_pos":-1,"best_pos":4,"similarity":0.464},{"voice":0,"pitch":67,"start":64.0908,"duration":0.2727,"velocity":127,"measure":30,"beat":2.5,"subject_pos":-1,"motif":"","motif_pos":-1,"best_pos":5,"similarity":0.471},{"voice":0,"pitch":69,"start":64.3636,"duration":0.5455,"velocity":127,"measure":30,"beat":3.0,"subject_pos":-1,"motif":"","motif_pos":-1,"best_pos":6,"similarity":0.4},{"voice":1,"pitch":65,"start":64.3636,"duration":0.2727,"velocity":127,"measure":30,"beat":3.0,"subject_pos":-1,"motif":"","motif_pos":-1,"best_pos":1,"similarity":0.375},{"voice":1,"pitch":59,"start":64.6363,"duration":0.2727,"velocity":127,"measure":30,"beat":3.5,"subject_pos":-1,"motif":"","motif_pos":-1,"best_pos":5,"similarity":0.446},{"voice":0,"pitch":67,"start":64.909,"duration":0.2727,"velocity":127,"measure":30,"beat":4.0,"subject_pos":-1,"motif":"","motif_pos":-1,"best_pos":2,"similarity":0.45},{"voice":1,"pitch":61,"start":64.909,"duration":0.2727,"velocity":127,"measure":30,"beat":4.0,"subject_pos":-1,"motif":"","motif_pos":-1,"best_pos":6,"similarity":0.571},{"voice":0,"pitch":65,"start":65.1818,"duration":0.2727,"velocity":127,"measure":30,"beat":4.5,"subject_pos":-1,"motif":"","motif_pos":-1,"best_pos":0,"similarity":0.429},{"voice":1,"pitch":62,"start":65.1818,"duration":0.5455,"velocity":127,"measure":30,"beat":4.5,"subject_pos":-1,"motif":"","motif_pos":-1,"best_pos":7,"similarity":0.429},{"voice":0,"pitch":70,"start":65.4545,"duration":0.5455,"velocity":127,"measure":31,"beat":1.0,"subject_pos":-1,"motif":"","motif_pos":-1,"best_pos":1,"similarity":0.571},{"voice":1,"pitch":61,"start":65.7272,"duration":0.1364,"velocity":127,"measure":31,"beat":1.5,"subject_pos":-1,"motif":"","motif_pos":-1,"best_pos":4,"similarity":0.479},{"voice":1,"pitch":59,"start":65.8636,"duration":0.1364,"velocity":127,"measure":31,"beat":1.75,"subject_pos":-1,"motif":"","motif_pos":-1,"best_pos":5,"similarity":0.464},{"voice":0,"pitch":67,"start":65.9999,"duration":0.2727,"velocity":127,"measure":31,"beat":2.0,"subject_pos":-1,"motif":"","motif_pos":-1,"best_pos":2,"similarity":0.579},{"voice":1,"pitch":61,"start":65.9999,"duration":0.2727,"velocity":127,"measure":31,"beat":2.0,"subject_pos":-1,"motif":"","motif_pos":-1,"best_pos":6,"similarity":0.371},{"voice":0,"pitch":64,"start":66.2727,"duration":0.8182,"velocity":127,"measure":31,"beat":2.5,"subject_pos":-1,"motif":"","motif_pos":-1,"best_pos":3,"similarity":0.45},{"voice":1,"pitch":70,"start":66.5454,"duration":0.1364,"velocity":127,"measure":31,"beat":3.0,"subject_pos":-1,"motif":"","motif_pos":-1,"best_pos":1,"similarity":0.321},{"voice":1,"pitch":69,"start":66.6818,"duration":0.1364,"velocity":127,"measure":31,"beat":3.25,"subject_pos":-1,"motif":"","motif_pos":-1,"best_pos":1,"similarity":0.429},{"voice":1,"pitch":67,"start":66.8181,"duration":0.1364,"velocity":127,"measure":31,"beat":3.5,"subject_pos":-1,"motif":"","motif_pos":-1,"best_pos":2,"similarity":0.643},{"voice":1,"pitch":65,"start":66.9545,"duration":0.1364,"velocity":127,"measure":31,"beat":3.75,"subject_pos":-1,"motif":"","motif_pos":-1,"best_pos":3,"similarity":0.786},{"voice":1,"pitch":64,"start":67.0908,"duration":0.1364,"velocity":127,"measure":31,"beat":4.0,"subject_pos":-1,"motif":"","motif_pos":-1,"best_pos":4,"similarity":0.864},{"voice":1,"pitch":65,"start":67.2272,"duration":0.1364,"velocity":127,"measure":31,"beat":4.25,"subject_pos":-1,"motif":"","motif_pos":-1,"best_pos":5,"similarity":0.764},{"voice":1,"pitch":67,"start":67.3636,"duration":0.1364,"velocity":127,"measure":31,"beat":4.5,"subject_pos":-1,"motif":"","motif_pos":-1,"best_pos":6,"similarity":0.529},{"voice":1,"pitch":65,"start":67.4999,"duration":0.1364,"velocity":127,"measure":31,"beat":4.75,"subject_pos":-1,"motif":"","motif_pos":-1,"best_pos":3,"similarity":0.471},{"voice":1,"pitch":64,"start":67.6363,"duration":0.1364,"velocity":127,"measure":32,"beat":1.0,"subject_pos":-1,"motif":"","motif_pos":-1,"best_pos":2,"similarity":0.446},{"voice":1,"pitch":62,"start":67.7727,"duration":0.1364,"velocity":127,"measure":32,"beat":1.25,"subject_pos":-1,"motif":"","motif_pos":-1,"best_pos":3,"similarity":0.571},{"voice":0,"pitch":76,"start":67.909,"duration":1.0909,"velocity":127,"measure":32,"beat":1.5,"subject_pos":-1,"motif":"","motif_pos":-1,"best_pos":1,"similarity":0.357},{"voice":1,"pitch":61,"start":67.909,"duration":0.2727,"velocity":127,"measure":32,"beat":1.5,"subject_pos":-1,"motif":"","motif_pos":-1,"best_pos":4,"similarity":0.536},{"voice":1,"pitch":64,"start":68.1817,"duration":0.2727,"velocity":127,"measure":32,"beat":2.0,"subject_pos":-1,"motif":"","motif_pos":-1,"best_pos":5,"similarity":0.393},{"voice":1,"pitch":67,"start":68.4545,"duration":0.2727,"velocity":127,"measure":32,"beat":2.5,"subject_pos":-1,"motif":"","motif_pos":-1,"best_pos":6,"similarity":0.25},{"voice":1,"pitch":57,"start":68.7272,"duration":0.2727,"velocity":127,"measure":32,"beat":3.0,"subject_pos":-1,"motif":"","motif_pos":-1,"best_pos":0,"similarity":0.214},{"voice":0,"pitch":74,"start":68.9999,"duration":0.1364,"velocity":127,"measure":32,"beat":3.5,"subject_pos":-1,"motif":"","motif_pos":-1,"best_pos":3,"similarity":0.45},{"voice":1,"pitch":61,"start":68.9999,"duration":0.2727,"velocity":127,"measure":32,"beat":3.5,"subject_pos":-1,"motif":"","motif_pos":-1,"best_pos":1,"similarity":0.304},{"voice":0,"pitch":73,"start":69.1363,"duration":0.1364,"velocity":127,"measure":32,"beat":3.75,"subject_pos":-1,"motif":"","motif_pos":-1,"best_pos":4,"similarity":0.4},{"voice":0,"pitch":71,"start":69.2727,"duration":0.1364,"velocity":127,"measure":32,"beat":4.0,"subject_pos":-1,"motif":"","motif_pos":-1,"best_pos":2,"similarity":0.436},{"voice":1,"pitch":64,"start":69.2727,"duration":0.2727,"velocity":127,"measure":32,"beat":4.0,"subject_pos":-1,"motif":"","motif_pos":-1,"best_pos":2,"similarity":0.429},{"voice":0,"pitch":69,"start":69.409,"duration":0.1364,"velocity":127,"measure":32,"beat":4.25,"subject_pos":-1,"motif":"","motif_pos":-1,"best_pos":2,"similarity":0.329},{"voice":0,"pitch":79,"start":69.5454,"duration":1.3636,"velocity":127,"measure":32,"beat":4.5,"subject_pos":-1,"motif":"","motif_pos":-1,"best_pos":2,"similarity":0.304},{"voice":1,"pitch":61,"start":69.8181,"duration":0.2727,"velocity":127,"measure":33,"beat":1.0,"subject_pos":-1,"motif":"","motif_pos":-1,"best_pos":4,"similarity":0.571},{"voice":1,"pitch":62,"start":70.0908,"duration":0.2727,"velocity":127,"measure":33,"beat":1.5,"subject_pos":-1,"motif":"","motif_pos":-1,"best_pos":5,"similarity":0.75},{"voice":1,"pitch":64,"start":70.3636,"duration":0.2727,"velocity":127,"measure":33,"beat":2.0,"subject_pos":-1,"motif":"","motif_pos":-1,"best_pos":6,"similarity":0.732},{"voice":1,"pitch":65,"start":70.6363,"duration":0.2727,"velocity":127,"measure":33,"beat":2.5,"subject_pos":-1,"motif":"","motif_pos":-1,"best_pos":5,"similarity":0.607},{"voice":0,"pitch":76,"start":70.909,"duration":0.2727,"velocity":127,"measure":33,"beat":3.0,"subject_pos":-1,"motif":"","motif_pos":-1,"best_pos":0,"similarity":0.375},{"voice":1,"pitch":67,"start":70.909,"duration":0.4091,"velocity":127,"measure":33,"beat":3.0,"subject_pos":-1,"motif":"","motif_pos":-1,"best_pos":6,"similarity":0.464},{"voice":0,"pitch":81,"start":71.1817,"duration":1.6364,"velocity":127,"measure":33,"beat":3.5,"subject_pos":-1,"motif":"","motif_pos":-1,"best_pos":1,"similarity":0.536},{"voice":1,"pitch":65,"start":71.3181,"duration":0.1364,"velocity":127,"measure":33,"beat":3.75,"subject_pos":-1,"motif":"","motif_pos":-1,"best_pos":3,"similarity":0.664},{"voice":1,"pitch":64,"start":71.4545,"duration":0.1364,"velocity":127,"measure":33,"beat":4.0,"subject_pos":-1,"motif":"","motif_pos":-1,"best_pos":4,"similarity":0.8},{"voice":1,"pitch":65,"start":71.5908,"duration":0.1364,"velocity":127,"measure":33,"beat":4.25,"subject_pos":-1,"motif":"","motif_pos":-1,"best_pos":5,"similarity":0.764},{"voice":1,"pitch":67,"start":71.7272,"duration":0.1364,"velocity":127,"measure":33,"beat":4.5,"subject_pos":-1,"motif":"","motif_pos":-1,"best_pos":6,"similarity":0.529},{"voice":1,"pitch":64,"start":71.8636,"duration":0.1364,"velocity":127,"measure":33,"beat":4.75,"subject_pos":-1,"motif":"tail_inv","motif_pos":0,"best_pos":0,"similarity":1.0},{"voice":1,"pitch":65,"start":71.9999,"duration":0.1364,"velocity":127,"measure":34,"beat":1.0,"subject_pos":-1,"motif":"tail_inv","motif_pos":1,"best_pos":1,"similarity":1.0},{"voice":1,"pitch":64,"start":72.1363,"duration":0.1364,"velocity":127,"measure":34,"beat":1.25,"subject_pos":-1,"motif":"tail_inv","motif_pos":2,"best_pos":2,"similarity":1.0},{"voice":1,"pitch":62,"start":72.2727,"duration":0.1364,"velocity":127,"measure":34,"beat":1.5,"subject_pos":-1,"motif":"tail_inv","motif_pos":3,"best_pos":3,"similarity":1.0},{"voice":1,"pitch":61,"start":72.409,"duration":0.1364,"velocity":127,"measure":34,"beat":1.75,"subject_pos":-1,"motif":"tail_inv","motif_pos":4,"best_pos":4,"similarity":1.0},{"voice":1,"pitch":62,"start":72.5454,"duration":0.5455,"velocity":127,"measure":34,"beat":2.0,"subject_pos":-1,"motif":"","motif_pos":-1,"best_pos":5,"similarity":0.507},{"voice":0,"pitch":80,"start":72.8181,"duration":0.8182,"velocity":127,"measure":34,"beat":2.5,"subject_pos":-1,"motif":"","motif_pos":-1,"best_pos":2,"similarity":0.518},{"voice":1,"pitch":61,"start":73.0908,"duration":0.2727,"velocity":127,"measure":34,"beat":3.0,"subject_pos":-1,"motif":"","motif_pos":-1,"best_pos":4,"similarity":0.514},{"voice":1,"pitch":59,"start":73.3636,"duration":0.2727,"velocity":127,"measure":34,"beat":3.5,"subject_pos":-1,"motif":"","motif_pos":-1,"best_pos":5,"similarity":0.479},{"voice":0,"pitch":79,"start":73.6363,"duration":0.8182,"velocity":127,"measure":34,"beat":4.0,"subject_pos":-1,"motif":"","motif_pos":-1,"best_pos":3,"similarity":0.543},{"voice":1,"pitch":61,"start":73.6363,"duration":0.1364,"velocity":127,"measure":34,"beat":4.0,"subject_pos":-1,"motif":"","motif_pos":-1,"best_pos":6,"similarity":0.4},{"voice":1,"pitch":59,"start":73.7727,"duration":0.1364,"velocity":127,"measure":34,"beat":4.25,"subject_pos":-1,"motif":"","motif_pos":-1,"best_pos":2,"similarity":0.529},{"voice":1,"pitch":57,"start":73.909,"duration":0.1364,"velocity":127,"measure":34,"beat":4.5,"subject_pos":-1,"motif":"","motif_pos":-1,"best_pos":5,"similarity":0.529},{"voice":1,"pitch":59,"start":74.0454,"duration":0.1364,"velocity":127,"measure":34,"beat":4.75,"subject_pos":-1,"motif":"","motif_pos":-1,"best_pos":6,"similarity":0.621},{"voice":1,"pitch":60,"start":74.1817,"duration":0.5455,"velocity":127,"measure":35,"beat":1.0,"subject_pos":-1,"motif":"","motif_pos":-1,"best_pos":7,"similarity":0.436},{"voice":0,"pitch":78,"start":74.4545,"duration":0.8182,"velocity":127,"measure":35,"beat":1.5,"subject_pos":-1,"motif":"","motif_pos":-1,"best_pos":3,"similarity":0.471},{"voice":1,"pitch":59,"start":74.7272,"duration":0.2727,"velocity":127,"measure":35,"beat":2.0,"subject_pos":-1,"motif":"","motif_pos":-1,"best_pos":4,"similarity":0.486},{"voice":1,"pitch":57,"start":74.9999,"duration":0.2727,"velocity":127,"measure":35,"beat":2.5,"subject_pos":-1,"motif":"","motif_pos":-1,"best_pos":5,"similarity":0.479},{"voice":0,"pitch":77,"start":75.2727,"duration":0.8182,"velocity":127,"measure":35,"beat":3.0,"subject_pos":-1,"motif":"","motif_pos":-1,"best_pos":3,"similarity":0.443},{"voice":1,"pitch":59,"start":75.2727,"duration":0.1364,"velocity":127,"measure":35,"beat":3.0,"subject_pos":-1,"motif":"","motif_pos":-1,"best_pos":6,"similarity":0.4},{"voice":1,"pitch":57,"start":75.409,"duration":0.1364,"velocity":127,"measure":35,"beat":3.25,"subject_pos":-1,"motif":"","motif_pos":-1,"best_pos":2,"similarity":0.529},{"voice":1,"pitch":55,"start":75.5454,"duration":0.1364,"velocity":127,"measure":35,"beat":3.5,"subject_pos":-1,"motif":"","motif_pos":-1,"best_pos":5,"similarity":0.529},{"voice":1,"pitch":57,"start":75.6817,"duration":0.1364,"velocity":127,"measure":35,"beat":3.75,"subject_pos":-1,"motif":"","motif_pos":-1,"best_pos":6,"similarity":0.621},{"voice":1,"pitch":58,"start":75.8181,"duration":0.5455,"velocity":127,"measure":35,"beat":4.0,"subject_pos":-1,"motif":"","motif_pos":-1,"best_pos":7,"similarity":0.436},{"voice":0,"pitch":76,"start":76.0908,"duration":1.3636,"velocity":127,"measure":35,"beat":4.5,"subject_pos":-1,"motif":"","motif_pos":-1,"best_pos":4,"similarity":0.421},{"voice":1,"pitch":57,"start":76.3636,"duration":0.2727,"velocity":127,"measure":36,"beat":1.0,"subject_pos":-1,"motif":"","motif_pos":-1,"best_pos":3,"similarity":0.521},{"voice":1,"pitch":56,"start":76.6363,"duration":0.2727,"velocity":127,"measure":36,"beat":1.5,"subject_pos":-1,"motif":"","motif_pos":-1,"best_pos":4,"similarity":0.686},{"voice":1,"pitch":57,"start":76.909,"duration":1.0909,"velocity":127,"measure":36,"beat":2.0,"subject_pos":-1,"motif":"","motif_pos":-1,"best_pos":5,"similarity":0.589},{"voice":0,"pitch":81,"start":77.4545,"duration":0.2727,"velocity":127,"measure":36,"beat":3.0,"subject_pos":-1,"motif":"","motif_pos":-1,"best_pos":1,"similarity":0.332},{"voice":0,"pitch":74,"start":77.7272,"duration":0.2727,"velocity":127,"measure":36,"beat":3.5,"subject_pos":-1,"motif":"","motif_pos":-1,"best_pos":5,"similarity":0.446},{"voice":0,"pitch":76,"start":77.9999,"duration":0.2727,"velocity":127,"measure":36,"beat":4.0,"subject_pos":-1,"motif":"","motif_pos":-1,"best_pos":6,"similarity":0.571},{"voice":0,"pitch":77,"start":78.2726,"duration":0.5455,"velocity":127,"measure":36,"beat":4.5,"subject_pos":-1,"motif":"","motif_pos":-1,"best_pos":7,"similarity":0.429},{"voice":1,"pitch":68,"start":78.2726,"duration":0.2727,"velocity":127,"measure":36,"beat":4.5,"subject_pos":-1,"motif":"","motif_pos":-1,"best_pos":6,"similarity":0.5},{"voice":1,"pitch":69,"start":78.5454,"duration":0.5455,"velocity":127,"measure":37,"beat":1.0,"subject_pos":-1,"motif":"","motif_pos":-1,"best_pos":7,"similarity":0.357},{"voice":0,"pitch":76,"start":78.8181,"duration":0.1364,"velocity":127,"measure":37,"beat":1.5,"subject_pos":-1,"motif":"","motif_pos":-1,"best_pos":4,"similarity":0.479},{"voice":0,"pitch":74,"start":78.9545,"duration":0.1364,"velocity":127,"measure":37,"beat":1.75,"subject_pos":-1,"motif":"","motif_pos":-1,"best_pos":5,"similarity":0.464},{"voice":0,"pitch":76,"start":79.0908,"duration":0.2727,"velocity":127,"measure":37,"beat":2.0,"subject_pos":-1,"motif":"","motif_pos":-1,"best_pos":6,"similarity":0.371},{"voice":1,"pitch":57,"start":79.0908,"duration":0.2727,"velocity":127,"measure":37,"beat":2.0,"subject_pos":-1,"motif":"","motif_pos":-1,"best_pos":0,"similarity":0.364},{"voice":1,"pitch":62,"start":79.3636,"duration":1.0909,"velocity":127,"measure":37,"beat":2.5,"subject_pos":-1,"motif":"","motif_pos":-1,"best_pos":1,"similarity":0.443},{"voice":0,"pitch":86,"start":79.6363,"duration":0.1364,"velocity":127,"measure":37,"beat":3.0,"subject_pos":-1,"motif":"","motif_pos":-1,"best_pos":1,"similarity":0.457},{"voice":0,"pitch":84,"start":79.7726,"duration":0.1364,"velocity":127,"measure":37,"beat":3.25,"subject_pos":-1,"motif":"","motif_pos":-1,"best_pos":2,"similarity":0.593},{"voice":0,"pitch":82,"start":79.909,"duration":0.1364,"velocity":127,"measure":37,"beat":3.5,"subject_pos":-1,"motif":"","motif_pos":-1,"best_pos":3,"similarity":0.664},{"voice":0,"pitch":81,"start":80.0454,"duration":0.1364,"velocity":127,"measure":37,"beat":3.75,"subject_pos":-1,"motif":"","motif_pos":-1,"best_pos":4,"similarity":0.671},{"voice":0,"pitch":79,"start":80.1817,"duration":0.1364,"velocity":127,"measure":37,"beat":4.0,"subject_pos":-1,"motif":"","motif_pos":-1,"best_pos":5,"similarity":0.636},{"voice":0,"pitch":81,"start":80.3181,"duration":0.1364,"velocity":127,"measure":37,"beat":4.25,"subject_pos":-1,"motif":"","motif_pos":-1,"best_pos":6,"similarity":0.657},{"voice":0,"pitch":82,"start":80.4545,"duration":0.1364,"velocity":127,"measure":37,"beat":4.5,"subject_pos":-1,"motif":"","motif_pos":-1,"best_pos":7,"similarity":0.436},{"voice":1,"pitch":61,"start":80.4545,"duration":0.2727,"velocity":127,"measure":37,"beat":4.5,"subject_pos":-1,"motif":"","motif_pos":-1,"best_pos":4,"similarity":0.593},{"voice":0,"pitch":81,"start":80.5908,"duration":0.1364,"velocity":127,"measure":37,"beat":4.75,"subject_pos":-1,"motif":"","motif_pos":-1,"best_pos":1,"similarity":0.429},{"voice":0,"pitch":79,"start":80.7272,"duration":0.1364,"velocity":127,"measure":38,"beat":1.0,"subject_pos":-1,"motif":"","motif_pos":-1,"best_pos":2,"similarity":0.589},{"voice":1,"pitch":62,"start":80.7272,"duration":0.2727,"velocity":127,"measure":38,"beat":1.0,"subject_pos":-1,"motif":"head","motif_pos":0,"best_pos":0,"similarity":1.0},{"voice":0,"pitch":77,"start":80.8636,"duration":0.1364,"velocity":127,"measure":38,"beat":1.25,"subject_pos":-1,"motif":"","motif_pos":-1,"best_pos":3,"similarity":0.643},{"voice":0,"pitch":76,"start":80.9999,"duration":0.2727,"velocity":127,"measure":38,"beat":1.5,"subject_pos":-1,"motif":"","motif_pos":-1,"best_pos":4,"similarity":0.571},{"voice":1,"pitch":67,"start":80.9999,"duration":1.0909,"velocity":127,"measure":38,"beat":1.5,"subject_pos":-1,"motif":"head","motif_pos":1,"best_pos":1,"similarity":1.0},{"voice":0,"pitch":79,"start":81.2726,"duration":0.2727,"velocity":127,"measure":38,"beat":2.0,"subject_pos":-1,"motif":"","motif_pos":-1,"best_pos":5,"similarity":0.393},{"voice":0,"pitch":82,"start":81.5454,"duration":0.2727,"velocity":127,"measure":38,"beat":2.5,"subject_pos":-1,"motif":"","motif_pos":-1,"best_pos":6,"similarity":0.25},{"voice":0,"pitch":73,"start":81.8181,"duration":0.2727,"velocity":127,"measure":38,"beat":3.0,"subject_pos":-1,"motif":"","motif_pos":-1,"best_pos":5,"similarity":0.193},{"voice":0,"pitch":76,"start":82.0908,"duration":0.2727,"velocity":127,"measure":38,"beat":3.5,"subject_pos":-1,"motif":"","motif_pos":-1,"best_pos":1,"similarity":0.232},{"voice":1,"pitch":65,"start":82.0908,"duration":0.1364,"velocity":127,"measure":38,"beat":3.5,"subject_pos":-1,"motif":"head","motif_pos":2,"best_pos":2,"similarity":1.0},{"voice":1,"pitch":64,"start":82.2272,"duration":0.1364,"velocity":127,"measure":38,"beat":3.75,"subject_pos":-1,"motif":"head","motif_pos":3,"best_pos":3,"similarity":1.0},{"voice":0,"pitch":79,"start":82.3636,"duration":0.2727,"velocity":127,"measure":38,"beat":4.0,"subject_pos":-1,"motif":"","motif_pos":-1,"best_pos":2,"similarity":0.393},{"voice":1,"pitch":62,"start":82.3636,"duration":0.1364,"velocity":127,"measure":38,"beat":4.0,"subject_pos":-1,"motif":"head","motif_pos":4,"best_pos":4,"similarity":1.0},{"voice":1,"pitch":61,"start":82.4999,"duration":0.1364,"velocity":127,"measure":38,"beat":4.25,"subject_pos":-1,"motif":"","motif_pos":-1,"best_pos":4,"similarity":0.411},{"voice":1,"pitch":70,"start":82.6363,"duration":1.3636,"velocity":127,"measure":38,"beat":4.5,"subject_pos":-1,"motif":"","motif_pos":-1,"best_pos":2,"similarity":0.214},{"voice":0,"pitch":76,"start":82.909,"duration":0.2727,"velocity":127,"measure":39,"beat":1.0,"subject_pos":-1,"motif":"","motif_pos":-1,"best_pos":4,"similarity":0.536},{"voice":0,"pitch":77,"start":83.1817,"duration":0.2727,"velocity":127,"measure":39,"beat":1.5,"subject_pos":-1,"motif":"","motif_pos":-1,"best_pos":5,"similarity":0.679},{"voice":0,"pitch":79,"start":83.4545,"duration":0.2727,"velocity":127,"measure":39,"beat":2.0,"subject_pos":-1,"motif":"","motif_pos":-1,"best_pos":5,"similarity":0.679},{"voice":0,"pitch":81,"start":83.7272,"duration":0.2727,"velocity":127,"measure":39,"beat":2.5,"subject_pos":-1,"motif":"","motif_pos":-1,"best_pos":6,"similarity":0.661},{"voice":0,"pitch":82,"start":83.9999,"duration":0.4091,"velocity":127,"measure":39,"beat":3.0,"subject_pos":-1,"motif":"","motif_pos":-1,"best_pos":7,"similarity":0.464},{"voice":1,"pitch":62,"start":83.9999,"duration":0.2727,"velocity":127,"measure":39,"beat":3.0,"subject_pos":-1,"motif":"","motif_pos":-1,"best_pos":3,"similarity":0.5},{"voice":1,"pitch":61,"start":84.2726,"duration":0.2727,"velocity":127,"measure":39,"beat":3.5,"subject_pos":-1,"motif":"","motif_pos":-1,"best_pos":4,"similarity":0.721},{"voice":0,"pitch":81,"start":84.409,"duration":0.1364,"velocity":127,"measure":39,"beat":3.75,"subject_pos":-1,"motif":"","motif_pos":-1,"best_pos":4,"similarity":0.55},{"voice":0,"pitch":79,"start":84.5454,"duration":0.1364,"velocity":127,"measure":39,"beat":4.0,"subject_pos":-1,"motif":"","motif_pos":-1,"best_pos":5,"similarity":0.607},{"voice":1,"pitch":62,"start":84.5454,"duration":0.2727,"velocity":127,"measure":39,"beat":4.0,"subject_pos":-1,"motif":"","motif_pos":-1,"best_pos":5,"similarity":0.729},{"voice":0,"pitch":81,"start":84.6817,"duration":0.1364,"velocity":127,"measure":39,"beat":4.25,"subject_pos":-1,"motif":"","motif_pos":-1,"best_pos":6,"similarity":0.657},{"voice":0,"pitch":82,"start":84.8181,"duration":0.1364,"velocity":127,"measure":39,"beat":4.5,"subject_pos":-1,"motif":"","motif_pos":-1,"best_pos":7,"similarity":0.436},{"voice":1,"pitch":64,"start":84.8181,"duration":0.5455,"velocity":127,"measure":39,"beat":4.5,"subject_pos":-1,"motif":"","motif_pos":-1,"best_pos":6,"similarity":0.529},{"voice":0,"pitch":79,"start":84.9545,"duration":0.1364,"velocity":127,"measure":39,"beat":4.75,"subject_pos":-1,"motif":"","motif_pos":-1,"best_pos":5,"similarity":0.364},{"voice":0,"pitch":81,"start":85.0908,"duration":0.1364,"velocity":127,"measure":40,"beat":1.0,"subject_pos":-1,"motif":"","motif_pos":-1,"best_pos":1,"similarity":0.457},{"voice":0,"pitch":79,"start":85.2272,"duration":0.1364,"velocity":127,"measure":40,"beat":1.25,"subject_pos":-1,"motif":"","motif_pos":-1,"best_pos":2,"similarity":0.657},{"voice":0,"pitch":77,"start":85.3636,"duration":0.1364,"velocity":127,"measure":40,"beat":1.5,"subject_pos":-1,"motif":"","motif_pos":-1,"best_pos":3,"similarity":0.729},{"voice":1,"pitch":69,"start":85.3636,"duration":0.2727,"velocity":127,"measure":40,"beat":1.5,"subject_pos":-1,"motif":"","motif_pos":-1,"best_pos":1,"similarity":0.314},{"voice":0,"pitch":76,"start":85.4999,"duration":0.1364,"velocity":127,"measure":40,"beat":1.75,"subject_pos":-1,"motif":"","motif_pos":-1,"best_pos":4,"similarity":0.746},{"voice":0,"pitch":77,"start":85.6363,"duration":0.5455,"velocity":127,"measure":40,"beat":2.0,"subject_pos":-1,"motif":"","motif_pos":-1,"best_pos":5,"similarity":0.529},{"voice":1,"pitch":62,"start":85.6363,"duration":0.2727,"velocity":127,"measure":40,"beat":2.0,"subject_pos":-1,"motif":"","motif_pos":-1,"best_pos":0,"similarity":0.286},{"voice":1,"pitch":67,"start":85.909,"duration":1.3636,"velocity":127,"measure":40,"beat":2.5,"subject_pos":-1,"motif":"","motif_pos":-1,"best_pos":1,"similarity":0.286},{"voice":0,"pitch":76,"start":86.1817,"duration":0.2727,"velocity":127,"measure":40,"beat":3.0,"subject_pos":-1,"motif":"","motif_pos":-1,"best_pos":3,"similarity":0.521},{"voice":0,"pitch":75,"start":86.4545,"duration":0.2727,"velocity":127,"measure":40,"beat":3.5,"subject_pos":-1,"motif":"","motif_pos":-1,"best_pos":4,"similarity":0.636},{"voice":0,"pitch":76,"start":86.7272,"duration":0.1364,"velocity":127,"measure":40,"beat":4.0,"subject_pos":-1,"motif":"","motif_pos":-1,"best_pos":5,"similarity":0.489},{"voice":0,"pitch":74,"start":86.8635,"duration":0.1364,"velocity":127,"measure":40,"beat":4.25,"subject_pos":-1,"motif":"","motif_pos":-1,"best_pos":2,"similarity":0.529},{"voice":0,"pitch":72,"start":86.9999,"duration":0.1364,"velocity":127,"measure":40,"beat":4.5,"subject_pos":-1,"motif":"","motif_pos":-1,"best_pos":5,"similarity":0.536},{"voice":0,"pitch":74,"start":87.1363,"duration":0.1364,"velocity":127,"measure":40,"beat":4.75,"subject_pos":-1,"motif":"","motif_pos":-1,"best_pos":6,"similarity":0.621},{"voice":0,"pitch":75,"start":87.2726,"duration":0.5455,"velocity":127,"measure":41,"beat":1.0,"subject_pos":-1,"motif":"","motif_pos":-1,"best_pos":7,"similarity":0.436},{"voice":1,"pitch":57,"start":87.2726,"duration":0.2727,"velocity":127,"measure":41,"beat":1.0,"subject_pos":-1,"motif":"","motif_pos":-1,"best_pos":0,"similarity":0.143},{"voice":1,"pitch":65,"start":87.5454,"duration":1.3636,"velocity":127,"measure":41,"beat":1.5,"subject_pos":-1,"motif":"","motif_pos":-1,"best_pos":1,"similarity":0.179},{"voice":0,"pitch":74,"start":87.8181,"duration":0.2727,"velocity":127,"measure":41,"beat":2.0,"subject_pos":-1,"motif":"","motif_pos":-1,"best_pos":3,"similarity":0.529},{"voice":0,"pitch":73,"start":88.0908,"duration":0.2727,"velocity":127,"measure":41,"beat":2.5,"subject_pos":-1,"motif":"","motif_pos":-1,"best_pos":4,"similarity":0.636},{"voice":0,"pitch":74,"start":88.3635,"duration":0.1364,"velocity":127,"measure":41,"beat":3.0,"subject_pos":-1,"motif":"","motif_pos":-1,"best_pos":5,"similarity":0.489},{"voice":0,"pitch":72,"start":88.4999,"duration":0.1364,"velocity":127,"measure":41,"beat":3.25,"subject_pos":-1,"motif":"","motif_pos":-1,"best_pos":2,"similarity":0.529},{"voice":0,"pitch":70,"start":88.6363,"duration":0.1364,"velocity":127,"measure":41,"beat":3.5,"subject_pos":-1,"motif":"","motif_pos":-1,"best_pos":5,"similarity":0.536},{"voice":0,"pitch":72,"start":88.7726,"duration":0.1364,"velocity":127,"measure":41,"beat":3.75,"subject_pos":-1,"motif":"","motif_pos":-1,"best_pos":6,"similarity":0.621},{"voice":0,"pitch":73,"start":88.909,"duration":0.5455,"velocity":127,"measure":41,"beat":4.0,"subject_pos":-1,"motif":"","motif_pos":-1,"best_pos":7,"similarity":0.436},{"voice":1,"pitch":55,"start":88.909,"duration":0.2727,"velocity":127,"measure":41,"beat":4.0,"subject_pos":-1,"motif":"","motif_pos":-1,"best_pos":0,"similarity":0.25},{"voice":1,"pitch":64,"start":89.1817,"duration":1.0909,"velocity":127,"measure":41,"beat":4.5,"subject_pos":-1,"motif":"","motif_pos":-1,"best_pos":1,"similarity":0.436},{"voice":0,"pitch":72,"start":89.4545,"duration":0.2727,"velocity":127,"measure":42,"beat":1.0,"subject_pos":-1,"motif":"","motif_pos":-1,"best_pos":3,"similarity":0.521},{"voice":0,"pitch":71,"start":89.7272,"duration":0.2727,"velocity":127,"measure":42,"beat":1.5,"subject_pos":-1,"motif":"","motif_pos":-1,"best_pos":4,"similarity":0.686},{"voice":0,"pitch":72,"start":89.9999,"duration":1.0909,"velocity":127,"measure":42,"beat":2.0,"subject_pos":-1,"motif":"","motif_pos":-1,"best_pos":5,"similarity":0.589},{"voice":1,"pitch":62,"start":90.2726,"duration":0.2727,"velocity":127,"measure":42,"beat":2.5,"subject_pos":-1,"motif":"","motif_pos":-1,"best_pos":2,"similarity":0.514},{"voice":1,"pitch":60,"start":90.5454,"duration":0.2727,"velocity":127,"measure":42,"beat":3.0,"subject_pos":-1,"motif":"","motif_pos":-1,"best_pos":4,"similarity":0.571},{"voice":1,"pitch":62,"start":90.8181,"duration":0.2727,"velocity":127,"measure":42,"beat":3.5,"subject_pos":-1,"motif":"","motif_pos":-1,"best_pos":5,"similarity":0.679},{"voice":1,"pitch":64,"start":91.0908,"duration":0.2727,"velocity":127,"measure":42,"beat":4.0,"subject_pos":-1,"motif":"","motif_pos":-1,"best_pos":6,"similarity":0.679},{"voice":0,"pitch":83,"start":91.3635,"duration":0.2727,"velocity":127,"measure":42,"beat":4.5,"subject_pos":-1,"motif":"","motif_pos":-1,"best_pos":6,"similarity":0.5},{"voice":1,"pitch":65,"start":91.3635,"duration":0.2727,"velocity":127,"measure":42,"beat":4.5,"subject_pos":-1,"motif":"","motif_pos":-1,"best_pos":7,"similarity":0.464},{"voice":0,"pitch":84,"start":91.6363,"duration":0.5455,"velocity":127,"measure":43,"beat":1.0,"subject_pos":-1,"motif":"","motif_pos":-1,"best_pos":7,"similarity":0.357},{"voice":1,"pitch":64,"start":91.6363,"duration":0.2727,"velocity":127,"measure":43,"beat":1.0,"subject_pos":-1,"motif":"","motif_pos":-1,"best_pos":4,"similarity":0.325},{"voice":1,"pitch":57,"start":91.909,"duration":0.2727,"velocity":127,"measure":43,"beat":1.5,"subject_pos":-1,"motif":"","motif_pos":-1,"best_pos":5,"similarity":0.186},{"voice":0,"pitch":72,"start":92.1817,"duration":0.2727,"velocity":127,"measure":43,"beat":2.0,"subject_pos":-1,"motif":"","motif_pos":-1,"best_pos":0,"similarity":0.364},{"voice":0,"pitch":77,"start":92.4545,"duration":1.0909,"velocity":127,"measure":43,"beat":2.5,"subject_pos":-1,"motif":"","motif_pos":-1,"best_pos":1,"similarity":0.443},{"voice":1,"pitch":70,"start":92.5908,"duration":0.1364,"velocity":127,"measure":43,"beat":2.75,"subject_pos":-1,"motif":"","motif_pos":-1,"best_pos":3,"similarity":0.321},{"voice":1,"pitch":69,"start":92.7272,"duration":0.1364,"velocity":127,"measure":43,"beat":3.0,"subject_pos":-1,"motif":"","motif_pos":-1,"best_pos":1,"similarity":0.429},{"voice":1,"pitch":67,"start":92.8635,"duration":0.1364,"velocity":127,"measure":43,"beat":3.25,"subject_pos":-1,"motif":"","motif_pos":-1,"best_pos":2,"similarity":0.579},{"voice":1,"pitch":65,"start":92.9999,"duration":0.1364,"velocity":127,"measure":43,"beat":3.5,"subject_pos":-1,"motif":"","motif_pos":-1,"best_pos":3,"similarity":0.621},{"voice":1,"pitch":64,"start":93.1363,"duration":0.1364,"velocity":127,"measure":43,"beat":3.75,"subject_pos":-1,"motif":"","motif_pos":-1,"best_pos":4,"similarity":0.564},{"voice":1,"pitch":62,"start":93.2726,"duration":0.9545,"velocity":127,"measure":43,"beat":4.0,"subject_pos":0,"motif":"subject","motif_pos":0,"best_pos":0,"similarity":1.0},{"voice":0,"pitch":76,"start":93.5454,"duration":0.2727,"velocity":127,"measure":43,"beat":4.5,"subject_pos":-1,"motif":"","motif_pos":-1,"best_pos":4,"similarity":0.604},{"voice":0,"pitch":77,"start":93.8181,"duration":0.2727,"velocity":127,"measure":44,"beat":1.0,"subject_pos":-1,"motif":"","motif_pos":-1,"best_pos":5,"similarity":0.493},{"voice":0,"pitch":82,"start":94.0908,"duration":1.0909,"velocity":127,"measure":44,"beat":1.5,"subject_pos":-1,"motif":"","motif_pos":-1,"best_pos":1,"similarity":0.536},{"voice":1,"pitch":65,"start":94.2272,"duration":0.1364,"velocity":127,"measure":44,"beat":1.75,"subject_pos":-1,"motif":"subject","motif_pos":0,"best_pos":0,"similarity":1.0},{"voice":1,"pitch":67,"start":94.3635,"duration":0.1364,"velocity":127,"measure":44,"beat":2.0,"subject_pos":1,"motif":"subject","motif_pos":1,"best_pos":1,"similarity":1.0},{"voice":1,"pitch":65,"start":94.4999,"duration":0.1364,"velocity":127,"measure":44,"beat":2.25,"subject_pos":2,"motif":"subject","motif_pos":2,"best_pos":2,"similarity":1.0},{"voice":1,"pitch":64,"start":94.6363,"duration":0.1364,"velocity":127,"measure":44,"beat":2.5,"subject_pos":-1,"motif":"subject","motif_pos":2,"best_pos":2,"similarity":1.0},{"voice":1,"pitch":62,"start":94.7726,"duration":0.1364,"velocity":127,"measure":44,"beat":2.75,"subject_pos":3,"motif":"subject","motif_pos":3,"best_pos":3,"similarity":1.0},{"voice":1,"pitch":61,"start":94.909,"duration":0.2727,"velocity":127,"measure":44,"beat":3.0,"subject_pos":4,"motif":"subject","motif_pos":4,"best_pos":4,"similarity":1.0},{"voice":0,"pitch":81,"start":95.1817,"duration":0.1364,"velocity":127,"measure":44,"beat":3.5,"subject_pos":-1,"motif":"","motif_pos":-1,"best_pos":2,"similarity":0.518},{"voice":1,"pitch":62,"start":95.1817,"duration":0.2727,"velocity":127,"measure":44,"beat":3.5,"subject_pos":5,"motif":"subject","motif_pos":5,"best_pos":5,"similarity":1.0},{"voice":0,"pitch":79,"start":95.3181,"duration":0.1364,"velocity":127,"measure":44,"beat":3.75,"subject_pos":-1,"motif":"","motif_pos":-1,"best_pos":2,"similarity":0.571},{"voice":0,"pitch":77,"start":95.4544,"duration":0.1364,"velocity":127,"measure":44,"beat":4.0,"subject_pos":-1,"motif":"","motif_pos":-1,"best_pos":3,"similarity":0.571},{"voice":1,"pitch":64,"start":95.4544,"duration":0.2727,"velocity":127,"measure":44,"beat":4.0,"subject_pos":6,"motif":"subject","motif_pos":6,"best_pos":6,"similarity":1.0},{"voice":0,"pitch":76,"start":95.5908,"duration":0.1364,"velocity":127,"measure":44,"beat":4.25,"subject_pos":-1,"motif":"","motif_pos":-1,"best_pos":4,"similarity":0.446},{"voice":0,"pitch":86,"start":95.7272,"duration":1.3636,"velocity":127,"measure":44,"beat":4.5,"subject_pos":-1,"motif":"","motif_pos":-1,"best_pos":2,"similarity":0.214},{"voice":1,"pitch":65,"start":95.7272,"duration":0.1364,"velocity":127,"measure":44,"beat":4.5,"subject_pos":7,"motif":"subject","motif_pos":7,"best_pos":7,"similarity":1.0},{"voice":1,"pitch":64,"start":95.8635,"duration":0.1364,"velocity":127,"measure":44,"beat":4.75,"subject_pos":-1,"motif":"","motif_pos":-1,"best_pos":4,"similarity":0.55},{"voice":1,"pitch":62,"start":95.9999,"duration":0.1364,"velocity":127,"measure":45,"beat":1.0,"subject_pos":-1,"motif":"","motif_pos":-1,"best_pos":5,"similarity":0.607},{"voice":1,"pitch":64,"start":96.1363,"duration":0.1364,"velocity":127,"measure":45,"beat":1.25,"subject_pos":-1,"motif":"","motif_pos":-1,"best_pos":6,"similarity":0.657},{"voice":1,"pitch":65,"start":96.2726,"duration":0.2727,"velocity":127,"measure":45,"beat":1.5,"subject_pos":-1,"motif":"","motif_pos":-1,"best_pos":5,"similarity":0.693},{"voice":1,"pitch":67,"start":96.5454,"duration":0.2727,"velocity":127,"measure":45,"beat":2.0,"subject_pos":-1,"motif":"","motif_pos":-1,"best_pos":5,"similarity":0.607},{"voice":1,"pitch":69,"start":96.8181,"duration":0.2727,"velocity":127,"measure":45,"beat":2.5,"subject_pos":-1,"motif":"","motif_pos":-1,"best_pos":6,"similarity":0.661},{"voice":0,"pitch":77,"start":97.0908,"duration":0.2727,"velocity":127,"measure":45,"beat":3.0,"subject_pos":-1,"motif":"","motif_pos":-1,"best_pos":3,"similarity":0.5},{"voice":1,"pitch":70,"start":97.0908,"duration":0.5455,"velocity":127,"measure":45,"beat":3.0,"subject_pos":-1,"motif":"","motif_pos":-1,"best_pos":7,"similarity":0.464},{"voice":0,"pitch":76,"start":97.3635,"duration":0.2727,"velocity":127,"measure":45,"beat":3.5,"subject_pos":-1,"motif":"","motif_pos":-1,"best_pos":4,"similarity":0.721},{"voice":0,"pitch":77,"start":97.6363,"duration":0.2727,"velocity":127,"measure":45,"beat":4.0,"subject_pos":-1,"motif":"","motif_pos":-1,"best_pos":5,"similarity":0.729},{"voice":1,"pitch":69,"start":97.6363,"duration":0.2727,"velocity":127,"measure":45,"beat":4.0,"subject_pos":-1,"motif":"","motif_pos":-1,"best_pos":4,"similarity":0.486},{"voice":0,"pitch":79,"start":97.909,"duration":0.5455,"velocity":127,"measure":45,"beat":4.5,"subject_pos":-1,"motif":"","motif_pos":-1,"best_pos":6,"similarity":0.529},{"voice":1,"pitch":67,"start":97.909,"duration":0.2727,"velocity":127,"measure":45,"beat":4.5,"subject_pos":-1,"motif":"","motif_pos":-1,"best_pos":5,"similarity":0.479},{"voice":1,"pitch":69,"start":98.1817,"duration":0.1364,"velocity":127,"measure":46,"beat":1.0,"subject_pos":-1,"motif":"","motif_pos":-1,"best_pos":1,"similarity":0.457},{"voice":1,"pitch":67,"start":98.3181,"duration":0.1364,"velocity":127,"measure":46,"beat":1.25,"subject_pos":-1,"motif":"","motif_pos":-1,"best_pos":2,"similarity":0.657},{"voice":0,"pitch":84,"start":98.4544,"duration":0.2727,"velocity":127,"measure":46,"beat":1.5,"subject_pos":-1,"motif":"","motif_pos":-1,"best_pos":1,"similarity":0.314},{"voice":1,"pitch":65,"start":98.4544,"duration":0.1364,"velocity":127,"measure":46,"beat":1.5,"subject_pos":-1,"motif":"","motif_pos":-1,"best_pos":3,"similarity":0.793},{"voice":1,"pitch":64,"start":98.5908,"duration":0.1364,"velocity":127,"measure":46,"beat":1.75,"subject_pos":-1,"motif":"","motif_pos":-1,"best_pos":4,"similarity":0.864},{"voice":0,"pitch":77,"start":98.7272,"duration":0.2727,"velocity":127,"measure":46,"beat":2.0,"subject_pos":-1,"motif":"","motif_pos":-1,"best_pos":0,"similarity":0.286},{"voice":1,"pitch":65,"start":98.7272,"duration":0.5455,"velocity":127,"measure":46,"beat":2.0,"subject_pos":-1,"motif":"","motif_pos":-1,"best_pos":5,"similarity":0.764},{"voice":0,"pitch":82,"start":98.9999,"duration":1.3636,"velocity":127,"measure":46,"beat":2.5,"subject_pos":-1,"motif":"","motif_pos":-1,"best_pos":1,"similarity":0.286},{"voice":1,"pitch":67,"start":99.2726,"duration":0.2727,"velocity":127,"measure":46,"beat":3.0,"subject_pos":-1,"motif":"","motif_pos":-1,"best_pos":6,"similarity":0.529},{"voice":1,"pitch":65,"start":99.5454,"duration":0.2727,"velocity":127,"measure":46,"beat":3.5,"subject_pos":-1,"motif":"","motif_pos":-1,"best_pos":3,"similarity":0.536},{"voice":1,"pitch":64,"start":99.8181,"duration":0.2727,"velocity":127,"measure":46,"beat":4.0,"subject_pos":-1,"motif":"","motif_pos":-1,"best_pos":4,"similarity":0.543},{"voice":1,"pitch":62,"start":100.0908,"duration":0.2727,"velocity":127,"measure":46,"beat":4.5,"subject_pos":-1,"motif":"","motif_pos":-1,"best_pos":5,"similarity":0.507},{"voice":0,"pitch":72,"start":100.3635,"duration":0.2727,"velocity":127,"measure":47,"beat":1.0,"subject_pos":-1,"motif":"","motif_pos":-1,"best_pos":2,"similarity":0.143},{"voice":1,"pitch":64,"start":100.3635,"duration":0.5455,"velocity":127,"measure":47,"beat":1.0,"subject_pos":-1,"motif":"","motif_pos":-1,"best_pos":1,"similarity":0.421},{"voice":0,"pitch":81,"start":100.6363,"duration":1.3636,"velocity":127,"measure":47,"beat":1.5,"subject_pos":-1,"motif":"","motif_pos":-1,"best_pos":1,"similarity":0.107},{"voice":1,"pitch":62,"start":100.909,"duration":0.1364,"velocity":127,"measure":47,"beat":2.0,"subject_pos":-1,"motif":"","motif_pos":-1,"best_pos":2,"similarity":0.532},{"voice":1,"pitch":60,"start":101.0454,"duration":0.1364,"velocity":127,"measure":47,"beat":2.25,"subject_pos":-1,"motif":"","motif_pos":-1,"best_pos":2,"similarity":0.579},{"voice":1,"pitch":58,"start":101.1817,"duration":0.1364,"velocity":127,"measure":47,"beat":2.5,"subject_pos":-1,"motif":"","motif_pos":-1,"best_pos":3,"similarity":0.593},{"voice":1,"pitch":57,"start":101.3181,"duration":0.1364,"velocity":127,"measure":47,"beat":2.75,"subject_pos":-1,"motif":"","motif_pos":-1,"best_pos":4,"similarity":0.543},{"voice":1,"pitch":62,"start":101.4544,"duration":0.2727,"velocity":127,"measure":47,"beat":3.0,"subject_pos":-1,"motif":"","motif_pos":-1,"best_pos":3,"similarity":0.571},{"voice":1,"pitch":61,"start":101.7272,"duration":0.2727,"velocity":127,"measure":47,"beat":3.5,"subject_pos":-1,"motif":"","motif_pos":-1,"best_pos":4,"similarity":0.757},{"voice":0,"pitch":70,"start":101.9999,"duration":0.2727,"velocity":127,"measure":47,"beat":4.0,"subject_pos":-1,"motif":"","motif_pos":-1,"best_pos":0,"similarity":0.232},{"voice":1,"pitch":62,"start":101.9999,"duration":0.5455,"velocity":127,"measure":47,"beat":4.0,"subject_pos":-1,"motif":"","motif_pos":-1,"best_pos":5,"similarity":0.729},{"voice":0,"pitch":79,"start":102.2726,"duration":1.0909,"velocity":127,"measure":47,"beat":4.5,"subject_pos":-1,"motif":"","motif_pos":-1,"best_pos":1,"similarity":0.411},{"voice":1,"pitch":64,"start":102.5454,"duration":0.2727,"velocity":127,"measure":48,"beat":1.0,"subject_pos":-1,"motif":"","motif_pos":-1,"best_pos":6,"similarity":0.529},{"voice":1,"pitch":62,"start":102.8181,"duration":0.2727,"velocity":127,"measure":48,"beat":1.5,"subject_pos":-1,"motif":"","motif_pos":-1,"best_pos":3,"similarity":0.664},{"voice":1,"pitch":61,"start":103.0908,"duration":0.2727,"velocity":127,"measure":48,"beat":2.0,"subject_pos":-1,"motif":"","motif_pos":-1,"best_pos":4,"similarity":0.793},{"voice":0,"pitch":77,"start":103.3635,"duration":0.2727,"velocity":127,"measure":48,"beat":2.5,"subject_pos":-1,"motif":"","motif_pos":-1,"best_pos":3,"similarity":0.643},{"voice":1,"pitch":62,"start":103.3635,"duration":0.2727,"velocity":127,"measure":48,"beat":2.5,"subject_pos":-1,"motif":"","motif_pos":-1,"best_pos":5,"similarity":0.75},{"voice":0,"pitch":76,"start":103.6363,"duration":0.2727,"velocity":127,"measure":48,"beat":3.0,"subject_pos":-1,"motif":"","motif_pos":-1,"best_pos":4,"similarity":0.821},{"voice":1,"pitch":64,"start":103.6363,"duration":0.2727,"velocity":127,"measure":48,"beat":3.0,"subject_pos":-1,"motif":"","motif_pos":-1,"best_pos":6,"similarity":0.5},{"voice":0,"pitch":77,"start":103.909,"duration":0.2727,"velocity":127,"measure":48,"beat":3.5,"subject_pos":-1,"motif":"","motif_pos":-1,"best_pos":5,"similarity":0.821},{"voice":1,"pitch":57,"start":103.909,"duration":0.2727,"velocity":127,"measure":48,"beat":3.5,"subject_pos":-1,"motif":"","motif_pos":-1,"best_pos":0,"similarity":0.286},{"voice":0,"pitch":79,"start":104.1817,"duration":0.2727,"velocity":127,"measure":48,"beat":4.0,"subject_pos":-1,"motif":"","motif_pos":-1,"best_pos":6,"similarity":0.643},{"voice":1,"pitch":61,"start":104.1817,"duration":0.2727,"velocity":127,"measure":48,"beat":4.0,"subject_pos":-1,"motif":"","motif_pos":-1,"best_pos":1,"similarity":0.446},{"voice":0,"pitch":81,"start":104.4544,"duration":0.2727,"velocity":127,"measure":48,"beat":4.5,"subject_pos":-1,"motif":"","motif_pos":-1,"best_pos":6,"similarity":0.404},{"voice":1,"pitch":59,"start":104.4544,"duration":0.2727,"velocity":127,"measure":48,"beat":4.5,"subject_pos":-1,"motif":"","motif_pos":-1,"best_pos":5,"similarity":0.464},{"voice":0,"pitch":79,"start":104.7272,"duration":0.2727,"velocity":127,"measure":49,"beat":1.0,"subject_pos":-1,"motif":"","motif_pos":-1,"best_pos":2,"similarity":0.346},{"voice":1,"pitch":61,"start":104.7272,"duration":0.1364,"velocity":127,"measure":49,"beat":1.0,"subject_pos":-1,"motif":"","motif_pos":-1,"best_pos":4,"similarity":0.6},{"voice":1,"pitch":62,"start":104.8635,"duration":0.1364,"velocity":127,"measure":49,"beat":1.25,"subject_pos":-1,"motif":"","motif_pos":-1,"best_pos":5,"similarity":0.764},{"voice":0,"pitch":73,"start":104.9999,"duration":0.2727,"velocity":127,"measure":49,"beat":1.5,"subject_pos":-1,"motif":"","motif_pos":-1,"best_pos":2,"similarity":0.221},{"voice":1,"pitch":64,"start":104.9999,"duration":0.1364,"velocity":127,"measure":49,"beat":1.5,"subject_pos":-1,"motif":"","motif_pos":-1,"best_pos":6,"similarity":0.721},{"voice":1,"pitch":65,"start":105.1363,"duration":0.1364,"velocity":127,"measure":49,"beat":1.75,"subject_pos":-1,"motif":"","motif_pos":-1,"best_pos":5,"similarity":0.607},{"voice":1,"pitch":67,"start":105.2726,"duration":0.1364,"velocity":127,"measure":49,"beat":2.0,"subject_pos":-1,"motif":"","motif_pos":-1,"best_pos":6,"similarity":0.464},{"voice":1,"pitch":64,"start":105.409,"duration":0.1364,"velocity":127,"measure":49,"beat":2.25,"subject_pos":-1,"motif":"","motif_pos":-1,"best_pos":4,"similarity":0.543},{"voice":1,"pitch":65,"start":105.5453,"duration":0.1364,"velocity":127,"measure":49,"beat":2.5,"subject_pos":-1,"motif":"","motif_pos":-1,"best_pos":5,"similarity":0.679},{"voice":0,"pitch":86,"start":105.6817,"duration":0.1364,"velocity":127,"measure":49,"beat":2.75,"subject_pos":-1,"motif":"","motif_pos":-1,"best_pos":3,"similarity":0.343},{"voice":1,"pitch":67,"start":105.6817,"duration":0.1364,"velocity":127,"measure":49,"beat":2.75,"subject_pos":-1,"motif":"","motif_pos":-1,"best_pos":6,"similarity":0.589},{"voice":0,"pitch":85,"start":105.8181,"duration":0.1364,"velocity":127,"measure":49,"beat":3.0,"subject_pos":-1,"motif":"","motif_pos":-1,"best_pos":1,"similarity":0.393},{"voice":1,"pitch":69,"start":105.8181,"duration":0.2727,"velocity":127,"measure":49,"beat":3.0,"subject_pos":-1,"motif":"","motif_pos":-1,"best_pos":6,"similarity":0.375},{"voice":0,"pitch":83,"start":105.9544,"duration":0.1364,"velocity":127,"measure":49,"beat":3.25,"subject_pos":-1,"motif":"","motif_pos":-1,"best_pos":2,"similarity":0.507},{"voice":0,"pitch":81,"start":106.0908,"duration":0.1364,"velocity":127,"measure":49,"beat":3.5,"subject_pos":-1,"motif":"","motif_pos":-1,"best_pos":2,"similarity":0.507},{"voice":1,"pitch":61,"start":106.0908,"duration":0.2727,"velocity":127,"measure":49,"beat":3.5,"subject_pos":-1,"motif":"","motif_pos":-1,"best_pos":4,"similarity":0.382},{"voice":0,"pitch":79,"start":106.2272,"duration":0.1364,"velocity":127,"measure":49,"beat":3.75,"subject_pos":-1,"motif":"","motif_pos":-1,"best_pos":2,"similarity":0.5},{"voice":0,"pitch":77,"start":106.3635,"duration":0.9545,"velocity":127,"measure":49,"beat":4.0,"subject_pos":-1,"motif":"","motif_pos":-1,"best_pos":3,"similarity":0.436},{"voice":1,"pitch":62,"start":106.3635,"duration":0.1364,"velocity":127,"measure":49,"beat":4.0,"subject_pos":-1,"motif":"","motif_pos":-1,"best_pos":5,"similarity":0.464},{"voice":1,"pitch":65,"start":106.4999,"duration":0.1364,"velocity":127,"measure":49,"beat":4.25,"subject_pos":-1,"motif":"","motif_pos":-1,"best_pos":1,"similarity":0.357},{"voice":1,"pitch":64,"start":106.6363,"duration":0.1364,"velocity":127,"measure":49,"beat":4.5,"subject_pos":-1,"motif":"","motif_pos":-1,"best_pos":2,"similarity":0.471},{"voice":1,"pitch":62,"start":106.7726,"duration":0.1364,"velocity":127,"measure":49,"beat":4.75,"subject_pos":-1,"motif":"","motif_pos":-1,"best_pos":3,"similarity":0.539},{"voice":1,"pitch":61,"start":106.909,"duration":0.1364,"velocity":127,"measure":50,"beat":1.0,"subject_pos":-1,"motif":"","motif_pos":-1,"best_pos":4,"similarity":0.443},{"voice":1,"pitch":59,"start":107.0453,"duration":0.1364,"velocity":127,"measure":50,"beat":1.25,"subject_pos":-1,"motif":"","motif_pos":-1,"best_pos":2,"similarity":0.446},{"voice":1,"pitch":57,"start":107.1817,"duration":0.2727,"velocity":127,"measure":50,"beat":1.5,"subject_pos":-1,"motif":"","motif_pos":-1,"best_pos":4,"similarity":0.357},{"voice":0,"pitch":81,"start":107.3181,"duration":0.1364,"velocity":127,"measure":50,"beat":1.75,"subject_pos":-1,"motif":"","motif_pos":-1,"best_pos":4,"similarity":0.45},{"voice":0,"pitch":82,"start":107.4544,"duration":0.1364,"velocity":127,"measure":50,"beat":2.0,"subject_pos":-1,"motif":"","motif_pos":-1,"best_pos":5,"similarity":0.364},{"voice":1,"pitch":61,"start":107.4544,"duration":0.2727,"velocity":127,"measure":50,"beat":2.0,"subject_pos":-1,"motif":"","motif_pos":-1,"best_pos":5,"similarity":0.293},{"voice":0,"pitch":81,"start":107.5908,"duration":0.1364,"velocity":127,"measure":50,"beat":2.25,"subject_pos":-1,"motif":"","motif_pos":-1,"best_pos":1,"similarity":0.429},{"voice":0,"pitch":79,"start":107.7272,"duration":0.1364,"velocity":127,"measure":50,"beat":2.5,"subject_pos":-1,"motif":"","motif_pos":-1,"best_pos":2,"similarity":0.643},{"voice":1,"pitch":64,"start":107.7272,"duration":0.2727,"velocity":127,"measure":50,"beat":2.5,"subject_pos":-1,"motif":"","motif_pos":-1,"best_pos":0,"similarity":0.464},{"voice":0,"pitch":77,"start":107.8635,"duration":0.1364,"velocity":127,"measure":50,"beat":2.75,"subject_pos":-1,"motif":"","motif_pos":-1,"best_pos":3,"similarity":0.786},{"voice":0,"pitch":76,"start":107.9999,"duration":0.2727,"velocity":127,"measure":50,"beat":3.0,"subject_pos":-1,"motif":"","motif_pos":-1,"best_pos":4,"similarity":0.893},{"voice":1,"pitch":69,"start":107.9999,"duration":1.9091,"velocity":127,"measure":50,"beat":3.0,"subject_pos":-1,"motif":"","motif_pos":-1,"best_pos":1,"similarity":0.714},{"voice":0,"pitch":77,"start":108.2726,"duration":0.2727,"velocity":127,"measure":50,"beat":3.5,"subject_pos":-1,"motif":"","motif_pos":-1,"best_pos":5,"similarity":0.821},{"voice":0,"pitch":79,"start":108.5453,"duration":0.2727,"velocity":127,"measure":50,"beat":4.0,"subject_pos":-1,"motif":"","motif_pos":-1,"best_pos":6,"similarity":0.643},{"voice":0,"pitch":81,"start":108.8181,"duration":0.1364,"velocity":127,"measure":50,"beat":4.5,"subject_pos":-1,"motif":"","motif_pos":-1,"best_pos":6,"similarity":0.404},{"voice":0,"pitch":79,"start":108.9544,"duration":0.1364,"velocity":127,"measure":50,"beat":4.75,"subject_pos":-1,"motif":"","motif_pos":-1,"best_pos":2,"similarity":0.493},{"voice":0,"pitch":77,"start":109.0908,"duration":0.1364,"velocity":127,"measure":51,"beat":1.0,"subject_pos":-1,"motif":"","motif_pos":-1,"best_pos":4,"similarity":0.543},{"voice":0,"pitch":79,"start":109.2272,"duration":0.1364,"velocity":127,"measure":51,"beat":1.25,"subject_pos":-1,"motif":"","motif_pos":-1,"best_pos":5,"similarity":0.607},{"voice":0,"pitch":81,"start":109.3635,"duration":0.2727,"velocity":127,"measure":51,"beat":1.5,"subject_pos":-1,"motif":"","motif_pos":-1,"best_pos":5,"similarity":0.55},{"voice":0,"pitch":83,"start":109.6363,"duration":0.2727,"velocity":127,"measure":51,"beat":2.0,"subject_pos":-1,"motif":"","motif_pos":-1,"best_pos":5,"similarity":0.586},{"voice":0,"pitch":85,"start":109.909,"duration":0.2727,"velocity":127,"measure":51,"beat":2.5,"subject_pos":-1,"motif":"","motif_pos":-1,"best_pos":6,"similarity":0.65},{"voice":1,"pitch":67,"start":109.909,"duration":0.2727,"velocity":127,"measure":51,"beat":2.5,"subject_pos":-1,"motif":"","motif_pos":-1,"best_pos":2,"similarity":0.721},{"voice":0,"pitch":86,"start":110.1817,"duration":0.5455,"velocity":127,"measure":51,"beat":3.0,"subject_pos":-1,"motif":"","motif_pos":-1,"best_pos":7,"similarity":0.464},{"voice":1,"pitch":65,"start":110.1817,"duration":0.2727,"velocity":127,"measure":51,"beat":3.0,"subject_pos":-1,"motif":"","motif_pos":-1,"best_pos":3,"similarity":0.657},{"voice":1,"pitch":64,"start":110.4544,"duration":1.3636,"velocity":127,"measure":51,"beat":3.5,"subject_pos":-1,"motif":"","motif_pos":-1,"best_pos":4,"similarity":0.457},{"voice":0,"pitch":84,"start":110.7272,"duration":0.2727,"velocity":127,"measure":51,"beat":4.0,"subject_pos":-1,"motif":"","motif_pos":-1,"best_pos":3,"similarity":0.6},{"voice":0,"pitch":83,"start":110.9999,"duration":0.2727,"velocity":127,"measure":51,"beat":4.5,"subject_pos":-1,"motif":"tail_inv","motif_pos":0,"best_pos":0,"similarity":1.0},{"voice":0,"pitch":84,"start":111.2726,"duration":0.1364,"velocity":127,"measure":52,"beat":1.0,"subject_pos":-1,"motif":"tail_inv","motif_pos":1,"best_pos":1,"similarity":1.0},{"voice":0,"pitch":83,"start":111.409,"duration":0.1364,"velocity":127,"measure":52,"beat":1.25,"subject_pos":-1,"motif":"tail_inv","motif_pos":2,"best_pos":2,"similarity":1.0},{"voice":0,"pitch":81,"start":111.5453,"duration":0.1364,"velocity":127,"measure":52,"beat":1.5,"subject_pos":-1,"motif":"tail_inv","motif_pos":3,"best_pos":3,"similarity":1.0},{"voice":0,"pitch":80,"start":111.6817,"duration":0.1364,"velocity":127,"measure":52,"beat":1.75,"subject_pos":-1,"motif":"tail_inv","motif_pos":4,"best_pos":4,"similarity":1.0},{"voice":0,"pitch":81,"start":111.8181,"duration":0.5455,"velocity":127,"measure":52,"beat":2.0,"subject_pos":-1,"motif":"tail_inv","motif_pos":0,"best_pos":0,"similarity":1.0},{"voice":1,"pitch":69,"start":111.8181,"duration":0.2727,"velocity":127,"measure":52,"beat":2.0,"subject_pos":-1,"motif":"","motif_pos":-1,"best_pos":1,"similarity":0.314},{"voice":1,"pitch":62,"start":112.0908,"duration":1.3636,"velocity":127,"measure":52,"beat":2.5,"subject_pos":-1,"motif":"","motif_pos":-1,"best_pos":2,"similarity":0.189},{"voice":0,"pitch":82,"start":112.3635,"duration":0.2727,"velocity":127,"measure":52,"beat":3.0,"subject_pos":-1,"motif":"tail_inv","motif_pos":1,"best_pos":1,"similarity":1.0},{"voice":0,"pitch":81,"start":112.6363,"duration":0.2727,"velocity":127,"measure":52,"beat":3.5,"subject_pos":-1,"motif":"tail_inv","motif_pos":2,"best_pos":2,"similarity":1.0},{"voice":0,"pitch":79,"start":112.909,"duration":0.2727,"velocity":127,"measure":52,"beat":4.0,"subject_pos":-1,"motif":"tail_inv","motif_pos":3,"best_pos":3,"similarity":1.0},{"voice":0,"pitch":78,"start":113.1817,"duration":0.2727,"velocity":127,"measure":52,"beat":4.5,"subject_pos":-1,"motif":"tail_inv","motif_pos":4,"best_pos":4,"similarity":1.0},{"voice":0,"pitch":79,"start":113.4544,"duration":0.5455,"velocity":127,"measure":53,"beat":1.0,"subject_pos":-1,"motif":"","motif_pos":-1,"best_pos":5,"similarity":0.529},{"voice":1,"pitch":70,"start":113.4544,"duration":0.2727,"velocity":127,"measure":53,"beat":1.0,"subject_pos":-1,"motif":"","motif_pos":-1,"best_pos":1,"similarity":0.143},{"voice":1,"pitch":61,"start":113.7272,"duration":0.2727,"velocity":127,"measure":53,"beat":1.5,"subject_pos":-1,"motif":"","motif_pos":-1,"best_pos":5,"similarity":0.164},{"voice":0,"pitch":77,"start":113.9999,"duration":0.1364,"velocity":127,"measure":53,"beat":2.0,"subject_pos":-1,"motif":"","motif_pos":-1,"best_pos":3,"similarity":0.464},{"voice":1,"pitch":64,"start":113.9999,"duration":0.2727,"velocity":127,"measure":53,"beat":2.0,"subject_pos":-1,"motif":"","motif_pos":-1,"best_pos":0,"similarity":0.286},{"voice":0,"pitch":76,"start":114.1362,"duration":0.1364,"velocity":127,"measure":53,"beat":2.25,"subject_pos":-1,"motif":"","motif_pos":-1,"best_pos":2,"similarity":0.436},{"voice":0,"pitch":74,"start":114.2726,"duration":0.1364,"velocity":127,"measure":53,"beat":2.5,"subject_pos":-1,"motif":"","motif_pos":-1,"best_pos":3,"similarity":0.521},{"voice":1,"pitch":69,"start":114.2726,"duration":0.2727,"velocity":127,"measure":53,"beat":2.5,"subject_pos":-1,"motif":"","motif_pos":-1,"best_pos":1,"similarity":0.293},{"voice":0,"pitch":73,"start":114.409,"duration":0.1364,"velocity":127,"measure":53,"beat":2.75,"subject_pos":-1,"motif":"","motif_pos":-1,"best_pos":4,"similarity":0.507},{"voice":0,"pitch":77,"start":114.5453,"duration":0.2727,"velocity":127,"measure":53,"beat":3.0,"subject_pos":-1,"motif":"","motif_pos":-1,"best_pos":3,"similarity":0.571},{"voice":1,"pitch":57,"start":114.5453,"duration":0.5455,"velocity":127,"measure":53,"beat":3.0,"subject_pos":-1,"motif":"","motif_pos":-1,"best_pos":0,"similarity":0.446},{"voice":0,"pitch":76,"start":114.8181,"duration":0.2727,"velocity":127,"measure":53,"beat":3.5,"subject_pos":-1,"motif":"","motif_pos":-1,"best_pos":4,"similarity":0.757},{"voice":0,"pitch":77,"start":115.0908,"duration":0.5455,"velocity":127,"measure":53,"beat":4.0,"subject_pos":-1,"motif":"","motif_pos":-1,"best_pos":5,"similarity":0.729},{"voice":1,"pitch":62,"start":115.0908,"duration":0.2727,"velocity":127,"measure":53,"beat":4.0,"subject_pos":-1,"motif":"","motif_pos":-1,"best_pos":1,"similarity":0.643},{"voice":1,"pitch":58,"start":115.3635,"duration":1.0909,"velocity":127,"measure":53,"beat":4.5,"subject_pos":-1,"motif":"","motif_pos":-1,"best_pos":2,"similarity":0.607},{"voice":0,"pitch":79,"start":115.6362,"duration":0.2727,"velocity":127,"measure":54,"beat":1.0,"subject_pos":-1,"motif":"","motif_pos":-1,"best_pos":6,"similarity":0.529},{"voice":0,"pitch":77,"start":115.909,"duration":0.2727,"velocity":127,"measure":54,"beat":1.5,"subject_pos":-1,"motif":"","motif_pos":-1,"best_pos":3,"similarity":0.664},{"voice":0,"pitch":76,"start":116.1817,"duration":0.2727,"velocity":127,"measure":54,"beat":2.0,"subject_pos":-1,"motif":"","motif_pos":-1,"best_pos":4,"similarity":0.793},{"voice":0,"pitch":77,"start":116.4544,"duration":0.2727,"velocity":127,"measure":54,"beat":2.5,"subject_pos":-1,"motif":"","motif_pos":-1,"best_pos":5,"similarity":0.75},{"voice":1,"pitch":57,"start":116.4544,"duration":0.2727,"velocity":127,"measure":54,"beat":2.5,"subject_pos":-1,"motif":"","motif_pos":-1,"best_pos":4,"similarity":0.529},{"voice":0,"pitch":79,"start":116.7272,"duration":0.2727,"velocity":127,"measure":54,"beat":3.0,"subject_pos":-1,"motif":"","motif_pos":-1,"best_pos":6,"similarity":0.5},{"voice":1,"pitch":55,"start":116.7272,"duration":0.2727,"velocity":127,"measure":54,"beat":3.0,"subject_pos":-1,"motif":"","motif_pos":-1,"best_pos":5,"similarity":0.493},{"voice":0,"pitch":72,"start":116.9999,"duration":0.2727,"velocity":127,"measure":54,"beat":3.5,"subject_pos":-1,"motif":"","motif_pos":-1,"best_pos":0,"similarity":0.286},{"voice":1,"pitch":57,"start":116.9999,"duration":1.0909,"velocity":127,"measure":54,"beat":3.5,"subject_pos":-1,"motif":"","motif_pos":-1,"best_pos":0,"similarity":0.429},{"voice":0,"pitch":76,"start":117.2726,"duration":0.2727,"velocity":127,"measure":54,"beat":4.0,"subject_pos":-1,"motif":"","motif_pos":-1,"best_pos":1,"similarity":0.446},{"voice":0,"pitch":74,"start":117.5453,"duration":0.2727,"velocity":127,"measure":54,"beat":4.5,"subject_pos":-1,"motif":"","motif_pos":-1,"best_pos":5,"similarity":0.464},{"voice":0,"pitch":76,"start":117.8181,"duration":0.1364,"velocity":127,"measure":55,"beat":1.0,"subject_pos":-1,"motif":"","motif_pos":-1,"best_pos":6,"similarity":0.586},{"voice":0,"pitch":77,"start":117.9544,"duration":0.1364,"velocity":127,"measure":55,"beat":1.25,"subject_pos":-1,"motif":"","motif_pos":-1,"best_pos":5,"similarity":0.693},{"voice":0,"pitch":79,"start":118.0908,"duration":0.1364,"velocity":127,"measure":55,"beat":1.5,"subject_pos":-1,"motif":"","motif_pos":-1,"best_pos":5,"similarity":0.607},{"voice":1,"pitch":64,"start":118.0908,"duration":0.2727,"velocity":127,"measure":55,"beat":1.5,"subject_pos":-1,"motif":"","motif_pos":-1,"best_pos":1,"similarity":0.643},{"voice":0,"pitch":81,"start":118.2272,"duration":0.1364,"velocity":127,"measure":55,"beat":1.75,"subject_pos":-1,"motif":"","motif_pos":-1,"best_pos":6,"similarity":0.661},{"voice":0,"pitch":82,"start":118.3635,"duration":0.1364,"velocity":127,"measure":55,"beat":2.0,"subject_pos":-1,"motif":"","motif_pos":-1,"best_pos":7,"similarity":0.464},{"voice":1,"pitch":60,"start":118.3635,"duration":0.2727,"velocity":127,"measure":55,"beat":2.0,"subject_pos":-1,"motif":"","motif_pos":-1,"best_pos":2,"similarity":0.579},{"voice":0,"pitch":79,"start":118.4999,"duration":0.1364,"velocity":127,"measure":55,"beat":2.25,"subject_pos":-1,"motif":"","motif_pos":-1,"best_pos":3,"similarity":0.55},{"voice":0,"pitch":81,"start":118.6362,"duration":0.1364,"velocity":127,"measure":55,"beat":2.5,"subject_pos":-1,"motif":"","motif_pos":-1,"best_pos":4,"similarity":0.607},{"voice":0,"pitch":82,"start":118.7726,"duration":0.1364,"velocity":127,"measure":55,"beat":2.75,"subject_pos":-1,"motif":"","motif_pos":-1,"best_pos":5,"similarity":0.657},{"voice":1,"pitch":70,"start":118.8735,"duration":0.1364,"velocity":127,"measure":55,"beat":2.9349,"subject_pos":-1,"motif":"","motif_pos":-1,"best_pos":3,"similarity":0.586},{"voice":0,"pitch":84,"start":118.909,"duration":0.2727,"velocity":127,"measure":55,"beat":3.0,"subject_pos":-1,"motif":"","motif_pos":-1,"best_pos":6,"similarity":0.436},{"voice":1,"pitch":69,"start":118.909,"duration":0.2727,"velocity":127,"measure":55,"beat":3.0,"subject_pos":-1,"motif":"","motif_pos":-1,"best_pos":4,"similarity":0.529},{"voice":0,"pitch":76,"start":119.1817,"duration":0.2727,"velocity":127,"measure":55,"beat":3.5,"subject_pos":-1,"motif":"","motif_pos":-1,"best_pos":6,"similarity":0.375},{"voice":1,"pitch":67,"start":119.1817,"duration":0.2727,"velocity":127,"measure":55,"beat":3.5,"subject_pos":-1,"motif":"","motif_pos":-1,"best_pos":5,"similarity":0.457},{"voice":1,"pitch":69,"start":119.4189,"duration":0.1364,"velocity":127,"measure":55,"beat":3.9349,"subject_pos":-1,"motif":"","motif_pos":-1,"best_pos":6,"similarity":0.371},{"voice":0,"pitch":77,"start":119.4544,"duration":0.1364,"velocity":127,"measure":55,"beat":4.0,"subject_pos":-1,"motif":"","motif_pos":-1,"best_pos":5,"similarity":0.371},{"voice":1,"pitch":65,"start":119.4544,"duration":0.9545,"velocity":127,"measure":55,"beat":4.0,"subject_pos":-1,"motif":"","motif_pos":-1,"best_pos":2,"similarity":0.379},{"voice":0,"pitch":81,"start":119.5908,"duration":0.1364,"velocity":127,"measure":55,"beat":4.25,"subject_pos":-1,"motif":"","motif_pos":-1,"best_pos":1,"similarity":0.571},{"voice":0,"pitch":79,"start":119.7272,"duration":0.1364,"velocity":127,"measure":55,"beat":4.5,"subject_pos":-1,"motif":"","motif_pos":-1,"best_pos":2,"similarity":0.65},{"voice":0,"pitch":77,"start":119.8635,"duration":0.1364,"velocity":127,"measure":55,"beat":4.75,"subject_pos":-1,"motif":"","motif_pos":-1,"best_pos":3,"similarity":0.629},{"voice":0,"pitch":76,"start":119.9999,"duration":0.1364,"velocity":127,"measure":56,"beat":1.0,"subject_pos":-1,"motif":"","motif_pos":-1,"best_pos":4,"similarity":0.479},{"voice":0,"pitch":74,"start":120.1362,"duration":0.1364,"velocity":127,"measure":56,"beat":1.25,"subject_pos":-1,"motif":"","motif_pos":-1,"best_pos":2,"similarity":0.446},{"voice":0,"pitch":72,"start":120.2726,"duration":0.2727,"velocity":127,"measure":56,"beat":1.5,"subject_pos":-1,"motif":"","motif_pos":-1,"best_pos":4,"similarity":0.357},{"voice":1,"pitch":69,"start":120.409,"duration":0.1364,"velocity":127,"measure":56,"beat":1.75,"subject_pos":-1,"motif":"","motif_pos":-1,"best_pos":1,"similarity":0.571},{"voice":0,"pitch":76,"start":120.5453,"duration":0.2727,"velocity":127,"measure":56,"beat":2.0,"subject_pos":-1,"motif":"","motif_pos":-1,"best_pos":5,"similarity":0.293},{"voice":1,"pitch":67,"start":120.5453,"duration":0.1364,"velocity":127,"measure":56,"beat":2.0,"subject_pos":-1,"motif":"","motif_pos":-1,"best_pos":2,"similarity":0.65},{"voice":1,"pitch":65,"start":120.6817,"duration":0.1364,"velocity":127,"measure":56,"beat":2.25,"subject_pos":-1,"motif":"","motif_pos":-1,"best_pos":3,"similarity":0.629},{"voice":0,"pitch":79,"start":120.8181,"duration":0.2727,"velocity":127,"measure":56,"beat":2.5,"subject_pos":-1,"motif":"head","motif_pos":0,"best_pos":0,"similarity":1.0},{"voice":1,"pitch":64,"start":120.8181,"duration":0.1364,"velocity":127,"measure":56,"beat":2.5,"subject_pos":-1,"motif":"","motif_pos":-1,"best_pos":4,"similarity":0.479},{"voice":1,"pitch":62,"start":120.9544,"duration":0.1364,"velocity":127,"measure":56,"beat":2.75,"subject_pos":-1,"motif":"","motif_pos":-1,"best_pos":2,"similarity":0.518},{"voice":0,"pitch":84,"start":121.0908,"duration":1.9091,"velocity":127,"measure":56,"beat":3.0,"subject_pos":-1,"motif":"head","motif_pos":1,"best_pos":1,"similarity":1.0},{"voice":1,"pitch":60,"start":121.0908,"duration":0.1364,"velocity":127,"measure":56,"beat":3.0,"subject_pos":-1,"motif":"","motif_pos":-1,"best_pos":2,"similarity":0.643},{"voice":1,"pitch":58,"start":121.2272,"duration":0.1364,"velocity":127,"measure":56,"beat":3.25,"subject_pos":-1,"motif":"","motif_pos":-1,"best_pos":3,"similarity":0.786},{"voice":1,"pitch":57,"start":121.3635,"duration":0.1364,"velocity":127,"measure":56,"beat":3.5,"subject_pos":-1,"motif":"","motif_pos":-1,"best_pos":4,"similarity":0.893},{"voice":1,"pitch":58,"start":121.4999,"duration":0.1364,"velocity":127,"measure":56,"beat":3.75,"subject_pos":-1,"motif":"","motif_pos":-1,"best_pos":5,"similarity":0.821},{"voice":1,"pitch":60,"start":121.6362,"duration":0.1364,"velocity":127,"measure":56,"beat":4.0,"subject_pos":-1,"motif":"","motif_pos":-1,"best_pos":6,"similarity":0.643},{"voice":1,"pitch":62,"start":121.7726,"duration":0.1364,"velocity":127,"measure":56,"beat":4.25,"subject_pos":-1,"motif":"","motif_pos":-1,"best_pos":6,"similarity":0.518},{"voice":1,"pitch":64,"start":121.909,"duration":0.1364,"velocity":127,"measure":56,"beat":4.5,"subject_pos":-1,"motif":"","motif_pos":-1,"best_pos":6,"similarity":0.393},{"voice":1,"pitch":62,"start":122.0453,"duration":0.1364,"velocity":127,"measure":56,"beat":4.75,"subject_pos":-1,"motif":"","motif_pos":-1,"best_pos":4,"similarity":0.507},{"voice":1,"pitch":64,"start":122.1817,"duration":0.1364,"velocity":127,"measure":57,"beat":1.0,"subject_pos":-1,"motif":"","motif_pos":-1,"best_pos":5,"similarity":0.643},{"voice":1,"pitch":66,"start":122.3181,"duration":0.1364,"velocity":127,"measure":57,"beat":1.25,"subject_pos":-1,"motif":"","motif_pos":-1,"best_pos":6,"similarity":0.679},{"voice":1,"pitch":67,"start":122.4544,"duration":0.1364,"velocity":127,"measure":57,"beat":1.5,"subject_pos":-1,"motif":"","motif_pos":-1,"best_pos":7,"similarity":0.464},{"voice":1,"pitch":64,"start":122.5908,"duration":0.1364,"velocity":127,"measure":57,"beat":1.75,"subject_pos":-1,"motif":"","motif_pos":-1,"best_pos":3,"similarity":0.407},{"voice":1,"pitch":66,"start":122.7271,"duration":0.1364,"velocity":127,"measure":57,"beat":2.0,"subject_pos":-1,"motif":"","motif_pos":-1,"best_pos":4,"similarity":0.357},{"voice":1,"pitch":62,"start":122.8635,"duration":0.1364,"velocity":127,"measure":57,"beat":2.25,"subject_pos":-1,"motif":"","motif_pos":-1,"best_pos":5,"similarity":0.443},{"voice":0,"pitch":82,"start":122.9999,"duration":0.2727,"velocity":127,"measure":57,"beat":2.5,"subject_pos":-1,"motif":"head","motif_pos":2,"best_pos":2,"similarity":1.0},{"voice":1,"pitch":64,"start":122.9999,"duration":0.1364,"velocity":127,"measure":57,"beat":2.5,"subject_pos":-1,"motif":"","motif_pos":-1,"best_pos":5,"similarity":0.586},{"voice":1,"pitch":66,"start":123.1362,"duration":0.1364,"velocity":127,"measure":57,"beat":2.75,"subject_pos":-1,"motif":"","motif_pos":-1,"best_pos":6,"similarity":0.65},{"voice":0,"pitch":81,"start":123.2726,"duration":0.2727,"velocity":127,"measure":57,"beat":3.0,"subject_pos":-1,"motif":"head","motif_pos":3,"best_pos":3,"similarity":1.0},{"voice":1,"pitch":67,"start":123.2726,"duration":0.1364,"velocity":127,"measure":57,"beat":3.0,"subject_pos":-1,"motif":"","motif_pos":-1,"best_pos":5,"similarity":0.729},{"voice":1,"pitch":69,"start":123.409,"duration":0.1364,"velocity":127,"measure":57,"beat":3.25,"subject_pos":-1,"motif":"","motif_pos":-1,"best_pos":6,"similarity":0.721},{"voice":0,"pitch":79,"start":123.5453,"duration":1.3636,"velocity":127,"measure":57,"beat":3.5,"subject_pos":-1,"motif":"head","motif_pos":4,"best_pos":4,"similarity":1.0},{"voice":1,"pitch":70,"start":123.5453,"duration":0.1364,"velocity":127,"measure":57,"beat":3.5,"subject_pos":-1,"motif":"","motif_pos":-1,"best_pos":7,"similarity":0.5},{"voice":1,"pitch":69,"start":123.6817,"duration":0.1364,"velocity":127,"measure":57,"beat":3.75,"subject_pos":-1,"motif":"","motif_pos":-1,"best_pos":1,"similarity":0.429},{"voice":1,"pitch":67,"start":123.8181,"duration":0.1364,"velocity":127,"measure":57,"beat":4.0,"subject_pos":-1,"motif":"","motif_pos":-1,"best_pos":2,"similarity":0.579},{"voice":1,"pitch":65,"start":123.9544,"duration":0.1364,"velocity":127,"measure":57,"beat":4.25,"subject_pos":-1,"motif":"","motif_pos":-1,"best_pos":3,"similarity":0.593},{"voice":1,"pitch":64,"start":124.0908,"duration":0.1364,"velocity":127,"measure":57,"beat":4.5,"subject_pos":-1,"motif":"","motif_pos":-1,"best_pos":4,"similarity":0.479},{"voice":1,"pitch":62,"start":124.2271,"duration":0.1364,"velocity":127,"measure":57,"beat":4.75,"subject_pos":-1,"motif":"","motif_pos":-1,"best_pos":2,"similarity":0.446},{"voice":1,"pitch":60,"start":124.3635,"duration":0.1364,"velocity":127,"measure":58,"beat":1.0,"subject_pos":-1,"motif":"","motif_pos":-1,"best_pos":4,"similarity":0.368},{"voice":1,"pitch":64,"start":124.4999,"duration":0.1364,"velocity":127,"measure":58,"beat":1.25,"subject_pos":-1,"motif":"","motif_pos":-1,"best_pos":5,"similarity":0.314},{"voice":1,"pitch":67,"start":124.6362,"duration":0.1364,"velocity":127,"measure":58,"beat":1.5,"subject_pos":-1,"motif":"","motif_pos":-1,"best_pos":5,"similarity":0.286},{"voice":1,"pitch":70,"start":124.7726,"duration":0.1364,"velocity":127,"measure":58,"beat":1.75,"subject_pos":-1,"motif":"","motif_pos":-1,"best_pos":3,"similarity":0.407},{"voice":0,"pitch":84,"start":124.909,"duration":0.2727,"velocity":127,"measure":58,"beat":2.0,"subject_pos":-1,"motif":"","motif_pos":-1,"best_pos":1,"similarity":0.314},{"voice":1,"pitch":69,"start":124.909,"duration":0.1364,"velocity":127,"measure":58,"beat":2.0,"subject_pos":-1,"motif":"","motif_pos":-1,"best_pos":4,"similarity":0.464},{"voice":1,"pitch":67,"start":125.0453,"duration":0.1364,"velocity":127,"measure":58,"beat":2.25,"subject_pos":-1,"motif":"","motif_pos":-1,"best_pos":5,"similarity":0.471},{"voice":0,"pitch":77,"start":125.1817,"duration":1.3636,"velocity":127,"measure":58,"beat":2.5,"subject_pos":-1,"motif":"","motif_pos":-1,"best_pos":2,"similarity":0.189},{"voice":1,"pitch":69,"start":125.1817,"duration":0.1364,"velocity":127,"measure":58,"beat":2.5,"subject_pos":-1,"motif":"","motif_pos":-1,"best_pos":1,"similarity":0.457},{"voice":1,"pitch":67,"start":125.3181,"duration":0.1364,"velocity":127,"measure":58,"beat":2.75,"subject_pos":-1,"motif":"","motif_pos":-1,"best_pos":2,"similarity":0.593},{"voice":1,"pitch":65,"start":125.4544,"duration":0.1364,"velocity":127,"measure":58,"beat":3.0,"subject_pos":-1,"motif":"","motif_pos":-1,"best_pos":3,"similarity":0.6},{"voice":1,"pitch":64,"start":125.5908,"duration":0.1364,"velocity":127,"measure":58,"beat":3.25,"subject_pos":-1,"motif":"","motif_pos":-1,"best_pos":4,"similarity":0.479},{"voice":1,"pitch":62,"start":125.7271,"duration":0.1364,"velocity":127,"measure":58,"beat":3.5,"subject_pos":-1,"motif":"","motif_pos":-1,"best_pos":2,"similarity":0.536},{"voice":1,"pitch":60,"start":125.8635,"duration":0.1364,"velocity":127,"measure":58,"beat":3.75,"subject_pos":-1,"motif":"","motif_pos":-1,"best_pos":3,"similarity":0.507},{"voice":1,"pitch":58,"start":125.9999,"duration":0.1364,"velocity":127,"measure":58,"beat":4.0,"subject_pos":-1,"motif":"","motif_pos":-1,"best_pos":4,"similarity":0.461},{"voice":1,"pitch":60,"start":126.1362,"duration":0.1364,"velocity":127,"measure":58,"beat":4.25,"subject_pos":-1,"motif":"","motif_pos":-1,"best_pos":1,"similarity":0.386},{"voice":1,"pitch":58,"start":126.2726,"duration":0.1364,"velocity":127,"measure":58,"beat":4.5,"subject_pos":-1,"motif":"","motif_pos":-1,"best_pos":3,"similarity":0.464},{"voice":1,"pitch":57,"start":126.409,"duration":0.1364,"velocity":127,"measure":58,"beat":4.75,"subject_pos":-1,"motif":"","motif_pos":-1,"best_pos":3,"similarity":0.45},{"voice":0,"pitch":86,"start":126.5453,"duration":0.2727,"velocity":127,"measure":59,"beat":1.0,"subject_pos":-1,"motif":"","motif_pos":-1,"best_pos":3,"similarity":0.129},{"voice":1,"pitch":55,"start":126.5453,"duration":0.1364,"velocity":127,"measure":59,"beat":1.0,"subject_pos":-1,"motif":"","motif_pos":-1,"best_pos":3,"similarity":0.464},{"voice":1,"pitch":53,"start":126.6817,"duration":0.1364,"velocity":127,"measure":59,"beat":1.25,"subject_pos":-1,"motif":"","motif_pos":-1,"best_pos":4,"similarity":0.482},{"voice":0,"pitch":76,"start":126.8181,"duration":0.2727,"velocity":127,"measure":59,"beat":1.5,"subject_pos":-1,"motif":"","motif_pos":-1,"best_pos":5,"similarity":0.15},{"voice":1,"pitch":55,"start":126.8181,"duration":0.1364,"velocity":127,"measure":59,"beat":1.5,"subject_pos":-1,"motif":"","motif_pos":-1,"best_pos":5,"similarity":0.429},{"voice":1,"pitch":58,"start":126.9544,"duration":0.1364,"velocity":127,"measure":59,"beat":1.75,"subject_pos":-1,"motif":"","motif_pos":-1,"best_pos":1,"similarity":0.321},{"voice":0,"pitch":79,"start":127.0908,"duration":0.2727,"velocity":127,"measure":59,"beat":2.0,"subject_pos":-1,"motif":"","motif_pos":-1,"best_pos":0,"similarity":0.15},{"voice":1,"pitch":57,"start":127.0908,"duration":0.1364,"velocity":127,"measure":59,"beat":2.0,"subject_pos":0,"motif":"subject_inv","motif_pos":0,"best_pos":0,"similarity":1.0},{"voice":1,"pitch":55,"start":127.2271,"duration":0.1364,"velocity":127,"measure":59,"beat":2.25,"subject_pos":-1,"motif":"subject_inv","motif_pos":0,"best_pos":0,"similarity":1.0},{"voice":0,"pitch":85,"start":127.3635,"duration":0.2727,"velocity":127,"measure":59,"beat":2.5,"subject_pos":-1,"motif":"","motif_pos":-1,"best_pos":1,"similarity":0.164},{"voice":1,"pitch":53,"start":127.3635,"duration":0.1364,"velocity":127,"measure":59,"beat":2.5,"subject_pos":-1,"motif":"subject_inv","motif_pos":0,"best_pos":0,"similarity":1.0},{"voice":1,"pitch":52,"start":127.4999,"duration":0.1364,"velocity":127,"measure":59,"beat":2.75,"subject_pos":-1,"motif":"subject_inv","motif_pos":0,"best_pos":0,"similarity":1.0},{"voice":0,"pitch":69,"start":127.6362,"duration":0.8182,"velocity":127,"measure":59,"beat":3.0,"subject_pos":0,"motif":"subject_inv","motif_pos":0,"best_pos":0,"similarity":1.0},{"voice":1,"pitch":53,"start":127.6362,"duration":0.1364,"velocity":127,"measure":59,"beat":3.0,"subject_pos":-1,"motif":"subject_inv","motif_pos":0,"best_pos":0,"similarity":1.0},{"voice":1,"pitch":50,"start":127.7726,"duration":0.1364,"velocity":127,"measure":59,"beat":3.25,"subject_pos":1,"motif":"subject_inv","motif_pos":1,"best_pos":1,"similarity":1.0},{"voice":1,"pitch":52,"start":127.909,"duration":0.1364,"velocity":127,"measure":59,"beat":3.5,"subject_pos":2,"motif":"subject_inv","motif_pos":2,"best_pos":2,"similarity":1.0},{"voice":1,"pitch":53,"start":128.0453,"duration":0.1364,"velocity":127,"measure":59,"beat":3.75,"subject_pos":3,"motif":"subject_inv","motif_pos":3,"best_pos":3,"similarity":1.0},{"voice":1,"pitch":55,"start":128.1817,"duration":0.1364,"velocity":127,"measure":59,"beat":4.0,"subject_pos":4,"motif":"subject_inv","motif_pos":4,"best_pos":4,"similarity":1.0},{"voice":1,"pitch":57,"start":128.3181,"duration":0.1364,"velocity":127,"measure":59,"beat":4.25,"subject_pos":5,"motif":"subject_inv","motif_pos":5,"best_pos":5,"similarity":1.0},{"voice":0,"pitch":62,"start":128.4544,"duration":1.6364,"velocity":127,"measure":59,"beat":4.5,"subject_pos":1,"motif":"subject_inv","motif_pos":1,"best_pos":1,"similarity":1.0},{"voice":1,"pitch":58,"start":128.4544,"duration":0.2727,"velocity":127,"measure":59,"beat":4.5,"subject_pos":6,"motif":"subject_inv","motif_pos":6,"best_pos":6,"similarity":1.0},{"voice":1,"pitch":57,"start":128.7271,"duration":0.2727,"velocity":127,"measure":60,"beat":1.0,"subject_pos":7,"motif":"subject_inv","motif_pos":7,"best_pos":7,"similarity":1.0},{"voice":1,"pitch":55,"start":128.9999,"duration":0.2727,"velocity":127,"measure":60,"beat":1.5,"subject_pos":8,"motif":"subject_inv","motif_pos":8,"best_pos":0,"similarity":1.0},{"voice":1,"pitch":53,"start":129.2726,"duration":0.2727,"velocity":127,"measure":60,"beat":2.0,"subject_pos":-1,"motif":"","motif_pos":-1,"best_pos":5,"similarity":0.418},{"voice":1,"pitch":55,"start":129.5453,"duration":0.2727,"velocity":127,"measure":60,"beat":2.5,"subject_pos":-1,"motif":"","motif_pos":-1,"best_pos":2,"similarity":0.421},{"voice":1,"pitch":52,"start":129.8181,"duration":0.2727,"velocity":127,"measure":60,"beat":3.0,"subject_pos":-1,"motif":"","motif_pos":-1,"best_pos":3,"similarity":0.514},{"voice":0,"pitch":65,"start":130.0908,"duration":1.6364,"velocity":127,"measure":60,"beat":3.5,"subject_pos":2,"motif":"subject_inv","motif_pos":2,"best_pos":2,"similarity":1.0},{"voice":1,"pitch":50,"start":130.0908,"duration":0.2727,"velocity":127,"measure":60,"beat":3.5,"subject_pos":-1,"motif":"","motif_pos":-1,"best_pos":4,"similarity":0.507},{"voice":1,"pitch":52,"start":130.3635,"duration":0.2727,"velocity":127,"measure":60,"beat":4.0,"subject_pos":-1,"motif":"","motif_pos":-1,"best_pos":3,"similarity":0.429},{"voice":1,"pitch":49,"start":130.6362,"duration":0.2727,"velocity":127,"measure":60,"beat":4.5,"subject_pos":-1,"motif":"","motif_pos":-1,"best_pos":4,"similarity":0.643},{"voice":1,"pitch":50,"start":130.909,"duration":0.1364,"velocity":127,"measure":61,"beat":1.0,"subject_pos":-1,"motif":"","motif_pos":-1,"best_pos":5,"similarity":0.75},{"voice":1,"pitch":52,"start":131.0453,"duration":0.1364,"velocity":127,"measure":61,"beat":1.25,"subject_pos":-1,"motif":"","motif_pos":-1,"best_pos":6,"similarity":0.732},{"voice":1,"pitch":53,"start":131.1817,"duration":0.1364,"velocity":127,"measure":61,"beat":1.5,"subject_pos":-1,"motif":"","motif_pos":-1,"best_pos":5,"similarity":0.664},{"voice":1,"pitch":55,"start":131.3181,"duration":0.1364,"velocity":127,"measure":61,"beat":1.75,"subject_pos":-1,"motif":"","motif_pos":-1,"best_pos":5,"similarity":0.607},{"voice":1,"pitch":57,"start":131.4544,"duration":0.1364,"velocity":127,"measure":61,"beat":2.0,"subject_pos":-1,"motif":"","motif_pos":-1,"best_pos":6,"similarity":0.661},{"voice":1,"pitch":58,"start":131.5908,"duration":0.1364,"velocity":127,"measure":61,"beat":2.25,"subject_pos":-1,"motif":"","motif_pos":-1,"best_pos":5,"similarity":0.657},{"voice":0,"pitch":69,"start":131.7271,"duration":1.6364,"velocity":127,"measure":61,"beat":2.5,"subject_pos":3,"motif":"subject_inv","motif_pos":3,"best_pos":3,"similarity":1.0},{"voice":1,"pitch":60,"start":131.7271,"duration":0.2727,"velocity":127,"measure":61,"beat":2.5,"subject_pos":-1,"motif":"","motif_pos":-1,"best_pos":6,"similarity":0.579},{"voice":1,"pitch":62,"start":131.9999,"duration":0.2727,"velocity":127,"measure":61,"beat":3.0,"subject_pos":-1,"motif":"","motif_pos":-1,"best_pos":2,"similarity":0.4},{"voice":1,"pitch":58,"start":132.2726,"duration":0.2727,"velocity":127,"measure":61,"beat":3.5,"subject_pos":-1,"motif":"","motif_pos":-1,"best_pos":3,"similarity":0.593},{"voice":1,"pitch":57,"start":132.5453,"duration":0.2727,"velocity":127,"measure":61,"beat":4.0,"subject_pos":-1,"motif":"","motif_pos":-1,"best_pos":4,"similarity":0.657},{"voice":1,"pitch":58,"start":132.818,"duration":0.2727,"velocity":127,"measure":61,"beat":4.5,"subject_pos":-1,"motif":"","motif_pos":-1,"best_pos":5,"similarity":0.479},{"voice":1,"pitch":55,"start":133.0908,"duration":0.2727,"velocity":127,"measure":62,"beat":1.0,"subject_pos":-1,"motif":"","motif_pos":-1,"best_pos":3,"similarity":0.514},{"voice":0,"pitch":70,"start":133.3635,"duration":1.6364,"velocity":127,"measure":62,"beat":1.5,"subject_pos":4,"motif":"subject_inv","motif_pos":4,"best_pos":4,"similarity":1.0},{"voice":1,"pitch":53,"start":133.3635,"duration":0.2727,"velocity":127,"measure":62,"beat":1.5,"subject_pos":-1,"motif":"","motif_pos":-1,"best_pos":4,"similarity":0.507},{"voice":1,"pitch":55,"start":133.6362,"duration":0.2727,"velocity":127,"measure":62,"beat":2.0,"subject_pos":-1,"motif":"","motif_pos":-1,"best_pos":5,"similarity":0.429},{"voice":1,"pitch":52,"start":133.909,"duration":0.2727,"velocity":127,"measure":62,"beat":2.5,"subject_pos":-1,"motif":"","motif_pos":-1,"best_pos":4,"similarity":0.536},{"voice":1,"pitch":53,"start":134.1817,"duration":0.1364,"velocity":127,"measure":62,"beat":3.0,"subject_pos":-1,"motif":"","motif_pos":-1,"best_pos":5,"similarity":0.536},{"voice":1,"pitch":57,"start":134.318,"duration":0.1364,"velocity":127,"measure":62,"beat":3.25,"subject_pos":-1,"motif":"","motif_pos":-1,"best_pos":6,"similarity":0.518},{"voice":1,"pitch":58,"start":134.4544,"duration":0.1364,"velocity":127,"measure":62,"beat":3.5,"subject_pos":-1,"motif":"","motif_pos":-1,"best_pos":5,"similarity":0.65},{"voice":1,"pitch":60,"start":134.5908,"duration":0.1364,"velocity":127,"measure":62,"beat":3.75,"subject_pos":-1,"motif":"","motif_pos":-1,"best_pos":6,"similarity":0.571},{"voice":1,"pitch":62,"start":134.7271,"duration":0.1364,"velocity":127,"measure":62,"beat":4.0,"subject_pos":-1,"motif":"","motif_pos":-1,"best_pos":5,"similarity":0.593},{"voice":1,"pitch":64,"start":134.8635,"duration":0.1364,"velocity":127,"measure":62,"beat":4.25,"subject_pos":-1,"motif":"","motif_pos":-1,"best_pos":6,"similarity":0.65},{"voice":0,"pitch":69,"start":134.9999,"duration":1.6364,"velocity":127,"measure":62,"beat":4.5,"subject_pos":5,"motif":"subject_inv","motif_pos":5,"best_pos":5,"similarity":1.0},{"voice":1,"pitch":65,"start":134.9999,"duration":0.2727,"velocity":127,"measure":62,"beat":4.5,"subject_pos":-1,"motif":"","motif_pos":-1,"best_pos":5,"similarity":0.6},{"voice":1,"pitch":67,"start":135.2726,"duration":0.2727,"velocity":127,"measure":63,"beat":1.0,"subject_pos":-1,"motif":"","motif_pos":-1,"best_pos":6,"similarity":0.464},{"voice":1,"pitch":64,"start":135.5453,"duration":0.2727,"velocity":127,"measure":63,"beat":1.5,"subject_pos":-1,"motif":"","motif_pos":-1,"best_pos":3,"similarity":0.521},{"voice":1,"pitch":62,"start":135.818,"duration":0.2727,"velocity":127,"measure":63,"beat":2.0,"subject_pos":-1,"motif":"tail","motif_pos":3,"best_pos":3,"similarity":1.0},{"voice":1,"pitch":61,"start":136.0908,"duration":0.2727,"velocity":127,"measure":63,"beat":2.5,"subject_pos":-1,"motif":"tail","motif_pos":4,"best_pos":4,"similarity":1.0},{"voice":1,"pitch":62,"start":136.3635,"duration":0.2727,"velocity":127,"measure":63,"beat":3.0,"subject_pos":-1,"motif":"tail","motif_pos":5,"best_pos":5,"similarity":1.0},{"voice":0,"pitch":67,"start":136.6362,"duration":1.6364,"velocity":127,"measure":63,"beat":3.5,"subject_pos":6,"motif":"subject_inv","motif_pos":6,"best_pos":6,"similarity":1.0},{"voice":1,"pitch":64,"start":136.6362,"duration":0.2727,"velocity":127,"measure":63,"beat":3.5,"subject_pos":-1,"motif":"tail","motif_pos":6,"best_pos":6,"similarity":1.0},{"voice":1,"pitch":65,"start":136.909,"duration":0.2727,"velocity":127,"measure":63,"beat":4.0,"subject_pos":-1,"motif":"tail","motif_pos":7,"best_pos":7,"similarity":1.0},{"voice":1,"pitch":62,"start":137.1817,"duration":0.2727,"velocity":127,"measure":63,"beat":4.5,"subject_pos":-1,"motif":"","motif_pos":-1,"best_pos":3,"similarity":0.679},{"voice":1,"pitch":61,"start":137.4544,"duration":0.2727,"velocity":127,"measure":64,"beat":1.0,"subject_pos":-1,"motif":"","motif_pos":-1,"best_pos":4,"similarity":0.679},{"voice":1,"pitch":59,"start":137.7271,"duration":0.2727,"velocity":127,"measure":64,"beat":1.5,"subject_pos":-1,"motif":"","motif_pos":-1,"best_pos":5,"similarity":0.671},{"voice":1,"pitch":61,"start":137.9999,"duration":0.2727,"velocity":127,"measure":64,"beat":2.0,"subject_pos":-1,"motif":"","motif_pos":-1,"best_pos":6,"similarity":0.657},{"voice":0,"pitch":65,"start":138.2726,"duration":1.3636,"velocity":127,"measure":64,"beat":2.5,"subject_pos":7,"motif":"subject_inv","motif_pos":7,"best_pos":7,"similarity":1.0},{"voice":1,"pitch":62,"start":138.2726,"duration":0.2727,"velocity":127,"measure":64,"beat":2.5,"subject_pos":-1,"motif":"","motif_pos":-1,"best_pos":5,"similarity":0.621},{"voice":1,"pitch":64,"start":138.5453,"duration":0.2727,"velocity":127,"measure":64,"beat":3.0,"subject_pos":-1,"motif":"","motif_pos":-1,"best_pos":1,"similarity":0.457},{"voice":1,"pitch":60,"start":138.818,"duration":0.2727,"velocity":127,"measure":64,"beat":3.5,"subject_pos":-1,"motif":"","motif_pos":-1,"best_pos":2,"similarity":0.586},{"voice":1,"pitch":58,"start":139.0908,"duration":1.6364,"velocity":127,"measure":64,"beat":4.0,"subject_pos":-1,"motif":"","motif_pos":-1,"best_pos":3,"similarity":0.614},{"voice":0,"pitch":64,"start":139.6362,"duration":0.2727,"velocity":127,"measure":65,"beat":1.0,"subject_pos":-1,"motif":"","motif_pos":-1,"best_pos":4,"similarity":0.893},{"voice":0,"pitch":65,"start":139.909,"duration":0.5455,"velocity":127,"measure":65,"beat":1.5,"subject_pos":-1,"motif":"","motif_pos":-1,"best_pos":5,"similarity":0.821},{"voice":0,"pitch":67,"start":140.4544,"duration":0.2727,"velocity":127,"measure":65,"beat":2.5,"subject_pos":-1,"motif":"","motif_pos":-1,"best_pos":6,"similarity":0.643},{"voice":0,"pitch":69,"start":140.7271,"duration":0.2727,"velocity":127,"measure":65,"beat":3.0,"subject_pos":-1,"motif":"","motif_pos":-1,"best_pos":6,"similarity":0.404},{"voice":1,"pitch":57,"start":140.7271,"duration":0.8182,"velocity":127,"measure":65,"beat":3.0,"subject_pos":0,"motif":"subject_inv","motif_pos":0,"best_pos":0,"similarity":1.0},{"voice":0,"pitch":67,"start":140.9999,"duration":0.2727,"velocity":127,"measure":65,"beat":3.5,"subject_pos":-1,"motif":"","motif_pos":-1,"best_pos":5,"similarity":0.471},{"voice":0,"pitch":69,"start":141.2726,"duration":0.2727,"velocity":127,"measure":65,"beat":4.0,"subject_pos":-1,"motif":"","motif_pos":-1,"best_pos":6,"similarity":0.593},{"voice":0,"pitch":70,"start":141.5453,"duration":0.2727,"velocity":127,"measure":65,"beat":4.5,"subject_pos":-1,"motif":"","motif_pos":-1,"best_pos":7,"similarity":0.436},{"voice":1,"pitch":50,"start":141.5453,"duration":1.6364,"velocity":127,"measure":65,"beat":4.5,"subject_pos":1,"motif":"subject_inv","motif_pos":1,"best_pos":1,"similarity":1.0},{"voice":0,"pitch":69,"start":141.818,"duration":0.2727,"velocity":127,"measure":66,"beat":1.0,"subject_pos":-1,"motif":"","motif_pos":-1,"best_pos":2,"similarity":0.407},{"voice":0,"pitch":67,"start":142.0908,"duration":0.2727,"velocity":127,"measure":66,"beat":1.5,"subject_pos":-1,"motif":"","motif_pos":-1,"best_pos":2,"similarity":0.45},{"voice":0,"pitch":65,"start":142.3635,"duration":0.2727,"velocity":127,"measure":66,"beat":2.0,"subject_pos":-1,"motif":"","motif_pos":-1,"best_pos":5,"similarity":0.418},{"voice":0,"pitch":67,"start":142.6362,"duration":0.2727,"velocity":127,"measure":66,"beat":2.5,"subject_pos":-1,"motif":"","motif_pos":-1,"best_pos":2,"similarity":0.421},{"voice":0,"pitch":64,"start":142.9089,"duration":0.2727,"velocity":127,"measure":66,"beat":3.0,"subject_pos":-1,"motif":"","motif_pos":-1,"best_pos":3,"similarity":0.514},{"voice":0,"pitch":62,"start":143.1817,"duration":0.2727,"velocity":127,"measure":66,"beat":3.5,"subject_pos":-1,"motif":"","motif_pos":-1,"best_pos":4,"similarity":0.507},{"voice":1,"pitch":53,"start":143.1817,"duration":1.6364,"velocity":127,"measure":66,"beat":3.5,"subject_pos":2,"motif":"subject_inv","motif_pos":2,"best_pos":2,"similarity":1.0},{"voice":0,"pitch":64,"start":143.4544,"duration":0.2727,"velocity":127,"measure":66,"beat":4.0,"subject_pos":-1,"motif":"","motif_pos":-1,"best_pos":5,"similarity":0.429},{"voice":0,"pitch":61,"start":143.7271,"duration":0.2727,"velocity":127,"measure":66,"beat":4.5,"subject_pos":-1,"motif":"","motif_pos":-1,"best_pos":4,"similarity":0.436},{"voice":0,"pitch":62,"start":143.9999,"duration":0.2727,"velocity":127,"measure":67,"beat":1.0,"subject_pos":-1,"motif":"","motif_pos":-1,"best_pos":5,"similarity":0.336},{"voice":0,"pitch":69,"start":144.2726,"duration":0.2727,"velocity":127,"measure":67,"beat":1.5,"subject_pos":-1,"motif":"","motif_pos":-1,"best_pos":0,"similarity":0.429},{"voice":0,"pitch":74,"start":144.5453,"duration":0.2727,"velocity":127,"measure":67,"beat":2.0,"subject_pos":-1,"motif":"","motif_pos":-1,"best_pos":1,"similarity":0.579},{"voice":0,"pitch":72,"start":144.818,"duration":0.2727,"velocity":127,"measure":67,"beat":2.5,"subject_pos":-1,"motif":"","motif_pos":-1,"best_pos":2,"similarity":0.461},{"voice":1,"pitch":57,"start":144.818,"duration":1.6364,"velocity":127,"measure":67,"beat":2.5,"subject_pos":3,"motif":"subject_inv","motif_pos":3,"best_pos":3,"similarity":1.0},{"voice":0,"pitch":74,"start":145.0908,"duration":0.2727,"velocity":127,"measure":67,"beat":3.0,"subject_pos":-1,"motif":"","motif_pos":-1,"best_pos":2,"similarity":0.386},{"voice":0,"pitch":70,"start":145.3635,"duration":0.2727,"velocity":127,"measure":67,"beat":3.5,"subject_pos":-1,"motif":"","motif_pos":-1,"best_pos":3,"similarity":0.586},{"voice":0,"pitch":69,"start":145.6362,"duration":0.2727,"velocity":127,"measure":67,"beat":4.0,"subject_pos":-1,"motif":"","motif_pos":-1,"best_pos":4,"similarity":0.657},{"voice":0,"pitch":70,"start":145.9089,"duration":0.2727,"velocity":127,"measure":67,"beat":4.5,"subject_pos":-1,"motif":"","motif_pos":-1,"best_pos":5,"similarity":0.479},{"voice":0,"pitch":67,"start":146.1817,"duration":0.2727,"velocity":127,"measure":68,"beat":1.0,"subject_pos":-1,"motif":"","motif_pos":-1,"best_pos":3,"similarity":0.514},{"voice":0,"pitch":65,"start":146.4544,"duration":0.2727,"velocity":127,"measure":68,"beat":1.5,"subject_pos":-1,"motif":"","motif_pos":-1,"best_pos":4,"similarity":0.507},{"voice":1,"pitch":58,"start":146.4544,"duration":1.6364,"velocity":127,"measure":68,"beat":1.5,"subject_pos":4,"motif":"subject_inv","motif_pos":4,"best_pos":4,"similarity":1.0},{"voice":0,"pitch":67,"start":146.7271,"duration":0.2727,"velocity":127,"measure":68,"beat":2.0,"subject_pos":-1,"motif":"","motif_pos":-1,"best_pos":5,"similarity":0.429},{"voice":0,"pitch":64,"start":146.9999,"duration":0.2727,"velocity":127,"measure":68,"beat":2.5,"subject_pos":-1,"motif":"","motif_pos":-1,"best_pos":4,"similarity":0.464},{"voice":0,"pitch":65,"start":147.2726,"duration":0.2727,"velocity":127,"measure":68,"beat":3.0,"subject_pos":-1,"motif":"","motif_pos":-1,"best_pos":4,"similarity":0.464},{"voice":0,"pitch":62,"start":147.5453,"duration":0.2727,"velocity":127,"measure":68,"beat":3.5,"subject_pos":-1,"motif":"","motif_pos":-1,"best_pos":5,"similarity":0.564},{"voice":0,"pitch":64,"start":147.818,"duration":0.2727,"velocity":127,"measure":68,"beat":4.0,"subject_pos":-1,"motif":"","motif_pos":-1,"best_pos":6,"similarity":0.604},{"voice":0,"pitch":65,"start":148.0908,"duration":0.2727,"velocity":127,"measure":68,"beat":4.5,"subject_pos":-1,"motif":"","motif_pos":-1,"best_pos":5,"similarity":0.457},{"voice":1,"pitch":57,"start":148.0908,"duration":1.6364,"velocity":127,"measure":68,"beat":4.5,"subject_pos":5,"motif":"subject_inv","motif_pos":5,"best_pos":5,"similarity":1.0},{"voice":0,"pitch":69,"start":148.3635,"duration":0.2727,"velocity":127,"measure":69,"beat":1.0,"subject_pos":-1,"motif":"","motif_pos":-1,"best_pos":1,"similarity":0.436},{"voice":0,"pitch":67,"start":148.6362,"duration":0.2727,"velocity":127,"measure":69,"beat":1.5,"subject_pos":-1,"motif":"","motif_pos":-1,"best_pos":4,"similarity":0.471},{"voice":0,"pitch":69,"start":148.9089,"duration":0.2727,"velocity":127,"measure":69,"beat":2.0,"subject_pos":-1,"motif":"","motif_pos":-1,"best_pos":5,"similarity":0.571},{"voice":0,"pitch":71,"start":149.1817,"duration":0.2727,"velocity":127,"measure":69,"beat":2.5,"subject_pos":-1,"motif":"","motif_pos":-1,"best_pos":5,"similarity":0.621},{"voice":0,"pitch":73,"start":149.4544,"duration":0.2727,"velocity":127,"measure":69,"beat":3.0,"subject_pos":-1,"motif":"","motif_pos":-1,"best_pos":6,"similarity":0.65},{"voice":0,"pitch":74,"start":149.7271,"duration":0.2727,"velocity":127,"measure":69,"beat":3.5,"subject_pos":-1,"motif":"","motif_pos":-1,"best_pos":5,"similarity":0.6},{"voice":1,"pitch":55,"start":149.7271,"duration":1.6364,"velocity":127,"measure":69,"beat":3.5,"subject_pos":6,"motif":"subject_inv","motif_pos":6,"best_pos":6,"similarity":1.0},{"voice":0,"pitch":76,"start":149.9999,"duration":0.2727,"velocity":127,"measure":69,"beat":4.0,"subject_pos":-1,"motif":"","motif_pos":-1,"best_pos":6,"similarity":0.464},{"voice":0,"pitch":73,"start":150.2726,"duration":0.2727,"velocity":127,"measure":69,"beat":4.5,"subject_pos":-1,"motif":"","motif_pos":-1,"best_pos":3,"similarity":0.379},{"voice":0,"pitch":74,"start":150.5453,"duration":0.2727,"velocity":127,"measure":70,"beat":1.0,"subject_pos":-1,"motif":"","motif_pos":-1,"best_pos":5,"similarity":0.321},{"voice":0,"pitch":62,"start":150.818,"duration":0.2727,"velocity":127,"measure":70,"beat":1.5,"subject_pos":-1,"motif":"","motif_pos":-1,"best_pos":2,"similarity":0.175},{"voice":0,"pitch":74,"start":151.0908,"duration":0.5455,"velocity":127,"measure":70,"beat":2.0,"subject_pos":-1,"motif":"","motif_pos":-1,"best_pos":3,"similarity":0.336},{"voice":1,"pitch":53,"start":151.3635,"duration":1.3636,"velocity":127,"measure":70,"beat":2.5,"subject_pos":7,"motif":"subject_inv","motif_pos":7,"best_pos":7,"similarity":1.0},{"voice":0,"pitch":73,"start":151.6362,"duration":0.2727,"velocity":127,"measure":70,"beat":3.0,"subject_pos":-1,"motif":"","motif_pos":-1,"best_pos":4,"similarity":0.407},{"voice":0,"pitch":76,"start":151.9089,"duration":0.2727,"velocity":127,"measure":70,"beat":3.5,"subject_pos":-1,"motif":"","motif_pos":-1,"best_pos":1,"similarity":0.375},{"voice":0,"pitch":74,"start":152.1817,"duration":0.2727,"velocity":127,"measure":70,"beat":4.0,"subject_pos":-1,"motif":"","motif_pos":-1,"best_pos":5,"similarity":0.489},{"voice":0,"pitch":76,"start":152.4544,"duration":0.2727,"velocity":127,"measure":70,"beat":4.5,"subject_pos":-1,"motif":"","motif_pos":-1,"best_pos":6,"similarity":0.593},{"voice":0,"pitch":77,"start":152.7271,"duration":0.2727,"velocity":127,"measure":71,"beat":1.0,"subject_pos":-1,"motif":"","motif_pos":-1,"best_pos":5,"similarity":0.507},{"voice":1,"pitch":52,"start":152.7271,"duration":0.2727,"velocity":127,"measure":71,"beat":1.0,"subject_pos":-1,"motif":"","motif_pos":-1,"best_pos":4,"similarity":0.893},{"voice":0,"pitch":76,"start":152.9998,"duration":0.2727,"velocity":127,"measure":71,"beat":1.5,"subject_pos":-1,"motif":"","motif_pos":-1,"best_pos":4,"similarity":0.6},{"voice":1,"pitch":53,"start":152.9998,"duration":0.5455,"velocity":127,"measure":71,"beat":1.5,"subject_pos":-1,"motif":"","motif_pos":-1,"best_pos":5,"similarity":0.821},{"voice":0,"pitch":77,"start":153.2726,"duration":0.2727,"velocity":127,"measure":71,"beat":2.0,"subject_pos":-1,"motif":"","motif_pos":-1,"best_pos":5,"similarity":0.45},{"voice":0,"pitch":74,"start":153.5453,"duration":0.2727,"velocity":127,"measure":71,"beat":2.5,"subject_pos":-1,"motif":"","motif_pos":-1,"best_pos":3,"similarity":0.461},{"voice":1,"pitch":55,"start":153.5453,"duration":0.2727,"velocity":127,"measure":71,"beat":2.5,"subject_pos":-1,"motif":"","motif_pos":-1,"best_pos":6,"similarity":0.643},{"voice":0,"pitch":72,"start":153.818,"duration":0.8182,"velocity":127,"measure":71,"beat":3.0,"subject_pos":-1,"motif":"","motif_pos":-1,"best_pos":4,"similarity":0.346},{"voice":1,"pitch":57,"start":153.818,"duration":0.2727,"velocity":127,"measure":71,"beat":3.0,"subject_pos":-1,"motif":"","motif_pos":-1,"best_pos":6,"similarity":0.404},{"voice":1,"pitch":55,"start":154.0908,"duration":0.2727,"velocity":127,"measure":71,"beat":3.5,"subject_pos":-1,"motif":"","motif_pos":-1,"best_pos":5,"similarity":0.471},{"voice":1,"pitch":57,"start":154.3635,"duration":0.2727,"velocity":127,"measure":71,"beat":4.0,"subject_pos":-1,"motif":"","motif_pos":-1,"best_pos":6,"similarity":0.593},{"voice":0,"pitch":65,"start":154.6362,"duration":1.6364,"velocity":127,"measure":71,"beat":4.5,"subject_pos":-1,"motif":"","motif_pos":-1,"best_pos":3,"similarity":0.279},{"voice":1,"pitch":58,"start":154.6362,"duration":0.2727,"velocity":127,"measure":71,"beat":4.5,"subject_pos":-1,"motif":"","motif_pos":-1,"best_pos":7,"similarity":0.436},{"voice":1,"pitch":57,"start":154.9089,"duration":0.2727,"velocity":127,"measure":72,"beat":1.0,"subject_pos":-1,"motif":"","motif_pos":-1,"best_pos":2,"similarity":0.407},{"voice":1,"pitch":55,"start":155.1817,"duration":0.2727,"velocity":127,"measure":72,"beat":1.5,"subject_pos":-1,"motif":"","motif_pos":-1,"best_pos":2,"similarity":0.45},{"voice":1,"pitch":53,"start":155.4544,"duration":0.2727,"velocity":127,"measure":72,"beat":2.0,"subject_pos":-1,"motif":"","motif_pos":-1,"best_pos":5,"similarity":0.418},{"voice":1,"pitch":55,"start":155.7271,"duration":0.2727,"velocity":127,"measure":72,"beat":2.5,"subject_pos":-1,"motif":"","motif_pos":-1,"best_pos":2,"similarity":0.421},{"voice":1,"pitch":52,"start":155.9998,"duration":0.2727,"velocity":127,"measure":72,"beat":3.0,"subject_pos":-1,"motif":"","motif_pos":-1,"best_pos":3,"similarity":0.514},{"voice":0,"pitch":69,"start":156.2726,"duration":1.6364,"velocity":127,"measure":72,"beat":3.5,"subject_pos":-1,"motif":"","motif_pos":-1,"best_pos":4,"similarity":0.307},{"voice":1,"pitch":50,"start":156.2726,"duration":0.2727,"velocity":127,"measure":72,"beat":3.5,"subject_pos":-1,"motif":"","motif_pos":-1,"best_pos":4,"similarity":0.507},{"voice":1,"pitch":52,"start":156.5453,"duration":0.2727,"velocity":127,"measure":72,"beat":4.0,"subject_pos":-1,"motif":"","motif_pos":-1,"best_pos":5,"similarity":0.429},{"voice":1,"pitch":49,"start":156.818,"duration":0.2727,"velocity":127,"measure":72,"beat":4.5,"subject_pos":-1,"motif":"","motif_pos":-1,"best_pos":4,"similarity":0.436},{"voice":1,"pitch":50,"start":157.0908,"duration":0.2727,"velocity":127,"measure":73,"beat":1.0,"subject_pos":-1,"motif":"","motif_pos":-1,"best_pos":5,"similarity":0.336},{"voice":1,"pitch":57,"start":157.3635,"duration":0.2727,"velocity":127,"measure":73,"beat":1.5,"subject_pos":-1,"motif":"","motif_pos":-1,"best_pos":0,"similarity":0.429},{"voice":1,"pitch":62,"start":157.6362,"duration":0.2727,"velocity":127,"measure":73,"beat":2.0,"subject_pos":-1,"motif":"","motif_pos":-1,"best_pos":1,"similarity":0.579},{"voice":0,"pitch":72,"start":157.9089,"duration":1.6364,"velocity":127,"measure":73,"beat":2.5,"subject_pos":-1,"motif":"","motif_pos":-1,"best_pos":5,"similarity":0.379},{"voice":1,"pitch":60,"start":157.9089,"duration":0.2727,"velocity":127,"measure":73,"beat":2.5,"subject_pos":-1,"motif":"","motif_pos":-1,"best_pos":2,"similarity":0.461},{"voice":1,"pitch":62,"start":158.1817,"duration":0.2727,"velocity":127,"measure":73,"beat":3.0,"subject_pos":-1,"motif":"","motif_pos":-1,"best_pos":2,"similarity":0.386},{"voice":1,"pitch":58,"start":158.4544,"duration":0.2727,"velocity":127,"measure":73,"beat":3.5,"subject_pos":-1,"motif":"","motif_pos":-1,"best_pos":3,"similarity":0.586},{"voice":1,"pitch":57,"start":158.7271,"duration":0.2727,"velocity":127,"measure":73,"beat":4.0,"subject_pos":-1,"motif":"","motif_pos":-1,"best_pos":4,"similarity":0.657},{"voice":1,"pitch":58,"start":158.9998,"duration":0.2727,"velocity":127,"measure":73,"beat":4.5,"subject_pos":-1,"motif":"","motif_pos":-1,"best_pos":5,"similarity":0.479},{"voice":1,"pitch":55,"start":159.2726,"duration":0.2727,"velocity":127,"measure":74,"beat":1.0,"subject_pos":-1,"motif":"","motif_pos":-1,"best_pos":3,"similarity":0.514},{"voice":0,"pitch":74,"start":159.5453,"duration":1.6364,"velocity":127,"measure":74,"beat":1.5,"subject_pos":-1,"motif":"","motif_pos":-1,"best_pos":1,"similarity":0.457},{"voice":1,"pitch":53,"start":159.5453,"duration":0.2727,"velocity":127,"measure":74,"beat":1.5,"subject_pos":-1,"motif":"","motif_pos":-1,"best_pos":4,"similarity":0.507},{"voice":1,"pitch":55,"start":159.818,"duration":0.2727,"velocity":127,"measure":74,"beat":2.0,"subject_pos":-1,"motif":"","motif_pos":-1,"best_pos":5,"similarity":0.429},{"voice":1,"pitch":52,"start":160.0907,"duration":0.2727,"velocity":127,"measure":74,"beat":2.5,"subject_pos":-1,"motif":"","motif_pos":-1,"best_pos":4,"similarity":0.464},{"voice":1,"pitch":53,"start":160.3635,"duration":0.2727,"velocity":127,"measure":74,"beat":3.0,"subject_pos":-1,"motif":"","motif_pos":-1,"best_pos":4,"similarity":0.464},{"voice":1,"pitch":50,"start":160.6362,"duration":0.2727,"velocity":127,"measure":74,"beat":3.5,"subject_pos":-1,"motif":"","motif_pos":-1,"best_pos":5,"similarity":0.564},{"voice":1,"pitch":52,"start":160.9089,"duration":0.2727,"velocity":127,"measure":74,"beat":4.0,"subject_pos":-1,"motif":"","motif_pos":-1,"best_pos":6,"similarity":0.604},{"voice":0,"pitch":72,"start":161.1817,"duration":1.6364,"velocity":127,"measure":74,"beat":4.5,"subject_pos":-1,"motif":"","motif_pos":-1,"best_pos":2,"similarity":0.593},{"voice":1,"pitch":53,"start":161.1817,"duration":0.2727,"velocity":127,"measure":74,"beat":4.5,"subject_pos":-1,"motif":"","motif_pos":-1,"best_pos":5,"similarity":0.457},{"voice":1,"pitch":57,"start":161.4544,"duration":0.2727,"velocity":127,"measure":75,"beat":1.0,"subject_pos":-1,"motif":"","motif_pos":-1,"best_pos":1,"similarity":0.446},{"voice":1,"pitch":55,"start":161.7271,"duration":0.2727,"velocity":127,"measure":75,"beat":1.5,"subject_pos":-1,"motif":"","motif_pos":-1,"best_pos":5,"similarity":0.464},{"voice":1,"pitch":57,"start":161.9998,"duration":0.2727,"velocity":127,"measure":75,"beat":2.0,"subject_pos":-1,"motif":"","motif_pos":-1,"best_pos":6,"similarity":0.586},{"voice":1,"pitch":58,"start":162.2726,"duration":0.2727,"velocity":127,"measure":75,"beat":2.5,"subject_pos":-1,"motif":"","motif_pos":-1,"best_pos":5,"similarity":0.693},{"voice":1,"pitch":60,"start":162.5453,"duration":0.2727,"velocity":127,"measure":75,"beat":3.0,"subject_pos":-1,"motif":"","motif_pos":-1,"best_pos":6,"similarity":0.579},{"voice":0,"pitch":70,"start":162.818,"duration":1.6364,"velocity":127,"measure":75,"beat":3.5,"subject_pos":-1,"motif":"","motif_pos":-1,"best_pos":3,"similarity":0.664},{"voice":1,"pitch":62,"start":162.818,"duration":0.2727,"velocity":127,"measure":75,"beat":3.5,"subject_pos":-1,"motif":"","motif_pos":-1,"best_pos":6,"similarity":0.518},{"voice":1,"pitch":64,"start":163.0907,"duration":0.2727,"velocity":127,"measure":75,"beat":4.0,"subject_pos":-1,"motif":"","motif_pos":-1,"best_pos":6,"similarity":0.393},{"voice":1,"pitch":61,"start":163.3635,"duration":0.2727,"velocity":127,"measure":75,"beat":4.5,"subject_pos":-1,"motif":"","motif_pos":-1,"best_pos":3,"similarity":0.379},{"voice":1,"pitch":62,"start":163.6362,"duration":0.2727,"velocity":127,"measure":76,"beat":1.0,"subject_pos":-1,"motif":"","motif_pos":-1,"best_pos":5,"similarity":0.321},{"voice":1,"pitch":50,"start":163.9089,"duration":0.2727,"velocity":127,"measure":76,"beat":1.5,"subject_pos":-1,"motif":"","motif_pos":-1,"best_pos":2,"similarity":0.175},{"voice":1,"pitch":62,"start":164.1817,"duration":0.5455,"velocity":127,"measure":76,"beat":2.0,"subject_pos":-1,"motif":"","motif_pos":-1,"best_pos":3,"similarity":0.336},{"voice":0,"pitch":69,"start":164.4544,"duration":1.3636,"velocity":127,"measure":76,"beat":2.5,"subject_pos":-1,"motif":"","motif_pos":-1,"best_pos":4,"similarity":0.636},{"voice":1,"pitch":61,"start":164.7271,"duration":0.2727,"velocity":127,"measure":76,"beat":3.0,"subject_pos":-1,"motif":"","motif_pos":-1,"best_pos":4,"similarity":0.407},{"voice":1,"pitch":64,"start":164.9998,"duration":0.2727,"velocity":127,"measure":76,"beat":3.5,"subject_pos":-1,"motif":"","motif_pos":-1,"best_pos":1,"similarity":0.375},{"voice":1,"pitch":62,"start":165.2726,"duration":0.2727,"velocity":127,"measure":76,"beat":4.0,"subject_pos":-1,"motif":"","motif_pos":-1,"best_pos":5,"similarity":0.489},{"voice":1,"pitch":64,"start":165.5453,"duration":0.2727,"velocity":127,"measure":76,"beat":4.5,"subject_pos":-1,"motif":"","motif_pos":-1,"best_pos":6,"similarity":0.593},{"voice":0,"pitch":67,"start":165.818,"duration":0.2727,"velocity":127,"measure":77,"beat":1.0,"subject_pos":-1,"motif":"","motif_pos":-1,"best_pos":4,"similarity":0.607},{"voice":1,"pitch":65,"start":165.818,"duration":0.2727,"velocity":127,"measure":77,"beat":1.0,"subject_pos":-1,"motif":"","motif_pos":-1,"best_pos":5,"similarity":0.507},{"voice":0,"pitch":69,"start":166.0907,"duration":0.5455,"velocity":127,"measure":77,"beat":1.5,"subject_pos":-1,"motif":"","motif_pos":-1,"best_pos":5,"similarity":0.661},{"voice":1,"pitch":64,"start":166.0907,"duration":0.2727,"velocity":127,"measure":77,"beat":1.5,"subject_pos":-1,"motif":"","motif_pos":-1,"best_pos":4,"similarity":0.6},{"voice":1,"pitch":65,"start":166.3635,"duration":0.2727,"velocity":127,"measure":77,"beat":2.0,"subject_pos":-1,"motif":"","motif_pos":-1,"best_pos":5,"similarity":0.45},{"voice":0,"pitch":71,"start":166.6362,"duration":0.2727,"velocity":127,"measure":77,"beat":2.5,"subject_pos":-1,"motif":"","motif_pos":-1,"best_pos":6,"similarity":0.679},{"voice":1,"pitch":62,"start":166.6362,"duration":0.2727,"velocity":127,"measure":77,"beat":2.5,"subject_pos":-1,"motif":"","motif_pos":-1,"best_pos":3,"similarity":0.461},{"voice":0,"pitch":72,"start":166.9089,"duration":0.2727,"velocity":127,"measure":77,"beat":3.0,"subject_pos":-1,"motif":"","motif_pos":-1,"best_pos":3,"similarity":0.55},{"voice":1,"pitch":60,"start":166.9089,"duration":0.8182,"velocity":127,"measure":77,"beat":3.0,"subject_pos":-1,"motif":"","motif_pos":-1,"best_pos":4,"similarity":0.346},{"voice":0,"pitch":71,"start":167.1817,"duration":0.2727,"velocity":127,"measure":77,"beat":3.5,"subject_pos":-1,"motif":"","motif_pos":-1,"best_pos":4,"similarity":0.771},{"voice":0,"pitch":72,"start":167.4544,"duration":0.5455,"velocity":127,"measure":77,"beat":4.0,"subject_pos":-1,"motif":"","motif_pos":-1,"best_pos":5,"similarity":0.793},{"voice":1,"pitch":53,"start":167.7271,"duration":1.6364,"velocity":127,"measure":77,"beat":4.5,"subject_pos":-1,"motif":"","motif_pos":-1,"best_pos":3,"similarity":0.279},{"voice":0,"pitch":74,"start":167.9998,"duration":0.2727,"velocity":127,"measure":78,"beat":1.0,"subject_pos":-1,"motif":"","motif_pos":-1,"best_pos":6,"similarity":0.643},{"voice":0,"pitch":76,"start":168.2726,"duration":0.2727,"velocity":127,"measure":78,"beat":1.5,"subject_pos":-1,"motif":"","motif_pos":-1,"best_pos":6,"similarity":0.404},{"voice":0,"pitch":74,"start":168.5453,"duration":0.2727,"velocity":127,"measure":78,"beat":2.0,"subject_pos":-1,"motif":"","motif_pos":-1,"best_pos":5,"similarity":0.471},{"voice":0,"pitch":76,"start":168.818,"duration":0.2727,"velocity":127,"measure":78,"beat":2.5,"subject_pos":-1,"motif":"","motif_pos":-1,"best_pos":6,"similarity":0.593},{"voice":0,"pitch":77,"start":169.0907,"duration":0.2727,"velocity":127,"measure":78,"beat":3.0,"subject_pos":-1,"motif":"","motif_pos":-1,"best_pos":3,"similarity":0.543},{"voice":0,"pitch":76,"start":169.3635,"duration":0.2727,"velocity":127,"measure":78,"beat":3.5,"subject_pos":-1,"motif":"","motif_pos":-1,"best_pos":4,"similarity":0.743},{"voice":1,"pitch":57,"start":169.3635,"duration":1.6364,"velocity":127,"measure":78,"beat":3.5,"subject_pos":-1,"motif":"","motif_pos":-1,"best_pos":4,"similarity":0.307},{"voice":0,"pitch":77,"start":169.6362,"duration":0.2727,"velocity":127,"measure":78,"beat":4.0,"subject_pos":-1,"motif":"","motif_pos":-1,"best_pos":5,"similarity":0.736},{"voice":0,"pitch":79,"start":169.9089,"duration":0.2727,"velocity":127,"measure":78,"beat":4.5,"subject_pos":-1,"motif":"","motif_pos":-1,"best_pos":6,"similarity":0.529},{"voice":0,"pitch":77,"start":170.1816,"duration":0.2727,"velocity":127,"measure":79,"beat":1.0,"subject_pos":-1,"motif":"","motif_pos":-1,"best_pos":4,"similarity":0.443},{"voice":0,"pitch":79,"start":170.4544,"duration":0.2727,"velocity":127,"measure":79,"beat":1.5,"subject_pos":-1,"motif":"","motif_pos":-1,"best_pos":5,"similarity":0.514},{"voice":0,"pitch":81,"start":170.7271,"duration":0.2727,"velocity":127,"measure":79,"beat":2.0,"subject_pos":-1,"motif":"","motif_pos":-1,"best_pos":6,"similarity":0.421},{"voice":0,"pitch":79,"start":170.9998,"duration":0.2727,"velocity":127,"measure":79,"beat":2.5,"subject_pos":-1,"motif":"","motif_pos":-1,"best_pos":5,"similarity":0.471},{"voice":1,"pitch":60,"start":170.9998,"duration":1.6364,"velocity":127,"measure":79,"beat":2.5,"subject_pos":-1,"motif":"","motif_pos":-1,"best_pos":5,"similarity":0.379},{"voice":0,"pitch":81,"start":171.2726,"duration":0.2727,"velocity":127,"measure":79,"beat":3.0,"subject_pos":-1,"motif":"","motif_pos":-1,"best_pos":6,"similarity":0.593},{"voice":0,"pitch":82,"start":171.5453,"duration":0.2727,"velocity":127,"measure":79,"beat":3.5,"subject_pos":-1,"motif":"","motif_pos":-1,"best_pos":7,"similarity":0.436},{"voice":0,"pitch":81,"start":171.818,"duration":0.2727,"velocity":127,"measure":79,"beat":4.0,"subject_pos":-1,"motif":"","motif_pos":-1,"best_pos":4,"similarity":0.479},{"voice":0,"pitch":79,"start":172.0907,"duration":0.2727,"velocity":127,"measure":79,"beat":4.5,"subject_pos":-1,"motif":"","motif_pos":-1,"best_pos":5,"similarity":0.464},{"voice":0,"pitch":81,"start":172.3635,"duration":0.5455,"velocity":127,"measure":80,"beat":1.0,"subject_pos":-1,"motif":"","motif_pos":-1,"best_pos":1,"similarity":0.464},{"voice":1,"pitch":62,"start":172.6362,"duration":1.6364,"velocity":127,"measure":80,"beat":1.5,"subject_pos":-1,"motif":"","motif_pos":-1,"best_pos":1,"similarity":0.457},{"voice":0,"pitch":77,"start":172.9089,"duration":0.2727,"velocity":127,"measure":80,"beat":2.0,"subject_pos":-1,"motif":"","motif_pos":-1,"best_pos":2,"similarity":0.618},{"voice":0,"pitch":74,"start":173.1816,"duration":0.2727,"velocity":127,"measure":80,"beat":2.5,"subject_pos":-1,"motif":"","motif_pos":-1,"best_pos":3,"similarity":0.536},{"voice":0,"pitch":70,"start":173.4544,"duration":0.2727,"velocity":127,"measure":80,"beat":3.0,"subject_pos":-1,"motif":"","motif_pos":-1,"best_pos":3,"similarity":0.643},{"voice":0,"pitch":69,"start":173.7271,"duration":0.2727,"velocity":127,"measure":80,"beat":3.5,"subject_pos":-1,"motif":"","motif_pos":-1,"best_pos":4,"similarity":0.679},{"voice":0,"pitch":70,"start":173.9998,"duration":0.5455,"velocity":127,"measure":80,"beat":4.0,"subject_pos":-1,"motif":"","motif_pos":-1,"best_pos":5,"similarity":0.464},{"voice":1,"pitch":60,"start":174.2726,"duration":1.6364,"velocity":127,"measure":80,"beat":4.5,"subject_pos":-1,"motif":"","motif_pos":-1,"best_pos":2,"similarity":0.593},{"voice":0,"pitch":79,"start":174.5453,"duration":0.2727,"velocity":127,"measure":81,"beat":1.0,"subject_pos":-1,"motif":"","motif_pos":-1,"best_pos":6,"similarity":0.214},{"voice":0,"pitch":70,"start":174.818,"duration":0.2727,"velocity":127,"measure":81,"beat":1.5,"subject_pos":-1,"motif":"","motif_pos":-1,"best_pos":3,"similarity":0.379},{"voice":0,"pitch":69,"start":175.0907,"duration":0.2727,"velocity":127,"measure":81,"beat":2.0,"subject_pos":-1,"motif":"","motif_pos":-1,"best_pos":4,"similarity":0.457},{"voice":0,"pitch":67,"start":175.3635,"duration":0.2727,"velocity":127,"measure":81,"beat":2.5,"subject_pos":-1,"motif":"","motif_pos":-1,"best_pos":5,"similarity":0.457},{"voice":0,"pitch":69,"start":175.6362,"duration":0.5455,"velocity":127,"measure":81,"beat":3.0,"subject_pos":-1,"motif":"","motif_pos":-1,"best_pos":6,"similarity":0.371},{"voice":1,"pitch":58,"start":175.9089,"duration":1.6364,"velocity":127,"measure":81,"beat":3.5,"subject_pos":-1,"motif":"","motif_pos":-1,"best_pos":3,"similarity":0.664},{"voice":0,"pitch":77,"start":176.1816,"duration":0.2727,"velocity":127,"measure":81,"beat":4.0,"subject_pos":-1,"motif":"","motif_pos":-1,"best_pos":1,"similarity":0.279},{"voice":0,"pitch":69,"start":176.4544,"duration":0.2727,"velocity":127,"measure":81,"beat":4.5,"subject_pos":-1,"motif":"","motif_pos":-1,"best_pos":1,"similarity":0.364},{"voice":0,"pitch":67,"start":176.7271,"duration":0.2727,"velocity":127,"measure":82,"beat":1.0,"subject_pos":-1,"motif":"","motif_pos":-1,"best_pos":2,"similarity":0.443},{"voice":0,"pitch":65,"start":176.9998,"duration":0.2727,"velocity":127,"measure":82,"beat":1.5,"subject_pos":-1,"motif":"","motif_pos":-1,"best_pos":5,"similarity":0.386},{"voice":0,"pitch":67,"start":177.2725,"duration":0.5455,"velocity":127,"measure":82,"beat":2.0,"subject_pos":-1,"motif":"","motif_pos":-1,"best_pos":6,"similarity":0.336},{"voice":1,"pitch":57,"start":177.5453,"duration":1.3636,"velocity":127,"measure":82,"beat":2.5,"subject_pos":-1,"motif":"","motif_pos":-1,"best_pos":4,"similarity":0.636},{"voice":0,"pitch":76,"start":177.818,"duration":0.2727,"velocity":127,"measure":82,"beat":3.0,"subject_pos":-1,"motif":"","motif_pos":-1,"best_pos":1,"similarity":0.214},{"voice":0,"pitch":67,"start":178.0907,"duration":0.2727,"velocity":127,"measure":82,"beat":3.5,"subject_pos":-1,"motif":"","motif_pos":-1,"best_pos":2,"similarity":0.393},{"voice":0,"pitch":65,"start":178.3635,"duration":0.2727,"velocity":127,"measure":82,"beat":4.0,"subject_pos":-1,"motif":"","motif_pos":-1,"best_pos":3,"similarity":0.596},{"voice":0,"pitch":64,"start":178.6362,"duration":0.2727,"velocity":127,"measure":82,"beat":4.5,"subject_pos":-1,"motif":"","motif_pos":-1,"best_pos":4,"similarity":0.664},{"voice":0,"pitch":65,"start":178.9089,"duration":0.5455,"velocity":127,"measure":83,"beat":1.0,"subject_pos":-1,"motif":"","motif_pos":-1,"best_pos":5,"similarity":0.507},{"voice":1,"pitch":55,"start":178.9089,"duration":0.2727,"velocity":127,"measure":83,"beat":1.0,"subject_pos":-1,"motif":"","motif_pos":-1,"best_pos":4,"similarity":0.607},{"voice":1,"pitch":57,"start":179.1816,"duration":0.5455,"velocity":127,"measure":83,"beat":1.5,"subject_pos":-1,"motif":"","motif_pos":-1,"best_pos":5,"similarity":0.661},{"voice":0,"pitch":64,"start":179.4544,"duration":0.2727,"velocity":127,"measure":83,"beat":2.0,"subject_pos":-1,"motif":"","motif_pos":-1,"best_pos":4,"similarity":0.386},{"voice":0,"pitch":62,"start":179.7271,"duration":0.2727,"velocity":127,"measure":83,"beat":2.5,"subject_pos":-1,"motif":"","motif_pos":-1,"best_pos":0,"similarity":0.393},{"voice":1,"pitch":59,"start":179.7271,"duration":0.2727,"velocity":127,"measure":83,"beat":2.5,"subject_pos":-1,"motif":"","motif_pos":-1,"best_pos":6,"similarity":0.679},{"voice":0,"pitch":67,"start":179.9998,"duration":0.5455,"velocity":127,"measure":83,"beat":3.0,"subject_pos":-1,"motif":"","motif_pos":-1,"best_pos":1,"similarity":0.5},{"voice":1,"pitch":60,"start":179.9998,"duration":0.2727,"velocity":127,"measure":83,"beat":3.0,"subject_pos":-1,"motif":"","motif_pos":-1,"best_pos":3,"similarity":0.55},{"voice":1,"pitch":59,"start":180.2725,"duration":0.2727,"velocity":127,"measure":83,"beat":3.5,"subject_pos":-1,"motif":"","motif_pos":-1,"best_pos":4,"similarity":0.771},{"voice":0,"pitch":64,"start":180.5453,"duration":0.2727,"velocity":127,"measure":83,"beat":4.0,"subject_pos":-1,"motif":"","motif_pos":-1,"best_pos":2,"similarity":0.436},{"voice":1,"pitch":60,"start":180.5453,"duration":0.5455,"velocity":127,"measure":83,"beat":4.0,"subject_pos":-1,"motif":"","motif_pos":-1,"best_pos":5,"similarity":0.793},{"voice":0,"pitch":60,"start":180.818,"duration":0.8182,"velocity":127,"measure":83,"beat":4.5,"subject_pos":-1,"motif":"","motif_pos":-1,"best_pos":2,"similarity":0.375},{"voice":1,"pitch":62,"start":181.0907,"duration":0.2727,"velocity":127,"measure":84,"beat":1.0,"subject_pos":-1,"motif":"","motif_pos":-1,"best_pos":6,"similarity":0.643},{"voice":1,"pitch":64,"start":181.3635,"duration":0.2727,"velocity":127,"measure":84,"beat":1.5,"subject_pos":-1,"motif":"","motif_pos":-1,"best_pos":6,"similarity":0.404},{"voice":1,"pitch":62,"start":181.6362,"duration":0.2727,"velocity":127,"measure":84,"beat":2.0,"subject_pos":-1,"motif":"","motif_pos":-1,"best_pos":5,"similarity":0.471},{"voice":1,"pitch":64,"start":181.9089,"duration":0.2727,"velocity":127,"measure":84,"beat":2.5,"subject_pos":-1,"motif":"","motif_pos":-1,"best_pos":6,"similarity":0.593},{"voice":1,"pitch":65,"start":182.1816,"duration":0.2727,"velocity":127,"measure":84,"beat":3.0,"subject_pos":-1,"motif":"","motif_pos":-1,"best_pos":3,"similarity":0.543},{"voice":0,"pitch":72,"start":182.4544,"duration":1.0909,"velocity":127,"measure":84,"beat":3.5,"subject_pos":-1,"motif":"","motif_pos":-1,"best_pos":1,"similarity":0.357},{"voice":1,"pitch":64,"start":182.4544,"duration":0.2727,"velocity":127,"measure":84,"beat":3.5,"subject_pos":-1,"motif":"","motif_pos":-1,"best_pos":4,"similarity":0.743},{"voice":1,"pitch":65,"start":182.7271,"duration":0.2727,"velocity":127,"measure":84,"beat":4.0,"subject_pos":-1,"motif":"","motif_pos":-1,"best_pos":5,"similarity":0.736},{"voice":1,"pitch":67,"start":182.9998,"duration":0.2727,"velocity":127,"measure":84,"beat":4.5,"subject_pos":-1,"motif":"","motif_pos":-1,"best_pos":6,"similarity":0.529},{"voice":1,"pitch":65,"start":183.2725,"duration":0.2727,"velocity":127,"measure":85,"beat":1.0,"subject_pos":-1,"motif":"","motif_pos":-1,"best_pos":4,"similarity":0.443},{"voice":0,"pitch":70,"start":183.5453,"duration":0.1364,"velocity":127,"measure":85,"beat":1.5,"subject_pos":-1,"motif":"","motif_pos":-1,"best_pos":3,"similarity":0.45},{"voice":1,"pitch":67,"start":183.5453,"duration":0.2727,"velocity":127,"measure":85,"beat":1.5,"subject_pos":-1,"motif":"","motif_pos":-1,"best_pos":5,"similarity":0.514},{"voice":0,"pitch":69,"start":183.6816,"duration":0.1364,"velocity":127,"measure":85,"beat":1.75,"subject_pos":-1,"motif":"","motif_pos":-1,"best_pos":4,"similarity":0.4},{"voice":0,"pitch":67,"start":183.818,"duration":0.1364,"velocity":127,"measure":85,"beat":2.0,"subject_pos":-1,"motif":"","motif_pos":-1,"best_pos":2,"similarity":0.429},{"voice":1,"pitch":69,"start":183.818,"duration":0.2727,"velocity":127,"measure":85,"beat":2.0,"subject_pos":-1,"motif":"","motif_pos":-1,"best_pos":6,"similarity":0.421},{"voice":0,"pitch":65,"start":183.9544,"duration":0.1364,"velocity":127,"measure":85,"beat":2.25,"subject_pos":-1,"motif":"","motif_pos":-1,"best_pos":2,"similarity":0.307},{"voice":0,"pitch":76,"start":184.0907,"duration":1.3636,"velocity":127,"measure":85,"beat":2.5,"subject_pos":-1,"motif":"","motif_pos":-1,"best_pos":1,"similarity":0.386},{"voice":1,"pitch":67,"start":184.0907,"duration":0.2727,"velocity":127,"measure":85,"beat":2.5,"subject_pos":-1,"motif":"","motif_pos":-1,"best_pos":5,"similarity":0.471},{"voice":1,"pitch":69,"start":184.3635,"duration":0.2727,"velocity":127,"measure":85,"beat":3.0,"subject_pos":-1,"motif":"","motif_pos":-1,"best_pos":6,"similarity":0.593},{"voice":1,"pitch":70,"start":184.6362,"duration":0.2727,"velocity":127,"measure":85,"beat":3.5,"subject_pos":-1,"motif":"","motif_pos":-1,"best_pos":7,"similarity":0.436},{"voice":1,"pitch":69,"start":184.9089,"duration":0.2727,"velocity":127,"measure":85,"beat":4.0,"subject_pos":-1,"motif":"","motif_pos":-1,"best_pos":4,"similarity":0.479},{"voice":1,"pitch":67,"start":185.1816,"duration":0.2727,"velocity":127,"measure":85,"beat":4.5,"subject_pos":-1,"motif":"","motif_pos":-1,"best_pos":5,"similarity":0.464},{"voice":0,"pitch":72,"start":185.4544,"duration":0.2727,"velocity":127,"measure":86,"beat":1.0,"subject_pos":-1,"motif":"","motif_pos":-1,"best_pos":2,"similarity":0.461},{"voice":1,"pitch":69,"start":185.4544,"duration":0.5455,"velocity":127,"measure":86,"beat":1.0,"subject_pos":-1,"motif":"","motif_pos":-1,"best_pos":1,"similarity":0.464},{"voice":0,"pitch":77,"start":185.7271,"duration":1.6364,"velocity":127,"measure":86,"beat":1.5,"subject_pos":-1,"motif":"","motif_pos":-1,"best_pos":1,"similarity":0.536},{"voice":1,"pitch":65,"start":185.9998,"duration":0.2727,"velocity":127,"measure":86,"beat":2.0,"subject_pos":-1,"motif":"","motif_pos":-1,"best_pos":2,"similarity":0.618},{"voice":1,"pitch":62,"start":186.2725,"duration":0.2727,"velocity":127,"measure":86,"beat":2.5,"subject_pos":-1,"motif":"","motif_pos":-1,"best_pos":3,"similarity":0.536},{"voice":1,"pitch":58,"start":186.5453,"duration":0.2727,"velocity":127,"measure":86,"beat":3.0,"subject_pos":-1,"motif":"","motif_pos":-1,"best_pos":3,"similarity":0.643},{"voice":1,"pitch":57,"start":186.818,"duration":0.2727,"velocity":127,"measure":86,"beat":3.5,"subject_pos":-1,"motif":"","motif_pos":-1,"best_pos":4,"similarity":0.679},{"voice":1,"pitch":58,"start":187.0907,"duration":0.5455,"velocity":127,"measure":86,"beat":4.0,"subject_pos":-1,"motif":"","motif_pos":-1,"best_pos":5,"similarity":0.464},{"voice":0,"pitch":76,"start":187.3634,"duration":0.8182,"velocity":127,"measure":86,"beat":4.5,"subject_pos":-1,"motif":"","motif_pos":-1,"best_pos":2,"similarity":0.518},{"voice":1,"pitch":67,"start":187.6362,"duration":0.2727,"velocity":127,"measure":87,"beat":1.0,"subject_pos":-1,"motif":"","motif_pos":-1,"best_pos":6,"similarity":0.214},{"voice":1,"pitch":58,"start":187.9089,"duration":0.2727,"velocity":127,"measure":87,"beat":1.5,"subject_pos":-1,"motif":"","motif_pos":-1,"best_pos":3,"similarity":0.379},{"voice":0,"pitch":75,"start":188.1816,"duration":0.8182,"velocity":127,"measure":87,"beat":2.0,"subject_pos":-1,"motif":"","motif_pos":-1,"best_pos":3,"similarity":0.543},{"voice":1,"pitch":57,"start":188.1816,"duration":0.2727,"velocity":127,"measure":87,"beat":2.0,"subject_pos":-1,"motif":"","motif_pos":-1,"best_pos":4,"similarity":0.457},{"voice":1,"pitch":55,"start":188.4544,"duration":0.2727,"velocity":127,"measure":87,"beat":2.5,"subject_pos":-1,"motif":"","motif_pos":-1,"best_pos":5,"similarity":0.457},{"voice":1,"pitch":57,"start":188.7271,"duration":0.5455,"velocity":127,"measure":87,"beat":3.0,"subject_pos":-1,"motif":"","motif_pos":-1,"best_pos":6,"similarity":0.371},{"voice":0,"pitch":74,"start":188.9998,"duration":0.8182,"velocity":127,"measure":87,"beat":3.5,"subject_pos":-1,"motif":"","motif_pos":-1,"best_pos":3,"similarity":0.471},{"voice":1,"pitch":65,"start":189.2725,"duration":0.2727,"velocity":127,"measure":87,"beat":4.0,"subject_pos":-1,"motif":"","motif_pos":-1,"best_pos":1,"similarity":0.279},{"voice":1,"pitch":57,"start":189.5453,"duration":0.2727,"velocity":127,"measure":87,"beat":4.5,"subject_pos":-1,"motif":"","motif_pos":-1,"best_pos":1,"similarity":0.364},{"voice":0,"pitch":73,"start":189.818,"duration":0.8182,"velocity":127,"measure":88,"beat":1.0,"subject_pos":-1,"motif":"","motif_pos":-1,"best_pos":3,"similarity":0.443},{"voice":1,"pitch":55,"start":189.818,"duration":0.2727,"velocity":127,"measure":88,"beat":1.0,"subject_pos":-1,"motif":"","motif_pos":-1,"best_pos":2,"similarity":0.443},{"voice":1,"pitch":53,"start":190.0907,"duration":0.2727,"velocity":127,"measure":88,"beat":1.5,"subject_pos":-1,"motif":"","motif_pos":-1,"best_pos":5,"similarity":0.386},{"voice":1,"pitch":55,"start":190.3634,"duration":0.5455,"velocity":127,"measure":88,"beat":2.0,"subject_pos":-1,"motif":"","motif_pos":-1,"best_pos":6,"similarity":0.336},{"voice":0,"pitch":72,"start":190.6362,"duration":1.3636,"velocity":127,"measure":88,"beat":2.5,"subject_pos":-1,"motif":"","motif_pos":-1,"best_pos":4,"similarity":0.457},{"voice":1,"pitch":64,"start":190.9089,"duration":0.2727,"velocity":127,"measure":88,"beat":3.0,"subject_pos":-1,"motif":"","motif_pos":-1,"best_pos":1,"similarity":0.214},{"voice":1,"pitch":55,"start":191.1816,"duration":0.2727,"velocity":127,"measure":88,"beat":3.5,"subject_pos":-1,"motif":"","motif_pos":-1,"best_pos":2,"similarity":0.393},{"voice":1,"pitch":53,"start":191.4544,"duration":0.2727,"velocity":127,"measure":88,"beat":4.0,"subject_pos":-1,"motif":"","motif_pos":-1,"best_pos":3,"similarity":0.596},{"voice":1,"pitch":52,"start":191.7271,"duration":0.2727,"velocity":127,"measure":88,"beat":4.5,"subject_pos":-1,"motif":"","motif_pos":-1,"best_pos":4,"similarity":0.664},{"voice":0,"pitch":77,"start":191.9998,"duration":0.2727,"velocity":127,"measure":89,"beat":1.0,"subject_pos":-1,"motif":"","motif_pos":-1,"best_pos":1,"similarity":0.379},{"voice":1,"pitch":53,"start":191.9998,"duration":0.5455,"velocity":127,"measure":89,"beat":1.0,"subject_pos":-1,"motif":"","motif_pos":-1,"best_pos":5,"similarity":0.507},{"voice":0,"pitch":71,"start":192.2725,"duration":0.2727,"velocity":127,"measure":89,"beat":1.5,"subject_pos":-1,"motif":"","motif_pos":-1,"best_pos":4,"similarity":0.471},{"voice":0,"pitch":72,"start":192.5453,"duration":0.2727,"velocity":127,"measure":89,"beat":2.0,"subject_pos":-1,"motif":"","motif_pos":-1,"best_pos":5,"similarity":0.586},{"voice":1,"pitch":52,"start":192.5453,"duration":0.2727,"velocity":127,"measure":89,"beat":2.0,"subject_pos":-1,"motif":"","motif_pos":-1,"best_pos":4,"similarity":0.386},{"voice":0,"pitch":74,"start":192.818,"duration":0.5455,"velocity":127,"measure":89,"beat":2.5,"subject_pos":-1,"motif":"","motif_pos":-1,"best_pos":6,"similarity":0.457},{"voice":1,"pitch":50,"start":192.818,"duration":0.2727,"velocity":127,"measure":89,"beat":2.5,"subject_pos":-1,"motif":"","motif_pos":-1,"best_pos":0,"similarity":0.393},{"voice":1,"pitch":55,"start":193.0907,"duration":0.5455,"velocity":127,"measure":89,"beat":3.0,"subject_pos":-1,"motif":"","motif_pos":-1,"best_pos":1,"similarity":0.5},{"voice":0,"pitch":72,"start":193.3634,"duration":0.1364,"velocity":127,"measure":89,"beat":3.5,"subject_pos":-1,"motif":"","motif_pos":-1,"best_pos":3,"similarity":0.593},{"voice":0,"pitch":71,"start":193.4998,"duration":0.1364,"velocity":127,"measure":89,"beat":3.75,"subject_pos":-1,"motif":"","motif_pos":-1,"best_pos":4,"similarity":0.668},{"voice":0,"pitch":72,"start":193.6362,"duration":0.2727,"velocity":127,"measure":89,"beat":4.0,"subject_pos":-1,"motif":"","motif_pos":-1,"best_pos":5,"similarity":0.5},{"voice":1,"pitch":52,"start":193.6362,"duration":0.2727,"velocity":127,"measure":89,"beat":4.0,"subject_pos":-1,"motif":"","motif_pos":-1,"best_pos":2,"similarity":0.436},{"voice":1,"pitch":48,"start":193.9089,"duration":0.8182,"velocity":127,"measure":89,"beat":4.5,"subject_pos":-1,"motif":"","motif_pos":-1,"best_pos":2,"similarity":0.375},{"voice":0,"pitch":82,"start":194.1816,"duration":0.1364,"velocity":127,"measure":90,"beat":1.0,"subject_pos":-1,"motif":"","motif_pos":-1,"best_pos":3,"similarity":0.321},{"voice":0,"pitch":81,"start":194.318,"duration":0.1364,"velocity":127,"measure":90,"beat":1.25,"subject_pos":-1,"motif":"","motif_pos":-1,"best_pos":1,"similarity":0.429},{"voice":0,"pitch":79,"start":194.4544,"duration":0.1364,"velocity":127,"measure":90,"beat":1.5,"subject_pos":-1,"motif":"","motif_pos":-1,"best_pos":2,"similarity":0.643},{"voice":0,"pitch":77,"start":194.5907,"duration":0.1364,"velocity":127,"measure":90,"beat":1.75,"subject_pos":-1,"motif":"","motif_pos":-1,"best_pos":3,"similarity":0.786},{"voice":0,"pitch":76,"start":194.7271,"duration":0.1364,"velocity":127,"measure":90,"beat":2.0,"subject_pos":-1,"motif":"","motif_pos":-1,"best_pos":4,"similarity":0.864},{"voice":0,"pitch":77,"start":194.8634,"duration":0.1364,"velocity":127,"measure":90,"beat":2.25,"subject_pos":-1,"motif":"","motif_pos":-1,"best_pos":5,"similarity":0.764},{"voice":0,"pitch":79,"start":194.9998,"duration":0.1364,"velocity":127,"measure":90,"beat":2.5,"subject_pos":-1,"motif":"","motif_pos":-1,"best_pos":6,"similarity":0.529},{"voice":0,"pitch":77,"start":195.1362,"duration":0.1364,"velocity":127,"measure":90,"beat":2.75,"subject_pos":-1,"motif":"","motif_pos":-1,"best_pos":3,"similarity":0.471},{"voice":0,"pitch":76,"start":195.2725,"duration":0.1364,"velocity":127,"measure":90,"beat":3.0,"subject_pos":-1,"motif":"","motif_pos":-1,"best_pos":4,"similarity":0.414},{"voice":0,"pitch":74,"start":195.4089,"duration":0.1364,"velocity":127,"measure":90,"beat":3.25,"subject_pos":-1,"motif":"","motif_pos":-1,"best_pos":2,"similarity":0.446},{"voice":0,"pitch":72,"start":195.5453,"duration":0.2727,"velocity":127,"measure":90,"beat":3.5,"subject_pos":-1,"motif":"","motif_pos":-1,"best_pos":4,"similarity":0.35},{"voice":1,"pitch":60,"start":195.5453,"duration":1.0909,"velocity":127,"measure":90,"beat":3.5,"subject_pos":-1,"motif":"","motif_pos":-1,"best_pos":1,"similarity":0.357},{"voice":0,"pitch":76,"start":195.818,"duration":0.2727,"velocity":127,"measure":90,"beat":4.0,"subject_pos":-1,"motif":"","motif_pos":-1,"best_pos":5,"similarity":0.279},{"voice":0,"pitch":79,"start":196.0907,"duration":0.2727,"velocity":127,"measure":90,"beat":4.5,"subject_pos":-1,"motif":"","motif_pos":-1,"best_pos":6,"similarity":0.193},{"voice":0,"pitch":69,"start":196.3634,"duration":0.2727,"velocity":127,"measure":91,"beat":1.0,"subject_pos":-1,"motif":"","motif_pos":-1,"best_pos":5,"similarity":0.171},{"voice":0,"pitch":72,"start":196.6362,"duration":0.2727,"velocity":127,"measure":91,"beat":1.5,"subject_pos":-1,"motif":"","motif_pos":-1,"best_pos":0,"similarity":0.286},{"voice":1,"pitch":58,"start":196.6362,"duration":0.1364,"velocity":127,"measure":91,"beat":1.5,"subject_pos":-1,"motif":"","motif_pos":-1,"best_pos":3,"similarity":0.45},{"voice":1,"pitch":57,"start":196.7725,"duration":0.1364,"velocity":127,"measure":91,"beat":1.75,"subject_pos":-1,"motif":"","motif_pos":-1,"best_pos":4,"similarity":0.4},{"voice":0,"pitch":76,"start":196.9089,"duration":0.2727,"velocity":127,"measure":91,"beat":2.0,"subject_pos":-1,"motif":"","motif_pos":-1,"best_pos":1,"similarity":0.436},{"voice":1,"pitch":55,"start":196.9089,"duration":0.1364,"velocity":127,"measure":91,"beat":2.0,"subject_pos":-1,"motif":"","motif_pos":-1,"best_pos":2,"similarity":0.429},{"voice":1,"pitch":53,"start":197.0453,"duration":0.1364,"velocity":127,"measure":91,"beat":2.25,"subject_pos":-1,"motif":"","motif_pos":-1,"best_pos":2,"similarity":0.307},{"voice":1,"pitch":64,"start":197.1816,"duration":1.3636,"velocity":127,"measure":91,"beat":2.5,"subject_pos":-1,"motif":"","motif_pos":-1,"best_pos":1,"similarity":0.386},{"voice":0,"pitch":72,"start":197.4543,"duration":0.2727,"velocity":127,"measure":91,"beat":3.0,"subject_pos":-1,"motif":"","motif_pos":-1,"best_pos":2,"similarity":0.443},{"voice":0,"pitch":74,"start":197.7271,"duration":0.2727,"velocity":127,"measure":91,"beat":3.5,"subject_pos":-1,"motif":"","motif_pos":-1,"best_pos":5,"similarity":0.586},{"voice":0,"pitch":76,"start":197.9998,"duration":0.2727,"velocity":127,"measure":91,"beat":4.0,"subject_pos":-1,"motif":"","motif_pos":-1,"best_pos":6,"similarity":0.65},{"voice":0,"pitch":77,"start":198.2725,"duration":0.2727,"velocity":127,"measure":91,"beat":4.5,"subject_pos":-1,"motif":"","motif_pos":-1,"best_pos":5,"similarity":0.6},{"voice":0,"pitch":79,"start":198.5453,"duration":0.4091,"velocity":127,"measure":92,"beat":1.0,"subject_pos":-1,"motif":"","motif_pos":-1,"best_pos":6,"similarity":0.464},{"voice":1,"pitch":60,"start":198.5453,"duration":0.2727,"velocity":127,"measure":92,"beat":1.0,"subject_pos":-1,"motif":"","motif_pos":-1,"best_pos":2,"similarity":0.461},{"voice":1,"pitch":65,"start":198.818,"duration":1.6364,"velocity":127,"measure":92,"beat":1.5,"subject_pos":-1,"motif":"","motif_pos":-1,"best_pos":1,"similarity":0.536},{"voice":0,"pitch":77,"start":198.9543,"duration":0.1364,"velocity":127,"measure":92,"beat":1.75,"subject_pos":-1,"motif":"","motif_pos":-1,"best_pos":3,"similarity":0.664},{"voice":0,"pitch":76,"start":199.0907,"duration":0.1364,"velocity":127,"measure":92,"beat":2.0,"subject_pos":-1,"motif":"","motif_pos":-1,"best_pos":4,"similarity":0.8},{"voice":0,"pitch":77,"start":199.2271,"duration":0.1364,"velocity":127,"measure":92,"beat":2.25,"subject_pos":-1,"motif":"","motif_pos":-1,"best_pos":5,"similarity":0.764},{"voice":0,"pitch":79,"start":199.3634,"duration":0.1364,"velocity":127,"measure":92,"beat":2.5,"subject_pos":-1,"motif":"","motif_pos":-1,"best_pos":6,"similarity":0.529},{"voice":0,"pitch":76,"start":199.4998,"duration":0.1364,"velocity":127,"measure":92,"beat":2.75,"subject_pos":-1,"motif":"tail_inv","motif_pos":0,"best_pos":0,"similarity":1.0},{"voice":0,"pitch":77,"start":199.6362,"duration":0.1364,"velocity":127,"measure":92,"beat":3.0,"subject_pos":-1,"motif":"tail_inv","motif_pos":1,"best_pos":1,"similarity":1.0},{"voice":0,"pitch":76,"start":199.7725,"duration":0.1364,"velocity":127,"measure":92,"beat":3.25,"subject_pos":-1,"motif":"tail_inv","motif_pos":2,"best_pos":2,"similarity":1.0},{"voice":0,"pitch":74,"start":199.9089,"duration":0.1364,"velocity":127,"measure":92,"beat":3.5,"subject_pos":-1,"motif":"tail_inv","motif_pos":3,"best_pos":3,"similarity":1.0},{"voice":0,"pitch":73,"start":200.0453,"duration":0.1364,"velocity":127,"measure":92,"beat":3.75,"subject_pos":-1,"motif":"tail_inv","motif_pos":4,"best_pos":4,"similarity":1.0},{"voice":0,"pitch":74,"start":200.1816,"duration":0.5455,"velocity":127,"measure":92,"beat":4.0,"subject_pos":-1,"motif":"","motif_pos":-1,"best_pos":5,"similarity":0.529},{"voice":1,"pitch":64,"start":200.4543,"duration":0.8182,"velocity":127,"measure":92,"beat":4.5,"subject_pos":-1,"motif":"","motif_pos":-1,"best_pos":2,"similarity":0.518},{"voice":0,"pitch":72,"start":200.7271,"duration":0.2727,"velocity":127,"measure":93,"beat":1.0,"subject_pos":-1,"motif":"","motif_pos":-1,"best_pos":3,"similarity":0.593},{"voice":0,"pitch":71,"start":200.9998,"duration":0.2727,"velocity":127,"measure":93,"beat":1.5,"subject_pos":-1,"motif":"","motif_pos":-1,"best_pos":4,"similarity":0.671},{"voice":0,"pitch":72,"start":201.2725,"duration":0.1364,"velocity":127,"measure":93,"beat":2.0,"subject_pos":-1,"motif":"","motif_pos":-1,"best_pos":5,"similarity":0.507},{"voice":1,"pitch":63,"start":201.2725,"duration":0.8182,"velocity":127,"measure":93,"beat":2.0,"subject_pos":-1,"motif":"","motif_pos":-1,"best_pos":3,"similarity":0.543},{"voice":0,"pitch":71,"start":201.4089,"duration":0.1364,"velocity":127,"measure":93,"beat":2.25,"subject_pos":-1,"motif":"","motif_pos":-1,"best_pos":4,"similarity":0.579},{"voice":0,"pitch":69,"start":201.5453,"duration":0.1364,"velocity":127,"measure":93,"beat":2.5,"subject_pos":-1,"motif":"","motif_pos":-1,"best_pos":5,"similarity":0.607},{"voice":0,"pitch":71,"start":201.6816,"duration":0.1364,"velocity":127,"measure":93,"beat":2.75,"subject_pos":-1,"motif":"","motif_pos":-1,"best_pos":6,"similarity":0.657},{"voice":0,"pitch":72,"start":201.818,"duration":0.5455,"velocity":127,"measure":93,"beat":3.0,"subject_pos":-1,"motif":"","motif_pos":-1,"best_pos":7,"similarity":0.436},{"voice":1,"pitch":62,"start":202.0907,"duration":0.8182,"velocity":127,"measure":93,"beat":3.5,"subject_pos":-1,"motif":"","motif_pos":-1,"best_pos":3,"similarity":0.471},{"voice":0,"pitch":70,"start":202.3634,"duration":0.2727,"velocity":127,"measure":93,"beat":4.0,"subject_pos":-1,"motif":"","motif_pos":-1,"best_pos":3,"similarity":0.6},{"voice":0,"pitch":69,"start":202.6362,"duration":0.2727,"velocity":127,"measure":93,"beat":4.5,"subject_pos":-1,"motif":"","motif_pos":-1,"best_pos":4,"similarity":0.671},{"voice":0,"pitch":70,"start":202.9089,"duration":0.1364,"velocity":127,"measure":94,"beat":1.0,"subject_pos":-1,"motif":"","motif_pos":-1,"best_pos":5,"similarity":0.507},{"voice":1,"pitch":61,"start":202.9089,"duration":0.8182,"velocity":127,"measure":94,"beat":1.0,"subject_pos":-1,"motif":"","motif_pos":-1,"best_pos":3,"similarity":0.443},{"voice":0,"pitch":69,"start":203.0453,"duration":0.1364,"velocity":127,"measure":94,"beat":1.25,"subject_pos":-1,"motif":"","motif_pos":-1,"best_pos":4,"similarity":0.579},{"voice":0,"pitch":67,"start":203.1816,"duration":0.1364,"velocity":127,"measure":94,"beat":1.5,"subject_pos":-1,"motif":"","motif_pos":-1,"best_pos":5,"similarity":0.607},{"voice":0,"pitch":69,"start":203.318,"duration":0.1364,"velocity":127,"measure":94,"beat":1.75,"subject_pos":-1,"motif":"","motif_pos":-1,"best_pos":6,"similarity":0.657},{"voice":0,"pitch":70,"start":203.4543,"duration":0.5455,"velocity":127,"measure":94,"beat":2.0,"subject_pos":-1,"motif":"","motif_pos":-1,"best_pos":7,"similarity":0.436},{"voice":1,"pitch":60,"start":203.7271,"duration":1.3636,"velocity":127,"measure":94,"beat":2.5,"subject_pos":-1,"motif":"","motif_pos":-1,"best_pos":4,"similarity":0.457},{"voice":0,"pitch":69,"start":203.9998,"duration":0.2727,"velocity":127,"measure":94,"beat":3.0,"subject_pos":-1,"motif":"","motif_pos":-1,"best_pos":3,"similarity":0.521},{"voice":0,"pitch":68,"start":204.2725,"duration":0.3736,"velocity":127,"measure":94,"beat":3.5,"subject_pos":-1,"motif":"","motif_pos":-1,"best_pos":4,"similarity":0.686},{"voice":0,"pitch":69,"start":204.5453,"duration":1.0909,"velocity":127,"measure":94,"beat":4.0,"subject_pos":-1,"motif":"","motif_pos":-1,"best_pos":5,"similarity":0.589},{"voice":1,"pitch":65,"start":205.0907,"duration":0.2727,"velocity":127,"measure":95,"beat":1.0,"subject_pos":-1,"motif":"","motif_pos":-1,"best_pos":1,"similarity":0.379},{"voice":1,"pitch":59,"start":205.3634,"duration":0.2727,"velocity":127,"measure":95,"beat":1.5,"subject_pos":-1,"motif":"","motif_pos":-1,"best_pos":4,"similarity":0.471},{"voice":1,"pitch":60,"start":205.6362,"duration":0.2727,"velocity":127,"measure":95,"beat":2.0,"subject_pos":-1,"motif":"","motif_pos":-1,"best_pos":5,"similarity":0.586},{"voice":0,"pitch":80,"start":205.9089,"duration":0.2727,"velocity":127,"measure":95,"beat":2.5,"subject_pos":-1,"motif":"","motif_pos":-1,"best_pos":6,"similarity":0.5},{"voice":1,"pitch":62,"start":205.9089,"duration":0.5455,"velocity":127,"measure":95,"beat":2.5,"subject_pos":-1,"motif":"","motif_pos":-1,"best_pos":6,"similarity":0.457},{"voice":0,"pitch":81,"start":206.1816,"duration":0.5455,"velocity":127,"measure":95,"beat":3.0,"subject_pos":-1,"motif":"","motif_pos":-1,"best_pos":7,"similarity":0.357},{"voice":1,"pitch":60,"start":206.4543,"duration":0.1364,"velocity":127,"measure":95,"beat":3.5,"subject_pos":-1,"motif":"","motif_pos":-1,"best_pos":3,"similarity":0.593},{"voice":1,"pitch":59,"start":206.5907,"duration":0.1364,"velocity":127,"measure":95,"beat":3.75,"subject_pos":-1,"motif":"","motif_pos":-1,"best_pos":4,"similarity":0.668},{"voice":0,"pitch":69,"start":206.7271,"duration":0.2727,"velocity":127,"measure":95,"beat":4.0,"subject_pos":-1,"motif":"","motif_pos":-1,"best_pos":0,"similarity":0.364},{"voice":1,"pitch":60,"start":206.7271,"duration":0.2727,"velocity":127,"measure":95,"beat":4.0,"subject_pos":-1,"motif":"","motif_pos":-1,"best_pos":5,"similarity":0.5},{"voice":0,"pitch":74,"start":206.9998,"duration":1.0909,"velocity":127,"measure":95,"beat":4.5,"subject_pos":-1,"motif":"","motif_pos":-1,"best_pos":1,"similarity":0.443},{"voice":1,"pitch":70,"start":207.2725,"duration":0.1364,"velocity":127,"measure":96,"beat":1.0,"subject_pos":-1,"motif":"","motif_pos":-1,"best_pos":3,"similarity":0.321},{"voice":1,"pitch":69,"start":207.4089,"duration":0.1364,"velocity":127,"measure":96,"beat":1.25,"subject_pos":-1,"motif":"","motif_pos":-1,"best_pos":1,"similarity":0.429},{"voice":1,"pitch":67,"start":207.5452,"duration":0.1364,"velocity":127,"measure":96,"beat":1.5,"subject_pos":-1,"motif":"","motif_pos":-1,"best_pos":2,"similarity":0.643},{"voice":1,"pitch":65,"start":207.6816,"duration":0.1364,"velocity":127,"measure":96,"beat":1.75,"subject_pos":-1,"motif":"","motif_pos":-1,"best_pos":3,"similarity":0.786},{"voice":1,"pitch":64,"start":207.818,"duration":0.1364,"velocity":127,"measure":96,"beat":2.0,"subject_pos":-1,"motif":"","motif_pos":-1,"best_pos":4,"similarity":0.864},{"voice":1,"pitch":65,"start":207.9543,"duration":0.1364,"velocity":127,"measure":96,"beat":2.25,"subject_pos":-1,"motif":"","motif_pos":-1,"best_pos":5,"similarity":0.764},{"voice":0,"pitch":73,"start":208.0907,"duration":0.2727,"velocity":127,"measure":96,"beat":2.5,"subject_pos":-1,"motif":"","motif_pos":-1,"best_pos":4,"similarity":0.593},{"voice":1,"pitch":67,"start":208.0907,"duration":0.1364,"velocity":127,"measure":96,"beat":2.5,"subject_pos":-1,"motif":"","motif_pos":-1,"best_pos":6,"similarity":0.529},{"voice":1,"pitch":65,"start":208.2271,"duration":0.1364,"velocity":127,"measure":96,"beat":2.75,"subject_pos":-1,"motif":"","motif_pos":-1,"best_pos":3,"similarity":0.471},{"voice":0,"pitch":74,"start":208.3634,"duration":0.2727,"velocity":127,"measure":96,"beat":3.0,"subject_pos":-1,"motif":"head","motif_pos":0,"best_pos":0,"similarity":1.0},{"voice":1,"pitch":64,"start":208.3634,"duration":0.1364,"velocity":127,"measure":96,"beat":3.0,"subject_pos":-1,"motif":"","motif_pos":-1,"best_pos":2,"similarity":0.446},{"voice":1,"pitch":62,"start":208.4998,"duration":0.1364,"velocity":127,"measure":96,"beat":3.25,"subject_pos":-1,"motif":"","motif_pos":-1,"best_pos":3,"similarity":0.571},{"voice":0,"pitch":79,"start":208.6362,"duration":1.0909,"velocity":127,"measure":96,"beat":3.5,"subject_pos":-1,"motif":"head","motif_pos":1,"best_pos":1,"similarity":1.0},{"voice":1,"pitch":61,"start":208.6362,"duration":0.2727,"velocity":127,"measure":96,"beat":3.5,"subject_pos":-1,"motif":"","motif_pos":-1,"best_pos":4,"similarity":0.536},{"voice":1,"pitch":64,"start":208.9089,"duration":0.2727,"velocity":127,"measure":96,"beat":4.0,"subject_pos":-1,"motif":"","motif_pos":-1,"best_pos":5,"similarity":0.393},{"voice":1,"pitch":67,"start":209.1816,"duration":0.2727,"velocity":127,"measure":96,"beat":4.5,"subject_pos":-1,"motif":"","motif_pos":-1,"best_pos":6,"similarity":0.25},{"voice":1,"pitch":57,"start":209.4543,"duration":0.2727,"velocity":127,"measure":97,"beat":1.0,"subject_pos":-1,"motif":"","motif_pos":-1,"best_pos":0,"similarity":0.214},{"voice":0,"pitch":77,"start":209.7271,"duration":0.1364,"velocity":127,"measure":97,"beat":1.5,"subject_pos":-1,"motif":"head","motif_pos":2,"best_pos":2,"similarity":1.0},{"voice":1,"pitch":61,"start":209.7271,"duration":0.2727,"velocity":127,"measure":97,"beat":1.5,"subject_pos":-1,"motif":"","motif_pos":-1,"best_pos":1,"similarity":0.304},{"voice":0,"pitch":76,"start":209.8634,"duration":0.1364,"velocity":127,"measure":97,"beat":1.75,"subject_pos":-1,"motif":"head","motif_pos":3,"best_pos":3,"similarity":1.0},{"voice":0,"pitch":74,"start":209.9998,"duration":0.1364,"velocity":127,"measure":97,"beat":2.0,"subject_pos":-1,"motif":"head","motif_pos":4,"best_pos":4,"similarity":1.0},{"voice":1,"pitch":64,"start":209.9998,"duration":0.2727,"velocity":127,"measure":97,"beat":2.0,"subject_pos":-1,"motif":"","motif_pos":-1,"best_pos":2,"similarity":0.429},{"voice":0,"pitch":73,"start":210.1362,"duration":0.1364,"velocity":127,"measure":97,"beat":2.25,"subject_pos":-1,"motif":"","motif_pos":-1,"best_pos":4,"similarity":0.411},{"voice":0,"pitch":82,"start":210.2725,"duration":1.3636,"velocity":127,"measure":97,"beat":2.5,"subject_pos":-1,"motif":"","motif_pos":-1,"best_pos":2,"similarity":0.214},{"voice":1,"pitch":61,"start":210.5452,"duration":0.2727,"velocity":127,"measure":97,"beat":3.0,"subject_pos":-1,"motif":"","motif_pos":-1,"best_pos":4,"similarity":0.571},{"voice":1,"pitch":62,"start":210.818,"duration":0.2727,"velocity":127,"measure":97,"beat":3.5,"subject_pos":-1,"motif":"","motif_pos":-1,"best_pos":5,"similarity":0.75},{"voice":1,"pitch":64,"start":211.0907,"duration":0.2727,"velocity":127,"measure":97,"beat":4.0,"subject_pos":-1,"motif":"","motif_pos":-1,"best_pos":6,"similarity":0.732},{"voice":1,"pitch":65,"start":211.3634,"duration":0.2727,"velocity":127,"measure":97,"beat":4.5,"subject_pos":-1,"motif":"","motif_pos":-1,"best_pos":5,"similarity":0.607},{"voice":0,"pitch":74,"start":211.6362,"duration":0.2727,"velocity":127,"measure":98,"beat":1.0,"subject_pos":-1,"motif":"","motif_pos":-1,"best_pos":3,"similarity":0.5},{"voice":1,"pitch":67,"start":211.6362,"duration":0.4091,"velocity":127,"measure":98,"beat":1.0,"subject_pos":-1,"motif":"","motif_pos":-1,"best_pos":6,"similarity":0.464},{"voice":0,"pitch":73,"start":211.9089,"duration":0.2727,"velocity":127,"measure":98,"beat":1.5,"subject_pos":-1,"motif":"","motif_pos":-1,"best_pos":4,"similarity":0.721},{"voice":1,"pitch":65,"start":212.0452,"duration":0.1364,"velocity":127,"measure":98,"beat":1.75,"subject_pos":-1,"motif":"","motif_pos":-1,"best_pos":3,"similarity":0.664},{"voice":0,"pitch":74,"start":212.1816,"duration":0.2727,"velocity":127,"measure":98,"beat":2.0,"subject_pos":-1,"motif":"","motif_pos":-1,"best_pos":5,"similarity":0.729},{"voice":1,"pitch":64,"start":212.1816,"duration":0.1364,"velocity":127,"measure":98,"beat":2.0,"subject_pos":-1,"motif":"","motif_pos":-1,"best_pos":4,"similarity":0.8},{"voice":1,"pitch":65,"start":212.318,"duration":0.1364,"velocity":127,"measure":98,"beat":2.25,"subject_pos":-1,"motif":"","motif_pos":-1,"best_pos":5,"similarity":0.764},{"voice":0,"pitch":76,"start":212.4543,"duration":0.5455,"velocity":127,"measure":98,"beat":2.5,"subject_pos":-1,"motif":"","motif_pos":-1,"best_pos":6,"similarity":0.529},{"voice":1,"pitch":67,"start":212.4543,"duration":0.1364,"velocity":127,"measure":98,"beat":2.5,"subject_pos":-1,"motif":"","motif_pos":-1,"best_pos":6,"similarity":0.529},{"voice":1,"pitch":64,"start":212.5907,"duration":0.1364,"velocity":127,"measure":98,"beat":2.75,"subject_pos":-1,"motif":"tail_inv","motif_pos":0,"best_pos":0,"similarity":1.0},{"voice":1,"pitch":65,"start":212.7271,"duration":0.1364,"velocity":127,"measure":98,"beat":3.0,"subject_pos":-1,"motif":"tail_inv","motif_pos":1,"best_pos":1,"similarity":1.0},{"voice":1,"pitch":64,"start":212.8634,"duration":0.1364,"velocity":127,"measure":98,"beat":3.25,"subject_pos":-1,"motif":"tail_inv","motif_pos":2,"best_pos":2,"similarity":1.0},{"voice":0,"pitch":81,"start":212.9998,"duration":0.2727,"velocity":127,"measure":98,"beat":3.5,"subject_pos":-1,"motif":"","motif_pos":-1,"best_pos":1,"similarity":0.314},{"voice":1,"pitch":62,"start":212.9998,"duration":0.1364,"velocity":127,"measure":98,"beat":3.5,"subject_pos":-1,"motif":"tail_inv","motif_pos":3,"best_pos":3,"similarity":1.0},{"voice":1,"pitch":61,"start":213.1362,"duration":0.1364,"velocity":127,"measure":98,"beat":3.75,"subject_pos":-1,"motif":"tail_inv","motif_pos":4,"best_pos":4,"similarity":1.0},{"voice":0,"pitch":74,"start":213.2725,"duration":0.2727,"velocity":127,"measure":98,"beat":4.0,"subject_pos":-1,"motif":"","motif_pos":-1,"best_pos":0,"similarity":0.286},{"voice":1,"pitch":62,"start":213.2725,"duration":0.5455,"velocity":127,"measure":98,"beat":4.0,"subject_pos":-1,"motif":"","motif_pos":-1,"best_pos":5,"similarity":0.507},{"voice":0,"pitch":79,"start":213.5452,"duration":1.3636,"velocity":127,"measure":98,"beat":4.5,"subject_pos":-1,"motif":"","motif_pos":-1,"best_pos":1,"similarity":0.286},{"voice":1,"pitch":61,"start":213.818,"duration":0.2727,"velocity":127,"measure":99,"beat":1.0,"subject_pos":-1,"motif":"","motif_pos":-1,"best_pos":4,"similarity":0.514},{"voice":1,"pitch":59,"start":214.0907,"duration":0.2727,"velocity":127,"measure":99,"beat":1.5,"subject_pos":-1,"motif":"","motif_pos":-1,"best_pos":5,"similarity":0.479},{"voice":1,"pitch":61,"start":214.3634,"duration":0.1364,"velocity":127,"measure":99,"beat":2.0,"subject_pos":-1,"motif":"","motif_pos":-1,"best_pos":6,"similarity":0.4},{"voice":1,"pitch":59,"start":214.4998,"duration":0.1364,"velocity":127,"measure":99,"beat":2.25,"subject_pos":-1,"motif":"","motif_pos":-1,"best_pos":2,"similarity":0.529},{"voice":1,"pitch":57,"start":214.6361,"duration":0.1364,"velocity":127,"measure":99,"beat":2.5,"subject_pos":-1,"motif":"","motif_pos":-1,"best_pos":5,"similarity":0.529},{"voice":1,"pitch":59,"start":214.7725,"duration":0.1364,"velocity":127,"measure":99,"beat":2.75,"subject_pos":-1,"motif":"","motif_pos":-1,"best_pos":6,"similarity":0.621},{"voice":0,"pitch":69,"start":214.9089,"duration":0.2727,"velocity":127,"measure":99,"beat":3.0,"subject_pos":-1,"motif":"","motif_pos":-1,"best_pos":0,"similarity":0.143},{"voice":1,"pitch":60,"start":214.9089,"duration":0.5455,"velocity":127,"measure":99,"beat":3.0,"subject_pos":-1,"motif":"","motif_pos":-1,"best_pos":7,"similarity":0.436},{"voice":0,"pitch":77,"start":215.1816,"duration":1.3636,"velocity":127,"measure":99,"beat":3.5,"subject_pos":-1,"motif":"","motif_pos":-1,"best_pos":1,"similarity":0.179},{"voice":1,"pitch":59,"start":215.4543,"duration":0.2727,"velocity":127,"measure":99,"beat":4.0,"subject_pos":-1,"motif":"","motif_pos":-1,"best_pos":4,"similarity":0.486},{"voice":1,"pitch":57,"start":215.7271,"duration":0.2727,"velocity":127,"measure":99,"beat":4.5,"subject_pos":-1,"motif":"","motif_pos":-1,"best_pos":5,"similarity":0.479},{"voice":1,"pitch":59,"start":215.9998,"duration":0.1364,"velocity":127,"measure":100,"beat":1.0,"subject_pos":-1,"motif":"","motif_pos":-1,"best_pos":6,"similarity":0.4},{"voice":1,"pitch":57,"start":216.1361,"duration":0.1364,"velocity":127,"measure":100,"beat":1.25,"subject_pos":-1,"motif":"","motif_pos":-1,"best_pos":2,"similarity":0.529},{"voice":1,"pitch":55,"start":216.2725,"duration":0.1364,"velocity":127,"measure":100,"beat":1.5,"subject_pos":-1,"motif":"","motif_pos":-1,"best_pos":5,"similarity":0.529},{"voice":1,"pitch":57,"start":216.4089,"duration":0.1364,"velocity":127,"measure":100,"beat":1.75,"subject_pos":-1,"motif":"","motif_pos":-1,"best_pos":6,"similarity":0.621},{"voice":0,"pitch":67,"start":216.5452,"duration":0.2727,"velocity":127,"measure":100,"beat":2.0,"subject_pos":-1,"motif":"","motif_pos":-1,"best_pos":0,"similarity":0.232},{"voice":1,"pitch":58,"start":216.5452,"duration":0.5455,"velocity":127,"measure":100,"beat":2.0,"subject_pos":-1,"motif":"","motif_pos":-1,"best_pos":7,"similarity":0.436},{"voice":0,"pitch":76,"start":216.818,"duration":1.0909,"velocity":127,"measure":100,"beat":2.5,"subject_pos":-1,"motif":"","motif_pos":-1,"best_pos":1,"similarity":0.411},{"voice":1,"pitch":57,"start":217.0907,"duration":0.2727,"velocity":127,"measure":100,"beat":3.0,"subject_pos":-1,"motif":"","motif_pos":-1,"best_pos":3,"similarity":0.521},{"voice":1,"pitch":56,"start":217.3634,"duration":0.2727,"velocity":127,"measure":100,"beat":3.5,"subject_pos":-1,"motif":"","motif_pos":-1,"best_pos":4,"similarity":0.686},{"voice":1,"pitch":57,"start":217.6361,"duration":1.0909,"velocity":127,"measure":100,"beat":4.0,"subject_pos":-1,"motif":"","motif_pos":-1,"best_pos":5,"similarity":0.589},{"voice":0,"pitch":74,"start":217.9089,"duration":0.2727,"velocity":127,"measure":100,"beat":4.5,"subject_pos":-1,"motif":"tail","motif_pos":3,"best_pos":3,"similarity":1.0},{"voice":0,"pitch":73,"start":218.1816,"duration":0.2727,"velocity":127,"measure":101,"beat":1.0,"subject_pos":-1,"motif":"tail","motif_pos":4,"best_pos":4,"similarity":1.0},{"voice":0,"pitch":74,"start":218.4543,"duration":0.2727,"velocity":127,"measure":101,"beat":1.5,"subject_pos":-1,"motif":"tail","motif_pos":5,"best_pos":5,"similarity":1.0},{"voice":0,"pitch":76,"start":218.7271,"duration":0.2727,"velocity":127,"measure":101,"beat":2.0,"subject_pos":-1,"motif":"tail","motif_pos":6,"best_pos":6,"similarity":1.0},{"voice":0,"pitch":77,"start":218.9998,"duration":0.2727,"velocity":127,"measure":101,"beat":2.5,"subject_pos":-1,"motif":"tail","motif_pos":7,"best_pos":7,"similarity":1.0},{"voice":1,"pitch":68,"start":218.9998,"duration":0.2727,"velocity":127,"measure":101,"beat":2.5,"subject_pos":-1,"motif":"","motif_pos":-1,"best_pos":6,"similarity":0.5},{"voice":0,"pitch":76,"start":219.2725,"duration":0.2727,"velocity":127,"measure":101,"beat":3.0,"subject_pos":-1,"motif":"","motif_pos":-1,"best_pos":4,"similarity":0.325},{"voice":1,"pitch":69,"start":219.2725,"duration":0.5455,"velocity":127,"measure":101,"beat":3.0,"subject_pos":-1,"motif":"","motif_pos":-1,"best_pos":7,"similarity":0.357},{"voice":0,"pitch":69,"start":219.5452,"duration":0.2727,"velocity":127,"measure":101,"beat":3.5,"subject_pos":-1,"motif":"","motif_pos":-1,"best_pos":5,"similarity":0.186},{"voice":1,"pitch":57,"start":219.818,"duration":0.2727,"velocity":127,"measure":101,"beat":4.0,"subject_pos":-1,"motif":"","motif_pos":-1,"best_pos":0,"similarity":0.364},{"voice":1,"pitch":62,"start":220.0907,"duration":1.0909,"velocity":127,"measure":101,"beat":4.5,"subject_pos":-1,"motif":"","motif_pos":-1,"best_pos":1,"similarity":0.443},{"voice":0,"pitch":82,"start":220.2271,"duration":0.1364,"velocity":127,"measure":101,"beat":4.75,"subject_pos":-1,"motif":"","motif_pos":-1,"best_pos":3,"similarity":0.321},{"voice":0,"pitch":81,"start":220.3634,"duration":0.1364,"velocity":127,"measure":102,"beat":1.0,"subject_pos":-1,"motif":"","motif_pos":-1,"best_pos":1,"similarity":0.429},{"voice":0,"pitch":79,"start":220.4998,"duration":0.1364,"velocity":127,"measure":102,"beat":1.25,"subject_pos":-1,"motif":"","motif_pos":-1,"best_pos":2,"similarity":0.579},{"voice":0,"pitch":77,"start":220.6361,"duration":0.1364,"velocity":127,"measure":102,"beat":1.5,"subject_pos":-1,"motif":"","motif_pos":-1,"best_pos":3,"similarity":0.621},{"voice":0,"pitch":76,"start":220.7725,"duration":0.1364,"velocity":127,"measure":102,"beat":1.75,"subject_pos":-1,"motif":"","motif_pos":-1,"best_pos":4,"similarity":0.564},{"voice":0,"pitch":74,"start":220.9089,"duration":0.9545,"velocity":127,"measure":102,"beat":2.0,"subject_pos":0,"motif":"subject","motif_pos":0,"best_pos":0,"similarity":1.0},{"voice":1,"pitch":61,"start":221.1816,"duration":0.2727,"velocity":127,"measure":102,"beat":2.5,"subject_pos":-1,"motif":"","motif_pos":-1,"best_pos":4,"similarity":0.593},{"voice":1,"pitch":62,"start":221.4543,"duration":0.2727,"velocity":127,"measure":102,"beat":3.0,"subject_pos":-1,"motif":"head","motif_pos":0,"best_pos":0,"similarity":1.0},{"voice":1,"pitch":67,"start":221.7271,"duration":1.0909,"velocity":127,"measure":102,"beat":3.5,"subject_pos":-1,"motif":"head","motif_pos":1,"best_pos":1,"similarity":1.0},{"voice":0,"pitch":77,"start":221.8634,"duration":0.1364,"velocity":127,"measure":102,"beat":3.75,"subject_pos":-1,"motif":"subject","motif_pos":0,"best_pos":0,"similarity":1.0},{"voice":0,"pitch":79,"start":221.9998,"duration":0.1364,"velocity":127,"measure":102,"beat":4.0,"subject_pos":1,"motif":"subject","motif_pos":1,"best_pos":1,"similarity":1.0},{"voice":0,"pitch":77,"start":222.1361,"duration":0.1364,"velocity":127,"measure":102,"beat":4.25,"subject_pos":2,"motif":"subject","motif_pos":2,"best_pos":2,"similarity":1.0},{"voice":0,"pitch":76,"start":222.2725,"duration":0.1364,"velocity":127,"measure":102,"beat":4.5,"subject_pos":-1,"motif":"subject","motif_pos":2,"best_pos":2,"similarity":1.0},{"voice":0,"pitch":74,"start":222.4089,"duration":0.1364,"velocity":127,"measure":102,"beat":4.75,"subject_pos":3,"motif":"subject","motif_pos":3,"best_pos":3,"similarity":1.0},{"voice":0,"pitch":73,"start":222.5452,"duration":0.2727,"velocity":127,"measure":103,"beat":1.0,"subject_pos":4,"motif":"subject","motif_pos":4,"best_pos":4,"similarity":1.0},{"voice":0,"pitch":74,"start":222.818,"duration":0.2727,"velocity":127,"measure":103,"beat":1.5,"subject_pos":5,"motif":"subject","motif_pos":5,"best_pos":5,"similarity":1.0},{"voice":1,"pitch":65,"start":222.818,"duration":0.1364,"velocity":127,"measure":103,"beat":1.5,"subject_pos":-1,"motif":"head","motif_pos":2,"best_pos":2,"similarity":1.0},{"voice":1,"pitch":64,"start":222.9543,"duration":0.1364,"velocity":127,"measure":103,"beat":1.75,"subject_pos":-1,"motif":"head","motif_pos":3,"best_pos":3,"similarity":1.0},{"voice":0,"pitch":76,"start":223.0907,"duration":0.2727,"velocity":127,"measure":103,"beat":2.0,"subject_pos":6,"motif":"subject","motif_pos":6,"best_pos":6,"similarity":1.0},{"voice":1,"pitch":62,"start":223.0907,"duration":0.1364,"velocity":127,"measure":103,"beat":2.0,"subject_pos":-1,"motif":"head","motif_pos":4,"best_pos":4,"similarity":1.0},{"voice":1,"pitch":61,"start":223.227,"duration":0.1364,"velocity":127,"measure":103,"beat":2.25,"subject_pos":-1,"motif":"","motif_pos":-1,"best_pos":4,"similarity":0.411},{"voice":0,"pitch":77,"start":223.3634,"duration":0.1364,"velocity":127,"measure":103,"beat":2.5,"subject_pos":7,"motif":"subject","motif_pos":7,"best_pos":7,"similarity":1.0},{"voice":1,"pitch":70,"start":223.3634,"duration":1.3636,"velocity":127,"measure":103,"beat":2.5,"subject_pos":-1,"motif":"","motif_pos":-1,"best_pos":2,"similarity":0.214},{"voice":0,"pitch":76,"start":223.4998,"duration":0.1364,"velocity":127,"measure":103,"beat":2.75,"subject_pos":-1,"motif":"","motif_pos":-1,"best_pos":4,"similarity":0.55},{"voice":0,"pitch":74,"start":223.6361,"duration":0.1364,"velocity":127,"measure":103,"beat":3.0,"subject_pos":-1,"motif":"","motif_pos":-1,"best_pos":5,"similarity":0.607},{"voice":0,"pitch":76,"start":223.7725,"duration":0.1364,"velocity":127,"measure":103,"beat":3.25,"subject_pos":-1,"motif":"","motif_pos":-1,"best_pos":6,"similarity":0.657},{"voice":0,"pitch":77,"start":223.9089,"duration":0.2727,"velocity":127,"measure":103,"beat":3.5,"subject_pos":-1,"motif":"","motif_pos":-1,"best_pos":5,"similarity":0.693},{"voice":0,"pitch":79,"start":224.1816,"duration":0.2727,"velocity":127,"measure":103,"beat":4.0,"subject_pos":-1,"motif":"","motif_pos":-1,"best_pos":5,"similarity":0.607},{"voice":0,"pitch":81,"start":224.4543,"duration":0.2727,"velocity":127,"measure":103,"beat":4.5,"subject_pos":-1,"motif":"","motif_pos":-1,"best_pos":6,"similarity":0.661},{"voice":0,"pitch":82,"start":224.727,"duration":0.5455,"velocity":127,"measure":104,"beat":1.0,"subject_pos":-1,"motif":"","motif_pos":-1,"best_pos":7,"similarity":0.464},{"voice":1,"pitch":62,"start":224.727,"duration":0.2727,"velocity":127,"measure":104,"beat":1.0,"subject_pos":-1,"motif":"","motif_pos":-1,"best_pos":3,"similarity":0.5},{"voice":1,"pitch":61,"start":224.9998,"duration":0.2727,"velocity":127,"measure":104,"beat":1.5,"subject_pos":-1,"motif":"","motif_pos":-1,"best_pos":4,"similarity":0.721},{"voice":0,"pitch":81,"start":225.2725,"duration":0.2727,"velocity":127,"measure":104,"beat":2.0,"subject_pos":-1,"motif":"","motif_pos":-1,"best_pos":4,"similarity":0.486},{"voice":1,"pitch":62,"start":225.2725,"duration":0.2727,"velocity":127,"measure":104,"beat":2.0,"subject_pos":-1,"motif":"","motif_pos":-1,"best_pos":5,"similarity":0.729},{"voice":0,"pitch":79,"start":225.5452,"duration":0.2727,"velocity":127,"measure":104,"beat":2.5,"subject_pos":-1,"motif":"","motif_pos":-1,"best_pos":5,"similarity":0.479},{"voice":1,"pitch":64,"start":225.5452,"duration":0.5455,"velocity":127,"measure":104,"beat":2.5,"subject_pos":-1,"motif":"","motif_pos":-1,"best_pos":6,"similarity":0.529},{"voice":0,"pitch":81,"start":225.818,"duration":0.1364,"velocity":127,"measure":104,"beat":3.0,"subject_pos":-1,"motif":"","motif_pos":-1,"best_pos":1,"similarity":0.457},{"voice":0,"pitch":79,"start":225.9543,"duration":0.1364,"velocity":127,"measure":104,"beat":3.25,"subject_pos":-1,"motif":"","motif_pos":-1,"best_pos":2,"similarity":0.657},{"voice":0,"pitch":77,"start":226.0907,"duration":0.1364,"velocity":127,"measure":104,"beat":3.5,"subject_pos":-1,"motif":"","motif_pos":-1,"best_pos":3,"similarity":0.793},{"voice":1,"pitch":69,"start":226.0907,"duration":0.2727,"velocity":127,"measure":104,"beat":3.5,"subject_pos":-1,"motif":"","motif_pos":-1,"best_pos":1,"similarity":0.314},{"voice":0,"pitch":76,"start":226.227,"duration":0.1364,"velocity":127,"measure":104,"beat":3.75,"subject_pos":-1,"motif":"","motif_pos":-1,"best_pos":4,"similarity":0.864},{"voice":0,"pitch":77,"start":226.3634,"duration":0.5455,"velocity":127,"measure":104,"beat":4.0,"subject_pos":-1,"motif":"","motif_pos":-1,"best_pos":5,"similarity":0.764},{"voice":1,"pitch":62,"start":226.3634,"duration":0.2727,"velocity":127,"measure":104,"beat":4.0,"subject_pos":-1,"motif":"","motif_pos":-1,"best_pos":0,"similarity":0.286},{"voice":1,"pitch":67,"start":226.6361,"duration":1.3636,"velocity":127,"measure":104,"beat":4.5,"subject_pos":-1,"motif":"","motif_pos":-1,"best_pos":1,"similarity":0.286},{"voice":0,"pitch":79,"start":226.9089,"duration":0.2727,"velocity":127,"measure":105,"beat":1.0,"subject_pos":-1,"motif":"","motif_pos":-1,"best_pos":6,"similarity":0.529},{"voice":0,"pitch":77,"start":227.1816,"duration":0.2727,"velocity":127,"measure":105,"beat":1.5,"subject_pos":-1,"motif":"","motif_pos":-1,"best_pos":2,"similarity":0.586},{"voice":0,"pitch":76,"start":227.4543,"duration":0.2727,"velocity":127,"measure":105,"beat":2.0,"subject_pos":-1,"motif":"","motif_pos":-1,"best_pos":3,"similarity":0.657},{"voice":0,"pitch":75,"start":227.727,"duration":0.2727,"velocity":127,"measure":105,"beat":2.5,"subject_pos":-1,"motif":"","motif_pos":-1,"best_pos":4,"similarity":0.7},{"voice":0,"pitch":76,"start":227.9998,"duration":0.5455,"velocity":127,"measure":105,"beat":3.0,"subject_pos":-1,"motif":"","motif_pos":-1,"best_pos":5,"similarity":0.489},{"voice":1,"pitch":57,"start":227.9998,"duration":0.2727,"velocity":127,"measure":105,"beat":3.0,"subject_pos":-1,"motif":"","motif_pos":-1,"best_pos":0,"similarity":0.143},{"voice":1,"pitch":65,"start":228.2725,"duration":1.3636,"velocity":127,"measure":105,"beat":3.5,"subject_pos":-1,"motif":"","motif_pos":-1,"best_pos":1,"similarity":0.179},{"voice":0,"pitch":74,"start":228.5452,"duration":0.1364,"velocity":127,"measure":105,"beat":4.0,"subject_pos":-1,"motif":"","motif_pos":-1,"best_pos":2,"similarity":0.532},{"voice":0,"pitch":72,"start":228.6816,"duration":0.1364,"velocity":127,"measure":105,"beat":4.25,"subject_pos":-1,"motif":"","motif_pos":-1,"best_pos":2,"similarity":0.579},{"voice":0,"pitch":70,"start":228.818,"duration":0.1364,"velocity":127,"measure":105,"beat":4.5,"subject_pos":-1,"motif":"","motif_pos":-1,"best_pos":3,"similarity":0.593},{"voice":0,"pitch":69,"start":228.9543,"duration":0.1364,"velocity":127,"measure":105,"beat":4.75,"subject_pos":-1,"motif":"","motif_pos":-1,"best_pos":4,"similarity":0.543},{"voice":0,"pitch":74,"start":229.0907,"duration":0.2727,"velocity":127,"measure":106,"beat":1.0,"subject_pos":-1,"motif":"","motif_pos":-1,"best_pos":3,"similarity":0.571},{"voice":0,"pitch":73,"start":229.3634,"duration":0.2727,"velocity":127,"measure":106,"beat":1.5,"subject_pos":-1,"motif":"","motif_pos":-1,"best_pos":4,"similarity":0.757},{"voice":0,"pitch":74,"start":229.6361,"duration":0.5455,"velocity":127,"measure":106,"beat":2.0,"subject_pos":-1,"motif":"","motif_pos":-1,"best_pos":5,"similarity":0.729},{"voice":1,"pitch":55,"start":229.6361,"duration":0.2727,"velocity":127,"measure":106,"beat":2.0,"subject_pos":-1,"motif":"","motif_pos":-1,"best_pos":0,"similarity":0.232},{"voice":1,"pitch":64,"start":229.9089,"duration":1.0909,"velocity":127,"measure":106,"beat":2.5,"subject_pos":-1,"motif":"","motif_pos":-1,"best_pos":1,"similarity":0.411},{"voice":0,"pitch":76,"start":230.1816,"duration":0.2727,"velocity":127,"measure":106,"beat":3.0,"subject_pos":-1,"motif":"","motif_pos":-1,"best_pos":6,"similarity":0.529},{"voice":0,"pitch":74,"start":230.4543,"duration":0.2727,"velocity":127,"measure":106,"beat":3.5,"subject_pos":-1,"motif":"","motif_pos":-1,"best_pos":3,"similarity":0.664},{"voice":0,"pitch":73,"start":230.727,"duration":0.2727,"velocity":127,"measure":106,"beat":4.0,"subject_pos":-1,"motif":"","motif_pos":-1,"best_pos":4,"similarity":0.793},{"voice":0,"pitch":74,"start":230.9998,"duration":0.2727,"velocity":127,"measure":106,"beat":4.5,"subject_pos":-1,"motif":"","motif_pos":-1,"best_pos":5,"similarity":0.75},{"voice":1,"pitch":62,"start":230.9998,"duration":0.2727,"velocity":127,"measure":106,"beat":4.5,"subject_pos":-1,"motif":"tail","motif_pos":3,"best_pos":3,"similarity":1.0},{"voice":0,"pitch":76,"start":231.2725,"duration":0.2727,"velocity":127,"measure":107,"beat":1.0,"subject_pos":-1,"motif":"","motif_pos":-1,"best_pos":6,"similarity":0.5},{"voice":1,"pitch":61,"start":231.2725,"duration":0.2727,"velocity":127,"measure":107,"beat":1.0,"subject_pos":-1,"motif":"tail","motif_pos":4,"best_pos":4,"similarity":1.0},{"voice":0,"pitch":69,"start":231.5452,"duration":0.2727,"velocity":127,"measure":107,"beat":1.5,"subject_pos":-1,"motif":"","motif_pos":-1,"best_pos":0,"similarity":0.286},{"voice":1,"pitch":62,"start":231.5452,"duration":0.2727,"velocity":127,"measure":107,"beat":1.5,"subject_pos":-1,"motif":"tail","motif_pos":5,"best_pos":5,"similarity":1.0},{"voice":0,"pitch":73,"start":231.8179,"duration":0.2727,"velocity":127,"measure":107,"beat":2.0,"subject_pos":-1,"motif":"","motif_pos":-1,"best_pos":1,"similarity":0.446},{"voice":1,"pitch":64,"start":231.8179,"duration":0.2727,"velocity":127,"measure":107,"beat":2.0,"subject_pos":-1,"motif":"tail","motif_pos":6,"best_pos":6,"similarity":1.0},{"voice":0,"pitch":71,"start":232.0907,"duration":0.2727,"velocity":127,"measure":107,"beat":2.5,"subject_pos":-1,"motif":"","motif_pos":-1,"best_pos":5,"similarity":0.464},{"voice":1,"pitch":65,"start":232.0907,"duration":0.2727,"velocity":127,"measure":107,"beat":2.5,"subject_pos":-1,"motif":"tail","motif_pos":7,"best_pos":7,"similarity":1.0},{"voice":0,"pitch":73,"start":232.3634,"duration":0.1364,"velocity":127,"measure":107,"beat":3.0,"subject_pos":-1,"motif":"","motif_pos":-1,"best_pos":4,"similarity":0.6},{"voice":1,"pitch":64,"start":232.3634,"duration":0.2727,"velocity":127,"measure":107,"beat":3.0,"subject_pos":-1,"motif":"","motif_pos":-1,"best_pos":4,"similarity":0.325},{"voice":0,"pitch":74,"start":232.4998,"duration":0.1364,"velocity":127,"measure":107,"beat":3.25,"subject_pos":-1,"motif":"","motif_pos":-1,"best_pos":5,"similarity":0.764},{"voice":0,"pitch":76,"start":232.6361,"duration":0.1364,"velocity":127,"measure":107,"beat":3.5,"subject_pos":-1,"motif":"","motif_pos":-1,"best_pos":6,"similarity":0.721},{"voice":1,"pitch":57,"start":232.6361,"duration":0.2727,"velocity":127,"measure":107,"beat":3.5,"subject_pos":-1,"motif":"","motif_pos":-1,"best_pos":5,"similarity":0.186},{"voice":0,"pitch":77,"start":232.7725,"duration":0.1364,"velocity":127,"measure":107,"beat":3.75,"subject_pos":-1,"motif":"","motif_pos":-1,"best_pos":5,"similarity":0.607},{"voice":0,"pitch":79,"start":232.9089,"duration":0.1364,"velocity":127,"measure":107,"beat":4.0,"subject_pos":-1,"motif":"","motif_pos":-1,"best_pos":6,"similarity":0.464},{"voice":0,"pitch":76,"start":233.0452,"duration":0.1364,"velocity":127,"measure":107,"beat":4.25,"subject_pos":-1,"motif":"","motif_pos":-1,"best_pos":4,"similarity":0.543},{"voice":0,"pitch":77,"start":233.1816,"duration":0.1364,"velocity":127,"measure":107,"beat":4.5,"subject_pos":-1,"motif":"","motif_pos":-1,"best_pos":5,"similarity":0.679},{"voice":0,"pitch":79,"start":233.3179,"duration":0.1364,"velocity":127,"measure":107,"beat":4.75,"subject_pos":-1,"motif":"","motif_pos":-1,"best_pos":6,"similarity":0.589},{"voice":1,"pitch":70,"start":233.4188,"duration":0.1364,"velocity":127,"measure":107,"beat":4.9349,"subject_pos":-1,"motif":"","motif_pos":-1,"best_pos":3,"similarity":0.321},{"voice":0,"pitch":81,"start":233.4543,"duration":0.2727,"velocity":127,"measure":108,"beat":1.0,"subject_pos":-1,"motif":"","motif_pos":-1,"best_pos":6,"similarity":0.375},{"voice":1,"pitch":69,"start":233.4543,"duration":0.1364,"velocity":127,"measure":108,"beat":1.0,"subject_pos":-1,"motif":"","motif_pos":-1,"best_pos":1,"similarity":0.429},{"voice":1,"pitch":67,"start":233.5907,"duration":0.1364,"velocity":127,"measure":108,"beat":1.25,"subject_pos":-1,"motif":"","motif_pos":-1,"best_pos":2,"similarity":0.579},{"voice":0,"pitch":73,"start":233.727,"duration":0.2727,"velocity":127,"measure":108,"beat":1.5,"subject_pos":-1,"motif":"","motif_pos":-1,"best_pos":4,"similarity":0.382},{"voice":1,"pitch":65,"start":233.727,"duration":0.1364,"velocity":127,"measure":108,"beat":1.5,"subject_pos":-1,"motif":"","motif_pos":-1,"best_pos":3,"similarity":0.621},{"voice":1,"pitch":64,"start":233.8634,"duration":0.1364,"velocity":127,"measure":108,"beat":1.75,"subject_pos":-1,"motif":"","motif_pos":-1,"best_pos":4,"similarity":0.564},{"voice":0,"pitch":74,"start":233.9998,"duration":0.1364,"velocity":127,"measure":108,"beat":2.0,"subject_pos":-1,"motif":"","motif_pos":-1,"best_pos":5,"similarity":0.464},{"voice":1,"pitch":62,"start":233.9998,"duration":0.9545,"velocity":127,"measure":108,"beat":2.0,"subject_pos":0,"motif":"subject","motif_pos":0,"best_pos":0,"similarity":1.0},{"voice":0,"pitch":77,"start":234.1361,"duration":0.1364,"velocity":127,"measure":108,"beat":2.25,"subject_pos":-1,"motif":"","motif_pos":-1,"best_pos":1,"similarity":0.357},{"voice":0,"pitch":76,"start":234.2725,"duration":0.1364,"velocity":127,"measure":108,"beat":2.5,"subject_pos":-1,"motif":"","motif_pos":-1,"best_pos":2,"similarity":0.471},{"voice":0,"pitch":74,"start":234.4089,"duration":0.1364,"velocity":127,"measure":108,"beat":2.75,"subject_pos":-1,"motif":"","motif_pos":-1,"best_pos":3,"similarity":0.539},{"voice":0,"pitch":73,"start":234.5452,"duration":0.1364,"velocity":127,"measure":108,"beat":3.0,"subject_pos":-1,"motif":"","motif_pos":-1,"best_pos":4,"similarity":0.443},{"voice":0,"pitch":71,"start":234.6816,"duration":0.1364,"velocity":127,"measure":108,"beat":3.25,"subject_pos":-1,"motif":"","motif_pos":-1,"best_pos":2,"similarity":0.446},{"voice":0,"pitch":69,"start":234.8179,"duration":0.2727,"velocity":127,"measure":108,"beat":3.5,"subject_pos":-1,"motif":"","motif_pos":-1,"best_pos":4,"similarity":0.357},{"voice":1,"pitch":65,"start":234.9543,"duration":0.1364,"velocity":127,"measure":108,"beat":3.75,"subject_pos":-1,"motif":"subject","motif_pos":0,"best_pos":0,"similarity":1.0},{"voice":0,"pitch":73,"start":235.0907,"duration":0.2727,"velocity":127,"measure":108,"beat":4.0,"subject_pos":-1,"motif":"","motif_pos":-1,"best_pos":5,"similarity":0.293},{"voice":1,"pitch":67,"start":235.0907,"duration":0.1364,"velocity":127,"measure":108,"beat":4.0,"subject_pos":1,"motif":"subject","motif_pos":1,"best_pos":1,"similarity":1.0},{"voice":1,"pitch":65,"start":235.227,"duration":0.1364,"velocity":127,"measure":108,"beat":4.25,"subject_pos":2,"motif":"subject","motif_pos":2,"best_pos":2,"similarity":1.0},{"voice":0,"pitch":76,"start":235.3634,"duration":0.2727,"velocity":127,"measure":108,"beat":4.5,"subject_pos":-1,"motif":"","motif_pos":-1,"best_pos":0,"similarity":0.464},{"voice":1,"pitch":64,"start":235.3634,"duration":0.1364,"velocity":127,"measure":108,"beat":4.5,"subject_pos":-1,"motif":"subject","motif_pos":2,"best_pos":2,"similarity":1.0},{"voice":1,"pitch":62,"start":235.4998,"duration":0.1364,"velocity":127,"measure":108,"beat":4.75,"subject_pos":3,"motif":"subject","motif_pos":3,"best_pos":3,"similarity":1.0},{"voice":0,"pitch":81,"start":235.6361,"duration":1.9091,"velocity":127,"measure":109,"beat":1.0,"subject_pos":-1,"motif":"","motif_pos":-1,"best_pos":1,"similarity":0.714},{"voice":1,"pitch":61,"start":235.6361,"duration":0.2727,"velocity":127,"measure":109,"beat":1.0,"subject_pos":4,"motif":"subject","motif_pos":4,"best_pos":4,"similarity":1.0},{"voice":1,"pitch":62,"start":235.9089,"duration":0.2727,"velocity":127,"measure":109,"beat":1.5,"subject_pos":5,"motif":"subject","motif_pos":5,"best_pos":5,"similarity":1.0},{"voice":1,"pitch":64,"start":236.1816,"duration":0.2727,"velocity":127,"measure":109,"beat":2.0,"subject_pos":6,"motif":"subject","motif_pos":6,"best_pos":6,"similarity":1.0},{"voice":1,"pitch":65,"start":236.4543,"duration":0.1364,"velocity":127,"measure":109,"beat":2.5,"subject_pos":7,"motif":"subject","motif_pos":7,"best_pos":7,"similarity":1.0},{"voice":1,"pitch":64,"start":236.5907,"duration":0.1364,"velocity":127,"measure":109,"beat":2.75,"subject_pos":-1,"motif":"","motif_pos":-1,"best_pos":4,"similarity":0.55},{"voice":1,"pitch":62,"start":236.727,"duration":0.1364,"velocity":127,"measure":109,"beat":3.0,"subject_pos":-1,"motif":"","motif_pos":-1,"best_pos":5,"similarity":0.607},{"voice":1,"pitch":64,"start":236.8634,"duration":0.1364,"velocity":127,"measure":109,"beat":3.25,"subject_pos":-1,"motif":"","motif_pos":-1,"best_pos":6,"similarity":0.657},{"voice":1,"pitch":65,"start":236.9998,"duration":0.2727,"velocity":127,"measure":109,"beat":3.5,"subject_pos":-1,"motif":"","motif_pos":-1,"best_pos":5,"similarity":0.693},{"voice":1,"pitch":67,"start":237.2725,"duration":0.2727,"velocity":127,"measure":109,"beat":4.0,"subject_pos":-1,"motif":"","motif_pos":-1,"best_pos":5,"similarity":0.607},{"voice":0,"pitch":79,"start":237.5452,"duration":0.2727,"velocity":127,"measure":109,"beat":4.5,"subject_pos":-1,"motif":"","motif_pos":-1,"best_pos":2,"similarity":0.721},{"voice":1,"pitch":69,"start":237.5452,"duration":0.2727,"velocity":127,"measure":109,"beat":4.5,"subject_pos":-1,"motif":"","motif_pos":-1,"best_pos":6,"similarity":0.661},{"voice":0,"pitch":77,"start":237.8179,"duration":0.2727,"velocity":127,"measure":110,"beat":1.0,"subject_pos":-1,"motif":"","motif_pos":-1,"best_pos":3,"similarity":0.657},{"voice":1,"pitch":70,"start":237.8179,"duration":0.5455,"velocity":127,"measure":110,"beat":1.0,"subject_pos":-1,"motif":"","motif_pos":-1,"best_pos":7,"similarity":0.464},{"voice":0,"pitch":76,"start":238.0907,"duration":1.3636,"velocity":127,"measure":110,"beat":1.5,"subject_pos":-1,"motif":"","motif_pos":-1,"best_pos":4,"similarity":0.457},{"voice":1,"pitch":69,"start":238.3634,"duration":0.2727,"velocity":127,"measure":110,"beat":2.0,"subject_pos":-1,"motif":"","motif_pos":-1,"best_pos":4,"similarity":0.486},{"voice":1,"pitch":67,"start":238.6361,"duration":0.2727,"velocity":127,"measure":110,"beat":2.5,"subject_pos":-1,"motif":"","motif_pos":-1,"best_pos":5,"similarity":0.479},{"voice":1,"pitch":69,"start":238.9089,"duration":0.1364,"velocity":127,"measure":110,"beat":3.0,"subject_pos":-1,"motif":"","motif_pos":-1,"best_pos":1,"similarity":0.457},{"voice":1,"pitch":67,"start":239.0452,"duration":0.1364,"velocity":127,"measure":110,"beat":3.25,"subject_pos":-1,"motif":"","motif_pos":-1,"best_pos":2,"similarity":0.657},{"voice":1,"pitch":65,"start":239.1816,"duration":0.1364,"velocity":127,"measure":110,"beat":3.5,"subject_pos":-1,"motif":"","motif_pos":-1,"best_pos":3,"similarity":0.793},{"voice":1,"pitch":64,"start":239.3179,"duration":0.1364,"velocity":127,"measure":110,"beat":3.75,"subject_pos":-1,"motif":"","motif_pos":-1,"best_pos":4,"similarity":0.864},{"voice":0,"pitch":81,"start":239.4543,"duration":0.2727,"velocity":127,"measure":110,"beat":4.0,"subject_pos":-1,"motif":"","motif_pos":-1,"best_pos":1,"similarity":0.314},{"voice":1,"pitch":65,"start":239.4543,"duration":0.5455,"velocity":127,"measure":110,"beat":4.0,"subject_pos":-1,"motif":"","motif_pos":-1,"best_pos":5,"similarity":0.764},{"voice":0,"pitch":74,"start":239.727,"duration":1.3636,"velocity":127,"measure":110,"beat":4.5,"subject_pos":-1,"motif":"","motif_pos":-1,"best_pos":2,"similarity":0.189},{"voice":1,"pitch":67,"start":239.9998,"duration":0.2727,"velocity":127,"measure":111,"beat":1.0,"subject_pos":-1,"motif":"","motif_pos":-1,"best_pos":6,"similarity":0.529},{"voice":1,"pitch":65,"start":240.2725,"duration":0.2727,"velocity":127,"measure":111,"beat":1.5,"subject_pos":-1,"motif":"","motif_pos":-1,"best_pos":3,"similarity":0.536},{"voice":1,"pitch":64,"start":240.5452,"duration":0.2727,"velocity":127,"measure":111,"beat":2.0,"subject_pos":-1,"motif":"","motif_pos":-1,"best_pos":4,"similarity":0.543},{"voice":1,"pitch":62,"start":240.8179,"duration":0.2727,"velocity":127,"measure":111,"beat":2.5,"subject_pos":-1,"motif":"","motif_pos":-1,"best_pos":5,"similarity":0.507},{"voice":0,"pitch":82,"start":241.0907,"duration":0.2727,"velocity":127,"measure":111,"beat":3.0,"subject_pos":-1,"motif":"","motif_pos":-1,"best_pos":1,"similarity":0.143},{"voice":1,"pitch":64,"start":241.0907,"duration":0.5455,"velocity":127,"measure":111,"beat":3.0,"subject_pos":-1,"motif":"","motif_pos":-1,"best_pos":6,"similarity":0.4},{"voice":0,"pitch":73,"start":241.3634,"duration":0.2727,"velocity":127,"measure":111,"beat":3.5,"subject_pos":-1,"motif":"","motif_pos":-1,"best_pos":5,"similarity":0.164},{"voice":0,"pitch":76,"start":241.6361,"duration":0.2727,"velocity":127,"measure":111,"beat":4.0,"subject_pos":-1,"motif":"","motif_pos":-1,"best_pos":0,"similarity":0.286},{"voice":1,"pitch":62,"start":241.6361,"duration":0.1364,"velocity":127,"measure":111,"beat":4.0,"subject_pos":-1,"motif":"","motif_pos":-1,"best_pos":3,"similarity":0.464},{"voice":1,"pitch":61,"start":241.7725,"duration":0.1364,"velocity":127,"measure":111,"beat":4.25,"subject_pos":-1,"motif":"","motif_pos":-1,"best_pos":4,"similarity":0.414},{"voice":0,"pitch":81,"start":241.9088,"duration":0.2727,"velocity":127,"measure":111,"beat":4.5,"subject_pos":-1,"motif":"","motif_pos":-1,"best_pos":1,"similarity":0.293},{"voice":1,"pitch":59,"start":241.9088,"duration":0.1364,"velocity":127,"measure":111,"beat":4.5,"subject_pos":-1,"motif":"","motif_pos":-1,"best_pos":2,"similarity":0.446},{"voice":1,"pitch":57,"start":242.0452,"duration":0.1364,"velocity":127,"measure":111,"beat":4.75,"subject_pos":-1,"motif":"","motif_pos":-1,"best_pos":2,"similarity":0.5},{"voice":0,"pitch":69,"start":242.1816,"duration":0.5455,"velocity":127,"measure":112,"beat":1.0,"subject_pos":-1,"motif":"","motif_pos":-1,"best_pos":0,"similarity":0.446},{"voice":1,"pitch":62,"start":242.1816,"duration":0.2727,"velocity":127,"measure":112,"beat":1.0,"subject_pos":-1,"motif":"","motif_pos":-1,"best_pos":3,"similarity":0.643},{"voice":1,"pitch":61,"start":242.4543,"duration":0.2727,"velocity":127,"measure":112,"beat":1.5,"subject_pos":-1,"motif":"","motif_pos":-1,"best_pos":4,"similarity":0.793},{"voice":0,"pitch":74,"start":242.727,"duration":0.2727,"velocity":127,"measure":112,"beat":2.0,"subject_pos":-1,"motif":"","motif_pos":-1,"best_pos":1,"similarity":0.643},{"voice":1,"pitch":62,"start":242.727,"duration":0.5455,"velocity":127,"measure":112,"beat":2.0,"subject_pos":-1,"motif":"","motif_pos":-1,"best_pos":5,"similarity":0.729},{"voice":0,"pitch":70,"start":242.9998,"duration":1.0909,"velocity":127,"measure":112,"beat":2.5,"subject_pos":-1,"motif":"","motif_pos":-1,"best_pos":2,"similarity":0.607},{"voice":1,"pitch":64,"start":243.2725,"duration":0.2727,"velocity":127,"measure":112,"beat":3.0,"subject_pos":-1,"motif":"","motif_pos":-1,"best_pos":6,"similarity":0.529},{"voice":1,"pitch":62,"start":243.5452,"duration":0.2727,"velocity":127,"measure":112,"beat":3.5,"subject_pos":-1,"motif":"","motif_pos":-1,"best_pos":3,"similarity":0.664},{"voice":1,"pitch":61,"start":243.8179,"duration":0.2727,"velocity":127,"measure":112,"beat":4.0,"subject_pos":-1,"motif":"","motif_pos":-1,"best_pos":4,"similarity":0.793},{"voice":0,"pitch":69,"start":244.0907,"duration":0.2727,"velocity":127,"measure":112,"beat":4.5,"subject_pos":-1,"motif":"","motif_pos":-1,"best_pos":4,"similarity":0.529},{"voice":1,"pitch":62,"start":244.0907,"duration":0.2727,"velocity":127,"measure":112,"beat":4.5,"subject_pos":-1,"motif":"","motif_pos":-1,"best_pos":5,"similarity":0.75},{"voice":0,"pitch":67,"start":244.3634,"duration":0.2727,"velocity":127,"measure":113,"beat":1.0,"subject_pos":-1,"motif":"","motif_pos":-1,"best_pos":5,"similarity":0.493},{"voice":1,"pitch":64,"start":244.3634,"duration":0.2727,"velocity":127,"measure":113,"beat":1.0,"subject_pos":-1,"motif":"","motif_pos":-1,"best_pos":6,"similarity":0.5},{"voice":0,"pitch":69,"start":244.6361,"duration":1.0909,"velocity":127,"measure":113,"beat":1.5,"subject_pos":-1,"motif":"","motif_pos":-1,"best_pos":6,"similarity":0.371},{"voice":1,"pitch":57,"start":244.6361,"duration":0.2727,"velocity":127,"measure":113,"beat":1.5,"subject_pos":-1,"motif":"","motif_pos":-1,"best_pos":0,"similarity":0.286},{"voice":1,"pitch":61,"start":244.9088,"duration":0.2727,"velocity":127,"measure":113,"beat":2.0,"subject_pos":-1,"motif":"","motif_pos":-1,"best_pos":1,"similarity":0.446},{"voice":1,"pitch":59,"start":245.1816,"duration":0.2727,"velocity":127,"measure":113,"beat":2.5,"subject_pos":-1,"motif":"","motif_pos":-1,"best_pos":5,"similarity":0.464},{"voice":1,"pitch":61,"start":245.4543,"duration":0.1364,"velocity":127,"measure":113,"beat":3.0,"subject_pos":-1,"motif":"","motif_pos":-1,"best_pos":4,"similarity":0.6},{"voice":1,"pitch":62,"start":245.5907,"duration":0.1364,"velocity":127,"measure":113,"beat":3.25,"subject_pos":-1,"motif":"","motif_pos":-1,"best_pos":5,"similarity":0.764},{"voice":0,"pitch":76,"start":245.727,"duration":0.2727,"velocity":127,"measure":113,"beat":3.5,"subject_pos":-1,"motif":"","motif_pos":-1,"best_pos":1,"similarity":0.5},{"voice":1,"pitch":64,"start":245.727,"duration":0.1364,"velocity":127,"measure":113,"beat":3.5,"subject_pos":-1,"motif":"","motif_pos":-1,"best_pos":6,"similarity":0.721},{"voice":1,"pitch":65,"start":245.8634,"duration":0.1364,"velocity":127,"measure":113,"beat":3.75,"subject_pos":-1,"motif":"","motif_pos":-1,"best_pos":5,"similarity":0.607},{"voice":0,"pitch":73,"start":245.9998,"duration":0.2727,"velocity":127,"measure":113,"beat":4.0,"subject_pos":-1,"motif":"","motif_pos":-1,"best_pos":2,"similarity":0.436},{"voice":1,"pitch":67,"start":245.9998,"duration":0.1364,"velocity":127,"measure":113,"beat":4.0,"subject_pos":-1,"motif":"","motif_pos":-1,"best_pos":6,"similarity":0.464},{"voice":1,"pitch":64,"start":246.1361,"duration":0.1364,"velocity":127,"measure":113,"beat":4.25,"subject_pos":-1,"motif":"","motif_pos":-1,"best_pos":4,"similarity":0.543},{"voice":1,"pitch":65,"start":246.2725,"duration":0.1364,"velocity":127,"measure":113,"beat":4.5,"subject_pos":-1,"motif":"","motif_pos":-1,"best_pos":5,"similarity":0.679},{"voice":1,"pitch":67,"start":246.4088,"duration":0.1364,"velocity":127,"measure":113,"beat":4.75,"subject_pos":-1,"motif":"","motif_pos":-1,"best_pos":6,"similarity":0.589},{"voice":0,"pitch":82,"start":246.5097,"duration":0.1364,"velocity":127,"measure":113,"beat":4.9349,"subject_pos":-1,"motif":"","motif_pos":-1,"best_pos":3,"similarity":0.514},{"voice":0,"pitch":81,"start":246.5452,"duration":0.2727,"velocity":127,"measure":114,"beat":1.0,"subject_pos":-1,"motif":"","motif_pos":-1,"best_pos":4,"similarity":0.493},{"voice":1,"pitch":69,"start":246.5452,"duration":0.2727,"velocity":127,"measure":114,"beat":1.0,"subject_pos":-1,"motif":"","motif_pos":-1,"best_pos":6,"similarity":0.375},{"voice":0,"pitch":79,"start":246.8179,"duration":0.2727,"velocity":127,"measure":114,"beat":1.5,"subject_pos":-1,"motif":"","motif_pos":-1,"best_pos":5,"similarity":0.457},{"voice":1,"pitch":61,"start":246.8179,"duration":0.2727,"velocity":127,"measure":114,"beat":1.5,"subject_pos":-1,"motif":"","motif_pos":-1,"best_pos":4,"similarity":0.382},{"voice":0,"pitch":81,"start":247.0552,"duration":0.1364,"velocity":127,"measure":114,"beat":1.9349,"subject_pos":-1,"motif":"","motif_pos":-1,"best_pos":6,"similarity":0.371},{"voice":0,"pitch":77,"start":247.0907,"duration":0.9545,"velocity":127,"measure":114,"beat":2.0,"subject_pos":-1,"motif":"","motif_pos":-1,"best_pos":2,"similarity":0.379},{"voice":1,"pitch":62,"start":247.0907,"duration":0.1364,"velocity":127,"measure":114,"beat":2.0,"subject_pos":-1,"motif":"","motif_pos":-1,"best_pos":5,"similarity":0.464},{"voice":1,"pitch":65,"start":247.227,"duration":0.1364,"velocity":127,"measure":114,"beat":2.25,"subject_pos":-1,"motif":"","motif_pos":-1,"best_pos":1,"similarity":0.357},{"voice":1,"pitch":64,"start":247.3634,"duration":0.1364,"velocity":127,"measure":114,"beat":2.5,"subject_pos":-1,"motif":"","motif_pos":-1,"best_pos":2,"similarity":0.471},{"voice":1,"pitch":62,"start":247.4998,"duration":0.1364,"velocity":127,"measure":114,"beat":2.75,"subject_pos":-1,"motif":"","motif_pos":-1,"best_pos":3,"similarity":0.539},{"voice":1,"pitch":61,"start":247.6361,"duration":0.1364,"velocity":127,"measure":114,"beat":3.0,"subject_pos":-1,"motif":"","motif_pos":-1,"best_pos":4,"similarity":0.443},{"voice":1,"pitch":59,"start":247.7725,"duration":0.1364,"velocity":127,"measure":114,"beat":3.25,"subject_pos":-1,"motif":"","motif_pos":-1,"best_pos":2,"similarity":0.446},{"voice":1,"pitch":57,"start":247.9088,"duration":0.2727,"velocity":127,"measure":114,"beat":3.5,"subject_pos":-1,"motif":"","motif_pos":-1,"best_pos":4,"similarity":0.357},{"voice":0,"pitch":81,"start":248.0452,"duration":0.1364,"velocity":127,"measure":114,"beat":3.75,"subject_pos":-1,"motif":"","motif_pos":-1,"best_pos":1,"similarity":0.571},{"voice":0,"pitch":79,"start":248.1816,"duration":0.1364,"velocity":127,"measure":114,"beat":4.0,"subject_pos":-1,"motif":"","motif_pos":-1,"best_pos":2,"similarity":0.65},{"voice":1,"pitch":61,"start":248.1816,"duration":0.2727,"velocity":127,"measure":114,"beat":4.0,"subject_pos":-1,"motif":"","motif_pos":-1,"best_pos":5,"similarity":0.293},{"voice":0,"pitch":77,"start":248.3179,"duration":0.1364,"velocity":127,"measure":114,"beat":4.25,"subject_pos":-1,"motif":"","motif_pos":-1,"best_pos":3,"similarity":0.629},{"voice":0,"pitch":76,"start":248.4543,"duration":0.1364,"velocity":127,"measure":114,"beat":4.5,"subject_pos":-1,"motif":"","motif_pos":-1,"best_pos":4,"similarity":0.479},{"voice":1,"pitch":64,"start":248.4543,"duration":0.2727,"velocity":127,"measure":114,"beat":4.5,"subject_pos":-1,"motif":"","motif_pos":-1,"best_pos":0,"similarity":0.464},{"voice":0,"pitch":74,"start":248.5907,"duration":0.1364,"velocity":127,"measure":114,"beat":4.75,"subject_pos":-1,"motif":"","motif_pos":-1,"best_pos":3,"similarity":0.521},{"voice":0,"pitch":73,"start":248.727,"duration":0.1364,"velocity":127,"measure":115,"beat":1.0,"subject_pos":-1,"motif":"","motif_pos":-1,"best_pos":4,"similarity":0.471},{"voice":1,"pitch":69,"start":248.727,"duration":1.9091,"velocity":127,"measure":115,"beat":1.0,"subject_pos":-1,"motif":"","motif_pos":-1,"best_pos":1,"similarity":0.714},{"voice":0,"pitch":71,"start":248.8634,"duration":0.1364,"velocity":127,"measure":115,"beat":1.25,"subject_pos":-1,"motif":"","motif_pos":-1,"best_pos":3,"similarity":0.5},{"voice":0,"pitch":69,"start":248.9998,"duration":0.1364,"velocity":127,"measure":115,"beat":1.5,"subject_pos":-1,"motif":"","motif_pos":-1,"best_pos":4,"similarity":0.607},{"voice":0,"pitch":71,"start":249.1361,"duration":0.1364,"velocity":127,"measure":115,"beat":1.75,"subject_pos":-1,"motif":"","motif_pos":-1,"best_pos":5,"similarity":0.679},{"voice":0,"pitch":73,"start":249.2725,"duration":0.1364,"velocity":127,"measure":115,"beat":2.0,"subject_pos":-1,"motif":"","motif_pos":-1,"best_pos":6,"similarity":0.679},{"voice":0,"pitch":74,"start":249.4088,"duration":0.1364,"velocity":127,"measure":115,"beat":2.25,"subject_pos":-1,"motif":"","motif_pos":-1,"best_pos":5,"similarity":0.6},{"voice":0,"pitch":76,"start":249.5452,"duration":0.1364,"velocity":127,"measure":115,"beat":2.5,"subject_pos":-1,"motif":"","motif_pos":-1,"best_pos":6,"similarity":0.464},{"voice":0,"pitch":74,"start":249.6816,"duration":0.1364,"velocity":127,"measure":115,"beat":2.75,"subject_pos":-1,"motif":"","motif_pos":-1,"best_pos":5,"similarity":0.479},{"voice":0,"pitch":76,"start":249.8179,"duration":0.1364,"velocity":127,"measure":115,"beat":3.0,"subject_pos":-1,"motif":"","motif_pos":-1,"best_pos":6,"similarity":0.593},{"voice":0,"pitch":77,"start":249.9543,"duration":0.1364,"velocity":127,"measure":115,"beat":3.25,"subject_pos":-1,"motif":"","motif_pos":-1,"best_pos":5,"similarity":0.636},{"voice":0,"pitch":79,"start":250.0907,"duration":0.1364,"velocity":127,"measure":115,"beat":3.5,"subject_pos":0,"motif":"subject_inv","motif_pos":0,"best_pos":0,"similarity":1.0},{"voice":0,"pitch":76,"start":250.227,"duration":0.1364,"velocity":127,"measure":115,"beat":3.75,"subject_pos":-1,"motif":"subject_inv","motif_pos":0,"best_pos":0,"similarity":1.0},{"voice":0,"pitch":77,"start":250.3634,"duration":0.1364,"velocity":127,"measure":115,"beat":4.0,"subject_pos":-1,"motif":"subject_inv","motif_pos":0,"best_pos":0,"similarity":1.0},{"voice":0,"pitch":74,"start":250.4997,"duration":0.1364,"velocity":127,"measure":115,"beat":4.25,"subject_pos":1,"motif":"subject_inv","motif_pos":1,"best_pos":1,"similarity":1.0},{"voice":0,"pitch":76,"start":250.6361,"duration":0.1364,"velocity":127,"measure":115,"beat":4.5,"subject_pos":2,"motif":"subject_inv","motif_pos":2,"best_pos":2,"similarity":1.0},{"voice":1,"pitch":67,"start":250.6361,"duration":0.2727,"velocity":127,"measure":115,"beat":4.5,"subject_pos":-1,"motif":"","motif_pos":-1,"best_pos":2,"similarity":0.721},{"voice":0,"pitch":77,"start":250.7725,"duration":0.1364,"velocity":127,"measure":115,"beat":4.75,"subject_pos":3,"motif":"subject_inv","motif_pos":3,"best_pos":3,"similarity":1.0},{"voice":0,"pitch":79,"start":250.9088,"duration":0.1364,"velocity":127,"measure":116,"beat":1.0,"subject_pos":4,"motif":"subject_inv","motif_pos":4,"best_pos":4,"similarity":1.0},{"voice":1,"pitch":65,"start":250.9088,"duration":0.2727,"velocity":127,"measure":116,"beat":1.0,"subject_pos":-1,"motif":"","motif_pos":-1,"best_pos":3,"similarity":0.657},{"voice":0,"pitch":81,"start":251.0452,"duration":0.1364,"velocity":127,"measure":116,"beat":1.25,"subject_pos":5,"motif":"subject_inv","motif_pos":5,"best_pos":5,"similarity":1.0},{"voice":0,"pitch":82,"start":251.1816,"duration":0.1364,"velocity":127,"measure":116,"beat":1.5,"subject_pos":6,"motif":"subject_inv","motif_pos":6,"best_pos":6,"similarity":1.0},{"voice":1,"pitch":64,"start":251.1816,"duration":1.3636,"velocity":127,"measure":116,"beat":1.5,"subject_pos":-1,"motif":"","motif_pos":-1,"best_pos":4,"similarity":0.457},{"voice":0,"pitch":81,"start":251.3179,"duration":0.1364,"velocity":127,"measure":116,"beat":1.75,"subject_pos":7,"motif":"subject_inv","motif_pos":7,"best_pos":7,"similarity":1.0},{"voice":0,"pitch":79,"start":251.4543,"duration":0.1364,"velocity":127,"measure":116,"beat":2.0,"subject_pos":8,"motif":"subject_inv","motif_pos":8,"best_pos":0,"similarity":1.0},{"voice":0,"pitch":77,"start":251.5907,"duration":0.1364,"velocity":127,"measure":116,"beat":2.25,"subject_pos":-1,"motif":"","motif_pos":-1,"best_pos":3,"similarity":0.593},{"voice":0,"pitch":76,"start":251.727,"duration":0.1364,"velocity":127,"measure":116,"beat":2.5,"subject_pos":-1,"motif":"","motif_pos":-1,"best_pos":4,"similarity":0.489},{"voice":0,"pitch":74,"start":251.8634,"duration":0.1364,"velocity":127,"measure":116,"beat":2.75,"subject_pos":-1,"motif":"","motif_pos":-1,"best_pos":3,"similarity":0.571},{"voice":0,"pitch":73,"start":251.9997,"duration":0.1364,"velocity":127,"measure":116,"beat":3.0,"subject_pos":-1,"motif":"","motif_pos":-1,"best_pos":4,"similarity":0.554},{"voice":0,"pitch":76,"start":252.1361,"duration":0.1364,"velocity":127,"measure":116,"beat":3.25,"subject_pos":-1,"motif":"","motif_pos":-1,"best_pos":5,"similarity":0.429},{"voice":0,"pitch":79,"start":252.2725,"duration":0.1364,"velocity":127,"measure":116,"beat":3.5,"subject_pos":-1,"motif":"","motif_pos":-1,"best_pos":6,"similarity":0.321},{"voice":0,"pitch":82,"start":252.4088,"duration":0.1364,"velocity":127,"measure":116,"beat":3.75,"subject_pos":-1,"motif":"","motif_pos":-1,"best_pos":3,"similarity":0.389},{"voice":0,"pitch":81,"start":252.5452,"duration":0.1364,"velocity":127,"measure":116,"beat":4.0,"subject_pos":-1,"motif":"","motif_pos":-1,"best_pos":4,"similarity":0.464},{"voice":1,"pitch":69,"start":252.5452,"duration":0.2727,"velocity":127,"measure":116,"beat":4.0,"subject_pos":-1,"motif":"","motif_pos":-1,"best_pos":1,"similarity":0.314},{"voice":0,"pitch":79,"start":252.6816,"duration":0.1364,"velocity":127,"measure":116,"beat":4.25,"subject_pos":-1,"motif":"","motif_pos":-1,"best_pos":5,"similarity":0.471},{"voice":0,"pitch":81,"start":252.8179,"duration":0.1364,"velocity":127,"measure":116,"beat":4.5,"subject_pos":-1,"motif":"","motif_pos":-1,"best_pos":1,"similarity":0.457},{"voice":1,"pitch":62,"start":252.8179,"duration":1.3636,"velocity":127,"measure":116,"beat":4.5,"subject_pos":-1,"motif":"","motif_pos":-1,"best_pos":2,"similarity":0.189},{"voice":0,"pitch":79,"start":252.9543,"duration":0.1364,"velocity":127,"measure":116,"beat":4.75,"subject_pos":-1,"motif":"","motif_pos":-1,"best_pos":2,"similarity":0.593},{"voice":0,"pitch":77,"start":253.0907,"duration":0.1364,"velocity":127,"measure":117,"beat":1.0,"subject_pos":-1,"motif":"","motif_pos":-1,"best_pos":3,"similarity":0.6},{"voice":0,"pitch":76,"start":253.227,"duration":0.1364,"velocity":127,"measure":117,"beat":1.25,"subject_pos":-1,"motif":"","motif_pos":-1,"best_pos":4,"similarity":0.479},{"voice":0,"pitch":74,"start":253.3634,"duration":0.1364,"velocity":127,"measure":117,"beat":1.5,"subject_pos":-1,"motif":"","motif_pos":-1,"best_pos":2,"similarity":0.536},{"voice":0,"pitch":72,"start":253.4997,"duration":0.1364,"velocity":127,"measure":117,"beat":1.75,"subject_pos":-1,"motif":"","motif_pos":-1,"best_pos":3,"similarity":0.507},{"voice":0,"pitch":70,"start":253.6361,"duration":0.1364,"velocity":127,"measure":117,"beat":2.0,"subject_pos":-1,"motif":"","motif_pos":-1,"best_pos":4,"similarity":0.461},{"voice":0,"pitch":72,"start":253.7725,"duration":0.1364,"velocity":127,"measure":117,"beat":2.25,"subject_pos":-1,"motif":"","motif_pos":-1,"best_pos":1,"similarity":0.386},{"voice":0,"pitch":70,"start":253.9088,"duration":0.1364,"velocity":127,"measure":117,"beat":2.5,"subject_pos":-1,"motif":"","motif_pos":-1,"best_pos":3,"similarity":0.464},{"voice":0,"pitch":69,"start":254.0452,"duration":0.1364,"velocity":127,"measure":117,"beat":2.75,"subject_pos":-1,"motif":"","motif_pos":-1,"best_pos":3,"similarity":0.45},{"voice":0,"pitch":67,"start":254.1816,"duration":0.1364,"velocity":127,"measure":117,"beat":3.0,"subject_pos":-1,"motif":"","motif_pos":-1,"best_pos":3,"similarity":0.464},{"voice":1,"pitch":70,"start":254.1816,"duration":0.2727,"velocity":127,"measure":117,"beat":3.0,"subject_pos":-1,"motif":"","motif_pos":-1,"best_pos":1,"similarity":0.143},{"voice":0,"pitch":65,"start":254.3179,"duration":0.1364,"velocity":127,"measure":117,"beat":3.25,"subject_pos":-1,"motif":"","motif_pos":-1,"best_pos":4,"similarity":0.482},{"voice":0,"pitch":67,"start":254.4543,"duration":0.1364,"velocity":127,"measure":117,"beat":3.5,"subject_pos":-1,"motif":"","motif_pos":-1,"best_pos":5,"similarity":0.429},{"voice":1,"pitch":61,"start":254.4543,"duration":0.2727,"velocity":127,"measure":117,"beat":3.5,"subject_pos":-1,"motif":"","motif_pos":-1,"best_pos":5,"similarity":0.164},{"voice":0,"pitch":70,"start":254.5907,"duration":0.1364,"velocity":127,"measure":117,"beat":3.75,"subject_pos":-1,"motif":"","motif_pos":-1,"best_pos":1,"similarity":0.321},{"voice":0,"pitch":69,"start":254.727,"duration":0.1364,"velocity":127,"measure":117,"beat":4.0,"subject_pos":-1,"motif":"","motif_pos":-1,"best_pos":1,"similarity":0.429},{"voice":1,"pitch":64,"start":254.727,"duration":0.2727,"velocity":127,"measure":117,"beat":4.0,"subject_pos":-1,"motif":"","motif_pos":-1,"best_pos":0,"similarity":0.293},{"voice":0,"pitch":67,"start":254.8634,"duration":0.1364,"velocity":127,"measure":117,"beat":4.25,"subject_pos":-1,"motif":"","motif_pos":-1,"best_pos":2,"similarity":0.643},{"voice":0,"pitch":65,"start":254.9997,"duration":0.1364,"velocity":127,"measure":117,"beat":4.5,"subject_pos":-1,"motif":"","motif_pos":-1,"best_pos":3,"similarity":0.786},{"voice":1,"pitch":69,"start":254.9997,"duration":0.2727,"velocity":127,"measure":117,"beat":4.5,"subject_pos":-1,"motif":"","motif_pos":-1,"best_pos":1,"similarity":0.307},{"voice":0,"pitch":64,"start":255.1361,"duration":0.1364,"velocity":127,"measure":117,"beat":4.75,"subject_pos":-1,"motif":"","motif_pos":-1,"best_pos":4,"similarity":0.864},{"voice":0,"pitch":65,"start":255.2725,"duration":0.2045,"velocity":127,"measure":118,"beat":1.0,"subject_pos":-1,"motif":"","motif_pos":-1,"best_pos":5,"similarity":0.764},{"voice":1,"pitch":57,"start":255.2725,"duration":0.4091,"velocity":127,"measure":118,"beat":1.0,"subject_pos":0,"motif":"subject_inv","motif_pos":0,"best_pos":0,"similarity":1.0},{"voice":0,"pitch":67,"start":255.477,"duration":0.2045,"velocity":127,"measure":118,"beat":1.375,"subject_pos":-1,"motif":"","motif_pos":-1,"best_pos":6,"similarity":0.529},{"voice":0,"pitch":65,"start":255.6816,"duration":0.2045,"velocity":127,"measure":118,"beat":1.75,"subject_pos":-1,"motif":"","motif_pos":-1,"best_pos":3,"similarity":0.6},{"voice":1,"pitch":50,"start":255.6816,"duration":0.8182,"velocity":127,"measure":118,"beat":1.75,"subject_pos":1,"motif":"subject_inv","motif_pos":1,"best_pos":1,"similarity":1.0},{"voice":0,"pitch":64,"start":255.8861,"duration":0.2045,"velocity":127,"measure":118,"beat":2.125,"subject_pos":-1,"motif":"","motif_pos":-1,"best_pos":4,"similarity":0.682},{"voice":0,"pitch":65,"start":256.0907,"duration":0.2045,"velocity":127,"measure":118,"beat":2.5,"subject_pos":-1,"motif":"","motif_pos":-1,"best_pos":5,"similarity":0.529},{"voice":0,"pitch":70,"start":256.2952,"duration":0.2045,"velocity":127,"measure":118,"beat":2.875,"subject_pos":-1,"motif":"","motif_pos":-1,"best_pos":1,"similarity":0.507},{"voice":0,"pitch":69,"start":256.4997,"duration":0.2045,"velocity":127,"measure":118,"beat":3.25,"subject_pos":-1,"motif":"","motif_pos":-1,"best_pos":4,"similarity":0.471},{"voice":1,"pitch":53,"start":256.4997,"duration":0.8182,"velocity":127,"measure":118,"beat":3.25,"subject_pos":2,"motif":"subject_inv","motif_pos":2,"best_pos":2,"similarity":1.0},{"voice":0,"pitch":67,"start":256.7043,"duration":0.2045,"velocity":127,"measure":118,"beat":3.625,"subject_pos":-1,"motif":"","motif_pos":-1,"best_pos":5,"similarity":0.471},{"voice":0,"pitch":69,"start":256.9088,"duration":0.2045,"velocity":127,"measure":118,"beat":4.0,"subject_pos":-1,"motif":"","motif_pos":-1,"best_pos":6,"similarity":0.4},{"voice":0,"pitch":74,"start":257.1134,"duration":0.2045,"velocity":127,"measure":118,"beat":4.375,"subject_pos":-1,"motif":"","motif_pos":-1,"best_pos":1,"similarity":0.507},{"voice":0,"pitch":73,"start":257.3179,"duration":0.2045,"velocity":127,"measure":118,"beat":4.75,"subject_pos":-1,"motif":"","motif_pos":-1,"best_pos":4,"similarity":0.471},{"voice":1,"pitch":57,"start":257.3179,"duration":0.8182,"velocity":127,"measure":118,"beat":4.75,"subject_pos":3,"motif":"subject_inv","motif_pos":3,"best_pos":3,"similarity":1.0},{"voice":0,"pitch":71,"start":257.5225,"duration":0.2045,"velocity":127,"measure":119,"beat":1.125,"subject_pos":-1,"motif":"","motif_pos":-1,"best_pos":5,"similarity":0.471},{"voice":0,"pitch":73,"start":257.727,"duration":0.2045,"velocity":127,"measure":119,"beat":1.5,"subject_pos":-1,"motif":"","motif_pos":-1,"best_pos":6,"similarity":0.4},{"voice":0,"pitch":77,"start":257.9316,"duration":0.2045,"velocity":127,"measure":119,"beat":1.875,"subject_pos":-1,"motif":"","motif_pos":-1,"best_pos":3,"similarity":0.386},{"voice":0,"pitch":76,"start":258.1361,"duration":0.2045,"velocity":127,"measure":119,"beat":2.25,"subject_pos":-1,"motif":"","motif_pos":-1,"best_pos":4,"similarity":0.536},{"voice":1,"pitch":58,"start":258.1361,"duration":0.8182,"velocity":127,"measure":119,"beat":2.25,"subject_pos":4,"motif":"subject_inv","motif_pos":4,"best_pos":4,"similarity":1.0},{"voice":0,"pitch":74,"start":258.3407,"duration":0.2045,"velocity":127,"measure":119,"beat":2.625,"subject_pos":-1,"motif":"","motif_pos":-1,"best_pos":5,"similarity":0.6},{"voice":0,"pitch":76,"start":258.5452,"duration":0.2045,"velocity":127,"measure":119,"beat":3.0,"subject_pos":-1,"motif":"","motif_pos":-1,"best_pos":6,"similarity":0.657},{"voice":0,"pitch":77,"start":258.7497,"duration":0.1023,"velocity":127,"measure":119,"beat":3.375,"subject_pos":-1,"motif":"","motif_pos":-1,"best_pos":5,"similarity":0.636},{"voice":0,"pitch":79,"start":258.852,"duration":0.1023,"velocity":127,"measure":119,"beat":3.5625,"subject_pos":-1,"motif":"","motif_pos":-1,"best_pos":6,"similarity":0.464},{"voice":0,"pitch":77,"start":258.9543,"duration":0.1023,"velocity":127,"measure":119,"beat":3.75,"subject_pos":-1,"motif":"","motif_pos":-1,"best_pos":3,"similarity":0.471},{"voice":1,"pitch":57,"start":258.9543,"duration":0.8182,"velocity":127,"measure":119,"beat":3.75,"subject_pos":5,"motif":"subject_inv","motif_pos":5,"best_pos":5,"similarity":1.0},{"voice":0,"pitch":76,"start":259.0566,"duration":0.1023,"velocity":127,"measure":119,"beat":3.9375,"subject_pos":-1,"motif":"","motif_pos":-1,"best_pos":2,"similarity":0.5},{"voice":0,"pitch":74,"start":259.1588,"duration":0.1023,"velocity":127,"measure":119,"beat":4.125,"subject_pos":-1,"motif":"","motif_pos":-1,"best_pos":3,"similarity":0.679},{"voice":0,"pitch":73,"start":259.2611,"duration":0.1023,"velocity":127,"measure":119,"beat":4.3125,"subject_pos":-1,"motif":"","motif_pos":-1,"best_pos":4,"similarity":0.786},{"voice":0,"pitch":74,"start":259.3634,"duration":0.1023,"velocity":127,"measure":119,"beat":4.5,"subject_pos":-1,"motif":"","motif_pos":-1,"best_pos":5,"similarity":0.679},{"voice":0,"pitch":77,"start":259.4656,"duration":0.1023,"velocity":127,"measure":119,"beat":4.6875,"subject_pos":-1,"motif":"","motif_pos":-1,"best_pos":6,"similarity":0.5},{"voice":0,"pitch":79,"start":259.5679,"duration":0.1023,"velocity":127,"measure":119,"beat":4.875,"subject_pos":-1,"motif":"","motif_pos":-1,"best_pos":5,"similarity":0.593},{"voice":0,"pitch":81,"start":259.6702,"duration":0.1023,"velocity":127,"measure":120,"beat":1.0625,"subject_pos":-1,"motif":"","motif_pos":-1,"best_pos":6,"similarity":0.65},{"voice":0,"pitch":82,"start":259.7725,"duration":0.2045,"velocity":127,"measure":120,"beat":1.25,"subject_pos":-1,"motif":"","motif_pos":-1,"best_pos":7,"similarity":0.464},{"voice":1,"pitch":55,"start":259.7725,"duration":0.8182,"velocity":127,"measure":120,"beat":1.25,"subject_pos":6,"motif":"subject_inv","motif_pos":6,"best_pos":6,"similarity":1.0},{"voice":0,"pitch":74,"start":259.977,"duration":0.2045,"velocity":127,"measure":120,"beat":1.625,"subject_pos":-1,"motif":"","motif_pos":-1,"best_pos":3,"similarity":0.314},{"voice":0,"pitch":73,"start":260.1816,"duration":0.2045,"velocity":127,"measure":120,"beat":2.0,"subject_pos":-1,"motif":"","motif_pos":-1,"best_pos":1,"similarity":0.357},{"voice":0,"pitch":69,"start":260.3861,"duration":0.2045,"velocity":127,"measure":120,"beat":2.375,"subject_pos":-1,"motif":"","motif_pos":-1,"best_pos":2,"similarity":0.5},{"voice":0,"pitch":74,"start":260.5906,"duration":0.2045,"velocity":127,"measure":120,"beat":2.75,"subject_pos":-1,"motif":"","motif_pos":-1,"best_pos":3,"similarity":0.571},{"voice":1,"pitch":53,"start":260.5906,"duration":0.6136,"velocity":127,"measure":120,"beat":2.75,"subject_pos":7,"motif":"subject_inv","motif_pos":7,"best_pos":7,"similarity":1.0},{"voice":0,"pitch":73,"start":260.7952,"duration":0.2045,"velocity":127,"measure":120,"beat":3.125,"subject_pos":-1,"motif":"","motif_pos":-1,"best_pos":4,"similarity":0.679},{"voice":0,"pitch":74,"start":260.9997,"duration":2.0455,"velocity":127,"measure":120,"beat":3.5,"subject_pos":-1,"motif":"","motif_pos":-1,"best_pos":5,"similarity":0.5},{"voice":1,"pitch":52,"start":261.2043,"duration":0.2045,"velocity":127,"measure":120,"beat":3.875,"subject_pos":-1,"motif":"","motif_pos":-1,"best_pos":4,"similarity":0.893},{"voice":1,"pitch":53,"start":261.4088,"duration":0.2045,"velocity":127,"measure":120,"beat":4.25,"subject_pos":-1,"motif":"","motif_pos":-1,"best_pos":5,"similarity":0.821},{"voice":1,"pitch":55,"start":261.6134,"duration":0.2045,"velocity":127,"measure":120,"beat":4.625,"subject_pos":-1,"motif":"","motif_pos":-1,"best_pos":6,"similarity":0.643},{"voice":1,"pitch":57,"start":261.8179,"duration":1.6364,"velocity":127,"measure":121,"beat":1.0,"subject_pos":-1,"motif":"","motif_pos":-1,"best_pos":6,"similarity":0.375},{"voice":0,"pitch":62,"start":263.0452,"duration":0.2045,"velocity":127,"measure":121,"beat":3.25,"subject_pos":-1,"motif":"","motif_pos":-1,"best_pos":5,"similarity":0.411},{"voice":0,"pitch":64,"start":263.2497,"duration":0.2045,"velocity":127,"measure":121,"beat":3.625,"subject_pos":-1,"motif":"","motif_pos":-1,"best_pos":6,"similarity":0.446},{"voice":0,"pitch":64,"start":263.4543,"duration":1.6364,"velocity":127,"measure":121,"beat":4.0,"subject_pos":-1,"motif":"","motif_pos":-1,"best_pos":1,"similarity":0.286},{"voice":1,"pitch":45,"start":263.4543,"duration":1.6364,"velocity":127,"measure":121,"beat":4.0,"subject_pos":-1,"motif":"","motif_pos":-1,"best_pos":7,"similarity":0.179},{"voice":0,"pitch":62,"start":265.0906,"duration":3.2727,"velocity":127,"measure":122,"beat":3.0,"subject_pos":-1,"motif":"","motif_pos":-1,"best_pos":2,"similarity":0.286},{"voice":1,"pitch":38,"start":265.0906,"duration":3.2727,"velocity":127,"measure":122,"beat":3.0,"subject_pos":-1,"motif":"","motif_pos":-1,"best_pos":3,"similarity":0.036}]}