{"metadata":{"title":"The Art of the Fugue, Contrapunctus I","composer":"J.S. Bach","source_midi":"kunst_der_fuge_01_(c)simonetto.mid","tempo_bpm":120.0,"tempo_us_per_beat":500000,"ticks_per_beat":384,"time_signature":"4/4","key_signature":"D minor","total_duration_seconds":158.0,"total_measures":79,"beats_per_measure":4},"voices":[{"id":0,"name":"Soprano","midi_channel":0,"midi_track":1,"color":"#E85D4A","pitch_min":60,"pitch_max":82,"note_count":242},{"id":1,"name":"Alto","midi_channel":1,"midi_track":2,"color":"#4A90D9","pitch_min":53,"pitch_max":77,"note_count":253},{"id":2,"name":"Tenor","midi_channel":2,"midi_track":3,"color":"#27AE60","pitch_min":49,"pitch_max":69,"note_count":214},{"id":3,"name":"Bass","midi_channel":3,"midi_track":4,"color":"#8E44AD","pitch_min":38,"pitch_max":62,"note_count":188}],"sections":[{"label":"Exposition: Alto","short":"Expo I","start":0.0,"end":9.0,"color":"#4a6fa5"},{"label":"Exposition: Soprano","short":"Expo II","start":9.0,"end":17.0,"color":"#5a7fb5"},{"label":"Exposition: Bass","short":"Expo III","start":17.0,"end":25.0,"color":"#6a8fc5"},{"label":"Exposition: Tenor","short":"Expo IV","start":25.0,"end":33.0,"color":"#7a9fd5"},{"label":"Episode 1","short":"Ep. 1","start":33.0,"end":45.0,"color":"#5aaa88"},{"label":"Middle entry: Alto","short":"Mid I","start":45.0,"end":53.0,"color":"#4a9a78"},{"label":"Episode 2","short":"Ep. 2","start":53.0,"end":57.0,"color":"#6ab868"},{"label":"Middle entry: Soprano","short":"Mid II","start":57.0,"end":65.0,"color":"#7ac858"},{"label":"Episode 3 \u2014 Development","short":"Dev.","start":65.0,"end":111.0,"color":"#c8a030"},{"label":"Final entry: Bass","short":"Final","start":111.0,"end":119.0,"color":"#c86820"},{"label":"Pre-pedal","short":"Pre-pedal","start":119.0,"end":125.0,"color":"#c84828"},{"label":"Dominant pedal \u2014 Climax","short":"Climax","start":125.0,"end":147.0,"color":"#c82828"},{"label":"Coda","short":"Coda","start":147.0,"end":158.1,"color":"#7744aa"}],"notes":[{"voice":1,"pitch":62,"start":0.0,"duration":1.0,"velocity":68,"measure":1,"beat":1.0,"subject_pos":0,"motif":"subject","motif_pos":0,"best_pos":0,"similarity":1.0},{"voice":1,"pitch":69,"start":1.0,"duration":1.0,"velocity":68,"measure":1,"beat":3.0,"subject_pos":1,"motif":"subject","motif_pos":1,"best_pos":1,"similarity":1.0},{"voice":1,"pitch":65,"start":2.0,"duration":1.0,"velocity":68,"measure":2,"beat":1.0,"subject_pos":2,"motif":"subject","motif_pos":2,"best_pos":2,"similarity":1.0},{"voice":1,"pitch":62,"start":3.0,"duration":1.0,"velocity":68,"measure":2,"beat":3.0,"subject_pos":3,"motif":"subject","motif_pos":3,"best_pos":3,"similarity":1.0},{"voice":1,"pitch":61,"start":4.0,"duration":1.0,"velocity":68,"measure":3,"beat":1.0,"subject_pos":4,"motif":"subject","motif_pos":4,"best_pos":4,"similarity":1.0},{"voice":1,"pitch":62,"start":5.0,"duration":0.5,"velocity":68,"measure":3,"beat":3.0,"subject_pos":5,"motif":"subject","motif_pos":5,"best_pos":5,"similarity":1.0},{"voice":1,"pitch":64,"start":5.5,"duration":0.5,"velocity":68,"measure":3,"beat":4.0,"subject_pos":6,"motif":"subject","motif_pos":6,"best_pos":6,"similarity":1.0},{"voice":1,"pitch":65,"start":6.0,"duration":2.1927,"velocity":68,"measure":4,"beat":1.0,"subject_pos":7,"motif":"subject","motif_pos":7,"best_pos":7,"similarity":1.0},{"voice":1,"pitch":67,"start":8.25,"duration":0.25,"velocity":68,"measure":5,"beat":1.5,"subject_pos":-1,"motif":"","motif_pos":-1,"best_pos":6,"similarity":0.464},{"voice":1,"pitch":65,"start":8.5,"duration":0.25,"velocity":68,"measure":5,"beat":2.0,"subject_pos":-1,"motif":"","motif_pos":-1,"best_pos":3,"similarity":0.536},{"voice":1,"pitch":64,"start":8.75,"duration":0.25,"velocity":68,"measure":5,"beat":2.5,"subject_pos":-1,"motif":"","motif_pos":-1,"best_pos":4,"similarity":0.607},{"voice":0,"pitch":69,"start":9.0,"duration":1.0,"velocity":76,"measure":5,"beat":3.0,"subject_pos":0,"motif":"subject","motif_pos":0,"best_pos":0,"similarity":1.0},{"voice":1,"pitch":62,"start":9.0,"duration":0.5,"velocity":68,"measure":5,"beat":3.0,"subject_pos":-1,"motif":"","motif_pos":-1,"best_pos":5,"similarity":0.636},{"voice":1,"pitch":64,"start":9.5,"duration":0.5,"velocity":68,"measure":5,"beat":4.0,"subject_pos":-1,"motif":"","motif_pos":-1,"best_pos":6,"similarity":0.657},{"voice":0,"pitch":74,"start":10.0,"duration":1.0,"velocity":76,"measure":6,"beat":1.0,"subject_pos":1,"motif":"subject","motif_pos":1,"best_pos":1,"similarity":1.0},{"voice":1,"pitch":65,"start":10.0,"duration":0.5,"velocity":68,"measure":6,"beat":1.0,"subject_pos":-1,"motif":"","motif_pos":-1,"best_pos":5,"similarity":0.693},{"voice":1,"pitch":67,"start":10.5,"duration":0.5,"velocity":68,"measure":6,"beat":2.0,"subject_pos":-1,"motif":"","motif_pos":-1,"best_pos":6,"similarity":0.579},{"voice":0,"pitch":72,"start":11.0,"duration":1.0,"velocity":76,"measure":6,"beat":3.0,"subject_pos":2,"motif":"subject","motif_pos":2,"best_pos":2,"similarity":1.0},{"voice":1,"pitch":69,"start":11.0,"duration":0.4427,"velocity":68,"measure":6,"beat":3.0,"subject_pos":-1,"motif":"","motif_pos":-1,"best_pos":6,"similarity":0.375},{"voice":1,"pitch":57,"start":11.5,"duration":0.25,"velocity":68,"measure":6,"beat":4.0,"subject_pos":-1,"motif":"","motif_pos":-1,"best_pos":5,"similarity":0.443},{"voice":1,"pitch":59,"start":11.75,"duration":0.25,"velocity":68,"measure":6,"beat":4.5,"subject_pos":-1,"motif":"","motif_pos":-1,"best_pos":6,"similarity":0.579},{"voice":0,"pitch":69,"start":12.0,"duration":1.0,"velocity":76,"measure":7,"beat":1.0,"subject_pos":3,"motif":"subject","motif_pos":3,"best_pos":3,"similarity":1.0},{"voice":1,"pitch":60,"start":12.0,"duration":0.25,"velocity":68,"measure":7,"beat":1.0,"subject_pos":-1,"motif":"","motif_pos":-1,"best_pos":7,"similarity":0.429},{"voice":1,"pitch":57,"start":12.25,"duration":0.25,"velocity":68,"measure":7,"beat":1.5,"subject_pos":-1,"motif":"","motif_pos":-1,"best_pos":3,"similarity":0.314},{"voice":1,"pitch":65,"start":12.5,"duration":0.6927,"velocity":68,"measure":7,"beat":2.0,"subject_pos":-1,"motif":"","motif_pos":-1,"best_pos":4,"similarity":0.236},{"voice":0,"pitch":68,"start":13.0,"duration":1.0,"velocity":76,"measure":7,"beat":3.0,"subject_pos":4,"motif":"subject","motif_pos":4,"best_pos":4,"similarity":1.0},{"voice":1,"pitch":59,"start":13.25,"duration":0.25,"velocity":68,"measure":7,"beat":3.5,"subject_pos":-1,"motif":"","motif_pos":-1,"best_pos":0,"similarity":0.318},{"voice":1,"pitch":64,"start":13.5,"duration":0.75,"velocity":68,"measure":7,"beat":4.0,"subject_pos":-1,"motif":"","motif_pos":-1,"best_pos":1,"similarity":0.386},{"voice":0,"pitch":69,"start":14.0,"duration":0.5,"velocity":76,"measure":8,"beat":1.0,"subject_pos":5,"motif":"subject","motif_pos":5,"best_pos":5,"similarity":1.0},{"voice":1,"pitch":65,"start":14.25,"duration":0.25,"velocity":68,"measure":8,"beat":1.5,"subject_pos":-1,"motif":"","motif_pos":-1,"best_pos":3,"similarity":0.4},{"voice":0,"pitch":71,"start":14.5,"duration":0.5,"velocity":76,"measure":8,"beat":2.0,"subject_pos":6,"motif":"subject","motif_pos":6,"best_pos":6,"similarity":1.0},{"voice":1,"pitch":64,"start":14.5,"duration":0.25,"velocity":68,"measure":8,"beat":2.0,"subject_pos":-1,"motif":"","motif_pos":-1,"best_pos":4,"similarity":0.507},{"voice":1,"pitch":62,"start":14.75,"duration":0.25,"velocity":68,"measure":8,"beat":2.5,"subject_pos":-1,"motif":"","motif_pos":-1,"best_pos":4,"similarity":0.543},{"voice":0,"pitch":72,"start":15.0,"duration":1.4115,"velocity":76,"measure":8,"beat":3.0,"subject_pos":7,"motif":"subject","motif_pos":7,"best_pos":7,"similarity":1.0},{"voice":1,"pitch":64,"start":15.0,"duration":0.5,"velocity":68,"measure":8,"beat":3.0,"subject_pos":-1,"motif":"","motif_pos":-1,"best_pos":5,"similarity":0.661},{"voice":1,"pitch":66,"start":15.5,"duration":0.5,"velocity":68,"measure":8,"beat":4.0,"subject_pos":-1,"motif":"","motif_pos":-1,"best_pos":6,"similarity":0.679},{"voice":1,"pitch":67,"start":16.0,"duration":1.5,"velocity":68,"measure":9,"beat":1.0,"subject_pos":-1,"motif":"","motif_pos":-1,"best_pos":7,"similarity":0.464},{"voice":0,"pitch":74,"start":16.25,"duration":0.4115,"velocity":76,"measure":9,"beat":1.5,"subject_pos":-1,"motif":"","motif_pos":-1,"best_pos":6,"similarity":0.464},{"voice":0,"pitch":72,"start":16.5,"duration":0.4115,"velocity":76,"measure":9,"beat":2.0,"subject_pos":-1,"motif":"","motif_pos":-1,"best_pos":2,"similarity":0.586},{"voice":0,"pitch":70,"start":16.75,"duration":0.4115,"velocity":76,"measure":9,"beat":2.5,"subject_pos":-1,"motif":"","motif_pos":-1,"best_pos":3,"similarity":0.579},{"voice":0,"pitch":69,"start":17.0,"duration":0.4115,"velocity":76,"measure":9,"beat":3.0,"subject_pos":-1,"motif":"","motif_pos":-1,"best_pos":4,"similarity":0.446},{"voice":3,"pitch":50,"start":17.0,"duration":1.0,"velocity":53,"measure":9,"beat":3.0,"subject_pos":0,"motif":"subject","motif_pos":0,"best_pos":0,"similarity":1.0},{"voice":0,"pitch":62,"start":17.25,"duration":0.4115,"velocity":76,"measure":9,"beat":3.5,"subject_pos":-1,"motif":"","motif_pos":-1,"best_pos":2,"similarity":0.243},{"voice":0,"pitch":74,"start":17.5,"duration":1.0,"velocity":76,"measure":9,"beat":4.0,"subject_pos":-1,"motif":"","motif_pos":-1,"best_pos":3,"similarity":0.443},{"voice":1,"pitch":65,"start":17.5,"duration":0.5,"velocity":68,"measure":9,"beat":4.0,"subject_pos":-1,"motif":"","motif_pos":-1,"best_pos":3,"similarity":0.536},{"voice":1,"pitch":64,"start":18.0,"duration":1.0,"velocity":68,"measure":10,"beat":1.0,"subject_pos":-1,"motif":"","motif_pos":-1,"best_pos":4,"similarity":0.607},{"voice":3,"pitch":57,"start":18.0,"duration":1.0,"velocity":53,"measure":10,"beat":1.0,"subject_pos":1,"motif":"subject","motif_pos":1,"best_pos":1,"similarity":1.0},{"voice":0,"pitch":73,"start":18.5,"duration":0.5,"velocity":76,"measure":10,"beat":2.0,"subject_pos":-1,"motif":"","motif_pos":-1,"best_pos":4,"similarity":0.596},{"voice":0,"pitch":74,"start":19.0,"duration":0.4115,"velocity":76,"measure":10,"beat":3.0,"subject_pos":-1,"motif":"","motif_pos":-1,"best_pos":5,"similarity":0.464},{"voice":1,"pitch":62,"start":19.0,"duration":0.75,"velocity":68,"measure":10,"beat":3.0,"subject_pos":-1,"motif":"","motif_pos":-1,"best_pos":5,"similarity":0.636},{"voice":3,"pitch":53,"start":19.0,"duration":1.0,"velocity":53,"measure":10,"beat":3.0,"subject_pos":2,"motif":"subject","motif_pos":2,"best_pos":2,"similarity":1.0},{"voice":0,"pitch":69,"start":19.25,"duration":0.4115,"velocity":76,"measure":10,"beat":3.5,"subject_pos":-1,"motif":"","motif_pos":-1,"best_pos":6,"similarity":0.286},{"voice":0,"pitch":72,"start":19.5,"duration":0.9115,"velocity":76,"measure":10,"beat":4.0,"subject_pos":-1,"motif":"","motif_pos":-1,"best_pos":2,"similarity":0.321},{"voice":1,"pitch":64,"start":19.75,"duration":0.25,"velocity":68,"measure":10,"beat":4.5,"subject_pos":-1,"motif":"","motif_pos":-1,"best_pos":6,"similarity":0.657},{"voice":1,"pitch":65,"start":20.0,"duration":0.75,"velocity":68,"measure":11,"beat":1.0,"subject_pos":-1,"motif":"","motif_pos":-1,"best_pos":7,"similarity":0.436},{"voice":3,"pitch":50,"start":20.0,"duration":1.0,"velocity":53,"measure":11,"beat":1.0,"subject_pos":3,"motif":"subject","motif_pos":3,"best_pos":3,"similarity":1.0},{"voice":0,"pitch":69,"start":20.25,"duration":0.4115,"velocity":76,"measure":11,"beat":1.5,"subject_pos":-1,"motif":"","motif_pos":-1,"best_pos":4,"similarity":0.4},{"voice":0,"pitch":70,"start":20.5,"duration":0.9115,"velocity":76,"measure":11,"beat":2.0,"subject_pos":-1,"motif":"","motif_pos":-1,"best_pos":5,"similarity":0.336},{"voice":1,"pitch":62,"start":20.75,"duration":0.25,"velocity":68,"measure":11,"beat":2.5,"subject_pos":-1,"motif":"","motif_pos":-1,"best_pos":3,"similarity":0.386},{"voice":1,"pitch":67,"start":21.0,"duration":0.6927,"velocity":68,"measure":11,"beat":3.0,"subject_pos":-1,"motif":"","motif_pos":-1,"best_pos":1,"similarity":0.5},{"voice":3,"pitch":49,"start":21.0,"duration":1.0,"velocity":53,"measure":11,"beat":3.0,"subject_pos":4,"motif":"subject","motif_pos":4,"best_pos":4,"similarity":1.0},{"voice":0,"pitch":64,"start":21.25,"duration":0.4115,"velocity":76,"measure":11,"beat":3.5,"subject_pos":-1,"motif":"","motif_pos":-1,"best_pos":0,"similarity":0.304},{"voice":0,"pitch":69,"start":21.5,"duration":1.9115,"velocity":76,"measure":11,"beat":4.0,"subject_pos":-1,"motif":"","motif_pos":-1,"best_pos":1,"similarity":0.339},{"voice":1,"pitch":67,"start":21.75,"duration":0.25,"velocity":68,"measure":11,"beat":4.5,"subject_pos":-1,"motif":"","motif_pos":-1,"best_pos":2,"similarity":0.507},{"voice":1,"pitch":65,"start":22.0,"duration":0.25,"velocity":68,"measure":12,"beat":1.0,"subject_pos":-1,"motif":"","motif_pos":-1,"best_pos":3,"similarity":0.557},{"voice":3,"pitch":50,"start":22.0,"duration":0.5,"velocity":53,"measure":12,"beat":1.0,"subject_pos":5,"motif":"subject","motif_pos":5,"best_pos":5,"similarity":1.0},{"voice":1,"pitch":64,"start":22.25,"duration":0.25,"velocity":68,"measure":12,"beat":1.5,"subject_pos":-1,"motif":"","motif_pos":-1,"best_pos":2,"similarity":0.5},{"voice":1,"pitch":62,"start":22.5,"duration":0.25,"velocity":68,"measure":12,"beat":2.0,"subject_pos":-1,"motif":"","motif_pos":-1,"best_pos":3,"similarity":0.65},{"voice":3,"pitch":52,"start":22.5,"duration":0.5,"velocity":53,"measure":12,"beat":2.0,"subject_pos":6,"motif":"subject","motif_pos":6,"best_pos":6,"similarity":1.0},{"voice":1,"pitch":61,"start":22.75,"duration":0.25,"velocity":68,"measure":12,"beat":2.5,"subject_pos":-1,"motif":"","motif_pos":-1,"best_pos":4,"similarity":0.693},{"voice":1,"pitch":62,"start":23.0,"duration":0.4427,"velocity":68,"measure":12,"beat":3.0,"subject_pos":-1,"motif":"","motif_pos":-1,"best_pos":5,"similarity":0.493},{"voice":3,"pitch":53,"start":23.0,"duration":1.25,"velocity":53,"measure":12,"beat":3.0,"subject_pos":7,"motif":"subject","motif_pos":7,"best_pos":7,"similarity":1.0},{"voice":0,"pitch":72,"start":23.25,"duration":0.5,"velocity":76,"measure":12,"beat":3.5,"subject_pos":-1,"motif":"","motif_pos":-1,"best_pos":3,"similarity":0.429},{"voice":1,"pitch":67,"start":23.5,"duration":1.0,"velocity":68,"measure":12,"beat":4.0,"subject_pos":-1,"motif":"","motif_pos":-1,"best_pos":1,"similarity":0.386},{"voice":0,"pitch":71,"start":23.75,"duration":0.4115,"velocity":76,"measure":12,"beat":4.5,"subject_pos":-1,"motif":"","motif_pos":-1,"best_pos":4,"similarity":0.571},{"voice":0,"pitch":72,"start":24.0,"duration":1.4115,"velocity":76,"measure":13,"beat":1.0,"subject_pos":-1,"motif":"","motif_pos":-1,"best_pos":5,"similarity":0.429},{"voice":3,"pitch":55,"start":24.25,"duration":0.25,"velocity":53,"measure":13,"beat":1.5,"subject_pos":-1,"motif":"","motif_pos":-1,"best_pos":6,"similarity":0.464},{"voice":1,"pitch":60,"start":24.5,"duration":0.5,"velocity":68,"measure":13,"beat":2.0,"subject_pos":-1,"motif":"","motif_pos":-1,"best_pos":2,"similarity":0.386},{"voice":3,"pitch":53,"start":24.5,"duration":0.25,"velocity":53,"measure":13,"beat":2.0,"subject_pos":-1,"motif":"","motif_pos":-1,"best_pos":3,"similarity":0.464},{"voice":3,"pitch":52,"start":24.75,"duration":0.25,"velocity":53,"measure":13,"beat":2.5,"subject_pos":-1,"motif":"","motif_pos":-1,"best_pos":3,"similarity":0.436},{"voice":1,"pitch":65,"start":25.0,"duration":0.75,"velocity":68,"measure":13,"beat":3.0,"subject_pos":-1,"motif":"","motif_pos":-1,"best_pos":3,"similarity":0.514},{"voice":2,"pitch":57,"start":25.0,"duration":1.0,"velocity":59,"measure":13,"beat":3.0,"subject_pos":0,"motif":"subject","motif_pos":0,"best_pos":0,"similarity":1.0},{"voice":3,"pitch":50,"start":25.0,"duration":1.0,"velocity":53,"measure":13,"beat":3.0,"subject_pos":-1,"motif":"","motif_pos":-1,"best_pos":4,"similarity":0.464},{"voice":0,"pitch":60,"start":25.25,"duration":0.4115,"velocity":76,"measure":13,"beat":3.5,"subject_pos":-1,"motif":"","motif_pos":-1,"best_pos":6,"similarity":0.214},{"voice":0,"pitch":72,"start":25.5,"duration":0.9115,"velocity":76,"measure":13,"beat":4.0,"subject_pos":-1,"motif":"","motif_pos":-1,"best_pos":2,"similarity":0.307},{"voice":1,"pitch":64,"start":25.75,"duration":0.25,"velocity":68,"measure":13,"beat":4.5,"subject_pos":-1,"motif":"","motif_pos":-1,"best_pos":4,"similarity":0.579},{"voice":1,"pitch":65,"start":26.0,"duration":0.75,"velocity":68,"measure":14,"beat":1.0,"subject_pos":-1,"motif":"","motif_pos":-1,"best_pos":5,"similarity":0.429},{"voice":2,"pitch":62,"start":26.0,"duration":1.0,"velocity":59,"measure":14,"beat":1.0,"subject_pos":1,"motif":"subject","motif_pos":1,"best_pos":1,"similarity":1.0},{"voice":0,"pitch":69,"start":26.25,"duration":0.4115,"velocity":76,"measure":14,"beat":1.5,"subject_pos":-1,"motif":"","motif_pos":-1,"best_pos":3,"similarity":0.336},{"voice":0,"pitch":71,"start":26.5,"duration":1.0,"velocity":76,"measure":14,"beat":2.0,"subject_pos":-1,"motif":"","motif_pos":-1,"best_pos":2,"similarity":0.386},{"voice":1,"pitch":56,"start":26.75,"duration":0.25,"velocity":68,"measure":14,"beat":2.5,"subject_pos":-1,"motif":"","motif_pos":-1,"best_pos":0,"similarity":0.321},{"voice":1,"pitch":64,"start":27.0,"duration":1.5,"velocity":68,"measure":14,"beat":3.0,"subject_pos":-1,"motif":"","motif_pos":-1,"best_pos":1,"similarity":0.507},{"voice":2,"pitch":60,"start":27.0,"duration":1.0,"velocity":59,"measure":14,"beat":3.0,"subject_pos":2,"motif":"subject","motif_pos":2,"best_pos":2,"similarity":1.0},{"voice":0,"pitch":69,"start":27.5,"duration":0.4115,"velocity":76,"measure":14,"beat":4.0,"subject_pos":-1,"motif":"tail","motif_pos":3,"best_pos":3,"similarity":1.0},{"voice":3,"pitch":45,"start":27.5,"duration":0.25,"velocity":53,"measure":14,"beat":4.0,"subject_pos":-1,"motif":"","motif_pos":-1,"best_pos":5,"similarity":0.518},{"voice":0,"pitch":68,"start":27.75,"duration":0.4115,"velocity":76,"measure":14,"beat":4.5,"subject_pos":-1,"motif":"tail","motif_pos":4,"best_pos":4,"similarity":1.0},{"voice":3,"pitch":47,"start":27.75,"duration":0.25,"velocity":53,"measure":14,"beat":4.5,"subject_pos":-1,"motif":"","motif_pos":-1,"best_pos":6,"similarity":0.607},{"voice":0,"pitch":69,"start":28.0,"duration":1.0,"velocity":76,"measure":15,"beat":1.0,"subject_pos":-1,"motif":"tail","motif_pos":5,"best_pos":5,"similarity":1.0},{"voice":2,"pitch":57,"start":28.0,"duration":1.0,"velocity":59,"measure":15,"beat":1.0,"subject_pos":3,"motif":"subject","motif_pos":3,"best_pos":3,"similarity":1.0},{"voice":3,"pitch":48,"start":28.0,"duration":0.25,"velocity":53,"measure":15,"beat":1.0,"subject_pos":-1,"motif":"","motif_pos":-1,"best_pos":7,"similarity":0.429},{"voice":3,"pitch":45,"start":28.25,"duration":0.25,"velocity":53,"measure":15,"beat":1.5,"subject_pos":-1,"motif":"","motif_pos":-1,"best_pos":3,"similarity":0.314},{"voice":1,"pitch":62,"start":28.5,"duration":0.25,"velocity":68,"measure":15,"beat":2.0,"subject_pos":-1,"motif":"","motif_pos":-1,"best_pos":2,"similarity":0.532},{"voice":3,"pitch":53,"start":28.5,"duration":0.6927,"velocity":53,"measure":15,"beat":2.0,"subject_pos":-1,"motif":"","motif_pos":-1,"best_pos":4,"similarity":0.236},{"voice":1,"pitch":60,"start":28.75,"duration":0.25,"velocity":68,"measure":15,"beat":2.5,"subject_pos":-1,"motif":"","motif_pos":-1,"best_pos":4,"similarity":0.446},{"voice":0,"pitch":71,"start":29.0,"duration":1.0,"velocity":76,"measure":15,"beat":3.0,"subject_pos":-1,"motif":"tail","motif_pos":6,"best_pos":6,"similarity":1.0},{"voice":1,"pitch":62,"start":29.0,"duration":0.25,"velocity":68,"measure":15,"beat":3.0,"subject_pos":-1,"motif":"","motif_pos":-1,"best_pos":5,"similarity":0.429},{"voice":2,"pitch":56,"start":29.0,"duration":1.0,"velocity":59,"measure":15,"beat":3.0,"subject_pos":4,"motif":"subject","motif_pos":4,"best_pos":4,"similarity":1.0},{"voice":1,"pitch":65,"start":29.25,"duration":0.25,"velocity":68,"measure":15,"beat":3.5,"subject_pos":-1,"motif":"","motif_pos":-1,"best_pos":1,"similarity":0.321},{"voice":3,"pitch":47,"start":29.25,"duration":0.25,"velocity":53,"measure":15,"beat":3.5,"subject_pos":-1,"motif":"","motif_pos":-1,"best_pos":0,"similarity":0.318},{"voice":1,"pitch":64,"start":29.5,"duration":0.25,"velocity":68,"measure":15,"beat":4.0,"subject_pos":-1,"motif":"","motif_pos":-1,"best_pos":2,"similarity":0.429},{"voice":3,"pitch":52,"start":29.5,"duration":0.75,"velocity":53,"measure":15,"beat":4.0,"subject_pos":-1,"motif":"","motif_pos":-1,"best_pos":1,"similarity":0.386},{"voice":1,"pitch":62,"start":29.75,"duration":0.25,"velocity":68,"measure":15,"beat":4.5,"subject_pos":-1,"motif":"","motif_pos":-1,"best_pos":3,"similarity":0.446},{"voice":0,"pitch":72,"start":30.0,"duration":0.5,"velocity":76,"measure":16,"beat":1.0,"subject_pos":-1,"motif":"tail","motif_pos":7,"best_pos":7,"similarity":1.0},{"voice":1,"pitch":60,"start":30.0,"duration":0.5,"velocity":68,"measure":16,"beat":1.0,"subject_pos":-1,"motif":"","motif_pos":-1,"best_pos":5,"similarity":0.404},{"voice":2,"pitch":57,"start":30.0,"duration":0.5,"velocity":59,"measure":16,"beat":1.0,"subject_pos":5,"motif":"subject","motif_pos":5,"best_pos":5,"similarity":1.0},{"voice":3,"pitch":53,"start":30.25,"duration":0.25,"velocity":53,"measure":16,"beat":1.5,"subject_pos":-1,"motif":"","motif_pos":-1,"best_pos":3,"similarity":0.4},{"voice":0,"pitch":74,"start":30.5,"duration":0.5,"velocity":76,"measure":16,"beat":2.0,"subject_pos":-1,"motif":"","motif_pos":-1,"best_pos":6,"similarity":0.436},{"voice":2,"pitch":59,"start":30.5,"duration":0.5,"velocity":59,"measure":16,"beat":2.0,"subject_pos":6,"motif":"subject","motif_pos":6,"best_pos":6,"similarity":1.0},{"voice":3,"pitch":52,"start":30.5,"duration":0.25,"velocity":53,"measure":16,"beat":2.0,"subject_pos":-1,"motif":"","motif_pos":-1,"best_pos":4,"similarity":0.489},{"voice":3,"pitch":50,"start":30.75,"duration":0.25,"velocity":53,"measure":16,"beat":2.5,"subject_pos":-1,"motif":"","motif_pos":-1,"best_pos":5,"similarity":0.5},{"voice":0,"pitch":67,"start":31.0,"duration":0.4115,"velocity":76,"measure":16,"beat":3.0,"subject_pos":-1,"motif":"","motif_pos":-1,"best_pos":2,"similarity":0.257},{"voice":2,"pitch":60,"start":31.0,"duration":1.25,"velocity":59,"measure":16,"beat":3.0,"subject_pos":7,"motif":"subject","motif_pos":7,"best_pos":7,"similarity":1.0},{"voice":3,"pitch":52,"start":31.0,"duration":0.25,"velocity":53,"measure":16,"beat":3.0,"subject_pos":-1,"motif":"","motif_pos":-1,"best_pos":6,"similarity":0.443},{"voice":0,"pitch":70,"start":31.25,"duration":0.4115,"velocity":76,"measure":16,"beat":3.5,"subject_pos":-1,"motif":"","motif_pos":-1,"best_pos":3,"similarity":0.457},{"voice":3,"pitch":55,"start":31.25,"duration":0.25,"velocity":53,"measure":16,"beat":3.5,"subject_pos":-1,"motif":"","motif_pos":-1,"best_pos":3,"similarity":0.343},{"voice":0,"pitch":69,"start":31.5,"duration":0.9115,"velocity":76,"measure":16,"beat":4.0,"subject_pos":-1,"motif":"","motif_pos":-1,"best_pos":4,"similarity":0.6},{"voice":3,"pitch":54,"start":31.5,"duration":0.25,"velocity":53,"measure":16,"beat":4.0,"subject_pos":-1,"motif":"","motif_pos":-1,"best_pos":4,"similarity":0.379},{"voice":3,"pitch":57,"start":31.75,"duration":0.25,"velocity":53,"measure":16,"beat":4.5,"subject_pos":-1,"motif":"","motif_pos":-1,"best_pos":1,"similarity":0.4},{"voice":3,"pitch":55,"start":32.0,"duration":1.0,"velocity":53,"measure":17,"beat":1.0,"subject_pos":-1,"motif":"","motif_pos":-1,"best_pos":2,"similarity":0.414},{"voice":0,"pitch":70,"start":32.25,"duration":0.4115,"velocity":76,"measure":17,"beat":1.5,"subject_pos":-1,"motif":"","motif_pos":-1,"best_pos":5,"similarity":0.471},{"voice":2,"pitch":62,"start":32.25,"duration":0.25,"velocity":59,"measure":17,"beat":1.5,"subject_pos":-1,"motif":"","motif_pos":-1,"best_pos":6,"similarity":0.464},{"voice":0,"pitch":69,"start":32.5,"duration":0.4115,"velocity":76,"measure":17,"beat":2.0,"subject_pos":-1,"motif":"","motif_pos":-1,"best_pos":1,"similarity":0.446},{"voice":2,"pitch":60,"start":32.5,"duration":0.25,"velocity":59,"measure":17,"beat":2.0,"subject_pos":-1,"motif":"","motif_pos":-1,"best_pos":2,"similarity":0.586},{"voice":0,"pitch":67,"start":32.75,"duration":0.5,"velocity":76,"measure":17,"beat":2.5,"subject_pos":-1,"motif":"","motif_pos":-1,"best_pos":2,"similarity":0.614},{"voice":2,"pitch":58,"start":32.75,"duration":0.25,"velocity":59,"measure":17,"beat":2.5,"subject_pos":-1,"motif":"","motif_pos":-1,"best_pos":3,"similarity":0.65},{"voice":2,"pitch":57,"start":33.0,"duration":1.1927,"velocity":59,"measure":17,"beat":3.0,"subject_pos":-1,"motif":"","motif_pos":-1,"best_pos":4,"similarity":0.579},{"voice":3,"pitch":50,"start":33.0,"duration":1.4427,"velocity":53,"measure":17,"beat":3.0,"subject_pos":-1,"motif":"","motif_pos":-1,"best_pos":5,"similarity":0.371},{"voice":0,"pitch":64,"start":33.25,"duration":0.4115,"velocity":76,"measure":17,"beat":3.5,"subject_pos":-1,"motif":"","motif_pos":-1,"best_pos":3,"similarity":0.514},{"voice":0,"pitch":65,"start":33.5,"duration":0.4115,"velocity":76,"measure":17,"beat":4.0,"subject_pos":-1,"motif":"","motif_pos":-1,"best_pos":5,"similarity":0.357},{"voice":0,"pitch":62,"start":33.75,"duration":0.4115,"velocity":76,"measure":17,"beat":4.5,"subject_pos":-1,"motif":"","motif_pos":-1,"best_pos":3,"similarity":0.386},{"voice":0,"pitch":70,"start":34.0,"duration":1.4115,"velocity":76,"measure":18,"beat":1.0,"subject_pos":-1,"motif":"","motif_pos":-1,"best_pos":4,"similarity":0.329},{"voice":2,"pitch":53,"start":34.25,"duration":0.25,"velocity":59,"measure":18,"beat":1.5,"subject_pos":-1,"motif":"","motif_pos":-1,"best_pos":5,"similarity":0.479},{"voice":2,"pitch":55,"start":34.5,"duration":0.5,"velocity":59,"measure":18,"beat":2.0,"subject_pos":-1,"motif":"","motif_pos":-1,"best_pos":6,"similarity":0.386},{"voice":3,"pitch":52,"start":34.5,"duration":0.25,"velocity":53,"measure":18,"beat":2.0,"subject_pos":-1,"motif":"","motif_pos":-1,"best_pos":4,"similarity":0.379},{"voice":3,"pitch":50,"start":34.75,"duration":0.25,"velocity":53,"measure":18,"beat":2.5,"subject_pos":-1,"motif":"","motif_pos":-1,"best_pos":5,"similarity":0.489},{"voice":2,"pitch":60,"start":35.0,"duration":1.1927,"velocity":59,"measure":18,"beat":3.0,"subject_pos":-1,"motif":"","motif_pos":-1,"best_pos":1,"similarity":0.429},{"voice":3,"pitch":52,"start":35.0,"duration":0.4427,"velocity":53,"measure":18,"beat":3.0,"subject_pos":-1,"motif":"","motif_pos":-1,"best_pos":6,"similarity":0.593},{"voice":0,"pitch":67,"start":35.25,"duration":0.4115,"velocity":76,"measure":18,"beat":3.5,"subject_pos":-1,"motif":"","motif_pos":-1,"best_pos":5,"similarity":0.4},{"voice":0,"pitch":69,"start":35.5,"duration":0.5,"velocity":76,"measure":18,"beat":4.0,"subject_pos":-1,"motif":"","motif_pos":-1,"best_pos":0,"similarity":0.364},{"voice":3,"pitch":53,"start":35.5,"duration":0.25,"velocity":53,"measure":18,"beat":4.0,"subject_pos":-1,"motif":"","motif_pos":-1,"best_pos":5,"similarity":0.436},{"voice":3,"pitch":52,"start":35.75,"duration":0.25,"velocity":53,"measure":18,"beat":4.5,"subject_pos":-1,"motif":"","motif_pos":-1,"best_pos":4,"similarity":0.539},{"voice":0,"pitch":74,"start":36.0,"duration":1.4115,"velocity":76,"measure":19,"beat":1.0,"subject_pos":-1,"motif":"","motif_pos":-1,"best_pos":1,"similarity":0.443},{"voice":3,"pitch":54,"start":36.0,"duration":0.4427,"velocity":53,"measure":19,"beat":1.0,"subject_pos":-1,"motif":"","motif_pos":-1,"best_pos":6,"similarity":0.625},{"voice":2,"pitch":57,"start":36.25,"duration":0.25,"velocity":59,"measure":19,"beat":1.5,"subject_pos":-1,"motif":"","motif_pos":-1,"best_pos":3,"similarity":0.336},{"voice":2,"pitch":59,"start":36.5,"duration":0.5,"velocity":59,"measure":19,"beat":2.0,"subject_pos":-1,"motif":"","motif_pos":-1,"best_pos":0,"similarity":0.364},{"voice":3,"pitch":55,"start":36.5,"duration":0.25,"velocity":53,"measure":19,"beat":2.0,"subject_pos":-1,"motif":"","motif_pos":-1,"best_pos":7,"similarity":0.446},{"voice":3,"pitch":54,"start":36.75,"duration":0.25,"velocity":53,"measure":19,"beat":2.5,"subject_pos":-1,"motif":"","motif_pos":-1,"best_pos":4,"similarity":0.539},{"voice":2,"pitch":64,"start":37.0,"duration":1.1927,"velocity":59,"measure":19,"beat":3.0,"subject_pos":-1,"motif":"","motif_pos":-1,"best_pos":1,"similarity":0.443},{"voice":3,"pitch":56,"start":37.0,"duration":0.4427,"velocity":53,"measure":19,"beat":3.0,"subject_pos":-1,"motif":"","motif_pos":-1,"best_pos":6,"similarity":0.625},{"voice":0,"pitch":71,"start":37.25,"duration":0.4115,"velocity":76,"measure":19,"beat":3.5,"subject_pos":-1,"motif":"","motif_pos":-1,"best_pos":4,"similarity":0.386},{"voice":0,"pitch":72,"start":37.5,"duration":0.5,"velocity":76,"measure":19,"beat":4.0,"subject_pos":-1,"motif":"","motif_pos":-1,"best_pos":5,"similarity":0.364},{"voice":3,"pitch":57,"start":37.5,"duration":0.25,"velocity":53,"measure":19,"beat":4.0,"subject_pos":-1,"motif":"","motif_pos":-1,"best_pos":3,"similarity":0.507},{"voice":3,"pitch":56,"start":37.75,"duration":0.25,"velocity":53,"measure":19,"beat":4.5,"subject_pos":-1,"motif":"","motif_pos":-1,"best_pos":4,"similarity":0.682},{"voice":0,"pitch":77,"start":38.0,"duration":1.4115,"velocity":76,"measure":20,"beat":1.0,"subject_pos":-1,"motif":"","motif_pos":-1,"best_pos":1,"similarity":0.429},{"voice":3,"pitch":57,"start":38.0,"duration":0.4427,"velocity":53,"measure":20,"beat":1.0,"subject_pos":-1,"motif":"","motif_pos":-1,"best_pos":5,"similarity":0.614},{"voice":2,"pitch":61,"start":38.25,"duration":0.25,"velocity":59,"measure":20,"beat":1.5,"subject_pos":-1,"motif":"","motif_pos":-1,"best_pos":4,"similarity":0.386},{"voice":2,"pitch":62,"start":38.5,"duration":0.5,"velocity":59,"measure":20,"beat":2.0,"subject_pos":-1,"motif":"","motif_pos":-1,"best_pos":5,"similarity":0.364},{"voice":3,"pitch":58,"start":38.5,"duration":0.25,"velocity":53,"measure":20,"beat":2.0,"subject_pos":-1,"motif":"","motif_pos":-1,"best_pos":5,"similarity":0.439},{"voice":3,"pitch":57,"start":38.75,"duration":0.25,"velocity":53,"measure":20,"beat":2.5,"subject_pos":-1,"motif":"","motif_pos":-1,"best_pos":5,"similarity":0.543},{"voice":2,"pitch":67,"start":39.0,"duration":1.1927,"velocity":59,"measure":20,"beat":3.0,"subject_pos":-1,"motif":"","motif_pos":-1,"best_pos":1,"similarity":0.514},{"voice":3,"pitch":59,"start":39.0,"duration":0.4427,"velocity":53,"measure":20,"beat":3.0,"subject_pos":-1,"motif":"","motif_pos":-1,"best_pos":6,"similarity":0.625},{"voice":0,"pitch":74,"start":39.25,"duration":0.4115,"velocity":76,"measure":20,"beat":3.5,"subject_pos":-1,"motif":"","motif_pos":-1,"best_pos":3,"similarity":0.329},{"voice":0,"pitch":76,"start":39.5,"duration":0.5,"velocity":76,"measure":20,"beat":4.0,"subject_pos":-1,"motif":"","motif_pos":-1,"best_pos":6,"similarity":0.3},{"voice":3,"pitch":60,"start":39.5,"duration":0.25,"velocity":53,"measure":20,"beat":4.0,"subject_pos":-1,"motif":"","motif_pos":-1,"best_pos":7,"similarity":0.446},{"voice":3,"pitch":59,"start":39.75,"duration":0.25,"velocity":53,"measure":20,"beat":4.5,"subject_pos":-1,"motif":"","motif_pos":-1,"best_pos":5,"similarity":0.536},{"voice":0,"pitch":69,"start":40.0,"duration":0.5,"velocity":76,"measure":21,"beat":1.0,"subject_pos":-1,"motif":"","motif_pos":-1,"best_pos":0,"similarity":0.364},{"voice":3,"pitch":61,"start":40.0,"duration":0.4427,"velocity":53,"measure":21,"beat":1.0,"subject_pos":-1,"motif":"","motif_pos":-1,"best_pos":6,"similarity":0.625},{"voice":2,"pitch":64,"start":40.25,"duration":0.25,"velocity":59,"measure":21,"beat":1.5,"subject_pos":-1,"motif":"","motif_pos":-1,"best_pos":2,"similarity":0.464},{"voice":0,"pitch":74,"start":40.5,"duration":0.9115,"velocity":76,"measure":21,"beat":2.0,"subject_pos":-1,"motif":"","motif_pos":-1,"best_pos":1,"similarity":0.443},{"voice":2,"pitch":65,"start":40.5,"duration":0.5,"velocity":59,"measure":21,"beat":2.0,"subject_pos":-1,"motif":"","motif_pos":-1,"best_pos":3,"similarity":0.471},{"voice":3,"pitch":62,"start":40.5,"duration":0.25,"velocity":53,"measure":21,"beat":2.0,"subject_pos":-1,"motif":"","motif_pos":-1,"best_pos":5,"similarity":0.461},{"voice":3,"pitch":56,"start":40.75,"duration":0.25,"velocity":53,"measure":21,"beat":2.5,"subject_pos":-1,"motif":"","motif_pos":-1,"best_pos":6,"similarity":0.436},{"voice":2,"pitch":64,"start":41.0,"duration":0.75,"velocity":59,"measure":21,"beat":3.0,"subject_pos":-1,"motif":"","motif_pos":-1,"best_pos":4,"similarity":0.4},{"voice":3,"pitch":57,"start":41.0,"duration":1.1927,"velocity":53,"measure":21,"beat":3.0,"subject_pos":-1,"motif":"","motif_pos":-1,"best_pos":5,"similarity":0.364},{"voice":0,"pitch":71,"start":41.25,"duration":0.4115,"velocity":76,"measure":21,"beat":3.5,"subject_pos":-1,"motif":"","motif_pos":-1,"best_pos":4,"similarity":0.371},{"voice":0,"pitch":72,"start":41.5,"duration":0.5,"velocity":76,"measure":21,"beat":4.0,"subject_pos":-1,"motif":"","motif_pos":-1,"best_pos":5,"similarity":0.336},{"voice":2,"pitch":69,"start":41.75,"duration":0.25,"velocity":59,"measure":21,"beat":4.5,"subject_pos":-1,"motif":"","motif_pos":-1,"best_pos":1,"similarity":0.332},{"voice":0,"pitch":65,"start":42.0,"duration":0.5,"velocity":76,"measure":22,"beat":1.0,"subject_pos":-1,"motif":"","motif_pos":-1,"best_pos":0,"similarity":0.364},{"voice":2,"pitch":62,"start":42.0,"duration":0.75,"velocity":59,"measure":22,"beat":1.0,"subject_pos":-1,"motif":"","motif_pos":-1,"best_pos":5,"similarity":0.318},{"voice":3,"pitch":53,"start":42.25,"duration":0.25,"velocity":53,"measure":22,"beat":1.5,"subject_pos":-1,"motif":"","motif_pos":-1,"best_pos":2,"similarity":0.407},{"voice":0,"pitch":70,"start":42.5,"duration":0.5,"velocity":76,"measure":22,"beat":2.0,"subject_pos":-1,"motif":"","motif_pos":-1,"best_pos":1,"similarity":0.443},{"voice":3,"pitch":55,"start":42.5,"duration":0.6927,"velocity":53,"measure":22,"beat":2.0,"subject_pos":-1,"motif":"","motif_pos":-1,"best_pos":3,"similarity":0.364},{"voice":2,"pitch":64,"start":42.75,"duration":0.25,"velocity":59,"measure":22,"beat":2.5,"subject_pos":-1,"motif":"","motif_pos":-1,"best_pos":2,"similarity":0.35},{"voice":0,"pitch":69,"start":43.0,"duration":1.0,"velocity":76,"measure":22,"beat":3.0,"subject_pos":-1,"motif":"","motif_pos":-1,"best_pos":2,"similarity":0.321},{"voice":2,"pitch":61,"start":43.0,"duration":0.5,"velocity":59,"measure":22,"beat":3.0,"subject_pos":-1,"motif":"","motif_pos":-1,"best_pos":3,"similarity":0.443},{"voice":3,"pitch":52,"start":43.25,"duration":0.25,"velocity":53,"measure":22,"beat":3.5,"subject_pos":-1,"motif":"","motif_pos":-1,"best_pos":4,"similarity":0.464},{"voice":2,"pitch":62,"start":43.5,"duration":0.25,"velocity":59,"measure":22,"beat":4.0,"subject_pos":-1,"motif":"","motif_pos":-1,"best_pos":4,"similarity":0.4},{"voice":3,"pitch":53,"start":43.5,"duration":0.6927,"velocity":53,"measure":22,"beat":4.0,"subject_pos":-1,"motif":"","motif_pos":-1,"best_pos":4,"similarity":0.4},{"voice":2,"pitch":57,"start":43.75,"duration":0.25,"velocity":59,"measure":22,"beat":4.5,"subject_pos":-1,"motif":"","motif_pos":-1,"best_pos":5,"similarity":0.464},{"voice":0,"pitch":62,"start":44.0,"duration":0.5,"velocity":76,"measure":23,"beat":1.0,"subject_pos":-1,"motif":"","motif_pos":-1,"best_pos":0,"similarity":0.364},{"voice":2,"pitch":59,"start":44.0,"duration":0.75,"velocity":59,"measure":23,"beat":1.0,"subject_pos":-1,"motif":"","motif_pos":-1,"best_pos":5,"similarity":0.593},{"voice":3,"pitch":50,"start":44.25,"duration":0.25,"velocity":53,"measure":23,"beat":1.5,"subject_pos":-1,"motif":"","motif_pos":-1,"best_pos":5,"similarity":0.436},{"voice":0,"pitch":67,"start":44.5,"duration":0.9115,"velocity":76,"measure":23,"beat":2.0,"subject_pos":-1,"motif":"","motif_pos":-1,"best_pos":1,"similarity":0.443},{"voice":3,"pitch":52,"start":44.5,"duration":0.5,"velocity":53,"measure":23,"beat":2.0,"subject_pos":-1,"motif":"","motif_pos":-1,"best_pos":1,"similarity":0.464},{"voice":2,"pitch":61,"start":44.75,"duration":0.25,"velocity":59,"measure":23,"beat":2.5,"subject_pos":-1,"motif":"","motif_pos":-1,"best_pos":6,"similarity":0.65},{"voice":1,"pitch":62,"start":45.0,"duration":1.0,"velocity":68,"measure":23,"beat":3.0,"subject_pos":0,"motif":"subject","motif_pos":0,"best_pos":0,"similarity":1.0},{"voice":2,"pitch":62,"start":45.0,"duration":0.4427,"velocity":59,"measure":23,"beat":3.0,"subject_pos":-1,"motif":"","motif_pos":-1,"best_pos":7,"similarity":0.464},{"voice":3,"pitch":50,"start":45.0,"duration":1.1927,"velocity":53,"measure":23,"beat":3.0,"subject_pos":-1,"motif":"","motif_pos":-1,"best_pos":2,"similarity":0.671},{"voice":0,"pitch":64,"start":45.25,"duration":0.4115,"velocity":76,"measure":23,"beat":3.5,"subject_pos":-1,"motif":"","motif_pos":-1,"best_pos":4,"similarity":0.364},{"voice":0,"pitch":65,"start":45.5,"duration":0.4115,"velocity":76,"measure":23,"beat":4.0,"subject_pos":-1,"motif":"","motif_pos":-1,"best_pos":5,"similarity":0.321},{"voice":2,"pitch":57,"start":45.5,"duration":2.5,"velocity":59,"measure":23,"beat":4.0,"subject_pos":-1,"motif":"","motif_pos":-1,"best_pos":6,"similarity":0.436},{"voice":0,"pitch":74,"start":45.75,"duration":0.4115,"velocity":76,"measure":23,"beat":4.5,"subject_pos":-1,"motif":"","motif_pos":-1,"best_pos":6,"similarity":0.161},{"voice":0,"pitch":64,"start":46.0,"duration":1.4115,"velocity":76,"measure":24,"beat":1.0,"subject_pos":-1,"motif":"","motif_pos":-1,"best_pos":1,"similarity":0.321},{"voice":1,"pitch":69,"start":46.0,"duration":1.0,"velocity":68,"measure":24,"beat":1.0,"subject_pos":1,"motif":"subject","motif_pos":1,"best_pos":1,"similarity":1.0},{"voice":3,"pitch":47,"start":46.25,"duration":0.25,"velocity":53,"measure":24,"beat":1.5,"subject_pos":-1,"motif":"","motif_pos":-1,"best_pos":3,"similarity":0.614},{"voice":3,"pitch":49,"start":46.5,"duration":0.5,"velocity":53,"measure":24,"beat":2.0,"subject_pos":-1,"motif":"","motif_pos":-1,"best_pos":6,"similarity":0.621},{"voice":1,"pitch":65,"start":47.0,"duration":1.0,"velocity":68,"measure":24,"beat":3.0,"subject_pos":2,"motif":"subject","motif_pos":2,"best_pos":2,"similarity":1.0},{"voice":3,"pitch":50,"start":47.0,"duration":0.75,"velocity":53,"measure":24,"beat":3.0,"subject_pos":-1,"motif":"","motif_pos":-1,"best_pos":1,"similarity":0.457},{"voice":0,"pitch":62,"start":47.25,"duration":0.4115,"velocity":76,"measure":24,"beat":3.5,"subject_pos":-1,"motif":"","motif_pos":-1,"best_pos":0,"similarity":0.429},{"voice":0,"pitch":69,"start":47.5,"duration":1.0,"velocity":76,"measure":24,"beat":4.0,"subject_pos":-1,"motif":"","motif_pos":-1,"best_pos":1,"similarity":0.607},{"voice":3,"pitch":48,"start":47.75,"duration":0.25,"velocity":53,"measure":24,"beat":4.5,"subject_pos":-1,"motif":"","motif_pos":-1,"best_pos":2,"similarity":0.593},{"voice":1,"pitch":62,"start":48.0,"duration":1.0,"velocity":68,"measure":25,"beat":1.0,"subject_pos":3,"motif":"subject","motif_pos":3,"best_pos":3,"similarity":1.0},{"voice":2,"pitch":58,"start":48.0,"duration":1.0,"velocity":59,"measure":25,"beat":1.0,"subject_pos":-1,"motif":"","motif_pos":-1,"best_pos":7,"similarity":0.357},{"voice":3,"pitch":46,"start":48.0,"duration":1.0,"velocity":53,"measure":25,"beat":1.0,"subject_pos":-1,"motif":"","motif_pos":-1,"best_pos":3,"similarity":0.6},{"voice":0,"pitch":67,"start":48.5,"duration":0.5,"velocity":76,"measure":25,"beat":2.0,"subject_pos":-1,"motif":"","motif_pos":-1,"best_pos":2,"similarity":0.5},{"voice":0,"pitch":69,"start":49.0,"duration":1.0,"velocity":76,"measure":25,"beat":3.0,"subject_pos":-1,"motif":"","motif_pos":-1,"best_pos":6,"similarity":0.443},{"voice":1,"pitch":61,"start":49.0,"duration":1.0,"velocity":68,"measure":25,"beat":3.0,"subject_pos":4,"motif":"subject","motif_pos":4,"best_pos":4,"similarity":1.0},{"voice":3,"pitch":45,"start":49.0,"duration":0.75,"velocity":53,"measure":25,"beat":3.0,"subject_pos":-1,"motif":"","motif_pos":-1,"best_pos":4,"similarity":0.507},{"voice":2,"pitch":52,"start":49.25,"duration":0.25,"velocity":59,"measure":25,"beat":3.5,"subject_pos":-1,"motif":"","motif_pos":-1,"best_pos":0,"similarity":0.318},{"voice":2,"pitch":57,"start":49.5,"duration":0.6927,"velocity":59,"measure":25,"beat":4.0,"subject_pos":-1,"motif":"","motif_pos":-1,"best_pos":1,"similarity":0.386},{"voice":3,"pitch":43,"start":49.75,"duration":0.25,"velocity":53,"measure":25,"beat":4.5,"subject_pos":-1,"motif":"","motif_pos":-1,"best_pos":2,"similarity":0.45},{"voice":1,"pitch":62,"start":50.0,"duration":0.5,"velocity":68,"measure":26,"beat":1.0,"subject_pos":5,"motif":"subject","motif_pos":5,"best_pos":5,"similarity":1.0},{"voice":3,"pitch":41,"start":50.0,"duration":0.25,"velocity":53,"measure":26,"beat":1.0,"subject_pos":-1,"motif":"","motif_pos":-1,"best_pos":4,"similarity":0.425},{"voice":2,"pitch":58,"start":50.25,"duration":0.25,"velocity":59,"measure":26,"beat":1.5,"subject_pos":-1,"motif":"","motif_pos":-1,"best_pos":3,"similarity":0.4},{"voice":3,"pitch":43,"start":50.25,"duration":0.25,"velocity":53,"measure":26,"beat":1.5,"subject_pos":-1,"motif":"","motif_pos":-1,"best_pos":1,"similarity":0.386},{"voice":1,"pitch":64,"start":50.5,"duration":0.5,"velocity":68,"measure":26,"beat":2.0,"subject_pos":6,"motif":"subject","motif_pos":6,"best_pos":6,"similarity":1.0},{"voice":2,"pitch":57,"start":50.5,"duration":0.25,"velocity":59,"measure":26,"beat":2.0,"subject_pos":-1,"motif":"","motif_pos":-1,"best_pos":4,"similarity":0.507},{"voice":3,"pitch":41,"start":50.5,"duration":0.25,"velocity":53,"measure":26,"beat":2.0,"subject_pos":-1,"motif":"","motif_pos":-1,"best_pos":3,"similarity":0.493},{"voice":2,"pitch":55,"start":50.75,"duration":0.25,"velocity":59,"measure":26,"beat":2.5,"subject_pos":-1,"motif":"","motif_pos":-1,"best_pos":4,"similarity":0.543},{"voice":3,"pitch":40,"start":50.75,"duration":0.25,"velocity":53,"measure":26,"beat":2.5,"subject_pos":-1,"motif":"","motif_pos":-1,"best_pos":4,"similarity":0.482},{"voice":1,"pitch":65,"start":51.0,"duration":1.25,"velocity":68,"measure":26,"beat":3.0,"subject_pos":7,"motif":"subject","motif_pos":7,"best_pos":7,"similarity":1.0},{"voice":2,"pitch":57,"start":51.0,"duration":0.5,"velocity":59,"measure":26,"beat":3.0,"subject_pos":-1,"motif":"","motif_pos":-1,"best_pos":5,"similarity":0.661},{"voice":3,"pitch":38,"start":51.0,"duration":0.25,"velocity":53,"measure":26,"beat":3.0,"subject_pos":-1,"motif":"","motif_pos":-1,"best_pos":2,"similarity":0.436},{"voice":3,"pitch":41,"start":51.25,"duration":0.25,"velocity":53,"measure":26,"beat":3.5,"subject_pos":-1,"motif":"","motif_pos":-1,"best_pos":3,"similarity":0.443},{"voice":2,"pitch":59,"start":51.5,"duration":0.5,"velocity":59,"measure":26,"beat":4.0,"subject_pos":-1,"motif":"","motif_pos":-1,"best_pos":6,"similarity":0.679},{"voice":3,"pitch":40,"start":51.5,"duration":0.25,"velocity":53,"measure":26,"beat":4.0,"subject_pos":-1,"motif":"","motif_pos":-1,"best_pos":4,"similarity":0.386},{"voice":3,"pitch":38,"start":51.75,"duration":0.25,"velocity":53,"measure":26,"beat":4.5,"subject_pos":-1,"motif":"","motif_pos":-1,"best_pos":0,"similarity":0.429},{"voice":2,"pitch":60,"start":52.0,"duration":1.1927,"velocity":59,"measure":27,"beat":1.0,"subject_pos":-1,"motif":"","motif_pos":-1,"best_pos":7,"similarity":0.464},{"voice":3,"pitch":45,"start":52.0,"duration":0.75,"velocity":53,"measure":27,"beat":1.0,"subject_pos":-1,"motif":"","motif_pos":-1,"best_pos":1,"similarity":0.589},{"voice":1,"pitch":67,"start":52.25,"duration":0.25,"velocity":68,"measure":27,"beat":1.5,"subject_pos":-1,"motif":"","motif_pos":-1,"best_pos":6,"similarity":0.464},{"voice":1,"pitch":65,"start":52.5,"duration":0.25,"velocity":68,"measure":27,"beat":2.0,"subject_pos":-1,"motif":"","motif_pos":-1,"best_pos":3,"similarity":0.471},{"voice":1,"pitch":64,"start":52.75,"duration":0.25,"velocity":68,"measure":27,"beat":2.5,"subject_pos":-1,"motif":"","motif_pos":-1,"best_pos":4,"similarity":0.414},{"voice":3,"pitch":41,"start":52.75,"duration":0.25,"velocity":53,"measure":27,"beat":2.5,"subject_pos":-1,"motif":"","motif_pos":-1,"best_pos":2,"similarity":0.464},{"voice":1,"pitch":62,"start":53.0,"duration":0.5,"velocity":68,"measure":27,"beat":3.0,"subject_pos":-1,"motif":"","motif_pos":-1,"best_pos":2,"similarity":0.393},{"voice":3,"pitch":46,"start":53.0,"duration":0.75,"velocity":53,"measure":27,"beat":3.0,"subject_pos":-1,"motif":"","motif_pos":-1,"best_pos":1,"similarity":0.436},{"voice":2,"pitch":57,"start":53.25,"duration":0.25,"velocity":59,"measure":27,"beat":3.5,"subject_pos":-1,"motif":"","motif_pos":-1,"best_pos":6,"similarity":0.436},{"voice":1,"pitch":67,"start":53.5,"duration":0.6927,"velocity":68,"measure":27,"beat":4.0,"subject_pos":-1,"motif":"","motif_pos":-1,"best_pos":1,"similarity":0.514},{"voice":2,"pitch":58,"start":53.5,"duration":0.5,"velocity":59,"measure":27,"beat":4.0,"subject_pos":-1,"motif":"","motif_pos":-1,"best_pos":3,"similarity":0.407},{"voice":3,"pitch":43,"start":53.75,"duration":0.25,"velocity":53,"measure":27,"beat":4.5,"subject_pos":-1,"motif":"","motif_pos":-1,"best_pos":3,"similarity":0.339},{"voice":2,"pitch":57,"start":54.0,"duration":0.5,"velocity":59,"measure":28,"beat":1.0,"subject_pos":-1,"motif":"","motif_pos":-1,"best_pos":4,"similarity":0.436},{"voice":3,"pitch":50,"start":54.0,"duration":0.75,"velocity":53,"measure":28,"beat":1.0,"subject_pos":-1,"motif":"","motif_pos":-1,"best_pos":1,"similarity":0.286},{"voice":1,"pitch":64,"start":54.25,"duration":0.25,"velocity":68,"measure":28,"beat":1.5,"subject_pos":-1,"motif":"","motif_pos":-1,"best_pos":2,"similarity":0.464},{"voice":1,"pitch":65,"start":54.5,"duration":0.5,"velocity":68,"measure":28,"beat":2.0,"subject_pos":-1,"motif":"","motif_pos":-1,"best_pos":3,"similarity":0.471},{"voice":2,"pitch":62,"start":54.5,"duration":0.6927,"velocity":59,"measure":28,"beat":2.0,"subject_pos":-1,"motif":"","motif_pos":-1,"best_pos":1,"similarity":0.514},{"voice":3,"pitch":53,"start":54.75,"duration":0.25,"velocity":53,"measure":28,"beat":2.5,"subject_pos":-1,"motif":"","motif_pos":-1,"best_pos":5,"similarity":0.214},{"voice":1,"pitch":64,"start":55.0,"duration":0.5,"velocity":68,"measure":28,"beat":3.0,"subject_pos":-1,"motif":"","motif_pos":-1,"best_pos":4,"similarity":0.436},{"voice":3,"pitch":57,"start":55.0,"duration":0.75,"velocity":53,"measure":28,"beat":3.0,"subject_pos":-1,"motif":"","motif_pos":-1,"best_pos":1,"similarity":0.179},{"voice":2,"pitch":59,"start":55.25,"duration":0.25,"velocity":59,"measure":28,"beat":3.5,"subject_pos":-1,"motif":"","motif_pos":-1,"best_pos":2,"similarity":0.464},{"voice":1,"pitch":69,"start":55.5,"duration":0.6927,"velocity":68,"measure":28,"beat":4.0,"subject_pos":-1,"motif":"","motif_pos":-1,"best_pos":1,"similarity":0.514},{"voice":2,"pitch":60,"start":55.5,"duration":0.5,"velocity":59,"measure":28,"beat":4.0,"subject_pos":-1,"motif":"","motif_pos":-1,"best_pos":3,"similarity":0.471},{"voice":3,"pitch":45,"start":55.75,"duration":0.25,"velocity":53,"measure":28,"beat":4.5,"subject_pos":-1,"motif":"","motif_pos":-1,"best_pos":0,"similarity":0.321},{"voice":2,"pitch":59,"start":56.0,"duration":0.5,"velocity":59,"measure":29,"beat":1.0,"subject_pos":-1,"motif":"","motif_pos":-1,"best_pos":4,"similarity":0.371},{"voice":3,"pitch":52,"start":56.0,"duration":0.5,"velocity":53,"measure":29,"beat":1.0,"subject_pos":-1,"motif":"","motif_pos":-1,"best_pos":1,"similarity":0.364},{"voice":1,"pitch":66,"start":56.25,"duration":0.25,"velocity":68,"measure":29,"beat":1.5,"subject_pos":-1,"motif":"","motif_pos":-1,"best_pos":2,"similarity":0.457},{"voice":1,"pitch":67,"start":56.5,"duration":0.5,"velocity":68,"measure":29,"beat":2.0,"subject_pos":-1,"motif":"","motif_pos":-1,"best_pos":3,"similarity":0.457},{"voice":2,"pitch":64,"start":56.5,"duration":0.6927,"velocity":59,"measure":29,"beat":2.0,"subject_pos":-1,"motif":"","motif_pos":-1,"best_pos":1,"similarity":0.35},{"voice":0,"pitch":69,"start":57.0,"duration":1.0,"velocity":76,"measure":29,"beat":3.0,"subject_pos":0,"motif":"subject","motif_pos":0,"best_pos":0,"similarity":1.0},{"voice":1,"pitch":66,"start":57.0,"duration":0.75,"velocity":68,"measure":29,"beat":3.0,"subject_pos":-1,"motif":"","motif_pos":-1,"best_pos":4,"similarity":0.407},{"voice":2,"pitch":57,"start":57.25,"duration":0.25,"velocity":59,"measure":29,"beat":3.5,"subject_pos":-1,"motif":"","motif_pos":-1,"best_pos":0,"similarity":0.357},{"voice":2,"pitch":62,"start":57.5,"duration":0.6927,"velocity":59,"measure":29,"beat":4.0,"subject_pos":-1,"motif":"","motif_pos":-1,"best_pos":1,"similarity":0.5},{"voice":1,"pitch":74,"start":57.75,"duration":0.25,"velocity":68,"measure":29,"beat":4.5,"subject_pos":-1,"motif":"","motif_pos":-1,"best_pos":5,"similarity":0.293},{"voice":0,"pitch":76,"start":58.0,"duration":1.0,"velocity":76,"measure":30,"beat":1.0,"subject_pos":1,"motif":"subject","motif_pos":1,"best_pos":1,"similarity":1.0},{"voice":1,"pitch":68,"start":58.0,"duration":1.0,"velocity":68,"measure":30,"beat":1.0,"subject_pos":-1,"motif":"","motif_pos":-1,"best_pos":6,"similarity":0.357},{"voice":3,"pitch":52,"start":58.0,"duration":1.0,"velocity":53,"measure":30,"beat":1.0,"subject_pos":-1,"motif":"","motif_pos":-1,"best_pos":0,"similarity":0.436},{"voice":2,"pitch":62,"start":58.25,"duration":0.25,"velocity":59,"measure":30,"beat":1.5,"subject_pos":-1,"motif":"","motif_pos":-1,"best_pos":2,"similarity":0.571},{"voice":2,"pitch":60,"start":58.5,"duration":0.25,"velocity":59,"measure":30,"beat":2.0,"subject_pos":-1,"motif":"","motif_pos":-1,"best_pos":3,"similarity":0.75},{"voice":2,"pitch":59,"start":58.75,"duration":0.25,"velocity":59,"measure":30,"beat":2.5,"subject_pos":-1,"motif":"","motif_pos":-1,"best_pos":4,"similarity":0.839},{"voice":0,"pitch":72,"start":59.0,"duration":1.0,"velocity":76,"measure":30,"beat":3.0,"subject_pos":2,"motif":"subject","motif_pos":2,"best_pos":2,"similarity":1.0},{"voice":1,"pitch":69,"start":59.0,"duration":0.5,"velocity":68,"measure":30,"beat":3.0,"subject_pos":-1,"motif":"","motif_pos":-1,"best_pos":5,"similarity":0.321},{"voice":2,"pitch":60,"start":59.0,"duration":0.25,"velocity":59,"measure":30,"beat":3.0,"subject_pos":-1,"motif":"","motif_pos":-1,"best_pos":5,"similarity":0.821},{"voice":3,"pitch":57,"start":59.0,"duration":1.0,"velocity":53,"measure":30,"beat":3.0,"subject_pos":-1,"motif":"","motif_pos":-1,"best_pos":1,"similarity":0.657},{"voice":2,"pitch":62,"start":59.25,"duration":0.25,"velocity":59,"measure":30,"beat":3.5,"subject_pos":-1,"motif":"","motif_pos":-1,"best_pos":6,"similarity":0.643},{"voice":2,"pitch":64,"start":59.5,"duration":0.6927,"velocity":59,"measure":30,"beat":4.0,"subject_pos":-1,"motif":"","motif_pos":-1,"best_pos":6,"similarity":0.518},{"voice":1,"pitch":57,"start":59.75,"duration":0.25,"velocity":68,"measure":30,"beat":4.5,"subject_pos":-1,"motif":"","motif_pos":-1,"best_pos":6,"similarity":0.214},{"voice":0,"pitch":69,"start":60.0,"duration":1.0,"velocity":76,"measure":31,"beat":1.0,"subject_pos":3,"motif":"subject","motif_pos":3,"best_pos":3,"similarity":1.0},{"voice":1,"pitch":60,"start":60.0,"duration":0.5,"velocity":68,"measure":31,"beat":1.0,"subject_pos":-1,"motif":"","motif_pos":-1,"best_pos":2,"similarity":0.304},{"voice":3,"pitch":53,"start":60.0,"duration":1.1927,"velocity":53,"measure":31,"beat":1.0,"subject_pos":-1,"motif":"","motif_pos":-1,"best_pos":2,"similarity":0.607},{"voice":2,"pitch":64,"start":60.25,"duration":0.25,"velocity":59,"measure":31,"beat":1.5,"subject_pos":-1,"motif":"","motif_pos":-1,"best_pos":1,"similarity":0.429},{"voice":1,"pitch":57,"start":60.5,"duration":0.5,"velocity":68,"measure":31,"beat":2.0,"subject_pos":-1,"motif":"","motif_pos":-1,"best_pos":3,"similarity":0.329},{"voice":2,"pitch":62,"start":60.5,"duration":0.25,"velocity":59,"measure":31,"beat":2.0,"subject_pos":-1,"motif":"","motif_pos":-1,"best_pos":2,"similarity":0.643},{"voice":2,"pitch":60,"start":60.75,"duration":0.25,"velocity":59,"measure":31,"beat":2.5,"subject_pos":-1,"motif":"","motif_pos":-1,"best_pos":3,"similarity":0.714},{"voice":0,"pitch":68,"start":61.0,"duration":1.0,"velocity":76,"measure":31,"beat":3.0,"subject_pos":4,"motif":"subject","motif_pos":4,"best_pos":4,"similarity":1.0},{"voice":1,"pitch":62,"start":61.0,"duration":0.5,"velocity":68,"measure":31,"beat":3.0,"subject_pos":-1,"motif":"","motif_pos":-1,"best_pos":1,"similarity":0.357},{"voice":2,"pitch":59,"start":61.0,"duration":1.0,"velocity":59,"measure":31,"beat":3.0,"subject_pos":-1,"motif":"","motif_pos":-1,"best_pos":4,"similarity":0.786},{"voice":3,"pitch":53,"start":61.25,"duration":0.25,"velocity":53,"measure":31,"beat":3.5,"subject_pos":-1,"motif":"","motif_pos":-1,"best_pos":3,"similarity":0.55},{"voice":1,"pitch":65,"start":61.5,"duration":0.5,"velocity":68,"measure":31,"beat":4.0,"subject_pos":-1,"motif":"","motif_pos":-1,"best_pos":1,"similarity":0.321},{"voice":3,"pitch":52,"start":61.5,"duration":0.25,"velocity":53,"measure":31,"beat":4.0,"subject_pos":-1,"motif":"","motif_pos":-1,"best_pos":4,"similarity":0.45},{"voice":3,"pitch":50,"start":61.75,"duration":0.25,"velocity":53,"measure":31,"beat":4.5,"subject_pos":-1,"motif":"","motif_pos":-1,"best_pos":2,"similarity":0.45},{"voice":0,"pitch":69,"start":62.0,"duration":0.5,"velocity":76,"measure":32,"beat":1.0,"subject_pos":5,"motif":"subject","motif_pos":5,"best_pos":5,"similarity":1.0},{"voice":1,"pitch":64,"start":62.0,"duration":0.5,"velocity":68,"measure":32,"beat":1.0,"subject_pos":-1,"motif":"","motif_pos":-1,"best_pos":2,"similarity":0.393},{"voice":2,"pitch":60,"start":62.0,"duration":0.5,"velocity":59,"measure":32,"beat":1.0,"subject_pos":-1,"motif":"","motif_pos":-1,"best_pos":5,"similarity":0.607},{"voice":3,"pitch":48,"start":62.0,"duration":0.25,"velocity":53,"measure":32,"beat":1.0,"subject_pos":-1,"motif":"","motif_pos":-1,"best_pos":4,"similarity":0.425},{"voice":3,"pitch":50,"start":62.25,"duration":0.25,"velocity":53,"measure":32,"beat":1.5,"subject_pos":-1,"motif":"","motif_pos":-1,"best_pos":1,"similarity":0.386},{"voice":0,"pitch":71,"start":62.5,"duration":0.5,"velocity":76,"measure":32,"beat":2.0,"subject_pos":6,"motif":"subject","motif_pos":6,"best_pos":6,"similarity":1.0},{"voice":1,"pitch":62,"start":62.5,"duration":0.5,"velocity":68,"measure":32,"beat":2.0,"subject_pos":-1,"motif":"","motif_pos":-1,"best_pos":2,"similarity":0.429},{"voice":2,"pitch":56,"start":62.5,"duration":0.5,"velocity":59,"measure":32,"beat":2.0,"subject_pos":-1,"motif":"","motif_pos":-1,"best_pos":6,"similarity":0.5},{"voice":3,"pitch":48,"start":62.5,"duration":0.25,"velocity":53,"measure":32,"beat":2.0,"subject_pos":-1,"motif":"","motif_pos":-1,"best_pos":3,"similarity":0.464},{"voice":3,"pitch":47,"start":62.75,"duration":0.25,"velocity":53,"measure":32,"beat":2.5,"subject_pos":-1,"motif":"","motif_pos":-1,"best_pos":4,"similarity":0.425},{"voice":0,"pitch":72,"start":63.0,"duration":1.4115,"velocity":76,"measure":32,"beat":3.0,"subject_pos":7,"motif":"subject","motif_pos":7,"best_pos":7,"similarity":1.0},{"voice":1,"pitch":60,"start":63.0,"duration":0.4427,"velocity":68,"measure":32,"beat":3.0,"subject_pos":-1,"motif":"","motif_pos":-1,"best_pos":3,"similarity":0.357},{"voice":2,"pitch":57,"start":63.0,"duration":0.25,"velocity":59,"measure":32,"beat":3.0,"subject_pos":-1,"motif":"","motif_pos":-1,"best_pos":1,"similarity":0.457},{"voice":3,"pitch":45,"start":63.0,"duration":1.0,"velocity":53,"measure":32,"beat":3.0,"subject_pos":-1,"motif":"","motif_pos":-1,"best_pos":2,"similarity":0.429},{"voice":2,"pitch":55,"start":63.25,"duration":0.25,"velocity":59,"measure":32,"beat":3.5,"subject_pos":-1,"motif":"","motif_pos":-1,"best_pos":2,"similarity":0.621},{"voice":1,"pitch":69,"start":63.5,"duration":1.0,"velocity":68,"measure":32,"beat":4.0,"subject_pos":-1,"motif":"","motif_pos":-1,"best_pos":4,"similarity":0.293},{"voice":2,"pitch":53,"start":63.5,"duration":0.25,"velocity":59,"measure":32,"beat":4.0,"subject_pos":-1,"motif":"","motif_pos":-1,"best_pos":3,"similarity":0.686},{"voice":2,"pitch":52,"start":63.75,"duration":0.25,"velocity":59,"measure":32,"beat":4.5,"subject_pos":-1,"motif":"","motif_pos":-1,"best_pos":4,"similarity":0.679},{"voice":2,"pitch":54,"start":64.0,"duration":0.5,"velocity":59,"measure":33,"beat":1.0,"subject_pos":-1,"motif":"","motif_pos":-1,"best_pos":6,"similarity":0.643},{"voice":3,"pitch":50,"start":64.0,"duration":1.0,"velocity":53,"measure":33,"beat":1.0,"subject_pos":-1,"motif":"","motif_pos":-1,"best_pos":1,"similarity":0.518},{"voice":0,"pitch":74,"start":64.25,"duration":0.4115,"velocity":76,"measure":33,"beat":1.5,"subject_pos":-1,"motif":"","motif_pos":-1,"best_pos":6,"similarity":0.464},{"voice":0,"pitch":72,"start":64.5,"duration":0.4115,"velocity":76,"measure":33,"beat":2.0,"subject_pos":-1,"motif":"","motif_pos":-1,"best_pos":2,"similarity":0.621},{"voice":1,"pitch":62,"start":64.5,"duration":0.5,"velocity":68,"measure":33,"beat":2.0,"subject_pos":-1,"motif":"","motif_pos":-1,"best_pos":5,"similarity":0.336},{"voice":2,"pitch":55,"start":64.5,"duration":0.6927,"velocity":59,"measure":33,"beat":2.0,"subject_pos":-1,"motif":"","motif_pos":-1,"best_pos":7,"similarity":0.446},{"voice":0,"pitch":70,"start":64.75,"duration":0.4115,"velocity":76,"measure":33,"beat":2.5,"subject_pos":-1,"motif":"","motif_pos":-1,"best_pos":3,"similarity":0.686},{"voice":0,"pitch":69,"start":65.0,"duration":0.5,"velocity":76,"measure":33,"beat":3.0,"subject_pos":-1,"motif":"","motif_pos":-1,"best_pos":4,"similarity":0.65},{"voice":1,"pitch":64,"start":65.0,"duration":0.4427,"velocity":68,"measure":33,"beat":3.0,"subject_pos":-1,"motif":"","motif_pos":-1,"best_pos":0,"similarity":0.464},{"voice":3,"pitch":49,"start":65.0,"duration":1.0,"velocity":53,"measure":33,"beat":3.0,"subject_pos":-1,"motif":"","motif_pos":-1,"best_pos":2,"similarity":0.536},{"voice":2,"pitch":55,"start":65.25,"duration":0.25,"velocity":59,"measure":33,"beat":3.5,"subject_pos":-1,"motif":"","motif_pos":-1,"best_pos":2,"similarity":0.443},{"voice":1,"pitch":69,"start":65.5,"duration":0.75,"velocity":68,"measure":33,"beat":4.0,"subject_pos":-1,"motif":"","motif_pos":-1,"best_pos":1,"similarity":0.714},{"voice":2,"pitch":53,"start":65.5,"duration":0.25,"velocity":59,"measure":33,"beat":4.0,"subject_pos":-1,"motif":"","motif_pos":-1,"best_pos":3,"similarity":0.621},{"voice":2,"pitch":52,"start":65.75,"duration":0.25,"velocity":59,"measure":33,"beat":4.5,"subject_pos":-1,"motif":"tail_inv","motif_pos":0,"best_pos":0,"similarity":1.0},{"voice":2,"pitch":53,"start":66.0,"duration":0.25,"velocity":59,"measure":34,"beat":1.0,"subject_pos":-1,"motif":"tail_inv","motif_pos":1,"best_pos":1,"similarity":1.0},{"voice":3,"pitch":45,"start":66.0,"duration":1.0,"velocity":53,"measure":34,"beat":1.0,"subject_pos":-1,"motif":"","motif_pos":-1,"best_pos":2,"similarity":0.643},{"voice":1,"pitch":67,"start":66.25,"duration":0.25,"velocity":68,"measure":34,"beat":1.5,"subject_pos":-1,"motif":"","motif_pos":-1,"best_pos":2,"similarity":0.721},{"voice":2,"pitch":52,"start":66.25,"duration":0.25,"velocity":59,"measure":34,"beat":1.5,"subject_pos":-1,"motif":"tail_inv","motif_pos":2,"best_pos":2,"similarity":1.0},{"voice":0,"pitch":69,"start":66.5,"duration":0.9115,"velocity":76,"measure":34,"beat":2.0,"subject_pos":-1,"motif":"","motif_pos":-1,"best_pos":5,"similarity":0.479},{"voice":1,"pitch":65,"start":66.5,"duration":0.25,"velocity":68,"measure":34,"beat":2.0,"subject_pos":-1,"motif":"","motif_pos":-1,"best_pos":3,"similarity":0.675},{"voice":2,"pitch":50,"start":66.5,"duration":0.25,"velocity":59,"measure":34,"beat":2.0,"subject_pos":-1,"motif":"tail_inv","motif_pos":3,"best_pos":3,"similarity":1.0},{"voice":1,"pitch":64,"start":66.75,"duration":0.25,"velocity":68,"measure":34,"beat":2.5,"subject_pos":-1,"motif":"","motif_pos":-1,"best_pos":4,"similarity":0.5},{"voice":2,"pitch":49,"start":66.75,"duration":0.25,"velocity":59,"measure":34,"beat":2.5,"subject_pos":-1,"motif":"tail_inv","motif_pos":4,"best_pos":4,"similarity":1.0},{"voice":1,"pitch":62,"start":67.0,"duration":2.1927,"velocity":68,"measure":34,"beat":3.0,"subject_pos":-1,"motif":"","motif_pos":-1,"best_pos":4,"similarity":0.443},{"voice":2,"pitch":50,"start":67.0,"duration":0.5,"velocity":59,"measure":34,"beat":3.0,"subject_pos":-1,"motif":"","motif_pos":-1,"best_pos":5,"similarity":0.764},{"voice":3,"pitch":42,"start":67.0,"duration":1.0,"velocity":53,"measure":34,"beat":3.0,"subject_pos":-1,"motif":"","motif_pos":-1,"best_pos":4,"similarity":0.679},{"voice":0,"pitch":72,"start":67.25,"duration":0.4115,"velocity":76,"measure":34,"beat":3.5,"subject_pos":-1,"motif":"","motif_pos":-1,"best_pos":1,"similarity":0.411},{"voice":0,"pitch":70,"start":67.5,"duration":0.4115,"velocity":76,"measure":34,"beat":4.0,"subject_pos":-1,"motif":"","motif_pos":-1,"best_pos":3,"similarity":0.579},{"voice":0,"pitch":69,"start":67.75,"duration":0.4115,"velocity":76,"measure":34,"beat":4.5,"subject_pos":-1,"motif":"tail_inv","motif_pos":0,"best_pos":0,"similarity":1.0},{"voice":0,"pitch":70,"start":68.0,"duration":0.4115,"velocity":76,"measure":35,"beat":1.0,"subject_pos":-1,"motif":"tail_inv","motif_pos":1,"best_pos":1,"similarity":1.0},{"voice":3,"pitch":43,"start":68.0,"duration":0.5,"velocity":53,"measure":35,"beat":1.0,"subject_pos":-1,"motif":"","motif_pos":-1,"best_pos":5,"similarity":0.786},{"voice":0,"pitch":69,"start":68.25,"duration":0.4115,"velocity":76,"measure":35,"beat":1.5,"subject_pos":-1,"motif":"tail_inv","motif_pos":2,"best_pos":2,"similarity":1.0},{"voice":0,"pitch":67,"start":68.5,"duration":0.4115,"velocity":76,"measure":35,"beat":2.0,"subject_pos":-1,"motif":"tail_inv","motif_pos":3,"best_pos":3,"similarity":1.0},{"voice":3,"pitch":45,"start":68.5,"duration":0.5,"velocity":53,"measure":35,"beat":2.0,"subject_pos":-1,"motif":"","motif_pos":-1,"best_pos":6,"similarity":0.732},{"voice":0,"pitch":66,"start":68.75,"duration":0.4115,"velocity":76,"measure":35,"beat":2.5,"subject_pos":-1,"motif":"tail_inv","motif_pos":4,"best_pos":4,"similarity":1.0},{"voice":0,"pitch":67,"start":69.0,"duration":0.9115,"velocity":76,"measure":35,"beat":3.0,"subject_pos":-1,"motif":"","motif_pos":-1,"best_pos":5,"similarity":0.607},{"voice":3,"pitch":46,"start":69.0,"duration":1.25,"velocity":53,"measure":35,"beat":3.0,"subject_pos":-1,"motif":"","motif_pos":-1,"best_pos":5,"similarity":0.607},{"voice":1,"pitch":62,"start":69.25,"duration":0.25,"velocity":68,"measure":35,"beat":3.5,"subject_pos":-1,"motif":"","motif_pos":-1,"best_pos":5,"similarity":0.332},{"voice":1,"pitch":67,"start":69.5,"duration":0.6927,"velocity":68,"measure":35,"beat":4.0,"subject_pos":-1,"motif":"","motif_pos":-1,"best_pos":1,"similarity":0.389},{"voice":0,"pitch":70,"start":69.75,"duration":0.4115,"velocity":76,"measure":35,"beat":4.5,"subject_pos":-1,"motif":"","motif_pos":-1,"best_pos":6,"similarity":0.357},{"voice":0,"pitch":64,"start":70.0,"duration":0.9115,"velocity":76,"measure":36,"beat":1.0,"subject_pos":-1,"motif":"","motif_pos":-1,"best_pos":5,"similarity":0.45},{"voice":1,"pitch":67,"start":70.25,"duration":0.25,"velocity":68,"measure":36,"beat":1.5,"subject_pos":-1,"motif":"","motif_pos":-1,"best_pos":2,"similarity":0.35},{"voice":3,"pitch":48,"start":70.25,"duration":0.25,"velocity":53,"measure":36,"beat":1.5,"subject_pos":-1,"motif":"","motif_pos":-1,"best_pos":6,"similarity":0.464},{"voice":1,"pitch":60,"start":70.5,"duration":0.6927,"velocity":68,"measure":36,"beat":2.0,"subject_pos":-1,"motif":"","motif_pos":-1,"best_pos":2,"similarity":0.368},{"voice":3,"pitch":46,"start":70.5,"duration":0.25,"velocity":53,"measure":36,"beat":2.0,"subject_pos":-1,"motif":"","motif_pos":-1,"best_pos":3,"similarity":0.464},{"voice":0,"pitch":66,"start":70.75,"duration":0.4115,"velocity":76,"measure":36,"beat":2.5,"subject_pos":-1,"motif":"","motif_pos":-1,"best_pos":6,"similarity":0.579},{"voice":3,"pitch":45,"start":70.75,"duration":0.25,"velocity":53,"measure":36,"beat":2.5,"subject_pos":-1,"motif":"","motif_pos":-1,"best_pos":4,"similarity":0.464},{"voice":0,"pitch":67,"start":71.0,"duration":0.9115,"velocity":76,"measure":36,"beat":3.0,"subject_pos":-1,"motif":"","motif_pos":-1,"best_pos":7,"similarity":0.429},{"voice":3,"pitch":43,"start":71.0,"duration":1.1927,"velocity":53,"measure":36,"beat":3.0,"subject_pos":-1,"motif":"","motif_pos":-1,"best_pos":2,"similarity":0.614},{"voice":1,"pitch":57,"start":71.25,"duration":0.25,"velocity":68,"measure":36,"beat":3.5,"subject_pos":-1,"motif":"","motif_pos":-1,"best_pos":3,"similarity":0.407},{"voice":1,"pitch":58,"start":71.5,"duration":0.5,"velocity":68,"measure":36,"beat":4.0,"subject_pos":-1,"motif":"","motif_pos":-1,"best_pos":3,"similarity":0.457},{"voice":0,"pitch":64,"start":71.75,"duration":0.4115,"velocity":76,"measure":36,"beat":4.5,"subject_pos":-1,"motif":"","motif_pos":-1,"best_pos":2,"similarity":0.443},{"voice":0,"pitch":61,"start":72.0,"duration":0.9115,"velocity":76,"measure":37,"beat":1.0,"subject_pos":-1,"motif":"","motif_pos":-1,"best_pos":3,"similarity":0.4},{"voice":1,"pitch":57,"start":72.0,"duration":1.1927,"velocity":68,"measure":37,"beat":1.0,"subject_pos":-1,"motif":"","motif_pos":-1,"best_pos":4,"similarity":0.486},{"voice":3,"pitch":40,"start":72.25,"duration":0.25,"velocity":53,"measure":37,"beat":1.5,"subject_pos":-1,"motif":"","motif_pos":-1,"best_pos":3,"similarity":0.514},{"voice":3,"pitch":41,"start":72.5,"duration":0.5,"velocity":53,"measure":37,"beat":2.0,"subject_pos":-1,"motif":"","motif_pos":-1,"best_pos":5,"similarity":0.4},{"voice":0,"pitch":69,"start":72.75,"duration":0.4115,"velocity":76,"measure":37,"beat":2.5,"subject_pos":-1,"motif":"","motif_pos":-1,"best_pos":4,"similarity":0.268},{"voice":0,"pitch":62,"start":73.0,"duration":0.9115,"velocity":76,"measure":37,"beat":3.0,"subject_pos":-1,"motif":"","motif_pos":-1,"best_pos":5,"similarity":0.25},{"voice":3,"pitch":46,"start":73.0,"duration":1.1927,"velocity":53,"measure":37,"beat":3.0,"subject_pos":-1,"motif":"","motif_pos":-1,"best_pos":1,"similarity":0.429},{"voice":1,"pitch":53,"start":73.25,"duration":0.25,"velocity":68,"measure":37,"beat":3.5,"subject_pos":-1,"motif":"","motif_pos":-1,"best_pos":5,"similarity":0.45},{"voice":1,"pitch":55,"start":73.5,"duration":0.5,"velocity":68,"measure":37,"beat":4.0,"subject_pos":-1,"motif":"","motif_pos":-1,"best_pos":6,"similarity":0.386},{"voice":0,"pitch":65,"start":73.75,"duration":0.4115,"velocity":76,"measure":37,"beat":4.5,"subject_pos":-1,"motif":"","motif_pos":-1,"best_pos":3,"similarity":0.336},{"voice":0,"pitch":64,"start":74.0,"duration":0.9115,"velocity":76,"measure":38,"beat":1.0,"subject_pos":-1,"motif":"","motif_pos":-1,"best_pos":4,"similarity":0.3},{"voice":1,"pitch":60,"start":74.0,"duration":1.1927,"velocity":68,"measure":38,"beat":1.0,"subject_pos":-1,"motif":"","motif_pos":-1,"best_pos":1,"similarity":0.429},{"voice":3,"pitch":43,"start":74.25,"duration":0.25,"velocity":53,"measure":38,"beat":1.5,"subject_pos":-1,"motif":"","motif_pos":-1,"best_pos":3,"similarity":0.336},{"voice":3,"pitch":45,"start":74.5,"duration":0.5,"velocity":53,"measure":38,"beat":2.0,"subject_pos":-1,"motif":"","motif_pos":-1,"best_pos":0,"similarity":0.364},{"voice":0,"pitch":72,"start":74.75,"duration":0.4115,"velocity":76,"measure":38,"beat":2.5,"subject_pos":-1,"motif":"","motif_pos":-1,"best_pos":1,"similarity":0.207},{"voice":0,"pitch":65,"start":75.0,"duration":0.9115,"velocity":76,"measure":38,"beat":3.0,"subject_pos":-1,"motif":"","motif_pos":-1,"best_pos":0,"similarity":0.286},{"voice":3,"pitch":50,"start":75.0,"duration":1.1927,"velocity":53,"measure":38,"beat":3.0,"subject_pos":-1,"motif":"","motif_pos":-1,"best_pos":1,"similarity":0.443},{"voice":1,"pitch":57,"start":75.25,"duration":0.25,"velocity":68,"measure":38,"beat":3.5,"subject_pos":-1,"motif":"","motif_pos":-1,"best_pos":3,"similarity":0.336},{"voice":1,"pitch":59,"start":75.5,"duration":0.5,"velocity":68,"measure":38,"beat":4.0,"subject_pos":-1,"motif":"","motif_pos":-1,"best_pos":0,"similarity":0.364},{"voice":0,"pitch":69,"start":75.75,"duration":0.4115,"velocity":76,"measure":38,"beat":4.5,"subject_pos":-1,"motif":"","motif_pos":-1,"best_pos":1,"similarity":0.429},{"voice":0,"pitch":67,"start":76.0,"duration":0.9115,"velocity":76,"measure":39,"beat":1.0,"subject_pos":-1,"motif":"","motif_pos":-1,"best_pos":2,"similarity":0.375},{"voice":1,"pitch":64,"start":76.0,"duration":1.1927,"velocity":68,"measure":39,"beat":1.0,"subject_pos":-1,"motif":"","motif_pos":-1,"best_pos":1,"similarity":0.443},{"voice":3,"pitch":47,"start":76.25,"duration":0.25,"velocity":53,"measure":39,"beat":1.5,"subject_pos":-1,"motif":"","motif_pos":-1,"best_pos":4,"similarity":0.386},{"voice":3,"pitch":48,"start":76.5,"duration":0.5,"velocity":53,"measure":39,"beat":2.0,"subject_pos":-1,"motif":"","motif_pos":-1,"best_pos":5,"similarity":0.364},{"voice":0,"pitch":76,"start":76.75,"duration":0.4115,"velocity":76,"measure":39,"beat":2.5,"subject_pos":-1,"motif":"","motif_pos":-1,"best_pos":3,"similarity":0.221},{"voice":0,"pitch":69,"start":77.0,"duration":0.9115,"velocity":76,"measure":39,"beat":3.0,"subject_pos":-1,"motif":"","motif_pos":-1,"best_pos":5,"similarity":0.214},{"voice":3,"pitch":53,"start":77.0,"duration":1.1927,"velocity":53,"measure":39,"beat":3.0,"subject_pos":-1,"motif":"","motif_pos":-1,"best_pos":1,"similarity":0.429},{"voice":1,"pitch":61,"start":77.25,"duration":0.25,"velocity":68,"measure":39,"beat":3.5,"subject_pos":-1,"motif":"","motif_pos":-1,"best_pos":3,"similarity":0.45},{"voice":1,"pitch":62,"start":77.5,"duration":0.5,"velocity":68,"measure":39,"beat":4.0,"subject_pos":-1,"motif":"","motif_pos":-1,"best_pos":4,"similarity":0.457},{"voice":0,"pitch":72,"start":77.75,"duration":0.4115,"velocity":76,"measure":39,"beat":4.5,"subject_pos":-1,"motif":"","motif_pos":-1,"best_pos":3,"similarity":0.318},{"voice":0,"pitch":71,"start":78.0,"duration":0.9115,"velocity":76,"measure":40,"beat":1.0,"subject_pos":-1,"motif":"","motif_pos":-1,"best_pos":4,"similarity":0.364},{"voice":1,"pitch":67,"start":78.0,"duration":1.1927,"velocity":68,"measure":40,"beat":1.0,"subject_pos":-1,"motif":"","motif_pos":-1,"best_pos":5,"similarity":0.564},{"voice":3,"pitch":50,"start":78.25,"duration":0.25,"velocity":53,"measure":40,"beat":1.5,"subject_pos":-1,"motif":"","motif_pos":-1,"best_pos":3,"similarity":0.321},{"voice":3,"pitch":52,"start":78.5,"duration":0.5,"velocity":53,"measure":40,"beat":2.0,"subject_pos":-1,"motif":"","motif_pos":-1,"best_pos":6,"similarity":0.3},{"voice":0,"pitch":79,"start":78.75,"duration":0.4115,"velocity":76,"measure":40,"beat":2.5,"subject_pos":-1,"motif":"","motif_pos":-1,"best_pos":3,"similarity":0.304},{"voice":0,"pitch":73,"start":79.0,"duration":1.0,"velocity":76,"measure":40,"beat":3.0,"subject_pos":-1,"motif":"","motif_pos":-1,"best_pos":4,"similarity":0.471},{"voice":2,"pitch":52,"start":79.0,"duration":1.0,"velocity":59,"measure":40,"beat":3.0,"subject_pos":-1,"motif":"","motif_pos":-1,"best_pos":6,"similarity":0.529},{"voice":3,"pitch":45,"start":79.0,"duration":0.6927,"velocity":53,"measure":40,"beat":3.0,"subject_pos":-1,"motif":"","motif_pos":-1,"best_pos":0,"similarity":0.189},{"voice":1,"pitch":69,"start":79.25,"duration":0.25,"velocity":68,"measure":40,"beat":3.5,"subject_pos":-1,"motif":"","motif_pos":-1,"best_pos":6,"similarity":0.604},{"voice":1,"pitch":70,"start":79.5,"duration":0.5,"velocity":68,"measure":40,"beat":4.0,"subject_pos":-1,"motif":"","motif_pos":-1,"best_pos":3,"similarity":0.471},{"voice":3,"pitch":55,"start":79.75,"duration":0.25,"velocity":53,"measure":40,"beat":4.5,"subject_pos":-1,"motif":"","motif_pos":-1,"best_pos":1,"similarity":0.386},{"voice":0,"pitch":74,"start":80.0,"duration":0.5,"velocity":76,"measure":41,"beat":1.0,"subject_pos":-1,"motif":"","motif_pos":-1,"best_pos":5,"similarity":0.586},{"voice":1,"pitch":69,"start":80.0,"duration":2.1927,"velocity":68,"measure":41,"beat":1.0,"subject_pos":-1,"motif":"","motif_pos":-1,"best_pos":4,"similarity":0.486},{"voice":2,"pitch":57,"start":80.0,"duration":1.0,"velocity":59,"measure":41,"beat":1.0,"subject_pos":-1,"motif":"","motif_pos":-1,"best_pos":1,"similarity":0.786},{"voice":3,"pitch":53,"start":80.0,"duration":0.25,"velocity":53,"measure":41,"beat":1.0,"subject_pos":-1,"motif":"","motif_pos":-1,"best_pos":2,"similarity":0.461},{"voice":3,"pitch":52,"start":80.25,"duration":0.25,"velocity":53,"measure":41,"beat":1.5,"subject_pos":-1,"motif":"","motif_pos":-1,"best_pos":2,"similarity":0.5},{"voice":0,"pitch":76,"start":80.5,"duration":0.9115,"velocity":76,"measure":41,"beat":2.0,"subject_pos":-1,"motif":"","motif_pos":-1,"best_pos":6,"similarity":0.457},{"voice":3,"pitch":50,"start":80.5,"duration":0.25,"velocity":53,"measure":41,"beat":2.0,"subject_pos":-1,"motif":"","motif_pos":-1,"best_pos":3,"similarity":0.643},{"voice":3,"pitch":49,"start":80.75,"duration":0.25,"velocity":53,"measure":41,"beat":2.5,"subject_pos":-1,"motif":"","motif_pos":-1,"best_pos":4,"similarity":0.686},{"voice":2,"pitch":53,"start":81.0,"duration":1.0,"velocity":59,"measure":41,"beat":3.0,"subject_pos":-1,"motif":"","motif_pos":-1,"best_pos":2,"similarity":0.929},{"voice":3,"pitch":50,"start":81.0,"duration":0.6927,"velocity":53,"measure":41,"beat":3.0,"subject_pos":-1,"motif":"","motif_pos":-1,"best_pos":5,"similarity":0.479},{"voice":0,"pitch":73,"start":81.25,"duration":0.4115,"velocity":76,"measure":41,"beat":3.5,"subject_pos":-1,"motif":"","motif_pos":-1,"best_pos":4,"similarity":0.579},{"voice":0,"pitch":74,"start":81.5,"duration":1.4115,"velocity":76,"measure":41,"beat":4.0,"subject_pos":-1,"motif":"","motif_pos":-1,"best_pos":5,"similarity":0.75},{"voice":3,"pitch":41,"start":81.75,"duration":0.25,"velocity":53,"measure":41,"beat":4.5,"subject_pos":-1,"motif":"","motif_pos":-1,"best_pos":0,"similarity":0.364},{"voice":2,"pitch":50,"start":82.0,"duration":1.0,"velocity":59,"measure":42,"beat":1.0,"subject_pos":-1,"motif":"tail","motif_pos":3,"best_pos":3,"similarity":1.0},{"voice":3,"pitch":46,"start":82.0,"duration":1.0,"velocity":53,"measure":42,"beat":1.0,"subject_pos":-1,"motif":"","motif_pos":-1,"best_pos":1,"similarity":0.514},{"voice":1,"pitch":65,"start":82.25,"duration":0.25,"velocity":68,"measure":42,"beat":1.5,"subject_pos":-1,"motif":"","motif_pos":-1,"best_pos":5,"similarity":0.507},{"voice":1,"pitch":67,"start":82.5,"duration":0.5,"velocity":68,"measure":42,"beat":2.0,"subject_pos":-1,"motif":"","motif_pos":-1,"best_pos":5,"similarity":0.604},{"voice":0,"pitch":76,"start":82.75,"duration":0.4115,"velocity":76,"measure":42,"beat":2.5,"subject_pos":-1,"motif":"","motif_pos":-1,"best_pos":6,"similarity":0.732},{"voice":0,"pitch":77,"start":83.0,"duration":0.4115,"velocity":76,"measure":42,"beat":3.0,"subject_pos":-1,"motif":"","motif_pos":-1,"best_pos":7,"similarity":0.5},{"voice":1,"pitch":69,"start":83.0,"duration":0.75,"velocity":68,"measure":42,"beat":3.0,"subject_pos":-1,"motif":"","motif_pos":-1,"best_pos":6,"similarity":0.65},{"voice":2,"pitch":49,"start":83.0,"duration":1.0,"velocity":59,"measure":42,"beat":3.0,"subject_pos":-1,"motif":"tail","motif_pos":4,"best_pos":4,"similarity":1.0},{"voice":3,"pitch":45,"start":83.0,"duration":2.6927,"velocity":53,"measure":42,"beat":3.0,"subject_pos":-1,"motif":"","motif_pos":-1,"best_pos":4,"similarity":0.593},{"voice":0,"pitch":76,"start":83.25,"duration":0.4115,"velocity":76,"measure":42,"beat":3.5,"subject_pos":-1,"motif":"","motif_pos":-1,"best_pos":4,"similarity":0.411},{"voice":0,"pitch":79,"start":83.5,"duration":0.9115,"velocity":76,"measure":42,"beat":4.0,"subject_pos":-1,"motif":"","motif_pos":-1,"best_pos":1,"similarity":0.429},{"voice":1,"pitch":70,"start":83.75,"duration":0.25,"velocity":68,"measure":42,"beat":4.5,"subject_pos":-1,"motif":"","motif_pos":-1,"best_pos":7,"similarity":0.464},{"voice":1,"pitch":69,"start":84.0,"duration":0.5,"velocity":68,"measure":43,"beat":1.0,"subject_pos":-1,"motif":"","motif_pos":-1,"best_pos":2,"similarity":0.379},{"voice":2,"pitch":50,"start":84.0,"duration":0.5,"velocity":59,"measure":43,"beat":1.0,"subject_pos":-1,"motif":"tail","motif_pos":5,"best_pos":5,"similarity":1.0},{"voice":0,"pitch":77,"start":84.25,"duration":0.4115,"velocity":76,"measure":43,"beat":1.5,"subject_pos":-1,"motif":"","motif_pos":-1,"best_pos":2,"similarity":0.482},{"voice":0,"pitch":76,"start":84.5,"duration":0.4115,"velocity":76,"measure":43,"beat":2.0,"subject_pos":-1,"motif":"","motif_pos":-1,"best_pos":2,"similarity":0.429},{"voice":1,"pitch":67,"start":84.5,"duration":1.0,"velocity":68,"measure":43,"beat":2.0,"subject_pos":-1,"motif":"","motif_pos":-1,"best_pos":2,"similarity":0.464},{"voice":2,"pitch":52,"start":84.5,"duration":0.5,"velocity":59,"measure":43,"beat":2.0,"subject_pos":-1,"motif":"tail","motif_pos":6,"best_pos":6,"similarity":1.0},{"voice":0,"pitch":74,"start":84.75,"duration":0.4115,"velocity":76,"measure":43,"beat":2.5,"subject_pos":-1,"motif":"","motif_pos":-1,"best_pos":3,"similarity":0.507},{"voice":0,"pitch":73,"start":85.0,"duration":0.4115,"velocity":76,"measure":43,"beat":3.0,"subject_pos":-1,"motif":"","motif_pos":-1,"best_pos":4,"similarity":0.414},{"voice":2,"pitch":53,"start":85.0,"duration":1.25,"velocity":59,"measure":43,"beat":3.0,"subject_pos":-1,"motif":"tail","motif_pos":7,"best_pos":7,"similarity":1.0},{"voice":0,"pitch":69,"start":85.25,"duration":0.4115,"velocity":76,"measure":43,"beat":3.5,"subject_pos":-1,"motif":"","motif_pos":-1,"best_pos":2,"similarity":0.393},{"voice":0,"pitch":74,"start":85.5,"duration":0.9115,"velocity":76,"measure":43,"beat":4.0,"subject_pos":-1,"motif":"","motif_pos":-1,"best_pos":1,"similarity":0.479},{"voice":1,"pitch":65,"start":85.5,"duration":0.25,"velocity":68,"measure":43,"beat":4.0,"subject_pos":-1,"motif":"","motif_pos":-1,"best_pos":2,"similarity":0.579},{"voice":1,"pitch":62,"start":85.75,"duration":0.25,"velocity":68,"measure":43,"beat":4.5,"subject_pos":-1,"motif":"","motif_pos":-1,"best_pos":3,"similarity":0.45},{"voice":3,"pitch":46,"start":85.75,"duration":0.25,"velocity":53,"measure":43,"beat":4.5,"subject_pos":-1,"motif":"","motif_pos":-1,"best_pos":3,"similarity":0.543},{"voice":1,"pitch":69,"start":86.0,"duration":0.75,"velocity":68,"measure":44,"beat":1.0,"subject_pos":-1,"motif":"","motif_pos":-1,"best_pos":1,"similarity":0.614},{"voice":3,"pitch":45,"start":86.0,"duration":0.25,"velocity":53,"measure":44,"beat":1.0,"subject_pos":-1,"motif":"","motif_pos":-1,"best_pos":4,"similarity":0.579},{"voice":0,"pitch":71,"start":86.25,"duration":0.4115,"velocity":76,"measure":44,"beat":1.5,"subject_pos":-1,"motif":"","motif_pos":-1,"best_pos":4,"similarity":0.461},{"voice":2,"pitch":55,"start":86.25,"duration":0.25,"velocity":59,"measure":44,"beat":1.5,"subject_pos":-1,"motif":"","motif_pos":-1,"best_pos":6,"similarity":0.464},{"voice":3,"pitch":43,"start":86.25,"duration":0.25,"velocity":53,"measure":44,"beat":1.5,"subject_pos":-1,"motif":"","motif_pos":-1,"best_pos":5,"similarity":0.607},{"voice":0,"pitch":72,"start":86.5,"duration":1.0,"velocity":76,"measure":44,"beat":2.0,"subject_pos":-1,"motif":"","motif_pos":-1,"best_pos":5,"similarity":0.386},{"voice":2,"pitch":53,"start":86.5,"duration":0.25,"velocity":59,"measure":44,"beat":2.0,"subject_pos":-1,"motif":"","motif_pos":-1,"best_pos":3,"similarity":0.464},{"voice":3,"pitch":45,"start":86.5,"duration":0.5,"velocity":53,"measure":44,"beat":2.0,"subject_pos":-1,"motif":"","motif_pos":-1,"best_pos":6,"similarity":0.657},{"voice":1,"pitch":67,"start":86.75,"duration":0.25,"velocity":68,"measure":44,"beat":2.5,"subject_pos":-1,"motif":"","motif_pos":-1,"best_pos":2,"similarity":0.521},{"voice":2,"pitch":52,"start":86.75,"duration":0.25,"velocity":59,"measure":44,"beat":2.5,"subject_pos":-1,"motif":"","motif_pos":-1,"best_pos":4,"similarity":0.393},{"voice":1,"pitch":66,"start":87.0,"duration":0.25,"velocity":68,"measure":44,"beat":3.0,"subject_pos":-1,"motif":"","motif_pos":-1,"best_pos":4,"similarity":0.379},{"voice":2,"pitch":50,"start":87.0,"duration":1.4427,"velocity":59,"measure":44,"beat":3.0,"subject_pos":-1,"motif":"","motif_pos":-1,"best_pos":0,"similarity":0.429},{"voice":3,"pitch":46,"start":87.0,"duration":0.6927,"velocity":53,"measure":44,"beat":3.0,"subject_pos":-1,"motif":"","motif_pos":-1,"best_pos":7,"similarity":0.436},{"voice":1,"pitch":62,"start":87.25,"duration":0.25,"velocity":68,"measure":44,"beat":3.5,"subject_pos":-1,"motif":"","motif_pos":-1,"best_pos":2,"similarity":0.393},{"voice":0,"pitch":70,"start":87.5,"duration":0.5,"velocity":76,"measure":44,"beat":4.0,"subject_pos":-1,"motif":"","motif_pos":-1,"best_pos":3,"similarity":0.45},{"voice":1,"pitch":67,"start":87.5,"duration":0.6927,"velocity":68,"measure":44,"beat":4.0,"subject_pos":-1,"motif":"","motif_pos":-1,"best_pos":1,"similarity":0.461},{"voice":3,"pitch":43,"start":87.75,"duration":0.25,"velocity":53,"measure":44,"beat":4.5,"subject_pos":-1,"motif":"","motif_pos":-1,"best_pos":3,"similarity":0.414},{"voice":0,"pitch":69,"start":88.0,"duration":0.5,"velocity":76,"measure":45,"beat":1.0,"subject_pos":-1,"motif":"","motif_pos":-1,"best_pos":4,"similarity":0.379},{"voice":3,"pitch":50,"start":88.0,"duration":1.5,"velocity":53,"measure":45,"beat":1.0,"subject_pos":-1,"motif":"","motif_pos":-1,"best_pos":5,"similarity":0.471},{"voice":1,"pitch":64,"start":88.25,"duration":0.25,"velocity":68,"measure":45,"beat":1.5,"subject_pos":-1,"motif":"","motif_pos":-1,"best_pos":4,"similarity":0.436},{"voice":1,"pitch":65,"start":88.5,"duration":0.6927,"velocity":68,"measure":45,"beat":2.0,"subject_pos":-1,"motif":"","motif_pos":-1,"best_pos":5,"similarity":0.336},{"voice":2,"pitch":57,"start":88.5,"duration":0.25,"velocity":59,"measure":45,"beat":2.0,"subject_pos":-1,"motif":"","motif_pos":-1,"best_pos":1,"similarity":0.589},{"voice":2,"pitch":53,"start":88.75,"duration":0.25,"velocity":59,"measure":45,"beat":2.5,"subject_pos":-1,"motif":"","motif_pos":-1,"best_pos":2,"similarity":0.471},{"voice":2,"pitch":58,"start":89.0,"duration":0.75,"velocity":59,"measure":45,"beat":3.0,"subject_pos":-1,"motif":"","motif_pos":-1,"best_pos":1,"similarity":0.446},{"voice":1,"pitch":62,"start":89.25,"duration":0.25,"velocity":68,"measure":45,"beat":3.5,"subject_pos":-1,"motif":"","motif_pos":-1,"best_pos":0,"similarity":0.357},{"voice":1,"pitch":67,"start":89.5,"duration":0.6927,"velocity":68,"measure":45,"beat":4.0,"subject_pos":-1,"motif":"","motif_pos":-1,"best_pos":1,"similarity":0.436},{"voice":3,"pitch":52,"start":89.5,"duration":1.0,"velocity":53,"measure":45,"beat":4.0,"subject_pos":-1,"motif":"","motif_pos":-1,"best_pos":6,"similarity":0.589},{"voice":2,"pitch":55,"start":89.75,"duration":0.25,"velocity":59,"measure":45,"beat":4.5,"subject_pos":-1,"motif":"","motif_pos":-1,"best_pos":0,"similarity":0.357},{"voice":2,"pitch":60,"start":90.0,"duration":0.75,"velocity":59,"measure":46,"beat":1.0,"subject_pos":-1,"motif":"","motif_pos":-1,"best_pos":1,"similarity":0.429},{"voice":1,"pitch":64,"start":90.25,"duration":0.25,"velocity":68,"measure":46,"beat":1.5,"subject_pos":-1,"motif":"","motif_pos":-1,"best_pos":0,"similarity":0.429},{"voice":1,"pitch":69,"start":90.5,"duration":0.6927,"velocity":68,"measure":46,"beat":2.0,"subject_pos":-1,"motif":"","motif_pos":-1,"best_pos":1,"similarity":0.589},{"voice":3,"pitch":53,"start":90.5,"duration":1.25,"velocity":53,"measure":46,"beat":2.0,"subject_pos":-1,"motif":"","motif_pos":-1,"best_pos":7,"similarity":0.429},{"voice":2,"pitch":57,"start":90.75,"duration":0.25,"velocity":59,"measure":46,"beat":2.5,"subject_pos":-1,"motif":"","motif_pos":-1,"best_pos":0,"similarity":0.3},{"voice":2,"pitch":62,"start":91.0,"duration":0.5,"velocity":59,"measure":46,"beat":3.0,"subject_pos":-1,"motif":"","motif_pos":-1,"best_pos":1,"similarity":0.314},{"voice":1,"pitch":65,"start":91.25,"duration":0.25,"velocity":68,"measure":46,"beat":3.5,"subject_pos":-1,"motif":"","motif_pos":-1,"best_pos":2,"similarity":0.5},{"voice":1,"pitch":70,"start":91.5,"duration":0.6927,"velocity":68,"measure":46,"beat":4.0,"subject_pos":-1,"motif":"","motif_pos":-1,"best_pos":1,"similarity":0.436},{"voice":2,"pitch":55,"start":91.5,"duration":0.5,"velocity":59,"measure":46,"beat":4.0,"subject_pos":-1,"motif":"","motif_pos":-1,"best_pos":0,"similarity":0.3},{"voice":3,"pitch":50,"start":91.75,"duration":0.25,"velocity":53,"measure":46,"beat":4.5,"subject_pos":-1,"motif":"","motif_pos":-1,"best_pos":3,"similarity":0.386},{"voice":2,"pitch":60,"start":92.0,"duration":0.5,"velocity":59,"measure":47,"beat":1.0,"subject_pos":-1,"motif":"","motif_pos":-1,"best_pos":1,"similarity":0.314},{"voice":3,"pitch":52,"start":92.0,"duration":0.75,"velocity":53,"measure":47,"beat":1.0,"subject_pos":-1,"motif":"","motif_pos":-1,"best_pos":2,"similarity":0.357},{"voice":1,"pitch":67,"start":92.25,"duration":0.25,"velocity":68,"measure":47,"beat":1.5,"subject_pos":-1,"motif":"","motif_pos":-1,"best_pos":3,"similarity":0.386},{"voice":1,"pitch":69,"start":92.5,"duration":0.6927,"velocity":68,"measure":47,"beat":2.0,"subject_pos":-1,"motif":"","motif_pos":-1,"best_pos":1,"similarity":0.35},{"voice":2,"pitch":53,"start":92.5,"duration":0.5,"velocity":59,"measure":47,"beat":2.0,"subject_pos":-1,"motif":"","motif_pos":-1,"best_pos":0,"similarity":0.321},{"voice":3,"pitch":49,"start":92.75,"duration":0.25,"velocity":53,"measure":47,"beat":2.5,"subject_pos":-1,"motif":"","motif_pos":-1,"best_pos":3,"similarity":0.457},{"voice":2,"pitch":58,"start":93.0,"duration":0.5,"velocity":59,"measure":47,"beat":3.0,"subject_pos":-1,"motif":"","motif_pos":-1,"best_pos":1,"similarity":0.364},{"voice":3,"pitch":50,"start":93.0,"duration":0.75,"velocity":53,"measure":47,"beat":3.0,"subject_pos":-1,"motif":"","motif_pos":-1,"best_pos":4,"similarity":0.393},{"voice":1,"pitch":65,"start":93.25,"duration":0.25,"velocity":68,"measure":47,"beat":3.5,"subject_pos":-1,"motif":"","motif_pos":-1,"best_pos":5,"similarity":0.386},{"voice":1,"pitch":67,"start":93.5,"duration":1.0,"velocity":68,"measure":47,"beat":4.0,"subject_pos":-1,"motif":"","motif_pos":-1,"best_pos":1,"similarity":0.457},{"voice":2,"pitch":52,"start":93.5,"duration":0.5,"velocity":59,"measure":47,"beat":4.0,"subject_pos":-1,"motif":"","motif_pos":-1,"best_pos":0,"similarity":0.357},{"voice":3,"pitch":47,"start":93.75,"duration":0.25,"velocity":53,"measure":47,"beat":4.5,"subject_pos":-1,"motif":"","motif_pos":-1,"best_pos":5,"similarity":0.421},{"voice":2,"pitch":57,"start":94.0,"duration":1.0,"velocity":59,"measure":48,"beat":1.0,"subject_pos":-1,"motif":"","motif_pos":-1,"best_pos":1,"similarity":0.5},{"voice":3,"pitch":49,"start":94.0,"duration":0.25,"velocity":53,"measure":48,"beat":1.0,"subject_pos":-1,"motif":"","motif_pos":-1,"best_pos":1,"similarity":0.35},{"voice":3,"pitch":45,"start":94.25,"duration":0.25,"velocity":53,"measure":48,"beat":1.5,"subject_pos":-1,"motif":"","motif_pos":-1,"best_pos":0,"similarity":0.446},{"voice":1,"pitch":65,"start":94.5,"duration":0.25,"velocity":68,"measure":48,"beat":2.0,"subject_pos":-1,"motif":"","motif_pos":-1,"best_pos":2,"similarity":0.593},{"voice":3,"pitch":50,"start":94.5,"duration":0.6927,"velocity":53,"measure":48,"beat":2.0,"subject_pos":-1,"motif":"","motif_pos":-1,"best_pos":1,"similarity":0.643},{"voice":1,"pitch":62,"start":94.75,"duration":0.25,"velocity":68,"measure":48,"beat":2.5,"subject_pos":-1,"motif":"","motif_pos":-1,"best_pos":3,"similarity":0.457},{"voice":1,"pitch":69,"start":95.0,"duration":1.0,"velocity":68,"measure":48,"beat":3.0,"subject_pos":-1,"motif":"","motif_pos":-1,"best_pos":0,"similarity":0.393},{"voice":2,"pitch":52,"start":95.0,"duration":0.4427,"velocity":59,"measure":48,"beat":3.0,"subject_pos":-1,"motif":"","motif_pos":-1,"best_pos":2,"similarity":0.436},{"voice":3,"pitch":48,"start":95.25,"duration":0.25,"velocity":53,"measure":48,"beat":3.5,"subject_pos":-1,"motif":"","motif_pos":-1,"best_pos":2,"similarity":0.607},{"voice":2,"pitch":57,"start":95.5,"duration":0.75,"velocity":59,"measure":48,"beat":4.0,"subject_pos":-1,"motif":"","motif_pos":-1,"best_pos":3,"similarity":0.514},{"voice":3,"pitch":47,"start":95.5,"duration":0.25,"velocity":53,"measure":48,"beat":4.0,"subject_pos":-1,"motif":"","motif_pos":-1,"best_pos":4,"similarity":0.536},{"voice":3,"pitch":45,"start":95.75,"duration":0.25,"velocity":53,"measure":48,"beat":4.5,"subject_pos":-1,"motif":"","motif_pos":-1,"best_pos":5,"similarity":0.507},{"voice":1,"pitch":74,"start":96.0,"duration":1.25,"velocity":68,"measure":49,"beat":1.0,"subject_pos":-1,"motif":"","motif_pos":-1,"best_pos":1,"similarity":0.507},{"voice":3,"pitch":47,"start":96.0,"duration":1.0,"velocity":53,"measure":49,"beat":1.0,"subject_pos":-1,"motif":"","motif_pos":-1,"best_pos":6,"similarity":0.4},{"voice":2,"pitch":56,"start":96.25,"duration":0.25,"velocity":59,"measure":49,"beat":1.5,"subject_pos":-1,"motif":"","motif_pos":-1,"best_pos":4,"similarity":0.564},{"voice":2,"pitch":54,"start":96.5,"duration":0.25,"velocity":59,"measure":49,"beat":2.0,"subject_pos":-1,"motif":"","motif_pos":-1,"best_pos":5,"similarity":0.6},{"voice":2,"pitch":56,"start":96.75,"duration":0.25,"velocity":59,"measure":49,"beat":2.5,"subject_pos":-1,"motif":"","motif_pos":-1,"best_pos":6,"similarity":0.657},{"voice":0,"pitch":76,"start":97.0,"duration":1.0,"velocity":76,"measure":49,"beat":3.0,"subject_pos":-1,"motif":"","motif_pos":-1,"best_pos":0,"similarity":0.5},{"voice":2,"pitch":57,"start":97.0,"duration":0.75,"velocity":59,"measure":49,"beat":3.0,"subject_pos":-1,"motif":"","motif_pos":-1,"best_pos":1,"similarity":0.457},{"voice":3,"pitch":45,"start":97.0,"duration":0.5,"velocity":53,"measure":49,"beat":3.0,"subject_pos":-1,"motif":"","motif_pos":-1,"best_pos":0,"similarity":0.321},{"voice":1,"pitch":73,"start":97.25,"duration":0.25,"velocity":68,"measure":49,"beat":3.5,"subject_pos":-1,"motif":"","motif_pos":-1,"best_pos":4,"similarity":0.529},{"voice":1,"pitch":71,"start":97.5,"duration":0.25,"velocity":68,"measure":49,"beat":4.0,"subject_pos":-1,"motif":"","motif_pos":-1,"best_pos":5,"similarity":0.6},{"voice":1,"pitch":73,"start":97.75,"duration":0.25,"velocity":68,"measure":49,"beat":4.5,"subject_pos":-1,"motif":"","motif_pos":-1,"best_pos":6,"similarity":0.657},{"voice":2,"pitch":55,"start":97.75,"duration":0.25,"velocity":59,"measure":49,"beat":4.5,"subject_pos":-1,"motif":"","motif_pos":-1,"best_pos":2,"similarity":0.593},{"voice":0,"pitch":81,"start":98.0,"duration":1.0,"velocity":76,"measure":50,"beat":1.0,"subject_pos":-1,"motif":"","motif_pos":-1,"best_pos":1,"similarity":0.786},{"voice":1,"pitch":74,"start":98.0,"duration":0.1927,"velocity":68,"measure":50,"beat":1.0,"subject_pos":-1,"motif":"","motif_pos":-1,"best_pos":7,"similarity":0.436},{"voice":2,"pitch":53,"start":98.0,"duration":0.25,"velocity":59,"measure":50,"beat":1.0,"subject_pos":-1,"motif":"","motif_pos":-1,"best_pos":3,"similarity":0.6},{"voice":1,"pitch":69,"start":98.25,"duration":0.25,"velocity":68,"measure":50,"beat":1.5,"subject_pos":-1,"motif":"","motif_pos":-1,"best_pos":0,"similarity":0.3},{"voice":2,"pitch":52,"start":98.25,"duration":0.25,"velocity":59,"measure":50,"beat":1.5,"subject_pos":-1,"motif":"","motif_pos":-1,"best_pos":4,"similarity":0.543},{"voice":1,"pitch":76,"start":98.5,"duration":0.6927,"velocity":68,"measure":50,"beat":2.0,"subject_pos":-1,"motif":"","motif_pos":-1,"best_pos":1,"similarity":0.314},{"voice":2,"pitch":50,"start":98.5,"duration":0.25,"velocity":59,"measure":50,"beat":2.0,"subject_pos":-1,"motif":"","motif_pos":-1,"best_pos":3,"similarity":0.679},{"voice":2,"pitch":49,"start":98.75,"duration":0.25,"velocity":59,"measure":50,"beat":2.5,"subject_pos":-1,"motif":"","motif_pos":-1,"best_pos":4,"similarity":0.757},{"voice":0,"pitch":77,"start":99.0,"duration":1.0,"velocity":76,"measure":50,"beat":3.0,"subject_pos":-1,"motif":"","motif_pos":-1,"best_pos":2,"similarity":0.929},{"voice":2,"pitch":50,"start":99.0,"duration":0.4427,"velocity":59,"measure":50,"beat":3.0,"subject_pos":-1,"motif":"","motif_pos":-1,"best_pos":5,"similarity":0.621},{"voice":1,"pitch":69,"start":99.25,"duration":0.25,"velocity":68,"measure":50,"beat":3.5,"subject_pos":-1,"motif":"","motif_pos":-1,"best_pos":0,"similarity":0.286},{"voice":1,"pitch":74,"start":99.5,"duration":0.5,"velocity":68,"measure":50,"beat":4.0,"subject_pos":-1,"motif":"","motif_pos":-1,"best_pos":1,"similarity":0.286},{"voice":2,"pitch":53,"start":99.5,"duration":0.25,"velocity":59,"measure":50,"beat":4.0,"subject_pos":-1,"motif":"","motif_pos":-1,"best_pos":6,"similarity":0.386},{"voice":2,"pitch":50,"start":99.75,"duration":0.25,"velocity":59,"measure":50,"beat":4.5,"subject_pos":-1,"motif":"","motif_pos":-1,"best_pos":3,"similarity":0.307},{"voice":0,"pitch":74,"start":100.0,"duration":1.0,"velocity":76,"measure":51,"beat":1.0,"subject_pos":-1,"motif":"tail","motif_pos":3,"best_pos":3,"similarity":1.0},{"voice":2,"pitch":58,"start":100.0,"duration":0.5,"velocity":59,"measure":51,"beat":1.0,"subject_pos":-1,"motif":"","motif_pos":-1,"best_pos":1,"similarity":0.429},{"voice":1,"pitch":65,"start":100.25,"duration":0.25,"velocity":68,"measure":51,"beat":1.5,"subject_pos":-1,"motif":"","motif_pos":-1,"best_pos":0,"similarity":0.321},{"voice":1,"pitch":70,"start":100.5,"duration":0.6927,"velocity":68,"measure":51,"beat":2.0,"subject_pos":-1,"motif":"","motif_pos":-1,"best_pos":1,"similarity":0.393},{"voice":2,"pitch":55,"start":100.5,"duration":0.25,"velocity":59,"measure":51,"beat":2.0,"subject_pos":-1,"motif":"","motif_pos":-1,"best_pos":2,"similarity":0.5},{"voice":2,"pitch":52,"start":100.75,"duration":0.25,"velocity":59,"measure":51,"beat":2.5,"subject_pos":-1,"motif":"","motif_pos":-1,"best_pos":3,"similarity":0.393},{"voice":0,"pitch":73,"start":101.0,"duration":1.0,"velocity":76,"measure":51,"beat":3.0,"subject_pos":-1,"motif":"tail","motif_pos":4,"best_pos":4,"similarity":1.0},{"voice":2,"pitch":57,"start":101.0,"duration":0.6927,"velocity":59,"measure":51,"beat":3.0,"subject_pos":-1,"motif":"","motif_pos":-1,"best_pos":1,"similarity":0.307},{"voice":1,"pitch":64,"start":101.25,"duration":0.25,"velocity":68,"measure":51,"beat":3.5,"subject_pos":-1,"motif":"","motif_pos":-1,"best_pos":0,"similarity":0.464},{"voice":1,"pitch":69,"start":101.5,"duration":0.75,"velocity":68,"measure":51,"beat":4.0,"subject_pos":-1,"motif":"","motif_pos":-1,"best_pos":1,"similarity":0.714},{"voice":2,"pitch":65,"start":101.75,"duration":0.25,"velocity":59,"measure":51,"beat":4.5,"subject_pos":-1,"motif":"","motif_pos":-1,"best_pos":2,"similarity":0.257},{"voice":0,"pitch":74,"start":102.0,"duration":0.5,"velocity":76,"measure":52,"beat":1.0,"subject_pos":-1,"motif":"tail","motif_pos":5,"best_pos":5,"similarity":1.0},{"voice":2,"pitch":59,"start":102.0,"duration":0.5,"velocity":59,"measure":52,"beat":1.0,"subject_pos":-1,"motif":"","motif_pos":-1,"best_pos":5,"similarity":0.429},{"voice":1,"pitch":67,"start":102.25,"duration":0.25,"velocity":68,"measure":52,"beat":1.5,"subject_pos":-1,"motif":"","motif_pos":-1,"best_pos":2,"similarity":0.721},{"voice":0,"pitch":76,"start":102.5,"duration":0.5,"velocity":76,"measure":52,"beat":2.0,"subject_pos":-1,"motif":"tail","motif_pos":6,"best_pos":6,"similarity":1.0},{"voice":1,"pitch":65,"start":102.5,"duration":0.25,"velocity":68,"measure":52,"beat":2.0,"subject_pos":-1,"motif":"","motif_pos":-1,"best_pos":3,"similarity":0.657},{"voice":2,"pitch":61,"start":102.5,"duration":0.5,"velocity":59,"measure":52,"beat":2.0,"subject_pos":-1,"motif":"","motif_pos":-1,"best_pos":6,"similarity":0.571},{"voice":1,"pitch":64,"start":102.75,"duration":0.25,"velocity":68,"measure":52,"beat":2.5,"subject_pos":-1,"motif":"","motif_pos":-1,"best_pos":4,"similarity":0.464},{"voice":0,"pitch":77,"start":103.0,"duration":1.4115,"velocity":76,"measure":52,"beat":3.0,"subject_pos":-1,"motif":"tail","motif_pos":7,"best_pos":7,"similarity":1.0},{"voice":1,"pitch":62,"start":103.0,"duration":0.25,"velocity":68,"measure":52,"beat":3.0,"subject_pos":-1,"motif":"","motif_pos":-1,"best_pos":0,"similarity":0.321},{"voice":2,"pitch":62,"start":103.0,"duration":0.5,"velocity":59,"measure":52,"beat":3.0,"subject_pos":-1,"motif":"","motif_pos":-1,"best_pos":1,"similarity":0.457},{"voice":1,"pitch":69,"start":103.25,"duration":0.25,"velocity":68,"measure":52,"beat":3.5,"subject_pos":-1,"motif":"","motif_pos":-1,"best_pos":0,"similarity":0.5},{"voice":1,"pitch":74,"start":103.5,"duration":0.25,"velocity":68,"measure":52,"beat":4.0,"subject_pos":-1,"motif":"","motif_pos":-1,"best_pos":1,"similarity":0.732},{"voice":2,"pitch":58,"start":103.5,"duration":0.25,"velocity":59,"measure":52,"beat":4.0,"subject_pos":-1,"motif":"","motif_pos":-1,"best_pos":2,"similarity":0.593},{"voice":1,"pitch":70,"start":103.75,"duration":0.25,"velocity":68,"measure":52,"beat":4.5,"subject_pos":-1,"motif":"","motif_pos":-1,"best_pos":2,"similarity":0.75},{"voice":2,"pitch":55,"start":103.75,"duration":0.25,"velocity":59,"measure":52,"beat":4.5,"subject_pos":-1,"motif":"","motif_pos":-1,"best_pos":3,"similarity":0.45},{"voice":1,"pitch":67,"start":104.0,"duration":0.25,"velocity":68,"measure":53,"beat":1.0,"subject_pos":-1,"motif":"","motif_pos":-1,"best_pos":3,"similarity":0.579},{"voice":2,"pitch":60,"start":104.0,"duration":0.5,"velocity":59,"measure":53,"beat":1.0,"subject_pos":-1,"motif":"","motif_pos":-1,"best_pos":1,"similarity":0.5},{"voice":0,"pitch":79,"start":104.25,"duration":0.4115,"velocity":76,"measure":53,"beat":1.5,"subject_pos":-1,"motif":"","motif_pos":-1,"best_pos":6,"similarity":0.464},{"voice":1,"pitch":64,"start":104.25,"duration":0.25,"velocity":68,"measure":53,"beat":1.5,"subject_pos":-1,"motif":"","motif_pos":-1,"best_pos":3,"similarity":0.379},{"voice":0,"pitch":77,"start":104.5,"duration":0.4115,"velocity":76,"measure":53,"beat":2.0,"subject_pos":-1,"motif":"","motif_pos":-1,"best_pos":3,"similarity":0.536},{"voice":1,"pitch":72,"start":104.5,"duration":1.0,"velocity":68,"measure":53,"beat":2.0,"subject_pos":-1,"motif":"","motif_pos":-1,"best_pos":1,"similarity":0.5},{"voice":2,"pitch":57,"start":104.5,"duration":0.25,"velocity":59,"measure":53,"beat":2.0,"subject_pos":-1,"motif":"","motif_pos":-1,"best_pos":2,"similarity":0.436},{"voice":0,"pitch":76,"start":104.75,"duration":0.4115,"velocity":76,"measure":53,"beat":2.5,"subject_pos":-1,"motif":"","motif_pos":-1,"best_pos":4,"similarity":0.543},{"voice":2,"pitch":53,"start":104.75,"duration":0.25,"velocity":59,"measure":53,"beat":2.5,"subject_pos":-1,"motif":"","motif_pos":-1,"best_pos":3,"similarity":0.307},{"voice":0,"pitch":74,"start":105.0,"duration":0.9115,"velocity":76,"measure":53,"beat":3.0,"subject_pos":-1,"motif":"","motif_pos":-1,"best_pos":5,"similarity":0.507},{"voice":2,"pitch":58,"start":105.0,"duration":0.25,"velocity":59,"measure":53,"beat":3.0,"subject_pos":-1,"motif":"","motif_pos":-1,"best_pos":1,"similarity":0.304},{"voice":2,"pitch":62,"start":105.25,"duration":0.25,"velocity":59,"measure":53,"beat":3.5,"subject_pos":-1,"motif":"","motif_pos":-1,"best_pos":0,"similarity":0.364},{"voice":1,"pitch":70,"start":105.5,"duration":0.5,"velocity":68,"measure":53,"beat":4.0,"subject_pos":-1,"motif":"","motif_pos":-1,"best_pos":2,"similarity":0.507},{"voice":2,"pitch":67,"start":105.5,"duration":0.6927,"velocity":59,"measure":53,"beat":4.0,"subject_pos":-1,"motif":"","motif_pos":-1,"best_pos":1,"similarity":0.479},{"voice":0,"pitch":76,"start":105.75,"duration":0.4115,"velocity":76,"measure":53,"beat":4.5,"subject_pos":-1,"motif":"","motif_pos":-1,"best_pos":6,"similarity":0.4},{"voice":0,"pitch":73,"start":106.0,"duration":0.5,"velocity":76,"measure":54,"beat":1.0,"subject_pos":-1,"motif":"","motif_pos":-1,"best_pos":4,"similarity":0.5},{"voice":1,"pitch":69,"start":106.0,"duration":1.0,"velocity":68,"measure":54,"beat":1.0,"subject_pos":-1,"motif":"","motif_pos":-1,"best_pos":1,"similarity":0.429},{"voice":2,"pitch":64,"start":106.25,"duration":0.25,"velocity":59,"measure":54,"beat":1.5,"subject_pos":-1,"motif":"","motif_pos":-1,"best_pos":3,"similarity":0.471},{"voice":0,"pitch":74,"start":106.5,"duration":0.4115,"velocity":76,"measure":54,"beat":2.0,"subject_pos":-1,"motif":"","motif_pos":-1,"best_pos":5,"similarity":0.464},{"voice":2,"pitch":65,"start":106.5,"duration":0.6927,"velocity":59,"measure":54,"beat":2.0,"subject_pos":-1,"motif":"","motif_pos":-1,"best_pos":5,"similarity":0.429},{"voice":0,"pitch":77,"start":106.75,"duration":0.4115,"velocity":76,"measure":54,"beat":2.5,"subject_pos":-1,"motif":"","motif_pos":-1,"best_pos":6,"similarity":0.304},{"voice":1,"pitch":67,"start":107.0,"duration":0.75,"velocity":68,"measure":54,"beat":3.0,"subject_pos":-1,"motif":"","motif_pos":-1,"best_pos":2,"similarity":0.579},{"voice":2,"pitch":65,"start":107.25,"duration":0.25,"velocity":59,"measure":54,"beat":3.5,"subject_pos":-1,"motif":"","motif_pos":-1,"best_pos":3,"similarity":0.35},{"voice":2,"pitch":64,"start":107.5,"duration":0.25,"velocity":59,"measure":54,"beat":4.0,"subject_pos":-1,"motif":"","motif_pos":-1,"best_pos":2,"similarity":0.5},{"voice":1,"pitch":65,"start":107.75,"duration":0.25,"velocity":68,"measure":54,"beat":4.5,"subject_pos":-1,"motif":"","motif_pos":-1,"best_pos":3,"similarity":0.593},{"voice":2,"pitch":62,"start":107.75,"duration":0.25,"velocity":59,"measure":54,"beat":4.5,"subject_pos":-1,"motif":"","motif_pos":-1,"best_pos":3,"similarity":0.65},{"voice":1,"pitch":64,"start":108.0,"duration":1.5,"velocity":68,"measure":55,"beat":1.0,"subject_pos":-1,"motif":"","motif_pos":-1,"best_pos":4,"similarity":0.543},{"voice":2,"pitch":61,"start":108.0,"duration":1.0,"velocity":59,"measure":55,"beat":1.0,"subject_pos":-1,"motif":"","motif_pos":-1,"best_pos":4,"similarity":0.7},{"voice":0,"pitch":70,"start":108.25,"duration":0.1615,"velocity":76,"measure":55,"beat":1.5,"subject_pos":-1,"motif":"","motif_pos":-1,"best_pos":3,"similarity":0.343},{"voice":0,"pitch":69,"start":108.5,"duration":0.4115,"velocity":76,"measure":55,"beat":2.0,"subject_pos":-1,"motif":"","motif_pos":-1,"best_pos":2,"similarity":0.364},{"voice":0,"pitch":67,"start":108.75,"duration":0.4115,"velocity":76,"measure":55,"beat":2.5,"subject_pos":-1,"motif":"","motif_pos":-1,"best_pos":2,"similarity":0.446},{"voice":0,"pitch":65,"start":109.0,"duration":1.0,"velocity":76,"measure":55,"beat":3.0,"subject_pos":-1,"motif":"","motif_pos":-1,"best_pos":2,"similarity":0.429},{"voice":2,"pitch":62,"start":109.0,"duration":0.25,"velocity":59,"measure":55,"beat":3.0,"subject_pos":-1,"motif":"","motif_pos":-1,"best_pos":5,"similarity":0.507},{"voice":2,"pitch":60,"start":109.25,"duration":0.25,"velocity":59,"measure":55,"beat":3.5,"subject_pos":-1,"motif":"","motif_pos":-1,"best_pos":2,"similarity":0.593},{"voice":1,"pitch":62,"start":109.5,"duration":0.25,"velocity":68,"measure":55,"beat":4.0,"subject_pos":-1,"motif":"","motif_pos":-1,"best_pos":3,"similarity":0.65},{"voice":2,"pitch":58,"start":109.5,"duration":0.25,"velocity":59,"measure":55,"beat":4.0,"subject_pos":-1,"motif":"","motif_pos":-1,"best_pos":3,"similarity":0.664},{"voice":1,"pitch":61,"start":109.75,"duration":0.25,"velocity":68,"measure":55,"beat":4.5,"subject_pos":-1,"motif":"","motif_pos":-1,"best_pos":4,"similarity":0.7},{"voice":2,"pitch":57,"start":109.75,"duration":0.25,"velocity":59,"measure":55,"beat":4.5,"subject_pos":-1,"motif":"","motif_pos":-1,"best_pos":4,"similarity":0.671},{"voice":0,"pitch":70,"start":110.0,"duration":1.0,"velocity":76,"measure":56,"beat":1.0,"subject_pos":-1,"motif":"","motif_pos":-1,"best_pos":1,"similarity":0.446},{"voice":1,"pitch":62,"start":110.0,"duration":0.4427,"velocity":68,"measure":56,"beat":1.0,"subject_pos":-1,"motif":"","motif_pos":-1,"best_pos":5,"similarity":0.507},{"voice":2,"pitch":55,"start":110.0,"duration":0.25,"velocity":59,"measure":56,"beat":1.0,"subject_pos":-1,"motif":"","motif_pos":-1,"best_pos":5,"similarity":0.636},{"voice":2,"pitch":57,"start":110.25,"duration":0.25,"velocity":59,"measure":56,"beat":1.5,"subject_pos":-1,"motif":"","motif_pos":-1,"best_pos":6,"similarity":0.657},{"voice":1,"pitch":67,"start":110.5,"duration":1.25,"velocity":68,"measure":56,"beat":2.0,"subject_pos":-1,"motif":"","motif_pos":-1,"best_pos":1,"similarity":0.643},{"voice":2,"pitch":58,"start":110.5,"duration":0.25,"velocity":59,"measure":56,"beat":2.0,"subject_pos":-1,"motif":"","motif_pos":-1,"best_pos":5,"similarity":0.693},{"voice":2,"pitch":60,"start":110.75,"duration":0.25,"velocity":59,"measure":56,"beat":2.5,"subject_pos":-1,"motif":"","motif_pos":-1,"best_pos":6,"similarity":0.579},{"voice":0,"pitch":69,"start":111.0,"duration":1.5,"velocity":76,"measure":56,"beat":3.0,"subject_pos":-1,"motif":"","motif_pos":-1,"best_pos":4,"similarity":0.429},{"voice":2,"pitch":62,"start":111.0,"duration":0.25,"velocity":59,"measure":56,"beat":3.0,"subject_pos":-1,"motif":"","motif_pos":-1,"best_pos":6,"similarity":0.375},{"voice":3,"pitch":50,"start":111.0,"duration":1.0,"velocity":53,"measure":56,"beat":3.0,"subject_pos":0,"motif":"subject","motif_pos":0,"best_pos":0,"similarity":1.0},{"voice":2,"pitch":57,"start":111.25,"duration":0.25,"velocity":59,"measure":56,"beat":3.5,"subject_pos":-1,"motif":"","motif_pos":-1,"best_pos":0,"similarity":0.357},{"voice":2,"pitch":62,"start":111.5,"duration":0.6927,"velocity":59,"measure":56,"beat":4.0,"subject_pos":-1,"motif":"","motif_pos":-1,"best_pos":1,"similarity":0.436},{"voice":1,"pitch":65,"start":111.75,"duration":0.25,"velocity":68,"measure":56,"beat":4.5,"subject_pos":-1,"motif":"","motif_pos":-1,"best_pos":2,"similarity":0.579},{"voice":1,"pitch":64,"start":112.0,"duration":0.6927,"velocity":68,"measure":57,"beat":1.0,"subject_pos":-1,"motif":"","motif_pos":-1,"best_pos":4,"similarity":0.521},{"voice":3,"pitch":57,"start":112.0,"duration":1.0,"velocity":53,"measure":57,"beat":1.0,"subject_pos":1,"motif":"subject","motif_pos":1,"best_pos":1,"similarity":1.0},{"voice":2,"pitch":59,"start":112.25,"duration":0.25,"velocity":59,"measure":57,"beat":1.5,"subject_pos":-1,"motif":"","motif_pos":-1,"best_pos":5,"similarity":0.368},{"voice":0,"pitch":76,"start":112.5,"duration":0.9115,"velocity":76,"measure":57,"beat":2.0,"subject_pos":-1,"motif":"","motif_pos":-1,"best_pos":1,"similarity":0.45},{"voice":2,"pitch":61,"start":112.5,"duration":0.6927,"velocity":59,"measure":57,"beat":2.0,"subject_pos":-1,"motif":"","motif_pos":-1,"best_pos":6,"similarity":0.371},{"voice":1,"pitch":64,"start":112.75,"duration":0.25,"velocity":68,"measure":57,"beat":2.5,"subject_pos":-1,"motif":"","motif_pos":-1,"best_pos":0,"similarity":0.429},{"voice":1,"pitch":69,"start":113.0,"duration":1.5,"velocity":68,"measure":57,"beat":3.0,"subject_pos":-1,"motif":"","motif_pos":-1,"best_pos":1,"similarity":0.643},{"voice":3,"pitch":53,"start":113.0,"duration":1.0,"velocity":53,"measure":57,"beat":3.0,"subject_pos":2,"motif":"subject","motif_pos":2,"best_pos":2,"similarity":1.0},{"voice":0,"pitch":73,"start":113.25,"duration":0.4115,"velocity":76,"measure":57,"beat":3.5,"subject_pos":-1,"motif":"","motif_pos":-1,"best_pos":4,"similarity":0.607},{"voice":2,"pitch":64,"start":113.25,"duration":0.25,"velocity":59,"measure":57,"beat":3.5,"subject_pos":-1,"motif":"","motif_pos":-1,"best_pos":6,"similarity":0.232},{"voice":0,"pitch":74,"start":113.5,"duration":0.4115,"velocity":76,"measure":57,"beat":4.0,"subject_pos":-1,"motif":"","motif_pos":-1,"best_pos":5,"similarity":0.75},{"voice":2,"pitch":57,"start":113.5,"duration":0.25,"velocity":59,"measure":57,"beat":4.0,"subject_pos":-1,"motif":"","motif_pos":-1,"best_pos":5,"similarity":0.229},{"voice":0,"pitch":76,"start":113.75,"duration":0.4115,"velocity":76,"measure":57,"beat":4.5,"subject_pos":-1,"motif":"","motif_pos":-1,"best_pos":6,"similarity":0.732},{"voice":2,"pitch":61,"start":113.75,"duration":0.25,"velocity":59,"measure":57,"beat":4.5,"subject_pos":-1,"motif":"","motif_pos":-1,"best_pos":6,"similarity":0.364},{"voice":0,"pitch":77,"start":114.0,"duration":0.4115,"velocity":76,"measure":58,"beat":1.0,"subject_pos":-1,"motif":"","motif_pos":-1,"best_pos":7,"similarity":0.5},{"voice":2,"pitch":62,"start":114.0,"duration":0.5,"velocity":59,"measure":58,"beat":1.0,"subject_pos":-1,"motif":"","motif_pos":-1,"best_pos":1,"similarity":0.475},{"voice":3,"pitch":50,"start":114.0,"duration":1.0,"velocity":53,"measure":58,"beat":1.0,"subject_pos":3,"motif":"subject","motif_pos":3,"best_pos":3,"similarity":1.0},{"voice":0,"pitch":74,"start":114.25,"duration":0.4115,"velocity":76,"measure":58,"beat":1.5,"subject_pos":-1,"motif":"","motif_pos":-1,"best_pos":0,"similarity":0.357},{"voice":0,"pitch":79,"start":114.5,"duration":0.9115,"velocity":76,"measure":58,"beat":2.0,"subject_pos":-1,"motif":"","motif_pos":-1,"best_pos":1,"similarity":0.464},{"voice":1,"pitch":67,"start":114.5,"duration":0.25,"velocity":68,"measure":58,"beat":2.0,"subject_pos":-1,"motif":"","motif_pos":-1,"best_pos":2,"similarity":0.579},{"voice":2,"pitch":58,"start":114.5,"duration":0.25,"velocity":59,"measure":58,"beat":2.0,"subject_pos":-1,"motif":"","motif_pos":-1,"best_pos":2,"similarity":0.693},{"voice":1,"pitch":70,"start":114.75,"duration":0.25,"velocity":68,"measure":58,"beat":2.5,"subject_pos":-1,"motif":"","motif_pos":-1,"best_pos":3,"similarity":0.521},{"voice":2,"pitch":55,"start":114.75,"duration":0.25,"velocity":59,"measure":58,"beat":2.5,"subject_pos":-1,"motif":"","motif_pos":-1,"best_pos":3,"similarity":0.721},{"voice":1,"pitch":69,"start":115.0,"duration":1.1927,"velocity":68,"measure":58,"beat":3.0,"subject_pos":-1,"motif":"","motif_pos":-1,"best_pos":1,"similarity":0.429},{"voice":2,"pitch":52,"start":115.0,"duration":1.0,"velocity":59,"measure":58,"beat":3.0,"subject_pos":-1,"motif":"","motif_pos":-1,"best_pos":4,"similarity":0.75},{"voice":3,"pitch":49,"start":115.0,"duration":1.0,"velocity":53,"measure":58,"beat":3.0,"subject_pos":4,"motif":"subject","motif_pos":4,"best_pos":4,"similarity":1.0},{"voice":0,"pitch":76,"start":115.25,"duration":0.4115,"velocity":76,"measure":58,"beat":3.5,"subject_pos":-1,"motif":"","motif_pos":-1,"best_pos":0,"similarity":0.464},{"voice":0,"pitch":81,"start":115.5,"duration":0.4115,"velocity":76,"measure":58,"beat":4.0,"subject_pos":-1,"motif":"","motif_pos":-1,"best_pos":1,"similarity":0.714},{"voice":0,"pitch":79,"start":115.75,"duration":0.4115,"velocity":76,"measure":58,"beat":4.5,"subject_pos":-1,"motif":"","motif_pos":-1,"best_pos":2,"similarity":0.721},{"voice":0,"pitch":77,"start":116.0,"duration":0.4115,"velocity":76,"measure":59,"beat":1.0,"subject_pos":-1,"motif":"","motif_pos":-1,"best_pos":3,"similarity":0.664},{"voice":2,"pitch":53,"start":116.0,"duration":0.5,"velocity":59,"measure":59,"beat":1.0,"subject_pos":-1,"motif":"","motif_pos":-1,"best_pos":5,"similarity":0.75},{"voice":3,"pitch":50,"start":116.0,"duration":0.5,"velocity":53,"measure":59,"beat":1.0,"subject_pos":5,"motif":"subject","motif_pos":5,"best_pos":5,"similarity":1.0},{"voice":0,"pitch":76,"start":116.25,"duration":0.4115,"velocity":76,"measure":59,"beat":1.5,"subject_pos":-1,"motif":"","motif_pos":-1,"best_pos":4,"similarity":0.543},{"voice":1,"pitch":67,"start":116.25,"duration":0.25,"velocity":68,"measure":59,"beat":1.5,"subject_pos":-1,"motif":"","motif_pos":-1,"best_pos":2,"similarity":0.579},{"voice":0,"pitch":74,"start":116.5,"duration":0.4115,"velocity":76,"measure":59,"beat":2.0,"subject_pos":-1,"motif":"","motif_pos":-1,"best_pos":3,"similarity":0.65},{"voice":1,"pitch":65,"start":116.5,"duration":0.25,"velocity":68,"measure":59,"beat":2.0,"subject_pos":-1,"motif":"","motif_pos":-1,"best_pos":3,"similarity":0.657},{"voice":2,"pitch":55,"start":116.5,"duration":0.5,"velocity":59,"measure":59,"beat":2.0,"subject_pos":-1,"motif":"","motif_pos":-1,"best_pos":5,"similarity":0.607},{"voice":3,"pitch":52,"start":116.5,"duration":0.5,"velocity":53,"measure":59,"beat":2.0,"subject_pos":6,"motif":"subject","motif_pos":6,"best_pos":6,"similarity":1.0},{"voice":0,"pitch":73,"start":116.75,"duration":0.4115,"velocity":76,"measure":59,"beat":2.5,"subject_pos":-1,"motif":"","motif_pos":-1,"best_pos":4,"similarity":0.7},{"voice":1,"pitch":64,"start":116.75,"duration":0.25,"velocity":68,"measure":59,"beat":2.5,"subject_pos":-1,"motif":"","motif_pos":-1,"best_pos":4,"similarity":0.6},{"voice":0,"pitch":74,"start":117.0,"duration":0.4115,"velocity":76,"measure":59,"beat":3.0,"subject_pos":-1,"motif":"","motif_pos":-1,"best_pos":5,"similarity":0.507},{"voice":1,"pitch":62,"start":117.0,"duration":1.5,"velocity":68,"measure":59,"beat":3.0,"subject_pos":-1,"motif":"","motif_pos":-1,"best_pos":5,"similarity":0.493},{"voice":2,"pitch":57,"start":117.0,"duration":1.0,"velocity":59,"measure":59,"beat":3.0,"subject_pos":-1,"motif":"","motif_pos":-1,"best_pos":5,"similarity":0.521},{"voice":3,"pitch":53,"start":117.0,"duration":1.25,"velocity":53,"measure":59,"beat":3.0,"subject_pos":7,"motif":"subject","motif_pos":7,"best_pos":7,"similarity":1.0},{"voice":0,"pitch":72,"start":117.25,"duration":0.4115,"velocity":76,"measure":59,"beat":3.5,"subject_pos":-1,"motif":"","motif_pos":-1,"best_pos":2,"similarity":0.593},{"voice":0,"pitch":70,"start":117.5,"duration":0.4115,"velocity":76,"measure":59,"beat":4.0,"subject_pos":-1,"motif":"","motif_pos":-1,"best_pos":3,"similarity":0.593},{"voice":0,"pitch":69,"start":117.75,"duration":0.4115,"velocity":76,"measure":59,"beat":4.5,"subject_pos":-1,"motif":"","motif_pos":-1,"best_pos":4,"similarity":0.529},{"voice":0,"pitch":67,"start":118.0,"duration":1.4115,"velocity":76,"measure":60,"beat":1.0,"subject_pos":-1,"motif":"","motif_pos":-1,"best_pos":2,"similarity":0.614},{"voice":2,"pitch":59,"start":118.0,"duration":0.5,"velocity":59,"measure":60,"beat":1.0,"subject_pos":-1,"motif":"","motif_pos":-1,"best_pos":5,"similarity":0.586},{"voice":3,"pitch":55,"start":118.25,"duration":0.25,"velocity":53,"measure":60,"beat":1.5,"subject_pos":-1,"motif":"","motif_pos":-1,"best_pos":6,"similarity":0.464},{"voice":1,"pitch":64,"start":118.5,"duration":0.5,"velocity":68,"measure":60,"beat":2.0,"subject_pos":-1,"motif":"","motif_pos":-1,"best_pos":6,"similarity":0.371},{"voice":2,"pitch":61,"start":118.5,"duration":0.5,"velocity":59,"measure":60,"beat":2.0,"subject_pos":-1,"motif":"","motif_pos":-1,"best_pos":6,"similarity":0.65},{"voice":3,"pitch":53,"start":118.5,"duration":0.25,"velocity":53,"measure":60,"beat":2.0,"subject_pos":-1,"motif":"","motif_pos":-1,"best_pos":2,"similarity":0.514},{"voice":3,"pitch":52,"start":118.75,"duration":0.25,"velocity":53,"measure":60,"beat":2.5,"subject_pos":-1,"motif":"","motif_pos":-1,"best_pos":3,"similarity":0.514},{"voice":1,"pitch":57,"start":119.0,"duration":0.5,"velocity":68,"measure":60,"beat":3.0,"subject_pos":-1,"motif":"","motif_pos":-1,"best_pos":0,"similarity":0.214},{"voice":2,"pitch":62,"start":119.0,"duration":0.5,"velocity":59,"measure":60,"beat":3.0,"subject_pos":-1,"motif":"","motif_pos":-1,"best_pos":7,"similarity":0.464},{"voice":3,"pitch":50,"start":119.0,"duration":1.25,"velocity":53,"measure":60,"beat":3.0,"subject_pos":-1,"motif":"","motif_pos":-1,"best_pos":4,"similarity":0.557},{"voice":0,"pitch":64,"start":119.25,"duration":0.4115,"velocity":76,"measure":60,"beat":3.5,"subject_pos":-1,"motif":"","motif_pos":-1,"best_pos":3,"similarity":0.514},{"voice":0,"pitch":65,"start":119.5,"duration":0.4115,"velocity":76,"measure":60,"beat":4.0,"subject_pos":-1,"motif":"","motif_pos":-1,"best_pos":5,"similarity":0.357},{"voice":0,"pitch":62,"start":119.75,"duration":0.4115,"velocity":76,"measure":60,"beat":4.5,"subject_pos":-1,"motif":"","motif_pos":-1,"best_pos":0,"similarity":0.364},{"voice":0,"pitch":69,"start":120.0,"duration":1.4115,"velocity":76,"measure":61,"beat":1.0,"subject_pos":-1,"motif":"","motif_pos":-1,"best_pos":1,"similarity":0.45},{"voice":3,"pitch":51,"start":120.25,"duration":0.25,"velocity":53,"measure":61,"beat":1.5,"subject_pos":-1,"motif":"","motif_pos":-1,"best_pos":3,"similarity":0.479},{"voice":1,"pitch":63,"start":120.5,"duration":0.5,"velocity":68,"measure":61,"beat":2.0,"subject_pos":-1,"motif":"","motif_pos":-1,"best_pos":3,"similarity":0.357},{"voice":2,"pitch":54,"start":120.5,"duration":0.5,"velocity":59,"measure":61,"beat":2.0,"subject_pos":-1,"motif":"","motif_pos":-1,"best_pos":4,"similarity":0.521},{"voice":3,"pitch":50,"start":120.5,"duration":0.25,"velocity":53,"measure":61,"beat":2.0,"subject_pos":-1,"motif":"","motif_pos":-1,"best_pos":4,"similarity":0.45},{"voice":3,"pitch":48,"start":120.75,"duration":0.25,"velocity":53,"measure":61,"beat":2.5,"subject_pos":-1,"motif":"","motif_pos":-1,"best_pos":2,"similarity":0.45},{"voice":1,"pitch":62,"start":121.0,"duration":1.0,"velocity":68,"measure":61,"beat":3.0,"subject_pos":-1,"motif":"","motif_pos":-1,"best_pos":4,"similarity":0.411},{"voice":2,"pitch":55,"start":121.0,"duration":0.25,"velocity":59,"measure":61,"beat":3.0,"subject_pos":-1,"motif":"","motif_pos":-1,"best_pos":5,"similarity":0.721},{"voice":3,"pitch":46,"start":121.0,"duration":1.25,"velocity":53,"measure":61,"beat":3.0,"subject_pos":-1,"motif":"","motif_pos":-1,"best_pos":4,"similarity":0.425},{"voice":0,"pitch":66,"start":121.25,"duration":0.4115,"velocity":76,"measure":61,"beat":3.5,"subject_pos":-1,"motif":"","motif_pos":-1,"best_pos":4,"similarity":0.5},{"voice":2,"pitch":57,"start":121.25,"duration":0.25,"velocity":59,"measure":61,"beat":3.5,"subject_pos":-1,"motif":"","motif_pos":-1,"best_pos":6,"similarity":0.714},{"voice":0,"pitch":67,"start":121.5,"duration":0.4115,"velocity":76,"measure":61,"beat":4.0,"subject_pos":-1,"motif":"","motif_pos":-1,"best_pos":5,"similarity":0.536},{"voice":2,"pitch":58,"start":121.5,"duration":0.5,"velocity":59,"measure":61,"beat":4.0,"subject_pos":-1,"motif":"","motif_pos":-1,"best_pos":5,"similarity":0.664},{"voice":0,"pitch":70,"start":121.75,"duration":0.4115,"velocity":76,"measure":61,"beat":4.5,"subject_pos":-1,"motif":"","motif_pos":-1,"best_pos":5,"similarity":0.479},{"voice":0,"pitch":72,"start":122.0,"duration":1.4115,"velocity":76,"measure":62,"beat":1.0,"subject_pos":-1,"motif":"","motif_pos":-1,"best_pos":2,"similarity":0.393},{"voice":3,"pitch":48,"start":122.25,"duration":0.25,"velocity":53,"measure":62,"beat":1.5,"subject_pos":-1,"motif":"","motif_pos":-1,"best_pos":1,"similarity":0.386},{"voice":1,"pitch":66,"start":122.5,"duration":0.5,"velocity":68,"measure":62,"beat":2.0,"subject_pos":-1,"motif":"","motif_pos":-1,"best_pos":4,"similarity":0.407},{"voice":2,"pitch":60,"start":122.5,"duration":0.5,"velocity":59,"measure":62,"beat":2.0,"subject_pos":-1,"motif":"","motif_pos":-1,"best_pos":6,"similarity":0.579},{"voice":3,"pitch":46,"start":122.5,"duration":0.25,"velocity":53,"measure":62,"beat":2.0,"subject_pos":-1,"motif":"","motif_pos":-1,"best_pos":2,"similarity":0.479},{"voice":3,"pitch":45,"start":122.75,"duration":0.25,"velocity":53,"measure":62,"beat":2.5,"subject_pos":-1,"motif":"","motif_pos":-1,"best_pos":3,"similarity":0.507},{"voice":1,"pitch":67,"start":123.0,"duration":0.25,"velocity":68,"measure":62,"beat":3.0,"subject_pos":-1,"motif":"","motif_pos":-1,"best_pos":3,"similarity":0.493},{"voice":2,"pitch":62,"start":123.0,"duration":1.0,"velocity":59,"measure":62,"beat":3.0,"subject_pos":-1,"motif":"","motif_pos":-1,"best_pos":6,"similarity":0.375},{"voice":3,"pitch":43,"start":123.0,"duration":1.4427,"velocity":53,"measure":62,"beat":3.0,"subject_pos":-1,"motif":"","motif_pos":-1,"best_pos":4,"similarity":0.571},{"voice":0,"pitch":69,"start":123.25,"duration":0.4115,"velocity":76,"measure":62,"beat":3.5,"subject_pos":-1,"motif":"","motif_pos":-1,"best_pos":4,"similarity":0.464},{"voice":1,"pitch":66,"start":123.25,"duration":0.25,"velocity":68,"measure":62,"beat":3.5,"subject_pos":-1,"motif":"","motif_pos":-1,"best_pos":4,"similarity":0.675},{"voice":0,"pitch":70,"start":123.5,"duration":0.4115,"velocity":76,"measure":62,"beat":4.0,"subject_pos":-1,"motif":"","motif_pos":-1,"best_pos":5,"similarity":0.536},{"voice":1,"pitch":67,"start":123.5,"duration":0.5,"velocity":68,"measure":62,"beat":4.0,"subject_pos":-1,"motif":"","motif_pos":-1,"best_pos":5,"similarity":0.614},{"voice":0,"pitch":74,"start":123.75,"duration":0.4115,"velocity":76,"measure":62,"beat":4.5,"subject_pos":-1,"motif":"","motif_pos":-1,"best_pos":6,"similarity":0.518},{"voice":0,"pitch":75,"start":124.0,"duration":0.5,"velocity":76,"measure":63,"beat":1.0,"subject_pos":-1,"motif":"","motif_pos":-1,"best_pos":7,"similarity":0.393},{"voice":2,"pitch":55,"start":124.25,"duration":0.5,"velocity":59,"measure":63,"beat":1.5,"subject_pos":-1,"motif":"","motif_pos":-1,"best_pos":2,"similarity":0.4},{"voice":0,"pitch":74,"start":124.5,"duration":0.5,"velocity":76,"measure":63,"beat":2.0,"subject_pos":-1,"motif":"","motif_pos":-1,"best_pos":3,"similarity":0.407},{"voice":1,"pitch":70,"start":124.5,"duration":0.6927,"velocity":68,"measure":63,"beat":2.0,"subject_pos":-1,"motif":"","motif_pos":-1,"best_pos":6,"similarity":0.429},{"voice":3,"pitch":43,"start":124.5,"duration":0.4427,"velocity":53,"measure":63,"beat":2.0,"subject_pos":-1,"motif":"","motif_pos":-1,"best_pos":5,"similarity":0.589},{"voice":2,"pitch":53,"start":124.75,"duration":0.25,"velocity":59,"measure":63,"beat":2.5,"subject_pos":-1,"motif":"","motif_pos":-1,"best_pos":3,"similarity":0.593},{"voice":0,"pitch":73,"start":125.0,"duration":0.5,"velocity":76,"measure":63,"beat":3.0,"subject_pos":-1,"motif":"","motif_pos":-1,"best_pos":4,"similarity":0.336},{"voice":2,"pitch":52,"start":125.0,"duration":0.5,"velocity":59,"measure":63,"beat":3.0,"subject_pos":-1,"motif":"","motif_pos":-1,"best_pos":4,"similarity":0.657},{"voice":3,"pitch":45,"start":125.0,"duration":5.4427,"velocity":53,"measure":63,"beat":3.0,"subject_pos":-1,"motif":"","motif_pos":-1,"best_pos":6,"similarity":0.536},{"voice":1,"pitch":69,"start":125.25,"duration":0.25,"velocity":68,"measure":63,"beat":3.5,"subject_pos":-1,"motif":"","motif_pos":-1,"best_pos":4,"similarity":0.3},{"voice":0,"pitch":81,"start":125.5,"duration":0.9115,"velocity":76,"measure":63,"beat":4.0,"subject_pos":-1,"motif":"","motif_pos":-1,"best_pos":5,"similarity":0.175},{"voice":1,"pitch":77,"start":125.5,"duration":0.25,"velocity":68,"measure":63,"beat":4.0,"subject_pos":-1,"motif":"","motif_pos":-1,"best_pos":1,"similarity":0.429},{"voice":1,"pitch":74,"start":125.75,"duration":0.25,"velocity":68,"measure":63,"beat":4.5,"subject_pos":-1,"motif":"","motif_pos":-1,"best_pos":2,"similarity":0.507},{"voice":1,"pitch":71,"start":126.0,"duration":0.5,"velocity":68,"measure":64,"beat":1.0,"subject_pos":-1,"motif":"","motif_pos":-1,"best_pos":3,"similarity":0.407},{"voice":0,"pitch":74,"start":126.25,"duration":0.4115,"velocity":76,"measure":64,"beat":1.5,"subject_pos":-1,"motif":"","motif_pos":-1,"best_pos":0,"similarity":0.321},{"voice":0,"pitch":79,"start":126.5,"duration":0.9115,"velocity":76,"measure":64,"beat":2.0,"subject_pos":-1,"motif":"","motif_pos":-1,"best_pos":1,"similarity":0.375},{"voice":1,"pitch":76,"start":126.5,"duration":0.25,"velocity":68,"measure":64,"beat":2.0,"subject_pos":-1,"motif":"","motif_pos":-1,"best_pos":1,"similarity":0.5},{"voice":1,"pitch":73,"start":126.75,"duration":0.25,"velocity":68,"measure":64,"beat":2.5,"subject_pos":-1,"motif":"","motif_pos":-1,"best_pos":2,"similarity":0.429},{"voice":1,"pitch":69,"start":127.0,"duration":0.5,"velocity":68,"measure":64,"beat":3.0,"subject_pos":-1,"motif":"","motif_pos":-1,"best_pos":2,"similarity":0.371},{"voice":0,"pitch":73,"start":127.25,"duration":0.4115,"velocity":76,"measure":64,"beat":3.5,"subject_pos":-1,"motif":"","motif_pos":-1,"best_pos":2,"similarity":0.286},{"voice":0,"pitch":77,"start":127.5,"duration":0.9115,"velocity":76,"measure":64,"beat":4.0,"subject_pos":-1,"motif":"","motif_pos":-1,"best_pos":2,"similarity":0.307},{"voice":1,"pitch":74,"start":127.5,"duration":0.25,"velocity":68,"measure":64,"beat":4.0,"subject_pos":-1,"motif":"","motif_pos":-1,"best_pos":1,"similarity":0.461},{"voice":2,"pitch":53,"start":127.5,"duration":0.25,"velocity":59,"measure":64,"beat":4.0,"subject_pos":-1,"motif":"","motif_pos":-1,"best_pos":5,"similarity":0.479},{"voice":1,"pitch":69,"start":127.75,"duration":0.25,"velocity":68,"measure":64,"beat":4.5,"subject_pos":-1,"motif":"","motif_pos":-1,"best_pos":4,"similarity":0.421},{"voice":2,"pitch":50,"start":127.75,"duration":0.25,"velocity":59,"measure":64,"beat":4.5,"subject_pos":-1,"motif":"","motif_pos":-1,"best_pos":0,"similarity":0.321},{"voice":1,"pitch":70,"start":128.0,"duration":0.75,"velocity":68,"measure":65,"beat":1.0,"subject_pos":-1,"motif":"","motif_pos":-1,"best_pos":5,"similarity":0.371},{"voice":2,"pitch":55,"start":128.0,"duration":0.75,"velocity":59,"measure":65,"beat":1.0,"subject_pos":-1,"motif":"","motif_pos":-1,"best_pos":1,"similarity":0.375},{"voice":0,"pitch":74,"start":128.25,"duration":0.4115,"velocity":76,"measure":65,"beat":1.5,"subject_pos":-1,"motif":"","motif_pos":-1,"best_pos":3,"similarity":0.364},{"voice":0,"pitch":76,"start":128.5,"duration":0.9115,"velocity":76,"measure":65,"beat":2.0,"subject_pos":-1,"motif":"","motif_pos":-1,"best_pos":2,"similarity":0.357},{"voice":1,"pitch":67,"start":128.75,"duration":0.25,"velocity":68,"measure":65,"beat":2.5,"subject_pos":-1,"motif":"","motif_pos":-1,"best_pos":5,"similarity":0.368},{"voice":2,"pitch":49,"start":128.75,"duration":0.25,"velocity":59,"measure":65,"beat":2.5,"subject_pos":-1,"motif":"","motif_pos":-1,"best_pos":2,"similarity":0.25},{"voice":1,"pitch":69,"start":129.0,"duration":0.75,"velocity":68,"measure":65,"beat":3.0,"subject_pos":-1,"motif":"","motif_pos":-1,"best_pos":1,"similarity":0.357},{"voice":2,"pitch":53,"start":129.0,"duration":0.75,"velocity":59,"measure":65,"beat":3.0,"subject_pos":-1,"motif":"","motif_pos":-1,"best_pos":1,"similarity":0.286},{"voice":0,"pitch":73,"start":129.25,"duration":0.4115,"velocity":76,"measure":65,"beat":3.5,"subject_pos":-1,"motif":"","motif_pos":-1,"best_pos":4,"similarity":0.464},{"voice":0,"pitch":74,"start":129.5,"duration":0.9115,"velocity":76,"measure":65,"beat":4.0,"subject_pos":-1,"motif":"","motif_pos":-1,"best_pos":5,"similarity":0.464},{"voice":1,"pitch":65,"start":129.75,"duration":0.25,"velocity":68,"measure":65,"beat":4.5,"subject_pos":-1,"motif":"","motif_pos":-1,"best_pos":3,"similarity":0.486},{"voice":2,"pitch":50,"start":129.75,"duration":0.25,"velocity":59,"measure":65,"beat":4.5,"subject_pos":-1,"motif":"","motif_pos":-1,"best_pos":0,"similarity":0.3},{"voice":1,"pitch":64,"start":130.0,"duration":0.75,"velocity":68,"measure":66,"beat":1.0,"subject_pos":-1,"motif":"","motif_pos":-1,"best_pos":4,"similarity":0.45},{"voice":2,"pitch":57,"start":130.0,"duration":1.0,"velocity":59,"measure":66,"beat":1.0,"subject_pos":-1,"motif":"","motif_pos":-1,"best_pos":1,"similarity":0.321},{"voice":0,"pitch":71,"start":130.25,"duration":0.4115,"velocity":76,"measure":66,"beat":1.5,"subject_pos":-1,"motif":"","motif_pos":-1,"best_pos":6,"similarity":0.446},{"voice":0,"pitch":72,"start":130.5,"duration":1.0,"velocity":76,"measure":66,"beat":2.0,"subject_pos":-1,"motif":"","motif_pos":-1,"best_pos":5,"similarity":0.393},{"voice":3,"pitch":45,"start":130.5,"duration":0.4427,"velocity":53,"measure":66,"beat":2.0,"subject_pos":-1,"motif":"","motif_pos":-1,"best_pos":6,"similarity":0.464},{"voice":1,"pitch":67,"start":130.75,"duration":0.25,"velocity":68,"measure":66,"beat":2.5,"subject_pos":-1,"motif":"","motif_pos":-1,"best_pos":3,"similarity":0.364},{"voice":1,"pitch":66,"start":131.0,"duration":0.25,"velocity":68,"measure":66,"beat":3.0,"subject_pos":-1,"motif":"","motif_pos":-1,"best_pos":4,"similarity":0.343},{"voice":2,"pitch":50,"start":131.0,"duration":0.4427,"velocity":59,"measure":66,"beat":3.0,"subject_pos":-1,"motif":"","motif_pos":-1,"best_pos":2,"similarity":0.186},{"voice":3,"pitch":46,"start":131.0,"duration":0.75,"velocity":53,"measure":66,"beat":3.0,"subject_pos":-1,"motif":"","motif_pos":-1,"best_pos":5,"similarity":0.357},{"voice":1,"pitch":62,"start":131.25,"duration":0.25,"velocity":68,"measure":66,"beat":3.5,"subject_pos":-1,"motif":"","motif_pos":-1,"best_pos":2,"similarity":0.393},{"voice":0,"pitch":70,"start":131.5,"duration":0.5,"velocity":76,"measure":66,"beat":4.0,"subject_pos":-1,"motif":"","motif_pos":-1,"best_pos":3,"similarity":0.493},{"voice":1,"pitch":67,"start":131.5,"duration":0.6927,"velocity":68,"measure":66,"beat":4.0,"subject_pos":-1,"motif":"","motif_pos":-1,"best_pos":1,"similarity":0.443},{"voice":2,"pitch":62,"start":131.5,"duration":1.0,"velocity":59,"measure":66,"beat":4.0,"subject_pos":-1,"motif":"","motif_pos":-1,"best_pos":1,"similarity":0.214},{"voice":3,"pitch":43,"start":131.75,"duration":0.25,"velocity":53,"measure":66,"beat":4.5,"subject_pos":-1,"motif":"","motif_pos":-1,"best_pos":0,"similarity":0.429},{"voice":3,"pitch":50,"start":132.0,"duration":1.1927,"velocity":53,"measure":67,"beat":1.0,"subject_pos":-1,"motif":"","motif_pos":-1,"best_pos":1,"similarity":0.571},{"voice":1,"pitch":64,"start":132.25,"duration":0.25,"velocity":68,"measure":67,"beat":1.5,"subject_pos":-1,"motif":"","motif_pos":-1,"best_pos":4,"similarity":0.436},{"voice":1,"pitch":65,"start":132.5,"duration":0.6927,"velocity":68,"measure":67,"beat":2.0,"subject_pos":-1,"motif":"","motif_pos":-1,"best_pos":5,"similarity":0.336},{"voice":2,"pitch":57,"start":132.5,"duration":0.25,"velocity":59,"measure":67,"beat":2.0,"subject_pos":-1,"motif":"","motif_pos":-1,"best_pos":1,"similarity":0.304},{"voice":0,"pitch":69,"start":132.75,"duration":0.1615,"velocity":76,"measure":67,"beat":2.5,"subject_pos":-1,"motif":"","motif_pos":-1,"best_pos":4,"similarity":0.482},{"voice":2,"pitch":53,"start":132.75,"duration":0.25,"velocity":59,"measure":67,"beat":2.5,"subject_pos":-1,"motif":"","motif_pos":-1,"best_pos":0,"similarity":0.357},{"voice":0,"pitch":74,"start":133.0,"duration":0.4115,"velocity":76,"measure":67,"beat":3.0,"subject_pos":-1,"motif":"","motif_pos":-1,"best_pos":5,"similarity":0.386},{"voice":2,"pitch":58,"start":133.0,"duration":1.1927,"velocity":59,"measure":67,"beat":3.0,"subject_pos":-1,"motif":"","motif_pos":-1,"best_pos":1,"similarity":0.429},{"voice":0,"pitch":77,"start":133.25,"duration":0.4115,"velocity":76,"measure":67,"beat":3.5,"subject_pos":-1,"motif":"","motif_pos":-1,"best_pos":3,"similarity":0.329},{"voice":1,"pitch":74,"start":133.25,"duration":0.25,"velocity":68,"measure":67,"beat":3.5,"subject_pos":-1,"motif":"","motif_pos":-1,"best_pos":1,"similarity":0.407},{"voice":3,"pitch":46,"start":133.25,"duration":0.25,"velocity":53,"measure":67,"beat":3.5,"subject_pos":-1,"motif":"","motif_pos":-1,"best_pos":2,"similarity":0.436},{"voice":0,"pitch":76,"start":133.5,"duration":0.4115,"velocity":76,"measure":67,"beat":4.0,"subject_pos":-1,"motif":"","motif_pos":-1,"best_pos":4,"similarity":0.389},{"voice":1,"pitch":72,"start":133.5,"duration":1.1927,"velocity":68,"measure":67,"beat":4.0,"subject_pos":-1,"motif":"","motif_pos":-1,"best_pos":2,"similarity":0.439},{"voice":3,"pitch":48,"start":133.5,"duration":0.5,"velocity":53,"measure":67,"beat":4.0,"subject_pos":-1,"motif":"","motif_pos":-1,"best_pos":0,"similarity":0.357},{"voice":0,"pitch":79,"start":133.75,"duration":0.4115,"velocity":76,"measure":67,"beat":4.5,"subject_pos":-1,"motif":"","motif_pos":-1,"best_pos":1,"similarity":0.429},{"voice":0,"pitch":77,"start":134.0,"duration":0.4115,"velocity":76,"measure":68,"beat":1.0,"subject_pos":-1,"motif":"","motif_pos":-1,"best_pos":2,"similarity":0.482},{"voice":3,"pitch":53,"start":134.0,"duration":1.1927,"velocity":53,"measure":68,"beat":1.0,"subject_pos":-1,"motif":"","motif_pos":-1,"best_pos":1,"similarity":0.429},{"voice":0,"pitch":76,"start":134.25,"duration":0.4115,"velocity":76,"measure":68,"beat":1.5,"subject_pos":-1,"motif":"","motif_pos":-1,"best_pos":4,"similarity":0.475},{"voice":2,"pitch":55,"start":134.25,"duration":0.25,"velocity":59,"measure":68,"beat":1.5,"subject_pos":-1,"motif":"","motif_pos":-1,"best_pos":5,"similarity":0.364},{"voice":0,"pitch":74,"start":134.5,"duration":0.9115,"velocity":76,"measure":68,"beat":2.0,"subject_pos":-1,"motif":"","motif_pos":-1,"best_pos":2,"similarity":0.5},{"voice":2,"pitch":57,"start":134.5,"duration":0.5,"velocity":59,"measure":68,"beat":2.0,"subject_pos":-1,"motif":"","motif_pos":-1,"best_pos":0,"similarity":0.364},{"voice":1,"pitch":72,"start":134.75,"duration":0.25,"velocity":68,"measure":68,"beat":2.5,"subject_pos":-1,"motif":"","motif_pos":-1,"best_pos":1,"similarity":0.393},{"voice":1,"pitch":70,"start":135.0,"duration":0.25,"velocity":68,"measure":68,"beat":3.0,"subject_pos":-1,"motif":"","motif_pos":-1,"best_pos":2,"similarity":0.571},{"voice":2,"pitch":62,"start":135.0,"duration":1.1927,"velocity":59,"measure":68,"beat":3.0,"subject_pos":-1,"motif":"","motif_pos":-1,"best_pos":1,"similarity":0.443},{"voice":0,"pitch":77,"start":135.25,"duration":0.5,"velocity":76,"measure":68,"beat":3.5,"subject_pos":-1,"motif":"","motif_pos":-1,"best_pos":3,"similarity":0.571},{"voice":1,"pitch":69,"start":135.25,"duration":0.25,"velocity":68,"measure":68,"beat":3.5,"subject_pos":-1,"motif":"","motif_pos":-1,"best_pos":3,"similarity":0.643},{"voice":3,"pitch":50,"start":135.25,"duration":0.25,"velocity":53,"measure":68,"beat":3.5,"subject_pos":-1,"motif":"","motif_pos":-1,"best_pos":3,"similarity":0.336},{"voice":1,"pitch":68,"start":135.5,"duration":0.5,"velocity":68,"measure":68,"beat":4.0,"subject_pos":-1,"motif":"","motif_pos":-1,"best_pos":4,"similarity":0.686},{"voice":3,"pitch":52,"start":135.5,"duration":0.5,"velocity":53,"measure":68,"beat":4.0,"subject_pos":-1,"motif":"","motif_pos":-1,"best_pos":0,"similarity":0.429},{"voice":0,"pitch":76,"start":135.75,"duration":0.4115,"velocity":76,"measure":68,"beat":4.5,"subject_pos":-1,"motif":"","motif_pos":-1,"best_pos":4,"similarity":0.679},{"voice":0,"pitch":77,"start":136.0,"duration":0.4115,"velocity":76,"measure":69,"beat":1.0,"subject_pos":-1,"motif":"","motif_pos":-1,"best_pos":5,"similarity":0.5},{"voice":1,"pitch":69,"start":136.0,"duration":0.6927,"velocity":68,"measure":69,"beat":1.0,"subject_pos":-1,"motif":"","motif_pos":-1,"best_pos":5,"similarity":0.461},{"voice":3,"pitch":57,"start":136.0,"duration":1.1927,"velocity":53,"measure":69,"beat":1.0,"subject_pos":-1,"motif":"","motif_pos":-1,"best_pos":1,"similarity":0.571},{"voice":0,"pitch":74,"start":136.25,"duration":0.4115,"velocity":76,"measure":69,"beat":1.5,"subject_pos":-1,"motif":"","motif_pos":-1,"best_pos":5,"similarity":0.382},{"voice":2,"pitch":59,"start":136.25,"duration":0.25,"velocity":59,"measure":69,"beat":1.5,"subject_pos":-1,"motif":"","motif_pos":-1,"best_pos":4,"similarity":0.386},{"voice":0,"pitch":76,"start":136.5,"duration":0.9115,"velocity":76,"measure":69,"beat":2.0,"subject_pos":-1,"motif":"","motif_pos":-1,"best_pos":1,"similarity":0.457},{"voice":2,"pitch":60,"start":136.5,"duration":0.5,"velocity":59,"measure":69,"beat":2.0,"subject_pos":-1,"motif":"","motif_pos":-1,"best_pos":5,"similarity":0.364},{"voice":1,"pitch":64,"start":136.75,"duration":0.25,"velocity":68,"measure":69,"beat":2.5,"subject_pos":-1,"motif":"","motif_pos":-1,"best_pos":0,"similarity":0.429},{"voice":1,"pitch":69,"start":137.0,"duration":0.5,"velocity":68,"measure":69,"beat":3.0,"subject_pos":-1,"motif":"","motif_pos":-1,"best_pos":1,"similarity":0.589},{"voice":2,"pitch":65,"start":137.0,"duration":1.1927,"velocity":59,"measure":69,"beat":3.0,"subject_pos":-1,"motif":"","motif_pos":-1,"best_pos":1,"similarity":0.514},{"voice":0,"pitch":74,"start":137.25,"duration":0.4115,"velocity":76,"measure":69,"beat":3.5,"subject_pos":-1,"motif":"","motif_pos":-1,"best_pos":2,"similarity":0.657},{"voice":3,"pitch":53,"start":137.25,"duration":0.25,"velocity":53,"measure":69,"beat":3.5,"subject_pos":-1,"motif":"","motif_pos":-1,"best_pos":2,"similarity":0.464},{"voice":0,"pitch":72,"start":137.5,"duration":0.4115,"velocity":76,"measure":69,"beat":4.0,"subject_pos":-1,"motif":"","motif_pos":-1,"best_pos":3,"similarity":0.721},{"voice":1,"pitch":65,"start":137.5,"duration":1.1927,"velocity":68,"measure":69,"beat":4.0,"subject_pos":-1,"motif":"","motif_pos":-1,"best_pos":2,"similarity":0.471},{"voice":3,"pitch":55,"start":137.5,"duration":0.5,"velocity":53,"measure":69,"beat":4.0,"subject_pos":-1,"motif":"","motif_pos":-1,"best_pos":0,"similarity":0.393},{"voice":0,"pitch":71,"start":137.75,"duration":0.4115,"velocity":76,"measure":69,"beat":4.5,"subject_pos":-1,"motif":"","motif_pos":-1,"best_pos":4,"similarity":0.721},{"voice":0,"pitch":72,"start":138.0,"duration":0.9115,"velocity":76,"measure":70,"beat":1.0,"subject_pos":-1,"motif":"","motif_pos":-1,"best_pos":5,"similarity":0.479},{"voice":3,"pitch":60,"start":138.0,"duration":1.0,"velocity":53,"measure":70,"beat":1.0,"subject_pos":-1,"motif":"","motif_pos":-1,"best_pos":1,"similarity":0.518},{"voice":2,"pitch":62,"start":138.25,"duration":0.25,"velocity":59,"measure":70,"beat":1.5,"subject_pos":-1,"motif":"","motif_pos":-1,"best_pos":2,"similarity":0.493},{"voice":2,"pitch":63,"start":138.5,"duration":0.5,"velocity":59,"measure":70,"beat":2.0,"subject_pos":-1,"motif":"","motif_pos":-1,"best_pos":3,"similarity":0.564},{"voice":0,"pitch":81,"start":138.75,"duration":0.4115,"velocity":76,"measure":70,"beat":2.5,"subject_pos":-1,"motif":"","motif_pos":-1,"best_pos":1,"similarity":0.411},{"voice":1,"pitch":72,"start":138.75,"duration":0.25,"velocity":68,"measure":70,"beat":2.5,"subject_pos":-1,"motif":"","motif_pos":-1,"best_pos":1,"similarity":0.507},{"voice":0,"pitch":79,"start":139.0,"duration":0.4115,"velocity":76,"measure":70,"beat":3.0,"subject_pos":-1,"motif":"","motif_pos":-1,"best_pos":3,"similarity":0.614},{"voice":1,"pitch":69,"start":139.0,"duration":0.5,"velocity":68,"measure":70,"beat":3.0,"subject_pos":-1,"motif":"","motif_pos":-1,"best_pos":3,"similarity":0.571},{"voice":2,"pitch":62,"start":139.0,"duration":1.0,"velocity":59,"measure":70,"beat":3.0,"subject_pos":-1,"motif":"","motif_pos":-1,"best_pos":5,"similarity":0.607},{"voice":3,"pitch":60,"start":139.0,"duration":0.1927,"velocity":53,"measure":70,"beat":3.0,"subject_pos":-1,"motif":"","motif_pos":-1,"best_pos":2,"similarity":0.554},{"voice":0,"pitch":78,"start":139.25,"duration":0.4115,"velocity":76,"measure":70,"beat":3.5,"subject_pos":-1,"motif":"","motif_pos":-1,"best_pos":4,"similarity":0.714},{"voice":3,"pitch":57,"start":139.25,"duration":0.25,"velocity":53,"measure":70,"beat":3.5,"subject_pos":-1,"motif":"","motif_pos":-1,"best_pos":3,"similarity":0.507},{"voice":0,"pitch":79,"start":139.5,"duration":0.4115,"velocity":76,"measure":70,"beat":4.0,"subject_pos":-1,"motif":"","motif_pos":-1,"best_pos":5,"similarity":0.607},{"voice":1,"pitch":67,"start":139.5,"duration":1.0,"velocity":68,"measure":70,"beat":4.0,"subject_pos":-1,"motif":"","motif_pos":-1,"best_pos":4,"similarity":0.579},{"voice":3,"pitch":58,"start":139.5,"duration":1.0,"velocity":53,"measure":70,"beat":4.0,"subject_pos":-1,"motif":"","motif_pos":-1,"best_pos":3,"similarity":0.457},{"voice":0,"pitch":82,"start":139.75,"duration":0.4115,"velocity":76,"measure":70,"beat":4.5,"subject_pos":-1,"motif":"","motif_pos":-1,"best_pos":6,"similarity":0.357},{"voice":0,"pitch":73,"start":140.0,"duration":0.5,"velocity":76,"measure":71,"beat":1.0,"subject_pos":-1,"motif":"","motif_pos":-1,"best_pos":6,"similarity":0.339},{"voice":2,"pitch":64,"start":140.0,"duration":0.5,"velocity":59,"measure":71,"beat":1.0,"subject_pos":-1,"motif":"","motif_pos":-1,"best_pos":6,"similarity":0.625},{"voice":0,"pitch":74,"start":142.0,"duration":0.5,"velocity":76,"measure":72,"beat":1.0,"subject_pos":-1,"motif":"","motif_pos":-1,"best_pos":5,"similarity":0.371},{"voice":1,"pitch":69,"start":142.0,"duration":0.5,"velocity":68,"measure":72,"beat":1.0,"subject_pos":-1,"motif":"","motif_pos":-1,"best_pos":5,"similarity":0.586},{"voice":2,"pitch":65,"start":142.0,"duration":0.5,"velocity":59,"measure":72,"beat":1.0,"subject_pos":-1,"motif":"","motif_pos":-1,"best_pos":7,"similarity":0.446},{"voice":3,"pitch":57,"start":142.0,"duration":0.5,"velocity":53,"measure":72,"beat":1.0,"subject_pos":-1,"motif":"","motif_pos":-1,"best_pos":3,"similarity":0.514},{"voice":0,"pitch":74,"start":144.0,"duration":2.4115,"velocity":76,"measure":73,"beat":1.0,"subject_pos":-1,"motif":"","motif_pos":-1,"best_pos":2,"similarity":0.457},{"voice":1,"pitch":71,"start":144.0,"duration":1.0,"velocity":68,"measure":73,"beat":1.0,"subject_pos":-1,"motif":"","motif_pos":-1,"best_pos":1,"similarity":0.457},{"voice":2,"pitch":65,"start":144.0,"duration":1.5,"velocity":59,"measure":73,"beat":1.0,"subject_pos":-1,"motif":"","motif_pos":-1,"best_pos":3,"similarity":0.421},{"voice":3,"pitch":56,"start":144.0,"duration":1.0,"velocity":53,"measure":73,"beat":1.0,"subject_pos":-1,"motif":"","motif_pos":-1,"best_pos":4,"similarity":0.621},{"voice":1,"pitch":69,"start":145.0,"duration":1.6927,"velocity":68,"measure":73,"beat":3.0,"subject_pos":-1,"motif":"","motif_pos":-1,"best_pos":2,"similarity":0.657},{"voice":3,"pitch":57,"start":145.0,"duration":1.4427,"velocity":53,"measure":73,"beat":3.0,"subject_pos":-1,"motif":"","motif_pos":-1,"best_pos":5,"similarity":0.461},{"voice":2,"pitch":64,"start":145.5,"duration":0.25,"velocity":59,"measure":73,"beat":4.0,"subject_pos":-1,"motif":"","motif_pos":-1,"best_pos":4,"similarity":0.479},{"voice":2,"pitch":62,"start":145.75,"duration":0.25,"velocity":59,"measure":73,"beat":4.5,"subject_pos":-1,"motif":"","motif_pos":-1,"best_pos":5,"similarity":0.464},{"voice":2,"pitch":64,"start":146.0,"duration":0.5,"velocity":59,"measure":74,"beat":1.0,"subject_pos":-1,"motif":"","motif_pos":-1,"best_pos":6,"similarity":0.371},{"voice":0,"pitch":71,"start":146.25,"duration":0.4115,"velocity":76,"measure":74,"beat":1.5,"subject_pos":-1,"motif":"","motif_pos":-1,"best_pos":5,"similarity":0.536},{"voice":0,"pitch":73,"start":146.5,"duration":0.4115,"velocity":76,"measure":74,"beat":2.0,"subject_pos":-1,"motif":"","motif_pos":-1,"best_pos":6,"similarity":0.621},{"voice":3,"pitch":45,"start":146.5,"duration":0.4427,"velocity":53,"measure":74,"beat":2.0,"subject_pos":-1,"motif":"","motif_pos":-1,"best_pos":0,"similarity":0.286},{"voice":1,"pitch":67,"start":146.75,"duration":0.25,"velocity":68,"measure":74,"beat":2.5,"subject_pos":-1,"motif":"","motif_pos":-1,"best_pos":3,"similarity":0.793},{"voice":0,"pitch":74,"start":147.0,"duration":0.9115,"velocity":76,"measure":74,"beat":3.0,"subject_pos":-1,"motif":"","motif_pos":-1,"best_pos":1,"similarity":0.457},{"voice":1,"pitch":66,"start":147.0,"duration":0.25,"velocity":68,"measure":74,"beat":3.0,"subject_pos":-1,"motif":"","motif_pos":-1,"best_pos":4,"similarity":0.864},{"voice":2,"pitch":57,"start":147.0,"duration":1.0,"velocity":59,"measure":74,"beat":3.0,"subject_pos":-1,"motif":"","motif_pos":-1,"best_pos":0,"similarity":0.5},{"voice":3,"pitch":50,"start":147.0,"duration":11.0,"velocity":53,"measure":74,"beat":3.0,"subject_pos":-1,"motif":"","motif_pos":-1,"best_pos":1,"similarity":0.286},{"voice":1,"pitch":67,"start":147.25,"duration":0.25,"velocity":68,"measure":74,"beat":3.5,"subject_pos":-1,"motif":"","motif_pos":-1,"best_pos":5,"similarity":0.764},{"voice":1,"pitch":69,"start":147.5,"duration":0.6927,"velocity":68,"measure":74,"beat":4.0,"subject_pos":-1,"motif":"","motif_pos":-1,"best_pos":6,"similarity":0.529},{"voice":0,"pitch":72,"start":147.75,"duration":0.4115,"velocity":76,"measure":74,"beat":4.5,"subject_pos":-1,"motif":"","motif_pos":-1,"best_pos":2,"similarity":0.586},{"voice":0,"pitch":70,"start":148.0,"duration":0.9115,"velocity":76,"measure":75,"beat":1.0,"subject_pos":-1,"motif":"","motif_pos":-1,"best_pos":3,"similarity":0.586},{"voice":2,"pitch":62,"start":148.0,"duration":1.0,"velocity":59,"measure":75,"beat":1.0,"subject_pos":-1,"motif":"","motif_pos":-1,"best_pos":1,"similarity":0.786},{"voice":1,"pitch":67,"start":148.25,"duration":0.25,"velocity":68,"measure":75,"beat":1.5,"subject_pos":-1,"motif":"","motif_pos":-1,"best_pos":2,"similarity":0.371},{"voice":1,"pitch":72,"start":148.5,"duration":0.6927,"velocity":68,"measure":75,"beat":2.0,"subject_pos":-1,"motif":"","motif_pos":-1,"best_pos":1,"similarity":0.379},{"voice":0,"pitch":69,"start":148.75,"duration":0.4115,"velocity":76,"measure":75,"beat":2.5,"subject_pos":-1,"motif":"","motif_pos":-1,"best_pos":4,"similarity":0.479},{"voice":0,"pitch":62,"start":149.0,"duration":1.0,"velocity":76,"measure":75,"beat":3.0,"subject_pos":-1,"motif":"","motif_pos":-1,"best_pos":0,"similarity":0.3},{"voice":2,"pitch":58,"start":149.0,"duration":1.0,"velocity":59,"measure":75,"beat":3.0,"subject_pos":-1,"motif":"","motif_pos":-1,"best_pos":2,"similarity":0.929},{"voice":1,"pitch":66,"start":149.25,"duration":0.25,"velocity":68,"measure":75,"beat":3.5,"subject_pos":-1,"motif":"","motif_pos":-1,"best_pos":4,"similarity":0.429},{"voice":1,"pitch":67,"start":149.5,"duration":0.25,"velocity":68,"measure":75,"beat":4.0,"subject_pos":-1,"motif":"","motif_pos":-1,"best_pos":5,"similarity":0.429},{"voice":1,"pitch":70,"start":149.75,"duration":0.25,"velocity":68,"measure":75,"beat":4.5,"subject_pos":-1,"motif":"","motif_pos":-1,"best_pos":6,"similarity":0.286},{"voice":1,"pitch":63,"start":150.0,"duration":1.0,"velocity":68,"measure":76,"beat":1.0,"subject_pos":-1,"motif":"","motif_pos":-1,"best_pos":3,"similarity":0.357},{"voice":2,"pitch":55,"start":150.0,"duration":1.0,"velocity":59,"measure":76,"beat":1.0,"subject_pos":-1,"motif":"tail","motif_pos":3,"best_pos":3,"similarity":1.0},{"voice":0,"pitch":67,"start":150.25,"duration":0.4115,"velocity":76,"measure":76,"beat":1.5,"subject_pos":-1,"motif":"","motif_pos":-1,"best_pos":5,"similarity":0.368},{"voice":0,"pitch":69,"start":150.5,"duration":0.4115,"velocity":76,"measure":76,"beat":2.0,"subject_pos":-1,"motif":"","motif_pos":-1,"best_pos":6,"similarity":0.371},{"voice":0,"pitch":72,"start":150.75,"duration":0.5,"velocity":76,"measure":76,"beat":2.5,"subject_pos":-1,"motif":"","motif_pos":-1,"best_pos":1,"similarity":0.364},{"voice":1,"pitch":62,"start":151.0,"duration":0.4427,"velocity":68,"measure":76,"beat":3.0,"subject_pos":-1,"motif":"","motif_pos":-1,"best_pos":4,"similarity":0.407},{"voice":2,"pitch":54,"start":151.0,"duration":1.0,"velocity":59,"measure":76,"beat":3.0,"subject_pos":-1,"motif":"tail","motif_pos":4,"best_pos":4,"similarity":1.0},{"voice":0,"pitch":70,"start":151.25,"duration":0.4115,"velocity":76,"measure":76,"beat":3.5,"subject_pos":-1,"motif":"","motif_pos":-1,"best_pos":4,"similarity":0.382},{"voice":0,"pitch":72,"start":151.5,"duration":0.4115,"velocity":76,"measure":76,"beat":4.0,"subject_pos":-1,"motif":"","motif_pos":-1,"best_pos":5,"similarity":0.393},{"voice":1,"pitch":57,"start":151.5,"duration":0.5,"velocity":68,"measure":76,"beat":4.0,"subject_pos":-1,"motif":"","motif_pos":-1,"best_pos":4,"similarity":0.536},{"voice":0,"pitch":75,"start":151.75,"duration":0.5,"velocity":76,"measure":76,"beat":4.5,"subject_pos":-1,"motif":"","motif_pos":-1,"best_pos":3,"similarity":0.35},{"voice":1,"pitch":58,"start":152.0,"duration":0.5,"velocity":68,"measure":77,"beat":1.0,"subject_pos":-1,"motif":"","motif_pos":-1,"best_pos":5,"similarity":0.675},{"voice":2,"pitch":55,"start":152.0,"duration":0.5,"velocity":59,"measure":77,"beat":1.0,"subject_pos":-1,"motif":"tail","motif_pos":5,"best_pos":5,"similarity":1.0},{"voice":0,"pitch":74,"start":152.25,"duration":0.4115,"velocity":76,"measure":77,"beat":1.5,"subject_pos":-1,"motif":"","motif_pos":-1,"best_pos":4,"similarity":0.4},{"voice":0,"pitch":78,"start":152.5,"duration":0.4115,"velocity":76,"measure":77,"beat":2.0,"subject_pos":-1,"motif":"","motif_pos":-1,"best_pos":5,"similarity":0.329},{"voice":1,"pitch":60,"start":152.5,"duration":0.5,"velocity":68,"measure":77,"beat":2.0,"subject_pos":-1,"motif":"","motif_pos":-1,"best_pos":6,"similarity":0.579},{"voice":2,"pitch":57,"start":152.5,"duration":0.5,"velocity":59,"measure":77,"beat":2.0,"subject_pos":-1,"motif":"tail","motif_pos":6,"best_pos":6,"similarity":1.0},{"voice":0,"pitch":81,"start":152.75,"duration":0.5,"velocity":76,"measure":77,"beat":2.5,"subject_pos":-1,"motif":"","motif_pos":-1,"best_pos":1,"similarity":0.375},{"voice":1,"pitch":62,"start":153.0,"duration":0.5,"velocity":68,"measure":77,"beat":3.0,"subject_pos":-1,"motif":"","motif_pos":-1,"best_pos":6,"similarity":0.375},{"voice":2,"pitch":58,"start":153.0,"duration":1.25,"velocity":59,"measure":77,"beat":3.0,"subject_pos":-1,"motif":"tail","motif_pos":7,"best_pos":7,"similarity":1.0},{"voice":0,"pitch":79,"start":153.25,"duration":0.4115,"velocity":76,"measure":77,"beat":3.5,"subject_pos":-1,"motif":"","motif_pos":-1,"best_pos":5,"similarity":0.471},{"voice":0,"pitch":81,"start":153.375,"duration":0.4115,"velocity":76,"measure":77,"beat":3.75,"subject_pos":-1,"motif":"","motif_pos":-1,"best_pos":6,"similarity":0.593},{"voice":0,"pitch":82,"start":153.5,"duration":0.4115,"velocity":76,"measure":77,"beat":4.0,"subject_pos":-1,"motif":"","motif_pos":-1,"best_pos":5,"similarity":0.479},{"voice":1,"pitch":55,"start":153.5,"duration":0.6927,"velocity":68,"measure":77,"beat":4.0,"subject_pos":-1,"motif":"","motif_pos":-1,"best_pos":2,"similarity":0.193},{"voice":0,"pitch":73,"start":153.75,"duration":0.4115,"velocity":76,"measure":77,"beat":4.5,"subject_pos":-1,"motif":"","motif_pos":-1,"best_pos":6,"similarity":0.436},{"voice":0,"pitch":74,"start":154.0,"duration":3.0,"velocity":76,"measure":78,"beat":1.0,"subject_pos":-1,"motif":"","motif_pos":-1,"best_pos":7,"similarity":0.357},{"voice":1,"pitch":70,"start":154.25,"duration":0.25,"velocity":68,"measure":78,"beat":1.5,"subject_pos":-1,"motif":"","motif_pos":-1,"best_pos":3,"similarity":0.329},{"voice":2,"pitch":62,"start":154.25,"duration":0.25,"velocity":59,"measure":78,"beat":1.5,"subject_pos":-1,"motif":"","motif_pos":-1,"best_pos":1,"similarity":0.571},{"voice":1,"pitch":69,"start":154.5,"duration":0.25,"velocity":68,"measure":78,"beat":2.0,"subject_pos":-1,"motif":"","motif_pos":-1,"best_pos":2,"similarity":0.436},{"voice":2,"pitch":60,"start":154.5,"duration":0.25,"velocity":59,"measure":78,"beat":2.0,"subject_pos":-1,"motif":"","motif_pos":-1,"best_pos":2,"similarity":0.643},{"voice":1,"pitch":67,"start":154.75,"duration":0.5,"velocity":68,"measure":78,"beat":2.5,"subject_pos":-1,"motif":"","motif_pos":-1,"best_pos":3,"similarity":0.55},{"voice":2,"pitch":58,"start":154.75,"duration":0.25,"velocity":59,"measure":78,"beat":2.5,"subject_pos":-1,"motif":"","motif_pos":-1,"best_pos":3,"similarity":0.607},{"voice":2,"pitch":57,"start":155.0,"duration":3.0,"velocity":59,"measure":78,"beat":3.0,"subject_pos":-1,"motif":"","motif_pos":-1,"best_pos":4,"similarity":0.429},{"voice":1,"pitch":66,"start":155.276,"duration":0.25,"velocity":68,"measure":78,"beat":3.5521,"subject_pos":-1,"motif":"","motif_pos":-1,"best_pos":4,"similarity":0.511},{"voice":1,"pitch":64,"start":155.5365,"duration":0.25,"velocity":68,"measure":78,"beat":4.0729,"subject_pos":-1,"motif":"","motif_pos":-1,"best_pos":2,"similarity":0.429},{"voice":1,"pitch":67,"start":155.8281,"duration":0.25,"velocity":68,"measure":78,"beat":4.6562,"subject_pos":-1,"motif":"","motif_pos":-1,"best_pos":3,"similarity":0.429},{"voice":1,"pitch":66,"start":156.1406,"duration":1.0,"velocity":68,"measure":79,"beat":1.2812,"subject_pos":-1,"motif":"","motif_pos":-1,"best_pos":4,"similarity":0.357}]}