{"metadata":{"title":"The Art of the Fugue, Contrapunctus VII","number":"VII","composer":"J.S. Bach","source_midi":"kunst_der_fuge_vii_mutopia.mid","tempo_bpm":120.0,"tempo_us_per_beat":500000,"ticks_per_beat":384,"time_signature":"4/4","key_signature":"D minor","total_duration_seconds":225.2306,"total_measures":61,"beats_per_measure":4},"voices":[{"id":0,"name":"Soprano","midi_channel":0,"midi_track":1,"color":"#E85D4A","pitch_min":61,"pitch_max":82,"note_count":422},{"id":1,"name":"Alto","midi_channel":1,"midi_track":2,"color":"#4A90D9","pitch_min":52,"pitch_max":77,"note_count":346},{"id":2,"name":"Tenor","midi_channel":2,"midi_track":3,"color":"#27AE60","pitch_min":47,"pitch_max":69,"note_count":368},{"id":3,"name":"Bass","midi_channel":3,"midi_track":4,"color":"#8E44AD","pitch_min":36,"pitch_max":62,"note_count":389}],"notes":[{"voice":2,"pitch":62,"start":0.0,"duration":0.9231,"velocity":127,"measure":1,"beat":1.0,"subject_pos":0,"motif":"subject","motif_pos":0,"best_pos":0,"similarity":1.0,"stretto":false,"stretto_voices":0,"combination":[],"aug_dim":"diminution","rhythm_ratio":0.5,"mirror":false,"chromatic_density":0.2,"complexity":0.489,"dissonance":0},{"voice":2,"pitch":69,"start":0.9231,"duration":0.6923,"velocity":127,"measure":1,"beat":2.0,"subject_pos":1,"motif":"subject","motif_pos":1,"best_pos":1,"similarity":1.0,"stretto":false,"stretto_voices":0,"combination":[],"aug_dim":"diminution","rhythm_ratio":0.5,"mirror":false,"chromatic_density":0.2,"complexity":0.489,"dissonance":0},{"voice":2,"pitch":67,"start":1.6154,"duration":0.2308,"velocity":127,"measure":1,"beat":2.75,"subject_pos":2,"motif":"subject","motif_pos":2,"best_pos":2,"similarity":1.0,"stretto":false,"stretto_voices":0,"combination":[],"aug_dim":"diminution","rhythm_ratio":0.5,"mirror":false,"chromatic_density":0.2,"complexity":0.489,"dissonance":0},{"voice":2,"pitch":65,"start":1.8462,"duration":0.6923,"velocity":127,"measure":1,"beat":3.0,"subject_pos":3,"motif":"subject","motif_pos":3,"best_pos":3,"similarity":1.0,"stretto":false,"stretto_voices":0,"combination":[],"aug_dim":"diminution","rhythm_ratio":0.5,"mirror":false,"chromatic_density":0.2,"complexity":0.489,"dissonance":0},{"voice":2,"pitch":64,"start":2.5385,"duration":0.2308,"velocity":127,"measure":1,"beat":3.75,"subject_pos":4,"motif":"subject","motif_pos":4,"best_pos":4,"similarity":1.0,"stretto":false,"stretto_voices":0,"combination":[],"aug_dim":"diminution","rhythm_ratio":0.5,"mirror":false,"chromatic_density":0.2,"complexity":0.489,"dissonance":0},{"voice":2,"pitch":62,"start":2.7692,"duration":0.9231,"velocity":127,"measure":1,"beat":4.0,"subject_pos":5,"motif":"subject","motif_pos":5,"best_pos":5,"similarity":1.0,"stretto":false,"stretto_voices":0,"combination":[],"aug_dim":"diminution","rhythm_ratio":0.5,"mirror":false,"chromatic_density":0.2,"complexity":0.489,"dissonance":0},{"voice":0,"pitch":81,"start":3.6923,"duration":1.8462,"velocity":127,"measure":2,"beat":1.0,"subject_pos":0,"motif":"subject_inv","motif_pos":0,"best_pos":0,"similarity":1.0,"stretto":true,"stretto_voices":2,"combination":[],"aug_dim":"","rhythm_ratio":1.0,"mirror":false,"chromatic_density":0.375,"complexity":0.552,"dissonance":0.143},{"voice":2,"pitch":61,"start":3.6923,"duration":0.9231,"velocity":127,"measure":2,"beat":1.0,"subject_pos":6,"motif":"subject","motif_pos":6,"best_pos":6,"similarity":1.0,"stretto":true,"stretto_voices":2,"combination":[],"aug_dim":"diminution","rhythm_ratio":0.5,"mirror":false,"chromatic_density":0.375,"complexity":0.552,"dissonance":0.143},{"voice":2,"pitch":62,"start":4.6154,"duration":0.6923,"velocity":127,"measure":2,"beat":2.0,"subject_pos":7,"motif":"subject","motif_pos":7,"best_pos":7,"similarity":1.0,"stretto":true,"stretto_voices":2,"combination":[],"aug_dim":"diminution","rhythm_ratio":0.5,"mirror":false,"chromatic_density":0.375,"complexity":0.552,"dissonance":0.143},{"voice":2,"pitch":64,"start":5.3077,"duration":0.2308,"velocity":127,"measure":2,"beat":2.75,"subject_pos":8,"motif":"subject","motif_pos":8,"best_pos":0,"similarity":1.0,"stretto":true,"stretto_voices":2,"combination":[],"aug_dim":"diminution","rhythm_ratio":0.5,"mirror":false,"chromatic_density":0.375,"complexity":0.552,"dissonance":0.143},{"voice":0,"pitch":74,"start":5.5385,"duration":1.3846,"velocity":127,"measure":2,"beat":3.0,"subject_pos":1,"motif":"subject_inv","motif_pos":1,"best_pos":1,"similarity":1.0,"stretto":false,"stretto_voices":0,"combination":[],"aug_dim":"","rhythm_ratio":1.0,"mirror":false,"chromatic_density":0.375,"complexity":0.552,"dissonance":0.143},{"voice":2,"pitch":65,"start":5.5385,"duration":1.1538,"velocity":127,"measure":2,"beat":3.0,"subject_pos":-1,"motif":"","motif_pos":-1,"best_pos":5,"similarity":0.607,"stretto":false,"stretto_voices":0,"combination":[],"aug_dim":"","rhythm_ratio":1.0,"mirror":false,"chromatic_density":0.375,"complexity":0.552,"dissonance":0.143},{"voice":2,"pitch":67,"start":6.6923,"duration":0.2308,"velocity":127,"measure":2,"beat":4.25,"subject_pos":-1,"motif":"","motif_pos":-1,"best_pos":6,"similarity":0.464,"stretto":false,"stretto_voices":0,"combination":[],"aug_dim":"","rhythm_ratio":1.0,"mirror":false,"chromatic_density":0.375,"complexity":0.552,"dissonance":0.143},{"voice":0,"pitch":76,"start":6.9231,"duration":0.4615,"velocity":127,"measure":2,"beat":4.5,"subject_pos":2,"motif":"subject_inv","motif_pos":2,"best_pos":2,"similarity":1.0,"stretto":false,"stretto_voices":0,"combination":[],"aug_dim":"","rhythm_ratio":1.0,"mirror":false,"chromatic_density":0.375,"complexity":0.552,"dissonance":0.143},{"voice":2,"pitch":65,"start":6.9231,"duration":0.2308,"velocity":127,"measure":2,"beat":4.5,"subject_pos":-1,"motif":"","motif_pos":-1,"best_pos":3,"similarity":0.471,"stretto":false,"stretto_voices":0,"combination":[],"aug_dim":"","rhythm_ratio":1.0,"mirror":false,"chromatic_density":0.375,"complexity":0.552,"dissonance":0.143},{"voice":2,"pitch":64,"start":7.1538,"duration":0.2308,"velocity":127,"measure":2,"beat":4.75,"subject_pos":-1,"motif":"","motif_pos":-1,"best_pos":2,"similarity":0.5,"stretto":false,"stretto_voices":0,"combination":[],"aug_dim":"","rhythm_ratio":1.0,"mirror":false,"chromatic_density":0.375,"complexity":0.552,"dissonance":0.143},{"voice":0,"pitch":77,"start":7.3846,"duration":1.3846,"velocity":127,"measure":3,"beat":1.0,"subject_pos":3,"motif":"subject_inv","motif_pos":3,"best_pos":3,"similarity":1.0,"stretto":true,"stretto_voices":2,"combination":[],"aug_dim":"","rhythm_ratio":1.0,"mirror":false,"chromatic_density":0.375,"complexity":0.662,"dissonance":0.067},{"voice":1,"pitch":74,"start":7.3846,"duration":0.9231,"velocity":127,"measure":3,"beat":1.0,"subject_pos":0,"motif":"subject_inv","motif_pos":0,"best_pos":0,"similarity":1.0,"stretto":true,"stretto_voices":2,"combination":[],"aug_dim":"diminution","rhythm_ratio":0.5,"mirror":false,"chromatic_density":0.375,"complexity":0.662,"dissonance":0.067},{"voice":2,"pitch":62,"start":7.3846,"duration":0.2308,"velocity":127,"measure":3,"beat":1.0,"subject_pos":-1,"motif":"","motif_pos":-1,"best_pos":3,"similarity":0.661,"stretto":false,"stretto_voices":0,"combination":[],"aug_dim":"","rhythm_ratio":1.0,"mirror":false,"chromatic_density":0.375,"complexity":0.662,"dissonance":0.067},{"voice":2,"pitch":61,"start":7.6154,"duration":0.2308,"velocity":127,"measure":3,"beat":1.25,"subject_pos":-1,"motif":"","motif_pos":-1,"best_pos":4,"similarity":0.721,"stretto":false,"stretto_voices":0,"combination":[],"aug_dim":"","rhythm_ratio":1.0,"mirror":false,"chromatic_density":0.375,"complexity":0.662,"dissonance":0.067},{"voice":2,"pitch":62,"start":7.8461,"duration":0.6923,"velocity":127,"measure":3,"beat":1.5,"subject_pos":-1,"motif":"","motif_pos":-1,"best_pos":5,"similarity":0.55,"stretto":false,"stretto_voices":0,"combination":[],"aug_dim":"","rhythm_ratio":1.0,"mirror":false,"chromatic_density":0.375,"complexity":0.662,"dissonance":0.067},{"voice":1,"pitch":69,"start":8.3077,"duration":0.6923,"velocity":127,"measure":3,"beat":2.0,"subject_pos":1,"motif":"subject_inv","motif_pos":1,"best_pos":1,"similarity":1.0,"stretto":true,"stretto_voices":2,"combination":[],"aug_dim":"diminution","rhythm_ratio":0.5,"mirror":false,"chromatic_density":0.375,"complexity":0.662,"dissonance":0.067},{"voice":2,"pitch":62,"start":8.5385,"duration":0.2308,"velocity":127,"measure":3,"beat":2.25,"subject_pos":-1,"motif":"","motif_pos":-1,"best_pos":2,"similarity":0.379,"stretto":false,"stretto_voices":0,"combination":[],"aug_dim":"","rhythm_ratio":1.0,"mirror":false,"chromatic_density":0.375,"complexity":0.662,"dissonance":0.067},{"voice":0,"pitch":79,"start":8.7692,"duration":0.4615,"velocity":127,"measure":3,"beat":2.5,"subject_pos":4,"motif":"subject_inv","motif_pos":4,"best_pos":4,"similarity":1.0,"stretto":true,"stretto_voices":2,"combination":[],"aug_dim":"","rhythm_ratio":1.0,"mirror":false,"chromatic_density":0.375,"complexity":0.662,"dissonance":0.067},{"voice":2,"pitch":60,"start":8.7692,"duration":0.2308,"velocity":127,"measure":3,"beat":2.5,"subject_pos":-1,"motif":"","motif_pos":-1,"best_pos":3,"similarity":0.493,"stretto":false,"stretto_voices":0,"combination":[],"aug_dim":"","rhythm_ratio":1.0,"mirror":false,"chromatic_density":0.375,"complexity":0.662,"dissonance":0.067},{"voice":1,"pitch":71,"start":9.0,"duration":0.2308,"velocity":127,"measure":3,"beat":2.75,"subject_pos":2,"motif":"subject_inv","motif_pos":2,"best_pos":2,"similarity":1.0,"stretto":true,"stretto_voices":2,"combination":[],"aug_dim":"diminution","rhythm_ratio":0.5,"mirror":false,"chromatic_density":0.375,"complexity":0.662,"dissonance":0.067},{"voice":2,"pitch":59,"start":9.0,"duration":0.2308,"velocity":127,"measure":3,"beat":2.75,"subject_pos":-1,"motif":"","motif_pos":-1,"best_pos":2,"similarity":0.5,"stretto":false,"stretto_voices":0,"combination":[],"aug_dim":"","rhythm_ratio":1.0,"mirror":false,"chromatic_density":0.375,"complexity":0.662,"dissonance":0.067},{"voice":0,"pitch":81,"start":9.2308,"duration":1.8462,"velocity":127,"measure":3,"beat":3.0,"subject_pos":5,"motif":"subject_inv","motif_pos":5,"best_pos":5,"similarity":1.0,"stretto":true,"stretto_voices":2,"combination":[],"aug_dim":"","rhythm_ratio":1.0,"mirror":false,"chromatic_density":0.375,"complexity":0.662,"dissonance":0.067},{"voice":1,"pitch":72,"start":9.2308,"duration":0.6923,"velocity":127,"measure":3,"beat":3.0,"subject_pos":3,"motif":"subject_inv","motif_pos":3,"best_pos":3,"similarity":1.0,"stretto":true,"stretto_voices":2,"combination":[],"aug_dim":"diminution","rhythm_ratio":0.5,"mirror":false,"chromatic_density":0.375,"complexity":0.662,"dissonance":0.067},{"voice":2,"pitch":57,"start":9.2308,"duration":0.2308,"velocity":127,"measure":3,"beat":3.0,"subject_pos":-1,"motif":"","motif_pos":-1,"best_pos":3,"similarity":0.661,"stretto":false,"stretto_voices":0,"combination":[],"aug_dim":"","rhythm_ratio":1.0,"mirror":false,"chromatic_density":0.375,"complexity":0.662,"dissonance":0.067},{"voice":2,"pitch":56,"start":9.4615,"duration":0.2308,"velocity":127,"measure":3,"beat":3.25,"subject_pos":-1,"motif":"","motif_pos":-1,"best_pos":4,"similarity":0.75,"stretto":false,"stretto_voices":0,"combination":[],"aug_dim":"","rhythm_ratio":1.0,"mirror":false,"chromatic_density":0.375,"complexity":0.662,"dissonance":0.067},{"voice":2,"pitch":57,"start":9.6923,"duration":0.6923,"velocity":127,"measure":3,"beat":3.5,"subject_pos":-1,"motif":"","motif_pos":-1,"best_pos":5,"similarity":0.607,"stretto":false,"stretto_voices":0,"combination":[],"aug_dim":"","rhythm_ratio":1.0,"mirror":false,"chromatic_density":0.375,"complexity":0.662,"dissonance":0.067},{"voice":1,"pitch":74,"start":9.9231,"duration":0.2308,"velocity":127,"measure":3,"beat":3.75,"subject_pos":4,"motif":"subject_inv","motif_pos":4,"best_pos":4,"similarity":1.0,"stretto":true,"stretto_voices":2,"combination":[],"aug_dim":"diminution","rhythm_ratio":0.5,"mirror":false,"chromatic_density":0.375,"complexity":0.662,"dissonance":0.067},{"voice":1,"pitch":76,"start":10.1538,"duration":0.9231,"velocity":127,"measure":3,"beat":4.0,"subject_pos":5,"motif":"subject_inv","motif_pos":5,"best_pos":5,"similarity":1.0,"stretto":true,"stretto_voices":2,"combination":[],"aug_dim":"diminution","rhythm_ratio":0.5,"mirror":false,"chromatic_density":0.375,"complexity":0.662,"dissonance":0.067},{"voice":2,"pitch":57,"start":10.3846,"duration":0.2308,"velocity":127,"measure":3,"beat":4.25,"subject_pos":-1,"motif":"","motif_pos":-1,"best_pos":5,"similarity":0.554,"stretto":false,"stretto_voices":0,"combination":[],"aug_dim":"","rhythm_ratio":1.0,"mirror":false,"chromatic_density":0.375,"complexity":0.662,"dissonance":0.067},{"voice":2,"pitch":59,"start":10.6154,"duration":0.2308,"velocity":127,"measure":3,"beat":4.5,"subject_pos":-1,"motif":"","motif_pos":-1,"best_pos":5,"similarity":0.65,"stretto":false,"stretto_voices":0,"combination":[],"aug_dim":"","rhythm_ratio":1.0,"mirror":false,"chromatic_density":0.375,"complexity":0.662,"dissonance":0.067},{"voice":2,"pitch":61,"start":10.8461,"duration":0.2308,"velocity":127,"measure":3,"beat":4.75,"subject_pos":-1,"motif":"","motif_pos":-1,"best_pos":6,"similarity":0.679,"stretto":false,"stretto_voices":0,"combination":[],"aug_dim":"","rhythm_ratio":1.0,"mirror":false,"chromatic_density":0.375,"complexity":0.662,"dissonance":0.067},{"voice":0,"pitch":82,"start":11.0769,"duration":1.8462,"velocity":127,"measure":4,"beat":1.0,"subject_pos":6,"motif":"subject_inv","motif_pos":6,"best_pos":6,"similarity":1.0,"stretto":true,"stretto_voices":2,"combination":[],"aug_dim":"","rhythm_ratio":1.0,"mirror":false,"chromatic_density":0.421,"complexity":0.629,"dissonance":0.215},{"voice":1,"pitch":77,"start":11.0769,"duration":0.9231,"velocity":127,"measure":4,"beat":1.0,"subject_pos":6,"motif":"subject_inv","motif_pos":6,"best_pos":6,"similarity":1.0,"stretto":true,"stretto_voices":2,"combination":[],"aug_dim":"diminution","rhythm_ratio":0.5,"mirror":false,"chromatic_density":0.421,"complexity":0.629,"dissonance":0.215},{"voice":2,"pitch":62,"start":11.0769,"duration":0.2308,"velocity":127,"measure":4,"beat":1.0,"subject_pos":-1,"motif":"","motif_pos":-1,"best_pos":7,"similarity":0.464,"stretto":false,"stretto_voices":0,"combination":[],"aug_dim":"","rhythm_ratio":1.0,"mirror":false,"chromatic_density":0.421,"complexity":0.629,"dissonance":0.215},{"voice":2,"pitch":60,"start":11.3077,"duration":0.2308,"velocity":127,"measure":4,"beat":1.25,"subject_pos":-1,"motif":"","motif_pos":-1,"best_pos":2,"similarity":0.593,"stretto":false,"stretto_voices":0,"combination":[],"aug_dim":"","rhythm_ratio":1.0,"mirror":false,"chromatic_density":0.421,"complexity":0.629,"dissonance":0.215},{"voice":2,"pitch":58,"start":11.5384,"duration":0.2308,"velocity":127,"measure":4,"beat":1.5,"subject_pos":-1,"motif":"","motif_pos":-1,"best_pos":3,"similarity":0.6,"stretto":false,"stretto_voices":0,"combination":[],"aug_dim":"","rhythm_ratio":1.0,"mirror":false,"chromatic_density":0.421,"complexity":0.629,"dissonance":0.215},{"voice":2,"pitch":57,"start":11.7692,"duration":0.2308,"velocity":127,"measure":4,"beat":1.75,"subject_pos":-1,"motif":"","motif_pos":-1,"best_pos":4,"similarity":0.543,"stretto":false,"stretto_voices":0,"combination":[],"aug_dim":"","rhythm_ratio":1.0,"mirror":false,"chromatic_density":0.421,"complexity":0.629,"dissonance":0.215},{"voice":1,"pitch":76,"start":12.0,"duration":0.6923,"velocity":127,"measure":4,"beat":2.0,"subject_pos":7,"motif":"subject_inv","motif_pos":7,"best_pos":7,"similarity":1.0,"stretto":true,"stretto_voices":2,"combination":[],"aug_dim":"diminution","rhythm_ratio":0.5,"mirror":false,"chromatic_density":0.421,"complexity":0.629,"dissonance":0.215},{"voice":2,"pitch":55,"start":12.0,"duration":0.2308,"velocity":127,"measure":4,"beat":2.0,"subject_pos":-1,"motif":"","motif_pos":-1,"best_pos":3,"similarity":0.679,"stretto":false,"stretto_voices":0,"combination":[],"aug_dim":"","rhythm_ratio":1.0,"mirror":false,"chromatic_density":0.421,"complexity":0.629,"dissonance":0.215},{"voice":2,"pitch":54,"start":12.2308,"duration":0.2308,"velocity":127,"measure":4,"beat":2.25,"subject_pos":-1,"motif":"","motif_pos":-1,"best_pos":4,"similarity":0.768,"stretto":false,"stretto_voices":0,"combination":[],"aug_dim":"","rhythm_ratio":1.0,"mirror":false,"chromatic_density":0.421,"complexity":0.629,"dissonance":0.215},{"voice":2,"pitch":55,"start":12.4615,"duration":0.6923,"velocity":127,"measure":4,"beat":2.5,"subject_pos":-1,"motif":"","motif_pos":-1,"best_pos":5,"similarity":0.643,"stretto":false,"stretto_voices":0,"combination":[],"aug_dim":"","rhythm_ratio":1.0,"mirror":false,"chromatic_density":0.421,"complexity":0.629,"dissonance":0.215},{"voice":1,"pitch":74,"start":12.6923,"duration":0.2308,"velocity":127,"measure":4,"beat":2.75,"subject_pos":8,"motif":"subject_inv","motif_pos":8,"best_pos":0,"similarity":1.0,"stretto":true,"stretto_voices":2,"combination":[],"aug_dim":"diminution","rhythm_ratio":0.5,"mirror":false,"chromatic_density":0.421,"complexity":0.629,"dissonance":0.215},{"voice":0,"pitch":81,"start":12.9231,"duration":1.3846,"velocity":127,"measure":4,"beat":3.0,"subject_pos":7,"motif":"subject_inv","motif_pos":7,"best_pos":7,"similarity":1.0,"stretto":false,"stretto_voices":0,"combination":[],"aug_dim":"","rhythm_ratio":1.0,"mirror":false,"chromatic_density":0.421,"complexity":0.629,"dissonance":0.215},{"voice":1,"pitch":73,"start":12.9231,"duration":1.1538,"velocity":127,"measure":4,"beat":3.0,"subject_pos":-1,"motif":"","motif_pos":-1,"best_pos":4,"similarity":0.571,"stretto":false,"stretto_voices":0,"combination":[],"aug_dim":"","rhythm_ratio":1.0,"mirror":false,"chromatic_density":0.421,"complexity":0.629,"dissonance":0.215},{"voice":2,"pitch":58,"start":13.1538,"duration":0.2308,"velocity":127,"measure":4,"beat":3.25,"subject_pos":-1,"motif":"","motif_pos":-1,"best_pos":6,"similarity":0.429,"stretto":false,"stretto_voices":0,"combination":[],"aug_dim":"","rhythm_ratio":1.0,"mirror":false,"chromatic_density":0.421,"complexity":0.629,"dissonance":0.215},{"voice":2,"pitch":57,"start":13.3846,"duration":0.2308,"velocity":127,"measure":4,"beat":3.5,"subject_pos":-1,"motif":"","motif_pos":-1,"best_pos":1,"similarity":0.429,"stretto":false,"stretto_voices":0,"combination":[],"aug_dim":"","rhythm_ratio":1.0,"mirror":false,"chromatic_density":0.421,"complexity":0.629,"dissonance":0.215},{"voice":2,"pitch":55,"start":13.6154,"duration":0.2308,"velocity":127,"measure":4,"beat":3.75,"subject_pos":-1,"motif":"","motif_pos":-1,"best_pos":2,"similarity":0.579,"stretto":false,"stretto_voices":0,"combination":[],"aug_dim":"","rhythm_ratio":1.0,"mirror":false,"chromatic_density":0.421,"complexity":0.629,"dissonance":0.215},{"voice":2,"pitch":53,"start":13.8461,"duration":0.6923,"velocity":127,"measure":4,"beat":4.0,"subject_pos":-1,"motif":"","motif_pos":-1,"best_pos":3,"similarity":0.586,"stretto":false,"stretto_voices":0,"combination":[],"aug_dim":"","rhythm_ratio":1.0,"mirror":false,"chromatic_density":0.421,"complexity":0.629,"dissonance":0.215},{"voice":1,"pitch":69,"start":14.0769,"duration":0.2308,"velocity":127,"measure":4,"beat":4.25,"subject_pos":-1,"motif":"","motif_pos":-1,"best_pos":5,"similarity":0.536,"stretto":false,"stretto_voices":0,"combination":[],"aug_dim":"","rhythm_ratio":1.0,"mirror":false,"chromatic_density":0.421,"complexity":0.629,"dissonance":0.215},{"voice":0,"pitch":79,"start":14.3077,"duration":0.4615,"velocity":127,"measure":4,"beat":4.5,"subject_pos":8,"motif":"subject_inv","motif_pos":8,"best_pos":0,"similarity":1.0,"stretto":false,"stretto_voices":0,"combination":[],"aug_dim":"","rhythm_ratio":1.0,"mirror":false,"chromatic_density":0.421,"complexity":0.629,"dissonance":0.215},{"voice":1,"pitch":71,"start":14.3077,"duration":0.2308,"velocity":127,"measure":4,"beat":4.5,"subject_pos":-1,"motif":"","motif_pos":-1,"best_pos":5,"similarity":0.604,"stretto":false,"stretto_voices":0,"combination":[],"aug_dim":"","rhythm_ratio":1.0,"mirror":false,"chromatic_density":0.421,"complexity":0.629,"dissonance":0.215},{"voice":1,"pitch":73,"start":14.5384,"duration":0.2308,"velocity":127,"measure":4,"beat":4.75,"subject_pos":-1,"motif":"","motif_pos":-1,"best_pos":6,"similarity":0.65,"stretto":false,"stretto_voices":0,"combination":[],"aug_dim":"","rhythm_ratio":1.0,"mirror":false,"chromatic_density":0.421,"complexity":0.629,"dissonance":0.215},{"voice":2,"pitch":52,"start":14.5384,"duration":0.2308,"velocity":127,"measure":4,"beat":4.75,"subject_pos":-1,"motif":"","motif_pos":-1,"best_pos":4,"similarity":0.493,"stretto":false,"stretto_voices":0,"combination":[],"aug_dim":"","rhythm_ratio":1.0,"mirror":false,"chromatic_density":0.421,"complexity":0.629,"dissonance":0.215},{"voice":0,"pitch":77,"start":14.7692,"duration":2.3077,"velocity":127,"measure":5,"beat":1.0,"subject_pos":-1,"motif":"","motif_pos":-1,"best_pos":3,"similarity":0.786,"stretto":false,"stretto_voices":0,"combination":[],"aug_dim":"","rhythm_ratio":1.0,"mirror":false,"chromatic_density":0.278,"complexity":0.676,"dissonance":0.078},{"voice":1,"pitch":74,"start":14.7692,"duration":0.2308,"velocity":127,"measure":5,"beat":1.0,"subject_pos":-1,"motif":"","motif_pos":-1,"best_pos":7,"similarity":0.464,"stretto":false,"stretto_voices":0,"combination":[],"aug_dim":"","rhythm_ratio":1.0,"mirror":false,"chromatic_density":0.278,"complexity":0.676,"dissonance":0.078},{"voice":2,"pitch":50,"start":14.7692,"duration":1.1538,"velocity":127,"measure":5,"beat":1.0,"subject_pos":-1,"motif":"","motif_pos":-1,"best_pos":4,"similarity":0.429,"stretto":false,"stretto_voices":0,"combination":[],"aug_dim":"","rhythm_ratio":1.0,"mirror":false,"chromatic_density":0.278,"complexity":0.676,"dissonance":0.078},{"voice":3,"pitch":50,"start":14.7692,"duration":3.6923,"velocity":127,"measure":5,"beat":1.0,"subject_pos":0,"motif":"subject_inv","motif_pos":0,"best_pos":0,"similarity":1.0,"stretto":false,"stretto_voices":0,"combination":[],"aug_dim":"augmentation","rhythm_ratio":2.0,"mirror":false,"chromatic_density":0.278,"complexity":0.676,"dissonance":0.078},{"voice":1,"pitch":70,"start":15.0,"duration":0.2308,"velocity":127,"measure":5,"beat":1.25,"subject_pos":-1,"motif":"","motif_pos":-1,"best_pos":3,"similarity":0.471,"stretto":false,"stretto_voices":0,"combination":[],"aug_dim":"","rhythm_ratio":1.0,"mirror":false,"chromatic_density":0.278,"complexity":0.676,"dissonance":0.078},{"voice":1,"pitch":69,"start":15.2308,"duration":0.2308,"velocity":127,"measure":5,"beat":1.5,"subject_pos":-1,"motif":"","motif_pos":-1,"best_pos":4,"similarity":0.414,"stretto":false,"stretto_voices":0,"combination":[],"aug_dim":"","rhythm_ratio":1.0,"mirror":false,"chromatic_density":0.278,"complexity":0.676,"dissonance":0.078},{"voice":1,"pitch":67,"start":15.4615,"duration":0.2308,"velocity":127,"measure":5,"beat":1.75,"subject_pos":-1,"motif":"","motif_pos":-1,"best_pos":2,"similarity":0.464,"stretto":false,"stretto_voices":0,"combination":[],"aug_dim":"","rhythm_ratio":1.0,"mirror":false,"chromatic_density":0.278,"complexity":0.676,"dissonance":0.078},{"voice":1,"pitch":65,"start":15.6923,"duration":1.1538,"velocity":127,"measure":5,"beat":2.0,"subject_pos":-1,"motif":"","motif_pos":-1,"best_pos":4,"similarity":0.457,"stretto":false,"stretto_voices":0,"combination":[],"aug_dim":"","rhythm_ratio":1.0,"mirror":false,"chromatic_density":0.278,"complexity":0.676,"dissonance":0.078},{"voice":2,"pitch":57,"start":15.9231,"duration":0.2308,"velocity":127,"measure":5,"beat":2.25,"subject_pos":-1,"motif":"","motif_pos":-1,"best_pos":4,"similarity":0.464,"stretto":false,"stretto_voices":0,"combination":[],"aug_dim":"","rhythm_ratio":1.0,"mirror":false,"chromatic_density":0.278,"complexity":0.676,"dissonance":0.078},{"voice":2,"pitch":59,"start":16.1538,"duration":0.2308,"velocity":127,"measure":5,"beat":2.5,"subject_pos":-1,"motif":"","motif_pos":-1,"best_pos":5,"similarity":0.607,"stretto":false,"stretto_voices":0,"combination":[],"aug_dim":"","rhythm_ratio":1.0,"mirror":false,"chromatic_density":0.278,"complexity":0.676,"dissonance":0.078},{"voice":2,"pitch":61,"start":16.3846,"duration":0.2308,"velocity":127,"measure":5,"beat":2.75,"subject_pos":-1,"motif":"enigmatic_cell","motif_pos":0,"best_pos":0,"similarity":1.0,"stretto":false,"stretto_voices":0,"combination":[],"aug_dim":"","rhythm_ratio":1.0,"mirror":false,"chromatic_density":0.278,"complexity":0.676,"dissonance":0.078},{"voice":2,"pitch":62,"start":16.6154,"duration":1.1538,"velocity":127,"measure":5,"beat":3.0,"subject_pos":-1,"motif":"enigmatic_cell","motif_pos":1,"best_pos":1,"similarity":1.0,"stretto":false,"stretto_voices":0,"combination":[],"aug_dim":"","rhythm_ratio":1.0,"mirror":false,"chromatic_density":0.278,"complexity":0.676,"dissonance":0.078},{"voice":1,"pitch":69,"start":16.8461,"duration":0.2308,"velocity":127,"measure":5,"beat":3.25,"subject_pos":-1,"motif":"","motif_pos":-1,"best_pos":4,"similarity":0.5,"stretto":false,"stretto_voices":0,"combination":[],"aug_dim":"","rhythm_ratio":1.0,"mirror":false,"chromatic_density":0.278,"complexity":0.676,"dissonance":0.078},{"voice":0,"pitch":76,"start":17.0769,"duration":0.4615,"velocity":127,"measure":5,"beat":3.5,"subject_pos":-1,"motif":"","motif_pos":-1,"best_pos":4,"similarity":0.893,"stretto":false,"stretto_voices":0,"combination":[],"aug_dim":"","rhythm_ratio":1.0,"mirror":false,"chromatic_density":0.278,"complexity":0.676,"dissonance":0.078},{"voice":1,"pitch":71,"start":17.0769,"duration":0.2308,"velocity":127,"measure":5,"beat":3.5,"subject_pos":-1,"motif":"","motif_pos":-1,"best_pos":5,"similarity":0.607,"stretto":false,"stretto_voices":0,"combination":[],"aug_dim":"","rhythm_ratio":1.0,"mirror":false,"chromatic_density":0.278,"complexity":0.676,"dissonance":0.078},{"voice":1,"pitch":73,"start":17.3077,"duration":0.2308,"velocity":127,"measure":5,"beat":3.75,"subject_pos":-1,"motif":"","motif_pos":-1,"best_pos":6,"similarity":0.643,"stretto":false,"stretto_voices":0,"combination":[],"aug_dim":"","rhythm_ratio":1.0,"mirror":false,"chromatic_density":0.278,"complexity":0.676,"dissonance":0.078},{"voice":0,"pitch":77,"start":17.5384,"duration":0.4615,"velocity":127,"measure":5,"beat":4.0,"subject_pos":-1,"motif":"","motif_pos":-1,"best_pos":5,"similarity":0.821,"stretto":false,"stretto_voices":0,"combination":[],"aug_dim":"","rhythm_ratio":1.0,"mirror":false,"chromatic_density":0.278,"complexity":0.676,"dissonance":0.078},{"voice":1,"pitch":74,"start":17.5384,"duration":1.1538,"velocity":127,"measure":5,"beat":4.0,"subject_pos":-1,"motif":"","motif_pos":-1,"best_pos":7,"similarity":0.464,"stretto":false,"stretto_voices":0,"combination":[],"aug_dim":"","rhythm_ratio":1.0,"mirror":false,"chromatic_density":0.278,"complexity":0.676,"dissonance":0.078},{"voice":2,"pitch":57,"start":17.7692,"duration":0.2308,"velocity":127,"measure":5,"beat":4.25,"subject_pos":-1,"motif":"enigmatic_cell","motif_pos":2,"best_pos":2,"similarity":1.0,"stretto":false,"stretto_voices":0,"combination":[],"aug_dim":"","rhythm_ratio":1.0,"mirror":false,"chromatic_density":0.278,"complexity":0.676,"dissonance":0.078},{"voice":0,"pitch":79,"start":18.0,"duration":0.4615,"velocity":127,"measure":5,"beat":4.5,"subject_pos":-1,"motif":"","motif_pos":-1,"best_pos":6,"similarity":0.643,"stretto":false,"stretto_voices":0,"combination":[],"aug_dim":"","rhythm_ratio":1.0,"mirror":false,"chromatic_density":0.278,"complexity":0.676,"dissonance":0.078},{"voice":2,"pitch":55,"start":18.0,"duration":0.2308,"velocity":127,"measure":5,"beat":4.5,"subject_pos":-1,"motif":"","motif_pos":-1,"best_pos":2,"similarity":0.579,"stretto":false,"stretto_voices":0,"combination":[],"aug_dim":"","rhythm_ratio":1.0,"mirror":false,"chromatic_density":0.278,"complexity":0.676,"dissonance":0.078},{"voice":2,"pitch":53,"start":18.2308,"duration":0.2308,"velocity":127,"measure":5,"beat":4.75,"subject_pos":-1,"motif":"enigmatic_cell","motif_pos":0,"best_pos":0,"similarity":1.0,"stretto":false,"stretto_voices":0,"combination":[],"aug_dim":"","rhythm_ratio":1.0,"mirror":false,"chromatic_density":0.278,"complexity":0.676,"dissonance":0.078},{"voice":0,"pitch":81,"start":18.4615,"duration":1.1538,"velocity":127,"measure":6,"beat":1.0,"subject_pos":-1,"motif":"","motif_pos":-1,"best_pos":1,"similarity":0.457,"stretto":false,"stretto_voices":0,"combination":[],"aug_dim":"","rhythm_ratio":1.0,"mirror":false,"chromatic_density":0.389,"complexity":0.652,"dissonance":0.116},{"voice":2,"pitch":52,"start":18.4615,"duration":0.9231,"velocity":127,"measure":6,"beat":1.0,"subject_pos":-1,"motif":"enigmatic_cell","motif_pos":1,"best_pos":1,"similarity":1.0,"stretto":false,"stretto_voices":0,"combination":[],"aug_dim":"","rhythm_ratio":1.0,"mirror":false,"chromatic_density":0.389,"complexity":0.652,"dissonance":0.116},{"voice":3,"pitch":45,"start":18.4615,"duration":2.7692,"velocity":127,"measure":6,"beat":1.0,"subject_pos":1,"motif":"subject_inv","motif_pos":1,"best_pos":1,"similarity":1.0,"stretto":false,"stretto_voices":0,"combination":[],"aug_dim":"augmentation","rhythm_ratio":2.0,"mirror":false,"chromatic_density":0.389,"complexity":0.652,"dissonance":0.116},{"voice":1,"pitch":74,"start":18.6923,"duration":0.2308,"velocity":127,"measure":6,"beat":1.25,"subject_pos":-1,"motif":"","motif_pos":-1,"best_pos":2,"similarity":0.443,"stretto":false,"stretto_voices":0,"combination":[],"aug_dim":"","rhythm_ratio":1.0,"mirror":false,"chromatic_density":0.389,"complexity":0.652,"dissonance":0.116},{"voice":1,"pitch":72,"start":18.9231,"duration":0.2308,"velocity":127,"measure":6,"beat":1.5,"subject_pos":-1,"motif":"","motif_pos":-1,"best_pos":3,"similarity":0.632,"stretto":false,"stretto_voices":0,"combination":[],"aug_dim":"","rhythm_ratio":1.0,"mirror":false,"chromatic_density":0.389,"complexity":0.652,"dissonance":0.116},{"voice":1,"pitch":71,"start":19.1538,"duration":0.2308,"velocity":127,"measure":6,"beat":1.75,"subject_pos":-1,"motif":"","motif_pos":-1,"best_pos":4,"similarity":0.714,"stretto":false,"stretto_voices":0,"combination":[],"aug_dim":"","rhythm_ratio":1.0,"mirror":false,"chromatic_density":0.389,"complexity":0.652,"dissonance":0.116},{"voice":1,"pitch":72,"start":19.3846,"duration":1.1538,"velocity":127,"measure":6,"beat":2.0,"subject_pos":-1,"motif":"","motif_pos":-1,"best_pos":5,"similarity":0.571,"stretto":false,"stretto_voices":0,"combination":[],"aug_dim":"","rhythm_ratio":1.0,"mirror":false,"chromatic_density":0.389,"complexity":0.652,"dissonance":0.116},{"voice":2,"pitch":57,"start":19.3846,"duration":0.6923,"velocity":127,"measure":6,"beat":2.0,"subject_pos":-1,"motif":"enigmatic_cell","motif_pos":2,"best_pos":2,"similarity":1.0,"stretto":false,"stretto_voices":0,"combination":[],"aug_dim":"","rhythm_ratio":1.0,"mirror":false,"chromatic_density":0.389,"complexity":0.652,"dissonance":0.116},{"voice":0,"pitch":79,"start":19.6154,"duration":0.2308,"velocity":127,"measure":6,"beat":2.25,"subject_pos":-1,"motif":"","motif_pos":-1,"best_pos":2,"similarity":0.593,"stretto":false,"stretto_voices":0,"combination":[],"aug_dim":"","rhythm_ratio":1.0,"mirror":false,"chromatic_density":0.389,"complexity":0.652,"dissonance":0.116},{"voice":0,"pitch":77,"start":19.8461,"duration":0.2308,"velocity":127,"measure":6,"beat":2.5,"subject_pos":-1,"motif":"","motif_pos":-1,"best_pos":3,"similarity":0.611,"stretto":false,"stretto_voices":0,"combination":[],"aug_dim":"","rhythm_ratio":1.0,"mirror":false,"chromatic_density":0.389,"complexity":0.652,"dissonance":0.116},{"voice":0,"pitch":76,"start":20.0769,"duration":0.2308,"velocity":127,"measure":6,"beat":2.75,"subject_pos":-1,"motif":"","motif_pos":-1,"best_pos":4,"similarity":0.529,"stretto":false,"stretto_voices":0,"combination":[],"aug_dim":"","rhythm_ratio":1.0,"mirror":false,"chromatic_density":0.389,"complexity":0.652,"dissonance":0.116},{"voice":2,"pitch":55,"start":20.0769,"duration":0.2308,"velocity":127,"measure":6,"beat":2.75,"subject_pos":-1,"motif":"","motif_pos":-1,"best_pos":2,"similarity":0.721,"stretto":false,"stretto_voices":0,"combination":[],"aug_dim":"","rhythm_ratio":1.0,"mirror":false,"chromatic_density":0.389,"complexity":0.652,"dissonance":0.116},{"voice":0,"pitch":74,"start":20.3077,"duration":1.1538,"velocity":127,"measure":6,"beat":3.0,"subject_pos":-1,"motif":"","motif_pos":-1,"best_pos":4,"similarity":0.607,"stretto":false,"stretto_voices":0,"combination":[],"aug_dim":"","rhythm_ratio":1.0,"mirror":false,"chromatic_density":0.389,"complexity":0.652,"dissonance":0.116},{"voice":2,"pitch":53,"start":20.3077,"duration":0.6923,"velocity":127,"measure":6,"beat":3.0,"subject_pos":-1,"motif":"","motif_pos":-1,"best_pos":3,"similarity":0.664,"stretto":false,"stretto_voices":0,"combination":[],"aug_dim":"","rhythm_ratio":1.0,"mirror":false,"chromatic_density":0.389,"complexity":0.652,"dissonance":0.116},{"voice":1,"pitch":72,"start":20.5384,"duration":0.2308,"velocity":127,"measure":6,"beat":3.25,"subject_pos":-1,"motif":"","motif_pos":-1,"best_pos":6,"similarity":0.357,"stretto":false,"stretto_voices":0,"combination":[],"aug_dim":"","rhythm_ratio":1.0,"mirror":false,"chromatic_density":0.389,"complexity":0.652,"dissonance":0.116},{"voice":1,"pitch":71,"start":20.7692,"duration":0.2308,"velocity":127,"measure":6,"beat":3.5,"subject_pos":-1,"motif":"","motif_pos":-1,"best_pos":2,"similarity":0.5,"stretto":false,"stretto_voices":0,"combination":[],"aug_dim":"","rhythm_ratio":1.0,"mirror":false,"chromatic_density":0.389,"complexity":0.652,"dissonance":0.116},{"voice":1,"pitch":69,"start":21.0,"duration":0.2308,"velocity":127,"measure":6,"beat":3.75,"subject_pos":-1,"motif":"","motif_pos":-1,"best_pos":3,"similarity":0.643,"stretto":false,"stretto_voices":0,"combination":[],"aug_dim":"","rhythm_ratio":1.0,"mirror":false,"chromatic_density":0.389,"complexity":0.652,"dissonance":0.116},{"voice":2,"pitch":52,"start":21.0,"duration":0.2308,"velocity":127,"measure":6,"beat":3.75,"subject_pos":-1,"motif":"","motif_pos":-1,"best_pos":4,"similarity":0.507,"stretto":false,"stretto_voices":0,"combination":[],"aug_dim":"","rhythm_ratio":1.0,"mirror":false,"chromatic_density":0.389,"complexity":0.652,"dissonance":0.116},{"voice":1,"pitch":68,"start":21.2307,"duration":0.9231,"velocity":127,"measure":6,"beat":4.0,"subject_pos":-1,"motif":"","motif_pos":-1,"best_pos":4,"similarity":0.686,"stretto":false,"stretto_voices":0,"combination":[],"aug_dim":"","rhythm_ratio":1.0,"mirror":false,"chromatic_density":0.389,"complexity":0.652,"dissonance":0.116},{"voice":2,"pitch":50,"start":21.2307,"duration":0.9231,"velocity":127,"measure":6,"beat":4.0,"subject_pos":-1,"motif":"","motif_pos":-1,"best_pos":3,"similarity":0.5,"stretto":false,"stretto_voices":0,"combination":[],"aug_dim":"","rhythm_ratio":1.0,"mirror":false,"chromatic_density":0.389,"complexity":0.652,"dissonance":0.116},{"voice":3,"pitch":47,"start":21.2307,"duration":0.9231,"velocity":127,"measure":6,"beat":4.0,"subject_pos":2,"motif":"subject_inv","motif_pos":2,"best_pos":2,"similarity":1.0,"stretto":false,"stretto_voices":0,"combination":[],"aug_dim":"augmentation","rhythm_ratio":2.0,"mirror":false,"chromatic_density":0.389,"complexity":0.652,"dissonance":0.116},{"voice":0,"pitch":74,"start":21.4615,"duration":0.2308,"velocity":127,"measure":6,"beat":4.25,"subject_pos":-1,"motif":"","motif_pos":-1,"best_pos":5,"similarity":0.661,"stretto":false,"stretto_voices":0,"combination":[],"aug_dim":"","rhythm_ratio":1.0,"mirror":false,"chromatic_density":0.389,"complexity":0.652,"dissonance":0.116},{"voice":0,"pitch":76,"start":21.6923,"duration":0.2308,"velocity":127,"measure":6,"beat":4.5,"subject_pos":-1,"motif":"","motif_pos":-1,"best_pos":6,"similarity":0.679,"stretto":false,"stretto_voices":0,"combination":[],"aug_dim":"","rhythm_ratio":1.0,"mirror":false,"chromatic_density":0.389,"complexity":0.652,"dissonance":0.116},{"voice":0,"pitch":77,"start":21.9231,"duration":0.2308,"velocity":127,"measure":6,"beat":4.75,"subject_pos":-1,"motif":"","motif_pos":-1,"best_pos":7,"similarity":0.464,"stretto":false,"stretto_voices":0,"combination":[],"aug_dim":"","rhythm_ratio":1.0,"mirror":false,"chromatic_density":0.389,"complexity":0.652,"dissonance":0.116},{"voice":0,"pitch":76,"start":22.1538,"duration":0.2308,"velocity":127,"measure":7,"beat":1.0,"subject_pos":-1,"motif":"","motif_pos":-1,"best_pos":1,"similarity":0.429,"stretto":false,"stretto_voices":0,"combination":[],"aug_dim":"","rhythm_ratio":1.0,"mirror":false,"chromatic_density":0.182,"complexity":0.725,"dissonance":0.064},{"voice":1,"pitch":69,"start":22.1538,"duration":0.9231,"velocity":127,"measure":7,"beat":1.0,"subject_pos":0,"motif":"subject","motif_pos":0,"best_pos":0,"similarity":1.0,"stretto":true,"stretto_voices":2,"combination":[],"aug_dim":"diminution","rhythm_ratio":0.5,"mirror":false,"chromatic_density":0.182,"complexity":0.725,"dissonance":0.064},{"voice":2,"pitch":48,"start":22.1538,"duration":0.2308,"velocity":127,"measure":7,"beat":1.0,"subject_pos":-1,"motif":"","motif_pos":-1,"best_pos":4,"similarity":0.571,"stretto":false,"stretto_voices":0,"combination":[],"aug_dim":"","rhythm_ratio":1.0,"mirror":false,"chromatic_density":0.182,"complexity":0.725,"dissonance":0.064},{"voice":3,"pitch":48,"start":22.1538,"duration":2.7692,"velocity":127,"measure":7,"beat":1.0,"subject_pos":3,"motif":"subject_inv","motif_pos":3,"best_pos":3,"similarity":1.0,"stretto":true,"stretto_voices":2,"combination":[],"aug_dim":"augmentation","rhythm_ratio":2.0,"mirror":false,"chromatic_density":0.182,"complexity":0.725,"dissonance":0.064},{"voice":0,"pitch":74,"start":22.3846,"duration":0.2308,"velocity":127,"measure":7,"beat":1.25,"subject_pos":-1,"motif":"","motif_pos":-1,"best_pos":2,"similarity":0.579,"stretto":false,"stretto_voices":0,"combination":[],"aug_dim":"","rhythm_ratio":1.0,"mirror":false,"chromatic_density":0.182,"complexity":0.725,"dissonance":0.064},{"voice":2,"pitch":50,"start":22.3846,"duration":0.2308,"velocity":127,"measure":7,"beat":1.25,"subject_pos":-1,"motif":"","motif_pos":-1,"best_pos":5,"similarity":0.607,"stretto":false,"stretto_voices":0,"combination":[],"aug_dim":"","rhythm_ratio":1.0,"mirror":false,"chromatic_density":0.182,"complexity":0.725,"dissonance":0.064},{"voice":0,"pitch":72,"start":22.6154,"duration":0.2308,"velocity":127,"measure":7,"beat":1.5,"subject_pos":-1,"motif":"","motif_pos":-1,"best_pos":3,"similarity":0.586,"stretto":false,"stretto_voices":0,"combination":[],"aug_dim":"","rhythm_ratio":1.0,"mirror":false,"chromatic_density":0.182,"complexity":0.725,"dissonance":0.064},{"voice":2,"pitch":52,"start":22.6154,"duration":0.6923,"velocity":127,"measure":7,"beat":1.5,"subject_pos":-1,"motif":"","motif_pos":-1,"best_pos":6,"similarity":0.536,"stretto":false,"stretto_voices":0,"combination":[],"aug_dim":"","rhythm_ratio":1.0,"mirror":false,"chromatic_density":0.182,"complexity":0.725,"dissonance":0.064},{"voice":0,"pitch":71,"start":22.8461,"duration":0.2308,"velocity":127,"measure":7,"beat":1.75,"subject_pos":-1,"motif":"","motif_pos":-1,"best_pos":4,"similarity":0.464,"stretto":false,"stretto_voices":0,"combination":[],"aug_dim":"","rhythm_ratio":1.0,"mirror":false,"chromatic_density":0.182,"complexity":0.725,"dissonance":0.064},{"voice":0,"pitch":69,"start":23.0769,"duration":0.4615,"velocity":127,"measure":7,"beat":2.0,"subject_pos":-1,"motif":"","motif_pos":-1,"best_pos":0,"similarity":0.321,"stretto":false,"stretto_voices":0,"combination":[],"aug_dim":"","rhythm_ratio":1.0,"mirror":false,"chromatic_density":0.182,"complexity":0.725,"dissonance":0.064},{"voice":1,"pitch":76,"start":23.0769,"duration":0.6923,"velocity":127,"measure":7,"beat":2.0,"subject_pos":1,"motif":"subject","motif_pos":1,"best_pos":1,"similarity":1.0,"stretto":true,"stretto_voices":2,"combination":[],"aug_dim":"diminution","rhythm_ratio":0.5,"mirror":false,"chromatic_density":0.182,"complexity":0.725,"dissonance":0.064},{"voice":2,"pitch":52,"start":23.3077,"duration":0.2308,"velocity":127,"measure":7,"beat":2.25,"subject_pos":-1,"motif":"","motif_pos":-1,"best_pos":5,"similarity":0.514,"stretto":false,"stretto_voices":0,"combination":[],"aug_dim":"","rhythm_ratio":1.0,"mirror":false,"chromatic_density":0.182,"complexity":0.725,"dissonance":0.064},{"voice":2,"pitch":54,"start":23.5384,"duration":0.2308,"velocity":127,"measure":7,"beat":2.5,"subject_pos":-1,"motif":"","motif_pos":-1,"best_pos":5,"similarity":0.643,"stretto":false,"stretto_voices":0,"combination":[],"aug_dim":"","rhythm_ratio":1.0,"mirror":false,"chromatic_density":0.182,"complexity":0.725,"dissonance":0.064},{"voice":1,"pitch":74,"start":23.7692,"duration":0.2308,"velocity":127,"measure":7,"beat":2.75,"subject_pos":2,"motif":"subject","motif_pos":2,"best_pos":2,"similarity":1.0,"stretto":true,"stretto_voices":2,"combination":[],"aug_dim":"diminution","rhythm_ratio":0.5,"mirror":false,"chromatic_density":0.182,"complexity":0.725,"dissonance":0.064},{"voice":2,"pitch":56,"start":23.7692,"duration":0.2308,"velocity":127,"measure":7,"beat":2.75,"subject_pos":-1,"motif":"","motif_pos":-1,"best_pos":6,"similarity":0.679,"stretto":false,"stretto_voices":0,"combination":[],"aug_dim":"","rhythm_ratio":1.0,"mirror":false,"chromatic_density":0.182,"complexity":0.725,"dissonance":0.064},{"voice":1,"pitch":72,"start":24.0,"duration":0.6923,"velocity":127,"measure":7,"beat":3.0,"subject_pos":3,"motif":"subject","motif_pos":3,"best_pos":3,"similarity":1.0,"stretto":true,"stretto_voices":2,"combination":[],"aug_dim":"diminution","rhythm_ratio":0.5,"mirror":false,"chromatic_density":0.182,"complexity":0.725,"dissonance":0.064},{"voice":2,"pitch":57,"start":24.0,"duration":0.9231,"velocity":127,"measure":7,"beat":3.0,"subject_pos":-1,"motif":"","motif_pos":-1,"best_pos":5,"similarity":0.6,"stretto":false,"stretto_voices":0,"combination":[],"aug_dim":"","rhythm_ratio":1.0,"mirror":false,"chromatic_density":0.182,"complexity":0.725,"dissonance":0.064},{"voice":0,"pitch":76,"start":24.2307,"duration":0.2308,"velocity":127,"measure":7,"beat":3.25,"subject_pos":-1,"motif":"","motif_pos":-1,"best_pos":0,"similarity":0.464,"stretto":false,"stretto_voices":0,"combination":[],"aug_dim":"","rhythm_ratio":1.0,"mirror":false,"chromatic_density":0.182,"complexity":0.725,"dissonance":0.064},{"voice":0,"pitch":81,"start":24.4615,"duration":0.2308,"velocity":127,"measure":7,"beat":3.5,"subject_pos":-1,"motif":"","motif_pos":-1,"best_pos":1,"similarity":0.714,"stretto":false,"stretto_voices":0,"combination":[],"aug_dim":"","rhythm_ratio":1.0,"mirror":false,"chromatic_density":0.182,"complexity":0.725,"dissonance":0.064},{"voice":0,"pitch":79,"start":24.6923,"duration":0.2308,"velocity":127,"measure":7,"beat":3.75,"subject_pos":-1,"motif":"","motif_pos":-1,"best_pos":2,"similarity":0.721,"stretto":false,"stretto_voices":0,"combination":[],"aug_dim":"","rhythm_ratio":1.0,"mirror":false,"chromatic_density":0.182,"complexity":0.725,"dissonance":0.064},{"voice":1,"pitch":71,"start":24.6923,"duration":0.2308,"velocity":127,"measure":7,"beat":3.75,"subject_pos":4,"motif":"subject","motif_pos":4,"best_pos":4,"similarity":1.0,"stretto":true,"stretto_voices":2,"combination":[],"aug_dim":"diminution","rhythm_ratio":0.5,"mirror":false,"chromatic_density":0.182,"complexity":0.725,"dissonance":0.064},{"voice":0,"pitch":77,"start":24.9231,"duration":0.2308,"velocity":127,"measure":7,"beat":4.0,"subject_pos":-1,"motif":"","motif_pos":-1,"best_pos":3,"similarity":0.664,"stretto":false,"stretto_voices":0,"combination":[],"aug_dim":"","rhythm_ratio":1.0,"mirror":false,"chromatic_density":0.182,"complexity":0.725,"dissonance":0.064},{"voice":1,"pitch":69,"start":24.9231,"duration":0.9231,"velocity":127,"measure":7,"beat":4.0,"subject_pos":5,"motif":"subject","motif_pos":5,"best_pos":5,"similarity":1.0,"stretto":true,"stretto_voices":2,"combination":[],"aug_dim":"diminution","rhythm_ratio":0.5,"mirror":false,"chromatic_density":0.182,"complexity":0.725,"dissonance":0.064},{"voice":3,"pitch":50,"start":24.9231,"duration":0.9231,"velocity":127,"measure":7,"beat":4.0,"subject_pos":4,"motif":"subject_inv","motif_pos":4,"best_pos":4,"similarity":1.0,"stretto":true,"stretto_voices":2,"combination":[],"aug_dim":"augmentation","rhythm_ratio":2.0,"mirror":false,"chromatic_density":0.182,"complexity":0.725,"dissonance":0.064},{"voice":0,"pitch":76,"start":25.1538,"duration":0.2308,"velocity":127,"measure":7,"beat":4.25,"subject_pos":-1,"motif":"","motif_pos":-1,"best_pos":4,"similarity":0.489,"stretto":false,"stretto_voices":0,"combination":[],"aug_dim":"","rhythm_ratio":1.0,"mirror":false,"chromatic_density":0.182,"complexity":0.725,"dissonance":0.064},{"voice":0,"pitch":74,"start":25.3846,"duration":0.2308,"velocity":127,"measure":7,"beat":4.5,"subject_pos":-1,"motif":"","motif_pos":-1,"best_pos":2,"similarity":0.589,"stretto":false,"stretto_voices":0,"combination":[],"aug_dim":"","rhythm_ratio":1.0,"mirror":false,"chromatic_density":0.182,"complexity":0.725,"dissonance":0.064},{"voice":0,"pitch":72,"start":25.6154,"duration":0.2308,"velocity":127,"measure":7,"beat":4.75,"subject_pos":-1,"motif":"","motif_pos":-1,"best_pos":3,"similarity":0.679,"stretto":false,"stretto_voices":0,"combination":[],"aug_dim":"","rhythm_ratio":1.0,"mirror":false,"chromatic_density":0.182,"complexity":0.725,"dissonance":0.064},{"voice":0,"pitch":71,"start":25.8461,"duration":0.9231,"velocity":127,"measure":8,"beat":1.0,"subject_pos":-1,"motif":"","motif_pos":-1,"best_pos":4,"similarity":0.714,"stretto":false,"stretto_voices":0,"combination":[],"aug_dim":"","rhythm_ratio":1.0,"mirror":false,"chromatic_density":0.353,"complexity":0.665,"dissonance":0.072},{"voice":1,"pitch":68,"start":25.8461,"duration":0.9231,"velocity":127,"measure":8,"beat":1.0,"subject_pos":6,"motif":"subject","motif_pos":6,"best_pos":6,"similarity":1.0,"stretto":true,"stretto_voices":2,"combination":[],"aug_dim":"diminution","rhythm_ratio":0.5,"mirror":false,"chromatic_density":0.353,"complexity":0.665,"dissonance":0.072},{"voice":3,"pitch":52,"start":25.8461,"duration":3.6923,"velocity":127,"measure":8,"beat":1.0,"subject_pos":5,"motif":"subject_inv","motif_pos":5,"best_pos":5,"similarity":1.0,"stretto":true,"stretto_voices":2,"combination":[],"aug_dim":"augmentation","rhythm_ratio":2.0,"mirror":false,"chromatic_density":0.353,"complexity":0.665,"dissonance":0.072},{"voice":2,"pitch":59,"start":26.0769,"duration":0.2308,"velocity":127,"measure":8,"beat":1.25,"subject_pos":-1,"motif":"","motif_pos":-1,"best_pos":0,"similarity":0.464,"stretto":false,"stretto_voices":0,"combination":[],"aug_dim":"","rhythm_ratio":1.0,"mirror":false,"chromatic_density":0.353,"complexity":0.665,"dissonance":0.072},{"voice":2,"pitch":64,"start":26.3077,"duration":0.2308,"velocity":127,"measure":8,"beat":1.5,"subject_pos":-1,"motif":"","motif_pos":-1,"best_pos":1,"similarity":0.714,"stretto":false,"stretto_voices":0,"combination":[],"aug_dim":"","rhythm_ratio":1.0,"mirror":false,"chromatic_density":0.353,"complexity":0.665,"dissonance":0.072},{"voice":2,"pitch":62,"start":26.5384,"duration":0.2308,"velocity":127,"measure":8,"beat":1.75,"subject_pos":-1,"motif":"","motif_pos":-1,"best_pos":2,"similarity":0.721,"stretto":false,"stretto_voices":0,"combination":[],"aug_dim":"","rhythm_ratio":1.0,"mirror":false,"chromatic_density":0.353,"complexity":0.665,"dissonance":0.072},{"voice":1,"pitch":69,"start":26.7692,"duration":0.6923,"velocity":127,"measure":8,"beat":2.0,"subject_pos":7,"motif":"subject","motif_pos":7,"best_pos":7,"similarity":1.0,"stretto":true,"stretto_voices":2,"combination":[],"aug_dim":"diminution","rhythm_ratio":0.5,"mirror":false,"chromatic_density":0.353,"complexity":0.665,"dissonance":0.072},{"voice":2,"pitch":60,"start":26.7692,"duration":0.2308,"velocity":127,"measure":8,"beat":2.0,"subject_pos":-1,"motif":"","motif_pos":-1,"best_pos":3,"similarity":0.664,"stretto":false,"stretto_voices":0,"combination":[],"aug_dim":"","rhythm_ratio":1.0,"mirror":false,"chromatic_density":0.353,"complexity":0.665,"dissonance":0.072},{"voice":2,"pitch":59,"start":27.0,"duration":0.2308,"velocity":127,"measure":8,"beat":2.25,"subject_pos":-1,"motif":"","motif_pos":-1,"best_pos":4,"similarity":0.543,"stretto":false,"stretto_voices":0,"combination":[],"aug_dim":"","rhythm_ratio":1.0,"mirror":false,"chromatic_density":0.353,"complexity":0.665,"dissonance":0.072},{"voice":2,"pitch":57,"start":27.2307,"duration":0.2308,"velocity":127,"measure":8,"beat":2.5,"subject_pos":-1,"motif":"","motif_pos":-1,"best_pos":3,"similarity":0.661,"stretto":false,"stretto_voices":0,"combination":[],"aug_dim":"","rhythm_ratio":1.0,"mirror":false,"chromatic_density":0.353,"complexity":0.665,"dissonance":0.072},{"voice":1,"pitch":71,"start":27.4615,"duration":0.2308,"velocity":127,"measure":8,"beat":2.75,"subject_pos":8,"motif":"subject","motif_pos":8,"best_pos":0,"similarity":1.0,"stretto":true,"stretto_voices":2,"combination":[],"aug_dim":"diminution","rhythm_ratio":0.5,"mirror":false,"chromatic_density":0.353,"complexity":0.665,"dissonance":0.072},{"voice":2,"pitch":56,"start":27.4615,"duration":0.2308,"velocity":127,"measure":8,"beat":2.75,"subject_pos":-1,"motif":"","motif_pos":-1,"best_pos":4,"similarity":0.714,"stretto":false,"stretto_voices":0,"combination":[],"aug_dim":"","rhythm_ratio":1.0,"mirror":false,"chromatic_density":0.353,"complexity":0.665,"dissonance":0.072},{"voice":1,"pitch":72,"start":27.6923,"duration":1.1538,"velocity":127,"measure":8,"beat":3.0,"subject_pos":-1,"motif":"","motif_pos":-1,"best_pos":5,"similarity":0.607,"stretto":false,"stretto_voices":0,"combination":[],"aug_dim":"","rhythm_ratio":1.0,"mirror":false,"chromatic_density":0.353,"complexity":0.665,"dissonance":0.072},{"voice":2,"pitch":57,"start":27.6923,"duration":0.4615,"velocity":127,"measure":8,"beat":3.0,"subject_pos":-1,"motif":"","motif_pos":-1,"best_pos":5,"similarity":0.536,"stretto":false,"stretto_voices":0,"combination":[],"aug_dim":"","rhythm_ratio":1.0,"mirror":false,"chromatic_density":0.353,"complexity":0.665,"dissonance":0.072},{"voice":0,"pitch":74,"start":27.923,"duration":0.2308,"velocity":127,"measure":8,"beat":3.25,"subject_pos":-1,"motif":"","motif_pos":-1,"best_pos":5,"similarity":0.679,"stretto":false,"stretto_voices":0,"combination":[],"aug_dim":"","rhythm_ratio":1.0,"mirror":false,"chromatic_density":0.353,"complexity":0.665,"dissonance":0.072},{"voice":0,"pitch":76,"start":28.1538,"duration":0.2308,"velocity":127,"measure":8,"beat":3.5,"subject_pos":-1,"motif":"","motif_pos":-1,"best_pos":6,"similarity":0.679,"stretto":false,"stretto_voices":0,"combination":[],"aug_dim":"","rhythm_ratio":1.0,"mirror":false,"chromatic_density":0.353,"complexity":0.665,"dissonance":0.072},{"voice":0,"pitch":77,"start":28.3846,"duration":0.2308,"velocity":127,"measure":8,"beat":3.75,"subject_pos":-1,"motif":"","motif_pos":-1,"best_pos":5,"similarity":0.657,"stretto":false,"stretto_voices":0,"combination":[],"aug_dim":"","rhythm_ratio":1.0,"mirror":false,"chromatic_density":0.353,"complexity":0.665,"dissonance":0.072},{"voice":0,"pitch":79,"start":28.6154,"duration":1.1538,"velocity":127,"measure":8,"beat":4.0,"subject_pos":-1,"motif":"","motif_pos":-1,"best_pos":6,"similarity":0.579,"stretto":false,"stretto_voices":0,"combination":[],"aug_dim":"","rhythm_ratio":1.0,"mirror":false,"chromatic_density":0.353,"complexity":0.665,"dissonance":0.072},{"voice":1,"pitch":74,"start":28.8461,"duration":0.2308,"velocity":127,"measure":8,"beat":4.25,"subject_pos":-1,"motif":"","motif_pos":-1,"best_pos":6,"similarity":0.464,"stretto":false,"stretto_voices":0,"combination":[],"aug_dim":"","rhythm_ratio":1.0,"mirror":false,"chromatic_density":0.353,"complexity":0.665,"dissonance":0.072},{"voice":1,"pitch":72,"start":29.0769,"duration":0.2308,"velocity":127,"measure":8,"beat":4.5,"subject_pos":-1,"motif":"","motif_pos":-1,"best_pos":2,"similarity":0.621,"stretto":false,"stretto_voices":0,"combination":[],"aug_dim":"","rhythm_ratio":1.0,"mirror":false,"chromatic_density":0.353,"complexity":0.665,"dissonance":0.072},{"voice":1,"pitch":70,"start":29.3077,"duration":0.2308,"velocity":127,"measure":8,"beat":4.75,"subject_pos":-1,"motif":"","motif_pos":-1,"best_pos":3,"similarity":0.721,"stretto":false,"stretto_voices":0,"combination":[],"aug_dim":"","rhythm_ratio":1.0,"mirror":false,"chromatic_density":0.353,"complexity":0.665,"dissonance":0.072},{"voice":1,"pitch":69,"start":29.5384,"duration":1.1538,"velocity":127,"measure":9,"beat":1.0,"subject_pos":-1,"motif":"","motif_pos":-1,"best_pos":4,"similarity":0.75,"stretto":false,"stretto_voices":0,"combination":[],"aug_dim":"","rhythm_ratio":1.0,"mirror":false,"chromatic_density":0.333,"complexity":0.681,"dissonance":0.113},{"voice":2,"pitch":57,"start":29.5384,"duration":0.9231,"velocity":127,"measure":9,"beat":1.0,"subject_pos":0,"motif":"subject_inv","motif_pos":0,"best_pos":0,"similarity":1.0,"stretto":true,"stretto_voices":2,"combination":[],"aug_dim":"diminution","rhythm_ratio":0.5,"mirror":false,"chromatic_density":0.333,"complexity":0.681,"dissonance":0.113},{"voice":3,"pitch":53,"start":29.5384,"duration":3.6923,"velocity":127,"measure":9,"beat":1.0,"subject_pos":6,"motif":"subject_inv","motif_pos":6,"best_pos":6,"similarity":1.0,"stretto":true,"stretto_voices":2,"combination":[],"aug_dim":"augmentation","rhythm_ratio":2.0,"mirror":false,"chromatic_density":0.333,"complexity":0.681,"dissonance":0.113},{"voice":0,"pitch":79,"start":29.7692,"duration":0.2308,"velocity":127,"measure":9,"beat":1.25,"subject_pos":-1,"motif":"","motif_pos":-1,"best_pos":2,"similarity":0.443,"stretto":false,"stretto_voices":0,"combination":[],"aug_dim":"","rhythm_ratio":1.0,"mirror":false,"chromatic_density":0.333,"complexity":0.681,"dissonance":0.113},{"voice":0,"pitch":77,"start":30.0,"duration":0.2308,"velocity":127,"measure":9,"beat":1.5,"subject_pos":-1,"motif":"","motif_pos":-1,"best_pos":3,"similarity":0.686,"stretto":false,"stretto_voices":0,"combination":[],"aug_dim":"","rhythm_ratio":1.0,"mirror":false,"chromatic_density":0.333,"complexity":0.681,"dissonance":0.113},{"voice":0,"pitch":76,"start":30.2307,"duration":0.2308,"velocity":127,"measure":9,"beat":1.75,"subject_pos":-1,"motif":"","motif_pos":-1,"best_pos":4,"similarity":0.811,"stretto":false,"stretto_voices":0,"combination":[],"aug_dim":"","rhythm_ratio":1.0,"mirror":false,"chromatic_density":0.333,"complexity":0.681,"dissonance":0.113},{"voice":0,"pitch":77,"start":30.4615,"duration":1.1538,"velocity":127,"measure":9,"beat":2.0,"subject_pos":-1,"motif":"","motif_pos":-1,"best_pos":5,"similarity":0.764,"stretto":false,"stretto_voices":0,"combination":[],"aug_dim":"","rhythm_ratio":1.0,"mirror":false,"chromatic_density":0.333,"complexity":0.681,"dissonance":0.113},{"voice":2,"pitch":50,"start":30.4615,"duration":0.6923,"velocity":127,"measure":9,"beat":2.0,"subject_pos":1,"motif":"subject_inv","motif_pos":1,"best_pos":1,"similarity":1.0,"stretto":true,"stretto_voices":2,"combination":[],"aug_dim":"diminution","rhythm_ratio":0.5,"mirror":false,"chromatic_density":0.333,"complexity":0.681,"dissonance":0.113},{"voice":1,"pitch":69,"start":30.6923,"duration":0.2308,"velocity":127,"measure":9,"beat":2.25,"subject_pos":-1,"motif":"","motif_pos":-1,"best_pos":5,"similarity":0.679,"stretto":false,"stretto_voices":0,"combination":[],"aug_dim":"","rhythm_ratio":1.0,"mirror":false,"chromatic_density":0.333,"complexity":0.681,"dissonance":0.113},{"voice":1,"pitch":71,"start":30.923,"duration":0.2308,"velocity":127,"measure":9,"beat":2.5,"subject_pos":-1,"motif":"","motif_pos":-1,"best_pos":5,"similarity":0.661,"stretto":false,"stretto_voices":0,"combination":[],"aug_dim":"","rhythm_ratio":1.0,"mirror":false,"chromatic_density":0.333,"complexity":0.681,"dissonance":0.113},{"voice":1,"pitch":73,"start":31.1538,"duration":0.2308,"velocity":127,"measure":9,"beat":2.75,"subject_pos":-1,"motif":"","motif_pos":-1,"best_pos":6,"similarity":0.679,"stretto":false,"stretto_voices":0,"combination":[],"aug_dim":"","rhythm_ratio":1.0,"mirror":false,"chromatic_density":0.333,"complexity":0.681,"dissonance":0.113},{"voice":2,"pitch":52,"start":31.1538,"duration":0.2308,"velocity":127,"measure":9,"beat":2.75,"subject_pos":2,"motif":"subject_inv","motif_pos":2,"best_pos":2,"similarity":1.0,"stretto":true,"stretto_voices":2,"combination":[],"aug_dim":"diminution","rhythm_ratio":0.5,"mirror":false,"chromatic_density":0.333,"complexity":0.681,"dissonance":0.113},{"voice":1,"pitch":74,"start":31.3846,"duration":1.1538,"velocity":127,"measure":9,"beat":3.0,"subject_pos":-1,"motif":"","motif_pos":-1,"best_pos":7,"similarity":0.464,"stretto":false,"stretto_voices":0,"combination":[],"aug_dim":"","rhythm_ratio":1.0,"mirror":false,"chromatic_density":0.333,"complexity":0.681,"dissonance":0.113},{"voice":2,"pitch":53,"start":31.3846,"duration":0.6923,"velocity":127,"measure":9,"beat":3.0,"subject_pos":3,"motif":"subject_inv","motif_pos":3,"best_pos":3,"similarity":1.0,"stretto":true,"stretto_voices":2,"combination":[],"aug_dim":"diminution","rhythm_ratio":0.5,"mirror":false,"chromatic_density":0.333,"complexity":0.681,"dissonance":0.113},{"voice":0,"pitch":79,"start":31.6154,"duration":0.2308,"velocity":127,"measure":9,"beat":3.25,"subject_pos":-1,"motif":"","motif_pos":-1,"best_pos":6,"similarity":0.529,"stretto":false,"stretto_voices":0,"combination":[],"aug_dim":"","rhythm_ratio":1.0,"mirror":false,"chromatic_density":0.333,"complexity":0.681,"dissonance":0.113},{"voice":0,"pitch":77,"start":31.8461,"duration":0.2308,"velocity":127,"measure":9,"beat":3.5,"subject_pos":-1,"motif":"","motif_pos":-1,"best_pos":3,"similarity":0.5,"stretto":false,"stretto_voices":0,"combination":[],"aug_dim":"","rhythm_ratio":1.0,"mirror":false,"chromatic_density":0.333,"complexity":0.681,"dissonance":0.113},{"voice":0,"pitch":76,"start":32.0769,"duration":0.2308,"velocity":127,"measure":9,"beat":3.75,"subject_pos":-1,"motif":"","motif_pos":-1,"best_pos":4,"similarity":0.482,"stretto":false,"stretto_voices":0,"combination":[],"aug_dim":"","rhythm_ratio":1.0,"mirror":false,"chromatic_density":0.333,"complexity":0.681,"dissonance":0.113},{"voice":2,"pitch":55,"start":32.0769,"duration":0.2308,"velocity":127,"measure":9,"beat":3.75,"subject_pos":4,"motif":"subject_inv","motif_pos":4,"best_pos":4,"similarity":1.0,"stretto":true,"stretto_voices":2,"combination":[],"aug_dim":"diminution","rhythm_ratio":0.5,"mirror":false,"chromatic_density":0.333,"complexity":0.681,"dissonance":0.113},{"voice":0,"pitch":74,"start":32.3077,"duration":1.1538,"velocity":127,"measure":9,"beat":4.0,"subject_pos":-1,"motif":"","motif_pos":-1,"best_pos":2,"similarity":0.436,"stretto":false,"stretto_voices":0,"combination":[],"aug_dim":"","rhythm_ratio":1.0,"mirror":false,"chromatic_density":0.333,"complexity":0.681,"dissonance":0.113},{"voice":2,"pitch":57,"start":32.3077,"duration":0.9231,"velocity":127,"measure":9,"beat":4.0,"subject_pos":5,"motif":"subject_inv","motif_pos":5,"best_pos":5,"similarity":1.0,"stretto":true,"stretto_voices":2,"combination":[],"aug_dim":"diminution","rhythm_ratio":0.5,"mirror":false,"chromatic_density":0.333,"complexity":0.681,"dissonance":0.113},{"voice":1,"pitch":72,"start":32.5384,"duration":0.2308,"velocity":127,"measure":9,"beat":4.25,"subject_pos":-1,"motif":"","motif_pos":-1,"best_pos":2,"similarity":0.593,"stretto":false,"stretto_voices":0,"combination":[],"aug_dim":"","rhythm_ratio":1.0,"mirror":false,"chromatic_density":0.333,"complexity":0.681,"dissonance":0.113},{"voice":1,"pitch":70,"start":32.7692,"duration":0.2308,"velocity":127,"measure":9,"beat":4.5,"subject_pos":-1,"motif":"","motif_pos":-1,"best_pos":3,"similarity":0.593,"stretto":false,"stretto_voices":0,"combination":[],"aug_dim":"","rhythm_ratio":1.0,"mirror":false,"chromatic_density":0.333,"complexity":0.681,"dissonance":0.113},{"voice":1,"pitch":69,"start":33.0,"duration":0.2308,"velocity":127,"measure":9,"beat":4.75,"subject_pos":-1,"motif":"","motif_pos":-1,"best_pos":4,"similarity":0.529,"stretto":false,"stretto_voices":0,"combination":[],"aug_dim":"","rhythm_ratio":1.0,"mirror":false,"chromatic_density":0.333,"complexity":0.681,"dissonance":0.113},{"voice":1,"pitch":67,"start":33.2307,"duration":1.1538,"velocity":127,"measure":10,"beat":1.0,"subject_pos":-1,"motif":"","motif_pos":-1,"best_pos":2,"similarity":0.643,"stretto":false,"stretto_voices":0,"combination":[],"aug_dim":"","rhythm_ratio":1.0,"mirror":false,"chromatic_density":0.4,"complexity":0.667,"dissonance":0.18},{"voice":2,"pitch":58,"start":33.2307,"duration":0.9231,"velocity":127,"measure":10,"beat":1.0,"subject_pos":6,"motif":"subject_inv","motif_pos":6,"best_pos":6,"similarity":1.0,"stretto":true,"stretto_voices":2,"combination":[],"aug_dim":"diminution","rhythm_ratio":0.5,"mirror":false,"chromatic_density":0.4,"complexity":0.667,"dissonance":0.18},{"voice":3,"pitch":52,"start":33.2307,"duration":2.7692,"velocity":127,"measure":10,"beat":1.0,"subject_pos":7,"motif":"subject_inv","motif_pos":7,"best_pos":7,"similarity":1.0,"stretto":true,"stretto_voices":2,"combination":[],"aug_dim":"augmentation","rhythm_ratio":2.0,"mirror":false,"chromatic_density":0.4,"complexity":0.667,"dissonance":0.18},{"voice":0,"pitch":77,"start":33.4615,"duration":0.2308,"velocity":127,"measure":10,"beat":1.25,"subject_pos":-1,"motif":"","motif_pos":-1,"best_pos":3,"similarity":0.45,"stretto":false,"stretto_voices":0,"combination":[],"aug_dim":"","rhythm_ratio":1.0,"mirror":false,"chromatic_density":0.4,"complexity":0.667,"dissonance":0.18},{"voice":0,"pitch":76,"start":33.6923,"duration":0.2308,"velocity":127,"measure":10,"beat":1.5,"subject_pos":-1,"motif":"","motif_pos":-1,"best_pos":2,"similarity":0.5,"stretto":false,"stretto_voices":0,"combination":[],"aug_dim":"","rhythm_ratio":1.0,"mirror":false,"chromatic_density":0.4,"complexity":0.667,"dissonance":0.18},{"voice":0,"pitch":74,"start":33.923,"duration":0.2308,"velocity":127,"measure":10,"beat":1.75,"subject_pos":-1,"motif":"","motif_pos":-1,"best_pos":3,"similarity":0.625,"stretto":false,"stretto_voices":0,"combination":[],"aug_dim":"","rhythm_ratio":1.0,"mirror":false,"chromatic_density":0.4,"complexity":0.667,"dissonance":0.18},{"voice":0,"pitch":73,"start":34.1538,"duration":1.1538,"velocity":127,"measure":10,"beat":2.0,"subject_pos":-1,"motif":"","motif_pos":-1,"best_pos":4,"similarity":0.643,"stretto":false,"stretto_voices":0,"combination":[],"aug_dim":"","rhythm_ratio":1.0,"mirror":false,"chromatic_density":0.4,"complexity":0.667,"dissonance":0.18},{"voice":2,"pitch":57,"start":34.1538,"duration":0.6923,"velocity":127,"measure":10,"beat":2.0,"subject_pos":7,"motif":"subject_inv","motif_pos":7,"best_pos":7,"similarity":1.0,"stretto":true,"stretto_voices":2,"combination":[],"aug_dim":"diminution","rhythm_ratio":0.5,"mirror":false,"chromatic_density":0.4,"complexity":0.667,"dissonance":0.18},{"voice":1,"pitch":64,"start":34.3846,"duration":0.2308,"velocity":127,"measure":10,"beat":2.25,"subject_pos":-1,"motif":"","motif_pos":-1,"best_pos":3,"similarity":0.643,"stretto":false,"stretto_voices":0,"combination":[],"aug_dim":"","rhythm_ratio":1.0,"mirror":false,"chromatic_density":0.4,"complexity":0.667,"dissonance":0.18},{"voice":1,"pitch":65,"start":34.6153,"duration":0.2308,"velocity":127,"measure":10,"beat":2.5,"subject_pos":-1,"motif":"","motif_pos":-1,"best_pos":5,"similarity":0.714,"stretto":false,"stretto_voices":0,"combination":[],"aug_dim":"","rhythm_ratio":1.0,"mirror":false,"chromatic_density":0.4,"complexity":0.667,"dissonance":0.18},{"voice":1,"pitch":67,"start":34.8461,"duration":0.2308,"velocity":127,"measure":10,"beat":2.75,"subject_pos":-1,"motif":"","motif_pos":-1,"best_pos":6,"similarity":0.589,"stretto":false,"stretto_voices":0,"combination":[],"aug_dim":"","rhythm_ratio":1.0,"mirror":false,"chromatic_density":0.4,"complexity":0.667,"dissonance":0.18},{"voice":2,"pitch":55,"start":34.8461,"duration":0.2308,"velocity":127,"measure":10,"beat":2.75,"subject_pos":8,"motif":"subject_inv","motif_pos":8,"best_pos":0,"similarity":1.0,"stretto":true,"stretto_voices":2,"combination":[],"aug_dim":"diminution","rhythm_ratio":0.5,"mirror":false,"chromatic_density":0.4,"complexity":0.667,"dissonance":0.18},{"voice":1,"pitch":69,"start":35.0769,"duration":1.1538,"velocity":127,"measure":10,"beat":3.0,"subject_pos":-1,"motif":"","motif_pos":-1,"best_pos":6,"similarity":0.404,"stretto":false,"stretto_voices":0,"combination":[],"aug_dim":"","rhythm_ratio":1.0,"mirror":false,"chromatic_density":0.4,"complexity":0.667,"dissonance":0.18},{"voice":2,"pitch":53,"start":35.0769,"duration":1.1538,"velocity":127,"measure":10,"beat":3.0,"subject_pos":-1,"motif":"","motif_pos":-1,"best_pos":3,"similarity":0.786,"stretto":false,"stretto_voices":0,"combination":[],"aug_dim":"","rhythm_ratio":1.0,"mirror":false,"chromatic_density":0.4,"complexity":0.667,"dissonance":0.18},{"voice":0,"pitch":73,"start":35.3077,"duration":0.2308,"velocity":127,"measure":10,"beat":3.25,"subject_pos":-1,"motif":"","motif_pos":-1,"best_pos":4,"similarity":0.75,"stretto":false,"stretto_voices":0,"combination":[],"aug_dim":"","rhythm_ratio":1.0,"mirror":false,"chromatic_density":0.4,"complexity":0.667,"dissonance":0.18},{"voice":0,"pitch":74,"start":35.5384,"duration":0.2308,"velocity":127,"measure":10,"beat":3.5,"subject_pos":-1,"motif":"","motif_pos":-1,"best_pos":5,"similarity":0.804,"stretto":false,"stretto_voices":0,"combination":[],"aug_dim":"","rhythm_ratio":1.0,"mirror":false,"chromatic_density":0.4,"complexity":0.667,"dissonance":0.18},{"voice":0,"pitch":76,"start":35.7692,"duration":0.2308,"velocity":127,"measure":10,"beat":3.75,"subject_pos":-1,"motif":"","motif_pos":-1,"best_pos":6,"similarity":0.75,"stretto":false,"stretto_voices":0,"combination":[],"aug_dim":"","rhythm_ratio":1.0,"mirror":false,"chromatic_density":0.4,"complexity":0.667,"dissonance":0.18},{"voice":0,"pitch":77,"start":36.0,"duration":1.1538,"velocity":127,"measure":10,"beat":4.0,"subject_pos":-1,"motif":"","motif_pos":-1,"best_pos":3,"similarity":0.55,"stretto":false,"stretto_voices":0,"combination":[],"aug_dim":"","rhythm_ratio":1.0,"mirror":false,"chromatic_density":0.4,"complexity":0.667,"dissonance":0.18},{"voice":3,"pitch":50,"start":36.0,"duration":0.9231,"velocity":127,"measure":10,"beat":4.0,"subject_pos":8,"motif":"subject_inv","motif_pos":8,"best_pos":0,"similarity":1.0,"stretto":false,"stretto_voices":0,"combination":[],"aug_dim":"augmentation","rhythm_ratio":2.0,"mirror":false,"chromatic_density":0.4,"complexity":0.667,"dissonance":0.18},{"voice":1,"pitch":67,"start":36.2307,"duration":0.2308,"velocity":127,"measure":10,"beat":4.25,"subject_pos":-1,"motif":"","motif_pos":-1,"best_pos":4,"similarity":0.507,"stretto":false,"stretto_voices":0,"combination":[],"aug_dim":"","rhythm_ratio":1.0,"mirror":false,"chromatic_density":0.4,"complexity":0.667,"dissonance":0.18},{"voice":2,"pitch":52,"start":36.2307,"duration":0.2308,"velocity":127,"measure":10,"beat":4.25,"subject_pos":-1,"motif":"","motif_pos":-1,"best_pos":4,"similarity":0.893,"stretto":false,"stretto_voices":0,"combination":[],"aug_dim":"","rhythm_ratio":1.0,"mirror":false,"chromatic_density":0.4,"complexity":0.667,"dissonance":0.18},{"voice":1,"pitch":69,"start":36.4615,"duration":0.2308,"velocity":127,"measure":10,"beat":4.5,"subject_pos":-1,"motif":"","motif_pos":-1,"best_pos":5,"similarity":0.643,"stretto":false,"stretto_voices":0,"combination":[],"aug_dim":"","rhythm_ratio":1.0,"mirror":false,"chromatic_density":0.4,"complexity":0.667,"dissonance":0.18},{"voice":2,"pitch":53,"start":36.4615,"duration":0.2308,"velocity":127,"measure":10,"beat":4.5,"subject_pos":-1,"motif":"","motif_pos":-1,"best_pos":5,"similarity":0.821,"stretto":false,"stretto_voices":0,"combination":[],"aug_dim":"","rhythm_ratio":1.0,"mirror":false,"chromatic_density":0.4,"complexity":0.667,"dissonance":0.18},{"voice":1,"pitch":71,"start":36.6923,"duration":0.2308,"velocity":127,"measure":10,"beat":4.75,"subject_pos":-1,"motif":"","motif_pos":-1,"best_pos":6,"similarity":0.679,"stretto":false,"stretto_voices":0,"combination":[],"aug_dim":"","rhythm_ratio":1.0,"mirror":false,"chromatic_density":0.4,"complexity":0.667,"dissonance":0.18},{"voice":2,"pitch":55,"start":36.6923,"duration":0.2308,"velocity":127,"measure":10,"beat":4.75,"subject_pos":-1,"motif":"","motif_pos":-1,"best_pos":6,"similarity":0.643,"stretto":false,"stretto_voices":0,"combination":[],"aug_dim":"","rhythm_ratio":1.0,"mirror":false,"chromatic_density":0.4,"complexity":0.667,"dissonance":0.18},{"voice":1,"pitch":72,"start":36.923,"duration":0.4615,"velocity":127,"measure":11,"beat":1.0,"subject_pos":-1,"motif":"","motif_pos":-1,"best_pos":5,"similarity":0.657,"stretto":false,"stretto_voices":0,"combination":[],"aug_dim":"","rhythm_ratio":1.0,"mirror":false,"chromatic_density":0.3,"complexity":0.663,"dissonance":0.081},{"voice":2,"pitch":57,"start":36.923,"duration":1.1538,"velocity":127,"measure":11,"beat":1.0,"subject_pos":-1,"motif":"","motif_pos":-1,"best_pos":6,"similarity":0.404,"stretto":false,"stretto_voices":0,"combination":[],"aug_dim":"","rhythm_ratio":1.0,"mirror":false,"chromatic_density":0.3,"complexity":0.663,"dissonance":0.081},{"voice":3,"pitch":48,"start":36.923,"duration":4.6154,"velocity":127,"measure":11,"beat":1.0,"subject_pos":-1,"motif":"","motif_pos":-1,"best_pos":2,"similarity":0.643,"stretto":false,"stretto_voices":0,"combination":[],"aug_dim":"","rhythm_ratio":1.0,"mirror":false,"chromatic_density":0.3,"complexity":0.663,"dissonance":0.081},{"voice":0,"pitch":76,"start":37.1538,"duration":0.2308,"velocity":127,"measure":11,"beat":1.25,"subject_pos":-1,"motif":"","motif_pos":-1,"best_pos":4,"similarity":0.771,"stretto":false,"stretto_voices":0,"combination":[],"aug_dim":"","rhythm_ratio":1.0,"mirror":false,"chromatic_density":0.3,"complexity":0.663,"dissonance":0.081},{"voice":0,"pitch":77,"start":37.3846,"duration":0.2308,"velocity":127,"measure":11,"beat":1.5,"subject_pos":-1,"motif":"","motif_pos":-1,"best_pos":5,"similarity":0.793,"stretto":false,"stretto_voices":0,"combination":[],"aug_dim":"","rhythm_ratio":1.0,"mirror":false,"chromatic_density":0.3,"complexity":0.663,"dissonance":0.081},{"voice":1,"pitch":74,"start":37.3846,"duration":0.2308,"velocity":127,"measure":11,"beat":1.5,"subject_pos":-1,"motif":"","motif_pos":-1,"best_pos":5,"similarity":0.607,"stretto":false,"stretto_voices":0,"combination":[],"aug_dim":"","rhythm_ratio":1.0,"mirror":false,"chromatic_density":0.3,"complexity":0.663,"dissonance":0.081},{"voice":0,"pitch":79,"start":37.6153,"duration":0.2308,"velocity":127,"measure":11,"beat":1.75,"subject_pos":-1,"motif":"","motif_pos":-1,"best_pos":6,"similarity":0.643,"stretto":false,"stretto_voices":0,"combination":[],"aug_dim":"","rhythm_ratio":1.0,"mirror":false,"chromatic_density":0.3,"complexity":0.663,"dissonance":0.081},{"voice":1,"pitch":76,"start":37.6153,"duration":0.2308,"velocity":127,"measure":11,"beat":1.75,"subject_pos":-1,"motif":"","motif_pos":-1,"best_pos":6,"similarity":0.661,"stretto":false,"stretto_voices":0,"combination":[],"aug_dim":"","rhythm_ratio":1.0,"mirror":false,"chromatic_density":0.3,"complexity":0.663,"dissonance":0.081},{"voice":0,"pitch":81,"start":37.8461,"duration":0.9231,"velocity":127,"measure":11,"beat":2.0,"subject_pos":-1,"motif":"","motif_pos":-1,"best_pos":6,"similarity":0.404,"stretto":false,"stretto_voices":0,"combination":[],"aug_dim":"","rhythm_ratio":1.0,"mirror":false,"chromatic_density":0.3,"complexity":0.663,"dissonance":0.081},{"voice":1,"pitch":77,"start":37.8461,"duration":1.1538,"velocity":127,"measure":11,"beat":2.0,"subject_pos":-1,"motif":"","motif_pos":-1,"best_pos":7,"similarity":0.464,"stretto":false,"stretto_voices":0,"combination":[],"aug_dim":"","rhythm_ratio":1.0,"mirror":false,"chromatic_density":0.3,"complexity":0.663,"dissonance":0.081},{"voice":2,"pitch":55,"start":38.0769,"duration":0.2308,"velocity":127,"measure":11,"beat":2.25,"subject_pos":-1,"motif":"","motif_pos":-1,"best_pos":5,"similarity":0.471,"stretto":false,"stretto_voices":0,"combination":[],"aug_dim":"","rhythm_ratio":1.0,"mirror":false,"chromatic_density":0.3,"complexity":0.663,"dissonance":0.081},{"voice":2,"pitch":57,"start":38.3077,"duration":0.2308,"velocity":127,"measure":11,"beat":2.5,"subject_pos":-1,"motif":"","motif_pos":-1,"best_pos":6,"similarity":0.593,"stretto":false,"stretto_voices":0,"combination":[],"aug_dim":"","rhythm_ratio":1.0,"mirror":false,"chromatic_density":0.3,"complexity":0.663,"dissonance":0.081},{"voice":2,"pitch":58,"start":38.5384,"duration":0.2308,"velocity":127,"measure":11,"beat":2.75,"subject_pos":-1,"motif":"","motif_pos":-1,"best_pos":5,"similarity":0.621,"stretto":false,"stretto_voices":0,"combination":[],"aug_dim":"","rhythm_ratio":1.0,"mirror":false,"chromatic_density":0.3,"complexity":0.663,"dissonance":0.081},{"voice":0,"pitch":79,"start":38.7692,"duration":1.1538,"velocity":127,"measure":11,"beat":3.0,"subject_pos":-1,"motif":"","motif_pos":-1,"best_pos":2,"similarity":0.45,"stretto":false,"stretto_voices":0,"combination":[],"aug_dim":"","rhythm_ratio":1.0,"mirror":false,"chromatic_density":0.3,"complexity":0.663,"dissonance":0.081},{"voice":2,"pitch":60,"start":38.7692,"duration":0.6923,"velocity":127,"measure":11,"beat":3.0,"subject_pos":-1,"motif":"","motif_pos":-1,"best_pos":6,"similarity":0.436,"stretto":false,"stretto_voices":0,"combination":[],"aug_dim":"","rhythm_ratio":1.0,"mirror":false,"chromatic_density":0.3,"complexity":0.663,"dissonance":0.081},{"voice":1,"pitch":77,"start":39.0,"duration":0.2308,"velocity":127,"measure":11,"beat":3.25,"subject_pos":-1,"motif":"","motif_pos":-1,"best_pos":2,"similarity":0.443,"stretto":false,"stretto_voices":0,"combination":[],"aug_dim":"","rhythm_ratio":1.0,"mirror":false,"chromatic_density":0.3,"complexity":0.663,"dissonance":0.081},{"voice":1,"pitch":75,"start":39.2307,"duration":0.2308,"velocity":127,"measure":11,"beat":3.5,"subject_pos":-1,"motif":"","motif_pos":-1,"best_pos":3,"similarity":0.621,"stretto":false,"stretto_voices":0,"combination":[],"aug_dim":"","rhythm_ratio":1.0,"mirror":false,"chromatic_density":0.3,"complexity":0.663,"dissonance":0.081},{"voice":1,"pitch":74,"start":39.4615,"duration":0.2308,"velocity":127,"measure":11,"beat":3.75,"subject_pos":-1,"motif":"","motif_pos":-1,"best_pos":4,"similarity":0.682,"stretto":false,"stretto_voices":0,"combination":[],"aug_dim":"","rhythm_ratio":1.0,"mirror":false,"chromatic_density":0.3,"complexity":0.663,"dissonance":0.081},{"voice":2,"pitch":55,"start":39.4615,"duration":0.2308,"velocity":127,"measure":11,"beat":3.75,"subject_pos":-1,"motif":"","motif_pos":-1,"best_pos":0,"similarity":0.446,"stretto":false,"stretto_voices":0,"combination":[],"aug_dim":"","rhythm_ratio":1.0,"mirror":false,"chromatic_density":0.3,"complexity":0.663,"dissonance":0.081},{"voice":1,"pitch":75,"start":39.6923,"duration":1.1538,"velocity":127,"measure":11,"beat":4.0,"subject_pos":-1,"motif":"","motif_pos":-1,"best_pos":5,"similarity":0.507,"stretto":false,"stretto_voices":0,"combination":[],"aug_dim":"","rhythm_ratio":1.0,"mirror":false,"chromatic_density":0.3,"complexity":0.663,"dissonance":0.081},{"voice":2,"pitch":60,"start":39.6923,"duration":0.6923,"velocity":127,"measure":11,"beat":4.0,"subject_pos":-1,"motif":"","motif_pos":-1,"best_pos":1,"similarity":0.607,"stretto":false,"stretto_voices":0,"combination":[],"aug_dim":"","rhythm_ratio":1.0,"mirror":false,"chromatic_density":0.3,"complexity":0.663,"dissonance":0.081},{"voice":0,"pitch":82,"start":39.923,"duration":0.2308,"velocity":127,"measure":11,"beat":4.25,"subject_pos":-1,"motif":"","motif_pos":-1,"best_pos":3,"similarity":0.457,"stretto":false,"stretto_voices":0,"combination":[],"aug_dim":"","rhythm_ratio":1.0,"mirror":false,"chromatic_density":0.3,"complexity":0.663,"dissonance":0.081},{"voice":0,"pitch":81,"start":40.1538,"duration":0.2308,"velocity":127,"measure":11,"beat":4.5,"subject_pos":-1,"motif":"","motif_pos":-1,"best_pos":2,"similarity":0.5,"stretto":false,"stretto_voices":0,"combination":[],"aug_dim":"","rhythm_ratio":1.0,"mirror":false,"chromatic_density":0.3,"complexity":0.663,"dissonance":0.081},{"voice":0,"pitch":79,"start":40.3846,"duration":0.2308,"velocity":127,"measure":11,"beat":4.75,"subject_pos":-1,"motif":"","motif_pos":-1,"best_pos":3,"similarity":0.625,"stretto":false,"stretto_voices":0,"combination":[],"aug_dim":"","rhythm_ratio":1.0,"mirror":false,"chromatic_density":0.3,"complexity":0.663,"dissonance":0.081},{"voice":2,"pitch":58,"start":40.3846,"duration":0.2308,"velocity":127,"measure":11,"beat":4.75,"subject_pos":-1,"motif":"","motif_pos":-1,"best_pos":2,"similarity":0.536,"stretto":false,"stretto_voices":0,"combination":[],"aug_dim":"","rhythm_ratio":1.0,"mirror":false,"chromatic_density":0.3,"complexity":0.663,"dissonance":0.081},{"voice":0,"pitch":78,"start":40.6153,"duration":1.1538,"velocity":127,"measure":12,"beat":1.0,"subject_pos":-1,"motif":"","motif_pos":-1,"best_pos":4,"similarity":0.643,"stretto":false,"stretto_voices":0,"combination":[],"aug_dim":"","rhythm_ratio":1.0,"mirror":false,"chromatic_density":0.35,"complexity":0.697,"dissonance":0.14},{"voice":2,"pitch":57,"start":40.6153,"duration":1.1538,"velocity":127,"measure":12,"beat":1.0,"subject_pos":-1,"motif":"head_inv","motif_pos":0,"best_pos":0,"similarity":1.0,"stretto":false,"stretto_voices":0,"combination":[],"aug_dim":"","rhythm_ratio":1.0,"mirror":false,"chromatic_density":0.35,"complexity":0.697,"dissonance":0.14},{"voice":1,"pitch":74,"start":40.8461,"duration":0.2308,"velocity":127,"measure":12,"beat":1.25,"subject_pos":-1,"motif":"","motif_pos":-1,"best_pos":4,"similarity":0.414,"stretto":false,"stretto_voices":0,"combination":[],"aug_dim":"","rhythm_ratio":1.0,"mirror":false,"chromatic_density":0.35,"complexity":0.697,"dissonance":0.14},{"voice":1,"pitch":72,"start":41.0769,"duration":0.2308,"velocity":127,"measure":12,"beat":1.5,"subject_pos":-1,"motif":"","motif_pos":-1,"best_pos":2,"similarity":0.479,"stretto":false,"stretto_voices":0,"combination":[],"aug_dim":"","rhythm_ratio":1.0,"mirror":false,"chromatic_density":0.35,"complexity":0.697,"dissonance":0.14},{"voice":1,"pitch":70,"start":41.3077,"duration":0.2308,"velocity":127,"measure":12,"beat":1.75,"subject_pos":-1,"motif":"","motif_pos":-1,"best_pos":5,"similarity":0.475,"stretto":false,"stretto_voices":0,"combination":[],"aug_dim":"","rhythm_ratio":1.0,"mirror":false,"chromatic_density":0.35,"complexity":0.697,"dissonance":0.14},{"voice":1,"pitch":72,"start":41.5384,"duration":1.1538,"velocity":127,"measure":12,"beat":2.0,"subject_pos":-1,"motif":"","motif_pos":-1,"best_pos":6,"similarity":0.479,"stretto":false,"stretto_voices":0,"combination":[],"aug_dim":"","rhythm_ratio":1.0,"mirror":false,"chromatic_density":0.35,"complexity":0.697,"dissonance":0.14},{"voice":3,"pitch":45,"start":41.5384,"duration":0.9231,"velocity":127,"measure":12,"beat":2.0,"subject_pos":-1,"motif":"","motif_pos":-1,"best_pos":4,"similarity":0.679,"stretto":false,"stretto_voices":0,"combination":[],"aug_dim":"","rhythm_ratio":1.0,"mirror":false,"chromatic_density":0.35,"complexity":0.697,"dissonance":0.14},{"voice":0,"pitch":78,"start":41.7692,"duration":0.2308,"velocity":127,"measure":12,"beat":2.25,"subject_pos":-1,"motif":"","motif_pos":-1,"best_pos":4,"similarity":0.679,"stretto":false,"stretto_voices":0,"combination":[],"aug_dim":"","rhythm_ratio":1.0,"mirror":false,"chromatic_density":0.35,"complexity":0.697,"dissonance":0.14},{"voice":2,"pitch":50,"start":41.7692,"duration":0.2308,"velocity":127,"measure":12,"beat":2.25,"subject_pos":-1,"motif":"head_inv","motif_pos":1,"best_pos":1,"similarity":1.0,"stretto":false,"stretto_voices":0,"combination":[],"aug_dim":"","rhythm_ratio":1.0,"mirror":false,"chromatic_density":0.35,"complexity":0.697,"dissonance":0.14},{"voice":0,"pitch":79,"start":42.0,"duration":0.2308,"velocity":127,"measure":12,"beat":2.5,"subject_pos":-1,"motif":"","motif_pos":-1,"best_pos":5,"similarity":0.661,"stretto":false,"stretto_voices":0,"combination":[],"aug_dim":"","rhythm_ratio":1.0,"mirror":false,"chromatic_density":0.35,"complexity":0.697,"dissonance":0.14},{"voice":2,"pitch":52,"start":42.0,"duration":0.2308,"velocity":127,"measure":12,"beat":2.5,"subject_pos":-1,"motif":"head_inv","motif_pos":2,"best_pos":2,"similarity":1.0,"stretto":false,"stretto_voices":0,"combination":[],"aug_dim":"","rhythm_ratio":1.0,"mirror":false,"chromatic_density":0.35,"complexity":0.697,"dissonance":0.14},{"voice":0,"pitch":81,"start":42.2307,"duration":0.2308,"velocity":127,"measure":12,"beat":2.75,"subject_pos":-1,"motif":"","motif_pos":-1,"best_pos":6,"similarity":0.464,"stretto":false,"stretto_voices":0,"combination":[],"aug_dim":"","rhythm_ratio":1.0,"mirror":false,"chromatic_density":0.35,"complexity":0.697,"dissonance":0.14},{"voice":2,"pitch":54,"start":42.2307,"duration":0.2308,"velocity":127,"measure":12,"beat":2.75,"subject_pos":-1,"motif":"head_inv","motif_pos":3,"best_pos":3,"similarity":1.0,"stretto":false,"stretto_voices":0,"combination":[],"aug_dim":"","rhythm_ratio":1.0,"mirror":false,"chromatic_density":0.35,"complexity":0.697,"dissonance":0.14},{"voice":0,"pitch":74,"start":42.4615,"duration":0.9231,"velocity":127,"measure":12,"beat":3.0,"subject_pos":-1,"motif":"","motif_pos":-1,"best_pos":6,"similarity":0.375,"stretto":false,"stretto_voices":0,"combination":[],"aug_dim":"","rhythm_ratio":1.0,"mirror":false,"chromatic_density":0.35,"complexity":0.697,"dissonance":0.14},{"voice":2,"pitch":55,"start":42.4615,"duration":1.1538,"velocity":127,"measure":12,"beat":3.0,"subject_pos":-1,"motif":"tail","motif_pos":3,"best_pos":3,"similarity":1.0,"stretto":false,"stretto_voices":0,"combination":[],"aug_dim":"","rhythm_ratio":1.0,"mirror":false,"chromatic_density":0.35,"complexity":0.697,"dissonance":0.14},{"voice":3,"pitch":46,"start":42.4615,"duration":0.9231,"velocity":127,"measure":12,"beat":3.0,"subject_pos":-1,"motif":"","motif_pos":-1,"best_pos":5,"similarity":0.714,"stretto":false,"stretto_voices":0,"combination":[],"aug_dim":"","rhythm_ratio":1.0,"mirror":false,"chromatic_density":0.35,"complexity":0.697,"dissonance":0.14},{"voice":1,"pitch":72,"start":42.6923,"duration":0.2308,"velocity":127,"measure":12,"beat":3.25,"subject_pos":-1,"motif":"","motif_pos":-1,"best_pos":2,"similarity":0.379,"stretto":false,"stretto_voices":0,"combination":[],"aug_dim":"","rhythm_ratio":1.0,"mirror":false,"chromatic_density":0.35,"complexity":0.697,"dissonance":0.14},{"voice":1,"pitch":70,"start":42.923,"duration":0.2308,"velocity":127,"measure":12,"beat":3.5,"subject_pos":-1,"motif":"","motif_pos":-1,"best_pos":3,"similarity":0.493,"stretto":false,"stretto_voices":0,"combination":[],"aug_dim":"","rhythm_ratio":1.0,"mirror":false,"chromatic_density":0.35,"complexity":0.697,"dissonance":0.14},{"voice":1,"pitch":69,"start":43.1538,"duration":0.2308,"velocity":127,"measure":12,"beat":3.75,"subject_pos":-1,"motif":"","motif_pos":-1,"best_pos":4,"similarity":0.418,"stretto":false,"stretto_voices":0,"combination":[],"aug_dim":"","rhythm_ratio":1.0,"mirror":false,"chromatic_density":0.35,"complexity":0.697,"dissonance":0.14},{"voice":0,"pitch":75,"start":43.3846,"duration":0.9231,"velocity":127,"measure":12,"beat":4.0,"subject_pos":-1,"motif":"","motif_pos":-1,"best_pos":3,"similarity":0.343,"stretto":false,"stretto_voices":0,"combination":[],"aug_dim":"","rhythm_ratio":1.0,"mirror":false,"chromatic_density":0.35,"complexity":0.697,"dissonance":0.14},{"voice":1,"pitch":67,"start":43.3846,"duration":0.4615,"velocity":127,"measure":12,"beat":4.0,"subject_pos":-1,"motif":"","motif_pos":-1,"best_pos":0,"similarity":0.357,"stretto":false,"stretto_voices":0,"combination":[],"aug_dim":"","rhythm_ratio":1.0,"mirror":false,"chromatic_density":0.35,"complexity":0.697,"dissonance":0.14},{"voice":3,"pitch":48,"start":43.3846,"duration":0.9231,"velocity":127,"measure":12,"beat":4.0,"subject_pos":-1,"motif":"","motif_pos":-1,"best_pos":6,"similarity":0.589,"stretto":false,"stretto_voices":0,"combination":[],"aug_dim":"","rhythm_ratio":1.0,"mirror":false,"chromatic_density":0.35,"complexity":0.697,"dissonance":0.14},{"voice":2,"pitch":54,"start":43.6153,"duration":0.2308,"velocity":127,"measure":12,"beat":4.25,"subject_pos":-1,"motif":"tail","motif_pos":4,"best_pos":4,"similarity":1.0,"stretto":false,"stretto_voices":0,"combination":[],"aug_dim":"","rhythm_ratio":1.0,"mirror":false,"chromatic_density":0.35,"complexity":0.697,"dissonance":0.14},{"voice":1,"pitch":72,"start":43.8461,"duration":0.4615,"velocity":127,"measure":12,"beat":4.5,"subject_pos":-1,"motif":"","motif_pos":-1,"best_pos":1,"similarity":0.436,"stretto":false,"stretto_voices":0,"combination":[],"aug_dim":"","rhythm_ratio":1.0,"mirror":false,"chromatic_density":0.35,"complexity":0.697,"dissonance":0.14},{"voice":2,"pitch":55,"start":43.8461,"duration":0.2308,"velocity":127,"measure":12,"beat":4.5,"subject_pos":-1,"motif":"tail","motif_pos":5,"best_pos":5,"similarity":1.0,"stretto":false,"stretto_voices":0,"combination":[],"aug_dim":"","rhythm_ratio":1.0,"mirror":false,"chromatic_density":0.35,"complexity":0.697,"dissonance":0.14},{"voice":2,"pitch":57,"start":44.0769,"duration":0.2308,"velocity":127,"measure":12,"beat":4.75,"subject_pos":-1,"motif":"tail","motif_pos":6,"best_pos":6,"similarity":1.0,"stretto":false,"stretto_voices":0,"combination":[],"aug_dim":"","rhythm_ratio":1.0,"mirror":false,"chromatic_density":0.35,"complexity":0.697,"dissonance":0.14},{"voice":0,"pitch":74,"start":44.3076,"duration":0.9231,"velocity":127,"measure":13,"beat":1.0,"subject_pos":-1,"motif":"","motif_pos":-1,"best_pos":4,"similarity":0.329,"stretto":false,"stretto_voices":0,"combination":[],"aug_dim":"","rhythm_ratio":1.0,"mirror":false,"chromatic_density":0.294,"complexity":0.642,"dissonance":0.068},{"voice":1,"pitch":66,"start":44.3076,"duration":0.2308,"velocity":127,"measure":13,"beat":1.0,"subject_pos":-1,"motif":"","motif_pos":-1,"best_pos":2,"similarity":0.407,"stretto":false,"stretto_voices":0,"combination":[],"aug_dim":"","rhythm_ratio":1.0,"mirror":false,"chromatic_density":0.294,"complexity":0.642,"dissonance":0.068},{"voice":2,"pitch":58,"start":44.3076,"duration":1.1538,"velocity":127,"measure":13,"beat":1.0,"subject_pos":-1,"motif":"tail","motif_pos":7,"best_pos":7,"similarity":1.0,"stretto":false,"stretto_voices":0,"combination":[],"aug_dim":"","rhythm_ratio":1.0,"mirror":false,"chromatic_density":0.294,"complexity":0.642,"dissonance":0.068},{"voice":3,"pitch":50,"start":44.3076,"duration":1.8462,"velocity":127,"measure":13,"beat":1.0,"subject_pos":-1,"motif":"head_inv","motif_pos":0,"best_pos":0,"similarity":1.0,"stretto":false,"stretto_voices":0,"combination":[],"aug_dim":"","rhythm_ratio":1.0,"mirror":false,"chromatic_density":0.294,"complexity":0.642,"dissonance":0.068},{"voice":1,"pitch":62,"start":44.5384,"duration":0.2308,"velocity":127,"measure":13,"beat":1.25,"subject_pos":-1,"motif":"","motif_pos":-1,"best_pos":4,"similarity":0.4,"stretto":false,"stretto_voices":0,"combination":[],"aug_dim":"","rhythm_ratio":1.0,"mirror":false,"chromatic_density":0.294,"complexity":0.642,"dissonance":0.068},{"voice":1,"pitch":64,"start":44.7692,"duration":0.2308,"velocity":127,"measure":13,"beat":1.5,"subject_pos":-1,"motif":"","motif_pos":-1,"best_pos":5,"similarity":0.593,"stretto":false,"stretto_voices":0,"combination":[],"aug_dim":"","rhythm_ratio":1.0,"mirror":false,"chromatic_density":0.294,"complexity":0.642,"dissonance":0.068},{"voice":1,"pitch":66,"start":45.0,"duration":0.2308,"velocity":127,"measure":13,"beat":1.75,"subject_pos":-1,"motif":"","motif_pos":-1,"best_pos":6,"similarity":0.65,"stretto":false,"stretto_voices":0,"combination":[],"aug_dim":"","rhythm_ratio":1.0,"mirror":false,"chromatic_density":0.294,"complexity":0.642,"dissonance":0.068},{"voice":1,"pitch":67,"start":45.2307,"duration":1.1538,"velocity":127,"measure":13,"beat":2.0,"subject_pos":-1,"motif":"","motif_pos":-1,"best_pos":7,"similarity":0.464,"stretto":false,"stretto_voices":0,"combination":[],"aug_dim":"","rhythm_ratio":1.0,"mirror":false,"chromatic_density":0.294,"complexity":0.642,"dissonance":0.068},{"voice":2,"pitch":57,"start":45.4615,"duration":0.2308,"velocity":127,"measure":13,"beat":2.25,"subject_pos":-1,"motif":"","motif_pos":-1,"best_pos":4,"similarity":0.771,"stretto":false,"stretto_voices":0,"combination":[],"aug_dim":"","rhythm_ratio":1.0,"mirror":false,"chromatic_density":0.294,"complexity":0.642,"dissonance":0.068},{"voice":2,"pitch":58,"start":45.6923,"duration":0.2308,"velocity":127,"measure":13,"beat":2.5,"subject_pos":-1,"motif":"","motif_pos":-1,"best_pos":5,"similarity":0.793,"stretto":false,"stretto_voices":0,"combination":[],"aug_dim":"","rhythm_ratio":1.0,"mirror":false,"chromatic_density":0.294,"complexity":0.642,"dissonance":0.068},{"voice":2,"pitch":60,"start":45.923,"duration":0.2308,"velocity":127,"measure":13,"beat":2.75,"subject_pos":-1,"motif":"","motif_pos":-1,"best_pos":6,"similarity":0.643,"stretto":false,"stretto_voices":0,"combination":[],"aug_dim":"","rhythm_ratio":1.0,"mirror":false,"chromatic_density":0.294,"complexity":0.642,"dissonance":0.068},{"voice":0,"pitch":69,"start":46.1538,"duration":0.9231,"velocity":127,"measure":13,"beat":3.0,"subject_pos":-1,"motif":"","motif_pos":-1,"best_pos":0,"similarity":0.464,"stretto":false,"stretto_voices":0,"combination":[],"aug_dim":"","rhythm_ratio":1.0,"mirror":false,"chromatic_density":0.294,"complexity":0.642,"dissonance":0.068},{"voice":2,"pitch":62,"start":46.1538,"duration":1.1538,"velocity":127,"measure":13,"beat":3.0,"subject_pos":-1,"motif":"","motif_pos":-1,"best_pos":1,"similarity":0.457,"stretto":false,"stretto_voices":0,"combination":[],"aug_dim":"","rhythm_ratio":1.0,"mirror":false,"chromatic_density":0.294,"complexity":0.642,"dissonance":0.068},{"voice":1,"pitch":67,"start":46.3846,"duration":0.2308,"velocity":127,"measure":13,"beat":3.25,"subject_pos":-1,"motif":"","motif_pos":-1,"best_pos":3,"similarity":0.421,"stretto":false,"stretto_voices":0,"combination":[],"aug_dim":"","rhythm_ratio":1.0,"mirror":false,"chromatic_density":0.294,"complexity":0.642,"dissonance":0.068},{"voice":1,"pitch":66,"start":46.6153,"duration":0.2308,"velocity":127,"measure":13,"beat":3.5,"subject_pos":-1,"motif":"","motif_pos":-1,"best_pos":4,"similarity":0.55,"stretto":false,"stretto_voices":0,"combination":[],"aug_dim":"","rhythm_ratio":1.0,"mirror":false,"chromatic_density":0.294,"complexity":0.642,"dissonance":0.068},{"voice":1,"pitch":64,"start":46.8461,"duration":0.2308,"velocity":127,"measure":13,"beat":3.75,"subject_pos":-1,"motif":"","motif_pos":-1,"best_pos":5,"similarity":0.607,"stretto":false,"stretto_voices":0,"combination":[],"aug_dim":"","rhythm_ratio":1.0,"mirror":false,"chromatic_density":0.294,"complexity":0.642,"dissonance":0.068},{"voice":0,"pitch":74,"start":47.0769,"duration":0.6923,"velocity":127,"measure":13,"beat":4.0,"subject_pos":-1,"motif":"","motif_pos":-1,"best_pos":1,"similarity":0.714,"stretto":false,"stretto_voices":0,"combination":[],"aug_dim":"","rhythm_ratio":1.0,"mirror":false,"chromatic_density":0.294,"complexity":0.642,"dissonance":0.068},{"voice":1,"pitch":66,"start":47.0769,"duration":0.9231,"velocity":127,"measure":13,"beat":4.0,"subject_pos":-1,"motif":"","motif_pos":-1,"best_pos":6,"similarity":0.657,"stretto":false,"stretto_voices":0,"combination":[],"aug_dim":"","rhythm_ratio":1.0,"mirror":false,"chromatic_density":0.294,"complexity":0.642,"dissonance":0.068},{"voice":2,"pitch":60,"start":47.3076,"duration":0.2308,"velocity":127,"measure":13,"beat":4.25,"subject_pos":-1,"motif":"","motif_pos":-1,"best_pos":2,"similarity":0.593,"stretto":false,"stretto_voices":0,"combination":[],"aug_dim":"","rhythm_ratio":1.0,"mirror":false,"chromatic_density":0.294,"complexity":0.642,"dissonance":0.068},{"voice":2,"pitch":58,"start":47.5384,"duration":0.2308,"velocity":127,"measure":13,"beat":4.5,"subject_pos":-1,"motif":"","motif_pos":-1,"best_pos":3,"similarity":0.611,"stretto":false,"stretto_voices":0,"combination":[],"aug_dim":"","rhythm_ratio":1.0,"mirror":false,"chromatic_density":0.294,"complexity":0.642,"dissonance":0.068},{"voice":0,"pitch":72,"start":47.7692,"duration":0.2308,"velocity":127,"measure":13,"beat":4.75,"subject_pos":-1,"motif":"","motif_pos":-1,"best_pos":2,"similarity":0.721,"stretto":false,"stretto_voices":0,"combination":[],"aug_dim":"","rhythm_ratio":1.0,"mirror":false,"chromatic_density":0.294,"complexity":0.642,"dissonance":0.068},{"voice":2,"pitch":57,"start":47.7692,"duration":0.2308,"velocity":127,"measure":13,"beat":4.75,"subject_pos":-1,"motif":"","motif_pos":-1,"best_pos":4,"similarity":0.529,"stretto":false,"stretto_voices":0,"combination":[],"aug_dim":"","rhythm_ratio":1.0,"mirror":false,"chromatic_density":0.294,"complexity":0.642,"dissonance":0.068},{"voice":0,"pitch":70,"start":48.0,"duration":0.6923,"velocity":127,"measure":14,"beat":1.0,"subject_pos":-1,"motif":"","motif_pos":-1,"best_pos":3,"similarity":0.664,"stretto":false,"stretto_voices":0,"combination":[],"aug_dim":"","rhythm_ratio":1.0,"mirror":false,"chromatic_density":0.429,"complexity":0.731,"dissonance":0.144},{"voice":1,"pitch":67,"start":48.0,"duration":0.6923,"velocity":127,"measure":14,"beat":1.0,"subject_pos":-1,"motif":"","motif_pos":-1,"best_pos":1,"similarity":0.457,"stretto":false,"stretto_voices":0,"combination":[],"aug_dim":"","rhythm_ratio":1.0,"mirror":false,"chromatic_density":0.429,"complexity":0.731,"dissonance":0.144},{"voice":2,"pitch":55,"start":48.0,"duration":1.1538,"velocity":127,"measure":14,"beat":1.0,"subject_pos":-1,"motif":"","motif_pos":-1,"best_pos":4,"similarity":0.607,"stretto":false,"stretto_voices":0,"combination":[],"aug_dim":"","rhythm_ratio":1.0,"mirror":false,"chromatic_density":0.429,"complexity":0.731,"dissonance":0.144},{"voice":3,"pitch":43,"start":48.2307,"duration":0.2308,"velocity":127,"measure":14,"beat":1.25,"subject_pos":-1,"motif":"head_inv","motif_pos":1,"best_pos":1,"similarity":1.0,"stretto":false,"stretto_voices":0,"combination":[],"aug_dim":"","rhythm_ratio":1.0,"mirror":false,"chromatic_density":0.429,"complexity":0.731,"dissonance":0.144},{"voice":3,"pitch":45,"start":48.4615,"duration":0.2308,"velocity":127,"measure":14,"beat":1.5,"subject_pos":-1,"motif":"head_inv","motif_pos":2,"best_pos":2,"similarity":1.0,"stretto":false,"stretto_voices":0,"combination":[],"aug_dim":"","rhythm_ratio":1.0,"mirror":false,"chromatic_density":0.429,"complexity":0.731,"dissonance":0.144},{"voice":0,"pitch":69,"start":48.6923,"duration":0.2308,"velocity":127,"measure":14,"beat":1.75,"subject_pos":-1,"motif":"","motif_pos":-1,"best_pos":4,"similarity":0.543,"stretto":false,"stretto_voices":0,"combination":[],"aug_dim":"","rhythm_ratio":1.0,"mirror":false,"chromatic_density":0.429,"complexity":0.731,"dissonance":0.144},{"voice":1,"pitch":65,"start":48.6923,"duration":0.2308,"velocity":127,"measure":14,"beat":1.75,"subject_pos":-1,"motif":"","motif_pos":-1,"best_pos":2,"similarity":0.586,"stretto":false,"stretto_voices":0,"combination":[],"aug_dim":"","rhythm_ratio":1.0,"mirror":false,"chromatic_density":0.429,"complexity":0.731,"dissonance":0.144},{"voice":3,"pitch":46,"start":48.6923,"duration":0.2308,"velocity":127,"measure":14,"beat":1.75,"subject_pos":-1,"motif":"head_inv","motif_pos":3,"best_pos":3,"similarity":1.0,"stretto":false,"stretto_voices":0,"combination":[],"aug_dim":"","rhythm_ratio":1.0,"mirror":false,"chromatic_density":0.429,"complexity":0.731,"dissonance":0.144},{"voice":0,"pitch":67,"start":48.923,"duration":0.9231,"velocity":127,"measure":14,"beat":2.0,"subject_pos":-1,"motif":"tail","motif_pos":3,"best_pos":3,"similarity":1.0,"stretto":false,"stretto_voices":0,"combination":[],"aug_dim":"","rhythm_ratio":1.0,"mirror":false,"chromatic_density":0.429,"complexity":0.731,"dissonance":0.144},{"voice":1,"pitch":63,"start":48.923,"duration":0.9231,"velocity":127,"measure":14,"beat":2.0,"subject_pos":-1,"motif":"","motif_pos":-1,"best_pos":3,"similarity":0.65,"stretto":false,"stretto_voices":0,"combination":[],"aug_dim":"","rhythm_ratio":1.0,"mirror":false,"chromatic_density":0.429,"complexity":0.731,"dissonance":0.144},{"voice":3,"pitch":48,"start":48.923,"duration":1.1538,"velocity":127,"measure":14,"beat":2.0,"subject_pos":-1,"motif":"head_inv","motif_pos":4,"best_pos":4,"similarity":1.0,"stretto":false,"stretto_voices":0,"combination":[],"aug_dim":"","rhythm_ratio":1.0,"mirror":false,"chromatic_density":0.429,"complexity":0.731,"dissonance":0.144},{"voice":2,"pitch":55,"start":49.1538,"duration":0.2308,"velocity":127,"measure":14,"beat":2.25,"subject_pos":-1,"motif":"","motif_pos":-1,"best_pos":5,"similarity":0.661,"stretto":false,"stretto_voices":0,"combination":[],"aug_dim":"","rhythm_ratio":1.0,"mirror":false,"chromatic_density":0.429,"complexity":0.731,"dissonance":0.144},{"voice":2,"pitch":57,"start":49.3846,"duration":0.2308,"velocity":127,"measure":14,"beat":2.5,"subject_pos":-1,"motif":"","motif_pos":-1,"best_pos":6,"similarity":0.679,"stretto":false,"stretto_voices":0,"combination":[],"aug_dim":"","rhythm_ratio":1.0,"mirror":false,"chromatic_density":0.429,"complexity":0.731,"dissonance":0.144},{"voice":2,"pitch":58,"start":49.6153,"duration":0.2308,"velocity":127,"measure":14,"beat":2.75,"subject_pos":-1,"motif":"","motif_pos":-1,"best_pos":5,"similarity":0.479,"stretto":false,"stretto_voices":0,"combination":[],"aug_dim":"","rhythm_ratio":1.0,"mirror":false,"chromatic_density":0.429,"complexity":0.731,"dissonance":0.144},{"voice":0,"pitch":66,"start":49.8461,"duration":0.9231,"velocity":127,"measure":14,"beat":3.0,"subject_pos":-1,"motif":"tail","motif_pos":4,"best_pos":4,"similarity":1.0,"stretto":false,"stretto_voices":0,"combination":[],"aug_dim":"","rhythm_ratio":1.0,"mirror":false,"chromatic_density":0.429,"complexity":0.731,"dissonance":0.144},{"voice":1,"pitch":62,"start":49.8461,"duration":1.8462,"velocity":127,"measure":14,"beat":3.0,"subject_pos":0,"motif":"subject_inv","motif_pos":0,"best_pos":0,"similarity":1.0,"stretto":false,"stretto_voices":0,"combination":[],"aug_dim":"","rhythm_ratio":0.83,"mirror":false,"chromatic_density":0.429,"complexity":0.731,"dissonance":0.144},{"voice":2,"pitch":57,"start":49.8461,"duration":0.9231,"velocity":127,"measure":14,"beat":3.0,"subject_pos":-1,"motif":"","motif_pos":-1,"best_pos":4,"similarity":0.6,"stretto":false,"stretto_voices":0,"combination":[],"aug_dim":"","rhythm_ratio":1.0,"mirror":false,"chromatic_density":0.429,"complexity":0.731,"dissonance":0.144},{"voice":3,"pitch":45,"start":50.0769,"duration":0.2308,"velocity":127,"measure":14,"beat":3.25,"subject_pos":-1,"motif":"","motif_pos":-1,"best_pos":0,"similarity":0.464,"stretto":false,"stretto_voices":0,"combination":[],"aug_dim":"","rhythm_ratio":1.0,"mirror":false,"chromatic_density":0.429,"complexity":0.731,"dissonance":0.144},{"voice":3,"pitch":50,"start":50.3076,"duration":0.2308,"velocity":127,"measure":14,"beat":3.5,"subject_pos":-1,"motif":"","motif_pos":-1,"best_pos":1,"similarity":0.714,"stretto":false,"stretto_voices":0,"combination":[],"aug_dim":"","rhythm_ratio":1.0,"mirror":false,"chromatic_density":0.429,"complexity":0.731,"dissonance":0.144},{"voice":3,"pitch":48,"start":50.5384,"duration":0.2308,"velocity":127,"measure":14,"beat":3.75,"subject_pos":-1,"motif":"","motif_pos":-1,"best_pos":2,"similarity":0.721,"stretto":false,"stretto_voices":0,"combination":[],"aug_dim":"","rhythm_ratio":1.0,"mirror":false,"chromatic_density":0.429,"complexity":0.731,"dissonance":0.144},{"voice":0,"pitch":67,"start":50.7692,"duration":0.6923,"velocity":127,"measure":14,"beat":4.0,"subject_pos":-1,"motif":"tail","motif_pos":5,"best_pos":5,"similarity":1.0,"stretto":false,"stretto_voices":0,"combination":[],"aug_dim":"","rhythm_ratio":1.0,"mirror":false,"chromatic_density":0.429,"complexity":0.731,"dissonance":0.144},{"voice":3,"pitch":46,"start":50.7692,"duration":0.2308,"velocity":127,"measure":14,"beat":4.0,"subject_pos":-1,"motif":"","motif_pos":-1,"best_pos":3,"similarity":0.664,"stretto":false,"stretto_voices":0,"combination":[],"aug_dim":"","rhythm_ratio":1.0,"mirror":false,"chromatic_density":0.429,"complexity":0.731,"dissonance":0.144},{"voice":3,"pitch":45,"start":50.9999,"duration":0.2308,"velocity":127,"measure":14,"beat":4.25,"subject_pos":-1,"motif":"","motif_pos":-1,"best_pos":4,"similarity":0.543,"stretto":false,"stretto_voices":0,"combination":[],"aug_dim":"","rhythm_ratio":1.0,"mirror":false,"chromatic_density":0.429,"complexity":0.731,"dissonance":0.144},{"voice":3,"pitch":43,"start":51.2307,"duration":0.2308,"velocity":127,"measure":14,"beat":4.5,"subject_pos":-1,"motif":"","motif_pos":-1,"best_pos":3,"similarity":0.679,"stretto":false,"stretto_voices":0,"combination":[],"aug_dim":"","rhythm_ratio":1.0,"mirror":false,"chromatic_density":0.429,"complexity":0.731,"dissonance":0.144},{"voice":0,"pitch":69,"start":51.4615,"duration":0.2308,"velocity":127,"measure":14,"beat":4.75,"subject_pos":-1,"motif":"tail","motif_pos":6,"best_pos":6,"similarity":1.0,"stretto":false,"stretto_voices":0,"combination":[],"aug_dim":"","rhythm_ratio":1.0,"mirror":false,"chromatic_density":0.429,"complexity":0.731,"dissonance":0.144},{"voice":3,"pitch":42,"start":51.4615,"duration":0.2308,"velocity":127,"measure":14,"beat":4.75,"subject_pos":-1,"motif":"","motif_pos":-1,"best_pos":4,"similarity":0.786,"stretto":false,"stretto_voices":0,"combination":[],"aug_dim":"","rhythm_ratio":1.0,"mirror":false,"chromatic_density":0.429,"complexity":0.731,"dissonance":0.144},{"voice":0,"pitch":70,"start":51.6923,"duration":1.1538,"velocity":127,"measure":15,"beat":1.0,"subject_pos":-1,"motif":"tail","motif_pos":7,"best_pos":7,"similarity":1.0,"stretto":false,"stretto_voices":0,"combination":[],"aug_dim":"","rhythm_ratio":1.0,"mirror":false,"chromatic_density":0.35,"complexity":0.636,"dissonance":0.127},{"voice":1,"pitch":55,"start":51.6923,"duration":1.3846,"velocity":127,"measure":15,"beat":1.0,"subject_pos":1,"motif":"subject_inv","motif_pos":1,"best_pos":1,"similarity":1.0,"stretto":false,"stretto_voices":0,"combination":[],"aug_dim":"","rhythm_ratio":0.83,"mirror":false,"chromatic_density":0.35,"complexity":0.636,"dissonance":0.127},{"voice":3,"pitch":43,"start":51.6923,"duration":0.2308,"velocity":127,"measure":15,"beat":1.0,"subject_pos":-1,"motif":"","motif_pos":-1,"best_pos":5,"similarity":0.679,"stretto":false,"stretto_voices":0,"combination":[],"aug_dim":"","rhythm_ratio":1.0,"mirror":false,"chromatic_density":0.35,"complexity":0.636,"dissonance":0.127},{"voice":3,"pitch":46,"start":51.923,"duration":0.2308,"velocity":127,"measure":15,"beat":1.25,"subject_pos":-1,"motif":"","motif_pos":-1,"best_pos":6,"similarity":0.5,"stretto":false,"stretto_voices":0,"combination":[],"aug_dim":"","rhythm_ratio":1.0,"mirror":false,"chromatic_density":0.35,"complexity":0.636,"dissonance":0.127},{"voice":3,"pitch":48,"start":52.1538,"duration":0.2308,"velocity":127,"measure":15,"beat":1.5,"subject_pos":-1,"motif":"","motif_pos":-1,"best_pos":5,"similarity":0.593,"stretto":false,"stretto_voices":0,"combination":[],"aug_dim":"","rhythm_ratio":1.0,"mirror":false,"chromatic_density":0.35,"complexity":0.636,"dissonance":0.127},{"voice":3,"pitch":50,"start":52.3846,"duration":0.2308,"velocity":127,"measure":15,"beat":1.75,"subject_pos":-1,"motif":"","motif_pos":-1,"best_pos":6,"similarity":0.65,"stretto":false,"stretto_voices":0,"combination":[],"aug_dim":"","rhythm_ratio":1.0,"mirror":false,"chromatic_density":0.35,"complexity":0.636,"dissonance":0.127},{"voice":3,"pitch":51,"start":52.6153,"duration":1.1538,"velocity":127,"measure":15,"beat":2.0,"subject_pos":-1,"motif":"","motif_pos":-1,"best_pos":7,"similarity":0.464,"stretto":false,"stretto_voices":0,"combination":[],"aug_dim":"","rhythm_ratio":1.0,"mirror":false,"chromatic_density":0.35,"complexity":0.636,"dissonance":0.127},{"voice":0,"pitch":72,"start":52.8461,"duration":0.2308,"velocity":127,"measure":15,"beat":2.25,"subject_pos":-1,"motif":"","motif_pos":-1,"best_pos":6,"similarity":0.464,"stretto":false,"stretto_voices":0,"combination":[],"aug_dim":"","rhythm_ratio":1.0,"mirror":false,"chromatic_density":0.35,"complexity":0.636,"dissonance":0.127},{"voice":0,"pitch":70,"start":53.0769,"duration":0.2308,"velocity":127,"measure":15,"beat":2.5,"subject_pos":-1,"motif":"","motif_pos":-1,"best_pos":2,"similarity":0.514,"stretto":false,"stretto_voices":0,"combination":[],"aug_dim":"","rhythm_ratio":1.0,"mirror":false,"chromatic_density":0.35,"complexity":0.636,"dissonance":0.127},{"voice":1,"pitch":57,"start":53.0769,"duration":0.4615,"velocity":127,"measure":15,"beat":2.5,"subject_pos":2,"motif":"subject_inv","motif_pos":2,"best_pos":2,"similarity":1.0,"stretto":false,"stretto_voices":0,"combination":[],"aug_dim":"","rhythm_ratio":0.83,"mirror":false,"chromatic_density":0.35,"complexity":0.636,"dissonance":0.127},{"voice":0,"pitch":69,"start":53.3076,"duration":0.2308,"velocity":127,"measure":15,"beat":2.75,"subject_pos":-1,"motif":"","motif_pos":-1,"best_pos":3,"similarity":0.514,"stretto":false,"stretto_voices":0,"combination":[],"aug_dim":"","rhythm_ratio":1.0,"mirror":false,"chromatic_density":0.35,"complexity":0.636,"dissonance":0.127},{"voice":0,"pitch":67,"start":53.5384,"duration":1.1538,"velocity":127,"measure":15,"beat":3.0,"subject_pos":-1,"motif":"","motif_pos":-1,"best_pos":4,"similarity":0.557,"stretto":false,"stretto_voices":0,"combination":[],"aug_dim":"","rhythm_ratio":1.0,"mirror":false,"chromatic_density":0.35,"complexity":0.636,"dissonance":0.127},{"voice":1,"pitch":58,"start":53.5384,"duration":0.6923,"velocity":127,"measure":15,"beat":3.0,"subject_pos":3,"motif":"subject_inv","motif_pos":3,"best_pos":3,"similarity":1.0,"stretto":false,"stretto_voices":0,"combination":[],"aug_dim":"","rhythm_ratio":0.83,"mirror":false,"chromatic_density":0.35,"complexity":0.636,"dissonance":0.127},{"voice":3,"pitch":51,"start":53.7692,"duration":0.2308,"velocity":127,"measure":15,"beat":3.25,"subject_pos":-1,"motif":"","motif_pos":-1,"best_pos":3,"similarity":0.357,"stretto":false,"stretto_voices":0,"combination":[],"aug_dim":"","rhythm_ratio":1.0,"mirror":false,"chromatic_density":0.35,"complexity":0.636,"dissonance":0.127},{"voice":3,"pitch":50,"start":53.9999,"duration":0.2308,"velocity":127,"measure":15,"beat":3.5,"subject_pos":-1,"motif":"","motif_pos":-1,"best_pos":2,"similarity":0.436,"stretto":false,"stretto_voices":0,"combination":[],"aug_dim":"","rhythm_ratio":1.0,"mirror":false,"chromatic_density":0.35,"complexity":0.636,"dissonance":0.127},{"voice":1,"pitch":60,"start":54.2307,"duration":0.2308,"velocity":127,"measure":15,"beat":3.75,"subject_pos":4,"motif":"subject_inv","motif_pos":4,"best_pos":4,"similarity":1.0,"stretto":false,"stretto_voices":0,"combination":[],"aug_dim":"","rhythm_ratio":0.83,"mirror":false,"chromatic_density":0.35,"complexity":0.636,"dissonance":0.127},{"voice":3,"pitch":48,"start":54.2307,"duration":0.2308,"velocity":127,"measure":15,"beat":3.75,"subject_pos":-1,"motif":"","motif_pos":-1,"best_pos":3,"similarity":0.586,"stretto":false,"stretto_voices":0,"combination":[],"aug_dim":"","rhythm_ratio":1.0,"mirror":false,"chromatic_density":0.35,"complexity":0.636,"dissonance":0.127},{"voice":1,"pitch":62,"start":54.4615,"duration":0.9231,"velocity":127,"measure":15,"beat":4.0,"subject_pos":5,"motif":"subject_inv","motif_pos":5,"best_pos":5,"similarity":1.0,"stretto":false,"stretto_voices":0,"combination":[],"aug_dim":"","rhythm_ratio":0.83,"mirror":false,"chromatic_density":0.35,"complexity":0.636,"dissonance":0.127},{"voice":3,"pitch":47,"start":54.4615,"duration":0.6923,"velocity":127,"measure":15,"beat":4.0,"subject_pos":-1,"motif":"","motif_pos":-1,"best_pos":4,"similarity":0.636,"stretto":false,"stretto_voices":0,"combination":[],"aug_dim":"","rhythm_ratio":1.0,"mirror":false,"chromatic_density":0.35,"complexity":0.636,"dissonance":0.127},{"voice":0,"pitch":68,"start":54.6923,"duration":0.2308,"velocity":127,"measure":15,"beat":4.25,"subject_pos":-1,"motif":"","motif_pos":-1,"best_pos":3,"similarity":0.479,"stretto":false,"stretto_voices":0,"combination":[],"aug_dim":"","rhythm_ratio":1.0,"mirror":false,"chromatic_density":0.35,"complexity":0.636,"dissonance":0.127},{"voice":0,"pitch":67,"start":54.923,"duration":0.2308,"velocity":127,"measure":15,"beat":4.5,"subject_pos":-1,"motif":"","motif_pos":-1,"best_pos":4,"similarity":0.421,"stretto":false,"stretto_voices":0,"combination":[],"aug_dim":"","rhythm_ratio":1.0,"mirror":false,"chromatic_density":0.35,"complexity":0.636,"dissonance":0.127},{"voice":0,"pitch":65,"start":55.1538,"duration":0.2308,"velocity":127,"measure":15,"beat":4.75,"subject_pos":-1,"motif":"","motif_pos":-1,"best_pos":2,"similarity":0.464,"stretto":false,"stretto_voices":0,"combination":[],"aug_dim":"","rhythm_ratio":1.0,"mirror":false,"chromatic_density":0.35,"complexity":0.636,"dissonance":0.127},{"voice":3,"pitch":45,"start":55.1538,"duration":0.1154,"velocity":127,"measure":15,"beat":4.75,"subject_pos":-1,"motif":"","motif_pos":-1,"best_pos":5,"similarity":0.636,"stretto":false,"stretto_voices":0,"combination":[],"aug_dim":"","rhythm_ratio":1.0,"mirror":false,"chromatic_density":0.35,"complexity":0.636,"dissonance":0.127},{"voice":3,"pitch":47,"start":55.2692,"duration":0.1154,"velocity":127,"measure":15,"beat":4.875,"subject_pos":-1,"motif":"","motif_pos":-1,"best_pos":6,"similarity":0.657,"stretto":false,"stretto_voices":0,"combination":[],"aug_dim":"","rhythm_ratio":1.0,"mirror":false,"chromatic_density":0.35,"complexity":0.636,"dissonance":0.127},{"voice":0,"pitch":63,"start":55.3846,"duration":0.2308,"velocity":127,"measure":16,"beat":1.0,"subject_pos":-1,"motif":"","motif_pos":-1,"best_pos":4,"similarity":0.493,"stretto":false,"stretto_voices":0,"combination":[],"aug_dim":"","rhythm_ratio":1.0,"mirror":false,"chromatic_density":0.333,"complexity":0.595,"dissonance":0.121},{"voice":1,"pitch":63,"start":55.3846,"duration":1.8462,"velocity":127,"measure":16,"beat":1.0,"subject_pos":6,"motif":"subject_inv","motif_pos":6,"best_pos":6,"similarity":1.0,"stretto":false,"stretto_voices":0,"combination":[],"aug_dim":"","rhythm_ratio":0.83,"mirror":false,"chromatic_density":0.333,"complexity":0.595,"dissonance":0.121},{"voice":3,"pitch":48,"start":55.3846,"duration":1.1538,"velocity":127,"measure":16,"beat":1.0,"subject_pos":-1,"motif":"","motif_pos":-1,"best_pos":5,"similarity":0.764,"stretto":false,"stretto_voices":0,"combination":[],"aug_dim":"","rhythm_ratio":1.0,"mirror":false,"chromatic_density":0.333,"complexity":0.595,"dissonance":0.121},{"voice":0,"pitch":67,"start":55.6153,"duration":0.2308,"velocity":127,"measure":16,"beat":1.25,"subject_pos":-1,"motif":"","motif_pos":-1,"best_pos":5,"similarity":0.564,"stretto":false,"stretto_voices":0,"combination":[],"aug_dim":"","rhythm_ratio":1.0,"mirror":false,"chromatic_density":0.333,"complexity":0.595,"dissonance":0.121},{"voice":0,"pitch":69,"start":55.8461,"duration":0.2308,"velocity":127,"measure":16,"beat":1.5,"subject_pos":-1,"motif":"","motif_pos":-1,"best_pos":6,"similarity":0.621,"stretto":false,"stretto_voices":0,"combination":[],"aug_dim":"","rhythm_ratio":1.0,"mirror":false,"chromatic_density":0.333,"complexity":0.595,"dissonance":0.121},{"voice":0,"pitch":70,"start":56.0769,"duration":0.2308,"velocity":127,"measure":16,"beat":1.75,"subject_pos":-1,"motif":"","motif_pos":-1,"best_pos":5,"similarity":0.657,"stretto":false,"stretto_voices":0,"combination":[],"aug_dim":"","rhythm_ratio":1.0,"mirror":false,"chromatic_density":0.333,"complexity":0.595,"dissonance":0.121},{"voice":0,"pitch":72,"start":56.3076,"duration":1.1538,"velocity":127,"measure":16,"beat":2.0,"subject_pos":-1,"motif":"","motif_pos":-1,"best_pos":6,"similarity":0.579,"stretto":false,"stretto_voices":0,"combination":[],"aug_dim":"","rhythm_ratio":1.0,"mirror":false,"chromatic_density":0.333,"complexity":0.595,"dissonance":0.121},{"voice":3,"pitch":50,"start":56.5384,"duration":0.2308,"velocity":127,"measure":16,"beat":2.25,"subject_pos":-1,"motif":"","motif_pos":-1,"best_pos":6,"similarity":0.721,"stretto":false,"stretto_voices":0,"combination":[],"aug_dim":"","rhythm_ratio":1.0,"mirror":false,"chromatic_density":0.333,"complexity":0.595,"dissonance":0.121},{"voice":3,"pitch":51,"start":56.7692,"duration":0.2308,"velocity":127,"measure":16,"beat":2.5,"subject_pos":-1,"motif":"","motif_pos":-1,"best_pos":5,"similarity":0.664,"stretto":false,"stretto_voices":0,"combination":[],"aug_dim":"","rhythm_ratio":1.0,"mirror":false,"chromatic_density":0.333,"complexity":0.595,"dissonance":0.121},{"voice":3,"pitch":53,"start":56.9999,"duration":0.2308,"velocity":127,"measure":16,"beat":2.75,"subject_pos":-1,"motif":"","motif_pos":-1,"best_pos":6,"similarity":0.579,"stretto":false,"stretto_voices":0,"combination":[],"aug_dim":"","rhythm_ratio":1.0,"mirror":false,"chromatic_density":0.333,"complexity":0.595,"dissonance":0.121},{"voice":1,"pitch":62,"start":57.2307,"duration":1.3846,"velocity":127,"measure":16,"beat":3.0,"subject_pos":7,"motif":"subject_inv","motif_pos":7,"best_pos":7,"similarity":1.0,"stretto":false,"stretto_voices":0,"combination":[],"aug_dim":"","rhythm_ratio":0.83,"mirror":false,"chromatic_density":0.333,"complexity":0.595,"dissonance":0.121},{"voice":3,"pitch":55,"start":57.2307,"duration":0.9231,"velocity":127,"measure":16,"beat":3.0,"subject_pos":-1,"motif":"","motif_pos":-1,"best_pos":1,"similarity":0.457,"stretto":false,"stretto_voices":0,"combination":[],"aug_dim":"","rhythm_ratio":1.0,"mirror":false,"chromatic_density":0.333,"complexity":0.595,"dissonance":0.121},{"voice":0,"pitch":72,"start":57.4615,"duration":0.2308,"velocity":127,"measure":16,"beat":3.25,"subject_pos":-1,"motif":"","motif_pos":-1,"best_pos":2,"similarity":0.443,"stretto":false,"stretto_voices":0,"combination":[],"aug_dim":"","rhythm_ratio":1.0,"mirror":false,"chromatic_density":0.333,"complexity":0.595,"dissonance":0.121},{"voice":0,"pitch":70,"start":57.6923,"duration":0.2308,"velocity":127,"measure":16,"beat":3.5,"subject_pos":-1,"motif":"","motif_pos":-1,"best_pos":3,"similarity":0.686,"stretto":false,"stretto_voices":0,"combination":[],"aug_dim":"","rhythm_ratio":1.0,"mirror":false,"chromatic_density":0.333,"complexity":0.595,"dissonance":0.121},{"voice":0,"pitch":69,"start":57.923,"duration":0.2308,"velocity":127,"measure":16,"beat":3.75,"subject_pos":-1,"motif":"","motif_pos":-1,"best_pos":4,"similarity":0.839,"stretto":false,"stretto_voices":0,"combination":[],"aug_dim":"","rhythm_ratio":1.0,"mirror":false,"chromatic_density":0.333,"complexity":0.595,"dissonance":0.121},{"voice":0,"pitch":70,"start":58.1538,"duration":0.2308,"velocity":127,"measure":16,"beat":4.0,"subject_pos":-1,"motif":"","motif_pos":-1,"best_pos":5,"similarity":0.821,"stretto":false,"stretto_voices":0,"combination":[],"aug_dim":"","rhythm_ratio":1.0,"mirror":false,"chromatic_density":0.333,"complexity":0.595,"dissonance":0.121},{"voice":3,"pitch":53,"start":58.1538,"duration":0.6923,"velocity":127,"measure":16,"beat":4.0,"subject_pos":-1,"motif":"","motif_pos":-1,"best_pos":2,"similarity":0.657,"stretto":false,"stretto_voices":0,"combination":[],"aug_dim":"","rhythm_ratio":1.0,"mirror":false,"chromatic_density":0.333,"complexity":0.595,"dissonance":0.121},{"voice":0,"pitch":72,"start":58.3846,"duration":0.2308,"velocity":127,"measure":16,"beat":4.25,"subject_pos":-1,"motif":"","motif_pos":-1,"best_pos":6,"similarity":0.643,"stretto":false,"stretto_voices":0,"combination":[],"aug_dim":"","rhythm_ratio":1.0,"mirror":false,"chromatic_density":0.333,"complexity":0.595,"dissonance":0.121},{"voice":0,"pitch":74,"start":58.6153,"duration":0.2308,"velocity":127,"measure":16,"beat":4.5,"subject_pos":-1,"motif":"","motif_pos":-1,"best_pos":6,"similarity":0.661,"stretto":false,"stretto_voices":0,"combination":[],"aug_dim":"","rhythm_ratio":1.0,"mirror":false,"chromatic_density":0.333,"complexity":0.595,"dissonance":0.121},{"voice":1,"pitch":60,"start":58.6153,"duration":0.4615,"velocity":127,"measure":16,"beat":4.5,"subject_pos":8,"motif":"subject_inv","motif_pos":8,"best_pos":0,"similarity":1.0,"stretto":false,"stretto_voices":0,"combination":[],"aug_dim":"","rhythm_ratio":0.83,"mirror":false,"chromatic_density":0.333,"complexity":0.595,"dissonance":0.121},{"voice":0,"pitch":75,"start":58.8461,"duration":0.2308,"velocity":127,"measure":16,"beat":4.75,"subject_pos":-1,"motif":"","motif_pos":-1,"best_pos":5,"similarity":0.6,"stretto":false,"stretto_voices":0,"combination":[],"aug_dim":"","rhythm_ratio":1.0,"mirror":false,"chromatic_density":0.333,"complexity":0.595,"dissonance":0.121},{"voice":3,"pitch":51,"start":58.8461,"duration":0.2308,"velocity":127,"measure":16,"beat":4.75,"subject_pos":-1,"motif":"","motif_pos":-1,"best_pos":3,"similarity":0.729,"stretto":false,"stretto_voices":0,"combination":[],"aug_dim":"","rhythm_ratio":1.0,"mirror":false,"chromatic_density":0.333,"complexity":0.595,"dissonance":0.121},{"voice":0,"pitch":77,"start":59.0769,"duration":0.2308,"velocity":127,"measure":17,"beat":1.0,"subject_pos":-1,"motif":"","motif_pos":-1,"best_pos":6,"similarity":0.464,"stretto":false,"stretto_voices":0,"combination":[],"aug_dim":"","rhythm_ratio":1.0,"mirror":false,"chromatic_density":0.36,"complexity":0.688,"dissonance":0.098},{"voice":1,"pitch":58,"start":59.0769,"duration":2.3077,"velocity":127,"measure":17,"beat":1.0,"subject_pos":-1,"motif":"","motif_pos":-1,"best_pos":3,"similarity":0.786,"stretto":false,"stretto_voices":0,"combination":[],"aug_dim":"","rhythm_ratio":1.0,"mirror":false,"chromatic_density":0.36,"complexity":0.688,"dissonance":0.098},{"voice":2,"pitch":58,"start":59.0769,"duration":0.9231,"velocity":127,"measure":17,"beat":1.0,"subject_pos":-1,"motif":"","motif_pos":-1,"best_pos":5,"similarity":0.45,"stretto":false,"stretto_voices":0,"combination":[],"aug_dim":"","rhythm_ratio":1.0,"mirror":false,"chromatic_density":0.36,"complexity":0.688,"dissonance":0.098},{"voice":3,"pitch":50,"start":59.0769,"duration":1.1538,"velocity":127,"measure":17,"beat":1.0,"subject_pos":-1,"motif":"","motif_pos":-1,"best_pos":4,"similarity":0.736,"stretto":false,"stretto_voices":0,"combination":[],"aug_dim":"","rhythm_ratio":1.0,"mirror":false,"chromatic_density":0.36,"complexity":0.688,"dissonance":0.098},{"voice":0,"pitch":75,"start":59.3076,"duration":0.2308,"velocity":127,"measure":17,"beat":1.25,"subject_pos":-1,"motif":"","motif_pos":-1,"best_pos":3,"similarity":0.471,"stretto":false,"stretto_voices":0,"combination":[],"aug_dim":"","rhythm_ratio":1.0,"mirror":false,"chromatic_density":0.36,"complexity":0.688,"dissonance":0.098},{"voice":0,"pitch":74,"start":59.5384,"duration":0.2308,"velocity":127,"measure":17,"beat":1.5,"subject_pos":-1,"motif":"","motif_pos":-1,"best_pos":1,"similarity":0.429,"stretto":false,"stretto_voices":0,"combination":[],"aug_dim":"","rhythm_ratio":1.0,"mirror":false,"chromatic_density":0.36,"complexity":0.688,"dissonance":0.098},{"voice":0,"pitch":72,"start":59.7692,"duration":0.2308,"velocity":127,"measure":17,"beat":1.75,"subject_pos":-1,"motif":"","motif_pos":-1,"best_pos":2,"similarity":0.579,"stretto":false,"stretto_voices":0,"combination":[],"aug_dim":"","rhythm_ratio":1.0,"mirror":false,"chromatic_density":0.36,"complexity":0.688,"dissonance":0.098},{"voice":0,"pitch":70,"start":59.9999,"duration":1.1538,"velocity":127,"measure":17,"beat":2.0,"subject_pos":-1,"motif":"","motif_pos":-1,"best_pos":3,"similarity":0.593,"stretto":false,"stretto_voices":0,"combination":[],"aug_dim":"","rhythm_ratio":1.0,"mirror":false,"chromatic_density":0.36,"complexity":0.688,"dissonance":0.098},{"voice":2,"pitch":65,"start":59.9999,"duration":0.6923,"velocity":127,"measure":17,"beat":2.0,"subject_pos":-1,"motif":"","motif_pos":-1,"best_pos":1,"similarity":0.643,"stretto":false,"stretto_voices":0,"combination":[],"aug_dim":"","rhythm_ratio":1.0,"mirror":false,"chromatic_density":0.36,"complexity":0.688,"dissonance":0.098},{"voice":3,"pitch":51,"start":60.2307,"duration":0.2308,"velocity":127,"measure":17,"beat":2.25,"subject_pos":-1,"motif":"","motif_pos":-1,"best_pos":5,"similarity":0.507,"stretto":false,"stretto_voices":0,"combination":[],"aug_dim":"","rhythm_ratio":1.0,"mirror":false,"chromatic_density":0.36,"complexity":0.688,"dissonance":0.098},{"voice":3,"pitch":50,"start":60.4615,"duration":0.2308,"velocity":127,"measure":17,"beat":2.5,"subject_pos":-1,"motif":"","motif_pos":-1,"best_pos":4,"similarity":0.386,"stretto":false,"stretto_voices":0,"combination":[],"aug_dim":"","rhythm_ratio":1.0,"mirror":false,"chromatic_density":0.36,"complexity":0.688,"dissonance":0.098},{"voice":2,"pitch":63,"start":60.6922,"duration":0.2308,"velocity":127,"measure":17,"beat":2.75,"subject_pos":-1,"motif":"","motif_pos":-1,"best_pos":2,"similarity":0.579,"stretto":false,"stretto_voices":0,"combination":[],"aug_dim":"","rhythm_ratio":1.0,"mirror":false,"chromatic_density":0.36,"complexity":0.688,"dissonance":0.098},{"voice":3,"pitch":48,"start":60.6922,"duration":0.2308,"velocity":127,"measure":17,"beat":2.75,"subject_pos":-1,"motif":"","motif_pos":-1,"best_pos":2,"similarity":0.429,"stretto":false,"stretto_voices":0,"combination":[],"aug_dim":"","rhythm_ratio":1.0,"mirror":false,"chromatic_density":0.36,"complexity":0.688,"dissonance":0.098},{"voice":2,"pitch":62,"start":60.923,"duration":0.6923,"velocity":127,"measure":17,"beat":3.0,"subject_pos":-1,"motif":"","motif_pos":-1,"best_pos":3,"similarity":0.45,"stretto":false,"stretto_voices":0,"combination":[],"aug_dim":"","rhythm_ratio":1.0,"mirror":false,"chromatic_density":0.36,"complexity":0.688,"dissonance":0.098},{"voice":3,"pitch":46,"start":60.923,"duration":0.4615,"velocity":127,"measure":17,"beat":3.0,"subject_pos":-1,"motif":"","motif_pos":-1,"best_pos":2,"similarity":0.293,"stretto":false,"stretto_voices":0,"combination":[],"aug_dim":"","rhythm_ratio":1.0,"mirror":false,"chromatic_density":0.36,"complexity":0.688,"dissonance":0.098},{"voice":0,"pitch":69,"start":61.1538,"duration":0.2308,"velocity":127,"measure":17,"beat":3.25,"subject_pos":-1,"motif":"","motif_pos":-1,"best_pos":4,"similarity":0.489,"stretto":false,"stretto_voices":0,"combination":[],"aug_dim":"","rhythm_ratio":1.0,"mirror":false,"chromatic_density":0.36,"complexity":0.688,"dissonance":0.098},{"voice":0,"pitch":67,"start":61.3846,"duration":0.2308,"velocity":127,"measure":17,"beat":3.5,"subject_pos":-1,"motif":"","motif_pos":-1,"best_pos":2,"similarity":0.589,"stretto":false,"stretto_voices":0,"combination":[],"aug_dim":"","rhythm_ratio":1.0,"mirror":false,"chromatic_density":0.36,"complexity":0.688,"dissonance":0.098},{"voice":1,"pitch":57,"start":61.3846,"duration":0.4615,"velocity":127,"measure":17,"beat":3.5,"subject_pos":-1,"motif":"","motif_pos":-1,"best_pos":4,"similarity":0.893,"stretto":false,"stretto_voices":0,"combination":[],"aug_dim":"","rhythm_ratio":1.0,"mirror":false,"chromatic_density":0.36,"complexity":0.688,"dissonance":0.098},{"voice":3,"pitch":50,"start":61.3846,"duration":0.4615,"velocity":127,"measure":17,"beat":3.5,"subject_pos":-1,"motif":"","motif_pos":-1,"best_pos":1,"similarity":0.243,"stretto":false,"stretto_voices":0,"combination":[],"aug_dim":"","rhythm_ratio":1.0,"mirror":false,"chromatic_density":0.36,"complexity":0.688,"dissonance":0.098},{"voice":0,"pitch":65,"start":61.6153,"duration":0.2308,"velocity":127,"measure":17,"beat":3.75,"subject_pos":-1,"motif":"","motif_pos":-1,"best_pos":3,"similarity":0.614,"stretto":false,"stretto_voices":0,"combination":[],"aug_dim":"","rhythm_ratio":1.0,"mirror":false,"chromatic_density":0.36,"complexity":0.688,"dissonance":0.098},{"voice":2,"pitch":60,"start":61.6153,"duration":0.2308,"velocity":127,"measure":17,"beat":3.75,"subject_pos":-1,"motif":"","motif_pos":-1,"best_pos":2,"similarity":0.643,"stretto":false,"stretto_voices":0,"combination":[],"aug_dim":"","rhythm_ratio":1.0,"mirror":false,"chromatic_density":0.36,"complexity":0.688,"dissonance":0.098},{"voice":0,"pitch":64,"start":61.8461,"duration":0.2308,"velocity":127,"measure":17,"beat":4.0,"subject_pos":-1,"motif":"","motif_pos":-1,"best_pos":4,"similarity":0.532,"stretto":false,"stretto_voices":0,"combination":[],"aug_dim":"","rhythm_ratio":1.0,"mirror":false,"chromatic_density":0.36,"complexity":0.688,"dissonance":0.098},{"voice":1,"pitch":58,"start":61.8461,"duration":0.4615,"velocity":127,"measure":17,"beat":4.0,"subject_pos":-1,"motif":"","motif_pos":-1,"best_pos":5,"similarity":0.821,"stretto":false,"stretto_voices":0,"combination":[],"aug_dim":"","rhythm_ratio":1.0,"mirror":false,"chromatic_density":0.36,"complexity":0.688,"dissonance":0.098},{"voice":2,"pitch":58,"start":61.8461,"duration":0.9231,"velocity":127,"measure":17,"beat":4.0,"subject_pos":-1,"motif":"","motif_pos":-1,"best_pos":3,"similarity":0.786,"stretto":false,"stretto_voices":0,"combination":[],"aug_dim":"","rhythm_ratio":1.0,"mirror":false,"chromatic_density":0.36,"complexity":0.688,"dissonance":0.098},{"voice":3,"pitch":43,"start":61.8461,"duration":0.9231,"velocity":127,"measure":17,"beat":4.0,"subject_pos":-1,"motif":"","motif_pos":-1,"best_pos":2,"similarity":0.314,"stretto":false,"stretto_voices":0,"combination":[],"aug_dim":"","rhythm_ratio":1.0,"mirror":false,"chromatic_density":0.36,"complexity":0.688,"dissonance":0.098},{"voice":0,"pitch":67,"start":62.0769,"duration":0.2308,"velocity":127,"measure":17,"beat":4.25,"subject_pos":-1,"motif":"","motif_pos":-1,"best_pos":1,"similarity":0.411,"stretto":false,"stretto_voices":0,"combination":[],"aug_dim":"","rhythm_ratio":1.0,"mirror":false,"chromatic_density":0.36,"complexity":0.688,"dissonance":0.098},{"voice":0,"pitch":65,"start":62.3076,"duration":0.2308,"velocity":127,"measure":17,"beat":4.5,"subject_pos":-1,"motif":"","motif_pos":-1,"best_pos":3,"similarity":0.579,"stretto":false,"stretto_voices":0,"combination":[],"aug_dim":"","rhythm_ratio":1.0,"mirror":false,"chromatic_density":0.36,"complexity":0.688,"dissonance":0.098},{"voice":1,"pitch":60,"start":62.3076,"duration":0.4615,"velocity":127,"measure":17,"beat":4.5,"subject_pos":-1,"motif":"","motif_pos":-1,"best_pos":6,"similarity":0.643,"stretto":false,"stretto_voices":0,"combination":[],"aug_dim":"","rhythm_ratio":1.0,"mirror":false,"chromatic_density":0.36,"complexity":0.688,"dissonance":0.098},{"voice":0,"pitch":64,"start":62.5384,"duration":0.2308,"velocity":127,"measure":17,"beat":4.75,"subject_pos":-1,"motif":"","motif_pos":-1,"best_pos":4,"similarity":0.693,"stretto":false,"stretto_voices":0,"combination":[],"aug_dim":"","rhythm_ratio":1.0,"mirror":false,"chromatic_density":0.36,"complexity":0.688,"dissonance":0.098},{"voice":0,"pitch":65,"start":62.7692,"duration":1.3846,"velocity":127,"measure":18,"beat":1.0,"subject_pos":-1,"motif":"","motif_pos":-1,"best_pos":5,"similarity":0.564,"stretto":false,"stretto_voices":0,"combination":[],"aug_dim":"","rhythm_ratio":1.0,"mirror":false,"chromatic_density":0.333,"complexity":0.739,"dissonance":0.088},{"voice":1,"pitch":62,"start":62.7692,"duration":0.9231,"velocity":127,"measure":18,"beat":1.0,"subject_pos":-1,"motif":"","motif_pos":-1,"best_pos":6,"similarity":0.375,"stretto":false,"stretto_voices":0,"combination":[],"aug_dim":"","rhythm_ratio":1.0,"mirror":false,"chromatic_density":0.333,"complexity":0.739,"dissonance":0.088},{"voice":2,"pitch":57,"start":62.7692,"duration":0.9231,"velocity":127,"measure":18,"beat":1.0,"subject_pos":-1,"motif":"","motif_pos":-1,"best_pos":4,"similarity":0.893,"stretto":false,"stretto_voices":0,"combination":[],"aug_dim":"","rhythm_ratio":1.0,"mirror":false,"chromatic_density":0.333,"complexity":0.739,"dissonance":0.088},{"voice":3,"pitch":41,"start":62.7692,"duration":0.2308,"velocity":127,"measure":18,"beat":1.0,"subject_pos":-1,"motif":"","motif_pos":-1,"best_pos":3,"similarity":0.407,"stretto":false,"stretto_voices":0,"combination":[],"aug_dim":"","rhythm_ratio":1.0,"mirror":false,"chromatic_density":0.333,"complexity":0.739,"dissonance":0.088},{"voice":3,"pitch":45,"start":62.9999,"duration":0.2308,"velocity":127,"measure":18,"beat":1.25,"subject_pos":-1,"motif":"","motif_pos":-1,"best_pos":4,"similarity":0.543,"stretto":false,"stretto_voices":0,"combination":[],"aug_dim":"","rhythm_ratio":1.0,"mirror":false,"chromatic_density":0.333,"complexity":0.739,"dissonance":0.088},{"voice":3,"pitch":46,"start":63.2307,"duration":0.2308,"velocity":127,"measure":18,"beat":1.5,"subject_pos":-1,"motif":"","motif_pos":-1,"best_pos":5,"similarity":0.679,"stretto":false,"stretto_voices":0,"combination":[],"aug_dim":"","rhythm_ratio":1.0,"mirror":false,"chromatic_density":0.333,"complexity":0.739,"dissonance":0.088},{"voice":3,"pitch":48,"start":63.4615,"duration":0.2308,"velocity":127,"measure":18,"beat":1.75,"subject_pos":-1,"motif":"","motif_pos":-1,"best_pos":6,"similarity":0.571,"stretto":false,"stretto_voices":0,"combination":[],"aug_dim":"","rhythm_ratio":1.0,"mirror":false,"chromatic_density":0.333,"complexity":0.739,"dissonance":0.088},{"voice":2,"pitch":58,"start":63.6922,"duration":0.6923,"velocity":127,"measure":18,"beat":2.0,"subject_pos":-1,"motif":"","motif_pos":-1,"best_pos":5,"similarity":0.821,"stretto":false,"stretto_voices":0,"combination":[],"aug_dim":"","rhythm_ratio":1.0,"mirror":false,"chromatic_density":0.333,"complexity":0.739,"dissonance":0.088},{"voice":3,"pitch":50,"start":63.6922,"duration":0.2308,"velocity":127,"measure":18,"beat":2.0,"subject_pos":-1,"motif":"","motif_pos":-1,"best_pos":6,"similarity":0.404,"stretto":false,"stretto_voices":0,"combination":[],"aug_dim":"","rhythm_ratio":1.0,"mirror":false,"chromatic_density":0.333,"complexity":0.739,"dissonance":0.088},{"voice":3,"pitch":48,"start":63.923,"duration":0.2308,"velocity":127,"measure":18,"beat":2.25,"subject_pos":-1,"motif":"","motif_pos":-1,"best_pos":5,"similarity":0.471,"stretto":false,"stretto_voices":0,"combination":[],"aug_dim":"","rhythm_ratio":1.0,"mirror":false,"chromatic_density":0.333,"complexity":0.739,"dissonance":0.088},{"voice":0,"pitch":70,"start":64.1538,"duration":0.6923,"velocity":127,"measure":18,"beat":2.5,"subject_pos":-1,"motif":"","motif_pos":-1,"best_pos":1,"similarity":0.429,"stretto":false,"stretto_voices":0,"combination":[],"aug_dim":"","rhythm_ratio":1.0,"mirror":false,"chromatic_density":0.333,"complexity":0.739,"dissonance":0.088},{"voice":3,"pitch":50,"start":64.1538,"duration":0.2308,"velocity":127,"measure":18,"beat":2.5,"subject_pos":-1,"motif":"","motif_pos":-1,"best_pos":6,"similarity":0.593,"stretto":false,"stretto_voices":0,"combination":[],"aug_dim":"","rhythm_ratio":1.0,"mirror":false,"chromatic_density":0.333,"complexity":0.739,"dissonance":0.088},{"voice":2,"pitch":60,"start":64.3846,"duration":0.2308,"velocity":127,"measure":18,"beat":2.75,"subject_pos":-1,"motif":"","motif_pos":-1,"best_pos":6,"similarity":0.643,"stretto":false,"stretto_voices":0,"combination":[],"aug_dim":"","rhythm_ratio":1.0,"mirror":false,"chromatic_density":0.333,"complexity":0.739,"dissonance":0.088},{"voice":3,"pitch":51,"start":64.3846,"duration":0.2308,"velocity":127,"measure":18,"beat":2.75,"subject_pos":-1,"motif":"","motif_pos":-1,"best_pos":5,"similarity":0.636,"stretto":false,"stretto_voices":0,"combination":[],"aug_dim":"","rhythm_ratio":1.0,"mirror":false,"chromatic_density":0.333,"complexity":0.739,"dissonance":0.088},{"voice":2,"pitch":62,"start":64.6153,"duration":1.1538,"velocity":127,"measure":18,"beat":3.0,"subject_pos":-1,"motif":"tail_inv","motif_pos":0,"best_pos":0,"similarity":1.0,"stretto":false,"stretto_voices":0,"combination":[],"aug_dim":"","rhythm_ratio":1.0,"mirror":false,"chromatic_density":0.333,"complexity":0.739,"dissonance":0.088},{"voice":3,"pitch":53,"start":64.6153,"duration":3.0,"velocity":127,"measure":18,"beat":3.0,"subject_pos":-1,"motif":"","motif_pos":-1,"best_pos":6,"similarity":0.464,"stretto":false,"stretto_voices":0,"combination":[],"aug_dim":"","rhythm_ratio":1.0,"mirror":false,"chromatic_density":0.333,"complexity":0.739,"dissonance":0.088},{"voice":0,"pitch":70,"start":64.8461,"duration":0.2308,"velocity":127,"measure":18,"beat":3.25,"subject_pos":-1,"motif":"","motif_pos":-1,"best_pos":3,"similarity":0.407,"stretto":false,"stretto_voices":0,"combination":[],"aug_dim":"","rhythm_ratio":1.0,"mirror":false,"chromatic_density":0.333,"complexity":0.739,"dissonance":0.088},{"voice":0,"pitch":69,"start":65.0769,"duration":0.2308,"velocity":127,"measure":18,"beat":3.5,"subject_pos":-1,"motif":"","motif_pos":-1,"best_pos":4,"similarity":0.507,"stretto":false,"stretto_voices":0,"combination":[],"aug_dim":"","rhythm_ratio":1.0,"mirror":false,"chromatic_density":0.333,"complexity":0.739,"dissonance":0.088},{"voice":0,"pitch":67,"start":65.3076,"duration":0.2308,"velocity":127,"measure":18,"beat":3.75,"subject_pos":-1,"motif":"","motif_pos":-1,"best_pos":4,"similarity":0.554,"stretto":false,"stretto_voices":0,"combination":[],"aug_dim":"","rhythm_ratio":1.0,"mirror":false,"chromatic_density":0.333,"complexity":0.739,"dissonance":0.088},{"voice":0,"pitch":69,"start":65.5384,"duration":0.4615,"velocity":127,"measure":18,"beat":4.0,"subject_pos":-1,"motif":"","motif_pos":-1,"best_pos":5,"similarity":0.661,"stretto":false,"stretto_voices":0,"combination":[],"aug_dim":"","rhythm_ratio":1.0,"mirror":false,"chromatic_density":0.333,"complexity":0.739,"dissonance":0.088},{"voice":2,"pitch":63,"start":65.7692,"duration":0.2308,"velocity":127,"measure":18,"beat":4.25,"subject_pos":-1,"motif":"tail_inv","motif_pos":1,"best_pos":1,"similarity":1.0,"stretto":false,"stretto_voices":0,"combination":[],"aug_dim":"","rhythm_ratio":1.0,"mirror":false,"chromatic_density":0.333,"complexity":0.739,"dissonance":0.088},{"voice":0,"pitch":71,"start":65.9999,"duration":0.2308,"velocity":127,"measure":18,"beat":4.5,"subject_pos":-1,"motif":"","motif_pos":-1,"best_pos":6,"similarity":0.679,"stretto":false,"stretto_voices":0,"combination":[],"aug_dim":"","rhythm_ratio":1.0,"mirror":false,"chromatic_density":0.333,"complexity":0.739,"dissonance":0.088},{"voice":1,"pitch":68,"start":65.9999,"duration":0.4615,"velocity":127,"measure":18,"beat":4.5,"subject_pos":-1,"motif":"enigmatic_cell","motif_pos":0,"best_pos":0,"similarity":1.0,"stretto":false,"stretto_voices":0,"combination":[],"aug_dim":"","rhythm_ratio":1.0,"mirror":false,"chromatic_density":0.333,"complexity":0.739,"dissonance":0.088},{"voice":2,"pitch":62,"start":65.9999,"duration":0.2308,"velocity":127,"measure":18,"beat":4.5,"subject_pos":-1,"motif":"tail_inv","motif_pos":2,"best_pos":2,"similarity":1.0,"stretto":false,"stretto_voices":0,"combination":[],"aug_dim":"","rhythm_ratio":1.0,"mirror":false,"chromatic_density":0.333,"complexity":0.739,"dissonance":0.088},{"voice":0,"pitch":72,"start":66.2307,"duration":0.2308,"velocity":127,"measure":18,"beat":4.75,"subject_pos":-1,"motif":"","motif_pos":-1,"best_pos":5,"similarity":0.6,"stretto":false,"stretto_voices":0,"combination":[],"aug_dim":"","rhythm_ratio":1.0,"mirror":false,"chromatic_density":0.333,"complexity":0.739,"dissonance":0.088},{"voice":2,"pitch":60,"start":66.2307,"duration":0.2308,"velocity":127,"measure":18,"beat":4.75,"subject_pos":-1,"motif":"tail_inv","motif_pos":3,"best_pos":3,"similarity":1.0,"stretto":false,"stretto_voices":0,"combination":[],"aug_dim":"","rhythm_ratio":1.0,"mirror":false,"chromatic_density":0.333,"complexity":0.739,"dissonance":0.088},{"voice":0,"pitch":74,"start":66.4615,"duration":0.2308,"velocity":127,"measure":19,"beat":1.0,"subject_pos":-1,"motif":"","motif_pos":-1,"best_pos":6,"similarity":0.464,"stretto":false,"stretto_voices":0,"combination":[],"aug_dim":"","rhythm_ratio":1.0,"mirror":false,"chromatic_density":0.286,"complexity":0.747,"dissonance":0.089},{"voice":1,"pitch":67,"start":66.4615,"duration":0.4615,"velocity":127,"measure":19,"beat":1.0,"subject_pos":-1,"motif":"enigmatic_cell","motif_pos":1,"best_pos":1,"similarity":1.0,"stretto":false,"stretto_voices":0,"combination":[],"aug_dim":"","rhythm_ratio":1.0,"mirror":false,"chromatic_density":0.286,"complexity":0.747,"dissonance":0.089},{"voice":2,"pitch":59,"start":66.4615,"duration":0.2308,"velocity":127,"measure":19,"beat":1.0,"subject_pos":-1,"motif":"tail_inv","motif_pos":4,"best_pos":4,"similarity":1.0,"stretto":false,"stretto_voices":0,"combination":[],"aug_dim":"","rhythm_ratio":1.0,"mirror":false,"chromatic_density":0.286,"complexity":0.747,"dissonance":0.089},{"voice":0,"pitch":71,"start":66.6922,"duration":0.2308,"velocity":127,"measure":19,"beat":1.25,"subject_pos":-1,"motif":"","motif_pos":-1,"best_pos":4,"similarity":0.507,"stretto":false,"stretto_voices":0,"combination":[],"aug_dim":"","rhythm_ratio":1.0,"mirror":false,"chromatic_density":0.286,"complexity":0.747,"dissonance":0.089},{"voice":2,"pitch":62,"start":66.6922,"duration":0.2308,"velocity":127,"measure":19,"beat":1.25,"subject_pos":-1,"motif":"","motif_pos":-1,"best_pos":4,"similarity":0.6,"stretto":false,"stretto_voices":0,"combination":[],"aug_dim":"","rhythm_ratio":1.0,"mirror":false,"chromatic_density":0.286,"complexity":0.747,"dissonance":0.089},{"voice":0,"pitch":72,"start":66.923,"duration":0.2308,"velocity":127,"measure":19,"beat":1.5,"subject_pos":-1,"motif":"","motif_pos":-1,"best_pos":5,"similarity":0.607,"stretto":false,"stretto_voices":0,"combination":[],"aug_dim":"","rhythm_ratio":1.0,"mirror":false,"chromatic_density":0.286,"complexity":0.747,"dissonance":0.089},{"voice":2,"pitch":63,"start":66.923,"duration":0.2308,"velocity":127,"measure":19,"beat":1.5,"subject_pos":-1,"motif":"","motif_pos":-1,"best_pos":5,"similarity":0.675,"stretto":false,"stretto_voices":0,"combination":[],"aug_dim":"","rhythm_ratio":1.0,"mirror":false,"chromatic_density":0.286,"complexity":0.747,"dissonance":0.089},{"voice":0,"pitch":74,"start":67.1538,"duration":0.2308,"velocity":127,"measure":19,"beat":1.75,"subject_pos":-1,"motif":"","motif_pos":-1,"best_pos":6,"similarity":0.446,"stretto":false,"stretto_voices":0,"combination":[],"aug_dim":"","rhythm_ratio":1.0,"mirror":false,"chromatic_density":0.286,"complexity":0.747,"dissonance":0.089},{"voice":2,"pitch":65,"start":67.1538,"duration":0.2308,"velocity":127,"measure":19,"beat":1.75,"subject_pos":-1,"motif":"","motif_pos":-1,"best_pos":6,"similarity":0.579,"stretto":false,"stretto_voices":0,"combination":[],"aug_dim":"","rhythm_ratio":1.0,"mirror":false,"chromatic_density":0.286,"complexity":0.747,"dissonance":0.089},{"voice":0,"pitch":67,"start":67.3845,"duration":0.4615,"velocity":127,"measure":19,"beat":2.0,"subject_pos":-1,"motif":"","motif_pos":-1,"best_pos":2,"similarity":0.221,"stretto":false,"stretto_voices":0,"combination":[],"aug_dim":"","rhythm_ratio":1.0,"mirror":false,"chromatic_density":0.286,"complexity":0.747,"dissonance":0.089},{"voice":2,"pitch":67,"start":67.3845,"duration":1.3846,"velocity":127,"measure":19,"beat":2.0,"subject_pos":-1,"motif":"","motif_pos":-1,"best_pos":6,"similarity":0.375,"stretto":false,"stretto_voices":0,"combination":[],"aug_dim":"","rhythm_ratio":1.0,"mirror":false,"chromatic_density":0.286,"complexity":0.747,"dissonance":0.089},{"voice":3,"pitch":51,"start":67.6153,"duration":0.2308,"velocity":127,"measure":19,"beat":2.25,"subject_pos":-1,"motif":"","motif_pos":-1,"best_pos":3,"similarity":0.464,"stretto":false,"stretto_voices":0,"combination":[],"aug_dim":"","rhythm_ratio":1.0,"mirror":false,"chromatic_density":0.286,"complexity":0.747,"dissonance":0.089},{"voice":0,"pitch":75,"start":67.8461,"duration":0.4615,"velocity":127,"measure":19,"beat":2.5,"subject_pos":-1,"motif":"","motif_pos":-1,"best_pos":3,"similarity":0.414,"stretto":false,"stretto_voices":0,"combination":[],"aug_dim":"","rhythm_ratio":1.0,"mirror":false,"chromatic_density":0.286,"complexity":0.747,"dissonance":0.089},{"voice":1,"pitch":72,"start":67.8461,"duration":0.6923,"velocity":127,"measure":19,"beat":2.5,"subject_pos":-1,"motif":"enigmatic_cell","motif_pos":2,"best_pos":2,"similarity":1.0,"stretto":false,"stretto_voices":0,"combination":[],"aug_dim":"","rhythm_ratio":1.0,"mirror":false,"chromatic_density":0.286,"complexity":0.747,"dissonance":0.089},{"voice":3,"pitch":50,"start":67.8461,"duration":0.2308,"velocity":127,"measure":19,"beat":2.5,"subject_pos":-1,"motif":"","motif_pos":-1,"best_pos":4,"similarity":0.4,"stretto":false,"stretto_voices":0,"combination":[],"aug_dim":"","rhythm_ratio":1.0,"mirror":false,"chromatic_density":0.286,"complexity":0.747,"dissonance":0.089},{"voice":3,"pitch":48,"start":68.0769,"duration":0.2308,"velocity":127,"measure":19,"beat":2.75,"subject_pos":-1,"motif":"","motif_pos":-1,"best_pos":0,"similarity":0.436,"stretto":false,"stretto_voices":0,"combination":[],"aug_dim":"","rhythm_ratio":1.0,"mirror":false,"chromatic_density":0.286,"complexity":0.747,"dissonance":0.089},{"voice":0,"pitch":74,"start":68.3076,"duration":1.3846,"velocity":127,"measure":19,"beat":3.0,"subject_pos":-1,"motif":"","motif_pos":-1,"best_pos":4,"similarity":0.514,"stretto":false,"stretto_voices":0,"combination":[],"aug_dim":"","rhythm_ratio":1.0,"mirror":false,"chromatic_density":0.286,"complexity":0.747,"dissonance":0.089},{"voice":3,"pitch":55,"start":68.3076,"duration":1.8462,"velocity":127,"measure":19,"beat":3.0,"subject_pos":-1,"motif":"","motif_pos":-1,"best_pos":1,"similarity":0.586,"stretto":false,"stretto_voices":0,"combination":[],"aug_dim":"","rhythm_ratio":1.0,"mirror":false,"chromatic_density":0.286,"complexity":0.747,"dissonance":0.089},{"voice":1,"pitch":72,"start":68.5384,"duration":0.2308,"velocity":127,"measure":19,"beat":3.25,"subject_pos":-1,"motif":"","motif_pos":-1,"best_pos":2,"similarity":0.571,"stretto":false,"stretto_voices":0,"combination":[],"aug_dim":"","rhythm_ratio":1.0,"mirror":false,"chromatic_density":0.286,"complexity":0.747,"dissonance":0.089},{"voice":1,"pitch":70,"start":68.7692,"duration":0.2308,"velocity":127,"measure":19,"beat":3.5,"subject_pos":-1,"motif":"","motif_pos":-1,"best_pos":3,"similarity":0.696,"stretto":false,"stretto_voices":0,"combination":[],"aug_dim":"","rhythm_ratio":1.0,"mirror":false,"chromatic_density":0.286,"complexity":0.747,"dissonance":0.089},{"voice":2,"pitch":62,"start":68.7692,"duration":0.6923,"velocity":127,"measure":19,"beat":3.5,"subject_pos":-1,"motif":"","motif_pos":-1,"best_pos":2,"similarity":0.264,"stretto":false,"stretto_voices":0,"combination":[],"aug_dim":"","rhythm_ratio":1.0,"mirror":false,"chromatic_density":0.286,"complexity":0.747,"dissonance":0.089},{"voice":1,"pitch":69,"start":68.9999,"duration":0.2308,"velocity":127,"measure":19,"beat":3.75,"subject_pos":-1,"motif":"","motif_pos":-1,"best_pos":4,"similarity":0.714,"stretto":false,"stretto_voices":0,"combination":[],"aug_dim":"","rhythm_ratio":1.0,"mirror":false,"chromatic_density":0.286,"complexity":0.747,"dissonance":0.089},{"voice":1,"pitch":70,"start":69.2307,"duration":1.1538,"velocity":127,"measure":19,"beat":4.0,"subject_pos":-1,"motif":"","motif_pos":-1,"best_pos":5,"similarity":0.571,"stretto":false,"stretto_voices":0,"combination":[],"aug_dim":"","rhythm_ratio":1.0,"mirror":false,"chromatic_density":0.286,"complexity":0.747,"dissonance":0.089},{"voice":2,"pitch":62,"start":69.4615,"duration":0.2308,"velocity":127,"measure":19,"beat":4.25,"subject_pos":-1,"motif":"","motif_pos":-1,"best_pos":1,"similarity":0.364,"stretto":false,"stretto_voices":0,"combination":[],"aug_dim":"","rhythm_ratio":1.0,"mirror":false,"chromatic_density":0.286,"complexity":0.747,"dissonance":0.089},{"voice":0,"pitch":76,"start":69.6922,"duration":0.4615,"velocity":127,"measure":19,"beat":4.5,"subject_pos":-1,"motif":"","motif_pos":-1,"best_pos":6,"similarity":0.607,"stretto":false,"stretto_voices":0,"combination":[],"aug_dim":"","rhythm_ratio":1.0,"mirror":false,"chromatic_density":0.286,"complexity":0.747,"dissonance":0.089},{"voice":2,"pitch":60,"start":69.6922,"duration":0.2308,"velocity":127,"measure":19,"beat":4.5,"subject_pos":-1,"motif":"","motif_pos":-1,"best_pos":2,"similarity":0.45,"stretto":false,"stretto_voices":0,"combination":[],"aug_dim":"","rhythm_ratio":1.0,"mirror":false,"chromatic_density":0.286,"complexity":0.747,"dissonance":0.089},{"voice":2,"pitch":58,"start":69.923,"duration":0.2308,"velocity":127,"measure":19,"beat":4.75,"subject_pos":-1,"motif":"","motif_pos":-1,"best_pos":5,"similarity":0.407,"stretto":false,"stretto_voices":0,"combination":[],"aug_dim":"","rhythm_ratio":1.0,"mirror":false,"chromatic_density":0.286,"complexity":0.747,"dissonance":0.089},{"voice":0,"pitch":77,"start":70.1538,"duration":2.5385,"velocity":127,"measure":20,"beat":1.0,"subject_pos":-1,"motif":"","motif_pos":-1,"best_pos":7,"similarity":0.446,"stretto":false,"stretto_voices":0,"combination":[],"aug_dim":"","rhythm_ratio":1.0,"mirror":false,"chromatic_density":0.278,"complexity":0.713,"dissonance":0.083},{"voice":2,"pitch":60,"start":70.1538,"duration":0.9231,"velocity":127,"measure":20,"beat":1.0,"subject_pos":-1,"motif":"head","motif_pos":0,"best_pos":0,"similarity":1.0,"stretto":false,"stretto_voices":0,"combination":[],"aug_dim":"","rhythm_ratio":1.0,"mirror":false,"chromatic_density":0.278,"complexity":0.713,"dissonance":0.083},{"voice":3,"pitch":53,"start":70.1538,"duration":0.9231,"velocity":127,"measure":20,"beat":1.0,"subject_pos":-1,"motif":"","motif_pos":-1,"best_pos":2,"similarity":0.493,"stretto":false,"stretto_voices":0,"combination":[],"aug_dim":"","rhythm_ratio":1.0,"mirror":false,"chromatic_density":0.278,"complexity":0.713,"dissonance":0.083},{"voice":1,"pitch":70,"start":70.3845,"duration":0.2308,"velocity":127,"measure":20,"beat":1.25,"subject_pos":-1,"motif":"","motif_pos":-1,"best_pos":3,"similarity":0.414,"stretto":false,"stretto_voices":0,"combination":[],"aug_dim":"","rhythm_ratio":1.0,"mirror":false,"chromatic_density":0.278,"complexity":0.713,"dissonance":0.083},{"voice":1,"pitch":69,"start":70.6153,"duration":0.2308,"velocity":127,"measure":20,"beat":1.5,"subject_pos":-1,"motif":"","motif_pos":-1,"best_pos":4,"similarity":0.55,"stretto":false,"stretto_voices":0,"combination":[],"aug_dim":"","rhythm_ratio":1.0,"mirror":false,"chromatic_density":0.278,"complexity":0.713,"dissonance":0.083},{"voice":1,"pitch":67,"start":70.8461,"duration":0.2308,"velocity":127,"measure":20,"beat":1.75,"subject_pos":-1,"motif":"","motif_pos":-1,"best_pos":5,"similarity":0.607,"stretto":false,"stretto_voices":0,"combination":[],"aug_dim":"","rhythm_ratio":1.0,"mirror":false,"chromatic_density":0.278,"complexity":0.713,"dissonance":0.083},{"voice":1,"pitch":69,"start":71.0769,"duration":0.2308,"velocity":127,"measure":20,"beat":2.0,"subject_pos":-1,"motif":"","motif_pos":-1,"best_pos":6,"similarity":0.657,"stretto":false,"stretto_voices":0,"combination":[],"aug_dim":"","rhythm_ratio":1.0,"mirror":false,"chromatic_density":0.278,"complexity":0.713,"dissonance":0.083},{"voice":2,"pitch":65,"start":71.0769,"duration":0.6923,"velocity":127,"measure":20,"beat":2.0,"subject_pos":-1,"motif":"head","motif_pos":1,"best_pos":1,"similarity":1.0,"stretto":false,"stretto_voices":0,"combination":[],"aug_dim":"","rhythm_ratio":1.0,"mirror":false,"chromatic_density":0.278,"complexity":0.713,"dissonance":0.083},{"voice":1,"pitch":70,"start":71.3076,"duration":0.2308,"velocity":127,"measure":20,"beat":2.25,"subject_pos":-1,"motif":"","motif_pos":-1,"best_pos":5,"similarity":0.636,"stretto":false,"stretto_voices":0,"combination":[],"aug_dim":"","rhythm_ratio":1.0,"mirror":false,"chromatic_density":0.278,"complexity":0.713,"dissonance":0.083},{"voice":1,"pitch":72,"start":71.5384,"duration":0.6923,"velocity":127,"measure":20,"beat":2.5,"subject_pos":-1,"motif":"","motif_pos":-1,"best_pos":6,"similarity":0.464,"stretto":false,"stretto_voices":0,"combination":[],"aug_dim":"","rhythm_ratio":1.0,"mirror":false,"chromatic_density":0.278,"complexity":0.713,"dissonance":0.083},{"voice":2,"pitch":63,"start":71.7692,"duration":0.2308,"velocity":127,"measure":20,"beat":2.75,"subject_pos":-1,"motif":"head","motif_pos":2,"best_pos":2,"similarity":1.0,"stretto":false,"stretto_voices":0,"combination":[],"aug_dim":"","rhythm_ratio":1.0,"mirror":false,"chromatic_density":0.278,"complexity":0.713,"dissonance":0.083},{"voice":2,"pitch":62,"start":71.9999,"duration":0.6923,"velocity":127,"measure":20,"beat":3.0,"subject_pos":-1,"motif":"head","motif_pos":3,"best_pos":3,"similarity":1.0,"stretto":false,"stretto_voices":0,"combination":[],"aug_dim":"","rhythm_ratio":1.0,"mirror":false,"chromatic_density":0.278,"complexity":0.713,"dissonance":0.083},{"voice":3,"pitch":53,"start":71.9999,"duration":0.9231,"velocity":127,"measure":20,"beat":3.0,"subject_pos":-1,"motif":"head_inv","motif_pos":0,"best_pos":0,"similarity":1.0,"stretto":false,"stretto_voices":0,"combination":[],"aug_dim":"","rhythm_ratio":1.0,"mirror":false,"chromatic_density":0.278,"complexity":0.713,"dissonance":0.083},{"voice":1,"pitch":70,"start":72.2307,"duration":0.2308,"velocity":127,"measure":20,"beat":3.25,"subject_pos":-1,"motif":"","motif_pos":-1,"best_pos":3,"similarity":0.457,"stretto":false,"stretto_voices":0,"combination":[],"aug_dim":"","rhythm_ratio":1.0,"mirror":false,"chromatic_density":0.278,"complexity":0.713,"dissonance":0.083},{"voice":1,"pitch":69,"start":72.4615,"duration":0.6923,"velocity":127,"measure":20,"beat":3.5,"subject_pos":-1,"motif":"","motif_pos":-1,"best_pos":4,"similarity":0.386,"stretto":false,"stretto_voices":0,"combination":[],"aug_dim":"","rhythm_ratio":1.0,"mirror":false,"chromatic_density":0.278,"complexity":0.713,"dissonance":0.083},{"voice":0,"pitch":75,"start":72.6922,"duration":0.2308,"velocity":127,"measure":20,"beat":3.75,"subject_pos":-1,"motif":"","motif_pos":-1,"best_pos":3,"similarity":0.457,"stretto":false,"stretto_voices":0,"combination":[],"aug_dim":"","rhythm_ratio":1.0,"mirror":false,"chromatic_density":0.278,"complexity":0.713,"dissonance":0.083},{"voice":2,"pitch":60,"start":72.6922,"duration":0.2308,"velocity":127,"measure":20,"beat":3.75,"subject_pos":-1,"motif":"head","motif_pos":4,"best_pos":4,"similarity":1.0,"stretto":false,"stretto_voices":0,"combination":[],"aug_dim":"","rhythm_ratio":1.0,"mirror":false,"chromatic_density":0.278,"complexity":0.713,"dissonance":0.083},{"voice":0,"pitch":74,"start":72.923,"duration":1.1538,"velocity":127,"measure":20,"beat":4.0,"subject_pos":-1,"motif":"","motif_pos":-1,"best_pos":4,"similarity":0.386,"stretto":false,"stretto_voices":0,"combination":[],"aug_dim":"","rhythm_ratio":1.0,"mirror":false,"chromatic_density":0.278,"complexity":0.713,"dissonance":0.083},{"voice":2,"pitch":58,"start":72.923,"duration":0.9231,"velocity":127,"measure":20,"beat":4.0,"subject_pos":-1,"motif":"","motif_pos":-1,"best_pos":3,"similarity":0.786,"stretto":false,"stretto_voices":0,"combination":[],"aug_dim":"","rhythm_ratio":1.0,"mirror":false,"chromatic_density":0.278,"complexity":0.713,"dissonance":0.083},{"voice":3,"pitch":46,"start":72.923,"duration":0.6923,"velocity":127,"measure":20,"beat":4.0,"subject_pos":-1,"motif":"head_inv","motif_pos":1,"best_pos":1,"similarity":1.0,"stretto":false,"stretto_voices":0,"combination":[],"aug_dim":"","rhythm_ratio":1.0,"mirror":false,"chromatic_density":0.278,"complexity":0.713,"dissonance":0.083},{"voice":1,"pitch":62,"start":73.1538,"duration":0.2308,"velocity":127,"measure":20,"beat":4.25,"subject_pos":-1,"motif":"","motif_pos":-1,"best_pos":0,"similarity":0.429,"stretto":false,"stretto_voices":0,"combination":[],"aug_dim":"","rhythm_ratio":1.0,"mirror":false,"chromatic_density":0.278,"complexity":0.713,"dissonance":0.083},{"voice":1,"pitch":67,"start":73.3845,"duration":0.9231,"velocity":127,"measure":20,"beat":4.5,"subject_pos":-1,"motif":"","motif_pos":-1,"best_pos":1,"similarity":0.579,"stretto":false,"stretto_voices":0,"combination":[],"aug_dim":"","rhythm_ratio":1.0,"mirror":false,"chromatic_density":0.278,"complexity":0.713,"dissonance":0.083},{"voice":3,"pitch":48,"start":73.6153,"duration":0.2308,"velocity":127,"measure":20,"beat":4.75,"subject_pos":-1,"motif":"head_inv","motif_pos":2,"best_pos":2,"similarity":1.0,"stretto":false,"stretto_voices":0,"combination":[],"aug_dim":"","rhythm_ratio":1.0,"mirror":false,"chromatic_density":0.278,"complexity":0.713,"dissonance":0.083},{"voice":2,"pitch":57,"start":73.8461,"duration":1.3846,"velocity":127,"measure":21,"beat":1.0,"subject_pos":-1,"motif":"","motif_pos":-1,"best_pos":4,"similarity":0.893,"stretto":false,"stretto_voices":0,"combination":[],"aug_dim":"","rhythm_ratio":1.0,"mirror":false,"chromatic_density":0.304,"complexity":0.648,"dissonance":0.052},{"voice":3,"pitch":50,"start":73.8461,"duration":0.6923,"velocity":127,"measure":21,"beat":1.0,"subject_pos":-1,"motif":"head_inv","motif_pos":3,"best_pos":3,"similarity":1.0,"stretto":false,"stretto_voices":0,"combination":[],"aug_dim":"","rhythm_ratio":1.0,"mirror":false,"chromatic_density":0.304,"complexity":0.648,"dissonance":0.052},{"voice":0,"pitch":69,"start":74.0768,"duration":0.2308,"velocity":127,"measure":21,"beat":1.25,"subject_pos":-1,"motif":"","motif_pos":-1,"best_pos":0,"similarity":0.429,"stretto":false,"stretto_voices":0,"combination":[],"aug_dim":"","rhythm_ratio":1.0,"mirror":false,"chromatic_density":0.304,"complexity":0.648,"dissonance":0.052},{"voice":0,"pitch":74,"start":74.3076,"duration":0.6923,"velocity":127,"measure":21,"beat":1.5,"subject_pos":-1,"motif":"","motif_pos":-1,"best_pos":1,"similarity":0.589,"stretto":false,"stretto_voices":0,"combination":[],"aug_dim":"","rhythm_ratio":1.0,"mirror":false,"chromatic_density":0.304,"complexity":0.648,"dissonance":0.052},{"voice":1,"pitch":65,"start":74.3076,"duration":0.2308,"velocity":127,"measure":21,"beat":1.5,"subject_pos":-1,"motif":"","motif_pos":-1,"best_pos":2,"similarity":0.514,"stretto":false,"stretto_voices":0,"combination":[],"aug_dim":"","rhythm_ratio":1.0,"mirror":false,"chromatic_density":0.304,"complexity":0.648,"dissonance":0.052},{"voice":1,"pitch":67,"start":74.5384,"duration":0.2308,"velocity":127,"measure":21,"beat":1.75,"subject_pos":-1,"motif":"","motif_pos":-1,"best_pos":5,"similarity":0.643,"stretto":false,"stretto_voices":0,"combination":[],"aug_dim":"","rhythm_ratio":1.0,"mirror":false,"chromatic_density":0.304,"complexity":0.648,"dissonance":0.052},{"voice":3,"pitch":51,"start":74.5384,"duration":0.2308,"velocity":127,"measure":21,"beat":1.75,"subject_pos":-1,"motif":"head_inv","motif_pos":4,"best_pos":4,"similarity":1.0,"stretto":false,"stretto_voices":0,"combination":[],"aug_dim":"","rhythm_ratio":1.0,"mirror":false,"chromatic_density":0.304,"complexity":0.648,"dissonance":0.052},{"voice":1,"pitch":69,"start":74.7692,"duration":1.1538,"velocity":127,"measure":21,"beat":2.0,"subject_pos":-1,"motif":"","motif_pos":-1,"best_pos":6,"similarity":0.679,"stretto":false,"stretto_voices":0,"combination":[],"aug_dim":"","rhythm_ratio":1.0,"mirror":false,"chromatic_density":0.304,"complexity":0.648,"dissonance":0.052},{"voice":3,"pitch":53,"start":74.7692,"duration":1.8462,"velocity":127,"measure":21,"beat":2.0,"subject_pos":-1,"motif":"","motif_pos":-1,"best_pos":6,"similarity":0.579,"stretto":false,"stretto_voices":0,"combination":[],"aug_dim":"","rhythm_ratio":1.0,"mirror":false,"chromatic_density":0.304,"complexity":0.648,"dissonance":0.052},{"voice":0,"pitch":72,"start":74.9999,"duration":0.2308,"velocity":127,"measure":21,"beat":2.25,"subject_pos":-1,"motif":"","motif_pos":-1,"best_pos":2,"similarity":0.5,"stretto":false,"stretto_voices":0,"combination":[],"aug_dim":"","rhythm_ratio":1.0,"mirror":false,"chromatic_density":0.304,"complexity":0.648,"dissonance":0.052},{"voice":0,"pitch":74,"start":75.2307,"duration":0.2308,"velocity":127,"measure":21,"beat":2.5,"subject_pos":-1,"motif":"","motif_pos":-1,"best_pos":6,"similarity":0.586,"stretto":false,"stretto_voices":0,"combination":[],"aug_dim":"","rhythm_ratio":1.0,"mirror":false,"chromatic_density":0.304,"complexity":0.648,"dissonance":0.052},{"voice":2,"pitch":58,"start":75.2307,"duration":0.2308,"velocity":127,"measure":21,"beat":2.5,"subject_pos":-1,"motif":"","motif_pos":-1,"best_pos":5,"similarity":0.821,"stretto":false,"stretto_voices":0,"combination":[],"aug_dim":"","rhythm_ratio":1.0,"mirror":false,"chromatic_density":0.304,"complexity":0.648,"dissonance":0.052},{"voice":0,"pitch":75,"start":75.4615,"duration":0.2308,"velocity":127,"measure":21,"beat":2.75,"subject_pos":-1,"motif":"","motif_pos":-1,"best_pos":5,"similarity":0.693,"stretto":false,"stretto_voices":0,"combination":[],"aug_dim":"","rhythm_ratio":1.0,"mirror":false,"chromatic_density":0.304,"complexity":0.648,"dissonance":0.052},{"voice":2,"pitch":60,"start":75.4615,"duration":0.2308,"velocity":127,"measure":21,"beat":2.75,"subject_pos":-1,"motif":"","motif_pos":-1,"best_pos":6,"similarity":0.643,"stretto":false,"stretto_voices":0,"combination":[],"aug_dim":"","rhythm_ratio":1.0,"mirror":false,"chromatic_density":0.304,"complexity":0.648,"dissonance":0.052},{"voice":0,"pitch":77,"start":75.6922,"duration":1.1538,"velocity":127,"measure":21,"beat":3.0,"subject_pos":-1,"motif":"","motif_pos":-1,"best_pos":6,"similarity":0.579,"stretto":false,"stretto_voices":0,"combination":[],"aug_dim":"","rhythm_ratio":1.0,"mirror":false,"chromatic_density":0.304,"complexity":0.648,"dissonance":0.052},{"voice":2,"pitch":62,"start":75.6922,"duration":1.1538,"velocity":127,"measure":21,"beat":3.0,"subject_pos":-1,"motif":"","motif_pos":-1,"best_pos":6,"similarity":0.661,"stretto":false,"stretto_voices":0,"combination":[],"aug_dim":"","rhythm_ratio":1.0,"mirror":false,"chromatic_density":0.304,"complexity":0.648,"dissonance":0.052},{"voice":1,"pitch":70,"start":75.923,"duration":0.2308,"velocity":127,"measure":21,"beat":3.25,"subject_pos":-1,"motif":"","motif_pos":-1,"best_pos":5,"similarity":0.6,"stretto":false,"stretto_voices":0,"combination":[],"aug_dim":"","rhythm_ratio":1.0,"mirror":false,"chromatic_density":0.304,"complexity":0.648,"dissonance":0.052},{"voice":1,"pitch":72,"start":76.1538,"duration":0.2308,"velocity":127,"measure":21,"beat":3.5,"subject_pos":-1,"motif":"","motif_pos":-1,"best_pos":6,"similarity":0.464,"stretto":false,"stretto_voices":0,"combination":[],"aug_dim":"","rhythm_ratio":1.0,"mirror":false,"chromatic_density":0.304,"complexity":0.648,"dissonance":0.052},{"voice":1,"pitch":69,"start":76.3845,"duration":0.2308,"velocity":127,"measure":21,"beat":3.75,"subject_pos":-1,"motif":"","motif_pos":-1,"best_pos":3,"similarity":0.457,"stretto":false,"stretto_voices":0,"combination":[],"aug_dim":"","rhythm_ratio":1.0,"mirror":false,"chromatic_density":0.304,"complexity":0.648,"dissonance":0.052},{"voice":1,"pitch":70,"start":76.6153,"duration":1.1538,"velocity":127,"measure":21,"beat":4.0,"subject_pos":-1,"motif":"","motif_pos":-1,"best_pos":5,"similarity":0.429,"stretto":false,"stretto_voices":0,"combination":[],"aug_dim":"","rhythm_ratio":1.0,"mirror":false,"chromatic_density":0.304,"complexity":0.648,"dissonance":0.052},{"voice":3,"pitch":55,"start":76.6153,"duration":1.3846,"velocity":127,"measure":21,"beat":4.0,"subject_pos":-1,"motif":"","motif_pos":-1,"best_pos":1,"similarity":0.457,"stretto":false,"stretto_voices":0,"combination":[],"aug_dim":"","rhythm_ratio":1.0,"mirror":false,"chromatic_density":0.304,"complexity":0.648,"dissonance":0.052},{"voice":0,"pitch":79,"start":76.8461,"duration":0.2308,"velocity":127,"measure":21,"beat":4.25,"subject_pos":-1,"motif":"","motif_pos":-1,"best_pos":1,"similarity":0.457,"stretto":false,"stretto_voices":0,"combination":[],"aug_dim":"","rhythm_ratio":1.0,"mirror":false,"chromatic_density":0.304,"complexity":0.648,"dissonance":0.052},{"voice":2,"pitch":63,"start":76.8461,"duration":0.2308,"velocity":127,"measure":21,"beat":4.25,"subject_pos":-1,"motif":"","motif_pos":-1,"best_pos":7,"similarity":0.464,"stretto":false,"stretto_voices":0,"combination":[],"aug_dim":"","rhythm_ratio":1.0,"mirror":false,"chromatic_density":0.304,"complexity":0.648,"dissonance":0.052},{"voice":0,"pitch":77,"start":77.0768,"duration":0.2308,"velocity":127,"measure":21,"beat":4.5,"subject_pos":-1,"motif":"","motif_pos":-1,"best_pos":2,"similarity":0.621,"stretto":false,"stretto_voices":0,"combination":[],"aug_dim":"","rhythm_ratio":1.0,"mirror":false,"chromatic_density":0.304,"complexity":0.648,"dissonance":0.052},{"voice":2,"pitch":62,"start":77.0768,"duration":0.2308,"velocity":127,"measure":21,"beat":4.5,"subject_pos":-1,"motif":"","motif_pos":-1,"best_pos":2,"similarity":0.407,"stretto":false,"stretto_voices":0,"combination":[],"aug_dim":"","rhythm_ratio":1.0,"mirror":false,"chromatic_density":0.304,"complexity":0.648,"dissonance":0.052},{"voice":0,"pitch":75,"start":77.3076,"duration":0.2308,"velocity":127,"measure":21,"beat":4.75,"subject_pos":-1,"motif":"","motif_pos":-1,"best_pos":3,"similarity":0.657,"stretto":false,"stretto_voices":0,"combination":[],"aug_dim":"","rhythm_ratio":1.0,"mirror":false,"chromatic_density":0.304,"complexity":0.648,"dissonance":0.052},{"voice":2,"pitch":60,"start":77.3076,"duration":0.2308,"velocity":127,"measure":21,"beat":4.75,"subject_pos":-1,"motif":"","motif_pos":-1,"best_pos":2,"similarity":0.518,"stretto":false,"stretto_voices":0,"combination":[],"aug_dim":"","rhythm_ratio":1.0,"mirror":false,"chromatic_density":0.304,"complexity":0.648,"dissonance":0.052},{"voice":0,"pitch":74,"start":77.5384,"duration":1.1538,"velocity":127,"measure":22,"beat":1.0,"subject_pos":-1,"motif":"","motif_pos":-1,"best_pos":4,"similarity":0.593,"stretto":false,"stretto_voices":0,"combination":[],"aug_dim":"","rhythm_ratio":1.0,"mirror":false,"chromatic_density":0.333,"complexity":0.741,"dissonance":0.106},{"voice":2,"pitch":58,"start":77.5384,"duration":1.1538,"velocity":127,"measure":22,"beat":1.0,"subject_pos":-1,"motif":"","motif_pos":-1,"best_pos":3,"similarity":0.471,"stretto":false,"stretto_voices":0,"combination":[],"aug_dim":"","rhythm_ratio":1.0,"mirror":false,"chromatic_density":0.333,"complexity":0.741,"dissonance":0.106},{"voice":1,"pitch":70,"start":77.7692,"duration":0.2308,"velocity":127,"measure":22,"beat":1.25,"subject_pos":-1,"motif":"","motif_pos":-1,"best_pos":3,"similarity":0.35,"stretto":false,"stretto_voices":0,"combination":[],"aug_dim":"","rhythm_ratio":1.0,"mirror":false,"chromatic_density":0.333,"complexity":0.741,"dissonance":0.106},{"voice":1,"pitch":69,"start":77.9999,"duration":0.2308,"velocity":127,"measure":22,"beat":1.5,"subject_pos":-1,"motif":"","motif_pos":-1,"best_pos":2,"similarity":0.393,"stretto":false,"stretto_voices":0,"combination":[],"aug_dim":"","rhythm_ratio":1.0,"mirror":false,"chromatic_density":0.333,"complexity":0.741,"dissonance":0.106},{"voice":3,"pitch":53,"start":77.9999,"duration":0.2308,"velocity":127,"measure":22,"beat":1.5,"subject_pos":-1,"motif":"","motif_pos":-1,"best_pos":2,"similarity":0.593,"stretto":false,"stretto_voices":0,"combination":[],"aug_dim":"","rhythm_ratio":1.0,"mirror":false,"chromatic_density":0.333,"complexity":0.741,"dissonance":0.106},{"voice":1,"pitch":67,"start":78.2307,"duration":0.2308,"velocity":127,"measure":22,"beat":1.75,"subject_pos":-1,"motif":"","motif_pos":-1,"best_pos":2,"similarity":0.45,"stretto":false,"stretto_voices":0,"combination":[],"aug_dim":"","rhythm_ratio":1.0,"mirror":false,"chromatic_density":0.333,"complexity":0.741,"dissonance":0.106},{"voice":3,"pitch":51,"start":78.2307,"duration":0.2308,"velocity":127,"measure":22,"beat":1.75,"subject_pos":-1,"motif":"","motif_pos":-1,"best_pos":3,"similarity":0.664,"stretto":false,"stretto_voices":0,"combination":[],"aug_dim":"","rhythm_ratio":1.0,"mirror":false,"chromatic_density":0.333,"complexity":0.741,"dissonance":0.106},{"voice":1,"pitch":65,"start":78.4615,"duration":2.0769,"velocity":127,"measure":22,"beat":2.0,"subject_pos":-1,"motif":"","motif_pos":-1,"best_pos":4,"similarity":0.425,"stretto":false,"stretto_voices":0,"combination":[],"aug_dim":"","rhythm_ratio":1.0,"mirror":false,"chromatic_density":0.333,"complexity":0.741,"dissonance":0.106},{"voice":3,"pitch":50,"start":78.4615,"duration":1.1538,"velocity":127,"measure":22,"beat":2.0,"subject_pos":-1,"motif":"","motif_pos":-1,"best_pos":4,"similarity":0.636,"stretto":false,"stretto_voices":0,"combination":[],"aug_dim":"","rhythm_ratio":1.0,"mirror":false,"chromatic_density":0.333,"complexity":0.741,"dissonance":0.106},{"voice":0,"pitch":74,"start":78.6922,"duration":0.2308,"velocity":127,"measure":22,"beat":2.25,"subject_pos":-1,"motif":"","motif_pos":-1,"best_pos":1,"similarity":0.429,"stretto":false,"stretto_voices":0,"combination":[],"aug_dim":"","rhythm_ratio":1.0,"mirror":false,"chromatic_density":0.333,"complexity":0.741,"dissonance":0.106},{"voice":2,"pitch":58,"start":78.6922,"duration":0.2308,"velocity":127,"measure":22,"beat":2.25,"subject_pos":-1,"motif":"","motif_pos":-1,"best_pos":3,"similarity":0.479,"stretto":false,"stretto_voices":0,"combination":[],"aug_dim":"","rhythm_ratio":1.0,"mirror":false,"chromatic_density":0.333,"complexity":0.741,"dissonance":0.106},{"voice":0,"pitch":72,"start":78.923,"duration":0.2308,"velocity":127,"measure":22,"beat":2.5,"subject_pos":-1,"motif":"","motif_pos":-1,"best_pos":2,"similarity":0.571,"stretto":false,"stretto_voices":0,"combination":[],"aug_dim":"","rhythm_ratio":1.0,"mirror":false,"chromatic_density":0.333,"complexity":0.741,"dissonance":0.106},{"voice":2,"pitch":57,"start":78.923,"duration":0.2308,"velocity":127,"measure":22,"beat":2.5,"subject_pos":-1,"motif":"","motif_pos":-1,"best_pos":4,"similarity":0.421,"stretto":false,"stretto_voices":0,"combination":[],"aug_dim":"","rhythm_ratio":1.0,"mirror":false,"chromatic_density":0.333,"complexity":0.741,"dissonance":0.106},{"voice":0,"pitch":70,"start":79.1538,"duration":0.2308,"velocity":127,"measure":22,"beat":2.75,"subject_pos":-1,"motif":"enigmatic_cell","motif_pos":0,"best_pos":0,"similarity":1.0,"stretto":false,"stretto_voices":0,"combination":[],"aug_dim":"","rhythm_ratio":1.0,"mirror":false,"chromatic_density":0.333,"complexity":0.741,"dissonance":0.106},{"voice":2,"pitch":55,"start":79.1538,"duration":0.2308,"velocity":127,"measure":22,"beat":2.75,"subject_pos":-1,"motif":"","motif_pos":-1,"best_pos":2,"similarity":0.464,"stretto":false,"stretto_voices":0,"combination":[],"aug_dim":"","rhythm_ratio":1.0,"mirror":false,"chromatic_density":0.333,"complexity":0.741,"dissonance":0.106},{"voice":0,"pitch":69,"start":79.3845,"duration":0.2308,"velocity":127,"measure":22,"beat":3.0,"subject_pos":-1,"motif":"enigmatic_cell","motif_pos":1,"best_pos":1,"similarity":1.0,"stretto":false,"stretto_voices":0,"combination":[],"aug_dim":"","rhythm_ratio":1.0,"mirror":false,"chromatic_density":0.333,"complexity":0.741,"dissonance":0.106},{"voice":2,"pitch":53,"start":79.3845,"duration":0.4615,"velocity":127,"measure":22,"beat":3.0,"subject_pos":-1,"motif":"","motif_pos":-1,"best_pos":2,"similarity":0.375,"stretto":false,"stretto_voices":0,"combination":[],"aug_dim":"","rhythm_ratio":1.0,"mirror":false,"chromatic_density":0.333,"complexity":0.741,"dissonance":0.106},{"voice":0,"pitch":75,"start":79.6153,"duration":0.2308,"velocity":127,"measure":22,"beat":3.25,"subject_pos":-1,"motif":"enigmatic_cell","motif_pos":2,"best_pos":2,"similarity":1.0,"stretto":false,"stretto_voices":0,"combination":[],"aug_dim":"","rhythm_ratio":1.0,"mirror":false,"chromatic_density":0.333,"complexity":0.741,"dissonance":0.106},{"voice":3,"pitch":48,"start":79.6153,"duration":0.2308,"velocity":127,"measure":22,"beat":3.25,"subject_pos":-1,"motif":"","motif_pos":-1,"best_pos":4,"similarity":0.607,"stretto":false,"stretto_voices":0,"combination":[],"aug_dim":"","rhythm_ratio":1.0,"mirror":false,"chromatic_density":0.333,"complexity":0.741,"dissonance":0.106},{"voice":0,"pitch":74,"start":79.8461,"duration":0.4615,"velocity":127,"measure":22,"beat":3.5,"subject_pos":-1,"motif":"","motif_pos":-1,"best_pos":2,"similarity":0.446,"stretto":false,"stretto_voices":0,"combination":[],"aug_dim":"","rhythm_ratio":1.0,"mirror":false,"chromatic_density":0.333,"complexity":0.741,"dissonance":0.106},{"voice":2,"pitch":58,"start":79.8461,"duration":0.6923,"velocity":127,"measure":22,"beat":3.5,"subject_pos":-1,"motif":"","motif_pos":-1,"best_pos":1,"similarity":0.429,"stretto":false,"stretto_voices":0,"combination":[],"aug_dim":"","rhythm_ratio":1.0,"mirror":false,"chromatic_density":0.333,"complexity":0.741,"dissonance":0.106},{"voice":3,"pitch":50,"start":79.8461,"duration":0.2308,"velocity":127,"measure":22,"beat":3.5,"subject_pos":-1,"motif":"","motif_pos":-1,"best_pos":5,"similarity":0.661,"stretto":false,"stretto_voices":0,"combination":[],"aug_dim":"","rhythm_ratio":1.0,"mirror":false,"chromatic_density":0.333,"complexity":0.741,"dissonance":0.106},{"voice":3,"pitch":52,"start":80.0768,"duration":0.2308,"velocity":127,"measure":22,"beat":3.75,"subject_pos":-1,"motif":"enigmatic_cell","motif_pos":0,"best_pos":0,"similarity":1.0,"stretto":false,"stretto_voices":0,"combination":[],"aug_dim":"","rhythm_ratio":1.0,"mirror":false,"chromatic_density":0.333,"complexity":0.741,"dissonance":0.106},{"voice":0,"pitch":72,"start":80.3076,"duration":1.1538,"velocity":127,"measure":22,"beat":4.0,"subject_pos":-1,"motif":"","motif_pos":-1,"best_pos":2,"similarity":0.579,"stretto":false,"stretto_voices":0,"combination":[],"aug_dim":"","rhythm_ratio":1.0,"mirror":false,"chromatic_density":0.333,"complexity":0.741,"dissonance":0.106},{"voice":3,"pitch":53,"start":80.3076,"duration":1.8462,"velocity":127,"measure":22,"beat":4.0,"subject_pos":-1,"motif":"enigmatic_cell","motif_pos":1,"best_pos":1,"similarity":1.0,"stretto":false,"stretto_voices":0,"combination":[],"aug_dim":"","rhythm_ratio":1.0,"mirror":false,"chromatic_density":0.333,"complexity":0.741,"dissonance":0.106},{"voice":1,"pitch":67,"start":80.5384,"duration":0.2308,"velocity":127,"measure":22,"beat":4.25,"subject_pos":-1,"motif":"","motif_pos":-1,"best_pos":2,"similarity":0.386,"stretto":false,"stretto_voices":0,"combination":[],"aug_dim":"","rhythm_ratio":1.0,"mirror":false,"chromatic_density":0.333,"complexity":0.741,"dissonance":0.106},{"voice":2,"pitch":58,"start":80.5384,"duration":0.2308,"velocity":127,"measure":22,"beat":4.25,"subject_pos":-1,"motif":"","motif_pos":-1,"best_pos":3,"similarity":0.4,"stretto":false,"stretto_voices":0,"combination":[],"aug_dim":"","rhythm_ratio":1.0,"mirror":false,"chromatic_density":0.333,"complexity":0.741,"dissonance":0.106},{"voice":1,"pitch":65,"start":80.7691,"duration":0.2308,"velocity":127,"measure":22,"beat":4.5,"subject_pos":-1,"motif":"","motif_pos":-1,"best_pos":3,"similarity":0.586,"stretto":false,"stretto_voices":0,"combination":[],"aug_dim":"","rhythm_ratio":1.0,"mirror":false,"chromatic_density":0.333,"complexity":0.741,"dissonance":0.106},{"voice":2,"pitch":57,"start":80.7691,"duration":0.2308,"velocity":127,"measure":22,"beat":4.5,"subject_pos":-1,"motif":"","motif_pos":-1,"best_pos":4,"similarity":0.479,"stretto":false,"stretto_voices":0,"combination":[],"aug_dim":"","rhythm_ratio":1.0,"mirror":false,"chromatic_density":0.333,"complexity":0.741,"dissonance":0.106},{"voice":1,"pitch":64,"start":80.9999,"duration":0.2308,"velocity":127,"measure":22,"beat":4.75,"subject_pos":-1,"motif":"","motif_pos":-1,"best_pos":4,"similarity":0.657,"stretto":false,"stretto_voices":0,"combination":[],"aug_dim":"","rhythm_ratio":1.0,"mirror":false,"chromatic_density":0.333,"complexity":0.741,"dissonance":0.106},{"voice":2,"pitch":55,"start":80.9999,"duration":0.2308,"velocity":127,"measure":22,"beat":4.75,"subject_pos":-1,"motif":"","motif_pos":-1,"best_pos":5,"similarity":0.479,"stretto":false,"stretto_voices":0,"combination":[],"aug_dim":"","rhythm_ratio":1.0,"mirror":false,"chromatic_density":0.333,"complexity":0.741,"dissonance":0.106},{"voice":1,"pitch":65,"start":81.2307,"duration":0.9231,"velocity":127,"measure":23,"beat":1.0,"subject_pos":-1,"motif":"","motif_pos":-1,"best_pos":5,"similarity":0.479,"stretto":false,"stretto_voices":0,"combination":[],"aug_dim":"","rhythm_ratio":1.0,"mirror":false,"chromatic_density":0.32,"complexity":0.676,"dissonance":0.153},{"voice":2,"pitch":57,"start":81.2307,"duration":0.2308,"velocity":127,"measure":23,"beat":1.0,"subject_pos":-1,"motif":"","motif_pos":-1,"best_pos":1,"similarity":0.457,"stretto":false,"stretto_voices":0,"combination":[],"aug_dim":"","rhythm_ratio":1.0,"mirror":false,"chromatic_density":0.32,"complexity":0.676,"dissonance":0.153},{"voice":0,"pitch":70,"start":81.4615,"duration":0.2308,"velocity":127,"measure":23,"beat":1.25,"subject_pos":-1,"motif":"","motif_pos":-1,"best_pos":3,"similarity":0.657,"stretto":false,"stretto_voices":0,"combination":[],"aug_dim":"","rhythm_ratio":1.0,"mirror":false,"chromatic_density":0.32,"complexity":0.676,"dissonance":0.153},{"voice":2,"pitch":55,"start":81.4615,"duration":0.2308,"velocity":127,"measure":23,"beat":1.25,"subject_pos":-1,"motif":"","motif_pos":-1,"best_pos":2,"similarity":0.657,"stretto":false,"stretto_voices":0,"combination":[],"aug_dim":"","rhythm_ratio":1.0,"mirror":false,"chromatic_density":0.32,"complexity":0.676,"dissonance":0.153},{"voice":0,"pitch":69,"start":81.6922,"duration":0.2308,"velocity":127,"measure":23,"beat":1.5,"subject_pos":-1,"motif":"","motif_pos":-1,"best_pos":4,"similarity":0.607,"stretto":false,"stretto_voices":0,"combination":[],"aug_dim":"","rhythm_ratio":1.0,"mirror":false,"chromatic_density":0.32,"complexity":0.676,"dissonance":0.153},{"voice":2,"pitch":53,"start":81.6922,"duration":0.2308,"velocity":127,"measure":23,"beat":1.5,"subject_pos":-1,"motif":"","motif_pos":-1,"best_pos":3,"similarity":0.721,"stretto":false,"stretto_voices":0,"combination":[],"aug_dim":"","rhythm_ratio":1.0,"mirror":false,"chromatic_density":0.32,"complexity":0.676,"dissonance":0.153},{"voice":0,"pitch":67,"start":81.923,"duration":0.2308,"velocity":127,"measure":23,"beat":1.75,"subject_pos":-1,"motif":"","motif_pos":-1,"best_pos":5,"similarity":0.507,"stretto":false,"stretto_voices":0,"combination":[],"aug_dim":"","rhythm_ratio":1.0,"mirror":false,"chromatic_density":0.32,"complexity":0.676,"dissonance":0.153},{"voice":2,"pitch":52,"start":81.923,"duration":0.2308,"velocity":127,"measure":23,"beat":1.75,"subject_pos":-1,"motif":"","motif_pos":-1,"best_pos":4,"similarity":0.721,"stretto":false,"stretto_voices":0,"combination":[],"aug_dim":"","rhythm_ratio":1.0,"mirror":false,"chromatic_density":0.32,"complexity":0.676,"dissonance":0.153},{"voice":0,"pitch":69,"start":82.1538,"duration":0.2308,"velocity":127,"measure":23,"beat":2.0,"subject_pos":-1,"motif":"","motif_pos":-1,"best_pos":6,"similarity":0.4,"stretto":false,"stretto_voices":0,"combination":[],"aug_dim":"","rhythm_ratio":1.0,"mirror":false,"chromatic_density":0.32,"complexity":0.676,"dissonance":0.153},{"voice":1,"pitch":72,"start":82.1538,"duration":0.6923,"velocity":127,"measure":23,"beat":2.0,"subject_pos":-1,"motif":"","motif_pos":-1,"best_pos":1,"similarity":0.643,"stretto":false,"stretto_voices":0,"combination":[],"aug_dim":"","rhythm_ratio":1.0,"mirror":false,"chromatic_density":0.32,"complexity":0.676,"dissonance":0.153},{"voice":2,"pitch":53,"start":82.1538,"duration":2.7692,"velocity":127,"measure":23,"beat":2.0,"subject_pos":-1,"motif":"","motif_pos":-1,"best_pos":5,"similarity":0.479,"stretto":false,"stretto_voices":0,"combination":[],"aug_dim":"","rhythm_ratio":1.0,"mirror":false,"chromatic_density":0.32,"complexity":0.676,"dissonance":0.153},{"voice":0,"pitch":67,"start":82.3845,"duration":0.2308,"velocity":127,"measure":23,"beat":2.25,"subject_pos":-1,"motif":"","motif_pos":-1,"best_pos":2,"similarity":0.461,"stretto":false,"stretto_voices":0,"combination":[],"aug_dim":"","rhythm_ratio":1.0,"mirror":false,"chromatic_density":0.32,"complexity":0.676,"dissonance":0.153},{"voice":3,"pitch":46,"start":82.3845,"duration":0.2308,"velocity":127,"measure":23,"beat":2.25,"subject_pos":-1,"motif":"enigmatic_cell","motif_pos":2,"best_pos":2,"similarity":1.0,"stretto":false,"stretto_voices":0,"combination":[],"aug_dim":"","rhythm_ratio":1.0,"mirror":false,"chromatic_density":0.32,"complexity":0.676,"dissonance":0.153},{"voice":0,"pitch":65,"start":82.6153,"duration":0.4615,"velocity":127,"measure":23,"beat":2.5,"subject_pos":-1,"motif":"","motif_pos":-1,"best_pos":2,"similarity":0.5,"stretto":false,"stretto_voices":0,"combination":[],"aug_dim":"","rhythm_ratio":1.0,"mirror":false,"chromatic_density":0.32,"complexity":0.676,"dissonance":0.153},{"voice":3,"pitch":45,"start":82.6153,"duration":0.2308,"velocity":127,"measure":23,"beat":2.5,"subject_pos":-1,"motif":"","motif_pos":-1,"best_pos":2,"similarity":0.364,"stretto":false,"stretto_voices":0,"combination":[],"aug_dim":"","rhythm_ratio":1.0,"mirror":false,"chromatic_density":0.32,"complexity":0.676,"dissonance":0.153},{"voice":1,"pitch":70,"start":82.8461,"duration":0.2308,"velocity":127,"measure":23,"beat":2.75,"subject_pos":-1,"motif":"","motif_pos":-1,"best_pos":2,"similarity":0.579,"stretto":false,"stretto_voices":0,"combination":[],"aug_dim":"","rhythm_ratio":1.0,"mirror":false,"chromatic_density":0.32,"complexity":0.676,"dissonance":0.153},{"voice":3,"pitch":43,"start":82.8461,"duration":0.2308,"velocity":127,"measure":23,"beat":2.75,"subject_pos":-1,"motif":"","motif_pos":-1,"best_pos":2,"similarity":0.5,"stretto":false,"stretto_voices":0,"combination":[],"aug_dim":"","rhythm_ratio":1.0,"mirror":false,"chromatic_density":0.32,"complexity":0.676,"dissonance":0.153},{"voice":0,"pitch":72,"start":83.0768,"duration":1.1538,"velocity":127,"measure":23,"beat":3.0,"subject_pos":-1,"motif":"","motif_pos":-1,"best_pos":3,"similarity":0.643,"stretto":false,"stretto_voices":0,"combination":[],"aug_dim":"","rhythm_ratio":1.0,"mirror":false,"chromatic_density":0.32,"complexity":0.676,"dissonance":0.153},{"voice":1,"pitch":69,"start":83.0768,"duration":0.6923,"velocity":127,"measure":23,"beat":3.0,"subject_pos":-1,"motif":"","motif_pos":-1,"best_pos":3,"similarity":0.45,"stretto":false,"stretto_voices":0,"combination":[],"aug_dim":"","rhythm_ratio":1.0,"mirror":false,"chromatic_density":0.32,"complexity":0.676,"dissonance":0.153},{"voice":3,"pitch":41,"start":83.0768,"duration":0.2308,"velocity":127,"measure":23,"beat":3.0,"subject_pos":-1,"motif":"","motif_pos":-1,"best_pos":3,"similarity":0.5,"stretto":false,"stretto_voices":0,"combination":[],"aug_dim":"","rhythm_ratio":1.0,"mirror":false,"chromatic_density":0.32,"complexity":0.676,"dissonance":0.153},{"voice":3,"pitch":45,"start":83.3076,"duration":0.2308,"velocity":127,"measure":23,"beat":3.25,"subject_pos":-1,"motif":"","motif_pos":-1,"best_pos":4,"similarity":0.607,"stretto":false,"stretto_voices":0,"combination":[],"aug_dim":"","rhythm_ratio":1.0,"mirror":false,"chromatic_density":0.32,"complexity":0.676,"dissonance":0.153},{"voice":3,"pitch":46,"start":83.5384,"duration":0.2308,"velocity":127,"measure":23,"beat":3.5,"subject_pos":-1,"motif":"","motif_pos":-1,"best_pos":5,"similarity":0.679,"stretto":false,"stretto_voices":0,"combination":[],"aug_dim":"","rhythm_ratio":1.0,"mirror":false,"chromatic_density":0.32,"complexity":0.676,"dissonance":0.153},{"voice":1,"pitch":67,"start":83.7691,"duration":0.2308,"velocity":127,"measure":23,"beat":3.75,"subject_pos":-1,"motif":"","motif_pos":-1,"best_pos":2,"similarity":0.643,"stretto":false,"stretto_voices":0,"combination":[],"aug_dim":"","rhythm_ratio":1.0,"mirror":false,"chromatic_density":0.32,"complexity":0.676,"dissonance":0.153},{"voice":3,"pitch":48,"start":83.7691,"duration":0.2308,"velocity":127,"measure":23,"beat":3.75,"subject_pos":-1,"motif":"","motif_pos":-1,"best_pos":6,"similarity":0.571,"stretto":false,"stretto_voices":0,"combination":[],"aug_dim":"","rhythm_ratio":1.0,"mirror":false,"chromatic_density":0.32,"complexity":0.676,"dissonance":0.153},{"voice":1,"pitch":65,"start":83.9999,"duration":0.9231,"velocity":127,"measure":23,"beat":4.0,"subject_pos":-1,"motif":"","motif_pos":-1,"best_pos":3,"similarity":0.786,"stretto":false,"stretto_voices":0,"combination":[],"aug_dim":"","rhythm_ratio":1.0,"mirror":false,"chromatic_density":0.32,"complexity":0.676,"dissonance":0.153},{"voice":3,"pitch":50,"start":83.9999,"duration":0.9231,"velocity":127,"measure":23,"beat":4.0,"subject_pos":-1,"motif":"","motif_pos":-1,"best_pos":6,"similarity":0.375,"stretto":false,"stretto_voices":0,"combination":[],"aug_dim":"","rhythm_ratio":1.0,"mirror":false,"chromatic_density":0.32,"complexity":0.676,"dissonance":0.153},{"voice":0,"pitch":71,"start":84.2307,"duration":0.2308,"velocity":127,"measure":23,"beat":4.25,"subject_pos":-1,"motif":"","motif_pos":-1,"best_pos":4,"similarity":0.786,"stretto":false,"stretto_voices":0,"combination":[],"aug_dim":"","rhythm_ratio":1.0,"mirror":false,"chromatic_density":0.32,"complexity":0.676,"dissonance":0.153},{"voice":0,"pitch":72,"start":84.4615,"duration":0.2308,"velocity":127,"measure":23,"beat":4.5,"subject_pos":-1,"motif":"","motif_pos":-1,"best_pos":5,"similarity":0.714,"stretto":false,"stretto_voices":0,"combination":[],"aug_dim":"","rhythm_ratio":1.0,"mirror":false,"chromatic_density":0.32,"complexity":0.676,"dissonance":0.153},{"voice":0,"pitch":74,"start":84.6922,"duration":0.2308,"velocity":127,"measure":23,"beat":4.75,"subject_pos":-1,"motif":"","motif_pos":-1,"best_pos":6,"similarity":0.5,"stretto":false,"stretto_voices":0,"combination":[],"aug_dim":"","rhythm_ratio":1.0,"mirror":false,"chromatic_density":0.32,"complexity":0.676,"dissonance":0.153},{"voice":0,"pitch":67,"start":84.923,"duration":0.9231,"velocity":127,"measure":24,"beat":1.0,"subject_pos":-1,"motif":"","motif_pos":-1,"best_pos":0,"similarity":0.3,"stretto":false,"stretto_voices":0,"combination":[],"aug_dim":"","rhythm_ratio":1.0,"mirror":false,"chromatic_density":0.333,"complexity":0.668,"dissonance":0.1},{"voice":1,"pitch":64,"start":84.923,"duration":0.9231,"velocity":127,"measure":24,"beat":1.0,"subject_pos":-1,"motif":"","motif_pos":-1,"best_pos":4,"similarity":0.893,"stretto":false,"stretto_voices":0,"combination":[],"aug_dim":"","rhythm_ratio":1.0,"mirror":false,"chromatic_density":0.333,"complexity":0.668,"dissonance":0.1},{"voice":2,"pitch":60,"start":84.923,"duration":2.7692,"velocity":127,"measure":24,"beat":1.0,"subject_pos":-1,"motif":"","motif_pos":-1,"best_pos":1,"similarity":0.643,"stretto":false,"stretto_voices":0,"combination":[],"aug_dim":"","rhythm_ratio":1.0,"mirror":false,"chromatic_density":0.333,"complexity":0.668,"dissonance":0.1},{"voice":3,"pitch":36,"start":85.1538,"duration":0.2308,"velocity":127,"measure":24,"beat":1.25,"subject_pos":-1,"motif":"","motif_pos":-1,"best_pos":7,"similarity":0.179,"stretto":false,"stretto_voices":0,"combination":[],"aug_dim":"","rhythm_ratio":1.0,"mirror":false,"chromatic_density":0.333,"complexity":0.668,"dissonance":0.1},{"voice":3,"pitch":48,"start":85.3845,"duration":0.2308,"velocity":127,"measure":24,"beat":1.5,"subject_pos":-1,"motif":"","motif_pos":-1,"best_pos":1,"similarity":0.357,"stretto":false,"stretto_voices":0,"combination":[],"aug_dim":"","rhythm_ratio":1.0,"mirror":false,"chromatic_density":0.333,"complexity":0.668,"dissonance":0.1},{"voice":3,"pitch":46,"start":85.6153,"duration":0.2308,"velocity":127,"measure":24,"beat":1.75,"subject_pos":-1,"motif":"","motif_pos":-1,"best_pos":3,"similarity":0.45,"stretto":false,"stretto_voices":0,"combination":[],"aug_dim":"","rhythm_ratio":1.0,"mirror":false,"chromatic_density":0.333,"complexity":0.668,"dissonance":0.1},{"voice":1,"pitch":65,"start":85.8461,"duration":0.6923,"velocity":127,"measure":24,"beat":2.0,"subject_pos":-1,"motif":"","motif_pos":-1,"best_pos":5,"similarity":0.821,"stretto":false,"stretto_voices":0,"combination":[],"aug_dim":"","rhythm_ratio":1.0,"mirror":false,"chromatic_density":0.333,"complexity":0.668,"dissonance":0.1},{"voice":3,"pitch":45,"start":85.8461,"duration":0.2308,"velocity":127,"measure":24,"beat":2.0,"subject_pos":-1,"motif":"","motif_pos":-1,"best_pos":1,"similarity":0.429,"stretto":false,"stretto_voices":0,"combination":[],"aug_dim":"","rhythm_ratio":1.0,"mirror":false,"chromatic_density":0.333,"complexity":0.668,"dissonance":0.1},{"voice":3,"pitch":43,"start":86.0768,"duration":0.2308,"velocity":127,"measure":24,"beat":2.25,"subject_pos":-1,"motif":"","motif_pos":-1,"best_pos":2,"similarity":0.643,"stretto":false,"stretto_voices":0,"combination":[],"aug_dim":"","rhythm_ratio":1.0,"mirror":false,"chromatic_density":0.333,"complexity":0.668,"dissonance":0.1},{"voice":3,"pitch":41,"start":86.3076,"duration":0.2308,"velocity":127,"measure":24,"beat":2.5,"subject_pos":-1,"motif":"","motif_pos":-1,"best_pos":3,"similarity":0.714,"stretto":false,"stretto_voices":0,"combination":[],"aug_dim":"","rhythm_ratio":1.0,"mirror":false,"chromatic_density":0.333,"complexity":0.668,"dissonance":0.1},{"voice":1,"pitch":67,"start":86.5384,"duration":0.2308,"velocity":127,"measure":24,"beat":2.75,"subject_pos":-1,"motif":"","motif_pos":-1,"best_pos":6,"similarity":0.643,"stretto":false,"stretto_voices":0,"combination":[],"aug_dim":"","rhythm_ratio":1.0,"mirror":false,"chromatic_density":0.333,"complexity":0.668,"dissonance":0.1},{"voice":3,"pitch":40,"start":86.5384,"duration":0.2308,"velocity":127,"measure":24,"beat":2.75,"subject_pos":-1,"motif":"","motif_pos":-1,"best_pos":4,"similarity":0.721,"stretto":false,"stretto_voices":0,"combination":[],"aug_dim":"","rhythm_ratio":1.0,"mirror":false,"chromatic_density":0.333,"complexity":0.668,"dissonance":0.1},{"voice":0,"pitch":72,"start":86.7691,"duration":0.9231,"velocity":127,"measure":24,"beat":3.0,"subject_pos":-1,"motif":"head_inv","motif_pos":0,"best_pos":0,"similarity":1.0,"stretto":false,"stretto_voices":0,"combination":[],"aug_dim":"","rhythm_ratio":1.0,"mirror":false,"chromatic_density":0.333,"complexity":0.668,"dissonance":0.1},{"voice":1,"pitch":69,"start":86.7691,"duration":1.1538,"velocity":127,"measure":24,"beat":3.0,"subject_pos":-1,"motif":"","motif_pos":-1,"best_pos":6,"similarity":0.661,"stretto":false,"stretto_voices":0,"combination":[],"aug_dim":"","rhythm_ratio":1.0,"mirror":false,"chromatic_density":0.333,"complexity":0.668,"dissonance":0.1},{"voice":3,"pitch":41,"start":86.7691,"duration":0.2308,"velocity":127,"measure":24,"beat":3.0,"subject_pos":-1,"motif":"","motif_pos":-1,"best_pos":5,"similarity":0.479,"stretto":false,"stretto_voices":0,"combination":[],"aug_dim":"","rhythm_ratio":1.0,"mirror":false,"chromatic_density":0.333,"complexity":0.668,"dissonance":0.1},{"voice":3,"pitch":48,"start":86.9999,"duration":0.2308,"velocity":127,"measure":24,"beat":3.25,"subject_pos":-1,"motif":"","motif_pos":-1,"best_pos":0,"similarity":0.393,"stretto":false,"stretto_voices":0,"combination":[],"aug_dim":"","rhythm_ratio":1.0,"mirror":false,"chromatic_density":0.333,"complexity":0.668,"dissonance":0.1},{"voice":3,"pitch":53,"start":87.2307,"duration":0.2308,"velocity":127,"measure":24,"beat":3.5,"subject_pos":-1,"motif":"","motif_pos":-1,"best_pos":1,"similarity":0.536,"stretto":false,"stretto_voices":0,"combination":[],"aug_dim":"","rhythm_ratio":1.0,"mirror":false,"chromatic_density":0.333,"complexity":0.668,"dissonance":0.1},{"voice":3,"pitch":52,"start":87.4615,"duration":0.2308,"velocity":127,"measure":24,"beat":3.75,"subject_pos":-1,"motif":"","motif_pos":-1,"best_pos":2,"similarity":0.507,"stretto":false,"stretto_voices":0,"combination":[],"aug_dim":"","rhythm_ratio":1.0,"mirror":false,"chromatic_density":0.333,"complexity":0.668,"dissonance":0.1},{"voice":0,"pitch":65,"start":87.6922,"duration":0.6923,"velocity":127,"measure":24,"beat":4.0,"subject_pos":-1,"motif":"head_inv","motif_pos":1,"best_pos":1,"similarity":1.0,"stretto":false,"stretto_voices":0,"combination":[],"aug_dim":"","rhythm_ratio":1.0,"mirror":false,"chromatic_density":0.333,"complexity":0.668,"dissonance":0.1},{"voice":2,"pitch":58,"start":87.6922,"duration":0.9231,"velocity":127,"measure":24,"beat":4.0,"subject_pos":-1,"motif":"","motif_pos":-1,"best_pos":2,"similarity":0.579,"stretto":false,"stretto_voices":0,"combination":[],"aug_dim":"","rhythm_ratio":1.0,"mirror":false,"chromatic_density":0.333,"complexity":0.668,"dissonance":0.1},{"voice":3,"pitch":50,"start":87.6922,"duration":1.1538,"velocity":127,"measure":24,"beat":4.0,"subject_pos":-1,"motif":"","motif_pos":-1,"best_pos":3,"similarity":0.45,"stretto":false,"stretto_voices":0,"combination":[],"aug_dim":"","rhythm_ratio":1.0,"mirror":false,"chromatic_density":0.333,"complexity":0.668,"dissonance":0.1},{"voice":1,"pitch":70,"start":87.923,"duration":0.2308,"velocity":127,"measure":24,"beat":4.25,"subject_pos":-1,"motif":"","motif_pos":-1,"best_pos":7,"similarity":0.464,"stretto":false,"stretto_voices":0,"combination":[],"aug_dim":"","rhythm_ratio":1.0,"mirror":false,"chromatic_density":0.333,"complexity":0.668,"dissonance":0.1},{"voice":1,"pitch":69,"start":88.1538,"duration":0.2308,"velocity":127,"measure":24,"beat":4.5,"subject_pos":-1,"motif":"","motif_pos":-1,"best_pos":2,"similarity":0.407,"stretto":false,"stretto_voices":0,"combination":[],"aug_dim":"","rhythm_ratio":1.0,"mirror":false,"chromatic_density":0.333,"complexity":0.668,"dissonance":0.1},{"voice":0,"pitch":67,"start":88.3845,"duration":0.2308,"velocity":127,"measure":24,"beat":4.75,"subject_pos":-1,"motif":"head_inv","motif_pos":2,"best_pos":2,"similarity":1.0,"stretto":false,"stretto_voices":0,"combination":[],"aug_dim":"","rhythm_ratio":1.0,"mirror":false,"chromatic_density":0.333,"complexity":0.668,"dissonance":0.1},{"voice":1,"pitch":67,"start":88.3845,"duration":0.2308,"velocity":127,"measure":24,"beat":4.75,"subject_pos":-1,"motif":"","motif_pos":-1,"best_pos":2,"similarity":0.45,"stretto":false,"stretto_voices":0,"combination":[],"aug_dim":"","rhythm_ratio":1.0,"mirror":false,"chromatic_density":0.333,"complexity":0.668,"dissonance":0.1},{"voice":0,"pitch":69,"start":88.6153,"duration":0.6923,"velocity":127,"measure":25,"beat":1.0,"subject_pos":-1,"motif":"head_inv","motif_pos":3,"best_pos":3,"similarity":1.0,"stretto":false,"stretto_voices":0,"combination":[],"aug_dim":"","rhythm_ratio":1.0,"mirror":false,"chromatic_density":0.45,"complexity":0.621,"dissonance":0.131},{"voice":1,"pitch":65,"start":88.6153,"duration":1.1538,"velocity":127,"measure":25,"beat":1.0,"subject_pos":-1,"motif":"","motif_pos":-1,"best_pos":5,"similarity":0.418,"stretto":false,"stretto_voices":0,"combination":[],"aug_dim":"","rhythm_ratio":1.0,"mirror":false,"chromatic_density":0.45,"complexity":0.621,"dissonance":0.131},{"voice":2,"pitch":57,"start":88.6153,"duration":2.7692,"velocity":127,"measure":25,"beat":1.0,"subject_pos":-1,"motif":"","motif_pos":-1,"best_pos":3,"similarity":0.45,"stretto":false,"stretto_voices":0,"combination":[],"aug_dim":"","rhythm_ratio":1.0,"mirror":false,"chromatic_density":0.45,"complexity":0.621,"dissonance":0.131},{"voice":3,"pitch":50,"start":88.8461,"duration":0.2308,"velocity":127,"measure":25,"beat":1.25,"subject_pos":-1,"motif":"","motif_pos":-1,"best_pos":1,"similarity":0.429,"stretto":false,"stretto_voices":0,"combination":[],"aug_dim":"","rhythm_ratio":1.0,"mirror":false,"chromatic_density":0.45,"complexity":0.621,"dissonance":0.131},{"voice":3,"pitch":48,"start":89.0768,"duration":0.2308,"velocity":127,"measure":25,"beat":1.5,"subject_pos":-1,"motif":"","motif_pos":-1,"best_pos":2,"similarity":0.607,"stretto":false,"stretto_voices":0,"combination":[],"aug_dim":"","rhythm_ratio":1.0,"mirror":false,"chromatic_density":0.45,"complexity":0.621,"dissonance":0.131},{"voice":0,"pitch":70,"start":89.3076,"duration":0.2308,"velocity":127,"measure":25,"beat":1.75,"subject_pos":-1,"motif":"head_inv","motif_pos":4,"best_pos":4,"similarity":1.0,"stretto":false,"stretto_voices":0,"combination":[],"aug_dim":"","rhythm_ratio":1.0,"mirror":false,"chromatic_density":0.45,"complexity":0.621,"dissonance":0.131},{"voice":3,"pitch":46,"start":89.3076,"duration":0.2308,"velocity":127,"measure":25,"beat":1.75,"subject_pos":-1,"motif":"","motif_pos":-1,"best_pos":3,"similarity":0.679,"stretto":false,"stretto_voices":0,"combination":[],"aug_dim":"","rhythm_ratio":1.0,"mirror":false,"chromatic_density":0.45,"complexity":0.621,"dissonance":0.131},{"voice":0,"pitch":72,"start":89.5384,"duration":0.9231,"velocity":127,"measure":25,"beat":2.0,"subject_pos":-1,"motif":"","motif_pos":-1,"best_pos":6,"similarity":0.579,"stretto":false,"stretto_voices":0,"combination":[],"aug_dim":"","rhythm_ratio":1.0,"mirror":false,"chromatic_density":0.45,"complexity":0.621,"dissonance":0.131},{"voice":3,"pitch":45,"start":89.5384,"duration":0.6923,"velocity":127,"measure":25,"beat":2.0,"subject_pos":-1,"motif":"","motif_pos":-1,"best_pos":4,"similarity":0.714,"stretto":false,"stretto_voices":0,"combination":[],"aug_dim":"","rhythm_ratio":1.0,"mirror":false,"chromatic_density":0.45,"complexity":0.621,"dissonance":0.131},{"voice":1,"pitch":67,"start":89.7691,"duration":0.2308,"velocity":127,"measure":25,"beat":2.25,"subject_pos":-1,"motif":"","motif_pos":-1,"best_pos":1,"similarity":0.457,"stretto":false,"stretto_voices":0,"combination":[],"aug_dim":"","rhythm_ratio":1.0,"mirror":false,"chromatic_density":0.45,"complexity":0.621,"dissonance":0.131},{"voice":1,"pitch":65,"start":89.9999,"duration":0.2308,"velocity":127,"measure":25,"beat":2.5,"subject_pos":-1,"motif":"","motif_pos":-1,"best_pos":2,"similarity":0.621,"stretto":false,"stretto_voices":0,"combination":[],"aug_dim":"","rhythm_ratio":1.0,"mirror":false,"chromatic_density":0.45,"complexity":0.621,"dissonance":0.131},{"voice":1,"pitch":63,"start":90.2307,"duration":0.2308,"velocity":127,"measure":25,"beat":2.75,"subject_pos":-1,"motif":"","motif_pos":-1,"best_pos":3,"similarity":0.686,"stretto":false,"stretto_voices":0,"combination":[],"aug_dim":"","rhythm_ratio":1.0,"mirror":false,"chromatic_density":0.45,"complexity":0.621,"dissonance":0.131},{"voice":3,"pitch":45,"start":90.2307,"duration":0.2308,"velocity":127,"measure":25,"beat":2.75,"subject_pos":-1,"motif":"","motif_pos":-1,"best_pos":4,"similarity":0.679,"stretto":false,"stretto_voices":0,"combination":[],"aug_dim":"","rhythm_ratio":1.0,"mirror":false,"chromatic_density":0.45,"complexity":0.621,"dissonance":0.131},{"voice":0,"pitch":74,"start":90.4614,"duration":0.9231,"velocity":127,"measure":25,"beat":3.0,"subject_pos":-1,"motif":"","motif_pos":-1,"best_pos":1,"similarity":0.457,"stretto":false,"stretto_voices":0,"combination":[],"aug_dim":"","rhythm_ratio":1.0,"mirror":false,"chromatic_density":0.45,"complexity":0.621,"dissonance":0.131},{"voice":1,"pitch":62,"start":90.4614,"duration":0.2308,"velocity":127,"measure":25,"beat":3.0,"subject_pos":-1,"motif":"","motif_pos":-1,"best_pos":4,"similarity":0.679,"stretto":false,"stretto_voices":0,"combination":[],"aug_dim":"","rhythm_ratio":1.0,"mirror":false,"chromatic_density":0.45,"complexity":0.621,"dissonance":0.131},{"voice":3,"pitch":46,"start":90.4614,"duration":0.6923,"velocity":127,"measure":25,"beat":3.0,"subject_pos":-1,"motif":"","motif_pos":-1,"best_pos":5,"similarity":0.661,"stretto":false,"stretto_voices":0,"combination":[],"aug_dim":"","rhythm_ratio":1.0,"mirror":false,"chromatic_density":0.45,"complexity":0.621,"dissonance":0.131},{"voice":1,"pitch":64,"start":90.6922,"duration":0.2308,"velocity":127,"measure":25,"beat":3.25,"subject_pos":-1,"motif":"","motif_pos":-1,"best_pos":6,"similarity":0.643,"stretto":false,"stretto_voices":0,"combination":[],"aug_dim":"","rhythm_ratio":1.0,"mirror":false,"chromatic_density":0.45,"complexity":0.621,"dissonance":0.131},{"voice":1,"pitch":65,"start":90.923,"duration":0.6923,"velocity":127,"measure":25,"beat":3.5,"subject_pos":-1,"motif":"","motif_pos":-1,"best_pos":7,"similarity":0.446,"stretto":false,"stretto_voices":0,"combination":[],"aug_dim":"","rhythm_ratio":1.0,"mirror":false,"chromatic_density":0.45,"complexity":0.621,"dissonance":0.131},{"voice":3,"pitch":47,"start":91.1538,"duration":0.2308,"velocity":127,"measure":25,"beat":3.75,"subject_pos":-1,"motif":"","motif_pos":-1,"best_pos":5,"similarity":0.614,"stretto":false,"stretto_voices":0,"combination":[],"aug_dim":"","rhythm_ratio":1.0,"mirror":false,"chromatic_density":0.45,"complexity":0.621,"dissonance":0.131},{"voice":0,"pitch":72,"start":91.3845,"duration":0.6923,"velocity":127,"measure":25,"beat":4.0,"subject_pos":-1,"motif":"","motif_pos":-1,"best_pos":2,"similarity":0.593,"stretto":false,"stretto_voices":0,"combination":[],"aug_dim":"","rhythm_ratio":1.0,"mirror":false,"chromatic_density":0.45,"complexity":0.621,"dissonance":0.131},{"voice":2,"pitch":55,"start":91.3845,"duration":0.9231,"velocity":127,"measure":25,"beat":4.0,"subject_pos":-1,"motif":"","motif_pos":-1,"best_pos":2,"similarity":0.643,"stretto":false,"stretto_voices":0,"combination":[],"aug_dim":"","rhythm_ratio":1.0,"mirror":false,"chromatic_density":0.45,"complexity":0.621,"dissonance":0.131},{"voice":3,"pitch":48,"start":91.3845,"duration":0.6923,"velocity":127,"measure":25,"beat":4.0,"subject_pos":-1,"motif":"","motif_pos":-1,"best_pos":5,"similarity":0.614,"stretto":false,"stretto_voices":0,"combination":[],"aug_dim":"","rhythm_ratio":1.0,"mirror":false,"chromatic_density":0.45,"complexity":0.621,"dissonance":0.131},{"voice":1,"pitch":65,"start":91.6153,"duration":0.2308,"velocity":127,"measure":25,"beat":4.25,"subject_pos":-1,"motif":"","motif_pos":-1,"best_pos":3,"similarity":0.414,"stretto":false,"stretto_voices":0,"combination":[],"aug_dim":"","rhythm_ratio":1.0,"mirror":false,"chromatic_density":0.45,"complexity":0.621,"dissonance":0.131},{"voice":1,"pitch":64,"start":91.8461,"duration":0.6923,"velocity":127,"measure":25,"beat":4.5,"subject_pos":-1,"motif":"","motif_pos":-1,"best_pos":4,"similarity":0.482,"stretto":false,"stretto_voices":0,"combination":[],"aug_dim":"","rhythm_ratio":1.0,"mirror":false,"chromatic_density":0.45,"complexity":0.621,"dissonance":0.131},{"voice":0,"pitch":70,"start":92.0768,"duration":0.2308,"velocity":127,"measure":25,"beat":4.75,"subject_pos":-1,"motif":"","motif_pos":-1,"best_pos":3,"similarity":0.664,"stretto":false,"stretto_voices":0,"combination":[],"aug_dim":"","rhythm_ratio":1.0,"mirror":false,"chromatic_density":0.45,"complexity":0.621,"dissonance":0.131},{"voice":3,"pitch":49,"start":92.0768,"duration":0.2308,"velocity":127,"measure":25,"beat":4.75,"subject_pos":-1,"motif":"","motif_pos":-1,"best_pos":4,"similarity":0.593,"stretto":false,"stretto_voices":0,"combination":[],"aug_dim":"","rhythm_ratio":1.0,"mirror":false,"chromatic_density":0.45,"complexity":0.621,"dissonance":0.131},{"voice":0,"pitch":69,"start":92.3076,"duration":1.1538,"velocity":127,"measure":26,"beat":1.0,"subject_pos":-1,"motif":"","motif_pos":-1,"best_pos":4,"similarity":0.671,"stretto":false,"stretto_voices":0,"combination":[],"aug_dim":"","rhythm_ratio":1.0,"mirror":false,"chromatic_density":0.318,"complexity":0.602,"dissonance":0.081},{"voice":2,"pitch":53,"start":92.3076,"duration":3.6923,"velocity":127,"measure":26,"beat":1.0,"subject_pos":-1,"motif":"","motif_pos":-1,"best_pos":3,"similarity":0.786,"stretto":false,"stretto_voices":0,"combination":[],"aug_dim":"","rhythm_ratio":1.0,"mirror":false,"chromatic_density":0.318,"complexity":0.602,"dissonance":0.081},{"voice":3,"pitch":50,"start":92.3076,"duration":0.6923,"velocity":127,"measure":26,"beat":1.0,"subject_pos":-1,"motif":"","motif_pos":-1,"best_pos":5,"similarity":0.757,"stretto":false,"stretto_voices":0,"combination":[],"aug_dim":"","rhythm_ratio":1.0,"mirror":false,"chromatic_density":0.318,"complexity":0.602,"dissonance":0.081},{"voice":1,"pitch":64,"start":92.5384,"duration":0.2308,"velocity":127,"measure":26,"beat":1.25,"subject_pos":-1,"motif":"","motif_pos":-1,"best_pos":2,"similarity":0.429,"stretto":false,"stretto_voices":0,"combination":[],"aug_dim":"","rhythm_ratio":1.0,"mirror":false,"chromatic_density":0.318,"complexity":0.602,"dissonance":0.081},{"voice":1,"pitch":62,"start":92.7691,"duration":0.2308,"velocity":127,"measure":26,"beat":1.5,"subject_pos":-1,"motif":"","motif_pos":-1,"best_pos":3,"similarity":0.614,"stretto":false,"stretto_voices":0,"combination":[],"aug_dim":"","rhythm_ratio":1.0,"mirror":false,"chromatic_density":0.318,"complexity":0.602,"dissonance":0.081},{"voice":1,"pitch":61,"start":92.9999,"duration":0.2308,"velocity":127,"measure":26,"beat":1.75,"subject_pos":-1,"motif":"","motif_pos":-1,"best_pos":4,"similarity":0.682,"stretto":false,"stretto_voices":0,"combination":[],"aug_dim":"","rhythm_ratio":1.0,"mirror":false,"chromatic_density":0.318,"complexity":0.602,"dissonance":0.081},{"voice":3,"pitch":52,"start":92.9999,"duration":0.2308,"velocity":127,"measure":26,"beat":1.75,"subject_pos":-1,"motif":"","motif_pos":-1,"best_pos":6,"similarity":0.732,"stretto":false,"stretto_voices":0,"combination":[],"aug_dim":"","rhythm_ratio":1.0,"mirror":false,"chromatic_density":0.318,"complexity":0.602,"dissonance":0.081},{"voice":1,"pitch":62,"start":93.2307,"duration":0.9231,"velocity":127,"measure":26,"beat":2.0,"subject_pos":-1,"motif":"","motif_pos":-1,"best_pos":5,"similarity":0.507,"stretto":false,"stretto_voices":0,"combination":[],"aug_dim":"","rhythm_ratio":1.0,"mirror":false,"chromatic_density":0.318,"complexity":0.602,"dissonance":0.081},{"voice":3,"pitch":53,"start":93.2307,"duration":0.6923,"velocity":127,"measure":26,"beat":2.0,"subject_pos":-1,"motif":"","motif_pos":-1,"best_pos":5,"similarity":0.664,"stretto":false,"stretto_voices":0,"combination":[],"aug_dim":"","rhythm_ratio":1.0,"mirror":false,"chromatic_density":0.318,"complexity":0.602,"dissonance":0.081},{"voice":0,"pitch":67,"start":93.4614,"duration":0.2308,"velocity":127,"measure":26,"beat":2.25,"subject_pos":-1,"motif":"","motif_pos":-1,"best_pos":5,"similarity":0.636,"stretto":false,"stretto_voices":0,"combination":[],"aug_dim":"","rhythm_ratio":1.0,"mirror":false,"chromatic_density":0.318,"complexity":0.602,"dissonance":0.081},{"voice":0,"pitch":69,"start":93.6922,"duration":0.2308,"velocity":127,"measure":26,"beat":2.5,"subject_pos":-1,"motif":"","motif_pos":-1,"best_pos":6,"similarity":0.657,"stretto":false,"stretto_voices":0,"combination":[],"aug_dim":"","rhythm_ratio":1.0,"mirror":false,"chromatic_density":0.318,"complexity":0.602,"dissonance":0.081},{"voice":0,"pitch":70,"start":93.923,"duration":0.2308,"velocity":127,"measure":26,"beat":2.75,"subject_pos":-1,"motif":"","motif_pos":-1,"best_pos":5,"similarity":0.693,"stretto":false,"stretto_voices":0,"combination":[],"aug_dim":"","rhythm_ratio":1.0,"mirror":false,"chromatic_density":0.318,"complexity":0.602,"dissonance":0.081},{"voice":3,"pitch":55,"start":93.923,"duration":0.2308,"velocity":127,"measure":26,"beat":2.75,"subject_pos":-1,"motif":"","motif_pos":-1,"best_pos":5,"similarity":0.607,"stretto":false,"stretto_voices":0,"combination":[],"aug_dim":"","rhythm_ratio":1.0,"mirror":false,"chromatic_density":0.318,"complexity":0.602,"dissonance":0.081},{"voice":0,"pitch":72,"start":94.1538,"duration":1.1538,"velocity":127,"measure":26,"beat":3.0,"subject_pos":-1,"motif":"","motif_pos":-1,"best_pos":6,"similarity":0.579,"stretto":false,"stretto_voices":0,"combination":[],"aug_dim":"","rhythm_ratio":1.0,"mirror":false,"chromatic_density":0.318,"complexity":0.602,"dissonance":0.081},{"voice":1,"pitch":60,"start":94.1538,"duration":0.2308,"velocity":127,"measure":26,"beat":3.0,"subject_pos":-1,"motif":"","motif_pos":-1,"best_pos":2,"similarity":0.371,"stretto":false,"stretto_voices":0,"combination":[],"aug_dim":"","rhythm_ratio":1.0,"mirror":false,"chromatic_density":0.318,"complexity":0.602,"dissonance":0.081},{"voice":3,"pitch":57,"start":94.1538,"duration":0.6923,"velocity":127,"measure":26,"beat":3.0,"subject_pos":-1,"motif":"","motif_pos":-1,"best_pos":6,"similarity":0.661,"stretto":false,"stretto_voices":0,"combination":[],"aug_dim":"","rhythm_ratio":1.0,"mirror":false,"chromatic_density":0.318,"complexity":0.602,"dissonance":0.081},{"voice":1,"pitch":64,"start":94.3845,"duration":0.2308,"velocity":127,"measure":26,"beat":3.25,"subject_pos":-1,"motif":"","motif_pos":-1,"best_pos":4,"similarity":0.543,"stretto":false,"stretto_voices":0,"combination":[],"aug_dim":"","rhythm_ratio":1.0,"mirror":false,"chromatic_density":0.318,"complexity":0.602,"dissonance":0.081},{"voice":1,"pitch":65,"start":94.6153,"duration":0.2308,"velocity":127,"measure":26,"beat":3.5,"subject_pos":-1,"motif":"","motif_pos":-1,"best_pos":5,"similarity":0.679,"stretto":false,"stretto_voices":0,"combination":[],"aug_dim":"","rhythm_ratio":1.0,"mirror":false,"chromatic_density":0.318,"complexity":0.602,"dissonance":0.081},{"voice":1,"pitch":67,"start":94.8461,"duration":0.2308,"velocity":127,"measure":26,"beat":3.75,"subject_pos":-1,"motif":"","motif_pos":-1,"best_pos":6,"similarity":0.571,"stretto":false,"stretto_voices":0,"combination":[],"aug_dim":"","rhythm_ratio":1.0,"mirror":false,"chromatic_density":0.318,"complexity":0.602,"dissonance":0.081},{"voice":3,"pitch":58,"start":94.8461,"duration":0.2308,"velocity":127,"measure":26,"beat":3.75,"subject_pos":-1,"motif":"","motif_pos":-1,"best_pos":5,"similarity":0.657,"stretto":false,"stretto_voices":0,"combination":[],"aug_dim":"","rhythm_ratio":1.0,"mirror":false,"chromatic_density":0.318,"complexity":0.602,"dissonance":0.081},{"voice":1,"pitch":69,"start":95.0768,"duration":0.9231,"velocity":127,"measure":26,"beat":4.0,"subject_pos":-1,"motif":"","motif_pos":-1,"best_pos":6,"similarity":0.404,"stretto":false,"stretto_voices":0,"combination":[],"aug_dim":"","rhythm_ratio":1.0,"mirror":false,"chromatic_density":0.318,"complexity":0.602,"dissonance":0.081},{"voice":3,"pitch":60,"start":95.0768,"duration":0.6923,"velocity":127,"measure":26,"beat":4.0,"subject_pos":-1,"motif":"","motif_pos":-1,"best_pos":6,"similarity":0.579,"stretto":false,"stretto_voices":0,"combination":[],"aug_dim":"","rhythm_ratio":1.0,"mirror":false,"chromatic_density":0.318,"complexity":0.602,"dissonance":0.081},{"voice":0,"pitch":74,"start":95.3076,"duration":0.2308,"velocity":127,"measure":26,"beat":4.25,"subject_pos":-1,"motif":"","motif_pos":-1,"best_pos":6,"similarity":0.404,"stretto":false,"stretto_voices":0,"combination":[],"aug_dim":"","rhythm_ratio":1.0,"mirror":false,"chromatic_density":0.318,"complexity":0.602,"dissonance":0.081},{"voice":0,"pitch":72,"start":95.5384,"duration":0.2308,"velocity":127,"measure":26,"beat":4.5,"subject_pos":-1,"motif":"","motif_pos":-1,"best_pos":3,"similarity":0.664,"stretto":false,"stretto_voices":0,"combination":[],"aug_dim":"","rhythm_ratio":1.0,"mirror":false,"chromatic_density":0.318,"complexity":0.602,"dissonance":0.081},{"voice":0,"pitch":71,"start":95.7691,"duration":0.2308,"velocity":127,"measure":26,"beat":4.75,"subject_pos":-1,"motif":"","motif_pos":-1,"best_pos":4,"similarity":0.829,"stretto":false,"stretto_voices":0,"combination":[],"aug_dim":"","rhythm_ratio":1.0,"mirror":false,"chromatic_density":0.318,"complexity":0.602,"dissonance":0.081},{"voice":3,"pitch":62,"start":95.7691,"duration":0.2308,"velocity":127,"measure":26,"beat":4.75,"subject_pos":-1,"motif":"","motif_pos":-1,"best_pos":6,"similarity":0.375,"stretto":false,"stretto_voices":0,"combination":[],"aug_dim":"","rhythm_ratio":1.0,"mirror":false,"chromatic_density":0.318,"complexity":0.602,"dissonance":0.081},{"voice":0,"pitch":72,"start":95.9999,"duration":0.2308,"velocity":127,"measure":27,"beat":1.0,"subject_pos":-1,"motif":"","motif_pos":-1,"best_pos":5,"similarity":0.821,"stretto":false,"stretto_voices":0,"combination":[],"aug_dim":"","rhythm_ratio":1.0,"mirror":false,"chromatic_density":0.353,"complexity":0.629,"dissonance":0.204},{"voice":1,"pitch":67,"start":95.9999,"duration":0.6923,"velocity":127,"measure":27,"beat":1.0,"subject_pos":-1,"motif":"","motif_pos":-1,"best_pos":5,"similarity":0.471,"stretto":false,"stretto_voices":0,"combination":[],"aug_dim":"","rhythm_ratio":1.0,"mirror":false,"chromatic_density":0.353,"complexity":0.629,"dissonance":0.204},{"voice":2,"pitch":52,"start":95.9999,"duration":3.6923,"velocity":127,"measure":27,"beat":1.0,"subject_pos":-1,"motif":"","motif_pos":-1,"best_pos":4,"similarity":0.893,"stretto":false,"stretto_voices":0,"combination":[],"aug_dim":"","rhythm_ratio":1.0,"mirror":false,"chromatic_density":0.353,"complexity":0.629,"dissonance":0.204},{"voice":3,"pitch":55,"start":95.9999,"duration":0.4615,"velocity":127,"measure":27,"beat":1.0,"subject_pos":-1,"motif":"","motif_pos":-1,"best_pos":1,"similarity":0.179,"stretto":false,"stretto_voices":0,"combination":[],"aug_dim":"","rhythm_ratio":1.0,"mirror":false,"chromatic_density":0.353,"complexity":0.629,"dissonance":0.204},{"voice":0,"pitch":74,"start":96.2307,"duration":0.2308,"velocity":127,"measure":27,"beat":1.25,"subject_pos":-1,"motif":"","motif_pos":-1,"best_pos":6,"similarity":0.643,"stretto":false,"stretto_voices":0,"combination":[],"aug_dim":"","rhythm_ratio":1.0,"mirror":false,"chromatic_density":0.353,"complexity":0.629,"dissonance":0.204},{"voice":0,"pitch":76,"start":96.4614,"duration":0.2308,"velocity":127,"measure":27,"beat":1.5,"subject_pos":-1,"motif":"","motif_pos":-1,"best_pos":6,"similarity":0.661,"stretto":false,"stretto_voices":0,"combination":[],"aug_dim":"","rhythm_ratio":1.0,"mirror":false,"chromatic_density":0.353,"complexity":0.629,"dissonance":0.204},{"voice":0,"pitch":77,"start":96.6922,"duration":0.2308,"velocity":127,"measure":27,"beat":1.75,"subject_pos":-1,"motif":"","motif_pos":-1,"best_pos":5,"similarity":0.6,"stretto":false,"stretto_voices":0,"combination":[],"aug_dim":"","rhythm_ratio":1.0,"mirror":false,"chromatic_density":0.353,"complexity":0.629,"dissonance":0.204},{"voice":1,"pitch":69,"start":96.6922,"duration":0.2308,"velocity":127,"measure":27,"beat":1.75,"subject_pos":-1,"motif":"","motif_pos":-1,"best_pos":6,"similarity":0.593,"stretto":false,"stretto_voices":0,"combination":[],"aug_dim":"","rhythm_ratio":1.0,"mirror":false,"chromatic_density":0.353,"complexity":0.629,"dissonance":0.204},{"voice":0,"pitch":79,"start":96.923,"duration":1.1538,"velocity":127,"measure":27,"beat":2.0,"subject_pos":-1,"motif":"","motif_pos":-1,"best_pos":6,"similarity":0.464,"stretto":false,"stretto_voices":0,"combination":[],"aug_dim":"","rhythm_ratio":1.0,"mirror":false,"chromatic_density":0.353,"complexity":0.629,"dissonance":0.204},{"voice":1,"pitch":70,"start":96.923,"duration":0.2308,"velocity":127,"measure":27,"beat":2.0,"subject_pos":-1,"motif":"","motif_pos":-1,"best_pos":7,"similarity":0.436,"stretto":false,"stretto_voices":0,"combination":[],"aug_dim":"","rhythm_ratio":1.0,"mirror":false,"chromatic_density":0.353,"complexity":0.629,"dissonance":0.204},{"voice":1,"pitch":62,"start":97.1537,"duration":0.2308,"velocity":127,"measure":27,"beat":2.25,"subject_pos":-1,"motif":"","motif_pos":-1,"best_pos":3,"similarity":0.393,"stretto":false,"stretto_voices":0,"combination":[],"aug_dim":"","rhythm_ratio":1.0,"mirror":false,"chromatic_density":0.353,"complexity":0.629,"dissonance":0.204},{"voice":1,"pitch":61,"start":97.3845,"duration":0.2308,"velocity":127,"measure":27,"beat":2.5,"subject_pos":-1,"motif":"","motif_pos":-1,"best_pos":4,"similarity":0.464,"stretto":false,"stretto_voices":0,"combination":[],"aug_dim":"","rhythm_ratio":1.0,"mirror":false,"chromatic_density":0.353,"complexity":0.629,"dissonance":0.204},{"voice":1,"pitch":59,"start":97.6153,"duration":0.2308,"velocity":127,"measure":27,"beat":2.75,"subject_pos":-1,"motif":"","motif_pos":-1,"best_pos":5,"similarity":0.457,"stretto":false,"stretto_voices":0,"combination":[],"aug_dim":"","rhythm_ratio":1.0,"mirror":false,"chromatic_density":0.353,"complexity":0.629,"dissonance":0.204},{"voice":1,"pitch":61,"start":97.8461,"duration":0.9231,"velocity":127,"measure":27,"beat":3.0,"subject_pos":-1,"motif":"","motif_pos":-1,"best_pos":6,"similarity":0.371,"stretto":false,"stretto_voices":0,"combination":[],"aug_dim":"","rhythm_ratio":1.0,"mirror":false,"chromatic_density":0.353,"complexity":0.629,"dissonance":0.204},{"voice":0,"pitch":77,"start":98.0768,"duration":0.2308,"velocity":127,"measure":27,"beat":3.25,"subject_pos":-1,"motif":"","motif_pos":-1,"best_pos":3,"similarity":0.471,"stretto":false,"stretto_voices":0,"combination":[],"aug_dim":"","rhythm_ratio":1.0,"mirror":false,"chromatic_density":0.353,"complexity":0.629,"dissonance":0.204},{"voice":0,"pitch":76,"start":98.3076,"duration":0.2308,"velocity":127,"measure":27,"beat":3.5,"subject_pos":-1,"motif":"","motif_pos":-1,"best_pos":2,"similarity":0.5,"stretto":false,"stretto_voices":0,"combination":[],"aug_dim":"","rhythm_ratio":1.0,"mirror":false,"chromatic_density":0.353,"complexity":0.629,"dissonance":0.204},{"voice":0,"pitch":74,"start":98.5384,"duration":0.2308,"velocity":127,"measure":27,"beat":3.75,"subject_pos":-1,"motif":"","motif_pos":-1,"best_pos":3,"similarity":0.643,"stretto":false,"stretto_voices":0,"combination":[],"aug_dim":"","rhythm_ratio":1.0,"mirror":false,"chromatic_density":0.353,"complexity":0.629,"dissonance":0.204},{"voice":0,"pitch":73,"start":98.7691,"duration":0.9231,"velocity":127,"measure":27,"beat":4.0,"subject_pos":-1,"motif":"enigmatic_cell","motif_pos":0,"best_pos":0,"similarity":1.0,"stretto":false,"stretto_voices":0,"combination":[],"aug_dim":"","rhythm_ratio":1.0,"mirror":false,"chromatic_density":0.353,"complexity":0.629,"dissonance":0.204},{"voice":1,"pitch":70,"start":98.9999,"duration":0.2308,"velocity":127,"measure":27,"beat":4.25,"subject_pos":-1,"motif":"","motif_pos":-1,"best_pos":3,"similarity":0.386,"stretto":false,"stretto_voices":0,"combination":[],"aug_dim":"","rhythm_ratio":1.0,"mirror":false,"chromatic_density":0.353,"complexity":0.629,"dissonance":0.204},{"voice":1,"pitch":69,"start":99.2307,"duration":0.2308,"velocity":127,"measure":27,"beat":4.5,"subject_pos":-1,"motif":"","motif_pos":-1,"best_pos":4,"similarity":0.471,"stretto":false,"stretto_voices":0,"combination":[],"aug_dim":"","rhythm_ratio":1.0,"mirror":false,"chromatic_density":0.353,"complexity":0.629,"dissonance":0.204},{"voice":1,"pitch":67,"start":99.4614,"duration":0.2308,"velocity":127,"measure":27,"beat":4.75,"subject_pos":-1,"motif":"","motif_pos":-1,"best_pos":5,"similarity":0.471,"stretto":false,"stretto_voices":0,"combination":[],"aug_dim":"","rhythm_ratio":1.0,"mirror":false,"chromatic_density":0.353,"complexity":0.629,"dissonance":0.204},{"voice":0,"pitch":74,"start":99.6922,"duration":0.9231,"velocity":127,"measure":28,"beat":1.0,"subject_pos":-1,"motif":"enigmatic_cell","motif_pos":1,"best_pos":1,"similarity":1.0,"stretto":false,"stretto_voices":0,"combination":[],"aug_dim":"","rhythm_ratio":1.0,"mirror":false,"chromatic_density":0.292,"complexity":0.729,"dissonance":0.136},{"voice":1,"pitch":69,"start":99.6922,"duration":0.2308,"velocity":127,"measure":28,"beat":1.0,"subject_pos":-1,"motif":"","motif_pos":-1,"best_pos":1,"similarity":0.457,"stretto":false,"stretto_voices":0,"combination":[],"aug_dim":"","rhythm_ratio":1.0,"mirror":false,"chromatic_density":0.292,"complexity":0.729,"dissonance":0.136},{"voice":2,"pitch":53,"start":99.6922,"duration":2.7692,"velocity":127,"measure":28,"beat":1.0,"subject_pos":-1,"motif":"","motif_pos":-1,"best_pos":5,"similarity":0.821,"stretto":false,"stretto_voices":0,"combination":[],"aug_dim":"","rhythm_ratio":1.0,"mirror":false,"chromatic_density":0.292,"complexity":0.729,"dissonance":0.136},{"voice":3,"pitch":50,"start":99.6922,"duration":0.9231,"velocity":127,"measure":28,"beat":1.0,"subject_pos":0,"motif":"subject","motif_pos":0,"best_pos":0,"similarity":1.0,"stretto":false,"stretto_voices":0,"combination":[],"aug_dim":"diminution","rhythm_ratio":0.5,"mirror":false,"chromatic_density":0.292,"complexity":0.729,"dissonance":0.136},{"voice":1,"pitch":67,"start":99.923,"duration":0.2308,"velocity":127,"measure":28,"beat":1.25,"subject_pos":-1,"motif":"","motif_pos":-1,"best_pos":2,"similarity":0.593,"stretto":false,"stretto_voices":0,"combination":[],"aug_dim":"","rhythm_ratio":1.0,"mirror":false,"chromatic_density":0.292,"complexity":0.729,"dissonance":0.136},{"voice":1,"pitch":65,"start":100.1537,"duration":0.2308,"velocity":127,"measure":28,"beat":1.5,"subject_pos":-1,"motif":"","motif_pos":-1,"best_pos":3,"similarity":0.593,"stretto":false,"stretto_voices":0,"combination":[],"aug_dim":"","rhythm_ratio":1.0,"mirror":false,"chromatic_density":0.292,"complexity":0.729,"dissonance":0.136},{"voice":1,"pitch":64,"start":100.3845,"duration":0.2308,"velocity":127,"measure":28,"beat":1.75,"subject_pos":-1,"motif":"","motif_pos":-1,"best_pos":4,"similarity":0.464,"stretto":false,"stretto_voices":0,"combination":[],"aug_dim":"","rhythm_ratio":1.0,"mirror":false,"chromatic_density":0.292,"complexity":0.729,"dissonance":0.136},{"voice":1,"pitch":62,"start":100.6153,"duration":0.4615,"velocity":127,"measure":28,"beat":2.0,"subject_pos":-1,"motif":"","motif_pos":-1,"best_pos":0,"similarity":0.321,"stretto":false,"stretto_voices":0,"combination":[],"aug_dim":"","rhythm_ratio":1.0,"mirror":false,"chromatic_density":0.292,"complexity":0.729,"dissonance":0.136},{"voice":3,"pitch":57,"start":100.6153,"duration":0.6923,"velocity":127,"measure":28,"beat":2.0,"subject_pos":1,"motif":"subject","motif_pos":1,"best_pos":1,"similarity":1.0,"stretto":false,"stretto_voices":0,"combination":[],"aug_dim":"diminution","rhythm_ratio":0.5,"mirror":false,"chromatic_density":0.292,"complexity":0.729,"dissonance":0.136},{"voice":0,"pitch":69,"start":100.8461,"duration":0.2308,"velocity":127,"measure":28,"beat":2.25,"subject_pos":-1,"motif":"enigmatic_cell","motif_pos":2,"best_pos":2,"similarity":1.0,"stretto":false,"stretto_voices":0,"combination":[],"aug_dim":"","rhythm_ratio":1.0,"mirror":false,"chromatic_density":0.292,"complexity":0.729,"dissonance":0.136},{"voice":0,"pitch":71,"start":101.0768,"duration":0.2308,"velocity":127,"measure":28,"beat":2.5,"subject_pos":-1,"motif":"","motif_pos":-1,"best_pos":5,"similarity":0.593,"stretto":false,"stretto_voices":0,"combination":[],"aug_dim":"","rhythm_ratio":1.0,"mirror":false,"chromatic_density":0.292,"complexity":0.729,"dissonance":0.136},{"voice":0,"pitch":73,"start":101.3076,"duration":0.2308,"velocity":127,"measure":28,"beat":2.75,"subject_pos":-1,"motif":"","motif_pos":-1,"best_pos":6,"similarity":0.65,"stretto":false,"stretto_voices":0,"combination":[],"aug_dim":"","rhythm_ratio":1.0,"mirror":false,"chromatic_density":0.292,"complexity":0.729,"dissonance":0.136},{"voice":3,"pitch":55,"start":101.3076,"duration":0.2308,"velocity":127,"measure":28,"beat":2.75,"subject_pos":2,"motif":"subject","motif_pos":2,"best_pos":2,"similarity":1.0,"stretto":false,"stretto_voices":0,"combination":[],"aug_dim":"diminution","rhythm_ratio":0.5,"mirror":false,"chromatic_density":0.292,"complexity":0.729,"dissonance":0.136},{"voice":0,"pitch":74,"start":101.5384,"duration":0.2308,"velocity":127,"measure":28,"beat":3.0,"subject_pos":-1,"motif":"","motif_pos":-1,"best_pos":5,"similarity":0.729,"stretto":false,"stretto_voices":0,"combination":[],"aug_dim":"","rhythm_ratio":1.0,"mirror":false,"chromatic_density":0.292,"complexity":0.729,"dissonance":0.136},{"voice":3,"pitch":53,"start":101.5384,"duration":0.6923,"velocity":127,"measure":28,"beat":3.0,"subject_pos":3,"motif":"subject","motif_pos":3,"best_pos":3,"similarity":1.0,"stretto":false,"stretto_voices":0,"combination":[],"aug_dim":"diminution","rhythm_ratio":0.5,"mirror":false,"chromatic_density":0.292,"complexity":0.729,"dissonance":0.136},{"voice":0,"pitch":76,"start":101.7691,"duration":0.2308,"velocity":127,"measure":28,"beat":3.25,"subject_pos":-1,"motif":"","motif_pos":-1,"best_pos":6,"similarity":0.721,"stretto":false,"stretto_voices":0,"combination":[],"aug_dim":"","rhythm_ratio":1.0,"mirror":false,"chromatic_density":0.292,"complexity":0.729,"dissonance":0.136},{"voice":1,"pitch":69,"start":101.7691,"duration":0.2308,"velocity":127,"measure":28,"beat":3.25,"subject_pos":-1,"motif":"","motif_pos":-1,"best_pos":0,"similarity":0.464,"stretto":false,"stretto_voices":0,"combination":[],"aug_dim":"","rhythm_ratio":1.0,"mirror":false,"chromatic_density":0.292,"complexity":0.729,"dissonance":0.136},{"voice":0,"pitch":77,"start":101.9999,"duration":0.9231,"velocity":127,"measure":28,"beat":3.5,"subject_pos":-1,"motif":"","motif_pos":-1,"best_pos":7,"similarity":0.5,"stretto":false,"stretto_voices":0,"combination":[],"aug_dim":"","rhythm_ratio":1.0,"mirror":false,"chromatic_density":0.292,"complexity":0.729,"dissonance":0.136},{"voice":1,"pitch":74,"start":101.9999,"duration":0.2308,"velocity":127,"measure":28,"beat":3.5,"subject_pos":-1,"motif":"","motif_pos":-1,"best_pos":1,"similarity":0.714,"stretto":false,"stretto_voices":0,"combination":[],"aug_dim":"","rhythm_ratio":1.0,"mirror":false,"chromatic_density":0.292,"complexity":0.729,"dissonance":0.136},{"voice":1,"pitch":72,"start":102.2307,"duration":0.2308,"velocity":127,"measure":28,"beat":3.75,"subject_pos":-1,"motif":"","motif_pos":-1,"best_pos":2,"similarity":0.786,"stretto":false,"stretto_voices":0,"combination":[],"aug_dim":"","rhythm_ratio":1.0,"mirror":false,"chromatic_density":0.292,"complexity":0.729,"dissonance":0.136},{"voice":3,"pitch":52,"start":102.2307,"duration":0.2308,"velocity":127,"measure":28,"beat":3.75,"subject_pos":4,"motif":"subject","motif_pos":4,"best_pos":4,"similarity":1.0,"stretto":false,"stretto_voices":0,"combination":[],"aug_dim":"diminution","rhythm_ratio":0.5,"mirror":false,"chromatic_density":0.292,"complexity":0.729,"dissonance":0.136},{"voice":1,"pitch":70,"start":102.4614,"duration":0.2308,"velocity":127,"measure":28,"beat":4.0,"subject_pos":-1,"motif":"","motif_pos":-1,"best_pos":3,"similarity":0.786,"stretto":false,"stretto_voices":0,"combination":[],"aug_dim":"","rhythm_ratio":1.0,"mirror":false,"chromatic_density":0.292,"complexity":0.729,"dissonance":0.136},{"voice":2,"pitch":55,"start":102.4614,"duration":0.9231,"velocity":127,"measure":28,"beat":4.0,"subject_pos":-1,"motif":"","motif_pos":-1,"best_pos":6,"similarity":0.643,"stretto":false,"stretto_voices":0,"combination":[],"aug_dim":"","rhythm_ratio":1.0,"mirror":false,"chromatic_density":0.292,"complexity":0.729,"dissonance":0.136},{"voice":3,"pitch":50,"start":102.4614,"duration":0.9231,"velocity":127,"measure":28,"beat":4.0,"subject_pos":5,"motif":"subject","motif_pos":5,"best_pos":5,"similarity":1.0,"stretto":false,"stretto_voices":0,"combination":[],"aug_dim":"diminution","rhythm_ratio":0.5,"mirror":false,"chromatic_density":0.292,"complexity":0.729,"dissonance":0.136},{"voice":1,"pitch":69,"start":102.6922,"duration":0.2308,"velocity":127,"measure":28,"beat":4.25,"subject_pos":-1,"motif":"","motif_pos":-1,"best_pos":4,"similarity":0.721,"stretto":false,"stretto_voices":0,"combination":[],"aug_dim":"","rhythm_ratio":1.0,"mirror":false,"chromatic_density":0.292,"complexity":0.729,"dissonance":0.136},{"voice":0,"pitch":76,"start":102.923,"duration":0.6923,"velocity":127,"measure":28,"beat":4.5,"subject_pos":-1,"motif":"","motif_pos":-1,"best_pos":4,"similarity":0.471,"stretto":false,"stretto_voices":0,"combination":[],"aug_dim":"","rhythm_ratio":1.0,"mirror":false,"chromatic_density":0.292,"complexity":0.729,"dissonance":0.136},{"voice":1,"pitch":70,"start":102.923,"duration":0.2308,"velocity":127,"measure":28,"beat":4.5,"subject_pos":-1,"motif":"","motif_pos":-1,"best_pos":5,"similarity":0.479,"stretto":false,"stretto_voices":0,"combination":[],"aug_dim":"","rhythm_ratio":1.0,"mirror":false,"chromatic_density":0.292,"complexity":0.729,"dissonance":0.136},{"voice":1,"pitch":67,"start":103.1537,"duration":0.2308,"velocity":127,"measure":28,"beat":4.75,"subject_pos":-1,"motif":"","motif_pos":-1,"best_pos":2,"similarity":0.514,"stretto":false,"stretto_voices":0,"combination":[],"aug_dim":"","rhythm_ratio":1.0,"mirror":false,"chromatic_density":0.292,"complexity":0.729,"dissonance":0.136},{"voice":1,"pitch":64,"start":103.3845,"duration":0.4615,"velocity":127,"measure":29,"beat":1.0,"subject_pos":-1,"motif":"","motif_pos":-1,"best_pos":3,"similarity":0.514,"stretto":false,"stretto_voices":0,"combination":[],"aug_dim":"","rhythm_ratio":1.0,"mirror":false,"chromatic_density":0.391,"complexity":0.731,"dissonance":0.084},{"voice":2,"pitch":57,"start":103.3845,"duration":4.6154,"velocity":127,"measure":29,"beat":1.0,"subject_pos":-1,"motif":"","motif_pos":-1,"best_pos":6,"similarity":0.661,"stretto":false,"stretto_voices":0,"combination":[],"aug_dim":"","rhythm_ratio":1.0,"mirror":false,"chromatic_density":0.391,"complexity":0.731,"dissonance":0.084},{"voice":3,"pitch":49,"start":103.3845,"duration":0.9231,"velocity":127,"measure":29,"beat":1.0,"subject_pos":6,"motif":"subject","motif_pos":6,"best_pos":6,"similarity":1.0,"stretto":false,"stretto_voices":0,"combination":[],"aug_dim":"diminution","rhythm_ratio":0.5,"mirror":false,"chromatic_density":0.391,"complexity":0.731,"dissonance":0.084},{"voice":0,"pitch":76,"start":103.6153,"duration":0.2308,"velocity":127,"measure":29,"beat":1.25,"subject_pos":-1,"motif":"","motif_pos":-1,"best_pos":0,"similarity":0.464,"stretto":false,"stretto_voices":0,"combination":[],"aug_dim":"","rhythm_ratio":1.0,"mirror":false,"chromatic_density":0.391,"complexity":0.731,"dissonance":0.084},{"voice":0,"pitch":81,"start":103.8461,"duration":0.2308,"velocity":127,"measure":29,"beat":1.5,"subject_pos":-1,"motif":"","motif_pos":-1,"best_pos":1,"similarity":0.714,"stretto":false,"stretto_voices":0,"combination":[],"aug_dim":"","rhythm_ratio":1.0,"mirror":false,"chromatic_density":0.391,"complexity":0.731,"dissonance":0.084},{"voice":0,"pitch":79,"start":104.0768,"duration":0.2308,"velocity":127,"measure":29,"beat":1.75,"subject_pos":-1,"motif":"","motif_pos":-1,"best_pos":2,"similarity":0.721,"stretto":false,"stretto_voices":0,"combination":[],"aug_dim":"","rhythm_ratio":1.0,"mirror":false,"chromatic_density":0.391,"complexity":0.731,"dissonance":0.084},{"voice":0,"pitch":77,"start":104.3076,"duration":0.2308,"velocity":127,"measure":29,"beat":2.0,"subject_pos":-1,"motif":"","motif_pos":-1,"best_pos":3,"similarity":0.664,"stretto":false,"stretto_voices":0,"combination":[],"aug_dim":"","rhythm_ratio":1.0,"mirror":false,"chromatic_density":0.391,"complexity":0.731,"dissonance":0.084},{"voice":3,"pitch":50,"start":104.3076,"duration":0.6923,"velocity":127,"measure":29,"beat":2.0,"subject_pos":7,"motif":"subject","motif_pos":7,"best_pos":7,"similarity":1.0,"stretto":false,"stretto_voices":0,"combination":[],"aug_dim":"diminution","rhythm_ratio":0.5,"mirror":false,"chromatic_density":0.391,"complexity":0.731,"dissonance":0.084},{"voice":0,"pitch":76,"start":104.5384,"duration":0.2308,"velocity":127,"measure":29,"beat":2.25,"subject_pos":-1,"motif":"","motif_pos":-1,"best_pos":4,"similarity":0.543,"stretto":false,"stretto_voices":0,"combination":[],"aug_dim":"","rhythm_ratio":1.0,"mirror":false,"chromatic_density":0.391,"complexity":0.731,"dissonance":0.084},{"voice":0,"pitch":74,"start":104.7691,"duration":0.2308,"velocity":127,"measure":29,"beat":2.5,"subject_pos":-1,"motif":"","motif_pos":-1,"best_pos":3,"similarity":0.643,"stretto":false,"stretto_voices":0,"combination":[],"aug_dim":"","rhythm_ratio":1.0,"mirror":false,"chromatic_density":0.391,"complexity":0.731,"dissonance":0.084},{"voice":0,"pitch":73,"start":104.9999,"duration":0.2308,"velocity":127,"measure":29,"beat":2.75,"subject_pos":-1,"motif":"","motif_pos":-1,"best_pos":4,"similarity":0.696,"stretto":false,"stretto_voices":0,"combination":[],"aug_dim":"","rhythm_ratio":1.0,"mirror":false,"chromatic_density":0.391,"complexity":0.731,"dissonance":0.084},{"voice":3,"pitch":52,"start":104.9999,"duration":0.2308,"velocity":127,"measure":29,"beat":2.75,"subject_pos":8,"motif":"subject","motif_pos":8,"best_pos":0,"similarity":1.0,"stretto":false,"stretto_voices":0,"combination":[],"aug_dim":"diminution","rhythm_ratio":0.5,"mirror":false,"chromatic_density":0.391,"complexity":0.731,"dissonance":0.084},{"voice":0,"pitch":74,"start":105.2307,"duration":0.2308,"velocity":127,"measure":29,"beat":3.0,"subject_pos":-1,"motif":"","motif_pos":-1,"best_pos":5,"similarity":0.5,"stretto":false,"stretto_voices":0,"combination":[],"aug_dim":"","rhythm_ratio":1.0,"mirror":false,"chromatic_density":0.391,"complexity":0.731,"dissonance":0.084},{"voice":1,"pitch":62,"start":105.2307,"duration":0.9231,"velocity":127,"measure":29,"beat":3.0,"subject_pos":0,"motif":"subject","motif_pos":0,"best_pos":0,"similarity":1.0,"stretto":false,"stretto_voices":0,"combination":[],"aug_dim":"diminution","rhythm_ratio":0.5,"mirror":false,"chromatic_density":0.391,"complexity":0.731,"dissonance":0.084},{"voice":3,"pitch":53,"start":105.2307,"duration":1.1538,"velocity":127,"measure":29,"beat":3.0,"subject_pos":-1,"motif":"","motif_pos":-1,"best_pos":5,"similarity":0.607,"stretto":false,"stretto_voices":0,"combination":[],"aug_dim":"","rhythm_ratio":1.0,"mirror":false,"chromatic_density":0.391,"complexity":0.731,"dissonance":0.084},{"voice":0,"pitch":70,"start":105.4614,"duration":0.2308,"velocity":127,"measure":29,"beat":3.25,"subject_pos":-1,"motif":"","motif_pos":-1,"best_pos":3,"similarity":0.464,"stretto":false,"stretto_voices":0,"combination":[],"aug_dim":"","rhythm_ratio":1.0,"mirror":false,"chromatic_density":0.391,"complexity":0.731,"dissonance":0.084},{"voice":0,"pitch":69,"start":105.6922,"duration":0.2308,"velocity":127,"measure":29,"beat":3.5,"subject_pos":-1,"motif":"","motif_pos":-1,"best_pos":1,"similarity":0.429,"stretto":false,"stretto_voices":0,"combination":[],"aug_dim":"","rhythm_ratio":1.0,"mirror":false,"chromatic_density":0.391,"complexity":0.731,"dissonance":0.084},{"voice":0,"pitch":67,"start":105.923,"duration":0.2308,"velocity":127,"measure":29,"beat":3.75,"subject_pos":-1,"motif":"","motif_pos":-1,"best_pos":2,"similarity":0.579,"stretto":false,"stretto_voices":0,"combination":[],"aug_dim":"","rhythm_ratio":1.0,"mirror":false,"chromatic_density":0.391,"complexity":0.731,"dissonance":0.084},{"voice":0,"pitch":65,"start":106.1537,"duration":0.2308,"velocity":127,"measure":29,"beat":4.0,"subject_pos":-1,"motif":"","motif_pos":-1,"best_pos":3,"similarity":0.593,"stretto":false,"stretto_voices":0,"combination":[],"aug_dim":"","rhythm_ratio":1.0,"mirror":false,"chromatic_density":0.391,"complexity":0.731,"dissonance":0.084},{"voice":1,"pitch":69,"start":106.1537,"duration":0.6923,"velocity":127,"measure":29,"beat":4.0,"subject_pos":1,"motif":"subject","motif_pos":1,"best_pos":1,"similarity":1.0,"stretto":false,"stretto_voices":0,"combination":[],"aug_dim":"diminution","rhythm_ratio":0.5,"mirror":false,"chromatic_density":0.391,"complexity":0.731,"dissonance":0.084},{"voice":0,"pitch":64,"start":106.3845,"duration":0.2308,"velocity":127,"measure":29,"beat":4.25,"subject_pos":-1,"motif":"","motif_pos":-1,"best_pos":4,"similarity":0.543,"stretto":false,"stretto_voices":0,"combination":[],"aug_dim":"","rhythm_ratio":1.0,"mirror":false,"chromatic_density":0.391,"complexity":0.731,"dissonance":0.084},{"voice":3,"pitch":55,"start":106.3845,"duration":0.2308,"velocity":127,"measure":29,"beat":4.25,"subject_pos":-1,"motif":"","motif_pos":-1,"best_pos":6,"similarity":0.464,"stretto":false,"stretto_voices":0,"combination":[],"aug_dim":"","rhythm_ratio":1.0,"mirror":false,"chromatic_density":0.391,"complexity":0.731,"dissonance":0.084},{"voice":0,"pitch":62,"start":106.6153,"duration":0.2308,"velocity":127,"measure":29,"beat":4.5,"subject_pos":-1,"motif":"","motif_pos":-1,"best_pos":3,"similarity":0.643,"stretto":false,"stretto_voices":0,"combination":[],"aug_dim":"","rhythm_ratio":1.0,"mirror":false,"chromatic_density":0.391,"complexity":0.731,"dissonance":0.084},{"voice":3,"pitch":53,"start":106.6153,"duration":0.2308,"velocity":127,"measure":29,"beat":4.5,"subject_pos":-1,"motif":"","motif_pos":-1,"best_pos":3,"similarity":0.471,"stretto":false,"stretto_voices":0,"combination":[],"aug_dim":"","rhythm_ratio":1.0,"mirror":false,"chromatic_density":0.391,"complexity":0.731,"dissonance":0.084},{"voice":0,"pitch":61,"start":106.846,"duration":0.2308,"velocity":127,"measure":29,"beat":4.75,"subject_pos":-1,"motif":"","motif_pos":-1,"best_pos":4,"similarity":0.686,"stretto":false,"stretto_voices":0,"combination":[],"aug_dim":"","rhythm_ratio":1.0,"mirror":false,"chromatic_density":0.391,"complexity":0.731,"dissonance":0.084},{"voice":1,"pitch":67,"start":106.846,"duration":0.2308,"velocity":127,"measure":29,"beat":4.75,"subject_pos":2,"motif":"subject","motif_pos":2,"best_pos":2,"similarity":1.0,"stretto":false,"stretto_voices":0,"combination":[],"aug_dim":"diminution","rhythm_ratio":0.5,"mirror":false,"chromatic_density":0.391,"complexity":0.731,"dissonance":0.084},{"voice":3,"pitch":52,"start":106.846,"duration":0.2308,"velocity":127,"measure":29,"beat":4.75,"subject_pos":-1,"motif":"","motif_pos":-1,"best_pos":4,"similarity":0.414,"stretto":false,"stretto_voices":0,"combination":[],"aug_dim":"","rhythm_ratio":1.0,"mirror":false,"chromatic_density":0.391,"complexity":0.731,"dissonance":0.084},{"voice":0,"pitch":62,"start":107.0768,"duration":0.2308,"velocity":127,"measure":30,"beat":1.0,"subject_pos":-1,"motif":"","motif_pos":-1,"best_pos":5,"similarity":0.479,"stretto":false,"stretto_voices":0,"combination":[],"aug_dim":"","rhythm_ratio":1.0,"mirror":false,"chromatic_density":0.318,"complexity":0.759,"dissonance":0.051},{"voice":1,"pitch":65,"start":107.0768,"duration":0.6923,"velocity":127,"measure":30,"beat":1.0,"subject_pos":3,"motif":"subject","motif_pos":3,"best_pos":3,"similarity":1.0,"stretto":false,"stretto_voices":0,"combination":[],"aug_dim":"diminution","rhythm_ratio":0.5,"mirror":false,"chromatic_density":0.318,"complexity":0.759,"dissonance":0.051},{"voice":3,"pitch":50,"start":107.0768,"duration":0.9231,"velocity":127,"measure":30,"beat":1.0,"subject_pos":-1,"motif":"head","motif_pos":0,"best_pos":0,"similarity":1.0,"stretto":false,"stretto_voices":0,"combination":[],"aug_dim":"","rhythm_ratio":1.0,"mirror":false,"chromatic_density":0.318,"complexity":0.759,"dissonance":0.051},{"voice":0,"pitch":69,"start":107.3076,"duration":0.2308,"velocity":127,"measure":30,"beat":1.25,"subject_pos":-1,"motif":"","motif_pos":-1,"best_pos":1,"similarity":0.357,"stretto":false,"stretto_voices":0,"combination":[],"aug_dim":"","rhythm_ratio":1.0,"mirror":false,"chromatic_density":0.318,"complexity":0.759,"dissonance":0.051},{"voice":0,"pitch":74,"start":107.5384,"duration":0.6923,"velocity":127,"measure":30,"beat":1.5,"subject_pos":-1,"motif":"","motif_pos":-1,"best_pos":1,"similarity":0.357,"stretto":false,"stretto_voices":0,"combination":[],"aug_dim":"","rhythm_ratio":1.0,"mirror":false,"chromatic_density":0.318,"complexity":0.759,"dissonance":0.051},{"voice":1,"pitch":64,"start":107.7691,"duration":0.2308,"velocity":127,"measure":30,"beat":1.75,"subject_pos":4,"motif":"subject","motif_pos":4,"best_pos":4,"similarity":1.0,"stretto":false,"stretto_voices":0,"combination":[],"aug_dim":"diminution","rhythm_ratio":0.5,"mirror":false,"chromatic_density":0.318,"complexity":0.759,"dissonance":0.051},{"voice":1,"pitch":62,"start":107.9999,"duration":0.9231,"velocity":127,"measure":30,"beat":2.0,"subject_pos":5,"motif":"subject","motif_pos":5,"best_pos":5,"similarity":1.0,"stretto":false,"stretto_voices":0,"combination":[],"aug_dim":"diminution","rhythm_ratio":0.5,"mirror":false,"chromatic_density":0.318,"complexity":0.759,"dissonance":0.051},{"voice":2,"pitch":58,"start":107.9999,"duration":0.9231,"velocity":127,"measure":30,"beat":2.0,"subject_pos":-1,"motif":"","motif_pos":-1,"best_pos":7,"similarity":0.464,"stretto":false,"stretto_voices":0,"combination":[],"aug_dim":"","rhythm_ratio":1.0,"mirror":false,"chromatic_density":0.318,"complexity":0.759,"dissonance":0.051},{"voice":0,"pitch":77,"start":108.2307,"duration":0.2308,"velocity":127,"measure":30,"beat":2.25,"subject_pos":-1,"motif":"","motif_pos":-1,"best_pos":3,"similarity":0.443,"stretto":false,"stretto_voices":0,"combination":[],"aug_dim":"","rhythm_ratio":1.0,"mirror":false,"chromatic_density":0.318,"complexity":0.759,"dissonance":0.051},{"voice":0,"pitch":76,"start":108.4614,"duration":0.2308,"velocity":127,"measure":30,"beat":2.5,"subject_pos":-1,"motif":"","motif_pos":-1,"best_pos":4,"similarity":0.464,"stretto":false,"stretto_voices":0,"combination":[],"aug_dim":"","rhythm_ratio":1.0,"mirror":false,"chromatic_density":0.318,"complexity":0.759,"dissonance":0.051},{"voice":3,"pitch":55,"start":108.4614,"duration":0.9231,"velocity":127,"measure":30,"beat":2.5,"subject_pos":-1,"motif":"head","motif_pos":1,"best_pos":1,"similarity":1.0,"stretto":false,"stretto_voices":0,"combination":[],"aug_dim":"","rhythm_ratio":1.0,"mirror":false,"chromatic_density":0.318,"complexity":0.759,"dissonance":0.051},{"voice":0,"pitch":74,"start":108.6922,"duration":0.2308,"velocity":127,"measure":30,"beat":2.75,"subject_pos":-1,"motif":"","motif_pos":-1,"best_pos":5,"similarity":0.471,"stretto":false,"stretto_voices":0,"combination":[],"aug_dim":"","rhythm_ratio":1.0,"mirror":false,"chromatic_density":0.318,"complexity":0.759,"dissonance":0.051},{"voice":0,"pitch":76,"start":108.923,"duration":0.2308,"velocity":127,"measure":30,"beat":3.0,"subject_pos":-1,"motif":"","motif_pos":-1,"best_pos":6,"similarity":0.4,"stretto":false,"stretto_voices":0,"combination":[],"aug_dim":"","rhythm_ratio":1.0,"mirror":false,"chromatic_density":0.318,"complexity":0.759,"dissonance":0.051},{"voice":1,"pitch":61,"start":108.923,"duration":0.9231,"velocity":127,"measure":30,"beat":3.0,"subject_pos":6,"motif":"subject","motif_pos":6,"best_pos":6,"similarity":1.0,"stretto":false,"stretto_voices":0,"combination":[],"aug_dim":"diminution","rhythm_ratio":0.5,"mirror":false,"chromatic_density":0.318,"complexity":0.759,"dissonance":0.051},{"voice":2,"pitch":57,"start":108.923,"duration":0.9231,"velocity":127,"measure":30,"beat":3.0,"subject_pos":-1,"motif":"","motif_pos":-1,"best_pos":2,"similarity":0.407,"stretto":false,"stretto_voices":0,"combination":[],"aug_dim":"","rhythm_ratio":1.0,"mirror":false,"chromatic_density":0.318,"complexity":0.759,"dissonance":0.051},{"voice":0,"pitch":81,"start":109.1537,"duration":0.4615,"velocity":127,"measure":30,"beat":3.25,"subject_pos":-1,"motif":"","motif_pos":-1,"best_pos":1,"similarity":0.3,"stretto":false,"stretto_voices":0,"combination":[],"aug_dim":"","rhythm_ratio":1.0,"mirror":false,"chromatic_density":0.318,"complexity":0.759,"dissonance":0.051},{"voice":3,"pitch":53,"start":109.3845,"duration":0.9231,"velocity":127,"measure":30,"beat":3.5,"subject_pos":-1,"motif":"head","motif_pos":2,"best_pos":2,"similarity":1.0,"stretto":false,"stretto_voices":0,"combination":[],"aug_dim":"","rhythm_ratio":1.0,"mirror":false,"chromatic_density":0.318,"complexity":0.759,"dissonance":0.051},{"voice":0,"pitch":69,"start":109.6153,"duration":0.2308,"velocity":127,"measure":30,"beat":3.75,"subject_pos":-1,"motif":"","motif_pos":-1,"best_pos":4,"similarity":0.336,"stretto":false,"stretto_voices":0,"combination":[],"aug_dim":"","rhythm_ratio":1.0,"mirror":false,"chromatic_density":0.318,"complexity":0.759,"dissonance":0.051},{"voice":0,"pitch":70,"start":109.846,"duration":0.2308,"velocity":127,"measure":30,"beat":4.0,"subject_pos":-1,"motif":"","motif_pos":-1,"best_pos":5,"similarity":0.371,"stretto":false,"stretto_voices":0,"combination":[],"aug_dim":"","rhythm_ratio":1.0,"mirror":false,"chromatic_density":0.318,"complexity":0.759,"dissonance":0.051},{"voice":1,"pitch":62,"start":109.846,"duration":0.6923,"velocity":127,"measure":30,"beat":4.0,"subject_pos":7,"motif":"subject","motif_pos":7,"best_pos":7,"similarity":1.0,"stretto":false,"stretto_voices":0,"combination":[],"aug_dim":"diminution","rhythm_ratio":0.5,"mirror":false,"chromatic_density":0.318,"complexity":0.759,"dissonance":0.051},{"voice":2,"pitch":55,"start":109.846,"duration":0.9231,"velocity":127,"measure":30,"beat":4.0,"subject_pos":-1,"motif":"","motif_pos":-1,"best_pos":3,"similarity":0.507,"stretto":false,"stretto_voices":0,"combination":[],"aug_dim":"","rhythm_ratio":1.0,"mirror":false,"chromatic_density":0.318,"complexity":0.759,"dissonance":0.051},{"voice":0,"pitch":74,"start":110.0768,"duration":0.2308,"velocity":127,"measure":30,"beat":4.25,"subject_pos":-1,"motif":"","motif_pos":-1,"best_pos":0,"similarity":0.286,"stretto":false,"stretto_voices":0,"combination":[],"aug_dim":"","rhythm_ratio":1.0,"mirror":false,"chromatic_density":0.318,"complexity":0.759,"dissonance":0.051},{"voice":0,"pitch":79,"start":110.3076,"duration":0.2308,"velocity":127,"measure":30,"beat":4.5,"subject_pos":-1,"motif":"","motif_pos":-1,"best_pos":1,"similarity":0.293,"stretto":false,"stretto_voices":0,"combination":[],"aug_dim":"","rhythm_ratio":1.0,"mirror":false,"chromatic_density":0.318,"complexity":0.759,"dissonance":0.051},{"voice":3,"pitch":52,"start":110.3076,"duration":0.9231,"velocity":127,"measure":30,"beat":4.5,"subject_pos":-1,"motif":"head","motif_pos":3,"best_pos":3,"similarity":1.0,"stretto":false,"stretto_voices":0,"combination":[],"aug_dim":"","rhythm_ratio":1.0,"mirror":false,"chromatic_density":0.318,"complexity":0.759,"dissonance":0.051},{"voice":0,"pitch":67,"start":110.5384,"duration":0.2308,"velocity":127,"measure":30,"beat":4.75,"subject_pos":-1,"motif":"","motif_pos":-1,"best_pos":5,"similarity":0.321,"stretto":false,"stretto_voices":0,"combination":[],"aug_dim":"","rhythm_ratio":1.0,"mirror":false,"chromatic_density":0.318,"complexity":0.759,"dissonance":0.051},{"voice":1,"pitch":64,"start":110.5384,"duration":0.2308,"velocity":127,"measure":30,"beat":4.75,"subject_pos":8,"motif":"subject","motif_pos":8,"best_pos":0,"similarity":1.0,"stretto":false,"stretto_voices":0,"combination":[],"aug_dim":"diminution","rhythm_ratio":0.5,"mirror":false,"chromatic_density":0.318,"complexity":0.759,"dissonance":0.051},{"voice":0,"pitch":69,"start":110.7691,"duration":0.2308,"velocity":127,"measure":31,"beat":1.0,"subject_pos":-1,"motif":"","motif_pos":-1,"best_pos":6,"similarity":0.357,"stretto":false,"stretto_voices":0,"combination":[],"aug_dim":"","rhythm_ratio":1.0,"mirror":false,"chromatic_density":0.185,"complexity":0.73,"dissonance":0.041},{"voice":1,"pitch":65,"start":110.7691,"duration":1.1538,"velocity":127,"measure":31,"beat":1.0,"subject_pos":-1,"motif":"","motif_pos":-1,"best_pos":5,"similarity":0.607,"stretto":false,"stretto_voices":0,"combination":[],"aug_dim":"","rhythm_ratio":1.0,"mirror":false,"chromatic_density":0.185,"complexity":0.73,"dissonance":0.041},{"voice":2,"pitch":53,"start":110.7691,"duration":0.9231,"velocity":127,"measure":31,"beat":1.0,"subject_pos":-1,"motif":"","motif_pos":-1,"best_pos":4,"similarity":0.543,"stretto":false,"stretto_voices":0,"combination":[],"aug_dim":"","rhythm_ratio":1.0,"mirror":false,"chromatic_density":0.185,"complexity":0.73,"dissonance":0.041},{"voice":0,"pitch":72,"start":110.9999,"duration":0.2308,"velocity":127,"measure":31,"beat":1.25,"subject_pos":-1,"motif":"","motif_pos":-1,"best_pos":0,"similarity":0.393,"stretto":false,"stretto_voices":0,"combination":[],"aug_dim":"","rhythm_ratio":1.0,"mirror":false,"chromatic_density":0.185,"complexity":0.73,"dissonance":0.041},{"voice":0,"pitch":77,"start":111.2307,"duration":0.2308,"velocity":127,"measure":31,"beat":1.5,"subject_pos":-1,"motif":"","motif_pos":-1,"best_pos":1,"similarity":0.507,"stretto":false,"stretto_voices":0,"combination":[],"aug_dim":"","rhythm_ratio":1.0,"mirror":false,"chromatic_density":0.185,"complexity":0.73,"dissonance":0.041},{"voice":3,"pitch":50,"start":111.2307,"duration":0.2308,"velocity":127,"measure":31,"beat":1.5,"subject_pos":-1,"motif":"head","motif_pos":4,"best_pos":4,"similarity":1.0,"stretto":false,"stretto_voices":0,"combination":[],"aug_dim":"","rhythm_ratio":1.0,"mirror":false,"chromatic_density":0.185,"complexity":0.73,"dissonance":0.041},{"voice":0,"pitch":76,"start":111.4614,"duration":0.2308,"velocity":127,"measure":31,"beat":1.75,"subject_pos":-1,"motif":"","motif_pos":-1,"best_pos":4,"similarity":0.457,"stretto":false,"stretto_voices":0,"combination":[],"aug_dim":"","rhythm_ratio":1.0,"mirror":false,"chromatic_density":0.185,"complexity":0.73,"dissonance":0.041},{"voice":3,"pitch":48,"start":111.4614,"duration":0.2308,"velocity":127,"measure":31,"beat":1.75,"subject_pos":-1,"motif":"","motif_pos":-1,"best_pos":3,"similarity":0.679,"stretto":false,"stretto_voices":0,"combination":[],"aug_dim":"","rhythm_ratio":1.0,"mirror":false,"chromatic_density":0.185,"complexity":0.73,"dissonance":0.041},{"voice":0,"pitch":74,"start":111.6922,"duration":0.6923,"velocity":127,"measure":31,"beat":2.0,"subject_pos":-1,"motif":"","motif_pos":-1,"best_pos":5,"similarity":0.457,"stretto":false,"stretto_voices":0,"combination":[],"aug_dim":"","rhythm_ratio":1.0,"mirror":false,"chromatic_density":0.185,"complexity":0.73,"dissonance":0.041},{"voice":3,"pitch":47,"start":111.6922,"duration":0.6923,"velocity":127,"measure":31,"beat":2.0,"subject_pos":-1,"motif":"","motif_pos":-1,"best_pos":4,"similarity":0.643,"stretto":false,"stretto_voices":0,"combination":[],"aug_dim":"","rhythm_ratio":1.0,"mirror":false,"chromatic_density":0.185,"complexity":0.73,"dissonance":0.041},{"voice":1,"pitch":67,"start":111.923,"duration":0.2308,"velocity":127,"measure":31,"beat":2.25,"subject_pos":-1,"motif":"","motif_pos":-1,"best_pos":6,"similarity":0.464,"stretto":false,"stretto_voices":0,"combination":[],"aug_dim":"","rhythm_ratio":1.0,"mirror":false,"chromatic_density":0.185,"complexity":0.73,"dissonance":0.041},{"voice":1,"pitch":65,"start":112.1537,"duration":0.2308,"velocity":127,"measure":31,"beat":2.5,"subject_pos":-1,"motif":"","motif_pos":-1,"best_pos":3,"similarity":0.464,"stretto":false,"stretto_voices":0,"combination":[],"aug_dim":"","rhythm_ratio":1.0,"mirror":false,"chromatic_density":0.185,"complexity":0.73,"dissonance":0.041},{"voice":2,"pitch":55,"start":112.1537,"duration":0.6923,"velocity":127,"measure":31,"beat":2.5,"subject_pos":-1,"motif":"","motif_pos":-1,"best_pos":5,"similarity":0.55,"stretto":false,"stretto_voices":0,"combination":[],"aug_dim":"","rhythm_ratio":1.0,"mirror":false,"chromatic_density":0.185,"complexity":0.73,"dissonance":0.041},{"voice":0,"pitch":76,"start":112.3845,"duration":0.2308,"velocity":127,"measure":31,"beat":2.75,"subject_pos":-1,"motif":"","motif_pos":-1,"best_pos":6,"similarity":0.371,"stretto":false,"stretto_voices":0,"combination":[],"aug_dim":"","rhythm_ratio":1.0,"mirror":false,"chromatic_density":0.185,"complexity":0.73,"dissonance":0.041},{"voice":1,"pitch":64,"start":112.3845,"duration":0.2308,"velocity":127,"measure":31,"beat":2.75,"subject_pos":-1,"motif":"","motif_pos":-1,"best_pos":4,"similarity":0.393,"stretto":false,"stretto_voices":0,"combination":[],"aug_dim":"","rhythm_ratio":1.0,"mirror":false,"chromatic_density":0.185,"complexity":0.73,"dissonance":0.041},{"voice":3,"pitch":49,"start":112.3845,"duration":0.2308,"velocity":127,"measure":31,"beat":2.75,"subject_pos":-1,"motif":"","motif_pos":-1,"best_pos":6,"similarity":0.643,"stretto":false,"stretto_voices":0,"combination":[],"aug_dim":"","rhythm_ratio":1.0,"mirror":false,"chromatic_density":0.185,"complexity":0.73,"dissonance":0.041},{"voice":0,"pitch":69,"start":112.6153,"duration":0.4615,"velocity":127,"measure":31,"beat":3.0,"subject_pos":-1,"motif":"","motif_pos":-1,"best_pos":0,"similarity":0.336,"stretto":false,"stretto_voices":0,"combination":[],"aug_dim":"","rhythm_ratio":1.0,"mirror":false,"chromatic_density":0.185,"complexity":0.73,"dissonance":0.041},{"voice":1,"pitch":62,"start":112.6153,"duration":0.9231,"velocity":127,"measure":31,"beat":3.0,"subject_pos":-1,"motif":"","motif_pos":-1,"best_pos":2,"similarity":0.321,"stretto":false,"stretto_voices":0,"combination":[],"aug_dim":"","rhythm_ratio":1.0,"mirror":false,"chromatic_density":0.185,"complexity":0.73,"dissonance":0.041},{"voice":3,"pitch":50,"start":112.6153,"duration":0.4615,"velocity":127,"measure":31,"beat":3.0,"subject_pos":-1,"motif":"","motif_pos":-1,"best_pos":1,"similarity":0.464,"stretto":false,"stretto_voices":0,"combination":[],"aug_dim":"","rhythm_ratio":1.0,"mirror":false,"chromatic_density":0.185,"complexity":0.73,"dissonance":0.041},{"voice":2,"pitch":57,"start":112.846,"duration":0.2308,"velocity":127,"measure":31,"beat":3.25,"subject_pos":-1,"motif":"","motif_pos":-1,"best_pos":1,"similarity":0.457,"stretto":false,"stretto_voices":0,"combination":[],"aug_dim":"","rhythm_ratio":1.0,"mirror":false,"chromatic_density":0.185,"complexity":0.73,"dissonance":0.041},{"voice":0,"pitch":74,"start":113.0768,"duration":0.6923,"velocity":127,"measure":31,"beat":3.5,"subject_pos":-1,"motif":"","motif_pos":-1,"best_pos":1,"similarity":0.421,"stretto":false,"stretto_voices":0,"combination":[],"aug_dim":"","rhythm_ratio":1.0,"mirror":false,"chromatic_density":0.185,"complexity":0.73,"dissonance":0.041},{"voice":2,"pitch":55,"start":113.0768,"duration":0.2308,"velocity":127,"measure":31,"beat":3.5,"subject_pos":-1,"motif":"","motif_pos":-1,"best_pos":2,"similarity":0.593,"stretto":false,"stretto_voices":0,"combination":[],"aug_dim":"","rhythm_ratio":1.0,"mirror":false,"chromatic_density":0.185,"complexity":0.73,"dissonance":0.041},{"voice":3,"pitch":46,"start":113.0768,"duration":0.4615,"velocity":127,"measure":31,"beat":3.5,"subject_pos":-1,"motif":"","motif_pos":-1,"best_pos":2,"similarity":0.607,"stretto":false,"stretto_voices":0,"combination":[],"aug_dim":"","rhythm_ratio":1.0,"mirror":false,"chromatic_density":0.185,"complexity":0.73,"dissonance":0.041},{"voice":2,"pitch":53,"start":113.3076,"duration":0.2308,"velocity":127,"measure":31,"beat":3.75,"subject_pos":-1,"motif":"enigmatic_cell","motif_pos":0,"best_pos":0,"similarity":1.0,"stretto":false,"stretto_voices":0,"combination":[],"aug_dim":"","rhythm_ratio":1.0,"mirror":false,"chromatic_density":0.185,"complexity":0.73,"dissonance":0.041},{"voice":2,"pitch":52,"start":113.5383,"duration":0.4615,"velocity":127,"measure":31,"beat":4.0,"subject_pos":-1,"motif":"enigmatic_cell","motif_pos":1,"best_pos":1,"similarity":1.0,"stretto":false,"stretto_voices":0,"combination":[],"aug_dim":"","rhythm_ratio":1.0,"mirror":false,"chromatic_density":0.185,"complexity":0.73,"dissonance":0.041},{"voice":3,"pitch":43,"start":113.5383,"duration":0.4615,"velocity":127,"measure":31,"beat":4.0,"subject_pos":-1,"motif":"","motif_pos":-1,"best_pos":3,"similarity":0.55,"stretto":false,"stretto_voices":0,"combination":[],"aug_dim":"","rhythm_ratio":1.0,"mirror":false,"chromatic_density":0.185,"complexity":0.73,"dissonance":0.041},{"voice":0,"pitch":76,"start":113.7691,"duration":0.2308,"velocity":127,"measure":31,"beat":4.25,"subject_pos":-1,"motif":"","motif_pos":-1,"best_pos":2,"similarity":0.393,"stretto":false,"stretto_voices":0,"combination":[],"aug_dim":"","rhythm_ratio":1.0,"mirror":false,"chromatic_density":0.185,"complexity":0.73,"dissonance":0.041},{"voice":0,"pitch":74,"start":113.9999,"duration":0.2308,"velocity":127,"measure":31,"beat":4.5,"subject_pos":-1,"motif":"","motif_pos":-1,"best_pos":2,"similarity":0.443,"stretto":false,"stretto_voices":0,"combination":[],"aug_dim":"","rhythm_ratio":1.0,"mirror":false,"chromatic_density":0.185,"complexity":0.73,"dissonance":0.041},{"voice":2,"pitch":57,"start":113.9999,"duration":0.6923,"velocity":127,"measure":31,"beat":4.5,"subject_pos":-1,"motif":"enigmatic_cell","motif_pos":2,"best_pos":2,"similarity":1.0,"stretto":false,"stretto_voices":0,"combination":[],"aug_dim":"","rhythm_ratio":1.0,"mirror":false,"chromatic_density":0.185,"complexity":0.73,"dissonance":0.041},{"voice":3,"pitch":45,"start":113.9999,"duration":0.4615,"velocity":127,"measure":31,"beat":4.5,"subject_pos":-1,"motif":"","motif_pos":-1,"best_pos":4,"similarity":0.486,"stretto":false,"stretto_voices":0,"combination":[],"aug_dim":"","rhythm_ratio":1.0,"mirror":false,"chromatic_density":0.185,"complexity":0.73,"dissonance":0.041},{"voice":0,"pitch":72,"start":114.2307,"duration":0.2308,"velocity":127,"measure":31,"beat":4.75,"subject_pos":-1,"motif":"","motif_pos":-1,"best_pos":3,"similarity":0.364,"stretto":false,"stretto_voices":0,"combination":[],"aug_dim":"","rhythm_ratio":1.0,"mirror":false,"chromatic_density":0.185,"complexity":0.73,"dissonance":0.041},{"voice":0,"pitch":77,"start":114.4614,"duration":0.4615,"velocity":127,"measure":32,"beat":1.0,"subject_pos":-1,"motif":"","motif_pos":-1,"best_pos":1,"similarity":0.35,"stretto":false,"stretto_voices":0,"combination":[],"aug_dim":"","rhythm_ratio":1.0,"mirror":false,"chromatic_density":0.308,"complexity":0.645,"dissonance":0.217},{"voice":3,"pitch":50,"start":114.4614,"duration":0.4615,"velocity":127,"measure":32,"beat":1.0,"subject_pos":-1,"motif":"","motif_pos":-1,"best_pos":5,"similarity":0.543,"stretto":false,"stretto_voices":0,"combination":[],"aug_dim":"","rhythm_ratio":1.0,"mirror":false,"chromatic_density":0.308,"complexity":0.645,"dissonance":0.217},{"voice":2,"pitch":58,"start":114.6922,"duration":0.2308,"velocity":127,"measure":32,"beat":1.25,"subject_pos":-1,"motif":"","motif_pos":-1,"best_pos":5,"similarity":0.346,"stretto":false,"stretto_voices":0,"combination":[],"aug_dim":"","rhythm_ratio":1.0,"mirror":false,"chromatic_density":0.308,"complexity":0.645,"dissonance":0.217},{"voice":0,"pitch":70,"start":114.923,"duration":0.6923,"velocity":127,"measure":32,"beat":1.5,"subject_pos":-1,"motif":"","motif_pos":-1,"best_pos":5,"similarity":0.336,"stretto":false,"stretto_voices":0,"combination":[],"aug_dim":"","rhythm_ratio":1.0,"mirror":false,"chromatic_density":0.308,"complexity":0.645,"dissonance":0.217},{"voice":2,"pitch":57,"start":114.923,"duration":0.2308,"velocity":127,"measure":32,"beat":1.5,"subject_pos":-1,"motif":"","motif_pos":-1,"best_pos":2,"similarity":0.379,"stretto":false,"stretto_voices":0,"combination":[],"aug_dim":"","rhythm_ratio":1.0,"mirror":false,"chromatic_density":0.308,"complexity":0.645,"dissonance":0.217},{"voice":3,"pitch":52,"start":114.923,"duration":0.4615,"velocity":127,"measure":32,"beat":1.5,"subject_pos":-1,"motif":"","motif_pos":-1,"best_pos":6,"similarity":0.593,"stretto":false,"stretto_voices":0,"combination":[],"aug_dim":"","rhythm_ratio":1.0,"mirror":false,"chromatic_density":0.308,"complexity":0.645,"dissonance":0.217},{"voice":2,"pitch":55,"start":115.1537,"duration":0.2308,"velocity":127,"measure":32,"beat":1.75,"subject_pos":-1,"motif":"","motif_pos":-1,"best_pos":2,"similarity":0.436,"stretto":false,"stretto_voices":0,"combination":[],"aug_dim":"","rhythm_ratio":1.0,"mirror":false,"chromatic_density":0.308,"complexity":0.645,"dissonance":0.217},{"voice":2,"pitch":53,"start":115.3845,"duration":0.2308,"velocity":127,"measure":32,"beat":2.0,"subject_pos":-1,"motif":"","motif_pos":-1,"best_pos":3,"similarity":0.307,"stretto":false,"stretto_voices":0,"combination":[],"aug_dim":"","rhythm_ratio":1.0,"mirror":false,"chromatic_density":0.308,"complexity":0.645,"dissonance":0.217},{"voice":3,"pitch":53,"start":115.3845,"duration":1.1538,"velocity":127,"measure":32,"beat":2.0,"subject_pos":-1,"motif":"","motif_pos":-1,"best_pos":7,"similarity":0.436,"stretto":false,"stretto_voices":0,"combination":[],"aug_dim":"","rhythm_ratio":1.0,"mirror":false,"chromatic_density":0.308,"complexity":0.645,"dissonance":0.217},{"voice":0,"pitch":72,"start":115.6153,"duration":0.2308,"velocity":127,"measure":32,"beat":2.25,"subject_pos":-1,"motif":"","motif_pos":-1,"best_pos":1,"similarity":0.386,"stretto":false,"stretto_voices":0,"combination":[],"aug_dim":"","rhythm_ratio":1.0,"mirror":false,"chromatic_density":0.308,"complexity":0.645,"dissonance":0.217},{"voice":2,"pitch":57,"start":115.6153,"duration":0.2308,"velocity":127,"measure":32,"beat":2.25,"subject_pos":-1,"motif":"","motif_pos":-1,"best_pos":0,"similarity":0.464,"stretto":false,"stretto_voices":0,"combination":[],"aug_dim":"","rhythm_ratio":1.0,"mirror":false,"chromatic_density":0.308,"complexity":0.645,"dissonance":0.217},{"voice":0,"pitch":70,"start":115.846,"duration":0.2308,"velocity":127,"measure":32,"beat":2.5,"subject_pos":-1,"motif":"","motif_pos":-1,"best_pos":3,"similarity":0.457,"stretto":false,"stretto_voices":0,"combination":[],"aug_dim":"","rhythm_ratio":1.0,"mirror":false,"chromatic_density":0.308,"complexity":0.645,"dissonance":0.217},{"voice":2,"pitch":62,"start":115.846,"duration":0.2308,"velocity":127,"measure":32,"beat":2.5,"subject_pos":-1,"motif":"","motif_pos":-1,"best_pos":1,"similarity":0.661,"stretto":false,"stretto_voices":0,"combination":[],"aug_dim":"","rhythm_ratio":1.0,"mirror":false,"chromatic_density":0.308,"complexity":0.645,"dissonance":0.217},{"voice":0,"pitch":69,"start":116.0768,"duration":0.2308,"velocity":127,"measure":32,"beat":2.75,"subject_pos":-1,"motif":"","motif_pos":-1,"best_pos":4,"similarity":0.411,"stretto":false,"stretto_voices":0,"combination":[],"aug_dim":"","rhythm_ratio":1.0,"mirror":false,"chromatic_density":0.308,"complexity":0.645,"dissonance":0.217},{"voice":2,"pitch":60,"start":116.0768,"duration":0.2308,"velocity":127,"measure":32,"beat":2.75,"subject_pos":-1,"motif":"","motif_pos":-1,"best_pos":2,"similarity":0.679,"stretto":false,"stretto_voices":0,"combination":[],"aug_dim":"","rhythm_ratio":1.0,"mirror":false,"chromatic_density":0.308,"complexity":0.645,"dissonance":0.217},{"voice":0,"pitch":67,"start":116.3076,"duration":0.4615,"velocity":127,"measure":32,"beat":3.0,"subject_pos":-1,"motif":"","motif_pos":-1,"best_pos":4,"similarity":0.339,"stretto":false,"stretto_voices":0,"combination":[],"aug_dim":"","rhythm_ratio":1.0,"mirror":false,"chromatic_density":0.308,"complexity":0.645,"dissonance":0.217},{"voice":2,"pitch":58,"start":116.3076,"duration":0.4615,"velocity":127,"measure":32,"beat":3.0,"subject_pos":-1,"motif":"","motif_pos":-1,"best_pos":4,"similarity":0.643,"stretto":false,"stretto_voices":0,"combination":[],"aug_dim":"","rhythm_ratio":1.0,"mirror":false,"chromatic_density":0.308,"complexity":0.645,"dissonance":0.217},{"voice":3,"pitch":57,"start":116.5383,"duration":0.2308,"velocity":127,"measure":32,"beat":3.25,"subject_pos":-1,"motif":"","motif_pos":-1,"best_pos":1,"similarity":0.571,"stretto":false,"stretto_voices":0,"combination":[],"aug_dim":"","rhythm_ratio":1.0,"mirror":false,"chromatic_density":0.308,"complexity":0.645,"dissonance":0.217},{"voice":0,"pitch":79,"start":116.7691,"duration":0.6923,"velocity":127,"measure":32,"beat":3.5,"subject_pos":-1,"motif":"","motif_pos":-1,"best_pos":5,"similarity":0.268,"stretto":false,"stretto_voices":0,"combination":[],"aug_dim":"","rhythm_ratio":1.0,"mirror":false,"chromatic_density":0.308,"complexity":0.645,"dissonance":0.217},{"voice":2,"pitch":59,"start":116.7691,"duration":0.4615,"velocity":127,"measure":32,"beat":3.5,"subject_pos":-1,"motif":"","motif_pos":-1,"best_pos":5,"similarity":0.679,"stretto":false,"stretto_voices":0,"combination":[],"aug_dim":"","rhythm_ratio":1.0,"mirror":false,"chromatic_density":0.308,"complexity":0.645,"dissonance":0.217},{"voice":3,"pitch":55,"start":116.7691,"duration":0.2308,"velocity":127,"measure":32,"beat":3.5,"subject_pos":-1,"motif":"","motif_pos":-1,"best_pos":2,"similarity":0.65,"stretto":false,"stretto_voices":0,"combination":[],"aug_dim":"","rhythm_ratio":1.0,"mirror":false,"chromatic_density":0.308,"complexity":0.645,"dissonance":0.217},{"voice":3,"pitch":53,"start":116.9999,"duration":0.2308,"velocity":127,"measure":32,"beat":3.75,"subject_pos":-1,"motif":"enigmatic_cell","motif_pos":0,"best_pos":0,"similarity":1.0,"stretto":false,"stretto_voices":0,"combination":[],"aug_dim":"","rhythm_ratio":1.0,"mirror":false,"chromatic_density":0.308,"complexity":0.645,"dissonance":0.217},{"voice":2,"pitch":60,"start":117.2307,"duration":0.4615,"velocity":127,"measure":32,"beat":4.0,"subject_pos":-1,"motif":"","motif_pos":-1,"best_pos":5,"similarity":0.643,"stretto":false,"stretto_voices":0,"combination":[],"aug_dim":"","rhythm_ratio":1.0,"mirror":false,"chromatic_density":0.308,"complexity":0.645,"dissonance":0.217},{"voice":3,"pitch":52,"start":117.2307,"duration":0.4615,"velocity":127,"measure":32,"beat":4.0,"subject_pos":-1,"motif":"enigmatic_cell","motif_pos":1,"best_pos":1,"similarity":1.0,"stretto":false,"stretto_voices":0,"combination":[],"aug_dim":"","rhythm_ratio":1.0,"mirror":false,"chromatic_density":0.308,"complexity":0.645,"dissonance":0.217},{"voice":0,"pitch":82,"start":117.4614,"duration":0.2308,"velocity":127,"measure":32,"beat":4.25,"subject_pos":-1,"motif":"","motif_pos":-1,"best_pos":1,"similarity":0.357,"stretto":false,"stretto_voices":0,"combination":[],"aug_dim":"","rhythm_ratio":1.0,"mirror":false,"chromatic_density":0.308,"complexity":0.645,"dissonance":0.217},{"voice":0,"pitch":81,"start":117.6922,"duration":0.2308,"velocity":127,"measure":32,"beat":4.5,"subject_pos":-1,"motif":"","motif_pos":-1,"best_pos":2,"similarity":0.482,"stretto":false,"stretto_voices":0,"combination":[],"aug_dim":"","rhythm_ratio":1.0,"mirror":false,"chromatic_density":0.308,"complexity":0.645,"dissonance":0.217},{"voice":2,"pitch":61,"start":117.6922,"duration":0.4615,"velocity":127,"measure":32,"beat":4.5,"subject_pos":-1,"motif":"","motif_pos":-1,"best_pos":6,"similarity":0.589,"stretto":false,"stretto_voices":0,"combination":[],"aug_dim":"","rhythm_ratio":1.0,"mirror":false,"chromatic_density":0.308,"complexity":0.645,"dissonance":0.217},{"voice":3,"pitch":57,"start":117.6922,"duration":0.4615,"velocity":127,"measure":32,"beat":4.5,"subject_pos":-1,"motif":"enigmatic_cell","motif_pos":2,"best_pos":2,"similarity":1.0,"stretto":false,"stretto_voices":0,"combination":[],"aug_dim":"","rhythm_ratio":1.0,"mirror":false,"chromatic_density":0.308,"complexity":0.645,"dissonance":0.217},{"voice":0,"pitch":79,"start":117.923,"duration":0.2308,"velocity":127,"measure":32,"beat":4.75,"subject_pos":-1,"motif":"","motif_pos":-1,"best_pos":3,"similarity":0.571,"stretto":false,"stretto_voices":0,"combination":[],"aug_dim":"","rhythm_ratio":1.0,"mirror":false,"chromatic_density":0.308,"complexity":0.645,"dissonance":0.217},{"voice":0,"pitch":78,"start":118.1537,"duration":0.4615,"velocity":127,"measure":33,"beat":1.0,"subject_pos":-1,"motif":"","motif_pos":-1,"best_pos":3,"similarity":0.521,"stretto":false,"stretto_voices":0,"combination":[],"aug_dim":"","rhythm_ratio":1.0,"mirror":false,"chromatic_density":0.273,"complexity":0.547,"dissonance":0.381},{"voice":2,"pitch":62,"start":118.1537,"duration":0.2308,"velocity":127,"measure":33,"beat":1.0,"subject_pos":-1,"motif":"","motif_pos":-1,"best_pos":7,"similarity":0.429,"stretto":false,"stretto_voices":0,"combination":[],"aug_dim":"","rhythm_ratio":1.0,"mirror":false,"chromatic_density":0.273,"complexity":0.547,"dissonance":0.381},{"voice":3,"pitch":50,"start":118.1537,"duration":0.4615,"velocity":127,"measure":33,"beat":1.0,"subject_pos":-1,"motif":"","motif_pos":-1,"best_pos":0,"similarity":0.3,"stretto":false,"stretto_voices":0,"combination":[],"aug_dim":"","rhythm_ratio":1.0,"mirror":false,"chromatic_density":0.273,"complexity":0.547,"dissonance":0.381},{"voice":2,"pitch":60,"start":118.3845,"duration":0.2308,"velocity":127,"measure":33,"beat":1.25,"subject_pos":-1,"motif":"","motif_pos":-1,"best_pos":3,"similarity":0.536,"stretto":false,"stretto_voices":0,"combination":[],"aug_dim":"","rhythm_ratio":1.0,"mirror":false,"chromatic_density":0.273,"complexity":0.547,"dissonance":0.381},{"voice":0,"pitch":77,"start":118.6153,"duration":0.6923,"velocity":127,"measure":33,"beat":1.5,"subject_pos":-1,"motif":"","motif_pos":-1,"best_pos":4,"similarity":0.454,"stretto":false,"stretto_voices":0,"combination":[],"aug_dim":"","rhythm_ratio":1.0,"mirror":false,"chromatic_density":0.273,"complexity":0.547,"dissonance":0.381},{"voice":2,"pitch":59,"start":118.6153,"duration":0.2308,"velocity":127,"measure":33,"beat":1.5,"subject_pos":-1,"motif":"","motif_pos":-1,"best_pos":4,"similarity":0.554,"stretto":false,"stretto_voices":0,"combination":[],"aug_dim":"","rhythm_ratio":1.0,"mirror":false,"chromatic_density":0.273,"complexity":0.547,"dissonance":0.381},{"voice":2,"pitch":57,"start":118.846,"duration":0.2308,"velocity":127,"measure":33,"beat":1.75,"subject_pos":-1,"motif":"","motif_pos":-1,"best_pos":5,"similarity":0.529,"stretto":false,"stretto_voices":0,"combination":[],"aug_dim":"","rhythm_ratio":1.0,"mirror":false,"chromatic_density":0.273,"complexity":0.547,"dissonance":0.381},{"voice":2,"pitch":59,"start":119.0768,"duration":0.4615,"velocity":127,"measure":33,"beat":2.0,"subject_pos":-1,"motif":"","motif_pos":-1,"best_pos":3,"similarity":0.45,"stretto":false,"stretto_voices":0,"combination":[],"aug_dim":"","rhythm_ratio":1.0,"mirror":false,"chromatic_density":0.273,"complexity":0.547,"dissonance":0.381},{"voice":3,"pitch":55,"start":119.0768,"duration":0.4615,"velocity":127,"measure":33,"beat":2.0,"subject_pos":-1,"motif":"","motif_pos":-1,"best_pos":1,"similarity":0.314,"stretto":false,"stretto_voices":0,"combination":[],"aug_dim":"","rhythm_ratio":1.0,"mirror":false,"chromatic_density":0.273,"complexity":0.547,"dissonance":0.381},{"voice":0,"pitch":81,"start":119.3076,"duration":0.2308,"velocity":127,"measure":33,"beat":2.25,"subject_pos":-1,"motif":"","motif_pos":-1,"best_pos":1,"similarity":0.5,"stretto":false,"stretto_voices":0,"combination":[],"aug_dim":"","rhythm_ratio":1.0,"mirror":false,"chromatic_density":0.273,"complexity":0.547,"dissonance":0.381},{"voice":0,"pitch":79,"start":119.5383,"duration":0.2308,"velocity":127,"measure":33,"beat":2.5,"subject_pos":-1,"motif":"","motif_pos":-1,"best_pos":2,"similarity":0.518,"stretto":false,"stretto_voices":0,"combination":[],"aug_dim":"","rhythm_ratio":1.0,"mirror":false,"chromatic_density":0.273,"complexity":0.547,"dissonance":0.381},{"voice":2,"pitch":58,"start":119.5383,"duration":0.6923,"velocity":127,"measure":33,"beat":2.5,"subject_pos":-1,"motif":"","motif_pos":-1,"best_pos":4,"similarity":0.407,"stretto":false,"stretto_voices":0,"combination":[],"aug_dim":"","rhythm_ratio":1.0,"mirror":false,"chromatic_density":0.273,"complexity":0.547,"dissonance":0.381},{"voice":0,"pitch":78,"start":119.7691,"duration":0.2308,"velocity":127,"measure":33,"beat":2.75,"subject_pos":-1,"motif":"","motif_pos":-1,"best_pos":3,"similarity":0.446,"stretto":false,"stretto_voices":0,"combination":[],"aug_dim":"","rhythm_ratio":1.0,"mirror":false,"chromatic_density":0.273,"complexity":0.547,"dissonance":0.381},{"voice":0,"pitch":76,"start":119.9999,"duration":0.4615,"velocity":127,"measure":33,"beat":3.0,"subject_pos":-1,"motif":"","motif_pos":-1,"best_pos":3,"similarity":0.521,"stretto":false,"stretto_voices":0,"combination":[],"aug_dim":"","rhythm_ratio":1.0,"mirror":false,"chromatic_density":0.273,"complexity":0.547,"dissonance":0.381},{"voice":3,"pitch":48,"start":119.9999,"duration":0.4615,"velocity":127,"measure":33,"beat":3.0,"subject_pos":-1,"motif":"","motif_pos":-1,"best_pos":0,"similarity":0.3,"stretto":false,"stretto_voices":0,"combination":[],"aug_dim":"","rhythm_ratio":1.0,"mirror":false,"chromatic_density":0.273,"complexity":0.547,"dissonance":0.381},{"voice":2,"pitch":62,"start":120.2306,"duration":0.2308,"velocity":127,"measure":33,"beat":3.25,"subject_pos":-1,"motif":"","motif_pos":-1,"best_pos":1,"similarity":0.571,"stretto":false,"stretto_voices":0,"combination":[],"aug_dim":"","rhythm_ratio":1.0,"mirror":false,"chromatic_density":0.273,"complexity":0.547,"dissonance":0.381},{"voice":0,"pitch":75,"start":120.4614,"duration":0.6923,"velocity":127,"measure":33,"beat":3.5,"subject_pos":-1,"motif":"","motif_pos":-1,"best_pos":4,"similarity":0.443,"stretto":false,"stretto_voices":0,"combination":[],"aug_dim":"","rhythm_ratio":1.0,"mirror":false,"chromatic_density":0.273,"complexity":0.547,"dissonance":0.381},{"voice":2,"pitch":60,"start":120.4614,"duration":0.2308,"velocity":127,"measure":33,"beat":3.5,"subject_pos":-1,"motif":"","motif_pos":-1,"best_pos":2,"similarity":0.643,"stretto":false,"stretto_voices":0,"combination":[],"aug_dim":"","rhythm_ratio":1.0,"mirror":false,"chromatic_density":0.273,"complexity":0.547,"dissonance":0.381},{"voice":2,"pitch":58,"start":120.6922,"duration":0.2308,"velocity":127,"measure":33,"beat":3.75,"subject_pos":-1,"motif":"","motif_pos":-1,"best_pos":3,"similarity":0.625,"stretto":false,"stretto_voices":0,"combination":[],"aug_dim":"","rhythm_ratio":1.0,"mirror":false,"chromatic_density":0.273,"complexity":0.547,"dissonance":0.381},{"voice":2,"pitch":57,"start":120.923,"duration":0.4615,"velocity":127,"measure":33,"beat":4.0,"subject_pos":-1,"motif":"","motif_pos":-1,"best_pos":4,"similarity":0.471,"stretto":false,"stretto_voices":0,"combination":[],"aug_dim":"","rhythm_ratio":1.0,"mirror":false,"chromatic_density":0.273,"complexity":0.547,"dissonance":0.381},{"voice":3,"pitch":53,"start":120.923,"duration":0.4615,"velocity":127,"measure":33,"beat":4.0,"subject_pos":-1,"motif":"","motif_pos":-1,"best_pos":1,"similarity":0.386,"stretto":false,"stretto_voices":0,"combination":[],"aug_dim":"","rhythm_ratio":1.0,"mirror":false,"chromatic_density":0.273,"complexity":0.547,"dissonance":0.381},{"voice":0,"pitch":79,"start":121.1537,"duration":0.2308,"velocity":127,"measure":33,"beat":4.25,"subject_pos":-1,"motif":"","motif_pos":-1,"best_pos":1,"similarity":0.571,"stretto":false,"stretto_voices":0,"combination":[],"aug_dim":"","rhythm_ratio":1.0,"mirror":false,"chromatic_density":0.273,"complexity":0.547,"dissonance":0.381},{"voice":0,"pitch":77,"start":121.3845,"duration":0.2308,"velocity":127,"measure":33,"beat":4.5,"subject_pos":-1,"motif":"","motif_pos":-1,"best_pos":2,"similarity":0.661,"stretto":false,"stretto_voices":0,"combination":[],"aug_dim":"","rhythm_ratio":1.0,"mirror":false,"chromatic_density":0.273,"complexity":0.547,"dissonance":0.381},{"voice":2,"pitch":69,"start":121.3845,"duration":0.6923,"velocity":127,"measure":33,"beat":4.5,"subject_pos":-1,"motif":"","motif_pos":-1,"best_pos":4,"similarity":0.271,"stretto":false,"stretto_voices":0,"combination":[],"aug_dim":"","rhythm_ratio":1.0,"mirror":false,"chromatic_density":0.273,"complexity":0.547,"dissonance":0.381},{"voice":0,"pitch":75,"start":121.6153,"duration":0.2308,"velocity":127,"measure":33,"beat":4.75,"subject_pos":-1,"motif":"","motif_pos":-1,"best_pos":3,"similarity":0.65,"stretto":false,"stretto_voices":0,"combination":[],"aug_dim":"","rhythm_ratio":1.0,"mirror":false,"chromatic_density":0.273,"complexity":0.547,"dissonance":0.381},{"voice":0,"pitch":74,"start":121.846,"duration":0.9231,"velocity":127,"measure":34,"beat":1.0,"subject_pos":-1,"motif":"","motif_pos":-1,"best_pos":3,"similarity":0.543,"stretto":false,"stretto_voices":0,"combination":[],"aug_dim":"","rhythm_ratio":1.0,"mirror":false,"chromatic_density":0.542,"complexity":0.65,"dissonance":0.119},{"voice":3,"pitch":46,"start":121.846,"duration":0.4615,"velocity":127,"measure":34,"beat":1.0,"subject_pos":-1,"motif":"","motif_pos":-1,"best_pos":2,"similarity":0.321,"stretto":false,"stretto_voices":0,"combination":[],"aug_dim":"","rhythm_ratio":1.0,"mirror":false,"chromatic_density":0.542,"complexity":0.65,"dissonance":0.119},{"voice":2,"pitch":69,"start":122.0768,"duration":0.2308,"velocity":127,"measure":34,"beat":1.25,"subject_pos":-1,"motif":"","motif_pos":-1,"best_pos":1,"similarity":0.429,"stretto":false,"stretto_voices":0,"combination":[],"aug_dim":"","rhythm_ratio":1.0,"mirror":false,"chromatic_density":0.542,"complexity":0.65,"dissonance":0.119},{"voice":2,"pitch":67,"start":122.3076,"duration":0.2308,"velocity":127,"measure":34,"beat":1.5,"subject_pos":-1,"motif":"","motif_pos":-1,"best_pos":2,"similarity":0.589,"stretto":false,"stretto_voices":0,"combination":[],"aug_dim":"","rhythm_ratio":1.0,"mirror":false,"chromatic_density":0.542,"complexity":0.65,"dissonance":0.119},{"voice":3,"pitch":58,"start":122.3076,"duration":0.6923,"velocity":127,"measure":34,"beat":1.5,"subject_pos":-1,"motif":"","motif_pos":-1,"best_pos":3,"similarity":0.393,"stretto":false,"stretto_voices":0,"combination":[],"aug_dim":"","rhythm_ratio":1.0,"mirror":false,"chromatic_density":0.542,"complexity":0.65,"dissonance":0.119},{"voice":2,"pitch":65,"start":122.5383,"duration":0.2308,"velocity":127,"measure":34,"beat":1.75,"subject_pos":-1,"motif":"","motif_pos":-1,"best_pos":3,"similarity":0.614,"stretto":false,"stretto_voices":0,"combination":[],"aug_dim":"","rhythm_ratio":1.0,"mirror":false,"chromatic_density":0.542,"complexity":0.65,"dissonance":0.119},{"voice":0,"pitch":73,"start":122.7691,"duration":0.4615,"velocity":127,"measure":34,"beat":2.0,"subject_pos":-1,"motif":"","motif_pos":-1,"best_pos":4,"similarity":0.496,"stretto":false,"stretto_voices":0,"combination":[],"aug_dim":"","rhythm_ratio":1.0,"mirror":false,"chromatic_density":0.542,"complexity":0.65,"dissonance":0.119},{"voice":2,"pitch":64,"start":122.7691,"duration":0.4615,"velocity":127,"measure":34,"beat":2.0,"subject_pos":-1,"motif":"","motif_pos":-1,"best_pos":3,"similarity":0.543,"stretto":false,"stretto_voices":0,"combination":[],"aug_dim":"","rhythm_ratio":1.0,"mirror":false,"chromatic_density":0.542,"complexity":0.65,"dissonance":0.119},{"voice":3,"pitch":57,"start":122.9999,"duration":0.2308,"velocity":127,"measure":34,"beat":2.25,"subject_pos":-1,"motif":"","motif_pos":-1,"best_pos":2,"similarity":0.5,"stretto":false,"stretto_voices":0,"combination":[],"aug_dim":"","rhythm_ratio":1.0,"mirror":false,"chromatic_density":0.542,"complexity":0.65,"dissonance":0.119},{"voice":0,"pitch":72,"start":123.2306,"duration":0.9231,"velocity":127,"measure":34,"beat":2.5,"subject_pos":-1,"motif":"","motif_pos":-1,"best_pos":2,"similarity":0.436,"stretto":false,"stretto_voices":0,"combination":[],"aug_dim":"","rhythm_ratio":1.0,"mirror":false,"chromatic_density":0.542,"complexity":0.65,"dissonance":0.119},{"voice":2,"pitch":63,"start":123.2306,"duration":0.4615,"velocity":127,"measure":34,"beat":2.5,"subject_pos":-1,"motif":"","motif_pos":-1,"best_pos":4,"similarity":0.55,"stretto":false,"stretto_voices":0,"combination":[],"aug_dim":"","rhythm_ratio":1.0,"mirror":false,"chromatic_density":0.542,"complexity":0.65,"dissonance":0.119},{"voice":3,"pitch":55,"start":123.2306,"duration":0.2308,"velocity":127,"measure":34,"beat":2.5,"subject_pos":-1,"motif":"tail","motif_pos":3,"best_pos":3,"similarity":1.0,"stretto":false,"stretto_voices":0,"combination":[],"aug_dim":"","rhythm_ratio":1.0,"mirror":false,"chromatic_density":0.542,"complexity":0.65,"dissonance":0.119},{"voice":3,"pitch":54,"start":123.4614,"duration":0.2308,"velocity":127,"measure":34,"beat":2.75,"subject_pos":-1,"motif":"tail","motif_pos":4,"best_pos":4,"similarity":1.0,"stretto":false,"stretto_voices":0,"combination":[],"aug_dim":"","rhythm_ratio":1.0,"mirror":false,"chromatic_density":0.542,"complexity":0.65,"dissonance":0.119},{"voice":2,"pitch":62,"start":123.6922,"duration":0.4615,"velocity":127,"measure":34,"beat":3.0,"subject_pos":-1,"motif":"","motif_pos":-1,"best_pos":3,"similarity":0.579,"stretto":false,"stretto_voices":0,"combination":[],"aug_dim":"","rhythm_ratio":1.0,"mirror":false,"chromatic_density":0.542,"complexity":0.65,"dissonance":0.119},{"voice":3,"pitch":55,"start":123.6922,"duration":0.4615,"velocity":127,"measure":34,"beat":3.0,"subject_pos":-1,"motif":"tail","motif_pos":5,"best_pos":5,"similarity":1.0,"stretto":false,"stretto_voices":0,"combination":[],"aug_dim":"","rhythm_ratio":1.0,"mirror":false,"chromatic_density":0.542,"complexity":0.65,"dissonance":0.119},{"voice":0,"pitch":70,"start":124.1537,"duration":0.2308,"velocity":127,"measure":34,"beat":3.5,"subject_pos":-1,"motif":"","motif_pos":-1,"best_pos":3,"similarity":0.514,"stretto":false,"stretto_voices":0,"combination":[],"aug_dim":"","rhythm_ratio":1.0,"mirror":false,"chromatic_density":0.542,"complexity":0.65,"dissonance":0.119},{"voice":2,"pitch":61,"start":124.1537,"duration":0.4615,"velocity":127,"measure":34,"beat":3.5,"subject_pos":-1,"motif":"","motif_pos":-1,"best_pos":4,"similarity":0.664,"stretto":false,"stretto_voices":0,"combination":[],"aug_dim":"","rhythm_ratio":1.0,"mirror":false,"chromatic_density":0.542,"complexity":0.65,"dissonance":0.119},{"voice":3,"pitch":57,"start":124.1537,"duration":0.4615,"velocity":127,"measure":34,"beat":3.5,"subject_pos":-1,"motif":"tail","motif_pos":6,"best_pos":6,"similarity":1.0,"stretto":false,"stretto_voices":0,"combination":[],"aug_dim":"","rhythm_ratio":1.0,"mirror":false,"chromatic_density":0.542,"complexity":0.65,"dissonance":0.119},{"voice":0,"pitch":69,"start":124.3845,"duration":0.2308,"velocity":127,"measure":34,"beat":3.75,"subject_pos":-1,"motif":"","motif_pos":-1,"best_pos":4,"similarity":0.439,"stretto":false,"stretto_voices":0,"combination":[],"aug_dim":"","rhythm_ratio":1.0,"mirror":false,"chromatic_density":0.542,"complexity":0.65,"dissonance":0.119},{"voice":0,"pitch":67,"start":124.6153,"duration":0.2308,"velocity":127,"measure":34,"beat":4.0,"subject_pos":-1,"motif":"","motif_pos":-1,"best_pos":2,"similarity":0.436,"stretto":false,"stretto_voices":0,"combination":[],"aug_dim":"","rhythm_ratio":1.0,"mirror":false,"chromatic_density":0.542,"complexity":0.65,"dissonance":0.119},{"voice":2,"pitch":62,"start":124.6153,"duration":0.4615,"velocity":127,"measure":34,"beat":4.0,"subject_pos":-1,"motif":"head","motif_pos":0,"best_pos":0,"similarity":1.0,"stretto":false,"stretto_voices":0,"combination":[],"aug_dim":"","rhythm_ratio":1.0,"mirror":false,"chromatic_density":0.542,"complexity":0.65,"dissonance":0.119},{"voice":3,"pitch":58,"start":124.6153,"duration":0.4615,"velocity":127,"measure":34,"beat":4.0,"subject_pos":-1,"motif":"tail","motif_pos":7,"best_pos":7,"similarity":1.0,"stretto":false,"stretto_voices":0,"combination":[],"aug_dim":"","rhythm_ratio":1.0,"mirror":false,"chromatic_density":0.542,"complexity":0.65,"dissonance":0.119},{"voice":0,"pitch":77,"start":124.846,"duration":0.2308,"velocity":127,"measure":34,"beat":4.25,"subject_pos":-1,"motif":"","motif_pos":-1,"best_pos":3,"similarity":0.45,"stretto":false,"stretto_voices":0,"combination":[],"aug_dim":"","rhythm_ratio":1.0,"mirror":false,"chromatic_density":0.542,"complexity":0.65,"dissonance":0.119},{"voice":0,"pitch":76,"start":125.0768,"duration":0.2308,"velocity":127,"measure":34,"beat":4.5,"subject_pos":-1,"motif":"","motif_pos":-1,"best_pos":2,"similarity":0.514,"stretto":false,"stretto_voices":0,"combination":[],"aug_dim":"","rhythm_ratio":1.0,"mirror":false,"chromatic_density":0.542,"complexity":0.65,"dissonance":0.119},{"voice":2,"pitch":67,"start":125.0768,"duration":0.6923,"velocity":127,"measure":34,"beat":4.5,"subject_pos":-1,"motif":"head","motif_pos":1,"best_pos":1,"similarity":1.0,"stretto":false,"stretto_voices":0,"combination":[],"aug_dim":"","rhythm_ratio":1.0,"mirror":false,"chromatic_density":0.542,"complexity":0.65,"dissonance":0.119},{"voice":3,"pitch":55,"start":125.0768,"duration":0.4615,"velocity":127,"measure":34,"beat":4.5,"subject_pos":-1,"motif":"","motif_pos":-1,"best_pos":5,"similarity":0.493,"stretto":false,"stretto_voices":0,"combination":[],"aug_dim":"","rhythm_ratio":1.0,"mirror":false,"chromatic_density":0.542,"complexity":0.65,"dissonance":0.119},{"voice":0,"pitch":74,"start":125.3076,"duration":0.2308,"velocity":127,"measure":34,"beat":4.75,"subject_pos":-1,"motif":"","motif_pos":-1,"best_pos":3,"similarity":0.721,"stretto":false,"stretto_voices":0,"combination":[],"aug_dim":"","rhythm_ratio":1.0,"mirror":false,"chromatic_density":0.542,"complexity":0.65,"dissonance":0.119},{"voice":0,"pitch":73,"start":125.5383,"duration":0.6923,"velocity":127,"measure":35,"beat":1.0,"subject_pos":-1,"motif":"","motif_pos":-1,"best_pos":4,"similarity":0.829,"stretto":false,"stretto_voices":0,"combination":[],"aug_dim":"","rhythm_ratio":1.0,"mirror":false,"chromatic_density":0.348,"complexity":0.688,"dissonance":0.048},{"voice":1,"pitch":69,"start":125.5383,"duration":3.6923,"velocity":127,"measure":35,"beat":1.0,"subject_pos":0,"motif":"subject_inv","motif_pos":0,"best_pos":0,"similarity":1.0,"stretto":false,"stretto_voices":0,"combination":[],"aug_dim":"augmentation","rhythm_ratio":2.0,"mirror":false,"chromatic_density":0.348,"complexity":0.688,"dissonance":0.048},{"voice":3,"pitch":57,"start":125.5383,"duration":1.1538,"velocity":127,"measure":35,"beat":1.0,"subject_pos":-1,"motif":"","motif_pos":-1,"best_pos":6,"similarity":0.604,"stretto":false,"stretto_voices":0,"combination":[],"aug_dim":"","rhythm_ratio":1.0,"mirror":false,"chromatic_density":0.348,"complexity":0.688,"dissonance":0.048},{"voice":2,"pitch":65,"start":125.7691,"duration":0.2308,"velocity":127,"measure":35,"beat":1.25,"subject_pos":-1,"motif":"head","motif_pos":2,"best_pos":2,"similarity":1.0,"stretto":false,"stretto_voices":0,"combination":[],"aug_dim":"","rhythm_ratio":1.0,"mirror":false,"chromatic_density":0.348,"complexity":0.688,"dissonance":0.048},{"voice":2,"pitch":64,"start":125.9999,"duration":0.2308,"velocity":127,"measure":35,"beat":1.5,"subject_pos":-1,"motif":"head","motif_pos":3,"best_pos":3,"similarity":1.0,"stretto":false,"stretto_voices":0,"combination":[],"aug_dim":"","rhythm_ratio":1.0,"mirror":false,"chromatic_density":0.348,"complexity":0.688,"dissonance":0.048},{"voice":0,"pitch":74,"start":126.2306,"duration":0.2308,"velocity":127,"measure":35,"beat":1.75,"subject_pos":-1,"motif":"","motif_pos":-1,"best_pos":5,"similarity":0.764,"stretto":false,"stretto_voices":0,"combination":[],"aug_dim":"","rhythm_ratio":1.0,"mirror":false,"chromatic_density":0.348,"complexity":0.688,"dissonance":0.048},{"voice":2,"pitch":62,"start":126.2306,"duration":0.2308,"velocity":127,"measure":35,"beat":1.75,"subject_pos":-1,"motif":"head","motif_pos":4,"best_pos":4,"similarity":1.0,"stretto":false,"stretto_voices":0,"combination":[],"aug_dim":"","rhythm_ratio":1.0,"mirror":false,"chromatic_density":0.348,"complexity":0.688,"dissonance":0.048},{"voice":0,"pitch":76,"start":126.4614,"duration":0.6923,"velocity":127,"measure":35,"beat":2.0,"subject_pos":-1,"motif":"","motif_pos":-1,"best_pos":6,"similarity":0.529,"stretto":false,"stretto_voices":0,"combination":[],"aug_dim":"","rhythm_ratio":1.0,"mirror":false,"chromatic_density":0.348,"complexity":0.688,"dissonance":0.048},{"voice":2,"pitch":61,"start":126.4614,"duration":0.4615,"velocity":127,"measure":35,"beat":2.0,"subject_pos":-1,"motif":"","motif_pos":-1,"best_pos":4,"similarity":0.464,"stretto":false,"stretto_voices":0,"combination":[],"aug_dim":"","rhythm_ratio":1.0,"mirror":false,"chromatic_density":0.348,"complexity":0.688,"dissonance":0.048},{"voice":3,"pitch":58,"start":126.6922,"duration":0.2308,"velocity":127,"measure":35,"beat":2.25,"subject_pos":-1,"motif":"","motif_pos":-1,"best_pos":7,"similarity":0.436,"stretto":false,"stretto_voices":0,"combination":[],"aug_dim":"","rhythm_ratio":1.0,"mirror":false,"chromatic_density":0.348,"complexity":0.688,"dissonance":0.048},{"voice":2,"pitch":64,"start":126.923,"duration":0.4615,"velocity":127,"measure":35,"beat":2.5,"subject_pos":-1,"motif":"","motif_pos":-1,"best_pos":5,"similarity":0.25,"stretto":false,"stretto_voices":0,"combination":[],"aug_dim":"","rhythm_ratio":1.0,"mirror":false,"chromatic_density":0.348,"complexity":0.688,"dissonance":0.048},{"voice":3,"pitch":57,"start":126.923,"duration":0.2308,"velocity":127,"measure":35,"beat":2.5,"subject_pos":-1,"motif":"","motif_pos":-1,"best_pos":2,"similarity":0.407,"stretto":false,"stretto_voices":0,"combination":[],"aug_dim":"","rhythm_ratio":1.0,"mirror":false,"chromatic_density":0.348,"complexity":0.688,"dissonance":0.048},{"voice":0,"pitch":73,"start":127.1537,"duration":0.2308,"velocity":127,"measure":35,"beat":2.75,"subject_pos":-1,"motif":"","motif_pos":-1,"best_pos":4,"similarity":0.454,"stretto":false,"stretto_voices":0,"combination":[],"aug_dim":"","rhythm_ratio":1.0,"mirror":false,"chromatic_density":0.348,"complexity":0.688,"dissonance":0.048},{"voice":3,"pitch":55,"start":127.1537,"duration":0.2308,"velocity":127,"measure":35,"beat":2.75,"subject_pos":-1,"motif":"","motif_pos":-1,"best_pos":3,"similarity":0.507,"stretto":false,"stretto_voices":0,"combination":[],"aug_dim":"","rhythm_ratio":1.0,"mirror":false,"chromatic_density":0.348,"complexity":0.688,"dissonance":0.048},{"voice":0,"pitch":74,"start":127.3845,"duration":0.2308,"velocity":127,"measure":35,"beat":3.0,"subject_pos":-1,"motif":"","motif_pos":-1,"best_pos":5,"similarity":0.5,"stretto":false,"stretto_voices":0,"combination":[],"aug_dim":"","rhythm_ratio":1.0,"mirror":false,"chromatic_density":0.348,"complexity":0.688,"dissonance":0.048},{"voice":2,"pitch":57,"start":127.3845,"duration":0.4615,"velocity":127,"measure":35,"beat":3.0,"subject_pos":-1,"motif":"","motif_pos":-1,"best_pos":3,"similarity":0.189,"stretto":false,"stretto_voices":0,"combination":[],"aug_dim":"","rhythm_ratio":1.0,"mirror":false,"chromatic_density":0.348,"complexity":0.688,"dissonance":0.048},{"voice":3,"pitch":53,"start":127.3845,"duration":0.6923,"velocity":127,"measure":35,"beat":3.0,"subject_pos":-1,"motif":"","motif_pos":-1,"best_pos":4,"similarity":0.536,"stretto":false,"stretto_voices":0,"combination":[],"aug_dim":"","rhythm_ratio":1.0,"mirror":false,"chromatic_density":0.348,"complexity":0.688,"dissonance":0.048},{"voice":0,"pitch":77,"start":127.6153,"duration":0.2308,"velocity":127,"measure":35,"beat":3.25,"subject_pos":-1,"motif":"","motif_pos":-1,"best_pos":6,"similarity":0.375,"stretto":false,"stretto_voices":0,"combination":[],"aug_dim":"","rhythm_ratio":1.0,"mirror":false,"chromatic_density":0.348,"complexity":0.688,"dissonance":0.048},{"voice":0,"pitch":76,"start":127.846,"duration":0.2308,"velocity":127,"measure":35,"beat":3.5,"subject_pos":-1,"motif":"","motif_pos":-1,"best_pos":2,"similarity":0.482,"stretto":false,"stretto_voices":0,"combination":[],"aug_dim":"","rhythm_ratio":1.0,"mirror":false,"chromatic_density":0.348,"complexity":0.688,"dissonance":0.048},{"voice":0,"pitch":74,"start":128.0768,"duration":0.2308,"velocity":127,"measure":35,"beat":3.75,"subject_pos":-1,"motif":"","motif_pos":-1,"best_pos":3,"similarity":0.554,"stretto":false,"stretto_voices":0,"combination":[],"aug_dim":"","rhythm_ratio":1.0,"mirror":false,"chromatic_density":0.348,"complexity":0.688,"dissonance":0.048},{"voice":3,"pitch":55,"start":128.0768,"duration":0.2308,"velocity":127,"measure":35,"beat":3.75,"subject_pos":-1,"motif":"","motif_pos":-1,"best_pos":5,"similarity":0.536,"stretto":false,"stretto_voices":0,"combination":[],"aug_dim":"","rhythm_ratio":1.0,"mirror":false,"chromatic_density":0.348,"complexity":0.688,"dissonance":0.048},{"voice":0,"pitch":73,"start":128.3076,"duration":0.2308,"velocity":127,"measure":35,"beat":4.0,"subject_pos":-1,"motif":"","motif_pos":-1,"best_pos":4,"similarity":0.471,"stretto":false,"stretto_voices":0,"combination":[],"aug_dim":"","rhythm_ratio":1.0,"mirror":false,"chromatic_density":0.348,"complexity":0.688,"dissonance":0.048},{"voice":3,"pitch":57,"start":128.3076,"duration":0.4615,"velocity":127,"measure":35,"beat":4.0,"subject_pos":-1,"motif":"","motif_pos":-1,"best_pos":6,"similarity":0.393,"stretto":false,"stretto_voices":0,"combination":[],"aug_dim":"","rhythm_ratio":1.0,"mirror":false,"chromatic_density":0.348,"complexity":0.688,"dissonance":0.048},{"voice":0,"pitch":76,"start":128.5383,"duration":0.2308,"velocity":127,"measure":35,"beat":4.25,"subject_pos":-1,"motif":"","motif_pos":-1,"best_pos":5,"similarity":0.264,"stretto":false,"stretto_voices":0,"combination":[],"aug_dim":"","rhythm_ratio":1.0,"mirror":false,"chromatic_density":0.348,"complexity":0.688,"dissonance":0.048},{"voice":0,"pitch":69,"start":128.7691,"duration":0.2308,"velocity":127,"measure":35,"beat":4.5,"subject_pos":-1,"motif":"","motif_pos":-1,"best_pos":1,"similarity":0.364,"stretto":false,"stretto_voices":0,"combination":[],"aug_dim":"","rhythm_ratio":1.0,"mirror":false,"chromatic_density":0.348,"complexity":0.688,"dissonance":0.048},{"voice":2,"pitch":49,"start":128.7691,"duration":0.4615,"velocity":127,"measure":35,"beat":4.5,"subject_pos":-1,"motif":"","motif_pos":-1,"best_pos":4,"similarity":0.336,"stretto":false,"stretto_voices":0,"combination":[],"aug_dim":"","rhythm_ratio":1.0,"mirror":false,"chromatic_density":0.348,"complexity":0.688,"dissonance":0.048},{"voice":0,"pitch":67,"start":128.9999,"duration":0.2308,"velocity":127,"measure":35,"beat":4.75,"subject_pos":-1,"motif":"","motif_pos":-1,"best_pos":2,"similarity":0.45,"stretto":false,"stretto_voices":0,"combination":[],"aug_dim":"","rhythm_ratio":1.0,"mirror":false,"chromatic_density":0.348,"complexity":0.688,"dissonance":0.048},{"voice":0,"pitch":65,"start":129.2306,"duration":0.2308,"velocity":127,"measure":36,"beat":1.0,"subject_pos":-1,"motif":"","motif_pos":-1,"best_pos":5,"similarity":0.407,"stretto":false,"stretto_voices":0,"combination":[],"aug_dim":"","rhythm_ratio":1.0,"mirror":false,"chromatic_density":0.385,"complexity":0.722,"dissonance":0.09},{"voice":1,"pitch":62,"start":129.2306,"duration":2.7692,"velocity":127,"measure":36,"beat":1.0,"subject_pos":1,"motif":"subject_inv","motif_pos":1,"best_pos":1,"similarity":1.0,"stretto":false,"stretto_voices":0,"combination":[],"aug_dim":"augmentation","rhythm_ratio":2.0,"mirror":false,"chromatic_density":0.385,"complexity":0.722,"dissonance":0.09},{"voice":2,"pitch":50,"start":129.2306,"duration":0.4615,"velocity":127,"measure":36,"beat":1.0,"subject_pos":-1,"motif":"","motif_pos":-1,"best_pos":5,"similarity":0.364,"stretto":false,"stretto_voices":0,"combination":[],"aug_dim":"","rhythm_ratio":1.0,"mirror":false,"chromatic_density":0.385,"complexity":0.722,"dissonance":0.09},{"voice":0,"pitch":67,"start":129.4614,"duration":0.2308,"velocity":127,"measure":36,"beat":1.25,"subject_pos":-1,"motif":"","motif_pos":-1,"best_pos":1,"similarity":0.386,"stretto":false,"stretto_voices":0,"combination":[],"aug_dim":"","rhythm_ratio":1.0,"mirror":false,"chromatic_density":0.385,"complexity":0.722,"dissonance":0.09},{"voice":3,"pitch":46,"start":129.4614,"duration":0.2308,"velocity":127,"measure":36,"beat":1.25,"subject_pos":-1,"motif":"","motif_pos":-1,"best_pos":3,"similarity":0.329,"stretto":false,"stretto_voices":0,"combination":[],"aug_dim":"","rhythm_ratio":1.0,"mirror":false,"chromatic_density":0.385,"complexity":0.722,"dissonance":0.09},{"voice":0,"pitch":65,"start":129.6922,"duration":0.2308,"velocity":127,"measure":36,"beat":1.5,"subject_pos":-1,"motif":"","motif_pos":-1,"best_pos":3,"similarity":0.493,"stretto":false,"stretto_voices":0,"combination":[],"aug_dim":"","rhythm_ratio":1.0,"mirror":false,"chromatic_density":0.385,"complexity":0.722,"dissonance":0.09},{"voice":3,"pitch":45,"start":129.6922,"duration":0.2308,"velocity":127,"measure":36,"beat":1.5,"subject_pos":-1,"motif":"","motif_pos":-1,"best_pos":1,"similarity":0.429,"stretto":false,"stretto_voices":0,"combination":[],"aug_dim":"","rhythm_ratio":1.0,"mirror":false,"chromatic_density":0.385,"complexity":0.722,"dissonance":0.09},{"voice":0,"pitch":64,"start":129.9229,"duration":0.2308,"velocity":127,"measure":36,"beat":1.75,"subject_pos":-1,"motif":"","motif_pos":-1,"best_pos":4,"similarity":0.471,"stretto":false,"stretto_voices":0,"combination":[],"aug_dim":"","rhythm_ratio":1.0,"mirror":false,"chromatic_density":0.385,"complexity":0.722,"dissonance":0.09},{"voice":3,"pitch":43,"start":129.9229,"duration":0.2308,"velocity":127,"measure":36,"beat":1.75,"subject_pos":-1,"motif":"","motif_pos":-1,"best_pos":2,"similarity":0.579,"stretto":false,"stretto_voices":0,"combination":[],"aug_dim":"","rhythm_ratio":1.0,"mirror":false,"chromatic_density":0.385,"complexity":0.722,"dissonance":0.09},{"voice":0,"pitch":62,"start":130.1537,"duration":0.2308,"velocity":127,"measure":36,"beat":2.0,"subject_pos":-1,"motif":"","motif_pos":-1,"best_pos":5,"similarity":0.364,"stretto":false,"stretto_voices":0,"combination":[],"aug_dim":"","rhythm_ratio":1.0,"mirror":false,"chromatic_density":0.385,"complexity":0.722,"dissonance":0.09},{"voice":3,"pitch":41,"start":130.1537,"duration":0.2308,"velocity":127,"measure":36,"beat":2.0,"subject_pos":-1,"motif":"","motif_pos":-1,"best_pos":3,"similarity":0.593,"stretto":false,"stretto_voices":0,"combination":[],"aug_dim":"","rhythm_ratio":1.0,"mirror":false,"chromatic_density":0.385,"complexity":0.722,"dissonance":0.09},{"voice":0,"pitch":65,"start":130.3845,"duration":0.2308,"velocity":127,"measure":36,"beat":2.25,"subject_pos":-1,"motif":"","motif_pos":-1,"best_pos":0,"similarity":0.393,"stretto":false,"stretto_voices":0,"combination":[],"aug_dim":"","rhythm_ratio":1.0,"mirror":false,"chromatic_density":0.385,"complexity":0.722,"dissonance":0.09},{"voice":3,"pitch":40,"start":130.3845,"duration":0.2308,"velocity":127,"measure":36,"beat":2.25,"subject_pos":-1,"motif":"","motif_pos":-1,"best_pos":4,"similarity":0.543,"stretto":false,"stretto_voices":0,"combination":[],"aug_dim":"","rhythm_ratio":1.0,"mirror":false,"chromatic_density":0.385,"complexity":0.722,"dissonance":0.09},{"voice":0,"pitch":70,"start":130.6153,"duration":0.2308,"velocity":127,"measure":36,"beat":2.5,"subject_pos":-1,"motif":"","motif_pos":-1,"best_pos":1,"similarity":0.536,"stretto":false,"stretto_voices":0,"combination":[],"aug_dim":"","rhythm_ratio":1.0,"mirror":false,"chromatic_density":0.385,"complexity":0.722,"dissonance":0.09},{"voice":3,"pitch":38,"start":130.6153,"duration":0.2308,"velocity":127,"measure":36,"beat":2.5,"subject_pos":-1,"motif":"","motif_pos":-1,"best_pos":3,"similarity":0.643,"stretto":false,"stretto_voices":0,"combination":[],"aug_dim":"","rhythm_ratio":1.0,"mirror":false,"chromatic_density":0.385,"complexity":0.722,"dissonance":0.09},{"voice":0,"pitch":69,"start":130.846,"duration":0.2308,"velocity":127,"measure":36,"beat":2.75,"subject_pos":-1,"motif":"","motif_pos":-1,"best_pos":2,"similarity":0.518,"stretto":false,"stretto_voices":0,"combination":[],"aug_dim":"","rhythm_ratio":1.0,"mirror":false,"chromatic_density":0.385,"complexity":0.722,"dissonance":0.09},{"voice":3,"pitch":37,"start":130.846,"duration":0.2308,"velocity":127,"measure":36,"beat":2.75,"subject_pos":-1,"motif":"","motif_pos":-1,"best_pos":4,"similarity":0.686,"stretto":false,"stretto_voices":0,"combination":[],"aug_dim":"","rhythm_ratio":1.0,"mirror":false,"chromatic_density":0.385,"complexity":0.722,"dissonance":0.09},{"voice":0,"pitch":67,"start":131.0768,"duration":0.2308,"velocity":127,"measure":36,"beat":3.0,"subject_pos":-1,"motif":"","motif_pos":-1,"best_pos":2,"similarity":0.643,"stretto":false,"stretto_voices":0,"combination":[],"aug_dim":"","rhythm_ratio":1.0,"mirror":false,"chromatic_density":0.385,"complexity":0.722,"dissonance":0.09},{"voice":2,"pitch":50,"start":131.0768,"duration":1.8462,"velocity":127,"measure":36,"beat":3.0,"subject_pos":0,"motif":"subject","motif_pos":0,"best_pos":0,"similarity":1.0,"stretto":false,"stretto_voices":0,"combination":[],"aug_dim":"","rhythm_ratio":1.0,"mirror":false,"chromatic_density":0.385,"complexity":0.722,"dissonance":0.09},{"voice":3,"pitch":38,"start":131.0768,"duration":0.9231,"velocity":127,"measure":36,"beat":3.0,"subject_pos":-1,"motif":"","motif_pos":-1,"best_pos":5,"similarity":0.479,"stretto":false,"stretto_voices":0,"combination":[],"aug_dim":"","rhythm_ratio":1.0,"mirror":false,"chromatic_density":0.385,"complexity":0.722,"dissonance":0.09},{"voice":0,"pitch":65,"start":131.3076,"duration":0.2308,"velocity":127,"measure":36,"beat":3.25,"subject_pos":-1,"motif":"","motif_pos":-1,"best_pos":3,"similarity":0.786,"stretto":false,"stretto_voices":0,"combination":[],"aug_dim":"","rhythm_ratio":1.0,"mirror":false,"chromatic_density":0.385,"complexity":0.722,"dissonance":0.09},{"voice":0,"pitch":64,"start":131.5383,"duration":0.2308,"velocity":127,"measure":36,"beat":3.5,"subject_pos":-1,"motif":"","motif_pos":-1,"best_pos":4,"similarity":0.875,"stretto":false,"stretto_voices":0,"combination":[],"aug_dim":"","rhythm_ratio":1.0,"mirror":false,"chromatic_density":0.385,"complexity":0.722,"dissonance":0.09},{"voice":0,"pitch":65,"start":131.7691,"duration":0.2308,"velocity":127,"measure":36,"beat":3.75,"subject_pos":-1,"motif":"","motif_pos":-1,"best_pos":5,"similarity":0.786,"stretto":false,"stretto_voices":0,"combination":[],"aug_dim":"","rhythm_ratio":1.0,"mirror":false,"chromatic_density":0.385,"complexity":0.722,"dissonance":0.09},{"voice":0,"pitch":67,"start":131.9999,"duration":0.2308,"velocity":127,"measure":36,"beat":4.0,"subject_pos":-1,"motif":"","motif_pos":-1,"best_pos":6,"similarity":0.571,"stretto":false,"stretto_voices":0,"combination":[],"aug_dim":"","rhythm_ratio":1.0,"mirror":false,"chromatic_density":0.385,"complexity":0.722,"dissonance":0.09},{"voice":1,"pitch":64,"start":131.9999,"duration":0.9231,"velocity":127,"measure":36,"beat":4.0,"subject_pos":2,"motif":"subject_inv","motif_pos":2,"best_pos":2,"similarity":1.0,"stretto":false,"stretto_voices":0,"combination":[],"aug_dim":"augmentation","rhythm_ratio":2.0,"mirror":false,"chromatic_density":0.385,"complexity":0.722,"dissonance":0.09},{"voice":0,"pitch":70,"start":132.2306,"duration":0.2308,"velocity":127,"measure":36,"beat":4.25,"subject_pos":-1,"motif":"","motif_pos":-1,"best_pos":7,"similarity":0.286,"stretto":false,"stretto_voices":0,"combination":[],"aug_dim":"","rhythm_ratio":1.0,"mirror":false,"chromatic_density":0.385,"complexity":0.722,"dissonance":0.09},{"voice":3,"pitch":55,"start":132.2306,"duration":0.2308,"velocity":127,"measure":36,"beat":4.25,"subject_pos":-1,"motif":"","motif_pos":-1,"best_pos":1,"similarity":0.357,"stretto":false,"stretto_voices":0,"combination":[],"aug_dim":"","rhythm_ratio":1.0,"mirror":false,"chromatic_density":0.385,"complexity":0.722,"dissonance":0.09},{"voice":0,"pitch":74,"start":132.4614,"duration":0.2308,"velocity":127,"measure":36,"beat":4.5,"subject_pos":-1,"motif":"","motif_pos":-1,"best_pos":3,"similarity":0.454,"stretto":false,"stretto_voices":0,"combination":[],"aug_dim":"","rhythm_ratio":1.0,"mirror":false,"chromatic_density":0.385,"complexity":0.722,"dissonance":0.09},{"voice":3,"pitch":53,"start":132.4614,"duration":0.2308,"velocity":127,"measure":36,"beat":4.5,"subject_pos":-1,"motif":"","motif_pos":-1,"best_pos":3,"similarity":0.457,"stretto":false,"stretto_voices":0,"combination":[],"aug_dim":"","rhythm_ratio":1.0,"mirror":false,"chromatic_density":0.385,"complexity":0.722,"dissonance":0.09},{"voice":0,"pitch":73,"start":132.6922,"duration":0.2308,"velocity":127,"measure":36,"beat":4.75,"subject_pos":-1,"motif":"","motif_pos":-1,"best_pos":4,"similarity":0.614,"stretto":false,"stretto_voices":0,"combination":[],"aug_dim":"","rhythm_ratio":1.0,"mirror":false,"chromatic_density":0.385,"complexity":0.722,"dissonance":0.09},{"voice":3,"pitch":52,"start":132.6922,"duration":0.2308,"velocity":127,"measure":36,"beat":4.75,"subject_pos":-1,"motif":"","motif_pos":-1,"best_pos":2,"similarity":0.5,"stretto":false,"stretto_voices":0,"combination":[],"aug_dim":"","rhythm_ratio":1.0,"mirror":false,"chromatic_density":0.385,"complexity":0.722,"dissonance":0.09},{"voice":0,"pitch":74,"start":132.9229,"duration":0.9231,"velocity":127,"measure":37,"beat":1.0,"subject_pos":-1,"motif":"","motif_pos":-1,"best_pos":5,"similarity":0.514,"stretto":false,"stretto_voices":0,"combination":[],"aug_dim":"","rhythm_ratio":1.0,"mirror":false,"chromatic_density":0.368,"complexity":0.747,"dissonance":0.09},{"voice":1,"pitch":65,"start":132.9229,"duration":2.7692,"velocity":127,"measure":37,"beat":1.0,"subject_pos":3,"motif":"subject_inv","motif_pos":3,"best_pos":3,"similarity":1.0,"stretto":false,"stretto_voices":0,"combination":[],"aug_dim":"augmentation","rhythm_ratio":2.0,"mirror":false,"chromatic_density":0.368,"complexity":0.747,"dissonance":0.09},{"voice":2,"pitch":57,"start":132.9229,"duration":1.3846,"velocity":127,"measure":37,"beat":1.0,"subject_pos":1,"motif":"subject","motif_pos":1,"best_pos":1,"similarity":1.0,"stretto":false,"stretto_voices":0,"combination":[],"aug_dim":"","rhythm_ratio":1.0,"mirror":false,"chromatic_density":0.368,"complexity":0.747,"dissonance":0.09},{"voice":3,"pitch":50,"start":132.9229,"duration":0.2308,"velocity":127,"measure":37,"beat":1.0,"subject_pos":-1,"motif":"tail","motif_pos":3,"best_pos":3,"similarity":1.0,"stretto":false,"stretto_voices":0,"combination":[],"aug_dim":"","rhythm_ratio":1.0,"mirror":false,"chromatic_density":0.368,"complexity":0.747,"dissonance":0.09},{"voice":3,"pitch":49,"start":133.1537,"duration":0.2308,"velocity":127,"measure":37,"beat":1.25,"subject_pos":-1,"motif":"tail","motif_pos":4,"best_pos":4,"similarity":1.0,"stretto":false,"stretto_voices":0,"combination":[],"aug_dim":"","rhythm_ratio":1.0,"mirror":false,"chromatic_density":0.368,"complexity":0.747,"dissonance":0.09},{"voice":3,"pitch":50,"start":133.3845,"duration":0.2308,"velocity":127,"measure":37,"beat":1.5,"subject_pos":-1,"motif":"tail","motif_pos":5,"best_pos":5,"similarity":1.0,"stretto":false,"stretto_voices":0,"combination":[],"aug_dim":"","rhythm_ratio":1.0,"mirror":false,"chromatic_density":0.368,"complexity":0.747,"dissonance":0.09},{"voice":3,"pitch":52,"start":133.6153,"duration":0.2308,"velocity":127,"measure":37,"beat":1.75,"subject_pos":-1,"motif":"tail","motif_pos":6,"best_pos":6,"similarity":1.0,"stretto":false,"stretto_voices":0,"combination":[],"aug_dim":"","rhythm_ratio":1.0,"mirror":false,"chromatic_density":0.368,"complexity":0.747,"dissonance":0.09},{"voice":3,"pitch":53,"start":133.846,"duration":0.9231,"velocity":127,"measure":37,"beat":2.0,"subject_pos":-1,"motif":"tail","motif_pos":7,"best_pos":7,"similarity":1.0,"stretto":false,"stretto_voices":0,"combination":[],"aug_dim":"","rhythm_ratio":1.0,"mirror":false,"chromatic_density":0.368,"complexity":0.747,"dissonance":0.09},{"voice":0,"pitch":74,"start":134.0768,"duration":0.2308,"velocity":127,"measure":37,"beat":2.25,"subject_pos":-1,"motif":"","motif_pos":-1,"best_pos":1,"similarity":0.429,"stretto":false,"stretto_voices":0,"combination":[],"aug_dim":"","rhythm_ratio":1.0,"mirror":false,"chromatic_density":0.368,"complexity":0.747,"dissonance":0.09},{"voice":0,"pitch":72,"start":134.3076,"duration":0.2308,"velocity":127,"measure":37,"beat":2.5,"subject_pos":-1,"motif":"","motif_pos":-1,"best_pos":2,"similarity":0.579,"stretto":false,"stretto_voices":0,"combination":[],"aug_dim":"","rhythm_ratio":1.0,"mirror":false,"chromatic_density":0.368,"complexity":0.747,"dissonance":0.09},{"voice":2,"pitch":55,"start":134.3076,"duration":0.4615,"velocity":127,"measure":37,"beat":2.5,"subject_pos":2,"motif":"subject","motif_pos":2,"best_pos":2,"similarity":1.0,"stretto":false,"stretto_voices":0,"combination":[],"aug_dim":"","rhythm_ratio":1.0,"mirror":false,"chromatic_density":0.368,"complexity":0.747,"dissonance":0.09},{"voice":0,"pitch":70,"start":134.5383,"duration":0.2308,"velocity":127,"measure":37,"beat":2.75,"subject_pos":-1,"motif":"","motif_pos":-1,"best_pos":3,"similarity":0.621,"stretto":false,"stretto_voices":0,"combination":[],"aug_dim":"","rhythm_ratio":1.0,"mirror":false,"chromatic_density":0.368,"complexity":0.747,"dissonance":0.09},{"voice":0,"pitch":69,"start":134.7691,"duration":0.9231,"velocity":127,"measure":37,"beat":3.0,"subject_pos":-1,"motif":"","motif_pos":-1,"best_pos":4,"similarity":0.564,"stretto":false,"stretto_voices":0,"combination":[],"aug_dim":"","rhythm_ratio":1.0,"mirror":false,"chromatic_density":0.368,"complexity":0.747,"dissonance":0.09},{"voice":2,"pitch":53,"start":134.7691,"duration":1.3846,"velocity":127,"measure":37,"beat":3.0,"subject_pos":3,"motif":"subject","motif_pos":3,"best_pos":3,"similarity":1.0,"stretto":false,"stretto_voices":0,"combination":[],"aug_dim":"","rhythm_ratio":1.0,"mirror":false,"chromatic_density":0.368,"complexity":0.747,"dissonance":0.09},{"voice":3,"pitch":41,"start":134.9999,"duration":0.2308,"velocity":127,"measure":37,"beat":3.25,"subject_pos":-1,"motif":"","motif_pos":-1,"best_pos":5,"similarity":0.393,"stretto":false,"stretto_voices":0,"combination":[],"aug_dim":"","rhythm_ratio":1.0,"mirror":false,"chromatic_density":0.368,"complexity":0.747,"dissonance":0.09},{"voice":3,"pitch":43,"start":135.2306,"duration":0.2308,"velocity":127,"measure":37,"beat":3.5,"subject_pos":-1,"motif":"","motif_pos":-1,"best_pos":5,"similarity":0.579,"stretto":false,"stretto_voices":0,"combination":[],"aug_dim":"","rhythm_ratio":1.0,"mirror":false,"chromatic_density":0.368,"complexity":0.747,"dissonance":0.09},{"voice":3,"pitch":45,"start":135.4614,"duration":0.2308,"velocity":127,"measure":37,"beat":3.75,"subject_pos":-1,"motif":"","motif_pos":-1,"best_pos":6,"similarity":0.643,"stretto":false,"stretto_voices":0,"combination":[],"aug_dim":"","rhythm_ratio":1.0,"mirror":false,"chromatic_density":0.368,"complexity":0.747,"dissonance":0.09},{"voice":1,"pitch":67,"start":135.6922,"duration":0.9231,"velocity":127,"measure":37,"beat":4.0,"subject_pos":4,"motif":"subject_inv","motif_pos":4,"best_pos":4,"similarity":1.0,"stretto":false,"stretto_voices":0,"combination":[],"aug_dim":"augmentation","rhythm_ratio":2.0,"mirror":false,"chromatic_density":0.368,"complexity":0.747,"dissonance":0.09},{"voice":3,"pitch":46,"start":135.6922,"duration":0.4615,"velocity":127,"measure":37,"beat":4.0,"subject_pos":-1,"motif":"","motif_pos":-1,"best_pos":7,"similarity":0.464,"stretto":false,"stretto_voices":0,"combination":[],"aug_dim":"","rhythm_ratio":1.0,"mirror":false,"chromatic_density":0.368,"complexity":0.747,"dissonance":0.09},{"voice":0,"pitch":73,"start":135.9229,"duration":0.2308,"velocity":127,"measure":37,"beat":4.25,"subject_pos":-1,"motif":"","motif_pos":-1,"best_pos":4,"similarity":0.607,"stretto":false,"stretto_voices":0,"combination":[],"aug_dim":"","rhythm_ratio":1.0,"mirror":false,"chromatic_density":0.368,"complexity":0.747,"dissonance":0.09},{"voice":0,"pitch":74,"start":136.1537,"duration":0.2308,"velocity":127,"measure":37,"beat":4.5,"subject_pos":-1,"motif":"","motif_pos":-1,"best_pos":5,"similarity":0.732,"stretto":false,"stretto_voices":0,"combination":[],"aug_dim":"","rhythm_ratio":1.0,"mirror":false,"chromatic_density":0.368,"complexity":0.747,"dissonance":0.09},{"voice":2,"pitch":52,"start":136.1537,"duration":0.4615,"velocity":127,"measure":37,"beat":4.5,"subject_pos":4,"motif":"subject","motif_pos":4,"best_pos":4,"similarity":1.0,"stretto":false,"stretto_voices":0,"combination":[],"aug_dim":"","rhythm_ratio":1.0,"mirror":false,"chromatic_density":0.368,"complexity":0.747,"dissonance":0.09},{"voice":3,"pitch":43,"start":136.1537,"duration":0.4615,"velocity":127,"measure":37,"beat":4.5,"subject_pos":-1,"motif":"","motif_pos":-1,"best_pos":3,"similarity":0.307,"stretto":false,"stretto_voices":0,"combination":[],"aug_dim":"","rhythm_ratio":1.0,"mirror":false,"chromatic_density":0.368,"complexity":0.747,"dissonance":0.09},{"voice":0,"pitch":76,"start":136.3845,"duration":0.2308,"velocity":127,"measure":37,"beat":4.75,"subject_pos":-1,"motif":"","motif_pos":-1,"best_pos":6,"similarity":0.714,"stretto":false,"stretto_voices":0,"combination":[],"aug_dim":"","rhythm_ratio":1.0,"mirror":false,"chromatic_density":0.368,"complexity":0.747,"dissonance":0.09},{"voice":0,"pitch":77,"start":136.6152,"duration":0.2308,"velocity":127,"measure":38,"beat":1.0,"subject_pos":-1,"motif":"","motif_pos":-1,"best_pos":5,"similarity":0.607,"stretto":false,"stretto_voices":0,"combination":[],"aug_dim":"","rhythm_ratio":1.0,"mirror":false,"chromatic_density":0.318,"complexity":0.749,"dissonance":0.095},{"voice":1,"pitch":69,"start":136.6152,"duration":3.6923,"velocity":127,"measure":38,"beat":1.0,"subject_pos":5,"motif":"subject_inv","motif_pos":5,"best_pos":5,"similarity":1.0,"stretto":true,"stretto_voices":3,"combination":[],"aug_dim":"augmentation","rhythm_ratio":2.0,"mirror":false,"chromatic_density":0.318,"complexity":0.749,"dissonance":0.095},{"voice":2,"pitch":50,"start":136.6152,"duration":1.8462,"velocity":127,"measure":38,"beat":1.0,"subject_pos":5,"motif":"subject","motif_pos":5,"best_pos":5,"similarity":1.0,"stretto":true,"stretto_voices":3,"combination":[],"aug_dim":"","rhythm_ratio":1.0,"mirror":false,"chromatic_density":0.318,"complexity":0.749,"dissonance":0.095},{"voice":3,"pitch":50,"start":136.6152,"duration":0.2308,"velocity":127,"measure":38,"beat":1.0,"subject_pos":-1,"motif":"","motif_pos":-1,"best_pos":1,"similarity":0.293,"stretto":false,"stretto_voices":0,"combination":[],"aug_dim":"","rhythm_ratio":1.0,"mirror":false,"chromatic_density":0.318,"complexity":0.749,"dissonance":0.095},{"voice":0,"pitch":79,"start":136.846,"duration":0.2308,"velocity":127,"measure":38,"beat":1.25,"subject_pos":-1,"motif":"","motif_pos":-1,"best_pos":6,"similarity":0.464,"stretto":false,"stretto_voices":0,"combination":[],"aug_dim":"","rhythm_ratio":1.0,"mirror":false,"chromatic_density":0.318,"complexity":0.749,"dissonance":0.095},{"voice":3,"pitch":38,"start":136.846,"duration":0.2308,"velocity":127,"measure":38,"beat":1.25,"subject_pos":-1,"motif":"","motif_pos":-1,"best_pos":4,"similarity":0.25,"stretto":false,"stretto_voices":0,"combination":[],"aug_dim":"","rhythm_ratio":1.0,"mirror":false,"chromatic_density":0.318,"complexity":0.749,"dissonance":0.095},{"voice":0,"pitch":77,"start":137.0768,"duration":0.2308,"velocity":127,"measure":38,"beat":1.5,"subject_pos":-1,"motif":"","motif_pos":-1,"best_pos":3,"similarity":0.464,"stretto":false,"stretto_voices":0,"combination":[],"aug_dim":"","rhythm_ratio":1.0,"mirror":false,"chromatic_density":0.318,"complexity":0.749,"dissonance":0.095},{"voice":3,"pitch":50,"start":137.0768,"duration":0.2308,"velocity":127,"measure":38,"beat":1.5,"subject_pos":-1,"motif":"","motif_pos":-1,"best_pos":5,"similarity":0.429,"stretto":false,"stretto_voices":0,"combination":[],"aug_dim":"","rhythm_ratio":1.0,"mirror":false,"chromatic_density":0.318,"complexity":0.749,"dissonance":0.095},{"voice":0,"pitch":76,"start":137.3076,"duration":0.2308,"velocity":127,"measure":38,"beat":1.75,"subject_pos":-1,"motif":"","motif_pos":-1,"best_pos":4,"similarity":0.4,"stretto":false,"stretto_voices":0,"combination":[],"aug_dim":"","rhythm_ratio":1.0,"mirror":false,"chromatic_density":0.318,"complexity":0.749,"dissonance":0.095},{"voice":3,"pitch":52,"start":137.3076,"duration":0.2308,"velocity":127,"measure":38,"beat":1.75,"subject_pos":-1,"motif":"","motif_pos":-1,"best_pos":6,"similarity":0.571,"stretto":false,"stretto_voices":0,"combination":[],"aug_dim":"","rhythm_ratio":1.0,"mirror":false,"chromatic_density":0.318,"complexity":0.749,"dissonance":0.095},{"voice":0,"pitch":74,"start":137.5383,"duration":0.9231,"velocity":127,"measure":38,"beat":2.0,"subject_pos":0,"motif":"subject","motif_pos":0,"best_pos":0,"similarity":1.0,"stretto":true,"stretto_voices":3,"combination":[],"aug_dim":"","rhythm_ratio":0.92,"mirror":false,"chromatic_density":0.318,"complexity":0.749,"dissonance":0.095},{"voice":3,"pitch":53,"start":137.5383,"duration":0.2308,"velocity":127,"measure":38,"beat":2.0,"subject_pos":-1,"motif":"","motif_pos":-1,"best_pos":7,"similarity":0.429,"stretto":false,"stretto_voices":0,"combination":[],"aug_dim":"","rhythm_ratio":1.0,"mirror":false,"chromatic_density":0.318,"complexity":0.749,"dissonance":0.095},{"voice":3,"pitch":57,"start":137.7691,"duration":0.2308,"velocity":127,"measure":38,"beat":2.25,"subject_pos":-1,"motif":"","motif_pos":-1,"best_pos":1,"similarity":0.571,"stretto":false,"stretto_voices":0,"combination":[],"aug_dim":"","rhythm_ratio":1.0,"mirror":false,"chromatic_density":0.318,"complexity":0.749,"dissonance":0.095},{"voice":3,"pitch":55,"start":137.9999,"duration":0.2308,"velocity":127,"measure":38,"beat":2.5,"subject_pos":-1,"motif":"","motif_pos":-1,"best_pos":2,"similarity":0.65,"stretto":false,"stretto_voices":0,"combination":[],"aug_dim":"","rhythm_ratio":1.0,"mirror":false,"chromatic_density":0.318,"complexity":0.749,"dissonance":0.095},{"voice":3,"pitch":53,"start":138.2306,"duration":0.2308,"velocity":127,"measure":38,"beat":2.75,"subject_pos":-1,"motif":"","motif_pos":-1,"best_pos":3,"similarity":0.693,"stretto":false,"stretto_voices":0,"combination":[],"aug_dim":"","rhythm_ratio":1.0,"mirror":false,"chromatic_density":0.318,"complexity":0.749,"dissonance":0.095},{"voice":0,"pitch":81,"start":138.4614,"duration":1.3846,"velocity":127,"measure":38,"beat":3.0,"subject_pos":1,"motif":"subject","motif_pos":1,"best_pos":1,"similarity":1.0,"stretto":true,"stretto_voices":3,"combination":[],"aug_dim":"","rhythm_ratio":0.92,"mirror":false,"chromatic_density":0.318,"complexity":0.749,"dissonance":0.095},{"voice":2,"pitch":49,"start":138.4614,"duration":1.8462,"velocity":127,"measure":38,"beat":3.0,"subject_pos":6,"motif":"subject","motif_pos":6,"best_pos":6,"similarity":1.0,"stretto":true,"stretto_voices":3,"combination":[],"aug_dim":"","rhythm_ratio":1.0,"mirror":false,"chromatic_density":0.318,"complexity":0.749,"dissonance":0.095},{"voice":3,"pitch":52,"start":138.4614,"duration":0.2308,"velocity":127,"measure":38,"beat":3.0,"subject_pos":-1,"motif":"","motif_pos":-1,"best_pos":4,"similarity":0.671,"stretto":false,"stretto_voices":0,"combination":[],"aug_dim":"","rhythm_ratio":1.0,"mirror":false,"chromatic_density":0.318,"complexity":0.749,"dissonance":0.095},{"voice":3,"pitch":50,"start":138.6922,"duration":0.2308,"velocity":127,"measure":38,"beat":3.25,"subject_pos":-1,"motif":"","motif_pos":-1,"best_pos":5,"similarity":0.636,"stretto":false,"stretto_voices":0,"combination":[],"aug_dim":"","rhythm_ratio":1.0,"mirror":false,"chromatic_density":0.318,"complexity":0.749,"dissonance":0.095},{"voice":3,"pitch":52,"start":138.9229,"duration":0.2308,"velocity":127,"measure":38,"beat":3.5,"subject_pos":-1,"motif":"","motif_pos":-1,"best_pos":6,"similarity":0.657,"stretto":false,"stretto_voices":0,"combination":[],"aug_dim":"","rhythm_ratio":1.0,"mirror":false,"chromatic_density":0.318,"complexity":0.749,"dissonance":0.095},{"voice":3,"pitch":53,"start":139.1537,"duration":0.2308,"velocity":127,"measure":38,"beat":3.75,"subject_pos":-1,"motif":"","motif_pos":-1,"best_pos":5,"similarity":0.507,"stretto":false,"stretto_voices":0,"combination":[],"aug_dim":"","rhythm_ratio":1.0,"mirror":false,"chromatic_density":0.318,"complexity":0.749,"dissonance":0.095},{"voice":3,"pitch":52,"start":139.3845,"duration":0.2308,"velocity":127,"measure":38,"beat":4.0,"subject_pos":-1,"motif":"","motif_pos":-1,"best_pos":4,"similarity":0.629,"stretto":false,"stretto_voices":0,"combination":[],"aug_dim":"","rhythm_ratio":1.0,"mirror":false,"chromatic_density":0.318,"complexity":0.749,"dissonance":0.095},{"voice":3,"pitch":53,"start":139.6152,"duration":0.2308,"velocity":127,"measure":38,"beat":4.25,"subject_pos":-1,"motif":"","motif_pos":-1,"best_pos":5,"similarity":0.507,"stretto":false,"stretto_voices":0,"combination":[],"aug_dim":"","rhythm_ratio":1.0,"mirror":false,"chromatic_density":0.318,"complexity":0.749,"dissonance":0.095},{"voice":0,"pitch":79,"start":139.846,"duration":0.4615,"velocity":127,"measure":38,"beat":4.5,"subject_pos":2,"motif":"subject","motif_pos":2,"best_pos":2,"similarity":1.0,"stretto":true,"stretto_voices":3,"combination":[],"aug_dim":"","rhythm_ratio":0.92,"mirror":false,"chromatic_density":0.318,"complexity":0.749,"dissonance":0.095},{"voice":3,"pitch":50,"start":139.846,"duration":0.2308,"velocity":127,"measure":38,"beat":4.5,"subject_pos":-1,"motif":"","motif_pos":-1,"best_pos":5,"similarity":0.511,"stretto":false,"stretto_voices":0,"combination":[],"aug_dim":"","rhythm_ratio":1.0,"mirror":false,"chromatic_density":0.318,"complexity":0.749,"dissonance":0.095},{"voice":3,"pitch":52,"start":140.0768,"duration":0.2308,"velocity":127,"measure":38,"beat":4.75,"subject_pos":-1,"motif":"","motif_pos":-1,"best_pos":6,"similarity":0.604,"stretto":false,"stretto_voices":0,"combination":[],"aug_dim":"","rhythm_ratio":1.0,"mirror":false,"chromatic_density":0.318,"complexity":0.749,"dissonance":0.095},{"voice":0,"pitch":77,"start":140.3076,"duration":1.3846,"velocity":127,"measure":39,"beat":1.0,"subject_pos":3,"motif":"subject","motif_pos":3,"best_pos":3,"similarity":1.0,"stretto":true,"stretto_voices":3,"combination":[],"aug_dim":"","rhythm_ratio":0.92,"mirror":false,"chromatic_density":0.474,"complexity":0.673,"dissonance":0.163},{"voice":1,"pitch":70,"start":140.3076,"duration":3.6923,"velocity":127,"measure":39,"beat":1.0,"subject_pos":6,"motif":"subject_inv","motif_pos":6,"best_pos":6,"similarity":1.0,"stretto":false,"stretto_voices":0,"combination":[],"aug_dim":"augmentation","rhythm_ratio":2.0,"mirror":false,"chromatic_density":0.474,"complexity":0.673,"dissonance":0.163},{"voice":2,"pitch":50,"start":140.3076,"duration":1.3846,"velocity":127,"measure":39,"beat":1.0,"subject_pos":7,"motif":"subject","motif_pos":7,"best_pos":7,"similarity":1.0,"stretto":true,"stretto_voices":3,"combination":[],"aug_dim":"","rhythm_ratio":1.0,"mirror":false,"chromatic_density":0.474,"complexity":0.673,"dissonance":0.163},{"voice":3,"pitch":53,"start":140.3076,"duration":0.2308,"velocity":127,"measure":39,"beat":1.0,"subject_pos":-1,"motif":"","motif_pos":-1,"best_pos":5,"similarity":0.543,"stretto":false,"stretto_voices":0,"combination":[],"aug_dim":"","rhythm_ratio":1.0,"mirror":false,"chromatic_density":0.474,"complexity":0.673,"dissonance":0.163},{"voice":3,"pitch":52,"start":140.5383,"duration":0.2308,"velocity":127,"measure":39,"beat":1.25,"subject_pos":-1,"motif":"","motif_pos":-1,"best_pos":4,"similarity":0.743,"stretto":false,"stretto_voices":0,"combination":[],"aug_dim":"","rhythm_ratio":1.0,"mirror":false,"chromatic_density":0.474,"complexity":0.673,"dissonance":0.163},{"voice":3,"pitch":53,"start":140.7691,"duration":0.2308,"velocity":127,"measure":39,"beat":1.5,"subject_pos":-1,"motif":"","motif_pos":-1,"best_pos":5,"similarity":0.736,"stretto":false,"stretto_voices":0,"combination":[],"aug_dim":"","rhythm_ratio":1.0,"mirror":false,"chromatic_density":0.474,"complexity":0.673,"dissonance":0.163},{"voice":3,"pitch":55,"start":140.9999,"duration":0.2308,"velocity":127,"measure":39,"beat":1.75,"subject_pos":-1,"motif":"","motif_pos":-1,"best_pos":6,"similarity":0.529,"stretto":false,"stretto_voices":0,"combination":[],"aug_dim":"","rhythm_ratio":1.0,"mirror":false,"chromatic_density":0.474,"complexity":0.673,"dissonance":0.163},{"voice":3,"pitch":53,"start":141.2306,"duration":0.2308,"velocity":127,"measure":39,"beat":2.0,"subject_pos":-1,"motif":"","motif_pos":-1,"best_pos":3,"similarity":0.471,"stretto":false,"stretto_voices":0,"combination":[],"aug_dim":"","rhythm_ratio":1.0,"mirror":false,"chromatic_density":0.474,"complexity":0.673,"dissonance":0.163},{"voice":3,"pitch":52,"start":141.4614,"duration":0.2308,"velocity":127,"measure":39,"beat":2.25,"subject_pos":-1,"motif":"","motif_pos":-1,"best_pos":2,"similarity":0.5,"stretto":false,"stretto_voices":0,"combination":[],"aug_dim":"","rhythm_ratio":1.0,"mirror":false,"chromatic_density":0.474,"complexity":0.673,"dissonance":0.163},{"voice":0,"pitch":76,"start":141.6922,"duration":0.4615,"velocity":127,"measure":39,"beat":2.5,"subject_pos":4,"motif":"subject","motif_pos":4,"best_pos":4,"similarity":1.0,"stretto":true,"stretto_voices":3,"combination":[],"aug_dim":"","rhythm_ratio":0.92,"mirror":false,"chromatic_density":0.474,"complexity":0.673,"dissonance":0.163},{"voice":2,"pitch":52,"start":141.6922,"duration":0.4615,"velocity":127,"measure":39,"beat":2.5,"subject_pos":8,"motif":"subject","motif_pos":8,"best_pos":0,"similarity":1.0,"stretto":true,"stretto_voices":3,"combination":[],"aug_dim":"","rhythm_ratio":1.0,"mirror":false,"chromatic_density":0.474,"complexity":0.673,"dissonance":0.163},{"voice":3,"pitch":50,"start":141.6922,"duration":0.2308,"velocity":127,"measure":39,"beat":2.5,"subject_pos":-1,"motif":"","motif_pos":-1,"best_pos":3,"similarity":0.65,"stretto":false,"stretto_voices":0,"combination":[],"aug_dim":"","rhythm_ratio":1.0,"mirror":false,"chromatic_density":0.474,"complexity":0.673,"dissonance":0.163},{"voice":3,"pitch":49,"start":141.9229,"duration":0.2308,"velocity":127,"measure":39,"beat":2.75,"subject_pos":-1,"motif":"","motif_pos":-1,"best_pos":4,"similarity":0.7,"stretto":false,"stretto_voices":0,"combination":[],"aug_dim":"","rhythm_ratio":1.0,"mirror":false,"chromatic_density":0.474,"complexity":0.673,"dissonance":0.163},{"voice":0,"pitch":74,"start":142.1537,"duration":1.8462,"velocity":127,"measure":39,"beat":3.0,"subject_pos":5,"motif":"subject","motif_pos":5,"best_pos":5,"similarity":1.0,"stretto":false,"stretto_voices":0,"combination":[],"aug_dim":"","rhythm_ratio":0.92,"mirror":false,"chromatic_density":0.474,"complexity":0.673,"dissonance":0.163},{"voice":2,"pitch":53,"start":142.1537,"duration":2.3077,"velocity":127,"measure":39,"beat":3.0,"subject_pos":-1,"motif":"","motif_pos":-1,"best_pos":5,"similarity":0.607,"stretto":false,"stretto_voices":0,"combination":[],"aug_dim":"","rhythm_ratio":1.0,"mirror":false,"chromatic_density":0.474,"complexity":0.673,"dissonance":0.163},{"voice":3,"pitch":50,"start":142.1537,"duration":0.2308,"velocity":127,"measure":39,"beat":3.0,"subject_pos":-1,"motif":"","motif_pos":-1,"best_pos":5,"similarity":0.507,"stretto":false,"stretto_voices":0,"combination":[],"aug_dim":"","rhythm_ratio":1.0,"mirror":false,"chromatic_density":0.474,"complexity":0.673,"dissonance":0.163},{"voice":3,"pitch":48,"start":142.3845,"duration":0.2308,"velocity":127,"measure":39,"beat":3.25,"subject_pos":-1,"motif":"","motif_pos":-1,"best_pos":2,"similarity":0.593,"stretto":false,"stretto_voices":0,"combination":[],"aug_dim":"","rhythm_ratio":1.0,"mirror":false,"chromatic_density":0.474,"complexity":0.673,"dissonance":0.163},{"voice":3,"pitch":46,"start":142.6152,"duration":0.2308,"velocity":127,"measure":39,"beat":3.5,"subject_pos":-1,"motif":"","motif_pos":-1,"best_pos":3,"similarity":0.664,"stretto":false,"stretto_voices":0,"combination":[],"aug_dim":"","rhythm_ratio":1.0,"mirror":false,"chromatic_density":0.474,"complexity":0.673,"dissonance":0.163},{"voice":3,"pitch":45,"start":142.846,"duration":0.2308,"velocity":127,"measure":39,"beat":3.75,"subject_pos":-1,"motif":"","motif_pos":-1,"best_pos":4,"similarity":0.671,"stretto":false,"stretto_voices":0,"combination":[],"aug_dim":"","rhythm_ratio":1.0,"mirror":false,"chromatic_density":0.474,"complexity":0.673,"dissonance":0.163},{"voice":3,"pitch":43,"start":143.0768,"duration":0.2308,"velocity":127,"measure":39,"beat":4.0,"subject_pos":-1,"motif":"","motif_pos":-1,"best_pos":5,"similarity":0.636,"stretto":false,"stretto_voices":0,"combination":[],"aug_dim":"","rhythm_ratio":1.0,"mirror":false,"chromatic_density":0.474,"complexity":0.673,"dissonance":0.163},{"voice":3,"pitch":45,"start":143.3075,"duration":0.2308,"velocity":127,"measure":39,"beat":4.25,"subject_pos":-1,"motif":"","motif_pos":-1,"best_pos":6,"similarity":0.657,"stretto":false,"stretto_voices":0,"combination":[],"aug_dim":"","rhythm_ratio":1.0,"mirror":false,"chromatic_density":0.474,"complexity":0.673,"dissonance":0.163},{"voice":3,"pitch":46,"start":143.5383,"duration":0.2308,"velocity":127,"measure":39,"beat":4.5,"subject_pos":-1,"motif":"","motif_pos":-1,"best_pos":7,"similarity":0.436,"stretto":false,"stretto_voices":0,"combination":[],"aug_dim":"","rhythm_ratio":1.0,"mirror":false,"chromatic_density":0.474,"complexity":0.673,"dissonance":0.163},{"voice":3,"pitch":43,"start":143.7691,"duration":0.2308,"velocity":127,"measure":39,"beat":4.75,"subject_pos":-1,"motif":"","motif_pos":-1,"best_pos":3,"similarity":0.421,"stretto":false,"stretto_voices":0,"combination":[],"aug_dim":"","rhythm_ratio":1.0,"mirror":false,"chromatic_density":0.474,"complexity":0.673,"dissonance":0.163},{"voice":0,"pitch":73,"start":143.9999,"duration":1.8462,"velocity":127,"measure":40,"beat":1.0,"subject_pos":6,"motif":"subject","motif_pos":6,"best_pos":6,"similarity":1.0,"stretto":false,"stretto_voices":0,"combination":[],"aug_dim":"","rhythm_ratio":0.92,"mirror":false,"chromatic_density":0.238,"complexity":0.71,"dissonance":0.159},{"voice":1,"pitch":69,"start":143.9999,"duration":2.7692,"velocity":127,"measure":40,"beat":1.0,"subject_pos":7,"motif":"subject_inv","motif_pos":7,"best_pos":7,"similarity":1.0,"stretto":false,"stretto_voices":0,"combination":[],"aug_dim":"augmentation","rhythm_ratio":2.0,"mirror":false,"chromatic_density":0.238,"complexity":0.71,"dissonance":0.159},{"voice":3,"pitch":45,"start":143.9999,"duration":0.2308,"velocity":127,"measure":40,"beat":1.0,"subject_pos":-1,"motif":"","motif_pos":-1,"best_pos":4,"similarity":0.421,"stretto":false,"stretto_voices":0,"combination":[],"aug_dim":"","rhythm_ratio":1.0,"mirror":false,"chromatic_density":0.238,"complexity":0.71,"dissonance":0.159},{"voice":3,"pitch":43,"start":144.2306,"duration":0.2308,"velocity":127,"measure":40,"beat":1.25,"subject_pos":-1,"motif":"","motif_pos":-1,"best_pos":5,"similarity":0.543,"stretto":false,"stretto_voices":0,"combination":[],"aug_dim":"","rhythm_ratio":1.0,"mirror":false,"chromatic_density":0.238,"complexity":0.71,"dissonance":0.159},{"voice":2,"pitch":55,"start":144.4614,"duration":0.4615,"velocity":127,"measure":40,"beat":1.5,"subject_pos":-1,"motif":"","motif_pos":-1,"best_pos":6,"similarity":0.464,"stretto":false,"stretto_voices":0,"combination":[],"aug_dim":"","rhythm_ratio":1.0,"mirror":false,"chromatic_density":0.238,"complexity":0.71,"dissonance":0.159},{"voice":3,"pitch":45,"start":144.4614,"duration":0.2308,"velocity":127,"measure":40,"beat":1.5,"subject_pos":-1,"motif":"","motif_pos":-1,"best_pos":6,"similarity":0.593,"stretto":false,"stretto_voices":0,"combination":[],"aug_dim":"","rhythm_ratio":1.0,"mirror":false,"chromatic_density":0.238,"complexity":0.71,"dissonance":0.159},{"voice":3,"pitch":46,"start":144.6922,"duration":0.2308,"velocity":127,"measure":40,"beat":1.75,"subject_pos":-1,"motif":"","motif_pos":-1,"best_pos":7,"similarity":0.436,"stretto":false,"stretto_voices":0,"combination":[],"aug_dim":"","rhythm_ratio":1.0,"mirror":false,"chromatic_density":0.238,"complexity":0.71,"dissonance":0.159},{"voice":2,"pitch":53,"start":144.9229,"duration":0.4615,"velocity":127,"measure":40,"beat":2.0,"subject_pos":-1,"motif":"","motif_pos":-1,"best_pos":3,"similarity":0.471,"stretto":false,"stretto_voices":0,"combination":[],"aug_dim":"","rhythm_ratio":1.0,"mirror":false,"chromatic_density":0.238,"complexity":0.71,"dissonance":0.159},{"voice":3,"pitch":45,"start":144.9229,"duration":0.2308,"velocity":127,"measure":40,"beat":2.0,"subject_pos":-1,"motif":"","motif_pos":-1,"best_pos":4,"similarity":0.357,"stretto":false,"stretto_voices":0,"combination":[],"aug_dim":"","rhythm_ratio":1.0,"mirror":false,"chromatic_density":0.238,"complexity":0.71,"dissonance":0.159},{"voice":3,"pitch":57,"start":145.1537,"duration":0.2308,"velocity":127,"measure":40,"beat":2.25,"subject_pos":-1,"motif":"","motif_pos":-1,"best_pos":1,"similarity":0.293,"stretto":false,"stretto_voices":0,"combination":[],"aug_dim":"","rhythm_ratio":1.0,"mirror":false,"chromatic_density":0.238,"complexity":0.71,"dissonance":0.159},{"voice":2,"pitch":52,"start":145.3845,"duration":0.4615,"velocity":127,"measure":40,"beat":2.5,"subject_pos":-1,"motif":"","motif_pos":-1,"best_pos":2,"similarity":0.446,"stretto":false,"stretto_voices":0,"combination":[],"aug_dim":"","rhythm_ratio":1.0,"mirror":false,"chromatic_density":0.238,"complexity":0.71,"dissonance":0.159},{"voice":3,"pitch":55,"start":145.3845,"duration":0.2308,"velocity":127,"measure":40,"beat":2.5,"subject_pos":-1,"motif":"","motif_pos":-1,"best_pos":5,"similarity":0.332,"stretto":false,"stretto_voices":0,"combination":[],"aug_dim":"","rhythm_ratio":1.0,"mirror":false,"chromatic_density":0.238,"complexity":0.71,"dissonance":0.159},{"voice":3,"pitch":57,"start":145.6152,"duration":0.2308,"velocity":127,"measure":40,"beat":2.75,"subject_pos":-1,"motif":"","motif_pos":-1,"best_pos":1,"similarity":0.314,"stretto":false,"stretto_voices":0,"combination":[],"aug_dim":"","rhythm_ratio":1.0,"mirror":false,"chromatic_density":0.238,"complexity":0.71,"dissonance":0.159},{"voice":0,"pitch":74,"start":145.846,"duration":0.9231,"velocity":127,"measure":40,"beat":3.0,"subject_pos":7,"motif":"subject","motif_pos":7,"best_pos":7,"similarity":1.0,"stretto":false,"stretto_voices":0,"combination":[],"aug_dim":"","rhythm_ratio":0.92,"mirror":false,"chromatic_density":0.238,"complexity":0.71,"dissonance":0.159},{"voice":2,"pitch":50,"start":145.846,"duration":2.7692,"velocity":127,"measure":40,"beat":3.0,"subject_pos":-1,"motif":"","motif_pos":-1,"best_pos":3,"similarity":0.543,"stretto":false,"stretto_voices":0,"combination":[],"aug_dim":"","rhythm_ratio":1.0,"mirror":false,"chromatic_density":0.238,"complexity":0.71,"dissonance":0.159},{"voice":3,"pitch":53,"start":145.846,"duration":0.2308,"velocity":127,"measure":40,"beat":3.0,"subject_pos":-1,"motif":"","motif_pos":-1,"best_pos":2,"similarity":0.307,"stretto":false,"stretto_voices":0,"combination":[],"aug_dim":"","rhythm_ratio":1.0,"mirror":false,"chromatic_density":0.238,"complexity":0.71,"dissonance":0.159},{"voice":3,"pitch":57,"start":146.0768,"duration":0.2308,"velocity":127,"measure":40,"beat":3.25,"subject_pos":-1,"motif":"","motif_pos":-1,"best_pos":0,"similarity":0.464,"stretto":false,"stretto_voices":0,"combination":[],"aug_dim":"","rhythm_ratio":1.0,"mirror":false,"chromatic_density":0.238,"complexity":0.71,"dissonance":0.159},{"voice":3,"pitch":62,"start":146.3075,"duration":0.2308,"velocity":127,"measure":40,"beat":3.5,"subject_pos":-1,"motif":"","motif_pos":-1,"best_pos":1,"similarity":0.714,"stretto":false,"stretto_voices":0,"combination":[],"aug_dim":"","rhythm_ratio":1.0,"mirror":false,"chromatic_density":0.238,"complexity":0.71,"dissonance":0.159},{"voice":3,"pitch":60,"start":146.5383,"duration":0.2308,"velocity":127,"measure":40,"beat":3.75,"subject_pos":-1,"motif":"","motif_pos":-1,"best_pos":2,"similarity":0.721,"stretto":false,"stretto_voices":0,"combination":[],"aug_dim":"","rhythm_ratio":1.0,"mirror":false,"chromatic_density":0.238,"complexity":0.71,"dissonance":0.159},{"voice":0,"pitch":76,"start":146.7691,"duration":0.9231,"velocity":127,"measure":40,"beat":4.0,"subject_pos":8,"motif":"subject","motif_pos":8,"best_pos":0,"similarity":1.0,"stretto":false,"stretto_voices":0,"combination":[],"aug_dim":"","rhythm_ratio":0.92,"mirror":false,"chromatic_density":0.238,"complexity":0.71,"dissonance":0.159},{"voice":1,"pitch":67,"start":146.7691,"duration":0.9231,"velocity":127,"measure":40,"beat":4.0,"subject_pos":8,"motif":"subject_inv","motif_pos":8,"best_pos":0,"similarity":1.0,"stretto":false,"stretto_voices":0,"combination":[],"aug_dim":"augmentation","rhythm_ratio":2.0,"mirror":false,"chromatic_density":0.238,"complexity":0.71,"dissonance":0.159},{"voice":3,"pitch":58,"start":146.7691,"duration":0.2308,"velocity":127,"measure":40,"beat":4.0,"subject_pos":-1,"motif":"","motif_pos":-1,"best_pos":3,"similarity":0.693,"stretto":false,"stretto_voices":0,"combination":[],"aug_dim":"","rhythm_ratio":1.0,"mirror":false,"chromatic_density":0.238,"complexity":0.71,"dissonance":0.159},{"voice":3,"pitch":57,"start":146.9999,"duration":0.2308,"velocity":127,"measure":40,"beat":4.25,"subject_pos":-1,"motif":"","motif_pos":-1,"best_pos":4,"similarity":0.546,"stretto":false,"stretto_voices":0,"combination":[],"aug_dim":"","rhythm_ratio":1.0,"mirror":false,"chromatic_density":0.238,"complexity":0.71,"dissonance":0.159},{"voice":3,"pitch":55,"start":147.2306,"duration":0.2308,"velocity":127,"measure":40,"beat":4.5,"subject_pos":-1,"motif":"","motif_pos":-1,"best_pos":2,"similarity":0.436,"stretto":false,"stretto_voices":0,"combination":[],"aug_dim":"","rhythm_ratio":1.0,"mirror":false,"chromatic_density":0.238,"complexity":0.71,"dissonance":0.159},{"voice":3,"pitch":58,"start":147.4614,"duration":0.2308,"velocity":127,"measure":40,"beat":4.75,"subject_pos":-1,"motif":"","motif_pos":-1,"best_pos":3,"similarity":0.45,"stretto":false,"stretto_voices":0,"combination":[],"aug_dim":"","rhythm_ratio":1.0,"mirror":false,"chromatic_density":0.238,"complexity":0.71,"dissonance":0.159},{"voice":0,"pitch":77,"start":147.6922,"duration":2.3077,"velocity":127,"measure":41,"beat":1.0,"subject_pos":-1,"motif":"","motif_pos":-1,"best_pos":5,"similarity":0.607,"stretto":false,"stretto_voices":0,"combination":[],"aug_dim":"","rhythm_ratio":1.0,"mirror":false,"chromatic_density":0.421,"complexity":0.662,"dissonance":0.171},{"voice":1,"pitch":65,"start":147.6922,"duration":4.6154,"velocity":127,"measure":41,"beat":1.0,"subject_pos":-1,"motif":"","motif_pos":-1,"best_pos":3,"similarity":0.786,"stretto":false,"stretto_voices":0,"combination":[],"aug_dim":"","rhythm_ratio":1.0,"mirror":false,"chromatic_density":0.421,"complexity":0.662,"dissonance":0.171},{"voice":3,"pitch":57,"start":147.6922,"duration":0.2308,"velocity":127,"measure":41,"beat":1.0,"subject_pos":-1,"motif":"","motif_pos":-1,"best_pos":1,"similarity":0.429,"stretto":false,"stretto_voices":0,"combination":[],"aug_dim":"","rhythm_ratio":1.0,"mirror":false,"chromatic_density":0.421,"complexity":0.662,"dissonance":0.171},{"voice":3,"pitch":55,"start":147.9229,"duration":0.2308,"velocity":127,"measure":41,"beat":1.25,"subject_pos":-1,"motif":"","motif_pos":-1,"best_pos":2,"similarity":0.579,"stretto":false,"stretto_voices":0,"combination":[],"aug_dim":"","rhythm_ratio":1.0,"mirror":false,"chromatic_density":0.421,"complexity":0.662,"dissonance":0.171},{"voice":3,"pitch":53,"start":148.1537,"duration":0.2308,"velocity":127,"measure":41,"beat":1.5,"subject_pos":-1,"motif":"","motif_pos":-1,"best_pos":3,"similarity":0.593,"stretto":false,"stretto_voices":0,"combination":[],"aug_dim":"","rhythm_ratio":1.0,"mirror":false,"chromatic_density":0.421,"complexity":0.662,"dissonance":0.171},{"voice":3,"pitch":52,"start":148.3845,"duration":0.2308,"velocity":127,"measure":41,"beat":1.75,"subject_pos":-1,"motif":"","motif_pos":-1,"best_pos":4,"similarity":0.479,"stretto":false,"stretto_voices":0,"combination":[],"aug_dim":"","rhythm_ratio":1.0,"mirror":false,"chromatic_density":0.421,"complexity":0.662,"dissonance":0.171},{"voice":3,"pitch":50,"start":148.6152,"duration":0.2308,"velocity":127,"measure":41,"beat":2.0,"subject_pos":-1,"motif":"","motif_pos":-1,"best_pos":2,"similarity":0.518,"stretto":false,"stretto_voices":0,"combination":[],"aug_dim":"","rhythm_ratio":1.0,"mirror":false,"chromatic_density":0.421,"complexity":0.662,"dissonance":0.171},{"voice":3,"pitch":48,"start":148.846,"duration":0.2308,"velocity":127,"measure":41,"beat":2.25,"subject_pos":-1,"motif":"","motif_pos":-1,"best_pos":2,"similarity":0.643,"stretto":false,"stretto_voices":0,"combination":[],"aug_dim":"","rhythm_ratio":1.0,"mirror":false,"chromatic_density":0.421,"complexity":0.662,"dissonance":0.171},{"voice":2,"pitch":49,"start":149.0768,"duration":0.6923,"velocity":127,"measure":41,"beat":2.5,"subject_pos":-1,"motif":"","motif_pos":-1,"best_pos":4,"similarity":0.496,"stretto":false,"stretto_voices":0,"combination":[],"aug_dim":"","rhythm_ratio":1.0,"mirror":false,"chromatic_density":0.421,"complexity":0.662,"dissonance":0.171},{"voice":3,"pitch":46,"start":149.0768,"duration":0.2308,"velocity":127,"measure":41,"beat":2.5,"subject_pos":-1,"motif":"","motif_pos":-1,"best_pos":3,"similarity":0.721,"stretto":false,"stretto_voices":0,"combination":[],"aug_dim":"","rhythm_ratio":1.0,"mirror":false,"chromatic_density":0.421,"complexity":0.662,"dissonance":0.171},{"voice":3,"pitch":45,"start":149.3075,"duration":0.2308,"velocity":127,"measure":41,"beat":2.75,"subject_pos":-1,"motif":"","motif_pos":-1,"best_pos":4,"similarity":0.729,"stretto":false,"stretto_voices":0,"combination":[],"aug_dim":"","rhythm_ratio":1.0,"mirror":false,"chromatic_density":0.421,"complexity":0.662,"dissonance":0.171},{"voice":3,"pitch":46,"start":149.5383,"duration":0.9231,"velocity":127,"measure":41,"beat":3.0,"subject_pos":-1,"motif":"","motif_pos":-1,"best_pos":5,"similarity":0.493,"stretto":false,"stretto_voices":0,"combination":[],"aug_dim":"","rhythm_ratio":1.0,"mirror":false,"chromatic_density":0.421,"complexity":0.662,"dissonance":0.171},{"voice":2,"pitch":52,"start":149.7691,"duration":0.2308,"velocity":127,"measure":41,"beat":3.25,"subject_pos":-1,"motif":"","motif_pos":-1,"best_pos":1,"similarity":0.411,"stretto":false,"stretto_voices":0,"combination":[],"aug_dim":"","rhythm_ratio":1.0,"mirror":false,"chromatic_density":0.421,"complexity":0.662,"dissonance":0.171},{"voice":0,"pitch":79,"start":149.9999,"duration":0.4615,"velocity":127,"measure":41,"beat":3.5,"subject_pos":-1,"motif":"","motif_pos":-1,"best_pos":6,"similarity":0.464,"stretto":false,"stretto_voices":0,"combination":[],"aug_dim":"","rhythm_ratio":1.0,"mirror":false,"chromatic_density":0.421,"complexity":0.662,"dissonance":0.171},{"voice":2,"pitch":50,"start":149.9999,"duration":0.2308,"velocity":127,"measure":41,"beat":3.5,"subject_pos":-1,"motif":"tail","motif_pos":3,"best_pos":3,"similarity":1.0,"stretto":false,"stretto_voices":0,"combination":[],"aug_dim":"","rhythm_ratio":1.0,"mirror":false,"chromatic_density":0.421,"complexity":0.662,"dissonance":0.171},{"voice":2,"pitch":49,"start":150.2306,"duration":0.2308,"velocity":127,"measure":41,"beat":3.75,"subject_pos":-1,"motif":"tail","motif_pos":4,"best_pos":4,"similarity":1.0,"stretto":false,"stretto_voices":0,"combination":[],"aug_dim":"","rhythm_ratio":1.0,"mirror":false,"chromatic_density":0.421,"complexity":0.662,"dissonance":0.171},{"voice":0,"pitch":77,"start":150.4614,"duration":0.4615,"velocity":127,"measure":41,"beat":4.0,"subject_pos":-1,"motif":"","motif_pos":-1,"best_pos":3,"similarity":0.464,"stretto":false,"stretto_voices":0,"combination":[],"aug_dim":"","rhythm_ratio":1.0,"mirror":false,"chromatic_density":0.421,"complexity":0.662,"dissonance":0.171},{"voice":2,"pitch":50,"start":150.4614,"duration":0.2308,"velocity":127,"measure":41,"beat":4.0,"subject_pos":-1,"motif":"tail","motif_pos":5,"best_pos":5,"similarity":1.0,"stretto":false,"stretto_voices":0,"combination":[],"aug_dim":"","rhythm_ratio":1.0,"mirror":false,"chromatic_density":0.421,"complexity":0.662,"dissonance":0.171},{"voice":3,"pitch":45,"start":150.4614,"duration":1.8462,"velocity":127,"measure":41,"beat":4.0,"subject_pos":-1,"motif":"","motif_pos":-1,"best_pos":4,"similarity":0.357,"stretto":false,"stretto_voices":0,"combination":[],"aug_dim":"","rhythm_ratio":1.0,"mirror":false,"chromatic_density":0.421,"complexity":0.662,"dissonance":0.171},{"voice":2,"pitch":52,"start":150.6922,"duration":0.2308,"velocity":127,"measure":41,"beat":4.25,"subject_pos":-1,"motif":"tail","motif_pos":6,"best_pos":6,"similarity":1.0,"stretto":false,"stretto_voices":0,"combination":[],"aug_dim":"","rhythm_ratio":1.0,"mirror":false,"chromatic_density":0.421,"complexity":0.662,"dissonance":0.171},{"voice":0,"pitch":76,"start":150.9229,"duration":0.4615,"velocity":127,"measure":41,"beat":4.5,"subject_pos":-1,"motif":"","motif_pos":-1,"best_pos":4,"similarity":0.4,"stretto":false,"stretto_voices":0,"combination":[],"aug_dim":"","rhythm_ratio":1.0,"mirror":false,"chromatic_density":0.421,"complexity":0.662,"dissonance":0.171},{"voice":2,"pitch":53,"start":150.9229,"duration":0.2308,"velocity":127,"measure":41,"beat":4.5,"subject_pos":-1,"motif":"tail","motif_pos":7,"best_pos":7,"similarity":1.0,"stretto":false,"stretto_voices":0,"combination":[],"aug_dim":"","rhythm_ratio":1.0,"mirror":false,"chromatic_density":0.421,"complexity":0.662,"dissonance":0.171},{"voice":2,"pitch":55,"start":151.1537,"duration":0.2308,"velocity":127,"measure":41,"beat":4.75,"subject_pos":-1,"motif":"","motif_pos":-1,"best_pos":6,"similarity":0.579,"stretto":false,"stretto_voices":0,"combination":[],"aug_dim":"","rhythm_ratio":1.0,"mirror":false,"chromatic_density":0.421,"complexity":0.662,"dissonance":0.171},{"voice":0,"pitch":74,"start":151.3845,"duration":0.2308,"velocity":127,"measure":42,"beat":1.0,"subject_pos":-1,"motif":"","motif_pos":-1,"best_pos":2,"similarity":0.393,"stretto":false,"stretto_voices":0,"combination":[],"aug_dim":"","rhythm_ratio":1.0,"mirror":false,"chromatic_density":0.238,"complexity":0.576,"dissonance":0.132},{"voice":2,"pitch":57,"start":151.3845,"duration":0.2308,"velocity":127,"measure":42,"beat":1.0,"subject_pos":-1,"motif":"","motif_pos":-1,"best_pos":6,"similarity":0.404,"stretto":false,"stretto_voices":0,"combination":[],"aug_dim":"","rhythm_ratio":1.0,"mirror":false,"chromatic_density":0.238,"complexity":0.576,"dissonance":0.132},{"voice":0,"pitch":69,"start":151.6152,"duration":0.2308,"velocity":127,"measure":42,"beat":1.25,"subject_pos":-1,"motif":"","motif_pos":-1,"best_pos":0,"similarity":0.336,"stretto":false,"stretto_voices":0,"combination":[],"aug_dim":"","rhythm_ratio":1.0,"mirror":false,"chromatic_density":0.238,"complexity":0.576,"dissonance":0.132},{"voice":2,"pitch":55,"start":151.6152,"duration":0.2308,"velocity":127,"measure":42,"beat":1.25,"subject_pos":-1,"motif":"","motif_pos":-1,"best_pos":2,"similarity":0.493,"stretto":false,"stretto_voices":0,"combination":[],"aug_dim":"","rhythm_ratio":1.0,"mirror":false,"chromatic_density":0.238,"complexity":0.576,"dissonance":0.132},{"voice":0,"pitch":74,"start":151.846,"duration":0.6923,"velocity":127,"measure":42,"beat":1.5,"subject_pos":-1,"motif":"","motif_pos":-1,"best_pos":1,"similarity":0.457,"stretto":false,"stretto_voices":0,"combination":[],"aug_dim":"","rhythm_ratio":1.0,"mirror":false,"chromatic_density":0.238,"complexity":0.576,"dissonance":0.132},{"voice":2,"pitch":53,"start":151.846,"duration":0.2308,"velocity":127,"measure":42,"beat":1.5,"subject_pos":-1,"motif":"","motif_pos":-1,"best_pos":4,"similarity":0.507,"stretto":false,"stretto_voices":0,"combination":[],"aug_dim":"","rhythm_ratio":1.0,"mirror":false,"chromatic_density":0.238,"complexity":0.576,"dissonance":0.132},{"voice":2,"pitch":55,"start":152.0768,"duration":0.2308,"velocity":127,"measure":42,"beat":1.75,"subject_pos":-1,"motif":"","motif_pos":-1,"best_pos":5,"similarity":0.536,"stretto":false,"stretto_voices":0,"combination":[],"aug_dim":"","rhythm_ratio":1.0,"mirror":false,"chromatic_density":0.238,"complexity":0.576,"dissonance":0.132},{"voice":1,"pitch":64,"start":152.3075,"duration":0.9231,"velocity":127,"measure":42,"beat":2.0,"subject_pos":-1,"motif":"","motif_pos":-1,"best_pos":4,"similarity":0.893,"stretto":false,"stretto_voices":0,"combination":[],"aug_dim":"","rhythm_ratio":1.0,"mirror":false,"chromatic_density":0.238,"complexity":0.576,"dissonance":0.132},{"voice":2,"pitch":57,"start":152.3075,"duration":0.9231,"velocity":127,"measure":42,"beat":2.0,"subject_pos":-1,"motif":"","motif_pos":-1,"best_pos":6,"similarity":0.393,"stretto":false,"stretto_voices":0,"combination":[],"aug_dim":"","rhythm_ratio":1.0,"mirror":false,"chromatic_density":0.238,"complexity":0.576,"dissonance":0.132},{"voice":0,"pitch":76,"start":152.5383,"duration":0.2308,"velocity":127,"measure":42,"beat":2.25,"subject_pos":-1,"motif":"","motif_pos":-1,"best_pos":2,"similarity":0.529,"stretto":false,"stretto_voices":0,"combination":[],"aug_dim":"","rhythm_ratio":1.0,"mirror":false,"chromatic_density":0.238,"complexity":0.576,"dissonance":0.132},{"voice":0,"pitch":74,"start":152.7691,"duration":0.2308,"velocity":127,"measure":42,"beat":2.5,"subject_pos":-1,"motif":"","motif_pos":-1,"best_pos":3,"similarity":0.657,"stretto":false,"stretto_voices":0,"combination":[],"aug_dim":"","rhythm_ratio":1.0,"mirror":false,"chromatic_density":0.238,"complexity":0.576,"dissonance":0.132},{"voice":0,"pitch":73,"start":152.9998,"duration":0.2308,"velocity":127,"measure":42,"beat":2.75,"subject_pos":-1,"motif":"","motif_pos":-1,"best_pos":4,"similarity":0.65,"stretto":false,"stretto_voices":0,"combination":[],"aug_dim":"","rhythm_ratio":1.0,"mirror":false,"chromatic_density":0.238,"complexity":0.576,"dissonance":0.132},{"voice":0,"pitch":74,"start":153.2306,"duration":0.4615,"velocity":127,"measure":42,"beat":3.0,"subject_pos":-1,"motif":"","motif_pos":-1,"best_pos":5,"similarity":0.464,"stretto":false,"stretto_voices":0,"combination":[],"aug_dim":"","rhythm_ratio":1.0,"mirror":false,"chromatic_density":0.238,"complexity":0.576,"dissonance":0.132},{"voice":1,"pitch":65,"start":153.2306,"duration":0.9231,"velocity":127,"measure":42,"beat":3.0,"subject_pos":-1,"motif":"","motif_pos":-1,"best_pos":5,"similarity":0.821,"stretto":false,"stretto_voices":0,"combination":[],"aug_dim":"","rhythm_ratio":1.0,"mirror":false,"chromatic_density":0.238,"complexity":0.576,"dissonance":0.132},{"voice":2,"pitch":63,"start":153.4614,"duration":0.2308,"velocity":127,"measure":42,"beat":3.25,"subject_pos":-1,"motif":"","motif_pos":-1,"best_pos":1,"similarity":0.393,"stretto":false,"stretto_voices":0,"combination":[],"aug_dim":"","rhythm_ratio":1.0,"mirror":false,"chromatic_density":0.238,"complexity":0.576,"dissonance":0.132},{"voice":0,"pitch":81,"start":153.6922,"duration":0.4615,"velocity":127,"measure":42,"beat":3.5,"subject_pos":0,"motif":"subject_inv","motif_pos":0,"best_pos":0,"similarity":1.0,"stretto":false,"stretto_voices":0,"combination":[],"aug_dim":"diminution","rhythm_ratio":0.46,"mirror":false,"chromatic_density":0.238,"complexity":0.576,"dissonance":0.132},{"voice":2,"pitch":62,"start":153.6922,"duration":0.2308,"velocity":127,"measure":42,"beat":3.5,"subject_pos":-1,"motif":"","motif_pos":-1,"best_pos":2,"similarity":0.446,"stretto":false,"stretto_voices":0,"combination":[],"aug_dim":"","rhythm_ratio":1.0,"mirror":false,"chromatic_density":0.238,"complexity":0.576,"dissonance":0.132},{"voice":2,"pitch":60,"start":153.9229,"duration":0.2308,"velocity":127,"measure":42,"beat":3.75,"subject_pos":-1,"motif":"","motif_pos":-1,"best_pos":2,"similarity":0.579,"stretto":false,"stretto_voices":0,"combination":[],"aug_dim":"","rhythm_ratio":1.0,"mirror":false,"chromatic_density":0.238,"complexity":0.576,"dissonance":0.132},{"voice":0,"pitch":74,"start":154.1537,"duration":0.6923,"velocity":127,"measure":42,"beat":4.0,"subject_pos":1,"motif":"subject_inv","motif_pos":1,"best_pos":1,"similarity":1.0,"stretto":false,"stretto_voices":0,"combination":[],"aug_dim":"diminution","rhythm_ratio":0.46,"mirror":false,"chromatic_density":0.238,"complexity":0.576,"dissonance":0.132},{"voice":1,"pitch":67,"start":154.1537,"duration":0.9231,"velocity":127,"measure":42,"beat":4.0,"subject_pos":-1,"motif":"","motif_pos":-1,"best_pos":6,"similarity":0.643,"stretto":false,"stretto_voices":0,"combination":[],"aug_dim":"","rhythm_ratio":1.0,"mirror":false,"chromatic_density":0.238,"complexity":0.576,"dissonance":0.132},{"voice":2,"pitch":58,"start":154.1537,"duration":0.2308,"velocity":127,"measure":42,"beat":4.0,"subject_pos":-1,"motif":"","motif_pos":-1,"best_pos":3,"similarity":0.586,"stretto":false,"stretto_voices":0,"combination":[],"aug_dim":"","rhythm_ratio":1.0,"mirror":false,"chromatic_density":0.238,"complexity":0.576,"dissonance":0.132},{"voice":2,"pitch":57,"start":154.3845,"duration":0.2308,"velocity":127,"measure":42,"beat":4.25,"subject_pos":-1,"motif":"","motif_pos":-1,"best_pos":4,"similarity":0.493,"stretto":false,"stretto_voices":0,"combination":[],"aug_dim":"","rhythm_ratio":1.0,"mirror":false,"chromatic_density":0.238,"complexity":0.576,"dissonance":0.132},{"voice":2,"pitch":55,"start":154.6152,"duration":0.4615,"velocity":127,"measure":42,"beat":4.5,"subject_pos":-1,"motif":"","motif_pos":-1,"best_pos":2,"similarity":0.375,"stretto":false,"stretto_voices":0,"combination":[],"aug_dim":"","rhythm_ratio":1.0,"mirror":false,"chromatic_density":0.238,"complexity":0.576,"dissonance":0.132},{"voice":0,"pitch":76,"start":154.846,"duration":0.2308,"velocity":127,"measure":42,"beat":4.75,"subject_pos":2,"motif":"subject_inv","motif_pos":2,"best_pos":2,"similarity":1.0,"stretto":false,"stretto_voices":0,"combination":[],"aug_dim":"diminution","rhythm_ratio":0.46,"mirror":false,"chromatic_density":0.238,"complexity":0.576,"dissonance":0.132},{"voice":0,"pitch":77,"start":155.0768,"duration":0.6923,"velocity":127,"measure":43,"beat":1.0,"subject_pos":3,"motif":"subject_inv","motif_pos":3,"best_pos":3,"similarity":1.0,"stretto":true,"stretto_voices":2,"combination":[],"aug_dim":"diminution","rhythm_ratio":0.46,"mirror":false,"chromatic_density":0.409,"complexity":0.762,"dissonance":0.126},{"voice":1,"pitch":69,"start":155.0768,"duration":0.9231,"velocity":127,"measure":43,"beat":1.0,"subject_pos":0,"motif":"subject_inv","motif_pos":0,"best_pos":0,"similarity":1.0,"stretto":true,"stretto_voices":2,"combination":[],"aug_dim":"diminution","rhythm_ratio":0.5,"mirror":false,"chromatic_density":0.409,"complexity":0.762,"dissonance":0.126},{"voice":2,"pitch":62,"start":155.0768,"duration":0.9231,"velocity":127,"measure":43,"beat":1.0,"subject_pos":-1,"motif":"","motif_pos":-1,"best_pos":1,"similarity":0.411,"stretto":false,"stretto_voices":0,"combination":[],"aug_dim":"","rhythm_ratio":1.0,"mirror":false,"chromatic_density":0.409,"complexity":0.762,"dissonance":0.126},{"voice":3,"pitch":58,"start":155.3075,"duration":0.2308,"velocity":127,"measure":43,"beat":1.25,"subject_pos":-1,"motif":"","motif_pos":-1,"best_pos":3,"similarity":0.386,"stretto":false,"stretto_voices":0,"combination":[],"aug_dim":"","rhythm_ratio":1.0,"mirror":false,"chromatic_density":0.409,"complexity":0.762,"dissonance":0.126},{"voice":3,"pitch":57,"start":155.5383,"duration":0.2308,"velocity":127,"measure":43,"beat":1.5,"subject_pos":-1,"motif":"","motif_pos":-1,"best_pos":1,"similarity":0.429,"stretto":false,"stretto_voices":0,"combination":[],"aug_dim":"","rhythm_ratio":1.0,"mirror":false,"chromatic_density":0.409,"complexity":0.762,"dissonance":0.126},{"voice":0,"pitch":79,"start":155.7691,"duration":0.2308,"velocity":127,"measure":43,"beat":1.75,"subject_pos":4,"motif":"subject_inv","motif_pos":4,"best_pos":4,"similarity":1.0,"stretto":true,"stretto_voices":2,"combination":[],"aug_dim":"diminution","rhythm_ratio":0.46,"mirror":false,"chromatic_density":0.409,"complexity":0.762,"dissonance":0.126},{"voice":3,"pitch":55,"start":155.7691,"duration":0.2308,"velocity":127,"measure":43,"beat":1.75,"subject_pos":-1,"motif":"","motif_pos":-1,"best_pos":2,"similarity":0.579,"stretto":false,"stretto_voices":0,"combination":[],"aug_dim":"","rhythm_ratio":1.0,"mirror":false,"chromatic_density":0.409,"complexity":0.762,"dissonance":0.126},{"voice":0,"pitch":81,"start":155.9998,"duration":0.9231,"velocity":127,"measure":43,"beat":2.0,"subject_pos":5,"motif":"subject_inv","motif_pos":5,"best_pos":5,"similarity":1.0,"stretto":true,"stretto_voices":2,"combination":[],"aug_dim":"diminution","rhythm_ratio":0.46,"mirror":false,"chromatic_density":0.409,"complexity":0.762,"dissonance":0.126},{"voice":1,"pitch":62,"start":155.9998,"duration":0.6923,"velocity":127,"measure":43,"beat":2.0,"subject_pos":1,"motif":"subject_inv","motif_pos":1,"best_pos":1,"similarity":1.0,"stretto":true,"stretto_voices":2,"combination":[],"aug_dim":"diminution","rhythm_ratio":0.5,"mirror":false,"chromatic_density":0.409,"complexity":0.762,"dissonance":0.126},{"voice":3,"pitch":53,"start":155.9998,"duration":0.2308,"velocity":127,"measure":43,"beat":2.0,"subject_pos":-1,"motif":"","motif_pos":-1,"best_pos":3,"similarity":0.593,"stretto":false,"stretto_voices":0,"combination":[],"aug_dim":"","rhythm_ratio":1.0,"mirror":false,"chromatic_density":0.409,"complexity":0.762,"dissonance":0.126},{"voice":3,"pitch":52,"start":156.2306,"duration":0.2308,"velocity":127,"measure":43,"beat":2.25,"subject_pos":-1,"motif":"","motif_pos":-1,"best_pos":4,"similarity":0.507,"stretto":false,"stretto_voices":0,"combination":[],"aug_dim":"","rhythm_ratio":1.0,"mirror":false,"chromatic_density":0.409,"complexity":0.762,"dissonance":0.126},{"voice":2,"pitch":62,"start":156.4614,"duration":0.6923,"velocity":127,"measure":43,"beat":2.5,"subject_pos":-1,"motif":"tail","motif_pos":3,"best_pos":3,"similarity":1.0,"stretto":false,"stretto_voices":0,"combination":[],"aug_dim":"","rhythm_ratio":1.0,"mirror":false,"chromatic_density":0.409,"complexity":0.762,"dissonance":0.126},{"voice":3,"pitch":50,"start":156.4614,"duration":0.4615,"velocity":127,"measure":43,"beat":2.5,"subject_pos":-1,"motif":"","motif_pos":-1,"best_pos":4,"similarity":0.493,"stretto":false,"stretto_voices":0,"combination":[],"aug_dim":"","rhythm_ratio":1.0,"mirror":false,"chromatic_density":0.409,"complexity":0.762,"dissonance":0.126},{"voice":1,"pitch":64,"start":156.6922,"duration":0.2308,"velocity":127,"measure":43,"beat":2.75,"subject_pos":2,"motif":"subject_inv","motif_pos":2,"best_pos":2,"similarity":1.0,"stretto":true,"stretto_voices":2,"combination":[],"aug_dim":"diminution","rhythm_ratio":0.5,"mirror":false,"chromatic_density":0.409,"complexity":0.762,"dissonance":0.126},{"voice":0,"pitch":82,"start":156.9229,"duration":0.9231,"velocity":127,"measure":43,"beat":3.0,"subject_pos":6,"motif":"subject_inv","motif_pos":6,"best_pos":6,"similarity":1.0,"stretto":true,"stretto_voices":2,"combination":[],"aug_dim":"diminution","rhythm_ratio":0.46,"mirror":false,"chromatic_density":0.409,"complexity":0.762,"dissonance":0.126},{"voice":1,"pitch":65,"start":156.9229,"duration":0.6923,"velocity":127,"measure":43,"beat":3.0,"subject_pos":3,"motif":"subject_inv","motif_pos":3,"best_pos":3,"similarity":1.0,"stretto":true,"stretto_voices":2,"combination":[],"aug_dim":"diminution","rhythm_ratio":0.5,"mirror":false,"chromatic_density":0.409,"complexity":0.762,"dissonance":0.126},{"voice":2,"pitch":61,"start":157.1537,"duration":0.2308,"velocity":127,"measure":43,"beat":3.25,"subject_pos":-1,"motif":"tail","motif_pos":4,"best_pos":4,"similarity":1.0,"stretto":false,"stretto_voices":0,"combination":[],"aug_dim":"","rhythm_ratio":1.0,"mirror":false,"chromatic_density":0.409,"complexity":0.762,"dissonance":0.126},{"voice":2,"pitch":62,"start":157.3845,"duration":0.2308,"velocity":127,"measure":43,"beat":3.5,"subject_pos":-1,"motif":"tail","motif_pos":5,"best_pos":5,"similarity":1.0,"stretto":false,"stretto_voices":0,"combination":[],"aug_dim":"","rhythm_ratio":1.0,"mirror":false,"chromatic_density":0.409,"complexity":0.762,"dissonance":0.126},{"voice":1,"pitch":67,"start":157.6152,"duration":0.2308,"velocity":127,"measure":43,"beat":3.75,"subject_pos":4,"motif":"subject_inv","motif_pos":4,"best_pos":4,"similarity":1.0,"stretto":true,"stretto_voices":2,"combination":[],"aug_dim":"diminution","rhythm_ratio":0.5,"mirror":false,"chromatic_density":0.409,"complexity":0.762,"dissonance":0.126},{"voice":2,"pitch":64,"start":157.6152,"duration":0.2308,"velocity":127,"measure":43,"beat":3.75,"subject_pos":-1,"motif":"tail","motif_pos":6,"best_pos":6,"similarity":1.0,"stretto":false,"stretto_voices":0,"combination":[],"aug_dim":"","rhythm_ratio":1.0,"mirror":false,"chromatic_density":0.409,"complexity":0.762,"dissonance":0.126},{"voice":0,"pitch":81,"start":157.846,"duration":0.6923,"velocity":127,"measure":43,"beat":4.0,"subject_pos":7,"motif":"subject_inv","motif_pos":7,"best_pos":7,"similarity":1.0,"stretto":true,"stretto_voices":2,"combination":[],"aug_dim":"diminution","rhythm_ratio":0.46,"mirror":false,"chromatic_density":0.409,"complexity":0.762,"dissonance":0.126},{"voice":1,"pitch":69,"start":157.846,"duration":0.9231,"velocity":127,"measure":43,"beat":4.0,"subject_pos":5,"motif":"subject_inv","motif_pos":5,"best_pos":5,"similarity":1.0,"stretto":true,"stretto_voices":2,"combination":[],"aug_dim":"diminution","rhythm_ratio":0.5,"mirror":false,"chromatic_density":0.409,"complexity":0.762,"dissonance":0.126},{"voice":2,"pitch":65,"start":157.846,"duration":0.2308,"velocity":127,"measure":43,"beat":4.0,"subject_pos":-1,"motif":"tail","motif_pos":7,"best_pos":7,"similarity":1.0,"stretto":false,"stretto_voices":0,"combination":[],"aug_dim":"","rhythm_ratio":1.0,"mirror":false,"chromatic_density":0.409,"complexity":0.762,"dissonance":0.126},{"voice":2,"pitch":67,"start":158.0768,"duration":0.2308,"velocity":127,"measure":43,"beat":4.25,"subject_pos":-1,"motif":"","motif_pos":-1,"best_pos":6,"similarity":0.464,"stretto":false,"stretto_voices":0,"combination":[],"aug_dim":"","rhythm_ratio":1.0,"mirror":false,"chromatic_density":0.409,"complexity":0.762,"dissonance":0.126},{"voice":2,"pitch":65,"start":158.3075,"duration":0.2308,"velocity":127,"measure":43,"beat":4.5,"subject_pos":-1,"motif":"","motif_pos":-1,"best_pos":3,"similarity":0.471,"stretto":false,"stretto_voices":0,"combination":[],"aug_dim":"","rhythm_ratio":1.0,"mirror":false,"chromatic_density":0.409,"complexity":0.762,"dissonance":0.126},{"voice":0,"pitch":79,"start":158.5383,"duration":0.2308,"velocity":127,"measure":43,"beat":4.75,"subject_pos":8,"motif":"subject_inv","motif_pos":8,"best_pos":0,"similarity":1.0,"stretto":true,"stretto_voices":2,"combination":[],"aug_dim":"diminution","rhythm_ratio":0.46,"mirror":false,"chromatic_density":0.409,"complexity":0.762,"dissonance":0.126},{"voice":2,"pitch":64,"start":158.5383,"duration":0.2308,"velocity":127,"measure":43,"beat":4.75,"subject_pos":-1,"motif":"","motif_pos":-1,"best_pos":4,"similarity":0.425,"stretto":false,"stretto_voices":0,"combination":[],"aug_dim":"","rhythm_ratio":1.0,"mirror":false,"chromatic_density":0.409,"complexity":0.762,"dissonance":0.126},{"voice":0,"pitch":77,"start":158.7691,"duration":1.1538,"velocity":127,"measure":44,"beat":1.0,"subject_pos":-1,"motif":"","motif_pos":-1,"best_pos":3,"similarity":0.786,"stretto":false,"stretto_voices":0,"combination":[],"aug_dim":"","rhythm_ratio":1.0,"mirror":false,"chromatic_density":0.304,"complexity":0.704,"dissonance":0.063},{"voice":1,"pitch":70,"start":158.7691,"duration":0.9231,"velocity":127,"measure":44,"beat":1.0,"subject_pos":6,"motif":"subject_inv","motif_pos":6,"best_pos":6,"similarity":1.0,"stretto":false,"stretto_voices":0,"combination":[],"aug_dim":"diminution","rhythm_ratio":0.5,"mirror":false,"chromatic_density":0.304,"complexity":0.704,"dissonance":0.063},{"voice":2,"pitch":62,"start":158.7691,"duration":0.9231,"velocity":127,"measure":44,"beat":1.0,"subject_pos":-1,"motif":"","motif_pos":-1,"best_pos":2,"similarity":0.461,"stretto":false,"stretto_voices":0,"combination":[],"aug_dim":"","rhythm_ratio":1.0,"mirror":false,"chromatic_density":0.304,"complexity":0.704,"dissonance":0.063},{"voice":3,"pitch":55,"start":158.9998,"duration":0.2308,"velocity":127,"measure":44,"beat":1.25,"subject_pos":-1,"motif":"","motif_pos":-1,"best_pos":5,"similarity":0.546,"stretto":false,"stretto_voices":0,"combination":[],"aug_dim":"","rhythm_ratio":1.0,"mirror":false,"chromatic_density":0.304,"complexity":0.704,"dissonance":0.063},{"voice":3,"pitch":57,"start":159.2306,"duration":0.2308,"velocity":127,"measure":44,"beat":1.5,"subject_pos":-1,"motif":"","motif_pos":-1,"best_pos":6,"similarity":0.621,"stretto":false,"stretto_voices":0,"combination":[],"aug_dim":"","rhythm_ratio":1.0,"mirror":false,"chromatic_density":0.304,"complexity":0.704,"dissonance":0.063},{"voice":3,"pitch":58,"start":159.4614,"duration":0.2308,"velocity":127,"measure":44,"beat":1.75,"subject_pos":-1,"motif":"","motif_pos":-1,"best_pos":5,"similarity":0.586,"stretto":false,"stretto_voices":0,"combination":[],"aug_dim":"","rhythm_ratio":1.0,"mirror":false,"chromatic_density":0.304,"complexity":0.704,"dissonance":0.063},{"voice":1,"pitch":69,"start":159.6921,"duration":0.6923,"velocity":127,"measure":44,"beat":2.0,"subject_pos":7,"motif":"subject_inv","motif_pos":7,"best_pos":7,"similarity":1.0,"stretto":false,"stretto_voices":0,"combination":[],"aug_dim":"diminution","rhythm_ratio":0.5,"mirror":false,"chromatic_density":0.304,"complexity":0.704,"dissonance":0.063},{"voice":2,"pitch":60,"start":159.6921,"duration":3.0,"velocity":127,"measure":44,"beat":2.0,"subject_pos":-1,"motif":"","motif_pos":-1,"best_pos":2,"similarity":0.436,"stretto":false,"stretto_voices":0,"combination":[],"aug_dim":"","rhythm_ratio":1.0,"mirror":false,"chromatic_density":0.304,"complexity":0.704,"dissonance":0.063},{"voice":3,"pitch":60,"start":159.6921,"duration":0.4615,"velocity":127,"measure":44,"beat":2.0,"subject_pos":-1,"motif":"","motif_pos":-1,"best_pos":6,"similarity":0.436,"stretto":false,"stretto_voices":0,"combination":[],"aug_dim":"","rhythm_ratio":1.0,"mirror":false,"chromatic_density":0.304,"complexity":0.704,"dissonance":0.063},{"voice":0,"pitch":76,"start":159.9229,"duration":0.2308,"velocity":127,"measure":44,"beat":2.25,"subject_pos":-1,"motif":"","motif_pos":-1,"best_pos":4,"similarity":0.893,"stretto":false,"stretto_voices":0,"combination":[],"aug_dim":"","rhythm_ratio":1.0,"mirror":false,"chromatic_density":0.304,"complexity":0.704,"dissonance":0.063},{"voice":0,"pitch":77,"start":160.1537,"duration":0.2308,"velocity":127,"measure":44,"beat":2.5,"subject_pos":-1,"motif":"","motif_pos":-1,"best_pos":5,"similarity":0.821,"stretto":false,"stretto_voices":0,"combination":[],"aug_dim":"","rhythm_ratio":1.0,"mirror":false,"chromatic_density":0.304,"complexity":0.704,"dissonance":0.063},{"voice":3,"pitch":48,"start":160.1537,"duration":0.4615,"velocity":127,"measure":44,"beat":2.5,"subject_pos":-1,"motif":"","motif_pos":-1,"best_pos":0,"similarity":0.3,"stretto":false,"stretto_voices":0,"combination":[],"aug_dim":"","rhythm_ratio":1.0,"mirror":false,"chromatic_density":0.304,"complexity":0.704,"dissonance":0.063},{"voice":0,"pitch":79,"start":160.3845,"duration":0.2308,"velocity":127,"measure":44,"beat":2.75,"subject_pos":-1,"motif":"","motif_pos":-1,"best_pos":6,"similarity":0.643,"stretto":false,"stretto_voices":0,"combination":[],"aug_dim":"","rhythm_ratio":1.0,"mirror":false,"chromatic_density":0.304,"complexity":0.704,"dissonance":0.063},{"voice":1,"pitch":67,"start":160.3845,"duration":0.2308,"velocity":127,"measure":44,"beat":2.75,"subject_pos":8,"motif":"subject_inv","motif_pos":8,"best_pos":0,"similarity":1.0,"stretto":false,"stretto_voices":0,"combination":[],"aug_dim":"diminution","rhythm_ratio":0.5,"mirror":false,"chromatic_density":0.304,"complexity":0.704,"dissonance":0.063},{"voice":0,"pitch":81,"start":160.6152,"duration":0.2308,"velocity":127,"measure":44,"beat":3.0,"subject_pos":-1,"motif":"","motif_pos":-1,"best_pos":1,"similarity":0.386,"stretto":false,"stretto_voices":0,"combination":[],"aug_dim":"","rhythm_ratio":1.0,"mirror":false,"chromatic_density":0.304,"complexity":0.704,"dissonance":0.063},{"voice":1,"pitch":65,"start":160.6152,"duration":1.1538,"velocity":127,"measure":44,"beat":3.0,"subject_pos":-1,"motif":"","motif_pos":-1,"best_pos":3,"similarity":0.786,"stretto":false,"stretto_voices":0,"combination":[],"aug_dim":"","rhythm_ratio":1.0,"mirror":false,"chromatic_density":0.304,"complexity":0.704,"dissonance":0.063},{"voice":3,"pitch":53,"start":160.6152,"duration":0.4615,"velocity":127,"measure":44,"beat":3.0,"subject_pos":-1,"motif":"","motif_pos":-1,"best_pos":5,"similarity":0.386,"stretto":false,"stretto_voices":0,"combination":[],"aug_dim":"","rhythm_ratio":1.0,"mirror":false,"chromatic_density":0.304,"complexity":0.704,"dissonance":0.063},{"voice":0,"pitch":77,"start":160.846,"duration":0.2308,"velocity":127,"measure":44,"beat":3.25,"subject_pos":-1,"motif":"","motif_pos":-1,"best_pos":3,"similarity":0.471,"stretto":false,"stretto_voices":0,"combination":[],"aug_dim":"","rhythm_ratio":1.0,"mirror":false,"chromatic_density":0.304,"complexity":0.704,"dissonance":0.063},{"voice":0,"pitch":76,"start":161.0768,"duration":0.2308,"velocity":127,"measure":44,"beat":3.5,"subject_pos":-1,"motif":"","motif_pos":-1,"best_pos":3,"similarity":0.45,"stretto":false,"stretto_voices":0,"combination":[],"aug_dim":"","rhythm_ratio":1.0,"mirror":false,"chromatic_density":0.304,"complexity":0.704,"dissonance":0.063},{"voice":3,"pitch":55,"start":161.0768,"duration":0.4615,"velocity":127,"measure":44,"beat":3.5,"subject_pos":-1,"motif":"","motif_pos":-1,"best_pos":5,"similarity":0.443,"stretto":false,"stretto_voices":0,"combination":[],"aug_dim":"","rhythm_ratio":1.0,"mirror":false,"chromatic_density":0.304,"complexity":0.704,"dissonance":0.063},{"voice":0,"pitch":74,"start":161.3075,"duration":0.2308,"velocity":127,"measure":44,"beat":3.75,"subject_pos":-1,"motif":"","motif_pos":-1,"best_pos":2,"similarity":0.443,"stretto":false,"stretto_voices":0,"combination":[],"aug_dim":"","rhythm_ratio":1.0,"mirror":false,"chromatic_density":0.304,"complexity":0.704,"dissonance":0.063},{"voice":0,"pitch":72,"start":161.5383,"duration":0.4615,"velocity":127,"measure":44,"beat":4.0,"subject_pos":-1,"motif":"","motif_pos":-1,"best_pos":5,"similarity":0.404,"stretto":false,"stretto_voices":0,"combination":[],"aug_dim":"","rhythm_ratio":1.0,"mirror":false,"chromatic_density":0.304,"complexity":0.704,"dissonance":0.063},{"voice":3,"pitch":57,"start":161.5383,"duration":0.4615,"velocity":127,"measure":44,"beat":4.0,"subject_pos":-1,"motif":"","motif_pos":-1,"best_pos":6,"similarity":0.386,"stretto":false,"stretto_voices":0,"combination":[],"aug_dim":"","rhythm_ratio":1.0,"mirror":false,"chromatic_density":0.304,"complexity":0.704,"dissonance":0.063},{"voice":1,"pitch":64,"start":161.7691,"duration":0.2308,"velocity":127,"measure":44,"beat":4.25,"subject_pos":-1,"motif":"","motif_pos":-1,"best_pos":4,"similarity":0.893,"stretto":false,"stretto_voices":0,"combination":[],"aug_dim":"","rhythm_ratio":1.0,"mirror":false,"chromatic_density":0.304,"complexity":0.704,"dissonance":0.063},{"voice":1,"pitch":65,"start":161.9998,"duration":0.2308,"velocity":127,"measure":44,"beat":4.5,"subject_pos":-1,"motif":"","motif_pos":-1,"best_pos":5,"similarity":0.821,"stretto":false,"stretto_voices":0,"combination":[],"aug_dim":"","rhythm_ratio":1.0,"mirror":false,"chromatic_density":0.304,"complexity":0.704,"dissonance":0.063},{"voice":3,"pitch":55,"start":161.9998,"duration":0.4615,"velocity":127,"measure":44,"beat":4.5,"subject_pos":-1,"motif":"","motif_pos":-1,"best_pos":3,"similarity":0.521,"stretto":false,"stretto_voices":0,"combination":[],"aug_dim":"","rhythm_ratio":1.0,"mirror":false,"chromatic_density":0.304,"complexity":0.704,"dissonance":0.063},{"voice":1,"pitch":67,"start":162.2306,"duration":0.2308,"velocity":127,"measure":44,"beat":4.75,"subject_pos":-1,"motif":"","motif_pos":-1,"best_pos":6,"similarity":0.643,"stretto":false,"stretto_voices":0,"combination":[],"aug_dim":"","rhythm_ratio":1.0,"mirror":false,"chromatic_density":0.304,"complexity":0.704,"dissonance":0.063},{"voice":1,"pitch":69,"start":162.4614,"duration":0.9231,"velocity":127,"measure":45,"beat":1.0,"subject_pos":-1,"motif":"","motif_pos":-1,"best_pos":0,"similarity":0.464,"stretto":false,"stretto_voices":0,"combination":[],"aug_dim":"","rhythm_ratio":1.0,"mirror":false,"chromatic_density":0.227,"complexity":0.591,"dissonance":0.163},{"voice":3,"pitch":54,"start":162.4614,"duration":0.9231,"velocity":127,"measure":45,"beat":1.0,"subject_pos":-1,"motif":"","motif_pos":-1,"best_pos":4,"similarity":0.543,"stretto":false,"stretto_voices":0,"combination":[],"aug_dim":"","rhythm_ratio":1.0,"mirror":false,"chromatic_density":0.227,"complexity":0.591,"dissonance":0.163},{"voice":2,"pitch":63,"start":162.6921,"duration":0.2308,"velocity":127,"measure":45,"beat":1.25,"subject_pos":-1,"motif":"","motif_pos":-1,"best_pos":3,"similarity":0.45,"stretto":false,"stretto_voices":0,"combination":[],"aug_dim":"","rhythm_ratio":1.0,"mirror":false,"chromatic_density":0.227,"complexity":0.591,"dissonance":0.163},{"voice":2,"pitch":62,"start":162.9229,"duration":0.2308,"velocity":127,"measure":45,"beat":1.5,"subject_pos":-1,"motif":"","motif_pos":-1,"best_pos":1,"similarity":0.429,"stretto":false,"stretto_voices":0,"combination":[],"aug_dim":"","rhythm_ratio":1.0,"mirror":false,"chromatic_density":0.227,"complexity":0.591,"dissonance":0.163},{"voice":2,"pitch":60,"start":163.1537,"duration":0.2308,"velocity":127,"measure":45,"beat":1.75,"subject_pos":-1,"motif":"","motif_pos":-1,"best_pos":2,"similarity":0.579,"stretto":false,"stretto_voices":0,"combination":[],"aug_dim":"","rhythm_ratio":1.0,"mirror":false,"chromatic_density":0.227,"complexity":0.591,"dissonance":0.163},{"voice":1,"pitch":74,"start":163.3845,"duration":0.6923,"velocity":127,"measure":45,"beat":2.0,"subject_pos":-1,"motif":"","motif_pos":-1,"best_pos":1,"similarity":0.714,"stretto":false,"stretto_voices":0,"combination":[],"aug_dim":"","rhythm_ratio":1.0,"mirror":false,"chromatic_density":0.227,"complexity":0.591,"dissonance":0.163},{"voice":2,"pitch":58,"start":163.3845,"duration":0.6923,"velocity":127,"measure":45,"beat":2.0,"subject_pos":-1,"motif":"","motif_pos":-1,"best_pos":3,"similarity":0.586,"stretto":false,"stretto_voices":0,"combination":[],"aug_dim":"","rhythm_ratio":1.0,"mirror":false,"chromatic_density":0.227,"complexity":0.591,"dissonance":0.163},{"voice":3,"pitch":50,"start":163.6152,"duration":0.2308,"velocity":127,"measure":45,"beat":2.25,"subject_pos":-1,"motif":"","motif_pos":-1,"best_pos":5,"similarity":0.536,"stretto":false,"stretto_voices":0,"combination":[],"aug_dim":"","rhythm_ratio":1.0,"mirror":false,"chromatic_density":0.227,"complexity":0.591,"dissonance":0.163},{"voice":3,"pitch":52,"start":163.846,"duration":0.2308,"velocity":127,"measure":45,"beat":2.5,"subject_pos":-1,"motif":"","motif_pos":-1,"best_pos":5,"similarity":0.604,"stretto":false,"stretto_voices":0,"combination":[],"aug_dim":"","rhythm_ratio":1.0,"mirror":false,"chromatic_density":0.227,"complexity":0.591,"dissonance":0.163},{"voice":1,"pitch":72,"start":164.0768,"duration":0.2308,"velocity":127,"measure":45,"beat":2.75,"subject_pos":-1,"motif":"","motif_pos":-1,"best_pos":2,"similarity":0.721,"stretto":false,"stretto_voices":0,"combination":[],"aug_dim":"","rhythm_ratio":1.0,"mirror":false,"chromatic_density":0.227,"complexity":0.591,"dissonance":0.163},{"voice":2,"pitch":57,"start":164.0768,"duration":0.2308,"velocity":127,"measure":45,"beat":2.75,"subject_pos":-1,"motif":"","motif_pos":-1,"best_pos":4,"similarity":0.457,"stretto":false,"stretto_voices":0,"combination":[],"aug_dim":"","rhythm_ratio":1.0,"mirror":false,"chromatic_density":0.227,"complexity":0.591,"dissonance":0.163},{"voice":3,"pitch":54,"start":164.0768,"duration":0.2308,"velocity":127,"measure":45,"beat":2.75,"subject_pos":-1,"motif":"enigmatic_cell","motif_pos":0,"best_pos":0,"similarity":1.0,"stretto":false,"stretto_voices":0,"combination":[],"aug_dim":"","rhythm_ratio":1.0,"mirror":false,"chromatic_density":0.227,"complexity":0.591,"dissonance":0.163},{"voice":1,"pitch":70,"start":164.3075,"duration":0.6923,"velocity":127,"measure":45,"beat":3.0,"subject_pos":-1,"motif":"","motif_pos":-1,"best_pos":3,"similarity":0.664,"stretto":false,"stretto_voices":0,"combination":[],"aug_dim":"","rhythm_ratio":1.0,"mirror":false,"chromatic_density":0.227,"complexity":0.591,"dissonance":0.163},{"voice":2,"pitch":55,"start":164.3075,"duration":0.9231,"velocity":127,"measure":45,"beat":3.0,"subject_pos":-1,"motif":"","motif_pos":-1,"best_pos":2,"similarity":0.293,"stretto":false,"stretto_voices":0,"combination":[],"aug_dim":"","rhythm_ratio":1.0,"mirror":false,"chromatic_density":0.227,"complexity":0.591,"dissonance":0.163},{"voice":3,"pitch":55,"start":164.3075,"duration":0.2308,"velocity":127,"measure":45,"beat":3.0,"subject_pos":-1,"motif":"enigmatic_cell","motif_pos":1,"best_pos":1,"similarity":1.0,"stretto":false,"stretto_voices":0,"combination":[],"aug_dim":"","rhythm_ratio":1.0,"mirror":false,"chromatic_density":0.227,"complexity":0.591,"dissonance":0.163},{"voice":3,"pitch":50,"start":164.5383,"duration":0.2308,"velocity":127,"measure":45,"beat":3.25,"subject_pos":-1,"motif":"enigmatic_cell","motif_pos":2,"best_pos":2,"similarity":1.0,"stretto":false,"stretto_voices":0,"combination":[],"aug_dim":"","rhythm_ratio":1.0,"mirror":false,"chromatic_density":0.227,"complexity":0.591,"dissonance":0.163},{"voice":3,"pitch":55,"start":164.7691,"duration":0.2308,"velocity":127,"measure":45,"beat":3.5,"subject_pos":-1,"motif":"","motif_pos":-1,"best_pos":1,"similarity":0.714,"stretto":false,"stretto_voices":0,"combination":[],"aug_dim":"","rhythm_ratio":1.0,"mirror":false,"chromatic_density":0.227,"complexity":0.591,"dissonance":0.163},{"voice":1,"pitch":69,"start":164.9998,"duration":0.2308,"velocity":127,"measure":45,"beat":3.75,"subject_pos":-1,"motif":"","motif_pos":-1,"best_pos":4,"similarity":0.543,"stretto":false,"stretto_voices":0,"combination":[],"aug_dim":"","rhythm_ratio":1.0,"mirror":false,"chromatic_density":0.227,"complexity":0.591,"dissonance":0.163},{"voice":3,"pitch":53,"start":164.9998,"duration":0.2308,"velocity":127,"measure":45,"beat":3.75,"subject_pos":-1,"motif":"","motif_pos":-1,"best_pos":2,"similarity":0.721,"stretto":false,"stretto_voices":0,"combination":[],"aug_dim":"","rhythm_ratio":1.0,"mirror":false,"chromatic_density":0.227,"complexity":0.591,"dissonance":0.163},{"voice":1,"pitch":67,"start":165.2306,"duration":0.9231,"velocity":127,"measure":45,"beat":4.0,"subject_pos":-1,"motif":"tail","motif_pos":3,"best_pos":3,"similarity":1.0,"stretto":false,"stretto_voices":0,"combination":[],"aug_dim":"","rhythm_ratio":1.0,"mirror":false,"chromatic_density":0.227,"complexity":0.591,"dissonance":0.163},{"voice":3,"pitch":51,"start":165.2306,"duration":0.2308,"velocity":127,"measure":45,"beat":4.0,"subject_pos":-1,"motif":"","motif_pos":-1,"best_pos":3,"similarity":0.664,"stretto":false,"stretto_voices":0,"combination":[],"aug_dim":"","rhythm_ratio":1.0,"mirror":false,"chromatic_density":0.227,"complexity":0.591,"dissonance":0.163},{"voice":3,"pitch":50,"start":165.4614,"duration":0.2308,"velocity":127,"measure":45,"beat":4.25,"subject_pos":-1,"motif":"","motif_pos":-1,"best_pos":4,"similarity":0.507,"stretto":false,"stretto_voices":0,"combination":[],"aug_dim":"","rhythm_ratio":1.0,"mirror":false,"chromatic_density":0.227,"complexity":0.591,"dissonance":0.163},{"voice":2,"pitch":63,"start":165.6921,"duration":0.4615,"velocity":127,"measure":45,"beat":4.5,"subject_pos":-1,"motif":"","motif_pos":-1,"best_pos":1,"similarity":0.214,"stretto":false,"stretto_voices":0,"combination":[],"aug_dim":"","rhythm_ratio":1.0,"mirror":false,"chromatic_density":0.227,"complexity":0.591,"dissonance":0.163},{"voice":3,"pitch":48,"start":165.6921,"duration":0.2308,"velocity":127,"measure":45,"beat":4.5,"subject_pos":-1,"motif":"","motif_pos":-1,"best_pos":3,"similarity":0.464,"stretto":false,"stretto_voices":0,"combination":[],"aug_dim":"","rhythm_ratio":1.0,"mirror":false,"chromatic_density":0.227,"complexity":0.591,"dissonance":0.163},{"voice":3,"pitch":46,"start":165.9229,"duration":0.2308,"velocity":127,"measure":45,"beat":4.75,"subject_pos":-1,"motif":"","motif_pos":-1,"best_pos":4,"similarity":0.482,"stretto":false,"stretto_voices":0,"combination":[],"aug_dim":"","rhythm_ratio":1.0,"mirror":false,"chromatic_density":0.227,"complexity":0.591,"dissonance":0.163},{"voice":1,"pitch":66,"start":166.1537,"duration":0.9231,"velocity":127,"measure":46,"beat":1.0,"subject_pos":-1,"motif":"tail","motif_pos":4,"best_pos":4,"similarity":1.0,"stretto":false,"stretto_voices":0,"combination":[],"aug_dim":"","rhythm_ratio":1.0,"mirror":false,"chromatic_density":0.417,"complexity":0.709,"dissonance":0.148},{"voice":2,"pitch":57,"start":166.1537,"duration":0.4615,"velocity":127,"measure":46,"beat":1.0,"subject_pos":-1,"motif":"","motif_pos":-1,"best_pos":0,"similarity":0.3,"stretto":false,"stretto_voices":0,"combination":[],"aug_dim":"","rhythm_ratio":1.0,"mirror":false,"chromatic_density":0.417,"complexity":0.709,"dissonance":0.148},{"voice":3,"pitch":48,"start":166.1537,"duration":0.2308,"velocity":127,"measure":46,"beat":1.0,"subject_pos":-1,"motif":"","motif_pos":-1,"best_pos":5,"similarity":0.429,"stretto":false,"stretto_voices":0,"combination":[],"aug_dim":"","rhythm_ratio":1.0,"mirror":false,"chromatic_density":0.417,"complexity":0.709,"dissonance":0.148},{"voice":3,"pitch":51,"start":166.3844,"duration":0.2308,"velocity":127,"measure":46,"beat":1.25,"subject_pos":-1,"motif":"","motif_pos":-1,"best_pos":1,"similarity":0.321,"stretto":false,"stretto_voices":0,"combination":[],"aug_dim":"","rhythm_ratio":1.0,"mirror":false,"chromatic_density":0.417,"complexity":0.709,"dissonance":0.148},{"voice":3,"pitch":50,"start":166.6152,"duration":0.2308,"velocity":127,"measure":46,"beat":1.5,"subject_pos":-1,"motif":"","motif_pos":-1,"best_pos":1,"similarity":0.429,"stretto":false,"stretto_voices":0,"combination":[],"aug_dim":"","rhythm_ratio":1.0,"mirror":false,"chromatic_density":0.417,"complexity":0.709,"dissonance":0.148},{"voice":3,"pitch":48,"start":166.846,"duration":0.2308,"velocity":127,"measure":46,"beat":1.75,"subject_pos":-1,"motif":"","motif_pos":-1,"best_pos":2,"similarity":0.579,"stretto":false,"stretto_voices":0,"combination":[],"aug_dim":"","rhythm_ratio":1.0,"mirror":false,"chromatic_density":0.417,"complexity":0.709,"dissonance":0.148},{"voice":1,"pitch":67,"start":167.0768,"duration":0.6923,"velocity":127,"measure":46,"beat":2.0,"subject_pos":-1,"motif":"tail","motif_pos":5,"best_pos":5,"similarity":1.0,"stretto":false,"stretto_voices":0,"combination":[],"aug_dim":"","rhythm_ratio":1.0,"mirror":false,"chromatic_density":0.417,"complexity":0.709,"dissonance":0.148},{"voice":2,"pitch":62,"start":167.0768,"duration":0.9231,"velocity":127,"measure":46,"beat":2.0,"subject_pos":0,"motif":"subject_inv","motif_pos":0,"best_pos":0,"similarity":1.0,"stretto":false,"stretto_voices":0,"combination":[],"aug_dim":"diminution","rhythm_ratio":0.5,"mirror":false,"chromatic_density":0.417,"complexity":0.709,"dissonance":0.148},{"voice":3,"pitch":46,"start":167.0768,"duration":0.2308,"velocity":127,"measure":46,"beat":2.0,"subject_pos":-1,"motif":"","motif_pos":-1,"best_pos":3,"similarity":0.593,"stretto":false,"stretto_voices":0,"combination":[],"aug_dim":"","rhythm_ratio":1.0,"mirror":false,"chromatic_density":0.417,"complexity":0.709,"dissonance":0.148},{"voice":3,"pitch":45,"start":167.3075,"duration":0.2308,"velocity":127,"measure":46,"beat":2.25,"subject_pos":-1,"motif":"","motif_pos":-1,"best_pos":4,"similarity":0.543,"stretto":false,"stretto_voices":0,"combination":[],"aug_dim":"","rhythm_ratio":1.0,"mirror":false,"chromatic_density":0.417,"complexity":0.709,"dissonance":0.148},{"voice":3,"pitch":43,"start":167.5383,"duration":0.2308,"velocity":127,"measure":46,"beat":2.5,"subject_pos":-1,"motif":"","motif_pos":-1,"best_pos":3,"similarity":0.643,"stretto":false,"stretto_voices":0,"combination":[],"aug_dim":"","rhythm_ratio":1.0,"mirror":false,"chromatic_density":0.417,"complexity":0.709,"dissonance":0.148},{"voice":1,"pitch":69,"start":167.7691,"duration":0.2308,"velocity":127,"measure":46,"beat":2.75,"subject_pos":-1,"motif":"tail","motif_pos":6,"best_pos":6,"similarity":1.0,"stretto":false,"stretto_voices":0,"combination":[],"aug_dim":"","rhythm_ratio":1.0,"mirror":false,"chromatic_density":0.417,"complexity":0.709,"dissonance":0.148},{"voice":3,"pitch":42,"start":167.7691,"duration":0.2308,"velocity":127,"measure":46,"beat":2.75,"subject_pos":-1,"motif":"","motif_pos":-1,"best_pos":4,"similarity":0.686,"stretto":false,"stretto_voices":0,"combination":[],"aug_dim":"","rhythm_ratio":1.0,"mirror":false,"chromatic_density":0.417,"complexity":0.709,"dissonance":0.148},{"voice":1,"pitch":70,"start":167.9998,"duration":1.1538,"velocity":127,"measure":46,"beat":3.0,"subject_pos":-1,"motif":"tail","motif_pos":7,"best_pos":7,"similarity":1.0,"stretto":false,"stretto_voices":0,"combination":[],"aug_dim":"","rhythm_ratio":1.0,"mirror":false,"chromatic_density":0.417,"complexity":0.709,"dissonance":0.148},{"voice":2,"pitch":55,"start":167.9998,"duration":0.6923,"velocity":127,"measure":46,"beat":3.0,"subject_pos":1,"motif":"subject_inv","motif_pos":1,"best_pos":1,"similarity":1.0,"stretto":false,"stretto_voices":0,"combination":[],"aug_dim":"diminution","rhythm_ratio":0.5,"mirror":false,"chromatic_density":0.417,"complexity":0.709,"dissonance":0.148},{"voice":3,"pitch":43,"start":167.9998,"duration":0.2308,"velocity":127,"measure":46,"beat":3.0,"subject_pos":-1,"motif":"","motif_pos":-1,"best_pos":5,"similarity":0.479,"stretto":false,"stretto_voices":0,"combination":[],"aug_dim":"","rhythm_ratio":1.0,"mirror":false,"chromatic_density":0.417,"complexity":0.709,"dissonance":0.148},{"voice":3,"pitch":50,"start":168.2306,"duration":0.2308,"velocity":127,"measure":46,"beat":3.25,"subject_pos":-1,"motif":"","motif_pos":-1,"best_pos":0,"similarity":0.364,"stretto":false,"stretto_voices":0,"combination":[],"aug_dim":"","rhythm_ratio":1.0,"mirror":false,"chromatic_density":0.417,"complexity":0.709,"dissonance":0.148},{"voice":3,"pitch":55,"start":168.4614,"duration":0.6923,"velocity":127,"measure":46,"beat":3.5,"subject_pos":-1,"motif":"tail","motif_pos":3,"best_pos":3,"similarity":1.0,"stretto":false,"stretto_voices":0,"combination":[],"aug_dim":"","rhythm_ratio":1.0,"mirror":false,"chromatic_density":0.417,"complexity":0.709,"dissonance":0.148},{"voice":2,"pitch":57,"start":168.6921,"duration":0.2308,"velocity":127,"measure":46,"beat":3.75,"subject_pos":2,"motif":"subject_inv","motif_pos":2,"best_pos":2,"similarity":1.0,"stretto":false,"stretto_voices":0,"combination":[],"aug_dim":"diminution","rhythm_ratio":0.5,"mirror":false,"chromatic_density":0.417,"complexity":0.709,"dissonance":0.148},{"voice":2,"pitch":58,"start":168.9229,"duration":0.6923,"velocity":127,"measure":46,"beat":4.0,"subject_pos":3,"motif":"subject_inv","motif_pos":3,"best_pos":3,"similarity":1.0,"stretto":false,"stretto_voices":0,"combination":[],"aug_dim":"diminution","rhythm_ratio":0.5,"mirror":false,"chromatic_density":0.417,"complexity":0.709,"dissonance":0.148},{"voice":1,"pitch":72,"start":169.1537,"duration":0.2308,"velocity":127,"measure":46,"beat":4.25,"subject_pos":-1,"motif":"","motif_pos":-1,"best_pos":6,"similarity":0.464,"stretto":false,"stretto_voices":0,"combination":[],"aug_dim":"","rhythm_ratio":1.0,"mirror":false,"chromatic_density":0.417,"complexity":0.709,"dissonance":0.148},{"voice":3,"pitch":54,"start":169.1537,"duration":0.2308,"velocity":127,"measure":46,"beat":4.25,"subject_pos":-1,"motif":"tail","motif_pos":4,"best_pos":4,"similarity":1.0,"stretto":false,"stretto_voices":0,"combination":[],"aug_dim":"","rhythm_ratio":1.0,"mirror":false,"chromatic_density":0.417,"complexity":0.709,"dissonance":0.148},{"voice":1,"pitch":70,"start":169.3844,"duration":0.2308,"velocity":127,"measure":46,"beat":4.5,"subject_pos":-1,"motif":"","motif_pos":-1,"best_pos":3,"similarity":0.471,"stretto":false,"stretto_voices":0,"combination":[],"aug_dim":"","rhythm_ratio":1.0,"mirror":false,"chromatic_density":0.417,"complexity":0.709,"dissonance":0.148},{"voice":3,"pitch":55,"start":169.3844,"duration":0.2308,"velocity":127,"measure":46,"beat":4.5,"subject_pos":-1,"motif":"tail","motif_pos":5,"best_pos":5,"similarity":1.0,"stretto":false,"stretto_voices":0,"combination":[],"aug_dim":"","rhythm_ratio":1.0,"mirror":false,"chromatic_density":0.417,"complexity":0.709,"dissonance":0.148},{"voice":1,"pitch":69,"start":169.6152,"duration":0.2308,"velocity":127,"measure":46,"beat":4.75,"subject_pos":-1,"motif":"","motif_pos":-1,"best_pos":2,"similarity":0.5,"stretto":false,"stretto_voices":0,"combination":[],"aug_dim":"","rhythm_ratio":1.0,"mirror":false,"chromatic_density":0.417,"complexity":0.709,"dissonance":0.148},{"voice":2,"pitch":60,"start":169.6152,"duration":0.2308,"velocity":127,"measure":46,"beat":4.75,"subject_pos":4,"motif":"subject_inv","motif_pos":4,"best_pos":4,"similarity":1.0,"stretto":false,"stretto_voices":0,"combination":[],"aug_dim":"diminution","rhythm_ratio":0.5,"mirror":false,"chromatic_density":0.417,"complexity":0.709,"dissonance":0.148},{"voice":3,"pitch":57,"start":169.6152,"duration":0.2308,"velocity":127,"measure":46,"beat":4.75,"subject_pos":-1,"motif":"tail","motif_pos":6,"best_pos":6,"similarity":1.0,"stretto":false,"stretto_voices":0,"combination":[],"aug_dim":"","rhythm_ratio":1.0,"mirror":false,"chromatic_density":0.417,"complexity":0.709,"dissonance":0.148},{"voice":1,"pitch":67,"start":169.846,"duration":1.1538,"velocity":127,"measure":47,"beat":1.0,"subject_pos":-1,"motif":"tail","motif_pos":3,"best_pos":3,"similarity":1.0,"stretto":false,"stretto_voices":0,"combination":[],"aug_dim":"","rhythm_ratio":1.0,"mirror":false,"chromatic_density":0.364,"complexity":0.686,"dissonance":0.12},{"voice":2,"pitch":62,"start":169.846,"duration":0.9231,"velocity":127,"measure":47,"beat":1.0,"subject_pos":5,"motif":"subject_inv","motif_pos":5,"best_pos":5,"similarity":1.0,"stretto":false,"stretto_voices":0,"combination":[],"aug_dim":"diminution","rhythm_ratio":0.5,"mirror":false,"chromatic_density":0.364,"complexity":0.686,"dissonance":0.12},{"voice":3,"pitch":58,"start":169.846,"duration":0.2308,"velocity":127,"measure":47,"beat":1.0,"subject_pos":-1,"motif":"tail","motif_pos":7,"best_pos":7,"similarity":1.0,"stretto":false,"stretto_voices":0,"combination":[],"aug_dim":"","rhythm_ratio":1.0,"mirror":false,"chromatic_density":0.364,"complexity":0.686,"dissonance":0.12},{"voice":3,"pitch":55,"start":170.0768,"duration":0.2308,"velocity":127,"measure":47,"beat":1.25,"subject_pos":-1,"motif":"","motif_pos":-1,"best_pos":3,"similarity":0.55,"stretto":false,"stretto_voices":0,"combination":[],"aug_dim":"","rhythm_ratio":1.0,"mirror":false,"chromatic_density":0.364,"complexity":0.686,"dissonance":0.12},{"voice":3,"pitch":57,"start":170.3075,"duration":0.2308,"velocity":127,"measure":47,"beat":1.5,"subject_pos":-1,"motif":"","motif_pos":-1,"best_pos":4,"similarity":0.607,"stretto":false,"stretto_voices":0,"combination":[],"aug_dim":"","rhythm_ratio":1.0,"mirror":false,"chromatic_density":0.364,"complexity":0.686,"dissonance":0.12},{"voice":3,"pitch":58,"start":170.5383,"duration":0.2308,"velocity":127,"measure":47,"beat":1.75,"subject_pos":-1,"motif":"","motif_pos":-1,"best_pos":5,"similarity":0.657,"stretto":false,"stretto_voices":0,"combination":[],"aug_dim":"","rhythm_ratio":1.0,"mirror":false,"chromatic_density":0.364,"complexity":0.686,"dissonance":0.12},{"voice":2,"pitch":63,"start":170.7691,"duration":0.9231,"velocity":127,"measure":47,"beat":2.0,"subject_pos":6,"motif":"subject_inv","motif_pos":6,"best_pos":6,"similarity":1.0,"stretto":false,"stretto_voices":0,"combination":[],"aug_dim":"diminution","rhythm_ratio":0.5,"mirror":false,"chromatic_density":0.364,"complexity":0.686,"dissonance":0.12},{"voice":3,"pitch":60,"start":170.7691,"duration":0.4615,"velocity":127,"measure":47,"beat":2.0,"subject_pos":-1,"motif":"","motif_pos":-1,"best_pos":6,"similarity":0.436,"stretto":false,"stretto_voices":0,"combination":[],"aug_dim":"","rhythm_ratio":1.0,"mirror":false,"chromatic_density":0.364,"complexity":0.686,"dissonance":0.12},{"voice":1,"pitch":66,"start":170.9998,"duration":0.2308,"velocity":127,"measure":47,"beat":2.25,"subject_pos":-1,"motif":"tail","motif_pos":4,"best_pos":4,"similarity":1.0,"stretto":false,"stretto_voices":0,"combination":[],"aug_dim":"","rhythm_ratio":1.0,"mirror":false,"chromatic_density":0.364,"complexity":0.686,"dissonance":0.12},{"voice":1,"pitch":67,"start":171.2306,"duration":0.2308,"velocity":127,"measure":47,"beat":2.5,"subject_pos":-1,"motif":"tail","motif_pos":5,"best_pos":5,"similarity":1.0,"stretto":false,"stretto_voices":0,"combination":[],"aug_dim":"","rhythm_ratio":1.0,"mirror":false,"chromatic_density":0.364,"complexity":0.686,"dissonance":0.12},{"voice":3,"pitch":48,"start":171.2306,"duration":0.4615,"velocity":127,"measure":47,"beat":2.5,"subject_pos":-1,"motif":"","motif_pos":-1,"best_pos":0,"similarity":0.286,"stretto":false,"stretto_voices":0,"combination":[],"aug_dim":"","rhythm_ratio":1.0,"mirror":false,"chromatic_density":0.364,"complexity":0.686,"dissonance":0.12},{"voice":1,"pitch":69,"start":171.4614,"duration":0.2308,"velocity":127,"measure":47,"beat":2.75,"subject_pos":-1,"motif":"tail","motif_pos":6,"best_pos":6,"similarity":1.0,"stretto":false,"stretto_voices":0,"combination":[],"aug_dim":"","rhythm_ratio":1.0,"mirror":false,"chromatic_density":0.364,"complexity":0.686,"dissonance":0.12},{"voice":1,"pitch":70,"start":171.6921,"duration":0.2308,"velocity":127,"measure":47,"beat":3.0,"subject_pos":-1,"motif":"tail","motif_pos":7,"best_pos":7,"similarity":1.0,"stretto":false,"stretto_voices":0,"combination":[],"aug_dim":"","rhythm_ratio":1.0,"mirror":false,"chromatic_density":0.364,"complexity":0.686,"dissonance":0.12},{"voice":2,"pitch":62,"start":171.6921,"duration":0.6923,"velocity":127,"measure":47,"beat":3.0,"subject_pos":7,"motif":"subject_inv","motif_pos":7,"best_pos":7,"similarity":1.0,"stretto":false,"stretto_voices":0,"combination":[],"aug_dim":"diminution","rhythm_ratio":0.5,"mirror":false,"chromatic_density":0.364,"complexity":0.686,"dissonance":0.12},{"voice":3,"pitch":55,"start":171.6921,"duration":0.9231,"velocity":127,"measure":47,"beat":3.0,"subject_pos":-1,"motif":"","motif_pos":-1,"best_pos":1,"similarity":0.321,"stretto":false,"stretto_voices":0,"combination":[],"aug_dim":"","rhythm_ratio":1.0,"mirror":false,"chromatic_density":0.364,"complexity":0.686,"dissonance":0.12},{"voice":1,"pitch":72,"start":171.9229,"duration":0.2308,"velocity":127,"measure":47,"beat":3.25,"subject_pos":-1,"motif":"","motif_pos":-1,"best_pos":6,"similarity":0.464,"stretto":false,"stretto_voices":0,"combination":[],"aug_dim":"","rhythm_ratio":1.0,"mirror":false,"chromatic_density":0.364,"complexity":0.686,"dissonance":0.12},{"voice":1,"pitch":70,"start":172.1537,"duration":0.2308,"velocity":127,"measure":47,"beat":3.5,"subject_pos":-1,"motif":"","motif_pos":-1,"best_pos":3,"similarity":0.471,"stretto":false,"stretto_voices":0,"combination":[],"aug_dim":"","rhythm_ratio":1.0,"mirror":false,"chromatic_density":0.364,"complexity":0.686,"dissonance":0.12},{"voice":1,"pitch":69,"start":172.3844,"duration":0.2308,"velocity":127,"measure":47,"beat":3.75,"subject_pos":-1,"motif":"","motif_pos":-1,"best_pos":1,"similarity":0.429,"stretto":false,"stretto_voices":0,"combination":[],"aug_dim":"","rhythm_ratio":1.0,"mirror":false,"chromatic_density":0.364,"complexity":0.686,"dissonance":0.12},{"voice":2,"pitch":60,"start":172.3844,"duration":0.2308,"velocity":127,"measure":47,"beat":3.75,"subject_pos":8,"motif":"subject_inv","motif_pos":8,"best_pos":0,"similarity":1.0,"stretto":false,"stretto_voices":0,"combination":[],"aug_dim":"diminution","rhythm_ratio":0.5,"mirror":false,"chromatic_density":0.364,"complexity":0.686,"dissonance":0.12},{"voice":1,"pitch":67,"start":172.6152,"duration":0.2308,"velocity":127,"measure":47,"beat":4.0,"subject_pos":-1,"motif":"","motif_pos":-1,"best_pos":2,"similarity":0.579,"stretto":false,"stretto_voices":0,"combination":[],"aug_dim":"","rhythm_ratio":1.0,"mirror":false,"chromatic_density":0.364,"complexity":0.686,"dissonance":0.12},{"voice":2,"pitch":58,"start":172.6152,"duration":1.1538,"velocity":127,"measure":47,"beat":4.0,"subject_pos":-1,"motif":"","motif_pos":-1,"best_pos":2,"similarity":0.657,"stretto":false,"stretto_voices":0,"combination":[],"aug_dim":"","rhythm_ratio":1.0,"mirror":false,"chromatic_density":0.364,"complexity":0.686,"dissonance":0.12},{"voice":1,"pitch":65,"start":172.846,"duration":0.2308,"velocity":127,"measure":47,"beat":4.25,"subject_pos":-1,"motif":"","motif_pos":-1,"best_pos":3,"similarity":0.657,"stretto":false,"stretto_voices":0,"combination":[],"aug_dim":"","rhythm_ratio":1.0,"mirror":false,"chromatic_density":0.364,"complexity":0.686,"dissonance":0.12},{"voice":1,"pitch":64,"start":173.0768,"duration":0.2308,"velocity":127,"measure":47,"beat":4.5,"subject_pos":-1,"motif":"","motif_pos":-1,"best_pos":4,"similarity":0.636,"stretto":false,"stretto_voices":0,"combination":[],"aug_dim":"","rhythm_ratio":1.0,"mirror":false,"chromatic_density":0.364,"complexity":0.686,"dissonance":0.12},{"voice":3,"pitch":43,"start":173.0768,"duration":0.4615,"velocity":127,"measure":47,"beat":4.5,"subject_pos":-1,"motif":"head","motif_pos":0,"best_pos":0,"similarity":1.0,"stretto":false,"stretto_voices":0,"combination":[],"aug_dim":"","rhythm_ratio":1.0,"mirror":false,"chromatic_density":0.364,"complexity":0.686,"dissonance":0.12},{"voice":1,"pitch":62,"start":173.3075,"duration":0.2308,"velocity":127,"measure":47,"beat":4.75,"subject_pos":-1,"motif":"","motif_pos":-1,"best_pos":5,"similarity":0.564,"stretto":false,"stretto_voices":0,"combination":[],"aug_dim":"","rhythm_ratio":1.0,"mirror":false,"chromatic_density":0.364,"complexity":0.686,"dissonance":0.12},{"voice":1,"pitch":64,"start":173.5383,"duration":1.1538,"velocity":127,"measure":48,"beat":1.0,"subject_pos":-1,"motif":"","motif_pos":-1,"best_pos":6,"similarity":0.514,"stretto":false,"stretto_voices":0,"combination":[],"aug_dim":"","rhythm_ratio":1.0,"mirror":false,"chromatic_density":0.3,"complexity":0.594,"dissonance":0.078},{"voice":3,"pitch":48,"start":173.5383,"duration":0.6923,"velocity":127,"measure":48,"beat":1.0,"subject_pos":-1,"motif":"head","motif_pos":1,"best_pos":1,"similarity":1.0,"stretto":false,"stretto_voices":0,"combination":[],"aug_dim":"","rhythm_ratio":1.0,"mirror":false,"chromatic_density":0.3,"complexity":0.594,"dissonance":0.078},{"voice":2,"pitch":55,"start":173.7691,"duration":0.2308,"velocity":127,"measure":48,"beat":1.25,"subject_pos":-1,"motif":"","motif_pos":-1,"best_pos":3,"similarity":0.671,"stretto":false,"stretto_voices":0,"combination":[],"aug_dim":"","rhythm_ratio":1.0,"mirror":false,"chromatic_density":0.3,"complexity":0.594,"dissonance":0.078},{"voice":2,"pitch":57,"start":173.9998,"duration":0.2308,"velocity":127,"measure":48,"beat":1.5,"subject_pos":-1,"motif":"","motif_pos":-1,"best_pos":4,"similarity":0.707,"stretto":false,"stretto_voices":0,"combination":[],"aug_dim":"","rhythm_ratio":1.0,"mirror":false,"chromatic_density":0.3,"complexity":0.594,"dissonance":0.078},{"voice":2,"pitch":58,"start":174.2306,"duration":0.2308,"velocity":127,"measure":48,"beat":1.75,"subject_pos":-1,"motif":"","motif_pos":-1,"best_pos":5,"similarity":0.729,"stretto":false,"stretto_voices":0,"combination":[],"aug_dim":"","rhythm_ratio":1.0,"mirror":false,"chromatic_density":0.3,"complexity":0.594,"dissonance":0.078},{"voice":3,"pitch":46,"start":174.2306,"duration":0.2308,"velocity":127,"measure":48,"beat":1.75,"subject_pos":-1,"motif":"head","motif_pos":2,"best_pos":2,"similarity":1.0,"stretto":false,"stretto_voices":0,"combination":[],"aug_dim":"","rhythm_ratio":1.0,"mirror":false,"chromatic_density":0.3,"complexity":0.594,"dissonance":0.078},{"voice":2,"pitch":60,"start":174.4614,"duration":1.1538,"velocity":127,"measure":48,"beat":2.0,"subject_pos":-1,"motif":"","motif_pos":-1,"best_pos":6,"similarity":0.579,"stretto":false,"stretto_voices":0,"combination":[],"aug_dim":"","rhythm_ratio":1.0,"mirror":false,"chromatic_density":0.3,"complexity":0.594,"dissonance":0.078},{"voice":3,"pitch":45,"start":174.4614,"duration":0.6923,"velocity":127,"measure":48,"beat":2.0,"subject_pos":-1,"motif":"head","motif_pos":3,"best_pos":3,"similarity":1.0,"stretto":false,"stretto_voices":0,"combination":[],"aug_dim":"","rhythm_ratio":1.0,"mirror":false,"chromatic_density":0.3,"complexity":0.594,"dissonance":0.078},{"voice":1,"pitch":64,"start":174.6921,"duration":0.2308,"velocity":127,"measure":48,"beat":2.25,"subject_pos":-1,"motif":"","motif_pos":-1,"best_pos":4,"similarity":0.679,"stretto":false,"stretto_voices":0,"combination":[],"aug_dim":"","rhythm_ratio":1.0,"mirror":false,"chromatic_density":0.3,"complexity":0.594,"dissonance":0.078},{"voice":1,"pitch":65,"start":174.9229,"duration":0.2308,"velocity":127,"measure":48,"beat":2.5,"subject_pos":-1,"motif":"","motif_pos":-1,"best_pos":5,"similarity":0.714,"stretto":false,"stretto_voices":0,"combination":[],"aug_dim":"","rhythm_ratio":1.0,"mirror":false,"chromatic_density":0.3,"complexity":0.594,"dissonance":0.078},{"voice":1,"pitch":67,"start":175.1537,"duration":0.2308,"velocity":127,"measure":48,"beat":2.75,"subject_pos":-1,"motif":"","motif_pos":-1,"best_pos":6,"similarity":0.607,"stretto":false,"stretto_voices":0,"combination":[],"aug_dim":"","rhythm_ratio":1.0,"mirror":false,"chromatic_density":0.3,"complexity":0.594,"dissonance":0.078},{"voice":3,"pitch":43,"start":175.1537,"duration":0.2308,"velocity":127,"measure":48,"beat":2.75,"subject_pos":-1,"motif":"head","motif_pos":4,"best_pos":4,"similarity":1.0,"stretto":false,"stretto_voices":0,"combination":[],"aug_dim":"","rhythm_ratio":1.0,"mirror":false,"chromatic_density":0.3,"complexity":0.594,"dissonance":0.078},{"voice":1,"pitch":69,"start":175.3844,"duration":0.4615,"velocity":127,"measure":48,"beat":3.0,"subject_pos":-1,"motif":"","motif_pos":-1,"best_pos":6,"similarity":0.375,"stretto":false,"stretto_voices":0,"combination":[],"aug_dim":"","rhythm_ratio":1.0,"mirror":false,"chromatic_density":0.3,"complexity":0.594,"dissonance":0.078},{"voice":3,"pitch":41,"start":175.3844,"duration":0.9231,"velocity":127,"measure":48,"beat":3.0,"subject_pos":-1,"motif":"","motif_pos":-1,"best_pos":3,"similarity":0.786,"stretto":false,"stretto_voices":0,"combination":[],"aug_dim":"","rhythm_ratio":1.0,"mirror":false,"chromatic_density":0.3,"complexity":0.594,"dissonance":0.078},{"voice":2,"pitch":60,"start":175.6152,"duration":0.2308,"velocity":127,"measure":48,"beat":3.25,"subject_pos":-1,"motif":"","motif_pos":-1,"best_pos":2,"similarity":0.379,"stretto":false,"stretto_voices":0,"combination":[],"aug_dim":"","rhythm_ratio":1.0,"mirror":false,"chromatic_density":0.3,"complexity":0.594,"dissonance":0.078},{"voice":1,"pitch":62,"start":175.846,"duration":0.9231,"velocity":127,"measure":48,"beat":3.5,"subject_pos":-1,"motif":"","motif_pos":-1,"best_pos":1,"similarity":0.429,"stretto":false,"stretto_voices":0,"combination":[],"aug_dim":"","rhythm_ratio":1.0,"mirror":false,"chromatic_density":0.3,"complexity":0.594,"dissonance":0.078},{"voice":2,"pitch":58,"start":175.846,"duration":0.2308,"velocity":127,"measure":48,"beat":3.5,"subject_pos":-1,"motif":"","motif_pos":-1,"best_pos":3,"similarity":0.493,"stretto":false,"stretto_voices":0,"combination":[],"aug_dim":"","rhythm_ratio":1.0,"mirror":false,"chromatic_density":0.3,"complexity":0.594,"dissonance":0.078},{"voice":2,"pitch":57,"start":176.0767,"duration":0.2308,"velocity":127,"measure":48,"beat":3.75,"subject_pos":-1,"motif":"","motif_pos":-1,"best_pos":4,"similarity":0.436,"stretto":false,"stretto_voices":0,"combination":[],"aug_dim":"","rhythm_ratio":1.0,"mirror":false,"chromatic_density":0.3,"complexity":0.594,"dissonance":0.078},{"voice":2,"pitch":55,"start":176.3075,"duration":0.2308,"velocity":127,"measure":48,"beat":4.0,"subject_pos":-1,"motif":"","motif_pos":-1,"best_pos":2,"similarity":0.579,"stretto":false,"stretto_voices":0,"combination":[],"aug_dim":"","rhythm_ratio":1.0,"mirror":false,"chromatic_density":0.3,"complexity":0.594,"dissonance":0.078},{"voice":3,"pitch":40,"start":176.3075,"duration":0.9231,"velocity":127,"measure":48,"beat":4.0,"subject_pos":-1,"motif":"","motif_pos":-1,"best_pos":4,"similarity":0.893,"stretto":false,"stretto_voices":0,"combination":[],"aug_dim":"","rhythm_ratio":1.0,"mirror":false,"chromatic_density":0.3,"complexity":0.594,"dissonance":0.078},{"voice":2,"pitch":53,"start":176.5383,"duration":0.2308,"velocity":127,"measure":48,"beat":4.25,"subject_pos":-1,"motif":"","motif_pos":-1,"best_pos":3,"similarity":0.593,"stretto":false,"stretto_voices":0,"combination":[],"aug_dim":"","rhythm_ratio":1.0,"mirror":false,"chromatic_density":0.3,"complexity":0.594,"dissonance":0.078},{"voice":1,"pitch":60,"start":176.7691,"duration":0.2308,"velocity":127,"measure":48,"beat":4.5,"subject_pos":-1,"motif":"","motif_pos":-1,"best_pos":2,"similarity":0.589,"stretto":false,"stretto_voices":0,"combination":[],"aug_dim":"","rhythm_ratio":1.0,"mirror":false,"chromatic_density":0.3,"complexity":0.594,"dissonance":0.078},{"voice":2,"pitch":52,"start":176.7691,"duration":0.2308,"velocity":127,"measure":48,"beat":4.5,"subject_pos":-1,"motif":"","motif_pos":-1,"best_pos":4,"similarity":0.471,"stretto":false,"stretto_voices":0,"combination":[],"aug_dim":"","rhythm_ratio":1.0,"mirror":false,"chromatic_density":0.3,"complexity":0.594,"dissonance":0.078},{"voice":1,"pitch":58,"start":176.9998,"duration":0.2308,"velocity":127,"measure":48,"beat":4.75,"subject_pos":-1,"motif":"","motif_pos":-1,"best_pos":3,"similarity":0.679,"stretto":false,"stretto_voices":0,"combination":[],"aug_dim":"","rhythm_ratio":1.0,"mirror":false,"chromatic_density":0.3,"complexity":0.594,"dissonance":0.078},{"voice":2,"pitch":50,"start":176.9998,"duration":0.2308,"velocity":127,"measure":48,"beat":4.75,"subject_pos":-1,"motif":"","motif_pos":-1,"best_pos":2,"similarity":0.436,"stretto":false,"stretto_voices":0,"combination":[],"aug_dim":"","rhythm_ratio":1.0,"mirror":false,"chromatic_density":0.3,"complexity":0.594,"dissonance":0.078},{"voice":1,"pitch":57,"start":177.2306,"duration":0.2308,"velocity":127,"measure":49,"beat":1.0,"subject_pos":-1,"motif":"","motif_pos":-1,"best_pos":4,"similarity":0.679,"stretto":false,"stretto_voices":0,"combination":[],"aug_dim":"","rhythm_ratio":1.0,"mirror":false,"chromatic_density":0.24,"complexity":0.634,"dissonance":0.128},{"voice":2,"pitch":48,"start":177.2306,"duration":0.9231,"velocity":127,"measure":49,"beat":1.0,"subject_pos":-1,"motif":"","motif_pos":-1,"best_pos":2,"similarity":0.364,"stretto":false,"stretto_voices":0,"combination":[],"aug_dim":"","rhythm_ratio":1.0,"mirror":false,"chromatic_density":0.24,"complexity":0.634,"dissonance":0.128},{"voice":3,"pitch":41,"start":177.2306,"duration":0.6923,"velocity":127,"measure":49,"beat":1.0,"subject_pos":-1,"motif":"","motif_pos":-1,"best_pos":5,"similarity":0.821,"stretto":false,"stretto_voices":0,"combination":[],"aug_dim":"","rhythm_ratio":1.0,"mirror":false,"chromatic_density":0.24,"complexity":0.634,"dissonance":0.128},{"voice":1,"pitch":60,"start":177.4614,"duration":0.2308,"velocity":127,"measure":49,"beat":1.25,"subject_pos":-1,"motif":"","motif_pos":-1,"best_pos":5,"similarity":0.607,"stretto":false,"stretto_voices":0,"combination":[],"aug_dim":"","rhythm_ratio":1.0,"mirror":false,"chromatic_density":0.24,"complexity":0.634,"dissonance":0.128},{"voice":1,"pitch":62,"start":177.6921,"duration":0.2308,"velocity":127,"measure":49,"beat":1.5,"subject_pos":-1,"motif":"","motif_pos":-1,"best_pos":5,"similarity":0.604,"stretto":false,"stretto_voices":0,"combination":[],"aug_dim":"","rhythm_ratio":1.0,"mirror":false,"chromatic_density":0.24,"complexity":0.634,"dissonance":0.128},{"voice":1,"pitch":64,"start":177.9229,"duration":0.2308,"velocity":127,"measure":49,"beat":1.75,"subject_pos":-1,"motif":"","motif_pos":-1,"best_pos":6,"similarity":0.65,"stretto":false,"stretto_voices":0,"combination":[],"aug_dim":"","rhythm_ratio":1.0,"mirror":false,"chromatic_density":0.24,"complexity":0.634,"dissonance":0.128},{"voice":3,"pitch":43,"start":177.9229,"duration":0.2308,"velocity":127,"measure":49,"beat":1.75,"subject_pos":-1,"motif":"","motif_pos":-1,"best_pos":6,"similarity":0.643,"stretto":false,"stretto_voices":0,"combination":[],"aug_dim":"","rhythm_ratio":1.0,"mirror":false,"chromatic_density":0.24,"complexity":0.634,"dissonance":0.128},{"voice":1,"pitch":65,"start":178.1537,"duration":0.2308,"velocity":127,"measure":49,"beat":2.0,"subject_pos":-1,"motif":"","motif_pos":-1,"best_pos":5,"similarity":0.657,"stretto":false,"stretto_voices":0,"combination":[],"aug_dim":"","rhythm_ratio":1.0,"mirror":false,"chromatic_density":0.24,"complexity":0.634,"dissonance":0.128},{"voice":3,"pitch":45,"start":178.1537,"duration":1.1538,"velocity":127,"measure":49,"beat":2.0,"subject_pos":-1,"motif":"","motif_pos":-1,"best_pos":6,"similarity":0.661,"stretto":false,"stretto_voices":0,"combination":[],"aug_dim":"","rhythm_ratio":1.0,"mirror":false,"chromatic_density":0.24,"complexity":0.634,"dissonance":0.128},{"voice":1,"pitch":67,"start":178.3844,"duration":0.2308,"velocity":127,"measure":49,"beat":2.25,"subject_pos":-1,"motif":"","motif_pos":-1,"best_pos":5,"similarity":0.607,"stretto":false,"stretto_voices":0,"combination":[],"aug_dim":"","rhythm_ratio":1.0,"mirror":false,"chromatic_density":0.24,"complexity":0.634,"dissonance":0.128},{"voice":1,"pitch":69,"start":178.6152,"duration":0.2308,"velocity":127,"measure":49,"beat":2.5,"subject_pos":-1,"motif":"","motif_pos":-1,"best_pos":6,"similarity":0.661,"stretto":false,"stretto_voices":0,"combination":[],"aug_dim":"","rhythm_ratio":1.0,"mirror":false,"chromatic_density":0.24,"complexity":0.634,"dissonance":0.128},{"voice":1,"pitch":70,"start":178.846,"duration":0.2308,"velocity":127,"measure":49,"beat":2.75,"subject_pos":-1,"motif":"","motif_pos":-1,"best_pos":5,"similarity":0.586,"stretto":false,"stretto_voices":0,"combination":[],"aug_dim":"","rhythm_ratio":1.0,"mirror":false,"chromatic_density":0.24,"complexity":0.634,"dissonance":0.128},{"voice":1,"pitch":72,"start":179.0767,"duration":0.4615,"velocity":127,"measure":49,"beat":3.0,"subject_pos":-1,"motif":"","motif_pos":-1,"best_pos":6,"similarity":0.436,"stretto":false,"stretto_voices":0,"combination":[],"aug_dim":"","rhythm_ratio":1.0,"mirror":false,"chromatic_density":0.24,"complexity":0.634,"dissonance":0.128},{"voice":2,"pitch":62,"start":179.3075,"duration":0.2308,"velocity":127,"measure":49,"beat":3.25,"subject_pos":-1,"motif":"","motif_pos":-1,"best_pos":1,"similarity":0.429,"stretto":false,"stretto_voices":0,"combination":[],"aug_dim":"","rhythm_ratio":1.0,"mirror":false,"chromatic_density":0.24,"complexity":0.634,"dissonance":0.128},{"voice":3,"pitch":46,"start":179.3075,"duration":0.2308,"velocity":127,"measure":49,"beat":3.25,"subject_pos":-1,"motif":"","motif_pos":-1,"best_pos":7,"similarity":0.464,"stretto":false,"stretto_voices":0,"combination":[],"aug_dim":"","rhythm_ratio":1.0,"mirror":false,"chromatic_density":0.24,"complexity":0.634,"dissonance":0.128},{"voice":1,"pitch":63,"start":179.5383,"duration":0.6923,"velocity":127,"measure":49,"beat":3.5,"subject_pos":-1,"motif":"","motif_pos":-1,"best_pos":0,"similarity":0.321,"stretto":false,"stretto_voices":0,"combination":[],"aug_dim":"","rhythm_ratio":1.0,"mirror":false,"chromatic_density":0.24,"complexity":0.634,"dissonance":0.128},{"voice":2,"pitch":60,"start":179.5383,"duration":0.2308,"velocity":127,"measure":49,"beat":3.5,"subject_pos":-1,"motif":"","motif_pos":-1,"best_pos":2,"similarity":0.571,"stretto":false,"stretto_voices":0,"combination":[],"aug_dim":"","rhythm_ratio":1.0,"mirror":false,"chromatic_density":0.24,"complexity":0.634,"dissonance":0.128},{"voice":3,"pitch":45,"start":179.5383,"duration":0.2308,"velocity":127,"measure":49,"beat":3.5,"subject_pos":-1,"motif":"","motif_pos":-1,"best_pos":2,"similarity":0.371,"stretto":false,"stretto_voices":0,"combination":[],"aug_dim":"","rhythm_ratio":1.0,"mirror":false,"chromatic_density":0.24,"complexity":0.634,"dissonance":0.128},{"voice":2,"pitch":58,"start":179.7691,"duration":0.2308,"velocity":127,"measure":49,"beat":3.75,"subject_pos":-1,"motif":"","motif_pos":-1,"best_pos":3,"similarity":0.643,"stretto":false,"stretto_voices":0,"combination":[],"aug_dim":"","rhythm_ratio":1.0,"mirror":false,"chromatic_density":0.24,"complexity":0.634,"dissonance":0.128},{"voice":3,"pitch":43,"start":179.7691,"duration":0.2308,"velocity":127,"measure":49,"beat":3.75,"subject_pos":-1,"motif":"","motif_pos":-1,"best_pos":2,"similarity":0.446,"stretto":false,"stretto_voices":0,"combination":[],"aug_dim":"","rhythm_ratio":1.0,"mirror":false,"chromatic_density":0.24,"complexity":0.634,"dissonance":0.128},{"voice":2,"pitch":57,"start":179.9998,"duration":1.1538,"velocity":127,"measure":49,"beat":4.0,"subject_pos":-1,"motif":"head_inv","motif_pos":0,"best_pos":0,"similarity":1.0,"stretto":false,"stretto_voices":0,"combination":[],"aug_dim":"","rhythm_ratio":1.0,"mirror":false,"chromatic_density":0.24,"complexity":0.634,"dissonance":0.128},{"voice":3,"pitch":41,"start":179.9998,"duration":0.2308,"velocity":127,"measure":49,"beat":4.0,"subject_pos":-1,"motif":"","motif_pos":-1,"best_pos":2,"similarity":0.436,"stretto":false,"stretto_voices":0,"combination":[],"aug_dim":"","rhythm_ratio":1.0,"mirror":false,"chromatic_density":0.24,"complexity":0.634,"dissonance":0.128},{"voice":1,"pitch":67,"start":180.2306,"duration":0.2308,"velocity":127,"measure":49,"beat":4.25,"subject_pos":-1,"motif":"","motif_pos":-1,"best_pos":1,"similarity":0.571,"stretto":false,"stretto_voices":0,"combination":[],"aug_dim":"","rhythm_ratio":1.0,"mirror":false,"chromatic_density":0.24,"complexity":0.634,"dissonance":0.128},{"voice":3,"pitch":51,"start":180.2306,"duration":0.2308,"velocity":127,"measure":49,"beat":4.25,"subject_pos":-1,"motif":"","motif_pos":-1,"best_pos":3,"similarity":0.45,"stretto":false,"stretto_voices":0,"combination":[],"aug_dim":"","rhythm_ratio":1.0,"mirror":false,"chromatic_density":0.24,"complexity":0.634,"dissonance":0.128},{"voice":1,"pitch":65,"start":180.4614,"duration":0.2308,"velocity":127,"measure":49,"beat":4.5,"subject_pos":-1,"motif":"","motif_pos":-1,"best_pos":2,"similarity":0.643,"stretto":false,"stretto_voices":0,"combination":[],"aug_dim":"","rhythm_ratio":1.0,"mirror":false,"chromatic_density":0.24,"complexity":0.634,"dissonance":0.128},{"voice":3,"pitch":50,"start":180.4614,"duration":0.2308,"velocity":127,"measure":49,"beat":4.5,"subject_pos":-1,"motif":"","motif_pos":-1,"best_pos":4,"similarity":0.4,"stretto":false,"stretto_voices":0,"combination":[],"aug_dim":"","rhythm_ratio":1.0,"mirror":false,"chromatic_density":0.24,"complexity":0.634,"dissonance":0.128},{"voice":1,"pitch":63,"start":180.6921,"duration":0.2308,"velocity":127,"measure":49,"beat":4.75,"subject_pos":-1,"motif":"enigmatic_cell","motif_pos":0,"best_pos":0,"similarity":1.0,"stretto":false,"stretto_voices":0,"combination":[],"aug_dim":"","rhythm_ratio":1.0,"mirror":false,"chromatic_density":0.24,"complexity":0.634,"dissonance":0.128},{"voice":3,"pitch":48,"start":180.6921,"duration":0.2308,"velocity":127,"measure":49,"beat":4.75,"subject_pos":-1,"motif":"","motif_pos":-1,"best_pos":2,"similarity":0.446,"stretto":false,"stretto_voices":0,"combination":[],"aug_dim":"","rhythm_ratio":1.0,"mirror":false,"chromatic_density":0.24,"complexity":0.634,"dissonance":0.128},{"voice":0,"pitch":74,"start":180.9229,"duration":3.6923,"velocity":127,"measure":50,"beat":1.0,"subject_pos":0,"motif":"subject","motif_pos":0,"best_pos":0,"similarity":1.0,"stretto":false,"stretto_voices":0,"combination":[],"aug_dim":"augmentation","rhythm_ratio":2.0,"mirror":false,"chromatic_density":0.263,"complexity":0.745,"dissonance":0.043},{"voice":1,"pitch":62,"start":180.9229,"duration":0.9231,"velocity":127,"measure":50,"beat":1.0,"subject_pos":-1,"motif":"enigmatic_cell","motif_pos":1,"best_pos":1,"similarity":1.0,"stretto":false,"stretto_voices":0,"combination":[],"aug_dim":"","rhythm_ratio":1.0,"mirror":false,"chromatic_density":0.263,"complexity":0.745,"dissonance":0.043},{"voice":3,"pitch":46,"start":180.9229,"duration":0.9231,"velocity":127,"measure":50,"beat":1.0,"subject_pos":-1,"motif":"","motif_pos":-1,"best_pos":2,"similarity":0.436,"stretto":false,"stretto_voices":0,"combination":[],"aug_dim":"","rhythm_ratio":1.0,"mirror":false,"chromatic_density":0.263,"complexity":0.745,"dissonance":0.043},{"voice":2,"pitch":50,"start":181.1537,"duration":0.2308,"velocity":127,"measure":50,"beat":1.25,"subject_pos":-1,"motif":"head_inv","motif_pos":1,"best_pos":1,"similarity":1.0,"stretto":false,"stretto_voices":0,"combination":[],"aug_dim":"","rhythm_ratio":1.0,"mirror":false,"chromatic_density":0.263,"complexity":0.745,"dissonance":0.043},{"voice":2,"pitch":52,"start":181.3844,"duration":0.2308,"velocity":127,"measure":50,"beat":1.5,"subject_pos":-1,"motif":"head_inv","motif_pos":2,"best_pos":2,"similarity":1.0,"stretto":false,"stretto_voices":0,"combination":[],"aug_dim":"","rhythm_ratio":1.0,"mirror":false,"chromatic_density":0.263,"complexity":0.745,"dissonance":0.043},{"voice":2,"pitch":54,"start":181.6152,"duration":0.2308,"velocity":127,"measure":50,"beat":1.75,"subject_pos":-1,"motif":"head_inv","motif_pos":3,"best_pos":3,"similarity":1.0,"stretto":false,"stretto_voices":0,"combination":[],"aug_dim":"","rhythm_ratio":1.0,"mirror":false,"chromatic_density":0.263,"complexity":0.745,"dissonance":0.043},{"voice":2,"pitch":55,"start":181.846,"duration":0.4615,"velocity":127,"measure":50,"beat":2.0,"subject_pos":-1,"motif":"head_inv","motif_pos":4,"best_pos":4,"similarity":1.0,"stretto":false,"stretto_voices":0,"combination":[],"aug_dim":"","rhythm_ratio":1.0,"mirror":false,"chromatic_density":0.263,"complexity":0.745,"dissonance":0.043},{"voice":3,"pitch":58,"start":182.0767,"duration":0.2308,"velocity":127,"measure":50,"beat":2.25,"subject_pos":-1,"motif":"","motif_pos":-1,"best_pos":3,"similarity":0.45,"stretto":false,"stretto_voices":0,"combination":[],"aug_dim":"","rhythm_ratio":1.0,"mirror":false,"chromatic_density":0.263,"complexity":0.745,"dissonance":0.043},{"voice":3,"pitch":57,"start":182.3075,"duration":0.2308,"velocity":127,"measure":50,"beat":2.5,"subject_pos":-1,"motif":"","motif_pos":-1,"best_pos":2,"similarity":0.429,"stretto":false,"stretto_voices":0,"combination":[],"aug_dim":"","rhythm_ratio":1.0,"mirror":false,"chromatic_density":0.263,"complexity":0.745,"dissonance":0.043},{"voice":3,"pitch":55,"start":182.5383,"duration":0.2308,"velocity":127,"measure":50,"beat":2.75,"subject_pos":-1,"motif":"","motif_pos":-1,"best_pos":3,"similarity":0.507,"stretto":false,"stretto_voices":0,"combination":[],"aug_dim":"","rhythm_ratio":1.0,"mirror":false,"chromatic_density":0.263,"complexity":0.745,"dissonance":0.043},{"voice":3,"pitch":54,"start":182.769,"duration":0.4615,"velocity":127,"measure":50,"beat":3.0,"subject_pos":-1,"motif":"","motif_pos":-1,"best_pos":4,"similarity":0.443,"stretto":false,"stretto_voices":0,"combination":[],"aug_dim":"","rhythm_ratio":1.0,"mirror":false,"chromatic_density":0.263,"complexity":0.745,"dissonance":0.043},{"voice":1,"pitch":69,"start":182.9998,"duration":0.2308,"velocity":127,"measure":50,"beat":3.25,"subject_pos":-1,"motif":"enigmatic_cell","motif_pos":2,"best_pos":2,"similarity":1.0,"stretto":false,"stretto_voices":0,"combination":[],"aug_dim":"","rhythm_ratio":1.0,"mirror":false,"chromatic_density":0.263,"complexity":0.745,"dissonance":0.043},{"voice":1,"pitch":70,"start":183.2306,"duration":0.2308,"velocity":127,"measure":50,"beat":3.5,"subject_pos":-1,"motif":"","motif_pos":-1,"best_pos":5,"similarity":0.604,"stretto":false,"stretto_voices":0,"combination":[],"aug_dim":"","rhythm_ratio":1.0,"mirror":false,"chromatic_density":0.263,"complexity":0.745,"dissonance":0.043},{"voice":3,"pitch":50,"start":183.2306,"duration":0.4615,"velocity":127,"measure":50,"beat":3.5,"subject_pos":-1,"motif":"","motif_pos":-1,"best_pos":2,"similarity":0.364,"stretto":false,"stretto_voices":0,"combination":[],"aug_dim":"","rhythm_ratio":1.0,"mirror":false,"chromatic_density":0.263,"complexity":0.745,"dissonance":0.043},{"voice":1,"pitch":72,"start":183.4614,"duration":0.2308,"velocity":127,"measure":50,"beat":3.75,"subject_pos":-1,"motif":"","motif_pos":-1,"best_pos":6,"similarity":0.457,"stretto":false,"stretto_voices":0,"combination":[],"aug_dim":"","rhythm_ratio":1.0,"mirror":false,"chromatic_density":0.263,"complexity":0.745,"dissonance":0.043},{"voice":1,"pitch":70,"start":183.6921,"duration":0.2308,"velocity":127,"measure":50,"beat":4.0,"subject_pos":-1,"motif":"","motif_pos":-1,"best_pos":3,"similarity":0.471,"stretto":false,"stretto_voices":0,"combination":[],"aug_dim":"","rhythm_ratio":1.0,"mirror":false,"chromatic_density":0.263,"complexity":0.745,"dissonance":0.043},{"voice":3,"pitch":55,"start":183.6921,"duration":1.1538,"velocity":127,"measure":50,"beat":4.0,"subject_pos":-1,"motif":"","motif_pos":-1,"best_pos":1,"similarity":0.5,"stretto":false,"stretto_voices":0,"combination":[],"aug_dim":"","rhythm_ratio":1.0,"mirror":false,"chromatic_density":0.263,"complexity":0.745,"dissonance":0.043},{"voice":1,"pitch":69,"start":183.9229,"duration":0.2308,"velocity":127,"measure":50,"beat":4.25,"subject_pos":-1,"motif":"","motif_pos":-1,"best_pos":1,"similarity":0.429,"stretto":false,"stretto_voices":0,"combination":[],"aug_dim":"","rhythm_ratio":1.0,"mirror":false,"chromatic_density":0.263,"complexity":0.745,"dissonance":0.043},{"voice":2,"pitch":65,"start":183.9229,"duration":0.2308,"velocity":127,"measure":50,"beat":4.25,"subject_pos":-1,"motif":"","motif_pos":-1,"best_pos":2,"similarity":0.321,"stretto":false,"stretto_voices":0,"combination":[],"aug_dim":"","rhythm_ratio":1.0,"mirror":false,"chromatic_density":0.263,"complexity":0.745,"dissonance":0.043},{"voice":1,"pitch":67,"start":184.1537,"duration":0.2308,"velocity":127,"measure":50,"beat":4.5,"subject_pos":-1,"motif":"","motif_pos":-1,"best_pos":2,"similarity":0.571,"stretto":false,"stretto_voices":0,"combination":[],"aug_dim":"","rhythm_ratio":1.0,"mirror":false,"chromatic_density":0.263,"complexity":0.745,"dissonance":0.043},{"voice":2,"pitch":62,"start":184.1537,"duration":0.2308,"velocity":127,"measure":50,"beat":4.5,"subject_pos":-1,"motif":"","motif_pos":-1,"best_pos":3,"similarity":0.336,"stretto":false,"stretto_voices":0,"combination":[],"aug_dim":"","rhythm_ratio":1.0,"mirror":false,"chromatic_density":0.263,"complexity":0.745,"dissonance":0.043},{"voice":1,"pitch":65,"start":184.3844,"duration":0.2308,"velocity":127,"measure":50,"beat":4.75,"subject_pos":-1,"motif":"","motif_pos":-1,"best_pos":3,"similarity":0.571,"stretto":false,"stretto_voices":0,"combination":[],"aug_dim":"","rhythm_ratio":1.0,"mirror":false,"chromatic_density":0.263,"complexity":0.745,"dissonance":0.043},{"voice":2,"pitch":64,"start":184.3844,"duration":0.2308,"velocity":127,"measure":50,"beat":4.75,"subject_pos":-1,"motif":"","motif_pos":-1,"best_pos":2,"similarity":0.336,"stretto":false,"stretto_voices":0,"combination":[],"aug_dim":"","rhythm_ratio":1.0,"mirror":false,"chromatic_density":0.263,"complexity":0.745,"dissonance":0.043},{"voice":0,"pitch":81,"start":184.6152,"duration":2.7692,"velocity":127,"measure":51,"beat":1.0,"subject_pos":1,"motif":"subject","motif_pos":1,"best_pos":1,"similarity":1.0,"stretto":false,"stretto_voices":0,"combination":[],"aug_dim":"augmentation","rhythm_ratio":2.0,"mirror":false,"chromatic_density":0.273,"complexity":0.876,"dissonance":0.056},{"voice":1,"pitch":64,"start":184.6152,"duration":0.4615,"velocity":127,"measure":51,"beat":1.0,"subject_pos":-1,"motif":"","motif_pos":-1,"best_pos":4,"similarity":0.464,"stretto":false,"stretto_voices":0,"combination":[],"aug_dim":"","rhythm_ratio":1.0,"mirror":false,"chromatic_density":0.273,"complexity":0.876,"dissonance":0.056},{"voice":2,"pitch":61,"start":184.6152,"duration":1.1538,"velocity":127,"measure":51,"beat":1.0,"subject_pos":-1,"motif":"","motif_pos":-1,"best_pos":3,"similarity":0.414,"stretto":false,"stretto_voices":0,"combination":[],"aug_dim":"","rhythm_ratio":1.0,"mirror":false,"chromatic_density":0.273,"complexity":0.876,"dissonance":0.056},{"voice":3,"pitch":55,"start":184.846,"duration":0.2308,"velocity":127,"measure":51,"beat":1.25,"subject_pos":-1,"motif":"","motif_pos":-1,"best_pos":2,"similarity":0.571,"stretto":false,"stretto_voices":0,"combination":[],"aug_dim":"","rhythm_ratio":1.0,"mirror":false,"chromatic_density":0.273,"complexity":0.876,"dissonance":0.056},{"voice":1,"pitch":76,"start":185.0767,"duration":0.4615,"velocity":127,"measure":51,"beat":1.5,"subject_pos":0,"motif":"subject_inv","motif_pos":0,"best_pos":0,"similarity":1.0,"stretto":false,"stretto_voices":0,"combination":[],"aug_dim":"diminution","rhythm_ratio":0.46,"mirror":false,"chromatic_density":0.273,"complexity":0.876,"dissonance":0.056},{"voice":3,"pitch":53,"start":185.0767,"duration":0.2308,"velocity":127,"measure":51,"beat":1.5,"subject_pos":-1,"motif":"","motif_pos":-1,"best_pos":3,"similarity":0.679,"stretto":false,"stretto_voices":0,"combination":[],"aug_dim":"","rhythm_ratio":1.0,"mirror":false,"chromatic_density":0.273,"complexity":0.876,"dissonance":0.056},{"voice":3,"pitch":52,"start":185.3075,"duration":0.2308,"velocity":127,"measure":51,"beat":1.75,"subject_pos":-1,"motif":"","motif_pos":-1,"best_pos":4,"similarity":0.661,"stretto":false,"stretto_voices":0,"combination":[],"aug_dim":"","rhythm_ratio":1.0,"mirror":false,"chromatic_density":0.273,"complexity":0.876,"dissonance":0.056},{"voice":1,"pitch":69,"start":185.5383,"duration":0.6923,"velocity":127,"measure":51,"beat":2.0,"subject_pos":1,"motif":"subject_inv","motif_pos":1,"best_pos":1,"similarity":1.0,"stretto":false,"stretto_voices":0,"combination":[],"aug_dim":"diminution","rhythm_ratio":0.46,"mirror":false,"chromatic_density":0.273,"complexity":0.876,"dissonance":0.056},{"voice":3,"pitch":53,"start":185.5383,"duration":0.6923,"velocity":127,"measure":51,"beat":2.0,"subject_pos":-1,"motif":"","motif_pos":-1,"best_pos":5,"similarity":0.464,"stretto":false,"stretto_voices":0,"combination":[],"aug_dim":"","rhythm_ratio":1.0,"mirror":false,"chromatic_density":0.273,"complexity":0.876,"dissonance":0.056},{"voice":2,"pitch":57,"start":185.769,"duration":0.2308,"velocity":127,"measure":51,"beat":2.25,"subject_pos":-1,"motif":"","motif_pos":-1,"best_pos":4,"similarity":0.421,"stretto":false,"stretto_voices":0,"combination":[],"aug_dim":"","rhythm_ratio":1.0,"mirror":false,"chromatic_density":0.273,"complexity":0.876,"dissonance":0.056},{"voice":2,"pitch":62,"start":185.9998,"duration":0.4615,"velocity":127,"measure":51,"beat":2.5,"subject_pos":-1,"motif":"","motif_pos":-1,"best_pos":5,"similarity":0.543,"stretto":false,"stretto_voices":0,"combination":[],"aug_dim":"","rhythm_ratio":1.0,"mirror":false,"chromatic_density":0.273,"complexity":0.876,"dissonance":0.056},{"voice":1,"pitch":71,"start":186.2306,"duration":0.2308,"velocity":127,"measure":51,"beat":2.75,"subject_pos":2,"motif":"subject_inv","motif_pos":2,"best_pos":2,"similarity":1.0,"stretto":false,"stretto_voices":0,"combination":[],"aug_dim":"diminution","rhythm_ratio":0.46,"mirror":false,"chromatic_density":0.273,"complexity":0.876,"dissonance":0.056},{"voice":3,"pitch":50,"start":186.2306,"duration":0.2308,"velocity":127,"measure":51,"beat":2.75,"subject_pos":-1,"motif":"","motif_pos":-1,"best_pos":3,"similarity":0.371,"stretto":false,"stretto_voices":0,"combination":[],"aug_dim":"","rhythm_ratio":1.0,"mirror":false,"chromatic_density":0.273,"complexity":0.876,"dissonance":0.056},{"voice":1,"pitch":73,"start":186.4614,"duration":0.6923,"velocity":127,"measure":51,"beat":3.0,"subject_pos":3,"motif":"subject_inv","motif_pos":3,"best_pos":3,"similarity":1.0,"stretto":true,"stretto_voices":3,"combination":[],"aug_dim":"diminution","rhythm_ratio":0.46,"mirror":false,"chromatic_density":0.273,"complexity":0.876,"dissonance":0.056},{"voice":2,"pitch":64,"start":186.4614,"duration":0.2308,"velocity":127,"measure":51,"beat":3.0,"subject_pos":-1,"motif":"tail_inv","motif_pos":0,"best_pos":0,"similarity":1.0,"stretto":false,"stretto_voices":0,"combination":[],"aug_dim":"","rhythm_ratio":1.0,"mirror":false,"chromatic_density":0.273,"complexity":0.876,"dissonance":0.056},{"voice":3,"pitch":57,"start":186.4614,"duration":0.9231,"velocity":127,"measure":51,"beat":3.0,"subject_pos":0,"motif":"subject_inv","motif_pos":0,"best_pos":0,"similarity":1.0,"stretto":true,"stretto_voices":3,"combination":[],"aug_dim":"","rhythm_ratio":1.0,"mirror":false,"chromatic_density":0.273,"complexity":0.876,"dissonance":0.056},{"voice":2,"pitch":65,"start":186.6921,"duration":0.2308,"velocity":127,"measure":51,"beat":3.25,"subject_pos":-1,"motif":"tail_inv","motif_pos":1,"best_pos":1,"similarity":1.0,"stretto":false,"stretto_voices":0,"combination":[],"aug_dim":"","rhythm_ratio":1.0,"mirror":false,"chromatic_density":0.273,"complexity":0.876,"dissonance":0.056},{"voice":2,"pitch":64,"start":186.9229,"duration":0.2308,"velocity":127,"measure":51,"beat":3.5,"subject_pos":-1,"motif":"tail_inv","motif_pos":2,"best_pos":2,"similarity":1.0,"stretto":false,"stretto_voices":0,"combination":[],"aug_dim":"","rhythm_ratio":1.0,"mirror":false,"chromatic_density":0.273,"complexity":0.876,"dissonance":0.056},{"voice":1,"pitch":74,"start":187.1537,"duration":0.2308,"velocity":127,"measure":51,"beat":3.75,"subject_pos":4,"motif":"subject_inv","motif_pos":4,"best_pos":4,"similarity":1.0,"stretto":true,"stretto_voices":3,"combination":[],"aug_dim":"diminution","rhythm_ratio":0.46,"mirror":false,"chromatic_density":0.273,"complexity":0.876,"dissonance":0.056},{"voice":2,"pitch":62,"start":187.1537,"duration":0.2308,"velocity":127,"measure":51,"beat":3.75,"subject_pos":-1,"motif":"tail_inv","motif_pos":3,"best_pos":3,"similarity":1.0,"stretto":false,"stretto_voices":0,"combination":[],"aug_dim":"","rhythm_ratio":1.0,"mirror":false,"chromatic_density":0.273,"complexity":0.876,"dissonance":0.056},{"voice":0,"pitch":79,"start":187.3844,"duration":0.9231,"velocity":127,"measure":51,"beat":4.0,"subject_pos":2,"motif":"subject","motif_pos":2,"best_pos":2,"similarity":1.0,"stretto":true,"stretto_voices":3,"combination":[],"aug_dim":"augmentation","rhythm_ratio":2.0,"mirror":false,"chromatic_density":0.273,"complexity":0.876,"dissonance":0.056},{"voice":1,"pitch":76,"start":187.3844,"duration":0.9231,"velocity":127,"measure":51,"beat":4.0,"subject_pos":5,"motif":"subject_inv","motif_pos":5,"best_pos":5,"similarity":1.0,"stretto":true,"stretto_voices":3,"combination":[],"aug_dim":"diminution","rhythm_ratio":0.46,"mirror":false,"chromatic_density":0.273,"complexity":0.876,"dissonance":0.056},{"voice":2,"pitch":61,"start":187.3844,"duration":0.4615,"velocity":127,"measure":51,"beat":4.0,"subject_pos":-1,"motif":"tail_inv","motif_pos":4,"best_pos":4,"similarity":1.0,"stretto":false,"stretto_voices":0,"combination":[],"aug_dim":"","rhythm_ratio":1.0,"mirror":false,"chromatic_density":0.273,"complexity":0.876,"dissonance":0.056},{"voice":3,"pitch":45,"start":187.6152,"duration":0.2308,"velocity":127,"measure":51,"beat":4.25,"subject_pos":-1,"motif":"subject_inv","motif_pos":0,"best_pos":0,"similarity":1.0,"stretto":true,"stretto_voices":3,"combination":[],"aug_dim":"","rhythm_ratio":1.0,"mirror":false,"chromatic_density":0.273,"complexity":0.876,"dissonance":0.056},{"voice":3,"pitch":47,"start":187.846,"duration":0.2308,"velocity":127,"measure":51,"beat":4.5,"subject_pos":-1,"motif":"subject_inv","motif_pos":0,"best_pos":0,"similarity":1.0,"stretto":true,"stretto_voices":3,"combination":[],"aug_dim":"","rhythm_ratio":1.0,"mirror":false,"chromatic_density":0.273,"complexity":0.876,"dissonance":0.056},{"voice":3,"pitch":49,"start":188.0767,"duration":0.2308,"velocity":127,"measure":51,"beat":4.75,"subject_pos":-1,"motif":"subject_inv","motif_pos":0,"best_pos":0,"similarity":1.0,"stretto":true,"stretto_voices":3,"combination":[],"aug_dim":"diminution","rhythm_ratio":0.4,"mirror":false,"chromatic_density":0.273,"complexity":0.876,"dissonance":0.056},{"voice":0,"pitch":77,"start":188.3075,"duration":2.7692,"velocity":127,"measure":52,"beat":1.0,"subject_pos":3,"motif":"subject","motif_pos":3,"best_pos":3,"similarity":1.0,"stretto":true,"stretto_voices":3,"combination":[],"aug_dim":"augmentation","rhythm_ratio":2.0,"mirror":false,"chromatic_density":0.333,"complexity":0.752,"dissonance":0.183},{"voice":1,"pitch":77,"start":188.3075,"duration":0.9231,"velocity":127,"measure":52,"beat":1.0,"subject_pos":6,"motif":"subject_inv","motif_pos":6,"best_pos":6,"similarity":1.0,"stretto":true,"stretto_voices":3,"combination":[],"aug_dim":"diminution","rhythm_ratio":0.46,"mirror":false,"chromatic_density":0.333,"complexity":0.752,"dissonance":0.183},{"voice":3,"pitch":50,"start":188.3075,"duration":0.9231,"velocity":127,"measure":52,"beat":1.0,"subject_pos":1,"motif":"subject_inv","motif_pos":1,"best_pos":1,"similarity":1.0,"stretto":true,"stretto_voices":3,"combination":[],"aug_dim":"diminution","rhythm_ratio":0.4,"mirror":false,"chromatic_density":0.333,"complexity":0.752,"dissonance":0.183},{"voice":2,"pitch":57,"start":188.5383,"duration":0.2308,"velocity":127,"measure":52,"beat":1.25,"subject_pos":-1,"motif":"","motif_pos":-1,"best_pos":5,"similarity":0.536,"stretto":false,"stretto_voices":0,"combination":[],"aug_dim":"","rhythm_ratio":1.0,"mirror":false,"chromatic_density":0.333,"complexity":0.752,"dissonance":0.183},{"voice":2,"pitch":59,"start":188.769,"duration":0.2308,"velocity":127,"measure":52,"beat":1.5,"subject_pos":-1,"motif":"","motif_pos":-1,"best_pos":5,"similarity":0.604,"stretto":false,"stretto_voices":0,"combination":[],"aug_dim":"","rhythm_ratio":1.0,"mirror":false,"chromatic_density":0.333,"complexity":0.752,"dissonance":0.183},{"voice":2,"pitch":61,"start":188.9998,"duration":0.2308,"velocity":127,"measure":52,"beat":1.75,"subject_pos":-1,"motif":"","motif_pos":-1,"best_pos":6,"similarity":0.65,"stretto":false,"stretto_voices":0,"combination":[],"aug_dim":"","rhythm_ratio":1.0,"mirror":false,"chromatic_density":0.333,"complexity":0.752,"dissonance":0.183},{"voice":1,"pitch":76,"start":189.2306,"duration":0.6923,"velocity":127,"measure":52,"beat":2.0,"subject_pos":7,"motif":"subject_inv","motif_pos":7,"best_pos":7,"similarity":1.0,"stretto":true,"stretto_voices":3,"combination":[],"aug_dim":"diminution","rhythm_ratio":0.46,"mirror":false,"chromatic_density":0.333,"complexity":0.752,"dissonance":0.183},{"voice":2,"pitch":62,"start":189.2306,"duration":0.4615,"velocity":127,"measure":52,"beat":2.0,"subject_pos":-1,"motif":"","motif_pos":-1,"best_pos":7,"similarity":0.464,"stretto":false,"stretto_voices":0,"combination":[],"aug_dim":"","rhythm_ratio":1.0,"mirror":false,"chromatic_density":0.333,"complexity":0.752,"dissonance":0.183},{"voice":3,"pitch":52,"start":189.4613,"duration":0.2308,"velocity":127,"measure":52,"beat":2.25,"subject_pos":2,"motif":"subject_inv","motif_pos":2,"best_pos":2,"similarity":1.0,"stretto":true,"stretto_voices":3,"combination":[],"aug_dim":"diminution","rhythm_ratio":0.4,"mirror":false,"chromatic_density":0.333,"complexity":0.752,"dissonance":0.183},{"voice":3,"pitch":53,"start":189.6921,"duration":0.2308,"velocity":127,"measure":52,"beat":2.5,"subject_pos":3,"motif":"subject_inv","motif_pos":3,"best_pos":3,"similarity":1.0,"stretto":true,"stretto_voices":3,"combination":[],"aug_dim":"diminution","rhythm_ratio":0.4,"mirror":false,"chromatic_density":0.333,"complexity":0.752,"dissonance":0.183},{"voice":1,"pitch":74,"start":189.9229,"duration":0.2308,"velocity":127,"measure":52,"beat":2.75,"subject_pos":8,"motif":"subject_inv","motif_pos":8,"best_pos":0,"similarity":1.0,"stretto":true,"stretto_voices":3,"combination":[],"aug_dim":"diminution","rhythm_ratio":0.46,"mirror":false,"chromatic_density":0.333,"complexity":0.752,"dissonance":0.183},{"voice":3,"pitch":55,"start":189.9229,"duration":0.2308,"velocity":127,"measure":52,"beat":2.75,"subject_pos":4,"motif":"subject_inv","motif_pos":4,"best_pos":4,"similarity":1.0,"stretto":true,"stretto_voices":3,"combination":[],"aug_dim":"diminution","rhythm_ratio":0.4,"mirror":false,"chromatic_density":0.333,"complexity":0.752,"dissonance":0.183},{"voice":1,"pitch":73,"start":190.1537,"duration":1.1538,"velocity":127,"measure":52,"beat":3.0,"subject_pos":-1,"motif":"","motif_pos":-1,"best_pos":4,"similarity":0.571,"stretto":false,"stretto_voices":0,"combination":[],"aug_dim":"","rhythm_ratio":1.0,"mirror":false,"chromatic_density":0.333,"complexity":0.752,"dissonance":0.183},{"voice":3,"pitch":57,"start":190.1537,"duration":1.8462,"velocity":127,"measure":52,"beat":3.0,"subject_pos":5,"motif":"subject_inv","motif_pos":5,"best_pos":5,"similarity":1.0,"stretto":false,"stretto_voices":0,"combination":[],"aug_dim":"diminution","rhythm_ratio":0.4,"mirror":false,"chromatic_density":0.333,"complexity":0.752,"dissonance":0.183},{"voice":2,"pitch":59,"start":190.3844,"duration":0.2308,"velocity":127,"measure":52,"beat":3.25,"subject_pos":-1,"motif":"","motif_pos":-1,"best_pos":3,"similarity":0.55,"stretto":false,"stretto_voices":0,"combination":[],"aug_dim":"","rhythm_ratio":1.0,"mirror":false,"chromatic_density":0.333,"complexity":0.752,"dissonance":0.183},{"voice":2,"pitch":61,"start":190.6152,"duration":0.2308,"velocity":127,"measure":52,"beat":3.5,"subject_pos":-1,"motif":"","motif_pos":-1,"best_pos":4,"similarity":0.679,"stretto":false,"stretto_voices":0,"combination":[],"aug_dim":"","rhythm_ratio":1.0,"mirror":false,"chromatic_density":0.333,"complexity":0.752,"dissonance":0.183},{"voice":2,"pitch":62,"start":190.846,"duration":0.2308,"velocity":127,"measure":52,"beat":3.75,"subject_pos":-1,"motif":"","motif_pos":-1,"best_pos":5,"similarity":0.8,"stretto":false,"stretto_voices":0,"combination":[],"aug_dim":"","rhythm_ratio":1.0,"mirror":false,"chromatic_density":0.333,"complexity":0.752,"dissonance":0.183},{"voice":0,"pitch":76,"start":191.0767,"duration":0.9231,"velocity":127,"measure":52,"beat":4.0,"subject_pos":4,"motif":"subject","motif_pos":4,"best_pos":4,"similarity":1.0,"stretto":false,"stretto_voices":0,"combination":[],"aug_dim":"augmentation","rhythm_ratio":2.0,"mirror":false,"chromatic_density":0.333,"complexity":0.752,"dissonance":0.183},{"voice":2,"pitch":64,"start":191.0767,"duration":0.2308,"velocity":127,"measure":52,"beat":4.0,"subject_pos":-1,"motif":"","motif_pos":-1,"best_pos":6,"similarity":0.721,"stretto":false,"stretto_voices":0,"combination":[],"aug_dim":"","rhythm_ratio":1.0,"mirror":false,"chromatic_density":0.333,"complexity":0.752,"dissonance":0.183},{"voice":1,"pitch":69,"start":191.3075,"duration":0.2308,"velocity":127,"measure":52,"beat":4.25,"subject_pos":-1,"motif":"","motif_pos":-1,"best_pos":5,"similarity":0.536,"stretto":false,"stretto_voices":0,"combination":[],"aug_dim":"","rhythm_ratio":1.0,"mirror":false,"chromatic_density":0.333,"complexity":0.752,"dissonance":0.183},{"voice":2,"pitch":65,"start":191.3075,"duration":0.2308,"velocity":127,"measure":52,"beat":4.25,"subject_pos":-1,"motif":"","motif_pos":-1,"best_pos":5,"similarity":0.664,"stretto":false,"stretto_voices":0,"combination":[],"aug_dim":"","rhythm_ratio":1.0,"mirror":false,"chromatic_density":0.333,"complexity":0.752,"dissonance":0.183},{"voice":1,"pitch":71,"start":191.5383,"duration":0.2308,"velocity":127,"measure":52,"beat":4.5,"subject_pos":-1,"motif":"","motif_pos":-1,"best_pos":5,"similarity":0.604,"stretto":false,"stretto_voices":0,"combination":[],"aug_dim":"","rhythm_ratio":1.0,"mirror":false,"chromatic_density":0.333,"complexity":0.752,"dissonance":0.183},{"voice":2,"pitch":67,"start":191.5383,"duration":0.2308,"velocity":127,"measure":52,"beat":4.5,"subject_pos":-1,"motif":"","motif_pos":-1,"best_pos":6,"similarity":0.579,"stretto":false,"stretto_voices":0,"combination":[],"aug_dim":"","rhythm_ratio":1.0,"mirror":false,"chromatic_density":0.333,"complexity":0.752,"dissonance":0.183},{"voice":1,"pitch":73,"start":191.769,"duration":0.2308,"velocity":127,"measure":52,"beat":4.75,"subject_pos":-1,"motif":"enigmatic_cell","motif_pos":0,"best_pos":0,"similarity":1.0,"stretto":false,"stretto_voices":0,"combination":[],"aug_dim":"","rhythm_ratio":1.0,"mirror":false,"chromatic_density":0.333,"complexity":0.752,"dissonance":0.183},{"voice":2,"pitch":69,"start":191.769,"duration":0.2308,"velocity":127,"measure":52,"beat":4.75,"subject_pos":-1,"motif":"","motif_pos":-1,"best_pos":6,"similarity":0.375,"stretto":false,"stretto_voices":0,"combination":[],"aug_dim":"","rhythm_ratio":1.0,"mirror":false,"chromatic_density":0.333,"complexity":0.752,"dissonance":0.183},{"voice":0,"pitch":74,"start":191.9998,"duration":3.6923,"velocity":127,"measure":53,"beat":1.0,"subject_pos":5,"motif":"subject","motif_pos":5,"best_pos":5,"similarity":1.0,"stretto":false,"stretto_voices":0,"combination":[],"aug_dim":"augmentation","rhythm_ratio":2.0,"mirror":false,"chromatic_density":0.263,"complexity":0.716,"dissonance":0.113},{"voice":1,"pitch":74,"start":191.9998,"duration":0.9231,"velocity":127,"measure":53,"beat":1.0,"subject_pos":-1,"motif":"enigmatic_cell","motif_pos":1,"best_pos":1,"similarity":1.0,"stretto":false,"stretto_voices":0,"combination":[],"aug_dim":"","rhythm_ratio":1.0,"mirror":false,"chromatic_density":0.263,"complexity":0.716,"dissonance":0.113},{"voice":2,"pitch":65,"start":191.9998,"duration":0.9231,"velocity":127,"measure":53,"beat":1.0,"subject_pos":-1,"motif":"","motif_pos":-1,"best_pos":2,"similarity":0.35,"stretto":false,"stretto_voices":0,"combination":[],"aug_dim":"","rhythm_ratio":1.0,"mirror":false,"chromatic_density":0.263,"complexity":0.716,"dissonance":0.113},{"voice":3,"pitch":58,"start":192.2306,"duration":0.2308,"velocity":127,"measure":53,"beat":1.25,"subject_pos":6,"motif":"subject_inv","motif_pos":6,"best_pos":6,"similarity":1.0,"stretto":false,"stretto_voices":0,"combination":[],"aug_dim":"diminution","rhythm_ratio":0.4,"mirror":false,"chromatic_density":0.263,"complexity":0.716,"dissonance":0.113},{"voice":3,"pitch":57,"start":192.4613,"duration":0.2308,"velocity":127,"measure":53,"beat":1.5,"subject_pos":7,"motif":"subject_inv","motif_pos":7,"best_pos":7,"similarity":1.0,"stretto":false,"stretto_voices":0,"combination":[],"aug_dim":"diminution","rhythm_ratio":0.4,"mirror":false,"chromatic_density":0.263,"complexity":0.716,"dissonance":0.113},{"voice":3,"pitch":55,"start":192.6921,"duration":0.2308,"velocity":127,"measure":53,"beat":1.75,"subject_pos":8,"motif":"subject_inv","motif_pos":8,"best_pos":0,"similarity":1.0,"stretto":false,"stretto_voices":0,"combination":[],"aug_dim":"diminution","rhythm_ratio":0.4,"mirror":false,"chromatic_density":0.263,"complexity":0.716,"dissonance":0.113},{"voice":1,"pitch":69,"start":192.9229,"duration":1.3846,"velocity":127,"measure":53,"beat":2.0,"subject_pos":-1,"motif":"enigmatic_cell","motif_pos":2,"best_pos":2,"similarity":1.0,"stretto":false,"stretto_voices":0,"combination":[],"aug_dim":"","rhythm_ratio":1.0,"mirror":false,"chromatic_density":0.263,"complexity":0.716,"dissonance":0.113},{"voice":3,"pitch":53,"start":192.9229,"duration":0.2308,"velocity":127,"measure":53,"beat":2.0,"subject_pos":-1,"motif":"","motif_pos":-1,"best_pos":3,"similarity":0.621,"stretto":false,"stretto_voices":0,"combination":[],"aug_dim":"","rhythm_ratio":1.0,"mirror":false,"chromatic_density":0.263,"complexity":0.716,"dissonance":0.113},{"voice":3,"pitch":52,"start":193.1537,"duration":0.2308,"velocity":127,"measure":53,"beat":2.25,"subject_pos":-1,"motif":"","motif_pos":-1,"best_pos":4,"similarity":0.529,"stretto":false,"stretto_voices":0,"combination":[],"aug_dim":"","rhythm_ratio":1.0,"mirror":false,"chromatic_density":0.263,"complexity":0.716,"dissonance":0.113},{"voice":3,"pitch":50,"start":193.3844,"duration":0.2308,"velocity":127,"measure":53,"beat":2.5,"subject_pos":-1,"motif":"","motif_pos":-1,"best_pos":5,"similarity":0.35,"stretto":false,"stretto_voices":0,"combination":[],"aug_dim":"","rhythm_ratio":1.0,"mirror":false,"chromatic_density":0.263,"complexity":0.716,"dissonance":0.113},{"voice":3,"pitch":53,"start":193.6152,"duration":0.2308,"velocity":127,"measure":53,"beat":2.75,"subject_pos":-1,"motif":"","motif_pos":-1,"best_pos":6,"similarity":0.229,"stretto":false,"stretto_voices":0,"combination":[],"aug_dim":"","rhythm_ratio":1.0,"mirror":false,"chromatic_density":0.263,"complexity":0.716,"dissonance":0.113},{"voice":3,"pitch":46,"start":193.846,"duration":1.8462,"velocity":127,"measure":53,"beat":3.0,"subject_pos":-1,"motif":"","motif_pos":-1,"best_pos":3,"similarity":0.321,"stretto":false,"stretto_voices":0,"combination":[],"aug_dim":"","rhythm_ratio":1.0,"mirror":false,"chromatic_density":0.263,"complexity":0.716,"dissonance":0.113},{"voice":2,"pitch":50,"start":194.0767,"duration":0.2308,"velocity":127,"measure":53,"beat":3.25,"subject_pos":-1,"motif":"","motif_pos":-1,"best_pos":4,"similarity":0.436,"stretto":false,"stretto_voices":0,"combination":[],"aug_dim":"","rhythm_ratio":1.0,"mirror":false,"chromatic_density":0.263,"complexity":0.716,"dissonance":0.113},{"voice":1,"pitch":67,"start":194.3075,"duration":0.2308,"velocity":127,"measure":53,"beat":3.5,"subject_pos":-1,"motif":"","motif_pos":-1,"best_pos":5,"similarity":0.479,"stretto":false,"stretto_voices":0,"combination":[],"aug_dim":"","rhythm_ratio":1.0,"mirror":false,"chromatic_density":0.263,"complexity":0.716,"dissonance":0.113},{"voice":2,"pitch":52,"start":194.3075,"duration":0.2308,"velocity":127,"measure":53,"beat":3.5,"subject_pos":-1,"motif":"","motif_pos":-1,"best_pos":5,"similarity":0.607,"stretto":false,"stretto_voices":0,"combination":[],"aug_dim":"","rhythm_ratio":1.0,"mirror":false,"chromatic_density":0.263,"complexity":0.716,"dissonance":0.113},{"voice":1,"pitch":69,"start":194.5383,"duration":0.2308,"velocity":127,"measure":53,"beat":3.75,"subject_pos":-1,"motif":"","motif_pos":-1,"best_pos":6,"similarity":0.593,"stretto":false,"stretto_voices":0,"combination":[],"aug_dim":"","rhythm_ratio":1.0,"mirror":false,"chromatic_density":0.263,"complexity":0.716,"dissonance":0.113},{"voice":2,"pitch":54,"start":194.5383,"duration":0.2308,"velocity":127,"measure":53,"beat":3.75,"subject_pos":-1,"motif":"","motif_pos":-1,"best_pos":6,"similarity":0.643,"stretto":false,"stretto_voices":0,"combination":[],"aug_dim":"","rhythm_ratio":1.0,"mirror":false,"chromatic_density":0.263,"complexity":0.716,"dissonance":0.113},{"voice":1,"pitch":70,"start":194.769,"duration":0.4615,"velocity":127,"measure":53,"beat":4.0,"subject_pos":-1,"motif":"","motif_pos":-1,"best_pos":7,"similarity":0.436,"stretto":false,"stretto_voices":0,"combination":[],"aug_dim":"","rhythm_ratio":1.0,"mirror":false,"chromatic_density":0.263,"complexity":0.716,"dissonance":0.113},{"voice":2,"pitch":55,"start":194.769,"duration":0.2308,"velocity":127,"measure":53,"beat":4.0,"subject_pos":-1,"motif":"","motif_pos":-1,"best_pos":5,"similarity":0.729,"stretto":false,"stretto_voices":0,"combination":[],"aug_dim":"","rhythm_ratio":1.0,"mirror":false,"chromatic_density":0.263,"complexity":0.716,"dissonance":0.113},{"voice":2,"pitch":57,"start":194.9998,"duration":0.2308,"velocity":127,"measure":53,"beat":4.25,"subject_pos":-1,"motif":"","motif_pos":-1,"best_pos":6,"similarity":0.721,"stretto":false,"stretto_voices":0,"combination":[],"aug_dim":"","rhythm_ratio":1.0,"mirror":false,"chromatic_density":0.263,"complexity":0.716,"dissonance":0.113},{"voice":1,"pitch":67,"start":195.2306,"duration":0.6923,"velocity":127,"measure":53,"beat":4.5,"subject_pos":-1,"motif":"","motif_pos":-1,"best_pos":5,"similarity":0.364,"stretto":false,"stretto_voices":0,"combination":[],"aug_dim":"","rhythm_ratio":1.0,"mirror":false,"chromatic_density":0.263,"complexity":0.716,"dissonance":0.113},{"voice":2,"pitch":58,"start":195.2306,"duration":0.2308,"velocity":127,"measure":53,"beat":4.5,"subject_pos":-1,"motif":"","motif_pos":-1,"best_pos":7,"similarity":0.5,"stretto":false,"stretto_voices":0,"combination":[],"aug_dim":"","rhythm_ratio":1.0,"mirror":false,"chromatic_density":0.263,"complexity":0.716,"dissonance":0.113},{"voice":2,"pitch":55,"start":195.4613,"duration":0.2308,"velocity":127,"measure":53,"beat":4.75,"subject_pos":-1,"motif":"","motif_pos":-1,"best_pos":5,"similarity":0.35,"stretto":false,"stretto_voices":0,"combination":[],"aug_dim":"","rhythm_ratio":1.0,"mirror":false,"chromatic_density":0.263,"complexity":0.716,"dissonance":0.113},{"voice":0,"pitch":73,"start":195.6921,"duration":3.6923,"velocity":127,"measure":54,"beat":1.0,"subject_pos":6,"motif":"subject","motif_pos":6,"best_pos":6,"similarity":1.0,"stretto":false,"stretto_voices":0,"combination":[],"aug_dim":"augmentation","rhythm_ratio":2.0,"mirror":false,"chromatic_density":0.217,"complexity":0.657,"dissonance":0.158},{"voice":2,"pitch":57,"start":195.6921,"duration":0.4615,"velocity":127,"measure":54,"beat":1.0,"subject_pos":-1,"motif":"","motif_pos":-1,"best_pos":6,"similarity":0.318,"stretto":false,"stretto_voices":0,"combination":[],"aug_dim":"","rhythm_ratio":1.0,"mirror":false,"chromatic_density":0.217,"complexity":0.657,"dissonance":0.158},{"voice":3,"pitch":45,"start":195.6921,"duration":0.9231,"velocity":127,"measure":54,"beat":1.0,"subject_pos":-1,"motif":"","motif_pos":-1,"best_pos":4,"similarity":0.321,"stretto":false,"stretto_voices":0,"combination":[],"aug_dim":"","rhythm_ratio":1.0,"mirror":false,"chromatic_density":0.217,"complexity":0.657,"dissonance":0.158},{"voice":1,"pitch":69,"start":195.9229,"duration":0.2308,"velocity":127,"measure":54,"beat":1.25,"subject_pos":-1,"motif":"","motif_pos":-1,"best_pos":1,"similarity":0.457,"stretto":false,"stretto_voices":0,"combination":[],"aug_dim":"","rhythm_ratio":1.0,"mirror":false,"chromatic_density":0.217,"complexity":0.657,"dissonance":0.158},{"voice":1,"pitch":67,"start":196.1536,"duration":0.2308,"velocity":127,"measure":54,"beat":1.5,"subject_pos":-1,"motif":"","motif_pos":-1,"best_pos":2,"similarity":0.593,"stretto":false,"stretto_voices":0,"combination":[],"aug_dim":"","rhythm_ratio":1.0,"mirror":false,"chromatic_density":0.217,"complexity":0.657,"dissonance":0.158},{"voice":2,"pitch":52,"start":196.1536,"duration":0.4615,"velocity":127,"measure":54,"beat":1.5,"subject_pos":-1,"motif":"","motif_pos":-1,"best_pos":2,"similarity":0.229,"stretto":false,"stretto_voices":0,"combination":[],"aug_dim":"","rhythm_ratio":1.0,"mirror":false,"chromatic_density":0.217,"complexity":0.657,"dissonance":0.158},{"voice":1,"pitch":65,"start":196.3844,"duration":0.2308,"velocity":127,"measure":54,"beat":1.75,"subject_pos":-1,"motif":"","motif_pos":-1,"best_pos":3,"similarity":0.664,"stretto":false,"stretto_voices":0,"combination":[],"aug_dim":"","rhythm_ratio":1.0,"mirror":false,"chromatic_density":0.217,"complexity":0.657,"dissonance":0.158},{"voice":1,"pitch":64,"start":196.6152,"duration":0.2308,"velocity":127,"measure":54,"beat":2.0,"subject_pos":-1,"motif":"","motif_pos":-1,"best_pos":4,"similarity":0.671,"stretto":false,"stretto_voices":0,"combination":[],"aug_dim":"","rhythm_ratio":1.0,"mirror":false,"chromatic_density":0.217,"complexity":0.657,"dissonance":0.158},{"voice":1,"pitch":62,"start":196.846,"duration":0.2308,"velocity":127,"measure":54,"beat":2.25,"subject_pos":-1,"motif":"","motif_pos":-1,"best_pos":5,"similarity":0.636,"stretto":false,"stretto_voices":0,"combination":[],"aug_dim":"","rhythm_ratio":1.0,"mirror":false,"chromatic_density":0.217,"complexity":0.657,"dissonance":0.158},{"voice":3,"pitch":57,"start":196.846,"duration":0.2308,"velocity":127,"measure":54,"beat":2.25,"subject_pos":-1,"motif":"","motif_pos":-1,"best_pos":1,"similarity":0.429,"stretto":false,"stretto_voices":0,"combination":[],"aug_dim":"","rhythm_ratio":1.0,"mirror":false,"chromatic_density":0.217,"complexity":0.657,"dissonance":0.158},{"voice":1,"pitch":64,"start":197.0767,"duration":0.2308,"velocity":127,"measure":54,"beat":2.5,"subject_pos":-1,"motif":"","motif_pos":-1,"best_pos":6,"similarity":0.657,"stretto":false,"stretto_voices":0,"combination":[],"aug_dim":"","rhythm_ratio":1.0,"mirror":false,"chromatic_density":0.217,"complexity":0.657,"dissonance":0.158},{"voice":3,"pitch":55,"start":197.0767,"duration":0.2308,"velocity":127,"measure":54,"beat":2.5,"subject_pos":-1,"motif":"","motif_pos":-1,"best_pos":2,"similarity":0.579,"stretto":false,"stretto_voices":0,"combination":[],"aug_dim":"","rhythm_ratio":1.0,"mirror":false,"chromatic_density":0.217,"complexity":0.657,"dissonance":0.158},{"voice":1,"pitch":65,"start":197.3075,"duration":0.2308,"velocity":127,"measure":54,"beat":2.75,"subject_pos":-1,"motif":"","motif_pos":-1,"best_pos":5,"similarity":0.657,"stretto":false,"stretto_voices":0,"combination":[],"aug_dim":"","rhythm_ratio":1.0,"mirror":false,"chromatic_density":0.217,"complexity":0.657,"dissonance":0.158},{"voice":3,"pitch":53,"start":197.3075,"duration":0.2308,"velocity":127,"measure":54,"beat":2.75,"subject_pos":-1,"motif":"","motif_pos":-1,"best_pos":3,"similarity":0.657,"stretto":false,"stretto_voices":0,"combination":[],"aug_dim":"","rhythm_ratio":1.0,"mirror":false,"chromatic_density":0.217,"complexity":0.657,"dissonance":0.158},{"voice":1,"pitch":67,"start":197.5383,"duration":0.4615,"velocity":127,"measure":54,"beat":3.0,"subject_pos":-1,"motif":"","motif_pos":-1,"best_pos":6,"similarity":0.507,"stretto":false,"stretto_voices":0,"combination":[],"aug_dim":"","rhythm_ratio":1.0,"mirror":false,"chromatic_density":0.217,"complexity":0.657,"dissonance":0.158},{"voice":2,"pitch":58,"start":197.5383,"duration":0.4615,"velocity":127,"measure":54,"beat":3.0,"subject_pos":-1,"motif":"","motif_pos":-1,"best_pos":2,"similarity":0.307,"stretto":false,"stretto_voices":0,"combination":[],"aug_dim":"","rhythm_ratio":1.0,"mirror":false,"chromatic_density":0.217,"complexity":0.657,"dissonance":0.158},{"voice":3,"pitch":52,"start":197.5383,"duration":0.2308,"velocity":127,"measure":54,"beat":3.0,"subject_pos":-1,"motif":"","motif_pos":-1,"best_pos":4,"similarity":0.671,"stretto":false,"stretto_voices":0,"combination":[],"aug_dim":"","rhythm_ratio":1.0,"mirror":false,"chromatic_density":0.217,"complexity":0.657,"dissonance":0.158},{"voice":3,"pitch":50,"start":197.769,"duration":0.2308,"velocity":127,"measure":54,"beat":3.25,"subject_pos":-1,"motif":"","motif_pos":-1,"best_pos":5,"similarity":0.636,"stretto":false,"stretto_voices":0,"combination":[],"aug_dim":"","rhythm_ratio":1.0,"mirror":false,"chromatic_density":0.217,"complexity":0.657,"dissonance":0.158},{"voice":1,"pitch":70,"start":197.9998,"duration":0.4615,"velocity":127,"measure":54,"beat":3.5,"subject_pos":-1,"motif":"","motif_pos":-1,"best_pos":7,"similarity":0.286,"stretto":false,"stretto_voices":0,"combination":[],"aug_dim":"","rhythm_ratio":1.0,"mirror":false,"chromatic_density":0.217,"complexity":0.657,"dissonance":0.158},{"voice":2,"pitch":55,"start":197.9998,"duration":0.4615,"velocity":127,"measure":54,"beat":3.5,"subject_pos":-1,"motif":"","motif_pos":-1,"best_pos":5,"similarity":0.346,"stretto":false,"stretto_voices":0,"combination":[],"aug_dim":"","rhythm_ratio":1.0,"mirror":false,"chromatic_density":0.217,"complexity":0.657,"dissonance":0.158},{"voice":3,"pitch":52,"start":197.9998,"duration":0.2308,"velocity":127,"measure":54,"beat":3.5,"subject_pos":-1,"motif":"","motif_pos":-1,"best_pos":6,"similarity":0.657,"stretto":false,"stretto_voices":0,"combination":[],"aug_dim":"","rhythm_ratio":1.0,"mirror":false,"chromatic_density":0.217,"complexity":0.657,"dissonance":0.158},{"voice":3,"pitch":53,"start":198.2306,"duration":0.2308,"velocity":127,"measure":54,"beat":3.75,"subject_pos":-1,"motif":"","motif_pos":-1,"best_pos":5,"similarity":0.657,"stretto":false,"stretto_voices":0,"combination":[],"aug_dim":"","rhythm_ratio":1.0,"mirror":false,"chromatic_density":0.217,"complexity":0.657,"dissonance":0.158},{"voice":1,"pitch":64,"start":198.4613,"duration":0.9231,"velocity":127,"measure":54,"beat":4.0,"subject_pos":-1,"motif":"","motif_pos":-1,"best_pos":0,"similarity":0.464,"stretto":false,"stretto_voices":0,"combination":[],"aug_dim":"","rhythm_ratio":1.0,"mirror":false,"chromatic_density":0.217,"complexity":0.657,"dissonance":0.158},{"voice":3,"pitch":55,"start":198.4613,"duration":0.2308,"velocity":127,"measure":54,"beat":4.0,"subject_pos":-1,"motif":"","motif_pos":-1,"best_pos":6,"similarity":0.507,"stretto":false,"stretto_voices":0,"combination":[],"aug_dim":"","rhythm_ratio":1.0,"mirror":false,"chromatic_density":0.217,"complexity":0.657,"dissonance":0.158},{"voice":3,"pitch":58,"start":198.6921,"duration":0.2308,"velocity":127,"measure":54,"beat":4.25,"subject_pos":-1,"motif":"","motif_pos":-1,"best_pos":3,"similarity":0.329,"stretto":false,"stretto_voices":0,"combination":[],"aug_dim":"","rhythm_ratio":1.0,"mirror":false,"chromatic_density":0.217,"complexity":0.657,"dissonance":0.158},{"voice":3,"pitch":57,"start":198.9229,"duration":0.2308,"velocity":127,"measure":54,"beat":4.5,"subject_pos":-1,"motif":"","motif_pos":-1,"best_pos":2,"similarity":0.429,"stretto":false,"stretto_voices":0,"combination":[],"aug_dim":"","rhythm_ratio":1.0,"mirror":false,"chromatic_density":0.217,"complexity":0.657,"dissonance":0.158},{"voice":3,"pitch":55,"start":199.1536,"duration":0.2308,"velocity":127,"measure":54,"beat":4.75,"subject_pos":-1,"motif":"","motif_pos":-1,"best_pos":3,"similarity":0.454,"stretto":false,"stretto_voices":0,"combination":[],"aug_dim":"","rhythm_ratio":1.0,"mirror":false,"chromatic_density":0.217,"complexity":0.657,"dissonance":0.158},{"voice":0,"pitch":74,"start":199.3844,"duration":2.7692,"velocity":127,"measure":55,"beat":1.0,"subject_pos":7,"motif":"subject","motif_pos":7,"best_pos":7,"similarity":1.0,"stretto":false,"stretto_voices":0,"combination":[],"aug_dim":"augmentation","rhythm_ratio":2.0,"mirror":false,"chromatic_density":0.25,"complexity":0.673,"dissonance":0.153},{"voice":1,"pitch":69,"start":199.3844,"duration":0.6923,"velocity":127,"measure":55,"beat":1.0,"subject_pos":-1,"motif":"","motif_pos":-1,"best_pos":1,"similarity":0.714,"stretto":false,"stretto_voices":0,"combination":[],"aug_dim":"","rhythm_ratio":1.0,"mirror":false,"chromatic_density":0.25,"complexity":0.673,"dissonance":0.153},{"voice":2,"pitch":57,"start":199.3844,"duration":0.9231,"velocity":127,"measure":55,"beat":1.0,"subject_pos":-1,"motif":"","motif_pos":-1,"best_pos":0,"similarity":0.464,"stretto":false,"stretto_voices":0,"combination":[],"aug_dim":"","rhythm_ratio":1.0,"mirror":false,"chromatic_density":0.25,"complexity":0.673,"dissonance":0.153},{"voice":3,"pitch":53,"start":199.3844,"duration":0.2308,"velocity":127,"measure":55,"beat":1.0,"subject_pos":-1,"motif":"","motif_pos":-1,"best_pos":4,"similarity":0.425,"stretto":false,"stretto_voices":0,"combination":[],"aug_dim":"","rhythm_ratio":1.0,"mirror":false,"chromatic_density":0.25,"complexity":0.673,"dissonance":0.153},{"voice":3,"pitch":55,"start":199.6152,"duration":0.2308,"velocity":127,"measure":55,"beat":1.25,"subject_pos":-1,"motif":"","motif_pos":-1,"best_pos":1,"similarity":0.386,"stretto":false,"stretto_voices":0,"combination":[],"aug_dim":"","rhythm_ratio":1.0,"mirror":false,"chromatic_density":0.25,"complexity":0.673,"dissonance":0.153},{"voice":3,"pitch":53,"start":199.846,"duration":0.2308,"velocity":127,"measure":55,"beat":1.5,"subject_pos":-1,"motif":"","motif_pos":-1,"best_pos":3,"similarity":0.529,"stretto":false,"stretto_voices":0,"combination":[],"aug_dim":"","rhythm_ratio":1.0,"mirror":false,"chromatic_density":0.25,"complexity":0.673,"dissonance":0.153},{"voice":1,"pitch":67,"start":200.0767,"duration":0.2308,"velocity":127,"measure":55,"beat":1.75,"subject_pos":-1,"motif":"","motif_pos":-1,"best_pos":2,"similarity":0.721,"stretto":false,"stretto_voices":0,"combination":[],"aug_dim":"","rhythm_ratio":1.0,"mirror":false,"chromatic_density":0.25,"complexity":0.673,"dissonance":0.153},{"voice":3,"pitch":52,"start":200.0767,"duration":0.2308,"velocity":127,"measure":55,"beat":1.75,"subject_pos":-1,"motif":"","motif_pos":-1,"best_pos":4,"similarity":0.607,"stretto":false,"stretto_voices":0,"combination":[],"aug_dim":"","rhythm_ratio":1.0,"mirror":false,"chromatic_density":0.25,"complexity":0.673,"dissonance":0.153},{"voice":1,"pitch":65,"start":200.3075,"duration":0.6923,"velocity":127,"measure":55,"beat":2.0,"subject_pos":-1,"motif":"","motif_pos":-1,"best_pos":3,"similarity":0.664,"stretto":false,"stretto_voices":0,"combination":[],"aug_dim":"","rhythm_ratio":1.0,"mirror":false,"chromatic_density":0.25,"complexity":0.673,"dissonance":0.153},{"voice":2,"pitch":62,"start":200.3075,"duration":0.6923,"velocity":127,"measure":55,"beat":2.0,"subject_pos":-1,"motif":"","motif_pos":-1,"best_pos":1,"similarity":0.714,"stretto":false,"stretto_voices":0,"combination":[],"aug_dim":"","rhythm_ratio":1.0,"mirror":false,"chromatic_density":0.25,"complexity":0.673,"dissonance":0.153},{"voice":3,"pitch":50,"start":200.3075,"duration":0.2308,"velocity":127,"measure":55,"beat":2.0,"subject_pos":-1,"motif":"","motif_pos":-1,"best_pos":5,"similarity":0.636,"stretto":false,"stretto_voices":0,"combination":[],"aug_dim":"","rhythm_ratio":1.0,"mirror":false,"chromatic_density":0.25,"complexity":0.673,"dissonance":0.153},{"voice":3,"pitch":52,"start":200.5383,"duration":0.2308,"velocity":127,"measure":55,"beat":2.25,"subject_pos":-1,"motif":"","motif_pos":-1,"best_pos":6,"similarity":0.657,"stretto":false,"stretto_voices":0,"combination":[],"aug_dim":"","rhythm_ratio":1.0,"mirror":false,"chromatic_density":0.25,"complexity":0.673,"dissonance":0.153},{"voice":3,"pitch":53,"start":200.769,"duration":0.6923,"velocity":127,"measure":55,"beat":2.5,"subject_pos":-1,"motif":"","motif_pos":-1,"best_pos":7,"similarity":0.436,"stretto":false,"stretto_voices":0,"combination":[],"aug_dim":"","rhythm_ratio":1.0,"mirror":false,"chromatic_density":0.25,"complexity":0.673,"dissonance":0.153},{"voice":1,"pitch":64,"start":200.9998,"duration":0.2308,"velocity":127,"measure":55,"beat":2.75,"subject_pos":-1,"motif":"","motif_pos":-1,"best_pos":4,"similarity":0.543,"stretto":false,"stretto_voices":0,"combination":[],"aug_dim":"","rhythm_ratio":1.0,"mirror":false,"chromatic_density":0.25,"complexity":0.673,"dissonance":0.153},{"voice":2,"pitch":60,"start":200.9998,"duration":0.2308,"velocity":127,"measure":55,"beat":2.75,"subject_pos":-1,"motif":"","motif_pos":-1,"best_pos":2,"similarity":0.721,"stretto":false,"stretto_voices":0,"combination":[],"aug_dim":"","rhythm_ratio":1.0,"mirror":false,"chromatic_density":0.25,"complexity":0.673,"dissonance":0.153},{"voice":1,"pitch":62,"start":201.2306,"duration":0.9231,"velocity":127,"measure":55,"beat":3.0,"subject_pos":-1,"motif":"tail","motif_pos":3,"best_pos":3,"similarity":1.0,"stretto":false,"stretto_voices":0,"combination":[],"aug_dim":"","rhythm_ratio":1.0,"mirror":false,"chromatic_density":0.25,"complexity":0.673,"dissonance":0.153},{"voice":2,"pitch":58,"start":201.2306,"duration":0.6923,"velocity":127,"measure":55,"beat":3.0,"subject_pos":-1,"motif":"","motif_pos":-1,"best_pos":3,"similarity":0.664,"stretto":false,"stretto_voices":0,"combination":[],"aug_dim":"","rhythm_ratio":1.0,"mirror":false,"chromatic_density":0.25,"complexity":0.673,"dissonance":0.153},{"voice":3,"pitch":57,"start":201.4613,"duration":0.2308,"velocity":127,"measure":55,"beat":3.25,"subject_pos":-1,"motif":"","motif_pos":-1,"best_pos":1,"similarity":0.571,"stretto":false,"stretto_voices":0,"combination":[],"aug_dim":"","rhythm_ratio":1.0,"mirror":false,"chromatic_density":0.25,"complexity":0.673,"dissonance":0.153},{"voice":3,"pitch":55,"start":201.6921,"duration":0.2308,"velocity":127,"measure":55,"beat":3.5,"subject_pos":-1,"motif":"","motif_pos":-1,"best_pos":2,"similarity":0.65,"stretto":false,"stretto_voices":0,"combination":[],"aug_dim":"","rhythm_ratio":1.0,"mirror":false,"chromatic_density":0.25,"complexity":0.673,"dissonance":0.153},{"voice":2,"pitch":57,"start":201.9229,"duration":0.2308,"velocity":127,"measure":55,"beat":3.75,"subject_pos":-1,"motif":"","motif_pos":-1,"best_pos":4,"similarity":0.507,"stretto":false,"stretto_voices":0,"combination":[],"aug_dim":"","rhythm_ratio":1.0,"mirror":false,"chromatic_density":0.25,"complexity":0.673,"dissonance":0.153},{"voice":3,"pitch":53,"start":201.9229,"duration":0.2308,"velocity":127,"measure":55,"beat":3.75,"subject_pos":-1,"motif":"enigmatic_cell","motif_pos":0,"best_pos":0,"similarity":1.0,"stretto":false,"stretto_voices":0,"combination":[],"aug_dim":"","rhythm_ratio":1.0,"mirror":false,"chromatic_density":0.25,"complexity":0.673,"dissonance":0.153},{"voice":0,"pitch":76,"start":202.1536,"duration":0.9231,"velocity":127,"measure":55,"beat":4.0,"subject_pos":8,"motif":"subject","motif_pos":8,"best_pos":0,"similarity":1.0,"stretto":false,"stretto_voices":0,"combination":[],"aug_dim":"augmentation","rhythm_ratio":2.0,"mirror":false,"chromatic_density":0.25,"complexity":0.673,"dissonance":0.153},{"voice":1,"pitch":61,"start":202.1536,"duration":0.9231,"velocity":127,"measure":55,"beat":4.0,"subject_pos":-1,"motif":"tail","motif_pos":4,"best_pos":4,"similarity":1.0,"stretto":false,"stretto_voices":0,"combination":[],"aug_dim":"","rhythm_ratio":1.0,"mirror":false,"chromatic_density":0.25,"complexity":0.673,"dissonance":0.153},{"voice":2,"pitch":55,"start":202.1536,"duration":0.9231,"velocity":127,"measure":55,"beat":4.0,"subject_pos":-1,"motif":"","motif_pos":-1,"best_pos":2,"similarity":0.536,"stretto":false,"stretto_voices":0,"combination":[],"aug_dim":"","rhythm_ratio":1.0,"mirror":false,"chromatic_density":0.25,"complexity":0.673,"dissonance":0.153},{"voice":3,"pitch":52,"start":202.1536,"duration":0.2308,"velocity":127,"measure":55,"beat":4.0,"subject_pos":-1,"motif":"enigmatic_cell","motif_pos":1,"best_pos":1,"similarity":1.0,"stretto":false,"stretto_voices":0,"combination":[],"aug_dim":"","rhythm_ratio":1.0,"mirror":false,"chromatic_density":0.25,"complexity":0.673,"dissonance":0.153},{"voice":3,"pitch":57,"start":202.3844,"duration":0.2308,"velocity":127,"measure":55,"beat":4.25,"subject_pos":-1,"motif":"enigmatic_cell","motif_pos":2,"best_pos":2,"similarity":1.0,"stretto":false,"stretto_voices":0,"combination":[],"aug_dim":"","rhythm_ratio":1.0,"mirror":false,"chromatic_density":0.25,"complexity":0.673,"dissonance":0.153},{"voice":3,"pitch":55,"start":202.6152,"duration":0.2308,"velocity":127,"measure":55,"beat":4.5,"subject_pos":-1,"motif":"","motif_pos":-1,"best_pos":2,"similarity":0.429,"stretto":false,"stretto_voices":0,"combination":[],"aug_dim":"","rhythm_ratio":1.0,"mirror":false,"chromatic_density":0.25,"complexity":0.673,"dissonance":0.153},{"voice":3,"pitch":57,"start":202.846,"duration":0.2308,"velocity":127,"measure":55,"beat":4.75,"subject_pos":-1,"motif":"","motif_pos":-1,"best_pos":6,"similarity":0.3,"stretto":false,"stretto_voices":0,"combination":[],"aug_dim":"","rhythm_ratio":1.0,"mirror":false,"chromatic_density":0.25,"complexity":0.673,"dissonance":0.153},{"voice":0,"pitch":77,"start":203.0767,"duration":4.6154,"velocity":127,"measure":56,"beat":1.0,"subject_pos":-1,"motif":"","motif_pos":-1,"best_pos":1,"similarity":0.464,"stretto":false,"stretto_voices":0,"combination":[],"aug_dim":"","rhythm_ratio":1.0,"mirror":false,"chromatic_density":0.318,"complexity":0.692,"dissonance":0.118},{"voice":1,"pitch":62,"start":203.0767,"duration":0.6923,"velocity":127,"measure":56,"beat":1.0,"subject_pos":-1,"motif":"tail","motif_pos":5,"best_pos":5,"similarity":1.0,"stretto":false,"stretto_voices":0,"combination":[],"aug_dim":"","rhythm_ratio":1.0,"mirror":false,"chromatic_density":0.318,"complexity":0.692,"dissonance":0.118},{"voice":2,"pitch":53,"start":203.0767,"duration":1.1538,"velocity":127,"measure":56,"beat":1.0,"subject_pos":-1,"motif":"","motif_pos":-1,"best_pos":3,"similarity":0.571,"stretto":false,"stretto_voices":0,"combination":[],"aug_dim":"","rhythm_ratio":1.0,"mirror":false,"chromatic_density":0.318,"complexity":0.692,"dissonance":0.118},{"voice":3,"pitch":50,"start":203.0767,"duration":0.9231,"velocity":127,"measure":56,"beat":1.0,"subject_pos":-1,"motif":"head","motif_pos":0,"best_pos":0,"similarity":1.0,"stretto":false,"stretto_voices":0,"combination":[],"aug_dim":"","rhythm_ratio":1.0,"mirror":false,"chromatic_density":0.318,"complexity":0.692,"dissonance":0.118},{"voice":0,"pitch":74,"start":203.3075,"duration":0.2308,"velocity":127,"measure":56,"beat":1.25,"subject_pos":-1,"motif":"","motif_pos":-1,"best_pos":2,"similarity":0.532,"stretto":false,"stretto_voices":0,"combination":[],"aug_dim":"","rhythm_ratio":1.0,"mirror":false,"chromatic_density":0.318,"complexity":0.692,"dissonance":0.118},{"voice":0,"pitch":72,"start":203.5383,"duration":0.2308,"velocity":127,"measure":56,"beat":1.5,"subject_pos":-1,"motif":"","motif_pos":-1,"best_pos":2,"similarity":0.643,"stretto":false,"stretto_voices":0,"combination":[],"aug_dim":"","rhythm_ratio":1.0,"mirror":false,"chromatic_density":0.318,"complexity":0.692,"dissonance":0.118},{"voice":0,"pitch":70,"start":203.769,"duration":0.2308,"velocity":127,"measure":56,"beat":1.75,"subject_pos":-1,"motif":"","motif_pos":-1,"best_pos":3,"similarity":0.721,"stretto":false,"stretto_voices":0,"combination":[],"aug_dim":"","rhythm_ratio":1.0,"mirror":false,"chromatic_density":0.318,"complexity":0.692,"dissonance":0.118},{"voice":1,"pitch":64,"start":203.769,"duration":0.2308,"velocity":127,"measure":56,"beat":1.75,"subject_pos":-1,"motif":"tail","motif_pos":6,"best_pos":6,"similarity":1.0,"stretto":false,"stretto_voices":0,"combination":[],"aug_dim":"","rhythm_ratio":1.0,"mirror":false,"chromatic_density":0.318,"complexity":0.692,"dissonance":0.118},{"voice":0,"pitch":69,"start":203.9998,"duration":1.1538,"velocity":127,"measure":56,"beat":2.0,"subject_pos":-1,"motif":"","motif_pos":-1,"best_pos":4,"similarity":0.736,"stretto":false,"stretto_voices":0,"combination":[],"aug_dim":"","rhythm_ratio":1.0,"mirror":false,"chromatic_density":0.318,"complexity":0.692,"dissonance":0.118},{"voice":1,"pitch":65,"start":203.9998,"duration":1.1538,"velocity":127,"measure":56,"beat":2.0,"subject_pos":-1,"motif":"tail","motif_pos":7,"best_pos":7,"similarity":1.0,"stretto":false,"stretto_voices":0,"combination":[],"aug_dim":"","rhythm_ratio":1.0,"mirror":false,"chromatic_density":0.318,"complexity":0.692,"dissonance":0.118},{"voice":2,"pitch":53,"start":204.2306,"duration":0.2308,"velocity":127,"measure":56,"beat":2.25,"subject_pos":-1,"motif":"","motif_pos":-1,"best_pos":4,"similarity":0.643,"stretto":false,"stretto_voices":0,"combination":[],"aug_dim":"","rhythm_ratio":1.0,"mirror":false,"chromatic_density":0.318,"complexity":0.692,"dissonance":0.118},{"voice":2,"pitch":55,"start":204.4613,"duration":0.2308,"velocity":127,"measure":56,"beat":2.5,"subject_pos":-1,"motif":"","motif_pos":-1,"best_pos":5,"similarity":0.679,"stretto":false,"stretto_voices":0,"combination":[],"aug_dim":"","rhythm_ratio":1.0,"mirror":false,"chromatic_density":0.318,"complexity":0.692,"dissonance":0.118},{"voice":2,"pitch":57,"start":204.6921,"duration":0.2308,"velocity":127,"measure":56,"beat":2.75,"subject_pos":-1,"motif":"","motif_pos":-1,"best_pos":6,"similarity":0.679,"stretto":false,"stretto_voices":0,"combination":[],"aug_dim":"","rhythm_ratio":1.0,"mirror":false,"chromatic_density":0.318,"complexity":0.692,"dissonance":0.118},{"voice":2,"pitch":58,"start":204.9229,"duration":1.1538,"velocity":127,"measure":56,"beat":3.0,"subject_pos":-1,"motif":"","motif_pos":-1,"best_pos":5,"similarity":0.6,"stretto":false,"stretto_voices":0,"combination":[],"aug_dim":"","rhythm_ratio":1.0,"mirror":false,"chromatic_density":0.318,"complexity":0.692,"dissonance":0.118},{"voice":0,"pitch":70,"start":205.1536,"duration":0.2308,"velocity":127,"measure":56,"beat":3.25,"subject_pos":-1,"motif":"","motif_pos":-1,"best_pos":5,"similarity":0.507,"stretto":false,"stretto_voices":0,"combination":[],"aug_dim":"","rhythm_ratio":1.0,"mirror":false,"chromatic_density":0.318,"complexity":0.692,"dissonance":0.118},{"voice":1,"pitch":67,"start":205.1536,"duration":0.2308,"velocity":127,"measure":56,"beat":3.25,"subject_pos":-1,"motif":"","motif_pos":-1,"best_pos":6,"similarity":0.464,"stretto":false,"stretto_voices":0,"combination":[],"aug_dim":"","rhythm_ratio":1.0,"mirror":false,"chromatic_density":0.318,"complexity":0.692,"dissonance":0.118},{"voice":0,"pitch":69,"start":205.3844,"duration":0.2308,"velocity":127,"measure":56,"beat":3.5,"subject_pos":-1,"motif":"","motif_pos":-1,"best_pos":4,"similarity":0.414,"stretto":false,"stretto_voices":0,"combination":[],"aug_dim":"","rhythm_ratio":1.0,"mirror":false,"chromatic_density":0.318,"complexity":0.692,"dissonance":0.118},{"voice":1,"pitch":65,"start":205.3844,"duration":0.2308,"velocity":127,"measure":56,"beat":3.5,"subject_pos":-1,"motif":"","motif_pos":-1,"best_pos":3,"similarity":0.464,"stretto":false,"stretto_voices":0,"combination":[],"aug_dim":"","rhythm_ratio":1.0,"mirror":false,"chromatic_density":0.318,"complexity":0.692,"dissonance":0.118},{"voice":0,"pitch":67,"start":205.6152,"duration":0.2308,"velocity":127,"measure":56,"beat":3.75,"subject_pos":-1,"motif":"","motif_pos":-1,"best_pos":3,"similarity":0.507,"stretto":false,"stretto_voices":0,"combination":[],"aug_dim":"","rhythm_ratio":1.0,"mirror":false,"chromatic_density":0.318,"complexity":0.692,"dissonance":0.118},{"voice":1,"pitch":64,"start":205.6152,"duration":0.2308,"velocity":127,"measure":56,"beat":3.75,"subject_pos":-1,"motif":"","motif_pos":-1,"best_pos":4,"similarity":0.411,"stretto":false,"stretto_voices":0,"combination":[],"aug_dim":"","rhythm_ratio":1.0,"mirror":false,"chromatic_density":0.318,"complexity":0.692,"dissonance":0.118},{"voice":0,"pitch":65,"start":205.8459,"duration":0.4615,"velocity":127,"measure":56,"beat":4.0,"subject_pos":-1,"motif":"","motif_pos":-1,"best_pos":4,"similarity":0.607,"stretto":false,"stretto_voices":0,"combination":[],"aug_dim":"","rhythm_ratio":1.0,"mirror":false,"chromatic_density":0.318,"complexity":0.692,"dissonance":0.118},{"voice":1,"pitch":62,"start":205.8459,"duration":1.3846,"velocity":127,"measure":56,"beat":4.0,"subject_pos":-1,"motif":"","motif_pos":-1,"best_pos":2,"similarity":0.436,"stretto":false,"stretto_voices":0,"combination":[],"aug_dim":"","rhythm_ratio":1.0,"mirror":false,"chromatic_density":0.318,"complexity":0.692,"dissonance":0.118},{"voice":2,"pitch":60,"start":206.0767,"duration":0.2308,"velocity":127,"measure":56,"beat":4.25,"subject_pos":-1,"motif":"","motif_pos":-1,"best_pos":6,"similarity":0.464,"stretto":false,"stretto_voices":0,"combination":[],"aug_dim":"","rhythm_ratio":1.0,"mirror":false,"chromatic_density":0.318,"complexity":0.692,"dissonance":0.118},{"voice":0,"pitch":67,"start":206.3075,"duration":0.2308,"velocity":127,"measure":56,"beat":4.5,"subject_pos":-1,"motif":"","motif_pos":-1,"best_pos":5,"similarity":0.679,"stretto":false,"stretto_voices":0,"combination":[],"aug_dim":"","rhythm_ratio":1.0,"mirror":false,"chromatic_density":0.318,"complexity":0.692,"dissonance":0.118},{"voice":2,"pitch":58,"start":206.3075,"duration":0.2308,"velocity":127,"measure":56,"beat":4.5,"subject_pos":-1,"motif":"","motif_pos":-1,"best_pos":3,"similarity":0.464,"stretto":false,"stretto_voices":0,"combination":[],"aug_dim":"","rhythm_ratio":1.0,"mirror":false,"chromatic_density":0.318,"complexity":0.692,"dissonance":0.118},{"voice":0,"pitch":69,"start":206.5383,"duration":0.2308,"velocity":127,"measure":56,"beat":4.75,"subject_pos":-1,"motif":"","motif_pos":-1,"best_pos":6,"similarity":0.679,"stretto":false,"stretto_voices":0,"combination":[],"aug_dim":"","rhythm_ratio":1.0,"mirror":false,"chromatic_density":0.318,"complexity":0.692,"dissonance":0.118},{"voice":2,"pitch":57,"start":206.5383,"duration":0.2308,"velocity":127,"measure":56,"beat":4.75,"subject_pos":-1,"motif":"","motif_pos":-1,"best_pos":3,"similarity":0.436,"stretto":false,"stretto_voices":0,"combination":[],"aug_dim":"","rhythm_ratio":1.0,"mirror":false,"chromatic_density":0.318,"complexity":0.692,"dissonance":0.118},{"voice":0,"pitch":70,"start":206.769,"duration":0.4615,"velocity":127,"measure":57,"beat":1.0,"subject_pos":-1,"motif":"","motif_pos":-1,"best_pos":7,"similarity":0.464,"stretto":false,"stretto_voices":0,"combination":[],"aug_dim":"","rhythm_ratio":1.0,"mirror":false,"chromatic_density":0.25,"complexity":0.755,"dissonance":0.131},{"voice":2,"pitch":55,"start":206.769,"duration":0.4615,"velocity":127,"measure":57,"beat":1.0,"subject_pos":-1,"motif":"","motif_pos":-1,"best_pos":4,"similarity":0.464,"stretto":false,"stretto_voices":0,"combination":[],"aug_dim":"","rhythm_ratio":1.0,"mirror":false,"chromatic_density":0.25,"complexity":0.755,"dissonance":0.131},{"voice":3,"pitch":57,"start":206.9998,"duration":0.2308,"velocity":127,"measure":57,"beat":1.25,"subject_pos":-1,"motif":"head","motif_pos":1,"best_pos":1,"similarity":1.0,"stretto":false,"stretto_voices":0,"combination":[],"aug_dim":"","rhythm_ratio":1.0,"mirror":false,"chromatic_density":0.25,"complexity":0.755,"dissonance":0.131},{"voice":0,"pitch":74,"start":207.2306,"duration":0.4615,"velocity":127,"measure":57,"beat":1.5,"subject_pos":-1,"motif":"enigmatic_cell","motif_pos":0,"best_pos":0,"similarity":1.0,"stretto":false,"stretto_voices":0,"combination":[],"aug_dim":"","rhythm_ratio":1.0,"mirror":false,"chromatic_density":0.25,"complexity":0.755,"dissonance":0.131},{"voice":1,"pitch":70,"start":207.2306,"duration":0.9231,"velocity":127,"measure":57,"beat":1.5,"subject_pos":-1,"motif":"","motif_pos":-1,"best_pos":3,"similarity":0.514,"stretto":false,"stretto_voices":0,"combination":[],"aug_dim":"","rhythm_ratio":1.0,"mirror":false,"chromatic_density":0.25,"complexity":0.755,"dissonance":0.131},{"voice":3,"pitch":55,"start":207.2306,"duration":0.2308,"velocity":127,"measure":57,"beat":1.5,"subject_pos":-1,"motif":"head","motif_pos":2,"best_pos":2,"similarity":1.0,"stretto":false,"stretto_voices":0,"combination":[],"aug_dim":"","rhythm_ratio":1.0,"mirror":false,"chromatic_density":0.25,"complexity":0.755,"dissonance":0.131},{"voice":3,"pitch":53,"start":207.4613,"duration":0.2308,"velocity":127,"measure":57,"beat":1.75,"subject_pos":-1,"motif":"head","motif_pos":3,"best_pos":3,"similarity":1.0,"stretto":false,"stretto_voices":0,"combination":[],"aug_dim":"","rhythm_ratio":1.0,"mirror":false,"chromatic_density":0.25,"complexity":0.755,"dissonance":0.131},{"voice":0,"pitch":73,"start":207.6921,"duration":0.4615,"velocity":127,"measure":57,"beat":2.0,"subject_pos":-1,"motif":"enigmatic_cell","motif_pos":1,"best_pos":1,"similarity":1.0,"stretto":false,"stretto_voices":0,"combination":[],"aug_dim":"","rhythm_ratio":1.0,"mirror":false,"chromatic_density":0.25,"complexity":0.755,"dissonance":0.131},{"voice":0,"pitch":79,"start":207.6921,"duration":0.9231,"velocity":127,"measure":57,"beat":2.0,"subject_pos":-1,"motif":"enigmatic_cell","motif_pos":2,"best_pos":2,"similarity":1.0,"stretto":false,"stretto_voices":0,"combination":[],"aug_dim":"","rhythm_ratio":1.0,"mirror":false,"chromatic_density":0.25,"complexity":0.755,"dissonance":0.131},{"voice":3,"pitch":52,"start":207.6921,"duration":0.2308,"velocity":127,"measure":57,"beat":2.0,"subject_pos":-1,"motif":"head","motif_pos":4,"best_pos":4,"similarity":1.0,"stretto":false,"stretto_voices":0,"combination":[],"aug_dim":"","rhythm_ratio":1.0,"mirror":false,"chromatic_density":0.25,"complexity":0.755,"dissonance":0.131},{"voice":3,"pitch":50,"start":207.9229,"duration":0.2308,"velocity":127,"measure":57,"beat":2.25,"subject_pos":-1,"motif":"","motif_pos":-1,"best_pos":3,"similarity":0.536,"stretto":false,"stretto_voices":0,"combination":[],"aug_dim":"","rhythm_ratio":1.0,"mirror":false,"chromatic_density":0.25,"complexity":0.755,"dissonance":0.131},{"voice":0,"pitch":76,"start":208.1536,"duration":0.9231,"velocity":127,"measure":57,"beat":2.5,"subject_pos":-1,"motif":"","motif_pos":-1,"best_pos":3,"similarity":0.443,"stretto":false,"stretto_voices":0,"combination":[],"aug_dim":"","rhythm_ratio":1.0,"mirror":false,"chromatic_density":0.25,"complexity":0.755,"dissonance":0.131},{"voice":1,"pitch":69,"start":208.1536,"duration":0.2308,"velocity":127,"measure":57,"beat":2.5,"subject_pos":-1,"motif":"","motif_pos":-1,"best_pos":4,"similarity":0.529,"stretto":false,"stretto_voices":0,"combination":[],"aug_dim":"","rhythm_ratio":1.0,"mirror":false,"chromatic_density":0.25,"complexity":0.755,"dissonance":0.131},{"voice":3,"pitch":49,"start":208.1536,"duration":0.2308,"velocity":127,"measure":57,"beat":2.5,"subject_pos":-1,"motif":"","motif_pos":-1,"best_pos":4,"similarity":0.464,"stretto":false,"stretto_voices":0,"combination":[],"aug_dim":"","rhythm_ratio":1.0,"mirror":false,"chromatic_density":0.25,"complexity":0.755,"dissonance":0.131},{"voice":1,"pitch":67,"start":208.3844,"duration":0.2308,"velocity":127,"measure":57,"beat":2.75,"subject_pos":-1,"motif":"","motif_pos":-1,"best_pos":5,"similarity":0.457,"stretto":false,"stretto_voices":0,"combination":[],"aug_dim":"","rhythm_ratio":1.0,"mirror":false,"chromatic_density":0.25,"complexity":0.755,"dissonance":0.131},{"voice":3,"pitch":52,"start":208.3844,"duration":0.2308,"velocity":127,"measure":57,"beat":2.75,"subject_pos":-1,"motif":"","motif_pos":-1,"best_pos":5,"similarity":0.25,"stretto":false,"stretto_voices":0,"combination":[],"aug_dim":"","rhythm_ratio":1.0,"mirror":false,"chromatic_density":0.25,"complexity":0.755,"dissonance":0.131},{"voice":0,"pitch":77,"start":208.6152,"duration":0.9231,"velocity":127,"measure":57,"beat":3.0,"subject_pos":-1,"motif":"","motif_pos":-1,"best_pos":4,"similarity":0.393,"stretto":false,"stretto_voices":0,"combination":[],"aug_dim":"","rhythm_ratio":1.0,"mirror":false,"chromatic_density":0.25,"complexity":0.755,"dissonance":0.131},{"voice":1,"pitch":69,"start":208.6152,"duration":0.4615,"velocity":127,"measure":57,"beat":3.0,"subject_pos":-1,"motif":"","motif_pos":-1,"best_pos":6,"similarity":0.371,"stretto":false,"stretto_voices":0,"combination":[],"aug_dim":"","rhythm_ratio":1.0,"mirror":false,"chromatic_density":0.25,"complexity":0.755,"dissonance":0.131},{"voice":3,"pitch":45,"start":208.6152,"duration":2.0769,"velocity":127,"measure":57,"beat":3.0,"subject_pos":-1,"motif":"","motif_pos":-1,"best_pos":0,"similarity":0.189,"stretto":false,"stretto_voices":0,"combination":[],"aug_dim":"","rhythm_ratio":1.0,"mirror":false,"chromatic_density":0.25,"complexity":0.755,"dissonance":0.131},{"voice":2,"pitch":47,"start":208.8459,"duration":0.2308,"velocity":127,"measure":57,"beat":3.25,"subject_pos":-1,"motif":"","motif_pos":-1,"best_pos":5,"similarity":0.518,"stretto":false,"stretto_voices":0,"combination":[],"aug_dim":"","rhythm_ratio":1.0,"mirror":false,"chromatic_density":0.25,"complexity":0.755,"dissonance":0.131},{"voice":0,"pitch":74,"start":209.0767,"duration":0.9231,"velocity":127,"measure":57,"beat":3.5,"subject_pos":-1,"motif":"","motif_pos":-1,"best_pos":5,"similarity":0.436,"stretto":false,"stretto_voices":0,"combination":[],"aug_dim":"","rhythm_ratio":1.0,"mirror":false,"chromatic_density":0.25,"complexity":0.755,"dissonance":0.131},{"voice":1,"pitch":65,"start":209.0767,"duration":0.4615,"velocity":127,"measure":57,"beat":3.5,"subject_pos":-1,"motif":"","motif_pos":-1,"best_pos":2,"similarity":0.407,"stretto":false,"stretto_voices":0,"combination":[],"aug_dim":"","rhythm_ratio":1.0,"mirror":false,"chromatic_density":0.25,"complexity":0.755,"dissonance":0.131},{"voice":2,"pitch":49,"start":209.0767,"duration":0.2308,"velocity":127,"measure":57,"beat":3.5,"subject_pos":-1,"motif":"","motif_pos":-1,"best_pos":6,"similarity":0.607,"stretto":false,"stretto_voices":0,"combination":[],"aug_dim":"","rhythm_ratio":1.0,"mirror":false,"chromatic_density":0.25,"complexity":0.755,"dissonance":0.131},{"voice":2,"pitch":50,"start":209.3075,"duration":0.2308,"velocity":127,"measure":57,"beat":3.75,"subject_pos":-1,"motif":"","motif_pos":-1,"best_pos":5,"similarity":0.729,"stretto":false,"stretto_voices":0,"combination":[],"aug_dim":"","rhythm_ratio":1.0,"mirror":false,"chromatic_density":0.25,"complexity":0.755,"dissonance":0.131},{"voice":0,"pitch":76,"start":209.5383,"duration":0.9231,"velocity":127,"measure":57,"beat":4.0,"subject_pos":-1,"motif":"","motif_pos":-1,"best_pos":1,"similarity":0.386,"stretto":false,"stretto_voices":0,"combination":[],"aug_dim":"","rhythm_ratio":1.0,"mirror":false,"chromatic_density":0.25,"complexity":0.755,"dissonance":0.131},{"voice":1,"pitch":67,"start":209.5383,"duration":0.4615,"velocity":127,"measure":57,"beat":4.0,"subject_pos":-1,"motif":"","motif_pos":-1,"best_pos":3,"similarity":0.364,"stretto":false,"stretto_voices":0,"combination":[],"aug_dim":"","rhythm_ratio":1.0,"mirror":false,"chromatic_density":0.25,"complexity":0.755,"dissonance":0.131},{"voice":2,"pitch":52,"start":209.5383,"duration":0.2308,"velocity":127,"measure":57,"beat":4.0,"subject_pos":-1,"motif":"","motif_pos":-1,"best_pos":6,"similarity":0.721,"stretto":false,"stretto_voices":0,"combination":[],"aug_dim":"","rhythm_ratio":1.0,"mirror":false,"chromatic_density":0.25,"complexity":0.755,"dissonance":0.131},{"voice":2,"pitch":53,"start":209.769,"duration":0.2308,"velocity":127,"measure":57,"beat":4.25,"subject_pos":-1,"motif":"","motif_pos":-1,"best_pos":5,"similarity":0.607,"stretto":false,"stretto_voices":0,"combination":[],"aug_dim":"","rhythm_ratio":1.0,"mirror":false,"chromatic_density":0.25,"complexity":0.755,"dissonance":0.131},{"voice":0,"pitch":73,"start":209.9998,"duration":0.4615,"velocity":127,"measure":57,"beat":4.5,"subject_pos":-1,"motif":"","motif_pos":-1,"best_pos":2,"similarity":0.593,"stretto":false,"stretto_voices":0,"combination":[],"aug_dim":"","rhythm_ratio":1.0,"mirror":false,"chromatic_density":0.25,"complexity":0.755,"dissonance":0.131},{"voice":1,"pitch":64,"start":209.9998,"duration":0.4615,"velocity":127,"measure":57,"beat":4.5,"subject_pos":-1,"motif":"","motif_pos":-1,"best_pos":4,"similarity":0.429,"stretto":false,"stretto_voices":0,"combination":[],"aug_dim":"","rhythm_ratio":1.0,"mirror":false,"chromatic_density":0.25,"complexity":0.755,"dissonance":0.131},{"voice":2,"pitch":55,"start":209.9998,"duration":0.2308,"velocity":127,"measure":57,"beat":4.5,"subject_pos":-1,"motif":"","motif_pos":-1,"best_pos":6,"similarity":0.464,"stretto":false,"stretto_voices":0,"combination":[],"aug_dim":"","rhythm_ratio":1.0,"mirror":false,"chromatic_density":0.25,"complexity":0.755,"dissonance":0.131},{"voice":2,"pitch":52,"start":210.2306,"duration":0.2308,"velocity":127,"measure":57,"beat":4.75,"subject_pos":-1,"motif":"","motif_pos":-1,"best_pos":0,"similarity":0.5,"stretto":false,"stretto_voices":0,"combination":[],"aug_dim":"","rhythm_ratio":1.0,"mirror":false,"chromatic_density":0.25,"complexity":0.755,"dissonance":0.131},{"voice":0,"pitch":74,"start":210.4613,"duration":2.0769,"velocity":127,"measure":58,"beat":1.0,"subject_pos":-1,"motif":"enigmatic_cell","motif_pos":2,"best_pos":2,"similarity":1.0,"stretto":false,"stretto_voices":0,"combination":[],"aug_dim":"","rhythm_ratio":1.0,"mirror":false,"chromatic_density":0.304,"complexity":0.721,"dissonance":0.167},{"voice":1,"pitch":65,"start":210.4613,"duration":0.4615,"velocity":127,"measure":58,"beat":1.0,"subject_pos":-1,"motif":"","motif_pos":-1,"best_pos":2,"similarity":0.386,"stretto":false,"stretto_voices":0,"combination":[],"aug_dim":"","rhythm_ratio":1.0,"mirror":false,"chromatic_density":0.304,"complexity":0.721,"dissonance":0.167},{"voice":2,"pitch":57,"start":210.4613,"duration":0.4615,"velocity":127,"measure":58,"beat":1.0,"subject_pos":-1,"motif":"","motif_pos":-1,"best_pos":1,"similarity":0.721,"stretto":false,"stretto_voices":0,"combination":[],"aug_dim":"","rhythm_ratio":1.0,"mirror":false,"chromatic_density":0.304,"complexity":0.721,"dissonance":0.167},{"voice":0,"pitch":70,"start":210.6921,"duration":0.2308,"velocity":127,"measure":58,"beat":1.25,"subject_pos":-1,"motif":"","motif_pos":-1,"best_pos":3,"similarity":0.671,"stretto":false,"stretto_voices":0,"combination":[],"aug_dim":"","rhythm_ratio":1.0,"mirror":false,"chromatic_density":0.304,"complexity":0.721,"dissonance":0.167},{"voice":3,"pitch":55,"start":210.6921,"duration":0.2308,"velocity":127,"measure":58,"beat":1.25,"subject_pos":-1,"motif":"","motif_pos":-1,"best_pos":1,"similarity":0.386,"stretto":false,"stretto_voices":0,"combination":[],"aug_dim":"","rhythm_ratio":1.0,"mirror":false,"chromatic_density":0.304,"complexity":0.721,"dissonance":0.167},{"voice":0,"pitch":69,"start":210.9229,"duration":0.2308,"velocity":127,"measure":58,"beat":1.5,"subject_pos":-1,"motif":"","motif_pos":-1,"best_pos":4,"similarity":0.514,"stretto":false,"stretto_voices":0,"combination":[],"aug_dim":"","rhythm_ratio":1.0,"mirror":false,"chromatic_density":0.304,"complexity":0.721,"dissonance":0.167},{"voice":3,"pitch":53,"start":210.9229,"duration":0.2308,"velocity":127,"measure":58,"beat":1.5,"subject_pos":-1,"motif":"","motif_pos":-1,"best_pos":2,"similarity":0.45,"stretto":false,"stretto_voices":0,"combination":[],"aug_dim":"","rhythm_ratio":1.0,"mirror":false,"chromatic_density":0.304,"complexity":0.721,"dissonance":0.167},{"voice":0,"pitch":67,"start":211.1536,"duration":0.2308,"velocity":127,"measure":58,"beat":1.75,"subject_pos":-1,"motif":"","motif_pos":-1,"best_pos":2,"similarity":0.446,"stretto":false,"stretto_voices":0,"combination":[],"aug_dim":"","rhythm_ratio":1.0,"mirror":false,"chromatic_density":0.304,"complexity":0.721,"dissonance":0.167},{"voice":3,"pitch":52,"start":211.1536,"duration":0.2308,"velocity":127,"measure":58,"beat":1.75,"subject_pos":-1,"motif":"","motif_pos":-1,"best_pos":4,"similarity":0.407,"stretto":false,"stretto_voices":0,"combination":[],"aug_dim":"","rhythm_ratio":1.0,"mirror":false,"chromatic_density":0.304,"complexity":0.721,"dissonance":0.167},{"voice":0,"pitch":65,"start":211.3844,"duration":0.2308,"velocity":127,"measure":58,"beat":2.0,"subject_pos":-1,"motif":"","motif_pos":-1,"best_pos":2,"similarity":0.429,"stretto":false,"stretto_voices":0,"combination":[],"aug_dim":"","rhythm_ratio":1.0,"mirror":false,"chromatic_density":0.304,"complexity":0.721,"dissonance":0.167},{"voice":3,"pitch":50,"start":211.3844,"duration":0.2308,"velocity":127,"measure":58,"beat":2.0,"subject_pos":-1,"motif":"","motif_pos":-1,"best_pos":2,"similarity":0.507,"stretto":false,"stretto_voices":0,"combination":[],"aug_dim":"","rhythm_ratio":1.0,"mirror":false,"chromatic_density":0.304,"complexity":0.721,"dissonance":0.167},{"voice":0,"pitch":69,"start":211.6152,"duration":0.4615,"velocity":127,"measure":58,"beat":2.25,"subject_pos":-1,"motif":"enigmatic_cell","motif_pos":0,"best_pos":0,"similarity":1.0,"stretto":false,"stretto_voices":0,"combination":[],"aug_dim":"","rhythm_ratio":1.0,"mirror":false,"chromatic_density":0.304,"complexity":0.721,"dissonance":0.167},{"voice":3,"pitch":48,"start":211.6152,"duration":0.2308,"velocity":127,"measure":58,"beat":2.25,"subject_pos":-1,"motif":"","motif_pos":-1,"best_pos":3,"similarity":0.443,"stretto":false,"stretto_voices":0,"combination":[],"aug_dim":"","rhythm_ratio":1.0,"mirror":false,"chromatic_density":0.304,"complexity":0.721,"dissonance":0.167},{"voice":1,"pitch":62,"start":211.8459,"duration":0.9231,"velocity":127,"measure":58,"beat":2.5,"subject_pos":-1,"motif":"","motif_pos":-1,"best_pos":3,"similarity":0.479,"stretto":false,"stretto_voices":0,"combination":[],"aug_dim":"","rhythm_ratio":1.0,"mirror":false,"chromatic_density":0.304,"complexity":0.721,"dissonance":0.167},{"voice":2,"pitch":53,"start":211.8459,"duration":0.9231,"velocity":127,"measure":58,"beat":2.5,"subject_pos":-1,"motif":"","motif_pos":-1,"best_pos":2,"similarity":0.8,"stretto":false,"stretto_voices":0,"combination":[],"aug_dim":"","rhythm_ratio":1.0,"mirror":false,"chromatic_density":0.304,"complexity":0.721,"dissonance":0.167},{"voice":3,"pitch":46,"start":211.8459,"duration":0.2308,"velocity":127,"measure":58,"beat":2.5,"subject_pos":-1,"motif":"","motif_pos":-1,"best_pos":3,"similarity":0.357,"stretto":false,"stretto_voices":0,"combination":[],"aug_dim":"","rhythm_ratio":1.0,"mirror":false,"chromatic_density":0.304,"complexity":0.721,"dissonance":0.167},{"voice":0,"pitch":68,"start":212.0767,"duration":0.2308,"velocity":127,"measure":58,"beat":2.75,"subject_pos":-1,"motif":"enigmatic_cell","motif_pos":1,"best_pos":1,"similarity":1.0,"stretto":false,"stretto_voices":0,"combination":[],"aug_dim":"","rhythm_ratio":1.0,"mirror":false,"chromatic_density":0.304,"complexity":0.721,"dissonance":0.167},{"voice":3,"pitch":50,"start":212.0767,"duration":0.2308,"velocity":127,"measure":58,"beat":2.75,"subject_pos":-1,"motif":"","motif_pos":-1,"best_pos":4,"similarity":0.304,"stretto":false,"stretto_voices":0,"combination":[],"aug_dim":"","rhythm_ratio":1.0,"mirror":false,"chromatic_density":0.304,"complexity":0.721,"dissonance":0.167},{"voice":0,"pitch":71,"start":212.3075,"duration":0.4615,"velocity":127,"measure":58,"beat":3.0,"subject_pos":-1,"motif":"","motif_pos":-1,"best_pos":0,"similarity":0.446,"stretto":false,"stretto_voices":0,"combination":[],"aug_dim":"","rhythm_ratio":1.0,"mirror":false,"chromatic_density":0.304,"complexity":0.721,"dissonance":0.167},{"voice":3,"pitch":44,"start":212.3075,"duration":0.9231,"velocity":127,"measure":58,"beat":3.0,"subject_pos":-1,"motif":"","motif_pos":-1,"best_pos":5,"similarity":0.357,"stretto":false,"stretto_voices":0,"combination":[],"aug_dim":"","rhythm_ratio":1.0,"mirror":false,"chromatic_density":0.304,"complexity":0.721,"dissonance":0.167},{"voice":0,"pitch":76,"start":212.5382,"duration":0.2308,"velocity":127,"measure":58,"beat":3.25,"subject_pos":-1,"motif":"","motif_pos":-1,"best_pos":1,"similarity":0.625,"stretto":false,"stretto_voices":0,"combination":[],"aug_dim":"","rhythm_ratio":1.0,"mirror":false,"chromatic_density":0.304,"complexity":0.721,"dissonance":0.167},{"voice":0,"pitch":74,"start":212.769,"duration":0.2308,"velocity":127,"measure":58,"beat":3.5,"subject_pos":-1,"motif":"tail","motif_pos":3,"best_pos":3,"similarity":1.0,"stretto":false,"stretto_voices":0,"combination":[],"aug_dim":"","rhythm_ratio":1.0,"mirror":false,"chromatic_density":0.304,"complexity":0.721,"dissonance":0.167},{"voice":0,"pitch":73,"start":212.9998,"duration":0.2308,"velocity":127,"measure":58,"beat":3.75,"subject_pos":-1,"motif":"tail","motif_pos":4,"best_pos":4,"similarity":1.0,"stretto":false,"stretto_voices":0,"combination":[],"aug_dim":"","rhythm_ratio":1.0,"mirror":false,"chromatic_density":0.304,"complexity":0.721,"dissonance":0.167},{"voice":0,"pitch":74,"start":213.2306,"duration":0.2308,"velocity":127,"measure":58,"beat":4.0,"subject_pos":-1,"motif":"tail","motif_pos":5,"best_pos":5,"similarity":1.0,"stretto":false,"stretto_voices":0,"combination":[],"aug_dim":"","rhythm_ratio":1.0,"mirror":false,"chromatic_density":0.304,"complexity":0.721,"dissonance":0.167},{"voice":0,"pitch":76,"start":213.4613,"duration":0.2308,"velocity":127,"measure":58,"beat":4.25,"subject_pos":-1,"motif":"tail","motif_pos":6,"best_pos":6,"similarity":1.0,"stretto":false,"stretto_voices":0,"combination":[],"aug_dim":"","rhythm_ratio":1.0,"mirror":false,"chromatic_density":0.304,"complexity":0.721,"dissonance":0.167},{"voice":0,"pitch":77,"start":213.6921,"duration":0.2308,"velocity":127,"measure":58,"beat":4.5,"subject_pos":-1,"motif":"tail","motif_pos":7,"best_pos":7,"similarity":1.0,"stretto":false,"stretto_voices":0,"combination":[],"aug_dim":"","rhythm_ratio":1.0,"mirror":false,"chromatic_density":0.304,"complexity":0.721,"dissonance":0.167},{"voice":0,"pitch":76,"start":213.9229,"duration":0.2308,"velocity":127,"measure":58,"beat":4.75,"subject_pos":-1,"motif":"","motif_pos":-1,"best_pos":4,"similarity":0.411,"stretto":false,"stretto_voices":0,"combination":[],"aug_dim":"","rhythm_ratio":1.0,"mirror":false,"chromatic_density":0.304,"complexity":0.721,"dissonance":0.167},{"voice":0,"pitch":79,"start":214.1536,"duration":0.2308,"velocity":127,"measure":59,"beat":1.0,"subject_pos":-1,"motif":"","motif_pos":-1,"best_pos":1,"similarity":0.429,"stretto":false,"stretto_voices":0,"combination":[],"aug_dim":"","rhythm_ratio":1.0,"mirror":false,"chromatic_density":0.35,"complexity":0.721,"dissonance":0.11},{"voice":0,"pitch":77,"start":214.3844,"duration":0.2308,"velocity":127,"measure":59,"beat":1.25,"subject_pos":-1,"motif":"","motif_pos":-1,"best_pos":3,"similarity":0.514,"stretto":false,"stretto_voices":0,"combination":[],"aug_dim":"","rhythm_ratio":1.0,"mirror":false,"chromatic_density":0.35,"complexity":0.721,"dissonance":0.11},{"voice":0,"pitch":76,"start":214.6152,"duration":0.2308,"velocity":127,"measure":59,"beat":1.5,"subject_pos":-1,"motif":"","motif_pos":-1,"best_pos":4,"similarity":0.536,"stretto":false,"stretto_voices":0,"combination":[],"aug_dim":"","rhythm_ratio":1.0,"mirror":false,"chromatic_density":0.35,"complexity":0.721,"dissonance":0.11},{"voice":0,"pitch":74,"start":214.8459,"duration":0.2308,"velocity":127,"measure":59,"beat":1.75,"subject_pos":-1,"motif":"","motif_pos":-1,"best_pos":5,"similarity":0.507,"stretto":false,"stretto_voices":0,"combination":[],"aug_dim":"","rhythm_ratio":1.0,"mirror":false,"chromatic_density":0.35,"complexity":0.721,"dissonance":0.11},{"voice":0,"pitch":76,"start":215.0767,"duration":0.2308,"velocity":127,"measure":59,"beat":2.0,"subject_pos":-1,"motif":"","motif_pos":-1,"best_pos":6,"similarity":0.4,"stretto":false,"stretto_voices":0,"combination":[],"aug_dim":"","rhythm_ratio":1.0,"mirror":false,"chromatic_density":0.35,"complexity":0.721,"dissonance":0.11},{"voice":0,"pitch":73,"start":215.3075,"duration":0.2308,"velocity":127,"measure":59,"beat":2.25,"subject_pos":-1,"motif":"","motif_pos":-1,"best_pos":3,"similarity":0.386,"stretto":false,"stretto_voices":0,"combination":[],"aug_dim":"","rhythm_ratio":1.0,"mirror":false,"chromatic_density":0.35,"complexity":0.721,"dissonance":0.11},{"voice":0,"pitch":65,"start":215.5382,"duration":0.6923,"velocity":127,"measure":59,"beat":2.5,"subject_pos":-1,"motif":"","motif_pos":-1,"best_pos":2,"similarity":0.329,"stretto":false,"stretto_voices":0,"combination":[],"aug_dim":"","rhythm_ratio":1.0,"mirror":false,"chromatic_density":0.35,"complexity":0.721,"dissonance":0.11},{"voice":0,"pitch":74,"start":215.5382,"duration":1.3846,"velocity":127,"measure":59,"beat":2.5,"subject_pos":-1,"motif":"","motif_pos":-1,"best_pos":4,"similarity":0.214,"stretto":false,"stretto_voices":0,"combination":[],"aug_dim":"","rhythm_ratio":1.0,"mirror":false,"chromatic_density":0.35,"complexity":0.721,"dissonance":0.11},{"voice":1,"pitch":56,"start":215.5382,"duration":0.4615,"velocity":127,"measure":59,"beat":2.5,"subject_pos":-1,"motif":"","motif_pos":-1,"best_pos":4,"similarity":0.543,"stretto":false,"stretto_voices":0,"combination":[],"aug_dim":"","rhythm_ratio":1.0,"mirror":false,"chromatic_density":0.35,"complexity":0.721,"dissonance":0.11},{"voice":2,"pitch":50,"start":215.5382,"duration":0.2308,"velocity":127,"measure":59,"beat":2.5,"subject_pos":-1,"motif":"","motif_pos":-1,"best_pos":3,"similarity":0.679,"stretto":false,"stretto_voices":0,"combination":[],"aug_dim":"","rhythm_ratio":1.0,"mirror":false,"chromatic_density":0.35,"complexity":0.721,"dissonance":0.11},{"voice":3,"pitch":46,"start":215.5382,"duration":0.4615,"velocity":127,"measure":59,"beat":2.5,"subject_pos":-1,"motif":"enigmatic_cell","motif_pos":0,"best_pos":0,"similarity":1.0,"stretto":false,"stretto_voices":0,"combination":[],"aug_dim":"","rhythm_ratio":1.0,"mirror":false,"chromatic_density":0.35,"complexity":0.721,"dissonance":0.11},{"voice":2,"pitch":52,"start":215.769,"duration":0.2308,"velocity":127,"measure":59,"beat":2.75,"subject_pos":-1,"motif":"","motif_pos":-1,"best_pos":6,"similarity":0.593,"stretto":false,"stretto_voices":0,"combination":[],"aug_dim":"","rhythm_ratio":1.0,"mirror":false,"chromatic_density":0.35,"complexity":0.721,"dissonance":0.11},{"voice":1,"pitch":57,"start":215.9998,"duration":1.8462,"velocity":127,"measure":59,"beat":3.0,"subject_pos":-1,"motif":"","motif_pos":-1,"best_pos":5,"similarity":0.571,"stretto":false,"stretto_voices":0,"combination":[],"aug_dim":"","rhythm_ratio":1.0,"mirror":false,"chromatic_density":0.35,"complexity":0.721,"dissonance":0.11},{"voice":2,"pitch":53,"start":215.9998,"duration":0.9231,"velocity":127,"measure":59,"beat":3.0,"subject_pos":-1,"motif":"","motif_pos":-1,"best_pos":7,"similarity":0.436,"stretto":false,"stretto_voices":0,"combination":[],"aug_dim":"","rhythm_ratio":1.0,"mirror":false,"chromatic_density":0.35,"complexity":0.721,"dissonance":0.11},{"voice":3,"pitch":45,"start":215.9998,"duration":1.8462,"velocity":127,"measure":59,"beat":3.0,"subject_pos":-1,"motif":"enigmatic_cell","motif_pos":1,"best_pos":1,"similarity":1.0,"stretto":false,"stretto_voices":0,"combination":[],"aug_dim":"","rhythm_ratio":1.0,"mirror":false,"chromatic_density":0.35,"complexity":0.721,"dissonance":0.11},{"voice":0,"pitch":62,"start":216.2306,"duration":0.2308,"velocity":127,"measure":59,"beat":3.25,"subject_pos":-1,"motif":"","motif_pos":-1,"best_pos":5,"similarity":0.386,"stretto":false,"stretto_voices":0,"combination":[],"aug_dim":"","rhythm_ratio":1.0,"mirror":false,"chromatic_density":0.35,"complexity":0.721,"dissonance":0.11},{"voice":0,"pitch":64,"start":216.4613,"duration":0.2308,"velocity":127,"measure":59,"beat":3.5,"subject_pos":-1,"motif":"","motif_pos":-1,"best_pos":6,"similarity":0.3,"stretto":false,"stretto_voices":0,"combination":[],"aug_dim":"","rhythm_ratio":1.0,"mirror":false,"chromatic_density":0.35,"complexity":0.721,"dissonance":0.11},{"voice":0,"pitch":65,"start":216.6921,"duration":0.2308,"velocity":127,"measure":59,"beat":3.75,"subject_pos":-1,"motif":"","motif_pos":-1,"best_pos":4,"similarity":0.364,"stretto":false,"stretto_voices":0,"combination":[],"aug_dim":"","rhythm_ratio":1.0,"mirror":false,"chromatic_density":0.35,"complexity":0.721,"dissonance":0.11},{"voice":0,"pitch":67,"start":216.9229,"duration":0.2308,"velocity":127,"measure":59,"beat":4.0,"subject_pos":-1,"motif":"","motif_pos":-1,"best_pos":5,"similarity":0.571,"stretto":false,"stretto_voices":0,"combination":[],"aug_dim":"","rhythm_ratio":1.0,"mirror":false,"chromatic_density":0.35,"complexity":0.721,"dissonance":0.11},{"voice":0,"pitch":73,"start":216.9229,"duration":0.9231,"velocity":127,"measure":59,"beat":4.0,"subject_pos":-1,"motif":"","motif_pos":-1,"best_pos":6,"similarity":0.293,"stretto":false,"stretto_voices":0,"combination":[],"aug_dim":"","rhythm_ratio":1.0,"mirror":false,"chromatic_density":0.35,"complexity":0.721,"dissonance":0.11},{"voice":2,"pitch":52,"start":216.9229,"duration":0.9231,"velocity":127,"measure":59,"beat":4.0,"subject_pos":-1,"motif":"","motif_pos":-1,"best_pos":4,"similarity":0.371,"stretto":false,"stretto_voices":0,"combination":[],"aug_dim":"","rhythm_ratio":1.0,"mirror":false,"chromatic_density":0.35,"complexity":0.721,"dissonance":0.11},{"voice":0,"pitch":69,"start":217.1536,"duration":0.2308,"velocity":127,"measure":59,"beat":4.25,"subject_pos":-1,"motif":"","motif_pos":-1,"best_pos":6,"similarity":0.643,"stretto":false,"stretto_voices":0,"combination":[],"aug_dim":"","rhythm_ratio":1.0,"mirror":false,"chromatic_density":0.35,"complexity":0.721,"dissonance":0.11},{"voice":0,"pitch":70,"start":217.3844,"duration":0.2308,"velocity":127,"measure":59,"beat":4.5,"subject_pos":-1,"motif":"","motif_pos":-1,"best_pos":7,"similarity":0.464,"stretto":false,"stretto_voices":0,"combination":[],"aug_dim":"","rhythm_ratio":1.0,"mirror":false,"chromatic_density":0.35,"complexity":0.721,"dissonance":0.11},{"voice":0,"pitch":67,"start":217.6152,"duration":0.2308,"velocity":127,"measure":59,"beat":4.75,"subject_pos":-1,"motif":"","motif_pos":-1,"best_pos":3,"similarity":0.364,"stretto":false,"stretto_voices":0,"combination":[],"aug_dim":"","rhythm_ratio":1.0,"mirror":false,"chromatic_density":0.35,"complexity":0.721,"dissonance":0.11},{"voice":0,"pitch":66,"start":217.8459,"duration":0.2308,"velocity":127,"measure":60,"beat":1.0,"subject_pos":-1,"motif":"","motif_pos":-1,"best_pos":4,"similarity":0.404,"stretto":false,"stretto_voices":0,"combination":[],"aug_dim":"","rhythm_ratio":1.0,"mirror":false,"chromatic_density":0.269,"complexity":0.754,"dissonance":0.103},{"voice":0,"pitch":74,"start":217.8459,"duration":1.3846,"velocity":127,"measure":60,"beat":1.0,"subject_pos":-1,"motif":"","motif_pos":-1,"best_pos":4,"similarity":0.25,"stretto":false,"stretto_voices":0,"combination":[],"aug_dim":"","rhythm_ratio":1.0,"mirror":false,"chromatic_density":0.269,"complexity":0.754,"dissonance":0.103},{"voice":1,"pitch":58,"start":217.8459,"duration":1.1538,"velocity":127,"measure":60,"beat":1.0,"subject_pos":-1,"motif":"","motif_pos":-1,"best_pos":5,"similarity":0.629,"stretto":false,"stretto_voices":0,"combination":[],"aug_dim":"","rhythm_ratio":1.0,"mirror":false,"chromatic_density":0.269,"complexity":0.754,"dissonance":0.103},{"voice":2,"pitch":50,"start":217.8459,"duration":0.9231,"velocity":127,"measure":60,"beat":1.0,"subject_pos":-1,"motif":"","motif_pos":-1,"best_pos":4,"similarity":0.346,"stretto":false,"stretto_voices":0,"combination":[],"aug_dim":"","rhythm_ratio":1.0,"mirror":false,"chromatic_density":0.269,"complexity":0.754,"dissonance":0.103},{"voice":3,"pitch":50,"start":217.8459,"duration":5.5385,"velocity":127,"measure":60,"beat":1.0,"subject_pos":-1,"motif":"enigmatic_cell","motif_pos":2,"best_pos":2,"similarity":1.0,"stretto":false,"stretto_voices":0,"combination":[],"aug_dim":"","rhythm_ratio":1.0,"mirror":false,"chromatic_density":0.269,"complexity":0.754,"dissonance":0.103},{"voice":0,"pitch":69,"start":218.0767,"duration":0.2308,"velocity":127,"measure":60,"beat":1.25,"subject_pos":-1,"motif":"","motif_pos":-1,"best_pos":1,"similarity":0.393,"stretto":false,"stretto_voices":0,"combination":[],"aug_dim":"","rhythm_ratio":1.0,"mirror":false,"chromatic_density":0.269,"complexity":0.754,"dissonance":0.103},{"voice":0,"pitch":67,"start":218.3075,"duration":0.2308,"velocity":127,"measure":60,"beat":1.5,"subject_pos":-1,"motif":"","motif_pos":-1,"best_pos":3,"similarity":0.446,"stretto":false,"stretto_voices":0,"combination":[],"aug_dim":"","rhythm_ratio":1.0,"mirror":false,"chromatic_density":0.269,"complexity":0.754,"dissonance":0.103},{"voice":0,"pitch":66,"start":218.5382,"duration":0.2308,"velocity":127,"measure":60,"beat":1.75,"subject_pos":-1,"motif":"","motif_pos":-1,"best_pos":4,"similarity":0.393,"stretto":false,"stretto_voices":0,"combination":[],"aug_dim":"","rhythm_ratio":1.0,"mirror":false,"chromatic_density":0.269,"complexity":0.754,"dissonance":0.103},{"voice":0,"pitch":67,"start":218.769,"duration":1.3846,"velocity":127,"measure":60,"beat":2.0,"subject_pos":-1,"motif":"","motif_pos":-1,"best_pos":0,"similarity":0.214,"stretto":false,"stretto_voices":0,"combination":[],"aug_dim":"","rhythm_ratio":1.0,"mirror":false,"chromatic_density":0.269,"complexity":0.754,"dissonance":0.103},{"voice":1,"pitch":60,"start":218.9998,"duration":0.2308,"velocity":127,"measure":60,"beat":2.25,"subject_pos":-1,"motif":"","motif_pos":-1,"best_pos":6,"similarity":0.475,"stretto":false,"stretto_voices":0,"combination":[],"aug_dim":"","rhythm_ratio":1.0,"mirror":false,"chromatic_density":0.269,"complexity":0.754,"dissonance":0.103},{"voice":0,"pitch":74,"start":219.2305,"duration":0.4615,"velocity":127,"measure":60,"beat":2.5,"subject_pos":-1,"motif":"","motif_pos":-1,"best_pos":4,"similarity":0.2,"stretto":false,"stretto_voices":0,"combination":[],"aug_dim":"","rhythm_ratio":1.0,"mirror":false,"chromatic_density":0.269,"complexity":0.754,"dissonance":0.103},{"voice":1,"pitch":58,"start":219.2305,"duration":0.2308,"velocity":127,"measure":60,"beat":2.5,"subject_pos":-1,"motif":"","motif_pos":-1,"best_pos":3,"similarity":0.471,"stretto":false,"stretto_voices":0,"combination":[],"aug_dim":"","rhythm_ratio":1.0,"mirror":false,"chromatic_density":0.269,"complexity":0.754,"dissonance":0.103},{"voice":2,"pitch":62,"start":219.2305,"duration":0.4615,"velocity":127,"measure":60,"beat":2.5,"subject_pos":-1,"motif":"","motif_pos":-1,"best_pos":5,"similarity":0.411,"stretto":false,"stretto_voices":0,"combination":[],"aug_dim":"","rhythm_ratio":1.0,"mirror":false,"chromatic_density":0.269,"complexity":0.754,"dissonance":0.103},{"voice":1,"pitch":57,"start":219.4613,"duration":0.2308,"velocity":127,"measure":60,"beat":2.75,"subject_pos":-1,"motif":"","motif_pos":-1,"best_pos":2,"similarity":0.436,"stretto":false,"stretto_voices":0,"combination":[],"aug_dim":"","rhythm_ratio":1.0,"mirror":false,"chromatic_density":0.269,"complexity":0.754,"dissonance":0.103},{"voice":0,"pitch":73,"start":219.6921,"duration":0.4615,"velocity":127,"measure":60,"beat":3.0,"subject_pos":-1,"motif":"","motif_pos":-1,"best_pos":2,"similarity":0.318,"stretto":false,"stretto_voices":0,"combination":[],"aug_dim":"","rhythm_ratio":1.0,"mirror":false,"chromatic_density":0.269,"complexity":0.754,"dissonance":0.103},{"voice":1,"pitch":55,"start":219.6921,"duration":0.2308,"velocity":127,"measure":60,"beat":3.0,"subject_pos":-1,"motif":"","motif_pos":-1,"best_pos":3,"similarity":0.521,"stretto":false,"stretto_voices":0,"combination":[],"aug_dim":"","rhythm_ratio":1.0,"mirror":false,"chromatic_density":0.269,"complexity":0.754,"dissonance":0.103},{"voice":2,"pitch":64,"start":219.6921,"duration":0.4615,"velocity":127,"measure":60,"beat":3.0,"subject_pos":-1,"motif":"","motif_pos":-1,"best_pos":6,"similarity":0.393,"stretto":false,"stretto_voices":0,"combination":[],"aug_dim":"","rhythm_ratio":1.0,"mirror":false,"chromatic_density":0.269,"complexity":0.754,"dissonance":0.103},{"voice":1,"pitch":54,"start":219.9229,"duration":0.2308,"velocity":127,"measure":60,"beat":3.25,"subject_pos":-1,"motif":"","motif_pos":-1,"best_pos":4,"similarity":0.443,"stretto":false,"stretto_voices":0,"combination":[],"aug_dim":"","rhythm_ratio":1.0,"mirror":false,"chromatic_density":0.269,"complexity":0.754,"dissonance":0.103},{"voice":0,"pitch":70,"start":220.1536,"duration":0.4615,"velocity":127,"measure":60,"beat":3.5,"subject_pos":-1,"motif":"","motif_pos":-1,"best_pos":3,"similarity":0.357,"stretto":false,"stretto_voices":0,"combination":[],"aug_dim":"","rhythm_ratio":1.0,"mirror":false,"chromatic_density":0.269,"complexity":0.754,"dissonance":0.103},{"voice":0,"pitch":72,"start":220.1536,"duration":0.6923,"velocity":127,"measure":60,"beat":3.5,"subject_pos":-1,"motif":"","motif_pos":-1,"best_pos":6,"similarity":0.371,"stretto":false,"stretto_voices":0,"combination":[],"aug_dim":"","rhythm_ratio":1.0,"mirror":false,"chromatic_density":0.269,"complexity":0.754,"dissonance":0.103},{"voice":1,"pitch":52,"start":220.1536,"duration":0.2308,"velocity":127,"measure":60,"beat":3.5,"subject_pos":-1,"motif":"","motif_pos":-1,"best_pos":2,"similarity":0.393,"stretto":false,"stretto_voices":0,"combination":[],"aug_dim":"","rhythm_ratio":1.0,"mirror":false,"chromatic_density":0.269,"complexity":0.754,"dissonance":0.103},{"voice":2,"pitch":67,"start":220.1536,"duration":0.4615,"velocity":127,"measure":60,"beat":3.5,"subject_pos":-1,"motif":"","motif_pos":-1,"best_pos":1,"similarity":0.268,"stretto":false,"stretto_voices":0,"combination":[],"aug_dim":"","rhythm_ratio":1.0,"mirror":false,"chromatic_density":0.269,"complexity":0.754,"dissonance":0.103},{"voice":1,"pitch":57,"start":220.3844,"duration":0.2308,"velocity":127,"measure":60,"beat":3.75,"subject_pos":-1,"motif":"","motif_pos":-1,"best_pos":1,"similarity":0.45,"stretto":false,"stretto_voices":0,"combination":[],"aug_dim":"","rhythm_ratio":1.0,"mirror":false,"chromatic_density":0.269,"complexity":0.754,"dissonance":0.103},{"voice":0,"pitch":69,"start":220.6152,"duration":0.9231,"velocity":127,"measure":60,"beat":4.0,"subject_pos":-1,"motif":"","motif_pos":-1,"best_pos":0,"similarity":0.232,"stretto":false,"stretto_voices":0,"combination":[],"aug_dim":"","rhythm_ratio":1.0,"mirror":false,"chromatic_density":0.269,"complexity":0.754,"dissonance":0.103},{"voice":1,"pitch":54,"start":220.6152,"duration":0.9231,"velocity":127,"measure":60,"beat":4.0,"subject_pos":-1,"motif":"","motif_pos":-1,"best_pos":4,"similarity":0.571,"stretto":false,"stretto_voices":0,"combination":[],"aug_dim":"","rhythm_ratio":1.0,"mirror":false,"chromatic_density":0.269,"complexity":0.754,"dissonance":0.103},{"voice":2,"pitch":62,"start":220.6152,"duration":0.4615,"velocity":127,"measure":60,"beat":4.0,"subject_pos":-1,"motif":"","motif_pos":-1,"best_pos":2,"similarity":0.286,"stretto":false,"stretto_voices":0,"combination":[],"aug_dim":"","rhythm_ratio":1.0,"mirror":false,"chromatic_density":0.269,"complexity":0.754,"dissonance":0.103},{"voice":0,"pitch":75,"start":220.8459,"duration":0.2308,"velocity":127,"measure":60,"beat":4.25,"subject_pos":-1,"motif":"","motif_pos":-1,"best_pos":3,"similarity":0.318,"stretto":false,"stretto_voices":0,"combination":[],"aug_dim":"","rhythm_ratio":1.0,"mirror":false,"chromatic_density":0.269,"complexity":0.754,"dissonance":0.103},{"voice":0,"pitch":74,"start":221.0767,"duration":0.2308,"velocity":127,"measure":60,"beat":4.5,"subject_pos":-1,"motif":"","motif_pos":-1,"best_pos":4,"similarity":0.336,"stretto":false,"stretto_voices":0,"combination":[],"aug_dim":"","rhythm_ratio":1.0,"mirror":false,"chromatic_density":0.269,"complexity":0.754,"dissonance":0.103},{"voice":2,"pitch":57,"start":221.0767,"duration":0.4615,"velocity":127,"measure":60,"beat":4.5,"subject_pos":-1,"motif":"enigmatic_cell","motif_pos":0,"best_pos":0,"similarity":1.0,"stretto":false,"stretto_voices":0,"combination":[],"aug_dim":"","rhythm_ratio":1.0,"mirror":false,"chromatic_density":0.269,"complexity":0.754,"dissonance":0.103},{"voice":0,"pitch":73,"start":221.3075,"duration":0.2308,"velocity":127,"measure":60,"beat":4.75,"subject_pos":-1,"motif":"","motif_pos":-1,"best_pos":2,"similarity":0.436,"stretto":false,"stretto_voices":0,"combination":[],"aug_dim":"","rhythm_ratio":1.0,"mirror":false,"chromatic_density":0.269,"complexity":0.754,"dissonance":0.103},{"voice":0,"pitch":70,"start":221.5382,"duration":0.2308,"velocity":127,"measure":61,"beat":1.0,"subject_pos":-1,"motif":"","motif_pos":-1,"best_pos":3,"similarity":0.586,"stretto":false,"stretto_voices":0,"combination":[],"aug_dim":"","rhythm_ratio":1.0,"mirror":false,"chromatic_density":0.154,"complexity":0.636,"dissonance":0.107},{"voice":0,"pitch":62,"start":221.5382,"duration":0.9231,"velocity":127,"measure":61,"beat":1.0,"subject_pos":-1,"motif":"","motif_pos":-1,"best_pos":3,"similarity":0.293,"stretto":false,"stretto_voices":0,"combination":[],"aug_dim":"","rhythm_ratio":1.0,"mirror":false,"chromatic_density":0.154,"complexity":0.636,"dissonance":0.107},{"voice":1,"pitch":55,"start":221.5382,"duration":1.8462,"velocity":127,"measure":61,"beat":1.0,"subject_pos":-1,"motif":"","motif_pos":-1,"best_pos":5,"similarity":0.607,"stretto":false,"stretto_voices":0,"combination":[],"aug_dim":"","rhythm_ratio":1.0,"mirror":false,"chromatic_density":0.154,"complexity":0.636,"dissonance":0.107},{"voice":2,"pitch":58,"start":221.5382,"duration":0.9231,"velocity":127,"measure":61,"beat":1.0,"subject_pos":-1,"motif":"enigmatic_cell","motif_pos":1,"best_pos":1,"similarity":1.0,"stretto":false,"stretto_voices":0,"combination":[],"aug_dim":"","rhythm_ratio":1.0,"mirror":false,"chromatic_density":0.154,"complexity":0.636,"dissonance":0.107},{"voice":0,"pitch":69,"start":221.769,"duration":0.2308,"velocity":127,"measure":61,"beat":1.25,"subject_pos":-1,"motif":"","motif_pos":-1,"best_pos":4,"similarity":0.457,"stretto":false,"stretto_voices":0,"combination":[],"aug_dim":"","rhythm_ratio":1.0,"mirror":false,"chromatic_density":0.154,"complexity":0.636,"dissonance":0.107},{"voice":0,"pitch":67,"start":221.9998,"duration":0.2308,"velocity":127,"measure":61,"beat":1.5,"subject_pos":-1,"motif":"","motif_pos":-1,"best_pos":2,"similarity":0.393,"stretto":false,"stretto_voices":0,"combination":[],"aug_dim":"","rhythm_ratio":1.0,"mirror":false,"chromatic_density":0.154,"complexity":0.636,"dissonance":0.107},{"voice":0,"pitch":70,"start":222.2305,"duration":0.4615,"velocity":127,"measure":61,"beat":1.75,"subject_pos":-1,"motif":"","motif_pos":-1,"best_pos":4,"similarity":0.264,"stretto":false,"stretto_voices":0,"combination":[],"aug_dim":"","rhythm_ratio":1.0,"mirror":false,"chromatic_density":0.154,"complexity":0.636,"dissonance":0.107},{"voice":0,"pitch":61,"start":222.4613,"duration":0.9231,"velocity":127,"measure":61,"beat":2.0,"subject_pos":-1,"motif":"","motif_pos":-1,"best_pos":0,"similarity":0.25,"stretto":false,"stretto_voices":0,"combination":[],"aug_dim":"","rhythm_ratio":1.0,"mirror":false,"chromatic_density":0.154,"complexity":0.636,"dissonance":0.107},{"voice":2,"pitch":52,"start":222.4613,"duration":0.9231,"velocity":127,"measure":61,"beat":2.0,"subject_pos":-1,"motif":"enigmatic_cell","motif_pos":2,"best_pos":2,"similarity":1.0,"stretto":false,"stretto_voices":0,"combination":[],"aug_dim":"","rhythm_ratio":1.0,"mirror":false,"chromatic_density":0.154,"complexity":0.636,"dissonance":0.107},{"voice":0,"pitch":70,"start":222.6921,"duration":0.2308,"velocity":127,"measure":61,"beat":2.25,"subject_pos":-1,"motif":"","motif_pos":-1,"best_pos":3,"similarity":0.321,"stretto":false,"stretto_voices":0,"combination":[],"aug_dim":"","rhythm_ratio":1.0,"mirror":false,"chromatic_density":0.154,"complexity":0.636,"dissonance":0.107},{"voice":0,"pitch":69,"start":222.9229,"duration":0.2308,"velocity":127,"measure":61,"beat":2.5,"subject_pos":-1,"motif":"","motif_pos":-1,"best_pos":4,"similarity":0.332,"stretto":false,"stretto_voices":0,"combination":[],"aug_dim":"","rhythm_ratio":1.0,"mirror":false,"chromatic_density":0.154,"complexity":0.636,"dissonance":0.107},{"voice":0,"pitch":67,"start":223.1536,"duration":0.2308,"velocity":127,"measure":61,"beat":2.75,"subject_pos":-1,"motif":"","motif_pos":-1,"best_pos":1,"similarity":0.357,"stretto":false,"stretto_voices":0,"combination":[],"aug_dim":"","rhythm_ratio":1.0,"mirror":false,"chromatic_density":0.154,"complexity":0.636,"dissonance":0.107},{"voice":0,"pitch":66,"start":223.3844,"duration":1.8462,"velocity":127,"measure":61,"beat":3.0,"subject_pos":-1,"motif":"","motif_pos":-1,"best_pos":2,"similarity":0.357,"stretto":false,"stretto_voices":0,"combination":[],"aug_dim":"","rhythm_ratio":1.0,"mirror":false,"chromatic_density":0.154,"complexity":0.636,"dissonance":0.107},{"voice":0,"pitch":62,"start":223.3844,"duration":1.8462,"velocity":127,"measure":61,"beat":3.0,"subject_pos":-1,"motif":"","motif_pos":-1,"best_pos":2,"similarity":0.286,"stretto":false,"stretto_voices":0,"combination":[],"aug_dim":"","rhythm_ratio":1.0,"mirror":false,"chromatic_density":0.154,"complexity":0.636,"dissonance":0.107},{"voice":1,"pitch":57,"start":223.3844,"duration":1.8462,"velocity":127,"measure":61,"beat":3.0,"subject_pos":-1,"motif":"","motif_pos":-1,"best_pos":6,"similarity":0.446,"stretto":false,"stretto_voices":0,"combination":[],"aug_dim":"","rhythm_ratio":1.0,"mirror":false,"chromatic_density":0.154,"complexity":0.636,"dissonance":0.107},{"voice":2,"pitch":50,"start":223.3844,"duration":1.8462,"velocity":127,"measure":61,"beat":3.0,"subject_pos":-1,"motif":"","motif_pos":-1,"best_pos":2,"similarity":0.286,"stretto":false,"stretto_voices":0,"combination":[],"aug_dim":"","rhythm_ratio":1.0,"mirror":false,"chromatic_density":0.154,"complexity":0.636,"dissonance":0.107},{"voice":3,"pitch":38,"start":223.3844,"duration":1.8462,"velocity":127,"measure":61,"beat":3.0,"subject_pos":-1,"motif":"","motif_pos":-1,"best_pos":2,"similarity":0.143,"stretto":false,"stretto_voices":0,"combination":[],"aug_dim":"","rhythm_ratio":1.0,"mirror":false,"chromatic_density":0.154,"complexity":0.636,"dissonance":0.107}],"chromatic_density":[{"measure":1,"density":0.2,"chromatic_count":1,"interval_count":5},{"measure":2,"density":0.375,"chromatic_count":3,"interval_count":8},{"measure":3,"density":0.375,"chromatic_count":6,"interval_count":16},{"measure":4,"density":0.421,"chromatic_count":8,"interval_count":19},{"measure":5,"density":0.278,"chromatic_count":5,"interval_count":18},{"measure":6,"density":0.389,"chromatic_count":7,"interval_count":18},{"measure":7,"density":0.182,"chromatic_count":4,"interval_count":22},{"measure":8,"density":0.353,"chromatic_count":6,"interval_count":17},{"measure":9,"density":0.333,"chromatic_count":6,"interval_count":18},{"measure":10,"density":0.4,"chromatic_count":8,"interval_count":20},{"measure":11,"density":0.3,"chromatic_count":6,"interval_count":20},{"measure":12,"density":0.35,"chromatic_count":7,"interval_count":20},{"measure":13,"density":0.294,"chromatic_count":5,"interval_count":17},{"measure":14,"density":0.429,"chromatic_count":9,"interval_count":21},{"measure":15,"density":0.35,"chromatic_count":7,"interval_count":20},{"measure":16,"density":0.333,"chromatic_count":6,"interval_count":18},{"measure":17,"density":0.36,"chromatic_count":9,"interval_count":25},{"measure":18,"density":0.333,"chromatic_count":7,"interval_count":21},{"measure":19,"density":0.286,"chromatic_count":6,"interval_count":21},{"measure":20,"density":0.278,"chromatic_count":5,"interval_count":18},{"measure":21,"density":0.304,"chromatic_count":7,"interval_count":23},{"measure":22,"density":0.333,"chromatic_count":8,"interval_count":24},{"measure":23,"density":0.32,"chromatic_count":8,"interval_count":25},{"measure":24,"density":0.333,"chromatic_count":7,"interval_count":21},{"measure":25,"density":0.45,"chromatic_count":9,"interval_count":20},{"measure":26,"density":0.318,"chromatic_count":7,"interval_count":22},{"measure":27,"density":0.353,"chromatic_count":6,"interval_count":17},{"measure":28,"density":0.292,"chromatic_count":7,"interval_count":24},{"measure":29,"density":0.391,"chromatic_count":9,"interval_count":23},{"measure":30,"density":0.318,"chromatic_count":7,"interval_count":22},{"measure":31,"density":0.185,"chromatic_count":5,"interval_count":27},{"measure":32,"density":0.308,"chromatic_count":8,"interval_count":26},{"measure":33,"density":0.273,"chromatic_count":6,"interval_count":22},{"measure":34,"density":0.542,"chromatic_count":13,"interval_count":24},{"measure":35,"density":0.348,"chromatic_count":8,"interval_count":23},{"measure":36,"density":0.385,"chromatic_count":10,"interval_count":26},{"measure":37,"density":0.368,"chromatic_count":7,"interval_count":19},{"measure":38,"density":0.318,"chromatic_count":7,"interval_count":22},{"measure":39,"density":0.474,"chromatic_count":9,"interval_count":19},{"measure":40,"density":0.238,"chromatic_count":5,"interval_count":21},{"measure":41,"density":0.421,"chromatic_count":8,"interval_count":19},{"measure":42,"density":0.238,"chromatic_count":5,"interval_count":21},{"measure":43,"density":0.409,"chromatic_count":9,"interval_count":22},{"measure":44,"density":0.304,"chromatic_count":7,"interval_count":23},{"measure":45,"density":0.227,"chromatic_count":5,"interval_count":22},{"measure":46,"density":0.417,"chromatic_count":10,"interval_count":24},{"measure":47,"density":0.364,"chromatic_count":8,"interval_count":22},{"measure":48,"density":0.3,"chromatic_count":6,"interval_count":20},{"measure":49,"density":0.24,"chromatic_count":6,"interval_count":25},{"measure":50,"density":0.263,"chromatic_count":5,"interval_count":19},{"measure":51,"density":0.273,"chromatic_count":6,"interval_count":22},{"measure":52,"density":0.333,"chromatic_count":7,"interval_count":21},{"measure":53,"density":0.263,"chromatic_count":5,"interval_count":19},{"measure":54,"density":0.217,"chromatic_count":5,"interval_count":23},{"measure":55,"density":0.25,"chromatic_count":6,"interval_count":24},{"measure":56,"density":0.318,"chromatic_count":7,"interval_count":22},{"measure":57,"density":0.25,"chromatic_count":7,"interval_count":28},{"measure":58,"density":0.304,"chromatic_count":7,"interval_count":23},{"measure":59,"density":0.35,"chromatic_count":7,"interval_count":20},{"measure":60,"density":0.269,"chromatic_count":7,"interval_count":26},{"measure":61,"density":0.154,"chromatic_count":2,"interval_count":13}],"complexity":[{"measure":1,"complexity":0.489,"voice_count":1,"note_density":0.188,"motif_saturation":1.0,"interval_diversity":0.429,"rhythm_variety":0.5},{"measure":2,"complexity":0.552,"voice_count":2,"note_density":0.312,"motif_saturation":0.6,"interval_diversity":0.429,"rhythm_variety":1.0},{"measure":3,"complexity":0.662,"voice_count":3,"note_density":0.656,"motif_saturation":0.429,"interval_diversity":0.571,"rhythm_variety":1.0},{"measure":4,"complexity":0.629,"voice_count":3,"note_density":0.688,"motif_saturation":0.273,"interval_diversity":0.571,"rhythm_variety":1.0},{"measure":5,"complexity":0.676,"voice_count":4,"note_density":0.688,"motif_saturation":0.227,"interval_diversity":0.714,"rhythm_variety":0.833},{"measure":6,"complexity":0.652,"voice_count":4,"note_density":0.75,"motif_saturation":0.167,"interval_diversity":0.571,"rhythm_variety":0.833},{"measure":7,"complexity":0.725,"voice_count":4,"note_density":0.844,"motif_saturation":0.296,"interval_diversity":0.714,"rhythm_variety":0.833},{"measure":8,"complexity":0.665,"voice_count":4,"note_density":0.656,"motif_saturation":0.19,"interval_diversity":0.571,"rhythm_variety":1.0},{"measure":9,"complexity":0.681,"voice_count":4,"note_density":0.719,"motif_saturation":0.304,"interval_diversity":0.571,"rhythm_variety":0.833},{"measure":10,"complexity":0.667,"voice_count":4,"note_density":0.781,"motif_saturation":0.2,"interval_diversity":0.571,"rhythm_variety":0.833},{"measure":11,"complexity":0.663,"voice_count":4,"note_density":0.781,"motif_saturation":0.0,"interval_diversity":0.714,"rhythm_variety":1.0},{"measure":12,"complexity":0.697,"voice_count":4,"note_density":0.812,"motif_saturation":0.308,"interval_diversity":0.714,"rhythm_variety":0.667},{"measure":13,"complexity":0.642,"voice_count":4,"note_density":0.688,"motif_saturation":0.091,"interval_diversity":0.714,"rhythm_variety":0.833},{"measure":14,"complexity":0.731,"voice_count":4,"note_density":0.812,"motif_saturation":0.346,"interval_diversity":0.714,"rhythm_variety":0.833},{"measure":15,"complexity":0.636,"voice_count":3,"note_density":0.75,"motif_saturation":0.25,"interval_diversity":0.571,"rhythm_variety":1.0},{"measure":16,"complexity":0.595,"voice_count":3,"note_density":0.688,"motif_saturation":0.136,"interval_diversity":0.571,"rhythm_variety":1.0},{"measure":17,"complexity":0.688,"voice_count":4,"note_density":0.906,"motif_saturation":0.0,"interval_diversity":0.714,"rhythm_variety":1.0},{"measure":18,"complexity":0.739,"voice_count":4,"note_density":0.812,"motif_saturation":0.192,"interval_diversity":0.857,"rhythm_variety":1.0},{"measure":19,"complexity":0.747,"voice_count":4,"note_density":0.844,"motif_saturation":0.111,"interval_diversity":1.0,"rhythm_variety":1.0},{"measure":20,"complexity":0.713,"voice_count":4,"note_density":0.719,"motif_saturation":0.348,"interval_diversity":0.714,"rhythm_variety":0.833},{"measure":21,"complexity":0.648,"voice_count":4,"note_density":0.844,"motif_saturation":0.074,"interval_diversity":0.571,"rhythm_variety":0.833},{"measure":22,"complexity":0.741,"voice_count":4,"note_density":0.969,"motif_saturation":0.161,"interval_diversity":0.714,"rhythm_variety":1.0},{"measure":23,"complexity":0.676,"voice_count":4,"note_density":0.906,"motif_saturation":0.034,"interval_diversity":0.571,"rhythm_variety":1.0},{"measure":24,"complexity":0.668,"voice_count":4,"note_density":0.781,"motif_saturation":0.12,"interval_diversity":0.714,"rhythm_variety":0.833},{"measure":25,"complexity":0.621,"voice_count":4,"note_density":0.812,"motif_saturation":0.077,"interval_diversity":0.429,"rhythm_variety":0.833},{"measure":26,"complexity":0.602,"voice_count":4,"note_density":0.812,"motif_saturation":0.0,"interval_diversity":0.429,"rhythm_variety":0.833},{"measure":27,"complexity":0.629,"voice_count":4,"note_density":0.656,"motif_saturation":0.048,"interval_diversity":0.571,"rhythm_variety":1.0},{"measure":28,"complexity":0.729,"voice_count":4,"note_density":0.875,"motif_saturation":0.286,"interval_diversity":0.714,"rhythm_variety":0.833},{"measure":29,"complexity":0.731,"voice_count":4,"note_density":0.844,"motif_saturation":0.222,"interval_diversity":0.714,"rhythm_variety":1.0},{"measure":30,"complexity":0.759,"voice_count":4,"note_density":0.812,"motif_saturation":0.385,"interval_diversity":1.0,"rhythm_variety":0.667},{"measure":31,"complexity":0.73,"voice_count":4,"note_density":0.969,"motif_saturation":0.129,"interval_diversity":0.857,"rhythm_variety":0.833},{"measure":32,"complexity":0.645,"voice_count":3,"note_density":0.906,"motif_saturation":0.103,"interval_diversity":1.0,"rhythm_variety":0.667},{"measure":33,"complexity":0.547,"voice_count":3,"note_density":0.781,"motif_saturation":0.0,"interval_diversity":0.857,"rhythm_variety":0.5},{"measure":34,"complexity":0.65,"voice_count":3,"note_density":0.844,"motif_saturation":0.259,"interval_diversity":0.857,"rhythm_variety":0.667},{"measure":35,"complexity":0.688,"voice_count":4,"note_density":0.844,"motif_saturation":0.148,"interval_diversity":0.714,"rhythm_variety":0.833},{"measure":36,"complexity":0.722,"voice_count":4,"note_density":0.969,"motif_saturation":0.097,"interval_diversity":0.857,"rhythm_variety":0.833},{"measure":37,"complexity":0.747,"voice_count":4,"note_density":0.75,"motif_saturation":0.458,"interval_diversity":0.714,"rhythm_variety":0.833},{"measure":38,"complexity":0.749,"voice_count":4,"note_density":0.812,"motif_saturation":0.231,"interval_diversity":0.857,"rhythm_variety":1.0},{"measure":39,"complexity":0.673,"voice_count":4,"note_density":0.719,"motif_saturation":0.261,"interval_diversity":0.429,"rhythm_variety":1.0},{"measure":40,"complexity":0.71,"voice_count":4,"note_density":0.781,"motif_saturation":0.2,"interval_diversity":0.857,"rhythm_variety":0.833},{"measure":41,"complexity":0.662,"voice_count":4,"note_density":0.719,"motif_saturation":0.217,"interval_diversity":0.429,"rhythm_variety":1.0},{"measure":42,"complexity":0.576,"voice_count":3,"note_density":0.75,"motif_saturation":0.125,"interval_diversity":0.714,"rhythm_variety":0.667},{"measure":43,"complexity":0.762,"voice_count":4,"note_density":0.844,"motif_saturation":0.63,"interval_diversity":0.571,"rhythm_variety":0.667},{"measure":44,"complexity":0.704,"voice_count":4,"note_density":0.844,"motif_saturation":0.111,"interval_diversity":0.714,"rhythm_variety":1.0},{"measure":45,"complexity":0.591,"voice_count":3,"note_density":0.781,"motif_saturation":0.16,"interval_diversity":0.714,"rhythm_variety":0.667},{"measure":46,"complexity":0.709,"voice_count":3,"note_density":0.844,"motif_saturation":0.481,"interval_diversity":0.714,"rhythm_variety":0.833},{"measure":47,"complexity":0.686,"voice_count":3,"note_density":0.781,"motif_saturation":0.44,"interval_diversity":0.714,"rhythm_variety":0.833},{"measure":48,"complexity":0.594,"voice_count":3,"note_density":0.781,"motif_saturation":0.16,"interval_diversity":0.571,"rhythm_variety":0.833},{"measure":49,"complexity":0.634,"voice_count":3,"note_density":0.875,"motif_saturation":0.071,"interval_diversity":0.857,"rhythm_variety":0.833},{"measure":50,"complexity":0.745,"voice_count":4,"note_density":0.719,"motif_saturation":0.304,"interval_diversity":1.0,"rhythm_variety":0.833},{"measure":51,"complexity":0.876,"voice_count":4,"note_density":0.812,"motif_saturation":0.654,"interval_diversity":1.0,"rhythm_variety":1.0},{"measure":52,"complexity":0.752,"voice_count":4,"note_density":0.781,"motif_saturation":0.44,"interval_diversity":0.571,"rhythm_variety":1.0},{"measure":53,"complexity":0.716,"voice_count":4,"note_density":0.719,"motif_saturation":0.261,"interval_diversity":0.714,"rhythm_variety":1.0},{"measure":54,"complexity":0.657,"voice_count":4,"note_density":0.844,"motif_saturation":0.037,"interval_diversity":0.857,"rhythm_variety":0.667},{"measure":55,"complexity":0.673,"voice_count":4,"note_density":0.875,"motif_saturation":0.25,"interval_diversity":0.571,"rhythm_variety":0.667},{"measure":56,"complexity":0.692,"voice_count":4,"note_density":0.844,"motif_saturation":0.148,"interval_diversity":0.571,"rhythm_variety":1.0},{"measure":57,"complexity":0.755,"voice_count":4,"note_density":1.0,"motif_saturation":0.219,"interval_diversity":1.0,"rhythm_variety":0.667},{"measure":58,"complexity":0.721,"voice_count":4,"note_density":0.844,"motif_saturation":0.296,"interval_diversity":0.857,"rhythm_variety":0.667},{"measure":59,"complexity":0.721,"voice_count":4,"note_density":0.75,"motif_saturation":0.083,"interval_diversity":1.0,"rhythm_variety":1.0},{"measure":60,"complexity":0.754,"voice_count":4,"note_density":0.938,"motif_saturation":0.067,"interval_diversity":1.0,"rhythm_variety":1.0},{"measure":61,"complexity":0.636,"voice_count":4,"note_density":0.531,"motif_saturation":0.118,"interval_diversity":1.0,"rhythm_variety":0.667}],"dissonance":[{"measure":1,"dissonance":0,"dissonant_pairs":0,"total_pairs":0},{"measure":2,"dissonance":0.143,"dissonant_pairs":1.0,"total_pairs":7},{"measure":3,"dissonance":0.067,"dissonant_pairs":3.0,"total_pairs":45},{"measure":4,"dissonance":0.215,"dissonant_pairs":10.3,"total_pairs":48},{"measure":5,"dissonance":0.078,"dissonant_pairs":7.5,"total_pairs":96},{"measure":6,"dissonance":0.116,"dissonant_pairs":10.8,"total_pairs":93},{"measure":7,"dissonance":0.064,"dissonant_pairs":4.8,"total_pairs":75},{"measure":8,"dissonance":0.072,"dissonant_pairs":4.3,"total_pairs":60},{"measure":9,"dissonance":0.113,"dissonant_pairs":10.5,"total_pairs":93},{"measure":10,"dissonance":0.18,"dissonant_pairs":16.7,"total_pairs":93},{"measure":11,"dissonance":0.081,"dissonant_pairs":7.5,"total_pairs":93},{"measure":12,"dissonance":0.14,"dissonant_pairs":11.5,"total_pairs":82},{"measure":13,"dissonance":0.068,"dissonant_pairs":4.3,"total_pairs":63},{"measure":14,"dissonance":0.144,"dissonant_pairs":11.7,"total_pairs":81},{"measure":15,"dissonance":0.127,"dissonant_pairs":6.5,"total_pairs":51},{"measure":16,"dissonance":0.121,"dissonant_pairs":5.8,"total_pairs":48},{"measure":17,"dissonance":0.098,"dissonant_pairs":9.4,"total_pairs":96},{"measure":18,"dissonance":0.088,"dissonant_pairs":6.1,"total_pairs":69},{"measure":19,"dissonance":0.089,"dissonant_pairs":6.4,"total_pairs":72},{"measure":20,"dissonance":0.083,"dissonant_pairs":7.0,"total_pairs":84},{"measure":21,"dissonance":0.052,"dissonant_pairs":4.6,"total_pairs":88},{"measure":22,"dissonance":0.106,"dissonant_pairs":9.3,"total_pairs":88},{"measure":23,"dissonance":0.153,"dissonant_pairs":12.1,"total_pairs":79},{"measure":24,"dissonance":0.1,"dissonant_pairs":8.1,"total_pairs":81},{"measure":25,"dissonance":0.131,"dissonant_pairs":12.2,"total_pairs":93},{"measure":26,"dissonance":0.081,"dissonant_pairs":7.5,"total_pairs":93},{"measure":27,"dissonance":0.204,"dissonant_pairs":11.0,"total_pairs":54},{"measure":28,"dissonance":0.136,"dissonant_pairs":11.4,"total_pairs":84},{"measure":29,"dissonance":0.084,"dissonant_pairs":6.3,"total_pairs":75},{"measure":30,"dissonance":0.051,"dissonant_pairs":4.1,"total_pairs":81},{"measure":31,"dissonance":0.041,"dissonant_pairs":3.1,"total_pairs":75},{"measure":32,"dissonance":0.217,"dissonant_pairs":10.0,"total_pairs":46},{"measure":33,"dissonance":0.381,"dissonant_pairs":12.2,"total_pairs":32},{"measure":34,"dissonance":0.119,"dissonant_pairs":5.1,"total_pairs":43},{"measure":35,"dissonance":0.048,"dissonant_pairs":3.6,"total_pairs":75},{"measure":36,"dissonance":0.09,"dissonant_pairs":6.5,"total_pairs":72},{"measure":37,"dissonance":0.09,"dissonant_pairs":7.8,"total_pairs":87},{"measure":38,"dissonance":0.095,"dissonant_pairs":9.1,"total_pairs":96},{"measure":39,"dissonance":0.163,"dissonant_pairs":15.6,"total_pairs":96},{"measure":40,"dissonance":0.159,"dissonant_pairs":14.3,"total_pairs":90},{"measure":41,"dissonance":0.171,"dissonant_pairs":13.3,"total_pairs":78},{"measure":42,"dissonance":0.132,"dissonant_pairs":5.0,"total_pairs":38},{"measure":43,"dissonance":0.126,"dissonant_pairs":8.3,"total_pairs":66},{"measure":44,"dissonance":0.063,"dissonant_pairs":5.5,"total_pairs":87},{"measure":45,"dissonance":0.163,"dissonant_pairs":6.5,"total_pairs":40},{"measure":46,"dissonance":0.148,"dissonant_pairs":6.5,"total_pairs":44},{"measure":47,"dissonance":0.12,"dissonant_pairs":5.5,"total_pairs":46},{"measure":48,"dissonance":0.078,"dissonant_pairs":3.6,"total_pairs":46},{"measure":49,"dissonance":0.128,"dissonant_pairs":5.1,"total_pairs":40},{"measure":50,"dissonance":0.043,"dissonant_pairs":2.5,"total_pairs":58},{"measure":51,"dissonance":0.056,"dissonant_pairs":4.9,"total_pairs":87},{"measure":52,"dissonance":0.183,"dissonant_pairs":14.8,"total_pairs":81},{"measure":53,"dissonance":0.113,"dissonant_pairs":8.8,"total_pairs":78},{"measure":54,"dissonance":0.158,"dissonant_pairs":10.9,"total_pairs":69},{"measure":55,"dissonance":0.153,"dissonant_pairs":14.7,"total_pairs":96},{"measure":56,"dissonance":0.118,"dissonant_pairs":7.1,"total_pairs":60},{"measure":57,"dissonance":0.131,"dissonant_pairs":8.8,"total_pairs":67},{"measure":58,"dissonance":0.167,"dissonant_pairs":6.5,"total_pairs":39},{"measure":59,"dissonance":0.11,"dissonant_pairs":6.6,"total_pairs":60},{"measure":60,"dissonance":0.103,"dissonant_pairs":9.3,"total_pairs":90},{"measure":61,"dissonance":0.107,"dissonant_pairs":3.2,"total_pairs":30}]}