{"metadata":{"title":"The Art of the Fugue, Contrapunctus VIII","number":"VIII","composer":"J.S. Bach","source_midi":"kunst_der_fuge_viii_mutopia.mid","tempo_bpm":120.0,"tempo_us_per_beat":500000,"ticks_per_beat":384,"time_signature":"4/4","key_signature":"D minor","total_duration_seconds":450.0,"total_measures":188,"beats_per_measure":4},"voices":[{"id":0,"name":"Soprano","midi_channel":0,"midi_track":1,"color":"#E85D4A","pitch_min":57,"pitch_max":84,"note_count":910},{"id":1,"name":"Alto","midi_channel":1,"midi_track":2,"color":"#4A90D9","pitch_min":47,"pitch_max":77,"note_count":922},{"id":2,"name":"Bass","midi_channel":2,"midi_track":3,"color":"#8E44AD","pitch_min":36,"pitch_max":69,"note_count":848}],"notes":[{"voice":1,"pitch":62,"start":1.2,"duration":1.2,"velocity":127,"measure":1,"beat":3.0,"subject_pos":-1,"motif":"","motif_pos":-1,"best_pos":1,"similarity":0.286,"stretto":false,"stretto_voices":0,"combination":[]},{"voice":1,"pitch":60,"start":2.4,"duration":0.6,"velocity":127,"measure":2,"beat":1.0,"subject_pos":-1,"motif":"","motif_pos":-1,"best_pos":0,"similarity":0.339,"stretto":false,"stretto_voices":0,"combination":[]},{"voice":1,"pitch":65,"start":3.0,"duration":0.6,"velocity":127,"measure":2,"beat":2.0,"subject_pos":-1,"motif":"","motif_pos":-1,"best_pos":1,"similarity":0.464,"stretto":false,"stretto_voices":0,"combination":[]},{"voice":1,"pitch":59,"start":3.6,"duration":0.6,"velocity":127,"measure":2,"beat":3.0,"subject_pos":-1,"motif":"","motif_pos":-1,"best_pos":2,"similarity":0.436,"stretto":false,"stretto_voices":0,"combination":[]},{"voice":1,"pitch":58,"start":4.2,"duration":0.6,"velocity":127,"measure":2,"beat":4.0,"subject_pos":-1,"motif":"enigmatic_cell","motif_pos":0,"best_pos":0,"similarity":1.0,"stretto":false,"stretto_voices":0,"combination":[]},{"voice":1,"pitch":57,"start":4.8,"duration":0.6,"velocity":127,"measure":3,"beat":1.0,"subject_pos":-1,"motif":"enigmatic_cell","motif_pos":1,"best_pos":1,"similarity":1.0,"stretto":false,"stretto_voices":0,"combination":[]},{"voice":1,"pitch":62,"start":5.4,"duration":0.6,"velocity":127,"measure":3,"beat":2.0,"subject_pos":-1,"motif":"enigmatic_cell","motif_pos":2,"best_pos":2,"similarity":1.0,"stretto":false,"stretto_voices":0,"combination":[]},{"voice":1,"pitch":55,"start":6.0,"duration":1.2,"velocity":127,"measure":3,"beat":3.0,"subject_pos":-1,"motif":"","motif_pos":-1,"best_pos":2,"similarity":0.364,"stretto":false,"stretto_voices":0,"combination":[]},{"voice":1,"pitch":53,"start":7.2,"duration":0.6,"velocity":127,"measure":4,"beat":1.0,"subject_pos":-1,"motif":"","motif_pos":-1,"best_pos":4,"similarity":0.45,"stretto":false,"stretto_voices":0,"combination":[]},{"voice":1,"pitch":55,"start":7.8,"duration":0.6,"velocity":127,"measure":4,"beat":2.0,"subject_pos":-1,"motif":"","motif_pos":-1,"best_pos":5,"similarity":0.521,"stretto":false,"stretto_voices":0,"combination":[]},{"voice":1,"pitch":57,"start":8.4,"duration":0.3,"velocity":127,"measure":4,"beat":3.0,"subject_pos":-1,"motif":"","motif_pos":-1,"best_pos":6,"similarity":0.421,"stretto":false,"stretto_voices":0,"combination":[]},{"voice":1,"pitch":55,"start":8.7,"duration":0.3,"velocity":127,"measure":4,"beat":3.5,"subject_pos":-1,"motif":"","motif_pos":-1,"best_pos":5,"similarity":0.329,"stretto":false,"stretto_voices":0,"combination":[]},{"voice":1,"pitch":57,"start":9.0,"duration":0.6,"velocity":127,"measure":4,"beat":4.0,"subject_pos":-1,"motif":"","motif_pos":-1,"best_pos":6,"similarity":0.307,"stretto":false,"stretto_voices":0,"combination":[]},{"voice":1,"pitch":50,"start":9.6,"duration":0.6,"velocity":127,"measure":5,"beat":1.0,"subject_pos":-1,"motif":"","motif_pos":-1,"best_pos":0,"similarity":0.161,"stretto":false,"stretto_voices":0,"combination":[]},{"voice":1,"pitch":62,"start":10.2,"duration":0.6,"velocity":127,"measure":5,"beat":2.0,"subject_pos":-1,"motif":"","motif_pos":-1,"best_pos":2,"similarity":0.357,"stretto":false,"stretto_voices":0,"combination":[]},{"voice":1,"pitch":60,"start":10.8,"duration":0.6,"velocity":127,"measure":5,"beat":3.0,"subject_pos":-1,"motif":"","motif_pos":-1,"best_pos":3,"similarity":0.579,"stretto":false,"stretto_voices":0,"combination":[]},{"voice":1,"pitch":59,"start":11.4,"duration":0.6,"velocity":127,"measure":5,"beat":4.0,"subject_pos":-1,"motif":"","motif_pos":-1,"best_pos":4,"similarity":0.675,"stretto":false,"stretto_voices":0,"combination":[]},{"voice":1,"pitch":60,"start":12.0,"duration":0.6,"velocity":127,"measure":6,"beat":1.0,"subject_pos":-1,"motif":"","motif_pos":-1,"best_pos":5,"similarity":0.529,"stretto":false,"stretto_voices":0,"combination":[]},{"voice":1,"pitch":65,"start":12.6,"duration":0.6,"velocity":127,"measure":6,"beat":2.0,"subject_pos":-1,"motif":"","motif_pos":-1,"best_pos":1,"similarity":0.482,"stretto":false,"stretto_voices":0,"combination":[]},{"voice":1,"pitch":64,"start":13.2,"duration":0.6,"velocity":127,"measure":6,"beat":3.0,"subject_pos":-1,"motif":"","motif_pos":-1,"best_pos":3,"similarity":0.514,"stretto":false,"stretto_voices":0,"combination":[]},{"voice":2,"pitch":57,"start":13.2,"duration":1.2,"velocity":127,"measure":6,"beat":3.0,"subject_pos":-1,"motif":"","motif_pos":-1,"best_pos":1,"similarity":0.286,"stretto":false,"stretto_voices":0,"combination":[]},{"voice":1,"pitch":63,"start":13.8,"duration":0.6,"velocity":127,"measure":6,"beat":4.0,"subject_pos":-1,"motif":"","motif_pos":-1,"best_pos":4,"similarity":0.629,"stretto":false,"stretto_voices":0,"combination":[]},{"voice":1,"pitch":64,"start":14.4,"duration":1.2,"velocity":127,"measure":7,"beat":1.0,"subject_pos":-1,"motif":"","motif_pos":-1,"best_pos":5,"similarity":0.489,"stretto":false,"stretto_voices":0,"combination":[]},{"voice":2,"pitch":55,"start":14.4,"duration":0.6,"velocity":127,"measure":7,"beat":1.0,"subject_pos":-1,"motif":"","motif_pos":-1,"best_pos":0,"similarity":0.339,"stretto":false,"stretto_voices":0,"combination":[]},{"voice":2,"pitch":60,"start":15.0,"duration":0.6,"velocity":127,"measure":7,"beat":2.0,"subject_pos":-1,"motif":"","motif_pos":-1,"best_pos":1,"similarity":0.464,"stretto":false,"stretto_voices":0,"combination":[]},{"voice":2,"pitch":54,"start":15.6,"duration":0.6,"velocity":127,"measure":7,"beat":3.0,"subject_pos":-1,"motif":"","motif_pos":-1,"best_pos":2,"similarity":0.436,"stretto":false,"stretto_voices":0,"combination":[]},{"voice":1,"pitch":62,"start":15.9,"duration":0.3,"velocity":127,"measure":7,"beat":3.5,"subject_pos":-1,"motif":"","motif_pos":-1,"best_pos":2,"similarity":0.657,"stretto":false,"stretto_voices":0,"combination":[]},{"voice":1,"pitch":60,"start":16.2,"duration":0.3,"velocity":127,"measure":7,"beat":4.0,"subject_pos":-1,"motif":"","motif_pos":-1,"best_pos":3,"similarity":0.729,"stretto":false,"stretto_voices":0,"combination":[]},{"voice":2,"pitch":53,"start":16.2,"duration":0.6,"velocity":127,"measure":7,"beat":4.0,"subject_pos":-1,"motif":"enigmatic_cell","motif_pos":0,"best_pos":0,"similarity":1.0,"stretto":false,"stretto_voices":0,"combination":[]},{"voice":1,"pitch":59,"start":16.5,"duration":0.3,"velocity":127,"measure":7,"beat":4.5,"subject_pos":-1,"motif":"tail_inv","motif_pos":0,"best_pos":0,"similarity":1.0,"stretto":false,"stretto_voices":0,"combination":[]},{"voice":1,"pitch":60,"start":16.8,"duration":1.2,"velocity":127,"measure":8,"beat":1.0,"subject_pos":-1,"motif":"tail_inv","motif_pos":1,"best_pos":1,"similarity":1.0,"stretto":false,"stretto_voices":0,"combination":[]},{"voice":2,"pitch":52,"start":16.8,"duration":0.6,"velocity":127,"measure":8,"beat":1.0,"subject_pos":-1,"motif":"enigmatic_cell","motif_pos":1,"best_pos":1,"similarity":1.0,"stretto":false,"stretto_voices":0,"combination":[]},{"voice":2,"pitch":57,"start":17.4,"duration":0.6,"velocity":127,"measure":8,"beat":2.0,"subject_pos":-1,"motif":"enigmatic_cell","motif_pos":2,"best_pos":2,"similarity":1.0,"stretto":false,"stretto_voices":0,"combination":[]},{"voice":2,"pitch":50,"start":18.0,"duration":1.2,"velocity":127,"measure":8,"beat":3.0,"subject_pos":-1,"motif":"","motif_pos":-1,"best_pos":2,"similarity":0.364,"stretto":false,"stretto_voices":0,"combination":[]},{"voice":1,"pitch":59,"start":18.3,"duration":0.3,"velocity":127,"measure":8,"beat":3.5,"subject_pos":-1,"motif":"tail_inv","motif_pos":2,"best_pos":2,"similarity":1.0,"stretto":false,"stretto_voices":0,"combination":[]},{"voice":1,"pitch":57,"start":18.6,"duration":0.3,"velocity":127,"measure":8,"beat":4.0,"subject_pos":-1,"motif":"tail_inv","motif_pos":3,"best_pos":3,"similarity":1.0,"stretto":false,"stretto_voices":0,"combination":[]},{"voice":1,"pitch":56,"start":18.9,"duration":0.3,"velocity":127,"measure":8,"beat":4.5,"subject_pos":-1,"motif":"tail_inv","motif_pos":4,"best_pos":4,"similarity":1.0,"stretto":false,"stretto_voices":0,"combination":[]},{"voice":1,"pitch":57,"start":19.2,"duration":0.3,"velocity":127,"measure":9,"beat":1.0,"subject_pos":-1,"motif":"","motif_pos":-1,"best_pos":5,"similarity":0.643,"stretto":false,"stretto_voices":0,"combination":[]},{"voice":2,"pitch":48,"start":19.2,"duration":0.6,"velocity":127,"measure":9,"beat":1.0,"subject_pos":-1,"motif":"","motif_pos":-1,"best_pos":4,"similarity":0.45,"stretto":false,"stretto_voices":0,"combination":[]},{"voice":1,"pitch":60,"start":19.5,"duration":0.3,"velocity":127,"measure":9,"beat":1.5,"subject_pos":-1,"motif":"","motif_pos":-1,"best_pos":6,"similarity":0.429,"stretto":false,"stretto_voices":0,"combination":[]},{"voice":1,"pitch":59,"start":19.8,"duration":0.3,"velocity":127,"measure":9,"beat":2.0,"subject_pos":-1,"motif":"","motif_pos":-1,"best_pos":4,"similarity":0.364,"stretto":false,"stretto_voices":0,"combination":[]},{"voice":2,"pitch":50,"start":19.8,"duration":0.6,"velocity":127,"measure":9,"beat":2.0,"subject_pos":-1,"motif":"","motif_pos":-1,"best_pos":5,"similarity":0.521,"stretto":false,"stretto_voices":0,"combination":[]},{"voice":1,"pitch":62,"start":20.1,"duration":0.3,"velocity":127,"measure":9,"beat":2.5,"subject_pos":-1,"motif":"","motif_pos":-1,"best_pos":1,"similarity":0.214,"stretto":false,"stretto_voices":0,"combination":[]},{"voice":1,"pitch":56,"start":20.4,"duration":0.3,"velocity":127,"measure":9,"beat":3.0,"subject_pos":-1,"motif":"","motif_pos":-1,"best_pos":2,"similarity":0.257,"stretto":false,"stretto_voices":0,"combination":[]},{"voice":2,"pitch":52,"start":20.4,"duration":0.3,"velocity":127,"measure":9,"beat":3.0,"subject_pos":-1,"motif":"","motif_pos":-1,"best_pos":6,"similarity":0.421,"stretto":false,"stretto_voices":0,"combination":[]},{"voice":1,"pitch":65,"start":20.7,"duration":0.3,"velocity":127,"measure":9,"beat":3.5,"subject_pos":-1,"motif":"","motif_pos":-1,"best_pos":3,"similarity":0.361,"stretto":false,"stretto_voices":0,"combination":[]},{"voice":2,"pitch":50,"start":20.7,"duration":0.3,"velocity":127,"measure":9,"beat":3.5,"subject_pos":-1,"motif":"","motif_pos":-1,"best_pos":5,"similarity":0.329,"stretto":false,"stretto_voices":0,"combination":[]},{"voice":1,"pitch":64,"start":21.0,"duration":0.3,"velocity":127,"measure":9,"beat":4.0,"subject_pos":-1,"motif":"","motif_pos":-1,"best_pos":1,"similarity":0.429,"stretto":false,"stretto_voices":0,"combination":[]},{"voice":2,"pitch":52,"start":21.0,"duration":0.6,"velocity":127,"measure":9,"beat":4.0,"subject_pos":-1,"motif":"","motif_pos":-1,"best_pos":6,"similarity":0.307,"stretto":false,"stretto_voices":0,"combination":[]},{"voice":1,"pitch":62,"start":21.3,"duration":0.3,"velocity":127,"measure":9,"beat":4.5,"subject_pos":-1,"motif":"","motif_pos":-1,"best_pos":2,"similarity":0.643,"stretto":false,"stretto_voices":0,"combination":[]},{"voice":1,"pitch":60,"start":21.6,"duration":0.3,"velocity":127,"measure":10,"beat":1.0,"subject_pos":-1,"motif":"","motif_pos":-1,"best_pos":3,"similarity":0.732,"stretto":false,"stretto_voices":0,"combination":[]},{"voice":2,"pitch":45,"start":21.6,"duration":0.6,"velocity":127,"measure":10,"beat":1.0,"subject_pos":-1,"motif":"","motif_pos":-1,"best_pos":0,"similarity":0.189,"stretto":false,"stretto_voices":0,"combination":[]},{"voice":1,"pitch":59,"start":21.9,"duration":0.3,"velocity":127,"measure":10,"beat":1.5,"subject_pos":-1,"motif":"","motif_pos":-1,"best_pos":4,"similarity":0.757,"stretto":false,"stretto_voices":0,"combination":[]},{"voice":1,"pitch":60,"start":22.2,"duration":0.3,"velocity":127,"measure":10,"beat":2.0,"subject_pos":-1,"motif":"","motif_pos":-1,"best_pos":5,"similarity":0.55,"stretto":false,"stretto_voices":0,"combination":[]},{"voice":2,"pitch":55,"start":22.2,"duration":0.6,"velocity":127,"measure":10,"beat":2.0,"subject_pos":-1,"motif":"","motif_pos":-1,"best_pos":1,"similarity":0.368,"stretto":false,"stretto_voices":0,"combination":[]},{"voice":1,"pitch":64,"start":22.5,"duration":0.3,"velocity":127,"measure":10,"beat":2.5,"subject_pos":-1,"motif":"","motif_pos":-1,"best_pos":0,"similarity":0.318,"stretto":false,"stretto_voices":0,"combination":[]},{"voice":1,"pitch":69,"start":22.8,"duration":0.3,"velocity":127,"measure":10,"beat":3.0,"subject_pos":-1,"motif":"","motif_pos":-1,"best_pos":1,"similarity":0.357,"stretto":false,"stretto_voices":0,"combination":[]},{"voice":2,"pitch":53,"start":22.8,"duration":0.6,"velocity":127,"measure":10,"beat":3.0,"subject_pos":-1,"motif":"","motif_pos":-1,"best_pos":3,"similarity":0.579,"stretto":false,"stretto_voices":0,"combination":[]},{"voice":1,"pitch":62,"start":23.1,"duration":0.3,"velocity":127,"measure":10,"beat":3.5,"subject_pos":-1,"motif":"","motif_pos":-1,"best_pos":3,"similarity":0.393,"stretto":false,"stretto_voices":0,"combination":[]},{"voice":1,"pitch":61,"start":23.4,"duration":0.3,"velocity":127,"measure":10,"beat":4.0,"subject_pos":-1,"motif":"","motif_pos":-1,"best_pos":4,"similarity":0.404,"stretto":false,"stretto_voices":0,"combination":[]},{"voice":2,"pitch":52,"start":23.4,"duration":0.6,"velocity":127,"measure":10,"beat":4.0,"subject_pos":-1,"motif":"","motif_pos":-1,"best_pos":4,"similarity":0.675,"stretto":false,"stretto_voices":0,"combination":[]},{"voice":1,"pitch":64,"start":23.7,"duration":0.3,"velocity":127,"measure":10,"beat":4.5,"subject_pos":-1,"motif":"","motif_pos":-1,"best_pos":1,"similarity":0.429,"stretto":false,"stretto_voices":0,"combination":[]},{"voice":1,"pitch":62,"start":24.0,"duration":0.3,"velocity":127,"measure":11,"beat":1.0,"subject_pos":-1,"motif":"","motif_pos":-1,"best_pos":2,"similarity":0.482,"stretto":false,"stretto_voices":0,"combination":[]},{"voice":2,"pitch":53,"start":24.0,"duration":0.6,"velocity":127,"measure":11,"beat":1.0,"subject_pos":-1,"motif":"","motif_pos":-1,"best_pos":5,"similarity":0.529,"stretto":false,"stretto_voices":0,"combination":[]},{"voice":1,"pitch":65,"start":24.3,"duration":0.3,"velocity":127,"measure":11,"beat":1.5,"subject_pos":-1,"motif":"","motif_pos":-1,"best_pos":3,"similarity":0.489,"stretto":false,"stretto_voices":0,"combination":[]},{"voice":1,"pitch":64,"start":24.6,"duration":0.3,"velocity":127,"measure":11,"beat":2.0,"subject_pos":-1,"motif":"","motif_pos":-1,"best_pos":4,"similarity":0.443,"stretto":false,"stretto_voices":0,"combination":[]},{"voice":2,"pitch":58,"start":24.6,"duration":0.6,"velocity":127,"measure":11,"beat":2.0,"subject_pos":-1,"motif":"","motif_pos":-1,"best_pos":1,"similarity":0.482,"stretto":false,"stretto_voices":0,"combination":[]},{"voice":1,"pitch":67,"start":24.9,"duration":0.3,"velocity":127,"measure":11,"beat":2.5,"subject_pos":-1,"motif":"","motif_pos":-1,"best_pos":1,"similarity":0.464,"stretto":false,"stretto_voices":0,"combination":[]},{"voice":0,"pitch":74,"start":25.2,"duration":1.2,"velocity":127,"measure":11,"beat":3.0,"subject_pos":-1,"motif":"","motif_pos":-1,"best_pos":1,"similarity":0.286,"stretto":false,"stretto_voices":0,"combination":[]},{"voice":1,"pitch":65,"start":25.2,"duration":0.3,"velocity":127,"measure":11,"beat":3.0,"subject_pos":-1,"motif":"","motif_pos":-1,"best_pos":2,"similarity":0.536,"stretto":false,"stretto_voices":0,"combination":[]},{"voice":2,"pitch":57,"start":25.2,"duration":0.6,"velocity":127,"measure":11,"beat":3.0,"subject_pos":-1,"motif":"","motif_pos":-1,"best_pos":3,"similarity":0.514,"stretto":false,"stretto_voices":0,"combination":[]},{"voice":1,"pitch":60,"start":25.5,"duration":0.3,"velocity":127,"measure":11,"beat":3.5,"subject_pos":-1,"motif":"enigmatic_cell","motif_pos":0,"best_pos":0,"similarity":1.0,"stretto":false,"stretto_voices":0,"combination":[]},{"voice":1,"pitch":59,"start":25.8,"duration":0.3,"velocity":127,"measure":11,"beat":4.0,"subject_pos":-1,"motif":"enigmatic_cell","motif_pos":1,"best_pos":1,"similarity":1.0,"stretto":false,"stretto_voices":0,"combination":[]},{"voice":2,"pitch":56,"start":25.8,"duration":0.6,"velocity":127,"measure":11,"beat":4.0,"subject_pos":-1,"motif":"","motif_pos":-1,"best_pos":4,"similarity":0.629,"stretto":false,"stretto_voices":0,"combination":[]},{"voice":1,"pitch":65,"start":26.1,"duration":0.3,"velocity":127,"measure":11,"beat":4.5,"subject_pos":-1,"motif":"enigmatic_cell","motif_pos":2,"best_pos":2,"similarity":1.0,"stretto":false,"stretto_voices":0,"combination":[]},{"voice":0,"pitch":72,"start":26.4,"duration":0.6,"velocity":127,"measure":12,"beat":1.0,"subject_pos":-1,"motif":"","motif_pos":-1,"best_pos":0,"similarity":0.339,"stretto":false,"stretto_voices":0,"combination":[]},{"voice":1,"pitch":64,"start":26.4,"duration":0.6,"velocity":127,"measure":12,"beat":1.0,"subject_pos":-1,"motif":"","motif_pos":-1,"best_pos":4,"similarity":0.471,"stretto":false,"stretto_voices":0,"combination":[]},{"voice":2,"pitch":57,"start":26.4,"duration":1.2,"velocity":127,"measure":12,"beat":1.0,"subject_pos":-1,"motif":"","motif_pos":-1,"best_pos":5,"similarity":0.489,"stretto":false,"stretto_voices":0,"combination":[]},{"voice":0,"pitch":77,"start":27.0,"duration":0.6,"velocity":127,"measure":12,"beat":2.0,"subject_pos":-1,"motif":"","motif_pos":-1,"best_pos":1,"similarity":0.464,"stretto":false,"stretto_voices":0,"combination":[]},{"voice":1,"pitch":60,"start":27.0,"duration":0.6,"velocity":127,"measure":12,"beat":2.0,"subject_pos":-1,"motif":"","motif_pos":-1,"best_pos":5,"similarity":0.443,"stretto":false,"stretto_voices":0,"combination":[]},{"voice":0,"pitch":71,"start":27.6,"duration":0.6,"velocity":127,"measure":12,"beat":3.0,"subject_pos":-1,"motif":"","motif_pos":-1,"best_pos":2,"similarity":0.436,"stretto":false,"stretto_voices":0,"combination":[]},{"voice":1,"pitch":62,"start":27.6,"duration":0.6,"velocity":127,"measure":12,"beat":3.0,"subject_pos":-1,"motif":"","motif_pos":-1,"best_pos":6,"similarity":0.386,"stretto":false,"stretto_voices":0,"combination":[]},{"voice":2,"pitch":55,"start":27.9,"duration":0.3,"velocity":127,"measure":12,"beat":3.5,"subject_pos":-1,"motif":"","motif_pos":-1,"best_pos":2,"similarity":0.657,"stretto":false,"stretto_voices":0,"combination":[]},{"voice":0,"pitch":70,"start":28.2,"duration":0.6,"velocity":127,"measure":12,"beat":4.0,"subject_pos":-1,"motif":"enigmatic_cell","motif_pos":0,"best_pos":0,"similarity":1.0,"stretto":false,"stretto_voices":0,"combination":[]},{"voice":1,"pitch":67,"start":28.2,"duration":0.6,"velocity":127,"measure":12,"beat":4.0,"subject_pos":-1,"motif":"","motif_pos":-1,"best_pos":1,"similarity":0.464,"stretto":false,"stretto_voices":0,"combination":[]},{"voice":2,"pitch":53,"start":28.2,"duration":0.3,"velocity":127,"measure":12,"beat":4.0,"subject_pos":-1,"motif":"","motif_pos":-1,"best_pos":3,"similarity":0.729,"stretto":false,"stretto_voices":0,"combination":[]},{"voice":2,"pitch":52,"start":28.5,"duration":0.3,"velocity":127,"measure":12,"beat":4.5,"subject_pos":-1,"motif":"tail_inv","motif_pos":0,"best_pos":0,"similarity":1.0,"stretto":false,"stretto_voices":0,"combination":[]},{"voice":0,"pitch":69,"start":28.8,"duration":0.6,"velocity":127,"measure":13,"beat":1.0,"subject_pos":-1,"motif":"enigmatic_cell","motif_pos":1,"best_pos":1,"similarity":1.0,"stretto":false,"stretto_voices":0,"combination":[]},{"voice":1,"pitch":60,"start":28.8,"duration":0.6,"velocity":127,"measure":13,"beat":1.0,"subject_pos":-1,"motif":"","motif_pos":-1,"best_pos":2,"similarity":0.479,"stretto":false,"stretto_voices":0,"combination":[]},{"voice":2,"pitch":53,"start":28.8,"duration":1.2,"velocity":127,"measure":13,"beat":1.0,"subject_pos":-1,"motif":"tail_inv","motif_pos":1,"best_pos":1,"similarity":1.0,"stretto":false,"stretto_voices":0,"combination":[]},{"voice":0,"pitch":74,"start":29.4,"duration":0.6,"velocity":127,"measure":13,"beat":2.0,"subject_pos":-1,"motif":"enigmatic_cell","motif_pos":2,"best_pos":2,"similarity":1.0,"stretto":false,"stretto_voices":0,"combination":[]},{"voice":1,"pitch":57,"start":29.4,"duration":0.6,"velocity":127,"measure":13,"beat":2.0,"subject_pos":-1,"motif":"","motif_pos":-1,"best_pos":3,"similarity":0.414,"stretto":false,"stretto_voices":0,"combination":[]},{"voice":0,"pitch":67,"start":30.0,"duration":1.2,"velocity":127,"measure":13,"beat":3.0,"subject_pos":-1,"motif":"","motif_pos":-1,"best_pos":2,"similarity":0.364,"stretto":false,"stretto_voices":0,"combination":[]},{"voice":1,"pitch":59,"start":30.0,"duration":0.6,"velocity":127,"measure":13,"beat":3.0,"subject_pos":-1,"motif":"","motif_pos":-1,"best_pos":6,"similarity":0.329,"stretto":false,"stretto_voices":0,"combination":[]},{"voice":2,"pitch":52,"start":30.3,"duration":0.3,"velocity":127,"measure":13,"beat":3.5,"subject_pos":-1,"motif":"tail_inv","motif_pos":2,"best_pos":2,"similarity":1.0,"stretto":false,"stretto_voices":0,"combination":[]},{"voice":1,"pitch":64,"start":30.6,"duration":0.6,"velocity":127,"measure":13,"beat":4.0,"subject_pos":-1,"motif":"","motif_pos":-1,"best_pos":1,"similarity":0.35,"stretto":false,"stretto_voices":0,"combination":[]},{"voice":2,"pitch":50,"start":30.6,"duration":0.3,"velocity":127,"measure":13,"beat":4.0,"subject_pos":-1,"motif":"tail_inv","motif_pos":3,"best_pos":3,"similarity":1.0,"stretto":false,"stretto_voices":0,"combination":[]},{"voice":2,"pitch":49,"start":30.9,"duration":0.3,"velocity":127,"measure":13,"beat":4.5,"subject_pos":-1,"motif":"tail_inv","motif_pos":4,"best_pos":4,"similarity":1.0,"stretto":false,"stretto_voices":0,"combination":[]},{"voice":0,"pitch":65,"start":31.2,"duration":0.6,"velocity":127,"measure":14,"beat":1.0,"subject_pos":-1,"motif":"","motif_pos":-1,"best_pos":4,"similarity":0.45,"stretto":false,"stretto_voices":0,"combination":[]},{"voice":1,"pitch":57,"start":31.2,"duration":0.3,"velocity":127,"measure":14,"beat":1.0,"subject_pos":-1,"motif":"","motif_pos":-1,"best_pos":2,"similarity":0.25,"stretto":false,"stretto_voices":0,"combination":[]},{"voice":2,"pitch":50,"start":31.2,"duration":1.2,"velocity":127,"measure":14,"beat":1.0,"subject_pos":-1,"motif":"","motif_pos":-1,"best_pos":5,"similarity":0.507,"stretto":false,"stretto_voices":0,"combination":[]},{"voice":1,"pitch":60,"start":31.5,"duration":0.3,"velocity":127,"measure":14,"beat":1.5,"subject_pos":-1,"motif":"","motif_pos":-1,"best_pos":1,"similarity":0.393,"stretto":false,"stretto_voices":0,"combination":[]},{"voice":0,"pitch":67,"start":31.8,"duration":0.6,"velocity":127,"measure":14,"beat":2.0,"subject_pos":-1,"motif":"","motif_pos":-1,"best_pos":5,"similarity":0.521,"stretto":false,"stretto_voices":0,"combination":[]},{"voice":1,"pitch":58,"start":31.8,"duration":0.3,"velocity":127,"measure":14,"beat":2.0,"subject_pos":-1,"motif":"","motif_pos":-1,"best_pos":2,"similarity":0.4,"stretto":false,"stretto_voices":0,"combination":[]},{"voice":1,"pitch":62,"start":32.1,"duration":0.3,"velocity":127,"measure":14,"beat":2.5,"subject_pos":-1,"motif":"","motif_pos":-1,"best_pos":1,"similarity":0.571,"stretto":false,"stretto_voices":0,"combination":[]},{"voice":0,"pitch":69,"start":32.4,"duration":0.3,"velocity":127,"measure":14,"beat":3.0,"subject_pos":-1,"motif":"","motif_pos":-1,"best_pos":6,"similarity":0.421,"stretto":false,"stretto_voices":0,"combination":[]},{"voice":1,"pitch":60,"start":32.4,"duration":1.5,"velocity":127,"measure":14,"beat":3.0,"subject_pos":-1,"motif":"","motif_pos":-1,"best_pos":2,"similarity":0.65,"stretto":false,"stretto_voices":0,"combination":[]},{"voice":0,"pitch":67,"start":32.7,"duration":0.3,"velocity":127,"measure":14,"beat":3.5,"subject_pos":-1,"motif":"","motif_pos":-1,"best_pos":5,"similarity":0.329,"stretto":false,"stretto_voices":0,"combination":[]},{"voice":2,"pitch":48,"start":32.7,"duration":0.3,"velocity":127,"measure":14,"beat":3.5,"subject_pos":-1,"motif":"","motif_pos":-1,"best_pos":2,"similarity":0.657,"stretto":false,"stretto_voices":0,"combination":[]},{"voice":0,"pitch":69,"start":33.0,"duration":0.6,"velocity":127,"measure":14,"beat":4.0,"subject_pos":-1,"motif":"","motif_pos":-1,"best_pos":6,"similarity":0.307,"stretto":false,"stretto_voices":0,"combination":[]},{"voice":2,"pitch":46,"start":33.0,"duration":0.3,"velocity":127,"measure":14,"beat":4.0,"subject_pos":-1,"motif":"","motif_pos":-1,"best_pos":3,"similarity":0.793,"stretto":false,"stretto_voices":0,"combination":[]},{"voice":2,"pitch":45,"start":33.3,"duration":0.3,"velocity":127,"measure":14,"beat":4.5,"subject_pos":-1,"motif":"","motif_pos":-1,"best_pos":4,"similarity":0.857,"stretto":false,"stretto_voices":0,"combination":[]},{"voice":0,"pitch":62,"start":33.6,"duration":0.6,"velocity":127,"measure":15,"beat":1.0,"subject_pos":-1,"motif":"","motif_pos":-1,"best_pos":0,"similarity":0.179,"stretto":false,"stretto_voices":0,"combination":[]},{"voice":2,"pitch":46,"start":33.6,"duration":1.2,"velocity":127,"measure":15,"beat":1.0,"subject_pos":-1,"motif":"","motif_pos":-1,"best_pos":5,"similarity":0.75,"stretto":false,"stretto_voices":0,"combination":[]},{"voice":1,"pitch":58,"start":33.9,"duration":0.3,"velocity":127,"measure":15,"beat":1.5,"subject_pos":-1,"motif":"","motif_pos":-1,"best_pos":3,"similarity":0.693,"stretto":false,"stretto_voices":0,"combination":[]},{"voice":0,"pitch":74,"start":34.2,"duration":0.6,"velocity":127,"measure":15,"beat":2.0,"subject_pos":-1,"motif":"","motif_pos":-1,"best_pos":1,"similarity":0.429,"stretto":false,"stretto_voices":0,"combination":[]},{"voice":1,"pitch":57,"start":34.2,"duration":0.3,"velocity":127,"measure":15,"beat":2.0,"subject_pos":-1,"motif":"","motif_pos":-1,"best_pos":4,"similarity":0.6,"stretto":false,"stretto_voices":0,"combination":[]},{"voice":1,"pitch":55,"start":34.5,"duration":0.3,"velocity":127,"measure":15,"beat":2.5,"subject_pos":-1,"motif":"","motif_pos":-1,"best_pos":5,"similarity":0.493,"stretto":false,"stretto_voices":0,"combination":[]},{"voice":0,"pitch":72,"start":34.8,"duration":0.6,"velocity":127,"measure":15,"beat":3.0,"subject_pos":-1,"motif":"","motif_pos":-1,"best_pos":2,"similarity":0.571,"stretto":false,"stretto_voices":0,"combination":[]},{"voice":1,"pitch":57,"start":34.8,"duration":0.3,"velocity":127,"measure":15,"beat":3.0,"subject_pos":-1,"motif":"","motif_pos":-1,"best_pos":6,"similarity":0.371,"stretto":false,"stretto_voices":0,"combination":[]},{"voice":2,"pitch":48,"start":34.8,"duration":1.2,"velocity":127,"measure":15,"beat":3.0,"subject_pos":-1,"motif":"","motif_pos":-1,"best_pos":6,"similarity":0.5,"stretto":false,"stretto_voices":0,"combination":[]},{"voice":1,"pitch":53,"start":35.1,"duration":0.3,"velocity":127,"measure":15,"beat":3.5,"subject_pos":-1,"motif":"","motif_pos":-1,"best_pos":2,"similarity":0.407,"stretto":false,"stretto_voices":0,"combination":[]},{"voice":0,"pitch":70,"start":35.4,"duration":0.6,"velocity":127,"measure":15,"beat":4.0,"subject_pos":-1,"motif":"","motif_pos":-1,"best_pos":3,"similarity":0.579,"stretto":false,"stretto_voices":0,"combination":[]},{"voice":1,"pitch":55,"start":35.4,"duration":0.3,"velocity":127,"measure":15,"beat":4.0,"subject_pos":-1,"motif":"","motif_pos":-1,"best_pos":3,"similarity":0.364,"stretto":false,"stretto_voices":0,"combination":[]},{"voice":1,"pitch":52,"start":35.7,"duration":0.3,"velocity":127,"measure":15,"beat":4.5,"subject_pos":-1,"motif":"","motif_pos":-1,"best_pos":4,"similarity":0.436,"stretto":false,"stretto_voices":0,"combination":[]},{"voice":0,"pitch":69,"start":36.0,"duration":0.6,"velocity":127,"measure":16,"beat":1.0,"subject_pos":-1,"motif":"","motif_pos":-1,"best_pos":4,"similarity":0.45,"stretto":false,"stretto_voices":0,"combination":[]},{"voice":1,"pitch":53,"start":36.0,"duration":0.3,"velocity":127,"measure":16,"beat":1.0,"subject_pos":-1,"motif":"","motif_pos":-1,"best_pos":5,"similarity":0.336,"stretto":false,"stretto_voices":0,"combination":[]},{"voice":2,"pitch":41,"start":36.0,"duration":0.3,"velocity":127,"measure":16,"beat":1.0,"subject_pos":-1,"motif":"","motif_pos":-1,"best_pos":0,"similarity":0.321,"stretto":false,"stretto_voices":0,"combination":[]},{"voice":1,"pitch":72,"start":36.3,"duration":0.3,"velocity":127,"measure":16,"beat":1.5,"subject_pos":-1,"motif":"","motif_pos":-1,"best_pos":2,"similarity":0.371,"stretto":false,"stretto_voices":0,"combination":[]},{"voice":2,"pitch":45,"start":36.3,"duration":0.3,"velocity":127,"measure":16,"beat":1.5,"subject_pos":-1,"motif":"","motif_pos":-1,"best_pos":1,"similarity":0.507,"stretto":false,"stretto_voices":0,"combination":[]},{"voice":0,"pitch":77,"start":36.6,"duration":0.6,"velocity":127,"measure":16,"beat":2.0,"subject_pos":-1,"motif":"","motif_pos":-1,"best_pos":1,"similarity":0.429,"stretto":false,"stretto_voices":0,"combination":[]},{"voice":1,"pitch":70,"start":36.6,"duration":0.3,"velocity":127,"measure":16,"beat":2.0,"subject_pos":-1,"motif":"","motif_pos":-1,"best_pos":3,"similarity":0.579,"stretto":false,"stretto_voices":0,"combination":[]},{"voice":2,"pitch":43,"start":36.6,"duration":0.3,"velocity":127,"measure":16,"beat":2.0,"subject_pos":-1,"motif":"","motif_pos":-1,"best_pos":2,"similarity":0.521,"stretto":false,"stretto_voices":0,"combination":[]},{"voice":1,"pitch":69,"start":36.9,"duration":0.3,"velocity":127,"measure":16,"beat":2.5,"subject_pos":-1,"motif":"","motif_pos":-1,"best_pos":4,"similarity":0.679,"stretto":false,"stretto_voices":0,"combination":[]},{"voice":2,"pitch":41,"start":36.9,"duration":0.3,"velocity":127,"measure":16,"beat":2.5,"subject_pos":-1,"motif":"","motif_pos":-1,"best_pos":4,"similarity":0.429,"stretto":false,"stretto_voices":0,"combination":[]},{"voice":0,"pitch":76,"start":37.2,"duration":0.6,"velocity":127,"measure":16,"beat":3.0,"subject_pos":-1,"motif":"","motif_pos":-1,"best_pos":2,"similarity":0.536,"stretto":false,"stretto_voices":0,"combination":[]},{"voice":1,"pitch":70,"start":37.2,"duration":0.3,"velocity":127,"measure":16,"beat":3.0,"subject_pos":-1,"motif":"","motif_pos":-1,"best_pos":5,"similarity":0.536,"stretto":false,"stretto_voices":0,"combination":[]},{"voice":2,"pitch":43,"start":37.2,"duration":0.3,"velocity":127,"measure":16,"beat":3.0,"subject_pos":-1,"motif":"","motif_pos":-1,"best_pos":5,"similarity":0.393,"stretto":false,"stretto_voices":0,"combination":[]},{"voice":1,"pitch":67,"start":37.5,"duration":0.3,"velocity":127,"measure":16,"beat":3.5,"subject_pos":-1,"motif":"","motif_pos":-1,"best_pos":5,"similarity":0.368,"stretto":false,"stretto_voices":0,"combination":[]},{"voice":2,"pitch":40,"start":37.5,"duration":0.3,"velocity":127,"measure":16,"beat":3.5,"subject_pos":-1,"motif":"","motif_pos":-1,"best_pos":4,"similarity":0.429,"stretto":false,"stretto_voices":0,"combination":[]},{"voice":0,"pitch":74,"start":37.8,"duration":0.6,"velocity":127,"measure":16,"beat":4.0,"subject_pos":-1,"motif":"","motif_pos":-1,"best_pos":3,"similarity":0.643,"stretto":false,"stretto_voices":0,"combination":[]},{"voice":1,"pitch":69,"start":37.8,"duration":0.3,"velocity":127,"measure":16,"beat":4.0,"subject_pos":-1,"motif":"","motif_pos":-1,"best_pos":1,"similarity":0.35,"stretto":false,"stretto_voices":0,"combination":[]},{"voice":2,"pitch":41,"start":37.8,"duration":0.3,"velocity":127,"measure":16,"beat":4.0,"subject_pos":-1,"motif":"","motif_pos":-1,"best_pos":5,"similarity":0.321,"stretto":false,"stretto_voices":0,"combination":[]},{"voice":1,"pitch":65,"start":38.1,"duration":0.3,"velocity":127,"measure":16,"beat":4.5,"subject_pos":-1,"motif":"enigmatic_cell","motif_pos":0,"best_pos":0,"similarity":1.0,"stretto":false,"stretto_voices":0,"combination":[]},{"voice":2,"pitch":38,"start":38.1,"duration":0.3,"velocity":127,"measure":16,"beat":4.5,"subject_pos":-1,"motif":"","motif_pos":-1,"best_pos":0,"similarity":0.321,"stretto":false,"stretto_voices":0,"combination":[]},{"voice":0,"pitch":73,"start":38.4,"duration":1.2,"velocity":127,"measure":17,"beat":1.0,"subject_pos":-1,"motif":"","motif_pos":-1,"best_pos":4,"similarity":0.643,"stretto":false,"stretto_voices":0,"combination":[]},{"voice":1,"pitch":64,"start":38.4,"duration":0.6,"velocity":127,"measure":17,"beat":1.0,"subject_pos":-1,"motif":"enigmatic_cell","motif_pos":1,"best_pos":1,"similarity":1.0,"stretto":false,"stretto_voices":0,"combination":[]},{"voice":2,"pitch":45,"start":38.4,"duration":0.3,"velocity":127,"measure":17,"beat":1.0,"subject_pos":-1,"motif":"","motif_pos":-1,"best_pos":1,"similarity":0.429,"stretto":false,"stretto_voices":0,"combination":[]},{"voice":2,"pitch":55,"start":38.7,"duration":0.3,"velocity":127,"measure":17,"beat":1.5,"subject_pos":-1,"motif":"","motif_pos":-1,"best_pos":2,"similarity":0.5,"stretto":false,"stretto_voices":0,"combination":[]},{"voice":1,"pitch":70,"start":39.0,"duration":0.6,"velocity":127,"measure":17,"beat":2.0,"subject_pos":-1,"motif":"enigmatic_cell","motif_pos":2,"best_pos":2,"similarity":1.0,"stretto":false,"stretto_voices":0,"combination":[]},{"voice":2,"pitch":53,"start":39.0,"duration":0.3,"velocity":127,"measure":17,"beat":2.0,"subject_pos":-1,"motif":"","motif_pos":-1,"best_pos":3,"similarity":0.643,"stretto":false,"stretto_voices":0,"combination":[]},{"voice":2,"pitch":52,"start":39.3,"duration":0.3,"velocity":127,"measure":17,"beat":2.5,"subject_pos":-1,"motif":"","motif_pos":-1,"best_pos":4,"similarity":0.679,"stretto":false,"stretto_voices":0,"combination":[]},{"voice":1,"pitch":69,"start":39.6,"duration":0.6,"velocity":127,"measure":17,"beat":3.0,"subject_pos":-1,"motif":"","motif_pos":-1,"best_pos":2,"similarity":0.429,"stretto":false,"stretto_voices":0,"combination":[]},{"voice":2,"pitch":53,"start":39.6,"duration":0.3,"velocity":127,"measure":17,"beat":3.0,"subject_pos":-1,"motif":"","motif_pos":-1,"best_pos":5,"similarity":0.536,"stretto":false,"stretto_voices":0,"combination":[]},{"voice":2,"pitch":50,"start":39.9,"duration":0.3,"velocity":127,"measure":17,"beat":3.5,"subject_pos":-1,"motif":"","motif_pos":-1,"best_pos":5,"similarity":0.382,"stretto":false,"stretto_voices":0,"combination":[]},{"voice":0,"pitch":73,"start":40.2,"duration":0.3,"velocity":127,"measure":17,"beat":4.0,"subject_pos":-1,"motif":"","motif_pos":-1,"best_pos":4,"similarity":0.679,"stretto":false,"stretto_voices":0,"combination":[]},{"voice":1,"pitch":67,"start":40.2,"duration":0.6,"velocity":127,"measure":17,"beat":4.0,"subject_pos":-1,"motif":"","motif_pos":-1,"best_pos":2,"similarity":0.5,"stretto":false,"stretto_voices":0,"combination":[]},{"voice":2,"pitch":52,"start":40.2,"duration":0.3,"velocity":127,"measure":17,"beat":4.0,"subject_pos":-1,"motif":"","motif_pos":-1,"best_pos":2,"similarity":0.368,"stretto":false,"stretto_voices":0,"combination":[]},{"voice":0,"pitch":74,"start":40.5,"duration":0.15,"velocity":127,"measure":17,"beat":4.5,"subject_pos":-1,"motif":"","motif_pos":-1,"best_pos":5,"similarity":0.661,"stretto":false,"stretto_voices":0,"combination":[]},{"voice":2,"pitch":49,"start":40.5,"duration":0.3,"velocity":127,"measure":17,"beat":4.5,"subject_pos":-1,"motif":"","motif_pos":-1,"best_pos":3,"similarity":0.407,"stretto":false,"stretto_voices":0,"combination":[]},{"voice":0,"pitch":76,"start":40.65,"duration":0.15,"velocity":127,"measure":17,"beat":4.75,"subject_pos":-1,"motif":"","motif_pos":-1,"best_pos":6,"similarity":0.464,"stretto":false,"stretto_voices":0,"combination":[]},{"voice":0,"pitch":69,"start":40.8,"duration":0.3,"velocity":127,"measure":18,"beat":1.0,"subject_pos":-1,"motif":"","motif_pos":-1,"best_pos":0,"similarity":0.464,"stretto":false,"stretto_voices":0,"combination":[]},{"voice":1,"pitch":65,"start":40.8,"duration":0.6,"velocity":127,"measure":18,"beat":1.0,"subject_pos":-1,"motif":"","motif_pos":-1,"best_pos":3,"similarity":0.5,"stretto":false,"stretto_voices":0,"combination":[]},{"voice":2,"pitch":50,"start":40.8,"duration":2.4,"velocity":127,"measure":18,"beat":1.0,"subject_pos":-1,"motif":"","motif_pos":-1,"best_pos":3,"similarity":0.393,"stretto":false,"stretto_voices":0,"combination":[]},{"voice":0,"pitch":74,"start":41.1,"duration":0.3,"velocity":127,"measure":18,"beat":1.5,"subject_pos":-1,"motif":"","motif_pos":-1,"best_pos":1,"similarity":0.65,"stretto":false,"stretto_voices":0,"combination":[]},{"voice":0,"pitch":72,"start":41.4,"duration":0.3,"velocity":127,"measure":18,"beat":2.0,"subject_pos":-1,"motif":"","motif_pos":-1,"best_pos":2,"similarity":0.593,"stretto":false,"stretto_voices":0,"combination":[]},{"voice":1,"pitch":52,"start":41.4,"duration":0.6,"velocity":127,"measure":18,"beat":2.0,"subject_pos":-1,"motif":"","motif_pos":-1,"best_pos":4,"similarity":0.571,"stretto":false,"stretto_voices":0,"combination":[]},{"voice":0,"pitch":70,"start":41.7,"duration":0.3,"velocity":127,"measure":18,"beat":2.5,"subject_pos":-1,"motif":"","motif_pos":-1,"best_pos":3,"similarity":0.436,"stretto":false,"stretto_voices":0,"combination":[]},{"voice":0,"pitch":72,"start":42.0,"duration":0.3,"velocity":127,"measure":18,"beat":3.0,"subject_pos":-1,"motif":"","motif_pos":-1,"best_pos":5,"similarity":0.393,"stretto":false,"stretto_voices":0,"combination":[]},{"voice":1,"pitch":53,"start":42.0,"duration":0.6,"velocity":127,"measure":18,"beat":3.0,"subject_pos":-1,"motif":"","motif_pos":-1,"best_pos":5,"similarity":0.607,"stretto":false,"stretto_voices":0,"combination":[]},{"voice":0,"pitch":69,"start":42.3,"duration":0.3,"velocity":127,"measure":18,"beat":3.5,"subject_pos":-1,"motif":"","motif_pos":-1,"best_pos":4,"similarity":0.464,"stretto":false,"stretto_voices":0,"combination":[]},{"voice":0,"pitch":70,"start":42.6,"duration":0.3,"velocity":127,"measure":18,"beat":4.0,"subject_pos":-1,"motif":"","motif_pos":-1,"best_pos":4,"similarity":0.429,"stretto":false,"stretto_voices":0,"combination":[]},{"voice":1,"pitch":55,"start":42.6,"duration":0.9,"velocity":127,"measure":18,"beat":4.0,"subject_pos":-1,"motif":"","motif_pos":-1,"best_pos":6,"similarity":0.429,"stretto":false,"stretto_voices":0,"combination":[]},{"voice":0,"pitch":67,"start":42.9,"duration":0.3,"velocity":127,"measure":18,"beat":4.5,"subject_pos":-1,"motif":"","motif_pos":-1,"best_pos":5,"similarity":0.493,"stretto":false,"stretto_voices":0,"combination":[]},{"voice":0,"pitch":69,"start":43.2,"duration":2.7,"velocity":127,"measure":19,"beat":1.0,"subject_pos":-1,"motif":"","motif_pos":-1,"best_pos":6,"similarity":0.461,"stretto":false,"stretto_voices":0,"combination":[]},{"voice":2,"pitch":49,"start":43.2,"duration":0.6,"velocity":127,"measure":19,"beat":1.0,"subject_pos":-1,"motif":"","motif_pos":-1,"best_pos":4,"similarity":0.354,"stretto":false,"stretto_voices":0,"combination":[]},{"voice":1,"pitch":67,"start":43.5,"duration":0.3,"velocity":127,"measure":19,"beat":1.5,"subject_pos":-1,"motif":"","motif_pos":-1,"best_pos":2,"similarity":0.371,"stretto":false,"stretto_voices":0,"combination":[]},{"voice":1,"pitch":65,"start":43.8,"duration":0.3,"velocity":127,"measure":19,"beat":2.0,"subject_pos":-1,"motif":"","motif_pos":-1,"best_pos":3,"similarity":0.579,"stretto":false,"stretto_voices":0,"combination":[]},{"voice":2,"pitch":57,"start":43.8,"duration":0.6,"velocity":127,"measure":19,"beat":2.0,"subject_pos":-1,"motif":"","motif_pos":-1,"best_pos":5,"similarity":0.186,"stretto":false,"stretto_voices":0,"combination":[]},{"voice":1,"pitch":64,"start":44.1,"duration":0.3,"velocity":127,"measure":19,"beat":2.5,"subject_pos":-1,"motif":"","motif_pos":-1,"best_pos":4,"similarity":0.679,"stretto":false,"stretto_voices":0,"combination":[]},{"voice":1,"pitch":65,"start":44.4,"duration":0.3,"velocity":127,"measure":19,"beat":3.0,"subject_pos":-1,"motif":"","motif_pos":-1,"best_pos":5,"similarity":0.536,"stretto":false,"stretto_voices":0,"combination":[]},{"voice":2,"pitch":50,"start":44.4,"duration":0.6,"velocity":127,"measure":19,"beat":3.0,"subject_pos":-1,"motif":"","motif_pos":-1,"best_pos":5,"similarity":0.161,"stretto":false,"stretto_voices":0,"combination":[]},{"voice":1,"pitch":62,"start":44.7,"duration":0.3,"velocity":127,"measure":19,"beat":3.5,"subject_pos":-1,"motif":"","motif_pos":-1,"best_pos":5,"similarity":0.382,"stretto":false,"stretto_voices":0,"combination":[]},{"voice":1,"pitch":64,"start":45.0,"duration":0.3,"velocity":127,"measure":19,"beat":4.0,"subject_pos":-1,"motif":"","motif_pos":-1,"best_pos":2,"similarity":0.368,"stretto":false,"stretto_voices":0,"combination":[]},{"voice":2,"pitch":53,"start":45.0,"duration":0.6,"velocity":127,"measure":19,"beat":4.0,"subject_pos":-1,"motif":"","motif_pos":-1,"best_pos":2,"similarity":0.243,"stretto":false,"stretto_voices":0,"combination":[]},{"voice":1,"pitch":61,"start":45.3,"duration":0.3,"velocity":127,"measure":19,"beat":4.5,"subject_pos":-1,"motif":"","motif_pos":-1,"best_pos":3,"similarity":0.407,"stretto":false,"stretto_voices":0,"combination":[]},{"voice":1,"pitch":62,"start":45.6,"duration":3.0,"velocity":127,"measure":20,"beat":1.0,"subject_pos":-1,"motif":"","motif_pos":-1,"best_pos":3,"similarity":0.4,"stretto":false,"stretto_voices":0,"combination":[]},{"voice":2,"pitch":46,"start":45.6,"duration":0.6,"velocity":127,"measure":20,"beat":1.0,"subject_pos":-1,"motif":"","motif_pos":-1,"best_pos":3,"similarity":0.457,"stretto":false,"stretto_voices":0,"combination":[]},{"voice":0,"pitch":69,"start":45.9,"duration":0.3,"velocity":127,"measure":20,"beat":1.5,"subject_pos":-1,"motif":"","motif_pos":-1,"best_pos":1,"similarity":0.364,"stretto":false,"stretto_voices":0,"combination":[]},{"voice":0,"pitch":67,"start":46.2,"duration":0.3,"velocity":127,"measure":20,"beat":2.0,"subject_pos":-1,"motif":"","motif_pos":-1,"best_pos":2,"similarity":0.45,"stretto":false,"stretto_voices":0,"combination":[]},{"voice":2,"pitch":45,"start":46.2,"duration":0.6,"velocity":127,"measure":20,"beat":2.0,"subject_pos":-1,"motif":"","motif_pos":-1,"best_pos":4,"similarity":0.621,"stretto":false,"stretto_voices":0,"combination":[]},{"voice":0,"pitch":65,"start":46.5,"duration":0.3,"velocity":127,"measure":20,"beat":2.5,"subject_pos":-1,"motif":"","motif_pos":-1,"best_pos":4,"similarity":0.446,"stretto":false,"stretto_voices":0,"combination":[]},{"voice":0,"pitch":67,"start":46.8,"duration":0.3,"velocity":127,"measure":20,"beat":3.0,"subject_pos":-1,"motif":"","motif_pos":-1,"best_pos":5,"similarity":0.393,"stretto":false,"stretto_voices":0,"combination":[]},{"voice":2,"pitch":46,"start":46.8,"duration":0.6,"velocity":127,"measure":20,"beat":3.0,"subject_pos":-1,"motif":"","motif_pos":-1,"best_pos":5,"similarity":0.507,"stretto":false,"stretto_voices":0,"combination":[]},{"voice":0,"pitch":64,"start":47.1,"duration":0.3,"velocity":127,"measure":20,"beat":3.5,"subject_pos":-1,"motif":"","motif_pos":-1,"best_pos":4,"similarity":0.429,"stretto":false,"stretto_voices":0,"combination":[]},{"voice":0,"pitch":65,"start":47.4,"duration":0.3,"velocity":127,"measure":20,"beat":4.0,"subject_pos":-1,"motif":"","motif_pos":-1,"best_pos":5,"similarity":0.321,"stretto":false,"stretto_voices":0,"combination":[]},{"voice":2,"pitch":43,"start":47.4,"duration":0.6,"velocity":127,"measure":20,"beat":4.0,"subject_pos":-1,"motif":"","motif_pos":-1,"best_pos":5,"similarity":0.368,"stretto":false,"stretto_voices":0,"combination":[]},{"voice":0,"pitch":74,"start":47.7,"duration":0.3,"velocity":127,"measure":20,"beat":4.5,"subject_pos":-1,"motif":"","motif_pos":-1,"best_pos":6,"similarity":0.161,"stretto":false,"stretto_voices":0,"combination":[]},{"voice":0,"pitch":65,"start":48.0,"duration":0.6,"velocity":127,"measure":21,"beat":1.0,"subject_pos":-1,"motif":"","motif_pos":-1,"best_pos":3,"similarity":0.329,"stretto":false,"stretto_voices":0,"combination":[]},{"voice":2,"pitch":45,"start":48.0,"duration":0.3,"velocity":127,"measure":21,"beat":1.0,"subject_pos":-1,"motif":"","motif_pos":-1,"best_pos":6,"similarity":0.318,"stretto":false,"stretto_voices":0,"combination":[]},{"voice":2,"pitch":57,"start":48.3,"duration":0.3,"velocity":127,"measure":21,"beat":1.5,"subject_pos":-1,"motif":"","motif_pos":-1,"best_pos":1,"similarity":0.364,"stretto":false,"stretto_voices":0,"combination":[]},{"voice":0,"pitch":64,"start":48.6,"duration":0.6,"velocity":127,"measure":21,"beat":2.0,"subject_pos":-1,"motif":"","motif_pos":-1,"best_pos":4,"similarity":0.364,"stretto":false,"stretto_voices":0,"combination":[]},{"voice":1,"pitch":61,"start":48.6,"duration":0.6,"velocity":127,"measure":21,"beat":2.0,"subject_pos":-1,"motif":"","motif_pos":-1,"best_pos":4,"similarity":0.357,"stretto":false,"stretto_voices":0,"combination":[]},{"voice":2,"pitch":55,"start":48.6,"duration":0.3,"velocity":127,"measure":21,"beat":2.0,"subject_pos":-1,"motif":"","motif_pos":-1,"best_pos":2,"similarity":0.45,"stretto":false,"stretto_voices":0,"combination":[]},{"voice":2,"pitch":53,"start":48.9,"duration":0.3,"velocity":127,"measure":21,"beat":2.5,"subject_pos":-1,"motif":"","motif_pos":-1,"best_pos":4,"similarity":0.429,"stretto":false,"stretto_voices":0,"combination":[]},{"voice":1,"pitch":69,"start":49.2,"duration":1.2,"velocity":127,"measure":21,"beat":3.0,"subject_pos":-1,"motif":"","motif_pos":-1,"best_pos":1,"similarity":0.429,"stretto":false,"stretto_voices":0,"combination":[]},{"voice":2,"pitch":55,"start":49.2,"duration":0.3,"velocity":127,"measure":21,"beat":3.0,"subject_pos":-1,"motif":"","motif_pos":-1,"best_pos":5,"similarity":0.393,"stretto":false,"stretto_voices":0,"combination":[]},{"voice":0,"pitch":73,"start":49.5,"duration":0.3,"velocity":127,"measure":21,"beat":3.5,"subject_pos":-1,"motif":"","motif_pos":-1,"best_pos":4,"similarity":0.329,"stretto":false,"stretto_voices":0,"combination":[]},{"voice":2,"pitch":52,"start":49.5,"duration":0.3,"velocity":127,"measure":21,"beat":3.5,"subject_pos":-1,"motif":"","motif_pos":-1,"best_pos":4,"similarity":0.464,"stretto":false,"stretto_voices":0,"combination":[]},{"voice":0,"pitch":74,"start":49.8,"duration":0.9,"velocity":127,"measure":21,"beat":4.0,"subject_pos":-1,"motif":"","motif_pos":-1,"best_pos":2,"similarity":0.429,"stretto":false,"stretto_voices":0,"combination":[]},{"voice":2,"pitch":53,"start":49.8,"duration":0.3,"velocity":127,"measure":21,"beat":4.0,"subject_pos":-1,"motif":"","motif_pos":-1,"best_pos":4,"similarity":0.4,"stretto":false,"stretto_voices":0,"combination":[]},{"voice":2,"pitch":50,"start":50.1,"duration":0.3,"velocity":127,"measure":21,"beat":4.5,"subject_pos":-1,"motif":"","motif_pos":-1,"best_pos":5,"similarity":0.436,"stretto":false,"stretto_voices":0,"combination":[]},{"voice":1,"pitch":67,"start":50.4,"duration":0.6,"velocity":127,"measure":22,"beat":1.0,"subject_pos":-1,"motif":"","motif_pos":-1,"best_pos":2,"similarity":0.375,"stretto":false,"stretto_voices":0,"combination":[]},{"voice":2,"pitch":52,"start":50.4,"duration":1.2,"velocity":127,"measure":22,"beat":1.0,"subject_pos":-1,"motif":"","motif_pos":-1,"best_pos":6,"similarity":0.346,"stretto":false,"stretto_voices":0,"combination":[]},{"voice":0,"pitch":71,"start":50.7,"duration":0.3,"velocity":127,"measure":22,"beat":1.5,"subject_pos":-1,"motif":"","motif_pos":-1,"best_pos":3,"similarity":0.546,"stretto":false,"stretto_voices":0,"combination":[]},{"voice":0,"pitch":69,"start":51.0,"duration":0.3,"velocity":127,"measure":22,"beat":2.0,"subject_pos":-1,"motif":"","motif_pos":-1,"best_pos":4,"similarity":0.482,"stretto":false,"stretto_voices":0,"combination":[]},{"voice":1,"pitch":72,"start":51.0,"duration":0.6,"velocity":127,"measure":22,"beat":2.0,"subject_pos":-1,"motif":"","motif_pos":-1,"best_pos":1,"similarity":0.464,"stretto":false,"stretto_voices":0,"combination":[]},{"voice":0,"pitch":67,"start":51.3,"duration":0.3,"velocity":127,"measure":22,"beat":2.5,"subject_pos":-1,"motif":"","motif_pos":-1,"best_pos":5,"similarity":0.493,"stretto":false,"stretto_voices":0,"combination":[]},{"voice":0,"pitch":69,"start":51.6,"duration":0.3,"velocity":127,"measure":22,"beat":3.0,"subject_pos":-1,"motif":"","motif_pos":-1,"best_pos":5,"similarity":0.429,"stretto":false,"stretto_voices":0,"combination":[]},{"voice":1,"pitch":66,"start":51.6,"duration":0.6,"velocity":127,"measure":22,"beat":3.0,"subject_pos":-1,"motif":"","motif_pos":-1,"best_pos":2,"similarity":0.436,"stretto":false,"stretto_voices":0,"combination":[]},{"voice":2,"pitch":50,"start":51.6,"duration":0.6,"velocity":127,"measure":22,"beat":3.0,"subject_pos":-1,"motif":"","motif_pos":-1,"best_pos":0,"similarity":0.339,"stretto":false,"stretto_voices":0,"combination":[]},{"voice":0,"pitch":72,"start":51.9,"duration":0.3,"velocity":127,"measure":22,"beat":3.5,"subject_pos":-1,"motif":"","motif_pos":-1,"best_pos":1,"similarity":0.393,"stretto":false,"stretto_voices":0,"combination":[]},{"voice":0,"pitch":71,"start":52.2,"duration":0.9,"velocity":127,"measure":22,"beat":4.0,"subject_pos":-1,"motif":"","motif_pos":-1,"best_pos":2,"similarity":0.543,"stretto":false,"stretto_voices":0,"combination":[]},{"voice":1,"pitch":65,"start":52.2,"duration":0.6,"velocity":127,"measure":22,"beat":4.0,"subject_pos":-1,"motif":"enigmatic_cell","motif_pos":0,"best_pos":0,"similarity":1.0,"stretto":false,"stretto_voices":0,"combination":[]},{"voice":2,"pitch":55,"start":52.2,"duration":0.6,"velocity":127,"measure":22,"beat":4.0,"subject_pos":-1,"motif":"","motif_pos":-1,"best_pos":1,"similarity":0.464,"stretto":false,"stretto_voices":0,"combination":[]},{"voice":1,"pitch":64,"start":52.8,"duration":0.6,"velocity":127,"measure":23,"beat":1.0,"subject_pos":-1,"motif":"enigmatic_cell","motif_pos":1,"best_pos":1,"similarity":1.0,"stretto":false,"stretto_voices":0,"combination":[]},{"voice":2,"pitch":49,"start":52.8,"duration":0.6,"velocity":127,"measure":23,"beat":1.0,"subject_pos":-1,"motif":"","motif_pos":-1,"best_pos":2,"similarity":0.436,"stretto":false,"stretto_voices":0,"combination":[]},{"voice":0,"pitch":68,"start":53.1,"duration":0.3,"velocity":127,"measure":23,"beat":1.5,"subject_pos":-1,"motif":"","motif_pos":-1,"best_pos":3,"similarity":0.604,"stretto":false,"stretto_voices":0,"combination":[]},{"voice":0,"pitch":66,"start":53.4,"duration":0.3,"velocity":127,"measure":23,"beat":2.0,"subject_pos":-1,"motif":"","motif_pos":-1,"best_pos":4,"similarity":0.511,"stretto":false,"stretto_voices":0,"combination":[]},{"voice":1,"pitch":69,"start":53.4,"duration":0.6,"velocity":127,"measure":23,"beat":2.0,"subject_pos":-1,"motif":"enigmatic_cell","motif_pos":2,"best_pos":2,"similarity":1.0,"stretto":false,"stretto_voices":0,"combination":[]},{"voice":2,"pitch":48,"start":53.4,"duration":0.6,"velocity":127,"measure":23,"beat":2.0,"subject_pos":-1,"motif":"enigmatic_cell","motif_pos":0,"best_pos":0,"similarity":1.0,"stretto":false,"stretto_voices":0,"combination":[]},{"voice":0,"pitch":64,"start":53.7,"duration":0.3,"velocity":127,"measure":23,"beat":2.5,"subject_pos":-1,"motif":"","motif_pos":-1,"best_pos":5,"similarity":0.493,"stretto":false,"stretto_voices":0,"combination":[]},{"voice":0,"pitch":66,"start":54.0,"duration":0.3,"velocity":127,"measure":23,"beat":3.0,"subject_pos":-1,"motif":"","motif_pos":-1,"best_pos":5,"similarity":0.429,"stretto":false,"stretto_voices":0,"combination":[]},{"voice":1,"pitch":62,"start":54.0,"duration":1.2,"velocity":127,"measure":23,"beat":3.0,"subject_pos":-1,"motif":"","motif_pos":-1,"best_pos":2,"similarity":0.364,"stretto":false,"stretto_voices":0,"combination":[]},{"voice":2,"pitch":47,"start":54.0,"duration":0.6,"velocity":127,"measure":23,"beat":3.0,"subject_pos":-1,"motif":"enigmatic_cell","motif_pos":1,"best_pos":1,"similarity":1.0,"stretto":false,"stretto_voices":0,"combination":[]},{"voice":0,"pitch":69,"start":54.3,"duration":0.3,"velocity":127,"measure":23,"beat":3.5,"subject_pos":-1,"motif":"","motif_pos":-1,"best_pos":3,"similarity":0.343,"stretto":false,"stretto_voices":0,"combination":[]},{"voice":0,"pitch":68,"start":54.6,"duration":0.3,"velocity":127,"measure":23,"beat":4.0,"subject_pos":-1,"motif":"","motif_pos":-1,"best_pos":4,"similarity":0.396,"stretto":false,"stretto_voices":0,"combination":[]},{"voice":2,"pitch":52,"start":54.6,"duration":0.6,"velocity":127,"measure":23,"beat":4.0,"subject_pos":-1,"motif":"enigmatic_cell","motif_pos":2,"best_pos":2,"similarity":1.0,"stretto":false,"stretto_voices":0,"combination":[]},{"voice":0,"pitch":71,"start":54.9,"duration":0.3,"velocity":127,"measure":23,"beat":4.5,"subject_pos":-1,"motif":"","motif_pos":-1,"best_pos":1,"similarity":0.429,"stretto":false,"stretto_voices":0,"combination":[]},{"voice":0,"pitch":69,"start":55.2,"duration":0.3,"velocity":127,"measure":24,"beat":1.0,"subject_pos":-1,"motif":"","motif_pos":-1,"best_pos":2,"similarity":0.482,"stretto":false,"stretto_voices":0,"combination":[]},{"voice":1,"pitch":60,"start":55.2,"duration":0.6,"velocity":127,"measure":24,"beat":1.0,"subject_pos":-1,"motif":"","motif_pos":-1,"best_pos":4,"similarity":0.45,"stretto":false,"stretto_voices":0,"combination":[]},{"voice":2,"pitch":45,"start":55.2,"duration":1.2,"velocity":127,"measure":24,"beat":1.0,"subject_pos":-1,"motif":"","motif_pos":-1,"best_pos":2,"similarity":0.261,"stretto":false,"stretto_voices":0,"combination":[]},{"voice":0,"pitch":72,"start":55.5,"duration":0.3,"velocity":127,"measure":24,"beat":1.5,"subject_pos":-1,"motif":"","motif_pos":-1,"best_pos":3,"similarity":0.489,"stretto":false,"stretto_voices":0,"combination":[]},{"voice":0,"pitch":71,"start":55.8,"duration":0.3,"velocity":127,"measure":24,"beat":2.0,"subject_pos":-1,"motif":"","motif_pos":-1,"best_pos":4,"similarity":0.461,"stretto":false,"stretto_voices":0,"combination":[]},{"voice":1,"pitch":62,"start":55.8,"duration":0.6,"velocity":127,"measure":24,"beat":2.0,"subject_pos":-1,"motif":"","motif_pos":-1,"best_pos":5,"similarity":0.521,"stretto":false,"stretto_voices":0,"combination":[]},{"voice":0,"pitch":74,"start":56.1,"duration":0.3,"velocity":127,"measure":24,"beat":2.5,"subject_pos":-1,"motif":"","motif_pos":-1,"best_pos":1,"similarity":0.429,"stretto":false,"stretto_voices":0,"combination":[]},{"voice":0,"pitch":72,"start":56.4,"duration":1.5,"velocity":127,"measure":24,"beat":3.0,"subject_pos":-1,"motif":"","motif_pos":-1,"best_pos":2,"similarity":0.471,"stretto":false,"stretto_voices":0,"combination":[]},{"voice":1,"pitch":64,"start":56.4,"duration":0.3,"velocity":127,"measure":24,"beat":3.0,"subject_pos":-1,"motif":"","motif_pos":-1,"best_pos":6,"similarity":0.421,"stretto":false,"stretto_voices":0,"combination":[]},{"voice":1,"pitch":62,"start":56.7,"duration":0.3,"velocity":127,"measure":24,"beat":3.5,"subject_pos":-1,"motif":"","motif_pos":-1,"best_pos":5,"similarity":0.329,"stretto":false,"stretto_voices":0,"combination":[]},{"voice":1,"pitch":64,"start":57.0,"duration":0.6,"velocity":127,"measure":24,"beat":4.0,"subject_pos":-1,"motif":"","motif_pos":-1,"best_pos":6,"similarity":0.307,"stretto":false,"stretto_voices":0,"combination":[]},{"voice":2,"pitch":57,"start":57.0,"duration":0.3,"velocity":127,"measure":24,"beat":4.0,"subject_pos":-1,"motif":"","motif_pos":-1,"best_pos":1,"similarity":0.329,"stretto":false,"stretto_voices":0,"combination":[]},{"voice":2,"pitch":55,"start":57.3,"duration":0.3,"velocity":127,"measure":24,"beat":4.5,"subject_pos":-1,"motif":"","motif_pos":-1,"best_pos":3,"similarity":0.5,"stretto":false,"stretto_voices":0,"combination":[]},{"voice":1,"pitch":57,"start":57.6,"duration":0.6,"velocity":127,"measure":25,"beat":1.0,"subject_pos":-1,"motif":"","motif_pos":-1,"best_pos":2,"similarity":0.4,"stretto":false,"stretto_voices":0,"combination":[]},{"voice":2,"pitch":54,"start":57.6,"duration":0.6,"velocity":127,"measure":25,"beat":1.0,"subject_pos":-1,"motif":"","motif_pos":-1,"best_pos":4,"similarity":0.536,"stretto":false,"stretto_voices":0,"combination":[]},{"voice":0,"pitch":75,"start":57.9,"duration":0.3,"velocity":127,"measure":25,"beat":1.5,"subject_pos":-1,"motif":"","motif_pos":-1,"best_pos":3,"similarity":0.532,"stretto":false,"stretto_voices":0,"combination":[]},{"voice":0,"pitch":74,"start":58.2,"duration":0.3,"velocity":127,"measure":25,"beat":2.0,"subject_pos":-1,"motif":"","motif_pos":-1,"best_pos":4,"similarity":0.529,"stretto":false,"stretto_voices":0,"combination":[]},{"voice":1,"pitch":54,"start":58.2,"duration":0.6,"velocity":127,"measure":25,"beat":2.0,"subject_pos":-1,"motif":"","motif_pos":-1,"best_pos":4,"similarity":0.521,"stretto":false,"stretto_voices":0,"combination":[]},{"voice":2,"pitch":50,"start":58.2,"duration":0.6,"velocity":127,"measure":25,"beat":2.0,"subject_pos":-1,"motif":"","motif_pos":-1,"best_pos":5,"similarity":0.536,"stretto":false,"stretto_voices":0,"combination":[]},{"voice":0,"pitch":72,"start":58.5,"duration":0.3,"velocity":127,"measure":25,"beat":2.5,"subject_pos":-1,"motif":"","motif_pos":-1,"best_pos":5,"similarity":0.457,"stretto":false,"stretto_voices":0,"combination":[]},{"voice":0,"pitch":74,"start":58.8,"duration":0.3,"velocity":127,"measure":25,"beat":3.0,"subject_pos":-1,"motif":"","motif_pos":-1,"best_pos":6,"similarity":0.371,"stretto":false,"stretto_voices":0,"combination":[]},{"voice":1,"pitch":55,"start":58.8,"duration":0.6,"velocity":127,"measure":25,"beat":3.0,"subject_pos":-1,"motif":"","motif_pos":-1,"best_pos":5,"similarity":0.614,"stretto":false,"stretto_voices":0,"combination":[]},{"voice":2,"pitch":52,"start":58.8,"duration":0.6,"velocity":127,"measure":25,"beat":3.0,"subject_pos":-1,"motif":"","motif_pos":-1,"best_pos":6,"similarity":0.5,"stretto":false,"stretto_voices":0,"combination":[]},{"voice":0,"pitch":70,"start":59.1,"duration":0.3,"velocity":127,"measure":25,"beat":3.5,"subject_pos":-1,"motif":"","motif_pos":-1,"best_pos":2,"similarity":0.407,"stretto":false,"stretto_voices":0,"combination":[]},{"voice":0,"pitch":72,"start":59.4,"duration":0.3,"velocity":127,"measure":25,"beat":4.0,"subject_pos":-1,"motif":"","motif_pos":-1,"best_pos":3,"similarity":0.382,"stretto":false,"stretto_voices":0,"combination":[]},{"voice":1,"pitch":57,"start":59.4,"duration":0.9,"velocity":127,"measure":25,"beat":4.0,"subject_pos":-1,"motif":"","motif_pos":-1,"best_pos":6,"similarity":0.446,"stretto":false,"stretto_voices":0,"combination":[]},{"voice":2,"pitch":54,"start":59.4,"duration":0.6,"velocity":127,"measure":25,"beat":4.0,"subject_pos":-1,"motif":"","motif_pos":-1,"best_pos":6,"similarity":0.364,"stretto":false,"stretto_voices":0,"combination":[]},{"voice":0,"pitch":69,"start":59.7,"duration":0.3,"velocity":127,"measure":25,"beat":4.5,"subject_pos":-1,"motif":"","motif_pos":-1,"best_pos":4,"similarity":0.471,"stretto":false,"stretto_voices":0,"combination":[]},{"voice":0,"pitch":70,"start":60.0,"duration":2.7,"velocity":127,"measure":26,"beat":1.0,"subject_pos":-1,"motif":"","motif_pos":-1,"best_pos":5,"similarity":0.407,"stretto":false,"stretto_voices":0,"combination":[]},{"voice":2,"pitch":43,"start":60.0,"duration":0.6,"velocity":127,"measure":26,"beat":1.0,"subject_pos":-1,"motif":"","motif_pos":-1,"best_pos":5,"similarity":0.443,"stretto":false,"stretto_voices":0,"combination":[]},{"voice":1,"pitch":69,"start":60.3,"duration":0.3,"velocity":127,"measure":26,"beat":1.5,"subject_pos":-1,"motif":"","motif_pos":-1,"best_pos":2,"similarity":0.371,"stretto":false,"stretto_voices":0,"combination":[]},{"voice":1,"pitch":67,"start":60.6,"duration":0.3,"velocity":127,"measure":26,"beat":2.0,"subject_pos":-1,"motif":"","motif_pos":-1,"best_pos":3,"similarity":0.579,"stretto":false,"stretto_voices":0,"combination":[]},{"voice":2,"pitch":45,"start":60.6,"duration":0.6,"velocity":127,"measure":26,"beat":2.0,"subject_pos":-1,"motif":"","motif_pos":-1,"best_pos":6,"similarity":0.579,"stretto":false,"stretto_voices":0,"combination":[]},{"voice":1,"pitch":66,"start":60.9,"duration":0.3,"velocity":127,"measure":26,"beat":2.5,"subject_pos":-1,"motif":"","motif_pos":-1,"best_pos":4,"similarity":0.714,"stretto":false,"stretto_voices":0,"combination":[]},{"voice":1,"pitch":67,"start":61.2,"duration":0.3,"velocity":127,"measure":26,"beat":3.0,"subject_pos":-1,"motif":"","motif_pos":-1,"best_pos":5,"similarity":0.607,"stretto":false,"stretto_voices":0,"combination":[]},{"voice":2,"pitch":46,"start":61.2,"duration":0.6,"velocity":127,"measure":26,"beat":3.0,"subject_pos":-1,"motif":"","motif_pos":-1,"best_pos":7,"similarity":0.429,"stretto":false,"stretto_voices":0,"combination":[]},{"voice":1,"pitch":64,"start":61.5,"duration":0.3,"velocity":127,"measure":26,"beat":3.5,"subject_pos":-1,"motif":"","motif_pos":-1,"best_pos":6,"similarity":0.5,"stretto":false,"stretto_voices":0,"combination":[]},{"voice":1,"pitch":65,"start":61.8,"duration":0.3,"velocity":127,"measure":26,"beat":4.0,"subject_pos":-1,"motif":"","motif_pos":-1,"best_pos":4,"similarity":0.464,"stretto":false,"stretto_voices":0,"combination":[]},{"voice":2,"pitch":43,"start":61.8,"duration":0.6,"velocity":127,"measure":26,"beat":4.0,"subject_pos":-1,"motif":"","motif_pos":-1,"best_pos":3,"similarity":0.45,"stretto":false,"stretto_voices":0,"combination":[]},{"voice":1,"pitch":62,"start":62.1,"duration":0.3,"velocity":127,"measure":26,"beat":4.5,"subject_pos":-1,"motif":"","motif_pos":-1,"best_pos":5,"similarity":0.564,"stretto":false,"stretto_voices":0,"combination":[]},{"voice":1,"pitch":64,"start":62.4,"duration":0.6,"velocity":127,"measure":27,"beat":1.0,"subject_pos":-1,"motif":"","motif_pos":-1,"best_pos":4,"similarity":0.614,"stretto":false,"stretto_voices":0,"combination":[]},{"voice":2,"pitch":48,"start":62.4,"duration":0.6,"velocity":127,"measure":27,"beat":1.0,"subject_pos":-1,"motif":"","motif_pos":-1,"best_pos":4,"similarity":0.436,"stretto":false,"stretto_voices":0,"combination":[]},{"voice":0,"pitch":74,"start":62.7,"duration":0.3,"velocity":127,"measure":27,"beat":1.5,"subject_pos":-1,"motif":"","motif_pos":-1,"best_pos":1,"similarity":0.507,"stretto":false,"stretto_voices":0,"combination":[]},{"voice":0,"pitch":72,"start":63.0,"duration":0.3,"velocity":127,"measure":27,"beat":2.0,"subject_pos":-1,"motif":"","motif_pos":-1,"best_pos":2,"similarity":0.521,"stretto":false,"stretto_voices":0,"combination":[]},{"voice":1,"pitch":65,"start":63.0,"duration":0.6,"velocity":127,"measure":27,"beat":2.0,"subject_pos":-1,"motif":"","motif_pos":-1,"best_pos":5,"similarity":0.671,"stretto":false,"stretto_voices":0,"combination":[]},{"voice":2,"pitch":50,"start":63.0,"duration":0.6,"velocity":127,"measure":27,"beat":2.0,"subject_pos":-1,"motif":"","motif_pos":-1,"best_pos":5,"similarity":0.5,"stretto":false,"stretto_voices":0,"combination":[]},{"voice":0,"pitch":70,"start":63.3,"duration":0.3,"velocity":127,"measure":27,"beat":2.5,"subject_pos":-1,"motif":"","motif_pos":-1,"best_pos":4,"similarity":0.429,"stretto":false,"stretto_voices":0,"combination":[]},{"voice":0,"pitch":72,"start":63.6,"duration":0.3,"velocity":127,"measure":27,"beat":3.0,"subject_pos":-1,"motif":"","motif_pos":-1,"best_pos":5,"similarity":0.393,"stretto":false,"stretto_voices":0,"combination":[]},{"voice":1,"pitch":67,"start":63.6,"duration":0.6,"velocity":127,"measure":27,"beat":3.0,"subject_pos":-1,"motif":"","motif_pos":-1,"best_pos":6,"similarity":0.464,"stretto":false,"stretto_voices":0,"combination":[]},{"voice":2,"pitch":52,"start":63.6,"duration":0.6,"velocity":127,"measure":27,"beat":3.0,"subject_pos":-1,"motif":"","motif_pos":-1,"best_pos":6,"similarity":0.357,"stretto":false,"stretto_voices":0,"combination":[]},{"voice":0,"pitch":69,"start":63.9,"duration":0.3,"velocity":127,"measure":27,"beat":3.5,"subject_pos":-1,"motif":"","motif_pos":-1,"best_pos":4,"similarity":0.464,"stretto":false,"stretto_voices":0,"combination":[]},{"voice":0,"pitch":70,"start":64.2,"duration":0.3,"velocity":127,"measure":27,"beat":4.0,"subject_pos":-1,"motif":"","motif_pos":-1,"best_pos":4,"similarity":0.4,"stretto":false,"stretto_voices":0,"combination":[]},{"voice":1,"pitch":64,"start":64.2,"duration":0.6,"velocity":127,"measure":27,"beat":4.0,"subject_pos":-1,"motif":"","motif_pos":-1,"best_pos":4,"similarity":0.4,"stretto":false,"stretto_voices":0,"combination":[]},{"voice":2,"pitch":48,"start":64.2,"duration":0.6,"velocity":127,"measure":27,"beat":4.0,"subject_pos":-1,"motif":"","motif_pos":-1,"best_pos":2,"similarity":0.336,"stretto":false,"stretto_voices":0,"combination":[]},{"voice":0,"pitch":67,"start":64.5,"duration":0.3,"velocity":127,"measure":27,"beat":4.5,"subject_pos":-1,"motif":"","motif_pos":-1,"best_pos":5,"similarity":0.436,"stretto":false,"stretto_voices":0,"combination":[]},{"voice":0,"pitch":69,"start":64.8,"duration":0.6,"velocity":127,"measure":28,"beat":1.0,"subject_pos":-1,"motif":"","motif_pos":-1,"best_pos":6,"similarity":0.346,"stretto":false,"stretto_voices":0,"combination":[]},{"voice":1,"pitch":65,"start":64.8,"duration":0.6,"velocity":127,"measure":28,"beat":1.0,"subject_pos":-1,"motif":"","motif_pos":-1,"best_pos":5,"similarity":0.393,"stretto":false,"stretto_voices":0,"combination":[]},{"voice":2,"pitch":41,"start":64.8,"duration":0.3,"velocity":127,"measure":28,"beat":1.0,"subject_pos":-1,"motif":"","motif_pos":-1,"best_pos":3,"similarity":0.2,"stretto":false,"stretto_voices":0,"combination":[]},{"voice":2,"pitch":55,"start":65.1,"duration":0.3,"velocity":127,"measure":28,"beat":1.5,"subject_pos":-1,"motif":"","motif_pos":-1,"best_pos":2,"similarity":0.357,"stretto":false,"stretto_voices":0,"combination":[]},{"voice":0,"pitch":74,"start":65.4,"duration":0.6,"velocity":127,"measure":28,"beat":2.0,"subject_pos":-1,"motif":"","motif_pos":-1,"best_pos":1,"similarity":0.429,"stretto":false,"stretto_voices":0,"combination":[]},{"voice":1,"pitch":69,"start":65.4,"duration":0.6,"velocity":127,"measure":28,"beat":2.0,"subject_pos":-1,"motif":"","motif_pos":-1,"best_pos":6,"similarity":0.232,"stretto":false,"stretto_voices":0,"combination":[]},{"voice":2,"pitch":53,"start":65.4,"duration":0.3,"velocity":127,"measure":28,"beat":2.0,"subject_pos":-1,"motif":"","motif_pos":-1,"best_pos":3,"similarity":0.571,"stretto":false,"stretto_voices":0,"combination":[]},{"voice":2,"pitch":52,"start":65.7,"duration":0.3,"velocity":127,"measure":28,"beat":2.5,"subject_pos":-1,"motif":"","motif_pos":-1,"best_pos":4,"similarity":0.679,"stretto":false,"stretto_voices":0,"combination":[]},{"voice":0,"pitch":68,"start":66.0,"duration":0.6,"velocity":127,"measure":28,"beat":3.0,"subject_pos":-1,"motif":"","motif_pos":-1,"best_pos":2,"similarity":0.364,"stretto":false,"stretto_voices":0,"combination":[]},{"voice":2,"pitch":53,"start":66.0,"duration":0.3,"velocity":127,"measure":28,"beat":3.0,"subject_pos":-1,"motif":"","motif_pos":-1,"best_pos":5,"similarity":0.536,"stretto":false,"stretto_voices":0,"combination":[]},{"voice":1,"pitch":59,"start":66.3,"duration":0.3,"velocity":127,"measure":28,"beat":3.5,"subject_pos":-1,"motif":"","motif_pos":-1,"best_pos":5,"similarity":0.329,"stretto":false,"stretto_voices":0,"combination":[]},{"voice":2,"pitch":50,"start":66.3,"duration":0.3,"velocity":127,"measure":28,"beat":3.5,"subject_pos":-1,"motif":"","motif_pos":-1,"best_pos":5,"similarity":0.382,"stretto":false,"stretto_voices":0,"combination":[]},{"voice":0,"pitch":67,"start":66.6,"duration":0.6,"velocity":127,"measure":28,"beat":4.0,"subject_pos":-1,"motif":"","motif_pos":-1,"best_pos":4,"similarity":0.343,"stretto":false,"stretto_voices":0,"combination":[]},{"voice":1,"pitch":61,"start":66.6,"duration":0.3,"velocity":127,"measure":28,"beat":4.0,"subject_pos":-1,"motif":"","motif_pos":-1,"best_pos":6,"similarity":0.357,"stretto":false,"stretto_voices":0,"combination":[]},{"voice":2,"pitch":52,"start":66.6,"duration":0.3,"velocity":127,"measure":28,"beat":4.0,"subject_pos":-1,"motif":"","motif_pos":-1,"best_pos":2,"similarity":0.421,"stretto":false,"stretto_voices":0,"combination":[]},{"voice":1,"pitch":64,"start":66.9,"duration":0.3,"velocity":127,"measure":28,"beat":4.5,"subject_pos":-1,"motif":"","motif_pos":-1,"best_pos":6,"similarity":0.214,"stretto":false,"stretto_voices":0,"combination":[]},{"voice":2,"pitch":49,"start":66.9,"duration":0.3,"velocity":127,"measure":28,"beat":4.5,"subject_pos":-1,"motif":"","motif_pos":-1,"best_pos":3,"similarity":0.521,"stretto":false,"stretto_voices":0,"combination":[]},{"voice":0,"pitch":65,"start":67.2,"duration":0.6,"velocity":127,"measure":29,"beat":1.0,"subject_pos":-1,"motif":"","motif_pos":-1,"best_pos":0,"similarity":0.339,"stretto":false,"stretto_voices":0,"combination":[]},{"voice":1,"pitch":57,"start":67.2,"duration":0.6,"velocity":127,"measure":29,"beat":1.0,"subject_pos":-1,"motif":"","motif_pos":-1,"best_pos":0,"similarity":0.143,"stretto":false,"stretto_voices":0,"combination":[]},{"voice":2,"pitch":50,"start":67.2,"duration":0.3,"velocity":127,"measure":29,"beat":1.0,"subject_pos":-1,"motif":"","motif_pos":-1,"best_pos":4,"similarity":0.529,"stretto":false,"stretto_voices":0,"combination":[]},{"voice":2,"pitch":51,"start":67.5,"duration":0.3,"velocity":127,"measure":29,"beat":1.5,"subject_pos":-1,"motif":"","motif_pos":-1,"best_pos":5,"similarity":0.436,"stretto":false,"stretto_voices":0,"combination":[]},{"voice":0,"pitch":70,"start":67.8,"duration":0.6,"velocity":127,"measure":29,"beat":2.0,"subject_pos":-1,"motif":"","motif_pos":-1,"best_pos":1,"similarity":0.464,"stretto":false,"stretto_voices":0,"combination":[]},{"voice":1,"pitch":65,"start":67.8,"duration":0.6,"velocity":127,"measure":29,"beat":2.0,"subject_pos":-1,"motif":"","motif_pos":-1,"best_pos":4,"similarity":0.175,"stretto":false,"stretto_voices":0,"combination":[]},{"voice":2,"pitch":50,"start":67.8,"duration":0.3,"velocity":127,"measure":29,"beat":2.0,"subject_pos":-1,"motif":"","motif_pos":-1,"best_pos":4,"similarity":0.479,"stretto":false,"stretto_voices":0,"combination":[]},{"voice":2,"pitch":48,"start":68.1,"duration":0.3,"velocity":127,"measure":29,"beat":2.5,"subject_pos":-1,"motif":"","motif_pos":-1,"best_pos":5,"similarity":0.464,"stretto":false,"stretto_voices":0,"combination":[]},{"voice":0,"pitch":64,"start":68.4,"duration":0.6,"velocity":127,"measure":29,"beat":3.0,"subject_pos":-1,"motif":"","motif_pos":-1,"best_pos":2,"similarity":0.436,"stretto":false,"stretto_voices":0,"combination":[]},{"voice":2,"pitch":50,"start":68.4,"duration":0.3,"velocity":127,"measure":29,"beat":3.0,"subject_pos":-1,"motif":"","motif_pos":-1,"best_pos":6,"similarity":0.371,"stretto":false,"stretto_voices":0,"combination":[]},{"voice":1,"pitch":55,"start":68.7,"duration":0.3,"velocity":127,"measure":29,"beat":3.5,"subject_pos":-1,"motif":"","motif_pos":-1,"best_pos":5,"similarity":0.329,"stretto":false,"stretto_voices":0,"combination":[]},{"voice":2,"pitch":46,"start":68.7,"duration":0.3,"velocity":127,"measure":29,"beat":3.5,"subject_pos":-1,"motif":"","motif_pos":-1,"best_pos":2,"similarity":0.407,"stretto":false,"stretto_voices":0,"combination":[]},{"voice":0,"pitch":63,"start":69.0,"duration":0.6,"velocity":127,"measure":29,"beat":4.0,"subject_pos":-1,"motif":"enigmatic_cell","motif_pos":0,"best_pos":0,"similarity":1.0,"stretto":false,"stretto_voices":0,"combination":[]},{"voice":1,"pitch":57,"start":69.0,"duration":0.3,"velocity":127,"measure":29,"beat":4.0,"subject_pos":-1,"motif":"","motif_pos":-1,"best_pos":6,"similarity":0.357,"stretto":false,"stretto_voices":0,"combination":[]},{"voice":2,"pitch":48,"start":69.0,"duration":0.3,"velocity":127,"measure":29,"beat":4.0,"subject_pos":-1,"motif":"","motif_pos":-1,"best_pos":3,"similarity":0.436,"stretto":false,"stretto_voices":0,"combination":[]},{"voice":1,"pitch":60,"start":69.3,"duration":0.3,"velocity":127,"measure":29,"beat":4.5,"subject_pos":-1,"motif":"","motif_pos":-1,"best_pos":6,"similarity":0.214,"stretto":false,"stretto_voices":0,"combination":[]},{"voice":2,"pitch":45,"start":69.3,"duration":0.3,"velocity":127,"measure":29,"beat":4.5,"subject_pos":-1,"motif":"","motif_pos":-1,"best_pos":4,"similarity":0.579,"stretto":false,"stretto_voices":0,"combination":[]},{"voice":0,"pitch":62,"start":69.6,"duration":0.6,"velocity":127,"measure":30,"beat":1.0,"subject_pos":-1,"motif":"enigmatic_cell","motif_pos":1,"best_pos":1,"similarity":1.0,"stretto":false,"stretto_voices":0,"combination":[]},{"voice":1,"pitch":53,"start":69.6,"duration":0.6,"velocity":127,"measure":30,"beat":1.0,"subject_pos":-1,"motif":"","motif_pos":-1,"best_pos":3,"similarity":0.107,"stretto":false,"stretto_voices":0,"combination":[]},{"voice":2,"pitch":46,"start":69.6,"duration":0.3,"velocity":127,"measure":30,"beat":1.0,"subject_pos":-1,"motif":"","motif_pos":-1,"best_pos":5,"similarity":0.621,"stretto":false,"stretto_voices":0,"combination":[]},{"voice":2,"pitch":48,"start":69.9,"duration":0.3,"velocity":127,"measure":30,"beat":1.5,"subject_pos":-1,"motif":"","motif_pos":-1,"best_pos":6,"similarity":0.475,"stretto":false,"stretto_voices":0,"combination":[]},{"voice":0,"pitch":67,"start":70.2,"duration":0.6,"velocity":127,"measure":30,"beat":2.0,"subject_pos":-1,"motif":"enigmatic_cell","motif_pos":2,"best_pos":2,"similarity":1.0,"stretto":false,"stretto_voices":0,"combination":[]},{"voice":1,"pitch":62,"start":70.2,"duration":0.6,"velocity":127,"measure":30,"beat":2.0,"subject_pos":-1,"motif":"","motif_pos":-1,"best_pos":4,"similarity":0.175,"stretto":false,"stretto_voices":0,"combination":[]},{"voice":2,"pitch":46,"start":70.2,"duration":0.3,"velocity":127,"measure":30,"beat":2.0,"subject_pos":-1,"motif":"","motif_pos":-1,"best_pos":3,"similarity":0.593,"stretto":false,"stretto_voices":0,"combination":[]},{"voice":2,"pitch":45,"start":70.5,"duration":0.3,"velocity":127,"measure":30,"beat":2.5,"subject_pos":-1,"motif":"","motif_pos":-1,"best_pos":4,"similarity":0.686,"stretto":false,"stretto_voices":0,"combination":[]},{"voice":0,"pitch":61,"start":70.8,"duration":0.6,"velocity":127,"measure":30,"beat":3.0,"subject_pos":-1,"motif":"","motif_pos":-1,"best_pos":3,"similarity":0.393,"stretto":false,"stretto_voices":0,"combination":[]},{"voice":2,"pitch":46,"start":70.8,"duration":0.3,"velocity":127,"measure":30,"beat":3.0,"subject_pos":-1,"motif":"","motif_pos":-1,"best_pos":5,"similarity":0.536,"stretto":false,"stretto_voices":0,"combination":[]},{"voice":1,"pitch":52,"start":71.1,"duration":0.3,"velocity":127,"measure":30,"beat":3.5,"subject_pos":-1,"motif":"","motif_pos":-1,"best_pos":5,"similarity":0.329,"stretto":false,"stretto_voices":0,"combination":[]},{"voice":2,"pitch":43,"start":71.1,"duration":0.3,"velocity":127,"measure":30,"beat":3.5,"subject_pos":-1,"motif":"","motif_pos":-1,"best_pos":5,"similarity":0.382,"stretto":false,"stretto_voices":0,"combination":[]},{"voice":0,"pitch":60,"start":71.4,"duration":0.9,"velocity":127,"measure":30,"beat":4.0,"subject_pos":-1,"motif":"","motif_pos":-1,"best_pos":4,"similarity":0.475,"stretto":false,"stretto_voices":0,"combination":[]},{"voice":1,"pitch":54,"start":71.4,"duration":0.3,"velocity":127,"measure":30,"beat":4.0,"subject_pos":-1,"motif":"","motif_pos":-1,"best_pos":6,"similarity":0.357,"stretto":false,"stretto_voices":0,"combination":[]},{"voice":2,"pitch":45,"start":71.4,"duration":0.3,"velocity":127,"measure":30,"beat":4.0,"subject_pos":-1,"motif":"","motif_pos":-1,"best_pos":2,"similarity":0.386,"stretto":false,"stretto_voices":0,"combination":[]},{"voice":1,"pitch":57,"start":71.7,"duration":0.3,"velocity":127,"measure":30,"beat":4.5,"subject_pos":-1,"motif":"","motif_pos":-1,"best_pos":6,"similarity":0.214,"stretto":false,"stretto_voices":0,"combination":[]},{"voice":2,"pitch":42,"start":71.7,"duration":0.3,"velocity":127,"measure":30,"beat":4.5,"subject_pos":-1,"motif":"","motif_pos":-1,"best_pos":4,"similarity":0.543,"stretto":false,"stretto_voices":0,"combination":[]},{"voice":1,"pitch":50,"start":72.0,"duration":0.6,"velocity":127,"measure":31,"beat":1.0,"subject_pos":-1,"motif":"","motif_pos":-1,"best_pos":3,"similarity":0.25,"stretto":false,"stretto_voices":0,"combination":[]},{"voice":2,"pitch":43,"start":72.0,"duration":5.1,"velocity":127,"measure":31,"beat":1.0,"subject_pos":-1,"motif":"","motif_pos":-1,"best_pos":5,"similarity":0.621,"stretto":false,"stretto_voices":0,"combination":[]},{"voice":0,"pitch":60,"start":72.3,"duration":0.3,"velocity":127,"measure":31,"beat":1.5,"subject_pos":-1,"motif":"","motif_pos":-1,"best_pos":2,"similarity":0.429,"stretto":false,"stretto_voices":0,"combination":[]},{"voice":0,"pitch":58,"start":72.6,"duration":0.3,"velocity":127,"measure":31,"beat":2.0,"subject_pos":-1,"motif":"","motif_pos":-1,"best_pos":3,"similarity":0.625,"stretto":false,"stretto_voices":0,"combination":[]},{"voice":1,"pitch":54,"start":72.6,"duration":0.6,"velocity":127,"measure":31,"beat":2.0,"subject_pos":-1,"motif":"","motif_pos":-1,"best_pos":4,"similarity":0.514,"stretto":false,"stretto_voices":0,"combination":[]},{"voice":0,"pitch":57,"start":72.9,"duration":0.3,"velocity":127,"measure":31,"beat":2.5,"subject_pos":-1,"motif":"","motif_pos":-1,"best_pos":4,"similarity":0.704,"stretto":false,"stretto_voices":0,"combination":[]},{"voice":0,"pitch":58,"start":73.2,"duration":0.3,"velocity":127,"measure":31,"beat":3.0,"subject_pos":-1,"motif":"","motif_pos":-1,"best_pos":5,"similarity":0.55,"stretto":false,"stretto_voices":0,"combination":[]},{"voice":1,"pitch":55,"start":73.2,"duration":0.6,"velocity":127,"measure":31,"beat":3.0,"subject_pos":-1,"motif":"","motif_pos":-1,"best_pos":5,"similarity":0.721,"stretto":false,"stretto_voices":0,"combination":[]},{"voice":0,"pitch":62,"start":73.5,"duration":0.3,"velocity":127,"measure":31,"beat":3.5,"subject_pos":-1,"motif":"","motif_pos":-1,"best_pos":1,"similarity":0.5,"stretto":false,"stretto_voices":0,"combination":[]},{"voice":0,"pitch":60,"start":73.8,"duration":0.3,"velocity":127,"measure":31,"beat":4.0,"subject_pos":-1,"motif":"","motif_pos":-1,"best_pos":2,"similarity":0.5,"stretto":false,"stretto_voices":0,"combination":[]},{"voice":1,"pitch":57,"start":73.8,"duration":0.6,"velocity":127,"measure":31,"beat":4.0,"subject_pos":-1,"motif":"","motif_pos":-1,"best_pos":6,"similarity":0.714,"stretto":false,"stretto_voices":0,"combination":[]},{"voice":0,"pitch":63,"start":74.1,"duration":0.3,"velocity":127,"measure":31,"beat":4.5,"subject_pos":-1,"motif":"enigmatic_cell","motif_pos":0,"best_pos":0,"similarity":1.0,"stretto":false,"stretto_voices":0,"combination":[]},{"voice":0,"pitch":62,"start":74.4,"duration":0.3,"velocity":127,"measure":32,"beat":1.0,"subject_pos":-1,"motif":"enigmatic_cell","motif_pos":1,"best_pos":1,"similarity":1.0,"stretto":false,"stretto_voices":0,"combination":[]},{"voice":1,"pitch":58,"start":74.4,"duration":0.6,"velocity":127,"measure":32,"beat":1.0,"subject_pos":-1,"motif":"","motif_pos":-1,"best_pos":3,"similarity":0.55,"stretto":false,"stretto_voices":0,"combination":[]},{"voice":0,"pitch":69,"start":74.7,"duration":0.3,"velocity":127,"measure":32,"beat":1.5,"subject_pos":-1,"motif":"enigmatic_cell","motif_pos":2,"best_pos":2,"similarity":1.0,"stretto":false,"stretto_voices":0,"combination":[]},{"voice":0,"pitch":67,"start":75.0,"duration":0.3,"velocity":127,"measure":32,"beat":2.0,"subject_pos":-1,"motif":"","motif_pos":-1,"best_pos":3,"similarity":0.607,"stretto":false,"stretto_voices":0,"combination":[]},{"voice":1,"pitch":57,"start":75.0,"duration":0.6,"velocity":127,"measure":32,"beat":2.0,"subject_pos":-1,"motif":"","motif_pos":-1,"best_pos":4,"similarity":0.771,"stretto":false,"stretto_voices":0,"combination":[]},{"voice":0,"pitch":66,"start":75.3,"duration":0.3,"velocity":127,"measure":32,"beat":2.5,"subject_pos":-1,"motif":"","motif_pos":-1,"best_pos":4,"similarity":0.732,"stretto":false,"stretto_voices":0,"combination":[]},{"voice":0,"pitch":67,"start":75.6,"duration":0.3,"velocity":127,"measure":32,"beat":3.0,"subject_pos":-1,"motif":"","motif_pos":-1,"best_pos":5,"similarity":0.643,"stretto":false,"stretto_voices":0,"combination":[]},{"voice":1,"pitch":58,"start":75.6,"duration":0.6,"velocity":127,"measure":32,"beat":3.0,"subject_pos":-1,"motif":"","motif_pos":-1,"best_pos":5,"similarity":0.793,"stretto":false,"stretto_voices":0,"combination":[]},{"voice":0,"pitch":70,"start":75.9,"duration":0.3,"velocity":127,"measure":32,"beat":3.5,"subject_pos":-1,"motif":"","motif_pos":-1,"best_pos":6,"similarity":0.429,"stretto":false,"stretto_voices":0,"combination":[]},{"voice":0,"pitch":69,"start":76.2,"duration":0.3,"velocity":127,"measure":32,"beat":4.0,"subject_pos":-1,"motif":"","motif_pos":-1,"best_pos":4,"similarity":0.386,"stretto":false,"stretto_voices":0,"combination":[]},{"voice":1,"pitch":60,"start":76.2,"duration":0.6,"velocity":127,"measure":32,"beat":4.0,"subject_pos":-1,"motif":"","motif_pos":-1,"best_pos":6,"similarity":0.643,"stretto":false,"stretto_voices":0,"combination":[]},{"voice":0,"pitch":72,"start":76.5,"duration":0.3,"velocity":127,"measure":32,"beat":4.5,"subject_pos":-1,"motif":"","motif_pos":-1,"best_pos":1,"similarity":0.507,"stretto":false,"stretto_voices":0,"combination":[]},{"voice":0,"pitch":70,"start":76.8,"duration":1.5,"velocity":127,"measure":33,"beat":1.0,"subject_pos":-1,"motif":"","motif_pos":-1,"best_pos":2,"similarity":0.621,"stretto":false,"stretto_voices":0,"combination":[]},{"voice":1,"pitch":62,"start":76.8,"duration":0.3,"velocity":127,"measure":33,"beat":1.0,"subject_pos":-1,"motif":"","motif_pos":-1,"best_pos":6,"similarity":0.446,"stretto":false,"stretto_voices":0,"combination":[]},{"voice":1,"pitch":65,"start":77.1,"duration":0.3,"velocity":127,"measure":33,"beat":1.5,"subject_pos":-1,"motif":"","motif_pos":-1,"best_pos":1,"similarity":0.357,"stretto":false,"stretto_voices":0,"combination":[]},{"voice":2,"pitch":45,"start":77.1,"duration":0.3,"velocity":127,"measure":33,"beat":1.5,"subject_pos":-1,"motif":"","motif_pos":-1,"best_pos":6,"similarity":0.475,"stretto":false,"stretto_voices":0,"combination":[]},{"voice":1,"pitch":64,"start":77.4,"duration":0.3,"velocity":127,"measure":33,"beat":2.0,"subject_pos":-1,"motif":"","motif_pos":-1,"best_pos":2,"similarity":0.536,"stretto":false,"stretto_voices":0,"combination":[]},{"voice":2,"pitch":43,"start":77.4,"duration":0.3,"velocity":127,"measure":33,"beat":2.0,"subject_pos":-1,"motif":"","motif_pos":-1,"best_pos":2,"similarity":0.464,"stretto":false,"stretto_voices":0,"combination":[]},{"voice":1,"pitch":62,"start":77.7,"duration":0.3,"velocity":127,"measure":33,"beat":2.5,"subject_pos":-1,"motif":"","motif_pos":-1,"best_pos":3,"similarity":0.732,"stretto":false,"stretto_voices":0,"combination":[]},{"voice":2,"pitch":41,"start":77.7,"duration":0.3,"velocity":127,"measure":33,"beat":2.5,"subject_pos":-1,"motif":"","motif_pos":-1,"best_pos":4,"similarity":0.436,"stretto":false,"stretto_voices":0,"combination":[]},{"voice":1,"pitch":61,"start":78.0,"duration":0.6,"velocity":127,"measure":33,"beat":3.0,"subject_pos":-1,"motif":"","motif_pos":-1,"best_pos":4,"similarity":0.829,"stretto":false,"stretto_voices":0,"combination":[]},{"voice":2,"pitch":43,"start":78.0,"duration":0.3,"velocity":127,"measure":33,"beat":3.0,"subject_pos":-1,"motif":"","motif_pos":-1,"best_pos":5,"similarity":0.393,"stretto":false,"stretto_voices":0,"combination":[]},{"voice":0,"pitch":67,"start":78.3,"duration":0.3,"velocity":127,"measure":33,"beat":3.5,"subject_pos":-1,"motif":"","motif_pos":-1,"best_pos":3,"similarity":0.546,"stretto":false,"stretto_voices":0,"combination":[]},{"voice":2,"pitch":40,"start":78.3,"duration":0.3,"velocity":127,"measure":33,"beat":3.5,"subject_pos":-1,"motif":"","motif_pos":-1,"best_pos":4,"similarity":0.446,"stretto":false,"stretto_voices":0,"combination":[]},{"voice":0,"pitch":69,"start":78.6,"duration":0.3,"velocity":127,"measure":33,"beat":4.0,"subject_pos":-1,"motif":"","motif_pos":-1,"best_pos":4,"similarity":0.386,"stretto":false,"stretto_voices":0,"combination":[]},{"voice":1,"pitch":62,"start":78.6,"duration":0.6,"velocity":127,"measure":33,"beat":4.0,"subject_pos":-1,"motif":"","motif_pos":-1,"best_pos":5,"similarity":0.764,"stretto":false,"stretto_voices":0,"combination":[]},{"voice":2,"pitch":41,"start":78.6,"duration":0.3,"velocity":127,"measure":33,"beat":4.0,"subject_pos":-1,"motif":"","motif_pos":-1,"best_pos":2,"similarity":0.457,"stretto":false,"stretto_voices":0,"combination":[]},{"voice":0,"pitch":65,"start":78.9,"duration":0.3,"velocity":127,"measure":33,"beat":4.5,"subject_pos":-1,"motif":"","motif_pos":-1,"best_pos":2,"similarity":0.371,"stretto":false,"stretto_voices":0,"combination":[]},{"voice":2,"pitch":38,"start":78.9,"duration":0.3,"velocity":127,"measure":33,"beat":4.5,"subject_pos":-1,"motif":"","motif_pos":-1,"best_pos":3,"similarity":0.593,"stretto":false,"stretto_voices":0,"combination":[]},{"voice":0,"pitch":67,"start":79.2,"duration":1.2,"velocity":127,"measure":34,"beat":1.0,"subject_pos":-1,"motif":"","motif_pos":-1,"best_pos":5,"similarity":0.329,"stretto":false,"stretto_voices":0,"combination":[]},{"voice":1,"pitch":64,"start":79.2,"duration":0.3,"velocity":127,"measure":34,"beat":1.0,"subject_pos":-1,"motif":"","motif_pos":-1,"best_pos":6,"similarity":0.529,"stretto":false,"stretto_voices":0,"combination":[]},{"voice":2,"pitch":37,"start":79.2,"duration":0.3,"velocity":127,"measure":34,"beat":1.0,"subject_pos":-1,"motif":"","motif_pos":-1,"best_pos":4,"similarity":0.457,"stretto":false,"stretto_voices":0,"combination":[]},{"voice":1,"pitch":62,"start":79.5,"duration":0.3,"velocity":127,"measure":34,"beat":1.5,"subject_pos":-1,"motif":"","motif_pos":-1,"best_pos":3,"similarity":0.536,"stretto":false,"stretto_voices":0,"combination":[]},{"voice":2,"pitch":46,"start":79.5,"duration":0.3,"velocity":127,"measure":34,"beat":1.5,"subject_pos":-1,"motif":"","motif_pos":-1,"best_pos":3,"similarity":0.443,"stretto":false,"stretto_voices":0,"combination":[]},{"voice":1,"pitch":61,"start":79.8,"duration":0.3,"velocity":127,"measure":34,"beat":2.0,"subject_pos":-1,"motif":"","motif_pos":-1,"best_pos":4,"similarity":0.554,"stretto":false,"stretto_voices":0,"combination":[]},{"voice":2,"pitch":45,"start":79.8,"duration":0.3,"velocity":127,"measure":34,"beat":2.0,"subject_pos":-1,"motif":"","motif_pos":-1,"best_pos":4,"similarity":0.493,"stretto":false,"stretto_voices":0,"combination":[]},{"voice":1,"pitch":59,"start":80.1,"duration":0.3,"velocity":127,"measure":34,"beat":2.5,"subject_pos":-1,"motif":"","motif_pos":-1,"best_pos":5,"similarity":0.529,"stretto":false,"stretto_voices":0,"combination":[]},{"voice":2,"pitch":43,"start":80.1,"duration":0.3,"velocity":127,"measure":34,"beat":2.5,"subject_pos":-1,"motif":"","motif_pos":-1,"best_pos":5,"similarity":0.457,"stretto":false,"stretto_voices":0,"combination":[]},{"voice":1,"pitch":61,"start":80.4,"duration":0.6,"velocity":127,"measure":34,"beat":3.0,"subject_pos":-1,"motif":"","motif_pos":-1,"best_pos":6,"similarity":0.443,"stretto":false,"stretto_voices":0,"combination":[]},{"voice":2,"pitch":45,"start":80.4,"duration":0.3,"velocity":127,"measure":34,"beat":3.0,"subject_pos":-1,"motif":"","motif_pos":-1,"best_pos":6,"similarity":0.371,"stretto":false,"stretto_voices":0,"combination":[]},{"voice":2,"pitch":41,"start":80.7,"duration":0.3,"velocity":127,"measure":34,"beat":3.5,"subject_pos":-1,"motif":"","motif_pos":-1,"best_pos":2,"similarity":0.407,"stretto":false,"stretto_voices":0,"combination":[]},{"voice":0,"pitch":73,"start":81.0,"duration":0.6,"velocity":127,"measure":34,"beat":4.0,"subject_pos":-1,"motif":"enigmatic_cell","motif_pos":0,"best_pos":0,"similarity":1.0,"stretto":false,"stretto_voices":0,"combination":[]},{"voice":1,"pitch":64,"start":81.0,"duration":0.6,"velocity":127,"measure":34,"beat":4.0,"subject_pos":-1,"motif":"","motif_pos":-1,"best_pos":0,"similarity":0.293,"stretto":false,"stretto_voices":0,"combination":[]},{"voice":2,"pitch":43,"start":81.0,"duration":0.3,"velocity":127,"measure":34,"beat":4.0,"subject_pos":-1,"motif":"","motif_pos":-1,"best_pos":3,"similarity":0.382,"stretto":false,"stretto_voices":0,"combination":[]},{"voice":2,"pitch":40,"start":81.3,"duration":0.3,"velocity":127,"measure":34,"beat":4.5,"subject_pos":-1,"motif":"","motif_pos":-1,"best_pos":4,"similarity":0.471,"stretto":false,"stretto_voices":0,"combination":[]},{"voice":0,"pitch":74,"start":81.6,"duration":0.3,"velocity":127,"measure":35,"beat":1.0,"subject_pos":-1,"motif":"enigmatic_cell","motif_pos":1,"best_pos":1,"similarity":1.0,"stretto":false,"stretto_voices":0,"combination":[]},{"voice":1,"pitch":69,"start":81.6,"duration":0.6,"velocity":127,"measure":35,"beat":1.0,"subject_pos":-1,"motif":"","motif_pos":-1,"best_pos":1,"similarity":0.3,"stretto":false,"stretto_voices":0,"combination":[]},{"voice":2,"pitch":41,"start":81.6,"duration":0.6,"velocity":127,"measure":35,"beat":1.0,"subject_pos":-1,"motif":"","motif_pos":-1,"best_pos":5,"similarity":0.407,"stretto":false,"stretto_voices":0,"combination":[]},{"voice":0,"pitch":67,"start":81.9,"duration":0.3,"velocity":127,"measure":35,"beat":1.5,"subject_pos":-1,"motif":"enigmatic_cell","motif_pos":2,"best_pos":2,"similarity":1.0,"stretto":false,"stretto_voices":0,"combination":[]},{"voice":0,"pitch":65,"start":82.2,"duration":0.3,"velocity":127,"measure":35,"beat":2.0,"subject_pos":-1,"motif":"","motif_pos":-1,"best_pos":3,"similarity":0.611,"stretto":false,"stretto_voices":0,"combination":[]},{"voice":1,"pitch":49,"start":82.2,"duration":0.6,"velocity":127,"measure":35,"beat":2.0,"subject_pos":-1,"motif":"","motif_pos":-1,"best_pos":6,"similarity":0.307,"stretto":false,"stretto_voices":0,"combination":[]},{"voice":2,"pitch":45,"start":82.2,"duration":0.6,"velocity":127,"measure":35,"beat":2.0,"subject_pos":-1,"motif":"","motif_pos":-1,"best_pos":0,"similarity":0.429,"stretto":false,"stretto_voices":0,"combination":[]},{"voice":0,"pitch":64,"start":82.5,"duration":0.3,"velocity":127,"measure":35,"beat":2.5,"subject_pos":-1,"motif":"","motif_pos":-1,"best_pos":4,"similarity":0.693,"stretto":false,"stretto_voices":0,"combination":[]},{"voice":0,"pitch":65,"start":82.8,"duration":0.3,"velocity":127,"measure":35,"beat":3.0,"subject_pos":-1,"motif":"","motif_pos":-1,"best_pos":5,"similarity":0.55,"stretto":false,"stretto_voices":0,"combination":[]},{"voice":1,"pitch":50,"start":82.8,"duration":0.6,"velocity":127,"measure":35,"beat":3.0,"subject_pos":-1,"motif":"","motif_pos":-1,"best_pos":7,"similarity":0.293,"stretto":false,"stretto_voices":0,"combination":[]},{"voice":2,"pitch":50,"start":82.8,"duration":1.2,"velocity":127,"measure":35,"beat":3.0,"subject_pos":-1,"motif":"","motif_pos":-1,"best_pos":1,"similarity":0.571,"stretto":false,"stretto_voices":0,"combination":[]},{"voice":0,"pitch":69,"start":83.1,"duration":0.3,"velocity":127,"measure":35,"beat":3.5,"subject_pos":-1,"motif":"","motif_pos":-1,"best_pos":1,"similarity":0.5,"stretto":false,"stretto_voices":0,"combination":[]},{"voice":0,"pitch":67,"start":83.4,"duration":0.3,"velocity":127,"measure":35,"beat":4.0,"subject_pos":-1,"motif":"","motif_pos":-1,"best_pos":2,"similarity":0.5,"stretto":false,"stretto_voices":0,"combination":[]},{"voice":1,"pitch":58,"start":83.4,"duration":0.6,"velocity":127,"measure":35,"beat":4.0,"subject_pos":-1,"motif":"","motif_pos":-1,"best_pos":1,"similarity":0.25,"stretto":false,"stretto_voices":0,"combination":[]},{"voice":0,"pitch":70,"start":83.7,"duration":0.3,"velocity":127,"measure":35,"beat":4.5,"subject_pos":-1,"motif":"","motif_pos":-1,"best_pos":3,"similarity":0.471,"stretto":false,"stretto_voices":0,"combination":[]},{"voice":0,"pitch":69,"start":84.0,"duration":0.3,"velocity":127,"measure":36,"beat":1.0,"subject_pos":-1,"motif":"","motif_pos":-1,"best_pos":4,"similarity":0.389,"stretto":false,"stretto_voices":0,"combination":[]},{"voice":1,"pitch":52,"start":84.0,"duration":0.6,"velocity":127,"measure":36,"beat":1.0,"subject_pos":-1,"motif":"","motif_pos":-1,"best_pos":0,"similarity":0.436,"stretto":false,"stretto_voices":0,"combination":[]},{"voice":2,"pitch":48,"start":84.0,"duration":0.6,"velocity":127,"measure":36,"beat":1.0,"subject_pos":-1,"motif":"","motif_pos":-1,"best_pos":2,"similarity":0.446,"stretto":false,"stretto_voices":0,"combination":[]},{"voice":0,"pitch":64,"start":84.3,"duration":0.3,"velocity":127,"measure":36,"beat":1.5,"subject_pos":-1,"motif":"","motif_pos":-1,"best_pos":2,"similarity":0.5,"stretto":false,"stretto_voices":0,"combination":[]},{"voice":0,"pitch":62,"start":84.6,"duration":0.3,"velocity":127,"measure":36,"beat":2.0,"subject_pos":-1,"motif":"","motif_pos":-1,"best_pos":3,"similarity":0.679,"stretto":false,"stretto_voices":0,"combination":[]},{"voice":1,"pitch":57,"start":84.6,"duration":1.2,"velocity":127,"measure":36,"beat":2.0,"subject_pos":-1,"motif":"","motif_pos":-1,"best_pos":1,"similarity":0.586,"stretto":false,"stretto_voices":0,"combination":[]},{"voice":2,"pitch":53,"start":84.6,"duration":0.6,"velocity":127,"measure":36,"beat":2.0,"subject_pos":-1,"motif":"","motif_pos":-1,"best_pos":1,"similarity":0.464,"stretto":false,"stretto_voices":0,"combination":[]},{"voice":0,"pitch":61,"start":84.9,"duration":0.3,"velocity":127,"measure":36,"beat":2.5,"subject_pos":-1,"motif":"","motif_pos":-1,"best_pos":4,"similarity":0.768,"stretto":false,"stretto_voices":0,"combination":[]},{"voice":0,"pitch":62,"start":85.2,"duration":0.3,"velocity":127,"measure":36,"beat":3.0,"subject_pos":-1,"motif":"","motif_pos":-1,"best_pos":5,"similarity":0.643,"stretto":false,"stretto_voices":0,"combination":[]},{"voice":2,"pitch":47,"start":85.2,"duration":0.6,"velocity":127,"measure":36,"beat":3.0,"subject_pos":-1,"motif":"","motif_pos":-1,"best_pos":2,"similarity":0.436,"stretto":false,"stretto_voices":0,"combination":[]},{"voice":0,"pitch":65,"start":85.5,"duration":0.3,"velocity":127,"measure":36,"beat":3.5,"subject_pos":-1,"motif":"","motif_pos":-1,"best_pos":6,"similarity":0.429,"stretto":false,"stretto_voices":0,"combination":[]},{"voice":0,"pitch":64,"start":85.8,"duration":0.3,"velocity":127,"measure":36,"beat":4.0,"subject_pos":-1,"motif":"","motif_pos":-1,"best_pos":4,"similarity":0.379,"stretto":false,"stretto_voices":0,"combination":[]},{"voice":1,"pitch":55,"start":85.8,"duration":0.6,"velocity":127,"measure":36,"beat":4.0,"subject_pos":-1,"motif":"","motif_pos":-1,"best_pos":2,"similarity":0.475,"stretto":false,"stretto_voices":0,"combination":[]},{"voice":2,"pitch":46,"start":85.8,"duration":0.6,"velocity":127,"measure":36,"beat":4.0,"subject_pos":-1,"motif":"enigmatic_cell","motif_pos":0,"best_pos":0,"similarity":1.0,"stretto":false,"stretto_voices":0,"combination":[]},{"voice":0,"pitch":67,"start":86.1,"duration":0.3,"velocity":127,"measure":36,"beat":4.5,"subject_pos":-1,"motif":"","motif_pos":-1,"best_pos":1,"similarity":0.464,"stretto":false,"stretto_voices":0,"combination":[]},{"voice":0,"pitch":65,"start":86.4,"duration":0.3,"velocity":127,"measure":37,"beat":1.0,"subject_pos":-1,"motif":"","motif_pos":-1,"best_pos":2,"similarity":0.543,"stretto":false,"stretto_voices":0,"combination":[]},{"voice":1,"pitch":48,"start":86.4,"duration":0.6,"velocity":127,"measure":37,"beat":1.0,"subject_pos":-1,"motif":"","motif_pos":-1,"best_pos":0,"similarity":0.357,"stretto":false,"stretto_voices":0,"combination":[]},{"voice":2,"pitch":45,"start":86.4,"duration":0.6,"velocity":127,"measure":37,"beat":1.0,"subject_pos":-1,"motif":"enigmatic_cell","motif_pos":1,"best_pos":1,"similarity":1.0,"stretto":false,"stretto_voices":0,"combination":[]},{"voice":0,"pitch":60,"start":86.7,"duration":0.3,"velocity":127,"measure":37,"beat":1.5,"subject_pos":-1,"motif":"","motif_pos":-1,"best_pos":3,"similarity":0.604,"stretto":false,"stretto_voices":0,"combination":[]},{"voice":0,"pitch":59,"start":87.0,"duration":0.3,"velocity":127,"measure":37,"beat":2.0,"subject_pos":-1,"motif":"","motif_pos":-1,"best_pos":4,"similarity":0.582,"stretto":false,"stretto_voices":0,"combination":[]},{"voice":1,"pitch":53,"start":87.0,"duration":1.2,"velocity":127,"measure":37,"beat":2.0,"subject_pos":-1,"motif":"enigmatic_cell","motif_pos":0,"best_pos":0,"similarity":1.0,"stretto":false,"stretto_voices":0,"combination":[]},{"voice":2,"pitch":50,"start":87.0,"duration":0.6,"velocity":127,"measure":37,"beat":2.0,"subject_pos":-1,"motif":"enigmatic_cell","motif_pos":2,"best_pos":2,"similarity":1.0,"stretto":false,"stretto_voices":0,"combination":[]},{"voice":0,"pitch":57,"start":87.3,"duration":0.3,"velocity":127,"measure":37,"beat":2.5,"subject_pos":-1,"motif":"","motif_pos":-1,"best_pos":5,"similarity":0.511,"stretto":false,"stretto_voices":0,"combination":[]},{"voice":0,"pitch":59,"start":87.6,"duration":0.3,"velocity":127,"measure":37,"beat":3.0,"subject_pos":-1,"motif":"","motif_pos":-1,"best_pos":6,"similarity":0.443,"stretto":false,"stretto_voices":0,"combination":[]},{"voice":2,"pitch":43,"start":87.6,"duration":1.2,"velocity":127,"measure":37,"beat":3.0,"subject_pos":-1,"motif":"","motif_pos":-1,"best_pos":2,"similarity":0.364,"stretto":false,"stretto_voices":0,"combination":[]},{"voice":0,"pitch":62,"start":87.9,"duration":0.3,"velocity":127,"measure":37,"beat":3.5,"subject_pos":-1,"motif":"","motif_pos":-1,"best_pos":3,"similarity":0.343,"stretto":false,"stretto_voices":0,"combination":[]},{"voice":0,"pitch":61,"start":88.2,"duration":0.3,"velocity":127,"measure":37,"beat":4.0,"subject_pos":-1,"motif":"","motif_pos":-1,"best_pos":4,"similarity":0.396,"stretto":false,"stretto_voices":0,"combination":[]},{"voice":1,"pitch":52,"start":88.2,"duration":0.6,"velocity":127,"measure":37,"beat":4.0,"subject_pos":-1,"motif":"enigmatic_cell","motif_pos":1,"best_pos":1,"similarity":1.0,"stretto":false,"stretto_voices":0,"combination":[]},{"voice":0,"pitch":64,"start":88.5,"duration":0.3,"velocity":127,"measure":37,"beat":4.5,"subject_pos":-1,"motif":"","motif_pos":-1,"best_pos":1,"similarity":0.429,"stretto":false,"stretto_voices":0,"combination":[]},{"voice":0,"pitch":62,"start":88.8,"duration":0.3,"velocity":127,"measure":38,"beat":1.0,"subject_pos":-1,"motif":"","motif_pos":-1,"best_pos":2,"similarity":0.482,"stretto":false,"stretto_voices":0,"combination":[]},{"voice":1,"pitch":57,"start":88.8,"duration":0.6,"velocity":127,"measure":38,"beat":1.0,"subject_pos":-1,"motif":"enigmatic_cell","motif_pos":2,"best_pos":2,"similarity":1.0,"stretto":false,"stretto_voices":0,"combination":[]},{"voice":2,"pitch":41,"start":88.8,"duration":0.6,"velocity":127,"measure":38,"beat":1.0,"subject_pos":-1,"motif":"","motif_pos":-1,"best_pos":4,"similarity":0.45,"stretto":false,"stretto_voices":0,"combination":[]},{"voice":0,"pitch":65,"start":89.1,"duration":0.3,"velocity":127,"measure":38,"beat":1.5,"subject_pos":-1,"motif":"","motif_pos":-1,"best_pos":3,"similarity":0.489,"stretto":false,"stretto_voices":0,"combination":[]},{"voice":0,"pitch":64,"start":89.4,"duration":0.3,"velocity":127,"measure":38,"beat":2.0,"subject_pos":-1,"motif":"","motif_pos":-1,"best_pos":4,"similarity":0.461,"stretto":false,"stretto_voices":0,"combination":[]},{"voice":2,"pitch":43,"start":89.4,"duration":0.6,"velocity":127,"measure":38,"beat":2.0,"subject_pos":-1,"motif":"","motif_pos":-1,"best_pos":5,"similarity":0.521,"stretto":false,"stretto_voices":0,"combination":[]},{"voice":0,"pitch":67,"start":89.7,"duration":0.3,"velocity":127,"measure":38,"beat":2.5,"subject_pos":-1,"motif":"","motif_pos":-1,"best_pos":1,"similarity":0.429,"stretto":false,"stretto_voices":0,"combination":[]},{"voice":0,"pitch":65,"start":90.0,"duration":0.3,"velocity":127,"measure":38,"beat":3.0,"subject_pos":-1,"motif":"","motif_pos":-1,"best_pos":2,"similarity":0.482,"stretto":false,"stretto_voices":0,"combination":[]},{"voice":2,"pitch":45,"start":90.0,"duration":0.3,"velocity":127,"measure":38,"beat":3.0,"subject_pos":-1,"motif":"","motif_pos":-1,"best_pos":6,"similarity":0.421,"stretto":false,"stretto_voices":0,"combination":[]},{"voice":0,"pitch":64,"start":90.3,"duration":0.3,"velocity":127,"measure":38,"beat":3.5,"subject_pos":-1,"motif":"","motif_pos":-1,"best_pos":2,"similarity":0.5,"stretto":false,"stretto_voices":0,"combination":[]},{"voice":2,"pitch":43,"start":90.3,"duration":0.3,"velocity":127,"measure":38,"beat":3.5,"subject_pos":-1,"motif":"","motif_pos":-1,"best_pos":5,"similarity":0.329,"stretto":false,"stretto_voices":0,"combination":[]},{"voice":0,"pitch":62,"start":90.6,"duration":0.3,"velocity":127,"measure":38,"beat":4.0,"subject_pos":-1,"motif":"","motif_pos":-1,"best_pos":3,"similarity":0.643,"stretto":false,"stretto_voices":0,"combination":[]},{"voice":1,"pitch":55,"start":90.6,"duration":0.8219,"velocity":127,"measure":38,"beat":4.0,"subject_pos":-1,"motif":"","motif_pos":-1,"best_pos":2,"similarity":0.579,"stretto":false,"stretto_voices":0,"combination":[]},{"voice":2,"pitch":45,"start":90.6,"duration":0.6,"velocity":127,"measure":38,"beat":4.0,"subject_pos":-1,"motif":"","motif_pos":-1,"best_pos":6,"similarity":0.307,"stretto":false,"stretto_voices":0,"combination":[]},{"voice":0,"pitch":61,"start":90.9,"duration":0.5219,"velocity":127,"measure":38,"beat":4.5,"subject_pos":-1,"motif":"","motif_pos":-1,"best_pos":4,"similarity":0.686,"stretto":false,"stretto_voices":0,"combination":[]},{"voice":0,"pitch":62,"start":91.2,"duration":1.2,"velocity":127,"measure":39,"beat":1.0,"subject_pos":-1,"motif":"","motif_pos":-1,"best_pos":5,"similarity":0.479,"stretto":false,"stretto_voices":0,"combination":[]},{"voice":1,"pitch":53,"start":91.2,"duration":1.2,"velocity":127,"measure":39,"beat":1.0,"subject_pos":-1,"motif":"","motif_pos":-1,"best_pos":2,"similarity":0.429,"stretto":false,"stretto_voices":0,"combination":[]},{"voice":2,"pitch":38,"start":91.2,"duration":1.2,"velocity":127,"measure":39,"beat":1.0,"subject_pos":-1,"motif":"","motif_pos":-1,"best_pos":2,"similarity":0.193,"stretto":false,"stretto_voices":0,"combination":[]},{"voice":0,"pitch":74,"start":92.4,"duration":1.2,"velocity":127,"measure":39,"beat":3.0,"subject_pos":-1,"motif":"","motif_pos":-1,"best_pos":1,"similarity":0.286,"stretto":false,"stretto_voices":0,"combination":[]},{"voice":1,"pitch":70,"start":93.0,"duration":0.9,"velocity":127,"measure":39,"beat":4.0,"subject_pos":-1,"motif":"","motif_pos":-1,"best_pos":3,"similarity":0.446,"stretto":false,"stretto_voices":0,"combination":[]},{"voice":0,"pitch":72,"start":93.6,"duration":0.6,"velocity":127,"measure":40,"beat":1.0,"subject_pos":-1,"motif":"","motif_pos":-1,"best_pos":0,"similarity":0.339,"stretto":false,"stretto_voices":0,"combination":[]},{"voice":1,"pitch":68,"start":93.9,"duration":0.3,"velocity":127,"measure":40,"beat":1.5,"subject_pos":-1,"motif":"","motif_pos":-1,"best_pos":4,"similarity":0.571,"stretto":false,"stretto_voices":0,"combination":[]},{"voice":0,"pitch":77,"start":94.2,"duration":0.6,"velocity":127,"measure":40,"beat":2.0,"subject_pos":-1,"motif":"","motif_pos":-1,"best_pos":1,"similarity":0.464,"stretto":false,"stretto_voices":0,"combination":[]},{"voice":1,"pitch":69,"start":94.2,"duration":0.3,"velocity":127,"measure":40,"beat":2.0,"subject_pos":-1,"motif":"","motif_pos":-1,"best_pos":5,"similarity":0.5,"stretto":false,"stretto_voices":0,"combination":[]},{"voice":1,"pitch":69,"start":94.5,"duration":0.3,"velocity":127,"measure":40,"beat":2.5,"subject_pos":-1,"motif":"","motif_pos":-1,"best_pos":4,"similarity":0.443,"stretto":false,"stretto_voices":0,"combination":[]},{"voice":0,"pitch":71,"start":94.8,"duration":0.6,"velocity":127,"measure":40,"beat":3.0,"subject_pos":-1,"motif":"","motif_pos":-1,"best_pos":2,"similarity":0.436,"stretto":false,"stretto_voices":0,"combination":[]},{"voice":1,"pitch":69,"start":94.8,"duration":0.3,"velocity":127,"measure":40,"beat":3.0,"subject_pos":-1,"motif":"","motif_pos":-1,"best_pos":2,"similarity":0.429,"stretto":false,"stretto_voices":0,"combination":[]},{"voice":1,"pitch":66,"start":95.1,"duration":0.3,"velocity":127,"measure":40,"beat":3.5,"subject_pos":-1,"motif":"","motif_pos":-1,"best_pos":3,"similarity":0.482,"stretto":false,"stretto_voices":0,"combination":[]},{"voice":0,"pitch":70,"start":95.4,"duration":0.6,"velocity":127,"measure":40,"beat":4.0,"subject_pos":-1,"motif":"enigmatic_cell","motif_pos":0,"best_pos":0,"similarity":1.0,"stretto":false,"stretto_voices":0,"combination":[]},{"voice":1,"pitch":67,"start":95.4,"duration":0.3,"velocity":127,"measure":40,"beat":4.0,"subject_pos":-1,"motif":"","motif_pos":-1,"best_pos":5,"similarity":0.471,"stretto":false,"stretto_voices":0,"combination":[]},{"voice":1,"pitch":67,"start":95.7,"duration":0.3,"velocity":127,"measure":40,"beat":4.5,"subject_pos":-1,"motif":"","motif_pos":-1,"best_pos":4,"similarity":0.407,"stretto":false,"stretto_voices":0,"combination":[]},{"voice":0,"pitch":69,"start":96.0,"duration":0.6,"velocity":127,"measure":41,"beat":1.0,"subject_pos":-1,"motif":"enigmatic_cell","motif_pos":1,"best_pos":1,"similarity":1.0,"stretto":false,"stretto_voices":0,"combination":[]},{"voice":1,"pitch":67,"start":96.0,"duration":0.3,"velocity":127,"measure":41,"beat":1.0,"subject_pos":-1,"motif":"","motif_pos":-1,"best_pos":2,"similarity":0.429,"stretto":false,"stretto_voices":0,"combination":[]},{"voice":1,"pitch":64,"start":96.3,"duration":0.3,"velocity":127,"measure":41,"beat":1.5,"subject_pos":-1,"motif":"","motif_pos":-1,"best_pos":3,"similarity":0.482,"stretto":false,"stretto_voices":0,"combination":[]},{"voice":0,"pitch":74,"start":96.6,"duration":0.6,"velocity":127,"measure":41,"beat":2.0,"subject_pos":-1,"motif":"enigmatic_cell","motif_pos":2,"best_pos":2,"similarity":1.0,"stretto":false,"stretto_voices":0,"combination":[]},{"voice":1,"pitch":65,"start":96.6,"duration":0.3,"velocity":127,"measure":41,"beat":2.0,"subject_pos":-1,"motif":"","motif_pos":-1,"best_pos":5,"similarity":0.471,"stretto":false,"stretto_voices":0,"combination":[]},{"voice":1,"pitch":65,"start":96.9,"duration":0.3,"velocity":127,"measure":41,"beat":2.5,"subject_pos":-1,"motif":"","motif_pos":-1,"best_pos":6,"similarity":0.375,"stretto":false,"stretto_voices":0,"combination":[]},{"voice":0,"pitch":67,"start":97.2,"duration":1.2,"velocity":127,"measure":41,"beat":3.0,"subject_pos":-1,"motif":"","motif_pos":-1,"best_pos":2,"similarity":0.364,"stretto":false,"stretto_voices":0,"combination":[]},{"voice":1,"pitch":65,"start":97.2,"duration":0.3,"velocity":127,"measure":41,"beat":3.0,"subject_pos":-1,"motif":"","motif_pos":-1,"best_pos":3,"similarity":0.379,"stretto":false,"stretto_voices":0,"combination":[]},{"voice":1,"pitch":64,"start":97.5,"duration":0.3,"velocity":127,"measure":41,"beat":3.5,"subject_pos":-1,"motif":"","motif_pos":-1,"best_pos":2,"similarity":0.5,"stretto":false,"stretto_voices":0,"combination":[]},{"voice":1,"pitch":62,"start":97.8,"duration":0.3,"velocity":127,"measure":41,"beat":4.0,"subject_pos":-1,"motif":"","motif_pos":-1,"best_pos":3,"similarity":0.65,"stretto":false,"stretto_voices":0,"combination":[]},{"voice":1,"pitch":61,"start":98.1,"duration":0.3,"velocity":127,"measure":41,"beat":4.5,"subject_pos":-1,"motif":"","motif_pos":-1,"best_pos":4,"similarity":0.729,"stretto":false,"stretto_voices":0,"combination":[]},{"voice":0,"pitch":65,"start":98.4,"duration":0.6,"velocity":127,"measure":42,"beat":1.0,"subject_pos":-1,"motif":"","motif_pos":-1,"best_pos":4,"similarity":0.45,"stretto":false,"stretto_voices":0,"combination":[]},{"voice":1,"pitch":62,"start":98.4,"duration":1.8,"velocity":127,"measure":42,"beat":1.0,"subject_pos":-1,"motif":"","motif_pos":-1,"best_pos":5,"similarity":0.564,"stretto":false,"stretto_voices":0,"combination":[]},{"voice":2,"pitch":58,"start":98.7,"duration":0.3,"velocity":127,"measure":42,"beat":1.5,"subject_pos":-1,"motif":"","motif_pos":-1,"best_pos":3,"similarity":0.329,"stretto":false,"stretto_voices":0,"combination":[]},{"voice":0,"pitch":67,"start":99.0,"duration":0.6,"velocity":127,"measure":42,"beat":2.0,"subject_pos":-1,"motif":"","motif_pos":-1,"best_pos":5,"similarity":0.521,"stretto":false,"stretto_voices":0,"combination":[]},{"voice":2,"pitch":57,"start":99.0,"duration":0.3,"velocity":127,"measure":42,"beat":2.0,"subject_pos":-1,"motif":"","motif_pos":-1,"best_pos":2,"similarity":0.5,"stretto":false,"stretto_voices":0,"combination":[]},{"voice":2,"pitch":55,"start":99.3,"duration":0.3,"velocity":127,"measure":42,"beat":2.5,"subject_pos":-1,"motif":"","motif_pos":-1,"best_pos":3,"similarity":0.643,"stretto":false,"stretto_voices":0,"combination":[]},{"voice":0,"pitch":69,"start":99.6,"duration":0.3,"velocity":127,"measure":42,"beat":3.0,"subject_pos":-1,"motif":"","motif_pos":-1,"best_pos":6,"similarity":0.421,"stretto":false,"stretto_voices":0,"combination":[]},{"voice":2,"pitch":54,"start":99.6,"duration":0.3,"velocity":127,"measure":42,"beat":3.0,"subject_pos":-1,"motif":"","motif_pos":-1,"best_pos":4,"similarity":0.714,"stretto":false,"stretto_voices":0,"combination":[]},{"voice":0,"pitch":67,"start":99.9,"duration":0.3,"velocity":127,"measure":42,"beat":3.5,"subject_pos":-1,"motif":"","motif_pos":-1,"best_pos":5,"similarity":0.329,"stretto":false,"stretto_voices":0,"combination":[]},{"voice":2,"pitch":55,"start":99.9,"duration":0.3,"velocity":127,"measure":42,"beat":3.5,"subject_pos":-1,"motif":"","motif_pos":-1,"best_pos":5,"similarity":0.536,"stretto":false,"stretto_voices":0,"combination":[]},{"voice":0,"pitch":69,"start":100.2,"duration":0.6,"velocity":127,"measure":42,"beat":4.0,"subject_pos":-1,"motif":"","motif_pos":-1,"best_pos":6,"similarity":0.307,"stretto":false,"stretto_voices":0,"combination":[]},{"voice":1,"pitch":60,"start":100.2,"duration":0.9,"velocity":127,"measure":42,"beat":4.0,"subject_pos":-1,"motif":"","motif_pos":-1,"best_pos":2,"similarity":0.418,"stretto":false,"stretto_voices":0,"combination":[]},{"voice":2,"pitch":52,"start":100.2,"duration":0.3,"velocity":127,"measure":42,"beat":4.0,"subject_pos":-1,"motif":"","motif_pos":-1,"best_pos":5,"similarity":0.511,"stretto":false,"stretto_voices":0,"combination":[]},{"voice":2,"pitch":54,"start":100.5,"duration":0.3,"velocity":127,"measure":42,"beat":4.5,"subject_pos":-1,"motif":"enigmatic_cell","motif_pos":0,"best_pos":0,"similarity":1.0,"stretto":false,"stretto_voices":0,"combination":[]},{"voice":0,"pitch":62,"start":100.8,"duration":1.2,"velocity":127,"measure":43,"beat":1.0,"subject_pos":-1,"motif":"","motif_pos":-1,"best_pos":2,"similarity":0.186,"stretto":false,"stretto_voices":0,"combination":[]},{"voice":2,"pitch":55,"start":100.8,"duration":0.6,"velocity":127,"measure":43,"beat":1.0,"subject_pos":-1,"motif":"enigmatic_cell","motif_pos":1,"best_pos":1,"similarity":1.0,"stretto":false,"stretto_voices":0,"combination":[]},{"voice":1,"pitch":60,"start":101.1,"duration":0.3,"velocity":127,"measure":43,"beat":1.5,"subject_pos":-1,"motif":"","motif_pos":-1,"best_pos":2,"similarity":0.429,"stretto":false,"stretto_voices":0,"combination":[]},{"voice":1,"pitch":58,"start":101.4,"duration":0.3,"velocity":127,"measure":43,"beat":2.0,"subject_pos":-1,"motif":"","motif_pos":-1,"best_pos":3,"similarity":0.625,"stretto":false,"stretto_voices":0,"combination":[]},{"voice":2,"pitch":50,"start":101.4,"duration":0.6,"velocity":127,"measure":43,"beat":2.0,"subject_pos":-1,"motif":"enigmatic_cell","motif_pos":2,"best_pos":2,"similarity":1.0,"stretto":false,"stretto_voices":0,"combination":[]},{"voice":1,"pitch":57,"start":101.7,"duration":0.3,"velocity":127,"measure":43,"beat":2.5,"subject_pos":-1,"motif":"","motif_pos":-1,"best_pos":4,"similarity":0.704,"stretto":false,"stretto_voices":0,"combination":[]},{"voice":1,"pitch":58,"start":102.0,"duration":0.3,"velocity":127,"measure":43,"beat":3.0,"subject_pos":-1,"motif":"","motif_pos":-1,"best_pos":5,"similarity":0.55,"stretto":false,"stretto_voices":0,"combination":[]},{"voice":2,"pitch":55,"start":102.0,"duration":1.2,"velocity":127,"measure":43,"beat":3.0,"subject_pos":-1,"motif":"","motif_pos":-1,"best_pos":1,"similarity":0.571,"stretto":false,"stretto_voices":0,"combination":[]},{"voice":1,"pitch":62,"start":102.3,"duration":0.3,"velocity":127,"measure":43,"beat":3.5,"subject_pos":-1,"motif":"","motif_pos":-1,"best_pos":1,"similarity":0.571,"stretto":false,"stretto_voices":0,"combination":[]},{"voice":0,"pitch":75,"start":102.6,"duration":0.9,"velocity":127,"measure":43,"beat":4.0,"subject_pos":-1,"motif":"","motif_pos":-1,"best_pos":1,"similarity":0.336,"stretto":false,"stretto_voices":0,"combination":[]},{"voice":1,"pitch":60,"start":102.6,"duration":0.3,"velocity":127,"measure":43,"beat":4.0,"subject_pos":-1,"motif":"","motif_pos":-1,"best_pos":2,"similarity":0.643,"stretto":false,"stretto_voices":0,"combination":[]},{"voice":1,"pitch":58,"start":102.9,"duration":0.3,"velocity":127,"measure":43,"beat":4.5,"subject_pos":-1,"motif":"","motif_pos":-1,"best_pos":3,"similarity":0.614,"stretto":false,"stretto_voices":0,"combination":[]},{"voice":1,"pitch":57,"start":103.2,"duration":0.6,"velocity":127,"measure":44,"beat":1.0,"subject_pos":-1,"motif":"","motif_pos":-1,"best_pos":4,"similarity":0.45,"stretto":false,"stretto_voices":0,"combination":[]},{"voice":2,"pitch":53,"start":103.2,"duration":0.6,"velocity":127,"measure":44,"beat":1.0,"subject_pos":-1,"motif":"","motif_pos":-1,"best_pos":2,"similarity":0.446,"stretto":false,"stretto_voices":0,"combination":[]},{"voice":0,"pitch":73,"start":103.5,"duration":0.3,"velocity":127,"measure":44,"beat":1.5,"subject_pos":-1,"motif":"","motif_pos":-1,"best_pos":4,"similarity":0.507,"stretto":false,"stretto_voices":0,"combination":[]},{"voice":0,"pitch":74,"start":103.8,"duration":0.3,"velocity":127,"measure":44,"beat":2.0,"subject_pos":-1,"motif":"","motif_pos":-1,"best_pos":5,"similarity":0.5,"stretto":false,"stretto_voices":0,"combination":[]},{"voice":2,"pitch":58,"start":103.8,"duration":0.6,"velocity":127,"measure":44,"beat":2.0,"subject_pos":-1,"motif":"","motif_pos":-1,"best_pos":1,"similarity":0.464,"stretto":false,"stretto_voices":0,"combination":[]},{"voice":0,"pitch":74,"start":104.1,"duration":0.3,"velocity":127,"measure":44,"beat":2.5,"subject_pos":-1,"motif":"","motif_pos":-1,"best_pos":4,"similarity":0.443,"stretto":false,"stretto_voices":0,"combination":[]},{"voice":0,"pitch":74,"start":104.4,"duration":0.3,"velocity":127,"measure":44,"beat":3.0,"subject_pos":-1,"motif":"","motif_pos":-1,"best_pos":2,"similarity":0.429,"stretto":false,"stretto_voices":0,"combination":[]},{"voice":1,"pitch":67,"start":104.4,"duration":1.2,"velocity":127,"measure":44,"beat":3.0,"subject_pos":-1,"motif":"","motif_pos":-1,"best_pos":1,"similarity":0.475,"stretto":false,"stretto_voices":0,"combination":[]},{"voice":2,"pitch":52,"start":104.4,"duration":0.6,"velocity":127,"measure":44,"beat":3.0,"subject_pos":-1,"motif":"","motif_pos":-1,"best_pos":2,"similarity":0.436,"stretto":false,"stretto_voices":0,"combination":[]},{"voice":0,"pitch":71,"start":104.7,"duration":0.3,"velocity":127,"measure":44,"beat":3.5,"subject_pos":-1,"motif":"","motif_pos":-1,"best_pos":3,"similarity":0.482,"stretto":false,"stretto_voices":0,"combination":[]},{"voice":0,"pitch":72,"start":105.0,"duration":0.3,"velocity":127,"measure":44,"beat":4.0,"subject_pos":-1,"motif":"","motif_pos":-1,"best_pos":5,"similarity":0.471,"stretto":false,"stretto_voices":0,"combination":[]},{"voice":2,"pitch":51,"start":105.0,"duration":0.6,"velocity":127,"measure":44,"beat":4.0,"subject_pos":-1,"motif":"enigmatic_cell","motif_pos":0,"best_pos":0,"similarity":1.0,"stretto":false,"stretto_voices":0,"combination":[]},{"voice":0,"pitch":72,"start":105.3,"duration":0.3,"velocity":127,"measure":44,"beat":4.5,"subject_pos":-1,"motif":"","motif_pos":-1,"best_pos":4,"similarity":0.407,"stretto":false,"stretto_voices":0,"combination":[]},{"voice":0,"pitch":72,"start":105.6,"duration":0.3,"velocity":127,"measure":45,"beat":1.0,"subject_pos":-1,"motif":"","motif_pos":-1,"best_pos":2,"similarity":0.429,"stretto":false,"stretto_voices":0,"combination":[]},{"voice":1,"pitch":65,"start":105.6,"duration":0.6,"velocity":127,"measure":45,"beat":1.0,"subject_pos":-1,"motif":"","motif_pos":-1,"best_pos":2,"similarity":0.639,"stretto":false,"stretto_voices":0,"combination":[]},{"voice":2,"pitch":50,"start":105.6,"duration":0.6,"velocity":127,"measure":45,"beat":1.0,"subject_pos":-1,"motif":"enigmatic_cell","motif_pos":1,"best_pos":1,"similarity":1.0,"stretto":false,"stretto_voices":0,"combination":[]},{"voice":0,"pitch":69,"start":105.9,"duration":0.3,"velocity":127,"measure":45,"beat":1.5,"subject_pos":-1,"motif":"","motif_pos":-1,"best_pos":3,"similarity":0.482,"stretto":false,"stretto_voices":0,"combination":[]},{"voice":0,"pitch":70,"start":106.2,"duration":0.3,"velocity":127,"measure":45,"beat":2.0,"subject_pos":-1,"motif":"","motif_pos":-1,"best_pos":5,"similarity":0.471,"stretto":false,"stretto_voices":0,"combination":[]},{"voice":1,"pitch":62,"start":106.2,"duration":0.6,"velocity":127,"measure":45,"beat":2.0,"subject_pos":-1,"motif":"","motif_pos":-1,"best_pos":3,"similarity":0.55,"stretto":false,"stretto_voices":0,"combination":[]},{"voice":2,"pitch":55,"start":106.2,"duration":0.6,"velocity":127,"measure":45,"beat":2.0,"subject_pos":-1,"motif":"enigmatic_cell","motif_pos":2,"best_pos":2,"similarity":1.0,"stretto":false,"stretto_voices":0,"combination":[]},{"voice":0,"pitch":70,"start":106.5,"duration":0.3,"velocity":127,"measure":45,"beat":2.5,"subject_pos":-1,"motif":"","motif_pos":-1,"best_pos":6,"similarity":0.375,"stretto":false,"stretto_voices":0,"combination":[]},{"voice":0,"pitch":70,"start":106.8,"duration":0.3,"velocity":127,"measure":45,"beat":3.0,"subject_pos":-1,"motif":"","motif_pos":-1,"best_pos":3,"similarity":0.379,"stretto":false,"stretto_voices":0,"combination":[]},{"voice":1,"pitch":63,"start":106.8,"duration":1.5,"velocity":127,"measure":45,"beat":3.0,"subject_pos":-1,"motif":"","motif_pos":-1,"best_pos":3,"similarity":0.407,"stretto":false,"stretto_voices":0,"combination":[]},{"voice":2,"pitch":48,"start":106.8,"duration":1.2,"velocity":127,"measure":45,"beat":3.0,"subject_pos":-1,"motif":"","motif_pos":-1,"best_pos":2,"similarity":0.364,"stretto":false,"stretto_voices":0,"combination":[]},{"voice":0,"pitch":69,"start":107.1,"duration":0.3,"velocity":127,"measure":45,"beat":3.5,"subject_pos":-1,"motif":"","motif_pos":-1,"best_pos":2,"similarity":0.5,"stretto":false,"stretto_voices":0,"combination":[]},{"voice":0,"pitch":67,"start":107.4,"duration":0.3,"velocity":127,"measure":45,"beat":4.0,"subject_pos":-1,"motif":"","motif_pos":-1,"best_pos":3,"similarity":0.65,"stretto":false,"stretto_voices":0,"combination":[]},{"voice":0,"pitch":66,"start":107.7,"duration":0.3,"velocity":127,"measure":45,"beat":4.5,"subject_pos":-1,"motif":"","motif_pos":-1,"best_pos":4,"similarity":0.729,"stretto":false,"stretto_voices":0,"combination":[]},{"voice":0,"pitch":67,"start":108.0,"duration":1.8,"velocity":127,"measure":46,"beat":1.0,"subject_pos":-1,"motif":"","motif_pos":-1,"best_pos":5,"similarity":0.564,"stretto":false,"stretto_voices":0,"combination":[]},{"voice":2,"pitch":46,"start":108.0,"duration":0.6,"velocity":127,"measure":46,"beat":1.0,"subject_pos":-1,"motif":"","motif_pos":-1,"best_pos":4,"similarity":0.45,"stretto":false,"stretto_voices":0,"combination":[]},{"voice":1,"pitch":62,"start":108.3,"duration":0.3,"velocity":127,"measure":46,"beat":1.5,"subject_pos":-1,"motif":"","motif_pos":-1,"best_pos":1,"similarity":0.429,"stretto":false,"stretto_voices":0,"combination":[]},{"voice":1,"pitch":60,"start":108.6,"duration":0.3,"velocity":127,"measure":46,"beat":2.0,"subject_pos":-1,"motif":"","motif_pos":-1,"best_pos":2,"similarity":0.643,"stretto":false,"stretto_voices":0,"combination":[]},{"voice":2,"pitch":48,"start":108.6,"duration":0.6,"velocity":127,"measure":46,"beat":2.0,"subject_pos":-1,"motif":"","motif_pos":-1,"best_pos":5,"similarity":0.521,"stretto":false,"stretto_voices":0,"combination":[]},{"voice":1,"pitch":58,"start":108.9,"duration":0.3,"velocity":127,"measure":46,"beat":2.5,"subject_pos":-1,"motif":"","motif_pos":-1,"best_pos":3,"similarity":0.714,"stretto":false,"stretto_voices":0,"combination":[]},{"voice":1,"pitch":57,"start":109.2,"duration":0.3,"velocity":127,"measure":46,"beat":3.0,"subject_pos":-1,"motif":"","motif_pos":-1,"best_pos":4,"similarity":0.75,"stretto":false,"stretto_voices":0,"combination":[]},{"voice":2,"pitch":50,"start":109.2,"duration":0.3,"velocity":127,"measure":46,"beat":3.0,"subject_pos":-1,"motif":"","motif_pos":-1,"best_pos":6,"similarity":0.421,"stretto":false,"stretto_voices":0,"combination":[]},{"voice":1,"pitch":58,"start":109.5,"duration":0.3,"velocity":127,"measure":46,"beat":3.5,"subject_pos":-1,"motif":"","motif_pos":-1,"best_pos":5,"similarity":0.536,"stretto":false,"stretto_voices":0,"combination":[]},{"voice":2,"pitch":48,"start":109.5,"duration":0.3,"velocity":127,"measure":46,"beat":3.5,"subject_pos":-1,"motif":"","motif_pos":-1,"best_pos":5,"similarity":0.329,"stretto":false,"stretto_voices":0,"combination":[]},{"voice":0,"pitch":65,"start":109.8,"duration":0.9,"velocity":127,"measure":46,"beat":4.0,"subject_pos":-1,"motif":"","motif_pos":-1,"best_pos":6,"similarity":0.386,"stretto":false,"stretto_voices":0,"combination":[]},{"voice":1,"pitch":55,"start":109.8,"duration":0.3,"velocity":127,"measure":46,"beat":4.0,"subject_pos":-1,"motif":"","motif_pos":-1,"best_pos":4,"similarity":0.479,"stretto":false,"stretto_voices":0,"combination":[]},{"voice":2,"pitch":50,"start":109.8,"duration":0.6,"velocity":127,"measure":46,"beat":4.0,"subject_pos":-1,"motif":"","motif_pos":-1,"best_pos":6,"similarity":0.307,"stretto":false,"stretto_voices":0,"combination":[]},{"voice":1,"pitch":57,"start":110.1,"duration":0.3,"velocity":127,"measure":46,"beat":4.5,"subject_pos":-1,"motif":"","motif_pos":-1,"best_pos":5,"similarity":0.614,"stretto":false,"stretto_voices":0,"combination":[]},{"voice":1,"pitch":59,"start":110.4,"duration":0.6,"velocity":127,"measure":47,"beat":1.0,"subject_pos":-1,"motif":"","motif_pos":-1,"best_pos":6,"similarity":0.661,"stretto":false,"stretto_voices":0,"combination":[]},{"voice":2,"pitch":43,"start":110.4,"duration":1.2,"velocity":127,"measure":47,"beat":1.0,"subject_pos":-1,"motif":"","motif_pos":-1,"best_pos":7,"similarity":0.15,"stretto":false,"stretto_voices":0,"combination":[]},{"voice":0,"pitch":67,"start":110.7,"duration":0.3,"velocity":127,"measure":47,"beat":1.5,"subject_pos":-1,"motif":"","motif_pos":-1,"best_pos":1,"similarity":0.457,"stretto":false,"stretto_voices":0,"combination":[]},{"voice":0,"pitch":65,"start":111.0,"duration":0.3,"velocity":127,"measure":47,"beat":2.0,"subject_pos":-1,"motif":"","motif_pos":-1,"best_pos":2,"similarity":0.657,"stretto":false,"stretto_voices":0,"combination":[]},{"voice":1,"pitch":60,"start":111.0,"duration":1.2,"velocity":127,"measure":47,"beat":2.0,"subject_pos":-1,"motif":"","motif_pos":-1,"best_pos":7,"similarity":0.464,"stretto":false,"stretto_voices":0,"combination":[]},{"voice":0,"pitch":63,"start":111.3,"duration":0.3,"velocity":127,"measure":47,"beat":2.5,"subject_pos":-1,"motif":"","motif_pos":-1,"best_pos":3,"similarity":0.721,"stretto":false,"stretto_voices":0,"combination":[]},{"voice":0,"pitch":62,"start":111.6,"duration":0.3,"velocity":127,"measure":47,"beat":3.0,"subject_pos":-1,"motif":"","motif_pos":-1,"best_pos":4,"similarity":0.75,"stretto":false,"stretto_voices":0,"combination":[]},{"voice":0,"pitch":63,"start":111.9,"duration":0.3,"velocity":127,"measure":47,"beat":3.5,"subject_pos":-1,"motif":"","motif_pos":-1,"best_pos":5,"similarity":0.536,"stretto":false,"stretto_voices":0,"combination":[]},{"voice":0,"pitch":60,"start":112.2,"duration":0.3,"velocity":127,"measure":47,"beat":4.0,"subject_pos":-1,"motif":"","motif_pos":-1,"best_pos":5,"similarity":0.439,"stretto":false,"stretto_voices":0,"combination":[]},{"voice":1,"pitch":58,"start":112.2,"duration":0.9,"velocity":127,"measure":47,"beat":4.0,"subject_pos":-1,"motif":"","motif_pos":-1,"best_pos":3,"similarity":0.471,"stretto":false,"stretto_voices":0,"combination":[]},{"voice":2,"pitch":55,"start":112.2,"duration":0.6,"velocity":127,"measure":47,"beat":4.0,"subject_pos":-1,"motif":"","motif_pos":-1,"best_pos":2,"similarity":0.1,"stretto":false,"stretto_voices":0,"combination":[]},{"voice":0,"pitch":62,"start":112.5,"duration":0.3,"velocity":127,"measure":47,"beat":4.5,"subject_pos":-1,"motif":"","motif_pos":-1,"best_pos":5,"similarity":0.471,"stretto":false,"stretto_voices":0,"combination":[]},{"voice":0,"pitch":64,"start":112.8,"duration":0.3,"velocity":127,"measure":48,"beat":1.0,"subject_pos":-1,"motif":"","motif_pos":-1,"best_pos":6,"similarity":0.375,"stretto":false,"stretto_voices":0,"combination":[]},{"voice":2,"pitch":48,"start":112.8,"duration":1.2,"velocity":127,"measure":48,"beat":1.0,"subject_pos":-1,"motif":"","motif_pos":-1,"best_pos":3,"similarity":0.171,"stretto":false,"stretto_voices":0,"combination":[]},{"voice":0,"pitch":72,"start":113.1,"duration":0.3,"velocity":127,"measure":48,"beat":1.5,"subject_pos":-1,"motif":"","motif_pos":-1,"best_pos":1,"similarity":0.5,"stretto":false,"stretto_voices":0,"combination":[]},{"voice":1,"pitch":57,"start":113.1,"duration":0.3,"velocity":127,"measure":48,"beat":1.5,"subject_pos":-1,"motif":"","motif_pos":-1,"best_pos":1,"similarity":0.429,"stretto":false,"stretto_voices":0,"combination":[]},{"voice":0,"pitch":70,"start":113.4,"duration":0.3,"velocity":127,"measure":48,"beat":2.0,"subject_pos":-1,"motif":"","motif_pos":-1,"best_pos":2,"similarity":0.536,"stretto":false,"stretto_voices":0,"combination":[]},{"voice":1,"pitch":55,"start":113.4,"duration":0.3,"velocity":127,"measure":48,"beat":2.0,"subject_pos":-1,"motif":"","motif_pos":-1,"best_pos":2,"similarity":0.643,"stretto":false,"stretto_voices":0,"combination":[]},{"voice":0,"pitch":69,"start":113.7,"duration":0.3,"velocity":127,"measure":48,"beat":2.5,"subject_pos":-1,"motif":"","motif_pos":-1,"best_pos":4,"similarity":0.529,"stretto":false,"stretto_voices":0,"combination":[]},{"voice":1,"pitch":53,"start":113.7,"duration":0.3,"velocity":127,"measure":48,"beat":2.5,"subject_pos":-1,"motif":"","motif_pos":-1,"best_pos":3,"similarity":0.714,"stretto":false,"stretto_voices":0,"combination":[]},{"voice":0,"pitch":67,"start":114.0,"duration":0.3,"velocity":127,"measure":48,"beat":3.0,"subject_pos":-1,"motif":"","motif_pos":-1,"best_pos":5,"similarity":0.493,"stretto":false,"stretto_voices":0,"combination":[]},{"voice":1,"pitch":52,"start":114.0,"duration":0.3,"velocity":127,"measure":48,"beat":3.0,"subject_pos":-1,"motif":"","motif_pos":-1,"best_pos":4,"similarity":0.75,"stretto":false,"stretto_voices":0,"combination":[]},{"voice":0,"pitch":69,"start":114.3,"duration":0.3,"velocity":127,"measure":48,"beat":3.5,"subject_pos":-1,"motif":"","motif_pos":-1,"best_pos":6,"similarity":0.371,"stretto":false,"stretto_voices":0,"combination":[]},{"voice":1,"pitch":53,"start":114.3,"duration":0.3,"velocity":127,"measure":48,"beat":3.5,"subject_pos":-1,"motif":"","motif_pos":-1,"best_pos":5,"similarity":0.536,"stretto":false,"stretto_voices":0,"combination":[]},{"voice":0,"pitch":65,"start":114.6,"duration":0.3,"velocity":127,"measure":48,"beat":4.0,"subject_pos":-1,"motif":"","motif_pos":-1,"best_pos":5,"similarity":0.407,"stretto":false,"stretto_voices":0,"combination":[]},{"voice":1,"pitch":50,"start":114.6,"duration":0.3,"velocity":127,"measure":48,"beat":4.0,"subject_pos":-1,"motif":"","motif_pos":-1,"best_pos":5,"similarity":0.511,"stretto":false,"stretto_voices":0,"combination":[]},{"voice":2,"pitch":48,"start":114.6,"duration":0.6,"velocity":127,"measure":48,"beat":4.0,"subject_pos":-1,"motif":"","motif_pos":-1,"best_pos":4,"similarity":0.164,"stretto":false,"stretto_voices":0,"combination":[]},{"voice":0,"pitch":67,"start":114.9,"duration":0.3,"velocity":127,"measure":48,"beat":4.5,"subject_pos":-1,"motif":"","motif_pos":-1,"best_pos":5,"similarity":0.457,"stretto":false,"stretto_voices":0,"combination":[]},{"voice":1,"pitch":52,"start":114.9,"duration":0.3,"velocity":127,"measure":48,"beat":4.5,"subject_pos":-1,"motif":"","motif_pos":-1,"best_pos":6,"similarity":0.604,"stretto":false,"stretto_voices":0,"combination":[]},{"voice":0,"pitch":69,"start":115.2,"duration":0.3,"velocity":127,"measure":49,"beat":1.0,"subject_pos":-1,"motif":"","motif_pos":-1,"best_pos":1,"similarity":0.457,"stretto":false,"stretto_voices":0,"combination":[]},{"voice":1,"pitch":53,"start":115.2,"duration":0.6,"velocity":127,"measure":49,"beat":1.0,"subject_pos":-1,"motif":"","motif_pos":-1,"best_pos":7,"similarity":0.436,"stretto":false,"stretto_voices":0,"combination":[]},{"voice":2,"pitch":41,"start":115.2,"duration":1.2,"velocity":127,"measure":49,"beat":1.0,"subject_pos":-1,"motif":"","motif_pos":-1,"best_pos":2,"similarity":0.171,"stretto":false,"stretto_voices":0,"combination":[]},{"voice":0,"pitch":67,"start":115.5,"duration":0.3,"velocity":127,"measure":49,"beat":1.5,"subject_pos":-1,"motif":"","motif_pos":-1,"best_pos":2,"similarity":0.593,"stretto":false,"stretto_voices":0,"combination":[]},{"voice":0,"pitch":65,"start":115.8,"duration":0.3,"velocity":127,"measure":49,"beat":2.0,"subject_pos":-1,"motif":"","motif_pos":-1,"best_pos":3,"similarity":0.664,"stretto":false,"stretto_voices":0,"combination":[]},{"voice":0,"pitch":64,"start":116.1,"duration":0.3,"velocity":127,"measure":49,"beat":2.5,"subject_pos":-1,"motif":"","motif_pos":-1,"best_pos":4,"similarity":0.6,"stretto":false,"stretto_voices":0,"combination":[]},{"voice":0,"pitch":62,"start":116.4,"duration":0.3,"velocity":127,"measure":49,"beat":3.0,"subject_pos":-1,"motif":"","motif_pos":-1,"best_pos":5,"similarity":0.493,"stretto":false,"stretto_voices":0,"combination":[]},{"voice":1,"pitch":69,"start":116.4,"duration":1.2,"velocity":127,"measure":49,"beat":3.0,"subject_pos":-1,"motif":"","motif_pos":-1,"best_pos":1,"similarity":0.286,"stretto":false,"stretto_voices":0,"combination":[]},{"voice":0,"pitch":64,"start":116.7,"duration":0.3,"velocity":127,"measure":49,"beat":3.5,"subject_pos":-1,"motif":"","motif_pos":-1,"best_pos":6,"similarity":0.371,"stretto":false,"stretto_voices":0,"combination":[]},{"voice":0,"pitch":60,"start":117.0,"duration":0.3,"velocity":127,"measure":49,"beat":4.0,"subject_pos":-1,"motif":"","motif_pos":-1,"best_pos":5,"similarity":0.35,"stretto":false,"stretto_voices":0,"combination":[]},{"voice":2,"pitch":53,"start":117.0,"duration":0.9,"velocity":127,"measure":49,"beat":4.0,"subject_pos":-1,"motif":"","motif_pos":-1,"best_pos":1,"similarity":0.336,"stretto":false,"stretto_voices":0,"combination":[]},{"voice":0,"pitch":62,"start":117.3,"duration":0.3,"velocity":127,"measure":49,"beat":4.5,"subject_pos":-1,"motif":"","motif_pos":-1,"best_pos":2,"similarity":0.35,"stretto":false,"stretto_voices":0,"combination":[]},{"voice":0,"pitch":59,"start":117.6,"duration":0.6,"velocity":127,"measure":50,"beat":1.0,"subject_pos":-1,"motif":"","motif_pos":-1,"best_pos":3,"similarity":0.407,"stretto":false,"stretto_voices":0,"combination":[]},{"voice":1,"pitch":67,"start":117.6,"duration":0.6,"velocity":127,"measure":50,"beat":1.0,"subject_pos":-1,"motif":"","motif_pos":-1,"best_pos":0,"similarity":0.339,"stretto":false,"stretto_voices":0,"combination":[]},{"voice":2,"pitch":51,"start":117.9,"duration":0.3,"velocity":127,"measure":50,"beat":1.5,"subject_pos":-1,"motif":"","motif_pos":-1,"best_pos":4,"similarity":0.507,"stretto":false,"stretto_voices":0,"combination":[]},{"voice":0,"pitch":67,"start":118.2,"duration":0.6,"velocity":127,"measure":50,"beat":2.0,"subject_pos":-1,"motif":"","motif_pos":-1,"best_pos":5,"similarity":0.464,"stretto":false,"stretto_voices":0,"combination":[]},{"voice":1,"pitch":72,"start":118.2,"duration":0.6,"velocity":127,"measure":50,"beat":2.0,"subject_pos":-1,"motif":"","motif_pos":-1,"best_pos":1,"similarity":0.464,"stretto":false,"stretto_voices":0,"combination":[]},{"voice":2,"pitch":52,"start":118.2,"duration":0.3,"velocity":127,"measure":50,"beat":2.0,"subject_pos":-1,"motif":"","motif_pos":-1,"best_pos":5,"similarity":0.5,"stretto":false,"stretto_voices":0,"combination":[]},{"voice":2,"pitch":52,"start":118.5,"duration":0.3,"velocity":127,"measure":50,"beat":2.5,"subject_pos":-1,"motif":"","motif_pos":-1,"best_pos":4,"similarity":0.443,"stretto":false,"stretto_voices":0,"combination":[]},{"voice":0,"pitch":69,"start":118.8,"duration":0.6,"velocity":127,"measure":50,"beat":3.0,"subject_pos":-1,"motif":"","motif_pos":-1,"best_pos":6,"similarity":0.589,"stretto":false,"stretto_voices":0,"combination":[]},{"voice":1,"pitch":66,"start":118.8,"duration":0.6,"velocity":127,"measure":50,"beat":3.0,"subject_pos":-1,"motif":"","motif_pos":-1,"best_pos":2,"similarity":0.436,"stretto":false,"stretto_voices":0,"combination":[]},{"voice":2,"pitch":52,"start":118.8,"duration":0.3,"velocity":127,"measure":50,"beat":3.0,"subject_pos":-1,"motif":"","motif_pos":-1,"best_pos":2,"similarity":0.429,"stretto":false,"stretto_voices":0,"combination":[]},{"voice":2,"pitch":49,"start":119.1,"duration":0.3,"velocity":127,"measure":50,"beat":3.5,"subject_pos":-1,"motif":"","motif_pos":-1,"best_pos":3,"similarity":0.482,"stretto":false,"stretto_voices":0,"combination":[]},{"voice":0,"pitch":70,"start":119.4,"duration":0.6,"velocity":127,"measure":50,"beat":4.0,"subject_pos":-1,"motif":"","motif_pos":-1,"best_pos":7,"similarity":0.429,"stretto":false,"stretto_voices":0,"combination":[]},{"voice":1,"pitch":65,"start":119.4,"duration":0.6,"velocity":127,"measure":50,"beat":4.0,"subject_pos":-1,"motif":"enigmatic_cell","motif_pos":0,"best_pos":0,"similarity":1.0,"stretto":false,"stretto_voices":0,"combination":[]},{"voice":2,"pitch":50,"start":119.4,"duration":0.3,"velocity":127,"measure":50,"beat":4.0,"subject_pos":-1,"motif":"","motif_pos":-1,"best_pos":5,"similarity":0.471,"stretto":false,"stretto_voices":0,"combination":[]},{"voice":2,"pitch":50,"start":119.7,"duration":0.3,"velocity":127,"measure":50,"beat":4.5,"subject_pos":-1,"motif":"","motif_pos":-1,"best_pos":4,"similarity":0.407,"stretto":false,"stretto_voices":0,"combination":[]},{"voice":0,"pitch":68,"start":120.0,"duration":0.6,"velocity":127,"measure":51,"beat":1.0,"subject_pos":-1,"motif":"","motif_pos":-1,"best_pos":2,"similarity":0.379,"stretto":false,"stretto_voices":0,"combination":[]},{"voice":1,"pitch":64,"start":120.0,"duration":0.6,"velocity":127,"measure":51,"beat":1.0,"subject_pos":-1,"motif":"enigmatic_cell","motif_pos":1,"best_pos":1,"similarity":1.0,"stretto":false,"stretto_voices":0,"combination":[]},{"voice":2,"pitch":50,"start":120.0,"duration":0.3,"velocity":127,"measure":51,"beat":1.0,"subject_pos":-1,"motif":"","motif_pos":-1,"best_pos":2,"similarity":0.429,"stretto":false,"stretto_voices":0,"combination":[]},{"voice":2,"pitch":47,"start":120.3,"duration":0.3,"velocity":127,"measure":51,"beat":1.5,"subject_pos":-1,"motif":"","motif_pos":-1,"best_pos":3,"similarity":0.482,"stretto":false,"stretto_voices":0,"combination":[]},{"voice":0,"pitch":76,"start":120.6,"duration":0.6,"velocity":127,"measure":51,"beat":2.0,"subject_pos":-1,"motif":"","motif_pos":-1,"best_pos":1,"similarity":0.321,"stretto":false,"stretto_voices":0,"combination":[]},{"voice":1,"pitch":69,"start":120.6,"duration":0.6,"velocity":127,"measure":51,"beat":2.0,"subject_pos":-1,"motif":"enigmatic_cell","motif_pos":2,"best_pos":2,"similarity":1.0,"stretto":false,"stretto_voices":0,"combination":[]},{"voice":2,"pitch":48,"start":120.6,"duration":0.3,"velocity":127,"measure":51,"beat":2.0,"subject_pos":-1,"motif":"","motif_pos":-1,"best_pos":5,"similarity":0.471,"stretto":false,"stretto_voices":0,"combination":[]},{"voice":2,"pitch":48,"start":120.9,"duration":0.3,"velocity":127,"measure":51,"beat":2.5,"subject_pos":-1,"motif":"","motif_pos":-1,"best_pos":6,"similarity":0.375,"stretto":false,"stretto_voices":0,"combination":[]},{"voice":1,"pitch":62,"start":121.2,"duration":1.2,"velocity":127,"measure":51,"beat":3.0,"subject_pos":-1,"motif":"","motif_pos":-1,"best_pos":2,"similarity":0.364,"stretto":false,"stretto_voices":0,"combination":[]},{"voice":2,"pitch":48,"start":121.2,"duration":0.3,"velocity":127,"measure":51,"beat":3.0,"subject_pos":-1,"motif":"","motif_pos":-1,"best_pos":3,"similarity":0.379,"stretto":false,"stretto_voices":0,"combination":[]},{"voice":2,"pitch":47,"start":121.5,"duration":0.3,"velocity":127,"measure":51,"beat":3.5,"subject_pos":-1,"motif":"","motif_pos":-1,"best_pos":2,"similarity":0.5,"stretto":false,"stretto_voices":0,"combination":[]},{"voice":2,"pitch":45,"start":121.8,"duration":0.3,"velocity":127,"measure":51,"beat":4.0,"subject_pos":-1,"motif":"","motif_pos":-1,"best_pos":3,"similarity":0.643,"stretto":false,"stretto_voices":0,"combination":[]},{"voice":2,"pitch":44,"start":122.1,"duration":0.3,"velocity":127,"measure":51,"beat":4.5,"subject_pos":-1,"motif":"","motif_pos":-1,"best_pos":4,"similarity":0.686,"stretto":false,"stretto_voices":0,"combination":[]},{"voice":1,"pitch":60,"start":122.4,"duration":0.6,"velocity":127,"measure":52,"beat":1.0,"subject_pos":-1,"motif":"","motif_pos":-1,"best_pos":4,"similarity":0.45,"stretto":false,"stretto_voices":0,"combination":[]},{"voice":2,"pitch":45,"start":122.4,"duration":1.2,"velocity":127,"measure":52,"beat":1.0,"subject_pos":-1,"motif":"","motif_pos":-1,"best_pos":5,"similarity":0.479,"stretto":false,"stretto_voices":0,"combination":[]},{"voice":0,"pitch":76,"start":122.7,"duration":0.3,"velocity":127,"measure":52,"beat":1.5,"subject_pos":-1,"motif":"","motif_pos":-1,"best_pos":1,"similarity":0.429,"stretto":false,"stretto_voices":0,"combination":[]},{"voice":0,"pitch":74,"start":123.0,"duration":0.3,"velocity":127,"measure":52,"beat":2.0,"subject_pos":-1,"motif":"","motif_pos":-1,"best_pos":2,"similarity":0.643,"stretto":false,"stretto_voices":0,"combination":[]},{"voice":1,"pitch":62,"start":123.0,"duration":0.6,"velocity":127,"measure":52,"beat":2.0,"subject_pos":-1,"motif":"","motif_pos":-1,"best_pos":5,"similarity":0.521,"stretto":false,"stretto_voices":0,"combination":[]},{"voice":0,"pitch":72,"start":123.3,"duration":0.3,"velocity":127,"measure":52,"beat":2.5,"subject_pos":-1,"motif":"","motif_pos":-1,"best_pos":3,"similarity":0.714,"stretto":false,"stretto_voices":0,"combination":[]},{"voice":0,"pitch":71,"start":123.6,"duration":0.3,"velocity":127,"measure":52,"beat":3.0,"subject_pos":-1,"motif":"","motif_pos":-1,"best_pos":4,"similarity":0.75,"stretto":false,"stretto_voices":0,"combination":[]},{"voice":1,"pitch":64,"start":123.6,"duration":0.3,"velocity":127,"measure":52,"beat":3.0,"subject_pos":-1,"motif":"","motif_pos":-1,"best_pos":6,"similarity":0.421,"stretto":false,"stretto_voices":0,"combination":[]},{"voice":0,"pitch":72,"start":123.9,"duration":0.3,"velocity":127,"measure":52,"beat":3.5,"subject_pos":-1,"motif":"","motif_pos":-1,"best_pos":5,"similarity":0.536,"stretto":false,"stretto_voices":0,"combination":[]},{"voice":1,"pitch":62,"start":123.9,"duration":0.3,"velocity":127,"measure":52,"beat":3.5,"subject_pos":-1,"motif":"","motif_pos":-1,"best_pos":5,"similarity":0.329,"stretto":false,"stretto_voices":0,"combination":[]},{"voice":0,"pitch":69,"start":124.2,"duration":0.3,"velocity":127,"measure":52,"beat":4.0,"subject_pos":-1,"motif":"","motif_pos":-1,"best_pos":4,"similarity":0.479,"stretto":false,"stretto_voices":0,"combination":[]},{"voice":1,"pitch":64,"start":124.2,"duration":0.6,"velocity":127,"measure":52,"beat":4.0,"subject_pos":-1,"motif":"","motif_pos":-1,"best_pos":6,"similarity":0.307,"stretto":false,"stretto_voices":0,"combination":[]},{"voice":2,"pitch":55,"start":124.2,"duration":0.9,"velocity":127,"measure":52,"beat":4.0,"subject_pos":-1,"motif":"","motif_pos":-1,"best_pos":1,"similarity":0.386,"stretto":false,"stretto_voices":0,"combination":[]},{"voice":0,"pitch":71,"start":124.5,"duration":0.3,"velocity":127,"measure":52,"beat":4.5,"subject_pos":-1,"motif":"","motif_pos":-1,"best_pos":5,"similarity":0.614,"stretto":false,"stretto_voices":0,"combination":[]},{"voice":0,"pitch":73,"start":124.8,"duration":0.6,"velocity":127,"measure":53,"beat":1.0,"subject_pos":-1,"motif":"","motif_pos":-1,"best_pos":6,"similarity":0.661,"stretto":false,"stretto_voices":0,"combination":[]},{"voice":1,"pitch":57,"start":124.8,"duration":1.2,"velocity":127,"measure":53,"beat":1.0,"subject_pos":-1,"motif":"","motif_pos":-1,"best_pos":1,"similarity":0.364,"stretto":false,"stretto_voices":0,"combination":[]},{"voice":2,"pitch":53,"start":125.1,"duration":0.3,"velocity":127,"measure":53,"beat":1.5,"subject_pos":-1,"motif":"","motif_pos":-1,"best_pos":2,"similarity":0.461,"stretto":false,"stretto_voices":0,"combination":[]},{"voice":0,"pitch":74,"start":125.4,"duration":0.6,"velocity":127,"measure":53,"beat":2.0,"subject_pos":-1,"motif":"","motif_pos":-1,"best_pos":5,"similarity":0.6,"stretto":false,"stretto_voices":0,"combination":[]},{"voice":2,"pitch":52,"start":125.4,"duration":0.3,"velocity":127,"measure":53,"beat":2.0,"subject_pos":-1,"motif":"","motif_pos":-1,"best_pos":2,"similarity":0.5,"stretto":false,"stretto_voices":0,"combination":[]},{"voice":2,"pitch":50,"start":125.7,"duration":0.3,"velocity":127,"measure":53,"beat":2.5,"subject_pos":-1,"motif":"","motif_pos":-1,"best_pos":3,"similarity":0.643,"stretto":false,"stretto_voices":0,"combination":[]},{"voice":0,"pitch":76,"start":126.0,"duration":0.3,"velocity":127,"measure":53,"beat":3.0,"subject_pos":-1,"motif":"","motif_pos":-1,"best_pos":6,"similarity":0.464,"stretto":false,"stretto_voices":0,"combination":[]},{"voice":2,"pitch":49,"start":126.0,"duration":0.3,"velocity":127,"measure":53,"beat":3.0,"subject_pos":-1,"motif":"","motif_pos":-1,"best_pos":4,"similarity":0.714,"stretto":false,"stretto_voices":0,"combination":[]},{"voice":0,"pitch":74,"start":126.3,"duration":0.3,"velocity":127,"measure":53,"beat":3.5,"subject_pos":-1,"motif":"","motif_pos":-1,"best_pos":2,"similarity":0.371,"stretto":false,"stretto_voices":0,"combination":[]},{"voice":2,"pitch":50,"start":126.3,"duration":0.3,"velocity":127,"measure":53,"beat":3.5,"subject_pos":-1,"motif":"","motif_pos":-1,"best_pos":5,"similarity":0.536,"stretto":false,"stretto_voices":0,"combination":[]},{"voice":0,"pitch":76,"start":126.6,"duration":0.6,"velocity":127,"measure":53,"beat":4.0,"subject_pos":-1,"motif":"","motif_pos":-1,"best_pos":5,"similarity":0.357,"stretto":false,"stretto_voices":0,"combination":[]},{"voice":1,"pitch":55,"start":126.6,"duration":0.9,"velocity":127,"measure":53,"beat":4.0,"subject_pos":-1,"motif":"","motif_pos":-1,"best_pos":2,"similarity":0.479,"stretto":false,"stretto_voices":0,"combination":[]},{"voice":2,"pitch":47,"start":126.6,"duration":0.3,"velocity":127,"measure":53,"beat":4.0,"subject_pos":-1,"motif":"","motif_pos":-1,"best_pos":3,"similarity":0.543,"stretto":false,"stretto_voices":0,"combination":[]},{"voice":2,"pitch":49,"start":126.9,"duration":0.3,"velocity":127,"measure":53,"beat":4.5,"subject_pos":-1,"motif":"","motif_pos":-1,"best_pos":4,"similarity":0.679,"stretto":false,"stretto_voices":0,"combination":[]},{"voice":0,"pitch":69,"start":127.2,"duration":0.6,"velocity":127,"measure":54,"beat":1.0,"subject_pos":-1,"motif":"","motif_pos":-1,"best_pos":6,"similarity":0.393,"stretto":false,"stretto_voices":0,"combination":[]},{"voice":2,"pitch":50,"start":127.2,"duration":1.2,"velocity":127,"measure":54,"beat":1.0,"subject_pos":-1,"motif":"","motif_pos":-1,"best_pos":5,"similarity":0.8,"stretto":false,"stretto_voices":0,"combination":[]},{"voice":1,"pitch":53,"start":127.5,"duration":0.3,"velocity":127,"measure":54,"beat":1.5,"subject_pos":-1,"motif":"","motif_pos":-1,"best_pos":4,"similarity":0.579,"stretto":false,"stretto_voices":0,"combination":[]},{"voice":0,"pitch":70,"start":127.8,"duration":0.3,"velocity":127,"measure":54,"beat":2.0,"subject_pos":-1,"motif":"","motif_pos":-1,"best_pos":3,"similarity":0.357,"stretto":false,"stretto_voices":0,"combination":[]},{"voice":1,"pitch":55,"start":127.8,"duration":0.3,"velocity":127,"measure":54,"beat":2.0,"subject_pos":-1,"motif":"","motif_pos":-1,"best_pos":5,"similarity":0.679,"stretto":false,"stretto_voices":0,"combination":[]},{"voice":0,"pitch":69,"start":128.1,"duration":0.3,"velocity":127,"measure":54,"beat":2.5,"subject_pos":-1,"motif":"","motif_pos":-1,"best_pos":2,"similarity":0.407,"stretto":false,"stretto_voices":0,"combination":[]},{"voice":1,"pitch":57,"start":128.1,"duration":0.3,"velocity":127,"measure":54,"beat":2.5,"subject_pos":-1,"motif":"","motif_pos":-1,"best_pos":6,"similarity":0.679,"stretto":false,"stretto_voices":0,"combination":[]},{"voice":0,"pitch":67,"start":128.4,"duration":0.3,"velocity":127,"measure":54,"beat":3.0,"subject_pos":-1,"motif":"","motif_pos":-1,"best_pos":2,"similarity":0.443,"stretto":false,"stretto_voices":0,"combination":[]},{"voice":1,"pitch":58,"start":128.4,"duration":0.3,"velocity":127,"measure":54,"beat":3.0,"subject_pos":-1,"motif":"","motif_pos":-1,"best_pos":7,"similarity":0.464,"stretto":false,"stretto_voices":0,"combination":[]},{"voice":0,"pitch":65,"start":128.7,"duration":0.3,"velocity":127,"measure":54,"beat":3.5,"subject_pos":-1,"motif":"","motif_pos":-1,"best_pos":4,"similarity":0.429,"stretto":false,"stretto_voices":0,"combination":[]},{"voice":1,"pitch":57,"start":128.7,"duration":0.3,"velocity":127,"measure":54,"beat":3.5,"subject_pos":-1,"motif":"","motif_pos":-1,"best_pos":4,"similarity":0.411,"stretto":false,"stretto_voices":0,"combination":[]},{"voice":0,"pitch":67,"start":129.0,"duration":0.9,"velocity":127,"measure":54,"beat":4.0,"subject_pos":-1,"motif":"head_inv","motif_pos":0,"best_pos":0,"similarity":1.0,"stretto":false,"stretto_voices":0,"combination":[]},{"voice":1,"pitch":60,"start":129.0,"duration":0.3,"velocity":127,"measure":54,"beat":4.0,"subject_pos":-1,"motif":"","motif_pos":-1,"best_pos":1,"similarity":0.393,"stretto":false,"stretto_voices":0,"combination":[]},{"voice":2,"pitch":52,"start":129.0,"duration":0.6,"velocity":127,"measure":54,"beat":4.0,"subject_pos":-1,"motif":"","motif_pos":-1,"best_pos":6,"similarity":0.721,"stretto":false,"stretto_voices":0,"combination":[]},{"voice":1,"pitch":58,"start":129.3,"duration":0.3,"velocity":127,"measure":54,"beat":4.5,"subject_pos":-1,"motif":"","motif_pos":-1,"best_pos":3,"similarity":0.443,"stretto":false,"stretto_voices":0,"combination":[]},{"voice":1,"pitch":57,"start":129.6,"duration":1.2,"velocity":127,"measure":55,"beat":1.0,"subject_pos":-1,"motif":"","motif_pos":-1,"best_pos":4,"similarity":0.421,"stretto":false,"stretto_voices":0,"combination":[]},{"voice":2,"pitch":53,"start":129.6,"duration":0.6,"velocity":127,"measure":55,"beat":1.0,"subject_pos":-1,"motif":"","motif_pos":-1,"best_pos":7,"similarity":0.5,"stretto":false,"stretto_voices":0,"combination":[]},{"voice":0,"pitch":60,"start":129.9,"duration":0.3,"velocity":127,"measure":55,"beat":1.5,"subject_pos":-1,"motif":"head_inv","motif_pos":1,"best_pos":1,"similarity":1.0,"stretto":false,"stretto_voices":0,"combination":[]},{"voice":0,"pitch":62,"start":130.2,"duration":0.3,"velocity":127,"measure":55,"beat":2.0,"subject_pos":-1,"motif":"head_inv","motif_pos":2,"best_pos":2,"similarity":1.0,"stretto":false,"stretto_voices":0,"combination":[]},{"voice":2,"pitch":41,"start":130.2,"duration":0.3,"velocity":127,"measure":55,"beat":2.0,"subject_pos":-1,"motif":"","motif_pos":-1,"best_pos":5,"similarity":0.393,"stretto":false,"stretto_voices":0,"combination":[]},{"voice":0,"pitch":64,"start":130.5,"duration":0.3,"velocity":127,"measure":55,"beat":2.5,"subject_pos":-1,"motif":"head_inv","motif_pos":3,"best_pos":3,"similarity":1.0,"stretto":false,"stretto_voices":0,"combination":[]},{"voice":2,"pitch":43,"start":130.5,"duration":0.3,"velocity":127,"measure":55,"beat":2.5,"subject_pos":-1,"motif":"","motif_pos":-1,"best_pos":5,"similarity":0.507,"stretto":false,"stretto_voices":0,"combination":[]},{"voice":0,"pitch":65,"start":130.8,"duration":0.3,"velocity":127,"measure":55,"beat":3.0,"subject_pos":-1,"motif":"head_inv","motif_pos":4,"best_pos":4,"similarity":1.0,"stretto":false,"stretto_voices":0,"combination":[]},{"voice":2,"pitch":45,"start":130.8,"duration":0.6,"velocity":127,"measure":55,"beat":3.0,"subject_pos":-1,"motif":"","motif_pos":-1,"best_pos":5,"similarity":0.586,"stretto":false,"stretto_voices":0,"combination":[]},{"voice":0,"pitch":64,"start":131.1,"duration":0.3,"velocity":127,"measure":55,"beat":3.5,"subject_pos":-1,"motif":"","motif_pos":-1,"best_pos":4,"similarity":0.411,"stretto":false,"stretto_voices":0,"combination":[]},{"voice":0,"pitch":67,"start":131.4,"duration":0.3,"velocity":127,"measure":55,"beat":4.0,"subject_pos":-1,"motif":"","motif_pos":-1,"best_pos":1,"similarity":0.393,"stretto":false,"stretto_voices":0,"combination":[]},{"voice":1,"pitch":62,"start":131.4,"duration":0.9,"velocity":127,"measure":55,"beat":4.0,"subject_pos":-1,"motif":"head_inv","motif_pos":0,"best_pos":0,"similarity":1.0,"stretto":false,"stretto_voices":0,"combination":[]},{"voice":2,"pitch":47,"start":131.4,"duration":0.6,"velocity":127,"measure":55,"beat":4.0,"subject_pos":-1,"motif":"","motif_pos":-1,"best_pos":6,"similarity":0.65,"stretto":false,"stretto_voices":0,"combination":[]},{"voice":0,"pitch":65,"start":131.7,"duration":0.3,"velocity":127,"measure":55,"beat":4.5,"subject_pos":-1,"motif":"","motif_pos":-1,"best_pos":3,"similarity":0.443,"stretto":false,"stretto_voices":0,"combination":[]},{"voice":0,"pitch":64,"start":132.0,"duration":1.2,"velocity":127,"measure":56,"beat":1.0,"subject_pos":-1,"motif":"","motif_pos":-1,"best_pos":4,"similarity":0.421,"stretto":false,"stretto_voices":0,"combination":[]},{"voice":2,"pitch":48,"start":132.0,"duration":0.6,"velocity":127,"measure":56,"beat":1.0,"subject_pos":-1,"motif":"","motif_pos":-1,"best_pos":7,"similarity":0.464,"stretto":false,"stretto_voices":0,"combination":[]},{"voice":1,"pitch":55,"start":132.3,"duration":0.3,"velocity":127,"measure":56,"beat":1.5,"subject_pos":-1,"motif":"head_inv","motif_pos":1,"best_pos":1,"similarity":1.0,"stretto":false,"stretto_voices":0,"combination":[]},{"voice":1,"pitch":57,"start":132.6,"duration":0.3,"velocity":127,"measure":56,"beat":2.0,"subject_pos":-1,"motif":"head_inv","motif_pos":2,"best_pos":2,"similarity":1.0,"stretto":false,"stretto_voices":0,"combination":[]},{"voice":2,"pitch":46,"start":132.6,"duration":0.6,"velocity":127,"measure":56,"beat":2.0,"subject_pos":-1,"motif":"","motif_pos":-1,"best_pos":3,"similarity":0.45,"stretto":false,"stretto_voices":0,"combination":[]},{"voice":1,"pitch":58,"start":132.9,"duration":0.3,"velocity":127,"measure":56,"beat":2.5,"subject_pos":-1,"motif":"head_inv","motif_pos":3,"best_pos":3,"similarity":1.0,"stretto":false,"stretto_voices":0,"combination":[]},{"voice":1,"pitch":60,"start":133.2,"duration":0.3,"velocity":127,"measure":56,"beat":3.0,"subject_pos":-1,"motif":"head_inv","motif_pos":4,"best_pos":4,"similarity":1.0,"stretto":false,"stretto_voices":0,"combination":[]},{"voice":2,"pitch":45,"start":133.2,"duration":0.6,"velocity":127,"measure":56,"beat":3.0,"subject_pos":-1,"motif":"","motif_pos":-1,"best_pos":4,"similarity":0.364,"stretto":false,"stretto_voices":0,"combination":[]},{"voice":1,"pitch":58,"start":133.5,"duration":0.3,"velocity":127,"measure":56,"beat":3.5,"subject_pos":-1,"motif":"","motif_pos":-1,"best_pos":2,"similarity":0.379,"stretto":false,"stretto_voices":0,"combination":[]},{"voice":0,"pitch":69,"start":133.8,"duration":0.9,"velocity":127,"measure":56,"beat":4.0,"subject_pos":-1,"motif":"head_inv","motif_pos":0,"best_pos":0,"similarity":1.0,"stretto":false,"stretto_voices":0,"combination":[]},{"voice":1,"pitch":62,"start":133.8,"duration":0.3,"velocity":127,"measure":56,"beat":4.0,"subject_pos":-1,"motif":"","motif_pos":-1,"best_pos":1,"similarity":0.5,"stretto":false,"stretto_voices":0,"combination":[]},{"voice":2,"pitch":54,"start":133.8,"duration":0.6,"velocity":127,"measure":56,"beat":4.0,"subject_pos":-1,"motif":"","motif_pos":-1,"best_pos":5,"similarity":0.179,"stretto":false,"stretto_voices":0,"combination":[]},{"voice":1,"pitch":60,"start":134.1,"duration":0.3,"velocity":127,"measure":56,"beat":4.5,"subject_pos":-1,"motif":"","motif_pos":-1,"best_pos":2,"similarity":0.507,"stretto":false,"stretto_voices":0,"combination":[]},{"voice":1,"pitch":58,"start":134.4,"duration":1.2,"velocity":127,"measure":57,"beat":1.0,"subject_pos":-1,"motif":"","motif_pos":-1,"best_pos":2,"similarity":0.393,"stretto":false,"stretto_voices":0,"combination":[]},{"voice":2,"pitch":43,"start":134.4,"duration":0.3,"velocity":127,"measure":57,"beat":1.0,"subject_pos":-1,"motif":"","motif_pos":-1,"best_pos":2,"similarity":0.186,"stretto":false,"stretto_voices":0,"combination":[]},{"voice":0,"pitch":62,"start":134.7,"duration":0.3,"velocity":127,"measure":57,"beat":1.5,"subject_pos":-1,"motif":"head_inv","motif_pos":1,"best_pos":1,"similarity":1.0,"stretto":false,"stretto_voices":0,"combination":[]},{"voice":2,"pitch":53,"start":134.7,"duration":0.3,"velocity":127,"measure":57,"beat":1.5,"subject_pos":-1,"motif":"","motif_pos":-1,"best_pos":3,"similarity":0.325,"stretto":false,"stretto_voices":0,"combination":[]},{"voice":0,"pitch":64,"start":135.0,"duration":0.3,"velocity":127,"measure":57,"beat":2.0,"subject_pos":-1,"motif":"head_inv","motif_pos":2,"best_pos":2,"similarity":1.0,"stretto":false,"stretto_voices":0,"combination":[]},{"voice":2,"pitch":52,"start":135.0,"duration":0.3,"velocity":127,"measure":57,"beat":2.0,"subject_pos":-1,"motif":"","motif_pos":-1,"best_pos":2,"similarity":0.514,"stretto":false,"stretto_voices":0,"combination":[]},{"voice":0,"pitch":65,"start":135.3,"duration":0.3,"velocity":127,"measure":57,"beat":2.5,"subject_pos":-1,"motif":"head_inv","motif_pos":3,"best_pos":3,"similarity":1.0,"stretto":false,"stretto_voices":0,"combination":[]},{"voice":2,"pitch":50,"start":135.3,"duration":0.3,"velocity":127,"measure":57,"beat":2.5,"subject_pos":-1,"motif":"","motif_pos":-1,"best_pos":3,"similarity":0.65,"stretto":false,"stretto_voices":0,"combination":[]},{"voice":0,"pitch":67,"start":135.6,"duration":0.3,"velocity":127,"measure":57,"beat":3.0,"subject_pos":-1,"motif":"head_inv","motif_pos":4,"best_pos":4,"similarity":1.0,"stretto":false,"stretto_voices":0,"combination":[]},{"voice":2,"pitch":49,"start":135.6,"duration":0.3,"velocity":127,"measure":57,"beat":3.0,"subject_pos":-1,"motif":"","motif_pos":-1,"best_pos":4,"similarity":0.714,"stretto":false,"stretto_voices":0,"combination":[]},{"voice":0,"pitch":65,"start":135.9,"duration":0.3,"velocity":127,"measure":57,"beat":3.5,"subject_pos":-1,"motif":"","motif_pos":-1,"best_pos":2,"similarity":0.379,"stretto":false,"stretto_voices":0,"combination":[]},{"voice":2,"pitch":50,"start":135.9,"duration":0.3,"velocity":127,"measure":57,"beat":3.5,"subject_pos":-1,"motif":"","motif_pos":-1,"best_pos":5,"similarity":0.536,"stretto":false,"stretto_voices":0,"combination":[]},{"voice":0,"pitch":69,"start":136.2,"duration":0.3,"velocity":127,"measure":57,"beat":4.0,"subject_pos":-1,"motif":"","motif_pos":-1,"best_pos":1,"similarity":0.5,"stretto":false,"stretto_voices":0,"combination":[]},{"voice":1,"pitch":64,"start":136.2,"duration":0.9,"velocity":127,"measure":57,"beat":4.0,"subject_pos":-1,"motif":"","motif_pos":-1,"best_pos":3,"similarity":0.429,"stretto":false,"stretto_voices":0,"combination":[]},{"voice":2,"pitch":47,"start":136.2,"duration":0.3,"velocity":127,"measure":57,"beat":4.0,"subject_pos":-1,"motif":"","motif_pos":-1,"best_pos":3,"similarity":0.543,"stretto":false,"stretto_voices":0,"combination":[]},{"voice":0,"pitch":67,"start":136.5,"duration":0.3,"velocity":127,"measure":57,"beat":4.5,"subject_pos":-1,"motif":"","motif_pos":-1,"best_pos":2,"similarity":0.507,"stretto":false,"stretto_voices":0,"combination":[]},{"voice":2,"pitch":49,"start":136.5,"duration":0.3,"velocity":127,"measure":57,"beat":4.5,"subject_pos":-1,"motif":"","motif_pos":-1,"best_pos":4,"similarity":0.679,"stretto":false,"stretto_voices":0,"combination":[]},{"voice":0,"pitch":65,"start":136.8,"duration":1.2,"velocity":127,"measure":58,"beat":1.0,"subject_pos":-1,"motif":"","motif_pos":-1,"best_pos":2,"similarity":0.364,"stretto":false,"stretto_voices":0,"combination":[]},{"voice":2,"pitch":50,"start":136.8,"duration":0.3,"velocity":127,"measure":58,"beat":1.0,"subject_pos":-1,"motif":"","motif_pos":-1,"best_pos":5,"similarity":0.8,"stretto":false,"stretto_voices":0,"combination":[]},{"voice":1,"pitch":61,"start":137.1,"duration":0.3,"velocity":127,"measure":58,"beat":1.5,"subject_pos":-1,"motif":"","motif_pos":-1,"best_pos":4,"similarity":0.643,"stretto":false,"stretto_voices":0,"combination":[]},{"voice":2,"pitch":52,"start":137.1,"duration":0.3,"velocity":127,"measure":58,"beat":1.5,"subject_pos":-1,"motif":"","motif_pos":-1,"best_pos":6,"similarity":0.721,"stretto":false,"stretto_voices":0,"combination":[]},{"voice":1,"pitch":62,"start":137.4,"duration":0.3,"velocity":127,"measure":58,"beat":2.0,"subject_pos":-1,"motif":"","motif_pos":-1,"best_pos":5,"similarity":0.75,"stretto":false,"stretto_voices":0,"combination":[]},{"voice":2,"pitch":53,"start":137.4,"duration":0.3,"velocity":127,"measure":58,"beat":2.0,"subject_pos":-1,"motif":"","motif_pos":-1,"best_pos":5,"similarity":0.664,"stretto":false,"stretto_voices":0,"combination":[]},{"voice":1,"pitch":64,"start":137.7,"duration":0.3,"velocity":127,"measure":58,"beat":2.5,"subject_pos":-1,"motif":"","motif_pos":-1,"best_pos":6,"similarity":0.732,"stretto":false,"stretto_voices":0,"combination":[]},{"voice":2,"pitch":55,"start":137.7,"duration":0.3,"velocity":127,"measure":58,"beat":2.5,"subject_pos":-1,"motif":"","motif_pos":-1,"best_pos":6,"similarity":0.579,"stretto":false,"stretto_voices":0,"combination":[]},{"voice":1,"pitch":65,"start":138.0,"duration":0.3,"velocity":127,"measure":58,"beat":3.0,"subject_pos":-1,"motif":"","motif_pos":-1,"best_pos":7,"similarity":0.5,"stretto":false,"stretto_voices":0,"combination":[]},{"voice":2,"pitch":57,"start":138.0,"duration":0.3,"velocity":127,"measure":58,"beat":3.0,"subject_pos":-1,"motif":"","motif_pos":-1,"best_pos":6,"similarity":0.404,"stretto":false,"stretto_voices":0,"combination":[]},{"voice":1,"pitch":64,"start":138.3,"duration":0.3,"velocity":127,"measure":58,"beat":3.5,"subject_pos":-1,"motif":"","motif_pos":-1,"best_pos":4,"similarity":0.411,"stretto":false,"stretto_voices":0,"combination":[]},{"voice":2,"pitch":55,"start":138.3,"duration":0.3,"velocity":127,"measure":58,"beat":3.5,"subject_pos":-1,"motif":"","motif_pos":-1,"best_pos":2,"similarity":0.45,"stretto":false,"stretto_voices":0,"combination":[]},{"voice":0,"pitch":74,"start":138.6,"duration":1.2,"velocity":127,"measure":58,"beat":4.0,"subject_pos":-1,"motif":"","motif_pos":-1,"best_pos":1,"similarity":0.5,"stretto":false,"stretto_voices":0,"combination":[]},{"voice":1,"pitch":67,"start":138.6,"duration":0.3,"velocity":127,"measure":58,"beat":4.0,"subject_pos":-1,"motif":"","motif_pos":-1,"best_pos":1,"similarity":0.429,"stretto":false,"stretto_voices":0,"combination":[]},{"voice":2,"pitch":58,"start":138.6,"duration":0.3,"velocity":127,"measure":58,"beat":4.0,"subject_pos":-1,"motif":"","motif_pos":-1,"best_pos":3,"similarity":0.457,"stretto":false,"stretto_voices":0,"combination":[]},{"voice":1,"pitch":65,"start":138.9,"duration":0.3,"velocity":127,"measure":58,"beat":4.5,"subject_pos":-1,"motif":"","motif_pos":-1,"best_pos":2,"similarity":0.471,"stretto":false,"stretto_voices":0,"combination":[]},{"voice":2,"pitch":57,"start":138.9,"duration":0.3,"velocity":127,"measure":58,"beat":4.5,"subject_pos":-1,"motif":"","motif_pos":-1,"best_pos":4,"similarity":0.407,"stretto":false,"stretto_voices":0,"combination":[]},{"voice":1,"pitch":64,"start":139.2,"duration":1.2,"velocity":127,"measure":59,"beat":1.0,"subject_pos":-1,"motif":"","motif_pos":-1,"best_pos":4,"similarity":0.407,"stretto":false,"stretto_voices":0,"combination":[]},{"voice":2,"pitch":55,"start":139.2,"duration":0.3,"velocity":127,"measure":59,"beat":1.0,"subject_pos":-1,"motif":"","motif_pos":-1,"best_pos":2,"similarity":0.436,"stretto":false,"stretto_voices":0,"combination":[]},{"voice":2,"pitch":53,"start":139.5,"duration":0.3,"velocity":127,"measure":59,"beat":1.5,"subject_pos":-1,"motif":"","motif_pos":-1,"best_pos":2,"similarity":0.364,"stretto":false,"stretto_voices":0,"combination":[]},{"voice":0,"pitch":72,"start":139.8,"duration":1.2,"velocity":127,"measure":59,"beat":2.0,"subject_pos":-1,"motif":"","motif_pos":-1,"best_pos":2,"similarity":0.614,"stretto":false,"stretto_voices":0,"combination":[]},{"voice":2,"pitch":57,"start":139.8,"duration":0.3,"velocity":127,"measure":59,"beat":2.0,"subject_pos":-1,"motif":"","motif_pos":-1,"best_pos":1,"similarity":0.571,"stretto":false,"stretto_voices":0,"combination":[]},{"voice":2,"pitch":55,"start":140.1,"duration":0.3,"velocity":127,"measure":59,"beat":2.5,"subject_pos":-1,"motif":"","motif_pos":-1,"best_pos":2,"similarity":0.661,"stretto":false,"stretto_voices":0,"combination":[]},{"voice":1,"pitch":62,"start":140.4,"duration":1.2,"velocity":127,"measure":59,"beat":3.0,"subject_pos":-1,"motif":"","motif_pos":-1,"best_pos":2,"similarity":0.446,"stretto":false,"stretto_voices":0,"combination":[]},{"voice":2,"pitch":53,"start":140.4,"duration":0.3,"velocity":127,"measure":59,"beat":3.0,"subject_pos":-1,"motif":"","motif_pos":-1,"best_pos":3,"similarity":0.65,"stretto":false,"stretto_voices":0,"combination":[]},{"voice":2,"pitch":52,"start":140.7,"duration":0.3,"velocity":127,"measure":59,"beat":3.5,"subject_pos":-1,"motif":"","motif_pos":-1,"best_pos":4,"similarity":0.532,"stretto":false,"stretto_voices":0,"combination":[]},{"voice":0,"pitch":70,"start":141.0,"duration":1.2,"velocity":127,"measure":59,"beat":4.0,"subject_pos":-1,"motif":"","motif_pos":-1,"best_pos":3,"similarity":0.611,"stretto":false,"stretto_voices":0,"combination":[]},{"voice":2,"pitch":55,"start":141.0,"duration":0.3,"velocity":127,"measure":59,"beat":4.0,"subject_pos":-1,"motif":"","motif_pos":-1,"best_pos":1,"similarity":0.411,"stretto":false,"stretto_voices":0,"combination":[]},{"voice":2,"pitch":53,"start":141.3,"duration":0.3,"velocity":127,"measure":59,"beat":4.5,"subject_pos":-1,"motif":"","motif_pos":-1,"best_pos":3,"similarity":0.643,"stretto":false,"stretto_voices":0,"combination":[]},{"voice":1,"pitch":60,"start":141.6,"duration":0.6,"velocity":127,"measure":60,"beat":1.0,"subject_pos":-1,"motif":"","motif_pos":-1,"best_pos":2,"similarity":0.5,"stretto":false,"stretto_voices":0,"combination":[]},{"voice":2,"pitch":52,"start":141.6,"duration":0.3,"velocity":127,"measure":60,"beat":1.0,"subject_pos":-1,"motif":"","motif_pos":-1,"best_pos":4,"similarity":0.821,"stretto":false,"stretto_voices":0,"combination":[]},{"voice":2,"pitch":53,"start":141.9,"duration":0.3,"velocity":127,"measure":60,"beat":1.5,"subject_pos":-1,"motif":"","motif_pos":-1,"best_pos":5,"similarity":0.821,"stretto":false,"stretto_voices":0,"combination":[]},{"voice":0,"pitch":69,"start":142.2,"duration":0.6,"velocity":127,"measure":60,"beat":2.0,"subject_pos":-1,"motif":"","motif_pos":-1,"best_pos":4,"similarity":0.471,"stretto":false,"stretto_voices":0,"combination":[]},{"voice":1,"pitch":65,"start":142.2,"duration":1.2,"velocity":127,"measure":60,"beat":2.0,"subject_pos":-1,"motif":"","motif_pos":-1,"best_pos":3,"similarity":0.571,"stretto":false,"stretto_voices":0,"combination":[]},{"voice":2,"pitch":55,"start":142.2,"duration":0.3,"velocity":127,"measure":60,"beat":2.0,"subject_pos":-1,"motif":"","motif_pos":-1,"best_pos":6,"similarity":0.643,"stretto":false,"stretto_voices":0,"combination":[]},{"voice":2,"pitch":57,"start":142.5,"duration":0.3,"velocity":127,"measure":60,"beat":2.5,"subject_pos":-1,"motif":"","motif_pos":-1,"best_pos":6,"similarity":0.661,"stretto":false,"stretto_voices":0,"combination":[]},{"voice":0,"pitch":67,"start":142.8,"duration":1.2,"velocity":127,"measure":60,"beat":3.0,"subject_pos":-1,"motif":"","motif_pos":-1,"best_pos":2,"similarity":0.464,"stretto":false,"stretto_voices":0,"combination":[]},{"voice":2,"pitch":58,"start":142.8,"duration":0.3,"velocity":127,"measure":60,"beat":3.0,"subject_pos":-1,"motif":"","motif_pos":-1,"best_pos":7,"similarity":0.464,"stretto":false,"stretto_voices":0,"combination":[]},{"voice":2,"pitch":57,"start":143.1,"duration":0.3,"velocity":127,"measure":60,"beat":3.5,"subject_pos":-1,"motif":"","motif_pos":-1,"best_pos":4,"similarity":0.411,"stretto":false,"stretto_voices":0,"combination":[]},{"voice":1,"pitch":64,"start":143.4,"duration":0.6,"velocity":127,"measure":60,"beat":4.0,"subject_pos":-1,"motif":"","motif_pos":-1,"best_pos":4,"similarity":0.65,"stretto":false,"stretto_voices":0,"combination":[]},{"voice":2,"pitch":60,"start":143.4,"duration":0.3,"velocity":127,"measure":60,"beat":4.0,"subject_pos":-1,"motif":"","motif_pos":-1,"best_pos":1,"similarity":0.429,"stretto":false,"stretto_voices":0,"combination":[]},{"voice":2,"pitch":58,"start":143.7,"duration":0.3,"velocity":127,"measure":60,"beat":4.5,"subject_pos":-1,"motif":"","motif_pos":-1,"best_pos":2,"similarity":0.471,"stretto":false,"stretto_voices":0,"combination":[]},{"voice":0,"pitch":65,"start":144.0,"duration":0.3,"velocity":127,"measure":61,"beat":1.0,"subject_pos":-1,"motif":"","motif_pos":-1,"best_pos":3,"similarity":0.429,"stretto":false,"stretto_voices":0,"combination":[]},{"voice":1,"pitch":65,"start":144.0,"duration":1.2,"velocity":127,"measure":61,"beat":1.0,"subject_pos":-1,"motif":"","motif_pos":-1,"best_pos":5,"similarity":0.443,"stretto":false,"stretto_voices":0,"combination":[]},{"voice":2,"pitch":57,"start":144.0,"duration":0.3,"velocity":127,"measure":61,"beat":1.0,"subject_pos":-1,"motif":"","motif_pos":-1,"best_pos":1,"similarity":0.429,"stretto":false,"stretto_voices":0,"combination":[]},{"voice":0,"pitch":72,"start":144.3,"duration":0.3,"velocity":127,"measure":61,"beat":1.5,"subject_pos":-1,"motif":"","motif_pos":-1,"best_pos":4,"similarity":0.5,"stretto":false,"stretto_voices":0,"combination":[]},{"voice":2,"pitch":55,"start":144.3,"duration":0.3,"velocity":127,"measure":61,"beat":1.5,"subject_pos":-1,"motif":"","motif_pos":-1,"best_pos":2,"similarity":0.579,"stretto":false,"stretto_voices":0,"combination":[]},{"voice":0,"pitch":74,"start":144.6,"duration":0.3,"velocity":127,"measure":61,"beat":2.0,"subject_pos":-1,"motif":"","motif_pos":-1,"best_pos":5,"similarity":0.607,"stretto":false,"stretto_voices":0,"combination":[]},{"voice":2,"pitch":53,"start":144.6,"duration":0.3,"velocity":127,"measure":61,"beat":2.0,"subject_pos":-1,"motif":"","motif_pos":-1,"best_pos":3,"similarity":0.586,"stretto":false,"stretto_voices":0,"combination":[]},{"voice":0,"pitch":76,"start":144.9,"duration":0.3,"velocity":127,"measure":61,"beat":2.5,"subject_pos":-1,"motif":"","motif_pos":-1,"best_pos":6,"similarity":0.643,"stretto":false,"stretto_voices":0,"combination":[]},{"voice":2,"pitch":52,"start":144.9,"duration":0.3,"velocity":127,"measure":61,"beat":2.5,"subject_pos":-1,"motif":"","motif_pos":-1,"best_pos":4,"similarity":0.457,"stretto":false,"stretto_voices":0,"combination":[]},{"voice":0,"pitch":77,"start":145.2,"duration":1.2,"velocity":127,"measure":61,"beat":3.0,"subject_pos":-1,"motif":"enigmatic_cell","motif_pos":0,"best_pos":0,"similarity":1.0,"stretto":false,"stretto_voices":0,"combination":[]},{"voice":2,"pitch":50,"start":145.2,"duration":0.3,"velocity":127,"measure":61,"beat":3.0,"subject_pos":-1,"motif":"","motif_pos":-1,"best_pos":0,"similarity":0.304,"stretto":false,"stretto_voices":0,"combination":[]},{"voice":2,"pitch":57,"start":145.5,"duration":0.3,"velocity":127,"measure":61,"beat":3.5,"subject_pos":-1,"motif":"","motif_pos":-1,"best_pos":1,"similarity":0.339,"stretto":false,"stretto_voices":0,"combination":[]},{"voice":1,"pitch":74,"start":145.8,"duration":0.9,"velocity":127,"measure":61,"beat":4.0,"subject_pos":-1,"motif":"","motif_pos":-1,"best_pos":2,"similarity":0.371,"stretto":false,"stretto_voices":0,"combination":[]},{"voice":2,"pitch":48,"start":145.8,"duration":0.3,"velocity":127,"measure":61,"beat":4.0,"subject_pos":-1,"motif":"","motif_pos":-1,"best_pos":3,"similarity":0.464,"stretto":false,"stretto_voices":0,"combination":[]},{"voice":2,"pitch":47,"start":146.1,"duration":0.3,"velocity":127,"measure":61,"beat":4.5,"subject_pos":-1,"motif":"","motif_pos":-1,"best_pos":4,"similarity":0.714,"stretto":false,"stretto_voices":0,"combination":[]},{"voice":0,"pitch":76,"start":146.4,"duration":0.6,"velocity":127,"measure":62,"beat":1.0,"subject_pos":-1,"motif":"enigmatic_cell","motif_pos":1,"best_pos":1,"similarity":1.0,"stretto":false,"stretto_voices":0,"combination":[]},{"voice":2,"pitch":48,"start":146.4,"duration":3.6,"velocity":127,"measure":62,"beat":1.0,"subject_pos":-1,"motif":"","motif_pos":-1,"best_pos":5,"similarity":0.714,"stretto":false,"stretto_voices":0,"combination":[]},{"voice":1,"pitch":71,"start":146.7,"duration":0.3,"velocity":127,"measure":62,"beat":1.5,"subject_pos":-1,"motif":"","motif_pos":-1,"best_pos":3,"similarity":0.454,"stretto":false,"stretto_voices":0,"combination":[]},{"voice":0,"pitch":81,"start":147.0,"duration":0.6,"velocity":127,"measure":62,"beat":2.0,"subject_pos":-1,"motif":"enigmatic_cell","motif_pos":2,"best_pos":2,"similarity":1.0,"stretto":false,"stretto_voices":0,"combination":[]},{"voice":1,"pitch":72,"start":147.0,"duration":0.3,"velocity":127,"measure":62,"beat":2.0,"subject_pos":-1,"motif":"","motif_pos":-1,"best_pos":5,"similarity":0.464,"stretto":false,"stretto_voices":0,"combination":[]},{"voice":1,"pitch":72,"start":147.3,"duration":0.3,"velocity":127,"measure":62,"beat":2.5,"subject_pos":-1,"motif":"","motif_pos":-1,"best_pos":4,"similarity":0.407,"stretto":false,"stretto_voices":0,"combination":[]},{"voice":0,"pitch":74,"start":147.6,"duration":0.6,"velocity":127,"measure":62,"beat":3.0,"subject_pos":-1,"motif":"","motif_pos":-1,"best_pos":2,"similarity":0.393,"stretto":false,"stretto_voices":0,"combination":[]},{"voice":1,"pitch":72,"start":147.6,"duration":0.3,"velocity":127,"measure":62,"beat":3.0,"subject_pos":-1,"motif":"","motif_pos":-1,"best_pos":2,"similarity":0.429,"stretto":false,"stretto_voices":0,"combination":[]},{"voice":1,"pitch":69,"start":147.9,"duration":0.3,"velocity":127,"measure":62,"beat":3.5,"subject_pos":-1,"motif":"","motif_pos":-1,"best_pos":3,"similarity":0.482,"stretto":false,"stretto_voices":0,"combination":[]},{"voice":0,"pitch":73,"start":148.2,"duration":0.6,"velocity":127,"measure":62,"beat":4.0,"subject_pos":-1,"motif":"enigmatic_cell","motif_pos":0,"best_pos":0,"similarity":1.0,"stretto":false,"stretto_voices":0,"combination":[]},{"voice":1,"pitch":70,"start":148.2,"duration":0.3,"velocity":127,"measure":62,"beat":4.0,"subject_pos":-1,"motif":"","motif_pos":-1,"best_pos":5,"similarity":0.471,"stretto":false,"stretto_voices":0,"combination":[]},{"voice":1,"pitch":70,"start":148.5,"duration":0.3,"velocity":127,"measure":62,"beat":4.5,"subject_pos":-1,"motif":"","motif_pos":-1,"best_pos":4,"similarity":0.421,"stretto":false,"stretto_voices":0,"combination":[]},{"voice":0,"pitch":72,"start":148.8,"duration":0.6,"velocity":127,"measure":63,"beat":1.0,"subject_pos":-1,"motif":"enigmatic_cell","motif_pos":1,"best_pos":1,"similarity":1.0,"stretto":false,"stretto_voices":0,"combination":[]},{"voice":1,"pitch":70,"start":148.8,"duration":0.3,"velocity":127,"measure":63,"beat":1.0,"subject_pos":-1,"motif":"","motif_pos":-1,"best_pos":5,"similarity":0.393,"stretto":false,"stretto_voices":0,"combination":[]},{"voice":1,"pitch":68,"start":149.1,"duration":0.3,"velocity":127,"measure":63,"beat":1.5,"subject_pos":-1,"motif":"","motif_pos":-1,"best_pos":4,"similarity":0.532,"stretto":false,"stretto_voices":0,"combination":[]},{"voice":0,"pitch":77,"start":149.4,"duration":0.6,"velocity":127,"measure":63,"beat":2.0,"subject_pos":-1,"motif":"enigmatic_cell","motif_pos":2,"best_pos":2,"similarity":1.0,"stretto":false,"stretto_voices":0,"combination":[]},{"voice":1,"pitch":69,"start":149.4,"duration":0.3,"velocity":127,"measure":63,"beat":2.0,"subject_pos":-1,"motif":"","motif_pos":-1,"best_pos":5,"similarity":0.507,"stretto":false,"stretto_voices":0,"combination":[]},{"voice":1,"pitch":69,"start":149.7,"duration":0.3,"velocity":127,"measure":63,"beat":2.5,"subject_pos":-1,"motif":"","motif_pos":-1,"best_pos":4,"similarity":0.393,"stretto":false,"stretto_voices":0,"combination":[]},{"voice":0,"pitch":67,"start":150.0,"duration":1.2,"velocity":127,"measure":63,"beat":3.0,"subject_pos":-1,"motif":"","motif_pos":-1,"best_pos":5,"similarity":0.446,"stretto":false,"stretto_voices":0,"combination":[]},{"voice":1,"pitch":69,"start":150.0,"duration":0.3,"velocity":127,"measure":63,"beat":3.0,"subject_pos":-1,"motif":"","motif_pos":-1,"best_pos":1,"similarity":0.429,"stretto":false,"stretto_voices":0,"combination":[]},{"voice":1,"pitch":67,"start":150.3,"duration":0.3,"velocity":127,"measure":63,"beat":3.5,"subject_pos":-1,"motif":"","motif_pos":-1,"best_pos":2,"similarity":0.643,"stretto":false,"stretto_voices":0,"combination":[]},{"voice":1,"pitch":65,"start":150.6,"duration":0.3,"velocity":127,"measure":63,"beat":4.0,"subject_pos":-1,"motif":"","motif_pos":-1,"best_pos":3,"similarity":0.721,"stretto":false,"stretto_voices":0,"combination":[]},{"voice":2,"pitch":49,"start":150.6,"duration":0.6,"velocity":127,"measure":63,"beat":4.0,"subject_pos":-1,"motif":"","motif_pos":-1,"best_pos":6,"similarity":0.643,"stretto":false,"stretto_voices":0,"combination":[]},{"voice":1,"pitch":64,"start":150.9,"duration":0.3,"velocity":127,"measure":63,"beat":4.5,"subject_pos":-1,"motif":"","motif_pos":-1,"best_pos":4,"similarity":0.746,"stretto":false,"stretto_voices":0,"combination":[]},{"voice":0,"pitch":69,"start":151.2,"duration":0.6,"velocity":127,"measure":64,"beat":1.0,"subject_pos":-1,"motif":"","motif_pos":-1,"best_pos":6,"similarity":0.571,"stretto":false,"stretto_voices":0,"combination":[]},{"voice":1,"pitch":65,"start":151.2,"duration":1.8,"velocity":127,"measure":64,"beat":1.0,"subject_pos":-1,"motif":"","motif_pos":-1,"best_pos":5,"similarity":0.529,"stretto":false,"stretto_voices":0,"combination":[]},{"voice":2,"pitch":50,"start":151.2,"duration":0.3,"velocity":127,"measure":64,"beat":1.0,"subject_pos":-1,"motif":"","motif_pos":-1,"best_pos":7,"similarity":0.429,"stretto":false,"stretto_voices":0,"combination":[]},{"voice":2,"pitch":62,"start":151.5,"duration":0.3,"velocity":127,"measure":64,"beat":1.5,"subject_pos":-1,"motif":"","motif_pos":-1,"best_pos":1,"similarity":0.429,"stretto":false,"stretto_voices":0,"combination":[]},{"voice":0,"pitch":70,"start":151.8,"duration":0.6,"velocity":127,"measure":64,"beat":2.0,"subject_pos":-1,"motif":"","motif_pos":-1,"best_pos":5,"similarity":0.6,"stretto":false,"stretto_voices":0,"combination":[]},{"voice":2,"pitch":60,"start":151.8,"duration":0.3,"velocity":127,"measure":64,"beat":2.0,"subject_pos":-1,"motif":"","motif_pos":-1,"best_pos":2,"similarity":0.643,"stretto":false,"stretto_voices":0,"combination":[]},{"voice":2,"pitch":58,"start":152.1,"duration":0.3,"velocity":127,"measure":64,"beat":2.5,"subject_pos":-1,"motif":"","motif_pos":-1,"best_pos":3,"similarity":0.714,"stretto":false,"stretto_voices":0,"combination":[]},{"voice":0,"pitch":72,"start":152.4,"duration":0.3,"velocity":127,"measure":64,"beat":3.0,"subject_pos":-1,"motif":"","motif_pos":-1,"best_pos":6,"similarity":0.464,"stretto":false,"stretto_voices":0,"combination":[]},{"voice":2,"pitch":57,"start":152.4,"duration":0.3,"velocity":127,"measure":64,"beat":3.0,"subject_pos":-1,"motif":"","motif_pos":-1,"best_pos":4,"similarity":0.75,"stretto":false,"stretto_voices":0,"combination":[]},{"voice":0,"pitch":70,"start":152.7,"duration":0.3,"velocity":127,"measure":64,"beat":3.5,"subject_pos":-1,"motif":"","motif_pos":-1,"best_pos":5,"similarity":0.336,"stretto":false,"stretto_voices":0,"combination":[]},{"voice":2,"pitch":58,"start":152.7,"duration":0.3,"velocity":127,"measure":64,"beat":3.5,"subject_pos":-1,"motif":"","motif_pos":-1,"best_pos":5,"similarity":0.536,"stretto":false,"stretto_voices":0,"combination":[]},{"voice":0,"pitch":72,"start":153.0,"duration":0.6,"velocity":127,"measure":64,"beat":4.0,"subject_pos":-1,"motif":"","motif_pos":-1,"best_pos":6,"similarity":0.307,"stretto":false,"stretto_voices":0,"combination":[]},{"voice":1,"pitch":63,"start":153.0,"duration":0.9,"velocity":127,"measure":64,"beat":4.0,"subject_pos":-1,"motif":"","motif_pos":-1,"best_pos":3,"similarity":0.55,"stretto":false,"stretto_voices":0,"combination":[]},{"voice":2,"pitch":55,"start":153.0,"duration":0.3,"velocity":127,"measure":64,"beat":4.0,"subject_pos":-1,"motif":"","motif_pos":-1,"best_pos":5,"similarity":0.511,"stretto":false,"stretto_voices":0,"combination":[]},{"voice":2,"pitch":57,"start":153.3,"duration":0.3,"velocity":127,"measure":64,"beat":4.5,"subject_pos":-1,"motif":"","motif_pos":-1,"best_pos":6,"similarity":0.604,"stretto":false,"stretto_voices":0,"combination":[]},{"voice":0,"pitch":65,"start":153.6,"duration":0.6,"velocity":127,"measure":65,"beat":1.0,"subject_pos":-1,"motif":"","motif_pos":-1,"best_pos":0,"similarity":0.357,"stretto":false,"stretto_voices":0,"combination":[]},{"voice":2,"pitch":58,"start":153.6,"duration":0.3,"velocity":127,"measure":65,"beat":1.0,"subject_pos":-1,"motif":"","motif_pos":-1,"best_pos":7,"similarity":0.436,"stretto":false,"stretto_voices":0,"combination":[]},{"voice":1,"pitch":62,"start":153.9,"duration":0.3,"velocity":127,"measure":65,"beat":1.5,"subject_pos":-1,"motif":"","motif_pos":-1,"best_pos":4,"similarity":0.614,"stretto":false,"stretto_voices":0,"combination":[]},{"voice":2,"pitch":57,"start":153.9,"duration":0.3,"velocity":127,"measure":65,"beat":1.5,"subject_pos":-1,"motif":"","motif_pos":-1,"best_pos":1,"similarity":0.429,"stretto":false,"stretto_voices":0,"combination":[]},{"voice":1,"pitch":64,"start":154.2,"duration":0.3,"velocity":127,"measure":65,"beat":2.0,"subject_pos":-1,"motif":"","motif_pos":-1,"best_pos":6,"similarity":0.643,"stretto":false,"stretto_voices":0,"combination":[]},{"voice":2,"pitch":55,"start":154.2,"duration":0.3,"velocity":127,"measure":65,"beat":2.0,"subject_pos":-1,"motif":"","motif_pos":-1,"best_pos":2,"similarity":0.643,"stretto":false,"stretto_voices":0,"combination":[]},{"voice":1,"pitch":65,"start":154.5,"duration":0.3,"velocity":127,"measure":65,"beat":2.5,"subject_pos":-1,"motif":"","motif_pos":-1,"best_pos":5,"similarity":0.618,"stretto":false,"stretto_voices":0,"combination":[]},{"voice":2,"pitch":53,"start":154.5,"duration":0.3,"velocity":127,"measure":65,"beat":2.5,"subject_pos":-1,"motif":"","motif_pos":-1,"best_pos":3,"similarity":0.714,"stretto":false,"stretto_voices":0,"combination":[]},{"voice":1,"pitch":67,"start":154.8,"duration":0.3,"velocity":127,"measure":65,"beat":3.0,"subject_pos":-1,"motif":"","motif_pos":-1,"best_pos":6,"similarity":0.464,"stretto":false,"stretto_voices":0,"combination":[]},{"voice":2,"pitch":52,"start":154.8,"duration":0.3,"velocity":127,"measure":65,"beat":3.0,"subject_pos":-1,"motif":"","motif_pos":-1,"best_pos":4,"similarity":0.75,"stretto":false,"stretto_voices":0,"combination":[]},{"voice":1,"pitch":65,"start":155.1,"duration":0.3,"velocity":127,"measure":65,"beat":3.5,"subject_pos":-1,"motif":"","motif_pos":-1,"best_pos":2,"similarity":0.336,"stretto":false,"stretto_voices":0,"combination":[]},{"voice":2,"pitch":53,"start":155.1,"duration":0.3,"velocity":127,"measure":65,"beat":3.5,"subject_pos":-1,"motif":"","motif_pos":-1,"best_pos":5,"similarity":0.536,"stretto":false,"stretto_voices":0,"combination":[]},{"voice":0,"pitch":70,"start":155.4,"duration":0.9,"velocity":127,"measure":65,"beat":4.0,"subject_pos":-1,"motif":"","motif_pos":-1,"best_pos":1,"similarity":0.446,"stretto":false,"stretto_voices":0,"combination":[]},{"voice":1,"pitch":67,"start":155.4,"duration":0.6,"velocity":127,"measure":65,"beat":4.0,"subject_pos":-1,"motif":"head_inv","motif_pos":0,"best_pos":0,"similarity":1.0,"stretto":false,"stretto_voices":0,"combination":[]},{"voice":2,"pitch":50,"start":155.4,"duration":0.3,"velocity":127,"measure":65,"beat":4.0,"subject_pos":-1,"motif":"","motif_pos":-1,"best_pos":5,"similarity":0.511,"stretto":false,"stretto_voices":0,"combination":[]},{"voice":2,"pitch":52,"start":155.7,"duration":0.3,"velocity":127,"measure":65,"beat":4.5,"subject_pos":-1,"motif":"","motif_pos":-1,"best_pos":6,"similarity":0.604,"stretto":false,"stretto_voices":0,"combination":[]},{"voice":1,"pitch":60,"start":156.0,"duration":0.6,"velocity":127,"measure":66,"beat":1.0,"subject_pos":-1,"motif":"head_inv","motif_pos":1,"best_pos":1,"similarity":1.0,"stretto":false,"stretto_voices":0,"combination":[]},{"voice":2,"pitch":53,"start":156.0,"duration":0.3,"velocity":127,"measure":66,"beat":1.0,"subject_pos":-1,"motif":"","motif_pos":-1,"best_pos":7,"similarity":0.436,"stretto":false,"stretto_voices":0,"combination":[]},{"voice":0,"pitch":69,"start":156.3,"duration":0.3,"velocity":127,"measure":66,"beat":1.5,"subject_pos":-1,"motif":"","motif_pos":-1,"best_pos":4,"similarity":0.543,"stretto":false,"stretto_voices":0,"combination":[]},{"voice":2,"pitch":52,"start":156.3,"duration":0.3,"velocity":127,"measure":66,"beat":1.5,"subject_pos":-1,"motif":"","motif_pos":-1,"best_pos":1,"similarity":0.429,"stretto":false,"stretto_voices":0,"combination":[]},{"voice":0,"pitch":71,"start":156.6,"duration":0.3,"velocity":127,"measure":66,"beat":2.0,"subject_pos":-1,"motif":"","motif_pos":-1,"best_pos":6,"similarity":0.607,"stretto":false,"stretto_voices":0,"combination":[]},{"voice":1,"pitch":62,"start":156.6,"duration":0.3,"velocity":127,"measure":66,"beat":2.0,"subject_pos":-1,"motif":"head_inv","motif_pos":2,"best_pos":2,"similarity":1.0,"stretto":false,"stretto_voices":0,"combination":[]},{"voice":2,"pitch":50,"start":156.6,"duration":0.3,"velocity":127,"measure":66,"beat":2.0,"subject_pos":-1,"motif":"","motif_pos":-1,"best_pos":2,"similarity":0.643,"stretto":false,"stretto_voices":0,"combination":[]},{"voice":0,"pitch":72,"start":156.9,"duration":0.3,"velocity":127,"measure":66,"beat":2.5,"subject_pos":-1,"motif":"","motif_pos":-1,"best_pos":5,"similarity":0.618,"stretto":false,"stretto_voices":0,"combination":[]},{"voice":1,"pitch":64,"start":156.9,"duration":0.3,"velocity":127,"measure":66,"beat":2.5,"subject_pos":-1,"motif":"head_inv","motif_pos":3,"best_pos":3,"similarity":1.0,"stretto":false,"stretto_voices":0,"combination":[]},{"voice":2,"pitch":48,"start":156.9,"duration":0.3,"velocity":127,"measure":66,"beat":2.5,"subject_pos":-1,"motif":"","motif_pos":-1,"best_pos":3,"similarity":0.714,"stretto":false,"stretto_voices":0,"combination":[]},{"voice":0,"pitch":74,"start":157.2,"duration":0.3,"velocity":127,"measure":66,"beat":3.0,"subject_pos":-1,"motif":"","motif_pos":-1,"best_pos":6,"similarity":0.464,"stretto":false,"stretto_voices":0,"combination":[]},{"voice":1,"pitch":65,"start":157.2,"duration":0.3,"velocity":127,"measure":66,"beat":3.0,"subject_pos":-1,"motif":"head_inv","motif_pos":4,"best_pos":4,"similarity":1.0,"stretto":false,"stretto_voices":0,"combination":[]},{"voice":2,"pitch":47,"start":157.2,"duration":0.3,"velocity":127,"measure":66,"beat":3.0,"subject_pos":-1,"motif":"","motif_pos":-1,"best_pos":4,"similarity":0.75,"stretto":false,"stretto_voices":0,"combination":[]},{"voice":0,"pitch":72,"start":157.5,"duration":0.3,"velocity":127,"measure":66,"beat":3.5,"subject_pos":-1,"motif":"","motif_pos":-1,"best_pos":5,"similarity":0.336,"stretto":false,"stretto_voices":0,"combination":[]},{"voice":1,"pitch":64,"start":157.5,"duration":0.3,"velocity":127,"measure":66,"beat":3.5,"subject_pos":-1,"motif":"","motif_pos":-1,"best_pos":4,"similarity":0.614,"stretto":false,"stretto_voices":0,"combination":[]},{"voice":2,"pitch":48,"start":157.5,"duration":0.3,"velocity":127,"measure":66,"beat":3.5,"subject_pos":-1,"motif":"","motif_pos":-1,"best_pos":5,"similarity":0.536,"stretto":false,"stretto_voices":0,"combination":[]},{"voice":0,"pitch":74,"start":157.8,"duration":0.6,"velocity":127,"measure":66,"beat":4.0,"subject_pos":-1,"motif":"","motif_pos":-1,"best_pos":6,"similarity":0.307,"stretto":false,"stretto_voices":0,"combination":[]},{"voice":1,"pitch":65,"start":157.8,"duration":0.6,"velocity":127,"measure":66,"beat":4.0,"subject_pos":-1,"motif":"","motif_pos":-1,"best_pos":5,"similarity":0.479,"stretto":false,"stretto_voices":0,"combination":[]},{"voice":2,"pitch":45,"start":157.8,"duration":0.3,"velocity":127,"measure":66,"beat":4.0,"subject_pos":-1,"motif":"","motif_pos":-1,"best_pos":3,"similarity":0.543,"stretto":false,"stretto_voices":0,"combination":[]},{"voice":2,"pitch":47,"start":158.1,"duration":0.3,"velocity":127,"measure":66,"beat":4.5,"subject_pos":-1,"motif":"","motif_pos":-1,"best_pos":4,"similarity":0.643,"stretto":false,"stretto_voices":0,"combination":[]},{"voice":0,"pitch":67,"start":158.4,"duration":0.3,"velocity":127,"measure":67,"beat":1.0,"subject_pos":-1,"motif":"","motif_pos":-1,"best_pos":5,"similarity":0.264,"stretto":false,"stretto_voices":0,"combination":[]},{"voice":1,"pitch":64,"start":158.4,"duration":0.6,"velocity":127,"measure":67,"beat":1.0,"subject_pos":-1,"motif":"","motif_pos":-1,"best_pos":4,"similarity":0.379,"stretto":false,"stretto_voices":0,"combination":[]},{"voice":2,"pitch":48,"start":158.4,"duration":0.3,"velocity":127,"measure":67,"beat":1.0,"subject_pos":-1,"motif":"","motif_pos":-1,"best_pos":5,"similarity":0.729,"stretto":false,"stretto_voices":0,"combination":[]},{"voice":0,"pitch":71,"start":158.7,"duration":0.3,"velocity":127,"measure":67,"beat":1.5,"subject_pos":-1,"motif":"","motif_pos":-1,"best_pos":4,"similarity":0.486,"stretto":false,"stretto_voices":0,"combination":[]},{"voice":2,"pitch":50,"start":158.7,"duration":0.3,"velocity":127,"measure":67,"beat":1.5,"subject_pos":-1,"motif":"","motif_pos":-1,"best_pos":5,"similarity":0.607,"stretto":false,"stretto_voices":0,"combination":[]},{"voice":0,"pitch":72,"start":159.0,"duration":0.3,"velocity":127,"measure":67,"beat":2.0,"subject_pos":-1,"motif":"","motif_pos":-1,"best_pos":5,"similarity":0.65,"stretto":false,"stretto_voices":0,"combination":[]},{"voice":2,"pitch":52,"start":159.0,"duration":0.3,"velocity":127,"measure":67,"beat":2.0,"subject_pos":-1,"motif":"","motif_pos":-1,"best_pos":6,"similarity":0.661,"stretto":false,"stretto_voices":0,"combination":[]},{"voice":0,"pitch":74,"start":159.3,"duration":0.3,"velocity":127,"measure":67,"beat":2.5,"subject_pos":-1,"motif":"","motif_pos":-1,"best_pos":5,"similarity":0.607,"stretto":false,"stretto_voices":0,"combination":[]},{"voice":2,"pitch":53,"start":159.3,"duration":0.3,"velocity":127,"measure":67,"beat":2.5,"subject_pos":-1,"motif":"","motif_pos":-1,"best_pos":5,"similarity":0.657,"stretto":false,"stretto_voices":0,"combination":[]},{"voice":0,"pitch":76,"start":159.6,"duration":0.3,"velocity":127,"measure":67,"beat":3.0,"subject_pos":-1,"motif":"","motif_pos":-1,"best_pos":6,"similarity":0.661,"stretto":false,"stretto_voices":0,"combination":[]},{"voice":2,"pitch":55,"start":159.6,"duration":0.3,"velocity":127,"measure":67,"beat":3.0,"subject_pos":-1,"motif":"","motif_pos":-1,"best_pos":5,"similarity":0.607,"stretto":false,"stretto_voices":0,"combination":[]},{"voice":0,"pitch":77,"start":159.9,"duration":0.3,"velocity":127,"measure":67,"beat":3.5,"subject_pos":-1,"motif":"","motif_pos":-1,"best_pos":5,"similarity":0.657,"stretto":false,"stretto_voices":0,"combination":[]},{"voice":2,"pitch":57,"start":159.9,"duration":0.3,"velocity":127,"measure":67,"beat":3.5,"subject_pos":-1,"motif":"","motif_pos":-1,"best_pos":6,"similarity":0.661,"stretto":false,"stretto_voices":0,"combination":[]},{"voice":0,"pitch":79,"start":160.2,"duration":0.3,"velocity":127,"measure":67,"beat":4.0,"subject_pos":-1,"motif":"","motif_pos":-1,"best_pos":6,"similarity":0.579,"stretto":false,"stretto_voices":0,"combination":[]},{"voice":1,"pitch":62,"start":160.2,"duration":0.6,"velocity":127,"measure":67,"beat":4.0,"subject_pos":-1,"motif":"","motif_pos":-1,"best_pos":2,"similarity":0.5,"stretto":false,"stretto_voices":0,"combination":[]},{"voice":2,"pitch":58,"start":160.2,"duration":0.3,"velocity":127,"measure":67,"beat":4.0,"subject_pos":-1,"motif":"","motif_pos":-1,"best_pos":7,"similarity":0.464,"stretto":false,"stretto_voices":0,"combination":[]},{"voice":0,"pitch":79,"start":160.5,"duration":0.3,"velocity":127,"measure":67,"beat":4.5,"subject_pos":-1,"motif":"","motif_pos":-1,"best_pos":4,"similarity":0.364,"stretto":false,"stretto_voices":0,"combination":[]},{"voice":2,"pitch":55,"start":160.5,"duration":0.3,"velocity":127,"measure":67,"beat":4.5,"subject_pos":-1,"motif":"","motif_pos":-1,"best_pos":5,"similarity":0.364,"stretto":false,"stretto_voices":0,"combination":[]},{"voice":0,"pitch":79,"start":160.8,"duration":0.3,"velocity":127,"measure":68,"beat":1.0,"subject_pos":-1,"motif":"","motif_pos":-1,"best_pos":2,"similarity":0.429,"stretto":false,"stretto_voices":0,"combination":[]},{"voice":1,"pitch":60,"start":160.8,"duration":0.6,"velocity":127,"measure":68,"beat":1.0,"subject_pos":-1,"motif":"","motif_pos":-1,"best_pos":3,"similarity":0.429,"stretto":false,"stretto_voices":0,"combination":[]},{"voice":2,"pitch":57,"start":160.8,"duration":0.6,"velocity":127,"measure":68,"beat":1.0,"subject_pos":-1,"motif":"","motif_pos":-1,"best_pos":6,"similarity":0.346,"stretto":false,"stretto_voices":0,"combination":[]},{"voice":0,"pitch":76,"start":161.1,"duration":0.3,"velocity":127,"measure":68,"beat":1.5,"subject_pos":-1,"motif":"","motif_pos":-1,"best_pos":3,"similarity":0.482,"stretto":false,"stretto_voices":0,"combination":[]},{"voice":0,"pitch":77,"start":161.4,"duration":0.3,"velocity":127,"measure":68,"beat":2.0,"subject_pos":-1,"motif":"","motif_pos":-1,"best_pos":5,"similarity":0.471,"stretto":false,"stretto_voices":0,"combination":[]},{"voice":1,"pitch":69,"start":161.4,"duration":0.6,"velocity":127,"measure":68,"beat":2.0,"subject_pos":-1,"motif":"","motif_pos":-1,"best_pos":4,"similarity":0.446,"stretto":false,"stretto_voices":0,"combination":[]},{"voice":2,"pitch":62,"start":161.4,"duration":0.6,"velocity":127,"measure":68,"beat":2.0,"subject_pos":-1,"motif":"","motif_pos":-1,"best_pos":1,"similarity":0.421,"stretto":false,"stretto_voices":0,"combination":[]},{"voice":0,"pitch":77,"start":161.7,"duration":0.3,"velocity":127,"measure":68,"beat":2.5,"subject_pos":-1,"motif":"","motif_pos":-1,"best_pos":4,"similarity":0.407,"stretto":false,"stretto_voices":0,"combination":[]},{"voice":0,"pitch":77,"start":162.0,"duration":0.3,"velocity":127,"measure":68,"beat":3.0,"subject_pos":-1,"motif":"","motif_pos":-1,"best_pos":2,"similarity":0.429,"stretto":false,"stretto_voices":0,"combination":[]},{"voice":1,"pitch":70,"start":162.0,"duration":0.6,"velocity":127,"measure":68,"beat":3.0,"subject_pos":-1,"motif":"","motif_pos":-1,"best_pos":5,"similarity":0.357,"stretto":false,"stretto_voices":0,"combination":[]},{"voice":2,"pitch":55,"start":162.0,"duration":0.6,"velocity":127,"measure":68,"beat":3.0,"subject_pos":-1,"motif":"","motif_pos":-1,"best_pos":2,"similarity":0.393,"stretto":false,"stretto_voices":0,"combination":[]},{"voice":0,"pitch":74,"start":162.3,"duration":0.3,"velocity":127,"measure":68,"beat":3.5,"subject_pos":-1,"motif":"","motif_pos":-1,"best_pos":3,"similarity":0.482,"stretto":false,"stretto_voices":0,"combination":[]},{"voice":0,"pitch":75,"start":162.6,"duration":0.3,"velocity":127,"measure":68,"beat":4.0,"subject_pos":-1,"motif":"","motif_pos":-1,"best_pos":5,"similarity":0.471,"stretto":false,"stretto_voices":0,"combination":[]},{"voice":1,"pitch":58,"start":162.6,"duration":0.6,"velocity":127,"measure":68,"beat":4.0,"subject_pos":-1,"motif":"","motif_pos":-1,"best_pos":3,"similarity":0.389,"stretto":false,"stretto_voices":0,"combination":[]},{"voice":2,"pitch":54,"start":162.6,"duration":0.6,"velocity":127,"measure":68,"beat":4.0,"subject_pos":-1,"motif":"enigmatic_cell","motif_pos":0,"best_pos":0,"similarity":1.0,"stretto":false,"stretto_voices":0,"combination":[]},{"voice":0,"pitch":75,"start":162.9,"duration":0.3,"velocity":127,"measure":68,"beat":4.5,"subject_pos":-1,"motif":"","motif_pos":-1,"best_pos":4,"similarity":0.421,"stretto":false,"stretto_voices":0,"combination":[]},{"voice":0,"pitch":75,"start":163.2,"duration":0.3,"velocity":127,"measure":69,"beat":1.0,"subject_pos":-1,"motif":"","motif_pos":-1,"best_pos":5,"similarity":0.393,"stretto":false,"stretto_voices":0,"combination":[]},{"voice":1,"pitch":57,"start":163.2,"duration":0.6,"velocity":127,"measure":69,"beat":1.0,"subject_pos":-1,"motif":"","motif_pos":-1,"best_pos":4,"similarity":0.436,"stretto":false,"stretto_voices":0,"combination":[]},{"voice":2,"pitch":53,"start":163.2,"duration":0.6,"velocity":127,"measure":69,"beat":1.0,"subject_pos":-1,"motif":"enigmatic_cell","motif_pos":1,"best_pos":1,"similarity":1.0,"stretto":false,"stretto_voices":0,"combination":[]},{"voice":0,"pitch":73,"start":163.5,"duration":0.3,"velocity":127,"measure":69,"beat":1.5,"subject_pos":-1,"motif":"","motif_pos":-1,"best_pos":4,"similarity":0.532,"stretto":false,"stretto_voices":0,"combination":[]},{"voice":0,"pitch":74,"start":163.8,"duration":0.3,"velocity":127,"measure":69,"beat":2.0,"subject_pos":-1,"motif":"","motif_pos":-1,"best_pos":5,"similarity":0.507,"stretto":false,"stretto_voices":0,"combination":[]},{"voice":1,"pitch":65,"start":163.8,"duration":0.6,"velocity":127,"measure":69,"beat":2.0,"subject_pos":-1,"motif":"","motif_pos":-1,"best_pos":5,"similarity":0.429,"stretto":false,"stretto_voices":0,"combination":[]},{"voice":2,"pitch":58,"start":163.8,"duration":0.6,"velocity":127,"measure":69,"beat":2.0,"subject_pos":-1,"motif":"enigmatic_cell","motif_pos":2,"best_pos":2,"similarity":1.0,"stretto":false,"stretto_voices":0,"combination":[]},{"voice":0,"pitch":74,"start":164.1,"duration":0.3,"velocity":127,"measure":69,"beat":2.5,"subject_pos":-1,"motif":"","motif_pos":-1,"best_pos":4,"similarity":0.393,"stretto":false,"stretto_voices":0,"combination":[]},{"voice":0,"pitch":74,"start":164.4,"duration":0.3,"velocity":127,"measure":69,"beat":3.0,"subject_pos":-1,"motif":"","motif_pos":-1,"best_pos":1,"similarity":0.429,"stretto":false,"stretto_voices":0,"combination":[]},{"voice":1,"pitch":67,"start":164.4,"duration":0.6,"velocity":127,"measure":69,"beat":3.0,"subject_pos":-1,"motif":"","motif_pos":-1,"best_pos":6,"similarity":0.357,"stretto":false,"stretto_voices":0,"combination":[]},{"voice":2,"pitch":51,"start":164.4,"duration":1.2,"velocity":127,"measure":69,"beat":3.0,"subject_pos":-1,"motif":"","motif_pos":-1,"best_pos":3,"similarity":0.529,"stretto":false,"stretto_voices":0,"combination":[]},{"voice":0,"pitch":72,"start":164.7,"duration":0.3,"velocity":127,"measure":69,"beat":3.5,"subject_pos":-1,"motif":"","motif_pos":-1,"best_pos":2,"similarity":0.643,"stretto":false,"stretto_voices":0,"combination":[]},{"voice":0,"pitch":70,"start":165.0,"duration":0.3,"velocity":127,"measure":69,"beat":4.0,"subject_pos":-1,"motif":"","motif_pos":-1,"best_pos":3,"similarity":0.714,"stretto":false,"stretto_voices":0,"combination":[]},{"voice":1,"pitch":55,"start":165.0,"duration":0.6,"velocity":127,"measure":69,"beat":4.0,"subject_pos":-1,"motif":"","motif_pos":-1,"best_pos":1,"similarity":0.321,"stretto":false,"stretto_voices":0,"combination":[]},{"voice":0,"pitch":69,"start":165.3,"duration":0.3,"velocity":127,"measure":69,"beat":4.5,"subject_pos":-1,"motif":"enigmatic_cell","motif_pos":0,"best_pos":0,"similarity":1.0,"stretto":false,"stretto_voices":0,"combination":[]},{"voice":0,"pitch":70,"start":165.6,"duration":0.3,"velocity":127,"measure":70,"beat":1.0,"subject_pos":-1,"motif":"enigmatic_cell","motif_pos":1,"best_pos":1,"similarity":1.0,"stretto":false,"stretto_voices":0,"combination":[]},{"voice":1,"pitch":53,"start":165.6,"duration":0.3,"velocity":127,"measure":70,"beat":1.0,"subject_pos":-1,"motif":"","motif_pos":-1,"best_pos":2,"similarity":0.375,"stretto":false,"stretto_voices":0,"combination":[]},{"voice":2,"pitch":50,"start":165.6,"duration":0.6,"velocity":127,"measure":70,"beat":1.0,"subject_pos":-1,"motif":"","motif_pos":-1,"best_pos":4,"similarity":0.736,"stretto":false,"stretto_voices":0,"combination":[]},{"voice":0,"pitch":65,"start":165.9,"duration":0.3,"velocity":127,"measure":70,"beat":1.5,"subject_pos":-1,"motif":"enigmatic_cell","motif_pos":2,"best_pos":2,"similarity":1.0,"stretto":false,"stretto_voices":0,"combination":[]},{"voice":1,"pitch":65,"start":165.9,"duration":0.3,"velocity":127,"measure":70,"beat":1.5,"subject_pos":-1,"motif":"","motif_pos":-1,"best_pos":1,"similarity":0.357,"stretto":false,"stretto_voices":0,"combination":[]},{"voice":0,"pitch":70,"start":166.2,"duration":1.2,"velocity":127,"measure":70,"beat":2.0,"subject_pos":-1,"motif":"","motif_pos":-1,"best_pos":3,"similarity":0.507,"stretto":false,"stretto_voices":0,"combination":[]},{"voice":1,"pitch":63,"start":166.2,"duration":0.3,"velocity":127,"measure":70,"beat":2.0,"subject_pos":-1,"motif":"","motif_pos":-1,"best_pos":3,"similarity":0.514,"stretto":false,"stretto_voices":0,"combination":[]},{"voice":2,"pitch":51,"start":166.2,"duration":0.6,"velocity":127,"measure":70,"beat":2.0,"subject_pos":-1,"motif":"","motif_pos":-1,"best_pos":5,"similarity":0.736,"stretto":false,"stretto_voices":0,"combination":[]},{"voice":1,"pitch":62,"start":166.5,"duration":0.3,"velocity":127,"measure":70,"beat":2.5,"subject_pos":-1,"motif":"","motif_pos":-1,"best_pos":4,"similarity":0.529,"stretto":false,"stretto_voices":0,"combination":[]},{"voice":1,"pitch":60,"start":166.8,"duration":0.3,"velocity":127,"measure":70,"beat":3.0,"subject_pos":-1,"motif":"","motif_pos":-1,"best_pos":5,"similarity":0.493,"stretto":false,"stretto_voices":0,"combination":[]},{"voice":2,"pitch":53,"start":166.8,"duration":0.3,"velocity":127,"measure":70,"beat":3.0,"subject_pos":-1,"motif":"","motif_pos":-1,"best_pos":6,"similarity":0.529,"stretto":false,"stretto_voices":0,"combination":[]},{"voice":1,"pitch":62,"start":167.1,"duration":0.3,"velocity":127,"measure":70,"beat":3.5,"subject_pos":-1,"motif":"","motif_pos":-1,"best_pos":6,"similarity":0.371,"stretto":false,"stretto_voices":0,"combination":[]},{"voice":2,"pitch":51,"start":167.1,"duration":0.3,"velocity":127,"measure":70,"beat":3.5,"subject_pos":-1,"motif":"","motif_pos":-1,"best_pos":5,"similarity":0.336,"stretto":false,"stretto_voices":0,"combination":[]},{"voice":0,"pitch":69,"start":167.4,"duration":0.6,"velocity":127,"measure":70,"beat":4.0,"subject_pos":-1,"motif":"","motif_pos":-1,"best_pos":4,"similarity":0.614,"stretto":false,"stretto_voices":0,"combination":[]},{"voice":1,"pitch":58,"start":167.4,"duration":0.3,"velocity":127,"measure":70,"beat":4.0,"subject_pos":-1,"motif":"","motif_pos":-1,"best_pos":5,"similarity":0.407,"stretto":false,"stretto_voices":0,"combination":[]},{"voice":2,"pitch":53,"start":167.4,"duration":0.6,"velocity":127,"measure":70,"beat":4.0,"subject_pos":-1,"motif":"","motif_pos":-1,"best_pos":6,"similarity":0.307,"stretto":false,"stretto_voices":0,"combination":[]},{"voice":1,"pitch":60,"start":167.7,"duration":0.3,"velocity":127,"measure":70,"beat":4.5,"subject_pos":-1,"motif":"","motif_pos":-1,"best_pos":5,"similarity":0.443,"stretto":false,"stretto_voices":0,"combination":[]},{"voice":0,"pitch":70,"start":168.0,"duration":0.3,"velocity":127,"measure":71,"beat":1.0,"subject_pos":-1,"motif":"","motif_pos":-1,"best_pos":0,"similarity":0.446,"stretto":false,"stretto_voices":0,"combination":[]},{"voice":1,"pitch":62,"start":168.0,"duration":0.6,"velocity":127,"measure":71,"beat":1.0,"subject_pos":-1,"motif":"","motif_pos":-1,"best_pos":6,"similarity":0.364,"stretto":false,"stretto_voices":0,"combination":[]},{"voice":2,"pitch":46,"start":168.0,"duration":0.6,"velocity":127,"measure":71,"beat":1.0,"subject_pos":-1,"motif":"","motif_pos":-1,"best_pos":2,"similarity":0.257,"stretto":false,"stretto_voices":0,"combination":[]},{"voice":0,"pitch":77,"start":168.3,"duration":0.3,"velocity":127,"measure":71,"beat":1.5,"subject_pos":-1,"motif":"","motif_pos":-1,"best_pos":1,"similarity":0.643,"stretto":false,"stretto_voices":0,"combination":[]},{"voice":0,"pitch":75,"start":168.6,"duration":0.3,"velocity":127,"measure":71,"beat":2.0,"subject_pos":-1,"motif":"","motif_pos":-1,"best_pos":2,"similarity":0.607,"stretto":false,"stretto_voices":0,"combination":[]},{"voice":2,"pitch":58,"start":168.6,"duration":1.2,"velocity":127,"measure":71,"beat":2.0,"subject_pos":-1,"motif":"","motif_pos":-1,"best_pos":3,"similarity":0.45,"stretto":false,"stretto_voices":0,"combination":[]},{"voice":0,"pitch":74,"start":168.9,"duration":0.3,"velocity":127,"measure":71,"beat":2.5,"subject_pos":-1,"motif":"","motif_pos":-1,"best_pos":4,"similarity":0.529,"stretto":false,"stretto_voices":0,"combination":[]},{"voice":0,"pitch":72,"start":169.2,"duration":0.3,"velocity":127,"measure":71,"beat":3.0,"subject_pos":-1,"motif":"","motif_pos":-1,"best_pos":5,"similarity":0.493,"stretto":false,"stretto_voices":0,"combination":[]},{"voice":0,"pitch":74,"start":169.5,"duration":0.3,"velocity":127,"measure":71,"beat":3.5,"subject_pos":-1,"motif":"","motif_pos":-1,"best_pos":6,"similarity":0.371,"stretto":false,"stretto_voices":0,"combination":[]},{"voice":0,"pitch":70,"start":169.8,"duration":0.3,"velocity":127,"measure":71,"beat":4.0,"subject_pos":-1,"motif":"","motif_pos":-1,"best_pos":5,"similarity":0.407,"stretto":false,"stretto_voices":0,"combination":[]},{"voice":2,"pitch":57,"start":169.8,"duration":0.6,"velocity":127,"measure":71,"beat":4.0,"subject_pos":-1,"motif":"","motif_pos":-1,"best_pos":4,"similarity":0.614,"stretto":false,"stretto_voices":0,"combination":[]},{"voice":0,"pitch":72,"start":170.1,"duration":0.3,"velocity":127,"measure":71,"beat":4.5,"subject_pos":-1,"motif":"","motif_pos":-1,"best_pos":5,"similarity":0.457,"stretto":false,"stretto_voices":0,"combination":[]},{"voice":0,"pitch":74,"start":170.4,"duration":0.6,"velocity":127,"measure":72,"beat":1.0,"subject_pos":-1,"motif":"","motif_pos":-1,"best_pos":6,"similarity":0.393,"stretto":false,"stretto_voices":0,"combination":[]},{"voice":2,"pitch":58,"start":170.4,"duration":0.3,"velocity":127,"measure":72,"beat":1.0,"subject_pos":-1,"motif":"","motif_pos":-1,"best_pos":5,"similarity":0.5,"stretto":false,"stretto_voices":0,"combination":[]},{"voice":2,"pitch":55,"start":170.7,"duration":0.3,"velocity":127,"measure":72,"beat":1.5,"subject_pos":-1,"motif":"","motif_pos":-1,"best_pos":3,"similarity":0.543,"stretto":false,"stretto_voices":0,"combination":[]},{"voice":0,"pitch":79,"start":171.0,"duration":1.2,"velocity":127,"measure":72,"beat":2.0,"subject_pos":-1,"motif":"","motif_pos":-1,"best_pos":1,"similarity":0.45,"stretto":false,"stretto_voices":0,"combination":[]},{"voice":1,"pitch":70,"start":171.0,"duration":0.6,"velocity":127,"measure":72,"beat":2.0,"subject_pos":-1,"motif":"","motif_pos":-1,"best_pos":3,"similarity":0.314,"stretto":false,"stretto_voices":0,"combination":[]},{"voice":2,"pitch":57,"start":171.0,"duration":0.3,"velocity":127,"measure":72,"beat":2.0,"subject_pos":-1,"motif":"","motif_pos":-1,"best_pos":4,"similarity":0.614,"stretto":false,"stretto_voices":0,"combination":[]},{"voice":2,"pitch":58,"start":171.3,"duration":0.3,"velocity":127,"measure":72,"beat":2.5,"subject_pos":-1,"motif":"","motif_pos":-1,"best_pos":5,"similarity":0.671,"stretto":false,"stretto_voices":0,"combination":[]},{"voice":1,"pitch":69,"start":171.6,"duration":1.2,"velocity":127,"measure":72,"beat":3.0,"subject_pos":-1,"motif":"","motif_pos":-1,"best_pos":4,"similarity":0.325,"stretto":false,"stretto_voices":0,"combination":[]},{"voice":2,"pitch":60,"start":171.6,"duration":0.3,"velocity":127,"measure":72,"beat":3.0,"subject_pos":-1,"motif":"","motif_pos":-1,"best_pos":6,"similarity":0.464,"stretto":false,"stretto_voices":0,"combination":[]},{"voice":2,"pitch":58,"start":171.9,"duration":0.3,"velocity":127,"measure":72,"beat":3.5,"subject_pos":-1,"motif":"","motif_pos":-1,"best_pos":2,"similarity":0.379,"stretto":false,"stretto_voices":0,"combination":[]},{"voice":0,"pitch":78,"start":172.2,"duration":0.6,"velocity":127,"measure":72,"beat":4.0,"subject_pos":-1,"motif":"enigmatic_cell","motif_pos":0,"best_pos":0,"similarity":1.0,"stretto":false,"stretto_voices":0,"combination":[]},{"voice":2,"pitch":62,"start":172.2,"duration":0.3,"velocity":127,"measure":72,"beat":4.0,"subject_pos":-1,"motif":"","motif_pos":-1,"best_pos":1,"similarity":0.5,"stretto":false,"stretto_voices":0,"combination":[]},{"voice":2,"pitch":60,"start":172.5,"duration":0.3,"velocity":127,"measure":72,"beat":4.5,"subject_pos":-1,"motif":"","motif_pos":-1,"best_pos":2,"similarity":0.507,"stretto":false,"stretto_voices":0,"combination":[]},{"voice":0,"pitch":79,"start":172.8,"duration":0.3,"velocity":127,"measure":73,"beat":1.0,"subject_pos":-1,"motif":"enigmatic_cell","motif_pos":1,"best_pos":1,"similarity":1.0,"stretto":false,"stretto_voices":0,"combination":[]},{"voice":1,"pitch":62,"start":172.8,"duration":0.6,"velocity":127,"measure":73,"beat":1.0,"subject_pos":-1,"motif":"","motif_pos":-1,"best_pos":0,"similarity":0.364,"stretto":false,"stretto_voices":0,"combination":[]},{"voice":2,"pitch":58,"start":172.8,"duration":0.6,"velocity":127,"measure":73,"beat":1.0,"subject_pos":-1,"motif":"","motif_pos":-1,"best_pos":3,"similarity":0.407,"stretto":false,"stretto_voices":0,"combination":[]},{"voice":0,"pitch":74,"start":173.1,"duration":0.3,"velocity":127,"measure":73,"beat":1.5,"subject_pos":-1,"motif":"enigmatic_cell","motif_pos":2,"best_pos":2,"similarity":1.0,"stretto":false,"stretto_voices":0,"combination":[]},{"voice":0,"pitch":72,"start":173.4,"duration":0.3,"velocity":127,"measure":73,"beat":2.0,"subject_pos":-1,"motif":"","motif_pos":-1,"best_pos":2,"similarity":0.643,"stretto":false,"stretto_voices":0,"combination":[]},{"voice":1,"pitch":67,"start":173.4,"duration":1.2,"velocity":127,"measure":73,"beat":2.0,"subject_pos":-1,"motif":"","motif_pos":-1,"best_pos":1,"similarity":0.45,"stretto":false,"stretto_voices":0,"combination":[]},{"voice":2,"pitch":63,"start":173.4,"duration":0.6,"velocity":127,"measure":73,"beat":2.0,"subject_pos":-1,"motif":"","motif_pos":-1,"best_pos":1,"similarity":0.429,"stretto":false,"stretto_voices":0,"combination":[]},{"voice":0,"pitch":70,"start":173.7,"duration":0.3,"velocity":127,"measure":73,"beat":2.5,"subject_pos":-1,"motif":"","motif_pos":-1,"best_pos":3,"similarity":0.714,"stretto":false,"stretto_voices":0,"combination":[]},{"voice":0,"pitch":69,"start":174.0,"duration":0.3,"velocity":127,"measure":73,"beat":3.0,"subject_pos":-1,"motif":"","motif_pos":-1,"best_pos":4,"similarity":0.75,"stretto":false,"stretto_voices":0,"combination":[]},{"voice":2,"pitch":60,"start":174.0,"duration":0.6,"velocity":127,"measure":73,"beat":3.0,"subject_pos":-1,"motif":"","motif_pos":-1,"best_pos":5,"similarity":0.35,"stretto":false,"stretto_voices":0,"combination":[]},{"voice":0,"pitch":70,"start":174.3,"duration":0.3,"velocity":127,"measure":73,"beat":3.5,"subject_pos":-1,"motif":"","motif_pos":-1,"best_pos":5,"similarity":0.536,"stretto":false,"stretto_voices":0,"combination":[]},{"voice":0,"pitch":67,"start":174.6,"duration":0.3,"velocity":127,"measure":73,"beat":4.0,"subject_pos":-1,"motif":"","motif_pos":-1,"best_pos":5,"similarity":0.511,"stretto":false,"stretto_voices":0,"combination":[]},{"voice":1,"pitch":66,"start":174.6,"duration":0.6,"velocity":127,"measure":73,"beat":4.0,"subject_pos":-1,"motif":"enigmatic_cell","motif_pos":0,"best_pos":0,"similarity":1.0,"stretto":false,"stretto_voices":0,"combination":[]},{"voice":2,"pitch":62,"start":174.6,"duration":0.6,"velocity":127,"measure":73,"beat":4.0,"subject_pos":-1,"motif":"","motif_pos":-1,"best_pos":6,"similarity":0.3,"stretto":false,"stretto_voices":0,"combination":[]},{"voice":0,"pitch":69,"start":174.9,"duration":0.3,"velocity":127,"measure":73,"beat":4.5,"subject_pos":-1,"motif":"","motif_pos":-1,"best_pos":6,"similarity":0.604,"stretto":false,"stretto_voices":0,"combination":[]},{"voice":0,"pitch":70,"start":175.2,"duration":1.2,"velocity":127,"measure":74,"beat":1.0,"subject_pos":-1,"motif":"enigmatic_cell","motif_pos":0,"best_pos":0,"similarity":1.0,"stretto":false,"stretto_voices":0,"combination":[]},{"voice":1,"pitch":67,"start":175.2,"duration":0.3,"velocity":127,"measure":74,"beat":1.0,"subject_pos":-1,"motif":"enigmatic_cell","motif_pos":1,"best_pos":1,"similarity":1.0,"stretto":false,"stretto_voices":0,"combination":[]},{"voice":2,"pitch":55,"start":175.2,"duration":0.6,"velocity":127,"measure":74,"beat":1.0,"subject_pos":-1,"motif":"","motif_pos":-1,"best_pos":1,"similarity":0.375,"stretto":false,"stretto_voices":0,"combination":[]},{"voice":1,"pitch":62,"start":175.5,"duration":0.3,"velocity":127,"measure":74,"beat":1.5,"subject_pos":-1,"motif":"enigmatic_cell","motif_pos":2,"best_pos":2,"similarity":1.0,"stretto":false,"stretto_voices":0,"combination":[]},{"voice":1,"pitch":67,"start":175.8,"duration":0.3,"velocity":127,"measure":74,"beat":2.0,"subject_pos":-1,"motif":"","motif_pos":-1,"best_pos":1,"similarity":0.389,"stretto":false,"stretto_voices":0,"combination":[]},{"voice":2,"pitch":51,"start":175.8,"duration":0.6,"velocity":127,"measure":74,"beat":2.0,"subject_pos":-1,"motif":"","motif_pos":-1,"best_pos":2,"similarity":0.471,"stretto":false,"stretto_voices":0,"combination":[]},{"voice":1,"pitch":67,"start":176.1,"duration":0.3,"velocity":127,"measure":74,"beat":2.5,"subject_pos":-1,"motif":"","motif_pos":-1,"best_pos":4,"similarity":0.393,"stretto":false,"stretto_voices":0,"combination":[]},{"voice":0,"pitch":69,"start":176.4,"duration":1.2,"velocity":127,"measure":74,"beat":3.0,"subject_pos":-1,"motif":"enigmatic_cell","motif_pos":1,"best_pos":1,"similarity":1.0,"stretto":false,"stretto_voices":0,"combination":[]},{"voice":1,"pitch":67,"start":176.4,"duration":0.3,"velocity":127,"measure":74,"beat":3.0,"subject_pos":-1,"motif":"","motif_pos":-1,"best_pos":2,"similarity":0.429,"stretto":false,"stretto_voices":0,"combination":[]},{"voice":2,"pitch":49,"start":176.4,"duration":0.6,"velocity":127,"measure":74,"beat":3.0,"subject_pos":-1,"motif":"","motif_pos":-1,"best_pos":4,"similarity":0.579,"stretto":false,"stretto_voices":0,"combination":[]},{"voice":1,"pitch":64,"start":176.7,"duration":0.3,"velocity":127,"measure":74,"beat":3.5,"subject_pos":-1,"motif":"","motif_pos":-1,"best_pos":3,"similarity":0.482,"stretto":false,"stretto_voices":0,"combination":[]},{"voice":1,"pitch":65,"start":177.0,"duration":0.3,"velocity":127,"measure":74,"beat":4.0,"subject_pos":-1,"motif":"","motif_pos":-1,"best_pos":5,"similarity":0.471,"stretto":false,"stretto_voices":0,"combination":[]},{"voice":2,"pitch":50,"start":177.0,"duration":0.6,"velocity":127,"measure":74,"beat":4.0,"subject_pos":-1,"motif":"","motif_pos":-1,"best_pos":5,"similarity":0.536,"stretto":false,"stretto_voices":0,"combination":[]},{"voice":1,"pitch":65,"start":177.3,"duration":0.3,"velocity":127,"measure":74,"beat":4.5,"subject_pos":-1,"motif":"","motif_pos":-1,"best_pos":4,"similarity":0.407,"stretto":false,"stretto_voices":0,"combination":[]},{"voice":0,"pitch":74,"start":177.6,"duration":0.6,"velocity":127,"measure":75,"beat":1.0,"subject_pos":-1,"motif":"enigmatic_cell","motif_pos":2,"best_pos":2,"similarity":1.0,"stretto":false,"stretto_voices":0,"combination":[]},{"voice":1,"pitch":65,"start":177.6,"duration":0.3,"velocity":127,"measure":75,"beat":1.0,"subject_pos":-1,"motif":"","motif_pos":-1,"best_pos":2,"similarity":0.429,"stretto":false,"stretto_voices":0,"combination":[]},{"voice":2,"pitch":47,"start":177.6,"duration":0.6,"velocity":127,"measure":75,"beat":1.0,"subject_pos":-1,"motif":"","motif_pos":-1,"best_pos":4,"similarity":0.514,"stretto":false,"stretto_voices":0,"combination":[]},{"voice":1,"pitch":62,"start":177.9,"duration":0.3,"velocity":127,"measure":75,"beat":1.5,"subject_pos":-1,"motif":"","motif_pos":-1,"best_pos":3,"similarity":0.482,"stretto":false,"stretto_voices":0,"combination":[]},{"voice":0,"pitch":67,"start":178.2,"duration":0.6,"velocity":127,"measure":75,"beat":2.0,"subject_pos":-1,"motif":"","motif_pos":-1,"best_pos":1,"similarity":0.429,"stretto":false,"stretto_voices":0,"combination":[]},{"voice":1,"pitch":63,"start":178.2,"duration":0.3,"velocity":127,"measure":75,"beat":2.0,"subject_pos":-1,"motif":"","motif_pos":-1,"best_pos":5,"similarity":0.471,"stretto":false,"stretto_voices":0,"combination":[]},{"voice":2,"pitch":48,"start":178.2,"duration":0.6,"velocity":127,"measure":75,"beat":2.0,"subject_pos":-1,"motif":"","motif_pos":-1,"best_pos":5,"similarity":0.471,"stretto":false,"stretto_voices":0,"combination":[]},{"voice":1,"pitch":63,"start":178.5,"duration":0.3,"velocity":127,"measure":75,"beat":2.5,"subject_pos":-1,"motif":"","motif_pos":-1,"best_pos":4,"similarity":0.421,"stretto":false,"stretto_voices":0,"combination":[]},{"voice":0,"pitch":65,"start":178.8,"duration":1.2,"velocity":127,"measure":75,"beat":3.0,"subject_pos":-1,"motif":"","motif_pos":-1,"best_pos":2,"similarity":0.643,"stretto":false,"stretto_voices":0,"combination":[]},{"voice":1,"pitch":63,"start":178.8,"duration":0.3,"velocity":127,"measure":75,"beat":3.0,"subject_pos":-1,"motif":"","motif_pos":-1,"best_pos":5,"similarity":0.393,"stretto":false,"stretto_voices":0,"combination":[]},{"voice":2,"pitch":45,"start":178.8,"duration":0.6,"velocity":127,"measure":75,"beat":3.0,"subject_pos":-1,"motif":"","motif_pos":-1,"best_pos":4,"similarity":0.479,"stretto":false,"stretto_voices":0,"combination":[]},{"voice":1,"pitch":61,"start":179.1,"duration":0.3,"velocity":127,"measure":75,"beat":3.5,"subject_pos":-1,"motif":"","motif_pos":-1,"best_pos":4,"similarity":0.532,"stretto":false,"stretto_voices":0,"combination":[]},{"voice":1,"pitch":62,"start":179.4,"duration":0.3,"velocity":127,"measure":75,"beat":4.0,"subject_pos":-1,"motif":"","motif_pos":-1,"best_pos":5,"similarity":0.507,"stretto":false,"stretto_voices":0,"combination":[]},{"voice":2,"pitch":46,"start":179.4,"duration":0.6,"velocity":127,"measure":75,"beat":4.0,"subject_pos":-1,"motif":"","motif_pos":-1,"best_pos":5,"similarity":0.471,"stretto":false,"stretto_voices":0,"combination":[]},{"voice":1,"pitch":62,"start":179.7,"duration":0.3,"velocity":127,"measure":75,"beat":4.5,"subject_pos":-1,"motif":"","motif_pos":-1,"best_pos":4,"similarity":0.443,"stretto":false,"stretto_voices":0,"combination":[]},{"voice":0,"pitch":63,"start":180.0,"duration":1.2,"velocity":127,"measure":76,"beat":1.0,"subject_pos":-1,"motif":"","motif_pos":-1,"best_pos":3,"similarity":0.721,"stretto":false,"stretto_voices":0,"combination":[]},{"voice":1,"pitch":62,"start":180.0,"duration":0.3,"velocity":127,"measure":76,"beat":1.0,"subject_pos":-1,"motif":"","motif_pos":-1,"best_pos":2,"similarity":0.429,"stretto":false,"stretto_voices":0,"combination":[]},{"voice":2,"pitch":43,"start":180.0,"duration":0.6,"velocity":127,"measure":76,"beat":1.0,"subject_pos":-1,"motif":"","motif_pos":-1,"best_pos":4,"similarity":0.493,"stretto":false,"stretto_voices":0,"combination":[]},{"voice":1,"pitch":59,"start":180.3,"duration":0.3,"velocity":127,"measure":76,"beat":1.5,"subject_pos":-1,"motif":"","motif_pos":-1,"best_pos":3,"similarity":0.482,"stretto":false,"stretto_voices":0,"combination":[]},{"voice":1,"pitch":60,"start":180.6,"duration":0.3,"velocity":127,"measure":76,"beat":2.0,"subject_pos":-1,"motif":"","motif_pos":-1,"best_pos":5,"similarity":0.471,"stretto":false,"stretto_voices":0,"combination":[]},{"voice":2,"pitch":44,"start":180.6,"duration":0.6,"velocity":127,"measure":76,"beat":2.0,"subject_pos":-1,"motif":"","motif_pos":-1,"best_pos":5,"similarity":0.5,"stretto":false,"stretto_voices":0,"combination":[]},{"voice":1,"pitch":60,"start":180.9,"duration":0.3,"velocity":127,"measure":76,"beat":2.5,"subject_pos":-1,"motif":"","motif_pos":-1,"best_pos":6,"similarity":0.375,"stretto":false,"stretto_voices":0,"combination":[]},{"voice":0,"pitch":62,"start":181.2,"duration":0.6,"velocity":127,"measure":76,"beat":3.0,"subject_pos":-1,"motif":"","motif_pos":-1,"best_pos":4,"similarity":0.8,"stretto":false,"stretto_voices":0,"combination":[]},{"voice":1,"pitch":60,"start":181.2,"duration":0.3,"velocity":127,"measure":76,"beat":3.0,"subject_pos":-1,"motif":"","motif_pos":-1,"best_pos":2,"similarity":0.364,"stretto":false,"stretto_voices":0,"combination":[]},{"voice":2,"pitch":42,"start":181.2,"duration":0.6,"velocity":127,"measure":76,"beat":3.0,"subject_pos":-1,"motif":"","motif_pos":-1,"best_pos":4,"similarity":0.55,"stretto":false,"stretto_voices":0,"combination":[]},{"voice":1,"pitch":58,"start":181.5,"duration":0.3,"velocity":127,"measure":76,"beat":3.5,"subject_pos":-1,"motif":"","motif_pos":-1,"best_pos":3,"similarity":0.55,"stretto":false,"stretto_voices":0,"combination":[]},{"voice":0,"pitch":63,"start":181.8,"duration":0.6,"velocity":127,"measure":76,"beat":4.0,"subject_pos":-1,"motif":"","motif_pos":-1,"best_pos":5,"similarity":0.636,"stretto":false,"stretto_voices":0,"combination":[]},{"voice":1,"pitch":57,"start":181.8,"duration":0.3,"velocity":127,"measure":76,"beat":4.0,"subject_pos":-1,"motif":"","motif_pos":-1,"best_pos":4,"similarity":0.582,"stretto":false,"stretto_voices":0,"combination":[]},{"voice":2,"pitch":43,"start":181.8,"duration":0.9,"velocity":127,"measure":76,"beat":4.0,"subject_pos":-1,"motif":"","motif_pos":-1,"best_pos":5,"similarity":0.507,"stretto":false,"stretto_voices":0,"combination":[]},{"voice":1,"pitch":55,"start":182.1,"duration":0.3,"velocity":127,"measure":76,"beat":4.5,"subject_pos":-1,"motif":"","motif_pos":-1,"best_pos":4,"similarity":0.571,"stretto":false,"stretto_voices":0,"combination":[]},{"voice":0,"pitch":61,"start":182.4,"duration":0.6,"velocity":127,"measure":77,"beat":1.0,"subject_pos":-1,"motif":"","motif_pos":-1,"best_pos":6,"similarity":0.529,"stretto":false,"stretto_voices":0,"combination":[]},{"voice":1,"pitch":57,"start":182.4,"duration":1.2,"velocity":127,"measure":77,"beat":1.0,"subject_pos":-1,"motif":"","motif_pos":-1,"best_pos":5,"similarity":0.589,"stretto":false,"stretto_voices":0,"combination":[]},{"voice":2,"pitch":40,"start":182.7,"duration":0.3,"velocity":127,"measure":77,"beat":1.5,"subject_pos":-1,"motif":"","motif_pos":-1,"best_pos":4,"similarity":0.514,"stretto":false,"stretto_voices":0,"combination":[]},{"voice":0,"pitch":62,"start":183.0,"duration":0.6,"velocity":127,"measure":77,"beat":2.0,"subject_pos":-1,"motif":"","motif_pos":-1,"best_pos":5,"similarity":0.407,"stretto":false,"stretto_voices":0,"combination":[]},{"voice":2,"pitch":41,"start":183.0,"duration":0.3,"velocity":127,"measure":77,"beat":2.0,"subject_pos":-1,"motif":"","motif_pos":-1,"best_pos":5,"similarity":0.471,"stretto":false,"stretto_voices":0,"combination":[]},{"voice":2,"pitch":41,"start":183.3,"duration":0.3,"velocity":127,"measure":77,"beat":2.5,"subject_pos":-1,"motif":"","motif_pos":-1,"best_pos":6,"similarity":0.375,"stretto":false,"stretto_voices":0,"combination":[]},{"voice":0,"pitch":67,"start":183.6,"duration":1.5,"velocity":127,"measure":77,"beat":3.0,"subject_pos":-1,"motif":"","motif_pos":-1,"best_pos":1,"similarity":0.479,"stretto":false,"stretto_voices":0,"combination":[]},{"voice":1,"pitch":59,"start":183.6,"duration":0.6,"velocity":127,"measure":77,"beat":3.0,"subject_pos":-1,"motif":"","motif_pos":-1,"best_pos":5,"similarity":0.621,"stretto":false,"stretto_voices":0,"combination":[]},{"voice":2,"pitch":41,"start":183.6,"duration":0.3,"velocity":127,"measure":77,"beat":3.0,"subject_pos":-1,"motif":"","motif_pos":-1,"best_pos":2,"similarity":0.407,"stretto":false,"stretto_voices":0,"combination":[]},{"voice":2,"pitch":38,"start":183.9,"duration":0.3,"velocity":127,"measure":77,"beat":3.5,"subject_pos":-1,"motif":"","motif_pos":-1,"best_pos":5,"similarity":0.464,"stretto":false,"stretto_voices":0,"combination":[]},{"voice":1,"pitch":61,"start":184.2,"duration":0.6,"velocity":127,"measure":77,"beat":4.0,"subject_pos":-1,"motif":"enigmatic_cell","motif_pos":0,"best_pos":0,"similarity":1.0,"stretto":false,"stretto_voices":0,"combination":[]},{"voice":2,"pitch":40,"start":184.2,"duration":0.3,"velocity":127,"measure":77,"beat":4.0,"subject_pos":-1,"motif":"","motif_pos":-1,"best_pos":6,"similarity":0.479,"stretto":false,"stretto_voices":0,"combination":[]},{"voice":2,"pitch":40,"start":184.5,"duration":0.3,"velocity":127,"measure":77,"beat":4.5,"subject_pos":-1,"motif":"","motif_pos":-1,"best_pos":1,"similarity":0.304,"stretto":false,"stretto_voices":0,"combination":[]},{"voice":1,"pitch":62,"start":184.8,"duration":0.3,"velocity":127,"measure":78,"beat":1.0,"subject_pos":-1,"motif":"enigmatic_cell","motif_pos":1,"best_pos":1,"similarity":1.0,"stretto":false,"stretto_voices":0,"combination":[]},{"voice":2,"pitch":38,"start":184.8,"duration":0.6,"velocity":127,"measure":78,"beat":1.0,"subject_pos":-1,"motif":"","motif_pos":-1,"best_pos":2,"similarity":0.393,"stretto":false,"stretto_voices":0,"combination":[]},{"voice":0,"pitch":64,"start":185.1,"duration":0.3,"velocity":127,"measure":78,"beat":1.5,"subject_pos":-1,"motif":"","motif_pos":-1,"best_pos":3,"similarity":0.443,"stretto":false,"stretto_voices":0,"combination":[]},{"voice":1,"pitch":57,"start":185.1,"duration":0.3,"velocity":127,"measure":78,"beat":1.5,"subject_pos":-1,"motif":"enigmatic_cell","motif_pos":2,"best_pos":2,"similarity":1.0,"stretto":false,"stretto_voices":0,"combination":[]},{"voice":0,"pitch":65,"start":185.4,"duration":0.3,"velocity":127,"measure":78,"beat":2.0,"subject_pos":-1,"motif":"","motif_pos":-1,"best_pos":5,"similarity":0.429,"stretto":false,"stretto_voices":0,"combination":[]},{"voice":1,"pitch":62,"start":185.4,"duration":0.9,"velocity":127,"measure":78,"beat":2.0,"subject_pos":-1,"motif":"","motif_pos":-1,"best_pos":1,"similarity":0.479,"stretto":false,"stretto_voices":0,"combination":[]},{"voice":0,"pitch":65,"start":185.7,"duration":0.3,"velocity":127,"measure":78,"beat":2.5,"subject_pos":-1,"motif":"enigmatic_cell","motif_pos":0,"best_pos":0,"similarity":1.0,"stretto":false,"stretto_voices":0,"combination":[]},{"voice":0,"pitch":64,"start":186.0,"duration":0.6,"velocity":127,"measure":78,"beat":3.0,"subject_pos":-1,"motif":"enigmatic_cell","motif_pos":1,"best_pos":1,"similarity":1.0,"stretto":false,"stretto_voices":0,"combination":[]},{"voice":1,"pitch":59,"start":186.3,"duration":0.3,"velocity":127,"measure":78,"beat":3.5,"subject_pos":-1,"motif":"","motif_pos":-1,"best_pos":4,"similarity":0.464,"stretto":false,"stretto_voices":0,"combination":[]},{"voice":0,"pitch":69,"start":186.6,"duration":0.6,"velocity":127,"measure":78,"beat":4.0,"subject_pos":-1,"motif":"enigmatic_cell","motif_pos":2,"best_pos":2,"similarity":1.0,"stretto":false,"stretto_voices":0,"combination":[]},{"voice":1,"pitch":60,"start":186.6,"duration":0.3,"velocity":127,"measure":78,"beat":4.0,"subject_pos":-1,"motif":"","motif_pos":-1,"best_pos":5,"similarity":0.464,"stretto":false,"stretto_voices":0,"combination":[]},{"voice":1,"pitch":60,"start":186.9,"duration":0.3,"velocity":127,"measure":78,"beat":4.5,"subject_pos":-1,"motif":"","motif_pos":-1,"best_pos":4,"similarity":0.407,"stretto":false,"stretto_voices":0,"combination":[]},{"voice":0,"pitch":74,"start":187.2,"duration":0.9,"velocity":127,"measure":79,"beat":1.0,"subject_pos":-1,"motif":"","motif_pos":-1,"best_pos":1,"similarity":0.475,"stretto":false,"stretto_voices":0,"combination":[]},{"voice":1,"pitch":60,"start":187.2,"duration":0.3,"velocity":127,"measure":79,"beat":1.0,"subject_pos":-1,"motif":"","motif_pos":-1,"best_pos":2,"similarity":0.429,"stretto":false,"stretto_voices":0,"combination":[]},{"voice":1,"pitch":57,"start":187.5,"duration":0.3,"velocity":127,"measure":79,"beat":1.5,"subject_pos":-1,"motif":"","motif_pos":-1,"best_pos":3,"similarity":0.471,"stretto":false,"stretto_voices":0,"combination":[]},{"voice":1,"pitch":58,"start":187.8,"duration":0.3,"velocity":127,"measure":79,"beat":2.0,"subject_pos":-1,"motif":"","motif_pos":-1,"best_pos":5,"similarity":0.436,"stretto":false,"stretto_voices":0,"combination":[]},{"voice":2,"pitch":55,"start":187.8,"duration":0.9,"velocity":127,"measure":79,"beat":2.0,"subject_pos":-1,"motif":"","motif_pos":-1,"best_pos":3,"similarity":0.375,"stretto":false,"stretto_voices":0,"combination":[]},{"voice":0,"pitch":76,"start":188.1,"duration":0.3,"velocity":127,"measure":79,"beat":2.5,"subject_pos":-1,"motif":"","motif_pos":-1,"best_pos":2,"similarity":0.5,"stretto":false,"stretto_voices":0,"combination":[]},{"voice":1,"pitch":58,"start":188.1,"duration":0.3,"velocity":127,"measure":79,"beat":2.5,"subject_pos":-1,"motif":"","motif_pos":-1,"best_pos":3,"similarity":0.336,"stretto":false,"stretto_voices":0,"combination":[]},{"voice":0,"pitch":73,"start":188.4,"duration":0.6,"velocity":127,"measure":79,"beat":3.0,"subject_pos":-1,"motif":"","motif_pos":-1,"best_pos":3,"similarity":0.493,"stretto":false,"stretto_voices":0,"combination":[]},{"voice":1,"pitch":57,"start":188.4,"duration":0.6,"velocity":127,"measure":79,"beat":3.0,"subject_pos":-1,"motif":"","motif_pos":-1,"best_pos":4,"similarity":0.329,"stretto":false,"stretto_voices":0,"combination":[]},{"voice":2,"pitch":52,"start":188.7,"duration":0.3,"velocity":127,"measure":79,"beat":3.5,"subject_pos":-1,"motif":"","motif_pos":-1,"best_pos":4,"similarity":0.5,"stretto":false,"stretto_voices":0,"combination":[]},{"voice":0,"pitch":74,"start":189.0,"duration":0.6,"velocity":127,"measure":79,"beat":4.0,"subject_pos":-1,"motif":"","motif_pos":-1,"best_pos":5,"similarity":0.464,"stretto":false,"stretto_voices":0,"combination":[]},{"voice":1,"pitch":69,"start":189.0,"duration":0.6,"velocity":127,"measure":79,"beat":4.0,"subject_pos":-1,"motif":"","motif_pos":-1,"best_pos":1,"similarity":0.286,"stretto":false,"stretto_voices":0,"combination":[]},{"voice":2,"pitch":53,"start":189.0,"duration":0.3,"velocity":127,"measure":79,"beat":4.0,"subject_pos":-1,"motif":"","motif_pos":-1,"best_pos":5,"similarity":0.464,"stretto":false,"stretto_voices":0,"combination":[]},{"voice":2,"pitch":53,"start":189.3,"duration":0.3,"velocity":127,"measure":79,"beat":4.5,"subject_pos":-1,"motif":"","motif_pos":-1,"best_pos":4,"similarity":0.421,"stretto":false,"stretto_voices":0,"combination":[]},{"voice":0,"pitch":71,"start":189.6,"duration":0.6,"velocity":127,"measure":80,"beat":1.0,"subject_pos":-1,"motif":"","motif_pos":-1,"best_pos":6,"similarity":0.446,"stretto":false,"stretto_voices":0,"combination":[]},{"voice":1,"pitch":67,"start":189.6,"duration":0.6,"velocity":127,"measure":80,"beat":1.0,"subject_pos":-1,"motif":"","motif_pos":-1,"best_pos":0,"similarity":0.339,"stretto":false,"stretto_voices":0,"combination":[]},{"voice":2,"pitch":53,"start":189.6,"duration":0.3,"velocity":127,"measure":80,"beat":1.0,"subject_pos":-1,"motif":"","motif_pos":-1,"best_pos":5,"similarity":0.393,"stretto":false,"stretto_voices":0,"combination":[]},{"voice":2,"pitch":51,"start":189.9,"duration":0.3,"velocity":127,"measure":80,"beat":1.5,"subject_pos":-1,"motif":"","motif_pos":-1,"best_pos":4,"similarity":0.532,"stretto":false,"stretto_voices":0,"combination":[]},{"voice":0,"pitch":72,"start":190.2,"duration":0.6,"velocity":127,"measure":80,"beat":2.0,"subject_pos":-1,"motif":"","motif_pos":-1,"best_pos":1,"similarity":0.404,"stretto":false,"stretto_voices":0,"combination":[]},{"voice":1,"pitch":72,"start":190.2,"duration":0.6,"velocity":127,"measure":80,"beat":2.0,"subject_pos":-1,"motif":"","motif_pos":-1,"best_pos":1,"similarity":0.464,"stretto":false,"stretto_voices":0,"combination":[]},{"voice":2,"pitch":52,"start":190.2,"duration":0.3,"velocity":127,"measure":80,"beat":2.0,"subject_pos":-1,"motif":"","motif_pos":-1,"best_pos":5,"similarity":0.507,"stretto":false,"stretto_voices":0,"combination":[]},{"voice":2,"pitch":52,"start":190.5,"duration":0.3,"velocity":127,"measure":80,"beat":2.5,"subject_pos":-1,"motif":"","motif_pos":-1,"best_pos":4,"similarity":0.443,"stretto":false,"stretto_voices":0,"combination":[]},{"voice":1,"pitch":66,"start":190.8,"duration":0.6,"velocity":127,"measure":80,"beat":3.0,"subject_pos":-1,"motif":"","motif_pos":-1,"best_pos":2,"similarity":0.436,"stretto":false,"stretto_voices":0,"combination":[]},{"voice":2,"pitch":52,"start":190.8,"duration":0.3,"velocity":127,"measure":80,"beat":3.0,"subject_pos":-1,"motif":"","motif_pos":-1,"best_pos":2,"similarity":0.429,"stretto":false,"stretto_voices":0,"combination":[]},{"voice":2,"pitch":49,"start":191.1,"duration":0.3,"velocity":127,"measure":80,"beat":3.5,"subject_pos":-1,"motif":"","motif_pos":-1,"best_pos":3,"similarity":0.482,"stretto":false,"stretto_voices":0,"combination":[]},{"voice":0,"pitch":70,"start":191.4,"duration":0.6,"velocity":127,"measure":80,"beat":4.0,"subject_pos":-1,"motif":"","motif_pos":-1,"best_pos":2,"similarity":0.486,"stretto":false,"stretto_voices":0,"combination":[]},{"voice":1,"pitch":65,"start":191.4,"duration":0.6,"velocity":127,"measure":80,"beat":4.0,"subject_pos":-1,"motif":"enigmatic_cell","motif_pos":0,"best_pos":0,"similarity":1.0,"stretto":false,"stretto_voices":0,"combination":[]},{"voice":2,"pitch":50,"start":191.4,"duration":0.3,"velocity":127,"measure":80,"beat":4.0,"subject_pos":-1,"motif":"","motif_pos":-1,"best_pos":5,"similarity":0.471,"stretto":false,"stretto_voices":0,"combination":[]},{"voice":2,"pitch":50,"start":191.7,"duration":0.3,"velocity":127,"measure":80,"beat":4.5,"subject_pos":-1,"motif":"","motif_pos":-1,"best_pos":4,"similarity":0.407,"stretto":false,"stretto_voices":0,"combination":[]},{"voice":0,"pitch":68,"start":192.0,"duration":0.6,"velocity":127,"measure":81,"beat":1.0,"subject_pos":-1,"motif":"","motif_pos":-1,"best_pos":4,"similarity":0.529,"stretto":false,"stretto_voices":0,"combination":[]},{"voice":1,"pitch":64,"start":192.0,"duration":0.6,"velocity":127,"measure":81,"beat":1.0,"subject_pos":-1,"motif":"enigmatic_cell","motif_pos":1,"best_pos":1,"similarity":1.0,"stretto":false,"stretto_voices":0,"combination":[]},{"voice":2,"pitch":50,"start":192.0,"duration":0.3,"velocity":127,"measure":81,"beat":1.0,"subject_pos":-1,"motif":"","motif_pos":-1,"best_pos":2,"similarity":0.429,"stretto":false,"stretto_voices":0,"combination":[]},{"voice":2,"pitch":47,"start":192.3,"duration":0.3,"velocity":127,"measure":81,"beat":1.5,"subject_pos":-1,"motif":"","motif_pos":-1,"best_pos":3,"similarity":0.482,"stretto":false,"stretto_voices":0,"combination":[]},{"voice":0,"pitch":69,"start":192.6,"duration":0.6,"velocity":127,"measure":81,"beat":2.0,"subject_pos":-1,"motif":"","motif_pos":-1,"best_pos":5,"similarity":0.436,"stretto":false,"stretto_voices":0,"combination":[]},{"voice":1,"pitch":69,"start":192.6,"duration":0.6,"velocity":127,"measure":81,"beat":2.0,"subject_pos":-1,"motif":"enigmatic_cell","motif_pos":2,"best_pos":2,"similarity":1.0,"stretto":false,"stretto_voices":0,"combination":[]},{"voice":2,"pitch":48,"start":192.6,"duration":0.3,"velocity":127,"measure":81,"beat":2.0,"subject_pos":-1,"motif":"","motif_pos":-1,"best_pos":5,"similarity":0.471,"stretto":false,"stretto_voices":0,"combination":[]},{"voice":2,"pitch":48,"start":192.9,"duration":0.3,"velocity":127,"measure":81,"beat":2.5,"subject_pos":-1,"motif":"","motif_pos":-1,"best_pos":6,"similarity":0.375,"stretto":false,"stretto_voices":0,"combination":[]},{"voice":1,"pitch":62,"start":193.2,"duration":0.6,"velocity":127,"measure":81,"beat":3.0,"subject_pos":-1,"motif":"","motif_pos":-1,"best_pos":2,"similarity":0.279,"stretto":false,"stretto_voices":0,"combination":[]},{"voice":2,"pitch":48,"start":193.2,"duration":0.3,"velocity":127,"measure":81,"beat":3.0,"subject_pos":-1,"motif":"","motif_pos":-1,"best_pos":3,"similarity":0.379,"stretto":false,"stretto_voices":0,"combination":[]},{"voice":2,"pitch":47,"start":193.5,"duration":0.3,"velocity":127,"measure":81,"beat":3.5,"subject_pos":-1,"motif":"","motif_pos":-1,"best_pos":2,"similarity":0.5,"stretto":false,"stretto_voices":0,"combination":[]},{"voice":0,"pitch":74,"start":193.8,"duration":0.6,"velocity":127,"measure":81,"beat":4.0,"subject_pos":-1,"motif":"","motif_pos":-1,"best_pos":1,"similarity":0.571,"stretto":false,"stretto_voices":0,"combination":[]},{"voice":1,"pitch":71,"start":193.8,"duration":0.9,"velocity":127,"measure":81,"beat":4.0,"subject_pos":-1,"motif":"","motif_pos":-1,"best_pos":2,"similarity":0.357,"stretto":false,"stretto_voices":0,"combination":[]},{"voice":2,"pitch":45,"start":193.8,"duration":0.3,"velocity":127,"measure":81,"beat":4.0,"subject_pos":-1,"motif":"","motif_pos":-1,"best_pos":3,"similarity":0.65,"stretto":false,"stretto_voices":0,"combination":[]},{"voice":2,"pitch":44,"start":194.1,"duration":0.3,"velocity":127,"measure":81,"beat":4.5,"subject_pos":-1,"motif":"","motif_pos":-1,"best_pos":4,"similarity":0.711,"stretto":false,"stretto_voices":0,"combination":[]},{"voice":0,"pitch":72,"start":194.4,"duration":0.6,"velocity":127,"measure":82,"beat":1.0,"subject_pos":-1,"motif":"","motif_pos":-1,"best_pos":2,"similarity":0.446,"stretto":false,"stretto_voices":0,"combination":[]},{"voice":2,"pitch":45,"start":194.4,"duration":1.2,"velocity":127,"measure":82,"beat":1.0,"subject_pos":-1,"motif":"","motif_pos":-1,"best_pos":5,"similarity":0.529,"stretto":false,"stretto_voices":0,"combination":[]},{"voice":1,"pitch":68,"start":194.7,"duration":0.3,"velocity":127,"measure":82,"beat":1.5,"subject_pos":-1,"motif":"","motif_pos":-1,"best_pos":3,"similarity":0.446,"stretto":false,"stretto_voices":0,"combination":[]},{"voice":0,"pitch":77,"start":195.0,"duration":0.6,"velocity":127,"measure":82,"beat":2.0,"subject_pos":-1,"motif":"","motif_pos":-1,"best_pos":1,"similarity":0.464,"stretto":false,"stretto_voices":0,"combination":[]},{"voice":1,"pitch":69,"start":195.0,"duration":0.3,"velocity":127,"measure":82,"beat":2.0,"subject_pos":-1,"motif":"","motif_pos":-1,"best_pos":5,"similarity":0.464,"stretto":false,"stretto_voices":0,"combination":[]},{"voice":1,"pitch":69,"start":195.3,"duration":0.3,"velocity":127,"measure":82,"beat":2.5,"subject_pos":-1,"motif":"","motif_pos":-1,"best_pos":4,"similarity":0.407,"stretto":false,"stretto_voices":0,"combination":[]},{"voice":0,"pitch":71,"start":195.6,"duration":0.6,"velocity":127,"measure":82,"beat":3.0,"subject_pos":-1,"motif":"","motif_pos":-1,"best_pos":2,"similarity":0.436,"stretto":false,"stretto_voices":0,"combination":[]},{"voice":1,"pitch":69,"start":195.6,"duration":0.3,"velocity":127,"measure":82,"beat":3.0,"subject_pos":-1,"motif":"","motif_pos":-1,"best_pos":2,"similarity":0.429,"stretto":false,"stretto_voices":0,"combination":[]},{"voice":1,"pitch":66,"start":195.9,"duration":0.3,"velocity":127,"measure":82,"beat":3.5,"subject_pos":-1,"motif":"","motif_pos":-1,"best_pos":3,"similarity":0.482,"stretto":false,"stretto_voices":0,"combination":[]},{"voice":0,"pitch":70,"start":196.2,"duration":0.6,"velocity":127,"measure":82,"beat":4.0,"subject_pos":-1,"motif":"enigmatic_cell","motif_pos":0,"best_pos":0,"similarity":1.0,"stretto":false,"stretto_voices":0,"combination":[]},{"voice":1,"pitch":67,"start":196.2,"duration":0.3,"velocity":127,"measure":82,"beat":4.0,"subject_pos":-1,"motif":"","motif_pos":-1,"best_pos":5,"similarity":0.471,"stretto":false,"stretto_voices":0,"combination":[]},{"voice":2,"pitch":50,"start":196.2,"duration":0.6,"velocity":127,"measure":82,"beat":4.0,"subject_pos":-1,"motif":"","motif_pos":-1,"best_pos":1,"similarity":0.536,"stretto":false,"stretto_voices":0,"combination":[]},{"voice":1,"pitch":67,"start":196.5,"duration":0.3,"velocity":127,"measure":82,"beat":4.5,"subject_pos":-1,"motif":"","motif_pos":-1,"best_pos":4,"similarity":0.407,"stretto":false,"stretto_voices":0,"combination":[]},{"voice":0,"pitch":69,"start":196.8,"duration":0.6,"velocity":127,"measure":83,"beat":1.0,"subject_pos":-1,"motif":"enigmatic_cell","motif_pos":1,"best_pos":1,"similarity":1.0,"stretto":false,"stretto_voices":0,"combination":[]},{"voice":1,"pitch":67,"start":196.8,"duration":0.3,"velocity":127,"measure":83,"beat":1.0,"subject_pos":-1,"motif":"","motif_pos":-1,"best_pos":2,"similarity":0.429,"stretto":false,"stretto_voices":0,"combination":[]},{"voice":2,"pitch":49,"start":196.8,"duration":0.6,"velocity":127,"measure":83,"beat":1.0,"subject_pos":-1,"motif":"","motif_pos":-1,"best_pos":2,"similarity":0.571,"stretto":false,"stretto_voices":0,"combination":[]},{"voice":1,"pitch":64,"start":197.1,"duration":0.3,"velocity":127,"measure":83,"beat":1.5,"subject_pos":-1,"motif":"","motif_pos":-1,"best_pos":3,"similarity":0.482,"stretto":false,"stretto_voices":0,"combination":[]},{"voice":0,"pitch":74,"start":197.4,"duration":0.6,"velocity":127,"measure":83,"beat":2.0,"subject_pos":-1,"motif":"enigmatic_cell","motif_pos":2,"best_pos":2,"similarity":1.0,"stretto":false,"stretto_voices":0,"combination":[]},{"voice":1,"pitch":65,"start":197.4,"duration":0.3,"velocity":127,"measure":83,"beat":2.0,"subject_pos":-1,"motif":"","motif_pos":-1,"best_pos":5,"similarity":0.471,"stretto":false,"stretto_voices":0,"combination":[]},{"voice":2,"pitch":48,"start":197.4,"duration":0.6,"velocity":127,"measure":83,"beat":2.0,"subject_pos":-1,"motif":"","motif_pos":-1,"best_pos":3,"similarity":0.65,"stretto":false,"stretto_voices":0,"combination":[]},{"voice":1,"pitch":65,"start":197.7,"duration":0.3,"velocity":127,"measure":83,"beat":2.5,"subject_pos":-1,"motif":"","motif_pos":-1,"best_pos":6,"similarity":0.375,"stretto":false,"stretto_voices":0,"combination":[]},{"voice":0,"pitch":67,"start":198.0,"duration":1.2,"velocity":127,"measure":83,"beat":3.0,"subject_pos":-1,"motif":"","motif_pos":-1,"best_pos":3,"similarity":0.529,"stretto":false,"stretto_voices":0,"combination":[]},{"voice":1,"pitch":65,"start":198.0,"duration":0.3,"velocity":127,"measure":83,"beat":3.0,"subject_pos":-1,"motif":"","motif_pos":-1,"best_pos":2,"similarity":0.364,"stretto":false,"stretto_voices":0,"combination":[]},{"voice":2,"pitch":47,"start":198.0,"duration":0.6,"velocity":127,"measure":83,"beat":3.0,"subject_pos":-1,"motif":"","motif_pos":-1,"best_pos":4,"similarity":0.675,"stretto":false,"stretto_voices":0,"combination":[]},{"voice":1,"pitch":63,"start":198.3,"duration":0.3,"velocity":127,"measure":83,"beat":3.5,"subject_pos":-1,"motif":"","motif_pos":-1,"best_pos":3,"similarity":0.55,"stretto":false,"stretto_voices":0,"combination":[]},{"voice":1,"pitch":62,"start":198.6,"duration":0.3,"velocity":127,"measure":83,"beat":4.0,"subject_pos":-1,"motif":"","motif_pos":-1,"best_pos":4,"similarity":0.554,"stretto":false,"stretto_voices":0,"combination":[]},{"voice":2,"pitch":48,"start":198.6,"duration":0.9,"velocity":127,"measure":83,"beat":4.0,"subject_pos":-1,"motif":"","motif_pos":-1,"best_pos":5,"similarity":0.511,"stretto":false,"stretto_voices":0,"combination":[]},{"voice":1,"pitch":60,"start":198.9,"duration":0.3,"velocity":127,"measure":83,"beat":4.5,"subject_pos":-1,"motif":"","motif_pos":-1,"best_pos":5,"similarity":0.507,"stretto":false,"stretto_voices":0,"combination":[]},{"voice":0,"pitch":66,"start":199.2,"duration":0.6,"velocity":127,"measure":84,"beat":1.0,"subject_pos":-1,"motif":"","motif_pos":-1,"best_pos":4,"similarity":0.736,"stretto":false,"stretto_voices":0,"combination":[]},{"voice":1,"pitch":62,"start":199.2,"duration":1.2,"velocity":127,"measure":84,"beat":1.0,"subject_pos":-1,"motif":"","motif_pos":-1,"best_pos":6,"similarity":0.4,"stretto":false,"stretto_voices":0,"combination":[]},{"voice":2,"pitch":46,"start":199.5,"duration":0.3,"velocity":127,"measure":84,"beat":1.5,"subject_pos":-1,"motif":"","motif_pos":-1,"best_pos":3,"similarity":0.464,"stretto":false,"stretto_voices":0,"combination":[]},{"voice":0,"pitch":67,"start":199.8,"duration":0.6,"velocity":127,"measure":84,"beat":2.0,"subject_pos":-1,"motif":"","motif_pos":-1,"best_pos":5,"similarity":0.736,"stretto":false,"stretto_voices":0,"combination":[]},{"voice":2,"pitch":45,"start":199.8,"duration":0.3,"velocity":127,"measure":84,"beat":2.0,"subject_pos":-1,"motif":"","motif_pos":-1,"best_pos":2,"similarity":0.5,"stretto":false,"stretto_voices":0,"combination":[]},{"voice":2,"pitch":43,"start":200.1,"duration":0.3,"velocity":127,"measure":84,"beat":2.5,"subject_pos":-1,"motif":"","motif_pos":-1,"best_pos":3,"similarity":0.643,"stretto":false,"stretto_voices":0,"combination":[]},{"voice":0,"pitch":69,"start":200.4,"duration":0.3,"velocity":127,"measure":84,"beat":3.0,"subject_pos":-1,"motif":"","motif_pos":-1,"best_pos":6,"similarity":0.529,"stretto":false,"stretto_voices":0,"combination":[]},{"voice":2,"pitch":42,"start":200.4,"duration":0.3,"velocity":127,"measure":84,"beat":3.0,"subject_pos":-1,"motif":"","motif_pos":-1,"best_pos":4,"similarity":0.714,"stretto":false,"stretto_voices":0,"combination":[]},{"voice":0,"pitch":67,"start":200.7,"duration":0.3,"velocity":127,"measure":84,"beat":3.5,"subject_pos":-1,"motif":"","motif_pos":-1,"best_pos":2,"similarity":0.336,"stretto":false,"stretto_voices":0,"combination":[]},{"voice":2,"pitch":43,"start":200.7,"duration":0.3,"velocity":127,"measure":84,"beat":3.5,"subject_pos":-1,"motif":"","motif_pos":-1,"best_pos":5,"similarity":0.536,"stretto":false,"stretto_voices":0,"combination":[]},{"voice":0,"pitch":69,"start":201.0,"duration":0.6,"velocity":127,"measure":84,"beat":4.0,"subject_pos":-1,"motif":"head_inv","motif_pos":0,"best_pos":0,"similarity":1.0,"stretto":false,"stretto_voices":0,"combination":[]},{"voice":1,"pitch":60,"start":201.0,"duration":1.2,"velocity":127,"measure":84,"beat":4.0,"subject_pos":-1,"motif":"","motif_pos":-1,"best_pos":2,"similarity":0.493,"stretto":false,"stretto_voices":0,"combination":[]},{"voice":2,"pitch":40,"start":201.0,"duration":0.3,"velocity":127,"measure":84,"beat":4.0,"subject_pos":-1,"motif":"","motif_pos":-1,"best_pos":5,"similarity":0.511,"stretto":false,"stretto_voices":0,"combination":[]},{"voice":2,"pitch":42,"start":201.3,"duration":0.3,"velocity":127,"measure":84,"beat":4.5,"subject_pos":-1,"motif":"","motif_pos":-1,"best_pos":6,"similarity":0.604,"stretto":false,"stretto_voices":0,"combination":[]},{"voice":0,"pitch":62,"start":201.6,"duration":0.3,"velocity":127,"measure":85,"beat":1.0,"subject_pos":-1,"motif":"head_inv","motif_pos":1,"best_pos":1,"similarity":1.0,"stretto":false,"stretto_voices":0,"combination":[]},{"voice":2,"pitch":43,"start":201.6,"duration":0.6,"velocity":127,"measure":85,"beat":1.0,"subject_pos":-1,"motif":"","motif_pos":-1,"best_pos":7,"similarity":0.436,"stretto":false,"stretto_voices":0,"combination":[]},{"voice":0,"pitch":64,"start":201.9,"duration":0.3,"velocity":127,"measure":85,"beat":1.5,"subject_pos":-1,"motif":"head_inv","motif_pos":2,"best_pos":2,"similarity":1.0,"stretto":false,"stretto_voices":0,"combination":[]},{"voice":0,"pitch":66,"start":202.2,"duration":0.3,"velocity":127,"measure":85,"beat":2.0,"subject_pos":-1,"motif":"head_inv","motif_pos":3,"best_pos":3,"similarity":1.0,"stretto":false,"stretto_voices":0,"combination":[]},{"voice":1,"pitch":58,"start":202.2,"duration":0.6,"velocity":127,"measure":85,"beat":2.0,"subject_pos":-1,"motif":"","motif_pos":-1,"best_pos":4,"similarity":0.507,"stretto":false,"stretto_voices":0,"combination":[]},{"voice":2,"pitch":55,"start":202.2,"duration":1.2,"velocity":127,"measure":85,"beat":2.0,"subject_pos":-1,"motif":"","motif_pos":-1,"best_pos":3,"similarity":0.457,"stretto":false,"stretto_voices":0,"combination":[]},{"voice":0,"pitch":67,"start":202.5,"duration":0.3,"velocity":127,"measure":85,"beat":2.5,"subject_pos":-1,"motif":"head_inv","motif_pos":4,"best_pos":4,"similarity":1.0,"stretto":false,"stretto_voices":0,"combination":[]},{"voice":0,"pitch":69,"start":202.8,"duration":0.3,"velocity":127,"measure":85,"beat":3.0,"subject_pos":-1,"motif":"","motif_pos":-1,"best_pos":6,"similarity":0.464,"stretto":false,"stretto_voices":0,"combination":[]},{"voice":1,"pitch":60,"start":202.8,"duration":0.6,"velocity":127,"measure":85,"beat":3.0,"subject_pos":-1,"motif":"","motif_pos":-1,"best_pos":5,"similarity":0.536,"stretto":false,"stretto_voices":0,"combination":[]},{"voice":0,"pitch":67,"start":203.1,"duration":0.3,"velocity":127,"measure":85,"beat":3.5,"subject_pos":-1,"motif":"","motif_pos":-1,"best_pos":2,"similarity":0.461,"stretto":false,"stretto_voices":0,"combination":[]},{"voice":0,"pitch":70,"start":203.4,"duration":0.3,"velocity":127,"measure":85,"beat":4.0,"subject_pos":-1,"motif":"bach","motif_pos":0,"best_pos":0,"similarity":1.0,"stretto":false,"stretto_voices":0,"combination":[]},{"voice":1,"pitch":62,"start":203.4,"duration":0.6,"velocity":127,"measure":85,"beat":4.0,"subject_pos":-1,"motif":"","motif_pos":-1,"best_pos":6,"similarity":0.393,"stretto":false,"stretto_voices":0,"combination":[]},{"voice":2,"pitch":54,"start":203.4,"duration":0.6,"velocity":127,"measure":85,"beat":4.0,"subject_pos":-1,"motif":"","motif_pos":-1,"best_pos":4,"similarity":0.611,"stretto":false,"stretto_voices":0,"combination":[]},{"voice":0,"pitch":69,"start":203.7,"duration":0.3,"velocity":127,"measure":85,"beat":4.5,"subject_pos":-1,"motif":"bach","motif_pos":1,"best_pos":1,"similarity":1.0,"stretto":false,"stretto_voices":0,"combination":[]},{"voice":0,"pitch":72,"start":204.0,"duration":0.3,"velocity":127,"measure":86,"beat":1.0,"subject_pos":-1,"motif":"bach","motif_pos":2,"best_pos":2,"similarity":1.0,"stretto":false,"stretto_voices":0,"combination":[]},{"voice":1,"pitch":55,"start":204.0,"duration":0.6,"velocity":127,"measure":86,"beat":1.0,"subject_pos":-1,"motif":"","motif_pos":-1,"best_pos":4,"similarity":0.25,"stretto":false,"stretto_voices":0,"combination":[]},{"voice":2,"pitch":55,"start":204.0,"duration":0.6,"velocity":127,"measure":86,"beat":1.0,"subject_pos":-1,"motif":"","motif_pos":-1,"best_pos":5,"similarity":0.493,"stretto":false,"stretto_voices":0,"combination":[]},{"voice":0,"pitch":71,"start":204.3,"duration":0.3,"velocity":127,"measure":86,"beat":1.5,"subject_pos":-1,"motif":"bach","motif_pos":3,"best_pos":3,"similarity":1.0,"stretto":false,"stretto_voices":0,"combination":[]},{"voice":0,"pitch":74,"start":204.6,"duration":0.3,"velocity":127,"measure":86,"beat":2.0,"subject_pos":-1,"motif":"","motif_pos":-1,"best_pos":3,"similarity":0.418,"stretto":false,"stretto_voices":0,"combination":[]},{"voice":1,"pitch":59,"start":204.6,"duration":0.6,"velocity":127,"measure":86,"beat":2.0,"subject_pos":-1,"motif":"","motif_pos":-1,"best_pos":5,"similarity":0.457,"stretto":false,"stretto_voices":0,"combination":[]},{"voice":2,"pitch":53,"start":204.6,"duration":0.6,"velocity":127,"measure":86,"beat":2.0,"subject_pos":-1,"motif":"","motif_pos":-1,"best_pos":3,"similarity":0.464,"stretto":false,"stretto_voices":0,"combination":[]},{"voice":0,"pitch":73,"start":204.9,"duration":0.3,"velocity":127,"measure":86,"beat":2.5,"subject_pos":-1,"motif":"","motif_pos":-1,"best_pos":4,"similarity":0.425,"stretto":false,"stretto_voices":0,"combination":[]},{"voice":0,"pitch":76,"start":205.2,"duration":0.3,"velocity":127,"measure":86,"beat":3.0,"subject_pos":-1,"motif":"","motif_pos":-1,"best_pos":1,"similarity":0.429,"stretto":false,"stretto_voices":0,"combination":[]},{"voice":1,"pitch":61,"start":205.2,"duration":0.6,"velocity":127,"measure":86,"beat":3.0,"subject_pos":-1,"motif":"enigmatic_cell","motif_pos":0,"best_pos":0,"similarity":1.0,"stretto":false,"stretto_voices":0,"combination":[]},{"voice":2,"pitch":52,"start":205.2,"duration":0.6,"velocity":127,"measure":86,"beat":3.0,"subject_pos":-1,"motif":"","motif_pos":-1,"best_pos":2,"similarity":0.429,"stretto":false,"stretto_voices":0,"combination":[]},{"voice":0,"pitch":74,"start":205.5,"duration":0.3,"velocity":127,"measure":86,"beat":3.5,"subject_pos":-1,"motif":"","motif_pos":-1,"best_pos":2,"similarity":0.482,"stretto":false,"stretto_voices":0,"combination":[]},{"voice":0,"pitch":77,"start":205.8,"duration":0.3,"velocity":127,"measure":86,"beat":4.0,"subject_pos":-1,"motif":"","motif_pos":-1,"best_pos":3,"similarity":0.482,"stretto":false,"stretto_voices":0,"combination":[]},{"voice":1,"pitch":62,"start":205.8,"duration":0.6,"velocity":127,"measure":86,"beat":4.0,"subject_pos":-1,"motif":"enigmatic_cell","motif_pos":1,"best_pos":1,"similarity":1.0,"stretto":false,"stretto_voices":0,"combination":[]},{"voice":2,"pitch":50,"start":205.8,"duration":0.6,"velocity":127,"measure":86,"beat":4.0,"subject_pos":-1,"motif":"","motif_pos":-1,"best_pos":3,"similarity":0.507,"stretto":false,"stretto_voices":0,"combination":[]},{"voice":0,"pitch":76,"start":206.1,"duration":0.3,"velocity":127,"measure":86,"beat":4.5,"subject_pos":-1,"motif":"","motif_pos":-1,"best_pos":4,"similarity":0.446,"stretto":false,"stretto_voices":0,"combination":[]},{"voice":0,"pitch":79,"start":206.4,"duration":0.3,"velocity":127,"measure":87,"beat":1.0,"subject_pos":-1,"motif":"","motif_pos":-1,"best_pos":1,"similarity":0.257,"stretto":false,"stretto_voices":0,"combination":[]},{"voice":1,"pitch":57,"start":206.4,"duration":0.6,"velocity":127,"measure":87,"beat":1.0,"subject_pos":-1,"motif":"enigmatic_cell","motif_pos":2,"best_pos":2,"similarity":1.0,"stretto":false,"stretto_voices":0,"combination":[]},{"voice":2,"pitch":49,"start":206.4,"duration":0.3,"velocity":127,"measure":87,"beat":1.0,"subject_pos":-1,"motif":"","motif_pos":-1,"best_pos":4,"similarity":0.414,"stretto":false,"stretto_voices":0,"combination":[]},{"voice":0,"pitch":74,"start":206.7,"duration":0.3,"velocity":127,"measure":87,"beat":1.5,"subject_pos":-1,"motif":"","motif_pos":-1,"best_pos":3,"similarity":0.393,"stretto":false,"stretto_voices":0,"combination":[]},{"voice":2,"pitch":58,"start":206.7,"duration":0.3,"velocity":127,"measure":87,"beat":1.5,"subject_pos":-1,"motif":"","motif_pos":-1,"best_pos":3,"similarity":0.379,"stretto":false,"stretto_voices":0,"combination":[]},{"voice":0,"pitch":73,"start":207.0,"duration":0.3,"velocity":127,"measure":87,"beat":2.0,"subject_pos":-1,"motif":"","motif_pos":-1,"best_pos":4,"similarity":0.393,"stretto":false,"stretto_voices":0,"combination":[]},{"voice":2,"pitch":57,"start":207.0,"duration":0.3,"velocity":127,"measure":87,"beat":2.0,"subject_pos":-1,"motif":"","motif_pos":-1,"best_pos":2,"similarity":0.429,"stretto":false,"stretto_voices":0,"combination":[]},{"voice":0,"pitch":76,"start":207.3,"duration":0.3,"velocity":127,"measure":87,"beat":2.5,"subject_pos":-1,"motif":"","motif_pos":-1,"best_pos":5,"similarity":0.232,"stretto":false,"stretto_voices":0,"combination":[]},{"voice":2,"pitch":55,"start":207.3,"duration":0.3,"velocity":127,"measure":87,"beat":2.5,"subject_pos":-1,"motif":"","motif_pos":-1,"best_pos":2,"similarity":0.45,"stretto":false,"stretto_voices":0,"combination":[]},{"voice":0,"pitch":69,"start":207.6,"duration":0.6,"velocity":127,"measure":87,"beat":3.0,"subject_pos":-1,"motif":"","motif_pos":-1,"best_pos":0,"similarity":0.171,"stretto":false,"stretto_voices":0,"combination":[]},{"voice":2,"pitch":53,"start":207.6,"duration":0.3,"velocity":127,"measure":87,"beat":3.0,"subject_pos":-1,"motif":"","motif_pos":-1,"best_pos":4,"similarity":0.464,"stretto":false,"stretto_voices":0,"combination":[]},{"voice":2,"pitch":55,"start":207.9,"duration":0.3,"velocity":127,"measure":87,"beat":3.5,"subject_pos":-1,"motif":"","motif_pos":-1,"best_pos":5,"similarity":0.393,"stretto":false,"stretto_voices":0,"combination":[]},{"voice":0,"pitch":79,"start":208.2,"duration":0.6,"velocity":127,"measure":87,"beat":4.0,"subject_pos":-1,"motif":"","motif_pos":-1,"best_pos":1,"similarity":0.314,"stretto":false,"stretto_voices":0,"combination":[]},{"voice":1,"pitch":73,"start":208.2,"duration":0.6,"velocity":127,"measure":87,"beat":4.0,"subject_pos":-1,"motif":"","motif_pos":-1,"best_pos":4,"similarity":0.35,"stretto":false,"stretto_voices":0,"combination":[]},{"voice":2,"pitch":52,"start":208.2,"duration":0.3,"velocity":127,"measure":87,"beat":4.0,"subject_pos":-1,"motif":"","motif_pos":-1,"best_pos":4,"similarity":0.464,"stretto":false,"stretto_voices":0,"combination":[]},{"voice":2,"pitch":53,"start":208.5,"duration":0.3,"velocity":127,"measure":87,"beat":4.5,"subject_pos":-1,"motif":"","motif_pos":-1,"best_pos":4,"similarity":0.393,"stretto":false,"stretto_voices":0,"combination":[]},{"voice":0,"pitch":77,"start":208.8,"duration":0.6,"velocity":127,"measure":88,"beat":1.0,"subject_pos":-1,"motif":"","motif_pos":-1,"best_pos":2,"similarity":0.336,"stretto":false,"stretto_voices":0,"combination":[]},{"voice":1,"pitch":74,"start":208.8,"duration":0.6,"velocity":127,"measure":88,"beat":1.0,"subject_pos":-1,"motif":"","motif_pos":-1,"best_pos":1,"similarity":0.421,"stretto":false,"stretto_voices":0,"combination":[]},{"voice":2,"pitch":50,"start":208.8,"duration":0.3,"velocity":127,"measure":88,"beat":1.0,"subject_pos":-1,"motif":"","motif_pos":-1,"best_pos":5,"similarity":0.421,"stretto":false,"stretto_voices":0,"combination":[]},{"voice":2,"pitch":52,"start":209.1,"duration":0.3,"velocity":127,"measure":88,"beat":1.5,"subject_pos":-1,"motif":"","motif_pos":-1,"best_pos":1,"similarity":0.321,"stretto":false,"stretto_voices":0,"combination":[]},{"voice":0,"pitch":81,"start":209.4,"duration":0.6,"velocity":127,"measure":88,"beat":2.0,"subject_pos":-1,"motif":"","motif_pos":-1,"best_pos":4,"similarity":0.286,"stretto":false,"stretto_voices":0,"combination":[]},{"voice":2,"pitch":48,"start":209.4,"duration":0.3,"velocity":127,"measure":88,"beat":2.0,"subject_pos":-1,"motif":"","motif_pos":-1,"best_pos":5,"similarity":0.371,"stretto":false,"stretto_voices":0,"combination":[]},{"voice":2,"pitch":50,"start":209.7,"duration":0.3,"velocity":127,"measure":88,"beat":2.5,"subject_pos":-1,"motif":"","motif_pos":-1,"best_pos":1,"similarity":0.332,"stretto":false,"stretto_voices":0,"combination":[]},{"voice":0,"pitch":74,"start":210.0,"duration":0.3,"velocity":127,"measure":88,"beat":3.0,"subject_pos":-1,"motif":"","motif_pos":-1,"best_pos":5,"similarity":0.464,"stretto":false,"stretto_voices":0,"combination":[]},{"voice":2,"pitch":46,"start":210.0,"duration":0.3,"velocity":127,"measure":88,"beat":3.0,"subject_pos":-1,"motif":"","motif_pos":-1,"best_pos":2,"similarity":0.407,"stretto":false,"stretto_voices":0,"combination":[]},{"voice":0,"pitch":76,"start":210.3,"duration":0.3,"velocity":127,"measure":88,"beat":3.5,"subject_pos":-1,"motif":"","motif_pos":-1,"best_pos":6,"similarity":0.571,"stretto":false,"stretto_voices":0,"combination":[]},{"voice":2,"pitch":48,"start":210.3,"duration":0.3,"velocity":127,"measure":88,"beat":3.5,"subject_pos":-1,"motif":"","motif_pos":-1,"best_pos":3,"similarity":0.364,"stretto":false,"stretto_voices":0,"combination":[]},{"voice":0,"pitch":77,"start":210.6,"duration":0.3,"velocity":127,"measure":88,"beat":4.0,"subject_pos":-1,"motif":"","motif_pos":-1,"best_pos":5,"similarity":0.45,"stretto":false,"stretto_voices":0,"combination":[]},{"voice":1,"pitch":72,"start":210.6,"duration":0.6,"velocity":127,"measure":88,"beat":4.0,"subject_pos":-1,"motif":"","motif_pos":-1,"best_pos":2,"similarity":0.55,"stretto":false,"stretto_voices":0,"combination":[]},{"voice":2,"pitch":45,"start":210.6,"duration":0.3,"velocity":127,"measure":88,"beat":4.0,"subject_pos":-1,"motif":"","motif_pos":-1,"best_pos":4,"similarity":0.436,"stretto":false,"stretto_voices":0,"combination":[]},{"voice":0,"pitch":77,"start":210.9,"duration":0.3,"velocity":127,"measure":88,"beat":4.5,"subject_pos":-1,"motif":"","motif_pos":-1,"best_pos":4,"similarity":0.393,"stretto":false,"stretto_voices":0,"combination":[]},{"voice":2,"pitch":46,"start":210.9,"duration":0.3,"velocity":127,"measure":88,"beat":4.5,"subject_pos":-1,"motif":"","motif_pos":-1,"best_pos":5,"similarity":0.336,"stretto":false,"stretto_voices":0,"combination":[]},{"voice":0,"pitch":77,"start":211.2,"duration":0.3,"velocity":127,"measure":89,"beat":1.0,"subject_pos":-1,"motif":"","motif_pos":-1,"best_pos":5,"similarity":0.393,"stretto":false,"stretto_voices":0,"combination":[]},{"voice":1,"pitch":70,"start":211.2,"duration":0.3,"velocity":127,"measure":89,"beat":1.0,"subject_pos":-1,"motif":"","motif_pos":-1,"best_pos":3,"similarity":0.507,"stretto":false,"stretto_voices":0,"combination":[]},{"voice":2,"pitch":43,"start":211.2,"duration":0.6,"velocity":127,"measure":89,"beat":1.0,"subject_pos":-1,"motif":"","motif_pos":-1,"best_pos":0,"similarity":0.339,"stretto":false,"stretto_voices":0,"combination":[]},{"voice":0,"pitch":75,"start":211.5,"duration":0.3,"velocity":127,"measure":89,"beat":1.5,"subject_pos":-1,"motif":"","motif_pos":-1,"best_pos":4,"similarity":0.532,"stretto":false,"stretto_voices":0,"combination":[]},{"voice":1,"pitch":70,"start":211.5,"duration":0.3,"velocity":127,"measure":89,"beat":1.5,"subject_pos":-1,"motif":"","motif_pos":-1,"best_pos":4,"similarity":0.464,"stretto":false,"stretto_voices":0,"combination":[]},{"voice":0,"pitch":76,"start":211.8,"duration":0.3,"velocity":127,"measure":89,"beat":2.0,"subject_pos":-1,"motif":"","motif_pos":-1,"best_pos":5,"similarity":0.507,"stretto":false,"stretto_voices":0,"combination":[]},{"voice":1,"pitch":70,"start":211.8,"duration":0.3,"velocity":127,"measure":89,"beat":2.0,"subject_pos":-1,"motif":"","motif_pos":-1,"best_pos":4,"similarity":0.436,"stretto":false,"stretto_voices":0,"combination":[]},{"voice":2,"pitch":48,"start":211.8,"duration":0.6,"velocity":127,"measure":89,"beat":2.0,"subject_pos":-1,"motif":"","motif_pos":-1,"best_pos":1,"similarity":0.464,"stretto":false,"stretto_voices":0,"combination":[]},{"voice":0,"pitch":76,"start":212.1,"duration":0.3,"velocity":127,"measure":89,"beat":2.5,"subject_pos":-1,"motif":"","motif_pos":-1,"best_pos":4,"similarity":0.443,"stretto":false,"stretto_voices":0,"combination":[]},{"voice":1,"pitch":67,"start":212.1,"duration":0.3,"velocity":127,"measure":89,"beat":2.5,"subject_pos":-1,"motif":"","motif_pos":-1,"best_pos":5,"similarity":0.464,"stretto":false,"stretto_voices":0,"combination":[]},{"voice":0,"pitch":76,"start":212.4,"duration":0.3,"velocity":127,"measure":89,"beat":3.0,"subject_pos":-1,"motif":"","motif_pos":-1,"best_pos":2,"similarity":0.429,"stretto":false,"stretto_voices":0,"combination":[]},{"voice":1,"pitch":69,"start":212.4,"duration":0.3,"velocity":127,"measure":89,"beat":3.0,"subject_pos":-1,"motif":"","motif_pos":-1,"best_pos":6,"similarity":0.479,"stretto":false,"stretto_voices":0,"combination":[]},{"voice":2,"pitch":42,"start":212.4,"duration":0.6,"velocity":127,"measure":89,"beat":3.0,"subject_pos":-1,"motif":"","motif_pos":-1,"best_pos":2,"similarity":0.436,"stretto":false,"stretto_voices":0,"combination":[]},{"voice":0,"pitch":73,"start":212.7,"duration":0.3,"velocity":127,"measure":89,"beat":3.5,"subject_pos":-1,"motif":"","motif_pos":-1,"best_pos":3,"similarity":0.482,"stretto":false,"stretto_voices":0,"combination":[]},{"voice":1,"pitch":69,"start":212.7,"duration":0.3,"velocity":127,"measure":89,"beat":3.5,"subject_pos":-1,"motif":"","motif_pos":-1,"best_pos":4,"similarity":0.357,"stretto":false,"stretto_voices":0,"combination":[]},{"voice":0,"pitch":74,"start":213.0,"duration":0.3,"velocity":127,"measure":89,"beat":4.0,"subject_pos":-1,"motif":"","motif_pos":-1,"best_pos":5,"similarity":0.471,"stretto":false,"stretto_voices":0,"combination":[]},{"voice":1,"pitch":69,"start":213.0,"duration":0.3,"velocity":127,"measure":89,"beat":4.0,"subject_pos":-1,"motif":"","motif_pos":-1,"best_pos":4,"similarity":0.343,"stretto":false,"stretto_voices":0,"combination":[]},{"voice":2,"pitch":41,"start":213.0,"duration":0.6,"velocity":127,"measure":89,"beat":4.0,"subject_pos":-1,"motif":"enigmatic_cell","motif_pos":0,"best_pos":0,"similarity":1.0,"stretto":false,"stretto_voices":0,"combination":[]},{"voice":0,"pitch":74,"start":213.3,"duration":0.3,"velocity":127,"measure":89,"beat":4.5,"subject_pos":-1,"motif":"","motif_pos":-1,"best_pos":4,"similarity":0.407,"stretto":false,"stretto_voices":0,"combination":[]},{"voice":1,"pitch":65,"start":213.3,"duration":0.3,"velocity":127,"measure":89,"beat":4.5,"subject_pos":-1,"motif":"","motif_pos":-1,"best_pos":5,"similarity":0.436,"stretto":false,"stretto_voices":0,"combination":[]},{"voice":0,"pitch":74,"start":213.6,"duration":0.3,"velocity":127,"measure":90,"beat":1.0,"subject_pos":-1,"motif":"","motif_pos":-1,"best_pos":2,"similarity":0.429,"stretto":false,"stretto_voices":0,"combination":[]},{"voice":1,"pitch":67,"start":213.6,"duration":0.3,"velocity":127,"measure":90,"beat":1.0,"subject_pos":-1,"motif":"","motif_pos":-1,"best_pos":6,"similarity":0.464,"stretto":false,"stretto_voices":0,"combination":[]},{"voice":2,"pitch":40,"start":213.6,"duration":0.6,"velocity":127,"measure":90,"beat":1.0,"subject_pos":-1,"motif":"enigmatic_cell","motif_pos":1,"best_pos":1,"similarity":1.0,"stretto":false,"stretto_voices":0,"combination":[]},{"voice":0,"pitch":71,"start":213.9,"duration":0.3,"velocity":127,"measure":90,"beat":1.5,"subject_pos":-1,"motif":"","motif_pos":-1,"best_pos":3,"similarity":0.482,"stretto":false,"stretto_voices":0,"combination":[]},{"voice":1,"pitch":67,"start":213.9,"duration":0.3,"velocity":127,"measure":90,"beat":1.5,"subject_pos":-1,"motif":"","motif_pos":-1,"best_pos":4,"similarity":0.429,"stretto":false,"stretto_voices":0,"combination":[]},{"voice":0,"pitch":72,"start":214.2,"duration":0.3,"velocity":127,"measure":90,"beat":2.0,"subject_pos":-1,"motif":"","motif_pos":-1,"best_pos":5,"similarity":0.471,"stretto":false,"stretto_voices":0,"combination":[]},{"voice":1,"pitch":67,"start":214.2,"duration":0.3,"velocity":127,"measure":90,"beat":2.0,"subject_pos":-1,"motif":"","motif_pos":-1,"best_pos":2,"similarity":0.4,"stretto":false,"stretto_voices":0,"combination":[]},{"voice":2,"pitch":45,"start":214.2,"duration":0.6,"velocity":127,"measure":90,"beat":2.0,"subject_pos":-1,"motif":"enigmatic_cell","motif_pos":2,"best_pos":2,"similarity":1.0,"stretto":false,"stretto_voices":0,"combination":[]},{"voice":0,"pitch":72,"start":214.5,"duration":0.3,"velocity":127,"measure":90,"beat":2.5,"subject_pos":-1,"motif":"","motif_pos":-1,"best_pos":4,"similarity":0.407,"stretto":false,"stretto_voices":0,"combination":[]},{"voice":1,"pitch":64,"start":214.5,"duration":0.3,"velocity":127,"measure":90,"beat":2.5,"subject_pos":-1,"motif":"","motif_pos":-1,"best_pos":3,"similarity":0.414,"stretto":false,"stretto_voices":0,"combination":[]},{"voice":0,"pitch":72,"start":214.8,"duration":0.3,"velocity":127,"measure":90,"beat":3.0,"subject_pos":-1,"motif":"","motif_pos":-1,"best_pos":2,"similarity":0.429,"stretto":false,"stretto_voices":0,"combination":[]},{"voice":1,"pitch":65,"start":214.8,"duration":0.6,"velocity":127,"measure":90,"beat":3.0,"subject_pos":-1,"motif":"","motif_pos":-1,"best_pos":5,"similarity":0.343,"stretto":false,"stretto_voices":0,"combination":[]},{"voice":2,"pitch":38,"start":214.8,"duration":0.6,"velocity":127,"measure":90,"beat":3.0,"subject_pos":-1,"motif":"","motif_pos":-1,"best_pos":2,"similarity":0.261,"stretto":false,"stretto_voices":0,"combination":[]},{"voice":0,"pitch":69,"start":215.1,"duration":0.3,"velocity":127,"measure":90,"beat":3.5,"subject_pos":-1,"motif":"","motif_pos":-1,"best_pos":3,"similarity":0.482,"stretto":false,"stretto_voices":0,"combination":[]},{"voice":0,"pitch":70,"start":215.4,"duration":0.3,"velocity":127,"measure":90,"beat":4.0,"subject_pos":-1,"motif":"","motif_pos":-1,"best_pos":5,"similarity":0.471,"stretto":false,"stretto_voices":0,"combination":[]},{"voice":1,"pitch":62,"start":215.4,"duration":0.3,"velocity":127,"measure":90,"beat":4.0,"subject_pos":-1,"motif":"","motif_pos":-1,"best_pos":0,"similarity":0.357,"stretto":false,"stretto_voices":0,"combination":[]},{"voice":2,"pitch":55,"start":215.4,"duration":0.15,"velocity":127,"measure":90,"beat":4.0,"subject_pos":-1,"motif":"","motif_pos":-1,"best_pos":1,"similarity":0.357,"stretto":false,"stretto_voices":0,"combination":[]},{"voice":2,"pitch":53,"start":215.55,"duration":0.15,"velocity":127,"measure":90,"beat":4.25,"subject_pos":-1,"motif":"","motif_pos":-1,"best_pos":3,"similarity":0.45,"stretto":false,"stretto_voices":0,"combination":[]},{"voice":0,"pitch":70,"start":215.7,"duration":0.3,"velocity":127,"measure":90,"beat":4.5,"subject_pos":-1,"motif":"","motif_pos":-1,"best_pos":6,"similarity":0.375,"stretto":false,"stretto_voices":0,"combination":[]},{"voice":1,"pitch":67,"start":215.7,"duration":0.3,"velocity":127,"measure":90,"beat":4.5,"subject_pos":-1,"motif":"","motif_pos":-1,"best_pos":1,"similarity":0.464,"stretto":false,"stretto_voices":0,"combination":[]},{"voice":2,"pitch":52,"start":215.7,"duration":0.15,"velocity":127,"measure":90,"beat":4.5,"subject_pos":-1,"motif":"","motif_pos":-1,"best_pos":2,"similarity":0.5,"stretto":false,"stretto_voices":0,"combination":[]},{"voice":2,"pitch":50,"start":215.85,"duration":0.15,"velocity":127,"measure":90,"beat":4.75,"subject_pos":-1,"motif":"tail","motif_pos":3,"best_pos":3,"similarity":1.0,"stretto":false,"stretto_voices":0,"combination":[]},{"voice":0,"pitch":70,"start":216.0,"duration":0.3,"velocity":127,"measure":91,"beat":1.0,"subject_pos":-1,"motif":"","motif_pos":-1,"best_pos":2,"similarity":0.393,"stretto":false,"stretto_voices":0,"combination":[]},{"voice":1,"pitch":64,"start":216.0,"duration":0.6,"velocity":127,"measure":91,"beat":1.0,"subject_pos":-1,"motif":"","motif_pos":-1,"best_pos":3,"similarity":0.404,"stretto":false,"stretto_voices":0,"combination":[]},{"voice":2,"pitch":49,"start":216.0,"duration":0.15,"velocity":127,"measure":91,"beat":1.0,"subject_pos":-1,"motif":"tail","motif_pos":4,"best_pos":4,"similarity":1.0,"stretto":false,"stretto_voices":0,"combination":[]},{"voice":2,"pitch":50,"start":216.15,"duration":0.15,"velocity":127,"measure":91,"beat":1.25,"subject_pos":-1,"motif":"tail","motif_pos":5,"best_pos":5,"similarity":1.0,"stretto":false,"stretto_voices":0,"combination":[]},{"voice":0,"pitch":67,"start":216.3,"duration":0.3,"velocity":127,"measure":91,"beat":1.5,"subject_pos":-1,"motif":"","motif_pos":-1,"best_pos":3,"similarity":0.411,"stretto":false,"stretto_voices":0,"combination":[]},{"voice":2,"pitch":52,"start":216.3,"duration":0.15,"velocity":127,"measure":91,"beat":1.5,"subject_pos":-1,"motif":"tail","motif_pos":6,"best_pos":6,"similarity":1.0,"stretto":false,"stretto_voices":0,"combination":[]},{"voice":2,"pitch":53,"start":216.45,"duration":0.15,"velocity":127,"measure":91,"beat":1.75,"subject_pos":-1,"motif":"tail","motif_pos":7,"best_pos":7,"similarity":1.0,"stretto":false,"stretto_voices":0,"combination":[]},{"voice":0,"pitch":73,"start":216.6,"duration":0.3,"velocity":127,"measure":91,"beat":2.0,"subject_pos":-1,"motif":"","motif_pos":-1,"best_pos":4,"similarity":0.339,"stretto":false,"stretto_voices":0,"combination":[]},{"voice":2,"pitch":52,"start":216.6,"duration":0.15,"velocity":127,"measure":91,"beat":2.0,"subject_pos":-1,"motif":"","motif_pos":-1,"best_pos":2,"similarity":0.45,"stretto":false,"stretto_voices":0,"combination":[]},{"voice":2,"pitch":50,"start":216.75,"duration":0.15,"velocity":127,"measure":91,"beat":2.25,"subject_pos":-1,"motif":"","motif_pos":-1,"best_pos":3,"similarity":0.529,"stretto":false,"stretto_voices":0,"combination":[]},{"voice":0,"pitch":73,"start":216.9,"duration":0.3,"velocity":127,"measure":91,"beat":2.5,"subject_pos":-1,"motif":"","motif_pos":-1,"best_pos":4,"similarity":0.321,"stretto":false,"stretto_voices":0,"combination":[]},{"voice":2,"pitch":49,"start":216.9,"duration":0.15,"velocity":127,"measure":91,"beat":2.5,"subject_pos":-1,"motif":"","motif_pos":-1,"best_pos":4,"similarity":0.471,"stretto":false,"stretto_voices":0,"combination":[]},{"voice":2,"pitch":47,"start":217.05,"duration":0.15,"velocity":127,"measure":91,"beat":2.75,"subject_pos":-1,"motif":"","motif_pos":-1,"best_pos":3,"similarity":0.5,"stretto":false,"stretto_voices":0,"combination":[]},{"voice":0,"pitch":73,"start":217.2,"duration":0.3,"velocity":127,"measure":91,"beat":3.0,"subject_pos":-1,"motif":"","motif_pos":-1,"best_pos":5,"similarity":0.214,"stretto":false,"stretto_voices":0,"combination":[]},{"voice":2,"pitch":45,"start":217.2,"duration":0.15,"velocity":127,"measure":91,"beat":3.0,"subject_pos":-1,"motif":"","motif_pos":-1,"best_pos":4,"similarity":0.607,"stretto":false,"stretto_voices":0,"combination":[]},{"voice":2,"pitch":47,"start":217.35,"duration":0.15,"velocity":127,"measure":91,"beat":3.25,"subject_pos":-1,"motif":"","motif_pos":-1,"best_pos":5,"similarity":0.679,"stretto":false,"stretto_voices":0,"combination":[]},{"voice":0,"pitch":67,"start":217.5,"duration":0.3,"velocity":127,"measure":91,"beat":3.5,"subject_pos":-1,"motif":"","motif_pos":-1,"best_pos":2,"similarity":0.179,"stretto":false,"stretto_voices":0,"combination":[]},{"voice":2,"pitch":49,"start":217.5,"duration":0.15,"velocity":127,"measure":91,"beat":3.5,"subject_pos":-1,"motif":"","motif_pos":-1,"best_pos":6,"similarity":0.679,"stretto":false,"stretto_voices":0,"combination":[]},{"voice":2,"pitch":50,"start":217.65,"duration":0.15,"velocity":127,"measure":91,"beat":3.75,"subject_pos":-1,"motif":"","motif_pos":-1,"best_pos":7,"similarity":0.464,"stretto":false,"stretto_voices":0,"combination":[]},{"voice":0,"pitch":76,"start":217.8,"duration":0.3,"velocity":127,"measure":91,"beat":4.0,"subject_pos":-1,"motif":"","motif_pos":-1,"best_pos":3,"similarity":0.25,"stretto":false,"stretto_voices":0,"combination":[]},{"voice":1,"pitch":67,"start":217.8,"duration":0.3,"velocity":127,"measure":91,"beat":4.0,"subject_pos":-1,"motif":"","motif_pos":-1,"best_pos":3,"similarity":0.357,"stretto":false,"stretto_voices":0,"combination":[]},{"voice":2,"pitch":49,"start":217.8,"duration":0.15,"velocity":127,"measure":91,"beat":4.0,"subject_pos":-1,"motif":"","motif_pos":-1,"best_pos":1,"similarity":0.393,"stretto":false,"stretto_voices":0,"combination":[]},{"voice":2,"pitch":47,"start":217.95,"duration":0.15,"velocity":127,"measure":91,"beat":4.25,"subject_pos":-1,"motif":"","motif_pos":-1,"best_pos":2,"similarity":0.507,"stretto":false,"stretto_voices":0,"combination":[]},{"voice":0,"pitch":76,"start":218.1,"duration":0.3,"velocity":127,"measure":91,"beat":4.5,"subject_pos":-1,"motif":"","motif_pos":-1,"best_pos":4,"similarity":0.375,"stretto":false,"stretto_voices":0,"combination":[]},{"voice":1,"pitch":67,"start":218.1,"duration":0.3,"velocity":127,"measure":91,"beat":4.5,"subject_pos":-1,"motif":"","motif_pos":-1,"best_pos":4,"similarity":0.393,"stretto":false,"stretto_voices":0,"combination":[]},{"voice":2,"pitch":45,"start":218.1,"duration":0.15,"velocity":127,"measure":91,"beat":4.5,"subject_pos":-1,"motif":"","motif_pos":-1,"best_pos":2,"similarity":0.507,"stretto":false,"stretto_voices":0,"combination":[]},{"voice":2,"pitch":43,"start":218.25,"duration":0.15,"velocity":127,"measure":91,"beat":4.75,"subject_pos":-1,"motif":"","motif_pos":-1,"best_pos":3,"similarity":0.514,"stretto":false,"stretto_voices":0,"combination":[]},{"voice":0,"pitch":76,"start":218.4,"duration":0.3,"velocity":127,"measure":92,"beat":1.0,"subject_pos":-1,"motif":"","motif_pos":-1,"best_pos":2,"similarity":0.4,"stretto":false,"stretto_voices":0,"combination":[]},{"voice":1,"pitch":67,"start":218.4,"duration":0.3,"velocity":127,"measure":92,"beat":1.0,"subject_pos":-1,"motif":"","motif_pos":-1,"best_pos":2,"similarity":0.429,"stretto":false,"stretto_voices":0,"combination":[]},{"voice":2,"pitch":41,"start":218.4,"duration":0.6,"velocity":127,"measure":92,"beat":1.0,"subject_pos":-1,"motif":"","motif_pos":-1,"best_pos":2,"similarity":0.657,"stretto":false,"stretto_voices":0,"combination":[]},{"voice":0,"pitch":73,"start":218.7,"duration":0.3,"velocity":127,"measure":92,"beat":1.5,"subject_pos":-1,"motif":"","motif_pos":-1,"best_pos":3,"similarity":0.414,"stretto":false,"stretto_voices":0,"combination":[]},{"voice":1,"pitch":64,"start":218.7,"duration":0.3,"velocity":127,"measure":92,"beat":1.5,"subject_pos":-1,"motif":"","motif_pos":-1,"best_pos":4,"similarity":0.568,"stretto":false,"stretto_voices":0,"combination":[]},{"voice":0,"pitch":74,"start":219.0,"duration":0.6,"velocity":127,"measure":92,"beat":2.0,"subject_pos":-1,"motif":"","motif_pos":-1,"best_pos":1,"similarity":0.457,"stretto":false,"stretto_voices":0,"combination":[]},{"voice":1,"pitch":65,"start":219.0,"duration":0.6,"velocity":127,"measure":92,"beat":2.0,"subject_pos":-1,"motif":"","motif_pos":-1,"best_pos":5,"similarity":0.686,"stretto":false,"stretto_voices":0,"combination":[]},{"voice":2,"pitch":38,"start":219.15,"duration":0.15,"velocity":127,"measure":92,"beat":2.25,"subject_pos":-1,"motif":"","motif_pos":-1,"best_pos":3,"similarity":0.671,"stretto":false,"stretto_voices":0,"combination":[]},{"voice":2,"pitch":40,"start":219.3,"duration":0.075,"velocity":127,"measure":92,"beat":2.5,"subject_pos":-1,"motif":"","motif_pos":-1,"best_pos":4,"similarity":0.707,"stretto":false,"stretto_voices":0,"combination":[]},{"voice":2,"pitch":41,"start":219.375,"duration":0.075,"velocity":127,"measure":92,"beat":2.625,"subject_pos":-1,"motif":"","motif_pos":-1,"best_pos":5,"similarity":0.729,"stretto":false,"stretto_voices":0,"combination":[]},{"voice":2,"pitch":43,"start":219.45,"duration":0.075,"velocity":127,"measure":92,"beat":2.75,"subject_pos":-1,"motif":"","motif_pos":-1,"best_pos":5,"similarity":0.607,"stretto":false,"stretto_voices":0,"combination":[]},{"voice":2,"pitch":45,"start":219.525,"duration":0.075,"velocity":127,"measure":92,"beat":2.875,"subject_pos":-1,"motif":"","motif_pos":-1,"best_pos":6,"similarity":0.661,"stretto":false,"stretto_voices":0,"combination":[]},{"voice":2,"pitch":46,"start":219.6,"duration":1.2,"velocity":127,"measure":92,"beat":3.0,"subject_pos":-1,"motif":"","motif_pos":-1,"best_pos":7,"similarity":0.464,"stretto":false,"stretto_voices":0,"combination":[]},{"voice":0,"pitch":72,"start":219.75,"duration":0.15,"velocity":127,"measure":92,"beat":3.25,"subject_pos":-1,"motif":"","motif_pos":-1,"best_pos":2,"similarity":0.593,"stretto":false,"stretto_voices":0,"combination":[]},{"voice":0,"pitch":70,"start":219.9,"duration":0.15,"velocity":127,"measure":92,"beat":3.5,"subject_pos":-1,"motif":"","motif_pos":-1,"best_pos":3,"similarity":0.593,"stretto":false,"stretto_voices":0,"combination":[]},{"voice":0,"pitch":69,"start":220.05,"duration":0.15,"velocity":127,"measure":92,"beat":3.75,"subject_pos":-1,"motif":"","motif_pos":-1,"best_pos":4,"similarity":0.475,"stretto":false,"stretto_voices":0,"combination":[]},{"voice":0,"pitch":67,"start":220.2,"duration":0.15,"velocity":127,"measure":92,"beat":4.0,"subject_pos":-1,"motif":"","motif_pos":-1,"best_pos":2,"similarity":0.436,"stretto":false,"stretto_voices":0,"combination":[]},{"voice":1,"pitch":67,"start":220.2,"duration":0.6,"velocity":127,"measure":92,"beat":4.0,"subject_pos":-1,"motif":"","motif_pos":-1,"best_pos":5,"similarity":0.607,"stretto":false,"stretto_voices":0,"combination":[]},{"voice":0,"pitch":77,"start":220.35,"duration":0.15,"velocity":127,"measure":92,"beat":4.25,"subject_pos":-1,"motif":"","motif_pos":-1,"best_pos":3,"similarity":0.45,"stretto":false,"stretto_voices":0,"combination":[]},{"voice":0,"pitch":76,"start":220.5,"duration":0.15,"velocity":127,"measure":92,"beat":4.5,"subject_pos":-1,"motif":"","motif_pos":-1,"best_pos":2,"similarity":0.443,"stretto":false,"stretto_voices":0,"combination":[]},{"voice":0,"pitch":74,"start":220.65,"duration":0.15,"velocity":127,"measure":92,"beat":4.75,"subject_pos":-1,"motif":"","motif_pos":-1,"best_pos":3,"similarity":0.579,"stretto":false,"stretto_voices":0,"combination":[]},{"voice":0,"pitch":73,"start":220.8,"duration":1.2,"velocity":127,"measure":93,"beat":1.0,"subject_pos":-1,"motif":"","motif_pos":-1,"best_pos":4,"similarity":0.571,"stretto":false,"stretto_voices":0,"combination":[]},{"voice":1,"pitch":69,"start":220.8,"duration":1.2,"velocity":127,"measure":93,"beat":1.0,"subject_pos":-1,"motif":"","motif_pos":-1,"best_pos":6,"similarity":0.518,"stretto":false,"stretto_voices":0,"combination":[]},{"voice":2,"pitch":45,"start":220.8,"duration":0.3,"velocity":127,"measure":93,"beat":1.0,"subject_pos":-1,"motif":"","motif_pos":-1,"best_pos":4,"similarity":0.329,"stretto":false,"stretto_voices":0,"combination":[]},{"voice":2,"pitch":57,"start":221.1,"duration":0.3,"velocity":127,"measure":93,"beat":1.5,"subject_pos":-1,"motif":"","motif_pos":-1,"best_pos":1,"similarity":0.429,"stretto":false,"stretto_voices":0,"combination":[]},{"voice":2,"pitch":55,"start":221.4,"duration":0.3,"velocity":127,"measure":93,"beat":2.0,"subject_pos":-1,"motif":"","motif_pos":-1,"best_pos":2,"similarity":0.643,"stretto":false,"stretto_voices":0,"combination":[]},{"voice":2,"pitch":53,"start":221.7,"duration":0.3,"velocity":127,"measure":93,"beat":2.5,"subject_pos":-1,"motif":"","motif_pos":-1,"best_pos":3,"similarity":0.714,"stretto":false,"stretto_voices":0,"combination":[]},{"voice":2,"pitch":52,"start":222.0,"duration":0.3,"velocity":127,"measure":93,"beat":3.0,"subject_pos":-1,"motif":"","motif_pos":-1,"best_pos":4,"similarity":0.75,"stretto":false,"stretto_voices":0,"combination":[]},{"voice":0,"pitch":69,"start":222.3,"duration":0.3,"velocity":127,"measure":93,"beat":3.5,"subject_pos":-1,"motif":"","motif_pos":-1,"best_pos":5,"similarity":0.536,"stretto":false,"stretto_voices":0,"combination":[]},{"voice":2,"pitch":53,"start":222.3,"duration":0.3,"velocity":127,"measure":93,"beat":3.5,"subject_pos":-1,"motif":"","motif_pos":-1,"best_pos":5,"similarity":0.536,"stretto":false,"stretto_voices":0,"combination":[]},{"voice":0,"pitch":71,"start":222.6,"duration":0.3,"velocity":127,"measure":93,"beat":4.0,"subject_pos":-1,"motif":"","motif_pos":-1,"best_pos":5,"similarity":0.604,"stretto":false,"stretto_voices":0,"combination":[]},{"voice":2,"pitch":50,"start":222.6,"duration":0.3,"velocity":127,"measure":93,"beat":4.0,"subject_pos":-1,"motif":"","motif_pos":-1,"best_pos":5,"similarity":0.511,"stretto":false,"stretto_voices":0,"combination":[]},{"voice":0,"pitch":73,"start":222.9,"duration":0.3,"velocity":127,"measure":93,"beat":4.5,"subject_pos":-1,"motif":"","motif_pos":-1,"best_pos":6,"similarity":0.65,"stretto":false,"stretto_voices":0,"combination":[]},{"voice":2,"pitch":52,"start":222.9,"duration":0.3,"velocity":127,"measure":93,"beat":4.5,"subject_pos":-1,"motif":"tail_inv","motif_pos":0,"best_pos":0,"similarity":1.0,"stretto":false,"stretto_voices":0,"combination":[]},{"voice":0,"pitch":74,"start":223.2,"duration":0.3,"velocity":127,"measure":94,"beat":1.0,"subject_pos":-1,"motif":"","motif_pos":-1,"best_pos":7,"similarity":0.464,"stretto":false,"stretto_voices":0,"combination":[]},{"voice":2,"pitch":53,"start":223.2,"duration":1.2,"velocity":127,"measure":94,"beat":1.0,"subject_pos":-1,"motif":"tail_inv","motif_pos":1,"best_pos":1,"similarity":1.0,"stretto":false,"stretto_voices":0,"combination":[]},{"voice":0,"pitch":73,"start":223.5,"duration":0.3,"velocity":127,"measure":94,"beat":1.5,"subject_pos":-1,"motif":"","motif_pos":-1,"best_pos":4,"similarity":0.411,"stretto":false,"stretto_voices":0,"combination":[]},{"voice":0,"pitch":76,"start":223.8,"duration":0.3,"velocity":127,"measure":94,"beat":2.0,"subject_pos":-1,"motif":"","motif_pos":-1,"best_pos":1,"similarity":0.357,"stretto":false,"stretto_voices":0,"combination":[]},{"voice":1,"pitch":69,"start":223.8,"duration":0.6,"velocity":127,"measure":94,"beat":2.0,"subject_pos":0,"motif":"subject_inv","motif_pos":0,"best_pos":0,"similarity":1.0,"stretto":false,"stretto_voices":0,"combination":[]},{"voice":0,"pitch":74,"start":224.1,"duration":0.3,"velocity":127,"measure":94,"beat":2.5,"subject_pos":-1,"motif":"","motif_pos":-1,"best_pos":2,"similarity":0.339,"stretto":false,"stretto_voices":0,"combination":[]},{"voice":0,"pitch":77,"start":224.4,"duration":0.6,"velocity":127,"measure":94,"beat":3.0,"subject_pos":-1,"motif":"","motif_pos":-1,"best_pos":3,"similarity":0.204,"stretto":false,"stretto_voices":0,"combination":[]},{"voice":1,"pitch":62,"start":224.4,"duration":0.6,"velocity":127,"measure":94,"beat":3.0,"subject_pos":1,"motif":"subject_inv","motif_pos":1,"best_pos":1,"similarity":1.0,"stretto":false,"stretto_voices":0,"combination":[]},{"voice":2,"pitch":52,"start":224.7,"duration":0.3,"velocity":127,"measure":94,"beat":3.5,"subject_pos":-1,"motif":"tail_inv","motif_pos":2,"best_pos":2,"similarity":1.0,"stretto":false,"stretto_voices":0,"combination":[]},{"voice":0,"pitch":70,"start":225.0,"duration":0.9,"velocity":127,"measure":94,"beat":4.0,"subject_pos":-1,"motif":"enigmatic_cell","motif_pos":0,"best_pos":0,"similarity":1.0,"stretto":false,"stretto_voices":0,"combination":[]},{"voice":1,"pitch":64,"start":225.0,"duration":0.6,"velocity":127,"measure":94,"beat":4.0,"subject_pos":2,"motif":"subject_inv","motif_pos":2,"best_pos":2,"similarity":1.0,"stretto":false,"stretto_voices":0,"combination":[]},{"voice":2,"pitch":50,"start":225.0,"duration":0.3,"velocity":127,"measure":94,"beat":4.0,"subject_pos":-1,"motif":"tail_inv","motif_pos":3,"best_pos":3,"similarity":1.0,"stretto":false,"stretto_voices":0,"combination":[]},{"voice":2,"pitch":49,"start":225.3,"duration":0.3,"velocity":127,"measure":94,"beat":4.5,"subject_pos":-1,"motif":"tail_inv","motif_pos":4,"best_pos":4,"similarity":1.0,"stretto":false,"stretto_voices":0,"combination":[]},{"voice":2,"pitch":50,"start":225.6,"duration":1.2,"velocity":127,"measure":95,"beat":1.0,"subject_pos":-1,"motif":"","motif_pos":-1,"best_pos":5,"similarity":0.507,"stretto":false,"stretto_voices":0,"combination":[]},{"voice":0,"pitch":69,"start":225.9,"duration":0.3,"velocity":127,"measure":95,"beat":1.5,"subject_pos":-1,"motif":"enigmatic_cell","motif_pos":1,"best_pos":1,"similarity":1.0,"stretto":false,"stretto_voices":0,"combination":[]},{"voice":0,"pitch":74,"start":226.2,"duration":0.3,"velocity":127,"measure":95,"beat":2.0,"subject_pos":-1,"motif":"enigmatic_cell","motif_pos":2,"best_pos":2,"similarity":1.0,"stretto":false,"stretto_voices":0,"combination":[]},{"voice":1,"pitch":65,"start":226.2,"duration":0.6,"velocity":127,"measure":95,"beat":2.0,"subject_pos":3,"motif":"subject_inv","motif_pos":3,"best_pos":3,"similarity":1.0,"stretto":false,"stretto_voices":0,"combination":[]},{"voice":0,"pitch":72,"start":226.5,"duration":0.3,"velocity":127,"measure":95,"beat":2.5,"subject_pos":-1,"motif":"","motif_pos":-1,"best_pos":2,"similarity":0.571,"stretto":false,"stretto_voices":0,"combination":[]},{"voice":0,"pitch":75,"start":226.8,"duration":0.3,"velocity":127,"measure":95,"beat":3.0,"subject_pos":-1,"motif":"","motif_pos":-1,"best_pos":3,"similarity":0.507,"stretto":false,"stretto_voices":0,"combination":[]},{"voice":1,"pitch":67,"start":226.8,"duration":0.6,"velocity":127,"measure":95,"beat":3.0,"subject_pos":4,"motif":"subject_inv","motif_pos":4,"best_pos":4,"similarity":1.0,"stretto":false,"stretto_voices":0,"combination":[]},{"voice":0,"pitch":74,"start":227.1,"duration":0.3,"velocity":127,"measure":95,"beat":3.5,"subject_pos":-1,"motif":"","motif_pos":-1,"best_pos":4,"similarity":0.379,"stretto":false,"stretto_voices":0,"combination":[]},{"voice":2,"pitch":48,"start":227.1,"duration":0.3,"velocity":127,"measure":95,"beat":3.5,"subject_pos":-1,"motif":"","motif_pos":-1,"best_pos":2,"similarity":0.593,"stretto":false,"stretto_voices":0,"combination":[]},{"voice":0,"pitch":66,"start":227.4,"duration":0.3,"velocity":127,"measure":95,"beat":4.0,"subject_pos":-1,"motif":"","motif_pos":-1,"best_pos":0,"similarity":0.286,"stretto":false,"stretto_voices":0,"combination":[]},{"voice":1,"pitch":69,"start":227.4,"duration":0.6,"velocity":127,"measure":95,"beat":4.0,"subject_pos":5,"motif":"subject_inv","motif_pos":5,"best_pos":5,"similarity":1.0,"stretto":false,"stretto_voices":0,"combination":[]},{"voice":2,"pitch":46,"start":227.4,"duration":0.3,"velocity":127,"measure":95,"beat":4.0,"subject_pos":-1,"motif":"","motif_pos":-1,"best_pos":3,"similarity":0.593,"stretto":false,"stretto_voices":0,"combination":[]},{"voice":0,"pitch":72,"start":227.7,"duration":0.3,"velocity":127,"measure":95,"beat":4.5,"subject_pos":-1,"motif":"","motif_pos":-1,"best_pos":1,"similarity":0.446,"stretto":false,"stretto_voices":0,"combination":[]},{"voice":2,"pitch":45,"start":227.7,"duration":0.3,"velocity":127,"measure":95,"beat":4.5,"subject_pos":-1,"motif":"","motif_pos":-1,"best_pos":4,"similarity":0.493,"stretto":false,"stretto_voices":0,"combination":[]},{"voice":0,"pitch":70,"start":228.0,"duration":0.3,"velocity":127,"measure":96,"beat":1.0,"subject_pos":-1,"motif":"","motif_pos":-1,"best_pos":2,"similarity":0.4,"stretto":false,"stretto_voices":0,"combination":[]},{"voice":2,"pitch":43,"start":228.0,"duration":0.6,"velocity":127,"measure":96,"beat":1.0,"subject_pos":-1,"motif":"","motif_pos":-1,"best_pos":4,"similarity":0.393,"stretto":false,"stretto_voices":0,"combination":[]},{"voice":0,"pitch":74,"start":228.3,"duration":0.3,"velocity":127,"measure":96,"beat":1.5,"subject_pos":-1,"motif":"","motif_pos":-1,"best_pos":4,"similarity":0.4,"stretto":false,"stretto_voices":0,"combination":[]},{"voice":0,"pitch":75,"start":228.6,"duration":0.3,"velocity":127,"measure":96,"beat":2.0,"subject_pos":-1,"motif":"","motif_pos":-1,"best_pos":5,"similarity":0.407,"stretto":false,"stretto_voices":0,"combination":[]},{"voice":1,"pitch":70,"start":228.6,"duration":0.6,"velocity":127,"measure":96,"beat":2.0,"subject_pos":6,"motif":"subject_inv","motif_pos":6,"best_pos":6,"similarity":1.0,"stretto":false,"stretto_voices":0,"combination":[]},{"voice":2,"pitch":55,"start":228.6,"duration":0.6,"velocity":127,"measure":96,"beat":2.0,"subject_pos":-1,"motif":"","motif_pos":-1,"best_pos":5,"similarity":0.375,"stretto":false,"stretto_voices":0,"combination":[]},{"voice":0,"pitch":79,"start":228.9,"duration":0.3,"velocity":127,"measure":96,"beat":2.5,"subject_pos":-1,"motif":"","motif_pos":-1,"best_pos":1,"similarity":0.579,"stretto":false,"stretto_voices":0,"combination":[]},{"voice":0,"pitch":77,"start":229.2,"duration":0.3,"velocity":127,"measure":96,"beat":3.0,"subject_pos":-1,"motif":"","motif_pos":-1,"best_pos":2,"similarity":0.664,"stretto":false,"stretto_voices":0,"combination":[]},{"voice":1,"pitch":69,"start":229.2,"duration":0.6,"velocity":127,"measure":96,"beat":3.0,"subject_pos":7,"motif":"subject_inv","motif_pos":7,"best_pos":7,"similarity":1.0,"stretto":false,"stretto_voices":0,"combination":[]},{"voice":2,"pitch":57,"start":229.2,"duration":0.6,"velocity":127,"measure":96,"beat":3.0,"subject_pos":-1,"motif":"","motif_pos":-1,"best_pos":5,"similarity":0.321,"stretto":false,"stretto_voices":0,"combination":[]},{"voice":0,"pitch":74,"start":229.5,"duration":0.3,"velocity":127,"measure":96,"beat":3.5,"subject_pos":-1,"motif":"","motif_pos":-1,"best_pos":3,"similarity":0.525,"stretto":false,"stretto_voices":0,"combination":[]},{"voice":0,"pitch":76,"start":229.8,"duration":0.3,"velocity":127,"measure":96,"beat":4.0,"subject_pos":-1,"motif":"","motif_pos":-1,"best_pos":2,"similarity":0.457,"stretto":false,"stretto_voices":0,"combination":[]},{"voice":1,"pitch":67,"start":229.8,"duration":0.6,"velocity":127,"measure":96,"beat":4.0,"subject_pos":8,"motif":"subject_inv","motif_pos":8,"best_pos":0,"similarity":1.0,"stretto":false,"stretto_voices":0,"combination":[]},{"voice":2,"pitch":45,"start":229.8,"duration":0.6,"velocity":127,"measure":96,"beat":4.0,"subject_pos":-1,"motif":"","motif_pos":-1,"best_pos":6,"similarity":0.357,"stretto":false,"stretto_voices":0,"combination":[]},{"voice":0,"pitch":73,"start":230.1,"duration":0.3,"velocity":127,"measure":96,"beat":4.5,"subject_pos":-1,"motif":"","motif_pos":-1,"best_pos":3,"similarity":0.586,"stretto":false,"stretto_voices":0,"combination":[]},{"voice":0,"pitch":73,"start":230.4,"duration":0.3,"velocity":127,"measure":97,"beat":1.0,"subject_pos":-1,"motif":"","motif_pos":-1,"best_pos":4,"similarity":0.579,"stretto":false,"stretto_voices":0,"combination":[]},{"voice":2,"pitch":46,"start":230.4,"duration":1.2,"velocity":127,"measure":97,"beat":1.0,"subject_pos":-1,"motif":"","motif_pos":-1,"best_pos":5,"similarity":0.321,"stretto":false,"stretto_voices":0,"combination":[]},{"voice":0,"pitch":74,"start":230.7,"duration":0.3,"velocity":127,"measure":97,"beat":1.5,"subject_pos":-1,"motif":"","motif_pos":-1,"best_pos":5,"similarity":0.429,"stretto":false,"stretto_voices":0,"combination":[]},{"voice":0,"pitch":62,"start":231.0,"duration":0.6,"velocity":127,"measure":97,"beat":2.0,"subject_pos":-1,"motif":"","motif_pos":-1,"best_pos":4,"similarity":0.182,"stretto":false,"stretto_voices":0,"combination":[]},{"voice":1,"pitch":65,"start":231.0,"duration":0.3,"velocity":127,"measure":97,"beat":2.0,"subject_pos":-1,"motif":"","motif_pos":-1,"best_pos":3,"similarity":0.786,"stretto":false,"stretto_voices":0,"combination":[]},{"voice":1,"pitch":64,"start":231.3,"duration":0.3,"velocity":127,"measure":97,"beat":2.5,"subject_pos":-1,"motif":"","motif_pos":-1,"best_pos":4,"similarity":0.893,"stretto":false,"stretto_voices":0,"combination":[]},{"voice":0,"pitch":74,"start":231.6,"duration":0.6,"velocity":127,"measure":97,"beat":3.0,"subject_pos":-1,"motif":"","motif_pos":-1,"best_pos":5,"similarity":0.307,"stretto":false,"stretto_voices":0,"combination":[]},{"voice":1,"pitch":65,"start":231.6,"duration":0.6,"velocity":127,"measure":97,"beat":3.0,"subject_pos":-1,"motif":"","motif_pos":-1,"best_pos":5,"similarity":0.821,"stretto":false,"stretto_voices":0,"combination":[]},{"voice":2,"pitch":58,"start":231.9,"duration":0.3,"velocity":127,"measure":97,"beat":3.5,"subject_pos":-1,"motif":"","motif_pos":-1,"best_pos":3,"similarity":0.332,"stretto":false,"stretto_voices":0,"combination":[]},{"voice":0,"pitch":76,"start":232.2,"duration":0.6,"velocity":127,"measure":97,"beat":4.0,"subject_pos":-1,"motif":"","motif_pos":-1,"best_pos":2,"similarity":0.357,"stretto":false,"stretto_voices":0,"combination":[]},{"voice":1,"pitch":67,"start":232.2,"duration":0.6,"velocity":127,"measure":97,"beat":4.0,"subject_pos":-1,"motif":"","motif_pos":-1,"best_pos":6,"similarity":0.643,"stretto":false,"stretto_voices":0,"combination":[]},{"voice":2,"pitch":57,"start":232.2,"duration":0.3,"velocity":127,"measure":97,"beat":4.0,"subject_pos":-1,"motif":"","motif_pos":-1,"best_pos":2,"similarity":0.364,"stretto":false,"stretto_voices":0,"combination":[]},{"voice":2,"pitch":55,"start":232.5,"duration":0.3,"velocity":127,"measure":97,"beat":4.5,"subject_pos":-1,"motif":"","motif_pos":-1,"best_pos":2,"similarity":0.421,"stretto":false,"stretto_voices":0,"combination":[]},{"voice":0,"pitch":73,"start":232.8,"duration":0.6,"velocity":127,"measure":98,"beat":1.0,"subject_pos":-1,"motif":"","motif_pos":-1,"best_pos":3,"similarity":0.386,"stretto":false,"stretto_voices":0,"combination":[]},{"voice":1,"pitch":69,"start":232.8,"duration":1.2,"velocity":127,"measure":98,"beat":1.0,"subject_pos":-1,"motif":"","motif_pos":-1,"best_pos":5,"similarity":0.521,"stretto":false,"stretto_voices":0,"combination":[]},{"voice":2,"pitch":55,"start":232.8,"duration":0.3,"velocity":127,"measure":98,"beat":1.0,"subject_pos":-1,"motif":"","motif_pos":-1,"best_pos":2,"similarity":0.429,"stretto":false,"stretto_voices":0,"combination":[]},{"voice":2,"pitch":52,"start":233.1,"duration":0.3,"velocity":127,"measure":98,"beat":1.5,"subject_pos":-1,"motif":"","motif_pos":-1,"best_pos":4,"similarity":0.514,"stretto":false,"stretto_voices":0,"combination":[]},{"voice":0,"pitch":74,"start":233.4,"duration":0.6,"velocity":127,"measure":98,"beat":2.0,"subject_pos":-1,"motif":"","motif_pos":-1,"best_pos":5,"similarity":0.364,"stretto":false,"stretto_voices":0,"combination":[]},{"voice":2,"pitch":53,"start":233.4,"duration":0.3,"velocity":127,"measure":98,"beat":2.0,"subject_pos":-1,"motif":"","motif_pos":-1,"best_pos":5,"similarity":0.471,"stretto":false,"stretto_voices":0,"combination":[]},{"voice":2,"pitch":53,"start":233.7,"duration":0.3,"velocity":127,"measure":98,"beat":2.5,"subject_pos":-1,"motif":"","motif_pos":-1,"best_pos":6,"similarity":0.375,"stretto":false,"stretto_voices":0,"combination":[]},{"voice":0,"pitch":79,"start":234.0,"duration":1.5,"velocity":127,"measure":98,"beat":3.0,"subject_pos":-1,"motif":"","motif_pos":-1,"best_pos":1,"similarity":0.479,"stretto":false,"stretto_voices":0,"combination":[]},{"voice":1,"pitch":71,"start":234.0,"duration":0.6,"velocity":127,"measure":98,"beat":3.0,"subject_pos":-1,"motif":"","motif_pos":-1,"best_pos":5,"similarity":0.586,"stretto":false,"stretto_voices":0,"combination":[]},{"voice":2,"pitch":53,"start":234.0,"duration":0.3,"velocity":127,"measure":98,"beat":3.0,"subject_pos":-1,"motif":"","motif_pos":-1,"best_pos":2,"similarity":0.407,"stretto":false,"stretto_voices":0,"combination":[]},{"voice":2,"pitch":50,"start":234.3,"duration":0.3,"velocity":127,"measure":98,"beat":3.5,"subject_pos":-1,"motif":"","motif_pos":-1,"best_pos":5,"similarity":0.464,"stretto":false,"stretto_voices":0,"combination":[]},{"voice":1,"pitch":73,"start":234.6,"duration":0.6,"velocity":127,"measure":98,"beat":4.0,"subject_pos":-1,"motif":"enigmatic_cell","motif_pos":0,"best_pos":0,"similarity":1.0,"stretto":false,"stretto_voices":0,"combination":[]},{"voice":2,"pitch":52,"start":234.6,"duration":0.3,"velocity":127,"measure":98,"beat":4.0,"subject_pos":-1,"motif":"","motif_pos":-1,"best_pos":6,"similarity":0.479,"stretto":false,"stretto_voices":0,"combination":[]},{"voice":2,"pitch":52,"start":234.9,"duration":0.3,"velocity":127,"measure":98,"beat":4.5,"subject_pos":-1,"motif":"","motif_pos":-1,"best_pos":1,"similarity":0.293,"stretto":false,"stretto_voices":0,"combination":[]},{"voice":1,"pitch":74,"start":235.2,"duration":0.6,"velocity":127,"measure":99,"beat":1.0,"subject_pos":-1,"motif":"enigmatic_cell","motif_pos":1,"best_pos":1,"similarity":1.0,"stretto":false,"stretto_voices":0,"combination":[]},{"voice":2,"pitch":50,"start":235.2,"duration":0.6,"velocity":127,"measure":99,"beat":1.0,"subject_pos":-1,"motif":"","motif_pos":-1,"best_pos":2,"similarity":0.336,"stretto":false,"stretto_voices":0,"combination":[]},{"voice":0,"pitch":76,"start":235.5,"duration":0.3,"velocity":127,"measure":99,"beat":1.5,"subject_pos":-1,"motif":"","motif_pos":-1,"best_pos":3,"similarity":0.454,"stretto":false,"stretto_voices":0,"combination":[]},{"voice":0,"pitch":77,"start":235.8,"duration":0.3,"velocity":127,"measure":99,"beat":2.0,"subject_pos":-1,"motif":"","motif_pos":-1,"best_pos":5,"similarity":0.464,"stretto":false,"stretto_voices":0,"combination":[]},{"voice":1,"pitch":69,"start":235.8,"duration":0.9,"velocity":127,"measure":99,"beat":2.0,"subject_pos":-1,"motif":"enigmatic_cell","motif_pos":2,"best_pos":2,"similarity":1.0,"stretto":false,"stretto_voices":0,"combination":[]},{"voice":2,"pitch":62,"start":235.8,"duration":0.6,"velocity":127,"measure":99,"beat":2.0,"subject_pos":0,"motif":"subject_inv","motif_pos":0,"best_pos":0,"similarity":1.0,"stretto":false,"stretto_voices":0,"combination":[]},{"voice":0,"pitch":77,"start":236.1,"duration":0.3,"velocity":127,"measure":99,"beat":2.5,"subject_pos":-1,"motif":"","motif_pos":-1,"best_pos":6,"similarity":0.375,"stretto":false,"stretto_voices":0,"combination":[]},{"voice":0,"pitch":77,"start":236.4,"duration":1.5,"velocity":127,"measure":99,"beat":3.0,"subject_pos":-1,"motif":"enigmatic_cell","motif_pos":0,"best_pos":0,"similarity":1.0,"stretto":false,"stretto_voices":0,"combination":[]},{"voice":2,"pitch":57,"start":236.4,"duration":0.6,"velocity":127,"measure":99,"beat":3.0,"subject_pos":1,"motif":"subject_inv","motif_pos":1,"best_pos":1,"similarity":1.0,"stretto":false,"stretto_voices":0,"combination":[]},{"voice":1,"pitch":65,"start":236.7,"duration":0.3,"velocity":127,"measure":99,"beat":3.5,"subject_pos":-1,"motif":"","motif_pos":-1,"best_pos":2,"similarity":0.393,"stretto":false,"stretto_voices":0,"combination":[]},{"voice":1,"pitch":67,"start":237.0,"duration":0.3,"velocity":127,"measure":99,"beat":4.0,"subject_pos":-1,"motif":"","motif_pos":-1,"best_pos":6,"similarity":0.436,"stretto":false,"stretto_voices":0,"combination":[]},{"voice":2,"pitch":59,"start":237.0,"duration":0.6,"velocity":127,"measure":99,"beat":4.0,"subject_pos":2,"motif":"subject_inv","motif_pos":2,"best_pos":2,"similarity":1.0,"stretto":false,"stretto_voices":0,"combination":[]},{"voice":1,"pitch":67,"start":237.3,"duration":0.3,"velocity":127,"measure":99,"beat":4.5,"subject_pos":-1,"motif":"","motif_pos":-1,"best_pos":4,"similarity":0.357,"stretto":false,"stretto_voices":0,"combination":[]},{"voice":1,"pitch":67,"start":237.6,"duration":0.6,"velocity":127,"measure":100,"beat":1.0,"subject_pos":-1,"motif":"","motif_pos":-1,"best_pos":2,"similarity":0.375,"stretto":false,"stretto_voices":0,"combination":[]},{"voice":0,"pitch":76,"start":237.9,"duration":0.3,"velocity":127,"measure":100,"beat":1.5,"subject_pos":-1,"motif":"enigmatic_cell","motif_pos":1,"best_pos":1,"similarity":1.0,"stretto":false,"stretto_voices":0,"combination":[]},{"voice":0,"pitch":81,"start":238.2,"duration":0.3,"velocity":127,"measure":100,"beat":2.0,"subject_pos":-1,"motif":"enigmatic_cell","motif_pos":2,"best_pos":2,"similarity":1.0,"stretto":false,"stretto_voices":0,"combination":[]},{"voice":1,"pitch":64,"start":238.2,"duration":0.6,"velocity":127,"measure":100,"beat":2.0,"subject_pos":-1,"motif":"","motif_pos":-1,"best_pos":3,"similarity":0.364,"stretto":false,"stretto_voices":0,"combination":[]},{"voice":2,"pitch":60,"start":238.2,"duration":0.6,"velocity":127,"measure":100,"beat":2.0,"subject_pos":3,"motif":"subject_inv","motif_pos":3,"best_pos":3,"similarity":1.0,"stretto":false,"stretto_voices":0,"combination":[]},{"voice":0,"pitch":81,"start":238.5,"duration":0.3,"velocity":127,"measure":100,"beat":2.5,"subject_pos":-1,"motif":"","motif_pos":-1,"best_pos":2,"similarity":0.457,"stretto":false,"stretto_voices":0,"combination":[]},{"voice":0,"pitch":81,"start":238.8,"duration":0.6,"velocity":127,"measure":100,"beat":3.0,"subject_pos":-1,"motif":"","motif_pos":-1,"best_pos":3,"similarity":0.564,"stretto":false,"stretto_voices":0,"combination":[]},{"voice":2,"pitch":62,"start":238.8,"duration":0.6,"velocity":127,"measure":100,"beat":3.0,"subject_pos":4,"motif":"subject_inv","motif_pos":4,"best_pos":4,"similarity":1.0,"stretto":false,"stretto_voices":0,"combination":[]},{"voice":1,"pitch":77,"start":239.1,"duration":0.3,"velocity":127,"measure":100,"beat":3.5,"subject_pos":-1,"motif":"","motif_pos":-1,"best_pos":3,"similarity":0.379,"stretto":false,"stretto_voices":0,"combination":[]},{"voice":0,"pitch":80,"start":239.4,"duration":0.6,"velocity":127,"measure":100,"beat":4.0,"subject_pos":-1,"motif":"enigmatic_cell","motif_pos":0,"best_pos":0,"similarity":1.0,"stretto":false,"stretto_voices":0,"combination":[]},{"voice":1,"pitch":76,"start":239.4,"duration":0.3,"velocity":127,"measure":100,"beat":4.0,"subject_pos":-1,"motif":"","motif_pos":-1,"best_pos":1,"similarity":0.429,"stretto":false,"stretto_voices":0,"combination":[]},{"voice":2,"pitch":64,"start":239.4,"duration":0.6,"velocity":127,"measure":100,"beat":4.0,"subject_pos":5,"motif":"subject_inv","motif_pos":5,"best_pos":5,"similarity":1.0,"stretto":false,"stretto_voices":0,"combination":[]},{"voice":1,"pitch":74,"start":239.7,"duration":0.3,"velocity":127,"measure":100,"beat":4.5,"subject_pos":-1,"motif":"","motif_pos":-1,"best_pos":2,"similarity":0.579,"stretto":false,"stretto_voices":0,"combination":[]},{"voice":0,"pitch":81,"start":240.0,"duration":0.6,"velocity":127,"measure":101,"beat":1.0,"subject_pos":-1,"motif":"enigmatic_cell","motif_pos":1,"best_pos":1,"similarity":1.0,"stretto":false,"stretto_voices":0,"combination":[]},{"voice":1,"pitch":72,"start":240.0,"duration":0.3,"velocity":127,"measure":101,"beat":1.0,"subject_pos":-1,"motif":"","motif_pos":-1,"best_pos":3,"similarity":0.604,"stretto":false,"stretto_voices":0,"combination":[]},{"voice":1,"pitch":71,"start":240.3,"duration":0.3,"velocity":127,"measure":101,"beat":1.5,"subject_pos":-1,"motif":"","motif_pos":-1,"best_pos":4,"similarity":0.511,"stretto":false,"stretto_voices":0,"combination":[]},{"voice":0,"pitch":74,"start":240.6,"duration":0.3,"velocity":127,"measure":101,"beat":2.0,"subject_pos":-1,"motif":"enigmatic_cell","motif_pos":2,"best_pos":2,"similarity":1.0,"stretto":false,"stretto_voices":0,"combination":[]},{"voice":1,"pitch":69,"start":240.6,"duration":0.9,"velocity":127,"measure":101,"beat":2.0,"subject_pos":-1,"motif":"","motif_pos":-1,"best_pos":2,"similarity":0.529,"stretto":false,"stretto_voices":0,"combination":[]},{"voice":2,"pitch":65,"start":240.6,"duration":0.6,"velocity":127,"measure":101,"beat":2.0,"subject_pos":6,"motif":"subject_inv","motif_pos":6,"best_pos":6,"similarity":1.0,"stretto":false,"stretto_voices":0,"combination":[]},{"voice":0,"pitch":71,"start":240.9,"duration":0.3,"velocity":127,"measure":101,"beat":2.5,"subject_pos":-1,"motif":"","motif_pos":-1,"best_pos":3,"similarity":0.421,"stretto":false,"stretto_voices":0,"combination":[]},{"voice":0,"pitch":72,"start":241.2,"duration":0.6,"velocity":127,"measure":101,"beat":3.0,"subject_pos":-1,"motif":"","motif_pos":-1,"best_pos":3,"similarity":0.4,"stretto":false,"stretto_voices":0,"combination":[]},{"voice":2,"pitch":64,"start":241.2,"duration":0.6,"velocity":127,"measure":101,"beat":3.0,"subject_pos":7,"motif":"subject_inv","motif_pos":7,"best_pos":7,"similarity":1.0,"stretto":false,"stretto_voices":0,"combination":[]},{"voice":1,"pitch":69,"start":241.5,"duration":0.6,"velocity":127,"measure":101,"beat":3.5,"subject_pos":-1,"motif":"","motif_pos":-1,"best_pos":3,"similarity":0.6,"stretto":false,"stretto_voices":0,"combination":[]},{"voice":0,"pitch":71,"start":241.8,"duration":0.6,"velocity":127,"measure":101,"beat":4.0,"subject_pos":-1,"motif":"","motif_pos":-1,"best_pos":4,"similarity":0.371,"stretto":false,"stretto_voices":0,"combination":[]},{"voice":2,"pitch":62,"start":241.8,"duration":0.6,"velocity":127,"measure":101,"beat":4.0,"subject_pos":8,"motif":"subject_inv","motif_pos":8,"best_pos":0,"similarity":1.0,"stretto":false,"stretto_voices":0,"combination":[]},{"voice":1,"pitch":68,"start":242.1,"duration":0.3,"velocity":127,"measure":101,"beat":4.5,"subject_pos":-1,"motif":"enigmatic_cell","motif_pos":0,"best_pos":0,"similarity":1.0,"stretto":false,"stretto_voices":0,"combination":[]},{"voice":0,"pitch":69,"start":242.4,"duration":0.6,"velocity":127,"measure":102,"beat":1.0,"subject_pos":-1,"motif":"","motif_pos":-1,"best_pos":2,"similarity":0.357,"stretto":false,"stretto_voices":0,"combination":[]},{"voice":1,"pitch":69,"start":242.4,"duration":0.3,"velocity":127,"measure":102,"beat":1.0,"subject_pos":-1,"motif":"enigmatic_cell","motif_pos":1,"best_pos":1,"similarity":1.0,"stretto":false,"stretto_voices":0,"combination":[]},{"voice":1,"pitch":64,"start":242.7,"duration":0.3,"velocity":127,"measure":102,"beat":1.5,"subject_pos":-1,"motif":"enigmatic_cell","motif_pos":2,"best_pos":2,"similarity":1.0,"stretto":false,"stretto_voices":0,"combination":[]},{"voice":1,"pitch":69,"start":243.0,"duration":0.3,"velocity":127,"measure":102,"beat":2.0,"subject_pos":-1,"motif":"","motif_pos":-1,"best_pos":3,"similarity":0.543,"stretto":false,"stretto_voices":0,"combination":[]},{"voice":2,"pitch":60,"start":243.0,"duration":0.3,"velocity":127,"measure":102,"beat":2.0,"subject_pos":-1,"motif":"","motif_pos":-1,"best_pos":3,"similarity":0.786,"stretto":false,"stretto_voices":0,"combination":[]},{"voice":1,"pitch":68,"start":243.3,"duration":0.3,"velocity":127,"measure":102,"beat":2.5,"subject_pos":-1,"motif":"","motif_pos":-1,"best_pos":4,"similarity":0.696,"stretto":false,"stretto_voices":0,"combination":[]},{"voice":2,"pitch":59,"start":243.3,"duration":0.3,"velocity":127,"measure":102,"beat":2.5,"subject_pos":-1,"motif":"","motif_pos":-1,"best_pos":4,"similarity":0.893,"stretto":false,"stretto_voices":0,"combination":[]},{"voice":1,"pitch":69,"start":243.6,"duration":0.3,"velocity":127,"measure":102,"beat":3.0,"subject_pos":-1,"motif":"","motif_pos":-1,"best_pos":5,"similarity":0.607,"stretto":false,"stretto_voices":0,"combination":[]},{"voice":2,"pitch":60,"start":243.6,"duration":0.6,"velocity":127,"measure":102,"beat":3.0,"subject_pos":-1,"motif":"","motif_pos":-1,"best_pos":5,"similarity":0.821,"stretto":false,"stretto_voices":0,"combination":[]},{"voice":1,"pitch":72,"start":243.9,"duration":0.3,"velocity":127,"measure":102,"beat":3.5,"subject_pos":-1,"motif":"","motif_pos":-1,"best_pos":6,"similarity":0.429,"stretto":false,"stretto_voices":0,"combination":[]},{"voice":1,"pitch":71,"start":244.2,"duration":0.3,"velocity":127,"measure":102,"beat":4.0,"subject_pos":-1,"motif":"","motif_pos":-1,"best_pos":4,"similarity":0.386,"stretto":false,"stretto_voices":0,"combination":[]},{"voice":2,"pitch":62,"start":244.2,"duration":0.6,"velocity":127,"measure":102,"beat":4.0,"subject_pos":-1,"motif":"","motif_pos":-1,"best_pos":6,"similarity":0.643,"stretto":false,"stretto_voices":0,"combination":[]},{"voice":1,"pitch":74,"start":244.5,"duration":0.3,"velocity":127,"measure":102,"beat":4.5,"subject_pos":-1,"motif":"","motif_pos":-1,"best_pos":1,"similarity":0.357,"stretto":false,"stretto_voices":0,"combination":[]},{"voice":1,"pitch":72,"start":244.8,"duration":0.3,"velocity":127,"measure":103,"beat":1.0,"subject_pos":-1,"motif":"","motif_pos":-1,"best_pos":2,"similarity":0.329,"stretto":false,"stretto_voices":0,"combination":[]},{"voice":2,"pitch":64,"start":244.8,"duration":3.0,"velocity":127,"measure":103,"beat":1.0,"subject_pos":-1,"motif":"","motif_pos":-1,"best_pos":6,"similarity":0.375,"stretto":false,"stretto_voices":0,"combination":[]},{"voice":1,"pitch":76,"start":245.1,"duration":0.3,"velocity":127,"measure":103,"beat":1.5,"subject_pos":-1,"motif":"","motif_pos":-1,"best_pos":1,"similarity":0.207,"stretto":false,"stretto_voices":0,"combination":[]},{"voice":0,"pitch":84,"start":245.4,"duration":0.3,"velocity":127,"measure":103,"beat":2.0,"subject_pos":-1,"motif":"","motif_pos":-1,"best_pos":2,"similarity":0.307,"stretto":false,"stretto_voices":0,"combination":[]},{"voice":1,"pitch":69,"start":245.4,"duration":0.6,"velocity":127,"measure":103,"beat":2.0,"subject_pos":-1,"motif":"","motif_pos":-1,"best_pos":0,"similarity":0.446,"stretto":false,"stretto_voices":0,"combination":[]},{"voice":0,"pitch":81,"start":245.7,"duration":0.3,"velocity":127,"measure":103,"beat":2.5,"subject_pos":-1,"motif":"","motif_pos":-1,"best_pos":3,"similarity":0.364,"stretto":false,"stretto_voices":0,"combination":[]},{"voice":0,"pitch":83,"start":246.0,"duration":0.3,"velocity":127,"measure":103,"beat":3.0,"subject_pos":-1,"motif":"","motif_pos":-1,"best_pos":2,"similarity":0.357,"stretto":false,"stretto_voices":0,"combination":[]},{"voice":1,"pitch":74,"start":246.0,"duration":0.6,"velocity":127,"measure":103,"beat":3.0,"subject_pos":-1,"motif":"","motif_pos":-1,"best_pos":1,"similarity":0.614,"stretto":false,"stretto_voices":0,"combination":[]},{"voice":0,"pitch":80,"start":246.3,"duration":0.3,"velocity":127,"measure":103,"beat":3.5,"subject_pos":-1,"motif":"","motif_pos":-1,"best_pos":3,"similarity":0.457,"stretto":false,"stretto_voices":0,"combination":[]},{"voice":0,"pitch":81,"start":246.6,"duration":0.3,"velocity":127,"measure":103,"beat":4.0,"subject_pos":-1,"motif":"","motif_pos":-1,"best_pos":4,"similarity":0.393,"stretto":false,"stretto_voices":0,"combination":[]},{"voice":1,"pitch":72,"start":246.6,"duration":0.6,"velocity":127,"measure":103,"beat":4.0,"subject_pos":-1,"motif":"","motif_pos":-1,"best_pos":2,"similarity":0.521,"stretto":false,"stretto_voices":0,"combination":[]},{"voice":0,"pitch":78,"start":246.9,"duration":0.3,"velocity":127,"measure":103,"beat":4.5,"subject_pos":-1,"motif":"","motif_pos":-1,"best_pos":5,"similarity":0.421,"stretto":false,"stretto_voices":0,"combination":[]},{"voice":0,"pitch":80,"start":247.2,"duration":0.3,"velocity":127,"measure":104,"beat":1.0,"subject_pos":-1,"motif":"","motif_pos":-1,"best_pos":1,"similarity":0.329,"stretto":false,"stretto_voices":0,"combination":[]},{"voice":1,"pitch":71,"start":247.2,"duration":0.6,"velocity":127,"measure":104,"beat":1.0,"subject_pos":-1,"motif":"","motif_pos":-1,"best_pos":4,"similarity":0.5,"stretto":false,"stretto_voices":0,"combination":[]},{"voice":0,"pitch":76,"start":247.5,"duration":0.3,"velocity":127,"measure":104,"beat":1.5,"subject_pos":-1,"motif":"","motif_pos":-1,"best_pos":3,"similarity":0.371,"stretto":false,"stretto_voices":0,"combination":[]},{"voice":1,"pitch":74,"start":247.8,"duration":0.3,"velocity":127,"measure":104,"beat":2.0,"subject_pos":-1,"motif":"","motif_pos":-1,"best_pos":5,"similarity":0.393,"stretto":false,"stretto_voices":0,"combination":[]},{"voice":2,"pitch":56,"start":247.8,"duration":0.3,"velocity":127,"measure":104,"beat":2.0,"subject_pos":-1,"motif":"","motif_pos":-1,"best_pos":7,"similarity":0.179,"stretto":false,"stretto_voices":0,"combination":[]},{"voice":1,"pitch":71,"start":248.1,"duration":0.3,"velocity":127,"measure":104,"beat":2.5,"subject_pos":-1,"motif":"","motif_pos":-1,"best_pos":3,"similarity":0.443,"stretto":false,"stretto_voices":0,"combination":[]},{"voice":2,"pitch":65,"start":248.1,"duration":0.3,"velocity":127,"measure":104,"beat":2.5,"subject_pos":-1,"motif":"","motif_pos":-1,"best_pos":1,"similarity":0.107,"stretto":false,"stretto_voices":0,"combination":[]},{"voice":1,"pitch":72,"start":248.4,"duration":0.3,"velocity":127,"measure":104,"beat":3.0,"subject_pos":-1,"motif":"","motif_pos":-1,"best_pos":4,"similarity":0.393,"stretto":false,"stretto_voices":0,"combination":[]},{"voice":2,"pitch":57,"start":248.4,"duration":0.3,"velocity":127,"measure":104,"beat":3.0,"subject_pos":-1,"motif":"","motif_pos":-1,"best_pos":0,"similarity":0.357,"stretto":false,"stretto_voices":0,"combination":[]},{"voice":1,"pitch":69,"start":248.7,"duration":0.3,"velocity":127,"measure":104,"beat":3.5,"subject_pos":-1,"motif":"","motif_pos":-1,"best_pos":5,"similarity":0.436,"stretto":false,"stretto_voices":0,"combination":[]},{"voice":2,"pitch":64,"start":248.7,"duration":0.3,"velocity":127,"measure":104,"beat":3.5,"subject_pos":-1,"motif":"","motif_pos":-1,"best_pos":1,"similarity":0.464,"stretto":false,"stretto_voices":0,"combination":[]},{"voice":1,"pitch":71,"start":249.0,"duration":0.3,"velocity":127,"measure":104,"beat":4.0,"subject_pos":-1,"motif":"","motif_pos":-1,"best_pos":2,"similarity":0.357,"stretto":false,"stretto_voices":0,"combination":[]},{"voice":2,"pitch":59,"start":249.0,"duration":0.3,"velocity":127,"measure":104,"beat":4.0,"subject_pos":-1,"motif":"","motif_pos":-1,"best_pos":2,"similarity":0.375,"stretto":false,"stretto_voices":0,"combination":[]},{"voice":1,"pitch":68,"start":249.3,"duration":0.3,"velocity":127,"measure":104,"beat":4.5,"subject_pos":-1,"motif":"","motif_pos":-1,"best_pos":4,"similarity":0.425,"stretto":false,"stretto_voices":0,"combination":[]},{"voice":2,"pitch":62,"start":249.3,"duration":0.3,"velocity":127,"measure":104,"beat":4.5,"subject_pos":-1,"motif":"","motif_pos":-1,"best_pos":1,"similarity":0.411,"stretto":false,"stretto_voices":0,"combination":[]},{"voice":1,"pitch":69,"start":249.6,"duration":0.9,"velocity":127,"measure":105,"beat":1.0,"subject_pos":-1,"motif":"","motif_pos":-1,"best_pos":1,"similarity":0.421,"stretto":false,"stretto_voices":0,"combination":[]},{"voice":2,"pitch":60,"start":249.6,"duration":0.3,"velocity":127,"measure":105,"beat":1.0,"subject_pos":-1,"motif":"","motif_pos":-1,"best_pos":3,"similarity":0.579,"stretto":false,"stretto_voices":0,"combination":[]},{"voice":2,"pitch":59,"start":249.9,"duration":0.3,"velocity":127,"measure":105,"beat":1.5,"subject_pos":-1,"motif":"tail_inv","motif_pos":0,"best_pos":0,"similarity":1.0,"stretto":false,"stretto_voices":0,"combination":[]},{"voice":0,"pitch":76,"start":250.2,"duration":0.6,"velocity":127,"measure":105,"beat":2.0,"subject_pos":0,"motif":"subject_inv","motif_pos":0,"best_pos":0,"similarity":1.0,"stretto":false,"stretto_voices":0,"combination":[]},{"voice":2,"pitch":60,"start":250.2,"duration":0.9,"velocity":127,"measure":105,"beat":2.0,"subject_pos":-1,"motif":"tail_inv","motif_pos":1,"best_pos":1,"similarity":1.0,"stretto":false,"stretto_voices":0,"combination":[]},{"voice":1,"pitch":67,"start":250.5,"duration":0.3,"velocity":127,"measure":105,"beat":2.5,"subject_pos":-1,"motif":"","motif_pos":-1,"best_pos":2,"similarity":0.521,"stretto":false,"stretto_voices":0,"combination":[]},{"voice":0,"pitch":69,"start":250.8,"duration":0.6,"velocity":127,"measure":105,"beat":3.0,"subject_pos":1,"motif":"subject_inv","motif_pos":1,"best_pos":1,"similarity":1.0,"stretto":false,"stretto_voices":0,"combination":[]},{"voice":1,"pitch":66,"start":250.8,"duration":0.6,"velocity":127,"measure":105,"beat":3.0,"subject_pos":-1,"motif":"","motif_pos":-1,"best_pos":3,"similarity":0.593,"stretto":false,"stretto_voices":0,"combination":[]},{"voice":2,"pitch":59,"start":251.1,"duration":0.3,"velocity":127,"measure":105,"beat":3.5,"subject_pos":-1,"motif":"tail_inv","motif_pos":2,"best_pos":2,"similarity":1.0,"stretto":false,"stretto_voices":0,"combination":[]},{"voice":0,"pitch":71,"start":251.4,"duration":0.6,"velocity":127,"measure":105,"beat":4.0,"subject_pos":2,"motif":"subject_inv","motif_pos":2,"best_pos":2,"similarity":1.0,"stretto":false,"stretto_voices":0,"combination":[]},{"voice":1,"pitch":65,"start":251.4,"duration":0.9,"velocity":127,"measure":105,"beat":4.0,"subject_pos":-1,"motif":"","motif_pos":-1,"best_pos":4,"similarity":0.571,"stretto":false,"stretto_voices":0,"combination":[]},{"voice":2,"pitch":57,"start":251.4,"duration":0.3,"velocity":127,"measure":105,"beat":4.0,"subject_pos":-1,"motif":"tail_inv","motif_pos":3,"best_pos":3,"similarity":1.0,"stretto":false,"stretto_voices":0,"combination":[]},{"voice":2,"pitch":56,"start":251.7,"duration":0.3,"velocity":127,"measure":105,"beat":4.5,"subject_pos":-1,"motif":"tail_inv","motif_pos":4,"best_pos":4,"similarity":1.0,"stretto":false,"stretto_voices":0,"combination":[]},{"voice":2,"pitch":57,"start":252.0,"duration":0.9,"velocity":127,"measure":106,"beat":1.0,"subject_pos":-1,"motif":"","motif_pos":-1,"best_pos":5,"similarity":0.507,"stretto":false,"stretto_voices":0,"combination":[]},{"voice":1,"pitch":62,"start":252.3,"duration":0.3,"velocity":127,"measure":106,"beat":1.5,"subject_pos":-1,"motif":"","motif_pos":-1,"best_pos":5,"similarity":0.489,"stretto":false,"stretto_voices":0,"combination":[]},{"voice":0,"pitch":72,"start":252.6,"duration":0.6,"velocity":127,"measure":106,"beat":2.0,"subject_pos":3,"motif":"subject_inv","motif_pos":3,"best_pos":3,"similarity":1.0,"stretto":false,"stretto_voices":0,"combination":[]},{"voice":1,"pitch":64,"start":252.6,"duration":0.6,"velocity":127,"measure":106,"beat":2.0,"subject_pos":-1,"motif":"","motif_pos":-1,"best_pos":6,"similarity":0.4,"stretto":false,"stretto_voices":0,"combination":[]},{"voice":2,"pitch":55,"start":252.9,"duration":0.3,"velocity":127,"measure":106,"beat":2.5,"subject_pos":-1,"motif":"","motif_pos":-1,"best_pos":2,"similarity":0.593,"stretto":false,"stretto_voices":0,"combination":[]},{"voice":0,"pitch":74,"start":253.2,"duration":0.6,"velocity":127,"measure":106,"beat":3.0,"subject_pos":4,"motif":"subject_inv","motif_pos":4,"best_pos":4,"similarity":1.0,"stretto":false,"stretto_voices":0,"combination":[]},{"voice":2,"pitch":53,"start":253.2,"duration":0.3,"velocity":127,"measure":106,"beat":3.0,"subject_pos":-1,"motif":"","motif_pos":-1,"best_pos":3,"similarity":0.6,"stretto":false,"stretto_voices":0,"combination":[]},{"voice":2,"pitch":52,"start":253.5,"duration":0.3,"velocity":127,"measure":106,"beat":3.5,"subject_pos":-1,"motif":"","motif_pos":-1,"best_pos":4,"similarity":0.489,"stretto":false,"stretto_voices":0,"combination":[]},{"voice":0,"pitch":76,"start":253.8,"duration":0.6,"velocity":127,"measure":106,"beat":4.0,"subject_pos":5,"motif":"subject_inv","motif_pos":5,"best_pos":5,"similarity":1.0,"stretto":false,"stretto_voices":0,"combination":[]},{"voice":1,"pitch":69,"start":253.8,"duration":0.9,"velocity":127,"measure":106,"beat":4.0,"subject_pos":-1,"motif":"enigmatic_cell","motif_pos":0,"best_pos":0,"similarity":1.0,"stretto":false,"stretto_voices":0,"combination":[]},{"voice":2,"pitch":50,"start":253.8,"duration":0.3,"velocity":127,"measure":106,"beat":4.0,"subject_pos":-1,"motif":"","motif_pos":-1,"best_pos":2,"similarity":0.571,"stretto":false,"stretto_voices":0,"combination":[]},{"voice":2,"pitch":48,"start":254.1,"duration":0.3,"velocity":127,"measure":106,"beat":4.5,"subject_pos":-1,"motif":"","motif_pos":-1,"best_pos":3,"similarity":0.643,"stretto":false,"stretto_voices":0,"combination":[]},{"voice":2,"pitch":47,"start":254.4,"duration":0.6,"velocity":127,"measure":107,"beat":1.0,"subject_pos":-1,"motif":"head_inv","motif_pos":0,"best_pos":0,"similarity":1.0,"stretto":false,"stretto_voices":0,"combination":[]},{"voice":1,"pitch":68,"start":254.7,"duration":0.3,"velocity":127,"measure":107,"beat":1.5,"subject_pos":-1,"motif":"enigmatic_cell","motif_pos":1,"best_pos":1,"similarity":1.0,"stretto":false,"stretto_voices":0,"combination":[]},{"voice":0,"pitch":77,"start":255.0,"duration":0.6,"velocity":127,"measure":107,"beat":2.0,"subject_pos":6,"motif":"subject_inv","motif_pos":6,"best_pos":6,"similarity":1.0,"stretto":false,"stretto_voices":0,"combination":[]},{"voice":1,"pitch":74,"start":255.0,"duration":0.3,"velocity":127,"measure":107,"beat":2.0,"subject_pos":-1,"motif":"enigmatic_cell","motif_pos":2,"best_pos":2,"similarity":1.0,"stretto":false,"stretto_voices":0,"combination":[]},{"voice":2,"pitch":40,"start":255.0,"duration":0.6,"velocity":127,"measure":107,"beat":2.0,"subject_pos":-1,"motif":"head_inv","motif_pos":1,"best_pos":1,"similarity":1.0,"stretto":false,"stretto_voices":0,"combination":[]},{"voice":1,"pitch":68,"start":255.3,"duration":0.3,"velocity":127,"measure":107,"beat":2.5,"subject_pos":-1,"motif":"","motif_pos":-1,"best_pos":4,"similarity":0.411,"stretto":false,"stretto_voices":0,"combination":[]},{"voice":0,"pitch":76,"start":255.6,"duration":0.6,"velocity":127,"measure":107,"beat":3.0,"subject_pos":7,"motif":"subject_inv","motif_pos":7,"best_pos":7,"similarity":1.0,"stretto":false,"stretto_voices":0,"combination":[]},{"voice":1,"pitch":69,"start":255.6,"duration":0.3,"velocity":127,"measure":107,"beat":3.0,"subject_pos":-1,"motif":"","motif_pos":-1,"best_pos":5,"similarity":0.464,"stretto":false,"stretto_voices":0,"combination":[]},{"voice":2,"pitch":42,"start":255.6,"duration":0.6,"velocity":127,"measure":107,"beat":3.0,"subject_pos":-1,"motif":"head_inv","motif_pos":2,"best_pos":2,"similarity":1.0,"stretto":false,"stretto_voices":0,"combination":[]},{"voice":1,"pitch":72,"start":255.9,"duration":0.3,"velocity":127,"measure":107,"beat":3.5,"subject_pos":-1,"motif":"","motif_pos":-1,"best_pos":6,"similarity":0.357,"stretto":false,"stretto_voices":0,"combination":[]},{"voice":0,"pitch":74,"start":256.2,"duration":0.6,"velocity":127,"measure":107,"beat":4.0,"subject_pos":8,"motif":"subject_inv","motif_pos":8,"best_pos":0,"similarity":1.0,"stretto":false,"stretto_voices":0,"combination":[]},{"voice":1,"pitch":71,"start":256.2,"duration":0.3,"velocity":127,"measure":107,"beat":4.0,"subject_pos":-1,"motif":"","motif_pos":-1,"best_pos":2,"similarity":0.368,"stretto":false,"stretto_voices":0,"combination":[]},{"voice":2,"pitch":44,"start":256.2,"duration":0.6,"velocity":127,"measure":107,"beat":4.0,"subject_pos":-1,"motif":"head_inv","motif_pos":3,"best_pos":3,"similarity":1.0,"stretto":false,"stretto_voices":0,"combination":[]},{"voice":1,"pitch":65,"start":256.5,"duration":0.3,"velocity":127,"measure":107,"beat":4.5,"subject_pos":-1,"motif":"","motif_pos":-1,"best_pos":3,"similarity":0.475,"stretto":false,"stretto_voices":0,"combination":[]},{"voice":1,"pitch":64,"start":256.8,"duration":0.3,"velocity":127,"measure":108,"beat":1.0,"subject_pos":-1,"motif":"","motif_pos":-1,"best_pos":3,"similarity":0.554,"stretto":false,"stretto_voices":0,"combination":[]},{"voice":2,"pitch":45,"start":256.8,"duration":0.9,"velocity":127,"measure":108,"beat":1.0,"subject_pos":-1,"motif":"head_inv","motif_pos":4,"best_pos":4,"similarity":1.0,"stretto":false,"stretto_voices":0,"combination":[]},{"voice":1,"pitch":63,"start":257.1,"duration":0.3,"velocity":127,"measure":108,"beat":1.5,"subject_pos":-1,"motif":"","motif_pos":-1,"best_pos":4,"similarity":0.668,"stretto":false,"stretto_voices":0,"combination":[]},{"voice":0,"pitch":72,"start":257.4,"duration":0.3,"velocity":127,"measure":108,"beat":2.0,"subject_pos":-1,"motif":"","motif_pos":-1,"best_pos":3,"similarity":0.786,"stretto":false,"stretto_voices":0,"combination":[]},{"voice":1,"pitch":64,"start":257.4,"duration":0.6,"velocity":127,"measure":108,"beat":2.0,"subject_pos":-1,"motif":"","motif_pos":-1,"best_pos":5,"similarity":0.532,"stretto":false,"stretto_voices":0,"combination":[]},{"voice":0,"pitch":71,"start":257.7,"duration":0.3,"velocity":127,"measure":108,"beat":2.5,"subject_pos":-1,"motif":"","motif_pos":-1,"best_pos":4,"similarity":0.893,"stretto":false,"stretto_voices":0,"combination":[]},{"voice":2,"pitch":44,"start":257.7,"duration":0.3,"velocity":127,"measure":108,"beat":2.5,"subject_pos":-1,"motif":"","motif_pos":-1,"best_pos":4,"similarity":0.682,"stretto":false,"stretto_voices":0,"combination":[]},{"voice":0,"pitch":72,"start":258.0,"duration":0.6,"velocity":127,"measure":108,"beat":3.0,"subject_pos":-1,"motif":"","motif_pos":-1,"best_pos":5,"similarity":0.821,"stretto":false,"stretto_voices":0,"combination":[]},{"voice":2,"pitch":45,"start":258.0,"duration":0.3,"velocity":127,"measure":108,"beat":3.0,"subject_pos":-1,"motif":"","motif_pos":-1,"best_pos":5,"similarity":0.614,"stretto":false,"stretto_voices":0,"combination":[]},{"voice":2,"pitch":48,"start":258.3,"duration":0.3,"velocity":127,"measure":108,"beat":3.5,"subject_pos":-1,"motif":"","motif_pos":-1,"best_pos":6,"similarity":0.429,"stretto":false,"stretto_voices":0,"combination":[]},{"voice":0,"pitch":74,"start":258.6,"duration":0.6,"velocity":127,"measure":108,"beat":4.0,"subject_pos":-1,"motif":"","motif_pos":-1,"best_pos":6,"similarity":0.643,"stretto":false,"stretto_voices":0,"combination":[]},{"voice":2,"pitch":47,"start":258.6,"duration":0.3,"velocity":127,"measure":108,"beat":4.0,"subject_pos":-1,"motif":"","motif_pos":-1,"best_pos":4,"similarity":0.45,"stretto":false,"stretto_voices":0,"combination":[]},{"voice":2,"pitch":50,"start":258.9,"duration":0.3,"velocity":127,"measure":108,"beat":4.5,"subject_pos":-1,"motif":"","motif_pos":-1,"best_pos":3,"similarity":0.411,"stretto":false,"stretto_voices":0,"combination":[]},{"voice":0,"pitch":76,"start":259.2,"duration":2.7,"velocity":127,"measure":109,"beat":1.0,"subject_pos":-1,"motif":"","motif_pos":-1,"best_pos":6,"similarity":0.375,"stretto":false,"stretto_voices":0,"combination":[]},{"voice":2,"pitch":48,"start":259.2,"duration":1.2,"velocity":127,"measure":109,"beat":1.0,"subject_pos":-1,"motif":"","motif_pos":-1,"best_pos":4,"similarity":0.536,"stretto":false,"stretto_voices":0,"combination":[]},{"voice":1,"pitch":64,"start":259.5,"duration":0.3,"velocity":127,"measure":109,"beat":1.5,"subject_pos":-1,"motif":"","motif_pos":-1,"best_pos":6,"similarity":0.314,"stretto":false,"stretto_voices":0,"combination":[]},{"voice":1,"pitch":68,"start":259.8,"duration":0.3,"velocity":127,"measure":109,"beat":2.0,"subject_pos":-1,"motif":"","motif_pos":-1,"best_pos":0,"similarity":0.286,"stretto":false,"stretto_voices":0,"combination":[]},{"voice":1,"pitch":71,"start":260.1,"duration":0.3,"velocity":127,"measure":109,"beat":2.5,"subject_pos":-1,"motif":"","motif_pos":-1,"best_pos":1,"similarity":0.518,"stretto":false,"stretto_voices":0,"combination":[]},{"voice":1,"pitch":69,"start":260.4,"duration":0.3,"velocity":127,"measure":109,"beat":3.0,"subject_pos":-1,"motif":"","motif_pos":-1,"best_pos":2,"similarity":0.65,"stretto":false,"stretto_voices":0,"combination":[]},{"voice":1,"pitch":66,"start":260.7,"duration":0.3,"velocity":127,"measure":109,"beat":3.5,"subject_pos":-1,"motif":"","motif_pos":-1,"best_pos":3,"similarity":0.568,"stretto":false,"stretto_voices":0,"combination":[]},{"voice":1,"pitch":67,"start":261.0,"duration":0.3,"velocity":127,"measure":109,"beat":4.0,"subject_pos":-1,"motif":"","motif_pos":-1,"best_pos":5,"similarity":0.5,"stretto":false,"stretto_voices":0,"combination":[]},{"voice":2,"pitch":49,"start":261.0,"duration":0.6,"velocity":127,"measure":109,"beat":4.0,"subject_pos":-1,"motif":"enigmatic_cell","motif_pos":0,"best_pos":0,"similarity":1.0,"stretto":false,"stretto_voices":0,"combination":[]},{"voice":1,"pitch":64,"start":261.3,"duration":0.3,"velocity":127,"measure":109,"beat":4.5,"subject_pos":-1,"motif":"","motif_pos":-1,"best_pos":3,"similarity":0.55,"stretto":false,"stretto_voices":0,"combination":[]},{"voice":1,"pitch":65,"start":261.6,"duration":0.6,"velocity":127,"measure":110,"beat":1.0,"subject_pos":-1,"motif":"","motif_pos":-1,"best_pos":5,"similarity":0.614,"stretto":false,"stretto_voices":0,"combination":[]},{"voice":2,"pitch":50,"start":261.6,"duration":0.6,"velocity":127,"measure":110,"beat":1.0,"subject_pos":-1,"motif":"enigmatic_cell","motif_pos":1,"best_pos":1,"similarity":1.0,"stretto":false,"stretto_voices":0,"combination":[]},{"voice":0,"pitch":69,"start":261.9,"duration":0.3,"velocity":127,"measure":110,"beat":1.5,"subject_pos":-1,"motif":"","motif_pos":-1,"best_pos":5,"similarity":0.193,"stretto":false,"stretto_voices":0,"combination":[]},{"voice":0,"pitch":72,"start":262.2,"duration":0.3,"velocity":127,"measure":110,"beat":2.0,"subject_pos":-1,"motif":"","motif_pos":-1,"best_pos":5,"similarity":0.25,"stretto":false,"stretto_voices":0,"combination":[]},{"voice":1,"pitch":66,"start":262.2,"duration":0.6,"velocity":127,"measure":110,"beat":2.0,"subject_pos":-1,"motif":"","motif_pos":-1,"best_pos":6,"similarity":0.589,"stretto":false,"stretto_voices":0,"combination":[]},{"voice":2,"pitch":45,"start":262.2,"duration":0.6,"velocity":127,"measure":110,"beat":2.0,"subject_pos":-1,"motif":"enigmatic_cell","motif_pos":2,"best_pos":2,"similarity":1.0,"stretto":false,"stretto_voices":0,"combination":[]},{"voice":0,"pitch":75,"start":262.5,"duration":0.3,"velocity":127,"measure":110,"beat":2.5,"subject_pos":-1,"motif":"","motif_pos":-1,"best_pos":3,"similarity":0.357,"stretto":false,"stretto_voices":0,"combination":[]},{"voice":0,"pitch":74,"start":262.8,"duration":0.3,"velocity":127,"measure":110,"beat":3.0,"subject_pos":-1,"motif":"","motif_pos":-1,"best_pos":4,"similarity":0.436,"stretto":false,"stretto_voices":0,"combination":[]},{"voice":1,"pitch":67,"start":262.8,"duration":0.9,"velocity":127,"measure":110,"beat":3.0,"subject_pos":-1,"motif":"","motif_pos":-1,"best_pos":5,"similarity":0.5,"stretto":false,"stretto_voices":0,"combination":[]},{"voice":2,"pitch":46,"start":262.8,"duration":0.6,"velocity":127,"measure":110,"beat":3.0,"subject_pos":-1,"motif":"","motif_pos":-1,"best_pos":5,"similarity":0.379,"stretto":false,"stretto_voices":0,"combination":[]},{"voice":0,"pitch":70,"start":263.1,"duration":0.3,"velocity":127,"measure":110,"beat":3.5,"subject_pos":-1,"motif":"","motif_pos":-1,"best_pos":5,"similarity":0.443,"stretto":false,"stretto_voices":0,"combination":[]},{"voice":0,"pitch":72,"start":263.4,"duration":0.3,"velocity":127,"measure":110,"beat":4.0,"subject_pos":-1,"motif":"","motif_pos":-1,"best_pos":6,"similarity":0.386,"stretto":false,"stretto_voices":0,"combination":[]},{"voice":2,"pitch":50,"start":263.4,"duration":0.6,"velocity":127,"measure":110,"beat":4.0,"subject_pos":-1,"motif":"","motif_pos":-1,"best_pos":6,"similarity":0.221,"stretto":false,"stretto_voices":0,"combination":[]},{"voice":0,"pitch":69,"start":263.7,"duration":0.3,"velocity":127,"measure":110,"beat":4.5,"subject_pos":-1,"motif":"","motif_pos":-1,"best_pos":4,"similarity":0.446,"stretto":false,"stretto_voices":0,"combination":[]},{"voice":1,"pitch":66,"start":263.7,"duration":0.3,"velocity":127,"measure":110,"beat":4.5,"subject_pos":-1,"motif":"","motif_pos":-1,"best_pos":4,"similarity":0.6,"stretto":false,"stretto_voices":0,"combination":[]},{"voice":0,"pitch":70,"start":264.0,"duration":0.6,"velocity":127,"measure":111,"beat":1.0,"subject_pos":-1,"motif":"","motif_pos":-1,"best_pos":5,"similarity":0.357,"stretto":false,"stretto_voices":0,"combination":[]},{"voice":1,"pitch":67,"start":264.0,"duration":0.6,"velocity":127,"measure":111,"beat":1.0,"subject_pos":-1,"motif":"","motif_pos":-1,"best_pos":0,"similarity":0.5,"stretto":false,"stretto_voices":0,"combination":[]},{"voice":2,"pitch":43,"start":264.0,"duration":0.3,"velocity":127,"measure":111,"beat":1.0,"subject_pos":-1,"motif":"","motif_pos":-1,"best_pos":0,"similarity":0.286,"stretto":false,"stretto_voices":0,"combination":[]},{"voice":2,"pitch":50,"start":264.3,"duration":0.3,"velocity":127,"measure":111,"beat":1.5,"subject_pos":-1,"motif":"","motif_pos":-1,"best_pos":1,"similarity":0.357,"stretto":false,"stretto_voices":0,"combination":[]},{"voice":2,"pitch":55,"start":264.6,"duration":0.3,"velocity":127,"measure":111,"beat":2.0,"subject_pos":-1,"motif":"","motif_pos":-1,"best_pos":1,"similarity":0.329,"stretto":false,"stretto_voices":0,"combination":[]},{"voice":0,"pitch":79,"start":264.9,"duration":0.3,"velocity":127,"measure":111,"beat":2.5,"subject_pos":-1,"motif":"","motif_pos":-1,"best_pos":3,"similarity":0.343,"stretto":false,"stretto_voices":0,"combination":[]},{"voice":1,"pitch":74,"start":264.9,"duration":0.3,"velocity":127,"measure":111,"beat":2.5,"subject_pos":-1,"motif":"","motif_pos":-1,"best_pos":1,"similarity":0.714,"stretto":false,"stretto_voices":0,"combination":[]},{"voice":2,"pitch":58,"start":264.9,"duration":0.3,"velocity":127,"measure":111,"beat":2.5,"subject_pos":-1,"motif":"bach","motif_pos":0,"best_pos":0,"similarity":1.0,"stretto":false,"stretto_voices":0,"combination":[]},{"voice":0,"pitch":78,"start":265.2,"duration":0.6,"velocity":127,"measure":111,"beat":3.0,"subject_pos":-1,"motif":"","motif_pos":-1,"best_pos":4,"similarity":0.396,"stretto":false,"stretto_voices":0,"combination":[]},{"voice":1,"pitch":72,"start":265.2,"duration":0.3,"velocity":127,"measure":111,"beat":3.0,"subject_pos":-1,"motif":"","motif_pos":-1,"best_pos":2,"similarity":0.714,"stretto":false,"stretto_voices":0,"combination":[]},{"voice":2,"pitch":57,"start":265.2,"duration":0.3,"velocity":127,"measure":111,"beat":3.0,"subject_pos":-1,"motif":"bach","motif_pos":1,"best_pos":1,"similarity":1.0,"stretto":false,"stretto_voices":0,"combination":[]},{"voice":1,"pitch":69,"start":265.5,"duration":0.3,"velocity":127,"measure":111,"beat":3.5,"subject_pos":-1,"motif":"","motif_pos":-1,"best_pos":3,"similarity":0.507,"stretto":false,"stretto_voices":0,"combination":[]},{"voice":2,"pitch":60,"start":265.5,"duration":0.3,"velocity":127,"measure":111,"beat":3.5,"subject_pos":-1,"motif":"bach","motif_pos":2,"best_pos":2,"similarity":1.0,"stretto":false,"stretto_voices":0,"combination":[]},{"voice":0,"pitch":77,"start":265.8,"duration":0.6,"velocity":127,"measure":111,"beat":4.0,"subject_pos":-1,"motif":"","motif_pos":-1,"best_pos":2,"similarity":0.436,"stretto":false,"stretto_voices":0,"combination":[]},{"voice":1,"pitch":74,"start":265.8,"duration":0.3,"velocity":127,"measure":111,"beat":4.0,"subject_pos":-1,"motif":"","motif_pos":-1,"best_pos":1,"similarity":0.411,"stretto":false,"stretto_voices":0,"combination":[]},{"voice":2,"pitch":59,"start":265.8,"duration":0.3,"velocity":127,"measure":111,"beat":4.0,"subject_pos":-1,"motif":"bach","motif_pos":3,"best_pos":3,"similarity":1.0,"stretto":false,"stretto_voices":0,"combination":[]},{"voice":1,"pitch":68,"start":266.1,"duration":0.3,"velocity":127,"measure":111,"beat":4.5,"subject_pos":-1,"motif":"","motif_pos":-1,"best_pos":3,"similarity":0.464,"stretto":false,"stretto_voices":0,"combination":[]},{"voice":2,"pitch":62,"start":266.1,"duration":0.3,"velocity":127,"measure":111,"beat":4.5,"subject_pos":-1,"motif":"","motif_pos":-1,"best_pos":5,"similarity":0.229,"stretto":false,"stretto_voices":0,"combination":[]},{"voice":1,"pitch":67,"start":266.4,"duration":0.6,"velocity":127,"measure":112,"beat":1.0,"subject_pos":-1,"motif":"","motif_pos":-1,"best_pos":4,"similarity":0.618,"stretto":false,"stretto_voices":0,"combination":[]},{"voice":2,"pitch":51,"start":266.4,"duration":0.3,"velocity":127,"measure":112,"beat":1.0,"subject_pos":-1,"motif":"","motif_pos":-1,"best_pos":0,"similarity":0.286,"stretto":false,"stretto_voices":0,"combination":[]},{"voice":0,"pitch":75,"start":266.7,"duration":0.3,"velocity":127,"measure":112,"beat":1.5,"subject_pos":-1,"motif":"","motif_pos":-1,"best_pos":3,"similarity":0.586,"stretto":false,"stretto_voices":0,"combination":[]},{"voice":2,"pitch":55,"start":266.7,"duration":0.3,"velocity":127,"measure":112,"beat":1.5,"subject_pos":-1,"motif":"","motif_pos":-1,"best_pos":1,"similarity":0.429,"stretto":false,"stretto_voices":0,"combination":[]},{"voice":0,"pitch":74,"start":267.0,"duration":0.3,"velocity":127,"measure":112,"beat":2.0,"subject_pos":-1,"motif":"","motif_pos":-1,"best_pos":4,"similarity":0.636,"stretto":false,"stretto_voices":0,"combination":[]},{"voice":1,"pitch":68,"start":267.0,"duration":0.9,"velocity":127,"measure":112,"beat":2.0,"subject_pos":-1,"motif":"","motif_pos":-1,"best_pos":5,"similarity":0.5,"stretto":false,"stretto_voices":0,"combination":[]},{"voice":2,"pitch":53,"start":267.0,"duration":0.3,"velocity":127,"measure":112,"beat":2.0,"subject_pos":-1,"motif":"","motif_pos":-1,"best_pos":2,"similarity":0.375,"stretto":false,"stretto_voices":0,"combination":[]},{"voice":0,"pitch":72,"start":267.3,"duration":0.3,"velocity":127,"measure":112,"beat":2.5,"subject_pos":-1,"motif":"","motif_pos":-1,"best_pos":5,"similarity":0.636,"stretto":false,"stretto_voices":0,"combination":[]},{"voice":2,"pitch":56,"start":267.3,"duration":0.3,"velocity":127,"measure":112,"beat":2.5,"subject_pos":-1,"motif":"","motif_pos":-1,"best_pos":3,"similarity":0.221,"stretto":false,"stretto_voices":0,"combination":[]},{"voice":0,"pitch":74,"start":267.6,"duration":0.6,"velocity":127,"measure":112,"beat":3.0,"subject_pos":-1,"motif":"","motif_pos":-1,"best_pos":6,"similarity":0.657,"stretto":false,"stretto_voices":0,"combination":[]},{"voice":2,"pitch":47,"start":267.6,"duration":0.3,"velocity":127,"measure":112,"beat":3.0,"subject_pos":-1,"motif":"","motif_pos":-1,"best_pos":0,"similarity":0.214,"stretto":false,"stretto_voices":0,"combination":[]},{"voice":1,"pitch":67,"start":267.9,"duration":0.3,"velocity":127,"measure":112,"beat":3.5,"subject_pos":-1,"motif":"tail","motif_pos":3,"best_pos":3,"similarity":1.0,"stretto":false,"stretto_voices":0,"combination":[]},{"voice":2,"pitch":50,"start":267.9,"duration":0.3,"velocity":127,"measure":112,"beat":3.5,"subject_pos":-1,"motif":"","motif_pos":-1,"best_pos":1,"similarity":0.357,"stretto":false,"stretto_voices":0,"combination":[]},{"voice":0,"pitch":75,"start":268.2,"duration":0.9,"velocity":127,"measure":112,"beat":4.0,"subject_pos":-1,"motif":"","motif_pos":-1,"best_pos":7,"similarity":0.436,"stretto":false,"stretto_voices":0,"combination":[]},{"voice":1,"pitch":66,"start":268.2,"duration":0.3,"velocity":127,"measure":112,"beat":4.0,"subject_pos":-1,"motif":"tail","motif_pos":4,"best_pos":4,"similarity":1.0,"stretto":false,"stretto_voices":0,"combination":[]},{"voice":2,"pitch":48,"start":268.2,"duration":0.3,"velocity":127,"measure":112,"beat":4.0,"subject_pos":-1,"motif":"","motif_pos":-1,"best_pos":2,"similarity":0.339,"stretto":false,"stretto_voices":0,"combination":[]},{"voice":1,"pitch":67,"start":268.5,"duration":0.3,"velocity":127,"measure":112,"beat":4.5,"subject_pos":-1,"motif":"tail","motif_pos":5,"best_pos":5,"similarity":1.0,"stretto":false,"stretto_voices":0,"combination":[]},{"voice":2,"pitch":51,"start":268.5,"duration":0.3,"velocity":127,"measure":112,"beat":4.5,"subject_pos":-1,"motif":"","motif_pos":-1,"best_pos":3,"similarity":0.204,"stretto":false,"stretto_voices":0,"combination":[]},{"voice":1,"pitch":69,"start":268.8,"duration":0.6,"velocity":127,"measure":113,"beat":1.0,"subject_pos":-1,"motif":"tail","motif_pos":6,"best_pos":6,"similarity":1.0,"stretto":false,"stretto_voices":0,"combination":[]},{"voice":2,"pitch":42,"start":268.8,"duration":0.3,"velocity":127,"measure":113,"beat":1.0,"subject_pos":-1,"motif":"","motif_pos":-1,"best_pos":0,"similarity":0.214,"stretto":false,"stretto_voices":0,"combination":[]},{"voice":0,"pitch":74,"start":269.1,"duration":0.3,"velocity":127,"measure":113,"beat":1.5,"subject_pos":-1,"motif":"","motif_pos":-1,"best_pos":3,"similarity":0.593,"stretto":false,"stretto_voices":0,"combination":[]},{"voice":2,"pitch":45,"start":269.1,"duration":0.3,"velocity":127,"measure":113,"beat":1.5,"subject_pos":-1,"motif":"","motif_pos":-1,"best_pos":1,"similarity":0.357,"stretto":false,"stretto_voices":0,"combination":[]},{"voice":0,"pitch":73,"start":269.4,"duration":0.3,"velocity":127,"measure":113,"beat":2.0,"subject_pos":-1,"motif":"","motif_pos":-1,"best_pos":4,"similarity":0.793,"stretto":false,"stretto_voices":0,"combination":[]},{"voice":1,"pitch":70,"start":269.4,"duration":0.6,"velocity":127,"measure":113,"beat":2.0,"subject_pos":-1,"motif":"tail","motif_pos":7,"best_pos":7,"similarity":1.0,"stretto":false,"stretto_voices":0,"combination":[]},{"voice":2,"pitch":43,"start":269.4,"duration":0.3,"velocity":127,"measure":113,"beat":2.0,"subject_pos":-1,"motif":"","motif_pos":-1,"best_pos":2,"similarity":0.393,"stretto":false,"stretto_voices":0,"combination":[]},{"voice":0,"pitch":74,"start":269.7,"duration":0.3,"velocity":127,"measure":113,"beat":2.5,"subject_pos":-1,"motif":"","motif_pos":-1,"best_pos":5,"similarity":0.804,"stretto":false,"stretto_voices":0,"combination":[]},{"voice":2,"pitch":46,"start":269.7,"duration":0.3,"velocity":127,"measure":113,"beat":2.5,"subject_pos":-1,"motif":"","motif_pos":-1,"best_pos":3,"similarity":0.304,"stretto":false,"stretto_voices":0,"combination":[]},{"voice":0,"pitch":76,"start":270.0,"duration":0.3,"velocity":127,"measure":113,"beat":3.0,"subject_pos":-1,"motif":"","motif_pos":-1,"best_pos":6,"similarity":0.643,"stretto":false,"stretto_voices":0,"combination":[]},{"voice":2,"pitch":37,"start":270.0,"duration":1.2,"velocity":127,"measure":113,"beat":3.0,"subject_pos":-1,"motif":"","motif_pos":-1,"best_pos":4,"similarity":0.393,"stretto":false,"stretto_voices":0,"combination":[]},{"voice":0,"pitch":78,"start":270.3,"duration":0.3,"velocity":127,"measure":113,"beat":3.5,"subject_pos":-1,"motif":"","motif_pos":-1,"best_pos":6,"similarity":0.661,"stretto":false,"stretto_voices":0,"combination":[]},{"voice":0,"pitch":79,"start":270.6,"duration":0.3,"velocity":127,"measure":113,"beat":4.0,"subject_pos":-1,"motif":"","motif_pos":-1,"best_pos":7,"similarity":0.464,"stretto":false,"stretto_voices":0,"combination":[]},{"voice":1,"pitch":70,"start":270.6,"duration":0.6,"velocity":127,"measure":113,"beat":4.0,"subject_pos":-1,"motif":"enigmatic_cell","motif_pos":0,"best_pos":0,"similarity":1.0,"stretto":false,"stretto_voices":0,"combination":[]},{"voice":0,"pitch":79,"start":270.9,"duration":0.3,"velocity":127,"measure":113,"beat":4.5,"subject_pos":-1,"motif":"","motif_pos":-1,"best_pos":4,"similarity":0.379,"stretto":false,"stretto_voices":0,"combination":[]},{"voice":0,"pitch":79,"start":271.2,"duration":0.3,"velocity":127,"measure":114,"beat":1.0,"subject_pos":-1,"motif":"","motif_pos":-1,"best_pos":2,"similarity":0.429,"stretto":false,"stretto_voices":0,"combination":[]},{"voice":1,"pitch":69,"start":271.2,"duration":0.6,"velocity":127,"measure":114,"beat":1.0,"subject_pos":-1,"motif":"enigmatic_cell","motif_pos":1,"best_pos":1,"similarity":1.0,"stretto":false,"stretto_voices":0,"combination":[]},{"voice":2,"pitch":38,"start":271.2,"duration":7.8,"velocity":127,"measure":114,"beat":1.0,"subject_pos":-1,"motif":"","motif_pos":-1,"best_pos":5,"similarity":0.357,"stretto":false,"stretto_voices":0,"combination":[]},{"voice":0,"pitch":76,"start":271.5,"duration":0.3,"velocity":127,"measure":114,"beat":1.5,"subject_pos":-1,"motif":"","motif_pos":-1,"best_pos":3,"similarity":0.482,"stretto":false,"stretto_voices":0,"combination":[]},{"voice":0,"pitch":77,"start":271.8,"duration":0.3,"velocity":127,"measure":114,"beat":2.0,"subject_pos":-1,"motif":"","motif_pos":-1,"best_pos":5,"similarity":0.471,"stretto":false,"stretto_voices":0,"combination":[]},{"voice":1,"pitch":74,"start":271.8,"duration":0.6,"velocity":127,"measure":114,"beat":2.0,"subject_pos":-1,"motif":"enigmatic_cell","motif_pos":2,"best_pos":2,"similarity":1.0,"stretto":false,"stretto_voices":0,"combination":[]},{"voice":0,"pitch":77,"start":272.1,"duration":0.3,"velocity":127,"measure":114,"beat":2.5,"subject_pos":-1,"motif":"","motif_pos":-1,"best_pos":4,"similarity":0.407,"stretto":false,"stretto_voices":0,"combination":[]},{"voice":0,"pitch":77,"start":272.4,"duration":0.3,"velocity":127,"measure":114,"beat":3.0,"subject_pos":-1,"motif":"","motif_pos":-1,"best_pos":2,"similarity":0.429,"stretto":false,"stretto_voices":0,"combination":[]},{"voice":1,"pitch":68,"start":272.4,"duration":0.6,"velocity":127,"measure":114,"beat":3.0,"subject_pos":-1,"motif":"","motif_pos":-1,"best_pos":2,"similarity":0.364,"stretto":false,"stretto_voices":0,"combination":[]},{"voice":0,"pitch":74,"start":272.7,"duration":0.3,"velocity":127,"measure":114,"beat":3.5,"subject_pos":-1,"motif":"","motif_pos":-1,"best_pos":3,"similarity":0.482,"stretto":false,"stretto_voices":0,"combination":[]},{"voice":0,"pitch":75,"start":273.0,"duration":0.3,"velocity":127,"measure":114,"beat":4.0,"subject_pos":-1,"motif":"","motif_pos":-1,"best_pos":5,"similarity":0.471,"stretto":false,"stretto_voices":0,"combination":[]},{"voice":1,"pitch":67,"start":273.0,"duration":0.6,"velocity":127,"measure":114,"beat":4.0,"subject_pos":-1,"motif":"","motif_pos":-1,"best_pos":4,"similarity":0.343,"stretto":false,"stretto_voices":0,"combination":[]},{"voice":0,"pitch":75,"start":273.3,"duration":0.3,"velocity":127,"measure":114,"beat":4.5,"subject_pos":-1,"motif":"","motif_pos":-1,"best_pos":4,"similarity":0.421,"stretto":false,"stretto_voices":0,"combination":[]},{"voice":0,"pitch":75,"start":273.6,"duration":0.3,"velocity":127,"measure":115,"beat":1.0,"subject_pos":-1,"motif":"","motif_pos":-1,"best_pos":5,"similarity":0.393,"stretto":false,"stretto_voices":0,"combination":[]},{"voice":1,"pitch":65,"start":273.6,"duration":0.6,"velocity":127,"measure":115,"beat":1.0,"subject_pos":-1,"motif":"","motif_pos":-1,"best_pos":0,"similarity":0.339,"stretto":false,"stretto_voices":0,"combination":[]},{"voice":0,"pitch":73,"start":273.9,"duration":0.3,"velocity":127,"measure":115,"beat":1.5,"subject_pos":-1,"motif":"","motif_pos":-1,"best_pos":4,"similarity":0.532,"stretto":false,"stretto_voices":0,"combination":[]},{"voice":0,"pitch":74,"start":274.2,"duration":0.3,"velocity":127,"measure":115,"beat":2.0,"subject_pos":-1,"motif":"","motif_pos":-1,"best_pos":5,"similarity":0.507,"stretto":false,"stretto_voices":0,"combination":[]},{"voice":1,"pitch":70,"start":274.2,"duration":0.6,"velocity":127,"measure":115,"beat":2.0,"subject_pos":-1,"motif":"","motif_pos":-1,"best_pos":1,"similarity":0.464,"stretto":false,"stretto_voices":0,"combination":[]},{"voice":0,"pitch":74,"start":274.5,"duration":0.3,"velocity":127,"measure":115,"beat":2.5,"subject_pos":-1,"motif":"","motif_pos":-1,"best_pos":4,"similarity":0.443,"stretto":false,"stretto_voices":0,"combination":[]},{"voice":0,"pitch":74,"start":274.8,"duration":0.3,"velocity":127,"measure":115,"beat":3.0,"subject_pos":-1,"motif":"","motif_pos":-1,"best_pos":2,"similarity":0.429,"stretto":false,"stretto_voices":0,"combination":[]},{"voice":1,"pitch":64,"start":274.8,"duration":0.6,"velocity":127,"measure":115,"beat":3.0,"subject_pos":-1,"motif":"","motif_pos":-1,"best_pos":2,"similarity":0.436,"stretto":false,"stretto_voices":0,"combination":[]},{"voice":0,"pitch":71,"start":275.1,"duration":0.3,"velocity":127,"measure":115,"beat":3.5,"subject_pos":-1,"motif":"","motif_pos":-1,"best_pos":3,"similarity":0.482,"stretto":false,"stretto_voices":0,"combination":[]},{"voice":0,"pitch":72,"start":275.4,"duration":0.3,"velocity":127,"measure":115,"beat":4.0,"subject_pos":-1,"motif":"","motif_pos":-1,"best_pos":5,"similarity":0.471,"stretto":false,"stretto_voices":0,"combination":[]},{"voice":1,"pitch":63,"start":275.4,"duration":0.6,"velocity":127,"measure":115,"beat":4.0,"subject_pos":-1,"motif":"enigmatic_cell","motif_pos":0,"best_pos":0,"similarity":1.0,"stretto":false,"stretto_voices":0,"combination":[]},{"voice":0,"pitch":72,"start":275.7,"duration":0.3,"velocity":127,"measure":115,"beat":4.5,"subject_pos":-1,"motif":"","motif_pos":-1,"best_pos":4,"similarity":0.407,"stretto":false,"stretto_voices":0,"combination":[]},{"voice":0,"pitch":72,"start":276.0,"duration":0.3,"velocity":127,"measure":116,"beat":1.0,"subject_pos":-1,"motif":"","motif_pos":-1,"best_pos":2,"similarity":0.429,"stretto":false,"stretto_voices":0,"combination":[]},{"voice":1,"pitch":62,"start":276.0,"duration":0.6,"velocity":127,"measure":116,"beat":1.0,"subject_pos":-1,"motif":"enigmatic_cell","motif_pos":1,"best_pos":1,"similarity":1.0,"stretto":false,"stretto_voices":0,"combination":[]},{"voice":0,"pitch":69,"start":276.3,"duration":0.3,"velocity":127,"measure":116,"beat":1.5,"subject_pos":-1,"motif":"","motif_pos":-1,"best_pos":3,"similarity":0.482,"stretto":false,"stretto_voices":0,"combination":[]},{"voice":0,"pitch":70,"start":276.6,"duration":0.3,"velocity":127,"measure":116,"beat":2.0,"subject_pos":-1,"motif":"","motif_pos":-1,"best_pos":5,"similarity":0.471,"stretto":false,"stretto_voices":0,"combination":[]},{"voice":1,"pitch":67,"start":276.6,"duration":0.6,"velocity":127,"measure":116,"beat":2.0,"subject_pos":-1,"motif":"enigmatic_cell","motif_pos":2,"best_pos":2,"similarity":1.0,"stretto":false,"stretto_voices":0,"combination":[]},{"voice":0,"pitch":70,"start":276.9,"duration":0.3,"velocity":127,"measure":116,"beat":2.5,"subject_pos":-1,"motif":"","motif_pos":-1,"best_pos":4,"similarity":0.407,"stretto":false,"stretto_voices":0,"combination":[]},{"voice":0,"pitch":70,"start":277.2,"duration":0.3,"velocity":127,"measure":116,"beat":3.0,"subject_pos":-1,"motif":"","motif_pos":-1,"best_pos":2,"similarity":0.429,"stretto":false,"stretto_voices":0,"combination":[]},{"voice":1,"pitch":61,"start":277.2,"duration":0.6,"velocity":127,"measure":116,"beat":3.0,"subject_pos":-1,"motif":"","motif_pos":-1,"best_pos":2,"similarity":0.446,"stretto":false,"stretto_voices":0,"combination":[]},{"voice":0,"pitch":67,"start":277.5,"duration":0.3,"velocity":127,"measure":116,"beat":3.5,"subject_pos":-1,"motif":"","motif_pos":-1,"best_pos":3,"similarity":0.482,"stretto":false,"stretto_voices":0,"combination":[]},{"voice":0,"pitch":68,"start":277.8,"duration":0.3,"velocity":127,"measure":116,"beat":4.0,"subject_pos":-1,"motif":"","motif_pos":-1,"best_pos":5,"similarity":0.471,"stretto":false,"stretto_voices":0,"combination":[]},{"voice":1,"pitch":60,"start":277.8,"duration":0.6,"velocity":127,"measure":116,"beat":4.0,"subject_pos":-1,"motif":"","motif_pos":-1,"best_pos":3,"similarity":0.507,"stretto":false,"stretto_voices":0,"combination":[]},{"voice":0,"pitch":68,"start":278.1,"duration":0.3,"velocity":127,"measure":116,"beat":4.5,"subject_pos":-1,"motif":"","motif_pos":-1,"best_pos":4,"similarity":0.421,"stretto":false,"stretto_voices":0,"combination":[]},{"voice":0,"pitch":68,"start":278.4,"duration":0.3,"velocity":127,"measure":117,"beat":1.0,"subject_pos":-1,"motif":"","motif_pos":-1,"best_pos":5,"similarity":0.393,"stretto":false,"stretto_voices":0,"combination":[]},{"voice":1,"pitch":59,"start":278.4,"duration":0.6,"velocity":127,"measure":117,"beat":1.0,"subject_pos":-1,"motif":"","motif_pos":-1,"best_pos":3,"similarity":0.471,"stretto":false,"stretto_voices":0,"combination":[]},{"voice":0,"pitch":66,"start":278.7,"duration":0.3,"velocity":127,"measure":117,"beat":1.5,"subject_pos":-1,"motif":"","motif_pos":-1,"best_pos":4,"similarity":0.546,"stretto":false,"stretto_voices":0,"combination":[]},{"voice":0,"pitch":67,"start":279.0,"duration":1.2,"velocity":127,"measure":117,"beat":2.0,"subject_pos":-1,"motif":"","motif_pos":-1,"best_pos":3,"similarity":0.607,"stretto":false,"stretto_voices":0,"combination":[]},{"voice":1,"pitch":58,"start":279.0,"duration":0.6,"velocity":127,"measure":117,"beat":2.0,"subject_pos":-1,"motif":"","motif_pos":-1,"best_pos":3,"similarity":0.443,"stretto":false,"stretto_voices":0,"combination":[]},{"voice":2,"pitch":50,"start":279.0,"duration":0.3,"velocity":127,"measure":117,"beat":2.0,"subject_pos":-1,"motif":"","motif_pos":-1,"best_pos":6,"similarity":0.286,"stretto":false,"stretto_voices":0,"combination":[]},{"voice":2,"pitch":50,"start":279.3,"duration":0.3,"velocity":127,"measure":117,"beat":2.5,"subject_pos":-1,"motif":"","motif_pos":-1,"best_pos":4,"similarity":0.364,"stretto":false,"stretto_voices":0,"combination":[]},{"voice":1,"pitch":57,"start":279.6,"duration":1.2,"velocity":127,"measure":117,"beat":3.0,"subject_pos":-1,"motif":"","motif_pos":-1,"best_pos":4,"similarity":0.421,"stretto":false,"stretto_voices":0,"combination":[]},{"voice":2,"pitch":50,"start":279.6,"duration":0.3,"velocity":127,"measure":117,"beat":3.0,"subject_pos":-1,"motif":"","motif_pos":-1,"best_pos":2,"similarity":0.429,"stretto":false,"stretto_voices":0,"combination":[]},{"voice":2,"pitch":47,"start":279.9,"duration":0.3,"velocity":127,"measure":117,"beat":3.5,"subject_pos":-1,"motif":"","motif_pos":-1,"best_pos":3,"similarity":0.482,"stretto":false,"stretto_voices":0,"combination":[]},{"voice":0,"pitch":66,"start":280.2,"duration":0.6,"velocity":127,"measure":117,"beat":4.0,"subject_pos":-1,"motif":"","motif_pos":-1,"best_pos":4,"similarity":0.743,"stretto":false,"stretto_voices":0,"combination":[]},{"voice":2,"pitch":48,"start":280.2,"duration":0.3,"velocity":127,"measure":117,"beat":4.0,"subject_pos":-1,"motif":"","motif_pos":-1,"best_pos":5,"similarity":0.471,"stretto":false,"stretto_voices":0,"combination":[]},{"voice":2,"pitch":48,"start":280.5,"duration":0.3,"velocity":127,"measure":117,"beat":4.5,"subject_pos":-1,"motif":"","motif_pos":-1,"best_pos":4,"similarity":0.407,"stretto":false,"stretto_voices":0,"combination":[]},{"voice":0,"pitch":67,"start":280.8,"duration":1.2,"velocity":127,"measure":118,"beat":1.0,"subject_pos":-1,"motif":"","motif_pos":-1,"best_pos":3,"similarity":0.607,"stretto":false,"stretto_voices":0,"combination":[]},{"voice":1,"pitch":55,"start":280.8,"duration":0.6,"velocity":127,"measure":118,"beat":1.0,"subject_pos":-1,"motif":"","motif_pos":-1,"best_pos":2,"similarity":0.393,"stretto":false,"stretto_voices":0,"combination":[]},{"voice":2,"pitch":48,"start":280.8,"duration":0.3,"velocity":127,"measure":118,"beat":1.0,"subject_pos":-1,"motif":"","motif_pos":-1,"best_pos":2,"similarity":0.4,"stretto":false,"stretto_voices":0,"combination":[]},{"voice":2,"pitch":45,"start":281.1,"duration":0.3,"velocity":127,"measure":118,"beat":1.5,"subject_pos":-1,"motif":"","motif_pos":-1,"best_pos":3,"similarity":0.407,"stretto":false,"stretto_voices":0,"combination":[]},{"voice":1,"pitch":62,"start":281.4,"duration":0.3,"velocity":127,"measure":118,"beat":2.0,"subject_pos":-1,"motif":"","motif_pos":-1,"best_pos":1,"similarity":0.379,"stretto":false,"stretto_voices":0,"combination":[]},{"voice":2,"pitch":46,"start":281.4,"duration":0.3,"velocity":127,"measure":118,"beat":2.0,"subject_pos":-1,"motif":"","motif_pos":-1,"best_pos":5,"similarity":0.329,"stretto":false,"stretto_voices":0,"combination":[]},{"voice":1,"pitch":62,"start":281.7,"duration":0.3,"velocity":127,"measure":118,"beat":2.5,"subject_pos":-1,"motif":"","motif_pos":-1,"best_pos":4,"similarity":0.393,"stretto":false,"stretto_voices":0,"combination":[]},{"voice":2,"pitch":43,"start":281.7,"duration":0.3,"velocity":127,"measure":118,"beat":2.5,"subject_pos":-1,"motif":"","motif_pos":-1,"best_pos":3,"similarity":0.307,"stretto":false,"stretto_voices":0,"combination":[]},{"voice":0,"pitch":66,"start":282.0,"duration":0.3,"velocity":127,"measure":118,"beat":3.0,"subject_pos":-1,"motif":"","motif_pos":-1,"best_pos":4,"similarity":0.771,"stretto":false,"stretto_voices":0,"combination":[]},{"voice":1,"pitch":62,"start":282.0,"duration":0.3,"velocity":127,"measure":118,"beat":3.0,"subject_pos":-1,"motif":"","motif_pos":-1,"best_pos":4,"similarity":0.336,"stretto":false,"stretto_voices":0,"combination":[]},{"voice":2,"pitch":50,"start":282.0,"duration":0.6,"velocity":127,"measure":118,"beat":3.0,"subject_pos":-1,"motif":"","motif_pos":-1,"best_pos":1,"similarity":0.293,"stretto":false,"stretto_voices":0,"combination":[]},{"voice":0,"pitch":67,"start":282.3,"duration":0.3,"velocity":127,"measure":118,"beat":3.5,"subject_pos":-1,"motif":"","motif_pos":-1,"best_pos":5,"similarity":0.736,"stretto":false,"stretto_voices":0,"combination":[]},{"voice":1,"pitch":58,"start":282.3,"duration":0.3,"velocity":127,"measure":118,"beat":3.5,"subject_pos":-1,"motif":"","motif_pos":-1,"best_pos":5,"similarity":0.436,"stretto":false,"stretto_voices":0,"combination":[]},{"voice":0,"pitch":69,"start":282.6,"duration":1.2,"velocity":127,"measure":118,"beat":4.0,"subject_pos":-1,"motif":"","motif_pos":-1,"best_pos":6,"similarity":0.529,"stretto":false,"stretto_voices":0,"combination":[]},{"voice":1,"pitch":60,"start":282.6,"duration":0.3,"velocity":127,"measure":118,"beat":4.0,"subject_pos":-1,"motif":"","motif_pos":-1,"best_pos":6,"similarity":0.464,"stretto":false,"stretto_voices":0,"combination":[]},{"voice":2,"pitch":38,"start":282.6,"duration":0.6,"velocity":127,"measure":118,"beat":4.0,"subject_pos":-1,"motif":"","motif_pos":-1,"best_pos":0,"similarity":0.307,"stretto":false,"stretto_voices":0,"combination":[]},{"voice":1,"pitch":60,"start":282.9,"duration":0.3,"velocity":127,"measure":118,"beat":4.5,"subject_pos":-1,"motif":"","motif_pos":-1,"best_pos":4,"similarity":0.429,"stretto":false,"stretto_voices":0,"combination":[]},{"voice":1,"pitch":60,"start":283.2,"duration":0.3,"velocity":127,"measure":119,"beat":1.0,"subject_pos":-1,"motif":"","motif_pos":-1,"best_pos":2,"similarity":0.429,"stretto":false,"stretto_voices":0,"combination":[]},{"voice":2,"pitch":43,"start":283.2,"duration":0.75,"velocity":127,"measure":119,"beat":1.0,"subject_pos":-1,"motif":"","motif_pos":-1,"best_pos":5,"similarity":0.457,"stretto":false,"stretto_voices":0,"combination":[]},{"voice":1,"pitch":57,"start":283.5,"duration":0.3,"velocity":127,"measure":119,"beat":1.5,"subject_pos":-1,"motif":"","motif_pos":-1,"best_pos":3,"similarity":0.471,"stretto":false,"stretto_voices":0,"combination":[]},{"voice":0,"pitch":67,"start":283.8,"duration":0.3,"velocity":127,"measure":119,"beat":2.0,"subject_pos":-1,"motif":"","motif_pos":-1,"best_pos":2,"similarity":0.407,"stretto":false,"stretto_voices":0,"combination":[]},{"voice":1,"pitch":58,"start":283.8,"duration":0.3,"velocity":127,"measure":119,"beat":2.0,"subject_pos":-1,"motif":"","motif_pos":-1,"best_pos":5,"similarity":0.436,"stretto":false,"stretto_voices":0,"combination":[]},{"voice":2,"pitch":45,"start":283.95,"duration":0.15,"velocity":127,"measure":119,"beat":2.25,"subject_pos":-1,"motif":"","motif_pos":-1,"best_pos":6,"similarity":0.586,"stretto":false,"stretto_voices":0,"combination":[]},{"voice":0,"pitch":67,"start":284.1,"duration":0.3,"velocity":127,"measure":119,"beat":2.5,"subject_pos":-1,"motif":"","motif_pos":-1,"best_pos":4,"similarity":0.436,"stretto":false,"stretto_voices":0,"combination":[]},{"voice":1,"pitch":58,"start":284.1,"duration":0.3,"velocity":127,"measure":119,"beat":2.5,"subject_pos":-1,"motif":"enigmatic_cell","motif_pos":0,"best_pos":0,"similarity":1.0,"stretto":false,"stretto_voices":0,"combination":[]},{"voice":2,"pitch":46,"start":284.1,"duration":0.15,"velocity":127,"measure":119,"beat":2.5,"subject_pos":-1,"motif":"","motif_pos":-1,"best_pos":5,"similarity":0.657,"stretto":false,"stretto_voices":0,"combination":[]},{"voice":2,"pitch":48,"start":284.25,"duration":0.15,"velocity":127,"measure":119,"beat":2.75,"subject_pos":-1,"motif":"","motif_pos":-1,"best_pos":6,"similarity":0.579,"stretto":false,"stretto_voices":0,"combination":[]},{"voice":0,"pitch":67,"start":284.4,"duration":0.3,"velocity":127,"measure":119,"beat":3.0,"subject_pos":-1,"motif":"","motif_pos":-1,"best_pos":2,"similarity":0.429,"stretto":false,"stretto_voices":0,"combination":[]},{"voice":1,"pitch":57,"start":284.4,"duration":0.6,"velocity":127,"measure":119,"beat":3.0,"subject_pos":-1,"motif":"enigmatic_cell","motif_pos":1,"best_pos":1,"similarity":1.0,"stretto":false,"stretto_voices":0,"combination":[]},{"voice":2,"pitch":50,"start":284.4,"duration":0.6,"velocity":127,"measure":119,"beat":3.0,"subject_pos":-1,"motif":"","motif_pos":-1,"best_pos":6,"similarity":0.404,"stretto":false,"stretto_voices":0,"combination":[]},{"voice":0,"pitch":64,"start":284.7,"duration":0.3,"velocity":127,"measure":119,"beat":3.5,"subject_pos":-1,"motif":"","motif_pos":-1,"best_pos":3,"similarity":0.471,"stretto":false,"stretto_voices":0,"combination":[]},{"voice":0,"pitch":65,"start":285.0,"duration":0.3,"velocity":127,"measure":119,"beat":4.0,"subject_pos":-1,"motif":"","motif_pos":-1,"best_pos":5,"similarity":0.414,"stretto":false,"stretto_voices":0,"combination":[]},{"voice":1,"pitch":62,"start":285.0,"duration":0.3,"velocity":127,"measure":119,"beat":4.0,"subject_pos":-1,"motif":"enigmatic_cell","motif_pos":2,"best_pos":2,"similarity":1.0,"stretto":false,"stretto_voices":0,"combination":[]},{"voice":2,"pitch":48,"start":285.0,"duration":0.15,"velocity":127,"measure":119,"beat":4.0,"subject_pos":-1,"motif":"","motif_pos":-1,"best_pos":3,"similarity":0.471,"stretto":false,"stretto_voices":0,"combination":[]},{"voice":2,"pitch":47,"start":285.15,"duration":0.15,"velocity":127,"measure":119,"beat":4.25,"subject_pos":-1,"motif":"","motif_pos":-1,"best_pos":4,"similarity":0.414,"stretto":false,"stretto_voices":0,"combination":[]},{"voice":0,"pitch":65,"start":285.3,"duration":0.3,"velocity":127,"measure":119,"beat":4.5,"subject_pos":-1,"motif":"","motif_pos":-1,"best_pos":1,"similarity":0.321,"stretto":false,"stretto_voices":0,"combination":[]},{"voice":1,"pitch":62,"start":285.3,"duration":0.3,"velocity":127,"measure":119,"beat":4.5,"subject_pos":-1,"motif":"","motif_pos":-1,"best_pos":4,"similarity":0.393,"stretto":false,"stretto_voices":0,"combination":[]},{"voice":2,"pitch":45,"start":285.3,"duration":0.15,"velocity":127,"measure":119,"beat":4.5,"subject_pos":-1,"motif":"","motif_pos":-1,"best_pos":2,"similarity":0.429,"stretto":false,"stretto_voices":0,"combination":[]},{"voice":2,"pitch":43,"start":285.45,"duration":0.15,"velocity":127,"measure":119,"beat":4.75,"subject_pos":-1,"motif":"","motif_pos":-1,"best_pos":0,"similarity":0.375,"stretto":false,"stretto_voices":0,"combination":[]},{"voice":0,"pitch":63,"start":285.6,"duration":0.6,"velocity":127,"measure":120,"beat":1.0,"subject_pos":-1,"motif":"","motif_pos":-1,"best_pos":2,"similarity":0.393,"stretto":false,"stretto_voices":0,"combination":[]},{"voice":1,"pitch":62,"start":285.6,"duration":0.3,"velocity":127,"measure":120,"beat":1.0,"subject_pos":-1,"motif":"","motif_pos":-1,"best_pos":2,"similarity":0.429,"stretto":false,"stretto_voices":0,"combination":[]},{"voice":2,"pitch":48,"start":285.6,"duration":0.6,"velocity":127,"measure":120,"beat":1.0,"subject_pos":-1,"motif":"","motif_pos":-1,"best_pos":1,"similarity":0.5,"stretto":false,"stretto_voices":0,"combination":[]},{"voice":1,"pitch":59,"start":285.9,"duration":0.3,"velocity":127,"measure":120,"beat":1.5,"subject_pos":-1,"motif":"","motif_pos":-1,"best_pos":3,"similarity":0.471,"stretto":false,"stretto_voices":0,"combination":[]},{"voice":0,"pitch":69,"start":286.2,"duration":0.3,"velocity":127,"measure":120,"beat":2.0,"subject_pos":-1,"motif":"","motif_pos":-1,"best_pos":3,"similarity":0.364,"stretto":false,"stretto_voices":0,"combination":[]},{"voice":1,"pitch":60,"start":286.2,"duration":0.3,"velocity":127,"measure":120,"beat":2.0,"subject_pos":-1,"motif":"","motif_pos":-1,"best_pos":5,"similarity":0.414,"stretto":false,"stretto_voices":0,"combination":[]},{"voice":2,"pitch":43,"start":286.2,"duration":0.15,"velocity":127,"measure":120,"beat":2.0,"subject_pos":-1,"motif":"","motif_pos":-1,"best_pos":2,"similarity":0.436,"stretto":false,"stretto_voices":0,"combination":[]},{"voice":2,"pitch":42,"start":286.35,"duration":0.15,"velocity":127,"measure":120,"beat":2.25,"subject_pos":-1,"motif":"","motif_pos":-1,"best_pos":3,"similarity":0.379,"stretto":false,"stretto_voices":0,"combination":[]},{"voice":0,"pitch":69,"start":286.5,"duration":0.3,"velocity":127,"measure":120,"beat":2.5,"subject_pos":-1,"motif":"","motif_pos":-1,"best_pos":4,"similarity":0.389,"stretto":false,"stretto_voices":0,"combination":[]},{"voice":1,"pitch":60,"start":286.5,"duration":0.3,"velocity":127,"measure":120,"beat":2.5,"subject_pos":-1,"motif":"","motif_pos":-1,"best_pos":1,"similarity":0.321,"stretto":false,"stretto_voices":0,"combination":[]},{"voice":2,"pitch":40,"start":286.5,"duration":0.15,"velocity":127,"measure":120,"beat":2.5,"subject_pos":-1,"motif":"","motif_pos":-1,"best_pos":2,"similarity":0.429,"stretto":false,"stretto_voices":0,"combination":[]},{"voice":2,"pitch":38,"start":286.65,"duration":0.15,"velocity":127,"measure":120,"beat":2.75,"subject_pos":-1,"motif":"","motif_pos":-1,"best_pos":0,"similarity":0.321,"stretto":false,"stretto_voices":0,"combination":[]},{"voice":0,"pitch":69,"start":286.8,"duration":0.3,"velocity":127,"measure":120,"beat":3.0,"subject_pos":-1,"motif":"","motif_pos":-1,"best_pos":1,"similarity":0.321,"stretto":false,"stretto_voices":0,"combination":[]},{"voice":1,"pitch":58,"start":286.8,"duration":0.6,"velocity":127,"measure":120,"beat":3.0,"subject_pos":-1,"motif":"","motif_pos":-1,"best_pos":2,"similarity":0.393,"stretto":false,"stretto_voices":0,"combination":[]},{"voice":2,"pitch":43,"start":286.8,"duration":0.6,"velocity":127,"measure":120,"beat":3.0,"subject_pos":-1,"motif":"","motif_pos":-1,"best_pos":1,"similarity":0.429,"stretto":false,"stretto_voices":0,"combination":[]},{"voice":0,"pitch":67,"start":287.1,"duration":0.3,"velocity":127,"measure":120,"beat":3.5,"subject_pos":-1,"motif":"","motif_pos":-1,"best_pos":2,"similarity":0.375,"stretto":false,"stretto_voices":0,"combination":[]},{"voice":0,"pitch":70,"start":287.4,"duration":0.3,"velocity":127,"measure":120,"beat":4.0,"subject_pos":-1,"motif":"","motif_pos":-1,"best_pos":6,"similarity":0.336,"stretto":false,"stretto_voices":0,"combination":[]},{"voice":1,"pitch":67,"start":287.4,"duration":0.3,"velocity":127,"measure":120,"beat":4.0,"subject_pos":-1,"motif":"","motif_pos":-1,"best_pos":3,"similarity":0.357,"stretto":false,"stretto_voices":0,"combination":[]},{"voice":2,"pitch":55,"start":287.4,"duration":0.15,"velocity":127,"measure":120,"beat":4.0,"subject_pos":-1,"motif":"","motif_pos":-1,"best_pos":2,"similarity":0.436,"stretto":false,"stretto_voices":0,"combination":[]},{"voice":2,"pitch":53,"start":287.55,"duration":0.15,"velocity":127,"measure":120,"beat":4.25,"subject_pos":-1,"motif":"","motif_pos":-1,"best_pos":3,"similarity":0.521,"stretto":false,"stretto_voices":0,"combination":[]},{"voice":0,"pitch":70,"start":287.7,"duration":0.3,"velocity":127,"measure":120,"beat":4.5,"subject_pos":-1,"motif":"enigmatic_cell","motif_pos":0,"best_pos":0,"similarity":1.0,"stretto":false,"stretto_voices":0,"combination":[]},{"voice":1,"pitch":67,"start":287.7,"duration":0.3,"velocity":127,"measure":120,"beat":4.5,"subject_pos":-1,"motif":"","motif_pos":-1,"best_pos":4,"similarity":0.429,"stretto":false,"stretto_voices":0,"combination":[]},{"voice":2,"pitch":52,"start":287.7,"duration":0.15,"velocity":127,"measure":120,"beat":4.5,"subject_pos":-1,"motif":"","motif_pos":-1,"best_pos":2,"similarity":0.5,"stretto":false,"stretto_voices":0,"combination":[]},{"voice":2,"pitch":50,"start":287.85,"duration":0.15,"velocity":127,"measure":120,"beat":4.75,"subject_pos":-1,"motif":"","motif_pos":-1,"best_pos":3,"similarity":0.65,"stretto":false,"stretto_voices":0,"combination":[]},{"voice":0,"pitch":69,"start":288.0,"duration":0.6,"velocity":127,"measure":121,"beat":1.0,"subject_pos":-1,"motif":"enigmatic_cell","motif_pos":1,"best_pos":1,"similarity":1.0,"stretto":false,"stretto_voices":0,"combination":[]},{"voice":1,"pitch":67,"start":288.0,"duration":0.3,"velocity":127,"measure":121,"beat":1.0,"subject_pos":-1,"motif":"","motif_pos":-1,"best_pos":2,"similarity":0.429,"stretto":false,"stretto_voices":0,"combination":[]},{"voice":2,"pitch":49,"start":288.0,"duration":0.6,"velocity":127,"measure":121,"beat":1.0,"subject_pos":-1,"motif":"","motif_pos":-1,"best_pos":4,"similarity":0.711,"stretto":false,"stretto_voices":0,"combination":[]},{"voice":1,"pitch":64,"start":288.3,"duration":0.3,"velocity":127,"measure":121,"beat":1.5,"subject_pos":-1,"motif":"","motif_pos":-1,"best_pos":3,"similarity":0.471,"stretto":false,"stretto_voices":0,"combination":[]},{"voice":0,"pitch":74,"start":288.6,"duration":0.3,"velocity":127,"measure":121,"beat":2.0,"subject_pos":-1,"motif":"enigmatic_cell","motif_pos":2,"best_pos":2,"similarity":1.0,"stretto":false,"stretto_voices":0,"combination":[]},{"voice":1,"pitch":65,"start":288.6,"duration":0.3,"velocity":127,"measure":121,"beat":2.0,"subject_pos":-1,"motif":"","motif_pos":-1,"best_pos":5,"similarity":0.436,"stretto":false,"stretto_voices":0,"combination":[]},{"voice":2,"pitch":50,"start":288.6,"duration":0.15,"velocity":127,"measure":121,"beat":2.0,"subject_pos":-1,"motif":"","motif_pos":-1,"best_pos":5,"similarity":0.529,"stretto":false,"stretto_voices":0,"combination":[]},{"voice":2,"pitch":48,"start":288.75,"duration":0.15,"velocity":127,"measure":121,"beat":2.25,"subject_pos":-1,"motif":"","motif_pos":-1,"best_pos":3,"similarity":0.464,"stretto":false,"stretto_voices":0,"combination":[]},{"voice":0,"pitch":74,"start":288.9,"duration":0.3,"velocity":127,"measure":121,"beat":2.5,"subject_pos":-1,"motif":"","motif_pos":-1,"best_pos":4,"similarity":0.393,"stretto":false,"stretto_voices":0,"combination":[]},{"voice":1,"pitch":65,"start":288.9,"duration":0.3,"velocity":127,"measure":121,"beat":2.5,"subject_pos":-1,"motif":"enigmatic_cell","motif_pos":0,"best_pos":0,"similarity":1.0,"stretto":false,"stretto_voices":0,"combination":[]},{"voice":2,"pitch":47,"start":288.9,"duration":0.15,"velocity":127,"measure":121,"beat":2.5,"subject_pos":-1,"motif":"","motif_pos":-1,"best_pos":2,"similarity":0.5,"stretto":false,"stretto_voices":0,"combination":[]},{"voice":2,"pitch":45,"start":289.05,"duration":0.15,"velocity":127,"measure":121,"beat":2.75,"subject_pos":-1,"motif":"","motif_pos":-1,"best_pos":3,"similarity":0.65,"stretto":false,"stretto_voices":0,"combination":[]},{"voice":0,"pitch":74,"start":289.2,"duration":0.3,"velocity":127,"measure":121,"beat":3.0,"subject_pos":-1,"motif":"","motif_pos":-1,"best_pos":2,"similarity":0.429,"stretto":false,"stretto_voices":0,"combination":[]},{"voice":1,"pitch":64,"start":289.2,"duration":0.6,"velocity":127,"measure":121,"beat":3.0,"subject_pos":-1,"motif":"enigmatic_cell","motif_pos":1,"best_pos":1,"similarity":1.0,"stretto":false,"stretto_voices":0,"combination":[]},{"voice":2,"pitch":44,"start":289.2,"duration":0.6,"velocity":127,"measure":121,"beat":3.0,"subject_pos":-1,"motif":"","motif_pos":-1,"best_pos":4,"similarity":0.7,"stretto":false,"stretto_voices":0,"combination":[]},{"voice":0,"pitch":71,"start":289.5,"duration":0.3,"velocity":127,"measure":121,"beat":3.5,"subject_pos":-1,"motif":"","motif_pos":-1,"best_pos":3,"similarity":0.471,"stretto":false,"stretto_voices":0,"combination":[]},{"voice":0,"pitch":72,"start":289.8,"duration":0.3,"velocity":127,"measure":121,"beat":4.0,"subject_pos":-1,"motif":"","motif_pos":-1,"best_pos":5,"similarity":0.436,"stretto":false,"stretto_voices":0,"combination":[]},{"voice":1,"pitch":69,"start":289.8,"duration":0.3,"velocity":127,"measure":121,"beat":4.0,"subject_pos":-1,"motif":"enigmatic_cell","motif_pos":2,"best_pos":2,"similarity":1.0,"stretto":false,"stretto_voices":0,"combination":[]},{"voice":2,"pitch":45,"start":289.8,"duration":0.15,"velocity":127,"measure":121,"beat":4.0,"subject_pos":-1,"motif":"","motif_pos":-1,"best_pos":5,"similarity":0.507,"stretto":false,"stretto_voices":0,"combination":[]},{"voice":2,"pitch":43,"start":289.95,"duration":0.15,"velocity":127,"measure":121,"beat":4.25,"subject_pos":-1,"motif":"","motif_pos":-1,"best_pos":2,"similarity":0.593,"stretto":false,"stretto_voices":0,"combination":[]},{"voice":0,"pitch":72,"start":290.1,"duration":0.3,"velocity":127,"measure":121,"beat":4.5,"subject_pos":-1,"motif":"enigmatic_cell","motif_pos":0,"best_pos":0,"similarity":1.0,"stretto":false,"stretto_voices":0,"combination":[]},{"voice":1,"pitch":69,"start":290.1,"duration":0.3,"velocity":127,"measure":121,"beat":4.5,"subject_pos":-1,"motif":"","motif_pos":-1,"best_pos":2,"similarity":0.404,"stretto":false,"stretto_voices":0,"combination":[]},{"voice":2,"pitch":41,"start":290.1,"duration":0.15,"velocity":127,"measure":121,"beat":4.5,"subject_pos":-1,"motif":"","motif_pos":-1,"best_pos":3,"similarity":0.6,"stretto":false,"stretto_voices":0,"combination":[]},{"voice":2,"pitch":40,"start":290.25,"duration":0.15,"velocity":127,"measure":121,"beat":4.75,"subject_pos":-1,"motif":"","motif_pos":-1,"best_pos":4,"similarity":0.507,"stretto":false,"stretto_voices":0,"combination":[]},{"voice":0,"pitch":71,"start":290.4,"duration":0.6,"velocity":127,"measure":122,"beat":1.0,"subject_pos":-1,"motif":"enigmatic_cell","motif_pos":1,"best_pos":1,"similarity":1.0,"stretto":false,"stretto_voices":0,"combination":[]},{"voice":1,"pitch":69,"start":290.4,"duration":0.3,"velocity":127,"measure":122,"beat":1.0,"subject_pos":-1,"motif":"","motif_pos":-1,"best_pos":3,"similarity":0.464,"stretto":false,"stretto_voices":0,"combination":[]},{"voice":2,"pitch":38,"start":290.4,"duration":0.6,"velocity":127,"measure":122,"beat":1.0,"subject_pos":-1,"motif":"","motif_pos":-1,"best_pos":3,"similarity":0.5,"stretto":false,"stretto_voices":0,"combination":[]},{"voice":1,"pitch":68,"start":290.7,"duration":0.3,"velocity":127,"measure":122,"beat":1.5,"subject_pos":-1,"motif":"","motif_pos":-1,"best_pos":4,"similarity":0.421,"stretto":false,"stretto_voices":0,"combination":[]},{"voice":0,"pitch":76,"start":291.0,"duration":0.6,"velocity":127,"measure":122,"beat":2.0,"subject_pos":-1,"motif":"enigmatic_cell","motif_pos":2,"best_pos":2,"similarity":1.0,"stretto":false,"stretto_voices":0,"combination":[]},{"voice":1,"pitch":71,"start":291.0,"duration":0.3,"velocity":127,"measure":122,"beat":2.0,"subject_pos":-1,"motif":"","motif_pos":-1,"best_pos":1,"similarity":0.429,"stretto":false,"stretto_voices":0,"combination":[]},{"voice":2,"pitch":36,"start":291.0,"duration":0.6,"velocity":127,"measure":122,"beat":2.0,"subject_pos":-1,"motif":"","motif_pos":-1,"best_pos":4,"similarity":0.607,"stretto":false,"stretto_voices":0,"combination":[]},{"voice":1,"pitch":69,"start":291.3,"duration":0.3,"velocity":127,"measure":122,"beat":2.5,"subject_pos":-1,"motif":"","motif_pos":-1,"best_pos":2,"similarity":0.482,"stretto":false,"stretto_voices":0,"combination":[]},{"voice":0,"pitch":78,"start":291.6,"duration":0.6,"velocity":127,"measure":122,"beat":3.0,"subject_pos":-1,"motif":"","motif_pos":-1,"best_pos":5,"similarity":0.589,"stretto":false,"stretto_voices":0,"combination":[]},{"voice":1,"pitch":72,"start":291.6,"duration":0.3,"velocity":127,"measure":122,"beat":3.0,"subject_pos":-1,"motif":"","motif_pos":-1,"best_pos":3,"similarity":0.489,"stretto":false,"stretto_voices":0,"combination":[]},{"voice":2,"pitch":38,"start":291.6,"duration":0.6,"velocity":127,"measure":122,"beat":3.0,"subject_pos":-1,"motif":"","motif_pos":-1,"best_pos":5,"similarity":0.679,"stretto":false,"stretto_voices":0,"combination":[]},{"voice":1,"pitch":71,"start":291.9,"duration":0.3,"velocity":127,"measure":122,"beat":3.5,"subject_pos":-1,"motif":"","motif_pos":-1,"best_pos":4,"similarity":0.45,"stretto":false,"stretto_voices":0,"combination":[]},{"voice":0,"pitch":80,"start":292.2,"duration":0.6,"velocity":127,"measure":122,"beat":4.0,"subject_pos":-1,"motif":"","motif_pos":-1,"best_pos":6,"similarity":0.643,"stretto":false,"stretto_voices":0,"combination":[]},{"voice":1,"pitch":74,"start":292.2,"duration":0.3,"velocity":127,"measure":122,"beat":4.0,"subject_pos":-1,"motif":"","motif_pos":-1,"best_pos":1,"similarity":0.393,"stretto":false,"stretto_voices":0,"combination":[]},{"voice":2,"pitch":40,"start":292.2,"duration":0.6,"velocity":127,"measure":122,"beat":4.0,"subject_pos":-1,"motif":"","motif_pos":-1,"best_pos":6,"similarity":0.679,"stretto":false,"stretto_voices":0,"combination":[]},{"voice":1,"pitch":72,"start":292.5,"duration":0.3,"velocity":127,"measure":122,"beat":4.5,"subject_pos":-1,"motif":"","motif_pos":-1,"best_pos":2,"similarity":0.411,"stretto":false,"stretto_voices":0,"combination":[]},{"voice":0,"pitch":81,"start":292.8,"duration":0.6,"velocity":127,"measure":123,"beat":1.0,"subject_pos":-1,"motif":"","motif_pos":-1,"best_pos":5,"similarity":0.586,"stretto":false,"stretto_voices":0,"combination":[]},{"voice":1,"pitch":76,"start":292.8,"duration":0.3,"velocity":127,"measure":123,"beat":1.0,"subject_pos":-1,"motif":"","motif_pos":-1,"best_pos":1,"similarity":0.5,"stretto":false,"stretto_voices":0,"combination":[]},{"voice":2,"pitch":41,"start":292.8,"duration":0.6,"velocity":127,"measure":123,"beat":1.0,"subject_pos":-1,"motif":"","motif_pos":-1,"best_pos":7,"similarity":0.464,"stretto":false,"stretto_voices":0,"combination":[]},{"voice":1,"pitch":74,"start":293.1,"duration":0.3,"velocity":127,"measure":123,"beat":1.5,"subject_pos":-1,"motif":"","motif_pos":-1,"best_pos":2,"similarity":0.507,"stretto":false,"stretto_voices":0,"combination":[]},{"voice":0,"pitch":83,"start":293.4,"duration":0.6,"velocity":127,"measure":123,"beat":2.0,"subject_pos":-1,"motif":"","motif_pos":-1,"best_pos":6,"similarity":0.436,"stretto":false,"stretto_voices":0,"combination":[]},{"voice":1,"pitch":77,"start":293.4,"duration":0.3,"velocity":127,"measure":123,"beat":2.0,"subject_pos":-1,"motif":"","motif_pos":-1,"best_pos":3,"similarity":0.486,"stretto":false,"stretto_voices":0,"combination":[]},{"voice":2,"pitch":38,"start":293.4,"duration":0.6,"velocity":127,"measure":123,"beat":2.0,"subject_pos":-1,"motif":"","motif_pos":-1,"best_pos":5,"similarity":0.35,"stretto":false,"stretto_voices":0,"combination":[]},{"voice":1,"pitch":76,"start":293.7,"duration":0.3,"velocity":127,"measure":123,"beat":2.5,"subject_pos":-1,"motif":"","motif_pos":-1,"best_pos":1,"similarity":0.429,"stretto":false,"stretto_voices":0,"combination":[]},{"voice":0,"pitch":76,"start":294.0,"duration":0.6,"velocity":127,"measure":123,"beat":3.0,"subject_pos":-1,"motif":"","motif_pos":-1,"best_pos":5,"similarity":0.236,"stretto":false,"stretto_voices":0,"combination":[]},{"voice":1,"pitch":74,"start":294.0,"duration":0.3,"velocity":127,"measure":123,"beat":3.0,"subject_pos":-1,"motif":"","motif_pos":-1,"best_pos":2,"similarity":0.643,"stretto":false,"stretto_voices":0,"combination":[]},{"voice":2,"pitch":40,"start":294.0,"duration":0.6,"velocity":127,"measure":123,"beat":3.0,"subject_pos":-1,"motif":"","motif_pos":-1,"best_pos":6,"similarity":0.318,"stretto":false,"stretto_voices":0,"combination":[]},{"voice":1,"pitch":72,"start":294.3,"duration":0.3,"velocity":127,"measure":123,"beat":3.5,"subject_pos":-1,"motif":"","motif_pos":-1,"best_pos":3,"similarity":0.714,"stretto":false,"stretto_voices":0,"combination":[]},{"voice":0,"pitch":80,"start":294.6,"duration":0.6,"velocity":127,"measure":123,"beat":4.0,"subject_pos":-1,"motif":"","motif_pos":-1,"best_pos":4,"similarity":0.379,"stretto":false,"stretto_voices":0,"combination":[]},{"voice":1,"pitch":71,"start":294.6,"duration":0.3,"velocity":127,"measure":123,"beat":4.0,"subject_pos":-1,"motif":"","motif_pos":-1,"best_pos":4,"similarity":0.714,"stretto":false,"stretto_voices":0,"combination":[]},{"voice":2,"pitch":52,"start":294.6,"duration":0.6,"velocity":127,"measure":123,"beat":4.0,"subject_pos":-1,"motif":"","motif_pos":-1,"best_pos":7,"similarity":0.15,"stretto":false,"stretto_voices":0,"combination":[]},{"voice":1,"pitch":72,"start":294.9,"duration":0.3,"velocity":127,"measure":123,"beat":4.5,"subject_pos":-1,"motif":"","motif_pos":-1,"best_pos":5,"similarity":0.464,"stretto":false,"stretto_voices":0,"combination":[]},{"voice":0,"pitch":81,"start":295.2,"duration":1.2,"velocity":127,"measure":124,"beat":1.0,"subject_pos":-1,"motif":"","motif_pos":-1,"best_pos":5,"similarity":0.436,"stretto":false,"stretto_voices":0,"combination":[]},{"voice":1,"pitch":69,"start":295.2,"duration":1.2,"velocity":127,"measure":124,"beat":1.0,"subject_pos":-1,"motif":"","motif_pos":-1,"best_pos":3,"similarity":0.321,"stretto":false,"stretto_voices":0,"combination":[]},{"voice":2,"pitch":45,"start":295.2,"duration":0.3,"velocity":127,"measure":124,"beat":1.0,"subject_pos":-1,"motif":"","motif_pos":-1,"best_pos":0,"similarity":0.293,"stretto":false,"stretto_voices":0,"combination":[]},{"voice":2,"pitch":52,"start":295.5,"duration":0.3,"velocity":127,"measure":124,"beat":1.5,"subject_pos":-1,"motif":"","motif_pos":-1,"best_pos":1,"similarity":0.336,"stretto":false,"stretto_voices":0,"combination":[]},{"voice":2,"pitch":57,"start":295.8,"duration":0.3,"velocity":127,"measure":124,"beat":2.0,"subject_pos":-1,"motif":"","motif_pos":-1,"best_pos":1,"similarity":0.379,"stretto":false,"stretto_voices":0,"combination":[]},{"voice":2,"pitch":57,"start":296.1,"duration":0.3,"velocity":127,"measure":124,"beat":2.5,"subject_pos":-1,"motif":"","motif_pos":-1,"best_pos":4,"similarity":0.321,"stretto":false,"stretto_voices":0,"combination":[]},{"voice":2,"pitch":57,"start":296.4,"duration":0.3,"velocity":127,"measure":124,"beat":3.0,"subject_pos":-1,"motif":"","motif_pos":-1,"best_pos":4,"similarity":0.336,"stretto":false,"stretto_voices":0,"combination":[]},{"voice":2,"pitch":53,"start":296.7,"duration":0.3,"velocity":127,"measure":124,"beat":3.5,"subject_pos":-1,"motif":"","motif_pos":-1,"best_pos":5,"similarity":0.436,"stretto":false,"stretto_voices":0,"combination":[]},{"voice":2,"pitch":55,"start":297.0,"duration":0.3,"velocity":127,"measure":124,"beat":4.0,"subject_pos":-1,"motif":"","motif_pos":-1,"best_pos":6,"similarity":0.464,"stretto":false,"stretto_voices":0,"combination":[]},{"voice":2,"pitch":55,"start":297.3,"duration":0.3,"velocity":127,"measure":124,"beat":4.5,"subject_pos":-1,"motif":"","motif_pos":-1,"best_pos":4,"similarity":0.429,"stretto":false,"stretto_voices":0,"combination":[]},{"voice":2,"pitch":55,"start":297.6,"duration":0.3,"velocity":127,"measure":125,"beat":1.0,"subject_pos":-1,"motif":"","motif_pos":-1,"best_pos":2,"similarity":0.429,"stretto":false,"stretto_voices":0,"combination":[]},{"voice":2,"pitch":52,"start":297.9,"duration":0.3,"velocity":127,"measure":125,"beat":1.5,"subject_pos":-1,"motif":"","motif_pos":-1,"best_pos":3,"similarity":0.482,"stretto":false,"stretto_voices":0,"combination":[]},{"voice":0,"pitch":81,"start":298.2,"duration":0.3,"velocity":127,"measure":125,"beat":2.0,"subject_pos":-1,"motif":"","motif_pos":-1,"best_pos":6,"similarity":0.357,"stretto":false,"stretto_voices":0,"combination":[]},{"voice":2,"pitch":53,"start":298.2,"duration":0.3,"velocity":127,"measure":125,"beat":2.0,"subject_pos":-1,"motif":"","motif_pos":-1,"best_pos":5,"similarity":0.471,"stretto":false,"stretto_voices":0,"combination":[]},{"voice":0,"pitch":81,"start":298.5,"duration":0.3,"velocity":127,"measure":125,"beat":2.5,"subject_pos":-1,"motif":"","motif_pos":-1,"best_pos":4,"similarity":0.343,"stretto":false,"stretto_voices":0,"combination":[]},{"voice":2,"pitch":53,"start":298.5,"duration":0.3,"velocity":127,"measure":125,"beat":2.5,"subject_pos":-1,"motif":"","motif_pos":-1,"best_pos":6,"similarity":0.375,"stretto":false,"stretto_voices":0,"combination":[]},{"voice":0,"pitch":81,"start":298.8,"duration":0.3,"velocity":127,"measure":125,"beat":3.0,"subject_pos":-1,"motif":"","motif_pos":-1,"best_pos":4,"similarity":0.354,"stretto":false,"stretto_voices":0,"combination":[]},{"voice":1,"pitch":62,"start":298.8,"duration":1.2,"velocity":127,"measure":125,"beat":3.0,"subject_pos":-1,"motif":"","motif_pos":-1,"best_pos":1,"similarity":0.286,"stretto":false,"stretto_voices":0,"combination":[]},{"voice":2,"pitch":53,"start":298.8,"duration":0.3,"velocity":127,"measure":125,"beat":3.0,"subject_pos":-1,"motif":"","motif_pos":-1,"best_pos":2,"similarity":0.375,"stretto":false,"stretto_voices":0,"combination":[]},{"voice":0,"pitch":77,"start":299.1,"duration":0.3,"velocity":127,"measure":125,"beat":3.5,"subject_pos":-1,"motif":"","motif_pos":-1,"best_pos":5,"similarity":0.436,"stretto":false,"stretto_voices":0,"combination":[]},{"voice":2,"pitch":50,"start":299.1,"duration":0.3,"velocity":127,"measure":125,"beat":3.5,"subject_pos":-1,"motif":"","motif_pos":-1,"best_pos":3,"similarity":0.364,"stretto":false,"stretto_voices":0,"combination":[]},{"voice":0,"pitch":79,"start":299.4,"duration":0.3,"velocity":127,"measure":125,"beat":4.0,"subject_pos":-1,"motif":"","motif_pos":-1,"best_pos":6,"similarity":0.464,"stretto":false,"stretto_voices":0,"combination":[]},{"voice":2,"pitch":58,"start":299.4,"duration":0.6,"velocity":127,"measure":125,"beat":4.0,"subject_pos":-1,"motif":"enigmatic_cell","motif_pos":0,"best_pos":0,"similarity":1.0,"stretto":false,"stretto_voices":0,"combination":[]},{"voice":0,"pitch":79,"start":299.7,"duration":0.3,"velocity":127,"measure":125,"beat":4.5,"subject_pos":-1,"motif":"","motif_pos":-1,"best_pos":4,"similarity":0.429,"stretto":false,"stretto_voices":0,"combination":[]},{"voice":0,"pitch":79,"start":300.0,"duration":0.3,"velocity":127,"measure":126,"beat":1.0,"subject_pos":-1,"motif":"","motif_pos":-1,"best_pos":2,"similarity":0.429,"stretto":false,"stretto_voices":0,"combination":[]},{"voice":1,"pitch":60,"start":300.0,"duration":0.6,"velocity":127,"measure":126,"beat":1.0,"subject_pos":-1,"motif":"","motif_pos":-1,"best_pos":0,"similarity":0.339,"stretto":false,"stretto_voices":0,"combination":[]},{"voice":2,"pitch":57,"start":300.0,"duration":0.6,"velocity":127,"measure":126,"beat":1.0,"subject_pos":-1,"motif":"enigmatic_cell","motif_pos":1,"best_pos":1,"similarity":1.0,"stretto":false,"stretto_voices":0,"combination":[]},{"voice":0,"pitch":76,"start":300.3,"duration":0.3,"velocity":127,"measure":126,"beat":1.5,"subject_pos":-1,"motif":"","motif_pos":-1,"best_pos":3,"similarity":0.482,"stretto":false,"stretto_voices":0,"combination":[]},{"voice":0,"pitch":77,"start":300.6,"duration":0.3,"velocity":127,"measure":126,"beat":2.0,"subject_pos":-1,"motif":"","motif_pos":-1,"best_pos":5,"similarity":0.471,"stretto":false,"stretto_voices":0,"combination":[]},{"voice":1,"pitch":65,"start":300.6,"duration":0.6,"velocity":127,"measure":126,"beat":2.0,"subject_pos":-1,"motif":"","motif_pos":-1,"best_pos":1,"similarity":0.464,"stretto":false,"stretto_voices":0,"combination":[]},{"voice":2,"pitch":62,"start":300.6,"duration":0.6,"velocity":127,"measure":126,"beat":2.0,"subject_pos":-1,"motif":"enigmatic_cell","motif_pos":2,"best_pos":2,"similarity":1.0,"stretto":false,"stretto_voices":0,"combination":[]},{"voice":0,"pitch":77,"start":300.9,"duration":0.3,"velocity":127,"measure":126,"beat":2.5,"subject_pos":-1,"motif":"","motif_pos":-1,"best_pos":6,"similarity":0.375,"stretto":false,"stretto_voices":0,"combination":[]},{"voice":0,"pitch":77,"start":301.2,"duration":0.3,"velocity":127,"measure":126,"beat":3.0,"subject_pos":-1,"motif":"","motif_pos":-1,"best_pos":3,"similarity":0.379,"stretto":false,"stretto_voices":0,"combination":[]},{"voice":1,"pitch":59,"start":301.2,"duration":0.6,"velocity":127,"measure":126,"beat":3.0,"subject_pos":-1,"motif":"","motif_pos":-1,"best_pos":2,"similarity":0.436,"stretto":false,"stretto_voices":0,"combination":[]},{"voice":2,"pitch":56,"start":301.2,"duration":0.6,"velocity":127,"measure":126,"beat":3.0,"subject_pos":-1,"motif":"","motif_pos":-1,"best_pos":2,"similarity":0.364,"stretto":false,"stretto_voices":0,"combination":[]},{"voice":0,"pitch":76,"start":301.5,"duration":0.3,"velocity":127,"measure":126,"beat":3.5,"subject_pos":-1,"motif":"","motif_pos":-1,"best_pos":2,"similarity":0.5,"stretto":false,"stretto_voices":0,"combination":[]},{"voice":0,"pitch":74,"start":301.8,"duration":0.3,"velocity":127,"measure":126,"beat":4.0,"subject_pos":-1,"motif":"","motif_pos":-1,"best_pos":3,"similarity":0.679,"stretto":false,"stretto_voices":0,"combination":[]},{"voice":1,"pitch":58,"start":301.8,"duration":0.6,"velocity":127,"measure":126,"beat":4.0,"subject_pos":-1,"motif":"enigmatic_cell","motif_pos":0,"best_pos":0,"similarity":1.0,"stretto":false,"stretto_voices":0,"combination":[]},{"voice":2,"pitch":55,"start":301.8,"duration":0.6,"velocity":127,"measure":126,"beat":4.0,"subject_pos":-1,"motif":"","motif_pos":-1,"best_pos":4,"similarity":0.343,"stretto":false,"stretto_voices":0,"combination":[]},{"voice":0,"pitch":73,"start":302.1,"duration":0.3,"velocity":127,"measure":126,"beat":4.5,"subject_pos":-1,"motif":"","motif_pos":-1,"best_pos":4,"similarity":0.768,"stretto":false,"stretto_voices":0,"combination":[]},{"voice":0,"pitch":74,"start":302.4,"duration":0.3,"velocity":127,"measure":127,"beat":1.0,"subject_pos":-1,"motif":"","motif_pos":-1,"best_pos":5,"similarity":0.643,"stretto":false,"stretto_voices":0,"combination":[]},{"voice":1,"pitch":57,"start":302.4,"duration":0.6,"velocity":127,"measure":127,"beat":1.0,"subject_pos":-1,"motif":"enigmatic_cell","motif_pos":1,"best_pos":1,"similarity":1.0,"stretto":false,"stretto_voices":0,"combination":[]},{"voice":2,"pitch":53,"start":302.4,"duration":0.6,"velocity":127,"measure":127,"beat":1.0,"subject_pos":-1,"motif":"","motif_pos":-1,"best_pos":0,"similarity":0.357,"stretto":false,"stretto_voices":0,"combination":[]},{"voice":0,"pitch":77,"start":302.7,"duration":0.3,"velocity":127,"measure":127,"beat":1.5,"subject_pos":-1,"motif":"","motif_pos":-1,"best_pos":6,"similarity":0.429,"stretto":false,"stretto_voices":0,"combination":[]},{"voice":0,"pitch":76,"start":303.0,"duration":0.3,"velocity":127,"measure":127,"beat":2.0,"subject_pos":-1,"motif":"","motif_pos":-1,"best_pos":2,"similarity":0.536,"stretto":false,"stretto_voices":0,"combination":[]},{"voice":1,"pitch":62,"start":303.0,"duration":0.6,"velocity":127,"measure":127,"beat":2.0,"subject_pos":-1,"motif":"enigmatic_cell","motif_pos":2,"best_pos":2,"similarity":1.0,"stretto":false,"stretto_voices":0,"combination":[]},{"voice":2,"pitch":58,"start":303.0,"duration":0.6,"velocity":127,"measure":127,"beat":2.0,"subject_pos":-1,"motif":"","motif_pos":-1,"best_pos":1,"similarity":0.5,"stretto":false,"stretto_voices":0,"combination":[]},{"voice":0,"pitch":74,"start":303.3,"duration":0.3,"velocity":127,"measure":127,"beat":2.5,"subject_pos":-1,"motif":"","motif_pos":-1,"best_pos":3,"similarity":0.661,"stretto":false,"stretto_voices":0,"combination":[]},{"voice":0,"pitch":73,"start":303.6,"duration":0.3,"velocity":127,"measure":127,"beat":3.0,"subject_pos":-1,"motif":"","motif_pos":-1,"best_pos":4,"similarity":0.714,"stretto":false,"stretto_voices":0,"combination":[]},{"voice":1,"pitch":55,"start":303.6,"duration":1.2,"velocity":127,"measure":127,"beat":3.0,"subject_pos":-1,"motif":"","motif_pos":-1,"best_pos":2,"similarity":0.364,"stretto":false,"stretto_voices":0,"combination":[]},{"voice":2,"pitch":52,"start":303.6,"duration":1.8,"velocity":127,"measure":127,"beat":3.0,"subject_pos":-1,"motif":"","motif_pos":-1,"best_pos":2,"similarity":0.571,"stretto":false,"stretto_voices":0,"combination":[]},{"voice":0,"pitch":74,"start":303.9,"duration":0.3,"velocity":127,"measure":127,"beat":3.5,"subject_pos":-1,"motif":"","motif_pos":-1,"best_pos":5,"similarity":0.536,"stretto":false,"stretto_voices":0,"combination":[]},{"voice":0,"pitch":71,"start":304.2,"duration":0.3,"velocity":127,"measure":127,"beat":4.0,"subject_pos":-1,"motif":"","motif_pos":-1,"best_pos":5,"similarity":0.511,"stretto":false,"stretto_voices":0,"combination":[]},{"voice":0,"pitch":73,"start":304.5,"duration":0.3,"velocity":127,"measure":127,"beat":4.5,"subject_pos":-1,"motif":"enigmatic_cell","motif_pos":0,"best_pos":0,"similarity":1.0,"stretto":false,"stretto_voices":0,"combination":[]},{"voice":0,"pitch":74,"start":304.8,"duration":0.3,"velocity":127,"measure":128,"beat":1.0,"subject_pos":-1,"motif":"enigmatic_cell","motif_pos":1,"best_pos":1,"similarity":1.0,"stretto":false,"stretto_voices":0,"combination":[]},{"voice":1,"pitch":53,"start":304.8,"duration":0.6,"velocity":127,"measure":128,"beat":1.0,"subject_pos":-1,"motif":"","motif_pos":-1,"best_pos":4,"similarity":0.45,"stretto":false,"stretto_voices":0,"combination":[]},{"voice":0,"pitch":69,"start":305.1,"duration":0.3,"velocity":127,"measure":128,"beat":1.5,"subject_pos":-1,"motif":"enigmatic_cell","motif_pos":2,"best_pos":2,"similarity":1.0,"stretto":false,"stretto_voices":0,"combination":[]},{"voice":0,"pitch":70,"start":305.4,"duration":0.3,"velocity":127,"measure":128,"beat":2.0,"subject_pos":-1,"motif":"","motif_pos":-1,"best_pos":2,"similarity":0.368,"stretto":false,"stretto_voices":0,"combination":[]},{"voice":1,"pitch":55,"start":305.4,"duration":0.6,"velocity":127,"measure":128,"beat":2.0,"subject_pos":-1,"motif":"","motif_pos":-1,"best_pos":5,"similarity":0.521,"stretto":false,"stretto_voices":0,"combination":[]},{"voice":2,"pitch":50,"start":305.4,"duration":1.5,"velocity":127,"measure":128,"beat":2.0,"subject_pos":-1,"motif":"","motif_pos":-1,"best_pos":3,"similarity":0.679,"stretto":false,"stretto_voices":0,"combination":[]},{"voice":0,"pitch":67,"start":305.7,"duration":0.3,"velocity":127,"measure":128,"beat":2.5,"subject_pos":-1,"motif":"","motif_pos":-1,"best_pos":2,"similarity":0.493,"stretto":false,"stretto_voices":0,"combination":[]},{"voice":0,"pitch":64,"start":306.0,"duration":0.6,"velocity":127,"measure":128,"beat":3.0,"subject_pos":-1,"motif":"","motif_pos":-1,"best_pos":3,"similarity":0.471,"stretto":false,"stretto_voices":0,"combination":[]},{"voice":1,"pitch":57,"start":306.0,"duration":0.3,"velocity":127,"measure":128,"beat":3.0,"subject_pos":-1,"motif":"","motif_pos":-1,"best_pos":6,"similarity":0.421,"stretto":false,"stretto_voices":0,"combination":[]},{"voice":1,"pitch":55,"start":306.3,"duration":0.3,"velocity":127,"measure":128,"beat":3.5,"subject_pos":-1,"motif":"","motif_pos":-1,"best_pos":5,"similarity":0.329,"stretto":false,"stretto_voices":0,"combination":[]},{"voice":0,"pitch":67,"start":306.6,"duration":0.9,"velocity":127,"measure":128,"beat":4.0,"subject_pos":-1,"motif":"","motif_pos":-1,"best_pos":4,"similarity":0.382,"stretto":false,"stretto_voices":0,"combination":[]},{"voice":1,"pitch":57,"start":306.6,"duration":0.6,"velocity":127,"measure":128,"beat":4.0,"subject_pos":-1,"motif":"","motif_pos":-1,"best_pos":6,"similarity":0.307,"stretto":false,"stretto_voices":0,"combination":[]},{"voice":2,"pitch":49,"start":306.9,"duration":0.3,"velocity":127,"measure":128,"beat":4.5,"subject_pos":-1,"motif":"","motif_pos":-1,"best_pos":4,"similarity":0.668,"stretto":false,"stretto_voices":0,"combination":[]},{"voice":1,"pitch":50,"start":307.2,"duration":0.6,"velocity":127,"measure":129,"beat":1.0,"subject_pos":-1,"motif":"","motif_pos":-1,"best_pos":0,"similarity":0.161,"stretto":false,"stretto_voices":0,"combination":[]},{"voice":2,"pitch":50,"start":307.2,"duration":0.6,"velocity":127,"measure":129,"beat":1.0,"subject_pos":-1,"motif":"","motif_pos":-1,"best_pos":5,"similarity":0.479,"stretto":false,"stretto_voices":0,"combination":[]},{"voice":0,"pitch":67,"start":307.5,"duration":0.3,"velocity":127,"measure":129,"beat":1.5,"subject_pos":-1,"motif":"","motif_pos":-1,"best_pos":2,"similarity":0.429,"stretto":false,"stretto_voices":0,"combination":[]},{"voice":0,"pitch":65,"start":307.8,"duration":0.3,"velocity":127,"measure":129,"beat":2.0,"subject_pos":-1,"motif":"","motif_pos":-1,"best_pos":3,"similarity":0.554,"stretto":false,"stretto_voices":0,"combination":[]},{"voice":1,"pitch":62,"start":307.8,"duration":0.6,"velocity":127,"measure":129,"beat":2.0,"subject_pos":-1,"motif":"","motif_pos":-1,"best_pos":2,"similarity":0.357,"stretto":false,"stretto_voices":0,"combination":[]},{"voice":0,"pitch":64,"start":308.1,"duration":0.3,"velocity":127,"measure":129,"beat":2.5,"subject_pos":-1,"motif":"","motif_pos":-1,"best_pos":4,"similarity":0.518,"stretto":false,"stretto_voices":0,"combination":[]},{"voice":0,"pitch":66,"start":308.4,"duration":0.3,"velocity":127,"measure":129,"beat":3.0,"subject_pos":-1,"motif":"","motif_pos":-1,"best_pos":6,"similarity":0.357,"stretto":false,"stretto_voices":0,"combination":[]},{"voice":1,"pitch":60,"start":308.4,"duration":0.6,"velocity":127,"measure":129,"beat":3.0,"subject_pos":-1,"motif":"","motif_pos":-1,"best_pos":3,"similarity":0.579,"stretto":false,"stretto_voices":0,"combination":[]},{"voice":0,"pitch":74,"start":308.7,"duration":0.3,"velocity":127,"measure":129,"beat":3.5,"subject_pos":-1,"motif":"","motif_pos":-1,"best_pos":1,"similarity":0.25,"stretto":false,"stretto_voices":0,"combination":[]},{"voice":0,"pitch":68,"start":309.0,"duration":0.3,"velocity":127,"measure":129,"beat":4.0,"subject_pos":-1,"motif":"","motif_pos":-1,"best_pos":2,"similarity":0.221,"stretto":false,"stretto_voices":0,"combination":[]},{"voice":1,"pitch":59,"start":309.0,"duration":0.6,"velocity":127,"measure":129,"beat":4.0,"subject_pos":-1,"motif":"","motif_pos":-1,"best_pos":4,"similarity":0.675,"stretto":false,"stretto_voices":0,"combination":[]},{"voice":0,"pitch":71,"start":309.3,"duration":0.6,"velocity":127,"measure":129,"beat":4.5,"subject_pos":-1,"motif":"","motif_pos":-1,"best_pos":1,"similarity":0.286,"stretto":false,"stretto_voices":0,"combination":[]},{"voice":1,"pitch":60,"start":309.6,"duration":0.6,"velocity":127,"measure":130,"beat":1.0,"subject_pos":-1,"motif":"","motif_pos":-1,"best_pos":5,"similarity":0.529,"stretto":false,"stretto_voices":0,"combination":[]},{"voice":0,"pitch":71,"start":309.9,"duration":0.3,"velocity":127,"measure":130,"beat":1.5,"subject_pos":-1,"motif":"","motif_pos":-1,"best_pos":2,"similarity":0.464,"stretto":false,"stretto_voices":0,"combination":[]},{"voice":0,"pitch":69,"start":310.2,"duration":0.3,"velocity":127,"measure":130,"beat":2.0,"subject_pos":-1,"motif":"","motif_pos":-1,"best_pos":3,"similarity":0.625,"stretto":false,"stretto_voices":0,"combination":[]},{"voice":1,"pitch":65,"start":310.2,"duration":0.6,"velocity":127,"measure":130,"beat":2.0,"subject_pos":-1,"motif":"","motif_pos":-1,"best_pos":1,"similarity":0.507,"stretto":false,"stretto_voices":0,"combination":[]},{"voice":0,"pitch":68,"start":310.5,"duration":0.3,"velocity":127,"measure":130,"beat":2.5,"subject_pos":-1,"motif":"","motif_pos":-1,"best_pos":4,"similarity":0.661,"stretto":false,"stretto_voices":0,"combination":[]},{"voice":0,"pitch":69,"start":310.8,"duration":0.3,"velocity":127,"measure":130,"beat":3.0,"subject_pos":-1,"motif":"","motif_pos":-1,"best_pos":5,"similarity":0.464,"stretto":false,"stretto_voices":0,"combination":[]},{"voice":1,"pitch":64,"start":310.8,"duration":0.6,"velocity":127,"measure":130,"beat":3.0,"subject_pos":-1,"motif":"","motif_pos":-1,"best_pos":4,"similarity":0.471,"stretto":false,"stretto_voices":0,"combination":[]},{"voice":0,"pitch":77,"start":311.1,"duration":0.3,"velocity":127,"measure":130,"beat":3.5,"subject_pos":-1,"motif":"","motif_pos":-1,"best_pos":1,"similarity":0.25,"stretto":false,"stretto_voices":0,"combination":[]},{"voice":0,"pitch":71,"start":311.4,"duration":0.3,"velocity":127,"measure":130,"beat":4.0,"subject_pos":-1,"motif":"","motif_pos":-1,"best_pos":2,"similarity":0.221,"stretto":false,"stretto_voices":0,"combination":[]},{"voice":1,"pitch":62,"start":311.4,"duration":0.6,"velocity":127,"measure":130,"beat":4.0,"subject_pos":-1,"motif":"","motif_pos":-1,"best_pos":5,"similarity":0.471,"stretto":false,"stretto_voices":0,"combination":[]},{"voice":0,"pitch":74,"start":311.7,"duration":0.6,"velocity":127,"measure":130,"beat":4.5,"subject_pos":-1,"motif":"","motif_pos":-1,"best_pos":1,"similarity":0.286,"stretto":false,"stretto_voices":0,"combination":[]},{"voice":1,"pitch":64,"start":312.0,"duration":0.6,"velocity":127,"measure":131,"beat":1.0,"subject_pos":-1,"motif":"","motif_pos":-1,"best_pos":0,"similarity":0.464,"stretto":false,"stretto_voices":0,"combination":[]},{"voice":0,"pitch":74,"start":312.3,"duration":0.3,"velocity":127,"measure":131,"beat":1.5,"subject_pos":-1,"motif":"","motif_pos":-1,"best_pos":2,"similarity":0.429,"stretto":false,"stretto_voices":0,"combination":[]},{"voice":0,"pitch":72,"start":312.6,"duration":0.3,"velocity":127,"measure":131,"beat":2.0,"subject_pos":-1,"motif":"","motif_pos":-1,"best_pos":3,"similarity":0.554,"stretto":false,"stretto_voices":0,"combination":[]},{"voice":1,"pitch":69,"start":312.6,"duration":0.6,"velocity":127,"measure":131,"beat":2.0,"subject_pos":-1,"motif":"","motif_pos":-1,"best_pos":1,"similarity":0.679,"stretto":false,"stretto_voices":0,"combination":[]},{"voice":0,"pitch":71,"start":312.9,"duration":0.3,"velocity":127,"measure":131,"beat":2.5,"subject_pos":-1,"motif":"","motif_pos":-1,"best_pos":4,"similarity":0.518,"stretto":false,"stretto_voices":0,"combination":[]},{"voice":0,"pitch":73,"start":313.2,"duration":0.3,"velocity":127,"measure":131,"beat":3.0,"subject_pos":-1,"motif":"","motif_pos":-1,"best_pos":6,"similarity":0.357,"stretto":false,"stretto_voices":0,"combination":[]},{"voice":1,"pitch":67,"start":313.2,"duration":0.6,"velocity":127,"measure":131,"beat":3.0,"subject_pos":-1,"motif":"","motif_pos":-1,"best_pos":2,"similarity":0.714,"stretto":false,"stretto_voices":0,"combination":[]},{"voice":2,"pitch":57,"start":313.2,"duration":1.2,"velocity":127,"measure":131,"beat":3.0,"subject_pos":-1,"motif":"","motif_pos":-1,"best_pos":1,"similarity":0.571,"stretto":false,"stretto_voices":0,"combination":[]},{"voice":0,"pitch":81,"start":313.5,"duration":0.3,"velocity":127,"measure":131,"beat":3.5,"subject_pos":-1,"motif":"","motif_pos":-1,"best_pos":1,"similarity":0.171,"stretto":false,"stretto_voices":0,"combination":[]},{"voice":0,"pitch":74,"start":313.8,"duration":0.3,"velocity":127,"measure":131,"beat":4.0,"subject_pos":-1,"motif":"","motif_pos":-1,"best_pos":5,"similarity":0.143,"stretto":false,"stretto_voices":0,"combination":[]},{"voice":1,"pitch":65,"start":313.8,"duration":0.9,"velocity":127,"measure":131,"beat":4.0,"subject_pos":-1,"motif":"","motif_pos":-1,"best_pos":3,"similarity":0.661,"stretto":false,"stretto_voices":0,"combination":[]},{"voice":0,"pitch":77,"start":314.1,"duration":0.3,"velocity":127,"measure":131,"beat":4.5,"subject_pos":-1,"motif":"","motif_pos":-1,"best_pos":1,"similarity":0.143,"stretto":false,"stretto_voices":0,"combination":[]},{"voice":0,"pitch":71,"start":314.4,"duration":0.6,"velocity":127,"measure":132,"beat":1.0,"subject_pos":-1,"motif":"","motif_pos":-1,"best_pos":0,"similarity":0.286,"stretto":false,"stretto_voices":0,"combination":[]},{"voice":2,"pitch":55,"start":314.4,"duration":0.6,"velocity":127,"measure":132,"beat":1.0,"subject_pos":-1,"motif":"","motif_pos":-1,"best_pos":2,"similarity":0.446,"stretto":false,"stretto_voices":0,"combination":[]},{"voice":1,"pitch":63,"start":314.7,"duration":0.3,"velocity":127,"measure":132,"beat":1.5,"subject_pos":-1,"motif":"","motif_pos":-1,"best_pos":4,"similarity":0.643,"stretto":false,"stretto_voices":0,"combination":[]},{"voice":0,"pitch":76,"start":315.0,"duration":0.6,"velocity":127,"measure":132,"beat":2.0,"subject_pos":-1,"motif":"","motif_pos":-1,"best_pos":0,"similarity":0.321,"stretto":false,"stretto_voices":0,"combination":[]},{"voice":1,"pitch":64,"start":315.0,"duration":0.3,"velocity":127,"measure":132,"beat":2.0,"subject_pos":-1,"motif":"","motif_pos":-1,"best_pos":5,"similarity":0.536,"stretto":false,"stretto_voices":0,"combination":[]},{"voice":2,"pitch":60,"start":315.0,"duration":0.6,"velocity":127,"measure":132,"beat":2.0,"subject_pos":-1,"motif":"","motif_pos":-1,"best_pos":1,"similarity":0.464,"stretto":false,"stretto_voices":0,"combination":[]},{"voice":1,"pitch":64,"start":315.3,"duration":0.3,"velocity":127,"measure":132,"beat":2.5,"subject_pos":-1,"motif":"","motif_pos":-1,"best_pos":4,"similarity":0.443,"stretto":false,"stretto_voices":0,"combination":[]},{"voice":0,"pitch":81,"start":315.6,"duration":0.6,"velocity":127,"measure":132,"beat":3.0,"subject_pos":-1,"motif":"","motif_pos":-1,"best_pos":1,"similarity":0.357,"stretto":false,"stretto_voices":0,"combination":[]},{"voice":1,"pitch":64,"start":315.6,"duration":0.3,"velocity":127,"measure":132,"beat":3.0,"subject_pos":-1,"motif":"","motif_pos":-1,"best_pos":2,"similarity":0.429,"stretto":false,"stretto_voices":0,"combination":[]},{"voice":2,"pitch":54,"start":315.6,"duration":0.6,"velocity":127,"measure":132,"beat":3.0,"subject_pos":-1,"motif":"","motif_pos":-1,"best_pos":2,"similarity":0.436,"stretto":false,"stretto_voices":0,"combination":[]},{"voice":1,"pitch":61,"start":315.9,"duration":0.3,"velocity":127,"measure":132,"beat":3.5,"subject_pos":-1,"motif":"","motif_pos":-1,"best_pos":3,"similarity":0.482,"stretto":false,"stretto_voices":0,"combination":[]},{"voice":0,"pitch":69,"start":316.2,"duration":0.6,"velocity":127,"measure":132,"beat":4.0,"subject_pos":-1,"motif":"","motif_pos":-1,"best_pos":2,"similarity":0.293,"stretto":false,"stretto_voices":0,"combination":[]},{"voice":1,"pitch":62,"start":316.2,"duration":0.3,"velocity":127,"measure":132,"beat":4.0,"subject_pos":-1,"motif":"","motif_pos":-1,"best_pos":5,"similarity":0.471,"stretto":false,"stretto_voices":0,"combination":[]},{"voice":2,"pitch":53,"start":316.2,"duration":0.6,"velocity":127,"measure":132,"beat":4.0,"subject_pos":-1,"motif":"enigmatic_cell","motif_pos":0,"best_pos":0,"similarity":1.0,"stretto":false,"stretto_voices":0,"combination":[]},{"voice":1,"pitch":62,"start":316.5,"duration":0.3,"velocity":127,"measure":132,"beat":4.5,"subject_pos":-1,"motif":"","motif_pos":-1,"best_pos":4,"similarity":0.407,"stretto":false,"stretto_voices":0,"combination":[]},{"voice":0,"pitch":67,"start":316.8,"duration":0.6,"velocity":127,"measure":133,"beat":1.0,"subject_pos":-1,"motif":"","motif_pos":-1,"best_pos":0,"similarity":0.286,"stretto":false,"stretto_voices":0,"combination":[]},{"voice":1,"pitch":62,"start":316.8,"duration":0.3,"velocity":127,"measure":133,"beat":1.0,"subject_pos":-1,"motif":"","motif_pos":-1,"best_pos":2,"similarity":0.429,"stretto":false,"stretto_voices":0,"combination":[]},{"voice":2,"pitch":52,"start":316.8,"duration":0.6,"velocity":127,"measure":133,"beat":1.0,"subject_pos":-1,"motif":"enigmatic_cell","motif_pos":1,"best_pos":1,"similarity":1.0,"stretto":false,"stretto_voices":0,"combination":[]},{"voice":1,"pitch":59,"start":317.1,"duration":0.3,"velocity":127,"measure":133,"beat":1.5,"subject_pos":-1,"motif":"","motif_pos":-1,"best_pos":3,"similarity":0.482,"stretto":false,"stretto_voices":0,"combination":[]},{"voice":0,"pitch":72,"start":317.4,"duration":0.6,"velocity":127,"measure":133,"beat":2.0,"subject_pos":-1,"motif":"","motif_pos":-1,"best_pos":1,"similarity":0.357,"stretto":false,"stretto_voices":0,"combination":[]},{"voice":1,"pitch":60,"start":317.4,"duration":0.3,"velocity":127,"measure":133,"beat":2.0,"subject_pos":-1,"motif":"","motif_pos":-1,"best_pos":5,"similarity":0.471,"stretto":false,"stretto_voices":0,"combination":[]},{"voice":2,"pitch":57,"start":317.4,"duration":0.6,"velocity":127,"measure":133,"beat":2.0,"subject_pos":-1,"motif":"enigmatic_cell","motif_pos":2,"best_pos":2,"similarity":1.0,"stretto":false,"stretto_voices":0,"combination":[]},{"voice":1,"pitch":60,"start":317.7,"duration":0.3,"velocity":127,"measure":133,"beat":2.5,"subject_pos":-1,"motif":"","motif_pos":-1,"best_pos":6,"similarity":0.375,"stretto":false,"stretto_voices":0,"combination":[]},{"voice":0,"pitch":77,"start":318.0,"duration":0.6,"velocity":127,"measure":133,"beat":3.0,"subject_pos":-1,"motif":"","motif_pos":-1,"best_pos":1,"similarity":0.321,"stretto":false,"stretto_voices":0,"combination":[]},{"voice":1,"pitch":60,"start":318.0,"duration":0.3,"velocity":127,"measure":133,"beat":3.0,"subject_pos":-1,"motif":"","motif_pos":-1,"best_pos":3,"similarity":0.379,"stretto":false,"stretto_voices":0,"combination":[]},{"voice":2,"pitch":50,"start":318.0,"duration":1.2,"velocity":127,"measure":133,"beat":3.0,"subject_pos":-1,"motif":"","motif_pos":-1,"best_pos":2,"similarity":0.364,"stretto":false,"stretto_voices":0,"combination":[]},{"voice":1,"pitch":59,"start":318.3,"duration":0.3,"velocity":127,"measure":133,"beat":3.5,"subject_pos":-1,"motif":"","motif_pos":-1,"best_pos":2,"similarity":0.5,"stretto":false,"stretto_voices":0,"combination":[]},{"voice":0,"pitch":65,"start":318.6,"duration":0.6,"velocity":127,"measure":133,"beat":4.0,"subject_pos":-1,"motif":"","motif_pos":-1,"best_pos":3,"similarity":0.364,"stretto":false,"stretto_voices":0,"combination":[]},{"voice":1,"pitch":57,"start":318.6,"duration":0.3,"velocity":127,"measure":133,"beat":4.0,"subject_pos":-1,"motif":"","motif_pos":-1,"best_pos":3,"similarity":0.65,"stretto":false,"stretto_voices":0,"combination":[]},{"voice":1,"pitch":56,"start":318.9,"duration":0.3,"velocity":127,"measure":133,"beat":4.5,"subject_pos":-1,"motif":"","motif_pos":-1,"best_pos":4,"similarity":0.764,"stretto":false,"stretto_voices":0,"combination":[]},{"voice":0,"pitch":64,"start":319.2,"duration":0.3,"velocity":127,"measure":134,"beat":1.0,"subject_pos":-1,"motif":"","motif_pos":-1,"best_pos":4,"similarity":0.307,"stretto":false,"stretto_voices":0,"combination":[]},{"voice":1,"pitch":57,"start":319.2,"duration":1.8,"velocity":127,"measure":134,"beat":1.0,"subject_pos":-1,"motif":"","motif_pos":-1,"best_pos":5,"similarity":0.636,"stretto":false,"stretto_voices":0,"combination":[]},{"voice":2,"pitch":48,"start":319.2,"duration":0.6,"velocity":127,"measure":134,"beat":1.0,"subject_pos":-1,"motif":"","motif_pos":-1,"best_pos":4,"similarity":0.45,"stretto":false,"stretto_voices":0,"combination":[]},{"voice":0,"pitch":76,"start":319.5,"duration":0.3,"velocity":127,"measure":134,"beat":1.5,"subject_pos":-1,"motif":"","motif_pos":-1,"best_pos":1,"similarity":0.429,"stretto":false,"stretto_voices":0,"combination":[]},{"voice":0,"pitch":74,"start":319.8,"duration":0.3,"velocity":127,"measure":134,"beat":2.0,"subject_pos":-1,"motif":"","motif_pos":-1,"best_pos":2,"similarity":0.643,"stretto":false,"stretto_voices":0,"combination":[]},{"voice":2,"pitch":50,"start":319.8,"duration":0.6,"velocity":127,"measure":134,"beat":2.0,"subject_pos":-1,"motif":"","motif_pos":-1,"best_pos":5,"similarity":0.521,"stretto":false,"stretto_voices":0,"combination":[]},{"voice":0,"pitch":72,"start":320.1,"duration":0.3,"velocity":127,"measure":134,"beat":2.5,"subject_pos":-1,"motif":"","motif_pos":-1,"best_pos":3,"similarity":0.714,"stretto":false,"stretto_voices":0,"combination":[]},{"voice":0,"pitch":71,"start":320.4,"duration":0.3,"velocity":127,"measure":134,"beat":3.0,"subject_pos":-1,"motif":"","motif_pos":-1,"best_pos":4,"similarity":0.75,"stretto":false,"stretto_voices":0,"combination":[]},{"voice":2,"pitch":52,"start":320.4,"duration":0.3,"velocity":127,"measure":134,"beat":3.0,"subject_pos":-1,"motif":"","motif_pos":-1,"best_pos":6,"similarity":0.421,"stretto":false,"stretto_voices":0,"combination":[]},{"voice":0,"pitch":72,"start":320.7,"duration":0.3,"velocity":127,"measure":134,"beat":3.5,"subject_pos":-1,"motif":"","motif_pos":-1,"best_pos":5,"similarity":0.536,"stretto":false,"stretto_voices":0,"combination":[]},{"voice":2,"pitch":50,"start":320.7,"duration":0.3,"velocity":127,"measure":134,"beat":3.5,"subject_pos":-1,"motif":"","motif_pos":-1,"best_pos":2,"similarity":0.336,"stretto":false,"stretto_voices":0,"combination":[]},{"voice":0,"pitch":69,"start":321.0,"duration":0.3,"velocity":127,"measure":134,"beat":4.0,"subject_pos":-1,"motif":"","motif_pos":-1,"best_pos":5,"similarity":0.511,"stretto":false,"stretto_voices":0,"combination":[]},{"voice":1,"pitch":56,"start":321.0,"duration":0.6,"velocity":127,"measure":134,"beat":4.0,"subject_pos":-1,"motif":"","motif_pos":-1,"best_pos":4,"similarity":0.711,"stretto":false,"stretto_voices":0,"combination":[]},{"voice":2,"pitch":52,"start":321.0,"duration":0.6,"velocity":127,"measure":134,"beat":4.0,"subject_pos":0,"motif":"subject_inv","motif_pos":0,"best_pos":0,"similarity":1.0,"stretto":false,"stretto_voices":0,"combination":[]},{"voice":0,"pitch":71,"start":321.3,"duration":0.3,"velocity":127,"measure":134,"beat":4.5,"subject_pos":-1,"motif":"","motif_pos":-1,"best_pos":6,"similarity":0.604,"stretto":false,"stretto_voices":0,"combination":[]},{"voice":0,"pitch":72,"start":321.6,"duration":0.3,"velocity":127,"measure":135,"beat":1.0,"subject_pos":-1,"motif":"","motif_pos":-1,"best_pos":5,"similarity":0.457,"stretto":false,"stretto_voices":0,"combination":[]},{"voice":1,"pitch":57,"start":321.6,"duration":0.3,"velocity":127,"measure":135,"beat":1.0,"subject_pos":-1,"motif":"","motif_pos":-1,"best_pos":5,"similarity":0.614,"stretto":false,"stretto_voices":0,"combination":[]},{"voice":2,"pitch":45,"start":321.6,"duration":0.6,"velocity":127,"measure":135,"beat":1.0,"subject_pos":1,"motif":"subject_inv","motif_pos":1,"best_pos":1,"similarity":1.0,"stretto":false,"stretto_voices":0,"combination":[]},{"voice":0,"pitch":76,"start":321.9,"duration":0.3,"velocity":127,"measure":135,"beat":1.5,"subject_pos":-1,"motif":"","motif_pos":-1,"best_pos":1,"similarity":0.5,"stretto":false,"stretto_voices":0,"combination":[]},{"voice":1,"pitch":60,"start":321.9,"duration":0.3,"velocity":127,"measure":135,"beat":1.5,"subject_pos":-1,"motif":"","motif_pos":-1,"best_pos":6,"similarity":0.429,"stretto":false,"stretto_voices":0,"combination":[]},{"voice":0,"pitch":74,"start":322.2,"duration":0.3,"velocity":127,"measure":135,"beat":2.0,"subject_pos":-1,"motif":"","motif_pos":-1,"best_pos":2,"similarity":0.507,"stretto":false,"stretto_voices":0,"combination":[]},{"voice":1,"pitch":59,"start":322.2,"duration":0.3,"velocity":127,"measure":135,"beat":2.0,"subject_pos":-1,"motif":"","motif_pos":-1,"best_pos":2,"similarity":0.536,"stretto":false,"stretto_voices":0,"combination":[]},{"voice":0,"pitch":77,"start":322.5,"duration":0.3,"velocity":127,"measure":135,"beat":2.5,"subject_pos":-1,"motif":"","motif_pos":-1,"best_pos":3,"similarity":0.486,"stretto":false,"stretto_voices":0,"combination":[]},{"voice":1,"pitch":57,"start":322.5,"duration":0.3,"velocity":127,"measure":135,"beat":2.5,"subject_pos":-1,"motif":"","motif_pos":-1,"best_pos":3,"similarity":0.661,"stretto":false,"stretto_voices":0,"combination":[]},{"voice":0,"pitch":76,"start":322.8,"duration":0.6,"velocity":127,"measure":135,"beat":3.0,"subject_pos":-1,"motif":"","motif_pos":-1,"best_pos":1,"similarity":0.429,"stretto":false,"stretto_voices":0,"combination":[]},{"voice":1,"pitch":56,"start":322.8,"duration":0.3,"velocity":127,"measure":135,"beat":3.0,"subject_pos":-1,"motif":"","motif_pos":-1,"best_pos":4,"similarity":0.714,"stretto":false,"stretto_voices":0,"combination":[]},{"voice":1,"pitch":57,"start":323.1,"duration":0.3,"velocity":127,"measure":135,"beat":3.5,"subject_pos":-1,"motif":"","motif_pos":-1,"best_pos":5,"similarity":0.536,"stretto":false,"stretto_voices":0,"combination":[]},{"voice":0,"pitch":74,"start":323.4,"duration":1.2,"velocity":127,"measure":135,"beat":4.0,"subject_pos":-1,"motif":"","motif_pos":-1,"best_pos":2,"similarity":0.607,"stretto":false,"stretto_voices":0,"combination":[]},{"voice":1,"pitch":54,"start":323.4,"duration":0.3,"velocity":127,"measure":135,"beat":4.0,"subject_pos":-1,"motif":"","motif_pos":-1,"best_pos":5,"similarity":0.511,"stretto":false,"stretto_voices":0,"combination":[]},{"voice":2,"pitch":47,"start":323.4,"duration":0.6,"velocity":127,"measure":135,"beat":4.0,"subject_pos":2,"motif":"subject_inv","motif_pos":2,"best_pos":2,"similarity":1.0,"stretto":false,"stretto_voices":0,"combination":[]},{"voice":1,"pitch":56,"start":323.7,"duration":0.3,"velocity":127,"measure":135,"beat":4.5,"subject_pos":-1,"motif":"","motif_pos":-1,"best_pos":6,"similarity":0.604,"stretto":false,"stretto_voices":0,"combination":[]},{"voice":1,"pitch":57,"start":324.0,"duration":0.3,"velocity":127,"measure":136,"beat":1.0,"subject_pos":-1,"motif":"","motif_pos":-1,"best_pos":7,"similarity":0.436,"stretto":false,"stretto_voices":0,"combination":[]},{"voice":2,"pitch":48,"start":324.0,"duration":0.3,"velocity":127,"measure":136,"beat":1.0,"subject_pos":3,"motif":"subject_inv","motif_pos":3,"best_pos":3,"similarity":1.0,"stretto":false,"stretto_voices":0,"combination":[]},{"voice":1,"pitch":64,"start":324.3,"duration":0.3,"velocity":127,"measure":136,"beat":1.5,"subject_pos":-1,"motif":"","motif_pos":-1,"best_pos":0,"similarity":0.464,"stretto":false,"stretto_voices":0,"combination":[]},{"voice":2,"pitch":47,"start":324.3,"duration":0.3,"velocity":127,"measure":136,"beat":1.5,"subject_pos":-1,"motif":"subject_inv","motif_pos":3,"best_pos":3,"similarity":1.0,"stretto":false,"stretto_voices":0,"combination":[]},{"voice":0,"pitch":72,"start":324.6,"duration":0.6,"velocity":127,"measure":136,"beat":2.0,"subject_pos":-1,"motif":"","motif_pos":-1,"best_pos":3,"similarity":0.679,"stretto":false,"stretto_voices":0,"combination":[]},{"voice":1,"pitch":69,"start":324.6,"duration":1.2,"velocity":127,"measure":136,"beat":2.0,"subject_pos":-1,"motif":"","motif_pos":-1,"best_pos":1,"similarity":0.714,"stretto":false,"stretto_voices":0,"combination":[]},{"voice":2,"pitch":48,"start":324.6,"duration":0.3,"velocity":127,"measure":136,"beat":2.0,"subject_pos":-1,"motif":"subject_inv","motif_pos":3,"best_pos":3,"similarity":1.0,"stretto":false,"stretto_voices":0,"combination":[]},{"voice":2,"pitch":50,"start":324.9,"duration":0.3,"velocity":127,"measure":136,"beat":2.5,"subject_pos":4,"motif":"subject_inv","motif_pos":4,"best_pos":4,"similarity":1.0,"stretto":false,"stretto_voices":0,"combination":[]},{"voice":0,"pitch":71,"start":325.2,"duration":0.6,"velocity":127,"measure":136,"beat":3.0,"subject_pos":-1,"motif":"","motif_pos":-1,"best_pos":4,"similarity":0.643,"stretto":false,"stretto_voices":0,"combination":[]},{"voice":2,"pitch":52,"start":325.2,"duration":0.3,"velocity":127,"measure":136,"beat":3.0,"subject_pos":5,"motif":"subject_inv","motif_pos":5,"best_pos":5,"similarity":1.0,"stretto":false,"stretto_voices":0,"combination":[]},{"voice":2,"pitch":50,"start":325.5,"duration":0.3,"velocity":127,"measure":136,"beat":3.5,"subject_pos":-1,"motif":"subject_inv","motif_pos":5,"best_pos":5,"similarity":1.0,"stretto":false,"stretto_voices":0,"combination":[]},{"voice":0,"pitch":73,"start":325.8,"duration":0.6,"velocity":127,"measure":136,"beat":4.0,"subject_pos":-1,"motif":"enigmatic_cell","motif_pos":0,"best_pos":0,"similarity":1.0,"stretto":false,"stretto_voices":0,"combination":[]},{"voice":1,"pitch":67,"start":325.8,"duration":0.9,"velocity":127,"measure":136,"beat":4.0,"subject_pos":-1,"motif":"","motif_pos":-1,"best_pos":2,"similarity":0.721,"stretto":false,"stretto_voices":0,"combination":[]},{"voice":2,"pitch":53,"start":325.8,"duration":0.3,"velocity":127,"measure":136,"beat":4.0,"subject_pos":6,"motif":"subject_inv","motif_pos":6,"best_pos":6,"similarity":1.0,"stretto":false,"stretto_voices":0,"combination":[]},{"voice":2,"pitch":52,"start":326.1,"duration":0.3,"velocity":127,"measure":136,"beat":4.5,"subject_pos":7,"motif":"subject_inv","motif_pos":7,"best_pos":7,"similarity":1.0,"stretto":false,"stretto_voices":0,"combination":[]},{"voice":0,"pitch":74,"start":326.4,"duration":0.3,"velocity":127,"measure":137,"beat":1.0,"subject_pos":-1,"motif":"enigmatic_cell","motif_pos":1,"best_pos":1,"similarity":1.0,"stretto":false,"stretto_voices":0,"combination":[]},{"voice":2,"pitch":53,"start":326.4,"duration":0.3,"velocity":127,"measure":137,"beat":1.0,"subject_pos":-1,"motif":"subject_inv","motif_pos":7,"best_pos":7,"similarity":1.0,"stretto":false,"stretto_voices":0,"combination":[]},{"voice":0,"pitch":69,"start":326.7,"duration":0.3,"velocity":127,"measure":137,"beat":1.5,"subject_pos":-1,"motif":"enigmatic_cell","motif_pos":2,"best_pos":2,"similarity":1.0,"stretto":false,"stretto_voices":0,"combination":[]},{"voice":1,"pitch":65,"start":326.7,"duration":0.3,"velocity":127,"measure":137,"beat":1.5,"subject_pos":-1,"motif":"","motif_pos":-1,"best_pos":3,"similarity":0.664,"stretto":false,"stretto_voices":0,"combination":[]},{"voice":2,"pitch":50,"start":326.7,"duration":0.3,"velocity":127,"measure":137,"beat":1.5,"subject_pos":8,"motif":"subject_inv","motif_pos":8,"best_pos":0,"similarity":1.0,"stretto":false,"stretto_voices":0,"combination":[]},{"voice":0,"pitch":67,"start":327.0,"duration":0.3,"velocity":127,"measure":137,"beat":2.0,"subject_pos":-1,"motif":"","motif_pos":-1,"best_pos":2,"similarity":0.579,"stretto":false,"stretto_voices":0,"combination":[]},{"voice":1,"pitch":64,"start":327.0,"duration":0.3,"velocity":127,"measure":137,"beat":2.0,"subject_pos":-1,"motif":"","motif_pos":-1,"best_pos":4,"similarity":0.543,"stretto":false,"stretto_voices":0,"combination":[]},{"voice":2,"pitch":55,"start":327.0,"duration":1.2,"velocity":127,"measure":137,"beat":2.0,"subject_pos":-1,"motif":"","motif_pos":-1,"best_pos":1,"similarity":0.625,"stretto":false,"stretto_voices":0,"combination":[]},{"voice":0,"pitch":65,"start":327.3,"duration":0.3,"velocity":127,"measure":137,"beat":2.5,"subject_pos":-1,"motif":"","motif_pos":-1,"best_pos":3,"similarity":0.657,"stretto":false,"stretto_voices":0,"combination":[]},{"voice":1,"pitch":62,"start":327.3,"duration":0.3,"velocity":127,"measure":137,"beat":2.5,"subject_pos":-1,"motif":"","motif_pos":-1,"best_pos":3,"similarity":0.643,"stretto":false,"stretto_voices":0,"combination":[]},{"voice":0,"pitch":64,"start":327.6,"duration":0.3,"velocity":127,"measure":137,"beat":3.0,"subject_pos":-1,"motif":"","motif_pos":-1,"best_pos":4,"similarity":0.607,"stretto":false,"stretto_voices":0,"combination":[]},{"voice":1,"pitch":61,"start":327.6,"duration":0.3,"velocity":127,"measure":137,"beat":3.0,"subject_pos":-1,"motif":"","motif_pos":-1,"best_pos":4,"similarity":0.714,"stretto":false,"stretto_voices":0,"combination":[]},{"voice":0,"pitch":62,"start":327.9,"duration":0.3,"velocity":127,"measure":137,"beat":3.5,"subject_pos":-1,"motif":"","motif_pos":-1,"best_pos":5,"similarity":0.507,"stretto":false,"stretto_voices":0,"combination":[]},{"voice":1,"pitch":62,"start":327.9,"duration":0.3,"velocity":127,"measure":137,"beat":3.5,"subject_pos":-1,"motif":"","motif_pos":-1,"best_pos":5,"similarity":0.536,"stretto":false,"stretto_voices":0,"combination":[]},{"voice":0,"pitch":64,"start":328.2,"duration":0.6,"velocity":127,"measure":137,"beat":4.0,"subject_pos":-1,"motif":"","motif_pos":-1,"best_pos":6,"similarity":0.4,"stretto":false,"stretto_voices":0,"combination":[]},{"voice":1,"pitch":59,"start":328.2,"duration":0.3,"velocity":127,"measure":137,"beat":4.0,"subject_pos":-1,"motif":"","motif_pos":-1,"best_pos":5,"similarity":0.511,"stretto":false,"stretto_voices":0,"combination":[]},{"voice":2,"pitch":53,"start":328.2,"duration":0.3,"velocity":127,"measure":137,"beat":4.0,"subject_pos":-1,"motif":"","motif_pos":-1,"best_pos":3,"similarity":0.589,"stretto":false,"stretto_voices":0,"combination":[]},{"voice":1,"pitch":61,"start":328.5,"duration":0.3,"velocity":127,"measure":137,"beat":4.5,"subject_pos":-1,"motif":"","motif_pos":-1,"best_pos":6,"similarity":0.604,"stretto":false,"stretto_voices":0,"combination":[]},{"voice":2,"pitch":52,"start":328.5,"duration":0.3,"velocity":127,"measure":137,"beat":4.5,"subject_pos":-1,"motif":"","motif_pos":-1,"best_pos":4,"similarity":0.686,"stretto":false,"stretto_voices":0,"combination":[]},{"voice":0,"pitch":62,"start":328.8,"duration":0.3,"velocity":127,"measure":138,"beat":1.0,"subject_pos":-1,"motif":"","motif_pos":-1,"best_pos":5,"similarity":0.507,"stretto":false,"stretto_voices":0,"combination":[]},{"voice":1,"pitch":62,"start":328.8,"duration":0.6,"velocity":127,"measure":138,"beat":1.0,"subject_pos":-1,"motif":"","motif_pos":-1,"best_pos":5,"similarity":0.514,"stretto":false,"stretto_voices":0,"combination":[]},{"voice":2,"pitch":53,"start":328.8,"duration":0.6,"velocity":127,"measure":138,"beat":1.0,"subject_pos":-1,"motif":"","motif_pos":-1,"best_pos":5,"similarity":0.55,"stretto":false,"stretto_voices":0,"combination":[]},{"voice":0,"pitch":64,"start":329.1,"duration":0.3,"velocity":127,"measure":138,"beat":1.5,"subject_pos":-1,"motif":"","motif_pos":-1,"best_pos":6,"similarity":0.593,"stretto":false,"stretto_voices":0,"combination":[]},{"voice":0,"pitch":65,"start":329.4,"duration":0.3,"velocity":127,"measure":138,"beat":2.0,"subject_pos":-1,"motif":"","motif_pos":-1,"best_pos":5,"similarity":0.693,"stretto":false,"stretto_voices":0,"combination":[]},{"voice":2,"pitch":57,"start":329.4,"duration":0.6,"velocity":127,"measure":138,"beat":2.0,"subject_pos":-1,"motif":"","motif_pos":-1,"best_pos":1,"similarity":0.357,"stretto":false,"stretto_voices":0,"combination":[]},{"voice":0,"pitch":67,"start":329.7,"duration":0.3,"velocity":127,"measure":138,"beat":2.5,"subject_pos":-1,"motif":"","motif_pos":-1,"best_pos":6,"similarity":0.579,"stretto":false,"stretto_voices":0,"combination":[]},{"voice":0,"pitch":69,"start":330.0,"duration":0.3,"velocity":127,"measure":138,"beat":3.0,"subject_pos":-1,"motif":"","motif_pos":-1,"best_pos":6,"similarity":0.404,"stretto":false,"stretto_voices":0,"combination":[]},{"voice":2,"pitch":54,"start":330.0,"duration":0.6,"velocity":127,"measure":138,"beat":3.0,"subject_pos":-1,"motif":"","motif_pos":-1,"best_pos":2,"similarity":0.393,"stretto":false,"stretto_voices":0,"combination":[]},{"voice":0,"pitch":67,"start":330.3,"duration":0.3,"velocity":127,"measure":138,"beat":3.5,"subject_pos":-1,"motif":"","motif_pos":-1,"best_pos":2,"similarity":0.514,"stretto":false,"stretto_voices":0,"combination":[]},{"voice":0,"pitch":70,"start":330.6,"duration":0.3,"velocity":127,"measure":138,"beat":4.0,"subject_pos":-1,"motif":"","motif_pos":-1,"best_pos":3,"similarity":0.614,"stretto":false,"stretto_voices":0,"combination":[]},{"voice":1,"pitch":54,"start":330.6,"duration":0.6,"velocity":127,"measure":138,"beat":4.0,"subject_pos":-1,"motif":"","motif_pos":-1,"best_pos":4,"similarity":0.521,"stretto":false,"stretto_voices":0,"combination":[]},{"voice":2,"pitch":50,"start":330.6,"duration":0.6,"velocity":127,"measure":138,"beat":4.0,"subject_pos":-1,"motif":"","motif_pos":-1,"best_pos":2,"similarity":0.357,"stretto":false,"stretto_voices":0,"combination":[]},{"voice":0,"pitch":69,"start":330.9,"duration":0.3,"velocity":127,"measure":138,"beat":4.5,"subject_pos":-1,"motif":"","motif_pos":-1,"best_pos":4,"similarity":0.786,"stretto":false,"stretto_voices":0,"combination":[]},{"voice":0,"pitch":70,"start":331.2,"duration":1.2,"velocity":127,"measure":139,"beat":1.0,"subject_pos":-1,"motif":"","motif_pos":-1,"best_pos":5,"similarity":0.714,"stretto":false,"stretto_voices":0,"combination":[]},{"voice":1,"pitch":55,"start":331.2,"duration":0.3,"velocity":127,"measure":139,"beat":1.0,"subject_pos":-1,"motif":"","motif_pos":-1,"best_pos":5,"similarity":0.721,"stretto":false,"stretto_voices":0,"combination":[]},{"voice":2,"pitch":55,"start":331.2,"duration":1.2,"velocity":127,"measure":139,"beat":1.0,"subject_pos":-1,"motif":"","motif_pos":-1,"best_pos":1,"similarity":0.371,"stretto":false,"stretto_voices":0,"combination":[]},{"voice":1,"pitch":57,"start":331.5,"duration":0.3,"velocity":127,"measure":139,"beat":1.5,"subject_pos":-1,"motif":"","motif_pos":-1,"best_pos":6,"similarity":0.714,"stretto":false,"stretto_voices":0,"combination":[]},{"voice":1,"pitch":58,"start":331.8,"duration":0.3,"velocity":127,"measure":139,"beat":2.0,"subject_pos":-1,"motif":"","motif_pos":-1,"best_pos":5,"similarity":0.664,"stretto":false,"stretto_voices":0,"combination":[]},{"voice":1,"pitch":60,"start":332.1,"duration":0.3,"velocity":127,"measure":139,"beat":2.5,"subject_pos":-1,"motif":"","motif_pos":-1,"best_pos":6,"similarity":0.579,"stretto":false,"stretto_voices":0,"combination":[]},{"voice":0,"pitch":71,"start":332.4,"duration":1.2,"velocity":127,"measure":139,"beat":3.0,"subject_pos":-1,"motif":"","motif_pos":-1,"best_pos":6,"similarity":0.643,"stretto":false,"stretto_voices":0,"combination":[]},{"voice":1,"pitch":62,"start":332.4,"duration":0.3,"velocity":127,"measure":139,"beat":3.0,"subject_pos":-1,"motif":"","motif_pos":-1,"best_pos":6,"similarity":0.404,"stretto":false,"stretto_voices":0,"combination":[]},{"voice":1,"pitch":60,"start":332.7,"duration":0.3,"velocity":127,"measure":139,"beat":3.5,"subject_pos":-1,"motif":"","motif_pos":-1,"best_pos":2,"similarity":0.407,"stretto":false,"stretto_voices":0,"combination":[]},{"voice":1,"pitch":64,"start":333.0,"duration":0.3,"velocity":127,"measure":139,"beat":4.0,"subject_pos":-1,"motif":"","motif_pos":-1,"best_pos":1,"similarity":0.446,"stretto":false,"stretto_voices":0,"combination":[]},{"voice":2,"pitch":55,"start":333.0,"duration":0.6,"velocity":127,"measure":139,"beat":4.0,"subject_pos":-1,"motif":"","motif_pos":-1,"best_pos":2,"similarity":0.25,"stretto":false,"stretto_voices":0,"combination":[]},{"voice":1,"pitch":62,"start":333.3,"duration":0.3,"velocity":127,"measure":139,"beat":4.5,"subject_pos":-1,"motif":"","motif_pos":-1,"best_pos":5,"similarity":0.493,"stretto":false,"stretto_voices":0,"combination":[]},{"voice":0,"pitch":72,"start":333.6,"duration":1.2,"velocity":127,"measure":140,"beat":1.0,"subject_pos":-1,"motif":"","motif_pos":-1,"best_pos":7,"similarity":0.429,"stretto":false,"stretto_voices":0,"combination":[]},{"voice":1,"pitch":64,"start":333.6,"duration":0.3,"velocity":127,"measure":140,"beat":1.0,"subject_pos":-1,"motif":"","motif_pos":-1,"best_pos":6,"similarity":0.586,"stretto":false,"stretto_voices":0,"combination":[]},{"voice":2,"pitch":48,"start":333.6,"duration":0.3,"velocity":127,"measure":140,"beat":1.0,"subject_pos":-1,"motif":"","motif_pos":-1,"best_pos":0,"similarity":0.161,"stretto":false,"stretto_voices":0,"combination":[]},{"voice":1,"pitch":65,"start":333.9,"duration":0.3,"velocity":127,"measure":140,"beat":1.5,"subject_pos":-1,"motif":"","motif_pos":-1,"best_pos":5,"similarity":0.693,"stretto":false,"stretto_voices":0,"combination":[]},{"voice":2,"pitch":60,"start":333.9,"duration":0.3,"velocity":127,"measure":140,"beat":1.5,"subject_pos":-1,"motif":"","motif_pos":-1,"best_pos":1,"similarity":0.357,"stretto":false,"stretto_voices":0,"combination":[]},{"voice":1,"pitch":67,"start":334.2,"duration":0.3,"velocity":127,"measure":140,"beat":2.0,"subject_pos":-1,"motif":"","motif_pos":-1,"best_pos":5,"similarity":0.607,"stretto":false,"stretto_voices":0,"combination":[]},{"voice":2,"pitch":58,"start":334.2,"duration":0.3,"velocity":127,"measure":140,"beat":2.0,"subject_pos":-1,"motif":"","motif_pos":-1,"best_pos":3,"similarity":0.514,"stretto":false,"stretto_voices":0,"combination":[]},{"voice":1,"pitch":69,"start":334.5,"duration":0.3,"velocity":127,"measure":140,"beat":2.5,"subject_pos":-1,"motif":"","motif_pos":-1,"best_pos":6,"similarity":0.661,"stretto":false,"stretto_voices":0,"combination":[]},{"voice":2,"pitch":57,"start":334.5,"duration":0.3,"velocity":127,"measure":140,"beat":2.5,"subject_pos":-1,"motif":"","motif_pos":-1,"best_pos":4,"similarity":0.529,"stretto":false,"stretto_voices":0,"combination":[]},{"voice":1,"pitch":70,"start":334.8,"duration":0.3,"velocity":127,"measure":140,"beat":3.0,"subject_pos":-1,"motif":"","motif_pos":-1,"best_pos":7,"similarity":0.464,"stretto":false,"stretto_voices":0,"combination":[]},{"voice":2,"pitch":55,"start":334.8,"duration":0.3,"velocity":127,"measure":140,"beat":3.0,"subject_pos":-1,"motif":"","motif_pos":-1,"best_pos":5,"similarity":0.493,"stretto":false,"stretto_voices":0,"combination":[]},{"voice":1,"pitch":69,"start":335.1,"duration":0.3,"velocity":127,"measure":140,"beat":3.5,"subject_pos":-1,"motif":"","motif_pos":-1,"best_pos":4,"similarity":0.429,"stretto":false,"stretto_voices":0,"combination":[]},{"voice":2,"pitch":57,"start":335.1,"duration":0.3,"velocity":127,"measure":140,"beat":3.5,"subject_pos":-1,"motif":"","motif_pos":-1,"best_pos":6,"similarity":0.371,"stretto":false,"stretto_voices":0,"combination":[]},{"voice":1,"pitch":72,"start":335.4,"duration":0.3,"velocity":127,"measure":140,"beat":4.0,"subject_pos":-1,"motif":"","motif_pos":-1,"best_pos":1,"similarity":0.375,"stretto":false,"stretto_voices":0,"combination":[]},{"voice":2,"pitch":53,"start":335.4,"duration":0.3,"velocity":127,"measure":140,"beat":4.0,"subject_pos":-1,"motif":"","motif_pos":-1,"best_pos":4,"similarity":0.457,"stretto":false,"stretto_voices":0,"combination":[]},{"voice":1,"pitch":70,"start":335.7,"duration":0.3,"velocity":127,"measure":140,"beat":4.5,"subject_pos":-1,"motif":"","motif_pos":-1,"best_pos":2,"similarity":0.364,"stretto":false,"stretto_voices":0,"combination":[]},{"voice":2,"pitch":55,"start":335.7,"duration":0.3,"velocity":127,"measure":140,"beat":4.5,"subject_pos":-1,"motif":"","motif_pos":-1,"best_pos":5,"similarity":0.586,"stretto":false,"stretto_voices":0,"combination":[]},{"voice":1,"pitch":72,"start":336.0,"duration":0.6,"velocity":127,"measure":141,"beat":1.0,"subject_pos":-1,"motif":"","motif_pos":-1,"best_pos":2,"similarity":0.393,"stretto":false,"stretto_voices":0,"combination":[]},{"voice":2,"pitch":57,"start":336.0,"duration":0.3,"velocity":127,"measure":141,"beat":1.0,"subject_pos":-1,"motif":"","motif_pos":-1,"best_pos":6,"similarity":0.65,"stretto":false,"stretto_voices":0,"combination":[]},{"voice":0,"pitch":77,"start":336.3,"duration":0.3,"velocity":127,"measure":141,"beat":1.5,"subject_pos":-1,"motif":"","motif_pos":-1,"best_pos":1,"similarity":0.536,"stretto":false,"stretto_voices":0,"combination":[]},{"voice":2,"pitch":58,"start":336.3,"duration":0.3,"velocity":127,"measure":141,"beat":1.5,"subject_pos":-1,"motif":"","motif_pos":-1,"best_pos":5,"similarity":0.657,"stretto":false,"stretto_voices":0,"combination":[]},{"voice":0,"pitch":76,"start":336.6,"duration":0.3,"velocity":127,"measure":141,"beat":2.0,"subject_pos":-1,"motif":"","motif_pos":-1,"best_pos":2,"similarity":0.536,"stretto":false,"stretto_voices":0,"combination":[]},{"voice":2,"pitch":60,"start":336.6,"duration":0.3,"velocity":127,"measure":141,"beat":2.0,"subject_pos":-1,"motif":"","motif_pos":-1,"best_pos":6,"similarity":0.579,"stretto":false,"stretto_voices":0,"combination":[]},{"voice":0,"pitch":74,"start":336.9,"duration":0.3,"velocity":127,"measure":141,"beat":2.5,"subject_pos":-1,"motif":"","motif_pos":-1,"best_pos":3,"similarity":0.5,"stretto":false,"stretto_voices":0,"combination":[]},{"voice":2,"pitch":62,"start":336.9,"duration":0.3,"velocity":127,"measure":141,"beat":2.5,"subject_pos":-1,"motif":"","motif_pos":-1,"best_pos":6,"similarity":0.518,"stretto":false,"stretto_voices":0,"combination":[]},{"voice":0,"pitch":72,"start":337.2,"duration":0.3,"velocity":127,"measure":141,"beat":3.0,"subject_pos":-1,"motif":"","motif_pos":-1,"best_pos":4,"similarity":0.429,"stretto":false,"stretto_voices":0,"combination":[]},{"voice":2,"pitch":64,"start":337.2,"duration":0.3,"velocity":127,"measure":141,"beat":3.0,"subject_pos":-1,"motif":"","motif_pos":-1,"best_pos":6,"similarity":0.393,"stretto":false,"stretto_voices":0,"combination":[]},{"voice":0,"pitch":74,"start":337.5,"duration":0.3,"velocity":127,"measure":141,"beat":3.5,"subject_pos":-1,"motif":"","motif_pos":-1,"best_pos":6,"similarity":0.336,"stretto":false,"stretto_voices":0,"combination":[]},{"voice":2,"pitch":62,"start":337.5,"duration":0.3,"velocity":127,"measure":141,"beat":3.5,"subject_pos":-1,"motif":"","motif_pos":-1,"best_pos":2,"similarity":0.514,"stretto":false,"stretto_voices":0,"combination":[]},{"voice":0,"pitch":70,"start":337.8,"duration":0.3,"velocity":127,"measure":141,"beat":4.0,"subject_pos":-1,"motif":"","motif_pos":-1,"best_pos":2,"similarity":0.354,"stretto":false,"stretto_voices":0,"combination":[]},{"voice":2,"pitch":65,"start":337.8,"duration":0.3,"velocity":127,"measure":141,"beat":4.0,"subject_pos":-1,"motif":"","motif_pos":-1,"best_pos":3,"similarity":0.579,"stretto":false,"stretto_voices":0,"combination":[]},{"voice":0,"pitch":72,"start":338.1,"duration":0.3,"velocity":127,"measure":141,"beat":4.5,"subject_pos":-1,"motif":"","motif_pos":-1,"best_pos":2,"similarity":0.336,"stretto":false,"stretto_voices":0,"combination":[]},{"voice":2,"pitch":64,"start":338.1,"duration":0.3,"velocity":127,"measure":141,"beat":4.5,"subject_pos":-1,"motif":"enigmatic_cell","motif_pos":0,"best_pos":0,"similarity":1.0,"stretto":false,"stretto_voices":0,"combination":[]},{"voice":0,"pitch":69,"start":338.4,"duration":0.3,"velocity":127,"measure":142,"beat":1.0,"subject_pos":-1,"motif":"","motif_pos":-1,"best_pos":3,"similarity":0.35,"stretto":false,"stretto_voices":0,"combination":[]},{"voice":2,"pitch":65,"start":338.4,"duration":0.6,"velocity":127,"measure":142,"beat":1.0,"subject_pos":-1,"motif":"enigmatic_cell","motif_pos":1,"best_pos":1,"similarity":1.0,"stretto":false,"stretto_voices":0,"combination":[]},{"voice":0,"pitch":72,"start":338.7,"duration":0.3,"velocity":127,"measure":142,"beat":1.5,"subject_pos":-1,"motif":"","motif_pos":-1,"best_pos":1,"similarity":0.429,"stretto":false,"stretto_voices":0,"combination":[]},{"voice":1,"pitch":69,"start":338.7,"duration":0.3,"velocity":127,"measure":142,"beat":1.5,"subject_pos":-1,"motif":"","motif_pos":-1,"best_pos":3,"similarity":0.464,"stretto":false,"stretto_voices":0,"combination":[]},{"voice":0,"pitch":70,"start":339.0,"duration":0.3,"velocity":127,"measure":142,"beat":2.0,"subject_pos":-1,"motif":"","motif_pos":-1,"best_pos":3,"similarity":0.514,"stretto":false,"stretto_voices":0,"combination":[]},{"voice":1,"pitch":67,"start":339.0,"duration":0.3,"velocity":127,"measure":142,"beat":2.0,"subject_pos":-1,"motif":"","motif_pos":-1,"best_pos":2,"similarity":0.643,"stretto":false,"stretto_voices":0,"combination":[]},{"voice":2,"pitch":58,"start":339.0,"duration":0.6,"velocity":127,"measure":142,"beat":2.0,"subject_pos":-1,"motif":"enigmatic_cell","motif_pos":2,"best_pos":2,"similarity":1.0,"stretto":false,"stretto_voices":0,"combination":[]},{"voice":0,"pitch":69,"start":339.3,"duration":0.3,"velocity":127,"measure":142,"beat":2.5,"subject_pos":-1,"motif":"","motif_pos":-1,"best_pos":4,"similarity":0.529,"stretto":false,"stretto_voices":0,"combination":[]},{"voice":1,"pitch":65,"start":339.3,"duration":0.3,"velocity":127,"measure":142,"beat":2.5,"subject_pos":-1,"motif":"","motif_pos":-1,"best_pos":3,"similarity":0.714,"stretto":false,"stretto_voices":0,"combination":[]},{"voice":0,"pitch":67,"start":339.6,"duration":0.3,"velocity":127,"measure":142,"beat":3.0,"subject_pos":-1,"motif":"","motif_pos":-1,"best_pos":5,"similarity":0.493,"stretto":false,"stretto_voices":0,"combination":[]},{"voice":1,"pitch":64,"start":339.6,"duration":0.3,"velocity":127,"measure":142,"beat":3.0,"subject_pos":-1,"motif":"","motif_pos":-1,"best_pos":4,"similarity":0.75,"stretto":false,"stretto_voices":0,"combination":[]},{"voice":2,"pitch":60,"start":339.6,"duration":0.6,"velocity":127,"measure":142,"beat":3.0,"subject_pos":-1,"motif":"","motif_pos":-1,"best_pos":6,"similarity":0.304,"stretto":false,"stretto_voices":0,"combination":[]},{"voice":0,"pitch":69,"start":339.9,"duration":0.3,"velocity":127,"measure":142,"beat":3.5,"subject_pos":-1,"motif":"","motif_pos":-1,"best_pos":6,"similarity":0.371,"stretto":false,"stretto_voices":0,"combination":[]},{"voice":1,"pitch":65,"start":339.9,"duration":0.3,"velocity":127,"measure":142,"beat":3.5,"subject_pos":-1,"motif":"","motif_pos":-1,"best_pos":5,"similarity":0.536,"stretto":false,"stretto_voices":0,"combination":[]},{"voice":0,"pitch":65,"start":340.2,"duration":0.3,"velocity":127,"measure":142,"beat":4.0,"subject_pos":-1,"motif":"","motif_pos":-1,"best_pos":5,"similarity":0.407,"stretto":false,"stretto_voices":0,"combination":[]},{"voice":1,"pitch":62,"start":340.2,"duration":0.3,"velocity":127,"measure":142,"beat":4.0,"subject_pos":-1,"motif":"","motif_pos":-1,"best_pos":5,"similarity":0.511,"stretto":false,"stretto_voices":0,"combination":[]},{"voice":2,"pitch":48,"start":340.2,"duration":0.6,"velocity":127,"measure":142,"beat":4.0,"subject_pos":-1,"motif":"","motif_pos":-1,"best_pos":0,"similarity":0.3,"stretto":false,"stretto_voices":0,"combination":[]},{"voice":0,"pitch":67,"start":340.5,"duration":0.3,"velocity":127,"measure":142,"beat":4.5,"subject_pos":-1,"motif":"","motif_pos":-1,"best_pos":5,"similarity":0.457,"stretto":false,"stretto_voices":0,"combination":[]},{"voice":1,"pitch":64,"start":340.5,"duration":0.3,"velocity":127,"measure":142,"beat":4.5,"subject_pos":-1,"motif":"enigmatic_cell","motif_pos":0,"best_pos":0,"similarity":1.0,"stretto":false,"stretto_voices":0,"combination":[]},{"voice":0,"pitch":69,"start":340.8,"duration":1.2,"velocity":127,"measure":143,"beat":1.0,"subject_pos":-1,"motif":"","motif_pos":-1,"best_pos":1,"similarity":0.457,"stretto":false,"stretto_voices":0,"combination":[]},{"voice":1,"pitch":65,"start":340.8,"duration":0.3,"velocity":127,"measure":143,"beat":1.0,"subject_pos":-1,"motif":"enigmatic_cell","motif_pos":1,"best_pos":1,"similarity":1.0,"stretto":false,"stretto_voices":0,"combination":[]},{"voice":2,"pitch":53,"start":340.8,"duration":0.3,"velocity":127,"measure":143,"beat":1.0,"subject_pos":-1,"motif":"","motif_pos":-1,"best_pos":5,"similarity":0.386,"stretto":false,"stretto_voices":0,"combination":[]},{"voice":1,"pitch":60,"start":341.1,"duration":0.3,"velocity":127,"measure":143,"beat":1.5,"subject_pos":-1,"motif":"enigmatic_cell","motif_pos":2,"best_pos":2,"similarity":1.0,"stretto":false,"stretto_voices":0,"combination":[]},{"voice":2,"pitch":55,"start":341.1,"duration":0.3,"velocity":127,"measure":143,"beat":1.5,"subject_pos":-1,"motif":"","motif_pos":-1,"best_pos":5,"similarity":0.571,"stretto":false,"stretto_voices":0,"combination":[]},{"voice":1,"pitch":65,"start":341.4,"duration":1.2,"velocity":127,"measure":143,"beat":2.0,"subject_pos":-1,"motif":"","motif_pos":-1,"best_pos":1,"similarity":0.518,"stretto":false,"stretto_voices":0,"combination":[]},{"voice":2,"pitch":57,"start":341.4,"duration":0.3,"velocity":127,"measure":143,"beat":2.0,"subject_pos":-1,"motif":"","motif_pos":-1,"best_pos":6,"similarity":0.643,"stretto":false,"stretto_voices":0,"combination":[]},{"voice":2,"pitch":58,"start":341.7,"duration":0.3,"velocity":127,"measure":143,"beat":2.5,"subject_pos":-1,"motif":"","motif_pos":-1,"best_pos":5,"similarity":0.621,"stretto":false,"stretto_voices":0,"combination":[]},{"voice":0,"pitch":67,"start":342.0,"duration":1.2,"velocity":127,"measure":143,"beat":3.0,"subject_pos":-1,"motif":"","motif_pos":-1,"best_pos":2,"similarity":0.593,"stretto":false,"stretto_voices":0,"combination":[]},{"voice":2,"pitch":60,"start":342.0,"duration":0.3,"velocity":127,"measure":143,"beat":3.0,"subject_pos":-1,"motif":"bach_transposed","motif_pos":0,"best_pos":0,"similarity":1.0,"stretto":false,"stretto_voices":0,"combination":[]},{"voice":2,"pitch":59,"start":342.3,"duration":0.3,"velocity":127,"measure":143,"beat":3.5,"subject_pos":-1,"motif":"bach_transposed","motif_pos":1,"best_pos":1,"similarity":1.0,"stretto":false,"stretto_voices":0,"combination":[]},{"voice":1,"pitch":64,"start":342.6,"duration":1.2,"velocity":127,"measure":143,"beat":4.0,"subject_pos":-1,"motif":"","motif_pos":-1,"best_pos":2,"similarity":0.5,"stretto":false,"stretto_voices":0,"combination":[]},{"voice":2,"pitch":62,"start":342.6,"duration":0.3,"velocity":127,"measure":143,"beat":4.0,"subject_pos":-1,"motif":"bach_transposed","motif_pos":2,"best_pos":2,"similarity":1.0,"stretto":false,"stretto_voices":0,"combination":[]},{"voice":2,"pitch":61,"start":342.9,"duration":0.3,"velocity":127,"measure":143,"beat":4.5,"subject_pos":-1,"motif":"bach_transposed","motif_pos":3,"best_pos":3,"similarity":1.0,"stretto":false,"stretto_voices":0,"combination":[]},{"voice":0,"pitch":65,"start":343.2,"duration":1.2,"velocity":127,"measure":144,"beat":1.0,"subject_pos":-1,"motif":"","motif_pos":-1,"best_pos":3,"similarity":0.593,"stretto":false,"stretto_voices":0,"combination":[]},{"voice":2,"pitch":62,"start":343.2,"duration":0.3,"velocity":127,"measure":144,"beat":1.0,"subject_pos":-1,"motif":"","motif_pos":-1,"best_pos":5,"similarity":0.5,"stretto":false,"stretto_voices":0,"combination":[]},{"voice":2,"pitch":47,"start":343.5,"duration":0.3,"velocity":127,"measure":144,"beat":1.5,"subject_pos":-1,"motif":"","motif_pos":-1,"best_pos":5,"similarity":0.482,"stretto":false,"stretto_voices":0,"combination":[]},{"voice":1,"pitch":62,"start":343.8,"duration":0.9,"velocity":127,"measure":144,"beat":2.0,"subject_pos":-1,"motif":"","motif_pos":-1,"best_pos":2,"similarity":0.604,"stretto":false,"stretto_voices":0,"combination":[]},{"voice":2,"pitch":49,"start":343.8,"duration":0.3,"velocity":127,"measure":144,"beat":2.0,"subject_pos":-1,"motif":"","motif_pos":-1,"best_pos":6,"similarity":0.589,"stretto":false,"stretto_voices":0,"combination":[]},{"voice":2,"pitch":50,"start":344.1,"duration":0.3,"velocity":127,"measure":144,"beat":2.5,"subject_pos":-1,"motif":"","motif_pos":-1,"best_pos":5,"similarity":0.6,"stretto":false,"stretto_voices":0,"combination":[]},{"voice":0,"pitch":64,"start":344.4,"duration":1.2,"velocity":127,"measure":144,"beat":3.0,"subject_pos":-1,"motif":"","motif_pos":-1,"best_pos":4,"similarity":0.475,"stretto":false,"stretto_voices":0,"combination":[]},{"voice":2,"pitch":52,"start":344.4,"duration":0.3,"velocity":127,"measure":144,"beat":3.0,"subject_pos":-1,"motif":"","motif_pos":-1,"best_pos":6,"similarity":0.464,"stretto":false,"stretto_voices":0,"combination":[]},{"voice":1,"pitch":59,"start":344.7,"duration":0.3,"velocity":127,"measure":144,"beat":3.5,"subject_pos":-1,"motif":"","motif_pos":-1,"best_pos":3,"similarity":0.493,"stretto":false,"stretto_voices":0,"combination":[]},{"voice":2,"pitch":50,"start":344.7,"duration":0.3,"velocity":127,"measure":144,"beat":3.5,"subject_pos":0,"motif":"subject","motif_pos":0,"best_pos":0,"similarity":1.0,"stretto":false,"stretto_voices":0,"combination":[]},{"voice":1,"pitch":61,"start":345.0,"duration":0.3,"velocity":127,"measure":144,"beat":4.0,"subject_pos":-1,"motif":"","motif_pos":-1,"best_pos":6,"similarity":0.407,"stretto":false,"stretto_voices":0,"combination":[]},{"voice":2,"pitch":53,"start":345.0,"duration":0.3,"velocity":127,"measure":144,"beat":4.0,"subject_pos":-1,"motif":"subject","motif_pos":0,"best_pos":0,"similarity":1.0,"stretto":false,"stretto_voices":0,"combination":[]},{"voice":1,"pitch":64,"start":345.3,"duration":0.3,"velocity":127,"measure":144,"beat":4.5,"subject_pos":-1,"motif":"head_inv","motif_pos":0,"best_pos":0,"similarity":1.0,"stretto":false,"stretto_voices":0,"combination":[]},{"voice":2,"pitch":52,"start":345.3,"duration":0.3,"velocity":127,"measure":144,"beat":4.5,"subject_pos":-1,"motif":"subject","motif_pos":0,"best_pos":0,"similarity":1.0,"stretto":false,"stretto_voices":0,"combination":[]},{"voice":0,"pitch":62,"start":345.6,"duration":0.6,"velocity":127,"measure":145,"beat":1.0,"subject_pos":-1,"motif":"","motif_pos":-1,"best_pos":2,"similarity":0.436,"stretto":false,"stretto_voices":0,"combination":[]},{"voice":1,"pitch":57,"start":345.6,"duration":0.3,"velocity":127,"measure":145,"beat":1.0,"subject_pos":-1,"motif":"head_inv","motif_pos":1,"best_pos":1,"similarity":1.0,"stretto":false,"stretto_voices":0,"combination":[]},{"voice":2,"pitch":55,"start":345.6,"duration":0.3,"velocity":127,"measure":145,"beat":1.0,"subject_pos":1,"motif":"subject","motif_pos":1,"best_pos":1,"similarity":1.0,"stretto":false,"stretto_voices":0,"combination":[]},{"voice":1,"pitch":59,"start":345.9,"duration":0.3,"velocity":127,"measure":145,"beat":1.5,"subject_pos":-1,"motif":"head_inv","motif_pos":2,"best_pos":2,"similarity":1.0,"stretto":false,"stretto_voices":0,"combination":[]},{"voice":2,"pitch":53,"start":345.9,"duration":0.3,"velocity":127,"measure":145,"beat":1.5,"subject_pos":2,"motif":"subject","motif_pos":2,"best_pos":2,"similarity":1.0,"stretto":false,"stretto_voices":0,"combination":[]},{"voice":1,"pitch":61,"start":346.2,"duration":0.3,"velocity":127,"measure":145,"beat":2.0,"subject_pos":-1,"motif":"head_inv","motif_pos":3,"best_pos":3,"similarity":1.0,"stretto":false,"stretto_voices":0,"combination":[]},{"voice":2,"pitch":52,"start":346.2,"duration":0.3,"velocity":127,"measure":145,"beat":2.0,"subject_pos":3,"motif":"subject","motif_pos":3,"best_pos":3,"similarity":1.0,"stretto":false,"stretto_voices":0,"combination":[]},{"voice":1,"pitch":62,"start":346.5,"duration":0.3,"velocity":127,"measure":145,"beat":2.5,"subject_pos":-1,"motif":"head_inv","motif_pos":4,"best_pos":4,"similarity":1.0,"stretto":false,"stretto_voices":0,"combination":[]},{"voice":2,"pitch":50,"start":346.5,"duration":0.3,"velocity":127,"measure":145,"beat":2.5,"subject_pos":4,"motif":"subject","motif_pos":4,"best_pos":4,"similarity":1.0,"stretto":false,"stretto_voices":0,"combination":[]},{"voice":1,"pitch":64,"start":346.8,"duration":0.3,"velocity":127,"measure":145,"beat":3.0,"subject_pos":-1,"motif":"","motif_pos":-1,"best_pos":6,"similarity":0.464,"stretto":false,"stretto_voices":0,"combination":[]},{"voice":2,"pitch":49,"start":346.8,"duration":0.3,"velocity":127,"measure":145,"beat":3.0,"subject_pos":5,"motif":"subject","motif_pos":5,"best_pos":5,"similarity":1.0,"stretto":false,"stretto_voices":0,"combination":[]},{"voice":1,"pitch":62,"start":347.1,"duration":0.3,"velocity":127,"measure":145,"beat":3.5,"subject_pos":-1,"motif":"","motif_pos":-1,"best_pos":2,"similarity":0.461,"stretto":false,"stretto_voices":0,"combination":[]},{"voice":2,"pitch":50,"start":347.1,"duration":0.3,"velocity":127,"measure":145,"beat":3.5,"subject_pos":-1,"motif":"subject","motif_pos":5,"best_pos":5,"similarity":1.0,"stretto":false,"stretto_voices":0,"combination":[]},{"voice":1,"pitch":65,"start":347.4,"duration":0.3,"velocity":127,"measure":145,"beat":4.0,"subject_pos":-1,"motif":"bach_transposed","motif_pos":0,"best_pos":0,"similarity":1.0,"stretto":false,"stretto_voices":0,"combination":["bach_family","subject_family"]},{"voice":2,"pitch":47,"start":347.4,"duration":0.3,"velocity":127,"measure":145,"beat":4.0,"subject_pos":6,"motif":"subject","motif_pos":6,"best_pos":6,"similarity":1.0,"stretto":false,"stretto_voices":0,"combination":["bach_family","subject_family"]},{"voice":1,"pitch":64,"start":347.7,"duration":0.3,"velocity":127,"measure":145,"beat":4.5,"subject_pos":-1,"motif":"bach_transposed","motif_pos":1,"best_pos":1,"similarity":1.0,"stretto":false,"stretto_voices":0,"combination":["bach_family","subject_family"]},{"voice":2,"pitch":48,"start":347.7,"duration":0.3,"velocity":127,"measure":145,"beat":4.5,"subject_pos":7,"motif":"subject","motif_pos":7,"best_pos":7,"similarity":1.0,"stretto":false,"stretto_voices":0,"combination":["bach_family","subject_family"]},{"voice":1,"pitch":67,"start":348.0,"duration":0.3,"velocity":127,"measure":146,"beat":1.0,"subject_pos":-1,"motif":"bach_transposed","motif_pos":2,"best_pos":2,"similarity":1.0,"stretto":false,"stretto_voices":0,"combination":["bach_family","subject_family"]},{"voice":2,"pitch":50,"start":348.0,"duration":0.3,"velocity":127,"measure":146,"beat":1.0,"subject_pos":8,"motif":"subject","motif_pos":8,"best_pos":0,"similarity":1.0,"stretto":false,"stretto_voices":0,"combination":["bach_family","subject_family"]},{"voice":1,"pitch":66,"start":348.3,"duration":0.3,"velocity":127,"measure":146,"beat":1.5,"subject_pos":-1,"motif":"bach_transposed","motif_pos":3,"best_pos":3,"similarity":1.0,"stretto":false,"stretto_voices":0,"combination":[]},{"voice":2,"pitch":48,"start":348.3,"duration":0.3,"velocity":127,"measure":146,"beat":1.5,"subject_pos":-1,"motif":"","motif_pos":-1,"best_pos":3,"similarity":0.471,"stretto":false,"stretto_voices":0,"combination":[]},{"voice":1,"pitch":68,"start":348.6,"duration":0.3,"velocity":127,"measure":146,"beat":2.0,"subject_pos":-1,"motif":"","motif_pos":-1,"best_pos":6,"similarity":0.614,"stretto":false,"stretto_voices":0,"combination":[]},{"voice":2,"pitch":47,"start":348.6,"duration":0.3,"velocity":127,"measure":146,"beat":2.0,"subject_pos":-1,"motif":"","motif_pos":-1,"best_pos":2,"similarity":0.5,"stretto":false,"stretto_voices":0,"combination":[]},{"voice":1,"pitch":69,"start":348.9,"duration":0.3,"velocity":127,"measure":146,"beat":2.5,"subject_pos":-1,"motif":"","motif_pos":-1,"best_pos":5,"similarity":0.618,"stretto":false,"stretto_voices":0,"combination":[]},{"voice":2,"pitch":45,"start":348.9,"duration":0.3,"velocity":127,"measure":146,"beat":2.5,"subject_pos":-1,"motif":"","motif_pos":-1,"best_pos":3,"similarity":0.643,"stretto":false,"stretto_voices":0,"combination":[]},{"voice":1,"pitch":71,"start":349.2,"duration":0.3,"velocity":127,"measure":146,"beat":3.0,"subject_pos":-1,"motif":"","motif_pos":-1,"best_pos":6,"similarity":0.464,"stretto":false,"stretto_voices":0,"combination":[]},{"voice":2,"pitch":44,"start":349.2,"duration":0.3,"velocity":127,"measure":146,"beat":3.0,"subject_pos":-1,"motif":"","motif_pos":-1,"best_pos":4,"similarity":0.714,"stretto":false,"stretto_voices":0,"combination":[]},{"voice":1,"pitch":69,"start":349.5,"duration":0.3,"velocity":127,"measure":146,"beat":3.5,"subject_pos":-1,"motif":"","motif_pos":-1,"best_pos":2,"similarity":0.461,"stretto":false,"stretto_voices":0,"combination":[]},{"voice":2,"pitch":45,"start":349.5,"duration":0.3,"velocity":127,"measure":146,"beat":3.5,"subject_pos":-1,"motif":"","motif_pos":-1,"best_pos":5,"similarity":0.536,"stretto":false,"stretto_voices":0,"combination":[]},{"voice":1,"pitch":72,"start":349.8,"duration":0.3,"velocity":127,"measure":146,"beat":4.0,"subject_pos":-1,"motif":"","motif_pos":-1,"best_pos":3,"similarity":0.479,"stretto":false,"stretto_voices":0,"combination":[]},{"voice":2,"pitch":42,"start":349.8,"duration":0.3,"velocity":127,"measure":146,"beat":4.0,"subject_pos":-1,"motif":"","motif_pos":-1,"best_pos":5,"similarity":0.511,"stretto":false,"stretto_voices":0,"combination":[]},{"voice":1,"pitch":71,"start":350.1,"duration":0.3,"velocity":127,"measure":146,"beat":4.5,"subject_pos":-1,"motif":"","motif_pos":-1,"best_pos":4,"similarity":0.461,"stretto":false,"stretto_voices":0,"combination":[]},{"voice":2,"pitch":44,"start":350.1,"duration":0.3,"velocity":127,"measure":146,"beat":4.5,"subject_pos":-1,"motif":"","motif_pos":-1,"best_pos":6,"similarity":0.604,"stretto":false,"stretto_voices":0,"combination":[]},{"voice":1,"pitch":74,"start":350.4,"duration":0.3,"velocity":127,"measure":147,"beat":1.0,"subject_pos":-1,"motif":"","motif_pos":-1,"best_pos":1,"similarity":0.429,"stretto":false,"stretto_voices":0,"combination":[]},{"voice":2,"pitch":45,"start":350.4,"duration":0.6,"velocity":127,"measure":147,"beat":1.0,"subject_pos":-1,"motif":"","motif_pos":-1,"best_pos":7,"similarity":0.436,"stretto":false,"stretto_voices":0,"combination":[]},{"voice":1,"pitch":72,"start":350.7,"duration":0.3,"velocity":127,"measure":147,"beat":1.5,"subject_pos":-1,"motif":"","motif_pos":-1,"best_pos":3,"similarity":0.514,"stretto":false,"stretto_voices":0,"combination":[]},{"voice":1,"pitch":71,"start":351.0,"duration":0.3,"velocity":127,"measure":147,"beat":2.0,"subject_pos":-1,"motif":"","motif_pos":-1,"best_pos":4,"similarity":0.6,"stretto":false,"stretto_voices":0,"combination":[]},{"voice":2,"pitch":57,"start":351.0,"duration":1.2,"velocity":127,"measure":147,"beat":2.0,"subject_pos":-1,"motif":"","motif_pos":-1,"best_pos":3,"similarity":0.486,"stretto":false,"stretto_voices":0,"combination":[]},{"voice":1,"pitch":69,"start":351.3,"duration":0.3,"velocity":127,"measure":147,"beat":2.5,"subject_pos":-1,"motif":"","motif_pos":-1,"best_pos":5,"similarity":0.636,"stretto":false,"stretto_voices":0,"combination":[]},{"voice":0,"pitch":77,"start":351.6,"duration":1.2,"velocity":127,"measure":147,"beat":3.0,"subject_pos":-1,"motif":"enigmatic_cell","motif_pos":0,"best_pos":0,"similarity":1.0,"stretto":false,"stretto_voices":0,"combination":[]},{"voice":1,"pitch":71,"start":351.6,"duration":0.3,"velocity":127,"measure":147,"beat":3.0,"subject_pos":-1,"motif":"","motif_pos":-1,"best_pos":6,"similarity":0.657,"stretto":false,"stretto_voices":0,"combination":[]},{"voice":1,"pitch":72,"start":351.9,"duration":0.3,"velocity":127,"measure":147,"beat":3.5,"subject_pos":-1,"motif":"","motif_pos":-1,"best_pos":7,"similarity":0.436,"stretto":false,"stretto_voices":0,"combination":[]},{"voice":1,"pitch":71,"start":352.2,"duration":0.3,"velocity":127,"measure":147,"beat":4.0,"subject_pos":-1,"motif":"","motif_pos":-1,"best_pos":4,"similarity":0.421,"stretto":false,"stretto_voices":0,"combination":[]},{"voice":2,"pitch":56,"start":352.2,"duration":0.6,"velocity":127,"measure":147,"beat":4.0,"subject_pos":-1,"motif":"","motif_pos":-1,"best_pos":4,"similarity":0.65,"stretto":false,"stretto_voices":0,"combination":[]},{"voice":1,"pitch":74,"start":352.5,"duration":0.3,"velocity":127,"measure":147,"beat":4.5,"subject_pos":-1,"motif":"","motif_pos":-1,"best_pos":6,"similarity":0.339,"stretto":false,"stretto_voices":0,"combination":[]},{"voice":0,"pitch":76,"start":352.8,"duration":0.6,"velocity":127,"measure":148,"beat":1.0,"subject_pos":-1,"motif":"enigmatic_cell","motif_pos":1,"best_pos":1,"similarity":1.0,"stretto":false,"stretto_voices":0,"combination":[]},{"voice":1,"pitch":74,"start":352.8,"duration":0.3,"velocity":127,"measure":148,"beat":1.0,"subject_pos":-1,"motif":"","motif_pos":-1,"best_pos":2,"similarity":0.464,"stretto":false,"stretto_voices":0,"combination":[]},{"voice":2,"pitch":57,"start":352.8,"duration":0.6,"velocity":127,"measure":148,"beat":1.0,"subject_pos":-1,"motif":"","motif_pos":-1,"best_pos":5,"similarity":0.571,"stretto":false,"stretto_voices":0,"combination":[]},{"voice":1,"pitch":71,"start":353.1,"duration":0.3,"velocity":127,"measure":148,"beat":1.5,"subject_pos":-1,"motif":"","motif_pos":-1,"best_pos":3,"similarity":0.5,"stretto":false,"stretto_voices":0,"combination":[]},{"voice":0,"pitch":81,"start":353.4,"duration":0.6,"velocity":127,"measure":148,"beat":2.0,"subject_pos":-1,"motif":"enigmatic_cell","motif_pos":2,"best_pos":2,"similarity":1.0,"stretto":false,"stretto_voices":0,"combination":[]},{"voice":1,"pitch":72,"start":353.4,"duration":0.3,"velocity":127,"measure":148,"beat":2.0,"subject_pos":-1,"motif":"","motif_pos":-1,"best_pos":5,"similarity":0.471,"stretto":false,"stretto_voices":0,"combination":[]},{"voice":2,"pitch":60,"start":353.4,"duration":0.6,"velocity":127,"measure":148,"beat":2.0,"subject_pos":-1,"motif":"","motif_pos":-1,"best_pos":6,"similarity":0.357,"stretto":false,"stretto_voices":0,"combination":[]},{"voice":1,"pitch":72,"start":353.7,"duration":0.3,"velocity":127,"measure":148,"beat":2.5,"subject_pos":-1,"motif":"","motif_pos":-1,"best_pos":4,"similarity":0.421,"stretto":false,"stretto_voices":0,"combination":[]},{"voice":0,"pitch":75,"start":354.0,"duration":0.6,"velocity":127,"measure":148,"beat":3.0,"subject_pos":-1,"motif":"","motif_pos":-1,"best_pos":2,"similarity":0.364,"stretto":false,"stretto_voices":0,"combination":[]},{"voice":1,"pitch":72,"start":354.0,"duration":0.3,"velocity":127,"measure":148,"beat":3.0,"subject_pos":-1,"motif":"","motif_pos":-1,"best_pos":5,"similarity":0.393,"stretto":false,"stretto_voices":0,"combination":[]},{"voice":2,"pitch":54,"start":354.0,"duration":0.6,"velocity":127,"measure":148,"beat":3.0,"subject_pos":-1,"motif":"","motif_pos":-1,"best_pos":5,"similarity":0.45,"stretto":false,"stretto_voices":0,"combination":[]},{"voice":1,"pitch":70,"start":354.3,"duration":0.3,"velocity":127,"measure":148,"beat":3.5,"subject_pos":-1,"motif":"","motif_pos":-1,"best_pos":4,"similarity":0.532,"stretto":false,"stretto_voices":0,"combination":[]},{"voice":0,"pitch":74,"start":354.6,"duration":0.6,"velocity":127,"measure":148,"beat":4.0,"subject_pos":-1,"motif":"","motif_pos":-1,"best_pos":4,"similarity":0.343,"stretto":false,"stretto_voices":0,"combination":[]},{"voice":1,"pitch":71,"start":354.6,"duration":0.3,"velocity":127,"measure":148,"beat":4.0,"subject_pos":-1,"motif":"","motif_pos":-1,"best_pos":5,"similarity":0.507,"stretto":false,"stretto_voices":0,"combination":[]},{"voice":2,"pitch":56,"start":354.6,"duration":0.6,"velocity":127,"measure":148,"beat":4.0,"subject_pos":-1,"motif":"","motif_pos":-1,"best_pos":6,"similarity":0.579,"stretto":false,"stretto_voices":0,"combination":[]},{"voice":1,"pitch":71,"start":354.9,"duration":0.3,"velocity":127,"measure":148,"beat":4.5,"subject_pos":-1,"motif":"","motif_pos":-1,"best_pos":4,"similarity":0.443,"stretto":false,"stretto_voices":0,"combination":[]},{"voice":0,"pitch":72,"start":355.2,"duration":0.6,"velocity":127,"measure":149,"beat":1.0,"subject_pos":-1,"motif":"","motif_pos":-1,"best_pos":0,"similarity":0.318,"stretto":false,"stretto_voices":0,"combination":[]},{"voice":1,"pitch":71,"start":355.2,"duration":0.3,"velocity":127,"measure":149,"beat":1.0,"subject_pos":-1,"motif":"","motif_pos":-1,"best_pos":2,"similarity":0.429,"stretto":false,"stretto_voices":0,"combination":[]},{"voice":1,"pitch":68,"start":355.5,"duration":0.3,"velocity":127,"measure":149,"beat":1.5,"subject_pos":-1,"motif":"","motif_pos":-1,"best_pos":3,"similarity":0.482,"stretto":false,"stretto_voices":0,"combination":[]},{"voice":0,"pitch":77,"start":355.8,"duration":0.6,"velocity":127,"measure":149,"beat":2.0,"subject_pos":-1,"motif":"","motif_pos":-1,"best_pos":1,"similarity":0.368,"stretto":false,"stretto_voices":0,"combination":[]},{"voice":1,"pitch":69,"start":355.8,"duration":0.3,"velocity":127,"measure":149,"beat":2.0,"subject_pos":-1,"motif":"","motif_pos":-1,"best_pos":5,"similarity":0.471,"stretto":false,"stretto_voices":0,"combination":[]},{"voice":2,"pitch":57,"start":355.8,"duration":0.6,"velocity":127,"measure":149,"beat":2.0,"subject_pos":-1,"motif":"","motif_pos":-1,"best_pos":4,"similarity":0.554,"stretto":false,"stretto_voices":0,"combination":[]},{"voice":1,"pitch":69,"start":356.1,"duration":0.3,"velocity":127,"measure":149,"beat":2.5,"subject_pos":-1,"motif":"","motif_pos":-1,"best_pos":6,"similarity":0.375,"stretto":false,"stretto_voices":0,"combination":[]},{"voice":0,"pitch":70,"start":356.4,"duration":1.2,"velocity":127,"measure":149,"beat":3.0,"subject_pos":-1,"motif":"","motif_pos":-1,"best_pos":3,"similarity":0.529,"stretto":false,"stretto_voices":0,"combination":[]},{"voice":1,"pitch":69,"start":356.4,"duration":0.3,"velocity":127,"measure":149,"beat":3.0,"subject_pos":-1,"motif":"","motif_pos":-1,"best_pos":1,"similarity":0.429,"stretto":false,"stretto_voices":0,"combination":[]},{"voice":2,"pitch":58,"start":356.4,"duration":0.6,"velocity":127,"measure":149,"beat":3.0,"subject_pos":-1,"motif":"","motif_pos":-1,"best_pos":5,"similarity":0.679,"stretto":false,"stretto_voices":0,"combination":[]},{"voice":1,"pitch":67,"start":356.7,"duration":0.3,"velocity":127,"measure":149,"beat":3.5,"subject_pos":-1,"motif":"","motif_pos":-1,"best_pos":2,"similarity":0.643,"stretto":false,"stretto_voices":0,"combination":[]},{"voice":1,"pitch":65,"start":357.0,"duration":0.3,"velocity":127,"measure":149,"beat":4.0,"subject_pos":-1,"motif":"","motif_pos":-1,"best_pos":3,"similarity":0.732,"stretto":false,"stretto_voices":0,"combination":[]},{"voice":2,"pitch":60,"start":357.0,"duration":0.6,"velocity":127,"measure":149,"beat":4.0,"subject_pos":-1,"motif":"","motif_pos":-1,"best_pos":6,"similarity":0.589,"stretto":false,"stretto_voices":0,"combination":[]},{"voice":1,"pitch":64,"start":357.3,"duration":0.3,"velocity":127,"measure":149,"beat":4.5,"subject_pos":-1,"motif":"","motif_pos":-1,"best_pos":4,"similarity":0.757,"stretto":false,"stretto_voices":0,"combination":[]},{"voice":0,"pitch":69,"start":357.6,"duration":0.6,"velocity":127,"measure":150,"beat":1.0,"subject_pos":-1,"motif":"","motif_pos":-1,"best_pos":4,"similarity":0.736,"stretto":false,"stretto_voices":0,"combination":[]},{"voice":1,"pitch":65,"start":357.6,"duration":0.3,"velocity":127,"measure":150,"beat":1.0,"subject_pos":-1,"motif":"","motif_pos":-1,"best_pos":5,"similarity":0.55,"stretto":false,"stretto_voices":0,"combination":[]},{"voice":1,"pitch":69,"start":357.9,"duration":0.3,"velocity":127,"measure":150,"beat":1.5,"subject_pos":-1,"motif":"","motif_pos":-1,"best_pos":1,"similarity":0.571,"stretto":false,"stretto_voices":0,"combination":[]},{"voice":0,"pitch":70,"start":358.2,"duration":0.6,"velocity":127,"measure":150,"beat":2.0,"subject_pos":-1,"motif":"","motif_pos":-1,"best_pos":5,"similarity":0.736,"stretto":false,"stretto_voices":0,"combination":[]},{"voice":1,"pitch":67,"start":358.2,"duration":0.3,"velocity":127,"measure":150,"beat":2.0,"subject_pos":-1,"motif":"","motif_pos":-1,"best_pos":2,"similarity":0.714,"stretto":false,"stretto_voices":0,"combination":[]},{"voice":2,"pitch":62,"start":358.2,"duration":0.6,"velocity":127,"measure":150,"beat":2.0,"subject_pos":-1,"motif":"","motif_pos":-1,"best_pos":1,"similarity":0.457,"stretto":false,"stretto_voices":0,"combination":[]},{"voice":1,"pitch":65,"start":358.5,"duration":0.3,"velocity":127,"measure":150,"beat":2.5,"subject_pos":-1,"motif":"","motif_pos":-1,"best_pos":3,"similarity":0.75,"stretto":false,"stretto_voices":0,"combination":[]},{"voice":0,"pitch":72,"start":358.8,"duration":0.3,"velocity":127,"measure":150,"beat":3.0,"subject_pos":-1,"motif":"","motif_pos":-1,"best_pos":6,"similarity":0.529,"stretto":false,"stretto_voices":0,"combination":[]},{"voice":1,"pitch":64,"start":358.8,"duration":0.3,"velocity":127,"measure":150,"beat":3.0,"subject_pos":-1,"motif":"","motif_pos":-1,"best_pos":4,"similarity":0.75,"stretto":false,"stretto_voices":0,"combination":[]},{"voice":2,"pitch":60,"start":358.8,"duration":0.6,"velocity":127,"measure":150,"beat":3.0,"subject_pos":-1,"motif":"","motif_pos":-1,"best_pos":2,"similarity":0.593,"stretto":false,"stretto_voices":0,"combination":[]},{"voice":0,"pitch":70,"start":359.1,"duration":0.3,"velocity":127,"measure":150,"beat":3.5,"subject_pos":-1,"motif":"","motif_pos":-1,"best_pos":5,"similarity":0.336,"stretto":false,"stretto_voices":0,"combination":[]},{"voice":1,"pitch":65,"start":359.1,"duration":0.3,"velocity":127,"measure":150,"beat":3.5,"subject_pos":-1,"motif":"","motif_pos":-1,"best_pos":5,"similarity":0.536,"stretto":false,"stretto_voices":0,"combination":[]},{"voice":0,"pitch":72,"start":359.4,"duration":0.6,"velocity":127,"measure":150,"beat":4.0,"subject_pos":-1,"motif":"","motif_pos":-1,"best_pos":6,"similarity":0.307,"stretto":false,"stretto_voices":0,"combination":[]},{"voice":1,"pitch":62,"start":359.4,"duration":0.3,"velocity":127,"measure":150,"beat":4.0,"subject_pos":-1,"motif":"","motif_pos":-1,"best_pos":5,"similarity":0.511,"stretto":false,"stretto_voices":0,"combination":[]},{"voice":2,"pitch":58,"start":359.4,"duration":0.6,"velocity":127,"measure":150,"beat":4.0,"subject_pos":-1,"motif":"","motif_pos":-1,"best_pos":3,"similarity":0.664,"stretto":false,"stretto_voices":0,"combination":[]},{"voice":1,"pitch":64,"start":359.7,"duration":0.3,"velocity":127,"measure":150,"beat":4.5,"subject_pos":-1,"motif":"","motif_pos":-1,"best_pos":6,"similarity":0.604,"stretto":false,"stretto_voices":0,"combination":[]},{"voice":0,"pitch":65,"start":360.0,"duration":0.6,"velocity":127,"measure":151,"beat":1.0,"subject_pos":-1,"motif":"","motif_pos":-1,"best_pos":2,"similarity":0.193,"stretto":false,"stretto_voices":0,"combination":[]},{"voice":1,"pitch":65,"start":360.0,"duration":0.3,"velocity":127,"measure":151,"beat":1.0,"subject_pos":-1,"motif":"","motif_pos":-1,"best_pos":5,"similarity":0.479,"stretto":false,"stretto_voices":0,"combination":[]},{"voice":1,"pitch":69,"start":360.3,"duration":0.3,"velocity":127,"measure":151,"beat":1.5,"subject_pos":-1,"motif":"","motif_pos":-1,"best_pos":6,"similarity":0.293,"stretto":false,"stretto_voices":0,"combination":[]},{"voice":0,"pitch":77,"start":360.6,"duration":0.9,"velocity":127,"measure":151,"beat":2.0,"subject_pos":-1,"motif":"","motif_pos":-1,"best_pos":3,"similarity":0.357,"stretto":false,"stretto_voices":0,"combination":[]},{"voice":1,"pitch":72,"start":360.6,"duration":0.3,"velocity":127,"measure":151,"beat":2.0,"subject_pos":-1,"motif":"","motif_pos":-1,"best_pos":1,"similarity":0.393,"stretto":false,"stretto_voices":0,"combination":[]},{"voice":2,"pitch":57,"start":360.6,"duration":0.3,"velocity":127,"measure":151,"beat":2.0,"subject_pos":-1,"motif":"","motif_pos":-1,"best_pos":4,"similarity":0.636,"stretto":false,"stretto_voices":0,"combination":[]},{"voice":1,"pitch":70,"start":360.9,"duration":0.3,"velocity":127,"measure":151,"beat":2.5,"subject_pos":-1,"motif":"","motif_pos":-1,"best_pos":2,"similarity":0.411,"stretto":false,"stretto_voices":0,"combination":[]},{"voice":2,"pitch":55,"start":360.9,"duration":0.3,"velocity":127,"measure":151,"beat":2.5,"subject_pos":-1,"motif":"","motif_pos":-1,"best_pos":4,"similarity":0.607,"stretto":false,"stretto_voices":0,"combination":[]},{"voice":1,"pitch":72,"start":361.2,"duration":0.6,"velocity":127,"measure":151,"beat":3.0,"subject_pos":-1,"motif":"","motif_pos":-1,"best_pos":6,"similarity":0.45,"stretto":false,"stretto_voices":0,"combination":[]},{"voice":2,"pitch":57,"start":361.2,"duration":0.6,"velocity":127,"measure":151,"beat":3.0,"subject_pos":-1,"motif":"","motif_pos":-1,"best_pos":5,"similarity":0.661,"stretto":false,"stretto_voices":0,"combination":[]},{"voice":0,"pitch":76,"start":361.5,"duration":0.3,"velocity":127,"measure":151,"beat":3.5,"subject_pos":-1,"motif":"","motif_pos":-1,"best_pos":4,"similarity":0.411,"stretto":false,"stretto_voices":0,"combination":[]},{"voice":0,"pitch":74,"start":361.8,"duration":0.3,"velocity":127,"measure":151,"beat":4.0,"subject_pos":-1,"motif":"","motif_pos":-1,"best_pos":2,"similarity":0.436,"stretto":false,"stretto_voices":0,"combination":[]},{"voice":2,"pitch":59,"start":361.8,"duration":0.6,"velocity":127,"measure":151,"beat":4.0,"subject_pos":-1,"motif":"","motif_pos":-1,"best_pos":6,"similarity":0.679,"stretto":false,"stretto_voices":0,"combination":[]},{"voice":0,"pitch":77,"start":362.1,"duration":0.3,"velocity":127,"measure":151,"beat":4.5,"subject_pos":-1,"motif":"enigmatic_cell","motif_pos":0,"best_pos":0,"similarity":1.0,"stretto":false,"stretto_voices":0,"combination":[]},{"voice":0,"pitch":76,"start":362.4,"duration":0.6,"velocity":127,"measure":152,"beat":1.0,"subject_pos":-1,"motif":"enigmatic_cell","motif_pos":1,"best_pos":1,"similarity":1.0,"stretto":false,"stretto_voices":0,"combination":[]},{"voice":2,"pitch":60,"start":362.4,"duration":0.3,"velocity":127,"measure":152,"beat":1.0,"subject_pos":-1,"motif":"","motif_pos":-1,"best_pos":5,"similarity":0.6,"stretto":false,"stretto_voices":0,"combination":[]},{"voice":2,"pitch":62,"start":362.7,"duration":0.3,"velocity":127,"measure":152,"beat":1.5,"subject_pos":-1,"motif":"","motif_pos":-1,"best_pos":6,"similarity":0.464,"stretto":false,"stretto_voices":0,"combination":[]},{"voice":0,"pitch":81,"start":363.0,"duration":0.3,"velocity":127,"measure":152,"beat":2.0,"subject_pos":-1,"motif":"enigmatic_cell","motif_pos":2,"best_pos":2,"similarity":1.0,"stretto":false,"stretto_voices":0,"combination":[]},{"voice":2,"pitch":60,"start":363.0,"duration":0.3,"velocity":127,"measure":152,"beat":2.0,"subject_pos":-1,"motif":"","motif_pos":-1,"best_pos":3,"similarity":0.5,"stretto":false,"stretto_voices":0,"combination":[]},{"voice":0,"pitch":80,"start":363.3,"duration":0.3,"velocity":127,"measure":152,"beat":2.5,"subject_pos":-1,"motif":"enigmatic_cell","motif_pos":0,"best_pos":0,"similarity":1.0,"stretto":false,"stretto_voices":0,"combination":[]},{"voice":2,"pitch":59,"start":363.3,"duration":0.3,"velocity":127,"measure":152,"beat":2.5,"subject_pos":-1,"motif":"","motif_pos":-1,"best_pos":4,"similarity":0.464,"stretto":false,"stretto_voices":0,"combination":[]},{"voice":0,"pitch":81,"start":363.6,"duration":0.6,"velocity":127,"measure":152,"beat":3.0,"subject_pos":-1,"motif":"enigmatic_cell","motif_pos":1,"best_pos":1,"similarity":1.0,"stretto":false,"stretto_voices":0,"combination":[]},{"voice":1,"pitch":72,"start":363.6,"duration":1.2,"velocity":127,"measure":152,"beat":3.0,"subject_pos":-1,"motif":"enigmatic_cell","motif_pos":0,"best_pos":0,"similarity":1.0,"stretto":false,"stretto_voices":0,"combination":[]},{"voice":2,"pitch":57,"start":363.6,"duration":0.3,"velocity":127,"measure":152,"beat":3.0,"subject_pos":-1,"motif":"","motif_pos":-1,"best_pos":4,"similarity":0.354,"stretto":false,"stretto_voices":0,"combination":[]},{"voice":2,"pitch":60,"start":363.9,"duration":0.3,"velocity":127,"measure":152,"beat":3.5,"subject_pos":-1,"motif":"","motif_pos":-1,"best_pos":4,"similarity":0.243,"stretto":false,"stretto_voices":0,"combination":[]},{"voice":0,"pitch":75,"start":364.2,"duration":0.6,"velocity":127,"measure":152,"beat":4.0,"subject_pos":-1,"motif":"enigmatic_cell","motif_pos":2,"best_pos":2,"similarity":1.0,"stretto":false,"stretto_voices":0,"combination":[]},{"voice":2,"pitch":66,"start":364.2,"duration":0.3,"velocity":127,"measure":152,"beat":4.0,"subject_pos":-1,"motif":"","motif_pos":-1,"best_pos":5,"similarity":0.264,"stretto":false,"stretto_voices":0,"combination":[]},{"voice":2,"pitch":69,"start":364.5,"duration":0.3,"velocity":127,"measure":152,"beat":4.5,"subject_pos":-1,"motif":"","motif_pos":-1,"best_pos":1,"similarity":0.304,"stretto":false,"stretto_voices":0,"combination":[]},{"voice":0,"pitch":76,"start":364.8,"duration":0.6,"velocity":127,"measure":153,"beat":1.0,"subject_pos":-1,"motif":"","motif_pos":-1,"best_pos":5,"similarity":0.436,"stretto":false,"stretto_voices":0,"combination":[]},{"voice":1,"pitch":71,"start":364.8,"duration":0.6,"velocity":127,"measure":153,"beat":1.0,"subject_pos":-1,"motif":"enigmatic_cell","motif_pos":1,"best_pos":1,"similarity":1.0,"stretto":false,"stretto_voices":0,"combination":[]},{"voice":2,"pitch":69,"start":364.8,"duration":0.3,"velocity":127,"measure":153,"beat":1.0,"subject_pos":-1,"motif":"","motif_pos":-1,"best_pos":2,"similarity":0.464,"stretto":false,"stretto_voices":0,"combination":[]},{"voice":2,"pitch":66,"start":365.1,"duration":0.3,"velocity":127,"measure":153,"beat":1.5,"subject_pos":-1,"motif":"","motif_pos":-1,"best_pos":3,"similarity":0.5,"stretto":false,"stretto_voices":0,"combination":[]},{"voice":0,"pitch":79,"start":365.4,"duration":0.6,"velocity":127,"measure":153,"beat":2.0,"subject_pos":-1,"motif":"","motif_pos":-1,"best_pos":6,"similarity":0.286,"stretto":false,"stretto_voices":0,"combination":[]},{"voice":1,"pitch":76,"start":365.4,"duration":0.6,"velocity":127,"measure":153,"beat":2.0,"subject_pos":-1,"motif":"enigmatic_cell","motif_pos":2,"best_pos":2,"similarity":1.0,"stretto":false,"stretto_voices":0,"combination":[]},{"voice":2,"pitch":67,"start":365.4,"duration":0.3,"velocity":127,"measure":153,"beat":2.0,"subject_pos":-1,"motif":"","motif_pos":-1,"best_pos":5,"similarity":0.471,"stretto":false,"stretto_voices":0,"combination":[]},{"voice":2,"pitch":67,"start":365.7,"duration":0.3,"velocity":127,"measure":153,"beat":2.5,"subject_pos":-1,"motif":"","motif_pos":-1,"best_pos":4,"similarity":0.407,"stretto":false,"stretto_voices":0,"combination":[]},{"voice":0,"pitch":73,"start":366.0,"duration":0.6,"velocity":127,"measure":153,"beat":3.0,"subject_pos":-1,"motif":"","motif_pos":-1,"best_pos":4,"similarity":0.507,"stretto":false,"stretto_voices":0,"combination":[]},{"voice":1,"pitch":70,"start":366.0,"duration":0.6,"velocity":127,"measure":153,"beat":3.0,"subject_pos":-1,"motif":"","motif_pos":-1,"best_pos":2,"similarity":0.364,"stretto":false,"stretto_voices":0,"combination":[]},{"voice":2,"pitch":67,"start":366.0,"duration":0.3,"velocity":127,"measure":153,"beat":3.0,"subject_pos":-1,"motif":"","motif_pos":-1,"best_pos":2,"similarity":0.429,"stretto":false,"stretto_voices":0,"combination":[]},{"voice":2,"pitch":64,"start":366.3,"duration":0.3,"velocity":127,"measure":153,"beat":3.5,"subject_pos":-1,"motif":"","motif_pos":-1,"best_pos":3,"similarity":0.482,"stretto":false,"stretto_voices":0,"combination":[]},{"voice":0,"pitch":74,"start":366.6,"duration":0.6,"velocity":127,"measure":153,"beat":4.0,"subject_pos":-1,"motif":"","motif_pos":-1,"best_pos":5,"similarity":0.714,"stretto":false,"stretto_voices":0,"combination":[]},{"voice":1,"pitch":69,"start":366.6,"duration":0.6,"velocity":127,"measure":153,"beat":4.0,"subject_pos":-1,"motif":"","motif_pos":-1,"best_pos":4,"similarity":0.343,"stretto":false,"stretto_voices":0,"combination":[]},{"voice":2,"pitch":65,"start":366.6,"duration":0.3,"velocity":127,"measure":153,"beat":4.0,"subject_pos":-1,"motif":"","motif_pos":-1,"best_pos":5,"similarity":0.471,"stretto":false,"stretto_voices":0,"combination":[]},{"voice":2,"pitch":65,"start":366.9,"duration":0.3,"velocity":127,"measure":153,"beat":4.5,"subject_pos":-1,"motif":"","motif_pos":-1,"best_pos":4,"similarity":0.421,"stretto":false,"stretto_voices":0,"combination":[]},{"voice":1,"pitch":67,"start":367.2,"duration":0.6,"velocity":127,"measure":154,"beat":1.0,"subject_pos":-1,"motif":"","motif_pos":-1,"best_pos":0,"similarity":0.318,"stretto":false,"stretto_voices":0,"combination":[]},{"voice":2,"pitch":65,"start":367.2,"duration":0.3,"velocity":127,"measure":154,"beat":1.0,"subject_pos":-1,"motif":"","motif_pos":-1,"best_pos":5,"similarity":0.393,"stretto":false,"stretto_voices":0,"combination":[]},{"voice":2,"pitch":63,"start":367.5,"duration":0.3,"velocity":127,"measure":154,"beat":1.5,"subject_pos":-1,"motif":"","motif_pos":-1,"best_pos":4,"similarity":0.532,"stretto":false,"stretto_voices":0,"combination":[]},{"voice":0,"pitch":76,"start":367.8,"duration":0.6,"velocity":127,"measure":154,"beat":2.0,"subject_pos":-1,"motif":"","motif_pos":-1,"best_pos":6,"similarity":0.714,"stretto":false,"stretto_voices":0,"combination":[]},{"voice":1,"pitch":72,"start":367.8,"duration":0.6,"velocity":127,"measure":154,"beat":2.0,"subject_pos":-1,"motif":"","motif_pos":-1,"best_pos":1,"similarity":0.368,"stretto":false,"stretto_voices":0,"combination":[]},{"voice":2,"pitch":64,"start":367.8,"duration":0.3,"velocity":127,"measure":154,"beat":2.0,"subject_pos":-1,"motif":"","motif_pos":-1,"best_pos":5,"similarity":0.507,"stretto":false,"stretto_voices":0,"combination":[]},{"voice":2,"pitch":64,"start":368.1,"duration":0.3,"velocity":127,"measure":154,"beat":2.5,"subject_pos":-1,"motif":"","motif_pos":-1,"best_pos":4,"similarity":0.393,"stretto":false,"stretto_voices":0,"combination":[]},{"voice":0,"pitch":77,"start":368.4,"duration":0.6,"velocity":127,"measure":154,"beat":3.0,"subject_pos":-1,"motif":"","motif_pos":-1,"best_pos":5,"similarity":0.664,"stretto":false,"stretto_voices":0,"combination":[]},{"voice":1,"pitch":65,"start":368.4,"duration":1.2,"velocity":127,"measure":154,"beat":3.0,"subject_pos":-1,"motif":"","motif_pos":-1,"best_pos":3,"similarity":0.529,"stretto":false,"stretto_voices":0,"combination":[]},{"voice":2,"pitch":64,"start":368.4,"duration":0.3,"velocity":127,"measure":154,"beat":3.0,"subject_pos":-1,"motif":"","motif_pos":-1,"best_pos":1,"similarity":0.429,"stretto":false,"stretto_voices":0,"combination":[]},{"voice":2,"pitch":62,"start":368.7,"duration":0.3,"velocity":127,"measure":154,"beat":3.5,"subject_pos":-1,"motif":"","motif_pos":-1,"best_pos":2,"similarity":0.643,"stretto":false,"stretto_voices":0,"combination":[]},{"voice":0,"pitch":79,"start":369.0,"duration":0.6,"velocity":127,"measure":154,"beat":4.0,"subject_pos":-1,"motif":"","motif_pos":-1,"best_pos":6,"similarity":0.579,"stretto":false,"stretto_voices":0,"combination":[]},{"voice":2,"pitch":60,"start":369.0,"duration":0.3,"velocity":127,"measure":154,"beat":4.0,"subject_pos":-1,"motif":"","motif_pos":-1,"best_pos":3,"similarity":0.732,"stretto":false,"stretto_voices":0,"combination":[]},{"voice":2,"pitch":59,"start":369.3,"duration":0.3,"velocity":127,"measure":154,"beat":4.5,"subject_pos":-1,"motif":"","motif_pos":-1,"best_pos":4,"similarity":0.757,"stretto":false,"stretto_voices":0,"combination":[]},{"voice":1,"pitch":64,"start":369.6,"duration":0.6,"velocity":127,"measure":155,"beat":1.0,"subject_pos":-1,"motif":"","motif_pos":-1,"best_pos":4,"similarity":0.736,"stretto":false,"stretto_voices":0,"combination":[]},{"voice":2,"pitch":60,"start":369.6,"duration":0.3,"velocity":127,"measure":155,"beat":1.0,"subject_pos":-1,"motif":"","motif_pos":-1,"best_pos":5,"similarity":0.55,"stretto":false,"stretto_voices":0,"combination":[]},{"voice":2,"pitch":64,"start":369.9,"duration":0.3,"velocity":127,"measure":155,"beat":1.5,"subject_pos":-1,"motif":"","motif_pos":-1,"best_pos":1,"similarity":0.571,"stretto":false,"stretto_voices":0,"combination":[]},{"voice":0,"pitch":81,"start":370.2,"duration":0.6,"velocity":127,"measure":155,"beat":2.0,"subject_pos":-1,"motif":"","motif_pos":-1,"best_pos":1,"similarity":0.457,"stretto":false,"stretto_voices":0,"combination":[]},{"voice":1,"pitch":65,"start":370.2,"duration":0.6,"velocity":127,"measure":155,"beat":2.0,"subject_pos":-1,"motif":"","motif_pos":-1,"best_pos":5,"similarity":0.736,"stretto":false,"stretto_voices":0,"combination":[]},{"voice":2,"pitch":62,"start":370.2,"duration":0.3,"velocity":127,"measure":155,"beat":2.0,"subject_pos":-1,"motif":"","motif_pos":-1,"best_pos":2,"similarity":0.714,"stretto":false,"stretto_voices":0,"combination":[]},{"voice":2,"pitch":60,"start":370.5,"duration":0.3,"velocity":127,"measure":155,"beat":2.5,"subject_pos":-1,"motif":"","motif_pos":-1,"best_pos":3,"similarity":0.75,"stretto":false,"stretto_voices":0,"combination":[]},{"voice":0,"pitch":79,"start":370.8,"duration":0.6,"velocity":127,"measure":155,"beat":3.0,"subject_pos":-1,"motif":"","motif_pos":-1,"best_pos":2,"similarity":0.593,"stretto":false,"stretto_voices":0,"combination":[]},{"voice":1,"pitch":67,"start":370.8,"duration":0.3,"velocity":127,"measure":155,"beat":3.0,"subject_pos":-1,"motif":"","motif_pos":-1,"best_pos":6,"similarity":0.529,"stretto":false,"stretto_voices":0,"combination":[]},{"voice":2,"pitch":59,"start":370.8,"duration":0.3,"velocity":127,"measure":155,"beat":3.0,"subject_pos":-1,"motif":"","motif_pos":-1,"best_pos":4,"similarity":0.75,"stretto":false,"stretto_voices":0,"combination":[]},{"voice":1,"pitch":65,"start":371.1,"duration":0.3,"velocity":127,"measure":155,"beat":3.5,"subject_pos":-1,"motif":"","motif_pos":-1,"best_pos":5,"similarity":0.336,"stretto":false,"stretto_voices":0,"combination":[]},{"voice":2,"pitch":60,"start":371.1,"duration":0.3,"velocity":127,"measure":155,"beat":3.5,"subject_pos":-1,"motif":"","motif_pos":-1,"best_pos":5,"similarity":0.536,"stretto":false,"stretto_voices":0,"combination":[]},{"voice":0,"pitch":77,"start":371.4,"duration":0.6,"velocity":127,"measure":155,"beat":4.0,"subject_pos":-1,"motif":"","motif_pos":-1,"best_pos":3,"similarity":0.664,"stretto":false,"stretto_voices":0,"combination":[]},{"voice":1,"pitch":67,"start":371.4,"duration":0.6,"velocity":127,"measure":155,"beat":4.0,"subject_pos":-1,"motif":"","motif_pos":-1,"best_pos":6,"similarity":0.307,"stretto":false,"stretto_voices":0,"combination":[]},{"voice":2,"pitch":57,"start":371.4,"duration":0.3,"velocity":127,"measure":155,"beat":4.0,"subject_pos":-1,"motif":"","motif_pos":-1,"best_pos":3,"similarity":0.543,"stretto":false,"stretto_voices":0,"combination":[]},{"voice":2,"pitch":59,"start":371.7,"duration":0.3,"velocity":127,"measure":155,"beat":4.5,"subject_pos":-1,"motif":"","motif_pos":-1,"best_pos":4,"similarity":0.614,"stretto":false,"stretto_voices":0,"combination":[]},{"voice":1,"pitch":60,"start":372.0,"duration":0.6,"velocity":127,"measure":156,"beat":1.0,"subject_pos":-1,"motif":"","motif_pos":-1,"best_pos":0,"similarity":0.161,"stretto":false,"stretto_voices":0,"combination":[]},{"voice":2,"pitch":60,"start":372.0,"duration":0.3,"velocity":127,"measure":156,"beat":1.0,"subject_pos":-1,"motif":"","motif_pos":-1,"best_pos":5,"similarity":0.671,"stretto":false,"stretto_voices":0,"combination":[]},{"voice":2,"pitch":62,"start":372.3,"duration":0.3,"velocity":127,"measure":156,"beat":1.5,"subject_pos":-1,"motif":"","motif_pos":-1,"best_pos":6,"similarity":0.464,"stretto":false,"stretto_voices":0,"combination":[]},{"voice":0,"pitch":76,"start":372.6,"duration":0.3,"velocity":127,"measure":156,"beat":2.0,"subject_pos":-1,"motif":"","motif_pos":-1,"best_pos":4,"similarity":0.636,"stretto":false,"stretto_voices":0,"combination":[]},{"voice":1,"pitch":72,"start":372.6,"duration":0.9,"velocity":127,"measure":156,"beat":2.0,"subject_pos":-1,"motif":"","motif_pos":-1,"best_pos":1,"similarity":0.329,"stretto":false,"stretto_voices":0,"combination":[]},{"voice":2,"pitch":60,"start":372.6,"duration":0.3,"velocity":127,"measure":156,"beat":2.0,"subject_pos":-1,"motif":"","motif_pos":-1,"best_pos":2,"similarity":0.593,"stretto":false,"stretto_voices":0,"combination":[]},{"voice":0,"pitch":74,"start":372.9,"duration":0.3,"velocity":127,"measure":156,"beat":2.5,"subject_pos":-1,"motif":"","motif_pos":-1,"best_pos":4,"similarity":0.607,"stretto":false,"stretto_voices":0,"combination":[]},{"voice":2,"pitch":58,"start":372.9,"duration":0.3,"velocity":127,"measure":156,"beat":2.5,"subject_pos":-1,"motif":"enigmatic_cell","motif_pos":0,"best_pos":0,"similarity":1.0,"stretto":false,"stretto_voices":0,"combination":[]},{"voice":0,"pitch":76,"start":373.2,"duration":0.6,"velocity":127,"measure":156,"beat":3.0,"subject_pos":-1,"motif":"","motif_pos":-1,"best_pos":5,"similarity":0.661,"stretto":false,"stretto_voices":0,"combination":[]},{"voice":2,"pitch":57,"start":373.2,"duration":0.6,"velocity":127,"measure":156,"beat":3.0,"subject_pos":-1,"motif":"enigmatic_cell","motif_pos":1,"best_pos":1,"similarity":1.0,"stretto":false,"stretto_voices":0,"combination":[]},{"voice":1,"pitch":70,"start":373.5,"duration":0.3,"velocity":127,"measure":156,"beat":3.5,"subject_pos":-1,"motif":"","motif_pos":-1,"best_pos":3,"similarity":0.471,"stretto":false,"stretto_voices":0,"combination":[]},{"voice":0,"pitch":78,"start":373.8,"duration":0.6,"velocity":127,"measure":156,"beat":4.0,"subject_pos":-1,"motif":"enigmatic_cell","motif_pos":0,"best_pos":0,"similarity":1.0,"stretto":false,"stretto_voices":0,"combination":[]},{"voice":1,"pitch":69,"start":373.8,"duration":0.3,"velocity":127,"measure":156,"beat":4.0,"subject_pos":-1,"motif":"","motif_pos":-1,"best_pos":4,"similarity":0.461,"stretto":false,"stretto_voices":0,"combination":[]},{"voice":2,"pitch":62,"start":373.8,"duration":0.6,"velocity":127,"measure":156,"beat":4.0,"subject_pos":-1,"motif":"enigmatic_cell","motif_pos":2,"best_pos":2,"similarity":1.0,"stretto":false,"stretto_voices":0,"combination":[]},{"voice":1,"pitch":72,"start":374.1,"duration":0.3,"velocity":127,"measure":156,"beat":4.5,"subject_pos":-1,"motif":"","motif_pos":-1,"best_pos":1,"similarity":0.429,"stretto":false,"stretto_voices":0,"combination":[]},{"voice":0,"pitch":79,"start":374.4,"duration":0.3,"velocity":127,"measure":157,"beat":1.0,"subject_pos":-1,"motif":"enigmatic_cell","motif_pos":1,"best_pos":1,"similarity":1.0,"stretto":false,"stretto_voices":0,"combination":[]},{"voice":1,"pitch":70,"start":374.4,"duration":0.6,"velocity":127,"measure":157,"beat":1.0,"subject_pos":-1,"motif":"","motif_pos":-1,"best_pos":2,"similarity":0.482,"stretto":false,"stretto_voices":0,"combination":[]},{"voice":2,"pitch":67,"start":374.4,"duration":0.6,"velocity":127,"measure":157,"beat":1.0,"subject_pos":-1,"motif":"","motif_pos":-1,"best_pos":1,"similarity":0.457,"stretto":false,"stretto_voices":0,"combination":[]},{"voice":0,"pitch":74,"start":374.7,"duration":0.3,"velocity":127,"measure":157,"beat":1.5,"subject_pos":-1,"motif":"enigmatic_cell","motif_pos":2,"best_pos":2,"similarity":1.0,"stretto":false,"stretto_voices":0,"combination":[]},{"voice":0,"pitch":76,"start":375.0,"duration":0.3,"velocity":127,"measure":157,"beat":2.0,"subject_pos":-1,"motif":"","motif_pos":-1,"best_pos":5,"similarity":0.593,"stretto":false,"stretto_voices":0,"combination":[]},{"voice":1,"pitch":69,"start":375.0,"duration":0.6,"velocity":127,"measure":157,"beat":2.0,"subject_pos":-1,"motif":"","motif_pos":-1,"best_pos":2,"similarity":0.5,"stretto":false,"stretto_voices":0,"combination":[]},{"voice":2,"pitch":60,"start":375.0,"duration":0.6,"velocity":127,"measure":157,"beat":2.0,"subject_pos":-1,"motif":"","motif_pos":-1,"best_pos":2,"similarity":0.464,"stretto":false,"stretto_voices":0,"combination":[]},{"voice":0,"pitch":78,"start":375.3,"duration":0.3,"velocity":127,"measure":157,"beat":2.5,"subject_pos":-1,"motif":"","motif_pos":-1,"best_pos":6,"similarity":0.65,"stretto":false,"stretto_voices":0,"combination":[]},{"voice":0,"pitch":79,"start":375.6,"duration":0.3,"velocity":127,"measure":157,"beat":3.0,"subject_pos":-1,"motif":"","motif_pos":-1,"best_pos":7,"similarity":0.464,"stretto":false,"stretto_voices":0,"combination":[]},{"voice":1,"pitch":67,"start":375.6,"duration":0.6,"velocity":127,"measure":157,"beat":3.0,"subject_pos":-1,"motif":"","motif_pos":-1,"best_pos":3,"similarity":0.65,"stretto":false,"stretto_voices":0,"combination":[]},{"voice":2,"pitch":58,"start":375.6,"duration":0.6,"velocity":127,"measure":157,"beat":3.0,"subject_pos":-1,"motif":"","motif_pos":-1,"best_pos":3,"similarity":0.564,"stretto":false,"stretto_voices":0,"combination":[]},{"voice":0,"pitch":78,"start":375.9,"duration":0.3,"velocity":127,"measure":157,"beat":3.5,"subject_pos":-1,"motif":"","motif_pos":-1,"best_pos":4,"similarity":0.411,"stretto":false,"stretto_voices":0,"combination":[]},{"voice":0,"pitch":81,"start":376.2,"duration":0.3,"velocity":127,"measure":157,"beat":4.0,"subject_pos":-1,"motif":"","motif_pos":-1,"best_pos":1,"similarity":0.429,"stretto":false,"stretto_voices":0,"combination":[]},{"voice":1,"pitch":66,"start":376.2,"duration":0.6,"velocity":127,"measure":157,"beat":4.0,"subject_pos":-1,"motif":"","motif_pos":-1,"best_pos":4,"similarity":0.7,"stretto":false,"stretto_voices":0,"combination":[]},{"voice":2,"pitch":57,"start":376.2,"duration":0.6,"velocity":127,"measure":157,"beat":4.0,"subject_pos":-1,"motif":"","motif_pos":-1,"best_pos":4,"similarity":0.482,"stretto":false,"stretto_voices":0,"combination":[]},{"voice":0,"pitch":79,"start":376.5,"duration":0.3,"velocity":127,"measure":157,"beat":4.5,"subject_pos":-1,"motif":"","motif_pos":-1,"best_pos":2,"similarity":0.471,"stretto":false,"stretto_voices":0,"combination":[]},{"voice":0,"pitch":82,"start":376.8,"duration":0.3,"velocity":127,"measure":158,"beat":1.0,"subject_pos":-1,"motif":"","motif_pos":-1,"best_pos":3,"similarity":0.468,"stretto":false,"stretto_voices":0,"combination":[]},{"voice":1,"pitch":67,"start":376.8,"duration":0.3,"velocity":127,"measure":158,"beat":1.0,"subject_pos":-1,"motif":"","motif_pos":-1,"best_pos":5,"similarity":0.507,"stretto":false,"stretto_voices":0,"combination":[]},{"voice":2,"pitch":55,"start":376.8,"duration":1.2,"velocity":127,"measure":158,"beat":1.0,"subject_pos":-1,"motif":"","motif_pos":-1,"best_pos":2,"similarity":0.436,"stretto":false,"stretto_voices":0,"combination":[]},{"voice":0,"pitch":81,"start":377.1,"duration":0.3,"velocity":127,"measure":158,"beat":1.5,"subject_pos":-1,"motif":"","motif_pos":-1,"best_pos":4,"similarity":0.407,"stretto":false,"stretto_voices":0,"combination":[]},{"voice":1,"pitch":65,"start":377.1,"duration":0.3,"velocity":127,"measure":158,"beat":1.5,"subject_pos":-1,"motif":"","motif_pos":-1,"best_pos":2,"similarity":0.593,"stretto":false,"stretto_voices":0,"combination":[]},{"voice":0,"pitch":79,"start":377.4,"duration":0.3,"velocity":127,"measure":158,"beat":2.0,"subject_pos":-1,"motif":"","motif_pos":-1,"best_pos":2,"similarity":0.518,"stretto":false,"stretto_voices":0,"combination":[]},{"voice":1,"pitch":63,"start":377.4,"duration":0.3,"velocity":127,"measure":158,"beat":2.0,"subject_pos":-1,"motif":"","motif_pos":-1,"best_pos":3,"similarity":0.664,"stretto":false,"stretto_voices":0,"combination":[]},{"voice":0,"pitch":77,"start":377.7,"duration":0.3,"velocity":127,"measure":158,"beat":2.5,"subject_pos":-1,"motif":"","motif_pos":-1,"best_pos":2,"similarity":0.643,"stretto":false,"stretto_voices":0,"combination":[]},{"voice":1,"pitch":62,"start":377.7,"duration":0.3,"velocity":127,"measure":158,"beat":2.5,"subject_pos":-1,"motif":"","motif_pos":-1,"best_pos":4,"similarity":0.6,"stretto":false,"stretto_voices":0,"combination":[]},{"voice":0,"pitch":75,"start":378.0,"duration":0.3,"velocity":127,"measure":158,"beat":3.0,"subject_pos":-1,"motif":"","motif_pos":-1,"best_pos":3,"similarity":0.732,"stretto":false,"stretto_voices":0,"combination":[]},{"voice":1,"pitch":60,"start":378.0,"duration":0.6,"velocity":127,"measure":158,"beat":3.0,"subject_pos":-1,"motif":"","motif_pos":-1,"best_pos":5,"similarity":0.493,"stretto":false,"stretto_voices":0,"combination":[]},{"voice":0,"pitch":74,"start":378.3,"duration":0.3,"velocity":127,"measure":158,"beat":3.5,"subject_pos":-1,"motif":"","motif_pos":-1,"best_pos":4,"similarity":0.786,"stretto":false,"stretto_voices":0,"combination":[]},{"voice":2,"pitch":58,"start":378.3,"duration":0.3,"velocity":127,"measure":158,"beat":3.5,"subject_pos":-1,"motif":"","motif_pos":-1,"best_pos":3,"similarity":0.45,"stretto":false,"stretto_voices":0,"combination":[]},{"voice":0,"pitch":75,"start":378.6,"duration":0.3,"velocity":127,"measure":158,"beat":4.0,"subject_pos":-1,"motif":"","motif_pos":-1,"best_pos":5,"similarity":0.607,"stretto":false,"stretto_voices":0,"combination":[]},{"voice":2,"pitch":57,"start":378.6,"duration":0.3,"velocity":127,"measure":158,"beat":4.0,"subject_pos":-1,"motif":"","motif_pos":-1,"best_pos":4,"similarity":0.407,"stretto":false,"stretto_voices":0,"combination":[]},{"voice":0,"pitch":75,"start":378.9,"duration":0.3,"velocity":127,"measure":158,"beat":4.5,"subject_pos":-1,"motif":"","motif_pos":-1,"best_pos":6,"similarity":0.429,"stretto":false,"stretto_voices":0,"combination":[]},{"voice":2,"pitch":55,"start":378.9,"duration":0.3,"velocity":127,"measure":158,"beat":4.5,"subject_pos":-1,"motif":"","motif_pos":-1,"best_pos":2,"similarity":0.429,"stretto":false,"stretto_voices":0,"combination":[]},{"voice":0,"pitch":75,"start":379.2,"duration":0.3,"velocity":127,"measure":159,"beat":1.0,"subject_pos":-1,"motif":"","motif_pos":-1,"best_pos":5,"similarity":0.393,"stretto":false,"stretto_voices":0,"combination":[]},{"voice":2,"pitch":53,"start":379.2,"duration":0.6,"velocity":127,"measure":159,"beat":1.0,"subject_pos":-1,"motif":"","motif_pos":-1,"best_pos":0,"similarity":0.339,"stretto":false,"stretto_voices":0,"combination":[]},{"voice":0,"pitch":73,"start":379.5,"duration":0.3,"velocity":127,"measure":159,"beat":1.5,"subject_pos":-1,"motif":"","motif_pos":-1,"best_pos":4,"similarity":0.532,"stretto":false,"stretto_voices":0,"combination":[]},{"voice":0,"pitch":74,"start":379.8,"duration":0.3,"velocity":127,"measure":159,"beat":2.0,"subject_pos":-1,"motif":"","motif_pos":-1,"best_pos":5,"similarity":0.507,"stretto":false,"stretto_voices":0,"combination":[]},{"voice":1,"pitch":62,"start":379.8,"duration":0.6,"velocity":127,"measure":159,"beat":2.0,"subject_pos":0,"motif":"subject_inv","motif_pos":0,"best_pos":0,"similarity":1.0,"stretto":false,"stretto_voices":0,"combination":[]},{"voice":2,"pitch":58,"start":379.8,"duration":0.6,"velocity":127,"measure":159,"beat":2.0,"subject_pos":-1,"motif":"","motif_pos":-1,"best_pos":1,"similarity":0.464,"stretto":false,"stretto_voices":0,"combination":[]},{"voice":0,"pitch":74,"start":380.1,"duration":0.3,"velocity":127,"measure":159,"beat":2.5,"subject_pos":-1,"motif":"","motif_pos":-1,"best_pos":4,"similarity":0.443,"stretto":false,"stretto_voices":0,"combination":[]},{"voice":0,"pitch":74,"start":380.4,"duration":0.3,"velocity":127,"measure":159,"beat":3.0,"subject_pos":-1,"motif":"","motif_pos":-1,"best_pos":2,"similarity":0.429,"stretto":false,"stretto_voices":0,"combination":[]},{"voice":1,"pitch":55,"start":380.4,"duration":0.6,"velocity":127,"measure":159,"beat":3.0,"subject_pos":1,"motif":"subject_inv","motif_pos":1,"best_pos":1,"similarity":1.0,"stretto":false,"stretto_voices":0,"combination":[]},{"voice":2,"pitch":52,"start":380.4,"duration":0.6,"velocity":127,"measure":159,"beat":3.0,"subject_pos":-1,"motif":"","motif_pos":-1,"best_pos":2,"similarity":0.436,"stretto":false,"stretto_voices":0,"combination":[]},{"voice":0,"pitch":71,"start":380.7,"duration":0.3,"velocity":127,"measure":159,"beat":3.5,"subject_pos":-1,"motif":"","motif_pos":-1,"best_pos":3,"similarity":0.482,"stretto":false,"stretto_voices":0,"combination":[]},{"voice":0,"pitch":72,"start":381.0,"duration":0.3,"velocity":127,"measure":159,"beat":4.0,"subject_pos":-1,"motif":"","motif_pos":-1,"best_pos":5,"similarity":0.471,"stretto":false,"stretto_voices":0,"combination":[]},{"voice":1,"pitch":57,"start":381.0,"duration":0.6,"velocity":127,"measure":159,"beat":4.0,"subject_pos":2,"motif":"subject_inv","motif_pos":2,"best_pos":2,"similarity":1.0,"stretto":false,"stretto_voices":0,"combination":[]},{"voice":2,"pitch":51,"start":381.0,"duration":0.6,"velocity":127,"measure":159,"beat":4.0,"subject_pos":-1,"motif":"enigmatic_cell","motif_pos":0,"best_pos":0,"similarity":1.0,"stretto":false,"stretto_voices":0,"combination":[]},{"voice":0,"pitch":72,"start":381.3,"duration":0.3,"velocity":127,"measure":159,"beat":4.5,"subject_pos":-1,"motif":"","motif_pos":-1,"best_pos":4,"similarity":0.407,"stretto":false,"stretto_voices":0,"combination":[]},{"voice":0,"pitch":72,"start":381.6,"duration":0.3,"velocity":127,"measure":160,"beat":1.0,"subject_pos":-1,"motif":"","motif_pos":-1,"best_pos":2,"similarity":0.429,"stretto":false,"stretto_voices":0,"combination":[]},{"voice":2,"pitch":50,"start":381.6,"duration":0.6,"velocity":127,"measure":160,"beat":1.0,"subject_pos":-1,"motif":"enigmatic_cell","motif_pos":1,"best_pos":1,"similarity":1.0,"stretto":false,"stretto_voices":0,"combination":[]},{"voice":0,"pitch":69,"start":381.9,"duration":0.3,"velocity":127,"measure":160,"beat":1.5,"subject_pos":-1,"motif":"","motif_pos":-1,"best_pos":3,"similarity":0.482,"stretto":false,"stretto_voices":0,"combination":[]},{"voice":0,"pitch":70,"start":382.2,"duration":0.3,"velocity":127,"measure":160,"beat":2.0,"subject_pos":-1,"motif":"","motif_pos":-1,"best_pos":5,"similarity":0.471,"stretto":false,"stretto_voices":0,"combination":[]},{"voice":1,"pitch":58,"start":382.2,"duration":0.6,"velocity":127,"measure":160,"beat":2.0,"subject_pos":3,"motif":"subject_inv","motif_pos":3,"best_pos":3,"similarity":1.0,"stretto":false,"stretto_voices":0,"combination":[]},{"voice":2,"pitch":55,"start":382.2,"duration":0.6,"velocity":127,"measure":160,"beat":2.0,"subject_pos":-1,"motif":"enigmatic_cell","motif_pos":2,"best_pos":2,"similarity":1.0,"stretto":false,"stretto_voices":0,"combination":[]},{"voice":0,"pitch":70,"start":382.5,"duration":0.3,"velocity":127,"measure":160,"beat":2.5,"subject_pos":-1,"motif":"","motif_pos":-1,"best_pos":6,"similarity":0.375,"stretto":false,"stretto_voices":0,"combination":[]},{"voice":0,"pitch":70,"start":382.8,"duration":0.3,"velocity":127,"measure":160,"beat":3.0,"subject_pos":-1,"motif":"","motif_pos":-1,"best_pos":3,"similarity":0.379,"stretto":false,"stretto_voices":0,"combination":[]},{"voice":1,"pitch":60,"start":382.8,"duration":0.6,"velocity":127,"measure":160,"beat":3.0,"subject_pos":4,"motif":"subject_inv","motif_pos":4,"best_pos":4,"similarity":1.0,"stretto":false,"stretto_voices":0,"combination":[]},{"voice":2,"pitch":48,"start":382.8,"duration":1.2,"velocity":127,"measure":160,"beat":3.0,"subject_pos":-1,"motif":"","motif_pos":-1,"best_pos":2,"similarity":0.364,"stretto":false,"stretto_voices":0,"combination":[]},{"voice":0,"pitch":69,"start":383.1,"duration":0.3,"velocity":127,"measure":160,"beat":3.5,"subject_pos":-1,"motif":"","motif_pos":-1,"best_pos":2,"similarity":0.5,"stretto":false,"stretto_voices":0,"combination":[]},{"voice":0,"pitch":67,"start":383.4,"duration":0.3,"velocity":127,"measure":160,"beat":4.0,"subject_pos":-1,"motif":"","motif_pos":-1,"best_pos":3,"similarity":0.679,"stretto":false,"stretto_voices":0,"combination":[]},{"voice":1,"pitch":62,"start":383.4,"duration":0.6,"velocity":127,"measure":160,"beat":4.0,"subject_pos":5,"motif":"subject_inv","motif_pos":5,"best_pos":5,"similarity":1.0,"stretto":false,"stretto_voices":0,"combination":[]},{"voice":0,"pitch":66,"start":383.7,"duration":0.3,"velocity":127,"measure":160,"beat":4.5,"subject_pos":-1,"motif":"","motif_pos":-1,"best_pos":4,"similarity":0.768,"stretto":false,"stretto_voices":0,"combination":[]},{"voice":0,"pitch":67,"start":384.0,"duration":0.3,"velocity":127,"measure":161,"beat":1.0,"subject_pos":-1,"motif":"","motif_pos":-1,"best_pos":5,"similarity":0.643,"stretto":false,"stretto_voices":0,"combination":[]},{"voice":2,"pitch":46,"start":384.0,"duration":0.6,"velocity":127,"measure":161,"beat":1.0,"subject_pos":-1,"motif":"","motif_pos":-1,"best_pos":4,"similarity":0.45,"stretto":false,"stretto_voices":0,"combination":[]},{"voice":0,"pitch":70,"start":384.3,"duration":0.3,"velocity":127,"measure":161,"beat":1.5,"subject_pos":-1,"motif":"","motif_pos":-1,"best_pos":6,"similarity":0.429,"stretto":false,"stretto_voices":0,"combination":[]},{"voice":0,"pitch":69,"start":384.6,"duration":0.3,"velocity":127,"measure":161,"beat":2.0,"subject_pos":-1,"motif":"","motif_pos":-1,"best_pos":2,"similarity":0.536,"stretto":false,"stretto_voices":0,"combination":[]},{"voice":1,"pitch":63,"start":384.6,"duration":0.6,"velocity":127,"measure":161,"beat":2.0,"subject_pos":6,"motif":"subject_inv","motif_pos":6,"best_pos":6,"similarity":1.0,"stretto":false,"stretto_voices":0,"combination":[]},{"voice":2,"pitch":48,"start":384.6,"duration":0.6,"velocity":127,"measure":161,"beat":2.0,"subject_pos":-1,"motif":"","motif_pos":-1,"best_pos":5,"similarity":0.521,"stretto":false,"stretto_voices":0,"combination":[]},{"voice":0,"pitch":67,"start":384.9,"duration":0.3,"velocity":127,"measure":161,"beat":2.5,"subject_pos":-1,"motif":"","motif_pos":-1,"best_pos":3,"similarity":0.661,"stretto":false,"stretto_voices":0,"combination":[]},{"voice":0,"pitch":66,"start":385.2,"duration":0.3,"velocity":127,"measure":161,"beat":3.0,"subject_pos":-1,"motif":"","motif_pos":-1,"best_pos":4,"similarity":0.714,"stretto":false,"stretto_voices":0,"combination":[]},{"voice":1,"pitch":62,"start":385.2,"duration":0.6,"velocity":127,"measure":161,"beat":3.0,"subject_pos":7,"motif":"subject_inv","motif_pos":7,"best_pos":7,"similarity":1.0,"stretto":false,"stretto_voices":0,"combination":[]},{"voice":2,"pitch":50,"start":385.2,"duration":0.3,"velocity":127,"measure":161,"beat":3.0,"subject_pos":-1,"motif":"","motif_pos":-1,"best_pos":6,"similarity":0.421,"stretto":false,"stretto_voices":0,"combination":[]},{"voice":0,"pitch":67,"start":385.5,"duration":0.3,"velocity":127,"measure":161,"beat":3.5,"subject_pos":-1,"motif":"","motif_pos":-1,"best_pos":5,"similarity":0.536,"stretto":false,"stretto_voices":0,"combination":[]},{"voice":2,"pitch":48,"start":385.5,"duration":0.3,"velocity":127,"measure":161,"beat":3.5,"subject_pos":-1,"motif":"","motif_pos":-1,"best_pos":5,"similarity":0.329,"stretto":false,"stretto_voices":0,"combination":[]},{"voice":0,"pitch":64,"start":385.8,"duration":0.3,"velocity":127,"measure":161,"beat":4.0,"subject_pos":-1,"motif":"","motif_pos":-1,"best_pos":5,"similarity":0.511,"stretto":false,"stretto_voices":0,"combination":[]},{"voice":1,"pitch":60,"start":385.8,"duration":0.6,"velocity":127,"measure":161,"beat":4.0,"subject_pos":8,"motif":"subject_inv","motif_pos":8,"best_pos":0,"similarity":1.0,"stretto":false,"stretto_voices":0,"combination":[]},{"voice":2,"pitch":50,"start":385.8,"duration":0.6,"velocity":127,"measure":161,"beat":4.0,"subject_pos":-1,"motif":"","motif_pos":-1,"best_pos":6,"similarity":0.307,"stretto":false,"stretto_voices":0,"combination":[]},{"voice":0,"pitch":66,"start":386.1,"duration":0.3,"velocity":127,"measure":161,"beat":4.5,"subject_pos":-1,"motif":"enigmatic_cell","motif_pos":0,"best_pos":0,"similarity":1.0,"stretto":false,"stretto_voices":0,"combination":[]},{"voice":0,"pitch":67,"start":386.4,"duration":0.3,"velocity":127,"measure":162,"beat":1.0,"subject_pos":-1,"motif":"enigmatic_cell","motif_pos":1,"best_pos":1,"similarity":1.0,"stretto":false,"stretto_voices":0,"combination":[]},{"voice":2,"pitch":43,"start":386.4,"duration":1.2,"velocity":127,"measure":162,"beat":1.0,"subject_pos":-1,"motif":"","motif_pos":-1,"best_pos":4,"similarity":0.221,"stretto":false,"stretto_voices":0,"combination":[]},{"voice":0,"pitch":62,"start":386.7,"duration":0.3,"velocity":127,"measure":162,"beat":1.5,"subject_pos":-1,"motif":"enigmatic_cell","motif_pos":2,"best_pos":2,"similarity":1.0,"stretto":false,"stretto_voices":0,"combination":[]},{"voice":0,"pitch":67,"start":387.0,"duration":0.9,"velocity":127,"measure":162,"beat":2.0,"subject_pos":-1,"motif":"","motif_pos":-1,"best_pos":1,"similarity":0.329,"stretto":false,"stretto_voices":0,"combination":[]},{"voice":1,"pitch":58,"start":387.0,"duration":0.3,"velocity":127,"measure":162,"beat":2.0,"subject_pos":-1,"motif":"","motif_pos":-1,"best_pos":3,"similarity":0.786,"stretto":false,"stretto_voices":0,"combination":[]},{"voice":1,"pitch":57,"start":387.3,"duration":0.3,"velocity":127,"measure":162,"beat":2.5,"subject_pos":-1,"motif":"","motif_pos":-1,"best_pos":4,"similarity":0.893,"stretto":false,"stretto_voices":0,"combination":[]},{"voice":1,"pitch":58,"start":387.6,"duration":0.6,"velocity":127,"measure":162,"beat":3.0,"subject_pos":-1,"motif":"","motif_pos":-1,"best_pos":5,"similarity":0.821,"stretto":false,"stretto_voices":0,"combination":[]},{"voice":0,"pitch":70,"start":387.9,"duration":0.3,"velocity":127,"measure":162,"beat":3.5,"subject_pos":-1,"motif":"","motif_pos":-1,"best_pos":3,"similarity":0.329,"stretto":false,"stretto_voices":0,"combination":[]},{"voice":0,"pitch":69,"start":388.2,"duration":0.3,"velocity":127,"measure":162,"beat":4.0,"subject_pos":-1,"motif":"","motif_pos":-1,"best_pos":4,"similarity":0.389,"stretto":false,"stretto_voices":0,"combination":[]},{"voice":1,"pitch":60,"start":388.2,"duration":0.6,"velocity":127,"measure":162,"beat":4.0,"subject_pos":-1,"motif":"","motif_pos":-1,"best_pos":6,"similarity":0.643,"stretto":false,"stretto_voices":0,"combination":[]},{"voice":0,"pitch":72,"start":388.5,"duration":0.3,"velocity":127,"measure":162,"beat":4.5,"subject_pos":-1,"motif":"","motif_pos":-1,"best_pos":1,"similarity":0.429,"stretto":false,"stretto_voices":0,"combination":[]},{"voice":0,"pitch":70,"start":388.8,"duration":3.0,"velocity":127,"measure":163,"beat":1.0,"subject_pos":-1,"motif":"","motif_pos":-1,"best_pos":3,"similarity":0.514,"stretto":false,"stretto_voices":0,"combination":[]},{"voice":1,"pitch":62,"start":388.8,"duration":0.3,"velocity":127,"measure":163,"beat":1.0,"subject_pos":-1,"motif":"","motif_pos":-1,"best_pos":6,"similarity":0.661,"stretto":false,"stretto_voices":0,"combination":[]},{"voice":1,"pitch":63,"start":389.1,"duration":0.3,"velocity":127,"measure":163,"beat":1.5,"subject_pos":-1,"motif":"","motif_pos":-1,"best_pos":7,"similarity":0.464,"stretto":false,"stretto_voices":0,"combination":[]},{"voice":1,"pitch":62,"start":389.4,"duration":0.3,"velocity":127,"measure":163,"beat":2.0,"subject_pos":-1,"motif":"","motif_pos":-1,"best_pos":3,"similarity":0.557,"stretto":false,"stretto_voices":0,"combination":[]},{"voice":2,"pitch":55,"start":389.4,"duration":0.3,"velocity":127,"measure":163,"beat":2.0,"subject_pos":-1,"motif":"","motif_pos":-1,"best_pos":5,"similarity":0.3,"stretto":false,"stretto_voices":0,"combination":[]},{"voice":1,"pitch":61,"start":389.7,"duration":0.3,"velocity":127,"measure":163,"beat":2.5,"subject_pos":-1,"motif":"","motif_pos":-1,"best_pos":4,"similarity":0.704,"stretto":false,"stretto_voices":0,"combination":[]},{"voice":2,"pitch":57,"start":389.7,"duration":0.3,"velocity":127,"measure":163,"beat":2.5,"subject_pos":-1,"motif":"","motif_pos":-1,"best_pos":1,"similarity":0.346,"stretto":false,"stretto_voices":0,"combination":[]},{"voice":1,"pitch":62,"start":390.0,"duration":0.3,"velocity":127,"measure":163,"beat":3.0,"subject_pos":-1,"motif":"","motif_pos":-1,"best_pos":5,"similarity":0.625,"stretto":false,"stretto_voices":0,"combination":[]},{"voice":2,"pitch":55,"start":390.0,"duration":0.6,"velocity":127,"measure":163,"beat":3.0,"subject_pos":-1,"motif":"","motif_pos":-1,"best_pos":2,"similarity":0.364,"stretto":false,"stretto_voices":0,"combination":[]},{"voice":1,"pitch":65,"start":390.3,"duration":0.3,"velocity":127,"measure":163,"beat":3.5,"subject_pos":-1,"motif":"","motif_pos":-1,"best_pos":6,"similarity":0.429,"stretto":false,"stretto_voices":0,"combination":[]},{"voice":1,"pitch":64,"start":390.6,"duration":0.3,"velocity":127,"measure":163,"beat":4.0,"subject_pos":-1,"motif":"","motif_pos":-1,"best_pos":4,"similarity":0.396,"stretto":false,"stretto_voices":0,"combination":[]},{"voice":2,"pitch":49,"start":390.6,"duration":0.6,"velocity":127,"measure":163,"beat":4.0,"subject_pos":-1,"motif":"","motif_pos":-1,"best_pos":4,"similarity":0.371,"stretto":false,"stretto_voices":0,"combination":[]},{"voice":1,"pitch":67,"start":390.9,"duration":0.3,"velocity":127,"measure":163,"beat":4.5,"subject_pos":-1,"motif":"","motif_pos":-1,"best_pos":1,"similarity":0.411,"stretto":false,"stretto_voices":0,"combination":[]},{"voice":1,"pitch":65,"start":391.2,"duration":0.3,"velocity":127,"measure":164,"beat":1.0,"subject_pos":-1,"motif":"","motif_pos":-1,"best_pos":3,"similarity":0.579,"stretto":false,"stretto_voices":0,"combination":[]},{"voice":2,"pitch":50,"start":391.2,"duration":0.6,"velocity":127,"measure":164,"beat":1.0,"subject_pos":-1,"motif":"","motif_pos":-1,"best_pos":5,"similarity":0.336,"stretto":false,"stretto_voices":0,"combination":[]},{"voice":1,"pitch":64,"start":391.5,"duration":0.3,"velocity":127,"measure":164,"beat":1.5,"subject_pos":-1,"motif":"","motif_pos":-1,"best_pos":4,"similarity":0.664,"stretto":false,"stretto_voices":0,"combination":[]},{"voice":0,"pitch":69,"start":391.8,"duration":0.3,"velocity":127,"measure":164,"beat":2.0,"subject_pos":-1,"motif":"","motif_pos":-1,"best_pos":4,"similarity":0.536,"stretto":false,"stretto_voices":0,"combination":[]},{"voice":1,"pitch":65,"start":391.8,"duration":0.9,"velocity":127,"measure":164,"beat":2.0,"subject_pos":-1,"motif":"","motif_pos":-1,"best_pos":5,"similarity":0.507,"stretto":false,"stretto_voices":0,"combination":[]},{"voice":2,"pitch":62,"start":391.8,"duration":0.9,"velocity":127,"measure":164,"beat":2.0,"subject_pos":-1,"motif":"","motif_pos":-1,"best_pos":1,"similarity":0.429,"stretto":false,"stretto_voices":0,"combination":[]},{"voice":0,"pitch":67,"start":392.1,"duration":0.3,"velocity":127,"measure":164,"beat":2.5,"subject_pos":-1,"motif":"","motif_pos":-1,"best_pos":5,"similarity":0.507,"stretto":false,"stretto_voices":0,"combination":[]},{"voice":0,"pitch":69,"start":392.4,"duration":0.6,"velocity":127,"measure":164,"beat":3.0,"subject_pos":-1,"motif":"","motif_pos":-1,"best_pos":0,"similarity":0.446,"stretto":false,"stretto_voices":0,"combination":[]},{"voice":1,"pitch":64,"start":392.7,"duration":0.3,"velocity":127,"measure":164,"beat":3.5,"subject_pos":-1,"motif":"","motif_pos":-1,"best_pos":4,"similarity":0.454,"stretto":false,"stretto_voices":0,"combination":[]},{"voice":2,"pitch":60,"start":392.7,"duration":0.3,"velocity":127,"measure":164,"beat":3.5,"subject_pos":-1,"motif":"","motif_pos":-1,"best_pos":2,"similarity":0.579,"stretto":false,"stretto_voices":0,"combination":[]},{"voice":0,"pitch":74,"start":393.0,"duration":0.9,"velocity":127,"measure":164,"beat":4.0,"subject_pos":-1,"motif":"","motif_pos":-1,"best_pos":1,"similarity":0.614,"stretto":false,"stretto_voices":0,"combination":[]},{"voice":1,"pitch":62,"start":393.0,"duration":0.3,"velocity":127,"measure":164,"beat":4.0,"subject_pos":-1,"motif":"","motif_pos":-1,"best_pos":2,"similarity":0.464,"stretto":false,"stretto_voices":0,"combination":[]},{"voice":2,"pitch":58,"start":393.0,"duration":0.3,"velocity":127,"measure":164,"beat":4.0,"subject_pos":-1,"motif":"","motif_pos":-1,"best_pos":3,"similarity":0.593,"stretto":false,"stretto_voices":0,"combination":[]},{"voice":1,"pitch":65,"start":393.3,"duration":0.3,"velocity":127,"measure":164,"beat":4.5,"subject_pos":-1,"motif":"","motif_pos":-1,"best_pos":3,"similarity":0.536,"stretto":false,"stretto_voices":0,"combination":[]},{"voice":2,"pitch":57,"start":393.3,"duration":0.3,"velocity":127,"measure":164,"beat":4.5,"subject_pos":-1,"motif":"","motif_pos":-1,"best_pos":4,"similarity":0.489,"stretto":false,"stretto_voices":0,"combination":[]},{"voice":1,"pitch":64,"start":393.6,"duration":0.3,"velocity":127,"measure":165,"beat":1.0,"subject_pos":-1,"motif":"","motif_pos":-1,"best_pos":4,"similarity":0.579,"stretto":false,"stretto_voices":0,"combination":[]},{"voice":2,"pitch":55,"start":393.6,"duration":0.9,"velocity":127,"measure":165,"beat":1.0,"subject_pos":-1,"motif":"","motif_pos":-1,"best_pos":2,"similarity":0.579,"stretto":false,"stretto_voices":0,"combination":[]},{"voice":0,"pitch":72,"start":393.9,"duration":0.3,"velocity":127,"measure":165,"beat":1.5,"subject_pos":-1,"motif":"bach_transposed","motif_pos":0,"best_pos":0,"similarity":1.0,"stretto":false,"stretto_voices":0,"combination":[]},{"voice":1,"pitch":66,"start":393.9,"duration":0.3,"velocity":127,"measure":165,"beat":1.5,"subject_pos":-1,"motif":"","motif_pos":-1,"best_pos":6,"similarity":0.614,"stretto":false,"stretto_voices":0,"combination":[]},{"voice":0,"pitch":71,"start":394.2,"duration":0.3,"velocity":127,"measure":165,"beat":2.0,"subject_pos":-1,"motif":"bach_transposed","motif_pos":1,"best_pos":1,"similarity":1.0,"stretto":false,"stretto_voices":0,"combination":[]},{"voice":1,"pitch":67,"start":394.2,"duration":0.9,"velocity":127,"measure":165,"beat":2.0,"subject_pos":-1,"motif":"","motif_pos":-1,"best_pos":7,"similarity":0.446,"stretto":false,"stretto_voices":0,"combination":[]},{"voice":0,"pitch":74,"start":394.5,"duration":0.3,"velocity":127,"measure":165,"beat":2.5,"subject_pos":-1,"motif":"bach_transposed","motif_pos":2,"best_pos":2,"similarity":1.0,"stretto":false,"stretto_voices":0,"combination":[]},{"voice":2,"pitch":53,"start":394.5,"duration":0.3,"velocity":127,"measure":165,"beat":2.5,"subject_pos":-1,"motif":"","motif_pos":-1,"best_pos":3,"similarity":0.593,"stretto":false,"stretto_voices":0,"combination":[]},{"voice":0,"pitch":73,"start":394.8,"duration":0.3,"velocity":127,"measure":165,"beat":3.0,"subject_pos":-1,"motif":"bach_transposed","motif_pos":3,"best_pos":3,"similarity":1.0,"stretto":false,"stretto_voices":0,"combination":[]},{"voice":2,"pitch":52,"start":394.8,"duration":0.3,"velocity":127,"measure":165,"beat":3.0,"subject_pos":-1,"motif":"","motif_pos":-1,"best_pos":4,"similarity":0.471,"stretto":false,"stretto_voices":0,"combination":[]},{"voice":0,"pitch":74,"start":395.1,"duration":0.3,"velocity":127,"measure":165,"beat":3.5,"subject_pos":-1,"motif":"","motif_pos":-1,"best_pos":5,"similarity":0.729,"stretto":false,"stretto_voices":0,"combination":[]},{"voice":1,"pitch":65,"start":395.1,"duration":0.3,"velocity":127,"measure":165,"beat":3.5,"subject_pos":-1,"motif":"","motif_pos":-1,"best_pos":3,"similarity":0.493,"stretto":false,"stretto_voices":0,"combination":[]},{"voice":2,"pitch":50,"start":395.1,"duration":0.3,"velocity":127,"measure":165,"beat":3.5,"subject_pos":-1,"motif":"","motif_pos":-1,"best_pos":3,"similarity":0.507,"stretto":false,"stretto_voices":0,"combination":[]},{"voice":0,"pitch":76,"start":395.4,"duration":0.9,"velocity":127,"measure":165,"beat":4.0,"subject_pos":-1,"motif":"","motif_pos":-1,"best_pos":6,"similarity":0.529,"stretto":false,"stretto_voices":0,"combination":[]},{"voice":1,"pitch":64,"start":395.4,"duration":0.3,"velocity":127,"measure":165,"beat":4.0,"subject_pos":-1,"motif":"","motif_pos":-1,"best_pos":4,"similarity":0.486,"stretto":false,"stretto_voices":0,"combination":[]},{"voice":2,"pitch":49,"start":395.4,"duration":0.3,"velocity":127,"measure":165,"beat":4.0,"subject_pos":-1,"motif":"","motif_pos":-1,"best_pos":4,"similarity":0.414,"stretto":false,"stretto_voices":0,"combination":[]},{"voice":1,"pitch":67,"start":395.7,"duration":0.3,"velocity":127,"measure":165,"beat":4.5,"subject_pos":-1,"motif":"","motif_pos":-1,"best_pos":1,"similarity":0.364,"stretto":false,"stretto_voices":0,"combination":[]},{"voice":2,"pitch":58,"start":395.7,"duration":0.3,"velocity":127,"measure":165,"beat":4.5,"subject_pos":-1,"motif":"","motif_pos":-1,"best_pos":3,"similarity":0.379,"stretto":false,"stretto_voices":0,"combination":[]},{"voice":1,"pitch":65,"start":396.0,"duration":0.3,"velocity":127,"measure":166,"beat":1.0,"subject_pos":-1,"motif":"","motif_pos":-1,"best_pos":4,"similarity":0.471,"stretto":false,"stretto_voices":0,"combination":[]},{"voice":2,"pitch":57,"start":396.0,"duration":0.9,"velocity":127,"measure":166,"beat":1.0,"subject_pos":-1,"motif":"","motif_pos":-1,"best_pos":1,"similarity":0.429,"stretto":false,"stretto_voices":0,"combination":[]},{"voice":0,"pitch":74,"start":396.3,"duration":0.3,"velocity":127,"measure":166,"beat":1.5,"subject_pos":-1,"motif":"","motif_pos":-1,"best_pos":3,"similarity":0.493,"stretto":false,"stretto_voices":0,"combination":[]},{"voice":1,"pitch":67,"start":396.3,"duration":0.3,"velocity":127,"measure":166,"beat":1.5,"subject_pos":-1,"motif":"","motif_pos":-1,"best_pos":5,"similarity":0.514,"stretto":false,"stretto_voices":0,"combination":[]},{"voice":0,"pitch":73,"start":396.6,"duration":0.3,"velocity":127,"measure":166,"beat":2.0,"subject_pos":-1,"motif":"","motif_pos":-1,"best_pos":4,"similarity":0.486,"stretto":false,"stretto_voices":0,"combination":[]},{"voice":1,"pitch":69,"start":396.6,"duration":0.9,"velocity":127,"measure":166,"beat":2.0,"subject_pos":-1,"motif":"","motif_pos":-1,"best_pos":6,"similarity":0.421,"stretto":false,"stretto_voices":0,"combination":[]},{"voice":0,"pitch":76,"start":396.9,"duration":0.3,"velocity":127,"measure":166,"beat":2.5,"subject_pos":-1,"motif":"","motif_pos":-1,"best_pos":4,"similarity":0.379,"stretto":false,"stretto_voices":0,"combination":[]},{"voice":2,"pitch":55,"start":396.9,"duration":0.3,"velocity":127,"measure":166,"beat":2.5,"subject_pos":-1,"motif":"","motif_pos":-1,"best_pos":2,"similarity":0.579,"stretto":false,"stretto_voices":0,"combination":[]},{"voice":0,"pitch":74,"start":397.2,"duration":0.3,"velocity":127,"measure":166,"beat":3.0,"subject_pos":-1,"motif":"","motif_pos":-1,"best_pos":5,"similarity":0.489,"stretto":false,"stretto_voices":0,"combination":[]},{"voice":2,"pitch":53,"start":397.2,"duration":0.3,"velocity":127,"measure":166,"beat":3.0,"subject_pos":-1,"motif":"","motif_pos":-1,"best_pos":3,"similarity":0.586,"stretto":false,"stretto_voices":0,"combination":[]},{"voice":0,"pitch":76,"start":397.5,"duration":0.3,"velocity":127,"measure":166,"beat":3.5,"subject_pos":-1,"motif":"","motif_pos":-1,"best_pos":6,"similarity":0.593,"stretto":false,"stretto_voices":0,"combination":[]},{"voice":1,"pitch":67,"start":397.5,"duration":0.3,"velocity":127,"measure":166,"beat":3.5,"subject_pos":-1,"motif":"","motif_pos":-1,"best_pos":2,"similarity":0.461,"stretto":false,"stretto_voices":0,"combination":[]},{"voice":2,"pitch":52,"start":397.5,"duration":0.3,"velocity":127,"measure":166,"beat":3.5,"subject_pos":-1,"motif":"","motif_pos":-1,"best_pos":4,"similarity":0.475,"stretto":false,"stretto_voices":0,"combination":[]},{"voice":0,"pitch":77,"start":397.8,"duration":0.9,"velocity":127,"measure":166,"beat":4.0,"subject_pos":-1,"motif":"","motif_pos":-1,"best_pos":7,"similarity":0.436,"stretto":false,"stretto_voices":0,"combination":[]},{"voice":1,"pitch":65,"start":397.8,"duration":0.3,"velocity":127,"measure":166,"beat":4.0,"subject_pos":-1,"motif":"","motif_pos":-1,"best_pos":2,"similarity":0.5,"stretto":false,"stretto_voices":0,"combination":[]},{"voice":2,"pitch":50,"start":397.8,"duration":0.3,"velocity":127,"measure":166,"beat":4.0,"subject_pos":-1,"motif":"","motif_pos":-1,"best_pos":2,"similarity":0.436,"stretto":false,"stretto_voices":0,"combination":[]},{"voice":1,"pitch":69,"start":398.1,"duration":0.3,"velocity":127,"measure":166,"beat":4.5,"subject_pos":-1,"motif":"","motif_pos":-1,"best_pos":3,"similarity":0.643,"stretto":false,"stretto_voices":0,"combination":[]},{"voice":2,"pitch":60,"start":398.1,"duration":0.3,"velocity":127,"measure":166,"beat":4.5,"subject_pos":-1,"motif":"","motif_pos":-1,"best_pos":3,"similarity":0.45,"stretto":false,"stretto_voices":0,"combination":[]},{"voice":1,"pitch":68,"start":398.4,"duration":0.3,"velocity":127,"measure":167,"beat":1.0,"subject_pos":-1,"motif":"","motif_pos":-1,"best_pos":4,"similarity":0.793,"stretto":false,"stretto_voices":0,"combination":[]},{"voice":2,"pitch":59,"start":398.4,"duration":0.9,"velocity":127,"measure":167,"beat":1.0,"subject_pos":-1,"motif":"","motif_pos":-1,"best_pos":2,"similarity":0.461,"stretto":false,"stretto_voices":0,"combination":[]},{"voice":0,"pitch":76,"start":398.7,"duration":0.3,"velocity":127,"measure":167,"beat":1.5,"subject_pos":-1,"motif":"","motif_pos":-1,"best_pos":4,"similarity":0.425,"stretto":false,"stretto_voices":0,"combination":[]},{"voice":1,"pitch":69,"start":398.7,"duration":0.3,"velocity":127,"measure":167,"beat":1.5,"subject_pos":-1,"motif":"","motif_pos":-1,"best_pos":5,"similarity":0.729,"stretto":false,"stretto_voices":0,"combination":[]},{"voice":0,"pitch":74,"start":399.0,"duration":0.3,"velocity":127,"measure":167,"beat":2.0,"subject_pos":-1,"motif":"","motif_pos":-1,"best_pos":2,"similarity":0.436,"stretto":false,"stretto_voices":0,"combination":[]},{"voice":1,"pitch":71,"start":399.0,"duration":1.2,"velocity":127,"measure":167,"beat":2.0,"subject_pos":-1,"motif":"","motif_pos":-1,"best_pos":6,"similarity":0.529,"stretto":false,"stretto_voices":0,"combination":[]},{"voice":0,"pitch":77,"start":399.3,"duration":0.3,"velocity":127,"measure":167,"beat":2.5,"subject_pos":-1,"motif":"","motif_pos":-1,"best_pos":3,"similarity":0.45,"stretto":false,"stretto_voices":0,"combination":[]},{"voice":2,"pitch":57,"start":399.3,"duration":0.3,"velocity":127,"measure":167,"beat":2.5,"subject_pos":-1,"motif":"","motif_pos":-1,"best_pos":3,"similarity":0.543,"stretto":false,"stretto_voices":0,"combination":[]},{"voice":0,"pitch":76,"start":399.6,"duration":0.3,"velocity":127,"measure":167,"beat":3.0,"subject_pos":-1,"motif":"","motif_pos":-1,"best_pos":2,"similarity":0.471,"stretto":false,"stretto_voices":0,"combination":[]},{"voice":2,"pitch":56,"start":399.6,"duration":0.3,"velocity":127,"measure":167,"beat":3.0,"subject_pos":-1,"motif":"","motif_pos":-1,"best_pos":4,"similarity":0.471,"stretto":false,"stretto_voices":0,"combination":[]},{"voice":0,"pitch":74,"start":399.9,"duration":0.3,"velocity":127,"measure":167,"beat":3.5,"subject_pos":-1,"motif":"","motif_pos":-1,"best_pos":3,"similarity":0.604,"stretto":false,"stretto_voices":0,"combination":[]},{"voice":2,"pitch":59,"start":399.9,"duration":0.3,"velocity":127,"measure":167,"beat":3.5,"subject_pos":-1,"motif":"","motif_pos":-1,"best_pos":5,"similarity":0.264,"stretto":false,"stretto_voices":0,"combination":[]},{"voice":0,"pitch":73,"start":400.2,"duration":0.3,"velocity":127,"measure":167,"beat":4.0,"subject_pos":-1,"motif":"","motif_pos":-1,"best_pos":4,"similarity":0.571,"stretto":false,"stretto_voices":0,"combination":[]},{"voice":1,"pitch":69,"start":400.2,"duration":0.3,"velocity":127,"measure":167,"beat":4.0,"subject_pos":-1,"motif":"","motif_pos":-1,"best_pos":3,"similarity":0.593,"stretto":false,"stretto_voices":0,"combination":[]},{"voice":2,"pitch":52,"start":400.2,"duration":0.6,"velocity":127,"measure":167,"beat":4.0,"subject_pos":-1,"motif":"","motif_pos":-1,"best_pos":0,"similarity":0.336,"stretto":false,"stretto_voices":0,"combination":[]},{"voice":0,"pitch":71,"start":400.5,"duration":0.3,"velocity":127,"measure":167,"beat":4.5,"subject_pos":-1,"motif":"","motif_pos":-1,"best_pos":5,"similarity":0.507,"stretto":false,"stretto_voices":0,"combination":[]},{"voice":1,"pitch":68,"start":400.5,"duration":0.3,"velocity":127,"measure":167,"beat":4.5,"subject_pos":-1,"motif":"enigmatic_cell","motif_pos":0,"best_pos":0,"similarity":1.0,"stretto":false,"stretto_voices":0,"combination":[]},{"voice":0,"pitch":73,"start":400.8,"duration":0.6,"velocity":127,"measure":168,"beat":1.0,"subject_pos":-1,"motif":"","motif_pos":-1,"best_pos":6,"similarity":0.4,"stretto":false,"stretto_voices":0,"combination":[]},{"voice":1,"pitch":69,"start":400.8,"duration":0.3,"velocity":127,"measure":168,"beat":1.0,"subject_pos":-1,"motif":"enigmatic_cell","motif_pos":1,"best_pos":1,"similarity":1.0,"stretto":false,"stretto_voices":0,"combination":[]},{"voice":2,"pitch":57,"start":400.8,"duration":4.8,"velocity":127,"measure":168,"beat":1.0,"subject_pos":-1,"motif":"","motif_pos":-1,"best_pos":1,"similarity":0.386,"stretto":false,"stretto_voices":0,"combination":[]},{"voice":1,"pitch":64,"start":401.1,"duration":0.3,"velocity":127,"measure":168,"beat":1.5,"subject_pos":-1,"motif":"enigmatic_cell","motif_pos":2,"best_pos":2,"similarity":1.0,"stretto":false,"stretto_voices":0,"combination":[]},{"voice":0,"pitch":77,"start":401.4,"duration":0.6,"velocity":127,"measure":168,"beat":2.0,"subject_pos":-1,"motif":"","motif_pos":-1,"best_pos":1,"similarity":0.286,"stretto":false,"stretto_voices":0,"combination":[]},{"voice":1,"pitch":69,"start":401.4,"duration":0.3,"velocity":127,"measure":168,"beat":2.0,"subject_pos":-1,"motif":"","motif_pos":-1,"best_pos":1,"similarity":0.389,"stretto":false,"stretto_voices":0,"combination":[]},{"voice":1,"pitch":69,"start":401.7,"duration":0.3,"velocity":127,"measure":168,"beat":2.5,"subject_pos":-1,"motif":"","motif_pos":-1,"best_pos":4,"similarity":0.393,"stretto":false,"stretto_voices":0,"combination":[]},{"voice":0,"pitch":71,"start":402.0,"duration":0.3,"velocity":127,"measure":168,"beat":3.0,"subject_pos":-1,"motif":"","motif_pos":-1,"best_pos":2,"similarity":0.304,"stretto":false,"stretto_voices":0,"combination":[]},{"voice":1,"pitch":69,"start":402.0,"duration":0.3,"velocity":127,"measure":168,"beat":3.0,"subject_pos":-1,"motif":"","motif_pos":-1,"best_pos":2,"similarity":0.429,"stretto":false,"stretto_voices":0,"combination":[]},{"voice":0,"pitch":74,"start":402.3,"duration":0.3,"velocity":127,"measure":168,"beat":3.5,"subject_pos":-1,"motif":"","motif_pos":-1,"best_pos":3,"similarity":0.393,"stretto":false,"stretto_voices":0,"combination":[]},{"voice":1,"pitch":66,"start":402.3,"duration":0.3,"velocity":127,"measure":168,"beat":3.5,"subject_pos":-1,"motif":"","motif_pos":-1,"best_pos":3,"similarity":0.482,"stretto":false,"stretto_voices":0,"combination":[]},{"voice":0,"pitch":73,"start":402.6,"duration":0.3,"velocity":127,"measure":168,"beat":4.0,"subject_pos":-1,"motif":"","motif_pos":-1,"best_pos":4,"similarity":0.375,"stretto":false,"stretto_voices":0,"combination":[]},{"voice":1,"pitch":67,"start":402.6,"duration":0.3,"velocity":127,"measure":168,"beat":4.0,"subject_pos":-1,"motif":"","motif_pos":-1,"best_pos":5,"similarity":0.471,"stretto":false,"stretto_voices":0,"combination":[]},{"voice":0,"pitch":76,"start":402.9,"duration":0.3,"velocity":127,"measure":168,"beat":4.5,"subject_pos":-1,"motif":"","motif_pos":-1,"best_pos":5,"similarity":0.214,"stretto":false,"stretto_voices":0,"combination":[]},{"voice":1,"pitch":67,"start":402.9,"duration":0.3,"velocity":127,"measure":168,"beat":4.5,"subject_pos":-1,"motif":"","motif_pos":-1,"best_pos":4,"similarity":0.407,"stretto":false,"stretto_voices":0,"combination":[]},{"voice":0,"pitch":69,"start":403.2,"duration":0.6,"velocity":127,"measure":169,"beat":1.0,"subject_pos":-1,"motif":"","motif_pos":-1,"best_pos":2,"similarity":0.171,"stretto":false,"stretto_voices":0,"combination":[]},{"voice":1,"pitch":67,"start":403.2,"duration":0.3,"velocity":127,"measure":169,"beat":1.0,"subject_pos":-1,"motif":"","motif_pos":-1,"best_pos":2,"similarity":0.4,"stretto":false,"stretto_voices":0,"combination":[]},{"voice":1,"pitch":64,"start":403.5,"duration":0.3,"velocity":127,"measure":169,"beat":1.5,"subject_pos":-1,"motif":"","motif_pos":-1,"best_pos":3,"similarity":0.407,"stretto":false,"stretto_voices":0,"combination":[]},{"voice":0,"pitch":81,"start":403.8,"duration":0.3,"velocity":127,"measure":169,"beat":2.0,"subject_pos":-1,"motif":"","motif_pos":-1,"best_pos":3,"similarity":0.246,"stretto":false,"stretto_voices":0,"combination":[]},{"voice":1,"pitch":65,"start":403.8,"duration":0.3,"velocity":127,"measure":169,"beat":2.0,"subject_pos":-1,"motif":"","motif_pos":-1,"best_pos":2,"similarity":0.368,"stretto":false,"stretto_voices":0,"combination":[]},{"voice":0,"pitch":81,"start":404.1,"duration":0.3,"velocity":127,"measure":169,"beat":2.5,"subject_pos":-1,"motif":"","motif_pos":-1,"best_pos":4,"similarity":0.364,"stretto":false,"stretto_voices":0,"combination":[]},{"voice":1,"pitch":62,"start":404.1,"duration":0.3,"velocity":127,"measure":169,"beat":2.5,"subject_pos":-1,"motif":"","motif_pos":-1,"best_pos":2,"similarity":0.475,"stretto":false,"stretto_voices":0,"combination":[]},{"voice":0,"pitch":81,"start":404.4,"duration":0.3,"velocity":127,"measure":169,"beat":3.0,"subject_pos":-1,"motif":"","motif_pos":-1,"best_pos":2,"similarity":0.429,"stretto":false,"stretto_voices":0,"combination":[]},{"voice":1,"pitch":59,"start":404.4,"duration":0.3,"velocity":127,"measure":169,"beat":3.0,"subject_pos":-1,"motif":"","motif_pos":-1,"best_pos":3,"similarity":0.464,"stretto":false,"stretto_voices":0,"combination":[]},{"voice":0,"pitch":78,"start":404.7,"duration":0.3,"velocity":127,"measure":169,"beat":3.5,"subject_pos":-1,"motif":"","motif_pos":-1,"best_pos":3,"similarity":0.482,"stretto":false,"stretto_voices":0,"combination":[]},{"voice":1,"pitch":62,"start":404.7,"duration":0.3,"velocity":127,"measure":169,"beat":3.5,"subject_pos":-1,"motif":"","motif_pos":-1,"best_pos":3,"similarity":0.393,"stretto":false,"stretto_voices":0,"combination":[]},{"voice":0,"pitch":79,"start":405.0,"duration":0.3,"velocity":127,"measure":169,"beat":4.0,"subject_pos":-1,"motif":"","motif_pos":-1,"best_pos":5,"similarity":0.471,"stretto":false,"stretto_voices":0,"combination":[]},{"voice":1,"pitch":61,"start":405.0,"duration":0.3,"velocity":127,"measure":169,"beat":4.0,"subject_pos":-1,"motif":"","motif_pos":-1,"best_pos":4,"similarity":0.4,"stretto":false,"stretto_voices":0,"combination":[]},{"voice":0,"pitch":79,"start":405.3,"duration":0.3,"velocity":127,"measure":169,"beat":4.5,"subject_pos":-1,"motif":"","motif_pos":-1,"best_pos":4,"similarity":0.407,"stretto":false,"stretto_voices":0,"combination":[]},{"voice":1,"pitch":64,"start":405.3,"duration":0.3,"velocity":127,"measure":169,"beat":4.5,"subject_pos":-1,"motif":"","motif_pos":-1,"best_pos":5,"similarity":0.229,"stretto":false,"stretto_voices":0,"combination":[]},{"voice":0,"pitch":79,"start":405.6,"duration":0.3,"velocity":127,"measure":170,"beat":1.0,"subject_pos":-1,"motif":"","motif_pos":-1,"best_pos":2,"similarity":0.429,"stretto":false,"stretto_voices":0,"combination":[]},{"voice":1,"pitch":57,"start":405.6,"duration":0.6,"velocity":127,"measure":170,"beat":1.0,"subject_pos":-1,"motif":"","motif_pos":-1,"best_pos":0,"similarity":0.446,"stretto":false,"stretto_voices":0,"combination":[]},{"voice":0,"pitch":76,"start":405.9,"duration":0.3,"velocity":127,"measure":170,"beat":1.5,"subject_pos":-1,"motif":"","motif_pos":-1,"best_pos":3,"similarity":0.482,"stretto":false,"stretto_voices":0,"combination":[]},{"voice":0,"pitch":77,"start":406.2,"duration":0.3,"velocity":127,"measure":170,"beat":2.0,"subject_pos":-1,"motif":"","motif_pos":-1,"best_pos":5,"similarity":0.471,"stretto":false,"stretto_voices":0,"combination":[]},{"voice":1,"pitch":62,"start":406.2,"duration":0.3,"velocity":127,"measure":170,"beat":2.0,"subject_pos":-1,"motif":"","motif_pos":-1,"best_pos":1,"similarity":0.679,"stretto":false,"stretto_voices":0,"combination":[]},{"voice":0,"pitch":77,"start":406.5,"duration":0.3,"velocity":127,"measure":170,"beat":2.5,"subject_pos":-1,"motif":"","motif_pos":-1,"best_pos":6,"similarity":0.375,"stretto":false,"stretto_voices":0,"combination":[]},{"voice":1,"pitch":60,"start":406.5,"duration":0.3,"velocity":127,"measure":170,"beat":2.5,"subject_pos":-1,"motif":"","motif_pos":-1,"best_pos":2,"similarity":0.65,"stretto":false,"stretto_voices":0,"combination":[]},{"voice":0,"pitch":77,"start":406.8,"duration":0.3,"velocity":127,"measure":170,"beat":3.0,"subject_pos":-1,"motif":"","motif_pos":-1,"best_pos":2,"similarity":0.407,"stretto":false,"stretto_voices":0,"combination":[]},{"voice":1,"pitch":59,"start":406.8,"duration":0.6,"velocity":127,"measure":170,"beat":3.0,"subject_pos":-1,"motif":"","motif_pos":-1,"best_pos":3,"similarity":0.621,"stretto":false,"stretto_voices":0,"combination":[]},{"voice":2,"pitch":50,"start":406.8,"duration":1.2,"velocity":127,"measure":170,"beat":3.0,"subject_pos":-1,"motif":"","motif_pos":-1,"best_pos":2,"similarity":0.314,"stretto":false,"stretto_voices":0,"combination":[]},{"voice":0,"pitch":74,"start":407.1,"duration":0.3,"velocity":127,"measure":170,"beat":3.5,"subject_pos":-1,"motif":"","motif_pos":-1,"best_pos":5,"similarity":0.464,"stretto":false,"stretto_voices":0,"combination":[]},{"voice":0,"pitch":76,"start":407.4,"duration":0.3,"velocity":127,"measure":170,"beat":4.0,"subject_pos":-1,"motif":"","motif_pos":-1,"best_pos":6,"similarity":0.479,"stretto":false,"stretto_voices":0,"combination":[]},{"voice":1,"pitch":58,"start":407.4,"duration":0.9,"velocity":127,"measure":170,"beat":4.0,"subject_pos":-1,"motif":"","motif_pos":-1,"best_pos":4,"similarity":0.529,"stretto":false,"stretto_voices":0,"combination":[]},{"voice":0,"pitch":76,"start":407.7,"duration":0.3,"velocity":127,"measure":170,"beat":4.5,"subject_pos":-1,"motif":"","motif_pos":-1,"best_pos":4,"similarity":0.321,"stretto":false,"stretto_voices":0,"combination":[]},{"voice":0,"pitch":76,"start":408.0,"duration":0.6,"velocity":127,"measure":171,"beat":1.0,"subject_pos":-1,"motif":"","motif_pos":-1,"best_pos":5,"similarity":0.214,"stretto":false,"stretto_voices":0,"combination":[]},{"voice":2,"pitch":48,"start":408.0,"duration":0.6,"velocity":127,"measure":171,"beat":1.0,"subject_pos":-1,"motif":"","motif_pos":-1,"best_pos":0,"similarity":0.339,"stretto":false,"stretto_voices":0,"combination":[]},{"voice":1,"pitch":56,"start":408.3,"duration":0.3,"velocity":127,"measure":171,"beat":1.5,"subject_pos":-1,"motif":"","motif_pos":-1,"best_pos":4,"similarity":0.571,"stretto":false,"stretto_voices":0,"combination":[]},{"voice":0,"pitch":69,"start":408.6,"duration":0.6,"velocity":127,"measure":171,"beat":2.0,"subject_pos":0,"motif":"subject_inv","motif_pos":0,"best_pos":0,"similarity":1.0,"stretto":false,"stretto_voices":0,"combination":[]},{"voice":1,"pitch":57,"start":408.6,"duration":0.3,"velocity":127,"measure":171,"beat":2.0,"subject_pos":-1,"motif":"","motif_pos":-1,"best_pos":5,"similarity":0.518,"stretto":false,"stretto_voices":0,"combination":[]},{"voice":2,"pitch":53,"start":408.6,"duration":0.6,"velocity":127,"measure":171,"beat":2.0,"subject_pos":-1,"motif":"","motif_pos":-1,"best_pos":1,"similarity":0.464,"stretto":false,"stretto_voices":0,"combination":[]},{"voice":1,"pitch":57,"start":408.9,"duration":0.3,"velocity":127,"measure":171,"beat":2.5,"subject_pos":-1,"motif":"","motif_pos":-1,"best_pos":4,"similarity":0.443,"stretto":false,"stretto_voices":0,"combination":[]},{"voice":0,"pitch":62,"start":409.2,"duration":0.6,"velocity":127,"measure":171,"beat":3.0,"subject_pos":1,"motif":"subject_inv","motif_pos":1,"best_pos":1,"similarity":1.0,"stretto":false,"stretto_voices":0,"combination":[]},{"voice":1,"pitch":57,"start":409.2,"duration":0.3,"velocity":127,"measure":171,"beat":3.0,"subject_pos":-1,"motif":"","motif_pos":-1,"best_pos":2,"similarity":0.429,"stretto":false,"stretto_voices":0,"combination":[]},{"voice":2,"pitch":47,"start":409.2,"duration":0.6,"velocity":127,"measure":171,"beat":3.0,"subject_pos":-1,"motif":"","motif_pos":-1,"best_pos":2,"similarity":0.436,"stretto":false,"stretto_voices":0,"combination":[]},{"voice":1,"pitch":54,"start":409.5,"duration":0.3,"velocity":127,"measure":171,"beat":3.5,"subject_pos":-1,"motif":"","motif_pos":-1,"best_pos":3,"similarity":0.482,"stretto":false,"stretto_voices":0,"combination":[]},{"voice":0,"pitch":64,"start":409.8,"duration":0.6,"velocity":127,"measure":171,"beat":4.0,"subject_pos":2,"motif":"subject_inv","motif_pos":2,"best_pos":2,"similarity":1.0,"stretto":false,"stretto_voices":0,"combination":[]},{"voice":1,"pitch":55,"start":409.8,"duration":0.3,"velocity":127,"measure":171,"beat":4.0,"subject_pos":-1,"motif":"","motif_pos":-1,"best_pos":5,"similarity":0.471,"stretto":false,"stretto_voices":0,"combination":[]},{"voice":2,"pitch":46,"start":409.8,"duration":0.6,"velocity":127,"measure":171,"beat":4.0,"subject_pos":-1,"motif":"enigmatic_cell","motif_pos":0,"best_pos":0,"similarity":1.0,"stretto":false,"stretto_voices":0,"combination":[]},{"voice":1,"pitch":55,"start":410.1,"duration":0.3,"velocity":127,"measure":171,"beat":4.5,"subject_pos":-1,"motif":"","motif_pos":-1,"best_pos":4,"similarity":0.407,"stretto":false,"stretto_voices":0,"combination":[]},{"voice":1,"pitch":55,"start":410.4,"duration":0.3,"velocity":127,"measure":172,"beat":1.0,"subject_pos":-1,"motif":"","motif_pos":-1,"best_pos":2,"similarity":0.429,"stretto":false,"stretto_voices":0,"combination":[]},{"voice":2,"pitch":45,"start":410.4,"duration":0.6,"velocity":127,"measure":172,"beat":1.0,"subject_pos":-1,"motif":"enigmatic_cell","motif_pos":1,"best_pos":1,"similarity":1.0,"stretto":false,"stretto_voices":0,"combination":[]},{"voice":1,"pitch":52,"start":410.7,"duration":0.3,"velocity":127,"measure":172,"beat":1.5,"subject_pos":-1,"motif":"","motif_pos":-1,"best_pos":3,"similarity":0.482,"stretto":false,"stretto_voices":0,"combination":[]},{"voice":0,"pitch":65,"start":411.0,"duration":0.6,"velocity":127,"measure":172,"beat":2.0,"subject_pos":3,"motif":"subject_inv","motif_pos":3,"best_pos":3,"similarity":1.0,"stretto":false,"stretto_voices":0,"combination":[]},{"voice":1,"pitch":53,"start":411.0,"duration":0.3,"velocity":127,"measure":172,"beat":2.0,"subject_pos":-1,"motif":"","motif_pos":-1,"best_pos":5,"similarity":0.471,"stretto":false,"stretto_voices":0,"combination":[]},{"voice":2,"pitch":50,"start":411.0,"duration":0.6,"velocity":127,"measure":172,"beat":2.0,"subject_pos":-1,"motif":"enigmatic_cell","motif_pos":2,"best_pos":2,"similarity":1.0,"stretto":false,"stretto_voices":0,"combination":[]},{"voice":1,"pitch":53,"start":411.3,"duration":0.3,"velocity":127,"measure":172,"beat":2.5,"subject_pos":-1,"motif":"","motif_pos":-1,"best_pos":6,"similarity":0.375,"stretto":false,"stretto_voices":0,"combination":[]},{"voice":0,"pitch":67,"start":411.6,"duration":0.6,"velocity":127,"measure":172,"beat":3.0,"subject_pos":4,"motif":"subject_inv","motif_pos":4,"best_pos":4,"similarity":1.0,"stretto":false,"stretto_voices":0,"combination":[]},{"voice":1,"pitch":53,"start":411.6,"duration":0.3,"velocity":127,"measure":172,"beat":3.0,"subject_pos":-1,"motif":"","motif_pos":-1,"best_pos":1,"similarity":0.393,"stretto":false,"stretto_voices":0,"combination":[]},{"voice":2,"pitch":43,"start":411.6,"duration":1.2,"velocity":127,"measure":172,"beat":3.0,"subject_pos":-1,"motif":"","motif_pos":-1,"best_pos":2,"similarity":0.364,"stretto":false,"stretto_voices":0,"combination":[]},{"voice":1,"pitch":51,"start":411.9,"duration":0.3,"velocity":127,"measure":172,"beat":3.5,"subject_pos":-1,"motif":"","motif_pos":-1,"best_pos":2,"similarity":0.571,"stretto":false,"stretto_voices":0,"combination":[]},{"voice":0,"pitch":69,"start":412.2,"duration":0.6,"velocity":127,"measure":172,"beat":4.0,"subject_pos":5,"motif":"subject_inv","motif_pos":5,"best_pos":5,"similarity":1.0,"stretto":false,"stretto_voices":0,"combination":[]},{"voice":1,"pitch":50,"start":412.2,"duration":0.3,"velocity":127,"measure":172,"beat":4.0,"subject_pos":-1,"motif":"","motif_pos":-1,"best_pos":3,"similarity":0.679,"stretto":false,"stretto_voices":0,"combination":[]},{"voice":1,"pitch":49,"start":412.5,"duration":0.3,"velocity":127,"measure":172,"beat":4.5,"subject_pos":-1,"motif":"","motif_pos":-1,"best_pos":4,"similarity":0.768,"stretto":false,"stretto_voices":0,"combination":[]},{"voice":1,"pitch":50,"start":412.8,"duration":0.3,"velocity":127,"measure":173,"beat":1.0,"subject_pos":-1,"motif":"","motif_pos":-1,"best_pos":5,"similarity":0.625,"stretto":false,"stretto_voices":0,"combination":[]},{"voice":2,"pitch":41,"start":412.8,"duration":0.6,"velocity":127,"measure":173,"beat":1.0,"subject_pos":-1,"motif":"","motif_pos":-1,"best_pos":4,"similarity":0.45,"stretto":false,"stretto_voices":0,"combination":[]},{"voice":1,"pitch":53,"start":413.1,"duration":0.3,"velocity":127,"measure":173,"beat":1.5,"subject_pos":-1,"motif":"","motif_pos":-1,"best_pos":6,"similarity":0.429,"stretto":false,"stretto_voices":0,"combination":[]},{"voice":0,"pitch":70,"start":413.4,"duration":0.6,"velocity":127,"measure":173,"beat":2.0,"subject_pos":6,"motif":"subject_inv","motif_pos":6,"best_pos":6,"similarity":1.0,"stretto":false,"stretto_voices":0,"combination":[]},{"voice":1,"pitch":52,"start":413.4,"duration":0.3,"velocity":127,"measure":173,"beat":2.0,"subject_pos":-1,"motif":"","motif_pos":-1,"best_pos":2,"similarity":0.536,"stretto":false,"stretto_voices":0,"combination":[]},{"voice":2,"pitch":43,"start":413.4,"duration":0.6,"velocity":127,"measure":173,"beat":2.0,"subject_pos":-1,"motif":"","motif_pos":-1,"best_pos":5,"similarity":0.521,"stretto":false,"stretto_voices":0,"combination":[]},{"voice":1,"pitch":50,"start":413.7,"duration":0.3,"velocity":127,"measure":173,"beat":2.5,"subject_pos":-1,"motif":"","motif_pos":-1,"best_pos":3,"similarity":0.661,"stretto":false,"stretto_voices":0,"combination":[]},{"voice":0,"pitch":69,"start":414.0,"duration":0.6,"velocity":127,"measure":173,"beat":3.0,"subject_pos":7,"motif":"subject_inv","motif_pos":7,"best_pos":7,"similarity":1.0,"stretto":false,"stretto_voices":0,"combination":[]},{"voice":1,"pitch":49,"start":414.0,"duration":0.3,"velocity":127,"measure":173,"beat":3.0,"subject_pos":-1,"motif":"","motif_pos":-1,"best_pos":4,"similarity":0.714,"stretto":false,"stretto_voices":0,"combination":[]},{"voice":2,"pitch":45,"start":414.0,"duration":0.3,"velocity":127,"measure":173,"beat":3.0,"subject_pos":-1,"motif":"","motif_pos":-1,"best_pos":6,"similarity":0.421,"stretto":false,"stretto_voices":0,"combination":[]},{"voice":1,"pitch":50,"start":414.3,"duration":0.3,"velocity":127,"measure":173,"beat":3.5,"subject_pos":-1,"motif":"","motif_pos":-1,"best_pos":5,"similarity":0.536,"stretto":false,"stretto_voices":0,"combination":[]},{"voice":2,"pitch":43,"start":414.3,"duration":0.3,"velocity":127,"measure":173,"beat":3.5,"subject_pos":-1,"motif":"","motif_pos":-1,"best_pos":5,"similarity":0.329,"stretto":false,"stretto_voices":0,"combination":[]},{"voice":0,"pitch":67,"start":414.6,"duration":0.6,"velocity":127,"measure":173,"beat":4.0,"subject_pos":8,"motif":"subject_inv","motif_pos":8,"best_pos":0,"similarity":1.0,"stretto":false,"stretto_voices":0,"combination":[]},{"voice":1,"pitch":47,"start":414.6,"duration":0.3,"velocity":127,"measure":173,"beat":4.0,"subject_pos":-1,"motif":"","motif_pos":-1,"best_pos":3,"similarity":0.543,"stretto":false,"stretto_voices":0,"combination":[]},{"voice":2,"pitch":45,"start":414.6,"duration":0.6,"velocity":127,"measure":173,"beat":4.0,"subject_pos":-1,"motif":"","motif_pos":-1,"best_pos":6,"similarity":0.307,"stretto":false,"stretto_voices":0,"combination":[]},{"voice":1,"pitch":49,"start":414.9,"duration":0.3,"velocity":127,"measure":173,"beat":4.5,"subject_pos":-1,"motif":"","motif_pos":-1,"best_pos":4,"similarity":0.679,"stretto":false,"stretto_voices":0,"combination":[]},{"voice":1,"pitch":50,"start":415.2,"duration":0.3,"velocity":127,"measure":174,"beat":1.0,"subject_pos":-1,"motif":"","motif_pos":-1,"best_pos":5,"similarity":0.8,"stretto":false,"stretto_voices":0,"combination":[]},{"voice":2,"pitch":38,"start":415.2,"duration":0.6,"velocity":127,"measure":174,"beat":1.0,"subject_pos":-1,"motif":"","motif_pos":-1,"best_pos":0,"similarity":0.179,"stretto":false,"stretto_voices":0,"combination":[]},{"voice":1,"pitch":52,"start":415.5,"duration":0.3,"velocity":127,"measure":174,"beat":1.5,"subject_pos":-1,"motif":"","motif_pos":-1,"best_pos":6,"similarity":0.721,"stretto":false,"stretto_voices":0,"combination":[]},{"voice":0,"pitch":65,"start":415.8,"duration":0.3,"velocity":127,"measure":174,"beat":2.0,"subject_pos":-1,"motif":"","motif_pos":-1,"best_pos":3,"similarity":0.786,"stretto":false,"stretto_voices":0,"combination":[]},{"voice":1,"pitch":53,"start":415.8,"duration":0.3,"velocity":127,"measure":174,"beat":2.0,"subject_pos":-1,"motif":"","motif_pos":-1,"best_pos":5,"similarity":0.664,"stretto":false,"stretto_voices":0,"combination":[]},{"voice":2,"pitch":50,"start":415.8,"duration":0.9,"velocity":127,"measure":174,"beat":2.0,"subject_pos":-1,"motif":"","motif_pos":-1,"best_pos":1,"similarity":0.357,"stretto":false,"stretto_voices":0,"combination":[]},{"voice":0,"pitch":64,"start":416.1,"duration":0.3,"velocity":127,"measure":174,"beat":2.5,"subject_pos":-1,"motif":"","motif_pos":-1,"best_pos":4,"similarity":0.893,"stretto":false,"stretto_voices":0,"combination":[]},{"voice":1,"pitch":55,"start":416.1,"duration":0.3,"velocity":127,"measure":174,"beat":2.5,"subject_pos":-1,"motif":"","motif_pos":-1,"best_pos":6,"similarity":0.579,"stretto":false,"stretto_voices":0,"combination":[]},{"voice":0,"pitch":65,"start":416.4,"duration":0.6,"velocity":127,"measure":174,"beat":3.0,"subject_pos":-1,"motif":"","motif_pos":-1,"best_pos":5,"similarity":0.821,"stretto":false,"stretto_voices":0,"combination":[]},{"voice":1,"pitch":57,"start":416.4,"duration":0.6,"velocity":127,"measure":174,"beat":3.0,"subject_pos":-1,"motif":"","motif_pos":-1,"best_pos":6,"similarity":0.404,"stretto":false,"stretto_voices":0,"combination":[]},{"voice":2,"pitch":48,"start":416.7,"duration":0.3,"velocity":127,"measure":174,"beat":3.5,"subject_pos":-1,"motif":"","motif_pos":-1,"best_pos":2,"similarity":0.436,"stretto":false,"stretto_voices":0,"combination":[]},{"voice":0,"pitch":67,"start":417.0,"duration":0.6,"velocity":127,"measure":174,"beat":4.0,"subject_pos":-1,"motif":"","motif_pos":-1,"best_pos":6,"similarity":0.643,"stretto":false,"stretto_voices":0,"combination":[]},{"voice":1,"pitch":62,"start":417.0,"duration":0.6,"velocity":127,"measure":174,"beat":4.0,"subject_pos":-1,"motif":"","motif_pos":-1,"best_pos":1,"similarity":0.314,"stretto":false,"stretto_voices":0,"combination":[]},{"voice":2,"pitch":46,"start":417.0,"duration":0.3,"velocity":127,"measure":174,"beat":4.0,"subject_pos":-1,"motif":"","motif_pos":-1,"best_pos":2,"similarity":0.357,"stretto":false,"stretto_voices":0,"combination":[]},{"voice":2,"pitch":50,"start":417.3,"duration":0.3,"velocity":127,"measure":174,"beat":4.5,"subject_pos":-1,"motif":"","motif_pos":-1,"best_pos":1,"similarity":0.464,"stretto":false,"stretto_voices":0,"combination":[]},{"voice":0,"pitch":69,"start":417.6,"duration":0.3,"velocity":127,"measure":175,"beat":1.0,"subject_pos":-1,"motif":"","motif_pos":-1,"best_pos":6,"similarity":0.404,"stretto":false,"stretto_voices":0,"combination":[]},{"voice":1,"pitch":54,"start":417.6,"duration":0.6,"velocity":127,"measure":175,"beat":1.0,"subject_pos":-1,"motif":"","motif_pos":-1,"best_pos":2,"similarity":0.179,"stretto":false,"stretto_voices":0,"combination":[]},{"voice":2,"pitch":48,"start":417.6,"duration":0.6,"velocity":127,"measure":175,"beat":1.0,"subject_pos":-1,"motif":"","motif_pos":-1,"best_pos":2,"similarity":0.446,"stretto":false,"stretto_voices":0,"combination":[]},{"voice":0,"pitch":67,"start":417.9,"duration":0.3,"velocity":127,"measure":175,"beat":1.5,"subject_pos":-1,"motif":"","motif_pos":-1,"best_pos":3,"similarity":0.486,"stretto":false,"stretto_voices":0,"combination":[]},{"voice":0,"pitch":66,"start":418.2,"duration":0.3,"velocity":127,"measure":175,"beat":2.0,"subject_pos":-1,"motif":"","motif_pos":-1,"best_pos":4,"similarity":0.436,"stretto":false,"stretto_voices":0,"combination":[]},{"voice":1,"pitch":57,"start":418.2,"duration":0.6,"velocity":127,"measure":175,"beat":2.0,"subject_pos":-1,"motif":"","motif_pos":-1,"best_pos":0,"similarity":0.293,"stretto":false,"stretto_voices":0,"combination":[]},{"voice":2,"pitch":60,"start":418.2,"duration":0.9,"velocity":127,"measure":175,"beat":2.0,"subject_pos":-1,"motif":"","motif_pos":-1,"best_pos":3,"similarity":0.393,"stretto":false,"stretto_voices":0,"combination":[]},{"voice":0,"pitch":69,"start":418.5,"duration":0.3,"velocity":127,"measure":175,"beat":2.5,"subject_pos":-1,"motif":"","motif_pos":-1,"best_pos":5,"similarity":0.25,"stretto":false,"stretto_voices":0,"combination":[]},{"voice":0,"pitch":62,"start":418.8,"duration":0.6,"velocity":127,"measure":175,"beat":3.0,"subject_pos":-1,"motif":"","motif_pos":-1,"best_pos":0,"similarity":0.179,"stretto":false,"stretto_voices":0,"combination":[]},{"voice":1,"pitch":62,"start":418.8,"duration":0.6,"velocity":127,"measure":175,"beat":3.0,"subject_pos":-1,"motif":"","motif_pos":-1,"best_pos":1,"similarity":0.336,"stretto":false,"stretto_voices":0,"combination":[]},{"voice":2,"pitch":58,"start":419.1,"duration":0.3,"velocity":127,"measure":175,"beat":3.5,"subject_pos":-1,"motif":"","motif_pos":-1,"best_pos":3,"similarity":0.471,"stretto":false,"stretto_voices":0,"combination":[]},{"voice":0,"pitch":74,"start":419.4,"duration":0.9,"velocity":127,"measure":175,"beat":4.0,"subject_pos":-1,"motif":"","motif_pos":-1,"best_pos":1,"similarity":0.357,"stretto":false,"stretto_voices":0,"combination":[]},{"voice":1,"pitch":66,"start":419.4,"duration":0.6,"velocity":127,"measure":175,"beat":4.0,"subject_pos":-1,"motif":"","motif_pos":-1,"best_pos":6,"similarity":0.379,"stretto":false,"stretto_voices":0,"combination":[]},{"voice":2,"pitch":57,"start":419.4,"duration":0.3,"velocity":127,"measure":175,"beat":4.0,"subject_pos":-1,"motif":"","motif_pos":-1,"best_pos":4,"similarity":0.443,"stretto":false,"stretto_voices":0,"combination":[]},{"voice":2,"pitch":60,"start":419.7,"duration":0.3,"velocity":127,"measure":175,"beat":4.5,"subject_pos":-1,"motif":"","motif_pos":-1,"best_pos":1,"similarity":0.429,"stretto":false,"stretto_voices":0,"combination":[]},{"voice":1,"pitch":67,"start":420.0,"duration":0.9,"velocity":127,"measure":176,"beat":1.0,"subject_pos":-1,"motif":"","motif_pos":-1,"best_pos":1,"similarity":0.421,"stretto":false,"stretto_voices":0,"combination":[]},{"voice":2,"pitch":58,"start":420.0,"duration":0.6,"velocity":127,"measure":176,"beat":1.0,"subject_pos":-1,"motif":"","motif_pos":-1,"best_pos":2,"similarity":0.471,"stretto":false,"stretto_voices":0,"combination":[]},{"voice":0,"pitch":72,"start":420.3,"duration":0.3,"velocity":127,"measure":176,"beat":1.5,"subject_pos":-1,"motif":"","motif_pos":-1,"best_pos":2,"similarity":0.429,"stretto":false,"stretto_voices":0,"combination":[]},{"voice":0,"pitch":70,"start":420.6,"duration":0.3,"velocity":127,"measure":176,"beat":2.0,"subject_pos":-1,"motif":"","motif_pos":-1,"best_pos":2,"similarity":0.293,"stretto":false,"stretto_voices":0,"combination":[]},{"voice":2,"pitch":46,"start":420.6,"duration":0.9,"velocity":127,"measure":176,"beat":2.0,"subject_pos":-1,"motif":"","motif_pos":-1,"best_pos":3,"similarity":0.496,"stretto":false,"stretto_voices":0,"combination":[]},{"voice":0,"pitch":74,"start":420.9,"duration":0.3,"velocity":127,"measure":176,"beat":2.5,"subject_pos":-1,"motif":"","motif_pos":-1,"best_pos":1,"similarity":0.207,"stretto":false,"stretto_voices":0,"combination":[]},{"voice":1,"pitch":65,"start":420.9,"duration":0.3,"velocity":127,"measure":176,"beat":2.5,"subject_pos":-1,"motif":"","motif_pos":-1,"best_pos":2,"similarity":0.532,"stretto":false,"stretto_voices":0,"combination":[]},{"voice":0,"pitch":67,"start":421.2,"duration":0.6,"velocity":127,"measure":176,"beat":3.0,"subject_pos":-1,"motif":"","motif_pos":-1,"best_pos":0,"similarity":0.446,"stretto":false,"stretto_voices":0,"combination":[]},{"voice":1,"pitch":64,"start":421.2,"duration":0.6,"velocity":127,"measure":176,"beat":3.0,"subject_pos":-1,"motif":"","motif_pos":-1,"best_pos":3,"similarity":0.55,"stretto":false,"stretto_voices":0,"combination":[]},{"voice":2,"pitch":45,"start":421.5,"duration":0.3,"velocity":127,"measure":176,"beat":3.5,"subject_pos":-1,"motif":"","motif_pos":-1,"best_pos":4,"similarity":0.475,"stretto":false,"stretto_voices":0,"combination":[]},{"voice":0,"pitch":72,"start":421.8,"duration":0.9,"velocity":127,"measure":176,"beat":4.0,"subject_pos":-1,"motif":"","motif_pos":-1,"best_pos":1,"similarity":0.614,"stretto":false,"stretto_voices":0,"combination":[]},{"voice":1,"pitch":63,"start":421.8,"duration":0.9,"velocity":127,"measure":176,"beat":4.0,"subject_pos":-1,"motif":"","motif_pos":-1,"best_pos":4,"similarity":0.496,"stretto":false,"stretto_voices":0,"combination":[]},{"voice":2,"pitch":43,"start":421.8,"duration":0.3,"velocity":127,"measure":176,"beat":4.0,"subject_pos":-1,"motif":"","motif_pos":-1,"best_pos":2,"similarity":0.429,"stretto":false,"stretto_voices":0,"combination":[]},{"voice":2,"pitch":46,"start":422.1,"duration":0.3,"velocity":127,"measure":176,"beat":4.5,"subject_pos":-1,"motif":"","motif_pos":-1,"best_pos":3,"similarity":0.436,"stretto":false,"stretto_voices":0,"combination":[]},{"voice":2,"pitch":45,"start":422.4,"duration":0.6,"velocity":127,"measure":177,"beat":1.0,"subject_pos":-1,"motif":"","motif_pos":-1,"best_pos":4,"similarity":0.389,"stretto":false,"stretto_voices":0,"combination":[]},{"voice":0,"pitch":70,"start":422.7,"duration":0.3,"velocity":127,"measure":177,"beat":1.5,"subject_pos":-1,"motif":"","motif_pos":-1,"best_pos":2,"similarity":0.521,"stretto":false,"stretto_voices":0,"combination":[]},{"voice":1,"pitch":62,"start":422.7,"duration":0.3,"velocity":127,"measure":177,"beat":1.5,"subject_pos":-1,"motif":"","motif_pos":-1,"best_pos":4,"similarity":0.475,"stretto":false,"stretto_voices":0,"combination":[]},{"voice":0,"pitch":69,"start":423.0,"duration":0.3,"velocity":127,"measure":177,"beat":2.0,"subject_pos":-1,"motif":"","motif_pos":-1,"best_pos":4,"similarity":0.479,"stretto":false,"stretto_voices":0,"combination":[]},{"voice":1,"pitch":60,"start":423.0,"duration":0.3,"velocity":127,"measure":177,"beat":2.0,"subject_pos":-1,"motif":"","motif_pos":-1,"best_pos":2,"similarity":0.464,"stretto":false,"stretto_voices":0,"combination":[]},{"voice":2,"pitch":57,"start":423.0,"duration":0.9,"velocity":127,"measure":177,"beat":2.0,"subject_pos":-1,"motif":"","motif_pos":-1,"best_pos":1,"similarity":0.329,"stretto":false,"stretto_voices":0,"combination":[]},{"voice":0,"pitch":72,"start":423.3,"duration":0.3,"velocity":127,"measure":177,"beat":2.5,"subject_pos":-1,"motif":"","motif_pos":-1,"best_pos":1,"similarity":0.379,"stretto":false,"stretto_voices":0,"combination":[]},{"voice":1,"pitch":63,"start":423.3,"duration":0.3,"velocity":127,"measure":177,"beat":2.5,"subject_pos":-1,"motif":"","motif_pos":-1,"best_pos":3,"similarity":0.5,"stretto":false,"stretto_voices":0,"combination":[]},{"voice":0,"pitch":70,"start":423.6,"duration":0.6,"velocity":127,"measure":177,"beat":3.0,"subject_pos":-1,"motif":"","motif_pos":-1,"best_pos":4,"similarity":0.471,"stretto":false,"stretto_voices":0,"combination":[]},{"voice":1,"pitch":62,"start":423.6,"duration":0.6,"velocity":127,"measure":177,"beat":3.0,"subject_pos":-1,"motif":"","motif_pos":-1,"best_pos":4,"similarity":0.536,"stretto":false,"stretto_voices":0,"combination":[]},{"voice":2,"pitch":55,"start":423.9,"duration":0.3,"velocity":127,"measure":177,"beat":3.5,"subject_pos":-1,"motif":"","motif_pos":-1,"best_pos":3,"similarity":0.471,"stretto":false,"stretto_voices":0,"combination":[]},{"voice":0,"pitch":70,"start":424.2,"duration":0.75,"velocity":127,"measure":177,"beat":4.0,"subject_pos":-1,"motif":"","motif_pos":-1,"best_pos":5,"similarity":0.514,"stretto":false,"stretto_voices":0,"combination":[]},{"voice":1,"pitch":62,"start":424.2,"duration":1.2,"velocity":127,"measure":177,"beat":4.0,"subject_pos":-1,"motif":"","motif_pos":-1,"best_pos":5,"similarity":0.357,"stretto":false,"stretto_voices":0,"combination":[]},{"voice":2,"pitch":54,"start":424.2,"duration":0.3,"velocity":127,"measure":177,"beat":4.0,"subject_pos":-1,"motif":"","motif_pos":-1,"best_pos":4,"similarity":0.479,"stretto":false,"stretto_voices":0,"combination":[]},{"voice":2,"pitch":57,"start":424.5,"duration":0.3,"velocity":127,"measure":177,"beat":4.5,"subject_pos":-1,"motif":"","motif_pos":-1,"best_pos":1,"similarity":0.407,"stretto":false,"stretto_voices":0,"combination":[]},{"voice":2,"pitch":55,"start":424.8,"duration":0.6,"velocity":127,"measure":178,"beat":1.0,"subject_pos":-1,"motif":"","motif_pos":-1,"best_pos":2,"similarity":0.457,"stretto":false,"stretto_voices":0,"combination":[]},{"voice":0,"pitch":72,"start":424.95,"duration":0.15,"velocity":127,"measure":178,"beat":1.25,"subject_pos":-1,"motif":"","motif_pos":-1,"best_pos":6,"similarity":0.421,"stretto":false,"stretto_voices":0,"combination":[]},{"voice":0,"pitch":70,"start":425.1,"duration":0.15,"velocity":127,"measure":178,"beat":1.5,"subject_pos":-1,"motif":"","motif_pos":-1,"best_pos":3,"similarity":0.493,"stretto":false,"stretto_voices":0,"combination":[]},{"voice":0,"pitch":69,"start":425.25,"duration":0.15,"velocity":127,"measure":178,"beat":1.75,"subject_pos":-1,"motif":"","motif_pos":-1,"best_pos":4,"similarity":0.5,"stretto":false,"stretto_voices":0,"combination":[]},{"voice":0,"pitch":67,"start":425.4,"duration":0.15,"velocity":127,"measure":178,"beat":2.0,"subject_pos":-1,"motif":"","motif_pos":-1,"best_pos":4,"similarity":0.5,"stretto":false,"stretto_voices":0,"combination":[]},{"voice":1,"pitch":58,"start":425.4,"duration":0.3,"velocity":127,"measure":178,"beat":2.0,"subject_pos":-1,"motif":"","motif_pos":-1,"best_pos":2,"similarity":0.393,"stretto":false,"stretto_voices":0,"combination":[]},{"voice":2,"pitch":55,"start":425.4,"duration":0.3,"velocity":127,"measure":178,"beat":2.0,"subject_pos":-1,"motif":"","motif_pos":-1,"best_pos":3,"similarity":0.404,"stretto":false,"stretto_voices":0,"combination":[]},{"voice":0,"pitch":70,"start":425.55,"duration":0.15,"velocity":127,"measure":178,"beat":2.25,"subject_pos":-1,"motif":"","motif_pos":-1,"best_pos":5,"similarity":0.518,"stretto":false,"stretto_voices":0,"combination":[]},{"voice":0,"pitch":72,"start":425.7,"duration":0.15,"velocity":127,"measure":178,"beat":2.5,"subject_pos":-1,"motif":"","motif_pos":-1,"best_pos":5,"similarity":0.621,"stretto":false,"stretto_voices":0,"combination":[]},{"voice":1,"pitch":58,"start":425.7,"duration":0.3,"velocity":127,"measure":178,"beat":2.5,"subject_pos":-1,"motif":"","motif_pos":-1,"best_pos":4,"similarity":0.411,"stretto":false,"stretto_voices":0,"combination":[]},{"voice":2,"pitch":55,"start":425.7,"duration":0.3,"velocity":127,"measure":178,"beat":2.5,"subject_pos":-1,"motif":"","motif_pos":-1,"best_pos":4,"similarity":0.407,"stretto":false,"stretto_voices":0,"combination":[]},{"voice":0,"pitch":74,"start":425.85,"duration":0.15,"velocity":127,"measure":178,"beat":2.75,"subject_pos":-1,"motif":"","motif_pos":-1,"best_pos":6,"similarity":0.65,"stretto":false,"stretto_voices":0,"combination":[]},{"voice":0,"pitch":75,"start":426.0,"duration":0.15,"velocity":127,"measure":178,"beat":3.0,"subject_pos":-1,"motif":"","motif_pos":-1,"best_pos":5,"similarity":0.6,"stretto":false,"stretto_voices":0,"combination":[]},{"voice":1,"pitch":58,"start":426.0,"duration":0.6,"velocity":127,"measure":178,"beat":3.0,"subject_pos":-1,"motif":"","motif_pos":-1,"best_pos":2,"similarity":0.464,"stretto":false,"stretto_voices":0,"combination":[]},{"voice":2,"pitch":55,"start":426.0,"duration":0.6,"velocity":127,"measure":178,"beat":3.0,"subject_pos":-1,"motif":"","motif_pos":-1,"best_pos":2,"similarity":0.464,"stretto":false,"stretto_voices":0,"combination":[]},{"voice":0,"pitch":77,"start":426.15,"duration":0.15,"velocity":127,"measure":178,"beat":3.25,"subject_pos":-1,"motif":"","motif_pos":-1,"best_pos":6,"similarity":0.464,"stretto":false,"stretto_voices":0,"combination":[]},{"voice":0,"pitch":75,"start":426.3,"duration":0.15,"velocity":127,"measure":178,"beat":3.5,"subject_pos":-1,"motif":"","motif_pos":-1,"best_pos":2,"similarity":0.586,"stretto":false,"stretto_voices":0,"combination":[]},{"voice":0,"pitch":74,"start":426.45,"duration":0.15,"velocity":127,"measure":178,"beat":3.75,"subject_pos":-1,"motif":"tail","motif_pos":3,"best_pos":3,"similarity":1.0,"stretto":false,"stretto_voices":0,"combination":[]},{"voice":0,"pitch":73,"start":426.6,"duration":0.15,"velocity":127,"measure":178,"beat":4.0,"subject_pos":-1,"motif":"tail","motif_pos":4,"best_pos":4,"similarity":1.0,"stretto":false,"stretto_voices":0,"combination":[]},{"voice":1,"pitch":55,"start":426.6,"duration":0.3,"velocity":127,"measure":178,"beat":4.0,"subject_pos":-1,"motif":"","motif_pos":-1,"best_pos":3,"similarity":0.571,"stretto":false,"stretto_voices":0,"combination":[]},{"voice":2,"pitch":52,"start":426.6,"duration":0.3,"velocity":127,"measure":178,"beat":4.0,"subject_pos":-1,"motif":"","motif_pos":-1,"best_pos":3,"similarity":0.536,"stretto":false,"stretto_voices":0,"combination":[]},{"voice":0,"pitch":74,"start":426.75,"duration":0.15,"velocity":127,"measure":178,"beat":4.25,"subject_pos":-1,"motif":"tail","motif_pos":5,"best_pos":5,"similarity":1.0,"stretto":false,"stretto_voices":0,"combination":[]},{"voice":0,"pitch":76,"start":426.9,"duration":0.15,"velocity":127,"measure":178,"beat":4.5,"subject_pos":-1,"motif":"tail","motif_pos":6,"best_pos":6,"similarity":1.0,"stretto":false,"stretto_voices":0,"combination":[]},{"voice":1,"pitch":55,"start":426.9,"duration":0.3,"velocity":127,"measure":178,"beat":4.5,"subject_pos":-1,"motif":"","motif_pos":-1,"best_pos":4,"similarity":0.554,"stretto":false,"stretto_voices":0,"combination":[]},{"voice":2,"pitch":52,"start":426.9,"duration":0.3,"velocity":127,"measure":178,"beat":4.5,"subject_pos":-1,"motif":"","motif_pos":-1,"best_pos":4,"similarity":0.482,"stretto":false,"stretto_voices":0,"combination":[]},{"voice":0,"pitch":77,"start":427.05,"duration":0.15,"velocity":127,"measure":178,"beat":4.75,"subject_pos":-1,"motif":"tail","motif_pos":7,"best_pos":7,"similarity":1.0,"stretto":false,"stretto_voices":0,"combination":[]},{"voice":0,"pitch":79,"start":427.2,"duration":0.15,"velocity":127,"measure":179,"beat":1.0,"subject_pos":-1,"motif":"","motif_pos":-1,"best_pos":6,"similarity":0.579,"stretto":false,"stretto_voices":0,"combination":[]},{"voice":1,"pitch":55,"start":427.2,"duration":0.6,"velocity":127,"measure":179,"beat":1.0,"subject_pos":-1,"motif":"","motif_pos":-1,"best_pos":5,"similarity":0.5,"stretto":false,"stretto_voices":0,"combination":[]},{"voice":2,"pitch":52,"start":427.2,"duration":0.6,"velocity":127,"measure":179,"beat":1.0,"subject_pos":-1,"motif":"","motif_pos":-1,"best_pos":2,"similarity":0.464,"stretto":false,"stretto_voices":0,"combination":[]},{"voice":0,"pitch":81,"start":427.35,"duration":0.15,"velocity":127,"measure":179,"beat":1.25,"subject_pos":-1,"motif":"","motif_pos":-1,"best_pos":1,"similarity":0.457,"stretto":false,"stretto_voices":0,"combination":[]},{"voice":0,"pitch":79,"start":427.5,"duration":0.15,"velocity":127,"measure":179,"beat":1.5,"subject_pos":-1,"motif":"","motif_pos":-1,"best_pos":2,"similarity":0.657,"stretto":false,"stretto_voices":0,"combination":[]},{"voice":0,"pitch":77,"start":427.65,"duration":0.15,"velocity":127,"measure":179,"beat":1.75,"subject_pos":-1,"motif":"","motif_pos":-1,"best_pos":3,"similarity":0.793,"stretto":false,"stretto_voices":0,"combination":[]},{"voice":0,"pitch":76,"start":427.8,"duration":0.15,"velocity":127,"measure":179,"beat":2.0,"subject_pos":-1,"motif":"","motif_pos":-1,"best_pos":4,"similarity":0.893,"stretto":false,"stretto_voices":0,"combination":[]},{"voice":1,"pitch":58,"start":427.8,"duration":0.3,"velocity":127,"measure":179,"beat":2.0,"subject_pos":-1,"motif":"","motif_pos":-1,"best_pos":6,"similarity":0.393,"stretto":false,"stretto_voices":0,"combination":[]},{"voice":2,"pitch":49,"start":427.8,"duration":0.3,"velocity":127,"measure":179,"beat":2.0,"subject_pos":-1,"motif":"","motif_pos":-1,"best_pos":3,"similarity":0.536,"stretto":false,"stretto_voices":0,"combination":[]},{"voice":0,"pitch":77,"start":427.95,"duration":0.15,"velocity":127,"measure":179,"beat":2.25,"subject_pos":-1,"motif":"","motif_pos":-1,"best_pos":5,"similarity":0.821,"stretto":false,"stretto_voices":0,"combination":[]},{"voice":0,"pitch":79,"start":428.1,"duration":0.15,"velocity":127,"measure":179,"beat":2.5,"subject_pos":-1,"motif":"","motif_pos":-1,"best_pos":6,"similarity":0.643,"stretto":false,"stretto_voices":0,"combination":[]},{"voice":1,"pitch":58,"start":428.1,"duration":0.3,"velocity":127,"measure":179,"beat":2.5,"subject_pos":-1,"motif":"","motif_pos":-1,"best_pos":7,"similarity":0.25,"stretto":false,"stretto_voices":0,"combination":[]},{"voice":2,"pitch":49,"start":428.1,"duration":0.3,"velocity":127,"measure":179,"beat":2.5,"subject_pos":-1,"motif":"","motif_pos":-1,"best_pos":4,"similarity":0.518,"stretto":false,"stretto_voices":0,"combination":[]},{"voice":0,"pitch":81,"start":428.25,"duration":0.15,"velocity":127,"measure":179,"beat":2.75,"subject_pos":-1,"motif":"","motif_pos":-1,"best_pos":6,"similarity":0.661,"stretto":false,"stretto_voices":0,"combination":[]},{"voice":0,"pitch":82,"start":428.4,"duration":0.3,"velocity":127,"measure":179,"beat":3.0,"subject_pos":-1,"motif":"","motif_pos":-1,"best_pos":7,"similarity":0.464,"stretto":false,"stretto_voices":0,"combination":[]},{"voice":1,"pitch":52,"start":428.4,"duration":0.6,"velocity":127,"measure":179,"beat":3.0,"subject_pos":-1,"motif":"","motif_pos":-1,"best_pos":2,"similarity":0.161,"stretto":false,"stretto_voices":0,"combination":[]},{"voice":2,"pitch":49,"start":428.4,"duration":0.6,"velocity":127,"measure":179,"beat":3.0,"subject_pos":-1,"motif":"","motif_pos":-1,"best_pos":5,"similarity":0.429,"stretto":false,"stretto_voices":0,"combination":[]},{"voice":0,"pitch":81,"start":428.7,"duration":0.15,"velocity":127,"measure":179,"beat":3.5,"subject_pos":-1,"motif":"","motif_pos":-1,"best_pos":1,"similarity":0.429,"stretto":false,"stretto_voices":0,"combination":[]},{"voice":0,"pitch":79,"start":428.85,"duration":0.15,"velocity":127,"measure":179,"beat":3.75,"subject_pos":-1,"motif":"","motif_pos":-1,"best_pos":2,"similarity":0.579,"stretto":false,"stretto_voices":0,"combination":[]},{"voice":0,"pitch":77,"start":429.0,"duration":0.15,"velocity":127,"measure":179,"beat":4.0,"subject_pos":-1,"motif":"","motif_pos":-1,"best_pos":3,"similarity":0.593,"stretto":false,"stretto_voices":0,"combination":[]},{"voice":0,"pitch":76,"start":429.15,"duration":0.15,"velocity":127,"measure":179,"beat":4.25,"subject_pos":-1,"motif":"","motif_pos":-1,"best_pos":4,"similarity":0.543,"stretto":false,"stretto_voices":0,"combination":[]},{"voice":0,"pitch":74,"start":429.3,"duration":0.15,"velocity":127,"measure":179,"beat":4.5,"subject_pos":-1,"motif":"","motif_pos":-1,"best_pos":3,"similarity":0.65,"stretto":false,"stretto_voices":0,"combination":[]},{"voice":0,"pitch":73,"start":429.45,"duration":0.15,"velocity":127,"measure":179,"beat":4.75,"subject_pos":-1,"motif":"","motif_pos":-1,"best_pos":4,"similarity":0.764,"stretto":false,"stretto_voices":0,"combination":[]},{"voice":0,"pitch":74,"start":429.6,"duration":1.8,"velocity":127,"measure":180,"beat":1.0,"subject_pos":-1,"motif":"","motif_pos":-1,"best_pos":5,"similarity":0.636,"stretto":false,"stretto_voices":0,"combination":[]},{"voice":1,"pitch":65,"start":429.9,"duration":0.3,"velocity":127,"measure":180,"beat":1.5,"subject_pos":-1,"motif":"","motif_pos":-1,"best_pos":3,"similarity":0.232,"stretto":false,"stretto_voices":0,"combination":[]},{"voice":1,"pitch":65,"start":430.2,"duration":0.3,"velocity":127,"measure":180,"beat":2.0,"subject_pos":-1,"motif":"","motif_pos":-1,"best_pos":3,"similarity":0.421,"stretto":false,"stretto_voices":0,"combination":[]},{"voice":2,"pitch":56,"start":430.2,"duration":0.6,"velocity":127,"measure":180,"beat":2.0,"subject_pos":-1,"motif":"","motif_pos":-1,"best_pos":6,"similarity":0.393,"stretto":false,"stretto_voices":0,"combination":[]},{"voice":1,"pitch":64,"start":430.5,"duration":0.3,"velocity":127,"measure":180,"beat":2.5,"subject_pos":-1,"motif":"","motif_pos":-1,"best_pos":4,"similarity":0.55,"stretto":false,"stretto_voices":0,"combination":[]},{"voice":1,"pitch":64,"start":430.8,"duration":0.3,"velocity":127,"measure":180,"beat":3.0,"subject_pos":-1,"motif":"","motif_pos":-1,"best_pos":5,"similarity":0.507,"stretto":false,"stretto_voices":0,"combination":[]},{"voice":2,"pitch":57,"start":430.8,"duration":0.6,"velocity":127,"measure":180,"beat":3.0,"subject_pos":-1,"motif":"","motif_pos":-1,"best_pos":7,"similarity":0.321,"stretto":false,"stretto_voices":0,"combination":[]},{"voice":1,"pitch":67,"start":431.1,"duration":0.3,"velocity":127,"measure":180,"beat":3.5,"subject_pos":-1,"motif":"","motif_pos":-1,"best_pos":6,"similarity":0.429,"stretto":false,"stretto_voices":0,"combination":[]},{"voice":0,"pitch":73,"start":431.4,"duration":0.6,"velocity":127,"measure":180,"beat":4.0,"subject_pos":-1,"motif":"","motif_pos":-1,"best_pos":4,"similarity":0.654,"stretto":false,"stretto_voices":0,"combination":[]},{"voice":1,"pitch":67,"start":431.4,"duration":0.3,"velocity":127,"measure":180,"beat":4.0,"subject_pos":-1,"motif":"","motif_pos":-1,"best_pos":3,"similarity":0.421,"stretto":false,"stretto_voices":0,"combination":[]},{"voice":2,"pitch":45,"start":431.4,"duration":0.6,"velocity":127,"measure":180,"beat":4.0,"subject_pos":-1,"motif":"","motif_pos":-1,"best_pos":0,"similarity":0.364,"stretto":false,"stretto_voices":0,"combination":[]},{"voice":1,"pitch":66,"start":431.7,"duration":0.3,"velocity":127,"measure":180,"beat":4.5,"subject_pos":-1,"motif":"","motif_pos":-1,"best_pos":4,"similarity":0.55,"stretto":false,"stretto_voices":0,"combination":[]},{"voice":0,"pitch":74,"start":432.0,"duration":0.6,"velocity":127,"measure":181,"beat":1.0,"subject_pos":-1,"motif":"","motif_pos":-1,"best_pos":5,"similarity":0.5,"stretto":false,"stretto_voices":0,"combination":[]},{"voice":1,"pitch":66,"start":432.0,"duration":0.3,"velocity":127,"measure":181,"beat":1.0,"subject_pos":-1,"motif":"","motif_pos":-1,"best_pos":5,"similarity":0.507,"stretto":false,"stretto_voices":0,"combination":[]},{"voice":2,"pitch":50,"start":432.0,"duration":3.6,"velocity":127,"measure":181,"beat":1.0,"subject_pos":-1,"motif":"","motif_pos":-1,"best_pos":1,"similarity":0.45,"stretto":false,"stretto_voices":0,"combination":[]},{"voice":1,"pitch":69,"start":432.3,"duration":0.3,"velocity":127,"measure":181,"beat":1.5,"subject_pos":-1,"motif":"","motif_pos":-1,"best_pos":6,"similarity":0.429,"stretto":false,"stretto_voices":0,"combination":[]},{"voice":0,"pitch":72,"start":432.6,"duration":0.6,"velocity":127,"measure":181,"beat":2.0,"subject_pos":-1,"motif":"","motif_pos":-1,"best_pos":3,"similarity":0.461,"stretto":false,"stretto_voices":0,"combination":[]},{"voice":1,"pitch":69,"start":432.6,"duration":0.3,"velocity":127,"measure":181,"beat":2.0,"subject_pos":-1,"motif":"","motif_pos":-1,"best_pos":2,"similarity":0.339,"stretto":false,"stretto_voices":0,"combination":[]},{"voice":1,"pitch":67,"start":432.9,"duration":0.3,"velocity":127,"measure":181,"beat":2.5,"subject_pos":-1,"motif":"","motif_pos":-1,"best_pos":4,"similarity":0.389,"stretto":false,"stretto_voices":0,"combination":[]},{"voice":0,"pitch":71,"start":433.2,"duration":0.3,"velocity":127,"measure":181,"beat":3.0,"subject_pos":-1,"motif":"","motif_pos":-1,"best_pos":4,"similarity":0.418,"stretto":false,"stretto_voices":0,"combination":[]},{"voice":1,"pitch":67,"start":433.2,"duration":0.6,"velocity":127,"measure":181,"beat":3.0,"subject_pos":-1,"motif":"","motif_pos":-1,"best_pos":5,"similarity":0.4,"stretto":false,"stretto_voices":0,"combination":[]},{"voice":0,"pitch":79,"start":433.5,"duration":0.3,"velocity":127,"measure":181,"beat":3.5,"subject_pos":-1,"motif":"","motif_pos":-1,"best_pos":4,"similarity":0.3,"stretto":false,"stretto_voices":0,"combination":[]},{"voice":0,"pitch":79,"start":433.8,"duration":0.3,"velocity":127,"measure":181,"beat":4.0,"subject_pos":-1,"motif":"","motif_pos":-1,"best_pos":3,"similarity":0.421,"stretto":false,"stretto_voices":0,"combination":[]},{"voice":1,"pitch":70,"start":433.8,"duration":0.6,"velocity":127,"measure":181,"beat":4.0,"subject_pos":-1,"motif":"","motif_pos":-1,"best_pos":3,"similarity":0.364,"stretto":false,"stretto_voices":0,"combination":[]},{"voice":0,"pitch":78,"start":434.1,"duration":0.3,"velocity":127,"measure":181,"beat":4.5,"subject_pos":-1,"motif":"","motif_pos":-1,"best_pos":4,"similarity":0.55,"stretto":false,"stretto_voices":0,"combination":[]},{"voice":0,"pitch":78,"start":434.4,"duration":0.3,"velocity":127,"measure":182,"beat":1.0,"subject_pos":-1,"motif":"","motif_pos":-1,"best_pos":5,"similarity":0.507,"stretto":false,"stretto_voices":0,"combination":[]},{"voice":1,"pitch":69,"start":434.4,"duration":0.6,"velocity":127,"measure":182,"beat":1.0,"subject_pos":-1,"motif":"","motif_pos":-1,"best_pos":4,"similarity":0.407,"stretto":false,"stretto_voices":0,"combination":[]},{"voice":0,"pitch":81,"start":434.7,"duration":0.3,"velocity":127,"measure":182,"beat":1.5,"subject_pos":-1,"motif":"","motif_pos":-1,"best_pos":6,"similarity":0.429,"stretto":false,"stretto_voices":0,"combination":[]},{"voice":0,"pitch":81,"start":435.0,"duration":0.3,"velocity":127,"measure":182,"beat":2.0,"subject_pos":-1,"motif":"","motif_pos":-1,"best_pos":1,"similarity":0.336,"stretto":false,"stretto_voices":0,"combination":[]},{"voice":1,"pitch":72,"start":435.0,"duration":0.6,"velocity":127,"measure":182,"beat":2.0,"subject_pos":-1,"motif":"","motif_pos":-1,"best_pos":1,"similarity":0.411,"stretto":false,"stretto_voices":0,"combination":[]},{"voice":0,"pitch":79,"start":435.3,"duration":0.3,"velocity":127,"measure":182,"beat":2.5,"subject_pos":-1,"motif":"","motif_pos":-1,"best_pos":2,"similarity":0.393,"stretto":false,"stretto_voices":0,"combination":[]},{"voice":0,"pitch":79,"start":435.6,"duration":0.3,"velocity":127,"measure":182,"beat":3.0,"subject_pos":-1,"motif":"","motif_pos":-1,"best_pos":1,"similarity":0.429,"stretto":false,"stretto_voices":0,"combination":[]},{"voice":1,"pitch":70,"start":435.6,"duration":0.3,"velocity":127,"measure":182,"beat":3.0,"subject_pos":-1,"motif":"","motif_pos":-1,"best_pos":3,"similarity":0.579,"stretto":false,"stretto_voices":0,"combination":[]},{"voice":0,"pitch":77,"start":435.9,"duration":0.3,"velocity":127,"measure":182,"beat":3.5,"subject_pos":-1,"motif":"","motif_pos":-1,"best_pos":2,"similarity":0.589,"stretto":false,"stretto_voices":0,"combination":[]},{"voice":1,"pitch":69,"start":435.9,"duration":0.3,"velocity":127,"measure":182,"beat":3.5,"subject_pos":-1,"motif":"","motif_pos":-1,"best_pos":4,"similarity":0.729,"stretto":false,"stretto_voices":0,"combination":[]},{"voice":0,"pitch":75,"start":436.2,"duration":0.3,"velocity":127,"measure":182,"beat":4.0,"subject_pos":-1,"motif":"","motif_pos":-1,"best_pos":3,"similarity":0.625,"stretto":false,"stretto_voices":0,"combination":[]},{"voice":1,"pitch":70,"start":436.2,"duration":0.9,"velocity":127,"measure":182,"beat":4.0,"subject_pos":-1,"motif":"","motif_pos":-1,"best_pos":5,"similarity":0.636,"stretto":false,"stretto_voices":0,"combination":[]},{"voice":0,"pitch":74,"start":436.5,"duration":0.3,"velocity":127,"measure":182,"beat":4.5,"subject_pos":-1,"motif":"","motif_pos":-1,"best_pos":4,"similarity":0.536,"stretto":false,"stretto_voices":0,"combination":[]},{"voice":0,"pitch":73,"start":436.8,"duration":0.6,"velocity":127,"measure":183,"beat":1.0,"subject_pos":-1,"motif":"","motif_pos":-1,"best_pos":4,"similarity":0.439,"stretto":false,"stretto_voices":0,"combination":[]},{"voice":1,"pitch":68,"start":437.1,"duration":0.3,"velocity":127,"measure":183,"beat":1.5,"subject_pos":-1,"motif":"","motif_pos":-1,"best_pos":4,"similarity":0.55,"stretto":false,"stretto_voices":0,"combination":[]},{"voice":0,"pitch":77,"start":437.4,"duration":0.6,"velocity":127,"measure":183,"beat":2.0,"subject_pos":-1,"motif":"","motif_pos":-1,"best_pos":1,"similarity":0.321,"stretto":false,"stretto_voices":0,"combination":[]},{"voice":1,"pitch":69,"start":437.4,"duration":0.3,"velocity":127,"measure":183,"beat":2.0,"subject_pos":-1,"motif":"","motif_pos":-1,"best_pos":5,"similarity":0.507,"stretto":false,"stretto_voices":0,"combination":[]},{"voice":2,"pitch":45,"start":437.4,"duration":0.6,"velocity":127,"measure":183,"beat":2.0,"subject_pos":0,"motif":"subject_inv","motif_pos":0,"best_pos":0,"similarity":1.0,"stretto":false,"stretto_voices":0,"combination":[]},{"voice":1,"pitch":69,"start":437.7,"duration":0.3,"velocity":127,"measure":183,"beat":2.5,"subject_pos":-1,"motif":"","motif_pos":-1,"best_pos":4,"similarity":0.443,"stretto":false,"stretto_voices":0,"combination":[]},{"voice":0,"pitch":71,"start":438.0,"duration":0.6,"velocity":127,"measure":183,"beat":3.0,"subject_pos":-1,"motif":"","motif_pos":-1,"best_pos":2,"similarity":0.364,"stretto":false,"stretto_voices":0,"combination":[]},{"voice":1,"pitch":69,"start":438.0,"duration":0.3,"velocity":127,"measure":183,"beat":3.0,"subject_pos":-1,"motif":"","motif_pos":-1,"best_pos":2,"similarity":0.429,"stretto":false,"stretto_voices":0,"combination":[]},{"voice":2,"pitch":38,"start":438.0,"duration":0.6,"velocity":127,"measure":183,"beat":3.0,"subject_pos":1,"motif":"subject_inv","motif_pos":1,"best_pos":1,"similarity":1.0,"stretto":false,"stretto_voices":0,"combination":[]},{"voice":1,"pitch":66,"start":438.3,"duration":0.3,"velocity":127,"measure":183,"beat":3.5,"subject_pos":-1,"motif":"","motif_pos":-1,"best_pos":3,"similarity":0.482,"stretto":false,"stretto_voices":0,"combination":[]},{"voice":0,"pitch":70,"start":438.6,"duration":0.6,"velocity":127,"measure":183,"beat":4.0,"subject_pos":-1,"motif":"enigmatic_cell","motif_pos":0,"best_pos":0,"similarity":1.0,"stretto":false,"stretto_voices":0,"combination":[]},{"voice":1,"pitch":67,"start":438.6,"duration":0.3,"velocity":127,"measure":183,"beat":4.0,"subject_pos":-1,"motif":"","motif_pos":-1,"best_pos":5,"similarity":0.471,"stretto":false,"stretto_voices":0,"combination":[]},{"voice":2,"pitch":40,"start":438.6,"duration":0.6,"velocity":127,"measure":183,"beat":4.0,"subject_pos":2,"motif":"subject_inv","motif_pos":2,"best_pos":2,"similarity":1.0,"stretto":false,"stretto_voices":0,"combination":[]},{"voice":1,"pitch":67,"start":438.9,"duration":0.3,"velocity":127,"measure":183,"beat":4.5,"subject_pos":-1,"motif":"","motif_pos":-1,"best_pos":4,"similarity":0.407,"stretto":false,"stretto_voices":0,"combination":[]},{"voice":0,"pitch":69,"start":439.2,"duration":0.6,"velocity":127,"measure":184,"beat":1.0,"subject_pos":-1,"motif":"enigmatic_cell","motif_pos":1,"best_pos":1,"similarity":1.0,"stretto":false,"stretto_voices":0,"combination":[]},{"voice":1,"pitch":67,"start":439.2,"duration":0.3,"velocity":127,"measure":184,"beat":1.0,"subject_pos":-1,"motif":"","motif_pos":-1,"best_pos":2,"similarity":0.429,"stretto":false,"stretto_voices":0,"combination":[]},{"voice":1,"pitch":64,"start":439.5,"duration":0.3,"velocity":127,"measure":184,"beat":1.5,"subject_pos":-1,"motif":"","motif_pos":-1,"best_pos":3,"similarity":0.482,"stretto":false,"stretto_voices":0,"combination":[]},{"voice":0,"pitch":74,"start":439.8,"duration":0.6,"velocity":127,"measure":184,"beat":2.0,"subject_pos":-1,"motif":"enigmatic_cell","motif_pos":2,"best_pos":2,"similarity":1.0,"stretto":false,"stretto_voices":0,"combination":[]},{"voice":1,"pitch":65,"start":439.8,"duration":0.3,"velocity":127,"measure":184,"beat":2.0,"subject_pos":-1,"motif":"","motif_pos":-1,"best_pos":5,"similarity":0.471,"stretto":false,"stretto_voices":0,"combination":[]},{"voice":2,"pitch":41,"start":439.8,"duration":0.6,"velocity":127,"measure":184,"beat":2.0,"subject_pos":3,"motif":"subject_inv","motif_pos":3,"best_pos":3,"similarity":1.0,"stretto":false,"stretto_voices":0,"combination":[]},{"voice":1,"pitch":65,"start":440.1,"duration":0.3,"velocity":127,"measure":184,"beat":2.5,"subject_pos":-1,"motif":"","motif_pos":-1,"best_pos":6,"similarity":0.375,"stretto":false,"stretto_voices":0,"combination":[]},{"voice":0,"pitch":67,"start":440.4,"duration":1.2,"velocity":127,"measure":184,"beat":3.0,"subject_pos":-1,"motif":"","motif_pos":-1,"best_pos":2,"similarity":0.364,"stretto":false,"stretto_voices":0,"combination":[]},{"voice":1,"pitch":65,"start":440.4,"duration":0.3,"velocity":127,"measure":184,"beat":3.0,"subject_pos":-1,"motif":"","motif_pos":-1,"best_pos":1,"similarity":0.393,"stretto":false,"stretto_voices":0,"combination":[]},{"voice":2,"pitch":43,"start":440.4,"duration":0.6,"velocity":127,"measure":184,"beat":3.0,"subject_pos":4,"motif":"subject_inv","motif_pos":4,"best_pos":4,"similarity":1.0,"stretto":false,"stretto_voices":0,"combination":[]},{"voice":1,"pitch":63,"start":440.7,"duration":0.3,"velocity":127,"measure":184,"beat":3.5,"subject_pos":-1,"motif":"","motif_pos":-1,"best_pos":2,"similarity":0.571,"stretto":false,"stretto_voices":0,"combination":[]},{"voice":1,"pitch":62,"start":441.0,"duration":0.3,"velocity":127,"measure":184,"beat":4.0,"subject_pos":-1,"motif":"","motif_pos":-1,"best_pos":3,"similarity":0.679,"stretto":false,"stretto_voices":0,"combination":[]},{"voice":2,"pitch":45,"start":441.0,"duration":0.6,"velocity":127,"measure":184,"beat":4.0,"subject_pos":5,"motif":"subject_inv","motif_pos":5,"best_pos":5,"similarity":1.0,"stretto":false,"stretto_voices":0,"combination":[]},{"voice":1,"pitch":61,"start":441.3,"duration":0.3,"velocity":127,"measure":184,"beat":4.5,"subject_pos":-1,"motif":"","motif_pos":-1,"best_pos":4,"similarity":0.768,"stretto":false,"stretto_voices":0,"combination":[]},{"voice":0,"pitch":65,"start":441.6,"duration":0.6,"velocity":127,"measure":185,"beat":1.0,"subject_pos":-1,"motif":"","motif_pos":-1,"best_pos":4,"similarity":0.45,"stretto":false,"stretto_voices":0,"combination":[]},{"voice":1,"pitch":62,"start":441.6,"duration":0.3,"velocity":127,"measure":185,"beat":1.0,"subject_pos":-1,"motif":"","motif_pos":-1,"best_pos":5,"similarity":0.625,"stretto":false,"stretto_voices":0,"combination":[]},{"voice":1,"pitch":65,"start":441.9,"duration":0.3,"velocity":127,"measure":185,"beat":1.5,"subject_pos":-1,"motif":"","motif_pos":-1,"best_pos":6,"similarity":0.429,"stretto":false,"stretto_voices":0,"combination":[]},{"voice":0,"pitch":67,"start":442.2,"duration":0.6,"velocity":127,"measure":185,"beat":2.0,"subject_pos":-1,"motif":"","motif_pos":-1,"best_pos":5,"similarity":0.521,"stretto":false,"stretto_voices":0,"combination":[]},{"voice":1,"pitch":64,"start":442.2,"duration":0.3,"velocity":127,"measure":185,"beat":2.0,"subject_pos":-1,"motif":"","motif_pos":-1,"best_pos":2,"similarity":0.536,"stretto":false,"stretto_voices":0,"combination":[]},{"voice":2,"pitch":46,"start":442.2,"duration":0.6,"velocity":127,"measure":185,"beat":2.0,"subject_pos":6,"motif":"subject_inv","motif_pos":6,"best_pos":6,"similarity":1.0,"stretto":false,"stretto_voices":0,"combination":[]},{"voice":1,"pitch":62,"start":442.5,"duration":0.3,"velocity":127,"measure":185,"beat":2.5,"subject_pos":-1,"motif":"","motif_pos":-1,"best_pos":3,"similarity":0.661,"stretto":false,"stretto_voices":0,"combination":[]},{"voice":0,"pitch":69,"start":442.8,"duration":0.3,"velocity":127,"measure":185,"beat":3.0,"subject_pos":-1,"motif":"","motif_pos":-1,"best_pos":6,"similarity":0.421,"stretto":false,"stretto_voices":0,"combination":[]},{"voice":1,"pitch":61,"start":442.8,"duration":0.3,"velocity":127,"measure":185,"beat":3.0,"subject_pos":-1,"motif":"","motif_pos":-1,"best_pos":4,"similarity":0.714,"stretto":false,"stretto_voices":0,"combination":[]},{"voice":2,"pitch":45,"start":442.8,"duration":0.6,"velocity":127,"measure":185,"beat":3.0,"subject_pos":7,"motif":"subject_inv","motif_pos":7,"best_pos":7,"similarity":1.0,"stretto":false,"stretto_voices":0,"combination":[]},{"voice":0,"pitch":67,"start":443.1,"duration":0.3,"velocity":127,"measure":185,"beat":3.5,"subject_pos":-1,"motif":"","motif_pos":-1,"best_pos":5,"similarity":0.329,"stretto":false,"stretto_voices":0,"combination":[]},{"voice":1,"pitch":62,"start":443.1,"duration":0.3,"velocity":127,"measure":185,"beat":3.5,"subject_pos":-1,"motif":"","motif_pos":-1,"best_pos":5,"similarity":0.536,"stretto":false,"stretto_voices":0,"combination":[]},{"voice":0,"pitch":69,"start":443.4,"duration":0.6,"velocity":127,"measure":185,"beat":4.0,"subject_pos":-1,"motif":"","motif_pos":-1,"best_pos":6,"similarity":0.307,"stretto":false,"stretto_voices":0,"combination":[]},{"voice":1,"pitch":59,"start":443.4,"duration":0.3,"velocity":127,"measure":185,"beat":4.0,"subject_pos":-1,"motif":"","motif_pos":-1,"best_pos":5,"similarity":0.511,"stretto":false,"stretto_voices":0,"combination":[]},{"voice":2,"pitch":43,"start":443.4,"duration":0.6,"velocity":127,"measure":185,"beat":4.0,"subject_pos":8,"motif":"subject_inv","motif_pos":8,"best_pos":0,"similarity":1.0,"stretto":false,"stretto_voices":0,"combination":[]},{"voice":1,"pitch":61,"start":443.7,"duration":0.3,"velocity":127,"measure":185,"beat":4.5,"subject_pos":-1,"motif":"","motif_pos":-1,"best_pos":6,"similarity":0.604,"stretto":false,"stretto_voices":0,"combination":[]},{"voice":0,"pitch":62,"start":444.0,"duration":2.55,"velocity":127,"measure":186,"beat":1.0,"subject_pos":-1,"motif":"","motif_pos":-1,"best_pos":2,"similarity":0.414,"stretto":false,"stretto_voices":0,"combination":[]},{"voice":1,"pitch":62,"start":444.0,"duration":0.3,"velocity":127,"measure":186,"beat":1.0,"subject_pos":-1,"motif":"","motif_pos":-1,"best_pos":7,"similarity":0.436,"stretto":false,"stretto_voices":0,"combination":[]},{"voice":1,"pitch":58,"start":444.3,"duration":0.3,"velocity":127,"measure":186,"beat":1.5,"subject_pos":-1,"motif":"","motif_pos":-1,"best_pos":3,"similarity":0.536,"stretto":false,"stretto_voices":0,"combination":[]},{"voice":1,"pitch":57,"start":444.6,"duration":0.3,"velocity":127,"measure":186,"beat":2.0,"subject_pos":-1,"motif":"","motif_pos":-1,"best_pos":4,"similarity":0.543,"stretto":false,"stretto_voices":0,"combination":[]},{"voice":2,"pitch":41,"start":444.6,"duration":0.3,"velocity":127,"measure":186,"beat":2.0,"subject_pos":-1,"motif":"","motif_pos":-1,"best_pos":3,"similarity":0.786,"stretto":false,"stretto_voices":0,"combination":[]},{"voice":1,"pitch":55,"start":444.9,"duration":0.3,"velocity":127,"measure":186,"beat":2.5,"subject_pos":-1,"motif":"","motif_pos":-1,"best_pos":5,"similarity":0.507,"stretto":false,"stretto_voices":0,"combination":[]},{"voice":2,"pitch":40,"start":444.9,"duration":0.3,"velocity":127,"measure":186,"beat":2.5,"subject_pos":-1,"motif":"","motif_pos":-1,"best_pos":4,"similarity":0.893,"stretto":false,"stretto_voices":0,"combination":[]},{"voice":1,"pitch":57,"start":445.2,"duration":0.3,"velocity":127,"measure":186,"beat":3.0,"subject_pos":-1,"motif":"","motif_pos":-1,"best_pos":0,"similarity":0.464,"stretto":false,"stretto_voices":0,"combination":[]},{"voice":2,"pitch":41,"start":445.2,"duration":0.6,"velocity":127,"measure":186,"beat":3.0,"subject_pos":-1,"motif":"","motif_pos":-1,"best_pos":5,"similarity":0.821,"stretto":false,"stretto_voices":0,"combination":[]},{"voice":1,"pitch":62,"start":445.5,"duration":0.15,"velocity":127,"measure":186,"beat":3.5,"subject_pos":-1,"motif":"","motif_pos":-1,"best_pos":1,"similarity":0.714,"stretto":false,"stretto_voices":0,"combination":[]},{"voice":1,"pitch":60,"start":445.65,"duration":0.15,"velocity":127,"measure":186,"beat":3.75,"subject_pos":-1,"motif":"","motif_pos":-1,"best_pos":2,"similarity":0.721,"stretto":false,"stretto_voices":0,"combination":[]},{"voice":1,"pitch":58,"start":445.8,"duration":0.15,"velocity":127,"measure":186,"beat":4.0,"subject_pos":-1,"motif":"","motif_pos":-1,"best_pos":3,"similarity":0.664,"stretto":false,"stretto_voices":0,"combination":[]},{"voice":2,"pitch":43,"start":445.8,"duration":0.6,"velocity":127,"measure":186,"beat":4.0,"subject_pos":-1,"motif":"","motif_pos":-1,"best_pos":6,"similarity":0.643,"stretto":false,"stretto_voices":0,"combination":[]},{"voice":1,"pitch":57,"start":445.95,"duration":0.15,"velocity":127,"measure":186,"beat":4.25,"subject_pos":-1,"motif":"","motif_pos":-1,"best_pos":4,"similarity":0.489,"stretto":false,"stretto_voices":0,"combination":[]},{"voice":1,"pitch":55,"start":446.1,"duration":0.3,"velocity":127,"measure":186,"beat":4.5,"subject_pos":-1,"motif":"","motif_pos":-1,"best_pos":2,"similarity":0.579,"stretto":false,"stretto_voices":0,"combination":[]},{"voice":1,"pitch":53,"start":446.4,"duration":0.6,"velocity":127,"measure":187,"beat":1.0,"subject_pos":-1,"motif":"","motif_pos":-1,"best_pos":3,"similarity":0.657,"stretto":false,"stretto_voices":0,"combination":[]},{"voice":2,"pitch":45,"start":446.4,"duration":2.4,"velocity":127,"measure":187,"beat":1.0,"subject_pos":-1,"motif":"","motif_pos":-1,"best_pos":6,"similarity":0.375,"stretto":false,"stretto_voices":0,"combination":[]},{"voice":0,"pitch":59,"start":446.55,"duration":0.15,"velocity":127,"measure":187,"beat":1.25,"subject_pos":-1,"motif":"","motif_pos":-1,"best_pos":3,"similarity":0.55,"stretto":false,"stretto_voices":0,"combination":[]},{"voice":0,"pitch":61,"start":446.7,"duration":0.15,"velocity":127,"measure":187,"beat":1.5,"subject_pos":-1,"motif":"","motif_pos":-1,"best_pos":4,"similarity":0.679,"stretto":false,"stretto_voices":0,"combination":[]},{"voice":0,"pitch":62,"start":446.85,"duration":0.15,"velocity":127,"measure":187,"beat":1.75,"subject_pos":-1,"motif":"","motif_pos":-1,"best_pos":5,"similarity":0.8,"stretto":false,"stretto_voices":0,"combination":[]},{"voice":0,"pitch":64,"start":447.0,"duration":0.15,"velocity":127,"measure":187,"beat":2.0,"subject_pos":-1,"motif":"","motif_pos":-1,"best_pos":6,"similarity":0.721,"stretto":false,"stretto_voices":0,"combination":[]},{"voice":1,"pitch":52,"start":447.0,"duration":0.3,"velocity":127,"measure":187,"beat":2.0,"subject_pos":-1,"motif":"","motif_pos":-1,"best_pos":4,"similarity":0.671,"stretto":false,"stretto_voices":0,"combination":[]},{"voice":0,"pitch":65,"start":447.15,"duration":0.15,"velocity":127,"measure":187,"beat":2.25,"subject_pos":-1,"motif":"","motif_pos":-1,"best_pos":5,"similarity":0.607,"stretto":false,"stretto_voices":0,"combination":[]},{"voice":0,"pitch":67,"start":447.3,"duration":0.15,"velocity":127,"measure":187,"beat":2.5,"subject_pos":-1,"motif":"","motif_pos":-1,"best_pos":6,"similarity":0.464,"stretto":false,"stretto_voices":0,"combination":[]},{"voice":1,"pitch":50,"start":447.3,"duration":0.3,"velocity":127,"measure":187,"beat":2.5,"subject_pos":-1,"motif":"","motif_pos":-1,"best_pos":5,"similarity":0.636,"stretto":false,"stretto_voices":0,"combination":[]},{"voice":0,"pitch":64,"start":447.45,"duration":0.15,"velocity":127,"measure":187,"beat":2.75,"subject_pos":-1,"motif":"","motif_pos":-1,"best_pos":3,"similarity":0.539,"stretto":false,"stretto_voices":0,"combination":[]},{"voice":0,"pitch":61,"start":447.6,"duration":0.9,"velocity":127,"measure":187,"beat":3.0,"subject_pos":-1,"motif":"","motif_pos":-1,"best_pos":4,"similarity":0.543,"stretto":false,"stretto_voices":0,"combination":[]},{"voice":1,"pitch":52,"start":447.6,"duration":0.3,"velocity":127,"measure":187,"beat":3.0,"subject_pos":-1,"motif":"","motif_pos":-1,"best_pos":6,"similarity":0.657,"stretto":false,"stretto_voices":0,"combination":[]},{"voice":1,"pitch":53,"start":447.9,"duration":0.3,"velocity":127,"measure":187,"beat":3.5,"subject_pos":-1,"motif":"","motif_pos":-1,"best_pos":5,"similarity":0.657,"stretto":false,"stretto_voices":0,"combination":[]},{"voice":1,"pitch":55,"start":448.2,"duration":1.2,"velocity":127,"measure":187,"beat":4.0,"subject_pos":-1,"motif":"","motif_pos":-1,"best_pos":6,"similarity":0.507,"stretto":false,"stretto_voices":0,"combination":[]},{"voice":0,"pitch":62,"start":448.5,"duration":0.3,"velocity":127,"measure":187,"beat":4.5,"subject_pos":-1,"motif":"","motif_pos":-1,"best_pos":5,"similarity":0.464,"stretto":false,"stretto_voices":0,"combination":[]},{"voice":0,"pitch":62,"start":448.8,"duration":1.2,"velocity":127,"measure":188,"beat":1.0,"subject_pos":-1,"motif":"","motif_pos":-1,"best_pos":5,"similarity":0.25,"stretto":false,"stretto_voices":0,"combination":[]},{"voice":2,"pitch":38,"start":448.8,"duration":1.2,"velocity":127,"measure":188,"beat":1.0,"subject_pos":-1,"motif":"","motif_pos":-1,"best_pos":7,"similarity":0.179,"stretto":false,"stretto_voices":0,"combination":[]},{"voice":1,"pitch":54,"start":449.4,"duration":0.6,"velocity":127,"measure":188,"beat":2.0,"subject_pos":-1,"motif":"","motif_pos":-1,"best_pos":4,"similarity":0.293,"stretto":false,"stretto_voices":0,"combination":[]}]}