{"metadata":{"title":"The Art of the Fugue, Contrapunctus I","number":"I","composer":"J.S. Bach","source_midi":"kunst_der_fuge_01_(c)simonetto.mid","tempo_bpm":120.0,"tempo_us_per_beat":500000,"ticks_per_beat":384,"time_signature":"4/4","key_signature":"D minor","total_duration_seconds":158.0,"total_measures":79,"beats_per_measure":4},"voices":[{"id":0,"name":"Soprano","midi_channel":0,"midi_track":1,"color":"#E85D4A","pitch_min":60,"pitch_max":82,"note_count":242},{"id":1,"name":"Alto","midi_channel":1,"midi_track":2,"color":"#4A90D9","pitch_min":53,"pitch_max":77,"note_count":253},{"id":2,"name":"Tenor","midi_channel":2,"midi_track":3,"color":"#27AE60","pitch_min":49,"pitch_max":69,"note_count":214},{"id":3,"name":"Bass","midi_channel":3,"midi_track":4,"color":"#8E44AD","pitch_min":38,"pitch_max":62,"note_count":188}],"notes":[{"voice":1,"pitch":62,"start":0.0,"duration":1.0,"velocity":68,"measure":1,"beat":1.0,"subject_pos":0,"motif":"subject","motif_pos":0,"best_pos":0,"similarity":1.0,"stretto":false,"stretto_voices":0,"combination":[],"aug_dim":"","rhythm_ratio":1.11,"mirror":false,"chromatic_density":0.0,"complexity":0.371,"dissonance":0},{"voice":1,"pitch":69,"start":1.0,"duration":1.0,"velocity":68,"measure":1,"beat":3.0,"subject_pos":1,"motif":"subject","motif_pos":1,"best_pos":1,"similarity":1.0,"stretto":false,"stretto_voices":0,"combination":[],"aug_dim":"","rhythm_ratio":1.11,"mirror":false,"chromatic_density":0.0,"complexity":0.371,"dissonance":0},{"voice":1,"pitch":65,"start":2.0,"duration":1.0,"velocity":68,"measure":2,"beat":1.0,"subject_pos":2,"motif":"subject","motif_pos":2,"best_pos":2,"similarity":1.0,"stretto":false,"stretto_voices":0,"combination":[],"aug_dim":"","rhythm_ratio":1.11,"mirror":false,"chromatic_density":0.0,"complexity":0.371,"dissonance":0},{"voice":1,"pitch":62,"start":3.0,"duration":1.0,"velocity":68,"measure":2,"beat":3.0,"subject_pos":3,"motif":"subject","motif_pos":3,"best_pos":3,"similarity":1.0,"stretto":false,"stretto_voices":0,"combination":[],"aug_dim":"","rhythm_ratio":1.11,"mirror":false,"chromatic_density":0.0,"complexity":0.371,"dissonance":0},{"voice":1,"pitch":61,"start":4.0,"duration":1.0,"velocity":68,"measure":3,"beat":1.0,"subject_pos":4,"motif":"subject","motif_pos":4,"best_pos":4,"similarity":1.0,"stretto":false,"stretto_voices":0,"combination":[],"aug_dim":"","rhythm_ratio":1.11,"mirror":false,"chromatic_density":0.5,"complexity":0.424,"dissonance":0},{"voice":1,"pitch":62,"start":5.0,"duration":0.5,"velocity":68,"measure":3,"beat":3.0,"subject_pos":5,"motif":"subject","motif_pos":5,"best_pos":5,"similarity":1.0,"stretto":false,"stretto_voices":0,"combination":[],"aug_dim":"","rhythm_ratio":1.11,"mirror":false,"chromatic_density":0.5,"complexity":0.424,"dissonance":0},{"voice":1,"pitch":64,"start":5.5,"duration":0.5,"velocity":68,"measure":3,"beat":4.0,"subject_pos":6,"motif":"subject","motif_pos":6,"best_pos":6,"similarity":1.0,"stretto":false,"stretto_voices":0,"combination":[],"aug_dim":"","rhythm_ratio":1.11,"mirror":false,"chromatic_density":0.5,"complexity":0.424,"dissonance":0},{"voice":1,"pitch":65,"start":6.0,"duration":2.1927,"velocity":68,"measure":4,"beat":1.0,"subject_pos":7,"motif":"subject","motif_pos":7,"best_pos":7,"similarity":1.0,"stretto":false,"stretto_voices":0,"combination":[],"aug_dim":"","rhythm_ratio":1.11,"mirror":false,"chromatic_density":0.0,"complexity":0.344,"dissonance":0},{"voice":1,"pitch":67,"start":8.25,"duration":0.25,"velocity":68,"measure":5,"beat":1.5,"subject_pos":-1,"motif":"","motif_pos":-1,"best_pos":6,"similarity":0.464,"stretto":false,"stretto_voices":0,"combination":[],"aug_dim":"","rhythm_ratio":1.0,"mirror":false,"chromatic_density":0.25,"complexity":0.322,"dissonance":0.0},{"voice":1,"pitch":65,"start":8.5,"duration":0.25,"velocity":68,"measure":5,"beat":2.0,"subject_pos":-1,"motif":"","motif_pos":-1,"best_pos":3,"similarity":0.536,"stretto":false,"stretto_voices":0,"combination":[],"aug_dim":"","rhythm_ratio":1.0,"mirror":false,"chromatic_density":0.25,"complexity":0.322,"dissonance":0.0},{"voice":1,"pitch":64,"start":8.75,"duration":0.25,"velocity":68,"measure":5,"beat":2.5,"subject_pos":-1,"motif":"","motif_pos":-1,"best_pos":4,"similarity":0.607,"stretto":false,"stretto_voices":0,"combination":[],"aug_dim":"","rhythm_ratio":1.0,"mirror":false,"chromatic_density":0.25,"complexity":0.322,"dissonance":0.0},{"voice":0,"pitch":69,"start":9.0,"duration":1.0,"velocity":76,"measure":5,"beat":3.0,"subject_pos":0,"motif":"subject","motif_pos":0,"best_pos":0,"similarity":1.0,"stretto":false,"stretto_voices":0,"combination":[],"aug_dim":"","rhythm_ratio":1.0,"mirror":false,"chromatic_density":0.25,"complexity":0.322,"dissonance":0.0},{"voice":1,"pitch":62,"start":9.0,"duration":0.5,"velocity":68,"measure":5,"beat":3.0,"subject_pos":-1,"motif":"","motif_pos":-1,"best_pos":5,"similarity":0.636,"stretto":false,"stretto_voices":0,"combination":[],"aug_dim":"","rhythm_ratio":1.0,"mirror":false,"chromatic_density":0.25,"complexity":0.322,"dissonance":0.0},{"voice":1,"pitch":64,"start":9.5,"duration":0.5,"velocity":68,"measure":5,"beat":4.0,"subject_pos":-1,"motif":"","motif_pos":-1,"best_pos":6,"similarity":0.657,"stretto":false,"stretto_voices":0,"combination":[],"aug_dim":"","rhythm_ratio":1.0,"mirror":false,"chromatic_density":0.25,"complexity":0.322,"dissonance":0.0},{"voice":0,"pitch":74,"start":10.0,"duration":1.0,"velocity":76,"measure":6,"beat":1.0,"subject_pos":1,"motif":"subject","motif_pos":1,"best_pos":1,"similarity":1.0,"stretto":false,"stretto_voices":0,"combination":[],"aug_dim":"","rhythm_ratio":1.0,"mirror":false,"chromatic_density":0.0,"complexity":0.383,"dissonance":0.2},{"voice":1,"pitch":65,"start":10.0,"duration":0.5,"velocity":68,"measure":6,"beat":1.0,"subject_pos":-1,"motif":"","motif_pos":-1,"best_pos":5,"similarity":0.693,"stretto":false,"stretto_voices":0,"combination":[],"aug_dim":"","rhythm_ratio":1.0,"mirror":false,"chromatic_density":0.0,"complexity":0.383,"dissonance":0.2},{"voice":1,"pitch":67,"start":10.5,"duration":0.5,"velocity":68,"measure":6,"beat":2.0,"subject_pos":-1,"motif":"","motif_pos":-1,"best_pos":6,"similarity":0.579,"stretto":false,"stretto_voices":0,"combination":[],"aug_dim":"","rhythm_ratio":1.0,"mirror":false,"chromatic_density":0.0,"complexity":0.383,"dissonance":0.2},{"voice":0,"pitch":72,"start":11.0,"duration":1.0,"velocity":76,"measure":6,"beat":3.0,"subject_pos":2,"motif":"subject","motif_pos":2,"best_pos":2,"similarity":1.0,"stretto":false,"stretto_voices":0,"combination":[],"aug_dim":"","rhythm_ratio":1.0,"mirror":false,"chromatic_density":0.0,"complexity":0.383,"dissonance":0.2},{"voice":1,"pitch":69,"start":11.0,"duration":0.4427,"velocity":68,"measure":6,"beat":3.0,"subject_pos":-1,"motif":"","motif_pos":-1,"best_pos":6,"similarity":0.375,"stretto":false,"stretto_voices":0,"combination":[],"aug_dim":"","rhythm_ratio":1.0,"mirror":false,"chromatic_density":0.0,"complexity":0.383,"dissonance":0.2},{"voice":1,"pitch":57,"start":11.5,"duration":0.25,"velocity":68,"measure":6,"beat":4.0,"subject_pos":-1,"motif":"","motif_pos":-1,"best_pos":5,"similarity":0.443,"stretto":false,"stretto_voices":0,"combination":[],"aug_dim":"","rhythm_ratio":1.0,"mirror":false,"chromatic_density":0.0,"complexity":0.383,"dissonance":0.2},{"voice":1,"pitch":59,"start":11.75,"duration":0.25,"velocity":68,"measure":6,"beat":4.5,"subject_pos":-1,"motif":"","motif_pos":-1,"best_pos":6,"similarity":0.579,"stretto":false,"stretto_voices":0,"combination":[],"aug_dim":"","rhythm_ratio":1.0,"mirror":false,"chromatic_density":0.0,"complexity":0.383,"dissonance":0.2},{"voice":0,"pitch":69,"start":12.0,"duration":1.0,"velocity":76,"measure":7,"beat":1.0,"subject_pos":3,"motif":"subject","motif_pos":3,"best_pos":3,"similarity":1.0,"stretto":false,"stretto_voices":0,"combination":[],"aug_dim":"","rhythm_ratio":1.0,"mirror":false,"chromatic_density":0.2,"complexity":0.447,"dissonance":0.0},{"voice":1,"pitch":60,"start":12.0,"duration":0.25,"velocity":68,"measure":7,"beat":1.0,"subject_pos":-1,"motif":"","motif_pos":-1,"best_pos":7,"similarity":0.429,"stretto":false,"stretto_voices":0,"combination":[],"aug_dim":"","rhythm_ratio":1.0,"mirror":false,"chromatic_density":0.2,"complexity":0.447,"dissonance":0.0},{"voice":1,"pitch":57,"start":12.25,"duration":0.25,"velocity":68,"measure":7,"beat":1.5,"subject_pos":-1,"motif":"","motif_pos":-1,"best_pos":3,"similarity":0.314,"stretto":false,"stretto_voices":0,"combination":[],"aug_dim":"","rhythm_ratio":1.0,"mirror":false,"chromatic_density":0.2,"complexity":0.447,"dissonance":0.0},{"voice":1,"pitch":65,"start":12.5,"duration":0.6927,"velocity":68,"measure":7,"beat":2.0,"subject_pos":-1,"motif":"","motif_pos":-1,"best_pos":4,"similarity":0.236,"stretto":false,"stretto_voices":0,"combination":[],"aug_dim":"","rhythm_ratio":1.0,"mirror":false,"chromatic_density":0.2,"complexity":0.447,"dissonance":0.0},{"voice":0,"pitch":68,"start":13.0,"duration":1.0,"velocity":76,"measure":7,"beat":3.0,"subject_pos":4,"motif":"subject","motif_pos":4,"best_pos":4,"similarity":1.0,"stretto":false,"stretto_voices":0,"combination":[],"aug_dim":"","rhythm_ratio":1.0,"mirror":false,"chromatic_density":0.2,"complexity":0.447,"dissonance":0.0},{"voice":1,"pitch":59,"start":13.25,"duration":0.25,"velocity":68,"measure":7,"beat":3.5,"subject_pos":-1,"motif":"","motif_pos":-1,"best_pos":0,"similarity":0.318,"stretto":false,"stretto_voices":0,"combination":[],"aug_dim":"","rhythm_ratio":1.0,"mirror":false,"chromatic_density":0.2,"complexity":0.447,"dissonance":0.0},{"voice":1,"pitch":64,"start":13.5,"duration":0.75,"velocity":68,"measure":7,"beat":4.0,"subject_pos":-1,"motif":"","motif_pos":-1,"best_pos":1,"similarity":0.386,"stretto":false,"stretto_voices":0,"combination":[],"aug_dim":"","rhythm_ratio":1.0,"mirror":false,"chromatic_density":0.2,"complexity":0.447,"dissonance":0.0},{"voice":0,"pitch":69,"start":14.0,"duration":0.5,"velocity":76,"measure":8,"beat":1.0,"subject_pos":5,"motif":"subject","motif_pos":5,"best_pos":5,"similarity":1.0,"stretto":false,"stretto_voices":0,"combination":[],"aug_dim":"","rhythm_ratio":1.0,"mirror":false,"chromatic_density":0.333,"complexity":0.387,"dissonance":0.16},{"voice":1,"pitch":65,"start":14.25,"duration":0.25,"velocity":68,"measure":8,"beat":1.5,"subject_pos":-1,"motif":"","motif_pos":-1,"best_pos":3,"similarity":0.4,"stretto":false,"stretto_voices":0,"combination":[],"aug_dim":"","rhythm_ratio":1.0,"mirror":false,"chromatic_density":0.333,"complexity":0.387,"dissonance":0.16},{"voice":0,"pitch":71,"start":14.5,"duration":0.5,"velocity":76,"measure":8,"beat":2.0,"subject_pos":6,"motif":"subject","motif_pos":6,"best_pos":6,"similarity":1.0,"stretto":false,"stretto_voices":0,"combination":[],"aug_dim":"","rhythm_ratio":1.0,"mirror":false,"chromatic_density":0.333,"complexity":0.387,"dissonance":0.16},{"voice":1,"pitch":64,"start":14.5,"duration":0.25,"velocity":68,"measure":8,"beat":2.0,"subject_pos":-1,"motif":"","motif_pos":-1,"best_pos":4,"similarity":0.507,"stretto":false,"stretto_voices":0,"combination":[],"aug_dim":"","rhythm_ratio":1.0,"mirror":false,"chromatic_density":0.333,"complexity":0.387,"dissonance":0.16},{"voice":1,"pitch":62,"start":14.75,"duration":0.25,"velocity":68,"measure":8,"beat":2.5,"subject_pos":-1,"motif":"","motif_pos":-1,"best_pos":4,"similarity":0.543,"stretto":false,"stretto_voices":0,"combination":[],"aug_dim":"","rhythm_ratio":1.0,"mirror":false,"chromatic_density":0.333,"complexity":0.387,"dissonance":0.16},{"voice":0,"pitch":72,"start":15.0,"duration":1.4115,"velocity":76,"measure":8,"beat":3.0,"subject_pos":7,"motif":"subject","motif_pos":7,"best_pos":7,"similarity":1.0,"stretto":false,"stretto_voices":0,"combination":[],"aug_dim":"","rhythm_ratio":1.0,"mirror":false,"chromatic_density":0.333,"complexity":0.387,"dissonance":0.16},{"voice":1,"pitch":64,"start":15.0,"duration":0.5,"velocity":68,"measure":8,"beat":3.0,"subject_pos":-1,"motif":"","motif_pos":-1,"best_pos":5,"similarity":0.661,"stretto":false,"stretto_voices":0,"combination":[],"aug_dim":"","rhythm_ratio":1.0,"mirror":false,"chromatic_density":0.333,"complexity":0.387,"dissonance":0.16},{"voice":1,"pitch":66,"start":15.5,"duration":0.5,"velocity":68,"measure":8,"beat":4.0,"subject_pos":-1,"motif":"","motif_pos":-1,"best_pos":6,"similarity":0.679,"stretto":false,"stretto_voices":0,"combination":[],"aug_dim":"","rhythm_ratio":1.0,"mirror":false,"chromatic_density":0.333,"complexity":0.387,"dissonance":0.16},{"voice":1,"pitch":67,"start":16.0,"duration":1.5,"velocity":68,"measure":9,"beat":1.0,"subject_pos":-1,"motif":"","motif_pos":-1,"best_pos":7,"similarity":0.464,"stretto":false,"stretto_voices":0,"combination":[],"aug_dim":"","rhythm_ratio":1.0,"mirror":false,"chromatic_density":0.167,"complexity":0.457,"dissonance":0.042},{"voice":0,"pitch":74,"start":16.25,"duration":0.4115,"velocity":76,"measure":9,"beat":1.5,"subject_pos":-1,"motif":"","motif_pos":-1,"best_pos":6,"similarity":0.464,"stretto":false,"stretto_voices":0,"combination":[],"aug_dim":"","rhythm_ratio":1.0,"mirror":false,"chromatic_density":0.167,"complexity":0.457,"dissonance":0.042},{"voice":0,"pitch":72,"start":16.5,"duration":0.4115,"velocity":76,"measure":9,"beat":2.0,"subject_pos":-1,"motif":"","motif_pos":-1,"best_pos":2,"similarity":0.586,"stretto":false,"stretto_voices":0,"combination":[],"aug_dim":"","rhythm_ratio":1.0,"mirror":false,"chromatic_density":0.167,"complexity":0.457,"dissonance":0.042},{"voice":0,"pitch":70,"start":16.75,"duration":0.4115,"velocity":76,"measure":9,"beat":2.5,"subject_pos":-1,"motif":"","motif_pos":-1,"best_pos":3,"similarity":0.579,"stretto":false,"stretto_voices":0,"combination":[],"aug_dim":"","rhythm_ratio":1.0,"mirror":false,"chromatic_density":0.167,"complexity":0.457,"dissonance":0.042},{"voice":0,"pitch":69,"start":17.0,"duration":0.4115,"velocity":76,"measure":9,"beat":3.0,"subject_pos":-1,"motif":"","motif_pos":-1,"best_pos":4,"similarity":0.446,"stretto":false,"stretto_voices":0,"combination":[],"aug_dim":"","rhythm_ratio":1.0,"mirror":false,"chromatic_density":0.167,"complexity":0.457,"dissonance":0.042},{"voice":3,"pitch":50,"start":17.0,"duration":1.0,"velocity":53,"measure":9,"beat":3.0,"subject_pos":0,"motif":"subject","motif_pos":0,"best_pos":0,"similarity":1.0,"stretto":false,"stretto_voices":0,"combination":[],"aug_dim":"","rhythm_ratio":0.98,"mirror":false,"chromatic_density":0.167,"complexity":0.457,"dissonance":0.042},{"voice":0,"pitch":62,"start":17.25,"duration":0.4115,"velocity":76,"measure":9,"beat":3.5,"subject_pos":-1,"motif":"","motif_pos":-1,"best_pos":2,"similarity":0.243,"stretto":false,"stretto_voices":0,"combination":[],"aug_dim":"","rhythm_ratio":1.0,"mirror":false,"chromatic_density":0.167,"complexity":0.457,"dissonance":0.042},{"voice":0,"pitch":74,"start":17.5,"duration":1.0,"velocity":76,"measure":9,"beat":4.0,"subject_pos":-1,"motif":"","motif_pos":-1,"best_pos":3,"similarity":0.443,"stretto":false,"stretto_voices":0,"combination":[],"aug_dim":"","rhythm_ratio":1.0,"mirror":false,"chromatic_density":0.167,"complexity":0.457,"dissonance":0.042},{"voice":1,"pitch":65,"start":17.5,"duration":0.5,"velocity":68,"measure":9,"beat":4.0,"subject_pos":-1,"motif":"","motif_pos":-1,"best_pos":3,"similarity":0.536,"stretto":false,"stretto_voices":0,"combination":[],"aug_dim":"","rhythm_ratio":1.0,"mirror":false,"chromatic_density":0.167,"complexity":0.457,"dissonance":0.042},{"voice":1,"pitch":64,"start":18.0,"duration":1.0,"velocity":68,"measure":10,"beat":1.0,"subject_pos":-1,"motif":"","motif_pos":-1,"best_pos":4,"similarity":0.607,"stretto":false,"stretto_voices":0,"combination":[],"aug_dim":"","rhythm_ratio":1.0,"mirror":false,"chromatic_density":0.167,"complexity":0.64,"dissonance":0.062},{"voice":3,"pitch":57,"start":18.0,"duration":1.0,"velocity":53,"measure":10,"beat":1.0,"subject_pos":1,"motif":"subject","motif_pos":1,"best_pos":1,"similarity":1.0,"stretto":false,"stretto_voices":0,"combination":[],"aug_dim":"","rhythm_ratio":0.98,"mirror":false,"chromatic_density":0.167,"complexity":0.64,"dissonance":0.062},{"voice":0,"pitch":73,"start":18.5,"duration":0.5,"velocity":76,"measure":10,"beat":2.0,"subject_pos":-1,"motif":"enigmatic_cell","motif_pos":0,"best_pos":0,"similarity":1.0,"stretto":false,"stretto_voices":0,"combination":[],"aug_dim":"","rhythm_ratio":1.0,"mirror":false,"chromatic_density":0.167,"complexity":0.64,"dissonance":0.062},{"voice":0,"pitch":74,"start":19.0,"duration":0.4115,"velocity":76,"measure":10,"beat":3.0,"subject_pos":-1,"motif":"enigmatic_cell","motif_pos":1,"best_pos":1,"similarity":1.0,"stretto":false,"stretto_voices":0,"combination":[],"aug_dim":"","rhythm_ratio":1.0,"mirror":false,"chromatic_density":0.167,"complexity":0.64,"dissonance":0.062},{"voice":1,"pitch":62,"start":19.0,"duration":0.75,"velocity":68,"measure":10,"beat":3.0,"subject_pos":-1,"motif":"","motif_pos":-1,"best_pos":5,"similarity":0.636,"stretto":false,"stretto_voices":0,"combination":[],"aug_dim":"","rhythm_ratio":1.0,"mirror":false,"chromatic_density":0.167,"complexity":0.64,"dissonance":0.062},{"voice":3,"pitch":53,"start":19.0,"duration":1.0,"velocity":53,"measure":10,"beat":3.0,"subject_pos":2,"motif":"subject","motif_pos":2,"best_pos":2,"similarity":1.0,"stretto":false,"stretto_voices":0,"combination":[],"aug_dim":"","rhythm_ratio":0.98,"mirror":false,"chromatic_density":0.167,"complexity":0.64,"dissonance":0.062},{"voice":0,"pitch":69,"start":19.25,"duration":0.4115,"velocity":76,"measure":10,"beat":3.5,"subject_pos":-1,"motif":"enigmatic_cell","motif_pos":2,"best_pos":2,"similarity":1.0,"stretto":false,"stretto_voices":0,"combination":[],"aug_dim":"","rhythm_ratio":1.0,"mirror":false,"chromatic_density":0.167,"complexity":0.64,"dissonance":0.062},{"voice":0,"pitch":72,"start":19.5,"duration":0.9115,"velocity":76,"measure":10,"beat":4.0,"subject_pos":-1,"motif":"","motif_pos":-1,"best_pos":2,"similarity":0.321,"stretto":false,"stretto_voices":0,"combination":[],"aug_dim":"","rhythm_ratio":1.0,"mirror":false,"chromatic_density":0.167,"complexity":0.64,"dissonance":0.062},{"voice":1,"pitch":64,"start":19.75,"duration":0.25,"velocity":68,"measure":10,"beat":4.5,"subject_pos":-1,"motif":"","motif_pos":-1,"best_pos":6,"similarity":0.657,"stretto":false,"stretto_voices":0,"combination":[],"aug_dim":"","rhythm_ratio":1.0,"mirror":false,"chromatic_density":0.167,"complexity":0.64,"dissonance":0.062},{"voice":1,"pitch":65,"start":20.0,"duration":0.75,"velocity":68,"measure":11,"beat":1.0,"subject_pos":-1,"motif":"","motif_pos":-1,"best_pos":7,"similarity":0.436,"stretto":false,"stretto_voices":0,"combination":[],"aug_dim":"","rhythm_ratio":1.0,"mirror":false,"chromatic_density":0.333,"complexity":0.632,"dissonance":0.168},{"voice":3,"pitch":50,"start":20.0,"duration":1.0,"velocity":53,"measure":11,"beat":1.0,"subject_pos":3,"motif":"subject","motif_pos":3,"best_pos":3,"similarity":1.0,"stretto":false,"stretto_voices":0,"combination":[],"aug_dim":"","rhythm_ratio":0.98,"mirror":false,"chromatic_density":0.333,"complexity":0.632,"dissonance":0.168},{"voice":0,"pitch":69,"start":20.25,"duration":0.4115,"velocity":76,"measure":11,"beat":1.5,"subject_pos":-1,"motif":"enigmatic_cell","motif_pos":0,"best_pos":0,"similarity":1.0,"stretto":false,"stretto_voices":0,"combination":[],"aug_dim":"","rhythm_ratio":1.0,"mirror":false,"chromatic_density":0.333,"complexity":0.632,"dissonance":0.168},{"voice":0,"pitch":70,"start":20.5,"duration":0.9115,"velocity":76,"measure":11,"beat":2.0,"subject_pos":-1,"motif":"enigmatic_cell","motif_pos":1,"best_pos":1,"similarity":1.0,"stretto":false,"stretto_voices":0,"combination":[],"aug_dim":"","rhythm_ratio":1.0,"mirror":false,"chromatic_density":0.333,"complexity":0.632,"dissonance":0.168},{"voice":1,"pitch":62,"start":20.75,"duration":0.25,"velocity":68,"measure":11,"beat":2.5,"subject_pos":-1,"motif":"","motif_pos":-1,"best_pos":3,"similarity":0.386,"stretto":false,"stretto_voices":0,"combination":[],"aug_dim":"","rhythm_ratio":1.0,"mirror":false,"chromatic_density":0.333,"complexity":0.632,"dissonance":0.168},{"voice":1,"pitch":67,"start":21.0,"duration":0.6927,"velocity":68,"measure":11,"beat":3.0,"subject_pos":-1,"motif":"","motif_pos":-1,"best_pos":1,"similarity":0.5,"stretto":false,"stretto_voices":0,"combination":[],"aug_dim":"","rhythm_ratio":1.0,"mirror":false,"chromatic_density":0.333,"complexity":0.632,"dissonance":0.168},{"voice":3,"pitch":49,"start":21.0,"duration":1.0,"velocity":53,"measure":11,"beat":3.0,"subject_pos":4,"motif":"subject","motif_pos":4,"best_pos":4,"similarity":1.0,"stretto":false,"stretto_voices":0,"combination":[],"aug_dim":"","rhythm_ratio":0.98,"mirror":false,"chromatic_density":0.333,"complexity":0.632,"dissonance":0.168},{"voice":0,"pitch":64,"start":21.25,"duration":0.4115,"velocity":76,"measure":11,"beat":3.5,"subject_pos":-1,"motif":"enigmatic_cell","motif_pos":2,"best_pos":2,"similarity":1.0,"stretto":false,"stretto_voices":0,"combination":[],"aug_dim":"","rhythm_ratio":1.0,"mirror":false,"chromatic_density":0.333,"complexity":0.632,"dissonance":0.168},{"voice":0,"pitch":69,"start":21.5,"duration":1.9115,"velocity":76,"measure":11,"beat":4.0,"subject_pos":-1,"motif":"","motif_pos":-1,"best_pos":1,"similarity":0.339,"stretto":false,"stretto_voices":0,"combination":[],"aug_dim":"","rhythm_ratio":1.0,"mirror":false,"chromatic_density":0.333,"complexity":0.632,"dissonance":0.168},{"voice":1,"pitch":67,"start":21.75,"duration":0.25,"velocity":68,"measure":11,"beat":4.5,"subject_pos":-1,"motif":"","motif_pos":-1,"best_pos":2,"similarity":0.507,"stretto":false,"stretto_voices":0,"combination":[],"aug_dim":"","rhythm_ratio":1.0,"mirror":false,"chromatic_density":0.333,"complexity":0.632,"dissonance":0.168},{"voice":1,"pitch":65,"start":22.0,"duration":0.25,"velocity":68,"measure":12,"beat":1.0,"subject_pos":-1,"motif":"","motif_pos":-1,"best_pos":3,"similarity":0.557,"stretto":false,"stretto_voices":0,"combination":[],"aug_dim":"","rhythm_ratio":1.0,"mirror":false,"chromatic_density":0.625,"complexity":0.514,"dissonance":0.236},{"voice":3,"pitch":50,"start":22.0,"duration":0.5,"velocity":53,"measure":12,"beat":1.0,"subject_pos":5,"motif":"subject","motif_pos":5,"best_pos":5,"similarity":1.0,"stretto":false,"stretto_voices":0,"combination":[],"aug_dim":"","rhythm_ratio":0.98,"mirror":false,"chromatic_density":0.625,"complexity":0.514,"dissonance":0.236},{"voice":1,"pitch":64,"start":22.25,"duration":0.25,"velocity":68,"measure":12,"beat":1.5,"subject_pos":-1,"motif":"","motif_pos":-1,"best_pos":2,"similarity":0.5,"stretto":false,"stretto_voices":0,"combination":[],"aug_dim":"","rhythm_ratio":1.0,"mirror":false,"chromatic_density":0.625,"complexity":0.514,"dissonance":0.236},{"voice":1,"pitch":62,"start":22.5,"duration":0.25,"velocity":68,"measure":12,"beat":2.0,"subject_pos":-1,"motif":"","motif_pos":-1,"best_pos":3,"similarity":0.65,"stretto":false,"stretto_voices":0,"combination":[],"aug_dim":"","rhythm_ratio":1.0,"mirror":false,"chromatic_density":0.625,"complexity":0.514,"dissonance":0.236},{"voice":3,"pitch":52,"start":22.5,"duration":0.5,"velocity":53,"measure":12,"beat":2.0,"subject_pos":6,"motif":"subject","motif_pos":6,"best_pos":6,"similarity":1.0,"stretto":false,"stretto_voices":0,"combination":[],"aug_dim":"","rhythm_ratio":0.98,"mirror":false,"chromatic_density":0.625,"complexity":0.514,"dissonance":0.236},{"voice":1,"pitch":61,"start":22.75,"duration":0.25,"velocity":68,"measure":12,"beat":2.5,"subject_pos":-1,"motif":"","motif_pos":-1,"best_pos":4,"similarity":0.693,"stretto":false,"stretto_voices":0,"combination":[],"aug_dim":"","rhythm_ratio":1.0,"mirror":false,"chromatic_density":0.625,"complexity":0.514,"dissonance":0.236},{"voice":1,"pitch":62,"start":23.0,"duration":0.4427,"velocity":68,"measure":12,"beat":3.0,"subject_pos":-1,"motif":"","motif_pos":-1,"best_pos":5,"similarity":0.493,"stretto":false,"stretto_voices":0,"combination":[],"aug_dim":"","rhythm_ratio":1.0,"mirror":false,"chromatic_density":0.625,"complexity":0.514,"dissonance":0.236},{"voice":3,"pitch":53,"start":23.0,"duration":1.25,"velocity":53,"measure":12,"beat":3.0,"subject_pos":7,"motif":"subject","motif_pos":7,"best_pos":7,"similarity":1.0,"stretto":false,"stretto_voices":0,"combination":[],"aug_dim":"","rhythm_ratio":0.98,"mirror":false,"chromatic_density":0.625,"complexity":0.514,"dissonance":0.236},{"voice":0,"pitch":72,"start":23.25,"duration":0.5,"velocity":76,"measure":12,"beat":3.5,"subject_pos":-1,"motif":"","motif_pos":-1,"best_pos":3,"similarity":0.429,"stretto":false,"stretto_voices":0,"combination":[],"aug_dim":"","rhythm_ratio":1.0,"mirror":false,"chromatic_density":0.625,"complexity":0.514,"dissonance":0.236},{"voice":1,"pitch":67,"start":23.5,"duration":1.0,"velocity":68,"measure":12,"beat":4.0,"subject_pos":-1,"motif":"","motif_pos":-1,"best_pos":1,"similarity":0.386,"stretto":false,"stretto_voices":0,"combination":[],"aug_dim":"","rhythm_ratio":1.0,"mirror":false,"chromatic_density":0.625,"complexity":0.514,"dissonance":0.236},{"voice":0,"pitch":71,"start":23.75,"duration":0.4115,"velocity":76,"measure":12,"beat":4.5,"subject_pos":-1,"motif":"","motif_pos":-1,"best_pos":4,"similarity":0.571,"stretto":false,"stretto_voices":0,"combination":[],"aug_dim":"","rhythm_ratio":1.0,"mirror":false,"chromatic_density":0.625,"complexity":0.514,"dissonance":0.236},{"voice":0,"pitch":72,"start":24.0,"duration":1.4115,"velocity":76,"measure":13,"beat":1.0,"subject_pos":-1,"motif":"","motif_pos":-1,"best_pos":5,"similarity":0.429,"stretto":false,"stretto_voices":0,"combination":[],"aug_dim":"","rhythm_ratio":1.0,"mirror":false,"chromatic_density":0.286,"complexity":0.577,"dissonance":0.081},{"voice":3,"pitch":55,"start":24.25,"duration":0.25,"velocity":53,"measure":13,"beat":1.5,"subject_pos":-1,"motif":"","motif_pos":-1,"best_pos":6,"similarity":0.464,"stretto":false,"stretto_voices":0,"combination":[],"aug_dim":"","rhythm_ratio":1.0,"mirror":false,"chromatic_density":0.286,"complexity":0.577,"dissonance":0.081},{"voice":1,"pitch":60,"start":24.5,"duration":0.5,"velocity":68,"measure":13,"beat":2.0,"subject_pos":-1,"motif":"","motif_pos":-1,"best_pos":2,"similarity":0.386,"stretto":false,"stretto_voices":0,"combination":[],"aug_dim":"","rhythm_ratio":1.0,"mirror":false,"chromatic_density":0.286,"complexity":0.577,"dissonance":0.081},{"voice":3,"pitch":53,"start":24.5,"duration":0.25,"velocity":53,"measure":13,"beat":2.0,"subject_pos":-1,"motif":"","motif_pos":-1,"best_pos":3,"similarity":0.464,"stretto":false,"stretto_voices":0,"combination":[],"aug_dim":"","rhythm_ratio":1.0,"mirror":false,"chromatic_density":0.286,"complexity":0.577,"dissonance":0.081},{"voice":3,"pitch":52,"start":24.75,"duration":0.25,"velocity":53,"measure":13,"beat":2.5,"subject_pos":-1,"motif":"","motif_pos":-1,"best_pos":3,"similarity":0.436,"stretto":false,"stretto_voices":0,"combination":[],"aug_dim":"","rhythm_ratio":1.0,"mirror":false,"chromatic_density":0.286,"complexity":0.577,"dissonance":0.081},{"voice":1,"pitch":65,"start":25.0,"duration":0.75,"velocity":68,"measure":13,"beat":3.0,"subject_pos":-1,"motif":"","motif_pos":-1,"best_pos":3,"similarity":0.514,"stretto":false,"stretto_voices":0,"combination":[],"aug_dim":"","rhythm_ratio":1.0,"mirror":false,"chromatic_density":0.286,"complexity":0.577,"dissonance":0.081},{"voice":2,"pitch":57,"start":25.0,"duration":1.0,"velocity":59,"measure":13,"beat":3.0,"subject_pos":0,"motif":"subject","motif_pos":0,"best_pos":0,"similarity":1.0,"stretto":false,"stretto_voices":0,"combination":[],"aug_dim":"","rhythm_ratio":0.98,"mirror":false,"chromatic_density":0.286,"complexity":0.577,"dissonance":0.081},{"voice":3,"pitch":50,"start":25.0,"duration":1.0,"velocity":53,"measure":13,"beat":3.0,"subject_pos":-1,"motif":"","motif_pos":-1,"best_pos":4,"similarity":0.464,"stretto":false,"stretto_voices":0,"combination":[],"aug_dim":"","rhythm_ratio":1.0,"mirror":false,"chromatic_density":0.286,"complexity":0.577,"dissonance":0.081},{"voice":0,"pitch":60,"start":25.25,"duration":0.4115,"velocity":76,"measure":13,"beat":3.5,"subject_pos":-1,"motif":"","motif_pos":-1,"best_pos":6,"similarity":0.214,"stretto":false,"stretto_voices":0,"combination":[],"aug_dim":"","rhythm_ratio":1.0,"mirror":false,"chromatic_density":0.286,"complexity":0.577,"dissonance":0.081},{"voice":0,"pitch":72,"start":25.5,"duration":0.9115,"velocity":76,"measure":13,"beat":4.0,"subject_pos":-1,"motif":"","motif_pos":-1,"best_pos":2,"similarity":0.307,"stretto":false,"stretto_voices":0,"combination":[],"aug_dim":"","rhythm_ratio":1.0,"mirror":false,"chromatic_density":0.286,"complexity":0.577,"dissonance":0.081},{"voice":1,"pitch":64,"start":25.75,"duration":0.25,"velocity":68,"measure":13,"beat":4.5,"subject_pos":-1,"motif":"","motif_pos":-1,"best_pos":4,"similarity":0.579,"stretto":false,"stretto_voices":0,"combination":[],"aug_dim":"","rhythm_ratio":1.0,"mirror":false,"chromatic_density":0.286,"complexity":0.577,"dissonance":0.081},{"voice":1,"pitch":65,"start":26.0,"duration":0.75,"velocity":68,"measure":14,"beat":1.0,"subject_pos":-1,"motif":"","motif_pos":-1,"best_pos":5,"similarity":0.429,"stretto":false,"stretto_voices":0,"combination":[],"aug_dim":"","rhythm_ratio":1.0,"mirror":false,"chromatic_density":0.143,"complexity":0.62,"dissonance":0.132},{"voice":2,"pitch":62,"start":26.0,"duration":1.0,"velocity":59,"measure":14,"beat":1.0,"subject_pos":1,"motif":"subject","motif_pos":1,"best_pos":1,"similarity":1.0,"stretto":false,"stretto_voices":0,"combination":[],"aug_dim":"","rhythm_ratio":0.98,"mirror":false,"chromatic_density":0.143,"complexity":0.62,"dissonance":0.132},{"voice":0,"pitch":69,"start":26.25,"duration":0.4115,"velocity":76,"measure":14,"beat":1.5,"subject_pos":-1,"motif":"","motif_pos":-1,"best_pos":3,"similarity":0.336,"stretto":false,"stretto_voices":0,"combination":[],"aug_dim":"","rhythm_ratio":1.0,"mirror":false,"chromatic_density":0.143,"complexity":0.62,"dissonance":0.132},{"voice":0,"pitch":71,"start":26.5,"duration":1.0,"velocity":76,"measure":14,"beat":2.0,"subject_pos":-1,"motif":"","motif_pos":-1,"best_pos":2,"similarity":0.386,"stretto":false,"stretto_voices":0,"combination":[],"aug_dim":"","rhythm_ratio":1.0,"mirror":false,"chromatic_density":0.143,"complexity":0.62,"dissonance":0.132},{"voice":1,"pitch":56,"start":26.75,"duration":0.25,"velocity":68,"measure":14,"beat":2.5,"subject_pos":-1,"motif":"","motif_pos":-1,"best_pos":0,"similarity":0.321,"stretto":false,"stretto_voices":0,"combination":[],"aug_dim":"","rhythm_ratio":1.0,"mirror":false,"chromatic_density":0.143,"complexity":0.62,"dissonance":0.132},{"voice":1,"pitch":64,"start":27.0,"duration":1.5,"velocity":68,"measure":14,"beat":3.0,"subject_pos":-1,"motif":"","motif_pos":-1,"best_pos":1,"similarity":0.507,"stretto":false,"stretto_voices":0,"combination":[],"aug_dim":"","rhythm_ratio":1.0,"mirror":false,"chromatic_density":0.143,"complexity":0.62,"dissonance":0.132},{"voice":2,"pitch":60,"start":27.0,"duration":1.0,"velocity":59,"measure":14,"beat":3.0,"subject_pos":2,"motif":"subject","motif_pos":2,"best_pos":2,"similarity":1.0,"stretto":false,"stretto_voices":0,"combination":[],"aug_dim":"","rhythm_ratio":0.98,"mirror":false,"chromatic_density":0.143,"complexity":0.62,"dissonance":0.132},{"voice":0,"pitch":69,"start":27.5,"duration":0.4115,"velocity":76,"measure":14,"beat":4.0,"subject_pos":-1,"motif":"tail","motif_pos":3,"best_pos":3,"similarity":1.0,"stretto":false,"stretto_voices":0,"combination":[],"aug_dim":"","rhythm_ratio":1.0,"mirror":false,"chromatic_density":0.143,"complexity":0.62,"dissonance":0.132},{"voice":3,"pitch":45,"start":27.5,"duration":0.25,"velocity":53,"measure":14,"beat":4.0,"subject_pos":-1,"motif":"","motif_pos":-1,"best_pos":5,"similarity":0.518,"stretto":false,"stretto_voices":0,"combination":[],"aug_dim":"","rhythm_ratio":1.0,"mirror":false,"chromatic_density":0.143,"complexity":0.62,"dissonance":0.132},{"voice":0,"pitch":68,"start":27.75,"duration":0.4115,"velocity":76,"measure":14,"beat":4.5,"subject_pos":-1,"motif":"tail","motif_pos":4,"best_pos":4,"similarity":1.0,"stretto":false,"stretto_voices":0,"combination":[],"aug_dim":"","rhythm_ratio":1.0,"mirror":false,"chromatic_density":0.143,"complexity":0.62,"dissonance":0.132},{"voice":3,"pitch":47,"start":27.75,"duration":0.25,"velocity":53,"measure":14,"beat":4.5,"subject_pos":-1,"motif":"","motif_pos":-1,"best_pos":6,"similarity":0.607,"stretto":false,"stretto_voices":0,"combination":[],"aug_dim":"","rhythm_ratio":1.0,"mirror":false,"chromatic_density":0.143,"complexity":0.62,"dissonance":0.132},{"voice":0,"pitch":69,"start":28.0,"duration":1.0,"velocity":76,"measure":15,"beat":1.0,"subject_pos":-1,"motif":"tail","motif_pos":5,"best_pos":5,"similarity":1.0,"stretto":false,"stretto_voices":0,"combination":[],"aug_dim":"","rhythm_ratio":1.0,"mirror":false,"chromatic_density":0.182,"complexity":0.639,"dissonance":0.107},{"voice":2,"pitch":57,"start":28.0,"duration":1.0,"velocity":59,"measure":15,"beat":1.0,"subject_pos":3,"motif":"subject","motif_pos":3,"best_pos":3,"similarity":1.0,"stretto":false,"stretto_voices":0,"combination":[],"aug_dim":"","rhythm_ratio":0.98,"mirror":false,"chromatic_density":0.182,"complexity":0.639,"dissonance":0.107},{"voice":3,"pitch":48,"start":28.0,"duration":0.25,"velocity":53,"measure":15,"beat":1.0,"subject_pos":-1,"motif":"","motif_pos":-1,"best_pos":7,"similarity":0.429,"stretto":false,"stretto_voices":0,"combination":[],"aug_dim":"","rhythm_ratio":1.0,"mirror":false,"chromatic_density":0.182,"complexity":0.639,"dissonance":0.107},{"voice":3,"pitch":45,"start":28.25,"duration":0.25,"velocity":53,"measure":15,"beat":1.5,"subject_pos":-1,"motif":"","motif_pos":-1,"best_pos":3,"similarity":0.314,"stretto":false,"stretto_voices":0,"combination":[],"aug_dim":"","rhythm_ratio":1.0,"mirror":false,"chromatic_density":0.182,"complexity":0.639,"dissonance":0.107},{"voice":1,"pitch":62,"start":28.5,"duration":0.25,"velocity":68,"measure":15,"beat":2.0,"subject_pos":-1,"motif":"","motif_pos":-1,"best_pos":2,"similarity":0.532,"stretto":false,"stretto_voices":0,"combination":[],"aug_dim":"","rhythm_ratio":1.0,"mirror":false,"chromatic_density":0.182,"complexity":0.639,"dissonance":0.107},{"voice":3,"pitch":53,"start":28.5,"duration":0.6927,"velocity":53,"measure":15,"beat":2.0,"subject_pos":-1,"motif":"","motif_pos":-1,"best_pos":4,"similarity":0.236,"stretto":false,"stretto_voices":0,"combination":[],"aug_dim":"","rhythm_ratio":1.0,"mirror":false,"chromatic_density":0.182,"complexity":0.639,"dissonance":0.107},{"voice":1,"pitch":60,"start":28.75,"duration":0.25,"velocity":68,"measure":15,"beat":2.5,"subject_pos":-1,"motif":"","motif_pos":-1,"best_pos":4,"similarity":0.446,"stretto":false,"stretto_voices":0,"combination":[],"aug_dim":"","rhythm_ratio":1.0,"mirror":false,"chromatic_density":0.182,"complexity":0.639,"dissonance":0.107},{"voice":0,"pitch":71,"start":29.0,"duration":1.0,"velocity":76,"measure":15,"beat":3.0,"subject_pos":-1,"motif":"tail","motif_pos":6,"best_pos":6,"similarity":1.0,"stretto":false,"stretto_voices":0,"combination":[],"aug_dim":"","rhythm_ratio":1.0,"mirror":false,"chromatic_density":0.182,"complexity":0.639,"dissonance":0.107},{"voice":1,"pitch":62,"start":29.0,"duration":0.25,"velocity":68,"measure":15,"beat":3.0,"subject_pos":-1,"motif":"","motif_pos":-1,"best_pos":5,"similarity":0.429,"stretto":false,"stretto_voices":0,"combination":[],"aug_dim":"","rhythm_ratio":1.0,"mirror":false,"chromatic_density":0.182,"complexity":0.639,"dissonance":0.107},{"voice":2,"pitch":56,"start":29.0,"duration":1.0,"velocity":59,"measure":15,"beat":3.0,"subject_pos":4,"motif":"subject","motif_pos":4,"best_pos":4,"similarity":1.0,"stretto":false,"stretto_voices":0,"combination":[],"aug_dim":"","rhythm_ratio":0.98,"mirror":false,"chromatic_density":0.182,"complexity":0.639,"dissonance":0.107},{"voice":1,"pitch":65,"start":29.25,"duration":0.25,"velocity":68,"measure":15,"beat":3.5,"subject_pos":-1,"motif":"","motif_pos":-1,"best_pos":1,"similarity":0.321,"stretto":false,"stretto_voices":0,"combination":[],"aug_dim":"","rhythm_ratio":1.0,"mirror":false,"chromatic_density":0.182,"complexity":0.639,"dissonance":0.107},{"voice":3,"pitch":47,"start":29.25,"duration":0.25,"velocity":53,"measure":15,"beat":3.5,"subject_pos":-1,"motif":"","motif_pos":-1,"best_pos":0,"similarity":0.318,"stretto":false,"stretto_voices":0,"combination":[],"aug_dim":"","rhythm_ratio":1.0,"mirror":false,"chromatic_density":0.182,"complexity":0.639,"dissonance":0.107},{"voice":1,"pitch":64,"start":29.5,"duration":0.25,"velocity":68,"measure":15,"beat":4.0,"subject_pos":-1,"motif":"","motif_pos":-1,"best_pos":2,"similarity":0.429,"stretto":false,"stretto_voices":0,"combination":[],"aug_dim":"","rhythm_ratio":1.0,"mirror":false,"chromatic_density":0.182,"complexity":0.639,"dissonance":0.107},{"voice":3,"pitch":52,"start":29.5,"duration":0.75,"velocity":53,"measure":15,"beat":4.0,"subject_pos":-1,"motif":"","motif_pos":-1,"best_pos":1,"similarity":0.386,"stretto":false,"stretto_voices":0,"combination":[],"aug_dim":"","rhythm_ratio":1.0,"mirror":false,"chromatic_density":0.182,"complexity":0.639,"dissonance":0.107},{"voice":1,"pitch":62,"start":29.75,"duration":0.25,"velocity":68,"measure":15,"beat":4.5,"subject_pos":-1,"motif":"","motif_pos":-1,"best_pos":3,"similarity":0.446,"stretto":false,"stretto_voices":0,"combination":[],"aug_dim":"","rhythm_ratio":1.0,"mirror":false,"chromatic_density":0.182,"complexity":0.639,"dissonance":0.107},{"voice":0,"pitch":72,"start":30.0,"duration":0.5,"velocity":76,"measure":16,"beat":1.0,"subject_pos":-1,"motif":"tail","motif_pos":7,"best_pos":7,"similarity":1.0,"stretto":false,"stretto_voices":0,"combination":[],"aug_dim":"","rhythm_ratio":1.0,"mirror":false,"chromatic_density":0.333,"complexity":0.623,"dissonance":0.067},{"voice":1,"pitch":60,"start":30.0,"duration":0.5,"velocity":68,"measure":16,"beat":1.0,"subject_pos":-1,"motif":"","motif_pos":-1,"best_pos":5,"similarity":0.404,"stretto":false,"stretto_voices":0,"combination":[],"aug_dim":"","rhythm_ratio":1.0,"mirror":false,"chromatic_density":0.333,"complexity":0.623,"dissonance":0.067},{"voice":2,"pitch":57,"start":30.0,"duration":0.5,"velocity":59,"measure":16,"beat":1.0,"subject_pos":5,"motif":"subject","motif_pos":5,"best_pos":5,"similarity":1.0,"stretto":false,"stretto_voices":0,"combination":[],"aug_dim":"","rhythm_ratio":0.98,"mirror":false,"chromatic_density":0.333,"complexity":0.623,"dissonance":0.067},{"voice":3,"pitch":53,"start":30.25,"duration":0.25,"velocity":53,"measure":16,"beat":1.5,"subject_pos":-1,"motif":"","motif_pos":-1,"best_pos":3,"similarity":0.4,"stretto":false,"stretto_voices":0,"combination":[],"aug_dim":"","rhythm_ratio":1.0,"mirror":false,"chromatic_density":0.333,"complexity":0.623,"dissonance":0.067},{"voice":0,"pitch":74,"start":30.5,"duration":0.5,"velocity":76,"measure":16,"beat":2.0,"subject_pos":-1,"motif":"","motif_pos":-1,"best_pos":6,"similarity":0.436,"stretto":false,"stretto_voices":0,"combination":[],"aug_dim":"","rhythm_ratio":1.0,"mirror":false,"chromatic_density":0.333,"complexity":0.623,"dissonance":0.067},{"voice":2,"pitch":59,"start":30.5,"duration":0.5,"velocity":59,"measure":16,"beat":2.0,"subject_pos":6,"motif":"subject","motif_pos":6,"best_pos":6,"similarity":1.0,"stretto":false,"stretto_voices":0,"combination":[],"aug_dim":"","rhythm_ratio":0.98,"mirror":false,"chromatic_density":0.333,"complexity":0.623,"dissonance":0.067},{"voice":3,"pitch":52,"start":30.5,"duration":0.25,"velocity":53,"measure":16,"beat":2.0,"subject_pos":-1,"motif":"","motif_pos":-1,"best_pos":4,"similarity":0.489,"stretto":false,"stretto_voices":0,"combination":[],"aug_dim":"","rhythm_ratio":1.0,"mirror":false,"chromatic_density":0.333,"complexity":0.623,"dissonance":0.067},{"voice":3,"pitch":50,"start":30.75,"duration":0.25,"velocity":53,"measure":16,"beat":2.5,"subject_pos":-1,"motif":"","motif_pos":-1,"best_pos":5,"similarity":0.5,"stretto":false,"stretto_voices":0,"combination":[],"aug_dim":"","rhythm_ratio":1.0,"mirror":false,"chromatic_density":0.333,"complexity":0.623,"dissonance":0.067},{"voice":0,"pitch":67,"start":31.0,"duration":0.4115,"velocity":76,"measure":16,"beat":3.0,"subject_pos":-1,"motif":"","motif_pos":-1,"best_pos":2,"similarity":0.257,"stretto":false,"stretto_voices":0,"combination":[],"aug_dim":"","rhythm_ratio":1.0,"mirror":false,"chromatic_density":0.333,"complexity":0.623,"dissonance":0.067},{"voice":2,"pitch":60,"start":31.0,"duration":1.25,"velocity":59,"measure":16,"beat":3.0,"subject_pos":7,"motif":"subject","motif_pos":7,"best_pos":7,"similarity":1.0,"stretto":false,"stretto_voices":0,"combination":[],"aug_dim":"","rhythm_ratio":0.98,"mirror":false,"chromatic_density":0.333,"complexity":0.623,"dissonance":0.067},{"voice":3,"pitch":52,"start":31.0,"duration":0.25,"velocity":53,"measure":16,"beat":3.0,"subject_pos":-1,"motif":"","motif_pos":-1,"best_pos":6,"similarity":0.443,"stretto":false,"stretto_voices":0,"combination":[],"aug_dim":"","rhythm_ratio":1.0,"mirror":false,"chromatic_density":0.333,"complexity":0.623,"dissonance":0.067},{"voice":0,"pitch":70,"start":31.25,"duration":0.4115,"velocity":76,"measure":16,"beat":3.5,"subject_pos":-1,"motif":"","motif_pos":-1,"best_pos":3,"similarity":0.457,"stretto":false,"stretto_voices":0,"combination":[],"aug_dim":"","rhythm_ratio":1.0,"mirror":false,"chromatic_density":0.333,"complexity":0.623,"dissonance":0.067},{"voice":3,"pitch":55,"start":31.25,"duration":0.25,"velocity":53,"measure":16,"beat":3.5,"subject_pos":-1,"motif":"","motif_pos":-1,"best_pos":3,"similarity":0.343,"stretto":false,"stretto_voices":0,"combination":[],"aug_dim":"","rhythm_ratio":1.0,"mirror":false,"chromatic_density":0.333,"complexity":0.623,"dissonance":0.067},{"voice":0,"pitch":69,"start":31.5,"duration":0.9115,"velocity":76,"measure":16,"beat":4.0,"subject_pos":-1,"motif":"","motif_pos":-1,"best_pos":4,"similarity":0.6,"stretto":false,"stretto_voices":0,"combination":[],"aug_dim":"","rhythm_ratio":1.0,"mirror":false,"chromatic_density":0.333,"complexity":0.623,"dissonance":0.067},{"voice":3,"pitch":54,"start":31.5,"duration":0.25,"velocity":53,"measure":16,"beat":4.0,"subject_pos":-1,"motif":"","motif_pos":-1,"best_pos":4,"similarity":0.379,"stretto":false,"stretto_voices":0,"combination":[],"aug_dim":"","rhythm_ratio":1.0,"mirror":false,"chromatic_density":0.333,"complexity":0.623,"dissonance":0.067},{"voice":3,"pitch":57,"start":31.75,"duration":0.25,"velocity":53,"measure":16,"beat":4.5,"subject_pos":-1,"motif":"","motif_pos":-1,"best_pos":1,"similarity":0.4,"stretto":false,"stretto_voices":0,"combination":[],"aug_dim":"","rhythm_ratio":1.0,"mirror":false,"chromatic_density":0.333,"complexity":0.623,"dissonance":0.067},{"voice":3,"pitch":55,"start":32.0,"duration":1.0,"velocity":53,"measure":17,"beat":1.0,"subject_pos":-1,"motif":"","motif_pos":-1,"best_pos":2,"similarity":0.414,"stretto":false,"stretto_voices":0,"combination":[],"aug_dim":"","rhythm_ratio":1.0,"mirror":false,"chromatic_density":0.333,"complexity":0.498,"dissonance":0.167},{"voice":0,"pitch":70,"start":32.25,"duration":0.4115,"velocity":76,"measure":17,"beat":1.5,"subject_pos":-1,"motif":"","motif_pos":-1,"best_pos":5,"similarity":0.471,"stretto":false,"stretto_voices":0,"combination":[],"aug_dim":"","rhythm_ratio":1.0,"mirror":false,"chromatic_density":0.333,"complexity":0.498,"dissonance":0.167},{"voice":2,"pitch":62,"start":32.25,"duration":0.25,"velocity":59,"measure":17,"beat":1.5,"subject_pos":-1,"motif":"","motif_pos":-1,"best_pos":6,"similarity":0.464,"stretto":false,"stretto_voices":0,"combination":[],"aug_dim":"","rhythm_ratio":1.0,"mirror":false,"chromatic_density":0.333,"complexity":0.498,"dissonance":0.167},{"voice":0,"pitch":69,"start":32.5,"duration":0.4115,"velocity":76,"measure":17,"beat":2.0,"subject_pos":-1,"motif":"","motif_pos":-1,"best_pos":1,"similarity":0.446,"stretto":false,"stretto_voices":0,"combination":[],"aug_dim":"","rhythm_ratio":1.0,"mirror":false,"chromatic_density":0.333,"complexity":0.498,"dissonance":0.167},{"voice":2,"pitch":60,"start":32.5,"duration":0.25,"velocity":59,"measure":17,"beat":2.0,"subject_pos":-1,"motif":"","motif_pos":-1,"best_pos":2,"similarity":0.586,"stretto":false,"stretto_voices":0,"combination":[],"aug_dim":"","rhythm_ratio":1.0,"mirror":false,"chromatic_density":0.333,"complexity":0.498,"dissonance":0.167},{"voice":0,"pitch":67,"start":32.75,"duration":0.5,"velocity":76,"measure":17,"beat":2.5,"subject_pos":-1,"motif":"","motif_pos":-1,"best_pos":2,"similarity":0.614,"stretto":false,"stretto_voices":0,"combination":[],"aug_dim":"","rhythm_ratio":1.0,"mirror":false,"chromatic_density":0.333,"complexity":0.498,"dissonance":0.167},{"voice":2,"pitch":58,"start":32.75,"duration":0.25,"velocity":59,"measure":17,"beat":2.5,"subject_pos":-1,"motif":"","motif_pos":-1,"best_pos":3,"similarity":0.65,"stretto":false,"stretto_voices":0,"combination":[],"aug_dim":"","rhythm_ratio":1.0,"mirror":false,"chromatic_density":0.333,"complexity":0.498,"dissonance":0.167},{"voice":2,"pitch":57,"start":33.0,"duration":1.1927,"velocity":59,"measure":17,"beat":3.0,"subject_pos":-1,"motif":"","motif_pos":-1,"best_pos":4,"similarity":0.579,"stretto":false,"stretto_voices":0,"combination":[],"aug_dim":"","rhythm_ratio":1.0,"mirror":false,"chromatic_density":0.333,"complexity":0.498,"dissonance":0.167},{"voice":3,"pitch":50,"start":33.0,"duration":1.4427,"velocity":53,"measure":17,"beat":3.0,"subject_pos":-1,"motif":"","motif_pos":-1,"best_pos":5,"similarity":0.371,"stretto":false,"stretto_voices":0,"combination":[],"aug_dim":"","rhythm_ratio":1.0,"mirror":false,"chromatic_density":0.333,"complexity":0.498,"dissonance":0.167},{"voice":0,"pitch":64,"start":33.25,"duration":0.4115,"velocity":76,"measure":17,"beat":3.5,"subject_pos":-1,"motif":"","motif_pos":-1,"best_pos":3,"similarity":0.514,"stretto":false,"stretto_voices":0,"combination":[],"aug_dim":"","rhythm_ratio":1.0,"mirror":false,"chromatic_density":0.333,"complexity":0.498,"dissonance":0.167},{"voice":0,"pitch":65,"start":33.5,"duration":0.4115,"velocity":76,"measure":17,"beat":4.0,"subject_pos":-1,"motif":"","motif_pos":-1,"best_pos":5,"similarity":0.357,"stretto":false,"stretto_voices":0,"combination":[],"aug_dim":"","rhythm_ratio":1.0,"mirror":false,"chromatic_density":0.333,"complexity":0.498,"dissonance":0.167},{"voice":0,"pitch":62,"start":33.75,"duration":0.4115,"velocity":76,"measure":17,"beat":4.5,"subject_pos":-1,"motif":"","motif_pos":-1,"best_pos":3,"similarity":0.386,"stretto":false,"stretto_voices":0,"combination":[],"aug_dim":"","rhythm_ratio":1.0,"mirror":false,"chromatic_density":0.333,"complexity":0.498,"dissonance":0.167},{"voice":0,"pitch":70,"start":34.0,"duration":1.4115,"velocity":76,"measure":18,"beat":1.0,"subject_pos":-1,"motif":"","motif_pos":-1,"best_pos":4,"similarity":0.329,"stretto":false,"stretto_voices":0,"combination":[],"aug_dim":"","rhythm_ratio":1.0,"mirror":false,"chromatic_density":0.25,"complexity":0.467,"dissonance":0.205},{"voice":2,"pitch":53,"start":34.25,"duration":0.25,"velocity":59,"measure":18,"beat":1.5,"subject_pos":-1,"motif":"","motif_pos":-1,"best_pos":5,"similarity":0.479,"stretto":false,"stretto_voices":0,"combination":[],"aug_dim":"","rhythm_ratio":1.0,"mirror":false,"chromatic_density":0.25,"complexity":0.467,"dissonance":0.205},{"voice":2,"pitch":55,"start":34.5,"duration":0.5,"velocity":59,"measure":18,"beat":2.0,"subject_pos":-1,"motif":"","motif_pos":-1,"best_pos":6,"similarity":0.386,"stretto":false,"stretto_voices":0,"combination":[],"aug_dim":"","rhythm_ratio":1.0,"mirror":false,"chromatic_density":0.25,"complexity":0.467,"dissonance":0.205},{"voice":3,"pitch":52,"start":34.5,"duration":0.25,"velocity":53,"measure":18,"beat":2.0,"subject_pos":-1,"motif":"","motif_pos":-1,"best_pos":4,"similarity":0.379,"stretto":false,"stretto_voices":0,"combination":[],"aug_dim":"","rhythm_ratio":1.0,"mirror":false,"chromatic_density":0.25,"complexity":0.467,"dissonance":0.205},{"voice":3,"pitch":50,"start":34.75,"duration":0.25,"velocity":53,"measure":18,"beat":2.5,"subject_pos":-1,"motif":"","motif_pos":-1,"best_pos":5,"similarity":0.489,"stretto":false,"stretto_voices":0,"combination":[],"aug_dim":"","rhythm_ratio":1.0,"mirror":false,"chromatic_density":0.25,"complexity":0.467,"dissonance":0.205},{"voice":2,"pitch":60,"start":35.0,"duration":1.1927,"velocity":59,"measure":18,"beat":3.0,"subject_pos":-1,"motif":"","motif_pos":-1,"best_pos":1,"similarity":0.429,"stretto":false,"stretto_voices":0,"combination":[],"aug_dim":"","rhythm_ratio":1.0,"mirror":false,"chromatic_density":0.25,"complexity":0.467,"dissonance":0.205},{"voice":3,"pitch":52,"start":35.0,"duration":0.4427,"velocity":53,"measure":18,"beat":3.0,"subject_pos":-1,"motif":"","motif_pos":-1,"best_pos":6,"similarity":0.593,"stretto":false,"stretto_voices":0,"combination":[],"aug_dim":"","rhythm_ratio":1.0,"mirror":false,"chromatic_density":0.25,"complexity":0.467,"dissonance":0.205},{"voice":0,"pitch":67,"start":35.25,"duration":0.4115,"velocity":76,"measure":18,"beat":3.5,"subject_pos":-1,"motif":"","motif_pos":-1,"best_pos":5,"similarity":0.4,"stretto":false,"stretto_voices":0,"combination":[],"aug_dim":"","rhythm_ratio":1.0,"mirror":false,"chromatic_density":0.25,"complexity":0.467,"dissonance":0.205},{"voice":0,"pitch":69,"start":35.5,"duration":0.5,"velocity":76,"measure":18,"beat":4.0,"subject_pos":-1,"motif":"","motif_pos":-1,"best_pos":0,"similarity":0.364,"stretto":false,"stretto_voices":0,"combination":[],"aug_dim":"","rhythm_ratio":1.0,"mirror":false,"chromatic_density":0.25,"complexity":0.467,"dissonance":0.205},{"voice":3,"pitch":53,"start":35.5,"duration":0.25,"velocity":53,"measure":18,"beat":4.0,"subject_pos":-1,"motif":"","motif_pos":-1,"best_pos":5,"similarity":0.436,"stretto":false,"stretto_voices":0,"combination":[],"aug_dim":"","rhythm_ratio":1.0,"mirror":false,"chromatic_density":0.25,"complexity":0.467,"dissonance":0.205},{"voice":3,"pitch":52,"start":35.75,"duration":0.25,"velocity":53,"measure":18,"beat":4.5,"subject_pos":-1,"motif":"","motif_pos":-1,"best_pos":4,"similarity":0.539,"stretto":false,"stretto_voices":0,"combination":[],"aug_dim":"","rhythm_ratio":1.0,"mirror":false,"chromatic_density":0.25,"complexity":0.467,"dissonance":0.205},{"voice":0,"pitch":74,"start":36.0,"duration":1.4115,"velocity":76,"measure":19,"beat":1.0,"subject_pos":-1,"motif":"","motif_pos":-1,"best_pos":1,"similarity":0.443,"stretto":false,"stretto_voices":0,"combination":[],"aug_dim":"","rhythm_ratio":1.0,"mirror":false,"chromatic_density":0.556,"complexity":0.473,"dissonance":0.141},{"voice":3,"pitch":54,"start":36.0,"duration":0.4427,"velocity":53,"measure":19,"beat":1.0,"subject_pos":-1,"motif":"","motif_pos":-1,"best_pos":6,"similarity":0.625,"stretto":false,"stretto_voices":0,"combination":[],"aug_dim":"","rhythm_ratio":1.0,"mirror":false,"chromatic_density":0.556,"complexity":0.473,"dissonance":0.141},{"voice":2,"pitch":57,"start":36.25,"duration":0.25,"velocity":59,"measure":19,"beat":1.5,"subject_pos":-1,"motif":"","motif_pos":-1,"best_pos":3,"similarity":0.336,"stretto":false,"stretto_voices":0,"combination":[],"aug_dim":"","rhythm_ratio":1.0,"mirror":false,"chromatic_density":0.556,"complexity":0.473,"dissonance":0.141},{"voice":2,"pitch":59,"start":36.5,"duration":0.5,"velocity":59,"measure":19,"beat":2.0,"subject_pos":-1,"motif":"","motif_pos":-1,"best_pos":0,"similarity":0.364,"stretto":false,"stretto_voices":0,"combination":[],"aug_dim":"","rhythm_ratio":1.0,"mirror":false,"chromatic_density":0.556,"complexity":0.473,"dissonance":0.141},{"voice":3,"pitch":55,"start":36.5,"duration":0.25,"velocity":53,"measure":19,"beat":2.0,"subject_pos":-1,"motif":"","motif_pos":-1,"best_pos":7,"similarity":0.446,"stretto":false,"stretto_voices":0,"combination":[],"aug_dim":"","rhythm_ratio":1.0,"mirror":false,"chromatic_density":0.556,"complexity":0.473,"dissonance":0.141},{"voice":3,"pitch":54,"start":36.75,"duration":0.25,"velocity":53,"measure":19,"beat":2.5,"subject_pos":-1,"motif":"","motif_pos":-1,"best_pos":4,"similarity":0.539,"stretto":false,"stretto_voices":0,"combination":[],"aug_dim":"","rhythm_ratio":1.0,"mirror":false,"chromatic_density":0.556,"complexity":0.473,"dissonance":0.141},{"voice":2,"pitch":64,"start":37.0,"duration":1.1927,"velocity":59,"measure":19,"beat":3.0,"subject_pos":-1,"motif":"","motif_pos":-1,"best_pos":1,"similarity":0.443,"stretto":false,"stretto_voices":0,"combination":[],"aug_dim":"","rhythm_ratio":1.0,"mirror":false,"chromatic_density":0.556,"complexity":0.473,"dissonance":0.141},{"voice":3,"pitch":56,"start":37.0,"duration":0.4427,"velocity":53,"measure":19,"beat":3.0,"subject_pos":-1,"motif":"","motif_pos":-1,"best_pos":6,"similarity":0.625,"stretto":false,"stretto_voices":0,"combination":[],"aug_dim":"","rhythm_ratio":1.0,"mirror":false,"chromatic_density":0.556,"complexity":0.473,"dissonance":0.141},{"voice":0,"pitch":71,"start":37.25,"duration":0.4115,"velocity":76,"measure":19,"beat":3.5,"subject_pos":-1,"motif":"","motif_pos":-1,"best_pos":4,"similarity":0.386,"stretto":false,"stretto_voices":0,"combination":[],"aug_dim":"","rhythm_ratio":1.0,"mirror":false,"chromatic_density":0.556,"complexity":0.473,"dissonance":0.141},{"voice":0,"pitch":72,"start":37.5,"duration":0.5,"velocity":76,"measure":19,"beat":4.0,"subject_pos":-1,"motif":"","motif_pos":-1,"best_pos":5,"similarity":0.364,"stretto":false,"stretto_voices":0,"combination":[],"aug_dim":"","rhythm_ratio":1.0,"mirror":false,"chromatic_density":0.556,"complexity":0.473,"dissonance":0.141},{"voice":3,"pitch":57,"start":37.5,"duration":0.25,"velocity":53,"measure":19,"beat":4.0,"subject_pos":-1,"motif":"","motif_pos":-1,"best_pos":3,"similarity":0.507,"stretto":false,"stretto_voices":0,"combination":[],"aug_dim":"","rhythm_ratio":1.0,"mirror":false,"chromatic_density":0.556,"complexity":0.473,"dissonance":0.141},{"voice":3,"pitch":56,"start":37.75,"duration":0.25,"velocity":53,"measure":19,"beat":4.5,"subject_pos":-1,"motif":"","motif_pos":-1,"best_pos":4,"similarity":0.682,"stretto":false,"stretto_voices":0,"combination":[],"aug_dim":"","rhythm_ratio":1.0,"mirror":false,"chromatic_density":0.556,"complexity":0.473,"dissonance":0.141},{"voice":0,"pitch":77,"start":38.0,"duration":1.4115,"velocity":76,"measure":20,"beat":1.0,"subject_pos":-1,"motif":"","motif_pos":-1,"best_pos":1,"similarity":0.429,"stretto":false,"stretto_voices":0,"combination":[],"aug_dim":"","rhythm_ratio":1.0,"mirror":false,"chromatic_density":0.556,"complexity":0.473,"dissonance":0.141},{"voice":3,"pitch":57,"start":38.0,"duration":0.4427,"velocity":53,"measure":20,"beat":1.0,"subject_pos":-1,"motif":"","motif_pos":-1,"best_pos":5,"similarity":0.614,"stretto":false,"stretto_voices":0,"combination":[],"aug_dim":"","rhythm_ratio":1.0,"mirror":false,"chromatic_density":0.556,"complexity":0.473,"dissonance":0.141},{"voice":2,"pitch":61,"start":38.25,"duration":0.25,"velocity":59,"measure":20,"beat":1.5,"subject_pos":-1,"motif":"","motif_pos":-1,"best_pos":4,"similarity":0.386,"stretto":false,"stretto_voices":0,"combination":[],"aug_dim":"","rhythm_ratio":1.0,"mirror":false,"chromatic_density":0.556,"complexity":0.473,"dissonance":0.141},{"voice":2,"pitch":62,"start":38.5,"duration":0.5,"velocity":59,"measure":20,"beat":2.0,"subject_pos":-1,"motif":"","motif_pos":-1,"best_pos":5,"similarity":0.364,"stretto":false,"stretto_voices":0,"combination":[],"aug_dim":"","rhythm_ratio":1.0,"mirror":false,"chromatic_density":0.556,"complexity":0.473,"dissonance":0.141},{"voice":3,"pitch":58,"start":38.5,"duration":0.25,"velocity":53,"measure":20,"beat":2.0,"subject_pos":-1,"motif":"","motif_pos":-1,"best_pos":5,"similarity":0.439,"stretto":false,"stretto_voices":0,"combination":[],"aug_dim":"","rhythm_ratio":1.0,"mirror":false,"chromatic_density":0.556,"complexity":0.473,"dissonance":0.141},{"voice":3,"pitch":57,"start":38.75,"duration":0.25,"velocity":53,"measure":20,"beat":2.5,"subject_pos":-1,"motif":"","motif_pos":-1,"best_pos":5,"similarity":0.543,"stretto":false,"stretto_voices":0,"combination":[],"aug_dim":"","rhythm_ratio":1.0,"mirror":false,"chromatic_density":0.556,"complexity":0.473,"dissonance":0.141},{"voice":2,"pitch":67,"start":39.0,"duration":1.1927,"velocity":59,"measure":20,"beat":3.0,"subject_pos":-1,"motif":"","motif_pos":-1,"best_pos":1,"similarity":0.514,"stretto":false,"stretto_voices":0,"combination":[],"aug_dim":"","rhythm_ratio":1.0,"mirror":false,"chromatic_density":0.556,"complexity":0.473,"dissonance":0.141},{"voice":3,"pitch":59,"start":39.0,"duration":0.4427,"velocity":53,"measure":20,"beat":3.0,"subject_pos":-1,"motif":"","motif_pos":-1,"best_pos":6,"similarity":0.625,"stretto":false,"stretto_voices":0,"combination":[],"aug_dim":"","rhythm_ratio":1.0,"mirror":false,"chromatic_density":0.556,"complexity":0.473,"dissonance":0.141},{"voice":0,"pitch":74,"start":39.25,"duration":0.4115,"velocity":76,"measure":20,"beat":3.5,"subject_pos":-1,"motif":"","motif_pos":-1,"best_pos":3,"similarity":0.329,"stretto":false,"stretto_voices":0,"combination":[],"aug_dim":"","rhythm_ratio":1.0,"mirror":false,"chromatic_density":0.556,"complexity":0.473,"dissonance":0.141},{"voice":0,"pitch":76,"start":39.5,"duration":0.5,"velocity":76,"measure":20,"beat":4.0,"subject_pos":-1,"motif":"","motif_pos":-1,"best_pos":6,"similarity":0.3,"stretto":false,"stretto_voices":0,"combination":[],"aug_dim":"","rhythm_ratio":1.0,"mirror":false,"chromatic_density":0.556,"complexity":0.473,"dissonance":0.141},{"voice":3,"pitch":60,"start":39.5,"duration":0.25,"velocity":53,"measure":20,"beat":4.0,"subject_pos":-1,"motif":"","motif_pos":-1,"best_pos":7,"similarity":0.446,"stretto":false,"stretto_voices":0,"combination":[],"aug_dim":"","rhythm_ratio":1.0,"mirror":false,"chromatic_density":0.556,"complexity":0.473,"dissonance":0.141},{"voice":3,"pitch":59,"start":39.75,"duration":0.25,"velocity":53,"measure":20,"beat":4.5,"subject_pos":-1,"motif":"","motif_pos":-1,"best_pos":5,"similarity":0.536,"stretto":false,"stretto_voices":0,"combination":[],"aug_dim":"","rhythm_ratio":1.0,"mirror":false,"chromatic_density":0.556,"complexity":0.473,"dissonance":0.141},{"voice":0,"pitch":69,"start":40.0,"duration":0.5,"velocity":76,"measure":21,"beat":1.0,"subject_pos":-1,"motif":"","motif_pos":-1,"best_pos":0,"similarity":0.364,"stretto":false,"stretto_voices":0,"combination":[],"aug_dim":"","rhythm_ratio":1.0,"mirror":false,"chromatic_density":0.556,"complexity":0.665,"dissonance":0.105},{"voice":3,"pitch":61,"start":40.0,"duration":0.4427,"velocity":53,"measure":21,"beat":1.0,"subject_pos":-1,"motif":"enigmatic_cell","motif_pos":0,"best_pos":0,"similarity":1.0,"stretto":false,"stretto_voices":0,"combination":[],"aug_dim":"","rhythm_ratio":1.0,"mirror":false,"chromatic_density":0.556,"complexity":0.665,"dissonance":0.105},{"voice":2,"pitch":64,"start":40.25,"duration":0.25,"velocity":59,"measure":21,"beat":1.5,"subject_pos":-1,"motif":"","motif_pos":-1,"best_pos":2,"similarity":0.464,"stretto":false,"stretto_voices":0,"combination":[],"aug_dim":"","rhythm_ratio":1.0,"mirror":false,"chromatic_density":0.556,"complexity":0.665,"dissonance":0.105},{"voice":0,"pitch":74,"start":40.5,"duration":0.9115,"velocity":76,"measure":21,"beat":2.0,"subject_pos":-1,"motif":"","motif_pos":-1,"best_pos":1,"similarity":0.443,"stretto":false,"stretto_voices":0,"combination":[],"aug_dim":"","rhythm_ratio":1.0,"mirror":false,"chromatic_density":0.556,"complexity":0.665,"dissonance":0.105},{"voice":2,"pitch":65,"start":40.5,"duration":0.5,"velocity":59,"measure":21,"beat":2.0,"subject_pos":-1,"motif":"enigmatic_cell","motif_pos":0,"best_pos":0,"similarity":1.0,"stretto":false,"stretto_voices":0,"combination":[],"aug_dim":"","rhythm_ratio":1.0,"mirror":false,"chromatic_density":0.556,"complexity":0.665,"dissonance":0.105},{"voice":3,"pitch":62,"start":40.5,"duration":0.25,"velocity":53,"measure":21,"beat":2.0,"subject_pos":-1,"motif":"enigmatic_cell","motif_pos":1,"best_pos":1,"similarity":1.0,"stretto":false,"stretto_voices":0,"combination":[],"aug_dim":"","rhythm_ratio":1.0,"mirror":false,"chromatic_density":0.556,"complexity":0.665,"dissonance":0.105},{"voice":3,"pitch":56,"start":40.75,"duration":0.25,"velocity":53,"measure":21,"beat":2.5,"subject_pos":-1,"motif":"enigmatic_cell","motif_pos":2,"best_pos":2,"similarity":1.0,"stretto":false,"stretto_voices":0,"combination":[],"aug_dim":"","rhythm_ratio":1.0,"mirror":false,"chromatic_density":0.556,"complexity":0.665,"dissonance":0.105},{"voice":2,"pitch":64,"start":41.0,"duration":0.75,"velocity":59,"measure":21,"beat":3.0,"subject_pos":-1,"motif":"enigmatic_cell","motif_pos":1,"best_pos":1,"similarity":1.0,"stretto":false,"stretto_voices":0,"combination":[],"aug_dim":"","rhythm_ratio":1.0,"mirror":false,"chromatic_density":0.556,"complexity":0.665,"dissonance":0.105},{"voice":3,"pitch":57,"start":41.0,"duration":1.1927,"velocity":53,"measure":21,"beat":3.0,"subject_pos":-1,"motif":"","motif_pos":-1,"best_pos":5,"similarity":0.364,"stretto":false,"stretto_voices":0,"combination":[],"aug_dim":"","rhythm_ratio":1.0,"mirror":false,"chromatic_density":0.556,"complexity":0.665,"dissonance":0.105},{"voice":0,"pitch":71,"start":41.25,"duration":0.4115,"velocity":76,"measure":21,"beat":3.5,"subject_pos":-1,"motif":"enigmatic_cell","motif_pos":0,"best_pos":0,"similarity":1.0,"stretto":false,"stretto_voices":0,"combination":[],"aug_dim":"","rhythm_ratio":1.0,"mirror":false,"chromatic_density":0.556,"complexity":0.665,"dissonance":0.105},{"voice":0,"pitch":72,"start":41.5,"duration":0.5,"velocity":76,"measure":21,"beat":4.0,"subject_pos":-1,"motif":"enigmatic_cell","motif_pos":1,"best_pos":1,"similarity":1.0,"stretto":false,"stretto_voices":0,"combination":[],"aug_dim":"","rhythm_ratio":1.0,"mirror":false,"chromatic_density":0.556,"complexity":0.665,"dissonance":0.105},{"voice":2,"pitch":69,"start":41.75,"duration":0.25,"velocity":59,"measure":21,"beat":4.5,"subject_pos":-1,"motif":"enigmatic_cell","motif_pos":2,"best_pos":2,"similarity":1.0,"stretto":false,"stretto_voices":0,"combination":[],"aug_dim":"","rhythm_ratio":1.0,"mirror":false,"chromatic_density":0.556,"complexity":0.665,"dissonance":0.105},{"voice":0,"pitch":65,"start":42.0,"duration":0.5,"velocity":76,"measure":22,"beat":1.0,"subject_pos":-1,"motif":"enigmatic_cell","motif_pos":2,"best_pos":2,"similarity":1.0,"stretto":false,"stretto_voices":0,"combination":[],"aug_dim":"","rhythm_ratio":1.0,"mirror":false,"chromatic_density":0.333,"complexity":0.557,"dissonance":0.095},{"voice":2,"pitch":62,"start":42.0,"duration":0.75,"velocity":59,"measure":22,"beat":1.0,"subject_pos":-1,"motif":"","motif_pos":-1,"best_pos":5,"similarity":0.318,"stretto":false,"stretto_voices":0,"combination":[],"aug_dim":"","rhythm_ratio":1.0,"mirror":false,"chromatic_density":0.333,"complexity":0.557,"dissonance":0.095},{"voice":3,"pitch":53,"start":42.25,"duration":0.25,"velocity":53,"measure":22,"beat":1.5,"subject_pos":-1,"motif":"","motif_pos":-1,"best_pos":2,"similarity":0.407,"stretto":false,"stretto_voices":0,"combination":[],"aug_dim":"","rhythm_ratio":1.0,"mirror":false,"chromatic_density":0.333,"complexity":0.557,"dissonance":0.095},{"voice":0,"pitch":70,"start":42.5,"duration":0.5,"velocity":76,"measure":22,"beat":2.0,"subject_pos":-1,"motif":"","motif_pos":-1,"best_pos":1,"similarity":0.443,"stretto":false,"stretto_voices":0,"combination":[],"aug_dim":"","rhythm_ratio":1.0,"mirror":false,"chromatic_density":0.333,"complexity":0.557,"dissonance":0.095},{"voice":3,"pitch":55,"start":42.5,"duration":0.6927,"velocity":53,"measure":22,"beat":2.0,"subject_pos":-1,"motif":"","motif_pos":-1,"best_pos":3,"similarity":0.364,"stretto":false,"stretto_voices":0,"combination":[],"aug_dim":"","rhythm_ratio":1.0,"mirror":false,"chromatic_density":0.333,"complexity":0.557,"dissonance":0.095},{"voice":2,"pitch":64,"start":42.75,"duration":0.25,"velocity":59,"measure":22,"beat":2.5,"subject_pos":-1,"motif":"","motif_pos":-1,"best_pos":2,"similarity":0.35,"stretto":false,"stretto_voices":0,"combination":[],"aug_dim":"","rhythm_ratio":1.0,"mirror":false,"chromatic_density":0.333,"complexity":0.557,"dissonance":0.095},{"voice":0,"pitch":69,"start":43.0,"duration":1.0,"velocity":76,"measure":22,"beat":3.0,"subject_pos":-1,"motif":"","motif_pos":-1,"best_pos":2,"similarity":0.321,"stretto":false,"stretto_voices":0,"combination":[],"aug_dim":"","rhythm_ratio":1.0,"mirror":false,"chromatic_density":0.333,"complexity":0.557,"dissonance":0.095},{"voice":2,"pitch":61,"start":43.0,"duration":0.5,"velocity":59,"measure":22,"beat":3.0,"subject_pos":-1,"motif":"enigmatic_cell","motif_pos":0,"best_pos":0,"similarity":1.0,"stretto":false,"stretto_voices":0,"combination":[],"aug_dim":"","rhythm_ratio":1.0,"mirror":false,"chromatic_density":0.333,"complexity":0.557,"dissonance":0.095},{"voice":3,"pitch":52,"start":43.25,"duration":0.25,"velocity":53,"measure":22,"beat":3.5,"subject_pos":-1,"motif":"","motif_pos":-1,"best_pos":4,"similarity":0.464,"stretto":false,"stretto_voices":0,"combination":[],"aug_dim":"","rhythm_ratio":1.0,"mirror":false,"chromatic_density":0.333,"complexity":0.557,"dissonance":0.095},{"voice":2,"pitch":62,"start":43.5,"duration":0.25,"velocity":59,"measure":22,"beat":4.0,"subject_pos":-1,"motif":"enigmatic_cell","motif_pos":1,"best_pos":1,"similarity":1.0,"stretto":false,"stretto_voices":0,"combination":[],"aug_dim":"","rhythm_ratio":1.0,"mirror":false,"chromatic_density":0.333,"complexity":0.557,"dissonance":0.095},{"voice":3,"pitch":53,"start":43.5,"duration":0.6927,"velocity":53,"measure":22,"beat":4.0,"subject_pos":-1,"motif":"","motif_pos":-1,"best_pos":4,"similarity":0.4,"stretto":false,"stretto_voices":0,"combination":[],"aug_dim":"","rhythm_ratio":1.0,"mirror":false,"chromatic_density":0.333,"complexity":0.557,"dissonance":0.095},{"voice":2,"pitch":57,"start":43.75,"duration":0.25,"velocity":59,"measure":22,"beat":4.5,"subject_pos":-1,"motif":"enigmatic_cell","motif_pos":2,"best_pos":2,"similarity":1.0,"stretto":false,"stretto_voices":0,"combination":[],"aug_dim":"","rhythm_ratio":1.0,"mirror":false,"chromatic_density":0.333,"complexity":0.557,"dissonance":0.095},{"voice":0,"pitch":62,"start":44.0,"duration":0.5,"velocity":76,"measure":23,"beat":1.0,"subject_pos":-1,"motif":"","motif_pos":-1,"best_pos":0,"similarity":0.364,"stretto":false,"stretto_voices":0,"combination":[],"aug_dim":"","rhythm_ratio":1.0,"mirror":false,"chromatic_density":0.222,"complexity":0.665,"dissonance":0.053},{"voice":2,"pitch":59,"start":44.0,"duration":0.75,"velocity":59,"measure":23,"beat":1.0,"subject_pos":-1,"motif":"","motif_pos":-1,"best_pos":5,"similarity":0.593,"stretto":false,"stretto_voices":0,"combination":[],"aug_dim":"","rhythm_ratio":1.0,"mirror":false,"chromatic_density":0.222,"complexity":0.665,"dissonance":0.053},{"voice":3,"pitch":50,"start":44.25,"duration":0.25,"velocity":53,"measure":23,"beat":1.5,"subject_pos":-1,"motif":"","motif_pos":-1,"best_pos":5,"similarity":0.436,"stretto":false,"stretto_voices":0,"combination":[],"aug_dim":"","rhythm_ratio":1.0,"mirror":false,"chromatic_density":0.222,"complexity":0.665,"dissonance":0.053},{"voice":0,"pitch":67,"start":44.5,"duration":0.9115,"velocity":76,"measure":23,"beat":2.0,"subject_pos":-1,"motif":"","motif_pos":-1,"best_pos":1,"similarity":0.443,"stretto":false,"stretto_voices":0,"combination":[],"aug_dim":"","rhythm_ratio":1.0,"mirror":false,"chromatic_density":0.222,"complexity":0.665,"dissonance":0.053},{"voice":3,"pitch":52,"start":44.5,"duration":0.5,"velocity":53,"measure":23,"beat":2.0,"subject_pos":-1,"motif":"","motif_pos":-1,"best_pos":1,"similarity":0.464,"stretto":false,"stretto_voices":0,"combination":[],"aug_dim":"","rhythm_ratio":1.0,"mirror":false,"chromatic_density":0.222,"complexity":0.665,"dissonance":0.053},{"voice":2,"pitch":61,"start":44.75,"duration":0.25,"velocity":59,"measure":23,"beat":2.5,"subject_pos":-1,"motif":"enigmatic_cell","motif_pos":0,"best_pos":0,"similarity":1.0,"stretto":false,"stretto_voices":0,"combination":[],"aug_dim":"","rhythm_ratio":1.0,"mirror":false,"chromatic_density":0.222,"complexity":0.665,"dissonance":0.053},{"voice":1,"pitch":62,"start":45.0,"duration":1.0,"velocity":68,"measure":23,"beat":3.0,"subject_pos":0,"motif":"subject","motif_pos":0,"best_pos":0,"similarity":1.0,"stretto":false,"stretto_voices":0,"combination":[],"aug_dim":"","rhythm_ratio":0.98,"mirror":false,"chromatic_density":0.222,"complexity":0.665,"dissonance":0.053},{"voice":2,"pitch":62,"start":45.0,"duration":0.4427,"velocity":59,"measure":23,"beat":3.0,"subject_pos":-1,"motif":"enigmatic_cell","motif_pos":1,"best_pos":1,"similarity":1.0,"stretto":false,"stretto_voices":0,"combination":[],"aug_dim":"","rhythm_ratio":1.0,"mirror":false,"chromatic_density":0.222,"complexity":0.665,"dissonance":0.053},{"voice":3,"pitch":50,"start":45.0,"duration":1.1927,"velocity":53,"measure":23,"beat":3.0,"subject_pos":-1,"motif":"","motif_pos":-1,"best_pos":2,"similarity":0.671,"stretto":false,"stretto_voices":0,"combination":[],"aug_dim":"","rhythm_ratio":1.0,"mirror":false,"chromatic_density":0.222,"complexity":0.665,"dissonance":0.053},{"voice":0,"pitch":64,"start":45.25,"duration":0.4115,"velocity":76,"measure":23,"beat":3.5,"subject_pos":-1,"motif":"","motif_pos":-1,"best_pos":4,"similarity":0.364,"stretto":false,"stretto_voices":0,"combination":[],"aug_dim":"","rhythm_ratio":1.0,"mirror":false,"chromatic_density":0.222,"complexity":0.665,"dissonance":0.053},{"voice":0,"pitch":65,"start":45.5,"duration":0.4115,"velocity":76,"measure":23,"beat":4.0,"subject_pos":-1,"motif":"","motif_pos":-1,"best_pos":5,"similarity":0.321,"stretto":false,"stretto_voices":0,"combination":[],"aug_dim":"","rhythm_ratio":1.0,"mirror":false,"chromatic_density":0.222,"complexity":0.665,"dissonance":0.053},{"voice":2,"pitch":57,"start":45.5,"duration":2.5,"velocity":59,"measure":23,"beat":4.0,"subject_pos":-1,"motif":"enigmatic_cell","motif_pos":2,"best_pos":2,"similarity":1.0,"stretto":false,"stretto_voices":0,"combination":[],"aug_dim":"","rhythm_ratio":1.0,"mirror":false,"chromatic_density":0.222,"complexity":0.665,"dissonance":0.053},{"voice":0,"pitch":74,"start":45.75,"duration":0.4115,"velocity":76,"measure":23,"beat":4.5,"subject_pos":-1,"motif":"","motif_pos":-1,"best_pos":6,"similarity":0.161,"stretto":false,"stretto_voices":0,"combination":[],"aug_dim":"","rhythm_ratio":1.0,"mirror":false,"chromatic_density":0.222,"complexity":0.665,"dissonance":0.053},{"voice":0,"pitch":64,"start":46.0,"duration":1.4115,"velocity":76,"measure":24,"beat":1.0,"subject_pos":-1,"motif":"","motif_pos":-1,"best_pos":1,"similarity":0.321,"stretto":false,"stretto_voices":0,"combination":[],"aug_dim":"","rhythm_ratio":1.0,"mirror":false,"chromatic_density":0.167,"complexity":0.535,"dissonance":0.184},{"voice":1,"pitch":69,"start":46.0,"duration":1.0,"velocity":68,"measure":24,"beat":1.0,"subject_pos":1,"motif":"subject","motif_pos":1,"best_pos":1,"similarity":1.0,"stretto":false,"stretto_voices":0,"combination":[],"aug_dim":"","rhythm_ratio":0.98,"mirror":false,"chromatic_density":0.167,"complexity":0.535,"dissonance":0.184},{"voice":3,"pitch":47,"start":46.25,"duration":0.25,"velocity":53,"measure":24,"beat":1.5,"subject_pos":-1,"motif":"","motif_pos":-1,"best_pos":3,"similarity":0.614,"stretto":false,"stretto_voices":0,"combination":[],"aug_dim":"","rhythm_ratio":1.0,"mirror":false,"chromatic_density":0.167,"complexity":0.535,"dissonance":0.184},{"voice":3,"pitch":49,"start":46.5,"duration":0.5,"velocity":53,"measure":24,"beat":2.0,"subject_pos":-1,"motif":"","motif_pos":-1,"best_pos":6,"similarity":0.621,"stretto":false,"stretto_voices":0,"combination":[],"aug_dim":"","rhythm_ratio":1.0,"mirror":false,"chromatic_density":0.167,"complexity":0.535,"dissonance":0.184},{"voice":1,"pitch":65,"start":47.0,"duration":1.0,"velocity":68,"measure":24,"beat":3.0,"subject_pos":2,"motif":"subject","motif_pos":2,"best_pos":2,"similarity":1.0,"stretto":false,"stretto_voices":0,"combination":[],"aug_dim":"","rhythm_ratio":0.98,"mirror":false,"chromatic_density":0.167,"complexity":0.535,"dissonance":0.184},{"voice":3,"pitch":50,"start":47.0,"duration":0.75,"velocity":53,"measure":24,"beat":3.0,"subject_pos":-1,"motif":"","motif_pos":-1,"best_pos":1,"similarity":0.457,"stretto":false,"stretto_voices":0,"combination":[],"aug_dim":"","rhythm_ratio":1.0,"mirror":false,"chromatic_density":0.167,"complexity":0.535,"dissonance":0.184},{"voice":0,"pitch":62,"start":47.25,"duration":0.4115,"velocity":76,"measure":24,"beat":3.5,"subject_pos":-1,"motif":"","motif_pos":-1,"best_pos":0,"similarity":0.429,"stretto":false,"stretto_voices":0,"combination":[],"aug_dim":"","rhythm_ratio":1.0,"mirror":false,"chromatic_density":0.167,"complexity":0.535,"dissonance":0.184},{"voice":0,"pitch":69,"start":47.5,"duration":1.0,"velocity":76,"measure":24,"beat":4.0,"subject_pos":-1,"motif":"","motif_pos":-1,"best_pos":1,"similarity":0.607,"stretto":false,"stretto_voices":0,"combination":[],"aug_dim":"","rhythm_ratio":1.0,"mirror":false,"chromatic_density":0.167,"complexity":0.535,"dissonance":0.184},{"voice":3,"pitch":48,"start":47.75,"duration":0.25,"velocity":53,"measure":24,"beat":4.5,"subject_pos":-1,"motif":"","motif_pos":-1,"best_pos":2,"similarity":0.593,"stretto":false,"stretto_voices":0,"combination":[],"aug_dim":"","rhythm_ratio":1.0,"mirror":false,"chromatic_density":0.167,"complexity":0.535,"dissonance":0.184},{"voice":1,"pitch":62,"start":48.0,"duration":1.0,"velocity":68,"measure":25,"beat":1.0,"subject_pos":3,"motif":"subject","motif_pos":3,"best_pos":3,"similarity":1.0,"stretto":false,"stretto_voices":0,"combination":[],"aug_dim":"","rhythm_ratio":0.98,"mirror":false,"chromatic_density":0.333,"complexity":0.573,"dissonance":0.06},{"voice":2,"pitch":58,"start":48.0,"duration":1.0,"velocity":59,"measure":25,"beat":1.0,"subject_pos":-1,"motif":"","motif_pos":-1,"best_pos":7,"similarity":0.357,"stretto":false,"stretto_voices":0,"combination":[],"aug_dim":"","rhythm_ratio":1.0,"mirror":false,"chromatic_density":0.333,"complexity":0.573,"dissonance":0.06},{"voice":3,"pitch":46,"start":48.0,"duration":1.0,"velocity":53,"measure":25,"beat":1.0,"subject_pos":-1,"motif":"","motif_pos":-1,"best_pos":3,"similarity":0.6,"stretto":false,"stretto_voices":0,"combination":[],"aug_dim":"","rhythm_ratio":1.0,"mirror":false,"chromatic_density":0.333,"complexity":0.573,"dissonance":0.06},{"voice":0,"pitch":67,"start":48.5,"duration":0.5,"velocity":76,"measure":25,"beat":2.0,"subject_pos":-1,"motif":"","motif_pos":-1,"best_pos":2,"similarity":0.5,"stretto":false,"stretto_voices":0,"combination":[],"aug_dim":"","rhythm_ratio":1.0,"mirror":false,"chromatic_density":0.333,"complexity":0.573,"dissonance":0.06},{"voice":0,"pitch":69,"start":49.0,"duration":1.0,"velocity":76,"measure":25,"beat":3.0,"subject_pos":-1,"motif":"","motif_pos":-1,"best_pos":6,"similarity":0.443,"stretto":false,"stretto_voices":0,"combination":[],"aug_dim":"","rhythm_ratio":1.0,"mirror":false,"chromatic_density":0.333,"complexity":0.573,"dissonance":0.06},{"voice":1,"pitch":61,"start":49.0,"duration":1.0,"velocity":68,"measure":25,"beat":3.0,"subject_pos":4,"motif":"subject","motif_pos":4,"best_pos":4,"similarity":1.0,"stretto":false,"stretto_voices":0,"combination":[],"aug_dim":"","rhythm_ratio":0.98,"mirror":false,"chromatic_density":0.333,"complexity":0.573,"dissonance":0.06},{"voice":3,"pitch":45,"start":49.0,"duration":0.75,"velocity":53,"measure":25,"beat":3.0,"subject_pos":-1,"motif":"","motif_pos":-1,"best_pos":4,"similarity":0.507,"stretto":false,"stretto_voices":0,"combination":[],"aug_dim":"","rhythm_ratio":1.0,"mirror":false,"chromatic_density":0.333,"complexity":0.573,"dissonance":0.06},{"voice":2,"pitch":52,"start":49.25,"duration":0.25,"velocity":59,"measure":25,"beat":3.5,"subject_pos":-1,"motif":"","motif_pos":-1,"best_pos":0,"similarity":0.318,"stretto":false,"stretto_voices":0,"combination":[],"aug_dim":"","rhythm_ratio":1.0,"mirror":false,"chromatic_density":0.333,"complexity":0.573,"dissonance":0.06},{"voice":2,"pitch":57,"start":49.5,"duration":0.6927,"velocity":59,"measure":25,"beat":4.0,"subject_pos":-1,"motif":"","motif_pos":-1,"best_pos":1,"similarity":0.386,"stretto":false,"stretto_voices":0,"combination":[],"aug_dim":"","rhythm_ratio":1.0,"mirror":false,"chromatic_density":0.333,"complexity":0.573,"dissonance":0.06},{"voice":3,"pitch":43,"start":49.75,"duration":0.25,"velocity":53,"measure":25,"beat":4.5,"subject_pos":-1,"motif":"","motif_pos":-1,"best_pos":2,"similarity":0.45,"stretto":false,"stretto_voices":0,"combination":[],"aug_dim":"","rhythm_ratio":1.0,"mirror":false,"chromatic_density":0.333,"complexity":0.573,"dissonance":0.06},{"voice":1,"pitch":62,"start":50.0,"duration":0.5,"velocity":68,"measure":26,"beat":1.0,"subject_pos":5,"motif":"subject","motif_pos":5,"best_pos":5,"similarity":1.0,"stretto":false,"stretto_voices":0,"combination":[],"aug_dim":"","rhythm_ratio":0.98,"mirror":false,"chromatic_density":0.308,"complexity":0.474,"dissonance":0.164},{"voice":3,"pitch":41,"start":50.0,"duration":0.25,"velocity":53,"measure":26,"beat":1.0,"subject_pos":-1,"motif":"","motif_pos":-1,"best_pos":4,"similarity":0.425,"stretto":false,"stretto_voices":0,"combination":[],"aug_dim":"","rhythm_ratio":1.0,"mirror":false,"chromatic_density":0.308,"complexity":0.474,"dissonance":0.164},{"voice":2,"pitch":58,"start":50.25,"duration":0.25,"velocity":59,"measure":26,"beat":1.5,"subject_pos":-1,"motif":"","motif_pos":-1,"best_pos":3,"similarity":0.4,"stretto":false,"stretto_voices":0,"combination":[],"aug_dim":"","rhythm_ratio":1.0,"mirror":false,"chromatic_density":0.308,"complexity":0.474,"dissonance":0.164},{"voice":3,"pitch":43,"start":50.25,"duration":0.25,"velocity":53,"measure":26,"beat":1.5,"subject_pos":-1,"motif":"","motif_pos":-1,"best_pos":1,"similarity":0.386,"stretto":false,"stretto_voices":0,"combination":[],"aug_dim":"","rhythm_ratio":1.0,"mirror":false,"chromatic_density":0.308,"complexity":0.474,"dissonance":0.164},{"voice":1,"pitch":64,"start":50.5,"duration":0.5,"velocity":68,"measure":26,"beat":2.0,"subject_pos":6,"motif":"subject","motif_pos":6,"best_pos":6,"similarity":1.0,"stretto":false,"stretto_voices":0,"combination":[],"aug_dim":"","rhythm_ratio":0.98,"mirror":false,"chromatic_density":0.308,"complexity":0.474,"dissonance":0.164},{"voice":2,"pitch":57,"start":50.5,"duration":0.25,"velocity":59,"measure":26,"beat":2.0,"subject_pos":-1,"motif":"","motif_pos":-1,"best_pos":4,"similarity":0.507,"stretto":false,"stretto_voices":0,"combination":[],"aug_dim":"","rhythm_ratio":1.0,"mirror":false,"chromatic_density":0.308,"complexity":0.474,"dissonance":0.164},{"voice":3,"pitch":41,"start":50.5,"duration":0.25,"velocity":53,"measure":26,"beat":2.0,"subject_pos":-1,"motif":"","motif_pos":-1,"best_pos":3,"similarity":0.493,"stretto":false,"stretto_voices":0,"combination":[],"aug_dim":"","rhythm_ratio":1.0,"mirror":false,"chromatic_density":0.308,"complexity":0.474,"dissonance":0.164},{"voice":2,"pitch":55,"start":50.75,"duration":0.25,"velocity":59,"measure":26,"beat":2.5,"subject_pos":-1,"motif":"","motif_pos":-1,"best_pos":4,"similarity":0.543,"stretto":false,"stretto_voices":0,"combination":[],"aug_dim":"","rhythm_ratio":1.0,"mirror":false,"chromatic_density":0.308,"complexity":0.474,"dissonance":0.164},{"voice":3,"pitch":40,"start":50.75,"duration":0.25,"velocity":53,"measure":26,"beat":2.5,"subject_pos":-1,"motif":"","motif_pos":-1,"best_pos":4,"similarity":0.482,"stretto":false,"stretto_voices":0,"combination":[],"aug_dim":"","rhythm_ratio":1.0,"mirror":false,"chromatic_density":0.308,"complexity":0.474,"dissonance":0.164},{"voice":1,"pitch":65,"start":51.0,"duration":1.25,"velocity":68,"measure":26,"beat":3.0,"subject_pos":7,"motif":"subject","motif_pos":7,"best_pos":7,"similarity":1.0,"stretto":false,"stretto_voices":0,"combination":[],"aug_dim":"","rhythm_ratio":0.98,"mirror":false,"chromatic_density":0.308,"complexity":0.474,"dissonance":0.164},{"voice":2,"pitch":57,"start":51.0,"duration":0.5,"velocity":59,"measure":26,"beat":3.0,"subject_pos":-1,"motif":"","motif_pos":-1,"best_pos":5,"similarity":0.661,"stretto":false,"stretto_voices":0,"combination":[],"aug_dim":"","rhythm_ratio":1.0,"mirror":false,"chromatic_density":0.308,"complexity":0.474,"dissonance":0.164},{"voice":3,"pitch":38,"start":51.0,"duration":0.25,"velocity":53,"measure":26,"beat":3.0,"subject_pos":-1,"motif":"","motif_pos":-1,"best_pos":2,"similarity":0.436,"stretto":false,"stretto_voices":0,"combination":[],"aug_dim":"","rhythm_ratio":1.0,"mirror":false,"chromatic_density":0.308,"complexity":0.474,"dissonance":0.164},{"voice":3,"pitch":41,"start":51.25,"duration":0.25,"velocity":53,"measure":26,"beat":3.5,"subject_pos":-1,"motif":"","motif_pos":-1,"best_pos":3,"similarity":0.443,"stretto":false,"stretto_voices":0,"combination":[],"aug_dim":"","rhythm_ratio":1.0,"mirror":false,"chromatic_density":0.308,"complexity":0.474,"dissonance":0.164},{"voice":2,"pitch":59,"start":51.5,"duration":0.5,"velocity":59,"measure":26,"beat":4.0,"subject_pos":-1,"motif":"","motif_pos":-1,"best_pos":6,"similarity":0.679,"stretto":false,"stretto_voices":0,"combination":[],"aug_dim":"","rhythm_ratio":1.0,"mirror":false,"chromatic_density":0.308,"complexity":0.474,"dissonance":0.164},{"voice":3,"pitch":40,"start":51.5,"duration":0.25,"velocity":53,"measure":26,"beat":4.0,"subject_pos":-1,"motif":"","motif_pos":-1,"best_pos":4,"similarity":0.386,"stretto":false,"stretto_voices":0,"combination":[],"aug_dim":"","rhythm_ratio":1.0,"mirror":false,"chromatic_density":0.308,"complexity":0.474,"dissonance":0.164},{"voice":3,"pitch":38,"start":51.75,"duration":0.25,"velocity":53,"measure":26,"beat":4.5,"subject_pos":-1,"motif":"","motif_pos":-1,"best_pos":0,"similarity":0.429,"stretto":false,"stretto_voices":0,"combination":[],"aug_dim":"","rhythm_ratio":1.0,"mirror":false,"chromatic_density":0.308,"complexity":0.474,"dissonance":0.164},{"voice":2,"pitch":60,"start":52.0,"duration":1.1927,"velocity":59,"measure":27,"beat":1.0,"subject_pos":-1,"motif":"","motif_pos":-1,"best_pos":7,"similarity":0.464,"stretto":false,"stretto_voices":0,"combination":[],"aug_dim":"","rhythm_ratio":1.0,"mirror":false,"chromatic_density":0.222,"complexity":0.515,"dissonance":0.159},{"voice":3,"pitch":45,"start":52.0,"duration":0.75,"velocity":53,"measure":27,"beat":1.0,"subject_pos":-1,"motif":"","motif_pos":-1,"best_pos":1,"similarity":0.589,"stretto":false,"stretto_voices":0,"combination":[],"aug_dim":"","rhythm_ratio":1.0,"mirror":false,"chromatic_density":0.222,"complexity":0.515,"dissonance":0.159},{"voice":1,"pitch":67,"start":52.25,"duration":0.25,"velocity":68,"measure":27,"beat":1.5,"subject_pos":-1,"motif":"","motif_pos":-1,"best_pos":6,"similarity":0.464,"stretto":false,"stretto_voices":0,"combination":[],"aug_dim":"","rhythm_ratio":1.0,"mirror":false,"chromatic_density":0.222,"complexity":0.515,"dissonance":0.159},{"voice":1,"pitch":65,"start":52.5,"duration":0.25,"velocity":68,"measure":27,"beat":2.0,"subject_pos":-1,"motif":"","motif_pos":-1,"best_pos":3,"similarity":0.471,"stretto":false,"stretto_voices":0,"combination":[],"aug_dim":"","rhythm_ratio":1.0,"mirror":false,"chromatic_density":0.222,"complexity":0.515,"dissonance":0.159},{"voice":1,"pitch":64,"start":52.75,"duration":0.25,"velocity":68,"measure":27,"beat":2.5,"subject_pos":-1,"motif":"","motif_pos":-1,"best_pos":4,"similarity":0.414,"stretto":false,"stretto_voices":0,"combination":[],"aug_dim":"","rhythm_ratio":1.0,"mirror":false,"chromatic_density":0.222,"complexity":0.515,"dissonance":0.159},{"voice":3,"pitch":41,"start":52.75,"duration":0.25,"velocity":53,"measure":27,"beat":2.5,"subject_pos":-1,"motif":"","motif_pos":-1,"best_pos":2,"similarity":0.464,"stretto":false,"stretto_voices":0,"combination":[],"aug_dim":"","rhythm_ratio":1.0,"mirror":false,"chromatic_density":0.222,"complexity":0.515,"dissonance":0.159},{"voice":1,"pitch":62,"start":53.0,"duration":0.5,"velocity":68,"measure":27,"beat":3.0,"subject_pos":-1,"motif":"","motif_pos":-1,"best_pos":2,"similarity":0.393,"stretto":false,"stretto_voices":0,"combination":[],"aug_dim":"","rhythm_ratio":1.0,"mirror":false,"chromatic_density":0.222,"complexity":0.515,"dissonance":0.159},{"voice":3,"pitch":46,"start":53.0,"duration":0.75,"velocity":53,"measure":27,"beat":3.0,"subject_pos":-1,"motif":"","motif_pos":-1,"best_pos":1,"similarity":0.436,"stretto":false,"stretto_voices":0,"combination":[],"aug_dim":"","rhythm_ratio":1.0,"mirror":false,"chromatic_density":0.222,"complexity":0.515,"dissonance":0.159},{"voice":2,"pitch":57,"start":53.25,"duration":0.25,"velocity":59,"measure":27,"beat":3.5,"subject_pos":-1,"motif":"","motif_pos":-1,"best_pos":6,"similarity":0.436,"stretto":false,"stretto_voices":0,"combination":[],"aug_dim":"","rhythm_ratio":1.0,"mirror":false,"chromatic_density":0.222,"complexity":0.515,"dissonance":0.159},{"voice":1,"pitch":67,"start":53.5,"duration":0.6927,"velocity":68,"measure":27,"beat":4.0,"subject_pos":-1,"motif":"","motif_pos":-1,"best_pos":1,"similarity":0.514,"stretto":false,"stretto_voices":0,"combination":[],"aug_dim":"","rhythm_ratio":1.0,"mirror":false,"chromatic_density":0.222,"complexity":0.515,"dissonance":0.159},{"voice":2,"pitch":58,"start":53.5,"duration":0.5,"velocity":59,"measure":27,"beat":4.0,"subject_pos":-1,"motif":"enigmatic_cell","motif_pos":0,"best_pos":0,"similarity":1.0,"stretto":false,"stretto_voices":0,"combination":[],"aug_dim":"","rhythm_ratio":1.0,"mirror":false,"chromatic_density":0.222,"complexity":0.515,"dissonance":0.159},{"voice":3,"pitch":43,"start":53.75,"duration":0.25,"velocity":53,"measure":27,"beat":4.5,"subject_pos":-1,"motif":"","motif_pos":-1,"best_pos":3,"similarity":0.339,"stretto":false,"stretto_voices":0,"combination":[],"aug_dim":"","rhythm_ratio":1.0,"mirror":false,"chromatic_density":0.222,"complexity":0.515,"dissonance":0.159},{"voice":2,"pitch":57,"start":54.0,"duration":0.5,"velocity":59,"measure":28,"beat":1.0,"subject_pos":-1,"motif":"enigmatic_cell","motif_pos":1,"best_pos":1,"similarity":1.0,"stretto":false,"stretto_voices":0,"combination":[],"aug_dim":"","rhythm_ratio":1.0,"mirror":false,"chromatic_density":0.333,"complexity":0.595,"dissonance":0.068},{"voice":3,"pitch":50,"start":54.0,"duration":0.75,"velocity":53,"measure":28,"beat":1.0,"subject_pos":-1,"motif":"","motif_pos":-1,"best_pos":1,"similarity":0.286,"stretto":false,"stretto_voices":0,"combination":[],"aug_dim":"","rhythm_ratio":1.0,"mirror":false,"chromatic_density":0.333,"complexity":0.595,"dissonance":0.068},{"voice":1,"pitch":64,"start":54.25,"duration":0.25,"velocity":68,"measure":28,"beat":1.5,"subject_pos":-1,"motif":"","motif_pos":-1,"best_pos":2,"similarity":0.464,"stretto":false,"stretto_voices":0,"combination":[],"aug_dim":"","rhythm_ratio":1.0,"mirror":false,"chromatic_density":0.333,"complexity":0.595,"dissonance":0.068},{"voice":1,"pitch":65,"start":54.5,"duration":0.5,"velocity":68,"measure":28,"beat":2.0,"subject_pos":-1,"motif":"enigmatic_cell","motif_pos":0,"best_pos":0,"similarity":1.0,"stretto":false,"stretto_voices":0,"combination":[],"aug_dim":"","rhythm_ratio":1.0,"mirror":false,"chromatic_density":0.333,"complexity":0.595,"dissonance":0.068},{"voice":2,"pitch":62,"start":54.5,"duration":0.6927,"velocity":59,"measure":28,"beat":2.0,"subject_pos":-1,"motif":"enigmatic_cell","motif_pos":2,"best_pos":2,"similarity":1.0,"stretto":false,"stretto_voices":0,"combination":[],"aug_dim":"","rhythm_ratio":1.0,"mirror":false,"chromatic_density":0.333,"complexity":0.595,"dissonance":0.068},{"voice":3,"pitch":53,"start":54.75,"duration":0.25,"velocity":53,"measure":28,"beat":2.5,"subject_pos":-1,"motif":"","motif_pos":-1,"best_pos":5,"similarity":0.214,"stretto":false,"stretto_voices":0,"combination":[],"aug_dim":"","rhythm_ratio":1.0,"mirror":false,"chromatic_density":0.333,"complexity":0.595,"dissonance":0.068},{"voice":1,"pitch":64,"start":55.0,"duration":0.5,"velocity":68,"measure":28,"beat":3.0,"subject_pos":-1,"motif":"enigmatic_cell","motif_pos":1,"best_pos":1,"similarity":1.0,"stretto":false,"stretto_voices":0,"combination":[],"aug_dim":"","rhythm_ratio":1.0,"mirror":false,"chromatic_density":0.333,"complexity":0.595,"dissonance":0.068},{"voice":3,"pitch":57,"start":55.0,"duration":0.75,"velocity":53,"measure":28,"beat":3.0,"subject_pos":-1,"motif":"","motif_pos":-1,"best_pos":1,"similarity":0.179,"stretto":false,"stretto_voices":0,"combination":[],"aug_dim":"","rhythm_ratio":1.0,"mirror":false,"chromatic_density":0.333,"complexity":0.595,"dissonance":0.068},{"voice":2,"pitch":59,"start":55.25,"duration":0.25,"velocity":59,"measure":28,"beat":3.5,"subject_pos":-1,"motif":"","motif_pos":-1,"best_pos":2,"similarity":0.464,"stretto":false,"stretto_voices":0,"combination":[],"aug_dim":"","rhythm_ratio":1.0,"mirror":false,"chromatic_density":0.333,"complexity":0.595,"dissonance":0.068},{"voice":1,"pitch":69,"start":55.5,"duration":0.6927,"velocity":68,"measure":28,"beat":4.0,"subject_pos":-1,"motif":"enigmatic_cell","motif_pos":2,"best_pos":2,"similarity":1.0,"stretto":false,"stretto_voices":0,"combination":[],"aug_dim":"","rhythm_ratio":1.0,"mirror":false,"chromatic_density":0.333,"complexity":0.595,"dissonance":0.068},{"voice":2,"pitch":60,"start":55.5,"duration":0.5,"velocity":59,"measure":28,"beat":4.0,"subject_pos":-1,"motif":"enigmatic_cell","motif_pos":0,"best_pos":0,"similarity":1.0,"stretto":false,"stretto_voices":0,"combination":[],"aug_dim":"","rhythm_ratio":1.0,"mirror":false,"chromatic_density":0.333,"complexity":0.595,"dissonance":0.068},{"voice":3,"pitch":45,"start":55.75,"duration":0.25,"velocity":53,"measure":28,"beat":4.5,"subject_pos":-1,"motif":"","motif_pos":-1,"best_pos":0,"similarity":0.321,"stretto":false,"stretto_voices":0,"combination":[],"aug_dim":"","rhythm_ratio":1.0,"mirror":false,"chromatic_density":0.333,"complexity":0.595,"dissonance":0.068},{"voice":2,"pitch":59,"start":56.0,"duration":0.5,"velocity":59,"measure":29,"beat":1.0,"subject_pos":-1,"motif":"enigmatic_cell","motif_pos":1,"best_pos":1,"similarity":1.0,"stretto":false,"stretto_voices":0,"combination":[],"aug_dim":"","rhythm_ratio":1.0,"mirror":false,"chromatic_density":0.333,"complexity":0.598,"dissonance":0.059},{"voice":3,"pitch":52,"start":56.0,"duration":0.5,"velocity":53,"measure":29,"beat":1.0,"subject_pos":-1,"motif":"","motif_pos":-1,"best_pos":1,"similarity":0.364,"stretto":false,"stretto_voices":0,"combination":[],"aug_dim":"","rhythm_ratio":1.0,"mirror":false,"chromatic_density":0.333,"complexity":0.598,"dissonance":0.059},{"voice":1,"pitch":66,"start":56.25,"duration":0.25,"velocity":68,"measure":29,"beat":1.5,"subject_pos":-1,"motif":"","motif_pos":-1,"best_pos":2,"similarity":0.457,"stretto":false,"stretto_voices":0,"combination":[],"aug_dim":"","rhythm_ratio":1.0,"mirror":false,"chromatic_density":0.333,"complexity":0.598,"dissonance":0.059},{"voice":1,"pitch":67,"start":56.5,"duration":0.5,"velocity":68,"measure":29,"beat":2.0,"subject_pos":-1,"motif":"","motif_pos":-1,"best_pos":3,"similarity":0.457,"stretto":false,"stretto_voices":0,"combination":[],"aug_dim":"","rhythm_ratio":1.0,"mirror":false,"chromatic_density":0.333,"complexity":0.598,"dissonance":0.059},{"voice":2,"pitch":64,"start":56.5,"duration":0.6927,"velocity":59,"measure":29,"beat":2.0,"subject_pos":-1,"motif":"enigmatic_cell","motif_pos":2,"best_pos":2,"similarity":1.0,"stretto":false,"stretto_voices":0,"combination":[],"aug_dim":"","rhythm_ratio":1.0,"mirror":false,"chromatic_density":0.333,"complexity":0.598,"dissonance":0.059},{"voice":0,"pitch":69,"start":57.0,"duration":1.0,"velocity":76,"measure":29,"beat":3.0,"subject_pos":0,"motif":"subject","motif_pos":0,"best_pos":0,"similarity":1.0,"stretto":false,"stretto_voices":0,"combination":[],"aug_dim":"","rhythm_ratio":1.0,"mirror":false,"chromatic_density":0.333,"complexity":0.598,"dissonance":0.059},{"voice":1,"pitch":66,"start":57.0,"duration":0.75,"velocity":68,"measure":29,"beat":3.0,"subject_pos":-1,"motif":"","motif_pos":-1,"best_pos":4,"similarity":0.407,"stretto":false,"stretto_voices":0,"combination":[],"aug_dim":"","rhythm_ratio":1.0,"mirror":false,"chromatic_density":0.333,"complexity":0.598,"dissonance":0.059},{"voice":2,"pitch":57,"start":57.25,"duration":0.25,"velocity":59,"measure":29,"beat":3.5,"subject_pos":-1,"motif":"","motif_pos":-1,"best_pos":0,"similarity":0.357,"stretto":false,"stretto_voices":0,"combination":[],"aug_dim":"","rhythm_ratio":1.0,"mirror":false,"chromatic_density":0.333,"complexity":0.598,"dissonance":0.059},{"voice":2,"pitch":62,"start":57.5,"duration":0.6927,"velocity":59,"measure":29,"beat":4.0,"subject_pos":-1,"motif":"","motif_pos":-1,"best_pos":1,"similarity":0.5,"stretto":false,"stretto_voices":0,"combination":[],"aug_dim":"","rhythm_ratio":1.0,"mirror":false,"chromatic_density":0.333,"complexity":0.598,"dissonance":0.059},{"voice":1,"pitch":74,"start":57.75,"duration":0.25,"velocity":68,"measure":29,"beat":4.5,"subject_pos":-1,"motif":"","motif_pos":-1,"best_pos":5,"similarity":0.293,"stretto":false,"stretto_voices":0,"combination":[],"aug_dim":"","rhythm_ratio":1.0,"mirror":false,"chromatic_density":0.333,"complexity":0.598,"dissonance":0.059},{"voice":0,"pitch":76,"start":58.0,"duration":1.0,"velocity":76,"measure":30,"beat":1.0,"subject_pos":1,"motif":"subject","motif_pos":1,"best_pos":1,"similarity":1.0,"stretto":false,"stretto_voices":0,"combination":[],"aug_dim":"","rhythm_ratio":1.0,"mirror":false,"chromatic_density":0.333,"complexity":0.577,"dissonance":0.055},{"voice":1,"pitch":68,"start":58.0,"duration":1.0,"velocity":68,"measure":30,"beat":1.0,"subject_pos":-1,"motif":"","motif_pos":-1,"best_pos":6,"similarity":0.357,"stretto":false,"stretto_voices":0,"combination":[],"aug_dim":"","rhythm_ratio":1.0,"mirror":false,"chromatic_density":0.333,"complexity":0.577,"dissonance":0.055},{"voice":3,"pitch":52,"start":58.0,"duration":1.0,"velocity":53,"measure":30,"beat":1.0,"subject_pos":-1,"motif":"","motif_pos":-1,"best_pos":0,"similarity":0.436,"stretto":false,"stretto_voices":0,"combination":[],"aug_dim":"","rhythm_ratio":1.0,"mirror":false,"chromatic_density":0.333,"complexity":0.577,"dissonance":0.055},{"voice":2,"pitch":62,"start":58.25,"duration":0.25,"velocity":59,"measure":30,"beat":1.5,"subject_pos":-1,"motif":"","motif_pos":-1,"best_pos":2,"similarity":0.571,"stretto":false,"stretto_voices":0,"combination":[],"aug_dim":"","rhythm_ratio":1.0,"mirror":false,"chromatic_density":0.333,"complexity":0.577,"dissonance":0.055},{"voice":2,"pitch":60,"start":58.5,"duration":0.25,"velocity":59,"measure":30,"beat":2.0,"subject_pos":-1,"motif":"","motif_pos":-1,"best_pos":3,"similarity":0.75,"stretto":false,"stretto_voices":0,"combination":[],"aug_dim":"","rhythm_ratio":1.0,"mirror":false,"chromatic_density":0.333,"complexity":0.577,"dissonance":0.055},{"voice":2,"pitch":59,"start":58.75,"duration":0.25,"velocity":59,"measure":30,"beat":2.5,"subject_pos":-1,"motif":"","motif_pos":-1,"best_pos":4,"similarity":0.839,"stretto":false,"stretto_voices":0,"combination":[],"aug_dim":"","rhythm_ratio":1.0,"mirror":false,"chromatic_density":0.333,"complexity":0.577,"dissonance":0.055},{"voice":0,"pitch":72,"start":59.0,"duration":1.0,"velocity":76,"measure":30,"beat":3.0,"subject_pos":2,"motif":"subject","motif_pos":2,"best_pos":2,"similarity":1.0,"stretto":false,"stretto_voices":0,"combination":[],"aug_dim":"","rhythm_ratio":1.0,"mirror":false,"chromatic_density":0.333,"complexity":0.577,"dissonance":0.055},{"voice":1,"pitch":69,"start":59.0,"duration":0.5,"velocity":68,"measure":30,"beat":3.0,"subject_pos":-1,"motif":"","motif_pos":-1,"best_pos":5,"similarity":0.321,"stretto":false,"stretto_voices":0,"combination":[],"aug_dim":"","rhythm_ratio":1.0,"mirror":false,"chromatic_density":0.333,"complexity":0.577,"dissonance":0.055},{"voice":2,"pitch":60,"start":59.0,"duration":0.25,"velocity":59,"measure":30,"beat":3.0,"subject_pos":-1,"motif":"","motif_pos":-1,"best_pos":5,"similarity":0.821,"stretto":false,"stretto_voices":0,"combination":[],"aug_dim":"","rhythm_ratio":1.0,"mirror":false,"chromatic_density":0.333,"complexity":0.577,"dissonance":0.055},{"voice":3,"pitch":57,"start":59.0,"duration":1.0,"velocity":53,"measure":30,"beat":3.0,"subject_pos":-1,"motif":"","motif_pos":-1,"best_pos":1,"similarity":0.657,"stretto":false,"stretto_voices":0,"combination":[],"aug_dim":"","rhythm_ratio":1.0,"mirror":false,"chromatic_density":0.333,"complexity":0.577,"dissonance":0.055},{"voice":2,"pitch":62,"start":59.25,"duration":0.25,"velocity":59,"measure":30,"beat":3.5,"subject_pos":-1,"motif":"","motif_pos":-1,"best_pos":6,"similarity":0.643,"stretto":false,"stretto_voices":0,"combination":[],"aug_dim":"","rhythm_ratio":1.0,"mirror":false,"chromatic_density":0.333,"complexity":0.577,"dissonance":0.055},{"voice":2,"pitch":64,"start":59.5,"duration":0.6927,"velocity":59,"measure":30,"beat":4.0,"subject_pos":-1,"motif":"","motif_pos":-1,"best_pos":6,"similarity":0.518,"stretto":false,"stretto_voices":0,"combination":[],"aug_dim":"","rhythm_ratio":1.0,"mirror":false,"chromatic_density":0.333,"complexity":0.577,"dissonance":0.055},{"voice":1,"pitch":57,"start":59.75,"duration":0.25,"velocity":68,"measure":30,"beat":4.5,"subject_pos":-1,"motif":"","motif_pos":-1,"best_pos":6,"similarity":0.214,"stretto":false,"stretto_voices":0,"combination":[],"aug_dim":"","rhythm_ratio":1.0,"mirror":false,"chromatic_density":0.333,"complexity":0.577,"dissonance":0.055},{"voice":0,"pitch":69,"start":60.0,"duration":1.0,"velocity":76,"measure":31,"beat":1.0,"subject_pos":3,"motif":"subject","motif_pos":3,"best_pos":3,"similarity":1.0,"stretto":false,"stretto_voices":0,"combination":[],"aug_dim":"","rhythm_ratio":1.0,"mirror":false,"chromatic_density":0.333,"complexity":0.58,"dissonance":0.169},{"voice":1,"pitch":60,"start":60.0,"duration":0.5,"velocity":68,"measure":31,"beat":1.0,"subject_pos":-1,"motif":"","motif_pos":-1,"best_pos":2,"similarity":0.304,"stretto":false,"stretto_voices":0,"combination":[],"aug_dim":"","rhythm_ratio":1.0,"mirror":false,"chromatic_density":0.333,"complexity":0.58,"dissonance":0.169},{"voice":3,"pitch":53,"start":60.0,"duration":1.1927,"velocity":53,"measure":31,"beat":1.0,"subject_pos":-1,"motif":"","motif_pos":-1,"best_pos":2,"similarity":0.607,"stretto":false,"stretto_voices":0,"combination":[],"aug_dim":"","rhythm_ratio":1.0,"mirror":false,"chromatic_density":0.333,"complexity":0.58,"dissonance":0.169},{"voice":2,"pitch":64,"start":60.25,"duration":0.25,"velocity":59,"measure":31,"beat":1.5,"subject_pos":-1,"motif":"","motif_pos":-1,"best_pos":1,"similarity":0.429,"stretto":false,"stretto_voices":0,"combination":[],"aug_dim":"","rhythm_ratio":1.0,"mirror":false,"chromatic_density":0.333,"complexity":0.58,"dissonance":0.169},{"voice":1,"pitch":57,"start":60.5,"duration":0.5,"velocity":68,"measure":31,"beat":2.0,"subject_pos":-1,"motif":"","motif_pos":-1,"best_pos":3,"similarity":0.329,"stretto":false,"stretto_voices":0,"combination":[],"aug_dim":"","rhythm_ratio":1.0,"mirror":false,"chromatic_density":0.333,"complexity":0.58,"dissonance":0.169},{"voice":2,"pitch":62,"start":60.5,"duration":0.25,"velocity":59,"measure":31,"beat":2.0,"subject_pos":-1,"motif":"","motif_pos":-1,"best_pos":2,"similarity":0.643,"stretto":false,"stretto_voices":0,"combination":[],"aug_dim":"","rhythm_ratio":1.0,"mirror":false,"chromatic_density":0.333,"complexity":0.58,"dissonance":0.169},{"voice":2,"pitch":60,"start":60.75,"duration":0.25,"velocity":59,"measure":31,"beat":2.5,"subject_pos":-1,"motif":"","motif_pos":-1,"best_pos":3,"similarity":0.714,"stretto":false,"stretto_voices":0,"combination":[],"aug_dim":"","rhythm_ratio":1.0,"mirror":false,"chromatic_density":0.333,"complexity":0.58,"dissonance":0.169},{"voice":0,"pitch":68,"start":61.0,"duration":1.0,"velocity":76,"measure":31,"beat":3.0,"subject_pos":4,"motif":"subject","motif_pos":4,"best_pos":4,"similarity":1.0,"stretto":false,"stretto_voices":0,"combination":[],"aug_dim":"","rhythm_ratio":1.0,"mirror":false,"chromatic_density":0.333,"complexity":0.58,"dissonance":0.169},{"voice":1,"pitch":62,"start":61.0,"duration":0.5,"velocity":68,"measure":31,"beat":3.0,"subject_pos":-1,"motif":"","motif_pos":-1,"best_pos":1,"similarity":0.357,"stretto":false,"stretto_voices":0,"combination":[],"aug_dim":"","rhythm_ratio":1.0,"mirror":false,"chromatic_density":0.333,"complexity":0.58,"dissonance":0.169},{"voice":2,"pitch":59,"start":61.0,"duration":1.0,"velocity":59,"measure":31,"beat":3.0,"subject_pos":-1,"motif":"","motif_pos":-1,"best_pos":4,"similarity":0.786,"stretto":false,"stretto_voices":0,"combination":[],"aug_dim":"","rhythm_ratio":1.0,"mirror":false,"chromatic_density":0.333,"complexity":0.58,"dissonance":0.169},{"voice":3,"pitch":53,"start":61.25,"duration":0.25,"velocity":53,"measure":31,"beat":3.5,"subject_pos":-1,"motif":"","motif_pos":-1,"best_pos":3,"similarity":0.55,"stretto":false,"stretto_voices":0,"combination":[],"aug_dim":"","rhythm_ratio":1.0,"mirror":false,"chromatic_density":0.333,"complexity":0.58,"dissonance":0.169},{"voice":1,"pitch":65,"start":61.5,"duration":0.5,"velocity":68,"measure":31,"beat":4.0,"subject_pos":-1,"motif":"","motif_pos":-1,"best_pos":1,"similarity":0.321,"stretto":false,"stretto_voices":0,"combination":[],"aug_dim":"","rhythm_ratio":1.0,"mirror":false,"chromatic_density":0.333,"complexity":0.58,"dissonance":0.169},{"voice":3,"pitch":52,"start":61.5,"duration":0.25,"velocity":53,"measure":31,"beat":4.0,"subject_pos":-1,"motif":"","motif_pos":-1,"best_pos":4,"similarity":0.45,"stretto":false,"stretto_voices":0,"combination":[],"aug_dim":"","rhythm_ratio":1.0,"mirror":false,"chromatic_density":0.333,"complexity":0.58,"dissonance":0.169},{"voice":3,"pitch":50,"start":61.75,"duration":0.25,"velocity":53,"measure":31,"beat":4.5,"subject_pos":-1,"motif":"","motif_pos":-1,"best_pos":2,"similarity":0.45,"stretto":false,"stretto_voices":0,"combination":[],"aug_dim":"","rhythm_ratio":1.0,"mirror":false,"chromatic_density":0.333,"complexity":0.58,"dissonance":0.169},{"voice":0,"pitch":69,"start":62.0,"duration":0.5,"velocity":76,"measure":32,"beat":1.0,"subject_pos":5,"motif":"subject","motif_pos":5,"best_pos":5,"similarity":1.0,"stretto":false,"stretto_voices":0,"combination":[],"aug_dim":"","rhythm_ratio":1.0,"mirror":false,"chromatic_density":0.286,"complexity":0.615,"dissonance":0.096},{"voice":1,"pitch":64,"start":62.0,"duration":0.5,"velocity":68,"measure":32,"beat":1.0,"subject_pos":-1,"motif":"","motif_pos":-1,"best_pos":2,"similarity":0.393,"stretto":false,"stretto_voices":0,"combination":[],"aug_dim":"","rhythm_ratio":1.0,"mirror":false,"chromatic_density":0.286,"complexity":0.615,"dissonance":0.096},{"voice":2,"pitch":60,"start":62.0,"duration":0.5,"velocity":59,"measure":32,"beat":1.0,"subject_pos":-1,"motif":"","motif_pos":-1,"best_pos":5,"similarity":0.607,"stretto":false,"stretto_voices":0,"combination":[],"aug_dim":"","rhythm_ratio":1.0,"mirror":false,"chromatic_density":0.286,"complexity":0.615,"dissonance":0.096},{"voice":3,"pitch":48,"start":62.0,"duration":0.25,"velocity":53,"measure":32,"beat":1.0,"subject_pos":-1,"motif":"","motif_pos":-1,"best_pos":4,"similarity":0.425,"stretto":false,"stretto_voices":0,"combination":[],"aug_dim":"","rhythm_ratio":1.0,"mirror":false,"chromatic_density":0.286,"complexity":0.615,"dissonance":0.096},{"voice":3,"pitch":50,"start":62.25,"duration":0.25,"velocity":53,"measure":32,"beat":1.5,"subject_pos":-1,"motif":"","motif_pos":-1,"best_pos":1,"similarity":0.386,"stretto":false,"stretto_voices":0,"combination":[],"aug_dim":"","rhythm_ratio":1.0,"mirror":false,"chromatic_density":0.286,"complexity":0.615,"dissonance":0.096},{"voice":0,"pitch":71,"start":62.5,"duration":0.5,"velocity":76,"measure":32,"beat":2.0,"subject_pos":6,"motif":"subject","motif_pos":6,"best_pos":6,"similarity":1.0,"stretto":false,"stretto_voices":0,"combination":[],"aug_dim":"","rhythm_ratio":1.0,"mirror":false,"chromatic_density":0.286,"complexity":0.615,"dissonance":0.096},{"voice":1,"pitch":62,"start":62.5,"duration":0.5,"velocity":68,"measure":32,"beat":2.0,"subject_pos":-1,"motif":"","motif_pos":-1,"best_pos":2,"similarity":0.429,"stretto":false,"stretto_voices":0,"combination":[],"aug_dim":"","rhythm_ratio":1.0,"mirror":false,"chromatic_density":0.286,"complexity":0.615,"dissonance":0.096},{"voice":2,"pitch":56,"start":62.5,"duration":0.5,"velocity":59,"measure":32,"beat":2.0,"subject_pos":-1,"motif":"","motif_pos":-1,"best_pos":6,"similarity":0.5,"stretto":false,"stretto_voices":0,"combination":[],"aug_dim":"","rhythm_ratio":1.0,"mirror":false,"chromatic_density":0.286,"complexity":0.615,"dissonance":0.096},{"voice":3,"pitch":48,"start":62.5,"duration":0.25,"velocity":53,"measure":32,"beat":2.0,"subject_pos":-1,"motif":"","motif_pos":-1,"best_pos":3,"similarity":0.464,"stretto":false,"stretto_voices":0,"combination":[],"aug_dim":"","rhythm_ratio":1.0,"mirror":false,"chromatic_density":0.286,"complexity":0.615,"dissonance":0.096},{"voice":3,"pitch":47,"start":62.75,"duration":0.25,"velocity":53,"measure":32,"beat":2.5,"subject_pos":-1,"motif":"","motif_pos":-1,"best_pos":4,"similarity":0.425,"stretto":false,"stretto_voices":0,"combination":[],"aug_dim":"","rhythm_ratio":1.0,"mirror":false,"chromatic_density":0.286,"complexity":0.615,"dissonance":0.096},{"voice":0,"pitch":72,"start":63.0,"duration":1.4115,"velocity":76,"measure":32,"beat":3.0,"subject_pos":7,"motif":"subject","motif_pos":7,"best_pos":7,"similarity":1.0,"stretto":false,"stretto_voices":0,"combination":[],"aug_dim":"","rhythm_ratio":1.0,"mirror":false,"chromatic_density":0.286,"complexity":0.615,"dissonance":0.096},{"voice":1,"pitch":60,"start":63.0,"duration":0.4427,"velocity":68,"measure":32,"beat":3.0,"subject_pos":-1,"motif":"","motif_pos":-1,"best_pos":3,"similarity":0.357,"stretto":false,"stretto_voices":0,"combination":[],"aug_dim":"","rhythm_ratio":1.0,"mirror":false,"chromatic_density":0.286,"complexity":0.615,"dissonance":0.096},{"voice":2,"pitch":57,"start":63.0,"duration":0.25,"velocity":59,"measure":32,"beat":3.0,"subject_pos":-1,"motif":"","motif_pos":-1,"best_pos":1,"similarity":0.457,"stretto":false,"stretto_voices":0,"combination":[],"aug_dim":"","rhythm_ratio":1.0,"mirror":false,"chromatic_density":0.286,"complexity":0.615,"dissonance":0.096},{"voice":3,"pitch":45,"start":63.0,"duration":1.0,"velocity":53,"measure":32,"beat":3.0,"subject_pos":-1,"motif":"","motif_pos":-1,"best_pos":2,"similarity":0.429,"stretto":false,"stretto_voices":0,"combination":[],"aug_dim":"","rhythm_ratio":1.0,"mirror":false,"chromatic_density":0.286,"complexity":0.615,"dissonance":0.096},{"voice":2,"pitch":55,"start":63.25,"duration":0.25,"velocity":59,"measure":32,"beat":3.5,"subject_pos":-1,"motif":"","motif_pos":-1,"best_pos":2,"similarity":0.621,"stretto":false,"stretto_voices":0,"combination":[],"aug_dim":"","rhythm_ratio":1.0,"mirror":false,"chromatic_density":0.286,"complexity":0.615,"dissonance":0.096},{"voice":1,"pitch":69,"start":63.5,"duration":1.0,"velocity":68,"measure":32,"beat":4.0,"subject_pos":-1,"motif":"","motif_pos":-1,"best_pos":4,"similarity":0.293,"stretto":false,"stretto_voices":0,"combination":[],"aug_dim":"","rhythm_ratio":1.0,"mirror":false,"chromatic_density":0.286,"complexity":0.615,"dissonance":0.096},{"voice":2,"pitch":53,"start":63.5,"duration":0.25,"velocity":59,"measure":32,"beat":4.0,"subject_pos":-1,"motif":"","motif_pos":-1,"best_pos":3,"similarity":0.686,"stretto":false,"stretto_voices":0,"combination":[],"aug_dim":"","rhythm_ratio":1.0,"mirror":false,"chromatic_density":0.286,"complexity":0.615,"dissonance":0.096},{"voice":2,"pitch":52,"start":63.75,"duration":0.25,"velocity":59,"measure":32,"beat":4.5,"subject_pos":-1,"motif":"","motif_pos":-1,"best_pos":4,"similarity":0.679,"stretto":false,"stretto_voices":0,"combination":[],"aug_dim":"","rhythm_ratio":1.0,"mirror":false,"chromatic_density":0.286,"complexity":0.615,"dissonance":0.096},{"voice":2,"pitch":54,"start":64.0,"duration":0.5,"velocity":59,"measure":33,"beat":1.0,"subject_pos":-1,"motif":"","motif_pos":-1,"best_pos":6,"similarity":0.643,"stretto":false,"stretto_voices":0,"combination":[],"aug_dim":"","rhythm_ratio":1.0,"mirror":false,"chromatic_density":0.444,"complexity":0.591,"dissonance":0.115},{"voice":3,"pitch":50,"start":64.0,"duration":1.0,"velocity":53,"measure":33,"beat":1.0,"subject_pos":-1,"motif":"","motif_pos":-1,"best_pos":1,"similarity":0.518,"stretto":false,"stretto_voices":0,"combination":[],"aug_dim":"","rhythm_ratio":1.0,"mirror":false,"chromatic_density":0.444,"complexity":0.591,"dissonance":0.115},{"voice":0,"pitch":74,"start":64.25,"duration":0.4115,"velocity":76,"measure":33,"beat":1.5,"subject_pos":-1,"motif":"","motif_pos":-1,"best_pos":6,"similarity":0.464,"stretto":false,"stretto_voices":0,"combination":[],"aug_dim":"","rhythm_ratio":1.0,"mirror":false,"chromatic_density":0.444,"complexity":0.591,"dissonance":0.115},{"voice":0,"pitch":72,"start":64.5,"duration":0.4115,"velocity":76,"measure":33,"beat":2.0,"subject_pos":-1,"motif":"","motif_pos":-1,"best_pos":2,"similarity":0.621,"stretto":false,"stretto_voices":0,"combination":[],"aug_dim":"","rhythm_ratio":1.0,"mirror":false,"chromatic_density":0.444,"complexity":0.591,"dissonance":0.115},{"voice":1,"pitch":62,"start":64.5,"duration":0.5,"velocity":68,"measure":33,"beat":2.0,"subject_pos":-1,"motif":"","motif_pos":-1,"best_pos":5,"similarity":0.336,"stretto":false,"stretto_voices":0,"combination":[],"aug_dim":"","rhythm_ratio":1.0,"mirror":false,"chromatic_density":0.444,"complexity":0.591,"dissonance":0.115},{"voice":2,"pitch":55,"start":64.5,"duration":0.6927,"velocity":59,"measure":33,"beat":2.0,"subject_pos":-1,"motif":"","motif_pos":-1,"best_pos":7,"similarity":0.446,"stretto":false,"stretto_voices":0,"combination":[],"aug_dim":"","rhythm_ratio":1.0,"mirror":false,"chromatic_density":0.444,"complexity":0.591,"dissonance":0.115},{"voice":0,"pitch":70,"start":64.75,"duration":0.4115,"velocity":76,"measure":33,"beat":2.5,"subject_pos":-1,"motif":"","motif_pos":-1,"best_pos":3,"similarity":0.686,"stretto":false,"stretto_voices":0,"combination":[],"aug_dim":"","rhythm_ratio":1.0,"mirror":false,"chromatic_density":0.444,"complexity":0.591,"dissonance":0.115},{"voice":0,"pitch":69,"start":65.0,"duration":0.5,"velocity":76,"measure":33,"beat":3.0,"subject_pos":-1,"motif":"","motif_pos":-1,"best_pos":4,"similarity":0.65,"stretto":false,"stretto_voices":0,"combination":[],"aug_dim":"","rhythm_ratio":1.0,"mirror":false,"chromatic_density":0.444,"complexity":0.591,"dissonance":0.115},{"voice":1,"pitch":64,"start":65.0,"duration":0.4427,"velocity":68,"measure":33,"beat":3.0,"subject_pos":-1,"motif":"","motif_pos":-1,"best_pos":0,"similarity":0.464,"stretto":false,"stretto_voices":0,"combination":[],"aug_dim":"","rhythm_ratio":1.0,"mirror":false,"chromatic_density":0.444,"complexity":0.591,"dissonance":0.115},{"voice":3,"pitch":49,"start":65.0,"duration":1.0,"velocity":53,"measure":33,"beat":3.0,"subject_pos":-1,"motif":"","motif_pos":-1,"best_pos":2,"similarity":0.536,"stretto":false,"stretto_voices":0,"combination":[],"aug_dim":"","rhythm_ratio":1.0,"mirror":false,"chromatic_density":0.444,"complexity":0.591,"dissonance":0.115},{"voice":2,"pitch":55,"start":65.25,"duration":0.25,"velocity":59,"measure":33,"beat":3.5,"subject_pos":-1,"motif":"","motif_pos":-1,"best_pos":2,"similarity":0.443,"stretto":false,"stretto_voices":0,"combination":[],"aug_dim":"","rhythm_ratio":1.0,"mirror":false,"chromatic_density":0.444,"complexity":0.591,"dissonance":0.115},{"voice":1,"pitch":69,"start":65.5,"duration":0.75,"velocity":68,"measure":33,"beat":4.0,"subject_pos":-1,"motif":"","motif_pos":-1,"best_pos":1,"similarity":0.714,"stretto":false,"stretto_voices":0,"combination":[],"aug_dim":"","rhythm_ratio":1.0,"mirror":false,"chromatic_density":0.444,"complexity":0.591,"dissonance":0.115},{"voice":2,"pitch":53,"start":65.5,"duration":0.25,"velocity":59,"measure":33,"beat":4.0,"subject_pos":-1,"motif":"","motif_pos":-1,"best_pos":3,"similarity":0.621,"stretto":false,"stretto_voices":0,"combination":[],"aug_dim":"","rhythm_ratio":1.0,"mirror":false,"chromatic_density":0.444,"complexity":0.591,"dissonance":0.115},{"voice":2,"pitch":52,"start":65.75,"duration":0.25,"velocity":59,"measure":33,"beat":4.5,"subject_pos":-1,"motif":"tail_inv","motif_pos":0,"best_pos":0,"similarity":1.0,"stretto":false,"stretto_voices":0,"combination":[],"aug_dim":"","rhythm_ratio":1.0,"mirror":false,"chromatic_density":0.444,"complexity":0.591,"dissonance":0.115},{"voice":2,"pitch":53,"start":66.0,"duration":0.25,"velocity":59,"measure":34,"beat":1.0,"subject_pos":-1,"motif":"tail_inv","motif_pos":1,"best_pos":1,"similarity":1.0,"stretto":false,"stretto_voices":0,"combination":[],"aug_dim":"","rhythm_ratio":1.0,"mirror":false,"chromatic_density":0.455,"complexity":0.641,"dissonance":0.053},{"voice":3,"pitch":45,"start":66.0,"duration":1.0,"velocity":53,"measure":34,"beat":1.0,"subject_pos":-1,"motif":"","motif_pos":-1,"best_pos":2,"similarity":0.643,"stretto":false,"stretto_voices":0,"combination":[],"aug_dim":"","rhythm_ratio":1.0,"mirror":false,"chromatic_density":0.455,"complexity":0.641,"dissonance":0.053},{"voice":1,"pitch":67,"start":66.25,"duration":0.25,"velocity":68,"measure":34,"beat":1.5,"subject_pos":-1,"motif":"","motif_pos":-1,"best_pos":2,"similarity":0.721,"stretto":false,"stretto_voices":0,"combination":[],"aug_dim":"","rhythm_ratio":1.0,"mirror":false,"chromatic_density":0.455,"complexity":0.641,"dissonance":0.053},{"voice":2,"pitch":52,"start":66.25,"duration":0.25,"velocity":59,"measure":34,"beat":1.5,"subject_pos":-1,"motif":"tail_inv","motif_pos":2,"best_pos":2,"similarity":1.0,"stretto":false,"stretto_voices":0,"combination":[],"aug_dim":"","rhythm_ratio":1.0,"mirror":false,"chromatic_density":0.455,"complexity":0.641,"dissonance":0.053},{"voice":0,"pitch":69,"start":66.5,"duration":0.9115,"velocity":76,"measure":34,"beat":2.0,"subject_pos":-1,"motif":"","motif_pos":-1,"best_pos":5,"similarity":0.479,"stretto":false,"stretto_voices":0,"combination":[],"aug_dim":"","rhythm_ratio":1.0,"mirror":false,"chromatic_density":0.455,"complexity":0.641,"dissonance":0.053},{"voice":1,"pitch":65,"start":66.5,"duration":0.25,"velocity":68,"measure":34,"beat":2.0,"subject_pos":-1,"motif":"","motif_pos":-1,"best_pos":3,"similarity":0.675,"stretto":false,"stretto_voices":0,"combination":[],"aug_dim":"","rhythm_ratio":1.0,"mirror":false,"chromatic_density":0.455,"complexity":0.641,"dissonance":0.053},{"voice":2,"pitch":50,"start":66.5,"duration":0.25,"velocity":59,"measure":34,"beat":2.0,"subject_pos":-1,"motif":"tail_inv","motif_pos":3,"best_pos":3,"similarity":1.0,"stretto":false,"stretto_voices":0,"combination":[],"aug_dim":"","rhythm_ratio":1.0,"mirror":false,"chromatic_density":0.455,"complexity":0.641,"dissonance":0.053},{"voice":1,"pitch":64,"start":66.75,"duration":0.25,"velocity":68,"measure":34,"beat":2.5,"subject_pos":-1,"motif":"","motif_pos":-1,"best_pos":4,"similarity":0.5,"stretto":false,"stretto_voices":0,"combination":[],"aug_dim":"","rhythm_ratio":1.0,"mirror":false,"chromatic_density":0.455,"complexity":0.641,"dissonance":0.053},{"voice":2,"pitch":49,"start":66.75,"duration":0.25,"velocity":59,"measure":34,"beat":2.5,"subject_pos":-1,"motif":"tail_inv","motif_pos":4,"best_pos":4,"similarity":1.0,"stretto":false,"stretto_voices":0,"combination":[],"aug_dim":"","rhythm_ratio":1.0,"mirror":false,"chromatic_density":0.455,"complexity":0.641,"dissonance":0.053},{"voice":1,"pitch":62,"start":67.0,"duration":2.1927,"velocity":68,"measure":34,"beat":3.0,"subject_pos":-1,"motif":"","motif_pos":-1,"best_pos":4,"similarity":0.443,"stretto":false,"stretto_voices":0,"combination":[],"aug_dim":"","rhythm_ratio":1.0,"mirror":false,"chromatic_density":0.455,"complexity":0.641,"dissonance":0.053},{"voice":2,"pitch":50,"start":67.0,"duration":0.5,"velocity":59,"measure":34,"beat":3.0,"subject_pos":-1,"motif":"","motif_pos":-1,"best_pos":5,"similarity":0.764,"stretto":false,"stretto_voices":0,"combination":[],"aug_dim":"","rhythm_ratio":1.0,"mirror":false,"chromatic_density":0.455,"complexity":0.641,"dissonance":0.053},{"voice":3,"pitch":42,"start":67.0,"duration":1.0,"velocity":53,"measure":34,"beat":3.0,"subject_pos":-1,"motif":"","motif_pos":-1,"best_pos":4,"similarity":0.679,"stretto":false,"stretto_voices":0,"combination":[],"aug_dim":"","rhythm_ratio":1.0,"mirror":false,"chromatic_density":0.455,"complexity":0.641,"dissonance":0.053},{"voice":0,"pitch":72,"start":67.25,"duration":0.4115,"velocity":76,"measure":34,"beat":3.5,"subject_pos":-1,"motif":"","motif_pos":-1,"best_pos":1,"similarity":0.411,"stretto":false,"stretto_voices":0,"combination":[],"aug_dim":"","rhythm_ratio":1.0,"mirror":false,"chromatic_density":0.455,"complexity":0.641,"dissonance":0.053},{"voice":0,"pitch":70,"start":67.5,"duration":0.4115,"velocity":76,"measure":34,"beat":4.0,"subject_pos":-1,"motif":"","motif_pos":-1,"best_pos":3,"similarity":0.579,"stretto":false,"stretto_voices":0,"combination":[],"aug_dim":"","rhythm_ratio":1.0,"mirror":false,"chromatic_density":0.455,"complexity":0.641,"dissonance":0.053},{"voice":0,"pitch":69,"start":67.75,"duration":0.4115,"velocity":76,"measure":34,"beat":4.5,"subject_pos":-1,"motif":"tail_inv","motif_pos":0,"best_pos":0,"similarity":1.0,"stretto":false,"stretto_voices":0,"combination":[],"aug_dim":"","rhythm_ratio":1.0,"mirror":false,"chromatic_density":0.455,"complexity":0.641,"dissonance":0.053},{"voice":0,"pitch":70,"start":68.0,"duration":0.4115,"velocity":76,"measure":35,"beat":1.0,"subject_pos":-1,"motif":"tail_inv","motif_pos":1,"best_pos":1,"similarity":1.0,"stretto":false,"stretto_voices":0,"combination":[],"aug_dim":"","rhythm_ratio":1.0,"mirror":false,"chromatic_density":0.5,"complexity":0.583,"dissonance":0.036},{"voice":3,"pitch":43,"start":68.0,"duration":0.5,"velocity":53,"measure":35,"beat":1.0,"subject_pos":-1,"motif":"","motif_pos":-1,"best_pos":5,"similarity":0.786,"stretto":false,"stretto_voices":0,"combination":[],"aug_dim":"","rhythm_ratio":1.0,"mirror":false,"chromatic_density":0.5,"complexity":0.583,"dissonance":0.036},{"voice":0,"pitch":69,"start":68.25,"duration":0.4115,"velocity":76,"measure":35,"beat":1.5,"subject_pos":-1,"motif":"tail_inv","motif_pos":2,"best_pos":2,"similarity":1.0,"stretto":false,"stretto_voices":0,"combination":[],"aug_dim":"","rhythm_ratio":1.0,"mirror":false,"chromatic_density":0.5,"complexity":0.583,"dissonance":0.036},{"voice":0,"pitch":67,"start":68.5,"duration":0.4115,"velocity":76,"measure":35,"beat":2.0,"subject_pos":-1,"motif":"tail_inv","motif_pos":3,"best_pos":3,"similarity":1.0,"stretto":false,"stretto_voices":0,"combination":[],"aug_dim":"","rhythm_ratio":1.0,"mirror":false,"chromatic_density":0.5,"complexity":0.583,"dissonance":0.036},{"voice":3,"pitch":45,"start":68.5,"duration":0.5,"velocity":53,"measure":35,"beat":2.0,"subject_pos":-1,"motif":"","motif_pos":-1,"best_pos":6,"similarity":0.732,"stretto":false,"stretto_voices":0,"combination":[],"aug_dim":"","rhythm_ratio":1.0,"mirror":false,"chromatic_density":0.5,"complexity":0.583,"dissonance":0.036},{"voice":0,"pitch":66,"start":68.75,"duration":0.4115,"velocity":76,"measure":35,"beat":2.5,"subject_pos":-1,"motif":"tail_inv","motif_pos":4,"best_pos":4,"similarity":1.0,"stretto":false,"stretto_voices":0,"combination":[],"aug_dim":"","rhythm_ratio":1.0,"mirror":false,"chromatic_density":0.5,"complexity":0.583,"dissonance":0.036},{"voice":0,"pitch":67,"start":69.0,"duration":0.9115,"velocity":76,"measure":35,"beat":3.0,"subject_pos":-1,"motif":"","motif_pos":-1,"best_pos":5,"similarity":0.607,"stretto":false,"stretto_voices":0,"combination":[],"aug_dim":"","rhythm_ratio":1.0,"mirror":false,"chromatic_density":0.5,"complexity":0.583,"dissonance":0.036},{"voice":3,"pitch":46,"start":69.0,"duration":1.25,"velocity":53,"measure":35,"beat":3.0,"subject_pos":-1,"motif":"","motif_pos":-1,"best_pos":5,"similarity":0.607,"stretto":false,"stretto_voices":0,"combination":[],"aug_dim":"","rhythm_ratio":1.0,"mirror":false,"chromatic_density":0.5,"complexity":0.583,"dissonance":0.036},{"voice":1,"pitch":62,"start":69.25,"duration":0.25,"velocity":68,"measure":35,"beat":3.5,"subject_pos":-1,"motif":"","motif_pos":-1,"best_pos":5,"similarity":0.332,"stretto":false,"stretto_voices":0,"combination":[],"aug_dim":"","rhythm_ratio":1.0,"mirror":false,"chromatic_density":0.5,"complexity":0.583,"dissonance":0.036},{"voice":1,"pitch":67,"start":69.5,"duration":0.6927,"velocity":68,"measure":35,"beat":4.0,"subject_pos":-1,"motif":"","motif_pos":-1,"best_pos":1,"similarity":0.389,"stretto":false,"stretto_voices":0,"combination":[],"aug_dim":"","rhythm_ratio":1.0,"mirror":false,"chromatic_density":0.5,"complexity":0.583,"dissonance":0.036},{"voice":0,"pitch":70,"start":69.75,"duration":0.4115,"velocity":76,"measure":35,"beat":4.5,"subject_pos":-1,"motif":"","motif_pos":-1,"best_pos":6,"similarity":0.357,"stretto":false,"stretto_voices":0,"combination":[],"aug_dim":"","rhythm_ratio":1.0,"mirror":false,"chromatic_density":0.5,"complexity":0.583,"dissonance":0.036},{"voice":0,"pitch":64,"start":70.0,"duration":0.9115,"velocity":76,"measure":36,"beat":1.0,"subject_pos":-1,"motif":"","motif_pos":-1,"best_pos":5,"similarity":0.45,"stretto":false,"stretto_voices":0,"combination":[],"aug_dim":"","rhythm_ratio":1.0,"mirror":false,"chromatic_density":0.333,"complexity":0.498,"dissonance":0.195},{"voice":1,"pitch":67,"start":70.25,"duration":0.25,"velocity":68,"measure":36,"beat":1.5,"subject_pos":-1,"motif":"","motif_pos":-1,"best_pos":2,"similarity":0.35,"stretto":false,"stretto_voices":0,"combination":[],"aug_dim":"","rhythm_ratio":1.0,"mirror":false,"chromatic_density":0.333,"complexity":0.498,"dissonance":0.195},{"voice":3,"pitch":48,"start":70.25,"duration":0.25,"velocity":53,"measure":36,"beat":1.5,"subject_pos":-1,"motif":"","motif_pos":-1,"best_pos":6,"similarity":0.464,"stretto":false,"stretto_voices":0,"combination":[],"aug_dim":"","rhythm_ratio":1.0,"mirror":false,"chromatic_density":0.333,"complexity":0.498,"dissonance":0.195},{"voice":1,"pitch":60,"start":70.5,"duration":0.6927,"velocity":68,"measure":36,"beat":2.0,"subject_pos":-1,"motif":"","motif_pos":-1,"best_pos":2,"similarity":0.368,"stretto":false,"stretto_voices":0,"combination":[],"aug_dim":"","rhythm_ratio":1.0,"mirror":false,"chromatic_density":0.333,"complexity":0.498,"dissonance":0.195},{"voice":3,"pitch":46,"start":70.5,"duration":0.25,"velocity":53,"measure":36,"beat":2.0,"subject_pos":-1,"motif":"","motif_pos":-1,"best_pos":3,"similarity":0.464,"stretto":false,"stretto_voices":0,"combination":[],"aug_dim":"","rhythm_ratio":1.0,"mirror":false,"chromatic_density":0.333,"complexity":0.498,"dissonance":0.195},{"voice":0,"pitch":66,"start":70.75,"duration":0.4115,"velocity":76,"measure":36,"beat":2.5,"subject_pos":-1,"motif":"","motif_pos":-1,"best_pos":6,"similarity":0.579,"stretto":false,"stretto_voices":0,"combination":[],"aug_dim":"","rhythm_ratio":1.0,"mirror":false,"chromatic_density":0.333,"complexity":0.498,"dissonance":0.195},{"voice":3,"pitch":45,"start":70.75,"duration":0.25,"velocity":53,"measure":36,"beat":2.5,"subject_pos":-1,"motif":"","motif_pos":-1,"best_pos":4,"similarity":0.464,"stretto":false,"stretto_voices":0,"combination":[],"aug_dim":"","rhythm_ratio":1.0,"mirror":false,"chromatic_density":0.333,"complexity":0.498,"dissonance":0.195},{"voice":0,"pitch":67,"start":71.0,"duration":0.9115,"velocity":76,"measure":36,"beat":3.0,"subject_pos":-1,"motif":"","motif_pos":-1,"best_pos":7,"similarity":0.429,"stretto":false,"stretto_voices":0,"combination":[],"aug_dim":"","rhythm_ratio":1.0,"mirror":false,"chromatic_density":0.333,"complexity":0.498,"dissonance":0.195},{"voice":3,"pitch":43,"start":71.0,"duration":1.1927,"velocity":53,"measure":36,"beat":3.0,"subject_pos":-1,"motif":"","motif_pos":-1,"best_pos":2,"similarity":0.614,"stretto":false,"stretto_voices":0,"combination":[],"aug_dim":"","rhythm_ratio":1.0,"mirror":false,"chromatic_density":0.333,"complexity":0.498,"dissonance":0.195},{"voice":1,"pitch":57,"start":71.25,"duration":0.25,"velocity":68,"measure":36,"beat":3.5,"subject_pos":-1,"motif":"","motif_pos":-1,"best_pos":3,"similarity":0.407,"stretto":false,"stretto_voices":0,"combination":[],"aug_dim":"","rhythm_ratio":1.0,"mirror":false,"chromatic_density":0.333,"complexity":0.498,"dissonance":0.195},{"voice":1,"pitch":58,"start":71.5,"duration":0.5,"velocity":68,"measure":36,"beat":4.0,"subject_pos":-1,"motif":"","motif_pos":-1,"best_pos":3,"similarity":0.457,"stretto":false,"stretto_voices":0,"combination":[],"aug_dim":"","rhythm_ratio":1.0,"mirror":false,"chromatic_density":0.333,"complexity":0.498,"dissonance":0.195},{"voice":0,"pitch":64,"start":71.75,"duration":0.4115,"velocity":76,"measure":36,"beat":4.5,"subject_pos":-1,"motif":"","motif_pos":-1,"best_pos":2,"similarity":0.443,"stretto":false,"stretto_voices":0,"combination":[],"aug_dim":"","rhythm_ratio":1.0,"mirror":false,"chromatic_density":0.333,"complexity":0.498,"dissonance":0.195},{"voice":0,"pitch":61,"start":72.0,"duration":0.9115,"velocity":76,"measure":37,"beat":1.0,"subject_pos":-1,"motif":"","motif_pos":-1,"best_pos":3,"similarity":0.4,"stretto":false,"stretto_voices":0,"combination":[],"aug_dim":"","rhythm_ratio":1.0,"mirror":false,"chromatic_density":0.143,"complexity":0.525,"dissonance":0.091},{"voice":1,"pitch":57,"start":72.0,"duration":1.1927,"velocity":68,"measure":37,"beat":1.0,"subject_pos":-1,"motif":"","motif_pos":-1,"best_pos":4,"similarity":0.486,"stretto":false,"stretto_voices":0,"combination":[],"aug_dim":"","rhythm_ratio":1.0,"mirror":false,"chromatic_density":0.143,"complexity":0.525,"dissonance":0.091},{"voice":3,"pitch":40,"start":72.25,"duration":0.25,"velocity":53,"measure":37,"beat":1.5,"subject_pos":-1,"motif":"","motif_pos":-1,"best_pos":3,"similarity":0.514,"stretto":false,"stretto_voices":0,"combination":[],"aug_dim":"","rhythm_ratio":1.0,"mirror":false,"chromatic_density":0.143,"complexity":0.525,"dissonance":0.091},{"voice":3,"pitch":41,"start":72.5,"duration":0.5,"velocity":53,"measure":37,"beat":2.0,"subject_pos":-1,"motif":"","motif_pos":-1,"best_pos":5,"similarity":0.4,"stretto":false,"stretto_voices":0,"combination":[],"aug_dim":"","rhythm_ratio":1.0,"mirror":false,"chromatic_density":0.143,"complexity":0.525,"dissonance":0.091},{"voice":0,"pitch":69,"start":72.75,"duration":0.4115,"velocity":76,"measure":37,"beat":2.5,"subject_pos":-1,"motif":"","motif_pos":-1,"best_pos":4,"similarity":0.268,"stretto":false,"stretto_voices":0,"combination":[],"aug_dim":"","rhythm_ratio":1.0,"mirror":false,"chromatic_density":0.143,"complexity":0.525,"dissonance":0.091},{"voice":0,"pitch":62,"start":73.0,"duration":0.9115,"velocity":76,"measure":37,"beat":3.0,"subject_pos":-1,"motif":"","motif_pos":-1,"best_pos":5,"similarity":0.25,"stretto":false,"stretto_voices":0,"combination":[],"aug_dim":"","rhythm_ratio":1.0,"mirror":false,"chromatic_density":0.143,"complexity":0.525,"dissonance":0.091},{"voice":3,"pitch":46,"start":73.0,"duration":1.1927,"velocity":53,"measure":37,"beat":3.0,"subject_pos":-1,"motif":"","motif_pos":-1,"best_pos":1,"similarity":0.429,"stretto":false,"stretto_voices":0,"combination":[],"aug_dim":"","rhythm_ratio":1.0,"mirror":false,"chromatic_density":0.143,"complexity":0.525,"dissonance":0.091},{"voice":1,"pitch":53,"start":73.25,"duration":0.25,"velocity":68,"measure":37,"beat":3.5,"subject_pos":-1,"motif":"","motif_pos":-1,"best_pos":5,"similarity":0.45,"stretto":false,"stretto_voices":0,"combination":[],"aug_dim":"","rhythm_ratio":1.0,"mirror":false,"chromatic_density":0.143,"complexity":0.525,"dissonance":0.091},{"voice":1,"pitch":55,"start":73.5,"duration":0.5,"velocity":68,"measure":37,"beat":4.0,"subject_pos":-1,"motif":"","motif_pos":-1,"best_pos":6,"similarity":0.386,"stretto":false,"stretto_voices":0,"combination":[],"aug_dim":"","rhythm_ratio":1.0,"mirror":false,"chromatic_density":0.143,"complexity":0.525,"dissonance":0.091},{"voice":0,"pitch":65,"start":73.75,"duration":0.4115,"velocity":76,"measure":37,"beat":4.5,"subject_pos":-1,"motif":"","motif_pos":-1,"best_pos":3,"similarity":0.336,"stretto":false,"stretto_voices":0,"combination":[],"aug_dim":"","rhythm_ratio":1.0,"mirror":false,"chromatic_density":0.143,"complexity":0.525,"dissonance":0.091},{"voice":0,"pitch":64,"start":74.0,"duration":0.9115,"velocity":76,"measure":38,"beat":1.0,"subject_pos":-1,"motif":"","motif_pos":-1,"best_pos":4,"similarity":0.3,"stretto":false,"stretto_voices":0,"combination":[],"aug_dim":"","rhythm_ratio":1.0,"mirror":false,"chromatic_density":0.0,"complexity":0.504,"dissonance":0.118},{"voice":1,"pitch":60,"start":74.0,"duration":1.1927,"velocity":68,"measure":38,"beat":1.0,"subject_pos":-1,"motif":"","motif_pos":-1,"best_pos":1,"similarity":0.429,"stretto":false,"stretto_voices":0,"combination":[],"aug_dim":"","rhythm_ratio":1.0,"mirror":false,"chromatic_density":0.0,"complexity":0.504,"dissonance":0.118},{"voice":3,"pitch":43,"start":74.25,"duration":0.25,"velocity":53,"measure":38,"beat":1.5,"subject_pos":-1,"motif":"","motif_pos":-1,"best_pos":3,"similarity":0.336,"stretto":false,"stretto_voices":0,"combination":[],"aug_dim":"","rhythm_ratio":1.0,"mirror":false,"chromatic_density":0.0,"complexity":0.504,"dissonance":0.118},{"voice":3,"pitch":45,"start":74.5,"duration":0.5,"velocity":53,"measure":38,"beat":2.0,"subject_pos":-1,"motif":"","motif_pos":-1,"best_pos":0,"similarity":0.364,"stretto":false,"stretto_voices":0,"combination":[],"aug_dim":"","rhythm_ratio":1.0,"mirror":false,"chromatic_density":0.0,"complexity":0.504,"dissonance":0.118},{"voice":0,"pitch":72,"start":74.75,"duration":0.4115,"velocity":76,"measure":38,"beat":2.5,"subject_pos":-1,"motif":"","motif_pos":-1,"best_pos":1,"similarity":0.207,"stretto":false,"stretto_voices":0,"combination":[],"aug_dim":"","rhythm_ratio":1.0,"mirror":false,"chromatic_density":0.0,"complexity":0.504,"dissonance":0.118},{"voice":0,"pitch":65,"start":75.0,"duration":0.9115,"velocity":76,"measure":38,"beat":3.0,"subject_pos":-1,"motif":"","motif_pos":-1,"best_pos":0,"similarity":0.286,"stretto":false,"stretto_voices":0,"combination":[],"aug_dim":"","rhythm_ratio":1.0,"mirror":false,"chromatic_density":0.0,"complexity":0.504,"dissonance":0.118},{"voice":3,"pitch":50,"start":75.0,"duration":1.1927,"velocity":53,"measure":38,"beat":3.0,"subject_pos":-1,"motif":"","motif_pos":-1,"best_pos":1,"similarity":0.443,"stretto":false,"stretto_voices":0,"combination":[],"aug_dim":"","rhythm_ratio":1.0,"mirror":false,"chromatic_density":0.0,"complexity":0.504,"dissonance":0.118},{"voice":1,"pitch":57,"start":75.25,"duration":0.25,"velocity":68,"measure":38,"beat":3.5,"subject_pos":-1,"motif":"","motif_pos":-1,"best_pos":3,"similarity":0.336,"stretto":false,"stretto_voices":0,"combination":[],"aug_dim":"","rhythm_ratio":1.0,"mirror":false,"chromatic_density":0.0,"complexity":0.504,"dissonance":0.118},{"voice":1,"pitch":59,"start":75.5,"duration":0.5,"velocity":68,"measure":38,"beat":4.0,"subject_pos":-1,"motif":"","motif_pos":-1,"best_pos":0,"similarity":0.364,"stretto":false,"stretto_voices":0,"combination":[],"aug_dim":"","rhythm_ratio":1.0,"mirror":false,"chromatic_density":0.0,"complexity":0.504,"dissonance":0.118},{"voice":0,"pitch":69,"start":75.75,"duration":0.4115,"velocity":76,"measure":38,"beat":4.5,"subject_pos":-1,"motif":"","motif_pos":-1,"best_pos":1,"similarity":0.429,"stretto":false,"stretto_voices":0,"combination":[],"aug_dim":"","rhythm_ratio":1.0,"mirror":false,"chromatic_density":0.0,"complexity":0.504,"dissonance":0.118},{"voice":0,"pitch":67,"start":76.0,"duration":0.9115,"velocity":76,"measure":39,"beat":1.0,"subject_pos":-1,"motif":"","motif_pos":-1,"best_pos":2,"similarity":0.375,"stretto":false,"stretto_voices":0,"combination":[],"aug_dim":"","rhythm_ratio":1.0,"mirror":false,"chromatic_density":0.286,"complexity":0.482,"dissonance":0.091},{"voice":1,"pitch":64,"start":76.0,"duration":1.1927,"velocity":68,"measure":39,"beat":1.0,"subject_pos":-1,"motif":"","motif_pos":-1,"best_pos":1,"similarity":0.443,"stretto":false,"stretto_voices":0,"combination":[],"aug_dim":"","rhythm_ratio":1.0,"mirror":false,"chromatic_density":0.286,"complexity":0.482,"dissonance":0.091},{"voice":3,"pitch":47,"start":76.25,"duration":0.25,"velocity":53,"measure":39,"beat":1.5,"subject_pos":-1,"motif":"","motif_pos":-1,"best_pos":4,"similarity":0.386,"stretto":false,"stretto_voices":0,"combination":[],"aug_dim":"","rhythm_ratio":1.0,"mirror":false,"chromatic_density":0.286,"complexity":0.482,"dissonance":0.091},{"voice":3,"pitch":48,"start":76.5,"duration":0.5,"velocity":53,"measure":39,"beat":2.0,"subject_pos":-1,"motif":"","motif_pos":-1,"best_pos":5,"similarity":0.364,"stretto":false,"stretto_voices":0,"combination":[],"aug_dim":"","rhythm_ratio":1.0,"mirror":false,"chromatic_density":0.286,"complexity":0.482,"dissonance":0.091},{"voice":0,"pitch":76,"start":76.75,"duration":0.4115,"velocity":76,"measure":39,"beat":2.5,"subject_pos":-1,"motif":"","motif_pos":-1,"best_pos":3,"similarity":0.221,"stretto":false,"stretto_voices":0,"combination":[],"aug_dim":"","rhythm_ratio":1.0,"mirror":false,"chromatic_density":0.286,"complexity":0.482,"dissonance":0.091},{"voice":0,"pitch":69,"start":77.0,"duration":0.9115,"velocity":76,"measure":39,"beat":3.0,"subject_pos":-1,"motif":"","motif_pos":-1,"best_pos":5,"similarity":0.214,"stretto":false,"stretto_voices":0,"combination":[],"aug_dim":"","rhythm_ratio":1.0,"mirror":false,"chromatic_density":0.286,"complexity":0.482,"dissonance":0.091},{"voice":3,"pitch":53,"start":77.0,"duration":1.1927,"velocity":53,"measure":39,"beat":3.0,"subject_pos":-1,"motif":"","motif_pos":-1,"best_pos":1,"similarity":0.429,"stretto":false,"stretto_voices":0,"combination":[],"aug_dim":"","rhythm_ratio":1.0,"mirror":false,"chromatic_density":0.286,"complexity":0.482,"dissonance":0.091},{"voice":1,"pitch":61,"start":77.25,"duration":0.25,"velocity":68,"measure":39,"beat":3.5,"subject_pos":-1,"motif":"","motif_pos":-1,"best_pos":3,"similarity":0.45,"stretto":false,"stretto_voices":0,"combination":[],"aug_dim":"","rhythm_ratio":1.0,"mirror":false,"chromatic_density":0.286,"complexity":0.482,"dissonance":0.091},{"voice":1,"pitch":62,"start":77.5,"duration":0.5,"velocity":68,"measure":39,"beat":4.0,"subject_pos":-1,"motif":"","motif_pos":-1,"best_pos":4,"similarity":0.457,"stretto":false,"stretto_voices":0,"combination":[],"aug_dim":"","rhythm_ratio":1.0,"mirror":false,"chromatic_density":0.286,"complexity":0.482,"dissonance":0.091},{"voice":0,"pitch":72,"start":77.75,"duration":0.4115,"velocity":76,"measure":39,"beat":4.5,"subject_pos":-1,"motif":"","motif_pos":-1,"best_pos":3,"similarity":0.318,"stretto":false,"stretto_voices":0,"combination":[],"aug_dim":"","rhythm_ratio":1.0,"mirror":false,"chromatic_density":0.286,"complexity":0.482,"dissonance":0.091},{"voice":0,"pitch":71,"start":78.0,"duration":0.9115,"velocity":76,"measure":40,"beat":1.0,"subject_pos":-1,"motif":"","motif_pos":-1,"best_pos":4,"similarity":0.364,"stretto":false,"stretto_voices":0,"combination":[],"aug_dim":"","rhythm_ratio":1.0,"mirror":false,"chromatic_density":0.143,"complexity":0.597,"dissonance":0.129},{"voice":1,"pitch":67,"start":78.0,"duration":1.1927,"velocity":68,"measure":40,"beat":1.0,"subject_pos":-1,"motif":"","motif_pos":-1,"best_pos":5,"similarity":0.564,"stretto":false,"stretto_voices":0,"combination":[],"aug_dim":"","rhythm_ratio":1.0,"mirror":false,"chromatic_density":0.143,"complexity":0.597,"dissonance":0.129},{"voice":3,"pitch":50,"start":78.25,"duration":0.25,"velocity":53,"measure":40,"beat":1.5,"subject_pos":-1,"motif":"","motif_pos":-1,"best_pos":3,"similarity":0.321,"stretto":false,"stretto_voices":0,"combination":[],"aug_dim":"","rhythm_ratio":1.0,"mirror":false,"chromatic_density":0.143,"complexity":0.597,"dissonance":0.129},{"voice":3,"pitch":52,"start":78.5,"duration":0.5,"velocity":53,"measure":40,"beat":2.0,"subject_pos":-1,"motif":"","motif_pos":-1,"best_pos":6,"similarity":0.3,"stretto":false,"stretto_voices":0,"combination":[],"aug_dim":"","rhythm_ratio":1.0,"mirror":false,"chromatic_density":0.143,"complexity":0.597,"dissonance":0.129},{"voice":0,"pitch":79,"start":78.75,"duration":0.4115,"velocity":76,"measure":40,"beat":2.5,"subject_pos":-1,"motif":"","motif_pos":-1,"best_pos":3,"similarity":0.304,"stretto":false,"stretto_voices":0,"combination":[],"aug_dim":"","rhythm_ratio":1.0,"mirror":false,"chromatic_density":0.143,"complexity":0.597,"dissonance":0.129},{"voice":0,"pitch":73,"start":79.0,"duration":1.0,"velocity":76,"measure":40,"beat":3.0,"subject_pos":-1,"motif":"","motif_pos":-1,"best_pos":4,"similarity":0.471,"stretto":false,"stretto_voices":0,"combination":[],"aug_dim":"","rhythm_ratio":1.0,"mirror":false,"chromatic_density":0.143,"complexity":0.597,"dissonance":0.129},{"voice":2,"pitch":52,"start":79.0,"duration":1.0,"velocity":59,"measure":40,"beat":3.0,"subject_pos":-1,"motif":"","motif_pos":-1,"best_pos":6,"similarity":0.529,"stretto":false,"stretto_voices":0,"combination":[],"aug_dim":"","rhythm_ratio":1.0,"mirror":false,"chromatic_density":0.143,"complexity":0.597,"dissonance":0.129},{"voice":3,"pitch":45,"start":79.0,"duration":0.6927,"velocity":53,"measure":40,"beat":3.0,"subject_pos":-1,"motif":"","motif_pos":-1,"best_pos":0,"similarity":0.189,"stretto":false,"stretto_voices":0,"combination":[],"aug_dim":"","rhythm_ratio":1.0,"mirror":false,"chromatic_density":0.143,"complexity":0.597,"dissonance":0.129},{"voice":1,"pitch":69,"start":79.25,"duration":0.25,"velocity":68,"measure":40,"beat":3.5,"subject_pos":-1,"motif":"","motif_pos":-1,"best_pos":6,"similarity":0.604,"stretto":false,"stretto_voices":0,"combination":[],"aug_dim":"","rhythm_ratio":1.0,"mirror":false,"chromatic_density":0.143,"complexity":0.597,"dissonance":0.129},{"voice":1,"pitch":70,"start":79.5,"duration":0.5,"velocity":68,"measure":40,"beat":4.0,"subject_pos":-1,"motif":"","motif_pos":-1,"best_pos":3,"similarity":0.471,"stretto":false,"stretto_voices":0,"combination":[],"aug_dim":"","rhythm_ratio":1.0,"mirror":false,"chromatic_density":0.143,"complexity":0.597,"dissonance":0.129},{"voice":3,"pitch":55,"start":79.75,"duration":0.25,"velocity":53,"measure":40,"beat":4.5,"subject_pos":-1,"motif":"","motif_pos":-1,"best_pos":1,"similarity":0.386,"stretto":false,"stretto_voices":0,"combination":[],"aug_dim":"","rhythm_ratio":1.0,"mirror":false,"chromatic_density":0.143,"complexity":0.597,"dissonance":0.129},{"voice":0,"pitch":74,"start":80.0,"duration":0.5,"velocity":76,"measure":41,"beat":1.0,"subject_pos":-1,"motif":"","motif_pos":-1,"best_pos":5,"similarity":0.586,"stretto":false,"stretto_voices":0,"combination":[],"aug_dim":"","rhythm_ratio":1.0,"mirror":false,"chromatic_density":0.444,"complexity":0.588,"dissonance":0.104},{"voice":1,"pitch":69,"start":80.0,"duration":2.1927,"velocity":68,"measure":41,"beat":1.0,"subject_pos":-1,"motif":"","motif_pos":-1,"best_pos":4,"similarity":0.486,"stretto":false,"stretto_voices":0,"combination":[],"aug_dim":"","rhythm_ratio":1.0,"mirror":false,"chromatic_density":0.444,"complexity":0.588,"dissonance":0.104},{"voice":2,"pitch":57,"start":80.0,"duration":1.0,"velocity":59,"measure":41,"beat":1.0,"subject_pos":-1,"motif":"","motif_pos":-1,"best_pos":1,"similarity":0.786,"stretto":false,"stretto_voices":0,"combination":[],"aug_dim":"","rhythm_ratio":1.0,"mirror":false,"chromatic_density":0.444,"complexity":0.588,"dissonance":0.104},{"voice":3,"pitch":53,"start":80.0,"duration":0.25,"velocity":53,"measure":41,"beat":1.0,"subject_pos":-1,"motif":"","motif_pos":-1,"best_pos":2,"similarity":0.461,"stretto":false,"stretto_voices":0,"combination":[],"aug_dim":"","rhythm_ratio":1.0,"mirror":false,"chromatic_density":0.444,"complexity":0.588,"dissonance":0.104},{"voice":3,"pitch":52,"start":80.25,"duration":0.25,"velocity":53,"measure":41,"beat":1.5,"subject_pos":-1,"motif":"","motif_pos":-1,"best_pos":2,"similarity":0.5,"stretto":false,"stretto_voices":0,"combination":[],"aug_dim":"","rhythm_ratio":1.0,"mirror":false,"chromatic_density":0.444,"complexity":0.588,"dissonance":0.104},{"voice":0,"pitch":76,"start":80.5,"duration":0.9115,"velocity":76,"measure":41,"beat":2.0,"subject_pos":-1,"motif":"","motif_pos":-1,"best_pos":6,"similarity":0.457,"stretto":false,"stretto_voices":0,"combination":[],"aug_dim":"","rhythm_ratio":1.0,"mirror":false,"chromatic_density":0.444,"complexity":0.588,"dissonance":0.104},{"voice":3,"pitch":50,"start":80.5,"duration":0.25,"velocity":53,"measure":41,"beat":2.0,"subject_pos":-1,"motif":"","motif_pos":-1,"best_pos":3,"similarity":0.643,"stretto":false,"stretto_voices":0,"combination":[],"aug_dim":"","rhythm_ratio":1.0,"mirror":false,"chromatic_density":0.444,"complexity":0.588,"dissonance":0.104},{"voice":3,"pitch":49,"start":80.75,"duration":0.25,"velocity":53,"measure":41,"beat":2.5,"subject_pos":-1,"motif":"","motif_pos":-1,"best_pos":4,"similarity":0.686,"stretto":false,"stretto_voices":0,"combination":[],"aug_dim":"","rhythm_ratio":1.0,"mirror":false,"chromatic_density":0.444,"complexity":0.588,"dissonance":0.104},{"voice":2,"pitch":53,"start":81.0,"duration":1.0,"velocity":59,"measure":41,"beat":3.0,"subject_pos":-1,"motif":"","motif_pos":-1,"best_pos":2,"similarity":0.929,"stretto":false,"stretto_voices":0,"combination":[],"aug_dim":"","rhythm_ratio":1.0,"mirror":false,"chromatic_density":0.444,"complexity":0.588,"dissonance":0.104},{"voice":3,"pitch":50,"start":81.0,"duration":0.6927,"velocity":53,"measure":41,"beat":3.0,"subject_pos":-1,"motif":"","motif_pos":-1,"best_pos":5,"similarity":0.479,"stretto":false,"stretto_voices":0,"combination":[],"aug_dim":"","rhythm_ratio":1.0,"mirror":false,"chromatic_density":0.444,"complexity":0.588,"dissonance":0.104},{"voice":0,"pitch":73,"start":81.25,"duration":0.4115,"velocity":76,"measure":41,"beat":3.5,"subject_pos":-1,"motif":"","motif_pos":-1,"best_pos":4,"similarity":0.579,"stretto":false,"stretto_voices":0,"combination":[],"aug_dim":"","rhythm_ratio":1.0,"mirror":false,"chromatic_density":0.444,"complexity":0.588,"dissonance":0.104},{"voice":0,"pitch":74,"start":81.5,"duration":1.4115,"velocity":76,"measure":41,"beat":4.0,"subject_pos":-1,"motif":"","motif_pos":-1,"best_pos":5,"similarity":0.75,"stretto":false,"stretto_voices":0,"combination":[],"aug_dim":"","rhythm_ratio":1.0,"mirror":false,"chromatic_density":0.444,"complexity":0.588,"dissonance":0.104},{"voice":3,"pitch":41,"start":81.75,"duration":0.25,"velocity":53,"measure":41,"beat":4.5,"subject_pos":-1,"motif":"","motif_pos":-1,"best_pos":0,"similarity":0.364,"stretto":false,"stretto_voices":0,"combination":[],"aug_dim":"","rhythm_ratio":1.0,"mirror":false,"chromatic_density":0.444,"complexity":0.588,"dissonance":0.104},{"voice":2,"pitch":50,"start":82.0,"duration":1.0,"velocity":59,"measure":42,"beat":1.0,"subject_pos":-1,"motif":"tail","motif_pos":3,"best_pos":3,"similarity":1.0,"stretto":false,"stretto_voices":0,"combination":[],"aug_dim":"","rhythm_ratio":1.0,"mirror":false,"chromatic_density":0.625,"complexity":0.581,"dissonance":0.097},{"voice":3,"pitch":46,"start":82.0,"duration":1.0,"velocity":53,"measure":42,"beat":1.0,"subject_pos":-1,"motif":"","motif_pos":-1,"best_pos":1,"similarity":0.514,"stretto":false,"stretto_voices":0,"combination":[],"aug_dim":"","rhythm_ratio":1.0,"mirror":false,"chromatic_density":0.625,"complexity":0.581,"dissonance":0.097},{"voice":1,"pitch":65,"start":82.25,"duration":0.25,"velocity":68,"measure":42,"beat":1.5,"subject_pos":-1,"motif":"","motif_pos":-1,"best_pos":5,"similarity":0.507,"stretto":false,"stretto_voices":0,"combination":[],"aug_dim":"","rhythm_ratio":1.0,"mirror":false,"chromatic_density":0.625,"complexity":0.581,"dissonance":0.097},{"voice":1,"pitch":67,"start":82.5,"duration":0.5,"velocity":68,"measure":42,"beat":2.0,"subject_pos":-1,"motif":"","motif_pos":-1,"best_pos":5,"similarity":0.604,"stretto":false,"stretto_voices":0,"combination":[],"aug_dim":"","rhythm_ratio":1.0,"mirror":false,"chromatic_density":0.625,"complexity":0.581,"dissonance":0.097},{"voice":0,"pitch":76,"start":82.75,"duration":0.4115,"velocity":76,"measure":42,"beat":2.5,"subject_pos":-1,"motif":"","motif_pos":-1,"best_pos":6,"similarity":0.732,"stretto":false,"stretto_voices":0,"combination":[],"aug_dim":"","rhythm_ratio":1.0,"mirror":false,"chromatic_density":0.625,"complexity":0.581,"dissonance":0.097},{"voice":0,"pitch":77,"start":83.0,"duration":0.4115,"velocity":76,"measure":42,"beat":3.0,"subject_pos":-1,"motif":"","motif_pos":-1,"best_pos":7,"similarity":0.5,"stretto":false,"stretto_voices":0,"combination":[],"aug_dim":"","rhythm_ratio":1.0,"mirror":false,"chromatic_density":0.625,"complexity":0.581,"dissonance":0.097},{"voice":1,"pitch":69,"start":83.0,"duration":0.75,"velocity":68,"measure":42,"beat":3.0,"subject_pos":-1,"motif":"","motif_pos":-1,"best_pos":6,"similarity":0.65,"stretto":false,"stretto_voices":0,"combination":[],"aug_dim":"","rhythm_ratio":1.0,"mirror":false,"chromatic_density":0.625,"complexity":0.581,"dissonance":0.097},{"voice":2,"pitch":49,"start":83.0,"duration":1.0,"velocity":59,"measure":42,"beat":3.0,"subject_pos":-1,"motif":"tail","motif_pos":4,"best_pos":4,"similarity":1.0,"stretto":false,"stretto_voices":0,"combination":[],"aug_dim":"","rhythm_ratio":1.0,"mirror":false,"chromatic_density":0.625,"complexity":0.581,"dissonance":0.097},{"voice":3,"pitch":45,"start":83.0,"duration":2.6927,"velocity":53,"measure":42,"beat":3.0,"subject_pos":-1,"motif":"","motif_pos":-1,"best_pos":4,"similarity":0.593,"stretto":false,"stretto_voices":0,"combination":[],"aug_dim":"","rhythm_ratio":1.0,"mirror":false,"chromatic_density":0.625,"complexity":0.581,"dissonance":0.097},{"voice":0,"pitch":76,"start":83.25,"duration":0.4115,"velocity":76,"measure":42,"beat":3.5,"subject_pos":-1,"motif":"","motif_pos":-1,"best_pos":4,"similarity":0.411,"stretto":false,"stretto_voices":0,"combination":[],"aug_dim":"","rhythm_ratio":1.0,"mirror":false,"chromatic_density":0.625,"complexity":0.581,"dissonance":0.097},{"voice":0,"pitch":79,"start":83.5,"duration":0.9115,"velocity":76,"measure":42,"beat":4.0,"subject_pos":-1,"motif":"","motif_pos":-1,"best_pos":1,"similarity":0.429,"stretto":false,"stretto_voices":0,"combination":[],"aug_dim":"","rhythm_ratio":1.0,"mirror":false,"chromatic_density":0.625,"complexity":0.581,"dissonance":0.097},{"voice":1,"pitch":70,"start":83.75,"duration":0.25,"velocity":68,"measure":42,"beat":4.5,"subject_pos":-1,"motif":"","motif_pos":-1,"best_pos":7,"similarity":0.464,"stretto":false,"stretto_voices":0,"combination":[],"aug_dim":"","rhythm_ratio":1.0,"mirror":false,"chromatic_density":0.625,"complexity":0.581,"dissonance":0.097},{"voice":1,"pitch":69,"start":84.0,"duration":0.5,"velocity":68,"measure":43,"beat":1.0,"subject_pos":-1,"motif":"","motif_pos":-1,"best_pos":2,"similarity":0.379,"stretto":false,"stretto_voices":0,"combination":[],"aug_dim":"","rhythm_ratio":1.0,"mirror":false,"chromatic_density":0.3,"complexity":0.648,"dissonance":0.132},{"voice":2,"pitch":50,"start":84.0,"duration":0.5,"velocity":59,"measure":43,"beat":1.0,"subject_pos":-1,"motif":"tail","motif_pos":5,"best_pos":5,"similarity":1.0,"stretto":false,"stretto_voices":0,"combination":[],"aug_dim":"","rhythm_ratio":1.0,"mirror":false,"chromatic_density":0.3,"complexity":0.648,"dissonance":0.132},{"voice":0,"pitch":77,"start":84.25,"duration":0.4115,"velocity":76,"measure":43,"beat":1.5,"subject_pos":-1,"motif":"","motif_pos":-1,"best_pos":2,"similarity":0.482,"stretto":false,"stretto_voices":0,"combination":[],"aug_dim":"","rhythm_ratio":1.0,"mirror":false,"chromatic_density":0.3,"complexity":0.648,"dissonance":0.132},{"voice":0,"pitch":76,"start":84.5,"duration":0.4115,"velocity":76,"measure":43,"beat":2.0,"subject_pos":-1,"motif":"","motif_pos":-1,"best_pos":2,"similarity":0.429,"stretto":false,"stretto_voices":0,"combination":[],"aug_dim":"","rhythm_ratio":1.0,"mirror":false,"chromatic_density":0.3,"complexity":0.648,"dissonance":0.132},{"voice":1,"pitch":67,"start":84.5,"duration":1.0,"velocity":68,"measure":43,"beat":2.0,"subject_pos":-1,"motif":"","motif_pos":-1,"best_pos":2,"similarity":0.464,"stretto":false,"stretto_voices":0,"combination":[],"aug_dim":"","rhythm_ratio":1.0,"mirror":false,"chromatic_density":0.3,"complexity":0.648,"dissonance":0.132},{"voice":2,"pitch":52,"start":84.5,"duration":0.5,"velocity":59,"measure":43,"beat":2.0,"subject_pos":-1,"motif":"tail","motif_pos":6,"best_pos":6,"similarity":1.0,"stretto":false,"stretto_voices":0,"combination":[],"aug_dim":"","rhythm_ratio":1.0,"mirror":false,"chromatic_density":0.3,"complexity":0.648,"dissonance":0.132},{"voice":0,"pitch":74,"start":84.75,"duration":0.4115,"velocity":76,"measure":43,"beat":2.5,"subject_pos":-1,"motif":"","motif_pos":-1,"best_pos":3,"similarity":0.507,"stretto":false,"stretto_voices":0,"combination":[],"aug_dim":"","rhythm_ratio":1.0,"mirror":false,"chromatic_density":0.3,"complexity":0.648,"dissonance":0.132},{"voice":0,"pitch":73,"start":85.0,"duration":0.4115,"velocity":76,"measure":43,"beat":3.0,"subject_pos":-1,"motif":"","motif_pos":-1,"best_pos":4,"similarity":0.414,"stretto":false,"stretto_voices":0,"combination":[],"aug_dim":"","rhythm_ratio":1.0,"mirror":false,"chromatic_density":0.3,"complexity":0.648,"dissonance":0.132},{"voice":2,"pitch":53,"start":85.0,"duration":1.25,"velocity":59,"measure":43,"beat":3.0,"subject_pos":-1,"motif":"tail","motif_pos":7,"best_pos":7,"similarity":1.0,"stretto":false,"stretto_voices":0,"combination":[],"aug_dim":"","rhythm_ratio":1.0,"mirror":false,"chromatic_density":0.3,"complexity":0.648,"dissonance":0.132},{"voice":0,"pitch":69,"start":85.25,"duration":0.4115,"velocity":76,"measure":43,"beat":3.5,"subject_pos":-1,"motif":"","motif_pos":-1,"best_pos":2,"similarity":0.393,"stretto":false,"stretto_voices":0,"combination":[],"aug_dim":"","rhythm_ratio":1.0,"mirror":false,"chromatic_density":0.3,"complexity":0.648,"dissonance":0.132},{"voice":0,"pitch":74,"start":85.5,"duration":0.9115,"velocity":76,"measure":43,"beat":4.0,"subject_pos":-1,"motif":"","motif_pos":-1,"best_pos":1,"similarity":0.479,"stretto":false,"stretto_voices":0,"combination":[],"aug_dim":"","rhythm_ratio":1.0,"mirror":false,"chromatic_density":0.3,"complexity":0.648,"dissonance":0.132},{"voice":1,"pitch":65,"start":85.5,"duration":0.25,"velocity":68,"measure":43,"beat":4.0,"subject_pos":-1,"motif":"","motif_pos":-1,"best_pos":2,"similarity":0.579,"stretto":false,"stretto_voices":0,"combination":[],"aug_dim":"","rhythm_ratio":1.0,"mirror":false,"chromatic_density":0.3,"complexity":0.648,"dissonance":0.132},{"voice":1,"pitch":62,"start":85.75,"duration":0.25,"velocity":68,"measure":43,"beat":4.5,"subject_pos":-1,"motif":"","motif_pos":-1,"best_pos":3,"similarity":0.45,"stretto":false,"stretto_voices":0,"combination":[],"aug_dim":"","rhythm_ratio":1.0,"mirror":false,"chromatic_density":0.3,"complexity":0.648,"dissonance":0.132},{"voice":3,"pitch":46,"start":85.75,"duration":0.25,"velocity":53,"measure":43,"beat":4.5,"subject_pos":-1,"motif":"","motif_pos":-1,"best_pos":3,"similarity":0.543,"stretto":false,"stretto_voices":0,"combination":[],"aug_dim":"","rhythm_ratio":1.0,"mirror":false,"chromatic_density":0.3,"complexity":0.648,"dissonance":0.132},{"voice":1,"pitch":69,"start":86.0,"duration":0.75,"velocity":68,"measure":44,"beat":1.0,"subject_pos":-1,"motif":"","motif_pos":-1,"best_pos":1,"similarity":0.614,"stretto":false,"stretto_voices":0,"combination":[],"aug_dim":"","rhythm_ratio":1.0,"mirror":false,"chromatic_density":0.308,"complexity":0.628,"dissonance":0.165},{"voice":3,"pitch":45,"start":86.0,"duration":0.25,"velocity":53,"measure":44,"beat":1.0,"subject_pos":-1,"motif":"","motif_pos":-1,"best_pos":4,"similarity":0.579,"stretto":false,"stretto_voices":0,"combination":[],"aug_dim":"","rhythm_ratio":1.0,"mirror":false,"chromatic_density":0.308,"complexity":0.628,"dissonance":0.165},{"voice":0,"pitch":71,"start":86.25,"duration":0.4115,"velocity":76,"measure":44,"beat":1.5,"subject_pos":-1,"motif":"","motif_pos":-1,"best_pos":4,"similarity":0.461,"stretto":false,"stretto_voices":0,"combination":[],"aug_dim":"","rhythm_ratio":1.0,"mirror":false,"chromatic_density":0.308,"complexity":0.628,"dissonance":0.165},{"voice":2,"pitch":55,"start":86.25,"duration":0.25,"velocity":59,"measure":44,"beat":1.5,"subject_pos":-1,"motif":"","motif_pos":-1,"best_pos":6,"similarity":0.464,"stretto":false,"stretto_voices":0,"combination":[],"aug_dim":"","rhythm_ratio":1.0,"mirror":false,"chromatic_density":0.308,"complexity":0.628,"dissonance":0.165},{"voice":3,"pitch":43,"start":86.25,"duration":0.25,"velocity":53,"measure":44,"beat":1.5,"subject_pos":-1,"motif":"","motif_pos":-1,"best_pos":5,"similarity":0.607,"stretto":false,"stretto_voices":0,"combination":[],"aug_dim":"","rhythm_ratio":1.0,"mirror":false,"chromatic_density":0.308,"complexity":0.628,"dissonance":0.165},{"voice":0,"pitch":72,"start":86.5,"duration":1.0,"velocity":76,"measure":44,"beat":2.0,"subject_pos":-1,"motif":"","motif_pos":-1,"best_pos":5,"similarity":0.386,"stretto":false,"stretto_voices":0,"combination":[],"aug_dim":"","rhythm_ratio":1.0,"mirror":false,"chromatic_density":0.308,"complexity":0.628,"dissonance":0.165},{"voice":2,"pitch":53,"start":86.5,"duration":0.25,"velocity":59,"measure":44,"beat":2.0,"subject_pos":-1,"motif":"","motif_pos":-1,"best_pos":3,"similarity":0.464,"stretto":false,"stretto_voices":0,"combination":[],"aug_dim":"","rhythm_ratio":1.0,"mirror":false,"chromatic_density":0.308,"complexity":0.628,"dissonance":0.165},{"voice":3,"pitch":45,"start":86.5,"duration":0.5,"velocity":53,"measure":44,"beat":2.0,"subject_pos":-1,"motif":"","motif_pos":-1,"best_pos":6,"similarity":0.657,"stretto":false,"stretto_voices":0,"combination":[],"aug_dim":"","rhythm_ratio":1.0,"mirror":false,"chromatic_density":0.308,"complexity":0.628,"dissonance":0.165},{"voice":1,"pitch":67,"start":86.75,"duration":0.25,"velocity":68,"measure":44,"beat":2.5,"subject_pos":-1,"motif":"","motif_pos":-1,"best_pos":2,"similarity":0.521,"stretto":false,"stretto_voices":0,"combination":[],"aug_dim":"","rhythm_ratio":1.0,"mirror":false,"chromatic_density":0.308,"complexity":0.628,"dissonance":0.165},{"voice":2,"pitch":52,"start":86.75,"duration":0.25,"velocity":59,"measure":44,"beat":2.5,"subject_pos":-1,"motif":"","motif_pos":-1,"best_pos":4,"similarity":0.393,"stretto":false,"stretto_voices":0,"combination":[],"aug_dim":"","rhythm_ratio":1.0,"mirror":false,"chromatic_density":0.308,"complexity":0.628,"dissonance":0.165},{"voice":1,"pitch":66,"start":87.0,"duration":0.25,"velocity":68,"measure":44,"beat":3.0,"subject_pos":-1,"motif":"","motif_pos":-1,"best_pos":4,"similarity":0.379,"stretto":false,"stretto_voices":0,"combination":[],"aug_dim":"","rhythm_ratio":1.0,"mirror":false,"chromatic_density":0.308,"complexity":0.628,"dissonance":0.165},{"voice":2,"pitch":50,"start":87.0,"duration":1.4427,"velocity":59,"measure":44,"beat":3.0,"subject_pos":-1,"motif":"","motif_pos":-1,"best_pos":0,"similarity":0.429,"stretto":false,"stretto_voices":0,"combination":[],"aug_dim":"","rhythm_ratio":1.0,"mirror":false,"chromatic_density":0.308,"complexity":0.628,"dissonance":0.165},{"voice":3,"pitch":46,"start":87.0,"duration":0.6927,"velocity":53,"measure":44,"beat":3.0,"subject_pos":-1,"motif":"","motif_pos":-1,"best_pos":7,"similarity":0.436,"stretto":false,"stretto_voices":0,"combination":[],"aug_dim":"","rhythm_ratio":1.0,"mirror":false,"chromatic_density":0.308,"complexity":0.628,"dissonance":0.165},{"voice":1,"pitch":62,"start":87.25,"duration":0.25,"velocity":68,"measure":44,"beat":3.5,"subject_pos":-1,"motif":"","motif_pos":-1,"best_pos":2,"similarity":0.393,"stretto":false,"stretto_voices":0,"combination":[],"aug_dim":"","rhythm_ratio":1.0,"mirror":false,"chromatic_density":0.308,"complexity":0.628,"dissonance":0.165},{"voice":0,"pitch":70,"start":87.5,"duration":0.5,"velocity":76,"measure":44,"beat":4.0,"subject_pos":-1,"motif":"enigmatic_cell","motif_pos":0,"best_pos":0,"similarity":1.0,"stretto":false,"stretto_voices":0,"combination":[],"aug_dim":"","rhythm_ratio":1.0,"mirror":false,"chromatic_density":0.308,"complexity":0.628,"dissonance":0.165},{"voice":1,"pitch":67,"start":87.5,"duration":0.6927,"velocity":68,"measure":44,"beat":4.0,"subject_pos":-1,"motif":"","motif_pos":-1,"best_pos":1,"similarity":0.461,"stretto":false,"stretto_voices":0,"combination":[],"aug_dim":"","rhythm_ratio":1.0,"mirror":false,"chromatic_density":0.308,"complexity":0.628,"dissonance":0.165},{"voice":3,"pitch":43,"start":87.75,"duration":0.25,"velocity":53,"measure":44,"beat":4.5,"subject_pos":-1,"motif":"","motif_pos":-1,"best_pos":3,"similarity":0.414,"stretto":false,"stretto_voices":0,"combination":[],"aug_dim":"","rhythm_ratio":1.0,"mirror":false,"chromatic_density":0.308,"complexity":0.628,"dissonance":0.165},{"voice":0,"pitch":69,"start":88.0,"duration":0.5,"velocity":76,"measure":45,"beat":1.0,"subject_pos":-1,"motif":"enigmatic_cell","motif_pos":1,"best_pos":1,"similarity":1.0,"stretto":false,"stretto_voices":0,"combination":[],"aug_dim":"","rhythm_ratio":1.0,"mirror":false,"chromatic_density":0.143,"complexity":0.599,"dissonance":0.059},{"voice":3,"pitch":50,"start":88.0,"duration":1.5,"velocity":53,"measure":45,"beat":1.0,"subject_pos":-1,"motif":"","motif_pos":-1,"best_pos":5,"similarity":0.471,"stretto":false,"stretto_voices":0,"combination":[],"aug_dim":"","rhythm_ratio":1.0,"mirror":false,"chromatic_density":0.143,"complexity":0.599,"dissonance":0.059},{"voice":1,"pitch":64,"start":88.25,"duration":0.25,"velocity":68,"measure":45,"beat":1.5,"subject_pos":-1,"motif":"","motif_pos":-1,"best_pos":4,"similarity":0.436,"stretto":false,"stretto_voices":0,"combination":[],"aug_dim":"","rhythm_ratio":1.0,"mirror":false,"chromatic_density":0.143,"complexity":0.599,"dissonance":0.059},{"voice":1,"pitch":65,"start":88.5,"duration":0.6927,"velocity":68,"measure":45,"beat":2.0,"subject_pos":-1,"motif":"","motif_pos":-1,"best_pos":5,"similarity":0.336,"stretto":false,"stretto_voices":0,"combination":[],"aug_dim":"","rhythm_ratio":1.0,"mirror":false,"chromatic_density":0.143,"complexity":0.599,"dissonance":0.059},{"voice":2,"pitch":57,"start":88.5,"duration":0.25,"velocity":59,"measure":45,"beat":2.0,"subject_pos":-1,"motif":"","motif_pos":-1,"best_pos":1,"similarity":0.589,"stretto":false,"stretto_voices":0,"combination":[],"aug_dim":"","rhythm_ratio":1.0,"mirror":false,"chromatic_density":0.143,"complexity":0.599,"dissonance":0.059},{"voice":2,"pitch":53,"start":88.75,"duration":0.25,"velocity":59,"measure":45,"beat":2.5,"subject_pos":-1,"motif":"","motif_pos":-1,"best_pos":2,"similarity":0.471,"stretto":false,"stretto_voices":0,"combination":[],"aug_dim":"","rhythm_ratio":1.0,"mirror":false,"chromatic_density":0.143,"complexity":0.599,"dissonance":0.059},{"voice":2,"pitch":58,"start":89.0,"duration":0.75,"velocity":59,"measure":45,"beat":3.0,"subject_pos":-1,"motif":"","motif_pos":-1,"best_pos":1,"similarity":0.446,"stretto":false,"stretto_voices":0,"combination":[],"aug_dim":"","rhythm_ratio":1.0,"mirror":false,"chromatic_density":0.143,"complexity":0.599,"dissonance":0.059},{"voice":1,"pitch":62,"start":89.25,"duration":0.25,"velocity":68,"measure":45,"beat":3.5,"subject_pos":-1,"motif":"","motif_pos":-1,"best_pos":0,"similarity":0.357,"stretto":false,"stretto_voices":0,"combination":[],"aug_dim":"","rhythm_ratio":1.0,"mirror":false,"chromatic_density":0.143,"complexity":0.599,"dissonance":0.059},{"voice":1,"pitch":67,"start":89.5,"duration":0.6927,"velocity":68,"measure":45,"beat":4.0,"subject_pos":-1,"motif":"","motif_pos":-1,"best_pos":1,"similarity":0.436,"stretto":false,"stretto_voices":0,"combination":[],"aug_dim":"","rhythm_ratio":1.0,"mirror":false,"chromatic_density":0.143,"complexity":0.599,"dissonance":0.059},{"voice":3,"pitch":52,"start":89.5,"duration":1.0,"velocity":53,"measure":45,"beat":4.0,"subject_pos":-1,"motif":"","motif_pos":-1,"best_pos":6,"similarity":0.589,"stretto":false,"stretto_voices":0,"combination":[],"aug_dim":"","rhythm_ratio":1.0,"mirror":false,"chromatic_density":0.143,"complexity":0.599,"dissonance":0.059},{"voice":2,"pitch":55,"start":89.75,"duration":0.25,"velocity":59,"measure":45,"beat":4.5,"subject_pos":-1,"motif":"","motif_pos":-1,"best_pos":0,"similarity":0.357,"stretto":false,"stretto_voices":0,"combination":[],"aug_dim":"","rhythm_ratio":1.0,"mirror":false,"chromatic_density":0.143,"complexity":0.599,"dissonance":0.059},{"voice":2,"pitch":60,"start":90.0,"duration":0.75,"velocity":59,"measure":46,"beat":1.0,"subject_pos":-1,"motif":"","motif_pos":-1,"best_pos":1,"similarity":0.429,"stretto":false,"stretto_voices":0,"combination":[],"aug_dim":"","rhythm_ratio":1.0,"mirror":false,"chromatic_density":0.0,"complexity":0.461,"dissonance":0.026},{"voice":1,"pitch":64,"start":90.25,"duration":0.25,"velocity":68,"measure":46,"beat":1.5,"subject_pos":-1,"motif":"","motif_pos":-1,"best_pos":0,"similarity":0.429,"stretto":false,"stretto_voices":0,"combination":[],"aug_dim":"","rhythm_ratio":1.0,"mirror":false,"chromatic_density":0.0,"complexity":0.461,"dissonance":0.026},{"voice":1,"pitch":69,"start":90.5,"duration":0.6927,"velocity":68,"measure":46,"beat":2.0,"subject_pos":-1,"motif":"","motif_pos":-1,"best_pos":1,"similarity":0.589,"stretto":false,"stretto_voices":0,"combination":[],"aug_dim":"","rhythm_ratio":1.0,"mirror":false,"chromatic_density":0.0,"complexity":0.461,"dissonance":0.026},{"voice":3,"pitch":53,"start":90.5,"duration":1.25,"velocity":53,"measure":46,"beat":2.0,"subject_pos":-1,"motif":"","motif_pos":-1,"best_pos":7,"similarity":0.429,"stretto":false,"stretto_voices":0,"combination":[],"aug_dim":"","rhythm_ratio":1.0,"mirror":false,"chromatic_density":0.0,"complexity":0.461,"dissonance":0.026},{"voice":2,"pitch":57,"start":90.75,"duration":0.25,"velocity":59,"measure":46,"beat":2.5,"subject_pos":-1,"motif":"","motif_pos":-1,"best_pos":0,"similarity":0.3,"stretto":false,"stretto_voices":0,"combination":[],"aug_dim":"","rhythm_ratio":1.0,"mirror":false,"chromatic_density":0.0,"complexity":0.461,"dissonance":0.026},{"voice":2,"pitch":62,"start":91.0,"duration":0.5,"velocity":59,"measure":46,"beat":3.0,"subject_pos":-1,"motif":"","motif_pos":-1,"best_pos":1,"similarity":0.314,"stretto":false,"stretto_voices":0,"combination":[],"aug_dim":"","rhythm_ratio":1.0,"mirror":false,"chromatic_density":0.0,"complexity":0.461,"dissonance":0.026},{"voice":1,"pitch":65,"start":91.25,"duration":0.25,"velocity":68,"measure":46,"beat":3.5,"subject_pos":-1,"motif":"","motif_pos":-1,"best_pos":2,"similarity":0.5,"stretto":false,"stretto_voices":0,"combination":[],"aug_dim":"","rhythm_ratio":1.0,"mirror":false,"chromatic_density":0.0,"complexity":0.461,"dissonance":0.026},{"voice":1,"pitch":70,"start":91.5,"duration":0.6927,"velocity":68,"measure":46,"beat":4.0,"subject_pos":-1,"motif":"","motif_pos":-1,"best_pos":1,"similarity":0.436,"stretto":false,"stretto_voices":0,"combination":[],"aug_dim":"","rhythm_ratio":1.0,"mirror":false,"chromatic_density":0.0,"complexity":0.461,"dissonance":0.026},{"voice":2,"pitch":55,"start":91.5,"duration":0.5,"velocity":59,"measure":46,"beat":4.0,"subject_pos":-1,"motif":"","motif_pos":-1,"best_pos":0,"similarity":0.3,"stretto":false,"stretto_voices":0,"combination":[],"aug_dim":"","rhythm_ratio":1.0,"mirror":false,"chromatic_density":0.0,"complexity":0.461,"dissonance":0.026},{"voice":3,"pitch":50,"start":91.75,"duration":0.25,"velocity":53,"measure":46,"beat":4.5,"subject_pos":-1,"motif":"","motif_pos":-1,"best_pos":3,"similarity":0.386,"stretto":false,"stretto_voices":0,"combination":[],"aug_dim":"","rhythm_ratio":1.0,"mirror":false,"chromatic_density":0.0,"complexity":0.461,"dissonance":0.026},{"voice":2,"pitch":60,"start":92.0,"duration":0.5,"velocity":59,"measure":47,"beat":1.0,"subject_pos":-1,"motif":"","motif_pos":-1,"best_pos":1,"similarity":0.314,"stretto":false,"stretto_voices":0,"combination":[],"aug_dim":"","rhythm_ratio":1.0,"mirror":false,"chromatic_density":0.111,"complexity":0.537,"dissonance":0.114},{"voice":3,"pitch":52,"start":92.0,"duration":0.75,"velocity":53,"measure":47,"beat":1.0,"subject_pos":-1,"motif":"","motif_pos":-1,"best_pos":2,"similarity":0.357,"stretto":false,"stretto_voices":0,"combination":[],"aug_dim":"","rhythm_ratio":1.0,"mirror":false,"chromatic_density":0.111,"complexity":0.537,"dissonance":0.114},{"voice":1,"pitch":67,"start":92.25,"duration":0.25,"velocity":68,"measure":47,"beat":1.5,"subject_pos":-1,"motif":"","motif_pos":-1,"best_pos":3,"similarity":0.386,"stretto":false,"stretto_voices":0,"combination":[],"aug_dim":"","rhythm_ratio":1.0,"mirror":false,"chromatic_density":0.111,"complexity":0.537,"dissonance":0.114},{"voice":1,"pitch":69,"start":92.5,"duration":0.6927,"velocity":68,"measure":47,"beat":2.0,"subject_pos":-1,"motif":"","motif_pos":-1,"best_pos":1,"similarity":0.35,"stretto":false,"stretto_voices":0,"combination":[],"aug_dim":"","rhythm_ratio":1.0,"mirror":false,"chromatic_density":0.111,"complexity":0.537,"dissonance":0.114},{"voice":2,"pitch":53,"start":92.5,"duration":0.5,"velocity":59,"measure":47,"beat":2.0,"subject_pos":-1,"motif":"","motif_pos":-1,"best_pos":0,"similarity":0.321,"stretto":false,"stretto_voices":0,"combination":[],"aug_dim":"","rhythm_ratio":1.0,"mirror":false,"chromatic_density":0.111,"complexity":0.537,"dissonance":0.114},{"voice":3,"pitch":49,"start":92.75,"duration":0.25,"velocity":53,"measure":47,"beat":2.5,"subject_pos":-1,"motif":"","motif_pos":-1,"best_pos":3,"similarity":0.457,"stretto":false,"stretto_voices":0,"combination":[],"aug_dim":"","rhythm_ratio":1.0,"mirror":false,"chromatic_density":0.111,"complexity":0.537,"dissonance":0.114},{"voice":2,"pitch":58,"start":93.0,"duration":0.5,"velocity":59,"measure":47,"beat":3.0,"subject_pos":-1,"motif":"","motif_pos":-1,"best_pos":1,"similarity":0.364,"stretto":false,"stretto_voices":0,"combination":[],"aug_dim":"","rhythm_ratio":1.0,"mirror":false,"chromatic_density":0.111,"complexity":0.537,"dissonance":0.114},{"voice":3,"pitch":50,"start":93.0,"duration":0.75,"velocity":53,"measure":47,"beat":3.0,"subject_pos":-1,"motif":"","motif_pos":-1,"best_pos":4,"similarity":0.393,"stretto":false,"stretto_voices":0,"combination":[],"aug_dim":"","rhythm_ratio":1.0,"mirror":false,"chromatic_density":0.111,"complexity":0.537,"dissonance":0.114},{"voice":1,"pitch":65,"start":93.25,"duration":0.25,"velocity":68,"measure":47,"beat":3.5,"subject_pos":-1,"motif":"","motif_pos":-1,"best_pos":5,"similarity":0.386,"stretto":false,"stretto_voices":0,"combination":[],"aug_dim":"","rhythm_ratio":1.0,"mirror":false,"chromatic_density":0.111,"complexity":0.537,"dissonance":0.114},{"voice":1,"pitch":67,"start":93.5,"duration":1.0,"velocity":68,"measure":47,"beat":4.0,"subject_pos":-1,"motif":"","motif_pos":-1,"best_pos":1,"similarity":0.457,"stretto":false,"stretto_voices":0,"combination":[],"aug_dim":"","rhythm_ratio":1.0,"mirror":false,"chromatic_density":0.111,"complexity":0.537,"dissonance":0.114},{"voice":2,"pitch":52,"start":93.5,"duration":0.5,"velocity":59,"measure":47,"beat":4.0,"subject_pos":-1,"motif":"","motif_pos":-1,"best_pos":0,"similarity":0.357,"stretto":false,"stretto_voices":0,"combination":[],"aug_dim":"","rhythm_ratio":1.0,"mirror":false,"chromatic_density":0.111,"complexity":0.537,"dissonance":0.114},{"voice":3,"pitch":47,"start":93.75,"duration":0.25,"velocity":53,"measure":47,"beat":4.5,"subject_pos":-1,"motif":"","motif_pos":-1,"best_pos":5,"similarity":0.421,"stretto":false,"stretto_voices":0,"combination":[],"aug_dim":"","rhythm_ratio":1.0,"mirror":false,"chromatic_density":0.111,"complexity":0.537,"dissonance":0.114},{"voice":2,"pitch":57,"start":94.0,"duration":1.0,"velocity":59,"measure":48,"beat":1.0,"subject_pos":-1,"motif":"","motif_pos":-1,"best_pos":1,"similarity":0.5,"stretto":false,"stretto_voices":0,"combination":[],"aug_dim":"","rhythm_ratio":1.0,"mirror":false,"chromatic_density":0.111,"complexity":0.62,"dissonance":0.075},{"voice":3,"pitch":49,"start":94.0,"duration":0.25,"velocity":53,"measure":48,"beat":1.0,"subject_pos":-1,"motif":"","motif_pos":-1,"best_pos":1,"similarity":0.35,"stretto":false,"stretto_voices":0,"combination":[],"aug_dim":"","rhythm_ratio":1.0,"mirror":false,"chromatic_density":0.111,"complexity":0.62,"dissonance":0.075},{"voice":3,"pitch":45,"start":94.25,"duration":0.25,"velocity":53,"measure":48,"beat":1.5,"subject_pos":-1,"motif":"head","motif_pos":0,"best_pos":0,"similarity":1.0,"stretto":false,"stretto_voices":0,"combination":[],"aug_dim":"","rhythm_ratio":1.0,"mirror":false,"chromatic_density":0.111,"complexity":0.62,"dissonance":0.075},{"voice":1,"pitch":65,"start":94.5,"duration":0.25,"velocity":68,"measure":48,"beat":2.0,"subject_pos":-1,"motif":"","motif_pos":-1,"best_pos":2,"similarity":0.593,"stretto":false,"stretto_voices":0,"combination":[],"aug_dim":"","rhythm_ratio":1.0,"mirror":false,"chromatic_density":0.111,"complexity":0.62,"dissonance":0.075},{"voice":3,"pitch":50,"start":94.5,"duration":0.6927,"velocity":53,"measure":48,"beat":2.0,"subject_pos":-1,"motif":"head","motif_pos":1,"best_pos":1,"similarity":1.0,"stretto":false,"stretto_voices":0,"combination":[],"aug_dim":"","rhythm_ratio":1.0,"mirror":false,"chromatic_density":0.111,"complexity":0.62,"dissonance":0.075},{"voice":1,"pitch":62,"start":94.75,"duration":0.25,"velocity":68,"measure":48,"beat":2.5,"subject_pos":-1,"motif":"","motif_pos":-1,"best_pos":3,"similarity":0.457,"stretto":false,"stretto_voices":0,"combination":[],"aug_dim":"","rhythm_ratio":1.0,"mirror":false,"chromatic_density":0.111,"complexity":0.62,"dissonance":0.075},{"voice":1,"pitch":69,"start":95.0,"duration":1.0,"velocity":68,"measure":48,"beat":3.0,"subject_pos":-1,"motif":"","motif_pos":-1,"best_pos":0,"similarity":0.393,"stretto":false,"stretto_voices":0,"combination":[],"aug_dim":"","rhythm_ratio":1.0,"mirror":false,"chromatic_density":0.111,"complexity":0.62,"dissonance":0.075},{"voice":2,"pitch":52,"start":95.0,"duration":0.4427,"velocity":59,"measure":48,"beat":3.0,"subject_pos":-1,"motif":"","motif_pos":-1,"best_pos":2,"similarity":0.436,"stretto":false,"stretto_voices":0,"combination":[],"aug_dim":"","rhythm_ratio":1.0,"mirror":false,"chromatic_density":0.111,"complexity":0.62,"dissonance":0.075},{"voice":3,"pitch":48,"start":95.25,"duration":0.25,"velocity":53,"measure":48,"beat":3.5,"subject_pos":-1,"motif":"head","motif_pos":2,"best_pos":2,"similarity":1.0,"stretto":false,"stretto_voices":0,"combination":[],"aug_dim":"","rhythm_ratio":1.0,"mirror":false,"chromatic_density":0.111,"complexity":0.62,"dissonance":0.075},{"voice":2,"pitch":57,"start":95.5,"duration":0.75,"velocity":59,"measure":48,"beat":4.0,"subject_pos":-1,"motif":"","motif_pos":-1,"best_pos":3,"similarity":0.514,"stretto":false,"stretto_voices":0,"combination":[],"aug_dim":"","rhythm_ratio":1.0,"mirror":false,"chromatic_density":0.111,"complexity":0.62,"dissonance":0.075},{"voice":3,"pitch":47,"start":95.5,"duration":0.25,"velocity":53,"measure":48,"beat":4.0,"subject_pos":-1,"motif":"head","motif_pos":3,"best_pos":3,"similarity":1.0,"stretto":false,"stretto_voices":0,"combination":[],"aug_dim":"","rhythm_ratio":1.0,"mirror":false,"chromatic_density":0.111,"complexity":0.62,"dissonance":0.075},{"voice":3,"pitch":45,"start":95.75,"duration":0.25,"velocity":53,"measure":48,"beat":4.5,"subject_pos":-1,"motif":"head","motif_pos":4,"best_pos":4,"similarity":1.0,"stretto":false,"stretto_voices":0,"combination":[],"aug_dim":"","rhythm_ratio":1.0,"mirror":false,"chromatic_density":0.111,"complexity":0.62,"dissonance":0.075},{"voice":1,"pitch":74,"start":96.0,"duration":1.25,"velocity":68,"measure":49,"beat":1.0,"subject_pos":-1,"motif":"","motif_pos":-1,"best_pos":1,"similarity":0.507,"stretto":false,"stretto_voices":0,"combination":[],"aug_dim":"","rhythm_ratio":1.0,"mirror":false,"chromatic_density":0.25,"complexity":0.535,"dissonance":0.121},{"voice":3,"pitch":47,"start":96.0,"duration":1.0,"velocity":53,"measure":49,"beat":1.0,"subject_pos":-1,"motif":"","motif_pos":-1,"best_pos":6,"similarity":0.4,"stretto":false,"stretto_voices":0,"combination":[],"aug_dim":"","rhythm_ratio":1.0,"mirror":false,"chromatic_density":0.25,"complexity":0.535,"dissonance":0.121},{"voice":2,"pitch":56,"start":96.25,"duration":0.25,"velocity":59,"measure":49,"beat":1.5,"subject_pos":-1,"motif":"","motif_pos":-1,"best_pos":4,"similarity":0.564,"stretto":false,"stretto_voices":0,"combination":[],"aug_dim":"","rhythm_ratio":1.0,"mirror":false,"chromatic_density":0.25,"complexity":0.535,"dissonance":0.121},{"voice":2,"pitch":54,"start":96.5,"duration":0.25,"velocity":59,"measure":49,"beat":2.0,"subject_pos":-1,"motif":"","motif_pos":-1,"best_pos":5,"similarity":0.6,"stretto":false,"stretto_voices":0,"combination":[],"aug_dim":"","rhythm_ratio":1.0,"mirror":false,"chromatic_density":0.25,"complexity":0.535,"dissonance":0.121},{"voice":2,"pitch":56,"start":96.75,"duration":0.25,"velocity":59,"measure":49,"beat":2.5,"subject_pos":-1,"motif":"","motif_pos":-1,"best_pos":6,"similarity":0.657,"stretto":false,"stretto_voices":0,"combination":[],"aug_dim":"","rhythm_ratio":1.0,"mirror":false,"chromatic_density":0.25,"complexity":0.535,"dissonance":0.121},{"voice":0,"pitch":76,"start":97.0,"duration":1.0,"velocity":76,"measure":49,"beat":3.0,"subject_pos":-1,"motif":"enigmatic_cell","motif_pos":2,"best_pos":2,"similarity":1.0,"stretto":false,"stretto_voices":0,"combination":[],"aug_dim":"","rhythm_ratio":1.0,"mirror":false,"chromatic_density":0.25,"complexity":0.535,"dissonance":0.121},{"voice":2,"pitch":57,"start":97.0,"duration":0.75,"velocity":59,"measure":49,"beat":3.0,"subject_pos":-1,"motif":"","motif_pos":-1,"best_pos":1,"similarity":0.457,"stretto":false,"stretto_voices":0,"combination":[],"aug_dim":"","rhythm_ratio":1.0,"mirror":false,"chromatic_density":0.25,"complexity":0.535,"dissonance":0.121},{"voice":3,"pitch":45,"start":97.0,"duration":0.5,"velocity":53,"measure":49,"beat":3.0,"subject_pos":-1,"motif":"","motif_pos":-1,"best_pos":0,"similarity":0.321,"stretto":false,"stretto_voices":0,"combination":[],"aug_dim":"","rhythm_ratio":1.0,"mirror":false,"chromatic_density":0.25,"complexity":0.535,"dissonance":0.121},{"voice":1,"pitch":73,"start":97.25,"duration":0.25,"velocity":68,"measure":49,"beat":3.5,"subject_pos":-1,"motif":"","motif_pos":-1,"best_pos":4,"similarity":0.529,"stretto":false,"stretto_voices":0,"combination":[],"aug_dim":"","rhythm_ratio":1.0,"mirror":false,"chromatic_density":0.25,"complexity":0.535,"dissonance":0.121},{"voice":1,"pitch":71,"start":97.5,"duration":0.25,"velocity":68,"measure":49,"beat":4.0,"subject_pos":-1,"motif":"","motif_pos":-1,"best_pos":5,"similarity":0.6,"stretto":false,"stretto_voices":0,"combination":[],"aug_dim":"","rhythm_ratio":1.0,"mirror":false,"chromatic_density":0.25,"complexity":0.535,"dissonance":0.121},{"voice":1,"pitch":73,"start":97.75,"duration":0.25,"velocity":68,"measure":49,"beat":4.5,"subject_pos":-1,"motif":"enigmatic_cell","motif_pos":0,"best_pos":0,"similarity":1.0,"stretto":false,"stretto_voices":0,"combination":[],"aug_dim":"","rhythm_ratio":1.0,"mirror":false,"chromatic_density":0.25,"complexity":0.535,"dissonance":0.121},{"voice":2,"pitch":55,"start":97.75,"duration":0.25,"velocity":59,"measure":49,"beat":4.5,"subject_pos":-1,"motif":"","motif_pos":-1,"best_pos":2,"similarity":0.593,"stretto":false,"stretto_voices":0,"combination":[],"aug_dim":"","rhythm_ratio":1.0,"mirror":false,"chromatic_density":0.25,"complexity":0.535,"dissonance":0.121},{"voice":0,"pitch":81,"start":98.0,"duration":1.0,"velocity":76,"measure":50,"beat":1.0,"subject_pos":-1,"motif":"","motif_pos":-1,"best_pos":1,"similarity":0.786,"stretto":false,"stretto_voices":0,"combination":[],"aug_dim":"","rhythm_ratio":1.0,"mirror":false,"chromatic_density":0.273,"complexity":0.589,"dissonance":0.083},{"voice":1,"pitch":74,"start":98.0,"duration":0.1927,"velocity":68,"measure":50,"beat":1.0,"subject_pos":-1,"motif":"enigmatic_cell","motif_pos":1,"best_pos":1,"similarity":1.0,"stretto":false,"stretto_voices":0,"combination":[],"aug_dim":"","rhythm_ratio":1.0,"mirror":false,"chromatic_density":0.273,"complexity":0.589,"dissonance":0.083},{"voice":2,"pitch":53,"start":98.0,"duration":0.25,"velocity":59,"measure":50,"beat":1.0,"subject_pos":-1,"motif":"","motif_pos":-1,"best_pos":3,"similarity":0.6,"stretto":false,"stretto_voices":0,"combination":[],"aug_dim":"","rhythm_ratio":1.0,"mirror":false,"chromatic_density":0.273,"complexity":0.589,"dissonance":0.083},{"voice":1,"pitch":69,"start":98.25,"duration":0.25,"velocity":68,"measure":50,"beat":1.5,"subject_pos":-1,"motif":"enigmatic_cell","motif_pos":2,"best_pos":2,"similarity":1.0,"stretto":false,"stretto_voices":0,"combination":[],"aug_dim":"","rhythm_ratio":1.0,"mirror":false,"chromatic_density":0.273,"complexity":0.589,"dissonance":0.083},{"voice":2,"pitch":52,"start":98.25,"duration":0.25,"velocity":59,"measure":50,"beat":1.5,"subject_pos":-1,"motif":"","motif_pos":-1,"best_pos":4,"similarity":0.543,"stretto":false,"stretto_voices":0,"combination":[],"aug_dim":"","rhythm_ratio":1.0,"mirror":false,"chromatic_density":0.273,"complexity":0.589,"dissonance":0.083},{"voice":1,"pitch":76,"start":98.5,"duration":0.6927,"velocity":68,"measure":50,"beat":2.0,"subject_pos":-1,"motif":"","motif_pos":-1,"best_pos":1,"similarity":0.314,"stretto":false,"stretto_voices":0,"combination":[],"aug_dim":"","rhythm_ratio":1.0,"mirror":false,"chromatic_density":0.273,"complexity":0.589,"dissonance":0.083},{"voice":2,"pitch":50,"start":98.5,"duration":0.25,"velocity":59,"measure":50,"beat":2.0,"subject_pos":-1,"motif":"","motif_pos":-1,"best_pos":3,"similarity":0.679,"stretto":false,"stretto_voices":0,"combination":[],"aug_dim":"","rhythm_ratio":1.0,"mirror":false,"chromatic_density":0.273,"complexity":0.589,"dissonance":0.083},{"voice":2,"pitch":49,"start":98.75,"duration":0.25,"velocity":59,"measure":50,"beat":2.5,"subject_pos":-1,"motif":"","motif_pos":-1,"best_pos":4,"similarity":0.757,"stretto":false,"stretto_voices":0,"combination":[],"aug_dim":"","rhythm_ratio":1.0,"mirror":false,"chromatic_density":0.273,"complexity":0.589,"dissonance":0.083},{"voice":0,"pitch":77,"start":99.0,"duration":1.0,"velocity":76,"measure":50,"beat":3.0,"subject_pos":-1,"motif":"","motif_pos":-1,"best_pos":2,"similarity":0.929,"stretto":false,"stretto_voices":0,"combination":[],"aug_dim":"","rhythm_ratio":1.0,"mirror":false,"chromatic_density":0.273,"complexity":0.589,"dissonance":0.083},{"voice":2,"pitch":50,"start":99.0,"duration":0.4427,"velocity":59,"measure":50,"beat":3.0,"subject_pos":-1,"motif":"","motif_pos":-1,"best_pos":5,"similarity":0.621,"stretto":false,"stretto_voices":0,"combination":[],"aug_dim":"","rhythm_ratio":1.0,"mirror":false,"chromatic_density":0.273,"complexity":0.589,"dissonance":0.083},{"voice":1,"pitch":69,"start":99.25,"duration":0.25,"velocity":68,"measure":50,"beat":3.5,"subject_pos":-1,"motif":"","motif_pos":-1,"best_pos":0,"similarity":0.286,"stretto":false,"stretto_voices":0,"combination":[],"aug_dim":"","rhythm_ratio":1.0,"mirror":false,"chromatic_density":0.273,"complexity":0.589,"dissonance":0.083},{"voice":1,"pitch":74,"start":99.5,"duration":0.5,"velocity":68,"measure":50,"beat":4.0,"subject_pos":-1,"motif":"","motif_pos":-1,"best_pos":1,"similarity":0.286,"stretto":false,"stretto_voices":0,"combination":[],"aug_dim":"","rhythm_ratio":1.0,"mirror":false,"chromatic_density":0.273,"complexity":0.589,"dissonance":0.083},{"voice":2,"pitch":53,"start":99.5,"duration":0.25,"velocity":59,"measure":50,"beat":4.0,"subject_pos":-1,"motif":"","motif_pos":-1,"best_pos":6,"similarity":0.386,"stretto":false,"stretto_voices":0,"combination":[],"aug_dim":"","rhythm_ratio":1.0,"mirror":false,"chromatic_density":0.273,"complexity":0.589,"dissonance":0.083},{"voice":2,"pitch":50,"start":99.75,"duration":0.25,"velocity":59,"measure":50,"beat":4.5,"subject_pos":-1,"motif":"","motif_pos":-1,"best_pos":3,"similarity":0.307,"stretto":false,"stretto_voices":0,"combination":[],"aug_dim":"","rhythm_ratio":1.0,"mirror":false,"chromatic_density":0.273,"complexity":0.589,"dissonance":0.083},{"voice":0,"pitch":74,"start":100.0,"duration":1.0,"velocity":76,"measure":51,"beat":1.0,"subject_pos":-1,"motif":"tail","motif_pos":3,"best_pos":3,"similarity":1.0,"stretto":false,"stretto_voices":0,"combination":[],"aug_dim":"","rhythm_ratio":1.0,"mirror":false,"chromatic_density":0.125,"complexity":0.534,"dissonance":0.105},{"voice":2,"pitch":58,"start":100.0,"duration":0.5,"velocity":59,"measure":51,"beat":1.0,"subject_pos":-1,"motif":"","motif_pos":-1,"best_pos":1,"similarity":0.429,"stretto":false,"stretto_voices":0,"combination":[],"aug_dim":"","rhythm_ratio":1.0,"mirror":false,"chromatic_density":0.125,"complexity":0.534,"dissonance":0.105},{"voice":1,"pitch":65,"start":100.25,"duration":0.25,"velocity":68,"measure":51,"beat":1.5,"subject_pos":-1,"motif":"","motif_pos":-1,"best_pos":0,"similarity":0.321,"stretto":false,"stretto_voices":0,"combination":[],"aug_dim":"","rhythm_ratio":1.0,"mirror":false,"chromatic_density":0.125,"complexity":0.534,"dissonance":0.105},{"voice":1,"pitch":70,"start":100.5,"duration":0.6927,"velocity":68,"measure":51,"beat":2.0,"subject_pos":-1,"motif":"","motif_pos":-1,"best_pos":1,"similarity":0.393,"stretto":false,"stretto_voices":0,"combination":[],"aug_dim":"","rhythm_ratio":1.0,"mirror":false,"chromatic_density":0.125,"complexity":0.534,"dissonance":0.105},{"voice":2,"pitch":55,"start":100.5,"duration":0.25,"velocity":59,"measure":51,"beat":2.0,"subject_pos":-1,"motif":"","motif_pos":-1,"best_pos":2,"similarity":0.5,"stretto":false,"stretto_voices":0,"combination":[],"aug_dim":"","rhythm_ratio":1.0,"mirror":false,"chromatic_density":0.125,"complexity":0.534,"dissonance":0.105},{"voice":2,"pitch":52,"start":100.75,"duration":0.25,"velocity":59,"measure":51,"beat":2.5,"subject_pos":-1,"motif":"","motif_pos":-1,"best_pos":3,"similarity":0.393,"stretto":false,"stretto_voices":0,"combination":[],"aug_dim":"","rhythm_ratio":1.0,"mirror":false,"chromatic_density":0.125,"complexity":0.534,"dissonance":0.105},{"voice":0,"pitch":73,"start":101.0,"duration":1.0,"velocity":76,"measure":51,"beat":3.0,"subject_pos":-1,"motif":"tail","motif_pos":4,"best_pos":4,"similarity":1.0,"stretto":false,"stretto_voices":0,"combination":[],"aug_dim":"","rhythm_ratio":1.0,"mirror":false,"chromatic_density":0.125,"complexity":0.534,"dissonance":0.105},{"voice":2,"pitch":57,"start":101.0,"duration":0.6927,"velocity":59,"measure":51,"beat":3.0,"subject_pos":-1,"motif":"","motif_pos":-1,"best_pos":1,"similarity":0.307,"stretto":false,"stretto_voices":0,"combination":[],"aug_dim":"","rhythm_ratio":1.0,"mirror":false,"chromatic_density":0.125,"complexity":0.534,"dissonance":0.105},{"voice":1,"pitch":64,"start":101.25,"duration":0.25,"velocity":68,"measure":51,"beat":3.5,"subject_pos":-1,"motif":"","motif_pos":-1,"best_pos":0,"similarity":0.464,"stretto":false,"stretto_voices":0,"combination":[],"aug_dim":"","rhythm_ratio":1.0,"mirror":false,"chromatic_density":0.125,"complexity":0.534,"dissonance":0.105},{"voice":1,"pitch":69,"start":101.5,"duration":0.75,"velocity":68,"measure":51,"beat":4.0,"subject_pos":-1,"motif":"","motif_pos":-1,"best_pos":1,"similarity":0.714,"stretto":false,"stretto_voices":0,"combination":[],"aug_dim":"","rhythm_ratio":1.0,"mirror":false,"chromatic_density":0.125,"complexity":0.534,"dissonance":0.105},{"voice":2,"pitch":65,"start":101.75,"duration":0.25,"velocity":59,"measure":51,"beat":4.5,"subject_pos":-1,"motif":"","motif_pos":-1,"best_pos":2,"similarity":0.257,"stretto":false,"stretto_voices":0,"combination":[],"aug_dim":"","rhythm_ratio":1.0,"mirror":false,"chromatic_density":0.125,"complexity":0.534,"dissonance":0.105},{"voice":0,"pitch":74,"start":102.0,"duration":0.5,"velocity":76,"measure":52,"beat":1.0,"subject_pos":-1,"motif":"tail","motif_pos":5,"best_pos":5,"similarity":1.0,"stretto":false,"stretto_voices":0,"combination":[],"aug_dim":"","rhythm_ratio":1.0,"mirror":false,"chromatic_density":0.25,"complexity":0.535,"dissonance":0.068},{"voice":2,"pitch":59,"start":102.0,"duration":0.5,"velocity":59,"measure":52,"beat":1.0,"subject_pos":-1,"motif":"","motif_pos":-1,"best_pos":5,"similarity":0.429,"stretto":false,"stretto_voices":0,"combination":[],"aug_dim":"","rhythm_ratio":1.0,"mirror":false,"chromatic_density":0.25,"complexity":0.535,"dissonance":0.068},{"voice":1,"pitch":67,"start":102.25,"duration":0.25,"velocity":68,"measure":52,"beat":1.5,"subject_pos":-1,"motif":"","motif_pos":-1,"best_pos":2,"similarity":0.721,"stretto":false,"stretto_voices":0,"combination":[],"aug_dim":"","rhythm_ratio":1.0,"mirror":false,"chromatic_density":0.25,"complexity":0.535,"dissonance":0.068},{"voice":0,"pitch":76,"start":102.5,"duration":0.5,"velocity":76,"measure":52,"beat":2.0,"subject_pos":-1,"motif":"tail","motif_pos":6,"best_pos":6,"similarity":1.0,"stretto":false,"stretto_voices":0,"combination":[],"aug_dim":"","rhythm_ratio":1.0,"mirror":false,"chromatic_density":0.25,"complexity":0.535,"dissonance":0.068},{"voice":1,"pitch":65,"start":102.5,"duration":0.25,"velocity":68,"measure":52,"beat":2.0,"subject_pos":-1,"motif":"","motif_pos":-1,"best_pos":3,"similarity":0.657,"stretto":false,"stretto_voices":0,"combination":[],"aug_dim":"","rhythm_ratio":1.0,"mirror":false,"chromatic_density":0.25,"complexity":0.535,"dissonance":0.068},{"voice":2,"pitch":61,"start":102.5,"duration":0.5,"velocity":59,"measure":52,"beat":2.0,"subject_pos":-1,"motif":"","motif_pos":-1,"best_pos":6,"similarity":0.571,"stretto":false,"stretto_voices":0,"combination":[],"aug_dim":"","rhythm_ratio":1.0,"mirror":false,"chromatic_density":0.25,"complexity":0.535,"dissonance":0.068},{"voice":1,"pitch":64,"start":102.75,"duration":0.25,"velocity":68,"measure":52,"beat":2.5,"subject_pos":-1,"motif":"","motif_pos":-1,"best_pos":4,"similarity":0.464,"stretto":false,"stretto_voices":0,"combination":[],"aug_dim":"","rhythm_ratio":1.0,"mirror":false,"chromatic_density":0.25,"complexity":0.535,"dissonance":0.068},{"voice":0,"pitch":77,"start":103.0,"duration":1.4115,"velocity":76,"measure":52,"beat":3.0,"subject_pos":-1,"motif":"tail","motif_pos":7,"best_pos":7,"similarity":1.0,"stretto":false,"stretto_voices":0,"combination":[],"aug_dim":"","rhythm_ratio":1.0,"mirror":false,"chromatic_density":0.25,"complexity":0.535,"dissonance":0.068},{"voice":1,"pitch":62,"start":103.0,"duration":0.25,"velocity":68,"measure":52,"beat":3.0,"subject_pos":-1,"motif":"","motif_pos":-1,"best_pos":0,"similarity":0.321,"stretto":false,"stretto_voices":0,"combination":[],"aug_dim":"","rhythm_ratio":1.0,"mirror":false,"chromatic_density":0.25,"complexity":0.535,"dissonance":0.068},{"voice":2,"pitch":62,"start":103.0,"duration":0.5,"velocity":59,"measure":52,"beat":3.0,"subject_pos":-1,"motif":"","motif_pos":-1,"best_pos":1,"similarity":0.457,"stretto":false,"stretto_voices":0,"combination":[],"aug_dim":"","rhythm_ratio":1.0,"mirror":false,"chromatic_density":0.25,"complexity":0.535,"dissonance":0.068},{"voice":1,"pitch":69,"start":103.25,"duration":0.25,"velocity":68,"measure":52,"beat":3.5,"subject_pos":-1,"motif":"","motif_pos":-1,"best_pos":0,"similarity":0.5,"stretto":false,"stretto_voices":0,"combination":[],"aug_dim":"","rhythm_ratio":1.0,"mirror":false,"chromatic_density":0.25,"complexity":0.535,"dissonance":0.068},{"voice":1,"pitch":74,"start":103.5,"duration":0.25,"velocity":68,"measure":52,"beat":4.0,"subject_pos":-1,"motif":"","motif_pos":-1,"best_pos":1,"similarity":0.732,"stretto":false,"stretto_voices":0,"combination":[],"aug_dim":"","rhythm_ratio":1.0,"mirror":false,"chromatic_density":0.25,"complexity":0.535,"dissonance":0.068},{"voice":2,"pitch":58,"start":103.5,"duration":0.25,"velocity":59,"measure":52,"beat":4.0,"subject_pos":-1,"motif":"","motif_pos":-1,"best_pos":2,"similarity":0.593,"stretto":false,"stretto_voices":0,"combination":[],"aug_dim":"","rhythm_ratio":1.0,"mirror":false,"chromatic_density":0.25,"complexity":0.535,"dissonance":0.068},{"voice":1,"pitch":70,"start":103.75,"duration":0.25,"velocity":68,"measure":52,"beat":4.5,"subject_pos":-1,"motif":"","motif_pos":-1,"best_pos":2,"similarity":0.75,"stretto":false,"stretto_voices":0,"combination":[],"aug_dim":"","rhythm_ratio":1.0,"mirror":false,"chromatic_density":0.25,"complexity":0.535,"dissonance":0.068},{"voice":2,"pitch":55,"start":103.75,"duration":0.25,"velocity":59,"measure":52,"beat":4.5,"subject_pos":-1,"motif":"","motif_pos":-1,"best_pos":3,"similarity":0.45,"stretto":false,"stretto_voices":0,"combination":[],"aug_dim":"","rhythm_ratio":1.0,"mirror":false,"chromatic_density":0.25,"complexity":0.535,"dissonance":0.068},{"voice":1,"pitch":67,"start":104.0,"duration":0.25,"velocity":68,"measure":53,"beat":1.0,"subject_pos":-1,"motif":"","motif_pos":-1,"best_pos":3,"similarity":0.579,"stretto":false,"stretto_voices":0,"combination":[],"aug_dim":"","rhythm_ratio":1.0,"mirror":false,"chromatic_density":0.083,"complexity":0.56,"dissonance":0.127},{"voice":2,"pitch":60,"start":104.0,"duration":0.5,"velocity":59,"measure":53,"beat":1.0,"subject_pos":-1,"motif":"","motif_pos":-1,"best_pos":1,"similarity":0.5,"stretto":false,"stretto_voices":0,"combination":[],"aug_dim":"","rhythm_ratio":1.0,"mirror":false,"chromatic_density":0.083,"complexity":0.56,"dissonance":0.127},{"voice":0,"pitch":79,"start":104.25,"duration":0.4115,"velocity":76,"measure":53,"beat":1.5,"subject_pos":-1,"motif":"","motif_pos":-1,"best_pos":6,"similarity":0.464,"stretto":false,"stretto_voices":0,"combination":[],"aug_dim":"","rhythm_ratio":1.0,"mirror":false,"chromatic_density":0.083,"complexity":0.56,"dissonance":0.127},{"voice":1,"pitch":64,"start":104.25,"duration":0.25,"velocity":68,"measure":53,"beat":1.5,"subject_pos":-1,"motif":"","motif_pos":-1,"best_pos":3,"similarity":0.379,"stretto":false,"stretto_voices":0,"combination":[],"aug_dim":"","rhythm_ratio":1.0,"mirror":false,"chromatic_density":0.083,"complexity":0.56,"dissonance":0.127},{"voice":0,"pitch":77,"start":104.5,"duration":0.4115,"velocity":76,"measure":53,"beat":2.0,"subject_pos":-1,"motif":"","motif_pos":-1,"best_pos":3,"similarity":0.536,"stretto":false,"stretto_voices":0,"combination":[],"aug_dim":"","rhythm_ratio":1.0,"mirror":false,"chromatic_density":0.083,"complexity":0.56,"dissonance":0.127},{"voice":1,"pitch":72,"start":104.5,"duration":1.0,"velocity":68,"measure":53,"beat":2.0,"subject_pos":-1,"motif":"","motif_pos":-1,"best_pos":1,"similarity":0.5,"stretto":false,"stretto_voices":0,"combination":[],"aug_dim":"","rhythm_ratio":1.0,"mirror":false,"chromatic_density":0.083,"complexity":0.56,"dissonance":0.127},{"voice":2,"pitch":57,"start":104.5,"duration":0.25,"velocity":59,"measure":53,"beat":2.0,"subject_pos":-1,"motif":"","motif_pos":-1,"best_pos":2,"similarity":0.436,"stretto":false,"stretto_voices":0,"combination":[],"aug_dim":"","rhythm_ratio":1.0,"mirror":false,"chromatic_density":0.083,"complexity":0.56,"dissonance":0.127},{"voice":0,"pitch":76,"start":104.75,"duration":0.4115,"velocity":76,"measure":53,"beat":2.5,"subject_pos":-1,"motif":"","motif_pos":-1,"best_pos":4,"similarity":0.543,"stretto":false,"stretto_voices":0,"combination":[],"aug_dim":"","rhythm_ratio":1.0,"mirror":false,"chromatic_density":0.083,"complexity":0.56,"dissonance":0.127},{"voice":2,"pitch":53,"start":104.75,"duration":0.25,"velocity":59,"measure":53,"beat":2.5,"subject_pos":-1,"motif":"","motif_pos":-1,"best_pos":3,"similarity":0.307,"stretto":false,"stretto_voices":0,"combination":[],"aug_dim":"","rhythm_ratio":1.0,"mirror":false,"chromatic_density":0.083,"complexity":0.56,"dissonance":0.127},{"voice":0,"pitch":74,"start":105.0,"duration":0.9115,"velocity":76,"measure":53,"beat":3.0,"subject_pos":-1,"motif":"","motif_pos":-1,"best_pos":5,"similarity":0.507,"stretto":false,"stretto_voices":0,"combination":[],"aug_dim":"","rhythm_ratio":1.0,"mirror":false,"chromatic_density":0.083,"complexity":0.56,"dissonance":0.127},{"voice":2,"pitch":58,"start":105.0,"duration":0.25,"velocity":59,"measure":53,"beat":3.0,"subject_pos":-1,"motif":"","motif_pos":-1,"best_pos":1,"similarity":0.304,"stretto":false,"stretto_voices":0,"combination":[],"aug_dim":"","rhythm_ratio":1.0,"mirror":false,"chromatic_density":0.083,"complexity":0.56,"dissonance":0.127},{"voice":2,"pitch":62,"start":105.25,"duration":0.25,"velocity":59,"measure":53,"beat":3.5,"subject_pos":-1,"motif":"","motif_pos":-1,"best_pos":0,"similarity":0.364,"stretto":false,"stretto_voices":0,"combination":[],"aug_dim":"","rhythm_ratio":1.0,"mirror":false,"chromatic_density":0.083,"complexity":0.56,"dissonance":0.127},{"voice":1,"pitch":70,"start":105.5,"duration":0.5,"velocity":68,"measure":53,"beat":4.0,"subject_pos":-1,"motif":"","motif_pos":-1,"best_pos":2,"similarity":0.507,"stretto":false,"stretto_voices":0,"combination":[],"aug_dim":"","rhythm_ratio":1.0,"mirror":false,"chromatic_density":0.083,"complexity":0.56,"dissonance":0.127},{"voice":2,"pitch":67,"start":105.5,"duration":0.6927,"velocity":59,"measure":53,"beat":4.0,"subject_pos":-1,"motif":"","motif_pos":-1,"best_pos":1,"similarity":0.479,"stretto":false,"stretto_voices":0,"combination":[],"aug_dim":"","rhythm_ratio":1.0,"mirror":false,"chromatic_density":0.083,"complexity":0.56,"dissonance":0.127},{"voice":0,"pitch":76,"start":105.75,"duration":0.4115,"velocity":76,"measure":53,"beat":4.5,"subject_pos":-1,"motif":"","motif_pos":-1,"best_pos":6,"similarity":0.4,"stretto":false,"stretto_voices":0,"combination":[],"aug_dim":"","rhythm_ratio":1.0,"mirror":false,"chromatic_density":0.083,"complexity":0.56,"dissonance":0.127},{"voice":0,"pitch":73,"start":106.0,"duration":0.5,"velocity":76,"measure":54,"beat":1.0,"subject_pos":-1,"motif":"","motif_pos":-1,"best_pos":4,"similarity":0.5,"stretto":false,"stretto_voices":0,"combination":[],"aug_dim":"","rhythm_ratio":1.0,"mirror":false,"chromatic_density":0.429,"complexity":0.492,"dissonance":0.094},{"voice":1,"pitch":69,"start":106.0,"duration":1.0,"velocity":68,"measure":54,"beat":1.0,"subject_pos":-1,"motif":"","motif_pos":-1,"best_pos":1,"similarity":0.429,"stretto":false,"stretto_voices":0,"combination":[],"aug_dim":"","rhythm_ratio":1.0,"mirror":false,"chromatic_density":0.429,"complexity":0.492,"dissonance":0.094},{"voice":2,"pitch":64,"start":106.25,"duration":0.25,"velocity":59,"measure":54,"beat":1.5,"subject_pos":-1,"motif":"","motif_pos":-1,"best_pos":3,"similarity":0.471,"stretto":false,"stretto_voices":0,"combination":[],"aug_dim":"","rhythm_ratio":1.0,"mirror":false,"chromatic_density":0.429,"complexity":0.492,"dissonance":0.094},{"voice":0,"pitch":74,"start":106.5,"duration":0.4115,"velocity":76,"measure":54,"beat":2.0,"subject_pos":-1,"motif":"","motif_pos":-1,"best_pos":5,"similarity":0.464,"stretto":false,"stretto_voices":0,"combination":[],"aug_dim":"","rhythm_ratio":1.0,"mirror":false,"chromatic_density":0.429,"complexity":0.492,"dissonance":0.094},{"voice":2,"pitch":65,"start":106.5,"duration":0.6927,"velocity":59,"measure":54,"beat":2.0,"subject_pos":-1,"motif":"","motif_pos":-1,"best_pos":5,"similarity":0.429,"stretto":false,"stretto_voices":0,"combination":[],"aug_dim":"","rhythm_ratio":1.0,"mirror":false,"chromatic_density":0.429,"complexity":0.492,"dissonance":0.094},{"voice":0,"pitch":77,"start":106.75,"duration":0.4115,"velocity":76,"measure":54,"beat":2.5,"subject_pos":-1,"motif":"","motif_pos":-1,"best_pos":6,"similarity":0.304,"stretto":false,"stretto_voices":0,"combination":[],"aug_dim":"","rhythm_ratio":1.0,"mirror":false,"chromatic_density":0.429,"complexity":0.492,"dissonance":0.094},{"voice":1,"pitch":67,"start":107.0,"duration":0.75,"velocity":68,"measure":54,"beat":3.0,"subject_pos":-1,"motif":"","motif_pos":-1,"best_pos":2,"similarity":0.579,"stretto":false,"stretto_voices":0,"combination":[],"aug_dim":"","rhythm_ratio":1.0,"mirror":false,"chromatic_density":0.429,"complexity":0.492,"dissonance":0.094},{"voice":2,"pitch":65,"start":107.25,"duration":0.25,"velocity":59,"measure":54,"beat":3.5,"subject_pos":-1,"motif":"","motif_pos":-1,"best_pos":3,"similarity":0.35,"stretto":false,"stretto_voices":0,"combination":[],"aug_dim":"","rhythm_ratio":1.0,"mirror":false,"chromatic_density":0.429,"complexity":0.492,"dissonance":0.094},{"voice":2,"pitch":64,"start":107.5,"duration":0.25,"velocity":59,"measure":54,"beat":4.0,"subject_pos":-1,"motif":"","motif_pos":-1,"best_pos":2,"similarity":0.5,"stretto":false,"stretto_voices":0,"combination":[],"aug_dim":"","rhythm_ratio":1.0,"mirror":false,"chromatic_density":0.429,"complexity":0.492,"dissonance":0.094},{"voice":1,"pitch":65,"start":107.75,"duration":0.25,"velocity":68,"measure":54,"beat":4.5,"subject_pos":-1,"motif":"","motif_pos":-1,"best_pos":3,"similarity":0.593,"stretto":false,"stretto_voices":0,"combination":[],"aug_dim":"","rhythm_ratio":1.0,"mirror":false,"chromatic_density":0.429,"complexity":0.492,"dissonance":0.094},{"voice":2,"pitch":62,"start":107.75,"duration":0.25,"velocity":59,"measure":54,"beat":4.5,"subject_pos":-1,"motif":"","motif_pos":-1,"best_pos":3,"similarity":0.65,"stretto":false,"stretto_voices":0,"combination":[],"aug_dim":"","rhythm_ratio":1.0,"mirror":false,"chromatic_density":0.429,"complexity":0.492,"dissonance":0.094},{"voice":1,"pitch":64,"start":108.0,"duration":1.5,"velocity":68,"measure":55,"beat":1.0,"subject_pos":-1,"motif":"","motif_pos":-1,"best_pos":4,"similarity":0.543,"stretto":false,"stretto_voices":0,"combination":[],"aug_dim":"","rhythm_ratio":1.0,"mirror":false,"chromatic_density":0.444,"complexity":0.43,"dissonance":0.105},{"voice":2,"pitch":61,"start":108.0,"duration":1.0,"velocity":59,"measure":55,"beat":1.0,"subject_pos":-1,"motif":"","motif_pos":-1,"best_pos":4,"similarity":0.7,"stretto":false,"stretto_voices":0,"combination":[],"aug_dim":"","rhythm_ratio":1.0,"mirror":false,"chromatic_density":0.444,"complexity":0.43,"dissonance":0.105},{"voice":0,"pitch":70,"start":108.25,"duration":0.1615,"velocity":76,"measure":55,"beat":1.5,"subject_pos":-1,"motif":"","motif_pos":-1,"best_pos":3,"similarity":0.343,"stretto":false,"stretto_voices":0,"combination":[],"aug_dim":"","rhythm_ratio":1.0,"mirror":false,"chromatic_density":0.444,"complexity":0.43,"dissonance":0.105},{"voice":0,"pitch":69,"start":108.5,"duration":0.4115,"velocity":76,"measure":55,"beat":2.0,"subject_pos":-1,"motif":"","motif_pos":-1,"best_pos":2,"similarity":0.364,"stretto":false,"stretto_voices":0,"combination":[],"aug_dim":"","rhythm_ratio":1.0,"mirror":false,"chromatic_density":0.444,"complexity":0.43,"dissonance":0.105},{"voice":0,"pitch":67,"start":108.75,"duration":0.4115,"velocity":76,"measure":55,"beat":2.5,"subject_pos":-1,"motif":"","motif_pos":-1,"best_pos":2,"similarity":0.446,"stretto":false,"stretto_voices":0,"combination":[],"aug_dim":"","rhythm_ratio":1.0,"mirror":false,"chromatic_density":0.444,"complexity":0.43,"dissonance":0.105},{"voice":0,"pitch":65,"start":109.0,"duration":1.0,"velocity":76,"measure":55,"beat":3.0,"subject_pos":-1,"motif":"","motif_pos":-1,"best_pos":2,"similarity":0.429,"stretto":false,"stretto_voices":0,"combination":[],"aug_dim":"","rhythm_ratio":1.0,"mirror":false,"chromatic_density":0.444,"complexity":0.43,"dissonance":0.105},{"voice":2,"pitch":62,"start":109.0,"duration":0.25,"velocity":59,"measure":55,"beat":3.0,"subject_pos":-1,"motif":"","motif_pos":-1,"best_pos":5,"similarity":0.507,"stretto":false,"stretto_voices":0,"combination":[],"aug_dim":"","rhythm_ratio":1.0,"mirror":false,"chromatic_density":0.444,"complexity":0.43,"dissonance":0.105},{"voice":2,"pitch":60,"start":109.25,"duration":0.25,"velocity":59,"measure":55,"beat":3.5,"subject_pos":-1,"motif":"","motif_pos":-1,"best_pos":2,"similarity":0.593,"stretto":false,"stretto_voices":0,"combination":[],"aug_dim":"","rhythm_ratio":1.0,"mirror":false,"chromatic_density":0.444,"complexity":0.43,"dissonance":0.105},{"voice":1,"pitch":62,"start":109.5,"duration":0.25,"velocity":68,"measure":55,"beat":4.0,"subject_pos":-1,"motif":"","motif_pos":-1,"best_pos":3,"similarity":0.65,"stretto":false,"stretto_voices":0,"combination":[],"aug_dim":"","rhythm_ratio":1.0,"mirror":false,"chromatic_density":0.444,"complexity":0.43,"dissonance":0.105},{"voice":2,"pitch":58,"start":109.5,"duration":0.25,"velocity":59,"measure":55,"beat":4.0,"subject_pos":-1,"motif":"","motif_pos":-1,"best_pos":3,"similarity":0.664,"stretto":false,"stretto_voices":0,"combination":[],"aug_dim":"","rhythm_ratio":1.0,"mirror":false,"chromatic_density":0.444,"complexity":0.43,"dissonance":0.105},{"voice":1,"pitch":61,"start":109.75,"duration":0.25,"velocity":68,"measure":55,"beat":4.5,"subject_pos":-1,"motif":"","motif_pos":-1,"best_pos":4,"similarity":0.7,"stretto":false,"stretto_voices":0,"combination":[],"aug_dim":"","rhythm_ratio":1.0,"mirror":false,"chromatic_density":0.444,"complexity":0.43,"dissonance":0.105},{"voice":2,"pitch":57,"start":109.75,"duration":0.25,"velocity":59,"measure":55,"beat":4.5,"subject_pos":-1,"motif":"","motif_pos":-1,"best_pos":4,"similarity":0.671,"stretto":false,"stretto_voices":0,"combination":[],"aug_dim":"","rhythm_ratio":1.0,"mirror":false,"chromatic_density":0.444,"complexity":0.43,"dissonance":0.105},{"voice":0,"pitch":70,"start":110.0,"duration":1.0,"velocity":76,"measure":56,"beat":1.0,"subject_pos":-1,"motif":"enigmatic_cell","motif_pos":0,"best_pos":0,"similarity":1.0,"stretto":false,"stretto_voices":0,"combination":[],"aug_dim":"","rhythm_ratio":1.0,"mirror":false,"chromatic_density":0.222,"complexity":0.603,"dissonance":0.097},{"voice":1,"pitch":62,"start":110.0,"duration":0.4427,"velocity":68,"measure":56,"beat":1.0,"subject_pos":-1,"motif":"","motif_pos":-1,"best_pos":5,"similarity":0.507,"stretto":false,"stretto_voices":0,"combination":[],"aug_dim":"","rhythm_ratio":1.0,"mirror":false,"chromatic_density":0.222,"complexity":0.603,"dissonance":0.097},{"voice":2,"pitch":55,"start":110.0,"duration":0.25,"velocity":59,"measure":56,"beat":1.0,"subject_pos":-1,"motif":"","motif_pos":-1,"best_pos":5,"similarity":0.636,"stretto":false,"stretto_voices":0,"combination":[],"aug_dim":"","rhythm_ratio":1.0,"mirror":false,"chromatic_density":0.222,"complexity":0.603,"dissonance":0.097},{"voice":2,"pitch":57,"start":110.25,"duration":0.25,"velocity":59,"measure":56,"beat":1.5,"subject_pos":-1,"motif":"","motif_pos":-1,"best_pos":6,"similarity":0.657,"stretto":false,"stretto_voices":0,"combination":[],"aug_dim":"","rhythm_ratio":1.0,"mirror":false,"chromatic_density":0.222,"complexity":0.603,"dissonance":0.097},{"voice":1,"pitch":67,"start":110.5,"duration":1.25,"velocity":68,"measure":56,"beat":2.0,"subject_pos":-1,"motif":"","motif_pos":-1,"best_pos":1,"similarity":0.643,"stretto":false,"stretto_voices":0,"combination":[],"aug_dim":"","rhythm_ratio":1.0,"mirror":false,"chromatic_density":0.222,"complexity":0.603,"dissonance":0.097},{"voice":2,"pitch":58,"start":110.5,"duration":0.25,"velocity":59,"measure":56,"beat":2.0,"subject_pos":-1,"motif":"","motif_pos":-1,"best_pos":5,"similarity":0.693,"stretto":false,"stretto_voices":0,"combination":[],"aug_dim":"","rhythm_ratio":1.0,"mirror":false,"chromatic_density":0.222,"complexity":0.603,"dissonance":0.097},{"voice":2,"pitch":60,"start":110.75,"duration":0.25,"velocity":59,"measure":56,"beat":2.5,"subject_pos":-1,"motif":"","motif_pos":-1,"best_pos":6,"similarity":0.579,"stretto":false,"stretto_voices":0,"combination":[],"aug_dim":"","rhythm_ratio":1.0,"mirror":false,"chromatic_density":0.222,"complexity":0.603,"dissonance":0.097},{"voice":0,"pitch":69,"start":111.0,"duration":1.5,"velocity":76,"measure":56,"beat":3.0,"subject_pos":-1,"motif":"enigmatic_cell","motif_pos":1,"best_pos":1,"similarity":1.0,"stretto":false,"stretto_voices":0,"combination":[],"aug_dim":"","rhythm_ratio":1.0,"mirror":false,"chromatic_density":0.222,"complexity":0.603,"dissonance":0.097},{"voice":2,"pitch":62,"start":111.0,"duration":0.25,"velocity":59,"measure":56,"beat":3.0,"subject_pos":-1,"motif":"","motif_pos":-1,"best_pos":6,"similarity":0.375,"stretto":false,"stretto_voices":0,"combination":[],"aug_dim":"","rhythm_ratio":1.0,"mirror":false,"chromatic_density":0.222,"complexity":0.603,"dissonance":0.097},{"voice":3,"pitch":50,"start":111.0,"duration":1.0,"velocity":53,"measure":56,"beat":3.0,"subject_pos":0,"motif":"subject","motif_pos":0,"best_pos":0,"similarity":1.0,"stretto":false,"stretto_voices":0,"combination":[],"aug_dim":"","rhythm_ratio":0.98,"mirror":false,"chromatic_density":0.222,"complexity":0.603,"dissonance":0.097},{"voice":2,"pitch":57,"start":111.25,"duration":0.25,"velocity":59,"measure":56,"beat":3.5,"subject_pos":-1,"motif":"","motif_pos":-1,"best_pos":0,"similarity":0.357,"stretto":false,"stretto_voices":0,"combination":[],"aug_dim":"","rhythm_ratio":1.0,"mirror":false,"chromatic_density":0.222,"complexity":0.603,"dissonance":0.097},{"voice":2,"pitch":62,"start":111.5,"duration":0.6927,"velocity":59,"measure":56,"beat":4.0,"subject_pos":-1,"motif":"","motif_pos":-1,"best_pos":1,"similarity":0.436,"stretto":false,"stretto_voices":0,"combination":[],"aug_dim":"","rhythm_ratio":1.0,"mirror":false,"chromatic_density":0.222,"complexity":0.603,"dissonance":0.097},{"voice":1,"pitch":65,"start":111.75,"duration":0.25,"velocity":68,"measure":56,"beat":4.5,"subject_pos":-1,"motif":"","motif_pos":-1,"best_pos":2,"similarity":0.579,"stretto":false,"stretto_voices":0,"combination":[],"aug_dim":"","rhythm_ratio":1.0,"mirror":false,"chromatic_density":0.222,"complexity":0.603,"dissonance":0.097},{"voice":1,"pitch":64,"start":112.0,"duration":0.6927,"velocity":68,"measure":57,"beat":1.0,"subject_pos":-1,"motif":"","motif_pos":-1,"best_pos":4,"similarity":0.521,"stretto":false,"stretto_voices":0,"combination":[],"aug_dim":"","rhythm_ratio":1.0,"mirror":false,"chromatic_density":0.111,"complexity":0.691,"dissonance":0.113},{"voice":3,"pitch":57,"start":112.0,"duration":1.0,"velocity":53,"measure":57,"beat":1.0,"subject_pos":1,"motif":"subject","motif_pos":1,"best_pos":1,"similarity":1.0,"stretto":false,"stretto_voices":0,"combination":[],"aug_dim":"","rhythm_ratio":0.98,"mirror":false,"chromatic_density":0.111,"complexity":0.691,"dissonance":0.113},{"voice":2,"pitch":59,"start":112.25,"duration":0.25,"velocity":59,"measure":57,"beat":1.5,"subject_pos":-1,"motif":"","motif_pos":-1,"best_pos":5,"similarity":0.368,"stretto":false,"stretto_voices":0,"combination":[],"aug_dim":"","rhythm_ratio":1.0,"mirror":false,"chromatic_density":0.111,"complexity":0.691,"dissonance":0.113},{"voice":0,"pitch":76,"start":112.5,"duration":0.9115,"velocity":76,"measure":57,"beat":2.0,"subject_pos":-1,"motif":"enigmatic_cell","motif_pos":2,"best_pos":2,"similarity":1.0,"stretto":false,"stretto_voices":0,"combination":[],"aug_dim":"","rhythm_ratio":1.0,"mirror":false,"chromatic_density":0.111,"complexity":0.691,"dissonance":0.113},{"voice":2,"pitch":61,"start":112.5,"duration":0.6927,"velocity":59,"measure":57,"beat":2.0,"subject_pos":-1,"motif":"","motif_pos":-1,"best_pos":6,"similarity":0.371,"stretto":false,"stretto_voices":0,"combination":[],"aug_dim":"","rhythm_ratio":1.0,"mirror":false,"chromatic_density":0.111,"complexity":0.691,"dissonance":0.113},{"voice":1,"pitch":64,"start":112.75,"duration":0.25,"velocity":68,"measure":57,"beat":2.5,"subject_pos":-1,"motif":"","motif_pos":-1,"best_pos":0,"similarity":0.429,"stretto":false,"stretto_voices":0,"combination":[],"aug_dim":"","rhythm_ratio":1.0,"mirror":false,"chromatic_density":0.111,"complexity":0.691,"dissonance":0.113},{"voice":1,"pitch":69,"start":113.0,"duration":1.5,"velocity":68,"measure":57,"beat":3.0,"subject_pos":-1,"motif":"","motif_pos":-1,"best_pos":1,"similarity":0.643,"stretto":false,"stretto_voices":0,"combination":[],"aug_dim":"","rhythm_ratio":1.0,"mirror":false,"chromatic_density":0.111,"complexity":0.691,"dissonance":0.113},{"voice":3,"pitch":53,"start":113.0,"duration":1.0,"velocity":53,"measure":57,"beat":3.0,"subject_pos":2,"motif":"subject","motif_pos":2,"best_pos":2,"similarity":1.0,"stretto":false,"stretto_voices":0,"combination":[],"aug_dim":"","rhythm_ratio":0.98,"mirror":false,"chromatic_density":0.111,"complexity":0.691,"dissonance":0.113},{"voice":0,"pitch":73,"start":113.25,"duration":0.4115,"velocity":76,"measure":57,"beat":3.5,"subject_pos":-1,"motif":"","motif_pos":-1,"best_pos":4,"similarity":0.607,"stretto":false,"stretto_voices":0,"combination":[],"aug_dim":"","rhythm_ratio":1.0,"mirror":false,"chromatic_density":0.111,"complexity":0.691,"dissonance":0.113},{"voice":2,"pitch":64,"start":113.25,"duration":0.25,"velocity":59,"measure":57,"beat":3.5,"subject_pos":-1,"motif":"","motif_pos":-1,"best_pos":6,"similarity":0.232,"stretto":false,"stretto_voices":0,"combination":[],"aug_dim":"","rhythm_ratio":1.0,"mirror":false,"chromatic_density":0.111,"complexity":0.691,"dissonance":0.113},{"voice":0,"pitch":74,"start":113.5,"duration":0.4115,"velocity":76,"measure":57,"beat":4.0,"subject_pos":-1,"motif":"","motif_pos":-1,"best_pos":5,"similarity":0.75,"stretto":false,"stretto_voices":0,"combination":[],"aug_dim":"","rhythm_ratio":1.0,"mirror":false,"chromatic_density":0.111,"complexity":0.691,"dissonance":0.113},{"voice":2,"pitch":57,"start":113.5,"duration":0.25,"velocity":59,"measure":57,"beat":4.0,"subject_pos":-1,"motif":"","motif_pos":-1,"best_pos":5,"similarity":0.229,"stretto":false,"stretto_voices":0,"combination":[],"aug_dim":"","rhythm_ratio":1.0,"mirror":false,"chromatic_density":0.111,"complexity":0.691,"dissonance":0.113},{"voice":0,"pitch":76,"start":113.75,"duration":0.4115,"velocity":76,"measure":57,"beat":4.5,"subject_pos":-1,"motif":"","motif_pos":-1,"best_pos":6,"similarity":0.732,"stretto":false,"stretto_voices":0,"combination":[],"aug_dim":"","rhythm_ratio":1.0,"mirror":false,"chromatic_density":0.111,"complexity":0.691,"dissonance":0.113},{"voice":2,"pitch":61,"start":113.75,"duration":0.25,"velocity":59,"measure":57,"beat":4.5,"subject_pos":-1,"motif":"","motif_pos":-1,"best_pos":6,"similarity":0.364,"stretto":false,"stretto_voices":0,"combination":[],"aug_dim":"","rhythm_ratio":1.0,"mirror":false,"chromatic_density":0.111,"complexity":0.691,"dissonance":0.113},{"voice":0,"pitch":77,"start":114.0,"duration":0.4115,"velocity":76,"measure":58,"beat":1.0,"subject_pos":-1,"motif":"","motif_pos":-1,"best_pos":7,"similarity":0.5,"stretto":false,"stretto_voices":0,"combination":[],"aug_dim":"","rhythm_ratio":1.0,"mirror":false,"chromatic_density":0.182,"complexity":0.634,"dissonance":0.062},{"voice":2,"pitch":62,"start":114.0,"duration":0.5,"velocity":59,"measure":58,"beat":1.0,"subject_pos":-1,"motif":"","motif_pos":-1,"best_pos":1,"similarity":0.475,"stretto":false,"stretto_voices":0,"combination":[],"aug_dim":"","rhythm_ratio":1.0,"mirror":false,"chromatic_density":0.182,"complexity":0.634,"dissonance":0.062},{"voice":3,"pitch":50,"start":114.0,"duration":1.0,"velocity":53,"measure":58,"beat":1.0,"subject_pos":3,"motif":"subject","motif_pos":3,"best_pos":3,"similarity":1.0,"stretto":false,"stretto_voices":0,"combination":[],"aug_dim":"","rhythm_ratio":0.98,"mirror":false,"chromatic_density":0.182,"complexity":0.634,"dissonance":0.062},{"voice":0,"pitch":74,"start":114.25,"duration":0.4115,"velocity":76,"measure":58,"beat":1.5,"subject_pos":-1,"motif":"","motif_pos":-1,"best_pos":0,"similarity":0.357,"stretto":false,"stretto_voices":0,"combination":[],"aug_dim":"","rhythm_ratio":1.0,"mirror":false,"chromatic_density":0.182,"complexity":0.634,"dissonance":0.062},{"voice":0,"pitch":79,"start":114.5,"duration":0.9115,"velocity":76,"measure":58,"beat":2.0,"subject_pos":-1,"motif":"","motif_pos":-1,"best_pos":1,"similarity":0.464,"stretto":false,"stretto_voices":0,"combination":[],"aug_dim":"","rhythm_ratio":1.0,"mirror":false,"chromatic_density":0.182,"complexity":0.634,"dissonance":0.062},{"voice":1,"pitch":67,"start":114.5,"duration":0.25,"velocity":68,"measure":58,"beat":2.0,"subject_pos":-1,"motif":"","motif_pos":-1,"best_pos":2,"similarity":0.579,"stretto":false,"stretto_voices":0,"combination":[],"aug_dim":"","rhythm_ratio":1.0,"mirror":false,"chromatic_density":0.182,"complexity":0.634,"dissonance":0.062},{"voice":2,"pitch":58,"start":114.5,"duration":0.25,"velocity":59,"measure":58,"beat":2.0,"subject_pos":-1,"motif":"","motif_pos":-1,"best_pos":2,"similarity":0.693,"stretto":false,"stretto_voices":0,"combination":[],"aug_dim":"","rhythm_ratio":1.0,"mirror":false,"chromatic_density":0.182,"complexity":0.634,"dissonance":0.062},{"voice":1,"pitch":70,"start":114.75,"duration":0.25,"velocity":68,"measure":58,"beat":2.5,"subject_pos":-1,"motif":"","motif_pos":-1,"best_pos":3,"similarity":0.521,"stretto":false,"stretto_voices":0,"combination":[],"aug_dim":"","rhythm_ratio":1.0,"mirror":false,"chromatic_density":0.182,"complexity":0.634,"dissonance":0.062},{"voice":2,"pitch":55,"start":114.75,"duration":0.25,"velocity":59,"measure":58,"beat":2.5,"subject_pos":-1,"motif":"","motif_pos":-1,"best_pos":3,"similarity":0.721,"stretto":false,"stretto_voices":0,"combination":[],"aug_dim":"","rhythm_ratio":1.0,"mirror":false,"chromatic_density":0.182,"complexity":0.634,"dissonance":0.062},{"voice":1,"pitch":69,"start":115.0,"duration":1.1927,"velocity":68,"measure":58,"beat":3.0,"subject_pos":-1,"motif":"","motif_pos":-1,"best_pos":1,"similarity":0.429,"stretto":false,"stretto_voices":0,"combination":[],"aug_dim":"","rhythm_ratio":1.0,"mirror":false,"chromatic_density":0.182,"complexity":0.634,"dissonance":0.062},{"voice":2,"pitch":52,"start":115.0,"duration":1.0,"velocity":59,"measure":58,"beat":3.0,"subject_pos":-1,"motif":"","motif_pos":-1,"best_pos":4,"similarity":0.75,"stretto":false,"stretto_voices":0,"combination":[],"aug_dim":"","rhythm_ratio":1.0,"mirror":false,"chromatic_density":0.182,"complexity":0.634,"dissonance":0.062},{"voice":3,"pitch":49,"start":115.0,"duration":1.0,"velocity":53,"measure":58,"beat":3.0,"subject_pos":4,"motif":"subject","motif_pos":4,"best_pos":4,"similarity":1.0,"stretto":false,"stretto_voices":0,"combination":[],"aug_dim":"","rhythm_ratio":0.98,"mirror":false,"chromatic_density":0.182,"complexity":0.634,"dissonance":0.062},{"voice":0,"pitch":76,"start":115.25,"duration":0.4115,"velocity":76,"measure":58,"beat":3.5,"subject_pos":-1,"motif":"","motif_pos":-1,"best_pos":0,"similarity":0.464,"stretto":false,"stretto_voices":0,"combination":[],"aug_dim":"","rhythm_ratio":1.0,"mirror":false,"chromatic_density":0.182,"complexity":0.634,"dissonance":0.062},{"voice":0,"pitch":81,"start":115.5,"duration":0.4115,"velocity":76,"measure":58,"beat":4.0,"subject_pos":-1,"motif":"","motif_pos":-1,"best_pos":1,"similarity":0.714,"stretto":false,"stretto_voices":0,"combination":[],"aug_dim":"","rhythm_ratio":1.0,"mirror":false,"chromatic_density":0.182,"complexity":0.634,"dissonance":0.062},{"voice":0,"pitch":79,"start":115.75,"duration":0.4115,"velocity":76,"measure":58,"beat":4.5,"subject_pos":-1,"motif":"","motif_pos":-1,"best_pos":2,"similarity":0.721,"stretto":false,"stretto_voices":0,"combination":[],"aug_dim":"","rhythm_ratio":1.0,"mirror":false,"chromatic_density":0.182,"complexity":0.634,"dissonance":0.062},{"voice":0,"pitch":77,"start":116.0,"duration":0.4115,"velocity":76,"measure":59,"beat":1.0,"subject_pos":-1,"motif":"","motif_pos":-1,"best_pos":3,"similarity":0.664,"stretto":false,"stretto_voices":0,"combination":[],"aug_dim":"","rhythm_ratio":1.0,"mirror":false,"chromatic_density":0.429,"complexity":0.597,"dissonance":0.156},{"voice":2,"pitch":53,"start":116.0,"duration":0.5,"velocity":59,"measure":59,"beat":1.0,"subject_pos":-1,"motif":"","motif_pos":-1,"best_pos":5,"similarity":0.75,"stretto":false,"stretto_voices":0,"combination":[],"aug_dim":"","rhythm_ratio":1.0,"mirror":false,"chromatic_density":0.429,"complexity":0.597,"dissonance":0.156},{"voice":3,"pitch":50,"start":116.0,"duration":0.5,"velocity":53,"measure":59,"beat":1.0,"subject_pos":5,"motif":"subject","motif_pos":5,"best_pos":5,"similarity":1.0,"stretto":false,"stretto_voices":0,"combination":[],"aug_dim":"","rhythm_ratio":0.98,"mirror":false,"chromatic_density":0.429,"complexity":0.597,"dissonance":0.156},{"voice":0,"pitch":76,"start":116.25,"duration":0.4115,"velocity":76,"measure":59,"beat":1.5,"subject_pos":-1,"motif":"","motif_pos":-1,"best_pos":4,"similarity":0.543,"stretto":false,"stretto_voices":0,"combination":[],"aug_dim":"","rhythm_ratio":1.0,"mirror":false,"chromatic_density":0.429,"complexity":0.597,"dissonance":0.156},{"voice":1,"pitch":67,"start":116.25,"duration":0.25,"velocity":68,"measure":59,"beat":1.5,"subject_pos":-1,"motif":"","motif_pos":-1,"best_pos":2,"similarity":0.579,"stretto":false,"stretto_voices":0,"combination":[],"aug_dim":"","rhythm_ratio":1.0,"mirror":false,"chromatic_density":0.429,"complexity":0.597,"dissonance":0.156},{"voice":0,"pitch":74,"start":116.5,"duration":0.4115,"velocity":76,"measure":59,"beat":2.0,"subject_pos":-1,"motif":"","motif_pos":-1,"best_pos":3,"similarity":0.65,"stretto":false,"stretto_voices":0,"combination":[],"aug_dim":"","rhythm_ratio":1.0,"mirror":false,"chromatic_density":0.429,"complexity":0.597,"dissonance":0.156},{"voice":1,"pitch":65,"start":116.5,"duration":0.25,"velocity":68,"measure":59,"beat":2.0,"subject_pos":-1,"motif":"","motif_pos":-1,"best_pos":3,"similarity":0.657,"stretto":false,"stretto_voices":0,"combination":[],"aug_dim":"","rhythm_ratio":1.0,"mirror":false,"chromatic_density":0.429,"complexity":0.597,"dissonance":0.156},{"voice":2,"pitch":55,"start":116.5,"duration":0.5,"velocity":59,"measure":59,"beat":2.0,"subject_pos":-1,"motif":"","motif_pos":-1,"best_pos":5,"similarity":0.607,"stretto":false,"stretto_voices":0,"combination":[],"aug_dim":"","rhythm_ratio":1.0,"mirror":false,"chromatic_density":0.429,"complexity":0.597,"dissonance":0.156},{"voice":3,"pitch":52,"start":116.5,"duration":0.5,"velocity":53,"measure":59,"beat":2.0,"subject_pos":6,"motif":"subject","motif_pos":6,"best_pos":6,"similarity":1.0,"stretto":false,"stretto_voices":0,"combination":[],"aug_dim":"","rhythm_ratio":0.98,"mirror":false,"chromatic_density":0.429,"complexity":0.597,"dissonance":0.156},{"voice":0,"pitch":73,"start":116.75,"duration":0.4115,"velocity":76,"measure":59,"beat":2.5,"subject_pos":-1,"motif":"","motif_pos":-1,"best_pos":4,"similarity":0.7,"stretto":false,"stretto_voices":0,"combination":[],"aug_dim":"","rhythm_ratio":1.0,"mirror":false,"chromatic_density":0.429,"complexity":0.597,"dissonance":0.156},{"voice":1,"pitch":64,"start":116.75,"duration":0.25,"velocity":68,"measure":59,"beat":2.5,"subject_pos":-1,"motif":"","motif_pos":-1,"best_pos":4,"similarity":0.6,"stretto":false,"stretto_voices":0,"combination":[],"aug_dim":"","rhythm_ratio":1.0,"mirror":false,"chromatic_density":0.429,"complexity":0.597,"dissonance":0.156},{"voice":0,"pitch":74,"start":117.0,"duration":0.4115,"velocity":76,"measure":59,"beat":3.0,"subject_pos":-1,"motif":"","motif_pos":-1,"best_pos":5,"similarity":0.507,"stretto":false,"stretto_voices":0,"combination":[],"aug_dim":"","rhythm_ratio":1.0,"mirror":false,"chromatic_density":0.429,"complexity":0.597,"dissonance":0.156},{"voice":1,"pitch":62,"start":117.0,"duration":1.5,"velocity":68,"measure":59,"beat":3.0,"subject_pos":-1,"motif":"","motif_pos":-1,"best_pos":5,"similarity":0.493,"stretto":false,"stretto_voices":0,"combination":[],"aug_dim":"","rhythm_ratio":1.0,"mirror":false,"chromatic_density":0.429,"complexity":0.597,"dissonance":0.156},{"voice":2,"pitch":57,"start":117.0,"duration":1.0,"velocity":59,"measure":59,"beat":3.0,"subject_pos":-1,"motif":"","motif_pos":-1,"best_pos":5,"similarity":0.521,"stretto":false,"stretto_voices":0,"combination":[],"aug_dim":"","rhythm_ratio":1.0,"mirror":false,"chromatic_density":0.429,"complexity":0.597,"dissonance":0.156},{"voice":3,"pitch":53,"start":117.0,"duration":1.25,"velocity":53,"measure":59,"beat":3.0,"subject_pos":7,"motif":"subject","motif_pos":7,"best_pos":7,"similarity":1.0,"stretto":false,"stretto_voices":0,"combination":[],"aug_dim":"","rhythm_ratio":0.98,"mirror":false,"chromatic_density":0.429,"complexity":0.597,"dissonance":0.156},{"voice":0,"pitch":72,"start":117.25,"duration":0.4115,"velocity":76,"measure":59,"beat":3.5,"subject_pos":-1,"motif":"","motif_pos":-1,"best_pos":2,"similarity":0.593,"stretto":false,"stretto_voices":0,"combination":[],"aug_dim":"","rhythm_ratio":1.0,"mirror":false,"chromatic_density":0.429,"complexity":0.597,"dissonance":0.156},{"voice":0,"pitch":70,"start":117.5,"duration":0.4115,"velocity":76,"measure":59,"beat":4.0,"subject_pos":-1,"motif":"","motif_pos":-1,"best_pos":3,"similarity":0.593,"stretto":false,"stretto_voices":0,"combination":[],"aug_dim":"","rhythm_ratio":1.0,"mirror":false,"chromatic_density":0.429,"complexity":0.597,"dissonance":0.156},{"voice":0,"pitch":69,"start":117.75,"duration":0.4115,"velocity":76,"measure":59,"beat":4.5,"subject_pos":-1,"motif":"","motif_pos":-1,"best_pos":4,"similarity":0.529,"stretto":false,"stretto_voices":0,"combination":[],"aug_dim":"","rhythm_ratio":1.0,"mirror":false,"chromatic_density":0.429,"complexity":0.597,"dissonance":0.156},{"voice":0,"pitch":67,"start":118.0,"duration":1.4115,"velocity":76,"measure":60,"beat":1.0,"subject_pos":-1,"motif":"","motif_pos":-1,"best_pos":2,"similarity":0.614,"stretto":false,"stretto_voices":0,"combination":[],"aug_dim":"","rhythm_ratio":1.0,"mirror":false,"chromatic_density":0.333,"complexity":0.542,"dissonance":0.153},{"voice":2,"pitch":59,"start":118.0,"duration":0.5,"velocity":59,"measure":60,"beat":1.0,"subject_pos":-1,"motif":"","motif_pos":-1,"best_pos":5,"similarity":0.586,"stretto":false,"stretto_voices":0,"combination":[],"aug_dim":"","rhythm_ratio":1.0,"mirror":false,"chromatic_density":0.333,"complexity":0.542,"dissonance":0.153},{"voice":3,"pitch":55,"start":118.25,"duration":0.25,"velocity":53,"measure":60,"beat":1.5,"subject_pos":-1,"motif":"","motif_pos":-1,"best_pos":6,"similarity":0.464,"stretto":false,"stretto_voices":0,"combination":[],"aug_dim":"","rhythm_ratio":1.0,"mirror":false,"chromatic_density":0.333,"complexity":0.542,"dissonance":0.153},{"voice":1,"pitch":64,"start":118.5,"duration":0.5,"velocity":68,"measure":60,"beat":2.0,"subject_pos":-1,"motif":"","motif_pos":-1,"best_pos":6,"similarity":0.371,"stretto":false,"stretto_voices":0,"combination":[],"aug_dim":"","rhythm_ratio":1.0,"mirror":false,"chromatic_density":0.333,"complexity":0.542,"dissonance":0.153},{"voice":2,"pitch":61,"start":118.5,"duration":0.5,"velocity":59,"measure":60,"beat":2.0,"subject_pos":-1,"motif":"","motif_pos":-1,"best_pos":6,"similarity":0.65,"stretto":false,"stretto_voices":0,"combination":[],"aug_dim":"","rhythm_ratio":1.0,"mirror":false,"chromatic_density":0.333,"complexity":0.542,"dissonance":0.153},{"voice":3,"pitch":53,"start":118.5,"duration":0.25,"velocity":53,"measure":60,"beat":2.0,"subject_pos":-1,"motif":"","motif_pos":-1,"best_pos":2,"similarity":0.514,"stretto":false,"stretto_voices":0,"combination":[],"aug_dim":"","rhythm_ratio":1.0,"mirror":false,"chromatic_density":0.333,"complexity":0.542,"dissonance":0.153},{"voice":3,"pitch":52,"start":118.75,"duration":0.25,"velocity":53,"measure":60,"beat":2.5,"subject_pos":-1,"motif":"","motif_pos":-1,"best_pos":3,"similarity":0.514,"stretto":false,"stretto_voices":0,"combination":[],"aug_dim":"","rhythm_ratio":1.0,"mirror":false,"chromatic_density":0.333,"complexity":0.542,"dissonance":0.153},{"voice":1,"pitch":57,"start":119.0,"duration":0.5,"velocity":68,"measure":60,"beat":3.0,"subject_pos":-1,"motif":"","motif_pos":-1,"best_pos":0,"similarity":0.214,"stretto":false,"stretto_voices":0,"combination":[],"aug_dim":"","rhythm_ratio":1.0,"mirror":false,"chromatic_density":0.333,"complexity":0.542,"dissonance":0.153},{"voice":2,"pitch":62,"start":119.0,"duration":0.5,"velocity":59,"measure":60,"beat":3.0,"subject_pos":-1,"motif":"","motif_pos":-1,"best_pos":7,"similarity":0.464,"stretto":false,"stretto_voices":0,"combination":[],"aug_dim":"","rhythm_ratio":1.0,"mirror":false,"chromatic_density":0.333,"complexity":0.542,"dissonance":0.153},{"voice":3,"pitch":50,"start":119.0,"duration":1.25,"velocity":53,"measure":60,"beat":3.0,"subject_pos":-1,"motif":"","motif_pos":-1,"best_pos":4,"similarity":0.557,"stretto":false,"stretto_voices":0,"combination":[],"aug_dim":"","rhythm_ratio":1.0,"mirror":false,"chromatic_density":0.333,"complexity":0.542,"dissonance":0.153},{"voice":0,"pitch":64,"start":119.25,"duration":0.4115,"velocity":76,"measure":60,"beat":3.5,"subject_pos":-1,"motif":"","motif_pos":-1,"best_pos":3,"similarity":0.514,"stretto":false,"stretto_voices":0,"combination":[],"aug_dim":"","rhythm_ratio":1.0,"mirror":false,"chromatic_density":0.333,"complexity":0.542,"dissonance":0.153},{"voice":0,"pitch":65,"start":119.5,"duration":0.4115,"velocity":76,"measure":60,"beat":4.0,"subject_pos":-1,"motif":"","motif_pos":-1,"best_pos":5,"similarity":0.357,"stretto":false,"stretto_voices":0,"combination":[],"aug_dim":"","rhythm_ratio":1.0,"mirror":false,"chromatic_density":0.333,"complexity":0.542,"dissonance":0.153},{"voice":0,"pitch":62,"start":119.75,"duration":0.4115,"velocity":76,"measure":60,"beat":4.5,"subject_pos":-1,"motif":"","motif_pos":-1,"best_pos":0,"similarity":0.364,"stretto":false,"stretto_voices":0,"combination":[],"aug_dim":"","rhythm_ratio":1.0,"mirror":false,"chromatic_density":0.333,"complexity":0.542,"dissonance":0.153},{"voice":0,"pitch":69,"start":120.0,"duration":1.4115,"velocity":76,"measure":61,"beat":1.0,"subject_pos":-1,"motif":"","motif_pos":-1,"best_pos":1,"similarity":0.45,"stretto":false,"stretto_voices":0,"combination":[],"aug_dim":"","rhythm_ratio":1.0,"mirror":false,"chromatic_density":0.5,"complexity":0.552,"dissonance":0.208},{"voice":3,"pitch":51,"start":120.25,"duration":0.25,"velocity":53,"measure":61,"beat":1.5,"subject_pos":-1,"motif":"","motif_pos":-1,"best_pos":3,"similarity":0.479,"stretto":false,"stretto_voices":0,"combination":[],"aug_dim":"","rhythm_ratio":1.0,"mirror":false,"chromatic_density":0.5,"complexity":0.552,"dissonance":0.208},{"voice":1,"pitch":63,"start":120.5,"duration":0.5,"velocity":68,"measure":61,"beat":2.0,"subject_pos":-1,"motif":"","motif_pos":-1,"best_pos":3,"similarity":0.357,"stretto":false,"stretto_voices":0,"combination":[],"aug_dim":"","rhythm_ratio":1.0,"mirror":false,"chromatic_density":0.5,"complexity":0.552,"dissonance":0.208},{"voice":2,"pitch":54,"start":120.5,"duration":0.5,"velocity":59,"measure":61,"beat":2.0,"subject_pos":-1,"motif":"","motif_pos":-1,"best_pos":4,"similarity":0.521,"stretto":false,"stretto_voices":0,"combination":[],"aug_dim":"","rhythm_ratio":1.0,"mirror":false,"chromatic_density":0.5,"complexity":0.552,"dissonance":0.208},{"voice":3,"pitch":50,"start":120.5,"duration":0.25,"velocity":53,"measure":61,"beat":2.0,"subject_pos":-1,"motif":"","motif_pos":-1,"best_pos":4,"similarity":0.45,"stretto":false,"stretto_voices":0,"combination":[],"aug_dim":"","rhythm_ratio":1.0,"mirror":false,"chromatic_density":0.5,"complexity":0.552,"dissonance":0.208},{"voice":3,"pitch":48,"start":120.75,"duration":0.25,"velocity":53,"measure":61,"beat":2.5,"subject_pos":-1,"motif":"","motif_pos":-1,"best_pos":2,"similarity":0.45,"stretto":false,"stretto_voices":0,"combination":[],"aug_dim":"","rhythm_ratio":1.0,"mirror":false,"chromatic_density":0.5,"complexity":0.552,"dissonance":0.208},{"voice":1,"pitch":62,"start":121.0,"duration":1.0,"velocity":68,"measure":61,"beat":3.0,"subject_pos":-1,"motif":"","motif_pos":-1,"best_pos":4,"similarity":0.411,"stretto":false,"stretto_voices":0,"combination":[],"aug_dim":"","rhythm_ratio":1.0,"mirror":false,"chromatic_density":0.5,"complexity":0.552,"dissonance":0.208},{"voice":2,"pitch":55,"start":121.0,"duration":0.25,"velocity":59,"measure":61,"beat":3.0,"subject_pos":-1,"motif":"","motif_pos":-1,"best_pos":5,"similarity":0.721,"stretto":false,"stretto_voices":0,"combination":[],"aug_dim":"","rhythm_ratio":1.0,"mirror":false,"chromatic_density":0.5,"complexity":0.552,"dissonance":0.208},{"voice":3,"pitch":46,"start":121.0,"duration":1.25,"velocity":53,"measure":61,"beat":3.0,"subject_pos":-1,"motif":"","motif_pos":-1,"best_pos":4,"similarity":0.425,"stretto":false,"stretto_voices":0,"combination":[],"aug_dim":"","rhythm_ratio":1.0,"mirror":false,"chromatic_density":0.5,"complexity":0.552,"dissonance":0.208},{"voice":0,"pitch":66,"start":121.25,"duration":0.4115,"velocity":76,"measure":61,"beat":3.5,"subject_pos":-1,"motif":"","motif_pos":-1,"best_pos":4,"similarity":0.5,"stretto":false,"stretto_voices":0,"combination":[],"aug_dim":"","rhythm_ratio":1.0,"mirror":false,"chromatic_density":0.5,"complexity":0.552,"dissonance":0.208},{"voice":2,"pitch":57,"start":121.25,"duration":0.25,"velocity":59,"measure":61,"beat":3.5,"subject_pos":-1,"motif":"","motif_pos":-1,"best_pos":6,"similarity":0.714,"stretto":false,"stretto_voices":0,"combination":[],"aug_dim":"","rhythm_ratio":1.0,"mirror":false,"chromatic_density":0.5,"complexity":0.552,"dissonance":0.208},{"voice":0,"pitch":67,"start":121.5,"duration":0.4115,"velocity":76,"measure":61,"beat":4.0,"subject_pos":-1,"motif":"","motif_pos":-1,"best_pos":5,"similarity":0.536,"stretto":false,"stretto_voices":0,"combination":[],"aug_dim":"","rhythm_ratio":1.0,"mirror":false,"chromatic_density":0.5,"complexity":0.552,"dissonance":0.208},{"voice":2,"pitch":58,"start":121.5,"duration":0.5,"velocity":59,"measure":61,"beat":4.0,"subject_pos":-1,"motif":"","motif_pos":-1,"best_pos":5,"similarity":0.664,"stretto":false,"stretto_voices":0,"combination":[],"aug_dim":"","rhythm_ratio":1.0,"mirror":false,"chromatic_density":0.5,"complexity":0.552,"dissonance":0.208},{"voice":0,"pitch":70,"start":121.75,"duration":0.4115,"velocity":76,"measure":61,"beat":4.5,"subject_pos":-1,"motif":"","motif_pos":-1,"best_pos":5,"similarity":0.479,"stretto":false,"stretto_voices":0,"combination":[],"aug_dim":"","rhythm_ratio":1.0,"mirror":false,"chromatic_density":0.5,"complexity":0.552,"dissonance":0.208},{"voice":0,"pitch":72,"start":122.0,"duration":1.4115,"velocity":76,"measure":62,"beat":1.0,"subject_pos":-1,"motif":"","motif_pos":-1,"best_pos":2,"similarity":0.393,"stretto":false,"stretto_voices":0,"combination":[],"aug_dim":"","rhythm_ratio":1.0,"mirror":false,"chromatic_density":0.5,"complexity":0.548,"dissonance":0.216},{"voice":3,"pitch":48,"start":122.25,"duration":0.25,"velocity":53,"measure":62,"beat":1.5,"subject_pos":-1,"motif":"","motif_pos":-1,"best_pos":1,"similarity":0.386,"stretto":false,"stretto_voices":0,"combination":[],"aug_dim":"","rhythm_ratio":1.0,"mirror":false,"chromatic_density":0.5,"complexity":0.548,"dissonance":0.216},{"voice":1,"pitch":66,"start":122.5,"duration":0.5,"velocity":68,"measure":62,"beat":2.0,"subject_pos":-1,"motif":"","motif_pos":-1,"best_pos":4,"similarity":0.407,"stretto":false,"stretto_voices":0,"combination":[],"aug_dim":"","rhythm_ratio":1.0,"mirror":false,"chromatic_density":0.5,"complexity":0.548,"dissonance":0.216},{"voice":2,"pitch":60,"start":122.5,"duration":0.5,"velocity":59,"measure":62,"beat":2.0,"subject_pos":-1,"motif":"","motif_pos":-1,"best_pos":6,"similarity":0.579,"stretto":false,"stretto_voices":0,"combination":[],"aug_dim":"","rhythm_ratio":1.0,"mirror":false,"chromatic_density":0.5,"complexity":0.548,"dissonance":0.216},{"voice":3,"pitch":46,"start":122.5,"duration":0.25,"velocity":53,"measure":62,"beat":2.0,"subject_pos":-1,"motif":"","motif_pos":-1,"best_pos":2,"similarity":0.479,"stretto":false,"stretto_voices":0,"combination":[],"aug_dim":"","rhythm_ratio":1.0,"mirror":false,"chromatic_density":0.5,"complexity":0.548,"dissonance":0.216},{"voice":3,"pitch":45,"start":122.75,"duration":0.25,"velocity":53,"measure":62,"beat":2.5,"subject_pos":-1,"motif":"","motif_pos":-1,"best_pos":3,"similarity":0.507,"stretto":false,"stretto_voices":0,"combination":[],"aug_dim":"","rhythm_ratio":1.0,"mirror":false,"chromatic_density":0.5,"complexity":0.548,"dissonance":0.216},{"voice":1,"pitch":67,"start":123.0,"duration":0.25,"velocity":68,"measure":62,"beat":3.0,"subject_pos":-1,"motif":"","motif_pos":-1,"best_pos":3,"similarity":0.493,"stretto":false,"stretto_voices":0,"combination":[],"aug_dim":"","rhythm_ratio":1.0,"mirror":false,"chromatic_density":0.5,"complexity":0.548,"dissonance":0.216},{"voice":2,"pitch":62,"start":123.0,"duration":1.0,"velocity":59,"measure":62,"beat":3.0,"subject_pos":-1,"motif":"","motif_pos":-1,"best_pos":6,"similarity":0.375,"stretto":false,"stretto_voices":0,"combination":[],"aug_dim":"","rhythm_ratio":1.0,"mirror":false,"chromatic_density":0.5,"complexity":0.548,"dissonance":0.216},{"voice":3,"pitch":43,"start":123.0,"duration":1.4427,"velocity":53,"measure":62,"beat":3.0,"subject_pos":-1,"motif":"","motif_pos":-1,"best_pos":4,"similarity":0.571,"stretto":false,"stretto_voices":0,"combination":[],"aug_dim":"","rhythm_ratio":1.0,"mirror":false,"chromatic_density":0.5,"complexity":0.548,"dissonance":0.216},{"voice":0,"pitch":69,"start":123.25,"duration":0.4115,"velocity":76,"measure":62,"beat":3.5,"subject_pos":-1,"motif":"","motif_pos":-1,"best_pos":4,"similarity":0.464,"stretto":false,"stretto_voices":0,"combination":[],"aug_dim":"","rhythm_ratio":1.0,"mirror":false,"chromatic_density":0.5,"complexity":0.548,"dissonance":0.216},{"voice":1,"pitch":66,"start":123.25,"duration":0.25,"velocity":68,"measure":62,"beat":3.5,"subject_pos":-1,"motif":"","motif_pos":-1,"best_pos":4,"similarity":0.675,"stretto":false,"stretto_voices":0,"combination":[],"aug_dim":"","rhythm_ratio":1.0,"mirror":false,"chromatic_density":0.5,"complexity":0.548,"dissonance":0.216},{"voice":0,"pitch":70,"start":123.5,"duration":0.4115,"velocity":76,"measure":62,"beat":4.0,"subject_pos":-1,"motif":"","motif_pos":-1,"best_pos":5,"similarity":0.536,"stretto":false,"stretto_voices":0,"combination":[],"aug_dim":"","rhythm_ratio":1.0,"mirror":false,"chromatic_density":0.5,"complexity":0.548,"dissonance":0.216},{"voice":1,"pitch":67,"start":123.5,"duration":0.5,"velocity":68,"measure":62,"beat":4.0,"subject_pos":-1,"motif":"","motif_pos":-1,"best_pos":5,"similarity":0.614,"stretto":false,"stretto_voices":0,"combination":[],"aug_dim":"","rhythm_ratio":1.0,"mirror":false,"chromatic_density":0.5,"complexity":0.548,"dissonance":0.216},{"voice":0,"pitch":74,"start":123.75,"duration":0.4115,"velocity":76,"measure":62,"beat":4.5,"subject_pos":-1,"motif":"","motif_pos":-1,"best_pos":6,"similarity":0.518,"stretto":false,"stretto_voices":0,"combination":[],"aug_dim":"","rhythm_ratio":1.0,"mirror":false,"chromatic_density":0.5,"complexity":0.548,"dissonance":0.216},{"voice":0,"pitch":75,"start":124.0,"duration":0.5,"velocity":76,"measure":63,"beat":1.0,"subject_pos":-1,"motif":"","motif_pos":-1,"best_pos":7,"similarity":0.393,"stretto":false,"stretto_voices":0,"combination":[],"aug_dim":"","rhythm_ratio":1.0,"mirror":false,"chromatic_density":0.444,"complexity":0.567,"dissonance":0.074},{"voice":2,"pitch":55,"start":124.25,"duration":0.5,"velocity":59,"measure":63,"beat":1.5,"subject_pos":-1,"motif":"","motif_pos":-1,"best_pos":2,"similarity":0.4,"stretto":false,"stretto_voices":0,"combination":[],"aug_dim":"","rhythm_ratio":1.0,"mirror":false,"chromatic_density":0.444,"complexity":0.567,"dissonance":0.074},{"voice":0,"pitch":74,"start":124.5,"duration":0.5,"velocity":76,"measure":63,"beat":2.0,"subject_pos":-1,"motif":"","motif_pos":-1,"best_pos":3,"similarity":0.407,"stretto":false,"stretto_voices":0,"combination":[],"aug_dim":"","rhythm_ratio":1.0,"mirror":false,"chromatic_density":0.444,"complexity":0.567,"dissonance":0.074},{"voice":1,"pitch":70,"start":124.5,"duration":0.6927,"velocity":68,"measure":63,"beat":2.0,"subject_pos":-1,"motif":"","motif_pos":-1,"best_pos":6,"similarity":0.429,"stretto":false,"stretto_voices":0,"combination":[],"aug_dim":"","rhythm_ratio":1.0,"mirror":false,"chromatic_density":0.444,"complexity":0.567,"dissonance":0.074},{"voice":3,"pitch":43,"start":124.5,"duration":0.4427,"velocity":53,"measure":63,"beat":2.0,"subject_pos":-1,"motif":"","motif_pos":-1,"best_pos":5,"similarity":0.589,"stretto":false,"stretto_voices":0,"combination":[],"aug_dim":"","rhythm_ratio":1.0,"mirror":false,"chromatic_density":0.444,"complexity":0.567,"dissonance":0.074},{"voice":2,"pitch":53,"start":124.75,"duration":0.25,"velocity":59,"measure":63,"beat":2.5,"subject_pos":-1,"motif":"","motif_pos":-1,"best_pos":3,"similarity":0.593,"stretto":false,"stretto_voices":0,"combination":[],"aug_dim":"","rhythm_ratio":1.0,"mirror":false,"chromatic_density":0.444,"complexity":0.567,"dissonance":0.074},{"voice":0,"pitch":73,"start":125.0,"duration":0.5,"velocity":76,"measure":63,"beat":3.0,"subject_pos":-1,"motif":"","motif_pos":-1,"best_pos":4,"similarity":0.336,"stretto":false,"stretto_voices":0,"combination":[],"aug_dim":"","rhythm_ratio":1.0,"mirror":false,"chromatic_density":0.444,"complexity":0.567,"dissonance":0.074},{"voice":2,"pitch":52,"start":125.0,"duration":0.5,"velocity":59,"measure":63,"beat":3.0,"subject_pos":-1,"motif":"","motif_pos":-1,"best_pos":4,"similarity":0.657,"stretto":false,"stretto_voices":0,"combination":[],"aug_dim":"","rhythm_ratio":1.0,"mirror":false,"chromatic_density":0.444,"complexity":0.567,"dissonance":0.074},{"voice":3,"pitch":45,"start":125.0,"duration":5.4427,"velocity":53,"measure":63,"beat":3.0,"subject_pos":-1,"motif":"","motif_pos":-1,"best_pos":6,"similarity":0.536,"stretto":false,"stretto_voices":0,"combination":[],"aug_dim":"","rhythm_ratio":1.0,"mirror":false,"chromatic_density":0.444,"complexity":0.567,"dissonance":0.074},{"voice":1,"pitch":69,"start":125.25,"duration":0.25,"velocity":68,"measure":63,"beat":3.5,"subject_pos":-1,"motif":"","motif_pos":-1,"best_pos":4,"similarity":0.3,"stretto":false,"stretto_voices":0,"combination":[],"aug_dim":"","rhythm_ratio":1.0,"mirror":false,"chromatic_density":0.444,"complexity":0.567,"dissonance":0.074},{"voice":0,"pitch":81,"start":125.5,"duration":0.9115,"velocity":76,"measure":63,"beat":4.0,"subject_pos":-1,"motif":"","motif_pos":-1,"best_pos":5,"similarity":0.175,"stretto":false,"stretto_voices":0,"combination":[],"aug_dim":"","rhythm_ratio":1.0,"mirror":false,"chromatic_density":0.444,"complexity":0.567,"dissonance":0.074},{"voice":1,"pitch":77,"start":125.5,"duration":0.25,"velocity":68,"measure":63,"beat":4.0,"subject_pos":-1,"motif":"","motif_pos":-1,"best_pos":1,"similarity":0.429,"stretto":false,"stretto_voices":0,"combination":[],"aug_dim":"","rhythm_ratio":1.0,"mirror":false,"chromatic_density":0.444,"complexity":0.567,"dissonance":0.074},{"voice":1,"pitch":74,"start":125.75,"duration":0.25,"velocity":68,"measure":63,"beat":4.5,"subject_pos":-1,"motif":"","motif_pos":-1,"best_pos":2,"similarity":0.507,"stretto":false,"stretto_voices":0,"combination":[],"aug_dim":"","rhythm_ratio":1.0,"mirror":false,"chromatic_density":0.444,"complexity":0.567,"dissonance":0.074},{"voice":1,"pitch":71,"start":126.0,"duration":0.5,"velocity":68,"measure":64,"beat":1.0,"subject_pos":-1,"motif":"","motif_pos":-1,"best_pos":3,"similarity":0.407,"stretto":false,"stretto_voices":0,"combination":[],"aug_dim":"","rhythm_ratio":1.0,"mirror":false,"chromatic_density":0.0,"complexity":0.448,"dissonance":0.3},{"voice":0,"pitch":74,"start":126.25,"duration":0.4115,"velocity":76,"measure":64,"beat":1.5,"subject_pos":-1,"motif":"","motif_pos":-1,"best_pos":0,"similarity":0.321,"stretto":false,"stretto_voices":0,"combination":[],"aug_dim":"","rhythm_ratio":1.0,"mirror":false,"chromatic_density":0.0,"complexity":0.448,"dissonance":0.3},{"voice":0,"pitch":79,"start":126.5,"duration":0.9115,"velocity":76,"measure":64,"beat":2.0,"subject_pos":-1,"motif":"","motif_pos":-1,"best_pos":1,"similarity":0.375,"stretto":false,"stretto_voices":0,"combination":[],"aug_dim":"","rhythm_ratio":1.0,"mirror":false,"chromatic_density":0.0,"complexity":0.448,"dissonance":0.3},{"voice":1,"pitch":76,"start":126.5,"duration":0.25,"velocity":68,"measure":64,"beat":2.0,"subject_pos":-1,"motif":"","motif_pos":-1,"best_pos":1,"similarity":0.5,"stretto":false,"stretto_voices":0,"combination":[],"aug_dim":"","rhythm_ratio":1.0,"mirror":false,"chromatic_density":0.0,"complexity":0.448,"dissonance":0.3},{"voice":1,"pitch":73,"start":126.75,"duration":0.25,"velocity":68,"measure":64,"beat":2.5,"subject_pos":-1,"motif":"","motif_pos":-1,"best_pos":2,"similarity":0.429,"stretto":false,"stretto_voices":0,"combination":[],"aug_dim":"","rhythm_ratio":1.0,"mirror":false,"chromatic_density":0.0,"complexity":0.448,"dissonance":0.3},{"voice":1,"pitch":69,"start":127.0,"duration":0.5,"velocity":68,"measure":64,"beat":3.0,"subject_pos":-1,"motif":"","motif_pos":-1,"best_pos":2,"similarity":0.371,"stretto":false,"stretto_voices":0,"combination":[],"aug_dim":"","rhythm_ratio":1.0,"mirror":false,"chromatic_density":0.0,"complexity":0.448,"dissonance":0.3},{"voice":0,"pitch":73,"start":127.25,"duration":0.4115,"velocity":76,"measure":64,"beat":3.5,"subject_pos":-1,"motif":"","motif_pos":-1,"best_pos":2,"similarity":0.286,"stretto":false,"stretto_voices":0,"combination":[],"aug_dim":"","rhythm_ratio":1.0,"mirror":false,"chromatic_density":0.0,"complexity":0.448,"dissonance":0.3},{"voice":0,"pitch":77,"start":127.5,"duration":0.9115,"velocity":76,"measure":64,"beat":4.0,"subject_pos":-1,"motif":"","motif_pos":-1,"best_pos":2,"similarity":0.307,"stretto":false,"stretto_voices":0,"combination":[],"aug_dim":"","rhythm_ratio":1.0,"mirror":false,"chromatic_density":0.0,"complexity":0.448,"dissonance":0.3},{"voice":1,"pitch":74,"start":127.5,"duration":0.25,"velocity":68,"measure":64,"beat":4.0,"subject_pos":-1,"motif":"","motif_pos":-1,"best_pos":1,"similarity":0.461,"stretto":false,"stretto_voices":0,"combination":[],"aug_dim":"","rhythm_ratio":1.0,"mirror":false,"chromatic_density":0.0,"complexity":0.448,"dissonance":0.3},{"voice":2,"pitch":53,"start":127.5,"duration":0.25,"velocity":59,"measure":64,"beat":4.0,"subject_pos":-1,"motif":"","motif_pos":-1,"best_pos":5,"similarity":0.479,"stretto":false,"stretto_voices":0,"combination":[],"aug_dim":"","rhythm_ratio":1.0,"mirror":false,"chromatic_density":0.0,"complexity":0.448,"dissonance":0.3},{"voice":1,"pitch":69,"start":127.75,"duration":0.25,"velocity":68,"measure":64,"beat":4.5,"subject_pos":-1,"motif":"","motif_pos":-1,"best_pos":4,"similarity":0.421,"stretto":false,"stretto_voices":0,"combination":[],"aug_dim":"","rhythm_ratio":1.0,"mirror":false,"chromatic_density":0.0,"complexity":0.448,"dissonance":0.3},{"voice":2,"pitch":50,"start":127.75,"duration":0.25,"velocity":59,"measure":64,"beat":4.5,"subject_pos":-1,"motif":"","motif_pos":-1,"best_pos":0,"similarity":0.321,"stretto":false,"stretto_voices":0,"combination":[],"aug_dim":"","rhythm_ratio":1.0,"mirror":false,"chromatic_density":0.0,"complexity":0.448,"dissonance":0.3},{"voice":1,"pitch":70,"start":128.0,"duration":0.75,"velocity":68,"measure":65,"beat":1.0,"subject_pos":-1,"motif":"","motif_pos":-1,"best_pos":5,"similarity":0.371,"stretto":false,"stretto_voices":0,"combination":[],"aug_dim":"","rhythm_ratio":1.0,"mirror":false,"chromatic_density":0.111,"complexity":0.49,"dissonance":0.127},{"voice":2,"pitch":55,"start":128.0,"duration":0.75,"velocity":59,"measure":65,"beat":1.0,"subject_pos":-1,"motif":"","motif_pos":-1,"best_pos":1,"similarity":0.375,"stretto":false,"stretto_voices":0,"combination":[],"aug_dim":"","rhythm_ratio":1.0,"mirror":false,"chromatic_density":0.111,"complexity":0.49,"dissonance":0.127},{"voice":0,"pitch":74,"start":128.25,"duration":0.4115,"velocity":76,"measure":65,"beat":1.5,"subject_pos":-1,"motif":"","motif_pos":-1,"best_pos":3,"similarity":0.364,"stretto":false,"stretto_voices":0,"combination":[],"aug_dim":"","rhythm_ratio":1.0,"mirror":false,"chromatic_density":0.111,"complexity":0.49,"dissonance":0.127},{"voice":0,"pitch":76,"start":128.5,"duration":0.9115,"velocity":76,"measure":65,"beat":2.0,"subject_pos":-1,"motif":"","motif_pos":-1,"best_pos":2,"similarity":0.357,"stretto":false,"stretto_voices":0,"combination":[],"aug_dim":"","rhythm_ratio":1.0,"mirror":false,"chromatic_density":0.111,"complexity":0.49,"dissonance":0.127},{"voice":1,"pitch":67,"start":128.75,"duration":0.25,"velocity":68,"measure":65,"beat":2.5,"subject_pos":-1,"motif":"","motif_pos":-1,"best_pos":5,"similarity":0.368,"stretto":false,"stretto_voices":0,"combination":[],"aug_dim":"","rhythm_ratio":1.0,"mirror":false,"chromatic_density":0.111,"complexity":0.49,"dissonance":0.127},{"voice":2,"pitch":49,"start":128.75,"duration":0.25,"velocity":59,"measure":65,"beat":2.5,"subject_pos":-1,"motif":"","motif_pos":-1,"best_pos":2,"similarity":0.25,"stretto":false,"stretto_voices":0,"combination":[],"aug_dim":"","rhythm_ratio":1.0,"mirror":false,"chromatic_density":0.111,"complexity":0.49,"dissonance":0.127},{"voice":1,"pitch":69,"start":129.0,"duration":0.75,"velocity":68,"measure":65,"beat":3.0,"subject_pos":-1,"motif":"","motif_pos":-1,"best_pos":1,"similarity":0.357,"stretto":false,"stretto_voices":0,"combination":[],"aug_dim":"","rhythm_ratio":1.0,"mirror":false,"chromatic_density":0.111,"complexity":0.49,"dissonance":0.127},{"voice":2,"pitch":53,"start":129.0,"duration":0.75,"velocity":59,"measure":65,"beat":3.0,"subject_pos":-1,"motif":"","motif_pos":-1,"best_pos":1,"similarity":0.286,"stretto":false,"stretto_voices":0,"combination":[],"aug_dim":"","rhythm_ratio":1.0,"mirror":false,"chromatic_density":0.111,"complexity":0.49,"dissonance":0.127},{"voice":0,"pitch":73,"start":129.25,"duration":0.4115,"velocity":76,"measure":65,"beat":3.5,"subject_pos":-1,"motif":"","motif_pos":-1,"best_pos":4,"similarity":0.464,"stretto":false,"stretto_voices":0,"combination":[],"aug_dim":"","rhythm_ratio":1.0,"mirror":false,"chromatic_density":0.111,"complexity":0.49,"dissonance":0.127},{"voice":0,"pitch":74,"start":129.5,"duration":0.9115,"velocity":76,"measure":65,"beat":4.0,"subject_pos":-1,"motif":"","motif_pos":-1,"best_pos":5,"similarity":0.464,"stretto":false,"stretto_voices":0,"combination":[],"aug_dim":"","rhythm_ratio":1.0,"mirror":false,"chromatic_density":0.111,"complexity":0.49,"dissonance":0.127},{"voice":1,"pitch":65,"start":129.75,"duration":0.25,"velocity":68,"measure":65,"beat":4.5,"subject_pos":-1,"motif":"bach_transposed","motif_pos":0,"best_pos":0,"similarity":1.0,"stretto":false,"stretto_voices":0,"combination":[],"aug_dim":"","rhythm_ratio":1.0,"mirror":false,"chromatic_density":0.111,"complexity":0.49,"dissonance":0.127},{"voice":2,"pitch":50,"start":129.75,"duration":0.25,"velocity":59,"measure":65,"beat":4.5,"subject_pos":-1,"motif":"","motif_pos":-1,"best_pos":0,"similarity":0.3,"stretto":false,"stretto_voices":0,"combination":[],"aug_dim":"","rhythm_ratio":1.0,"mirror":false,"chromatic_density":0.111,"complexity":0.49,"dissonance":0.127},{"voice":1,"pitch":64,"start":130.0,"duration":0.75,"velocity":68,"measure":66,"beat":1.0,"subject_pos":-1,"motif":"bach_transposed","motif_pos":1,"best_pos":1,"similarity":1.0,"stretto":false,"stretto_voices":0,"combination":[],"aug_dim":"","rhythm_ratio":1.0,"mirror":false,"chromatic_density":0.3,"complexity":0.709,"dissonance":0.145},{"voice":2,"pitch":57,"start":130.0,"duration":1.0,"velocity":59,"measure":66,"beat":1.0,"subject_pos":-1,"motif":"","motif_pos":-1,"best_pos":1,"similarity":0.321,"stretto":false,"stretto_voices":0,"combination":[],"aug_dim":"","rhythm_ratio":1.0,"mirror":false,"chromatic_density":0.3,"complexity":0.709,"dissonance":0.145},{"voice":0,"pitch":71,"start":130.25,"duration":0.4115,"velocity":76,"measure":66,"beat":1.5,"subject_pos":-1,"motif":"","motif_pos":-1,"best_pos":6,"similarity":0.446,"stretto":false,"stretto_voices":0,"combination":[],"aug_dim":"","rhythm_ratio":1.0,"mirror":false,"chromatic_density":0.3,"complexity":0.709,"dissonance":0.145},{"voice":0,"pitch":72,"start":130.5,"duration":1.0,"velocity":76,"measure":66,"beat":2.0,"subject_pos":-1,"motif":"","motif_pos":-1,"best_pos":5,"similarity":0.393,"stretto":false,"stretto_voices":0,"combination":[],"aug_dim":"","rhythm_ratio":1.0,"mirror":false,"chromatic_density":0.3,"complexity":0.709,"dissonance":0.145},{"voice":3,"pitch":45,"start":130.5,"duration":0.4427,"velocity":53,"measure":66,"beat":2.0,"subject_pos":-1,"motif":"","motif_pos":-1,"best_pos":6,"similarity":0.464,"stretto":false,"stretto_voices":0,"combination":[],"aug_dim":"","rhythm_ratio":1.0,"mirror":false,"chromatic_density":0.3,"complexity":0.709,"dissonance":0.145},{"voice":1,"pitch":67,"start":130.75,"duration":0.25,"velocity":68,"measure":66,"beat":2.5,"subject_pos":-1,"motif":"bach_transposed","motif_pos":2,"best_pos":2,"similarity":1.0,"stretto":false,"stretto_voices":0,"combination":[],"aug_dim":"","rhythm_ratio":1.0,"mirror":false,"chromatic_density":0.3,"complexity":0.709,"dissonance":0.145},{"voice":1,"pitch":66,"start":131.0,"duration":0.25,"velocity":68,"measure":66,"beat":3.0,"subject_pos":-1,"motif":"bach_transposed","motif_pos":3,"best_pos":3,"similarity":1.0,"stretto":false,"stretto_voices":0,"combination":[],"aug_dim":"","rhythm_ratio":1.0,"mirror":false,"chromatic_density":0.3,"complexity":0.709,"dissonance":0.145},{"voice":2,"pitch":50,"start":131.0,"duration":0.4427,"velocity":59,"measure":66,"beat":3.0,"subject_pos":-1,"motif":"","motif_pos":-1,"best_pos":2,"similarity":0.186,"stretto":false,"stretto_voices":0,"combination":[],"aug_dim":"","rhythm_ratio":1.0,"mirror":false,"chromatic_density":0.3,"complexity":0.709,"dissonance":0.145},{"voice":3,"pitch":46,"start":131.0,"duration":0.75,"velocity":53,"measure":66,"beat":3.0,"subject_pos":-1,"motif":"","motif_pos":-1,"best_pos":5,"similarity":0.357,"stretto":false,"stretto_voices":0,"combination":[],"aug_dim":"","rhythm_ratio":1.0,"mirror":false,"chromatic_density":0.3,"complexity":0.709,"dissonance":0.145},{"voice":1,"pitch":62,"start":131.25,"duration":0.25,"velocity":68,"measure":66,"beat":3.5,"subject_pos":-1,"motif":"","motif_pos":-1,"best_pos":2,"similarity":0.393,"stretto":false,"stretto_voices":0,"combination":[],"aug_dim":"","rhythm_ratio":1.0,"mirror":false,"chromatic_density":0.3,"complexity":0.709,"dissonance":0.145},{"voice":0,"pitch":70,"start":131.5,"duration":0.5,"velocity":76,"measure":66,"beat":4.0,"subject_pos":-1,"motif":"enigmatic_cell","motif_pos":0,"best_pos":0,"similarity":1.0,"stretto":false,"stretto_voices":0,"combination":[],"aug_dim":"","rhythm_ratio":1.0,"mirror":false,"chromatic_density":0.3,"complexity":0.709,"dissonance":0.145},{"voice":1,"pitch":67,"start":131.5,"duration":0.6927,"velocity":68,"measure":66,"beat":4.0,"subject_pos":-1,"motif":"","motif_pos":-1,"best_pos":1,"similarity":0.443,"stretto":false,"stretto_voices":0,"combination":[],"aug_dim":"","rhythm_ratio":1.0,"mirror":false,"chromatic_density":0.3,"complexity":0.709,"dissonance":0.145},{"voice":2,"pitch":62,"start":131.5,"duration":1.0,"velocity":59,"measure":66,"beat":4.0,"subject_pos":-1,"motif":"","motif_pos":-1,"best_pos":1,"similarity":0.214,"stretto":false,"stretto_voices":0,"combination":[],"aug_dim":"","rhythm_ratio":1.0,"mirror":false,"chromatic_density":0.3,"complexity":0.709,"dissonance":0.145},{"voice":3,"pitch":43,"start":131.75,"duration":0.25,"velocity":53,"measure":66,"beat":4.5,"subject_pos":-1,"motif":"","motif_pos":-1,"best_pos":0,"similarity":0.429,"stretto":false,"stretto_voices":0,"combination":[],"aug_dim":"","rhythm_ratio":1.0,"mirror":false,"chromatic_density":0.3,"complexity":0.709,"dissonance":0.145},{"voice":3,"pitch":50,"start":132.0,"duration":1.1927,"velocity":53,"measure":67,"beat":1.0,"subject_pos":-1,"motif":"","motif_pos":-1,"best_pos":1,"similarity":0.571,"stretto":false,"stretto_voices":0,"combination":[],"aug_dim":"","rhythm_ratio":1.0,"mirror":false,"chromatic_density":0.182,"complexity":0.656,"dissonance":0.097},{"voice":1,"pitch":64,"start":132.25,"duration":0.25,"velocity":68,"measure":67,"beat":1.5,"subject_pos":-1,"motif":"","motif_pos":-1,"best_pos":4,"similarity":0.436,"stretto":false,"stretto_voices":0,"combination":[],"aug_dim":"","rhythm_ratio":1.0,"mirror":false,"chromatic_density":0.182,"complexity":0.656,"dissonance":0.097},{"voice":1,"pitch":65,"start":132.5,"duration":0.6927,"velocity":68,"measure":67,"beat":2.0,"subject_pos":-1,"motif":"","motif_pos":-1,"best_pos":5,"similarity":0.336,"stretto":false,"stretto_voices":0,"combination":[],"aug_dim":"","rhythm_ratio":1.0,"mirror":false,"chromatic_density":0.182,"complexity":0.656,"dissonance":0.097},{"voice":2,"pitch":57,"start":132.5,"duration":0.25,"velocity":59,"measure":67,"beat":2.0,"subject_pos":-1,"motif":"","motif_pos":-1,"best_pos":1,"similarity":0.304,"stretto":false,"stretto_voices":0,"combination":[],"aug_dim":"","rhythm_ratio":1.0,"mirror":false,"chromatic_density":0.182,"complexity":0.656,"dissonance":0.097},{"voice":0,"pitch":69,"start":132.75,"duration":0.1615,"velocity":76,"measure":67,"beat":2.5,"subject_pos":-1,"motif":"enigmatic_cell","motif_pos":1,"best_pos":1,"similarity":1.0,"stretto":false,"stretto_voices":0,"combination":[],"aug_dim":"","rhythm_ratio":1.0,"mirror":false,"chromatic_density":0.182,"complexity":0.656,"dissonance":0.097},{"voice":2,"pitch":53,"start":132.75,"duration":0.25,"velocity":59,"measure":67,"beat":2.5,"subject_pos":-1,"motif":"","motif_pos":-1,"best_pos":0,"similarity":0.357,"stretto":false,"stretto_voices":0,"combination":[],"aug_dim":"","rhythm_ratio":1.0,"mirror":false,"chromatic_density":0.182,"complexity":0.656,"dissonance":0.097},{"voice":0,"pitch":74,"start":133.0,"duration":0.4115,"velocity":76,"measure":67,"beat":3.0,"subject_pos":-1,"motif":"enigmatic_cell","motif_pos":2,"best_pos":2,"similarity":1.0,"stretto":false,"stretto_voices":0,"combination":[],"aug_dim":"","rhythm_ratio":1.0,"mirror":false,"chromatic_density":0.182,"complexity":0.656,"dissonance":0.097},{"voice":2,"pitch":58,"start":133.0,"duration":1.1927,"velocity":59,"measure":67,"beat":3.0,"subject_pos":-1,"motif":"","motif_pos":-1,"best_pos":1,"similarity":0.429,"stretto":false,"stretto_voices":0,"combination":[],"aug_dim":"","rhythm_ratio":1.0,"mirror":false,"chromatic_density":0.182,"complexity":0.656,"dissonance":0.097},{"voice":0,"pitch":77,"start":133.25,"duration":0.4115,"velocity":76,"measure":67,"beat":3.5,"subject_pos":-1,"motif":"","motif_pos":-1,"best_pos":3,"similarity":0.329,"stretto":false,"stretto_voices":0,"combination":[],"aug_dim":"","rhythm_ratio":1.0,"mirror":false,"chromatic_density":0.182,"complexity":0.656,"dissonance":0.097},{"voice":1,"pitch":74,"start":133.25,"duration":0.25,"velocity":68,"measure":67,"beat":3.5,"subject_pos":-1,"motif":"","motif_pos":-1,"best_pos":1,"similarity":0.407,"stretto":false,"stretto_voices":0,"combination":[],"aug_dim":"","rhythm_ratio":1.0,"mirror":false,"chromatic_density":0.182,"complexity":0.656,"dissonance":0.097},{"voice":3,"pitch":46,"start":133.25,"duration":0.25,"velocity":53,"measure":67,"beat":3.5,"subject_pos":-1,"motif":"","motif_pos":-1,"best_pos":2,"similarity":0.436,"stretto":false,"stretto_voices":0,"combination":[],"aug_dim":"","rhythm_ratio":1.0,"mirror":false,"chromatic_density":0.182,"complexity":0.656,"dissonance":0.097},{"voice":0,"pitch":76,"start":133.5,"duration":0.4115,"velocity":76,"measure":67,"beat":4.0,"subject_pos":-1,"motif":"","motif_pos":-1,"best_pos":4,"similarity":0.389,"stretto":false,"stretto_voices":0,"combination":[],"aug_dim":"","rhythm_ratio":1.0,"mirror":false,"chromatic_density":0.182,"complexity":0.656,"dissonance":0.097},{"voice":1,"pitch":72,"start":133.5,"duration":1.1927,"velocity":68,"measure":67,"beat":4.0,"subject_pos":-1,"motif":"","motif_pos":-1,"best_pos":2,"similarity":0.439,"stretto":false,"stretto_voices":0,"combination":[],"aug_dim":"","rhythm_ratio":1.0,"mirror":false,"chromatic_density":0.182,"complexity":0.656,"dissonance":0.097},{"voice":3,"pitch":48,"start":133.5,"duration":0.5,"velocity":53,"measure":67,"beat":4.0,"subject_pos":-1,"motif":"","motif_pos":-1,"best_pos":0,"similarity":0.357,"stretto":false,"stretto_voices":0,"combination":[],"aug_dim":"","rhythm_ratio":1.0,"mirror":false,"chromatic_density":0.182,"complexity":0.656,"dissonance":0.097},{"voice":0,"pitch":79,"start":133.75,"duration":0.4115,"velocity":76,"measure":67,"beat":4.5,"subject_pos":-1,"motif":"","motif_pos":-1,"best_pos":1,"similarity":0.429,"stretto":false,"stretto_voices":0,"combination":[],"aug_dim":"","rhythm_ratio":1.0,"mirror":false,"chromatic_density":0.182,"complexity":0.656,"dissonance":0.097},{"voice":0,"pitch":77,"start":134.0,"duration":0.4115,"velocity":76,"measure":68,"beat":1.0,"subject_pos":-1,"motif":"","motif_pos":-1,"best_pos":2,"similarity":0.482,"stretto":false,"stretto_voices":0,"combination":[],"aug_dim":"","rhythm_ratio":1.0,"mirror":false,"chromatic_density":0.364,"complexity":0.571,"dissonance":0.178},{"voice":3,"pitch":53,"start":134.0,"duration":1.1927,"velocity":53,"measure":68,"beat":1.0,"subject_pos":-1,"motif":"","motif_pos":-1,"best_pos":1,"similarity":0.429,"stretto":false,"stretto_voices":0,"combination":[],"aug_dim":"","rhythm_ratio":1.0,"mirror":false,"chromatic_density":0.364,"complexity":0.571,"dissonance":0.178},{"voice":0,"pitch":76,"start":134.25,"duration":0.4115,"velocity":76,"measure":68,"beat":1.5,"subject_pos":-1,"motif":"","motif_pos":-1,"best_pos":4,"similarity":0.475,"stretto":false,"stretto_voices":0,"combination":[],"aug_dim":"","rhythm_ratio":1.0,"mirror":false,"chromatic_density":0.364,"complexity":0.571,"dissonance":0.178},{"voice":2,"pitch":55,"start":134.25,"duration":0.25,"velocity":59,"measure":68,"beat":1.5,"subject_pos":-1,"motif":"","motif_pos":-1,"best_pos":5,"similarity":0.364,"stretto":false,"stretto_voices":0,"combination":[],"aug_dim":"","rhythm_ratio":1.0,"mirror":false,"chromatic_density":0.364,"complexity":0.571,"dissonance":0.178},{"voice":0,"pitch":74,"start":134.5,"duration":0.9115,"velocity":76,"measure":68,"beat":2.0,"subject_pos":-1,"motif":"","motif_pos":-1,"best_pos":2,"similarity":0.5,"stretto":false,"stretto_voices":0,"combination":[],"aug_dim":"","rhythm_ratio":1.0,"mirror":false,"chromatic_density":0.364,"complexity":0.571,"dissonance":0.178},{"voice":2,"pitch":57,"start":134.5,"duration":0.5,"velocity":59,"measure":68,"beat":2.0,"subject_pos":-1,"motif":"","motif_pos":-1,"best_pos":0,"similarity":0.364,"stretto":false,"stretto_voices":0,"combination":[],"aug_dim":"","rhythm_ratio":1.0,"mirror":false,"chromatic_density":0.364,"complexity":0.571,"dissonance":0.178},{"voice":1,"pitch":72,"start":134.75,"duration":0.25,"velocity":68,"measure":68,"beat":2.5,"subject_pos":-1,"motif":"","motif_pos":-1,"best_pos":1,"similarity":0.393,"stretto":false,"stretto_voices":0,"combination":[],"aug_dim":"","rhythm_ratio":1.0,"mirror":false,"chromatic_density":0.364,"complexity":0.571,"dissonance":0.178},{"voice":1,"pitch":70,"start":135.0,"duration":0.25,"velocity":68,"measure":68,"beat":3.0,"subject_pos":-1,"motif":"","motif_pos":-1,"best_pos":2,"similarity":0.571,"stretto":false,"stretto_voices":0,"combination":[],"aug_dim":"","rhythm_ratio":1.0,"mirror":false,"chromatic_density":0.364,"complexity":0.571,"dissonance":0.178},{"voice":2,"pitch":62,"start":135.0,"duration":1.1927,"velocity":59,"measure":68,"beat":3.0,"subject_pos":-1,"motif":"","motif_pos":-1,"best_pos":1,"similarity":0.443,"stretto":false,"stretto_voices":0,"combination":[],"aug_dim":"","rhythm_ratio":1.0,"mirror":false,"chromatic_density":0.364,"complexity":0.571,"dissonance":0.178},{"voice":0,"pitch":77,"start":135.25,"duration":0.5,"velocity":76,"measure":68,"beat":3.5,"subject_pos":-1,"motif":"","motif_pos":-1,"best_pos":3,"similarity":0.571,"stretto":false,"stretto_voices":0,"combination":[],"aug_dim":"","rhythm_ratio":1.0,"mirror":false,"chromatic_density":0.364,"complexity":0.571,"dissonance":0.178},{"voice":1,"pitch":69,"start":135.25,"duration":0.25,"velocity":68,"measure":68,"beat":3.5,"subject_pos":-1,"motif":"","motif_pos":-1,"best_pos":3,"similarity":0.643,"stretto":false,"stretto_voices":0,"combination":[],"aug_dim":"","rhythm_ratio":1.0,"mirror":false,"chromatic_density":0.364,"complexity":0.571,"dissonance":0.178},{"voice":3,"pitch":50,"start":135.25,"duration":0.25,"velocity":53,"measure":68,"beat":3.5,"subject_pos":-1,"motif":"","motif_pos":-1,"best_pos":3,"similarity":0.336,"stretto":false,"stretto_voices":0,"combination":[],"aug_dim":"","rhythm_ratio":1.0,"mirror":false,"chromatic_density":0.364,"complexity":0.571,"dissonance":0.178},{"voice":1,"pitch":68,"start":135.5,"duration":0.5,"velocity":68,"measure":68,"beat":4.0,"subject_pos":-1,"motif":"enigmatic_cell","motif_pos":0,"best_pos":0,"similarity":1.0,"stretto":false,"stretto_voices":0,"combination":[],"aug_dim":"","rhythm_ratio":1.0,"mirror":false,"chromatic_density":0.364,"complexity":0.571,"dissonance":0.178},{"voice":3,"pitch":52,"start":135.5,"duration":0.5,"velocity":53,"measure":68,"beat":4.0,"subject_pos":-1,"motif":"","motif_pos":-1,"best_pos":0,"similarity":0.429,"stretto":false,"stretto_voices":0,"combination":[],"aug_dim":"","rhythm_ratio":1.0,"mirror":false,"chromatic_density":0.364,"complexity":0.571,"dissonance":0.178},{"voice":0,"pitch":76,"start":135.75,"duration":0.4115,"velocity":76,"measure":68,"beat":4.5,"subject_pos":-1,"motif":"","motif_pos":-1,"best_pos":4,"similarity":0.679,"stretto":false,"stretto_voices":0,"combination":[],"aug_dim":"","rhythm_ratio":1.0,"mirror":false,"chromatic_density":0.364,"complexity":0.571,"dissonance":0.178},{"voice":0,"pitch":77,"start":136.0,"duration":0.4115,"velocity":76,"measure":69,"beat":1.0,"subject_pos":-1,"motif":"","motif_pos":-1,"best_pos":5,"similarity":0.5,"stretto":false,"stretto_voices":0,"combination":[],"aug_dim":"","rhythm_ratio":1.0,"mirror":false,"chromatic_density":0.167,"complexity":0.638,"dissonance":0.162},{"voice":1,"pitch":69,"start":136.0,"duration":0.6927,"velocity":68,"measure":69,"beat":1.0,"subject_pos":-1,"motif":"enigmatic_cell","motif_pos":1,"best_pos":1,"similarity":1.0,"stretto":false,"stretto_voices":0,"combination":[],"aug_dim":"","rhythm_ratio":1.0,"mirror":false,"chromatic_density":0.167,"complexity":0.638,"dissonance":0.162},{"voice":3,"pitch":57,"start":136.0,"duration":1.1927,"velocity":53,"measure":69,"beat":1.0,"subject_pos":-1,"motif":"","motif_pos":-1,"best_pos":1,"similarity":0.571,"stretto":false,"stretto_voices":0,"combination":[],"aug_dim":"","rhythm_ratio":1.0,"mirror":false,"chromatic_density":0.167,"complexity":0.638,"dissonance":0.162},{"voice":0,"pitch":74,"start":136.25,"duration":0.4115,"velocity":76,"measure":69,"beat":1.5,"subject_pos":-1,"motif":"","motif_pos":-1,"best_pos":5,"similarity":0.382,"stretto":false,"stretto_voices":0,"combination":[],"aug_dim":"","rhythm_ratio":1.0,"mirror":false,"chromatic_density":0.167,"complexity":0.638,"dissonance":0.162},{"voice":2,"pitch":59,"start":136.25,"duration":0.25,"velocity":59,"measure":69,"beat":1.5,"subject_pos":-1,"motif":"","motif_pos":-1,"best_pos":4,"similarity":0.386,"stretto":false,"stretto_voices":0,"combination":[],"aug_dim":"","rhythm_ratio":1.0,"mirror":false,"chromatic_density":0.167,"complexity":0.638,"dissonance":0.162},{"voice":0,"pitch":76,"start":136.5,"duration":0.9115,"velocity":76,"measure":69,"beat":2.0,"subject_pos":-1,"motif":"","motif_pos":-1,"best_pos":1,"similarity":0.457,"stretto":false,"stretto_voices":0,"combination":[],"aug_dim":"","rhythm_ratio":1.0,"mirror":false,"chromatic_density":0.167,"complexity":0.638,"dissonance":0.162},{"voice":2,"pitch":60,"start":136.5,"duration":0.5,"velocity":59,"measure":69,"beat":2.0,"subject_pos":-1,"motif":"","motif_pos":-1,"best_pos":5,"similarity":0.364,"stretto":false,"stretto_voices":0,"combination":[],"aug_dim":"","rhythm_ratio":1.0,"mirror":false,"chromatic_density":0.167,"complexity":0.638,"dissonance":0.162},{"voice":1,"pitch":64,"start":136.75,"duration":0.25,"velocity":68,"measure":69,"beat":2.5,"subject_pos":-1,"motif":"enigmatic_cell","motif_pos":2,"best_pos":2,"similarity":1.0,"stretto":false,"stretto_voices":0,"combination":[],"aug_dim":"","rhythm_ratio":1.0,"mirror":false,"chromatic_density":0.167,"complexity":0.638,"dissonance":0.162},{"voice":1,"pitch":69,"start":137.0,"duration":0.5,"velocity":68,"measure":69,"beat":3.0,"subject_pos":-1,"motif":"","motif_pos":-1,"best_pos":1,"similarity":0.589,"stretto":false,"stretto_voices":0,"combination":[],"aug_dim":"","rhythm_ratio":1.0,"mirror":false,"chromatic_density":0.167,"complexity":0.638,"dissonance":0.162},{"voice":2,"pitch":65,"start":137.0,"duration":1.1927,"velocity":59,"measure":69,"beat":3.0,"subject_pos":-1,"motif":"","motif_pos":-1,"best_pos":1,"similarity":0.514,"stretto":false,"stretto_voices":0,"combination":[],"aug_dim":"","rhythm_ratio":1.0,"mirror":false,"chromatic_density":0.167,"complexity":0.638,"dissonance":0.162},{"voice":0,"pitch":74,"start":137.25,"duration":0.4115,"velocity":76,"measure":69,"beat":3.5,"subject_pos":-1,"motif":"","motif_pos":-1,"best_pos":2,"similarity":0.657,"stretto":false,"stretto_voices":0,"combination":[],"aug_dim":"","rhythm_ratio":1.0,"mirror":false,"chromatic_density":0.167,"complexity":0.638,"dissonance":0.162},{"voice":3,"pitch":53,"start":137.25,"duration":0.25,"velocity":53,"measure":69,"beat":3.5,"subject_pos":-1,"motif":"","motif_pos":-1,"best_pos":2,"similarity":0.464,"stretto":false,"stretto_voices":0,"combination":[],"aug_dim":"","rhythm_ratio":1.0,"mirror":false,"chromatic_density":0.167,"complexity":0.638,"dissonance":0.162},{"voice":0,"pitch":72,"start":137.5,"duration":0.4115,"velocity":76,"measure":69,"beat":4.0,"subject_pos":-1,"motif":"","motif_pos":-1,"best_pos":3,"similarity":0.721,"stretto":false,"stretto_voices":0,"combination":[],"aug_dim":"","rhythm_ratio":1.0,"mirror":false,"chromatic_density":0.167,"complexity":0.638,"dissonance":0.162},{"voice":1,"pitch":65,"start":137.5,"duration":1.1927,"velocity":68,"measure":69,"beat":4.0,"subject_pos":-1,"motif":"","motif_pos":-1,"best_pos":2,"similarity":0.471,"stretto":false,"stretto_voices":0,"combination":[],"aug_dim":"","rhythm_ratio":1.0,"mirror":false,"chromatic_density":0.167,"complexity":0.638,"dissonance":0.162},{"voice":3,"pitch":55,"start":137.5,"duration":0.5,"velocity":53,"measure":69,"beat":4.0,"subject_pos":-1,"motif":"","motif_pos":-1,"best_pos":0,"similarity":0.393,"stretto":false,"stretto_voices":0,"combination":[],"aug_dim":"","rhythm_ratio":1.0,"mirror":false,"chromatic_density":0.167,"complexity":0.638,"dissonance":0.162},{"voice":0,"pitch":71,"start":137.75,"duration":0.4115,"velocity":76,"measure":69,"beat":4.5,"subject_pos":-1,"motif":"","motif_pos":-1,"best_pos":4,"similarity":0.721,"stretto":false,"stretto_voices":0,"combination":[],"aug_dim":"","rhythm_ratio":1.0,"mirror":false,"chromatic_density":0.167,"complexity":0.638,"dissonance":0.162},{"voice":0,"pitch":72,"start":138.0,"duration":0.9115,"velocity":76,"measure":70,"beat":1.0,"subject_pos":-1,"motif":"","motif_pos":-1,"best_pos":5,"similarity":0.479,"stretto":false,"stretto_voices":0,"combination":[],"aug_dim":"","rhythm_ratio":1.0,"mirror":false,"chromatic_density":0.455,"complexity":0.607,"dissonance":0.095},{"voice":3,"pitch":60,"start":138.0,"duration":1.0,"velocity":53,"measure":70,"beat":1.0,"subject_pos":-1,"motif":"","motif_pos":-1,"best_pos":1,"similarity":0.518,"stretto":false,"stretto_voices":0,"combination":[],"aug_dim":"","rhythm_ratio":1.0,"mirror":false,"chromatic_density":0.455,"complexity":0.607,"dissonance":0.095},{"voice":2,"pitch":62,"start":138.25,"duration":0.25,"velocity":59,"measure":70,"beat":1.5,"subject_pos":-1,"motif":"","motif_pos":-1,"best_pos":2,"similarity":0.493,"stretto":false,"stretto_voices":0,"combination":[],"aug_dim":"","rhythm_ratio":1.0,"mirror":false,"chromatic_density":0.455,"complexity":0.607,"dissonance":0.095},{"voice":2,"pitch":63,"start":138.5,"duration":0.5,"velocity":59,"measure":70,"beat":2.0,"subject_pos":-1,"motif":"","motif_pos":-1,"best_pos":3,"similarity":0.564,"stretto":false,"stretto_voices":0,"combination":[],"aug_dim":"","rhythm_ratio":1.0,"mirror":false,"chromatic_density":0.455,"complexity":0.607,"dissonance":0.095},{"voice":0,"pitch":81,"start":138.75,"duration":0.4115,"velocity":76,"measure":70,"beat":2.5,"subject_pos":-1,"motif":"","motif_pos":-1,"best_pos":1,"similarity":0.411,"stretto":false,"stretto_voices":0,"combination":[],"aug_dim":"","rhythm_ratio":1.0,"mirror":false,"chromatic_density":0.455,"complexity":0.607,"dissonance":0.095},{"voice":1,"pitch":72,"start":138.75,"duration":0.25,"velocity":68,"measure":70,"beat":2.5,"subject_pos":-1,"motif":"","motif_pos":-1,"best_pos":1,"similarity":0.507,"stretto":false,"stretto_voices":0,"combination":[],"aug_dim":"","rhythm_ratio":1.0,"mirror":false,"chromatic_density":0.455,"complexity":0.607,"dissonance":0.095},{"voice":0,"pitch":79,"start":139.0,"duration":0.4115,"velocity":76,"measure":70,"beat":3.0,"subject_pos":-1,"motif":"","motif_pos":-1,"best_pos":3,"similarity":0.614,"stretto":false,"stretto_voices":0,"combination":[],"aug_dim":"","rhythm_ratio":1.0,"mirror":false,"chromatic_density":0.455,"complexity":0.607,"dissonance":0.095},{"voice":1,"pitch":69,"start":139.0,"duration":0.5,"velocity":68,"measure":70,"beat":3.0,"subject_pos":-1,"motif":"","motif_pos":-1,"best_pos":3,"similarity":0.571,"stretto":false,"stretto_voices":0,"combination":[],"aug_dim":"","rhythm_ratio":1.0,"mirror":false,"chromatic_density":0.455,"complexity":0.607,"dissonance":0.095},{"voice":2,"pitch":62,"start":139.0,"duration":1.0,"velocity":59,"measure":70,"beat":3.0,"subject_pos":-1,"motif":"","motif_pos":-1,"best_pos":5,"similarity":0.607,"stretto":false,"stretto_voices":0,"combination":[],"aug_dim":"","rhythm_ratio":1.0,"mirror":false,"chromatic_density":0.455,"complexity":0.607,"dissonance":0.095},{"voice":3,"pitch":60,"start":139.0,"duration":0.1927,"velocity":53,"measure":70,"beat":3.0,"subject_pos":-1,"motif":"","motif_pos":-1,"best_pos":2,"similarity":0.554,"stretto":false,"stretto_voices":0,"combination":[],"aug_dim":"","rhythm_ratio":1.0,"mirror":false,"chromatic_density":0.455,"complexity":0.607,"dissonance":0.095},{"voice":0,"pitch":78,"start":139.25,"duration":0.4115,"velocity":76,"measure":70,"beat":3.5,"subject_pos":-1,"motif":"","motif_pos":-1,"best_pos":4,"similarity":0.714,"stretto":false,"stretto_voices":0,"combination":[],"aug_dim":"","rhythm_ratio":1.0,"mirror":false,"chromatic_density":0.455,"complexity":0.607,"dissonance":0.095},{"voice":3,"pitch":57,"start":139.25,"duration":0.25,"velocity":53,"measure":70,"beat":3.5,"subject_pos":-1,"motif":"","motif_pos":-1,"best_pos":3,"similarity":0.507,"stretto":false,"stretto_voices":0,"combination":[],"aug_dim":"","rhythm_ratio":1.0,"mirror":false,"chromatic_density":0.455,"complexity":0.607,"dissonance":0.095},{"voice":0,"pitch":79,"start":139.5,"duration":0.4115,"velocity":76,"measure":70,"beat":4.0,"subject_pos":-1,"motif":"","motif_pos":-1,"best_pos":5,"similarity":0.607,"stretto":false,"stretto_voices":0,"combination":[],"aug_dim":"","rhythm_ratio":1.0,"mirror":false,"chromatic_density":0.455,"complexity":0.607,"dissonance":0.095},{"voice":1,"pitch":67,"start":139.5,"duration":1.0,"velocity":68,"measure":70,"beat":4.0,"subject_pos":-1,"motif":"","motif_pos":-1,"best_pos":4,"similarity":0.579,"stretto":false,"stretto_voices":0,"combination":[],"aug_dim":"","rhythm_ratio":1.0,"mirror":false,"chromatic_density":0.455,"complexity":0.607,"dissonance":0.095},{"voice":3,"pitch":58,"start":139.5,"duration":1.0,"velocity":53,"measure":70,"beat":4.0,"subject_pos":-1,"motif":"","motif_pos":-1,"best_pos":3,"similarity":0.457,"stretto":false,"stretto_voices":0,"combination":[],"aug_dim":"","rhythm_ratio":1.0,"mirror":false,"chromatic_density":0.455,"complexity":0.607,"dissonance":0.095},{"voice":0,"pitch":82,"start":139.75,"duration":0.4115,"velocity":76,"measure":70,"beat":4.5,"subject_pos":-1,"motif":"","motif_pos":-1,"best_pos":6,"similarity":0.357,"stretto":false,"stretto_voices":0,"combination":[],"aug_dim":"","rhythm_ratio":1.0,"mirror":false,"chromatic_density":0.455,"complexity":0.607,"dissonance":0.095},{"voice":0,"pitch":73,"start":140.0,"duration":0.5,"velocity":76,"measure":71,"beat":1.0,"subject_pos":-1,"motif":"","motif_pos":-1,"best_pos":6,"similarity":0.339,"stretto":false,"stretto_voices":0,"combination":[],"aug_dim":"","rhythm_ratio":1.0,"mirror":false,"chromatic_density":0.0,"complexity":0.163,"dissonance":0.0},{"voice":2,"pitch":64,"start":140.0,"duration":0.5,"velocity":59,"measure":71,"beat":1.0,"subject_pos":-1,"motif":"","motif_pos":-1,"best_pos":6,"similarity":0.625,"stretto":false,"stretto_voices":0,"combination":[],"aug_dim":"","rhythm_ratio":1.0,"mirror":false,"chromatic_density":0.0,"complexity":0.163,"dissonance":0.0},{"voice":0,"pitch":74,"start":142.0,"duration":0.5,"velocity":76,"measure":72,"beat":1.0,"subject_pos":-1,"motif":"","motif_pos":-1,"best_pos":5,"similarity":0.371,"stretto":false,"stretto_voices":0,"combination":[],"aug_dim":"","rhythm_ratio":1.0,"mirror":false,"chromatic_density":0.0,"complexity":0.3,"dissonance":0.0},{"voice":1,"pitch":69,"start":142.0,"duration":0.5,"velocity":68,"measure":72,"beat":1.0,"subject_pos":-1,"motif":"","motif_pos":-1,"best_pos":5,"similarity":0.586,"stretto":false,"stretto_voices":0,"combination":[],"aug_dim":"","rhythm_ratio":1.0,"mirror":false,"chromatic_density":0.0,"complexity":0.3,"dissonance":0.0},{"voice":2,"pitch":65,"start":142.0,"duration":0.5,"velocity":59,"measure":72,"beat":1.0,"subject_pos":-1,"motif":"","motif_pos":-1,"best_pos":7,"similarity":0.446,"stretto":false,"stretto_voices":0,"combination":[],"aug_dim":"","rhythm_ratio":1.0,"mirror":false,"chromatic_density":0.0,"complexity":0.3,"dissonance":0.0},{"voice":3,"pitch":57,"start":142.0,"duration":0.5,"velocity":53,"measure":72,"beat":1.0,"subject_pos":-1,"motif":"","motif_pos":-1,"best_pos":3,"similarity":0.514,"stretto":false,"stretto_voices":0,"combination":[],"aug_dim":"","rhythm_ratio":1.0,"mirror":false,"chromatic_density":0.0,"complexity":0.3,"dissonance":0.0},{"voice":0,"pitch":74,"start":144.0,"duration":2.4115,"velocity":76,"measure":73,"beat":1.0,"subject_pos":-1,"motif":"","motif_pos":-1,"best_pos":2,"similarity":0.457,"stretto":false,"stretto_voices":0,"combination":[],"aug_dim":"","rhythm_ratio":1.0,"mirror":false,"chromatic_density":0.5,"complexity":0.493,"dissonance":0.088},{"voice":1,"pitch":71,"start":144.0,"duration":1.0,"velocity":68,"measure":73,"beat":1.0,"subject_pos":-1,"motif":"","motif_pos":-1,"best_pos":1,"similarity":0.457,"stretto":false,"stretto_voices":0,"combination":[],"aug_dim":"","rhythm_ratio":1.0,"mirror":false,"chromatic_density":0.5,"complexity":0.493,"dissonance":0.088},{"voice":2,"pitch":65,"start":144.0,"duration":1.5,"velocity":59,"measure":73,"beat":1.0,"subject_pos":-1,"motif":"","motif_pos":-1,"best_pos":3,"similarity":0.421,"stretto":false,"stretto_voices":0,"combination":[],"aug_dim":"","rhythm_ratio":1.0,"mirror":false,"chromatic_density":0.5,"complexity":0.493,"dissonance":0.088},{"voice":3,"pitch":56,"start":144.0,"duration":1.0,"velocity":53,"measure":73,"beat":1.0,"subject_pos":-1,"motif":"","motif_pos":-1,"best_pos":4,"similarity":0.621,"stretto":false,"stretto_voices":0,"combination":[],"aug_dim":"","rhythm_ratio":1.0,"mirror":false,"chromatic_density":0.5,"complexity":0.493,"dissonance":0.088},{"voice":1,"pitch":69,"start":145.0,"duration":1.6927,"velocity":68,"measure":73,"beat":3.0,"subject_pos":-1,"motif":"","motif_pos":-1,"best_pos":2,"similarity":0.657,"stretto":false,"stretto_voices":0,"combination":[],"aug_dim":"","rhythm_ratio":1.0,"mirror":false,"chromatic_density":0.5,"complexity":0.493,"dissonance":0.088},{"voice":3,"pitch":57,"start":145.0,"duration":1.4427,"velocity":53,"measure":73,"beat":3.0,"subject_pos":-1,"motif":"","motif_pos":-1,"best_pos":5,"similarity":0.461,"stretto":false,"stretto_voices":0,"combination":[],"aug_dim":"","rhythm_ratio":1.0,"mirror":false,"chromatic_density":0.5,"complexity":0.493,"dissonance":0.088},{"voice":2,"pitch":64,"start":145.5,"duration":0.25,"velocity":59,"measure":73,"beat":4.0,"subject_pos":-1,"motif":"","motif_pos":-1,"best_pos":4,"similarity":0.479,"stretto":false,"stretto_voices":0,"combination":[],"aug_dim":"","rhythm_ratio":1.0,"mirror":false,"chromatic_density":0.5,"complexity":0.493,"dissonance":0.088},{"voice":2,"pitch":62,"start":145.75,"duration":0.25,"velocity":59,"measure":73,"beat":4.5,"subject_pos":-1,"motif":"","motif_pos":-1,"best_pos":5,"similarity":0.464,"stretto":false,"stretto_voices":0,"combination":[],"aug_dim":"","rhythm_ratio":1.0,"mirror":false,"chromatic_density":0.5,"complexity":0.493,"dissonance":0.088},{"voice":2,"pitch":64,"start":146.0,"duration":0.5,"velocity":59,"measure":74,"beat":1.0,"subject_pos":-1,"motif":"","motif_pos":-1,"best_pos":6,"similarity":0.371,"stretto":false,"stretto_voices":0,"combination":[],"aug_dim":"","rhythm_ratio":1.0,"mirror":false,"chromatic_density":0.375,"complexity":0.561,"dissonance":0.079},{"voice":0,"pitch":71,"start":146.25,"duration":0.4115,"velocity":76,"measure":74,"beat":1.5,"subject_pos":-1,"motif":"","motif_pos":-1,"best_pos":5,"similarity":0.536,"stretto":false,"stretto_voices":0,"combination":[],"aug_dim":"","rhythm_ratio":1.0,"mirror":false,"chromatic_density":0.375,"complexity":0.561,"dissonance":0.079},{"voice":0,"pitch":73,"start":146.5,"duration":0.4115,"velocity":76,"measure":74,"beat":2.0,"subject_pos":-1,"motif":"","motif_pos":-1,"best_pos":6,"similarity":0.621,"stretto":false,"stretto_voices":0,"combination":[],"aug_dim":"","rhythm_ratio":1.0,"mirror":false,"chromatic_density":0.375,"complexity":0.561,"dissonance":0.079},{"voice":3,"pitch":45,"start":146.5,"duration":0.4427,"velocity":53,"measure":74,"beat":2.0,"subject_pos":-1,"motif":"","motif_pos":-1,"best_pos":0,"similarity":0.286,"stretto":false,"stretto_voices":0,"combination":[],"aug_dim":"","rhythm_ratio":1.0,"mirror":false,"chromatic_density":0.375,"complexity":0.561,"dissonance":0.079},{"voice":1,"pitch":67,"start":146.75,"duration":0.25,"velocity":68,"measure":74,"beat":2.5,"subject_pos":-1,"motif":"","motif_pos":-1,"best_pos":3,"similarity":0.793,"stretto":false,"stretto_voices":0,"combination":[],"aug_dim":"","rhythm_ratio":1.0,"mirror":false,"chromatic_density":0.375,"complexity":0.561,"dissonance":0.079},{"voice":0,"pitch":74,"start":147.0,"duration":0.9115,"velocity":76,"measure":74,"beat":3.0,"subject_pos":-1,"motif":"","motif_pos":-1,"best_pos":1,"similarity":0.457,"stretto":false,"stretto_voices":0,"combination":[],"aug_dim":"","rhythm_ratio":1.0,"mirror":false,"chromatic_density":0.375,"complexity":0.561,"dissonance":0.079},{"voice":1,"pitch":66,"start":147.0,"duration":0.25,"velocity":68,"measure":74,"beat":3.0,"subject_pos":-1,"motif":"","motif_pos":-1,"best_pos":4,"similarity":0.864,"stretto":false,"stretto_voices":0,"combination":[],"aug_dim":"","rhythm_ratio":1.0,"mirror":false,"chromatic_density":0.375,"complexity":0.561,"dissonance":0.079},{"voice":2,"pitch":57,"start":147.0,"duration":1.0,"velocity":59,"measure":74,"beat":3.0,"subject_pos":-1,"motif":"","motif_pos":-1,"best_pos":0,"similarity":0.5,"stretto":false,"stretto_voices":0,"combination":[],"aug_dim":"","rhythm_ratio":1.0,"mirror":false,"chromatic_density":0.375,"complexity":0.561,"dissonance":0.079},{"voice":3,"pitch":50,"start":147.0,"duration":11.0,"velocity":53,"measure":74,"beat":3.0,"subject_pos":-1,"motif":"","motif_pos":-1,"best_pos":1,"similarity":0.286,"stretto":false,"stretto_voices":0,"combination":[],"aug_dim":"","rhythm_ratio":1.0,"mirror":false,"chromatic_density":0.375,"complexity":0.561,"dissonance":0.079},{"voice":1,"pitch":67,"start":147.25,"duration":0.25,"velocity":68,"measure":74,"beat":3.5,"subject_pos":-1,"motif":"","motif_pos":-1,"best_pos":5,"similarity":0.764,"stretto":false,"stretto_voices":0,"combination":[],"aug_dim":"","rhythm_ratio":1.0,"mirror":false,"chromatic_density":0.375,"complexity":0.561,"dissonance":0.079},{"voice":1,"pitch":69,"start":147.5,"duration":0.6927,"velocity":68,"measure":74,"beat":4.0,"subject_pos":-1,"motif":"","motif_pos":-1,"best_pos":6,"similarity":0.529,"stretto":false,"stretto_voices":0,"combination":[],"aug_dim":"","rhythm_ratio":1.0,"mirror":false,"chromatic_density":0.375,"complexity":0.561,"dissonance":0.079},{"voice":0,"pitch":72,"start":147.75,"duration":0.4115,"velocity":76,"measure":74,"beat":4.5,"subject_pos":-1,"motif":"","motif_pos":-1,"best_pos":2,"similarity":0.586,"stretto":false,"stretto_voices":0,"combination":[],"aug_dim":"","rhythm_ratio":1.0,"mirror":false,"chromatic_density":0.375,"complexity":0.561,"dissonance":0.079},{"voice":0,"pitch":70,"start":148.0,"duration":0.9115,"velocity":76,"measure":75,"beat":1.0,"subject_pos":-1,"motif":"","motif_pos":-1,"best_pos":3,"similarity":0.586,"stretto":false,"stretto_voices":0,"combination":[],"aug_dim":"","rhythm_ratio":1.0,"mirror":false,"chromatic_density":0.286,"complexity":0.504,"dissonance":0.159},{"voice":2,"pitch":62,"start":148.0,"duration":1.0,"velocity":59,"measure":75,"beat":1.0,"subject_pos":-1,"motif":"","motif_pos":-1,"best_pos":1,"similarity":0.786,"stretto":false,"stretto_voices":0,"combination":[],"aug_dim":"","rhythm_ratio":1.0,"mirror":false,"chromatic_density":0.286,"complexity":0.504,"dissonance":0.159},{"voice":1,"pitch":67,"start":148.25,"duration":0.25,"velocity":68,"measure":75,"beat":1.5,"subject_pos":-1,"motif":"","motif_pos":-1,"best_pos":2,"similarity":0.371,"stretto":false,"stretto_voices":0,"combination":[],"aug_dim":"","rhythm_ratio":1.0,"mirror":false,"chromatic_density":0.286,"complexity":0.504,"dissonance":0.159},{"voice":1,"pitch":72,"start":148.5,"duration":0.6927,"velocity":68,"measure":75,"beat":2.0,"subject_pos":-1,"motif":"","motif_pos":-1,"best_pos":1,"similarity":0.379,"stretto":false,"stretto_voices":0,"combination":[],"aug_dim":"","rhythm_ratio":1.0,"mirror":false,"chromatic_density":0.286,"complexity":0.504,"dissonance":0.159},{"voice":0,"pitch":69,"start":148.75,"duration":0.4115,"velocity":76,"measure":75,"beat":2.5,"subject_pos":-1,"motif":"","motif_pos":-1,"best_pos":4,"similarity":0.479,"stretto":false,"stretto_voices":0,"combination":[],"aug_dim":"","rhythm_ratio":1.0,"mirror":false,"chromatic_density":0.286,"complexity":0.504,"dissonance":0.159},{"voice":0,"pitch":62,"start":149.0,"duration":1.0,"velocity":76,"measure":75,"beat":3.0,"subject_pos":-1,"motif":"","motif_pos":-1,"best_pos":0,"similarity":0.3,"stretto":false,"stretto_voices":0,"combination":[],"aug_dim":"","rhythm_ratio":1.0,"mirror":false,"chromatic_density":0.286,"complexity":0.504,"dissonance":0.159},{"voice":2,"pitch":58,"start":149.0,"duration":1.0,"velocity":59,"measure":75,"beat":3.0,"subject_pos":-1,"motif":"","motif_pos":-1,"best_pos":2,"similarity":0.929,"stretto":false,"stretto_voices":0,"combination":[],"aug_dim":"","rhythm_ratio":1.0,"mirror":false,"chromatic_density":0.286,"complexity":0.504,"dissonance":0.159},{"voice":1,"pitch":66,"start":149.25,"duration":0.25,"velocity":68,"measure":75,"beat":3.5,"subject_pos":-1,"motif":"","motif_pos":-1,"best_pos":4,"similarity":0.429,"stretto":false,"stretto_voices":0,"combination":[],"aug_dim":"","rhythm_ratio":1.0,"mirror":false,"chromatic_density":0.286,"complexity":0.504,"dissonance":0.159},{"voice":1,"pitch":67,"start":149.5,"duration":0.25,"velocity":68,"measure":75,"beat":4.0,"subject_pos":-1,"motif":"","motif_pos":-1,"best_pos":5,"similarity":0.429,"stretto":false,"stretto_voices":0,"combination":[],"aug_dim":"","rhythm_ratio":1.0,"mirror":false,"chromatic_density":0.286,"complexity":0.504,"dissonance":0.159},{"voice":1,"pitch":70,"start":149.75,"duration":0.25,"velocity":68,"measure":75,"beat":4.5,"subject_pos":-1,"motif":"","motif_pos":-1,"best_pos":6,"similarity":0.286,"stretto":false,"stretto_voices":0,"combination":[],"aug_dim":"","rhythm_ratio":1.0,"mirror":false,"chromatic_density":0.286,"complexity":0.504,"dissonance":0.159},{"voice":1,"pitch":63,"start":150.0,"duration":1.0,"velocity":68,"measure":76,"beat":1.0,"subject_pos":-1,"motif":"","motif_pos":-1,"best_pos":3,"similarity":0.357,"stretto":false,"stretto_voices":0,"combination":[],"aug_dim":"","rhythm_ratio":1.0,"mirror":false,"chromatic_density":0.25,"complexity":0.462,"dissonance":0.2},{"voice":2,"pitch":55,"start":150.0,"duration":1.0,"velocity":59,"measure":76,"beat":1.0,"subject_pos":-1,"motif":"tail","motif_pos":3,"best_pos":3,"similarity":1.0,"stretto":false,"stretto_voices":0,"combination":[],"aug_dim":"","rhythm_ratio":1.0,"mirror":false,"chromatic_density":0.25,"complexity":0.462,"dissonance":0.2},{"voice":0,"pitch":67,"start":150.25,"duration":0.4115,"velocity":76,"measure":76,"beat":1.5,"subject_pos":-1,"motif":"","motif_pos":-1,"best_pos":5,"similarity":0.368,"stretto":false,"stretto_voices":0,"combination":[],"aug_dim":"","rhythm_ratio":1.0,"mirror":false,"chromatic_density":0.25,"complexity":0.462,"dissonance":0.2},{"voice":0,"pitch":69,"start":150.5,"duration":0.4115,"velocity":76,"measure":76,"beat":2.0,"subject_pos":-1,"motif":"","motif_pos":-1,"best_pos":6,"similarity":0.371,"stretto":false,"stretto_voices":0,"combination":[],"aug_dim":"","rhythm_ratio":1.0,"mirror":false,"chromatic_density":0.25,"complexity":0.462,"dissonance":0.2},{"voice":0,"pitch":72,"start":150.75,"duration":0.5,"velocity":76,"measure":76,"beat":2.5,"subject_pos":-1,"motif":"","motif_pos":-1,"best_pos":1,"similarity":0.364,"stretto":false,"stretto_voices":0,"combination":[],"aug_dim":"","rhythm_ratio":1.0,"mirror":false,"chromatic_density":0.25,"complexity":0.462,"dissonance":0.2},{"voice":1,"pitch":62,"start":151.0,"duration":0.4427,"velocity":68,"measure":76,"beat":3.0,"subject_pos":-1,"motif":"","motif_pos":-1,"best_pos":4,"similarity":0.407,"stretto":false,"stretto_voices":0,"combination":[],"aug_dim":"","rhythm_ratio":1.0,"mirror":false,"chromatic_density":0.25,"complexity":0.462,"dissonance":0.2},{"voice":2,"pitch":54,"start":151.0,"duration":1.0,"velocity":59,"measure":76,"beat":3.0,"subject_pos":-1,"motif":"tail","motif_pos":4,"best_pos":4,"similarity":1.0,"stretto":false,"stretto_voices":0,"combination":[],"aug_dim":"","rhythm_ratio":1.0,"mirror":false,"chromatic_density":0.25,"complexity":0.462,"dissonance":0.2},{"voice":0,"pitch":70,"start":151.25,"duration":0.4115,"velocity":76,"measure":76,"beat":3.5,"subject_pos":-1,"motif":"","motif_pos":-1,"best_pos":4,"similarity":0.382,"stretto":false,"stretto_voices":0,"combination":[],"aug_dim":"","rhythm_ratio":1.0,"mirror":false,"chromatic_density":0.25,"complexity":0.462,"dissonance":0.2},{"voice":0,"pitch":72,"start":151.5,"duration":0.4115,"velocity":76,"measure":76,"beat":4.0,"subject_pos":-1,"motif":"","motif_pos":-1,"best_pos":5,"similarity":0.393,"stretto":false,"stretto_voices":0,"combination":[],"aug_dim":"","rhythm_ratio":1.0,"mirror":false,"chromatic_density":0.25,"complexity":0.462,"dissonance":0.2},{"voice":1,"pitch":57,"start":151.5,"duration":0.5,"velocity":68,"measure":76,"beat":4.0,"subject_pos":-1,"motif":"","motif_pos":-1,"best_pos":4,"similarity":0.536,"stretto":false,"stretto_voices":0,"combination":[],"aug_dim":"","rhythm_ratio":1.0,"mirror":false,"chromatic_density":0.25,"complexity":0.462,"dissonance":0.2},{"voice":0,"pitch":75,"start":151.75,"duration":0.5,"velocity":76,"measure":76,"beat":4.5,"subject_pos":-1,"motif":"","motif_pos":-1,"best_pos":3,"similarity":0.35,"stretto":false,"stretto_voices":0,"combination":[],"aug_dim":"","rhythm_ratio":1.0,"mirror":false,"chromatic_density":0.25,"complexity":0.462,"dissonance":0.2},{"voice":1,"pitch":58,"start":152.0,"duration":0.5,"velocity":68,"measure":77,"beat":1.0,"subject_pos":-1,"motif":"","motif_pos":-1,"best_pos":5,"similarity":0.675,"stretto":false,"stretto_voices":0,"combination":[],"aug_dim":"","rhythm_ratio":1.0,"mirror":false,"chromatic_density":0.182,"complexity":0.557,"dissonance":0.152},{"voice":2,"pitch":55,"start":152.0,"duration":0.5,"velocity":59,"measure":77,"beat":1.0,"subject_pos":-1,"motif":"tail","motif_pos":5,"best_pos":5,"similarity":1.0,"stretto":false,"stretto_voices":0,"combination":[],"aug_dim":"","rhythm_ratio":1.0,"mirror":false,"chromatic_density":0.182,"complexity":0.557,"dissonance":0.152},{"voice":0,"pitch":74,"start":152.25,"duration":0.4115,"velocity":76,"measure":77,"beat":1.5,"subject_pos":-1,"motif":"","motif_pos":-1,"best_pos":4,"similarity":0.4,"stretto":false,"stretto_voices":0,"combination":[],"aug_dim":"","rhythm_ratio":1.0,"mirror":false,"chromatic_density":0.182,"complexity":0.557,"dissonance":0.152},{"voice":0,"pitch":78,"start":152.5,"duration":0.4115,"velocity":76,"measure":77,"beat":2.0,"subject_pos":-1,"motif":"","motif_pos":-1,"best_pos":5,"similarity":0.329,"stretto":false,"stretto_voices":0,"combination":[],"aug_dim":"","rhythm_ratio":1.0,"mirror":false,"chromatic_density":0.182,"complexity":0.557,"dissonance":0.152},{"voice":1,"pitch":60,"start":152.5,"duration":0.5,"velocity":68,"measure":77,"beat":2.0,"subject_pos":-1,"motif":"","motif_pos":-1,"best_pos":6,"similarity":0.579,"stretto":false,"stretto_voices":0,"combination":[],"aug_dim":"","rhythm_ratio":1.0,"mirror":false,"chromatic_density":0.182,"complexity":0.557,"dissonance":0.152},{"voice":2,"pitch":57,"start":152.5,"duration":0.5,"velocity":59,"measure":77,"beat":2.0,"subject_pos":-1,"motif":"tail","motif_pos":6,"best_pos":6,"similarity":1.0,"stretto":false,"stretto_voices":0,"combination":[],"aug_dim":"","rhythm_ratio":1.0,"mirror":false,"chromatic_density":0.182,"complexity":0.557,"dissonance":0.152},{"voice":0,"pitch":81,"start":152.75,"duration":0.5,"velocity":76,"measure":77,"beat":2.5,"subject_pos":-1,"motif":"","motif_pos":-1,"best_pos":1,"similarity":0.375,"stretto":false,"stretto_voices":0,"combination":[],"aug_dim":"","rhythm_ratio":1.0,"mirror":false,"chromatic_density":0.182,"complexity":0.557,"dissonance":0.152},{"voice":1,"pitch":62,"start":153.0,"duration":0.5,"velocity":68,"measure":77,"beat":3.0,"subject_pos":-1,"motif":"","motif_pos":-1,"best_pos":6,"similarity":0.375,"stretto":false,"stretto_voices":0,"combination":[],"aug_dim":"","rhythm_ratio":1.0,"mirror":false,"chromatic_density":0.182,"complexity":0.557,"dissonance":0.152},{"voice":2,"pitch":58,"start":153.0,"duration":1.25,"velocity":59,"measure":77,"beat":3.0,"subject_pos":-1,"motif":"tail","motif_pos":7,"best_pos":7,"similarity":1.0,"stretto":false,"stretto_voices":0,"combination":[],"aug_dim":"","rhythm_ratio":1.0,"mirror":false,"chromatic_density":0.182,"complexity":0.557,"dissonance":0.152},{"voice":0,"pitch":79,"start":153.25,"duration":0.4115,"velocity":76,"measure":77,"beat":3.5,"subject_pos":-1,"motif":"","motif_pos":-1,"best_pos":5,"similarity":0.471,"stretto":false,"stretto_voices":0,"combination":[],"aug_dim":"","rhythm_ratio":1.0,"mirror":false,"chromatic_density":0.182,"complexity":0.557,"dissonance":0.152},{"voice":0,"pitch":81,"start":153.375,"duration":0.4115,"velocity":76,"measure":77,"beat":3.75,"subject_pos":-1,"motif":"","motif_pos":-1,"best_pos":6,"similarity":0.593,"stretto":false,"stretto_voices":0,"combination":[],"aug_dim":"","rhythm_ratio":1.0,"mirror":false,"chromatic_density":0.182,"complexity":0.557,"dissonance":0.152},{"voice":0,"pitch":82,"start":153.5,"duration":0.4115,"velocity":76,"measure":77,"beat":4.0,"subject_pos":-1,"motif":"","motif_pos":-1,"best_pos":5,"similarity":0.479,"stretto":false,"stretto_voices":0,"combination":[],"aug_dim":"","rhythm_ratio":1.0,"mirror":false,"chromatic_density":0.182,"complexity":0.557,"dissonance":0.152},{"voice":1,"pitch":55,"start":153.5,"duration":0.6927,"velocity":68,"measure":77,"beat":4.0,"subject_pos":-1,"motif":"","motif_pos":-1,"best_pos":2,"similarity":0.193,"stretto":false,"stretto_voices":0,"combination":[],"aug_dim":"","rhythm_ratio":1.0,"mirror":false,"chromatic_density":0.182,"complexity":0.557,"dissonance":0.152},{"voice":0,"pitch":73,"start":153.75,"duration":0.4115,"velocity":76,"measure":77,"beat":4.5,"subject_pos":-1,"motif":"","motif_pos":-1,"best_pos":6,"similarity":0.436,"stretto":false,"stretto_voices":0,"combination":[],"aug_dim":"","rhythm_ratio":1.0,"mirror":false,"chromatic_density":0.182,"complexity":0.557,"dissonance":0.152},{"voice":0,"pitch":74,"start":154.0,"duration":3.0,"velocity":76,"measure":78,"beat":1.0,"subject_pos":-1,"motif":"","motif_pos":-1,"best_pos":7,"similarity":0.357,"stretto":false,"stretto_voices":0,"combination":[],"aug_dim":"","rhythm_ratio":1.0,"mirror":false,"chromatic_density":0.375,"complexity":0.396,"dissonance":0.095},{"voice":1,"pitch":70,"start":154.25,"duration":0.25,"velocity":68,"measure":78,"beat":1.5,"subject_pos":-1,"motif":"","motif_pos":-1,"best_pos":3,"similarity":0.329,"stretto":false,"stretto_voices":0,"combination":[],"aug_dim":"","rhythm_ratio":1.0,"mirror":false,"chromatic_density":0.375,"complexity":0.396,"dissonance":0.095},{"voice":2,"pitch":62,"start":154.25,"duration":0.25,"velocity":59,"measure":78,"beat":1.5,"subject_pos":-1,"motif":"","motif_pos":-1,"best_pos":1,"similarity":0.571,"stretto":false,"stretto_voices":0,"combination":[],"aug_dim":"","rhythm_ratio":1.0,"mirror":false,"chromatic_density":0.375,"complexity":0.396,"dissonance":0.095},{"voice":1,"pitch":69,"start":154.5,"duration":0.25,"velocity":68,"measure":78,"beat":2.0,"subject_pos":-1,"motif":"","motif_pos":-1,"best_pos":2,"similarity":0.436,"stretto":false,"stretto_voices":0,"combination":[],"aug_dim":"","rhythm_ratio":1.0,"mirror":false,"chromatic_density":0.375,"complexity":0.396,"dissonance":0.095},{"voice":2,"pitch":60,"start":154.5,"duration":0.25,"velocity":59,"measure":78,"beat":2.0,"subject_pos":-1,"motif":"","motif_pos":-1,"best_pos":2,"similarity":0.643,"stretto":false,"stretto_voices":0,"combination":[],"aug_dim":"","rhythm_ratio":1.0,"mirror":false,"chromatic_density":0.375,"complexity":0.396,"dissonance":0.095},{"voice":1,"pitch":67,"start":154.75,"duration":0.5,"velocity":68,"measure":78,"beat":2.5,"subject_pos":-1,"motif":"","motif_pos":-1,"best_pos":3,"similarity":0.55,"stretto":false,"stretto_voices":0,"combination":[],"aug_dim":"","rhythm_ratio":1.0,"mirror":false,"chromatic_density":0.375,"complexity":0.396,"dissonance":0.095},{"voice":2,"pitch":58,"start":154.75,"duration":0.25,"velocity":59,"measure":78,"beat":2.5,"subject_pos":-1,"motif":"","motif_pos":-1,"best_pos":3,"similarity":0.607,"stretto":false,"stretto_voices":0,"combination":[],"aug_dim":"","rhythm_ratio":1.0,"mirror":false,"chromatic_density":0.375,"complexity":0.396,"dissonance":0.095},{"voice":2,"pitch":57,"start":155.0,"duration":3.0,"velocity":59,"measure":78,"beat":3.0,"subject_pos":-1,"motif":"","motif_pos":-1,"best_pos":4,"similarity":0.429,"stretto":false,"stretto_voices":0,"combination":[],"aug_dim":"","rhythm_ratio":1.0,"mirror":false,"chromatic_density":0.375,"complexity":0.396,"dissonance":0.095},{"voice":1,"pitch":66,"start":155.276,"duration":0.25,"velocity":68,"measure":78,"beat":3.5521,"subject_pos":-1,"motif":"","motif_pos":-1,"best_pos":4,"similarity":0.511,"stretto":false,"stretto_voices":0,"combination":[],"aug_dim":"","rhythm_ratio":1.0,"mirror":false,"chromatic_density":0.375,"complexity":0.396,"dissonance":0.095},{"voice":1,"pitch":64,"start":155.5365,"duration":0.25,"velocity":68,"measure":78,"beat":4.0729,"subject_pos":-1,"motif":"","motif_pos":-1,"best_pos":2,"similarity":0.429,"stretto":false,"stretto_voices":0,"combination":[],"aug_dim":"","rhythm_ratio":1.0,"mirror":false,"chromatic_density":0.375,"complexity":0.396,"dissonance":0.095},{"voice":1,"pitch":67,"start":155.8281,"duration":0.25,"velocity":68,"measure":78,"beat":4.6562,"subject_pos":-1,"motif":"","motif_pos":-1,"best_pos":3,"similarity":0.429,"stretto":false,"stretto_voices":0,"combination":[],"aug_dim":"","rhythm_ratio":1.0,"mirror":false,"chromatic_density":0.375,"complexity":0.396,"dissonance":0.095},{"voice":1,"pitch":66,"start":156.1406,"duration":1.0,"velocity":68,"measure":79,"beat":1.2812,"subject_pos":-1,"motif":"","motif_pos":-1,"best_pos":4,"similarity":0.357,"stretto":false,"stretto_voices":0,"combination":[],"aug_dim":"","rhythm_ratio":1.0,"mirror":false,"chromatic_density":0.0,"complexity":0.094,"dissonance":0}],"chromatic_density":[{"measure":1,"density":0.0,"chromatic_count":0,"interval_count":1},{"measure":2,"density":0.0,"chromatic_count":0,"interval_count":1},{"measure":3,"density":0.5,"chromatic_count":1,"interval_count":2},{"measure":4,"density":0.0,"chromatic_count":0,"interval_count":0},{"measure":5,"density":0.25,"chromatic_count":1,"interval_count":4},{"measure":6,"density":0.0,"chromatic_count":0,"interval_count":5},{"measure":7,"density":0.2,"chromatic_count":1,"interval_count":5},{"measure":8,"density":0.333,"chromatic_count":2,"interval_count":6},{"measure":9,"density":0.167,"chromatic_count":1,"interval_count":6},{"measure":10,"density":0.167,"chromatic_count":1,"interval_count":6},{"measure":11,"density":0.333,"chromatic_count":2,"interval_count":6},{"measure":12,"density":0.625,"chromatic_count":5,"interval_count":8},{"measure":13,"density":0.286,"chromatic_count":2,"interval_count":7},{"measure":14,"density":0.143,"chromatic_count":1,"interval_count":7},{"measure":15,"density":0.182,"chromatic_count":2,"interval_count":11},{"measure":16,"density":0.333,"chromatic_count":4,"interval_count":12},{"measure":17,"density":0.333,"chromatic_count":3,"interval_count":9},{"measure":18,"density":0.25,"chromatic_count":2,"interval_count":8},{"measure":19,"density":0.556,"chromatic_count":5,"interval_count":9},{"measure":20,"density":0.556,"chromatic_count":5,"interval_count":9},{"measure":21,"density":0.556,"chromatic_count":5,"interval_count":9},{"measure":22,"density":0.333,"chromatic_count":3,"interval_count":9},{"measure":23,"density":0.222,"chromatic_count":2,"interval_count":9},{"measure":24,"density":0.167,"chromatic_count":1,"interval_count":6},{"measure":25,"density":0.333,"chromatic_count":2,"interval_count":6},{"measure":26,"density":0.308,"chromatic_count":4,"interval_count":13},{"measure":27,"density":0.222,"chromatic_count":2,"interval_count":9},{"measure":28,"density":0.333,"chromatic_count":3,"interval_count":9},{"measure":29,"density":0.333,"chromatic_count":2,"interval_count":6},{"measure":30,"density":0.333,"chromatic_count":3,"interval_count":9},{"measure":31,"density":0.333,"chromatic_count":3,"interval_count":9},{"measure":32,"density":0.286,"chromatic_count":4,"interval_count":14},{"measure":33,"density":0.444,"chromatic_count":4,"interval_count":9},{"measure":34,"density":0.455,"chromatic_count":5,"interval_count":11},{"measure":35,"density":0.5,"chromatic_count":4,"interval_count":8},{"measure":36,"density":0.333,"chromatic_count":3,"interval_count":9},{"measure":37,"density":0.143,"chromatic_count":1,"interval_count":7},{"measure":38,"density":0.0,"chromatic_count":0,"interval_count":7},{"measure":39,"density":0.286,"chromatic_count":2,"interval_count":7},{"measure":40,"density":0.143,"chromatic_count":1,"interval_count":7},{"measure":41,"density":0.444,"chromatic_count":4,"interval_count":9},{"measure":42,"density":0.625,"chromatic_count":5,"interval_count":8},{"measure":43,"density":0.3,"chromatic_count":3,"interval_count":10},{"measure":44,"density":0.308,"chromatic_count":4,"interval_count":13},{"measure":45,"density":0.143,"chromatic_count":1,"interval_count":7},{"measure":46,"density":0.0,"chromatic_count":0,"interval_count":7},{"measure":47,"density":0.111,"chromatic_count":1,"interval_count":9},{"measure":48,"density":0.111,"chromatic_count":1,"interval_count":9},{"measure":49,"density":0.25,"chromatic_count":2,"interval_count":8},{"measure":50,"density":0.273,"chromatic_count":3,"interval_count":11},{"measure":51,"density":0.125,"chromatic_count":1,"interval_count":8},{"measure":52,"density":0.25,"chromatic_count":3,"interval_count":12},{"measure":53,"density":0.083,"chromatic_count":1,"interval_count":12},{"measure":54,"density":0.429,"chromatic_count":3,"interval_count":7},{"measure":55,"density":0.444,"chromatic_count":4,"interval_count":9},{"measure":56,"density":0.222,"chromatic_count":2,"interval_count":9},{"measure":57,"density":0.111,"chromatic_count":1,"interval_count":9},{"measure":58,"density":0.182,"chromatic_count":2,"interval_count":11},{"measure":59,"density":0.429,"chromatic_count":6,"interval_count":14},{"measure":60,"density":0.333,"chromatic_count":3,"interval_count":9},{"measure":61,"density":0.5,"chromatic_count":5,"interval_count":10},{"measure":62,"density":0.5,"chromatic_count":5,"interval_count":10},{"measure":63,"density":0.444,"chromatic_count":4,"interval_count":9},{"measure":64,"density":0.0,"chromatic_count":0,"interval_count":9},{"measure":65,"density":0.111,"chromatic_count":1,"interval_count":9},{"measure":66,"density":0.3,"chromatic_count":3,"interval_count":10},{"measure":67,"density":0.182,"chromatic_count":2,"interval_count":11},{"measure":68,"density":0.364,"chromatic_count":4,"interval_count":11},{"measure":69,"density":0.167,"chromatic_count":2,"interval_count":12},{"measure":70,"density":0.455,"chromatic_count":5,"interval_count":11},{"measure":71,"density":0.0,"chromatic_count":0,"interval_count":0},{"measure":72,"density":0.0,"chromatic_count":0,"interval_count":0},{"measure":73,"density":0.5,"chromatic_count":2,"interval_count":4},{"measure":74,"density":0.375,"chromatic_count":3,"interval_count":8},{"measure":75,"density":0.286,"chromatic_count":2,"interval_count":7},{"measure":76,"density":0.25,"chromatic_count":2,"interval_count":8},{"measure":77,"density":0.182,"chromatic_count":2,"interval_count":11},{"measure":78,"density":0.375,"chromatic_count":3,"interval_count":8},{"measure":79,"density":0.0,"chromatic_count":0,"interval_count":0}],"complexity":[{"measure":1,"complexity":0.371,"voice_count":1,"note_density":0.062,"motif_saturation":1.0,"interval_diversity":0.143,"rhythm_variety":0.167},{"measure":2,"complexity":0.371,"voice_count":1,"note_density":0.062,"motif_saturation":1.0,"interval_diversity":0.143,"rhythm_variety":0.167},{"measure":3,"complexity":0.424,"voice_count":1,"note_density":0.094,"motif_saturation":1.0,"interval_diversity":0.286,"rhythm_variety":0.333},{"measure":4,"complexity":0.344,"voice_count":1,"note_density":0.031,"motif_saturation":1.0,"interval_diversity":0.0,"rhythm_variety":0.167},{"measure":5,"complexity":0.322,"voice_count":2,"note_density":0.188,"motif_saturation":0.167,"interval_diversity":0.286,"rhythm_variety":0.5},{"measure":6,"complexity":0.383,"voice_count":2,"note_density":0.219,"motif_saturation":0.286,"interval_diversity":0.286,"rhythm_variety":0.667},{"measure":7,"complexity":0.447,"voice_count":2,"note_density":0.219,"motif_saturation":0.286,"interval_diversity":0.714,"rhythm_variety":0.667},{"measure":8,"complexity":0.387,"voice_count":2,"note_density":0.25,"motif_saturation":0.375,"interval_diversity":0.286,"rhythm_variety":0.5},{"measure":9,"complexity":0.457,"voice_count":3,"note_density":0.281,"motif_saturation":0.111,"interval_diversity":0.571,"rhythm_variety":0.667},{"measure":10,"complexity":0.64,"voice_count":3,"note_density":0.281,"motif_saturation":0.556,"interval_diversity":0.714,"rhythm_variety":1.0},{"measure":11,"complexity":0.632,"voice_count":3,"note_density":0.312,"motif_saturation":0.5,"interval_diversity":0.714,"rhythm_variety":1.0},{"measure":12,"complexity":0.514,"voice_count":3,"note_density":0.344,"motif_saturation":0.273,"interval_diversity":0.429,"rhythm_variety":0.833},{"measure":13,"complexity":0.577,"voice_count":4,"note_density":0.344,"motif_saturation":0.091,"interval_diversity":0.571,"rhythm_variety":1.0},{"measure":14,"complexity":0.62,"voice_count":4,"note_density":0.344,"motif_saturation":0.364,"interval_diversity":0.571,"rhythm_variety":0.833},{"measure":15,"complexity":0.639,"voice_count":4,"note_density":0.469,"motif_saturation":0.267,"interval_diversity":0.857,"rhythm_variety":0.667},{"measure":16,"complexity":0.623,"voice_count":4,"note_density":0.5,"motif_saturation":0.25,"interval_diversity":0.571,"rhythm_variety":0.833},{"measure":17,"complexity":0.498,"voice_count":3,"note_density":0.375,"motif_saturation":0.0,"interval_diversity":0.571,"rhythm_variety":1.0},{"measure":18,"complexity":0.467,"voice_count":3,"note_density":0.344,"motif_saturation":0.0,"interval_diversity":0.571,"rhythm_variety":0.833},{"measure":19,"complexity":0.473,"voice_count":3,"note_density":0.375,"motif_saturation":0.0,"interval_diversity":0.571,"rhythm_variety":0.833},{"measure":20,"complexity":0.473,"voice_count":3,"note_density":0.375,"motif_saturation":0.0,"interval_diversity":0.571,"rhythm_variety":0.833},{"measure":21,"complexity":0.665,"voice_count":3,"note_density":0.375,"motif_saturation":0.667,"interval_diversity":0.571,"rhythm_variety":1.0},{"measure":22,"complexity":0.557,"voice_count":3,"note_density":0.375,"motif_saturation":0.333,"interval_diversity":0.571,"rhythm_variety":0.833},{"measure":23,"complexity":0.665,"voice_count":4,"note_density":0.406,"motif_saturation":0.308,"interval_diversity":0.714,"rhythm_variety":1.0},{"measure":24,"complexity":0.535,"voice_count":3,"note_density":0.281,"motif_saturation":0.222,"interval_diversity":0.571,"rhythm_variety":1.0},{"measure":25,"complexity":0.573,"voice_count":4,"note_density":0.312,"motif_saturation":0.2,"interval_diversity":0.571,"rhythm_variety":0.833},{"measure":26,"complexity":0.474,"voice_count":3,"note_density":0.5,"motif_saturation":0.188,"interval_diversity":0.429,"rhythm_variety":0.5},{"measure":27,"complexity":0.515,"voice_count":3,"note_density":0.375,"motif_saturation":0.083,"interval_diversity":0.714,"rhythm_variety":0.833},{"measure":28,"complexity":0.595,"voice_count":3,"note_density":0.375,"motif_saturation":0.5,"interval_diversity":0.714,"rhythm_variety":0.667},{"measure":29,"complexity":0.598,"voice_count":4,"note_density":0.312,"motif_saturation":0.3,"interval_diversity":0.571,"rhythm_variety":0.833},{"measure":30,"complexity":0.577,"voice_count":4,"note_density":0.406,"motif_saturation":0.154,"interval_diversity":0.714,"rhythm_variety":0.667},{"measure":31,"complexity":0.58,"voice_count":4,"note_density":0.438,"motif_saturation":0.143,"interval_diversity":0.714,"rhythm_variety":0.667},{"measure":32,"complexity":0.615,"voice_count":4,"note_density":0.562,"motif_saturation":0.167,"interval_diversity":0.571,"rhythm_variety":0.833},{"measure":33,"complexity":0.591,"voice_count":4,"note_density":0.438,"motif_saturation":0.071,"interval_diversity":0.571,"rhythm_variety":1.0},{"measure":34,"complexity":0.641,"voice_count":4,"note_density":0.469,"motif_saturation":0.333,"interval_diversity":0.429,"rhythm_variety":1.0},{"measure":35,"complexity":0.583,"voice_count":3,"note_density":0.344,"motif_saturation":0.364,"interval_diversity":0.571,"rhythm_variety":1.0},{"measure":36,"complexity":0.498,"voice_count":3,"note_density":0.375,"motif_saturation":0.0,"interval_diversity":0.571,"rhythm_variety":1.0},{"measure":37,"complexity":0.525,"voice_count":3,"note_density":0.312,"motif_saturation":0.0,"interval_diversity":1.0,"rhythm_variety":0.833},{"measure":38,"complexity":0.504,"voice_count":3,"note_density":0.312,"motif_saturation":0.0,"interval_diversity":0.857,"rhythm_variety":0.833},{"measure":39,"complexity":0.482,"voice_count":3,"note_density":0.312,"motif_saturation":0.0,"interval_diversity":0.714,"rhythm_variety":0.833},{"measure":40,"complexity":0.597,"voice_count":4,"note_density":0.344,"motif_saturation":0.0,"interval_diversity":0.857,"rhythm_variety":1.0},{"measure":41,"complexity":0.588,"voice_count":4,"note_density":0.406,"motif_saturation":0.0,"interval_diversity":0.714,"rhythm_variety":1.0},{"measure":42,"complexity":0.581,"voice_count":4,"note_density":0.375,"motif_saturation":0.167,"interval_diversity":0.429,"rhythm_variety":1.0},{"measure":43,"complexity":0.648,"voice_count":4,"note_density":0.438,"motif_saturation":0.214,"interval_diversity":0.714,"rhythm_variety":1.0},{"measure":44,"complexity":0.628,"voice_count":4,"note_density":0.531,"motif_saturation":0.059,"interval_diversity":0.714,"rhythm_variety":1.0},{"measure":45,"complexity":0.599,"voice_count":4,"note_density":0.344,"motif_saturation":0.091,"interval_diversity":0.714,"rhythm_variety":1.0},{"measure":46,"complexity":0.461,"voice_count":3,"note_density":0.312,"motif_saturation":0.0,"interval_diversity":0.571,"rhythm_variety":0.833},{"measure":47,"complexity":0.537,"voice_count":3,"note_density":0.375,"motif_saturation":0.0,"interval_diversity":1.0,"rhythm_variety":0.833},{"measure":48,"complexity":0.62,"voice_count":3,"note_density":0.375,"motif_saturation":0.417,"interval_diversity":0.857,"rhythm_variety":0.833},{"measure":49,"complexity":0.535,"voice_count":4,"note_density":0.375,"motif_saturation":0.167,"interval_diversity":0.286,"rhythm_variety":0.833},{"measure":50,"complexity":0.589,"voice_count":3,"note_density":0.438,"motif_saturation":0.143,"interval_diversity":0.857,"rhythm_variety":1.0},{"measure":51,"complexity":0.534,"voice_count":3,"note_density":0.344,"motif_saturation":0.182,"interval_diversity":0.714,"rhythm_variety":0.833},{"measure":52,"complexity":0.535,"voice_count":3,"note_density":0.469,"motif_saturation":0.2,"interval_diversity":0.857,"rhythm_variety":0.5},{"measure":53,"complexity":0.56,"voice_count":3,"note_density":0.469,"motif_saturation":0.0,"interval_diversity":0.857,"rhythm_variety":1.0},{"measure":54,"complexity":0.492,"voice_count":3,"note_density":0.344,"motif_saturation":0.0,"interval_diversity":0.571,"rhythm_variety":1.0},{"measure":55,"complexity":0.43,"voice_count":3,"note_density":0.375,"motif_saturation":0.0,"interval_diversity":0.286,"rhythm_variety":0.833},{"measure":56,"complexity":0.603,"voice_count":4,"note_density":0.406,"motif_saturation":0.231,"interval_diversity":0.429,"rhythm_variety":1.0},{"measure":57,"complexity":0.691,"voice_count":4,"note_density":0.438,"motif_saturation":0.214,"interval_diversity":1.0,"rhythm_variety":1.0},{"measure":58,"complexity":0.634,"voice_count":4,"note_density":0.469,"motif_saturation":0.133,"interval_diversity":0.714,"rhythm_variety":1.0},{"measure":59,"complexity":0.597,"voice_count":4,"note_density":0.562,"motif_saturation":0.167,"interval_diversity":0.286,"rhythm_variety":1.0},{"measure":60,"complexity":0.542,"voice_count":4,"note_density":0.406,"motif_saturation":0.0,"interval_diversity":0.571,"rhythm_variety":0.833},{"measure":61,"complexity":0.552,"voice_count":4,"note_density":0.438,"motif_saturation":0.0,"interval_diversity":0.429,"rhythm_variety":1.0},{"measure":62,"complexity":0.548,"voice_count":4,"note_density":0.438,"motif_saturation":0.0,"interval_diversity":0.571,"rhythm_variety":0.833},{"measure":63,"complexity":0.567,"voice_count":4,"note_density":0.406,"motif_saturation":0.0,"interval_diversity":0.571,"rhythm_variety":1.0},{"measure":64,"complexity":0.448,"voice_count":3,"note_density":0.375,"motif_saturation":0.0,"interval_diversity":0.571,"rhythm_variety":0.667},{"measure":65,"complexity":0.49,"voice_count":3,"note_density":0.375,"motif_saturation":0.083,"interval_diversity":0.714,"rhythm_variety":0.667},{"measure":66,"complexity":0.709,"voice_count":4,"note_density":0.438,"motif_saturation":0.286,"interval_diversity":1.0,"rhythm_variety":1.0},{"measure":67,"complexity":0.656,"voice_count":4,"note_density":0.469,"motif_saturation":0.133,"interval_diversity":0.857,"rhythm_variety":1.0},{"measure":68,"complexity":0.571,"voice_count":4,"note_density":0.469,"motif_saturation":0.067,"interval_diversity":0.571,"rhythm_variety":0.833},{"measure":69,"complexity":0.638,"voice_count":4,"note_density":0.5,"motif_saturation":0.125,"interval_diversity":0.714,"rhythm_variety":1.0},{"measure":70,"complexity":0.607,"voice_count":4,"note_density":0.5,"motif_saturation":0.0,"interval_diversity":0.714,"rhythm_variety":1.0},{"measure":71,"complexity":0.163,"voice_count":2,"note_density":0.062,"motif_saturation":0.0,"interval_diversity":0.0,"rhythm_variety":0.167},{"measure":72,"complexity":0.3,"voice_count":4,"note_density":0.125,"motif_saturation":0.0,"interval_diversity":0.0,"rhythm_variety":0.167},{"measure":73,"complexity":0.493,"voice_count":4,"note_density":0.25,"motif_saturation":0.0,"interval_diversity":0.286,"rhythm_variety":1.0},{"measure":74,"complexity":0.561,"voice_count":4,"note_density":0.375,"motif_saturation":0.0,"interval_diversity":0.571,"rhythm_variety":1.0},{"measure":75,"complexity":0.504,"voice_count":3,"note_density":0.312,"motif_saturation":0.0,"interval_diversity":0.857,"rhythm_variety":0.833},{"measure":76,"complexity":0.462,"voice_count":3,"note_density":0.344,"motif_saturation":0.182,"interval_diversity":0.571,"rhythm_variety":0.5},{"measure":77,"complexity":0.557,"voice_count":3,"note_density":0.438,"motif_saturation":0.214,"interval_diversity":0.857,"rhythm_variety":0.667},{"measure":78,"complexity":0.396,"voice_count":3,"note_density":0.344,"motif_saturation":0.0,"interval_diversity":0.429,"rhythm_variety":0.5},{"measure":79,"complexity":0.094,"voice_count":1,"note_density":0.031,"motif_saturation":0.0,"interval_diversity":0.0,"rhythm_variety":0.167}],"dissonance":[{"measure":1,"dissonance":0,"dissonant_pairs":0,"total_pairs":0},{"measure":2,"dissonance":0,"dissonant_pairs":0,"total_pairs":0},{"measure":3,"dissonance":0,"dissonant_pairs":0,"total_pairs":0},{"measure":4,"dissonance":0,"dissonant_pairs":0,"total_pairs":0},{"measure":5,"dissonance":0.0,"dissonant_pairs":0,"total_pairs":2},{"measure":6,"dissonance":0.2,"dissonant_pairs":1.0,"total_pairs":5},{"measure":7,"dissonance":0.0,"dissonant_pairs":0,"total_pairs":6},{"measure":8,"dissonance":0.16,"dissonant_pairs":0.8,"total_pairs":5},{"measure":9,"dissonance":0.042,"dissonant_pairs":0.5,"total_pairs":12},{"measure":10,"dissonance":0.062,"dissonant_pairs":1.0,"total_pairs":16},{"measure":11,"dissonance":0.168,"dissonant_pairs":3.7,"total_pairs":22},{"measure":12,"dissonance":0.236,"dissonant_pairs":3.3,"total_pairs":14},{"measure":13,"dissonance":0.081,"dissonant_pairs":2.5,"total_pairs":31},{"measure":14,"dissonance":0.132,"dissonant_pairs":3.3,"total_pairs":25},{"measure":15,"dissonance":0.107,"dissonant_pairs":4.5,"total_pairs":42},{"measure":16,"dissonance":0.067,"dissonant_pairs":1.8,"total_pairs":27},{"measure":17,"dissonance":0.167,"dissonant_pairs":3.5,"total_pairs":21},{"measure":18,"dissonance":0.205,"dissonant_pairs":3.9,"total_pairs":19},{"measure":19,"dissonance":0.141,"dissonant_pairs":3.1,"total_pairs":22},{"measure":20,"dissonance":0.141,"dissonant_pairs":3.1,"total_pairs":22},{"measure":21,"dissonance":0.105,"dissonant_pairs":2.3,"total_pairs":22},{"measure":22,"dissonance":0.095,"dissonant_pairs":2.1,"total_pairs":22},{"measure":23,"dissonance":0.053,"dissonant_pairs":1.8,"total_pairs":34},{"measure":24,"dissonance":0.184,"dissonant_pairs":3.5,"total_pairs":19},{"measure":25,"dissonance":0.06,"dissonant_pairs":1.8,"total_pairs":30},{"measure":26,"dissonance":0.164,"dissonant_pairs":3.6,"total_pairs":22},{"measure":27,"dissonance":0.159,"dissonant_pairs":3.5,"total_pairs":22},{"measure":28,"dissonance":0.068,"dissonant_pairs":1.5,"total_pairs":22},{"measure":29,"dissonance":0.059,"dissonant_pairs":1.0,"total_pairs":17},{"measure":30,"dissonance":0.055,"dissonant_pairs":2.3,"total_pairs":42},{"measure":31,"dissonance":0.169,"dissonant_pairs":7.6,"total_pairs":45},{"measure":32,"dissonance":0.096,"dissonant_pairs":4.6,"total_pairs":48},{"measure":33,"dissonance":0.115,"dissonant_pairs":3.9,"total_pairs":34},{"measure":34,"dissonance":0.053,"dissonant_pairs":1.8,"total_pairs":34},{"measure":35,"dissonance":0.036,"dissonant_pairs":0.5,"total_pairs":14},{"measure":36,"dissonance":0.195,"dissonant_pairs":4.1,"total_pairs":21},{"measure":37,"dissonance":0.091,"dissonant_pairs":2.0,"total_pairs":22},{"measure":38,"dissonance":0.118,"dissonant_pairs":2.6,"total_pairs":22},{"measure":39,"dissonance":0.091,"dissonant_pairs":2.0,"total_pairs":22},{"measure":40,"dissonance":0.129,"dissonant_pairs":4.4,"total_pairs":34},{"measure":41,"dissonance":0.104,"dissonant_pairs":5.0,"total_pairs":48},{"measure":42,"dissonance":0.097,"dissonant_pairs":3.6,"total_pairs":37},{"measure":43,"dissonance":0.132,"dissonant_pairs":3.3,"total_pairs":25},{"measure":44,"dissonance":0.165,"dissonant_pairs":7.1,"total_pairs":43},{"measure":45,"dissonance":0.059,"dissonant_pairs":1.3,"total_pairs":22},{"measure":46,"dissonance":0.026,"dissonant_pairs":0.5,"total_pairs":19},{"measure":47,"dissonance":0.114,"dissonant_pairs":2.5,"total_pairs":22},{"measure":48,"dissonance":0.075,"dissonant_pairs":1.5,"total_pairs":20},{"measure":49,"dissonance":0.121,"dissonant_pairs":3.4,"total_pairs":28},{"measure":50,"dissonance":0.083,"dissonant_pairs":2.0,"total_pairs":24},{"measure":51,"dissonance":0.105,"dissonant_pairs":2.3,"total_pairs":22},{"measure":52,"dissonance":0.068,"dissonant_pairs":1.5,"total_pairs":22},{"measure":53,"dissonance":0.127,"dissonant_pairs":2.8,"total_pairs":22},{"measure":54,"dissonance":0.094,"dissonant_pairs":1.5,"total_pairs":16},{"measure":55,"dissonance":0.105,"dissonant_pairs":2.3,"total_pairs":22},{"measure":56,"dissonance":0.097,"dissonant_pairs":3.5,"total_pairs":36},{"measure":57,"dissonance":0.113,"dissonant_pairs":4.5,"total_pairs":40},{"measure":58,"dissonance":0.062,"dissonant_pairs":2.6,"total_pairs":42},{"measure":59,"dissonance":0.156,"dissonant_pairs":7.0,"total_pairs":45},{"measure":60,"dissonance":0.153,"dissonant_pairs":4.6,"total_pairs":30},{"measure":61,"dissonance":0.208,"dissonant_pairs":7.7,"total_pairs":37},{"measure":62,"dissonance":0.216,"dissonant_pairs":8.0,"total_pairs":37},{"measure":63,"dissonance":0.074,"dissonant_pairs":2.3,"total_pairs":31},{"measure":64,"dissonance":0.3,"dissonant_pairs":3.3,"total_pairs":11},{"measure":65,"dissonance":0.127,"dissonant_pairs":2.8,"total_pairs":22},{"measure":66,"dissonance":0.145,"dissonant_pairs":5.8,"total_pairs":40},{"measure":67,"dissonance":0.097,"dissonant_pairs":3.3,"total_pairs":34},{"measure":68,"dissonance":0.178,"dissonant_pairs":6.6,"total_pairs":37},{"measure":69,"dissonance":0.162,"dissonant_pairs":7.3,"total_pairs":45},{"measure":70,"dissonance":0.095,"dissonant_pairs":3.5,"total_pairs":37},{"measure":71,"dissonance":0.0,"dissonant_pairs":0,"total_pairs":1},{"measure":72,"dissonance":0.0,"dissonant_pairs":0,"total_pairs":6},{"measure":73,"dissonance":0.088,"dissonant_pairs":2.1,"total_pairs":24},{"measure":74,"dissonance":0.079,"dissonant_pairs":2.3,"total_pairs":29},{"measure":75,"dissonance":0.159,"dissonant_pairs":3.5,"total_pairs":22},{"measure":76,"dissonance":0.2,"dissonant_pairs":4.4,"total_pairs":22},{"measure":77,"dissonance":0.152,"dissonant_pairs":3.8,"total_pairs":25},{"measure":78,"dissonance":0.095,"dissonant_pairs":2.0,"total_pairs":21},{"measure":79,"dissonance":0,"dissonant_pairs":0,"total_pairs":0}]}