{"metadata":{"title":"The Art of the Fugue, Contrapunctus XI","number":"XI","composer":"J.S. Bach","source_midi":"kunst_der_fuge_xi_mutopia.mid","tempo_bpm":120.0,"tempo_us_per_beat":500000,"ticks_per_beat":384,"time_signature":"4/4","key_signature":"D minor","total_duration_seconds":490.6662,"total_measures":184,"beats_per_measure":4},"voices":[{"id":0,"name":"Soprano","midi_channel":0,"midi_track":1,"color":"#E85D4A","pitch_min":60,"pitch_max":84,"note_count":849},{"id":1,"name":"Alto","midi_channel":1,"midi_track":2,"color":"#4A90D9","pitch_min":53,"pitch_max":79,"note_count":850},{"id":2,"name":"Tenor","midi_channel":2,"midi_track":3,"color":"#27AE60","pitch_min":48,"pitch_max":74,"note_count":682},{"id":3,"name":"Bass","midi_channel":3,"midi_track":4,"color":"#8E44AD","pitch_min":36,"pitch_max":62,"note_count":656}],"notes":[{"voice":1,"pitch":62,"start":0.6667,"duration":0.6667,"velocity":90,"measure":1,"beat":2.0,"subject_pos":0,"motif":"subject","motif_pos":0,"best_pos":0,"similarity":1.0,"stretto":false,"stretto_voices":0,"combination":[],"aug_dim":"","rhythm_ratio":1.0,"mirror":false,"chromatic_density":0.0,"complexity":0.399,"dissonance":0},{"voice":1,"pitch":69,"start":1.3333,"duration":0.6667,"velocity":90,"measure":1,"beat":3.0,"subject_pos":1,"motif":"subject","motif_pos":1,"best_pos":1,"similarity":1.0,"stretto":false,"stretto_voices":0,"combination":[],"aug_dim":"","rhythm_ratio":1.0,"mirror":false,"chromatic_density":0.0,"complexity":0.399,"dissonance":0},{"voice":1,"pitch":67,"start":2.0,"duration":0.6667,"velocity":90,"measure":1,"beat":4.0,"subject_pos":2,"motif":"subject","motif_pos":2,"best_pos":2,"similarity":1.0,"stretto":false,"stretto_voices":0,"combination":[],"aug_dim":"","rhythm_ratio":1.0,"mirror":false,"chromatic_density":0.0,"complexity":0.399,"dissonance":0},{"voice":1,"pitch":65,"start":3.3333,"duration":0.6667,"velocity":90,"measure":2,"beat":2.0,"subject_pos":3,"motif":"subject","motif_pos":3,"best_pos":3,"similarity":1.0,"stretto":false,"stretto_voices":0,"combination":[],"aug_dim":"","rhythm_ratio":1.0,"mirror":false,"chromatic_density":0.5,"complexity":0.399,"dissonance":0},{"voice":1,"pitch":64,"start":4.0,"duration":0.6667,"velocity":90,"measure":2,"beat":3.0,"subject_pos":4,"motif":"subject","motif_pos":4,"best_pos":4,"similarity":1.0,"stretto":false,"stretto_voices":0,"combination":[],"aug_dim":"","rhythm_ratio":1.0,"mirror":false,"chromatic_density":0.5,"complexity":0.399,"dissonance":0},{"voice":1,"pitch":62,"start":4.6667,"duration":0.6667,"velocity":90,"measure":2,"beat":4.0,"subject_pos":5,"motif":"subject","motif_pos":5,"best_pos":5,"similarity":1.0,"stretto":false,"stretto_voices":0,"combination":[],"aug_dim":"","rhythm_ratio":1.0,"mirror":false,"chromatic_density":0.5,"complexity":0.399,"dissonance":0},{"voice":1,"pitch":61,"start":6.0,"duration":0.6667,"velocity":90,"measure":3,"beat":2.0,"subject_pos":6,"motif":"subject","motif_pos":6,"best_pos":6,"similarity":1.0,"stretto":false,"stretto_voices":0,"combination":[],"aug_dim":"","rhythm_ratio":1.0,"mirror":false,"chromatic_density":0.5,"complexity":0.399,"dissonance":0},{"voice":1,"pitch":62,"start":6.6667,"duration":0.6667,"velocity":90,"measure":3,"beat":3.0,"subject_pos":7,"motif":"subject","motif_pos":7,"best_pos":7,"similarity":1.0,"stretto":false,"stretto_voices":0,"combination":[],"aug_dim":"","rhythm_ratio":1.0,"mirror":false,"chromatic_density":0.5,"complexity":0.399,"dissonance":0},{"voice":1,"pitch":64,"start":7.3333,"duration":0.6667,"velocity":90,"measure":3,"beat":4.0,"subject_pos":8,"motif":"subject","motif_pos":8,"best_pos":0,"similarity":1.0,"stretto":false,"stretto_voices":0,"combination":[],"aug_dim":"","rhythm_ratio":1.0,"mirror":false,"chromatic_density":0.5,"complexity":0.399,"dissonance":0},{"voice":1,"pitch":65,"start":8.6667,"duration":0.3333,"velocity":90,"measure":4,"beat":2.0,"subject_pos":-1,"motif":"","motif_pos":-1,"best_pos":5,"similarity":0.607,"stretto":false,"stretto_voices":0,"combination":[],"aug_dim":"","rhythm_ratio":1.0,"mirror":false,"chromatic_density":0.333,"complexity":0.18,"dissonance":0},{"voice":1,"pitch":67,"start":9.0,"duration":0.3333,"velocity":90,"measure":4,"beat":2.5,"subject_pos":-1,"motif":"","motif_pos":-1,"best_pos":6,"similarity":0.464,"stretto":false,"stretto_voices":0,"combination":[],"aug_dim":"","rhythm_ratio":1.0,"mirror":false,"chromatic_density":0.333,"complexity":0.18,"dissonance":0},{"voice":1,"pitch":65,"start":9.3333,"duration":0.6667,"velocity":90,"measure":4,"beat":3.0,"subject_pos":-1,"motif":"","motif_pos":-1,"best_pos":3,"similarity":0.471,"stretto":false,"stretto_voices":0,"combination":[],"aug_dim":"","rhythm_ratio":1.0,"mirror":false,"chromatic_density":0.333,"complexity":0.18,"dissonance":0},{"voice":1,"pitch":64,"start":10.0,"duration":0.6667,"velocity":90,"measure":4,"beat":4.0,"subject_pos":-1,"motif":"","motif_pos":-1,"best_pos":1,"similarity":0.429,"stretto":false,"stretto_voices":0,"combination":[],"aug_dim":"","rhythm_ratio":1.0,"mirror":false,"chromatic_density":0.333,"complexity":0.18,"dissonance":0},{"voice":1,"pitch":62,"start":10.6667,"duration":0.6667,"velocity":90,"measure":5,"beat":1.0,"subject_pos":-1,"motif":"","motif_pos":-1,"best_pos":2,"similarity":0.643,"stretto":false,"stretto_voices":0,"combination":[],"aug_dim":"","rhythm_ratio":1.0,"mirror":false,"chromatic_density":0.333,"complexity":0.383,"dissonance":0.125},{"voice":0,"pitch":69,"start":11.3333,"duration":0.6667,"velocity":90,"measure":5,"beat":2.0,"subject_pos":0,"motif":"subject","motif_pos":0,"best_pos":0,"similarity":1.0,"stretto":false,"stretto_voices":0,"combination":[],"aug_dim":"","rhythm_ratio":1.0,"mirror":false,"chromatic_density":0.333,"complexity":0.383,"dissonance":0.125},{"voice":1,"pitch":60,"start":11.3333,"duration":0.3333,"velocity":90,"measure":5,"beat":2.0,"subject_pos":-1,"motif":"","motif_pos":-1,"best_pos":3,"similarity":0.786,"stretto":false,"stretto_voices":0,"combination":[],"aug_dim":"","rhythm_ratio":1.0,"mirror":false,"chromatic_density":0.333,"complexity":0.383,"dissonance":0.125},{"voice":1,"pitch":59,"start":11.6667,"duration":0.3333,"velocity":90,"measure":5,"beat":2.5,"subject_pos":-1,"motif":"","motif_pos":-1,"best_pos":4,"similarity":0.893,"stretto":false,"stretto_voices":0,"combination":[],"aug_dim":"","rhythm_ratio":1.0,"mirror":false,"chromatic_density":0.333,"complexity":0.383,"dissonance":0.125},{"voice":0,"pitch":76,"start":12.0,"duration":0.6667,"velocity":90,"measure":5,"beat":3.0,"subject_pos":1,"motif":"subject","motif_pos":1,"best_pos":1,"similarity":1.0,"stretto":false,"stretto_voices":0,"combination":[],"aug_dim":"","rhythm_ratio":1.0,"mirror":false,"chromatic_density":0.333,"complexity":0.383,"dissonance":0.125},{"voice":1,"pitch":60,"start":12.0,"duration":0.6667,"velocity":90,"measure":5,"beat":3.0,"subject_pos":-1,"motif":"","motif_pos":-1,"best_pos":5,"similarity":0.821,"stretto":false,"stretto_voices":0,"combination":[],"aug_dim":"","rhythm_ratio":1.0,"mirror":false,"chromatic_density":0.333,"complexity":0.383,"dissonance":0.125},{"voice":0,"pitch":74,"start":12.6667,"duration":0.6667,"velocity":90,"measure":5,"beat":4.0,"subject_pos":2,"motif":"subject","motif_pos":2,"best_pos":2,"similarity":1.0,"stretto":false,"stretto_voices":0,"combination":[],"aug_dim":"","rhythm_ratio":1.0,"mirror":false,"chromatic_density":0.333,"complexity":0.383,"dissonance":0.125},{"voice":1,"pitch":62,"start":12.6667,"duration":0.6667,"velocity":90,"measure":5,"beat":4.0,"subject_pos":-1,"motif":"","motif_pos":-1,"best_pos":6,"similarity":0.643,"stretto":false,"stretto_voices":0,"combination":[],"aug_dim":"","rhythm_ratio":1.0,"mirror":false,"chromatic_density":0.333,"complexity":0.383,"dissonance":0.125},{"voice":1,"pitch":64,"start":13.3333,"duration":0.6667,"velocity":90,"measure":6,"beat":1.0,"subject_pos":-1,"motif":"","motif_pos":-1,"best_pos":6,"similarity":0.375,"stretto":false,"stretto_voices":0,"combination":[],"aug_dim":"","rhythm_ratio":1.0,"mirror":false,"chromatic_density":0.333,"complexity":0.472,"dissonance":0.16},{"voice":0,"pitch":72,"start":14.0,"duration":0.6667,"velocity":90,"measure":6,"beat":2.0,"subject_pos":3,"motif":"subject","motif_pos":3,"best_pos":3,"similarity":1.0,"stretto":false,"stretto_voices":0,"combination":[],"aug_dim":"","rhythm_ratio":1.0,"mirror":false,"chromatic_density":0.333,"complexity":0.472,"dissonance":0.16},{"voice":1,"pitch":57,"start":14.0,"duration":0.6667,"velocity":90,"measure":6,"beat":2.0,"subject_pos":-1,"motif":"","motif_pos":-1,"best_pos":0,"similarity":0.307,"stretto":false,"stretto_voices":0,"combination":[],"aug_dim":"","rhythm_ratio":1.0,"mirror":false,"chromatic_density":0.333,"complexity":0.472,"dissonance":0.16},{"voice":0,"pitch":71,"start":14.6667,"duration":0.6667,"velocity":90,"measure":6,"beat":3.0,"subject_pos":4,"motif":"subject","motif_pos":4,"best_pos":4,"similarity":1.0,"stretto":false,"stretto_voices":0,"combination":[],"aug_dim":"","rhythm_ratio":1.0,"mirror":false,"chromatic_density":0.333,"complexity":0.472,"dissonance":0.16},{"voice":1,"pitch":62,"start":14.6667,"duration":0.3333,"velocity":90,"measure":6,"beat":3.0,"subject_pos":-1,"motif":"","motif_pos":-1,"best_pos":5,"similarity":0.457,"stretto":false,"stretto_voices":0,"combination":[],"aug_dim":"","rhythm_ratio":1.0,"mirror":false,"chromatic_density":0.333,"complexity":0.472,"dissonance":0.16},{"voice":1,"pitch":64,"start":15.0,"duration":0.3333,"velocity":90,"measure":6,"beat":3.5,"subject_pos":-1,"motif":"","motif_pos":-1,"best_pos":6,"similarity":0.586,"stretto":false,"stretto_voices":0,"combination":[],"aug_dim":"","rhythm_ratio":1.0,"mirror":false,"chromatic_density":0.333,"complexity":0.472,"dissonance":0.16},{"voice":0,"pitch":69,"start":15.3333,"duration":0.6667,"velocity":90,"measure":6,"beat":4.0,"subject_pos":5,"motif":"subject","motif_pos":5,"best_pos":5,"similarity":1.0,"stretto":false,"stretto_voices":0,"combination":[],"aug_dim":"","rhythm_ratio":1.0,"mirror":false,"chromatic_density":0.333,"complexity":0.472,"dissonance":0.16},{"voice":1,"pitch":65,"start":15.3333,"duration":0.5903,"velocity":90,"measure":6,"beat":4.0,"subject_pos":-1,"motif":"","motif_pos":-1,"best_pos":7,"similarity":0.436,"stretto":false,"stretto_voices":0,"combination":[],"aug_dim":"","rhythm_ratio":1.0,"mirror":false,"chromatic_density":0.333,"complexity":0.472,"dissonance":0.16},{"voice":1,"pitch":65,"start":15.9236,"duration":0.0747,"velocity":90,"measure":6,"beat":4.8854,"subject_pos":-1,"motif":"","motif_pos":-1,"best_pos":3,"similarity":0.357,"stretto":false,"stretto_voices":0,"combination":[],"aug_dim":"","rhythm_ratio":1.0,"mirror":false,"chromatic_density":0.333,"complexity":0.472,"dissonance":0.16},{"voice":1,"pitch":64,"start":16.0,"duration":1.0,"velocity":90,"measure":7,"beat":1.0,"subject_pos":-1,"motif":"","motif_pos":-1,"best_pos":1,"similarity":0.429,"stretto":false,"stretto_voices":0,"combination":[],"aug_dim":"","rhythm_ratio":1.0,"mirror":false,"chromatic_density":0.429,"complexity":0.382,"dissonance":0.217},{"voice":0,"pitch":68,"start":16.6667,"duration":0.6667,"velocity":90,"measure":7,"beat":2.0,"subject_pos":6,"motif":"subject","motif_pos":6,"best_pos":6,"similarity":1.0,"stretto":false,"stretto_voices":0,"combination":[],"aug_dim":"","rhythm_ratio":1.0,"mirror":false,"chromatic_density":0.429,"complexity":0.382,"dissonance":0.217},{"voice":1,"pitch":62,"start":17.0,"duration":0.3333,"velocity":90,"measure":7,"beat":2.5,"subject_pos":-1,"motif":"","motif_pos":-1,"best_pos":2,"similarity":0.579,"stretto":false,"stretto_voices":0,"combination":[],"aug_dim":"","rhythm_ratio":1.0,"mirror":false,"chromatic_density":0.429,"complexity":0.382,"dissonance":0.217},{"voice":0,"pitch":69,"start":17.3333,"duration":0.6667,"velocity":90,"measure":7,"beat":3.0,"subject_pos":7,"motif":"subject","motif_pos":7,"best_pos":7,"similarity":1.0,"stretto":false,"stretto_voices":0,"combination":[],"aug_dim":"","rhythm_ratio":1.0,"mirror":false,"chromatic_density":0.429,"complexity":0.382,"dissonance":0.217},{"voice":1,"pitch":60,"start":17.3333,"duration":0.3333,"velocity":90,"measure":7,"beat":3.0,"subject_pos":-1,"motif":"","motif_pos":-1,"best_pos":3,"similarity":0.593,"stretto":false,"stretto_voices":0,"combination":[],"aug_dim":"","rhythm_ratio":1.0,"mirror":false,"chromatic_density":0.429,"complexity":0.382,"dissonance":0.217},{"voice":1,"pitch":59,"start":17.6666,"duration":0.3333,"velocity":90,"measure":7,"beat":3.5,"subject_pos":-1,"motif":"","motif_pos":-1,"best_pos":4,"similarity":0.543,"stretto":false,"stretto_voices":0,"combination":[],"aug_dim":"","rhythm_ratio":1.0,"mirror":false,"chromatic_density":0.429,"complexity":0.382,"dissonance":0.217},{"voice":0,"pitch":71,"start":18.0,"duration":0.6667,"velocity":90,"measure":7,"beat":4.0,"subject_pos":8,"motif":"subject","motif_pos":8,"best_pos":0,"similarity":1.0,"stretto":false,"stretto_voices":0,"combination":[],"aug_dim":"","rhythm_ratio":1.0,"mirror":false,"chromatic_density":0.429,"complexity":0.382,"dissonance":0.217},{"voice":1,"pitch":57,"start":18.0,"duration":0.3333,"velocity":90,"measure":7,"beat":4.0,"subject_pos":-1,"motif":"","motif_pos":-1,"best_pos":3,"similarity":0.643,"stretto":false,"stretto_voices":0,"combination":[],"aug_dim":"","rhythm_ratio":1.0,"mirror":false,"chromatic_density":0.429,"complexity":0.382,"dissonance":0.217},{"voice":1,"pitch":56,"start":18.3333,"duration":0.3333,"velocity":90,"measure":7,"beat":4.5,"subject_pos":-1,"motif":"","motif_pos":-1,"best_pos":4,"similarity":0.686,"stretto":false,"stretto_voices":0,"combination":[],"aug_dim":"","rhythm_ratio":1.0,"mirror":false,"chromatic_density":0.429,"complexity":0.382,"dissonance":0.217},{"voice":1,"pitch":57,"start":18.6666,"duration":0.3333,"velocity":90,"measure":8,"beat":1.0,"subject_pos":-1,"motif":"","motif_pos":-1,"best_pos":5,"similarity":0.479,"stretto":false,"stretto_voices":0,"combination":[],"aug_dim":"","rhythm_ratio":1.0,"mirror":false,"chromatic_density":0.143,"complexity":0.367,"dissonance":0.2},{"voice":1,"pitch":64,"start":19.0,"duration":0.3333,"velocity":90,"measure":8,"beat":1.5,"subject_pos":-1,"motif":"","motif_pos":-1,"best_pos":0,"similarity":0.3,"stretto":false,"stretto_voices":0,"combination":[],"aug_dim":"","rhythm_ratio":1.0,"mirror":false,"chromatic_density":0.143,"complexity":0.367,"dissonance":0.2},{"voice":0,"pitch":72,"start":19.3333,"duration":0.3333,"velocity":90,"measure":8,"beat":2.0,"subject_pos":-1,"motif":"","motif_pos":-1,"best_pos":5,"similarity":0.607,"stretto":false,"stretto_voices":0,"combination":[],"aug_dim":"","rhythm_ratio":1.0,"mirror":false,"chromatic_density":0.143,"complexity":0.367,"dissonance":0.2},{"voice":1,"pitch":69,"start":19.3333,"duration":1.0,"velocity":90,"measure":8,"beat":2.0,"subject_pos":-1,"motif":"","motif_pos":-1,"best_pos":1,"similarity":0.35,"stretto":false,"stretto_voices":0,"combination":[],"aug_dim":"","rhythm_ratio":1.0,"mirror":false,"chromatic_density":0.143,"complexity":0.367,"dissonance":0.2},{"voice":0,"pitch":74,"start":19.6666,"duration":0.3333,"velocity":90,"measure":8,"beat":2.5,"subject_pos":-1,"motif":"","motif_pos":-1,"best_pos":6,"similarity":0.464,"stretto":false,"stretto_voices":0,"combination":[],"aug_dim":"","rhythm_ratio":1.0,"mirror":false,"chromatic_density":0.143,"complexity":0.367,"dissonance":0.2},{"voice":0,"pitch":72,"start":20.0,"duration":0.6667,"velocity":90,"measure":8,"beat":3.0,"subject_pos":-1,"motif":"","motif_pos":-1,"best_pos":3,"similarity":0.536,"stretto":false,"stretto_voices":0,"combination":[],"aug_dim":"","rhythm_ratio":1.0,"mirror":false,"chromatic_density":0.143,"complexity":0.367,"dissonance":0.2},{"voice":1,"pitch":62,"start":20.3333,"duration":0.3333,"velocity":90,"measure":8,"beat":3.5,"subject_pos":-1,"motif":"","motif_pos":-1,"best_pos":0,"similarity":0.429,"stretto":false,"stretto_voices":0,"combination":[],"aug_dim":"","rhythm_ratio":1.0,"mirror":false,"chromatic_density":0.143,"complexity":0.367,"dissonance":0.2},{"voice":0,"pitch":71,"start":20.6666,"duration":0.6667,"velocity":90,"measure":8,"beat":4.0,"subject_pos":-1,"motif":"","motif_pos":-1,"best_pos":4,"similarity":0.607,"stretto":false,"stretto_voices":0,"combination":[],"aug_dim":"","rhythm_ratio":1.0,"mirror":false,"chromatic_density":0.143,"complexity":0.367,"dissonance":0.2},{"voice":1,"pitch":67,"start":20.6666,"duration":1.3333,"velocity":90,"measure":8,"beat":4.0,"subject_pos":-1,"motif":"","motif_pos":-1,"best_pos":1,"similarity":0.607,"stretto":false,"stretto_voices":0,"combination":[],"aug_dim":"","rhythm_ratio":1.0,"mirror":false,"chromatic_density":0.143,"complexity":0.367,"dissonance":0.2},{"voice":0,"pitch":69,"start":21.3333,"duration":0.6667,"velocity":90,"measure":9,"beat":1.0,"subject_pos":-1,"motif":"","motif_pos":-1,"best_pos":5,"similarity":0.636,"stretto":false,"stretto_voices":0,"combination":[],"aug_dim":"","rhythm_ratio":1.0,"mirror":false,"chromatic_density":0.375,"complexity":0.439,"dissonance":0.133},{"voice":0,"pitch":71,"start":22.0,"duration":0.6667,"velocity":90,"measure":9,"beat":2.0,"subject_pos":-1,"motif":"","motif_pos":-1,"best_pos":6,"similarity":0.657,"stretto":false,"stretto_voices":0,"combination":[],"aug_dim":"","rhythm_ratio":1.0,"mirror":false,"chromatic_density":0.375,"complexity":0.439,"dissonance":0.133},{"voice":1,"pitch":65,"start":22.0,"duration":0.3333,"velocity":90,"measure":9,"beat":2.0,"subject_pos":-1,"motif":"","motif_pos":-1,"best_pos":2,"similarity":0.518,"stretto":false,"stretto_voices":0,"combination":[],"aug_dim":"","rhythm_ratio":1.0,"mirror":false,"chromatic_density":0.375,"complexity":0.439,"dissonance":0.133},{"voice":3,"pitch":50,"start":22.0,"duration":0.6667,"velocity":90,"measure":9,"beat":2.0,"subject_pos":0,"motif":"subject","motif_pos":0,"best_pos":0,"similarity":1.0,"stretto":false,"stretto_voices":0,"combination":[],"aug_dim":"","rhythm_ratio":1.0,"mirror":false,"chromatic_density":0.375,"complexity":0.439,"dissonance":0.133},{"voice":1,"pitch":67,"start":22.3333,"duration":0.3333,"velocity":90,"measure":9,"beat":2.5,"subject_pos":-1,"motif":"","motif_pos":-1,"best_pos":3,"similarity":0.429,"stretto":false,"stretto_voices":0,"combination":[],"aug_dim":"","rhythm_ratio":1.0,"mirror":false,"chromatic_density":0.375,"complexity":0.439,"dissonance":0.133},{"voice":0,"pitch":72,"start":22.6666,"duration":0.6667,"velocity":90,"measure":9,"beat":3.0,"subject_pos":-1,"motif":"","motif_pos":-1,"best_pos":5,"similarity":0.621,"stretto":false,"stretto_voices":0,"combination":[],"aug_dim":"","rhythm_ratio":1.0,"mirror":false,"chromatic_density":0.375,"complexity":0.439,"dissonance":0.133},{"voice":1,"pitch":65,"start":22.6666,"duration":0.6667,"velocity":90,"measure":9,"beat":3.0,"subject_pos":-1,"motif":"","motif_pos":-1,"best_pos":3,"similarity":0.657,"stretto":false,"stretto_voices":0,"combination":[],"aug_dim":"","rhythm_ratio":1.0,"mirror":false,"chromatic_density":0.375,"complexity":0.439,"dissonance":0.133},{"voice":3,"pitch":57,"start":22.6666,"duration":0.6667,"velocity":90,"measure":9,"beat":3.0,"subject_pos":1,"motif":"subject","motif_pos":1,"best_pos":1,"similarity":1.0,"stretto":false,"stretto_voices":0,"combination":[],"aug_dim":"","rhythm_ratio":1.0,"mirror":false,"chromatic_density":0.375,"complexity":0.439,"dissonance":0.133},{"voice":0,"pitch":73,"start":23.3333,"duration":0.6667,"velocity":90,"measure":9,"beat":4.0,"subject_pos":-1,"motif":"","motif_pos":-1,"best_pos":6,"similarity":0.579,"stretto":false,"stretto_voices":0,"combination":[],"aug_dim":"","rhythm_ratio":1.0,"mirror":false,"chromatic_density":0.375,"complexity":0.439,"dissonance":0.133},{"voice":1,"pitch":64,"start":23.3333,"duration":0.6667,"velocity":90,"measure":9,"beat":4.0,"subject_pos":-1,"motif":"","motif_pos":-1,"best_pos":4,"similarity":0.829,"stretto":false,"stretto_voices":0,"combination":[],"aug_dim":"","rhythm_ratio":1.0,"mirror":false,"chromatic_density":0.375,"complexity":0.439,"dissonance":0.133},{"voice":3,"pitch":55,"start":23.3333,"duration":0.6667,"velocity":90,"measure":9,"beat":4.0,"subject_pos":2,"motif":"subject","motif_pos":2,"best_pos":2,"similarity":1.0,"stretto":false,"stretto_voices":0,"combination":[],"aug_dim":"","rhythm_ratio":1.0,"mirror":false,"chromatic_density":0.375,"complexity":0.439,"dissonance":0.133},{"voice":0,"pitch":74,"start":24.0,"duration":0.6667,"velocity":90,"measure":10,"beat":1.0,"subject_pos":-1,"motif":"","motif_pos":-1,"best_pos":7,"similarity":0.429,"stretto":false,"stretto_voices":0,"combination":[],"aug_dim":"","rhythm_ratio":1.0,"mirror":false,"chromatic_density":0.364,"complexity":0.446,"dissonance":0.2},{"voice":1,"pitch":65,"start":24.0,"duration":0.3333,"velocity":90,"measure":10,"beat":1.0,"subject_pos":-1,"motif":"","motif_pos":-1,"best_pos":5,"similarity":0.821,"stretto":false,"stretto_voices":0,"combination":[],"aug_dim":"","rhythm_ratio":1.0,"mirror":false,"chromatic_density":0.364,"complexity":0.446,"dissonance":0.2},{"voice":1,"pitch":67,"start":24.3333,"duration":0.3333,"velocity":90,"measure":10,"beat":1.5,"subject_pos":-1,"motif":"","motif_pos":-1,"best_pos":6,"similarity":0.643,"stretto":false,"stretto_voices":0,"combination":[],"aug_dim":"","rhythm_ratio":1.0,"mirror":false,"chromatic_density":0.364,"complexity":0.446,"dissonance":0.2},{"voice":0,"pitch":73,"start":24.6666,"duration":0.3333,"velocity":90,"measure":10,"beat":2.0,"subject_pos":-1,"motif":"","motif_pos":-1,"best_pos":4,"similarity":0.55,"stretto":false,"stretto_voices":0,"combination":[],"aug_dim":"","rhythm_ratio":1.0,"mirror":false,"chromatic_density":0.364,"complexity":0.446,"dissonance":0.2},{"voice":1,"pitch":69,"start":24.6666,"duration":0.6667,"velocity":90,"measure":10,"beat":2.0,"subject_pos":-1,"motif":"","motif_pos":-1,"best_pos":6,"similarity":0.404,"stretto":false,"stretto_voices":0,"combination":[],"aug_dim":"","rhythm_ratio":1.0,"mirror":false,"chromatic_density":0.364,"complexity":0.446,"dissonance":0.2},{"voice":3,"pitch":53,"start":24.6666,"duration":0.6667,"velocity":90,"measure":10,"beat":2.0,"subject_pos":3,"motif":"subject","motif_pos":3,"best_pos":3,"similarity":1.0,"stretto":false,"stretto_voices":0,"combination":[],"aug_dim":"","rhythm_ratio":1.0,"mirror":false,"chromatic_density":0.364,"complexity":0.446,"dissonance":0.2},{"voice":0,"pitch":71,"start":25.0,"duration":0.3333,"velocity":90,"measure":10,"beat":2.5,"subject_pos":-1,"motif":"","motif_pos":-1,"best_pos":5,"similarity":0.607,"stretto":false,"stretto_voices":0,"combination":[],"aug_dim":"","rhythm_ratio":1.0,"mirror":false,"chromatic_density":0.364,"complexity":0.446,"dissonance":0.2},{"voice":0,"pitch":73,"start":25.3333,"duration":0.6667,"velocity":90,"measure":10,"beat":3.0,"subject_pos":-1,"motif":"","motif_pos":-1,"best_pos":6,"similarity":0.657,"stretto":false,"stretto_voices":0,"combination":[],"aug_dim":"","rhythm_ratio":1.0,"mirror":false,"chromatic_density":0.364,"complexity":0.446,"dissonance":0.2},{"voice":1,"pitch":67,"start":25.3333,"duration":0.3333,"velocity":90,"measure":10,"beat":3.0,"subject_pos":-1,"motif":"","motif_pos":-1,"best_pos":5,"similarity":0.471,"stretto":false,"stretto_voices":0,"combination":[],"aug_dim":"","rhythm_ratio":1.0,"mirror":false,"chromatic_density":0.364,"complexity":0.446,"dissonance":0.2},{"voice":3,"pitch":52,"start":25.3333,"duration":0.6667,"velocity":90,"measure":10,"beat":3.0,"subject_pos":4,"motif":"subject","motif_pos":4,"best_pos":4,"similarity":1.0,"stretto":false,"stretto_voices":0,"combination":[],"aug_dim":"","rhythm_ratio":1.0,"mirror":false,"chromatic_density":0.364,"complexity":0.446,"dissonance":0.2},{"voice":1,"pitch":69,"start":25.6666,"duration":0.3333,"velocity":90,"measure":10,"beat":3.5,"subject_pos":-1,"motif":"","motif_pos":-1,"best_pos":6,"similarity":0.593,"stretto":false,"stretto_voices":0,"combination":[],"aug_dim":"","rhythm_ratio":1.0,"mirror":false,"chromatic_density":0.364,"complexity":0.446,"dissonance":0.2},{"voice":0,"pitch":74,"start":26.0,"duration":0.6667,"velocity":90,"measure":10,"beat":4.0,"subject_pos":-1,"motif":"","motif_pos":-1,"best_pos":5,"similarity":0.657,"stretto":false,"stretto_voices":0,"combination":[],"aug_dim":"","rhythm_ratio":1.0,"mirror":false,"chromatic_density":0.364,"complexity":0.446,"dissonance":0.2},{"voice":1,"pitch":70,"start":26.0,"duration":1.3333,"velocity":90,"measure":10,"beat":4.0,"subject_pos":-1,"motif":"","motif_pos":-1,"best_pos":5,"similarity":0.507,"stretto":false,"stretto_voices":0,"combination":[],"aug_dim":"","rhythm_ratio":1.0,"mirror":false,"chromatic_density":0.364,"complexity":0.446,"dissonance":0.2},{"voice":3,"pitch":50,"start":26.0,"duration":0.6667,"velocity":90,"measure":10,"beat":4.0,"subject_pos":5,"motif":"subject","motif_pos":5,"best_pos":5,"similarity":1.0,"stretto":false,"stretto_voices":0,"combination":[],"aug_dim":"","rhythm_ratio":1.0,"mirror":false,"chromatic_density":0.364,"complexity":0.446,"dissonance":0.2},{"voice":0,"pitch":76,"start":26.6666,"duration":0.6667,"velocity":90,"measure":11,"beat":1.0,"subject_pos":-1,"motif":"","motif_pos":-1,"best_pos":6,"similarity":0.507,"stretto":false,"stretto_voices":0,"combination":[],"aug_dim":"","rhythm_ratio":1.0,"mirror":false,"chromatic_density":0.5,"complexity":0.509,"dissonance":0.217},{"voice":0,"pitch":79,"start":27.3333,"duration":0.6667,"velocity":90,"measure":11,"beat":2.0,"subject_pos":-1,"motif":"","motif_pos":-1,"best_pos":1,"similarity":0.393,"stretto":false,"stretto_voices":0,"combination":[],"aug_dim":"","rhythm_ratio":1.0,"mirror":false,"chromatic_density":0.5,"complexity":0.509,"dissonance":0.217},{"voice":1,"pitch":69,"start":27.3333,"duration":0.3333,"velocity":90,"measure":11,"beat":2.0,"subject_pos":-1,"motif":"","motif_pos":-1,"best_pos":4,"similarity":0.614,"stretto":false,"stretto_voices":0,"combination":[],"aug_dim":"","rhythm_ratio":1.0,"mirror":false,"chromatic_density":0.5,"complexity":0.509,"dissonance":0.217},{"voice":3,"pitch":49,"start":27.3333,"duration":0.6667,"velocity":90,"measure":11,"beat":2.0,"subject_pos":6,"motif":"subject","motif_pos":6,"best_pos":6,"similarity":1.0,"stretto":false,"stretto_voices":0,"combination":[],"aug_dim":"","rhythm_ratio":1.0,"mirror":false,"chromatic_density":0.5,"complexity":0.509,"dissonance":0.217},{"voice":1,"pitch":70,"start":27.6666,"duration":0.3333,"velocity":90,"measure":11,"beat":2.5,"subject_pos":-1,"motif":"","motif_pos":-1,"best_pos":5,"similarity":0.479,"stretto":false,"stretto_voices":0,"combination":[],"aug_dim":"","rhythm_ratio":1.0,"mirror":false,"chromatic_density":0.5,"complexity":0.509,"dissonance":0.217},{"voice":0,"pitch":77,"start":28.0,"duration":0.6667,"velocity":90,"measure":11,"beat":3.0,"subject_pos":-1,"motif":"enigmatic_cell","motif_pos":0,"best_pos":0,"similarity":1.0,"stretto":false,"stretto_voices":0,"combination":[],"aug_dim":"","rhythm_ratio":1.0,"mirror":false,"chromatic_density":0.5,"complexity":0.509,"dissonance":0.217},{"voice":1,"pitch":69,"start":28.0,"duration":0.6667,"velocity":90,"measure":11,"beat":3.0,"subject_pos":-1,"motif":"","motif_pos":-1,"best_pos":4,"similarity":0.386,"stretto":false,"stretto_voices":0,"combination":[],"aug_dim":"","rhythm_ratio":1.0,"mirror":false,"chromatic_density":0.5,"complexity":0.509,"dissonance":0.217},{"voice":3,"pitch":50,"start":28.0,"duration":0.6667,"velocity":90,"measure":11,"beat":3.0,"subject_pos":7,"motif":"subject","motif_pos":7,"best_pos":7,"similarity":1.0,"stretto":false,"stretto_voices":0,"combination":[],"aug_dim":"","rhythm_ratio":1.0,"mirror":false,"chromatic_density":0.5,"complexity":0.509,"dissonance":0.217},{"voice":0,"pitch":76,"start":28.6666,"duration":0.6667,"velocity":90,"measure":11,"beat":4.0,"subject_pos":-1,"motif":"enigmatic_cell","motif_pos":1,"best_pos":1,"similarity":1.0,"stretto":false,"stretto_voices":0,"combination":[],"aug_dim":"","rhythm_ratio":1.0,"mirror":false,"chromatic_density":0.5,"complexity":0.509,"dissonance":0.217},{"voice":1,"pitch":67,"start":28.6666,"duration":1.3333,"velocity":90,"measure":11,"beat":4.0,"subject_pos":-1,"motif":"","motif_pos":-1,"best_pos":2,"similarity":0.471,"stretto":false,"stretto_voices":0,"combination":[],"aug_dim":"","rhythm_ratio":1.0,"mirror":false,"chromatic_density":0.5,"complexity":0.509,"dissonance":0.217},{"voice":3,"pitch":52,"start":28.6666,"duration":0.6667,"velocity":90,"measure":11,"beat":4.0,"subject_pos":8,"motif":"subject","motif_pos":8,"best_pos":0,"similarity":1.0,"stretto":false,"stretto_voices":0,"combination":[],"aug_dim":"","rhythm_ratio":1.0,"mirror":false,"chromatic_density":0.5,"complexity":0.509,"dissonance":0.217},{"voice":0,"pitch":81,"start":29.3333,"duration":0.6667,"velocity":90,"measure":12,"beat":1.0,"subject_pos":-1,"motif":"enigmatic_cell","motif_pos":2,"best_pos":2,"similarity":1.0,"stretto":false,"stretto_voices":0,"combination":[],"aug_dim":"","rhythm_ratio":1.0,"mirror":false,"chromatic_density":0.125,"complexity":0.461,"dissonance":0.15},{"voice":0,"pitch":74,"start":30.0,"duration":0.6667,"velocity":90,"measure":12,"beat":2.0,"subject_pos":-1,"motif":"","motif_pos":-1,"best_pos":2,"similarity":0.543,"stretto":false,"stretto_voices":0,"combination":[],"aug_dim":"","rhythm_ratio":1.0,"mirror":false,"chromatic_density":0.125,"complexity":0.461,"dissonance":0.15},{"voice":1,"pitch":65,"start":30.0,"duration":0.6667,"velocity":90,"measure":12,"beat":2.0,"subject_pos":-1,"motif":"","motif_pos":-1,"best_pos":2,"similarity":0.579,"stretto":false,"stretto_voices":0,"combination":[],"aug_dim":"","rhythm_ratio":1.0,"mirror":false,"chromatic_density":0.125,"complexity":0.461,"dissonance":0.15},{"voice":3,"pitch":53,"start":30.0,"duration":0.3333,"velocity":90,"measure":12,"beat":2.0,"subject_pos":-1,"motif":"","motif_pos":-1,"best_pos":5,"similarity":0.607,"stretto":false,"stretto_voices":0,"combination":[],"aug_dim":"","rhythm_ratio":1.0,"mirror":false,"chromatic_density":0.125,"complexity":0.461,"dissonance":0.15},{"voice":3,"pitch":55,"start":30.3333,"duration":0.3333,"velocity":90,"measure":12,"beat":2.5,"subject_pos":-1,"motif":"","motif_pos":-1,"best_pos":6,"similarity":0.464,"stretto":false,"stretto_voices":0,"combination":[],"aug_dim":"","rhythm_ratio":1.0,"mirror":false,"chromatic_density":0.125,"complexity":0.461,"dissonance":0.15},{"voice":0,"pitch":71,"start":30.6666,"duration":0.6667,"velocity":90,"measure":12,"beat":3.0,"subject_pos":-1,"motif":"","motif_pos":-1,"best_pos":3,"similarity":0.55,"stretto":false,"stretto_voices":0,"combination":[],"aug_dim":"","rhythm_ratio":1.0,"mirror":false,"chromatic_density":0.125,"complexity":0.461,"dissonance":0.15},{"voice":1,"pitch":62,"start":30.6666,"duration":0.6667,"velocity":90,"measure":12,"beat":3.0,"subject_pos":-1,"motif":"","motif_pos":-1,"best_pos":3,"similarity":0.45,"stretto":false,"stretto_voices":0,"combination":[],"aug_dim":"","rhythm_ratio":1.0,"mirror":false,"chromatic_density":0.125,"complexity":0.461,"dissonance":0.15},{"voice":3,"pitch":53,"start":30.6666,"duration":0.6667,"velocity":90,"measure":12,"beat":3.0,"subject_pos":-1,"motif":"","motif_pos":-1,"best_pos":3,"similarity":0.536,"stretto":false,"stretto_voices":0,"combination":[],"aug_dim":"","rhythm_ratio":1.0,"mirror":false,"chromatic_density":0.125,"complexity":0.461,"dissonance":0.15},{"voice":0,"pitch":73,"start":31.3333,"duration":0.6667,"velocity":90,"measure":12,"beat":4.0,"subject_pos":-1,"motif":"","motif_pos":-1,"best_pos":6,"similarity":0.586,"stretto":false,"stretto_voices":0,"combination":[],"aug_dim":"","rhythm_ratio":1.0,"mirror":false,"chromatic_density":0.125,"complexity":0.461,"dissonance":0.15},{"voice":1,"pitch":67,"start":31.3333,"duration":1.3333,"velocity":90,"measure":12,"beat":4.0,"subject_pos":-1,"motif":"","motif_pos":-1,"best_pos":1,"similarity":0.607,"stretto":false,"stretto_voices":0,"combination":[],"aug_dim":"","rhythm_ratio":1.0,"mirror":false,"chromatic_density":0.125,"complexity":0.461,"dissonance":0.15},{"voice":3,"pitch":52,"start":31.3333,"duration":0.6667,"velocity":90,"measure":12,"beat":4.0,"subject_pos":-1,"motif":"","motif_pos":-1,"best_pos":4,"similarity":0.607,"stretto":false,"stretto_voices":0,"combination":[],"aug_dim":"","rhythm_ratio":1.0,"mirror":false,"chromatic_density":0.125,"complexity":0.461,"dissonance":0.15},{"voice":0,"pitch":74,"start":32.0,"duration":1.3333,"velocity":90,"measure":13,"beat":1.0,"subject_pos":-1,"motif":"","motif_pos":-1,"best_pos":5,"similarity":0.436,"stretto":false,"stretto_voices":0,"combination":[],"aug_dim":"","rhythm_ratio":1.0,"mirror":false,"chromatic_density":0.375,"complexity":0.611,"dissonance":0.092},{"voice":3,"pitch":50,"start":32.0,"duration":1.3333,"velocity":90,"measure":13,"beat":1.0,"subject_pos":-1,"motif":"","motif_pos":-1,"best_pos":5,"similarity":0.636,"stretto":false,"stretto_voices":0,"combination":[],"aug_dim":"","rhythm_ratio":1.0,"mirror":false,"chromatic_density":0.375,"complexity":0.611,"dissonance":0.092},{"voice":1,"pitch":65,"start":32.6666,"duration":0.6667,"velocity":90,"measure":13,"beat":2.0,"subject_pos":-1,"motif":"enigmatic_cell","motif_pos":0,"best_pos":0,"similarity":1.0,"stretto":false,"stretto_voices":0,"combination":[],"aug_dim":"","rhythm_ratio":1.0,"mirror":false,"chromatic_density":0.375,"complexity":0.611,"dissonance":0.092},{"voice":2,"pitch":57,"start":32.6666,"duration":0.6667,"velocity":90,"measure":13,"beat":2.0,"subject_pos":0,"motif":"subject","motif_pos":0,"best_pos":0,"similarity":1.0,"stretto":false,"stretto_voices":0,"combination":[],"aug_dim":"","rhythm_ratio":1.0,"mirror":false,"chromatic_density":0.375,"complexity":0.611,"dissonance":0.092},{"voice":0,"pitch":72,"start":33.3333,"duration":0.6667,"velocity":90,"measure":13,"beat":3.0,"subject_pos":-1,"motif":"","motif_pos":-1,"best_pos":3,"similarity":0.464,"stretto":false,"stretto_voices":0,"combination":[],"aug_dim":"","rhythm_ratio":1.0,"mirror":false,"chromatic_density":0.375,"complexity":0.611,"dissonance":0.092},{"voice":1,"pitch":64,"start":33.3333,"duration":0.3333,"velocity":90,"measure":13,"beat":3.0,"subject_pos":-1,"motif":"enigmatic_cell","motif_pos":1,"best_pos":1,"similarity":1.0,"stretto":false,"stretto_voices":0,"combination":[],"aug_dim":"","rhythm_ratio":1.0,"mirror":false,"chromatic_density":0.375,"complexity":0.611,"dissonance":0.092},{"voice":2,"pitch":64,"start":33.3333,"duration":0.6667,"velocity":90,"measure":13,"beat":3.0,"subject_pos":1,"motif":"subject","motif_pos":1,"best_pos":1,"similarity":1.0,"stretto":false,"stretto_voices":0,"combination":[],"aug_dim":"","rhythm_ratio":1.0,"mirror":false,"chromatic_density":0.375,"complexity":0.611,"dissonance":0.092},{"voice":1,"pitch":69,"start":33.6666,"duration":0.6667,"velocity":90,"measure":13,"beat":3.5,"subject_pos":-1,"motif":"enigmatic_cell","motif_pos":2,"best_pos":2,"similarity":1.0,"stretto":false,"stretto_voices":0,"combination":[],"aug_dim":"","rhythm_ratio":1.0,"mirror":false,"chromatic_density":0.375,"complexity":0.611,"dissonance":0.092},{"voice":0,"pitch":71,"start":34.0,"duration":0.6667,"velocity":90,"measure":13,"beat":4.0,"subject_pos":-1,"motif":"","motif_pos":-1,"best_pos":4,"similarity":0.4,"stretto":false,"stretto_voices":0,"combination":[],"aug_dim":"","rhythm_ratio":1.0,"mirror":false,"chromatic_density":0.375,"complexity":0.611,"dissonance":0.092},{"voice":2,"pitch":62,"start":34.0,"duration":0.6667,"velocity":90,"measure":13,"beat":4.0,"subject_pos":2,"motif":"subject","motif_pos":2,"best_pos":2,"similarity":1.0,"stretto":false,"stretto_voices":0,"combination":[],"aug_dim":"","rhythm_ratio":1.0,"mirror":false,"chromatic_density":0.375,"complexity":0.611,"dissonance":0.092},{"voice":3,"pitch":52,"start":34.0,"duration":0.6667,"velocity":90,"measure":13,"beat":4.0,"subject_pos":-1,"motif":"","motif_pos":-1,"best_pos":6,"similarity":0.657,"stretto":false,"stretto_voices":0,"combination":[],"aug_dim":"","rhythm_ratio":1.0,"mirror":false,"chromatic_density":0.375,"complexity":0.611,"dissonance":0.092},{"voice":1,"pitch":68,"start":34.3333,"duration":0.3333,"velocity":90,"measure":13,"beat":4.5,"subject_pos":-1,"motif":"","motif_pos":-1,"best_pos":4,"similarity":0.629,"stretto":false,"stretto_voices":0,"combination":[],"aug_dim":"","rhythm_ratio":1.0,"mirror":false,"chromatic_density":0.375,"complexity":0.611,"dissonance":0.092},{"voice":0,"pitch":69,"start":34.6666,"duration":0.6667,"velocity":90,"measure":14,"beat":1.0,"subject_pos":-1,"motif":"head","motif_pos":0,"best_pos":0,"similarity":1.0,"stretto":false,"stretto_voices":0,"combination":[],"aug_dim":"","rhythm_ratio":1.0,"mirror":false,"chromatic_density":0.385,"complexity":0.657,"dissonance":0.181},{"voice":1,"pitch":69,"start":34.6666,"duration":0.6667,"velocity":90,"measure":14,"beat":1.0,"subject_pos":-1,"motif":"","motif_pos":-1,"best_pos":3,"similarity":0.543,"stretto":false,"stretto_voices":0,"combination":[],"aug_dim":"","rhythm_ratio":1.0,"mirror":false,"chromatic_density":0.385,"complexity":0.657,"dissonance":0.181},{"voice":3,"pitch":53,"start":34.6666,"duration":0.6667,"velocity":90,"measure":14,"beat":1.0,"subject_pos":-1,"motif":"","motif_pos":-1,"best_pos":7,"similarity":0.436,"stretto":false,"stretto_voices":0,"combination":[],"aug_dim":"","rhythm_ratio":1.0,"mirror":false,"chromatic_density":0.385,"complexity":0.657,"dissonance":0.181},{"voice":0,"pitch":76,"start":35.3333,"duration":0.6667,"velocity":90,"measure":14,"beat":2.0,"subject_pos":-1,"motif":"head","motif_pos":1,"best_pos":1,"similarity":1.0,"stretto":false,"stretto_voices":0,"combination":[],"aug_dim":"","rhythm_ratio":1.0,"mirror":false,"chromatic_density":0.385,"complexity":0.657,"dissonance":0.181},{"voice":1,"pitch":68,"start":35.3333,"duration":0.3333,"velocity":90,"measure":14,"beat":2.0,"subject_pos":-1,"motif":"","motif_pos":-1,"best_pos":4,"similarity":0.579,"stretto":false,"stretto_voices":0,"combination":[],"aug_dim":"","rhythm_ratio":1.0,"mirror":false,"chromatic_density":0.385,"complexity":0.657,"dissonance":0.181},{"voice":2,"pitch":60,"start":35.3333,"duration":0.6667,"velocity":90,"measure":14,"beat":2.0,"subject_pos":3,"motif":"subject","motif_pos":3,"best_pos":3,"similarity":1.0,"stretto":false,"stretto_voices":0,"combination":[],"aug_dim":"","rhythm_ratio":1.0,"mirror":false,"chromatic_density":0.385,"complexity":0.657,"dissonance":0.181},{"voice":3,"pitch":52,"start":35.3333,"duration":0.3333,"velocity":90,"measure":14,"beat":2.0,"subject_pos":-1,"motif":"","motif_pos":-1,"best_pos":4,"similarity":0.55,"stretto":false,"stretto_voices":0,"combination":[],"aug_dim":"","rhythm_ratio":1.0,"mirror":false,"chromatic_density":0.385,"complexity":0.657,"dissonance":0.181},{"voice":1,"pitch":66,"start":35.6666,"duration":0.3333,"velocity":90,"measure":14,"beat":2.5,"subject_pos":-1,"motif":"","motif_pos":-1,"best_pos":5,"similarity":0.607,"stretto":false,"stretto_voices":0,"combination":[],"aug_dim":"","rhythm_ratio":1.0,"mirror":false,"chromatic_density":0.385,"complexity":0.657,"dissonance":0.181},{"voice":3,"pitch":50,"start":35.6666,"duration":0.3333,"velocity":90,"measure":14,"beat":2.5,"subject_pos":-1,"motif":"","motif_pos":-1,"best_pos":5,"similarity":0.607,"stretto":false,"stretto_voices":0,"combination":[],"aug_dim":"","rhythm_ratio":1.0,"mirror":false,"chromatic_density":0.385,"complexity":0.657,"dissonance":0.181},{"voice":0,"pitch":74,"start":36.0,"duration":0.6667,"velocity":90,"measure":14,"beat":3.0,"subject_pos":-1,"motif":"head","motif_pos":2,"best_pos":2,"similarity":1.0,"stretto":false,"stretto_voices":0,"combination":[],"aug_dim":"","rhythm_ratio":1.0,"mirror":false,"chromatic_density":0.385,"complexity":0.657,"dissonance":0.181},{"voice":1,"pitch":68,"start":36.0,"duration":0.6667,"velocity":90,"measure":14,"beat":3.0,"subject_pos":-1,"motif":"enigmatic_cell","motif_pos":0,"best_pos":0,"similarity":1.0,"stretto":false,"stretto_voices":0,"combination":[],"aug_dim":"","rhythm_ratio":1.0,"mirror":false,"chromatic_density":0.385,"complexity":0.657,"dissonance":0.181},{"voice":2,"pitch":59,"start":36.0,"duration":0.6667,"velocity":90,"measure":14,"beat":3.0,"subject_pos":4,"motif":"subject","motif_pos":4,"best_pos":4,"similarity":1.0,"stretto":false,"stretto_voices":0,"combination":[],"aug_dim":"","rhythm_ratio":1.0,"mirror":false,"chromatic_density":0.385,"complexity":0.657,"dissonance":0.181},{"voice":3,"pitch":52,"start":36.0,"duration":0.6667,"velocity":90,"measure":14,"beat":3.0,"subject_pos":-1,"motif":"enigmatic_cell","motif_pos":0,"best_pos":0,"similarity":1.0,"stretto":false,"stretto_voices":0,"combination":[],"aug_dim":"","rhythm_ratio":1.0,"mirror":false,"chromatic_density":0.385,"complexity":0.657,"dissonance":0.181},{"voice":0,"pitch":72,"start":36.6666,"duration":1.3333,"velocity":90,"measure":14,"beat":4.0,"subject_pos":-1,"motif":"head","motif_pos":3,"best_pos":3,"similarity":1.0,"stretto":false,"stretto_voices":0,"combination":[],"aug_dim":"","rhythm_ratio":1.0,"mirror":false,"chromatic_density":0.385,"complexity":0.657,"dissonance":0.181},{"voice":1,"pitch":69,"start":36.6666,"duration":0.6667,"velocity":90,"measure":14,"beat":4.0,"subject_pos":-1,"motif":"enigmatic_cell","motif_pos":1,"best_pos":1,"similarity":1.0,"stretto":false,"stretto_voices":0,"combination":[],"aug_dim":"","rhythm_ratio":1.0,"mirror":false,"chromatic_density":0.385,"complexity":0.657,"dissonance":0.181},{"voice":2,"pitch":57,"start":36.6666,"duration":0.6667,"velocity":90,"measure":14,"beat":4.0,"subject_pos":5,"motif":"subject","motif_pos":5,"best_pos":5,"similarity":1.0,"stretto":false,"stretto_voices":0,"combination":[],"aug_dim":"","rhythm_ratio":1.0,"mirror":false,"chromatic_density":0.385,"complexity":0.657,"dissonance":0.181},{"voice":3,"pitch":53,"start":36.6666,"duration":0.6667,"velocity":90,"measure":14,"beat":4.0,"subject_pos":-1,"motif":"enigmatic_cell","motif_pos":1,"best_pos":1,"similarity":1.0,"stretto":false,"stretto_voices":0,"combination":[],"aug_dim":"","rhythm_ratio":1.0,"mirror":false,"chromatic_density":0.385,"complexity":0.657,"dissonance":0.181},{"voice":1,"pitch":62,"start":37.3333,"duration":0.3333,"velocity":90,"measure":15,"beat":1.0,"subject_pos":-1,"motif":"enigmatic_cell","motif_pos":2,"best_pos":2,"similarity":1.0,"stretto":false,"stretto_voices":0,"combination":[],"aug_dim":"","rhythm_ratio":1.0,"mirror":false,"chromatic_density":0.5,"complexity":0.577,"dissonance":0.231},{"voice":3,"pitch":47,"start":37.3333,"duration":0.6667,"velocity":90,"measure":15,"beat":1.0,"subject_pos":-1,"motif":"enigmatic_cell","motif_pos":2,"best_pos":2,"similarity":1.0,"stretto":false,"stretto_voices":0,"combination":[],"aug_dim":"","rhythm_ratio":1.0,"mirror":false,"chromatic_density":0.5,"complexity":0.577,"dissonance":0.231},{"voice":1,"pitch":64,"start":37.6666,"duration":0.3333,"velocity":90,"measure":15,"beat":1.5,"subject_pos":-1,"motif":"","motif_pos":-1,"best_pos":6,"similarity":0.589,"stretto":false,"stretto_voices":0,"combination":[],"aug_dim":"","rhythm_ratio":1.0,"mirror":false,"chromatic_density":0.5,"complexity":0.577,"dissonance":0.231},{"voice":0,"pitch":71,"start":38.0,"duration":0.6667,"velocity":90,"measure":15,"beat":2.0,"subject_pos":-1,"motif":"head","motif_pos":4,"best_pos":4,"similarity":1.0,"stretto":false,"stretto_voices":0,"combination":[],"aug_dim":"","rhythm_ratio":1.0,"mirror":false,"chromatic_density":0.5,"complexity":0.577,"dissonance":0.231},{"voice":1,"pitch":65,"start":38.0,"duration":0.6667,"velocity":90,"measure":15,"beat":2.0,"subject_pos":-1,"motif":"","motif_pos":-1,"best_pos":7,"similarity":0.429,"stretto":false,"stretto_voices":0,"combination":[],"aug_dim":"","rhythm_ratio":1.0,"mirror":false,"chromatic_density":0.5,"complexity":0.577,"dissonance":0.231},{"voice":2,"pitch":56,"start":38.0,"duration":0.6667,"velocity":90,"measure":15,"beat":2.0,"subject_pos":6,"motif":"subject","motif_pos":6,"best_pos":6,"similarity":1.0,"stretto":false,"stretto_voices":0,"combination":[],"aug_dim":"","rhythm_ratio":1.0,"mirror":false,"chromatic_density":0.5,"complexity":0.577,"dissonance":0.231},{"voice":3,"pitch":48,"start":38.0,"duration":0.3333,"velocity":90,"measure":15,"beat":2.0,"subject_pos":-1,"motif":"","motif_pos":-1,"best_pos":5,"similarity":0.593,"stretto":false,"stretto_voices":0,"combination":[],"aug_dim":"","rhythm_ratio":1.0,"mirror":false,"chromatic_density":0.5,"complexity":0.577,"dissonance":0.231},{"voice":3,"pitch":50,"start":38.3333,"duration":0.3333,"velocity":90,"measure":15,"beat":2.5,"subject_pos":-1,"motif":"","motif_pos":-1,"best_pos":6,"similarity":0.457,"stretto":false,"stretto_voices":0,"combination":[],"aug_dim":"","rhythm_ratio":1.0,"mirror":false,"chromatic_density":0.5,"complexity":0.577,"dissonance":0.231},{"voice":0,"pitch":69,"start":38.6666,"duration":0.6667,"velocity":90,"measure":15,"beat":3.0,"subject_pos":-1,"motif":"","motif_pos":-1,"best_pos":3,"similarity":0.643,"stretto":false,"stretto_voices":0,"combination":[],"aug_dim":"","rhythm_ratio":1.0,"mirror":false,"chromatic_density":0.5,"complexity":0.577,"dissonance":0.231},{"voice":1,"pitch":64,"start":38.6666,"duration":0.6667,"velocity":90,"measure":15,"beat":3.0,"subject_pos":-1,"motif":"","motif_pos":-1,"best_pos":2,"similarity":0.379,"stretto":false,"stretto_voices":0,"combination":[],"aug_dim":"","rhythm_ratio":1.0,"mirror":false,"chromatic_density":0.5,"complexity":0.577,"dissonance":0.231},{"voice":2,"pitch":57,"start":38.6666,"duration":0.6667,"velocity":90,"measure":15,"beat":3.0,"subject_pos":7,"motif":"subject","motif_pos":7,"best_pos":7,"similarity":1.0,"stretto":false,"stretto_voices":0,"combination":[],"aug_dim":"","rhythm_ratio":1.0,"mirror":false,"chromatic_density":0.5,"complexity":0.577,"dissonance":0.231},{"voice":3,"pitch":48,"start":38.6666,"duration":0.6667,"velocity":90,"measure":15,"beat":3.0,"subject_pos":-1,"motif":"","motif_pos":-1,"best_pos":3,"similarity":0.464,"stretto":false,"stretto_voices":0,"combination":[],"aug_dim":"","rhythm_ratio":1.0,"mirror":false,"chromatic_density":0.5,"complexity":0.577,"dissonance":0.231},{"voice":0,"pitch":68,"start":39.3333,"duration":0.6667,"velocity":90,"measure":15,"beat":4.0,"subject_pos":-1,"motif":"enigmatic_cell","motif_pos":0,"best_pos":0,"similarity":1.0,"stretto":false,"stretto_voices":0,"combination":[],"aug_dim":"","rhythm_ratio":1.0,"mirror":false,"chromatic_density":0.5,"complexity":0.577,"dissonance":0.231},{"voice":1,"pitch":62,"start":39.3333,"duration":1.3333,"velocity":90,"measure":15,"beat":4.0,"subject_pos":-1,"motif":"","motif_pos":-1,"best_pos":2,"similarity":0.446,"stretto":false,"stretto_voices":0,"combination":[],"aug_dim":"","rhythm_ratio":1.0,"mirror":false,"chromatic_density":0.5,"complexity":0.577,"dissonance":0.231},{"voice":2,"pitch":59,"start":39.3333,"duration":0.6667,"velocity":90,"measure":15,"beat":4.0,"subject_pos":8,"motif":"subject","motif_pos":8,"best_pos":0,"similarity":1.0,"stretto":false,"stretto_voices":0,"combination":[],"aug_dim":"","rhythm_ratio":1.0,"mirror":false,"chromatic_density":0.5,"complexity":0.577,"dissonance":0.231},{"voice":3,"pitch":47,"start":39.3333,"duration":0.6667,"velocity":90,"measure":15,"beat":4.0,"subject_pos":-1,"motif":"","motif_pos":-1,"best_pos":4,"similarity":0.393,"stretto":false,"stretto_voices":0,"combination":[],"aug_dim":"","rhythm_ratio":1.0,"mirror":false,"chromatic_density":0.5,"complexity":0.577,"dissonance":0.231},{"voice":0,"pitch":69,"start":40.0,"duration":0.6667,"velocity":90,"measure":16,"beat":1.0,"subject_pos":-1,"motif":"enigmatic_cell","motif_pos":1,"best_pos":1,"similarity":1.0,"stretto":false,"stretto_voices":0,"combination":[],"aug_dim":"","rhythm_ratio":1.0,"mirror":false,"chromatic_density":0.182,"complexity":0.559,"dissonance":0.054},{"voice":3,"pitch":45,"start":40.0,"duration":0.6667,"velocity":90,"measure":16,"beat":1.0,"subject_pos":-1,"motif":"","motif_pos":-1,"best_pos":2,"similarity":0.293,"stretto":false,"stretto_voices":0,"combination":[],"aug_dim":"","rhythm_ratio":1.0,"mirror":false,"chromatic_density":0.182,"complexity":0.559,"dissonance":0.054},{"voice":0,"pitch":64,"start":40.6666,"duration":0.6667,"velocity":90,"measure":16,"beat":2.0,"subject_pos":-1,"motif":"enigmatic_cell","motif_pos":2,"best_pos":2,"similarity":1.0,"stretto":false,"stretto_voices":0,"combination":[],"aug_dim":"","rhythm_ratio":1.0,"mirror":false,"chromatic_density":0.182,"complexity":0.559,"dissonance":0.054},{"voice":1,"pitch":60,"start":40.6666,"duration":0.6667,"velocity":90,"measure":16,"beat":2.0,"subject_pos":-1,"motif":"","motif_pos":-1,"best_pos":2,"similarity":0.436,"stretto":false,"stretto_voices":0,"combination":[],"aug_dim":"","rhythm_ratio":1.0,"mirror":false,"chromatic_density":0.182,"complexity":0.559,"dissonance":0.054},{"voice":2,"pitch":60,"start":40.6666,"duration":0.3333,"velocity":90,"measure":16,"beat":2.0,"subject_pos":-1,"motif":"","motif_pos":-1,"best_pos":5,"similarity":0.607,"stretto":false,"stretto_voices":0,"combination":[],"aug_dim":"","rhythm_ratio":1.0,"mirror":false,"chromatic_density":0.182,"complexity":0.559,"dissonance":0.054},{"voice":3,"pitch":57,"start":40.6666,"duration":0.6667,"velocity":90,"measure":16,"beat":2.0,"subject_pos":-1,"motif":"","motif_pos":-1,"best_pos":3,"similarity":0.164,"stretto":false,"stretto_voices":0,"combination":[],"aug_dim":"","rhythm_ratio":1.0,"mirror":false,"chromatic_density":0.182,"complexity":0.559,"dissonance":0.054},{"voice":2,"pitch":62,"start":41.0,"duration":0.3333,"velocity":90,"measure":16,"beat":2.5,"subject_pos":-1,"motif":"","motif_pos":-1,"best_pos":6,"similarity":0.464,"stretto":false,"stretto_voices":0,"combination":[],"aug_dim":"","rhythm_ratio":1.0,"mirror":false,"chromatic_density":0.182,"complexity":0.559,"dissonance":0.054},{"voice":1,"pitch":65,"start":41.3333,"duration":0.6667,"velocity":90,"measure":16,"beat":3.0,"subject_pos":-1,"motif":"","motif_pos":-1,"best_pos":3,"similarity":0.514,"stretto":false,"stretto_voices":0,"combination":[],"aug_dim":"","rhythm_ratio":1.0,"mirror":false,"chromatic_density":0.182,"complexity":0.559,"dissonance":0.054},{"voice":2,"pitch":60,"start":41.3333,"duration":0.6667,"velocity":90,"measure":16,"beat":3.0,"subject_pos":-1,"motif":"","motif_pos":-1,"best_pos":3,"similarity":0.536,"stretto":false,"stretto_voices":0,"combination":[],"aug_dim":"","rhythm_ratio":1.0,"mirror":false,"chromatic_density":0.182,"complexity":0.559,"dissonance":0.054},{"voice":3,"pitch":50,"start":41.3333,"duration":0.6667,"velocity":90,"measure":16,"beat":3.0,"subject_pos":-1,"motif":"","motif_pos":-1,"best_pos":0,"similarity":0.429,"stretto":false,"stretto_voices":0,"combination":[],"aug_dim":"","rhythm_ratio":1.0,"mirror":false,"chromatic_density":0.182,"complexity":0.559,"dissonance":0.054},{"voice":0,"pitch":71,"start":42.0,"duration":0.6667,"velocity":90,"measure":16,"beat":4.0,"subject_pos":-1,"motif":"","motif_pos":-1,"best_pos":5,"similarity":0.45,"stretto":false,"stretto_voices":0,"combination":[],"aug_dim":"","rhythm_ratio":1.0,"mirror":false,"chromatic_density":0.182,"complexity":0.559,"dissonance":0.054},{"voice":1,"pitch":64,"start":42.0,"duration":0.3333,"velocity":90,"measure":16,"beat":4.0,"subject_pos":-1,"motif":"","motif_pos":-1,"best_pos":4,"similarity":0.6,"stretto":false,"stretto_voices":0,"combination":[],"aug_dim":"","rhythm_ratio":1.0,"mirror":false,"chromatic_density":0.182,"complexity":0.559,"dissonance":0.054},{"voice":2,"pitch":59,"start":42.0,"duration":0.6667,"velocity":90,"measure":16,"beat":4.0,"subject_pos":-1,"motif":"","motif_pos":-1,"best_pos":4,"similarity":0.571,"stretto":false,"stretto_voices":0,"combination":[],"aug_dim":"","rhythm_ratio":1.0,"mirror":false,"chromatic_density":0.182,"complexity":0.559,"dissonance":0.054},{"voice":3,"pitch":55,"start":42.0,"duration":1.3333,"velocity":90,"measure":16,"beat":4.0,"subject_pos":-1,"motif":"","motif_pos":-1,"best_pos":1,"similarity":0.607,"stretto":false,"stretto_voices":0,"combination":[],"aug_dim":"","rhythm_ratio":1.0,"mirror":false,"chromatic_density":0.182,"complexity":0.559,"dissonance":0.054},{"voice":1,"pitch":62,"start":42.3333,"duration":0.3333,"velocity":90,"measure":16,"beat":4.5,"subject_pos":-1,"motif":"","motif_pos":-1,"best_pos":5,"similarity":0.6,"stretto":false,"stretto_voices":0,"combination":[],"aug_dim":"","rhythm_ratio":1.0,"mirror":false,"chromatic_density":0.182,"complexity":0.559,"dissonance":0.054},{"voice":0,"pitch":73,"start":42.6666,"duration":0.6667,"velocity":90,"measure":17,"beat":1.0,"subject_pos":-1,"motif":"","motif_pos":-1,"best_pos":6,"similarity":0.579,"stretto":false,"stretto_voices":0,"combination":[],"aug_dim":"","rhythm_ratio":1.0,"mirror":false,"chromatic_density":0.333,"complexity":0.474,"dissonance":0.17},{"voice":1,"pitch":64,"start":42.6666,"duration":0.6667,"velocity":90,"measure":17,"beat":1.0,"subject_pos":-1,"motif":"","motif_pos":-1,"best_pos":6,"similarity":0.657,"stretto":false,"stretto_voices":0,"combination":[],"aug_dim":"","rhythm_ratio":1.0,"mirror":false,"chromatic_density":0.333,"complexity":0.474,"dissonance":0.17},{"voice":2,"pitch":57,"start":42.6666,"duration":1.3333,"velocity":90,"measure":17,"beat":1.0,"subject_pos":-1,"motif":"","motif_pos":-1,"best_pos":4,"similarity":0.607,"stretto":false,"stretto_voices":0,"combination":[],"aug_dim":"","rhythm_ratio":1.0,"mirror":false,"chromatic_density":0.333,"complexity":0.474,"dissonance":0.17},{"voice":0,"pitch":74,"start":43.3333,"duration":1.3333,"velocity":90,"measure":17,"beat":2.0,"subject_pos":-1,"motif":"","motif_pos":-1,"best_pos":5,"similarity":0.586,"stretto":false,"stretto_voices":0,"combination":[],"aug_dim":"","rhythm_ratio":1.0,"mirror":false,"chromatic_density":0.333,"complexity":0.474,"dissonance":0.17},{"voice":1,"pitch":65,"start":43.3333,"duration":0.6667,"velocity":90,"measure":17,"beat":2.0,"subject_pos":-1,"motif":"","motif_pos":-1,"best_pos":5,"similarity":0.636,"stretto":false,"stretto_voices":0,"combination":[],"aug_dim":"","rhythm_ratio":1.0,"mirror":false,"chromatic_density":0.333,"complexity":0.474,"dissonance":0.17},{"voice":3,"pitch":53,"start":43.3333,"duration":0.3333,"velocity":90,"measure":17,"beat":2.0,"subject_pos":-1,"motif":"","motif_pos":-1,"best_pos":2,"similarity":0.518,"stretto":false,"stretto_voices":0,"combination":[],"aug_dim":"","rhythm_ratio":1.0,"mirror":false,"chromatic_density":0.333,"complexity":0.474,"dissonance":0.17},{"voice":3,"pitch":55,"start":43.6666,"duration":0.3333,"velocity":90,"measure":17,"beat":2.5,"subject_pos":-1,"motif":"","motif_pos":-1,"best_pos":3,"similarity":0.4,"stretto":false,"stretto_voices":0,"combination":[],"aug_dim":"","rhythm_ratio":1.0,"mirror":false,"chromatic_density":0.333,"complexity":0.474,"dissonance":0.17},{"voice":1,"pitch":67,"start":44.0,"duration":2.0,"velocity":90,"measure":17,"beat":3.0,"subject_pos":-1,"motif":"","motif_pos":-1,"best_pos":6,"similarity":0.464,"stretto":false,"stretto_voices":0,"combination":[],"aug_dim":"","rhythm_ratio":1.0,"mirror":false,"chromatic_density":0.333,"complexity":0.474,"dissonance":0.17},{"voice":2,"pitch":59,"start":44.0,"duration":0.6667,"velocity":90,"measure":17,"beat":3.0,"subject_pos":-1,"motif":"","motif_pos":-1,"best_pos":5,"similarity":0.661,"stretto":false,"stretto_voices":0,"combination":[],"aug_dim":"","rhythm_ratio":1.0,"mirror":false,"chromatic_density":0.333,"complexity":0.474,"dissonance":0.17},{"voice":3,"pitch":53,"start":44.0,"duration":0.6667,"velocity":90,"measure":17,"beat":3.0,"subject_pos":-1,"motif":"","motif_pos":-1,"best_pos":2,"similarity":0.479,"stretto":false,"stretto_voices":0,"combination":[],"aug_dim":"","rhythm_ratio":1.0,"mirror":false,"chromatic_density":0.333,"complexity":0.474,"dissonance":0.17},{"voice":0,"pitch":76,"start":44.6666,"duration":0.6667,"velocity":90,"measure":17,"beat":4.0,"subject_pos":-1,"motif":"","motif_pos":-1,"best_pos":6,"similarity":0.436,"stretto":false,"stretto_voices":0,"combination":[],"aug_dim":"","rhythm_ratio":1.0,"mirror":false,"chromatic_density":0.333,"complexity":0.474,"dissonance":0.17},{"voice":2,"pitch":61,"start":44.6666,"duration":0.6667,"velocity":90,"measure":17,"beat":4.0,"subject_pos":-1,"motif":"","motif_pos":-1,"best_pos":6,"similarity":0.679,"stretto":false,"stretto_voices":0,"combination":[],"aug_dim":"","rhythm_ratio":1.0,"mirror":false,"chromatic_density":0.333,"complexity":0.474,"dissonance":0.17},{"voice":3,"pitch":52,"start":44.6666,"duration":0.6667,"velocity":90,"measure":17,"beat":4.0,"subject_pos":-1,"motif":"","motif_pos":-1,"best_pos":3,"similarity":0.507,"stretto":false,"stretto_voices":0,"combination":[],"aug_dim":"","rhythm_ratio":1.0,"mirror":false,"chromatic_density":0.333,"complexity":0.474,"dissonance":0.17},{"voice":0,"pitch":69,"start":45.3333,"duration":0.6667,"velocity":90,"measure":18,"beat":1.0,"subject_pos":-1,"motif":"","motif_pos":-1,"best_pos":7,"similarity":0.214,"stretto":false,"stretto_voices":0,"combination":[],"aug_dim":"","rhythm_ratio":1.0,"mirror":false,"chromatic_density":0.625,"complexity":0.53,"dissonance":0.131},{"voice":2,"pitch":62,"start":45.3333,"duration":1.3333,"velocity":90,"measure":18,"beat":1.0,"subject_pos":-1,"motif":"","motif_pos":-1,"best_pos":7,"similarity":0.464,"stretto":false,"stretto_voices":0,"combination":[],"aug_dim":"","rhythm_ratio":1.0,"mirror":false,"chromatic_density":0.625,"complexity":0.53,"dissonance":0.131},{"voice":3,"pitch":50,"start":45.3333,"duration":0.6667,"velocity":90,"measure":18,"beat":1.0,"subject_pos":-1,"motif":"","motif_pos":-1,"best_pos":4,"similarity":0.543,"stretto":false,"stretto_voices":0,"combination":[],"aug_dim":"","rhythm_ratio":1.0,"mirror":false,"chromatic_density":0.625,"complexity":0.53,"dissonance":0.131},{"voice":0,"pitch":81,"start":46.0,"duration":0.3333,"velocity":90,"measure":18,"beat":2.0,"subject_pos":-1,"motif":"","motif_pos":-1,"best_pos":4,"similarity":0.329,"stretto":false,"stretto_voices":0,"combination":[],"aug_dim":"","rhythm_ratio":1.0,"mirror":false,"chromatic_density":0.625,"complexity":0.53,"dissonance":0.131},{"voice":1,"pitch":65,"start":46.0,"duration":0.3333,"velocity":90,"measure":18,"beat":2.0,"subject_pos":-1,"motif":"","motif_pos":-1,"best_pos":3,"similarity":0.6,"stretto":false,"stretto_voices":0,"combination":[],"aug_dim":"","rhythm_ratio":1.0,"mirror":false,"chromatic_density":0.625,"complexity":0.53,"dissonance":0.131},{"voice":0,"pitch":82,"start":46.3333,"duration":0.3333,"velocity":90,"measure":18,"beat":2.5,"subject_pos":-1,"motif":"","motif_pos":-1,"best_pos":3,"similarity":0.336,"stretto":false,"stretto_voices":0,"combination":[],"aug_dim":"","rhythm_ratio":1.0,"mirror":false,"chromatic_density":0.625,"complexity":0.53,"dissonance":0.131},{"voice":1,"pitch":64,"start":46.3333,"duration":0.3333,"velocity":90,"measure":18,"beat":2.5,"subject_pos":-1,"motif":"","motif_pos":-1,"best_pos":4,"similarity":0.682,"stretto":false,"stretto_voices":0,"combination":[],"aug_dim":"","rhythm_ratio":1.0,"mirror":false,"chromatic_density":0.625,"complexity":0.53,"dissonance":0.131},{"voice":0,"pitch":81,"start":46.6666,"duration":0.6667,"velocity":90,"measure":18,"beat":3.0,"subject_pos":-1,"motif":"","motif_pos":-1,"best_pos":2,"similarity":0.371,"stretto":false,"stretto_voices":0,"combination":[],"aug_dim":"","rhythm_ratio":1.0,"mirror":false,"chromatic_density":0.625,"complexity":0.53,"dissonance":0.131},{"voice":1,"pitch":65,"start":46.6666,"duration":0.6667,"velocity":90,"measure":18,"beat":3.0,"subject_pos":-1,"motif":"","motif_pos":-1,"best_pos":5,"similarity":0.529,"stretto":false,"stretto_voices":0,"combination":[],"aug_dim":"","rhythm_ratio":1.0,"mirror":false,"chromatic_density":0.625,"complexity":0.53,"dissonance":0.131},{"voice":0,"pitch":79,"start":47.3333,"duration":0.6667,"velocity":90,"measure":18,"beat":4.0,"subject_pos":-1,"motif":"","motif_pos":-1,"best_pos":2,"similarity":0.514,"stretto":false,"stretto_voices":0,"combination":[],"aug_dim":"","rhythm_ratio":1.0,"mirror":false,"chromatic_density":0.625,"complexity":0.53,"dissonance":0.131},{"voice":1,"pitch":70,"start":47.3333,"duration":0.6667,"velocity":90,"measure":18,"beat":4.0,"subject_pos":-1,"motif":"","motif_pos":-1,"best_pos":1,"similarity":0.507,"stretto":false,"stretto_voices":0,"combination":[],"aug_dim":"","rhythm_ratio":1.0,"mirror":false,"chromatic_density":0.625,"complexity":0.53,"dissonance":0.131},{"voice":2,"pitch":62,"start":47.3333,"duration":0.3333,"velocity":90,"measure":18,"beat":4.0,"subject_pos":-1,"motif":"tail","motif_pos":3,"best_pos":3,"similarity":1.0,"stretto":false,"stretto_voices":0,"combination":[],"aug_dim":"","rhythm_ratio":1.0,"mirror":false,"chromatic_density":0.625,"complexity":0.53,"dissonance":0.131},{"voice":2,"pitch":61,"start":47.6666,"duration":0.3333,"velocity":90,"measure":18,"beat":4.5,"subject_pos":-1,"motif":"tail","motif_pos":4,"best_pos":4,"similarity":1.0,"stretto":false,"stretto_voices":0,"combination":[],"aug_dim":"","rhythm_ratio":1.0,"mirror":false,"chromatic_density":0.625,"complexity":0.53,"dissonance":0.131},{"voice":0,"pitch":77,"start":48.0,"duration":0.6667,"velocity":90,"measure":19,"beat":1.0,"subject_pos":-1,"motif":"","motif_pos":-1,"best_pos":3,"similarity":0.529,"stretto":false,"stretto_voices":0,"combination":[],"aug_dim":"","rhythm_ratio":1.0,"mirror":false,"chromatic_density":0.273,"complexity":0.554,"dissonance":0.03},{"voice":1,"pitch":69,"start":48.0,"duration":0.6667,"velocity":90,"measure":19,"beat":1.0,"subject_pos":-1,"motif":"","motif_pos":-1,"best_pos":4,"similarity":0.464,"stretto":false,"stretto_voices":0,"combination":[],"aug_dim":"","rhythm_ratio":1.0,"mirror":false,"chromatic_density":0.273,"complexity":0.554,"dissonance":0.03},{"voice":2,"pitch":62,"start":48.0,"duration":0.6667,"velocity":90,"measure":19,"beat":1.0,"subject_pos":-1,"motif":"tail","motif_pos":5,"best_pos":5,"similarity":1.0,"stretto":false,"stretto_voices":0,"combination":[],"aug_dim":"","rhythm_ratio":1.0,"mirror":false,"chromatic_density":0.273,"complexity":0.554,"dissonance":0.03},{"voice":0,"pitch":73,"start":48.6666,"duration":0.6667,"velocity":90,"measure":19,"beat":2.0,"subject_pos":-1,"motif":"","motif_pos":-1,"best_pos":4,"similarity":0.671,"stretto":false,"stretto_voices":0,"combination":[],"aug_dim":"","rhythm_ratio":1.0,"mirror":false,"chromatic_density":0.273,"complexity":0.554,"dissonance":0.03},{"voice":1,"pitch":67,"start":48.6666,"duration":0.6667,"velocity":90,"measure":19,"beat":2.0,"subject_pos":-1,"motif":"","motif_pos":-1,"best_pos":5,"similarity":0.457,"stretto":false,"stretto_voices":0,"combination":[],"aug_dim":"","rhythm_ratio":1.0,"mirror":false,"chromatic_density":0.273,"complexity":0.554,"dissonance":0.03},{"voice":2,"pitch":64,"start":48.6666,"duration":0.6667,"velocity":90,"measure":19,"beat":2.0,"subject_pos":-1,"motif":"tail","motif_pos":6,"best_pos":6,"similarity":1.0,"stretto":false,"stretto_voices":0,"combination":[],"aug_dim":"","rhythm_ratio":1.0,"mirror":false,"chromatic_density":0.273,"complexity":0.554,"dissonance":0.03},{"voice":3,"pitch":50,"start":48.6666,"duration":0.3333,"velocity":90,"measure":19,"beat":2.0,"subject_pos":-1,"motif":"","motif_pos":-1,"best_pos":5,"similarity":0.532,"stretto":false,"stretto_voices":0,"combination":[],"aug_dim":"","rhythm_ratio":1.0,"mirror":false,"chromatic_density":0.273,"complexity":0.554,"dissonance":0.03},{"voice":3,"pitch":52,"start":49.0,"duration":0.3333,"velocity":90,"measure":19,"beat":2.5,"subject_pos":-1,"motif":"","motif_pos":-1,"best_pos":1,"similarity":0.421,"stretto":false,"stretto_voices":0,"combination":[],"aug_dim":"","rhythm_ratio":1.0,"mirror":false,"chromatic_density":0.273,"complexity":0.554,"dissonance":0.03},{"voice":0,"pitch":74,"start":49.3333,"duration":0.6667,"velocity":90,"measure":19,"beat":3.0,"subject_pos":-1,"motif":"","motif_pos":-1,"best_pos":5,"similarity":0.764,"stretto":false,"stretto_voices":0,"combination":[],"aug_dim":"","rhythm_ratio":1.0,"mirror":false,"chromatic_density":0.273,"complexity":0.554,"dissonance":0.03},{"voice":1,"pitch":69,"start":49.3333,"duration":0.6667,"velocity":90,"measure":19,"beat":3.0,"subject_pos":-1,"motif":"","motif_pos":-1,"best_pos":6,"similarity":0.371,"stretto":false,"stretto_voices":0,"combination":[],"aug_dim":"","rhythm_ratio":1.0,"mirror":false,"chromatic_density":0.273,"complexity":0.554,"dissonance":0.03},{"voice":2,"pitch":65,"start":49.3333,"duration":0.6667,"velocity":90,"measure":19,"beat":3.0,"subject_pos":-1,"motif":"tail","motif_pos":7,"best_pos":7,"similarity":1.0,"stretto":false,"stretto_voices":0,"combination":[],"aug_dim":"","rhythm_ratio":1.0,"mirror":false,"chromatic_density":0.273,"complexity":0.554,"dissonance":0.03},{"voice":3,"pitch":50,"start":49.3333,"duration":0.6667,"velocity":90,"measure":19,"beat":3.0,"subject_pos":-1,"motif":"","motif_pos":-1,"best_pos":2,"similarity":0.514,"stretto":false,"stretto_voices":0,"combination":[],"aug_dim":"","rhythm_ratio":1.0,"mirror":false,"chromatic_density":0.273,"complexity":0.554,"dissonance":0.03},{"voice":1,"pitch":75,"start":49.9999,"duration":1.3333,"velocity":90,"measure":19,"beat":4.0,"subject_pos":-1,"motif":"","motif_pos":-1,"best_pos":3,"similarity":0.45,"stretto":false,"stretto_voices":0,"combination":[],"aug_dim":"","rhythm_ratio":1.0,"mirror":false,"chromatic_density":0.273,"complexity":0.554,"dissonance":0.03},{"voice":2,"pitch":66,"start":49.9999,"duration":0.6667,"velocity":90,"measure":19,"beat":4.0,"subject_pos":-1,"motif":"","motif_pos":-1,"best_pos":6,"similarity":0.579,"stretto":false,"stretto_voices":0,"combination":[],"aug_dim":"","rhythm_ratio":1.0,"mirror":false,"chromatic_density":0.273,"complexity":0.554,"dissonance":0.03},{"voice":3,"pitch":48,"start":49.9999,"duration":0.6667,"velocity":90,"measure":19,"beat":4.0,"subject_pos":-1,"motif":"","motif_pos":-1,"best_pos":3,"similarity":0.436,"stretto":false,"stretto_voices":0,"combination":[],"aug_dim":"","rhythm_ratio":1.0,"mirror":false,"chromatic_density":0.273,"complexity":0.554,"dissonance":0.03},{"voice":2,"pitch":67,"start":50.6666,"duration":1.0,"velocity":90,"measure":20,"beat":1.0,"subject_pos":-1,"motif":"","motif_pos":-1,"best_pos":3,"similarity":0.55,"stretto":false,"stretto_voices":0,"combination":[],"aug_dim":"","rhythm_ratio":1.0,"mirror":false,"chromatic_density":0.444,"complexity":0.448,"dissonance":0.062},{"voice":3,"pitch":46,"start":50.6666,"duration":0.6667,"velocity":90,"measure":20,"beat":1.0,"subject_pos":-1,"motif":"","motif_pos":-1,"best_pos":3,"similarity":0.357,"stretto":false,"stretto_voices":0,"combination":[],"aug_dim":"","rhythm_ratio":1.0,"mirror":false,"chromatic_density":0.444,"complexity":0.448,"dissonance":0.062},{"voice":1,"pitch":74,"start":51.3333,"duration":0.3333,"velocity":90,"measure":20,"beat":2.0,"subject_pos":-1,"motif":"","motif_pos":-1,"best_pos":4,"similarity":0.6,"stretto":false,"stretto_voices":0,"combination":[],"aug_dim":"","rhythm_ratio":1.0,"mirror":false,"chromatic_density":0.444,"complexity":0.448,"dissonance":0.062},{"voice":3,"pitch":58,"start":51.3333,"duration":0.6667,"velocity":90,"measure":20,"beat":2.0,"subject_pos":-1,"motif":"","motif_pos":-1,"best_pos":4,"similarity":0.357,"stretto":false,"stretto_voices":0,"combination":[],"aug_dim":"","rhythm_ratio":1.0,"mirror":false,"chromatic_density":0.444,"complexity":0.448,"dissonance":0.062},{"voice":1,"pitch":75,"start":51.6666,"duration":0.3333,"velocity":90,"measure":20,"beat":2.5,"subject_pos":-1,"motif":"","motif_pos":-1,"best_pos":5,"similarity":0.471,"stretto":false,"stretto_voices":0,"combination":[],"aug_dim":"","rhythm_ratio":1.0,"mirror":false,"chromatic_density":0.444,"complexity":0.448,"dissonance":0.062},{"voice":2,"pitch":66,"start":51.6666,"duration":0.3333,"velocity":90,"measure":20,"beat":2.5,"subject_pos":-1,"motif":"","motif_pos":-1,"best_pos":4,"similarity":0.736,"stretto":false,"stretto_voices":0,"combination":[],"aug_dim":"","rhythm_ratio":1.0,"mirror":false,"chromatic_density":0.444,"complexity":0.448,"dissonance":0.062},{"voice":1,"pitch":74,"start":51.9999,"duration":0.6667,"velocity":90,"measure":20,"beat":3.0,"subject_pos":-1,"motif":"","motif_pos":-1,"best_pos":4,"similarity":0.414,"stretto":false,"stretto_voices":0,"combination":[],"aug_dim":"","rhythm_ratio":1.0,"mirror":false,"chromatic_density":0.444,"complexity":0.448,"dissonance":0.062},{"voice":2,"pitch":67,"start":51.9999,"duration":0.6667,"velocity":90,"measure":20,"beat":3.0,"subject_pos":-1,"motif":"","motif_pos":-1,"best_pos":5,"similarity":0.721,"stretto":false,"stretto_voices":0,"combination":[],"aug_dim":"","rhythm_ratio":1.0,"mirror":false,"chromatic_density":0.444,"complexity":0.448,"dissonance":0.062},{"voice":3,"pitch":52,"start":51.9999,"duration":0.6667,"velocity":90,"measure":20,"beat":3.0,"subject_pos":-1,"motif":"","motif_pos":-1,"best_pos":5,"similarity":0.464,"stretto":false,"stretto_voices":0,"combination":[],"aug_dim":"","rhythm_ratio":1.0,"mirror":false,"chromatic_density":0.444,"complexity":0.448,"dissonance":0.062},{"voice":1,"pitch":72,"start":52.6666,"duration":1.3333,"velocity":90,"measure":20,"beat":4.0,"subject_pos":-1,"motif":"","motif_pos":-1,"best_pos":2,"similarity":0.45,"stretto":false,"stretto_voices":0,"combination":[],"aug_dim":"","rhythm_ratio":1.0,"mirror":false,"chromatic_density":0.444,"complexity":0.448,"dissonance":0.062},{"voice":2,"pitch":69,"start":52.6666,"duration":0.6667,"velocity":90,"measure":20,"beat":4.0,"subject_pos":-1,"motif":"","motif_pos":-1,"best_pos":6,"similarity":0.5,"stretto":false,"stretto_voices":0,"combination":[],"aug_dim":"","rhythm_ratio":1.0,"mirror":false,"chromatic_density":0.444,"complexity":0.448,"dissonance":0.062},{"voice":3,"pitch":54,"start":52.6666,"duration":0.6667,"velocity":90,"measure":20,"beat":4.0,"subject_pos":-1,"motif":"","motif_pos":-1,"best_pos":6,"similarity":0.571,"stretto":false,"stretto_voices":0,"combination":[],"aug_dim":"","rhythm_ratio":1.0,"mirror":false,"chromatic_density":0.444,"complexity":0.448,"dissonance":0.062},{"voice":2,"pitch":62,"start":53.3333,"duration":0.6667,"velocity":90,"measure":21,"beat":1.0,"subject_pos":-1,"motif":"","motif_pos":-1,"best_pos":0,"similarity":0.336,"stretto":false,"stretto_voices":0,"combination":[],"aug_dim":"","rhythm_ratio":1.0,"mirror":false,"chromatic_density":0.273,"complexity":0.55,"dissonance":0.124},{"voice":3,"pitch":55,"start":53.3333,"duration":2.0,"velocity":90,"measure":21,"beat":1.0,"subject_pos":-1,"motif":"","motif_pos":-1,"best_pos":5,"similarity":0.736,"stretto":false,"stretto_voices":0,"combination":[],"aug_dim":"","rhythm_ratio":1.0,"mirror":false,"chromatic_density":0.273,"complexity":0.55,"dissonance":0.124},{"voice":0,"pitch":76,"start":53.9999,"duration":0.3333,"velocity":90,"measure":21,"beat":2.0,"subject_pos":-1,"motif":"tail_inv","motif_pos":0,"best_pos":0,"similarity":1.0,"stretto":false,"stretto_voices":0,"combination":[],"aug_dim":"","rhythm_ratio":1.0,"mirror":false,"chromatic_density":0.273,"complexity":0.55,"dissonance":0.124},{"voice":1,"pitch":70,"start":53.9999,"duration":0.3333,"velocity":90,"measure":21,"beat":2.0,"subject_pos":-1,"motif":"","motif_pos":-1,"best_pos":4,"similarity":0.425,"stretto":false,"stretto_voices":0,"combination":[],"aug_dim":"","rhythm_ratio":1.0,"mirror":false,"chromatic_density":0.273,"complexity":0.55,"dissonance":0.124},{"voice":2,"pitch":67,"start":53.9999,"duration":0.3333,"velocity":90,"measure":21,"beat":2.0,"subject_pos":-1,"motif":"","motif_pos":-1,"best_pos":1,"similarity":0.421,"stretto":false,"stretto_voices":0,"combination":[],"aug_dim":"","rhythm_ratio":1.0,"mirror":false,"chromatic_density":0.273,"complexity":0.55,"dissonance":0.124},{"voice":0,"pitch":77,"start":54.3333,"duration":0.3333,"velocity":90,"measure":21,"beat":2.5,"subject_pos":-1,"motif":"tail_inv","motif_pos":1,"best_pos":1,"similarity":1.0,"stretto":false,"stretto_voices":0,"combination":[],"aug_dim":"","rhythm_ratio":1.0,"mirror":false,"chromatic_density":0.273,"complexity":0.55,"dissonance":0.124},{"voice":1,"pitch":72,"start":54.3333,"duration":0.3333,"velocity":90,"measure":21,"beat":2.5,"subject_pos":-1,"motif":"","motif_pos":-1,"best_pos":1,"similarity":0.386,"stretto":false,"stretto_voices":0,"combination":[],"aug_dim":"","rhythm_ratio":1.0,"mirror":false,"chromatic_density":0.273,"complexity":0.55,"dissonance":0.124},{"voice":2,"pitch":69,"start":54.3333,"duration":0.3333,"velocity":90,"measure":21,"beat":2.5,"subject_pos":-1,"motif":"","motif_pos":-1,"best_pos":1,"similarity":0.457,"stretto":false,"stretto_voices":0,"combination":[],"aug_dim":"","rhythm_ratio":1.0,"mirror":false,"chromatic_density":0.273,"complexity":0.55,"dissonance":0.124},{"voice":0,"pitch":76,"start":54.6666,"duration":0.6667,"velocity":90,"measure":21,"beat":3.0,"subject_pos":-1,"motif":"tail_inv","motif_pos":2,"best_pos":2,"similarity":1.0,"stretto":false,"stretto_voices":0,"combination":[],"aug_dim":"","rhythm_ratio":1.0,"mirror":false,"chromatic_density":0.273,"complexity":0.55,"dissonance":0.124},{"voice":1,"pitch":70,"start":54.6666,"duration":0.6667,"velocity":90,"measure":21,"beat":3.0,"subject_pos":-1,"motif":"","motif_pos":-1,"best_pos":3,"similarity":0.457,"stretto":false,"stretto_voices":0,"combination":[],"aug_dim":"","rhythm_ratio":1.0,"mirror":false,"chromatic_density":0.273,"complexity":0.55,"dissonance":0.124},{"voice":2,"pitch":67,"start":54.6666,"duration":0.6667,"velocity":90,"measure":21,"beat":3.0,"subject_pos":-1,"motif":"","motif_pos":-1,"best_pos":2,"similarity":0.593,"stretto":false,"stretto_voices":0,"combination":[],"aug_dim":"","rhythm_ratio":1.0,"mirror":false,"chromatic_density":0.273,"complexity":0.55,"dissonance":0.124},{"voice":0,"pitch":74,"start":55.3333,"duration":0.6667,"velocity":90,"measure":21,"beat":4.0,"subject_pos":-1,"motif":"tail_inv","motif_pos":3,"best_pos":3,"similarity":1.0,"stretto":false,"stretto_voices":0,"combination":[],"aug_dim":"","rhythm_ratio":1.0,"mirror":false,"chromatic_density":0.273,"complexity":0.55,"dissonance":0.124},{"voice":1,"pitch":69,"start":55.3333,"duration":0.6667,"velocity":90,"measure":21,"beat":4.0,"subject_pos":-1,"motif":"","motif_pos":-1,"best_pos":4,"similarity":0.393,"stretto":false,"stretto_voices":0,"combination":[],"aug_dim":"","rhythm_ratio":1.0,"mirror":false,"chromatic_density":0.273,"complexity":0.55,"dissonance":0.124},{"voice":2,"pitch":65,"start":55.3333,"duration":0.6667,"velocity":90,"measure":21,"beat":4.0,"subject_pos":-1,"motif":"","motif_pos":-1,"best_pos":3,"similarity":0.593,"stretto":false,"stretto_voices":0,"combination":[],"aug_dim":"","rhythm_ratio":1.0,"mirror":false,"chromatic_density":0.273,"complexity":0.55,"dissonance":0.124},{"voice":3,"pitch":57,"start":55.3333,"duration":0.6667,"velocity":90,"measure":21,"beat":4.0,"subject_pos":-1,"motif":"","motif_pos":-1,"best_pos":6,"similarity":0.721,"stretto":false,"stretto_voices":0,"combination":[],"aug_dim":"","rhythm_ratio":1.0,"mirror":false,"chromatic_density":0.273,"complexity":0.55,"dissonance":0.124},{"voice":0,"pitch":73,"start":55.9999,"duration":0.6667,"velocity":90,"measure":22,"beat":1.0,"subject_pos":-1,"motif":"tail_inv","motif_pos":4,"best_pos":4,"similarity":1.0,"stretto":false,"stretto_voices":0,"combination":[],"aug_dim":"","rhythm_ratio":1.0,"mirror":false,"chromatic_density":0.231,"complexity":0.621,"dissonance":0.108},{"voice":1,"pitch":67,"start":55.9999,"duration":0.6667,"velocity":90,"measure":22,"beat":1.0,"subject_pos":-1,"motif":"","motif_pos":-1,"best_pos":2,"similarity":0.321,"stretto":false,"stretto_voices":0,"combination":[],"aug_dim":"","rhythm_ratio":1.0,"mirror":false,"chromatic_density":0.231,"complexity":0.621,"dissonance":0.108},{"voice":2,"pitch":64,"start":55.9999,"duration":1.3333,"velocity":90,"measure":22,"beat":1.0,"subject_pos":-1,"motif":"","motif_pos":-1,"best_pos":4,"similarity":0.529,"stretto":false,"stretto_voices":0,"combination":[],"aug_dim":"","rhythm_ratio":1.0,"mirror":false,"chromatic_density":0.231,"complexity":0.621,"dissonance":0.108},{"voice":3,"pitch":58,"start":55.9999,"duration":0.6667,"velocity":90,"measure":22,"beat":1.0,"subject_pos":-1,"motif":"","motif_pos":-1,"best_pos":7,"similarity":0.5,"stretto":false,"stretto_voices":0,"combination":[],"aug_dim":"","rhythm_ratio":1.0,"mirror":false,"chromatic_density":0.231,"complexity":0.621,"dissonance":0.108},{"voice":0,"pitch":76,"start":56.6666,"duration":0.6667,"velocity":90,"measure":22,"beat":2.0,"subject_pos":-1,"motif":"","motif_pos":-1,"best_pos":0,"similarity":0.464,"stretto":false,"stretto_voices":0,"combination":[],"aug_dim":"","rhythm_ratio":1.0,"mirror":false,"chromatic_density":0.231,"complexity":0.621,"dissonance":0.108},{"voice":1,"pitch":61,"start":56.6666,"duration":0.6667,"velocity":90,"measure":22,"beat":2.0,"subject_pos":-1,"motif":"","motif_pos":-1,"best_pos":3,"similarity":0.193,"stretto":false,"stretto_voices":0,"combination":[],"aug_dim":"","rhythm_ratio":1.0,"mirror":false,"chromatic_density":0.231,"complexity":0.621,"dissonance":0.108},{"voice":3,"pitch":57,"start":56.6666,"duration":0.3333,"velocity":90,"measure":22,"beat":2.0,"subject_pos":-1,"motif":"","motif_pos":-1,"best_pos":1,"similarity":0.429,"stretto":false,"stretto_voices":0,"combination":[],"aug_dim":"","rhythm_ratio":1.0,"mirror":false,"chromatic_density":0.231,"complexity":0.621,"dissonance":0.108},{"voice":3,"pitch":55,"start":56.9999,"duration":0.3333,"velocity":90,"measure":22,"beat":2.5,"subject_pos":-1,"motif":"","motif_pos":-1,"best_pos":2,"similarity":0.579,"stretto":false,"stretto_voices":0,"combination":[],"aug_dim":"","rhythm_ratio":1.0,"mirror":false,"chromatic_density":0.231,"complexity":0.621,"dissonance":0.108},{"voice":0,"pitch":81,"start":57.3333,"duration":0.6667,"velocity":90,"measure":22,"beat":3.0,"subject_pos":-1,"motif":"","motif_pos":-1,"best_pos":1,"similarity":0.714,"stretto":false,"stretto_voices":0,"combination":[],"aug_dim":"","rhythm_ratio":1.0,"mirror":false,"chromatic_density":0.231,"complexity":0.621,"dissonance":0.108},{"voice":2,"pitch":62,"start":57.3333,"duration":0.6667,"velocity":90,"measure":22,"beat":3.0,"subject_pos":-1,"motif":"","motif_pos":-1,"best_pos":3,"similarity":0.357,"stretto":false,"stretto_voices":0,"combination":[],"aug_dim":"","rhythm_ratio":1.0,"mirror":false,"chromatic_density":0.231,"complexity":0.621,"dissonance":0.108},{"voice":3,"pitch":53,"start":57.3333,"duration":0.3333,"velocity":90,"measure":22,"beat":3.0,"subject_pos":-1,"motif":"","motif_pos":-1,"best_pos":3,"similarity":0.593,"stretto":false,"stretto_voices":0,"combination":[],"aug_dim":"","rhythm_ratio":1.0,"mirror":false,"chromatic_density":0.231,"complexity":0.621,"dissonance":0.108},{"voice":3,"pitch":52,"start":57.6666,"duration":0.3333,"velocity":90,"measure":22,"beat":3.5,"subject_pos":-1,"motif":"","motif_pos":-1,"best_pos":4,"similarity":0.543,"stretto":false,"stretto_voices":0,"combination":[],"aug_dim":"","rhythm_ratio":1.0,"mirror":false,"chromatic_density":0.231,"complexity":0.621,"dissonance":0.108},{"voice":0,"pitch":79,"start":57.9999,"duration":0.6667,"velocity":90,"measure":22,"beat":4.0,"subject_pos":-1,"motif":"","motif_pos":-1,"best_pos":2,"similarity":0.721,"stretto":false,"stretto_voices":0,"combination":[],"aug_dim":"","rhythm_ratio":1.0,"mirror":false,"chromatic_density":0.231,"complexity":0.621,"dissonance":0.108},{"voice":1,"pitch":69,"start":57.9999,"duration":1.0,"velocity":90,"measure":22,"beat":4.0,"subject_pos":-1,"motif":"","motif_pos":-1,"best_pos":0,"similarity":0.464,"stretto":false,"stretto_voices":0,"combination":[],"aug_dim":"","rhythm_ratio":1.0,"mirror":false,"chromatic_density":0.231,"complexity":0.621,"dissonance":0.108},{"voice":2,"pitch":52,"start":57.9999,"duration":0.6667,"velocity":90,"measure":22,"beat":4.0,"subject_pos":-1,"motif":"","motif_pos":-1,"best_pos":4,"similarity":0.4,"stretto":false,"stretto_voices":0,"combination":[],"aug_dim":"","rhythm_ratio":1.0,"mirror":false,"chromatic_density":0.231,"complexity":0.621,"dissonance":0.108},{"voice":3,"pitch":50,"start":57.9999,"duration":0.3333,"velocity":90,"measure":22,"beat":4.0,"subject_pos":-1,"motif":"","motif_pos":-1,"best_pos":3,"similarity":0.661,"stretto":false,"stretto_voices":0,"combination":[],"aug_dim":"","rhythm_ratio":1.0,"mirror":false,"chromatic_density":0.231,"complexity":0.621,"dissonance":0.108},{"voice":3,"pitch":49,"start":58.3333,"duration":0.3333,"velocity":90,"measure":22,"beat":4.5,"subject_pos":-1,"motif":"","motif_pos":-1,"best_pos":4,"similarity":0.714,"stretto":false,"stretto_voices":0,"combination":[],"aug_dim":"","rhythm_ratio":1.0,"mirror":false,"chromatic_density":0.231,"complexity":0.621,"dissonance":0.108},{"voice":2,"pitch":53,"start":58.6666,"duration":0.6667,"velocity":90,"measure":23,"beat":1.0,"subject_pos":-1,"motif":"","motif_pos":-1,"best_pos":5,"similarity":0.336,"stretto":false,"stretto_voices":0,"combination":[],"aug_dim":"","rhythm_ratio":1.0,"mirror":false,"chromatic_density":0.333,"complexity":0.513,"dissonance":0.054},{"voice":3,"pitch":50,"start":58.6666,"duration":0.6667,"velocity":90,"measure":23,"beat":1.0,"subject_pos":-1,"motif":"","motif_pos":-1,"best_pos":5,"similarity":0.536,"stretto":false,"stretto_voices":0,"combination":[],"aug_dim":"","rhythm_ratio":1.0,"mirror":false,"chromatic_density":0.333,"complexity":0.513,"dissonance":0.054},{"voice":1,"pitch":74,"start":58.9999,"duration":0.6667,"velocity":90,"measure":23,"beat":1.5,"subject_pos":-1,"motif":"","motif_pos":-1,"best_pos":1,"similarity":0.714,"stretto":false,"stretto_voices":0,"combination":[],"aug_dim":"","rhythm_ratio":1.0,"mirror":false,"chromatic_density":0.333,"complexity":0.513,"dissonance":0.054},{"voice":0,"pitch":77,"start":59.3333,"duration":0.6667,"velocity":90,"measure":23,"beat":2.0,"subject_pos":-1,"motif":"","motif_pos":-1,"best_pos":3,"similarity":0.664,"stretto":false,"stretto_voices":0,"combination":[],"aug_dim":"","rhythm_ratio":1.0,"mirror":false,"chromatic_density":0.333,"complexity":0.513,"dissonance":0.054},{"voice":2,"pitch":62,"start":59.3333,"duration":0.6667,"velocity":90,"measure":23,"beat":2.0,"subject_pos":-1,"motif":"","motif_pos":-1,"best_pos":0,"similarity":0.446,"stretto":false,"stretto_voices":0,"combination":[],"aug_dim":"","rhythm_ratio":1.0,"mirror":false,"chromatic_density":0.333,"complexity":0.513,"dissonance":0.054},{"voice":1,"pitch":72,"start":59.6666,"duration":0.3333,"velocity":90,"measure":23,"beat":2.5,"subject_pos":-1,"motif":"","motif_pos":-1,"best_pos":2,"similarity":0.786,"stretto":false,"stretto_voices":0,"combination":[],"aug_dim":"","rhythm_ratio":1.0,"mirror":false,"chromatic_density":0.333,"complexity":0.513,"dissonance":0.054},{"voice":0,"pitch":76,"start":59.9999,"duration":0.6667,"velocity":90,"measure":23,"beat":3.0,"subject_pos":-1,"motif":"","motif_pos":-1,"best_pos":4,"similarity":0.543,"stretto":false,"stretto_voices":0,"combination":[],"aug_dim":"","rhythm_ratio":1.0,"mirror":false,"chromatic_density":0.333,"complexity":0.513,"dissonance":0.054},{"voice":1,"pitch":70,"start":59.9999,"duration":0.3333,"velocity":90,"measure":23,"beat":3.0,"subject_pos":-1,"motif":"","motif_pos":-1,"best_pos":3,"similarity":0.786,"stretto":false,"stretto_voices":0,"combination":[],"aug_dim":"","rhythm_ratio":1.0,"mirror":false,"chromatic_density":0.333,"complexity":0.513,"dissonance":0.054},{"voice":2,"pitch":67,"start":59.9999,"duration":0.6667,"velocity":90,"measure":23,"beat":3.0,"subject_pos":-1,"motif":"","motif_pos":-1,"best_pos":1,"similarity":0.625,"stretto":false,"stretto_voices":0,"combination":[],"aug_dim":"","rhythm_ratio":1.0,"mirror":false,"chromatic_density":0.333,"complexity":0.513,"dissonance":0.054},{"voice":1,"pitch":69,"start":60.3333,"duration":0.6667,"velocity":90,"measure":23,"beat":3.5,"subject_pos":-1,"motif":"","motif_pos":-1,"best_pos":4,"similarity":0.714,"stretto":false,"stretto_voices":0,"combination":[],"aug_dim":"","rhythm_ratio":1.0,"mirror":false,"chromatic_density":0.333,"complexity":0.513,"dissonance":0.054},{"voice":0,"pitch":74,"start":60.6666,"duration":0.6667,"velocity":90,"measure":23,"beat":4.0,"subject_pos":-1,"motif":"tail","motif_pos":3,"best_pos":3,"similarity":1.0,"stretto":false,"stretto_voices":0,"combination":[],"aug_dim":"","rhythm_ratio":1.0,"mirror":false,"chromatic_density":0.333,"complexity":0.513,"dissonance":0.054},{"voice":2,"pitch":65,"start":60.6666,"duration":0.6667,"velocity":90,"measure":23,"beat":4.0,"subject_pos":-1,"motif":"","motif_pos":-1,"best_pos":3,"similarity":0.596,"stretto":false,"stretto_voices":0,"combination":[],"aug_dim":"","rhythm_ratio":1.0,"mirror":false,"chromatic_density":0.333,"complexity":0.513,"dissonance":0.054},{"voice":3,"pitch":50,"start":60.6666,"duration":0.6667,"velocity":90,"measure":23,"beat":4.0,"subject_pos":-1,"motif":"","motif_pos":-1,"best_pos":0,"similarity":0.464,"stretto":false,"stretto_voices":0,"combination":[],"aug_dim":"","rhythm_ratio":1.0,"mirror":false,"chromatic_density":0.333,"complexity":0.513,"dissonance":0.054},{"voice":1,"pitch":70,"start":60.9999,"duration":0.3333,"velocity":90,"measure":23,"beat":4.5,"subject_pos":-1,"motif":"","motif_pos":-1,"best_pos":5,"similarity":0.464,"stretto":false,"stretto_voices":0,"combination":[],"aug_dim":"","rhythm_ratio":1.0,"mirror":false,"chromatic_density":0.333,"complexity":0.513,"dissonance":0.054},{"voice":1,"pitch":61,"start":61.3333,"duration":0.6667,"velocity":90,"measure":24,"beat":1.0,"subject_pos":-1,"motif":"","motif_pos":-1,"best_pos":6,"similarity":0.214,"stretto":false,"stretto_voices":0,"combination":[],"aug_dim":"","rhythm_ratio":1.0,"mirror":false,"chromatic_density":0.385,"complexity":0.558,"dissonance":0.107},{"voice":2,"pitch":64,"start":61.3333,"duration":0.3333,"velocity":90,"measure":24,"beat":1.0,"subject_pos":-1,"motif":"","motif_pos":-1,"best_pos":4,"similarity":0.657,"stretto":false,"stretto_voices":0,"combination":[],"aug_dim":"","rhythm_ratio":1.0,"mirror":false,"chromatic_density":0.385,"complexity":0.558,"dissonance":0.107},{"voice":3,"pitch":57,"start":61.3333,"duration":0.6667,"velocity":90,"measure":24,"beat":1.0,"subject_pos":-1,"motif":"","motif_pos":-1,"best_pos":1,"similarity":0.643,"stretto":false,"stretto_voices":0,"combination":[],"aug_dim":"","rhythm_ratio":1.0,"mirror":false,"chromatic_density":0.385,"complexity":0.558,"dissonance":0.107},{"voice":2,"pitch":65,"start":61.6666,"duration":0.6667,"velocity":90,"measure":24,"beat":1.5,"subject_pos":-1,"motif":"","motif_pos":-1,"best_pos":5,"similarity":0.493,"stretto":false,"stretto_voices":0,"combination":[],"aug_dim":"","rhythm_ratio":1.0,"mirror":false,"chromatic_density":0.385,"complexity":0.558,"dissonance":0.107},{"voice":0,"pitch":73,"start":61.9999,"duration":0.6667,"velocity":90,"measure":24,"beat":2.0,"subject_pos":-1,"motif":"tail","motif_pos":4,"best_pos":4,"similarity":1.0,"stretto":false,"stretto_voices":0,"combination":[],"aug_dim":"","rhythm_ratio":1.0,"mirror":false,"chromatic_density":0.385,"complexity":0.558,"dissonance":0.107},{"voice":1,"pitch":70,"start":61.9999,"duration":0.6667,"velocity":90,"measure":24,"beat":2.0,"subject_pos":-1,"motif":"","motif_pos":-1,"best_pos":1,"similarity":0.321,"stretto":false,"stretto_voices":0,"combination":[],"aug_dim":"","rhythm_ratio":1.0,"mirror":false,"chromatic_density":0.385,"complexity":0.558,"dissonance":0.107},{"voice":3,"pitch":55,"start":61.9999,"duration":0.6667,"velocity":90,"measure":24,"beat":2.0,"subject_pos":-1,"motif":"","motif_pos":-1,"best_pos":2,"similarity":0.589,"stretto":false,"stretto_voices":0,"combination":[],"aug_dim":"","rhythm_ratio":1.0,"mirror":false,"chromatic_density":0.385,"complexity":0.558,"dissonance":0.107},{"voice":2,"pitch":64,"start":62.3333,"duration":0.3333,"velocity":90,"measure":24,"beat":2.5,"subject_pos":-1,"motif":"","motif_pos":-1,"best_pos":4,"similarity":0.368,"stretto":false,"stretto_voices":0,"combination":[],"aug_dim":"","rhythm_ratio":1.0,"mirror":false,"chromatic_density":0.385,"complexity":0.558,"dissonance":0.107},{"voice":0,"pitch":74,"start":62.6666,"duration":0.6667,"velocity":90,"measure":24,"beat":3.0,"subject_pos":-1,"motif":"tail","motif_pos":5,"best_pos":5,"similarity":1.0,"stretto":false,"stretto_voices":0,"combination":[],"aug_dim":"","rhythm_ratio":1.0,"mirror":false,"chromatic_density":0.385,"complexity":0.558,"dissonance":0.107},{"voice":1,"pitch":69,"start":62.6666,"duration":0.6667,"velocity":90,"measure":24,"beat":3.0,"subject_pos":-1,"motif":"","motif_pos":-1,"best_pos":2,"similarity":0.393,"stretto":false,"stretto_voices":0,"combination":[],"aug_dim":"","rhythm_ratio":1.0,"mirror":false,"chromatic_density":0.385,"complexity":0.558,"dissonance":0.107},{"voice":2,"pitch":57,"start":62.6666,"duration":0.3333,"velocity":90,"measure":24,"beat":3.0,"subject_pos":-1,"motif":"","motif_pos":-1,"best_pos":0,"similarity":0.364,"stretto":false,"stretto_voices":0,"combination":[],"aug_dim":"","rhythm_ratio":1.0,"mirror":false,"chromatic_density":0.385,"complexity":0.558,"dissonance":0.107},{"voice":3,"pitch":53,"start":62.6666,"duration":0.6667,"velocity":90,"measure":24,"beat":3.0,"subject_pos":-1,"motif":"","motif_pos":-1,"best_pos":2,"similarity":0.436,"stretto":false,"stretto_voices":0,"combination":[],"aug_dim":"","rhythm_ratio":1.0,"mirror":false,"chromatic_density":0.385,"complexity":0.558,"dissonance":0.107},{"voice":2,"pitch":62,"start":62.9999,"duration":0.6667,"velocity":90,"measure":24,"beat":3.5,"subject_pos":-1,"motif":"","motif_pos":-1,"best_pos":1,"similarity":0.443,"stretto":false,"stretto_voices":0,"combination":[],"aug_dim":"","rhythm_ratio":1.0,"mirror":false,"chromatic_density":0.385,"complexity":0.558,"dissonance":0.107},{"voice":0,"pitch":76,"start":63.3333,"duration":0.6667,"velocity":90,"measure":24,"beat":4.0,"subject_pos":-1,"motif":"tail","motif_pos":6,"best_pos":6,"similarity":1.0,"stretto":false,"stretto_voices":0,"combination":[],"aug_dim":"","rhythm_ratio":1.0,"mirror":false,"chromatic_density":0.385,"complexity":0.558,"dissonance":0.107},{"voice":1,"pitch":67,"start":63.3333,"duration":0.6667,"velocity":90,"measure":24,"beat":4.0,"subject_pos":-1,"motif":"","motif_pos":-1,"best_pos":2,"similarity":0.446,"stretto":false,"stretto_voices":0,"combination":[],"aug_dim":"","rhythm_ratio":1.0,"mirror":false,"chromatic_density":0.385,"complexity":0.558,"dissonance":0.107},{"voice":3,"pitch":58,"start":63.3333,"duration":0.6667,"velocity":90,"measure":24,"beat":4.0,"subject_pos":-1,"motif":"","motif_pos":-1,"best_pos":1,"similarity":0.536,"stretto":false,"stretto_voices":0,"combination":[],"aug_dim":"","rhythm_ratio":1.0,"mirror":false,"chromatic_density":0.385,"complexity":0.558,"dissonance":0.107},{"voice":2,"pitch":61,"start":63.6666,"duration":0.3333,"velocity":90,"measure":24,"beat":4.5,"subject_pos":-1,"motif":"","motif_pos":-1,"best_pos":4,"similarity":0.65,"stretto":false,"stretto_voices":0,"combination":[],"aug_dim":"","rhythm_ratio":1.0,"mirror":false,"chromatic_density":0.385,"complexity":0.558,"dissonance":0.107},{"voice":1,"pitch":65,"start":63.9999,"duration":0.6667,"velocity":90,"measure":25,"beat":1.0,"subject_pos":-1,"motif":"","motif_pos":-1,"best_pos":2,"similarity":0.446,"stretto":false,"stretto_voices":0,"combination":[],"aug_dim":"","rhythm_ratio":1.0,"mirror":false,"chromatic_density":0.308,"complexity":0.622,"dissonance":0.078},{"voice":2,"pitch":62,"start":63.9999,"duration":0.6667,"velocity":90,"measure":25,"beat":1.0,"subject_pos":-1,"motif":"","motif_pos":-1,"best_pos":5,"similarity":0.571,"stretto":false,"stretto_voices":0,"combination":[],"aug_dim":"","rhythm_ratio":1.0,"mirror":false,"chromatic_density":0.308,"complexity":0.622,"dissonance":0.078},{"voice":3,"pitch":57,"start":63.9999,"duration":0.3333,"velocity":90,"measure":25,"beat":1.0,"subject_pos":-1,"motif":"","motif_pos":-1,"best_pos":2,"similarity":0.536,"stretto":false,"stretto_voices":0,"combination":[],"aug_dim":"","rhythm_ratio":1.0,"mirror":false,"chromatic_density":0.308,"complexity":0.622,"dissonance":0.078},{"voice":3,"pitch":55,"start":64.3333,"duration":0.3333,"velocity":90,"measure":25,"beat":1.5,"subject_pos":-1,"motif":"","motif_pos":-1,"best_pos":3,"similarity":0.571,"stretto":false,"stretto_voices":0,"combination":[],"aug_dim":"","rhythm_ratio":1.0,"mirror":false,"chromatic_density":0.308,"complexity":0.622,"dissonance":0.078},{"voice":0,"pitch":77,"start":64.6666,"duration":0.3333,"velocity":90,"measure":25,"beat":2.0,"subject_pos":-1,"motif":"tail","motif_pos":7,"best_pos":7,"similarity":1.0,"stretto":false,"stretto_voices":0,"combination":[],"aug_dim":"","rhythm_ratio":1.0,"mirror":false,"chromatic_density":0.308,"complexity":0.622,"dissonance":0.078},{"voice":1,"pitch":74,"start":64.6666,"duration":1.3333,"velocity":90,"measure":25,"beat":2.0,"subject_pos":-1,"motif":"","motif_pos":-1,"best_pos":3,"similarity":0.471,"stretto":false,"stretto_voices":0,"combination":[],"aug_dim":"","rhythm_ratio":1.0,"mirror":false,"chromatic_density":0.308,"complexity":0.622,"dissonance":0.078},{"voice":2,"pitch":69,"start":64.6666,"duration":0.6667,"velocity":90,"measure":25,"beat":2.0,"subject_pos":-1,"motif":"enigmatic_cell","motif_pos":0,"best_pos":0,"similarity":1.0,"stretto":false,"stretto_voices":0,"combination":[],"aug_dim":"","rhythm_ratio":1.0,"mirror":false,"chromatic_density":0.308,"complexity":0.622,"dissonance":0.078},{"voice":3,"pitch":53,"start":64.6666,"duration":0.6667,"velocity":90,"measure":25,"beat":2.0,"subject_pos":-1,"motif":"","motif_pos":-1,"best_pos":4,"similarity":0.554,"stretto":false,"stretto_voices":0,"combination":[],"aug_dim":"","rhythm_ratio":1.0,"mirror":false,"chromatic_density":0.308,"complexity":0.622,"dissonance":0.078},{"voice":0,"pitch":79,"start":64.9999,"duration":0.3333,"velocity":90,"measure":25,"beat":2.5,"subject_pos":-1,"motif":"","motif_pos":-1,"best_pos":6,"similarity":0.464,"stretto":false,"stretto_voices":0,"combination":[],"aug_dim":"","rhythm_ratio":1.0,"mirror":false,"chromatic_density":0.308,"complexity":0.622,"dissonance":0.078},{"voice":0,"pitch":77,"start":65.3333,"duration":0.6667,"velocity":90,"measure":25,"beat":3.0,"subject_pos":-1,"motif":"","motif_pos":-1,"best_pos":3,"similarity":0.471,"stretto":false,"stretto_voices":0,"combination":[],"aug_dim":"","rhythm_ratio":1.0,"mirror":false,"chromatic_density":0.308,"complexity":0.622,"dissonance":0.078},{"voice":2,"pitch":70,"start":65.3333,"duration":0.6667,"velocity":90,"measure":25,"beat":3.0,"subject_pos":-1,"motif":"enigmatic_cell","motif_pos":1,"best_pos":1,"similarity":1.0,"stretto":false,"stretto_voices":0,"combination":[],"aug_dim":"","rhythm_ratio":1.0,"mirror":false,"chromatic_density":0.308,"complexity":0.622,"dissonance":0.078},{"voice":3,"pitch":55,"start":65.3333,"duration":0.6667,"velocity":90,"measure":25,"beat":3.0,"subject_pos":-1,"motif":"","motif_pos":-1,"best_pos":5,"similarity":0.571,"stretto":false,"stretto_voices":0,"combination":[],"aug_dim":"","rhythm_ratio":1.0,"mirror":false,"chromatic_density":0.308,"complexity":0.622,"dissonance":0.078},{"voice":0,"pitch":76,"start":65.9999,"duration":0.6667,"velocity":90,"measure":25,"beat":4.0,"subject_pos":-1,"motif":"","motif_pos":-1,"best_pos":2,"similarity":0.5,"stretto":false,"stretto_voices":0,"combination":[],"aug_dim":"","rhythm_ratio":1.0,"mirror":false,"chromatic_density":0.308,"complexity":0.622,"dissonance":0.078},{"voice":1,"pitch":73,"start":65.9999,"duration":0.3333,"velocity":90,"measure":25,"beat":4.0,"subject_pos":-1,"motif":"","motif_pos":-1,"best_pos":4,"similarity":0.461,"stretto":false,"stretto_voices":0,"combination":[],"aug_dim":"","rhythm_ratio":1.0,"mirror":false,"chromatic_density":0.308,"complexity":0.622,"dissonance":0.078},{"voice":2,"pitch":64,"start":65.9999,"duration":0.6667,"velocity":90,"measure":25,"beat":4.0,"subject_pos":-1,"motif":"enigmatic_cell","motif_pos":2,"best_pos":2,"similarity":1.0,"stretto":false,"stretto_voices":0,"combination":[],"aug_dim":"","rhythm_ratio":1.0,"mirror":false,"chromatic_density":0.308,"complexity":0.622,"dissonance":0.078},{"voice":3,"pitch":57,"start":65.9999,"duration":1.0,"velocity":90,"measure":25,"beat":4.0,"subject_pos":-1,"motif":"","motif_pos":-1,"best_pos":6,"similarity":0.464,"stretto":false,"stretto_voices":0,"combination":[],"aug_dim":"","rhythm_ratio":1.0,"mirror":false,"chromatic_density":0.308,"complexity":0.622,"dissonance":0.078},{"voice":1,"pitch":72,"start":66.3333,"duration":0.3333,"velocity":90,"measure":25,"beat":4.5,"subject_pos":-1,"motif":"","motif_pos":-1,"best_pos":3,"similarity":0.489,"stretto":false,"stretto_voices":0,"combination":[],"aug_dim":"","rhythm_ratio":1.0,"mirror":false,"chromatic_density":0.308,"complexity":0.622,"dissonance":0.078},{"voice":0,"pitch":74,"start":66.6666,"duration":2.0,"velocity":90,"measure":26,"beat":1.0,"subject_pos":-1,"motif":"","motif_pos":-1,"best_pos":3,"similarity":0.643,"stretto":false,"stretto_voices":0,"combination":[],"aug_dim":"","rhythm_ratio":1.0,"mirror":false,"chromatic_density":0.8,"complexity":0.502,"dissonance":0.233},{"voice":1,"pitch":71,"start":66.6666,"duration":0.6667,"velocity":90,"measure":26,"beat":1.0,"subject_pos":-1,"motif":"","motif_pos":-1,"best_pos":3,"similarity":0.482,"stretto":false,"stretto_voices":0,"combination":[],"aug_dim":"","rhythm_ratio":1.0,"mirror":false,"chromatic_density":0.8,"complexity":0.502,"dissonance":0.233},{"voice":2,"pitch":65,"start":66.6666,"duration":1.3333,"velocity":90,"measure":26,"beat":1.0,"subject_pos":-1,"motif":"","motif_pos":-1,"best_pos":3,"similarity":0.571,"stretto":false,"stretto_voices":0,"combination":[],"aug_dim":"","rhythm_ratio":1.0,"mirror":false,"chromatic_density":0.8,"complexity":0.502,"dissonance":0.233},{"voice":3,"pitch":56,"start":66.9999,"duration":0.3333,"velocity":90,"measure":26,"beat":1.5,"subject_pos":-1,"motif":"","motif_pos":-1,"best_pos":4,"similarity":0.664,"stretto":false,"stretto_voices":0,"combination":[],"aug_dim":"","rhythm_ratio":1.0,"mirror":false,"chromatic_density":0.8,"complexity":0.502,"dissonance":0.233},{"voice":1,"pitch":70,"start":67.3333,"duration":0.6667,"velocity":90,"measure":26,"beat":2.0,"subject_pos":-1,"motif":"","motif_pos":-1,"best_pos":3,"similarity":0.5,"stretto":false,"stretto_voices":0,"combination":[],"aug_dim":"","rhythm_ratio":1.0,"mirror":false,"chromatic_density":0.8,"complexity":0.502,"dissonance":0.233},{"voice":3,"pitch":57,"start":67.3333,"duration":0.3333,"velocity":90,"measure":26,"beat":2.0,"subject_pos":-1,"motif":"","motif_pos":-1,"best_pos":5,"similarity":0.6,"stretto":false,"stretto_voices":0,"combination":[],"aug_dim":"","rhythm_ratio":1.0,"mirror":false,"chromatic_density":0.8,"complexity":0.502,"dissonance":0.233},{"voice":3,"pitch":56,"start":67.6666,"duration":0.3333,"velocity":90,"measure":26,"beat":2.5,"subject_pos":-1,"motif":"","motif_pos":-1,"best_pos":4,"similarity":0.629,"stretto":false,"stretto_voices":0,"combination":[],"aug_dim":"","rhythm_ratio":1.0,"mirror":false,"chromatic_density":0.8,"complexity":0.502,"dissonance":0.233},{"voice":1,"pitch":69,"start":67.9999,"duration":1.3333,"velocity":90,"measure":26,"beat":3.0,"subject_pos":-1,"motif":"","motif_pos":-1,"best_pos":4,"similarity":0.571,"stretto":false,"stretto_voices":0,"combination":[],"aug_dim":"","rhythm_ratio":1.0,"mirror":false,"chromatic_density":0.8,"complexity":0.502,"dissonance":0.233},{"voice":2,"pitch":64,"start":67.9999,"duration":0.3333,"velocity":90,"measure":26,"beat":3.0,"subject_pos":-1,"motif":"","motif_pos":-1,"best_pos":4,"similarity":0.754,"stretto":false,"stretto_voices":0,"combination":[],"aug_dim":"","rhythm_ratio":1.0,"mirror":false,"chromatic_density":0.8,"complexity":0.502,"dissonance":0.233},{"voice":3,"pitch":57,"start":67.9999,"duration":0.6667,"velocity":90,"measure":26,"beat":3.0,"subject_pos":-1,"motif":"","motif_pos":-1,"best_pos":5,"similarity":0.45,"stretto":false,"stretto_voices":0,"combination":[],"aug_dim":"","rhythm_ratio":1.0,"mirror":false,"chromatic_density":0.8,"complexity":0.502,"dissonance":0.233},{"voice":2,"pitch":65,"start":68.3333,"duration":0.3333,"velocity":90,"measure":26,"beat":3.5,"subject_pos":-1,"motif":"","motif_pos":-1,"best_pos":5,"similarity":0.736,"stretto":false,"stretto_voices":0,"combination":[],"aug_dim":"","rhythm_ratio":1.0,"mirror":false,"chromatic_density":0.8,"complexity":0.502,"dissonance":0.233},{"voice":0,"pitch":73,"start":68.6666,"duration":0.6667,"velocity":90,"measure":26,"beat":4.0,"subject_pos":-1,"motif":"","motif_pos":-1,"best_pos":4,"similarity":0.75,"stretto":false,"stretto_voices":0,"combination":[],"aug_dim":"","rhythm_ratio":1.0,"mirror":false,"chromatic_density":0.8,"complexity":0.502,"dissonance":0.233},{"voice":2,"pitch":67,"start":68.6666,"duration":1.3333,"velocity":90,"measure":26,"beat":4.0,"subject_pos":-1,"motif":"","motif_pos":-1,"best_pos":6,"similarity":0.529,"stretto":false,"stretto_voices":0,"combination":[],"aug_dim":"","rhythm_ratio":1.0,"mirror":false,"chromatic_density":0.8,"complexity":0.502,"dissonance":0.233},{"voice":3,"pitch":45,"start":68.6666,"duration":0.6667,"velocity":90,"measure":26,"beat":4.0,"subject_pos":-1,"motif":"","motif_pos":-1,"best_pos":0,"similarity":0.304,"stretto":false,"stretto_voices":0,"combination":[],"aug_dim":"","rhythm_ratio":1.0,"mirror":false,"chromatic_density":0.8,"complexity":0.502,"dissonance":0.233},{"voice":0,"pitch":74,"start":69.3333,"duration":1.3333,"velocity":90,"measure":27,"beat":1.0,"subject_pos":-1,"motif":"","motif_pos":-1,"best_pos":5,"similarity":0.607,"stretto":false,"stretto_voices":0,"combination":[],"aug_dim":"","rhythm_ratio":1.0,"mirror":false,"chromatic_density":0.0,"complexity":0.403,"dissonance":0.0},{"voice":1,"pitch":69,"start":69.3333,"duration":1.3333,"velocity":90,"measure":27,"beat":1.0,"subject_pos":-1,"motif":"","motif_pos":-1,"best_pos":5,"similarity":0.446,"stretto":false,"stretto_voices":0,"combination":[],"aug_dim":"","rhythm_ratio":1.0,"mirror":false,"chromatic_density":0.0,"complexity":0.403,"dissonance":0.0},{"voice":3,"pitch":50,"start":69.3333,"duration":1.3333,"velocity":90,"measure":27,"beat":1.0,"subject_pos":-1,"motif":"","motif_pos":-1,"best_pos":1,"similarity":0.393,"stretto":false,"stretto_voices":0,"combination":[],"aug_dim":"","rhythm_ratio":1.0,"mirror":false,"chromatic_density":0.0,"complexity":0.403,"dissonance":0.0},{"voice":2,"pitch":65,"start":69.9999,"duration":0.6667,"velocity":90,"measure":27,"beat":2.0,"subject_pos":-1,"motif":"","motif_pos":-1,"best_pos":2,"similarity":0.336,"stretto":false,"stretto_voices":0,"combination":[],"aug_dim":"","rhythm_ratio":1.0,"mirror":false,"chromatic_density":0.0,"complexity":0.403,"dissonance":0.0},{"voice":1,"pitch":57,"start":70.6666,"duration":1.3333,"velocity":90,"measure":27,"beat":3.0,"subject_pos":-1,"motif":"enigmatic_cell","motif_pos":0,"best_pos":0,"similarity":1.0,"stretto":false,"stretto_voices":0,"combination":[],"aug_dim":"","rhythm_ratio":1.0,"mirror":false,"chromatic_density":0.0,"complexity":0.403,"dissonance":0.0},{"voice":1,"pitch":58,"start":71.9999,"duration":0.6667,"velocity":90,"measure":28,"beat":1.0,"subject_pos":-1,"motif":"enigmatic_cell","motif_pos":1,"best_pos":1,"similarity":1.0,"stretto":false,"stretto_voices":0,"combination":[],"aug_dim":"","rhythm_ratio":1.0,"mirror":false,"chromatic_density":0.6,"complexity":0.365,"dissonance":0.0},{"voice":0,"pitch":62,"start":72.6666,"duration":0.6667,"velocity":90,"measure":28,"beat":2.0,"subject_pos":-1,"motif":"","motif_pos":-1,"best_pos":6,"similarity":0.5,"stretto":false,"stretto_voices":0,"combination":[],"aug_dim":"","rhythm_ratio":1.0,"mirror":false,"chromatic_density":0.6,"complexity":0.365,"dissonance":0.0},{"voice":1,"pitch":53,"start":72.6666,"duration":0.6667,"velocity":90,"measure":28,"beat":2.0,"subject_pos":-1,"motif":"enigmatic_cell","motif_pos":2,"best_pos":2,"similarity":1.0,"stretto":false,"stretto_voices":0,"combination":[],"aug_dim":"","rhythm_ratio":1.0,"mirror":false,"chromatic_density":0.6,"complexity":0.365,"dissonance":0.0},{"voice":0,"pitch":63,"start":73.3333,"duration":0.6667,"velocity":90,"measure":28,"beat":3.0,"subject_pos":-1,"motif":"","motif_pos":-1,"best_pos":5,"similarity":0.579,"stretto":false,"stretto_voices":0,"combination":[],"aug_dim":"","rhythm_ratio":1.0,"mirror":false,"chromatic_density":0.6,"complexity":0.365,"dissonance":0.0},{"voice":1,"pitch":60,"start":73.3333,"duration":0.6667,"velocity":90,"measure":28,"beat":3.0,"subject_pos":-1,"motif":"","motif_pos":-1,"best_pos":4,"similarity":0.4,"stretto":false,"stretto_voices":0,"combination":[],"aug_dim":"","rhythm_ratio":1.0,"mirror":false,"chromatic_density":0.6,"complexity":0.365,"dissonance":0.0},{"voice":0,"pitch":64,"start":73.9999,"duration":0.6667,"velocity":90,"measure":28,"beat":4.0,"subject_pos":-1,"motif":"","motif_pos":-1,"best_pos":5,"similarity":0.607,"stretto":false,"stretto_voices":0,"combination":[],"aug_dim":"","rhythm_ratio":1.0,"mirror":false,"chromatic_density":0.6,"complexity":0.365,"dissonance":0.0},{"voice":1,"pitch":61,"start":73.9999,"duration":0.6667,"velocity":90,"measure":28,"beat":4.0,"subject_pos":-1,"motif":"enigmatic_cell","motif_pos":0,"best_pos":0,"similarity":1.0,"stretto":false,"stretto_voices":0,"combination":[],"aug_dim":"","rhythm_ratio":1.0,"mirror":false,"chromatic_density":0.6,"complexity":0.365,"dissonance":0.0},{"voice":0,"pitch":65,"start":74.6666,"duration":0.6667,"velocity":90,"measure":29,"beat":1.0,"subject_pos":-1,"motif":"","motif_pos":-1,"best_pos":5,"similarity":0.614,"stretto":false,"stretto_voices":0,"combination":[],"aug_dim":"","rhythm_ratio":1.0,"mirror":false,"chromatic_density":0.6,"complexity":0.354,"dissonance":0.0},{"voice":1,"pitch":62,"start":74.6666,"duration":0.6667,"velocity":90,"measure":29,"beat":1.0,"subject_pos":-1,"motif":"enigmatic_cell","motif_pos":1,"best_pos":1,"similarity":1.0,"stretto":false,"stretto_voices":0,"combination":[],"aug_dim":"","rhythm_ratio":1.0,"mirror":false,"chromatic_density":0.6,"complexity":0.354,"dissonance":0.0},{"voice":0,"pitch":66,"start":75.3333,"duration":0.6667,"velocity":90,"measure":29,"beat":2.0,"subject_pos":-1,"motif":"","motif_pos":-1,"best_pos":5,"similarity":0.614,"stretto":false,"stretto_voices":0,"combination":[],"aug_dim":"","rhythm_ratio":1.0,"mirror":false,"chromatic_density":0.6,"complexity":0.354,"dissonance":0.0},{"voice":1,"pitch":57,"start":75.3333,"duration":0.6667,"velocity":90,"measure":29,"beat":2.0,"subject_pos":-1,"motif":"enigmatic_cell","motif_pos":2,"best_pos":2,"similarity":1.0,"stretto":false,"stretto_voices":0,"combination":[],"aug_dim":"","rhythm_ratio":1.0,"mirror":false,"chromatic_density":0.6,"complexity":0.354,"dissonance":0.0},{"voice":0,"pitch":67,"start":75.9999,"duration":0.6667,"velocity":90,"measure":29,"beat":3.0,"subject_pos":-1,"motif":"","motif_pos":-1,"best_pos":5,"similarity":0.614,"stretto":false,"stretto_voices":0,"combination":[],"aug_dim":"","rhythm_ratio":1.0,"mirror":false,"chromatic_density":0.6,"complexity":0.354,"dissonance":0.0},{"voice":1,"pitch":64,"start":75.9999,"duration":1.3333,"velocity":90,"measure":29,"beat":3.0,"subject_pos":-1,"motif":"","motif_pos":-1,"best_pos":1,"similarity":0.386,"stretto":false,"stretto_voices":0,"combination":[],"aug_dim":"","rhythm_ratio":1.0,"mirror":false,"chromatic_density":0.6,"complexity":0.354,"dissonance":0.0},{"voice":0,"pitch":68,"start":76.6666,"duration":0.6667,"velocity":90,"measure":29,"beat":4.0,"subject_pos":-1,"motif":"","motif_pos":-1,"best_pos":4,"similarity":0.593,"stretto":false,"stretto_voices":0,"combination":[],"aug_dim":"","rhythm_ratio":1.0,"mirror":false,"chromatic_density":0.6,"complexity":0.354,"dissonance":0.0},{"voice":0,"pitch":69,"start":77.3333,"duration":0.3333,"velocity":90,"measure":30,"beat":1.0,"subject_pos":-1,"motif":"","motif_pos":-1,"best_pos":5,"similarity":0.757,"stretto":false,"stretto_voices":0,"combination":[],"aug_dim":"","rhythm_ratio":1.0,"mirror":false,"chromatic_density":0.364,"complexity":0.486,"dissonance":0.226},{"voice":1,"pitch":65,"start":77.3333,"duration":0.6667,"velocity":90,"measure":30,"beat":1.0,"subject_pos":-1,"motif":"","motif_pos":-1,"best_pos":3,"similarity":0.4,"stretto":false,"stretto_voices":0,"combination":[],"aug_dim":"","rhythm_ratio":1.0,"mirror":false,"chromatic_density":0.364,"complexity":0.486,"dissonance":0.226},{"voice":0,"pitch":71,"start":77.6666,"duration":0.3333,"velocity":90,"measure":30,"beat":1.5,"subject_pos":-1,"motif":"","motif_pos":-1,"best_pos":6,"similarity":0.732,"stretto":false,"stretto_voices":0,"combination":[],"aug_dim":"","rhythm_ratio":1.0,"mirror":false,"chromatic_density":0.364,"complexity":0.486,"dissonance":0.226},{"voice":0,"pitch":72,"start":77.9999,"duration":0.3333,"velocity":90,"measure":30,"beat":2.0,"subject_pos":-1,"motif":"","motif_pos":-1,"best_pos":7,"similarity":0.5,"stretto":false,"stretto_voices":0,"combination":[],"aug_dim":"","rhythm_ratio":1.0,"mirror":false,"chromatic_density":0.364,"complexity":0.486,"dissonance":0.226},{"voice":1,"pitch":64,"start":77.9999,"duration":0.6667,"velocity":90,"measure":30,"beat":2.0,"subject_pos":-1,"motif":"","motif_pos":-1,"best_pos":4,"similarity":0.479,"stretto":false,"stretto_voices":0,"combination":[],"aug_dim":"","rhythm_ratio":1.0,"mirror":false,"chromatic_density":0.364,"complexity":0.486,"dissonance":0.226},{"voice":3,"pitch":57,"start":77.9999,"duration":1.3333,"velocity":90,"measure":30,"beat":2.0,"subject_pos":-1,"motif":"","motif_pos":-1,"best_pos":1,"similarity":0.536,"stretto":false,"stretto_voices":0,"combination":[],"aug_dim":"","rhythm_ratio":1.0,"mirror":false,"chromatic_density":0.364,"complexity":0.486,"dissonance":0.226},{"voice":0,"pitch":69,"start":78.3333,"duration":0.3333,"velocity":90,"measure":30,"beat":2.5,"subject_pos":-1,"motif":"","motif_pos":-1,"best_pos":3,"similarity":0.35,"stretto":false,"stretto_voices":0,"combination":[],"aug_dim":"","rhythm_ratio":1.0,"mirror":false,"chromatic_density":0.364,"complexity":0.486,"dissonance":0.226},{"voice":0,"pitch":77,"start":78.6666,"duration":1.0,"velocity":90,"measure":30,"beat":3.0,"subject_pos":-1,"motif":"","motif_pos":-1,"best_pos":1,"similarity":0.429,"stretto":false,"stretto_voices":0,"combination":[],"aug_dim":"","rhythm_ratio":1.0,"mirror":false,"chromatic_density":0.364,"complexity":0.486,"dissonance":0.226},{"voice":1,"pitch":62,"start":78.6666,"duration":0.3333,"velocity":90,"measure":30,"beat":3.0,"subject_pos":-1,"motif":"","motif_pos":-1,"best_pos":5,"similarity":0.479,"stretto":false,"stretto_voices":0,"combination":[],"aug_dim":"","rhythm_ratio":1.0,"mirror":false,"chromatic_density":0.364,"complexity":0.486,"dissonance":0.226},{"voice":1,"pitch":64,"start":78.9999,"duration":0.3333,"velocity":90,"measure":30,"beat":3.5,"subject_pos":-1,"motif":"","motif_pos":-1,"best_pos":6,"similarity":0.4,"stretto":false,"stretto_voices":0,"combination":[],"aug_dim":"","rhythm_ratio":1.0,"mirror":false,"chromatic_density":0.364,"complexity":0.486,"dissonance":0.226},{"voice":1,"pitch":62,"start":79.3333,"duration":0.6667,"velocity":90,"measure":30,"beat":4.0,"subject_pos":-1,"motif":"","motif_pos":-1,"best_pos":2,"similarity":0.407,"stretto":false,"stretto_voices":0,"combination":[],"aug_dim":"","rhythm_ratio":1.0,"mirror":false,"chromatic_density":0.364,"complexity":0.486,"dissonance":0.226},{"voice":3,"pitch":56,"start":79.3333,"duration":0.6667,"velocity":90,"measure":30,"beat":4.0,"subject_pos":-1,"motif":"","motif_pos":-1,"best_pos":2,"similarity":0.518,"stretto":false,"stretto_voices":0,"combination":[],"aug_dim":"","rhythm_ratio":1.0,"mirror":false,"chromatic_density":0.364,"complexity":0.486,"dissonance":0.226},{"voice":0,"pitch":76,"start":79.6666,"duration":0.1667,"velocity":90,"measure":30,"beat":4.5,"subject_pos":-1,"motif":"","motif_pos":-1,"best_pos":2,"similarity":0.571,"stretto":false,"stretto_voices":0,"combination":[],"aug_dim":"","rhythm_ratio":1.0,"mirror":false,"chromatic_density":0.364,"complexity":0.486,"dissonance":0.226},{"voice":0,"pitch":74,"start":79.8333,"duration":0.1667,"velocity":90,"measure":30,"beat":4.75,"subject_pos":-1,"motif":"","motif_pos":-1,"best_pos":3,"similarity":0.686,"stretto":false,"stretto_voices":0,"combination":[],"aug_dim":"","rhythm_ratio":1.0,"mirror":false,"chromatic_density":0.364,"complexity":0.486,"dissonance":0.226},{"voice":0,"pitch":73,"start":79.9999,"duration":0.6667,"velocity":90,"measure":31,"beat":1.0,"subject_pos":-1,"motif":"","motif_pos":-1,"best_pos":4,"similarity":0.7,"stretto":false,"stretto_voices":0,"combination":[],"aug_dim":"","rhythm_ratio":1.0,"mirror":false,"chromatic_density":0.444,"complexity":0.474,"dissonance":0.21},{"voice":1,"pitch":69,"start":79.9999,"duration":1.0,"velocity":90,"measure":31,"beat":1.0,"subject_pos":-1,"motif":"","motif_pos":-1,"best_pos":1,"similarity":0.393,"stretto":false,"stretto_voices":0,"combination":[],"aug_dim":"","rhythm_ratio":1.0,"mirror":false,"chromatic_density":0.444,"complexity":0.474,"dissonance":0.21},{"voice":3,"pitch":55,"start":79.9999,"duration":0.6667,"velocity":90,"measure":31,"beat":1.0,"subject_pos":-1,"motif":"","motif_pos":-1,"best_pos":3,"similarity":0.543,"stretto":false,"stretto_voices":0,"combination":[],"aug_dim":"","rhythm_ratio":1.0,"mirror":false,"chromatic_density":0.444,"complexity":0.474,"dissonance":0.21},{"voice":0,"pitch":74,"start":80.6666,"duration":0.6667,"velocity":90,"measure":31,"beat":2.0,"subject_pos":-1,"motif":"","motif_pos":-1,"best_pos":5,"similarity":0.507,"stretto":false,"stretto_voices":0,"combination":[],"aug_dim":"","rhythm_ratio":1.0,"mirror":false,"chromatic_density":0.444,"complexity":0.474,"dissonance":0.21},{"voice":3,"pitch":54,"start":80.6666,"duration":0.6667,"velocity":90,"measure":31,"beat":2.0,"subject_pos":-1,"motif":"","motif_pos":-1,"best_pos":3,"similarity":0.471,"stretto":false,"stretto_voices":0,"combination":[],"aug_dim":"","rhythm_ratio":1.0,"mirror":false,"chromatic_density":0.444,"complexity":0.474,"dissonance":0.21},{"voice":1,"pitch":69,"start":80.9999,"duration":0.3333,"velocity":90,"measure":31,"beat":2.5,"subject_pos":-1,"motif":"","motif_pos":-1,"best_pos":5,"similarity":0.479,"stretto":false,"stretto_voices":0,"combination":[],"aug_dim":"","rhythm_ratio":1.0,"mirror":false,"chromatic_density":0.444,"complexity":0.474,"dissonance":0.21},{"voice":0,"pitch":79,"start":81.3333,"duration":2.0,"velocity":90,"measure":31,"beat":3.0,"subject_pos":-1,"motif":"","motif_pos":-1,"best_pos":1,"similarity":0.625,"stretto":false,"stretto_voices":0,"combination":[],"aug_dim":"","rhythm_ratio":1.0,"mirror":false,"chromatic_density":0.444,"complexity":0.474,"dissonance":0.21},{"voice":1,"pitch":71,"start":81.3333,"duration":0.3333,"velocity":90,"measure":31,"beat":3.0,"subject_pos":-1,"motif":"","motif_pos":-1,"best_pos":3,"similarity":0.393,"stretto":false,"stretto_voices":0,"combination":[],"aug_dim":"","rhythm_ratio":1.0,"mirror":false,"chromatic_density":0.444,"complexity":0.474,"dissonance":0.21},{"voice":3,"pitch":53,"start":81.3333,"duration":0.6667,"velocity":90,"measure":31,"beat":3.0,"subject_pos":-1,"motif":"","motif_pos":-1,"best_pos":3,"similarity":0.443,"stretto":false,"stretto_voices":0,"combination":[],"aug_dim":"","rhythm_ratio":1.0,"mirror":false,"chromatic_density":0.444,"complexity":0.474,"dissonance":0.21},{"voice":1,"pitch":69,"start":81.6666,"duration":0.3333,"velocity":90,"measure":31,"beat":3.5,"subject_pos":-1,"motif":"","motif_pos":-1,"best_pos":4,"similarity":0.518,"stretto":false,"stretto_voices":0,"combination":[],"aug_dim":"","rhythm_ratio":1.0,"mirror":false,"chromatic_density":0.444,"complexity":0.474,"dissonance":0.21},{"voice":1,"pitch":71,"start":81.9999,"duration":0.3333,"velocity":90,"measure":31,"beat":4.0,"subject_pos":-1,"motif":"","motif_pos":-1,"best_pos":5,"similarity":0.643,"stretto":false,"stretto_voices":0,"combination":[],"aug_dim":"","rhythm_ratio":1.0,"mirror":false,"chromatic_density":0.444,"complexity":0.474,"dissonance":0.21},{"voice":3,"pitch":52,"start":81.9999,"duration":0.6667,"velocity":90,"measure":31,"beat":4.0,"subject_pos":-1,"motif":"","motif_pos":-1,"best_pos":4,"similarity":0.457,"stretto":false,"stretto_voices":0,"combination":[],"aug_dim":"","rhythm_ratio":1.0,"mirror":false,"chromatic_density":0.444,"complexity":0.474,"dissonance":0.21},{"voice":1,"pitch":73,"start":82.3333,"duration":0.3333,"velocity":90,"measure":31,"beat":4.5,"subject_pos":-1,"motif":"enigmatic_cell","motif_pos":0,"best_pos":0,"similarity":1.0,"stretto":false,"stretto_voices":0,"combination":[],"aug_dim":"","rhythm_ratio":1.0,"mirror":false,"chromatic_density":0.444,"complexity":0.474,"dissonance":0.21},{"voice":1,"pitch":74,"start":82.6666,"duration":0.6667,"velocity":90,"measure":32,"beat":1.0,"subject_pos":-1,"motif":"enigmatic_cell","motif_pos":1,"best_pos":1,"similarity":1.0,"stretto":false,"stretto_voices":0,"combination":[],"aug_dim":"","rhythm_ratio":1.0,"mirror":false,"chromatic_density":0.5,"complexity":0.441,"dissonance":0.045},{"voice":3,"pitch":50,"start":82.6666,"duration":1.3333,"velocity":90,"measure":32,"beat":1.0,"subject_pos":-1,"motif":"","motif_pos":-1,"best_pos":2,"similarity":0.464,"stretto":false,"stretto_voices":0,"combination":[],"aug_dim":"","rhythm_ratio":1.0,"mirror":false,"chromatic_density":0.5,"complexity":0.441,"dissonance":0.045},{"voice":0,"pitch":77,"start":83.3333,"duration":0.3333,"velocity":90,"measure":32,"beat":2.0,"subject_pos":-1,"motif":"","motif_pos":-1,"best_pos":3,"similarity":0.65,"stretto":false,"stretto_voices":0,"combination":[],"aug_dim":"","rhythm_ratio":1.0,"mirror":false,"chromatic_density":0.5,"complexity":0.441,"dissonance":0.045},{"voice":1,"pitch":69,"start":83.3333,"duration":0.6667,"velocity":90,"measure":32,"beat":2.0,"subject_pos":-1,"motif":"enigmatic_cell","motif_pos":2,"best_pos":2,"similarity":1.0,"stretto":false,"stretto_voices":0,"combination":[],"aug_dim":"","rhythm_ratio":1.0,"mirror":false,"chromatic_density":0.5,"complexity":0.441,"dissonance":0.045},{"voice":0,"pitch":76,"start":83.6666,"duration":0.3333,"velocity":90,"measure":32,"beat":2.5,"subject_pos":-1,"motif":"","motif_pos":-1,"best_pos":4,"similarity":0.793,"stretto":false,"stretto_voices":0,"combination":[],"aug_dim":"","rhythm_ratio":1.0,"mirror":false,"chromatic_density":0.5,"complexity":0.441,"dissonance":0.045},{"voice":0,"pitch":77,"start":83.9999,"duration":0.3333,"velocity":90,"measure":32,"beat":3.0,"subject_pos":-1,"motif":"","motif_pos":-1,"best_pos":5,"similarity":0.764,"stretto":false,"stretto_voices":0,"combination":[],"aug_dim":"","rhythm_ratio":1.0,"mirror":false,"chromatic_density":0.5,"complexity":0.441,"dissonance":0.045},{"voice":1,"pitch":74,"start":83.9999,"duration":0.6667,"velocity":90,"measure":32,"beat":3.0,"subject_pos":-1,"motif":"","motif_pos":-1,"best_pos":1,"similarity":0.536,"stretto":false,"stretto_voices":0,"combination":[],"aug_dim":"","rhythm_ratio":1.0,"mirror":false,"chromatic_density":0.5,"complexity":0.441,"dissonance":0.045},{"voice":0,"pitch":79,"start":84.3332,"duration":0.3333,"velocity":90,"measure":32,"beat":3.5,"subject_pos":-1,"motif":"","motif_pos":-1,"best_pos":6,"similarity":0.529,"stretto":false,"stretto_voices":0,"combination":[],"aug_dim":"","rhythm_ratio":1.0,"mirror":false,"chromatic_density":0.5,"complexity":0.441,"dissonance":0.045},{"voice":0,"pitch":77,"start":84.6666,"duration":0.3333,"velocity":90,"measure":32,"beat":4.0,"subject_pos":-1,"motif":"","motif_pos":-1,"best_pos":3,"similarity":0.471,"stretto":false,"stretto_voices":0,"combination":[],"aug_dim":"","rhythm_ratio":1.0,"mirror":false,"chromatic_density":0.5,"complexity":0.441,"dissonance":0.045},{"voice":1,"pitch":73,"start":84.6666,"duration":0.6667,"velocity":90,"measure":32,"beat":4.0,"subject_pos":-1,"motif":"","motif_pos":-1,"best_pos":2,"similarity":0.518,"stretto":false,"stretto_voices":0,"combination":[],"aug_dim":"","rhythm_ratio":1.0,"mirror":false,"chromatic_density":0.5,"complexity":0.441,"dissonance":0.045},{"voice":0,"pitch":76,"start":84.9999,"duration":0.3333,"velocity":90,"measure":32,"beat":4.5,"subject_pos":-1,"motif":"","motif_pos":-1,"best_pos":4,"similarity":0.425,"stretto":false,"stretto_voices":0,"combination":[],"aug_dim":"","rhythm_ratio":1.0,"mirror":false,"chromatic_density":0.5,"complexity":0.441,"dissonance":0.045},{"voice":0,"pitch":74,"start":85.3332,"duration":0.6667,"velocity":90,"measure":33,"beat":1.0,"subject_pos":-1,"motif":"","motif_pos":-1,"best_pos":2,"similarity":0.5,"stretto":false,"stretto_voices":0,"combination":[],"aug_dim":"","rhythm_ratio":1.0,"mirror":false,"chromatic_density":0.556,"complexity":0.308,"dissonance":0.286},{"voice":1,"pitch":72,"start":85.3332,"duration":0.6667,"velocity":90,"measure":33,"beat":1.0,"subject_pos":-1,"motif":"","motif_pos":-1,"best_pos":3,"similarity":0.543,"stretto":false,"stretto_voices":0,"combination":[],"aug_dim":"","rhythm_ratio":1.0,"mirror":false,"chromatic_density":0.556,"complexity":0.308,"dissonance":0.286},{"voice":0,"pitch":79,"start":85.9999,"duration":0.3333,"velocity":90,"measure":33,"beat":2.0,"subject_pos":-1,"motif":"","motif_pos":-1,"best_pos":3,"similarity":0.643,"stretto":false,"stretto_voices":0,"combination":[],"aug_dim":"","rhythm_ratio":1.0,"mirror":false,"chromatic_density":0.556,"complexity":0.308,"dissonance":0.286},{"voice":1,"pitch":71,"start":85.9999,"duration":0.6667,"velocity":90,"measure":33,"beat":2.0,"subject_pos":-1,"motif":"","motif_pos":-1,"best_pos":3,"similarity":0.471,"stretto":false,"stretto_voices":0,"combination":[],"aug_dim":"","rhythm_ratio":1.0,"mirror":false,"chromatic_density":0.556,"complexity":0.308,"dissonance":0.286},{"voice":0,"pitch":78,"start":86.3332,"duration":0.3333,"velocity":90,"measure":33,"beat":2.5,"subject_pos":-1,"motif":"","motif_pos":-1,"best_pos":4,"similarity":0.793,"stretto":false,"stretto_voices":0,"combination":[],"aug_dim":"","rhythm_ratio":1.0,"mirror":false,"chromatic_density":0.556,"complexity":0.308,"dissonance":0.286},{"voice":0,"pitch":79,"start":86.6666,"duration":0.3333,"velocity":90,"measure":33,"beat":3.0,"subject_pos":-1,"motif":"","motif_pos":-1,"best_pos":5,"similarity":0.729,"stretto":false,"stretto_voices":0,"combination":[],"aug_dim":"","rhythm_ratio":1.0,"mirror":false,"chromatic_density":0.556,"complexity":0.308,"dissonance":0.286},{"voice":1,"pitch":70,"start":86.6666,"duration":0.6667,"velocity":90,"measure":33,"beat":3.0,"subject_pos":-1,"motif":"","motif_pos":-1,"best_pos":3,"similarity":0.482,"stretto":false,"stretto_voices":0,"combination":[],"aug_dim":"","rhythm_ratio":1.0,"mirror":false,"chromatic_density":0.556,"complexity":0.308,"dissonance":0.286},{"voice":0,"pitch":81,"start":86.9999,"duration":0.3333,"velocity":90,"measure":33,"beat":3.5,"subject_pos":-1,"motif":"","motif_pos":-1,"best_pos":6,"similarity":0.529,"stretto":false,"stretto_voices":0,"combination":[],"aug_dim":"","rhythm_ratio":1.0,"mirror":false,"chromatic_density":0.556,"complexity":0.308,"dissonance":0.286},{"voice":0,"pitch":79,"start":87.3332,"duration":0.3333,"velocity":90,"measure":33,"beat":4.0,"subject_pos":-1,"motif":"","motif_pos":-1,"best_pos":2,"similarity":0.621,"stretto":false,"stretto_voices":0,"combination":[],"aug_dim":"","rhythm_ratio":1.0,"mirror":false,"chromatic_density":0.556,"complexity":0.308,"dissonance":0.286},{"voice":1,"pitch":69,"start":87.3332,"duration":0.6667,"velocity":90,"measure":33,"beat":4.0,"subject_pos":-1,"motif":"","motif_pos":-1,"best_pos":4,"similarity":0.482,"stretto":false,"stretto_voices":0,"combination":[],"aug_dim":"","rhythm_ratio":1.0,"mirror":false,"chromatic_density":0.556,"complexity":0.308,"dissonance":0.286},{"voice":0,"pitch":77,"start":87.6666,"duration":0.3333,"velocity":90,"measure":33,"beat":4.5,"subject_pos":-1,"motif":"","motif_pos":-1,"best_pos":3,"similarity":0.686,"stretto":false,"stretto_voices":0,"combination":[],"aug_dim":"","rhythm_ratio":1.0,"mirror":false,"chromatic_density":0.556,"complexity":0.308,"dissonance":0.286},{"voice":0,"pitch":76,"start":87.9999,"duration":0.6667,"velocity":90,"measure":34,"beat":1.0,"subject_pos":-1,"motif":"","motif_pos":-1,"best_pos":4,"similarity":0.714,"stretto":false,"stretto_voices":0,"combination":[],"aug_dim":"","rhythm_ratio":1.0,"mirror":false,"chromatic_density":0.4,"complexity":0.449,"dissonance":0.062},{"voice":1,"pitch":68,"start":87.9999,"duration":0.3333,"velocity":90,"measure":34,"beat":1.0,"subject_pos":-1,"motif":"","motif_pos":-1,"best_pos":4,"similarity":0.407,"stretto":false,"stretto_voices":0,"combination":[],"aug_dim":"","rhythm_ratio":1.0,"mirror":false,"chromatic_density":0.4,"complexity":0.449,"dissonance":0.062},{"voice":1,"pitch":72,"start":88.3332,"duration":0.3333,"velocity":90,"measure":34,"beat":1.5,"subject_pos":-1,"motif":"","motif_pos":-1,"best_pos":3,"similarity":0.443,"stretto":false,"stretto_voices":0,"combination":[],"aug_dim":"","rhythm_ratio":1.0,"mirror":false,"chromatic_density":0.4,"complexity":0.449,"dissonance":0.062},{"voice":0,"pitch":78,"start":88.6666,"duration":0.6667,"velocity":90,"measure":34,"beat":2.0,"subject_pos":-1,"motif":"","motif_pos":-1,"best_pos":6,"similarity":0.643,"stretto":false,"stretto_voices":0,"combination":[],"aug_dim":"","rhythm_ratio":1.0,"mirror":false,"chromatic_density":0.4,"complexity":0.449,"dissonance":0.062},{"voice":1,"pitch":71,"start":88.6666,"duration":0.3333,"velocity":90,"measure":34,"beat":2.0,"subject_pos":-1,"motif":"","motif_pos":-1,"best_pos":4,"similarity":0.511,"stretto":false,"stretto_voices":0,"combination":[],"aug_dim":"","rhythm_ratio":1.0,"mirror":false,"chromatic_density":0.4,"complexity":0.449,"dissonance":0.062},{"voice":1,"pitch":69,"start":88.9999,"duration":0.3333,"velocity":90,"measure":34,"beat":2.5,"subject_pos":-1,"motif":"","motif_pos":-1,"best_pos":5,"similarity":0.493,"stretto":false,"stretto_voices":0,"combination":[],"aug_dim":"","rhythm_ratio":1.0,"mirror":false,"chromatic_density":0.4,"complexity":0.449,"dissonance":0.062},{"voice":0,"pitch":79,"start":89.3332,"duration":0.6667,"velocity":90,"measure":34,"beat":3.0,"subject_pos":-1,"motif":"","motif_pos":-1,"best_pos":5,"similarity":0.604,"stretto":false,"stretto_voices":0,"combination":[],"aug_dim":"","rhythm_ratio":1.0,"mirror":false,"chromatic_density":0.4,"complexity":0.449,"dissonance":0.062},{"voice":1,"pitch":71,"start":89.3332,"duration":0.3333,"velocity":90,"measure":34,"beat":3.0,"subject_pos":-1,"motif":"","motif_pos":-1,"best_pos":6,"similarity":0.443,"stretto":false,"stretto_voices":0,"combination":[],"aug_dim":"","rhythm_ratio":1.0,"mirror":false,"chromatic_density":0.4,"complexity":0.449,"dissonance":0.062},{"voice":2,"pitch":52,"start":89.3332,"duration":1.3333,"velocity":90,"measure":34,"beat":3.0,"subject_pos":-1,"motif":"enigmatic_cell","motif_pos":0,"best_pos":0,"similarity":1.0,"stretto":false,"stretto_voices":0,"combination":[],"aug_dim":"","rhythm_ratio":1.0,"mirror":false,"chromatic_density":0.4,"complexity":0.449,"dissonance":0.062},{"voice":1,"pitch":74,"start":89.6666,"duration":0.3333,"velocity":90,"measure":34,"beat":3.5,"subject_pos":-1,"motif":"","motif_pos":-1,"best_pos":1,"similarity":0.429,"stretto":false,"stretto_voices":0,"combination":[],"aug_dim":"","rhythm_ratio":1.0,"mirror":false,"chromatic_density":0.4,"complexity":0.449,"dissonance":0.062},{"voice":0,"pitch":80,"start":89.9999,"duration":0.6667,"velocity":90,"measure":34,"beat":4.0,"subject_pos":-1,"motif":"","motif_pos":-1,"best_pos":6,"similarity":0.579,"stretto":false,"stretto_voices":0,"combination":[],"aug_dim":"","rhythm_ratio":1.0,"mirror":false,"chromatic_density":0.4,"complexity":0.449,"dissonance":0.062},{"voice":1,"pitch":72,"start":89.9999,"duration":0.3333,"velocity":90,"measure":34,"beat":4.0,"subject_pos":-1,"motif":"","motif_pos":-1,"best_pos":2,"similarity":0.464,"stretto":false,"stretto_voices":0,"combination":[],"aug_dim":"","rhythm_ratio":1.0,"mirror":false,"chromatic_density":0.4,"complexity":0.449,"dissonance":0.062},{"voice":1,"pitch":71,"start":90.3332,"duration":0.3333,"velocity":90,"measure":34,"beat":4.5,"subject_pos":-1,"motif":"","motif_pos":-1,"best_pos":1,"similarity":0.429,"stretto":false,"stretto_voices":0,"combination":[],"aug_dim":"","rhythm_ratio":1.0,"mirror":false,"chromatic_density":0.4,"complexity":0.449,"dissonance":0.062},{"voice":0,"pitch":81,"start":90.6666,"duration":0.3333,"velocity":90,"measure":35,"beat":1.0,"subject_pos":-1,"motif":"","motif_pos":-1,"best_pos":1,"similarity":0.457,"stretto":false,"stretto_voices":0,"combination":[],"aug_dim":"","rhythm_ratio":1.0,"mirror":false,"chromatic_density":0.5,"complexity":0.604,"dissonance":0.142},{"voice":1,"pitch":69,"start":90.6666,"duration":1.3333,"velocity":90,"measure":35,"beat":1.0,"subject_pos":-1,"motif":"","motif_pos":-1,"best_pos":2,"similarity":0.589,"stretto":false,"stretto_voices":0,"combination":[],"aug_dim":"","rhythm_ratio":1.0,"mirror":false,"chromatic_density":0.5,"complexity":0.604,"dissonance":0.142},{"voice":2,"pitch":53,"start":90.6666,"duration":0.6667,"velocity":90,"measure":35,"beat":1.0,"subject_pos":-1,"motif":"enigmatic_cell","motif_pos":1,"best_pos":1,"similarity":1.0,"stretto":false,"stretto_voices":0,"combination":[],"aug_dim":"","rhythm_ratio":1.0,"mirror":false,"chromatic_density":0.5,"complexity":0.604,"dissonance":0.142},{"voice":0,"pitch":79,"start":90.9999,"duration":0.3333,"velocity":90,"measure":35,"beat":1.5,"subject_pos":-1,"motif":"","motif_pos":-1,"best_pos":2,"similarity":0.593,"stretto":false,"stretto_voices":0,"combination":[],"aug_dim":"","rhythm_ratio":1.0,"mirror":false,"chromatic_density":0.5,"complexity":0.604,"dissonance":0.142},{"voice":0,"pitch":77,"start":91.3332,"duration":0.3333,"velocity":90,"measure":35,"beat":2.0,"subject_pos":-1,"motif":"","motif_pos":-1,"best_pos":3,"similarity":0.6,"stretto":false,"stretto_voices":0,"combination":[],"aug_dim":"","rhythm_ratio":1.0,"mirror":false,"chromatic_density":0.5,"complexity":0.604,"dissonance":0.142},{"voice":2,"pitch":48,"start":91.3332,"duration":0.6667,"velocity":90,"measure":35,"beat":2.0,"subject_pos":-1,"motif":"enigmatic_cell","motif_pos":2,"best_pos":2,"similarity":1.0,"stretto":false,"stretto_voices":0,"combination":[],"aug_dim":"","rhythm_ratio":1.0,"mirror":false,"chromatic_density":0.5,"complexity":0.604,"dissonance":0.142},{"voice":3,"pitch":45,"start":91.3332,"duration":0.6667,"velocity":90,"measure":35,"beat":2.0,"subject_pos":-1,"motif":"","motif_pos":-1,"best_pos":4,"similarity":0.564,"stretto":false,"stretto_voices":0,"combination":[],"aug_dim":"","rhythm_ratio":1.0,"mirror":false,"chromatic_density":0.5,"complexity":0.604,"dissonance":0.142},{"voice":0,"pitch":76,"start":91.6666,"duration":0.3333,"velocity":90,"measure":35,"beat":2.5,"subject_pos":-1,"motif":"","motif_pos":-1,"best_pos":4,"similarity":0.543,"stretto":false,"stretto_voices":0,"combination":[],"aug_dim":"","rhythm_ratio":1.0,"mirror":false,"chromatic_density":0.5,"complexity":0.604,"dissonance":0.142},{"voice":0,"pitch":74,"start":91.9999,"duration":0.3333,"velocity":90,"measure":35,"beat":3.0,"subject_pos":-1,"motif":"","motif_pos":-1,"best_pos":3,"similarity":0.65,"stretto":false,"stretto_voices":0,"combination":[],"aug_dim":"","rhythm_ratio":1.0,"mirror":false,"chromatic_density":0.5,"complexity":0.604,"dissonance":0.142},{"voice":2,"pitch":55,"start":91.9999,"duration":0.6667,"velocity":90,"measure":35,"beat":3.0,"subject_pos":-1,"motif":"","motif_pos":-1,"best_pos":4,"similarity":0.4,"stretto":false,"stretto_voices":0,"combination":[],"aug_dim":"","rhythm_ratio":1.0,"mirror":false,"chromatic_density":0.5,"complexity":0.604,"dissonance":0.142},{"voice":3,"pitch":46,"start":91.9999,"duration":0.6667,"velocity":90,"measure":35,"beat":3.0,"subject_pos":-1,"motif":"","motif_pos":-1,"best_pos":5,"similarity":0.621,"stretto":false,"stretto_voices":0,"combination":[],"aug_dim":"","rhythm_ratio":1.0,"mirror":false,"chromatic_density":0.5,"complexity":0.604,"dissonance":0.142},{"voice":0,"pitch":73,"start":92.3332,"duration":0.3333,"velocity":90,"measure":35,"beat":3.5,"subject_pos":-1,"motif":"","motif_pos":-1,"best_pos":4,"similarity":0.7,"stretto":false,"stretto_voices":0,"combination":[],"aug_dim":"","rhythm_ratio":1.0,"mirror":false,"chromatic_density":0.5,"complexity":0.604,"dissonance":0.142},{"voice":0,"pitch":74,"start":92.6666,"duration":1.0,"velocity":90,"measure":35,"beat":4.0,"subject_pos":-1,"motif":"","motif_pos":-1,"best_pos":5,"similarity":0.507,"stretto":false,"stretto_voices":0,"combination":[],"aug_dim":"","rhythm_ratio":1.0,"mirror":false,"chromatic_density":0.5,"complexity":0.604,"dissonance":0.142},{"voice":2,"pitch":56,"start":92.6666,"duration":0.6667,"velocity":90,"measure":35,"beat":4.0,"subject_pos":-1,"motif":"enigmatic_cell","motif_pos":0,"best_pos":0,"similarity":1.0,"stretto":false,"stretto_voices":0,"combination":[],"aug_dim":"","rhythm_ratio":1.0,"mirror":false,"chromatic_density":0.5,"complexity":0.604,"dissonance":0.142},{"voice":3,"pitch":47,"start":92.6666,"duration":0.6667,"velocity":90,"measure":35,"beat":4.0,"subject_pos":-1,"motif":"","motif_pos":-1,"best_pos":5,"similarity":0.625,"stretto":false,"stretto_voices":0,"combination":[],"aug_dim":"","rhythm_ratio":1.0,"mirror":false,"chromatic_density":0.5,"complexity":0.604,"dissonance":0.142},{"voice":1,"pitch":65,"start":92.9999,"duration":0.3333,"velocity":90,"measure":35,"beat":4.5,"subject_pos":-1,"motif":"","motif_pos":-1,"best_pos":3,"similarity":0.614,"stretto":false,"stretto_voices":0,"combination":[],"aug_dim":"","rhythm_ratio":1.0,"mirror":false,"chromatic_density":0.5,"complexity":0.604,"dissonance":0.142},{"voice":1,"pitch":64,"start":93.3332,"duration":0.6667,"velocity":90,"measure":36,"beat":1.0,"subject_pos":-1,"motif":"","motif_pos":-1,"best_pos":4,"similarity":0.586,"stretto":false,"stretto_voices":0,"combination":[],"aug_dim":"","rhythm_ratio":1.0,"mirror":false,"chromatic_density":0.643,"complexity":0.572,"dissonance":0.209},{"voice":2,"pitch":57,"start":93.3332,"duration":0.6667,"velocity":90,"measure":36,"beat":1.0,"subject_pos":-1,"motif":"enigmatic_cell","motif_pos":1,"best_pos":1,"similarity":1.0,"stretto":false,"stretto_voices":0,"combination":[],"aug_dim":"","rhythm_ratio":1.0,"mirror":false,"chromatic_density":0.643,"complexity":0.572,"dissonance":0.209},{"voice":3,"pitch":48,"start":93.3332,"duration":0.6667,"velocity":90,"measure":36,"beat":1.0,"subject_pos":-1,"motif":"","motif_pos":-1,"best_pos":5,"similarity":0.614,"stretto":false,"stretto_voices":0,"combination":[],"aug_dim":"","rhythm_ratio":1.0,"mirror":false,"chromatic_density":0.643,"complexity":0.572,"dissonance":0.209},{"voice":0,"pitch":72,"start":93.6666,"duration":0.3333,"velocity":90,"measure":36,"beat":1.5,"subject_pos":-1,"motif":"","motif_pos":-1,"best_pos":2,"similarity":0.604,"stretto":false,"stretto_voices":0,"combination":[],"aug_dim":"","rhythm_ratio":1.0,"mirror":false,"chromatic_density":0.643,"complexity":0.572,"dissonance":0.209},{"voice":0,"pitch":70,"start":93.9999,"duration":0.3333,"velocity":90,"measure":36,"beat":2.0,"subject_pos":-1,"motif":"","motif_pos":-1,"best_pos":3,"similarity":0.65,"stretto":false,"stretto_voices":0,"combination":[],"aug_dim":"","rhythm_ratio":1.0,"mirror":false,"chromatic_density":0.643,"complexity":0.572,"dissonance":0.209},{"voice":1,"pitch":67,"start":93.9999,"duration":0.6667,"velocity":90,"measure":36,"beat":2.0,"subject_pos":-1,"motif":"","motif_pos":-1,"best_pos":5,"similarity":0.421,"stretto":false,"stretto_voices":0,"combination":[],"aug_dim":"","rhythm_ratio":1.0,"mirror":false,"chromatic_density":0.643,"complexity":0.572,"dissonance":0.209},{"voice":2,"pitch":52,"start":93.9999,"duration":0.6667,"velocity":90,"measure":36,"beat":2.0,"subject_pos":-1,"motif":"enigmatic_cell","motif_pos":2,"best_pos":2,"similarity":1.0,"stretto":false,"stretto_voices":0,"combination":[],"aug_dim":"","rhythm_ratio":1.0,"mirror":false,"chromatic_density":0.643,"complexity":0.572,"dissonance":0.209},{"voice":3,"pitch":49,"start":93.9999,"duration":0.6667,"velocity":90,"measure":36,"beat":2.0,"subject_pos":-1,"motif":"","motif_pos":-1,"best_pos":5,"similarity":0.614,"stretto":false,"stretto_voices":0,"combination":[],"aug_dim":"","rhythm_ratio":1.0,"mirror":false,"chromatic_density":0.643,"complexity":0.572,"dissonance":0.209},{"voice":0,"pitch":69,"start":94.3332,"duration":0.3333,"velocity":90,"measure":36,"beat":2.5,"subject_pos":-1,"motif":"","motif_pos":-1,"best_pos":3,"similarity":0.65,"stretto":false,"stretto_voices":0,"combination":[],"aug_dim":"","rhythm_ratio":1.0,"mirror":false,"chromatic_density":0.643,"complexity":0.572,"dissonance":0.209},{"voice":0,"pitch":68,"start":94.6666,"duration":0.3333,"velocity":90,"measure":36,"beat":3.0,"subject_pos":-1,"motif":"","motif_pos":-1,"best_pos":4,"similarity":0.764,"stretto":false,"stretto_voices":0,"combination":[],"aug_dim":"","rhythm_ratio":1.0,"mirror":false,"chromatic_density":0.643,"complexity":0.572,"dissonance":0.209},{"voice":1,"pitch":65,"start":94.6666,"duration":0.6667,"velocity":90,"measure":36,"beat":3.0,"subject_pos":-1,"motif":"","motif_pos":-1,"best_pos":4,"similarity":0.514,"stretto":false,"stretto_voices":0,"combination":[],"aug_dim":"","rhythm_ratio":1.0,"mirror":false,"chromatic_density":0.643,"complexity":0.572,"dissonance":0.209},{"voice":2,"pitch":59,"start":94.6666,"duration":1.3333,"velocity":90,"measure":36,"beat":3.0,"subject_pos":-1,"motif":"","motif_pos":-1,"best_pos":1,"similarity":0.386,"stretto":false,"stretto_voices":0,"combination":[],"aug_dim":"","rhythm_ratio":1.0,"mirror":false,"chromatic_density":0.643,"complexity":0.572,"dissonance":0.209},{"voice":3,"pitch":50,"start":94.6666,"duration":0.6667,"velocity":90,"measure":36,"beat":3.0,"subject_pos":-1,"motif":"","motif_pos":-1,"best_pos":5,"similarity":0.614,"stretto":false,"stretto_voices":0,"combination":[],"aug_dim":"","rhythm_ratio":1.0,"mirror":false,"chromatic_density":0.643,"complexity":0.572,"dissonance":0.209},{"voice":0,"pitch":69,"start":94.9999,"duration":0.3333,"velocity":90,"measure":36,"beat":3.5,"subject_pos":-1,"motif":"","motif_pos":-1,"best_pos":5,"similarity":0.618,"stretto":false,"stretto_voices":0,"combination":[],"aug_dim":"","rhythm_ratio":1.0,"mirror":false,"chromatic_density":0.643,"complexity":0.572,"dissonance":0.209},{"voice":0,"pitch":68,"start":95.3332,"duration":0.3333,"velocity":90,"measure":36,"beat":4.0,"subject_pos":-1,"motif":"","motif_pos":-1,"best_pos":4,"similarity":0.636,"stretto":false,"stretto_voices":0,"combination":[],"aug_dim":"","rhythm_ratio":1.0,"mirror":false,"chromatic_density":0.643,"complexity":0.572,"dissonance":0.209},{"voice":1,"pitch":66,"start":95.3332,"duration":0.6667,"velocity":90,"measure":36,"beat":4.0,"subject_pos":-1,"motif":"","motif_pos":-1,"best_pos":3,"similarity":0.475,"stretto":false,"stretto_voices":0,"combination":[],"aug_dim":"","rhythm_ratio":1.0,"mirror":false,"chromatic_density":0.643,"complexity":0.572,"dissonance":0.209},{"voice":3,"pitch":51,"start":95.3332,"duration":0.6667,"velocity":90,"measure":36,"beat":4.0,"subject_pos":-1,"motif":"","motif_pos":-1,"best_pos":5,"similarity":0.614,"stretto":false,"stretto_voices":0,"combination":[],"aug_dim":"","rhythm_ratio":1.0,"mirror":false,"chromatic_density":0.643,"complexity":0.572,"dissonance":0.209},{"voice":0,"pitch":69,"start":95.6666,"duration":0.3333,"velocity":90,"measure":36,"beat":4.5,"subject_pos":-1,"motif":"","motif_pos":-1,"best_pos":5,"similarity":0.464,"stretto":false,"stretto_voices":0,"combination":[],"aug_dim":"","rhythm_ratio":1.0,"mirror":false,"chromatic_density":0.643,"complexity":0.572,"dissonance":0.209},{"voice":0,"pitch":68,"start":95.9999,"duration":0.6667,"velocity":90,"measure":37,"beat":1.0,"subject_pos":-1,"motif":"","motif_pos":-1,"best_pos":4,"similarity":0.368,"stretto":false,"stretto_voices":0,"combination":[],"aug_dim":"","rhythm_ratio":1.0,"mirror":false,"chromatic_density":0.273,"complexity":0.526,"dissonance":0.202},{"voice":1,"pitch":64,"start":95.9999,"duration":0.3333,"velocity":90,"measure":37,"beat":1.0,"subject_pos":-1,"motif":"","motif_pos":-1,"best_pos":4,"similarity":0.514,"stretto":false,"stretto_voices":0,"combination":[],"aug_dim":"","rhythm_ratio":1.0,"mirror":false,"chromatic_density":0.273,"complexity":0.526,"dissonance":0.202},{"voice":2,"pitch":60,"start":95.9999,"duration":0.6667,"velocity":90,"measure":37,"beat":1.0,"subject_pos":-1,"motif":"","motif_pos":-1,"best_pos":3,"similarity":0.4,"stretto":false,"stretto_voices":0,"combination":[],"aug_dim":"","rhythm_ratio":1.0,"mirror":false,"chromatic_density":0.273,"complexity":0.526,"dissonance":0.202},{"voice":3,"pitch":52,"start":95.9999,"duration":1.3333,"velocity":90,"measure":37,"beat":1.0,"subject_pos":-1,"motif":"","motif_pos":-1,"best_pos":6,"similarity":0.589,"stretto":false,"stretto_voices":0,"combination":[],"aug_dim":"","rhythm_ratio":1.0,"mirror":false,"chromatic_density":0.273,"complexity":0.526,"dissonance":0.202},{"voice":1,"pitch":66,"start":96.3332,"duration":0.3333,"velocity":90,"measure":37,"beat":1.5,"subject_pos":-1,"motif":"","motif_pos":-1,"best_pos":5,"similarity":0.507,"stretto":false,"stretto_voices":0,"combination":[],"aug_dim":"","rhythm_ratio":1.0,"mirror":false,"chromatic_density":0.273,"complexity":0.526,"dissonance":0.202},{"voice":0,"pitch":76,"start":96.6666,"duration":1.3333,"velocity":90,"measure":37,"beat":2.0,"subject_pos":-1,"motif":"","motif_pos":-1,"best_pos":3,"similarity":0.407,"stretto":false,"stretto_voices":0,"combination":[],"aug_dim":"","rhythm_ratio":1.0,"mirror":false,"chromatic_density":0.273,"complexity":0.526,"dissonance":0.202},{"voice":1,"pitch":68,"start":96.6666,"duration":0.3333,"velocity":90,"measure":37,"beat":2.0,"subject_pos":-1,"motif":"","motif_pos":-1,"best_pos":6,"similarity":0.393,"stretto":false,"stretto_voices":0,"combination":[],"aug_dim":"","rhythm_ratio":1.0,"mirror":false,"chromatic_density":0.273,"complexity":0.526,"dissonance":0.202},{"voice":2,"pitch":59,"start":96.6666,"duration":0.6667,"velocity":90,"measure":37,"beat":2.0,"subject_pos":-1,"motif":"","motif_pos":-1,"best_pos":4,"similarity":0.479,"stretto":false,"stretto_voices":0,"combination":[],"aug_dim":"","rhythm_ratio":1.0,"mirror":false,"chromatic_density":0.273,"complexity":0.526,"dissonance":0.202},{"voice":1,"pitch":64,"start":96.9999,"duration":0.3333,"velocity":90,"measure":37,"beat":2.5,"subject_pos":-1,"motif":"","motif_pos":-1,"best_pos":2,"similarity":0.461,"stretto":false,"stretto_voices":0,"combination":[],"aug_dim":"","rhythm_ratio":1.0,"mirror":false,"chromatic_density":0.273,"complexity":0.526,"dissonance":0.202},{"voice":1,"pitch":69,"start":97.3332,"duration":1.3333,"velocity":90,"measure":37,"beat":3.0,"subject_pos":-1,"motif":"","motif_pos":-1,"best_pos":3,"similarity":0.543,"stretto":false,"stretto_voices":0,"combination":[],"aug_dim":"","rhythm_ratio":1.0,"mirror":false,"chromatic_density":0.273,"complexity":0.526,"dissonance":0.202},{"voice":2,"pitch":57,"start":97.3332,"duration":0.3333,"velocity":90,"measure":37,"beat":3.0,"subject_pos":-1,"motif":"","motif_pos":-1,"best_pos":5,"similarity":0.479,"stretto":false,"stretto_voices":0,"combination":[],"aug_dim":"","rhythm_ratio":1.0,"mirror":false,"chromatic_density":0.273,"complexity":0.526,"dissonance":0.202},{"voice":3,"pitch":53,"start":97.3332,"duration":1.3333,"velocity":90,"measure":37,"beat":3.0,"subject_pos":-1,"motif":"","motif_pos":-1,"best_pos":3,"similarity":0.479,"stretto":false,"stretto_voices":0,"combination":[],"aug_dim":"","rhythm_ratio":1.0,"mirror":false,"chromatic_density":0.273,"complexity":0.526,"dissonance":0.202},{"voice":2,"pitch":59,"start":97.6666,"duration":0.3333,"velocity":90,"measure":37,"beat":3.5,"subject_pos":-1,"motif":"","motif_pos":-1,"best_pos":6,"similarity":0.4,"stretto":false,"stretto_voices":0,"combination":[],"aug_dim":"","rhythm_ratio":1.0,"mirror":false,"chromatic_density":0.273,"complexity":0.526,"dissonance":0.202},{"voice":0,"pitch":75,"start":97.9999,"duration":0.6667,"velocity":90,"measure":37,"beat":4.0,"subject_pos":-1,"motif":"","motif_pos":-1,"best_pos":2,"similarity":0.446,"stretto":false,"stretto_voices":0,"combination":[],"aug_dim":"","rhythm_ratio":1.0,"mirror":false,"chromatic_density":0.273,"complexity":0.526,"dissonance":0.202},{"voice":2,"pitch":57,"start":97.9999,"duration":0.6667,"velocity":90,"measure":37,"beat":4.0,"subject_pos":-1,"motif":"","motif_pos":-1,"best_pos":2,"similarity":0.389,"stretto":false,"stretto_voices":0,"combination":[],"aug_dim":"","rhythm_ratio":1.0,"mirror":false,"chromatic_density":0.273,"complexity":0.526,"dissonance":0.202},{"voice":0,"pitch":74,"start":98.6666,"duration":0.6667,"velocity":90,"measure":38,"beat":1.0,"subject_pos":-1,"motif":"","motif_pos":-1,"best_pos":3,"similarity":0.507,"stretto":false,"stretto_voices":0,"combination":[],"aug_dim":"","rhythm_ratio":1.0,"mirror":false,"chromatic_density":0.5,"complexity":0.562,"dissonance":0.257},{"voice":1,"pitch":68,"start":98.6666,"duration":0.6667,"velocity":90,"measure":38,"beat":1.0,"subject_pos":-1,"motif":"","motif_pos":-1,"best_pos":4,"similarity":0.571,"stretto":false,"stretto_voices":0,"combination":[],"aug_dim":"","rhythm_ratio":1.0,"mirror":false,"chromatic_density":0.5,"complexity":0.562,"dissonance":0.257},{"voice":2,"pitch":64,"start":98.6666,"duration":0.6667,"velocity":90,"measure":38,"beat":1.0,"subject_pos":-1,"motif":"","motif_pos":-1,"best_pos":1,"similarity":0.464,"stretto":false,"stretto_voices":0,"combination":[],"aug_dim":"","rhythm_ratio":1.0,"mirror":false,"chromatic_density":0.5,"complexity":0.562,"dissonance":0.257},{"voice":3,"pitch":52,"start":98.6666,"duration":0.6667,"velocity":90,"measure":38,"beat":1.0,"subject_pos":-1,"motif":"","motif_pos":-1,"best_pos":4,"similarity":0.6,"stretto":false,"stretto_voices":0,"combination":[],"aug_dim":"","rhythm_ratio":1.0,"mirror":false,"chromatic_density":0.5,"complexity":0.562,"dissonance":0.257},{"voice":0,"pitch":73,"start":99.3332,"duration":0.6667,"velocity":90,"measure":38,"beat":2.0,"subject_pos":-1,"motif":"","motif_pos":-1,"best_pos":3,"similarity":0.471,"stretto":false,"stretto_voices":0,"combination":[],"aug_dim":"","rhythm_ratio":1.0,"mirror":false,"chromatic_density":0.5,"complexity":0.562,"dissonance":0.257},{"voice":1,"pitch":67,"start":99.3332,"duration":0.6667,"velocity":90,"measure":38,"beat":2.0,"subject_pos":-1,"motif":"","motif_pos":-1,"best_pos":5,"similarity":0.5,"stretto":false,"stretto_voices":0,"combination":[],"aug_dim":"","rhythm_ratio":1.0,"mirror":false,"chromatic_density":0.5,"complexity":0.562,"dissonance":0.257},{"voice":2,"pitch":64,"start":99.3332,"duration":0.6667,"velocity":90,"measure":38,"beat":2.0,"subject_pos":-1,"motif":"","motif_pos":-1,"best_pos":2,"similarity":0.446,"stretto":false,"stretto_voices":0,"combination":[],"aug_dim":"","rhythm_ratio":1.0,"mirror":false,"chromatic_density":0.5,"complexity":0.562,"dissonance":0.257},{"voice":3,"pitch":52,"start":99.6666,"duration":0.3333,"velocity":90,"measure":38,"beat":2.5,"subject_pos":-1,"motif":"","motif_pos":-1,"best_pos":5,"similarity":0.593,"stretto":false,"stretto_voices":0,"combination":[],"aug_dim":"","rhythm_ratio":1.0,"mirror":false,"chromatic_density":0.5,"complexity":0.562,"dissonance":0.257},{"voice":0,"pitch":72,"start":99.9999,"duration":0.6667,"velocity":90,"measure":38,"beat":3.0,"subject_pos":-1,"motif":"","motif_pos":-1,"best_pos":3,"similarity":0.443,"stretto":false,"stretto_voices":0,"combination":[],"aug_dim":"","rhythm_ratio":1.0,"mirror":false,"chromatic_density":0.5,"complexity":0.562,"dissonance":0.257},{"voice":1,"pitch":69,"start":99.9999,"duration":0.6667,"velocity":90,"measure":38,"beat":3.0,"subject_pos":-1,"motif":"","motif_pos":-1,"best_pos":6,"similarity":0.393,"stretto":false,"stretto_voices":0,"combination":[],"aug_dim":"","rhythm_ratio":1.0,"mirror":false,"chromatic_density":0.5,"complexity":0.562,"dissonance":0.257},{"voice":2,"pitch":63,"start":99.9999,"duration":0.6667,"velocity":90,"measure":38,"beat":3.0,"subject_pos":-1,"motif":"","motif_pos":-1,"best_pos":3,"similarity":0.518,"stretto":false,"stretto_voices":0,"combination":[],"aug_dim":"","rhythm_ratio":1.0,"mirror":false,"chromatic_density":0.5,"complexity":0.562,"dissonance":0.257},{"voice":3,"pitch":54,"start":99.9999,"duration":0.3333,"velocity":90,"measure":38,"beat":3.0,"subject_pos":-1,"motif":"","motif_pos":-1,"best_pos":6,"similarity":0.457,"stretto":false,"stretto_voices":0,"combination":[],"aug_dim":"","rhythm_ratio":1.0,"mirror":false,"chromatic_density":0.5,"complexity":0.562,"dissonance":0.257},{"voice":3,"pitch":52,"start":100.3332,"duration":0.3333,"velocity":90,"measure":38,"beat":3.5,"subject_pos":-1,"motif":"","motif_pos":-1,"best_pos":4,"similarity":0.518,"stretto":false,"stretto_voices":0,"combination":[],"aug_dim":"","rhythm_ratio":1.0,"mirror":false,"chromatic_density":0.5,"complexity":0.562,"dissonance":0.257},{"voice":0,"pitch":71,"start":100.6666,"duration":1.0,"velocity":90,"measure":38,"beat":4.0,"subject_pos":-1,"motif":"","motif_pos":-1,"best_pos":4,"similarity":0.386,"stretto":false,"stretto_voices":0,"combination":[],"aug_dim":"","rhythm_ratio":1.0,"mirror":false,"chromatic_density":0.5,"complexity":0.562,"dissonance":0.257},{"voice":1,"pitch":64,"start":100.6666,"duration":1.3333,"velocity":90,"measure":38,"beat":4.0,"subject_pos":-1,"motif":"","motif_pos":-1,"best_pos":0,"similarity":0.375,"stretto":false,"stretto_voices":0,"combination":[],"aug_dim":"","rhythm_ratio":1.0,"mirror":false,"chromatic_density":0.5,"complexity":0.562,"dissonance":0.257},{"voice":2,"pitch":62,"start":100.6666,"duration":0.6667,"velocity":90,"measure":38,"beat":4.0,"subject_pos":-1,"motif":"","motif_pos":-1,"best_pos":4,"similarity":0.464,"stretto":false,"stretto_voices":0,"combination":[],"aug_dim":"","rhythm_ratio":1.0,"mirror":false,"chromatic_density":0.5,"complexity":0.562,"dissonance":0.257},{"voice":3,"pitch":54,"start":100.6666,"duration":0.3333,"velocity":90,"measure":38,"beat":4.0,"subject_pos":-1,"motif":"","motif_pos":-1,"best_pos":5,"similarity":0.643,"stretto":false,"stretto_voices":0,"combination":[],"aug_dim":"","rhythm_ratio":1.0,"mirror":false,"chromatic_density":0.5,"complexity":0.562,"dissonance":0.257},{"voice":3,"pitch":56,"start":100.9999,"duration":0.3333,"velocity":90,"measure":38,"beat":4.5,"subject_pos":-1,"motif":"enigmatic_cell","motif_pos":0,"best_pos":0,"similarity":1.0,"stretto":false,"stretto_voices":0,"combination":[],"aug_dim":"","rhythm_ratio":1.0,"mirror":false,"chromatic_density":0.5,"complexity":0.562,"dissonance":0.257},{"voice":2,"pitch":61,"start":101.3332,"duration":0.6667,"velocity":90,"measure":39,"beat":1.0,"subject_pos":-1,"motif":"","motif_pos":-1,"best_pos":4,"similarity":0.407,"stretto":false,"stretto_voices":0,"combination":[],"aug_dim":"","rhythm_ratio":1.0,"mirror":false,"chromatic_density":0.333,"complexity":0.558,"dissonance":0.118},{"voice":3,"pitch":57,"start":101.3332,"duration":0.6667,"velocity":90,"measure":39,"beat":1.0,"subject_pos":-1,"motif":"enigmatic_cell","motif_pos":1,"best_pos":1,"similarity":1.0,"stretto":false,"stretto_voices":0,"combination":[],"aug_dim":"","rhythm_ratio":1.0,"mirror":false,"chromatic_density":0.333,"complexity":0.558,"dissonance":0.118},{"voice":0,"pitch":69,"start":101.6666,"duration":0.3333,"velocity":90,"measure":39,"beat":1.5,"subject_pos":-1,"motif":"","motif_pos":-1,"best_pos":2,"similarity":0.293,"stretto":false,"stretto_voices":0,"combination":[],"aug_dim":"","rhythm_ratio":1.0,"mirror":false,"chromatic_density":0.333,"complexity":0.558,"dissonance":0.118},{"voice":1,"pitch":69,"start":101.9999,"duration":0.6667,"velocity":90,"measure":39,"beat":2.0,"subject_pos":-1,"motif":"","motif_pos":-1,"best_pos":1,"similarity":0.5,"stretto":false,"stretto_voices":0,"combination":[],"aug_dim":"","rhythm_ratio":1.0,"mirror":false,"chromatic_density":0.333,"complexity":0.558,"dissonance":0.118},{"voice":2,"pitch":65,"start":101.9999,"duration":1.3333,"velocity":90,"measure":39,"beat":2.0,"subject_pos":-1,"motif":"","motif_pos":-1,"best_pos":3,"similarity":0.371,"stretto":false,"stretto_voices":0,"combination":[],"aug_dim":"","rhythm_ratio":1.0,"mirror":false,"chromatic_density":0.333,"complexity":0.558,"dissonance":0.118},{"voice":0,"pitch":81,"start":102.3332,"duration":0.3333,"velocity":90,"measure":39,"beat":2.5,"subject_pos":-1,"motif":"","motif_pos":-1,"best_pos":3,"similarity":0.229,"stretto":false,"stretto_voices":0,"combination":[],"aug_dim":"","rhythm_ratio":1.0,"mirror":false,"chromatic_density":0.333,"complexity":0.558,"dissonance":0.118},{"voice":0,"pitch":71,"start":102.6666,"duration":0.3333,"velocity":90,"measure":39,"beat":3.0,"subject_pos":-1,"motif":"","motif_pos":-1,"best_pos":1,"similarity":0.293,"stretto":false,"stretto_voices":0,"combination":[],"aug_dim":"","rhythm_ratio":1.0,"mirror":false,"chromatic_density":0.333,"complexity":0.558,"dissonance":0.118},{"voice":1,"pitch":68,"start":102.6666,"duration":0.6667,"velocity":90,"measure":39,"beat":3.0,"subject_pos":-1,"motif":"","motif_pos":-1,"best_pos":2,"similarity":0.436,"stretto":false,"stretto_voices":0,"combination":[],"aug_dim":"","rhythm_ratio":1.0,"mirror":false,"chromatic_density":0.333,"complexity":0.558,"dissonance":0.118},{"voice":0,"pitch":69,"start":102.9999,"duration":0.3333,"velocity":90,"measure":39,"beat":3.5,"subject_pos":-1,"motif":"","motif_pos":-1,"best_pos":4,"similarity":0.5,"stretto":false,"stretto_voices":0,"combination":[],"aug_dim":"","rhythm_ratio":1.0,"mirror":false,"chromatic_density":0.333,"complexity":0.558,"dissonance":0.118},{"voice":0,"pitch":71,"start":103.3332,"duration":0.3333,"velocity":90,"measure":39,"beat":4.0,"subject_pos":-1,"motif":"","motif_pos":-1,"best_pos":5,"similarity":0.643,"stretto":false,"stretto_voices":0,"combination":[],"aug_dim":"","rhythm_ratio":1.0,"mirror":false,"chromatic_density":0.333,"complexity":0.558,"dissonance":0.118},{"voice":1,"pitch":67,"start":103.3332,"duration":1.0,"velocity":90,"measure":39,"beat":4.0,"subject_pos":-1,"motif":"","motif_pos":-1,"best_pos":4,"similarity":0.382,"stretto":false,"stretto_voices":0,"combination":[],"aug_dim":"","rhythm_ratio":1.0,"mirror":false,"chromatic_density":0.333,"complexity":0.558,"dissonance":0.118},{"voice":2,"pitch":64,"start":103.3332,"duration":0.6667,"velocity":90,"measure":39,"beat":4.0,"subject_pos":-1,"motif":"","motif_pos":-1,"best_pos":2,"similarity":0.393,"stretto":false,"stretto_voices":0,"combination":[],"aug_dim":"","rhythm_ratio":1.0,"mirror":false,"chromatic_density":0.333,"complexity":0.558,"dissonance":0.118},{"voice":0,"pitch":73,"start":103.6666,"duration":0.3333,"velocity":90,"measure":39,"beat":4.5,"subject_pos":-1,"motif":"","motif_pos":-1,"best_pos":6,"similarity":0.679,"stretto":false,"stretto_voices":0,"combination":[],"aug_dim":"","rhythm_ratio":1.0,"mirror":false,"chromatic_density":0.333,"complexity":0.558,"dissonance":0.118},{"voice":0,"pitch":74,"start":103.9999,"duration":0.6667,"velocity":90,"measure":40,"beat":1.0,"subject_pos":-1,"motif":"","motif_pos":-1,"best_pos":7,"similarity":0.464,"stretto":false,"stretto_voices":0,"combination":[],"aug_dim":"","rhythm_ratio":1.0,"mirror":false,"chromatic_density":0.375,"complexity":0.569,"dissonance":0.155},{"voice":2,"pitch":62,"start":103.9999,"duration":0.6667,"velocity":90,"measure":40,"beat":1.0,"subject_pos":-1,"motif":"","motif_pos":-1,"best_pos":2,"similarity":0.336,"stretto":false,"stretto_voices":0,"combination":[],"aug_dim":"","rhythm_ratio":1.0,"mirror":false,"chromatic_density":0.375,"complexity":0.569,"dissonance":0.155},{"voice":1,"pitch":65,"start":104.3332,"duration":0.3333,"velocity":90,"measure":40,"beat":1.5,"subject_pos":-1,"motif":"","motif_pos":-1,"best_pos":2,"similarity":0.436,"stretto":false,"stretto_voices":0,"combination":[],"aug_dim":"","rhythm_ratio":1.0,"mirror":false,"chromatic_density":0.375,"complexity":0.569,"dissonance":0.155},{"voice":1,"pitch":70,"start":104.6666,"duration":1.3333,"velocity":90,"measure":40,"beat":2.0,"subject_pos":-1,"motif":"enigmatic_cell","motif_pos":0,"best_pos":0,"similarity":1.0,"stretto":false,"stretto_voices":0,"combination":[],"aug_dim":"","rhythm_ratio":1.0,"mirror":false,"chromatic_density":0.375,"complexity":0.569,"dissonance":0.155},{"voice":3,"pitch":50,"start":104.6666,"duration":0.6667,"velocity":90,"measure":40,"beat":2.0,"subject_pos":-1,"motif":"enigmatic_cell","motif_pos":2,"best_pos":2,"similarity":1.0,"stretto":false,"stretto_voices":0,"combination":[],"aug_dim":"","rhythm_ratio":1.0,"mirror":false,"chromatic_density":0.375,"complexity":0.569,"dissonance":0.155},{"voice":0,"pitch":74,"start":104.9999,"duration":0.3333,"velocity":90,"measure":40,"beat":2.5,"subject_pos":-1,"motif":"","motif_pos":-1,"best_pos":5,"similarity":0.479,"stretto":false,"stretto_voices":0,"combination":[],"aug_dim":"","rhythm_ratio":1.0,"mirror":false,"chromatic_density":0.375,"complexity":0.569,"dissonance":0.155},{"voice":0,"pitch":76,"start":105.3332,"duration":0.3333,"velocity":90,"measure":40,"beat":3.0,"subject_pos":-1,"motif":"","motif_pos":-1,"best_pos":6,"similarity":0.404,"stretto":false,"stretto_voices":0,"combination":[],"aug_dim":"","rhythm_ratio":1.0,"mirror":false,"chromatic_density":0.375,"complexity":0.569,"dissonance":0.155},{"voice":3,"pitch":49,"start":105.3332,"duration":0.6667,"velocity":90,"measure":40,"beat":3.0,"subject_pos":-1,"motif":"","motif_pos":-1,"best_pos":3,"similarity":0.421,"stretto":false,"stretto_voices":0,"combination":[],"aug_dim":"","rhythm_ratio":1.0,"mirror":false,"chromatic_density":0.375,"complexity":0.569,"dissonance":0.155},{"voice":0,"pitch":74,"start":105.6666,"duration":0.3333,"velocity":90,"measure":40,"beat":3.5,"subject_pos":-1,"motif":"","motif_pos":-1,"best_pos":4,"similarity":0.518,"stretto":false,"stretto_voices":0,"combination":[],"aug_dim":"","rhythm_ratio":1.0,"mirror":false,"chromatic_density":0.375,"complexity":0.569,"dissonance":0.155},{"voice":0,"pitch":76,"start":105.9999,"duration":0.3333,"velocity":90,"measure":40,"beat":4.0,"subject_pos":-1,"motif":"","motif_pos":-1,"best_pos":5,"similarity":0.643,"stretto":false,"stretto_voices":0,"combination":[],"aug_dim":"","rhythm_ratio":1.0,"mirror":false,"chromatic_density":0.375,"complexity":0.569,"dissonance":0.155},{"voice":1,"pitch":69,"start":105.9999,"duration":0.6667,"velocity":90,"measure":40,"beat":4.0,"subject_pos":-1,"motif":"enigmatic_cell","motif_pos":1,"best_pos":1,"similarity":1.0,"stretto":false,"stretto_voices":0,"combination":[],"aug_dim":"","rhythm_ratio":1.0,"mirror":false,"chromatic_density":0.375,"complexity":0.569,"dissonance":0.155},{"voice":3,"pitch":48,"start":105.9999,"duration":0.6667,"velocity":90,"measure":40,"beat":4.0,"subject_pos":-1,"motif":"enigmatic_cell","motif_pos":0,"best_pos":0,"similarity":1.0,"stretto":false,"stretto_voices":0,"combination":[],"aug_dim":"","rhythm_ratio":1.0,"mirror":false,"chromatic_density":0.375,"complexity":0.569,"dissonance":0.155},{"voice":0,"pitch":78,"start":106.3332,"duration":0.3333,"velocity":90,"measure":40,"beat":4.5,"subject_pos":-1,"motif":"","motif_pos":-1,"best_pos":6,"similarity":0.679,"stretto":false,"stretto_voices":0,"combination":[],"aug_dim":"","rhythm_ratio":1.0,"mirror":false,"chromatic_density":0.375,"complexity":0.569,"dissonance":0.155},{"voice":0,"pitch":79,"start":106.6666,"duration":0.3333,"velocity":90,"measure":41,"beat":1.0,"subject_pos":-1,"motif":"","motif_pos":-1,"best_pos":7,"similarity":0.464,"stretto":false,"stretto_voices":0,"combination":[],"aug_dim":"","rhythm_ratio":1.0,"mirror":false,"chromatic_density":0.286,"complexity":0.59,"dissonance":0.092},{"voice":1,"pitch":74,"start":106.6666,"duration":0.6667,"velocity":90,"measure":41,"beat":1.0,"subject_pos":-1,"motif":"enigmatic_cell","motif_pos":2,"best_pos":2,"similarity":1.0,"stretto":false,"stretto_voices":0,"combination":[],"aug_dim":"","rhythm_ratio":1.0,"mirror":false,"chromatic_density":0.286,"complexity":0.59,"dissonance":0.092},{"voice":3,"pitch":47,"start":106.6666,"duration":0.6667,"velocity":90,"measure":41,"beat":1.0,"subject_pos":-1,"motif":"enigmatic_cell","motif_pos":1,"best_pos":1,"similarity":1.0,"stretto":false,"stretto_voices":0,"combination":[],"aug_dim":"","rhythm_ratio":1.0,"mirror":false,"chromatic_density":0.286,"complexity":0.59,"dissonance":0.092},{"voice":0,"pitch":67,"start":106.9999,"duration":0.3333,"velocity":90,"measure":41,"beat":1.5,"subject_pos":-1,"motif":"","motif_pos":-1,"best_pos":2,"similarity":0.175,"stretto":false,"stretto_voices":0,"combination":[],"aug_dim":"","rhythm_ratio":1.0,"mirror":false,"chromatic_density":0.286,"complexity":0.59,"dissonance":0.092},{"voice":0,"pitch":79,"start":107.3332,"duration":0.6667,"velocity":90,"measure":41,"beat":2.0,"subject_pos":-1,"motif":"","motif_pos":-1,"best_pos":3,"similarity":0.329,"stretto":false,"stretto_voices":0,"combination":[],"aug_dim":"","rhythm_ratio":1.0,"mirror":false,"chromatic_density":0.286,"complexity":0.59,"dissonance":0.092},{"voice":1,"pitch":72,"start":107.3332,"duration":0.3333,"velocity":90,"measure":41,"beat":2.0,"subject_pos":-1,"motif":"","motif_pos":-1,"best_pos":3,"similarity":0.643,"stretto":false,"stretto_voices":0,"combination":[],"aug_dim":"","rhythm_ratio":1.0,"mirror":false,"chromatic_density":0.286,"complexity":0.59,"dissonance":0.092},{"voice":3,"pitch":52,"start":107.3332,"duration":1.3333,"velocity":90,"measure":41,"beat":2.0,"subject_pos":-1,"motif":"enigmatic_cell","motif_pos":2,"best_pos":2,"similarity":1.0,"stretto":false,"stretto_voices":0,"combination":[],"aug_dim":"","rhythm_ratio":1.0,"mirror":false,"chromatic_density":0.286,"complexity":0.59,"dissonance":0.092},{"voice":1,"pitch":71,"start":107.6666,"duration":0.3333,"velocity":90,"measure":41,"beat":2.5,"subject_pos":-1,"motif":"","motif_pos":-1,"best_pos":4,"similarity":0.786,"stretto":false,"stretto_voices":0,"combination":[],"aug_dim":"","rhythm_ratio":1.0,"mirror":false,"chromatic_density":0.286,"complexity":0.59,"dissonance":0.092},{"voice":2,"pitch":55,"start":107.6666,"duration":0.3333,"velocity":90,"measure":41,"beat":2.5,"subject_pos":-1,"motif":"","motif_pos":-1,"best_pos":5,"similarity":0.389,"stretto":false,"stretto_voices":0,"combination":[],"aug_dim":"","rhythm_ratio":1.0,"mirror":false,"chromatic_density":0.286,"complexity":0.59,"dissonance":0.092},{"voice":0,"pitch":78,"start":107.9999,"duration":0.6667,"velocity":90,"measure":41,"beat":3.0,"subject_pos":-1,"motif":"","motif_pos":-1,"best_pos":3,"similarity":0.443,"stretto":false,"stretto_voices":0,"combination":[],"aug_dim":"","rhythm_ratio":1.0,"mirror":false,"chromatic_density":0.286,"complexity":0.59,"dissonance":0.092},{"voice":1,"pitch":72,"start":107.9999,"duration":0.6667,"velocity":90,"measure":41,"beat":3.0,"subject_pos":-1,"motif":"","motif_pos":-1,"best_pos":5,"similarity":0.75,"stretto":false,"stretto_voices":0,"combination":[],"aug_dim":"","rhythm_ratio":1.0,"mirror":false,"chromatic_density":0.286,"complexity":0.59,"dissonance":0.092},{"voice":2,"pitch":57,"start":107.9999,"duration":0.3333,"velocity":90,"measure":41,"beat":3.0,"subject_pos":-1,"motif":"","motif_pos":-1,"best_pos":6,"similarity":0.35,"stretto":false,"stretto_voices":0,"combination":[],"aug_dim":"","rhythm_ratio":1.0,"mirror":false,"chromatic_density":0.286,"complexity":0.59,"dissonance":0.092},{"voice":2,"pitch":55,"start":108.3332,"duration":0.3333,"velocity":90,"measure":41,"beat":3.5,"subject_pos":-1,"motif":"","motif_pos":-1,"best_pos":4,"similarity":0.507,"stretto":false,"stretto_voices":0,"combination":[],"aug_dim":"","rhythm_ratio":1.0,"mirror":false,"chromatic_density":0.286,"complexity":0.59,"dissonance":0.092},{"voice":0,"pitch":77,"start":108.6666,"duration":1.0,"velocity":90,"measure":41,"beat":4.0,"subject_pos":-1,"motif":"","motif_pos":-1,"best_pos":4,"similarity":0.564,"stretto":false,"stretto_voices":0,"combination":[],"aug_dim":"","rhythm_ratio":1.0,"mirror":false,"chromatic_density":0.286,"complexity":0.59,"dissonance":0.092},{"voice":1,"pitch":74,"start":108.6666,"duration":0.6667,"velocity":90,"measure":41,"beat":4.0,"subject_pos":-1,"motif":"","motif_pos":-1,"best_pos":6,"similarity":0.5,"stretto":false,"stretto_voices":0,"combination":[],"aug_dim":"","rhythm_ratio":1.0,"mirror":false,"chromatic_density":0.286,"complexity":0.59,"dissonance":0.092},{"voice":2,"pitch":57,"start":108.6666,"duration":0.3333,"velocity":90,"measure":41,"beat":4.0,"subject_pos":-1,"motif":"","motif_pos":-1,"best_pos":5,"similarity":0.643,"stretto":false,"stretto_voices":0,"combination":[],"aug_dim":"","rhythm_ratio":1.0,"mirror":false,"chromatic_density":0.286,"complexity":0.59,"dissonance":0.092},{"voice":3,"pitch":50,"start":108.6666,"duration":0.6667,"velocity":90,"measure":41,"beat":4.0,"subject_pos":-1,"motif":"","motif_pos":-1,"best_pos":2,"similarity":0.679,"stretto":false,"stretto_voices":0,"combination":[],"aug_dim":"","rhythm_ratio":1.0,"mirror":false,"chromatic_density":0.286,"complexity":0.59,"dissonance":0.092},{"voice":2,"pitch":59,"start":108.9999,"duration":0.3333,"velocity":90,"measure":41,"beat":4.5,"subject_pos":-1,"motif":"","motif_pos":-1,"best_pos":6,"similarity":0.679,"stretto":false,"stretto_voices":0,"combination":[],"aug_dim":"","rhythm_ratio":1.0,"mirror":false,"chromatic_density":0.286,"complexity":0.59,"dissonance":0.092},{"voice":1,"pitch":67,"start":109.3332,"duration":0.6667,"velocity":90,"measure":42,"beat":1.0,"subject_pos":-1,"motif":"","motif_pos":-1,"best_pos":0,"similarity":0.375,"stretto":false,"stretto_voices":0,"combination":[],"aug_dim":"","rhythm_ratio":1.0,"mirror":false,"chromatic_density":0.3,"complexity":0.521,"dissonance":0.173},{"voice":2,"pitch":60,"start":109.3332,"duration":0.6667,"velocity":90,"measure":42,"beat":1.0,"subject_pos":-1,"motif":"","motif_pos":-1,"best_pos":7,"similarity":0.464,"stretto":false,"stretto_voices":0,"combination":[],"aug_dim":"","rhythm_ratio":1.0,"mirror":false,"chromatic_density":0.3,"complexity":0.521,"dissonance":0.173},{"voice":3,"pitch":48,"start":109.3332,"duration":0.6667,"velocity":90,"measure":42,"beat":1.0,"subject_pos":-1,"motif":"","motif_pos":-1,"best_pos":3,"similarity":0.579,"stretto":false,"stretto_voices":0,"combination":[],"aug_dim":"","rhythm_ratio":1.0,"mirror":false,"chromatic_density":0.3,"complexity":0.521,"dissonance":0.173},{"voice":0,"pitch":74,"start":109.6666,"duration":0.3333,"velocity":90,"measure":42,"beat":1.5,"subject_pos":-1,"motif":"","motif_pos":-1,"best_pos":5,"similarity":0.618,"stretto":false,"stretto_voices":0,"combination":[],"aug_dim":"","rhythm_ratio":1.0,"mirror":false,"chromatic_density":0.3,"complexity":0.521,"dissonance":0.173},{"voice":0,"pitch":76,"start":109.9999,"duration":0.6667,"velocity":90,"measure":42,"beat":2.0,"subject_pos":-1,"motif":"","motif_pos":-1,"best_pos":6,"similarity":0.657,"stretto":false,"stretto_voices":0,"combination":[],"aug_dim":"","rhythm_ratio":1.0,"mirror":false,"chromatic_density":0.3,"complexity":0.521,"dissonance":0.173},{"voice":1,"pitch":72,"start":109.9999,"duration":0.6667,"velocity":90,"measure":42,"beat":2.0,"subject_pos":-1,"motif":"","motif_pos":-1,"best_pos":1,"similarity":0.536,"stretto":false,"stretto_voices":0,"combination":[],"aug_dim":"","rhythm_ratio":1.0,"mirror":false,"chromatic_density":0.3,"complexity":0.521,"dissonance":0.173},{"voice":3,"pitch":48,"start":110.3332,"duration":0.3333,"velocity":90,"measure":42,"beat":2.5,"subject_pos":-1,"motif":"","motif_pos":-1,"best_pos":5,"similarity":0.55,"stretto":false,"stretto_voices":0,"combination":[],"aug_dim":"","rhythm_ratio":1.0,"mirror":false,"chromatic_density":0.3,"complexity":0.521,"dissonance":0.173},{"voice":0,"pitch":77,"start":110.6666,"duration":0.6667,"velocity":90,"measure":42,"beat":3.0,"subject_pos":-1,"motif":"","motif_pos":-1,"best_pos":5,"similarity":0.657,"stretto":false,"stretto_voices":0,"combination":[],"aug_dim":"","rhythm_ratio":1.0,"mirror":false,"chromatic_density":0.3,"complexity":0.521,"dissonance":0.173},{"voice":1,"pitch":71,"start":110.6666,"duration":0.6667,"velocity":90,"measure":42,"beat":3.0,"subject_pos":-1,"motif":"","motif_pos":-1,"best_pos":2,"similarity":0.507,"stretto":false,"stretto_voices":0,"combination":[],"aug_dim":"","rhythm_ratio":1.0,"mirror":false,"chromatic_density":0.3,"complexity":0.521,"dissonance":0.173},{"voice":3,"pitch":50,"start":110.6666,"duration":0.3333,"velocity":90,"measure":42,"beat":3.0,"subject_pos":-1,"motif":"","motif_pos":-1,"best_pos":6,"similarity":0.421,"stretto":false,"stretto_voices":0,"combination":[],"aug_dim":"","rhythm_ratio":1.0,"mirror":false,"chromatic_density":0.3,"complexity":0.521,"dissonance":0.173},{"voice":3,"pitch":48,"start":110.9999,"duration":0.3333,"velocity":90,"measure":42,"beat":3.5,"subject_pos":-1,"motif":"","motif_pos":-1,"best_pos":4,"similarity":0.518,"stretto":false,"stretto_voices":0,"combination":[],"aug_dim":"","rhythm_ratio":1.0,"mirror":false,"chromatic_density":0.3,"complexity":0.521,"dissonance":0.173},{"voice":0,"pitch":79,"start":111.3332,"duration":0.6667,"velocity":90,"measure":42,"beat":4.0,"subject_pos":-1,"motif":"","motif_pos":-1,"best_pos":6,"similarity":0.436,"stretto":false,"stretto_voices":0,"combination":[],"aug_dim":"","rhythm_ratio":1.0,"mirror":false,"chromatic_density":0.3,"complexity":0.521,"dissonance":0.173},{"voice":1,"pitch":70,"start":111.3332,"duration":1.0,"velocity":90,"measure":42,"beat":4.0,"subject_pos":-1,"motif":"enigmatic_cell","motif_pos":0,"best_pos":0,"similarity":1.0,"stretto":false,"stretto_voices":0,"combination":[],"aug_dim":"","rhythm_ratio":1.0,"mirror":false,"chromatic_density":0.3,"complexity":0.521,"dissonance":0.173},{"voice":3,"pitch":50,"start":111.3332,"duration":0.3333,"velocity":90,"measure":42,"beat":4.0,"subject_pos":-1,"motif":"","motif_pos":-1,"best_pos":5,"similarity":0.643,"stretto":false,"stretto_voices":0,"combination":[],"aug_dim":"","rhythm_ratio":1.0,"mirror":false,"chromatic_density":0.3,"complexity":0.521,"dissonance":0.173},{"voice":3,"pitch":52,"start":111.6666,"duration":0.3333,"velocity":90,"measure":42,"beat":4.5,"subject_pos":-1,"motif":"","motif_pos":-1,"best_pos":6,"similarity":0.679,"stretto":false,"stretto_voices":0,"combination":[],"aug_dim":"","rhythm_ratio":1.0,"mirror":false,"chromatic_density":0.3,"complexity":0.521,"dissonance":0.173},{"voice":0,"pitch":72,"start":111.9999,"duration":0.6667,"velocity":90,"measure":43,"beat":1.0,"subject_pos":-1,"motif":"","motif_pos":-1,"best_pos":0,"similarity":0.375,"stretto":false,"stretto_voices":0,"combination":[],"aug_dim":"","rhythm_ratio":1.0,"mirror":false,"chromatic_density":0.429,"complexity":0.549,"dissonance":0.175},{"voice":3,"pitch":53,"start":111.9999,"duration":0.3333,"velocity":90,"measure":43,"beat":1.0,"subject_pos":-1,"motif":"","motif_pos":-1,"best_pos":3,"similarity":0.55,"stretto":false,"stretto_voices":0,"combination":[],"aug_dim":"","rhythm_ratio":1.0,"mirror":false,"chromatic_density":0.429,"complexity":0.549,"dissonance":0.175},{"voice":1,"pitch":69,"start":112.3332,"duration":0.3333,"velocity":90,"measure":43,"beat":1.5,"subject_pos":-1,"motif":"enigmatic_cell","motif_pos":1,"best_pos":1,"similarity":1.0,"stretto":false,"stretto_voices":0,"combination":[],"aug_dim":"","rhythm_ratio":1.0,"mirror":false,"chromatic_density":0.429,"complexity":0.549,"dissonance":0.175},{"voice":3,"pitch":52,"start":112.3332,"duration":0.3333,"velocity":90,"measure":43,"beat":1.5,"subject_pos":-1,"motif":"","motif_pos":-1,"best_pos":4,"similarity":0.771,"stretto":false,"stretto_voices":0,"combination":[],"aug_dim":"","rhythm_ratio":1.0,"mirror":false,"chromatic_density":0.429,"complexity":0.549,"dissonance":0.175},{"voice":0,"pitch":77,"start":112.6666,"duration":0.6667,"velocity":90,"measure":43,"beat":2.0,"subject_pos":-1,"motif":"","motif_pos":-1,"best_pos":1,"similarity":0.536,"stretto":false,"stretto_voices":0,"combination":[],"aug_dim":"","rhythm_ratio":1.0,"mirror":false,"chromatic_density":0.429,"complexity":0.549,"dissonance":0.175},{"voice":1,"pitch":74,"start":112.6666,"duration":0.8333,"velocity":90,"measure":43,"beat":2.0,"subject_pos":-1,"motif":"enigmatic_cell","motif_pos":2,"best_pos":2,"similarity":1.0,"stretto":false,"stretto_voices":0,"combination":[],"aug_dim":"","rhythm_ratio":1.0,"mirror":false,"chromatic_density":0.429,"complexity":0.549,"dissonance":0.175},{"voice":3,"pitch":53,"start":112.6666,"duration":0.3333,"velocity":90,"measure":43,"beat":2.0,"subject_pos":-1,"motif":"","motif_pos":-1,"best_pos":5,"similarity":0.793,"stretto":false,"stretto_voices":0,"combination":[],"aug_dim":"","rhythm_ratio":1.0,"mirror":false,"chromatic_density":0.429,"complexity":0.549,"dissonance":0.175},{"voice":3,"pitch":55,"start":112.9999,"duration":0.3333,"velocity":90,"measure":43,"beat":2.5,"subject_pos":-1,"motif":"","motif_pos":-1,"best_pos":6,"similarity":0.643,"stretto":false,"stretto_voices":0,"combination":[],"aug_dim":"","rhythm_ratio":1.0,"mirror":false,"chromatic_density":0.429,"complexity":0.549,"dissonance":0.175},{"voice":0,"pitch":76,"start":113.3332,"duration":0.6667,"velocity":90,"measure":43,"beat":3.0,"subject_pos":-1,"motif":"","motif_pos":-1,"best_pos":2,"similarity":0.507,"stretto":false,"stretto_voices":0,"combination":[],"aug_dim":"","rhythm_ratio":1.0,"mirror":false,"chromatic_density":0.429,"complexity":0.549,"dissonance":0.175},{"voice":3,"pitch":57,"start":113.3332,"duration":0.6667,"velocity":90,"measure":43,"beat":3.0,"subject_pos":-1,"motif":"","motif_pos":-1,"best_pos":6,"similarity":0.375,"stretto":false,"stretto_voices":0,"combination":[],"aug_dim":"","rhythm_ratio":1.0,"mirror":false,"chromatic_density":0.429,"complexity":0.549,"dissonance":0.175},{"voice":1,"pitch":72,"start":113.4999,"duration":0.1667,"velocity":90,"measure":43,"beat":3.25,"subject_pos":-1,"motif":"","motif_pos":-1,"best_pos":2,"similarity":0.721,"stretto":false,"stretto_voices":0,"combination":[],"aug_dim":"","rhythm_ratio":1.0,"mirror":false,"chromatic_density":0.429,"complexity":0.549,"dissonance":0.175},{"voice":1,"pitch":70,"start":113.6666,"duration":0.1667,"velocity":90,"measure":43,"beat":3.5,"subject_pos":-1,"motif":"","motif_pos":-1,"best_pos":3,"similarity":0.664,"stretto":false,"stretto_voices":0,"combination":[],"aug_dim":"","rhythm_ratio":1.0,"mirror":false,"chromatic_density":0.429,"complexity":0.549,"dissonance":0.175},{"voice":1,"pitch":69,"start":113.8332,"duration":0.1667,"velocity":90,"measure":43,"beat":3.75,"subject_pos":-1,"motif":"","motif_pos":-1,"best_pos":4,"similarity":0.543,"stretto":false,"stretto_voices":0,"combination":[],"aug_dim":"","rhythm_ratio":1.0,"mirror":false,"chromatic_density":0.429,"complexity":0.549,"dissonance":0.175},{"voice":0,"pitch":75,"start":113.9999,"duration":1.0,"velocity":90,"measure":43,"beat":4.0,"subject_pos":-1,"motif":"","motif_pos":-1,"best_pos":3,"similarity":0.521,"stretto":false,"stretto_voices":0,"combination":[],"aug_dim":"","rhythm_ratio":1.0,"mirror":false,"chromatic_density":0.429,"complexity":0.549,"dissonance":0.175},{"voice":1,"pitch":67,"start":113.9999,"duration":0.3333,"velocity":90,"measure":43,"beat":4.0,"subject_pos":-1,"motif":"","motif_pos":-1,"best_pos":3,"similarity":0.679,"stretto":false,"stretto_voices":0,"combination":[],"aug_dim":"","rhythm_ratio":1.0,"mirror":false,"chromatic_density":0.429,"complexity":0.549,"dissonance":0.175},{"voice":3,"pitch":45,"start":113.9999,"duration":0.6667,"velocity":90,"measure":43,"beat":4.0,"subject_pos":-1,"motif":"enigmatic_cell","motif_pos":0,"best_pos":0,"similarity":1.0,"stretto":false,"stretto_voices":0,"combination":[],"aug_dim":"","rhythm_ratio":1.0,"mirror":false,"chromatic_density":0.429,"complexity":0.549,"dissonance":0.175},{"voice":1,"pitch":66,"start":114.3332,"duration":0.3333,"velocity":90,"measure":43,"beat":4.5,"subject_pos":-1,"motif":"","motif_pos":-1,"best_pos":4,"similarity":0.768,"stretto":false,"stretto_voices":0,"combination":[],"aug_dim":"","rhythm_ratio":1.0,"mirror":false,"chromatic_density":0.429,"complexity":0.549,"dissonance":0.175},{"voice":1,"pitch":67,"start":114.6666,"duration":0.6667,"velocity":90,"measure":44,"beat":1.0,"subject_pos":-1,"motif":"","motif_pos":-1,"best_pos":5,"similarity":0.643,"stretto":false,"stretto_voices":0,"combination":[],"aug_dim":"","rhythm_ratio":1.0,"mirror":false,"chromatic_density":0.667,"complexity":0.583,"dissonance":0.175},{"voice":3,"pitch":46,"start":114.6666,"duration":0.6667,"velocity":90,"measure":44,"beat":1.0,"subject_pos":-1,"motif":"enigmatic_cell","motif_pos":1,"best_pos":1,"similarity":1.0,"stretto":false,"stretto_voices":0,"combination":[],"aug_dim":"","rhythm_ratio":1.0,"mirror":false,"chromatic_density":0.667,"complexity":0.583,"dissonance":0.175},{"voice":0,"pitch":74,"start":114.9999,"duration":0.3333,"velocity":90,"measure":44,"beat":1.5,"subject_pos":-1,"motif":"","motif_pos":-1,"best_pos":2,"similarity":0.5,"stretto":false,"stretto_voices":0,"combination":[],"aug_dim":"","rhythm_ratio":1.0,"mirror":false,"chromatic_density":0.667,"complexity":0.583,"dissonance":0.175},{"voice":0,"pitch":72,"start":115.3332,"duration":0.3333,"velocity":90,"measure":44,"beat":2.0,"subject_pos":-1,"motif":"","motif_pos":-1,"best_pos":3,"similarity":0.65,"stretto":false,"stretto_voices":0,"combination":[],"aug_dim":"","rhythm_ratio":1.0,"mirror":false,"chromatic_density":0.667,"complexity":0.583,"dissonance":0.175},{"voice":1,"pitch":68,"start":115.3332,"duration":0.6667,"velocity":90,"measure":44,"beat":2.0,"subject_pos":-1,"motif":"","motif_pos":-1,"best_pos":5,"similarity":0.439,"stretto":false,"stretto_voices":0,"combination":[],"aug_dim":"","rhythm_ratio":1.0,"mirror":false,"chromatic_density":0.667,"complexity":0.583,"dissonance":0.175},{"voice":2,"pitch":50,"start":115.3332,"duration":0.6667,"velocity":90,"measure":44,"beat":2.0,"subject_pos":-1,"motif":"","motif_pos":-1,"best_pos":4,"similarity":0.45,"stretto":false,"stretto_voices":0,"combination":[],"aug_dim":"","rhythm_ratio":1.0,"mirror":false,"chromatic_density":0.667,"complexity":0.583,"dissonance":0.175},{"voice":3,"pitch":41,"start":115.3332,"duration":0.6667,"velocity":90,"measure":44,"beat":2.0,"subject_pos":-1,"motif":"enigmatic_cell","motif_pos":2,"best_pos":2,"similarity":1.0,"stretto":false,"stretto_voices":0,"combination":[],"aug_dim":"","rhythm_ratio":1.0,"mirror":false,"chromatic_density":0.667,"complexity":0.583,"dissonance":0.175},{"voice":0,"pitch":71,"start":115.6666,"duration":0.3333,"velocity":90,"measure":44,"beat":2.5,"subject_pos":-1,"motif":"","motif_pos":-1,"best_pos":4,"similarity":0.711,"stretto":false,"stretto_voices":0,"combination":[],"aug_dim":"","rhythm_ratio":1.0,"mirror":false,"chromatic_density":0.667,"complexity":0.583,"dissonance":0.175},{"voice":0,"pitch":72,"start":115.9999,"duration":0.3333,"velocity":90,"measure":44,"beat":3.0,"subject_pos":-1,"motif":"","motif_pos":-1,"best_pos":5,"similarity":0.529,"stretto":false,"stretto_voices":0,"combination":[],"aug_dim":"","rhythm_ratio":1.0,"mirror":false,"chromatic_density":0.667,"complexity":0.583,"dissonance":0.175},{"voice":1,"pitch":67,"start":115.9999,"duration":1.0,"velocity":90,"measure":44,"beat":3.0,"subject_pos":-1,"motif":"","motif_pos":-1,"best_pos":4,"similarity":0.482,"stretto":false,"stretto_voices":0,"combination":[],"aug_dim":"","rhythm_ratio":1.0,"mirror":false,"chromatic_density":0.667,"complexity":0.583,"dissonance":0.175},{"voice":2,"pitch":51,"start":115.9999,"duration":0.6667,"velocity":90,"measure":44,"beat":3.0,"subject_pos":-1,"motif":"","motif_pos":-1,"best_pos":5,"similarity":0.579,"stretto":false,"stretto_voices":0,"combination":[],"aug_dim":"","rhythm_ratio":1.0,"mirror":false,"chromatic_density":0.667,"complexity":0.583,"dissonance":0.175},{"voice":3,"pitch":48,"start":115.9999,"duration":0.6667,"velocity":90,"measure":44,"beat":3.0,"subject_pos":-1,"motif":"","motif_pos":-1,"best_pos":4,"similarity":0.4,"stretto":false,"stretto_voices":0,"combination":[],"aug_dim":"","rhythm_ratio":1.0,"mirror":false,"chromatic_density":0.667,"complexity":0.583,"dissonance":0.175},{"voice":0,"pitch":70,"start":116.3332,"duration":0.3333,"velocity":90,"measure":44,"beat":3.5,"subject_pos":-1,"motif":"","motif_pos":-1,"best_pos":3,"similarity":0.55,"stretto":false,"stretto_voices":0,"combination":[],"aug_dim":"","rhythm_ratio":1.0,"mirror":false,"chromatic_density":0.667,"complexity":0.583,"dissonance":0.175},{"voice":0,"pitch":69,"start":116.6666,"duration":1.0,"velocity":90,"measure":44,"beat":4.0,"subject_pos":-1,"motif":"","motif_pos":-1,"best_pos":4,"similarity":0.596,"stretto":false,"stretto_voices":0,"combination":[],"aug_dim":"","rhythm_ratio":1.0,"mirror":false,"chromatic_density":0.667,"complexity":0.583,"dissonance":0.175},{"voice":2,"pitch":52,"start":116.6666,"duration":0.6667,"velocity":90,"measure":44,"beat":4.0,"subject_pos":-1,"motif":"","motif_pos":-1,"best_pos":5,"similarity":0.607,"stretto":false,"stretto_voices":0,"combination":[],"aug_dim":"","rhythm_ratio":1.0,"mirror":false,"chromatic_density":0.667,"complexity":0.583,"dissonance":0.175},{"voice":3,"pitch":49,"start":116.6666,"duration":0.6667,"velocity":90,"measure":44,"beat":4.0,"subject_pos":-1,"motif":"enigmatic_cell","motif_pos":0,"best_pos":0,"similarity":1.0,"stretto":false,"stretto_voices":0,"combination":[],"aug_dim":"","rhythm_ratio":1.0,"mirror":false,"chromatic_density":0.667,"complexity":0.583,"dissonance":0.175},{"voice":1,"pitch":67,"start":116.9999,"duration":0.3333,"velocity":90,"measure":44,"beat":4.5,"subject_pos":-1,"motif":"","motif_pos":-1,"best_pos":1,"similarity":0.393,"stretto":false,"stretto_voices":0,"combination":[],"aug_dim":"","rhythm_ratio":1.0,"mirror":false,"chromatic_density":0.667,"complexity":0.583,"dissonance":0.175},{"voice":1,"pitch":65,"start":117.3332,"duration":0.6667,"velocity":90,"measure":45,"beat":1.0,"subject_pos":-1,"motif":"","motif_pos":-1,"best_pos":2,"similarity":0.571,"stretto":false,"stretto_voices":0,"combination":[],"aug_dim":"","rhythm_ratio":1.0,"mirror":false,"chromatic_density":0.667,"complexity":0.588,"dissonance":0.128},{"voice":2,"pitch":53,"start":117.3332,"duration":0.6667,"velocity":90,"measure":45,"beat":1.0,"subject_pos":-1,"motif":"","motif_pos":-1,"best_pos":5,"similarity":0.614,"stretto":false,"stretto_voices":0,"combination":[],"aug_dim":"","rhythm_ratio":1.0,"mirror":false,"chromatic_density":0.667,"complexity":0.588,"dissonance":0.128},{"voice":3,"pitch":50,"start":117.3332,"duration":0.6667,"velocity":90,"measure":45,"beat":1.0,"subject_pos":-1,"motif":"enigmatic_cell","motif_pos":1,"best_pos":1,"similarity":1.0,"stretto":false,"stretto_voices":0,"combination":[],"aug_dim":"","rhythm_ratio":1.0,"mirror":false,"chromatic_density":0.667,"complexity":0.588,"dissonance":0.128},{"voice":0,"pitch":71,"start":117.6665,"duration":0.3333,"velocity":90,"measure":45,"beat":1.5,"subject_pos":-1,"motif":"","motif_pos":-1,"best_pos":6,"similarity":0.643,"stretto":false,"stretto_voices":0,"combination":[],"aug_dim":"","rhythm_ratio":1.0,"mirror":false,"chromatic_density":0.667,"complexity":0.588,"dissonance":0.128},{"voice":0,"pitch":72,"start":117.9999,"duration":1.0,"velocity":90,"measure":45,"beat":2.0,"subject_pos":-1,"motif":"","motif_pos":-1,"best_pos":7,"similarity":0.446,"stretto":false,"stretto_voices":0,"combination":[],"aug_dim":"","rhythm_ratio":1.0,"mirror":false,"chromatic_density":0.667,"complexity":0.588,"dissonance":0.128},{"voice":1,"pitch":64,"start":117.9999,"duration":0.3333,"velocity":90,"measure":45,"beat":2.0,"subject_pos":-1,"motif":"","motif_pos":-1,"best_pos":3,"similarity":0.679,"stretto":false,"stretto_voices":0,"combination":[],"aug_dim":"","rhythm_ratio":1.0,"mirror":false,"chromatic_density":0.667,"complexity":0.588,"dissonance":0.128},{"voice":2,"pitch":54,"start":117.9999,"duration":0.6667,"velocity":90,"measure":45,"beat":2.0,"subject_pos":-1,"motif":"","motif_pos":-1,"best_pos":5,"similarity":0.614,"stretto":false,"stretto_voices":0,"combination":[],"aug_dim":"","rhythm_ratio":1.0,"mirror":false,"chromatic_density":0.667,"complexity":0.588,"dissonance":0.128},{"voice":3,"pitch":45,"start":117.9999,"duration":0.6667,"velocity":90,"measure":45,"beat":2.0,"subject_pos":-1,"motif":"enigmatic_cell","motif_pos":2,"best_pos":2,"similarity":1.0,"stretto":false,"stretto_voices":0,"combination":[],"aug_dim":"","rhythm_ratio":1.0,"mirror":false,"chromatic_density":0.667,"complexity":0.588,"dissonance":0.128},{"voice":1,"pitch":63,"start":118.3332,"duration":0.3333,"velocity":90,"measure":45,"beat":2.5,"subject_pos":-1,"motif":"","motif_pos":-1,"best_pos":4,"similarity":0.768,"stretto":false,"stretto_voices":0,"combination":[],"aug_dim":"","rhythm_ratio":1.0,"mirror":false,"chromatic_density":0.667,"complexity":0.588,"dissonance":0.128},{"voice":1,"pitch":64,"start":118.6665,"duration":0.6667,"velocity":90,"measure":45,"beat":3.0,"subject_pos":-1,"motif":"","motif_pos":-1,"best_pos":5,"similarity":0.625,"stretto":false,"stretto_voices":0,"combination":[],"aug_dim":"","rhythm_ratio":1.0,"mirror":false,"chromatic_density":0.667,"complexity":0.588,"dissonance":0.128},{"voice":2,"pitch":55,"start":118.6665,"duration":0.6667,"velocity":90,"measure":45,"beat":3.0,"subject_pos":-1,"motif":"","motif_pos":-1,"best_pos":5,"similarity":0.614,"stretto":false,"stretto_voices":0,"combination":[],"aug_dim":"","rhythm_ratio":1.0,"mirror":false,"chromatic_density":0.667,"complexity":0.588,"dissonance":0.128},{"voice":3,"pitch":52,"start":118.6665,"duration":1.3333,"velocity":90,"measure":45,"beat":3.0,"subject_pos":-1,"motif":"","motif_pos":-1,"best_pos":1,"similarity":0.386,"stretto":false,"stretto_voices":0,"combination":[],"aug_dim":"","rhythm_ratio":1.0,"mirror":false,"chromatic_density":0.667,"complexity":0.588,"dissonance":0.128},{"voice":0,"pitch":71,"start":118.9999,"duration":0.3333,"velocity":90,"measure":45,"beat":3.5,"subject_pos":-1,"motif":"","motif_pos":-1,"best_pos":4,"similarity":0.529,"stretto":false,"stretto_voices":0,"combination":[],"aug_dim":"","rhythm_ratio":1.0,"mirror":false,"chromatic_density":0.667,"complexity":0.588,"dissonance":0.128},{"voice":0,"pitch":73,"start":119.3332,"duration":0.3333,"velocity":90,"measure":45,"beat":4.0,"subject_pos":-1,"motif":"","motif_pos":-1,"best_pos":5,"similarity":0.45,"stretto":false,"stretto_voices":0,"combination":[],"aug_dim":"","rhythm_ratio":1.0,"mirror":false,"chromatic_density":0.667,"complexity":0.588,"dissonance":0.128},{"voice":2,"pitch":56,"start":119.3332,"duration":0.6667,"velocity":90,"measure":45,"beat":4.0,"subject_pos":-1,"motif":"","motif_pos":-1,"best_pos":6,"similarity":0.589,"stretto":false,"stretto_voices":0,"combination":[],"aug_dim":"","rhythm_ratio":1.0,"mirror":false,"chromatic_density":0.667,"complexity":0.588,"dissonance":0.128},{"voice":0,"pitch":76,"start":119.6665,"duration":0.6667,"velocity":90,"measure":45,"beat":4.5,"subject_pos":-1,"motif":"","motif_pos":-1,"best_pos":1,"similarity":0.411,"stretto":false,"stretto_voices":0,"combination":[],"aug_dim":"","rhythm_ratio":1.0,"mirror":false,"chromatic_density":0.667,"complexity":0.588,"dissonance":0.128},{"voice":2,"pitch":57,"start":119.9999,"duration":0.6667,"velocity":90,"measure":46,"beat":1.0,"subject_pos":-1,"motif":"","motif_pos":-1,"best_pos":5,"similarity":0.543,"stretto":false,"stretto_voices":0,"combination":[],"aug_dim":"","rhythm_ratio":1.0,"mirror":false,"chromatic_density":0.667,"complexity":0.536,"dissonance":0.172},{"voice":3,"pitch":53,"start":119.9999,"duration":0.6667,"velocity":90,"measure":46,"beat":1.0,"subject_pos":-1,"motif":"","motif_pos":-1,"best_pos":3,"similarity":0.4,"stretto":false,"stretto_voices":0,"combination":[],"aug_dim":"","rhythm_ratio":1.0,"mirror":false,"chromatic_density":0.667,"complexity":0.536,"dissonance":0.172},{"voice":0,"pitch":74,"start":120.3332,"duration":0.6667,"velocity":90,"measure":46,"beat":1.5,"subject_pos":-1,"motif":"","motif_pos":-1,"best_pos":3,"similarity":0.579,"stretto":false,"stretto_voices":0,"combination":[],"aug_dim":"","rhythm_ratio":1.0,"mirror":false,"chromatic_density":0.667,"complexity":0.536,"dissonance":0.172},{"voice":1,"pitch":67,"start":120.6665,"duration":0.6667,"velocity":90,"measure":46,"beat":2.0,"subject_pos":-1,"motif":"","motif_pos":-1,"best_pos":6,"similarity":0.429,"stretto":false,"stretto_voices":0,"combination":[],"aug_dim":"","rhythm_ratio":1.0,"mirror":false,"chromatic_density":0.667,"complexity":0.536,"dissonance":0.172},{"voice":3,"pitch":52,"start":120.6665,"duration":0.6667,"velocity":90,"measure":46,"beat":2.0,"subject_pos":-1,"motif":"","motif_pos":-1,"best_pos":4,"similarity":0.479,"stretto":false,"stretto_voices":0,"combination":[],"aug_dim":"","rhythm_ratio":1.0,"mirror":false,"chromatic_density":0.667,"complexity":0.536,"dissonance":0.172},{"voice":0,"pitch":73,"start":120.9999,"duration":0.3333,"velocity":90,"measure":46,"beat":2.5,"subject_pos":-1,"motif":"enigmatic_cell","motif_pos":0,"best_pos":0,"similarity":1.0,"stretto":false,"stretto_voices":0,"combination":[],"aug_dim":"","rhythm_ratio":1.0,"mirror":false,"chromatic_density":0.667,"complexity":0.536,"dissonance":0.172},{"voice":2,"pitch":57,"start":120.9999,"duration":0.3333,"velocity":90,"measure":46,"beat":2.5,"subject_pos":-1,"motif":"","motif_pos":-1,"best_pos":4,"similarity":0.593,"stretto":false,"stretto_voices":0,"combination":[],"aug_dim":"","rhythm_ratio":1.0,"mirror":false,"chromatic_density":0.667,"complexity":0.536,"dissonance":0.172},{"voice":0,"pitch":74,"start":121.3332,"duration":0.3333,"velocity":90,"measure":46,"beat":3.0,"subject_pos":-1,"motif":"enigmatic_cell","motif_pos":1,"best_pos":1,"similarity":1.0,"stretto":false,"stretto_voices":0,"combination":[],"aug_dim":"","rhythm_ratio":1.0,"mirror":false,"chromatic_density":0.667,"complexity":0.536,"dissonance":0.172},{"voice":1,"pitch":66,"start":121.3332,"duration":0.6667,"velocity":90,"measure":46,"beat":3.0,"subject_pos":-1,"motif":"","motif_pos":-1,"best_pos":2,"similarity":0.429,"stretto":false,"stretto_voices":0,"combination":[],"aug_dim":"","rhythm_ratio":1.0,"mirror":false,"chromatic_density":0.667,"complexity":0.536,"dissonance":0.172},{"voice":2,"pitch":58,"start":121.3332,"duration":0.6667,"velocity":90,"measure":46,"beat":3.0,"subject_pos":-1,"motif":"","motif_pos":-1,"best_pos":5,"similarity":0.65,"stretto":false,"stretto_voices":0,"combination":[],"aug_dim":"","rhythm_ratio":1.0,"mirror":false,"chromatic_density":0.667,"complexity":0.536,"dissonance":0.172},{"voice":3,"pitch":50,"start":121.3332,"duration":0.3333,"velocity":90,"measure":46,"beat":3.0,"subject_pos":-1,"motif":"","motif_pos":-1,"best_pos":5,"similarity":0.479,"stretto":false,"stretto_voices":0,"combination":[],"aug_dim":"","rhythm_ratio":1.0,"mirror":false,"chromatic_density":0.667,"complexity":0.536,"dissonance":0.172},{"voice":0,"pitch":69,"start":121.6665,"duration":0.6667,"velocity":90,"measure":46,"beat":3.5,"subject_pos":-1,"motif":"enigmatic_cell","motif_pos":2,"best_pos":2,"similarity":1.0,"stretto":false,"stretto_voices":0,"combination":[],"aug_dim":"","rhythm_ratio":1.0,"mirror":false,"chromatic_density":0.667,"complexity":0.536,"dissonance":0.172},{"voice":3,"pitch":52,"start":121.6665,"duration":0.3333,"velocity":90,"measure":46,"beat":3.5,"subject_pos":-1,"motif":"","motif_pos":-1,"best_pos":6,"similarity":0.4,"stretto":false,"stretto_voices":0,"combination":[],"aug_dim":"","rhythm_ratio":1.0,"mirror":false,"chromatic_density":0.667,"complexity":0.536,"dissonance":0.172},{"voice":1,"pitch":65,"start":121.9999,"duration":0.6667,"velocity":90,"measure":46,"beat":4.0,"subject_pos":-1,"motif":"","motif_pos":-1,"best_pos":3,"similarity":0.554,"stretto":false,"stretto_voices":0,"combination":[],"aug_dim":"","rhythm_ratio":1.0,"mirror":false,"chromatic_density":0.667,"complexity":0.536,"dissonance":0.172},{"voice":2,"pitch":59,"start":121.9999,"duration":0.6667,"velocity":90,"measure":46,"beat":4.0,"subject_pos":-1,"motif":"","motif_pos":-1,"best_pos":5,"similarity":0.614,"stretto":false,"stretto_voices":0,"combination":[],"aug_dim":"","rhythm_ratio":1.0,"mirror":false,"chromatic_density":0.667,"complexity":0.536,"dissonance":0.172},{"voice":3,"pitch":50,"start":121.9999,"duration":0.6667,"velocity":90,"measure":46,"beat":4.0,"subject_pos":-1,"motif":"","motif_pos":-1,"best_pos":2,"similarity":0.379,"stretto":false,"stretto_voices":0,"combination":[],"aug_dim":"","rhythm_ratio":1.0,"mirror":false,"chromatic_density":0.667,"complexity":0.536,"dissonance":0.172},{"voice":0,"pitch":68,"start":122.3332,"duration":0.3333,"velocity":90,"measure":46,"beat":4.5,"subject_pos":-1,"motif":"","motif_pos":-1,"best_pos":4,"similarity":0.721,"stretto":false,"stretto_voices":0,"combination":[],"aug_dim":"","rhythm_ratio":1.0,"mirror":false,"chromatic_density":0.667,"complexity":0.536,"dissonance":0.172},{"voice":0,"pitch":69,"start":122.6665,"duration":1.3333,"velocity":90,"measure":47,"beat":1.0,"subject_pos":-1,"motif":"","motif_pos":-1,"best_pos":5,"similarity":0.661,"stretto":false,"stretto_voices":0,"combination":[],"aug_dim":"","rhythm_ratio":1.0,"mirror":false,"chromatic_density":0.857,"complexity":0.477,"dissonance":0.054},{"voice":1,"pitch":64,"start":122.6665,"duration":0.6667,"velocity":90,"measure":47,"beat":1.0,"subject_pos":-1,"motif":"","motif_pos":-1,"best_pos":4,"similarity":0.643,"stretto":false,"stretto_voices":0,"combination":[],"aug_dim":"","rhythm_ratio":1.0,"mirror":false,"chromatic_density":0.857,"complexity":0.477,"dissonance":0.054},{"voice":2,"pitch":60,"start":122.6665,"duration":0.6667,"velocity":90,"measure":47,"beat":1.0,"subject_pos":-1,"motif":"","motif_pos":-1,"best_pos":5,"similarity":0.614,"stretto":false,"stretto_voices":0,"combination":[],"aug_dim":"","rhythm_ratio":1.0,"mirror":false,"chromatic_density":0.857,"complexity":0.477,"dissonance":0.054},{"voice":3,"pitch":57,"start":122.6665,"duration":1.3333,"velocity":90,"measure":47,"beat":1.0,"subject_pos":-1,"motif":"","motif_pos":-1,"best_pos":1,"similarity":0.436,"stretto":false,"stretto_voices":0,"combination":[],"aug_dim":"","rhythm_ratio":1.0,"mirror":false,"chromatic_density":0.857,"complexity":0.477,"dissonance":0.054},{"voice":2,"pitch":61,"start":123.3332,"duration":0.6667,"velocity":90,"measure":47,"beat":2.0,"subject_pos":-1,"motif":"","motif_pos":-1,"best_pos":5,"similarity":0.614,"stretto":false,"stretto_voices":0,"combination":[],"aug_dim":"","rhythm_ratio":1.0,"mirror":false,"chromatic_density":0.857,"complexity":0.477,"dissonance":0.054},{"voice":1,"pitch":64,"start":123.6665,"duration":0.3333,"velocity":90,"measure":47,"beat":2.5,"subject_pos":-1,"motif":"","motif_pos":-1,"best_pos":4,"similarity":0.643,"stretto":false,"stretto_voices":0,"combination":[],"aug_dim":"","rhythm_ratio":1.0,"mirror":false,"chromatic_density":0.857,"complexity":0.477,"dissonance":0.054},{"voice":1,"pitch":65,"start":123.9999,"duration":0.6667,"velocity":90,"measure":47,"beat":3.0,"subject_pos":-1,"motif":"","motif_pos":-1,"best_pos":5,"similarity":0.661,"stretto":false,"stretto_voices":0,"combination":[],"aug_dim":"","rhythm_ratio":1.0,"mirror":false,"chromatic_density":0.857,"complexity":0.477,"dissonance":0.054},{"voice":2,"pitch":62,"start":123.9999,"duration":0.3333,"velocity":90,"measure":47,"beat":3.0,"subject_pos":-1,"motif":"","motif_pos":-1,"best_pos":6,"similarity":0.589,"stretto":false,"stretto_voices":0,"combination":[],"aug_dim":"","rhythm_ratio":1.0,"mirror":false,"chromatic_density":0.857,"complexity":0.477,"dissonance":0.054},{"voice":2,"pitch":63,"start":124.3332,"duration":0.3333,"velocity":90,"measure":47,"beat":3.5,"subject_pos":-1,"motif":"","motif_pos":-1,"best_pos":7,"similarity":0.429,"stretto":false,"stretto_voices":0,"combination":[],"aug_dim":"","rhythm_ratio":1.0,"mirror":false,"chromatic_density":0.857,"complexity":0.477,"dissonance":0.054},{"voice":1,"pitch":66,"start":124.6665,"duration":0.6667,"velocity":90,"measure":47,"beat":4.0,"subject_pos":-1,"motif":"","motif_pos":-1,"best_pos":6,"similarity":0.607,"stretto":false,"stretto_voices":0,"combination":[],"aug_dim":"","rhythm_ratio":1.0,"mirror":false,"chromatic_density":0.857,"complexity":0.477,"dissonance":0.054},{"voice":2,"pitch":62,"start":124.6665,"duration":0.3333,"velocity":90,"measure":47,"beat":4.0,"subject_pos":-1,"motif":"","motif_pos":-1,"best_pos":4,"similarity":0.479,"stretto":false,"stretto_voices":0,"combination":[],"aug_dim":"","rhythm_ratio":1.0,"mirror":false,"chromatic_density":0.857,"complexity":0.477,"dissonance":0.054},{"voice":0,"pitch":69,"start":124.9999,"duration":0.3333,"velocity":90,"measure":47,"beat":4.5,"subject_pos":-1,"motif":"","motif_pos":-1,"best_pos":4,"similarity":0.621,"stretto":false,"stretto_voices":0,"combination":[],"aug_dim":"","rhythm_ratio":1.0,"mirror":false,"chromatic_density":0.857,"complexity":0.477,"dissonance":0.054},{"voice":2,"pitch":60,"start":124.9999,"duration":0.3333,"velocity":90,"measure":47,"beat":4.5,"subject_pos":-1,"motif":"","motif_pos":-1,"best_pos":5,"similarity":0.464,"stretto":false,"stretto_voices":0,"combination":[],"aug_dim":"","rhythm_ratio":1.0,"mirror":false,"chromatic_density":0.857,"complexity":0.477,"dissonance":0.054},{"voice":3,"pitch":57,"start":124.9999,"duration":0.3333,"velocity":90,"measure":47,"beat":4.5,"subject_pos":-1,"motif":"","motif_pos":-1,"best_pos":4,"similarity":0.393,"stretto":false,"stretto_voices":0,"combination":[],"aug_dim":"","rhythm_ratio":1.0,"mirror":false,"chromatic_density":0.857,"complexity":0.477,"dissonance":0.054},{"voice":0,"pitch":70,"start":125.3332,"duration":0.6667,"velocity":90,"measure":48,"beat":1.0,"subject_pos":-1,"motif":"","motif_pos":-1,"best_pos":5,"similarity":0.65,"stretto":false,"stretto_voices":0,"combination":[],"aug_dim":"","rhythm_ratio":1.0,"mirror":false,"chromatic_density":0.308,"complexity":0.542,"dissonance":0.106},{"voice":1,"pitch":67,"start":125.3332,"duration":1.6667,"velocity":90,"measure":48,"beat":1.0,"subject_pos":-1,"motif":"","motif_pos":-1,"best_pos":7,"similarity":0.429,"stretto":false,"stretto_voices":0,"combination":[],"aug_dim":"","rhythm_ratio":1.0,"mirror":false,"chromatic_density":0.308,"complexity":0.542,"dissonance":0.106},{"voice":2,"pitch":62,"start":125.3332,"duration":1.3333,"velocity":90,"measure":48,"beat":1.0,"subject_pos":-1,"motif":"","motif_pos":-1,"best_pos":6,"similarity":0.371,"stretto":false,"stretto_voices":0,"combination":[],"aug_dim":"","rhythm_ratio":1.0,"mirror":false,"chromatic_density":0.308,"complexity":0.542,"dissonance":0.106},{"voice":3,"pitch":55,"start":125.3332,"duration":0.3333,"velocity":90,"measure":48,"beat":1.0,"subject_pos":-1,"motif":"","motif_pos":-1,"best_pos":5,"similarity":0.4,"stretto":false,"stretto_voices":0,"combination":[],"aug_dim":"","rhythm_ratio":1.0,"mirror":false,"chromatic_density":0.308,"complexity":0.542,"dissonance":0.106},{"voice":3,"pitch":57,"start":125.6665,"duration":0.3333,"velocity":90,"measure":48,"beat":1.5,"subject_pos":-1,"motif":"","motif_pos":-1,"best_pos":1,"similarity":0.457,"stretto":false,"stretto_voices":0,"combination":[],"aug_dim":"","rhythm_ratio":1.0,"mirror":false,"chromatic_density":0.308,"complexity":0.542,"dissonance":0.106},{"voice":0,"pitch":71,"start":125.9999,"duration":0.6667,"velocity":90,"measure":48,"beat":2.0,"subject_pos":-1,"motif":"","motif_pos":-1,"best_pos":6,"similarity":0.607,"stretto":false,"stretto_voices":0,"combination":[],"aug_dim":"","rhythm_ratio":1.0,"mirror":false,"chromatic_density":0.308,"complexity":0.542,"dissonance":0.106},{"voice":3,"pitch":55,"start":125.9999,"duration":0.3333,"velocity":90,"measure":48,"beat":2.0,"subject_pos":-1,"motif":"","motif_pos":-1,"best_pos":2,"similarity":0.593,"stretto":false,"stretto_voices":0,"combination":[],"aug_dim":"","rhythm_ratio":1.0,"mirror":false,"chromatic_density":0.308,"complexity":0.542,"dissonance":0.106},{"voice":3,"pitch":53,"start":126.3332,"duration":0.3333,"velocity":90,"measure":48,"beat":2.5,"subject_pos":-1,"motif":"","motif_pos":-1,"best_pos":3,"similarity":0.6,"stretto":false,"stretto_voices":0,"combination":[],"aug_dim":"","rhythm_ratio":1.0,"mirror":false,"chromatic_density":0.308,"complexity":0.542,"dissonance":0.106},{"voice":0,"pitch":72,"start":126.6665,"duration":1.6667,"velocity":90,"measure":48,"beat":3.0,"subject_pos":-1,"motif":"","motif_pos":-1,"best_pos":5,"similarity":0.629,"stretto":false,"stretto_voices":0,"combination":[],"aug_dim":"","rhythm_ratio":1.0,"mirror":false,"chromatic_density":0.308,"complexity":0.542,"dissonance":0.106},{"voice":2,"pitch":55,"start":126.6665,"duration":0.6667,"velocity":90,"measure":48,"beat":3.0,"subject_pos":-1,"motif":"","motif_pos":-1,"best_pos":0,"similarity":0.446,"stretto":false,"stretto_voices":0,"combination":[],"aug_dim":"","rhythm_ratio":1.0,"mirror":false,"chromatic_density":0.308,"complexity":0.542,"dissonance":0.106},{"voice":3,"pitch":52,"start":126.6665,"duration":0.3333,"velocity":90,"measure":48,"beat":3.0,"subject_pos":-1,"motif":"","motif_pos":-1,"best_pos":4,"similarity":0.507,"stretto":false,"stretto_voices":0,"combination":[],"aug_dim":"","rhythm_ratio":1.0,"mirror":false,"chromatic_density":0.308,"complexity":0.542,"dissonance":0.106},{"voice":1,"pitch":65,"start":126.9999,"duration":0.3333,"velocity":90,"measure":48,"beat":3.5,"subject_pos":-1,"motif":"","motif_pos":-1,"best_pos":3,"similarity":0.664,"stretto":false,"stretto_voices":0,"combination":[],"aug_dim":"","rhythm_ratio":1.0,"mirror":false,"chromatic_density":0.308,"complexity":0.542,"dissonance":0.106},{"voice":3,"pitch":50,"start":126.9999,"duration":0.3333,"velocity":90,"measure":48,"beat":3.5,"subject_pos":-1,"motif":"","motif_pos":-1,"best_pos":3,"similarity":0.5,"stretto":false,"stretto_voices":0,"combination":[],"aug_dim":"","rhythm_ratio":1.0,"mirror":false,"chromatic_density":0.308,"complexity":0.542,"dissonance":0.106},{"voice":1,"pitch":64,"start":127.3332,"duration":0.6667,"velocity":90,"measure":48,"beat":4.0,"subject_pos":-1,"motif":"","motif_pos":-1,"best_pos":4,"similarity":0.811,"stretto":false,"stretto_voices":0,"combination":[],"aug_dim":"","rhythm_ratio":1.0,"mirror":false,"chromatic_density":0.308,"complexity":0.542,"dissonance":0.106},{"voice":2,"pitch":60,"start":127.3332,"duration":0.3333,"velocity":90,"measure":48,"beat":4.0,"subject_pos":-1,"motif":"","motif_pos":-1,"best_pos":1,"similarity":0.614,"stretto":false,"stretto_voices":0,"combination":[],"aug_dim":"","rhythm_ratio":1.0,"mirror":false,"chromatic_density":0.308,"complexity":0.542,"dissonance":0.106},{"voice":3,"pitch":48,"start":127.3332,"duration":0.6667,"velocity":90,"measure":48,"beat":4.0,"subject_pos":-1,"motif":"","motif_pos":-1,"best_pos":4,"similarity":0.607,"stretto":false,"stretto_voices":0,"combination":[],"aug_dim":"","rhythm_ratio":1.0,"mirror":false,"chromatic_density":0.308,"complexity":0.542,"dissonance":0.106},{"voice":2,"pitch":58,"start":127.6665,"duration":0.3333,"velocity":90,"measure":48,"beat":4.5,"subject_pos":-1,"motif":"","motif_pos":-1,"best_pos":2,"similarity":0.514,"stretto":false,"stretto_voices":0,"combination":[],"aug_dim":"","rhythm_ratio":1.0,"mirror":false,"chromatic_density":0.308,"complexity":0.542,"dissonance":0.106},{"voice":1,"pitch":65,"start":127.9999,"duration":0.6667,"velocity":90,"measure":49,"beat":1.0,"subject_pos":-1,"motif":"","motif_pos":-1,"best_pos":5,"similarity":0.786,"stretto":false,"stretto_voices":0,"combination":[],"aug_dim":"","rhythm_ratio":1.0,"mirror":false,"chromatic_density":0.214,"complexity":0.633,"dissonance":0.169},{"voice":2,"pitch":57,"start":127.9999,"duration":0.3333,"velocity":90,"measure":49,"beat":1.0,"subject_pos":-1,"motif":"","motif_pos":-1,"best_pos":4,"similarity":0.364,"stretto":false,"stretto_voices":0,"combination":[],"aug_dim":"","rhythm_ratio":1.0,"mirror":false,"chromatic_density":0.214,"complexity":0.633,"dissonance":0.169},{"voice":3,"pitch":50,"start":127.9999,"duration":0.6667,"velocity":90,"measure":49,"beat":1.0,"subject_pos":-1,"motif":"","motif_pos":-1,"best_pos":5,"similarity":0.679,"stretto":false,"stretto_voices":0,"combination":[],"aug_dim":"","rhythm_ratio":1.0,"mirror":false,"chromatic_density":0.214,"complexity":0.633,"dissonance":0.169},{"voice":0,"pitch":74,"start":128.3332,"duration":0.3333,"velocity":90,"measure":49,"beat":1.5,"subject_pos":-1,"motif":"","motif_pos":-1,"best_pos":6,"similarity":0.475,"stretto":false,"stretto_voices":0,"combination":[],"aug_dim":"","rhythm_ratio":1.0,"mirror":false,"chromatic_density":0.214,"complexity":0.633,"dissonance":0.169},{"voice":2,"pitch":53,"start":128.3332,"duration":0.3333,"velocity":90,"measure":49,"beat":1.5,"subject_pos":-1,"motif":"","motif_pos":-1,"best_pos":0,"similarity":0.321,"stretto":false,"stretto_voices":0,"combination":[],"aug_dim":"","rhythm_ratio":1.0,"mirror":false,"chromatic_density":0.214,"complexity":0.633,"dissonance":0.169},{"voice":0,"pitch":72,"start":128.6665,"duration":0.3333,"velocity":90,"measure":49,"beat":2.0,"subject_pos":-1,"motif":"","motif_pos":-1,"best_pos":2,"similarity":0.593,"stretto":false,"stretto_voices":0,"combination":[],"aug_dim":"","rhythm_ratio":1.0,"mirror":false,"chromatic_density":0.214,"complexity":0.633,"dissonance":0.169},{"voice":1,"pitch":67,"start":128.6665,"duration":1.3333,"velocity":90,"measure":49,"beat":2.0,"subject_pos":-1,"motif":"","motif_pos":-1,"best_pos":6,"similarity":0.571,"stretto":false,"stretto_voices":0,"combination":[],"aug_dim":"","rhythm_ratio":1.0,"mirror":false,"chromatic_density":0.214,"complexity":0.633,"dissonance":0.169},{"voice":2,"pitch":60,"start":128.6665,"duration":1.0,"velocity":90,"measure":49,"beat":2.0,"subject_pos":-1,"motif":"","motif_pos":-1,"best_pos":1,"similarity":0.393,"stretto":false,"stretto_voices":0,"combination":[],"aug_dim":"","rhythm_ratio":1.0,"mirror":false,"chromatic_density":0.214,"complexity":0.633,"dissonance":0.169},{"voice":3,"pitch":52,"start":128.6665,"duration":0.6667,"velocity":90,"measure":49,"beat":2.0,"subject_pos":-1,"motif":"","motif_pos":-1,"best_pos":6,"similarity":0.679,"stretto":false,"stretto_voices":0,"combination":[],"aug_dim":"","rhythm_ratio":1.0,"mirror":false,"chromatic_density":0.214,"complexity":0.633,"dissonance":0.169},{"voice":0,"pitch":70,"start":128.9999,"duration":0.3333,"velocity":90,"measure":49,"beat":2.5,"subject_pos":-1,"motif":"enigmatic_cell","motif_pos":0,"best_pos":0,"similarity":1.0,"stretto":false,"stretto_voices":0,"combination":[],"aug_dim":"","rhythm_ratio":1.0,"mirror":false,"chromatic_density":0.214,"complexity":0.633,"dissonance":0.169},{"voice":0,"pitch":69,"start":129.3332,"duration":0.6667,"velocity":90,"measure":49,"beat":3.0,"subject_pos":-1,"motif":"enigmatic_cell","motif_pos":1,"best_pos":1,"similarity":1.0,"stretto":false,"stretto_voices":0,"combination":[],"aug_dim":"","rhythm_ratio":1.0,"mirror":false,"chromatic_density":0.214,"complexity":0.633,"dissonance":0.169},{"voice":3,"pitch":53,"start":129.3332,"duration":0.6667,"velocity":90,"measure":49,"beat":3.0,"subject_pos":-1,"motif":"","motif_pos":-1,"best_pos":7,"similarity":0.464,"stretto":false,"stretto_voices":0,"combination":[],"aug_dim":"","rhythm_ratio":1.0,"mirror":false,"chromatic_density":0.214,"complexity":0.633,"dissonance":0.169},{"voice":2,"pitch":64,"start":129.6665,"duration":0.3333,"velocity":90,"measure":49,"beat":3.5,"subject_pos":-1,"motif":"","motif_pos":-1,"best_pos":1,"similarity":0.571,"stretto":false,"stretto_voices":0,"combination":[],"aug_dim":"","rhythm_ratio":1.0,"mirror":false,"chromatic_density":0.214,"complexity":0.633,"dissonance":0.169},{"voice":0,"pitch":74,"start":129.9999,"duration":1.0,"velocity":90,"measure":49,"beat":4.0,"subject_pos":-1,"motif":"enigmatic_cell","motif_pos":2,"best_pos":2,"similarity":1.0,"stretto":false,"stretto_voices":0,"combination":[],"aug_dim":"","rhythm_ratio":1.0,"mirror":false,"chromatic_density":0.214,"complexity":0.633,"dissonance":0.169},{"voice":1,"pitch":66,"start":129.9999,"duration":0.6667,"velocity":90,"measure":49,"beat":4.0,"subject_pos":-1,"motif":"","motif_pos":-1,"best_pos":4,"similarity":0.739,"stretto":false,"stretto_voices":0,"combination":[],"aug_dim":"","rhythm_ratio":1.0,"mirror":false,"chromatic_density":0.214,"complexity":0.633,"dissonance":0.169},{"voice":2,"pitch":62,"start":129.9999,"duration":0.3333,"velocity":90,"measure":49,"beat":4.0,"subject_pos":-1,"motif":"","motif_pos":-1,"best_pos":2,"similarity":0.643,"stretto":false,"stretto_voices":0,"combination":[],"aug_dim":"","rhythm_ratio":1.0,"mirror":false,"chromatic_density":0.214,"complexity":0.633,"dissonance":0.169},{"voice":2,"pitch":60,"start":130.3332,"duration":0.3333,"velocity":90,"measure":49,"beat":4.5,"subject_pos":-1,"motif":"","motif_pos":-1,"best_pos":3,"similarity":0.607,"stretto":false,"stretto_voices":0,"combination":[],"aug_dim":"","rhythm_ratio":1.0,"mirror":false,"chromatic_density":0.214,"complexity":0.633,"dissonance":0.169},{"voice":3,"pitch":50,"start":130.3332,"duration":0.3333,"velocity":90,"measure":49,"beat":4.5,"subject_pos":-1,"motif":"","motif_pos":-1,"best_pos":4,"similarity":0.45,"stretto":false,"stretto_voices":0,"combination":[],"aug_dim":"","rhythm_ratio":1.0,"mirror":false,"chromatic_density":0.214,"complexity":0.633,"dissonance":0.169},{"voice":1,"pitch":67,"start":130.6665,"duration":0.6667,"velocity":90,"measure":50,"beat":1.0,"subject_pos":-1,"motif":"","motif_pos":-1,"best_pos":5,"similarity":0.75,"stretto":false,"stretto_voices":0,"combination":[],"aug_dim":"","rhythm_ratio":1.0,"mirror":false,"chromatic_density":0.286,"complexity":0.633,"dissonance":0.164},{"voice":2,"pitch":59,"start":130.6665,"duration":0.3333,"velocity":90,"measure":50,"beat":1.0,"subject_pos":-1,"motif":"","motif_pos":-1,"best_pos":4,"similarity":0.446,"stretto":false,"stretto_voices":0,"combination":[],"aug_dim":"","rhythm_ratio":1.0,"mirror":false,"chromatic_density":0.286,"complexity":0.633,"dissonance":0.164},{"voice":3,"pitch":52,"start":130.6665,"duration":0.6667,"velocity":90,"measure":50,"beat":1.0,"subject_pos":-1,"motif":"","motif_pos":-1,"best_pos":5,"similarity":0.614,"stretto":false,"stretto_voices":0,"combination":[],"aug_dim":"","rhythm_ratio":1.0,"mirror":false,"chromatic_density":0.286,"complexity":0.633,"dissonance":0.164},{"voice":0,"pitch":76,"start":130.9999,"duration":0.3333,"velocity":90,"measure":50,"beat":1.5,"subject_pos":-1,"motif":"","motif_pos":-1,"best_pos":1,"similarity":0.457,"stretto":false,"stretto_voices":0,"combination":[],"aug_dim":"","rhythm_ratio":1.0,"mirror":false,"chromatic_density":0.286,"complexity":0.633,"dissonance":0.164},{"voice":2,"pitch":55,"start":130.9999,"duration":0.3333,"velocity":90,"measure":50,"beat":1.5,"subject_pos":-1,"motif":"","motif_pos":-1,"best_pos":2,"similarity":0.318,"stretto":false,"stretto_voices":0,"combination":[],"aug_dim":"","rhythm_ratio":1.0,"mirror":false,"chromatic_density":0.286,"complexity":0.633,"dissonance":0.164},{"voice":0,"pitch":74,"start":131.3332,"duration":0.3333,"velocity":90,"measure":50,"beat":2.0,"subject_pos":-1,"motif":"","motif_pos":-1,"best_pos":2,"similarity":0.593,"stretto":false,"stretto_voices":0,"combination":[],"aug_dim":"","rhythm_ratio":1.0,"mirror":false,"chromatic_density":0.286,"complexity":0.633,"dissonance":0.164},{"voice":1,"pitch":69,"start":131.3332,"duration":1.3333,"velocity":90,"measure":50,"beat":2.0,"subject_pos":-1,"motif":"","motif_pos":-1,"best_pos":6,"similarity":0.571,"stretto":false,"stretto_voices":0,"combination":[],"aug_dim":"","rhythm_ratio":1.0,"mirror":false,"chromatic_density":0.286,"complexity":0.633,"dissonance":0.164},{"voice":2,"pitch":62,"start":131.3332,"duration":1.0,"velocity":90,"measure":50,"beat":2.0,"subject_pos":-1,"motif":"","motif_pos":-1,"best_pos":1,"similarity":0.357,"stretto":false,"stretto_voices":0,"combination":[],"aug_dim":"","rhythm_ratio":1.0,"mirror":false,"chromatic_density":0.286,"complexity":0.633,"dissonance":0.164},{"voice":3,"pitch":54,"start":131.3332,"duration":0.6667,"velocity":90,"measure":50,"beat":2.0,"subject_pos":-1,"motif":"","motif_pos":-1,"best_pos":6,"similarity":0.661,"stretto":false,"stretto_voices":0,"combination":[],"aug_dim":"","rhythm_ratio":1.0,"mirror":false,"chromatic_density":0.286,"complexity":0.633,"dissonance":0.164},{"voice":0,"pitch":72,"start":131.6665,"duration":0.3333,"velocity":90,"measure":50,"beat":2.5,"subject_pos":-1,"motif":"enigmatic_cell","motif_pos":0,"best_pos":0,"similarity":1.0,"stretto":false,"stretto_voices":0,"combination":[],"aug_dim":"","rhythm_ratio":1.0,"mirror":false,"chromatic_density":0.286,"complexity":0.633,"dissonance":0.164},{"voice":0,"pitch":71,"start":131.9999,"duration":0.6667,"velocity":90,"measure":50,"beat":3.0,"subject_pos":-1,"motif":"enigmatic_cell","motif_pos":1,"best_pos":1,"similarity":1.0,"stretto":false,"stretto_voices":0,"combination":[],"aug_dim":"","rhythm_ratio":1.0,"mirror":false,"chromatic_density":0.286,"complexity":0.633,"dissonance":0.164},{"voice":3,"pitch":55,"start":131.9999,"duration":0.6667,"velocity":90,"measure":50,"beat":3.0,"subject_pos":-1,"motif":"","motif_pos":-1,"best_pos":7,"similarity":0.464,"stretto":false,"stretto_voices":0,"combination":[],"aug_dim":"","rhythm_ratio":1.0,"mirror":false,"chromatic_density":0.286,"complexity":0.633,"dissonance":0.164},{"voice":2,"pitch":65,"start":132.3332,"duration":0.3333,"velocity":90,"measure":50,"beat":3.5,"subject_pos":-1,"motif":"","motif_pos":-1,"best_pos":1,"similarity":0.321,"stretto":false,"stretto_voices":0,"combination":[],"aug_dim":"","rhythm_ratio":1.0,"mirror":false,"chromatic_density":0.286,"complexity":0.633,"dissonance":0.164},{"voice":0,"pitch":76,"start":132.6665,"duration":1.0,"velocity":90,"measure":50,"beat":4.0,"subject_pos":-1,"motif":"enigmatic_cell","motif_pos":2,"best_pos":2,"similarity":1.0,"stretto":false,"stretto_voices":0,"combination":[],"aug_dim":"","rhythm_ratio":1.0,"mirror":false,"chromatic_density":0.286,"complexity":0.633,"dissonance":0.164},{"voice":1,"pitch":68,"start":132.6665,"duration":0.6667,"velocity":90,"measure":50,"beat":4.0,"subject_pos":-1,"motif":"","motif_pos":-1,"best_pos":4,"similarity":0.721,"stretto":false,"stretto_voices":0,"combination":[],"aug_dim":"","rhythm_ratio":1.0,"mirror":false,"chromatic_density":0.286,"complexity":0.633,"dissonance":0.164},{"voice":2,"pitch":64,"start":132.6665,"duration":0.3333,"velocity":90,"measure":50,"beat":4.0,"subject_pos":-1,"motif":"","motif_pos":-1,"best_pos":1,"similarity":0.429,"stretto":false,"stretto_voices":0,"combination":[],"aug_dim":"","rhythm_ratio":1.0,"mirror":false,"chromatic_density":0.286,"complexity":0.633,"dissonance":0.164},{"voice":2,"pitch":62,"start":132.9999,"duration":0.3333,"velocity":90,"measure":50,"beat":4.5,"subject_pos":-1,"motif":"","motif_pos":-1,"best_pos":2,"similarity":0.579,"stretto":false,"stretto_voices":0,"combination":[],"aug_dim":"","rhythm_ratio":1.0,"mirror":false,"chromatic_density":0.286,"complexity":0.633,"dissonance":0.164},{"voice":3,"pitch":52,"start":132.9999,"duration":0.3333,"velocity":90,"measure":50,"beat":4.5,"subject_pos":-1,"motif":"","motif_pos":-1,"best_pos":4,"similarity":0.45,"stretto":false,"stretto_voices":0,"combination":[],"aug_dim":"","rhythm_ratio":1.0,"mirror":false,"chromatic_density":0.286,"complexity":0.633,"dissonance":0.164},{"voice":1,"pitch":69,"start":133.3332,"duration":0.6667,"velocity":90,"measure":51,"beat":1.0,"subject_pos":-1,"motif":"","motif_pos":-1,"best_pos":5,"similarity":0.714,"stretto":false,"stretto_voices":0,"combination":[],"aug_dim":"","rhythm_ratio":1.0,"mirror":false,"chromatic_density":0.316,"complexity":0.579,"dissonance":0.167},{"voice":2,"pitch":60,"start":133.3332,"duration":0.6667,"velocity":90,"measure":51,"beat":1.0,"subject_pos":-1,"motif":"","motif_pos":-1,"best_pos":3,"similarity":0.657,"stretto":false,"stretto_voices":0,"combination":[],"aug_dim":"","rhythm_ratio":1.0,"mirror":false,"chromatic_density":0.316,"complexity":0.579,"dissonance":0.167},{"voice":3,"pitch":54,"start":133.3332,"duration":0.6667,"velocity":90,"measure":51,"beat":1.0,"subject_pos":-1,"motif":"","motif_pos":-1,"best_pos":5,"similarity":0.614,"stretto":false,"stretto_voices":0,"combination":[],"aug_dim":"","rhythm_ratio":1.0,"mirror":false,"chromatic_density":0.316,"complexity":0.579,"dissonance":0.167},{"voice":0,"pitch":81,"start":133.6665,"duration":0.3333,"velocity":90,"measure":51,"beat":1.5,"subject_pos":-1,"motif":"","motif_pos":-1,"best_pos":1,"similarity":0.536,"stretto":false,"stretto_voices":0,"combination":[],"aug_dim":"","rhythm_ratio":1.0,"mirror":false,"chromatic_density":0.316,"complexity":0.579,"dissonance":0.167},{"voice":0,"pitch":76,"start":133.9999,"duration":0.3333,"velocity":90,"measure":51,"beat":2.0,"subject_pos":-1,"motif":"","motif_pos":-1,"best_pos":2,"similarity":0.571,"stretto":false,"stretto_voices":0,"combination":[],"aug_dim":"","rhythm_ratio":1.0,"mirror":false,"chromatic_density":0.316,"complexity":0.579,"dissonance":0.167},{"voice":1,"pitch":71,"start":133.9999,"duration":1.0,"velocity":90,"measure":51,"beat":2.0,"subject_pos":-1,"motif":"","motif_pos":-1,"best_pos":6,"similarity":0.5,"stretto":false,"stretto_voices":0,"combination":[],"aug_dim":"","rhythm_ratio":1.0,"mirror":false,"chromatic_density":0.316,"complexity":0.579,"dissonance":0.167},{"voice":2,"pitch":59,"start":133.9999,"duration":0.6667,"velocity":90,"measure":51,"beat":2.0,"subject_pos":-1,"motif":"","motif_pos":-1,"best_pos":4,"similarity":0.671,"stretto":false,"stretto_voices":0,"combination":[],"aug_dim":"","rhythm_ratio":1.0,"mirror":false,"chromatic_density":0.316,"complexity":0.579,"dissonance":0.167},{"voice":3,"pitch":56,"start":133.9999,"duration":0.6667,"velocity":90,"measure":51,"beat":2.0,"subject_pos":-1,"motif":"","motif_pos":-1,"best_pos":6,"similarity":0.661,"stretto":false,"stretto_voices":0,"combination":[],"aug_dim":"","rhythm_ratio":1.0,"mirror":false,"chromatic_density":0.316,"complexity":0.579,"dissonance":0.167},{"voice":0,"pitch":74,"start":134.3332,"duration":0.3333,"velocity":90,"measure":51,"beat":2.5,"subject_pos":-1,"motif":"","motif_pos":-1,"best_pos":3,"similarity":0.607,"stretto":false,"stretto_voices":0,"combination":[],"aug_dim":"","rhythm_ratio":1.0,"mirror":false,"chromatic_density":0.316,"complexity":0.579,"dissonance":0.167},{"voice":0,"pitch":72,"start":134.6665,"duration":0.6667,"velocity":90,"measure":51,"beat":3.0,"subject_pos":-1,"motif":"","motif_pos":-1,"best_pos":4,"similarity":0.643,"stretto":false,"stretto_voices":0,"combination":[],"aug_dim":"","rhythm_ratio":1.0,"mirror":false,"chromatic_density":0.316,"complexity":0.579,"dissonance":0.167},{"voice":2,"pitch":57,"start":134.6665,"duration":0.1667,"velocity":90,"measure":51,"beat":3.0,"subject_pos":-1,"motif":"","motif_pos":-1,"best_pos":5,"similarity":0.636,"stretto":false,"stretto_voices":0,"combination":[],"aug_dim":"","rhythm_ratio":1.0,"mirror":false,"chromatic_density":0.316,"complexity":0.579,"dissonance":0.167},{"voice":3,"pitch":57,"start":134.6665,"duration":0.6667,"velocity":90,"measure":51,"beat":3.0,"subject_pos":-1,"motif":"","motif_pos":-1,"best_pos":7,"similarity":0.464,"stretto":false,"stretto_voices":0,"combination":[],"aug_dim":"","rhythm_ratio":1.0,"mirror":false,"chromatic_density":0.316,"complexity":0.579,"dissonance":0.167},{"voice":2,"pitch":59,"start":134.8332,"duration":0.1667,"velocity":90,"measure":51,"beat":3.25,"subject_pos":-1,"motif":"","motif_pos":-1,"best_pos":6,"similarity":0.657,"stretto":false,"stretto_voices":0,"combination":[],"aug_dim":"","rhythm_ratio":1.0,"mirror":false,"chromatic_density":0.316,"complexity":0.579,"dissonance":0.167},{"voice":1,"pitch":64,"start":134.9999,"duration":0.1667,"velocity":90,"measure":51,"beat":3.5,"subject_pos":-1,"motif":"","motif_pos":-1,"best_pos":4,"similarity":0.471,"stretto":false,"stretto_voices":0,"combination":[],"aug_dim":"","rhythm_ratio":1.0,"mirror":false,"chromatic_density":0.316,"complexity":0.579,"dissonance":0.167},{"voice":2,"pitch":60,"start":134.9999,"duration":0.1667,"velocity":90,"measure":51,"beat":3.5,"subject_pos":-1,"motif":"","motif_pos":-1,"best_pos":5,"similarity":0.693,"stretto":false,"stretto_voices":0,"combination":[],"aug_dim":"","rhythm_ratio":1.0,"mirror":false,"chromatic_density":0.316,"complexity":0.579,"dissonance":0.167},{"voice":1,"pitch":65,"start":135.1665,"duration":0.1667,"velocity":90,"measure":51,"beat":3.75,"subject_pos":-1,"motif":"","motif_pos":-1,"best_pos":5,"similarity":0.643,"stretto":false,"stretto_voices":0,"combination":[],"aug_dim":"","rhythm_ratio":1.0,"mirror":false,"chromatic_density":0.316,"complexity":0.579,"dissonance":0.167},{"voice":2,"pitch":62,"start":135.1665,"duration":0.1667,"velocity":90,"measure":51,"beat":3.75,"subject_pos":-1,"motif":"","motif_pos":-1,"best_pos":5,"similarity":0.607,"stretto":false,"stretto_voices":0,"combination":[],"aug_dim":"","rhythm_ratio":1.0,"mirror":false,"chromatic_density":0.316,"complexity":0.579,"dissonance":0.167},{"voice":0,"pitch":73,"start":135.3332,"duration":0.6667,"velocity":90,"measure":51,"beat":4.0,"subject_pos":-1,"motif":"","motif_pos":-1,"best_pos":4,"similarity":0.714,"stretto":false,"stretto_voices":0,"combination":[],"aug_dim":"","rhythm_ratio":1.0,"mirror":false,"chromatic_density":0.316,"complexity":0.579,"dissonance":0.167},{"voice":1,"pitch":67,"start":135.3332,"duration":0.1667,"velocity":90,"measure":51,"beat":4.0,"subject_pos":-1,"motif":"","motif_pos":-1,"best_pos":5,"similarity":0.614,"stretto":false,"stretto_voices":0,"combination":[],"aug_dim":"","rhythm_ratio":1.0,"mirror":false,"chromatic_density":0.316,"complexity":0.579,"dissonance":0.167},{"voice":2,"pitch":64,"start":135.3332,"duration":0.6667,"velocity":90,"measure":51,"beat":4.0,"subject_pos":-1,"motif":"","motif_pos":-1,"best_pos":6,"similarity":0.661,"stretto":false,"stretto_voices":0,"combination":[],"aug_dim":"","rhythm_ratio":1.0,"mirror":false,"chromatic_density":0.316,"complexity":0.579,"dissonance":0.167},{"voice":1,"pitch":69,"start":135.4999,"duration":0.1667,"velocity":90,"measure":51,"beat":4.25,"subject_pos":-1,"motif":"","motif_pos":-1,"best_pos":6,"similarity":0.661,"stretto":false,"stretto_voices":0,"combination":[],"aug_dim":"","rhythm_ratio":1.0,"mirror":false,"chromatic_density":0.316,"complexity":0.579,"dissonance":0.167},{"voice":1,"pitch":70,"start":135.6665,"duration":0.3333,"velocity":90,"measure":51,"beat":4.5,"subject_pos":-1,"motif":"","motif_pos":-1,"best_pos":7,"similarity":0.464,"stretto":false,"stretto_voices":0,"combination":[],"aug_dim":"","rhythm_ratio":1.0,"mirror":false,"chromatic_density":0.316,"complexity":0.579,"dissonance":0.167},{"voice":3,"pitch":55,"start":135.6665,"duration":0.3333,"velocity":90,"measure":51,"beat":4.5,"subject_pos":-1,"motif":"","motif_pos":-1,"best_pos":2,"similarity":0.464,"stretto":false,"stretto_voices":0,"combination":[],"aug_dim":"","rhythm_ratio":1.0,"mirror":false,"chromatic_density":0.316,"complexity":0.579,"dissonance":0.167},{"voice":0,"pitch":74,"start":135.9999,"duration":0.6667,"velocity":90,"measure":52,"beat":1.0,"subject_pos":-1,"motif":"","motif_pos":-1,"best_pos":5,"similarity":0.786,"stretto":false,"stretto_voices":0,"combination":[],"aug_dim":"","rhythm_ratio":1.0,"mirror":false,"chromatic_density":0.267,"complexity":0.552,"dissonance":0.084},{"voice":1,"pitch":69,"start":135.9999,"duration":0.6667,"velocity":90,"measure":52,"beat":1.0,"subject_pos":-1,"motif":"","motif_pos":-1,"best_pos":2,"similarity":0.371,"stretto":false,"stretto_voices":0,"combination":[],"aug_dim":"","rhythm_ratio":1.0,"mirror":false,"chromatic_density":0.267,"complexity":0.552,"dissonance":0.084},{"voice":2,"pitch":65,"start":135.9999,"duration":0.6667,"velocity":90,"measure":52,"beat":1.0,"subject_pos":-1,"motif":"","motif_pos":-1,"best_pos":7,"similarity":0.464,"stretto":false,"stretto_voices":0,"combination":[],"aug_dim":"","rhythm_ratio":1.0,"mirror":false,"chromatic_density":0.267,"complexity":0.552,"dissonance":0.084},{"voice":3,"pitch":53,"start":135.9999,"duration":0.3333,"velocity":90,"measure":52,"beat":1.0,"subject_pos":-1,"motif":"","motif_pos":-1,"best_pos":5,"similarity":0.407,"stretto":false,"stretto_voices":0,"combination":[],"aug_dim":"","rhythm_ratio":1.0,"mirror":false,"chromatic_density":0.267,"complexity":0.552,"dissonance":0.084},{"voice":3,"pitch":55,"start":136.3332,"duration":0.3333,"velocity":90,"measure":52,"beat":1.5,"subject_pos":-1,"motif":"","motif_pos":-1,"best_pos":1,"similarity":0.386,"stretto":false,"stretto_voices":0,"combination":[],"aug_dim":"","rhythm_ratio":1.0,"mirror":false,"chromatic_density":0.267,"complexity":0.552,"dissonance":0.084},{"voice":0,"pitch":76,"start":136.6665,"duration":0.6667,"velocity":90,"measure":52,"beat":2.0,"subject_pos":-1,"motif":"","motif_pos":-1,"best_pos":6,"similarity":0.732,"stretto":false,"stretto_voices":0,"combination":[],"aug_dim":"","rhythm_ratio":1.0,"mirror":false,"chromatic_density":0.267,"complexity":0.552,"dissonance":0.084},{"voice":1,"pitch":67,"start":136.6665,"duration":0.6667,"velocity":90,"measure":52,"beat":2.0,"subject_pos":-1,"motif":"","motif_pos":-1,"best_pos":2,"similarity":0.464,"stretto":false,"stretto_voices":0,"combination":[],"aug_dim":"","rhythm_ratio":1.0,"mirror":false,"chromatic_density":0.267,"complexity":0.552,"dissonance":0.084},{"voice":2,"pitch":61,"start":136.6665,"duration":0.6667,"velocity":90,"measure":52,"beat":2.0,"subject_pos":-1,"motif":"enigmatic_cell","motif_pos":0,"best_pos":0,"similarity":1.0,"stretto":false,"stretto_voices":0,"combination":[],"aug_dim":"","rhythm_ratio":1.0,"mirror":false,"chromatic_density":0.267,"complexity":0.552,"dissonance":0.084},{"voice":3,"pitch":53,"start":136.6665,"duration":0.3333,"velocity":90,"measure":52,"beat":2.0,"subject_pos":-1,"motif":"","motif_pos":-1,"best_pos":3,"similarity":0.457,"stretto":false,"stretto_voices":0,"combination":[],"aug_dim":"","rhythm_ratio":1.0,"mirror":false,"chromatic_density":0.267,"complexity":0.552,"dissonance":0.084},{"voice":3,"pitch":52,"start":136.9999,"duration":0.3333,"velocity":90,"measure":52,"beat":2.5,"subject_pos":-1,"motif":"","motif_pos":-1,"best_pos":4,"similarity":0.4,"stretto":false,"stretto_voices":0,"combination":[],"aug_dim":"","rhythm_ratio":1.0,"mirror":false,"chromatic_density":0.267,"complexity":0.552,"dissonance":0.084},{"voice":0,"pitch":77,"start":137.3332,"duration":0.6667,"velocity":90,"measure":52,"beat":3.0,"subject_pos":-1,"motif":"","motif_pos":-1,"best_pos":5,"similarity":0.593,"stretto":false,"stretto_voices":0,"combination":[],"aug_dim":"","rhythm_ratio":1.0,"mirror":false,"chromatic_density":0.267,"complexity":0.552,"dissonance":0.084},{"voice":1,"pitch":65,"start":137.3332,"duration":0.6667,"velocity":90,"measure":52,"beat":3.0,"subject_pos":-1,"motif":"","motif_pos":-1,"best_pos":4,"similarity":0.4,"stretto":false,"stretto_voices":0,"combination":[],"aug_dim":"","rhythm_ratio":1.0,"mirror":false,"chromatic_density":0.267,"complexity":0.552,"dissonance":0.084},{"voice":2,"pitch":62,"start":137.3332,"duration":0.3333,"velocity":90,"measure":52,"beat":3.0,"subject_pos":-1,"motif":"enigmatic_cell","motif_pos":1,"best_pos":1,"similarity":1.0,"stretto":false,"stretto_voices":0,"combination":[],"aug_dim":"","rhythm_ratio":1.0,"mirror":false,"chromatic_density":0.267,"complexity":0.552,"dissonance":0.084},{"voice":3,"pitch":50,"start":137.3332,"duration":0.3333,"velocity":90,"measure":52,"beat":3.0,"subject_pos":-1,"motif":"","motif_pos":-1,"best_pos":2,"similarity":0.364,"stretto":false,"stretto_voices":0,"combination":[],"aug_dim":"","rhythm_ratio":1.0,"mirror":false,"chromatic_density":0.267,"complexity":0.552,"dissonance":0.084},{"voice":3,"pitch":45,"start":137.6665,"duration":0.3333,"velocity":90,"measure":52,"beat":3.5,"subject_pos":-1,"motif":"","motif_pos":-1,"best_pos":0,"similarity":0.464,"stretto":false,"stretto_voices":0,"combination":[],"aug_dim":"","rhythm_ratio":1.0,"mirror":false,"chromatic_density":0.267,"complexity":0.552,"dissonance":0.084},{"voice":0,"pitch":78,"start":137.9999,"duration":0.6667,"velocity":90,"measure":52,"beat":4.0,"subject_pos":-1,"motif":"","motif_pos":-1,"best_pos":4,"similarity":0.593,"stretto":false,"stretto_voices":0,"combination":[],"aug_dim":"","rhythm_ratio":1.0,"mirror":false,"chromatic_density":0.267,"complexity":0.552,"dissonance":0.084},{"voice":3,"pitch":50,"start":137.9999,"duration":0.3333,"velocity":90,"measure":52,"beat":4.0,"subject_pos":-1,"motif":"","motif_pos":-1,"best_pos":1,"similarity":0.65,"stretto":false,"stretto_voices":0,"combination":[],"aug_dim":"","rhythm_ratio":1.0,"mirror":false,"chromatic_density":0.267,"complexity":0.552,"dissonance":0.084},{"voice":1,"pitch":74,"start":138.3332,"duration":0.3333,"velocity":90,"measure":52,"beat":4.5,"subject_pos":-1,"motif":"","motif_pos":-1,"best_pos":5,"similarity":0.407,"stretto":false,"stretto_voices":0,"combination":[],"aug_dim":"","rhythm_ratio":1.0,"mirror":false,"chromatic_density":0.267,"complexity":0.552,"dissonance":0.084},{"voice":3,"pitch":48,"start":138.3332,"duration":0.3333,"velocity":90,"measure":52,"beat":4.5,"subject_pos":-1,"motif":"","motif_pos":-1,"best_pos":2,"similarity":0.593,"stretto":false,"stretto_voices":0,"combination":[],"aug_dim":"","rhythm_ratio":1.0,"mirror":false,"chromatic_density":0.267,"complexity":0.552,"dissonance":0.084},{"voice":0,"pitch":79,"start":138.6665,"duration":0.6667,"velocity":90,"measure":53,"beat":1.0,"subject_pos":-1,"motif":"","motif_pos":-1,"best_pos":5,"similarity":0.757,"stretto":false,"stretto_voices":0,"combination":[],"aug_dim":"","rhythm_ratio":1.0,"mirror":false,"chromatic_density":0.267,"complexity":0.513,"dissonance":0.129},{"voice":1,"pitch":76,"start":138.6665,"duration":0.3333,"velocity":90,"measure":53,"beat":1.0,"subject_pos":-1,"motif":"","motif_pos":-1,"best_pos":6,"similarity":0.35,"stretto":false,"stretto_voices":0,"combination":[],"aug_dim":"","rhythm_ratio":1.0,"mirror":false,"chromatic_density":0.267,"complexity":0.513,"dissonance":0.129},{"voice":3,"pitch":46,"start":138.6665,"duration":0.3333,"velocity":90,"measure":53,"beat":1.0,"subject_pos":-1,"motif":"","motif_pos":-1,"best_pos":3,"similarity":0.407,"stretto":false,"stretto_voices":0,"combination":[],"aug_dim":"","rhythm_ratio":1.0,"mirror":false,"chromatic_density":0.267,"complexity":0.513,"dissonance":0.129},{"voice":1,"pitch":74,"start":138.9999,"duration":0.3333,"velocity":90,"measure":53,"beat":1.5,"subject_pos":-1,"motif":"","motif_pos":-1,"best_pos":4,"similarity":0.5,"stretto":false,"stretto_voices":0,"combination":[],"aug_dim":"","rhythm_ratio":1.0,"mirror":false,"chromatic_density":0.267,"complexity":0.513,"dissonance":0.129},{"voice":3,"pitch":48,"start":138.9999,"duration":0.3333,"velocity":90,"measure":53,"beat":1.5,"subject_pos":-1,"motif":"","motif_pos":-1,"best_pos":1,"similarity":0.386,"stretto":false,"stretto_voices":0,"combination":[],"aug_dim":"","rhythm_ratio":1.0,"mirror":false,"chromatic_density":0.267,"complexity":0.513,"dissonance":0.129},{"voice":0,"pitch":81,"start":139.3332,"duration":0.6667,"velocity":90,"measure":53,"beat":2.0,"subject_pos":-1,"motif":"enigmatic_cell","motif_pos":0,"best_pos":0,"similarity":1.0,"stretto":false,"stretto_voices":0,"combination":[],"aug_dim":"","rhythm_ratio":1.0,"mirror":false,"chromatic_density":0.267,"complexity":0.513,"dissonance":0.129},{"voice":1,"pitch":76,"start":139.3332,"duration":0.3333,"velocity":90,"measure":53,"beat":2.0,"subject_pos":-1,"motif":"","motif_pos":-1,"best_pos":5,"similarity":0.643,"stretto":false,"stretto_voices":0,"combination":[],"aug_dim":"","rhythm_ratio":1.0,"mirror":false,"chromatic_density":0.267,"complexity":0.513,"dissonance":0.129},{"voice":3,"pitch":46,"start":139.3332,"duration":0.3333,"velocity":90,"measure":53,"beat":2.0,"subject_pos":-1,"motif":"","motif_pos":-1,"best_pos":3,"similarity":0.457,"stretto":false,"stretto_voices":0,"combination":[],"aug_dim":"","rhythm_ratio":1.0,"mirror":false,"chromatic_density":0.267,"complexity":0.513,"dissonance":0.129},{"voice":1,"pitch":78,"start":139.6665,"duration":0.3333,"velocity":90,"measure":53,"beat":2.5,"subject_pos":-1,"motif":"","motif_pos":-1,"best_pos":6,"similarity":0.679,"stretto":false,"stretto_voices":0,"combination":[],"aug_dim":"","rhythm_ratio":1.0,"mirror":false,"chromatic_density":0.267,"complexity":0.513,"dissonance":0.129},{"voice":3,"pitch":45,"start":139.6665,"duration":0.3333,"velocity":90,"measure":53,"beat":2.5,"subject_pos":-1,"motif":"","motif_pos":-1,"best_pos":4,"similarity":0.4,"stretto":false,"stretto_voices":0,"combination":[],"aug_dim":"","rhythm_ratio":1.0,"mirror":false,"chromatic_density":0.267,"complexity":0.513,"dissonance":0.129},{"voice":0,"pitch":82,"start":139.9999,"duration":1.6667,"velocity":90,"measure":53,"beat":3.0,"subject_pos":-1,"motif":"enigmatic_cell","motif_pos":1,"best_pos":1,"similarity":1.0,"stretto":false,"stretto_voices":0,"combination":[],"aug_dim":"","rhythm_ratio":1.0,"mirror":false,"chromatic_density":0.267,"complexity":0.513,"dissonance":0.129},{"voice":1,"pitch":79,"start":139.9999,"duration":0.3333,"velocity":90,"measure":53,"beat":3.0,"subject_pos":-1,"motif":"","motif_pos":-1,"best_pos":7,"similarity":0.464,"stretto":false,"stretto_voices":0,"combination":[],"aug_dim":"","rhythm_ratio":1.0,"mirror":false,"chromatic_density":0.267,"complexity":0.513,"dissonance":0.129},{"voice":3,"pitch":43,"start":139.9999,"duration":0.3333,"velocity":90,"measure":53,"beat":3.0,"subject_pos":-1,"motif":"","motif_pos":-1,"best_pos":0,"similarity":0.304,"stretto":false,"stretto_voices":0,"combination":[],"aug_dim":"","rhythm_ratio":1.0,"mirror":false,"chromatic_density":0.267,"complexity":0.513,"dissonance":0.129},{"voice":1,"pitch":77,"start":140.3332,"duration":0.3333,"velocity":90,"measure":53,"beat":3.5,"subject_pos":-1,"motif":"","motif_pos":-1,"best_pos":2,"similarity":0.604,"stretto":false,"stretto_voices":0,"combination":[],"aug_dim":"","rhythm_ratio":1.0,"mirror":false,"chromatic_density":0.267,"complexity":0.513,"dissonance":0.129},{"voice":3,"pitch":50,"start":140.3332,"duration":0.3333,"velocity":90,"measure":53,"beat":3.5,"subject_pos":-1,"motif":"","motif_pos":-1,"best_pos":1,"similarity":0.393,"stretto":false,"stretto_voices":0,"combination":[],"aug_dim":"","rhythm_ratio":1.0,"mirror":false,"chromatic_density":0.267,"complexity":0.513,"dissonance":0.129},{"voice":1,"pitch":75,"start":140.6665,"duration":0.3333,"velocity":90,"measure":53,"beat":4.0,"subject_pos":-1,"motif":"","motif_pos":-1,"best_pos":3,"similarity":0.65,"stretto":false,"stretto_voices":0,"combination":[],"aug_dim":"","rhythm_ratio":1.0,"mirror":false,"chromatic_density":0.267,"complexity":0.513,"dissonance":0.129},{"voice":3,"pitch":55,"start":140.6665,"duration":1.3333,"velocity":90,"measure":53,"beat":4.0,"subject_pos":-1,"motif":"","motif_pos":-1,"best_pos":1,"similarity":0.536,"stretto":false,"stretto_voices":0,"combination":[],"aug_dim":"","rhythm_ratio":1.0,"mirror":false,"chromatic_density":0.267,"complexity":0.513,"dissonance":0.129},{"voice":1,"pitch":74,"start":140.9999,"duration":0.3333,"velocity":90,"measure":53,"beat":4.5,"subject_pos":-1,"motif":"","motif_pos":-1,"best_pos":3,"similarity":0.714,"stretto":false,"stretto_voices":0,"combination":[],"aug_dim":"","rhythm_ratio":1.0,"mirror":false,"chromatic_density":0.267,"complexity":0.513,"dissonance":0.129},{"voice":1,"pitch":73,"start":141.3332,"duration":0.6667,"velocity":90,"measure":54,"beat":1.0,"subject_pos":-1,"motif":"","motif_pos":-1,"best_pos":4,"similarity":0.821,"stretto":false,"stretto_voices":0,"combination":[],"aug_dim":"","rhythm_ratio":1.0,"mirror":false,"chromatic_density":0.455,"complexity":0.533,"dissonance":0.091},{"voice":0,"pitch":76,"start":141.6665,"duration":0.3333,"velocity":90,"measure":54,"beat":1.5,"subject_pos":-1,"motif":"enigmatic_cell","motif_pos":2,"best_pos":2,"similarity":1.0,"stretto":false,"stretto_voices":0,"combination":[],"aug_dim":"","rhythm_ratio":1.0,"mirror":false,"chromatic_density":0.455,"complexity":0.533,"dissonance":0.091},{"voice":0,"pitch":81,"start":141.9999,"duration":0.6667,"velocity":90,"measure":54,"beat":2.0,"subject_pos":-1,"motif":"","motif_pos":-1,"best_pos":1,"similarity":0.536,"stretto":false,"stretto_voices":0,"combination":[],"aug_dim":"","rhythm_ratio":1.0,"mirror":false,"chromatic_density":0.455,"complexity":0.533,"dissonance":0.091},{"voice":1,"pitch":74,"start":141.9999,"duration":1.3333,"velocity":90,"measure":54,"beat":2.0,"subject_pos":-1,"motif":"","motif_pos":-1,"best_pos":5,"similarity":0.732,"stretto":false,"stretto_voices":0,"combination":[],"aug_dim":"","rhythm_ratio":1.0,"mirror":false,"chromatic_density":0.455,"complexity":0.533,"dissonance":0.091},{"voice":3,"pitch":54,"start":141.9999,"duration":0.6667,"velocity":90,"measure":54,"beat":2.0,"subject_pos":-1,"motif":"","motif_pos":-1,"best_pos":2,"similarity":0.507,"stretto":false,"stretto_voices":0,"combination":[],"aug_dim":"","rhythm_ratio":1.0,"mirror":false,"chromatic_density":0.455,"complexity":0.533,"dissonance":0.091},{"voice":2,"pitch":57,"start":142.3332,"duration":0.3333,"velocity":90,"measure":54,"beat":2.5,"subject_pos":-1,"motif":"enigmatic_cell","motif_pos":2,"best_pos":2,"similarity":1.0,"stretto":false,"stretto_voices":0,"combination":[],"aug_dim":"","rhythm_ratio":1.0,"mirror":false,"chromatic_density":0.455,"complexity":0.533,"dissonance":0.091},{"voice":0,"pitch":80,"start":142.6665,"duration":0.6667,"velocity":90,"measure":54,"beat":3.0,"subject_pos":-1,"motif":"","motif_pos":-1,"best_pos":2,"similarity":0.518,"stretto":false,"stretto_voices":0,"combination":[],"aug_dim":"","rhythm_ratio":1.0,"mirror":false,"chromatic_density":0.455,"complexity":0.533,"dissonance":0.091},{"voice":2,"pitch":59,"start":142.6665,"duration":0.3333,"velocity":90,"measure":54,"beat":3.0,"subject_pos":-1,"motif":"","motif_pos":-1,"best_pos":3,"similarity":0.364,"stretto":false,"stretto_voices":0,"combination":[],"aug_dim":"","rhythm_ratio":1.0,"mirror":false,"chromatic_density":0.455,"complexity":0.533,"dissonance":0.091},{"voice":3,"pitch":53,"start":142.6665,"duration":0.6667,"velocity":90,"measure":54,"beat":3.0,"subject_pos":-1,"motif":"","motif_pos":-1,"best_pos":3,"similarity":0.521,"stretto":false,"stretto_voices":0,"combination":[],"aug_dim":"","rhythm_ratio":1.0,"mirror":false,"chromatic_density":0.455,"complexity":0.533,"dissonance":0.091},{"voice":2,"pitch":57,"start":142.9999,"duration":0.3333,"velocity":90,"measure":54,"beat":3.5,"subject_pos":-1,"motif":"","motif_pos":-1,"best_pos":4,"similarity":0.536,"stretto":false,"stretto_voices":0,"combination":[],"aug_dim":"","rhythm_ratio":1.0,"mirror":false,"chromatic_density":0.455,"complexity":0.533,"dissonance":0.091},{"voice":0,"pitch":79,"start":143.3332,"duration":0.6667,"velocity":90,"measure":54,"beat":4.0,"subject_pos":-1,"motif":"","motif_pos":-1,"best_pos":3,"similarity":0.543,"stretto":false,"stretto_voices":0,"combination":[],"aug_dim":"","rhythm_ratio":1.0,"mirror":false,"chromatic_density":0.455,"complexity":0.533,"dissonance":0.091},{"voice":1,"pitch":76,"start":143.3332,"duration":0.6667,"velocity":90,"measure":54,"beat":4.0,"subject_pos":-1,"motif":"","motif_pos":-1,"best_pos":6,"similarity":0.5,"stretto":false,"stretto_voices":0,"combination":[],"aug_dim":"","rhythm_ratio":1.0,"mirror":false,"chromatic_density":0.455,"complexity":0.533,"dissonance":0.091},{"voice":2,"pitch":59,"start":143.3332,"duration":0.3333,"velocity":90,"measure":54,"beat":4.0,"subject_pos":-1,"motif":"","motif_pos":-1,"best_pos":5,"similarity":0.643,"stretto":false,"stretto_voices":0,"combination":[],"aug_dim":"","rhythm_ratio":1.0,"mirror":false,"chromatic_density":0.455,"complexity":0.533,"dissonance":0.091},{"voice":3,"pitch":52,"start":143.3332,"duration":0.6667,"velocity":90,"measure":54,"beat":4.0,"subject_pos":-1,"motif":"","motif_pos":-1,"best_pos":2,"similarity":0.446,"stretto":false,"stretto_voices":0,"combination":[],"aug_dim":"","rhythm_ratio":1.0,"mirror":false,"chromatic_density":0.455,"complexity":0.533,"dissonance":0.091},{"voice":2,"pitch":61,"start":143.6665,"duration":0.3333,"velocity":90,"measure":54,"beat":4.5,"subject_pos":-1,"motif":"enigmatic_cell","motif_pos":0,"best_pos":0,"similarity":1.0,"stretto":false,"stretto_voices":0,"combination":[],"aug_dim":"","rhythm_ratio":1.0,"mirror":false,"chromatic_density":0.455,"complexity":0.533,"dissonance":0.091},{"voice":0,"pitch":78,"start":143.9999,"duration":0.6667,"velocity":90,"measure":55,"beat":1.0,"subject_pos":-1,"motif":"","motif_pos":-1,"best_pos":3,"similarity":0.471,"stretto":false,"stretto_voices":0,"combination":[],"aug_dim":"","rhythm_ratio":1.0,"mirror":false,"chromatic_density":0.727,"complexity":0.575,"dissonance":0.08},{"voice":1,"pitch":69,"start":143.9999,"duration":0.6667,"velocity":90,"measure":55,"beat":1.0,"subject_pos":-1,"motif":"tail_inv","motif_pos":0,"best_pos":0,"similarity":1.0,"stretto":false,"stretto_voices":0,"combination":[],"aug_dim":"","rhythm_ratio":1.0,"mirror":false,"chromatic_density":0.727,"complexity":0.575,"dissonance":0.08},{"voice":2,"pitch":62,"start":143.9999,"duration":0.3333,"velocity":90,"measure":55,"beat":1.0,"subject_pos":-1,"motif":"enigmatic_cell","motif_pos":1,"best_pos":1,"similarity":1.0,"stretto":false,"stretto_voices":0,"combination":[],"aug_dim":"","rhythm_ratio":1.0,"mirror":false,"chromatic_density":0.727,"complexity":0.575,"dissonance":0.08},{"voice":2,"pitch":57,"start":144.3332,"duration":0.3333,"velocity":90,"measure":55,"beat":1.5,"subject_pos":-1,"motif":"enigmatic_cell","motif_pos":2,"best_pos":2,"similarity":1.0,"stretto":false,"stretto_voices":0,"combination":[],"aug_dim":"","rhythm_ratio":1.0,"mirror":false,"chromatic_density":0.727,"complexity":0.575,"dissonance":0.08},{"voice":0,"pitch":77,"start":144.6665,"duration":0.6667,"velocity":90,"measure":55,"beat":2.0,"subject_pos":-1,"motif":"","motif_pos":-1,"best_pos":3,"similarity":0.471,"stretto":false,"stretto_voices":0,"combination":[],"aug_dim":"","rhythm_ratio":1.0,"mirror":false,"chromatic_density":0.727,"complexity":0.575,"dissonance":0.08},{"voice":2,"pitch":62,"start":144.6665,"duration":0.6667,"velocity":90,"measure":55,"beat":2.0,"subject_pos":-1,"motif":"","motif_pos":-1,"best_pos":1,"similarity":0.307,"stretto":false,"stretto_voices":0,"combination":[],"aug_dim":"","rhythm_ratio":1.0,"mirror":false,"chromatic_density":0.727,"complexity":0.575,"dissonance":0.08},{"voice":3,"pitch":50,"start":144.6665,"duration":0.6667,"velocity":90,"measure":55,"beat":2.0,"subject_pos":-1,"motif":"","motif_pos":-1,"best_pos":3,"similarity":0.543,"stretto":false,"stretto_voices":0,"combination":[],"aug_dim":"","rhythm_ratio":1.0,"mirror":false,"chromatic_density":0.727,"complexity":0.575,"dissonance":0.08},{"voice":1,"pitch":70,"start":144.9999,"duration":0.6667,"velocity":90,"measure":55,"beat":2.5,"subject_pos":-1,"motif":"tail_inv","motif_pos":1,"best_pos":1,"similarity":1.0,"stretto":false,"stretto_voices":0,"combination":[],"aug_dim":"","rhythm_ratio":1.0,"mirror":false,"chromatic_density":0.727,"complexity":0.575,"dissonance":0.08},{"voice":0,"pitch":76,"start":145.3332,"duration":0.6667,"velocity":90,"measure":55,"beat":3.0,"subject_pos":-1,"motif":"","motif_pos":-1,"best_pos":3,"similarity":0.471,"stretto":false,"stretto_voices":0,"combination":[],"aug_dim":"","rhythm_ratio":1.0,"mirror":false,"chromatic_density":0.727,"complexity":0.575,"dissonance":0.08},{"voice":3,"pitch":49,"start":145.3332,"duration":0.6667,"velocity":90,"measure":55,"beat":3.0,"subject_pos":-1,"motif":"","motif_pos":-1,"best_pos":3,"similarity":0.543,"stretto":false,"stretto_voices":0,"combination":[],"aug_dim":"","rhythm_ratio":1.0,"mirror":false,"chromatic_density":0.727,"complexity":0.575,"dissonance":0.08},{"voice":1,"pitch":69,"start":145.6665,"duration":0.3333,"velocity":90,"measure":55,"beat":3.5,"subject_pos":-1,"motif":"tail_inv","motif_pos":2,"best_pos":2,"similarity":1.0,"stretto":false,"stretto_voices":0,"combination":[],"aug_dim":"","rhythm_ratio":1.0,"mirror":false,"chromatic_density":0.727,"complexity":0.575,"dissonance":0.08},{"voice":0,"pitch":75,"start":145.9999,"duration":0.6667,"velocity":90,"measure":55,"beat":4.0,"subject_pos":-1,"motif":"","motif_pos":-1,"best_pos":4,"similarity":0.514,"stretto":false,"stretto_voices":0,"combination":[],"aug_dim":"","rhythm_ratio":1.0,"mirror":false,"chromatic_density":0.727,"complexity":0.575,"dissonance":0.08},{"voice":1,"pitch":67,"start":145.9999,"duration":0.3333,"velocity":90,"measure":55,"beat":4.0,"subject_pos":-1,"motif":"tail_inv","motif_pos":3,"best_pos":3,"similarity":1.0,"stretto":false,"stretto_voices":0,"combination":[],"aug_dim":"","rhythm_ratio":1.0,"mirror":false,"chromatic_density":0.727,"complexity":0.575,"dissonance":0.08},{"voice":3,"pitch":48,"start":145.9999,"duration":0.6667,"velocity":90,"measure":55,"beat":4.0,"subject_pos":-1,"motif":"","motif_pos":-1,"best_pos":4,"similarity":0.496,"stretto":false,"stretto_voices":0,"combination":[],"aug_dim":"","rhythm_ratio":1.0,"mirror":false,"chromatic_density":0.727,"complexity":0.575,"dissonance":0.08},{"voice":1,"pitch":66,"start":146.3332,"duration":0.3333,"velocity":90,"measure":55,"beat":4.5,"subject_pos":-1,"motif":"tail_inv","motif_pos":4,"best_pos":4,"similarity":1.0,"stretto":false,"stretto_voices":0,"combination":[],"aug_dim":"","rhythm_ratio":1.0,"mirror":false,"chromatic_density":0.727,"complexity":0.575,"dissonance":0.08},{"voice":0,"pitch":74,"start":146.6665,"duration":1.0,"velocity":90,"measure":56,"beat":1.0,"subject_pos":-1,"motif":"","motif_pos":-1,"best_pos":3,"similarity":0.643,"stretto":false,"stretto_voices":0,"combination":[],"aug_dim":"","rhythm_ratio":1.0,"mirror":false,"chromatic_density":0.733,"complexity":0.55,"dissonance":0.188},{"voice":1,"pitch":67,"start":146.6665,"duration":0.6667,"velocity":90,"measure":56,"beat":1.0,"subject_pos":-1,"motif":"","motif_pos":-1,"best_pos":5,"similarity":0.75,"stretto":false,"stretto_voices":0,"combination":[],"aug_dim":"","rhythm_ratio":1.0,"mirror":false,"chromatic_density":0.733,"complexity":0.55,"dissonance":0.188},{"voice":3,"pitch":47,"start":146.6665,"duration":0.6667,"velocity":90,"measure":56,"beat":1.0,"subject_pos":-1,"motif":"","motif_pos":-1,"best_pos":3,"similarity":0.471,"stretto":false,"stretto_voices":0,"combination":[],"aug_dim":"","rhythm_ratio":1.0,"mirror":false,"chromatic_density":0.733,"complexity":0.55,"dissonance":0.188},{"voice":2,"pitch":49,"start":146.9999,"duration":0.3333,"velocity":90,"measure":56,"beat":1.5,"subject_pos":-1,"motif":"","motif_pos":-1,"best_pos":4,"similarity":0.536,"stretto":false,"stretto_voices":0,"combination":[],"aug_dim":"","rhythm_ratio":1.0,"mirror":false,"chromatic_density":0.733,"complexity":0.55,"dissonance":0.188},{"voice":1,"pitch":68,"start":147.3332,"duration":0.6667,"velocity":90,"measure":56,"beat":2.0,"subject_pos":-1,"motif":"","motif_pos":-1,"best_pos":6,"similarity":0.643,"stretto":false,"stretto_voices":0,"combination":[],"aug_dim":"","rhythm_ratio":1.0,"mirror":false,"chromatic_density":0.733,"complexity":0.55,"dissonance":0.188},{"voice":2,"pitch":50,"start":147.3332,"duration":0.3333,"velocity":90,"measure":56,"beat":2.0,"subject_pos":-1,"motif":"","motif_pos":-1,"best_pos":5,"similarity":0.714,"stretto":false,"stretto_voices":0,"combination":[],"aug_dim":"","rhythm_ratio":1.0,"mirror":false,"chromatic_density":0.733,"complexity":0.55,"dissonance":0.188},{"voice":3,"pitch":46,"start":147.3332,"duration":0.6667,"velocity":90,"measure":56,"beat":2.0,"subject_pos":-1,"motif":"","motif_pos":-1,"best_pos":4,"similarity":0.514,"stretto":false,"stretto_voices":0,"combination":[],"aug_dim":"","rhythm_ratio":1.0,"mirror":false,"chromatic_density":0.733,"complexity":0.55,"dissonance":0.188},{"voice":0,"pitch":73,"start":147.6665,"duration":0.3333,"velocity":90,"measure":56,"beat":2.5,"subject_pos":-1,"motif":"","motif_pos":-1,"best_pos":4,"similarity":0.793,"stretto":false,"stretto_voices":0,"combination":[],"aug_dim":"","rhythm_ratio":1.0,"mirror":false,"chromatic_density":0.733,"complexity":0.55,"dissonance":0.188},{"voice":2,"pitch":52,"start":147.6665,"duration":0.3333,"velocity":90,"measure":56,"beat":2.5,"subject_pos":-1,"motif":"","motif_pos":-1,"best_pos":6,"similarity":0.714,"stretto":false,"stretto_voices":0,"combination":[],"aug_dim":"","rhythm_ratio":1.0,"mirror":false,"chromatic_density":0.733,"complexity":0.55,"dissonance":0.188},{"voice":0,"pitch":74,"start":147.9999,"duration":1.0,"velocity":90,"measure":56,"beat":3.0,"subject_pos":-1,"motif":"","motif_pos":-1,"best_pos":5,"similarity":0.746,"stretto":false,"stretto_voices":0,"combination":[],"aug_dim":"","rhythm_ratio":1.0,"mirror":false,"chromatic_density":0.733,"complexity":0.55,"dissonance":0.188},{"voice":1,"pitch":69,"start":147.9999,"duration":0.6667,"velocity":90,"measure":56,"beat":3.0,"subject_pos":-1,"motif":"","motif_pos":-1,"best_pos":5,"similarity":0.629,"stretto":false,"stretto_voices":0,"combination":[],"aug_dim":"","rhythm_ratio":1.0,"mirror":false,"chromatic_density":0.733,"complexity":0.55,"dissonance":0.188},{"voice":2,"pitch":53,"start":147.9999,"duration":0.3333,"velocity":90,"measure":56,"beat":3.0,"subject_pos":-1,"motif":"","motif_pos":-1,"best_pos":7,"similarity":0.5,"stretto":false,"stretto_voices":0,"combination":[],"aug_dim":"","rhythm_ratio":1.0,"mirror":false,"chromatic_density":0.733,"complexity":0.55,"dissonance":0.188},{"voice":3,"pitch":45,"start":147.9999,"duration":0.6667,"velocity":90,"measure":56,"beat":3.0,"subject_pos":-1,"motif":"","motif_pos":-1,"best_pos":3,"similarity":0.589,"stretto":false,"stretto_voices":0,"combination":[],"aug_dim":"","rhythm_ratio":1.0,"mirror":false,"chromatic_density":0.733,"complexity":0.55,"dissonance":0.188},{"voice":2,"pitch":52,"start":148.3332,"duration":0.3333,"velocity":90,"measure":56,"beat":3.5,"subject_pos":-1,"motif":"","motif_pos":-1,"best_pos":4,"similarity":0.614,"stretto":false,"stretto_voices":0,"combination":[],"aug_dim":"","rhythm_ratio":1.0,"mirror":false,"chromatic_density":0.733,"complexity":0.55,"dissonance":0.188},{"voice":1,"pitch":71,"start":148.6665,"duration":0.6667,"velocity":90,"measure":56,"beat":4.0,"subject_pos":-1,"motif":"","motif_pos":-1,"best_pos":6,"similarity":0.475,"stretto":false,"stretto_voices":0,"combination":[],"aug_dim":"","rhythm_ratio":1.0,"mirror":false,"chromatic_density":0.733,"complexity":0.55,"dissonance":0.188},{"voice":2,"pitch":53,"start":148.6665,"duration":0.6667,"velocity":90,"measure":56,"beat":4.0,"subject_pos":-1,"motif":"enigmatic_cell","motif_pos":0,"best_pos":0,"similarity":1.0,"stretto":false,"stretto_voices":0,"combination":[],"aug_dim":"","rhythm_ratio":1.0,"mirror":false,"chromatic_density":0.733,"complexity":0.55,"dissonance":0.188},{"voice":3,"pitch":44,"start":148.6665,"duration":0.6667,"velocity":90,"measure":56,"beat":4.0,"subject_pos":-1,"motif":"","motif_pos":-1,"best_pos":4,"similarity":0.75,"stretto":false,"stretto_voices":0,"combination":[],"aug_dim":"","rhythm_ratio":1.0,"mirror":false,"chromatic_density":0.733,"complexity":0.55,"dissonance":0.188},{"voice":0,"pitch":76,"start":148.9999,"duration":0.2569,"velocity":90,"measure":56,"beat":4.5,"subject_pos":-1,"motif":"","motif_pos":-1,"best_pos":6,"similarity":0.529,"stretto":false,"stretto_voices":0,"combination":[],"aug_dim":"","rhythm_ratio":1.0,"mirror":false,"chromatic_density":0.733,"complexity":0.55,"dissonance":0.188},{"voice":0,"pitch":74,"start":149.2568,"duration":0.0747,"velocity":90,"measure":56,"beat":4.8854,"subject_pos":-1,"motif":"","motif_pos":-1,"best_pos":3,"similarity":0.464,"stretto":false,"stretto_voices":0,"combination":[],"aug_dim":"","rhythm_ratio":1.0,"mirror":false,"chromatic_density":0.733,"complexity":0.55,"dissonance":0.188},{"voice":0,"pitch":73,"start":149.3332,"duration":0.6667,"velocity":90,"measure":57,"beat":1.0,"subject_pos":-1,"motif":"","motif_pos":-1,"best_pos":4,"similarity":0.411,"stretto":false,"stretto_voices":0,"combination":[],"aug_dim":"","rhythm_ratio":1.0,"mirror":false,"chromatic_density":0.5,"complexity":0.575,"dissonance":0.096},{"voice":1,"pitch":69,"start":149.3332,"duration":0.6667,"velocity":90,"measure":57,"beat":1.0,"subject_pos":-1,"motif":"","motif_pos":-1,"best_pos":2,"similarity":0.354,"stretto":false,"stretto_voices":0,"combination":[],"aug_dim":"","rhythm_ratio":1.0,"mirror":false,"chromatic_density":0.5,"complexity":0.575,"dissonance":0.096},{"voice":2,"pitch":52,"start":149.3332,"duration":0.6667,"velocity":90,"measure":57,"beat":1.0,"subject_pos":-1,"motif":"enigmatic_cell","motif_pos":1,"best_pos":1,"similarity":1.0,"stretto":false,"stretto_voices":0,"combination":[],"aug_dim":"","rhythm_ratio":1.0,"mirror":false,"chromatic_density":0.5,"complexity":0.575,"dissonance":0.096},{"voice":3,"pitch":45,"start":149.3332,"duration":0.6667,"velocity":90,"measure":57,"beat":1.0,"subject_pos":-1,"motif":"","motif_pos":-1,"best_pos":5,"similarity":0.661,"stretto":false,"stretto_voices":0,"combination":[],"aug_dim":"","rhythm_ratio":1.0,"mirror":false,"chromatic_density":0.5,"complexity":0.575,"dissonance":0.096},{"voice":0,"pitch":77,"start":149.9999,"duration":0.6667,"velocity":90,"measure":57,"beat":2.0,"subject_pos":-1,"motif":"","motif_pos":-1,"best_pos":1,"similarity":0.321,"stretto":false,"stretto_voices":0,"combination":[],"aug_dim":"","rhythm_ratio":1.0,"mirror":false,"chromatic_density":0.5,"complexity":0.575,"dissonance":0.096},{"voice":2,"pitch":57,"start":149.9999,"duration":0.6667,"velocity":90,"measure":57,"beat":2.0,"subject_pos":-1,"motif":"enigmatic_cell","motif_pos":2,"best_pos":2,"similarity":1.0,"stretto":false,"stretto_voices":0,"combination":[],"aug_dim":"","rhythm_ratio":1.0,"mirror":false,"chromatic_density":0.5,"complexity":0.575,"dissonance":0.096},{"voice":1,"pitch":61,"start":150.3332,"duration":0.3333,"velocity":90,"measure":57,"beat":2.5,"subject_pos":-1,"motif":"","motif_pos":-1,"best_pos":4,"similarity":0.45,"stretto":false,"stretto_voices":0,"combination":[],"aug_dim":"","rhythm_ratio":1.0,"mirror":false,"chromatic_density":0.5,"complexity":0.575,"dissonance":0.096},{"voice":0,"pitch":71,"start":150.6665,"duration":0.6667,"velocity":90,"measure":57,"beat":3.0,"subject_pos":-1,"motif":"","motif_pos":-1,"best_pos":2,"similarity":0.364,"stretto":false,"stretto_voices":0,"combination":[],"aug_dim":"","rhythm_ratio":1.0,"mirror":false,"chromatic_density":0.5,"complexity":0.575,"dissonance":0.096},{"voice":1,"pitch":62,"start":150.6665,"duration":0.3333,"velocity":90,"measure":57,"beat":3.0,"subject_pos":-1,"motif":"","motif_pos":-1,"best_pos":3,"similarity":0.543,"stretto":false,"stretto_voices":0,"combination":[],"aug_dim":"","rhythm_ratio":1.0,"mirror":false,"chromatic_density":0.5,"complexity":0.575,"dissonance":0.096},{"voice":2,"pitch":56,"start":150.6665,"duration":0.6667,"velocity":90,"measure":57,"beat":3.0,"subject_pos":-1,"motif":"","motif_pos":-1,"best_pos":2,"similarity":0.518,"stretto":false,"stretto_voices":0,"combination":[],"aug_dim":"","rhythm_ratio":1.0,"mirror":false,"chromatic_density":0.5,"complexity":0.575,"dissonance":0.096},{"voice":1,"pitch":61,"start":150.9998,"duration":0.3333,"velocity":90,"measure":57,"beat":3.5,"subject_pos":-1,"motif":"","motif_pos":-1,"best_pos":4,"similarity":0.736,"stretto":false,"stretto_voices":0,"combination":[],"aug_dim":"","rhythm_ratio":1.0,"mirror":false,"chromatic_density":0.5,"complexity":0.575,"dissonance":0.096},{"voice":0,"pitch":70,"start":151.3332,"duration":0.6667,"velocity":90,"measure":57,"beat":4.0,"subject_pos":-1,"motif":"enigmatic_cell","motif_pos":0,"best_pos":0,"similarity":1.0,"stretto":false,"stretto_voices":0,"combination":[],"aug_dim":"","rhythm_ratio":1.0,"mirror":false,"chromatic_density":0.5,"complexity":0.575,"dissonance":0.096},{"voice":1,"pitch":62,"start":151.3332,"duration":0.3333,"velocity":90,"measure":57,"beat":4.0,"subject_pos":-1,"motif":"","motif_pos":-1,"best_pos":5,"similarity":0.721,"stretto":false,"stretto_voices":0,"combination":[],"aug_dim":"","rhythm_ratio":1.0,"mirror":false,"chromatic_density":0.5,"complexity":0.575,"dissonance":0.096},{"voice":2,"pitch":55,"start":151.3332,"duration":0.6667,"velocity":90,"measure":57,"beat":4.0,"subject_pos":-1,"motif":"","motif_pos":-1,"best_pos":3,"similarity":0.543,"stretto":false,"stretto_voices":0,"combination":[],"aug_dim":"","rhythm_ratio":1.0,"mirror":false,"chromatic_density":0.5,"complexity":0.575,"dissonance":0.096},{"voice":1,"pitch":64,"start":151.6665,"duration":0.3333,"velocity":90,"measure":57,"beat":4.5,"subject_pos":-1,"motif":"","motif_pos":-1,"best_pos":6,"similarity":0.5,"stretto":false,"stretto_voices":0,"combination":[],"aug_dim":"","rhythm_ratio":1.0,"mirror":false,"chromatic_density":0.5,"complexity":0.575,"dissonance":0.096},{"voice":3,"pitch":49,"start":151.6665,"duration":0.3333,"velocity":90,"measure":57,"beat":4.5,"subject_pos":-1,"motif":"","motif_pos":-1,"best_pos":6,"similarity":0.571,"stretto":false,"stretto_voices":0,"combination":[],"aug_dim":"","rhythm_ratio":1.0,"mirror":false,"chromatic_density":0.5,"complexity":0.575,"dissonance":0.096},{"voice":0,"pitch":69,"start":151.9998,"duration":0.6667,"velocity":90,"measure":58,"beat":1.0,"subject_pos":-1,"motif":"enigmatic_cell","motif_pos":1,"best_pos":1,"similarity":1.0,"stretto":false,"stretto_voices":0,"combination":[],"aug_dim":"","rhythm_ratio":1.0,"mirror":false,"chromatic_density":0.6,"complexity":0.593,"dissonance":0.124},{"voice":1,"pitch":57,"start":151.9998,"duration":0.6667,"velocity":90,"measure":58,"beat":1.0,"subject_pos":-1,"motif":"","motif_pos":-1,"best_pos":3,"similarity":0.343,"stretto":false,"stretto_voices":0,"combination":[],"aug_dim":"","rhythm_ratio":1.0,"mirror":false,"chromatic_density":0.6,"complexity":0.593,"dissonance":0.124},{"voice":2,"pitch":54,"start":151.9998,"duration":0.6667,"velocity":90,"measure":58,"beat":1.0,"subject_pos":-1,"motif":"","motif_pos":-1,"best_pos":3,"similarity":0.471,"stretto":false,"stretto_voices":0,"combination":[],"aug_dim":"","rhythm_ratio":1.0,"mirror":false,"chromatic_density":0.6,"complexity":0.593,"dissonance":0.124},{"voice":3,"pitch":50,"start":151.9998,"duration":0.6667,"velocity":90,"measure":58,"beat":1.0,"subject_pos":-1,"motif":"","motif_pos":-1,"best_pos":5,"similarity":0.436,"stretto":false,"stretto_voices":0,"combination":[],"aug_dim":"","rhythm_ratio":1.0,"mirror":false,"chromatic_density":0.6,"complexity":0.593,"dissonance":0.124},{"voice":0,"pitch":74,"start":152.6665,"duration":0.6667,"velocity":90,"measure":58,"beat":2.0,"subject_pos":-1,"motif":"enigmatic_cell","motif_pos":2,"best_pos":2,"similarity":1.0,"stretto":false,"stretto_voices":0,"combination":[],"aug_dim":"","rhythm_ratio":1.0,"mirror":false,"chromatic_density":0.6,"complexity":0.593,"dissonance":0.124},{"voice":2,"pitch":53,"start":152.6665,"duration":0.6667,"velocity":90,"measure":58,"beat":2.0,"subject_pos":-1,"motif":"","motif_pos":-1,"best_pos":3,"similarity":0.471,"stretto":false,"stretto_voices":0,"combination":[],"aug_dim":"","rhythm_ratio":1.0,"mirror":false,"chromatic_density":0.6,"complexity":0.593,"dissonance":0.124},{"voice":1,"pitch":57,"start":152.9998,"duration":0.3333,"velocity":90,"measure":58,"beat":2.5,"subject_pos":-1,"motif":"","motif_pos":-1,"best_pos":4,"similarity":0.536,"stretto":false,"stretto_voices":0,"combination":[],"aug_dim":"","rhythm_ratio":1.0,"mirror":false,"chromatic_density":0.6,"complexity":0.593,"dissonance":0.124},{"voice":0,"pitch":67,"start":153.3332,"duration":1.3333,"velocity":90,"measure":58,"beat":3.0,"subject_pos":-1,"motif":"","motif_pos":-1,"best_pos":2,"similarity":0.364,"stretto":false,"stretto_voices":0,"combination":[],"aug_dim":"","rhythm_ratio":1.0,"mirror":false,"chromatic_density":0.6,"complexity":0.593,"dissonance":0.124},{"voice":1,"pitch":58,"start":153.3332,"duration":0.3333,"velocity":90,"measure":58,"beat":3.0,"subject_pos":-1,"motif":"","motif_pos":-1,"best_pos":3,"similarity":0.564,"stretto":false,"stretto_voices":0,"combination":[],"aug_dim":"","rhythm_ratio":1.0,"mirror":false,"chromatic_density":0.6,"complexity":0.593,"dissonance":0.124},{"voice":2,"pitch":52,"start":153.3332,"duration":0.6667,"velocity":90,"measure":58,"beat":3.0,"subject_pos":-1,"motif":"","motif_pos":-1,"best_pos":3,"similarity":0.471,"stretto":false,"stretto_voices":0,"combination":[],"aug_dim":"","rhythm_ratio":1.0,"mirror":false,"chromatic_density":0.6,"complexity":0.593,"dissonance":0.124},{"voice":1,"pitch":57,"start":153.6665,"duration":0.3333,"velocity":90,"measure":58,"beat":3.5,"subject_pos":-1,"motif":"","motif_pos":-1,"best_pos":4,"similarity":0.782,"stretto":false,"stretto_voices":0,"combination":[],"aug_dim":"","rhythm_ratio":1.0,"mirror":false,"chromatic_density":0.6,"complexity":0.593,"dissonance":0.124},{"voice":1,"pitch":58,"start":153.9998,"duration":0.3333,"velocity":90,"measure":58,"beat":4.0,"subject_pos":-1,"motif":"","motif_pos":-1,"best_pos":5,"similarity":0.793,"stretto":false,"stretto_voices":0,"combination":[],"aug_dim":"","rhythm_ratio":1.0,"mirror":false,"chromatic_density":0.6,"complexity":0.593,"dissonance":0.124},{"voice":2,"pitch":51,"start":153.9998,"duration":0.6667,"velocity":90,"measure":58,"beat":4.0,"subject_pos":-1,"motif":"enigmatic_cell","motif_pos":0,"best_pos":0,"similarity":1.0,"stretto":false,"stretto_voices":0,"combination":[],"aug_dim":"","rhythm_ratio":1.0,"mirror":false,"chromatic_density":0.6,"complexity":0.593,"dissonance":0.124},{"voice":1,"pitch":60,"start":154.3332,"duration":0.3333,"velocity":90,"measure":58,"beat":4.5,"subject_pos":-1,"motif":"","motif_pos":-1,"best_pos":6,"similarity":0.643,"stretto":false,"stretto_voices":0,"combination":[],"aug_dim":"","rhythm_ratio":1.0,"mirror":false,"chromatic_density":0.6,"complexity":0.593,"dissonance":0.124},{"voice":3,"pitch":45,"start":154.3332,"duration":0.3333,"velocity":90,"measure":58,"beat":4.5,"subject_pos":-1,"motif":"tail_inv","motif_pos":0,"best_pos":0,"similarity":1.0,"stretto":false,"stretto_voices":0,"combination":[],"aug_dim":"","rhythm_ratio":1.0,"mirror":false,"chromatic_density":0.6,"complexity":0.593,"dissonance":0.124},{"voice":0,"pitch":65,"start":154.6665,"duration":0.6667,"velocity":90,"measure":59,"beat":1.0,"subject_pos":-1,"motif":"","motif_pos":-1,"best_pos":4,"similarity":0.45,"stretto":false,"stretto_voices":0,"combination":[],"aug_dim":"","rhythm_ratio":1.0,"mirror":false,"chromatic_density":0.286,"complexity":0.614,"dissonance":0.0},{"voice":1,"pitch":62,"start":154.6665,"duration":0.3333,"velocity":90,"measure":59,"beat":1.0,"subject_pos":-1,"motif":"","motif_pos":-1,"best_pos":1,"similarity":0.386,"stretto":false,"stretto_voices":0,"combination":[],"aug_dim":"","rhythm_ratio":1.0,"mirror":false,"chromatic_density":0.286,"complexity":0.614,"dissonance":0.0},{"voice":2,"pitch":50,"start":154.6665,"duration":0.6667,"velocity":90,"measure":59,"beat":1.0,"subject_pos":-1,"motif":"enigmatic_cell","motif_pos":1,"best_pos":1,"similarity":1.0,"stretto":false,"stretto_voices":0,"combination":[],"aug_dim":"","rhythm_ratio":1.0,"mirror":false,"chromatic_density":0.286,"complexity":0.614,"dissonance":0.0},{"voice":3,"pitch":46,"start":154.6665,"duration":0.3333,"velocity":90,"measure":59,"beat":1.0,"subject_pos":-1,"motif":"tail_inv","motif_pos":1,"best_pos":1,"similarity":1.0,"stretto":false,"stretto_voices":0,"combination":[],"aug_dim":"","rhythm_ratio":1.0,"mirror":false,"chromatic_density":0.286,"complexity":0.614,"dissonance":0.0},{"voice":1,"pitch":58,"start":154.9998,"duration":0.3333,"velocity":90,"measure":59,"beat":1.5,"subject_pos":-1,"motif":"","motif_pos":-1,"best_pos":2,"similarity":0.45,"stretto":false,"stretto_voices":0,"combination":[],"aug_dim":"","rhythm_ratio":1.0,"mirror":false,"chromatic_density":0.286,"complexity":0.614,"dissonance":0.0},{"voice":3,"pitch":45,"start":154.9998,"duration":0.3333,"velocity":90,"measure":59,"beat":1.5,"subject_pos":-1,"motif":"tail_inv","motif_pos":2,"best_pos":2,"similarity":1.0,"stretto":false,"stretto_voices":0,"combination":[],"aug_dim":"","rhythm_ratio":1.0,"mirror":false,"chromatic_density":0.286,"complexity":0.614,"dissonance":0.0},{"voice":0,"pitch":67,"start":155.3332,"duration":0.6667,"velocity":90,"measure":59,"beat":2.0,"subject_pos":-1,"motif":"","motif_pos":-1,"best_pos":5,"similarity":0.521,"stretto":false,"stretto_voices":0,"combination":[],"aug_dim":"","rhythm_ratio":1.0,"mirror":false,"chromatic_density":0.286,"complexity":0.614,"dissonance":0.0},{"voice":1,"pitch":63,"start":155.3332,"duration":0.3333,"velocity":90,"measure":59,"beat":2.0,"subject_pos":-1,"motif":"","motif_pos":-1,"best_pos":1,"similarity":0.507,"stretto":false,"stretto_voices":0,"combination":[],"aug_dim":"","rhythm_ratio":1.0,"mirror":false,"chromatic_density":0.286,"complexity":0.614,"dissonance":0.0},{"voice":3,"pitch":43,"start":155.3332,"duration":1.3333,"velocity":90,"measure":59,"beat":2.0,"subject_pos":-1,"motif":"tail_inv","motif_pos":3,"best_pos":3,"similarity":1.0,"stretto":false,"stretto_voices":0,"combination":[],"aug_dim":"","rhythm_ratio":1.0,"mirror":false,"chromatic_density":0.286,"complexity":0.614,"dissonance":0.0},{"voice":1,"pitch":62,"start":155.6665,"duration":0.3333,"velocity":90,"measure":59,"beat":2.5,"subject_pos":-1,"motif":"","motif_pos":-1,"best_pos":4,"similarity":0.475,"stretto":false,"stretto_voices":0,"combination":[],"aug_dim":"","rhythm_ratio":1.0,"mirror":false,"chromatic_density":0.286,"complexity":0.614,"dissonance":0.0},{"voice":0,"pitch":69,"start":155.9998,"duration":0.3333,"velocity":90,"measure":59,"beat":3.0,"subject_pos":-1,"motif":"","motif_pos":-1,"best_pos":6,"similarity":0.421,"stretto":false,"stretto_voices":0,"combination":[],"aug_dim":"","rhythm_ratio":1.0,"mirror":false,"chromatic_density":0.286,"complexity":0.614,"dissonance":0.0},{"voice":1,"pitch":60,"start":155.9998,"duration":0.3333,"velocity":90,"measure":59,"beat":3.0,"subject_pos":-1,"motif":"","motif_pos":-1,"best_pos":2,"similarity":0.436,"stretto":false,"stretto_voices":0,"combination":[],"aug_dim":"","rhythm_ratio":1.0,"mirror":false,"chromatic_density":0.286,"complexity":0.614,"dissonance":0.0},{"voice":0,"pitch":67,"start":156.3332,"duration":0.3333,"velocity":90,"measure":59,"beat":3.5,"subject_pos":-1,"motif":"","motif_pos":-1,"best_pos":5,"similarity":0.329,"stretto":false,"stretto_voices":0,"combination":[],"aug_dim":"","rhythm_ratio":1.0,"mirror":false,"chromatic_density":0.286,"complexity":0.614,"dissonance":0.0},{"voice":1,"pitch":63,"start":156.3332,"duration":0.3333,"velocity":90,"measure":59,"beat":3.5,"subject_pos":-1,"motif":"","motif_pos":-1,"best_pos":3,"similarity":0.45,"stretto":false,"stretto_voices":0,"combination":[],"aug_dim":"","rhythm_ratio":1.0,"mirror":false,"chromatic_density":0.286,"complexity":0.614,"dissonance":0.0},{"voice":0,"pitch":69,"start":156.6665,"duration":0.6667,"velocity":90,"measure":59,"beat":4.0,"subject_pos":-1,"motif":"","motif_pos":-1,"best_pos":6,"similarity":0.307,"stretto":false,"stretto_voices":0,"combination":[],"aug_dim":"","rhythm_ratio":1.0,"mirror":false,"chromatic_density":0.286,"complexity":0.614,"dissonance":0.0},{"voice":1,"pitch":62,"start":156.6665,"duration":0.3333,"velocity":90,"measure":59,"beat":4.0,"subject_pos":-1,"motif":"","motif_pos":-1,"best_pos":2,"similarity":0.536,"stretto":false,"stretto_voices":0,"combination":[],"aug_dim":"","rhythm_ratio":1.0,"mirror":false,"chromatic_density":0.286,"complexity":0.614,"dissonance":0.0},{"voice":3,"pitch":42,"start":156.6665,"duration":0.6667,"velocity":90,"measure":59,"beat":4.0,"subject_pos":-1,"motif":"tail_inv","motif_pos":4,"best_pos":4,"similarity":1.0,"stretto":false,"stretto_voices":0,"combination":[],"aug_dim":"","rhythm_ratio":1.0,"mirror":false,"chromatic_density":0.286,"complexity":0.614,"dissonance":0.0},{"voice":1,"pitch":60,"start":156.9998,"duration":0.6667,"velocity":90,"measure":59,"beat":4.5,"subject_pos":-1,"motif":"","motif_pos":-1,"best_pos":3,"similarity":0.732,"stretto":false,"stretto_voices":0,"combination":[],"aug_dim":"","rhythm_ratio":1.0,"mirror":false,"chromatic_density":0.286,"complexity":0.614,"dissonance":0.0},{"voice":0,"pitch":62,"start":157.3332,"duration":0.6667,"velocity":90,"measure":60,"beat":1.0,"subject_pos":-1,"motif":"","motif_pos":-1,"best_pos":0,"similarity":0.375,"stretto":false,"stretto_voices":0,"combination":[],"aug_dim":"","rhythm_ratio":1.0,"mirror":false,"chromatic_density":0.5,"complexity":0.505,"dissonance":0.151},{"voice":3,"pitch":41,"start":157.3332,"duration":0.6667,"velocity":90,"measure":60,"beat":1.0,"subject_pos":-1,"motif":"","motif_pos":-1,"best_pos":4,"similarity":0.496,"stretto":false,"stretto_voices":0,"combination":[],"aug_dim":"","rhythm_ratio":1.0,"mirror":false,"chromatic_density":0.5,"complexity":0.505,"dissonance":0.151},{"voice":1,"pitch":59,"start":157.6665,"duration":0.3333,"velocity":90,"measure":60,"beat":1.5,"subject_pos":-1,"motif":"","motif_pos":-1,"best_pos":4,"similarity":0.821,"stretto":false,"stretto_voices":0,"combination":[],"aug_dim":"","rhythm_ratio":1.0,"mirror":false,"chromatic_density":0.5,"complexity":0.505,"dissonance":0.151},{"voice":0,"pitch":67,"start":157.9998,"duration":0.6667,"velocity":90,"measure":60,"beat":2.0,"subject_pos":-1,"motif":"","motif_pos":-1,"best_pos":1,"similarity":0.536,"stretto":false,"stretto_voices":0,"combination":[],"aug_dim":"","rhythm_ratio":1.0,"mirror":false,"chromatic_density":0.5,"complexity":0.505,"dissonance":0.151},{"voice":1,"pitch":60,"start":157.9998,"duration":1.3333,"velocity":90,"measure":60,"beat":2.0,"subject_pos":-1,"motif":"","motif_pos":-1,"best_pos":5,"similarity":0.75,"stretto":false,"stretto_voices":0,"combination":[],"aug_dim":"","rhythm_ratio":1.0,"mirror":false,"chromatic_density":0.5,"complexity":0.505,"dissonance":0.151},{"voice":3,"pitch":40,"start":157.9998,"duration":0.6667,"velocity":90,"measure":60,"beat":2.0,"subject_pos":-1,"motif":"","motif_pos":-1,"best_pos":3,"similarity":0.471,"stretto":false,"stretto_voices":0,"combination":[],"aug_dim":"","rhythm_ratio":1.0,"mirror":false,"chromatic_density":0.5,"complexity":0.505,"dissonance":0.151},{"voice":2,"pitch":55,"start":158.3332,"duration":0.3333,"velocity":90,"measure":60,"beat":2.5,"subject_pos":-1,"motif":"enigmatic_cell","motif_pos":2,"best_pos":2,"similarity":1.0,"stretto":false,"stretto_voices":0,"combination":[],"aug_dim":"","rhythm_ratio":1.0,"mirror":false,"chromatic_density":0.5,"complexity":0.505,"dissonance":0.151},{"voice":0,"pitch":66,"start":158.6665,"duration":0.6667,"velocity":90,"measure":60,"beat":3.0,"subject_pos":-1,"motif":"","motif_pos":-1,"best_pos":2,"similarity":0.571,"stretto":false,"stretto_voices":0,"combination":[],"aug_dim":"","rhythm_ratio":1.0,"mirror":false,"chromatic_density":0.5,"complexity":0.505,"dissonance":0.151},{"voice":2,"pitch":57,"start":158.6665,"duration":0.3333,"velocity":90,"measure":60,"beat":3.0,"subject_pos":-1,"motif":"","motif_pos":-1,"best_pos":6,"similarity":0.4,"stretto":false,"stretto_voices":0,"combination":[],"aug_dim":"","rhythm_ratio":1.0,"mirror":false,"chromatic_density":0.5,"complexity":0.505,"dissonance":0.151},{"voice":3,"pitch":39,"start":158.6665,"duration":0.6667,"velocity":90,"measure":60,"beat":3.0,"subject_pos":-1,"motif":"","motif_pos":-1,"best_pos":3,"similarity":0.443,"stretto":false,"stretto_voices":0,"combination":[],"aug_dim":"","rhythm_ratio":1.0,"mirror":false,"chromatic_density":0.5,"complexity":0.505,"dissonance":0.151},{"voice":2,"pitch":55,"start":158.9998,"duration":0.3333,"velocity":90,"measure":60,"beat":3.5,"subject_pos":-1,"motif":"","motif_pos":-1,"best_pos":4,"similarity":0.5,"stretto":false,"stretto_voices":0,"combination":[],"aug_dim":"","rhythm_ratio":1.0,"mirror":false,"chromatic_density":0.5,"complexity":0.505,"dissonance":0.151},{"voice":0,"pitch":65,"start":159.3332,"duration":1.3333,"velocity":90,"measure":60,"beat":4.0,"subject_pos":-1,"motif":"","motif_pos":-1,"best_pos":3,"similarity":0.714,"stretto":false,"stretto_voices":0,"combination":[],"aug_dim":"","rhythm_ratio":1.0,"mirror":false,"chromatic_density":0.5,"complexity":0.505,"dissonance":0.151},{"voice":1,"pitch":62,"start":159.3332,"duration":0.6667,"velocity":90,"measure":60,"beat":4.0,"subject_pos":-1,"motif":"","motif_pos":-1,"best_pos":6,"similarity":0.5,"stretto":false,"stretto_voices":0,"combination":[],"aug_dim":"","rhythm_ratio":1.0,"mirror":false,"chromatic_density":0.5,"complexity":0.505,"dissonance":0.151},{"voice":2,"pitch":57,"start":159.3332,"duration":0.3333,"velocity":90,"measure":60,"beat":4.0,"subject_pos":-1,"motif":"","motif_pos":-1,"best_pos":5,"similarity":0.643,"stretto":false,"stretto_voices":0,"combination":[],"aug_dim":"","rhythm_ratio":1.0,"mirror":false,"chromatic_density":0.5,"complexity":0.505,"dissonance":0.151},{"voice":3,"pitch":38,"start":159.3332,"duration":0.6667,"velocity":90,"measure":60,"beat":4.0,"subject_pos":-1,"motif":"","motif_pos":-1,"best_pos":4,"similarity":0.421,"stretto":false,"stretto_voices":0,"combination":[],"aug_dim":"","rhythm_ratio":1.0,"mirror":false,"chromatic_density":0.5,"complexity":0.505,"dissonance":0.151},{"voice":2,"pitch":59,"start":159.6665,"duration":0.3333,"velocity":90,"measure":60,"beat":4.5,"subject_pos":-1,"motif":"","motif_pos":-1,"best_pos":6,"similarity":0.679,"stretto":false,"stretto_voices":0,"combination":[],"aug_dim":"","rhythm_ratio":1.0,"mirror":false,"chromatic_density":0.5,"complexity":0.505,"dissonance":0.151},{"voice":1,"pitch":55,"start":159.9998,"duration":0.6667,"velocity":90,"measure":61,"beat":1.0,"subject_pos":-1,"motif":"","motif_pos":-1,"best_pos":7,"similarity":0.214,"stretto":false,"stretto_voices":0,"combination":[],"aug_dim":"","rhythm_ratio":1.0,"mirror":false,"chromatic_density":0.273,"complexity":0.5,"dissonance":0.236},{"voice":2,"pitch":60,"start":159.9998,"duration":0.3333,"velocity":90,"measure":61,"beat":1.0,"subject_pos":-1,"motif":"","motif_pos":-1,"best_pos":7,"similarity":0.464,"stretto":false,"stretto_voices":0,"combination":[],"aug_dim":"","rhythm_ratio":1.0,"mirror":false,"chromatic_density":0.273,"complexity":0.5,"dissonance":0.236},{"voice":3,"pitch":36,"start":159.9998,"duration":0.6667,"velocity":90,"measure":61,"beat":1.0,"subject_pos":-1,"motif":"","motif_pos":-1,"best_pos":4,"similarity":0.364,"stretto":false,"stretto_voices":0,"combination":[],"aug_dim":"","rhythm_ratio":1.0,"mirror":false,"chromatic_density":0.273,"complexity":0.5,"dissonance":0.236},{"voice":2,"pitch":48,"start":160.3332,"duration":0.3333,"velocity":90,"measure":61,"beat":1.5,"subject_pos":-1,"motif":"","motif_pos":-1,"best_pos":2,"similarity":0.175,"stretto":false,"stretto_voices":0,"combination":[],"aug_dim":"","rhythm_ratio":1.0,"mirror":false,"chromatic_density":0.273,"complexity":0.5,"dissonance":0.236},{"voice":0,"pitch":64,"start":160.6665,"duration":0.6667,"velocity":90,"measure":61,"beat":2.0,"subject_pos":-1,"motif":"","motif_pos":-1,"best_pos":4,"similarity":0.786,"stretto":false,"stretto_voices":0,"combination":[],"aug_dim":"","rhythm_ratio":1.0,"mirror":false,"chromatic_density":0.273,"complexity":0.5,"dissonance":0.236},{"voice":2,"pitch":60,"start":160.6665,"duration":0.6667,"velocity":90,"measure":61,"beat":2.0,"subject_pos":-1,"motif":"","motif_pos":-1,"best_pos":3,"similarity":0.336,"stretto":false,"stretto_voices":0,"combination":[],"aug_dim":"","rhythm_ratio":1.0,"mirror":false,"chromatic_density":0.273,"complexity":0.5,"dissonance":0.236},{"voice":3,"pitch":48,"start":160.9998,"duration":0.3333,"velocity":90,"measure":61,"beat":2.5,"subject_pos":-1,"motif":"","motif_pos":-1,"best_pos":5,"similarity":0.389,"stretto":false,"stretto_voices":0,"combination":[],"aug_dim":"","rhythm_ratio":1.0,"mirror":false,"chromatic_density":0.273,"complexity":0.5,"dissonance":0.236},{"voice":0,"pitch":65,"start":161.3332,"duration":0.6667,"velocity":90,"measure":61,"beat":3.0,"subject_pos":-1,"motif":"","motif_pos":-1,"best_pos":5,"similarity":0.732,"stretto":false,"stretto_voices":0,"combination":[],"aug_dim":"","rhythm_ratio":1.0,"mirror":false,"chromatic_density":0.273,"complexity":0.5,"dissonance":0.236},{"voice":2,"pitch":59,"start":161.3332,"duration":0.6667,"velocity":90,"measure":61,"beat":3.0,"subject_pos":-1,"motif":"","motif_pos":-1,"best_pos":3,"similarity":0.464,"stretto":false,"stretto_voices":0,"combination":[],"aug_dim":"","rhythm_ratio":1.0,"mirror":false,"chromatic_density":0.273,"complexity":0.5,"dissonance":0.236},{"voice":3,"pitch":50,"start":161.3332,"duration":0.3333,"velocity":90,"measure":61,"beat":3.0,"subject_pos":-1,"motif":"","motif_pos":-1,"best_pos":6,"similarity":0.35,"stretto":false,"stretto_voices":0,"combination":[],"aug_dim":"","rhythm_ratio":1.0,"mirror":false,"chromatic_density":0.273,"complexity":0.5,"dissonance":0.236},{"voice":3,"pitch":48,"start":161.6665,"duration":0.3333,"velocity":90,"measure":61,"beat":3.5,"subject_pos":-1,"motif":"","motif_pos":-1,"best_pos":4,"similarity":0.5,"stretto":false,"stretto_voices":0,"combination":[],"aug_dim":"","rhythm_ratio":1.0,"mirror":false,"chromatic_density":0.273,"complexity":0.5,"dissonance":0.236},{"voice":0,"pitch":67,"start":161.9998,"duration":0.6667,"velocity":90,"measure":61,"beat":4.0,"subject_pos":-1,"motif":"","motif_pos":-1,"best_pos":6,"similarity":0.5,"stretto":false,"stretto_voices":0,"combination":[],"aug_dim":"","rhythm_ratio":1.0,"mirror":false,"chromatic_density":0.273,"complexity":0.5,"dissonance":0.236},{"voice":2,"pitch":58,"start":161.9998,"duration":1.3333,"velocity":90,"measure":61,"beat":4.0,"subject_pos":-1,"motif":"","motif_pos":-1,"best_pos":4,"similarity":0.543,"stretto":false,"stretto_voices":0,"combination":[],"aug_dim":"","rhythm_ratio":1.0,"mirror":false,"chromatic_density":0.273,"complexity":0.5,"dissonance":0.236},{"voice":3,"pitch":50,"start":161.9998,"duration":0.3333,"velocity":90,"measure":61,"beat":4.0,"subject_pos":-1,"motif":"","motif_pos":-1,"best_pos":5,"similarity":0.643,"stretto":false,"stretto_voices":0,"combination":[],"aug_dim":"","rhythm_ratio":1.0,"mirror":false,"chromatic_density":0.273,"complexity":0.5,"dissonance":0.236},{"voice":3,"pitch":52,"start":162.3332,"duration":0.3333,"velocity":90,"measure":61,"beat":4.5,"subject_pos":-1,"motif":"enigmatic_cell","motif_pos":0,"best_pos":0,"similarity":1.0,"stretto":false,"stretto_voices":0,"combination":[],"aug_dim":"","rhythm_ratio":1.0,"mirror":false,"chromatic_density":0.273,"complexity":0.5,"dissonance":0.236},{"voice":0,"pitch":60,"start":162.6665,"duration":0.6667,"velocity":90,"measure":62,"beat":1.0,"subject_pos":-1,"motif":"","motif_pos":-1,"best_pos":7,"similarity":0.214,"stretto":false,"stretto_voices":0,"combination":[],"aug_dim":"","rhythm_ratio":1.0,"mirror":false,"chromatic_density":0.214,"complexity":0.59,"dissonance":0.057},{"voice":3,"pitch":53,"start":162.6665,"duration":0.3333,"velocity":90,"measure":62,"beat":1.0,"subject_pos":-1,"motif":"enigmatic_cell","motif_pos":1,"best_pos":1,"similarity":1.0,"stretto":false,"stretto_voices":0,"combination":[],"aug_dim":"","rhythm_ratio":1.0,"mirror":false,"chromatic_density":0.214,"complexity":0.59,"dissonance":0.057},{"voice":3,"pitch":48,"start":162.9998,"duration":0.3333,"velocity":90,"measure":62,"beat":1.5,"subject_pos":-1,"motif":"enigmatic_cell","motif_pos":2,"best_pos":2,"similarity":1.0,"stretto":false,"stretto_voices":0,"combination":[],"aug_dim":"","rhythm_ratio":1.0,"mirror":false,"chromatic_density":0.214,"complexity":0.59,"dissonance":0.057},{"voice":1,"pitch":69,"start":163.3332,"duration":0.6667,"velocity":90,"measure":62,"beat":2.0,"subject_pos":-1,"motif":"","motif_pos":-1,"best_pos":3,"similarity":0.35,"stretto":false,"stretto_voices":0,"combination":[],"aug_dim":"","rhythm_ratio":1.0,"mirror":false,"chromatic_density":0.214,"complexity":0.59,"dissonance":0.057},{"voice":2,"pitch":57,"start":163.3332,"duration":0.6667,"velocity":90,"measure":62,"beat":2.0,"subject_pos":-1,"motif":"","motif_pos":-1,"best_pos":4,"similarity":0.55,"stretto":false,"stretto_voices":0,"combination":[],"aug_dim":"","rhythm_ratio":1.0,"mirror":false,"chromatic_density":0.214,"complexity":0.59,"dissonance":0.057},{"voice":3,"pitch":53,"start":163.3332,"duration":1.3333,"velocity":90,"measure":62,"beat":2.0,"subject_pos":-1,"motif":"","motif_pos":-1,"best_pos":1,"similarity":0.5,"stretto":false,"stretto_voices":0,"combination":[],"aug_dim":"","rhythm_ratio":1.0,"mirror":false,"chromatic_density":0.214,"complexity":0.59,"dissonance":0.057},{"voice":0,"pitch":72,"start":163.6665,"duration":0.3333,"velocity":90,"measure":62,"beat":2.5,"subject_pos":-1,"motif":"","motif_pos":-1,"best_pos":5,"similarity":0.3,"stretto":false,"stretto_voices":0,"combination":[],"aug_dim":"","rhythm_ratio":1.0,"mirror":false,"chromatic_density":0.214,"complexity":0.59,"dissonance":0.057},{"voice":0,"pitch":74,"start":163.9998,"duration":0.3333,"velocity":90,"measure":62,"beat":3.0,"subject_pos":-1,"motif":"","motif_pos":-1,"best_pos":1,"similarity":0.321,"stretto":false,"stretto_voices":0,"combination":[],"aug_dim":"","rhythm_ratio":1.0,"mirror":false,"chromatic_density":0.214,"complexity":0.59,"dissonance":0.057},{"voice":1,"pitch":68,"start":163.9998,"duration":0.6667,"velocity":90,"measure":62,"beat":3.0,"subject_pos":-1,"motif":"","motif_pos":-1,"best_pos":4,"similarity":0.414,"stretto":false,"stretto_voices":0,"combination":[],"aug_dim":"","rhythm_ratio":1.0,"mirror":false,"chromatic_density":0.214,"complexity":0.59,"dissonance":0.057},{"voice":2,"pitch":59,"start":163.9998,"duration":0.3333,"velocity":90,"measure":62,"beat":3.0,"subject_pos":-1,"motif":"","motif_pos":-1,"best_pos":6,"similarity":0.421,"stretto":false,"stretto_voices":0,"combination":[],"aug_dim":"","rhythm_ratio":1.0,"mirror":false,"chromatic_density":0.214,"complexity":0.59,"dissonance":0.057},{"voice":0,"pitch":72,"start":164.3332,"duration":0.3333,"velocity":90,"measure":62,"beat":3.5,"subject_pos":-1,"motif":"","motif_pos":-1,"best_pos":4,"similarity":0.429,"stretto":false,"stretto_voices":0,"combination":[],"aug_dim":"","rhythm_ratio":1.0,"mirror":false,"chromatic_density":0.214,"complexity":0.59,"dissonance":0.057},{"voice":2,"pitch":57,"start":164.3332,"duration":0.3333,"velocity":90,"measure":62,"beat":3.5,"subject_pos":-1,"motif":"","motif_pos":-1,"best_pos":4,"similarity":0.536,"stretto":false,"stretto_voices":0,"combination":[],"aug_dim":"","rhythm_ratio":1.0,"mirror":false,"chromatic_density":0.214,"complexity":0.59,"dissonance":0.057},{"voice":0,"pitch":74,"start":164.6665,"duration":0.3333,"velocity":90,"measure":62,"beat":4.0,"subject_pos":-1,"motif":"","motif_pos":-1,"best_pos":5,"similarity":0.5,"stretto":false,"stretto_voices":0,"combination":[],"aug_dim":"","rhythm_ratio":1.0,"mirror":false,"chromatic_density":0.214,"complexity":0.59,"dissonance":0.057},{"voice":1,"pitch":67,"start":164.6665,"duration":1.0,"velocity":90,"measure":62,"beat":4.0,"subject_pos":-1,"motif":"","motif_pos":-1,"best_pos":3,"similarity":0.429,"stretto":false,"stretto_voices":0,"combination":[],"aug_dim":"","rhythm_ratio":1.0,"mirror":false,"chromatic_density":0.214,"complexity":0.59,"dissonance":0.057},{"voice":2,"pitch":59,"start":164.6665,"duration":0.3333,"velocity":90,"measure":62,"beat":4.0,"subject_pos":-1,"motif":"","motif_pos":-1,"best_pos":5,"similarity":0.643,"stretto":false,"stretto_voices":0,"combination":[],"aug_dim":"","rhythm_ratio":1.0,"mirror":false,"chromatic_density":0.214,"complexity":0.59,"dissonance":0.057},{"voice":3,"pitch":52,"start":164.6665,"duration":0.6667,"velocity":90,"measure":62,"beat":4.0,"subject_pos":-1,"motif":"","motif_pos":-1,"best_pos":2,"similarity":0.446,"stretto":false,"stretto_voices":0,"combination":[],"aug_dim":"","rhythm_ratio":1.0,"mirror":false,"chromatic_density":0.214,"complexity":0.59,"dissonance":0.057},{"voice":0,"pitch":76,"start":164.9998,"duration":0.3333,"velocity":90,"measure":62,"beat":4.5,"subject_pos":-1,"motif":"","motif_pos":-1,"best_pos":6,"similarity":0.393,"stretto":false,"stretto_voices":0,"combination":[],"aug_dim":"","rhythm_ratio":1.0,"mirror":false,"chromatic_density":0.214,"complexity":0.59,"dissonance":0.057},{"voice":2,"pitch":61,"start":164.9998,"duration":0.3333,"velocity":90,"measure":62,"beat":4.5,"subject_pos":-1,"motif":"enigmatic_cell","motif_pos":0,"best_pos":0,"similarity":1.0,"stretto":false,"stretto_voices":0,"combination":[],"aug_dim":"","rhythm_ratio":1.0,"mirror":false,"chromatic_density":0.214,"complexity":0.59,"dissonance":0.057},{"voice":0,"pitch":69,"start":165.3332,"duration":0.6667,"velocity":90,"measure":63,"beat":1.0,"subject_pos":-1,"motif":"","motif_pos":-1,"best_pos":0,"similarity":0.232,"stretto":false,"stretto_voices":0,"combination":[],"aug_dim":"","rhythm_ratio":1.0,"mirror":false,"chromatic_density":0.2,"complexity":0.601,"dissonance":0.06},{"voice":2,"pitch":62,"start":165.3332,"duration":0.3333,"velocity":90,"measure":63,"beat":1.0,"subject_pos":-1,"motif":"enigmatic_cell","motif_pos":1,"best_pos":1,"similarity":1.0,"stretto":false,"stretto_voices":0,"combination":[],"aug_dim":"","rhythm_ratio":1.0,"mirror":false,"chromatic_density":0.2,"complexity":0.601,"dissonance":0.06},{"voice":3,"pitch":50,"start":165.3332,"duration":0.6667,"velocity":90,"measure":63,"beat":1.0,"subject_pos":-1,"motif":"","motif_pos":-1,"best_pos":2,"similarity":0.446,"stretto":false,"stretto_voices":0,"combination":[],"aug_dim":"","rhythm_ratio":1.0,"mirror":false,"chromatic_density":0.2,"complexity":0.601,"dissonance":0.06},{"voice":1,"pitch":65,"start":165.6665,"duration":0.3333,"velocity":90,"measure":63,"beat":1.5,"subject_pos":-1,"motif":"","motif_pos":-1,"best_pos":4,"similarity":0.507,"stretto":false,"stretto_voices":0,"combination":[],"aug_dim":"","rhythm_ratio":1.0,"mirror":false,"chromatic_density":0.2,"complexity":0.601,"dissonance":0.06},{"voice":2,"pitch":57,"start":165.6665,"duration":0.3333,"velocity":90,"measure":63,"beat":1.5,"subject_pos":-1,"motif":"enigmatic_cell","motif_pos":2,"best_pos":2,"similarity":1.0,"stretto":false,"stretto_voices":0,"combination":[],"aug_dim":"","rhythm_ratio":1.0,"mirror":false,"chromatic_density":0.2,"complexity":0.601,"dissonance":0.06},{"voice":0,"pitch":77,"start":165.9998,"duration":0.6667,"velocity":90,"measure":63,"beat":2.0,"subject_pos":-1,"motif":"","motif_pos":-1,"best_pos":1,"similarity":0.393,"stretto":false,"stretto_voices":0,"combination":[],"aug_dim":"","rhythm_ratio":1.0,"mirror":false,"chromatic_density":0.2,"complexity":0.601,"dissonance":0.06},{"voice":2,"pitch":62,"start":165.9998,"duration":1.3333,"velocity":90,"measure":63,"beat":2.0,"subject_pos":-1,"motif":"","motif_pos":-1,"best_pos":1,"similarity":0.643,"stretto":false,"stretto_voices":0,"combination":[],"aug_dim":"","rhythm_ratio":1.0,"mirror":false,"chromatic_density":0.2,"complexity":0.601,"dissonance":0.06},{"voice":1,"pitch":65,"start":166.3332,"duration":0.3333,"velocity":90,"measure":63,"beat":2.5,"subject_pos":-1,"motif":"","motif_pos":-1,"best_pos":5,"similarity":0.532,"stretto":false,"stretto_voices":0,"combination":[],"aug_dim":"","rhythm_ratio":1.0,"mirror":false,"chromatic_density":0.2,"complexity":0.601,"dissonance":0.06},{"voice":0,"pitch":76,"start":166.6665,"duration":0.6667,"velocity":90,"measure":63,"beat":3.0,"subject_pos":-1,"motif":"","motif_pos":-1,"best_pos":2,"similarity":0.464,"stretto":false,"stretto_voices":0,"combination":[],"aug_dim":"","rhythm_ratio":1.0,"mirror":false,"chromatic_density":0.2,"complexity":0.601,"dissonance":0.06},{"voice":1,"pitch":67,"start":166.6665,"duration":0.3333,"velocity":90,"measure":63,"beat":3.0,"subject_pos":-1,"motif":"","motif_pos":-1,"best_pos":6,"similarity":0.421,"stretto":false,"stretto_voices":0,"combination":[],"aug_dim":"","rhythm_ratio":1.0,"mirror":false,"chromatic_density":0.2,"complexity":0.601,"dissonance":0.06},{"voice":1,"pitch":65,"start":166.9998,"duration":0.3333,"velocity":90,"measure":63,"beat":3.5,"subject_pos":-1,"motif":"","motif_pos":-1,"best_pos":4,"similarity":0.518,"stretto":false,"stretto_voices":0,"combination":[],"aug_dim":"","rhythm_ratio":1.0,"mirror":false,"chromatic_density":0.2,"complexity":0.601,"dissonance":0.06},{"voice":0,"pitch":75,"start":167.3332,"duration":1.0,"velocity":90,"measure":63,"beat":4.0,"subject_pos":-1,"motif":"","motif_pos":-1,"best_pos":3,"similarity":0.571,"stretto":false,"stretto_voices":0,"combination":[],"aug_dim":"","rhythm_ratio":1.0,"mirror":false,"chromatic_density":0.2,"complexity":0.601,"dissonance":0.06},{"voice":1,"pitch":67,"start":167.3332,"duration":0.3333,"velocity":90,"measure":63,"beat":4.0,"subject_pos":-1,"motif":"","motif_pos":-1,"best_pos":5,"similarity":0.643,"stretto":false,"stretto_voices":0,"combination":[],"aug_dim":"","rhythm_ratio":1.0,"mirror":false,"chromatic_density":0.2,"complexity":0.601,"dissonance":0.06},{"voice":2,"pitch":60,"start":167.3332,"duration":0.6667,"velocity":90,"measure":63,"beat":4.0,"subject_pos":-1,"motif":"","motif_pos":-1,"best_pos":2,"similarity":0.589,"stretto":false,"stretto_voices":0,"combination":[],"aug_dim":"","rhythm_ratio":1.0,"mirror":false,"chromatic_density":0.2,"complexity":0.601,"dissonance":0.06},{"voice":1,"pitch":69,"start":167.6665,"duration":0.3333,"velocity":90,"measure":63,"beat":4.5,"subject_pos":-1,"motif":"enigmatic_cell","motif_pos":0,"best_pos":0,"similarity":1.0,"stretto":false,"stretto_voices":0,"combination":[],"aug_dim":"","rhythm_ratio":1.0,"mirror":false,"chromatic_density":0.2,"complexity":0.601,"dissonance":0.06},{"voice":1,"pitch":70,"start":167.9998,"duration":0.3333,"velocity":90,"measure":64,"beat":1.0,"subject_pos":-1,"motif":"enigmatic_cell","motif_pos":1,"best_pos":1,"similarity":1.0,"stretto":false,"stretto_voices":0,"combination":[],"aug_dim":"","rhythm_ratio":1.0,"mirror":false,"chromatic_density":0.562,"complexity":0.609,"dissonance":0.092},{"voice":2,"pitch":58,"start":167.9998,"duration":0.6667,"velocity":90,"measure":64,"beat":1.0,"subject_pos":-1,"motif":"","motif_pos":-1,"best_pos":2,"similarity":0.446,"stretto":false,"stretto_voices":0,"combination":[],"aug_dim":"","rhythm_ratio":1.0,"mirror":false,"chromatic_density":0.562,"complexity":0.609,"dissonance":0.092},{"voice":0,"pitch":74,"start":168.3332,"duration":0.3333,"velocity":90,"measure":64,"beat":1.5,"subject_pos":-1,"motif":"","motif_pos":-1,"best_pos":4,"similarity":0.589,"stretto":false,"stretto_voices":0,"combination":[],"aug_dim":"","rhythm_ratio":1.0,"mirror":false,"chromatic_density":0.562,"complexity":0.609,"dissonance":0.092},{"voice":1,"pitch":65,"start":168.3332,"duration":0.3333,"velocity":90,"measure":64,"beat":1.5,"subject_pos":-1,"motif":"enigmatic_cell","motif_pos":2,"best_pos":2,"similarity":1.0,"stretto":false,"stretto_voices":0,"combination":[],"aug_dim":"","rhythm_ratio":1.0,"mirror":false,"chromatic_density":0.562,"complexity":0.609,"dissonance":0.092},{"voice":1,"pitch":70,"start":168.6665,"duration":0.3333,"velocity":90,"measure":64,"beat":2.0,"subject_pos":-1,"motif":"","motif_pos":-1,"best_pos":1,"similarity":0.429,"stretto":false,"stretto_voices":0,"combination":[],"aug_dim":"","rhythm_ratio":1.0,"mirror":false,"chromatic_density":0.562,"complexity":0.609,"dissonance":0.092},{"voice":2,"pitch":67,"start":168.6665,"duration":0.6667,"velocity":90,"measure":64,"beat":2.0,"subject_pos":-1,"motif":"","motif_pos":-1,"best_pos":3,"similarity":0.471,"stretto":false,"stretto_voices":0,"combination":[],"aug_dim":"","rhythm_ratio":1.0,"mirror":false,"chromatic_density":0.562,"complexity":0.609,"dissonance":0.092},{"voice":3,"pitch":58,"start":168.6665,"duration":0.6667,"velocity":90,"measure":64,"beat":2.0,"subject_pos":-1,"motif":"","motif_pos":-1,"best_pos":3,"similarity":0.471,"stretto":false,"stretto_voices":0,"combination":[],"aug_dim":"","rhythm_ratio":1.0,"mirror":false,"chromatic_density":0.562,"complexity":0.609,"dissonance":0.092},{"voice":0,"pitch":74,"start":168.9998,"duration":0.3333,"velocity":90,"measure":64,"beat":2.5,"subject_pos":-1,"motif":"","motif_pos":-1,"best_pos":4,"similarity":0.586,"stretto":false,"stretto_voices":0,"combination":[],"aug_dim":"","rhythm_ratio":1.0,"mirror":false,"chromatic_density":0.562,"complexity":0.609,"dissonance":0.092},{"voice":1,"pitch":74,"start":168.9998,"duration":0.3333,"velocity":90,"measure":64,"beat":2.5,"subject_pos":-1,"motif":"","motif_pos":-1,"best_pos":2,"similarity":0.5,"stretto":false,"stretto_voices":0,"combination":[],"aug_dim":"","rhythm_ratio":1.0,"mirror":false,"chromatic_density":0.562,"complexity":0.609,"dissonance":0.092},{"voice":0,"pitch":75,"start":169.3332,"duration":0.3333,"velocity":90,"measure":64,"beat":3.0,"subject_pos":-1,"motif":"","motif_pos":-1,"best_pos":3,"similarity":0.564,"stretto":false,"stretto_voices":0,"combination":[],"aug_dim":"","rhythm_ratio":1.0,"mirror":false,"chromatic_density":0.562,"complexity":0.609,"dissonance":0.092},{"voice":1,"pitch":72,"start":169.3332,"duration":0.3333,"velocity":90,"measure":64,"beat":3.0,"subject_pos":-1,"motif":"","motif_pos":-1,"best_pos":3,"similarity":0.714,"stretto":false,"stretto_voices":0,"combination":[],"aug_dim":"","rhythm_ratio":1.0,"mirror":false,"chromatic_density":0.562,"complexity":0.609,"dissonance":0.092},{"voice":2,"pitch":66,"start":169.3332,"duration":0.6667,"velocity":90,"measure":64,"beat":3.0,"subject_pos":-1,"motif":"","motif_pos":-1,"best_pos":4,"similarity":0.461,"stretto":false,"stretto_voices":0,"combination":[],"aug_dim":"","rhythm_ratio":1.0,"mirror":false,"chromatic_density":0.562,"complexity":0.609,"dissonance":0.092},{"voice":3,"pitch":57,"start":169.3332,"duration":0.6667,"velocity":90,"measure":64,"beat":3.0,"subject_pos":-1,"motif":"","motif_pos":-1,"best_pos":4,"similarity":0.45,"stretto":false,"stretto_voices":0,"combination":[],"aug_dim":"","rhythm_ratio":1.0,"mirror":false,"chromatic_density":0.562,"complexity":0.609,"dissonance":0.092},{"voice":0,"pitch":74,"start":169.6665,"duration":0.3333,"velocity":90,"measure":64,"beat":3.5,"subject_pos":-1,"motif":"","motif_pos":-1,"best_pos":4,"similarity":0.782,"stretto":false,"stretto_voices":0,"combination":[],"aug_dim":"","rhythm_ratio":1.0,"mirror":false,"chromatic_density":0.562,"complexity":0.609,"dissonance":0.092},{"voice":1,"pitch":71,"start":169.6665,"duration":0.3333,"velocity":90,"measure":64,"beat":3.5,"subject_pos":-1,"motif":"","motif_pos":-1,"best_pos":4,"similarity":0.793,"stretto":false,"stretto_voices":0,"combination":[],"aug_dim":"","rhythm_ratio":1.0,"mirror":false,"chromatic_density":0.562,"complexity":0.609,"dissonance":0.092},{"voice":0,"pitch":75,"start":169.9998,"duration":0.3333,"velocity":90,"measure":64,"beat":4.0,"subject_pos":-1,"motif":"","motif_pos":-1,"best_pos":5,"similarity":0.793,"stretto":false,"stretto_voices":0,"combination":[],"aug_dim":"","rhythm_ratio":1.0,"mirror":false,"chromatic_density":0.562,"complexity":0.609,"dissonance":0.092},{"voice":1,"pitch":72,"start":169.9998,"duration":0.3333,"velocity":90,"measure":64,"beat":4.0,"subject_pos":-1,"motif":"","motif_pos":-1,"best_pos":5,"similarity":0.764,"stretto":false,"stretto_voices":0,"combination":[],"aug_dim":"","rhythm_ratio":1.0,"mirror":false,"chromatic_density":0.562,"complexity":0.609,"dissonance":0.092},{"voice":2,"pitch":65,"start":169.9998,"duration":1.3333,"velocity":90,"measure":64,"beat":4.0,"subject_pos":-1,"motif":"","motif_pos":-1,"best_pos":3,"similarity":0.489,"stretto":false,"stretto_voices":0,"combination":[],"aug_dim":"","rhythm_ratio":1.0,"mirror":false,"chromatic_density":0.562,"complexity":0.609,"dissonance":0.092},{"voice":3,"pitch":56,"start":169.9998,"duration":0.6667,"velocity":90,"measure":64,"beat":4.0,"subject_pos":-1,"motif":"","motif_pos":-1,"best_pos":3,"similarity":0.55,"stretto":false,"stretto_voices":0,"combination":[],"aug_dim":"","rhythm_ratio":1.0,"mirror":false,"chromatic_density":0.562,"complexity":0.609,"dissonance":0.092},{"voice":0,"pitch":77,"start":170.3332,"duration":0.3333,"velocity":90,"measure":64,"beat":4.5,"subject_pos":-1,"motif":"","motif_pos":-1,"best_pos":6,"similarity":0.643,"stretto":false,"stretto_voices":0,"combination":[],"aug_dim":"","rhythm_ratio":1.0,"mirror":false,"chromatic_density":0.562,"complexity":0.609,"dissonance":0.092},{"voice":1,"pitch":74,"start":170.3332,"duration":0.3333,"velocity":90,"measure":64,"beat":4.5,"subject_pos":-1,"motif":"","motif_pos":-1,"best_pos":6,"similarity":0.529,"stretto":false,"stretto_voices":0,"combination":[],"aug_dim":"","rhythm_ratio":1.0,"mirror":false,"chromatic_density":0.562,"complexity":0.609,"dissonance":0.092},{"voice":0,"pitch":79,"start":170.6665,"duration":0.6667,"velocity":90,"measure":65,"beat":1.0,"subject_pos":-1,"motif":"","motif_pos":-1,"best_pos":6,"similarity":0.518,"stretto":false,"stretto_voices":0,"combination":[],"aug_dim":"","rhythm_ratio":1.0,"mirror":false,"chromatic_density":0.6,"complexity":0.526,"dissonance":0.023},{"voice":1,"pitch":71,"start":170.6665,"duration":0.3333,"velocity":90,"measure":65,"beat":1.0,"subject_pos":-1,"motif":"","motif_pos":-1,"best_pos":3,"similarity":0.343,"stretto":false,"stretto_voices":0,"combination":[],"aug_dim":"","rhythm_ratio":1.0,"mirror":false,"chromatic_density":0.6,"complexity":0.526,"dissonance":0.023},{"voice":3,"pitch":55,"start":170.6665,"duration":0.6667,"velocity":90,"measure":65,"beat":1.0,"subject_pos":-1,"motif":"","motif_pos":-1,"best_pos":4,"similarity":0.536,"stretto":false,"stretto_voices":0,"combination":[],"aug_dim":"","rhythm_ratio":1.0,"mirror":false,"chromatic_density":0.6,"complexity":0.526,"dissonance":0.023},{"voice":1,"pitch":74,"start":170.9998,"duration":0.3333,"velocity":90,"measure":65,"beat":1.5,"subject_pos":-1,"motif":"","motif_pos":-1,"best_pos":4,"similarity":0.211,"stretto":false,"stretto_voices":0,"combination":[],"aug_dim":"","rhythm_ratio":1.0,"mirror":false,"chromatic_density":0.6,"complexity":0.526,"dissonance":0.023},{"voice":1,"pitch":67,"start":171.3332,"duration":0.6667,"velocity":90,"measure":65,"beat":2.0,"subject_pos":-1,"motif":"","motif_pos":-1,"best_pos":3,"similarity":0.357,"stretto":false,"stretto_voices":0,"combination":[],"aug_dim":"","rhythm_ratio":1.0,"mirror":false,"chromatic_density":0.6,"complexity":0.526,"dissonance":0.023},{"voice":2,"pitch":64,"start":171.3332,"duration":0.6667,"velocity":90,"measure":65,"beat":2.0,"subject_pos":-1,"motif":"","motif_pos":-1,"best_pos":3,"similarity":0.471,"stretto":false,"stretto_voices":0,"combination":[],"aug_dim":"","rhythm_ratio":1.0,"mirror":false,"chromatic_density":0.6,"complexity":0.526,"dissonance":0.023},{"voice":0,"pitch":79,"start":171.6665,"duration":0.3333,"velocity":90,"measure":65,"beat":2.5,"subject_pos":-1,"motif":"","motif_pos":-1,"best_pos":5,"similarity":0.479,"stretto":false,"stretto_voices":0,"combination":[],"aug_dim":"","rhythm_ratio":1.0,"mirror":false,"chromatic_density":0.6,"complexity":0.526,"dissonance":0.023},{"voice":0,"pitch":81,"start":171.9998,"duration":0.3333,"velocity":90,"measure":65,"beat":3.0,"subject_pos":-1,"motif":"","motif_pos":-1,"best_pos":3,"similarity":0.543,"stretto":false,"stretto_voices":0,"combination":[],"aug_dim":"","rhythm_ratio":1.0,"mirror":false,"chromatic_density":0.6,"complexity":0.526,"dissonance":0.023},{"voice":1,"pitch":66,"start":171.9998,"duration":0.6667,"velocity":90,"measure":65,"beat":3.0,"subject_pos":-1,"motif":"","motif_pos":-1,"best_pos":3,"similarity":0.443,"stretto":false,"stretto_voices":0,"combination":[],"aug_dim":"","rhythm_ratio":1.0,"mirror":false,"chromatic_density":0.6,"complexity":0.526,"dissonance":0.023},{"voice":2,"pitch":63,"start":171.9998,"duration":0.6667,"velocity":90,"measure":65,"beat":3.0,"subject_pos":-1,"motif":"","motif_pos":-1,"best_pos":3,"similarity":0.471,"stretto":false,"stretto_voices":0,"combination":[],"aug_dim":"","rhythm_ratio":1.0,"mirror":false,"chromatic_density":0.6,"complexity":0.526,"dissonance":0.023},{"voice":0,"pitch":80,"start":172.3332,"duration":0.3333,"velocity":90,"measure":65,"beat":3.5,"subject_pos":-1,"motif":"","motif_pos":-1,"best_pos":4,"similarity":0.739,"stretto":false,"stretto_voices":0,"combination":[],"aug_dim":"","rhythm_ratio":1.0,"mirror":false,"chromatic_density":0.6,"complexity":0.526,"dissonance":0.023},{"voice":0,"pitch":81,"start":172.6665,"duration":0.3333,"velocity":90,"measure":65,"beat":4.0,"subject_pos":-1,"motif":"","motif_pos":-1,"best_pos":5,"similarity":0.729,"stretto":false,"stretto_voices":0,"combination":[],"aug_dim":"","rhythm_ratio":1.0,"mirror":false,"chromatic_density":0.6,"complexity":0.526,"dissonance":0.023},{"voice":1,"pitch":65,"start":172.6665,"duration":0.6667,"velocity":90,"measure":65,"beat":4.0,"subject_pos":-1,"motif":"","motif_pos":-1,"best_pos":4,"similarity":0.507,"stretto":false,"stretto_voices":0,"combination":[],"aug_dim":"","rhythm_ratio":1.0,"mirror":false,"chromatic_density":0.6,"complexity":0.526,"dissonance":0.023},{"voice":2,"pitch":62,"start":172.6665,"duration":1.3333,"velocity":90,"measure":65,"beat":4.0,"subject_pos":-1,"motif":"","motif_pos":-1,"best_pos":3,"similarity":0.471,"stretto":false,"stretto_voices":0,"combination":[],"aug_dim":"","rhythm_ratio":1.0,"mirror":false,"chromatic_density":0.6,"complexity":0.526,"dissonance":0.023},{"voice":0,"pitch":83,"start":172.9998,"duration":0.3333,"velocity":90,"measure":65,"beat":4.5,"subject_pos":-1,"motif":"","motif_pos":-1,"best_pos":6,"similarity":0.529,"stretto":false,"stretto_voices":0,"combination":[],"aug_dim":"","rhythm_ratio":1.0,"mirror":false,"chromatic_density":0.6,"complexity":0.526,"dissonance":0.023},{"voice":0,"pitch":80,"start":173.3332,"duration":0.3333,"velocity":90,"measure":66,"beat":1.0,"subject_pos":-1,"motif":"","motif_pos":-1,"best_pos":3,"similarity":0.343,"stretto":false,"stretto_voices":0,"combination":[],"aug_dim":"","rhythm_ratio":1.0,"mirror":false,"chromatic_density":0.467,"complexity":0.564,"dissonance":0.143},{"voice":1,"pitch":64,"start":173.3332,"duration":0.6667,"velocity":90,"measure":66,"beat":1.0,"subject_pos":-1,"motif":"","motif_pos":-1,"best_pos":4,"similarity":0.475,"stretto":false,"stretto_voices":0,"combination":[],"aug_dim":"","rhythm_ratio":1.0,"mirror":false,"chromatic_density":0.467,"complexity":0.564,"dissonance":0.143},{"voice":0,"pitch":83,"start":173.6665,"duration":0.3333,"velocity":90,"measure":66,"beat":1.5,"subject_pos":-1,"motif":"","motif_pos":-1,"best_pos":4,"similarity":0.211,"stretto":false,"stretto_voices":0,"combination":[],"aug_dim":"","rhythm_ratio":1.0,"mirror":false,"chromatic_density":0.467,"complexity":0.564,"dissonance":0.143},{"voice":0,"pitch":76,"start":173.9998,"duration":0.6667,"velocity":90,"measure":66,"beat":2.0,"subject_pos":-1,"motif":"","motif_pos":-1,"best_pos":3,"similarity":0.357,"stretto":false,"stretto_voices":0,"combination":[],"aug_dim":"","rhythm_ratio":1.0,"mirror":false,"chromatic_density":0.467,"complexity":0.564,"dissonance":0.143},{"voice":2,"pitch":61,"start":173.9998,"duration":0.6667,"velocity":90,"measure":66,"beat":2.0,"subject_pos":-1,"motif":"","motif_pos":-1,"best_pos":3,"similarity":0.471,"stretto":false,"stretto_voices":0,"combination":[],"aug_dim":"","rhythm_ratio":1.0,"mirror":false,"chromatic_density":0.467,"complexity":0.564,"dissonance":0.143},{"voice":1,"pitch":68,"start":174.3332,"duration":0.3333,"velocity":90,"measure":66,"beat":2.5,"subject_pos":-1,"motif":"","motif_pos":-1,"best_pos":6,"similarity":0.464,"stretto":false,"stretto_voices":0,"combination":[],"aug_dim":"","rhythm_ratio":1.0,"mirror":false,"chromatic_density":0.467,"complexity":0.564,"dissonance":0.143},{"voice":3,"pitch":52,"start":174.3332,"duration":0.3333,"velocity":90,"measure":66,"beat":2.5,"subject_pos":-1,"motif":"","motif_pos":-1,"best_pos":5,"similarity":0.489,"stretto":false,"stretto_voices":0,"combination":[],"aug_dim":"","rhythm_ratio":1.0,"mirror":false,"chromatic_density":0.467,"complexity":0.564,"dissonance":0.143},{"voice":0,"pitch":75,"start":174.6665,"duration":0.6667,"velocity":90,"measure":66,"beat":3.0,"subject_pos":-1,"motif":"","motif_pos":-1,"best_pos":3,"similarity":0.443,"stretto":false,"stretto_voices":0,"combination":[],"aug_dim":"","rhythm_ratio":1.0,"mirror":false,"chromatic_density":0.467,"complexity":0.564,"dissonance":0.143},{"voice":1,"pitch":69,"start":174.6665,"duration":0.3333,"velocity":90,"measure":66,"beat":3.0,"subject_pos":-1,"motif":"","motif_pos":-1,"best_pos":3,"similarity":0.529,"stretto":false,"stretto_voices":0,"combination":[],"aug_dim":"","rhythm_ratio":1.0,"mirror":false,"chromatic_density":0.467,"complexity":0.564,"dissonance":0.143},{"voice":2,"pitch":60,"start":174.6665,"duration":0.6667,"velocity":90,"measure":66,"beat":3.0,"subject_pos":-1,"motif":"","motif_pos":-1,"best_pos":3,"similarity":0.443,"stretto":false,"stretto_voices":0,"combination":[],"aug_dim":"","rhythm_ratio":1.0,"mirror":false,"chromatic_density":0.467,"complexity":0.564,"dissonance":0.143},{"voice":3,"pitch":54,"start":174.6665,"duration":0.3333,"velocity":90,"measure":66,"beat":3.0,"subject_pos":-1,"motif":"","motif_pos":-1,"best_pos":4,"similarity":0.414,"stretto":false,"stretto_voices":0,"combination":[],"aug_dim":"","rhythm_ratio":1.0,"mirror":false,"chromatic_density":0.467,"complexity":0.564,"dissonance":0.143},{"voice":1,"pitch":68,"start":174.9998,"duration":0.3333,"velocity":90,"measure":66,"beat":3.5,"subject_pos":-1,"motif":"","motif_pos":-1,"best_pos":4,"similarity":0.729,"stretto":false,"stretto_voices":0,"combination":[],"aug_dim":"","rhythm_ratio":1.0,"mirror":false,"chromatic_density":0.467,"complexity":0.564,"dissonance":0.143},{"voice":3,"pitch":52,"start":174.9998,"duration":0.3333,"velocity":90,"measure":66,"beat":3.5,"subject_pos":-1,"motif":"","motif_pos":-1,"best_pos":4,"similarity":0.536,"stretto":false,"stretto_voices":0,"combination":[],"aug_dim":"","rhythm_ratio":1.0,"mirror":false,"chromatic_density":0.467,"complexity":0.564,"dissonance":0.143},{"voice":0,"pitch":74,"start":175.3332,"duration":0.6667,"velocity":90,"measure":66,"beat":4.0,"subject_pos":-1,"motif":"","motif_pos":-1,"best_pos":4,"similarity":0.454,"stretto":false,"stretto_voices":0,"combination":[],"aug_dim":"","rhythm_ratio":1.0,"mirror":false,"chromatic_density":0.467,"complexity":0.564,"dissonance":0.143},{"voice":1,"pitch":69,"start":175.3332,"duration":0.3333,"velocity":90,"measure":66,"beat":4.0,"subject_pos":-1,"motif":"","motif_pos":-1,"best_pos":5,"similarity":0.721,"stretto":false,"stretto_voices":0,"combination":[],"aug_dim":"","rhythm_ratio":1.0,"mirror":false,"chromatic_density":0.467,"complexity":0.564,"dissonance":0.143},{"voice":2,"pitch":59,"start":175.3332,"duration":1.3333,"velocity":90,"measure":66,"beat":4.0,"subject_pos":-1,"motif":"","motif_pos":-1,"best_pos":4,"similarity":0.393,"stretto":false,"stretto_voices":0,"combination":[],"aug_dim":"","rhythm_ratio":1.0,"mirror":false,"chromatic_density":0.467,"complexity":0.564,"dissonance":0.143},{"voice":3,"pitch":54,"start":175.3332,"duration":0.3333,"velocity":90,"measure":66,"beat":4.0,"subject_pos":-1,"motif":"","motif_pos":-1,"best_pos":5,"similarity":0.643,"stretto":false,"stretto_voices":0,"combination":[],"aug_dim":"","rhythm_ratio":1.0,"mirror":false,"chromatic_density":0.467,"complexity":0.564,"dissonance":0.143},{"voice":1,"pitch":71,"start":175.6665,"duration":0.3333,"velocity":90,"measure":66,"beat":4.5,"subject_pos":-1,"motif":"","motif_pos":-1,"best_pos":6,"similarity":0.5,"stretto":false,"stretto_voices":0,"combination":[],"aug_dim":"","rhythm_ratio":1.0,"mirror":false,"chromatic_density":0.467,"complexity":0.564,"dissonance":0.143},{"voice":3,"pitch":56,"start":175.6665,"duration":0.3333,"velocity":90,"measure":66,"beat":4.5,"subject_pos":-1,"motif":"enigmatic_cell","motif_pos":0,"best_pos":0,"similarity":1.0,"stretto":false,"stretto_voices":0,"combination":[],"aug_dim":"","rhythm_ratio":1.0,"mirror":false,"chromatic_density":0.467,"complexity":0.564,"dissonance":0.143},{"voice":0,"pitch":73,"start":175.9998,"duration":0.6667,"velocity":90,"measure":67,"beat":1.0,"subject_pos":-1,"motif":"","motif_pos":-1,"best_pos":4,"similarity":0.418,"stretto":false,"stretto_voices":0,"combination":[],"aug_dim":"","rhythm_ratio":1.0,"mirror":false,"chromatic_density":0.545,"complexity":0.559,"dissonance":0.079},{"voice":1,"pitch":64,"start":175.9998,"duration":1.0,"velocity":90,"measure":67,"beat":1.0,"subject_pos":-1,"motif":"","motif_pos":-1,"best_pos":1,"similarity":0.393,"stretto":false,"stretto_voices":0,"combination":[],"aug_dim":"","rhythm_ratio":1.0,"mirror":false,"chromatic_density":0.545,"complexity":0.559,"dissonance":0.079},{"voice":3,"pitch":57,"start":175.9998,"duration":0.3333,"velocity":90,"measure":67,"beat":1.0,"subject_pos":-1,"motif":"enigmatic_cell","motif_pos":1,"best_pos":1,"similarity":1.0,"stretto":false,"stretto_voices":0,"combination":[],"aug_dim":"","rhythm_ratio":1.0,"mirror":false,"chromatic_density":0.545,"complexity":0.559,"dissonance":0.079},{"voice":3,"pitch":52,"start":176.3332,"duration":0.3333,"velocity":90,"measure":67,"beat":1.5,"subject_pos":-1,"motif":"enigmatic_cell","motif_pos":2,"best_pos":2,"similarity":1.0,"stretto":false,"stretto_voices":0,"combination":[],"aug_dim":"","rhythm_ratio":1.0,"mirror":false,"chromatic_density":0.545,"complexity":0.559,"dissonance":0.079},{"voice":0,"pitch":77,"start":176.6665,"duration":0.6667,"velocity":90,"measure":67,"beat":2.0,"subject_pos":-1,"motif":"","motif_pos":-1,"best_pos":3,"similarity":0.429,"stretto":false,"stretto_voices":0,"combination":[],"aug_dim":"","rhythm_ratio":1.0,"mirror":false,"chromatic_density":0.545,"complexity":0.559,"dissonance":0.079},{"voice":2,"pitch":57,"start":176.6665,"duration":0.6667,"velocity":90,"measure":67,"beat":2.0,"subject_pos":-1,"motif":"","motif_pos":-1,"best_pos":2,"similarity":0.364,"stretto":false,"stretto_voices":0,"combination":[],"aug_dim":"","rhythm_ratio":1.0,"mirror":false,"chromatic_density":0.545,"complexity":0.559,"dissonance":0.079},{"voice":3,"pitch":57,"start":176.6665,"duration":1.0,"velocity":90,"measure":67,"beat":2.0,"subject_pos":-1,"motif":"","motif_pos":-1,"best_pos":1,"similarity":0.514,"stretto":false,"stretto_voices":0,"combination":[],"aug_dim":"","rhythm_ratio":1.0,"mirror":false,"chromatic_density":0.545,"complexity":0.559,"dissonance":0.079},{"voice":1,"pitch":62,"start":176.9998,"duration":0.3333,"velocity":90,"measure":67,"beat":2.5,"subject_pos":-1,"motif":"","motif_pos":-1,"best_pos":2,"similarity":0.518,"stretto":false,"stretto_voices":0,"combination":[],"aug_dim":"","rhythm_ratio":1.0,"mirror":false,"chromatic_density":0.545,"complexity":0.559,"dissonance":0.079},{"voice":0,"pitch":76,"start":177.3332,"duration":0.6667,"velocity":90,"measure":67,"beat":3.0,"subject_pos":-1,"motif":"","motif_pos":-1,"best_pos":3,"similarity":0.518,"stretto":false,"stretto_voices":0,"combination":[],"aug_dim":"","rhythm_ratio":1.0,"mirror":false,"chromatic_density":0.545,"complexity":0.559,"dissonance":0.079},{"voice":1,"pitch":61,"start":177.3332,"duration":0.6667,"velocity":90,"measure":67,"beat":3.0,"subject_pos":-1,"motif":"","motif_pos":-1,"best_pos":3,"similarity":0.536,"stretto":false,"stretto_voices":0,"combination":[],"aug_dim":"","rhythm_ratio":1.0,"mirror":false,"chromatic_density":0.545,"complexity":0.559,"dissonance":0.079},{"voice":3,"pitch":56,"start":177.6665,"duration":0.3333,"velocity":90,"measure":67,"beat":3.5,"subject_pos":-1,"motif":"","motif_pos":-1,"best_pos":4,"similarity":0.629,"stretto":false,"stretto_voices":0,"combination":[],"aug_dim":"","rhythm_ratio":1.0,"mirror":false,"chromatic_density":0.545,"complexity":0.559,"dissonance":0.079},{"voice":0,"pitch":75,"start":177.9998,"duration":0.6667,"velocity":90,"measure":67,"beat":4.0,"subject_pos":-1,"motif":"","motif_pos":-1,"best_pos":4,"similarity":0.661,"stretto":false,"stretto_voices":0,"combination":[],"aug_dim":"","rhythm_ratio":1.0,"mirror":false,"chromatic_density":0.545,"complexity":0.559,"dissonance":0.079},{"voice":1,"pitch":60,"start":177.9998,"duration":0.6667,"velocity":90,"measure":67,"beat":4.0,"subject_pos":-1,"motif":"","motif_pos":-1,"best_pos":4,"similarity":0.471,"stretto":false,"stretto_voices":0,"combination":[],"aug_dim":"","rhythm_ratio":1.0,"mirror":false,"chromatic_density":0.545,"complexity":0.559,"dissonance":0.079},{"voice":3,"pitch":57,"start":177.9998,"duration":0.6667,"velocity":90,"measure":67,"beat":4.0,"subject_pos":-1,"motif":"","motif_pos":-1,"best_pos":3,"similarity":0.471,"stretto":false,"stretto_voices":0,"combination":[],"aug_dim":"","rhythm_ratio":1.0,"mirror":false,"chromatic_density":0.545,"complexity":0.559,"dissonance":0.079},{"voice":2,"pitch":66,"start":178.3332,"duration":0.3333,"velocity":90,"measure":67,"beat":4.5,"subject_pos":-1,"motif":"","motif_pos":-1,"best_pos":1,"similarity":0.464,"stretto":false,"stretto_voices":0,"combination":[],"aug_dim":"","rhythm_ratio":1.0,"mirror":false,"chromatic_density":0.545,"complexity":0.559,"dissonance":0.079},{"voice":0,"pitch":76,"start":178.6665,"duration":0.6667,"velocity":90,"measure":68,"beat":1.0,"subject_pos":-1,"motif":"","motif_pos":-1,"best_pos":5,"similarity":0.554,"stretto":false,"stretto_voices":0,"combination":[],"aug_dim":"","rhythm_ratio":1.0,"mirror":false,"chromatic_density":0.471,"complexity":0.577,"dissonance":0.108},{"voice":1,"pitch":59,"start":178.6665,"duration":0.3333,"velocity":90,"measure":68,"beat":1.0,"subject_pos":-1,"motif":"","motif_pos":-1,"best_pos":4,"similarity":0.389,"stretto":false,"stretto_voices":0,"combination":[],"aug_dim":"","rhythm_ratio":1.0,"mirror":false,"chromatic_density":0.471,"complexity":0.577,"dissonance":0.108},{"voice":2,"pitch":64,"start":178.6665,"duration":0.3333,"velocity":90,"measure":68,"beat":1.0,"subject_pos":-1,"motif":"","motif_pos":-1,"best_pos":2,"similarity":0.554,"stretto":false,"stretto_voices":0,"combination":[],"aug_dim":"","rhythm_ratio":1.0,"mirror":false,"chromatic_density":0.471,"complexity":0.577,"dissonance":0.108},{"voice":3,"pitch":56,"start":178.6665,"duration":0.6667,"velocity":90,"measure":68,"beat":1.0,"subject_pos":-1,"motif":"","motif_pos":-1,"best_pos":4,"similarity":0.382,"stretto":false,"stretto_voices":0,"combination":[],"aug_dim":"","rhythm_ratio":1.0,"mirror":false,"chromatic_density":0.471,"complexity":0.577,"dissonance":0.108},{"voice":1,"pitch":71,"start":178.9998,"duration":0.3333,"velocity":90,"measure":68,"beat":1.5,"subject_pos":-1,"motif":"","motif_pos":-1,"best_pos":2,"similarity":0.357,"stretto":false,"stretto_voices":0,"combination":[],"aug_dim":"","rhythm_ratio":1.0,"mirror":false,"chromatic_density":0.471,"complexity":0.577,"dissonance":0.108},{"voice":2,"pitch":62,"start":178.9998,"duration":0.3333,"velocity":90,"measure":68,"beat":1.5,"subject_pos":-1,"motif":"","motif_pos":-1,"best_pos":2,"similarity":0.643,"stretto":false,"stretto_voices":0,"combination":[],"aug_dim":"","rhythm_ratio":1.0,"mirror":false,"chromatic_density":0.471,"complexity":0.577,"dissonance":0.108},{"voice":0,"pitch":76,"start":179.3332,"duration":0.6667,"velocity":90,"measure":68,"beat":2.0,"subject_pos":-1,"motif":"","motif_pos":-1,"best_pos":3,"similarity":0.371,"stretto":false,"stretto_voices":0,"combination":[],"aug_dim":"","rhythm_ratio":1.0,"mirror":false,"chromatic_density":0.471,"complexity":0.577,"dissonance":0.108},{"voice":1,"pitch":69,"start":179.3332,"duration":0.3333,"velocity":90,"measure":68,"beat":2.0,"subject_pos":-1,"motif":"","motif_pos":-1,"best_pos":3,"similarity":0.607,"stretto":false,"stretto_voices":0,"combination":[],"aug_dim":"","rhythm_ratio":1.0,"mirror":false,"chromatic_density":0.471,"complexity":0.577,"dissonance":0.108},{"voice":2,"pitch":60,"start":179.3332,"duration":0.3333,"velocity":90,"measure":68,"beat":2.0,"subject_pos":-1,"motif":"","motif_pos":-1,"best_pos":3,"similarity":0.786,"stretto":false,"stretto_voices":0,"combination":[],"aug_dim":"","rhythm_ratio":1.0,"mirror":false,"chromatic_density":0.471,"complexity":0.577,"dissonance":0.108},{"voice":3,"pitch":60,"start":179.3332,"duration":0.6667,"velocity":90,"measure":68,"beat":2.0,"subject_pos":-1,"motif":"","motif_pos":-1,"best_pos":1,"similarity":0.321,"stretto":false,"stretto_voices":0,"combination":[],"aug_dim":"","rhythm_ratio":1.0,"mirror":false,"chromatic_density":0.471,"complexity":0.577,"dissonance":0.108},{"voice":1,"pitch":68,"start":179.6665,"duration":0.3333,"velocity":90,"measure":68,"beat":2.5,"subject_pos":-1,"motif":"","motif_pos":-1,"best_pos":4,"similarity":0.732,"stretto":false,"stretto_voices":0,"combination":[],"aug_dim":"","rhythm_ratio":1.0,"mirror":false,"chromatic_density":0.471,"complexity":0.577,"dissonance":0.108},{"voice":2,"pitch":59,"start":179.6665,"duration":0.3333,"velocity":90,"measure":68,"beat":2.5,"subject_pos":-1,"motif":"","motif_pos":-1,"best_pos":4,"similarity":0.893,"stretto":false,"stretto_voices":0,"combination":[],"aug_dim":"","rhythm_ratio":1.0,"mirror":false,"chromatic_density":0.471,"complexity":0.577,"dissonance":0.108},{"voice":0,"pitch":75,"start":179.9998,"duration":0.6667,"velocity":90,"measure":68,"beat":3.0,"subject_pos":-1,"motif":"","motif_pos":-1,"best_pos":3,"similarity":0.443,"stretto":false,"stretto_voices":0,"combination":[],"aug_dim":"","rhythm_ratio":1.0,"mirror":false,"chromatic_density":0.471,"complexity":0.577,"dissonance":0.108},{"voice":1,"pitch":69,"start":179.9998,"duration":0.3333,"velocity":90,"measure":68,"beat":3.0,"subject_pos":-1,"motif":"","motif_pos":-1,"best_pos":5,"similarity":0.643,"stretto":false,"stretto_voices":0,"combination":[],"aug_dim":"","rhythm_ratio":1.0,"mirror":false,"chromatic_density":0.471,"complexity":0.577,"dissonance":0.108},{"voice":2,"pitch":60,"start":179.9998,"duration":0.6667,"velocity":90,"measure":68,"beat":3.0,"subject_pos":-1,"motif":"","motif_pos":-1,"best_pos":5,"similarity":0.821,"stretto":false,"stretto_voices":0,"combination":[],"aug_dim":"","rhythm_ratio":1.0,"mirror":false,"chromatic_density":0.471,"complexity":0.577,"dissonance":0.108},{"voice":3,"pitch":54,"start":179.9998,"duration":0.6667,"velocity":90,"measure":68,"beat":3.0,"subject_pos":-1,"motif":"","motif_pos":-1,"best_pos":2,"similarity":0.364,"stretto":false,"stretto_voices":0,"combination":[],"aug_dim":"","rhythm_ratio":1.0,"mirror":false,"chromatic_density":0.471,"complexity":0.577,"dissonance":0.108},{"voice":1,"pitch":72,"start":180.3332,"duration":0.3333,"velocity":90,"measure":68,"beat":3.5,"subject_pos":-1,"motif":"","motif_pos":-1,"best_pos":6,"similarity":0.429,"stretto":false,"stretto_voices":0,"combination":[],"aug_dim":"","rhythm_ratio":1.0,"mirror":false,"chromatic_density":0.471,"complexity":0.577,"dissonance":0.108},{"voice":0,"pitch":74,"start":180.6665,"duration":0.6667,"velocity":90,"measure":68,"beat":4.0,"subject_pos":-1,"motif":"","motif_pos":-1,"best_pos":3,"similarity":0.471,"stretto":false,"stretto_voices":0,"combination":[],"aug_dim":"","rhythm_ratio":1.0,"mirror":false,"chromatic_density":0.471,"complexity":0.577,"dissonance":0.108},{"voice":1,"pitch":71,"start":180.6665,"duration":0.3333,"velocity":90,"measure":68,"beat":4.0,"subject_pos":-1,"motif":"","motif_pos":-1,"best_pos":2,"similarity":0.482,"stretto":false,"stretto_voices":0,"combination":[],"aug_dim":"","rhythm_ratio":1.0,"mirror":false,"chromatic_density":0.471,"complexity":0.577,"dissonance":0.108},{"voice":2,"pitch":62,"start":180.6665,"duration":0.6667,"velocity":90,"measure":68,"beat":4.0,"subject_pos":-1,"motif":"","motif_pos":-1,"best_pos":6,"similarity":0.643,"stretto":false,"stretto_voices":0,"combination":[],"aug_dim":"","rhythm_ratio":1.0,"mirror":false,"chromatic_density":0.471,"complexity":0.577,"dissonance":0.108},{"voice":3,"pitch":53,"start":180.6665,"duration":0.6667,"velocity":90,"measure":68,"beat":4.0,"subject_pos":-1,"motif":"enigmatic_cell","motif_pos":0,"best_pos":0,"similarity":1.0,"stretto":false,"stretto_voices":0,"combination":[],"aug_dim":"","rhythm_ratio":1.0,"mirror":false,"chromatic_density":0.471,"complexity":0.577,"dissonance":0.108},{"voice":1,"pitch":69,"start":180.9998,"duration":0.3333,"velocity":90,"measure":68,"beat":4.5,"subject_pos":-1,"motif":"","motif_pos":-1,"best_pos":3,"similarity":0.561,"stretto":false,"stretto_voices":0,"combination":[],"aug_dim":"","rhythm_ratio":1.0,"mirror":false,"chromatic_density":0.471,"complexity":0.577,"dissonance":0.108},{"voice":0,"pitch":73,"start":181.3332,"duration":0.6667,"velocity":90,"measure":69,"beat":1.0,"subject_pos":-1,"motif":"","motif_pos":-1,"best_pos":3,"similarity":0.471,"stretto":false,"stretto_voices":0,"combination":[],"aug_dim":"","rhythm_ratio":1.0,"mirror":false,"chromatic_density":0.667,"complexity":0.638,"dissonance":0.1},{"voice":1,"pitch":68,"start":181.3332,"duration":0.6667,"velocity":90,"measure":69,"beat":1.0,"subject_pos":-1,"motif":"","motif_pos":-1,"best_pos":3,"similarity":0.543,"stretto":false,"stretto_voices":0,"combination":[],"aug_dim":"","rhythm_ratio":1.0,"mirror":false,"chromatic_density":0.667,"complexity":0.638,"dissonance":0.1},{"voice":2,"pitch":64,"start":181.3332,"duration":0.3333,"velocity":90,"measure":69,"beat":1.0,"subject_pos":-1,"motif":"","motif_pos":-1,"best_pos":3,"similarity":0.45,"stretto":false,"stretto_voices":0,"combination":[],"aug_dim":"","rhythm_ratio":1.0,"mirror":false,"chromatic_density":0.667,"complexity":0.638,"dissonance":0.1},{"voice":3,"pitch":52,"start":181.3332,"duration":0.6667,"velocity":90,"measure":69,"beat":1.0,"subject_pos":-1,"motif":"enigmatic_cell","motif_pos":1,"best_pos":1,"similarity":1.0,"stretto":false,"stretto_voices":0,"combination":[],"aug_dim":"","rhythm_ratio":1.0,"mirror":false,"chromatic_density":0.667,"complexity":0.638,"dissonance":0.1},{"voice":2,"pitch":63,"start":181.6665,"duration":0.3333,"velocity":90,"measure":69,"beat":1.5,"subject_pos":-1,"motif":"","motif_pos":-1,"best_pos":4,"similarity":0.614,"stretto":false,"stretto_voices":0,"combination":[],"aug_dim":"","rhythm_ratio":1.0,"mirror":false,"chromatic_density":0.667,"complexity":0.638,"dissonance":0.1},{"voice":0,"pitch":72,"start":181.9998,"duration":0.6667,"velocity":90,"measure":69,"beat":2.0,"subject_pos":-1,"motif":"","motif_pos":-1,"best_pos":3,"similarity":0.471,"stretto":false,"stretto_voices":0,"combination":[],"aug_dim":"","rhythm_ratio":1.0,"mirror":false,"chromatic_density":0.667,"complexity":0.638,"dissonance":0.1},{"voice":1,"pitch":67,"start":181.9998,"duration":0.6667,"velocity":90,"measure":69,"beat":2.0,"subject_pos":-1,"motif":"","motif_pos":-1,"best_pos":4,"similarity":0.496,"stretto":false,"stretto_voices":0,"combination":[],"aug_dim":"","rhythm_ratio":1.0,"mirror":false,"chromatic_density":0.667,"complexity":0.638,"dissonance":0.1},{"voice":2,"pitch":64,"start":181.9998,"duration":0.3333,"velocity":90,"measure":69,"beat":2.0,"subject_pos":-1,"motif":"","motif_pos":-1,"best_pos":5,"similarity":0.5,"stretto":false,"stretto_voices":0,"combination":[],"aug_dim":"","rhythm_ratio":1.0,"mirror":false,"chromatic_density":0.667,"complexity":0.638,"dissonance":0.1},{"voice":3,"pitch":57,"start":181.9998,"duration":0.6667,"velocity":90,"measure":69,"beat":2.0,"subject_pos":-1,"motif":"enigmatic_cell","motif_pos":2,"best_pos":2,"similarity":1.0,"stretto":false,"stretto_voices":0,"combination":[],"aug_dim":"","rhythm_ratio":1.0,"mirror":false,"chromatic_density":0.667,"complexity":0.638,"dissonance":0.1},{"voice":2,"pitch":60,"start":182.3332,"duration":0.3333,"velocity":90,"measure":69,"beat":2.5,"subject_pos":-1,"motif":"","motif_pos":-1,"best_pos":2,"similarity":0.514,"stretto":false,"stretto_voices":0,"combination":[],"aug_dim":"","rhythm_ratio":1.0,"mirror":false,"chromatic_density":0.667,"complexity":0.638,"dissonance":0.1},{"voice":0,"pitch":71,"start":182.6665,"duration":0.6667,"velocity":90,"measure":69,"beat":3.0,"subject_pos":-1,"motif":"","motif_pos":-1,"best_pos":3,"similarity":0.471,"stretto":false,"stretto_voices":0,"combination":[],"aug_dim":"","rhythm_ratio":1.0,"mirror":false,"chromatic_density":0.667,"complexity":0.638,"dissonance":0.1},{"voice":1,"pitch":66,"start":182.6665,"duration":0.6667,"velocity":90,"measure":69,"beat":3.0,"subject_pos":-1,"motif":"","motif_pos":-1,"best_pos":4,"similarity":0.514,"stretto":false,"stretto_voices":0,"combination":[],"aug_dim":"","rhythm_ratio":1.0,"mirror":false,"chromatic_density":0.667,"complexity":0.638,"dissonance":0.1},{"voice":2,"pitch":62,"start":182.6665,"duration":0.3333,"velocity":90,"measure":69,"beat":3.0,"subject_pos":-1,"motif":"","motif_pos":-1,"best_pos":3,"similarity":0.579,"stretto":false,"stretto_voices":0,"combination":[],"aug_dim":"","rhythm_ratio":1.0,"mirror":false,"chromatic_density":0.667,"complexity":0.638,"dissonance":0.1},{"voice":3,"pitch":50,"start":182.6665,"duration":1.3333,"velocity":90,"measure":69,"beat":3.0,"subject_pos":-1,"motif":"","motif_pos":-1,"best_pos":2,"similarity":0.364,"stretto":false,"stretto_voices":0,"combination":[],"aug_dim":"","rhythm_ratio":1.0,"mirror":false,"chromatic_density":0.667,"complexity":0.638,"dissonance":0.1},{"voice":2,"pitch":61,"start":182.9998,"duration":0.3333,"velocity":90,"measure":69,"beat":3.5,"subject_pos":-1,"motif":"enigmatic_cell","motif_pos":0,"best_pos":0,"similarity":1.0,"stretto":false,"stretto_voices":0,"combination":[],"aug_dim":"","rhythm_ratio":1.0,"mirror":false,"chromatic_density":0.667,"complexity":0.638,"dissonance":0.1},{"voice":0,"pitch":70,"start":183.3331,"duration":0.6667,"velocity":90,"measure":69,"beat":4.0,"subject_pos":-1,"motif":"","motif_pos":-1,"best_pos":4,"similarity":0.514,"stretto":false,"stretto_voices":0,"combination":[],"aug_dim":"","rhythm_ratio":1.0,"mirror":false,"chromatic_density":0.667,"complexity":0.638,"dissonance":0.1},{"voice":1,"pitch":65,"start":183.3331,"duration":0.6667,"velocity":90,"measure":69,"beat":4.0,"subject_pos":-1,"motif":"","motif_pos":-1,"best_pos":3,"similarity":0.579,"stretto":false,"stretto_voices":0,"combination":[],"aug_dim":"","rhythm_ratio":1.0,"mirror":false,"chromatic_density":0.667,"complexity":0.638,"dissonance":0.1},{"voice":2,"pitch":62,"start":183.3331,"duration":0.3333,"velocity":90,"measure":69,"beat":4.0,"subject_pos":-1,"motif":"enigmatic_cell","motif_pos":1,"best_pos":1,"similarity":1.0,"stretto":false,"stretto_voices":0,"combination":[],"aug_dim":"","rhythm_ratio":1.0,"mirror":false,"chromatic_density":0.667,"complexity":0.638,"dissonance":0.1},{"voice":2,"pitch":56,"start":183.6665,"duration":0.3333,"velocity":90,"measure":69,"beat":4.5,"subject_pos":-1,"motif":"enigmatic_cell","motif_pos":2,"best_pos":2,"similarity":1.0,"stretto":false,"stretto_voices":0,"combination":[],"aug_dim":"","rhythm_ratio":1.0,"mirror":false,"chromatic_density":0.667,"complexity":0.638,"dissonance":0.1},{"voice":0,"pitch":69,"start":183.9998,"duration":2.0,"velocity":90,"measure":70,"beat":1.0,"subject_pos":-1,"motif":"","motif_pos":-1,"best_pos":3,"similarity":0.579,"stretto":false,"stretto_voices":0,"combination":[],"aug_dim":"","rhythm_ratio":1.0,"mirror":false,"chromatic_density":0.5,"complexity":0.48,"dissonance":0.133},{"voice":1,"pitch":64,"start":183.9998,"duration":0.6667,"velocity":90,"measure":70,"beat":1.0,"subject_pos":-1,"motif":"","motif_pos":-1,"best_pos":4,"similarity":0.693,"stretto":false,"stretto_voices":0,"combination":[],"aug_dim":"","rhythm_ratio":1.0,"mirror":false,"chromatic_density":0.5,"complexity":0.48,"dissonance":0.133},{"voice":2,"pitch":57,"start":183.9998,"duration":0.3333,"velocity":90,"measure":70,"beat":1.0,"subject_pos":-1,"motif":"","motif_pos":-1,"best_pos":5,"similarity":0.721,"stretto":false,"stretto_voices":0,"combination":[],"aug_dim":"","rhythm_ratio":1.0,"mirror":false,"chromatic_density":0.5,"complexity":0.48,"dissonance":0.133},{"voice":3,"pitch":48,"start":183.9998,"duration":0.6667,"velocity":90,"measure":70,"beat":1.0,"subject_pos":-1,"motif":"","motif_pos":-1,"best_pos":4,"similarity":0.45,"stretto":false,"stretto_voices":0,"combination":[],"aug_dim":"","rhythm_ratio":1.0,"mirror":false,"chromatic_density":0.5,"complexity":0.48,"dissonance":0.133},{"voice":2,"pitch":59,"start":184.3331,"duration":0.3333,"velocity":90,"measure":70,"beat":1.5,"subject_pos":-1,"motif":"","motif_pos":-1,"best_pos":6,"similarity":0.714,"stretto":false,"stretto_voices":0,"combination":[],"aug_dim":"","rhythm_ratio":1.0,"mirror":false,"chromatic_density":0.5,"complexity":0.48,"dissonance":0.133},{"voice":1,"pitch":65,"start":184.6665,"duration":0.6667,"velocity":90,"measure":70,"beat":2.0,"subject_pos":-1,"motif":"","motif_pos":-1,"best_pos":5,"similarity":0.546,"stretto":false,"stretto_voices":0,"combination":[],"aug_dim":"","rhythm_ratio":1.0,"mirror":false,"chromatic_density":0.5,"complexity":0.48,"dissonance":0.133},{"voice":2,"pitch":60,"start":184.6665,"duration":0.6667,"velocity":90,"measure":70,"beat":2.0,"subject_pos":-1,"motif":"","motif_pos":-1,"best_pos":7,"similarity":0.5,"stretto":false,"stretto_voices":0,"combination":[],"aug_dim":"","rhythm_ratio":1.0,"mirror":false,"chromatic_density":0.5,"complexity":0.48,"dissonance":0.133},{"voice":3,"pitch":50,"start":184.6665,"duration":0.6667,"velocity":90,"measure":70,"beat":2.0,"subject_pos":-1,"motif":"","motif_pos":-1,"best_pos":5,"similarity":0.521,"stretto":false,"stretto_voices":0,"combination":[],"aug_dim":"","rhythm_ratio":1.0,"mirror":false,"chromatic_density":0.5,"complexity":0.48,"dissonance":0.133},{"voice":1,"pitch":64,"start":185.3331,"duration":1.3333,"velocity":90,"measure":70,"beat":3.0,"subject_pos":-1,"motif":"","motif_pos":-1,"best_pos":4,"similarity":0.586,"stretto":false,"stretto_voices":0,"combination":[],"aug_dim":"","rhythm_ratio":1.0,"mirror":false,"chromatic_density":0.5,"complexity":0.48,"dissonance":0.133},{"voice":2,"pitch":59,"start":185.3331,"duration":1.3333,"velocity":90,"measure":70,"beat":3.0,"subject_pos":-1,"motif":"","motif_pos":-1,"best_pos":4,"similarity":0.629,"stretto":false,"stretto_voices":0,"combination":[],"aug_dim":"","rhythm_ratio":1.0,"mirror":false,"chromatic_density":0.5,"complexity":0.48,"dissonance":0.133},{"voice":3,"pitch":52,"start":185.3331,"duration":0.3333,"velocity":90,"measure":70,"beat":3.0,"subject_pos":-1,"motif":"","motif_pos":-1,"best_pos":6,"similarity":0.421,"stretto":false,"stretto_voices":0,"combination":[],"aug_dim":"","rhythm_ratio":1.0,"mirror":false,"chromatic_density":0.5,"complexity":0.48,"dissonance":0.133},{"voice":3,"pitch":50,"start":185.6665,"duration":0.3333,"velocity":90,"measure":70,"beat":3.5,"subject_pos":-1,"motif":"","motif_pos":-1,"best_pos":5,"similarity":0.329,"stretto":false,"stretto_voices":0,"combination":[],"aug_dim":"","rhythm_ratio":1.0,"mirror":false,"chromatic_density":0.5,"complexity":0.48,"dissonance":0.133},{"voice":0,"pitch":68,"start":185.9998,"duration":0.6667,"velocity":90,"measure":70,"beat":4.0,"subject_pos":-1,"motif":"","motif_pos":-1,"best_pos":4,"similarity":0.693,"stretto":false,"stretto_voices":0,"combination":[],"aug_dim":"","rhythm_ratio":1.0,"mirror":false,"chromatic_density":0.5,"complexity":0.48,"dissonance":0.133},{"voice":3,"pitch":52,"start":185.9998,"duration":0.6667,"velocity":90,"measure":70,"beat":4.0,"subject_pos":-1,"motif":"","motif_pos":-1,"best_pos":6,"similarity":0.307,"stretto":false,"stretto_voices":0,"combination":[],"aug_dim":"","rhythm_ratio":1.0,"mirror":false,"chromatic_density":0.5,"complexity":0.48,"dissonance":0.133},{"voice":0,"pitch":69,"start":186.6665,"duration":0.6667,"velocity":90,"measure":71,"beat":1.0,"subject_pos":-1,"motif":"","motif_pos":-1,"best_pos":5,"similarity":0.546,"stretto":false,"stretto_voices":0,"combination":[],"aug_dim":"","rhythm_ratio":1.0,"mirror":false,"chromatic_density":0.167,"complexity":0.541,"dissonance":0.089},{"voice":1,"pitch":64,"start":186.6665,"duration":0.6667,"velocity":90,"measure":71,"beat":1.0,"subject_pos":-1,"motif":"","motif_pos":-1,"best_pos":4,"similarity":0.525,"stretto":false,"stretto_voices":0,"combination":[],"aug_dim":"","rhythm_ratio":1.0,"mirror":false,"chromatic_density":0.167,"complexity":0.541,"dissonance":0.089},{"voice":2,"pitch":60,"start":186.6665,"duration":0.6667,"velocity":90,"measure":71,"beat":1.0,"subject_pos":-1,"motif":"","motif_pos":-1,"best_pos":5,"similarity":0.507,"stretto":false,"stretto_voices":0,"combination":[],"aug_dim":"","rhythm_ratio":1.0,"mirror":false,"chromatic_density":0.167,"complexity":0.541,"dissonance":0.089},{"voice":3,"pitch":45,"start":186.6665,"duration":0.6667,"velocity":90,"measure":71,"beat":1.0,"subject_pos":-1,"motif":"","motif_pos":-1,"best_pos":5,"similarity":0.193,"stretto":false,"stretto_voices":0,"combination":[],"aug_dim":"","rhythm_ratio":1.0,"mirror":false,"chromatic_density":0.167,"complexity":0.541,"dissonance":0.089},{"voice":2,"pitch":64,"start":187.3331,"duration":0.6667,"velocity":90,"measure":71,"beat":2.0,"subject_pos":0,"motif":"subject_inv","motif_pos":0,"best_pos":0,"similarity":1.0,"stretto":false,"stretto_voices":0,"combination":[],"aug_dim":"","rhythm_ratio":1.0,"mirror":false,"chromatic_density":0.167,"complexity":0.541,"dissonance":0.089},{"voice":2,"pitch":57,"start":187.9998,"duration":0.6667,"velocity":90,"measure":71,"beat":3.0,"subject_pos":1,"motif":"subject_inv","motif_pos":1,"best_pos":1,"similarity":1.0,"stretto":false,"stretto_voices":0,"combination":[],"aug_dim":"","rhythm_ratio":1.0,"mirror":false,"chromatic_density":0.167,"complexity":0.541,"dissonance":0.089},{"voice":0,"pitch":74,"start":188.6665,"duration":0.6667,"velocity":90,"measure":71,"beat":4.0,"subject_pos":-1,"motif":"","motif_pos":-1,"best_pos":1,"similarity":0.464,"stretto":false,"stretto_voices":0,"combination":[],"aug_dim":"","rhythm_ratio":1.0,"mirror":false,"chromatic_density":0.167,"complexity":0.541,"dissonance":0.089},{"voice":1,"pitch":65,"start":188.6665,"duration":0.6667,"velocity":90,"measure":71,"beat":4.0,"subject_pos":-1,"motif":"","motif_pos":-1,"best_pos":5,"similarity":0.482,"stretto":false,"stretto_voices":0,"combination":[],"aug_dim":"","rhythm_ratio":1.0,"mirror":false,"chromatic_density":0.167,"complexity":0.541,"dissonance":0.089},{"voice":2,"pitch":59,"start":188.6665,"duration":0.6667,"velocity":90,"measure":71,"beat":4.0,"subject_pos":2,"motif":"subject_inv","motif_pos":2,"best_pos":2,"similarity":1.0,"stretto":false,"stretto_voices":0,"combination":[],"aug_dim":"","rhythm_ratio":1.0,"mirror":false,"chromatic_density":0.167,"complexity":0.541,"dissonance":0.089},{"voice":3,"pitch":56,"start":188.6665,"duration":0.6667,"velocity":90,"measure":71,"beat":4.0,"subject_pos":-1,"motif":"","motif_pos":-1,"best_pos":4,"similarity":0.379,"stretto":false,"stretto_voices":0,"combination":[],"aug_dim":"","rhythm_ratio":1.0,"mirror":false,"chromatic_density":0.167,"complexity":0.541,"dissonance":0.089},{"voice":0,"pitch":74,"start":189.3331,"duration":0.6667,"velocity":90,"measure":72,"beat":1.0,"subject_pos":-1,"motif":"","motif_pos":-1,"best_pos":2,"similarity":0.464,"stretto":false,"stretto_voices":0,"combination":[],"aug_dim":"","rhythm_ratio":1.0,"mirror":false,"chromatic_density":0.143,"complexity":0.523,"dissonance":0.12},{"voice":1,"pitch":65,"start":189.3331,"duration":0.6667,"velocity":90,"measure":72,"beat":1.0,"subject_pos":-1,"motif":"","motif_pos":-1,"best_pos":3,"similarity":0.382,"stretto":false,"stretto_voices":0,"combination":[],"aug_dim":"","rhythm_ratio":1.0,"mirror":false,"chromatic_density":0.143,"complexity":0.523,"dissonance":0.12},{"voice":3,"pitch":57,"start":189.3331,"duration":1.3333,"velocity":90,"measure":72,"beat":1.0,"subject_pos":-1,"motif":"","motif_pos":-1,"best_pos":5,"similarity":0.436,"stretto":false,"stretto_voices":0,"combination":[],"aug_dim":"","rhythm_ratio":1.0,"mirror":false,"chromatic_density":0.143,"complexity":0.523,"dissonance":0.12},{"voice":0,"pitch":72,"start":189.9998,"duration":0.6667,"velocity":90,"measure":72,"beat":2.0,"subject_pos":-1,"motif":"","motif_pos":-1,"best_pos":2,"similarity":0.518,"stretto":false,"stretto_voices":0,"combination":[],"aug_dim":"","rhythm_ratio":1.0,"mirror":false,"chromatic_density":0.143,"complexity":0.523,"dissonance":0.12},{"voice":1,"pitch":64,"start":189.9998,"duration":0.6667,"velocity":90,"measure":72,"beat":2.0,"subject_pos":-1,"motif":"","motif_pos":-1,"best_pos":4,"similarity":0.421,"stretto":false,"stretto_voices":0,"combination":[],"aug_dim":"","rhythm_ratio":1.0,"mirror":false,"chromatic_density":0.143,"complexity":0.523,"dissonance":0.12},{"voice":2,"pitch":60,"start":189.9998,"duration":0.6667,"velocity":90,"measure":72,"beat":2.0,"subject_pos":3,"motif":"subject_inv","motif_pos":3,"best_pos":3,"similarity":1.0,"stretto":false,"stretto_voices":0,"combination":[],"aug_dim":"","rhythm_ratio":1.0,"mirror":false,"chromatic_density":0.143,"complexity":0.523,"dissonance":0.12},{"voice":2,"pitch":62,"start":190.6665,"duration":0.6667,"velocity":90,"measure":72,"beat":3.0,"subject_pos":4,"motif":"subject_inv","motif_pos":4,"best_pos":4,"similarity":1.0,"stretto":false,"stretto_voices":0,"combination":[],"aug_dim":"","rhythm_ratio":1.0,"mirror":false,"chromatic_density":0.143,"complexity":0.523,"dissonance":0.12},{"voice":0,"pitch":70,"start":191.3331,"duration":0.6667,"velocity":90,"measure":72,"beat":4.0,"subject_pos":-1,"motif":"","motif_pos":-1,"best_pos":3,"similarity":0.536,"stretto":false,"stretto_voices":0,"combination":[],"aug_dim":"","rhythm_ratio":1.0,"mirror":false,"chromatic_density":0.143,"complexity":0.523,"dissonance":0.12},{"voice":1,"pitch":67,"start":191.3331,"duration":0.6667,"velocity":90,"measure":72,"beat":4.0,"subject_pos":-1,"motif":"","motif_pos":-1,"best_pos":6,"similarity":0.357,"stretto":false,"stretto_voices":0,"combination":[],"aug_dim":"","rhythm_ratio":1.0,"mirror":false,"chromatic_density":0.143,"complexity":0.523,"dissonance":0.12},{"voice":2,"pitch":64,"start":191.3331,"duration":0.6667,"velocity":90,"measure":72,"beat":4.0,"subject_pos":5,"motif":"subject_inv","motif_pos":5,"best_pos":5,"similarity":1.0,"stretto":false,"stretto_voices":0,"combination":[],"aug_dim":"","rhythm_ratio":1.0,"mirror":false,"chromatic_density":0.143,"complexity":0.523,"dissonance":0.12},{"voice":3,"pitch":49,"start":191.3331,"duration":0.6667,"velocity":90,"measure":72,"beat":4.0,"subject_pos":-1,"motif":"","motif_pos":-1,"best_pos":4,"similarity":0.514,"stretto":false,"stretto_voices":0,"combination":[],"aug_dim":"","rhythm_ratio":1.0,"mirror":false,"chromatic_density":0.143,"complexity":0.523,"dissonance":0.12},{"voice":0,"pitch":70,"start":191.9998,"duration":0.6667,"velocity":90,"measure":73,"beat":1.0,"subject_pos":-1,"motif":"","motif_pos":-1,"best_pos":4,"similarity":0.571,"stretto":false,"stretto_voices":0,"combination":[],"aug_dim":"","rhythm_ratio":1.0,"mirror":false,"chromatic_density":0.545,"complexity":0.55,"dissonance":0.103},{"voice":1,"pitch":67,"start":191.9998,"duration":0.6667,"velocity":90,"measure":73,"beat":1.0,"subject_pos":-1,"motif":"","motif_pos":-1,"best_pos":2,"similarity":0.4,"stretto":false,"stretto_voices":0,"combination":[],"aug_dim":"","rhythm_ratio":1.0,"mirror":false,"chromatic_density":0.545,"complexity":0.55,"dissonance":0.103},{"voice":3,"pitch":50,"start":191.9998,"duration":1.3333,"velocity":90,"measure":73,"beat":1.0,"subject_pos":-1,"motif":"","motif_pos":-1,"best_pos":5,"similarity":0.721,"stretto":false,"stretto_voices":0,"combination":[],"aug_dim":"","rhythm_ratio":1.0,"mirror":false,"chromatic_density":0.545,"complexity":0.55,"dissonance":0.103},{"voice":0,"pitch":69,"start":192.6665,"duration":0.3333,"velocity":90,"measure":73,"beat":2.0,"subject_pos":-1,"motif":"","motif_pos":-1,"best_pos":5,"similarity":0.607,"stretto":false,"stretto_voices":0,"combination":[],"aug_dim":"","rhythm_ratio":1.0,"mirror":false,"chromatic_density":0.545,"complexity":0.55,"dissonance":0.103},{"voice":1,"pitch":65,"start":192.6665,"duration":0.6667,"velocity":90,"measure":73,"beat":2.0,"subject_pos":-1,"motif":"","motif_pos":-1,"best_pos":3,"similarity":0.532,"stretto":false,"stretto_voices":0,"combination":[],"aug_dim":"","rhythm_ratio":1.0,"mirror":false,"chromatic_density":0.545,"complexity":0.55,"dissonance":0.103},{"voice":2,"pitch":65,"start":192.6665,"duration":0.6667,"velocity":90,"measure":73,"beat":2.0,"subject_pos":6,"motif":"subject_inv","motif_pos":6,"best_pos":6,"similarity":1.0,"stretto":false,"stretto_voices":0,"combination":[],"aug_dim":"","rhythm_ratio":1.0,"mirror":false,"chromatic_density":0.545,"complexity":0.55,"dissonance":0.103},{"voice":0,"pitch":71,"start":192.9998,"duration":0.3333,"velocity":90,"measure":73,"beat":2.5,"subject_pos":-1,"motif":"","motif_pos":-1,"best_pos":6,"similarity":0.643,"stretto":false,"stretto_voices":0,"combination":[],"aug_dim":"","rhythm_ratio":1.0,"mirror":false,"chromatic_density":0.545,"complexity":0.55,"dissonance":0.103},{"voice":0,"pitch":72,"start":193.3331,"duration":0.6667,"velocity":90,"measure":73,"beat":3.0,"subject_pos":-1,"motif":"","motif_pos":-1,"best_pos":3,"similarity":0.543,"stretto":false,"stretto_voices":0,"combination":[],"aug_dim":"","rhythm_ratio":1.0,"mirror":false,"chromatic_density":0.545,"complexity":0.55,"dissonance":0.103},{"voice":1,"pitch":64,"start":193.3331,"duration":0.6667,"velocity":90,"measure":73,"beat":3.0,"subject_pos":-1,"motif":"","motif_pos":-1,"best_pos":4,"similarity":0.511,"stretto":false,"stretto_voices":0,"combination":[],"aug_dim":"","rhythm_ratio":1.0,"mirror":false,"chromatic_density":0.545,"complexity":0.55,"dissonance":0.103},{"voice":2,"pitch":64,"start":193.3331,"duration":0.6667,"velocity":90,"measure":73,"beat":3.0,"subject_pos":7,"motif":"subject_inv","motif_pos":7,"best_pos":7,"similarity":1.0,"stretto":false,"stretto_voices":0,"combination":[],"aug_dim":"","rhythm_ratio":1.0,"mirror":false,"chromatic_density":0.545,"complexity":0.55,"dissonance":0.103},{"voice":0,"pitch":71,"start":193.9998,"duration":0.3333,"velocity":90,"measure":73,"beat":4.0,"subject_pos":-1,"motif":"","motif_pos":-1,"best_pos":4,"similarity":0.743,"stretto":false,"stretto_voices":0,"combination":[],"aug_dim":"","rhythm_ratio":1.0,"mirror":false,"chromatic_density":0.545,"complexity":0.55,"dissonance":0.103},{"voice":1,"pitch":68,"start":193.9998,"duration":1.3333,"velocity":90,"measure":73,"beat":4.0,"subject_pos":-1,"motif":"","motif_pos":-1,"best_pos":4,"similarity":0.446,"stretto":false,"stretto_voices":0,"combination":[],"aug_dim":"","rhythm_ratio":1.0,"mirror":false,"chromatic_density":0.545,"complexity":0.55,"dissonance":0.103},{"voice":2,"pitch":62,"start":193.9998,"duration":0.6667,"velocity":90,"measure":73,"beat":4.0,"subject_pos":8,"motif":"subject_inv","motif_pos":8,"best_pos":0,"similarity":1.0,"stretto":false,"stretto_voices":0,"combination":[],"aug_dim":"","rhythm_ratio":1.0,"mirror":false,"chromatic_density":0.545,"complexity":0.55,"dissonance":0.103},{"voice":3,"pitch":52,"start":193.9998,"duration":0.6667,"velocity":90,"measure":73,"beat":4.0,"subject_pos":-1,"motif":"enigmatic_cell","motif_pos":0,"best_pos":0,"similarity":1.0,"stretto":false,"stretto_voices":0,"combination":[],"aug_dim":"","rhythm_ratio":1.0,"mirror":false,"chromatic_density":0.545,"complexity":0.55,"dissonance":0.103},{"voice":0,"pitch":72,"start":194.3331,"duration":0.3333,"velocity":90,"measure":73,"beat":4.5,"subject_pos":-1,"motif":"","motif_pos":-1,"best_pos":5,"similarity":0.736,"stretto":false,"stretto_voices":0,"combination":[],"aug_dim":"","rhythm_ratio":1.0,"mirror":false,"chromatic_density":0.545,"complexity":0.55,"dissonance":0.103},{"voice":0,"pitch":74,"start":194.6665,"duration":0.6667,"velocity":90,"measure":74,"beat":1.0,"subject_pos":-1,"motif":"","motif_pos":-1,"best_pos":6,"similarity":0.529,"stretto":false,"stretto_voices":0,"combination":[],"aug_dim":"","rhythm_ratio":1.0,"mirror":false,"chromatic_density":0.25,"complexity":0.53,"dissonance":0.141},{"voice":3,"pitch":53,"start":194.6665,"duration":1.3333,"velocity":90,"measure":74,"beat":1.0,"subject_pos":-1,"motif":"enigmatic_cell","motif_pos":1,"best_pos":1,"similarity":1.0,"stretto":false,"stretto_voices":0,"combination":[],"aug_dim":"","rhythm_ratio":1.0,"mirror":false,"chromatic_density":0.25,"complexity":0.53,"dissonance":0.141},{"voice":0,"pitch":72,"start":195.3331,"duration":0.3333,"velocity":90,"measure":74,"beat":2.0,"subject_pos":-1,"motif":"","motif_pos":-1,"best_pos":4,"similarity":0.443,"stretto":false,"stretto_voices":0,"combination":[],"aug_dim":"","rhythm_ratio":1.0,"mirror":false,"chromatic_density":0.25,"complexity":0.53,"dissonance":0.141},{"voice":1,"pitch":69,"start":195.3331,"duration":0.6667,"velocity":90,"measure":74,"beat":2.0,"subject_pos":-1,"motif":"","motif_pos":-1,"best_pos":5,"similarity":0.411,"stretto":false,"stretto_voices":0,"combination":[],"aug_dim":"","rhythm_ratio":1.0,"mirror":false,"chromatic_density":0.25,"complexity":0.53,"dissonance":0.141},{"voice":2,"pitch":60,"start":195.3331,"duration":0.3333,"velocity":90,"measure":74,"beat":2.0,"subject_pos":-1,"motif":"","motif_pos":-1,"best_pos":3,"similarity":0.786,"stretto":false,"stretto_voices":0,"combination":[],"aug_dim":"","rhythm_ratio":1.0,"mirror":false,"chromatic_density":0.25,"complexity":0.53,"dissonance":0.141},{"voice":0,"pitch":74,"start":195.6665,"duration":0.3333,"velocity":90,"measure":74,"beat":2.5,"subject_pos":-1,"motif":"","motif_pos":-1,"best_pos":5,"similarity":0.514,"stretto":false,"stretto_voices":0,"combination":[],"aug_dim":"","rhythm_ratio":1.0,"mirror":false,"chromatic_density":0.25,"complexity":0.53,"dissonance":0.141},{"voice":2,"pitch":59,"start":195.6665,"duration":0.3333,"velocity":90,"measure":74,"beat":2.5,"subject_pos":-1,"motif":"","motif_pos":-1,"best_pos":4,"similarity":0.893,"stretto":false,"stretto_voices":0,"combination":[],"aug_dim":"","rhythm_ratio":1.0,"mirror":false,"chromatic_density":0.25,"complexity":0.53,"dissonance":0.141},{"voice":0,"pitch":76,"start":195.9998,"duration":0.6667,"velocity":90,"measure":74,"beat":3.0,"subject_pos":-1,"motif":"","motif_pos":-1,"best_pos":1,"similarity":0.457,"stretto":false,"stretto_voices":0,"combination":[],"aug_dim":"","rhythm_ratio":1.0,"mirror":false,"chromatic_density":0.25,"complexity":0.53,"dissonance":0.141},{"voice":2,"pitch":60,"start":195.9998,"duration":0.6667,"velocity":90,"measure":74,"beat":3.0,"subject_pos":-1,"motif":"","motif_pos":-1,"best_pos":5,"similarity":0.821,"stretto":false,"stretto_voices":0,"combination":[],"aug_dim":"","rhythm_ratio":1.0,"mirror":false,"chromatic_density":0.25,"complexity":0.53,"dissonance":0.141},{"voice":0,"pitch":74,"start":196.6665,"duration":1.3333,"velocity":90,"measure":74,"beat":4.0,"subject_pos":-1,"motif":"","motif_pos":-1,"best_pos":2,"similarity":0.621,"stretto":false,"stretto_voices":0,"combination":[],"aug_dim":"","rhythm_ratio":1.0,"mirror":false,"chromatic_density":0.25,"complexity":0.53,"dissonance":0.141},{"voice":1,"pitch":69,"start":196.6665,"duration":0.6667,"velocity":90,"measure":74,"beat":4.0,"subject_pos":-1,"motif":"","motif_pos":-1,"best_pos":3,"similarity":0.514,"stretto":false,"stretto_voices":0,"combination":[],"aug_dim":"","rhythm_ratio":1.0,"mirror":false,"chromatic_density":0.25,"complexity":0.53,"dissonance":0.141},{"voice":2,"pitch":62,"start":196.6665,"duration":0.6667,"velocity":90,"measure":74,"beat":4.0,"subject_pos":-1,"motif":"","motif_pos":-1,"best_pos":6,"similarity":0.643,"stretto":false,"stretto_voices":0,"combination":[],"aug_dim":"","rhythm_ratio":1.0,"mirror":false,"chromatic_density":0.25,"complexity":0.53,"dissonance":0.141},{"voice":3,"pitch":47,"start":196.6665,"duration":0.6667,"velocity":90,"measure":74,"beat":4.0,"subject_pos":-1,"motif":"enigmatic_cell","motif_pos":2,"best_pos":2,"similarity":1.0,"stretto":false,"stretto_voices":0,"combination":[],"aug_dim":"","rhythm_ratio":1.0,"mirror":false,"chromatic_density":0.25,"complexity":0.53,"dissonance":0.141},{"voice":1,"pitch":68,"start":197.3331,"duration":0.6667,"velocity":90,"measure":75,"beat":1.0,"subject_pos":-1,"motif":"","motif_pos":-1,"best_pos":4,"similarity":0.614,"stretto":false,"stretto_voices":0,"combination":[],"aug_dim":"","rhythm_ratio":1.0,"mirror":false,"chromatic_density":0.364,"complexity":0.521,"dissonance":0.177},{"voice":2,"pitch":64,"start":197.3331,"duration":1.3333,"velocity":90,"measure":75,"beat":1.0,"subject_pos":-1,"motif":"","motif_pos":-1,"best_pos":6,"similarity":0.375,"stretto":false,"stretto_voices":0,"combination":[],"aug_dim":"","rhythm_ratio":1.0,"mirror":false,"chromatic_density":0.364,"complexity":0.521,"dissonance":0.177},{"voice":3,"pitch":48,"start":197.3331,"duration":0.3333,"velocity":90,"measure":75,"beat":1.0,"subject_pos":-1,"motif":"","motif_pos":-1,"best_pos":3,"similarity":0.571,"stretto":false,"stretto_voices":0,"combination":[],"aug_dim":"","rhythm_ratio":1.0,"mirror":false,"chromatic_density":0.364,"complexity":0.521,"dissonance":0.177},{"voice":3,"pitch":47,"start":197.6665,"duration":0.3333,"velocity":90,"measure":75,"beat":1.5,"subject_pos":-1,"motif":"","motif_pos":-1,"best_pos":4,"similarity":0.782,"stretto":false,"stretto_voices":0,"combination":[],"aug_dim":"","rhythm_ratio":1.0,"mirror":false,"chromatic_density":0.364,"complexity":0.521,"dissonance":0.177},{"voice":0,"pitch":72,"start":197.9998,"duration":0.6667,"velocity":90,"measure":75,"beat":2.0,"subject_pos":-1,"motif":"","motif_pos":-1,"best_pos":3,"similarity":0.686,"stretto":false,"stretto_voices":0,"combination":[],"aug_dim":"","rhythm_ratio":1.0,"mirror":false,"chromatic_density":0.364,"complexity":0.521,"dissonance":0.177},{"voice":1,"pitch":69,"start":197.9998,"duration":1.3333,"velocity":90,"measure":75,"beat":2.0,"subject_pos":-1,"motif":"","motif_pos":-1,"best_pos":5,"similarity":0.479,"stretto":false,"stretto_voices":0,"combination":[],"aug_dim":"","rhythm_ratio":1.0,"mirror":false,"chromatic_density":0.364,"complexity":0.521,"dissonance":0.177},{"voice":3,"pitch":48,"start":197.9998,"duration":0.3333,"velocity":90,"measure":75,"beat":2.0,"subject_pos":-1,"motif":"","motif_pos":-1,"best_pos":5,"similarity":0.793,"stretto":false,"stretto_voices":0,"combination":[],"aug_dim":"","rhythm_ratio":1.0,"mirror":false,"chromatic_density":0.364,"complexity":0.521,"dissonance":0.177},{"voice":3,"pitch":50,"start":198.3331,"duration":0.3333,"velocity":90,"measure":75,"beat":2.5,"subject_pos":-1,"motif":"","motif_pos":-1,"best_pos":6,"similarity":0.643,"stretto":false,"stretto_voices":0,"combination":[],"aug_dim":"","rhythm_ratio":1.0,"mirror":false,"chromatic_density":0.364,"complexity":0.521,"dissonance":0.177},{"voice":0,"pitch":71,"start":198.6665,"duration":0.6667,"velocity":90,"measure":75,"beat":3.0,"subject_pos":-1,"motif":"","motif_pos":-1,"best_pos":4,"similarity":0.643,"stretto":false,"stretto_voices":0,"combination":[],"aug_dim":"","rhythm_ratio":1.0,"mirror":false,"chromatic_density":0.364,"complexity":0.521,"dissonance":0.177},{"voice":3,"pitch":52,"start":198.6665,"duration":0.3333,"velocity":90,"measure":75,"beat":3.0,"subject_pos":-1,"motif":"","motif_pos":-1,"best_pos":6,"similarity":0.375,"stretto":false,"stretto_voices":0,"combination":[],"aug_dim":"","rhythm_ratio":1.0,"mirror":false,"chromatic_density":0.364,"complexity":0.521,"dissonance":0.177},{"voice":3,"pitch":40,"start":198.9998,"duration":0.3333,"velocity":90,"measure":75,"beat":3.5,"subject_pos":-1,"motif":"","motif_pos":-1,"best_pos":3,"similarity":0.2,"stretto":false,"stretto_voices":0,"combination":[],"aug_dim":"","rhythm_ratio":1.0,"mirror":false,"chromatic_density":0.364,"complexity":0.521,"dissonance":0.177},{"voice":0,"pitch":73,"start":199.3331,"duration":0.6667,"velocity":90,"measure":75,"beat":4.0,"subject_pos":-1,"motif":"","motif_pos":-1,"best_pos":6,"similarity":0.643,"stretto":false,"stretto_voices":0,"combination":[],"aug_dim":"","rhythm_ratio":1.0,"mirror":false,"chromatic_density":0.364,"complexity":0.521,"dissonance":0.177},{"voice":1,"pitch":67,"start":199.3331,"duration":0.6667,"velocity":90,"measure":75,"beat":4.0,"subject_pos":-1,"motif":"","motif_pos":-1,"best_pos":2,"similarity":0.593,"stretto":false,"stretto_voices":0,"combination":[],"aug_dim":"","rhythm_ratio":1.0,"mirror":false,"chromatic_density":0.364,"complexity":0.521,"dissonance":0.177},{"voice":2,"pitch":58,"start":199.3331,"duration":0.6667,"velocity":90,"measure":75,"beat":4.0,"subject_pos":-1,"motif":"enigmatic_cell","motif_pos":0,"best_pos":0,"similarity":1.0,"stretto":false,"stretto_voices":0,"combination":[],"aug_dim":"","rhythm_ratio":1.0,"mirror":false,"chromatic_density":0.364,"complexity":0.521,"dissonance":0.177},{"voice":3,"pitch":52,"start":199.3331,"duration":0.6667,"velocity":90,"measure":75,"beat":4.0,"subject_pos":-1,"motif":"","motif_pos":-1,"best_pos":4,"similarity":0.436,"stretto":false,"stretto_voices":0,"combination":[],"aug_dim":"","rhythm_ratio":1.0,"mirror":false,"chromatic_density":0.364,"complexity":0.521,"dissonance":0.177},{"voice":0,"pitch":74,"start":199.9998,"duration":0.6667,"velocity":90,"measure":76,"beat":1.0,"subject_pos":-1,"motif":"","motif_pos":-1,"best_pos":7,"similarity":0.446,"stretto":false,"stretto_voices":0,"combination":[],"aug_dim":"","rhythm_ratio":1.0,"mirror":false,"chromatic_density":0.385,"complexity":0.656,"dissonance":0.119},{"voice":1,"pitch":65,"start":199.9998,"duration":0.3333,"velocity":90,"measure":76,"beat":1.0,"subject_pos":-1,"motif":"","motif_pos":-1,"best_pos":3,"similarity":0.6,"stretto":false,"stretto_voices":0,"combination":[],"aug_dim":"","rhythm_ratio":1.0,"mirror":false,"chromatic_density":0.385,"complexity":0.656,"dissonance":0.119},{"voice":2,"pitch":57,"start":199.9998,"duration":0.6667,"velocity":90,"measure":76,"beat":1.0,"subject_pos":-1,"motif":"enigmatic_cell","motif_pos":1,"best_pos":1,"similarity":1.0,"stretto":false,"stretto_voices":0,"combination":[],"aug_dim":"","rhythm_ratio":1.0,"mirror":false,"chromatic_density":0.385,"complexity":0.656,"dissonance":0.119},{"voice":3,"pitch":53,"start":199.9998,"duration":0.6667,"velocity":90,"measure":76,"beat":1.0,"subject_pos":-1,"motif":"","motif_pos":-1,"best_pos":5,"similarity":0.571,"stretto":false,"stretto_voices":0,"combination":[],"aug_dim":"","rhythm_ratio":1.0,"mirror":false,"chromatic_density":0.385,"complexity":0.656,"dissonance":0.119},{"voice":1,"pitch":64,"start":200.3331,"duration":0.3333,"velocity":90,"measure":76,"beat":1.5,"subject_pos":-1,"motif":"","motif_pos":-1,"best_pos":4,"similarity":0.479,"stretto":false,"stretto_voices":0,"combination":[],"aug_dim":"","rhythm_ratio":1.0,"mirror":false,"chromatic_density":0.385,"complexity":0.656,"dissonance":0.119},{"voice":0,"pitch":81,"start":200.6665,"duration":0.6667,"velocity":90,"measure":76,"beat":2.0,"subject_pos":0,"motif":"subject_inv","motif_pos":0,"best_pos":0,"similarity":1.0,"stretto":false,"stretto_voices":0,"combination":[],"aug_dim":"","rhythm_ratio":1.0,"mirror":false,"chromatic_density":0.385,"complexity":0.656,"dissonance":0.119},{"voice":1,"pitch":62,"start":200.6665,"duration":1.3333,"velocity":90,"measure":76,"beat":2.0,"subject_pos":-1,"motif":"","motif_pos":-1,"best_pos":0,"similarity":0.429,"stretto":false,"stretto_voices":0,"combination":[],"aug_dim":"","rhythm_ratio":1.0,"mirror":false,"chromatic_density":0.385,"complexity":0.656,"dissonance":0.119},{"voice":2,"pitch":62,"start":200.6665,"duration":0.3333,"velocity":90,"measure":76,"beat":2.0,"subject_pos":-1,"motif":"enigmatic_cell","motif_pos":2,"best_pos":2,"similarity":1.0,"stretto":false,"stretto_voices":0,"combination":[],"aug_dim":"","rhythm_ratio":1.0,"mirror":false,"chromatic_density":0.385,"complexity":0.656,"dissonance":0.119},{"voice":3,"pitch":54,"start":200.6665,"duration":0.6667,"velocity":90,"measure":76,"beat":2.0,"subject_pos":-1,"motif":"enigmatic_cell","motif_pos":0,"best_pos":0,"similarity":1.0,"stretto":false,"stretto_voices":0,"combination":[],"aug_dim":"","rhythm_ratio":1.0,"mirror":false,"chromatic_density":0.385,"complexity":0.656,"dissonance":0.119},{"voice":2,"pitch":60,"start":200.9998,"duration":0.3333,"velocity":90,"measure":76,"beat":2.5,"subject_pos":-1,"motif":"","motif_pos":-1,"best_pos":2,"similarity":0.661,"stretto":false,"stretto_voices":0,"combination":[],"aug_dim":"","rhythm_ratio":1.0,"mirror":false,"chromatic_density":0.385,"complexity":0.656,"dissonance":0.119},{"voice":0,"pitch":74,"start":201.3331,"duration":0.6667,"velocity":90,"measure":76,"beat":3.0,"subject_pos":1,"motif":"subject_inv","motif_pos":1,"best_pos":1,"similarity":1.0,"stretto":false,"stretto_voices":0,"combination":[],"aug_dim":"","rhythm_ratio":1.0,"mirror":false,"chromatic_density":0.385,"complexity":0.656,"dissonance":0.119},{"voice":2,"pitch":59,"start":201.3331,"duration":0.6667,"velocity":90,"measure":76,"beat":3.0,"subject_pos":-1,"motif":"","motif_pos":-1,"best_pos":3,"similarity":0.607,"stretto":false,"stretto_voices":0,"combination":[],"aug_dim":"","rhythm_ratio":1.0,"mirror":false,"chromatic_density":0.385,"complexity":0.656,"dissonance":0.119},{"voice":3,"pitch":55,"start":201.3331,"duration":0.6667,"velocity":90,"measure":76,"beat":3.0,"subject_pos":-1,"motif":"enigmatic_cell","motif_pos":1,"best_pos":1,"similarity":1.0,"stretto":false,"stretto_voices":0,"combination":[],"aug_dim":"","rhythm_ratio":1.0,"mirror":false,"chromatic_density":0.385,"complexity":0.656,"dissonance":0.119},{"voice":0,"pitch":76,"start":201.9998,"duration":0.6667,"velocity":90,"measure":76,"beat":4.0,"subject_pos":2,"motif":"subject_inv","motif_pos":2,"best_pos":2,"similarity":1.0,"stretto":false,"stretto_voices":0,"combination":[],"aug_dim":"","rhythm_ratio":1.0,"mirror":false,"chromatic_density":0.385,"complexity":0.656,"dissonance":0.119},{"voice":1,"pitch":67,"start":201.9998,"duration":0.6667,"velocity":90,"measure":76,"beat":4.0,"subject_pos":-1,"motif":"","motif_pos":-1,"best_pos":1,"similarity":0.589,"stretto":false,"stretto_voices":0,"combination":[],"aug_dim":"","rhythm_ratio":1.0,"mirror":false,"chromatic_density":0.385,"complexity":0.656,"dissonance":0.119},{"voice":2,"pitch":58,"start":201.9998,"duration":0.6667,"velocity":90,"measure":76,"beat":4.0,"subject_pos":-1,"motif":"","motif_pos":-1,"best_pos":3,"similarity":0.5,"stretto":false,"stretto_voices":0,"combination":[],"aug_dim":"","rhythm_ratio":1.0,"mirror":false,"chromatic_density":0.385,"complexity":0.656,"dissonance":0.119},{"voice":3,"pitch":49,"start":201.9998,"duration":0.6667,"velocity":90,"measure":76,"beat":4.0,"subject_pos":-1,"motif":"enigmatic_cell","motif_pos":2,"best_pos":2,"similarity":1.0,"stretto":false,"stretto_voices":0,"combination":[],"aug_dim":"","rhythm_ratio":1.0,"mirror":false,"chromatic_density":0.385,"complexity":0.656,"dissonance":0.119},{"voice":1,"pitch":65,"start":202.6665,"duration":0.3333,"velocity":90,"measure":77,"beat":1.0,"subject_pos":-1,"motif":"","motif_pos":-1,"best_pos":2,"similarity":0.471,"stretto":false,"stretto_voices":0,"combination":[],"aug_dim":"","rhythm_ratio":1.0,"mirror":false,"chromatic_density":0.25,"complexity":0.533,"dissonance":0.122},{"voice":2,"pitch":57,"start":202.6665,"duration":0.6667,"velocity":90,"measure":77,"beat":1.0,"subject_pos":-1,"motif":"","motif_pos":-1,"best_pos":4,"similarity":0.507,"stretto":false,"stretto_voices":0,"combination":[],"aug_dim":"","rhythm_ratio":1.0,"mirror":false,"chromatic_density":0.25,"complexity":0.533,"dissonance":0.122},{"voice":3,"pitch":50,"start":202.6665,"duration":0.6667,"velocity":90,"measure":77,"beat":1.0,"subject_pos":-1,"motif":"","motif_pos":-1,"best_pos":5,"similarity":0.507,"stretto":false,"stretto_voices":0,"combination":[],"aug_dim":"","rhythm_ratio":1.0,"mirror":false,"chromatic_density":0.25,"complexity":0.533,"dissonance":0.122},{"voice":1,"pitch":69,"start":202.9998,"duration":0.3333,"velocity":90,"measure":77,"beat":1.5,"subject_pos":-1,"motif":"","motif_pos":-1,"best_pos":4,"similarity":0.411,"stretto":false,"stretto_voices":0,"combination":[],"aug_dim":"","rhythm_ratio":1.0,"mirror":false,"chromatic_density":0.25,"complexity":0.533,"dissonance":0.122},{"voice":0,"pitch":77,"start":203.3331,"duration":0.6667,"velocity":90,"measure":77,"beat":2.0,"subject_pos":3,"motif":"subject_inv","motif_pos":3,"best_pos":3,"similarity":1.0,"stretto":false,"stretto_voices":0,"combination":[],"aug_dim":"","rhythm_ratio":1.0,"mirror":false,"chromatic_density":0.25,"complexity":0.533,"dissonance":0.122},{"voice":1,"pitch":70,"start":203.3331,"duration":0.3333,"velocity":90,"measure":77,"beat":2.0,"subject_pos":-1,"motif":"","motif_pos":-1,"best_pos":5,"similarity":0.429,"stretto":false,"stretto_voices":0,"combination":[],"aug_dim":"","rhythm_ratio":1.0,"mirror":false,"chromatic_density":0.25,"complexity":0.533,"dissonance":0.122},{"voice":2,"pitch":50,"start":203.3331,"duration":0.6667,"velocity":90,"measure":77,"beat":2.0,"subject_pos":-1,"motif":"","motif_pos":-1,"best_pos":5,"similarity":0.461,"stretto":false,"stretto_voices":0,"combination":[],"aug_dim":"","rhythm_ratio":1.0,"mirror":false,"chromatic_density":0.25,"complexity":0.533,"dissonance":0.122},{"voice":1,"pitch":74,"start":203.6665,"duration":0.3333,"velocity":90,"measure":77,"beat":2.5,"subject_pos":-1,"motif":"","motif_pos":-1,"best_pos":1,"similarity":0.393,"stretto":false,"stretto_voices":0,"combination":[],"aug_dim":"","rhythm_ratio":1.0,"mirror":false,"chromatic_density":0.25,"complexity":0.533,"dissonance":0.122},{"voice":0,"pitch":79,"start":203.9998,"duration":0.6667,"velocity":90,"measure":77,"beat":3.0,"subject_pos":4,"motif":"subject_inv","motif_pos":4,"best_pos":4,"similarity":1.0,"stretto":false,"stretto_voices":0,"combination":[],"aug_dim":"","rhythm_ratio":1.0,"mirror":false,"chromatic_density":0.25,"complexity":0.533,"dissonance":0.122},{"voice":1,"pitch":73,"start":203.9998,"duration":0.6667,"velocity":90,"measure":77,"beat":3.0,"subject_pos":-1,"motif":"","motif_pos":-1,"best_pos":3,"similarity":0.471,"stretto":false,"stretto_voices":0,"combination":[],"aug_dim":"","rhythm_ratio":1.0,"mirror":false,"chromatic_density":0.25,"complexity":0.533,"dissonance":0.122},{"voice":2,"pitch":52,"start":203.9998,"duration":0.3333,"velocity":90,"measure":77,"beat":3.0,"subject_pos":-1,"motif":"","motif_pos":-1,"best_pos":6,"similarity":0.386,"stretto":false,"stretto_voices":0,"combination":[],"aug_dim":"","rhythm_ratio":1.0,"mirror":false,"chromatic_density":0.25,"complexity":0.533,"dissonance":0.122},{"voice":2,"pitch":50,"start":204.3331,"duration":0.3333,"velocity":90,"measure":77,"beat":3.5,"subject_pos":-1,"motif":"","motif_pos":-1,"best_pos":4,"similarity":0.507,"stretto":false,"stretto_voices":0,"combination":[],"aug_dim":"","rhythm_ratio":1.0,"mirror":false,"chromatic_density":0.25,"complexity":0.533,"dissonance":0.122},{"voice":0,"pitch":81,"start":204.6665,"duration":0.6667,"velocity":90,"measure":77,"beat":4.0,"subject_pos":5,"motif":"subject_inv","motif_pos":5,"best_pos":5,"similarity":1.0,"stretto":false,"stretto_voices":0,"combination":[],"aug_dim":"","rhythm_ratio":1.0,"mirror":false,"chromatic_density":0.25,"complexity":0.533,"dissonance":0.122},{"voice":1,"pitch":72,"start":204.6665,"duration":0.6667,"velocity":90,"measure":77,"beat":4.0,"subject_pos":-1,"motif":"","motif_pos":-1,"best_pos":4,"similarity":0.607,"stretto":false,"stretto_voices":0,"combination":[],"aug_dim":"","rhythm_ratio":1.0,"mirror":false,"chromatic_density":0.25,"complexity":0.533,"dissonance":0.122},{"voice":2,"pitch":52,"start":204.6665,"duration":0.3333,"velocity":90,"measure":77,"beat":4.0,"subject_pos":-1,"motif":"","motif_pos":-1,"best_pos":5,"similarity":0.643,"stretto":false,"stretto_voices":0,"combination":[],"aug_dim":"","rhythm_ratio":1.0,"mirror":false,"chromatic_density":0.25,"complexity":0.533,"dissonance":0.122},{"voice":2,"pitch":54,"start":204.9998,"duration":0.3333,"velocity":90,"measure":77,"beat":4.5,"subject_pos":-1,"motif":"","motif_pos":-1,"best_pos":6,"similarity":0.679,"stretto":false,"stretto_voices":0,"combination":[],"aug_dim":"","rhythm_ratio":1.0,"mirror":false,"chromatic_density":0.25,"complexity":0.533,"dissonance":0.122},{"voice":1,"pitch":71,"start":205.3331,"duration":0.3333,"velocity":90,"measure":78,"beat":1.0,"subject_pos":-1,"motif":"","motif_pos":-1,"best_pos":5,"similarity":0.661,"stretto":false,"stretto_voices":0,"combination":[],"aug_dim":"","rhythm_ratio":1.0,"mirror":false,"chromatic_density":0.357,"complexity":0.54,"dissonance":0.282},{"voice":2,"pitch":55,"start":205.3331,"duration":0.6667,"velocity":90,"measure":78,"beat":1.0,"subject_pos":-1,"motif":"","motif_pos":-1,"best_pos":7,"similarity":0.464,"stretto":false,"stretto_voices":0,"combination":[],"aug_dim":"","rhythm_ratio":1.0,"mirror":false,"chromatic_density":0.357,"complexity":0.54,"dissonance":0.282},{"voice":1,"pitch":73,"start":205.6665,"duration":0.3333,"velocity":90,"measure":78,"beat":1.5,"subject_pos":-1,"motif":"","motif_pos":-1,"best_pos":6,"similarity":0.679,"stretto":false,"stretto_voices":0,"combination":[],"aug_dim":"","rhythm_ratio":1.0,"mirror":false,"chromatic_density":0.357,"complexity":0.54,"dissonance":0.282},{"voice":0,"pitch":82,"start":205.9998,"duration":0.6667,"velocity":90,"measure":78,"beat":2.0,"subject_pos":6,"motif":"subject_inv","motif_pos":6,"best_pos":6,"similarity":1.0,"stretto":false,"stretto_voices":0,"combination":[],"aug_dim":"","rhythm_ratio":1.0,"mirror":false,"chromatic_density":0.357,"complexity":0.54,"dissonance":0.282},{"voice":1,"pitch":74,"start":205.9998,"duration":0.6667,"velocity":90,"measure":78,"beat":2.0,"subject_pos":-1,"motif":"","motif_pos":-1,"best_pos":1,"similarity":0.457,"stretto":false,"stretto_voices":0,"combination":[],"aug_dim":"","rhythm_ratio":1.0,"mirror":false,"chromatic_density":0.357,"complexity":0.54,"dissonance":0.282},{"voice":2,"pitch":54,"start":205.9998,"duration":0.3333,"velocity":90,"measure":78,"beat":2.0,"subject_pos":-1,"motif":"","motif_pos":-1,"best_pos":4,"similarity":0.496,"stretto":false,"stretto_voices":0,"combination":[],"aug_dim":"","rhythm_ratio":1.0,"mirror":false,"chromatic_density":0.357,"complexity":0.54,"dissonance":0.282},{"voice":3,"pitch":50,"start":205.9998,"duration":0.6667,"velocity":90,"measure":78,"beat":2.0,"subject_pos":-1,"motif":"","motif_pos":-1,"best_pos":4,"similarity":0.604,"stretto":false,"stretto_voices":0,"combination":[],"aug_dim":"","rhythm_ratio":1.0,"mirror":false,"chromatic_density":0.357,"complexity":0.54,"dissonance":0.282},{"voice":2,"pitch":52,"start":206.3331,"duration":0.3333,"velocity":90,"measure":78,"beat":2.5,"subject_pos":-1,"motif":"","motif_pos":-1,"best_pos":5,"similarity":0.5,"stretto":false,"stretto_voices":0,"combination":[],"aug_dim":"","rhythm_ratio":1.0,"mirror":false,"chromatic_density":0.357,"complexity":0.54,"dissonance":0.282},{"voice":0,"pitch":81,"start":206.6665,"duration":0.6667,"velocity":90,"measure":78,"beat":3.0,"subject_pos":7,"motif":"subject_inv","motif_pos":7,"best_pos":7,"similarity":1.0,"stretto":false,"stretto_voices":0,"combination":[],"aug_dim":"","rhythm_ratio":1.0,"mirror":false,"chromatic_density":0.357,"complexity":0.54,"dissonance":0.282},{"voice":1,"pitch":72,"start":206.6665,"duration":0.6667,"velocity":90,"measure":78,"beat":3.0,"subject_pos":-1,"motif":"","motif_pos":-1,"best_pos":2,"similarity":0.621,"stretto":false,"stretto_voices":0,"combination":[],"aug_dim":"","rhythm_ratio":1.0,"mirror":false,"chromatic_density":0.357,"complexity":0.54,"dissonance":0.282},{"voice":2,"pitch":54,"start":206.6665,"duration":0.3333,"velocity":90,"measure":78,"beat":3.0,"subject_pos":-1,"motif":"","motif_pos":-1,"best_pos":6,"similarity":0.443,"stretto":false,"stretto_voices":0,"combination":[],"aug_dim":"","rhythm_ratio":1.0,"mirror":false,"chromatic_density":0.357,"complexity":0.54,"dissonance":0.282},{"voice":3,"pitch":51,"start":206.6665,"duration":0.6667,"velocity":90,"measure":78,"beat":3.0,"subject_pos":-1,"motif":"","motif_pos":-1,"best_pos":5,"similarity":0.65,"stretto":false,"stretto_voices":0,"combination":[],"aug_dim":"","rhythm_ratio":1.0,"mirror":false,"chromatic_density":0.357,"complexity":0.54,"dissonance":0.282},{"voice":2,"pitch":57,"start":206.9998,"duration":0.3333,"velocity":90,"measure":78,"beat":3.5,"subject_pos":-1,"motif":"","motif_pos":-1,"best_pos":6,"similarity":0.279,"stretto":false,"stretto_voices":0,"combination":[],"aug_dim":"","rhythm_ratio":1.0,"mirror":false,"chromatic_density":0.357,"complexity":0.54,"dissonance":0.282},{"voice":0,"pitch":79,"start":207.3331,"duration":0.6667,"velocity":90,"measure":78,"beat":4.0,"subject_pos":8,"motif":"subject_inv","motif_pos":8,"best_pos":0,"similarity":1.0,"stretto":false,"stretto_voices":0,"combination":[],"aug_dim":"","rhythm_ratio":1.0,"mirror":false,"chromatic_density":0.357,"complexity":0.54,"dissonance":0.282},{"voice":1,"pitch":70,"start":207.3331,"duration":0.6667,"velocity":90,"measure":78,"beat":4.0,"subject_pos":-1,"motif":"","motif_pos":-1,"best_pos":3,"similarity":0.686,"stretto":false,"stretto_voices":0,"combination":[],"aug_dim":"","rhythm_ratio":1.0,"mirror":false,"chromatic_density":0.357,"complexity":0.54,"dissonance":0.282},{"voice":2,"pitch":61,"start":207.3331,"duration":0.3333,"velocity":90,"measure":78,"beat":4.0,"subject_pos":-1,"motif":"","motif_pos":-1,"best_pos":1,"similarity":0.286,"stretto":false,"stretto_voices":0,"combination":[],"aug_dim":"","rhythm_ratio":1.0,"mirror":false,"chromatic_density":0.357,"complexity":0.54,"dissonance":0.282},{"voice":3,"pitch":52,"start":207.3331,"duration":0.6667,"velocity":90,"measure":78,"beat":4.0,"subject_pos":-1,"motif":"","motif_pos":-1,"best_pos":6,"similarity":0.607,"stretto":false,"stretto_voices":0,"combination":[],"aug_dim":"","rhythm_ratio":1.0,"mirror":false,"chromatic_density":0.357,"complexity":0.54,"dissonance":0.282},{"voice":2,"pitch":64,"start":207.6665,"duration":0.6667,"velocity":90,"measure":78,"beat":4.5,"subject_pos":-1,"motif":"","motif_pos":-1,"best_pos":2,"similarity":0.429,"stretto":false,"stretto_voices":0,"combination":[],"aug_dim":"","rhythm_ratio":1.0,"mirror":false,"chromatic_density":0.357,"complexity":0.54,"dissonance":0.282},{"voice":1,"pitch":69,"start":207.9998,"duration":0.6667,"velocity":90,"measure":79,"beat":1.0,"subject_pos":-1,"motif":"","motif_pos":-1,"best_pos":4,"similarity":0.679,"stretto":false,"stretto_voices":0,"combination":[],"aug_dim":"","rhythm_ratio":1.0,"mirror":false,"chromatic_density":0.6,"complexity":0.473,"dissonance":0.091},{"voice":3,"pitch":53,"start":207.9998,"duration":0.6667,"velocity":90,"measure":79,"beat":1.0,"subject_pos":-1,"motif":"","motif_pos":-1,"best_pos":7,"similarity":0.429,"stretto":false,"stretto_voices":0,"combination":[],"aug_dim":"","rhythm_ratio":1.0,"mirror":false,"chromatic_density":0.6,"complexity":0.473,"dissonance":0.091},{"voice":2,"pitch":62,"start":208.3331,"duration":0.6667,"velocity":90,"measure":79,"beat":1.5,"subject_pos":-1,"motif":"","motif_pos":-1,"best_pos":3,"similarity":0.643,"stretto":false,"stretto_voices":0,"combination":[],"aug_dim":"","rhythm_ratio":1.0,"mirror":false,"chromatic_density":0.6,"complexity":0.473,"dissonance":0.091},{"voice":0,"pitch":77,"start":208.6665,"duration":0.3333,"velocity":90,"measure":79,"beat":2.0,"subject_pos":-1,"motif":"","motif_pos":-1,"best_pos":3,"similarity":0.786,"stretto":false,"stretto_voices":0,"combination":[],"aug_dim":"","rhythm_ratio":1.0,"mirror":false,"chromatic_density":0.6,"complexity":0.473,"dissonance":0.091},{"voice":3,"pitch":58,"start":208.6665,"duration":0.6667,"velocity":90,"measure":79,"beat":2.0,"subject_pos":-1,"motif":"","motif_pos":-1,"best_pos":1,"similarity":0.5,"stretto":false,"stretto_voices":0,"combination":[],"aug_dim":"","rhythm_ratio":1.0,"mirror":false,"chromatic_density":0.6,"complexity":0.473,"dissonance":0.091},{"voice":0,"pitch":76,"start":208.9998,"duration":0.3333,"velocity":90,"measure":79,"beat":2.5,"subject_pos":-1,"motif":"","motif_pos":-1,"best_pos":4,"similarity":0.893,"stretto":false,"stretto_voices":0,"combination":[],"aug_dim":"","rhythm_ratio":1.0,"mirror":false,"chromatic_density":0.6,"complexity":0.473,"dissonance":0.091},{"voice":2,"pitch":61,"start":208.9998,"duration":0.3333,"velocity":90,"measure":79,"beat":2.5,"subject_pos":-1,"motif":"","motif_pos":-1,"best_pos":4,"similarity":0.732,"stretto":false,"stretto_voices":0,"combination":[],"aug_dim":"","rhythm_ratio":1.0,"mirror":false,"chromatic_density":0.6,"complexity":0.473,"dissonance":0.091},{"voice":0,"pitch":77,"start":209.3331,"duration":0.6667,"velocity":90,"measure":79,"beat":3.0,"subject_pos":-1,"motif":"","motif_pos":-1,"best_pos":5,"similarity":0.821,"stretto":false,"stretto_voices":0,"combination":[],"aug_dim":"","rhythm_ratio":1.0,"mirror":false,"chromatic_density":0.6,"complexity":0.473,"dissonance":0.091},{"voice":2,"pitch":62,"start":209.3331,"duration":0.3333,"velocity":90,"measure":79,"beat":3.0,"subject_pos":-1,"motif":"","motif_pos":-1,"best_pos":5,"similarity":0.643,"stretto":false,"stretto_voices":0,"combination":[],"aug_dim":"","rhythm_ratio":1.0,"mirror":false,"chromatic_density":0.6,"complexity":0.473,"dissonance":0.091},{"voice":3,"pitch":57,"start":209.3331,"duration":0.6667,"velocity":90,"measure":79,"beat":3.0,"subject_pos":-1,"motif":"","motif_pos":-1,"best_pos":2,"similarity":0.429,"stretto":false,"stretto_voices":0,"combination":[],"aug_dim":"","rhythm_ratio":1.0,"mirror":false,"chromatic_density":0.6,"complexity":0.473,"dissonance":0.091},{"voice":2,"pitch":65,"start":209.6665,"duration":0.6667,"velocity":90,"measure":79,"beat":3.5,"subject_pos":-1,"motif":"","motif_pos":-1,"best_pos":3,"similarity":0.45,"stretto":false,"stretto_voices":0,"combination":[],"aug_dim":"","rhythm_ratio":1.0,"mirror":false,"chromatic_density":0.6,"complexity":0.473,"dissonance":0.091},{"voice":0,"pitch":79,"start":209.9998,"duration":0.6667,"velocity":90,"measure":79,"beat":4.0,"subject_pos":-1,"motif":"","motif_pos":-1,"best_pos":6,"similarity":0.643,"stretto":false,"stretto_voices":0,"combination":[],"aug_dim":"","rhythm_ratio":1.0,"mirror":false,"chromatic_density":0.6,"complexity":0.473,"dissonance":0.091},{"voice":3,"pitch":55,"start":209.9998,"duration":0.6667,"velocity":90,"measure":79,"beat":4.0,"subject_pos":-1,"motif":"","motif_pos":-1,"best_pos":0,"similarity":0.304,"stretto":false,"stretto_voices":0,"combination":[],"aug_dim":"","rhythm_ratio":1.0,"mirror":false,"chromatic_density":0.6,"complexity":0.473,"dissonance":0.091},{"voice":2,"pitch":64,"start":210.3331,"duration":0.3333,"velocity":90,"measure":79,"beat":4.5,"subject_pos":-1,"motif":"","motif_pos":-1,"best_pos":4,"similarity":0.6,"stretto":false,"stretto_voices":0,"combination":[],"aug_dim":"","rhythm_ratio":1.0,"mirror":false,"chromatic_density":0.6,"complexity":0.473,"dissonance":0.091},{"voice":0,"pitch":81,"start":210.6665,"duration":1.0,"velocity":90,"measure":80,"beat":1.0,"subject_pos":-1,"motif":"","motif_pos":-1,"best_pos":1,"similarity":0.421,"stretto":false,"stretto_voices":0,"combination":[],"aug_dim":"","rhythm_ratio":1.0,"mirror":false,"chromatic_density":0.462,"complexity":0.608,"dissonance":0.103},{"voice":2,"pitch":65,"start":210.6665,"duration":0.3333,"velocity":90,"measure":80,"beat":1.0,"subject_pos":-1,"motif":"","motif_pos":-1,"best_pos":5,"similarity":0.471,"stretto":false,"stretto_voices":0,"combination":[],"aug_dim":"","rhythm_ratio":1.0,"mirror":false,"chromatic_density":0.462,"complexity":0.608,"dissonance":0.103},{"voice":3,"pitch":62,"start":210.6665,"duration":0.6667,"velocity":90,"measure":80,"beat":1.0,"subject_pos":-1,"motif":"","motif_pos":-1,"best_pos":1,"similarity":0.329,"stretto":false,"stretto_voices":0,"combination":[],"aug_dim":"","rhythm_ratio":1.0,"mirror":false,"chromatic_density":0.462,"complexity":0.608,"dissonance":0.103},{"voice":2,"pitch":64,"start":210.9998,"duration":0.3333,"velocity":90,"measure":80,"beat":1.5,"subject_pos":-1,"motif":"","motif_pos":-1,"best_pos":4,"similarity":0.45,"stretto":false,"stretto_voices":0,"combination":[],"aug_dim":"","rhythm_ratio":1.0,"mirror":false,"chromatic_density":0.462,"complexity":0.608,"dissonance":0.103},{"voice":1,"pitch":71,"start":211.3331,"duration":0.6667,"velocity":90,"measure":80,"beat":2.0,"subject_pos":-1,"motif":"","motif_pos":-1,"best_pos":6,"similarity":0.643,"stretto":false,"stretto_voices":0,"combination":[],"aug_dim":"","rhythm_ratio":1.0,"mirror":false,"chromatic_density":0.462,"complexity":0.608,"dissonance":0.103},{"voice":2,"pitch":62,"start":211.3331,"duration":0.6667,"velocity":90,"measure":80,"beat":2.0,"subject_pos":-1,"motif":"","motif_pos":-1,"best_pos":3,"similarity":0.364,"stretto":false,"stretto_voices":0,"combination":[],"aug_dim":"","rhythm_ratio":1.0,"mirror":false,"chromatic_density":0.462,"complexity":0.608,"dissonance":0.103},{"voice":3,"pitch":50,"start":211.3331,"duration":0.6667,"velocity":90,"measure":80,"beat":2.0,"subject_pos":0,"motif":"subject_inv","motif_pos":0,"best_pos":0,"similarity":1.0,"stretto":false,"stretto_voices":0,"combination":[],"aug_dim":"","rhythm_ratio":1.0,"mirror":false,"chromatic_density":0.462,"complexity":0.608,"dissonance":0.103},{"voice":0,"pitch":79,"start":211.6665,"duration":0.3333,"velocity":90,"measure":80,"beat":2.5,"subject_pos":-1,"motif":"","motif_pos":-1,"best_pos":2,"similarity":0.532,"stretto":false,"stretto_voices":0,"combination":[],"aug_dim":"","rhythm_ratio":1.0,"mirror":false,"chromatic_density":0.462,"complexity":0.608,"dissonance":0.103},{"voice":0,"pitch":78,"start":211.9998,"duration":0.6667,"velocity":90,"measure":80,"beat":3.0,"subject_pos":-1,"motif":"","motif_pos":-1,"best_pos":3,"similarity":0.55,"stretto":false,"stretto_voices":0,"combination":[],"aug_dim":"","rhythm_ratio":1.0,"mirror":false,"chromatic_density":0.462,"complexity":0.608,"dissonance":0.103},{"voice":1,"pitch":72,"start":211.9998,"duration":0.3333,"velocity":90,"measure":80,"beat":3.0,"subject_pos":-1,"motif":"","motif_pos":-1,"best_pos":5,"similarity":0.746,"stretto":false,"stretto_voices":0,"combination":[],"aug_dim":"","rhythm_ratio":1.0,"mirror":false,"chromatic_density":0.462,"complexity":0.608,"dissonance":0.103},{"voice":3,"pitch":45,"start":211.9998,"duration":0.6667,"velocity":90,"measure":80,"beat":3.0,"subject_pos":1,"motif":"subject_inv","motif_pos":1,"best_pos":1,"similarity":1.0,"stretto":false,"stretto_voices":0,"combination":[],"aug_dim":"","rhythm_ratio":1.0,"mirror":false,"chromatic_density":0.462,"complexity":0.608,"dissonance":0.103},{"voice":1,"pitch":74,"start":212.3331,"duration":0.1667,"velocity":90,"measure":80,"beat":3.5,"subject_pos":-1,"motif":"","motif_pos":-1,"best_pos":6,"similarity":0.721,"stretto":false,"stretto_voices":0,"combination":[],"aug_dim":"","rhythm_ratio":1.0,"mirror":false,"chromatic_density":0.462,"complexity":0.608,"dissonance":0.103},{"voice":1,"pitch":75,"start":212.4998,"duration":0.1667,"velocity":90,"measure":80,"beat":3.75,"subject_pos":-1,"motif":"","motif_pos":-1,"best_pos":7,"similarity":0.5,"stretto":false,"stretto_voices":0,"combination":[],"aug_dim":"","rhythm_ratio":1.0,"mirror":false,"chromatic_density":0.462,"complexity":0.608,"dissonance":0.103},{"voice":0,"pitch":77,"start":212.6665,"duration":0.6667,"velocity":90,"measure":80,"beat":4.0,"subject_pos":-1,"motif":"","motif_pos":-1,"best_pos":4,"similarity":0.496,"stretto":false,"stretto_voices":0,"combination":[],"aug_dim":"","rhythm_ratio":1.0,"mirror":false,"chromatic_density":0.462,"complexity":0.608,"dissonance":0.103},{"voice":1,"pitch":74,"start":212.6665,"duration":1.0,"velocity":90,"measure":80,"beat":4.0,"subject_pos":-1,"motif":"","motif_pos":-1,"best_pos":1,"similarity":0.429,"stretto":false,"stretto_voices":0,"combination":[],"aug_dim":"","rhythm_ratio":1.0,"mirror":false,"chromatic_density":0.462,"complexity":0.608,"dissonance":0.103},{"voice":2,"pitch":68,"start":212.6665,"duration":0.6667,"velocity":90,"measure":80,"beat":4.0,"subject_pos":-1,"motif":"","motif_pos":-1,"best_pos":4,"similarity":0.4,"stretto":false,"stretto_voices":0,"combination":[],"aug_dim":"","rhythm_ratio":1.0,"mirror":false,"chromatic_density":0.462,"complexity":0.608,"dissonance":0.103},{"voice":3,"pitch":47,"start":212.6665,"duration":0.6667,"velocity":90,"measure":80,"beat":4.0,"subject_pos":2,"motif":"subject_inv","motif_pos":2,"best_pos":2,"similarity":1.0,"stretto":false,"stretto_voices":0,"combination":[],"aug_dim":"","rhythm_ratio":1.0,"mirror":false,"chromatic_density":0.462,"complexity":0.608,"dissonance":0.103},{"voice":0,"pitch":76,"start":213.3331,"duration":0.6667,"velocity":90,"measure":81,"beat":1.0,"subject_pos":-1,"motif":"","motif_pos":-1,"best_pos":3,"similarity":0.471,"stretto":false,"stretto_voices":0,"combination":[],"aug_dim":"","rhythm_ratio":1.0,"mirror":false,"chromatic_density":0.5,"complexity":0.568,"dissonance":0.098},{"voice":2,"pitch":69,"start":213.3331,"duration":0.6667,"velocity":90,"measure":81,"beat":1.0,"subject_pos":-1,"motif":"","motif_pos":-1,"best_pos":5,"similarity":0.336,"stretto":false,"stretto_voices":0,"combination":[],"aug_dim":"","rhythm_ratio":1.0,"mirror":false,"chromatic_density":0.5,"complexity":0.568,"dissonance":0.098},{"voice":1,"pitch":72,"start":213.6665,"duration":0.1667,"velocity":90,"measure":81,"beat":1.5,"subject_pos":-1,"motif":"","motif_pos":-1,"best_pos":2,"similarity":0.579,"stretto":false,"stretto_voices":0,"combination":[],"aug_dim":"","rhythm_ratio":1.0,"mirror":false,"chromatic_density":0.5,"complexity":0.568,"dissonance":0.098},{"voice":1,"pitch":70,"start":213.8331,"duration":0.1667,"velocity":90,"measure":81,"beat":1.75,"subject_pos":-1,"motif":"","motif_pos":-1,"best_pos":3,"similarity":0.593,"stretto":false,"stretto_voices":0,"combination":[],"aug_dim":"","rhythm_ratio":1.0,"mirror":false,"chromatic_density":0.5,"complexity":0.568,"dissonance":0.098},{"voice":0,"pitch":75,"start":213.9998,"duration":0.6667,"velocity":90,"measure":81,"beat":2.0,"subject_pos":-1,"motif":"","motif_pos":-1,"best_pos":3,"similarity":0.471,"stretto":false,"stretto_voices":0,"combination":[],"aug_dim":"","rhythm_ratio":1.0,"mirror":false,"chromatic_density":0.5,"complexity":0.568,"dissonance":0.098},{"voice":1,"pitch":69,"start":213.9998,"duration":0.3333,"velocity":90,"measure":81,"beat":2.0,"subject_pos":-1,"motif":"","motif_pos":-1,"best_pos":4,"similarity":0.543,"stretto":false,"stretto_voices":0,"combination":[],"aug_dim":"","rhythm_ratio":1.0,"mirror":false,"chromatic_density":0.5,"complexity":0.568,"dissonance":0.098},{"voice":2,"pitch":60,"start":213.9998,"duration":1.0,"velocity":90,"measure":81,"beat":2.0,"subject_pos":-1,"motif":"","motif_pos":-1,"best_pos":1,"similarity":0.357,"stretto":false,"stretto_voices":0,"combination":[],"aug_dim":"","rhythm_ratio":1.0,"mirror":false,"chromatic_density":0.5,"complexity":0.568,"dissonance":0.098},{"voice":3,"pitch":48,"start":213.9998,"duration":0.6667,"velocity":90,"measure":81,"beat":2.0,"subject_pos":3,"motif":"subject_inv","motif_pos":3,"best_pos":3,"similarity":1.0,"stretto":false,"stretto_voices":0,"combination":[],"aug_dim":"","rhythm_ratio":1.0,"mirror":false,"chromatic_density":0.5,"complexity":0.568,"dissonance":0.098},{"voice":1,"pitch":67,"start":214.3331,"duration":0.3333,"velocity":90,"measure":81,"beat":2.5,"subject_pos":-1,"motif":"","motif_pos":-1,"best_pos":3,"similarity":0.65,"stretto":false,"stretto_voices":0,"combination":[],"aug_dim":"","rhythm_ratio":1.0,"mirror":false,"chromatic_density":0.5,"complexity":0.568,"dissonance":0.098},{"voice":0,"pitch":74,"start":214.6665,"duration":0.6667,"velocity":90,"measure":81,"beat":3.0,"subject_pos":-1,"motif":"","motif_pos":-1,"best_pos":3,"similarity":0.471,"stretto":false,"stretto_voices":0,"combination":[],"aug_dim":"","rhythm_ratio":1.0,"mirror":false,"chromatic_density":0.5,"complexity":0.568,"dissonance":0.098},{"voice":1,"pitch":66,"start":214.6665,"duration":0.6667,"velocity":90,"measure":81,"beat":3.0,"subject_pos":-1,"motif":"","motif_pos":-1,"best_pos":4,"similarity":0.711,"stretto":false,"stretto_voices":0,"combination":[],"aug_dim":"","rhythm_ratio":1.0,"mirror":false,"chromatic_density":0.5,"complexity":0.568,"dissonance":0.098},{"voice":3,"pitch":50,"start":214.6665,"duration":0.6667,"velocity":90,"measure":81,"beat":3.0,"subject_pos":4,"motif":"subject_inv","motif_pos":4,"best_pos":4,"similarity":1.0,"stretto":false,"stretto_voices":0,"combination":[],"aug_dim":"","rhythm_ratio":1.0,"mirror":false,"chromatic_density":0.5,"complexity":0.568,"dissonance":0.098},{"voice":2,"pitch":58,"start":214.9998,"duration":0.3333,"velocity":90,"measure":81,"beat":3.5,"subject_pos":-1,"motif":"","motif_pos":-1,"best_pos":3,"similarity":0.45,"stretto":false,"stretto_voices":0,"combination":[],"aug_dim":"","rhythm_ratio":1.0,"mirror":false,"chromatic_density":0.5,"complexity":0.568,"dissonance":0.098},{"voice":0,"pitch":73,"start":215.3331,"duration":0.6667,"velocity":90,"measure":81,"beat":4.0,"subject_pos":-1,"motif":"","motif_pos":-1,"best_pos":3,"similarity":0.536,"stretto":false,"stretto_voices":0,"combination":[],"aug_dim":"","rhythm_ratio":1.0,"mirror":false,"chromatic_density":0.5,"complexity":0.568,"dissonance":0.098},{"voice":1,"pitch":67,"start":215.3331,"duration":0.6667,"velocity":90,"measure":81,"beat":4.0,"subject_pos":-1,"motif":"","motif_pos":-1,"best_pos":5,"similarity":0.529,"stretto":false,"stretto_voices":0,"combination":[],"aug_dim":"","rhythm_ratio":1.0,"mirror":false,"chromatic_density":0.5,"complexity":0.568,"dissonance":0.098},{"voice":2,"pitch":57,"start":215.3331,"duration":0.3333,"velocity":90,"measure":81,"beat":4.0,"subject_pos":-1,"motif":"","motif_pos":-1,"best_pos":3,"similarity":0.429,"stretto":false,"stretto_voices":0,"combination":[],"aug_dim":"","rhythm_ratio":1.0,"mirror":false,"chromatic_density":0.5,"complexity":0.568,"dissonance":0.098},{"voice":3,"pitch":52,"start":215.3331,"duration":0.6667,"velocity":90,"measure":81,"beat":4.0,"subject_pos":5,"motif":"subject_inv","motif_pos":5,"best_pos":5,"similarity":1.0,"stretto":false,"stretto_voices":0,"combination":[],"aug_dim":"","rhythm_ratio":1.0,"mirror":false,"chromatic_density":0.5,"complexity":0.568,"dissonance":0.098},{"voice":2,"pitch":55,"start":215.6665,"duration":0.3333,"velocity":90,"measure":81,"beat":4.5,"subject_pos":-1,"motif":"","motif_pos":-1,"best_pos":4,"similarity":0.464,"stretto":false,"stretto_voices":0,"combination":[],"aug_dim":"","rhythm_ratio":1.0,"mirror":false,"chromatic_density":0.5,"complexity":0.568,"dissonance":0.098},{"voice":0,"pitch":72,"start":215.9998,"duration":0.6667,"velocity":90,"measure":82,"beat":1.0,"subject_pos":-1,"motif":"","motif_pos":-1,"best_pos":4,"similarity":0.643,"stretto":false,"stretto_voices":0,"combination":[],"aug_dim":"","rhythm_ratio":1.0,"mirror":false,"chromatic_density":0.455,"complexity":0.533,"dissonance":0.124},{"voice":1,"pitch":66,"start":215.9998,"duration":0.3333,"velocity":90,"measure":82,"beat":1.0,"subject_pos":-1,"motif":"","motif_pos":-1,"best_pos":4,"similarity":0.439,"stretto":false,"stretto_voices":0,"combination":[],"aug_dim":"","rhythm_ratio":1.0,"mirror":false,"chromatic_density":0.455,"complexity":0.533,"dissonance":0.124},{"voice":2,"pitch":62,"start":215.9998,"duration":1.3333,"velocity":90,"measure":82,"beat":1.0,"subject_pos":-1,"motif":"","motif_pos":-1,"best_pos":5,"similarity":0.518,"stretto":false,"stretto_voices":0,"combination":[],"aug_dim":"","rhythm_ratio":1.0,"mirror":false,"chromatic_density":0.455,"complexity":0.533,"dissonance":0.124},{"voice":1,"pitch":69,"start":216.3331,"duration":0.6667,"velocity":90,"measure":82,"beat":1.5,"subject_pos":-1,"motif":"","motif_pos":-1,"best_pos":1,"similarity":0.429,"stretto":false,"stretto_voices":0,"combination":[],"aug_dim":"","rhythm_ratio":1.0,"mirror":false,"chromatic_density":0.455,"complexity":0.533,"dissonance":0.124},{"voice":0,"pitch":71,"start":216.6664,"duration":0.6667,"velocity":90,"measure":82,"beat":2.0,"subject_pos":-1,"motif":"","motif_pos":-1,"best_pos":5,"similarity":0.661,"stretto":false,"stretto_voices":0,"combination":[],"aug_dim":"","rhythm_ratio":1.0,"mirror":false,"chromatic_density":0.455,"complexity":0.533,"dissonance":0.124},{"voice":3,"pitch":53,"start":216.6664,"duration":0.6667,"velocity":90,"measure":82,"beat":2.0,"subject_pos":6,"motif":"subject_inv","motif_pos":6,"best_pos":6,"similarity":1.0,"stretto":false,"stretto_voices":0,"combination":[],"aug_dim":"","rhythm_ratio":1.0,"mirror":false,"chromatic_density":0.455,"complexity":0.533,"dissonance":0.124},{"voice":1,"pitch":67,"start":216.9998,"duration":0.6667,"velocity":90,"measure":82,"beat":2.5,"subject_pos":-1,"motif":"","motif_pos":-1,"best_pos":2,"similarity":0.536,"stretto":false,"stretto_voices":0,"combination":[],"aug_dim":"","rhythm_ratio":1.0,"mirror":false,"chromatic_density":0.455,"complexity":0.533,"dissonance":0.124},{"voice":0,"pitch":73,"start":217.3331,"duration":0.6667,"velocity":90,"measure":82,"beat":3.0,"subject_pos":-1,"motif":"","motif_pos":-1,"best_pos":6,"similarity":0.679,"stretto":false,"stretto_voices":0,"combination":[],"aug_dim":"","rhythm_ratio":1.0,"mirror":false,"chromatic_density":0.455,"complexity":0.533,"dissonance":0.124},{"voice":2,"pitch":64,"start":217.3331,"duration":0.6667,"velocity":90,"measure":82,"beat":3.0,"subject_pos":-1,"motif":"","motif_pos":-1,"best_pos":6,"similarity":0.607,"stretto":false,"stretto_voices":0,"combination":[],"aug_dim":"","rhythm_ratio":1.0,"mirror":false,"chromatic_density":0.455,"complexity":0.533,"dissonance":0.124},{"voice":3,"pitch":52,"start":217.3331,"duration":0.6667,"velocity":90,"measure":82,"beat":3.0,"subject_pos":7,"motif":"subject_inv","motif_pos":7,"best_pos":7,"similarity":1.0,"stretto":false,"stretto_voices":0,"combination":[],"aug_dim":"","rhythm_ratio":1.0,"mirror":false,"chromatic_density":0.455,"complexity":0.533,"dissonance":0.124},{"voice":1,"pitch":70,"start":217.6664,"duration":0.6667,"velocity":90,"measure":82,"beat":3.5,"subject_pos":-1,"motif":"","motif_pos":-1,"best_pos":3,"similarity":0.596,"stretto":false,"stretto_voices":0,"combination":[],"aug_dim":"","rhythm_ratio":1.0,"mirror":false,"chromatic_density":0.455,"complexity":0.533,"dissonance":0.124},{"voice":0,"pitch":74,"start":217.9998,"duration":0.6667,"velocity":90,"measure":82,"beat":4.0,"subject_pos":-1,"motif":"","motif_pos":-1,"best_pos":5,"similarity":0.618,"stretto":false,"stretto_voices":0,"combination":[],"aug_dim":"","rhythm_ratio":1.0,"mirror":false,"chromatic_density":0.455,"complexity":0.533,"dissonance":0.124},{"voice":2,"pitch":65,"start":217.9998,"duration":0.6667,"velocity":90,"measure":82,"beat":4.0,"subject_pos":-1,"motif":"","motif_pos":-1,"best_pos":5,"similarity":0.6,"stretto":false,"stretto_voices":0,"combination":[],"aug_dim":"","rhythm_ratio":1.0,"mirror":false,"chromatic_density":0.455,"complexity":0.533,"dissonance":0.124},{"voice":3,"pitch":50,"start":217.9998,"duration":0.6667,"velocity":90,"measure":82,"beat":4.0,"subject_pos":8,"motif":"subject_inv","motif_pos":8,"best_pos":0,"similarity":1.0,"stretto":false,"stretto_voices":0,"combination":[],"aug_dim":"","rhythm_ratio":1.0,"mirror":false,"chromatic_density":0.455,"complexity":0.533,"dissonance":0.124},{"voice":1,"pitch":69,"start":218.3331,"duration":0.3333,"velocity":90,"measure":82,"beat":4.5,"subject_pos":-1,"motif":"","motif_pos":-1,"best_pos":4,"similarity":0.729,"stretto":false,"stretto_voices":0,"combination":[],"aug_dim":"","rhythm_ratio":1.0,"mirror":false,"chromatic_density":0.455,"complexity":0.533,"dissonance":0.124},{"voice":0,"pitch":76,"start":218.6664,"duration":3.0,"velocity":90,"measure":83,"beat":1.0,"subject_pos":-1,"motif":"","motif_pos":-1,"best_pos":6,"similarity":0.464,"stretto":false,"stretto_voices":0,"combination":[],"aug_dim":"","rhythm_ratio":1.0,"mirror":false,"chromatic_density":0.417,"complexity":0.526,"dissonance":0.214},{"voice":1,"pitch":70,"start":218.6664,"duration":0.3333,"velocity":90,"measure":83,"beat":1.0,"subject_pos":-1,"motif":"","motif_pos":-1,"best_pos":5,"similarity":0.6,"stretto":false,"stretto_voices":0,"combination":[],"aug_dim":"","rhythm_ratio":1.0,"mirror":false,"chromatic_density":0.417,"complexity":0.526,"dissonance":0.214},{"voice":2,"pitch":67,"start":218.6664,"duration":0.6667,"velocity":90,"measure":83,"beat":1.0,"subject_pos":-1,"motif":"","motif_pos":-1,"best_pos":6,"similarity":0.464,"stretto":false,"stretto_voices":0,"combination":[],"aug_dim":"","rhythm_ratio":1.0,"mirror":false,"chromatic_density":0.417,"complexity":0.526,"dissonance":0.214},{"voice":1,"pitch":69,"start":218.9998,"duration":0.6667,"velocity":90,"measure":83,"beat":1.5,"subject_pos":-1,"motif":"","motif_pos":-1,"best_pos":4,"similarity":0.643,"stretto":false,"stretto_voices":0,"combination":[],"aug_dim":"","rhythm_ratio":1.0,"mirror":false,"chromatic_density":0.417,"complexity":0.526,"dissonance":0.214},{"voice":2,"pitch":65,"start":219.3331,"duration":0.6667,"velocity":90,"measure":83,"beat":2.0,"subject_pos":-1,"motif":"","motif_pos":-1,"best_pos":2,"similarity":0.354,"stretto":false,"stretto_voices":0,"combination":[],"aug_dim":"","rhythm_ratio":1.0,"mirror":false,"chromatic_density":0.417,"complexity":0.526,"dissonance":0.214},{"voice":3,"pitch":49,"start":219.3331,"duration":0.3333,"velocity":90,"measure":83,"beat":2.0,"subject_pos":-1,"motif":"","motif_pos":-1,"best_pos":4,"similarity":0.571,"stretto":false,"stretto_voices":0,"combination":[],"aug_dim":"","rhythm_ratio":1.0,"mirror":false,"chromatic_density":0.417,"complexity":0.526,"dissonance":0.214},{"voice":1,"pitch":70,"start":219.6664,"duration":0.3333,"velocity":90,"measure":83,"beat":2.5,"subject_pos":-1,"motif":"","motif_pos":-1,"best_pos":5,"similarity":0.479,"stretto":false,"stretto_voices":0,"combination":[],"aug_dim":"","rhythm_ratio":1.0,"mirror":false,"chromatic_density":0.417,"complexity":0.526,"dissonance":0.214},{"voice":3,"pitch":45,"start":219.6664,"duration":0.3333,"velocity":90,"measure":83,"beat":2.5,"subject_pos":-1,"motif":"","motif_pos":-1,"best_pos":5,"similarity":0.536,"stretto":false,"stretto_voices":0,"combination":[],"aug_dim":"","rhythm_ratio":1.0,"mirror":false,"chromatic_density":0.417,"complexity":0.526,"dissonance":0.214},{"voice":1,"pitch":69,"start":219.9998,"duration":0.3333,"velocity":90,"measure":83,"beat":3.0,"subject_pos":-1,"motif":"","motif_pos":-1,"best_pos":1,"similarity":0.429,"stretto":false,"stretto_voices":0,"combination":[],"aug_dim":"","rhythm_ratio":1.0,"mirror":false,"chromatic_density":0.417,"complexity":0.526,"dissonance":0.214},{"voice":3,"pitch":47,"start":219.9998,"duration":0.6667,"velocity":90,"measure":83,"beat":3.0,"subject_pos":-1,"motif":"","motif_pos":-1,"best_pos":5,"similarity":0.604,"stretto":false,"stretto_voices":0,"combination":[],"aug_dim":"","rhythm_ratio":1.0,"mirror":false,"chromatic_density":0.417,"complexity":0.526,"dissonance":0.214},{"voice":1,"pitch":67,"start":220.3331,"duration":0.3333,"velocity":90,"measure":83,"beat":3.5,"subject_pos":-1,"motif":"","motif_pos":-1,"best_pos":2,"similarity":0.643,"stretto":false,"stretto_voices":0,"combination":[],"aug_dim":"","rhythm_ratio":1.0,"mirror":false,"chromatic_density":0.417,"complexity":0.526,"dissonance":0.214},{"voice":1,"pitch":65,"start":220.6664,"duration":0.3333,"velocity":90,"measure":83,"beat":4.0,"subject_pos":-1,"motif":"","motif_pos":-1,"best_pos":3,"similarity":0.732,"stretto":false,"stretto_voices":0,"combination":[],"aug_dim":"","rhythm_ratio":1.0,"mirror":false,"chromatic_density":0.417,"complexity":0.526,"dissonance":0.214},{"voice":2,"pitch":57,"start":220.6664,"duration":0.3333,"velocity":90,"measure":83,"beat":4.0,"subject_pos":-1,"motif":"","motif_pos":-1,"best_pos":4,"similarity":0.386,"stretto":false,"stretto_voices":0,"combination":[],"aug_dim":"","rhythm_ratio":1.0,"mirror":false,"chromatic_density":0.417,"complexity":0.526,"dissonance":0.214},{"voice":3,"pitch":49,"start":220.6664,"duration":0.6667,"velocity":90,"measure":83,"beat":4.0,"subject_pos":-1,"motif":"enigmatic_cell","motif_pos":0,"best_pos":0,"similarity":1.0,"stretto":false,"stretto_voices":0,"combination":[],"aug_dim":"","rhythm_ratio":1.0,"mirror":false,"chromatic_density":0.417,"complexity":0.526,"dissonance":0.214},{"voice":1,"pitch":64,"start":220.9998,"duration":0.3333,"velocity":90,"measure":83,"beat":4.5,"subject_pos":-1,"motif":"","motif_pos":-1,"best_pos":4,"similarity":0.75,"stretto":false,"stretto_voices":0,"combination":[],"aug_dim":"","rhythm_ratio":1.0,"mirror":false,"chromatic_density":0.417,"complexity":0.526,"dissonance":0.214},{"voice":2,"pitch":58,"start":220.9998,"duration":0.3333,"velocity":90,"measure":83,"beat":4.5,"subject_pos":-1,"motif":"","motif_pos":-1,"best_pos":5,"similarity":0.364,"stretto":false,"stretto_voices":0,"combination":[],"aug_dim":"","rhythm_ratio":1.0,"mirror":false,"chromatic_density":0.417,"complexity":0.526,"dissonance":0.214},{"voice":1,"pitch":65,"start":221.3331,"duration":0.6667,"velocity":90,"measure":84,"beat":1.0,"subject_pos":-1,"motif":"","motif_pos":-1,"best_pos":5,"similarity":0.536,"stretto":false,"stretto_voices":0,"combination":[],"aug_dim":"","rhythm_ratio":1.0,"mirror":false,"chromatic_density":0.125,"complexity":0.666,"dissonance":0.084},{"voice":2,"pitch":57,"start":221.3331,"duration":1.0,"velocity":90,"measure":84,"beat":1.0,"subject_pos":-1,"motif":"","motif_pos":-1,"best_pos":2,"similarity":0.379,"stretto":false,"stretto_voices":0,"combination":[],"aug_dim":"","rhythm_ratio":1.0,"mirror":false,"chromatic_density":0.125,"complexity":0.666,"dissonance":0.084},{"voice":3,"pitch":50,"start":221.3331,"duration":0.6667,"velocity":90,"measure":84,"beat":1.0,"subject_pos":-1,"motif":"enigmatic_cell","motif_pos":1,"best_pos":1,"similarity":1.0,"stretto":false,"stretto_voices":0,"combination":[],"aug_dim":"","rhythm_ratio":1.0,"mirror":false,"chromatic_density":0.125,"complexity":0.666,"dissonance":0.084},{"voice":0,"pitch":74,"start":221.6664,"duration":0.3333,"velocity":90,"measure":84,"beat":1.5,"subject_pos":-1,"motif":"","motif_pos":-1,"best_pos":3,"similarity":0.493,"stretto":false,"stretto_voices":0,"combination":[],"aug_dim":"","rhythm_ratio":1.0,"mirror":false,"chromatic_density":0.125,"complexity":0.666,"dissonance":0.084},{"voice":0,"pitch":73,"start":221.9998,"duration":0.3333,"velocity":90,"measure":84,"beat":2.0,"subject_pos":-1,"motif":"","motif_pos":-1,"best_pos":4,"similarity":0.457,"stretto":false,"stretto_voices":0,"combination":[],"aug_dim":"","rhythm_ratio":1.0,"mirror":false,"chromatic_density":0.125,"complexity":0.666,"dissonance":0.084},{"voice":1,"pitch":69,"start":221.9998,"duration":0.6667,"velocity":90,"measure":84,"beat":2.0,"subject_pos":0,"motif":"subject_inv","motif_pos":0,"best_pos":0,"similarity":1.0,"stretto":false,"stretto_voices":0,"combination":[],"aug_dim":"","rhythm_ratio":1.0,"mirror":false,"chromatic_density":0.125,"complexity":0.666,"dissonance":0.084},{"voice":3,"pitch":45,"start":221.9998,"duration":0.6667,"velocity":90,"measure":84,"beat":2.0,"subject_pos":-1,"motif":"enigmatic_cell","motif_pos":2,"best_pos":2,"similarity":1.0,"stretto":false,"stretto_voices":0,"combination":[],"aug_dim":"","rhythm_ratio":1.0,"mirror":false,"chromatic_density":0.125,"complexity":0.666,"dissonance":0.084},{"voice":0,"pitch":76,"start":222.3331,"duration":0.3333,"velocity":90,"measure":84,"beat":2.5,"subject_pos":-1,"motif":"","motif_pos":-1,"best_pos":1,"similarity":0.464,"stretto":false,"stretto_voices":0,"combination":[],"aug_dim":"","rhythm_ratio":1.0,"mirror":false,"chromatic_density":0.125,"complexity":0.666,"dissonance":0.084},{"voice":2,"pitch":55,"start":222.3331,"duration":0.3333,"velocity":90,"measure":84,"beat":2.5,"subject_pos":-1,"motif":"","motif_pos":-1,"best_pos":2,"similarity":0.471,"stretto":false,"stretto_voices":0,"combination":[],"aug_dim":"","rhythm_ratio":1.0,"mirror":false,"chromatic_density":0.125,"complexity":0.666,"dissonance":0.084},{"voice":0,"pitch":74,"start":222.6664,"duration":0.3333,"velocity":90,"measure":84,"beat":3.0,"subject_pos":-1,"motif":"","motif_pos":-1,"best_pos":2,"similarity":0.543,"stretto":false,"stretto_voices":0,"combination":[],"aug_dim":"","rhythm_ratio":1.0,"mirror":false,"chromatic_density":0.125,"complexity":0.666,"dissonance":0.084},{"voice":1,"pitch":62,"start":222.6664,"duration":0.6667,"velocity":90,"measure":84,"beat":3.0,"subject_pos":1,"motif":"subject_inv","motif_pos":1,"best_pos":1,"similarity":1.0,"stretto":false,"stretto_voices":0,"combination":[],"aug_dim":"","rhythm_ratio":1.0,"mirror":false,"chromatic_density":0.125,"complexity":0.666,"dissonance":0.084},{"voice":2,"pitch":53,"start":222.6664,"duration":0.3333,"velocity":90,"measure":84,"beat":3.0,"subject_pos":-1,"motif":"","motif_pos":-1,"best_pos":2,"similarity":0.579,"stretto":false,"stretto_voices":0,"combination":[],"aug_dim":"","rhythm_ratio":1.0,"mirror":false,"chromatic_density":0.125,"complexity":0.666,"dissonance":0.084},{"voice":3,"pitch":46,"start":222.6664,"duration":0.6667,"velocity":90,"measure":84,"beat":3.0,"subject_pos":-1,"motif":"","motif_pos":-1,"best_pos":5,"similarity":0.379,"stretto":false,"stretto_voices":0,"combination":[],"aug_dim":"","rhythm_ratio":1.0,"mirror":false,"chromatic_density":0.125,"complexity":0.666,"dissonance":0.084},{"voice":0,"pitch":72,"start":222.9998,"duration":0.3333,"velocity":90,"measure":84,"beat":3.5,"subject_pos":-1,"motif":"","motif_pos":-1,"best_pos":3,"similarity":0.468,"stretto":false,"stretto_voices":0,"combination":[],"aug_dim":"","rhythm_ratio":1.0,"mirror":false,"chromatic_density":0.125,"complexity":0.666,"dissonance":0.084},{"voice":2,"pitch":50,"start":222.9998,"duration":0.3333,"velocity":90,"measure":84,"beat":3.5,"subject_pos":-1,"motif":"","motif_pos":-1,"best_pos":0,"similarity":0.5,"stretto":false,"stretto_voices":0,"combination":[],"aug_dim":"","rhythm_ratio":1.0,"mirror":false,"chromatic_density":0.125,"complexity":0.666,"dissonance":0.084},{"voice":0,"pitch":70,"start":223.3331,"duration":0.3333,"velocity":90,"measure":84,"beat":4.0,"subject_pos":-1,"motif":"","motif_pos":-1,"best_pos":2,"similarity":0.364,"stretto":false,"stretto_voices":0,"combination":[],"aug_dim":"","rhythm_ratio":1.0,"mirror":false,"chromatic_density":0.125,"complexity":0.666,"dissonance":0.084},{"voice":1,"pitch":64,"start":223.3331,"duration":0.6667,"velocity":90,"measure":84,"beat":4.0,"subject_pos":2,"motif":"subject_inv","motif_pos":2,"best_pos":2,"similarity":1.0,"stretto":false,"stretto_voices":0,"combination":[],"aug_dim":"","rhythm_ratio":1.0,"mirror":false,"chromatic_density":0.125,"complexity":0.666,"dissonance":0.084},{"voice":2,"pitch":55,"start":223.3331,"duration":1.3333,"velocity":90,"measure":84,"beat":4.0,"subject_pos":-1,"motif":"","motif_pos":-1,"best_pos":1,"similarity":0.732,"stretto":false,"stretto_voices":0,"combination":[],"aug_dim":"","rhythm_ratio":1.0,"mirror":false,"chromatic_density":0.125,"complexity":0.666,"dissonance":0.084},{"voice":3,"pitch":43,"start":223.3331,"duration":0.6667,"velocity":90,"measure":84,"beat":4.0,"subject_pos":-1,"motif":"","motif_pos":-1,"best_pos":5,"similarity":0.382,"stretto":false,"stretto_voices":0,"combination":[],"aug_dim":"","rhythm_ratio":1.0,"mirror":false,"chromatic_density":0.125,"complexity":0.666,"dissonance":0.084},{"voice":0,"pitch":74,"start":223.6664,"duration":0.3333,"velocity":90,"measure":84,"beat":4.5,"subject_pos":-1,"motif":"","motif_pos":-1,"best_pos":1,"similarity":0.571,"stretto":false,"stretto_voices":0,"combination":[],"aug_dim":"","rhythm_ratio":1.0,"mirror":false,"chromatic_density":0.125,"complexity":0.666,"dissonance":0.084},{"voice":0,"pitch":72,"start":223.9998,"duration":0.3333,"velocity":90,"measure":85,"beat":1.0,"subject_pos":-1,"motif":"","motif_pos":-1,"best_pos":2,"similarity":0.661,"stretto":false,"stretto_voices":0,"combination":[],"aug_dim":"","rhythm_ratio":1.0,"mirror":false,"chromatic_density":0.25,"complexity":0.625,"dissonance":0.174},{"voice":3,"pitch":45,"start":223.9998,"duration":0.6667,"velocity":90,"measure":85,"beat":1.0,"subject_pos":-1,"motif":"","motif_pos":-1,"best_pos":6,"similarity":0.346,"stretto":false,"stretto_voices":0,"combination":[],"aug_dim":"","rhythm_ratio":1.0,"mirror":false,"chromatic_density":0.25,"complexity":0.625,"dissonance":0.174},{"voice":0,"pitch":70,"start":224.3331,"duration":0.3333,"velocity":90,"measure":85,"beat":1.5,"subject_pos":-1,"motif":"","motif_pos":-1,"best_pos":3,"similarity":0.65,"stretto":false,"stretto_voices":0,"combination":[],"aug_dim":"","rhythm_ratio":1.0,"mirror":false,"chromatic_density":0.25,"complexity":0.625,"dissonance":0.174},{"voice":0,"pitch":69,"start":224.6664,"duration":0.3333,"velocity":90,"measure":85,"beat":2.0,"subject_pos":-1,"motif":"","motif_pos":-1,"best_pos":4,"similarity":0.514,"stretto":false,"stretto_voices":0,"combination":[],"aug_dim":"","rhythm_ratio":1.0,"mirror":false,"chromatic_density":0.25,"complexity":0.625,"dissonance":0.174},{"voice":1,"pitch":65,"start":224.6664,"duration":0.6667,"velocity":90,"measure":85,"beat":2.0,"subject_pos":3,"motif":"subject_inv","motif_pos":3,"best_pos":3,"similarity":1.0,"stretto":false,"stretto_voices":0,"combination":[],"aug_dim":"","rhythm_ratio":1.0,"mirror":false,"chromatic_density":0.25,"complexity":0.625,"dissonance":0.174},{"voice":2,"pitch":53,"start":224.6664,"duration":1.0,"velocity":90,"measure":85,"beat":2.0,"subject_pos":-1,"motif":"","motif_pos":-1,"best_pos":2,"similarity":0.768,"stretto":false,"stretto_voices":0,"combination":[],"aug_dim":"","rhythm_ratio":1.0,"mirror":false,"chromatic_density":0.25,"complexity":0.625,"dissonance":0.174},{"voice":3,"pitch":50,"start":224.6664,"duration":0.6667,"velocity":90,"measure":85,"beat":2.0,"subject_pos":-1,"motif":"","motif_pos":-1,"best_pos":1,"similarity":0.321,"stretto":false,"stretto_voices":0,"combination":[],"aug_dim":"","rhythm_ratio":1.0,"mirror":false,"chromatic_density":0.25,"complexity":0.625,"dissonance":0.174},{"voice":0,"pitch":72,"start":224.9998,"duration":0.3333,"velocity":90,"measure":85,"beat":2.5,"subject_pos":-1,"motif":"","motif_pos":-1,"best_pos":1,"similarity":0.429,"stretto":false,"stretto_voices":0,"combination":[],"aug_dim":"","rhythm_ratio":1.0,"mirror":false,"chromatic_density":0.25,"complexity":0.625,"dissonance":0.174},{"voice":0,"pitch":70,"start":225.3331,"duration":0.3333,"velocity":90,"measure":85,"beat":3.0,"subject_pos":-1,"motif":"","motif_pos":-1,"best_pos":2,"similarity":0.536,"stretto":false,"stretto_voices":0,"combination":[],"aug_dim":"","rhythm_ratio":1.0,"mirror":false,"chromatic_density":0.25,"complexity":0.625,"dissonance":0.174},{"voice":1,"pitch":67,"start":225.3331,"duration":0.6667,"velocity":90,"measure":85,"beat":3.0,"subject_pos":4,"motif":"subject_inv","motif_pos":4,"best_pos":4,"similarity":1.0,"stretto":false,"stretto_voices":0,"combination":[],"aug_dim":"","rhythm_ratio":1.0,"mirror":false,"chromatic_density":0.25,"complexity":0.625,"dissonance":0.174},{"voice":3,"pitch":43,"start":225.3331,"duration":2.6667,"velocity":90,"measure":85,"beat":3.0,"subject_pos":-1,"motif":"","motif_pos":-1,"best_pos":5,"similarity":0.357,"stretto":false,"stretto_voices":0,"combination":[],"aug_dim":"","rhythm_ratio":1.0,"mirror":false,"chromatic_density":0.25,"complexity":0.625,"dissonance":0.174},{"voice":0,"pitch":79,"start":225.6664,"duration":0.6667,"velocity":90,"measure":85,"beat":3.5,"subject_pos":-1,"motif":"","motif_pos":-1,"best_pos":3,"similarity":0.596,"stretto":false,"stretto_voices":0,"combination":[],"aug_dim":"","rhythm_ratio":1.0,"mirror":false,"chromatic_density":0.25,"complexity":0.625,"dissonance":0.174},{"voice":2,"pitch":50,"start":225.6664,"duration":0.3333,"velocity":90,"measure":85,"beat":3.5,"subject_pos":-1,"motif":"","motif_pos":-1,"best_pos":3,"similarity":0.614,"stretto":false,"stretto_voices":0,"combination":[],"aug_dim":"","rhythm_ratio":1.0,"mirror":false,"chromatic_density":0.25,"complexity":0.625,"dissonance":0.174},{"voice":1,"pitch":69,"start":225.9998,"duration":0.6667,"velocity":90,"measure":85,"beat":4.0,"subject_pos":5,"motif":"subject_inv","motif_pos":5,"best_pos":5,"similarity":1.0,"stretto":false,"stretto_voices":0,"combination":[],"aug_dim":"","rhythm_ratio":1.0,"mirror":false,"chromatic_density":0.25,"complexity":0.625,"dissonance":0.174},{"voice":2,"pitch":51,"start":225.9998,"duration":0.6667,"velocity":90,"measure":85,"beat":4.0,"subject_pos":-1,"motif":"","motif_pos":-1,"best_pos":3,"similarity":0.407,"stretto":false,"stretto_voices":0,"combination":[],"aug_dim":"","rhythm_ratio":1.0,"mirror":false,"chromatic_density":0.25,"complexity":0.625,"dissonance":0.174},{"voice":0,"pitch":78,"start":226.3331,"duration":0.3333,"velocity":90,"measure":85,"beat":4.5,"subject_pos":-1,"motif":"","motif_pos":-1,"best_pos":4,"similarity":0.675,"stretto":false,"stretto_voices":0,"combination":[],"aug_dim":"","rhythm_ratio":1.0,"mirror":false,"chromatic_density":0.25,"complexity":0.625,"dissonance":0.174},{"voice":0,"pitch":79,"start":226.6664,"duration":0.3333,"velocity":90,"measure":86,"beat":1.0,"subject_pos":-1,"motif":"","motif_pos":-1,"best_pos":5,"similarity":0.493,"stretto":false,"stretto_voices":0,"combination":[],"aug_dim":"","rhythm_ratio":1.0,"mirror":false,"chromatic_density":0.2,"complexity":0.635,"dissonance":0.128},{"voice":2,"pitch":50,"start":226.6664,"duration":0.6667,"velocity":90,"measure":86,"beat":1.0,"subject_pos":-1,"motif":"head","motif_pos":0,"best_pos":0,"similarity":1.0,"stretto":false,"stretto_voices":0,"combination":[],"aug_dim":"","rhythm_ratio":1.0,"mirror":false,"chromatic_density":0.2,"complexity":0.635,"dissonance":0.128},{"voice":0,"pitch":77,"start":226.9998,"duration":0.3333,"velocity":90,"measure":86,"beat":1.5,"subject_pos":-1,"motif":"","motif_pos":-1,"best_pos":3,"similarity":0.464,"stretto":false,"stretto_voices":0,"combination":[],"aug_dim":"","rhythm_ratio":1.0,"mirror":false,"chromatic_density":0.2,"complexity":0.635,"dissonance":0.128},{"voice":0,"pitch":76,"start":227.3331,"duration":0.3333,"velocity":90,"measure":86,"beat":2.0,"subject_pos":-1,"motif":"","motif_pos":-1,"best_pos":3,"similarity":0.45,"stretto":false,"stretto_voices":0,"combination":[],"aug_dim":"","rhythm_ratio":1.0,"mirror":false,"chromatic_density":0.2,"complexity":0.635,"dissonance":0.128},{"voice":1,"pitch":70,"start":227.3331,"duration":0.6667,"velocity":90,"measure":86,"beat":2.0,"subject_pos":6,"motif":"subject_inv","motif_pos":6,"best_pos":6,"similarity":1.0,"stretto":false,"stretto_voices":0,"combination":[],"aug_dim":"","rhythm_ratio":1.0,"mirror":false,"chromatic_density":0.2,"complexity":0.635,"dissonance":0.128},{"voice":2,"pitch":55,"start":227.3331,"duration":0.3333,"velocity":90,"measure":86,"beat":2.0,"subject_pos":-1,"motif":"head","motif_pos":1,"best_pos":1,"similarity":1.0,"stretto":false,"stretto_voices":0,"combination":[],"aug_dim":"","rhythm_ratio":1.0,"mirror":false,"chromatic_density":0.2,"complexity":0.635,"dissonance":0.128},{"voice":0,"pitch":74,"start":227.6664,"duration":0.3333,"velocity":90,"measure":86,"beat":2.5,"subject_pos":-1,"motif":"","motif_pos":-1,"best_pos":2,"similarity":0.443,"stretto":false,"stretto_voices":0,"combination":[],"aug_dim":"","rhythm_ratio":1.0,"mirror":false,"chromatic_density":0.2,"complexity":0.635,"dissonance":0.128},{"voice":2,"pitch":53,"start":227.6664,"duration":0.3333,"velocity":90,"measure":86,"beat":2.5,"subject_pos":-1,"motif":"head","motif_pos":2,"best_pos":2,"similarity":1.0,"stretto":false,"stretto_voices":0,"combination":[],"aug_dim":"","rhythm_ratio":1.0,"mirror":false,"chromatic_density":0.2,"complexity":0.635,"dissonance":0.128},{"voice":0,"pitch":72,"start":227.9998,"duration":0.3333,"velocity":90,"measure":86,"beat":3.0,"subject_pos":-1,"motif":"","motif_pos":-1,"best_pos":4,"similarity":0.429,"stretto":false,"stretto_voices":0,"combination":[],"aug_dim":"","rhythm_ratio":1.0,"mirror":false,"chromatic_density":0.2,"complexity":0.635,"dissonance":0.128},{"voice":1,"pitch":69,"start":227.9998,"duration":0.6667,"velocity":90,"measure":86,"beat":3.0,"subject_pos":7,"motif":"subject_inv","motif_pos":7,"best_pos":7,"similarity":1.0,"stretto":false,"stretto_voices":0,"combination":[],"aug_dim":"","rhythm_ratio":1.0,"mirror":false,"chromatic_density":0.2,"complexity":0.635,"dissonance":0.128},{"voice":2,"pitch":52,"start":227.9998,"duration":0.3333,"velocity":90,"measure":86,"beat":3.0,"subject_pos":-1,"motif":"head","motif_pos":3,"best_pos":3,"similarity":1.0,"stretto":false,"stretto_voices":0,"combination":[],"aug_dim":"","rhythm_ratio":1.0,"mirror":false,"chromatic_density":0.2,"complexity":0.635,"dissonance":0.128},{"voice":3,"pitch":45,"start":227.9998,"duration":2.0,"velocity":90,"measure":86,"beat":3.0,"subject_pos":-1,"motif":"","motif_pos":-1,"best_pos":5,"similarity":0.5,"stretto":false,"stretto_voices":0,"combination":[],"aug_dim":"","rhythm_ratio":1.0,"mirror":false,"chromatic_density":0.2,"complexity":0.635,"dissonance":0.128},{"voice":0,"pitch":74,"start":228.3331,"duration":0.3333,"velocity":90,"measure":86,"beat":3.5,"subject_pos":-1,"motif":"","motif_pos":-1,"best_pos":6,"similarity":0.336,"stretto":false,"stretto_voices":0,"combination":[],"aug_dim":"","rhythm_ratio":1.0,"mirror":false,"chromatic_density":0.2,"complexity":0.635,"dissonance":0.128},{"voice":2,"pitch":50,"start":228.3331,"duration":0.3333,"velocity":90,"measure":86,"beat":3.5,"subject_pos":-1,"motif":"head","motif_pos":4,"best_pos":4,"similarity":1.0,"stretto":false,"stretto_voices":0,"combination":[],"aug_dim":"","rhythm_ratio":1.0,"mirror":false,"chromatic_density":0.2,"complexity":0.635,"dissonance":0.128},{"voice":0,"pitch":70,"start":228.6664,"duration":0.3333,"velocity":90,"measure":86,"beat":4.0,"subject_pos":-1,"motif":"","motif_pos":-1,"best_pos":2,"similarity":0.407,"stretto":false,"stretto_voices":0,"combination":[],"aug_dim":"","rhythm_ratio":1.0,"mirror":false,"chromatic_density":0.2,"complexity":0.635,"dissonance":0.128},{"voice":1,"pitch":67,"start":228.6664,"duration":0.6667,"velocity":90,"measure":86,"beat":4.0,"subject_pos":8,"motif":"subject_inv","motif_pos":8,"best_pos":0,"similarity":1.0,"stretto":false,"stretto_voices":0,"combination":[],"aug_dim":"","rhythm_ratio":1.0,"mirror":false,"chromatic_density":0.2,"complexity":0.635,"dissonance":0.128},{"voice":2,"pitch":52,"start":228.6664,"duration":0.3333,"velocity":90,"measure":86,"beat":4.0,"subject_pos":-1,"motif":"","motif_pos":-1,"best_pos":6,"similarity":0.371,"stretto":false,"stretto_voices":0,"combination":[],"aug_dim":"","rhythm_ratio":1.0,"mirror":false,"chromatic_density":0.2,"complexity":0.635,"dissonance":0.128},{"voice":0,"pitch":72,"start":228.9998,"duration":0.3333,"velocity":90,"measure":86,"beat":4.5,"subject_pos":-1,"motif":"","motif_pos":-1,"best_pos":3,"similarity":0.371,"stretto":false,"stretto_voices":0,"combination":[],"aug_dim":"","rhythm_ratio":1.0,"mirror":false,"chromatic_density":0.2,"complexity":0.635,"dissonance":0.128},{"voice":2,"pitch":48,"start":228.9998,"duration":0.3333,"velocity":90,"measure":86,"beat":4.5,"subject_pos":-1,"motif":"","motif_pos":-1,"best_pos":0,"similarity":0.321,"stretto":false,"stretto_voices":0,"combination":[],"aug_dim":"","rhythm_ratio":1.0,"mirror":false,"chromatic_density":0.2,"complexity":0.635,"dissonance":0.128},{"voice":0,"pitch":69,"start":229.3331,"duration":1.6667,"velocity":90,"measure":87,"beat":1.0,"subject_pos":-1,"motif":"","motif_pos":-1,"best_pos":4,"similarity":0.514,"stretto":false,"stretto_voices":0,"combination":[],"aug_dim":"","rhythm_ratio":1.0,"mirror":false,"chromatic_density":0.667,"complexity":0.471,"dissonance":0.147},{"voice":2,"pitch":53,"start":229.3331,"duration":0.6667,"velocity":90,"measure":87,"beat":1.0,"subject_pos":-1,"motif":"","motif_pos":-1,"best_pos":1,"similarity":0.393,"stretto":false,"stretto_voices":0,"combination":[],"aug_dim":"","rhythm_ratio":1.0,"mirror":false,"chromatic_density":0.667,"complexity":0.471,"dissonance":0.147},{"voice":1,"pitch":65,"start":229.9998,"duration":0.3333,"velocity":90,"measure":87,"beat":2.0,"subject_pos":-1,"motif":"","motif_pos":-1,"best_pos":3,"similarity":0.786,"stretto":false,"stretto_voices":0,"combination":[],"aug_dim":"","rhythm_ratio":1.0,"mirror":false,"chromatic_density":0.667,"complexity":0.471,"dissonance":0.147},{"voice":3,"pitch":47,"start":229.9998,"duration":0.3333,"velocity":90,"measure":87,"beat":2.0,"subject_pos":-1,"motif":"","motif_pos":-1,"best_pos":5,"similarity":0.593,"stretto":false,"stretto_voices":0,"combination":[],"aug_dim":"","rhythm_ratio":1.0,"mirror":false,"chromatic_density":0.667,"complexity":0.471,"dissonance":0.147},{"voice":1,"pitch":64,"start":230.3331,"duration":0.3333,"velocity":90,"measure":87,"beat":2.5,"subject_pos":-1,"motif":"","motif_pos":-1,"best_pos":4,"similarity":0.893,"stretto":false,"stretto_voices":0,"combination":[],"aug_dim":"","rhythm_ratio":1.0,"mirror":false,"chromatic_density":0.667,"complexity":0.471,"dissonance":0.147},{"voice":3,"pitch":49,"start":230.3331,"duration":0.3333,"velocity":90,"measure":87,"beat":2.5,"subject_pos":-1,"motif":"","motif_pos":-1,"best_pos":6,"similarity":0.65,"stretto":false,"stretto_voices":0,"combination":[],"aug_dim":"","rhythm_ratio":1.0,"mirror":false,"chromatic_density":0.667,"complexity":0.471,"dissonance":0.147},{"voice":1,"pitch":65,"start":230.6664,"duration":0.6667,"velocity":90,"measure":87,"beat":3.0,"subject_pos":-1,"motif":"","motif_pos":-1,"best_pos":5,"similarity":0.821,"stretto":false,"stretto_voices":0,"combination":[],"aug_dim":"","rhythm_ratio":1.0,"mirror":false,"chromatic_density":0.667,"complexity":0.471,"dissonance":0.147},{"voice":3,"pitch":50,"start":230.6664,"duration":0.6667,"velocity":90,"measure":87,"beat":3.0,"subject_pos":-1,"motif":"","motif_pos":-1,"best_pos":7,"similarity":0.464,"stretto":false,"stretto_voices":0,"combination":[],"aug_dim":"","rhythm_ratio":1.0,"mirror":false,"chromatic_density":0.667,"complexity":0.471,"dissonance":0.147},{"voice":0,"pitch":70,"start":230.9998,"duration":0.3333,"velocity":90,"measure":87,"beat":3.5,"subject_pos":-1,"motif":"","motif_pos":-1,"best_pos":3,"similarity":0.607,"stretto":false,"stretto_voices":0,"combination":[],"aug_dim":"","rhythm_ratio":1.0,"mirror":false,"chromatic_density":0.667,"complexity":0.471,"dissonance":0.147},{"voice":0,"pitch":69,"start":231.3331,"duration":0.3333,"velocity":90,"measure":87,"beat":4.0,"subject_pos":-1,"motif":"","motif_pos":-1,"best_pos":4,"similarity":0.771,"stretto":false,"stretto_voices":0,"combination":[],"aug_dim":"","rhythm_ratio":1.0,"mirror":false,"chromatic_density":0.667,"complexity":0.471,"dissonance":0.147},{"voice":1,"pitch":67,"start":231.3331,"duration":0.6667,"velocity":90,"measure":87,"beat":4.0,"subject_pos":-1,"motif":"","motif_pos":-1,"best_pos":6,"similarity":0.643,"stretto":false,"stretto_voices":0,"combination":[],"aug_dim":"","rhythm_ratio":1.0,"mirror":false,"chromatic_density":0.667,"complexity":0.471,"dissonance":0.147},{"voice":3,"pitch":46,"start":231.3331,"duration":0.6667,"velocity":90,"measure":87,"beat":4.0,"subject_pos":-1,"motif":"","motif_pos":-1,"best_pos":2,"similarity":0.371,"stretto":false,"stretto_voices":0,"combination":[],"aug_dim":"","rhythm_ratio":1.0,"mirror":false,"chromatic_density":0.667,"complexity":0.471,"dissonance":0.147},{"voice":0,"pitch":70,"start":231.6664,"duration":0.3333,"velocity":90,"measure":87,"beat":4.5,"subject_pos":-1,"motif":"","motif_pos":-1,"best_pos":5,"similarity":0.736,"stretto":false,"stretto_voices":0,"combination":[],"aug_dim":"","rhythm_ratio":1.0,"mirror":false,"chromatic_density":0.667,"complexity":0.471,"dissonance":0.147},{"voice":0,"pitch":72,"start":231.9998,"duration":0.6667,"velocity":90,"measure":88,"beat":1.0,"subject_pos":-1,"motif":"","motif_pos":-1,"best_pos":6,"similarity":0.529,"stretto":false,"stretto_voices":0,"combination":[],"aug_dim":"","rhythm_ratio":1.0,"mirror":false,"chromatic_density":0.25,"complexity":0.548,"dissonance":0.106},{"voice":1,"pitch":69,"start":231.9998,"duration":0.3333,"velocity":90,"measure":88,"beat":1.0,"subject_pos":-1,"motif":"","motif_pos":-1,"best_pos":6,"similarity":0.661,"stretto":false,"stretto_voices":0,"combination":[],"aug_dim":"","rhythm_ratio":1.0,"mirror":false,"chromatic_density":0.25,"complexity":0.548,"dissonance":0.106},{"voice":3,"pitch":53,"start":231.9998,"duration":0.6667,"velocity":90,"measure":88,"beat":1.0,"subject_pos":-1,"motif":"","motif_pos":-1,"best_pos":3,"similarity":0.364,"stretto":false,"stretto_voices":0,"combination":[],"aug_dim":"","rhythm_ratio":1.0,"mirror":false,"chromatic_density":0.25,"complexity":0.548,"dissonance":0.106},{"voice":1,"pitch":70,"start":232.3331,"duration":0.3333,"velocity":90,"measure":88,"beat":1.5,"subject_pos":-1,"motif":"","motif_pos":-1,"best_pos":5,"similarity":0.6,"stretto":false,"stretto_voices":0,"combination":[],"aug_dim":"","rhythm_ratio":1.0,"mirror":false,"chromatic_density":0.25,"complexity":0.548,"dissonance":0.106},{"voice":0,"pitch":77,"start":232.6664,"duration":1.3333,"velocity":90,"measure":88,"beat":2.0,"subject_pos":-1,"motif":"","motif_pos":-1,"best_pos":3,"similarity":0.45,"stretto":false,"stretto_voices":0,"combination":[],"aug_dim":"","rhythm_ratio":1.0,"mirror":false,"chromatic_density":0.25,"complexity":0.548,"dissonance":0.106},{"voice":1,"pitch":72,"start":232.6664,"duration":1.3333,"velocity":90,"measure":88,"beat":2.0,"subject_pos":-1,"motif":"","motif_pos":-1,"best_pos":6,"similarity":0.464,"stretto":false,"stretto_voices":0,"combination":[],"aug_dim":"","rhythm_ratio":1.0,"mirror":false,"chromatic_density":0.25,"complexity":0.548,"dissonance":0.106},{"voice":2,"pitch":69,"start":232.6664,"duration":0.6667,"velocity":90,"measure":88,"beat":2.0,"subject_pos":-1,"motif":"","motif_pos":-1,"best_pos":2,"similarity":0.393,"stretto":false,"stretto_voices":0,"combination":[],"aug_dim":"","rhythm_ratio":1.0,"mirror":false,"chromatic_density":0.25,"complexity":0.548,"dissonance":0.106},{"voice":3,"pitch":45,"start":232.6664,"duration":0.3333,"velocity":90,"measure":88,"beat":2.0,"subject_pos":-1,"motif":"","motif_pos":-1,"best_pos":4,"similarity":0.5,"stretto":false,"stretto_voices":0,"combination":[],"aug_dim":"","rhythm_ratio":1.0,"mirror":false,"chromatic_density":0.25,"complexity":0.548,"dissonance":0.106},{"voice":3,"pitch":46,"start":232.9998,"duration":0.3333,"velocity":90,"measure":88,"beat":2.5,"subject_pos":-1,"motif":"","motif_pos":-1,"best_pos":5,"similarity":0.571,"stretto":false,"stretto_voices":0,"combination":[],"aug_dim":"","rhythm_ratio":1.0,"mirror":false,"chromatic_density":0.25,"complexity":0.548,"dissonance":0.106},{"voice":2,"pitch":67,"start":233.3331,"duration":0.3333,"velocity":90,"measure":88,"beat":3.0,"subject_pos":-1,"motif":"","motif_pos":-1,"best_pos":2,"similarity":0.45,"stretto":false,"stretto_voices":0,"combination":[],"aug_dim":"","rhythm_ratio":1.0,"mirror":false,"chromatic_density":0.25,"complexity":0.548,"dissonance":0.106},{"voice":3,"pitch":48,"start":233.3331,"duration":0.6667,"velocity":90,"measure":88,"beat":3.0,"subject_pos":-1,"motif":"","motif_pos":-1,"best_pos":6,"similarity":0.429,"stretto":false,"stretto_voices":0,"combination":[],"aug_dim":"","rhythm_ratio":1.0,"mirror":false,"chromatic_density":0.25,"complexity":0.548,"dissonance":0.106},{"voice":2,"pitch":65,"start":233.6664,"duration":0.3333,"velocity":90,"measure":88,"beat":3.5,"subject_pos":-1,"motif":"","motif_pos":-1,"best_pos":5,"similarity":0.4,"stretto":false,"stretto_voices":0,"combination":[],"aug_dim":"","rhythm_ratio":1.0,"mirror":false,"chromatic_density":0.25,"complexity":0.548,"dissonance":0.106},{"voice":0,"pitch":76,"start":233.9998,"duration":0.6667,"velocity":90,"measure":88,"beat":4.0,"subject_pos":-1,"motif":"enigmatic_cell","motif_pos":0,"best_pos":0,"similarity":1.0,"stretto":false,"stretto_voices":0,"combination":[],"aug_dim":"","rhythm_ratio":1.0,"mirror":false,"chromatic_density":0.25,"complexity":0.548,"dissonance":0.106},{"voice":1,"pitch":70,"start":233.9998,"duration":1.3333,"velocity":90,"measure":88,"beat":4.0,"subject_pos":-1,"motif":"","motif_pos":-1,"best_pos":3,"similarity":0.457,"stretto":false,"stretto_voices":0,"combination":[],"aug_dim":"","rhythm_ratio":1.0,"mirror":false,"chromatic_density":0.25,"complexity":0.548,"dissonance":0.106},{"voice":2,"pitch":67,"start":233.9998,"duration":0.6667,"velocity":90,"measure":88,"beat":4.0,"subject_pos":-1,"motif":"","motif_pos":-1,"best_pos":1,"similarity":0.386,"stretto":false,"stretto_voices":0,"combination":[],"aug_dim":"","rhythm_ratio":1.0,"mirror":false,"chromatic_density":0.25,"complexity":0.548,"dissonance":0.106},{"voice":3,"pitch":36,"start":233.9998,"duration":0.6667,"velocity":90,"measure":88,"beat":4.0,"subject_pos":-1,"motif":"","motif_pos":-1,"best_pos":0,"similarity":0.293,"stretto":false,"stretto_voices":0,"combination":[],"aug_dim":"","rhythm_ratio":1.0,"mirror":false,"chromatic_density":0.25,"complexity":0.548,"dissonance":0.106},{"voice":0,"pitch":77,"start":234.6664,"duration":1.3333,"velocity":90,"measure":89,"beat":1.0,"subject_pos":-1,"motif":"enigmatic_cell","motif_pos":1,"best_pos":1,"similarity":1.0,"stretto":false,"stretto_voices":0,"combination":[],"aug_dim":"","rhythm_ratio":1.0,"mirror":false,"chromatic_density":0.0,"complexity":0.489,"dissonance":0.08},{"voice":2,"pitch":65,"start":234.6664,"duration":1.3333,"velocity":90,"measure":89,"beat":1.0,"subject_pos":-1,"motif":"","motif_pos":-1,"best_pos":2,"similarity":0.461,"stretto":false,"stretto_voices":0,"combination":[],"aug_dim":"","rhythm_ratio":1.0,"mirror":false,"chromatic_density":0.0,"complexity":0.489,"dissonance":0.08},{"voice":3,"pitch":41,"start":234.6664,"duration":1.3333,"velocity":90,"measure":89,"beat":1.0,"subject_pos":-1,"motif":"","motif_pos":-1,"best_pos":1,"similarity":0.307,"stretto":false,"stretto_voices":0,"combination":[],"aug_dim":"","rhythm_ratio":1.0,"mirror":false,"chromatic_density":0.0,"complexity":0.489,"dissonance":0.08},{"voice":1,"pitch":69,"start":235.3331,"duration":0.6667,"velocity":90,"measure":89,"beat":2.0,"subject_pos":-1,"motif":"","motif_pos":-1,"best_pos":4,"similarity":0.396,"stretto":false,"stretto_voices":0,"combination":[],"aug_dim":"","rhythm_ratio":1.0,"mirror":false,"chromatic_density":0.0,"complexity":0.489,"dissonance":0.08},{"voice":3,"pitch":45,"start":235.9998,"duration":1.3333,"velocity":90,"measure":89,"beat":3.0,"subject_pos":-1,"motif":"enigmatic_cell","motif_pos":0,"best_pos":0,"similarity":1.0,"stretto":false,"stretto_voices":0,"combination":[],"aug_dim":"","rhythm_ratio":1.0,"mirror":false,"chromatic_density":0.0,"complexity":0.489,"dissonance":0.08},{"voice":2,"pitch":51,"start":236.6664,"duration":1.0,"velocity":90,"measure":89,"beat":4.0,"subject_pos":-1,"motif":"","motif_pos":-1,"best_pos":3,"similarity":0.489,"stretto":false,"stretto_voices":0,"combination":[],"aug_dim":"","rhythm_ratio":1.0,"mirror":false,"chromatic_density":0.0,"complexity":0.489,"dissonance":0.08},{"voice":3,"pitch":46,"start":237.3331,"duration":0.6667,"velocity":90,"measure":90,"beat":1.0,"subject_pos":-1,"motif":"enigmatic_cell","motif_pos":1,"best_pos":1,"similarity":1.0,"stretto":false,"stretto_voices":0,"combination":[],"aug_dim":"","rhythm_ratio":1.0,"mirror":false,"chromatic_density":0.333,"complexity":0.507,"dissonance":0.145},{"voice":2,"pitch":50,"start":237.6664,"duration":0.3333,"velocity":90,"measure":90,"beat":1.5,"subject_pos":-1,"motif":"","motif_pos":-1,"best_pos":4,"similarity":0.5,"stretto":false,"stretto_voices":0,"combination":[],"aug_dim":"","rhythm_ratio":1.0,"mirror":false,"chromatic_density":0.333,"complexity":0.507,"dissonance":0.145},{"voice":2,"pitch":53,"start":237.9998,"duration":0.3333,"velocity":90,"measure":90,"beat":2.0,"subject_pos":-1,"motif":"","motif_pos":-1,"best_pos":5,"similarity":0.357,"stretto":false,"stretto_voices":0,"combination":[],"aug_dim":"","rhythm_ratio":1.0,"mirror":false,"chromatic_density":0.333,"complexity":0.507,"dissonance":0.145},{"voice":3,"pitch":41,"start":237.9998,"duration":0.6667,"velocity":90,"measure":90,"beat":2.0,"subject_pos":-1,"motif":"enigmatic_cell","motif_pos":2,"best_pos":2,"similarity":1.0,"stretto":false,"stretto_voices":0,"combination":[],"aug_dim":"","rhythm_ratio":1.0,"mirror":false,"chromatic_density":0.333,"complexity":0.507,"dissonance":0.145},{"voice":2,"pitch":53,"start":238.3331,"duration":0.3333,"velocity":90,"measure":90,"beat":2.5,"subject_pos":-1,"motif":"","motif_pos":-1,"best_pos":4,"similarity":0.354,"stretto":false,"stretto_voices":0,"combination":[],"aug_dim":"","rhythm_ratio":1.0,"mirror":false,"chromatic_density":0.333,"complexity":0.507,"dissonance":0.145},{"voice":2,"pitch":53,"start":238.6664,"duration":0.3333,"velocity":90,"measure":90,"beat":3.0,"subject_pos":-1,"motif":"","motif_pos":-1,"best_pos":3,"similarity":0.421,"stretto":false,"stretto_voices":0,"combination":[],"aug_dim":"","rhythm_ratio":1.0,"mirror":false,"chromatic_density":0.333,"complexity":0.507,"dissonance":0.145},{"voice":3,"pitch":48,"start":238.6664,"duration":0.6667,"velocity":90,"measure":90,"beat":3.0,"subject_pos":-1,"motif":"","motif_pos":-1,"best_pos":4,"similarity":0.4,"stretto":false,"stretto_voices":0,"combination":[],"aug_dim":"","rhythm_ratio":1.0,"mirror":false,"chromatic_density":0.333,"complexity":0.507,"dissonance":0.145},{"voice":2,"pitch":52,"start":238.9998,"duration":0.3333,"velocity":90,"measure":90,"beat":3.5,"subject_pos":-1,"motif":"","motif_pos":-1,"best_pos":4,"similarity":0.461,"stretto":false,"stretto_voices":0,"combination":[],"aug_dim":"","rhythm_ratio":1.0,"mirror":false,"chromatic_density":0.333,"complexity":0.507,"dissonance":0.145},{"voice":1,"pitch":58,"start":239.3331,"duration":1.0,"velocity":90,"measure":90,"beat":4.0,"subject_pos":-1,"motif":"","motif_pos":-1,"best_pos":3,"similarity":0.411,"stretto":false,"stretto_voices":0,"combination":[],"aug_dim":"","rhythm_ratio":1.0,"mirror":false,"chromatic_density":0.333,"complexity":0.507,"dissonance":0.145},{"voice":2,"pitch":55,"start":239.3331,"duration":0.3333,"velocity":90,"measure":90,"beat":4.0,"subject_pos":-1,"motif":"","motif_pos":-1,"best_pos":5,"similarity":0.364,"stretto":false,"stretto_voices":0,"combination":[],"aug_dim":"","rhythm_ratio":1.0,"mirror":false,"chromatic_density":0.333,"complexity":0.507,"dissonance":0.145},{"voice":3,"pitch":49,"start":239.3331,"duration":0.6667,"velocity":90,"measure":90,"beat":4.0,"subject_pos":-1,"motif":"enigmatic_cell","motif_pos":0,"best_pos":0,"similarity":1.0,"stretto":false,"stretto_voices":0,"combination":[],"aug_dim":"","rhythm_ratio":1.0,"mirror":false,"chromatic_density":0.333,"complexity":0.507,"dissonance":0.145},{"voice":2,"pitch":55,"start":239.6664,"duration":0.3333,"velocity":90,"measure":90,"beat":4.5,"subject_pos":-1,"motif":"","motif_pos":-1,"best_pos":4,"similarity":0.354,"stretto":false,"stretto_voices":0,"combination":[],"aug_dim":"","rhythm_ratio":1.0,"mirror":false,"chromatic_density":0.333,"complexity":0.507,"dissonance":0.145},{"voice":2,"pitch":55,"start":239.9998,"duration":0.3333,"velocity":90,"measure":91,"beat":1.0,"subject_pos":-1,"motif":"","motif_pos":-1,"best_pos":3,"similarity":0.421,"stretto":false,"stretto_voices":0,"combination":[],"aug_dim":"","rhythm_ratio":1.0,"mirror":false,"chromatic_density":0.333,"complexity":0.51,"dissonance":0.068},{"voice":3,"pitch":50,"start":239.9998,"duration":0.6667,"velocity":90,"measure":91,"beat":1.0,"subject_pos":-1,"motif":"enigmatic_cell","motif_pos":1,"best_pos":1,"similarity":1.0,"stretto":false,"stretto_voices":0,"combination":[],"aug_dim":"","rhythm_ratio":1.0,"mirror":false,"chromatic_density":0.333,"complexity":0.51,"dissonance":0.068},{"voice":1,"pitch":57,"start":240.3331,"duration":0.3333,"velocity":90,"measure":91,"beat":1.5,"subject_pos":-1,"motif":"","motif_pos":-1,"best_pos":4,"similarity":0.464,"stretto":false,"stretto_voices":0,"combination":[],"aug_dim":"","rhythm_ratio":1.0,"mirror":false,"chromatic_density":0.333,"complexity":0.51,"dissonance":0.068},{"voice":2,"pitch":54,"start":240.3331,"duration":0.3333,"velocity":90,"measure":91,"beat":1.5,"subject_pos":-1,"motif":"","motif_pos":-1,"best_pos":4,"similarity":0.461,"stretto":false,"stretto_voices":0,"combination":[],"aug_dim":"","rhythm_ratio":1.0,"mirror":false,"chromatic_density":0.333,"complexity":0.51,"dissonance":0.068},{"voice":1,"pitch":60,"start":240.6664,"duration":0.3333,"velocity":90,"measure":91,"beat":2.0,"subject_pos":-1,"motif":"","motif_pos":-1,"best_pos":5,"similarity":0.357,"stretto":false,"stretto_voices":0,"combination":[],"aug_dim":"","rhythm_ratio":1.0,"mirror":false,"chromatic_density":0.333,"complexity":0.51,"dissonance":0.068},{"voice":2,"pitch":57,"start":240.6664,"duration":0.3333,"velocity":90,"measure":91,"beat":2.0,"subject_pos":-1,"motif":"","motif_pos":-1,"best_pos":5,"similarity":0.364,"stretto":false,"stretto_voices":0,"combination":[],"aug_dim":"","rhythm_ratio":1.0,"mirror":false,"chromatic_density":0.333,"complexity":0.51,"dissonance":0.068},{"voice":3,"pitch":45,"start":240.6664,"duration":0.6667,"velocity":90,"measure":91,"beat":2.0,"subject_pos":-1,"motif":"enigmatic_cell","motif_pos":2,"best_pos":2,"similarity":1.0,"stretto":false,"stretto_voices":0,"combination":[],"aug_dim":"","rhythm_ratio":1.0,"mirror":false,"chromatic_density":0.333,"complexity":0.51,"dissonance":0.068},{"voice":1,"pitch":60,"start":240.9998,"duration":0.3333,"velocity":90,"measure":91,"beat":2.5,"subject_pos":-1,"motif":"","motif_pos":-1,"best_pos":4,"similarity":0.354,"stretto":false,"stretto_voices":0,"combination":[],"aug_dim":"","rhythm_ratio":1.0,"mirror":false,"chromatic_density":0.333,"complexity":0.51,"dissonance":0.068},{"voice":2,"pitch":57,"start":240.9998,"duration":0.3333,"velocity":90,"measure":91,"beat":2.5,"subject_pos":-1,"motif":"","motif_pos":-1,"best_pos":4,"similarity":0.354,"stretto":false,"stretto_voices":0,"combination":[],"aug_dim":"","rhythm_ratio":1.0,"mirror":false,"chromatic_density":0.333,"complexity":0.51,"dissonance":0.068},{"voice":1,"pitch":60,"start":241.3331,"duration":0.3333,"velocity":90,"measure":91,"beat":3.0,"subject_pos":-1,"motif":"","motif_pos":-1,"best_pos":3,"similarity":0.421,"stretto":false,"stretto_voices":0,"combination":[],"aug_dim":"","rhythm_ratio":1.0,"mirror":false,"chromatic_density":0.333,"complexity":0.51,"dissonance":0.068},{"voice":2,"pitch":57,"start":241.3331,"duration":0.3333,"velocity":90,"measure":91,"beat":3.0,"subject_pos":-1,"motif":"","motif_pos":-1,"best_pos":3,"similarity":0.421,"stretto":false,"stretto_voices":0,"combination":[],"aug_dim":"","rhythm_ratio":1.0,"mirror":false,"chromatic_density":0.333,"complexity":0.51,"dissonance":0.068},{"voice":3,"pitch":52,"start":241.3331,"duration":1.3333,"velocity":90,"measure":91,"beat":3.0,"subject_pos":-1,"motif":"","motif_pos":-1,"best_pos":1,"similarity":0.386,"stretto":false,"stretto_voices":0,"combination":[],"aug_dim":"","rhythm_ratio":1.0,"mirror":false,"chromatic_density":0.333,"complexity":0.51,"dissonance":0.068},{"voice":1,"pitch":59,"start":241.6664,"duration":0.3333,"velocity":90,"measure":91,"beat":3.5,"subject_pos":-1,"motif":"","motif_pos":-1,"best_pos":4,"similarity":0.461,"stretto":false,"stretto_voices":0,"combination":[],"aug_dim":"","rhythm_ratio":1.0,"mirror":false,"chromatic_density":0.333,"complexity":0.51,"dissonance":0.068},{"voice":2,"pitch":56,"start":241.6664,"duration":0.3333,"velocity":90,"measure":91,"beat":3.5,"subject_pos":-1,"motif":"","motif_pos":-1,"best_pos":4,"similarity":0.461,"stretto":false,"stretto_voices":0,"combination":[],"aug_dim":"","rhythm_ratio":1.0,"mirror":false,"chromatic_density":0.333,"complexity":0.51,"dissonance":0.068},{"voice":1,"pitch":62,"start":241.9998,"duration":0.3333,"velocity":90,"measure":91,"beat":4.0,"subject_pos":-1,"motif":"","motif_pos":-1,"best_pos":5,"similarity":0.364,"stretto":false,"stretto_voices":0,"combination":[],"aug_dim":"","rhythm_ratio":1.0,"mirror":false,"chromatic_density":0.333,"complexity":0.51,"dissonance":0.068},{"voice":2,"pitch":59,"start":241.9998,"duration":0.3333,"velocity":90,"measure":91,"beat":4.0,"subject_pos":-1,"motif":"","motif_pos":-1,"best_pos":5,"similarity":0.364,"stretto":false,"stretto_voices":0,"combination":[],"aug_dim":"","rhythm_ratio":1.0,"mirror":false,"chromatic_density":0.333,"complexity":0.51,"dissonance":0.068},{"voice":1,"pitch":62,"start":242.3331,"duration":0.3333,"velocity":90,"measure":91,"beat":4.5,"subject_pos":-1,"motif":"","motif_pos":-1,"best_pos":4,"similarity":0.407,"stretto":false,"stretto_voices":0,"combination":[],"aug_dim":"","rhythm_ratio":1.0,"mirror":false,"chromatic_density":0.333,"complexity":0.51,"dissonance":0.068},{"voice":2,"pitch":59,"start":242.3331,"duration":0.3333,"velocity":90,"measure":91,"beat":4.5,"subject_pos":-1,"motif":"","motif_pos":-1,"best_pos":4,"similarity":0.371,"stretto":false,"stretto_voices":0,"combination":[],"aug_dim":"","rhythm_ratio":1.0,"mirror":false,"chromatic_density":0.333,"complexity":0.51,"dissonance":0.068},{"voice":1,"pitch":62,"start":242.6664,"duration":0.3333,"velocity":90,"measure":92,"beat":1.0,"subject_pos":-1,"motif":"tail","motif_pos":3,"best_pos":3,"similarity":1.0,"stretto":false,"stretto_voices":0,"combination":[],"aug_dim":"","rhythm_ratio":1.0,"mirror":false,"chromatic_density":0.444,"complexity":0.528,"dissonance":0.054},{"voice":2,"pitch":59,"start":242.6664,"duration":0.3333,"velocity":90,"measure":92,"beat":1.0,"subject_pos":-1,"motif":"","motif_pos":-1,"best_pos":3,"similarity":0.368,"stretto":false,"stretto_voices":0,"combination":[],"aug_dim":"","rhythm_ratio":1.0,"mirror":false,"chromatic_density":0.444,"complexity":0.528,"dissonance":0.054},{"voice":3,"pitch":53,"start":242.6664,"duration":0.6667,"velocity":90,"measure":92,"beat":1.0,"subject_pos":-1,"motif":"","motif_pos":-1,"best_pos":3,"similarity":0.4,"stretto":false,"stretto_voices":0,"combination":[],"aug_dim":"","rhythm_ratio":1.0,"mirror":false,"chromatic_density":0.444,"complexity":0.528,"dissonance":0.054},{"voice":1,"pitch":61,"start":242.9998,"duration":0.3333,"velocity":90,"measure":92,"beat":1.5,"subject_pos":-1,"motif":"tail","motif_pos":4,"best_pos":4,"similarity":1.0,"stretto":false,"stretto_voices":0,"combination":[],"aug_dim":"","rhythm_ratio":1.0,"mirror":false,"chromatic_density":0.444,"complexity":0.528,"dissonance":0.054},{"voice":2,"pitch":57,"start":242.9998,"duration":0.3333,"velocity":90,"measure":92,"beat":1.5,"subject_pos":-1,"motif":"","motif_pos":-1,"best_pos":4,"similarity":0.532,"stretto":false,"stretto_voices":0,"combination":[],"aug_dim":"","rhythm_ratio":1.0,"mirror":false,"chromatic_density":0.444,"complexity":0.528,"dissonance":0.054},{"voice":1,"pitch":62,"start":243.3331,"duration":0.3333,"velocity":90,"measure":92,"beat":2.0,"subject_pos":-1,"motif":"tail","motif_pos":5,"best_pos":5,"similarity":1.0,"stretto":false,"stretto_voices":0,"combination":[],"aug_dim":"","rhythm_ratio":1.0,"mirror":false,"chromatic_density":0.444,"complexity":0.528,"dissonance":0.054},{"voice":2,"pitch":59,"start":243.3331,"duration":0.3333,"velocity":90,"measure":92,"beat":2.0,"subject_pos":-1,"motif":"","motif_pos":-1,"best_pos":5,"similarity":0.65,"stretto":false,"stretto_voices":0,"combination":[],"aug_dim":"","rhythm_ratio":1.0,"mirror":false,"chromatic_density":0.444,"complexity":0.528,"dissonance":0.054},{"voice":3,"pitch":52,"start":243.3331,"duration":0.6667,"velocity":90,"measure":92,"beat":2.0,"subject_pos":-1,"motif":"","motif_pos":-1,"best_pos":4,"similarity":0.479,"stretto":false,"stretto_voices":0,"combination":[],"aug_dim":"","rhythm_ratio":1.0,"mirror":false,"chromatic_density":0.444,"complexity":0.528,"dissonance":0.054},{"voice":1,"pitch":64,"start":243.6664,"duration":0.3333,"velocity":90,"measure":92,"beat":2.5,"subject_pos":-1,"motif":"tail","motif_pos":6,"best_pos":6,"similarity":1.0,"stretto":false,"stretto_voices":0,"combination":[],"aug_dim":"","rhythm_ratio":1.0,"mirror":false,"chromatic_density":0.444,"complexity":0.528,"dissonance":0.054},{"voice":2,"pitch":61,"start":243.6664,"duration":0.3333,"velocity":90,"measure":92,"beat":2.5,"subject_pos":-1,"motif":"enigmatic_cell","motif_pos":0,"best_pos":0,"similarity":1.0,"stretto":false,"stretto_voices":0,"combination":[],"aug_dim":"","rhythm_ratio":1.0,"mirror":false,"chromatic_density":0.444,"complexity":0.528,"dissonance":0.054},{"voice":1,"pitch":65,"start":243.9998,"duration":0.3333,"velocity":90,"measure":92,"beat":3.0,"subject_pos":-1,"motif":"tail","motif_pos":7,"best_pos":7,"similarity":1.0,"stretto":false,"stretto_voices":0,"combination":[],"aug_dim":"","rhythm_ratio":1.0,"mirror":false,"chromatic_density":0.444,"complexity":0.528,"dissonance":0.054},{"voice":2,"pitch":62,"start":243.9998,"duration":0.3333,"velocity":90,"measure":92,"beat":3.0,"subject_pos":-1,"motif":"enigmatic_cell","motif_pos":1,"best_pos":1,"similarity":1.0,"stretto":false,"stretto_voices":0,"combination":[],"aug_dim":"","rhythm_ratio":1.0,"mirror":false,"chromatic_density":0.444,"complexity":0.528,"dissonance":0.054},{"voice":3,"pitch":50,"start":243.9998,"duration":0.3333,"velocity":90,"measure":92,"beat":3.0,"subject_pos":-1,"motif":"","motif_pos":-1,"best_pos":5,"similarity":0.479,"stretto":false,"stretto_voices":0,"combination":[],"aug_dim":"","rhythm_ratio":1.0,"mirror":false,"chromatic_density":0.444,"complexity":0.528,"dissonance":0.054},{"voice":1,"pitch":64,"start":244.3331,"duration":0.3333,"velocity":90,"measure":92,"beat":3.5,"subject_pos":-1,"motif":"","motif_pos":-1,"best_pos":4,"similarity":0.743,"stretto":false,"stretto_voices":0,"combination":[],"aug_dim":"","rhythm_ratio":1.0,"mirror":false,"chromatic_density":0.444,"complexity":0.528,"dissonance":0.054},{"voice":2,"pitch":56,"start":244.3331,"duration":0.3333,"velocity":90,"measure":92,"beat":3.5,"subject_pos":-1,"motif":"enigmatic_cell","motif_pos":2,"best_pos":2,"similarity":1.0,"stretto":false,"stretto_voices":0,"combination":[],"aug_dim":"","rhythm_ratio":1.0,"mirror":false,"chromatic_density":0.444,"complexity":0.528,"dissonance":0.054},{"voice":3,"pitch":52,"start":244.3331,"duration":0.3333,"velocity":90,"measure":92,"beat":3.5,"subject_pos":-1,"motif":"","motif_pos":-1,"best_pos":6,"similarity":0.4,"stretto":false,"stretto_voices":0,"combination":[],"aug_dim":"","rhythm_ratio":1.0,"mirror":false,"chromatic_density":0.444,"complexity":0.528,"dissonance":0.054},{"voice":1,"pitch":65,"start":244.6664,"duration":0.3333,"velocity":90,"measure":92,"beat":4.0,"subject_pos":-1,"motif":"","motif_pos":-1,"best_pos":5,"similarity":0.736,"stretto":false,"stretto_voices":0,"combination":[],"aug_dim":"","rhythm_ratio":1.0,"mirror":false,"chromatic_density":0.444,"complexity":0.528,"dissonance":0.054},{"voice":2,"pitch":57,"start":244.6664,"duration":0.3333,"velocity":90,"measure":92,"beat":4.0,"subject_pos":-1,"motif":"","motif_pos":-1,"best_pos":5,"similarity":0.721,"stretto":false,"stretto_voices":0,"combination":[],"aug_dim":"","rhythm_ratio":1.0,"mirror":false,"chromatic_density":0.444,"complexity":0.528,"dissonance":0.054},{"voice":3,"pitch":50,"start":244.6664,"duration":0.6667,"velocity":90,"measure":92,"beat":4.0,"subject_pos":-1,"motif":"","motif_pos":-1,"best_pos":0,"similarity":0.357,"stretto":false,"stretto_voices":0,"combination":[],"aug_dim":"","rhythm_ratio":1.0,"mirror":false,"chromatic_density":0.444,"complexity":0.528,"dissonance":0.054},{"voice":1,"pitch":67,"start":244.9998,"duration":0.3333,"velocity":90,"measure":92,"beat":4.5,"subject_pos":-1,"motif":"","motif_pos":-1,"best_pos":6,"similarity":0.529,"stretto":false,"stretto_voices":0,"combination":[],"aug_dim":"","rhythm_ratio":1.0,"mirror":false,"chromatic_density":0.444,"complexity":0.528,"dissonance":0.054},{"voice":2,"pitch":59,"start":244.9998,"duration":0.3333,"velocity":90,"measure":92,"beat":4.5,"subject_pos":-1,"motif":"","motif_pos":-1,"best_pos":6,"similarity":0.714,"stretto":false,"stretto_voices":0,"combination":[],"aug_dim":"","rhythm_ratio":1.0,"mirror":false,"chromatic_density":0.444,"complexity":0.528,"dissonance":0.054},{"voice":1,"pitch":64,"start":245.3331,"duration":0.3333,"velocity":90,"measure":93,"beat":1.0,"subject_pos":-1,"motif":"","motif_pos":-1,"best_pos":3,"similarity":0.357,"stretto":false,"stretto_voices":0,"combination":[],"aug_dim":"","rhythm_ratio":1.0,"mirror":false,"chromatic_density":0.25,"complexity":0.593,"dissonance":0.13},{"voice":2,"pitch":60,"start":245.3331,"duration":1.0,"velocity":90,"measure":93,"beat":1.0,"subject_pos":-1,"motif":"","motif_pos":-1,"best_pos":7,"similarity":0.5,"stretto":false,"stretto_voices":0,"combination":[],"aug_dim":"","rhythm_ratio":1.0,"mirror":false,"chromatic_density":0.25,"complexity":0.593,"dissonance":0.13},{"voice":3,"pitch":57,"start":245.3331,"duration":0.3333,"velocity":90,"measure":93,"beat":1.0,"subject_pos":-1,"motif":"","motif_pos":-1,"best_pos":1,"similarity":0.464,"stretto":false,"stretto_voices":0,"combination":[],"aug_dim":"","rhythm_ratio":1.0,"mirror":false,"chromatic_density":0.25,"complexity":0.593,"dissonance":0.13},{"voice":1,"pitch":67,"start":245.6664,"duration":0.3333,"velocity":90,"measure":93,"beat":1.5,"subject_pos":-1,"motif":"","motif_pos":-1,"best_pos":1,"similarity":0.429,"stretto":false,"stretto_voices":0,"combination":[],"aug_dim":"","rhythm_ratio":1.0,"mirror":false,"chromatic_density":0.25,"complexity":0.593,"dissonance":0.13},{"voice":3,"pitch":52,"start":245.6664,"duration":0.3333,"velocity":90,"measure":93,"beat":1.5,"subject_pos":-1,"motif":"","motif_pos":-1,"best_pos":0,"similarity":0.464,"stretto":false,"stretto_voices":0,"combination":[],"aug_dim":"","rhythm_ratio":1.0,"mirror":false,"chromatic_density":0.25,"complexity":0.593,"dissonance":0.13},{"voice":1,"pitch":65,"start":245.9998,"duration":0.3333,"velocity":90,"measure":93,"beat":2.0,"subject_pos":-1,"motif":"","motif_pos":-1,"best_pos":3,"similarity":0.514,"stretto":false,"stretto_voices":0,"combination":[],"aug_dim":"","rhythm_ratio":1.0,"mirror":false,"chromatic_density":0.25,"complexity":0.593,"dissonance":0.13},{"voice":3,"pitch":57,"start":245.9998,"duration":1.3333,"velocity":90,"measure":93,"beat":2.0,"subject_pos":-1,"motif":"","motif_pos":-1,"best_pos":1,"similarity":0.65,"stretto":false,"stretto_voices":0,"combination":[],"aug_dim":"","rhythm_ratio":1.0,"mirror":false,"chromatic_density":0.25,"complexity":0.593,"dissonance":0.13},{"voice":1,"pitch":64,"start":246.3331,"duration":0.3333,"velocity":90,"measure":93,"beat":2.5,"subject_pos":-1,"motif":"","motif_pos":-1,"best_pos":4,"similarity":0.6,"stretto":false,"stretto_voices":0,"combination":[],"aug_dim":"","rhythm_ratio":1.0,"mirror":false,"chromatic_density":0.25,"complexity":0.593,"dissonance":0.13},{"voice":2,"pitch":60,"start":246.3331,"duration":0.3333,"velocity":90,"measure":93,"beat":2.5,"subject_pos":-1,"motif":"","motif_pos":-1,"best_pos":2,"similarity":0.443,"stretto":false,"stretto_voices":0,"combination":[],"aug_dim":"","rhythm_ratio":1.0,"mirror":false,"chromatic_density":0.25,"complexity":0.593,"dissonance":0.13},{"voice":1,"pitch":62,"start":246.6664,"duration":0.6667,"velocity":90,"measure":93,"beat":3.0,"subject_pos":-1,"motif":"","motif_pos":-1,"best_pos":5,"similarity":0.636,"stretto":false,"stretto_voices":0,"combination":[],"aug_dim":"","rhythm_ratio":1.0,"mirror":false,"chromatic_density":0.25,"complexity":0.593,"dissonance":0.13},{"voice":2,"pitch":58,"start":246.6664,"duration":0.3333,"velocity":90,"measure":93,"beat":3.0,"subject_pos":-1,"motif":"","motif_pos":-1,"best_pos":3,"similarity":0.686,"stretto":false,"stretto_voices":0,"combination":[],"aug_dim":"","rhythm_ratio":1.0,"mirror":false,"chromatic_density":0.25,"complexity":0.593,"dissonance":0.13},{"voice":2,"pitch":57,"start":246.9998,"duration":0.3333,"velocity":90,"measure":93,"beat":3.5,"subject_pos":-1,"motif":"","motif_pos":-1,"best_pos":4,"similarity":0.839,"stretto":false,"stretto_voices":0,"combination":[],"aug_dim":"","rhythm_ratio":1.0,"mirror":false,"chromatic_density":0.25,"complexity":0.593,"dissonance":0.13},{"voice":0,"pitch":70,"start":247.3331,"duration":1.0,"velocity":90,"measure":93,"beat":4.0,"subject_pos":-1,"motif":"enigmatic_cell","motif_pos":2,"best_pos":2,"similarity":1.0,"stretto":false,"stretto_voices":0,"combination":[],"aug_dim":"","rhythm_ratio":1.0,"mirror":false,"chromatic_density":0.25,"complexity":0.593,"dissonance":0.13},{"voice":1,"pitch":64,"start":247.3331,"duration":0.6667,"velocity":90,"measure":93,"beat":4.0,"subject_pos":-1,"motif":"enigmatic_cell","motif_pos":0,"best_pos":0,"similarity":1.0,"stretto":false,"stretto_voices":0,"combination":[],"aug_dim":"","rhythm_ratio":1.0,"mirror":false,"chromatic_density":0.25,"complexity":0.593,"dissonance":0.13},{"voice":2,"pitch":58,"start":247.3331,"duration":0.3333,"velocity":90,"measure":93,"beat":4.0,"subject_pos":-1,"motif":"","motif_pos":-1,"best_pos":5,"similarity":0.821,"stretto":false,"stretto_voices":0,"combination":[],"aug_dim":"","rhythm_ratio":1.0,"mirror":false,"chromatic_density":0.25,"complexity":0.593,"dissonance":0.13},{"voice":3,"pitch":55,"start":247.3331,"duration":0.6667,"velocity":90,"measure":93,"beat":4.0,"subject_pos":-1,"motif":"","motif_pos":-1,"best_pos":2,"similarity":0.593,"stretto":false,"stretto_voices":0,"combination":[],"aug_dim":"","rhythm_ratio":1.0,"mirror":false,"chromatic_density":0.25,"complexity":0.593,"dissonance":0.13},{"voice":2,"pitch":60,"start":247.6664,"duration":0.3333,"velocity":90,"measure":93,"beat":4.5,"subject_pos":-1,"motif":"","motif_pos":-1,"best_pos":6,"similarity":0.643,"stretto":false,"stretto_voices":0,"combination":[],"aug_dim":"","rhythm_ratio":1.0,"mirror":false,"chromatic_density":0.25,"complexity":0.593,"dissonance":0.13},{"voice":1,"pitch":65,"start":247.9998,"duration":0.6667,"velocity":90,"measure":94,"beat":1.0,"subject_pos":-1,"motif":"enigmatic_cell","motif_pos":1,"best_pos":1,"similarity":1.0,"stretto":false,"stretto_voices":0,"combination":[],"aug_dim":"","rhythm_ratio":1.0,"mirror":false,"chromatic_density":0.231,"complexity":0.666,"dissonance":0.11},{"voice":2,"pitch":62,"start":247.9998,"duration":0.6667,"velocity":90,"measure":94,"beat":1.0,"subject_pos":-1,"motif":"","motif_pos":-1,"best_pos":6,"similarity":0.375,"stretto":false,"stretto_voices":0,"combination":[],"aug_dim":"","rhythm_ratio":1.0,"mirror":false,"chromatic_density":0.231,"complexity":0.666,"dissonance":0.11},{"voice":3,"pitch":53,"start":247.9998,"duration":1.0,"velocity":90,"measure":94,"beat":1.0,"subject_pos":-1,"motif":"","motif_pos":-1,"best_pos":3,"similarity":0.407,"stretto":false,"stretto_voices":0,"combination":[],"aug_dim":"","rhythm_ratio":1.0,"mirror":false,"chromatic_density":0.231,"complexity":0.666,"dissonance":0.11},{"voice":0,"pitch":69,"start":248.3331,"duration":0.3333,"velocity":90,"measure":94,"beat":1.5,"subject_pos":-1,"motif":"","motif_pos":-1,"best_pos":4,"similarity":0.45,"stretto":false,"stretto_voices":0,"combination":[],"aug_dim":"","rhythm_ratio":1.0,"mirror":false,"chromatic_density":0.231,"complexity":0.666,"dissonance":0.11},{"voice":0,"pitch":72,"start":248.6664,"duration":0.3333,"velocity":90,"measure":94,"beat":2.0,"subject_pos":-1,"motif":"","motif_pos":-1,"best_pos":5,"similarity":0.364,"stretto":false,"stretto_voices":0,"combination":[],"aug_dim":"","rhythm_ratio":1.0,"mirror":false,"chromatic_density":0.231,"complexity":0.666,"dissonance":0.11},{"voice":1,"pitch":60,"start":248.6664,"duration":0.6667,"velocity":90,"measure":94,"beat":2.0,"subject_pos":-1,"motif":"enigmatic_cell","motif_pos":2,"best_pos":2,"similarity":1.0,"stretto":false,"stretto_voices":0,"combination":[],"aug_dim":"","rhythm_ratio":1.0,"mirror":false,"chromatic_density":0.231,"complexity":0.666,"dissonance":0.11},{"voice":2,"pitch":57,"start":248.6664,"duration":0.6667,"velocity":90,"measure":94,"beat":2.0,"subject_pos":-1,"motif":"","motif_pos":-1,"best_pos":0,"similarity":0.446,"stretto":false,"stretto_voices":0,"combination":[],"aug_dim":"","rhythm_ratio":1.0,"mirror":false,"chromatic_density":0.231,"complexity":0.666,"dissonance":0.11},{"voice":0,"pitch":72,"start":248.9998,"duration":0.3333,"velocity":90,"measure":94,"beat":2.5,"subject_pos":-1,"motif":"","motif_pos":-1,"best_pos":4,"similarity":0.354,"stretto":false,"stretto_voices":0,"combination":[],"aug_dim":"","rhythm_ratio":1.0,"mirror":false,"chromatic_density":0.231,"complexity":0.666,"dissonance":0.11},{"voice":3,"pitch":55,"start":248.9998,"duration":0.1667,"velocity":90,"measure":94,"beat":2.5,"subject_pos":-1,"motif":"","motif_pos":-1,"best_pos":1,"similarity":0.386,"stretto":false,"stretto_voices":0,"combination":[],"aug_dim":"","rhythm_ratio":1.0,"mirror":false,"chromatic_density":0.231,"complexity":0.666,"dissonance":0.11},{"voice":3,"pitch":53,"start":249.1664,"duration":0.1667,"velocity":90,"measure":94,"beat":2.75,"subject_pos":-1,"motif":"","motif_pos":-1,"best_pos":3,"similarity":0.529,"stretto":false,"stretto_voices":0,"combination":[],"aug_dim":"","rhythm_ratio":1.0,"mirror":false,"chromatic_density":0.231,"complexity":0.666,"dissonance":0.11},{"voice":0,"pitch":72,"start":249.3331,"duration":0.3333,"velocity":90,"measure":94,"beat":3.0,"subject_pos":-1,"motif":"","motif_pos":-1,"best_pos":3,"similarity":0.421,"stretto":false,"stretto_voices":0,"combination":[],"aug_dim":"","rhythm_ratio":1.0,"mirror":false,"chromatic_density":0.231,"complexity":0.666,"dissonance":0.11},{"voice":1,"pitch":67,"start":249.3331,"duration":0.6667,"velocity":90,"measure":94,"beat":3.0,"subject_pos":-1,"motif":"","motif_pos":-1,"best_pos":4,"similarity":0.4,"stretto":false,"stretto_voices":0,"combination":[],"aug_dim":"","rhythm_ratio":1.0,"mirror":false,"chromatic_density":0.231,"complexity":0.666,"dissonance":0.11},{"voice":2,"pitch":64,"start":249.3331,"duration":2.0,"velocity":90,"measure":94,"beat":3.0,"subject_pos":-1,"motif":"","motif_pos":-1,"best_pos":1,"similarity":0.607,"stretto":false,"stretto_voices":0,"combination":[],"aug_dim":"","rhythm_ratio":1.0,"mirror":false,"chromatic_density":0.231,"complexity":0.666,"dissonance":0.11},{"voice":3,"pitch":52,"start":249.3331,"duration":0.3333,"velocity":90,"measure":94,"beat":3.0,"subject_pos":-1,"motif":"","motif_pos":-1,"best_pos":4,"similarity":0.536,"stretto":false,"stretto_voices":0,"combination":[],"aug_dim":"","rhythm_ratio":1.0,"mirror":false,"chromatic_density":0.231,"complexity":0.666,"dissonance":0.11},{"voice":0,"pitch":71,"start":249.6664,"duration":0.3333,"velocity":90,"measure":94,"beat":3.5,"subject_pos":-1,"motif":"","motif_pos":-1,"best_pos":4,"similarity":0.461,"stretto":false,"stretto_voices":0,"combination":[],"aug_dim":"","rhythm_ratio":1.0,"mirror":false,"chromatic_density":0.231,"complexity":0.666,"dissonance":0.11},{"voice":3,"pitch":50,"start":249.6664,"duration":0.3333,"velocity":90,"measure":94,"beat":3.5,"subject_pos":-1,"motif":"","motif_pos":-1,"best_pos":5,"similarity":0.493,"stretto":false,"stretto_voices":0,"combination":[],"aug_dim":"","rhythm_ratio":1.0,"mirror":false,"chromatic_density":0.231,"complexity":0.666,"dissonance":0.11},{"voice":0,"pitch":74,"start":249.9998,"duration":0.3333,"velocity":90,"measure":94,"beat":4.0,"subject_pos":-1,"motif":"","motif_pos":-1,"best_pos":5,"similarity":0.364,"stretto":false,"stretto_voices":0,"combination":[],"aug_dim":"","rhythm_ratio":1.0,"mirror":false,"chromatic_density":0.231,"complexity":0.666,"dissonance":0.11},{"voice":1,"pitch":68,"start":249.9998,"duration":0.6667,"velocity":90,"measure":94,"beat":4.0,"subject_pos":-1,"motif":"enigmatic_cell","motif_pos":0,"best_pos":0,"similarity":1.0,"stretto":false,"stretto_voices":0,"combination":[],"aug_dim":"","rhythm_ratio":1.0,"mirror":false,"chromatic_density":0.231,"complexity":0.666,"dissonance":0.11},{"voice":3,"pitch":52,"start":249.9998,"duration":0.6667,"velocity":90,"measure":94,"beat":4.0,"subject_pos":-1,"motif":"","motif_pos":-1,"best_pos":6,"similarity":0.371,"stretto":false,"stretto_voices":0,"combination":[],"aug_dim":"","rhythm_ratio":1.0,"mirror":false,"chromatic_density":0.231,"complexity":0.666,"dissonance":0.11},{"voice":0,"pitch":74,"start":250.3331,"duration":0.3333,"velocity":90,"measure":94,"beat":4.5,"subject_pos":-1,"motif":"","motif_pos":-1,"best_pos":4,"similarity":0.354,"stretto":false,"stretto_voices":0,"combination":[],"aug_dim":"","rhythm_ratio":1.0,"mirror":false,"chromatic_density":0.231,"complexity":0.666,"dissonance":0.11},{"voice":0,"pitch":74,"start":250.6664,"duration":0.3333,"velocity":90,"measure":95,"beat":1.0,"subject_pos":-1,"motif":"","motif_pos":-1,"best_pos":3,"similarity":0.421,"stretto":false,"stretto_voices":0,"combination":[],"aug_dim":"","rhythm_ratio":1.0,"mirror":false,"chromatic_density":0.3,"complexity":0.625,"dissonance":0.108},{"voice":1,"pitch":69,"start":250.6664,"duration":0.6667,"velocity":90,"measure":95,"beat":1.0,"subject_pos":-1,"motif":"enigmatic_cell","motif_pos":1,"best_pos":1,"similarity":1.0,"stretto":false,"stretto_voices":0,"combination":[],"aug_dim":"","rhythm_ratio":1.0,"mirror":false,"chromatic_density":0.3,"complexity":0.625,"dissonance":0.108},{"voice":3,"pitch":45,"start":250.6664,"duration":0.6667,"velocity":90,"measure":95,"beat":1.0,"subject_pos":-1,"motif":"","motif_pos":-1,"best_pos":2,"similarity":0.257,"stretto":false,"stretto_voices":0,"combination":[],"aug_dim":"","rhythm_ratio":1.0,"mirror":false,"chromatic_density":0.3,"complexity":0.625,"dissonance":0.108},{"voice":0,"pitch":73,"start":250.9997,"duration":0.3333,"velocity":90,"measure":95,"beat":1.5,"subject_pos":-1,"motif":"","motif_pos":-1,"best_pos":4,"similarity":0.461,"stretto":false,"stretto_voices":0,"combination":[],"aug_dim":"","rhythm_ratio":1.0,"mirror":false,"chromatic_density":0.3,"complexity":0.625,"dissonance":0.108},{"voice":0,"pitch":76,"start":251.3331,"duration":0.3333,"velocity":90,"measure":95,"beat":2.0,"subject_pos":-1,"motif":"","motif_pos":-1,"best_pos":5,"similarity":0.364,"stretto":false,"stretto_voices":0,"combination":[],"aug_dim":"","rhythm_ratio":1.0,"mirror":false,"chromatic_density":0.3,"complexity":0.625,"dissonance":0.108},{"voice":1,"pitch":64,"start":251.3331,"duration":0.6667,"velocity":90,"measure":95,"beat":2.0,"subject_pos":-1,"motif":"enigmatic_cell","motif_pos":2,"best_pos":2,"similarity":1.0,"stretto":false,"stretto_voices":0,"combination":[],"aug_dim":"","rhythm_ratio":1.0,"mirror":false,"chromatic_density":0.3,"complexity":0.625,"dissonance":0.108},{"voice":2,"pitch":62,"start":251.3331,"duration":0.3333,"velocity":90,"measure":95,"beat":2.0,"subject_pos":-1,"motif":"","motif_pos":-1,"best_pos":2,"similarity":0.507,"stretto":false,"stretto_voices":0,"combination":[],"aug_dim":"","rhythm_ratio":1.0,"mirror":false,"chromatic_density":0.3,"complexity":0.625,"dissonance":0.108},{"voice":3,"pitch":57,"start":251.3331,"duration":1.3333,"velocity":90,"measure":95,"beat":2.0,"subject_pos":-1,"motif":"","motif_pos":-1,"best_pos":3,"similarity":0.45,"stretto":false,"stretto_voices":0,"combination":[],"aug_dim":"","rhythm_ratio":1.0,"mirror":false,"chromatic_density":0.3,"complexity":0.625,"dissonance":0.108},{"voice":0,"pitch":76,"start":251.6664,"duration":0.3333,"velocity":90,"measure":95,"beat":2.5,"subject_pos":-1,"motif":"","motif_pos":-1,"best_pos":4,"similarity":0.354,"stretto":false,"stretto_voices":0,"combination":[],"aug_dim":"","rhythm_ratio":1.0,"mirror":false,"chromatic_density":0.3,"complexity":0.625,"dissonance":0.108},{"voice":2,"pitch":61,"start":251.6664,"duration":0.3333,"velocity":90,"measure":95,"beat":2.5,"subject_pos":-1,"motif":"","motif_pos":-1,"best_pos":4,"similarity":0.404,"stretto":false,"stretto_voices":0,"combination":[],"aug_dim":"","rhythm_ratio":1.0,"mirror":false,"chromatic_density":0.3,"complexity":0.625,"dissonance":0.108},{"voice":0,"pitch":76,"start":251.9997,"duration":0.3333,"velocity":90,"measure":95,"beat":3.0,"subject_pos":-1,"motif":"","motif_pos":-1,"best_pos":1,"similarity":0.321,"stretto":false,"stretto_voices":0,"combination":[],"aug_dim":"","rhythm_ratio":1.0,"mirror":false,"chromatic_density":0.3,"complexity":0.625,"dissonance":0.108},{"voice":1,"pitch":71,"start":251.9997,"duration":1.3333,"velocity":90,"measure":95,"beat":3.0,"subject_pos":-1,"motif":"","motif_pos":-1,"best_pos":1,"similarity":0.386,"stretto":false,"stretto_voices":0,"combination":[],"aug_dim":"","rhythm_ratio":1.0,"mirror":false,"chromatic_density":0.3,"complexity":0.625,"dissonance":0.108},{"voice":2,"pitch":65,"start":251.9997,"duration":0.6667,"velocity":90,"measure":95,"beat":3.0,"subject_pos":-1,"motif":"","motif_pos":-1,"best_pos":2,"similarity":0.446,"stretto":false,"stretto_voices":0,"combination":[],"aug_dim":"","rhythm_ratio":1.0,"mirror":false,"chromatic_density":0.3,"complexity":0.625,"dissonance":0.108},{"voice":0,"pitch":74,"start":252.3331,"duration":0.3333,"velocity":90,"measure":95,"beat":3.5,"subject_pos":-1,"motif":"","motif_pos":-1,"best_pos":2,"similarity":0.393,"stretto":false,"stretto_voices":0,"combination":[],"aug_dim":"","rhythm_ratio":1.0,"mirror":false,"chromatic_density":0.3,"complexity":0.625,"dissonance":0.108},{"voice":0,"pitch":77,"start":252.6664,"duration":0.3333,"velocity":90,"measure":95,"beat":4.0,"subject_pos":-1,"motif":"","motif_pos":-1,"best_pos":3,"similarity":0.364,"stretto":false,"stretto_voices":0,"combination":[],"aug_dim":"","rhythm_ratio":1.0,"mirror":false,"chromatic_density":0.3,"complexity":0.625,"dissonance":0.108},{"voice":3,"pitch":56,"start":252.6664,"duration":0.6667,"velocity":90,"measure":95,"beat":4.0,"subject_pos":-1,"motif":"enigmatic_cell","motif_pos":0,"best_pos":0,"similarity":1.0,"stretto":false,"stretto_voices":0,"combination":[],"aug_dim":"","rhythm_ratio":1.0,"mirror":false,"chromatic_density":0.3,"complexity":0.625,"dissonance":0.108},{"voice":0,"pitch":77,"start":252.9997,"duration":0.3333,"velocity":90,"measure":95,"beat":4.5,"subject_pos":-1,"motif":"","motif_pos":-1,"best_pos":4,"similarity":0.407,"stretto":false,"stretto_voices":0,"combination":[],"aug_dim":"","rhythm_ratio":1.0,"mirror":false,"chromatic_density":0.3,"complexity":0.625,"dissonance":0.108},{"voice":0,"pitch":77,"start":253.3331,"duration":0.3333,"velocity":90,"measure":96,"beat":1.0,"subject_pos":-1,"motif":"","motif_pos":-1,"best_pos":3,"similarity":0.511,"stretto":false,"stretto_voices":0,"combination":[],"aug_dim":"","rhythm_ratio":1.0,"mirror":false,"chromatic_density":0.538,"complexity":0.55,"dissonance":0.163},{"voice":1,"pitch":72,"start":253.3331,"duration":0.6667,"velocity":90,"measure":96,"beat":1.0,"subject_pos":-1,"motif":"","motif_pos":-1,"best_pos":3,"similarity":0.4,"stretto":false,"stretto_voices":0,"combination":[],"aug_dim":"","rhythm_ratio":1.0,"mirror":false,"chromatic_density":0.538,"complexity":0.55,"dissonance":0.163},{"voice":3,"pitch":57,"start":253.3331,"duration":1.3333,"velocity":90,"measure":96,"beat":1.0,"subject_pos":-1,"motif":"enigmatic_cell","motif_pos":1,"best_pos":1,"similarity":1.0,"stretto":false,"stretto_voices":0,"combination":[],"aug_dim":"","rhythm_ratio":1.0,"mirror":false,"chromatic_density":0.538,"complexity":0.55,"dissonance":0.163},{"voice":0,"pitch":76,"start":253.6664,"duration":0.3333,"velocity":90,"measure":96,"beat":1.5,"subject_pos":-1,"motif":"","motif_pos":-1,"best_pos":4,"similarity":0.675,"stretto":false,"stretto_voices":0,"combination":[],"aug_dim":"","rhythm_ratio":1.0,"mirror":false,"chromatic_density":0.538,"complexity":0.55,"dissonance":0.163},{"voice":0,"pitch":78,"start":253.9997,"duration":0.3333,"velocity":90,"measure":96,"beat":2.0,"subject_pos":-1,"motif":"","motif_pos":-1,"best_pos":5,"similarity":0.721,"stretto":false,"stretto_voices":0,"combination":[],"aug_dim":"","rhythm_ratio":1.0,"mirror":false,"chromatic_density":0.538,"complexity":0.55,"dissonance":0.163},{"voice":1,"pitch":71,"start":253.9997,"duration":0.6667,"velocity":90,"measure":96,"beat":2.0,"subject_pos":-1,"motif":"","motif_pos":-1,"best_pos":4,"similarity":0.479,"stretto":false,"stretto_voices":0,"combination":[],"aug_dim":"","rhythm_ratio":1.0,"mirror":false,"chromatic_density":0.538,"complexity":0.55,"dissonance":0.163},{"voice":2,"pitch":62,"start":253.9997,"duration":0.6667,"velocity":90,"measure":96,"beat":2.0,"subject_pos":-1,"motif":"","motif_pos":-1,"best_pos":3,"similarity":0.614,"stretto":false,"stretto_voices":0,"combination":[],"aug_dim":"","rhythm_ratio":1.0,"mirror":false,"chromatic_density":0.538,"complexity":0.55,"dissonance":0.163},{"voice":0,"pitch":80,"start":254.3331,"duration":0.3333,"velocity":90,"measure":96,"beat":2.5,"subject_pos":-1,"motif":"","motif_pos":-1,"best_pos":6,"similarity":0.714,"stretto":false,"stretto_voices":0,"combination":[],"aug_dim":"","rhythm_ratio":1.0,"mirror":false,"chromatic_density":0.538,"complexity":0.55,"dissonance":0.163},{"voice":0,"pitch":81,"start":254.6664,"duration":0.3333,"velocity":90,"measure":96,"beat":3.0,"subject_pos":-1,"motif":"","motif_pos":-1,"best_pos":3,"similarity":0.479,"stretto":false,"stretto_voices":0,"combination":[],"aug_dim":"","rhythm_ratio":1.0,"mirror":false,"chromatic_density":0.538,"complexity":0.55,"dissonance":0.163},{"voice":1,"pitch":69,"start":254.6664,"duration":0.3333,"velocity":90,"measure":96,"beat":3.0,"subject_pos":-1,"motif":"","motif_pos":-1,"best_pos":5,"similarity":0.479,"stretto":false,"stretto_voices":0,"combination":[],"aug_dim":"","rhythm_ratio":1.0,"mirror":false,"chromatic_density":0.538,"complexity":0.55,"dissonance":0.163},{"voice":2,"pitch":61,"start":254.6664,"duration":0.6667,"velocity":90,"measure":96,"beat":3.0,"subject_pos":-1,"motif":"","motif_pos":-1,"best_pos":4,"similarity":0.586,"stretto":false,"stretto_voices":0,"combination":[],"aug_dim":"","rhythm_ratio":1.0,"mirror":false,"chromatic_density":0.538,"complexity":0.55,"dissonance":0.163},{"voice":0,"pitch":80,"start":254.9997,"duration":0.3333,"velocity":90,"measure":96,"beat":3.5,"subject_pos":-1,"motif":"","motif_pos":-1,"best_pos":4,"similarity":0.664,"stretto":false,"stretto_voices":0,"combination":[],"aug_dim":"","rhythm_ratio":1.0,"mirror":false,"chromatic_density":0.538,"complexity":0.55,"dissonance":0.163},{"voice":1,"pitch":71,"start":254.9997,"duration":0.3333,"velocity":90,"measure":96,"beat":3.5,"subject_pos":-1,"motif":"","motif_pos":-1,"best_pos":6,"similarity":0.4,"stretto":false,"stretto_voices":0,"combination":[],"aug_dim":"","rhythm_ratio":1.0,"mirror":false,"chromatic_density":0.538,"complexity":0.55,"dissonance":0.163},{"voice":0,"pitch":81,"start":255.3331,"duration":1.0,"velocity":90,"measure":96,"beat":4.0,"subject_pos":-1,"motif":"","motif_pos":-1,"best_pos":5,"similarity":0.579,"stretto":false,"stretto_voices":0,"combination":[],"aug_dim":"","rhythm_ratio":1.0,"mirror":false,"chromatic_density":0.538,"complexity":0.55,"dissonance":0.163},{"voice":1,"pitch":69,"start":255.3331,"duration":0.6667,"velocity":90,"measure":96,"beat":4.0,"subject_pos":-1,"motif":"","motif_pos":-1,"best_pos":0,"similarity":0.5,"stretto":false,"stretto_voices":0,"combination":[],"aug_dim":"","rhythm_ratio":1.0,"mirror":false,"chromatic_density":0.538,"complexity":0.55,"dissonance":0.163},{"voice":2,"pitch":60,"start":255.3331,"duration":1.3333,"velocity":90,"measure":96,"beat":4.0,"subject_pos":-1,"motif":"","motif_pos":-1,"best_pos":3,"similarity":0.571,"stretto":false,"stretto_voices":0,"combination":[],"aug_dim":"","rhythm_ratio":1.0,"mirror":false,"chromatic_density":0.538,"complexity":0.55,"dissonance":0.163},{"voice":3,"pitch":51,"start":255.3331,"duration":0.6667,"velocity":90,"measure":96,"beat":4.0,"subject_pos":-1,"motif":"enigmatic_cell","motif_pos":2,"best_pos":2,"similarity":1.0,"stretto":false,"stretto_voices":0,"combination":[],"aug_dim":"","rhythm_ratio":1.0,"mirror":false,"chromatic_density":0.538,"complexity":0.55,"dissonance":0.163},{"voice":1,"pitch":76,"start":255.9997,"duration":1.3333,"velocity":90,"measure":97,"beat":1.0,"subject_pos":-1,"motif":"","motif_pos":-1,"best_pos":1,"similarity":0.732,"stretto":false,"stretto_voices":0,"combination":[],"aug_dim":"","rhythm_ratio":1.0,"mirror":false,"chromatic_density":0.375,"complexity":0.572,"dissonance":0.097},{"voice":3,"pitch":52,"start":255.9997,"duration":1.3333,"velocity":90,"measure":97,"beat":1.0,"subject_pos":-1,"motif":"","motif_pos":-1,"best_pos":5,"similarity":0.393,"stretto":false,"stretto_voices":0,"combination":[],"aug_dim":"","rhythm_ratio":1.0,"mirror":false,"chromatic_density":0.375,"complexity":0.572,"dissonance":0.097},{"voice":0,"pitch":78,"start":256.3331,"duration":0.3333,"velocity":90,"measure":97,"beat":1.5,"subject_pos":-1,"motif":"","motif_pos":-1,"best_pos":6,"similarity":0.5,"stretto":false,"stretto_voices":0,"combination":[],"aug_dim":"","rhythm_ratio":1.0,"mirror":false,"chromatic_density":0.375,"complexity":0.572,"dissonance":0.097},{"voice":0,"pitch":79,"start":256.6664,"duration":0.3333,"velocity":90,"measure":97,"beat":2.0,"subject_pos":-1,"motif":"","motif_pos":-1,"best_pos":5,"similarity":0.471,"stretto":false,"stretto_voices":0,"combination":[],"aug_dim":"","rhythm_ratio":1.0,"mirror":false,"chromatic_density":0.375,"complexity":0.572,"dissonance":0.097},{"voice":2,"pitch":59,"start":256.6664,"duration":0.6667,"velocity":90,"measure":97,"beat":2.0,"subject_pos":-1,"motif":"","motif_pos":-1,"best_pos":4,"similarity":0.679,"stretto":false,"stretto_voices":0,"combination":[],"aug_dim":"","rhythm_ratio":1.0,"mirror":false,"chromatic_density":0.375,"complexity":0.572,"dissonance":0.097},{"voice":0,"pitch":79,"start":256.9997,"duration":0.3333,"velocity":90,"measure":97,"beat":2.5,"subject_pos":-1,"motif":"","motif_pos":-1,"best_pos":4,"similarity":0.407,"stretto":false,"stretto_voices":0,"combination":[],"aug_dim":"","rhythm_ratio":1.0,"mirror":false,"chromatic_density":0.375,"complexity":0.572,"dissonance":0.097},{"voice":0,"pitch":79,"start":257.3331,"duration":0.3333,"velocity":90,"measure":97,"beat":3.0,"subject_pos":-1,"motif":"","motif_pos":-1,"best_pos":2,"similarity":0.429,"stretto":false,"stretto_voices":0,"combination":[],"aug_dim":"","rhythm_ratio":1.0,"mirror":false,"chromatic_density":0.375,"complexity":0.572,"dissonance":0.097},{"voice":2,"pitch":60,"start":257.3331,"duration":0.6667,"velocity":90,"measure":97,"beat":3.0,"subject_pos":-1,"motif":"","motif_pos":-1,"best_pos":5,"similarity":0.518,"stretto":false,"stretto_voices":0,"combination":[],"aug_dim":"","rhythm_ratio":1.0,"mirror":false,"chromatic_density":0.375,"complexity":0.572,"dissonance":0.097},{"voice":3,"pitch":57,"start":257.3331,"duration":0.6667,"velocity":90,"measure":97,"beat":3.0,"subject_pos":-1,"motif":"","motif_pos":-1,"best_pos":5,"similarity":0.5,"stretto":false,"stretto_voices":0,"combination":[],"aug_dim":"","rhythm_ratio":1.0,"mirror":false,"chromatic_density":0.375,"complexity":0.572,"dissonance":0.097},{"voice":0,"pitch":76,"start":257.6664,"duration":0.3333,"velocity":90,"measure":97,"beat":3.5,"subject_pos":-1,"motif":"","motif_pos":-1,"best_pos":3,"similarity":0.471,"stretto":false,"stretto_voices":0,"combination":[],"aug_dim":"","rhythm_ratio":1.0,"mirror":false,"chromatic_density":0.375,"complexity":0.572,"dissonance":0.097},{"voice":0,"pitch":77,"start":257.9997,"duration":0.3333,"velocity":90,"measure":97,"beat":4.0,"subject_pos":-1,"motif":"","motif_pos":-1,"best_pos":5,"similarity":0.436,"stretto":false,"stretto_voices":0,"combination":[],"aug_dim":"","rhythm_ratio":1.0,"mirror":false,"chromatic_density":0.375,"complexity":0.572,"dissonance":0.097},{"voice":1,"pitch":74,"start":257.9997,"duration":1.0,"velocity":90,"measure":97,"beat":4.0,"subject_pos":-1,"motif":"","motif_pos":-1,"best_pos":2,"similarity":0.786,"stretto":false,"stretto_voices":0,"combination":[],"aug_dim":"","rhythm_ratio":1.0,"mirror":false,"chromatic_density":0.375,"complexity":0.572,"dissonance":0.097},{"voice":2,"pitch":67,"start":257.9997,"duration":0.6667,"velocity":90,"measure":97,"beat":4.0,"subject_pos":-1,"motif":"","motif_pos":-1,"best_pos":1,"similarity":0.464,"stretto":false,"stretto_voices":0,"combination":[],"aug_dim":"","rhythm_ratio":1.0,"mirror":false,"chromatic_density":0.375,"complexity":0.572,"dissonance":0.097},{"voice":3,"pitch":59,"start":257.9997,"duration":0.6667,"velocity":90,"measure":97,"beat":4.0,"subject_pos":-1,"motif":"","motif_pos":-1,"best_pos":6,"similarity":0.604,"stretto":false,"stretto_voices":0,"combination":[],"aug_dim":"","rhythm_ratio":1.0,"mirror":false,"chromatic_density":0.375,"complexity":0.572,"dissonance":0.097},{"voice":0,"pitch":77,"start":258.3331,"duration":0.3333,"velocity":90,"measure":97,"beat":4.5,"subject_pos":-1,"motif":"","motif_pos":-1,"best_pos":3,"similarity":0.371,"stretto":false,"stretto_voices":0,"combination":[],"aug_dim":"","rhythm_ratio":1.0,"mirror":false,"chromatic_density":0.375,"complexity":0.572,"dissonance":0.097},{"voice":0,"pitch":76,"start":258.6664,"duration":1.3333,"velocity":90,"measure":98,"beat":1.0,"subject_pos":-1,"motif":"","motif_pos":-1,"best_pos":3,"similarity":0.436,"stretto":false,"stretto_voices":0,"combination":[],"aug_dim":"","rhythm_ratio":1.0,"mirror":false,"chromatic_density":0.333,"complexity":0.557,"dissonance":0.154},{"voice":2,"pitch":67,"start":258.6664,"duration":1.3333,"velocity":90,"measure":98,"beat":1.0,"subject_pos":-1,"motif":"","motif_pos":-1,"best_pos":2,"similarity":0.5,"stretto":false,"stretto_voices":0,"combination":[],"aug_dim":"","rhythm_ratio":1.0,"mirror":false,"chromatic_density":0.333,"complexity":0.557,"dissonance":0.154},{"voice":3,"pitch":60,"start":258.6664,"duration":0.6667,"velocity":90,"measure":98,"beat":1.0,"subject_pos":-1,"motif":"","motif_pos":-1,"best_pos":7,"similarity":0.436,"stretto":false,"stretto_voices":0,"combination":[],"aug_dim":"","rhythm_ratio":1.0,"mirror":false,"chromatic_density":0.333,"complexity":0.557,"dissonance":0.154},{"voice":1,"pitch":71,"start":258.9997,"duration":0.3333,"velocity":90,"measure":98,"beat":1.5,"subject_pos":-1,"motif":"","motif_pos":-1,"best_pos":3,"similarity":0.661,"stretto":false,"stretto_voices":0,"combination":[],"aug_dim":"","rhythm_ratio":1.0,"mirror":false,"chromatic_density":0.333,"complexity":0.557,"dissonance":0.154},{"voice":1,"pitch":72,"start":259.3331,"duration":0.3333,"velocity":90,"measure":98,"beat":2.0,"subject_pos":-1,"motif":"","motif_pos":-1,"best_pos":5,"similarity":0.5,"stretto":false,"stretto_voices":0,"combination":[],"aug_dim":"","rhythm_ratio":1.0,"mirror":false,"chromatic_density":0.333,"complexity":0.557,"dissonance":0.154},{"voice":3,"pitch":52,"start":259.3331,"duration":0.6667,"velocity":90,"measure":98,"beat":2.0,"subject_pos":-1,"motif":"","motif_pos":-1,"best_pos":5,"similarity":0.393,"stretto":false,"stretto_voices":0,"combination":[],"aug_dim":"","rhythm_ratio":1.0,"mirror":false,"chromatic_density":0.333,"complexity":0.557,"dissonance":0.154},{"voice":1,"pitch":72,"start":259.6664,"duration":0.3333,"velocity":90,"measure":98,"beat":2.5,"subject_pos":-1,"motif":"","motif_pos":-1,"best_pos":6,"similarity":0.375,"stretto":false,"stretto_voices":0,"combination":[],"aug_dim":"","rhythm_ratio":1.0,"mirror":false,"chromatic_density":0.333,"complexity":0.557,"dissonance":0.154},{"voice":0,"pitch":75,"start":259.9997,"duration":0.6667,"velocity":90,"measure":98,"beat":3.0,"subject_pos":-1,"motif":"","motif_pos":-1,"best_pos":4,"similarity":0.482,"stretto":false,"stretto_voices":0,"combination":[],"aug_dim":"","rhythm_ratio":1.0,"mirror":false,"chromatic_density":0.333,"complexity":0.557,"dissonance":0.154},{"voice":1,"pitch":72,"start":259.9997,"duration":0.3333,"velocity":90,"measure":98,"beat":3.0,"subject_pos":-1,"motif":"","motif_pos":-1,"best_pos":2,"similarity":0.407,"stretto":false,"stretto_voices":0,"combination":[],"aug_dim":"","rhythm_ratio":1.0,"mirror":false,"chromatic_density":0.333,"complexity":0.557,"dissonance":0.154},{"voice":3,"pitch":54,"start":259.9997,"duration":0.6667,"velocity":90,"measure":98,"beat":3.0,"subject_pos":-1,"motif":"","motif_pos":-1,"best_pos":5,"similarity":0.579,"stretto":false,"stretto_voices":0,"combination":[],"aug_dim":"","rhythm_ratio":1.0,"mirror":false,"chromatic_density":0.333,"complexity":0.557,"dissonance":0.154},{"voice":1,"pitch":69,"start":260.3331,"duration":0.3333,"velocity":90,"measure":98,"beat":3.5,"subject_pos":-1,"motif":"","motif_pos":-1,"best_pos":5,"similarity":0.464,"stretto":false,"stretto_voices":0,"combination":[],"aug_dim":"","rhythm_ratio":1.0,"mirror":false,"chromatic_density":0.333,"complexity":0.557,"dissonance":0.154},{"voice":0,"pitch":74,"start":260.6664,"duration":1.0,"velocity":90,"measure":98,"beat":4.0,"subject_pos":-1,"motif":"","motif_pos":-1,"best_pos":2,"similarity":0.471,"stretto":false,"stretto_voices":0,"combination":[],"aug_dim":"","rhythm_ratio":1.0,"mirror":false,"chromatic_density":0.333,"complexity":0.557,"dissonance":0.154},{"voice":1,"pitch":71,"start":260.6664,"duration":0.3333,"velocity":90,"measure":98,"beat":4.0,"subject_pos":-1,"motif":"","motif_pos":-1,"best_pos":6,"similarity":0.479,"stretto":false,"stretto_voices":0,"combination":[],"aug_dim":"","rhythm_ratio":1.0,"mirror":false,"chromatic_density":0.333,"complexity":0.557,"dissonance":0.154},{"voice":2,"pitch":65,"start":260.6664,"duration":1.0,"velocity":90,"measure":98,"beat":4.0,"subject_pos":-1,"motif":"","motif_pos":-1,"best_pos":3,"similarity":0.554,"stretto":false,"stretto_voices":0,"combination":[],"aug_dim":"","rhythm_ratio":1.0,"mirror":false,"chromatic_density":0.333,"complexity":0.557,"dissonance":0.154},{"voice":3,"pitch":56,"start":260.6664,"duration":0.6667,"velocity":90,"measure":98,"beat":4.0,"subject_pos":-1,"motif":"","motif_pos":-1,"best_pos":6,"similarity":0.643,"stretto":false,"stretto_voices":0,"combination":[],"aug_dim":"","rhythm_ratio":1.0,"mirror":false,"chromatic_density":0.333,"complexity":0.557,"dissonance":0.154},{"voice":1,"pitch":71,"start":260.9997,"duration":0.3333,"velocity":90,"measure":98,"beat":4.5,"subject_pos":-1,"motif":"","motif_pos":-1,"best_pos":4,"similarity":0.393,"stretto":false,"stretto_voices":0,"combination":[],"aug_dim":"","rhythm_ratio":1.0,"mirror":false,"chromatic_density":0.333,"complexity":0.557,"dissonance":0.154},{"voice":1,"pitch":71,"start":261.3331,"duration":0.3333,"velocity":90,"measure":99,"beat":1.0,"subject_pos":-1,"motif":"","motif_pos":-1,"best_pos":2,"similarity":0.411,"stretto":false,"stretto_voices":0,"combination":[],"aug_dim":"","rhythm_ratio":1.0,"mirror":false,"chromatic_density":0.417,"complexity":0.619,"dissonance":0.137},{"voice":3,"pitch":57,"start":261.3331,"duration":3.3333,"velocity":90,"measure":99,"beat":1.0,"subject_pos":-1,"motif":"","motif_pos":-1,"best_pos":7,"similarity":0.464,"stretto":false,"stretto_voices":0,"combination":[],"aug_dim":"","rhythm_ratio":1.0,"mirror":false,"chromatic_density":0.417,"complexity":0.619,"dissonance":0.137},{"voice":0,"pitch":71,"start":261.6664,"duration":0.3333,"velocity":90,"measure":99,"beat":1.5,"subject_pos":-1,"motif":"","motif_pos":-1,"best_pos":4,"similarity":0.464,"stretto":false,"stretto_voices":0,"combination":[],"aug_dim":"","rhythm_ratio":1.0,"mirror":false,"chromatic_density":0.417,"complexity":0.619,"dissonance":0.137},{"voice":1,"pitch":68,"start":261.6664,"duration":0.3333,"velocity":90,"measure":99,"beat":1.5,"subject_pos":-1,"motif":"","motif_pos":-1,"best_pos":4,"similarity":0.461,"stretto":false,"stretto_voices":0,"combination":[],"aug_dim":"","rhythm_ratio":1.0,"mirror":false,"chromatic_density":0.417,"complexity":0.619,"dissonance":0.137},{"voice":2,"pitch":63,"start":261.6664,"duration":0.3333,"velocity":90,"measure":99,"beat":1.5,"subject_pos":-1,"motif":"","motif_pos":-1,"best_pos":4,"similarity":0.589,"stretto":false,"stretto_voices":0,"combination":[],"aug_dim":"","rhythm_ratio":1.0,"mirror":false,"chromatic_density":0.417,"complexity":0.619,"dissonance":0.137},{"voice":0,"pitch":72,"start":261.9997,"duration":0.3333,"velocity":90,"measure":99,"beat":2.0,"subject_pos":-1,"motif":"","motif_pos":-1,"best_pos":5,"similarity":0.411,"stretto":false,"stretto_voices":0,"combination":[],"aug_dim":"","rhythm_ratio":1.0,"mirror":false,"chromatic_density":0.417,"complexity":0.619,"dissonance":0.137},{"voice":1,"pitch":69,"start":261.9997,"duration":0.3333,"velocity":90,"measure":99,"beat":2.0,"subject_pos":-1,"motif":"","motif_pos":-1,"best_pos":5,"similarity":0.471,"stretto":false,"stretto_voices":0,"combination":[],"aug_dim":"","rhythm_ratio":1.0,"mirror":false,"chromatic_density":0.417,"complexity":0.619,"dissonance":0.137},{"voice":2,"pitch":64,"start":261.9997,"duration":0.3333,"velocity":90,"measure":99,"beat":2.0,"subject_pos":-1,"motif":"","motif_pos":-1,"best_pos":5,"similarity":0.536,"stretto":false,"stretto_voices":0,"combination":[],"aug_dim":"","rhythm_ratio":1.0,"mirror":false,"chromatic_density":0.417,"complexity":0.619,"dissonance":0.137},{"voice":0,"pitch":76,"start":262.3331,"duration":0.3333,"velocity":90,"measure":99,"beat":2.5,"subject_pos":-1,"motif":"","motif_pos":-1,"best_pos":6,"similarity":0.232,"stretto":false,"stretto_voices":0,"combination":[],"aug_dim":"","rhythm_ratio":1.0,"mirror":false,"chromatic_density":0.417,"complexity":0.619,"dissonance":0.137},{"voice":1,"pitch":72,"start":262.3331,"duration":0.3333,"velocity":90,"measure":99,"beat":2.5,"subject_pos":-1,"motif":"","motif_pos":-1,"best_pos":6,"similarity":0.304,"stretto":false,"stretto_voices":0,"combination":[],"aug_dim":"","rhythm_ratio":1.0,"mirror":false,"chromatic_density":0.417,"complexity":0.619,"dissonance":0.137},{"voice":2,"pitch":64,"start":262.3331,"duration":0.3333,"velocity":90,"measure":99,"beat":2.5,"subject_pos":-1,"motif":"","motif_pos":-1,"best_pos":4,"similarity":0.443,"stretto":false,"stretto_voices":0,"combination":[],"aug_dim":"","rhythm_ratio":1.0,"mirror":false,"chromatic_density":0.417,"complexity":0.619,"dissonance":0.137},{"voice":0,"pitch":69,"start":262.6664,"duration":0.6667,"velocity":90,"measure":99,"beat":3.0,"subject_pos":-1,"motif":"","motif_pos":-1,"best_pos":5,"similarity":0.307,"stretto":false,"stretto_voices":0,"combination":[],"aug_dim":"","rhythm_ratio":1.0,"mirror":false,"chromatic_density":0.417,"complexity":0.619,"dissonance":0.137},{"voice":1,"pitch":66,"start":262.6664,"duration":0.6667,"velocity":90,"measure":99,"beat":3.0,"subject_pos":-1,"motif":"","motif_pos":-1,"best_pos":3,"similarity":0.429,"stretto":false,"stretto_voices":0,"combination":[],"aug_dim":"","rhythm_ratio":1.0,"mirror":false,"chromatic_density":0.417,"complexity":0.619,"dissonance":0.137},{"voice":2,"pitch":64,"start":262.6664,"duration":0.3333,"velocity":90,"measure":99,"beat":3.0,"subject_pos":-1,"motif":"","motif_pos":-1,"best_pos":2,"similarity":0.429,"stretto":false,"stretto_voices":0,"combination":[],"aug_dim":"","rhythm_ratio":1.0,"mirror":false,"chromatic_density":0.417,"complexity":0.619,"dissonance":0.137},{"voice":2,"pitch":61,"start":262.9997,"duration":0.3333,"velocity":90,"measure":99,"beat":3.5,"subject_pos":-1,"motif":"","motif_pos":-1,"best_pos":3,"similarity":0.482,"stretto":false,"stretto_voices":0,"combination":[],"aug_dim":"","rhythm_ratio":1.0,"mirror":false,"chromatic_density":0.417,"complexity":0.619,"dissonance":0.137},{"voice":0,"pitch":71,"start":263.3331,"duration":1.0,"velocity":90,"measure":99,"beat":4.0,"subject_pos":-1,"motif":"","motif_pos":-1,"best_pos":2,"similarity":0.368,"stretto":false,"stretto_voices":0,"combination":[],"aug_dim":"","rhythm_ratio":1.0,"mirror":false,"chromatic_density":0.417,"complexity":0.619,"dissonance":0.137},{"voice":1,"pitch":65,"start":263.3331,"duration":0.6667,"velocity":90,"measure":99,"beat":4.0,"subject_pos":-1,"motif":"","motif_pos":-1,"best_pos":4,"similarity":0.521,"stretto":false,"stretto_voices":0,"combination":[],"aug_dim":"","rhythm_ratio":1.0,"mirror":false,"chromatic_density":0.417,"complexity":0.619,"dissonance":0.137},{"voice":2,"pitch":62,"start":263.3331,"duration":0.3333,"velocity":90,"measure":99,"beat":4.0,"subject_pos":-1,"motif":"","motif_pos":-1,"best_pos":5,"similarity":0.471,"stretto":false,"stretto_voices":0,"combination":[],"aug_dim":"","rhythm_ratio":1.0,"mirror":false,"chromatic_density":0.417,"complexity":0.619,"dissonance":0.137},{"voice":2,"pitch":62,"start":263.6664,"duration":0.3333,"velocity":90,"measure":99,"beat":4.5,"subject_pos":-1,"motif":"","motif_pos":-1,"best_pos":4,"similarity":0.407,"stretto":false,"stretto_voices":0,"combination":[],"aug_dim":"","rhythm_ratio":1.0,"mirror":false,"chromatic_density":0.417,"complexity":0.619,"dissonance":0.137},{"voice":1,"pitch":64,"start":263.9997,"duration":1.3333,"velocity":90,"measure":100,"beat":1.0,"subject_pos":-1,"motif":"","motif_pos":-1,"best_pos":4,"similarity":0.536,"stretto":false,"stretto_voices":0,"combination":[],"aug_dim":"","rhythm_ratio":1.0,"mirror":false,"chromatic_density":0.357,"complexity":0.629,"dissonance":0.135},{"voice":2,"pitch":62,"start":263.9997,"duration":0.3333,"velocity":90,"measure":100,"beat":1.0,"subject_pos":-1,"motif":"","motif_pos":-1,"best_pos":2,"similarity":0.429,"stretto":false,"stretto_voices":0,"combination":[],"aug_dim":"","rhythm_ratio":1.0,"mirror":false,"chromatic_density":0.357,"complexity":0.629,"dissonance":0.135},{"voice":0,"pitch":68,"start":264.3331,"duration":0.3333,"velocity":90,"measure":100,"beat":1.5,"subject_pos":-1,"motif":"","motif_pos":-1,"best_pos":4,"similarity":0.454,"stretto":false,"stretto_voices":0,"combination":[],"aug_dim":"","rhythm_ratio":1.0,"mirror":false,"chromatic_density":0.357,"complexity":0.629,"dissonance":0.135},{"voice":2,"pitch":59,"start":264.3331,"duration":0.3333,"velocity":90,"measure":100,"beat":1.5,"subject_pos":-1,"motif":"","motif_pos":-1,"best_pos":4,"similarity":0.568,"stretto":false,"stretto_voices":0,"combination":[],"aug_dim":"","rhythm_ratio":1.0,"mirror":false,"chromatic_density":0.357,"complexity":0.629,"dissonance":0.135},{"voice":0,"pitch":69,"start":264.6664,"duration":0.3333,"velocity":90,"measure":100,"beat":2.0,"subject_pos":-1,"motif":"","motif_pos":-1,"best_pos":5,"similarity":0.5,"stretto":false,"stretto_voices":0,"combination":[],"aug_dim":"","rhythm_ratio":1.0,"mirror":false,"chromatic_density":0.357,"complexity":0.629,"dissonance":0.135},{"voice":2,"pitch":60,"start":264.6664,"duration":0.6667,"velocity":90,"measure":100,"beat":2.0,"subject_pos":-1,"motif":"","motif_pos":-1,"best_pos":5,"similarity":0.686,"stretto":false,"stretto_voices":0,"combination":[],"aug_dim":"","rhythm_ratio":1.0,"mirror":false,"chromatic_density":0.357,"complexity":0.629,"dissonance":0.135},{"voice":3,"pitch":57,"start":264.6664,"duration":1.0,"velocity":90,"measure":100,"beat":2.0,"subject_pos":-1,"motif":"","motif_pos":-1,"best_pos":2,"similarity":0.443,"stretto":false,"stretto_voices":0,"combination":[],"aug_dim":"","rhythm_ratio":1.0,"mirror":false,"chromatic_density":0.357,"complexity":0.629,"dissonance":0.135},{"voice":0,"pitch":72,"start":264.9997,"duration":0.3333,"velocity":90,"measure":100,"beat":2.5,"subject_pos":-1,"motif":"bach_transposed","motif_pos":0,"best_pos":0,"similarity":1.0,"stretto":false,"stretto_voices":0,"combination":[],"aug_dim":"","rhythm_ratio":1.0,"mirror":false,"chromatic_density":0.357,"complexity":0.629,"dissonance":0.135},{"voice":0,"pitch":71,"start":265.3331,"duration":0.3333,"velocity":90,"measure":100,"beat":3.0,"subject_pos":-1,"motif":"bach_transposed","motif_pos":1,"best_pos":1,"similarity":1.0,"stretto":false,"stretto_voices":0,"combination":[],"aug_dim":"","rhythm_ratio":1.0,"mirror":false,"chromatic_density":0.357,"complexity":0.629,"dissonance":0.135},{"voice":1,"pitch":66,"start":265.3331,"duration":0.6667,"velocity":90,"measure":100,"beat":3.0,"subject_pos":-1,"motif":"","motif_pos":-1,"best_pos":6,"similarity":0.421,"stretto":false,"stretto_voices":0,"combination":[],"aug_dim":"","rhythm_ratio":1.0,"mirror":false,"chromatic_density":0.357,"complexity":0.629,"dissonance":0.135},{"voice":2,"pitch":62,"start":265.3331,"duration":0.6667,"velocity":90,"measure":100,"beat":3.0,"subject_pos":-1,"motif":"","motif_pos":-1,"best_pos":6,"similarity":0.589,"stretto":false,"stretto_voices":0,"combination":[],"aug_dim":"","rhythm_ratio":1.0,"mirror":false,"chromatic_density":0.357,"complexity":0.629,"dissonance":0.135},{"voice":0,"pitch":74,"start":265.6664,"duration":0.3333,"velocity":90,"measure":100,"beat":3.5,"subject_pos":-1,"motif":"bach_transposed","motif_pos":2,"best_pos":2,"similarity":1.0,"stretto":false,"stretto_voices":0,"combination":[],"aug_dim":"","rhythm_ratio":1.0,"mirror":false,"chromatic_density":0.357,"complexity":0.629,"dissonance":0.135},{"voice":3,"pitch":54,"start":265.6664,"duration":0.3333,"velocity":90,"measure":100,"beat":3.5,"subject_pos":-1,"motif":"","motif_pos":-1,"best_pos":3,"similarity":0.489,"stretto":false,"stretto_voices":0,"combination":[],"aug_dim":"","rhythm_ratio":1.0,"mirror":false,"chromatic_density":0.357,"complexity":0.629,"dissonance":0.135},{"voice":0,"pitch":73,"start":265.9997,"duration":0.3333,"velocity":90,"measure":100,"beat":4.0,"subject_pos":-1,"motif":"bach_transposed","motif_pos":3,"best_pos":3,"similarity":1.0,"stretto":false,"stretto_voices":0,"combination":[],"aug_dim":"","rhythm_ratio":1.0,"mirror":false,"chromatic_density":0.357,"complexity":0.629,"dissonance":0.135},{"voice":1,"pitch":70,"start":265.9997,"duration":0.6667,"velocity":90,"measure":100,"beat":4.0,"subject_pos":-1,"motif":"","motif_pos":-1,"best_pos":1,"similarity":0.3,"stretto":false,"stretto_voices":0,"combination":[],"aug_dim":"","rhythm_ratio":1.0,"mirror":false,"chromatic_density":0.357,"complexity":0.629,"dissonance":0.135},{"voice":2,"pitch":64,"start":265.9997,"duration":0.6667,"velocity":90,"measure":100,"beat":4.0,"subject_pos":-1,"motif":"","motif_pos":-1,"best_pos":6,"similarity":0.375,"stretto":false,"stretto_voices":0,"combination":[],"aug_dim":"","rhythm_ratio":1.0,"mirror":false,"chromatic_density":0.357,"complexity":0.629,"dissonance":0.135},{"voice":3,"pitch":55,"start":265.9997,"duration":0.3333,"velocity":90,"measure":100,"beat":4.0,"subject_pos":-1,"motif":"","motif_pos":-1,"best_pos":5,"similarity":0.471,"stretto":false,"stretto_voices":0,"combination":[],"aug_dim":"","rhythm_ratio":1.0,"mirror":false,"chromatic_density":0.357,"complexity":0.629,"dissonance":0.135},{"voice":0,"pitch":76,"start":266.3331,"duration":0.3333,"velocity":90,"measure":100,"beat":4.5,"subject_pos":-1,"motif":"","motif_pos":-1,"best_pos":1,"similarity":0.411,"stretto":false,"stretto_voices":0,"combination":[],"aug_dim":"","rhythm_ratio":1.0,"mirror":false,"chromatic_density":0.357,"complexity":0.629,"dissonance":0.135},{"voice":3,"pitch":55,"start":266.3331,"duration":0.3333,"velocity":90,"measure":100,"beat":4.5,"subject_pos":-1,"motif":"","motif_pos":-1,"best_pos":4,"similarity":0.407,"stretto":false,"stretto_voices":0,"combination":[],"aug_dim":"","rhythm_ratio":1.0,"mirror":false,"chromatic_density":0.357,"complexity":0.629,"dissonance":0.135},{"voice":0,"pitch":74,"start":266.6664,"duration":0.3333,"velocity":90,"measure":101,"beat":1.0,"subject_pos":-1,"motif":"","motif_pos":-1,"best_pos":3,"similarity":0.579,"stretto":false,"stretto_voices":0,"combination":[],"aug_dim":"","rhythm_ratio":1.0,"mirror":false,"chromatic_density":0.286,"complexity":0.675,"dissonance":0.155},{"voice":1,"pitch":69,"start":266.6664,"duration":0.6667,"velocity":90,"measure":101,"beat":1.0,"subject_pos":-1,"motif":"","motif_pos":-1,"best_pos":4,"similarity":0.3,"stretto":false,"stretto_voices":0,"combination":[],"aug_dim":"","rhythm_ratio":1.0,"mirror":false,"chromatic_density":0.286,"complexity":0.675,"dissonance":0.155},{"voice":2,"pitch":57,"start":266.6664,"duration":1.0,"velocity":90,"measure":101,"beat":1.0,"subject_pos":-1,"motif":"","motif_pos":-1,"best_pos":3,"similarity":0.336,"stretto":false,"stretto_voices":0,"combination":[],"aug_dim":"","rhythm_ratio":1.0,"mirror":false,"chromatic_density":0.286,"complexity":0.675,"dissonance":0.155},{"voice":3,"pitch":55,"start":266.6664,"duration":0.3333,"velocity":90,"measure":101,"beat":1.0,"subject_pos":-1,"motif":"","motif_pos":-1,"best_pos":2,"similarity":0.429,"stretto":false,"stretto_voices":0,"combination":[],"aug_dim":"","rhythm_ratio":1.0,"mirror":false,"chromatic_density":0.286,"complexity":0.675,"dissonance":0.155},{"voice":0,"pitch":73,"start":266.9997,"duration":0.3333,"velocity":90,"measure":101,"beat":1.5,"subject_pos":-1,"motif":"","motif_pos":-1,"best_pos":4,"similarity":0.664,"stretto":false,"stretto_voices":0,"combination":[],"aug_dim":"","rhythm_ratio":1.0,"mirror":false,"chromatic_density":0.286,"complexity":0.675,"dissonance":0.155},{"voice":3,"pitch":52,"start":266.9997,"duration":0.3333,"velocity":90,"measure":101,"beat":1.5,"subject_pos":-1,"motif":"","motif_pos":-1,"best_pos":3,"similarity":0.482,"stretto":false,"stretto_voices":0,"combination":[],"aug_dim":"","rhythm_ratio":1.0,"mirror":false,"chromatic_density":0.286,"complexity":0.675,"dissonance":0.155},{"voice":0,"pitch":74,"start":267.3331,"duration":1.3333,"velocity":90,"measure":101,"beat":2.0,"subject_pos":-1,"motif":"","motif_pos":-1,"best_pos":5,"similarity":0.507,"stretto":false,"stretto_voices":0,"combination":[],"aug_dim":"","rhythm_ratio":1.0,"mirror":false,"chromatic_density":0.286,"complexity":0.675,"dissonance":0.155},{"voice":1,"pitch":62,"start":267.3331,"duration":0.6667,"velocity":90,"measure":101,"beat":2.0,"subject_pos":0,"motif":"subject","motif_pos":0,"best_pos":0,"similarity":1.0,"stretto":false,"stretto_voices":0,"combination":[],"aug_dim":"","rhythm_ratio":1.0,"mirror":false,"chromatic_density":0.286,"complexity":0.675,"dissonance":0.155},{"voice":3,"pitch":53,"start":267.3331,"duration":0.3333,"velocity":90,"measure":101,"beat":2.0,"subject_pos":-1,"motif":"","motif_pos":-1,"best_pos":5,"similarity":0.471,"stretto":false,"stretto_voices":0,"combination":[],"aug_dim":"","rhythm_ratio":1.0,"mirror":false,"chromatic_density":0.286,"complexity":0.675,"dissonance":0.155},{"voice":2,"pitch":57,"start":267.6664,"duration":0.3333,"velocity":90,"measure":101,"beat":2.5,"subject_pos":-1,"motif":"","motif_pos":-1,"best_pos":4,"similarity":0.521,"stretto":false,"stretto_voices":0,"combination":[],"aug_dim":"","rhythm_ratio":1.0,"mirror":false,"chromatic_density":0.286,"complexity":0.675,"dissonance":0.155},{"voice":3,"pitch":53,"start":267.6664,"duration":0.3333,"velocity":90,"measure":101,"beat":2.5,"subject_pos":-1,"motif":"","motif_pos":-1,"best_pos":6,"similarity":0.375,"stretto":false,"stretto_voices":0,"combination":[],"aug_dim":"","rhythm_ratio":1.0,"mirror":false,"chromatic_density":0.286,"complexity":0.675,"dissonance":0.155},{"voice":1,"pitch":69,"start":267.9997,"duration":0.6667,"velocity":90,"measure":101,"beat":3.0,"subject_pos":1,"motif":"subject","motif_pos":1,"best_pos":1,"similarity":1.0,"stretto":false,"stretto_voices":0,"combination":[],"aug_dim":"","rhythm_ratio":1.0,"mirror":false,"chromatic_density":0.286,"complexity":0.675,"dissonance":0.155},{"voice":2,"pitch":59,"start":267.9997,"duration":0.6667,"velocity":90,"measure":101,"beat":3.0,"subject_pos":-1,"motif":"","motif_pos":-1,"best_pos":5,"similarity":0.65,"stretto":false,"stretto_voices":0,"combination":[],"aug_dim":"","rhythm_ratio":1.0,"mirror":false,"chromatic_density":0.286,"complexity":0.675,"dissonance":0.155},{"voice":3,"pitch":53,"start":267.9997,"duration":0.3333,"velocity":90,"measure":101,"beat":3.0,"subject_pos":-1,"motif":"","motif_pos":-1,"best_pos":2,"similarity":0.407,"stretto":false,"stretto_voices":0,"combination":[],"aug_dim":"","rhythm_ratio":1.0,"mirror":false,"chromatic_density":0.286,"complexity":0.675,"dissonance":0.155},{"voice":3,"pitch":50,"start":268.3331,"duration":0.3333,"velocity":90,"measure":101,"beat":3.5,"subject_pos":-1,"motif":"","motif_pos":-1,"best_pos":5,"similarity":0.464,"stretto":false,"stretto_voices":0,"combination":[],"aug_dim":"","rhythm_ratio":1.0,"mirror":false,"chromatic_density":0.286,"complexity":0.675,"dissonance":0.155},{"voice":0,"pitch":79,"start":268.6664,"duration":0.2222,"velocity":90,"measure":101,"beat":4.0,"subject_pos":-1,"motif":"","motif_pos":-1,"best_pos":1,"similarity":0.625,"stretto":false,"stretto_voices":0,"combination":[],"aug_dim":"","rhythm_ratio":1.0,"mirror":false,"chromatic_density":0.286,"complexity":0.675,"dissonance":0.155},{"voice":1,"pitch":67,"start":268.6664,"duration":0.6667,"velocity":90,"measure":101,"beat":4.0,"subject_pos":2,"motif":"subject","motif_pos":2,"best_pos":2,"similarity":1.0,"stretto":false,"stretto_voices":0,"combination":[],"aug_dim":"","rhythm_ratio":1.0,"mirror":false,"chromatic_density":0.286,"complexity":0.675,"dissonance":0.155},{"voice":2,"pitch":61,"start":268.6664,"duration":0.6667,"velocity":90,"measure":101,"beat":4.0,"subject_pos":-1,"motif":"","motif_pos":-1,"best_pos":6,"similarity":0.679,"stretto":false,"stretto_voices":0,"combination":[],"aug_dim":"","rhythm_ratio":1.0,"mirror":false,"chromatic_density":0.286,"complexity":0.675,"dissonance":0.155},{"voice":3,"pitch":52,"start":268.6664,"duration":0.3333,"velocity":90,"measure":101,"beat":4.0,"subject_pos":-1,"motif":"","motif_pos":-1,"best_pos":6,"similarity":0.479,"stretto":false,"stretto_voices":0,"combination":[],"aug_dim":"","rhythm_ratio":1.0,"mirror":false,"chromatic_density":0.286,"complexity":0.675,"dissonance":0.155},{"voice":0,"pitch":77,"start":268.8886,"duration":0.2222,"velocity":90,"measure":101,"beat":4.3333,"subject_pos":-1,"motif":"","motif_pos":-1,"best_pos":3,"similarity":0.579,"stretto":false,"stretto_voices":0,"combination":[],"aug_dim":"","rhythm_ratio":1.0,"mirror":false,"chromatic_density":0.286,"complexity":0.675,"dissonance":0.155},{"voice":3,"pitch":52,"start":268.9997,"duration":0.3333,"velocity":90,"measure":101,"beat":4.5,"subject_pos":-1,"motif":"","motif_pos":-1,"best_pos":4,"similarity":0.393,"stretto":false,"stretto_voices":0,"combination":[],"aug_dim":"","rhythm_ratio":1.0,"mirror":false,"chromatic_density":0.286,"complexity":0.675,"dissonance":0.155},{"voice":0,"pitch":76,"start":269.1108,"duration":0.2222,"velocity":90,"measure":101,"beat":4.6667,"subject_pos":-1,"motif":"","motif_pos":-1,"best_pos":4,"similarity":0.65,"stretto":false,"stretto_voices":0,"combination":[],"aug_dim":"","rhythm_ratio":1.0,"mirror":false,"chromatic_density":0.286,"complexity":0.675,"dissonance":0.155},{"voice":0,"pitch":77,"start":269.3331,"duration":0.6667,"velocity":90,"measure":102,"beat":1.0,"subject_pos":-1,"motif":"","motif_pos":-1,"best_pos":5,"similarity":0.479,"stretto":false,"stretto_voices":0,"combination":[],"aug_dim":"","rhythm_ratio":1.0,"mirror":false,"chromatic_density":0.429,"complexity":0.586,"dissonance":0.167},{"voice":2,"pitch":62,"start":269.3331,"duration":0.6667,"velocity":90,"measure":102,"beat":1.0,"subject_pos":-1,"motif":"","motif_pos":-1,"best_pos":7,"similarity":0.464,"stretto":false,"stretto_voices":0,"combination":[],"aug_dim":"","rhythm_ratio":1.0,"mirror":false,"chromatic_density":0.429,"complexity":0.586,"dissonance":0.167},{"voice":3,"pitch":52,"start":269.3331,"duration":0.3333,"velocity":90,"measure":102,"beat":1.0,"subject_pos":-1,"motif":"","motif_pos":-1,"best_pos":2,"similarity":0.429,"stretto":false,"stretto_voices":0,"combination":[],"aug_dim":"","rhythm_ratio":1.0,"mirror":false,"chromatic_density":0.429,"complexity":0.586,"dissonance":0.167},{"voice":3,"pitch":49,"start":269.6664,"duration":0.3333,"velocity":90,"measure":102,"beat":1.5,"subject_pos":-1,"motif":"","motif_pos":-1,"best_pos":4,"similarity":0.604,"stretto":false,"stretto_voices":0,"combination":[],"aug_dim":"","rhythm_ratio":1.0,"mirror":false,"chromatic_density":0.429,"complexity":0.586,"dissonance":0.167},{"voice":0,"pitch":69,"start":269.9997,"duration":0.3333,"velocity":90,"measure":102,"beat":2.0,"subject_pos":-1,"motif":"","motif_pos":-1,"best_pos":1,"similarity":0.304,"stretto":false,"stretto_voices":0,"combination":[],"aug_dim":"","rhythm_ratio":1.0,"mirror":false,"chromatic_density":0.429,"complexity":0.586,"dissonance":0.167},{"voice":1,"pitch":65,"start":269.9997,"duration":0.6667,"velocity":90,"measure":102,"beat":2.0,"subject_pos":3,"motif":"subject","motif_pos":3,"best_pos":3,"similarity":1.0,"stretto":false,"stretto_voices":0,"combination":[],"aug_dim":"","rhythm_ratio":1.0,"mirror":false,"chromatic_density":0.429,"complexity":0.586,"dissonance":0.167},{"voice":3,"pitch":50,"start":269.9997,"duration":0.3333,"velocity":90,"measure":102,"beat":2.0,"subject_pos":-1,"motif":"","motif_pos":-1,"best_pos":5,"similarity":0.757,"stretto":false,"stretto_voices":0,"combination":[],"aug_dim":"","rhythm_ratio":1.0,"mirror":false,"chromatic_density":0.429,"complexity":0.586,"dissonance":0.167},{"voice":0,"pitch":67,"start":270.3331,"duration":0.3333,"velocity":90,"measure":102,"beat":2.5,"subject_pos":-1,"motif":"","motif_pos":-1,"best_pos":5,"similarity":0.464,"stretto":false,"stretto_voices":0,"combination":[],"aug_dim":"","rhythm_ratio":1.0,"mirror":false,"chromatic_density":0.429,"complexity":0.586,"dissonance":0.167},{"voice":3,"pitch":52,"start":270.3331,"duration":0.3333,"velocity":90,"measure":102,"beat":2.5,"subject_pos":-1,"motif":"","motif_pos":-1,"best_pos":6,"similarity":0.732,"stretto":false,"stretto_voices":0,"combination":[],"aug_dim":"","rhythm_ratio":1.0,"mirror":false,"chromatic_density":0.429,"complexity":0.586,"dissonance":0.167},{"voice":0,"pitch":69,"start":270.6664,"duration":0.6667,"velocity":90,"measure":102,"beat":3.0,"subject_pos":-1,"motif":"","motif_pos":-1,"best_pos":6,"similarity":0.586,"stretto":false,"stretto_voices":0,"combination":[],"aug_dim":"","rhythm_ratio":1.0,"mirror":false,"chromatic_density":0.429,"complexity":0.586,"dissonance":0.167},{"voice":1,"pitch":64,"start":270.6664,"duration":0.6667,"velocity":90,"measure":102,"beat":3.0,"subject_pos":4,"motif":"subject","motif_pos":4,"best_pos":4,"similarity":1.0,"stretto":false,"stretto_voices":0,"combination":[],"aug_dim":"","rhythm_ratio":1.0,"mirror":false,"chromatic_density":0.429,"complexity":0.586,"dissonance":0.167},{"voice":3,"pitch":53,"start":270.6664,"duration":0.3333,"velocity":90,"measure":102,"beat":3.0,"subject_pos":-1,"motif":"","motif_pos":-1,"best_pos":3,"similarity":0.55,"stretto":false,"stretto_voices":0,"combination":[],"aug_dim":"","rhythm_ratio":1.0,"mirror":false,"chromatic_density":0.429,"complexity":0.586,"dissonance":0.167},{"voice":3,"pitch":52,"start":270.9997,"duration":0.3333,"velocity":90,"measure":102,"beat":3.5,"subject_pos":-1,"motif":"","motif_pos":-1,"best_pos":4,"similarity":0.736,"stretto":false,"stretto_voices":0,"combination":[],"aug_dim":"","rhythm_ratio":1.0,"mirror":false,"chromatic_density":0.429,"complexity":0.586,"dissonance":0.167},{"voice":0,"pitch":70,"start":271.3331,"duration":1.0,"velocity":90,"measure":102,"beat":4.0,"subject_pos":-1,"motif":"","motif_pos":-1,"best_pos":7,"similarity":0.436,"stretto":false,"stretto_voices":0,"combination":[],"aug_dim":"","rhythm_ratio":1.0,"mirror":false,"chromatic_density":0.429,"complexity":0.586,"dissonance":0.167},{"voice":1,"pitch":62,"start":271.3331,"duration":0.6667,"velocity":90,"measure":102,"beat":4.0,"subject_pos":5,"motif":"subject","motif_pos":5,"best_pos":5,"similarity":1.0,"stretto":false,"stretto_voices":0,"combination":[],"aug_dim":"","rhythm_ratio":1.0,"mirror":false,"chromatic_density":0.429,"complexity":0.586,"dissonance":0.167},{"voice":2,"pitch":67,"start":271.3331,"duration":0.6667,"velocity":90,"measure":102,"beat":4.0,"subject_pos":-1,"motif":"","motif_pos":-1,"best_pos":1,"similarity":0.464,"stretto":false,"stretto_voices":0,"combination":[],"aug_dim":"","rhythm_ratio":1.0,"mirror":false,"chromatic_density":0.429,"complexity":0.586,"dissonance":0.167},{"voice":3,"pitch":53,"start":271.3331,"duration":0.3333,"velocity":90,"measure":102,"beat":4.0,"subject_pos":-1,"motif":"","motif_pos":-1,"best_pos":5,"similarity":0.721,"stretto":false,"stretto_voices":0,"combination":[],"aug_dim":"","rhythm_ratio":1.0,"mirror":false,"chromatic_density":0.429,"complexity":0.586,"dissonance":0.167},{"voice":3,"pitch":55,"start":271.6664,"duration":0.3333,"velocity":90,"measure":102,"beat":4.5,"subject_pos":-1,"motif":"","motif_pos":-1,"best_pos":6,"similarity":0.5,"stretto":false,"stretto_voices":0,"combination":[],"aug_dim":"","rhythm_ratio":1.0,"mirror":false,"chromatic_density":0.429,"complexity":0.586,"dissonance":0.167},{"voice":2,"pitch":64,"start":271.9997,"duration":0.6667,"velocity":90,"measure":103,"beat":1.0,"subject_pos":-1,"motif":"","motif_pos":-1,"best_pos":2,"similarity":0.357,"stretto":false,"stretto_voices":0,"combination":[],"aug_dim":"","rhythm_ratio":1.0,"mirror":false,"chromatic_density":0.111,"complexity":0.6,"dissonance":0.196},{"voice":3,"pitch":49,"start":271.9997,"duration":0.6667,"velocity":90,"measure":103,"beat":1.0,"subject_pos":-1,"motif":"","motif_pos":-1,"best_pos":2,"similarity":0.514,"stretto":false,"stretto_voices":0,"combination":[],"aug_dim":"","rhythm_ratio":1.0,"mirror":false,"chromatic_density":0.111,"complexity":0.6,"dissonance":0.196},{"voice":0,"pitch":67,"start":272.3331,"duration":0.3333,"velocity":90,"measure":103,"beat":1.5,"subject_pos":-1,"motif":"","motif_pos":-1,"best_pos":3,"similarity":0.425,"stretto":false,"stretto_voices":0,"combination":[],"aug_dim":"","rhythm_ratio":1.0,"mirror":false,"chromatic_density":0.111,"complexity":0.6,"dissonance":0.196},{"voice":0,"pitch":69,"start":272.6664,"duration":0.3333,"velocity":90,"measure":103,"beat":2.0,"subject_pos":-1,"motif":"","motif_pos":-1,"best_pos":6,"similarity":0.461,"stretto":false,"stretto_voices":0,"combination":[],"aug_dim":"","rhythm_ratio":1.0,"mirror":false,"chromatic_density":0.111,"complexity":0.6,"dissonance":0.196},{"voice":1,"pitch":61,"start":272.6664,"duration":0.6667,"velocity":90,"measure":103,"beat":2.0,"subject_pos":6,"motif":"subject","motif_pos":6,"best_pos":6,"similarity":1.0,"stretto":false,"stretto_voices":0,"combination":[],"aug_dim":"","rhythm_ratio":1.0,"mirror":false,"chromatic_density":0.111,"complexity":0.6,"dissonance":0.196},{"voice":2,"pitch":55,"start":272.6664,"duration":0.6667,"velocity":90,"measure":103,"beat":2.0,"subject_pos":-1,"motif":"","motif_pos":-1,"best_pos":1,"similarity":0.375,"stretto":false,"stretto_voices":0,"combination":[],"aug_dim":"","rhythm_ratio":1.0,"mirror":false,"chromatic_density":0.111,"complexity":0.6,"dissonance":0.196},{"voice":0,"pitch":69,"start":272.9997,"duration":0.3333,"velocity":90,"measure":103,"beat":2.5,"subject_pos":-1,"motif":"","motif_pos":-1,"best_pos":4,"similarity":0.357,"stretto":false,"stretto_voices":0,"combination":[],"aug_dim":"","rhythm_ratio":1.0,"mirror":false,"chromatic_density":0.111,"complexity":0.6,"dissonance":0.196},{"voice":0,"pitch":69,"start":273.3331,"duration":0.3333,"velocity":90,"measure":103,"beat":3.0,"subject_pos":-1,"motif":"","motif_pos":-1,"best_pos":4,"similarity":0.343,"stretto":false,"stretto_voices":0,"combination":[],"aug_dim":"","rhythm_ratio":1.0,"mirror":false,"chromatic_density":0.111,"complexity":0.6,"dissonance":0.196},{"voice":1,"pitch":62,"start":273.3331,"duration":0.6667,"velocity":90,"measure":103,"beat":3.0,"subject_pos":7,"motif":"subject","motif_pos":7,"best_pos":7,"similarity":1.0,"stretto":false,"stretto_voices":0,"combination":[],"aug_dim":"","rhythm_ratio":1.0,"mirror":false,"chromatic_density":0.111,"complexity":0.6,"dissonance":0.196},{"voice":2,"pitch":53,"start":273.3331,"duration":0.6667,"velocity":90,"measure":103,"beat":3.0,"subject_pos":-1,"motif":"","motif_pos":-1,"best_pos":2,"similarity":0.464,"stretto":false,"stretto_voices":0,"combination":[],"aug_dim":"","rhythm_ratio":1.0,"mirror":false,"chromatic_density":0.111,"complexity":0.6,"dissonance":0.196},{"voice":0,"pitch":65,"start":273.6664,"duration":0.3333,"velocity":90,"measure":103,"beat":3.5,"subject_pos":-1,"motif":"","motif_pos":-1,"best_pos":5,"similarity":0.436,"stretto":false,"stretto_voices":0,"combination":[],"aug_dim":"","rhythm_ratio":1.0,"mirror":false,"chromatic_density":0.111,"complexity":0.6,"dissonance":0.196},{"voice":0,"pitch":67,"start":273.9997,"duration":0.3333,"velocity":90,"measure":103,"beat":4.0,"subject_pos":-1,"motif":"","motif_pos":-1,"best_pos":6,"similarity":0.464,"stretto":false,"stretto_voices":0,"combination":[],"aug_dim":"","rhythm_ratio":1.0,"mirror":false,"chromatic_density":0.111,"complexity":0.6,"dissonance":0.196},{"voice":1,"pitch":64,"start":273.9997,"duration":0.6667,"velocity":90,"measure":103,"beat":4.0,"subject_pos":8,"motif":"subject","motif_pos":8,"best_pos":0,"similarity":1.0,"stretto":false,"stretto_voices":0,"combination":[],"aug_dim":"","rhythm_ratio":1.0,"mirror":false,"chromatic_density":0.111,"complexity":0.6,"dissonance":0.196},{"voice":2,"pitch":49,"start":273.9997,"duration":0.6667,"velocity":90,"measure":103,"beat":4.0,"subject_pos":-1,"motif":"","motif_pos":-1,"best_pos":4,"similarity":0.393,"stretto":false,"stretto_voices":0,"combination":[],"aug_dim":"","rhythm_ratio":1.0,"mirror":false,"chromatic_density":0.111,"complexity":0.6,"dissonance":0.196},{"voice":3,"pitch":46,"start":273.9997,"duration":1.0,"velocity":90,"measure":103,"beat":4.0,"subject_pos":-1,"motif":"","motif_pos":-1,"best_pos":3,"similarity":0.632,"stretto":false,"stretto_voices":0,"combination":[],"aug_dim":"","rhythm_ratio":1.0,"mirror":false,"chromatic_density":0.111,"complexity":0.6,"dissonance":0.196},{"voice":0,"pitch":67,"start":274.3331,"duration":0.3333,"velocity":90,"measure":103,"beat":4.5,"subject_pos":-1,"motif":"","motif_pos":-1,"best_pos":2,"similarity":0.379,"stretto":false,"stretto_voices":0,"combination":[],"aug_dim":"","rhythm_ratio":1.0,"mirror":false,"chromatic_density":0.111,"complexity":0.6,"dissonance":0.196},{"voice":0,"pitch":65,"start":274.6664,"duration":0.3333,"velocity":90,"measure":104,"beat":1.0,"subject_pos":-1,"motif":"","motif_pos":-1,"best_pos":3,"similarity":0.486,"stretto":false,"stretto_voices":0,"combination":[],"aug_dim":"","rhythm_ratio":1.0,"mirror":false,"chromatic_density":0.214,"complexity":0.631,"dissonance":0.188},{"voice":2,"pitch":50,"start":274.6664,"duration":0.6667,"velocity":90,"measure":104,"beat":1.0,"subject_pos":-1,"motif":"","motif_pos":-1,"best_pos":5,"similarity":0.35,"stretto":false,"stretto_voices":0,"combination":[],"aug_dim":"","rhythm_ratio":1.0,"mirror":false,"chromatic_density":0.214,"complexity":0.631,"dissonance":0.188},{"voice":0,"pitch":64,"start":274.9997,"duration":0.1667,"velocity":90,"measure":104,"beat":1.5,"subject_pos":-1,"motif":"","motif_pos":-1,"best_pos":4,"similarity":0.411,"stretto":false,"stretto_voices":0,"combination":[],"aug_dim":"","rhythm_ratio":1.0,"mirror":false,"chromatic_density":0.214,"complexity":0.631,"dissonance":0.188},{"voice":3,"pitch":44,"start":274.9997,"duration":0.3333,"velocity":90,"measure":104,"beat":1.5,"subject_pos":-1,"motif":"","motif_pos":-1,"best_pos":4,"similarity":0.661,"stretto":false,"stretto_voices":0,"combination":[],"aug_dim":"","rhythm_ratio":1.0,"mirror":false,"chromatic_density":0.214,"complexity":0.631,"dissonance":0.188},{"voice":0,"pitch":62,"start":275.1664,"duration":0.1667,"velocity":90,"measure":104,"beat":1.75,"subject_pos":-1,"motif":"","motif_pos":-1,"best_pos":2,"similarity":0.357,"stretto":false,"stretto_voices":0,"combination":[],"aug_dim":"","rhythm_ratio":1.0,"mirror":false,"chromatic_density":0.214,"complexity":0.631,"dissonance":0.188},{"voice":0,"pitch":74,"start":275.3331,"duration":0.6667,"velocity":90,"measure":104,"beat":2.0,"subject_pos":-1,"motif":"","motif_pos":-1,"best_pos":2,"similarity":0.371,"stretto":false,"stretto_voices":0,"combination":[],"aug_dim":"","rhythm_ratio":1.0,"mirror":false,"chromatic_density":0.214,"complexity":0.631,"dissonance":0.188},{"voice":1,"pitch":65,"start":275.3331,"duration":0.3333,"velocity":90,"measure":104,"beat":2.0,"subject_pos":-1,"motif":"","motif_pos":-1,"best_pos":5,"similarity":0.607,"stretto":false,"stretto_voices":0,"combination":[],"aug_dim":"","rhythm_ratio":1.0,"mirror":false,"chromatic_density":0.214,"complexity":0.631,"dissonance":0.188},{"voice":2,"pitch":57,"start":275.3331,"duration":0.6667,"velocity":90,"measure":104,"beat":2.0,"subject_pos":-1,"motif":"","motif_pos":-1,"best_pos":0,"similarity":0.293,"stretto":false,"stretto_voices":0,"combination":[],"aug_dim":"","rhythm_ratio":1.0,"mirror":false,"chromatic_density":0.214,"complexity":0.631,"dissonance":0.188},{"voice":3,"pitch":45,"start":275.3331,"duration":0.3333,"velocity":90,"measure":104,"beat":2.0,"subject_pos":-1,"motif":"","motif_pos":-1,"best_pos":5,"similarity":0.571,"stretto":false,"stretto_voices":0,"combination":[],"aug_dim":"","rhythm_ratio":1.0,"mirror":false,"chromatic_density":0.214,"complexity":0.631,"dissonance":0.188},{"voice":1,"pitch":67,"start":275.6664,"duration":0.3333,"velocity":90,"measure":104,"beat":2.5,"subject_pos":-1,"motif":"","motif_pos":-1,"best_pos":6,"similarity":0.464,"stretto":false,"stretto_voices":0,"combination":[],"aug_dim":"","rhythm_ratio":1.0,"mirror":false,"chromatic_density":0.214,"complexity":0.631,"dissonance":0.188},{"voice":3,"pitch":45,"start":275.6664,"duration":0.3333,"velocity":90,"measure":104,"beat":2.5,"subject_pos":-1,"motif":"","motif_pos":-1,"best_pos":4,"similarity":0.407,"stretto":false,"stretto_voices":0,"combination":[],"aug_dim":"","rhythm_ratio":1.0,"mirror":false,"chromatic_density":0.214,"complexity":0.631,"dissonance":0.188},{"voice":0,"pitch":71,"start":275.9997,"duration":0.6667,"velocity":90,"measure":104,"beat":3.0,"subject_pos":-1,"motif":"","motif_pos":-1,"best_pos":5,"similarity":0.493,"stretto":false,"stretto_voices":0,"combination":[],"aug_dim":"","rhythm_ratio":1.0,"mirror":false,"chromatic_density":0.214,"complexity":0.631,"dissonance":0.188},{"voice":1,"pitch":65,"start":275.9997,"duration":0.6667,"velocity":90,"measure":104,"beat":3.0,"subject_pos":-1,"motif":"","motif_pos":-1,"best_pos":3,"similarity":0.464,"stretto":false,"stretto_voices":0,"combination":[],"aug_dim":"","rhythm_ratio":1.0,"mirror":false,"chromatic_density":0.214,"complexity":0.631,"dissonance":0.188},{"voice":2,"pitch":62,"start":275.9997,"duration":0.6667,"velocity":90,"measure":104,"beat":3.0,"subject_pos":-1,"motif":"","motif_pos":-1,"best_pos":1,"similarity":0.371,"stretto":false,"stretto_voices":0,"combination":[],"aug_dim":"","rhythm_ratio":1.0,"mirror":false,"chromatic_density":0.214,"complexity":0.631,"dissonance":0.188},{"voice":3,"pitch":45,"start":275.9997,"duration":0.3333,"velocity":90,"measure":104,"beat":3.0,"subject_pos":-1,"motif":"","motif_pos":-1,"best_pos":4,"similarity":0.343,"stretto":false,"stretto_voices":0,"combination":[],"aug_dim":"","rhythm_ratio":1.0,"mirror":false,"chromatic_density":0.214,"complexity":0.631,"dissonance":0.188},{"voice":3,"pitch":41,"start":276.3331,"duration":0.3333,"velocity":90,"measure":104,"beat":3.5,"subject_pos":-1,"motif":"","motif_pos":-1,"best_pos":5,"similarity":0.436,"stretto":false,"stretto_voices":0,"combination":[],"aug_dim":"","rhythm_ratio":1.0,"mirror":false,"chromatic_density":0.214,"complexity":0.631,"dissonance":0.188},{"voice":0,"pitch":73,"start":276.6664,"duration":0.6667,"velocity":90,"measure":104,"beat":4.0,"subject_pos":-1,"motif":"","motif_pos":-1,"best_pos":6,"similarity":0.586,"stretto":false,"stretto_voices":0,"combination":[],"aug_dim":"","rhythm_ratio":1.0,"mirror":false,"chromatic_density":0.214,"complexity":0.631,"dissonance":0.188},{"voice":1,"pitch":64,"start":276.6664,"duration":0.6667,"velocity":90,"measure":104,"beat":4.0,"subject_pos":-1,"motif":"","motif_pos":-1,"best_pos":4,"similarity":0.4,"stretto":false,"stretto_voices":0,"combination":[],"aug_dim":"","rhythm_ratio":1.0,"mirror":false,"chromatic_density":0.214,"complexity":0.631,"dissonance":0.188},{"voice":2,"pitch":69,"start":276.6664,"duration":1.3333,"velocity":90,"measure":104,"beat":4.0,"subject_pos":-1,"motif":"","motif_pos":-1,"best_pos":1,"similarity":0.35,"stretto":false,"stretto_voices":0,"combination":[],"aug_dim":"","rhythm_ratio":1.0,"mirror":false,"chromatic_density":0.214,"complexity":0.631,"dissonance":0.188},{"voice":3,"pitch":43,"start":276.6664,"duration":0.3333,"velocity":90,"measure":104,"beat":4.0,"subject_pos":-1,"motif":"","motif_pos":-1,"best_pos":6,"similarity":0.464,"stretto":false,"stretto_voices":0,"combination":[],"aug_dim":"","rhythm_ratio":1.0,"mirror":false,"chromatic_density":0.214,"complexity":0.631,"dissonance":0.188},{"voice":3,"pitch":43,"start":276.9997,"duration":0.3333,"velocity":90,"measure":104,"beat":4.5,"subject_pos":-1,"motif":"","motif_pos":-1,"best_pos":4,"similarity":0.393,"stretto":false,"stretto_voices":0,"combination":[],"aug_dim":"","rhythm_ratio":1.0,"mirror":false,"chromatic_density":0.214,"complexity":0.631,"dissonance":0.188},{"voice":0,"pitch":74,"start":277.3331,"duration":0.6667,"velocity":90,"measure":105,"beat":1.0,"subject_pos":-1,"motif":"","motif_pos":-1,"best_pos":5,"similarity":0.436,"stretto":false,"stretto_voices":0,"combination":[],"aug_dim":"","rhythm_ratio":1.0,"mirror":false,"chromatic_density":0.4,"complexity":0.573,"dissonance":0.178},{"voice":1,"pitch":62,"start":277.3331,"duration":0.6667,"velocity":90,"measure":105,"beat":1.0,"subject_pos":-1,"motif":"","motif_pos":-1,"best_pos":2,"similarity":0.393,"stretto":false,"stretto_voices":0,"combination":[],"aug_dim":"","rhythm_ratio":1.0,"mirror":false,"chromatic_density":0.4,"complexity":0.573,"dissonance":0.178},{"voice":3,"pitch":43,"start":277.3331,"duration":0.3333,"velocity":90,"measure":105,"beat":1.0,"subject_pos":-1,"motif":"","motif_pos":-1,"best_pos":2,"similarity":0.407,"stretto":false,"stretto_voices":0,"combination":[],"aug_dim":"","rhythm_ratio":1.0,"mirror":false,"chromatic_density":0.4,"complexity":0.573,"dissonance":0.178},{"voice":3,"pitch":40,"start":277.6664,"duration":0.3333,"velocity":90,"measure":105,"beat":1.5,"subject_pos":-1,"motif":"","motif_pos":-1,"best_pos":5,"similarity":0.464,"stretto":false,"stretto_voices":0,"combination":[],"aug_dim":"","rhythm_ratio":1.0,"mirror":false,"chromatic_density":0.4,"complexity":0.573,"dissonance":0.178},{"voice":0,"pitch":72,"start":277.9997,"duration":0.6667,"velocity":90,"measure":105,"beat":2.0,"subject_pos":-1,"motif":"","motif_pos":-1,"best_pos":2,"similarity":0.532,"stretto":false,"stretto_voices":0,"combination":[],"aug_dim":"","rhythm_ratio":1.0,"mirror":false,"chromatic_density":0.4,"complexity":0.573,"dissonance":0.178},{"voice":1,"pitch":69,"start":277.9997,"duration":1.0,"velocity":90,"measure":105,"beat":2.0,"subject_pos":-1,"motif":"","motif_pos":-1,"best_pos":1,"similarity":0.479,"stretto":false,"stretto_voices":0,"combination":[],"aug_dim":"","rhythm_ratio":1.0,"mirror":false,"chromatic_density":0.4,"complexity":0.573,"dissonance":0.178},{"voice":3,"pitch":42,"start":277.9997,"duration":0.3333,"velocity":90,"measure":105,"beat":2.0,"subject_pos":-1,"motif":"","motif_pos":-1,"best_pos":6,"similarity":0.479,"stretto":false,"stretto_voices":0,"combination":[],"aug_dim":"","rhythm_ratio":1.0,"mirror":false,"chromatic_density":0.4,"complexity":0.573,"dissonance":0.178},{"voice":3,"pitch":42,"start":278.3331,"duration":0.3333,"velocity":90,"measure":105,"beat":2.5,"subject_pos":-1,"motif":"","motif_pos":-1,"best_pos":4,"similarity":0.471,"stretto":false,"stretto_voices":0,"combination":[],"aug_dim":"","rhythm_ratio":1.0,"mirror":false,"chromatic_density":0.4,"complexity":0.573,"dissonance":0.178},{"voice":0,"pitch":71,"start":278.6664,"duration":0.6667,"velocity":90,"measure":105,"beat":3.0,"subject_pos":-1,"motif":"","motif_pos":-1,"best_pos":3,"similarity":0.55,"stretto":false,"stretto_voices":0,"combination":[],"aug_dim":"","rhythm_ratio":1.0,"mirror":false,"chromatic_density":0.4,"complexity":0.573,"dissonance":0.178},{"voice":2,"pitch":62,"start":278.6664,"duration":1.3333,"velocity":90,"measure":105,"beat":3.0,"subject_pos":-1,"motif":"","motif_pos":-1,"best_pos":3,"similarity":0.4,"stretto":false,"stretto_voices":0,"combination":[],"aug_dim":"","rhythm_ratio":1.0,"mirror":false,"chromatic_density":0.4,"complexity":0.573,"dissonance":0.178},{"voice":3,"pitch":43,"start":278.6664,"duration":0.6667,"velocity":90,"measure":105,"beat":3.0,"subject_pos":-1,"motif":"","motif_pos":-1,"best_pos":5,"similarity":0.371,"stretto":false,"stretto_voices":0,"combination":[],"aug_dim":"","rhythm_ratio":1.0,"mirror":false,"chromatic_density":0.4,"complexity":0.573,"dissonance":0.178},{"voice":1,"pitch":66,"start":278.9997,"duration":0.3333,"velocity":90,"measure":105,"beat":3.5,"subject_pos":-1,"motif":"","motif_pos":-1,"best_pos":4,"similarity":0.5,"stretto":false,"stretto_voices":0,"combination":[],"aug_dim":"","rhythm_ratio":1.0,"mirror":false,"chromatic_density":0.4,"complexity":0.573,"dissonance":0.178},{"voice":0,"pitch":70,"start":279.3331,"duration":1.0,"velocity":90,"measure":105,"beat":4.0,"subject_pos":-1,"motif":"enigmatic_cell","motif_pos":0,"best_pos":0,"similarity":1.0,"stretto":false,"stretto_voices":0,"combination":[],"aug_dim":"","rhythm_ratio":1.0,"mirror":false,"chromatic_density":0.4,"complexity":0.573,"dissonance":0.178},{"voice":1,"pitch":67,"start":279.3331,"duration":0.3333,"velocity":90,"measure":105,"beat":4.0,"subject_pos":-1,"motif":"","motif_pos":-1,"best_pos":5,"similarity":0.464,"stretto":false,"stretto_voices":0,"combination":[],"aug_dim":"","rhythm_ratio":1.0,"mirror":false,"chromatic_density":0.4,"complexity":0.573,"dissonance":0.178},{"voice":3,"pitch":40,"start":279.3331,"duration":0.6667,"velocity":90,"measure":105,"beat":4.0,"subject_pos":-1,"motif":"","motif_pos":-1,"best_pos":3,"similarity":0.307,"stretto":false,"stretto_voices":0,"combination":[],"aug_dim":"","rhythm_ratio":1.0,"mirror":false,"chromatic_density":0.4,"complexity":0.573,"dissonance":0.178},{"voice":1,"pitch":67,"start":279.6664,"duration":0.3333,"velocity":90,"measure":105,"beat":4.5,"subject_pos":-1,"motif":"","motif_pos":-1,"best_pos":4,"similarity":0.407,"stretto":false,"stretto_voices":0,"combination":[],"aug_dim":"","rhythm_ratio":1.0,"mirror":false,"chromatic_density":0.4,"complexity":0.573,"dissonance":0.178},{"voice":1,"pitch":67,"start":279.9997,"duration":0.3333,"velocity":90,"measure":106,"beat":1.0,"subject_pos":-1,"motif":"","motif_pos":-1,"best_pos":2,"similarity":0.429,"stretto":false,"stretto_voices":0,"combination":[],"aug_dim":"","rhythm_ratio":1.0,"mirror":false,"chromatic_density":0.286,"complexity":0.642,"dissonance":0.129},{"voice":2,"pitch":61,"start":279.9997,"duration":0.6667,"velocity":90,"measure":106,"beat":1.0,"subject_pos":-1,"motif":"","motif_pos":-1,"best_pos":4,"similarity":0.346,"stretto":false,"stretto_voices":0,"combination":[],"aug_dim":"","rhythm_ratio":1.0,"mirror":false,"chromatic_density":0.286,"complexity":0.642,"dissonance":0.129},{"voice":3,"pitch":45,"start":279.9997,"duration":0.6667,"velocity":90,"measure":106,"beat":1.0,"subject_pos":-1,"motif":"","motif_pos":-1,"best_pos":1,"similarity":0.393,"stretto":false,"stretto_voices":0,"combination":[],"aug_dim":"","rhythm_ratio":1.0,"mirror":false,"chromatic_density":0.286,"complexity":0.642,"dissonance":0.129},{"voice":0,"pitch":69,"start":280.3331,"duration":0.3333,"velocity":90,"measure":106,"beat":1.5,"subject_pos":-1,"motif":"enigmatic_cell","motif_pos":1,"best_pos":1,"similarity":1.0,"stretto":false,"stretto_voices":0,"combination":[],"aug_dim":"","rhythm_ratio":1.0,"mirror":false,"chromatic_density":0.286,"complexity":0.642,"dissonance":0.129},{"voice":1,"pitch":64,"start":280.3331,"duration":0.3333,"velocity":90,"measure":106,"beat":1.5,"subject_pos":-1,"motif":"","motif_pos":-1,"best_pos":3,"similarity":0.482,"stretto":false,"stretto_voices":0,"combination":[],"aug_dim":"","rhythm_ratio":1.0,"mirror":false,"chromatic_density":0.286,"complexity":0.642,"dissonance":0.129},{"voice":0,"pitch":74,"start":280.6664,"duration":1.0,"velocity":90,"measure":106,"beat":2.0,"subject_pos":-1,"motif":"enigmatic_cell","motif_pos":2,"best_pos":2,"similarity":1.0,"stretto":false,"stretto_voices":0,"combination":[],"aug_dim":"","rhythm_ratio":1.0,"mirror":false,"chromatic_density":0.286,"complexity":0.642,"dissonance":0.129},{"voice":1,"pitch":65,"start":280.6664,"duration":0.3333,"velocity":90,"measure":106,"beat":2.0,"subject_pos":-1,"motif":"","motif_pos":-1,"best_pos":5,"similarity":0.471,"stretto":false,"stretto_voices":0,"combination":[],"aug_dim":"","rhythm_ratio":1.0,"mirror":false,"chromatic_density":0.286,"complexity":0.642,"dissonance":0.129},{"voice":2,"pitch":65,"start":280.6664,"duration":0.6667,"velocity":90,"measure":106,"beat":2.0,"subject_pos":-1,"motif":"","motif_pos":-1,"best_pos":1,"similarity":0.321,"stretto":false,"stretto_voices":0,"combination":[],"aug_dim":"","rhythm_ratio":1.0,"mirror":false,"chromatic_density":0.286,"complexity":0.642,"dissonance":0.129},{"voice":3,"pitch":57,"start":280.6664,"duration":0.6667,"velocity":90,"measure":106,"beat":2.0,"subject_pos":-1,"motif":"","motif_pos":-1,"best_pos":2,"similarity":0.375,"stretto":false,"stretto_voices":0,"combination":[],"aug_dim":"","rhythm_ratio":1.0,"mirror":false,"chromatic_density":0.286,"complexity":0.642,"dissonance":0.129},{"voice":1,"pitch":65,"start":280.9997,"duration":0.3333,"velocity":90,"measure":106,"beat":2.5,"subject_pos":-1,"motif":"","motif_pos":-1,"best_pos":6,"similarity":0.375,"stretto":false,"stretto_voices":0,"combination":[],"aug_dim":"","rhythm_ratio":1.0,"mirror":false,"chromatic_density":0.286,"complexity":0.642,"dissonance":0.129},{"voice":1,"pitch":65,"start":281.3331,"duration":0.3333,"velocity":90,"measure":106,"beat":3.0,"subject_pos":-1,"motif":"","motif_pos":-1,"best_pos":2,"similarity":0.407,"stretto":false,"stretto_voices":0,"combination":[],"aug_dim":"","rhythm_ratio":1.0,"mirror":false,"chromatic_density":0.286,"complexity":0.642,"dissonance":0.129},{"voice":2,"pitch":59,"start":281.3331,"duration":0.6667,"velocity":90,"measure":106,"beat":3.0,"subject_pos":-1,"motif":"","motif_pos":-1,"best_pos":2,"similarity":0.364,"stretto":false,"stretto_voices":0,"combination":[],"aug_dim":"","rhythm_ratio":1.0,"mirror":false,"chromatic_density":0.286,"complexity":0.642,"dissonance":0.129},{"voice":3,"pitch":56,"start":281.3331,"duration":0.6667,"velocity":90,"measure":106,"beat":3.0,"subject_pos":-1,"motif":"","motif_pos":-1,"best_pos":3,"similarity":0.471,"stretto":false,"stretto_voices":0,"combination":[],"aug_dim":"","rhythm_ratio":1.0,"mirror":false,"chromatic_density":0.286,"complexity":0.642,"dissonance":0.129},{"voice":0,"pitch":71,"start":281.6664,"duration":0.3333,"velocity":90,"measure":106,"beat":3.5,"subject_pos":-1,"motif":"","motif_pos":-1,"best_pos":5,"similarity":0.368,"stretto":false,"stretto_voices":0,"combination":[],"aug_dim":"","rhythm_ratio":1.0,"mirror":false,"chromatic_density":0.286,"complexity":0.642,"dissonance":0.129},{"voice":1,"pitch":62,"start":281.6664,"duration":0.3333,"velocity":90,"measure":106,"beat":3.5,"subject_pos":-1,"motif":"","motif_pos":-1,"best_pos":5,"similarity":0.464,"stretto":false,"stretto_voices":0,"combination":[],"aug_dim":"","rhythm_ratio":1.0,"mirror":false,"chromatic_density":0.286,"complexity":0.642,"dissonance":0.129},{"voice":0,"pitch":73,"start":281.9997,"duration":0.3333,"velocity":90,"measure":106,"beat":4.0,"subject_pos":-1,"motif":"","motif_pos":-1,"best_pos":6,"similarity":0.371,"stretto":false,"stretto_voices":0,"combination":[],"aug_dim":"","rhythm_ratio":1.0,"mirror":false,"chromatic_density":0.286,"complexity":0.642,"dissonance":0.129},{"voice":1,"pitch":64,"start":281.9997,"duration":0.3333,"velocity":90,"measure":106,"beat":4.0,"subject_pos":-1,"motif":"","motif_pos":-1,"best_pos":6,"similarity":0.479,"stretto":false,"stretto_voices":0,"combination":[],"aug_dim":"","rhythm_ratio":1.0,"mirror":false,"chromatic_density":0.286,"complexity":0.642,"dissonance":0.129},{"voice":2,"pitch":58,"start":281.9997,"duration":0.6667,"velocity":90,"measure":106,"beat":4.0,"subject_pos":-1,"motif":"enigmatic_cell","motif_pos":0,"best_pos":0,"similarity":1.0,"stretto":false,"stretto_voices":0,"combination":[],"aug_dim":"","rhythm_ratio":1.0,"mirror":false,"chromatic_density":0.286,"complexity":0.642,"dissonance":0.129},{"voice":3,"pitch":55,"start":281.9997,"duration":0.6667,"velocity":90,"measure":106,"beat":4.0,"subject_pos":-1,"motif":"","motif_pos":-1,"best_pos":3,"similarity":0.471,"stretto":false,"stretto_voices":0,"combination":[],"aug_dim":"","rhythm_ratio":1.0,"mirror":false,"chromatic_density":0.286,"complexity":0.642,"dissonance":0.129},{"voice":0,"pitch":76,"start":282.3331,"duration":0.3333,"velocity":90,"measure":106,"beat":4.5,"subject_pos":-1,"motif":"","motif_pos":-1,"best_pos":0,"similarity":0.286,"stretto":false,"stretto_voices":0,"combination":[],"aug_dim":"","rhythm_ratio":1.0,"mirror":false,"chromatic_density":0.286,"complexity":0.642,"dissonance":0.129},{"voice":1,"pitch":64,"start":282.3331,"duration":0.3333,"velocity":90,"measure":106,"beat":4.5,"subject_pos":-1,"motif":"","motif_pos":-1,"best_pos":4,"similarity":0.393,"stretto":false,"stretto_voices":0,"combination":[],"aug_dim":"","rhythm_ratio":1.0,"mirror":false,"chromatic_density":0.286,"complexity":0.642,"dissonance":0.129},{"voice":0,"pitch":81,"start":282.6664,"duration":0.6667,"velocity":90,"measure":107,"beat":1.0,"subject_pos":-1,"motif":"","motif_pos":-1,"best_pos":1,"similarity":0.321,"stretto":false,"stretto_voices":0,"combination":[],"aug_dim":"","rhythm_ratio":1.0,"mirror":false,"chromatic_density":0.417,"complexity":0.594,"dissonance":0.011},{"voice":1,"pitch":64,"start":282.6664,"duration":0.3333,"velocity":90,"measure":107,"beat":1.0,"subject_pos":-1,"motif":"","motif_pos":-1,"best_pos":2,"similarity":0.4,"stretto":false,"stretto_voices":0,"combination":[],"aug_dim":"","rhythm_ratio":1.0,"mirror":false,"chromatic_density":0.417,"complexity":0.594,"dissonance":0.011},{"voice":2,"pitch":57,"start":282.6664,"duration":0.6667,"velocity":90,"measure":107,"beat":1.0,"subject_pos":-1,"motif":"enigmatic_cell","motif_pos":1,"best_pos":1,"similarity":1.0,"stretto":false,"stretto_voices":0,"combination":[],"aug_dim":"","rhythm_ratio":1.0,"mirror":false,"chromatic_density":0.417,"complexity":0.594,"dissonance":0.011},{"voice":3,"pitch":54,"start":282.6664,"duration":0.6667,"velocity":90,"measure":107,"beat":1.0,"subject_pos":-1,"motif":"","motif_pos":-1,"best_pos":3,"similarity":0.471,"stretto":false,"stretto_voices":0,"combination":[],"aug_dim":"","rhythm_ratio":1.0,"mirror":false,"chromatic_density":0.417,"complexity":0.594,"dissonance":0.011},{"voice":1,"pitch":61,"start":282.9997,"duration":0.3333,"velocity":90,"measure":107,"beat":1.5,"subject_pos":-1,"motif":"","motif_pos":-1,"best_pos":3,"similarity":0.414,"stretto":false,"stretto_voices":0,"combination":[],"aug_dim":"","rhythm_ratio":1.0,"mirror":false,"chromatic_density":0.417,"complexity":0.594,"dissonance":0.011},{"voice":0,"pitch":69,"start":283.3331,"duration":0.3333,"velocity":90,"measure":107,"beat":2.0,"subject_pos":-1,"motif":"","motif_pos":-1,"best_pos":0,"similarity":0.393,"stretto":false,"stretto_voices":0,"combination":[],"aug_dim":"","rhythm_ratio":1.0,"mirror":false,"chromatic_density":0.417,"complexity":0.594,"dissonance":0.011},{"voice":1,"pitch":62,"start":283.3331,"duration":0.6667,"velocity":90,"measure":107,"beat":2.0,"subject_pos":-1,"motif":"","motif_pos":-1,"best_pos":1,"similarity":0.386,"stretto":false,"stretto_voices":0,"combination":[],"aug_dim":"","rhythm_ratio":1.0,"mirror":false,"chromatic_density":0.417,"complexity":0.594,"dissonance":0.011},{"voice":2,"pitch":62,"start":283.3331,"duration":0.6667,"velocity":90,"measure":107,"beat":2.0,"subject_pos":-1,"motif":"enigmatic_cell","motif_pos":2,"best_pos":2,"similarity":1.0,"stretto":false,"stretto_voices":0,"combination":[],"aug_dim":"","rhythm_ratio":1.0,"mirror":false,"chromatic_density":0.417,"complexity":0.594,"dissonance":0.011},{"voice":3,"pitch":53,"start":283.3331,"duration":0.6667,"velocity":90,"measure":107,"beat":2.0,"subject_pos":-1,"motif":"","motif_pos":-1,"best_pos":3,"similarity":0.471,"stretto":false,"stretto_voices":0,"combination":[],"aug_dim":"","rhythm_ratio":1.0,"mirror":false,"chromatic_density":0.417,"complexity":0.594,"dissonance":0.011},{"voice":0,"pitch":74,"start":283.6664,"duration":0.3333,"velocity":90,"measure":107,"beat":2.5,"subject_pos":-1,"motif":"","motif_pos":-1,"best_pos":1,"similarity":0.518,"stretto":false,"stretto_voices":0,"combination":[],"aug_dim":"","rhythm_ratio":1.0,"mirror":false,"chromatic_density":0.417,"complexity":0.594,"dissonance":0.011},{"voice":0,"pitch":74,"start":283.9997,"duration":0.3333,"velocity":90,"measure":107,"beat":3.0,"subject_pos":-1,"motif":"","motif_pos":-1,"best_pos":2,"similarity":0.571,"stretto":false,"stretto_voices":0,"combination":[],"aug_dim":"","rhythm_ratio":1.0,"mirror":false,"chromatic_density":0.417,"complexity":0.594,"dissonance":0.011},{"voice":2,"pitch":55,"start":283.9997,"duration":1.3333,"velocity":90,"measure":107,"beat":3.0,"subject_pos":-1,"motif":"","motif_pos":-1,"best_pos":2,"similarity":0.364,"stretto":false,"stretto_voices":0,"combination":[],"aug_dim":"","rhythm_ratio":1.0,"mirror":false,"chromatic_density":0.417,"complexity":0.594,"dissonance":0.011},{"voice":3,"pitch":52,"start":283.9997,"duration":0.6667,"velocity":90,"measure":107,"beat":3.0,"subject_pos":-1,"motif":"","motif_pos":-1,"best_pos":3,"similarity":0.471,"stretto":false,"stretto_voices":0,"combination":[],"aug_dim":"","rhythm_ratio":1.0,"mirror":false,"chromatic_density":0.417,"complexity":0.594,"dissonance":0.011},{"voice":0,"pitch":71,"start":284.333,"duration":0.3333,"velocity":90,"measure":107,"beat":3.5,"subject_pos":-1,"motif":"","motif_pos":-1,"best_pos":3,"similarity":0.554,"stretto":false,"stretto_voices":0,"combination":[],"aug_dim":"","rhythm_ratio":1.0,"mirror":false,"chromatic_density":0.417,"complexity":0.594,"dissonance":0.011},{"voice":0,"pitch":72,"start":284.6664,"duration":0.3333,"velocity":90,"measure":107,"beat":4.0,"subject_pos":-1,"motif":"","motif_pos":-1,"best_pos":5,"similarity":0.471,"stretto":false,"stretto_voices":0,"combination":[],"aug_dim":"","rhythm_ratio":1.0,"mirror":false,"chromatic_density":0.417,"complexity":0.594,"dissonance":0.011},{"voice":1,"pitch":60,"start":284.6664,"duration":0.6667,"velocity":90,"measure":107,"beat":4.0,"subject_pos":-1,"motif":"","motif_pos":-1,"best_pos":2,"similarity":0.461,"stretto":false,"stretto_voices":0,"combination":[],"aug_dim":"","rhythm_ratio":1.0,"mirror":false,"chromatic_density":0.417,"complexity":0.594,"dissonance":0.011},{"voice":3,"pitch":51,"start":284.6664,"duration":0.6667,"velocity":90,"measure":107,"beat":4.0,"subject_pos":-1,"motif":"","motif_pos":-1,"best_pos":3,"similarity":0.471,"stretto":false,"stretto_voices":0,"combination":[],"aug_dim":"","rhythm_ratio":1.0,"mirror":false,"chromatic_density":0.417,"complexity":0.594,"dissonance":0.011},{"voice":0,"pitch":72,"start":284.9997,"duration":0.3333,"velocity":90,"measure":107,"beat":4.5,"subject_pos":-1,"motif":"","motif_pos":-1,"best_pos":4,"similarity":0.407,"stretto":false,"stretto_voices":0,"combination":[],"aug_dim":"","rhythm_ratio":1.0,"mirror":false,"chromatic_density":0.417,"complexity":0.594,"dissonance":0.011},{"voice":0,"pitch":72,"start":285.333,"duration":0.3333,"velocity":90,"measure":108,"beat":1.0,"subject_pos":-1,"motif":"","motif_pos":-1,"best_pos":2,"similarity":0.429,"stretto":false,"stretto_voices":0,"combination":[],"aug_dim":"","rhythm_ratio":1.0,"mirror":false,"chromatic_density":0.4,"complexity":0.616,"dissonance":0.185},{"voice":1,"pitch":65,"start":285.333,"duration":0.6667,"velocity":90,"measure":108,"beat":1.0,"subject_pos":-1,"motif":"","motif_pos":-1,"best_pos":3,"similarity":0.471,"stretto":false,"stretto_voices":0,"combination":[],"aug_dim":"","rhythm_ratio":1.0,"mirror":false,"chromatic_density":0.4,"complexity":0.616,"dissonance":0.185},{"voice":2,"pitch":53,"start":285.333,"duration":0.6667,"velocity":90,"measure":108,"beat":1.0,"subject_pos":-1,"motif":"","motif_pos":-1,"best_pos":4,"similarity":0.45,"stretto":false,"stretto_voices":0,"combination":[],"aug_dim":"","rhythm_ratio":1.0,"mirror":false,"chromatic_density":0.4,"complexity":0.616,"dissonance":0.185},{"voice":3,"pitch":50,"start":285.333,"duration":0.6667,"velocity":90,"measure":108,"beat":1.0,"subject_pos":-1,"motif":"","motif_pos":-1,"best_pos":3,"similarity":0.471,"stretto":false,"stretto_voices":0,"combination":[],"aug_dim":"","rhythm_ratio":1.0,"mirror":false,"chromatic_density":0.4,"complexity":0.616,"dissonance":0.185},{"voice":0,"pitch":69,"start":285.6664,"duration":0.3333,"velocity":90,"measure":108,"beat":1.5,"subject_pos":-1,"motif":"","motif_pos":-1,"best_pos":3,"similarity":0.536,"stretto":false,"stretto_voices":0,"combination":[],"aug_dim":"","rhythm_ratio":1.0,"mirror":false,"chromatic_density":0.4,"complexity":0.616,"dissonance":0.185},{"voice":0,"pitch":70,"start":285.9997,"duration":0.3333,"velocity":90,"measure":108,"beat":2.0,"subject_pos":-1,"motif":"","motif_pos":-1,"best_pos":4,"similarity":0.554,"stretto":false,"stretto_voices":0,"combination":[],"aug_dim":"","rhythm_ratio":1.0,"mirror":false,"chromatic_density":0.4,"complexity":0.616,"dissonance":0.185},{"voice":1,"pitch":64,"start":285.9997,"duration":0.6667,"velocity":90,"measure":108,"beat":2.0,"subject_pos":-1,"motif":"","motif_pos":-1,"best_pos":4,"similarity":0.436,"stretto":false,"stretto_voices":0,"combination":[],"aug_dim":"","rhythm_ratio":1.0,"mirror":false,"chromatic_density":0.4,"complexity":0.616,"dissonance":0.185},{"voice":2,"pitch":55,"start":285.9997,"duration":0.6667,"velocity":90,"measure":108,"beat":2.0,"subject_pos":-1,"motif":"","motif_pos":-1,"best_pos":5,"similarity":0.521,"stretto":false,"stretto_voices":0,"combination":[],"aug_dim":"","rhythm_ratio":1.0,"mirror":false,"chromatic_density":0.4,"complexity":0.616,"dissonance":0.185},{"voice":3,"pitch":49,"start":285.9997,"duration":0.6667,"velocity":90,"measure":108,"beat":2.0,"subject_pos":-1,"motif":"enigmatic_cell","motif_pos":0,"best_pos":0,"similarity":1.0,"stretto":false,"stretto_voices":0,"combination":[],"aug_dim":"","rhythm_ratio":1.0,"mirror":false,"chromatic_density":0.4,"complexity":0.616,"dissonance":0.185},{"voice":0,"pitch":70,"start":286.333,"duration":0.3333,"velocity":90,"measure":108,"beat":2.5,"subject_pos":-1,"motif":"","motif_pos":-1,"best_pos":5,"similarity":0.607,"stretto":false,"stretto_voices":0,"combination":[],"aug_dim":"","rhythm_ratio":1.0,"mirror":false,"chromatic_density":0.4,"complexity":0.616,"dissonance":0.185},{"voice":0,"pitch":72,"start":286.6664,"duration":0.3333,"velocity":90,"measure":108,"beat":3.0,"subject_pos":-1,"motif":"","motif_pos":-1,"best_pos":5,"similarity":0.65,"stretto":false,"stretto_voices":0,"combination":[],"aug_dim":"","rhythm_ratio":1.0,"mirror":false,"chromatic_density":0.4,"complexity":0.616,"dissonance":0.185},{"voice":1,"pitch":63,"start":286.6664,"duration":0.6667,"velocity":90,"measure":108,"beat":3.0,"subject_pos":-1,"motif":"","motif_pos":-1,"best_pos":4,"similarity":0.393,"stretto":false,"stretto_voices":0,"combination":[],"aug_dim":"","rhythm_ratio":1.0,"mirror":false,"chromatic_density":0.4,"complexity":0.616,"dissonance":0.185},{"voice":2,"pitch":57,"start":286.6664,"duration":0.3333,"velocity":90,"measure":108,"beat":3.0,"subject_pos":-1,"motif":"","motif_pos":-1,"best_pos":6,"similarity":0.421,"stretto":false,"stretto_voices":0,"combination":[],"aug_dim":"","rhythm_ratio":1.0,"mirror":false,"chromatic_density":0.4,"complexity":0.616,"dissonance":0.185},{"voice":3,"pitch":48,"start":286.6664,"duration":0.6667,"velocity":90,"measure":108,"beat":3.0,"subject_pos":-1,"motif":"enigmatic_cell","motif_pos":1,"best_pos":1,"similarity":1.0,"stretto":false,"stretto_voices":0,"combination":[],"aug_dim":"","rhythm_ratio":1.0,"mirror":false,"chromatic_density":0.4,"complexity":0.616,"dissonance":0.185},{"voice":0,"pitch":74,"start":286.9997,"duration":0.3333,"velocity":90,"measure":108,"beat":3.5,"subject_pos":-1,"motif":"","motif_pos":-1,"best_pos":6,"similarity":0.679,"stretto":false,"stretto_voices":0,"combination":[],"aug_dim":"","rhythm_ratio":1.0,"mirror":false,"chromatic_density":0.4,"complexity":0.616,"dissonance":0.185},{"voice":2,"pitch":55,"start":286.9997,"duration":0.3333,"velocity":90,"measure":108,"beat":3.5,"subject_pos":-1,"motif":"","motif_pos":-1,"best_pos":5,"similarity":0.329,"stretto":false,"stretto_voices":0,"combination":[],"aug_dim":"","rhythm_ratio":1.0,"mirror":false,"chromatic_density":0.4,"complexity":0.616,"dissonance":0.185},{"voice":0,"pitch":75,"start":287.333,"duration":1.3333,"velocity":90,"measure":108,"beat":4.0,"subject_pos":-1,"motif":"","motif_pos":-1,"best_pos":7,"similarity":0.464,"stretto":false,"stretto_voices":0,"combination":[],"aug_dim":"","rhythm_ratio":1.0,"mirror":false,"chromatic_density":0.4,"complexity":0.616,"dissonance":0.185},{"voice":2,"pitch":57,"start":287.333,"duration":0.6667,"velocity":90,"measure":108,"beat":4.0,"subject_pos":-1,"motif":"","motif_pos":-1,"best_pos":6,"similarity":0.307,"stretto":false,"stretto_voices":0,"combination":[],"aug_dim":"","rhythm_ratio":1.0,"mirror":false,"chromatic_density":0.4,"complexity":0.616,"dissonance":0.185},{"voice":3,"pitch":53,"start":287.333,"duration":0.6667,"velocity":90,"measure":108,"beat":4.0,"subject_pos":-1,"motif":"enigmatic_cell","motif_pos":2,"best_pos":2,"similarity":1.0,"stretto":false,"stretto_voices":0,"combination":[],"aug_dim":"","rhythm_ratio":1.0,"mirror":false,"chromatic_density":0.4,"complexity":0.616,"dissonance":0.185},{"voice":1,"pitch":72,"start":287.6664,"duration":0.6667,"velocity":90,"measure":108,"beat":4.5,"subject_pos":-1,"motif":"","motif_pos":-1,"best_pos":2,"similarity":0.357,"stretto":false,"stretto_voices":0,"combination":[],"aug_dim":"","rhythm_ratio":1.0,"mirror":false,"chromatic_density":0.4,"complexity":0.616,"dissonance":0.185},{"voice":2,"pitch":50,"start":287.9997,"duration":0.6667,"velocity":90,"measure":109,"beat":1.0,"subject_pos":-1,"motif":"","motif_pos":-1,"best_pos":5,"similarity":0.193,"stretto":false,"stretto_voices":0,"combination":[],"aug_dim":"","rhythm_ratio":1.0,"mirror":false,"chromatic_density":0.333,"complexity":0.582,"dissonance":0.058},{"voice":3,"pitch":46,"start":287.9997,"duration":1.3333,"velocity":90,"measure":109,"beat":1.0,"subject_pos":-1,"motif":"","motif_pos":-1,"best_pos":2,"similarity":0.564,"stretto":false,"stretto_voices":0,"combination":[],"aug_dim":"","rhythm_ratio":1.0,"mirror":false,"chromatic_density":0.333,"complexity":0.582,"dissonance":0.058},{"voice":1,"pitch":69,"start":288.333,"duration":0.3333,"velocity":90,"measure":109,"beat":1.5,"subject_pos":-1,"motif":"","motif_pos":-1,"best_pos":4,"similarity":0.464,"stretto":false,"stretto_voices":0,"combination":[],"aug_dim":"","rhythm_ratio":1.0,"mirror":false,"chromatic_density":0.333,"complexity":0.582,"dissonance":0.058},{"voice":0,"pitch":74,"start":288.6664,"duration":0.6667,"velocity":90,"measure":109,"beat":2.0,"subject_pos":-1,"motif":"","motif_pos":-1,"best_pos":5,"similarity":0.536,"stretto":false,"stretto_voices":0,"combination":[],"aug_dim":"","rhythm_ratio":1.0,"mirror":false,"chromatic_density":0.333,"complexity":0.582,"dissonance":0.058},{"voice":1,"pitch":70,"start":288.6664,"duration":0.3333,"velocity":90,"measure":109,"beat":2.0,"subject_pos":-1,"motif":"","motif_pos":-1,"best_pos":5,"similarity":0.464,"stretto":false,"stretto_voices":0,"combination":[],"aug_dim":"","rhythm_ratio":1.0,"mirror":false,"chromatic_density":0.333,"complexity":0.582,"dissonance":0.058},{"voice":2,"pitch":53,"start":288.6664,"duration":0.6667,"velocity":90,"measure":109,"beat":2.0,"subject_pos":-1,"motif":"","motif_pos":-1,"best_pos":0,"similarity":0.336,"stretto":false,"stretto_voices":0,"combination":[],"aug_dim":"","rhythm_ratio":1.0,"mirror":false,"chromatic_density":0.333,"complexity":0.582,"dissonance":0.058},{"voice":1,"pitch":70,"start":288.9997,"duration":0.3333,"velocity":90,"measure":109,"beat":2.5,"subject_pos":-1,"motif":"","motif_pos":-1,"best_pos":4,"similarity":0.407,"stretto":false,"stretto_voices":0,"combination":[],"aug_dim":"","rhythm_ratio":1.0,"mirror":false,"chromatic_density":0.333,"complexity":0.582,"dissonance":0.058},{"voice":0,"pitch":76,"start":289.333,"duration":0.6667,"velocity":90,"measure":109,"beat":3.0,"subject_pos":-1,"motif":"","motif_pos":-1,"best_pos":6,"similarity":0.625,"stretto":false,"stretto_voices":0,"combination":[],"aug_dim":"","rhythm_ratio":1.0,"mirror":false,"chromatic_density":0.333,"complexity":0.582,"dissonance":0.058},{"voice":1,"pitch":70,"start":289.333,"duration":0.3333,"velocity":90,"measure":109,"beat":3.0,"subject_pos":-1,"motif":"","motif_pos":-1,"best_pos":2,"similarity":0.429,"stretto":false,"stretto_voices":0,"combination":[],"aug_dim":"","rhythm_ratio":1.0,"mirror":false,"chromatic_density":0.333,"complexity":0.582,"dissonance":0.058},{"voice":2,"pitch":60,"start":289.333,"duration":1.0,"velocity":90,"measure":109,"beat":3.0,"subject_pos":-1,"motif":"","motif_pos":-1,"best_pos":1,"similarity":0.457,"stretto":false,"stretto_voices":0,"combination":[],"aug_dim":"","rhythm_ratio":1.0,"mirror":false,"chromatic_density":0.333,"complexity":0.582,"dissonance":0.058},{"voice":1,"pitch":67,"start":289.6664,"duration":0.3333,"velocity":90,"measure":109,"beat":3.5,"subject_pos":-1,"motif":"","motif_pos":-1,"best_pos":3,"similarity":0.471,"stretto":false,"stretto_voices":0,"combination":[],"aug_dim":"","rhythm_ratio":1.0,"mirror":false,"chromatic_density":0.333,"complexity":0.582,"dissonance":0.058},{"voice":0,"pitch":77,"start":289.9997,"duration":1.0,"velocity":90,"measure":109,"beat":4.0,"subject_pos":-1,"motif":"","motif_pos":-1,"best_pos":5,"similarity":0.461,"stretto":false,"stretto_voices":0,"combination":[],"aug_dim":"","rhythm_ratio":1.0,"mirror":false,"chromatic_density":0.333,"complexity":0.582,"dissonance":0.058},{"voice":1,"pitch":68,"start":289.9997,"duration":0.3333,"velocity":90,"measure":109,"beat":4.0,"subject_pos":-1,"motif":"","motif_pos":-1,"best_pos":5,"similarity":0.436,"stretto":false,"stretto_voices":0,"combination":[],"aug_dim":"","rhythm_ratio":1.0,"mirror":false,"chromatic_density":0.333,"complexity":0.582,"dissonance":0.058},{"voice":1,"pitch":68,"start":290.333,"duration":0.3333,"velocity":90,"measure":109,"beat":4.5,"subject_pos":-1,"motif":"","motif_pos":-1,"best_pos":4,"similarity":0.414,"stretto":false,"stretto_voices":0,"combination":[],"aug_dim":"","rhythm_ratio":1.0,"mirror":false,"chromatic_density":0.333,"complexity":0.582,"dissonance":0.058},{"voice":2,"pitch":62,"start":290.333,"duration":0.1667,"velocity":90,"measure":109,"beat":4.5,"subject_pos":-1,"motif":"","motif_pos":-1,"best_pos":2,"similarity":0.529,"stretto":false,"stretto_voices":0,"combination":[],"aug_dim":"","rhythm_ratio":1.0,"mirror":false,"chromatic_density":0.333,"complexity":0.582,"dissonance":0.058},{"voice":2,"pitch":60,"start":290.4997,"duration":0.1667,"velocity":90,"measure":109,"beat":4.75,"subject_pos":-1,"motif":"","motif_pos":-1,"best_pos":3,"similarity":0.657,"stretto":false,"stretto_voices":0,"combination":[],"aug_dim":"","rhythm_ratio":1.0,"mirror":false,"chromatic_density":0.333,"complexity":0.582,"dissonance":0.058},{"voice":1,"pitch":67,"start":290.6664,"duration":1.0,"velocity":90,"measure":110,"beat":1.0,"subject_pos":-1,"motif":"","motif_pos":-1,"best_pos":4,"similarity":0.521,"stretto":false,"stretto_voices":0,"combination":[],"aug_dim":"","rhythm_ratio":1.0,"mirror":false,"chromatic_density":0.444,"complexity":0.479,"dissonance":0.109},{"voice":2,"pitch":59,"start":290.6664,"duration":0.6667,"velocity":90,"measure":110,"beat":1.0,"subject_pos":-1,"motif":"","motif_pos":-1,"best_pos":4,"similarity":0.721,"stretto":false,"stretto_voices":0,"combination":[],"aug_dim":"","rhythm_ratio":1.0,"mirror":false,"chromatic_density":0.444,"complexity":0.479,"dissonance":0.109},{"voice":0,"pitch":74,"start":290.9997,"duration":0.3333,"velocity":90,"measure":110,"beat":1.5,"subject_pos":-1,"motif":"","motif_pos":-1,"best_pos":3,"similarity":0.468,"stretto":false,"stretto_voices":0,"combination":[],"aug_dim":"","rhythm_ratio":1.0,"mirror":false,"chromatic_density":0.444,"complexity":0.479,"dissonance":0.109},{"voice":0,"pitch":75,"start":291.333,"duration":0.3333,"velocity":90,"measure":110,"beat":2.0,"subject_pos":-1,"motif":"","motif_pos":-1,"best_pos":5,"similarity":0.471,"stretto":false,"stretto_voices":0,"combination":[],"aug_dim":"","rhythm_ratio":1.0,"mirror":false,"chromatic_density":0.444,"complexity":0.479,"dissonance":0.109},{"voice":2,"pitch":60,"start":291.333,"duration":1.0,"velocity":90,"measure":110,"beat":2.0,"subject_pos":-1,"motif":"","motif_pos":-1,"best_pos":5,"similarity":0.607,"stretto":false,"stretto_voices":0,"combination":[],"aug_dim":"","rhythm_ratio":1.0,"mirror":false,"chromatic_density":0.444,"complexity":0.479,"dissonance":0.109},{"voice":0,"pitch":75,"start":291.6664,"duration":0.3333,"velocity":90,"measure":110,"beat":2.5,"subject_pos":-1,"motif":"","motif_pos":-1,"best_pos":6,"similarity":0.375,"stretto":false,"stretto_voices":0,"combination":[],"aug_dim":"","rhythm_ratio":1.0,"mirror":false,"chromatic_density":0.444,"complexity":0.479,"dissonance":0.109},{"voice":1,"pitch":69,"start":291.6664,"duration":0.3333,"velocity":90,"measure":110,"beat":2.5,"subject_pos":-1,"motif":"","motif_pos":-1,"best_pos":5,"similarity":0.436,"stretto":false,"stretto_voices":0,"combination":[],"aug_dim":"","rhythm_ratio":1.0,"mirror":false,"chromatic_density":0.444,"complexity":0.479,"dissonance":0.109},{"voice":0,"pitch":75,"start":291.9997,"duration":0.3333,"velocity":90,"measure":110,"beat":3.0,"subject_pos":-1,"motif":"","motif_pos":-1,"best_pos":2,"similarity":0.407,"stretto":false,"stretto_voices":0,"combination":[],"aug_dim":"","rhythm_ratio":1.0,"mirror":false,"chromatic_density":0.444,"complexity":0.479,"dissonance":0.109},{"voice":1,"pitch":66,"start":291.9997,"duration":1.0,"velocity":90,"measure":110,"beat":3.0,"subject_pos":-1,"motif":"enigmatic_cell","motif_pos":0,"best_pos":0,"similarity":1.0,"stretto":false,"stretto_voices":0,"combination":[],"aug_dim":"","rhythm_ratio":1.0,"mirror":false,"chromatic_density":0.444,"complexity":0.479,"dissonance":0.109},{"voice":0,"pitch":72,"start":292.333,"duration":0.3333,"velocity":90,"measure":110,"beat":3.5,"subject_pos":-1,"motif":"","motif_pos":-1,"best_pos":3,"similarity":0.493,"stretto":false,"stretto_voices":0,"combination":[],"aug_dim":"","rhythm_ratio":1.0,"mirror":false,"chromatic_density":0.444,"complexity":0.479,"dissonance":0.109},{"voice":2,"pitch":57,"start":292.333,"duration":0.3333,"velocity":90,"measure":110,"beat":3.5,"subject_pos":-1,"motif":"","motif_pos":-1,"best_pos":6,"similarity":0.5,"stretto":false,"stretto_voices":0,"combination":[],"aug_dim":"","rhythm_ratio":1.0,"mirror":false,"chromatic_density":0.444,"complexity":0.479,"dissonance":0.109},{"voice":0,"pitch":74,"start":292.6664,"duration":0.3333,"velocity":90,"measure":110,"beat":4.0,"subject_pos":-1,"motif":"","motif_pos":-1,"best_pos":4,"similarity":0.511,"stretto":false,"stretto_voices":0,"combination":[],"aug_dim":"","rhythm_ratio":1.0,"mirror":false,"chromatic_density":0.444,"complexity":0.479,"dissonance":0.109},{"voice":2,"pitch":58,"start":292.6664,"duration":0.3333,"velocity":90,"measure":110,"beat":4.0,"subject_pos":-1,"motif":"","motif_pos":-1,"best_pos":5,"similarity":0.471,"stretto":false,"stretto_voices":0,"combination":[],"aug_dim":"","rhythm_ratio":1.0,"mirror":false,"chromatic_density":0.444,"complexity":0.479,"dissonance":0.109},{"voice":0,"pitch":74,"start":292.9997,"duration":0.3333,"velocity":90,"measure":110,"beat":4.5,"subject_pos":-1,"motif":"","motif_pos":-1,"best_pos":5,"similarity":0.586,"stretto":false,"stretto_voices":0,"combination":[],"aug_dim":"","rhythm_ratio":1.0,"mirror":false,"chromatic_density":0.444,"complexity":0.479,"dissonance":0.109},{"voice":1,"pitch":67,"start":292.9997,"duration":0.3333,"velocity":90,"measure":110,"beat":4.5,"subject_pos":-1,"motif":"enigmatic_cell","motif_pos":1,"best_pos":1,"similarity":1.0,"stretto":false,"stretto_voices":0,"combination":[],"aug_dim":"","rhythm_ratio":1.0,"mirror":false,"chromatic_density":0.444,"complexity":0.479,"dissonance":0.109},{"voice":2,"pitch":58,"start":292.9997,"duration":0.3333,"velocity":90,"measure":110,"beat":4.5,"subject_pos":-1,"motif":"","motif_pos":-1,"best_pos":6,"similarity":0.375,"stretto":false,"stretto_voices":0,"combination":[],"aug_dim":"","rhythm_ratio":1.0,"mirror":false,"chromatic_density":0.444,"complexity":0.479,"dissonance":0.109},{"voice":0,"pitch":76,"start":293.333,"duration":0.6667,"velocity":90,"measure":111,"beat":1.0,"subject_pos":-1,"motif":"","motif_pos":-1,"best_pos":5,"similarity":0.643,"stretto":false,"stretto_voices":0,"combination":[],"aug_dim":"","rhythm_ratio":1.0,"mirror":false,"chromatic_density":0.2,"complexity":0.548,"dissonance":0.13},{"voice":1,"pitch":60,"start":293.333,"duration":0.6667,"velocity":90,"measure":111,"beat":1.0,"subject_pos":-1,"motif":"enigmatic_cell","motif_pos":2,"best_pos":2,"similarity":1.0,"stretto":false,"stretto_voices":0,"combination":[],"aug_dim":"","rhythm_ratio":1.0,"mirror":false,"chromatic_density":0.2,"complexity":0.548,"dissonance":0.13},{"voice":2,"pitch":58,"start":293.333,"duration":0.3333,"velocity":90,"measure":111,"beat":1.0,"subject_pos":-1,"motif":"","motif_pos":-1,"best_pos":2,"similarity":0.407,"stretto":false,"stretto_voices":0,"combination":[],"aug_dim":"","rhythm_ratio":1.0,"mirror":false,"chromatic_density":0.2,"complexity":0.548,"dissonance":0.13},{"voice":2,"pitch":55,"start":293.6664,"duration":0.3333,"velocity":90,"measure":111,"beat":1.5,"subject_pos":-1,"motif":"","motif_pos":-1,"best_pos":5,"similarity":0.464,"stretto":false,"stretto_voices":0,"combination":[],"aug_dim":"","rhythm_ratio":1.0,"mirror":false,"chromatic_density":0.2,"complexity":0.548,"dissonance":0.13},{"voice":0,"pitch":78,"start":293.9997,"duration":0.6667,"velocity":90,"measure":111,"beat":2.0,"subject_pos":-1,"motif":"","motif_pos":-1,"best_pos":6,"similarity":0.679,"stretto":false,"stretto_voices":0,"combination":[],"aug_dim":"","rhythm_ratio":1.0,"mirror":false,"chromatic_density":0.2,"complexity":0.548,"dissonance":0.13},{"voice":1,"pitch":72,"start":293.9997,"duration":1.0,"velocity":90,"measure":111,"beat":2.0,"subject_pos":-1,"motif":"","motif_pos":-1,"best_pos":2,"similarity":0.357,"stretto":false,"stretto_voices":0,"combination":[],"aug_dim":"","rhythm_ratio":1.0,"mirror":false,"chromatic_density":0.2,"complexity":0.548,"dissonance":0.13},{"voice":2,"pitch":57,"start":293.9997,"duration":0.3333,"velocity":90,"measure":111,"beat":2.0,"subject_pos":-1,"motif":"","motif_pos":-1,"best_pos":6,"similarity":0.479,"stretto":false,"stretto_voices":0,"combination":[],"aug_dim":"","rhythm_ratio":1.0,"mirror":false,"chromatic_density":0.2,"complexity":0.548,"dissonance":0.13},{"voice":2,"pitch":57,"start":294.333,"duration":0.3333,"velocity":90,"measure":111,"beat":2.5,"subject_pos":-1,"motif":"","motif_pos":-1,"best_pos":1,"similarity":0.304,"stretto":false,"stretto_voices":0,"combination":[],"aug_dim":"","rhythm_ratio":1.0,"mirror":false,"chromatic_density":0.2,"complexity":0.548,"dissonance":0.13},{"voice":0,"pitch":79,"start":294.6664,"duration":0.6667,"velocity":90,"measure":111,"beat":3.0,"subject_pos":-1,"motif":"","motif_pos":-1,"best_pos":7,"similarity":0.464,"stretto":false,"stretto_voices":0,"combination":[],"aug_dim":"","rhythm_ratio":1.0,"mirror":false,"chromatic_density":0.2,"complexity":0.548,"dissonance":0.13},{"voice":2,"pitch":55,"start":294.6664,"duration":0.6667,"velocity":90,"measure":111,"beat":3.0,"subject_pos":-1,"motif":"","motif_pos":-1,"best_pos":2,"similarity":0.329,"stretto":false,"stretto_voices":0,"combination":[],"aug_dim":"","rhythm_ratio":1.0,"mirror":false,"chromatic_density":0.2,"complexity":0.548,"dissonance":0.13},{"voice":1,"pitch":69,"start":294.9997,"duration":0.3333,"velocity":90,"measure":111,"beat":3.5,"subject_pos":-1,"motif":"","motif_pos":-1,"best_pos":3,"similarity":0.436,"stretto":false,"stretto_voices":0,"combination":[],"aug_dim":"","rhythm_ratio":1.0,"mirror":false,"chromatic_density":0.2,"complexity":0.548,"dissonance":0.13},{"voice":0,"pitch":75,"start":295.333,"duration":0.6667,"velocity":90,"measure":111,"beat":4.0,"subject_pos":-1,"motif":"","motif_pos":-1,"best_pos":2,"similarity":0.486,"stretto":false,"stretto_voices":0,"combination":[],"aug_dim":"","rhythm_ratio":1.0,"mirror":false,"chromatic_density":0.2,"complexity":0.548,"dissonance":0.13},{"voice":1,"pitch":70,"start":295.333,"duration":0.3333,"velocity":90,"measure":111,"beat":4.0,"subject_pos":-1,"motif":"","motif_pos":-1,"best_pos":5,"similarity":0.429,"stretto":false,"stretto_voices":0,"combination":[],"aug_dim":"","rhythm_ratio":1.0,"mirror":false,"chromatic_density":0.2,"complexity":0.548,"dissonance":0.13},{"voice":2,"pitch":67,"start":295.333,"duration":0.6667,"velocity":90,"measure":111,"beat":4.0,"subject_pos":-1,"motif":"","motif_pos":-1,"best_pos":2,"similarity":0.364,"stretto":false,"stretto_voices":0,"combination":[],"aug_dim":"","rhythm_ratio":1.0,"mirror":false,"chromatic_density":0.2,"complexity":0.548,"dissonance":0.13},{"voice":3,"pitch":43,"start":295.333,"duration":1.0,"velocity":90,"measure":111,"beat":4.0,"subject_pos":-1,"motif":"","motif_pos":-1,"best_pos":3,"similarity":0.604,"stretto":false,"stretto_voices":0,"combination":[],"aug_dim":"","rhythm_ratio":1.0,"mirror":false,"chromatic_density":0.2,"complexity":0.548,"dissonance":0.13},{"voice":1,"pitch":70,"start":295.6664,"duration":0.3333,"velocity":90,"measure":111,"beat":4.5,"subject_pos":-1,"motif":"","motif_pos":-1,"best_pos":3,"similarity":0.35,"stretto":false,"stretto_voices":0,"combination":[],"aug_dim":"","rhythm_ratio":1.0,"mirror":false,"chromatic_density":0.2,"complexity":0.548,"dissonance":0.13},{"voice":0,"pitch":73,"start":295.9997,"duration":0.6667,"velocity":90,"measure":112,"beat":1.0,"subject_pos":-1,"motif":"","motif_pos":-1,"best_pos":4,"similarity":0.579,"stretto":false,"stretto_voices":0,"combination":[],"aug_dim":"","rhythm_ratio":1.0,"mirror":false,"chromatic_density":0.444,"complexity":0.511,"dissonance":0.011},{"voice":1,"pitch":69,"start":295.9997,"duration":1.3333,"velocity":90,"measure":112,"beat":1.0,"subject_pos":-1,"motif":"","motif_pos":-1,"best_pos":2,"similarity":0.393,"stretto":false,"stretto_voices":0,"combination":[],"aug_dim":"","rhythm_ratio":1.0,"mirror":false,"chromatic_density":0.444,"complexity":0.511,"dissonance":0.011},{"voice":2,"pitch":64,"start":295.9997,"duration":0.6667,"velocity":90,"measure":112,"beat":1.0,"subject_pos":-1,"motif":"","motif_pos":-1,"best_pos":3,"similarity":0.45,"stretto":false,"stretto_voices":0,"combination":[],"aug_dim":"","rhythm_ratio":1.0,"mirror":false,"chromatic_density":0.444,"complexity":0.511,"dissonance":0.011},{"voice":3,"pitch":40,"start":296.333,"duration":0.3333,"velocity":90,"measure":112,"beat":1.5,"subject_pos":-1,"motif":"","motif_pos":-1,"best_pos":4,"similarity":0.579,"stretto":false,"stretto_voices":0,"combination":[],"aug_dim":"","rhythm_ratio":1.0,"mirror":false,"chromatic_density":0.444,"complexity":0.511,"dissonance":0.011},{"voice":0,"pitch":74,"start":296.6664,"duration":0.6667,"velocity":90,"measure":112,"beat":2.0,"subject_pos":-1,"motif":"","motif_pos":-1,"best_pos":5,"similarity":0.536,"stretto":false,"stretto_voices":0,"combination":[],"aug_dim":"","rhythm_ratio":1.0,"mirror":false,"chromatic_density":0.444,"complexity":0.511,"dissonance":0.011},{"voice":2,"pitch":62,"start":296.6664,"duration":1.3333,"velocity":90,"measure":112,"beat":2.0,"subject_pos":-1,"motif":"","motif_pos":-1,"best_pos":2,"similarity":0.536,"stretto":false,"stretto_voices":0,"combination":[],"aug_dim":"","rhythm_ratio":1.0,"mirror":false,"chromatic_density":0.444,"complexity":0.511,"dissonance":0.011},{"voice":3,"pitch":41,"start":296.6664,"duration":0.3333,"velocity":90,"measure":112,"beat":2.0,"subject_pos":-1,"motif":"","motif_pos":-1,"best_pos":5,"similarity":0.536,"stretto":false,"stretto_voices":0,"combination":[],"aug_dim":"","rhythm_ratio":1.0,"mirror":false,"chromatic_density":0.444,"complexity":0.511,"dissonance":0.011},{"voice":3,"pitch":41,"start":296.9997,"duration":0.3333,"velocity":90,"measure":112,"beat":2.5,"subject_pos":-1,"motif":"","motif_pos":-1,"best_pos":4,"similarity":0.407,"stretto":false,"stretto_voices":0,"combination":[],"aug_dim":"","rhythm_ratio":1.0,"mirror":false,"chromatic_density":0.444,"complexity":0.511,"dissonance":0.011},{"voice":0,"pitch":71,"start":297.333,"duration":0.6667,"velocity":90,"measure":112,"beat":3.0,"subject_pos":-1,"motif":"","motif_pos":-1,"best_pos":4,"similarity":0.514,"stretto":false,"stretto_voices":0,"combination":[],"aug_dim":"","rhythm_ratio":1.0,"mirror":false,"chromatic_density":0.444,"complexity":0.511,"dissonance":0.011},{"voice":1,"pitch":67,"start":297.333,"duration":1.3333,"velocity":90,"measure":112,"beat":3.0,"subject_pos":-1,"motif":"","motif_pos":-1,"best_pos":2,"similarity":0.45,"stretto":false,"stretto_voices":0,"combination":[],"aug_dim":"","rhythm_ratio":1.0,"mirror":false,"chromatic_density":0.444,"complexity":0.511,"dissonance":0.011},{"voice":3,"pitch":41,"start":297.333,"duration":0.3333,"velocity":90,"measure":112,"beat":3.0,"subject_pos":-1,"motif":"","motif_pos":-1,"best_pos":2,"similarity":0.429,"stretto":false,"stretto_voices":0,"combination":[],"aug_dim":"","rhythm_ratio":1.0,"mirror":false,"chromatic_density":0.444,"complexity":0.511,"dissonance":0.011},{"voice":3,"pitch":38,"start":297.6664,"duration":0.3333,"velocity":90,"measure":112,"beat":3.5,"subject_pos":-1,"motif":"","motif_pos":-1,"best_pos":3,"similarity":0.482,"stretto":false,"stretto_voices":0,"combination":[],"aug_dim":"","rhythm_ratio":1.0,"mirror":false,"chromatic_density":0.444,"complexity":0.511,"dissonance":0.011},{"voice":0,"pitch":72,"start":297.9997,"duration":0.6667,"velocity":90,"measure":112,"beat":4.0,"subject_pos":-1,"motif":"","motif_pos":-1,"best_pos":5,"similarity":0.471,"stretto":false,"stretto_voices":0,"combination":[],"aug_dim":"","rhythm_ratio":1.0,"mirror":false,"chromatic_density":0.444,"complexity":0.511,"dissonance":0.011},{"voice":2,"pitch":60,"start":297.9997,"duration":1.3333,"velocity":90,"measure":112,"beat":4.0,"subject_pos":-1,"motif":"","motif_pos":-1,"best_pos":3,"similarity":0.571,"stretto":false,"stretto_voices":0,"combination":[],"aug_dim":"","rhythm_ratio":1.0,"mirror":false,"chromatic_density":0.444,"complexity":0.511,"dissonance":0.011},{"voice":3,"pitch":39,"start":297.9997,"duration":0.3333,"velocity":90,"measure":112,"beat":4.0,"subject_pos":-1,"motif":"","motif_pos":-1,"best_pos":5,"similarity":0.471,"stretto":false,"stretto_voices":0,"combination":[],"aug_dim":"","rhythm_ratio":1.0,"mirror":false,"chromatic_density":0.444,"complexity":0.511,"dissonance":0.011},{"voice":3,"pitch":39,"start":298.333,"duration":0.3333,"velocity":90,"measure":112,"beat":4.5,"subject_pos":-1,"motif":"","motif_pos":-1,"best_pos":6,"similarity":0.375,"stretto":false,"stretto_voices":0,"combination":[],"aug_dim":"","rhythm_ratio":1.0,"mirror":false,"chromatic_density":0.444,"complexity":0.511,"dissonance":0.011},{"voice":0,"pitch":69,"start":298.6664,"duration":0.6667,"velocity":90,"measure":113,"beat":1.0,"subject_pos":-1,"motif":"","motif_pos":-1,"best_pos":4,"similarity":0.493,"stretto":false,"stretto_voices":0,"combination":[],"aug_dim":"","rhythm_ratio":1.0,"mirror":false,"chromatic_density":0.214,"complexity":0.541,"dissonance":0.145},{"voice":1,"pitch":65,"start":298.6664,"duration":1.6667,"velocity":90,"measure":113,"beat":1.0,"subject_pos":-1,"motif":"","motif_pos":-1,"best_pos":5,"similarity":0.418,"stretto":false,"stretto_voices":0,"combination":[],"aug_dim":"","rhythm_ratio":1.0,"mirror":false,"chromatic_density":0.214,"complexity":0.541,"dissonance":0.145},{"voice":3,"pitch":39,"start":298.6664,"duration":0.3333,"velocity":90,"measure":113,"beat":1.0,"subject_pos":-1,"motif":"","motif_pos":-1,"best_pos":2,"similarity":0.443,"stretto":false,"stretto_voices":0,"combination":[],"aug_dim":"","rhythm_ratio":1.0,"mirror":false,"chromatic_density":0.214,"complexity":0.541,"dissonance":0.145},{"voice":3,"pitch":36,"start":298.9997,"duration":0.3333,"velocity":90,"measure":113,"beat":1.5,"subject_pos":-1,"motif":"","motif_pos":-1,"best_pos":3,"similarity":0.564,"stretto":false,"stretto_voices":0,"combination":[],"aug_dim":"","rhythm_ratio":1.0,"mirror":false,"chromatic_density":0.214,"complexity":0.541,"dissonance":0.145},{"voice":0,"pitch":70,"start":299.333,"duration":1.3333,"velocity":90,"measure":113,"beat":2.0,"subject_pos":-1,"motif":"","motif_pos":-1,"best_pos":3,"similarity":0.536,"stretto":false,"stretto_voices":0,"combination":[],"aug_dim":"","rhythm_ratio":1.0,"mirror":false,"chromatic_density":0.214,"complexity":0.541,"dissonance":0.145},{"voice":2,"pitch":58,"start":299.333,"duration":0.3333,"velocity":90,"measure":113,"beat":2.0,"subject_pos":-1,"motif":"","motif_pos":-1,"best_pos":4,"similarity":0.579,"stretto":false,"stretto_voices":0,"combination":[],"aug_dim":"","rhythm_ratio":1.0,"mirror":false,"chromatic_density":0.214,"complexity":0.541,"dissonance":0.145},{"voice":3,"pitch":38,"start":299.333,"duration":0.3333,"velocity":90,"measure":113,"beat":2.0,"subject_pos":-1,"motif":"","motif_pos":-1,"best_pos":4,"similarity":0.625,"stretto":false,"stretto_voices":0,"combination":[],"aug_dim":"","rhythm_ratio":1.0,"mirror":false,"chromatic_density":0.214,"complexity":0.541,"dissonance":0.145},{"voice":2,"pitch":60,"start":299.6664,"duration":0.3333,"velocity":90,"measure":113,"beat":2.5,"subject_pos":-1,"motif":"","motif_pos":-1,"best_pos":5,"similarity":0.55,"stretto":false,"stretto_voices":0,"combination":[],"aug_dim":"","rhythm_ratio":1.0,"mirror":false,"chromatic_density":0.214,"complexity":0.541,"dissonance":0.145},{"voice":3,"pitch":39,"start":299.6664,"duration":0.3333,"velocity":90,"measure":113,"beat":2.5,"subject_pos":-1,"motif":"","motif_pos":-1,"best_pos":5,"similarity":0.671,"stretto":false,"stretto_voices":0,"combination":[],"aug_dim":"","rhythm_ratio":1.0,"mirror":false,"chromatic_density":0.214,"complexity":0.541,"dissonance":0.145},{"voice":2,"pitch":62,"start":299.9997,"duration":0.6667,"velocity":90,"measure":113,"beat":3.0,"subject_pos":-1,"motif":"","motif_pos":-1,"best_pos":1,"similarity":0.457,"stretto":false,"stretto_voices":0,"combination":[],"aug_dim":"","rhythm_ratio":1.0,"mirror":false,"chromatic_density":0.214,"complexity":0.541,"dissonance":0.145},{"voice":3,"pitch":41,"start":299.9997,"duration":0.3333,"velocity":90,"measure":113,"beat":3.0,"subject_pos":-1,"motif":"","motif_pos":-1,"best_pos":6,"similarity":0.464,"stretto":false,"stretto_voices":0,"combination":[],"aug_dim":"","rhythm_ratio":1.0,"mirror":false,"chromatic_density":0.214,"complexity":0.541,"dissonance":0.145},{"voice":1,"pitch":67,"start":300.333,"duration":0.3333,"velocity":90,"measure":113,"beat":3.5,"subject_pos":-1,"motif":"","motif_pos":-1,"best_pos":1,"similarity":0.457,"stretto":false,"stretto_voices":0,"combination":[],"aug_dim":"","rhythm_ratio":1.0,"mirror":false,"chromatic_density":0.214,"complexity":0.541,"dissonance":0.145},{"voice":3,"pitch":39,"start":300.333,"duration":0.3333,"velocity":90,"measure":113,"beat":3.5,"subject_pos":-1,"motif":"","motif_pos":-1,"best_pos":5,"similarity":0.35,"stretto":false,"stretto_voices":0,"combination":[],"aug_dim":"","rhythm_ratio":1.0,"mirror":false,"chromatic_density":0.214,"complexity":0.541,"dissonance":0.145},{"voice":0,"pitch":69,"start":300.6664,"duration":0.6667,"velocity":90,"measure":113,"beat":4.0,"subject_pos":-1,"motif":"enigmatic_cell","motif_pos":0,"best_pos":0,"similarity":1.0,"stretto":false,"stretto_voices":0,"combination":[],"aug_dim":"","rhythm_ratio":1.0,"mirror":false,"chromatic_density":0.214,"complexity":0.541,"dissonance":0.145},{"voice":1,"pitch":65,"start":300.6664,"duration":0.3333,"velocity":90,"measure":113,"beat":4.0,"subject_pos":-1,"motif":"","motif_pos":-1,"best_pos":2,"similarity":0.604,"stretto":false,"stretto_voices":0,"combination":[],"aug_dim":"","rhythm_ratio":1.0,"mirror":false,"chromatic_density":0.214,"complexity":0.541,"dissonance":0.145},{"voice":2,"pitch":60,"start":300.6664,"duration":0.6667,"velocity":90,"measure":113,"beat":4.0,"subject_pos":-1,"motif":"","motif_pos":-1,"best_pos":2,"similarity":0.593,"stretto":false,"stretto_voices":0,"combination":[],"aug_dim":"","rhythm_ratio":1.0,"mirror":false,"chromatic_density":0.214,"complexity":0.541,"dissonance":0.145},{"voice":3,"pitch":41,"start":300.6664,"duration":0.6667,"velocity":90,"measure":113,"beat":4.0,"subject_pos":-1,"motif":"","motif_pos":-1,"best_pos":6,"similarity":0.336,"stretto":false,"stretto_voices":0,"combination":[],"aug_dim":"","rhythm_ratio":1.0,"mirror":false,"chromatic_density":0.214,"complexity":0.541,"dissonance":0.145},{"voice":1,"pitch":63,"start":300.9997,"duration":0.6667,"velocity":90,"measure":113,"beat":4.5,"subject_pos":-1,"motif":"","motif_pos":-1,"best_pos":3,"similarity":0.632,"stretto":false,"stretto_voices":0,"combination":[],"aug_dim":"","rhythm_ratio":1.0,"mirror":false,"chromatic_density":0.214,"complexity":0.541,"dissonance":0.145},{"voice":0,"pitch":70,"start":301.333,"duration":0.6667,"velocity":90,"measure":114,"beat":1.0,"subject_pos":-1,"motif":"enigmatic_cell","motif_pos":1,"best_pos":1,"similarity":1.0,"stretto":false,"stretto_voices":0,"combination":[],"aug_dim":"","rhythm_ratio":1.0,"mirror":false,"chromatic_density":0.308,"complexity":0.662,"dissonance":0.109},{"voice":2,"pitch":58,"start":301.333,"duration":1.0,"velocity":90,"measure":114,"beat":1.0,"subject_pos":-1,"motif":"","motif_pos":-1,"best_pos":3,"similarity":0.629,"stretto":false,"stretto_voices":0,"combination":[],"aug_dim":"","rhythm_ratio":1.0,"mirror":false,"chromatic_density":0.308,"complexity":0.662,"dissonance":0.109},{"voice":3,"pitch":46,"start":301.333,"duration":0.6667,"velocity":90,"measure":114,"beat":1.0,"subject_pos":-1,"motif":"","motif_pos":-1,"best_pos":1,"similarity":0.371,"stretto":false,"stretto_voices":0,"combination":[],"aug_dim":"","rhythm_ratio":1.0,"mirror":false,"chromatic_density":0.308,"complexity":0.662,"dissonance":0.109},{"voice":1,"pitch":62,"start":301.6664,"duration":0.3333,"velocity":90,"measure":114,"beat":1.5,"subject_pos":-1,"motif":"","motif_pos":-1,"best_pos":4,"similarity":0.571,"stretto":false,"stretto_voices":0,"combination":[],"aug_dim":"","rhythm_ratio":1.0,"mirror":false,"chromatic_density":0.308,"complexity":0.662,"dissonance":0.109},{"voice":0,"pitch":65,"start":301.9997,"duration":0.6667,"velocity":90,"measure":114,"beat":2.0,"subject_pos":-1,"motif":"enigmatic_cell","motif_pos":2,"best_pos":2,"similarity":1.0,"stretto":false,"stretto_voices":0,"combination":[],"aug_dim":"","rhythm_ratio":1.0,"mirror":false,"chromatic_density":0.308,"complexity":0.662,"dissonance":0.109},{"voice":1,"pitch":65,"start":301.9997,"duration":0.3333,"velocity":90,"measure":114,"beat":2.0,"subject_pos":-1,"motif":"","motif_pos":-1,"best_pos":5,"similarity":0.393,"stretto":false,"stretto_voices":0,"combination":[],"aug_dim":"","rhythm_ratio":1.0,"mirror":false,"chromatic_density":0.308,"complexity":0.662,"dissonance":0.109},{"voice":3,"pitch":50,"start":301.9997,"duration":0.6667,"velocity":90,"measure":114,"beat":2.0,"subject_pos":-1,"motif":"","motif_pos":-1,"best_pos":6,"similarity":0.379,"stretto":false,"stretto_voices":0,"combination":[],"aug_dim":"","rhythm_ratio":1.0,"mirror":false,"chromatic_density":0.308,"complexity":0.662,"dissonance":0.109},{"voice":1,"pitch":65,"start":302.333,"duration":0.3333,"velocity":90,"measure":114,"beat":2.5,"subject_pos":-1,"motif":"","motif_pos":-1,"best_pos":4,"similarity":0.343,"stretto":false,"stretto_voices":0,"combination":[],"aug_dim":"","rhythm_ratio":1.0,"mirror":false,"chromatic_density":0.308,"complexity":0.662,"dissonance":0.109},{"voice":2,"pitch":57,"start":302.333,"duration":0.3333,"velocity":90,"measure":114,"beat":2.5,"subject_pos":-1,"motif":"","motif_pos":-1,"best_pos":4,"similarity":0.546,"stretto":false,"stretto_voices":0,"combination":[],"aug_dim":"","rhythm_ratio":1.0,"mirror":false,"chromatic_density":0.308,"complexity":0.662,"dissonance":0.109},{"voice":0,"pitch":72,"start":302.6664,"duration":0.6667,"velocity":90,"measure":114,"beat":3.0,"subject_pos":-1,"motif":"","motif_pos":-1,"best_pos":4,"similarity":0.4,"stretto":false,"stretto_voices":0,"combination":[],"aug_dim":"","rhythm_ratio":1.0,"mirror":false,"chromatic_density":0.308,"complexity":0.662,"dissonance":0.109},{"voice":1,"pitch":65,"start":302.6664,"duration":0.3333,"velocity":90,"measure":114,"beat":3.0,"subject_pos":-1,"motif":"","motif_pos":-1,"best_pos":1,"similarity":0.321,"stretto":false,"stretto_voices":0,"combination":[],"aug_dim":"","rhythm_ratio":1.0,"mirror":false,"chromatic_density":0.308,"complexity":0.662,"dissonance":0.109},{"voice":2,"pitch":55,"start":302.6664,"duration":0.3333,"velocity":90,"measure":114,"beat":3.0,"subject_pos":-1,"motif":"","motif_pos":-1,"best_pos":2,"similarity":0.436,"stretto":false,"stretto_voices":0,"combination":[],"aug_dim":"","rhythm_ratio":1.0,"mirror":false,"chromatic_density":0.308,"complexity":0.662,"dissonance":0.109},{"voice":3,"pitch":51,"start":302.6664,"duration":1.3333,"velocity":90,"measure":114,"beat":3.0,"subject_pos":-1,"motif":"","motif_pos":-1,"best_pos":3,"similarity":0.436,"stretto":false,"stretto_voices":0,"combination":[],"aug_dim":"","rhythm_ratio":1.0,"mirror":false,"chromatic_density":0.308,"complexity":0.662,"dissonance":0.109},{"voice":1,"pitch":63,"start":302.9997,"duration":0.3333,"velocity":90,"measure":114,"beat":3.5,"subject_pos":-1,"motif":"","motif_pos":-1,"best_pos":2,"similarity":0.393,"stretto":false,"stretto_voices":0,"combination":[],"aug_dim":"","rhythm_ratio":1.0,"mirror":false,"chromatic_density":0.308,"complexity":0.662,"dissonance":0.109},{"voice":2,"pitch":58,"start":302.9997,"duration":0.3333,"velocity":90,"measure":114,"beat":3.5,"subject_pos":-1,"motif":"","motif_pos":-1,"best_pos":3,"similarity":0.514,"stretto":false,"stretto_voices":0,"combination":[],"aug_dim":"","rhythm_ratio":1.0,"mirror":false,"chromatic_density":0.308,"complexity":0.662,"dissonance":0.109},{"voice":0,"pitch":73,"start":303.333,"duration":0.6667,"velocity":90,"measure":114,"beat":4.0,"subject_pos":-1,"motif":"enigmatic_cell","motif_pos":0,"best_pos":0,"similarity":1.0,"stretto":false,"stretto_voices":0,"combination":[],"aug_dim":"","rhythm_ratio":1.0,"mirror":false,"chromatic_density":0.308,"complexity":0.662,"dissonance":0.109},{"voice":1,"pitch":67,"start":303.333,"duration":0.3333,"velocity":90,"measure":114,"beat":4.0,"subject_pos":-1,"motif":"","motif_pos":-1,"best_pos":3,"similarity":0.364,"stretto":false,"stretto_voices":0,"combination":[],"aug_dim":"","rhythm_ratio":1.0,"mirror":false,"chromatic_density":0.308,"complexity":0.662,"dissonance":0.109},{"voice":2,"pitch":57,"start":303.333,"duration":0.3333,"velocity":90,"measure":114,"beat":4.0,"subject_pos":-1,"motif":"","motif_pos":-1,"best_pos":4,"similarity":0.536,"stretto":false,"stretto_voices":0,"combination":[],"aug_dim":"","rhythm_ratio":1.0,"mirror":false,"chromatic_density":0.308,"complexity":0.662,"dissonance":0.109},{"voice":1,"pitch":67,"start":303.6664,"duration":0.3333,"velocity":90,"measure":114,"beat":4.5,"subject_pos":-1,"motif":"","motif_pos":-1,"best_pos":4,"similarity":0.389,"stretto":false,"stretto_voices":0,"combination":[],"aug_dim":"","rhythm_ratio":1.0,"mirror":false,"chromatic_density":0.308,"complexity":0.662,"dissonance":0.109},{"voice":2,"pitch":55,"start":303.6664,"duration":0.3333,"velocity":90,"measure":114,"beat":4.5,"subject_pos":-1,"motif":"","motif_pos":-1,"best_pos":5,"similarity":0.471,"stretto":false,"stretto_voices":0,"combination":[],"aug_dim":"","rhythm_ratio":1.0,"mirror":false,"chromatic_density":0.308,"complexity":0.662,"dissonance":0.109},{"voice":0,"pitch":74,"start":303.9997,"duration":0.6667,"velocity":90,"measure":115,"beat":1.0,"subject_pos":-1,"motif":"enigmatic_cell","motif_pos":1,"best_pos":1,"similarity":1.0,"stretto":false,"stretto_voices":0,"combination":[],"aug_dim":"","rhythm_ratio":1.0,"mirror":false,"chromatic_density":0.357,"complexity":0.667,"dissonance":0.135},{"voice":1,"pitch":67,"start":303.9997,"duration":0.3333,"velocity":90,"measure":115,"beat":1.0,"subject_pos":-1,"motif":"","motif_pos":-1,"best_pos":3,"similarity":0.439,"stretto":false,"stretto_voices":0,"combination":[],"aug_dim":"","rhythm_ratio":1.0,"mirror":false,"chromatic_density":0.357,"complexity":0.667,"dissonance":0.135},{"voice":2,"pitch":57,"start":303.9997,"duration":0.6667,"velocity":90,"measure":115,"beat":1.0,"subject_pos":-1,"motif":"","motif_pos":-1,"best_pos":0,"similarity":0.446,"stretto":false,"stretto_voices":0,"combination":[],"aug_dim":"","rhythm_ratio":1.0,"mirror":false,"chromatic_density":0.357,"complexity":0.667,"dissonance":0.135},{"voice":3,"pitch":50,"start":303.9997,"duration":0.6667,"velocity":90,"measure":115,"beat":1.0,"subject_pos":-1,"motif":"","motif_pos":-1,"best_pos":4,"similarity":0.471,"stretto":false,"stretto_voices":0,"combination":[],"aug_dim":"","rhythm_ratio":1.0,"mirror":false,"chromatic_density":0.357,"complexity":0.667,"dissonance":0.135},{"voice":1,"pitch":66,"start":304.333,"duration":0.3333,"velocity":90,"measure":115,"beat":1.5,"subject_pos":-1,"motif":"","motif_pos":-1,"best_pos":4,"similarity":0.461,"stretto":false,"stretto_voices":0,"combination":[],"aug_dim":"","rhythm_ratio":1.0,"mirror":false,"chromatic_density":0.357,"complexity":0.667,"dissonance":0.135},{"voice":0,"pitch":69,"start":304.6664,"duration":0.6667,"velocity":90,"measure":115,"beat":2.0,"subject_pos":-1,"motif":"enigmatic_cell","motif_pos":2,"best_pos":2,"similarity":1.0,"stretto":false,"stretto_voices":0,"combination":[],"aug_dim":"","rhythm_ratio":1.0,"mirror":false,"chromatic_density":0.357,"complexity":0.667,"dissonance":0.135},{"voice":1,"pitch":69,"start":304.6664,"duration":0.3333,"velocity":90,"measure":115,"beat":2.0,"subject_pos":-1,"motif":"","motif_pos":-1,"best_pos":5,"similarity":0.364,"stretto":false,"stretto_voices":0,"combination":[],"aug_dim":"","rhythm_ratio":1.0,"mirror":false,"chromatic_density":0.357,"complexity":0.667,"dissonance":0.135},{"voice":2,"pitch":62,"start":304.6664,"duration":0.3333,"velocity":90,"measure":115,"beat":2.0,"subject_pos":-1,"motif":"","motif_pos":-1,"best_pos":1,"similarity":0.614,"stretto":false,"stretto_voices":0,"combination":[],"aug_dim":"","rhythm_ratio":1.0,"mirror":false,"chromatic_density":0.357,"complexity":0.667,"dissonance":0.135},{"voice":3,"pitch":54,"start":304.6664,"duration":0.6667,"velocity":90,"measure":115,"beat":2.0,"subject_pos":-1,"motif":"","motif_pos":-1,"best_pos":4,"similarity":0.471,"stretto":false,"stretto_voices":0,"combination":[],"aug_dim":"","rhythm_ratio":1.0,"mirror":false,"chromatic_density":0.357,"complexity":0.667,"dissonance":0.135},{"voice":1,"pitch":69,"start":304.9997,"duration":0.3333,"velocity":90,"measure":115,"beat":2.5,"subject_pos":-1,"motif":"","motif_pos":-1,"best_pos":4,"similarity":0.343,"stretto":false,"stretto_voices":0,"combination":[],"aug_dim":"","rhythm_ratio":1.0,"mirror":false,"chromatic_density":0.357,"complexity":0.667,"dissonance":0.135},{"voice":2,"pitch":60,"start":304.9997,"duration":0.3333,"velocity":90,"measure":115,"beat":2.5,"subject_pos":-1,"motif":"","motif_pos":-1,"best_pos":2,"similarity":0.586,"stretto":false,"stretto_voices":0,"combination":[],"aug_dim":"","rhythm_ratio":1.0,"mirror":false,"chromatic_density":0.357,"complexity":0.667,"dissonance":0.135},{"voice":0,"pitch":76,"start":305.333,"duration":1.3333,"velocity":90,"measure":115,"beat":3.0,"subject_pos":-1,"motif":"","motif_pos":-1,"best_pos":1,"similarity":0.386,"stretto":false,"stretto_voices":0,"combination":[],"aug_dim":"","rhythm_ratio":1.0,"mirror":false,"chromatic_density":0.357,"complexity":0.667,"dissonance":0.135},{"voice":1,"pitch":69,"start":305.333,"duration":0.3333,"velocity":90,"measure":115,"beat":3.0,"subject_pos":-1,"motif":"","motif_pos":-1,"best_pos":1,"similarity":0.321,"stretto":false,"stretto_voices":0,"combination":[],"aug_dim":"","rhythm_ratio":1.0,"mirror":false,"chromatic_density":0.357,"complexity":0.667,"dissonance":0.135},{"voice":2,"pitch":59,"start":305.333,"duration":0.3333,"velocity":90,"measure":115,"beat":3.0,"subject_pos":-1,"motif":"","motif_pos":-1,"best_pos":4,"similarity":0.589,"stretto":false,"stretto_voices":0,"combination":[],"aug_dim":"","rhythm_ratio":1.0,"mirror":false,"chromatic_density":0.357,"complexity":0.667,"dissonance":0.135},{"voice":3,"pitch":55,"start":305.333,"duration":0.6667,"velocity":90,"measure":115,"beat":3.0,"subject_pos":-1,"motif":"","motif_pos":-1,"best_pos":5,"similarity":0.589,"stretto":false,"stretto_voices":0,"combination":[],"aug_dim":"","rhythm_ratio":1.0,"mirror":false,"chromatic_density":0.357,"complexity":0.667,"dissonance":0.135},{"voice":1,"pitch":67,"start":305.6664,"duration":0.3333,"velocity":90,"measure":115,"beat":3.5,"subject_pos":-1,"motif":"","motif_pos":-1,"best_pos":2,"similarity":0.364,"stretto":false,"stretto_voices":0,"combination":[],"aug_dim":"","rhythm_ratio":1.0,"mirror":false,"chromatic_density":0.357,"complexity":0.667,"dissonance":0.135},{"voice":2,"pitch":61,"start":305.6664,"duration":0.3333,"velocity":90,"measure":115,"beat":3.5,"subject_pos":-1,"motif":"","motif_pos":-1,"best_pos":6,"similarity":0.643,"stretto":false,"stretto_voices":0,"combination":[],"aug_dim":"","rhythm_ratio":1.0,"mirror":false,"chromatic_density":0.357,"complexity":0.667,"dissonance":0.135},{"voice":1,"pitch":71,"start":305.9997,"duration":0.3333,"velocity":90,"measure":115,"beat":4.0,"subject_pos":-1,"motif":"","motif_pos":-1,"best_pos":3,"similarity":0.371,"stretto":false,"stretto_voices":0,"combination":[],"aug_dim":"","rhythm_ratio":1.0,"mirror":false,"chromatic_density":0.357,"complexity":0.667,"dissonance":0.135},{"voice":2,"pitch":62,"start":305.9997,"duration":1.0,"velocity":90,"measure":115,"beat":4.0,"subject_pos":-1,"motif":"enigmatic_cell","motif_pos":0,"best_pos":0,"similarity":1.0,"stretto":false,"stretto_voices":0,"combination":[],"aug_dim":"","rhythm_ratio":1.0,"mirror":false,"chromatic_density":0.357,"complexity":0.667,"dissonance":0.135},{"voice":3,"pitch":56,"start":305.9997,"duration":0.6667,"velocity":90,"measure":115,"beat":4.0,"subject_pos":-1,"motif":"","motif_pos":-1,"best_pos":6,"similarity":0.571,"stretto":false,"stretto_voices":0,"combination":[],"aug_dim":"","rhythm_ratio":1.0,"mirror":false,"chromatic_density":0.357,"complexity":0.667,"dissonance":0.135},{"voice":1,"pitch":71,"start":306.333,"duration":0.3333,"velocity":90,"measure":115,"beat":4.5,"subject_pos":-1,"motif":"","motif_pos":-1,"best_pos":4,"similarity":0.421,"stretto":false,"stretto_voices":0,"combination":[],"aug_dim":"","rhythm_ratio":1.0,"mirror":false,"chromatic_density":0.357,"complexity":0.667,"dissonance":0.135},{"voice":0,"pitch":77,"start":306.6664,"duration":0.6667,"velocity":90,"measure":116,"beat":1.0,"subject_pos":-1,"motif":"","motif_pos":-1,"best_pos":3,"similarity":0.4,"stretto":false,"stretto_voices":0,"combination":[],"aug_dim":"","rhythm_ratio":1.0,"mirror":false,"chromatic_density":0.417,"complexity":0.572,"dissonance":0.179},{"voice":1,"pitch":69,"start":306.6664,"duration":0.6667,"velocity":90,"measure":116,"beat":1.0,"subject_pos":-1,"motif":"","motif_pos":-1,"best_pos":4,"similarity":0.514,"stretto":false,"stretto_voices":0,"combination":[],"aug_dim":"","rhythm_ratio":1.0,"mirror":false,"chromatic_density":0.417,"complexity":0.572,"dissonance":0.179},{"voice":3,"pitch":57,"start":306.6664,"duration":0.6667,"velocity":90,"measure":116,"beat":1.0,"subject_pos":-1,"motif":"","motif_pos":-1,"best_pos":5,"similarity":0.543,"stretto":false,"stretto_voices":0,"combination":[],"aug_dim":"","rhythm_ratio":1.0,"mirror":false,"chromatic_density":0.417,"complexity":0.572,"dissonance":0.179},{"voice":2,"pitch":61,"start":306.9997,"duration":0.3333,"velocity":90,"measure":116,"beat":1.5,"subject_pos":-1,"motif":"enigmatic_cell","motif_pos":1,"best_pos":1,"similarity":1.0,"stretto":false,"stretto_voices":0,"combination":[],"aug_dim":"","rhythm_ratio":1.0,"mirror":false,"chromatic_density":0.417,"complexity":0.572,"dissonance":0.179},{"voice":0,"pitch":76,"start":307.333,"duration":0.6667,"velocity":90,"measure":116,"beat":2.0,"subject_pos":-1,"motif":"","motif_pos":-1,"best_pos":4,"similarity":0.479,"stretto":false,"stretto_voices":0,"combination":[],"aug_dim":"","rhythm_ratio":1.0,"mirror":false,"chromatic_density":0.417,"complexity":0.572,"dissonance":0.179},{"voice":1,"pitch":71,"start":307.333,"duration":0.3333,"velocity":90,"measure":116,"beat":2.0,"subject_pos":-1,"motif":"","motif_pos":-1,"best_pos":5,"similarity":0.65,"stretto":false,"stretto_voices":0,"combination":[],"aug_dim":"","rhythm_ratio":1.0,"mirror":false,"chromatic_density":0.417,"complexity":0.572,"dissonance":0.179},{"voice":2,"pitch":67,"start":307.333,"duration":1.0,"velocity":90,"measure":116,"beat":2.0,"subject_pos":-1,"motif":"enigmatic_cell","motif_pos":2,"best_pos":2,"similarity":1.0,"stretto":false,"stretto_voices":0,"combination":[],"aug_dim":"","rhythm_ratio":1.0,"mirror":false,"chromatic_density":0.417,"complexity":0.572,"dissonance":0.179},{"voice":1,"pitch":73,"start":307.6664,"duration":0.3333,"velocity":90,"measure":116,"beat":2.5,"subject_pos":-1,"motif":"","motif_pos":-1,"best_pos":6,"similarity":0.679,"stretto":false,"stretto_voices":0,"combination":[],"aug_dim":"","rhythm_ratio":1.0,"mirror":false,"chromatic_density":0.417,"complexity":0.572,"dissonance":0.179},{"voice":3,"pitch":57,"start":307.6664,"duration":0.3333,"velocity":90,"measure":116,"beat":2.5,"subject_pos":-1,"motif":"","motif_pos":-1,"best_pos":4,"similarity":0.593,"stretto":false,"stretto_voices":0,"combination":[],"aug_dim":"","rhythm_ratio":1.0,"mirror":false,"chromatic_density":0.417,"complexity":0.572,"dissonance":0.179},{"voice":0,"pitch":74,"start":307.9997,"duration":0.3333,"velocity":90,"measure":116,"beat":3.0,"subject_pos":-1,"motif":"","motif_pos":-1,"best_pos":5,"similarity":0.479,"stretto":false,"stretto_voices":0,"combination":[],"aug_dim":"","rhythm_ratio":1.0,"mirror":false,"chromatic_density":0.417,"complexity":0.572,"dissonance":0.179},{"voice":1,"pitch":74,"start":307.9997,"duration":0.6667,"velocity":90,"measure":116,"beat":3.0,"subject_pos":-1,"motif":"","motif_pos":-1,"best_pos":7,"similarity":0.464,"stretto":false,"stretto_voices":0,"combination":[],"aug_dim":"","rhythm_ratio":1.0,"mirror":false,"chromatic_density":0.417,"complexity":0.572,"dissonance":0.179},{"voice":3,"pitch":58,"start":307.9997,"duration":0.6667,"velocity":90,"measure":116,"beat":3.0,"subject_pos":-1,"motif":"","motif_pos":-1,"best_pos":5,"similarity":0.65,"stretto":false,"stretto_voices":0,"combination":[],"aug_dim":"","rhythm_ratio":1.0,"mirror":false,"chromatic_density":0.417,"complexity":0.572,"dissonance":0.179},{"voice":0,"pitch":76,"start":308.333,"duration":0.3333,"velocity":90,"measure":116,"beat":3.5,"subject_pos":-1,"motif":"","motif_pos":-1,"best_pos":6,"similarity":0.4,"stretto":false,"stretto_voices":0,"combination":[],"aug_dim":"","rhythm_ratio":1.0,"mirror":false,"chromatic_density":0.417,"complexity":0.572,"dissonance":0.179},{"voice":2,"pitch":64,"start":308.333,"duration":0.3333,"velocity":90,"measure":116,"beat":3.5,"subject_pos":-1,"motif":"","motif_pos":-1,"best_pos":4,"similarity":0.464,"stretto":false,"stretto_voices":0,"combination":[],"aug_dim":"","rhythm_ratio":1.0,"mirror":false,"chromatic_density":0.417,"complexity":0.572,"dissonance":0.179},{"voice":0,"pitch":74,"start":308.6664,"duration":0.6667,"velocity":90,"measure":116,"beat":4.0,"subject_pos":-1,"motif":"","motif_pos":-1,"best_pos":0,"similarity":0.5,"stretto":false,"stretto_voices":0,"combination":[],"aug_dim":"","rhythm_ratio":1.0,"mirror":false,"chromatic_density":0.417,"complexity":0.572,"dissonance":0.179},{"voice":2,"pitch":65,"start":308.6664,"duration":0.3333,"velocity":90,"measure":116,"beat":4.0,"subject_pos":-1,"motif":"","motif_pos":-1,"best_pos":5,"similarity":0.464,"stretto":false,"stretto_voices":0,"combination":[],"aug_dim":"","rhythm_ratio":1.0,"mirror":false,"chromatic_density":0.417,"complexity":0.572,"dissonance":0.179},{"voice":3,"pitch":59,"start":308.6664,"duration":0.6667,"velocity":90,"measure":116,"beat":4.0,"subject_pos":-1,"motif":"","motif_pos":-1,"best_pos":5,"similarity":0.614,"stretto":false,"stretto_voices":0,"combination":[],"aug_dim":"","rhythm_ratio":1.0,"mirror":false,"chromatic_density":0.417,"complexity":0.572,"dissonance":0.179},{"voice":2,"pitch":65,"start":308.9997,"duration":0.3333,"velocity":90,"measure":116,"beat":4.5,"subject_pos":-1,"motif":"","motif_pos":-1,"best_pos":4,"similarity":0.421,"stretto":false,"stretto_voices":0,"combination":[],"aug_dim":"","rhythm_ratio":1.0,"mirror":false,"chromatic_density":0.417,"complexity":0.572,"dissonance":0.179},{"voice":0,"pitch":81,"start":309.333,"duration":0.6667,"velocity":90,"measure":117,"beat":1.0,"subject_pos":-1,"motif":"","motif_pos":-1,"best_pos":1,"similarity":0.732,"stretto":false,"stretto_voices":0,"combination":[],"aug_dim":"","rhythm_ratio":1.0,"mirror":false,"chromatic_density":0.364,"complexity":0.566,"dissonance":0.147},{"voice":2,"pitch":65,"start":309.333,"duration":0.3333,"velocity":90,"measure":117,"beat":1.0,"subject_pos":-1,"motif":"","motif_pos":-1,"best_pos":5,"similarity":0.393,"stretto":false,"stretto_voices":0,"combination":[],"aug_dim":"","rhythm_ratio":1.0,"mirror":false,"chromatic_density":0.364,"complexity":0.566,"dissonance":0.147},{"voice":3,"pitch":60,"start":309.333,"duration":0.6667,"velocity":90,"measure":117,"beat":1.0,"subject_pos":-1,"motif":"","motif_pos":-1,"best_pos":5,"similarity":0.614,"stretto":false,"stretto_voices":0,"combination":[],"aug_dim":"","rhythm_ratio":1.0,"mirror":false,"chromatic_density":0.364,"complexity":0.566,"dissonance":0.147},{"voice":2,"pitch":63,"start":309.6664,"duration":0.3333,"velocity":90,"measure":117,"beat":1.5,"subject_pos":-1,"motif":"","motif_pos":-1,"best_pos":4,"similarity":0.532,"stretto":false,"stretto_voices":0,"combination":[],"aug_dim":"","rhythm_ratio":1.0,"mirror":false,"chromatic_density":0.364,"complexity":0.566,"dissonance":0.147},{"voice":0,"pitch":79,"start":309.9997,"duration":1.0,"velocity":90,"measure":117,"beat":2.0,"subject_pos":-1,"motif":"","motif_pos":-1,"best_pos":2,"similarity":0.786,"stretto":false,"stretto_voices":0,"combination":[],"aug_dim":"","rhythm_ratio":1.0,"mirror":false,"chromatic_density":0.364,"complexity":0.566,"dissonance":0.147},{"voice":2,"pitch":64,"start":309.9997,"duration":0.3333,"velocity":90,"measure":117,"beat":2.0,"subject_pos":-1,"motif":"","motif_pos":-1,"best_pos":5,"similarity":0.507,"stretto":false,"stretto_voices":0,"combination":[],"aug_dim":"","rhythm_ratio":1.0,"mirror":false,"chromatic_density":0.364,"complexity":0.566,"dissonance":0.147},{"voice":3,"pitch":61,"start":309.9997,"duration":0.6667,"velocity":90,"measure":117,"beat":2.0,"subject_pos":-1,"motif":"","motif_pos":-1,"best_pos":6,"similarity":0.589,"stretto":false,"stretto_voices":0,"combination":[],"aug_dim":"","rhythm_ratio":1.0,"mirror":false,"chromatic_density":0.364,"complexity":0.566,"dissonance":0.147},{"voice":2,"pitch":64,"start":310.333,"duration":0.3333,"velocity":90,"measure":117,"beat":2.5,"subject_pos":-1,"motif":"","motif_pos":-1,"best_pos":6,"similarity":0.393,"stretto":false,"stretto_voices":0,"combination":[],"aug_dim":"","rhythm_ratio":1.0,"mirror":false,"chromatic_density":0.364,"complexity":0.566,"dissonance":0.147},{"voice":2,"pitch":64,"start":310.6664,"duration":0.3333,"velocity":90,"measure":117,"beat":3.0,"subject_pos":-1,"motif":"","motif_pos":-1,"best_pos":7,"similarity":0.25,"stretto":false,"stretto_voices":0,"combination":[],"aug_dim":"","rhythm_ratio":1.0,"mirror":false,"chromatic_density":0.364,"complexity":0.566,"dissonance":0.147},{"voice":3,"pitch":62,"start":310.6664,"duration":0.6667,"velocity":90,"measure":117,"beat":3.0,"subject_pos":-1,"motif":"","motif_pos":-1,"best_pos":7,"similarity":0.429,"stretto":false,"stretto_voices":0,"combination":[],"aug_dim":"","rhythm_ratio":1.0,"mirror":false,"chromatic_density":0.364,"complexity":0.566,"dissonance":0.147},{"voice":0,"pitch":76,"start":310.9997,"duration":0.3333,"velocity":90,"measure":117,"beat":3.5,"subject_pos":-1,"motif":"","motif_pos":-1,"best_pos":3,"similarity":0.661,"stretto":false,"stretto_voices":0,"combination":[],"aug_dim":"","rhythm_ratio":1.0,"mirror":false,"chromatic_density":0.364,"complexity":0.566,"dissonance":0.147},{"voice":2,"pitch":57,"start":310.9997,"duration":0.3333,"velocity":90,"measure":117,"beat":3.5,"subject_pos":-1,"motif":"","motif_pos":-1,"best_pos":0,"similarity":0.446,"stretto":false,"stretto_voices":0,"combination":[],"aug_dim":"","rhythm_ratio":1.0,"mirror":false,"chromatic_density":0.364,"complexity":0.566,"dissonance":0.147},{"voice":0,"pitch":77,"start":311.333,"duration":0.3333,"velocity":90,"measure":117,"beat":4.0,"subject_pos":-1,"motif":"","motif_pos":-1,"best_pos":5,"similarity":0.5,"stretto":false,"stretto_voices":0,"combination":[],"aug_dim":"","rhythm_ratio":1.0,"mirror":false,"chromatic_density":0.364,"complexity":0.566,"dissonance":0.147},{"voice":1,"pitch":74,"start":311.333,"duration":1.0,"velocity":90,"measure":117,"beat":4.0,"subject_pos":-1,"motif":"","motif_pos":-1,"best_pos":2,"similarity":0.443,"stretto":false,"stretto_voices":0,"combination":[],"aug_dim":"","rhythm_ratio":1.0,"mirror":false,"chromatic_density":0.364,"complexity":0.566,"dissonance":0.147},{"voice":2,"pitch":62,"start":311.333,"duration":0.3333,"velocity":90,"measure":117,"beat":4.0,"subject_pos":-1,"motif":"","motif_pos":-1,"best_pos":1,"similarity":0.679,"stretto":false,"stretto_voices":0,"combination":[],"aug_dim":"","rhythm_ratio":1.0,"mirror":false,"chromatic_density":0.364,"complexity":0.566,"dissonance":0.147},{"voice":3,"pitch":50,"start":311.333,"duration":0.6667,"velocity":90,"measure":117,"beat":4.0,"subject_pos":-1,"motif":"","motif_pos":-1,"best_pos":0,"similarity":0.3,"stretto":false,"stretto_voices":0,"combination":[],"aug_dim":"","rhythm_ratio":1.0,"mirror":false,"chromatic_density":0.364,"complexity":0.566,"dissonance":0.147},{"voice":0,"pitch":77,"start":311.6664,"duration":0.3333,"velocity":90,"measure":117,"beat":4.5,"subject_pos":-1,"motif":"","motif_pos":-1,"best_pos":4,"similarity":0.421,"stretto":false,"stretto_voices":0,"combination":[],"aug_dim":"","rhythm_ratio":1.0,"mirror":false,"chromatic_density":0.364,"complexity":0.566,"dissonance":0.147},{"voice":2,"pitch":60,"start":311.6664,"duration":0.3333,"velocity":90,"measure":117,"beat":4.5,"subject_pos":-1,"motif":"","motif_pos":-1,"best_pos":2,"similarity":0.661,"stretto":false,"stretto_voices":0,"combination":[],"aug_dim":"","rhythm_ratio":1.0,"mirror":false,"chromatic_density":0.364,"complexity":0.566,"dissonance":0.147},{"voice":0,"pitch":77,"start":311.9997,"duration":0.3333,"velocity":90,"measure":118,"beat":1.0,"subject_pos":-1,"motif":"","motif_pos":-1,"best_pos":5,"similarity":0.393,"stretto":false,"stretto_voices":0,"combination":[],"aug_dim":"","rhythm_ratio":1.0,"mirror":false,"chromatic_density":0.417,"complexity":0.594,"dissonance":0.183},{"voice":2,"pitch":59,"start":311.9997,"duration":0.6667,"velocity":90,"measure":118,"beat":1.0,"subject_pos":-1,"motif":"","motif_pos":-1,"best_pos":3,"similarity":0.625,"stretto":false,"stretto_voices":0,"combination":[],"aug_dim":"","rhythm_ratio":1.0,"mirror":false,"chromatic_density":0.417,"complexity":0.594,"dissonance":0.183},{"voice":3,"pitch":55,"start":311.9997,"duration":0.6667,"velocity":90,"measure":118,"beat":1.0,"subject_pos":-1,"motif":"","motif_pos":-1,"best_pos":1,"similarity":0.314,"stretto":false,"stretto_voices":0,"combination":[],"aug_dim":"","rhythm_ratio":1.0,"mirror":false,"chromatic_density":0.417,"complexity":0.594,"dissonance":0.183},{"voice":0,"pitch":75,"start":312.333,"duration":0.3333,"velocity":90,"measure":118,"beat":1.5,"subject_pos":-1,"motif":"","motif_pos":-1,"best_pos":4,"similarity":0.532,"stretto":false,"stretto_voices":0,"combination":[],"aug_dim":"","rhythm_ratio":1.0,"mirror":false,"chromatic_density":0.417,"complexity":0.594,"dissonance":0.183},{"voice":1,"pitch":71,"start":312.333,"duration":0.3333,"velocity":90,"measure":118,"beat":1.5,"subject_pos":-1,"motif":"","motif_pos":-1,"best_pos":3,"similarity":0.489,"stretto":false,"stretto_voices":0,"combination":[],"aug_dim":"","rhythm_ratio":1.0,"mirror":false,"chromatic_density":0.417,"complexity":0.594,"dissonance":0.183},{"voice":0,"pitch":76,"start":312.6664,"duration":0.3333,"velocity":90,"measure":118,"beat":2.0,"subject_pos":-1,"motif":"","motif_pos":-1,"best_pos":5,"similarity":0.507,"stretto":false,"stretto_voices":0,"combination":[],"aug_dim":"","rhythm_ratio":1.0,"mirror":false,"chromatic_density":0.417,"complexity":0.594,"dissonance":0.183},{"voice":1,"pitch":72,"start":312.6664,"duration":0.3333,"velocity":90,"measure":118,"beat":2.0,"subject_pos":-1,"motif":"","motif_pos":-1,"best_pos":5,"similarity":0.471,"stretto":false,"stretto_voices":0,"combination":[],"aug_dim":"","rhythm_ratio":1.0,"mirror":false,"chromatic_density":0.417,"complexity":0.594,"dissonance":0.183},{"voice":2,"pitch":58,"start":312.6664,"duration":0.6667,"velocity":90,"measure":118,"beat":2.0,"subject_pos":-1,"motif":"","motif_pos":-1,"best_pos":4,"similarity":0.518,"stretto":false,"stretto_voices":0,"combination":[],"aug_dim":"","rhythm_ratio":1.0,"mirror":false,"chromatic_density":0.417,"complexity":0.594,"dissonance":0.183},{"voice":3,"pitch":48,"start":312.6664,"duration":0.6667,"velocity":90,"measure":118,"beat":2.0,"subject_pos":-1,"motif":"","motif_pos":-1,"best_pos":0,"similarity":0.321,"stretto":false,"stretto_voices":0,"combination":[],"aug_dim":"","rhythm_ratio":1.0,"mirror":false,"chromatic_density":0.417,"complexity":0.594,"dissonance":0.183},{"voice":0,"pitch":76,"start":312.9997,"duration":0.3333,"velocity":90,"measure":118,"beat":2.5,"subject_pos":-1,"motif":"","motif_pos":-1,"best_pos":4,"similarity":0.443,"stretto":false,"stretto_voices":0,"combination":[],"aug_dim":"","rhythm_ratio":1.0,"mirror":false,"chromatic_density":0.417,"complexity":0.594,"dissonance":0.183},{"voice":1,"pitch":72,"start":312.9997,"duration":0.3333,"velocity":90,"measure":118,"beat":2.5,"subject_pos":-1,"motif":"","motif_pos":-1,"best_pos":6,"similarity":0.375,"stretto":false,"stretto_voices":0,"combination":[],"aug_dim":"","rhythm_ratio":1.0,"mirror":false,"chromatic_density":0.417,"complexity":0.594,"dissonance":0.183},{"voice":0,"pitch":76,"start":313.333,"duration":0.3333,"velocity":90,"measure":118,"beat":3.0,"subject_pos":-1,"motif":"","motif_pos":-1,"best_pos":2,"similarity":0.429,"stretto":false,"stretto_voices":0,"combination":[],"aug_dim":"","rhythm_ratio":1.0,"mirror":false,"chromatic_density":0.417,"complexity":0.594,"dissonance":0.183},{"voice":1,"pitch":72,"start":313.333,"duration":0.3333,"velocity":90,"measure":118,"beat":3.0,"subject_pos":-1,"motif":"","motif_pos":-1,"best_pos":2,"similarity":0.407,"stretto":false,"stretto_voices":0,"combination":[],"aug_dim":"","rhythm_ratio":1.0,"mirror":false,"chromatic_density":0.417,"complexity":0.594,"dissonance":0.183},{"voice":2,"pitch":57,"start":313.333,"duration":0.6667,"velocity":90,"measure":118,"beat":3.0,"subject_pos":-1,"motif":"","motif_pos":-1,"best_pos":4,"similarity":0.532,"stretto":false,"stretto_voices":0,"combination":[],"aug_dim":"","rhythm_ratio":1.0,"mirror":false,"chromatic_density":0.417,"complexity":0.594,"dissonance":0.183},{"voice":3,"pitch":53,"start":313.333,"duration":0.6667,"velocity":90,"measure":118,"beat":3.0,"subject_pos":-1,"motif":"","motif_pos":-1,"best_pos":1,"similarity":0.393,"stretto":false,"stretto_voices":0,"combination":[],"aug_dim":"","rhythm_ratio":1.0,"mirror":false,"chromatic_density":0.417,"complexity":0.594,"dissonance":0.183},{"voice":0,"pitch":73,"start":313.6664,"duration":0.3333,"velocity":90,"measure":118,"beat":3.5,"subject_pos":-1,"motif":"","motif_pos":-1,"best_pos":3,"similarity":0.482,"stretto":false,"stretto_voices":0,"combination":[],"aug_dim":"","rhythm_ratio":1.0,"mirror":false,"chromatic_density":0.417,"complexity":0.594,"dissonance":0.183},{"voice":1,"pitch":69,"start":313.6664,"duration":0.3333,"velocity":90,"measure":118,"beat":3.5,"subject_pos":-1,"motif":"","motif_pos":-1,"best_pos":5,"similarity":0.464,"stretto":false,"stretto_voices":0,"combination":[],"aug_dim":"","rhythm_ratio":1.0,"mirror":false,"chromatic_density":0.417,"complexity":0.594,"dissonance":0.183},{"voice":0,"pitch":74,"start":313.9997,"duration":0.3333,"velocity":90,"measure":118,"beat":4.0,"subject_pos":-1,"motif":"","motif_pos":-1,"best_pos":5,"similarity":0.471,"stretto":false,"stretto_voices":0,"combination":[],"aug_dim":"","rhythm_ratio":1.0,"mirror":false,"chromatic_density":0.417,"complexity":0.594,"dissonance":0.183},{"voice":1,"pitch":71,"start":313.9997,"duration":0.3333,"velocity":90,"measure":118,"beat":4.0,"subject_pos":-1,"motif":"","motif_pos":-1,"best_pos":6,"similarity":0.479,"stretto":false,"stretto_voices":0,"combination":[],"aug_dim":"","rhythm_ratio":1.0,"mirror":false,"chromatic_density":0.417,"complexity":0.594,"dissonance":0.183},{"voice":3,"pitch":47,"start":313.9997,"duration":0.6667,"velocity":90,"measure":118,"beat":4.0,"subject_pos":-1,"motif":"","motif_pos":-1,"best_pos":0,"similarity":0.339,"stretto":false,"stretto_voices":0,"combination":[],"aug_dim":"","rhythm_ratio":1.0,"mirror":false,"chromatic_density":0.417,"complexity":0.594,"dissonance":0.183},{"voice":0,"pitch":74,"start":314.333,"duration":0.3333,"velocity":90,"measure":118,"beat":4.5,"subject_pos":-1,"motif":"","motif_pos":-1,"best_pos":4,"similarity":0.407,"stretto":false,"stretto_voices":0,"combination":[],"aug_dim":"","rhythm_ratio":1.0,"mirror":false,"chromatic_density":0.417,"complexity":0.594,"dissonance":0.183},{"voice":1,"pitch":71,"start":314.333,"duration":0.3333,"velocity":90,"measure":118,"beat":4.5,"subject_pos":-1,"motif":"","motif_pos":-1,"best_pos":4,"similarity":0.393,"stretto":false,"stretto_voices":0,"combination":[],"aug_dim":"","rhythm_ratio":1.0,"mirror":false,"chromatic_density":0.417,"complexity":0.594,"dissonance":0.183},{"voice":2,"pitch":57,"start":314.333,"duration":0.3333,"velocity":90,"measure":118,"beat":4.5,"subject_pos":-1,"motif":"","motif_pos":-1,"best_pos":3,"similarity":0.429,"stretto":false,"stretto_voices":0,"combination":[],"aug_dim":"","rhythm_ratio":1.0,"mirror":false,"chromatic_density":0.417,"complexity":0.594,"dissonance":0.183},{"voice":0,"pitch":74,"start":314.6664,"duration":0.3333,"velocity":90,"measure":119,"beat":1.0,"subject_pos":-1,"motif":"","motif_pos":-1,"best_pos":2,"similarity":0.429,"stretto":false,"stretto_voices":0,"combination":[],"aug_dim":"","rhythm_ratio":1.0,"mirror":false,"chromatic_density":0.538,"complexity":0.536,"dissonance":0.175},{"voice":1,"pitch":71,"start":314.6664,"duration":0.3333,"velocity":90,"measure":119,"beat":1.0,"subject_pos":-1,"motif":"","motif_pos":-1,"best_pos":2,"similarity":0.429,"stretto":false,"stretto_voices":0,"combination":[],"aug_dim":"","rhythm_ratio":1.0,"mirror":false,"chromatic_density":0.538,"complexity":0.536,"dissonance":0.175},{"voice":2,"pitch":56,"start":314.6664,"duration":0.6667,"velocity":90,"measure":119,"beat":1.0,"subject_pos":-1,"motif":"","motif_pos":-1,"best_pos":4,"similarity":0.439,"stretto":false,"stretto_voices":0,"combination":[],"aug_dim":"","rhythm_ratio":1.0,"mirror":false,"chromatic_density":0.538,"complexity":0.536,"dissonance":0.175},{"voice":3,"pitch":52,"start":314.6664,"duration":0.6667,"velocity":90,"measure":119,"beat":1.0,"subject_pos":-1,"motif":"","motif_pos":-1,"best_pos":1,"similarity":0.464,"stretto":false,"stretto_voices":0,"combination":[],"aug_dim":"","rhythm_ratio":1.0,"mirror":false,"chromatic_density":0.538,"complexity":0.536,"dissonance":0.175},{"voice":0,"pitch":71,"start":314.9997,"duration":0.3333,"velocity":90,"measure":119,"beat":1.5,"subject_pos":-1,"motif":"","motif_pos":-1,"best_pos":3,"similarity":0.482,"stretto":false,"stretto_voices":0,"combination":[],"aug_dim":"","rhythm_ratio":1.0,"mirror":false,"chromatic_density":0.538,"complexity":0.536,"dissonance":0.175},{"voice":1,"pitch":68,"start":314.9997,"duration":0.3333,"velocity":90,"measure":119,"beat":1.5,"subject_pos":-1,"motif":"","motif_pos":-1,"best_pos":3,"similarity":0.482,"stretto":false,"stretto_voices":0,"combination":[],"aug_dim":"","rhythm_ratio":1.0,"mirror":false,"chromatic_density":0.538,"complexity":0.536,"dissonance":0.175},{"voice":0,"pitch":72,"start":315.333,"duration":0.3333,"velocity":90,"measure":119,"beat":2.0,"subject_pos":-1,"motif":"","motif_pos":-1,"best_pos":5,"similarity":0.471,"stretto":false,"stretto_voices":0,"combination":[],"aug_dim":"","rhythm_ratio":1.0,"mirror":false,"chromatic_density":0.538,"complexity":0.536,"dissonance":0.175},{"voice":1,"pitch":69,"start":315.333,"duration":0.3333,"velocity":90,"measure":119,"beat":2.0,"subject_pos":-1,"motif":"","motif_pos":-1,"best_pos":5,"similarity":0.471,"stretto":false,"stretto_voices":0,"combination":[],"aug_dim":"","rhythm_ratio":1.0,"mirror":false,"chromatic_density":0.538,"complexity":0.536,"dissonance":0.175},{"voice":2,"pitch":55,"start":315.333,"duration":0.6667,"velocity":90,"measure":119,"beat":2.0,"subject_pos":-1,"motif":"","motif_pos":-1,"best_pos":3,"similarity":0.471,"stretto":false,"stretto_voices":0,"combination":[],"aug_dim":"","rhythm_ratio":1.0,"mirror":false,"chromatic_density":0.538,"complexity":0.536,"dissonance":0.175},{"voice":0,"pitch":72,"start":315.6664,"duration":0.3333,"velocity":90,"measure":119,"beat":2.5,"subject_pos":-1,"motif":"","motif_pos":-1,"best_pos":6,"similarity":0.375,"stretto":false,"stretto_voices":0,"combination":[],"aug_dim":"","rhythm_ratio":1.0,"mirror":false,"chromatic_density":0.538,"complexity":0.536,"dissonance":0.175},{"voice":1,"pitch":69,"start":315.6664,"duration":0.3333,"velocity":90,"measure":119,"beat":2.5,"subject_pos":-1,"motif":"","motif_pos":-1,"best_pos":6,"similarity":0.375,"stretto":false,"stretto_voices":0,"combination":[],"aug_dim":"","rhythm_ratio":1.0,"mirror":false,"chromatic_density":0.538,"complexity":0.536,"dissonance":0.175},{"voice":3,"pitch":52,"start":315.6664,"duration":0.3333,"velocity":90,"measure":119,"beat":2.5,"subject_pos":-1,"motif":"","motif_pos":-1,"best_pos":2,"similarity":0.446,"stretto":false,"stretto_voices":0,"combination":[],"aug_dim":"","rhythm_ratio":1.0,"mirror":false,"chromatic_density":0.538,"complexity":0.536,"dissonance":0.175},{"voice":0,"pitch":72,"start":315.9997,"duration":0.3333,"velocity":90,"measure":119,"beat":3.0,"subject_pos":-1,"motif":"","motif_pos":-1,"best_pos":2,"similarity":0.407,"stretto":false,"stretto_voices":0,"combination":[],"aug_dim":"","rhythm_ratio":1.0,"mirror":false,"chromatic_density":0.538,"complexity":0.536,"dissonance":0.175},{"voice":1,"pitch":69,"start":315.9997,"duration":0.3333,"velocity":90,"measure":119,"beat":3.0,"subject_pos":-1,"motif":"","motif_pos":-1,"best_pos":2,"similarity":0.407,"stretto":false,"stretto_voices":0,"combination":[],"aug_dim":"","rhythm_ratio":1.0,"mirror":false,"chromatic_density":0.538,"complexity":0.536,"dissonance":0.175},{"voice":2,"pitch":54,"start":315.9997,"duration":0.6667,"velocity":90,"measure":119,"beat":3.0,"subject_pos":-1,"motif":"","motif_pos":-1,"best_pos":3,"similarity":0.471,"stretto":false,"stretto_voices":0,"combination":[],"aug_dim":"","rhythm_ratio":1.0,"mirror":false,"chromatic_density":0.538,"complexity":0.536,"dissonance":0.175},{"voice":3,"pitch":51,"start":315.9997,"duration":0.6667,"velocity":90,"measure":119,"beat":3.0,"subject_pos":-1,"motif":"","motif_pos":-1,"best_pos":3,"similarity":0.507,"stretto":false,"stretto_voices":0,"combination":[],"aug_dim":"","rhythm_ratio":1.0,"mirror":false,"chromatic_density":0.538,"complexity":0.536,"dissonance":0.175},{"voice":0,"pitch":69,"start":316.333,"duration":0.3333,"velocity":90,"measure":119,"beat":3.5,"subject_pos":-1,"motif":"","motif_pos":-1,"best_pos":5,"similarity":0.464,"stretto":false,"stretto_voices":0,"combination":[],"aug_dim":"","rhythm_ratio":1.0,"mirror":false,"chromatic_density":0.538,"complexity":0.536,"dissonance":0.175},{"voice":1,"pitch":66,"start":316.333,"duration":0.3333,"velocity":90,"measure":119,"beat":3.5,"subject_pos":-1,"motif":"","motif_pos":-1,"best_pos":5,"similarity":0.464,"stretto":false,"stretto_voices":0,"combination":[],"aug_dim":"","rhythm_ratio":1.0,"mirror":false,"chromatic_density":0.538,"complexity":0.536,"dissonance":0.175},{"voice":0,"pitch":71,"start":316.6664,"duration":0.3333,"velocity":90,"measure":119,"beat":4.0,"subject_pos":-1,"motif":"","motif_pos":-1,"best_pos":6,"similarity":0.479,"stretto":false,"stretto_voices":0,"combination":[],"aug_dim":"","rhythm_ratio":1.0,"mirror":false,"chromatic_density":0.538,"complexity":0.536,"dissonance":0.175},{"voice":1,"pitch":68,"start":316.6664,"duration":0.3333,"velocity":90,"measure":119,"beat":4.0,"subject_pos":-1,"motif":"","motif_pos":-1,"best_pos":6,"similarity":0.479,"stretto":false,"stretto_voices":0,"combination":[],"aug_dim":"","rhythm_ratio":1.0,"mirror":false,"chromatic_density":0.538,"complexity":0.536,"dissonance":0.175},{"voice":2,"pitch":53,"start":316.6664,"duration":0.6667,"velocity":90,"measure":119,"beat":4.0,"subject_pos":-1,"motif":"","motif_pos":-1,"best_pos":4,"similarity":0.514,"stretto":false,"stretto_voices":0,"combination":[],"aug_dim":"","rhythm_ratio":1.0,"mirror":false,"chromatic_density":0.538,"complexity":0.536,"dissonance":0.175},{"voice":3,"pitch":50,"start":316.6664,"duration":0.6667,"velocity":90,"measure":119,"beat":4.0,"subject_pos":-1,"motif":"","motif_pos":-1,"best_pos":3,"similarity":0.471,"stretto":false,"stretto_voices":0,"combination":[],"aug_dim":"","rhythm_ratio":1.0,"mirror":false,"chromatic_density":0.538,"complexity":0.536,"dissonance":0.175},{"voice":0,"pitch":71,"start":316.9997,"duration":0.3333,"velocity":90,"measure":119,"beat":4.5,"subject_pos":-1,"motif":"","motif_pos":-1,"best_pos":4,"similarity":0.336,"stretto":false,"stretto_voices":0,"combination":[],"aug_dim":"","rhythm_ratio":1.0,"mirror":false,"chromatic_density":0.538,"complexity":0.536,"dissonance":0.175},{"voice":1,"pitch":68,"start":316.9997,"duration":0.3333,"velocity":90,"measure":119,"beat":4.5,"subject_pos":-1,"motif":"","motif_pos":-1,"best_pos":5,"similarity":0.443,"stretto":false,"stretto_voices":0,"combination":[],"aug_dim":"","rhythm_ratio":1.0,"mirror":false,"chromatic_density":0.538,"complexity":0.536,"dissonance":0.175},{"voice":0,"pitch":71,"start":317.333,"duration":0.3333,"velocity":90,"measure":120,"beat":1.0,"subject_pos":-1,"motif":"","motif_pos":-1,"best_pos":0,"similarity":0.3,"stretto":false,"stretto_voices":0,"combination":[],"aug_dim":"","rhythm_ratio":1.0,"mirror":false,"chromatic_density":0.4,"complexity":0.626,"dissonance":0.081},{"voice":1,"pitch":68,"start":317.333,"duration":0.3333,"velocity":90,"measure":120,"beat":1.0,"subject_pos":-1,"motif":"","motif_pos":-1,"best_pos":4,"similarity":0.482,"stretto":false,"stretto_voices":0,"combination":[],"aug_dim":"","rhythm_ratio":1.0,"mirror":false,"chromatic_density":0.4,"complexity":0.626,"dissonance":0.081},{"voice":2,"pitch":52,"start":317.333,"duration":2.0,"velocity":90,"measure":120,"beat":1.0,"subject_pos":-1,"motif":"","motif_pos":-1,"best_pos":3,"similarity":0.571,"stretto":false,"stretto_voices":0,"combination":[],"aug_dim":"","rhythm_ratio":1.0,"mirror":false,"chromatic_density":0.4,"complexity":0.626,"dissonance":0.081},{"voice":3,"pitch":49,"start":317.333,"duration":0.6667,"velocity":90,"measure":120,"beat":1.0,"subject_pos":-1,"motif":"","motif_pos":-1,"best_pos":3,"similarity":0.471,"stretto":false,"stretto_voices":0,"combination":[],"aug_dim":"","rhythm_ratio":1.0,"mirror":false,"chromatic_density":0.4,"complexity":0.626,"dissonance":0.081},{"voice":0,"pitch":76,"start":317.6663,"duration":0.3333,"velocity":90,"measure":120,"beat":1.5,"subject_pos":-1,"motif":"","motif_pos":-1,"best_pos":1,"similarity":0.386,"stretto":false,"stretto_voices":0,"combination":[],"aug_dim":"","rhythm_ratio":1.0,"mirror":false,"chromatic_density":0.4,"complexity":0.626,"dissonance":0.081},{"voice":1,"pitch":69,"start":317.6663,"duration":0.1667,"velocity":90,"measure":120,"beat":1.5,"subject_pos":-1,"motif":"","motif_pos":-1,"best_pos":5,"similarity":0.429,"stretto":false,"stretto_voices":0,"combination":[],"aug_dim":"","rhythm_ratio":1.0,"mirror":false,"chromatic_density":0.4,"complexity":0.626,"dissonance":0.081},{"voice":1,"pitch":67,"start":317.833,"duration":0.1667,"velocity":90,"measure":120,"beat":1.75,"subject_pos":-1,"motif":"","motif_pos":-1,"best_pos":3,"similarity":0.529,"stretto":false,"stretto_voices":0,"combination":[],"aug_dim":"","rhythm_ratio":1.0,"mirror":false,"chromatic_density":0.4,"complexity":0.626,"dissonance":0.081},{"voice":0,"pitch":69,"start":317.9997,"duration":1.0,"velocity":90,"measure":120,"beat":2.0,"subject_pos":-1,"motif":"","motif_pos":-1,"best_pos":2,"similarity":0.321,"stretto":false,"stretto_voices":0,"combination":[],"aug_dim":"","rhythm_ratio":1.0,"mirror":false,"chromatic_density":0.4,"complexity":0.626,"dissonance":0.081},{"voice":1,"pitch":66,"start":317.9997,"duration":0.3333,"velocity":90,"measure":120,"beat":2.0,"subject_pos":-1,"motif":"","motif_pos":-1,"best_pos":4,"similarity":0.543,"stretto":false,"stretto_voices":0,"combination":[],"aug_dim":"","rhythm_ratio":1.0,"mirror":false,"chromatic_density":0.4,"complexity":0.626,"dissonance":0.081},{"voice":3,"pitch":48,"start":317.9997,"duration":0.6667,"velocity":90,"measure":120,"beat":2.0,"subject_pos":-1,"motif":"","motif_pos":-1,"best_pos":3,"similarity":0.514,"stretto":false,"stretto_voices":0,"combination":[],"aug_dim":"","rhythm_ratio":1.0,"mirror":false,"chromatic_density":0.4,"complexity":0.626,"dissonance":0.081},{"voice":1,"pitch":64,"start":318.333,"duration":0.3333,"velocity":90,"measure":120,"beat":2.5,"subject_pos":-1,"motif":"","motif_pos":-1,"best_pos":5,"similarity":0.507,"stretto":false,"stretto_voices":0,"combination":[],"aug_dim":"","rhythm_ratio":1.0,"mirror":false,"chromatic_density":0.4,"complexity":0.626,"dissonance":0.081},{"voice":1,"pitch":66,"start":318.6663,"duration":1.6667,"velocity":90,"measure":120,"beat":3.0,"subject_pos":-1,"motif":"","motif_pos":-1,"best_pos":6,"similarity":0.4,"stretto":false,"stretto_voices":0,"combination":[],"aug_dim":"","rhythm_ratio":1.0,"mirror":false,"chromatic_density":0.4,"complexity":0.626,"dissonance":0.081},{"voice":3,"pitch":47,"start":318.6663,"duration":0.3333,"velocity":90,"measure":120,"beat":3.0,"subject_pos":-1,"motif":"","motif_pos":-1,"best_pos":4,"similarity":0.529,"stretto":false,"stretto_voices":0,"combination":[],"aug_dim":"","rhythm_ratio":1.0,"mirror":false,"chromatic_density":0.4,"complexity":0.626,"dissonance":0.081},{"voice":0,"pitch":72,"start":318.9997,"duration":0.3333,"velocity":90,"measure":120,"beat":3.5,"subject_pos":-1,"motif":"","motif_pos":-1,"best_pos":3,"similarity":0.393,"stretto":false,"stretto_voices":0,"combination":[],"aug_dim":"","rhythm_ratio":1.0,"mirror":false,"chromatic_density":0.4,"complexity":0.626,"dissonance":0.081},{"voice":3,"pitch":45,"start":318.9997,"duration":0.3333,"velocity":90,"measure":120,"beat":3.5,"subject_pos":-1,"motif":"","motif_pos":-1,"best_pos":5,"similarity":0.475,"stretto":false,"stretto_voices":0,"combination":[],"aug_dim":"","rhythm_ratio":1.0,"mirror":false,"chromatic_density":0.4,"complexity":0.626,"dissonance":0.081},{"voice":0,"pitch":71,"start":319.333,"duration":0.3333,"velocity":90,"measure":120,"beat":4.0,"subject_pos":-1,"motif":"","motif_pos":-1,"best_pos":2,"similarity":0.482,"stretto":false,"stretto_voices":0,"combination":[],"aug_dim":"","rhythm_ratio":1.0,"mirror":false,"chromatic_density":0.4,"complexity":0.626,"dissonance":0.081},{"voice":2,"pitch":51,"start":319.333,"duration":0.6667,"velocity":90,"measure":120,"beat":4.0,"subject_pos":-1,"motif":"","motif_pos":-1,"best_pos":4,"similarity":0.661,"stretto":false,"stretto_voices":0,"combination":[],"aug_dim":"","rhythm_ratio":1.0,"mirror":false,"chromatic_density":0.4,"complexity":0.626,"dissonance":0.081},{"voice":3,"pitch":47,"start":319.333,"duration":0.6667,"velocity":90,"measure":120,"beat":4.0,"subject_pos":-1,"motif":"","motif_pos":-1,"best_pos":6,"similarity":0.371,"stretto":false,"stretto_voices":0,"combination":[],"aug_dim":"","rhythm_ratio":1.0,"mirror":false,"chromatic_density":0.4,"complexity":0.626,"dissonance":0.081},{"voice":0,"pitch":69,"start":319.6663,"duration":0.3333,"velocity":90,"measure":120,"beat":4.5,"subject_pos":-1,"motif":"","motif_pos":-1,"best_pos":3,"similarity":0.561,"stretto":false,"stretto_voices":0,"combination":[],"aug_dim":"","rhythm_ratio":1.0,"mirror":false,"chromatic_density":0.4,"complexity":0.626,"dissonance":0.081},{"voice":0,"pitch":68,"start":319.9997,"duration":0.6667,"velocity":90,"measure":121,"beat":1.0,"subject_pos":-1,"motif":"","motif_pos":-1,"best_pos":4,"similarity":0.496,"stretto":false,"stretto_voices":0,"combination":[],"aug_dim":"","rhythm_ratio":1.0,"mirror":false,"chromatic_density":0.125,"complexity":0.526,"dissonance":0.12},{"voice":2,"pitch":52,"start":319.9997,"duration":0.6667,"velocity":90,"measure":121,"beat":1.0,"subject_pos":-1,"motif":"","motif_pos":-1,"best_pos":5,"similarity":0.482,"stretto":false,"stretto_voices":0,"combination":[],"aug_dim":"","rhythm_ratio":1.0,"mirror":false,"chromatic_density":0.125,"complexity":0.526,"dissonance":0.12},{"voice":3,"pitch":40,"start":319.9997,"duration":0.6667,"velocity":90,"measure":121,"beat":1.0,"subject_pos":-1,"motif":"","motif_pos":-1,"best_pos":3,"similarity":0.221,"stretto":false,"stretto_voices":0,"combination":[],"aug_dim":"","rhythm_ratio":1.0,"mirror":false,"chromatic_density":0.125,"complexity":0.526,"dissonance":0.12},{"voice":1,"pitch":64,"start":320.333,"duration":0.3333,"velocity":90,"measure":121,"beat":1.5,"subject_pos":-1,"motif":"","motif_pos":-1,"best_pos":2,"similarity":0.407,"stretto":false,"stretto_voices":0,"combination":[],"aug_dim":"","rhythm_ratio":1.0,"mirror":false,"chromatic_density":0.125,"complexity":0.526,"dissonance":0.12},{"voice":0,"pitch":71,"start":320.6663,"duration":0.6667,"velocity":90,"measure":121,"beat":2.0,"subject_pos":-1,"motif":"","motif_pos":-1,"best_pos":1,"similarity":0.429,"stretto":false,"stretto_voices":0,"combination":[],"aug_dim":"","rhythm_ratio":1.0,"mirror":false,"chromatic_density":0.125,"complexity":0.526,"dissonance":0.12},{"voice":1,"pitch":68,"start":320.6663,"duration":0.3333,"velocity":90,"measure":121,"beat":2.0,"subject_pos":-1,"motif":"","motif_pos":-1,"best_pos":3,"similarity":0.371,"stretto":false,"stretto_voices":0,"combination":[],"aug_dim":"","rhythm_ratio":1.0,"mirror":false,"chromatic_density":0.125,"complexity":0.526,"dissonance":0.12},{"voice":2,"pitch":64,"start":320.6663,"duration":1.3333,"velocity":90,"measure":121,"beat":2.0,"subject_pos":-1,"motif":"","motif_pos":-1,"best_pos":3,"similarity":0.443,"stretto":false,"stretto_voices":0,"combination":[],"aug_dim":"","rhythm_ratio":1.0,"mirror":false,"chromatic_density":0.125,"complexity":0.526,"dissonance":0.12},{"voice":1,"pitch":68,"start":320.9997,"duration":0.3333,"velocity":90,"measure":121,"beat":2.5,"subject_pos":-1,"motif":"","motif_pos":-1,"best_pos":4,"similarity":0.389,"stretto":false,"stretto_voices":0,"combination":[],"aug_dim":"","rhythm_ratio":1.0,"mirror":false,"chromatic_density":0.125,"complexity":0.526,"dissonance":0.12},{"voice":0,"pitch":69,"start":321.333,"duration":0.6667,"velocity":90,"measure":121,"beat":3.0,"subject_pos":-1,"motif":"","motif_pos":-1,"best_pos":2,"similarity":0.482,"stretto":false,"stretto_voices":0,"combination":[],"aug_dim":"","rhythm_ratio":1.0,"mirror":false,"chromatic_density":0.125,"complexity":0.526,"dissonance":0.12},{"voice":1,"pitch":68,"start":321.333,"duration":0.3333,"velocity":90,"measure":121,"beat":3.0,"subject_pos":-1,"motif":"","motif_pos":-1,"best_pos":1,"similarity":0.321,"stretto":false,"stretto_voices":0,"combination":[],"aug_dim":"","rhythm_ratio":1.0,"mirror":false,"chromatic_density":0.125,"complexity":0.526,"dissonance":0.12},{"voice":1,"pitch":66,"start":321.6663,"duration":0.3333,"velocity":90,"measure":121,"beat":3.5,"subject_pos":-1,"motif":"","motif_pos":-1,"best_pos":2,"similarity":0.393,"stretto":false,"stretto_voices":0,"combination":[],"aug_dim":"","rhythm_ratio":1.0,"mirror":false,"chromatic_density":0.125,"complexity":0.526,"dissonance":0.12},{"voice":0,"pitch":72,"start":321.9997,"duration":0.6667,"velocity":90,"measure":121,"beat":4.0,"subject_pos":-1,"motif":"","motif_pos":-1,"best_pos":3,"similarity":0.489,"stretto":false,"stretto_voices":0,"combination":[],"aug_dim":"","rhythm_ratio":1.0,"mirror":false,"chromatic_density":0.125,"complexity":0.526,"dissonance":0.12},{"voice":1,"pitch":69,"start":321.9997,"duration":0.3333,"velocity":90,"measure":121,"beat":4.0,"subject_pos":-1,"motif":"","motif_pos":-1,"best_pos":3,"similarity":0.364,"stretto":false,"stretto_voices":0,"combination":[],"aug_dim":"","rhythm_ratio":1.0,"mirror":false,"chromatic_density":0.125,"complexity":0.526,"dissonance":0.12},{"voice":2,"pitch":63,"start":321.9997,"duration":0.6667,"velocity":90,"measure":121,"beat":4.0,"subject_pos":-1,"motif":"","motif_pos":-1,"best_pos":4,"similarity":0.65,"stretto":false,"stretto_voices":0,"combination":[],"aug_dim":"","rhythm_ratio":1.0,"mirror":false,"chromatic_density":0.125,"complexity":0.526,"dissonance":0.12},{"voice":1,"pitch":69,"start":322.333,"duration":0.3333,"velocity":90,"measure":121,"beat":4.5,"subject_pos":-1,"motif":"","motif_pos":-1,"best_pos":4,"similarity":0.389,"stretto":false,"stretto_voices":0,"combination":[],"aug_dim":"","rhythm_ratio":1.0,"mirror":false,"chromatic_density":0.125,"complexity":0.526,"dissonance":0.12},{"voice":0,"pitch":71,"start":322.6663,"duration":0.6667,"velocity":90,"measure":122,"beat":1.0,"subject_pos":-1,"motif":"","motif_pos":-1,"best_pos":4,"similarity":0.461,"stretto":false,"stretto_voices":0,"combination":[],"aug_dim":"","rhythm_ratio":1.0,"mirror":false,"chromatic_density":0.364,"complexity":0.551,"dissonance":0.133},{"voice":1,"pitch":69,"start":322.6663,"duration":0.3333,"velocity":90,"measure":122,"beat":1.0,"subject_pos":-1,"motif":"","motif_pos":-1,"best_pos":3,"similarity":0.421,"stretto":false,"stretto_voices":0,"combination":[],"aug_dim":"","rhythm_ratio":1.0,"mirror":false,"chromatic_density":0.364,"complexity":0.551,"dissonance":0.133},{"voice":2,"pitch":64,"start":322.6663,"duration":0.6667,"velocity":90,"measure":122,"beat":1.0,"subject_pos":-1,"motif":"","motif_pos":-1,"best_pos":5,"similarity":0.571,"stretto":false,"stretto_voices":0,"combination":[],"aug_dim":"","rhythm_ratio":1.0,"mirror":false,"chromatic_density":0.364,"complexity":0.551,"dissonance":0.133},{"voice":1,"pitch":68,"start":322.9997,"duration":0.3333,"velocity":90,"measure":122,"beat":1.5,"subject_pos":-1,"motif":"","motif_pos":-1,"best_pos":4,"similarity":0.461,"stretto":false,"stretto_voices":0,"combination":[],"aug_dim":"","rhythm_ratio":1.0,"mirror":false,"chromatic_density":0.364,"complexity":0.551,"dissonance":0.133},{"voice":0,"pitch":74,"start":323.333,"duration":1.0,"velocity":90,"measure":122,"beat":2.0,"subject_pos":-1,"motif":"","motif_pos":-1,"best_pos":1,"similarity":0.393,"stretto":false,"stretto_voices":0,"combination":[],"aug_dim":"","rhythm_ratio":1.0,"mirror":false,"chromatic_density":0.364,"complexity":0.551,"dissonance":0.133},{"voice":1,"pitch":71,"start":323.333,"duration":0.3333,"velocity":90,"measure":122,"beat":2.0,"subject_pos":-1,"motif":"","motif_pos":-1,"best_pos":5,"similarity":0.364,"stretto":false,"stretto_voices":0,"combination":[],"aug_dim":"","rhythm_ratio":1.0,"mirror":false,"chromatic_density":0.364,"complexity":0.551,"dissonance":0.133},{"voice":2,"pitch":56,"start":323.333,"duration":0.6667,"velocity":90,"measure":122,"beat":2.0,"subject_pos":-1,"motif":"","motif_pos":-1,"best_pos":6,"similarity":0.5,"stretto":false,"stretto_voices":0,"combination":[],"aug_dim":"","rhythm_ratio":1.0,"mirror":false,"chromatic_density":0.364,"complexity":0.551,"dissonance":0.133},{"voice":3,"pitch":52,"start":323.333,"duration":0.6667,"velocity":90,"measure":122,"beat":2.0,"subject_pos":-1,"motif":"","motif_pos":-1,"best_pos":4,"similarity":0.45,"stretto":false,"stretto_voices":0,"combination":[],"aug_dim":"","rhythm_ratio":1.0,"mirror":false,"chromatic_density":0.364,"complexity":0.551,"dissonance":0.133},{"voice":1,"pitch":71,"start":323.6663,"duration":0.3333,"velocity":90,"measure":122,"beat":2.5,"subject_pos":-1,"motif":"","motif_pos":-1,"best_pos":4,"similarity":0.354,"stretto":false,"stretto_voices":0,"combination":[],"aug_dim":"","rhythm_ratio":1.0,"mirror":false,"chromatic_density":0.364,"complexity":0.551,"dissonance":0.133},{"voice":1,"pitch":71,"start":323.9997,"duration":0.3333,"velocity":90,"measure":122,"beat":3.0,"subject_pos":-1,"motif":"","motif_pos":-1,"best_pos":1,"similarity":0.321,"stretto":false,"stretto_voices":0,"combination":[],"aug_dim":"","rhythm_ratio":1.0,"mirror":false,"chromatic_density":0.364,"complexity":0.551,"dissonance":0.133},{"voice":2,"pitch":57,"start":323.9997,"duration":0.6667,"velocity":90,"measure":122,"beat":3.0,"subject_pos":-1,"motif":"","motif_pos":-1,"best_pos":5,"similarity":0.436,"stretto":false,"stretto_voices":0,"combination":[],"aug_dim":"","rhythm_ratio":1.0,"mirror":false,"chromatic_density":0.364,"complexity":0.551,"dissonance":0.133},{"voice":3,"pitch":53,"start":323.9997,"duration":0.6667,"velocity":90,"measure":122,"beat":3.0,"subject_pos":-1,"motif":"","motif_pos":-1,"best_pos":5,"similarity":0.579,"stretto":false,"stretto_voices":0,"combination":[],"aug_dim":"","rhythm_ratio":1.0,"mirror":false,"chromatic_density":0.364,"complexity":0.551,"dissonance":0.133},{"voice":0,"pitch":72,"start":324.333,"duration":0.3333,"velocity":90,"measure":122,"beat":3.5,"subject_pos":-1,"motif":"","motif_pos":-1,"best_pos":2,"similarity":0.429,"stretto":false,"stretto_voices":0,"combination":[],"aug_dim":"","rhythm_ratio":1.0,"mirror":false,"chromatic_density":0.364,"complexity":0.551,"dissonance":0.133},{"voice":1,"pitch":69,"start":324.333,"duration":0.3333,"velocity":90,"measure":122,"beat":3.5,"subject_pos":-1,"motif":"","motif_pos":-1,"best_pos":2,"similarity":0.393,"stretto":false,"stretto_voices":0,"combination":[],"aug_dim":"","rhythm_ratio":1.0,"mirror":false,"chromatic_density":0.364,"complexity":0.551,"dissonance":0.133},{"voice":0,"pitch":75,"start":324.6663,"duration":0.3333,"velocity":90,"measure":122,"beat":4.0,"subject_pos":-1,"motif":"","motif_pos":-1,"best_pos":3,"similarity":0.382,"stretto":false,"stretto_voices":0,"combination":[],"aug_dim":"","rhythm_ratio":1.0,"mirror":false,"chromatic_density":0.364,"complexity":0.551,"dissonance":0.133},{"voice":1,"pitch":72,"start":324.6663,"duration":0.3333,"velocity":90,"measure":122,"beat":4.0,"subject_pos":-1,"motif":"","motif_pos":-1,"best_pos":3,"similarity":0.364,"stretto":false,"stretto_voices":0,"combination":[],"aug_dim":"","rhythm_ratio":1.0,"mirror":false,"chromatic_density":0.364,"complexity":0.551,"dissonance":0.133},{"voice":3,"pitch":54,"start":324.6663,"duration":0.6667,"velocity":90,"measure":122,"beat":4.0,"subject_pos":-1,"motif":"","motif_pos":-1,"best_pos":5,"similarity":0.607,"stretto":false,"stretto_voices":0,"combination":[],"aug_dim":"","rhythm_ratio":1.0,"mirror":false,"chromatic_density":0.364,"complexity":0.551,"dissonance":0.133},{"voice":0,"pitch":75,"start":324.9997,"duration":0.3333,"velocity":90,"measure":122,"beat":4.5,"subject_pos":-1,"motif":"","motif_pos":-1,"best_pos":4,"similarity":0.389,"stretto":false,"stretto_voices":0,"combination":[],"aug_dim":"","rhythm_ratio":1.0,"mirror":false,"chromatic_density":0.364,"complexity":0.551,"dissonance":0.133},{"voice":1,"pitch":72,"start":324.9997,"duration":0.3333,"velocity":90,"measure":122,"beat":4.5,"subject_pos":-1,"motif":"","motif_pos":-1,"best_pos":4,"similarity":0.389,"stretto":false,"stretto_voices":0,"combination":[],"aug_dim":"","rhythm_ratio":1.0,"mirror":false,"chromatic_density":0.364,"complexity":0.551,"dissonance":0.133},{"voice":0,"pitch":75,"start":325.333,"duration":0.3333,"velocity":90,"measure":123,"beat":1.0,"subject_pos":-1,"motif":"","motif_pos":-1,"best_pos":3,"similarity":0.421,"stretto":false,"stretto_voices":0,"combination":[],"aug_dim":"","rhythm_ratio":1.0,"mirror":false,"chromatic_density":0.6,"complexity":0.489,"dissonance":0.1},{"voice":1,"pitch":72,"start":325.333,"duration":0.3333,"velocity":90,"measure":123,"beat":1.0,"subject_pos":-1,"motif":"","motif_pos":-1,"best_pos":3,"similarity":0.421,"stretto":false,"stretto_voices":0,"combination":[],"aug_dim":"","rhythm_ratio":1.0,"mirror":false,"chromatic_density":0.6,"complexity":0.489,"dissonance":0.1},{"voice":3,"pitch":55,"start":325.333,"duration":0.6667,"velocity":90,"measure":123,"beat":1.0,"subject_pos":-1,"motif":"","motif_pos":-1,"best_pos":5,"similarity":0.614,"stretto":false,"stretto_voices":0,"combination":[],"aug_dim":"","rhythm_ratio":1.0,"mirror":false,"chromatic_density":0.6,"complexity":0.489,"dissonance":0.1},{"voice":0,"pitch":74,"start":325.6663,"duration":0.3333,"velocity":90,"measure":123,"beat":1.5,"subject_pos":-1,"motif":"","motif_pos":-1,"best_pos":4,"similarity":0.461,"stretto":false,"stretto_voices":0,"combination":[],"aug_dim":"","rhythm_ratio":1.0,"mirror":false,"chromatic_density":0.6,"complexity":0.489,"dissonance":0.1},{"voice":1,"pitch":71,"start":325.6663,"duration":0.3333,"velocity":90,"measure":123,"beat":1.5,"subject_pos":-1,"motif":"","motif_pos":-1,"best_pos":4,"similarity":0.461,"stretto":false,"stretto_voices":0,"combination":[],"aug_dim":"","rhythm_ratio":1.0,"mirror":false,"chromatic_density":0.6,"complexity":0.489,"dissonance":0.1},{"voice":0,"pitch":77,"start":325.9997,"duration":0.3333,"velocity":90,"measure":123,"beat":2.0,"subject_pos":-1,"motif":"","motif_pos":-1,"best_pos":5,"similarity":0.364,"stretto":false,"stretto_voices":0,"combination":[],"aug_dim":"","rhythm_ratio":1.0,"mirror":false,"chromatic_density":0.6,"complexity":0.489,"dissonance":0.1},{"voice":1,"pitch":74,"start":325.9997,"duration":0.3333,"velocity":90,"measure":123,"beat":2.0,"subject_pos":-1,"motif":"","motif_pos":-1,"best_pos":5,"similarity":0.364,"stretto":false,"stretto_voices":0,"combination":[],"aug_dim":"","rhythm_ratio":1.0,"mirror":false,"chromatic_density":0.6,"complexity":0.489,"dissonance":0.1},{"voice":3,"pitch":56,"start":325.9997,"duration":0.6667,"velocity":90,"measure":123,"beat":2.0,"subject_pos":-1,"motif":"","motif_pos":-1,"best_pos":6,"similarity":0.589,"stretto":false,"stretto_voices":0,"combination":[],"aug_dim":"","rhythm_ratio":1.0,"mirror":false,"chromatic_density":0.6,"complexity":0.489,"dissonance":0.1},{"voice":0,"pitch":77,"start":326.333,"duration":0.3333,"velocity":90,"measure":123,"beat":2.5,"subject_pos":-1,"motif":"","motif_pos":-1,"best_pos":4,"similarity":0.354,"stretto":false,"stretto_voices":0,"combination":[],"aug_dim":"","rhythm_ratio":1.0,"mirror":false,"chromatic_density":0.6,"complexity":0.489,"dissonance":0.1},{"voice":1,"pitch":74,"start":326.333,"duration":0.3333,"velocity":90,"measure":123,"beat":2.5,"subject_pos":-1,"motif":"","motif_pos":-1,"best_pos":4,"similarity":0.354,"stretto":false,"stretto_voices":0,"combination":[],"aug_dim":"","rhythm_ratio":1.0,"mirror":false,"chromatic_density":0.6,"complexity":0.489,"dissonance":0.1},{"voice":0,"pitch":77,"start":326.6663,"duration":0.3333,"velocity":90,"measure":123,"beat":3.0,"subject_pos":-1,"motif":"","motif_pos":-1,"best_pos":3,"similarity":0.421,"stretto":false,"stretto_voices":0,"combination":[],"aug_dim":"","rhythm_ratio":1.0,"mirror":false,"chromatic_density":0.6,"complexity":0.489,"dissonance":0.1},{"voice":1,"pitch":74,"start":326.6663,"duration":0.3333,"velocity":90,"measure":123,"beat":3.0,"subject_pos":-1,"motif":"","motif_pos":-1,"best_pos":3,"similarity":0.421,"stretto":false,"stretto_voices":0,"combination":[],"aug_dim":"","rhythm_ratio":1.0,"mirror":false,"chromatic_density":0.6,"complexity":0.489,"dissonance":0.1},{"voice":3,"pitch":57,"start":326.6663,"duration":0.6667,"velocity":90,"measure":123,"beat":3.0,"subject_pos":-1,"motif":"","motif_pos":-1,"best_pos":5,"similarity":0.543,"stretto":false,"stretto_voices":0,"combination":[],"aug_dim":"","rhythm_ratio":1.0,"mirror":false,"chromatic_density":0.6,"complexity":0.489,"dissonance":0.1},{"voice":0,"pitch":76,"start":326.9997,"duration":0.3333,"velocity":90,"measure":123,"beat":3.5,"subject_pos":-1,"motif":"","motif_pos":-1,"best_pos":4,"similarity":0.461,"stretto":false,"stretto_voices":0,"combination":[],"aug_dim":"","rhythm_ratio":1.0,"mirror":false,"chromatic_density":0.6,"complexity":0.489,"dissonance":0.1},{"voice":1,"pitch":73,"start":326.9997,"duration":0.3333,"velocity":90,"measure":123,"beat":3.5,"subject_pos":-1,"motif":"","motif_pos":-1,"best_pos":4,"similarity":0.461,"stretto":false,"stretto_voices":0,"combination":[],"aug_dim":"","rhythm_ratio":1.0,"mirror":false,"chromatic_density":0.6,"complexity":0.489,"dissonance":0.1},{"voice":0,"pitch":79,"start":327.333,"duration":0.3333,"velocity":90,"measure":123,"beat":4.0,"subject_pos":-1,"motif":"","motif_pos":-1,"best_pos":5,"similarity":0.364,"stretto":false,"stretto_voices":0,"combination":[],"aug_dim":"","rhythm_ratio":1.0,"mirror":false,"chromatic_density":0.6,"complexity":0.489,"dissonance":0.1},{"voice":1,"pitch":76,"start":327.333,"duration":0.3333,"velocity":90,"measure":123,"beat":4.0,"subject_pos":-1,"motif":"","motif_pos":-1,"best_pos":5,"similarity":0.364,"stretto":false,"stretto_voices":0,"combination":[],"aug_dim":"","rhythm_ratio":1.0,"mirror":false,"chromatic_density":0.6,"complexity":0.489,"dissonance":0.1},{"voice":2,"pitch":64,"start":327.333,"duration":0.6667,"velocity":90,"measure":123,"beat":4.0,"subject_pos":-1,"motif":"","motif_pos":-1,"best_pos":4,"similarity":0.45,"stretto":false,"stretto_voices":0,"combination":[],"aug_dim":"","rhythm_ratio":1.0,"mirror":false,"chromatic_density":0.6,"complexity":0.489,"dissonance":0.1},{"voice":0,"pitch":79,"start":327.6663,"duration":0.3333,"velocity":90,"measure":123,"beat":4.5,"subject_pos":-1,"motif":"","motif_pos":-1,"best_pos":4,"similarity":0.336,"stretto":false,"stretto_voices":0,"combination":[],"aug_dim":"","rhythm_ratio":1.0,"mirror":false,"chromatic_density":0.6,"complexity":0.489,"dissonance":0.1},{"voice":1,"pitch":76,"start":327.6663,"duration":0.3333,"velocity":90,"measure":123,"beat":4.5,"subject_pos":-1,"motif":"","motif_pos":-1,"best_pos":4,"similarity":0.407,"stretto":false,"stretto_voices":0,"combination":[],"aug_dim":"","rhythm_ratio":1.0,"mirror":false,"chromatic_density":0.6,"complexity":0.489,"dissonance":0.1},{"voice":0,"pitch":79,"start":327.9997,"duration":0.3333,"velocity":90,"measure":124,"beat":1.0,"subject_pos":-1,"motif":"","motif_pos":-1,"best_pos":1,"similarity":0.321,"stretto":false,"stretto_voices":0,"combination":[],"aug_dim":"","rhythm_ratio":1.0,"mirror":false,"chromatic_density":0.583,"complexity":0.551,"dissonance":0.174},{"voice":1,"pitch":76,"start":327.9997,"duration":0.3333,"velocity":90,"measure":124,"beat":1.0,"subject_pos":-1,"motif":"","motif_pos":-1,"best_pos":3,"similarity":0.386,"stretto":false,"stretto_voices":0,"combination":[],"aug_dim":"","rhythm_ratio":1.0,"mirror":false,"chromatic_density":0.583,"complexity":0.551,"dissonance":0.174},{"voice":2,"pitch":65,"start":327.9997,"duration":0.6667,"velocity":90,"measure":124,"beat":1.0,"subject_pos":-1,"motif":"","motif_pos":-1,"best_pos":5,"similarity":0.579,"stretto":false,"stretto_voices":0,"combination":[],"aug_dim":"","rhythm_ratio":1.0,"mirror":false,"chromatic_density":0.583,"complexity":0.551,"dissonance":0.174},{"voice":0,"pitch":77,"start":328.333,"duration":0.3333,"velocity":90,"measure":124,"beat":1.5,"subject_pos":-1,"motif":"","motif_pos":-1,"best_pos":2,"similarity":0.393,"stretto":false,"stretto_voices":0,"combination":[],"aug_dim":"","rhythm_ratio":1.0,"mirror":false,"chromatic_density":0.583,"complexity":0.551,"dissonance":0.174},{"voice":1,"pitch":74,"start":328.333,"duration":0.3333,"velocity":90,"measure":124,"beat":1.5,"subject_pos":-1,"motif":"","motif_pos":-1,"best_pos":4,"similarity":0.532,"stretto":false,"stretto_voices":0,"combination":[],"aug_dim":"","rhythm_ratio":1.0,"mirror":false,"chromatic_density":0.583,"complexity":0.551,"dissonance":0.174},{"voice":0,"pitch":84,"start":328.6663,"duration":0.3333,"velocity":90,"measure":124,"beat":2.0,"subject_pos":-1,"motif":"","motif_pos":-1,"best_pos":1,"similarity":0.407,"stretto":false,"stretto_voices":0,"combination":[],"aug_dim":"","rhythm_ratio":1.0,"mirror":false,"chromatic_density":0.583,"complexity":0.551,"dissonance":0.174},{"voice":1,"pitch":75,"start":328.6663,"duration":0.3333,"velocity":90,"measure":124,"beat":2.0,"subject_pos":-1,"motif":"","motif_pos":-1,"best_pos":5,"similarity":0.507,"stretto":false,"stretto_voices":0,"combination":[],"aug_dim":"","rhythm_ratio":1.0,"mirror":false,"chromatic_density":0.583,"complexity":0.551,"dissonance":0.174},{"voice":2,"pitch":66,"start":328.6663,"duration":0.6667,"velocity":90,"measure":124,"beat":2.0,"subject_pos":-1,"motif":"","motif_pos":-1,"best_pos":5,"similarity":0.607,"stretto":false,"stretto_voices":0,"combination":[],"aug_dim":"","rhythm_ratio":1.0,"mirror":false,"chromatic_density":0.583,"complexity":0.551,"dissonance":0.174},{"voice":3,"pitch":57,"start":328.6663,"duration":0.6667,"velocity":90,"measure":124,"beat":2.0,"subject_pos":-1,"motif":"","motif_pos":-1,"best_pos":4,"similarity":0.593,"stretto":false,"stretto_voices":0,"combination":[],"aug_dim":"","rhythm_ratio":1.0,"mirror":false,"chromatic_density":0.583,"complexity":0.551,"dissonance":0.174},{"voice":0,"pitch":84,"start":328.9997,"duration":0.3333,"velocity":90,"measure":124,"beat":2.5,"subject_pos":-1,"motif":"","motif_pos":-1,"best_pos":4,"similarity":0.371,"stretto":false,"stretto_voices":0,"combination":[],"aug_dim":"","rhythm_ratio":1.0,"mirror":false,"chromatic_density":0.583,"complexity":0.551,"dissonance":0.174},{"voice":1,"pitch":75,"start":328.9997,"duration":0.3333,"velocity":90,"measure":124,"beat":2.5,"subject_pos":-1,"motif":"","motif_pos":-1,"best_pos":4,"similarity":0.421,"stretto":false,"stretto_voices":0,"combination":[],"aug_dim":"","rhythm_ratio":1.0,"mirror":false,"chromatic_density":0.583,"complexity":0.551,"dissonance":0.174},{"voice":0,"pitch":84,"start":329.333,"duration":0.3333,"velocity":90,"measure":124,"beat":3.0,"subject_pos":-1,"motif":"","motif_pos":-1,"best_pos":1,"similarity":0.357,"stretto":false,"stretto_voices":0,"combination":[],"aug_dim":"","rhythm_ratio":1.0,"mirror":false,"chromatic_density":0.583,"complexity":0.551,"dissonance":0.174},{"voice":1,"pitch":75,"start":329.333,"duration":0.3333,"velocity":90,"measure":124,"beat":3.0,"subject_pos":-1,"motif":"","motif_pos":-1,"best_pos":3,"similarity":0.446,"stretto":false,"stretto_voices":0,"combination":[],"aug_dim":"","rhythm_ratio":1.0,"mirror":false,"chromatic_density":0.583,"complexity":0.551,"dissonance":0.174},{"voice":2,"pitch":67,"start":329.333,"duration":0.6667,"velocity":90,"measure":124,"beat":3.0,"subject_pos":-1,"motif":"","motif_pos":-1,"best_pos":5,"similarity":0.614,"stretto":false,"stretto_voices":0,"combination":[],"aug_dim":"","rhythm_ratio":1.0,"mirror":false,"chromatic_density":0.583,"complexity":0.551,"dissonance":0.174},{"voice":3,"pitch":58,"start":329.333,"duration":0.6667,"velocity":90,"measure":124,"beat":3.0,"subject_pos":-1,"motif":"","motif_pos":-1,"best_pos":5,"similarity":0.65,"stretto":false,"stretto_voices":0,"combination":[],"aug_dim":"","rhythm_ratio":1.0,"mirror":false,"chromatic_density":0.583,"complexity":0.551,"dissonance":0.174},{"voice":0,"pitch":82,"start":329.6663,"duration":0.3333,"velocity":90,"measure":124,"beat":3.5,"subject_pos":-1,"motif":"","motif_pos":-1,"best_pos":2,"similarity":0.464,"stretto":false,"stretto_voices":0,"combination":[],"aug_dim":"","rhythm_ratio":1.0,"mirror":false,"chromatic_density":0.583,"complexity":0.551,"dissonance":0.174},{"voice":1,"pitch":74,"start":329.6663,"duration":0.3333,"velocity":90,"measure":124,"beat":3.5,"subject_pos":-1,"motif":"","motif_pos":-1,"best_pos":4,"similarity":0.532,"stretto":false,"stretto_voices":0,"combination":[],"aug_dim":"","rhythm_ratio":1.0,"mirror":false,"chromatic_density":0.583,"complexity":0.551,"dissonance":0.174},{"voice":0,"pitch":77,"start":329.9997,"duration":0.3333,"velocity":90,"measure":124,"beat":4.0,"subject_pos":-1,"motif":"","motif_pos":-1,"best_pos":3,"similarity":0.436,"stretto":false,"stretto_voices":0,"combination":[],"aug_dim":"","rhythm_ratio":1.0,"mirror":false,"chromatic_density":0.583,"complexity":0.551,"dissonance":0.174},{"voice":1,"pitch":74,"start":329.9997,"duration":0.3333,"velocity":90,"measure":124,"beat":4.0,"subject_pos":-1,"motif":"","motif_pos":-1,"best_pos":5,"similarity":0.436,"stretto":false,"stretto_voices":0,"combination":[],"aug_dim":"","rhythm_ratio":1.0,"mirror":false,"chromatic_density":0.583,"complexity":0.551,"dissonance":0.174},{"voice":2,"pitch":68,"start":329.9997,"duration":0.6667,"velocity":90,"measure":124,"beat":4.0,"subject_pos":-1,"motif":"","motif_pos":-1,"best_pos":6,"similarity":0.589,"stretto":false,"stretto_voices":0,"combination":[],"aug_dim":"","rhythm_ratio":1.0,"mirror":false,"chromatic_density":0.583,"complexity":0.551,"dissonance":0.174},{"voice":3,"pitch":59,"start":329.9997,"duration":0.6667,"velocity":90,"measure":124,"beat":4.0,"subject_pos":-1,"motif":"","motif_pos":-1,"best_pos":5,"similarity":0.614,"stretto":false,"stretto_voices":0,"combination":[],"aug_dim":"","rhythm_ratio":1.0,"mirror":false,"chromatic_density":0.583,"complexity":0.551,"dissonance":0.174},{"voice":0,"pitch":77,"start":330.333,"duration":0.3333,"velocity":90,"measure":124,"beat":4.5,"subject_pos":-1,"motif":"","motif_pos":-1,"best_pos":4,"similarity":0.443,"stretto":false,"stretto_voices":0,"combination":[],"aug_dim":"","rhythm_ratio":1.0,"mirror":false,"chromatic_density":0.583,"complexity":0.551,"dissonance":0.174},{"voice":1,"pitch":74,"start":330.333,"duration":0.3333,"velocity":90,"measure":124,"beat":4.5,"subject_pos":-1,"motif":"","motif_pos":-1,"best_pos":6,"similarity":0.357,"stretto":false,"stretto_voices":0,"combination":[],"aug_dim":"","rhythm_ratio":1.0,"mirror":false,"chromatic_density":0.583,"complexity":0.551,"dissonance":0.174},{"voice":0,"pitch":77,"start":330.6663,"duration":0.3333,"velocity":90,"measure":125,"beat":1.0,"subject_pos":-1,"motif":"","motif_pos":-1,"best_pos":3,"similarity":0.439,"stretto":false,"stretto_voices":0,"combination":[],"aug_dim":"","rhythm_ratio":1.0,"mirror":false,"chromatic_density":0.273,"complexity":0.637,"dissonance":0.096},{"voice":1,"pitch":74,"start":330.6663,"duration":0.3333,"velocity":90,"measure":125,"beat":1.0,"subject_pos":-1,"motif":"","motif_pos":-1,"best_pos":1,"similarity":0.357,"stretto":false,"stretto_voices":0,"combination":[],"aug_dim":"","rhythm_ratio":1.0,"mirror":false,"chromatic_density":0.273,"complexity":0.637,"dissonance":0.096},{"voice":2,"pitch":69,"start":330.6663,"duration":1.6667,"velocity":90,"measure":125,"beat":1.0,"subject_pos":-1,"motif":"","motif_pos":-1,"best_pos":7,"similarity":0.429,"stretto":false,"stretto_voices":0,"combination":[],"aug_dim":"","rhythm_ratio":1.0,"mirror":false,"chromatic_density":0.273,"complexity":0.637,"dissonance":0.096},{"voice":3,"pitch":60,"start":330.6663,"duration":0.6667,"velocity":90,"measure":125,"beat":1.0,"subject_pos":-1,"motif":"","motif_pos":-1,"best_pos":5,"similarity":0.614,"stretto":false,"stretto_voices":0,"combination":[],"aug_dim":"","rhythm_ratio":1.0,"mirror":false,"chromatic_density":0.273,"complexity":0.637,"dissonance":0.096},{"voice":0,"pitch":76,"start":330.9997,"duration":0.3333,"velocity":90,"measure":125,"beat":1.5,"subject_pos":-1,"motif":"","motif_pos":-1,"best_pos":4,"similarity":0.532,"stretto":false,"stretto_voices":0,"combination":[],"aug_dim":"","rhythm_ratio":1.0,"mirror":false,"chromatic_density":0.273,"complexity":0.637,"dissonance":0.096},{"voice":1,"pitch":72,"start":330.9997,"duration":0.3333,"velocity":90,"measure":125,"beat":1.5,"subject_pos":-1,"motif":"","motif_pos":-1,"best_pos":2,"similarity":0.436,"stretto":false,"stretto_voices":0,"combination":[],"aug_dim":"","rhythm_ratio":1.0,"mirror":false,"chromatic_density":0.273,"complexity":0.637,"dissonance":0.096},{"voice":0,"pitch":76,"start":331.333,"duration":0.3333,"velocity":90,"measure":125,"beat":2.0,"subject_pos":-1,"motif":"","motif_pos":-1,"best_pos":5,"similarity":0.436,"stretto":false,"stretto_voices":0,"combination":[],"aug_dim":"","rhythm_ratio":1.0,"mirror":false,"chromatic_density":0.273,"complexity":0.637,"dissonance":0.096},{"voice":1,"pitch":67,"start":331.333,"duration":0.3333,"velocity":90,"measure":125,"beat":2.0,"subject_pos":-1,"motif":"","motif_pos":-1,"best_pos":3,"similarity":0.371,"stretto":false,"stretto_voices":0,"combination":[],"aug_dim":"","rhythm_ratio":1.0,"mirror":false,"chromatic_density":0.273,"complexity":0.637,"dissonance":0.096},{"voice":3,"pitch":61,"start":331.333,"duration":0.6667,"velocity":90,"measure":125,"beat":2.0,"subject_pos":-1,"motif":"","motif_pos":-1,"best_pos":6,"similarity":0.589,"stretto":false,"stretto_voices":0,"combination":[],"aug_dim":"","rhythm_ratio":1.0,"mirror":false,"chromatic_density":0.273,"complexity":0.637,"dissonance":0.096},{"voice":0,"pitch":76,"start":331.6663,"duration":0.3333,"velocity":90,"measure":125,"beat":2.5,"subject_pos":-1,"motif":"","motif_pos":-1,"best_pos":6,"similarity":0.357,"stretto":false,"stretto_voices":0,"combination":[],"aug_dim":"","rhythm_ratio":1.0,"mirror":false,"chromatic_density":0.273,"complexity":0.637,"dissonance":0.096},{"voice":1,"pitch":67,"start":331.6663,"duration":0.3333,"velocity":90,"measure":125,"beat":2.5,"subject_pos":-1,"motif":"","motif_pos":-1,"best_pos":1,"similarity":0.321,"stretto":false,"stretto_voices":0,"combination":[],"aug_dim":"","rhythm_ratio":1.0,"mirror":false,"chromatic_density":0.273,"complexity":0.637,"dissonance":0.096},{"voice":0,"pitch":76,"start":331.9997,"duration":0.3333,"velocity":90,"measure":125,"beat":3.0,"subject_pos":-1,"motif":"","motif_pos":-1,"best_pos":1,"similarity":0.321,"stretto":false,"stretto_voices":0,"combination":[],"aug_dim":"","rhythm_ratio":1.0,"mirror":false,"chromatic_density":0.273,"complexity":0.637,"dissonance":0.096},{"voice":1,"pitch":65,"start":331.9997,"duration":0.6667,"velocity":90,"measure":125,"beat":3.0,"subject_pos":-1,"motif":"","motif_pos":-1,"best_pos":2,"similarity":0.357,"stretto":false,"stretto_voices":0,"combination":[],"aug_dim":"","rhythm_ratio":1.0,"mirror":false,"chromatic_density":0.273,"complexity":0.637,"dissonance":0.096},{"voice":3,"pitch":62,"start":331.9997,"duration":2.0,"velocity":90,"measure":125,"beat":3.0,"subject_pos":-1,"motif":"","motif_pos":-1,"best_pos":5,"similarity":0.471,"stretto":false,"stretto_voices":0,"combination":[],"aug_dim":"","rhythm_ratio":1.0,"mirror":false,"chromatic_density":0.273,"complexity":0.637,"dissonance":0.096},{"voice":0,"pitch":74,"start":332.333,"duration":0.3333,"velocity":90,"measure":125,"beat":3.5,"subject_pos":-1,"motif":"","motif_pos":-1,"best_pos":2,"similarity":0.357,"stretto":false,"stretto_voices":0,"combination":[],"aug_dim":"","rhythm_ratio":1.0,"mirror":false,"chromatic_density":0.273,"complexity":0.637,"dissonance":0.096},{"voice":2,"pitch":65,"start":332.333,"duration":0.3333,"velocity":90,"measure":125,"beat":3.5,"subject_pos":-1,"motif":"","motif_pos":-1,"best_pos":2,"similarity":0.407,"stretto":false,"stretto_voices":0,"combination":[],"aug_dim":"","rhythm_ratio":1.0,"mirror":false,"chromatic_density":0.273,"complexity":0.637,"dissonance":0.096},{"voice":0,"pitch":82,"start":332.6663,"duration":0.3333,"velocity":90,"measure":125,"beat":4.0,"subject_pos":-1,"motif":"","motif_pos":-1,"best_pos":3,"similarity":0.321,"stretto":false,"stretto_voices":0,"combination":[],"aug_dim":"","rhythm_ratio":1.0,"mirror":false,"chromatic_density":0.273,"complexity":0.637,"dissonance":0.096},{"voice":1,"pitch":74,"start":332.6663,"duration":0.3333,"velocity":90,"measure":125,"beat":4.0,"subject_pos":-1,"motif":"","motif_pos":-1,"best_pos":3,"similarity":0.286,"stretto":false,"stretto_voices":0,"combination":[],"aug_dim":"","rhythm_ratio":1.0,"mirror":false,"chromatic_density":0.273,"complexity":0.637,"dissonance":0.096},{"voice":2,"pitch":67,"start":332.6663,"duration":0.3333,"velocity":90,"measure":125,"beat":4.0,"subject_pos":-1,"motif":"","motif_pos":-1,"best_pos":6,"similarity":0.446,"stretto":false,"stretto_voices":0,"combination":[],"aug_dim":"","rhythm_ratio":1.0,"mirror":false,"chromatic_density":0.273,"complexity":0.637,"dissonance":0.096},{"voice":0,"pitch":82,"start":332.9997,"duration":0.3333,"velocity":90,"measure":125,"beat":4.5,"subject_pos":-1,"motif":"","motif_pos":-1,"best_pos":5,"similarity":0.321,"stretto":false,"stretto_voices":0,"combination":[],"aug_dim":"","rhythm_ratio":1.0,"mirror":false,"chromatic_density":0.273,"complexity":0.637,"dissonance":0.096},{"voice":1,"pitch":74,"start":332.9997,"duration":0.3333,"velocity":90,"measure":125,"beat":4.5,"subject_pos":-1,"motif":"","motif_pos":-1,"best_pos":1,"similarity":0.436,"stretto":false,"stretto_voices":0,"combination":[],"aug_dim":"","rhythm_ratio":1.0,"mirror":false,"chromatic_density":0.273,"complexity":0.637,"dissonance":0.096},{"voice":2,"pitch":67,"start":332.9997,"duration":0.3333,"velocity":90,"measure":125,"beat":4.5,"subject_pos":-1,"motif":"","motif_pos":-1,"best_pos":4,"similarity":0.429,"stretto":false,"stretto_voices":0,"combination":[],"aug_dim":"","rhythm_ratio":1.0,"mirror":false,"chromatic_density":0.273,"complexity":0.637,"dissonance":0.096},{"voice":0,"pitch":73,"start":333.333,"duration":0.6667,"velocity":90,"measure":126,"beat":1.0,"subject_pos":-1,"motif":"","motif_pos":-1,"best_pos":6,"similarity":0.357,"stretto":false,"stretto_voices":0,"combination":[],"aug_dim":"","rhythm_ratio":1.0,"mirror":false,"chromatic_density":0.357,"complexity":0.557,"dissonance":0.057},{"voice":1,"pitch":70,"start":333.333,"duration":0.3333,"velocity":90,"measure":126,"beat":1.0,"subject_pos":-1,"motif":"","motif_pos":-1,"best_pos":2,"similarity":0.604,"stretto":false,"stretto_voices":0,"combination":[],"aug_dim":"","rhythm_ratio":1.0,"mirror":false,"chromatic_density":0.357,"complexity":0.557,"dissonance":0.057},{"voice":2,"pitch":67,"start":333.333,"duration":0.3333,"velocity":90,"measure":126,"beat":1.0,"subject_pos":-1,"motif":"","motif_pos":-1,"best_pos":2,"similarity":0.429,"stretto":false,"stretto_voices":0,"combination":[],"aug_dim":"","rhythm_ratio":1.0,"mirror":false,"chromatic_density":0.357,"complexity":0.557,"dissonance":0.057},{"voice":1,"pitch":67,"start":333.6663,"duration":0.3333,"velocity":90,"measure":126,"beat":1.5,"subject_pos":-1,"motif":"","motif_pos":-1,"best_pos":3,"similarity":0.529,"stretto":false,"stretto_voices":0,"combination":[],"aug_dim":"","rhythm_ratio":1.0,"mirror":false,"chromatic_density":0.357,"complexity":0.557,"dissonance":0.057},{"voice":2,"pitch":64,"start":333.6663,"duration":0.3333,"velocity":90,"measure":126,"beat":1.5,"subject_pos":-1,"motif":"","motif_pos":-1,"best_pos":3,"similarity":0.482,"stretto":false,"stretto_voices":0,"combination":[],"aug_dim":"","rhythm_ratio":1.0,"mirror":false,"chromatic_density":0.357,"complexity":0.557,"dissonance":0.057},{"voice":0,"pitch":74,"start":333.9997,"duration":0.6667,"velocity":90,"measure":126,"beat":2.0,"subject_pos":-1,"motif":"","motif_pos":-1,"best_pos":7,"similarity":0.321,"stretto":false,"stretto_voices":0,"combination":[],"aug_dim":"","rhythm_ratio":1.0,"mirror":false,"chromatic_density":0.357,"complexity":0.557,"dissonance":0.057},{"voice":1,"pitch":69,"start":333.9997,"duration":0.6667,"velocity":90,"measure":126,"beat":2.0,"subject_pos":-1,"motif":"","motif_pos":-1,"best_pos":3,"similarity":0.507,"stretto":false,"stretto_voices":0,"combination":[],"aug_dim":"","rhythm_ratio":1.0,"mirror":false,"chromatic_density":0.357,"complexity":0.557,"dissonance":0.057},{"voice":2,"pitch":65,"start":333.9997,"duration":0.3333,"velocity":90,"measure":126,"beat":2.0,"subject_pos":-1,"motif":"","motif_pos":-1,"best_pos":5,"similarity":0.471,"stretto":false,"stretto_voices":0,"combination":[],"aug_dim":"","rhythm_ratio":1.0,"mirror":false,"chromatic_density":0.357,"complexity":0.557,"dissonance":0.057},{"voice":3,"pitch":62,"start":333.9997,"duration":0.3333,"velocity":90,"measure":126,"beat":2.0,"subject_pos":-1,"motif":"","motif_pos":-1,"best_pos":6,"similarity":0.375,"stretto":false,"stretto_voices":0,"combination":[],"aug_dim":"","rhythm_ratio":1.0,"mirror":false,"chromatic_density":0.357,"complexity":0.557,"dissonance":0.057},{"voice":2,"pitch":65,"start":334.333,"duration":0.3333,"velocity":90,"measure":126,"beat":2.5,"subject_pos":-1,"motif":"","motif_pos":-1,"best_pos":6,"similarity":0.375,"stretto":false,"stretto_voices":0,"combination":[],"aug_dim":"","rhythm_ratio":1.0,"mirror":false,"chromatic_density":0.357,"complexity":0.557,"dissonance":0.057},{"voice":3,"pitch":62,"start":334.333,"duration":0.3333,"velocity":90,"measure":126,"beat":2.5,"subject_pos":-1,"motif":"","motif_pos":-1,"best_pos":4,"similarity":0.379,"stretto":false,"stretto_voices":0,"combination":[],"aug_dim":"","rhythm_ratio":1.0,"mirror":false,"chromatic_density":0.357,"complexity":0.557,"dissonance":0.057},{"voice":0,"pitch":71,"start":334.6663,"duration":0.6667,"velocity":90,"measure":126,"beat":3.0,"subject_pos":-1,"motif":"","motif_pos":-1,"best_pos":3,"similarity":0.307,"stretto":false,"stretto_voices":0,"combination":[],"aug_dim":"","rhythm_ratio":1.0,"mirror":false,"chromatic_density":0.357,"complexity":0.557,"dissonance":0.057},{"voice":1,"pitch":68,"start":334.6663,"duration":0.6667,"velocity":90,"measure":126,"beat":3.0,"subject_pos":-1,"motif":"","motif_pos":-1,"best_pos":4,"similarity":0.639,"stretto":false,"stretto_voices":0,"combination":[],"aug_dim":"","rhythm_ratio":1.0,"mirror":false,"chromatic_density":0.357,"complexity":0.557,"dissonance":0.057},{"voice":2,"pitch":65,"start":334.6663,"duration":0.3333,"velocity":90,"measure":126,"beat":3.0,"subject_pos":-1,"motif":"","motif_pos":-1,"best_pos":2,"similarity":0.407,"stretto":false,"stretto_voices":0,"combination":[],"aug_dim":"","rhythm_ratio":1.0,"mirror":false,"chromatic_density":0.357,"complexity":0.557,"dissonance":0.057},{"voice":3,"pitch":62,"start":334.6663,"duration":0.3333,"velocity":90,"measure":126,"beat":3.0,"subject_pos":-1,"motif":"","motif_pos":-1,"best_pos":2,"similarity":0.429,"stretto":false,"stretto_voices":0,"combination":[],"aug_dim":"","rhythm_ratio":1.0,"mirror":false,"chromatic_density":0.357,"complexity":0.557,"dissonance":0.057},{"voice":2,"pitch":62,"start":334.9997,"duration":0.3333,"velocity":90,"measure":126,"beat":3.5,"subject_pos":-1,"motif":"","motif_pos":-1,"best_pos":5,"similarity":0.464,"stretto":false,"stretto_voices":0,"combination":[],"aug_dim":"","rhythm_ratio":1.0,"mirror":false,"chromatic_density":0.357,"complexity":0.557,"dissonance":0.057},{"voice":3,"pitch":59,"start":334.9997,"duration":0.3333,"velocity":90,"measure":126,"beat":3.5,"subject_pos":-1,"motif":"","motif_pos":-1,"best_pos":3,"similarity":0.482,"stretto":false,"stretto_voices":0,"combination":[],"aug_dim":"","rhythm_ratio":1.0,"mirror":false,"chromatic_density":0.357,"complexity":0.557,"dissonance":0.057},{"voice":0,"pitch":76,"start":335.333,"duration":0.6667,"velocity":90,"measure":126,"beat":4.0,"subject_pos":-1,"motif":"","motif_pos":-1,"best_pos":1,"similarity":0.321,"stretto":false,"stretto_voices":0,"combination":[],"aug_dim":"","rhythm_ratio":1.0,"mirror":false,"chromatic_density":0.357,"complexity":0.557,"dissonance":0.057},{"voice":1,"pitch":69,"start":335.333,"duration":0.3333,"velocity":90,"measure":126,"beat":4.0,"subject_pos":-1,"motif":"","motif_pos":-1,"best_pos":5,"similarity":0.493,"stretto":false,"stretto_voices":0,"combination":[],"aug_dim":"","rhythm_ratio":1.0,"mirror":false,"chromatic_density":0.357,"complexity":0.557,"dissonance":0.057},{"voice":2,"pitch":64,"start":335.333,"duration":0.3333,"velocity":90,"measure":126,"beat":4.0,"subject_pos":-1,"motif":"","motif_pos":-1,"best_pos":6,"similarity":0.479,"stretto":false,"stretto_voices":0,"combination":[],"aug_dim":"","rhythm_ratio":1.0,"mirror":false,"chromatic_density":0.357,"complexity":0.557,"dissonance":0.057},{"voice":3,"pitch":60,"start":335.333,"duration":0.3333,"velocity":90,"measure":126,"beat":4.0,"subject_pos":-1,"motif":"","motif_pos":-1,"best_pos":5,"similarity":0.471,"stretto":false,"stretto_voices":0,"combination":[],"aug_dim":"","rhythm_ratio":1.0,"mirror":false,"chromatic_density":0.357,"complexity":0.557,"dissonance":0.057},{"voice":1,"pitch":67,"start":335.6663,"duration":0.3333,"velocity":90,"measure":126,"beat":4.5,"subject_pos":-1,"motif":"","motif_pos":-1,"best_pos":3,"similarity":0.55,"stretto":false,"stretto_voices":0,"combination":[],"aug_dim":"","rhythm_ratio":1.0,"mirror":false,"chromatic_density":0.357,"complexity":0.557,"dissonance":0.057},{"voice":2,"pitch":64,"start":335.6663,"duration":0.3333,"velocity":90,"measure":126,"beat":4.5,"subject_pos":-1,"motif":"","motif_pos":-1,"best_pos":4,"similarity":0.357,"stretto":false,"stretto_voices":0,"combination":[],"aug_dim":"","rhythm_ratio":1.0,"mirror":false,"chromatic_density":0.357,"complexity":0.557,"dissonance":0.057},{"voice":3,"pitch":60,"start":335.6663,"duration":0.3333,"velocity":90,"measure":126,"beat":4.5,"subject_pos":-1,"motif":"","motif_pos":-1,"best_pos":6,"similarity":0.375,"stretto":false,"stretto_voices":0,"combination":[],"aug_dim":"","rhythm_ratio":1.0,"mirror":false,"chromatic_density":0.357,"complexity":0.557,"dissonance":0.057},{"voice":0,"pitch":69,"start":335.9997,"duration":0.6667,"velocity":90,"measure":127,"beat":1.0,"subject_pos":-1,"motif":"","motif_pos":-1,"best_pos":0,"similarity":0.307,"stretto":false,"stretto_voices":0,"combination":[],"aug_dim":"","rhythm_ratio":1.0,"mirror":false,"chromatic_density":0.154,"complexity":0.641,"dissonance":0.165},{"voice":1,"pitch":66,"start":335.9997,"duration":0.6667,"velocity":90,"measure":127,"beat":1.0,"subject_pos":-1,"motif":"","motif_pos":-1,"best_pos":4,"similarity":0.586,"stretto":false,"stretto_voices":0,"combination":[],"aug_dim":"","rhythm_ratio":1.0,"mirror":false,"chromatic_density":0.154,"complexity":0.641,"dissonance":0.165},{"voice":2,"pitch":64,"start":335.9997,"duration":0.3333,"velocity":90,"measure":127,"beat":1.0,"subject_pos":-1,"motif":"","motif_pos":-1,"best_pos":4,"similarity":0.343,"stretto":false,"stretto_voices":0,"combination":[],"aug_dim":"","rhythm_ratio":1.0,"mirror":false,"chromatic_density":0.154,"complexity":0.641,"dissonance":0.165},{"voice":3,"pitch":60,"start":335.9997,"duration":0.3333,"velocity":90,"measure":127,"beat":1.0,"subject_pos":-1,"motif":"","motif_pos":-1,"best_pos":2,"similarity":0.407,"stretto":false,"stretto_voices":0,"combination":[],"aug_dim":"","rhythm_ratio":1.0,"mirror":false,"chromatic_density":0.154,"complexity":0.641,"dissonance":0.165},{"voice":2,"pitch":60,"start":336.333,"duration":0.3333,"velocity":90,"measure":127,"beat":1.5,"subject_pos":-1,"motif":"","motif_pos":-1,"best_pos":5,"similarity":0.436,"stretto":false,"stretto_voices":0,"combination":[],"aug_dim":"","rhythm_ratio":1.0,"mirror":false,"chromatic_density":0.154,"complexity":0.641,"dissonance":0.165},{"voice":3,"pitch":57,"start":336.333,"duration":0.3333,"velocity":90,"measure":127,"beat":1.5,"subject_pos":-1,"motif":"","motif_pos":-1,"best_pos":5,"similarity":0.464,"stretto":false,"stretto_voices":0,"combination":[],"aug_dim":"","rhythm_ratio":1.0,"mirror":false,"chromatic_density":0.154,"complexity":0.641,"dissonance":0.165},{"voice":0,"pitch":74,"start":336.6663,"duration":0.3333,"velocity":90,"measure":127,"beat":2.0,"subject_pos":-1,"motif":"","motif_pos":-1,"best_pos":5,"similarity":0.457,"stretto":false,"stretto_voices":0,"combination":[],"aug_dim":"","rhythm_ratio":1.0,"mirror":false,"chromatic_density":0.154,"complexity":0.641,"dissonance":0.165},{"voice":1,"pitch":68,"start":336.6663,"duration":1.0,"velocity":90,"measure":127,"beat":2.0,"subject_pos":-1,"motif":"","motif_pos":-1,"best_pos":5,"similarity":0.479,"stretto":false,"stretto_voices":0,"combination":[],"aug_dim":"","rhythm_ratio":1.0,"mirror":false,"chromatic_density":0.154,"complexity":0.641,"dissonance":0.165},{"voice":2,"pitch":62,"start":336.6663,"duration":0.3333,"velocity":90,"measure":127,"beat":2.0,"subject_pos":-1,"motif":"","motif_pos":-1,"best_pos":6,"similarity":0.464,"stretto":false,"stretto_voices":0,"combination":[],"aug_dim":"","rhythm_ratio":1.0,"mirror":false,"chromatic_density":0.154,"complexity":0.641,"dissonance":0.165},{"voice":3,"pitch":59,"start":336.6663,"duration":0.3333,"velocity":90,"measure":127,"beat":2.0,"subject_pos":-1,"motif":"","motif_pos":-1,"best_pos":6,"similarity":0.479,"stretto":false,"stretto_voices":0,"combination":[],"aug_dim":"","rhythm_ratio":1.0,"mirror":false,"chromatic_density":0.154,"complexity":0.641,"dissonance":0.165},{"voice":0,"pitch":76,"start":336.9997,"duration":0.3333,"velocity":90,"measure":127,"beat":2.5,"subject_pos":-1,"motif":"","motif_pos":-1,"best_pos":6,"similarity":0.586,"stretto":false,"stretto_voices":0,"combination":[],"aug_dim":"","rhythm_ratio":1.0,"mirror":false,"chromatic_density":0.154,"complexity":0.641,"dissonance":0.165},{"voice":2,"pitch":62,"start":336.9997,"duration":0.3333,"velocity":90,"measure":127,"beat":2.5,"subject_pos":-1,"motif":"","motif_pos":-1,"best_pos":4,"similarity":0.379,"stretto":false,"stretto_voices":0,"combination":[],"aug_dim":"","rhythm_ratio":1.0,"mirror":false,"chromatic_density":0.154,"complexity":0.641,"dissonance":0.165},{"voice":3,"pitch":59,"start":336.9997,"duration":0.3333,"velocity":90,"measure":127,"beat":2.5,"subject_pos":-1,"motif":"","motif_pos":-1,"best_pos":4,"similarity":0.393,"stretto":false,"stretto_voices":0,"combination":[],"aug_dim":"","rhythm_ratio":1.0,"mirror":false,"chromatic_density":0.154,"complexity":0.641,"dissonance":0.165},{"voice":0,"pitch":77,"start":337.333,"duration":1.6667,"velocity":90,"measure":127,"beat":3.0,"subject_pos":-1,"motif":"","motif_pos":-1,"best_pos":7,"similarity":0.436,"stretto":false,"stretto_voices":0,"combination":[],"aug_dim":"","rhythm_ratio":1.0,"mirror":false,"chromatic_density":0.154,"complexity":0.641,"dissonance":0.165},{"voice":2,"pitch":62,"start":337.333,"duration":2.0,"velocity":90,"measure":127,"beat":3.0,"subject_pos":-1,"motif":"","motif_pos":-1,"best_pos":1,"similarity":0.286,"stretto":false,"stretto_voices":0,"combination":[],"aug_dim":"","rhythm_ratio":1.0,"mirror":false,"chromatic_density":0.154,"complexity":0.641,"dissonance":0.165},{"voice":3,"pitch":59,"start":337.333,"duration":0.3333,"velocity":90,"measure":127,"beat":3.0,"subject_pos":-1,"motif":"","motif_pos":-1,"best_pos":2,"similarity":0.429,"stretto":false,"stretto_voices":0,"combination":[],"aug_dim":"","rhythm_ratio":1.0,"mirror":false,"chromatic_density":0.154,"complexity":0.641,"dissonance":0.165},{"voice":1,"pitch":71,"start":337.6663,"duration":0.3333,"velocity":90,"measure":127,"beat":3.5,"subject_pos":-1,"motif":"","motif_pos":-1,"best_pos":1,"similarity":0.429,"stretto":false,"stretto_voices":0,"combination":[],"aug_dim":"","rhythm_ratio":1.0,"mirror":false,"chromatic_density":0.154,"complexity":0.641,"dissonance":0.165},{"voice":3,"pitch":56,"start":337.6663,"duration":0.3333,"velocity":90,"measure":127,"beat":3.5,"subject_pos":-1,"motif":"","motif_pos":-1,"best_pos":3,"similarity":0.471,"stretto":false,"stretto_voices":0,"combination":[],"aug_dim":"","rhythm_ratio":1.0,"mirror":false,"chromatic_density":0.154,"complexity":0.641,"dissonance":0.165},{"voice":1,"pitch":69,"start":337.9997,"duration":0.3333,"velocity":90,"measure":127,"beat":4.0,"subject_pos":-1,"motif":"","motif_pos":-1,"best_pos":2,"similarity":0.471,"stretto":false,"stretto_voices":0,"combination":[],"aug_dim":"","rhythm_ratio":1.0,"mirror":false,"chromatic_density":0.154,"complexity":0.641,"dissonance":0.165},{"voice":3,"pitch":57,"start":337.9997,"duration":0.3333,"velocity":90,"measure":127,"beat":4.0,"subject_pos":-1,"motif":"","motif_pos":-1,"best_pos":4,"similarity":0.461,"stretto":false,"stretto_voices":0,"combination":[],"aug_dim":"","rhythm_ratio":1.0,"mirror":false,"chromatic_density":0.154,"complexity":0.641,"dissonance":0.165},{"voice":1,"pitch":72,"start":338.333,"duration":0.3333,"velocity":90,"measure":127,"beat":4.5,"subject_pos":-1,"motif":"","motif_pos":-1,"best_pos":3,"similarity":0.468,"stretto":false,"stretto_voices":0,"combination":[],"aug_dim":"","rhythm_ratio":1.0,"mirror":false,"chromatic_density":0.154,"complexity":0.641,"dissonance":0.165},{"voice":3,"pitch":57,"start":338.333,"duration":0.3333,"velocity":90,"measure":127,"beat":4.5,"subject_pos":-1,"motif":"","motif_pos":-1,"best_pos":3,"similarity":0.471,"stretto":false,"stretto_voices":0,"combination":[],"aug_dim":"","rhythm_ratio":1.0,"mirror":false,"chromatic_density":0.154,"complexity":0.641,"dissonance":0.165},{"voice":1,"pitch":71,"start":338.6663,"duration":0.6667,"velocity":90,"measure":128,"beat":1.0,"subject_pos":-1,"motif":"","motif_pos":-1,"best_pos":2,"similarity":0.536,"stretto":false,"stretto_voices":0,"combination":[],"aug_dim":"","rhythm_ratio":1.0,"mirror":false,"chromatic_density":0.25,"complexity":0.629,"dissonance":0.1},{"voice":3,"pitch":56,"start":338.6663,"duration":0.6667,"velocity":90,"measure":128,"beat":1.0,"subject_pos":-1,"motif":"enigmatic_cell","motif_pos":0,"best_pos":0,"similarity":1.0,"stretto":false,"stretto_voices":0,"combination":[],"aug_dim":"","rhythm_ratio":1.0,"mirror":false,"chromatic_density":0.25,"complexity":0.629,"dissonance":0.1},{"voice":0,"pitch":76,"start":338.9997,"duration":0.6667,"velocity":90,"measure":128,"beat":1.5,"subject_pos":-1,"motif":"","motif_pos":-1,"best_pos":1,"similarity":0.429,"stretto":false,"stretto_voices":0,"combination":[],"aug_dim":"","rhythm_ratio":1.0,"mirror":false,"chromatic_density":0.25,"complexity":0.629,"dissonance":0.1},{"voice":1,"pitch":69,"start":339.333,"duration":1.3333,"velocity":90,"measure":128,"beat":2.0,"subject_pos":-1,"motif":"","motif_pos":-1,"best_pos":3,"similarity":0.668,"stretto":false,"stretto_voices":0,"combination":[],"aug_dim":"","rhythm_ratio":1.0,"mirror":false,"chromatic_density":0.25,"complexity":0.629,"dissonance":0.1},{"voice":2,"pitch":60,"start":339.333,"duration":0.6667,"velocity":90,"measure":128,"beat":2.0,"subject_pos":-1,"motif":"","motif_pos":-1,"best_pos":2,"similarity":0.357,"stretto":false,"stretto_voices":0,"combination":[],"aug_dim":"","rhythm_ratio":1.0,"mirror":false,"chromatic_density":0.25,"complexity":0.629,"dissonance":0.1},{"voice":3,"pitch":57,"start":339.333,"duration":0.6667,"velocity":90,"measure":128,"beat":2.0,"subject_pos":-1,"motif":"enigmatic_cell","motif_pos":1,"best_pos":1,"similarity":1.0,"stretto":false,"stretto_voices":0,"combination":[],"aug_dim":"","rhythm_ratio":1.0,"mirror":false,"chromatic_density":0.25,"complexity":0.629,"dissonance":0.1},{"voice":0,"pitch":74,"start":339.6663,"duration":0.3333,"velocity":90,"measure":128,"beat":2.5,"subject_pos":-1,"motif":"","motif_pos":-1,"best_pos":2,"similarity":0.579,"stretto":false,"stretto_voices":0,"combination":[],"aug_dim":"","rhythm_ratio":1.0,"mirror":false,"chromatic_density":0.25,"complexity":0.629,"dissonance":0.1},{"voice":0,"pitch":72,"start":339.9997,"duration":0.3333,"velocity":90,"measure":128,"beat":3.0,"subject_pos":-1,"motif":"","motif_pos":-1,"best_pos":3,"similarity":0.657,"stretto":false,"stretto_voices":0,"combination":[],"aug_dim":"","rhythm_ratio":1.0,"mirror":false,"chromatic_density":0.25,"complexity":0.629,"dissonance":0.1},{"voice":2,"pitch":65,"start":339.9997,"duration":0.6667,"velocity":90,"measure":128,"beat":3.0,"subject_pos":-1,"motif":"","motif_pos":-1,"best_pos":1,"similarity":0.379,"stretto":false,"stretto_voices":0,"combination":[],"aug_dim":"","rhythm_ratio":1.0,"mirror":false,"chromatic_density":0.25,"complexity":0.629,"dissonance":0.1},{"voice":3,"pitch":50,"start":339.9997,"duration":0.6667,"velocity":90,"measure":128,"beat":3.0,"subject_pos":-1,"motif":"enigmatic_cell","motif_pos":2,"best_pos":2,"similarity":1.0,"stretto":false,"stretto_voices":0,"combination":[],"aug_dim":"","rhythm_ratio":1.0,"mirror":false,"chromatic_density":0.25,"complexity":0.629,"dissonance":0.1},{"voice":0,"pitch":71,"start":340.333,"duration":0.5,"velocity":90,"measure":128,"beat":3.5,"subject_pos":-1,"motif":"","motif_pos":-1,"best_pos":4,"similarity":0.607,"stretto":false,"stretto_voices":0,"combination":[],"aug_dim":"","rhythm_ratio":1.0,"mirror":false,"chromatic_density":0.25,"complexity":0.629,"dissonance":0.1},{"voice":1,"pitch":68,"start":340.6663,"duration":0.6667,"velocity":90,"measure":128,"beat":4.0,"subject_pos":-1,"motif":"","motif_pos":-1,"best_pos":4,"similarity":0.711,"stretto":false,"stretto_voices":0,"combination":[],"aug_dim":"","rhythm_ratio":1.0,"mirror":false,"chromatic_density":0.25,"complexity":0.629,"dissonance":0.1},{"voice":2,"pitch":59,"start":340.6663,"duration":0.6667,"velocity":90,"measure":128,"beat":4.0,"subject_pos":-1,"motif":"","motif_pos":-1,"best_pos":4,"similarity":0.536,"stretto":false,"stretto_voices":0,"combination":[],"aug_dim":"","rhythm_ratio":1.0,"mirror":false,"chromatic_density":0.25,"complexity":0.629,"dissonance":0.1},{"voice":3,"pitch":52,"start":340.6663,"duration":0.6667,"velocity":90,"measure":128,"beat":4.0,"subject_pos":-1,"motif":"","motif_pos":-1,"best_pos":6,"similarity":0.304,"stretto":false,"stretto_voices":0,"combination":[],"aug_dim":"","rhythm_ratio":1.0,"mirror":false,"chromatic_density":0.25,"complexity":0.629,"dissonance":0.1},{"voice":0,"pitch":69,"start":340.833,"duration":0.1667,"velocity":90,"measure":128,"beat":4.25,"subject_pos":-1,"motif":"","motif_pos":-1,"best_pos":5,"similarity":0.507,"stretto":false,"stretto_voices":0,"combination":[],"aug_dim":"","rhythm_ratio":1.0,"mirror":false,"chromatic_density":0.25,"complexity":0.629,"dissonance":0.1},{"voice":0,"pitch":71,"start":340.9997,"duration":0.3333,"velocity":90,"measure":128,"beat":4.5,"subject_pos":-1,"motif":"","motif_pos":-1,"best_pos":6,"similarity":0.4,"stretto":false,"stretto_voices":0,"combination":[],"aug_dim":"","rhythm_ratio":1.0,"mirror":false,"chromatic_density":0.25,"complexity":0.629,"dissonance":0.1},{"voice":0,"pitch":69,"start":341.333,"duration":1.3333,"velocity":90,"measure":129,"beat":1.0,"subject_pos":-1,"motif":"","motif_pos":-1,"best_pos":3,"similarity":0.604,"stretto":false,"stretto_voices":0,"combination":[],"aug_dim":"","rhythm_ratio":1.0,"mirror":false,"chromatic_density":0.5,"complexity":0.529,"dissonance":0.147},{"voice":1,"pitch":69,"start":341.333,"duration":0.6667,"velocity":90,"measure":129,"beat":1.0,"subject_pos":-1,"motif":"","motif_pos":-1,"best_pos":5,"similarity":0.529,"stretto":false,"stretto_voices":0,"combination":[],"aug_dim":"","rhythm_ratio":1.0,"mirror":false,"chromatic_density":0.5,"complexity":0.529,"dissonance":0.147},{"voice":2,"pitch":60,"start":341.333,"duration":0.3333,"velocity":90,"measure":129,"beat":1.0,"subject_pos":-1,"motif":"","motif_pos":-1,"best_pos":5,"similarity":0.643,"stretto":false,"stretto_voices":0,"combination":[],"aug_dim":"","rhythm_ratio":1.0,"mirror":false,"chromatic_density":0.5,"complexity":0.529,"dissonance":0.147},{"voice":3,"pitch":45,"start":341.333,"duration":3.3333,"velocity":90,"measure":129,"beat":1.0,"subject_pos":-1,"motif":"","motif_pos":-1,"best_pos":2,"similarity":0.15,"stretto":false,"stretto_voices":0,"combination":[],"aug_dim":"","rhythm_ratio":1.0,"mirror":false,"chromatic_density":0.5,"complexity":0.529,"dissonance":0.147},{"voice":2,"pitch":62,"start":341.6663,"duration":0.3333,"velocity":90,"measure":129,"beat":1.5,"subject_pos":-1,"motif":"","motif_pos":-1,"best_pos":6,"similarity":0.571,"stretto":false,"stretto_voices":0,"combination":[],"aug_dim":"","rhythm_ratio":1.0,"mirror":false,"chromatic_density":0.5,"complexity":0.529,"dissonance":0.147},{"voice":1,"pitch":67,"start":341.9997,"duration":0.6667,"velocity":90,"measure":129,"beat":2.0,"subject_pos":-1,"motif":"","motif_pos":-1,"best_pos":2,"similarity":0.532,"stretto":false,"stretto_voices":0,"combination":[],"aug_dim":"","rhythm_ratio":1.0,"mirror":false,"chromatic_density":0.5,"complexity":0.529,"dissonance":0.147},{"voice":2,"pitch":64,"start":341.9997,"duration":0.3333,"velocity":90,"measure":129,"beat":2.0,"subject_pos":-1,"motif":"","motif_pos":-1,"best_pos":6,"similarity":0.518,"stretto":false,"stretto_voices":0,"combination":[],"aug_dim":"","rhythm_ratio":1.0,"mirror":false,"chromatic_density":0.5,"complexity":0.529,"dissonance":0.147},{"voice":2,"pitch":64,"start":342.333,"duration":0.3333,"velocity":90,"measure":129,"beat":2.5,"subject_pos":-1,"motif":"","motif_pos":-1,"best_pos":4,"similarity":0.364,"stretto":false,"stretto_voices":0,"combination":[],"aug_dim":"","rhythm_ratio":1.0,"mirror":false,"chromatic_density":0.5,"complexity":0.529,"dissonance":0.147},{"voice":1,"pitch":66,"start":342.6663,"duration":0.6667,"velocity":90,"measure":129,"beat":3.0,"subject_pos":-1,"motif":"","motif_pos":-1,"best_pos":3,"similarity":0.561,"stretto":false,"stretto_voices":0,"combination":[],"aug_dim":"","rhythm_ratio":1.0,"mirror":false,"chromatic_density":0.5,"complexity":0.529,"dissonance":0.147},{"voice":2,"pitch":64,"start":342.6663,"duration":0.3333,"velocity":90,"measure":129,"beat":3.0,"subject_pos":-1,"motif":"","motif_pos":-1,"best_pos":2,"similarity":0.429,"stretto":false,"stretto_voices":0,"combination":[],"aug_dim":"","rhythm_ratio":1.0,"mirror":false,"chromatic_density":0.5,"complexity":0.529,"dissonance":0.147},{"voice":2,"pitch":61,"start":342.9997,"duration":0.3333,"velocity":90,"measure":129,"beat":3.5,"subject_pos":-1,"motif":"","motif_pos":-1,"best_pos":3,"similarity":0.482,"stretto":false,"stretto_voices":0,"combination":[],"aug_dim":"","rhythm_ratio":1.0,"mirror":false,"chromatic_density":0.5,"complexity":0.529,"dissonance":0.147},{"voice":0,"pitch":68,"start":343.333,"duration":0.6667,"velocity":90,"measure":129,"beat":4.0,"subject_pos":-1,"motif":"","motif_pos":-1,"best_pos":4,"similarity":0.721,"stretto":false,"stretto_voices":0,"combination":[],"aug_dim":"","rhythm_ratio":1.0,"mirror":false,"chromatic_density":0.5,"complexity":0.529,"dissonance":0.147},{"voice":1,"pitch":65,"start":343.333,"duration":0.6667,"velocity":90,"measure":129,"beat":4.0,"subject_pos":-1,"motif":"","motif_pos":-1,"best_pos":4,"similarity":0.571,"stretto":false,"stretto_voices":0,"combination":[],"aug_dim":"","rhythm_ratio":1.0,"mirror":false,"chromatic_density":0.5,"complexity":0.529,"dissonance":0.147},{"voice":2,"pitch":62,"start":343.333,"duration":0.3333,"velocity":90,"measure":129,"beat":4.0,"subject_pos":-1,"motif":"","motif_pos":-1,"best_pos":5,"similarity":0.471,"stretto":false,"stretto_voices":0,"combination":[],"aug_dim":"","rhythm_ratio":1.0,"mirror":false,"chromatic_density":0.5,"complexity":0.529,"dissonance":0.147},{"voice":2,"pitch":62,"start":343.6663,"duration":0.3333,"velocity":90,"measure":129,"beat":4.5,"subject_pos":-1,"motif":"","motif_pos":-1,"best_pos":4,"similarity":0.407,"stretto":false,"stretto_voices":0,"combination":[],"aug_dim":"","rhythm_ratio":1.0,"mirror":false,"chromatic_density":0.5,"complexity":0.529,"dissonance":0.147},{"voice":0,"pitch":69,"start":343.9997,"duration":1.0,"velocity":90,"measure":130,"beat":1.0,"subject_pos":-1,"motif":"","motif_pos":-1,"best_pos":5,"similarity":0.607,"stretto":false,"stretto_voices":0,"combination":[],"aug_dim":"","rhythm_ratio":1.0,"mirror":false,"chromatic_density":0.231,"complexity":0.613,"dissonance":0.186},{"voice":1,"pitch":64,"start":343.9997,"duration":1.0,"velocity":90,"measure":130,"beat":1.0,"subject_pos":-1,"motif":"","motif_pos":-1,"best_pos":4,"similarity":0.579,"stretto":false,"stretto_voices":0,"combination":[],"aug_dim":"","rhythm_ratio":1.0,"mirror":false,"chromatic_density":0.231,"complexity":0.613,"dissonance":0.186},{"voice":2,"pitch":62,"start":343.9997,"duration":0.3333,"velocity":90,"measure":130,"beat":1.0,"subject_pos":-1,"motif":"","motif_pos":-1,"best_pos":2,"similarity":0.429,"stretto":false,"stretto_voices":0,"combination":[],"aug_dim":"","rhythm_ratio":1.0,"mirror":false,"chromatic_density":0.231,"complexity":0.613,"dissonance":0.186},{"voice":2,"pitch":59,"start":344.333,"duration":0.3333,"velocity":90,"measure":130,"beat":1.5,"subject_pos":-1,"motif":"","motif_pos":-1,"best_pos":3,"similarity":0.536,"stretto":false,"stretto_voices":0,"combination":[],"aug_dim":"","rhythm_ratio":1.0,"mirror":false,"chromatic_density":0.231,"complexity":0.613,"dissonance":0.186},{"voice":2,"pitch":60,"start":344.6663,"duration":0.3333,"velocity":90,"measure":130,"beat":2.0,"subject_pos":-1,"motif":"","motif_pos":-1,"best_pos":4,"similarity":0.536,"stretto":false,"stretto_voices":0,"combination":[],"aug_dim":"","rhythm_ratio":1.0,"mirror":false,"chromatic_density":0.231,"complexity":0.613,"dissonance":0.186},{"voice":3,"pitch":57,"start":344.6663,"duration":0.3333,"velocity":90,"measure":130,"beat":2.0,"subject_pos":-1,"motif":"","motif_pos":-1,"best_pos":3,"similarity":0.236,"stretto":false,"stretto_voices":0,"combination":[],"aug_dim":"","rhythm_ratio":1.0,"mirror":false,"chromatic_density":0.231,"complexity":0.613,"dissonance":0.186},{"voice":0,"pitch":69,"start":344.9997,"duration":0.3333,"velocity":90,"measure":130,"beat":2.5,"subject_pos":-1,"motif":"","motif_pos":-1,"best_pos":5,"similarity":0.518,"stretto":false,"stretto_voices":0,"combination":[],"aug_dim":"","rhythm_ratio":1.0,"mirror":false,"chromatic_density":0.231,"complexity":0.613,"dissonance":0.186},{"voice":1,"pitch":64,"start":344.9997,"duration":0.3333,"velocity":90,"measure":130,"beat":2.5,"subject_pos":-1,"motif":"","motif_pos":-1,"best_pos":4,"similarity":0.536,"stretto":false,"stretto_voices":0,"combination":[],"aug_dim":"","rhythm_ratio":1.0,"mirror":false,"chromatic_density":0.231,"complexity":0.613,"dissonance":0.186},{"voice":2,"pitch":60,"start":344.9997,"duration":0.3333,"velocity":90,"measure":130,"beat":2.5,"subject_pos":-1,"motif":"","motif_pos":-1,"best_pos":5,"similarity":0.571,"stretto":false,"stretto_voices":0,"combination":[],"aug_dim":"","rhythm_ratio":1.0,"mirror":false,"chromatic_density":0.231,"complexity":0.613,"dissonance":0.186},{"voice":3,"pitch":57,"start":344.9997,"duration":0.3333,"velocity":90,"measure":130,"beat":2.5,"subject_pos":-1,"motif":"","motif_pos":-1,"best_pos":4,"similarity":0.329,"stretto":false,"stretto_voices":0,"combination":[],"aug_dim":"","rhythm_ratio":1.0,"mirror":false,"chromatic_density":0.231,"complexity":0.613,"dissonance":0.186},{"voice":0,"pitch":71,"start":345.333,"duration":0.3333,"velocity":90,"measure":130,"beat":3.0,"subject_pos":-1,"motif":"","motif_pos":-1,"best_pos":6,"similarity":0.446,"stretto":false,"stretto_voices":0,"combination":[],"aug_dim":"","rhythm_ratio":1.0,"mirror":false,"chromatic_density":0.231,"complexity":0.613,"dissonance":0.186},{"voice":1,"pitch":65,"start":345.333,"duration":0.3333,"velocity":90,"measure":130,"beat":3.0,"subject_pos":-1,"motif":"","motif_pos":-1,"best_pos":5,"similarity":0.446,"stretto":false,"stretto_voices":0,"combination":[],"aug_dim":"","rhythm_ratio":1.0,"mirror":false,"chromatic_density":0.231,"complexity":0.613,"dissonance":0.186},{"voice":2,"pitch":62,"start":345.333,"duration":0.3333,"velocity":90,"measure":130,"beat":3.0,"subject_pos":-1,"motif":"","motif_pos":-1,"best_pos":6,"similarity":0.446,"stretto":false,"stretto_voices":0,"combination":[],"aug_dim":"","rhythm_ratio":1.0,"mirror":false,"chromatic_density":0.231,"complexity":0.613,"dissonance":0.186},{"voice":3,"pitch":57,"start":345.333,"duration":0.3333,"velocity":90,"measure":130,"beat":3.0,"subject_pos":-1,"motif":"","motif_pos":-1,"best_pos":4,"similarity":0.336,"stretto":false,"stretto_voices":0,"combination":[],"aug_dim":"","rhythm_ratio":1.0,"mirror":false,"chromatic_density":0.231,"complexity":0.613,"dissonance":0.186},{"voice":0,"pitch":74,"start":345.6663,"duration":0.3333,"velocity":90,"measure":130,"beat":3.5,"subject_pos":-1,"motif":"","motif_pos":-1,"best_pos":3,"similarity":0.389,"stretto":false,"stretto_voices":0,"combination":[],"aug_dim":"","rhythm_ratio":1.0,"mirror":false,"chromatic_density":0.231,"complexity":0.613,"dissonance":0.186},{"voice":1,"pitch":69,"start":345.6663,"duration":0.3333,"velocity":90,"measure":130,"beat":3.5,"subject_pos":-1,"motif":"","motif_pos":-1,"best_pos":1,"similarity":0.336,"stretto":false,"stretto_voices":0,"combination":[],"aug_dim":"","rhythm_ratio":1.0,"mirror":false,"chromatic_density":0.231,"complexity":0.613,"dissonance":0.186},{"voice":2,"pitch":65,"start":345.6663,"duration":0.3333,"velocity":90,"measure":130,"beat":3.5,"subject_pos":-1,"motif":"","motif_pos":-1,"best_pos":6,"similarity":0.25,"stretto":false,"stretto_voices":0,"combination":[],"aug_dim":"","rhythm_ratio":1.0,"mirror":false,"chromatic_density":0.231,"complexity":0.613,"dissonance":0.186},{"voice":3,"pitch":53,"start":345.6663,"duration":0.3333,"velocity":90,"measure":130,"beat":3.5,"subject_pos":-1,"motif":"","motif_pos":-1,"best_pos":5,"similarity":0.436,"stretto":false,"stretto_voices":0,"combination":[],"aug_dim":"","rhythm_ratio":1.0,"mirror":false,"chromatic_density":0.231,"complexity":0.613,"dissonance":0.186},{"voice":0,"pitch":73,"start":345.9997,"duration":0.3333,"velocity":90,"measure":130,"beat":4.0,"subject_pos":-1,"motif":"","motif_pos":-1,"best_pos":4,"similarity":0.489,"stretto":false,"stretto_voices":0,"combination":[],"aug_dim":"","rhythm_ratio":1.0,"mirror":false,"chromatic_density":0.231,"complexity":0.613,"dissonance":0.186},{"voice":1,"pitch":64,"start":345.9997,"duration":0.3333,"velocity":90,"measure":130,"beat":4.0,"subject_pos":-1,"motif":"","motif_pos":-1,"best_pos":2,"similarity":0.332,"stretto":false,"stretto_voices":0,"combination":[],"aug_dim":"","rhythm_ratio":1.0,"mirror":false,"chromatic_density":0.231,"complexity":0.613,"dissonance":0.186},{"voice":2,"pitch":58,"start":345.9997,"duration":0.3333,"velocity":90,"measure":130,"beat":4.0,"subject_pos":-1,"motif":"","motif_pos":-1,"best_pos":3,"similarity":0.25,"stretto":false,"stretto_voices":0,"combination":[],"aug_dim":"","rhythm_ratio":1.0,"mirror":false,"chromatic_density":0.231,"complexity":0.613,"dissonance":0.186},{"voice":3,"pitch":55,"start":345.9997,"duration":0.3333,"velocity":90,"measure":130,"beat":4.0,"subject_pos":-1,"motif":"","motif_pos":-1,"best_pos":6,"similarity":0.464,"stretto":false,"stretto_voices":0,"combination":[],"aug_dim":"","rhythm_ratio":1.0,"mirror":false,"chromatic_density":0.231,"complexity":0.613,"dissonance":0.186},{"voice":0,"pitch":73,"start":346.333,"duration":0.3333,"velocity":90,"measure":130,"beat":4.5,"subject_pos":-1,"motif":"","motif_pos":-1,"best_pos":4,"similarity":0.4,"stretto":false,"stretto_voices":0,"combination":[],"aug_dim":"","rhythm_ratio":1.0,"mirror":false,"chromatic_density":0.231,"complexity":0.613,"dissonance":0.186},{"voice":1,"pitch":64,"start":346.333,"duration":0.3333,"velocity":90,"measure":130,"beat":4.5,"subject_pos":-1,"motif":"","motif_pos":-1,"best_pos":4,"similarity":0.4,"stretto":false,"stretto_voices":0,"combination":[],"aug_dim":"","rhythm_ratio":1.0,"mirror":false,"chromatic_density":0.231,"complexity":0.613,"dissonance":0.186},{"voice":2,"pitch":58,"start":346.333,"duration":0.3333,"velocity":90,"measure":130,"beat":4.5,"subject_pos":-1,"motif":"","motif_pos":-1,"best_pos":4,"similarity":0.336,"stretto":false,"stretto_voices":0,"combination":[],"aug_dim":"","rhythm_ratio":1.0,"mirror":false,"chromatic_density":0.231,"complexity":0.613,"dissonance":0.186},{"voice":3,"pitch":55,"start":346.333,"duration":0.3333,"velocity":90,"measure":130,"beat":4.5,"subject_pos":-1,"motif":"","motif_pos":-1,"best_pos":4,"similarity":0.429,"stretto":false,"stretto_voices":0,"combination":[],"aug_dim":"","rhythm_ratio":1.0,"mirror":false,"chromatic_density":0.231,"complexity":0.613,"dissonance":0.186},{"voice":0,"pitch":73,"start":346.6663,"duration":0.3333,"velocity":90,"measure":131,"beat":1.0,"subject_pos":-1,"motif":"","motif_pos":-1,"best_pos":5,"similarity":0.389,"stretto":false,"stretto_voices":0,"combination":[],"aug_dim":"","rhythm_ratio":1.0,"mirror":false,"chromatic_density":0.125,"complexity":0.582,"dissonance":0.033},{"voice":1,"pitch":64,"start":346.6663,"duration":0.3333,"velocity":90,"measure":131,"beat":1.0,"subject_pos":-1,"motif":"","motif_pos":-1,"best_pos":5,"similarity":0.389,"stretto":false,"stretto_voices":0,"combination":[],"aug_dim":"","rhythm_ratio":1.0,"mirror":false,"chromatic_density":0.125,"complexity":0.582,"dissonance":0.033},{"voice":2,"pitch":58,"start":346.6663,"duration":0.3333,"velocity":90,"measure":131,"beat":1.0,"subject_pos":-1,"motif":"","motif_pos":-1,"best_pos":2,"similarity":0.407,"stretto":false,"stretto_voices":0,"combination":[],"aug_dim":"","rhythm_ratio":1.0,"mirror":false,"chromatic_density":0.125,"complexity":0.582,"dissonance":0.033},{"voice":3,"pitch":55,"start":346.6663,"duration":0.3333,"velocity":90,"measure":131,"beat":1.0,"subject_pos":-1,"motif":"","motif_pos":-1,"best_pos":2,"similarity":0.429,"stretto":false,"stretto_voices":0,"combination":[],"aug_dim":"","rhythm_ratio":1.0,"mirror":false,"chromatic_density":0.125,"complexity":0.582,"dissonance":0.033},{"voice":0,"pitch":76,"start":346.9997,"duration":0.3333,"velocity":90,"measure":131,"beat":1.5,"subject_pos":-1,"motif":"","motif_pos":-1,"best_pos":1,"similarity":0.407,"stretto":false,"stretto_voices":0,"combination":[],"aug_dim":"","rhythm_ratio":1.0,"mirror":false,"chromatic_density":0.125,"complexity":0.582,"dissonance":0.033},{"voice":1,"pitch":67,"start":346.9997,"duration":0.3333,"velocity":90,"measure":131,"beat":1.5,"subject_pos":-1,"motif":"","motif_pos":-1,"best_pos":1,"similarity":0.407,"stretto":false,"stretto_voices":0,"combination":[],"aug_dim":"","rhythm_ratio":1.0,"mirror":false,"chromatic_density":0.125,"complexity":0.582,"dissonance":0.033},{"voice":2,"pitch":55,"start":346.9997,"duration":0.3333,"velocity":90,"measure":131,"beat":1.5,"subject_pos":-1,"motif":"","motif_pos":-1,"best_pos":5,"similarity":0.464,"stretto":false,"stretto_voices":0,"combination":[],"aug_dim":"","rhythm_ratio":1.0,"mirror":false,"chromatic_density":0.125,"complexity":0.582,"dissonance":0.033},{"voice":3,"pitch":52,"start":346.9997,"duration":0.3333,"velocity":90,"measure":131,"beat":1.5,"subject_pos":-1,"motif":"","motif_pos":-1,"best_pos":3,"similarity":0.482,"stretto":false,"stretto_voices":0,"combination":[],"aug_dim":"","rhythm_ratio":1.0,"mirror":false,"chromatic_density":0.125,"complexity":0.582,"dissonance":0.033},{"voice":0,"pitch":74,"start":347.333,"duration":0.3333,"velocity":90,"measure":131,"beat":2.0,"subject_pos":-1,"motif":"","motif_pos":-1,"best_pos":2,"similarity":0.439,"stretto":false,"stretto_voices":0,"combination":[],"aug_dim":"","rhythm_ratio":1.0,"mirror":false,"chromatic_density":0.125,"complexity":0.582,"dissonance":0.033},{"voice":1,"pitch":65,"start":347.333,"duration":0.3333,"velocity":90,"measure":131,"beat":2.0,"subject_pos":-1,"motif":"","motif_pos":-1,"best_pos":2,"similarity":0.429,"stretto":false,"stretto_voices":0,"combination":[],"aug_dim":"","rhythm_ratio":1.0,"mirror":false,"chromatic_density":0.125,"complexity":0.582,"dissonance":0.033},{"voice":2,"pitch":57,"start":347.333,"duration":0.3333,"velocity":90,"measure":131,"beat":2.0,"subject_pos":-1,"motif":"","motif_pos":-1,"best_pos":6,"similarity":0.479,"stretto":false,"stretto_voices":0,"combination":[],"aug_dim":"","rhythm_ratio":1.0,"mirror":false,"chromatic_density":0.125,"complexity":0.582,"dissonance":0.033},{"voice":3,"pitch":53,"start":347.333,"duration":0.3333,"velocity":90,"measure":131,"beat":2.0,"subject_pos":-1,"motif":"","motif_pos":-1,"best_pos":5,"similarity":0.471,"stretto":false,"stretto_voices":0,"combination":[],"aug_dim":"","rhythm_ratio":1.0,"mirror":false,"chromatic_density":0.125,"complexity":0.582,"dissonance":0.033},{"voice":0,"pitch":74,"start":347.6663,"duration":0.3333,"velocity":90,"measure":131,"beat":2.5,"subject_pos":-1,"motif":"","motif_pos":-1,"best_pos":4,"similarity":0.446,"stretto":false,"stretto_voices":0,"combination":[],"aug_dim":"","rhythm_ratio":1.0,"mirror":false,"chromatic_density":0.125,"complexity":0.582,"dissonance":0.033},{"voice":1,"pitch":65,"start":347.6663,"duration":0.3333,"velocity":90,"measure":131,"beat":2.5,"subject_pos":-1,"motif":"","motif_pos":-1,"best_pos":4,"similarity":0.4,"stretto":false,"stretto_voices":0,"combination":[],"aug_dim":"","rhythm_ratio":1.0,"mirror":false,"chromatic_density":0.125,"complexity":0.582,"dissonance":0.033},{"voice":2,"pitch":57,"start":347.6663,"duration":0.3333,"velocity":90,"measure":131,"beat":2.5,"subject_pos":-1,"motif":"","motif_pos":-1,"best_pos":4,"similarity":0.357,"stretto":false,"stretto_voices":0,"combination":[],"aug_dim":"","rhythm_ratio":1.0,"mirror":false,"chromatic_density":0.125,"complexity":0.582,"dissonance":0.033},{"voice":3,"pitch":53,"start":347.6663,"duration":0.3333,"velocity":90,"measure":131,"beat":2.5,"subject_pos":-1,"motif":"","motif_pos":-1,"best_pos":6,"similarity":0.375,"stretto":false,"stretto_voices":0,"combination":[],"aug_dim":"","rhythm_ratio":1.0,"mirror":false,"chromatic_density":0.125,"complexity":0.582,"dissonance":0.033},{"voice":0,"pitch":74,"start":347.9997,"duration":0.3333,"velocity":90,"measure":131,"beat":3.0,"subject_pos":-1,"motif":"","motif_pos":-1,"best_pos":5,"similarity":0.429,"stretto":false,"stretto_voices":0,"combination":[],"aug_dim":"","rhythm_ratio":1.0,"mirror":false,"chromatic_density":0.125,"complexity":0.582,"dissonance":0.033},{"voice":1,"pitch":65,"start":347.9997,"duration":0.3333,"velocity":90,"measure":131,"beat":3.0,"subject_pos":-1,"motif":"","motif_pos":-1,"best_pos":5,"similarity":0.336,"stretto":false,"stretto_voices":0,"combination":[],"aug_dim":"","rhythm_ratio":1.0,"mirror":false,"chromatic_density":0.125,"complexity":0.582,"dissonance":0.033},{"voice":2,"pitch":57,"start":347.9997,"duration":0.3333,"velocity":90,"measure":131,"beat":3.0,"subject_pos":-1,"motif":"","motif_pos":-1,"best_pos":4,"similarity":0.343,"stretto":false,"stretto_voices":0,"combination":[],"aug_dim":"","rhythm_ratio":1.0,"mirror":false,"chromatic_density":0.125,"complexity":0.582,"dissonance":0.033},{"voice":3,"pitch":53,"start":347.9997,"duration":0.3333,"velocity":90,"measure":131,"beat":3.0,"subject_pos":-1,"motif":"","motif_pos":-1,"best_pos":2,"similarity":0.407,"stretto":false,"stretto_voices":0,"combination":[],"aug_dim":"","rhythm_ratio":1.0,"mirror":false,"chromatic_density":0.125,"complexity":0.582,"dissonance":0.033},{"voice":0,"pitch":77,"start":348.333,"duration":0.3333,"velocity":90,"measure":131,"beat":3.5,"subject_pos":-1,"motif":"","motif_pos":-1,"best_pos":3,"similarity":0.411,"stretto":false,"stretto_voices":0,"combination":[],"aug_dim":"","rhythm_ratio":1.0,"mirror":false,"chromatic_density":0.125,"complexity":0.582,"dissonance":0.033},{"voice":1,"pitch":69,"start":348.333,"duration":0.3333,"velocity":90,"measure":131,"beat":3.5,"subject_pos":-1,"motif":"","motif_pos":-1,"best_pos":1,"similarity":0.479,"stretto":false,"stretto_voices":0,"combination":[],"aug_dim":"","rhythm_ratio":1.0,"mirror":false,"chromatic_density":0.125,"complexity":0.582,"dissonance":0.033},{"voice":2,"pitch":53,"start":348.333,"duration":0.3333,"velocity":90,"measure":131,"beat":3.5,"subject_pos":-1,"motif":"","motif_pos":-1,"best_pos":5,"similarity":0.436,"stretto":false,"stretto_voices":0,"combination":[],"aug_dim":"","rhythm_ratio":1.0,"mirror":false,"chromatic_density":0.125,"complexity":0.582,"dissonance":0.033},{"voice":3,"pitch":50,"start":348.333,"duration":0.3333,"velocity":90,"measure":131,"beat":3.5,"subject_pos":-1,"motif":"","motif_pos":-1,"best_pos":5,"similarity":0.464,"stretto":false,"stretto_voices":0,"combination":[],"aug_dim":"","rhythm_ratio":1.0,"mirror":false,"chromatic_density":0.125,"complexity":0.582,"dissonance":0.033},{"voice":0,"pitch":76,"start":348.6663,"duration":0.3333,"velocity":90,"measure":131,"beat":4.0,"subject_pos":-1,"motif":"","motif_pos":-1,"best_pos":4,"similarity":0.5,"stretto":false,"stretto_voices":0,"combination":[],"aug_dim":"","rhythm_ratio":1.0,"mirror":false,"chromatic_density":0.125,"complexity":0.582,"dissonance":0.033},{"voice":1,"pitch":67,"start":348.6663,"duration":0.3333,"velocity":90,"measure":131,"beat":4.0,"subject_pos":-1,"motif":"","motif_pos":-1,"best_pos":2,"similarity":0.475,"stretto":false,"stretto_voices":0,"combination":[],"aug_dim":"","rhythm_ratio":1.0,"mirror":false,"chromatic_density":0.125,"complexity":0.582,"dissonance":0.033},{"voice":2,"pitch":55,"start":348.6663,"duration":0.3333,"velocity":90,"measure":131,"beat":4.0,"subject_pos":-1,"motif":"","motif_pos":-1,"best_pos":6,"similarity":0.464,"stretto":false,"stretto_voices":0,"combination":[],"aug_dim":"","rhythm_ratio":1.0,"mirror":false,"chromatic_density":0.125,"complexity":0.582,"dissonance":0.033},{"voice":3,"pitch":52,"start":348.6663,"duration":0.3333,"velocity":90,"measure":131,"beat":4.0,"subject_pos":-1,"motif":"","motif_pos":-1,"best_pos":6,"similarity":0.479,"stretto":false,"stretto_voices":0,"combination":[],"aug_dim":"","rhythm_ratio":1.0,"mirror":false,"chromatic_density":0.125,"complexity":0.582,"dissonance":0.033},{"voice":0,"pitch":76,"start":348.9997,"duration":0.3333,"velocity":90,"measure":131,"beat":4.5,"subject_pos":-1,"motif":"","motif_pos":-1,"best_pos":4,"similarity":0.4,"stretto":false,"stretto_voices":0,"combination":[],"aug_dim":"","rhythm_ratio":1.0,"mirror":false,"chromatic_density":0.125,"complexity":0.582,"dissonance":0.033},{"voice":1,"pitch":67,"start":348.9997,"duration":0.3333,"velocity":90,"measure":131,"beat":4.5,"subject_pos":-1,"motif":"","motif_pos":-1,"best_pos":4,"similarity":0.446,"stretto":false,"stretto_voices":0,"combination":[],"aug_dim":"","rhythm_ratio":1.0,"mirror":false,"chromatic_density":0.125,"complexity":0.582,"dissonance":0.033},{"voice":2,"pitch":55,"start":348.9997,"duration":0.3333,"velocity":90,"measure":131,"beat":4.5,"subject_pos":-1,"motif":"","motif_pos":-1,"best_pos":4,"similarity":0.429,"stretto":false,"stretto_voices":0,"combination":[],"aug_dim":"","rhythm_ratio":1.0,"mirror":false,"chromatic_density":0.125,"complexity":0.582,"dissonance":0.033},{"voice":3,"pitch":52,"start":348.9997,"duration":0.3333,"velocity":90,"measure":131,"beat":4.5,"subject_pos":-1,"motif":"","motif_pos":-1,"best_pos":4,"similarity":0.393,"stretto":false,"stretto_voices":0,"combination":[],"aug_dim":"","rhythm_ratio":1.0,"mirror":false,"chromatic_density":0.125,"complexity":0.582,"dissonance":0.033},{"voice":0,"pitch":76,"start":349.333,"duration":0.3333,"velocity":90,"measure":132,"beat":1.0,"subject_pos":-1,"motif":"","motif_pos":-1,"best_pos":5,"similarity":0.389,"stretto":false,"stretto_voices":0,"combination":[],"aug_dim":"","rhythm_ratio":1.0,"mirror":false,"chromatic_density":0.188,"complexity":0.645,"dissonance":0.088},{"voice":1,"pitch":67,"start":349.333,"duration":0.3333,"velocity":90,"measure":132,"beat":1.0,"subject_pos":-1,"motif":"","motif_pos":-1,"best_pos":5,"similarity":0.429,"stretto":false,"stretto_voices":0,"combination":[],"aug_dim":"","rhythm_ratio":1.0,"mirror":false,"chromatic_density":0.188,"complexity":0.645,"dissonance":0.088},{"voice":2,"pitch":55,"start":349.333,"duration":0.3333,"velocity":90,"measure":132,"beat":1.0,"subject_pos":-1,"motif":"","motif_pos":-1,"best_pos":2,"similarity":0.4,"stretto":false,"stretto_voices":0,"combination":[],"aug_dim":"","rhythm_ratio":1.0,"mirror":false,"chromatic_density":0.188,"complexity":0.645,"dissonance":0.088},{"voice":3,"pitch":52,"start":349.333,"duration":0.3333,"velocity":90,"measure":132,"beat":1.0,"subject_pos":-1,"motif":"","motif_pos":-1,"best_pos":2,"similarity":0.393,"stretto":false,"stretto_voices":0,"combination":[],"aug_dim":"","rhythm_ratio":1.0,"mirror":false,"chromatic_density":0.188,"complexity":0.645,"dissonance":0.088},{"voice":0,"pitch":79,"start":349.6663,"duration":0.3333,"velocity":90,"measure":132,"beat":1.5,"subject_pos":-1,"motif":"","motif_pos":-1,"best_pos":1,"similarity":0.407,"stretto":false,"stretto_voices":0,"combination":[],"aug_dim":"","rhythm_ratio":1.0,"mirror":false,"chromatic_density":0.188,"complexity":0.645,"dissonance":0.088},{"voice":1,"pitch":70,"start":349.6663,"duration":0.3333,"velocity":90,"measure":132,"beat":1.5,"subject_pos":-1,"motif":"enigmatic_cell","motif_pos":0,"best_pos":0,"similarity":1.0,"stretto":false,"stretto_voices":0,"combination":[],"aug_dim":"","rhythm_ratio":1.0,"mirror":false,"chromatic_density":0.188,"complexity":0.645,"dissonance":0.088},{"voice":2,"pitch":52,"start":349.6663,"duration":0.3333,"velocity":90,"measure":132,"beat":1.5,"subject_pos":-1,"motif":"","motif_pos":-1,"best_pos":4,"similarity":0.421,"stretto":false,"stretto_voices":0,"combination":[],"aug_dim":"","rhythm_ratio":1.0,"mirror":false,"chromatic_density":0.188,"complexity":0.645,"dissonance":0.088},{"voice":3,"pitch":49,"start":349.6663,"duration":0.3333,"velocity":90,"measure":132,"beat":1.5,"subject_pos":-1,"motif":"","motif_pos":-1,"best_pos":3,"similarity":0.4,"stretto":false,"stretto_voices":0,"combination":[],"aug_dim":"","rhythm_ratio":1.0,"mirror":false,"chromatic_density":0.188,"complexity":0.645,"dissonance":0.088},{"voice":0,"pitch":77,"start":349.9996,"duration":0.3333,"velocity":90,"measure":132,"beat":2.0,"subject_pos":-1,"motif":"","motif_pos":-1,"best_pos":2,"similarity":0.429,"stretto":false,"stretto_voices":0,"combination":[],"aug_dim":"","rhythm_ratio":1.0,"mirror":false,"chromatic_density":0.188,"complexity":0.645,"dissonance":0.088},{"voice":1,"pitch":69,"start":349.9996,"duration":0.3333,"velocity":90,"measure":132,"beat":2.0,"subject_pos":-1,"motif":"enigmatic_cell","motif_pos":1,"best_pos":1,"similarity":1.0,"stretto":false,"stretto_voices":0,"combination":[],"aug_dim":"","rhythm_ratio":1.0,"mirror":false,"chromatic_density":0.188,"complexity":0.645,"dissonance":0.088},{"voice":2,"pitch":53,"start":349.9996,"duration":0.6667,"velocity":90,"measure":132,"beat":2.0,"subject_pos":-1,"motif":"","motif_pos":-1,"best_pos":0,"similarity":0.393,"stretto":false,"stretto_voices":0,"combination":[],"aug_dim":"","rhythm_ratio":1.0,"mirror":false,"chromatic_density":0.188,"complexity":0.645,"dissonance":0.088},{"voice":3,"pitch":50,"start":349.9996,"duration":0.6667,"velocity":90,"measure":132,"beat":2.0,"subject_pos":0,"motif":"subject","motif_pos":0,"best_pos":0,"similarity":1.0,"stretto":false,"stretto_voices":0,"combination":[],"aug_dim":"","rhythm_ratio":1.0,"mirror":false,"chromatic_density":0.188,"complexity":0.645,"dissonance":0.088},{"voice":0,"pitch":77,"start":350.333,"duration":0.3333,"velocity":90,"measure":132,"beat":2.5,"subject_pos":-1,"motif":"","motif_pos":-1,"best_pos":3,"similarity":0.418,"stretto":false,"stretto_voices":0,"combination":[],"aug_dim":"","rhythm_ratio":1.0,"mirror":false,"chromatic_density":0.188,"complexity":0.645,"dissonance":0.088},{"voice":1,"pitch":74,"start":350.333,"duration":0.3333,"velocity":90,"measure":132,"beat":2.5,"subject_pos":-1,"motif":"enigmatic_cell","motif_pos":2,"best_pos":2,"similarity":1.0,"stretto":false,"stretto_voices":0,"combination":[],"aug_dim":"","rhythm_ratio":1.0,"mirror":false,"chromatic_density":0.188,"complexity":0.645,"dissonance":0.088},{"voice":0,"pitch":77,"start":350.6663,"duration":0.3333,"velocity":90,"measure":132,"beat":3.0,"subject_pos":-1,"motif":"","motif_pos":-1,"best_pos":4,"similarity":0.436,"stretto":false,"stretto_voices":0,"combination":[],"aug_dim":"","rhythm_ratio":1.0,"mirror":false,"chromatic_density":0.188,"complexity":0.645,"dissonance":0.088},{"voice":1,"pitch":74,"start":350.6663,"duration":0.3333,"velocity":90,"measure":132,"beat":3.0,"subject_pos":-1,"motif":"","motif_pos":-1,"best_pos":2,"similarity":0.55,"stretto":false,"stretto_voices":0,"combination":[],"aug_dim":"","rhythm_ratio":1.0,"mirror":false,"chromatic_density":0.188,"complexity":0.645,"dissonance":0.088},{"voice":3,"pitch":57,"start":350.6663,"duration":0.6667,"velocity":90,"measure":132,"beat":3.0,"subject_pos":1,"motif":"subject","motif_pos":1,"best_pos":1,"similarity":1.0,"stretto":false,"stretto_voices":0,"combination":[],"aug_dim":"","rhythm_ratio":1.0,"mirror":false,"chromatic_density":0.188,"complexity":0.645,"dissonance":0.088},{"voice":0,"pitch":74,"start":350.9996,"duration":0.3333,"velocity":90,"measure":132,"beat":3.5,"subject_pos":-1,"motif":"","motif_pos":-1,"best_pos":5,"similarity":0.464,"stretto":false,"stretto_voices":0,"combination":[],"aug_dim":"","rhythm_ratio":1.0,"mirror":false,"chromatic_density":0.188,"complexity":0.645,"dissonance":0.088},{"voice":1,"pitch":71,"start":350.9996,"duration":0.3333,"velocity":90,"measure":132,"beat":3.5,"subject_pos":-1,"motif":"","motif_pos":-1,"best_pos":3,"similarity":0.511,"stretto":false,"stretto_voices":0,"combination":[],"aug_dim":"","rhythm_ratio":1.0,"mirror":false,"chromatic_density":0.188,"complexity":0.645,"dissonance":0.088},{"voice":0,"pitch":76,"start":351.333,"duration":0.3333,"velocity":90,"measure":132,"beat":4.0,"subject_pos":-1,"motif":"","motif_pos":-1,"best_pos":6,"similarity":0.479,"stretto":false,"stretto_voices":0,"combination":[],"aug_dim":"","rhythm_ratio":1.0,"mirror":false,"chromatic_density":0.188,"complexity":0.645,"dissonance":0.088},{"voice":1,"pitch":73,"start":351.333,"duration":0.3333,"velocity":90,"measure":132,"beat":4.0,"subject_pos":-1,"motif":"","motif_pos":-1,"best_pos":6,"similarity":0.479,"stretto":false,"stretto_voices":0,"combination":[],"aug_dim":"","rhythm_ratio":1.0,"mirror":false,"chromatic_density":0.188,"complexity":0.645,"dissonance":0.088},{"voice":2,"pitch":58,"start":351.333,"duration":0.6667,"velocity":90,"measure":132,"beat":4.0,"subject_pos":-1,"motif":"","motif_pos":-1,"best_pos":1,"similarity":0.518,"stretto":false,"stretto_voices":0,"combination":[],"aug_dim":"","rhythm_ratio":1.0,"mirror":false,"chromatic_density":0.188,"complexity":0.645,"dissonance":0.088},{"voice":3,"pitch":55,"start":351.333,"duration":0.6667,"velocity":90,"measure":132,"beat":4.0,"subject_pos":2,"motif":"subject","motif_pos":2,"best_pos":2,"similarity":1.0,"stretto":false,"stretto_voices":0,"combination":[],"aug_dim":"","rhythm_ratio":1.0,"mirror":false,"chromatic_density":0.188,"complexity":0.645,"dissonance":0.088},{"voice":0,"pitch":76,"start":351.6663,"duration":0.3333,"velocity":90,"measure":132,"beat":4.5,"subject_pos":-1,"motif":"","motif_pos":-1,"best_pos":4,"similarity":0.393,"stretto":false,"stretto_voices":0,"combination":[],"aug_dim":"","rhythm_ratio":1.0,"mirror":false,"chromatic_density":0.188,"complexity":0.645,"dissonance":0.088},{"voice":1,"pitch":73,"start":351.6663,"duration":0.3333,"velocity":90,"measure":132,"beat":4.5,"subject_pos":-1,"motif":"","motif_pos":-1,"best_pos":4,"similarity":0.393,"stretto":false,"stretto_voices":0,"combination":[],"aug_dim":"","rhythm_ratio":1.0,"mirror":false,"chromatic_density":0.188,"complexity":0.645,"dissonance":0.088},{"voice":0,"pitch":76,"start":351.9996,"duration":0.3333,"velocity":90,"measure":133,"beat":1.0,"subject_pos":-1,"motif":"","motif_pos":-1,"best_pos":2,"similarity":0.429,"stretto":false,"stretto_voices":0,"combination":[],"aug_dim":"","rhythm_ratio":1.0,"mirror":false,"chromatic_density":0.364,"complexity":0.658,"dissonance":0.124},{"voice":1,"pitch":73,"start":351.9996,"duration":0.3333,"velocity":90,"measure":133,"beat":1.0,"subject_pos":-1,"motif":"","motif_pos":-1,"best_pos":5,"similarity":0.357,"stretto":false,"stretto_voices":0,"combination":[],"aug_dim":"","rhythm_ratio":1.0,"mirror":false,"chromatic_density":0.364,"complexity":0.658,"dissonance":0.124},{"voice":2,"pitch":57,"start":351.9996,"duration":1.3333,"velocity":90,"measure":133,"beat":1.0,"subject_pos":-1,"motif":"","motif_pos":-1,"best_pos":2,"similarity":0.536,"stretto":false,"stretto_voices":0,"combination":[],"aug_dim":"","rhythm_ratio":1.0,"mirror":false,"chromatic_density":0.364,"complexity":0.658,"dissonance":0.124},{"voice":0,"pitch":73,"start":352.333,"duration":0.3333,"velocity":90,"measure":133,"beat":1.5,"subject_pos":-1,"motif":"","motif_pos":-1,"best_pos":3,"similarity":0.482,"stretto":false,"stretto_voices":0,"combination":[],"aug_dim":"","rhythm_ratio":1.0,"mirror":false,"chromatic_density":0.364,"complexity":0.658,"dissonance":0.124},{"voice":1,"pitch":64,"start":352.333,"duration":0.3333,"velocity":90,"measure":133,"beat":1.5,"subject_pos":-1,"motif":"","motif_pos":-1,"best_pos":6,"similarity":0.393,"stretto":false,"stretto_voices":0,"combination":[],"aug_dim":"","rhythm_ratio":1.0,"mirror":false,"chromatic_density":0.364,"complexity":0.658,"dissonance":0.124},{"voice":0,"pitch":74,"start":352.6663,"duration":0.3333,"velocity":90,"measure":133,"beat":2.0,"subject_pos":-1,"motif":"","motif_pos":-1,"best_pos":5,"similarity":0.471,"stretto":false,"stretto_voices":0,"combination":[],"aug_dim":"","rhythm_ratio":1.0,"mirror":false,"chromatic_density":0.364,"complexity":0.658,"dissonance":0.124},{"voice":1,"pitch":65,"start":352.6663,"duration":0.3333,"velocity":90,"measure":133,"beat":2.0,"subject_pos":-1,"motif":"","motif_pos":-1,"best_pos":5,"similarity":0.379,"stretto":false,"stretto_voices":0,"combination":[],"aug_dim":"","rhythm_ratio":1.0,"mirror":false,"chromatic_density":0.364,"complexity":0.658,"dissonance":0.124},{"voice":3,"pitch":53,"start":352.6663,"duration":0.6667,"velocity":90,"measure":133,"beat":2.0,"subject_pos":3,"motif":"subject","motif_pos":3,"best_pos":3,"similarity":1.0,"stretto":false,"stretto_voices":0,"combination":[],"aug_dim":"","rhythm_ratio":1.0,"mirror":false,"chromatic_density":0.364,"complexity":0.658,"dissonance":0.124},{"voice":0,"pitch":74,"start":352.9996,"duration":0.3333,"velocity":90,"measure":133,"beat":2.5,"subject_pos":-1,"motif":"","motif_pos":-1,"best_pos":6,"similarity":0.375,"stretto":false,"stretto_voices":0,"combination":[],"aug_dim":"","rhythm_ratio":1.0,"mirror":false,"chromatic_density":0.364,"complexity":0.658,"dissonance":0.124},{"voice":1,"pitch":65,"start":352.9996,"duration":0.3333,"velocity":90,"measure":133,"beat":2.5,"subject_pos":-1,"motif":"","motif_pos":-1,"best_pos":0,"similarity":0.339,"stretto":false,"stretto_voices":0,"combination":[],"aug_dim":"","rhythm_ratio":1.0,"mirror":false,"chromatic_density":0.364,"complexity":0.658,"dissonance":0.124},{"voice":0,"pitch":74,"start":353.333,"duration":0.3333,"velocity":90,"measure":133,"beat":3.0,"subject_pos":-1,"motif":"","motif_pos":-1,"best_pos":3,"similarity":0.4,"stretto":false,"stretto_voices":0,"combination":[],"aug_dim":"","rhythm_ratio":1.0,"mirror":false,"chromatic_density":0.364,"complexity":0.658,"dissonance":0.124},{"voice":1,"pitch":70,"start":353.333,"duration":2.3333,"velocity":90,"measure":133,"beat":3.0,"subject_pos":-1,"motif":"","motif_pos":-1,"best_pos":1,"similarity":0.429,"stretto":false,"stretto_voices":0,"combination":[],"aug_dim":"","rhythm_ratio":1.0,"mirror":false,"chromatic_density":0.364,"complexity":0.658,"dissonance":0.124},{"voice":2,"pitch":55,"start":353.333,"duration":2.0,"velocity":90,"measure":133,"beat":3.0,"subject_pos":-1,"motif":"","motif_pos":-1,"best_pos":2,"similarity":0.643,"stretto":false,"stretto_voices":0,"combination":[],"aug_dim":"","rhythm_ratio":1.0,"mirror":false,"chromatic_density":0.364,"complexity":0.658,"dissonance":0.124},{"voice":3,"pitch":52,"start":353.333,"duration":0.6667,"velocity":90,"measure":133,"beat":3.0,"subject_pos":4,"motif":"subject","motif_pos":4,"best_pos":4,"similarity":1.0,"stretto":false,"stretto_voices":0,"combination":[],"aug_dim":"","rhythm_ratio":1.0,"mirror":false,"chromatic_density":0.364,"complexity":0.658,"dissonance":0.124},{"voice":0,"pitch":73,"start":353.6663,"duration":0.3333,"velocity":90,"measure":133,"beat":3.5,"subject_pos":-1,"motif":"","motif_pos":-1,"best_pos":4,"similarity":0.421,"stretto":false,"stretto_voices":0,"combination":[],"aug_dim":"","rhythm_ratio":1.0,"mirror":false,"chromatic_density":0.364,"complexity":0.658,"dissonance":0.124},{"voice":0,"pitch":76,"start":353.9996,"duration":0.3333,"velocity":90,"measure":133,"beat":4.0,"subject_pos":-1,"motif":"","motif_pos":-1,"best_pos":1,"similarity":0.429,"stretto":false,"stretto_voices":0,"combination":[],"aug_dim":"","rhythm_ratio":1.0,"mirror":false,"chromatic_density":0.364,"complexity":0.658,"dissonance":0.124},{"voice":3,"pitch":50,"start":353.9996,"duration":0.6667,"velocity":90,"measure":133,"beat":4.0,"subject_pos":5,"motif":"subject","motif_pos":5,"best_pos":5,"similarity":1.0,"stretto":false,"stretto_voices":0,"combination":[],"aug_dim":"","rhythm_ratio":1.0,"mirror":false,"chromatic_density":0.364,"complexity":0.658,"dissonance":0.124},{"voice":0,"pitch":74,"start":354.333,"duration":0.3333,"velocity":90,"measure":133,"beat":4.5,"subject_pos":-1,"motif":"","motif_pos":-1,"best_pos":2,"similarity":0.482,"stretto":false,"stretto_voices":0,"combination":[],"aug_dim":"","rhythm_ratio":1.0,"mirror":false,"chromatic_density":0.364,"complexity":0.658,"dissonance":0.124},{"voice":0,"pitch":77,"start":354.6663,"duration":0.3333,"velocity":90,"measure":134,"beat":1.0,"subject_pos":-1,"motif":"","motif_pos":-1,"best_pos":3,"similarity":0.489,"stretto":false,"stretto_voices":0,"combination":[],"aug_dim":"","rhythm_ratio":1.0,"mirror":false,"chromatic_density":0.455,"complexity":0.558,"dissonance":0.188},{"voice":0,"pitch":76,"start":354.9996,"duration":0.3333,"velocity":90,"measure":134,"beat":1.5,"subject_pos":-1,"motif":"","motif_pos":-1,"best_pos":4,"similarity":0.461,"stretto":false,"stretto_voices":0,"combination":[],"aug_dim":"","rhythm_ratio":1.0,"mirror":false,"chromatic_density":0.455,"complexity":0.558,"dissonance":0.188},{"voice":0,"pitch":79,"start":355.333,"duration":1.0,"velocity":90,"measure":134,"beat":2.0,"subject_pos":-1,"motif":"","motif_pos":-1,"best_pos":1,"similarity":0.429,"stretto":false,"stretto_voices":0,"combination":[],"aug_dim":"","rhythm_ratio":1.0,"mirror":false,"chromatic_density":0.455,"complexity":0.558,"dissonance":0.188},{"voice":2,"pitch":52,"start":355.333,"duration":0.6667,"velocity":90,"measure":134,"beat":2.0,"subject_pos":-1,"motif":"","motif_pos":-1,"best_pos":3,"similarity":0.643,"stretto":false,"stretto_voices":0,"combination":[],"aug_dim":"","rhythm_ratio":1.0,"mirror":false,"chromatic_density":0.455,"complexity":0.558,"dissonance":0.188},{"voice":3,"pitch":49,"start":355.333,"duration":0.6667,"velocity":90,"measure":134,"beat":2.0,"subject_pos":6,"motif":"subject","motif_pos":6,"best_pos":6,"similarity":1.0,"stretto":false,"stretto_voices":0,"combination":[],"aug_dim":"","rhythm_ratio":1.0,"mirror":false,"chromatic_density":0.455,"complexity":0.558,"dissonance":0.188},{"voice":1,"pitch":70,"start":355.6663,"duration":0.3333,"velocity":90,"measure":134,"beat":2.5,"subject_pos":-1,"motif":"","motif_pos":-1,"best_pos":2,"similarity":0.364,"stretto":false,"stretto_voices":0,"combination":[],"aug_dim":"","rhythm_ratio":1.0,"mirror":false,"chromatic_density":0.455,"complexity":0.558,"dissonance":0.188},{"voice":1,"pitch":69,"start":355.9996,"duration":0.6667,"velocity":90,"measure":134,"beat":3.0,"subject_pos":-1,"motif":"","motif_pos":-1,"best_pos":1,"similarity":0.375,"stretto":false,"stretto_voices":0,"combination":[],"aug_dim":"","rhythm_ratio":1.0,"mirror":false,"chromatic_density":0.455,"complexity":0.558,"dissonance":0.188},{"voice":2,"pitch":53,"start":355.9996,"duration":0.6667,"velocity":90,"measure":134,"beat":3.0,"subject_pos":-1,"motif":"","motif_pos":-1,"best_pos":5,"similarity":0.714,"stretto":false,"stretto_voices":0,"combination":[],"aug_dim":"","rhythm_ratio":1.0,"mirror":false,"chromatic_density":0.455,"complexity":0.558,"dissonance":0.188},{"voice":3,"pitch":50,"start":355.9996,"duration":0.6667,"velocity":90,"measure":134,"beat":3.0,"subject_pos":7,"motif":"subject","motif_pos":7,"best_pos":7,"similarity":1.0,"stretto":false,"stretto_voices":0,"combination":[],"aug_dim":"","rhythm_ratio":1.0,"mirror":false,"chromatic_density":0.455,"complexity":0.558,"dissonance":0.188},{"voice":0,"pitch":77,"start":356.333,"duration":0.3333,"velocity":90,"measure":134,"beat":3.5,"subject_pos":-1,"motif":"","motif_pos":-1,"best_pos":2,"similarity":0.482,"stretto":false,"stretto_voices":0,"combination":[],"aug_dim":"","rhythm_ratio":1.0,"mirror":false,"chromatic_density":0.455,"complexity":0.558,"dissonance":0.188},{"voice":0,"pitch":76,"start":356.6663,"duration":0.3333,"velocity":90,"measure":134,"beat":4.0,"subject_pos":-1,"motif":"","motif_pos":-1,"best_pos":2,"similarity":0.429,"stretto":false,"stretto_voices":0,"combination":[],"aug_dim":"","rhythm_ratio":1.0,"mirror":false,"chromatic_density":0.455,"complexity":0.558,"dissonance":0.188},{"voice":1,"pitch":67,"start":356.6663,"duration":1.3333,"velocity":90,"measure":134,"beat":4.0,"subject_pos":-1,"motif":"","motif_pos":-1,"best_pos":2,"similarity":0.471,"stretto":false,"stretto_voices":0,"combination":[],"aug_dim":"","rhythm_ratio":1.0,"mirror":false,"chromatic_density":0.455,"complexity":0.558,"dissonance":0.188},{"voice":2,"pitch":55,"start":356.6663,"duration":0.6667,"velocity":90,"measure":134,"beat":4.0,"subject_pos":-1,"motif":"","motif_pos":-1,"best_pos":5,"similarity":0.679,"stretto":false,"stretto_voices":0,"combination":[],"aug_dim":"","rhythm_ratio":1.0,"mirror":false,"chromatic_density":0.455,"complexity":0.558,"dissonance":0.188},{"voice":3,"pitch":52,"start":356.6663,"duration":0.6667,"velocity":90,"measure":134,"beat":4.0,"subject_pos":8,"motif":"subject","motif_pos":8,"best_pos":0,"similarity":1.0,"stretto":false,"stretto_voices":0,"combination":[],"aug_dim":"","rhythm_ratio":1.0,"mirror":false,"chromatic_density":0.455,"complexity":0.558,"dissonance":0.188},{"voice":0,"pitch":74,"start":356.9996,"duration":0.3333,"velocity":90,"measure":134,"beat":4.5,"subject_pos":-1,"motif":"","motif_pos":-1,"best_pos":3,"similarity":0.507,"stretto":false,"stretto_voices":0,"combination":[],"aug_dim":"","rhythm_ratio":1.0,"mirror":false,"chromatic_density":0.455,"complexity":0.558,"dissonance":0.188},{"voice":0,"pitch":73,"start":357.333,"duration":0.3333,"velocity":90,"measure":135,"beat":1.0,"subject_pos":-1,"motif":"","motif_pos":-1,"best_pos":4,"similarity":0.425,"stretto":false,"stretto_voices":0,"combination":[],"aug_dim":"","rhythm_ratio":1.0,"mirror":false,"chromatic_density":0.364,"complexity":0.625,"dissonance":0.095},{"voice":2,"pitch":57,"start":357.333,"duration":1.0,"velocity":90,"measure":135,"beat":1.0,"subject_pos":-1,"motif":"","motif_pos":-1,"best_pos":6,"similarity":0.661,"stretto":false,"stretto_voices":0,"combination":[],"aug_dim":"","rhythm_ratio":1.0,"mirror":false,"chromatic_density":0.364,"complexity":0.625,"dissonance":0.095},{"voice":0,"pitch":69,"start":357.6663,"duration":0.3333,"velocity":90,"measure":135,"beat":1.5,"subject_pos":-1,"motif":"","motif_pos":-1,"best_pos":2,"similarity":0.5,"stretto":false,"stretto_voices":0,"combination":[],"aug_dim":"","rhythm_ratio":1.0,"mirror":false,"chromatic_density":0.364,"complexity":0.625,"dissonance":0.095},{"voice":0,"pitch":74,"start":357.9996,"duration":1.3333,"velocity":90,"measure":135,"beat":2.0,"subject_pos":-1,"motif":"","motif_pos":-1,"best_pos":3,"similarity":0.571,"stretto":false,"stretto_voices":0,"combination":[],"aug_dim":"","rhythm_ratio":1.0,"mirror":false,"chromatic_density":0.364,"complexity":0.625,"dissonance":0.095},{"voice":1,"pitch":65,"start":357.9996,"duration":0.3333,"velocity":90,"measure":135,"beat":2.0,"subject_pos":-1,"motif":"","motif_pos":-1,"best_pos":2,"similarity":0.579,"stretto":false,"stretto_voices":0,"combination":[],"aug_dim":"","rhythm_ratio":1.0,"mirror":false,"chromatic_density":0.364,"complexity":0.625,"dissonance":0.095},{"voice":3,"pitch":53,"start":357.9996,"duration":0.3333,"velocity":90,"measure":135,"beat":2.0,"subject_pos":-1,"motif":"","motif_pos":-1,"best_pos":5,"similarity":0.607,"stretto":false,"stretto_voices":0,"combination":[],"aug_dim":"","rhythm_ratio":1.0,"mirror":false,"chromatic_density":0.364,"complexity":0.625,"dissonance":0.095},{"voice":1,"pitch":62,"start":358.333,"duration":0.3333,"velocity":90,"measure":135,"beat":2.5,"subject_pos":-1,"motif":"","motif_pos":-1,"best_pos":3,"similarity":0.514,"stretto":false,"stretto_voices":0,"combination":[],"aug_dim":"","rhythm_ratio":1.0,"mirror":false,"chromatic_density":0.364,"complexity":0.625,"dissonance":0.095},{"voice":2,"pitch":58,"start":358.333,"duration":0.3333,"velocity":90,"measure":135,"beat":2.5,"subject_pos":-1,"motif":"","motif_pos":-1,"best_pos":7,"similarity":0.464,"stretto":false,"stretto_voices":0,"combination":[],"aug_dim":"","rhythm_ratio":1.0,"mirror":false,"chromatic_density":0.364,"complexity":0.625,"dissonance":0.095},{"voice":3,"pitch":55,"start":358.333,"duration":0.3333,"velocity":90,"measure":135,"beat":2.5,"subject_pos":-1,"motif":"","motif_pos":-1,"best_pos":6,"similarity":0.464,"stretto":false,"stretto_voices":0,"combination":[],"aug_dim":"","rhythm_ratio":1.0,"mirror":false,"chromatic_density":0.364,"complexity":0.625,"dissonance":0.095},{"voice":1,"pitch":67,"start":358.6663,"duration":2.0,"velocity":90,"measure":135,"beat":3.0,"subject_pos":-1,"motif":"","motif_pos":-1,"best_pos":1,"similarity":0.607,"stretto":false,"stretto_voices":0,"combination":[],"aug_dim":"","rhythm_ratio":1.0,"mirror":false,"chromatic_density":0.364,"complexity":0.625,"dissonance":0.095},{"voice":2,"pitch":58,"start":358.6663,"duration":0.3333,"velocity":90,"measure":135,"beat":3.0,"subject_pos":-1,"motif":"","motif_pos":-1,"best_pos":3,"similarity":0.414,"stretto":false,"stretto_voices":0,"combination":[],"aug_dim":"","rhythm_ratio":1.0,"mirror":false,"chromatic_density":0.364,"complexity":0.625,"dissonance":0.095},{"voice":3,"pitch":53,"start":358.6663,"duration":0.6667,"velocity":90,"measure":135,"beat":3.0,"subject_pos":-1,"motif":"","motif_pos":-1,"best_pos":3,"similarity":0.471,"stretto":false,"stretto_voices":0,"combination":[],"aug_dim":"","rhythm_ratio":1.0,"mirror":false,"chromatic_density":0.364,"complexity":0.625,"dissonance":0.095},{"voice":2,"pitch":57,"start":358.9996,"duration":0.3333,"velocity":90,"measure":135,"beat":3.5,"subject_pos":-1,"motif":"","motif_pos":-1,"best_pos":4,"similarity":0.5,"stretto":false,"stretto_voices":0,"combination":[],"aug_dim":"","rhythm_ratio":1.0,"mirror":false,"chromatic_density":0.364,"complexity":0.625,"dissonance":0.095},{"voice":0,"pitch":73,"start":359.333,"duration":0.6667,"velocity":90,"measure":135,"beat":4.0,"subject_pos":-1,"motif":"enigmatic_cell","motif_pos":0,"best_pos":0,"similarity":1.0,"stretto":false,"stretto_voices":0,"combination":[],"aug_dim":"","rhythm_ratio":1.0,"mirror":false,"chromatic_density":0.364,"complexity":0.625,"dissonance":0.095},{"voice":2,"pitch":57,"start":359.333,"duration":0.3333,"velocity":90,"measure":135,"beat":4.0,"subject_pos":-1,"motif":"","motif_pos":-1,"best_pos":4,"similarity":0.404,"stretto":false,"stretto_voices":0,"combination":[],"aug_dim":"","rhythm_ratio":1.0,"mirror":false,"chromatic_density":0.364,"complexity":0.625,"dissonance":0.095},{"voice":3,"pitch":52,"start":359.333,"duration":0.6667,"velocity":90,"measure":135,"beat":4.0,"subject_pos":-1,"motif":"","motif_pos":-1,"best_pos":2,"similarity":0.5,"stretto":false,"stretto_voices":0,"combination":[],"aug_dim":"","rhythm_ratio":1.0,"mirror":false,"chromatic_density":0.364,"complexity":0.625,"dissonance":0.095},{"voice":2,"pitch":55,"start":359.6663,"duration":0.3333,"velocity":90,"measure":135,"beat":4.5,"subject_pos":-1,"motif":"","motif_pos":-1,"best_pos":5,"similarity":0.475,"stretto":false,"stretto_voices":0,"combination":[],"aug_dim":"","rhythm_ratio":1.0,"mirror":false,"chromatic_density":0.364,"complexity":0.625,"dissonance":0.095},{"voice":0,"pitch":74,"start":359.9996,"duration":0.3333,"velocity":90,"measure":136,"beat":1.0,"subject_pos":-1,"motif":"enigmatic_cell","motif_pos":1,"best_pos":1,"similarity":1.0,"stretto":false,"stretto_voices":0,"combination":[],"aug_dim":"","rhythm_ratio":1.0,"mirror":false,"chromatic_density":0.417,"complexity":0.695,"dissonance":0.072},{"voice":2,"pitch":57,"start":359.9996,"duration":1.3333,"velocity":90,"measure":136,"beat":1.0,"subject_pos":-1,"motif":"","motif_pos":-1,"best_pos":6,"similarity":0.479,"stretto":false,"stretto_voices":0,"combination":[],"aug_dim":"","rhythm_ratio":1.0,"mirror":false,"chromatic_density":0.417,"complexity":0.695,"dissonance":0.072},{"voice":3,"pitch":50,"start":359.9996,"duration":0.3333,"velocity":90,"measure":136,"beat":1.0,"subject_pos":-1,"motif":"tail","motif_pos":3,"best_pos":3,"similarity":1.0,"stretto":false,"stretto_voices":0,"combination":[],"aug_dim":"","rhythm_ratio":1.0,"mirror":false,"chromatic_density":0.417,"complexity":0.695,"dissonance":0.072},{"voice":0,"pitch":69,"start":360.333,"duration":0.3333,"velocity":90,"measure":136,"beat":1.5,"subject_pos":-1,"motif":"enigmatic_cell","motif_pos":2,"best_pos":2,"similarity":1.0,"stretto":false,"stretto_voices":0,"combination":[],"aug_dim":"","rhythm_ratio":1.0,"mirror":false,"chromatic_density":0.417,"complexity":0.695,"dissonance":0.072},{"voice":3,"pitch":49,"start":360.333,"duration":0.3333,"velocity":90,"measure":136,"beat":1.5,"subject_pos":-1,"motif":"tail","motif_pos":4,"best_pos":4,"similarity":1.0,"stretto":false,"stretto_voices":0,"combination":[],"aug_dim":"","rhythm_ratio":1.0,"mirror":false,"chromatic_density":0.417,"complexity":0.695,"dissonance":0.072},{"voice":0,"pitch":74,"start":360.6663,"duration":0.3333,"velocity":90,"measure":136,"beat":2.0,"subject_pos":-1,"motif":"","motif_pos":-1,"best_pos":1,"similarity":0.389,"stretto":false,"stretto_voices":0,"combination":[],"aug_dim":"","rhythm_ratio":1.0,"mirror":false,"chromatic_density":0.417,"complexity":0.695,"dissonance":0.072},{"voice":1,"pitch":65,"start":360.6663,"duration":0.3333,"velocity":90,"measure":136,"beat":2.0,"subject_pos":-1,"motif":"","motif_pos":-1,"best_pos":2,"similarity":0.507,"stretto":false,"stretto_voices":0,"combination":[],"aug_dim":"","rhythm_ratio":1.0,"mirror":false,"chromatic_density":0.417,"complexity":0.695,"dissonance":0.072},{"voice":3,"pitch":50,"start":360.6663,"duration":0.3333,"velocity":90,"measure":136,"beat":2.0,"subject_pos":-1,"motif":"tail","motif_pos":5,"best_pos":5,"similarity":1.0,"stretto":false,"stretto_voices":0,"combination":[],"aug_dim":"","rhythm_ratio":1.0,"mirror":false,"chromatic_density":0.417,"complexity":0.695,"dissonance":0.072},{"voice":0,"pitch":74,"start":360.9996,"duration":0.3333,"velocity":90,"measure":136,"beat":2.5,"subject_pos":-1,"motif":"","motif_pos":-1,"best_pos":4,"similarity":0.393,"stretto":false,"stretto_voices":0,"combination":[],"aug_dim":"","rhythm_ratio":1.0,"mirror":false,"chromatic_density":0.417,"complexity":0.695,"dissonance":0.072},{"voice":1,"pitch":67,"start":360.9996,"duration":0.3333,"velocity":90,"measure":136,"beat":2.5,"subject_pos":-1,"motif":"","motif_pos":-1,"best_pos":1,"similarity":0.457,"stretto":false,"stretto_voices":0,"combination":[],"aug_dim":"","rhythm_ratio":1.0,"mirror":false,"chromatic_density":0.417,"complexity":0.695,"dissonance":0.072},{"voice":3,"pitch":52,"start":360.9996,"duration":0.3333,"velocity":90,"measure":136,"beat":2.5,"subject_pos":-1,"motif":"tail","motif_pos":6,"best_pos":6,"similarity":1.0,"stretto":false,"stretto_voices":0,"combination":[],"aug_dim":"","rhythm_ratio":1.0,"mirror":false,"chromatic_density":0.417,"complexity":0.695,"dissonance":0.072},{"voice":0,"pitch":74,"start":361.333,"duration":0.3333,"velocity":90,"measure":136,"beat":3.0,"subject_pos":-1,"motif":"","motif_pos":-1,"best_pos":2,"similarity":0.429,"stretto":false,"stretto_voices":0,"combination":[],"aug_dim":"","rhythm_ratio":1.0,"mirror":false,"chromatic_density":0.417,"complexity":0.695,"dissonance":0.072},{"voice":1,"pitch":65,"start":361.333,"duration":0.6667,"velocity":90,"measure":136,"beat":3.0,"subject_pos":-1,"motif":"","motif_pos":-1,"best_pos":2,"similarity":0.604,"stretto":false,"stretto_voices":0,"combination":[],"aug_dim":"","rhythm_ratio":1.0,"mirror":false,"chromatic_density":0.417,"complexity":0.695,"dissonance":0.072},{"voice":3,"pitch":53,"start":361.333,"duration":0.6667,"velocity":90,"measure":136,"beat":3.0,"subject_pos":-1,"motif":"tail","motif_pos":7,"best_pos":7,"similarity":1.0,"stretto":false,"stretto_voices":0,"combination":[],"aug_dim":"","rhythm_ratio":1.0,"mirror":false,"chromatic_density":0.417,"complexity":0.695,"dissonance":0.072},{"voice":0,"pitch":71,"start":361.6663,"duration":0.3333,"velocity":90,"measure":136,"beat":3.5,"subject_pos":-1,"motif":"","motif_pos":-1,"best_pos":3,"similarity":0.471,"stretto":false,"stretto_voices":0,"combination":[],"aug_dim":"","rhythm_ratio":1.0,"mirror":false,"chromatic_density":0.417,"complexity":0.695,"dissonance":0.072},{"voice":0,"pitch":72,"start":361.9996,"duration":0.3333,"velocity":90,"measure":136,"beat":4.0,"subject_pos":-1,"motif":"","motif_pos":-1,"best_pos":5,"similarity":0.414,"stretto":false,"stretto_voices":0,"combination":[],"aug_dim":"","rhythm_ratio":1.0,"mirror":false,"chromatic_density":0.417,"complexity":0.695,"dissonance":0.072},{"voice":1,"pitch":63,"start":361.9996,"duration":1.0,"velocity":90,"measure":136,"beat":4.0,"subject_pos":-1,"motif":"","motif_pos":-1,"best_pos":3,"similarity":0.632,"stretto":false,"stretto_voices":0,"combination":[],"aug_dim":"","rhythm_ratio":1.0,"mirror":false,"chromatic_density":0.417,"complexity":0.695,"dissonance":0.072},{"voice":2,"pitch":57,"start":361.9996,"duration":0.6667,"velocity":90,"measure":136,"beat":4.0,"subject_pos":-1,"motif":"enigmatic_cell","motif_pos":0,"best_pos":0,"similarity":1.0,"stretto":false,"stretto_voices":0,"combination":[],"aug_dim":"","rhythm_ratio":1.0,"mirror":false,"chromatic_density":0.417,"complexity":0.695,"dissonance":0.072},{"voice":3,"pitch":54,"start":361.9996,"duration":0.6667,"velocity":90,"measure":136,"beat":4.0,"subject_pos":-1,"motif":"enigmatic_cell","motif_pos":0,"best_pos":0,"similarity":1.0,"stretto":false,"stretto_voices":0,"combination":[],"aug_dim":"","rhythm_ratio":1.0,"mirror":false,"chromatic_density":0.417,"complexity":0.695,"dissonance":0.072},{"voice":0,"pitch":72,"start":362.333,"duration":0.3333,"velocity":90,"measure":136,"beat":4.5,"subject_pos":-1,"motif":"","motif_pos":-1,"best_pos":2,"similarity":0.379,"stretto":false,"stretto_voices":0,"combination":[],"aug_dim":"","rhythm_ratio":1.0,"mirror":false,"chromatic_density":0.417,"complexity":0.695,"dissonance":0.072},{"voice":0,"pitch":70,"start":362.6663,"duration":0.6667,"velocity":90,"measure":137,"beat":1.0,"subject_pos":-1,"motif":"","motif_pos":-1,"best_pos":3,"similarity":0.521,"stretto":false,"stretto_voices":0,"combination":[],"aug_dim":"","rhythm_ratio":1.0,"mirror":false,"chromatic_density":0.273,"complexity":0.663,"dissonance":0.091},{"voice":2,"pitch":58,"start":362.6663,"duration":0.6667,"velocity":90,"measure":137,"beat":1.0,"subject_pos":-1,"motif":"enigmatic_cell","motif_pos":1,"best_pos":1,"similarity":1.0,"stretto":false,"stretto_voices":0,"combination":[],"aug_dim":"","rhythm_ratio":1.0,"mirror":false,"chromatic_density":0.273,"complexity":0.663,"dissonance":0.091},{"voice":3,"pitch":55,"start":362.6663,"duration":0.6667,"velocity":90,"measure":137,"beat":1.0,"subject_pos":-1,"motif":"enigmatic_cell","motif_pos":1,"best_pos":1,"similarity":1.0,"stretto":false,"stretto_voices":0,"combination":[],"aug_dim":"","rhythm_ratio":1.0,"mirror":false,"chromatic_density":0.273,"complexity":0.663,"dissonance":0.091},{"voice":1,"pitch":62,"start":362.9996,"duration":0.3333,"velocity":90,"measure":137,"beat":1.5,"subject_pos":-1,"motif":"","motif_pos":-1,"best_pos":4,"similarity":0.571,"stretto":false,"stretto_voices":0,"combination":[],"aug_dim":"","rhythm_ratio":1.0,"mirror":false,"chromatic_density":0.273,"complexity":0.663,"dissonance":0.091},{"voice":0,"pitch":69,"start":363.333,"duration":1.0,"velocity":90,"measure":137,"beat":2.0,"subject_pos":-1,"motif":"","motif_pos":-1,"best_pos":4,"similarity":0.511,"stretto":false,"stretto_voices":0,"combination":[],"aug_dim":"","rhythm_ratio":1.0,"mirror":false,"chromatic_density":0.273,"complexity":0.663,"dissonance":0.091},{"voice":1,"pitch":65,"start":363.333,"duration":0.3333,"velocity":90,"measure":137,"beat":2.0,"subject_pos":-1,"motif":"","motif_pos":-1,"best_pos":5,"similarity":0.393,"stretto":false,"stretto_voices":0,"combination":[],"aug_dim":"","rhythm_ratio":1.0,"mirror":false,"chromatic_density":0.273,"complexity":0.663,"dissonance":0.091},{"voice":2,"pitch":53,"start":363.333,"duration":0.6667,"velocity":90,"measure":137,"beat":2.0,"subject_pos":-1,"motif":"enigmatic_cell","motif_pos":2,"best_pos":2,"similarity":1.0,"stretto":false,"stretto_voices":0,"combination":[],"aug_dim":"","rhythm_ratio":1.0,"mirror":false,"chromatic_density":0.273,"complexity":0.663,"dissonance":0.091},{"voice":3,"pitch":50,"start":363.333,"duration":0.6667,"velocity":90,"measure":137,"beat":2.0,"subject_pos":-1,"motif":"enigmatic_cell","motif_pos":2,"best_pos":2,"similarity":1.0,"stretto":false,"stretto_voices":0,"combination":[],"aug_dim":"","rhythm_ratio":1.0,"mirror":false,"chromatic_density":0.273,"complexity":0.663,"dissonance":0.091},{"voice":1,"pitch":65,"start":363.6663,"duration":0.3333,"velocity":90,"measure":137,"beat":2.5,"subject_pos":-1,"motif":"","motif_pos":-1,"best_pos":4,"similarity":0.354,"stretto":false,"stretto_voices":0,"combination":[],"aug_dim":"","rhythm_ratio":1.0,"mirror":false,"chromatic_density":0.273,"complexity":0.663,"dissonance":0.091},{"voice":1,"pitch":65,"start":363.9996,"duration":0.3333,"velocity":90,"measure":137,"beat":3.0,"subject_pos":-1,"motif":"","motif_pos":-1,"best_pos":3,"similarity":0.421,"stretto":false,"stretto_voices":0,"combination":[],"aug_dim":"","rhythm_ratio":1.0,"mirror":false,"chromatic_density":0.273,"complexity":0.663,"dissonance":0.091},{"voice":2,"pitch":60,"start":363.9996,"duration":0.6667,"velocity":90,"measure":137,"beat":3.0,"subject_pos":-1,"motif":"","motif_pos":-1,"best_pos":4,"similarity":0.4,"stretto":false,"stretto_voices":0,"combination":[],"aug_dim":"","rhythm_ratio":1.0,"mirror":false,"chromatic_density":0.273,"complexity":0.663,"dissonance":0.091},{"voice":3,"pitch":57,"start":363.9996,"duration":7.3333,"velocity":90,"measure":137,"beat":3.0,"subject_pos":-1,"motif":"","motif_pos":-1,"best_pos":1,"similarity":0.386,"stretto":false,"stretto_voices":0,"combination":[],"aug_dim":"","rhythm_ratio":1.0,"mirror":false,"chromatic_density":0.273,"complexity":0.663,"dissonance":0.091},{"voice":0,"pitch":67,"start":364.333,"duration":0.3333,"velocity":90,"measure":137,"beat":3.5,"subject_pos":-1,"motif":"","motif_pos":-1,"best_pos":5,"similarity":0.421,"stretto":false,"stretto_voices":0,"combination":[],"aug_dim":"","rhythm_ratio":1.0,"mirror":false,"chromatic_density":0.273,"complexity":0.663,"dissonance":0.091},{"voice":1,"pitch":64,"start":364.333,"duration":0.3333,"velocity":90,"measure":137,"beat":3.5,"subject_pos":-1,"motif":"","motif_pos":-1,"best_pos":4,"similarity":0.461,"stretto":false,"stretto_voices":0,"combination":[],"aug_dim":"","rhythm_ratio":1.0,"mirror":false,"chromatic_density":0.273,"complexity":0.663,"dissonance":0.091},{"voice":0,"pitch":70,"start":364.6663,"duration":0.3333,"velocity":90,"measure":137,"beat":4.0,"subject_pos":-1,"motif":"","motif_pos":-1,"best_pos":6,"similarity":0.371,"stretto":false,"stretto_voices":0,"combination":[],"aug_dim":"","rhythm_ratio":1.0,"mirror":false,"chromatic_density":0.273,"complexity":0.663,"dissonance":0.091},{"voice":1,"pitch":67,"start":364.6663,"duration":0.3333,"velocity":90,"measure":137,"beat":4.0,"subject_pos":-1,"motif":"","motif_pos":-1,"best_pos":5,"similarity":0.364,"stretto":false,"stretto_voices":0,"combination":[],"aug_dim":"","rhythm_ratio":1.0,"mirror":false,"chromatic_density":0.273,"complexity":0.663,"dissonance":0.091},{"voice":2,"pitch":61,"start":364.6663,"duration":0.6667,"velocity":90,"measure":137,"beat":4.0,"subject_pos":-1,"motif":"enigmatic_cell","motif_pos":0,"best_pos":0,"similarity":1.0,"stretto":false,"stretto_voices":0,"combination":[],"aug_dim":"","rhythm_ratio":1.0,"mirror":false,"chromatic_density":0.273,"complexity":0.663,"dissonance":0.091},{"voice":0,"pitch":70,"start":364.9996,"duration":0.3333,"velocity":90,"measure":137,"beat":4.5,"subject_pos":-1,"motif":"","motif_pos":-1,"best_pos":4,"similarity":0.389,"stretto":false,"stretto_voices":0,"combination":[],"aug_dim":"","rhythm_ratio":1.0,"mirror":false,"chromatic_density":0.273,"complexity":0.663,"dissonance":0.091},{"voice":1,"pitch":67,"start":364.9996,"duration":0.3333,"velocity":90,"measure":137,"beat":4.5,"subject_pos":-1,"motif":"","motif_pos":-1,"best_pos":4,"similarity":0.354,"stretto":false,"stretto_voices":0,"combination":[],"aug_dim":"","rhythm_ratio":1.0,"mirror":false,"chromatic_density":0.273,"complexity":0.663,"dissonance":0.091},{"voice":0,"pitch":70,"start":365.333,"duration":0.3333,"velocity":90,"measure":138,"beat":1.0,"subject_pos":-1,"motif":"","motif_pos":-1,"best_pos":3,"similarity":0.421,"stretto":false,"stretto_voices":0,"combination":[],"aug_dim":"","rhythm_ratio":1.0,"mirror":false,"chromatic_density":0.4,"complexity":0.515,"dissonance":0.062},{"voice":1,"pitch":67,"start":365.333,"duration":0.3333,"velocity":90,"measure":138,"beat":1.0,"subject_pos":-1,"motif":"","motif_pos":-1,"best_pos":3,"similarity":0.421,"stretto":false,"stretto_voices":0,"combination":[],"aug_dim":"","rhythm_ratio":1.0,"mirror":false,"chromatic_density":0.4,"complexity":0.515,"dissonance":0.062},{"voice":2,"pitch":62,"start":365.333,"duration":0.6667,"velocity":90,"measure":138,"beat":1.0,"subject_pos":-1,"motif":"enigmatic_cell","motif_pos":1,"best_pos":1,"similarity":1.0,"stretto":false,"stretto_voices":0,"combination":[],"aug_dim":"","rhythm_ratio":1.0,"mirror":false,"chromatic_density":0.4,"complexity":0.515,"dissonance":0.062},{"voice":0,"pitch":69,"start":365.6663,"duration":0.3333,"velocity":90,"measure":138,"beat":1.5,"subject_pos":-1,"motif":"","motif_pos":-1,"best_pos":4,"similarity":0.461,"stretto":false,"stretto_voices":0,"combination":[],"aug_dim":"","rhythm_ratio":1.0,"mirror":false,"chromatic_density":0.4,"complexity":0.515,"dissonance":0.062},{"voice":1,"pitch":66,"start":365.6663,"duration":0.3333,"velocity":90,"measure":138,"beat":1.5,"subject_pos":-1,"motif":"","motif_pos":-1,"best_pos":4,"similarity":0.461,"stretto":false,"stretto_voices":0,"combination":[],"aug_dim":"","rhythm_ratio":1.0,"mirror":false,"chromatic_density":0.4,"complexity":0.515,"dissonance":0.062},{"voice":0,"pitch":72,"start":365.9996,"duration":0.3333,"velocity":90,"measure":138,"beat":2.0,"subject_pos":-1,"motif":"","motif_pos":-1,"best_pos":5,"similarity":0.364,"stretto":false,"stretto_voices":0,"combination":[],"aug_dim":"","rhythm_ratio":1.0,"mirror":false,"chromatic_density":0.4,"complexity":0.515,"dissonance":0.062},{"voice":1,"pitch":69,"start":365.9996,"duration":0.3333,"velocity":90,"measure":138,"beat":2.0,"subject_pos":-1,"motif":"","motif_pos":-1,"best_pos":5,"similarity":0.364,"stretto":false,"stretto_voices":0,"combination":[],"aug_dim":"","rhythm_ratio":1.0,"mirror":false,"chromatic_density":0.4,"complexity":0.515,"dissonance":0.062},{"voice":2,"pitch":57,"start":365.9996,"duration":0.6667,"velocity":90,"measure":138,"beat":2.0,"subject_pos":-1,"motif":"enigmatic_cell","motif_pos":2,"best_pos":2,"similarity":1.0,"stretto":false,"stretto_voices":0,"combination":[],"aug_dim":"","rhythm_ratio":1.0,"mirror":false,"chromatic_density":0.4,"complexity":0.515,"dissonance":0.062},{"voice":0,"pitch":72,"start":366.333,"duration":0.3333,"velocity":90,"measure":138,"beat":2.5,"subject_pos":-1,"motif":"","motif_pos":-1,"best_pos":4,"similarity":0.354,"stretto":false,"stretto_voices":0,"combination":[],"aug_dim":"","rhythm_ratio":1.0,"mirror":false,"chromatic_density":0.4,"complexity":0.515,"dissonance":0.062},{"voice":1,"pitch":69,"start":366.333,"duration":0.3333,"velocity":90,"measure":138,"beat":2.5,"subject_pos":-1,"motif":"","motif_pos":-1,"best_pos":4,"similarity":0.354,"stretto":false,"stretto_voices":0,"combination":[],"aug_dim":"","rhythm_ratio":1.0,"mirror":false,"chromatic_density":0.4,"complexity":0.515,"dissonance":0.062},{"voice":0,"pitch":72,"start":366.6663,"duration":0.3333,"velocity":90,"measure":138,"beat":3.0,"subject_pos":-1,"motif":"","motif_pos":-1,"best_pos":3,"similarity":0.421,"stretto":false,"stretto_voices":0,"combination":[],"aug_dim":"","rhythm_ratio":1.0,"mirror":false,"chromatic_density":0.4,"complexity":0.515,"dissonance":0.062},{"voice":1,"pitch":69,"start":366.6663,"duration":0.3333,"velocity":90,"measure":138,"beat":3.0,"subject_pos":-1,"motif":"","motif_pos":-1,"best_pos":3,"similarity":0.421,"stretto":false,"stretto_voices":0,"combination":[],"aug_dim":"","rhythm_ratio":1.0,"mirror":false,"chromatic_density":0.4,"complexity":0.515,"dissonance":0.062},{"voice":2,"pitch":64,"start":366.6663,"duration":1.3333,"velocity":90,"measure":138,"beat":3.0,"subject_pos":-1,"motif":"","motif_pos":-1,"best_pos":1,"similarity":0.386,"stretto":false,"stretto_voices":0,"combination":[],"aug_dim":"","rhythm_ratio":1.0,"mirror":false,"chromatic_density":0.4,"complexity":0.515,"dissonance":0.062},{"voice":0,"pitch":71,"start":366.9996,"duration":0.3333,"velocity":90,"measure":138,"beat":3.5,"subject_pos":-1,"motif":"","motif_pos":-1,"best_pos":4,"similarity":0.461,"stretto":false,"stretto_voices":0,"combination":[],"aug_dim":"","rhythm_ratio":1.0,"mirror":false,"chromatic_density":0.4,"complexity":0.515,"dissonance":0.062},{"voice":1,"pitch":68,"start":366.9996,"duration":0.3333,"velocity":90,"measure":138,"beat":3.5,"subject_pos":-1,"motif":"","motif_pos":-1,"best_pos":4,"similarity":0.461,"stretto":false,"stretto_voices":0,"combination":[],"aug_dim":"","rhythm_ratio":1.0,"mirror":false,"chromatic_density":0.4,"complexity":0.515,"dissonance":0.062},{"voice":0,"pitch":74,"start":367.333,"duration":0.3333,"velocity":90,"measure":138,"beat":4.0,"subject_pos":-1,"motif":"","motif_pos":-1,"best_pos":5,"similarity":0.364,"stretto":false,"stretto_voices":0,"combination":[],"aug_dim":"","rhythm_ratio":1.0,"mirror":false,"chromatic_density":0.4,"complexity":0.515,"dissonance":0.062},{"voice":1,"pitch":71,"start":367.333,"duration":0.3333,"velocity":90,"measure":138,"beat":4.0,"subject_pos":-1,"motif":"","motif_pos":-1,"best_pos":5,"similarity":0.364,"stretto":false,"stretto_voices":0,"combination":[],"aug_dim":"","rhythm_ratio":1.0,"mirror":false,"chromatic_density":0.4,"complexity":0.515,"dissonance":0.062},{"voice":0,"pitch":74,"start":367.6663,"duration":0.3333,"velocity":90,"measure":138,"beat":4.5,"subject_pos":-1,"motif":"","motif_pos":-1,"best_pos":4,"similarity":0.407,"stretto":false,"stretto_voices":0,"combination":[],"aug_dim":"","rhythm_ratio":1.0,"mirror":false,"chromatic_density":0.4,"complexity":0.515,"dissonance":0.062},{"voice":1,"pitch":71,"start":367.6663,"duration":0.3333,"velocity":90,"measure":138,"beat":4.5,"subject_pos":-1,"motif":"","motif_pos":-1,"best_pos":4,"similarity":0.371,"stretto":false,"stretto_voices":0,"combination":[],"aug_dim":"","rhythm_ratio":1.0,"mirror":false,"chromatic_density":0.4,"complexity":0.515,"dissonance":0.062},{"voice":0,"pitch":74,"start":367.9996,"duration":0.3333,"velocity":90,"measure":139,"beat":1.0,"subject_pos":-1,"motif":"tail","motif_pos":3,"best_pos":3,"similarity":1.0,"stretto":false,"stretto_voices":0,"combination":[],"aug_dim":"","rhythm_ratio":1.0,"mirror":false,"chromatic_density":0.5,"complexity":0.471,"dissonance":0.054},{"voice":1,"pitch":71,"start":367.9996,"duration":0.3333,"velocity":90,"measure":139,"beat":1.0,"subject_pos":-1,"motif":"","motif_pos":-1,"best_pos":3,"similarity":0.368,"stretto":false,"stretto_voices":0,"combination":[],"aug_dim":"","rhythm_ratio":1.0,"mirror":false,"chromatic_density":0.5,"complexity":0.471,"dissonance":0.054},{"voice":2,"pitch":65,"start":367.9996,"duration":0.6667,"velocity":90,"measure":139,"beat":1.0,"subject_pos":-1,"motif":"","motif_pos":-1,"best_pos":3,"similarity":0.4,"stretto":false,"stretto_voices":0,"combination":[],"aug_dim":"","rhythm_ratio":1.0,"mirror":false,"chromatic_density":0.5,"complexity":0.471,"dissonance":0.054},{"voice":0,"pitch":73,"start":368.333,"duration":0.3333,"velocity":90,"measure":139,"beat":1.5,"subject_pos":-1,"motif":"tail","motif_pos":4,"best_pos":4,"similarity":1.0,"stretto":false,"stretto_voices":0,"combination":[],"aug_dim":"","rhythm_ratio":1.0,"mirror":false,"chromatic_density":0.5,"complexity":0.471,"dissonance":0.054},{"voice":1,"pitch":69,"start":368.333,"duration":0.3333,"velocity":90,"measure":139,"beat":1.5,"subject_pos":-1,"motif":"","motif_pos":-1,"best_pos":4,"similarity":0.532,"stretto":false,"stretto_voices":0,"combination":[],"aug_dim":"","rhythm_ratio":1.0,"mirror":false,"chromatic_density":0.5,"complexity":0.471,"dissonance":0.054},{"voice":0,"pitch":74,"start":368.6663,"duration":0.3333,"velocity":90,"measure":139,"beat":2.0,"subject_pos":-1,"motif":"tail","motif_pos":5,"best_pos":5,"similarity":1.0,"stretto":false,"stretto_voices":0,"combination":[],"aug_dim":"","rhythm_ratio":1.0,"mirror":false,"chromatic_density":0.5,"complexity":0.471,"dissonance":0.054},{"voice":1,"pitch":71,"start":368.6663,"duration":0.3333,"velocity":90,"measure":139,"beat":2.0,"subject_pos":-1,"motif":"","motif_pos":-1,"best_pos":5,"similarity":0.65,"stretto":false,"stretto_voices":0,"combination":[],"aug_dim":"","rhythm_ratio":1.0,"mirror":false,"chromatic_density":0.5,"complexity":0.471,"dissonance":0.054},{"voice":2,"pitch":64,"start":368.6663,"duration":0.6667,"velocity":90,"measure":139,"beat":2.0,"subject_pos":-1,"motif":"","motif_pos":-1,"best_pos":4,"similarity":0.479,"stretto":false,"stretto_voices":0,"combination":[],"aug_dim":"","rhythm_ratio":1.0,"mirror":false,"chromatic_density":0.5,"complexity":0.471,"dissonance":0.054},{"voice":0,"pitch":76,"start":368.9996,"duration":0.3333,"velocity":90,"measure":139,"beat":2.5,"subject_pos":-1,"motif":"tail","motif_pos":6,"best_pos":6,"similarity":1.0,"stretto":false,"stretto_voices":0,"combination":[],"aug_dim":"","rhythm_ratio":1.0,"mirror":false,"chromatic_density":0.5,"complexity":0.471,"dissonance":0.054},{"voice":1,"pitch":73,"start":368.9996,"duration":0.3333,"velocity":90,"measure":139,"beat":2.5,"subject_pos":-1,"motif":"","motif_pos":-1,"best_pos":6,"similarity":0.679,"stretto":false,"stretto_voices":0,"combination":[],"aug_dim":"","rhythm_ratio":1.0,"mirror":false,"chromatic_density":0.5,"complexity":0.471,"dissonance":0.054},{"voice":0,"pitch":77,"start":369.333,"duration":0.3333,"velocity":90,"measure":139,"beat":3.0,"subject_pos":-1,"motif":"tail","motif_pos":7,"best_pos":7,"similarity":1.0,"stretto":false,"stretto_voices":0,"combination":[],"aug_dim":"","rhythm_ratio":1.0,"mirror":false,"chromatic_density":0.5,"complexity":0.471,"dissonance":0.054},{"voice":1,"pitch":74,"start":369.333,"duration":0.3333,"velocity":90,"measure":139,"beat":3.0,"subject_pos":-1,"motif":"","motif_pos":-1,"best_pos":3,"similarity":0.55,"stretto":false,"stretto_voices":0,"combination":[],"aug_dim":"","rhythm_ratio":1.0,"mirror":false,"chromatic_density":0.5,"complexity":0.471,"dissonance":0.054},{"voice":2,"pitch":62,"start":369.333,"duration":0.3333,"velocity":90,"measure":139,"beat":3.0,"subject_pos":-1,"motif":"","motif_pos":-1,"best_pos":5,"similarity":0.479,"stretto":false,"stretto_voices":0,"combination":[],"aug_dim":"","rhythm_ratio":1.0,"mirror":false,"chromatic_density":0.5,"complexity":0.471,"dissonance":0.054},{"voice":0,"pitch":76,"start":369.6663,"duration":0.3333,"velocity":90,"measure":139,"beat":3.5,"subject_pos":-1,"motif":"","motif_pos":-1,"best_pos":4,"similarity":0.743,"stretto":false,"stretto_voices":0,"combination":[],"aug_dim":"","rhythm_ratio":1.0,"mirror":false,"chromatic_density":0.5,"complexity":0.471,"dissonance":0.054},{"voice":1,"pitch":73,"start":369.6663,"duration":0.3333,"velocity":90,"measure":139,"beat":3.5,"subject_pos":-1,"motif":"","motif_pos":-1,"best_pos":4,"similarity":0.743,"stretto":false,"stretto_voices":0,"combination":[],"aug_dim":"","rhythm_ratio":1.0,"mirror":false,"chromatic_density":0.5,"complexity":0.471,"dissonance":0.054},{"voice":2,"pitch":64,"start":369.6663,"duration":0.3333,"velocity":90,"measure":139,"beat":3.5,"subject_pos":-1,"motif":"","motif_pos":-1,"best_pos":6,"similarity":0.4,"stretto":false,"stretto_voices":0,"combination":[],"aug_dim":"","rhythm_ratio":1.0,"mirror":false,"chromatic_density":0.5,"complexity":0.471,"dissonance":0.054},{"voice":0,"pitch":77,"start":369.9996,"duration":0.3333,"velocity":90,"measure":139,"beat":4.0,"subject_pos":-1,"motif":"","motif_pos":-1,"best_pos":5,"similarity":0.736,"stretto":false,"stretto_voices":0,"combination":[],"aug_dim":"","rhythm_ratio":1.0,"mirror":false,"chromatic_density":0.5,"complexity":0.471,"dissonance":0.054},{"voice":1,"pitch":74,"start":369.9996,"duration":0.3333,"velocity":90,"measure":139,"beat":4.0,"subject_pos":-1,"motif":"","motif_pos":-1,"best_pos":5,"similarity":0.736,"stretto":false,"stretto_voices":0,"combination":[],"aug_dim":"","rhythm_ratio":1.0,"mirror":false,"chromatic_density":0.5,"complexity":0.471,"dissonance":0.054},{"voice":2,"pitch":62,"start":369.9996,"duration":0.6667,"velocity":90,"measure":139,"beat":4.0,"subject_pos":-1,"motif":"","motif_pos":-1,"best_pos":0,"similarity":0.357,"stretto":false,"stretto_voices":0,"combination":[],"aug_dim":"","rhythm_ratio":1.0,"mirror":false,"chromatic_density":0.5,"complexity":0.471,"dissonance":0.054},{"voice":0,"pitch":79,"start":370.333,"duration":0.3333,"velocity":90,"measure":139,"beat":4.5,"subject_pos":-1,"motif":"","motif_pos":-1,"best_pos":6,"similarity":0.529,"stretto":false,"stretto_voices":0,"combination":[],"aug_dim":"","rhythm_ratio":1.0,"mirror":false,"chromatic_density":0.5,"complexity":0.471,"dissonance":0.054},{"voice":1,"pitch":76,"start":370.333,"duration":0.3333,"velocity":90,"measure":139,"beat":4.5,"subject_pos":-1,"motif":"","motif_pos":-1,"best_pos":6,"similarity":0.529,"stretto":false,"stretto_voices":0,"combination":[],"aug_dim":"","rhythm_ratio":1.0,"mirror":false,"chromatic_density":0.5,"complexity":0.471,"dissonance":0.054},{"voice":0,"pitch":76,"start":370.6663,"duration":0.6667,"velocity":90,"measure":140,"beat":1.0,"subject_pos":-1,"motif":"","motif_pos":-1,"best_pos":3,"similarity":0.464,"stretto":false,"stretto_voices":0,"combination":[],"aug_dim":"","rhythm_ratio":1.0,"mirror":false,"chromatic_density":0.5,"complexity":0.445,"dissonance":0.088},{"voice":1,"pitch":73,"start":370.6663,"duration":0.6667,"velocity":90,"measure":140,"beat":1.0,"subject_pos":-1,"motif":"","motif_pos":-1,"best_pos":3,"similarity":0.636,"stretto":false,"stretto_voices":0,"combination":[],"aug_dim":"","rhythm_ratio":1.0,"mirror":false,"chromatic_density":0.5,"complexity":0.445,"dissonance":0.088},{"voice":2,"pitch":69,"start":370.6663,"duration":0.3333,"velocity":90,"measure":140,"beat":1.0,"subject_pos":-1,"motif":"","motif_pos":-1,"best_pos":1,"similarity":0.464,"stretto":false,"stretto_voices":0,"combination":[],"aug_dim":"","rhythm_ratio":1.0,"mirror":false,"chromatic_density":0.5,"complexity":0.445,"dissonance":0.088},{"voice":2,"pitch":64,"start":370.9996,"duration":0.3333,"velocity":90,"measure":140,"beat":1.5,"subject_pos":-1,"motif":"","motif_pos":-1,"best_pos":2,"similarity":0.393,"stretto":false,"stretto_voices":0,"combination":[],"aug_dim":"","rhythm_ratio":1.0,"mirror":false,"chromatic_density":0.5,"complexity":0.445,"dissonance":0.088},{"voice":0,"pitch":77,"start":371.333,"duration":0.6667,"velocity":90,"measure":140,"beat":2.0,"subject_pos":-1,"motif":"","motif_pos":-1,"best_pos":4,"similarity":0.4,"stretto":false,"stretto_voices":0,"combination":[],"aug_dim":"","rhythm_ratio":1.0,"mirror":false,"chromatic_density":0.5,"complexity":0.445,"dissonance":0.088},{"voice":1,"pitch":72,"start":371.333,"duration":0.6667,"velocity":90,"measure":140,"beat":2.0,"subject_pos":-1,"motif":"","motif_pos":-1,"best_pos":4,"similarity":0.539,"stretto":false,"stretto_voices":0,"combination":[],"aug_dim":"","rhythm_ratio":1.0,"mirror":false,"chromatic_density":0.5,"complexity":0.445,"dissonance":0.088},{"voice":2,"pitch":69,"start":371.333,"duration":0.3333,"velocity":90,"measure":140,"beat":2.0,"subject_pos":-1,"motif":"","motif_pos":-1,"best_pos":1,"similarity":0.389,"stretto":false,"stretto_voices":0,"combination":[],"aug_dim":"","rhythm_ratio":1.0,"mirror":false,"chromatic_density":0.5,"complexity":0.445,"dissonance":0.088},{"voice":2,"pitch":69,"start":371.6663,"duration":0.3333,"velocity":90,"measure":140,"beat":2.5,"subject_pos":-1,"motif":"","motif_pos":-1,"best_pos":4,"similarity":0.393,"stretto":false,"stretto_voices":0,"combination":[],"aug_dim":"","rhythm_ratio":1.0,"mirror":false,"chromatic_density":0.5,"complexity":0.445,"dissonance":0.088},{"voice":0,"pitch":74,"start":371.9996,"duration":0.6667,"velocity":90,"measure":140,"beat":3.0,"subject_pos":-1,"motif":"","motif_pos":-1,"best_pos":5,"similarity":0.436,"stretto":false,"stretto_voices":0,"combination":[],"aug_dim":"","rhythm_ratio":1.0,"mirror":false,"chromatic_density":0.5,"complexity":0.445,"dissonance":0.088},{"voice":1,"pitch":71,"start":371.9996,"duration":0.6667,"velocity":90,"measure":140,"beat":3.0,"subject_pos":-1,"motif":"","motif_pos":-1,"best_pos":4,"similarity":0.514,"stretto":false,"stretto_voices":0,"combination":[],"aug_dim":"","rhythm_ratio":1.0,"mirror":false,"chromatic_density":0.5,"complexity":0.445,"dissonance":0.088},{"voice":2,"pitch":69,"start":371.9996,"duration":0.3333,"velocity":90,"measure":140,"beat":3.0,"subject_pos":-1,"motif":"","motif_pos":-1,"best_pos":2,"similarity":0.429,"stretto":false,"stretto_voices":0,"combination":[],"aug_dim":"","rhythm_ratio":1.0,"mirror":false,"chromatic_density":0.5,"complexity":0.445,"dissonance":0.088},{"voice":2,"pitch":66,"start":372.333,"duration":0.3333,"velocity":90,"measure":140,"beat":3.5,"subject_pos":-1,"motif":"","motif_pos":-1,"best_pos":3,"similarity":0.482,"stretto":false,"stretto_voices":0,"combination":[],"aug_dim":"","rhythm_ratio":1.0,"mirror":false,"chromatic_density":0.5,"complexity":0.445,"dissonance":0.088},{"voice":0,"pitch":76,"start":372.6663,"duration":0.6667,"velocity":90,"measure":140,"beat":4.0,"subject_pos":-1,"motif":"","motif_pos":-1,"best_pos":2,"similarity":0.35,"stretto":false,"stretto_voices":0,"combination":[],"aug_dim":"","rhythm_ratio":1.0,"mirror":false,"chromatic_density":0.5,"complexity":0.445,"dissonance":0.088},{"voice":1,"pitch":70,"start":372.6663,"duration":0.6667,"velocity":90,"measure":140,"beat":4.0,"subject_pos":-1,"motif":"","motif_pos":-1,"best_pos":3,"similarity":0.607,"stretto":false,"stretto_voices":0,"combination":[],"aug_dim":"","rhythm_ratio":1.0,"mirror":false,"chromatic_density":0.5,"complexity":0.445,"dissonance":0.088},{"voice":2,"pitch":67,"start":372.6663,"duration":0.3333,"velocity":90,"measure":140,"beat":4.0,"subject_pos":-1,"motif":"","motif_pos":-1,"best_pos":5,"similarity":0.471,"stretto":false,"stretto_voices":0,"combination":[],"aug_dim":"","rhythm_ratio":1.0,"mirror":false,"chromatic_density":0.5,"complexity":0.445,"dissonance":0.088},{"voice":2,"pitch":67,"start":372.9996,"duration":0.3333,"velocity":90,"measure":140,"beat":4.5,"subject_pos":-1,"motif":"","motif_pos":-1,"best_pos":4,"similarity":0.407,"stretto":false,"stretto_voices":0,"combination":[],"aug_dim":"","rhythm_ratio":1.0,"mirror":false,"chromatic_density":0.5,"complexity":0.445,"dissonance":0.088},{"voice":0,"pitch":73,"start":373.333,"duration":0.6667,"velocity":90,"measure":141,"beat":1.0,"subject_pos":-1,"motif":"","motif_pos":-1,"best_pos":4,"similarity":0.4,"stretto":false,"stretto_voices":0,"combination":[],"aug_dim":"","rhythm_ratio":1.0,"mirror":false,"chromatic_density":0.7,"complexity":0.502,"dissonance":0.173},{"voice":1,"pitch":69,"start":373.333,"duration":0.6667,"velocity":90,"measure":141,"beat":1.0,"subject_pos":-1,"motif":"","motif_pos":-1,"best_pos":4,"similarity":0.786,"stretto":false,"stretto_voices":0,"combination":[],"aug_dim":"","rhythm_ratio":1.0,"mirror":false,"chromatic_density":0.7,"complexity":0.502,"dissonance":0.173},{"voice":2,"pitch":67,"start":373.333,"duration":0.3333,"velocity":90,"measure":141,"beat":1.0,"subject_pos":-1,"motif":"","motif_pos":-1,"best_pos":2,"similarity":0.429,"stretto":false,"stretto_voices":0,"combination":[],"aug_dim":"","rhythm_ratio":1.0,"mirror":false,"chromatic_density":0.7,"complexity":0.502,"dissonance":0.173},{"voice":2,"pitch":64,"start":373.6663,"duration":0.3333,"velocity":90,"measure":141,"beat":1.5,"subject_pos":-1,"motif":"","motif_pos":-1,"best_pos":3,"similarity":0.482,"stretto":false,"stretto_voices":0,"combination":[],"aug_dim":"","rhythm_ratio":1.0,"mirror":false,"chromatic_density":0.7,"complexity":0.502,"dissonance":0.173},{"voice":0,"pitch":74,"start":373.9996,"duration":0.6667,"velocity":90,"measure":141,"beat":2.0,"subject_pos":-1,"motif":"","motif_pos":-1,"best_pos":0,"similarity":0.364,"stretto":false,"stretto_voices":0,"combination":[],"aug_dim":"","rhythm_ratio":1.0,"mirror":false,"chromatic_density":0.7,"complexity":0.502,"dissonance":0.173},{"voice":1,"pitch":70,"start":373.9996,"duration":0.6667,"velocity":90,"measure":141,"beat":2.0,"subject_pos":-1,"motif":"","motif_pos":-1,"best_pos":5,"similarity":0.732,"stretto":false,"stretto_voices":0,"combination":[],"aug_dim":"","rhythm_ratio":1.0,"mirror":false,"chromatic_density":0.7,"complexity":0.502,"dissonance":0.173},{"voice":2,"pitch":65,"start":373.9996,"duration":0.3333,"velocity":90,"measure":141,"beat":2.0,"subject_pos":-1,"motif":"","motif_pos":-1,"best_pos":5,"similarity":0.471,"stretto":false,"stretto_voices":0,"combination":[],"aug_dim":"","rhythm_ratio":1.0,"mirror":false,"chromatic_density":0.7,"complexity":0.502,"dissonance":0.173},{"voice":3,"pitch":50,"start":373.9996,"duration":1.0,"velocity":90,"measure":141,"beat":2.0,"subject_pos":-1,"motif":"","motif_pos":-1,"best_pos":2,"similarity":0.35,"stretto":false,"stretto_voices":0,"combination":[],"aug_dim":"","rhythm_ratio":1.0,"mirror":false,"chromatic_density":0.7,"complexity":0.502,"dissonance":0.173},{"voice":2,"pitch":65,"start":374.333,"duration":0.3333,"velocity":90,"measure":141,"beat":2.5,"subject_pos":-1,"motif":"","motif_pos":-1,"best_pos":4,"similarity":0.425,"stretto":false,"stretto_voices":0,"combination":[],"aug_dim":"","rhythm_ratio":1.0,"mirror":false,"chromatic_density":0.7,"complexity":0.502,"dissonance":0.173},{"voice":1,"pitch":71,"start":374.6663,"duration":0.6667,"velocity":90,"measure":141,"beat":3.0,"subject_pos":-1,"motif":"","motif_pos":-1,"best_pos":6,"similarity":0.643,"stretto":false,"stretto_voices":0,"combination":[],"aug_dim":"","rhythm_ratio":1.0,"mirror":false,"chromatic_density":0.7,"complexity":0.502,"dissonance":0.173},{"voice":2,"pitch":65,"start":374.6663,"duration":0.3333,"velocity":90,"measure":141,"beat":3.0,"subject_pos":-1,"motif":"","motif_pos":-1,"best_pos":5,"similarity":0.4,"stretto":false,"stretto_voices":0,"combination":[],"aug_dim":"","rhythm_ratio":1.0,"mirror":false,"chromatic_density":0.7,"complexity":0.502,"dissonance":0.173},{"voice":2,"pitch":68,"start":374.9996,"duration":0.3333,"velocity":90,"measure":141,"beat":3.5,"subject_pos":-1,"motif":"","motif_pos":-1,"best_pos":3,"similarity":0.411,"stretto":false,"stretto_voices":0,"combination":[],"aug_dim":"","rhythm_ratio":1.0,"mirror":false,"chromatic_density":0.7,"complexity":0.502,"dissonance":0.173},{"voice":3,"pitch":53,"start":374.9996,"duration":0.3333,"velocity":90,"measure":141,"beat":3.5,"subject_pos":-1,"motif":"","motif_pos":-1,"best_pos":3,"similarity":0.461,"stretto":false,"stretto_voices":0,"combination":[],"aug_dim":"","rhythm_ratio":1.0,"mirror":false,"chromatic_density":0.7,"complexity":0.502,"dissonance":0.173},{"voice":1,"pitch":72,"start":375.333,"duration":0.6667,"velocity":90,"measure":141,"beat":4.0,"subject_pos":-1,"motif":"","motif_pos":-1,"best_pos":5,"similarity":0.614,"stretto":false,"stretto_voices":0,"combination":[],"aug_dim":"","rhythm_ratio":1.0,"mirror":false,"chromatic_density":0.7,"complexity":0.502,"dissonance":0.173},{"voice":2,"pitch":67,"start":375.333,"duration":0.3333,"velocity":90,"measure":141,"beat":4.0,"subject_pos":-1,"motif":"","motif_pos":-1,"best_pos":4,"similarity":0.5,"stretto":false,"stretto_voices":0,"combination":[],"aug_dim":"","rhythm_ratio":1.0,"mirror":false,"chromatic_density":0.7,"complexity":0.502,"dissonance":0.173},{"voice":3,"pitch":52,"start":375.333,"duration":0.3333,"velocity":90,"measure":141,"beat":4.0,"subject_pos":-1,"motif":"","motif_pos":-1,"best_pos":4,"similarity":0.489,"stretto":false,"stretto_voices":0,"combination":[],"aug_dim":"","rhythm_ratio":1.0,"mirror":false,"chromatic_density":0.7,"complexity":0.502,"dissonance":0.173},{"voice":2,"pitch":67,"start":375.6663,"duration":0.3333,"velocity":90,"measure":141,"beat":4.5,"subject_pos":-1,"motif":"","motif_pos":-1,"best_pos":4,"similarity":0.411,"stretto":false,"stretto_voices":0,"combination":[],"aug_dim":"","rhythm_ratio":1.0,"mirror":false,"chromatic_density":0.7,"complexity":0.502,"dissonance":0.173},{"voice":3,"pitch":52,"start":375.6663,"duration":0.3333,"velocity":90,"measure":141,"beat":4.5,"subject_pos":-1,"motif":"","motif_pos":-1,"best_pos":4,"similarity":0.411,"stretto":false,"stretto_voices":0,"combination":[],"aug_dim":"","rhythm_ratio":1.0,"mirror":false,"chromatic_density":0.7,"complexity":0.502,"dissonance":0.173},{"voice":1,"pitch":73,"start":375.9996,"duration":0.6667,"velocity":90,"measure":142,"beat":1.0,"subject_pos":-1,"motif":"","motif_pos":-1,"best_pos":5,"similarity":0.614,"stretto":false,"stretto_voices":0,"combination":[],"aug_dim":"","rhythm_ratio":1.0,"mirror":false,"chromatic_density":0.455,"complexity":0.601,"dissonance":0.15},{"voice":2,"pitch":67,"start":375.9996,"duration":0.3333,"velocity":90,"measure":142,"beat":1.0,"subject_pos":-1,"motif":"","motif_pos":-1,"best_pos":5,"similarity":0.411,"stretto":false,"stretto_voices":0,"combination":[],"aug_dim":"","rhythm_ratio":1.0,"mirror":false,"chromatic_density":0.455,"complexity":0.601,"dissonance":0.15},{"voice":3,"pitch":52,"start":375.9996,"duration":0.3333,"velocity":90,"measure":142,"beat":1.0,"subject_pos":-1,"motif":"","motif_pos":-1,"best_pos":5,"similarity":0.411,"stretto":false,"stretto_voices":0,"combination":[],"aug_dim":"","rhythm_ratio":1.0,"mirror":false,"chromatic_density":0.455,"complexity":0.601,"dissonance":0.15},{"voice":2,"pitch":70,"start":376.333,"duration":0.3333,"velocity":90,"measure":142,"beat":1.5,"subject_pos":-1,"motif":"","motif_pos":-1,"best_pos":3,"similarity":0.329,"stretto":false,"stretto_voices":0,"combination":[],"aug_dim":"","rhythm_ratio":1.0,"mirror":false,"chromatic_density":0.455,"complexity":0.601,"dissonance":0.15},{"voice":3,"pitch":55,"start":376.333,"duration":0.3333,"velocity":90,"measure":142,"beat":1.5,"subject_pos":-1,"motif":"","motif_pos":-1,"best_pos":3,"similarity":0.411,"stretto":false,"stretto_voices":0,"combination":[],"aug_dim":"","rhythm_ratio":1.0,"mirror":false,"chromatic_density":0.455,"complexity":0.601,"dissonance":0.15},{"voice":0,"pitch":81,"start":376.6663,"duration":1.0,"velocity":90,"measure":142,"beat":2.0,"subject_pos":-1,"motif":"","motif_pos":-1,"best_pos":1,"similarity":0.479,"stretto":false,"stretto_voices":0,"combination":[],"aug_dim":"","rhythm_ratio":1.0,"mirror":false,"chromatic_density":0.455,"complexity":0.601,"dissonance":0.15},{"voice":1,"pitch":74,"start":376.6663,"duration":0.6667,"velocity":90,"measure":142,"beat":2.0,"subject_pos":-1,"motif":"","motif_pos":-1,"best_pos":6,"similarity":0.589,"stretto":false,"stretto_voices":0,"combination":[],"aug_dim":"","rhythm_ratio":1.0,"mirror":false,"chromatic_density":0.455,"complexity":0.601,"dissonance":0.15},{"voice":2,"pitch":69,"start":376.6663,"duration":0.6667,"velocity":90,"measure":142,"beat":2.0,"subject_pos":-1,"motif":"","motif_pos":-1,"best_pos":4,"similarity":0.318,"stretto":false,"stretto_voices":0,"combination":[],"aug_dim":"","rhythm_ratio":1.0,"mirror":false,"chromatic_density":0.455,"complexity":0.601,"dissonance":0.15},{"voice":3,"pitch":54,"start":376.6663,"duration":0.3333,"velocity":90,"measure":142,"beat":2.0,"subject_pos":-1,"motif":"","motif_pos":-1,"best_pos":4,"similarity":0.5,"stretto":false,"stretto_voices":0,"combination":[],"aug_dim":"","rhythm_ratio":1.0,"mirror":false,"chromatic_density":0.455,"complexity":0.601,"dissonance":0.15},{"voice":3,"pitch":54,"start":376.9996,"duration":0.3333,"velocity":90,"measure":142,"beat":2.5,"subject_pos":-1,"motif":"","motif_pos":-1,"best_pos":4,"similarity":0.4,"stretto":false,"stretto_voices":0,"combination":[],"aug_dim":"","rhythm_ratio":1.0,"mirror":false,"chromatic_density":0.455,"complexity":0.601,"dissonance":0.15},{"voice":1,"pitch":75,"start":377.333,"duration":1.6667,"velocity":90,"measure":142,"beat":3.0,"subject_pos":-1,"motif":"","motif_pos":-1,"best_pos":5,"similarity":0.5,"stretto":false,"stretto_voices":0,"combination":[],"aug_dim":"","rhythm_ratio":1.0,"mirror":false,"chromatic_density":0.455,"complexity":0.601,"dissonance":0.15},{"voice":2,"pitch":60,"start":377.333,"duration":1.3333,"velocity":90,"measure":142,"beat":3.0,"subject_pos":-1,"motif":"","motif_pos":-1,"best_pos":1,"similarity":0.357,"stretto":false,"stretto_voices":0,"combination":[],"aug_dim":"","rhythm_ratio":1.0,"mirror":false,"chromatic_density":0.455,"complexity":0.601,"dissonance":0.15},{"voice":3,"pitch":54,"start":377.333,"duration":0.3333,"velocity":90,"measure":142,"beat":3.0,"subject_pos":-1,"motif":"","motif_pos":-1,"best_pos":5,"similarity":0.389,"stretto":false,"stretto_voices":0,"combination":[],"aug_dim":"","rhythm_ratio":1.0,"mirror":false,"chromatic_density":0.455,"complexity":0.601,"dissonance":0.15},{"voice":0,"pitch":78,"start":377.6663,"duration":0.3333,"velocity":90,"measure":142,"beat":3.5,"subject_pos":-1,"motif":"","motif_pos":-1,"best_pos":3,"similarity":0.454,"stretto":false,"stretto_voices":0,"combination":[],"aug_dim":"","rhythm_ratio":1.0,"mirror":false,"chromatic_density":0.455,"complexity":0.601,"dissonance":0.15},{"voice":3,"pitch":57,"start":377.6663,"duration":0.3333,"velocity":90,"measure":142,"beat":3.5,"subject_pos":-1,"motif":"","motif_pos":-1,"best_pos":1,"similarity":0.407,"stretto":false,"stretto_voices":0,"combination":[],"aug_dim":"","rhythm_ratio":1.0,"mirror":false,"chromatic_density":0.455,"complexity":0.601,"dissonance":0.15},{"voice":0,"pitch":79,"start":377.9996,"duration":0.3333,"velocity":90,"measure":142,"beat":4.0,"subject_pos":-1,"motif":"","motif_pos":-1,"best_pos":5,"similarity":0.464,"stretto":false,"stretto_voices":0,"combination":[],"aug_dim":"","rhythm_ratio":1.0,"mirror":false,"chromatic_density":0.455,"complexity":0.601,"dissonance":0.15},{"voice":3,"pitch":55,"start":377.9996,"duration":0.3333,"velocity":90,"measure":142,"beat":4.0,"subject_pos":-1,"motif":"","motif_pos":-1,"best_pos":2,"similarity":0.439,"stretto":false,"stretto_voices":0,"combination":[],"aug_dim":"","rhythm_ratio":1.0,"mirror":false,"chromatic_density":0.455,"complexity":0.601,"dissonance":0.15},{"voice":0,"pitch":79,"start":378.333,"duration":0.3333,"velocity":90,"measure":142,"beat":4.5,"subject_pos":-1,"motif":"","motif_pos":-1,"best_pos":4,"similarity":0.407,"stretto":false,"stretto_voices":0,"combination":[],"aug_dim":"","rhythm_ratio":1.0,"mirror":false,"chromatic_density":0.455,"complexity":0.601,"dissonance":0.15},{"voice":3,"pitch":55,"start":378.333,"duration":0.3333,"velocity":90,"measure":142,"beat":4.5,"subject_pos":-1,"motif":"","motif_pos":-1,"best_pos":4,"similarity":0.446,"stretto":false,"stretto_voices":0,"combination":[],"aug_dim":"","rhythm_ratio":1.0,"mirror":false,"chromatic_density":0.455,"complexity":0.601,"dissonance":0.15},{"voice":0,"pitch":79,"start":378.6663,"duration":0.3333,"velocity":90,"measure":143,"beat":1.0,"subject_pos":-1,"motif":"","motif_pos":-1,"best_pos":2,"similarity":0.429,"stretto":false,"stretto_voices":0,"combination":[],"aug_dim":"","rhythm_ratio":1.0,"mirror":false,"chromatic_density":0.5,"complexity":0.57,"dissonance":0.158},{"voice":2,"pitch":58,"start":378.6663,"duration":0.6667,"velocity":90,"measure":143,"beat":1.0,"subject_pos":-1,"motif":"","motif_pos":-1,"best_pos":2,"similarity":0.436,"stretto":false,"stretto_voices":0,"combination":[],"aug_dim":"","rhythm_ratio":1.0,"mirror":false,"chromatic_density":0.5,"complexity":0.57,"dissonance":0.158},{"voice":3,"pitch":55,"start":378.6663,"duration":0.3333,"velocity":90,"measure":143,"beat":1.0,"subject_pos":-1,"motif":"","motif_pos":-1,"best_pos":5,"similarity":0.429,"stretto":false,"stretto_voices":0,"combination":[],"aug_dim":"","rhythm_ratio":1.0,"mirror":false,"chromatic_density":0.5,"complexity":0.57,"dissonance":0.158},{"voice":0,"pitch":76,"start":378.9996,"duration":0.3333,"velocity":90,"measure":143,"beat":1.5,"subject_pos":-1,"motif":"","motif_pos":-1,"best_pos":3,"similarity":0.482,"stretto":false,"stretto_voices":0,"combination":[],"aug_dim":"","rhythm_ratio":1.0,"mirror":false,"chromatic_density":0.5,"complexity":0.57,"dissonance":0.158},{"voice":1,"pitch":73,"start":378.9996,"duration":0.3333,"velocity":90,"measure":143,"beat":1.5,"subject_pos":-1,"motif":"","motif_pos":-1,"best_pos":4,"similarity":0.521,"stretto":false,"stretto_voices":0,"combination":[],"aug_dim":"","rhythm_ratio":1.0,"mirror":false,"chromatic_density":0.5,"complexity":0.57,"dissonance":0.158},{"voice":3,"pitch":58,"start":378.9996,"duration":0.3333,"velocity":90,"measure":143,"beat":1.5,"subject_pos":-1,"motif":"","motif_pos":-1,"best_pos":3,"similarity":0.411,"stretto":false,"stretto_voices":0,"combination":[],"aug_dim":"","rhythm_ratio":1.0,"mirror":false,"chromatic_density":0.5,"complexity":0.57,"dissonance":0.158},{"voice":0,"pitch":77,"start":379.333,"duration":0.3333,"velocity":90,"measure":143,"beat":2.0,"subject_pos":-1,"motif":"","motif_pos":-1,"best_pos":5,"similarity":0.471,"stretto":false,"stretto_voices":0,"combination":[],"aug_dim":"","rhythm_ratio":1.0,"mirror":false,"chromatic_density":0.5,"complexity":0.57,"dissonance":0.158},{"voice":1,"pitch":74,"start":379.333,"duration":0.3333,"velocity":90,"measure":143,"beat":2.0,"subject_pos":-1,"motif":"","motif_pos":-1,"best_pos":5,"similarity":0.507,"stretto":false,"stretto_voices":0,"combination":[],"aug_dim":"","rhythm_ratio":1.0,"mirror":false,"chromatic_density":0.5,"complexity":0.57,"dissonance":0.158},{"voice":3,"pitch":57,"start":379.333,"duration":0.3333,"velocity":90,"measure":143,"beat":2.0,"subject_pos":-1,"motif":"","motif_pos":-1,"best_pos":4,"similarity":0.489,"stretto":false,"stretto_voices":0,"combination":[],"aug_dim":"","rhythm_ratio":1.0,"mirror":false,"chromatic_density":0.5,"complexity":0.57,"dissonance":0.158},{"voice":0,"pitch":77,"start":379.6663,"duration":0.3333,"velocity":90,"measure":143,"beat":2.5,"subject_pos":-1,"motif":"","motif_pos":-1,"best_pos":4,"similarity":0.421,"stretto":false,"stretto_voices":0,"combination":[],"aug_dim":"","rhythm_ratio":1.0,"mirror":false,"chromatic_density":0.5,"complexity":0.57,"dissonance":0.158},{"voice":1,"pitch":74,"start":379.6663,"duration":0.3333,"velocity":90,"measure":143,"beat":2.5,"subject_pos":-1,"motif":"","motif_pos":-1,"best_pos":4,"similarity":0.443,"stretto":false,"stretto_voices":0,"combination":[],"aug_dim":"","rhythm_ratio":1.0,"mirror":false,"chromatic_density":0.5,"complexity":0.57,"dissonance":0.158},{"voice":3,"pitch":57,"start":379.6663,"duration":0.3333,"velocity":90,"measure":143,"beat":2.5,"subject_pos":-1,"motif":"","motif_pos":-1,"best_pos":4,"similarity":0.393,"stretto":false,"stretto_voices":0,"combination":[],"aug_dim":"","rhythm_ratio":1.0,"mirror":false,"chromatic_density":0.5,"complexity":0.57,"dissonance":0.158},{"voice":0,"pitch":77,"start":379.9996,"duration":0.3333,"velocity":90,"measure":143,"beat":3.0,"subject_pos":-1,"motif":"","motif_pos":-1,"best_pos":5,"similarity":0.393,"stretto":false,"stretto_voices":0,"combination":[],"aug_dim":"","rhythm_ratio":1.0,"mirror":false,"chromatic_density":0.5,"complexity":0.57,"dissonance":0.158},{"voice":1,"pitch":74,"start":379.9996,"duration":0.3333,"velocity":90,"measure":143,"beat":3.0,"subject_pos":-1,"motif":"","motif_pos":-1,"best_pos":2,"similarity":0.429,"stretto":false,"stretto_voices":0,"combination":[],"aug_dim":"","rhythm_ratio":1.0,"mirror":false,"chromatic_density":0.5,"complexity":0.57,"dissonance":0.158},{"voice":3,"pitch":57,"start":379.9996,"duration":1.6667,"velocity":90,"measure":143,"beat":3.0,"subject_pos":-1,"motif":"","motif_pos":-1,"best_pos":2,"similarity":0.429,"stretto":false,"stretto_voices":0,"combination":[],"aug_dim":"","rhythm_ratio":1.0,"mirror":false,"chromatic_density":0.5,"complexity":0.57,"dissonance":0.158},{"voice":0,"pitch":75,"start":380.333,"duration":0.3333,"velocity":90,"measure":143,"beat":3.5,"subject_pos":-1,"motif":"","motif_pos":-1,"best_pos":4,"similarity":0.514,"stretto":false,"stretto_voices":0,"combination":[],"aug_dim":"","rhythm_ratio":1.0,"mirror":false,"chromatic_density":0.5,"complexity":0.57,"dissonance":0.158},{"voice":1,"pitch":71,"start":380.333,"duration":0.3333,"velocity":90,"measure":143,"beat":3.5,"subject_pos":-1,"motif":"","motif_pos":-1,"best_pos":3,"similarity":0.471,"stretto":false,"stretto_voices":0,"combination":[],"aug_dim":"","rhythm_ratio":1.0,"mirror":false,"chromatic_density":0.5,"complexity":0.57,"dissonance":0.158},{"voice":0,"pitch":76,"start":380.6663,"duration":0.3333,"velocity":90,"measure":143,"beat":4.0,"subject_pos":-1,"motif":"","motif_pos":-1,"best_pos":5,"similarity":0.471,"stretto":false,"stretto_voices":0,"combination":[],"aug_dim":"","rhythm_ratio":1.0,"mirror":false,"chromatic_density":0.5,"complexity":0.57,"dissonance":0.158},{"voice":1,"pitch":72,"start":380.6663,"duration":0.3333,"velocity":90,"measure":143,"beat":4.0,"subject_pos":-1,"motif":"","motif_pos":-1,"best_pos":5,"similarity":0.436,"stretto":false,"stretto_voices":0,"combination":[],"aug_dim":"","rhythm_ratio":1.0,"mirror":false,"chromatic_density":0.5,"complexity":0.57,"dissonance":0.158},{"voice":2,"pitch":67,"start":380.6663,"duration":0.6667,"velocity":90,"measure":143,"beat":4.0,"subject_pos":-1,"motif":"","motif_pos":-1,"best_pos":3,"similarity":0.45,"stretto":false,"stretto_voices":0,"combination":[],"aug_dim":"","rhythm_ratio":1.0,"mirror":false,"chromatic_density":0.5,"complexity":0.57,"dissonance":0.158},{"voice":0,"pitch":76,"start":380.9996,"duration":0.3333,"velocity":90,"measure":143,"beat":4.5,"subject_pos":-1,"motif":"","motif_pos":-1,"best_pos":3,"similarity":0.479,"stretto":false,"stretto_voices":0,"combination":[],"aug_dim":"","rhythm_ratio":1.0,"mirror":false,"chromatic_density":0.5,"complexity":0.57,"dissonance":0.158},{"voice":1,"pitch":72,"start":380.9996,"duration":0.3333,"velocity":90,"measure":143,"beat":4.5,"subject_pos":-1,"motif":"","motif_pos":-1,"best_pos":3,"similarity":0.371,"stretto":false,"stretto_voices":0,"combination":[],"aug_dim":"","rhythm_ratio":1.0,"mirror":false,"chromatic_density":0.5,"complexity":0.57,"dissonance":0.158},{"voice":0,"pitch":75,"start":381.333,"duration":0.6667,"velocity":90,"measure":144,"beat":1.0,"subject_pos":-1,"motif":"","motif_pos":-1,"best_pos":4,"similarity":0.625,"stretto":false,"stretto_voices":0,"combination":[],"aug_dim":"","rhythm_ratio":1.0,"mirror":false,"chromatic_density":0.615,"complexity":0.561,"dissonance":0.131},{"voice":1,"pitch":71,"start":381.333,"duration":1.0,"velocity":90,"measure":144,"beat":1.0,"subject_pos":-1,"motif":"","motif_pos":-1,"best_pos":3,"similarity":0.443,"stretto":false,"stretto_voices":0,"combination":[],"aug_dim":"","rhythm_ratio":1.0,"mirror":false,"chromatic_density":0.615,"complexity":0.561,"dissonance":0.131},{"voice":2,"pitch":66,"start":381.333,"duration":0.6667,"velocity":90,"measure":144,"beat":1.0,"subject_pos":-1,"motif":"","motif_pos":-1,"best_pos":4,"similarity":0.4,"stretto":false,"stretto_voices":0,"combination":[],"aug_dim":"","rhythm_ratio":1.0,"mirror":false,"chromatic_density":0.615,"complexity":0.561,"dissonance":0.131},{"voice":3,"pitch":54,"start":381.6663,"duration":0.3333,"velocity":90,"measure":144,"beat":1.5,"subject_pos":-1,"motif":"","motif_pos":-1,"best_pos":3,"similarity":0.482,"stretto":false,"stretto_voices":0,"combination":[],"aug_dim":"","rhythm_ratio":1.0,"mirror":false,"chromatic_density":0.615,"complexity":0.561,"dissonance":0.131},{"voice":0,"pitch":76,"start":381.9996,"duration":0.3333,"velocity":90,"measure":144,"beat":2.0,"subject_pos":-1,"motif":"","motif_pos":-1,"best_pos":5,"similarity":0.5,"stretto":false,"stretto_voices":0,"combination":[],"aug_dim":"","rhythm_ratio":1.0,"mirror":false,"chromatic_density":0.615,"complexity":0.561,"dissonance":0.131},{"voice":2,"pitch":64,"start":381.9996,"duration":1.3333,"velocity":90,"measure":144,"beat":2.0,"subject_pos":-1,"motif":"","motif_pos":-1,"best_pos":2,"similarity":0.429,"stretto":false,"stretto_voices":0,"combination":[],"aug_dim":"","rhythm_ratio":1.0,"mirror":false,"chromatic_density":0.615,"complexity":0.561,"dissonance":0.131},{"voice":3,"pitch":55,"start":381.9996,"duration":0.3333,"velocity":90,"measure":144,"beat":2.0,"subject_pos":-1,"motif":"","motif_pos":-1,"best_pos":5,"similarity":0.471,"stretto":false,"stretto_voices":0,"combination":[],"aug_dim":"","rhythm_ratio":1.0,"mirror":false,"chromatic_density":0.615,"complexity":0.561,"dissonance":0.131},{"voice":0,"pitch":74,"start":382.333,"duration":0.3333,"velocity":90,"measure":144,"beat":2.5,"subject_pos":-1,"motif":"","motif_pos":-1,"best_pos":3,"similarity":0.593,"stretto":false,"stretto_voices":0,"combination":[],"aug_dim":"","rhythm_ratio":1.0,"mirror":false,"chromatic_density":0.615,"complexity":0.561,"dissonance":0.131},{"voice":1,"pitch":70,"start":382.333,"duration":0.3333,"velocity":90,"measure":144,"beat":2.5,"subject_pos":-1,"motif":"","motif_pos":-1,"best_pos":3,"similarity":0.471,"stretto":false,"stretto_voices":0,"combination":[],"aug_dim":"","rhythm_ratio":1.0,"mirror":false,"chromatic_density":0.615,"complexity":0.561,"dissonance":0.131},{"voice":3,"pitch":55,"start":382.333,"duration":0.3333,"velocity":90,"measure":144,"beat":2.5,"subject_pos":-1,"motif":"","motif_pos":-1,"best_pos":4,"similarity":0.407,"stretto":false,"stretto_voices":0,"combination":[],"aug_dim":"","rhythm_ratio":1.0,"mirror":false,"chromatic_density":0.615,"complexity":0.561,"dissonance":0.131},{"voice":0,"pitch":73,"start":382.6663,"duration":0.6667,"velocity":90,"measure":144,"beat":3.0,"subject_pos":-1,"motif":"","motif_pos":-1,"best_pos":4,"similarity":0.682,"stretto":false,"stretto_voices":0,"combination":[],"aug_dim":"","rhythm_ratio":1.0,"mirror":false,"chromatic_density":0.615,"complexity":0.561,"dissonance":0.131},{"voice":1,"pitch":69,"start":382.6663,"duration":1.0,"velocity":90,"measure":144,"beat":3.0,"subject_pos":-1,"motif":"","motif_pos":-1,"best_pos":3,"similarity":0.471,"stretto":false,"stretto_voices":0,"combination":[],"aug_dim":"","rhythm_ratio":1.0,"mirror":false,"chromatic_density":0.615,"complexity":0.561,"dissonance":0.131},{"voice":3,"pitch":55,"start":382.6663,"duration":0.3333,"velocity":90,"measure":144,"beat":3.0,"subject_pos":-1,"motif":"","motif_pos":-1,"best_pos":2,"similarity":0.429,"stretto":false,"stretto_voices":0,"combination":[],"aug_dim":"","rhythm_ratio":1.0,"mirror":false,"chromatic_density":0.615,"complexity":0.561,"dissonance":0.131},{"voice":3,"pitch":52,"start":382.9996,"duration":0.3333,"velocity":90,"measure":144,"beat":3.5,"subject_pos":-1,"motif":"","motif_pos":-1,"best_pos":3,"similarity":0.482,"stretto":false,"stretto_voices":0,"combination":[],"aug_dim":"","rhythm_ratio":1.0,"mirror":false,"chromatic_density":0.615,"complexity":0.561,"dissonance":0.131},{"voice":0,"pitch":74,"start":383.3329,"duration":0.3333,"velocity":90,"measure":144,"beat":4.0,"subject_pos":-1,"motif":"","motif_pos":-1,"best_pos":5,"similarity":0.529,"stretto":false,"stretto_voices":0,"combination":[],"aug_dim":"","rhythm_ratio":1.0,"mirror":false,"chromatic_density":0.615,"complexity":0.561,"dissonance":0.131},{"voice":2,"pitch":62,"start":383.3329,"duration":1.3333,"velocity":90,"measure":144,"beat":4.0,"subject_pos":-1,"motif":"","motif_pos":-1,"best_pos":2,"similarity":0.293,"stretto":false,"stretto_voices":0,"combination":[],"aug_dim":"","rhythm_ratio":1.0,"mirror":false,"chromatic_density":0.615,"complexity":0.561,"dissonance":0.131},{"voice":3,"pitch":53,"start":383.3329,"duration":0.3333,"velocity":90,"measure":144,"beat":4.0,"subject_pos":-1,"motif":"","motif_pos":-1,"best_pos":5,"similarity":0.471,"stretto":false,"stretto_voices":0,"combination":[],"aug_dim":"","rhythm_ratio":1.0,"mirror":false,"chromatic_density":0.615,"complexity":0.561,"dissonance":0.131},{"voice":0,"pitch":72,"start":383.6663,"duration":0.3333,"velocity":90,"measure":144,"beat":4.5,"subject_pos":-1,"motif":"","motif_pos":-1,"best_pos":3,"similarity":0.593,"stretto":false,"stretto_voices":0,"combination":[],"aug_dim":"","rhythm_ratio":1.0,"mirror":false,"chromatic_density":0.615,"complexity":0.561,"dissonance":0.131},{"voice":1,"pitch":68,"start":383.6663,"duration":0.3333,"velocity":90,"measure":144,"beat":4.5,"subject_pos":-1,"motif":"","motif_pos":-1,"best_pos":3,"similarity":0.45,"stretto":false,"stretto_voices":0,"combination":[],"aug_dim":"","rhythm_ratio":1.0,"mirror":false,"chromatic_density":0.615,"complexity":0.561,"dissonance":0.131},{"voice":3,"pitch":53,"start":383.6663,"duration":0.3333,"velocity":90,"measure":144,"beat":4.5,"subject_pos":-1,"motif":"","motif_pos":-1,"best_pos":4,"similarity":0.407,"stretto":false,"stretto_voices":0,"combination":[],"aug_dim":"","rhythm_ratio":1.0,"mirror":false,"chromatic_density":0.615,"complexity":0.561,"dissonance":0.131},{"voice":0,"pitch":71,"start":383.9996,"duration":0.6667,"velocity":90,"measure":145,"beat":1.0,"subject_pos":-1,"motif":"","motif_pos":-1,"best_pos":4,"similarity":0.736,"stretto":false,"stretto_voices":0,"combination":[],"aug_dim":"","rhythm_ratio":1.0,"mirror":false,"chromatic_density":0.364,"complexity":0.484,"dissonance":0.183},{"voice":1,"pitch":67,"start":383.9996,"duration":1.0,"velocity":90,"measure":145,"beat":1.0,"subject_pos":-1,"motif":"","motif_pos":-1,"best_pos":1,"similarity":0.429,"stretto":false,"stretto_voices":0,"combination":[],"aug_dim":"","rhythm_ratio":1.0,"mirror":false,"chromatic_density":0.364,"complexity":0.484,"dissonance":0.183},{"voice":3,"pitch":53,"start":383.9996,"duration":0.3333,"velocity":90,"measure":145,"beat":1.0,"subject_pos":-1,"motif":"","motif_pos":-1,"best_pos":2,"similarity":0.429,"stretto":false,"stretto_voices":0,"combination":[],"aug_dim":"","rhythm_ratio":1.0,"mirror":false,"chromatic_density":0.364,"complexity":0.484,"dissonance":0.183},{"voice":3,"pitch":50,"start":384.3329,"duration":0.3333,"velocity":90,"measure":145,"beat":1.5,"subject_pos":-1,"motif":"","motif_pos":-1,"best_pos":4,"similarity":0.568,"stretto":false,"stretto_voices":0,"combination":[],"aug_dim":"","rhythm_ratio":1.0,"mirror":false,"chromatic_density":0.364,"complexity":0.484,"dissonance":0.183},{"voice":0,"pitch":72,"start":384.6663,"duration":1.3333,"velocity":90,"measure":145,"beat":2.0,"subject_pos":-1,"motif":"","motif_pos":-1,"best_pos":5,"similarity":0.636,"stretto":false,"stretto_voices":0,"combination":[],"aug_dim":"","rhythm_ratio":1.0,"mirror":false,"chromatic_density":0.364,"complexity":0.484,"dissonance":0.183},{"voice":3,"pitch":51,"start":384.6663,"duration":0.3333,"velocity":90,"measure":145,"beat":2.0,"subject_pos":-1,"motif":"","motif_pos":-1,"best_pos":5,"similarity":0.686,"stretto":false,"stretto_voices":0,"combination":[],"aug_dim":"","rhythm_ratio":1.0,"mirror":false,"chromatic_density":0.364,"complexity":0.484,"dissonance":0.183},{"voice":1,"pitch":65,"start":384.9996,"duration":0.3333,"velocity":90,"measure":145,"beat":2.5,"subject_pos":-1,"motif":"","motif_pos":-1,"best_pos":2,"similarity":0.589,"stretto":false,"stretto_voices":0,"combination":[],"aug_dim":"","rhythm_ratio":1.0,"mirror":false,"chromatic_density":0.364,"complexity":0.484,"dissonance":0.183},{"voice":3,"pitch":53,"start":384.9996,"duration":0.3333,"velocity":90,"measure":145,"beat":2.5,"subject_pos":-1,"motif":"","motif_pos":-1,"best_pos":6,"similarity":0.589,"stretto":false,"stretto_voices":0,"combination":[],"aug_dim":"","rhythm_ratio":1.0,"mirror":false,"chromatic_density":0.364,"complexity":0.484,"dissonance":0.183},{"voice":1,"pitch":63,"start":385.3329,"duration":0.3333,"velocity":90,"measure":145,"beat":3.0,"subject_pos":-1,"motif":"","motif_pos":-1,"best_pos":3,"similarity":0.625,"stretto":false,"stretto_voices":0,"combination":[],"aug_dim":"","rhythm_ratio":1.0,"mirror":false,"chromatic_density":0.364,"complexity":0.484,"dissonance":0.183},{"voice":3,"pitch":55,"start":385.3329,"duration":0.6667,"velocity":90,"measure":145,"beat":3.0,"subject_pos":-1,"motif":"","motif_pos":-1,"best_pos":6,"similarity":0.375,"stretto":false,"stretto_voices":0,"combination":[],"aug_dim":"","rhythm_ratio":1.0,"mirror":false,"chromatic_density":0.364,"complexity":0.484,"dissonance":0.183},{"voice":1,"pitch":62,"start":385.6663,"duration":0.3333,"velocity":90,"measure":145,"beat":3.5,"subject_pos":-1,"motif":"","motif_pos":-1,"best_pos":4,"similarity":0.571,"stretto":false,"stretto_voices":0,"combination":[],"aug_dim":"","rhythm_ratio":1.0,"mirror":false,"chromatic_density":0.364,"complexity":0.484,"dissonance":0.183},{"voice":0,"pitch":71,"start":385.9996,"duration":0.6667,"velocity":90,"measure":145,"beat":4.0,"subject_pos":-1,"motif":"enigmatic_cell","motif_pos":0,"best_pos":0,"similarity":1.0,"stretto":false,"stretto_voices":0,"combination":[],"aug_dim":"","rhythm_ratio":1.0,"mirror":false,"chromatic_density":0.364,"complexity":0.484,"dissonance":0.183},{"voice":1,"pitch":65,"start":385.9996,"duration":0.3333,"velocity":90,"measure":145,"beat":4.0,"subject_pos":-1,"motif":"","motif_pos":-1,"best_pos":5,"similarity":0.393,"stretto":false,"stretto_voices":0,"combination":[],"aug_dim":"","rhythm_ratio":1.0,"mirror":false,"chromatic_density":0.364,"complexity":0.484,"dissonance":0.183},{"voice":3,"pitch":43,"start":385.9996,"duration":0.6667,"velocity":90,"measure":145,"beat":4.0,"subject_pos":-1,"motif":"","motif_pos":-1,"best_pos":0,"similarity":0.304,"stretto":false,"stretto_voices":0,"combination":[],"aug_dim":"","rhythm_ratio":1.0,"mirror":false,"chromatic_density":0.364,"complexity":0.484,"dissonance":0.183},{"voice":1,"pitch":65,"start":386.3329,"duration":0.3333,"velocity":90,"measure":145,"beat":4.5,"subject_pos":-1,"motif":"","motif_pos":-1,"best_pos":4,"similarity":0.354,"stretto":false,"stretto_voices":0,"combination":[],"aug_dim":"","rhythm_ratio":1.0,"mirror":false,"chromatic_density":0.364,"complexity":0.484,"dissonance":0.183},{"voice":0,"pitch":72,"start":386.6663,"duration":0.6667,"velocity":90,"measure":146,"beat":1.0,"subject_pos":-1,"motif":"enigmatic_cell","motif_pos":1,"best_pos":1,"similarity":1.0,"stretto":false,"stretto_voices":0,"combination":[],"aug_dim":"","rhythm_ratio":1.0,"mirror":false,"chromatic_density":0.3,"complexity":0.648,"dissonance":0.117},{"voice":1,"pitch":65,"start":386.6663,"duration":0.3333,"velocity":90,"measure":146,"beat":1.0,"subject_pos":-1,"motif":"","motif_pos":-1,"best_pos":3,"similarity":0.421,"stretto":false,"stretto_voices":0,"combination":[],"aug_dim":"","rhythm_ratio":1.0,"mirror":false,"chromatic_density":0.3,"complexity":0.648,"dissonance":0.117},{"voice":3,"pitch":48,"start":386.6663,"duration":1.3333,"velocity":90,"measure":146,"beat":1.0,"subject_pos":-1,"motif":"","motif_pos":-1,"best_pos":1,"similarity":0.393,"stretto":false,"stretto_voices":0,"combination":[],"aug_dim":"","rhythm_ratio":1.0,"mirror":false,"chromatic_density":0.3,"complexity":0.648,"dissonance":0.117},{"voice":1,"pitch":64,"start":386.9996,"duration":0.3333,"velocity":90,"measure":146,"beat":1.5,"subject_pos":-1,"motif":"","motif_pos":-1,"best_pos":4,"similarity":0.461,"stretto":false,"stretto_voices":0,"combination":[],"aug_dim":"","rhythm_ratio":1.0,"mirror":false,"chromatic_density":0.3,"complexity":0.648,"dissonance":0.117},{"voice":0,"pitch":67,"start":387.3329,"duration":0.6667,"velocity":90,"measure":146,"beat":2.0,"subject_pos":-1,"motif":"enigmatic_cell","motif_pos":2,"best_pos":2,"similarity":1.0,"stretto":false,"stretto_voices":0,"combination":[],"aug_dim":"","rhythm_ratio":1.0,"mirror":false,"chromatic_density":0.3,"complexity":0.648,"dissonance":0.117},{"voice":1,"pitch":67,"start":387.3329,"duration":0.3333,"velocity":90,"measure":146,"beat":2.0,"subject_pos":-1,"motif":"","motif_pos":-1,"best_pos":5,"similarity":0.364,"stretto":false,"stretto_voices":0,"combination":[],"aug_dim":"","rhythm_ratio":1.0,"mirror":false,"chromatic_density":0.3,"complexity":0.648,"dissonance":0.117},{"voice":2,"pitch":52,"start":387.3329,"duration":0.6667,"velocity":90,"measure":146,"beat":2.0,"subject_pos":0,"motif":"subject","motif_pos":0,"best_pos":0,"similarity":1.0,"stretto":false,"stretto_voices":0,"combination":[],"aug_dim":"","rhythm_ratio":1.0,"mirror":false,"chromatic_density":0.3,"complexity":0.648,"dissonance":0.117},{"voice":1,"pitch":67,"start":387.6663,"duration":0.3333,"velocity":90,"measure":146,"beat":2.5,"subject_pos":-1,"motif":"","motif_pos":-1,"best_pos":4,"similarity":0.354,"stretto":false,"stretto_voices":0,"combination":[],"aug_dim":"","rhythm_ratio":1.0,"mirror":false,"chromatic_density":0.3,"complexity":0.648,"dissonance":0.117},{"voice":0,"pitch":74,"start":387.9996,"duration":0.6667,"velocity":90,"measure":146,"beat":3.0,"subject_pos":-1,"motif":"","motif_pos":-1,"best_pos":4,"similarity":0.4,"stretto":false,"stretto_voices":0,"combination":[],"aug_dim":"","rhythm_ratio":1.0,"mirror":false,"chromatic_density":0.3,"complexity":0.648,"dissonance":0.117},{"voice":1,"pitch":67,"start":387.9996,"duration":0.3333,"velocity":90,"measure":146,"beat":3.0,"subject_pos":-1,"motif":"","motif_pos":-1,"best_pos":3,"similarity":0.421,"stretto":false,"stretto_voices":0,"combination":[],"aug_dim":"","rhythm_ratio":1.0,"mirror":false,"chromatic_density":0.3,"complexity":0.648,"dissonance":0.117},{"voice":2,"pitch":59,"start":387.9996,"duration":0.6667,"velocity":90,"measure":146,"beat":3.0,"subject_pos":1,"motif":"subject","motif_pos":1,"best_pos":1,"similarity":1.0,"stretto":false,"stretto_voices":0,"combination":[],"aug_dim":"","rhythm_ratio":1.0,"mirror":false,"chromatic_density":0.3,"complexity":0.648,"dissonance":0.117},{"voice":1,"pitch":66,"start":388.3329,"duration":0.3333,"velocity":90,"measure":146,"beat":3.5,"subject_pos":-1,"motif":"","motif_pos":-1,"best_pos":4,"similarity":0.461,"stretto":false,"stretto_voices":0,"combination":[],"aug_dim":"","rhythm_ratio":1.0,"mirror":false,"chromatic_density":0.3,"complexity":0.648,"dissonance":0.117},{"voice":0,"pitch":75,"start":388.6663,"duration":0.6667,"velocity":90,"measure":146,"beat":4.0,"subject_pos":-1,"motif":"enigmatic_cell","motif_pos":0,"best_pos":0,"similarity":1.0,"stretto":false,"stretto_voices":0,"combination":[],"aug_dim":"","rhythm_ratio":1.0,"mirror":false,"chromatic_density":0.3,"complexity":0.648,"dissonance":0.117},{"voice":1,"pitch":69,"start":388.6663,"duration":0.3333,"velocity":90,"measure":146,"beat":4.0,"subject_pos":-1,"motif":"","motif_pos":-1,"best_pos":5,"similarity":0.364,"stretto":false,"stretto_voices":0,"combination":[],"aug_dim":"","rhythm_ratio":1.0,"mirror":false,"chromatic_density":0.3,"complexity":0.648,"dissonance":0.117},{"voice":2,"pitch":57,"start":388.6663,"duration":0.6667,"velocity":90,"measure":146,"beat":4.0,"subject_pos":2,"motif":"subject","motif_pos":2,"best_pos":2,"similarity":1.0,"stretto":false,"stretto_voices":0,"combination":[],"aug_dim":"","rhythm_ratio":1.0,"mirror":false,"chromatic_density":0.3,"complexity":0.648,"dissonance":0.117},{"voice":3,"pitch":53,"start":388.6663,"duration":0.6667,"velocity":90,"measure":146,"beat":4.0,"subject_pos":-1,"motif":"","motif_pos":-1,"best_pos":1,"similarity":0.464,"stretto":false,"stretto_voices":0,"combination":[],"aug_dim":"","rhythm_ratio":1.0,"mirror":false,"chromatic_density":0.3,"complexity":0.648,"dissonance":0.117},{"voice":1,"pitch":69,"start":388.9996,"duration":0.3333,"velocity":90,"measure":146,"beat":4.5,"subject_pos":-1,"motif":"","motif_pos":-1,"best_pos":4,"similarity":0.354,"stretto":false,"stretto_voices":0,"combination":[],"aug_dim":"","rhythm_ratio":1.0,"mirror":false,"chromatic_density":0.3,"complexity":0.648,"dissonance":0.117},{"voice":0,"pitch":76,"start":389.3329,"duration":0.6667,"velocity":90,"measure":147,"beat":1.0,"subject_pos":-1,"motif":"enigmatic_cell","motif_pos":1,"best_pos":1,"similarity":1.0,"stretto":false,"stretto_voices":0,"combination":[],"aug_dim":"","rhythm_ratio":1.0,"mirror":false,"chromatic_density":0.3,"complexity":0.699,"dissonance":0.088},{"voice":1,"pitch":69,"start":389.3329,"duration":0.3333,"velocity":90,"measure":147,"beat":1.0,"subject_pos":-1,"motif":"","motif_pos":-1,"best_pos":3,"similarity":0.421,"stretto":false,"stretto_voices":0,"combination":[],"aug_dim":"","rhythm_ratio":1.0,"mirror":false,"chromatic_density":0.3,"complexity":0.699,"dissonance":0.088},{"voice":3,"pitch":52,"start":389.3329,"duration":1.3333,"velocity":90,"measure":147,"beat":1.0,"subject_pos":-1,"motif":"enigmatic_cell","motif_pos":0,"best_pos":0,"similarity":1.0,"stretto":false,"stretto_voices":0,"combination":[],"aug_dim":"","rhythm_ratio":1.0,"mirror":false,"chromatic_density":0.3,"complexity":0.699,"dissonance":0.088},{"voice":1,"pitch":68,"start":389.6663,"duration":0.3333,"velocity":90,"measure":147,"beat":1.5,"subject_pos":-1,"motif":"","motif_pos":-1,"best_pos":4,"similarity":0.461,"stretto":false,"stretto_voices":0,"combination":[],"aug_dim":"","rhythm_ratio":1.0,"mirror":false,"chromatic_density":0.3,"complexity":0.699,"dissonance":0.088},{"voice":0,"pitch":71,"start":389.9996,"duration":0.6667,"velocity":90,"measure":147,"beat":2.0,"subject_pos":-1,"motif":"enigmatic_cell","motif_pos":2,"best_pos":2,"similarity":1.0,"stretto":false,"stretto_voices":0,"combination":[],"aug_dim":"","rhythm_ratio":1.0,"mirror":false,"chromatic_density":0.3,"complexity":0.699,"dissonance":0.088},{"voice":1,"pitch":71,"start":389.9996,"duration":0.3333,"velocity":90,"measure":147,"beat":2.0,"subject_pos":-1,"motif":"","motif_pos":-1,"best_pos":5,"similarity":0.364,"stretto":false,"stretto_voices":0,"combination":[],"aug_dim":"","rhythm_ratio":1.0,"mirror":false,"chromatic_density":0.3,"complexity":0.699,"dissonance":0.088},{"voice":2,"pitch":55,"start":389.9996,"duration":0.6667,"velocity":90,"measure":147,"beat":2.0,"subject_pos":3,"motif":"subject","motif_pos":3,"best_pos":3,"similarity":1.0,"stretto":false,"stretto_voices":0,"combination":[],"aug_dim":"","rhythm_ratio":1.0,"mirror":false,"chromatic_density":0.3,"complexity":0.699,"dissonance":0.088},{"voice":1,"pitch":71,"start":390.3329,"duration":0.3333,"velocity":90,"measure":147,"beat":2.5,"subject_pos":-1,"motif":"","motif_pos":-1,"best_pos":4,"similarity":0.354,"stretto":false,"stretto_voices":0,"combination":[],"aug_dim":"","rhythm_ratio":1.0,"mirror":false,"chromatic_density":0.3,"complexity":0.699,"dissonance":0.088},{"voice":0,"pitch":78,"start":390.6663,"duration":1.3333,"velocity":90,"measure":147,"beat":3.0,"subject_pos":-1,"motif":"","motif_pos":-1,"best_pos":1,"similarity":0.386,"stretto":false,"stretto_voices":0,"combination":[],"aug_dim":"","rhythm_ratio":1.0,"mirror":false,"chromatic_density":0.3,"complexity":0.699,"dissonance":0.088},{"voice":1,"pitch":71,"start":390.6663,"duration":0.3333,"velocity":90,"measure":147,"beat":3.0,"subject_pos":-1,"motif":"","motif_pos":-1,"best_pos":1,"similarity":0.321,"stretto":false,"stretto_voices":0,"combination":[],"aug_dim":"","rhythm_ratio":1.0,"mirror":false,"chromatic_density":0.3,"complexity":0.699,"dissonance":0.088},{"voice":2,"pitch":54,"start":390.6663,"duration":0.6667,"velocity":90,"measure":147,"beat":3.0,"subject_pos":4,"motif":"subject","motif_pos":4,"best_pos":4,"similarity":1.0,"stretto":false,"stretto_voices":0,"combination":[],"aug_dim":"","rhythm_ratio":1.0,"mirror":false,"chromatic_density":0.3,"complexity":0.699,"dissonance":0.088},{"voice":3,"pitch":51,"start":390.6663,"duration":0.6667,"velocity":90,"measure":147,"beat":3.0,"subject_pos":-1,"motif":"enigmatic_cell","motif_pos":1,"best_pos":1,"similarity":1.0,"stretto":false,"stretto_voices":0,"combination":[],"aug_dim":"","rhythm_ratio":1.0,"mirror":false,"chromatic_density":0.3,"complexity":0.699,"dissonance":0.088},{"voice":1,"pitch":69,"start":390.9996,"duration":0.3333,"velocity":90,"measure":147,"beat":3.5,"subject_pos":-1,"motif":"","motif_pos":-1,"best_pos":2,"similarity":0.393,"stretto":false,"stretto_voices":0,"combination":[],"aug_dim":"","rhythm_ratio":1.0,"mirror":false,"chromatic_density":0.3,"complexity":0.699,"dissonance":0.088},{"voice":1,"pitch":72,"start":391.3329,"duration":0.3333,"velocity":90,"measure":147,"beat":4.0,"subject_pos":-1,"motif":"","motif_pos":-1,"best_pos":3,"similarity":0.364,"stretto":false,"stretto_voices":0,"combination":[],"aug_dim":"","rhythm_ratio":1.0,"mirror":false,"chromatic_density":0.3,"complexity":0.699,"dissonance":0.088},{"voice":2,"pitch":52,"start":391.3329,"duration":0.6667,"velocity":90,"measure":147,"beat":4.0,"subject_pos":5,"motif":"subject","motif_pos":5,"best_pos":5,"similarity":1.0,"stretto":false,"stretto_voices":0,"combination":[],"aug_dim":"","rhythm_ratio":1.0,"mirror":false,"chromatic_density":0.3,"complexity":0.699,"dissonance":0.088},{"voice":3,"pitch":57,"start":391.3329,"duration":0.6667,"velocity":90,"measure":147,"beat":4.0,"subject_pos":-1,"motif":"enigmatic_cell","motif_pos":2,"best_pos":2,"similarity":1.0,"stretto":false,"stretto_voices":0,"combination":[],"aug_dim":"","rhythm_ratio":1.0,"mirror":false,"chromatic_density":0.3,"complexity":0.699,"dissonance":0.088},{"voice":1,"pitch":72,"start":391.6663,"duration":0.3333,"velocity":90,"measure":147,"beat":4.5,"subject_pos":-1,"motif":"","motif_pos":-1,"best_pos":4,"similarity":0.379,"stretto":false,"stretto_voices":0,"combination":[],"aug_dim":"","rhythm_ratio":1.0,"mirror":false,"chromatic_density":0.3,"complexity":0.699,"dissonance":0.088},{"voice":0,"pitch":79,"start":391.9996,"duration":0.6667,"velocity":90,"measure":148,"beat":1.0,"subject_pos":-1,"motif":"","motif_pos":-1,"best_pos":3,"similarity":0.4,"stretto":false,"stretto_voices":0,"combination":[],"aug_dim":"","rhythm_ratio":1.0,"mirror":false,"chromatic_density":0.286,"complexity":0.586,"dissonance":0.264},{"voice":1,"pitch":72,"start":391.9996,"duration":0.3333,"velocity":90,"measure":148,"beat":1.0,"subject_pos":-1,"motif":"","motif_pos":-1,"best_pos":3,"similarity":0.454,"stretto":false,"stretto_voices":0,"combination":[],"aug_dim":"","rhythm_ratio":1.0,"mirror":false,"chromatic_density":0.286,"complexity":0.586,"dissonance":0.264},{"voice":3,"pitch":55,"start":391.9996,"duration":0.6667,"velocity":90,"measure":148,"beat":1.0,"subject_pos":-1,"motif":"","motif_pos":-1,"best_pos":2,"similarity":0.536,"stretto":false,"stretto_voices":0,"combination":[],"aug_dim":"","rhythm_ratio":1.0,"mirror":false,"chromatic_density":0.286,"complexity":0.586,"dissonance":0.264},{"voice":1,"pitch":71,"start":392.3329,"duration":0.3333,"velocity":90,"measure":148,"beat":1.5,"subject_pos":-1,"motif":"","motif_pos":-1,"best_pos":4,"similarity":0.489,"stretto":false,"stretto_voices":0,"combination":[],"aug_dim":"","rhythm_ratio":1.0,"mirror":false,"chromatic_density":0.286,"complexity":0.586,"dissonance":0.264},{"voice":0,"pitch":78,"start":392.6663,"duration":0.6667,"velocity":90,"measure":148,"beat":2.0,"subject_pos":-1,"motif":"","motif_pos":-1,"best_pos":4,"similarity":0.479,"stretto":false,"stretto_voices":0,"combination":[],"aug_dim":"","rhythm_ratio":1.0,"mirror":false,"chromatic_density":0.286,"complexity":0.586,"dissonance":0.264},{"voice":1,"pitch":69,"start":392.6663,"duration":0.3333,"velocity":90,"measure":148,"beat":2.0,"subject_pos":-1,"motif":"","motif_pos":-1,"best_pos":5,"similarity":0.464,"stretto":false,"stretto_voices":0,"combination":[],"aug_dim":"","rhythm_ratio":1.0,"mirror":false,"chromatic_density":0.286,"complexity":0.586,"dissonance":0.264},{"voice":2,"pitch":51,"start":392.6663,"duration":0.6667,"velocity":90,"measure":148,"beat":2.0,"subject_pos":6,"motif":"subject","motif_pos":6,"best_pos":6,"similarity":1.0,"stretto":false,"stretto_voices":0,"combination":[],"aug_dim":"","rhythm_ratio":1.0,"mirror":false,"chromatic_density":0.286,"complexity":0.586,"dissonance":0.264},{"voice":3,"pitch":48,"start":392.6663,"duration":1.3333,"velocity":90,"measure":148,"beat":2.0,"subject_pos":-1,"motif":"","motif_pos":-1,"best_pos":3,"similarity":0.514,"stretto":false,"stretto_voices":0,"combination":[],"aug_dim":"","rhythm_ratio":1.0,"mirror":false,"chromatic_density":0.286,"complexity":0.586,"dissonance":0.264},{"voice":1,"pitch":71,"start":392.9996,"duration":0.3333,"velocity":90,"measure":148,"beat":2.5,"subject_pos":-1,"motif":"","motif_pos":-1,"best_pos":1,"similarity":0.386,"stretto":false,"stretto_voices":0,"combination":[],"aug_dim":"","rhythm_ratio":1.0,"mirror":false,"chromatic_density":0.286,"complexity":0.586,"dissonance":0.264},{"voice":0,"pitch":76,"start":393.3329,"duration":0.3333,"velocity":90,"measure":148,"beat":3.0,"subject_pos":-1,"motif":"","motif_pos":-1,"best_pos":5,"similarity":0.479,"stretto":false,"stretto_voices":0,"combination":[],"aug_dim":"","rhythm_ratio":1.0,"mirror":false,"chromatic_density":0.286,"complexity":0.586,"dissonance":0.264},{"voice":1,"pitch":67,"start":393.3329,"duration":0.6667,"velocity":90,"measure":148,"beat":3.0,"subject_pos":-1,"motif":"","motif_pos":-1,"best_pos":2,"similarity":0.45,"stretto":false,"stretto_voices":0,"combination":[],"aug_dim":"","rhythm_ratio":1.0,"mirror":false,"chromatic_density":0.286,"complexity":0.586,"dissonance":0.264},{"voice":2,"pitch":52,"start":393.3329,"duration":0.6667,"velocity":90,"measure":148,"beat":3.0,"subject_pos":7,"motif":"subject","motif_pos":7,"best_pos":7,"similarity":1.0,"stretto":false,"stretto_voices":0,"combination":[],"aug_dim":"","rhythm_ratio":1.0,"mirror":false,"chromatic_density":0.286,"complexity":0.586,"dissonance":0.264},{"voice":0,"pitch":78,"start":393.6663,"duration":0.3333,"velocity":90,"measure":148,"beat":3.5,"subject_pos":-1,"motif":"","motif_pos":-1,"best_pos":6,"similarity":0.4,"stretto":false,"stretto_voices":0,"combination":[],"aug_dim":"","rhythm_ratio":1.0,"mirror":false,"chromatic_density":0.286,"complexity":0.586,"dissonance":0.264},{"voice":0,"pitch":76,"start":393.9996,"duration":0.6667,"velocity":90,"measure":148,"beat":4.0,"subject_pos":-1,"motif":"","motif_pos":-1,"best_pos":2,"similarity":0.371,"stretto":false,"stretto_voices":0,"combination":[],"aug_dim":"","rhythm_ratio":1.0,"mirror":false,"chromatic_density":0.286,"complexity":0.586,"dissonance":0.264},{"voice":1,"pitch":72,"start":393.9996,"duration":0.6667,"velocity":90,"measure":148,"beat":4.0,"subject_pos":-1,"motif":"","motif_pos":-1,"best_pos":1,"similarity":0.518,"stretto":false,"stretto_voices":0,"combination":[],"aug_dim":"","rhythm_ratio":1.0,"mirror":false,"chromatic_density":0.286,"complexity":0.586,"dissonance":0.264},{"voice":2,"pitch":54,"start":393.9996,"duration":0.6667,"velocity":90,"measure":148,"beat":4.0,"subject_pos":8,"motif":"subject","motif_pos":8,"best_pos":0,"similarity":1.0,"stretto":false,"stretto_voices":0,"combination":[],"aug_dim":"","rhythm_ratio":1.0,"mirror":false,"chromatic_density":0.286,"complexity":0.586,"dissonance":0.264},{"voice":3,"pitch":47,"start":393.9996,"duration":0.3333,"velocity":90,"measure":148,"beat":4.0,"subject_pos":-1,"motif":"","motif_pos":-1,"best_pos":4,"similarity":0.421,"stretto":false,"stretto_voices":0,"combination":[],"aug_dim":"","rhythm_ratio":1.0,"mirror":false,"chromatic_density":0.286,"complexity":0.586,"dissonance":0.264},{"voice":3,"pitch":45,"start":394.3329,"duration":0.3333,"velocity":90,"measure":148,"beat":4.5,"subject_pos":-1,"motif":"","motif_pos":-1,"best_pos":2,"similarity":0.436,"stretto":false,"stretto_voices":0,"combination":[],"aug_dim":"","rhythm_ratio":1.0,"mirror":false,"chromatic_density":0.286,"complexity":0.586,"dissonance":0.264},{"voice":0,"pitch":83,"start":394.6663,"duration":0.3333,"velocity":90,"measure":149,"beat":1.0,"subject_pos":-1,"motif":"","motif_pos":-1,"best_pos":1,"similarity":0.346,"stretto":false,"stretto_voices":0,"combination":[],"aug_dim":"","rhythm_ratio":1.0,"mirror":false,"chromatic_density":0.3,"complexity":0.547,"dissonance":0.067},{"voice":1,"pitch":71,"start":394.6663,"duration":0.6667,"velocity":90,"measure":149,"beat":1.0,"subject_pos":-1,"motif":"","motif_pos":-1,"best_pos":2,"similarity":0.536,"stretto":false,"stretto_voices":0,"combination":[],"aug_dim":"","rhythm_ratio":1.0,"mirror":false,"chromatic_density":0.3,"complexity":0.547,"dissonance":0.067},{"voice":3,"pitch":43,"start":394.6663,"duration":0.6667,"velocity":90,"measure":149,"beat":1.0,"subject_pos":-1,"motif":"","motif_pos":-1,"best_pos":3,"similarity":0.371,"stretto":false,"stretto_voices":0,"combination":[],"aug_dim":"","rhythm_ratio":1.0,"mirror":false,"chromatic_density":0.3,"complexity":0.547,"dissonance":0.067},{"voice":0,"pitch":75,"start":394.9996,"duration":0.3333,"velocity":90,"measure":149,"beat":1.5,"subject_pos":-1,"motif":"","motif_pos":-1,"best_pos":4,"similarity":0.429,"stretto":false,"stretto_voices":0,"combination":[],"aug_dim":"","rhythm_ratio":1.0,"mirror":false,"chromatic_density":0.3,"complexity":0.547,"dissonance":0.067},{"voice":0,"pitch":76,"start":395.3329,"duration":1.0,"velocity":90,"measure":149,"beat":2.0,"subject_pos":-1,"motif":"","motif_pos":-1,"best_pos":5,"similarity":0.429,"stretto":false,"stretto_voices":0,"combination":[],"aug_dim":"","rhythm_ratio":1.0,"mirror":false,"chromatic_density":0.3,"complexity":0.547,"dissonance":0.067},{"voice":2,"pitch":55,"start":395.3329,"duration":0.3333,"velocity":90,"measure":149,"beat":2.0,"subject_pos":-1,"motif":"","motif_pos":-1,"best_pos":5,"similarity":0.607,"stretto":false,"stretto_voices":0,"combination":[],"aug_dim":"","rhythm_ratio":1.0,"mirror":false,"chromatic_density":0.3,"complexity":0.547,"dissonance":0.067},{"voice":3,"pitch":48,"start":395.3329,"duration":0.6667,"velocity":90,"measure":149,"beat":2.0,"subject_pos":-1,"motif":"","motif_pos":-1,"best_pos":1,"similarity":0.446,"stretto":false,"stretto_voices":0,"combination":[],"aug_dim":"","rhythm_ratio":1.0,"mirror":false,"chromatic_density":0.3,"complexity":0.547,"dissonance":0.067},{"voice":2,"pitch":57,"start":395.6663,"duration":0.3333,"velocity":90,"measure":149,"beat":2.5,"subject_pos":-1,"motif":"","motif_pos":-1,"best_pos":6,"similarity":0.464,"stretto":false,"stretto_voices":0,"combination":[],"aug_dim":"","rhythm_ratio":1.0,"mirror":false,"chromatic_density":0.3,"complexity":0.547,"dissonance":0.067},{"voice":2,"pitch":55,"start":395.9996,"duration":0.6667,"velocity":90,"measure":149,"beat":3.0,"subject_pos":-1,"motif":"","motif_pos":-1,"best_pos":3,"similarity":0.464,"stretto":false,"stretto_voices":0,"combination":[],"aug_dim":"","rhythm_ratio":1.0,"mirror":false,"chromatic_density":0.3,"complexity":0.547,"dissonance":0.067},{"voice":3,"pitch":45,"start":395.9996,"duration":0.6667,"velocity":90,"measure":149,"beat":3.0,"subject_pos":-1,"motif":"","motif_pos":-1,"best_pos":2,"similarity":0.393,"stretto":false,"stretto_voices":0,"combination":[],"aug_dim":"","rhythm_ratio":1.0,"mirror":false,"chromatic_density":0.3,"complexity":0.547,"dissonance":0.067},{"voice":0,"pitch":73,"start":396.3329,"duration":0.3333,"velocity":90,"measure":149,"beat":3.5,"subject_pos":-1,"motif":"","motif_pos":-1,"best_pos":3,"similarity":0.461,"stretto":false,"stretto_voices":0,"combination":[],"aug_dim":"","rhythm_ratio":1.0,"mirror":false,"chromatic_density":0.3,"complexity":0.547,"dissonance":0.067},{"voice":0,"pitch":74,"start":396.6663,"duration":0.3333,"velocity":90,"measure":149,"beat":4.0,"subject_pos":-1,"motif":"","motif_pos":-1,"best_pos":5,"similarity":0.471,"stretto":false,"stretto_voices":0,"combination":[],"aug_dim":"","rhythm_ratio":1.0,"mirror":false,"chromatic_density":0.3,"complexity":0.547,"dissonance":0.067},{"voice":2,"pitch":54,"start":396.6663,"duration":0.6667,"velocity":90,"measure":149,"beat":4.0,"subject_pos":-1,"motif":"","motif_pos":-1,"best_pos":4,"similarity":0.4,"stretto":false,"stretto_voices":0,"combination":[],"aug_dim":"","rhythm_ratio":1.0,"mirror":false,"chromatic_density":0.3,"complexity":0.547,"dissonance":0.067},{"voice":3,"pitch":47,"start":396.6663,"duration":0.6667,"velocity":90,"measure":149,"beat":4.0,"subject_pos":-1,"motif":"","motif_pos":-1,"best_pos":3,"similarity":0.357,"stretto":false,"stretto_voices":0,"combination":[],"aug_dim":"","rhythm_ratio":1.0,"mirror":false,"chromatic_density":0.3,"complexity":0.547,"dissonance":0.067},{"voice":0,"pitch":74,"start":396.9996,"duration":0.3333,"velocity":90,"measure":149,"beat":4.5,"subject_pos":-1,"motif":"","motif_pos":-1,"best_pos":4,"similarity":0.407,"stretto":false,"stretto_voices":0,"combination":[],"aug_dim":"","rhythm_ratio":1.0,"mirror":false,"chromatic_density":0.3,"complexity":0.547,"dissonance":0.067},{"voice":0,"pitch":74,"start":397.3329,"duration":0.3333,"velocity":90,"measure":150,"beat":1.0,"subject_pos":-1,"motif":"","motif_pos":-1,"best_pos":2,"similarity":0.429,"stretto":false,"stretto_voices":0,"combination":[],"aug_dim":"","rhythm_ratio":1.0,"mirror":false,"chromatic_density":0.444,"complexity":0.586,"dissonance":0.127},{"voice":2,"pitch":52,"start":397.3329,"duration":1.3333,"velocity":90,"measure":150,"beat":1.0,"subject_pos":-1,"motif":"","motif_pos":-1,"best_pos":2,"similarity":0.393,"stretto":false,"stretto_voices":0,"combination":[],"aug_dim":"","rhythm_ratio":1.0,"mirror":false,"chromatic_density":0.444,"complexity":0.586,"dissonance":0.127},{"voice":3,"pitch":44,"start":397.3329,"duration":0.6667,"velocity":90,"measure":150,"beat":1.0,"subject_pos":-1,"motif":"enigmatic_cell","motif_pos":0,"best_pos":0,"similarity":1.0,"stretto":false,"stretto_voices":0,"combination":[],"aug_dim":"","rhythm_ratio":1.0,"mirror":false,"chromatic_density":0.444,"complexity":0.586,"dissonance":0.127},{"voice":0,"pitch":71,"start":397.6663,"duration":0.3333,"velocity":90,"measure":150,"beat":1.5,"subject_pos":-1,"motif":"","motif_pos":-1,"best_pos":3,"similarity":0.482,"stretto":false,"stretto_voices":0,"combination":[],"aug_dim":"","rhythm_ratio":1.0,"mirror":false,"chromatic_density":0.444,"complexity":0.586,"dissonance":0.127},{"voice":0,"pitch":72,"start":397.9996,"duration":0.3333,"velocity":90,"measure":150,"beat":2.0,"subject_pos":-1,"motif":"","motif_pos":-1,"best_pos":5,"similarity":0.471,"stretto":false,"stretto_voices":0,"combination":[],"aug_dim":"","rhythm_ratio":1.0,"mirror":false,"chromatic_density":0.444,"complexity":0.586,"dissonance":0.127},{"voice":1,"pitch":69,"start":397.9996,"duration":1.0,"velocity":90,"measure":150,"beat":2.0,"subject_pos":-1,"motif":"","motif_pos":-1,"best_pos":2,"similarity":0.643,"stretto":false,"stretto_voices":0,"combination":[],"aug_dim":"","rhythm_ratio":1.0,"mirror":false,"chromatic_density":0.444,"complexity":0.586,"dissonance":0.127},{"voice":3,"pitch":45,"start":397.9996,"duration":0.6667,"velocity":90,"measure":150,"beat":2.0,"subject_pos":-1,"motif":"enigmatic_cell","motif_pos":1,"best_pos":1,"similarity":1.0,"stretto":false,"stretto_voices":0,"combination":[],"aug_dim":"","rhythm_ratio":1.0,"mirror":false,"chromatic_density":0.444,"complexity":0.586,"dissonance":0.127},{"voice":0,"pitch":72,"start":398.3329,"duration":0.3333,"velocity":90,"measure":150,"beat":2.5,"subject_pos":-1,"motif":"","motif_pos":-1,"best_pos":4,"similarity":0.407,"stretto":false,"stretto_voices":0,"combination":[],"aug_dim":"","rhythm_ratio":1.0,"mirror":false,"chromatic_density":0.444,"complexity":0.586,"dissonance":0.127},{"voice":0,"pitch":72,"start":398.6663,"duration":0.3333,"velocity":90,"measure":150,"beat":3.0,"subject_pos":-1,"motif":"","motif_pos":-1,"best_pos":2,"similarity":0.429,"stretto":false,"stretto_voices":0,"combination":[],"aug_dim":"","rhythm_ratio":1.0,"mirror":false,"chromatic_density":0.444,"complexity":0.586,"dissonance":0.127},{"voice":3,"pitch":40,"start":398.6663,"duration":0.6667,"velocity":90,"measure":150,"beat":3.0,"subject_pos":-1,"motif":"enigmatic_cell","motif_pos":2,"best_pos":2,"similarity":1.0,"stretto":false,"stretto_voices":0,"combination":[],"aug_dim":"","rhythm_ratio":1.0,"mirror":false,"chromatic_density":0.444,"complexity":0.586,"dissonance":0.127},{"voice":0,"pitch":69,"start":398.9996,"duration":0.3333,"velocity":90,"measure":150,"beat":3.5,"subject_pos":-1,"motif":"","motif_pos":-1,"best_pos":3,"similarity":0.471,"stretto":false,"stretto_voices":0,"combination":[],"aug_dim":"","rhythm_ratio":1.0,"mirror":false,"chromatic_density":0.444,"complexity":0.586,"dissonance":0.127},{"voice":1,"pitch":66,"start":398.9996,"duration":0.3333,"velocity":90,"measure":150,"beat":3.5,"subject_pos":-1,"motif":"","motif_pos":-1,"best_pos":3,"similarity":0.579,"stretto":false,"stretto_voices":0,"combination":[],"aug_dim":"","rhythm_ratio":1.0,"mirror":false,"chromatic_density":0.444,"complexity":0.586,"dissonance":0.127},{"voice":0,"pitch":70,"start":399.3329,"duration":0.3333,"velocity":90,"measure":150,"beat":4.0,"subject_pos":-1,"motif":"","motif_pos":-1,"best_pos":4,"similarity":0.461,"stretto":false,"stretto_voices":0,"combination":[],"aug_dim":"","rhythm_ratio":1.0,"mirror":false,"chromatic_density":0.444,"complexity":0.586,"dissonance":0.127},{"voice":1,"pitch":67,"start":399.3329,"duration":0.3333,"velocity":90,"measure":150,"beat":4.0,"subject_pos":-1,"motif":"","motif_pos":-1,"best_pos":5,"similarity":0.464,"stretto":false,"stretto_voices":0,"combination":[],"aug_dim":"","rhythm_ratio":1.0,"mirror":false,"chromatic_density":0.444,"complexity":0.586,"dissonance":0.127},{"voice":2,"pitch":64,"start":399.3329,"duration":1.0,"velocity":90,"measure":150,"beat":4.0,"subject_pos":-1,"motif":"","motif_pos":-1,"best_pos":3,"similarity":0.375,"stretto":false,"stretto_voices":0,"combination":[],"aug_dim":"","rhythm_ratio":1.0,"mirror":false,"chromatic_density":0.444,"complexity":0.586,"dissonance":0.127},{"voice":0,"pitch":70,"start":399.6663,"duration":0.3333,"velocity":90,"measure":150,"beat":4.5,"subject_pos":-1,"motif":"","motif_pos":-1,"best_pos":3,"similarity":0.479,"stretto":false,"stretto_voices":0,"combination":[],"aug_dim":"","rhythm_ratio":1.0,"mirror":false,"chromatic_density":0.444,"complexity":0.586,"dissonance":0.127},{"voice":1,"pitch":67,"start":399.6663,"duration":0.3333,"velocity":90,"measure":150,"beat":4.5,"subject_pos":-1,"motif":"","motif_pos":-1,"best_pos":3,"similarity":0.371,"stretto":false,"stretto_voices":0,"combination":[],"aug_dim":"","rhythm_ratio":1.0,"mirror":false,"chromatic_density":0.444,"complexity":0.586,"dissonance":0.127},{"voice":0,"pitch":69,"start":399.9996,"duration":0.6667,"velocity":90,"measure":151,"beat":1.0,"subject_pos":-1,"motif":"","motif_pos":-1,"best_pos":4,"similarity":0.679,"stretto":false,"stretto_voices":0,"combination":[],"aug_dim":"","rhythm_ratio":1.0,"mirror":false,"chromatic_density":0.75,"complexity":0.538,"dissonance":0.0},{"voice":1,"pitch":66,"start":399.9996,"duration":0.6667,"velocity":90,"measure":151,"beat":1.0,"subject_pos":-1,"motif":"","motif_pos":-1,"best_pos":3,"similarity":0.443,"stretto":false,"stretto_voices":0,"combination":[],"aug_dim":"","rhythm_ratio":1.0,"mirror":false,"chromatic_density":0.75,"complexity":0.538,"dissonance":0.0},{"voice":2,"pitch":61,"start":400.3329,"duration":0.3333,"velocity":90,"measure":151,"beat":1.5,"subject_pos":-1,"motif":"","motif_pos":-1,"best_pos":4,"similarity":0.5,"stretto":false,"stretto_voices":0,"combination":[],"aug_dim":"","rhythm_ratio":1.0,"mirror":false,"chromatic_density":0.75,"complexity":0.538,"dissonance":0.0},{"voice":0,"pitch":70,"start":400.6663,"duration":0.6667,"velocity":90,"measure":151,"beat":2.0,"subject_pos":-1,"motif":"","motif_pos":-1,"best_pos":5,"similarity":0.607,"stretto":false,"stretto_voices":0,"combination":[],"aug_dim":"","rhythm_ratio":1.0,"mirror":false,"chromatic_density":0.75,"complexity":0.538,"dissonance":0.0},{"voice":1,"pitch":65,"start":400.6663,"duration":0.6667,"velocity":90,"measure":151,"beat":2.0,"subject_pos":-1,"motif":"enigmatic_cell","motif_pos":0,"best_pos":0,"similarity":1.0,"stretto":false,"stretto_voices":0,"combination":[],"aug_dim":"","rhythm_ratio":1.0,"mirror":false,"chromatic_density":0.75,"complexity":0.538,"dissonance":0.0},{"voice":2,"pitch":62,"start":400.6663,"duration":0.3333,"velocity":90,"measure":151,"beat":2.0,"subject_pos":-1,"motif":"","motif_pos":-1,"best_pos":5,"similarity":0.464,"stretto":false,"stretto_voices":0,"combination":[],"aug_dim":"","rhythm_ratio":1.0,"mirror":false,"chromatic_density":0.75,"complexity":0.538,"dissonance":0.0},{"voice":2,"pitch":62,"start":400.9996,"duration":0.3333,"velocity":90,"measure":151,"beat":2.5,"subject_pos":-1,"motif":"","motif_pos":-1,"best_pos":4,"similarity":0.407,"stretto":false,"stretto_voices":0,"combination":[],"aug_dim":"","rhythm_ratio":1.0,"mirror":false,"chromatic_density":0.75,"complexity":0.538,"dissonance":0.0},{"voice":0,"pitch":68,"start":401.3329,"duration":0.6667,"velocity":90,"measure":151,"beat":3.0,"subject_pos":-1,"motif":"","motif_pos":-1,"best_pos":4,"similarity":0.529,"stretto":false,"stretto_voices":0,"combination":[],"aug_dim":"","rhythm_ratio":1.0,"mirror":false,"chromatic_density":0.75,"complexity":0.538,"dissonance":0.0},{"voice":1,"pitch":64,"start":401.3329,"duration":0.6667,"velocity":90,"measure":151,"beat":3.0,"subject_pos":-1,"motif":"enigmatic_cell","motif_pos":1,"best_pos":1,"similarity":1.0,"stretto":false,"stretto_voices":0,"combination":[],"aug_dim":"","rhythm_ratio":1.0,"mirror":false,"chromatic_density":0.75,"complexity":0.538,"dissonance":0.0},{"voice":2,"pitch":62,"start":401.3329,"duration":0.3333,"velocity":90,"measure":151,"beat":3.0,"subject_pos":-1,"motif":"","motif_pos":-1,"best_pos":2,"similarity":0.429,"stretto":false,"stretto_voices":0,"combination":[],"aug_dim":"","rhythm_ratio":1.0,"mirror":false,"chromatic_density":0.75,"complexity":0.538,"dissonance":0.0},{"voice":2,"pitch":59,"start":401.6663,"duration":0.3333,"velocity":90,"measure":151,"beat":3.5,"subject_pos":-1,"motif":"","motif_pos":-1,"best_pos":3,"similarity":0.471,"stretto":false,"stretto_voices":0,"combination":[],"aug_dim":"","rhythm_ratio":1.0,"mirror":false,"chromatic_density":0.75,"complexity":0.538,"dissonance":0.0},{"voice":0,"pitch":69,"start":401.9996,"duration":0.6667,"velocity":90,"measure":151,"beat":4.0,"subject_pos":-1,"motif":"","motif_pos":-1,"best_pos":5,"similarity":0.464,"stretto":false,"stretto_voices":0,"combination":[],"aug_dim":"","rhythm_ratio":1.0,"mirror":false,"chromatic_density":0.75,"complexity":0.538,"dissonance":0.0},{"voice":2,"pitch":60,"start":401.9996,"duration":0.3333,"velocity":90,"measure":151,"beat":4.0,"subject_pos":-1,"motif":"","motif_pos":-1,"best_pos":5,"similarity":0.436,"stretto":false,"stretto_voices":0,"combination":[],"aug_dim":"","rhythm_ratio":1.0,"mirror":false,"chromatic_density":0.75,"complexity":0.538,"dissonance":0.0},{"voice":3,"pitch":57,"start":401.9996,"duration":1.0,"velocity":90,"measure":151,"beat":4.0,"subject_pos":-1,"motif":"","motif_pos":-1,"best_pos":2,"similarity":0.357,"stretto":false,"stretto_voices":0,"combination":[],"aug_dim":"","rhythm_ratio":1.0,"mirror":false,"chromatic_density":0.75,"complexity":0.538,"dissonance":0.0},{"voice":2,"pitch":60,"start":402.3329,"duration":0.3333,"velocity":90,"measure":151,"beat":4.5,"subject_pos":-1,"motif":"","motif_pos":-1,"best_pos":3,"similarity":0.371,"stretto":false,"stretto_voices":0,"combination":[],"aug_dim":"","rhythm_ratio":1.0,"mirror":false,"chromatic_density":0.75,"complexity":0.538,"dissonance":0.0},{"voice":0,"pitch":74,"start":402.6663,"duration":0.6667,"velocity":90,"measure":152,"beat":1.0,"subject_pos":-1,"motif":"","motif_pos":-1,"best_pos":1,"similarity":0.475,"stretto":false,"stretto_voices":0,"combination":[],"aug_dim":"","rhythm_ratio":1.0,"mirror":false,"chromatic_density":0.444,"complexity":0.538,"dissonance":0.121},{"voice":2,"pitch":59,"start":402.6663,"duration":0.6667,"velocity":90,"measure":152,"beat":1.0,"subject_pos":-1,"motif":"","motif_pos":-1,"best_pos":3,"similarity":0.471,"stretto":false,"stretto_voices":0,"combination":[],"aug_dim":"","rhythm_ratio":1.0,"mirror":false,"chromatic_density":0.444,"complexity":0.538,"dissonance":0.121},{"voice":3,"pitch":54,"start":402.9996,"duration":0.3333,"velocity":90,"measure":152,"beat":1.5,"subject_pos":-1,"motif":"","motif_pos":-1,"best_pos":4,"similarity":0.464,"stretto":false,"stretto_voices":0,"combination":[],"aug_dim":"","rhythm_ratio":1.0,"mirror":false,"chromatic_density":0.444,"complexity":0.538,"dissonance":0.121},{"voice":0,"pitch":76,"start":403.3329,"duration":0.6667,"velocity":90,"measure":152,"beat":2.0,"subject_pos":-1,"motif":"","motif_pos":-1,"best_pos":2,"similarity":0.511,"stretto":false,"stretto_voices":0,"combination":[],"aug_dim":"","rhythm_ratio":1.0,"mirror":false,"chromatic_density":0.444,"complexity":0.538,"dissonance":0.121},{"voice":2,"pitch":58,"start":403.3329,"duration":0.6667,"velocity":90,"measure":152,"beat":2.0,"subject_pos":-1,"motif":"","motif_pos":-1,"best_pos":4,"similarity":0.489,"stretto":false,"stretto_voices":0,"combination":[],"aug_dim":"","rhythm_ratio":1.0,"mirror":false,"chromatic_density":0.444,"complexity":0.538,"dissonance":0.121},{"voice":3,"pitch":55,"start":403.3329,"duration":0.3333,"velocity":90,"measure":152,"beat":2.0,"subject_pos":-1,"motif":"","motif_pos":-1,"best_pos":5,"similarity":0.464,"stretto":false,"stretto_voices":0,"combination":[],"aug_dim":"","rhythm_ratio":1.0,"mirror":false,"chromatic_density":0.444,"complexity":0.538,"dissonance":0.121},{"voice":3,"pitch":55,"start":403.6663,"duration":0.3333,"velocity":90,"measure":152,"beat":2.5,"subject_pos":-1,"motif":"","motif_pos":-1,"best_pos":6,"similarity":0.375,"stretto":false,"stretto_voices":0,"combination":[],"aug_dim":"","rhythm_ratio":1.0,"mirror":false,"chromatic_density":0.444,"complexity":0.538,"dissonance":0.121},{"voice":0,"pitch":73,"start":403.9996,"duration":0.6667,"velocity":90,"measure":152,"beat":3.0,"subject_pos":-1,"motif":"","motif_pos":-1,"best_pos":3,"similarity":0.486,"stretto":false,"stretto_voices":0,"combination":[],"aug_dim":"","rhythm_ratio":1.0,"mirror":false,"chromatic_density":0.444,"complexity":0.538,"dissonance":0.121},{"voice":2,"pitch":57,"start":403.9996,"duration":1.0,"velocity":90,"measure":152,"beat":3.0,"subject_pos":-1,"motif":"","motif_pos":-1,"best_pos":4,"similarity":0.461,"stretto":false,"stretto_voices":0,"combination":[],"aug_dim":"","rhythm_ratio":1.0,"mirror":false,"chromatic_density":0.444,"complexity":0.538,"dissonance":0.121},{"voice":3,"pitch":55,"start":403.9996,"duration":0.3333,"velocity":90,"measure":152,"beat":3.0,"subject_pos":-1,"motif":"","motif_pos":-1,"best_pos":2,"similarity":0.443,"stretto":false,"stretto_voices":0,"combination":[],"aug_dim":"","rhythm_ratio":1.0,"mirror":false,"chromatic_density":0.444,"complexity":0.538,"dissonance":0.121},{"voice":3,"pitch":52,"start":404.3329,"duration":0.3333,"velocity":90,"measure":152,"beat":3.5,"subject_pos":-1,"motif":"","motif_pos":-1,"best_pos":5,"similarity":0.536,"stretto":false,"stretto_voices":0,"combination":[],"aug_dim":"","rhythm_ratio":1.0,"mirror":false,"chromatic_density":0.444,"complexity":0.538,"dissonance":0.121},{"voice":0,"pitch":74,"start":404.6663,"duration":1.0,"velocity":90,"measure":152,"beat":4.0,"subject_pos":-1,"motif":"","motif_pos":-1,"best_pos":5,"similarity":0.5,"stretto":false,"stretto_voices":0,"combination":[],"aug_dim":"","rhythm_ratio":1.0,"mirror":false,"chromatic_density":0.444,"complexity":0.538,"dissonance":0.121},{"voice":1,"pitch":69,"start":404.6663,"duration":1.0,"velocity":90,"measure":152,"beat":4.0,"subject_pos":-1,"motif":"enigmatic_cell","motif_pos":2,"best_pos":2,"similarity":1.0,"stretto":false,"stretto_voices":0,"combination":[],"aug_dim":"","rhythm_ratio":1.0,"mirror":false,"chromatic_density":0.444,"complexity":0.538,"dissonance":0.121},{"voice":3,"pitch":54,"start":404.6663,"duration":0.6667,"velocity":90,"measure":152,"beat":4.0,"subject_pos":-1,"motif":"enigmatic_cell","motif_pos":0,"best_pos":0,"similarity":1.0,"stretto":false,"stretto_voices":0,"combination":[],"aug_dim":"","rhythm_ratio":1.0,"mirror":false,"chromatic_density":0.444,"complexity":0.538,"dissonance":0.121},{"voice":2,"pitch":60,"start":404.9996,"duration":0.3333,"velocity":90,"measure":152,"beat":4.5,"subject_pos":-1,"motif":"","motif_pos":-1,"best_pos":1,"similarity":0.411,"stretto":false,"stretto_voices":0,"combination":[],"aug_dim":"","rhythm_ratio":1.0,"mirror":false,"chromatic_density":0.444,"complexity":0.538,"dissonance":0.121},{"voice":2,"pitch":58,"start":405.3329,"duration":0.3333,"velocity":90,"measure":153,"beat":1.0,"subject_pos":-1,"motif":"","motif_pos":-1,"best_pos":3,"similarity":0.579,"stretto":false,"stretto_voices":0,"combination":[],"aug_dim":"","rhythm_ratio":1.0,"mirror":false,"chromatic_density":0.5,"complexity":0.567,"dissonance":0.191},{"voice":3,"pitch":55,"start":405.3329,"duration":0.6667,"velocity":90,"measure":153,"beat":1.0,"subject_pos":-1,"motif":"enigmatic_cell","motif_pos":1,"best_pos":1,"similarity":1.0,"stretto":false,"stretto_voices":0,"combination":[],"aug_dim":"","rhythm_ratio":1.0,"mirror":false,"chromatic_density":0.5,"complexity":0.567,"dissonance":0.191},{"voice":0,"pitch":77,"start":405.6663,"duration":0.3333,"velocity":90,"measure":153,"beat":1.5,"subject_pos":-1,"motif":"","motif_pos":-1,"best_pos":3,"similarity":0.389,"stretto":false,"stretto_voices":0,"combination":[],"aug_dim":"","rhythm_ratio":1.0,"mirror":false,"chromatic_density":0.5,"complexity":0.567,"dissonance":0.191},{"voice":1,"pitch":65,"start":405.6663,"duration":0.3333,"velocity":90,"measure":153,"beat":1.5,"subject_pos":-1,"motif":"","motif_pos":-1,"best_pos":2,"similarity":0.536,"stretto":false,"stretto_voices":0,"combination":[],"aug_dim":"","rhythm_ratio":1.0,"mirror":false,"chromatic_density":0.5,"complexity":0.567,"dissonance":0.191},{"voice":2,"pitch":57,"start":405.6663,"duration":0.3333,"velocity":90,"measure":153,"beat":1.5,"subject_pos":-1,"motif":"","motif_pos":-1,"best_pos":4,"similarity":0.693,"stretto":false,"stretto_voices":0,"combination":[],"aug_dim":"","rhythm_ratio":1.0,"mirror":false,"chromatic_density":0.5,"complexity":0.567,"dissonance":0.191},{"voice":0,"pitch":76,"start":405.9996,"duration":0.3333,"velocity":90,"measure":153,"beat":2.0,"subject_pos":-1,"motif":"","motif_pos":-1,"best_pos":4,"similarity":0.489,"stretto":false,"stretto_voices":0,"combination":[],"aug_dim":"","rhythm_ratio":1.0,"mirror":false,"chromatic_density":0.5,"complexity":0.567,"dissonance":0.191},{"voice":1,"pitch":67,"start":405.9996,"duration":0.3333,"velocity":90,"measure":153,"beat":2.0,"subject_pos":-1,"motif":"","motif_pos":-1,"best_pos":3,"similarity":0.429,"stretto":false,"stretto_voices":0,"combination":[],"aug_dim":"","rhythm_ratio":1.0,"mirror":false,"chromatic_density":0.5,"complexity":0.567,"dissonance":0.191},{"voice":2,"pitch":58,"start":405.9996,"duration":0.6667,"velocity":90,"measure":153,"beat":2.0,"subject_pos":-1,"motif":"","motif_pos":-1,"best_pos":5,"similarity":0.564,"stretto":false,"stretto_voices":0,"combination":[],"aug_dim":"","rhythm_ratio":1.0,"mirror":false,"chromatic_density":0.5,"complexity":0.567,"dissonance":0.191},{"voice":3,"pitch":49,"start":405.9996,"duration":0.6667,"velocity":90,"measure":153,"beat":2.0,"subject_pos":-1,"motif":"enigmatic_cell","motif_pos":2,"best_pos":2,"similarity":1.0,"stretto":false,"stretto_voices":0,"combination":[],"aug_dim":"","rhythm_ratio":1.0,"mirror":false,"chromatic_density":0.5,"complexity":0.567,"dissonance":0.191},{"voice":0,"pitch":76,"start":406.3329,"duration":0.3333,"velocity":90,"measure":153,"beat":2.5,"subject_pos":-1,"motif":"","motif_pos":-1,"best_pos":4,"similarity":0.4,"stretto":false,"stretto_voices":0,"combination":[],"aug_dim":"","rhythm_ratio":1.0,"mirror":false,"chromatic_density":0.5,"complexity":0.567,"dissonance":0.191},{"voice":1,"pitch":67,"start":406.3329,"duration":0.3333,"velocity":90,"measure":153,"beat":2.5,"subject_pos":-1,"motif":"","motif_pos":-1,"best_pos":4,"similarity":0.429,"stretto":false,"stretto_voices":0,"combination":[],"aug_dim":"","rhythm_ratio":1.0,"mirror":false,"chromatic_density":0.5,"complexity":0.567,"dissonance":0.191},{"voice":0,"pitch":76,"start":406.6663,"duration":0.3333,"velocity":90,"measure":153,"beat":3.0,"subject_pos":-1,"motif":"","motif_pos":-1,"best_pos":5,"similarity":0.389,"stretto":false,"stretto_voices":0,"combination":[],"aug_dim":"","rhythm_ratio":1.0,"mirror":false,"chromatic_density":0.5,"complexity":0.567,"dissonance":0.191},{"voice":1,"pitch":67,"start":406.6663,"duration":0.3333,"velocity":90,"measure":153,"beat":3.0,"subject_pos":-1,"motif":"","motif_pos":-1,"best_pos":2,"similarity":0.429,"stretto":false,"stretto_voices":0,"combination":[],"aug_dim":"","rhythm_ratio":1.0,"mirror":false,"chromatic_density":0.5,"complexity":0.567,"dissonance":0.191},{"voice":0,"pitch":79,"start":406.9996,"duration":0.3333,"velocity":90,"measure":153,"beat":3.5,"subject_pos":-1,"motif":"","motif_pos":-1,"best_pos":1,"similarity":0.407,"stretto":false,"stretto_voices":0,"combination":[],"aug_dim":"","rhythm_ratio":1.0,"mirror":false,"chromatic_density":0.5,"complexity":0.567,"dissonance":0.191},{"voice":1,"pitch":64,"start":406.9996,"duration":0.3333,"velocity":90,"measure":153,"beat":3.5,"subject_pos":-1,"motif":"","motif_pos":-1,"best_pos":3,"similarity":0.482,"stretto":false,"stretto_voices":0,"combination":[],"aug_dim":"","rhythm_ratio":1.0,"mirror":false,"chromatic_density":0.5,"complexity":0.567,"dissonance":0.191},{"voice":0,"pitch":77,"start":407.3329,"duration":0.3333,"velocity":90,"measure":153,"beat":4.0,"subject_pos":-1,"motif":"","motif_pos":-1,"best_pos":2,"similarity":0.429,"stretto":false,"stretto_voices":0,"combination":[],"aug_dim":"","rhythm_ratio":1.0,"mirror":false,"chromatic_density":0.5,"complexity":0.567,"dissonance":0.191},{"voice":1,"pitch":65,"start":407.3329,"duration":0.3333,"velocity":90,"measure":153,"beat":4.0,"subject_pos":-1,"motif":"","motif_pos":-1,"best_pos":5,"similarity":0.471,"stretto":false,"stretto_voices":0,"combination":[],"aug_dim":"","rhythm_ratio":1.0,"mirror":false,"chromatic_density":0.5,"complexity":0.567,"dissonance":0.191},{"voice":2,"pitch":57,"start":407.3329,"duration":0.3333,"velocity":90,"measure":153,"beat":4.0,"subject_pos":-1,"motif":"","motif_pos":-1,"best_pos":4,"similarity":0.629,"stretto":false,"stretto_voices":0,"combination":[],"aug_dim":"","rhythm_ratio":1.0,"mirror":false,"chromatic_density":0.5,"complexity":0.567,"dissonance":0.191},{"voice":3,"pitch":50,"start":407.3329,"duration":0.6667,"velocity":90,"measure":153,"beat":4.0,"subject_pos":-1,"motif":"","motif_pos":-1,"best_pos":5,"similarity":0.436,"stretto":false,"stretto_voices":0,"combination":[],"aug_dim":"","rhythm_ratio":1.0,"mirror":false,"chromatic_density":0.5,"complexity":0.567,"dissonance":0.191},{"voice":0,"pitch":77,"start":407.6663,"duration":0.3333,"velocity":90,"measure":153,"beat":4.5,"subject_pos":-1,"motif":"","motif_pos":-1,"best_pos":4,"similarity":0.4,"stretto":false,"stretto_voices":0,"combination":[],"aug_dim":"","rhythm_ratio":1.0,"mirror":false,"chromatic_density":0.5,"complexity":0.567,"dissonance":0.191},{"voice":1,"pitch":65,"start":407.6663,"duration":0.3333,"velocity":90,"measure":153,"beat":4.5,"subject_pos":-1,"motif":"","motif_pos":-1,"best_pos":6,"similarity":0.375,"stretto":false,"stretto_voices":0,"combination":[],"aug_dim":"","rhythm_ratio":1.0,"mirror":false,"chromatic_density":0.5,"complexity":0.567,"dissonance":0.191},{"voice":2,"pitch":59,"start":407.6663,"duration":0.3333,"velocity":90,"measure":153,"beat":4.5,"subject_pos":-1,"motif":"","motif_pos":-1,"best_pos":5,"similarity":0.593,"stretto":false,"stretto_voices":0,"combination":[],"aug_dim":"","rhythm_ratio":1.0,"mirror":false,"chromatic_density":0.5,"complexity":0.567,"dissonance":0.191},{"voice":0,"pitch":77,"start":407.9996,"duration":0.3333,"velocity":90,"measure":154,"beat":1.0,"subject_pos":-1,"motif":"","motif_pos":-1,"best_pos":5,"similarity":0.336,"stretto":false,"stretto_voices":0,"combination":[],"aug_dim":"","rhythm_ratio":1.0,"mirror":false,"chromatic_density":0.308,"complexity":0.57,"dissonance":0.195},{"voice":1,"pitch":65,"start":407.9996,"duration":0.3333,"velocity":90,"measure":154,"beat":1.0,"subject_pos":-1,"motif":"","motif_pos":-1,"best_pos":2,"similarity":0.407,"stretto":false,"stretto_voices":0,"combination":[],"aug_dim":"","rhythm_ratio":1.0,"mirror":false,"chromatic_density":0.308,"complexity":0.57,"dissonance":0.195},{"voice":2,"pitch":61,"start":407.9996,"duration":0.3333,"velocity":90,"measure":154,"beat":1.0,"subject_pos":-1,"motif":"","motif_pos":-1,"best_pos":6,"similarity":0.457,"stretto":false,"stretto_voices":0,"combination":[],"aug_dim":"","rhythm_ratio":1.0,"mirror":false,"chromatic_density":0.308,"complexity":0.57,"dissonance":0.195},{"voice":3,"pitch":57,"start":407.9996,"duration":0.6667,"velocity":90,"measure":154,"beat":1.0,"subject_pos":-1,"motif":"","motif_pos":-1,"best_pos":1,"similarity":0.457,"stretto":false,"stretto_voices":0,"combination":[],"aug_dim":"","rhythm_ratio":1.0,"mirror":false,"chromatic_density":0.308,"complexity":0.57,"dissonance":0.195},{"voice":0,"pitch":81,"start":408.3329,"duration":0.3333,"velocity":90,"measure":154,"beat":1.5,"subject_pos":-1,"motif":"","motif_pos":-1,"best_pos":1,"similarity":0.479,"stretto":false,"stretto_voices":0,"combination":[],"aug_dim":"","rhythm_ratio":1.0,"mirror":false,"chromatic_density":0.308,"complexity":0.57,"dissonance":0.195},{"voice":1,"pitch":62,"start":408.3329,"duration":0.3333,"velocity":90,"measure":154,"beat":1.5,"subject_pos":-1,"motif":"","motif_pos":-1,"best_pos":5,"similarity":0.464,"stretto":false,"stretto_voices":0,"combination":[],"aug_dim":"","rhythm_ratio":1.0,"mirror":false,"chromatic_density":0.308,"complexity":0.57,"dissonance":0.195},{"voice":2,"pitch":59,"start":408.3329,"duration":0.3333,"velocity":90,"measure":154,"beat":1.5,"subject_pos":-1,"motif":"","motif_pos":-1,"best_pos":2,"similarity":0.461,"stretto":false,"stretto_voices":0,"combination":[],"aug_dim":"","rhythm_ratio":1.0,"mirror":false,"chromatic_density":0.308,"complexity":0.57,"dissonance":0.195},{"voice":0,"pitch":79,"start":408.6663,"duration":0.3333,"velocity":90,"measure":154,"beat":2.0,"subject_pos":-1,"motif":"","motif_pos":-1,"best_pos":2,"similarity":0.475,"stretto":false,"stretto_voices":0,"combination":[],"aug_dim":"","rhythm_ratio":1.0,"mirror":false,"chromatic_density":0.308,"complexity":0.57,"dissonance":0.195},{"voice":1,"pitch":64,"start":408.6663,"duration":0.3333,"velocity":90,"measure":154,"beat":2.0,"subject_pos":-1,"motif":"","motif_pos":-1,"best_pos":6,"similarity":0.479,"stretto":false,"stretto_voices":0,"combination":[],"aug_dim":"","rhythm_ratio":1.0,"mirror":false,"chromatic_density":0.308,"complexity":0.57,"dissonance":0.195},{"voice":2,"pitch":61,"start":408.6663,"duration":0.6667,"velocity":90,"measure":154,"beat":2.0,"subject_pos":-1,"motif":"","motif_pos":-1,"best_pos":3,"similarity":0.507,"stretto":false,"stretto_voices":0,"combination":[],"aug_dim":"","rhythm_ratio":1.0,"mirror":false,"chromatic_density":0.308,"complexity":0.57,"dissonance":0.195},{"voice":3,"pitch":58,"start":408.6663,"duration":0.6667,"velocity":90,"measure":154,"beat":2.0,"subject_pos":-1,"motif":"","motif_pos":-1,"best_pos":2,"similarity":0.475,"stretto":false,"stretto_voices":0,"combination":[],"aug_dim":"","rhythm_ratio":1.0,"mirror":false,"chromatic_density":0.308,"complexity":0.57,"dissonance":0.195},{"voice":0,"pitch":79,"start":408.9996,"duration":0.3333,"velocity":90,"measure":154,"beat":2.5,"subject_pos":-1,"motif":"","motif_pos":-1,"best_pos":4,"similarity":0.446,"stretto":false,"stretto_voices":0,"combination":[],"aug_dim":"","rhythm_ratio":1.0,"mirror":false,"chromatic_density":0.308,"complexity":0.57,"dissonance":0.195},{"voice":1,"pitch":64,"start":408.9996,"duration":0.3333,"velocity":90,"measure":154,"beat":2.5,"subject_pos":-1,"motif":"","motif_pos":-1,"best_pos":4,"similarity":0.393,"stretto":false,"stretto_voices":0,"combination":[],"aug_dim":"","rhythm_ratio":1.0,"mirror":false,"chromatic_density":0.308,"complexity":0.57,"dissonance":0.195},{"voice":0,"pitch":79,"start":409.3329,"duration":0.3333,"velocity":90,"measure":154,"beat":3.0,"subject_pos":-1,"motif":"","motif_pos":-1,"best_pos":5,"similarity":0.429,"stretto":false,"stretto_voices":0,"combination":[],"aug_dim":"","rhythm_ratio":1.0,"mirror":false,"chromatic_density":0.308,"complexity":0.57,"dissonance":0.195},{"voice":1,"pitch":64,"start":409.3329,"duration":0.3333,"velocity":90,"measure":154,"beat":3.0,"subject_pos":-1,"motif":"","motif_pos":-1,"best_pos":2,"similarity":0.4,"stretto":false,"stretto_voices":0,"combination":[],"aug_dim":"","rhythm_ratio":1.0,"mirror":false,"chromatic_density":0.308,"complexity":0.57,"dissonance":0.195},{"voice":0,"pitch":82,"start":409.6663,"duration":0.3333,"velocity":90,"measure":154,"beat":3.5,"subject_pos":-1,"motif":"","motif_pos":-1,"best_pos":3,"similarity":0.4,"stretto":false,"stretto_voices":0,"combination":[],"aug_dim":"","rhythm_ratio":1.0,"mirror":false,"chromatic_density":0.308,"complexity":0.57,"dissonance":0.195},{"voice":1,"pitch":61,"start":409.6663,"duration":0.3333,"velocity":90,"measure":154,"beat":3.5,"subject_pos":-1,"motif":"","motif_pos":-1,"best_pos":4,"similarity":0.461,"stretto":false,"stretto_voices":0,"combination":[],"aug_dim":"","rhythm_ratio":1.0,"mirror":false,"chromatic_density":0.308,"complexity":0.57,"dissonance":0.195},{"voice":0,"pitch":81,"start":409.9996,"duration":0.3333,"velocity":90,"measure":154,"beat":4.0,"subject_pos":-1,"motif":"","motif_pos":-1,"best_pos":4,"similarity":0.461,"stretto":false,"stretto_voices":0,"combination":[],"aug_dim":"","rhythm_ratio":1.0,"mirror":false,"chromatic_density":0.308,"complexity":0.57,"dissonance":0.195},{"voice":1,"pitch":62,"start":409.9996,"duration":1.0,"velocity":90,"measure":154,"beat":4.0,"subject_pos":-1,"motif":"","motif_pos":-1,"best_pos":5,"similarity":0.471,"stretto":false,"stretto_voices":0,"combination":[],"aug_dim":"","rhythm_ratio":1.0,"mirror":false,"chromatic_density":0.308,"complexity":0.57,"dissonance":0.195},{"voice":2,"pitch":60,"start":409.9996,"duration":0.6667,"velocity":90,"measure":154,"beat":4.0,"subject_pos":-1,"motif":"","motif_pos":-1,"best_pos":4,"similarity":0.507,"stretto":false,"stretto_voices":0,"combination":[],"aug_dim":"","rhythm_ratio":1.0,"mirror":false,"chromatic_density":0.308,"complexity":0.57,"dissonance":0.195},{"voice":3,"pitch":54,"start":409.9996,"duration":0.6667,"velocity":90,"measure":154,"beat":4.0,"subject_pos":-1,"motif":"","motif_pos":-1,"best_pos":3,"similarity":0.557,"stretto":false,"stretto_voices":0,"combination":[],"aug_dim":"","rhythm_ratio":1.0,"mirror":false,"chromatic_density":0.308,"complexity":0.57,"dissonance":0.195},{"voice":0,"pitch":81,"start":410.3329,"duration":0.3333,"velocity":90,"measure":154,"beat":4.5,"subject_pos":-1,"motif":"","motif_pos":-1,"best_pos":5,"similarity":0.314,"stretto":false,"stretto_voices":0,"combination":[],"aug_dim":"","rhythm_ratio":1.0,"mirror":false,"chromatic_density":0.308,"complexity":0.57,"dissonance":0.195},{"voice":0,"pitch":79,"start":410.6663,"duration":0.6667,"velocity":90,"measure":155,"beat":1.0,"subject_pos":-1,"motif":"","motif_pos":-1,"best_pos":2,"similarity":0.318,"stretto":false,"stretto_voices":0,"combination":[],"aug_dim":"","rhythm_ratio":1.0,"mirror":false,"chromatic_density":0.455,"complexity":0.582,"dissonance":0.174},{"voice":2,"pitch":59,"start":410.6663,"duration":0.3333,"velocity":90,"measure":155,"beat":1.0,"subject_pos":-1,"motif":"","motif_pos":-1,"best_pos":4,"similarity":0.45,"stretto":false,"stretto_voices":0,"combination":[],"aug_dim":"","rhythm_ratio":1.0,"mirror":false,"chromatic_density":0.455,"complexity":0.582,"dissonance":0.174},{"voice":3,"pitch":53,"start":410.6663,"duration":0.6667,"velocity":90,"measure":155,"beat":1.0,"subject_pos":-1,"motif":"","motif_pos":-1,"best_pos":3,"similarity":0.55,"stretto":false,"stretto_voices":0,"combination":[],"aug_dim":"","rhythm_ratio":1.0,"mirror":false,"chromatic_density":0.455,"complexity":0.582,"dissonance":0.174},{"voice":1,"pitch":59,"start":410.9996,"duration":0.3333,"velocity":90,"measure":155,"beat":1.5,"subject_pos":-1,"motif":"","motif_pos":-1,"best_pos":4,"similarity":0.479,"stretto":false,"stretto_voices":0,"combination":[],"aug_dim":"","rhythm_ratio":1.0,"mirror":false,"chromatic_density":0.455,"complexity":0.582,"dissonance":0.174},{"voice":2,"pitch":62,"start":410.9996,"duration":0.3333,"velocity":90,"measure":155,"beat":1.5,"subject_pos":-1,"motif":"","motif_pos":-1,"best_pos":1,"similarity":0.407,"stretto":false,"stretto_voices":0,"combination":[],"aug_dim":"","rhythm_ratio":1.0,"mirror":false,"chromatic_density":0.455,"complexity":0.582,"dissonance":0.174},{"voice":0,"pitch":67,"start":411.3329,"duration":1.0,"velocity":90,"measure":155,"beat":2.0,"subject_pos":-1,"motif":"","motif_pos":-1,"best_pos":5,"similarity":0.257,"stretto":false,"stretto_voices":0,"combination":[],"aug_dim":"","rhythm_ratio":1.0,"mirror":false,"chromatic_density":0.455,"complexity":0.582,"dissonance":0.174},{"voice":1,"pitch":60,"start":411.3329,"duration":0.3333,"velocity":90,"measure":155,"beat":2.0,"subject_pos":-1,"motif":"","motif_pos":-1,"best_pos":5,"similarity":0.471,"stretto":false,"stretto_voices":0,"combination":[],"aug_dim":"","rhythm_ratio":1.0,"mirror":false,"chromatic_density":0.455,"complexity":0.582,"dissonance":0.174},{"voice":2,"pitch":60,"start":411.3329,"duration":0.3333,"velocity":90,"measure":155,"beat":2.0,"subject_pos":-1,"motif":"","motif_pos":-1,"best_pos":2,"similarity":0.429,"stretto":false,"stretto_voices":0,"combination":[],"aug_dim":"","rhythm_ratio":1.0,"mirror":false,"chromatic_density":0.455,"complexity":0.582,"dissonance":0.174},{"voice":3,"pitch":52,"start":411.3329,"duration":0.6667,"velocity":90,"measure":155,"beat":2.0,"subject_pos":-1,"motif":"","motif_pos":-1,"best_pos":4,"similarity":0.496,"stretto":false,"stretto_voices":0,"combination":[],"aug_dim":"","rhythm_ratio":1.0,"mirror":false,"chromatic_density":0.455,"complexity":0.582,"dissonance":0.174},{"voice":1,"pitch":64,"start":411.6663,"duration":0.3333,"velocity":90,"measure":155,"beat":2.5,"subject_pos":-1,"motif":"","motif_pos":-1,"best_pos":6,"similarity":0.375,"stretto":false,"stretto_voices":0,"combination":[],"aug_dim":"","rhythm_ratio":1.0,"mirror":false,"chromatic_density":0.455,"complexity":0.582,"dissonance":0.174},{"voice":2,"pitch":60,"start":411.6663,"duration":0.3333,"velocity":90,"measure":155,"beat":2.5,"subject_pos":-1,"motif":"","motif_pos":-1,"best_pos":4,"similarity":0.429,"stretto":false,"stretto_voices":0,"combination":[],"aug_dim":"","rhythm_ratio":1.0,"mirror":false,"chromatic_density":0.455,"complexity":0.582,"dissonance":0.174},{"voice":1,"pitch":64,"start":411.9996,"duration":0.3333,"velocity":90,"measure":155,"beat":3.0,"subject_pos":-1,"motif":"","motif_pos":-1,"best_pos":5,"similarity":0.329,"stretto":false,"stretto_voices":0,"combination":[],"aug_dim":"","rhythm_ratio":1.0,"mirror":false,"chromatic_density":0.455,"complexity":0.582,"dissonance":0.174},{"voice":2,"pitch":60,"start":411.9996,"duration":1.6667,"velocity":90,"measure":155,"beat":3.0,"subject_pos":-1,"motif":"","motif_pos":-1,"best_pos":2,"similarity":0.429,"stretto":false,"stretto_voices":0,"combination":[],"aug_dim":"","rhythm_ratio":1.0,"mirror":false,"chromatic_density":0.455,"complexity":0.582,"dissonance":0.174},{"voice":0,"pitch":70,"start":412.3329,"duration":0.3333,"velocity":90,"measure":155,"beat":3.5,"subject_pos":-1,"motif":"","motif_pos":-1,"best_pos":3,"similarity":0.375,"stretto":false,"stretto_voices":0,"combination":[],"aug_dim":"","rhythm_ratio":1.0,"mirror":false,"chromatic_density":0.455,"complexity":0.582,"dissonance":0.174},{"voice":1,"pitch":67,"start":412.3329,"duration":0.3333,"velocity":90,"measure":155,"beat":3.5,"subject_pos":-1,"motif":"","motif_pos":-1,"best_pos":3,"similarity":0.446,"stretto":false,"stretto_voices":0,"combination":[],"aug_dim":"","rhythm_ratio":1.0,"mirror":false,"chromatic_density":0.455,"complexity":0.582,"dissonance":0.174},{"voice":0,"pitch":69,"start":412.6663,"duration":0.3333,"velocity":90,"measure":155,"beat":4.0,"subject_pos":-1,"motif":"","motif_pos":-1,"best_pos":4,"similarity":0.471,"stretto":false,"stretto_voices":0,"combination":[],"aug_dim":"","rhythm_ratio":1.0,"mirror":false,"chromatic_density":0.455,"complexity":0.582,"dissonance":0.174},{"voice":1,"pitch":66,"start":412.6663,"duration":0.3333,"velocity":90,"measure":155,"beat":4.0,"subject_pos":-1,"motif":"","motif_pos":-1,"best_pos":4,"similarity":0.482,"stretto":false,"stretto_voices":0,"combination":[],"aug_dim":"","rhythm_ratio":1.0,"mirror":false,"chromatic_density":0.455,"complexity":0.582,"dissonance":0.174},{"voice":3,"pitch":51,"start":412.6663,"duration":0.6667,"velocity":90,"measure":155,"beat":4.0,"subject_pos":-1,"motif":"","motif_pos":-1,"best_pos":3,"similarity":0.471,"stretto":false,"stretto_voices":0,"combination":[],"aug_dim":"","rhythm_ratio":1.0,"mirror":false,"chromatic_density":0.455,"complexity":0.582,"dissonance":0.174},{"voice":0,"pitch":69,"start":412.9996,"duration":0.3333,"velocity":90,"measure":155,"beat":4.5,"subject_pos":-1,"motif":"","motif_pos":-1,"best_pos":4,"similarity":0.393,"stretto":false,"stretto_voices":0,"combination":[],"aug_dim":"","rhythm_ratio":1.0,"mirror":false,"chromatic_density":0.455,"complexity":0.582,"dissonance":0.174},{"voice":1,"pitch":66,"start":412.9996,"duration":0.3333,"velocity":90,"measure":155,"beat":4.5,"subject_pos":-1,"motif":"","motif_pos":-1,"best_pos":4,"similarity":0.357,"stretto":false,"stretto_voices":0,"combination":[],"aug_dim":"","rhythm_ratio":1.0,"mirror":false,"chromatic_density":0.455,"complexity":0.582,"dissonance":0.174},{"voice":0,"pitch":69,"start":413.3329,"duration":0.3333,"velocity":90,"measure":156,"beat":1.0,"subject_pos":-1,"motif":"","motif_pos":-1,"best_pos":2,"similarity":0.429,"stretto":false,"stretto_voices":0,"combination":[],"aug_dim":"","rhythm_ratio":1.0,"mirror":false,"chromatic_density":0.385,"complexity":0.597,"dissonance":0.185},{"voice":1,"pitch":66,"start":413.3329,"duration":0.3333,"velocity":90,"measure":156,"beat":1.0,"subject_pos":-1,"motif":"","motif_pos":-1,"best_pos":4,"similarity":0.354,"stretto":false,"stretto_voices":0,"combination":[],"aug_dim":"","rhythm_ratio":1.0,"mirror":false,"chromatic_density":0.385,"complexity":0.597,"dissonance":0.185},{"voice":3,"pitch":50,"start":413.3329,"duration":0.6667,"velocity":90,"measure":156,"beat":1.0,"subject_pos":-1,"motif":"","motif_pos":-1,"best_pos":3,"similarity":0.471,"stretto":false,"stretto_voices":0,"combination":[],"aug_dim":"","rhythm_ratio":1.0,"mirror":false,"chromatic_density":0.385,"complexity":0.597,"dissonance":0.185},{"voice":0,"pitch":66,"start":413.6663,"duration":0.3333,"velocity":90,"measure":156,"beat":1.5,"subject_pos":-1,"motif":"","motif_pos":-1,"best_pos":3,"similarity":0.482,"stretto":false,"stretto_voices":0,"combination":[],"aug_dim":"","rhythm_ratio":1.0,"mirror":false,"chromatic_density":0.385,"complexity":0.597,"dissonance":0.185},{"voice":1,"pitch":62,"start":413.6663,"duration":0.3333,"velocity":90,"measure":156,"beat":1.5,"subject_pos":-1,"motif":"","motif_pos":-1,"best_pos":5,"similarity":0.4,"stretto":false,"stretto_voices":0,"combination":[],"aug_dim":"","rhythm_ratio":1.0,"mirror":false,"chromatic_density":0.385,"complexity":0.597,"dissonance":0.185},{"voice":2,"pitch":57,"start":413.6663,"duration":0.3333,"velocity":90,"measure":156,"beat":1.5,"subject_pos":-1,"motif":"","motif_pos":-1,"best_pos":3,"similarity":0.482,"stretto":false,"stretto_voices":0,"combination":[],"aug_dim":"","rhythm_ratio":1.0,"mirror":false,"chromatic_density":0.385,"complexity":0.597,"dissonance":0.185},{"voice":0,"pitch":67,"start":413.9996,"duration":0.3333,"velocity":90,"measure":156,"beat":2.0,"subject_pos":-1,"motif":"","motif_pos":-1,"best_pos":5,"similarity":0.471,"stretto":false,"stretto_voices":0,"combination":[],"aug_dim":"","rhythm_ratio":1.0,"mirror":false,"chromatic_density":0.385,"complexity":0.597,"dissonance":0.185},{"voice":1,"pitch":64,"start":413.9996,"duration":1.0,"velocity":90,"measure":156,"beat":2.0,"subject_pos":-1,"motif":"","motif_pos":-1,"best_pos":6,"similarity":0.393,"stretto":false,"stretto_voices":0,"combination":[],"aug_dim":"","rhythm_ratio":1.0,"mirror":false,"chromatic_density":0.385,"complexity":0.597,"dissonance":0.185},{"voice":2,"pitch":58,"start":413.9996,"duration":0.3333,"velocity":90,"measure":156,"beat":2.0,"subject_pos":-1,"motif":"","motif_pos":-1,"best_pos":5,"similarity":0.471,"stretto":false,"stretto_voices":0,"combination":[],"aug_dim":"","rhythm_ratio":1.0,"mirror":false,"chromatic_density":0.385,"complexity":0.597,"dissonance":0.185},{"voice":3,"pitch":49,"start":413.9996,"duration":0.6667,"velocity":90,"measure":156,"beat":2.0,"subject_pos":-1,"motif":"","motif_pos":-1,"best_pos":3,"similarity":0.471,"stretto":false,"stretto_voices":0,"combination":[],"aug_dim":"","rhythm_ratio":1.0,"mirror":false,"chromatic_density":0.385,"complexity":0.597,"dissonance":0.185},{"voice":0,"pitch":67,"start":414.3329,"duration":0.3333,"velocity":90,"measure":156,"beat":2.5,"subject_pos":-1,"motif":"","motif_pos":-1,"best_pos":4,"similarity":0.414,"stretto":false,"stretto_voices":0,"combination":[],"aug_dim":"","rhythm_ratio":1.0,"mirror":false,"chromatic_density":0.385,"complexity":0.597,"dissonance":0.185},{"voice":2,"pitch":58,"start":414.3329,"duration":0.3333,"velocity":90,"measure":156,"beat":2.5,"subject_pos":-1,"motif":"","motif_pos":-1,"best_pos":6,"similarity":0.375,"stretto":false,"stretto_voices":0,"combination":[],"aug_dim":"","rhythm_ratio":1.0,"mirror":false,"chromatic_density":0.385,"complexity":0.597,"dissonance":0.185},{"voice":0,"pitch":67,"start":414.6663,"duration":0.3333,"velocity":90,"measure":156,"beat":3.0,"subject_pos":-1,"motif":"","motif_pos":-1,"best_pos":5,"similarity":0.379,"stretto":false,"stretto_voices":0,"combination":[],"aug_dim":"","rhythm_ratio":1.0,"mirror":false,"chromatic_density":0.385,"complexity":0.597,"dissonance":0.185},{"voice":2,"pitch":58,"start":414.6663,"duration":0.3333,"velocity":90,"measure":156,"beat":3.0,"subject_pos":-1,"motif":"","motif_pos":-1,"best_pos":2,"similarity":0.407,"stretto":false,"stretto_voices":0,"combination":[],"aug_dim":"","rhythm_ratio":1.0,"mirror":false,"chromatic_density":0.385,"complexity":0.597,"dissonance":0.185},{"voice":0,"pitch":70,"start":414.9996,"duration":0.3333,"velocity":90,"measure":156,"beat":3.5,"subject_pos":-1,"motif":"","motif_pos":-1,"best_pos":0,"similarity":0.357,"stretto":false,"stretto_voices":0,"combination":[],"aug_dim":"","rhythm_ratio":1.0,"mirror":false,"chromatic_density":0.385,"complexity":0.597,"dissonance":0.185},{"voice":1,"pitch":67,"start":414.9996,"duration":0.3333,"velocity":90,"measure":156,"beat":3.5,"subject_pos":-1,"motif":"","motif_pos":-1,"best_pos":3,"similarity":0.389,"stretto":false,"stretto_voices":0,"combination":[],"aug_dim":"","rhythm_ratio":1.0,"mirror":false,"chromatic_density":0.385,"complexity":0.597,"dissonance":0.185},{"voice":2,"pitch":55,"start":414.9996,"duration":0.3333,"velocity":90,"measure":156,"beat":3.5,"subject_pos":-1,"motif":"","motif_pos":-1,"best_pos":5,"similarity":0.464,"stretto":false,"stretto_voices":0,"combination":[],"aug_dim":"","rhythm_ratio":1.0,"mirror":false,"chromatic_density":0.385,"complexity":0.597,"dissonance":0.185},{"voice":0,"pitch":75,"start":415.3329,"duration":1.0,"velocity":90,"measure":156,"beat":4.0,"subject_pos":-1,"motif":"","motif_pos":-1,"best_pos":1,"similarity":0.464,"stretto":false,"stretto_voices":0,"combination":[],"aug_dim":"","rhythm_ratio":1.0,"mirror":false,"chromatic_density":0.385,"complexity":0.597,"dissonance":0.185},{"voice":1,"pitch":66,"start":415.3329,"duration":0.3333,"velocity":90,"measure":156,"beat":4.0,"subject_pos":-1,"motif":"","motif_pos":-1,"best_pos":4,"similarity":0.489,"stretto":false,"stretto_voices":0,"combination":[],"aug_dim":"","rhythm_ratio":1.0,"mirror":false,"chromatic_density":0.385,"complexity":0.597,"dissonance":0.185},{"voice":2,"pitch":57,"start":415.3329,"duration":0.3333,"velocity":90,"measure":156,"beat":4.0,"subject_pos":-1,"motif":"","motif_pos":-1,"best_pos":6,"similarity":0.479,"stretto":false,"stretto_voices":0,"combination":[],"aug_dim":"","rhythm_ratio":1.0,"mirror":false,"chromatic_density":0.385,"complexity":0.597,"dissonance":0.185},{"voice":3,"pitch":48,"start":415.3329,"duration":0.6667,"velocity":90,"measure":156,"beat":4.0,"subject_pos":-1,"motif":"","motif_pos":-1,"best_pos":3,"similarity":0.471,"stretto":false,"stretto_voices":0,"combination":[],"aug_dim":"","rhythm_ratio":1.0,"mirror":false,"chromatic_density":0.385,"complexity":0.597,"dissonance":0.185},{"voice":1,"pitch":66,"start":415.6663,"duration":0.3333,"velocity":90,"measure":156,"beat":4.5,"subject_pos":-1,"motif":"","motif_pos":-1,"best_pos":4,"similarity":0.4,"stretto":false,"stretto_voices":0,"combination":[],"aug_dim":"","rhythm_ratio":1.0,"mirror":false,"chromatic_density":0.385,"complexity":0.597,"dissonance":0.185},{"voice":2,"pitch":57,"start":415.6663,"duration":0.3333,"velocity":90,"measure":156,"beat":4.5,"subject_pos":-1,"motif":"","motif_pos":-1,"best_pos":4,"similarity":0.393,"stretto":false,"stretto_voices":0,"combination":[],"aug_dim":"","rhythm_ratio":1.0,"mirror":false,"chromatic_density":0.385,"complexity":0.597,"dissonance":0.185},{"voice":1,"pitch":66,"start":415.9996,"duration":0.3333,"velocity":90,"measure":157,"beat":1.0,"subject_pos":-1,"motif":"","motif_pos":-1,"best_pos":5,"similarity":0.389,"stretto":false,"stretto_voices":0,"combination":[],"aug_dim":"","rhythm_ratio":1.0,"mirror":false,"chromatic_density":0.529,"complexity":0.672,"dissonance":0.164},{"voice":2,"pitch":57,"start":415.9996,"duration":0.3333,"velocity":90,"measure":157,"beat":1.0,"subject_pos":-1,"motif":"","motif_pos":-1,"best_pos":2,"similarity":0.429,"stretto":false,"stretto_voices":0,"combination":[],"aug_dim":"","rhythm_ratio":1.0,"mirror":false,"chromatic_density":0.529,"complexity":0.672,"dissonance":0.164},{"voice":3,"pitch":47,"start":415.9996,"duration":0.6667,"velocity":90,"measure":157,"beat":1.0,"subject_pos":-1,"motif":"","motif_pos":-1,"best_pos":3,"similarity":0.471,"stretto":false,"stretto_voices":0,"combination":[],"aug_dim":"","rhythm_ratio":1.0,"mirror":false,"chromatic_density":0.529,"complexity":0.672,"dissonance":0.164},{"voice":0,"pitch":74,"start":416.3329,"duration":0.3333,"velocity":90,"measure":157,"beat":1.5,"subject_pos":-1,"motif":"head","motif_pos":0,"best_pos":0,"similarity":1.0,"stretto":false,"stretto_voices":0,"combination":[],"aug_dim":"","rhythm_ratio":1.0,"mirror":false,"chromatic_density":0.529,"complexity":0.672,"dissonance":0.164},{"voice":1,"pitch":69,"start":416.3329,"duration":0.3333,"velocity":90,"measure":157,"beat":1.5,"subject_pos":-1,"motif":"","motif_pos":-1,"best_pos":1,"similarity":0.407,"stretto":false,"stretto_voices":0,"combination":[],"aug_dim":"","rhythm_ratio":1.0,"mirror":false,"chromatic_density":0.529,"complexity":0.672,"dissonance":0.164},{"voice":2,"pitch":54,"start":416.3329,"duration":0.3333,"velocity":90,"measure":157,"beat":1.5,"subject_pos":-1,"motif":"","motif_pos":-1,"best_pos":3,"similarity":0.482,"stretto":false,"stretto_voices":0,"combination":[],"aug_dim":"","rhythm_ratio":1.0,"mirror":false,"chromatic_density":0.529,"complexity":0.672,"dissonance":0.164},{"voice":0,"pitch":79,"start":416.6662,"duration":0.3333,"velocity":90,"measure":157,"beat":2.0,"subject_pos":-1,"motif":"head","motif_pos":1,"best_pos":1,"similarity":1.0,"stretto":false,"stretto_voices":0,"combination":[],"aug_dim":"","rhythm_ratio":1.0,"mirror":false,"chromatic_density":0.529,"complexity":0.672,"dissonance":0.164},{"voice":1,"pitch":67,"start":416.6662,"duration":0.3333,"velocity":90,"measure":157,"beat":2.0,"subject_pos":-1,"motif":"","motif_pos":-1,"best_pos":2,"similarity":0.457,"stretto":false,"stretto_voices":0,"combination":[],"aug_dim":"","rhythm_ratio":1.0,"mirror":false,"chromatic_density":0.529,"complexity":0.672,"dissonance":0.164},{"voice":2,"pitch":55,"start":416.6662,"duration":0.3333,"velocity":90,"measure":157,"beat":2.0,"subject_pos":-1,"motif":"","motif_pos":-1,"best_pos":5,"similarity":0.471,"stretto":false,"stretto_voices":0,"combination":[],"aug_dim":"","rhythm_ratio":1.0,"mirror":false,"chromatic_density":0.529,"complexity":0.672,"dissonance":0.164},{"voice":3,"pitch":46,"start":416.6662,"duration":1.3333,"velocity":90,"measure":157,"beat":2.0,"subject_pos":-1,"motif":"","motif_pos":-1,"best_pos":4,"similarity":0.514,"stretto":false,"stretto_voices":0,"combination":[],"aug_dim":"","rhythm_ratio":1.0,"mirror":false,"chromatic_density":0.529,"complexity":0.672,"dissonance":0.164},{"voice":0,"pitch":77,"start":416.9996,"duration":0.3333,"velocity":90,"measure":157,"beat":2.5,"subject_pos":-1,"motif":"head","motif_pos":2,"best_pos":2,"similarity":1.0,"stretto":false,"stretto_voices":0,"combination":[],"aug_dim":"","rhythm_ratio":1.0,"mirror":false,"chromatic_density":0.529,"complexity":0.672,"dissonance":0.164},{"voice":1,"pitch":67,"start":416.9996,"duration":0.3333,"velocity":90,"measure":157,"beat":2.5,"subject_pos":-1,"motif":"","motif_pos":-1,"best_pos":4,"similarity":0.571,"stretto":false,"stretto_voices":0,"combination":[],"aug_dim":"","rhythm_ratio":1.0,"mirror":false,"chromatic_density":0.529,"complexity":0.672,"dissonance":0.164},{"voice":2,"pitch":55,"start":416.9996,"duration":0.3333,"velocity":90,"measure":157,"beat":2.5,"subject_pos":-1,"motif":"","motif_pos":-1,"best_pos":4,"similarity":0.407,"stretto":false,"stretto_voices":0,"combination":[],"aug_dim":"","rhythm_ratio":1.0,"mirror":false,"chromatic_density":0.529,"complexity":0.672,"dissonance":0.164},{"voice":0,"pitch":76,"start":417.3329,"duration":0.3333,"velocity":90,"measure":157,"beat":3.0,"subject_pos":-1,"motif":"head","motif_pos":3,"best_pos":3,"similarity":1.0,"stretto":false,"stretto_voices":0,"combination":[],"aug_dim":"","rhythm_ratio":1.0,"mirror":false,"chromatic_density":0.529,"complexity":0.672,"dissonance":0.164},{"voice":1,"pitch":67,"start":417.3329,"duration":0.3333,"velocity":90,"measure":157,"beat":3.0,"subject_pos":-1,"motif":"","motif_pos":-1,"best_pos":5,"similarity":0.679,"stretto":false,"stretto_voices":0,"combination":[],"aug_dim":"","rhythm_ratio":1.0,"mirror":false,"chromatic_density":0.529,"complexity":0.672,"dissonance":0.164},{"voice":2,"pitch":55,"start":417.3329,"duration":0.3333,"velocity":90,"measure":157,"beat":3.0,"subject_pos":-1,"motif":"","motif_pos":-1,"best_pos":2,"similarity":0.429,"stretto":false,"stretto_voices":0,"combination":[],"aug_dim":"","rhythm_ratio":1.0,"mirror":false,"chromatic_density":0.529,"complexity":0.672,"dissonance":0.164},{"voice":0,"pitch":74,"start":417.6662,"duration":0.3333,"velocity":90,"measure":157,"beat":3.5,"subject_pos":-1,"motif":"head","motif_pos":4,"best_pos":4,"similarity":1.0,"stretto":false,"stretto_voices":0,"combination":[],"aug_dim":"","rhythm_ratio":1.0,"mirror":false,"chromatic_density":0.529,"complexity":0.672,"dissonance":0.164},{"voice":1,"pitch":69,"start":417.6662,"duration":0.3333,"velocity":90,"measure":157,"beat":3.5,"subject_pos":-1,"motif":"enigmatic_cell","motif_pos":0,"best_pos":0,"similarity":1.0,"stretto":false,"stretto_voices":0,"combination":[],"aug_dim":"","rhythm_ratio":1.0,"mirror":false,"chromatic_density":0.529,"complexity":0.672,"dissonance":0.164},{"voice":2,"pitch":52,"start":417.6662,"duration":0.3333,"velocity":90,"measure":157,"beat":3.5,"subject_pos":-1,"motif":"","motif_pos":-1,"best_pos":3,"similarity":0.471,"stretto":false,"stretto_voices":0,"combination":[],"aug_dim":"","rhythm_ratio":1.0,"mirror":false,"chromatic_density":0.529,"complexity":0.672,"dissonance":0.164},{"voice":0,"pitch":73,"start":417.9996,"duration":0.3333,"velocity":90,"measure":157,"beat":4.0,"subject_pos":-1,"motif":"","motif_pos":-1,"best_pos":4,"similarity":0.693,"stretto":false,"stretto_voices":0,"combination":[],"aug_dim":"","rhythm_ratio":1.0,"mirror":false,"chromatic_density":0.529,"complexity":0.672,"dissonance":0.164},{"voice":1,"pitch":70,"start":417.9996,"duration":1.3333,"velocity":90,"measure":157,"beat":4.0,"subject_pos":-1,"motif":"enigmatic_cell","motif_pos":1,"best_pos":1,"similarity":1.0,"stretto":false,"stretto_voices":0,"combination":[],"aug_dim":"","rhythm_ratio":1.0,"mirror":false,"chromatic_density":0.529,"complexity":0.672,"dissonance":0.164},{"voice":2,"pitch":53,"start":417.9996,"duration":0.3333,"velocity":90,"measure":157,"beat":4.0,"subject_pos":-1,"motif":"","motif_pos":-1,"best_pos":5,"similarity":0.436,"stretto":false,"stretto_voices":0,"combination":[],"aug_dim":"","rhythm_ratio":1.0,"mirror":false,"chromatic_density":0.529,"complexity":0.672,"dissonance":0.164},{"voice":3,"pitch":45,"start":417.9996,"duration":0.3333,"velocity":90,"measure":157,"beat":4.0,"subject_pos":-1,"motif":"","motif_pos":-1,"best_pos":3,"similarity":0.571,"stretto":false,"stretto_voices":0,"combination":[],"aug_dim":"","rhythm_ratio":1.0,"mirror":false,"chromatic_density":0.529,"complexity":0.672,"dissonance":0.164},{"voice":0,"pitch":74,"start":418.3329,"duration":0.3333,"velocity":90,"measure":157,"beat":4.5,"subject_pos":-1,"motif":"","motif_pos":-1,"best_pos":5,"similarity":0.493,"stretto":false,"stretto_voices":0,"combination":[],"aug_dim":"","rhythm_ratio":1.0,"mirror":false,"chromatic_density":0.529,"complexity":0.672,"dissonance":0.164},{"voice":2,"pitch":53,"start":418.3329,"duration":0.3333,"velocity":90,"measure":157,"beat":4.5,"subject_pos":-1,"motif":"enigmatic_cell","motif_pos":0,"best_pos":0,"similarity":1.0,"stretto":false,"stretto_voices":0,"combination":[],"aug_dim":"","rhythm_ratio":1.0,"mirror":false,"chromatic_density":0.529,"complexity":0.672,"dissonance":0.164},{"voice":3,"pitch":44,"start":418.3329,"duration":0.3333,"velocity":90,"measure":157,"beat":4.5,"subject_pos":-1,"motif":"","motif_pos":-1,"best_pos":4,"similarity":0.65,"stretto":false,"stretto_voices":0,"combination":[],"aug_dim":"","rhythm_ratio":1.0,"mirror":false,"chromatic_density":0.529,"complexity":0.672,"dissonance":0.164},{"voice":0,"pitch":73,"start":418.6662,"duration":0.6667,"velocity":90,"measure":158,"beat":1.0,"subject_pos":-1,"motif":"","motif_pos":-1,"best_pos":4,"similarity":0.371,"stretto":false,"stretto_voices":0,"combination":[],"aug_dim":"","rhythm_ratio":1.0,"mirror":false,"chromatic_density":0.154,"complexity":0.684,"dissonance":0.133},{"voice":2,"pitch":52,"start":418.6662,"duration":0.3333,"velocity":90,"measure":158,"beat":1.0,"subject_pos":-1,"motif":"enigmatic_cell","motif_pos":1,"best_pos":1,"similarity":1.0,"stretto":false,"stretto_voices":0,"combination":[],"aug_dim":"","rhythm_ratio":1.0,"mirror":false,"chromatic_density":0.154,"complexity":0.684,"dissonance":0.133},{"voice":3,"pitch":45,"start":418.6662,"duration":0.6667,"velocity":90,"measure":158,"beat":1.0,"subject_pos":-1,"motif":"","motif_pos":-1,"best_pos":5,"similarity":0.461,"stretto":false,"stretto_voices":0,"combination":[],"aug_dim":"","rhythm_ratio":1.0,"mirror":false,"chromatic_density":0.154,"complexity":0.684,"dissonance":0.133},{"voice":2,"pitch":57,"start":418.9996,"duration":0.3333,"velocity":90,"measure":158,"beat":1.5,"subject_pos":-1,"motif":"enigmatic_cell","motif_pos":2,"best_pos":2,"similarity":1.0,"stretto":false,"stretto_voices":0,"combination":[],"aug_dim":"","rhythm_ratio":1.0,"mirror":false,"chromatic_density":0.154,"complexity":0.684,"dissonance":0.133},{"voice":0,"pitch":81,"start":419.3329,"duration":0.6667,"velocity":90,"measure":158,"beat":2.0,"subject_pos":0,"motif":"subject_inv","motif_pos":0,"best_pos":0,"similarity":1.0,"stretto":false,"stretto_voices":0,"combination":[],"aug_dim":"","rhythm_ratio":1.0,"mirror":false,"chromatic_density":0.154,"complexity":0.684,"dissonance":0.133},{"voice":1,"pitch":64,"start":419.3329,"duration":0.6667,"velocity":90,"measure":158,"beat":2.0,"subject_pos":-1,"motif":"enigmatic_cell","motif_pos":2,"best_pos":2,"similarity":1.0,"stretto":false,"stretto_voices":0,"combination":[],"aug_dim":"","rhythm_ratio":1.0,"mirror":false,"chromatic_density":0.154,"complexity":0.684,"dissonance":0.133},{"voice":2,"pitch":61,"start":419.3329,"duration":0.6667,"velocity":90,"measure":158,"beat":2.0,"subject_pos":-1,"motif":"","motif_pos":-1,"best_pos":2,"similarity":0.293,"stretto":false,"stretto_voices":0,"combination":[],"aug_dim":"","rhythm_ratio":1.0,"mirror":false,"chromatic_density":0.154,"complexity":0.684,"dissonance":0.133},{"voice":3,"pitch":55,"start":419.6662,"duration":0.3333,"velocity":90,"measure":158,"beat":2.5,"subject_pos":-1,"motif":"","motif_pos":-1,"best_pos":1,"similarity":0.386,"stretto":false,"stretto_voices":0,"combination":[],"aug_dim":"","rhythm_ratio":1.0,"mirror":false,"chromatic_density":0.154,"complexity":0.684,"dissonance":0.133},{"voice":0,"pitch":74,"start":419.9996,"duration":0.6667,"velocity":90,"measure":158,"beat":3.0,"subject_pos":1,"motif":"subject_inv","motif_pos":1,"best_pos":1,"similarity":1.0,"stretto":false,"stretto_voices":0,"combination":[],"aug_dim":"","rhythm_ratio":1.0,"mirror":false,"chromatic_density":0.154,"complexity":0.684,"dissonance":0.133},{"voice":1,"pitch":69,"start":419.9996,"duration":0.6667,"velocity":90,"measure":158,"beat":3.0,"subject_pos":-1,"motif":"","motif_pos":-1,"best_pos":1,"similarity":0.714,"stretto":false,"stretto_voices":0,"combination":[],"aug_dim":"","rhythm_ratio":1.0,"mirror":false,"chromatic_density":0.154,"complexity":0.684,"dissonance":0.133},{"voice":3,"pitch":53,"start":419.9996,"duration":0.3333,"velocity":90,"measure":158,"beat":3.0,"subject_pos":-1,"motif":"","motif_pos":-1,"best_pos":2,"similarity":0.461,"stretto":false,"stretto_voices":0,"combination":[],"aug_dim":"","rhythm_ratio":1.0,"mirror":false,"chromatic_density":0.154,"complexity":0.684,"dissonance":0.133},{"voice":3,"pitch":52,"start":420.3329,"duration":0.3333,"velocity":90,"measure":158,"beat":3.5,"subject_pos":-1,"motif":"","motif_pos":-1,"best_pos":2,"similarity":0.5,"stretto":false,"stretto_voices":0,"combination":[],"aug_dim":"","rhythm_ratio":1.0,"mirror":false,"chromatic_density":0.154,"complexity":0.684,"dissonance":0.133},{"voice":0,"pitch":76,"start":420.6662,"duration":0.6667,"velocity":90,"measure":158,"beat":4.0,"subject_pos":2,"motif":"subject_inv","motif_pos":2,"best_pos":2,"similarity":1.0,"stretto":false,"stretto_voices":0,"combination":[],"aug_dim":"","rhythm_ratio":1.0,"mirror":false,"chromatic_density":0.154,"complexity":0.684,"dissonance":0.133},{"voice":1,"pitch":67,"start":420.6662,"duration":0.6667,"velocity":90,"measure":158,"beat":4.0,"subject_pos":-1,"motif":"","motif_pos":-1,"best_pos":2,"similarity":0.721,"stretto":false,"stretto_voices":0,"combination":[],"aug_dim":"","rhythm_ratio":1.0,"mirror":false,"chromatic_density":0.154,"complexity":0.684,"dissonance":0.133},{"voice":2,"pitch":70,"start":420.6662,"duration":1.0,"velocity":90,"measure":158,"beat":4.0,"subject_pos":-1,"motif":"enigmatic_cell","motif_pos":0,"best_pos":0,"similarity":1.0,"stretto":false,"stretto_voices":0,"combination":[],"aug_dim":"","rhythm_ratio":1.0,"mirror":false,"chromatic_density":0.154,"complexity":0.684,"dissonance":0.133},{"voice":3,"pitch":50,"start":420.6662,"duration":0.3333,"velocity":90,"measure":158,"beat":4.0,"subject_pos":-1,"motif":"","motif_pos":-1,"best_pos":3,"similarity":0.661,"stretto":false,"stretto_voices":0,"combination":[],"aug_dim":"","rhythm_ratio":1.0,"mirror":false,"chromatic_density":0.154,"complexity":0.684,"dissonance":0.133},{"voice":3,"pitch":49,"start":420.9996,"duration":0.3333,"velocity":90,"measure":158,"beat":4.5,"subject_pos":-1,"motif":"","motif_pos":-1,"best_pos":4,"similarity":0.75,"stretto":false,"stretto_voices":0,"combination":[],"aug_dim":"","rhythm_ratio":1.0,"mirror":false,"chromatic_density":0.154,"complexity":0.684,"dissonance":0.133},{"voice":3,"pitch":50,"start":421.3329,"duration":0.6667,"velocity":90,"measure":159,"beat":1.0,"subject_pos":-1,"motif":"","motif_pos":-1,"best_pos":5,"similarity":0.607,"stretto":false,"stretto_voices":0,"combination":[],"aug_dim":"","rhythm_ratio":1.0,"mirror":false,"chromatic_density":0.2,"complexity":0.604,"dissonance":0.103},{"voice":2,"pitch":69,"start":421.6662,"duration":0.3333,"velocity":90,"measure":159,"beat":1.5,"subject_pos":-1,"motif":"enigmatic_cell","motif_pos":1,"best_pos":1,"similarity":1.0,"stretto":false,"stretto_voices":0,"combination":[],"aug_dim":"","rhythm_ratio":1.0,"mirror":false,"chromatic_density":0.2,"complexity":0.604,"dissonance":0.103},{"voice":0,"pitch":77,"start":421.9996,"duration":0.6667,"velocity":90,"measure":159,"beat":2.0,"subject_pos":3,"motif":"subject_inv","motif_pos":3,"best_pos":3,"similarity":1.0,"stretto":false,"stretto_voices":0,"combination":[],"aug_dim":"","rhythm_ratio":1.0,"mirror":false,"chromatic_density":0.2,"complexity":0.604,"dissonance":0.103},{"voice":1,"pitch":65,"start":421.9996,"duration":0.6667,"velocity":90,"measure":159,"beat":2.0,"subject_pos":-1,"motif":"","motif_pos":-1,"best_pos":3,"similarity":0.664,"stretto":false,"stretto_voices":0,"combination":[],"aug_dim":"","rhythm_ratio":1.0,"mirror":false,"chromatic_density":0.2,"complexity":0.604,"dissonance":0.103},{"voice":2,"pitch":74,"start":421.9996,"duration":1.0,"velocity":90,"measure":159,"beat":2.0,"subject_pos":-1,"motif":"enigmatic_cell","motif_pos":2,"best_pos":2,"similarity":1.0,"stretto":false,"stretto_voices":0,"combination":[],"aug_dim":"","rhythm_ratio":1.0,"mirror":false,"chromatic_density":0.2,"complexity":0.604,"dissonance":0.103},{"voice":3,"pitch":50,"start":422.3329,"duration":0.3333,"velocity":90,"measure":159,"beat":2.5,"subject_pos":-1,"motif":"","motif_pos":-1,"best_pos":5,"similarity":0.554,"stretto":false,"stretto_voices":0,"combination":[],"aug_dim":"","rhythm_ratio":1.0,"mirror":false,"chromatic_density":0.2,"complexity":0.604,"dissonance":0.103},{"voice":0,"pitch":79,"start":422.6662,"duration":0.6667,"velocity":90,"measure":159,"beat":3.0,"subject_pos":4,"motif":"subject_inv","motif_pos":4,"best_pos":4,"similarity":1.0,"stretto":false,"stretto_voices":0,"combination":[],"aug_dim":"","rhythm_ratio":1.0,"mirror":false,"chromatic_density":0.2,"complexity":0.604,"dissonance":0.103},{"voice":1,"pitch":64,"start":422.6662,"duration":0.6667,"velocity":90,"measure":159,"beat":3.0,"subject_pos":-1,"motif":"","motif_pos":-1,"best_pos":4,"similarity":0.543,"stretto":false,"stretto_voices":0,"combination":[],"aug_dim":"","rhythm_ratio":1.0,"mirror":false,"chromatic_density":0.2,"complexity":0.604,"dissonance":0.103},{"voice":3,"pitch":52,"start":422.6662,"duration":0.6667,"velocity":90,"measure":159,"beat":3.0,"subject_pos":-1,"motif":"","motif_pos":-1,"best_pos":5,"similarity":0.65,"stretto":false,"stretto_voices":0,"combination":[],"aug_dim":"","rhythm_ratio":1.0,"mirror":false,"chromatic_density":0.2,"complexity":0.604,"dissonance":0.103},{"voice":2,"pitch":72,"start":422.9996,"duration":0.3333,"velocity":90,"measure":159,"beat":3.5,"subject_pos":-1,"motif":"","motif_pos":-1,"best_pos":2,"similarity":0.786,"stretto":false,"stretto_voices":0,"combination":[],"aug_dim":"","rhythm_ratio":1.0,"mirror":false,"chromatic_density":0.2,"complexity":0.604,"dissonance":0.103},{"voice":0,"pitch":81,"start":423.3329,"duration":0.6667,"velocity":90,"measure":159,"beat":4.0,"subject_pos":5,"motif":"subject_inv","motif_pos":5,"best_pos":5,"similarity":1.0,"stretto":false,"stretto_voices":0,"combination":[],"aug_dim":"","rhythm_ratio":1.0,"mirror":false,"chromatic_density":0.2,"complexity":0.604,"dissonance":0.103},{"voice":1,"pitch":62,"start":423.3329,"duration":0.6667,"velocity":90,"measure":159,"beat":4.0,"subject_pos":-1,"motif":"tail","motif_pos":3,"best_pos":3,"similarity":1.0,"stretto":false,"stretto_voices":0,"combination":[],"aug_dim":"","rhythm_ratio":1.0,"mirror":false,"chromatic_density":0.2,"complexity":0.604,"dissonance":0.103},{"voice":2,"pitch":70,"start":423.3329,"duration":0.3333,"velocity":90,"measure":159,"beat":4.0,"subject_pos":-1,"motif":"","motif_pos":-1,"best_pos":3,"similarity":0.786,"stretto":false,"stretto_voices":0,"combination":[],"aug_dim":"","rhythm_ratio":1.0,"mirror":false,"chromatic_density":0.2,"complexity":0.604,"dissonance":0.103},{"voice":3,"pitch":54,"start":423.3329,"duration":0.6667,"velocity":90,"measure":159,"beat":4.0,"subject_pos":-1,"motif":"","motif_pos":-1,"best_pos":6,"similarity":0.679,"stretto":false,"stretto_voices":0,"combination":[],"aug_dim":"","rhythm_ratio":1.0,"mirror":false,"chromatic_density":0.2,"complexity":0.604,"dissonance":0.103},{"voice":2,"pitch":69,"start":423.6662,"duration":0.3333,"velocity":90,"measure":159,"beat":4.5,"subject_pos":-1,"motif":"","motif_pos":-1,"best_pos":4,"similarity":0.721,"stretto":false,"stretto_voices":0,"combination":[],"aug_dim":"","rhythm_ratio":1.0,"mirror":false,"chromatic_density":0.2,"complexity":0.604,"dissonance":0.103},{"voice":2,"pitch":70,"start":423.9996,"duration":0.6667,"velocity":90,"measure":160,"beat":1.0,"subject_pos":-1,"motif":"","motif_pos":-1,"best_pos":5,"similarity":0.479,"stretto":false,"stretto_voices":0,"combination":[],"aug_dim":"","rhythm_ratio":1.0,"mirror":false,"chromatic_density":0.273,"complexity":0.604,"dissonance":0.209},{"voice":3,"pitch":55,"start":423.9996,"duration":0.3333,"velocity":90,"measure":160,"beat":1.0,"subject_pos":-1,"motif":"","motif_pos":-1,"best_pos":7,"similarity":0.464,"stretto":false,"stretto_voices":0,"combination":[],"aug_dim":"","rhythm_ratio":1.0,"mirror":false,"chromatic_density":0.273,"complexity":0.604,"dissonance":0.209},{"voice":3,"pitch":53,"start":424.3329,"duration":0.3333,"velocity":90,"measure":160,"beat":1.5,"subject_pos":-1,"motif":"","motif_pos":-1,"best_pos":3,"similarity":0.493,"stretto":false,"stretto_voices":0,"combination":[],"aug_dim":"","rhythm_ratio":1.0,"mirror":false,"chromatic_density":0.273,"complexity":0.604,"dissonance":0.209},{"voice":0,"pitch":82,"start":424.6662,"duration":0.6667,"velocity":90,"measure":160,"beat":2.0,"subject_pos":6,"motif":"subject_inv","motif_pos":6,"best_pos":6,"similarity":1.0,"stretto":false,"stretto_voices":0,"combination":[],"aug_dim":"","rhythm_ratio":1.0,"mirror":false,"chromatic_density":0.273,"complexity":0.604,"dissonance":0.209},{"voice":1,"pitch":61,"start":424.6662,"duration":0.6667,"velocity":90,"measure":160,"beat":2.0,"subject_pos":-1,"motif":"tail","motif_pos":4,"best_pos":4,"similarity":1.0,"stretto":false,"stretto_voices":0,"combination":[],"aug_dim":"","rhythm_ratio":1.0,"mirror":false,"chromatic_density":0.273,"complexity":0.604,"dissonance":0.209},{"voice":3,"pitch":52,"start":424.6662,"duration":0.3333,"velocity":90,"measure":160,"beat":2.0,"subject_pos":-1,"motif":"","motif_pos":-1,"best_pos":4,"similarity":0.486,"stretto":false,"stretto_voices":0,"combination":[],"aug_dim":"","rhythm_ratio":1.0,"mirror":false,"chromatic_density":0.273,"complexity":0.604,"dissonance":0.209},{"voice":3,"pitch":55,"start":424.9996,"duration":0.3333,"velocity":90,"measure":160,"beat":2.5,"subject_pos":-1,"motif":"","motif_pos":-1,"best_pos":1,"similarity":0.371,"stretto":false,"stretto_voices":0,"combination":[],"aug_dim":"","rhythm_ratio":1.0,"mirror":false,"chromatic_density":0.273,"complexity":0.604,"dissonance":0.209},{"voice":0,"pitch":81,"start":425.3329,"duration":0.6667,"velocity":90,"measure":160,"beat":3.0,"subject_pos":7,"motif":"subject_inv","motif_pos":7,"best_pos":7,"similarity":1.0,"stretto":false,"stretto_voices":0,"combination":[],"aug_dim":"","rhythm_ratio":1.0,"mirror":false,"chromatic_density":0.273,"complexity":0.604,"dissonance":0.209},{"voice":1,"pitch":62,"start":425.3329,"duration":0.6667,"velocity":90,"measure":160,"beat":3.0,"subject_pos":-1,"motif":"tail","motif_pos":5,"best_pos":5,"similarity":1.0,"stretto":false,"stretto_voices":0,"combination":[],"aug_dim":"","rhythm_ratio":1.0,"mirror":false,"chromatic_density":0.273,"complexity":0.604,"dissonance":0.209},{"voice":3,"pitch":53,"start":425.3329,"duration":1.6667,"velocity":90,"measure":160,"beat":3.0,"subject_pos":-1,"motif":"","motif_pos":-1,"best_pos":2,"similarity":0.368,"stretto":false,"stretto_voices":0,"combination":[],"aug_dim":"","rhythm_ratio":1.0,"mirror":false,"chromatic_density":0.273,"complexity":0.604,"dissonance":0.209},{"voice":2,"pitch":57,"start":425.6662,"duration":0.3333,"velocity":90,"measure":160,"beat":3.5,"subject_pos":-1,"motif":"","motif_pos":-1,"best_pos":0,"similarity":0.286,"stretto":false,"stretto_voices":0,"combination":[],"aug_dim":"","rhythm_ratio":1.0,"mirror":false,"chromatic_density":0.273,"complexity":0.604,"dissonance":0.209},{"voice":0,"pitch":79,"start":425.9996,"duration":0.6667,"velocity":90,"measure":160,"beat":4.0,"subject_pos":8,"motif":"subject_inv","motif_pos":8,"best_pos":0,"similarity":1.0,"stretto":false,"stretto_voices":0,"combination":[],"aug_dim":"","rhythm_ratio":1.0,"mirror":false,"chromatic_density":0.273,"complexity":0.604,"dissonance":0.209},{"voice":1,"pitch":64,"start":425.9996,"duration":0.6667,"velocity":90,"measure":160,"beat":4.0,"subject_pos":-1,"motif":"tail","motif_pos":6,"best_pos":6,"similarity":1.0,"stretto":false,"stretto_voices":0,"combination":[],"aug_dim":"","rhythm_ratio":1.0,"mirror":false,"chromatic_density":0.273,"complexity":0.604,"dissonance":0.209},{"voice":2,"pitch":61,"start":425.9996,"duration":0.3333,"velocity":90,"measure":160,"beat":4.0,"subject_pos":-1,"motif":"","motif_pos":-1,"best_pos":1,"similarity":0.5,"stretto":false,"stretto_voices":0,"combination":[],"aug_dim":"","rhythm_ratio":1.0,"mirror":false,"chromatic_density":0.273,"complexity":0.604,"dissonance":0.209},{"voice":2,"pitch":57,"start":426.3329,"duration":0.3333,"velocity":90,"measure":160,"beat":4.5,"subject_pos":-1,"motif":"","motif_pos":-1,"best_pos":2,"similarity":0.571,"stretto":false,"stretto_voices":0,"combination":[],"aug_dim":"","rhythm_ratio":1.0,"mirror":false,"chromatic_density":0.273,"complexity":0.604,"dissonance":0.209},{"voice":2,"pitch":62,"start":426.6662,"duration":1.0,"velocity":90,"measure":161,"beat":1.0,"subject_pos":-1,"motif":"","motif_pos":-1,"best_pos":3,"similarity":0.614,"stretto":false,"stretto_voices":0,"combination":[],"aug_dim":"","rhythm_ratio":1.0,"mirror":false,"chromatic_density":0.417,"complexity":0.505,"dissonance":0.07},{"voice":3,"pitch":53,"start":426.9996,"duration":0.3333,"velocity":90,"measure":161,"beat":1.5,"subject_pos":-1,"motif":"","motif_pos":-1,"best_pos":0,"similarity":0.393,"stretto":false,"stretto_voices":0,"combination":[],"aug_dim":"","rhythm_ratio":1.0,"mirror":false,"chromatic_density":0.417,"complexity":0.505,"dissonance":0.07},{"voice":0,"pitch":77,"start":427.3329,"duration":0.3333,"velocity":90,"measure":161,"beat":2.0,"subject_pos":-1,"motif":"","motif_pos":-1,"best_pos":3,"similarity":0.786,"stretto":false,"stretto_voices":0,"combination":[],"aug_dim":"","rhythm_ratio":1.0,"mirror":false,"chromatic_density":0.417,"complexity":0.505,"dissonance":0.07},{"voice":1,"pitch":65,"start":427.3329,"duration":0.3333,"velocity":90,"measure":161,"beat":2.0,"subject_pos":-1,"motif":"tail","motif_pos":7,"best_pos":7,"similarity":1.0,"stretto":false,"stretto_voices":0,"combination":[],"aug_dim":"","rhythm_ratio":1.0,"mirror":false,"chromatic_density":0.417,"complexity":0.505,"dissonance":0.07},{"voice":3,"pitch":58,"start":427.3329,"duration":1.0,"velocity":90,"measure":161,"beat":2.0,"subject_pos":-1,"motif":"","motif_pos":-1,"best_pos":1,"similarity":0.571,"stretto":false,"stretto_voices":0,"combination":[],"aug_dim":"","rhythm_ratio":1.0,"mirror":false,"chromatic_density":0.417,"complexity":0.505,"dissonance":0.07},{"voice":0,"pitch":76,"start":427.6662,"duration":0.3333,"velocity":90,"measure":161,"beat":2.5,"subject_pos":-1,"motif":"","motif_pos":-1,"best_pos":4,"similarity":0.893,"stretto":false,"stretto_voices":0,"combination":[],"aug_dim":"","rhythm_ratio":1.0,"mirror":false,"chromatic_density":0.417,"complexity":0.505,"dissonance":0.07},{"voice":1,"pitch":67,"start":427.6662,"duration":0.3333,"velocity":90,"measure":161,"beat":2.5,"subject_pos":-1,"motif":"","motif_pos":-1,"best_pos":6,"similarity":0.464,"stretto":false,"stretto_voices":0,"combination":[],"aug_dim":"","rhythm_ratio":1.0,"mirror":false,"chromatic_density":0.417,"complexity":0.505,"dissonance":0.07},{"voice":2,"pitch":61,"start":427.6662,"duration":0.3333,"velocity":90,"measure":161,"beat":2.5,"subject_pos":-1,"motif":"","motif_pos":-1,"best_pos":4,"similarity":0.664,"stretto":false,"stretto_voices":0,"combination":[],"aug_dim":"","rhythm_ratio":1.0,"mirror":false,"chromatic_density":0.417,"complexity":0.505,"dissonance":0.07},{"voice":0,"pitch":77,"start":427.9996,"duration":0.6667,"velocity":90,"measure":161,"beat":3.0,"subject_pos":-1,"motif":"","motif_pos":-1,"best_pos":5,"similarity":0.821,"stretto":false,"stretto_voices":0,"combination":[],"aug_dim":"","rhythm_ratio":1.0,"mirror":false,"chromatic_density":0.417,"complexity":0.505,"dissonance":0.07},{"voice":1,"pitch":65,"start":427.9996,"duration":0.6667,"velocity":90,"measure":161,"beat":3.0,"subject_pos":-1,"motif":"","motif_pos":-1,"best_pos":2,"similarity":0.593,"stretto":false,"stretto_voices":0,"combination":[],"aug_dim":"","rhythm_ratio":1.0,"mirror":false,"chromatic_density":0.417,"complexity":0.505,"dissonance":0.07},{"voice":2,"pitch":62,"start":427.9996,"duration":1.0,"velocity":90,"measure":161,"beat":3.0,"subject_pos":-1,"motif":"","motif_pos":-1,"best_pos":1,"similarity":0.475,"stretto":false,"stretto_voices":0,"combination":[],"aug_dim":"","rhythm_ratio":1.0,"mirror":false,"chromatic_density":0.417,"complexity":0.505,"dissonance":0.07},{"voice":3,"pitch":57,"start":428.3329,"duration":0.3333,"velocity":90,"measure":161,"beat":3.5,"subject_pos":-1,"motif":"","motif_pos":-1,"best_pos":2,"similarity":0.571,"stretto":false,"stretto_voices":0,"combination":[],"aug_dim":"","rhythm_ratio":1.0,"mirror":false,"chromatic_density":0.417,"complexity":0.505,"dissonance":0.07},{"voice":0,"pitch":79,"start":428.6662,"duration":0.6667,"velocity":90,"measure":161,"beat":4.0,"subject_pos":-1,"motif":"","motif_pos":-1,"best_pos":6,"similarity":0.643,"stretto":false,"stretto_voices":0,"combination":[],"aug_dim":"","rhythm_ratio":1.0,"mirror":false,"chromatic_density":0.417,"complexity":0.505,"dissonance":0.07},{"voice":1,"pitch":63,"start":428.6662,"duration":0.6667,"velocity":90,"measure":161,"beat":4.0,"subject_pos":-1,"motif":"","motif_pos":-1,"best_pos":3,"similarity":0.629,"stretto":false,"stretto_voices":0,"combination":[],"aug_dim":"","rhythm_ratio":1.0,"mirror":false,"chromatic_density":0.417,"complexity":0.505,"dissonance":0.07},{"voice":3,"pitch":55,"start":428.6662,"duration":0.6667,"velocity":90,"measure":161,"beat":4.0,"subject_pos":-1,"motif":"","motif_pos":-1,"best_pos":3,"similarity":0.607,"stretto":false,"stretto_voices":0,"combination":[],"aug_dim":"","rhythm_ratio":1.0,"mirror":false,"chromatic_density":0.417,"complexity":0.505,"dissonance":0.07},{"voice":2,"pitch":60,"start":428.9996,"duration":0.6667,"velocity":90,"measure":161,"beat":4.5,"subject_pos":-1,"motif":"","motif_pos":-1,"best_pos":2,"similarity":0.657,"stretto":false,"stretto_voices":0,"combination":[],"aug_dim":"","rhythm_ratio":1.0,"mirror":false,"chromatic_density":0.417,"complexity":0.505,"dissonance":0.07},{"voice":0,"pitch":81,"start":429.3329,"duration":0.6667,"velocity":90,"measure":162,"beat":1.0,"subject_pos":-1,"motif":"","motif_pos":-1,"best_pos":6,"similarity":0.375,"stretto":false,"stretto_voices":0,"combination":[],"aug_dim":"","rhythm_ratio":1.0,"mirror":false,"chromatic_density":0.444,"complexity":0.598,"dissonance":0.086},{"voice":1,"pitch":62,"start":429.3329,"duration":0.6667,"velocity":90,"measure":162,"beat":1.0,"subject_pos":-1,"motif":"","motif_pos":-1,"best_pos":4,"similarity":0.536,"stretto":false,"stretto_voices":0,"combination":[],"aug_dim":"","rhythm_ratio":1.0,"mirror":false,"chromatic_density":0.444,"complexity":0.598,"dissonance":0.086},{"voice":3,"pitch":54,"start":429.3329,"duration":0.6667,"velocity":90,"measure":162,"beat":1.0,"subject_pos":-1,"motif":"","motif_pos":-1,"best_pos":4,"similarity":0.536,"stretto":false,"stretto_voices":0,"combination":[],"aug_dim":"","rhythm_ratio":1.0,"mirror":false,"chromatic_density":0.444,"complexity":0.598,"dissonance":0.086},{"voice":2,"pitch":57,"start":429.6662,"duration":0.3333,"velocity":90,"measure":162,"beat":1.5,"subject_pos":-1,"motif":"","motif_pos":-1,"best_pos":3,"similarity":0.596,"stretto":false,"stretto_voices":0,"combination":[],"aug_dim":"","rhythm_ratio":1.0,"mirror":false,"chromatic_density":0.444,"complexity":0.598,"dissonance":0.086},{"voice":0,"pitch":74,"start":429.9996,"duration":1.0,"velocity":90,"measure":162,"beat":2.0,"subject_pos":-1,"motif":"","motif_pos":-1,"best_pos":1,"similarity":0.321,"stretto":false,"stretto_voices":0,"combination":[],"aug_dim":"","rhythm_ratio":1.0,"mirror":false,"chromatic_density":0.444,"complexity":0.598,"dissonance":0.086},{"voice":1,"pitch":66,"start":429.9996,"duration":0.6667,"velocity":90,"measure":162,"beat":2.0,"subject_pos":-1,"motif":"","motif_pos":-1,"best_pos":6,"similarity":0.429,"stretto":false,"stretto_voices":0,"combination":[],"aug_dim":"","rhythm_ratio":1.0,"mirror":false,"chromatic_density":0.444,"complexity":0.598,"dissonance":0.086},{"voice":2,"pitch":58,"start":429.9996,"duration":0.3333,"velocity":90,"measure":162,"beat":2.0,"subject_pos":-1,"motif":"","motif_pos":-1,"best_pos":5,"similarity":0.5,"stretto":false,"stretto_voices":0,"combination":[],"aug_dim":"","rhythm_ratio":1.0,"mirror":false,"chromatic_density":0.444,"complexity":0.598,"dissonance":0.086},{"voice":2,"pitch":58,"start":430.3329,"duration":0.3333,"velocity":90,"measure":162,"beat":2.5,"subject_pos":-1,"motif":"","motif_pos":-1,"best_pos":4,"similarity":0.407,"stretto":false,"stretto_voices":0,"combination":[],"aug_dim":"","rhythm_ratio":1.0,"mirror":false,"chromatic_density":0.444,"complexity":0.598,"dissonance":0.086},{"voice":3,"pitch":50,"start":430.3329,"duration":0.3333,"velocity":90,"measure":162,"beat":2.5,"subject_pos":-1,"motif":"","motif_pos":-1,"best_pos":4,"similarity":0.564,"stretto":false,"stretto_voices":0,"combination":[],"aug_dim":"","rhythm_ratio":1.0,"mirror":false,"chromatic_density":0.444,"complexity":0.598,"dissonance":0.086},{"voice":1,"pitch":67,"start":430.6662,"duration":2.0,"velocity":90,"measure":162,"beat":3.0,"subject_pos":-1,"motif":"","motif_pos":-1,"best_pos":2,"similarity":0.457,"stretto":false,"stretto_voices":0,"combination":[],"aug_dim":"","rhythm_ratio":1.0,"mirror":false,"chromatic_density":0.444,"complexity":0.598,"dissonance":0.086},{"voice":2,"pitch":58,"start":430.6662,"duration":1.6667,"velocity":90,"measure":162,"beat":3.0,"subject_pos":-1,"motif":"","motif_pos":-1,"best_pos":2,"similarity":0.429,"stretto":false,"stretto_voices":0,"combination":[],"aug_dim":"","rhythm_ratio":1.0,"mirror":false,"chromatic_density":0.444,"complexity":0.598,"dissonance":0.086},{"voice":3,"pitch":51,"start":430.6662,"duration":0.6667,"velocity":90,"measure":162,"beat":3.0,"subject_pos":-1,"motif":"","motif_pos":-1,"best_pos":5,"similarity":0.604,"stretto":false,"stretto_voices":0,"combination":[],"aug_dim":"","rhythm_ratio":1.0,"mirror":false,"chromatic_density":0.444,"complexity":0.598,"dissonance":0.086},{"voice":0,"pitch":70,"start":430.9996,"duration":0.3333,"velocity":90,"measure":162,"beat":3.5,"subject_pos":-1,"motif":"","motif_pos":-1,"best_pos":2,"similarity":0.393,"stretto":false,"stretto_voices":0,"combination":[],"aug_dim":"","rhythm_ratio":1.0,"mirror":false,"chromatic_density":0.444,"complexity":0.598,"dissonance":0.086},{"voice":0,"pitch":72,"start":431.3329,"duration":0.3333,"velocity":90,"measure":162,"beat":4.0,"subject_pos":-1,"motif":"","motif_pos":-1,"best_pos":6,"similarity":0.429,"stretto":false,"stretto_voices":0,"combination":[],"aug_dim":"","rhythm_ratio":1.0,"mirror":false,"chromatic_density":0.444,"complexity":0.598,"dissonance":0.086},{"voice":3,"pitch":52,"start":431.3329,"duration":0.6667,"velocity":90,"measure":162,"beat":4.0,"subject_pos":-1,"motif":"enigmatic_cell","motif_pos":0,"best_pos":0,"similarity":1.0,"stretto":false,"stretto_voices":0,"combination":[],"aug_dim":"","rhythm_ratio":1.0,"mirror":false,"chromatic_density":0.444,"complexity":0.598,"dissonance":0.086},{"voice":0,"pitch":72,"start":431.6662,"duration":0.3333,"velocity":90,"measure":162,"beat":4.5,"subject_pos":-1,"motif":"","motif_pos":-1,"best_pos":4,"similarity":0.393,"stretto":false,"stretto_voices":0,"combination":[],"aug_dim":"","rhythm_ratio":1.0,"mirror":false,"chromatic_density":0.444,"complexity":0.598,"dissonance":0.086},{"voice":0,"pitch":72,"start":431.9996,"duration":1.6667,"velocity":90,"measure":163,"beat":1.0,"subject_pos":-1,"motif":"","motif_pos":-1,"best_pos":4,"similarity":0.343,"stretto":false,"stretto_voices":0,"combination":[],"aug_dim":"","rhythm_ratio":1.0,"mirror":false,"chromatic_density":0.625,"complexity":0.559,"dissonance":0.128},{"voice":3,"pitch":53,"start":431.9996,"duration":0.6667,"velocity":90,"measure":163,"beat":1.0,"subject_pos":-1,"motif":"enigmatic_cell","motif_pos":1,"best_pos":1,"similarity":1.0,"stretto":false,"stretto_voices":0,"combination":[],"aug_dim":"","rhythm_ratio":1.0,"mirror":false,"chromatic_density":0.625,"complexity":0.559,"dissonance":0.128},{"voice":2,"pitch":55,"start":432.3329,"duration":0.3333,"velocity":90,"measure":163,"beat":1.5,"subject_pos":-1,"motif":"","motif_pos":-1,"best_pos":3,"similarity":0.482,"stretto":false,"stretto_voices":0,"combination":[],"aug_dim":"","rhythm_ratio":1.0,"mirror":false,"chromatic_density":0.625,"complexity":0.559,"dissonance":0.128},{"voice":1,"pitch":65,"start":432.6662,"duration":0.3333,"velocity":90,"measure":163,"beat":2.0,"subject_pos":-1,"motif":"","motif_pos":-1,"best_pos":3,"similarity":0.621,"stretto":false,"stretto_voices":0,"combination":[],"aug_dim":"","rhythm_ratio":1.0,"mirror":false,"chromatic_density":0.625,"complexity":0.559,"dissonance":0.128},{"voice":2,"pitch":56,"start":432.6662,"duration":0.3333,"velocity":90,"measure":163,"beat":2.0,"subject_pos":-1,"motif":"","motif_pos":-1,"best_pos":5,"similarity":0.471,"stretto":false,"stretto_voices":0,"combination":[],"aug_dim":"","rhythm_ratio":1.0,"mirror":false,"chromatic_density":0.625,"complexity":0.559,"dissonance":0.128},{"voice":1,"pitch":64,"start":432.9996,"duration":0.3333,"velocity":90,"measure":163,"beat":2.5,"subject_pos":-1,"motif":"","motif_pos":-1,"best_pos":4,"similarity":0.721,"stretto":false,"stretto_voices":0,"combination":[],"aug_dim":"","rhythm_ratio":1.0,"mirror":false,"chromatic_density":0.625,"complexity":0.559,"dissonance":0.128},{"voice":2,"pitch":56,"start":432.9996,"duration":0.3333,"velocity":90,"measure":163,"beat":2.5,"subject_pos":-1,"motif":"","motif_pos":-1,"best_pos":6,"similarity":0.375,"stretto":false,"stretto_voices":0,"combination":[],"aug_dim":"","rhythm_ratio":1.0,"mirror":false,"chromatic_density":0.625,"complexity":0.559,"dissonance":0.128},{"voice":3,"pitch":48,"start":432.9996,"duration":0.3333,"velocity":90,"measure":163,"beat":2.5,"subject_pos":-1,"motif":"enigmatic_cell","motif_pos":2,"best_pos":2,"similarity":1.0,"stretto":false,"stretto_voices":0,"combination":[],"aug_dim":"","rhythm_ratio":1.0,"mirror":false,"chromatic_density":0.625,"complexity":0.559,"dissonance":0.128},{"voice":1,"pitch":65,"start":433.3329,"duration":1.6667,"velocity":90,"measure":163,"beat":3.0,"subject_pos":-1,"motif":"","motif_pos":-1,"best_pos":5,"similarity":0.607,"stretto":false,"stretto_voices":0,"combination":[],"aug_dim":"","rhythm_ratio":1.0,"mirror":false,"chromatic_density":0.625,"complexity":0.559,"dissonance":0.128},{"voice":2,"pitch":56,"start":433.3329,"duration":1.6667,"velocity":90,"measure":163,"beat":3.0,"subject_pos":-1,"motif":"","motif_pos":-1,"best_pos":2,"similarity":0.371,"stretto":false,"stretto_voices":0,"combination":[],"aug_dim":"","rhythm_ratio":1.0,"mirror":false,"chromatic_density":0.625,"complexity":0.559,"dissonance":0.128},{"voice":3,"pitch":49,"start":433.3329,"duration":0.6667,"velocity":90,"measure":163,"beat":3.0,"subject_pos":-1,"motif":"","motif_pos":-1,"best_pos":5,"similarity":0.593,"stretto":false,"stretto_voices":0,"combination":[],"aug_dim":"","rhythm_ratio":1.0,"mirror":false,"chromatic_density":0.625,"complexity":0.559,"dissonance":0.128},{"voice":0,"pitch":68,"start":433.6662,"duration":0.3333,"velocity":90,"measure":163,"beat":3.5,"subject_pos":-1,"motif":"","motif_pos":-1,"best_pos":5,"similarity":0.436,"stretto":false,"stretto_voices":0,"combination":[],"aug_dim":"","rhythm_ratio":1.0,"mirror":false,"chromatic_density":0.625,"complexity":0.559,"dissonance":0.128},{"voice":0,"pitch":70,"start":433.9996,"duration":0.3333,"velocity":90,"measure":163,"beat":4.0,"subject_pos":-1,"motif":"","motif_pos":-1,"best_pos":6,"similarity":0.464,"stretto":false,"stretto_voices":0,"combination":[],"aug_dim":"","rhythm_ratio":1.0,"mirror":false,"chromatic_density":0.625,"complexity":0.559,"dissonance":0.128},{"voice":3,"pitch":50,"start":433.9996,"duration":0.6667,"velocity":90,"measure":163,"beat":4.0,"subject_pos":-1,"motif":"","motif_pos":-1,"best_pos":6,"similarity":0.579,"stretto":false,"stretto_voices":0,"combination":[],"aug_dim":"","rhythm_ratio":1.0,"mirror":false,"chromatic_density":0.625,"complexity":0.559,"dissonance":0.128},{"voice":0,"pitch":70,"start":434.3329,"duration":0.3333,"velocity":90,"measure":163,"beat":4.5,"subject_pos":-1,"motif":"","motif_pos":-1,"best_pos":4,"similarity":0.411,"stretto":false,"stretto_voices":0,"combination":[],"aug_dim":"","rhythm_ratio":1.0,"mirror":false,"chromatic_density":0.625,"complexity":0.559,"dissonance":0.128},{"voice":0,"pitch":70,"start":434.6662,"duration":1.3333,"velocity":90,"measure":164,"beat":1.0,"subject_pos":-1,"motif":"","motif_pos":-1,"best_pos":5,"similarity":0.321,"stretto":false,"stretto_voices":0,"combination":[],"aug_dim":"","rhythm_ratio":1.0,"mirror":false,"chromatic_density":0.091,"complexity":0.65,"dissonance":0.151},{"voice":3,"pitch":51,"start":434.6662,"duration":0.6667,"velocity":90,"measure":164,"beat":1.0,"subject_pos":-1,"motif":"","motif_pos":-1,"best_pos":7,"similarity":0.429,"stretto":false,"stretto_voices":0,"combination":[],"aug_dim":"","rhythm_ratio":1.0,"mirror":false,"chromatic_density":0.091,"complexity":0.65,"dissonance":0.151},{"voice":1,"pitch":62,"start":434.9996,"duration":0.3333,"velocity":90,"measure":164,"beat":1.5,"subject_pos":-1,"motif":"","motif_pos":-1,"best_pos":6,"similarity":0.5,"stretto":false,"stretto_voices":0,"combination":[],"aug_dim":"","rhythm_ratio":1.0,"mirror":false,"chromatic_density":0.091,"complexity":0.65,"dissonance":0.151},{"voice":2,"pitch":53,"start":434.9996,"duration":0.3333,"velocity":90,"measure":164,"beat":1.5,"subject_pos":-1,"motif":"","motif_pos":-1,"best_pos":5,"similarity":0.393,"stretto":false,"stretto_voices":0,"combination":[],"aug_dim":"","rhythm_ratio":1.0,"mirror":false,"chromatic_density":0.091,"complexity":0.65,"dissonance":0.151},{"voice":1,"pitch":63,"start":435.3329,"duration":0.3333,"velocity":90,"measure":164,"beat":2.0,"subject_pos":-1,"motif":"","motif_pos":-1,"best_pos":5,"similarity":0.4,"stretto":false,"stretto_voices":0,"combination":[],"aug_dim":"","rhythm_ratio":1.0,"mirror":false,"chromatic_density":0.091,"complexity":0.65,"dissonance":0.151},{"voice":2,"pitch":55,"start":435.3329,"duration":0.6667,"velocity":90,"measure":164,"beat":2.0,"subject_pos":0,"motif":"subject","motif_pos":0,"best_pos":0,"similarity":1.0,"stretto":false,"stretto_voices":0,"combination":[],"aug_dim":"","rhythm_ratio":1.0,"mirror":false,"chromatic_density":0.091,"complexity":0.65,"dissonance":0.151},{"voice":3,"pitch":58,"start":435.3329,"duration":0.6667,"velocity":90,"measure":164,"beat":2.0,"subject_pos":-1,"motif":"","motif_pos":-1,"best_pos":1,"similarity":0.375,"stretto":false,"stretto_voices":0,"combination":[],"aug_dim":"","rhythm_ratio":1.0,"mirror":false,"chromatic_density":0.091,"complexity":0.65,"dissonance":0.151},{"voice":1,"pitch":70,"start":435.6662,"duration":0.3333,"velocity":90,"measure":164,"beat":2.5,"subject_pos":-1,"motif":"","motif_pos":-1,"best_pos":1,"similarity":0.507,"stretto":false,"stretto_voices":0,"combination":[],"aug_dim":"","rhythm_ratio":1.0,"mirror":false,"chromatic_density":0.091,"complexity":0.65,"dissonance":0.151},{"voice":1,"pitch":70,"start":435.9996,"duration":0.3333,"velocity":90,"measure":164,"beat":3.0,"subject_pos":-1,"motif":"","motif_pos":-1,"best_pos":2,"similarity":0.55,"stretto":false,"stretto_voices":0,"combination":[],"aug_dim":"","rhythm_ratio":1.0,"mirror":false,"chromatic_density":0.091,"complexity":0.65,"dissonance":0.151},{"voice":2,"pitch":62,"start":435.9996,"duration":0.6667,"velocity":90,"measure":164,"beat":3.0,"subject_pos":1,"motif":"subject","motif_pos":1,"best_pos":1,"similarity":1.0,"stretto":false,"stretto_voices":0,"combination":[],"aug_dim":"","rhythm_ratio":1.0,"mirror":false,"chromatic_density":0.091,"complexity":0.65,"dissonance":0.151},{"voice":3,"pitch":52,"start":435.9996,"duration":0.6667,"velocity":90,"measure":164,"beat":3.0,"subject_pos":-1,"motif":"","motif_pos":-1,"best_pos":5,"similarity":0.436,"stretto":false,"stretto_voices":0,"combination":[],"aug_dim":"","rhythm_ratio":1.0,"mirror":false,"chromatic_density":0.091,"complexity":0.65,"dissonance":0.151},{"voice":1,"pitch":67,"start":436.3329,"duration":0.3333,"velocity":90,"measure":164,"beat":3.5,"subject_pos":-1,"motif":"","motif_pos":-1,"best_pos":3,"similarity":0.5,"stretto":false,"stretto_voices":0,"combination":[],"aug_dim":"","rhythm_ratio":1.0,"mirror":false,"chromatic_density":0.091,"complexity":0.65,"dissonance":0.151},{"voice":0,"pitch":74,"start":436.6662,"duration":1.0,"velocity":90,"measure":164,"beat":4.0,"subject_pos":-1,"motif":"","motif_pos":-1,"best_pos":5,"similarity":0.286,"stretto":false,"stretto_voices":0,"combination":[],"aug_dim":"","rhythm_ratio":1.0,"mirror":false,"chromatic_density":0.091,"complexity":0.65,"dissonance":0.151},{"voice":1,"pitch":69,"start":436.6662,"duration":0.3333,"velocity":90,"measure":164,"beat":4.0,"subject_pos":-1,"motif":"","motif_pos":-1,"best_pos":6,"similarity":0.479,"stretto":false,"stretto_voices":0,"combination":[],"aug_dim":"","rhythm_ratio":1.0,"mirror":false,"chromatic_density":0.091,"complexity":0.65,"dissonance":0.151},{"voice":2,"pitch":60,"start":436.6662,"duration":0.6667,"velocity":90,"measure":164,"beat":4.0,"subject_pos":2,"motif":"subject","motif_pos":2,"best_pos":2,"similarity":1.0,"stretto":false,"stretto_voices":0,"combination":[],"aug_dim":"","rhythm_ratio":1.0,"mirror":false,"chromatic_density":0.091,"complexity":0.65,"dissonance":0.151},{"voice":3,"pitch":54,"start":436.6662,"duration":0.6667,"velocity":90,"measure":164,"beat":4.0,"subject_pos":-1,"motif":"","motif_pos":-1,"best_pos":6,"similarity":0.571,"stretto":false,"stretto_voices":0,"combination":[],"aug_dim":"","rhythm_ratio":1.0,"mirror":false,"chromatic_density":0.091,"complexity":0.65,"dissonance":0.151},{"voice":1,"pitch":69,"start":436.9996,"duration":0.3333,"velocity":90,"measure":164,"beat":4.5,"subject_pos":-1,"motif":"","motif_pos":-1,"best_pos":1,"similarity":0.357,"stretto":false,"stretto_voices":0,"combination":[],"aug_dim":"","rhythm_ratio":1.0,"mirror":false,"chromatic_density":0.091,"complexity":0.65,"dissonance":0.151},{"voice":1,"pitch":67,"start":437.3329,"duration":0.6667,"velocity":90,"measure":165,"beat":1.0,"subject_pos":-1,"motif":"","motif_pos":-1,"best_pos":2,"similarity":0.446,"stretto":false,"stretto_voices":0,"combination":[],"aug_dim":"","rhythm_ratio":1.0,"mirror":false,"chromatic_density":0.444,"complexity":0.601,"dissonance":0.23},{"voice":0,"pitch":77,"start":437.6662,"duration":0.3333,"velocity":90,"measure":165,"beat":1.5,"subject_pos":-1,"motif":"","motif_pos":-1,"best_pos":3,"similarity":0.393,"stretto":false,"stretto_voices":0,"combination":[],"aug_dim":"","rhythm_ratio":1.0,"mirror":false,"chromatic_density":0.444,"complexity":0.601,"dissonance":0.23},{"voice":0,"pitch":76,"start":437.9996,"duration":0.3333,"velocity":90,"measure":165,"beat":2.0,"subject_pos":-1,"motif":"","motif_pos":-1,"best_pos":4,"similarity":0.507,"stretto":false,"stretto_voices":0,"combination":[],"aug_dim":"","rhythm_ratio":1.0,"mirror":false,"chromatic_density":0.444,"complexity":0.601,"dissonance":0.23},{"voice":1,"pitch":72,"start":437.9996,"duration":1.0,"velocity":90,"measure":165,"beat":2.0,"subject_pos":-1,"motif":"","motif_pos":-1,"best_pos":3,"similarity":0.482,"stretto":false,"stretto_voices":0,"combination":[],"aug_dim":"","rhythm_ratio":1.0,"mirror":false,"chromatic_density":0.444,"complexity":0.601,"dissonance":0.23},{"voice":2,"pitch":58,"start":437.9996,"duration":0.6667,"velocity":90,"measure":165,"beat":2.0,"subject_pos":3,"motif":"subject","motif_pos":3,"best_pos":3,"similarity":1.0,"stretto":false,"stretto_voices":0,"combination":[],"aug_dim":"","rhythm_ratio":1.0,"mirror":false,"chromatic_density":0.444,"complexity":0.601,"dissonance":0.23},{"voice":3,"pitch":55,"start":437.9996,"duration":0.6667,"velocity":90,"measure":165,"beat":2.0,"subject_pos":-1,"motif":"","motif_pos":-1,"best_pos":5,"similarity":0.664,"stretto":false,"stretto_voices":0,"combination":[],"aug_dim":"","rhythm_ratio":1.0,"mirror":false,"chromatic_density":0.444,"complexity":0.601,"dissonance":0.23},{"voice":0,"pitch":76,"start":438.3329,"duration":0.3333,"velocity":90,"measure":165,"beat":2.5,"subject_pos":-1,"motif":"","motif_pos":-1,"best_pos":4,"similarity":0.536,"stretto":false,"stretto_voices":0,"combination":[],"aug_dim":"","rhythm_ratio":1.0,"mirror":false,"chromatic_density":0.444,"complexity":0.601,"dissonance":0.23},{"voice":0,"pitch":77,"start":438.6662,"duration":1.6667,"velocity":90,"measure":165,"beat":3.0,"subject_pos":-1,"motif":"","motif_pos":-1,"best_pos":5,"similarity":0.518,"stretto":false,"stretto_voices":0,"combination":[],"aug_dim":"","rhythm_ratio":1.0,"mirror":false,"chromatic_density":0.444,"complexity":0.601,"dissonance":0.23},{"voice":2,"pitch":57,"start":438.6662,"duration":0.6667,"velocity":90,"measure":165,"beat":3.0,"subject_pos":4,"motif":"subject","motif_pos":4,"best_pos":4,"similarity":1.0,"stretto":false,"stretto_voices":0,"combination":[],"aug_dim":"","rhythm_ratio":1.0,"mirror":false,"chromatic_density":0.444,"complexity":0.601,"dissonance":0.23},{"voice":3,"pitch":57,"start":438.6662,"duration":0.6667,"velocity":90,"measure":165,"beat":3.0,"subject_pos":-1,"motif":"","motif_pos":-1,"best_pos":5,"similarity":0.607,"stretto":false,"stretto_voices":0,"combination":[],"aug_dim":"","rhythm_ratio":1.0,"mirror":false,"chromatic_density":0.444,"complexity":0.601,"dissonance":0.23},{"voice":1,"pitch":71,"start":438.9996,"duration":0.3333,"velocity":90,"measure":165,"beat":3.5,"subject_pos":-1,"motif":"","motif_pos":-1,"best_pos":4,"similarity":0.471,"stretto":false,"stretto_voices":0,"combination":[],"aug_dim":"","rhythm_ratio":1.0,"mirror":false,"chromatic_density":0.444,"complexity":0.601,"dissonance":0.23},{"voice":1,"pitch":74,"start":439.3329,"duration":0.3333,"velocity":90,"measure":165,"beat":4.0,"subject_pos":-1,"motif":"","motif_pos":-1,"best_pos":6,"similarity":0.321,"stretto":false,"stretto_voices":0,"combination":[],"aug_dim":"","rhythm_ratio":1.0,"mirror":false,"chromatic_density":0.444,"complexity":0.601,"dissonance":0.23},{"voice":2,"pitch":55,"start":439.3329,"duration":0.6667,"velocity":90,"measure":165,"beat":4.0,"subject_pos":5,"motif":"subject","motif_pos":5,"best_pos":5,"similarity":1.0,"stretto":false,"stretto_voices":0,"combination":[],"aug_dim":"","rhythm_ratio":1.0,"mirror":false,"chromatic_density":0.444,"complexity":0.601,"dissonance":0.23},{"voice":3,"pitch":59,"start":439.3329,"duration":0.6667,"velocity":90,"measure":165,"beat":4.0,"subject_pos":-1,"motif":"","motif_pos":-1,"best_pos":6,"similarity":0.661,"stretto":false,"stretto_voices":0,"combination":[],"aug_dim":"","rhythm_ratio":1.0,"mirror":false,"chromatic_density":0.444,"complexity":0.601,"dissonance":0.23},{"voice":1,"pitch":74,"start":439.6662,"duration":0.3333,"velocity":90,"measure":165,"beat":4.5,"subject_pos":-1,"motif":"","motif_pos":-1,"best_pos":1,"similarity":0.393,"stretto":false,"stretto_voices":0,"combination":[],"aug_dim":"","rhythm_ratio":1.0,"mirror":false,"chromatic_density":0.444,"complexity":0.601,"dissonance":0.23},{"voice":1,"pitch":72,"start":439.9996,"duration":0.6667,"velocity":90,"measure":166,"beat":1.0,"subject_pos":-1,"motif":"","motif_pos":-1,"best_pos":2,"similarity":0.571,"stretto":false,"stretto_voices":0,"combination":[],"aug_dim":"","rhythm_ratio":1.0,"mirror":false,"chromatic_density":0.571,"complexity":0.577,"dissonance":0.197},{"voice":0,"pitch":74,"start":440.3329,"duration":0.3333,"velocity":90,"measure":166,"beat":1.5,"subject_pos":-1,"motif":"","motif_pos":-1,"best_pos":6,"similarity":0.464,"stretto":false,"stretto_voices":0,"combination":[],"aug_dim":"","rhythm_ratio":1.0,"mirror":false,"chromatic_density":0.571,"complexity":0.577,"dissonance":0.197},{"voice":0,"pitch":75,"start":440.6662,"duration":0.3333,"velocity":90,"measure":166,"beat":2.0,"subject_pos":-1,"motif":"","motif_pos":-1,"best_pos":5,"similarity":0.471,"stretto":false,"stretto_voices":0,"combination":[],"aug_dim":"","rhythm_ratio":1.0,"mirror":false,"chromatic_density":0.571,"complexity":0.577,"dissonance":0.197},{"voice":2,"pitch":54,"start":440.6662,"duration":0.6667,"velocity":90,"measure":166,"beat":2.0,"subject_pos":6,"motif":"subject","motif_pos":6,"best_pos":6,"similarity":1.0,"stretto":false,"stretto_voices":0,"combination":[],"aug_dim":"","rhythm_ratio":1.0,"mirror":false,"chromatic_density":0.571,"complexity":0.577,"dissonance":0.197},{"voice":3,"pitch":60,"start":440.6662,"duration":0.6667,"velocity":90,"measure":166,"beat":2.0,"subject_pos":-1,"motif":"","motif_pos":-1,"best_pos":7,"similarity":0.464,"stretto":false,"stretto_voices":0,"combination":[],"aug_dim":"","rhythm_ratio":1.0,"mirror":false,"chromatic_density":0.571,"complexity":0.577,"dissonance":0.197},{"voice":0,"pitch":75,"start":440.9996,"duration":0.3333,"velocity":90,"measure":166,"beat":2.5,"subject_pos":-1,"motif":"","motif_pos":-1,"best_pos":5,"similarity":0.393,"stretto":false,"stretto_voices":0,"combination":[],"aug_dim":"","rhythm_ratio":1.0,"mirror":false,"chromatic_density":0.571,"complexity":0.577,"dissonance":0.197},{"voice":0,"pitch":75,"start":441.3329,"duration":1.0,"velocity":90,"measure":166,"beat":3.0,"subject_pos":-1,"motif":"","motif_pos":-1,"best_pos":4,"similarity":0.329,"stretto":false,"stretto_voices":0,"combination":[],"aug_dim":"","rhythm_ratio":1.0,"mirror":false,"chromatic_density":0.571,"complexity":0.577,"dissonance":0.197},{"voice":2,"pitch":55,"start":441.3329,"duration":0.6667,"velocity":90,"measure":166,"beat":3.0,"subject_pos":7,"motif":"subject","motif_pos":7,"best_pos":7,"similarity":1.0,"stretto":false,"stretto_voices":0,"combination":[],"aug_dim":"","rhythm_ratio":1.0,"mirror":false,"chromatic_density":0.571,"complexity":0.577,"dissonance":0.197},{"voice":3,"pitch":58,"start":441.3329,"duration":0.6667,"velocity":90,"measure":166,"beat":3.0,"subject_pos":-1,"motif":"","motif_pos":-1,"best_pos":3,"similarity":0.471,"stretto":false,"stretto_voices":0,"combination":[],"aug_dim":"","rhythm_ratio":1.0,"mirror":false,"chromatic_density":0.571,"complexity":0.577,"dissonance":0.197},{"voice":1,"pitch":67,"start":441.6662,"duration":0.3333,"velocity":90,"measure":166,"beat":3.5,"subject_pos":-1,"motif":"","motif_pos":-1,"best_pos":3,"similarity":0.643,"stretto":false,"stretto_voices":0,"combination":[],"aug_dim":"","rhythm_ratio":1.0,"mirror":false,"chromatic_density":0.571,"complexity":0.577,"dissonance":0.197},{"voice":1,"pitch":66,"start":441.9996,"duration":1.3333,"velocity":90,"measure":166,"beat":4.0,"subject_pos":-1,"motif":"","motif_pos":-1,"best_pos":4,"similarity":0.696,"stretto":false,"stretto_voices":0,"combination":[],"aug_dim":"","rhythm_ratio":1.0,"mirror":false,"chromatic_density":0.571,"complexity":0.577,"dissonance":0.197},{"voice":2,"pitch":57,"start":441.9996,"duration":0.6667,"velocity":90,"measure":166,"beat":4.0,"subject_pos":8,"motif":"subject","motif_pos":8,"best_pos":0,"similarity":1.0,"stretto":false,"stretto_voices":0,"combination":[],"aug_dim":"","rhythm_ratio":1.0,"mirror":false,"chromatic_density":0.571,"complexity":0.577,"dissonance":0.197},{"voice":3,"pitch":57,"start":441.9996,"duration":0.6667,"velocity":90,"measure":166,"beat":4.0,"subject_pos":-1,"motif":"","motif_pos":-1,"best_pos":2,"similarity":0.5,"stretto":false,"stretto_voices":0,"combination":[],"aug_dim":"","rhythm_ratio":1.0,"mirror":false,"chromatic_density":0.571,"complexity":0.577,"dissonance":0.197},{"voice":0,"pitch":75,"start":442.3329,"duration":0.3333,"velocity":90,"measure":166,"beat":4.5,"subject_pos":-1,"motif":"","motif_pos":-1,"best_pos":3,"similarity":0.371,"stretto":false,"stretto_voices":0,"combination":[],"aug_dim":"","rhythm_ratio":1.0,"mirror":false,"chromatic_density":0.571,"complexity":0.577,"dissonance":0.197},{"voice":0,"pitch":74,"start":442.6662,"duration":0.3333,"velocity":90,"measure":167,"beat":1.0,"subject_pos":-1,"motif":"","motif_pos":-1,"best_pos":1,"similarity":0.429,"stretto":false,"stretto_voices":0,"combination":[],"aug_dim":"","rhythm_ratio":1.0,"mirror":false,"chromatic_density":0.357,"complexity":0.502,"dissonance":0.07},{"voice":0,"pitch":72,"start":442.9996,"duration":0.3333,"velocity":90,"measure":167,"beat":1.5,"subject_pos":-1,"motif":"","motif_pos":-1,"best_pos":2,"similarity":0.579,"stretto":false,"stretto_voices":0,"combination":[],"aug_dim":"","rhythm_ratio":1.0,"mirror":false,"chromatic_density":0.357,"complexity":0.502,"dissonance":0.07},{"voice":0,"pitch":70,"start":443.3329,"duration":0.3333,"velocity":90,"measure":167,"beat":2.0,"subject_pos":-1,"motif":"","motif_pos":-1,"best_pos":3,"similarity":0.593,"stretto":false,"stretto_voices":0,"combination":[],"aug_dim":"","rhythm_ratio":1.0,"mirror":false,"chromatic_density":0.357,"complexity":0.502,"dissonance":0.07},{"voice":1,"pitch":67,"start":443.3329,"duration":0.6667,"velocity":90,"measure":167,"beat":2.0,"subject_pos":-1,"motif":"","motif_pos":-1,"best_pos":5,"similarity":0.482,"stretto":false,"stretto_voices":0,"combination":[],"aug_dim":"","rhythm_ratio":1.0,"mirror":false,"chromatic_density":0.357,"complexity":0.502,"dissonance":0.07},{"voice":2,"pitch":58,"start":443.3329,"duration":0.3333,"velocity":90,"measure":167,"beat":2.0,"subject_pos":-1,"motif":"","motif_pos":-1,"best_pos":5,"similarity":0.607,"stretto":false,"stretto_voices":0,"combination":[],"aug_dim":"","rhythm_ratio":1.0,"mirror":false,"chromatic_density":0.357,"complexity":0.502,"dissonance":0.07},{"voice":3,"pitch":55,"start":443.3329,"duration":0.3333,"velocity":90,"measure":167,"beat":2.0,"subject_pos":-1,"motif":"","motif_pos":-1,"best_pos":3,"similarity":0.714,"stretto":false,"stretto_voices":0,"combination":[],"aug_dim":"","rhythm_ratio":1.0,"mirror":false,"chromatic_density":0.357,"complexity":0.502,"dissonance":0.07},{"voice":0,"pitch":69,"start":443.6662,"duration":0.3333,"velocity":90,"measure":167,"beat":2.5,"subject_pos":-1,"motif":"","motif_pos":-1,"best_pos":4,"similarity":0.489,"stretto":false,"stretto_voices":0,"combination":[],"aug_dim":"","rhythm_ratio":1.0,"mirror":false,"chromatic_density":0.357,"complexity":0.502,"dissonance":0.07},{"voice":2,"pitch":60,"start":443.6662,"duration":0.3333,"velocity":90,"measure":167,"beat":2.5,"subject_pos":-1,"motif":"","motif_pos":-1,"best_pos":6,"similarity":0.464,"stretto":false,"stretto_voices":0,"combination":[],"aug_dim":"","rhythm_ratio":1.0,"mirror":false,"chromatic_density":0.357,"complexity":0.502,"dissonance":0.07},{"voice":3,"pitch":54,"start":443.6662,"duration":0.3333,"velocity":90,"measure":167,"beat":2.5,"subject_pos":-1,"motif":"","motif_pos":-1,"best_pos":4,"similarity":0.857,"stretto":false,"stretto_voices":0,"combination":[],"aug_dim":"","rhythm_ratio":1.0,"mirror":false,"chromatic_density":0.357,"complexity":0.502,"dissonance":0.07},{"voice":0,"pitch":67,"start":443.9996,"duration":0.6667,"velocity":90,"measure":167,"beat":3.0,"subject_pos":-1,"motif":"","motif_pos":-1,"best_pos":2,"similarity":0.461,"stretto":false,"stretto_voices":0,"combination":[],"aug_dim":"","rhythm_ratio":1.0,"mirror":false,"chromatic_density":0.357,"complexity":0.502,"dissonance":0.07},{"voice":2,"pitch":58,"start":443.9996,"duration":0.6667,"velocity":90,"measure":167,"beat":3.0,"subject_pos":-1,"motif":"","motif_pos":-1,"best_pos":3,"similarity":0.464,"stretto":false,"stretto_voices":0,"combination":[],"aug_dim":"","rhythm_ratio":1.0,"mirror":false,"chromatic_density":0.357,"complexity":0.502,"dissonance":0.07},{"voice":3,"pitch":55,"start":443.9996,"duration":0.6667,"velocity":90,"measure":167,"beat":3.0,"subject_pos":-1,"motif":"","motif_pos":-1,"best_pos":5,"similarity":0.821,"stretto":false,"stretto_voices":0,"combination":[],"aug_dim":"","rhythm_ratio":1.0,"mirror":false,"chromatic_density":0.357,"complexity":0.502,"dissonance":0.07},{"voice":1,"pitch":63,"start":444.3329,"duration":0.3333,"velocity":90,"measure":167,"beat":3.5,"subject_pos":-1,"motif":"","motif_pos":-1,"best_pos":3,"similarity":0.529,"stretto":false,"stretto_voices":0,"combination":[],"aug_dim":"","rhythm_ratio":1.0,"mirror":false,"chromatic_density":0.357,"complexity":0.502,"dissonance":0.07},{"voice":0,"pitch":65,"start":444.6662,"duration":1.0,"velocity":90,"measure":167,"beat":4.0,"subject_pos":-1,"motif":"","motif_pos":-1,"best_pos":2,"similarity":0.464,"stretto":false,"stretto_voices":0,"combination":[],"aug_dim":"","rhythm_ratio":1.0,"mirror":false,"chromatic_density":0.357,"complexity":0.502,"dissonance":0.07},{"voice":1,"pitch":62,"start":444.6662,"duration":0.3333,"velocity":90,"measure":167,"beat":4.0,"subject_pos":-1,"motif":"","motif_pos":-1,"best_pos":4,"similarity":0.554,"stretto":false,"stretto_voices":0,"combination":[],"aug_dim":"","rhythm_ratio":1.0,"mirror":false,"chromatic_density":0.357,"complexity":0.502,"dissonance":0.07},{"voice":2,"pitch":57,"start":444.6662,"duration":0.6667,"velocity":90,"measure":167,"beat":4.0,"subject_pos":-1,"motif":"","motif_pos":-1,"best_pos":4,"similarity":0.411,"stretto":false,"stretto_voices":0,"combination":[],"aug_dim":"","rhythm_ratio":1.0,"mirror":false,"chromatic_density":0.357,"complexity":0.502,"dissonance":0.07},{"voice":3,"pitch":57,"start":444.6662,"duration":0.6667,"velocity":90,"measure":167,"beat":4.0,"subject_pos":-1,"motif":"","motif_pos":-1,"best_pos":6,"similarity":0.643,"stretto":false,"stretto_voices":0,"combination":[],"aug_dim":"","rhythm_ratio":1.0,"mirror":false,"chromatic_density":0.357,"complexity":0.502,"dissonance":0.07},{"voice":1,"pitch":60,"start":444.9996,"duration":0.3333,"velocity":90,"measure":167,"beat":4.5,"subject_pos":-1,"motif":"","motif_pos":-1,"best_pos":5,"similarity":0.529,"stretto":false,"stretto_voices":0,"combination":[],"aug_dim":"","rhythm_ratio":1.0,"mirror":false,"chromatic_density":0.357,"complexity":0.502,"dissonance":0.07},{"voice":1,"pitch":62,"start":445.3329,"duration":1.0,"velocity":90,"measure":168,"beat":1.0,"subject_pos":-1,"motif":"","motif_pos":-1,"best_pos":6,"similarity":0.443,"stretto":false,"stretto_voices":0,"combination":[],"aug_dim":"","rhythm_ratio":1.0,"mirror":false,"chromatic_density":0.556,"complexity":0.502,"dissonance":0.211},{"voice":2,"pitch":55,"start":445.3329,"duration":0.6667,"velocity":90,"measure":168,"beat":1.0,"subject_pos":-1,"motif":"","motif_pos":-1,"best_pos":4,"similarity":0.339,"stretto":false,"stretto_voices":0,"combination":[],"aug_dim":"","rhythm_ratio":1.0,"mirror":false,"chromatic_density":0.556,"complexity":0.502,"dissonance":0.211},{"voice":3,"pitch":59,"start":445.3329,"duration":0.6667,"velocity":90,"measure":168,"beat":1.0,"subject_pos":-1,"motif":"","motif_pos":-1,"best_pos":6,"similarity":0.375,"stretto":false,"stretto_voices":0,"combination":[],"aug_dim":"","rhythm_ratio":1.0,"mirror":false,"chromatic_density":0.556,"complexity":0.502,"dissonance":0.211},{"voice":0,"pitch":68,"start":445.6662,"duration":0.3333,"velocity":90,"measure":168,"beat":1.5,"subject_pos":-1,"motif":"","motif_pos":-1,"best_pos":3,"similarity":0.518,"stretto":false,"stretto_voices":0,"combination":[],"aug_dim":"","rhythm_ratio":1.0,"mirror":false,"chromatic_density":0.556,"complexity":0.502,"dissonance":0.211},{"voice":0,"pitch":67,"start":445.9996,"duration":0.3333,"velocity":90,"measure":168,"beat":2.0,"subject_pos":-1,"motif":"","motif_pos":-1,"best_pos":4,"similarity":0.554,"stretto":false,"stretto_voices":0,"combination":[],"aug_dim":"","rhythm_ratio":1.0,"mirror":false,"chromatic_density":0.556,"complexity":0.502,"dissonance":0.211},{"voice":3,"pitch":47,"start":445.9996,"duration":0.6667,"velocity":90,"measure":168,"beat":2.0,"subject_pos":-1,"motif":"","motif_pos":-1,"best_pos":4,"similarity":0.436,"stretto":false,"stretto_voices":0,"combination":[],"aug_dim":"","rhythm_ratio":1.0,"mirror":false,"chromatic_density":0.556,"complexity":0.502,"dissonance":0.211},{"voice":0,"pitch":67,"start":446.3329,"duration":0.3333,"velocity":90,"measure":168,"beat":2.5,"subject_pos":-1,"motif":"","motif_pos":-1,"best_pos":4,"similarity":0.411,"stretto":false,"stretto_voices":0,"combination":[],"aug_dim":"","rhythm_ratio":1.0,"mirror":false,"chromatic_density":0.556,"complexity":0.502,"dissonance":0.211},{"voice":1,"pitch":65,"start":446.3329,"duration":0.3333,"velocity":90,"measure":168,"beat":2.5,"subject_pos":-1,"motif":"","motif_pos":-1,"best_pos":3,"similarity":0.389,"stretto":false,"stretto_voices":0,"combination":[],"aug_dim":"","rhythm_ratio":1.0,"mirror":false,"chromatic_density":0.556,"complexity":0.502,"dissonance":0.211},{"voice":0,"pitch":67,"start":446.6662,"duration":0.3333,"velocity":90,"measure":168,"beat":3.0,"subject_pos":-1,"motif":"","motif_pos":-1,"best_pos":5,"similarity":0.411,"stretto":false,"stretto_voices":0,"combination":[],"aug_dim":"","rhythm_ratio":1.0,"mirror":false,"chromatic_density":0.556,"complexity":0.502,"dissonance":0.211},{"voice":1,"pitch":64,"start":446.6662,"duration":0.3333,"velocity":90,"measure":168,"beat":3.0,"subject_pos":-1,"motif":"","motif_pos":-1,"best_pos":4,"similarity":0.489,"stretto":false,"stretto_voices":0,"combination":[],"aug_dim":"","rhythm_ratio":1.0,"mirror":false,"chromatic_density":0.556,"complexity":0.502,"dissonance":0.211},{"voice":3,"pitch":48,"start":446.6662,"duration":0.6667,"velocity":90,"measure":168,"beat":3.0,"subject_pos":-1,"motif":"","motif_pos":-1,"best_pos":5,"similarity":0.571,"stretto":false,"stretto_voices":0,"combination":[],"aug_dim":"","rhythm_ratio":1.0,"mirror":false,"chromatic_density":0.556,"complexity":0.502,"dissonance":0.211},{"voice":0,"pitch":70,"start":446.9996,"duration":0.3333,"velocity":90,"measure":168,"beat":3.5,"subject_pos":-1,"motif":"","motif_pos":-1,"best_pos":3,"similarity":0.411,"stretto":false,"stretto_voices":0,"combination":[],"aug_dim":"","rhythm_ratio":1.0,"mirror":false,"chromatic_density":0.556,"complexity":0.502,"dissonance":0.211},{"voice":1,"pitch":64,"start":446.9996,"duration":0.3333,"velocity":90,"measure":168,"beat":3.5,"subject_pos":-1,"motif":"","motif_pos":-1,"best_pos":4,"similarity":0.411,"stretto":false,"stretto_voices":0,"combination":[],"aug_dim":"","rhythm_ratio":1.0,"mirror":false,"chromatic_density":0.556,"complexity":0.502,"dissonance":0.211},{"voice":0,"pitch":69,"start":447.3329,"duration":0.3333,"velocity":90,"measure":168,"beat":4.0,"subject_pos":-1,"motif":"","motif_pos":-1,"best_pos":4,"similarity":0.5,"stretto":false,"stretto_voices":0,"combination":[],"aug_dim":"","rhythm_ratio":1.0,"mirror":false,"chromatic_density":0.556,"complexity":0.502,"dissonance":0.211},{"voice":1,"pitch":64,"start":447.3329,"duration":0.3333,"velocity":90,"measure":168,"beat":4.0,"subject_pos":-1,"motif":"","motif_pos":-1,"best_pos":5,"similarity":0.411,"stretto":false,"stretto_voices":0,"combination":[],"aug_dim":"","rhythm_ratio":1.0,"mirror":false,"chromatic_density":0.556,"complexity":0.502,"dissonance":0.211},{"voice":3,"pitch":49,"start":447.3329,"duration":0.6667,"velocity":90,"measure":168,"beat":4.0,"subject_pos":-1,"motif":"","motif_pos":-1,"best_pos":6,"similarity":0.571,"stretto":false,"stretto_voices":0,"combination":[],"aug_dim":"","rhythm_ratio":1.0,"mirror":false,"chromatic_density":0.556,"complexity":0.502,"dissonance":0.211},{"voice":0,"pitch":69,"start":447.6662,"duration":0.3333,"velocity":90,"measure":168,"beat":4.5,"subject_pos":-1,"motif":"","motif_pos":-1,"best_pos":4,"similarity":0.411,"stretto":false,"stretto_voices":0,"combination":[],"aug_dim":"","rhythm_ratio":1.0,"mirror":false,"chromatic_density":0.556,"complexity":0.502,"dissonance":0.211},{"voice":1,"pitch":67,"start":447.6662,"duration":0.3333,"velocity":90,"measure":168,"beat":4.5,"subject_pos":-1,"motif":"","motif_pos":-1,"best_pos":3,"similarity":0.411,"stretto":false,"stretto_voices":0,"combination":[],"aug_dim":"","rhythm_ratio":1.0,"mirror":false,"chromatic_density":0.556,"complexity":0.502,"dissonance":0.211},{"voice":0,"pitch":69,"start":447.9996,"duration":0.3333,"velocity":90,"measure":169,"beat":1.0,"subject_pos":-1,"motif":"","motif_pos":-1,"best_pos":5,"similarity":0.411,"stretto":false,"stretto_voices":0,"combination":[],"aug_dim":"","rhythm_ratio":1.0,"mirror":false,"chromatic_density":0.333,"complexity":0.576,"dissonance":0.153},{"voice":1,"pitch":66,"start":447.9996,"duration":0.3333,"velocity":90,"measure":169,"beat":1.0,"subject_pos":-1,"motif":"","motif_pos":-1,"best_pos":4,"similarity":0.5,"stretto":false,"stretto_voices":0,"combination":[],"aug_dim":"","rhythm_ratio":1.0,"mirror":false,"chromatic_density":0.333,"complexity":0.576,"dissonance":0.153},{"voice":3,"pitch":50,"start":447.9996,"duration":1.3333,"velocity":90,"measure":169,"beat":1.0,"subject_pos":-1,"motif":"","motif_pos":-1,"best_pos":7,"similarity":0.429,"stretto":false,"stretto_voices":0,"combination":[],"aug_dim":"","rhythm_ratio":1.0,"mirror":false,"chromatic_density":0.333,"complexity":0.576,"dissonance":0.153},{"voice":0,"pitch":72,"start":448.3329,"duration":0.3333,"velocity":90,"measure":169,"beat":1.5,"subject_pos":-1,"motif":"","motif_pos":-1,"best_pos":3,"similarity":0.411,"stretto":false,"stretto_voices":0,"combination":[],"aug_dim":"","rhythm_ratio":1.0,"mirror":false,"chromatic_density":0.333,"complexity":0.576,"dissonance":0.153},{"voice":1,"pitch":66,"start":448.3329,"duration":0.3333,"velocity":90,"measure":169,"beat":1.5,"subject_pos":-1,"motif":"","motif_pos":-1,"best_pos":4,"similarity":0.4,"stretto":false,"stretto_voices":0,"combination":[],"aug_dim":"","rhythm_ratio":1.0,"mirror":false,"chromatic_density":0.333,"complexity":0.576,"dissonance":0.153},{"voice":0,"pitch":71,"start":448.6662,"duration":0.3333,"velocity":90,"measure":169,"beat":2.0,"subject_pos":-1,"motif":"","motif_pos":-1,"best_pos":4,"similarity":0.5,"stretto":false,"stretto_voices":0,"combination":[],"aug_dim":"","rhythm_ratio":1.0,"mirror":false,"chromatic_density":0.333,"complexity":0.576,"dissonance":0.153},{"voice":1,"pitch":66,"start":448.6662,"duration":0.3333,"velocity":90,"measure":169,"beat":2.0,"subject_pos":-1,"motif":"","motif_pos":-1,"best_pos":5,"similarity":0.389,"stretto":false,"stretto_voices":0,"combination":[],"aug_dim":"","rhythm_ratio":1.0,"mirror":false,"chromatic_density":0.333,"complexity":0.576,"dissonance":0.153},{"voice":2,"pitch":62,"start":448.6662,"duration":1.0,"velocity":90,"measure":169,"beat":2.0,"subject_pos":-1,"motif":"","motif_pos":-1,"best_pos":1,"similarity":0.357,"stretto":false,"stretto_voices":0,"combination":[],"aug_dim":"","rhythm_ratio":1.0,"mirror":false,"chromatic_density":0.333,"complexity":0.576,"dissonance":0.153},{"voice":0,"pitch":71,"start":448.9996,"duration":0.3333,"velocity":90,"measure":169,"beat":2.5,"subject_pos":-1,"motif":"","motif_pos":-1,"best_pos":4,"similarity":0.411,"stretto":false,"stretto_voices":0,"combination":[],"aug_dim":"","rhythm_ratio":1.0,"mirror":false,"chromatic_density":0.333,"complexity":0.576,"dissonance":0.153},{"voice":1,"pitch":69,"start":448.9996,"duration":0.3333,"velocity":90,"measure":169,"beat":2.5,"subject_pos":-1,"motif":"","motif_pos":-1,"best_pos":1,"similarity":0.429,"stretto":false,"stretto_voices":0,"combination":[],"aug_dim":"","rhythm_ratio":1.0,"mirror":false,"chromatic_density":0.333,"complexity":0.576,"dissonance":0.153},{"voice":0,"pitch":71,"start":449.3329,"duration":0.3333,"velocity":90,"measure":169,"beat":3.0,"subject_pos":-1,"motif":"","motif_pos":-1,"best_pos":5,"similarity":0.411,"stretto":false,"stretto_voices":0,"combination":[],"aug_dim":"","rhythm_ratio":1.0,"mirror":false,"chromatic_density":0.333,"complexity":0.576,"dissonance":0.153},{"voice":1,"pitch":67,"start":449.3329,"duration":1.6667,"velocity":90,"measure":169,"beat":3.0,"subject_pos":-1,"motif":"","motif_pos":-1,"best_pos":2,"similarity":0.5,"stretto":false,"stretto_voices":0,"combination":[],"aug_dim":"","rhythm_ratio":1.0,"mirror":false,"chromatic_density":0.333,"complexity":0.576,"dissonance":0.153},{"voice":0,"pitch":74,"start":449.6662,"duration":0.3333,"velocity":90,"measure":169,"beat":3.5,"subject_pos":-1,"motif":"","motif_pos":-1,"best_pos":3,"similarity":0.411,"stretto":false,"stretto_voices":0,"combination":[],"aug_dim":"","rhythm_ratio":1.0,"mirror":false,"chromatic_density":0.333,"complexity":0.576,"dissonance":0.153},{"voice":2,"pitch":65,"start":449.6662,"duration":0.3333,"velocity":90,"measure":169,"beat":3.5,"subject_pos":-1,"motif":"","motif_pos":-1,"best_pos":3,"similarity":0.375,"stretto":false,"stretto_voices":0,"combination":[],"aug_dim":"","rhythm_ratio":1.0,"mirror":false,"chromatic_density":0.333,"complexity":0.576,"dissonance":0.153},{"voice":0,"pitch":73,"start":449.9995,"duration":0.3333,"velocity":90,"measure":169,"beat":4.0,"subject_pos":-1,"motif":"","motif_pos":-1,"best_pos":4,"similarity":0.5,"stretto":false,"stretto_voices":0,"combination":[],"aug_dim":"","rhythm_ratio":1.0,"mirror":false,"chromatic_density":0.333,"complexity":0.576,"dissonance":0.153},{"voice":2,"pitch":64,"start":449.9995,"duration":0.3333,"velocity":90,"measure":169,"beat":4.0,"subject_pos":-1,"motif":"","motif_pos":-1,"best_pos":4,"similarity":0.482,"stretto":false,"stretto_voices":0,"combination":[],"aug_dim":"","rhythm_ratio":1.0,"mirror":false,"chromatic_density":0.333,"complexity":0.576,"dissonance":0.153},{"voice":3,"pitch":58,"start":449.9995,"duration":1.0,"velocity":90,"measure":169,"beat":4.0,"subject_pos":-1,"motif":"","motif_pos":-1,"best_pos":2,"similarity":0.35,"stretto":false,"stretto_voices":0,"combination":[],"aug_dim":"","rhythm_ratio":1.0,"mirror":false,"chromatic_density":0.333,"complexity":0.576,"dissonance":0.153},{"voice":0,"pitch":73,"start":450.3329,"duration":0.3333,"velocity":90,"measure":169,"beat":4.5,"subject_pos":-1,"motif":"","motif_pos":-1,"best_pos":4,"similarity":0.4,"stretto":false,"stretto_voices":0,"combination":[],"aug_dim":"","rhythm_ratio":1.0,"mirror":false,"chromatic_density":0.333,"complexity":0.576,"dissonance":0.153},{"voice":2,"pitch":64,"start":450.3329,"duration":0.3333,"velocity":90,"measure":169,"beat":4.5,"subject_pos":-1,"motif":"","motif_pos":-1,"best_pos":4,"similarity":0.4,"stretto":false,"stretto_voices":0,"combination":[],"aug_dim":"","rhythm_ratio":1.0,"mirror":false,"chromatic_density":0.333,"complexity":0.576,"dissonance":0.153},{"voice":0,"pitch":73,"start":450.6662,"duration":0.3333,"velocity":90,"measure":170,"beat":1.0,"subject_pos":-1,"motif":"","motif_pos":-1,"best_pos":5,"similarity":0.389,"stretto":false,"stretto_voices":0,"combination":[],"aug_dim":"","rhythm_ratio":1.0,"mirror":false,"chromatic_density":0.143,"complexity":0.591,"dissonance":0.056},{"voice":2,"pitch":64,"start":450.6662,"duration":0.3333,"velocity":90,"measure":170,"beat":1.0,"subject_pos":-1,"motif":"","motif_pos":-1,"best_pos":5,"similarity":0.389,"stretto":false,"stretto_voices":0,"combination":[],"aug_dim":"","rhythm_ratio":1.0,"mirror":false,"chromatic_density":0.143,"complexity":0.591,"dissonance":0.056},{"voice":0,"pitch":76,"start":450.9995,"duration":0.3333,"velocity":90,"measure":170,"beat":1.5,"subject_pos":-1,"motif":"","motif_pos":-1,"best_pos":1,"similarity":0.407,"stretto":false,"stretto_voices":0,"combination":[],"aug_dim":"","rhythm_ratio":1.0,"mirror":false,"chromatic_density":0.143,"complexity":0.591,"dissonance":0.056},{"voice":1,"pitch":70,"start":450.9995,"duration":0.3333,"velocity":90,"measure":170,"beat":1.5,"subject_pos":-1,"motif":"","motif_pos":-1,"best_pos":3,"similarity":0.536,"stretto":false,"stretto_voices":0,"combination":[],"aug_dim":"","rhythm_ratio":1.0,"mirror":false,"chromatic_density":0.143,"complexity":0.591,"dissonance":0.056},{"voice":2,"pitch":67,"start":450.9995,"duration":0.3333,"velocity":90,"measure":170,"beat":1.5,"subject_pos":-1,"motif":"","motif_pos":-1,"best_pos":1,"similarity":0.407,"stretto":false,"stretto_voices":0,"combination":[],"aug_dim":"","rhythm_ratio":1.0,"mirror":false,"chromatic_density":0.143,"complexity":0.591,"dissonance":0.056},{"voice":3,"pitch":55,"start":450.9995,"duration":0.3333,"velocity":90,"measure":170,"beat":1.5,"subject_pos":-1,"motif":"","motif_pos":-1,"best_pos":3,"similarity":0.411,"stretto":false,"stretto_voices":0,"combination":[],"aug_dim":"","rhythm_ratio":1.0,"mirror":false,"chromatic_density":0.143,"complexity":0.591,"dissonance":0.056},{"voice":0,"pitch":74,"start":451.3329,"duration":0.3333,"velocity":90,"measure":170,"beat":2.0,"subject_pos":-1,"motif":"","motif_pos":-1,"best_pos":2,"similarity":0.439,"stretto":false,"stretto_voices":0,"combination":[],"aug_dim":"","rhythm_ratio":1.0,"mirror":false,"chromatic_density":0.143,"complexity":0.591,"dissonance":0.056},{"voice":1,"pitch":69,"start":451.3329,"duration":0.3333,"velocity":90,"measure":170,"beat":2.0,"subject_pos":-1,"motif":"","motif_pos":-1,"best_pos":4,"similarity":0.543,"stretto":false,"stretto_voices":0,"combination":[],"aug_dim":"","rhythm_ratio":1.0,"mirror":false,"chromatic_density":0.143,"complexity":0.591,"dissonance":0.056},{"voice":2,"pitch":65,"start":451.3329,"duration":0.3333,"velocity":90,"measure":170,"beat":2.0,"subject_pos":-1,"motif":"","motif_pos":-1,"best_pos":2,"similarity":0.429,"stretto":false,"stretto_voices":0,"combination":[],"aug_dim":"","rhythm_ratio":1.0,"mirror":false,"chromatic_density":0.143,"complexity":0.591,"dissonance":0.056},{"voice":3,"pitch":57,"start":451.3329,"duration":0.3333,"velocity":90,"measure":170,"beat":2.0,"subject_pos":-1,"motif":"","motif_pos":-1,"best_pos":6,"similarity":0.443,"stretto":false,"stretto_voices":0,"combination":[],"aug_dim":"","rhythm_ratio":1.0,"mirror":false,"chromatic_density":0.143,"complexity":0.591,"dissonance":0.056},{"voice":0,"pitch":74,"start":451.6662,"duration":0.3333,"velocity":90,"measure":170,"beat":2.5,"subject_pos":-1,"motif":"","motif_pos":-1,"best_pos":4,"similarity":0.446,"stretto":false,"stretto_voices":0,"combination":[],"aug_dim":"","rhythm_ratio":1.0,"mirror":false,"chromatic_density":0.143,"complexity":0.591,"dissonance":0.056},{"voice":1,"pitch":69,"start":451.6662,"duration":0.3333,"velocity":90,"measure":170,"beat":2.5,"subject_pos":-1,"motif":"","motif_pos":-1,"best_pos":5,"similarity":0.371,"stretto":false,"stretto_voices":0,"combination":[],"aug_dim":"","rhythm_ratio":1.0,"mirror":false,"chromatic_density":0.143,"complexity":0.591,"dissonance":0.056},{"voice":2,"pitch":65,"start":451.6662,"duration":0.3333,"velocity":90,"measure":170,"beat":2.5,"subject_pos":-1,"motif":"","motif_pos":-1,"best_pos":4,"similarity":0.4,"stretto":false,"stretto_voices":0,"combination":[],"aug_dim":"","rhythm_ratio":1.0,"mirror":false,"chromatic_density":0.143,"complexity":0.591,"dissonance":0.056},{"voice":3,"pitch":57,"start":451.6662,"duration":0.3333,"velocity":90,"measure":170,"beat":2.5,"subject_pos":-1,"motif":"","motif_pos":-1,"best_pos":4,"similarity":0.357,"stretto":false,"stretto_voices":0,"combination":[],"aug_dim":"","rhythm_ratio":1.0,"mirror":false,"chromatic_density":0.143,"complexity":0.591,"dissonance":0.056},{"voice":0,"pitch":74,"start":451.9995,"duration":0.3333,"velocity":90,"measure":170,"beat":3.0,"subject_pos":-1,"motif":"","motif_pos":-1,"best_pos":5,"similarity":0.429,"stretto":false,"stretto_voices":0,"combination":[],"aug_dim":"","rhythm_ratio":1.0,"mirror":false,"chromatic_density":0.143,"complexity":0.591,"dissonance":0.056},{"voice":1,"pitch":69,"start":451.9995,"duration":0.3333,"velocity":90,"measure":170,"beat":3.0,"subject_pos":-1,"motif":"","motif_pos":-1,"best_pos":0,"similarity":0.436,"stretto":false,"stretto_voices":0,"combination":[],"aug_dim":"","rhythm_ratio":1.0,"mirror":false,"chromatic_density":0.143,"complexity":0.591,"dissonance":0.056},{"voice":2,"pitch":65,"start":451.9995,"duration":0.3333,"velocity":90,"measure":170,"beat":3.0,"subject_pos":-1,"motif":"","motif_pos":-1,"best_pos":5,"similarity":0.336,"stretto":false,"stretto_voices":0,"combination":[],"aug_dim":"","rhythm_ratio":1.0,"mirror":false,"chromatic_density":0.143,"complexity":0.591,"dissonance":0.056},{"voice":3,"pitch":57,"start":451.9995,"duration":0.3333,"velocity":90,"measure":170,"beat":3.0,"subject_pos":-1,"motif":"","motif_pos":-1,"best_pos":4,"similarity":0.343,"stretto":false,"stretto_voices":0,"combination":[],"aug_dim":"","rhythm_ratio":1.0,"mirror":false,"chromatic_density":0.143,"complexity":0.591,"dissonance":0.056},{"voice":0,"pitch":77,"start":452.3329,"duration":0.3333,"velocity":90,"measure":170,"beat":3.5,"subject_pos":-1,"motif":"","motif_pos":-1,"best_pos":3,"similarity":0.393,"stretto":false,"stretto_voices":0,"combination":[],"aug_dim":"","rhythm_ratio":1.0,"mirror":false,"chromatic_density":0.143,"complexity":0.591,"dissonance":0.056},{"voice":1,"pitch":74,"start":452.3329,"duration":0.3333,"velocity":90,"measure":170,"beat":3.5,"subject_pos":-1,"motif":"","motif_pos":-1,"best_pos":1,"similarity":0.586,"stretto":false,"stretto_voices":0,"combination":[],"aug_dim":"","rhythm_ratio":1.0,"mirror":false,"chromatic_density":0.143,"complexity":0.591,"dissonance":0.056},{"voice":2,"pitch":69,"start":452.3329,"duration":0.3333,"velocity":90,"measure":170,"beat":3.5,"subject_pos":-1,"motif":"","motif_pos":-1,"best_pos":1,"similarity":0.443,"stretto":false,"stretto_voices":0,"combination":[],"aug_dim":"","rhythm_ratio":1.0,"mirror":false,"chromatic_density":0.143,"complexity":0.591,"dissonance":0.056},{"voice":3,"pitch":53,"start":452.3329,"duration":0.3333,"velocity":90,"measure":170,"beat":3.5,"subject_pos":-1,"motif":"","motif_pos":-1,"best_pos":5,"similarity":0.436,"stretto":false,"stretto_voices":0,"combination":[],"aug_dim":"","rhythm_ratio":1.0,"mirror":false,"chromatic_density":0.143,"complexity":0.591,"dissonance":0.056},{"voice":0,"pitch":76,"start":452.6662,"duration":0.3333,"velocity":90,"measure":170,"beat":4.0,"subject_pos":-1,"motif":"","motif_pos":-1,"best_pos":4,"similarity":0.446,"stretto":false,"stretto_voices":0,"combination":[],"aug_dim":"","rhythm_ratio":1.0,"mirror":false,"chromatic_density":0.143,"complexity":0.591,"dissonance":0.056},{"voice":1,"pitch":70,"start":452.6662,"duration":0.3333,"velocity":90,"measure":170,"beat":4.0,"subject_pos":-1,"motif":"","motif_pos":-1,"best_pos":2,"similarity":0.464,"stretto":false,"stretto_voices":0,"combination":[],"aug_dim":"","rhythm_ratio":1.0,"mirror":false,"chromatic_density":0.143,"complexity":0.591,"dissonance":0.056},{"voice":2,"pitch":67,"start":452.6662,"duration":0.3333,"velocity":90,"measure":170,"beat":4.0,"subject_pos":-1,"motif":"","motif_pos":-1,"best_pos":2,"similarity":0.457,"stretto":false,"stretto_voices":0,"combination":[],"aug_dim":"","rhythm_ratio":1.0,"mirror":false,"chromatic_density":0.143,"complexity":0.591,"dissonance":0.056},{"voice":3,"pitch":55,"start":452.6662,"duration":0.3333,"velocity":90,"measure":170,"beat":4.0,"subject_pos":-1,"motif":"","motif_pos":-1,"best_pos":6,"similarity":0.464,"stretto":false,"stretto_voices":0,"combination":[],"aug_dim":"","rhythm_ratio":1.0,"mirror":false,"chromatic_density":0.143,"complexity":0.591,"dissonance":0.056},{"voice":0,"pitch":76,"start":452.9995,"duration":0.3333,"velocity":90,"measure":170,"beat":4.5,"subject_pos":-1,"motif":"","motif_pos":-1,"best_pos":5,"similarity":0.286,"stretto":false,"stretto_voices":0,"combination":[],"aug_dim":"","rhythm_ratio":1.0,"mirror":false,"chromatic_density":0.143,"complexity":0.591,"dissonance":0.056},{"voice":1,"pitch":70,"start":452.9995,"duration":0.3333,"velocity":90,"measure":170,"beat":4.5,"subject_pos":-1,"motif":"","motif_pos":-1,"best_pos":3,"similarity":0.257,"stretto":false,"stretto_voices":0,"combination":[],"aug_dim":"","rhythm_ratio":1.0,"mirror":false,"chromatic_density":0.143,"complexity":0.591,"dissonance":0.056},{"voice":2,"pitch":67,"start":452.9995,"duration":0.3333,"velocity":90,"measure":170,"beat":4.5,"subject_pos":-1,"motif":"","motif_pos":-1,"best_pos":5,"similarity":0.357,"stretto":false,"stretto_voices":0,"combination":[],"aug_dim":"","rhythm_ratio":1.0,"mirror":false,"chromatic_density":0.143,"complexity":0.591,"dissonance":0.056},{"voice":3,"pitch":55,"start":452.9995,"duration":0.3333,"velocity":90,"measure":170,"beat":4.5,"subject_pos":-1,"motif":"","motif_pos":-1,"best_pos":4,"similarity":0.429,"stretto":false,"stretto_voices":0,"combination":[],"aug_dim":"","rhythm_ratio":1.0,"mirror":false,"chromatic_density":0.143,"complexity":0.591,"dissonance":0.056},{"voice":0,"pitch":69,"start":453.3329,"duration":1.3333,"velocity":90,"measure":171,"beat":1.0,"subject_pos":-1,"motif":"","motif_pos":-1,"best_pos":6,"similarity":0.143,"stretto":false,"stretto_voices":0,"combination":[],"aug_dim":"","rhythm_ratio":1.0,"mirror":false,"chromatic_density":0.222,"complexity":0.647,"dissonance":0.105},{"voice":1,"pitch":64,"start":453.3329,"duration":0.6667,"velocity":90,"measure":171,"beat":1.0,"subject_pos":-1,"motif":"","motif_pos":-1,"best_pos":1,"similarity":0.357,"stretto":false,"stretto_voices":0,"combination":[],"aug_dim":"","rhythm_ratio":1.0,"mirror":false,"chromatic_density":0.222,"complexity":0.647,"dissonance":0.105},{"voice":2,"pitch":61,"start":453.3329,"duration":0.6667,"velocity":90,"measure":171,"beat":1.0,"subject_pos":-1,"motif":"enigmatic_cell","motif_pos":0,"best_pos":0,"similarity":1.0,"stretto":false,"stretto_voices":0,"combination":[],"aug_dim":"","rhythm_ratio":1.0,"mirror":false,"chromatic_density":0.222,"complexity":0.647,"dissonance":0.105},{"voice":3,"pitch":55,"start":453.3329,"duration":0.3333,"velocity":90,"measure":171,"beat":1.0,"subject_pos":-1,"motif":"","motif_pos":-1,"best_pos":2,"similarity":0.429,"stretto":false,"stretto_voices":0,"combination":[],"aug_dim":"","rhythm_ratio":1.0,"mirror":false,"chromatic_density":0.222,"complexity":0.647,"dissonance":0.105},{"voice":3,"pitch":52,"start":453.6662,"duration":0.3333,"velocity":90,"measure":171,"beat":1.5,"subject_pos":-1,"motif":"","motif_pos":-1,"best_pos":3,"similarity":0.482,"stretto":false,"stretto_voices":0,"combination":[],"aug_dim":"","rhythm_ratio":1.0,"mirror":false,"chromatic_density":0.222,"complexity":0.647,"dissonance":0.105},{"voice":1,"pitch":62,"start":453.9995,"duration":0.6667,"velocity":90,"measure":171,"beat":2.0,"subject_pos":-1,"motif":"","motif_pos":-1,"best_pos":2,"similarity":0.5,"stretto":false,"stretto_voices":0,"combination":[],"aug_dim":"","rhythm_ratio":1.0,"mirror":false,"chromatic_density":0.222,"complexity":0.647,"dissonance":0.105},{"voice":2,"pitch":62,"start":453.9995,"duration":0.6667,"velocity":90,"measure":171,"beat":2.0,"subject_pos":-1,"motif":"enigmatic_cell","motif_pos":1,"best_pos":1,"similarity":1.0,"stretto":false,"stretto_voices":0,"combination":[],"aug_dim":"","rhythm_ratio":1.0,"mirror":false,"chromatic_density":0.222,"complexity":0.647,"dissonance":0.105},{"voice":3,"pitch":53,"start":453.9995,"duration":0.3333,"velocity":90,"measure":171,"beat":2.0,"subject_pos":-1,"motif":"","motif_pos":-1,"best_pos":5,"similarity":0.471,"stretto":false,"stretto_voices":0,"combination":[],"aug_dim":"","rhythm_ratio":1.0,"mirror":false,"chromatic_density":0.222,"complexity":0.647,"dissonance":0.105},{"voice":3,"pitch":53,"start":454.3329,"duration":0.3333,"velocity":90,"measure":171,"beat":2.5,"subject_pos":-1,"motif":"","motif_pos":-1,"best_pos":6,"similarity":0.375,"stretto":false,"stretto_voices":0,"combination":[],"aug_dim":"","rhythm_ratio":1.0,"mirror":false,"chromatic_density":0.222,"complexity":0.647,"dissonance":0.105},{"voice":1,"pitch":70,"start":454.6662,"duration":2.0,"velocity":90,"measure":171,"beat":3.0,"subject_pos":-1,"motif":"","motif_pos":-1,"best_pos":3,"similarity":0.579,"stretto":false,"stretto_voices":0,"combination":[],"aug_dim":"","rhythm_ratio":1.0,"mirror":false,"chromatic_density":0.222,"complexity":0.647,"dissonance":0.105},{"voice":2,"pitch":55,"start":454.6662,"duration":2.0,"velocity":90,"measure":171,"beat":3.0,"subject_pos":-1,"motif":"enigmatic_cell","motif_pos":2,"best_pos":2,"similarity":1.0,"stretto":false,"stretto_voices":0,"combination":[],"aug_dim":"","rhythm_ratio":1.0,"mirror":false,"chromatic_density":0.222,"complexity":0.647,"dissonance":0.105},{"voice":3,"pitch":53,"start":454.6662,"duration":0.3333,"velocity":90,"measure":171,"beat":3.0,"subject_pos":-1,"motif":"","motif_pos":-1,"best_pos":2,"similarity":0.407,"stretto":false,"stretto_voices":0,"combination":[],"aug_dim":"","rhythm_ratio":1.0,"mirror":false,"chromatic_density":0.222,"complexity":0.647,"dissonance":0.105},{"voice":3,"pitch":50,"start":454.9995,"duration":0.3333,"velocity":90,"measure":171,"beat":3.5,"subject_pos":-1,"motif":"","motif_pos":-1,"best_pos":5,"similarity":0.464,"stretto":false,"stretto_voices":0,"combination":[],"aug_dim":"","rhythm_ratio":1.0,"mirror":false,"chromatic_density":0.222,"complexity":0.647,"dissonance":0.105},{"voice":0,"pitch":79,"start":455.3329,"duration":0.6667,"velocity":90,"measure":171,"beat":4.0,"subject_pos":-1,"motif":"","motif_pos":-1,"best_pos":1,"similarity":0.136,"stretto":false,"stretto_voices":0,"combination":[],"aug_dim":"","rhythm_ratio":1.0,"mirror":false,"chromatic_density":0.222,"complexity":0.647,"dissonance":0.105},{"voice":3,"pitch":52,"start":455.3329,"duration":0.3333,"velocity":90,"measure":171,"beat":4.0,"subject_pos":-1,"motif":"","motif_pos":-1,"best_pos":6,"similarity":0.479,"stretto":false,"stretto_voices":0,"combination":[],"aug_dim":"","rhythm_ratio":1.0,"mirror":false,"chromatic_density":0.222,"complexity":0.647,"dissonance":0.105},{"voice":3,"pitch":52,"start":455.6662,"duration":0.3333,"velocity":90,"measure":171,"beat":4.5,"subject_pos":-1,"motif":"","motif_pos":-1,"best_pos":4,"similarity":0.393,"stretto":false,"stretto_voices":0,"combination":[],"aug_dim":"","rhythm_ratio":1.0,"mirror":false,"chromatic_density":0.222,"complexity":0.647,"dissonance":0.105},{"voice":0,"pitch":73,"start":455.9995,"duration":0.3333,"velocity":90,"measure":172,"beat":1.0,"subject_pos":-1,"motif":"","motif_pos":-1,"best_pos":0,"similarity":0.221,"stretto":false,"stretto_voices":0,"combination":[],"aug_dim":"","rhythm_ratio":1.0,"mirror":false,"chromatic_density":0.3,"complexity":0.604,"dissonance":0.097},{"voice":3,"pitch":52,"start":455.9995,"duration":0.3333,"velocity":90,"measure":172,"beat":1.0,"subject_pos":-1,"motif":"","motif_pos":-1,"best_pos":2,"similarity":0.393,"stretto":false,"stretto_voices":0,"combination":[],"aug_dim":"","rhythm_ratio":1.0,"mirror":false,"chromatic_density":0.3,"complexity":0.604,"dissonance":0.097},{"voice":0,"pitch":76,"start":456.3329,"duration":0.3333,"velocity":90,"measure":172,"beat":1.5,"subject_pos":-1,"motif":"","motif_pos":-1,"best_pos":1,"similarity":0.407,"stretto":false,"stretto_voices":0,"combination":[],"aug_dim":"","rhythm_ratio":1.0,"mirror":false,"chromatic_density":0.3,"complexity":0.604,"dissonance":0.097},{"voice":3,"pitch":49,"start":456.3329,"duration":0.3333,"velocity":90,"measure":172,"beat":1.5,"subject_pos":-1,"motif":"enigmatic_cell","motif_pos":0,"best_pos":0,"similarity":1.0,"stretto":false,"stretto_voices":0,"combination":[],"aug_dim":"","rhythm_ratio":1.0,"mirror":false,"chromatic_density":0.3,"complexity":0.604,"dissonance":0.097},{"voice":0,"pitch":74,"start":456.6662,"duration":0.3333,"velocity":90,"measure":172,"beat":2.0,"subject_pos":-1,"motif":"","motif_pos":-1,"best_pos":2,"similarity":0.439,"stretto":false,"stretto_voices":0,"combination":[],"aug_dim":"","rhythm_ratio":1.0,"mirror":false,"chromatic_density":0.3,"complexity":0.604,"dissonance":0.097},{"voice":1,"pitch":69,"start":456.6662,"duration":0.6667,"velocity":90,"measure":172,"beat":2.0,"subject_pos":-1,"motif":"","motif_pos":-1,"best_pos":4,"similarity":0.664,"stretto":false,"stretto_voices":0,"combination":[],"aug_dim":"","rhythm_ratio":1.0,"mirror":false,"chromatic_density":0.3,"complexity":0.604,"dissonance":0.097},{"voice":2,"pitch":53,"start":456.6662,"duration":0.6667,"velocity":90,"measure":172,"beat":2.0,"subject_pos":-1,"motif":"","motif_pos":-1,"best_pos":2,"similarity":0.5,"stretto":false,"stretto_voices":0,"combination":[],"aug_dim":"","rhythm_ratio":1.0,"mirror":false,"chromatic_density":0.3,"complexity":0.604,"dissonance":0.097},{"voice":3,"pitch":50,"start":456.6662,"duration":0.6667,"velocity":90,"measure":172,"beat":2.0,"subject_pos":-1,"motif":"enigmatic_cell","motif_pos":1,"best_pos":1,"similarity":1.0,"stretto":false,"stretto_voices":0,"combination":[],"aug_dim":"","rhythm_ratio":1.0,"mirror":false,"chromatic_density":0.3,"complexity":0.604,"dissonance":0.097},{"voice":0,"pitch":74,"start":456.9995,"duration":0.3333,"velocity":90,"measure":172,"beat":2.5,"subject_pos":-1,"motif":"","motif_pos":-1,"best_pos":4,"similarity":0.446,"stretto":false,"stretto_voices":0,"combination":[],"aug_dim":"","rhythm_ratio":1.0,"mirror":false,"chromatic_density":0.3,"complexity":0.604,"dissonance":0.097},{"voice":0,"pitch":74,"start":457.3329,"duration":0.3333,"velocity":90,"measure":172,"beat":3.0,"subject_pos":-1,"motif":"","motif_pos":-1,"best_pos":5,"similarity":0.429,"stretto":false,"stretto_voices":0,"combination":[],"aug_dim":"","rhythm_ratio":1.0,"mirror":false,"chromatic_density":0.3,"complexity":0.604,"dissonance":0.097},{"voice":1,"pitch":70,"start":457.3329,"duration":1.3333,"velocity":90,"measure":172,"beat":3.0,"subject_pos":-1,"motif":"","motif_pos":-1,"best_pos":3,"similarity":0.507,"stretto":false,"stretto_voices":0,"combination":[],"aug_dim":"","rhythm_ratio":1.0,"mirror":false,"chromatic_density":0.3,"complexity":0.604,"dissonance":0.097},{"voice":3,"pitch":43,"start":457.3329,"duration":0.6667,"velocity":90,"measure":172,"beat":3.0,"subject_pos":-1,"motif":"enigmatic_cell","motif_pos":2,"best_pos":2,"similarity":1.0,"stretto":false,"stretto_voices":0,"combination":[],"aug_dim":"","rhythm_ratio":1.0,"mirror":false,"chromatic_density":0.3,"complexity":0.604,"dissonance":0.097},{"voice":0,"pitch":77,"start":457.6662,"duration":0.3333,"velocity":90,"measure":172,"beat":3.5,"subject_pos":-1,"motif":"","motif_pos":-1,"best_pos":3,"similarity":0.411,"stretto":false,"stretto_voices":0,"combination":[],"aug_dim":"","rhythm_ratio":1.0,"mirror":false,"chromatic_density":0.3,"complexity":0.604,"dissonance":0.097},{"voice":0,"pitch":76,"start":457.9995,"duration":0.3333,"velocity":90,"measure":172,"beat":4.0,"subject_pos":-1,"motif":"","motif_pos":-1,"best_pos":4,"similarity":0.5,"stretto":false,"stretto_voices":0,"combination":[],"aug_dim":"","rhythm_ratio":1.0,"mirror":false,"chromatic_density":0.3,"complexity":0.604,"dissonance":0.097},{"voice":2,"pitch":62,"start":457.9995,"duration":0.6667,"velocity":90,"measure":172,"beat":4.0,"subject_pos":-1,"motif":"","motif_pos":-1,"best_pos":3,"similarity":0.579,"stretto":false,"stretto_voices":0,"combination":[],"aug_dim":"","rhythm_ratio":1.0,"mirror":false,"chromatic_density":0.3,"complexity":0.604,"dissonance":0.097},{"voice":3,"pitch":55,"start":457.9995,"duration":1.3333,"velocity":90,"measure":172,"beat":4.0,"subject_pos":-1,"motif":"","motif_pos":-1,"best_pos":5,"similarity":0.307,"stretto":false,"stretto_voices":0,"combination":[],"aug_dim":"","rhythm_ratio":1.0,"mirror":false,"chromatic_density":0.3,"complexity":0.604,"dissonance":0.097},{"voice":0,"pitch":76,"start":458.3329,"duration":0.3333,"velocity":90,"measure":172,"beat":4.5,"subject_pos":-1,"motif":"","motif_pos":-1,"best_pos":4,"similarity":0.4,"stretto":false,"stretto_voices":0,"combination":[],"aug_dim":"","rhythm_ratio":1.0,"mirror":false,"chromatic_density":0.3,"complexity":0.604,"dissonance":0.097},{"voice":0,"pitch":76,"start":458.6662,"duration":0.3333,"velocity":90,"measure":173,"beat":1.0,"subject_pos":-1,"motif":"","motif_pos":-1,"best_pos":5,"similarity":0.389,"stretto":false,"stretto_voices":0,"combination":[],"aug_dim":"","rhythm_ratio":1.0,"mirror":false,"chromatic_density":0.182,"complexity":0.6,"dissonance":0.081},{"voice":1,"pitch":69,"start":458.6662,"duration":1.3333,"velocity":90,"measure":173,"beat":1.0,"subject_pos":-1,"motif":"","motif_pos":-1,"best_pos":4,"similarity":0.579,"stretto":false,"stretto_voices":0,"combination":[],"aug_dim":"","rhythm_ratio":1.0,"mirror":false,"chromatic_density":0.182,"complexity":0.6,"dissonance":0.081},{"voice":2,"pitch":61,"start":458.6662,"duration":1.3333,"velocity":90,"measure":173,"beat":1.0,"subject_pos":-1,"motif":"","motif_pos":-1,"best_pos":4,"similarity":0.729,"stretto":false,"stretto_voices":0,"combination":[],"aug_dim":"","rhythm_ratio":1.0,"mirror":false,"chromatic_density":0.182,"complexity":0.6,"dissonance":0.081},{"voice":0,"pitch":79,"start":458.9995,"duration":0.3333,"velocity":90,"measure":173,"beat":1.5,"subject_pos":-1,"motif":"","motif_pos":-1,"best_pos":1,"similarity":0.393,"stretto":false,"stretto_voices":0,"combination":[],"aug_dim":"","rhythm_ratio":1.0,"mirror":false,"chromatic_density":0.182,"complexity":0.6,"dissonance":0.081},{"voice":0,"pitch":77,"start":459.3329,"duration":0.3333,"velocity":90,"measure":173,"beat":2.0,"subject_pos":-1,"motif":"enigmatic_cell","motif_pos":0,"best_pos":0,"similarity":1.0,"stretto":false,"stretto_voices":0,"combination":[],"aug_dim":"","rhythm_ratio":1.0,"mirror":false,"chromatic_density":0.182,"complexity":0.6,"dissonance":0.081},{"voice":3,"pitch":57,"start":459.3329,"duration":0.3333,"velocity":90,"measure":173,"beat":2.0,"subject_pos":-1,"motif":"","motif_pos":-1,"best_pos":1,"similarity":0.386,"stretto":false,"stretto_voices":0,"combination":[],"aug_dim":"","rhythm_ratio":1.0,"mirror":false,"chromatic_density":0.182,"complexity":0.6,"dissonance":0.081},{"voice":0,"pitch":76,"start":459.6662,"duration":0.3333,"velocity":90,"measure":173,"beat":2.5,"subject_pos":-1,"motif":"enigmatic_cell","motif_pos":1,"best_pos":1,"similarity":1.0,"stretto":false,"stretto_voices":0,"combination":[],"aug_dim":"","rhythm_ratio":1.0,"mirror":false,"chromatic_density":0.182,"complexity":0.6,"dissonance":0.081},{"voice":3,"pitch":55,"start":459.6662,"duration":0.3333,"velocity":90,"measure":173,"beat":2.5,"subject_pos":-1,"motif":"","motif_pos":-1,"best_pos":2,"similarity":0.461,"stretto":false,"stretto_voices":0,"combination":[],"aug_dim":"","rhythm_ratio":1.0,"mirror":false,"chromatic_density":0.182,"complexity":0.6,"dissonance":0.081},{"voice":0,"pitch":81,"start":459.9995,"duration":0.3333,"velocity":90,"measure":173,"beat":3.0,"subject_pos":-1,"motif":"enigmatic_cell","motif_pos":2,"best_pos":2,"similarity":1.0,"stretto":false,"stretto_voices":0,"combination":[],"aug_dim":"","rhythm_ratio":1.0,"mirror":false,"chromatic_density":0.182,"complexity":0.6,"dissonance":0.081},{"voice":3,"pitch":53,"start":459.9995,"duration":0.6667,"velocity":90,"measure":173,"beat":3.0,"subject_pos":-1,"motif":"","motif_pos":-1,"best_pos":2,"similarity":0.436,"stretto":false,"stretto_voices":0,"combination":[],"aug_dim":"","rhythm_ratio":1.0,"mirror":false,"chromatic_density":0.182,"complexity":0.6,"dissonance":0.081},{"voice":0,"pitch":74,"start":460.3329,"duration":0.3333,"velocity":90,"measure":173,"beat":3.5,"subject_pos":-1,"motif":"","motif_pos":-1,"best_pos":0,"similarity":0.329,"stretto":false,"stretto_voices":0,"combination":[],"aug_dim":"","rhythm_ratio":1.0,"mirror":false,"chromatic_density":0.182,"complexity":0.6,"dissonance":0.081},{"voice":0,"pitch":79,"start":460.6662,"duration":0.3333,"velocity":90,"measure":173,"beat":4.0,"subject_pos":-1,"motif":"","motif_pos":-1,"best_pos":1,"similarity":0.389,"stretto":false,"stretto_voices":0,"combination":[],"aug_dim":"","rhythm_ratio":1.0,"mirror":false,"chromatic_density":0.182,"complexity":0.6,"dissonance":0.081},{"voice":1,"pitch":67,"start":460.6662,"duration":0.6667,"velocity":90,"measure":173,"beat":4.0,"subject_pos":-1,"motif":"","motif_pos":-1,"best_pos":5,"similarity":0.607,"stretto":false,"stretto_voices":0,"combination":[],"aug_dim":"","rhythm_ratio":1.0,"mirror":false,"chromatic_density":0.182,"complexity":0.6,"dissonance":0.081},{"voice":2,"pitch":62,"start":460.6662,"duration":0.6667,"velocity":90,"measure":173,"beat":4.0,"subject_pos":-1,"motif":"","motif_pos":-1,"best_pos":5,"similarity":0.6,"stretto":false,"stretto_voices":0,"combination":[],"aug_dim":"","rhythm_ratio":1.0,"mirror":false,"chromatic_density":0.182,"complexity":0.6,"dissonance":0.081},{"voice":3,"pitch":58,"start":460.6662,"duration":0.6667,"velocity":90,"measure":173,"beat":4.0,"subject_pos":-1,"motif":"","motif_pos":-1,"best_pos":3,"similarity":0.514,"stretto":false,"stretto_voices":0,"combination":[],"aug_dim":"","rhythm_ratio":1.0,"mirror":false,"chromatic_density":0.182,"complexity":0.6,"dissonance":0.081},{"voice":0,"pitch":79,"start":460.9995,"duration":0.3333,"velocity":90,"measure":173,"beat":4.5,"subject_pos":-1,"motif":"","motif_pos":-1,"best_pos":4,"similarity":0.364,"stretto":false,"stretto_voices":0,"combination":[],"aug_dim":"","rhythm_ratio":1.0,"mirror":false,"chromatic_density":0.182,"complexity":0.6,"dissonance":0.081},{"voice":0,"pitch":79,"start":461.3329,"duration":0.3333,"velocity":90,"measure":174,"beat":1.0,"subject_pos":-1,"motif":"","motif_pos":-1,"best_pos":2,"similarity":0.429,"stretto":false,"stretto_voices":0,"combination":[],"aug_dim":"","rhythm_ratio":1.0,"mirror":false,"chromatic_density":0.308,"complexity":0.57,"dissonance":0.117},{"voice":1,"pitch":69,"start":461.3329,"duration":1.0,"velocity":90,"measure":174,"beat":1.0,"subject_pos":-1,"motif":"","motif_pos":-1,"best_pos":6,"similarity":0.657,"stretto":false,"stretto_voices":0,"combination":[],"aug_dim":"","rhythm_ratio":1.0,"mirror":false,"chromatic_density":0.308,"complexity":0.57,"dissonance":0.117},{"voice":2,"pitch":61,"start":461.3329,"duration":0.6667,"velocity":90,"measure":174,"beat":1.0,"subject_pos":-1,"motif":"","motif_pos":-1,"best_pos":4,"similarity":0.693,"stretto":false,"stretto_voices":0,"combination":[],"aug_dim":"","rhythm_ratio":1.0,"mirror":false,"chromatic_density":0.308,"complexity":0.57,"dissonance":0.117},{"voice":3,"pitch":57,"start":461.3329,"duration":1.0,"velocity":90,"measure":174,"beat":1.0,"subject_pos":-1,"motif":"","motif_pos":-1,"best_pos":4,"similarity":0.529,"stretto":false,"stretto_voices":0,"combination":[],"aug_dim":"","rhythm_ratio":1.0,"mirror":false,"chromatic_density":0.308,"complexity":0.57,"dissonance":0.117},{"voice":0,"pitch":76,"start":461.6662,"duration":0.3333,"velocity":90,"measure":174,"beat":1.5,"subject_pos":-1,"motif":"","motif_pos":-1,"best_pos":3,"similarity":0.482,"stretto":false,"stretto_voices":0,"combination":[],"aug_dim":"","rhythm_ratio":1.0,"mirror":false,"chromatic_density":0.308,"complexity":0.57,"dissonance":0.117},{"voice":0,"pitch":77,"start":461.9995,"duration":0.3333,"velocity":90,"measure":174,"beat":2.0,"subject_pos":-1,"motif":"","motif_pos":-1,"best_pos":5,"similarity":0.471,"stretto":false,"stretto_voices":0,"combination":[],"aug_dim":"","rhythm_ratio":1.0,"mirror":false,"chromatic_density":0.308,"complexity":0.57,"dissonance":0.117},{"voice":2,"pitch":62,"start":461.9995,"duration":0.6667,"velocity":90,"measure":174,"beat":2.0,"subject_pos":-1,"motif":"","motif_pos":-1,"best_pos":5,"similarity":0.579,"stretto":false,"stretto_voices":0,"combination":[],"aug_dim":"","rhythm_ratio":1.0,"mirror":false,"chromatic_density":0.308,"complexity":0.57,"dissonance":0.117},{"voice":0,"pitch":77,"start":462.3329,"duration":0.3333,"velocity":90,"measure":174,"beat":2.5,"subject_pos":-1,"motif":"","motif_pos":-1,"best_pos":6,"similarity":0.375,"stretto":false,"stretto_voices":0,"combination":[],"aug_dim":"","rhythm_ratio":1.0,"mirror":false,"chromatic_density":0.308,"complexity":0.57,"dissonance":0.117},{"voice":1,"pitch":70,"start":462.3329,"duration":0.3333,"velocity":90,"measure":174,"beat":2.5,"subject_pos":-1,"motif":"","motif_pos":-1,"best_pos":7,"similarity":0.436,"stretto":false,"stretto_voices":0,"combination":[],"aug_dim":"","rhythm_ratio":1.0,"mirror":false,"chromatic_density":0.308,"complexity":0.57,"dissonance":0.117},{"voice":3,"pitch":55,"start":462.3329,"duration":0.3333,"velocity":90,"measure":174,"beat":2.5,"subject_pos":-1,"motif":"","motif_pos":-1,"best_pos":5,"similarity":0.457,"stretto":false,"stretto_voices":0,"combination":[],"aug_dim":"","rhythm_ratio":1.0,"mirror":false,"chromatic_density":0.308,"complexity":0.57,"dissonance":0.117},{"voice":0,"pitch":77,"start":462.6662,"duration":0.3333,"velocity":90,"measure":174,"beat":3.0,"subject_pos":-1,"motif":"","motif_pos":-1,"best_pos":2,"similarity":0.379,"stretto":false,"stretto_voices":0,"combination":[],"aug_dim":"","rhythm_ratio":1.0,"mirror":false,"chromatic_density":0.308,"complexity":0.57,"dissonance":0.117},{"voice":1,"pitch":69,"start":462.6662,"duration":0.3333,"velocity":90,"measure":174,"beat":3.0,"subject_pos":-1,"motif":"","motif_pos":-1,"best_pos":4,"similarity":0.486,"stretto":false,"stretto_voices":0,"combination":[],"aug_dim":"","rhythm_ratio":1.0,"mirror":false,"chromatic_density":0.308,"complexity":0.57,"dissonance":0.117},{"voice":3,"pitch":57,"start":462.6662,"duration":0.6667,"velocity":90,"measure":174,"beat":3.0,"subject_pos":-1,"motif":"","motif_pos":-1,"best_pos":5,"similarity":0.375,"stretto":false,"stretto_voices":0,"combination":[],"aug_dim":"","rhythm_ratio":1.0,"mirror":false,"chromatic_density":0.308,"complexity":0.57,"dissonance":0.117},{"voice":0,"pitch":74,"start":462.9995,"duration":0.3333,"velocity":90,"measure":174,"beat":3.5,"subject_pos":-1,"motif":"","motif_pos":-1,"best_pos":5,"similarity":0.407,"stretto":false,"stretto_voices":0,"combination":[],"aug_dim":"","rhythm_ratio":1.0,"mirror":false,"chromatic_density":0.308,"complexity":0.57,"dissonance":0.117},{"voice":1,"pitch":65,"start":462.9995,"duration":0.3333,"velocity":90,"measure":174,"beat":3.5,"subject_pos":-1,"motif":"","motif_pos":-1,"best_pos":5,"similarity":0.507,"stretto":false,"stretto_voices":0,"combination":[],"aug_dim":"","rhythm_ratio":1.0,"mirror":false,"chromatic_density":0.308,"complexity":0.57,"dissonance":0.117},{"voice":0,"pitch":76,"start":463.3329,"duration":0.6667,"velocity":90,"measure":174,"beat":4.0,"subject_pos":-1,"motif":"","motif_pos":-1,"best_pos":1,"similarity":0.368,"stretto":false,"stretto_voices":0,"combination":[],"aug_dim":"","rhythm_ratio":1.0,"mirror":false,"chromatic_density":0.308,"complexity":0.57,"dissonance":0.117},{"voice":1,"pitch":67,"start":463.3329,"duration":0.3333,"velocity":90,"measure":174,"beat":4.0,"subject_pos":-1,"motif":"","motif_pos":-1,"best_pos":6,"similarity":0.5,"stretto":false,"stretto_voices":0,"combination":[],"aug_dim":"","rhythm_ratio":1.0,"mirror":false,"chromatic_density":0.308,"complexity":0.57,"dissonance":0.117},{"voice":2,"pitch":49,"start":463.3329,"duration":0.6667,"velocity":90,"measure":174,"beat":4.0,"subject_pos":-1,"motif":"","motif_pos":-1,"best_pos":4,"similarity":0.55,"stretto":false,"stretto_voices":0,"combination":[],"aug_dim":"","rhythm_ratio":1.0,"mirror":false,"chromatic_density":0.308,"complexity":0.57,"dissonance":0.117},{"voice":3,"pitch":45,"start":463.3329,"duration":0.6667,"velocity":90,"measure":174,"beat":4.0,"subject_pos":-1,"motif":"enigmatic_cell","motif_pos":0,"best_pos":0,"similarity":1.0,"stretto":false,"stretto_voices":0,"combination":[],"aug_dim":"","rhythm_ratio":1.0,"mirror":false,"chromatic_density":0.308,"complexity":0.57,"dissonance":0.117},{"voice":1,"pitch":67,"start":463.6662,"duration":0.3333,"velocity":90,"measure":174,"beat":4.5,"subject_pos":-1,"motif":"","motif_pos":-1,"best_pos":1,"similarity":0.429,"stretto":false,"stretto_voices":0,"combination":[],"aug_dim":"","rhythm_ratio":1.0,"mirror":false,"chromatic_density":0.308,"complexity":0.57,"dissonance":0.117},{"voice":0,"pitch":74,"start":463.9995,"duration":0.6667,"velocity":90,"measure":175,"beat":1.0,"subject_pos":-1,"motif":"","motif_pos":-1,"best_pos":2,"similarity":0.425,"stretto":false,"stretto_voices":0,"combination":[],"aug_dim":"","rhythm_ratio":1.0,"mirror":false,"chromatic_density":0.333,"complexity":0.651,"dissonance":0.14},{"voice":1,"pitch":65,"start":463.9995,"duration":0.6667,"velocity":90,"measure":175,"beat":1.0,"subject_pos":-1,"motif":"","motif_pos":-1,"best_pos":2,"similarity":0.579,"stretto":false,"stretto_voices":0,"combination":[],"aug_dim":"","rhythm_ratio":1.0,"mirror":false,"chromatic_density":0.333,"complexity":0.651,"dissonance":0.14},{"voice":2,"pitch":50,"start":463.9995,"duration":0.3333,"velocity":90,"measure":175,"beat":1.0,"subject_pos":-1,"motif":"","motif_pos":-1,"best_pos":5,"similarity":0.721,"stretto":false,"stretto_voices":0,"combination":[],"aug_dim":"","rhythm_ratio":1.0,"mirror":false,"chromatic_density":0.333,"complexity":0.651,"dissonance":0.14},{"voice":3,"pitch":46,"start":463.9995,"duration":0.6667,"velocity":90,"measure":175,"beat":1.0,"subject_pos":-1,"motif":"enigmatic_cell","motif_pos":1,"best_pos":1,"similarity":1.0,"stretto":false,"stretto_voices":0,"combination":[],"aug_dim":"","rhythm_ratio":1.0,"mirror":false,"chromatic_density":0.333,"complexity":0.651,"dissonance":0.14},{"voice":2,"pitch":52,"start":464.3329,"duration":0.3333,"velocity":90,"measure":175,"beat":1.5,"subject_pos":-1,"motif":"","motif_pos":-1,"best_pos":6,"similarity":0.714,"stretto":false,"stretto_voices":0,"combination":[],"aug_dim":"","rhythm_ratio":1.0,"mirror":false,"chromatic_density":0.333,"complexity":0.651,"dissonance":0.14},{"voice":0,"pitch":69,"start":464.6662,"duration":0.6667,"velocity":90,"measure":175,"beat":2.0,"subject_pos":-1,"motif":"","motif_pos":-1,"best_pos":4,"similarity":0.425,"stretto":false,"stretto_voices":0,"combination":[],"aug_dim":"","rhythm_ratio":1.0,"mirror":false,"chromatic_density":0.333,"complexity":0.651,"dissonance":0.14},{"voice":1,"pitch":62,"start":464.6662,"duration":0.6667,"velocity":90,"measure":175,"beat":2.0,"subject_pos":0,"motif":"subject","motif_pos":0,"best_pos":0,"similarity":1.0,"stretto":false,"stretto_voices":0,"combination":[],"aug_dim":"","rhythm_ratio":1.0,"mirror":false,"chromatic_density":0.333,"complexity":0.651,"dissonance":0.14},{"voice":2,"pitch":53,"start":464.6662,"duration":0.3333,"velocity":90,"measure":175,"beat":2.0,"subject_pos":-1,"motif":"","motif_pos":-1,"best_pos":7,"similarity":0.5,"stretto":false,"stretto_voices":0,"combination":[],"aug_dim":"","rhythm_ratio":1.0,"mirror":false,"chromatic_density":0.333,"complexity":0.651,"dissonance":0.14},{"voice":3,"pitch":41,"start":464.6662,"duration":0.6667,"velocity":90,"measure":175,"beat":2.0,"subject_pos":-1,"motif":"enigmatic_cell","motif_pos":2,"best_pos":2,"similarity":1.0,"stretto":false,"stretto_voices":0,"combination":[],"aug_dim":"","rhythm_ratio":1.0,"mirror":false,"chromatic_density":0.333,"complexity":0.651,"dissonance":0.14},{"voice":2,"pitch":53,"start":464.9995,"duration":0.3333,"velocity":90,"measure":175,"beat":2.5,"subject_pos":-1,"motif":"","motif_pos":-1,"best_pos":6,"similarity":0.364,"stretto":false,"stretto_voices":0,"combination":[],"aug_dim":"","rhythm_ratio":1.0,"mirror":false,"chromatic_density":0.333,"complexity":0.651,"dissonance":0.14},{"voice":1,"pitch":69,"start":465.3329,"duration":0.6667,"velocity":90,"measure":175,"beat":3.0,"subject_pos":1,"motif":"subject","motif_pos":1,"best_pos":1,"similarity":1.0,"stretto":false,"stretto_voices":0,"combination":[],"aug_dim":"","rhythm_ratio":1.0,"mirror":false,"chromatic_density":0.333,"complexity":0.651,"dissonance":0.14},{"voice":2,"pitch":53,"start":465.3329,"duration":0.3333,"velocity":90,"measure":175,"beat":3.0,"subject_pos":-1,"motif":"","motif_pos":-1,"best_pos":3,"similarity":0.411,"stretto":false,"stretto_voices":0,"combination":[],"aug_dim":"","rhythm_ratio":1.0,"mirror":false,"chromatic_density":0.333,"complexity":0.651,"dissonance":0.14},{"voice":3,"pitch":48,"start":465.3329,"duration":0.6667,"velocity":90,"measure":175,"beat":3.0,"subject_pos":-1,"motif":"","motif_pos":-1,"best_pos":4,"similarity":0.4,"stretto":false,"stretto_voices":0,"combination":[],"aug_dim":"","rhythm_ratio":1.0,"mirror":false,"chromatic_density":0.333,"complexity":0.651,"dissonance":0.14},{"voice":2,"pitch":52,"start":465.6662,"duration":0.3333,"velocity":90,"measure":175,"beat":3.5,"subject_pos":-1,"motif":"","motif_pos":-1,"best_pos":4,"similarity":0.461,"stretto":false,"stretto_voices":0,"combination":[],"aug_dim":"","rhythm_ratio":1.0,"mirror":false,"chromatic_density":0.333,"complexity":0.651,"dissonance":0.14},{"voice":0,"pitch":70,"start":465.9995,"duration":1.0,"velocity":90,"measure":175,"beat":4.0,"subject_pos":-1,"motif":"","motif_pos":-1,"best_pos":3,"similarity":0.439,"stretto":false,"stretto_voices":0,"combination":[],"aug_dim":"","rhythm_ratio":1.0,"mirror":false,"chromatic_density":0.333,"complexity":0.651,"dissonance":0.14},{"voice":1,"pitch":67,"start":465.9995,"duration":0.6667,"velocity":90,"measure":175,"beat":4.0,"subject_pos":2,"motif":"subject","motif_pos":2,"best_pos":2,"similarity":1.0,"stretto":false,"stretto_voices":0,"combination":[],"aug_dim":"","rhythm_ratio":1.0,"mirror":false,"chromatic_density":0.333,"complexity":0.651,"dissonance":0.14},{"voice":2,"pitch":55,"start":465.9995,"duration":0.3333,"velocity":90,"measure":175,"beat":4.0,"subject_pos":-1,"motif":"","motif_pos":-1,"best_pos":5,"similarity":0.364,"stretto":false,"stretto_voices":0,"combination":[],"aug_dim":"","rhythm_ratio":1.0,"mirror":false,"chromatic_density":0.333,"complexity":0.651,"dissonance":0.14},{"voice":3,"pitch":49,"start":465.9995,"duration":0.6667,"velocity":90,"measure":175,"beat":4.0,"subject_pos":-1,"motif":"enigmatic_cell","motif_pos":0,"best_pos":0,"similarity":1.0,"stretto":false,"stretto_voices":0,"combination":[],"aug_dim":"","rhythm_ratio":1.0,"mirror":false,"chromatic_density":0.333,"complexity":0.651,"dissonance":0.14},{"voice":2,"pitch":55,"start":466.3329,"duration":0.3333,"velocity":90,"measure":175,"beat":4.5,"subject_pos":-1,"motif":"","motif_pos":-1,"best_pos":4,"similarity":0.343,"stretto":false,"stretto_voices":0,"combination":[],"aug_dim":"","rhythm_ratio":1.0,"mirror":false,"chromatic_density":0.333,"complexity":0.651,"dissonance":0.14},{"voice":2,"pitch":55,"start":466.6662,"duration":0.3333,"velocity":90,"measure":176,"beat":1.0,"subject_pos":-1,"motif":"","motif_pos":-1,"best_pos":1,"similarity":0.321,"stretto":false,"stretto_voices":0,"combination":[],"aug_dim":"","rhythm_ratio":1.0,"mirror":false,"chromatic_density":0.182,"complexity":0.688,"dissonance":0.065},{"voice":3,"pitch":50,"start":466.6662,"duration":0.6667,"velocity":90,"measure":176,"beat":1.0,"subject_pos":-1,"motif":"enigmatic_cell","motif_pos":1,"best_pos":1,"similarity":1.0,"stretto":false,"stretto_voices":0,"combination":[],"aug_dim":"","rhythm_ratio":1.0,"mirror":false,"chromatic_density":0.182,"complexity":0.688,"dissonance":0.065},{"voice":0,"pitch":69,"start":466.9995,"duration":0.3333,"velocity":90,"measure":176,"beat":1.5,"subject_pos":-1,"motif":"","motif_pos":-1,"best_pos":4,"similarity":0.479,"stretto":false,"stretto_voices":0,"combination":[],"aug_dim":"","rhythm_ratio":1.0,"mirror":false,"chromatic_density":0.182,"complexity":0.688,"dissonance":0.065},{"voice":2,"pitch":53,"start":466.9995,"duration":0.3333,"velocity":90,"measure":176,"beat":1.5,"subject_pos":-1,"motif":"","motif_pos":-1,"best_pos":2,"similarity":0.393,"stretto":false,"stretto_voices":0,"combination":[],"aug_dim":"","rhythm_ratio":1.0,"mirror":false,"chromatic_density":0.182,"complexity":0.688,"dissonance":0.065},{"voice":0,"pitch":72,"start":467.3329,"duration":0.3333,"velocity":90,"measure":176,"beat":2.0,"subject_pos":-1,"motif":"","motif_pos":-1,"best_pos":5,"similarity":0.364,"stretto":false,"stretto_voices":0,"combination":[],"aug_dim":"","rhythm_ratio":1.0,"mirror":false,"chromatic_density":0.182,"complexity":0.688,"dissonance":0.065},{"voice":1,"pitch":65,"start":467.3329,"duration":0.6667,"velocity":90,"measure":176,"beat":2.0,"subject_pos":3,"motif":"subject","motif_pos":3,"best_pos":3,"similarity":1.0,"stretto":false,"stretto_voices":0,"combination":[],"aug_dim":"","rhythm_ratio":1.0,"mirror":false,"chromatic_density":0.182,"complexity":0.688,"dissonance":0.065},{"voice":2,"pitch":57,"start":467.3329,"duration":0.3333,"velocity":90,"measure":176,"beat":2.0,"subject_pos":-1,"motif":"","motif_pos":-1,"best_pos":3,"similarity":0.364,"stretto":false,"stretto_voices":0,"combination":[],"aug_dim":"","rhythm_ratio":1.0,"mirror":false,"chromatic_density":0.182,"complexity":0.688,"dissonance":0.065},{"voice":3,"pitch":45,"start":467.3329,"duration":0.6667,"velocity":90,"measure":176,"beat":2.0,"subject_pos":-1,"motif":"enigmatic_cell","motif_pos":2,"best_pos":2,"similarity":1.0,"stretto":false,"stretto_voices":0,"combination":[],"aug_dim":"","rhythm_ratio":1.0,"mirror":false,"chromatic_density":0.182,"complexity":0.688,"dissonance":0.065},{"voice":0,"pitch":72,"start":467.6662,"duration":0.3333,"velocity":90,"measure":176,"beat":2.5,"subject_pos":-1,"motif":"","motif_pos":-1,"best_pos":4,"similarity":0.336,"stretto":false,"stretto_voices":0,"combination":[],"aug_dim":"","rhythm_ratio":1.0,"mirror":false,"chromatic_density":0.182,"complexity":0.688,"dissonance":0.065},{"voice":2,"pitch":57,"start":467.6662,"duration":0.3333,"velocity":90,"measure":176,"beat":2.5,"subject_pos":-1,"motif":"","motif_pos":-1,"best_pos":4,"similarity":0.389,"stretto":false,"stretto_voices":0,"combination":[],"aug_dim":"","rhythm_ratio":1.0,"mirror":false,"chromatic_density":0.182,"complexity":0.688,"dissonance":0.065},{"voice":0,"pitch":72,"start":467.9995,"duration":0.3333,"velocity":90,"measure":176,"beat":3.0,"subject_pos":-1,"motif":"","motif_pos":-1,"best_pos":3,"similarity":0.375,"stretto":false,"stretto_voices":0,"combination":[],"aug_dim":"","rhythm_ratio":1.0,"mirror":false,"chromatic_density":0.182,"complexity":0.688,"dissonance":0.065},{"voice":1,"pitch":64,"start":467.9995,"duration":0.6667,"velocity":90,"measure":176,"beat":3.0,"subject_pos":4,"motif":"subject","motif_pos":4,"best_pos":4,"similarity":1.0,"stretto":false,"stretto_voices":0,"combination":[],"aug_dim":"","rhythm_ratio":1.0,"mirror":false,"chromatic_density":0.182,"complexity":0.688,"dissonance":0.065},{"voice":2,"pitch":57,"start":467.9995,"duration":0.3333,"velocity":90,"measure":176,"beat":3.0,"subject_pos":-1,"motif":"","motif_pos":-1,"best_pos":1,"similarity":0.321,"stretto":false,"stretto_voices":0,"combination":[],"aug_dim":"","rhythm_ratio":1.0,"mirror":false,"chromatic_density":0.182,"complexity":0.688,"dissonance":0.065},{"voice":3,"pitch":52,"start":467.9995,"duration":1.3333,"velocity":90,"measure":176,"beat":3.0,"subject_pos":-1,"motif":"","motif_pos":-1,"best_pos":1,"similarity":0.386,"stretto":false,"stretto_voices":0,"combination":[],"aug_dim":"","rhythm_ratio":1.0,"mirror":false,"chromatic_density":0.182,"complexity":0.688,"dissonance":0.065},{"voice":0,"pitch":71,"start":468.3329,"duration":0.3333,"velocity":90,"measure":176,"beat":3.5,"subject_pos":-1,"motif":"","motif_pos":-1,"best_pos":4,"similarity":0.368,"stretto":false,"stretto_voices":0,"combination":[],"aug_dim":"","rhythm_ratio":1.0,"mirror":false,"chromatic_density":0.182,"complexity":0.688,"dissonance":0.065},{"voice":2,"pitch":55,"start":468.3329,"duration":0.3333,"velocity":90,"measure":176,"beat":3.5,"subject_pos":-1,"motif":"","motif_pos":-1,"best_pos":2,"similarity":0.393,"stretto":false,"stretto_voices":0,"combination":[],"aug_dim":"","rhythm_ratio":1.0,"mirror":false,"chromatic_density":0.182,"complexity":0.688,"dissonance":0.065},{"voice":0,"pitch":79,"start":468.6662,"duration":1.0,"velocity":90,"measure":176,"beat":4.0,"subject_pos":-1,"motif":"","motif_pos":-1,"best_pos":1,"similarity":0.446,"stretto":false,"stretto_voices":0,"combination":[],"aug_dim":"","rhythm_ratio":1.0,"mirror":false,"chromatic_density":0.182,"complexity":0.688,"dissonance":0.065},{"voice":1,"pitch":62,"start":468.6662,"duration":0.6667,"velocity":90,"measure":176,"beat":4.0,"subject_pos":5,"motif":"subject","motif_pos":5,"best_pos":5,"similarity":1.0,"stretto":false,"stretto_voices":0,"combination":[],"aug_dim":"","rhythm_ratio":1.0,"mirror":false,"chromatic_density":0.182,"complexity":0.688,"dissonance":0.065},{"voice":2,"pitch":58,"start":468.6662,"duration":0.3333,"velocity":90,"measure":176,"beat":4.0,"subject_pos":-1,"motif":"","motif_pos":-1,"best_pos":3,"similarity":0.364,"stretto":false,"stretto_voices":0,"combination":[],"aug_dim":"","rhythm_ratio":1.0,"mirror":false,"chromatic_density":0.182,"complexity":0.688,"dissonance":0.065},{"voice":2,"pitch":58,"start":468.9995,"duration":0.3333,"velocity":90,"measure":176,"beat":4.5,"subject_pos":-1,"motif":"","motif_pos":-1,"best_pos":4,"similarity":0.443,"stretto":false,"stretto_voices":0,"combination":[],"aug_dim":"","rhythm_ratio":1.0,"mirror":false,"chromatic_density":0.182,"complexity":0.688,"dissonance":0.065},{"voice":2,"pitch":58,"start":469.3329,"duration":0.3333,"velocity":90,"measure":177,"beat":1.0,"subject_pos":-1,"motif":"","motif_pos":-1,"best_pos":3,"similarity":0.511,"stretto":false,"stretto_voices":0,"combination":[],"aug_dim":"","rhythm_ratio":1.0,"mirror":false,"chromatic_density":0.333,"complexity":0.569,"dissonance":0.18},{"voice":3,"pitch":53,"start":469.3329,"duration":0.6667,"velocity":90,"measure":177,"beat":1.0,"subject_pos":-1,"motif":"","motif_pos":-1,"best_pos":3,"similarity":0.4,"stretto":false,"stretto_voices":0,"combination":[],"aug_dim":"","rhythm_ratio":1.0,"mirror":false,"chromatic_density":0.333,"complexity":0.569,"dissonance":0.18},{"voice":0,"pitch":77,"start":469.6662,"duration":0.3333,"velocity":90,"measure":177,"beat":1.5,"subject_pos":-1,"motif":"","motif_pos":-1,"best_pos":2,"similarity":0.464,"stretto":false,"stretto_voices":0,"combination":[],"aug_dim":"","rhythm_ratio":1.0,"mirror":false,"chromatic_density":0.333,"complexity":0.569,"dissonance":0.18},{"voice":2,"pitch":57,"start":469.6662,"duration":0.3333,"velocity":90,"measure":177,"beat":1.5,"subject_pos":-1,"motif":"","motif_pos":-1,"best_pos":4,"similarity":0.639,"stretto":false,"stretto_voices":0,"combination":[],"aug_dim":"","rhythm_ratio":1.0,"mirror":false,"chromatic_density":0.333,"complexity":0.569,"dissonance":0.18},{"voice":0,"pitch":79,"start":469.9995,"duration":0.3333,"velocity":90,"measure":177,"beat":2.0,"subject_pos":-1,"motif":"","motif_pos":-1,"best_pos":3,"similarity":0.4,"stretto":false,"stretto_voices":0,"combination":[],"aug_dim":"","rhythm_ratio":1.0,"mirror":false,"chromatic_density":0.333,"complexity":0.569,"dissonance":0.18},{"voice":1,"pitch":61,"start":469.9995,"duration":0.6667,"velocity":90,"measure":177,"beat":2.0,"subject_pos":6,"motif":"subject","motif_pos":6,"best_pos":6,"similarity":1.0,"stretto":false,"stretto_voices":0,"combination":[],"aug_dim":"","rhythm_ratio":1.0,"mirror":false,"chromatic_density":0.333,"complexity":0.569,"dissonance":0.18},{"voice":2,"pitch":58,"start":469.9995,"duration":0.3333,"velocity":90,"measure":177,"beat":2.0,"subject_pos":-1,"motif":"","motif_pos":-1,"best_pos":5,"similarity":0.507,"stretto":false,"stretto_voices":0,"combination":[],"aug_dim":"","rhythm_ratio":1.0,"mirror":false,"chromatic_density":0.333,"complexity":0.569,"dissonance":0.18},{"voice":3,"pitch":52,"start":469.9995,"duration":0.6667,"velocity":90,"measure":177,"beat":2.0,"subject_pos":-1,"motif":"","motif_pos":-1,"best_pos":4,"similarity":0.479,"stretto":false,"stretto_voices":0,"combination":[],"aug_dim":"","rhythm_ratio":1.0,"mirror":false,"chromatic_density":0.333,"complexity":0.569,"dissonance":0.18},{"voice":0,"pitch":76,"start":470.3329,"duration":0.3333,"velocity":90,"measure":177,"beat":2.5,"subject_pos":-1,"motif":"","motif_pos":-1,"best_pos":4,"similarity":0.461,"stretto":false,"stretto_voices":0,"combination":[],"aug_dim":"","rhythm_ratio":1.0,"mirror":false,"chromatic_density":0.333,"complexity":0.569,"dissonance":0.18},{"voice":2,"pitch":55,"start":470.3329,"duration":0.3333,"velocity":90,"measure":177,"beat":2.5,"subject_pos":-1,"motif":"","motif_pos":-1,"best_pos":5,"similarity":0.382,"stretto":false,"stretto_voices":0,"combination":[],"aug_dim":"","rhythm_ratio":1.0,"mirror":false,"chromatic_density":0.333,"complexity":0.569,"dissonance":0.18},{"voice":0,"pitch":77,"start":470.6662,"duration":0.6667,"velocity":90,"measure":177,"beat":3.0,"subject_pos":-1,"motif":"","motif_pos":-1,"best_pos":5,"similarity":0.386,"stretto":false,"stretto_voices":0,"combination":[],"aug_dim":"","rhythm_ratio":1.0,"mirror":false,"chromatic_density":0.333,"complexity":0.569,"dissonance":0.18},{"voice":1,"pitch":62,"start":470.6662,"duration":0.6667,"velocity":90,"measure":177,"beat":3.0,"subject_pos":7,"motif":"subject","motif_pos":7,"best_pos":7,"similarity":1.0,"stretto":false,"stretto_voices":0,"combination":[],"aug_dim":"","rhythm_ratio":1.0,"mirror":false,"chromatic_density":0.333,"complexity":0.569,"dissonance":0.18},{"voice":2,"pitch":57,"start":470.6662,"duration":1.0,"velocity":90,"measure":177,"beat":3.0,"subject_pos":-1,"motif":"","motif_pos":-1,"best_pos":1,"similarity":0.457,"stretto":false,"stretto_voices":0,"combination":[],"aug_dim":"","rhythm_ratio":1.0,"mirror":false,"chromatic_density":0.333,"complexity":0.569,"dissonance":0.18},{"voice":3,"pitch":50,"start":470.6662,"duration":0.3333,"velocity":90,"measure":177,"beat":3.0,"subject_pos":-1,"motif":"","motif_pos":-1,"best_pos":5,"similarity":0.479,"stretto":false,"stretto_voices":0,"combination":[],"aug_dim":"","rhythm_ratio":1.0,"mirror":false,"chromatic_density":0.333,"complexity":0.569,"dissonance":0.18},{"voice":3,"pitch":52,"start":470.9995,"duration":0.3333,"velocity":90,"measure":177,"beat":3.5,"subject_pos":-1,"motif":"","motif_pos":-1,"best_pos":6,"similarity":0.4,"stretto":false,"stretto_voices":0,"combination":[],"aug_dim":"","rhythm_ratio":1.0,"mirror":false,"chromatic_density":0.333,"complexity":0.569,"dissonance":0.18},{"voice":0,"pitch":82,"start":471.3329,"duration":0.6667,"velocity":90,"measure":177,"beat":4.0,"subject_pos":-1,"motif":"","motif_pos":-1,"best_pos":1,"similarity":0.446,"stretto":false,"stretto_voices":0,"combination":[],"aug_dim":"","rhythm_ratio":1.0,"mirror":false,"chromatic_density":0.333,"complexity":0.569,"dissonance":0.18},{"voice":1,"pitch":64,"start":471.3329,"duration":0.6667,"velocity":90,"measure":177,"beat":4.0,"subject_pos":8,"motif":"subject","motif_pos":8,"best_pos":0,"similarity":1.0,"stretto":false,"stretto_voices":0,"combination":[],"aug_dim":"","rhythm_ratio":1.0,"mirror":false,"chromatic_density":0.333,"complexity":0.569,"dissonance":0.18},{"voice":3,"pitch":50,"start":471.3329,"duration":0.6667,"velocity":90,"measure":177,"beat":4.0,"subject_pos":-1,"motif":"","motif_pos":-1,"best_pos":2,"similarity":0.354,"stretto":false,"stretto_voices":0,"combination":[],"aug_dim":"","rhythm_ratio":1.0,"mirror":false,"chromatic_density":0.333,"complexity":0.569,"dissonance":0.18},{"voice":2,"pitch":55,"start":471.6662,"duration":0.3333,"velocity":90,"measure":177,"beat":4.5,"subject_pos":-1,"motif":"","motif_pos":-1,"best_pos":2,"similarity":0.593,"stretto":false,"stretto_voices":0,"combination":[],"aug_dim":"","rhythm_ratio":1.0,"mirror":false,"chromatic_density":0.333,"complexity":0.569,"dissonance":0.18},{"voice":0,"pitch":81,"start":471.9995,"duration":0.3333,"velocity":90,"measure":178,"beat":1.0,"subject_pos":-1,"motif":"","motif_pos":-1,"best_pos":4,"similarity":0.4,"stretto":false,"stretto_voices":0,"combination":[],"aug_dim":"","rhythm_ratio":1.0,"mirror":false,"chromatic_density":0.462,"complexity":0.654,"dissonance":0.055},{"voice":2,"pitch":53,"start":471.9995,"duration":0.3333,"velocity":90,"measure":178,"beat":1.0,"subject_pos":-1,"motif":"","motif_pos":-1,"best_pos":3,"similarity":0.593,"stretto":false,"stretto_voices":0,"combination":[],"aug_dim":"","rhythm_ratio":1.0,"mirror":false,"chromatic_density":0.462,"complexity":0.654,"dissonance":0.055},{"voice":3,"pitch":57,"start":471.9995,"duration":0.6667,"velocity":90,"measure":178,"beat":1.0,"subject_pos":-1,"motif":"tail_inv","motif_pos":0,"best_pos":0,"similarity":1.0,"stretto":false,"stretto_voices":0,"combination":[],"aug_dim":"","rhythm_ratio":1.0,"mirror":false,"chromatic_density":0.462,"complexity":0.654,"dissonance":0.055},{"voice":0,"pitch":73,"start":472.3329,"duration":0.3333,"velocity":90,"measure":178,"beat":1.5,"subject_pos":-1,"motif":"","motif_pos":-1,"best_pos":4,"similarity":0.393,"stretto":false,"stretto_voices":0,"combination":[],"aug_dim":"","rhythm_ratio":1.0,"mirror":false,"chromatic_density":0.462,"complexity":0.654,"dissonance":0.055},{"voice":2,"pitch":52,"start":472.3329,"duration":0.3333,"velocity":90,"measure":178,"beat":1.5,"subject_pos":-1,"motif":"","motif_pos":-1,"best_pos":4,"similarity":0.464,"stretto":false,"stretto_voices":0,"combination":[],"aug_dim":"","rhythm_ratio":1.0,"mirror":false,"chromatic_density":0.462,"complexity":0.654,"dissonance":0.055},{"voice":0,"pitch":74,"start":472.6662,"duration":0.3333,"velocity":90,"measure":178,"beat":2.0,"subject_pos":-1,"motif":"","motif_pos":-1,"best_pos":5,"similarity":0.446,"stretto":false,"stretto_voices":0,"combination":[],"aug_dim":"","rhythm_ratio":1.0,"mirror":false,"chromatic_density":0.462,"complexity":0.654,"dissonance":0.055},{"voice":1,"pitch":65,"start":472.6662,"duration":0.3333,"velocity":90,"measure":178,"beat":2.0,"subject_pos":-1,"motif":"","motif_pos":-1,"best_pos":5,"similarity":0.607,"stretto":false,"stretto_voices":0,"combination":[],"aug_dim":"","rhythm_ratio":1.0,"mirror":false,"chromatic_density":0.462,"complexity":0.654,"dissonance":0.055},{"voice":2,"pitch":50,"start":472.6662,"duration":0.6667,"velocity":90,"measure":178,"beat":2.0,"subject_pos":-1,"motif":"","motif_pos":-1,"best_pos":0,"similarity":0.429,"stretto":false,"stretto_voices":0,"combination":[],"aug_dim":"","rhythm_ratio":1.0,"mirror":false,"chromatic_density":0.462,"complexity":0.654,"dissonance":0.055},{"voice":3,"pitch":58,"start":472.6662,"duration":0.6667,"velocity":90,"measure":178,"beat":2.0,"subject_pos":-1,"motif":"tail_inv","motif_pos":1,"best_pos":1,"similarity":1.0,"stretto":false,"stretto_voices":0,"combination":[],"aug_dim":"","rhythm_ratio":1.0,"mirror":false,"chromatic_density":0.462,"complexity":0.654,"dissonance":0.055},{"voice":0,"pitch":74,"start":472.9995,"duration":0.3333,"velocity":90,"measure":178,"beat":2.5,"subject_pos":-1,"motif":"","motif_pos":-1,"best_pos":4,"similarity":0.379,"stretto":false,"stretto_voices":0,"combination":[],"aug_dim":"","rhythm_ratio":1.0,"mirror":false,"chromatic_density":0.462,"complexity":0.654,"dissonance":0.055},{"voice":1,"pitch":67,"start":472.9995,"duration":0.3333,"velocity":90,"measure":178,"beat":2.5,"subject_pos":-1,"motif":"","motif_pos":-1,"best_pos":6,"similarity":0.464,"stretto":false,"stretto_voices":0,"combination":[],"aug_dim":"","rhythm_ratio":1.0,"mirror":false,"chromatic_density":0.462,"complexity":0.654,"dissonance":0.055},{"voice":0,"pitch":74,"start":473.3329,"duration":0.3333,"velocity":90,"measure":178,"beat":3.0,"subject_pos":-1,"motif":"","motif_pos":-1,"best_pos":2,"similarity":0.429,"stretto":false,"stretto_voices":0,"combination":[],"aug_dim":"","rhythm_ratio":1.0,"mirror":false,"chromatic_density":0.462,"complexity":0.654,"dissonance":0.055},{"voice":1,"pitch":65,"start":473.3329,"duration":0.6667,"velocity":90,"measure":178,"beat":3.0,"subject_pos":-1,"motif":"","motif_pos":-1,"best_pos":3,"similarity":0.471,"stretto":false,"stretto_voices":0,"combination":[],"aug_dim":"","rhythm_ratio":1.0,"mirror":false,"chromatic_density":0.462,"complexity":0.654,"dissonance":0.055},{"voice":2,"pitch":57,"start":473.3329,"duration":2.0,"velocity":90,"measure":178,"beat":3.0,"subject_pos":-1,"motif":"","motif_pos":-1,"best_pos":1,"similarity":0.589,"stretto":false,"stretto_voices":0,"combination":[],"aug_dim":"","rhythm_ratio":1.0,"mirror":false,"chromatic_density":0.462,"complexity":0.654,"dissonance":0.055},{"voice":3,"pitch":57,"start":473.3329,"duration":1.0,"velocity":90,"measure":178,"beat":3.0,"subject_pos":-1,"motif":"tail_inv","motif_pos":2,"best_pos":2,"similarity":1.0,"stretto":false,"stretto_voices":0,"combination":[],"aug_dim":"","rhythm_ratio":1.0,"mirror":false,"chromatic_density":0.462,"complexity":0.654,"dissonance":0.055},{"voice":0,"pitch":71,"start":473.6662,"duration":0.3333,"velocity":90,"measure":178,"beat":3.5,"subject_pos":-1,"motif":"","motif_pos":-1,"best_pos":3,"similarity":0.482,"stretto":false,"stretto_voices":0,"combination":[],"aug_dim":"","rhythm_ratio":1.0,"mirror":false,"chromatic_density":0.462,"complexity":0.654,"dissonance":0.055},{"voice":0,"pitch":72,"start":473.9995,"duration":0.3333,"velocity":90,"measure":178,"beat":4.0,"subject_pos":-1,"motif":"","motif_pos":-1,"best_pos":5,"similarity":0.471,"stretto":false,"stretto_voices":0,"combination":[],"aug_dim":"","rhythm_ratio":1.0,"mirror":false,"chromatic_density":0.462,"complexity":0.654,"dissonance":0.055},{"voice":1,"pitch":64,"start":473.9995,"duration":0.6667,"velocity":90,"measure":178,"beat":4.0,"subject_pos":-1,"motif":"","motif_pos":-1,"best_pos":2,"similarity":0.446,"stretto":false,"stretto_voices":0,"combination":[],"aug_dim":"","rhythm_ratio":1.0,"mirror":false,"chromatic_density":0.462,"complexity":0.654,"dissonance":0.055},{"voice":0,"pitch":72,"start":474.3329,"duration":0.3333,"velocity":90,"measure":178,"beat":4.5,"subject_pos":-1,"motif":"","motif_pos":-1,"best_pos":6,"similarity":0.375,"stretto":false,"stretto_voices":0,"combination":[],"aug_dim":"","rhythm_ratio":1.0,"mirror":false,"chromatic_density":0.462,"complexity":0.654,"dissonance":0.055},{"voice":3,"pitch":55,"start":474.3329,"duration":0.3333,"velocity":90,"measure":178,"beat":4.5,"subject_pos":-1,"motif":"tail_inv","motif_pos":3,"best_pos":3,"similarity":1.0,"stretto":false,"stretto_voices":0,"combination":[],"aug_dim":"","rhythm_ratio":1.0,"mirror":false,"chromatic_density":0.462,"complexity":0.654,"dissonance":0.055},{"voice":0,"pitch":72,"start":474.6662,"duration":0.3333,"velocity":90,"measure":179,"beat":1.0,"subject_pos":-1,"motif":"","motif_pos":-1,"best_pos":2,"similarity":0.389,"stretto":false,"stretto_voices":0,"combination":[],"aug_dim":"","rhythm_ratio":1.0,"mirror":false,"chromatic_density":0.385,"complexity":0.593,"dissonance":0.231},{"voice":1,"pitch":62,"start":474.6662,"duration":1.3333,"velocity":90,"measure":179,"beat":1.0,"subject_pos":-1,"motif":"","motif_pos":-1,"best_pos":3,"similarity":0.607,"stretto":false,"stretto_voices":0,"combination":[],"aug_dim":"","rhythm_ratio":1.0,"mirror":false,"chromatic_density":0.385,"complexity":0.593,"dissonance":0.231},{"voice":3,"pitch":54,"start":474.6662,"duration":0.6667,"velocity":90,"measure":179,"beat":1.0,"subject_pos":-1,"motif":"tail_inv","motif_pos":4,"best_pos":4,"similarity":1.0,"stretto":false,"stretto_voices":0,"combination":[],"aug_dim":"","rhythm_ratio":1.0,"mirror":false,"chromatic_density":0.385,"complexity":0.593,"dissonance":0.231},{"voice":0,"pitch":69,"start":474.9995,"duration":0.3333,"velocity":90,"measure":179,"beat":1.5,"subject_pos":-1,"motif":"","motif_pos":-1,"best_pos":5,"similarity":0.429,"stretto":false,"stretto_voices":0,"combination":[],"aug_dim":"","rhythm_ratio":1.0,"mirror":false,"chromatic_density":0.385,"complexity":0.593,"dissonance":0.231},{"voice":0,"pitch":71,"start":475.3329,"duration":0.3333,"velocity":90,"measure":179,"beat":2.0,"subject_pos":-1,"motif":"","motif_pos":-1,"best_pos":6,"similarity":0.407,"stretto":false,"stretto_voices":0,"combination":[],"aug_dim":"","rhythm_ratio":1.0,"mirror":false,"chromatic_density":0.385,"complexity":0.593,"dissonance":0.231},{"voice":2,"pitch":55,"start":475.3329,"duration":1.3333,"velocity":90,"measure":179,"beat":2.0,"subject_pos":-1,"motif":"","motif_pos":-1,"best_pos":5,"similarity":0.493,"stretto":false,"stretto_voices":0,"combination":[],"aug_dim":"","rhythm_ratio":1.0,"mirror":false,"chromatic_density":0.385,"complexity":0.593,"dissonance":0.231},{"voice":3,"pitch":53,"start":475.3329,"duration":0.6667,"velocity":90,"measure":179,"beat":2.0,"subject_pos":-1,"motif":"","motif_pos":-1,"best_pos":4,"similarity":0.496,"stretto":false,"stretto_voices":0,"combination":[],"aug_dim":"","rhythm_ratio":1.0,"mirror":false,"chromatic_density":0.385,"complexity":0.593,"dissonance":0.231},{"voice":0,"pitch":74,"start":475.6662,"duration":0.3333,"velocity":90,"measure":179,"beat":2.5,"subject_pos":-1,"motif":"","motif_pos":-1,"best_pos":6,"similarity":0.232,"stretto":false,"stretto_voices":0,"combination":[],"aug_dim":"","rhythm_ratio":1.0,"mirror":false,"chromatic_density":0.385,"complexity":0.593,"dissonance":0.231},{"voice":0,"pitch":67,"start":475.9995,"duration":0.3333,"velocity":90,"measure":179,"beat":3.0,"subject_pos":-1,"motif":"","motif_pos":-1,"best_pos":5,"similarity":0.229,"stretto":false,"stretto_voices":0,"combination":[],"aug_dim":"","rhythm_ratio":1.0,"mirror":false,"chromatic_density":0.385,"complexity":0.593,"dissonance":0.231},{"voice":1,"pitch":61,"start":475.9995,"duration":0.6667,"velocity":90,"measure":179,"beat":3.0,"subject_pos":-1,"motif":"","motif_pos":-1,"best_pos":4,"similarity":0.607,"stretto":false,"stretto_voices":0,"combination":[],"aug_dim":"","rhythm_ratio":1.0,"mirror":false,"chromatic_density":0.385,"complexity":0.593,"dissonance":0.231},{"voice":3,"pitch":52,"start":475.9995,"duration":0.6667,"velocity":90,"measure":179,"beat":3.0,"subject_pos":-1,"motif":"","motif_pos":-1,"best_pos":3,"similarity":0.5,"stretto":false,"stretto_voices":0,"combination":[],"aug_dim":"","rhythm_ratio":1.0,"mirror":false,"chromatic_density":0.385,"complexity":0.593,"dissonance":0.231},{"voice":0,"pitch":70,"start":476.3329,"duration":0.3333,"velocity":90,"measure":179,"beat":3.5,"subject_pos":-1,"motif":"","motif_pos":-1,"best_pos":5,"similarity":0.357,"stretto":false,"stretto_voices":0,"combination":[],"aug_dim":"","rhythm_ratio":1.0,"mirror":false,"chromatic_density":0.385,"complexity":0.593,"dissonance":0.231},{"voice":0,"pitch":72,"start":476.6662,"duration":0.3333,"velocity":90,"measure":179,"beat":4.0,"subject_pos":-1,"motif":"","motif_pos":-1,"best_pos":6,"similarity":0.321,"stretto":false,"stretto_voices":0,"combination":[],"aug_dim":"","rhythm_ratio":1.0,"mirror":false,"chromatic_density":0.385,"complexity":0.593,"dissonance":0.231},{"voice":1,"pitch":60,"start":476.6662,"duration":0.6667,"velocity":90,"measure":179,"beat":4.0,"subject_pos":-1,"motif":"","motif_pos":-1,"best_pos":4,"similarity":0.554,"stretto":false,"stretto_voices":0,"combination":[],"aug_dim":"","rhythm_ratio":1.0,"mirror":false,"chromatic_density":0.385,"complexity":0.593,"dissonance":0.231},{"voice":2,"pitch":57,"start":476.6662,"duration":0.6667,"velocity":90,"measure":179,"beat":4.0,"subject_pos":-1,"motif":"enigmatic_cell","motif_pos":0,"best_pos":0,"similarity":1.0,"stretto":false,"stretto_voices":0,"combination":[],"aug_dim":"","rhythm_ratio":1.0,"mirror":false,"chromatic_density":0.385,"complexity":0.593,"dissonance":0.231},{"voice":3,"pitch":51,"start":476.6662,"duration":1.0,"velocity":90,"measure":179,"beat":4.0,"subject_pos":-1,"motif":"","motif_pos":-1,"best_pos":4,"similarity":0.536,"stretto":false,"stretto_voices":0,"combination":[],"aug_dim":"","rhythm_ratio":1.0,"mirror":false,"chromatic_density":0.385,"complexity":0.593,"dissonance":0.231},{"voice":0,"pitch":66,"start":476.9995,"duration":0.3333,"velocity":90,"measure":179,"beat":4.5,"subject_pos":-1,"motif":"","motif_pos":-1,"best_pos":3,"similarity":0.346,"stretto":false,"stretto_voices":0,"combination":[],"aug_dim":"","rhythm_ratio":1.0,"mirror":false,"chromatic_density":0.385,"complexity":0.593,"dissonance":0.231},{"voice":0,"pitch":65,"start":477.3329,"duration":0.6667,"velocity":90,"measure":180,"beat":1.0,"subject_pos":-1,"motif":"","motif_pos":-1,"best_pos":4,"similarity":0.314,"stretto":false,"stretto_voices":0,"combination":[],"aug_dim":"","rhythm_ratio":1.0,"mirror":false,"chromatic_density":0.214,"complexity":0.665,"dissonance":0.071},{"voice":1,"pitch":62,"start":477.3329,"duration":0.3333,"velocity":90,"measure":180,"beat":1.0,"subject_pos":-1,"motif":"","motif_pos":-1,"best_pos":6,"similarity":0.393,"stretto":false,"stretto_voices":0,"combination":[],"aug_dim":"","rhythm_ratio":1.0,"mirror":false,"chromatic_density":0.214,"complexity":0.665,"dissonance":0.071},{"voice":2,"pitch":58,"start":477.3329,"duration":0.6667,"velocity":90,"measure":180,"beat":1.0,"subject_pos":-1,"motif":"enigmatic_cell","motif_pos":1,"best_pos":1,"similarity":1.0,"stretto":false,"stretto_voices":0,"combination":[],"aug_dim":"","rhythm_ratio":1.0,"mirror":false,"chromatic_density":0.214,"complexity":0.665,"dissonance":0.071},{"voice":1,"pitch":70,"start":477.6662,"duration":0.6667,"velocity":90,"measure":180,"beat":1.5,"subject_pos":-1,"motif":"","motif_pos":-1,"best_pos":3,"similarity":0.354,"stretto":false,"stretto_voices":0,"combination":[],"aug_dim":"","rhythm_ratio":1.0,"mirror":false,"chromatic_density":0.214,"complexity":0.665,"dissonance":0.071},{"voice":3,"pitch":50,"start":477.6662,"duration":0.3333,"velocity":90,"measure":180,"beat":1.5,"subject_pos":-1,"motif":"","motif_pos":-1,"best_pos":4,"similarity":0.5,"stretto":false,"stretto_voices":0,"combination":[],"aug_dim":"","rhythm_ratio":1.0,"mirror":false,"chromatic_density":0.214,"complexity":0.665,"dissonance":0.071},{"voice":0,"pitch":74,"start":477.9995,"duration":0.6667,"velocity":90,"measure":180,"beat":2.0,"subject_pos":0,"motif":"subject","motif_pos":0,"best_pos":0,"similarity":1.0,"stretto":false,"stretto_voices":0,"combination":[],"aug_dim":"","rhythm_ratio":1.0,"mirror":false,"chromatic_density":0.214,"complexity":0.665,"dissonance":0.071},{"voice":2,"pitch":53,"start":477.9995,"duration":0.6667,"velocity":90,"measure":180,"beat":2.0,"subject_pos":-1,"motif":"enigmatic_cell","motif_pos":2,"best_pos":2,"similarity":1.0,"stretto":false,"stretto_voices":0,"combination":[],"aug_dim":"","rhythm_ratio":1.0,"mirror":false,"chromatic_density":0.214,"complexity":0.665,"dissonance":0.071},{"voice":3,"pitch":53,"start":477.9995,"duration":0.3333,"velocity":90,"measure":180,"beat":2.0,"subject_pos":-1,"motif":"","motif_pos":-1,"best_pos":6,"similarity":0.393,"stretto":false,"stretto_voices":0,"combination":[],"aug_dim":"","rhythm_ratio":1.0,"mirror":false,"chromatic_density":0.214,"complexity":0.665,"dissonance":0.071},{"voice":1,"pitch":69,"start":478.3329,"duration":0.6667,"velocity":90,"measure":180,"beat":2.5,"subject_pos":-1,"motif":"","motif_pos":-1,"best_pos":4,"similarity":0.4,"stretto":false,"stretto_voices":0,"combination":[],"aug_dim":"","rhythm_ratio":1.0,"mirror":false,"chromatic_density":0.214,"complexity":0.665,"dissonance":0.071},{"voice":3,"pitch":53,"start":478.3329,"duration":0.3333,"velocity":90,"measure":180,"beat":2.5,"subject_pos":-1,"motif":"","motif_pos":-1,"best_pos":4,"similarity":0.354,"stretto":false,"stretto_voices":0,"combination":[],"aug_dim":"","rhythm_ratio":1.0,"mirror":false,"chromatic_density":0.214,"complexity":0.665,"dissonance":0.071},{"voice":0,"pitch":81,"start":478.6662,"duration":0.6667,"velocity":90,"measure":180,"beat":3.0,"subject_pos":1,"motif":"subject","motif_pos":1,"best_pos":1,"similarity":1.0,"stretto":false,"stretto_voices":0,"combination":[],"aug_dim":"","rhythm_ratio":1.0,"mirror":false,"chromatic_density":0.214,"complexity":0.665,"dissonance":0.071},{"voice":2,"pitch":60,"start":478.6662,"duration":0.6667,"velocity":90,"measure":180,"beat":3.0,"subject_pos":-1,"motif":"","motif_pos":-1,"best_pos":4,"similarity":0.4,"stretto":false,"stretto_voices":0,"combination":[],"aug_dim":"","rhythm_ratio":1.0,"mirror":false,"chromatic_density":0.214,"complexity":0.665,"dissonance":0.071},{"voice":3,"pitch":53,"start":478.6662,"duration":0.3333,"velocity":90,"measure":180,"beat":3.0,"subject_pos":-1,"motif":"","motif_pos":-1,"best_pos":3,"similarity":0.421,"stretto":false,"stretto_voices":0,"combination":[],"aug_dim":"","rhythm_ratio":1.0,"mirror":false,"chromatic_density":0.214,"complexity":0.665,"dissonance":0.071},{"voice":1,"pitch":72,"start":478.9995,"duration":0.3333,"velocity":90,"measure":180,"beat":3.5,"subject_pos":-1,"motif":"","motif_pos":-1,"best_pos":5,"similarity":0.286,"stretto":false,"stretto_voices":0,"combination":[],"aug_dim":"","rhythm_ratio":1.0,"mirror":false,"chromatic_density":0.214,"complexity":0.665,"dissonance":0.071},{"voice":3,"pitch":52,"start":478.9995,"duration":0.3333,"velocity":90,"measure":180,"beat":3.5,"subject_pos":-1,"motif":"","motif_pos":-1,"best_pos":4,"similarity":0.461,"stretto":false,"stretto_voices":0,"combination":[],"aug_dim":"","rhythm_ratio":1.0,"mirror":false,"chromatic_density":0.214,"complexity":0.665,"dissonance":0.071},{"voice":0,"pitch":79,"start":479.3329,"duration":0.6667,"velocity":90,"measure":180,"beat":4.0,"subject_pos":2,"motif":"subject","motif_pos":2,"best_pos":2,"similarity":1.0,"stretto":false,"stretto_voices":0,"combination":[],"aug_dim":"","rhythm_ratio":1.0,"mirror":false,"chromatic_density":0.214,"complexity":0.665,"dissonance":0.071},{"voice":1,"pitch":76,"start":479.3329,"duration":0.3333,"velocity":90,"measure":180,"beat":4.0,"subject_pos":-1,"motif":"","motif_pos":-1,"best_pos":1,"similarity":0.25,"stretto":false,"stretto_voices":0,"combination":[],"aug_dim":"","rhythm_ratio":1.0,"mirror":false,"chromatic_density":0.214,"complexity":0.665,"dissonance":0.071},{"voice":2,"pitch":61,"start":479.3329,"duration":0.6667,"velocity":90,"measure":180,"beat":4.0,"subject_pos":-1,"motif":"enigmatic_cell","motif_pos":0,"best_pos":0,"similarity":1.0,"stretto":false,"stretto_voices":0,"combination":[],"aug_dim":"","rhythm_ratio":1.0,"mirror":false,"chromatic_density":0.214,"complexity":0.665,"dissonance":0.071},{"voice":3,"pitch":55,"start":479.3329,"duration":0.3333,"velocity":90,"measure":180,"beat":4.0,"subject_pos":-1,"motif":"","motif_pos":-1,"best_pos":5,"similarity":0.364,"stretto":false,"stretto_voices":0,"combination":[],"aug_dim":"","rhythm_ratio":1.0,"mirror":false,"chromatic_density":0.214,"complexity":0.665,"dissonance":0.071},{"voice":1,"pitch":70,"start":479.6662,"duration":0.3333,"velocity":90,"measure":180,"beat":4.5,"subject_pos":-1,"motif":"enigmatic_cell","motif_pos":0,"best_pos":0,"similarity":1.0,"stretto":false,"stretto_voices":0,"combination":[],"aug_dim":"","rhythm_ratio":1.0,"mirror":false,"chromatic_density":0.214,"complexity":0.665,"dissonance":0.071},{"voice":3,"pitch":55,"start":479.6662,"duration":0.3333,"velocity":90,"measure":180,"beat":4.5,"subject_pos":-1,"motif":"","motif_pos":-1,"best_pos":4,"similarity":0.343,"stretto":false,"stretto_voices":0,"combination":[],"aug_dim":"","rhythm_ratio":1.0,"mirror":false,"chromatic_density":0.214,"complexity":0.665,"dissonance":0.071},{"voice":1,"pitch":69,"start":479.9995,"duration":0.3333,"velocity":90,"measure":181,"beat":1.0,"subject_pos":-1,"motif":"enigmatic_cell","motif_pos":1,"best_pos":1,"similarity":1.0,"stretto":false,"stretto_voices":0,"combination":[],"aug_dim":"","rhythm_ratio":1.0,"mirror":false,"chromatic_density":0.467,"complexity":0.692,"dissonance":0.186},{"voice":2,"pitch":62,"start":479.9995,"duration":0.6667,"velocity":90,"measure":181,"beat":1.0,"subject_pos":-1,"motif":"enigmatic_cell","motif_pos":1,"best_pos":1,"similarity":1.0,"stretto":false,"stretto_voices":0,"combination":[],"aug_dim":"","rhythm_ratio":1.0,"mirror":false,"chromatic_density":0.467,"complexity":0.692,"dissonance":0.186},{"voice":3,"pitch":55,"start":479.9995,"duration":0.3333,"velocity":90,"measure":181,"beat":1.0,"subject_pos":-1,"motif":"","motif_pos":-1,"best_pos":1,"similarity":0.321,"stretto":false,"stretto_voices":0,"combination":[],"aug_dim":"","rhythm_ratio":1.0,"mirror":false,"chromatic_density":0.467,"complexity":0.692,"dissonance":0.186},{"voice":1,"pitch":74,"start":480.3329,"duration":0.3333,"velocity":90,"measure":181,"beat":1.5,"subject_pos":-1,"motif":"enigmatic_cell","motif_pos":2,"best_pos":2,"similarity":1.0,"stretto":false,"stretto_voices":0,"combination":[],"aug_dim":"","rhythm_ratio":1.0,"mirror":false,"chromatic_density":0.467,"complexity":0.692,"dissonance":0.186},{"voice":3,"pitch":53,"start":480.3329,"duration":0.3333,"velocity":90,"measure":181,"beat":1.5,"subject_pos":-1,"motif":"","motif_pos":-1,"best_pos":2,"similarity":0.393,"stretto":false,"stretto_voices":0,"combination":[],"aug_dim":"","rhythm_ratio":1.0,"mirror":false,"chromatic_density":0.467,"complexity":0.692,"dissonance":0.186},{"voice":0,"pitch":77,"start":480.6662,"duration":0.6667,"velocity":90,"measure":181,"beat":2.0,"subject_pos":3,"motif":"subject","motif_pos":3,"best_pos":3,"similarity":1.0,"stretto":false,"stretto_voices":0,"combination":[],"aug_dim":"","rhythm_ratio":1.0,"mirror":false,"chromatic_density":0.467,"complexity":0.692,"dissonance":0.186},{"voice":1,"pitch":73,"start":480.6662,"duration":0.3333,"velocity":90,"measure":181,"beat":2.0,"subject_pos":-1,"motif":"","motif_pos":-1,"best_pos":2,"similarity":0.518,"stretto":false,"stretto_voices":0,"combination":[],"aug_dim":"","rhythm_ratio":1.0,"mirror":false,"chromatic_density":0.467,"complexity":0.692,"dissonance":0.186},{"voice":2,"pitch":57,"start":480.6662,"duration":0.6667,"velocity":90,"measure":181,"beat":2.0,"subject_pos":-1,"motif":"enigmatic_cell","motif_pos":2,"best_pos":2,"similarity":1.0,"stretto":false,"stretto_voices":0,"combination":[],"aug_dim":"","rhythm_ratio":1.0,"mirror":false,"chromatic_density":0.467,"complexity":0.692,"dissonance":0.186},{"voice":3,"pitch":57,"start":480.6662,"duration":0.3333,"velocity":90,"measure":181,"beat":2.0,"subject_pos":-1,"motif":"","motif_pos":-1,"best_pos":3,"similarity":0.364,"stretto":false,"stretto_voices":0,"combination":[],"aug_dim":"","rhythm_ratio":1.0,"mirror":false,"chromatic_density":0.467,"complexity":0.692,"dissonance":0.186},{"voice":1,"pitch":72,"start":480.9995,"duration":0.3333,"velocity":90,"measure":181,"beat":2.5,"subject_pos":-1,"motif":"","motif_pos":-1,"best_pos":3,"similarity":0.543,"stretto":false,"stretto_voices":0,"combination":[],"aug_dim":"","rhythm_ratio":1.0,"mirror":false,"chromatic_density":0.467,"complexity":0.692,"dissonance":0.186},{"voice":3,"pitch":57,"start":480.9995,"duration":0.3333,"velocity":90,"measure":181,"beat":2.5,"subject_pos":-1,"motif":"","motif_pos":-1,"best_pos":4,"similarity":0.389,"stretto":false,"stretto_voices":0,"combination":[],"aug_dim":"","rhythm_ratio":1.0,"mirror":false,"chromatic_density":0.467,"complexity":0.692,"dissonance":0.186},{"voice":0,"pitch":76,"start":481.3329,"duration":0.6667,"velocity":90,"measure":181,"beat":3.0,"subject_pos":4,"motif":"subject","motif_pos":4,"best_pos":4,"similarity":1.0,"stretto":false,"stretto_voices":0,"combination":[],"aug_dim":"","rhythm_ratio":1.0,"mirror":false,"chromatic_density":0.467,"complexity":0.692,"dissonance":0.186},{"voice":1,"pitch":71,"start":481.3329,"duration":0.3333,"velocity":90,"measure":181,"beat":3.0,"subject_pos":-1,"motif":"","motif_pos":-1,"best_pos":3,"similarity":0.471,"stretto":false,"stretto_voices":0,"combination":[],"aug_dim":"","rhythm_ratio":1.0,"mirror":false,"chromatic_density":0.467,"complexity":0.692,"dissonance":0.186},{"voice":2,"pitch":64,"start":481.3329,"duration":1.3333,"velocity":90,"measure":181,"beat":3.0,"subject_pos":-1,"motif":"","motif_pos":-1,"best_pos":1,"similarity":0.386,"stretto":false,"stretto_voices":0,"combination":[],"aug_dim":"","rhythm_ratio":1.0,"mirror":false,"chromatic_density":0.467,"complexity":0.692,"dissonance":0.186},{"voice":3,"pitch":57,"start":481.3329,"duration":0.3333,"velocity":90,"measure":181,"beat":3.0,"subject_pos":-1,"motif":"","motif_pos":-1,"best_pos":1,"similarity":0.321,"stretto":false,"stretto_voices":0,"combination":[],"aug_dim":"","rhythm_ratio":1.0,"mirror":false,"chromatic_density":0.467,"complexity":0.692,"dissonance":0.186},{"voice":1,"pitch":70,"start":481.6662,"duration":0.3333,"velocity":90,"measure":181,"beat":3.5,"subject_pos":-1,"motif":"","motif_pos":-1,"best_pos":4,"similarity":0.514,"stretto":false,"stretto_voices":0,"combination":[],"aug_dim":"","rhythm_ratio":1.0,"mirror":false,"chromatic_density":0.467,"complexity":0.692,"dissonance":0.186},{"voice":3,"pitch":55,"start":481.6662,"duration":0.3333,"velocity":90,"measure":181,"beat":3.5,"subject_pos":-1,"motif":"","motif_pos":-1,"best_pos":2,"similarity":0.375,"stretto":false,"stretto_voices":0,"combination":[],"aug_dim":"","rhythm_ratio":1.0,"mirror":false,"chromatic_density":0.467,"complexity":0.692,"dissonance":0.186},{"voice":0,"pitch":74,"start":481.9995,"duration":0.6667,"velocity":90,"measure":181,"beat":4.0,"subject_pos":5,"motif":"subject","motif_pos":5,"best_pos":5,"similarity":1.0,"stretto":false,"stretto_voices":0,"combination":[],"aug_dim":"","rhythm_ratio":1.0,"mirror":false,"chromatic_density":0.467,"complexity":0.692,"dissonance":0.186},{"voice":1,"pitch":69,"start":481.9995,"duration":0.3333,"velocity":90,"measure":181,"beat":4.0,"subject_pos":-1,"motif":"","motif_pos":-1,"best_pos":3,"similarity":0.607,"stretto":false,"stretto_voices":0,"combination":[],"aug_dim":"","rhythm_ratio":1.0,"mirror":false,"chromatic_density":0.467,"complexity":0.692,"dissonance":0.186},{"voice":3,"pitch":58,"start":481.9995,"duration":0.3333,"velocity":90,"measure":181,"beat":4.0,"subject_pos":-1,"motif":"","motif_pos":-1,"best_pos":6,"similarity":0.336,"stretto":false,"stretto_voices":0,"combination":[],"aug_dim":"","rhythm_ratio":1.0,"mirror":false,"chromatic_density":0.467,"complexity":0.692,"dissonance":0.186},{"voice":1,"pitch":68,"start":482.3329,"duration":0.3333,"velocity":90,"measure":181,"beat":4.5,"subject_pos":-1,"motif":"","motif_pos":-1,"best_pos":4,"similarity":0.721,"stretto":false,"stretto_voices":0,"combination":[],"aug_dim":"","rhythm_ratio":1.0,"mirror":false,"chromatic_density":0.467,"complexity":0.692,"dissonance":0.186},{"voice":3,"pitch":58,"start":482.3329,"duration":0.3333,"velocity":90,"measure":181,"beat":4.5,"subject_pos":-1,"motif":"","motif_pos":-1,"best_pos":2,"similarity":0.393,"stretto":false,"stretto_voices":0,"combination":[],"aug_dim":"","rhythm_ratio":1.0,"mirror":false,"chromatic_density":0.467,"complexity":0.692,"dissonance":0.186},{"voice":1,"pitch":69,"start":482.6662,"duration":0.3333,"velocity":90,"measure":182,"beat":1.0,"subject_pos":-1,"motif":"","motif_pos":-1,"best_pos":5,"similarity":0.604,"stretto":false,"stretto_voices":0,"combination":[],"aug_dim":"","rhythm_ratio":1.0,"mirror":false,"chromatic_density":0.333,"complexity":0.579,"dissonance":0.231},{"voice":2,"pitch":65,"start":482.6662,"duration":0.6667,"velocity":90,"measure":182,"beat":1.0,"subject_pos":-1,"motif":"","motif_pos":-1,"best_pos":3,"similarity":0.4,"stretto":false,"stretto_voices":0,"combination":[],"aug_dim":"","rhythm_ratio":1.0,"mirror":false,"chromatic_density":0.333,"complexity":0.579,"dissonance":0.231},{"voice":3,"pitch":57,"start":482.6662,"duration":2.3333,"velocity":90,"measure":182,"beat":1.0,"subject_pos":-1,"motif":"","motif_pos":-1,"best_pos":3,"similarity":0.554,"stretto":false,"stretto_voices":0,"combination":[],"aug_dim":"","rhythm_ratio":1.0,"mirror":false,"chromatic_density":0.333,"complexity":0.579,"dissonance":0.231},{"voice":1,"pitch":70,"start":482.9995,"duration":0.3333,"velocity":90,"measure":182,"beat":1.5,"subject_pos":-1,"motif":"","motif_pos":-1,"best_pos":5,"similarity":0.411,"stretto":false,"stretto_voices":0,"combination":[],"aug_dim":"","rhythm_ratio":1.0,"mirror":false,"chromatic_density":0.333,"complexity":0.579,"dissonance":0.231},{"voice":0,"pitch":73,"start":483.3329,"duration":0.6667,"velocity":90,"measure":182,"beat":2.0,"subject_pos":6,"motif":"subject","motif_pos":6,"best_pos":6,"similarity":1.0,"stretto":false,"stretto_voices":0,"combination":[],"aug_dim":"","rhythm_ratio":1.0,"mirror":false,"chromatic_density":0.333,"complexity":0.579,"dissonance":0.231},{"voice":1,"pitch":67,"start":483.3329,"duration":0.3333,"velocity":90,"measure":182,"beat":2.0,"subject_pos":-1,"motif":"","motif_pos":-1,"best_pos":5,"similarity":0.357,"stretto":false,"stretto_voices":0,"combination":[],"aug_dim":"","rhythm_ratio":1.0,"mirror":false,"chromatic_density":0.333,"complexity":0.579,"dissonance":0.231},{"voice":2,"pitch":64,"start":483.3329,"duration":0.6667,"velocity":90,"measure":182,"beat":2.0,"subject_pos":-1,"motif":"","motif_pos":-1,"best_pos":4,"similarity":0.479,"stretto":false,"stretto_voices":0,"combination":[],"aug_dim":"","rhythm_ratio":1.0,"mirror":false,"chromatic_density":0.333,"complexity":0.579,"dissonance":0.231},{"voice":1,"pitch":69,"start":483.6662,"duration":0.3333,"velocity":90,"measure":182,"beat":2.5,"subject_pos":-1,"motif":"","motif_pos":-1,"best_pos":6,"similarity":0.318,"stretto":false,"stretto_voices":0,"combination":[],"aug_dim":"","rhythm_ratio":1.0,"mirror":false,"chromatic_density":0.333,"complexity":0.579,"dissonance":0.231},{"voice":0,"pitch":74,"start":483.9995,"duration":0.6667,"velocity":90,"measure":182,"beat":3.0,"subject_pos":7,"motif":"subject","motif_pos":7,"best_pos":7,"similarity":1.0,"stretto":false,"stretto_voices":0,"combination":[],"aug_dim":"","rhythm_ratio":1.0,"mirror":false,"chromatic_density":0.333,"complexity":0.579,"dissonance":0.231},{"voice":1,"pitch":65,"start":483.9995,"duration":0.6667,"velocity":90,"measure":182,"beat":3.0,"subject_pos":-1,"motif":"","motif_pos":-1,"best_pos":2,"similarity":0.3,"stretto":false,"stretto_voices":0,"combination":[],"aug_dim":"","rhythm_ratio":1.0,"mirror":false,"chromatic_density":0.333,"complexity":0.579,"dissonance":0.231},{"voice":2,"pitch":62,"start":483.9995,"duration":0.3333,"velocity":90,"measure":182,"beat":3.0,"subject_pos":-1,"motif":"","motif_pos":-1,"best_pos":5,"similarity":0.479,"stretto":false,"stretto_voices":0,"combination":[],"aug_dim":"","rhythm_ratio":1.0,"mirror":false,"chromatic_density":0.333,"complexity":0.579,"dissonance":0.231},{"voice":2,"pitch":64,"start":484.3328,"duration":0.3333,"velocity":90,"measure":182,"beat":3.5,"subject_pos":-1,"motif":"","motif_pos":-1,"best_pos":6,"similarity":0.4,"stretto":false,"stretto_voices":0,"combination":[],"aug_dim":"","rhythm_ratio":1.0,"mirror":false,"chromatic_density":0.333,"complexity":0.579,"dissonance":0.231},{"voice":0,"pitch":76,"start":484.6662,"duration":0.6667,"velocity":90,"measure":182,"beat":4.0,"subject_pos":8,"motif":"subject","motif_pos":8,"best_pos":0,"similarity":1.0,"stretto":false,"stretto_voices":0,"combination":[],"aug_dim":"","rhythm_ratio":1.0,"mirror":false,"chromatic_density":0.333,"complexity":0.579,"dissonance":0.231},{"voice":1,"pitch":70,"start":484.6662,"duration":0.6667,"velocity":90,"measure":182,"beat":4.0,"subject_pos":-1,"motif":"","motif_pos":-1,"best_pos":1,"similarity":0.304,"stretto":false,"stretto_voices":0,"combination":[],"aug_dim":"","rhythm_ratio":1.0,"mirror":false,"chromatic_density":0.333,"complexity":0.579,"dissonance":0.231},{"voice":2,"pitch":62,"start":484.6662,"duration":0.6667,"velocity":90,"measure":182,"beat":4.0,"subject_pos":-1,"motif":"","motif_pos":-1,"best_pos":0,"similarity":0.318,"stretto":false,"stretto_voices":0,"combination":[],"aug_dim":"","rhythm_ratio":1.0,"mirror":false,"chromatic_density":0.333,"complexity":0.579,"dissonance":0.231},{"voice":3,"pitch":56,"start":484.9995,"duration":0.3333,"velocity":90,"measure":182,"beat":4.5,"subject_pos":-1,"motif":"","motif_pos":-1,"best_pos":4,"similarity":0.632,"stretto":false,"stretto_voices":0,"combination":[],"aug_dim":"","rhythm_ratio":1.0,"mirror":false,"chromatic_density":0.333,"complexity":0.579,"dissonance":0.231},{"voice":1,"pitch":61,"start":485.3328,"duration":0.6667,"velocity":90,"measure":183,"beat":1.0,"subject_pos":-1,"motif":"","motif_pos":-1,"best_pos":2,"similarity":0.196,"stretto":false,"stretto_voices":0,"combination":[],"aug_dim":"","rhythm_ratio":1.0,"mirror":false,"chromatic_density":0.214,"complexity":0.668,"dissonance":0.056},{"voice":2,"pitch":69,"start":485.3328,"duration":0.6667,"velocity":90,"measure":183,"beat":1.0,"subject_pos":-1,"motif":"","motif_pos":-1,"best_pos":1,"similarity":0.35,"stretto":false,"stretto_voices":0,"combination":[],"aug_dim":"","rhythm_ratio":1.0,"mirror":false,"chromatic_density":0.214,"complexity":0.668,"dissonance":0.056},{"voice":3,"pitch":57,"start":485.3328,"duration":2.0,"velocity":90,"measure":183,"beat":1.0,"subject_pos":-1,"motif":"","motif_pos":-1,"best_pos":5,"similarity":0.461,"stretto":false,"stretto_voices":0,"combination":[],"aug_dim":"","rhythm_ratio":1.0,"mirror":false,"chromatic_density":0.214,"complexity":0.668,"dissonance":0.056},{"voice":0,"pitch":77,"start":485.9995,"duration":0.3333,"velocity":90,"measure":183,"beat":2.0,"subject_pos":-1,"motif":"","motif_pos":-1,"best_pos":7,"similarity":0.5,"stretto":false,"stretto_voices":0,"combination":[],"aug_dim":"","rhythm_ratio":1.0,"mirror":false,"chromatic_density":0.214,"complexity":0.668,"dissonance":0.056},{"voice":0,"pitch":74,"start":485.9995,"duration":0.3333,"velocity":90,"measure":183,"beat":2.0,"subject_pos":-1,"motif":"","motif_pos":-1,"best_pos":0,"similarity":0.364,"stretto":false,"stretto_voices":0,"combination":[],"aug_dim":"","rhythm_ratio":1.0,"mirror":false,"chromatic_density":0.214,"complexity":0.668,"dissonance":0.056},{"voice":1,"pitch":69,"start":485.9995,"duration":0.3333,"velocity":90,"measure":183,"beat":2.0,"subject_pos":-1,"motif":"tail_inv","motif_pos":0,"best_pos":0,"similarity":1.0,"stretto":false,"stretto_voices":0,"combination":[],"aug_dim":"","rhythm_ratio":1.0,"mirror":false,"chromatic_density":0.214,"complexity":0.668,"dissonance":0.056},{"voice":2,"pitch":62,"start":485.9995,"duration":0.6667,"velocity":90,"measure":183,"beat":2.0,"subject_pos":-1,"motif":"","motif_pos":-1,"best_pos":2,"similarity":0.243,"stretto":false,"stretto_voices":0,"combination":[],"aug_dim":"","rhythm_ratio":1.0,"mirror":false,"chromatic_density":0.214,"complexity":0.668,"dissonance":0.056},{"voice":0,"pitch":79,"start":486.3328,"duration":0.3333,"velocity":90,"measure":183,"beat":2.5,"subject_pos":-1,"motif":"","motif_pos":-1,"best_pos":1,"similarity":0.461,"stretto":false,"stretto_voices":0,"combination":[],"aug_dim":"","rhythm_ratio":1.0,"mirror":false,"chromatic_density":0.214,"complexity":0.668,"dissonance":0.056},{"voice":0,"pitch":76,"start":486.3328,"duration":0.3333,"velocity":90,"measure":183,"beat":2.5,"subject_pos":-1,"motif":"","motif_pos":-1,"best_pos":3,"similarity":0.443,"stretto":false,"stretto_voices":0,"combination":[],"aug_dim":"","rhythm_ratio":1.0,"mirror":false,"chromatic_density":0.214,"complexity":0.668,"dissonance":0.056},{"voice":1,"pitch":70,"start":486.3328,"duration":0.3333,"velocity":90,"measure":183,"beat":2.5,"subject_pos":-1,"motif":"tail_inv","motif_pos":1,"best_pos":1,"similarity":1.0,"stretto":false,"stretto_voices":0,"combination":[],"aug_dim":"","rhythm_ratio":1.0,"mirror":false,"chromatic_density":0.214,"complexity":0.668,"dissonance":0.056},{"voice":0,"pitch":77,"start":486.6662,"duration":0.6667,"velocity":90,"measure":183,"beat":3.0,"subject_pos":-1,"motif":"","motif_pos":-1,"best_pos":4,"similarity":0.393,"stretto":false,"stretto_voices":0,"combination":[],"aug_dim":"","rhythm_ratio":1.0,"mirror":false,"chromatic_density":0.214,"complexity":0.668,"dissonance":0.056},{"voice":0,"pitch":74,"start":486.6662,"duration":0.6667,"velocity":90,"measure":183,"beat":3.0,"subject_pos":-1,"motif":"","motif_pos":-1,"best_pos":5,"similarity":0.436,"stretto":false,"stretto_voices":0,"combination":[],"aug_dim":"","rhythm_ratio":1.0,"mirror":false,"chromatic_density":0.214,"complexity":0.668,"dissonance":0.056},{"voice":1,"pitch":69,"start":486.6662,"duration":0.6667,"velocity":90,"measure":183,"beat":3.0,"subject_pos":-1,"motif":"tail_inv","motif_pos":2,"best_pos":2,"similarity":1.0,"stretto":false,"stretto_voices":0,"combination":[],"aug_dim":"","rhythm_ratio":1.0,"mirror":false,"chromatic_density":0.214,"complexity":0.668,"dissonance":0.056},{"voice":2,"pitch":57,"start":486.6662,"duration":4.0,"velocity":90,"measure":183,"beat":3.0,"subject_pos":-1,"motif":"","motif_pos":-1,"best_pos":3,"similarity":0.157,"stretto":false,"stretto_voices":0,"combination":[],"aug_dim":"","rhythm_ratio":1.0,"mirror":false,"chromatic_density":0.214,"complexity":0.668,"dissonance":0.056},{"voice":0,"pitch":76,"start":487.3328,"duration":0.6667,"velocity":90,"measure":183,"beat":4.0,"subject_pos":-1,"motif":"","motif_pos":-1,"best_pos":2,"similarity":0.35,"stretto":false,"stretto_voices":0,"combination":[],"aug_dim":"","rhythm_ratio":1.0,"mirror":false,"chromatic_density":0.214,"complexity":0.668,"dissonance":0.056},{"voice":0,"pitch":73,"start":487.3328,"duration":0.6667,"velocity":90,"measure":183,"beat":4.0,"subject_pos":-1,"motif":"","motif_pos":-1,"best_pos":4,"similarity":0.393,"stretto":false,"stretto_voices":0,"combination":[],"aug_dim":"","rhythm_ratio":1.0,"mirror":false,"chromatic_density":0.214,"complexity":0.668,"dissonance":0.056},{"voice":1,"pitch":67,"start":487.3328,"duration":0.6667,"velocity":90,"measure":183,"beat":4.0,"subject_pos":-1,"motif":"tail_inv","motif_pos":3,"best_pos":3,"similarity":1.0,"stretto":false,"stretto_voices":0,"combination":[],"aug_dim":"","rhythm_ratio":1.0,"mirror":false,"chromatic_density":0.214,"complexity":0.668,"dissonance":0.056},{"voice":3,"pitch":45,"start":487.3328,"duration":0.6667,"velocity":90,"measure":183,"beat":4.0,"subject_pos":-1,"motif":"","motif_pos":-1,"best_pos":0,"similarity":0.286,"stretto":false,"stretto_voices":0,"combination":[],"aug_dim":"","rhythm_ratio":1.0,"mirror":false,"chromatic_density":0.214,"complexity":0.668,"dissonance":0.056},{"voice":0,"pitch":74,"start":487.9995,"duration":2.6667,"velocity":90,"measure":184,"beat":1.0,"subject_pos":-1,"motif":"","motif_pos":-1,"best_pos":5,"similarity":0.321,"stretto":false,"stretto_voices":0,"combination":[],"aug_dim":"","rhythm_ratio":1.0,"mirror":false,"chromatic_density":0.0,"complexity":0.315,"dissonance":0.0},{"voice":1,"pitch":66,"start":487.9995,"duration":2.6667,"velocity":90,"measure":184,"beat":1.0,"subject_pos":-1,"motif":"tail_inv","motif_pos":4,"best_pos":4,"similarity":1.0,"stretto":false,"stretto_voices":0,"combination":[],"aug_dim":"","rhythm_ratio":1.0,"mirror":false,"chromatic_density":0.0,"complexity":0.315,"dissonance":0.0},{"voice":3,"pitch":50,"start":487.9995,"duration":2.6667,"velocity":90,"measure":184,"beat":1.0,"subject_pos":-1,"motif":"","motif_pos":-1,"best_pos":1,"similarity":0.286,"stretto":false,"stretto_voices":0,"combination":[],"aug_dim":"","rhythm_ratio":1.0,"mirror":false,"chromatic_density":0.0,"complexity":0.315,"dissonance":0.0}],"chromatic_density":[{"measure":1,"density":0.0,"chromatic_count":0,"interval_count":2},{"measure":2,"density":0.5,"chromatic_count":1,"interval_count":2},{"measure":3,"density":0.5,"chromatic_count":1,"interval_count":2},{"measure":4,"density":0.333,"chromatic_count":1,"interval_count":3},{"measure":5,"density":0.333,"chromatic_count":2,"interval_count":6},{"measure":6,"density":0.333,"chromatic_count":2,"interval_count":6},{"measure":7,"density":0.429,"chromatic_count":3,"interval_count":7},{"measure":8,"density":0.143,"chromatic_count":1,"interval_count":7},{"measure":9,"density":0.375,"chromatic_count":3,"interval_count":8},{"measure":10,"density":0.364,"chromatic_count":4,"interval_count":11},{"measure":11,"density":0.5,"chromatic_count":4,"interval_count":8},{"measure":12,"density":0.125,"chromatic_count":1,"interval_count":8},{"measure":13,"density":0.375,"chromatic_count":3,"interval_count":8},{"measure":14,"density":0.385,"chromatic_count":5,"interval_count":13},{"measure":15,"density":0.5,"chromatic_count":6,"interval_count":12},{"measure":16,"density":0.182,"chromatic_count":2,"interval_count":11},{"measure":17,"density":0.333,"chromatic_count":3,"interval_count":9},{"measure":18,"density":0.625,"chromatic_count":5,"interval_count":8},{"measure":19,"density":0.273,"chromatic_count":3,"interval_count":11},{"measure":20,"density":0.444,"chromatic_count":4,"interval_count":9},{"measure":21,"density":0.273,"chromatic_count":3,"interval_count":11},{"measure":22,"density":0.231,"chromatic_count":3,"interval_count":13},{"measure":23,"density":0.333,"chromatic_count":3,"interval_count":9},{"measure":24,"density":0.385,"chromatic_count":5,"interval_count":13},{"measure":25,"density":0.308,"chromatic_count":4,"interval_count":13},{"measure":26,"density":0.8,"chromatic_count":8,"interval_count":10},{"measure":27,"density":0.0,"chromatic_count":0,"interval_count":1},{"measure":28,"density":0.6,"chromatic_count":3,"interval_count":5},{"measure":29,"density":0.6,"chromatic_count":3,"interval_count":5},{"measure":30,"density":0.364,"chromatic_count":4,"interval_count":11},{"measure":31,"density":0.444,"chromatic_count":4,"interval_count":9},{"measure":32,"density":0.5,"chromatic_count":4,"interval_count":8},{"measure":33,"density":0.556,"chromatic_count":5,"interval_count":9},{"measure":34,"density":0.4,"chromatic_count":4,"interval_count":10},{"measure":35,"density":0.5,"chromatic_count":6,"interval_count":12},{"measure":36,"density":0.643,"chromatic_count":9,"interval_count":14},{"measure":37,"density":0.273,"chromatic_count":3,"interval_count":11},{"measure":38,"density":0.5,"chromatic_count":6,"interval_count":12},{"measure":39,"density":0.333,"chromatic_count":3,"interval_count":9},{"measure":40,"density":0.375,"chromatic_count":3,"interval_count":8},{"measure":41,"density":0.286,"chromatic_count":4,"interval_count":14},{"measure":42,"density":0.3,"chromatic_count":3,"interval_count":10},{"measure":43,"density":0.429,"chromatic_count":6,"interval_count":14},{"measure":44,"density":0.667,"chromatic_count":8,"interval_count":12},{"measure":45,"density":0.667,"chromatic_count":8,"interval_count":12},{"measure":46,"density":0.667,"chromatic_count":8,"interval_count":12},{"measure":47,"density":0.857,"chromatic_count":6,"interval_count":7},{"measure":48,"density":0.308,"chromatic_count":4,"interval_count":13},{"measure":49,"density":0.214,"chromatic_count":3,"interval_count":14},{"measure":50,"density":0.286,"chromatic_count":4,"interval_count":14},{"measure":51,"density":0.316,"chromatic_count":6,"interval_count":19},{"measure":52,"density":0.267,"chromatic_count":4,"interval_count":15},{"measure":53,"density":0.267,"chromatic_count":4,"interval_count":15},{"measure":54,"density":0.455,"chromatic_count":5,"interval_count":11},{"measure":55,"density":0.727,"chromatic_count":8,"interval_count":11},{"measure":56,"density":0.733,"chromatic_count":11,"interval_count":15},{"measure":57,"density":0.5,"chromatic_count":6,"interval_count":12},{"measure":58,"density":0.6,"chromatic_count":6,"interval_count":10},{"measure":59,"density":0.286,"chromatic_count":4,"interval_count":14},{"measure":60,"density":0.5,"chromatic_count":6,"interval_count":12},{"measure":61,"density":0.273,"chromatic_count":3,"interval_count":11},{"measure":62,"density":0.214,"chromatic_count":3,"interval_count":14},{"measure":63,"density":0.2,"chromatic_count":2,"interval_count":10},{"measure":64,"density":0.562,"chromatic_count":9,"interval_count":16},{"measure":65,"density":0.6,"chromatic_count":6,"interval_count":10},{"measure":66,"density":0.467,"chromatic_count":7,"interval_count":15},{"measure":67,"density":0.545,"chromatic_count":6,"interval_count":11},{"measure":68,"density":0.471,"chromatic_count":8,"interval_count":17},{"measure":69,"density":0.667,"chromatic_count":10,"interval_count":15},{"measure":70,"density":0.5,"chromatic_count":5,"interval_count":10},{"measure":71,"density":0.167,"chromatic_count":1,"interval_count":6},{"measure":72,"density":0.143,"chromatic_count":1,"interval_count":7},{"measure":73,"density":0.545,"chromatic_count":6,"interval_count":11},{"measure":74,"density":0.25,"chromatic_count":2,"interval_count":8},{"measure":75,"density":0.364,"chromatic_count":4,"interval_count":11},{"measure":76,"density":0.385,"chromatic_count":5,"interval_count":13},{"measure":77,"density":0.25,"chromatic_count":3,"interval_count":12},{"measure":78,"density":0.357,"chromatic_count":5,"interval_count":14},{"measure":79,"density":0.6,"chromatic_count":6,"interval_count":10},{"measure":80,"density":0.462,"chromatic_count":6,"interval_count":13},{"measure":81,"density":0.5,"chromatic_count":7,"interval_count":14},{"measure":82,"density":0.455,"chromatic_count":5,"interval_count":11},{"measure":83,"density":0.417,"chromatic_count":5,"interval_count":12},{"measure":84,"density":0.125,"chromatic_count":2,"interval_count":16},{"measure":85,"density":0.25,"chromatic_count":3,"interval_count":12},{"measure":86,"density":0.2,"chromatic_count":3,"interval_count":15},{"measure":87,"density":0.667,"chromatic_count":6,"interval_count":9},{"measure":88,"density":0.25,"chromatic_count":3,"interval_count":12},{"measure":89,"density":0.0,"chromatic_count":0,"interval_count":2},{"measure":90,"density":0.333,"chromatic_count":2,"interval_count":6},{"measure":91,"density":0.333,"chromatic_count":3,"interval_count":9},{"measure":92,"density":0.444,"chromatic_count":8,"interval_count":18},{"measure":93,"density":0.25,"chromatic_count":3,"interval_count":12},{"measure":94,"density":0.231,"chromatic_count":3,"interval_count":13},{"measure":95,"density":0.3,"chromatic_count":3,"interval_count":10},{"measure":96,"density":0.538,"chromatic_count":7,"interval_count":13},{"measure":97,"density":0.375,"chromatic_count":3,"interval_count":8},{"measure":98,"density":0.333,"chromatic_count":3,"interval_count":9},{"measure":99,"density":0.417,"chromatic_count":5,"interval_count":12},{"measure":100,"density":0.357,"chromatic_count":5,"interval_count":14},{"measure":101,"density":0.286,"chromatic_count":4,"interval_count":14},{"measure":102,"density":0.429,"chromatic_count":6,"interval_count":14},{"measure":103,"density":0.111,"chromatic_count":1,"interval_count":9},{"measure":104,"density":0.214,"chromatic_count":3,"interval_count":14},{"measure":105,"density":0.4,"chromatic_count":4,"interval_count":10},{"measure":106,"density":0.286,"chromatic_count":4,"interval_count":14},{"measure":107,"density":0.417,"chromatic_count":5,"interval_count":12},{"measure":108,"density":0.4,"chromatic_count":6,"interval_count":15},{"measure":109,"density":0.333,"chromatic_count":3,"interval_count":9},{"measure":110,"density":0.444,"chromatic_count":4,"interval_count":9},{"measure":111,"density":0.2,"chromatic_count":2,"interval_count":10},{"measure":112,"density":0.444,"chromatic_count":4,"interval_count":9},{"measure":113,"density":0.214,"chromatic_count":3,"interval_count":14},{"measure":114,"density":0.308,"chromatic_count":4,"interval_count":13},{"measure":115,"density":0.357,"chromatic_count":5,"interval_count":14},{"measure":116,"density":0.417,"chromatic_count":5,"interval_count":12},{"measure":117,"density":0.364,"chromatic_count":4,"interval_count":11},{"measure":118,"density":0.417,"chromatic_count":5,"interval_count":12},{"measure":119,"density":0.538,"chromatic_count":7,"interval_count":13},{"measure":120,"density":0.4,"chromatic_count":6,"interval_count":15},{"measure":121,"density":0.125,"chromatic_count":1,"interval_count":8},{"measure":122,"density":0.364,"chromatic_count":4,"interval_count":11},{"measure":123,"density":0.6,"chromatic_count":6,"interval_count":10},{"measure":124,"density":0.583,"chromatic_count":7,"interval_count":12},{"measure":125,"density":0.273,"chromatic_count":3,"interval_count":11},{"measure":126,"density":0.357,"chromatic_count":5,"interval_count":14},{"measure":127,"density":0.154,"chromatic_count":2,"interval_count":13},{"measure":128,"density":0.25,"chromatic_count":3,"interval_count":12},{"measure":129,"density":0.5,"chromatic_count":4,"interval_count":8},{"measure":130,"density":0.231,"chromatic_count":3,"interval_count":13},{"measure":131,"density":0.125,"chromatic_count":2,"interval_count":16},{"measure":132,"density":0.188,"chromatic_count":3,"interval_count":16},{"measure":133,"density":0.364,"chromatic_count":4,"interval_count":11},{"measure":134,"density":0.455,"chromatic_count":5,"interval_count":11},{"measure":135,"density":0.364,"chromatic_count":4,"interval_count":11},{"measure":136,"density":0.417,"chromatic_count":5,"interval_count":12},{"measure":137,"density":0.273,"chromatic_count":3,"interval_count":11},{"measure":138,"density":0.4,"chromatic_count":4,"interval_count":10},{"measure":139,"density":0.5,"chromatic_count":9,"interval_count":18},{"measure":140,"density":0.5,"chromatic_count":5,"interval_count":10},{"measure":141,"density":0.7,"chromatic_count":7,"interval_count":10},{"measure":142,"density":0.455,"chromatic_count":5,"interval_count":11},{"measure":143,"density":0.5,"chromatic_count":5,"interval_count":10},{"measure":144,"density":0.615,"chromatic_count":8,"interval_count":13},{"measure":145,"density":0.364,"chromatic_count":4,"interval_count":11},{"measure":146,"density":0.3,"chromatic_count":3,"interval_count":10},{"measure":147,"density":0.3,"chromatic_count":3,"interval_count":10},{"measure":148,"density":0.286,"chromatic_count":4,"interval_count":14},{"measure":149,"density":0.3,"chromatic_count":3,"interval_count":10},{"measure":150,"density":0.444,"chromatic_count":4,"interval_count":9},{"measure":151,"density":0.75,"chromatic_count":6,"interval_count":8},{"measure":152,"density":0.444,"chromatic_count":4,"interval_count":9},{"measure":153,"density":0.5,"chromatic_count":6,"interval_count":12},{"measure":154,"density":0.308,"chromatic_count":4,"interval_count":13},{"measure":155,"density":0.455,"chromatic_count":5,"interval_count":11},{"measure":156,"density":0.385,"chromatic_count":5,"interval_count":13},{"measure":157,"density":0.529,"chromatic_count":9,"interval_count":17},{"measure":158,"density":0.154,"chromatic_count":2,"interval_count":13},{"measure":159,"density":0.2,"chromatic_count":2,"interval_count":10},{"measure":160,"density":0.273,"chromatic_count":3,"interval_count":11},{"measure":161,"density":0.417,"chromatic_count":5,"interval_count":12},{"measure":162,"density":0.444,"chromatic_count":4,"interval_count":9},{"measure":163,"density":0.625,"chromatic_count":5,"interval_count":8},{"measure":164,"density":0.091,"chromatic_count":1,"interval_count":11},{"measure":165,"density":0.444,"chromatic_count":4,"interval_count":9},{"measure":166,"density":0.571,"chromatic_count":4,"interval_count":7},{"measure":167,"density":0.357,"chromatic_count":5,"interval_count":14},{"measure":168,"density":0.556,"chromatic_count":5,"interval_count":9},{"measure":169,"density":0.333,"chromatic_count":3,"interval_count":9},{"measure":170,"density":0.143,"chromatic_count":2,"interval_count":14},{"measure":171,"density":0.222,"chromatic_count":2,"interval_count":9},{"measure":172,"density":0.3,"chromatic_count":3,"interval_count":10},{"measure":173,"density":0.182,"chromatic_count":2,"interval_count":11},{"measure":174,"density":0.308,"chromatic_count":4,"interval_count":13},{"measure":175,"density":0.333,"chromatic_count":4,"interval_count":12},{"measure":176,"density":0.182,"chromatic_count":2,"interval_count":11},{"measure":177,"density":0.333,"chromatic_count":5,"interval_count":15},{"measure":178,"density":0.462,"chromatic_count":6,"interval_count":13},{"measure":179,"density":0.385,"chromatic_count":5,"interval_count":13},{"measure":180,"density":0.214,"chromatic_count":3,"interval_count":14},{"measure":181,"density":0.467,"chromatic_count":7,"interval_count":15},{"measure":182,"density":0.333,"chromatic_count":4,"interval_count":12},{"measure":183,"density":0.214,"chromatic_count":3,"interval_count":14},{"measure":184,"density":0.0,"chromatic_count":0,"interval_count":0}],"complexity":[{"measure":1,"complexity":0.399,"voice_count":1,"note_density":0.094,"motif_saturation":1.0,"interval_diversity":0.286,"rhythm_variety":0.167},{"measure":2,"complexity":0.399,"voice_count":1,"note_density":0.094,"motif_saturation":1.0,"interval_diversity":0.286,"rhythm_variety":0.167},{"measure":3,"complexity":0.399,"voice_count":1,"note_density":0.094,"motif_saturation":1.0,"interval_diversity":0.286,"rhythm_variety":0.167},{"measure":4,"complexity":0.18,"voice_count":1,"note_density":0.125,"motif_saturation":0.0,"interval_diversity":0.286,"rhythm_variety":0.333},{"measure":5,"complexity":0.383,"voice_count":2,"note_density":0.25,"motif_saturation":0.375,"interval_diversity":0.429,"rhythm_variety":0.333},{"measure":6,"complexity":0.472,"voice_count":2,"note_density":0.281,"motif_saturation":0.333,"interval_diversity":0.714,"rhythm_variety":0.667},{"measure":7,"complexity":0.382,"voice_count":2,"note_density":0.281,"motif_saturation":0.333,"interval_diversity":0.286,"rhythm_variety":0.5},{"measure":8,"complexity":0.367,"voice_count":2,"note_density":0.281,"motif_saturation":0.0,"interval_diversity":0.571,"rhythm_variety":0.667},{"measure":9,"complexity":0.439,"voice_count":3,"note_density":0.344,"motif_saturation":0.273,"interval_diversity":0.429,"rhythm_variety":0.333},{"measure":10,"complexity":0.446,"voice_count":3,"note_density":0.438,"motif_saturation":0.214,"interval_diversity":0.286,"rhythm_variety":0.5},{"measure":11,"complexity":0.509,"voice_count":3,"note_density":0.344,"motif_saturation":0.455,"interval_diversity":0.429,"rhythm_variety":0.5},{"measure":12,"complexity":0.461,"voice_count":3,"note_density":0.344,"motif_saturation":0.091,"interval_diversity":0.714,"rhythm_variety":0.5},{"measure":13,"complexity":0.611,"voice_count":4,"note_density":0.375,"motif_saturation":0.5,"interval_diversity":0.571,"rhythm_variety":0.5},{"measure":14,"complexity":0.657,"voice_count":4,"note_density":0.531,"motif_saturation":0.647,"interval_diversity":0.429,"rhythm_variety":0.5},{"measure":15,"complexity":0.577,"voice_count":4,"note_density":0.5,"motif_saturation":0.438,"interval_diversity":0.286,"rhythm_variety":0.5},{"measure":16,"complexity":0.559,"voice_count":4,"note_density":0.469,"motif_saturation":0.133,"interval_diversity":0.714,"rhythm_variety":0.5},{"measure":17,"complexity":0.474,"voice_count":4,"note_density":0.406,"motif_saturation":0.0,"interval_diversity":0.286,"rhythm_variety":0.667},{"measure":18,"complexity":0.53,"voice_count":4,"note_density":0.406,"motif_saturation":0.154,"interval_diversity":0.571,"rhythm_variety":0.5},{"measure":19,"complexity":0.554,"voice_count":4,"note_density":0.469,"motif_saturation":0.2,"interval_diversity":0.571,"rhythm_variety":0.5},{"measure":20,"complexity":0.448,"voice_count":3,"note_density":0.375,"motif_saturation":0.0,"interval_diversity":0.571,"rhythm_variety":0.667},{"measure":21,"complexity":0.55,"voice_count":4,"note_density":0.469,"motif_saturation":0.267,"interval_diversity":0.429,"rhythm_variety":0.5},{"measure":22,"complexity":0.621,"voice_count":4,"note_density":0.531,"motif_saturation":0.059,"interval_diversity":1.0,"rhythm_variety":0.667},{"measure":23,"complexity":0.513,"voice_count":4,"note_density":0.438,"motif_saturation":0.071,"interval_diversity":0.714,"rhythm_variety":0.333},{"measure":24,"complexity":0.558,"voice_count":4,"note_density":0.531,"motif_saturation":0.176,"interval_diversity":0.714,"rhythm_variety":0.333},{"measure":25,"complexity":0.622,"voice_count":4,"note_density":0.531,"motif_saturation":0.235,"interval_diversity":0.714,"rhythm_variety":0.667},{"measure":26,"complexity":0.502,"voice_count":4,"note_density":0.438,"motif_saturation":0.0,"interval_diversity":0.429,"rhythm_variety":0.667},{"measure":27,"complexity":0.403,"voice_count":4,"note_density":0.156,"motif_saturation":0.2,"interval_diversity":0.143,"rhythm_variety":0.333},{"measure":28,"complexity":0.365,"voice_count":2,"note_density":0.219,"motif_saturation":0.429,"interval_diversity":0.429,"rhythm_variety":0.167},{"measure":29,"complexity":0.354,"voice_count":2,"note_density":0.219,"motif_saturation":0.286,"interval_diversity":0.429,"rhythm_variety":0.333},{"measure":30,"complexity":0.486,"voice_count":3,"note_density":0.438,"motif_saturation":0.0,"interval_diversity":0.571,"rhythm_variety":0.833},{"measure":31,"complexity":0.474,"voice_count":3,"note_density":0.406,"motif_saturation":0.077,"interval_diversity":0.571,"rhythm_variety":0.667},{"measure":32,"complexity":0.441,"voice_count":3,"note_density":0.344,"motif_saturation":0.182,"interval_diversity":0.429,"rhythm_variety":0.5},{"measure":33,"complexity":0.308,"voice_count":2,"note_density":0.344,"motif_saturation":0.0,"interval_diversity":0.429,"rhythm_variety":0.333},{"measure":34,"complexity":0.449,"voice_count":3,"note_density":0.406,"motif_saturation":0.077,"interval_diversity":0.571,"rhythm_variety":0.5},{"measure":35,"complexity":0.604,"voice_count":4,"note_density":0.5,"motif_saturation":0.188,"interval_diversity":0.714,"rhythm_variety":0.667},{"measure":36,"complexity":0.572,"voice_count":4,"note_density":0.562,"motif_saturation":0.111,"interval_diversity":0.714,"rhythm_variety":0.5},{"measure":37,"complexity":0.526,"voice_count":4,"note_density":0.469,"motif_saturation":0.0,"interval_diversity":0.714,"rhythm_variety":0.5},{"measure":38,"complexity":0.562,"voice_count":4,"note_density":0.562,"motif_saturation":0.056,"interval_diversity":0.571,"rhythm_variety":0.667},{"measure":39,"complexity":0.558,"voice_count":4,"note_density":0.406,"motif_saturation":0.077,"interval_diversity":0.714,"rhythm_variety":0.667},{"measure":40,"complexity":0.569,"voice_count":4,"note_density":0.406,"motif_saturation":0.308,"interval_diversity":0.571,"rhythm_variety":0.5},{"measure":41,"complexity":0.59,"voice_count":4,"note_density":0.562,"motif_saturation":0.167,"interval_diversity":0.571,"rhythm_variety":0.667},{"measure":42,"complexity":0.521,"voice_count":4,"note_density":0.469,"motif_saturation":0.067,"interval_diversity":0.571,"rhythm_variety":0.5},{"measure":43,"complexity":0.549,"voice_count":3,"note_density":0.531,"motif_saturation":0.176,"interval_diversity":0.571,"rhythm_variety":0.833},{"measure":44,"complexity":0.583,"voice_count":4,"note_density":0.531,"motif_saturation":0.176,"interval_diversity":0.714,"rhythm_variety":0.5},{"measure":45,"complexity":0.588,"voice_count":4,"note_density":0.5,"motif_saturation":0.125,"interval_diversity":0.714,"rhythm_variety":0.667},{"measure":46,"complexity":0.536,"voice_count":4,"note_density":0.531,"motif_saturation":0.176,"interval_diversity":0.571,"rhythm_variety":0.333},{"measure":47,"complexity":0.477,"voice_count":4,"note_density":0.438,"motif_saturation":0.0,"interval_diversity":0.429,"rhythm_variety":0.5},{"measure":48,"complexity":0.542,"voice_count":4,"note_density":0.531,"motif_saturation":0.0,"interval_diversity":0.571,"rhythm_variety":0.667},{"measure":49,"complexity":0.633,"voice_count":4,"note_density":0.562,"motif_saturation":0.167,"interval_diversity":0.857,"rhythm_variety":0.667},{"measure":50,"complexity":0.633,"voice_count":4,"note_density":0.562,"motif_saturation":0.167,"interval_diversity":0.857,"rhythm_variety":0.667},{"measure":51,"complexity":0.579,"voice_count":4,"note_density":0.719,"motif_saturation":0.0,"interval_diversity":0.571,"rhythm_variety":0.667},{"measure":52,"complexity":0.552,"voice_count":4,"note_density":0.594,"motif_saturation":0.105,"interval_diversity":0.714,"rhythm_variety":0.333},{"measure":53,"complexity":0.513,"voice_count":3,"note_density":0.562,"motif_saturation":0.111,"interval_diversity":0.571,"rhythm_variety":0.667},{"measure":54,"complexity":0.533,"voice_count":4,"note_density":0.469,"motif_saturation":0.2,"interval_diversity":0.429,"rhythm_variety":0.5},{"measure":55,"complexity":0.575,"voice_count":4,"note_density":0.469,"motif_saturation":0.467,"interval_diversity":0.429,"rhythm_variety":0.333},{"measure":56,"complexity":0.55,"voice_count":4,"note_density":0.594,"motif_saturation":0.053,"interval_diversity":0.286,"rhythm_variety":0.833},{"measure":57,"complexity":0.575,"voice_count":4,"note_density":0.5,"motif_saturation":0.188,"interval_diversity":0.857,"rhythm_variety":0.333},{"measure":58,"complexity":0.593,"voice_count":4,"note_density":0.469,"motif_saturation":0.267,"interval_diversity":0.714,"rhythm_variety":0.5},{"measure":59,"complexity":0.614,"voice_count":4,"note_density":0.562,"motif_saturation":0.278,"interval_diversity":0.714,"rhythm_variety":0.5},{"measure":60,"complexity":0.505,"voice_count":4,"note_density":0.5,"motif_saturation":0.062,"interval_diversity":0.429,"rhythm_variety":0.5},{"measure":61,"complexity":0.5,"voice_count":4,"note_density":0.469,"motif_saturation":0.067,"interval_diversity":0.429,"rhythm_variety":0.5},{"measure":62,"complexity":0.59,"voice_count":4,"note_density":0.562,"motif_saturation":0.167,"interval_diversity":0.571,"rhythm_variety":0.667},{"measure":63,"complexity":0.601,"voice_count":4,"note_density":0.469,"motif_saturation":0.2,"interval_diversity":0.714,"rhythm_variety":0.667},{"measure":64,"complexity":0.609,"voice_count":4,"note_density":0.656,"motif_saturation":0.095,"interval_diversity":0.857,"rhythm_variety":0.5},{"measure":65,"complexity":0.526,"voice_count":4,"note_density":0.469,"motif_saturation":0.0,"interval_diversity":0.714,"rhythm_variety":0.5},{"measure":66,"complexity":0.564,"voice_count":4,"note_density":0.594,"motif_saturation":0.053,"interval_diversity":0.714,"rhythm_variety":0.5},{"measure":67,"complexity":0.559,"voice_count":4,"note_density":0.469,"motif_saturation":0.133,"interval_diversity":0.714,"rhythm_variety":0.5},{"measure":68,"complexity":0.577,"voice_count":4,"note_density":0.688,"motif_saturation":0.045,"interval_diversity":0.857,"rhythm_variety":0.333},{"measure":69,"complexity":0.638,"voice_count":4,"note_density":0.594,"motif_saturation":0.263,"interval_diversity":0.857,"rhythm_variety":0.5},{"measure":70,"complexity":0.48,"voice_count":4,"note_density":0.438,"motif_saturation":0.0,"interval_diversity":0.286,"rhythm_variety":0.667},{"measure":71,"complexity":0.541,"voice_count":4,"note_density":0.312,"motif_saturation":0.3,"interval_diversity":0.857,"rhythm_variety":0.167},{"measure":72,"complexity":0.523,"voice_count":4,"note_density":0.344,"motif_saturation":0.273,"interval_diversity":0.571,"rhythm_variety":0.333},{"measure":73,"complexity":0.55,"voice_count":4,"note_density":0.469,"motif_saturation":0.267,"interval_diversity":0.429,"rhythm_variety":0.5},{"measure":74,"complexity":0.53,"voice_count":4,"note_density":0.406,"motif_saturation":0.154,"interval_diversity":0.571,"rhythm_variety":0.5},{"measure":75,"complexity":0.521,"voice_count":4,"note_density":0.469,"motif_saturation":0.067,"interval_diversity":0.571,"rhythm_variety":0.5},{"measure":76,"complexity":0.656,"voice_count":4,"note_density":0.531,"motif_saturation":0.471,"interval_diversity":0.714,"rhythm_variety":0.5},{"measure":77,"complexity":0.533,"voice_count":4,"note_density":0.5,"motif_saturation":0.188,"interval_diversity":0.571,"rhythm_variety":0.333},{"measure":78,"complexity":0.54,"voice_count":4,"note_density":0.562,"motif_saturation":0.167,"interval_diversity":0.571,"rhythm_variety":0.333},{"measure":79,"complexity":0.473,"voice_count":4,"note_density":0.438,"motif_saturation":0.0,"interval_diversity":0.571,"rhythm_variety":0.333},{"measure":80,"complexity":0.608,"voice_count":4,"note_density":0.531,"motif_saturation":0.176,"interval_diversity":0.714,"rhythm_variety":0.667},{"measure":81,"complexity":0.568,"voice_count":4,"note_density":0.562,"motif_saturation":0.167,"interval_diversity":0.429,"rhythm_variety":0.667},{"measure":82,"complexity":0.533,"voice_count":4,"note_density":0.469,"motif_saturation":0.2,"interval_diversity":0.429,"rhythm_variety":0.5},{"measure":83,"complexity":0.526,"voice_count":4,"note_density":0.5,"motif_saturation":0.062,"interval_diversity":0.571,"rhythm_variety":0.5},{"measure":84,"complexity":0.666,"voice_count":4,"note_density":0.625,"motif_saturation":0.25,"interval_diversity":0.857,"rhythm_variety":0.667},{"measure":85,"complexity":0.625,"voice_count":4,"note_density":0.5,"motif_saturation":0.188,"interval_diversity":0.857,"rhythm_variety":0.667},{"measure":86,"complexity":0.635,"voice_count":4,"note_density":0.594,"motif_saturation":0.421,"interval_diversity":0.571,"rhythm_variety":0.5},{"measure":87,"complexity":0.471,"voice_count":4,"note_density":0.406,"motif_saturation":0.0,"interval_diversity":0.429,"rhythm_variety":0.5},{"measure":88,"complexity":0.548,"voice_count":4,"note_density":0.5,"motif_saturation":0.062,"interval_diversity":0.714,"rhythm_variety":0.5},{"measure":89,"complexity":0.489,"voice_count":4,"note_density":0.188,"motif_saturation":0.333,"interval_diversity":0.286,"rhythm_variety":0.5},{"measure":90,"complexity":0.507,"voice_count":3,"note_density":0.375,"motif_saturation":0.25,"interval_diversity":0.714,"rhythm_variety":0.5},{"measure":91,"complexity":0.51,"voice_count":3,"note_density":0.562,"motif_saturation":0.111,"interval_diversity":0.714,"rhythm_variety":0.5},{"measure":92,"complexity":0.528,"voice_count":3,"note_density":0.656,"motif_saturation":0.381,"interval_diversity":0.429,"rhythm_variety":0.333},{"measure":93,"complexity":0.593,"voice_count":4,"note_density":0.531,"motif_saturation":0.118,"interval_diversity":0.714,"rhythm_variety":0.667},{"measure":94,"complexity":0.666,"voice_count":4,"note_density":0.625,"motif_saturation":0.15,"interval_diversity":0.857,"rhythm_variety":0.833},{"measure":95,"complexity":0.625,"voice_count":4,"note_density":0.531,"motif_saturation":0.176,"interval_diversity":1.0,"rhythm_variety":0.5},{"measure":96,"complexity":0.55,"voice_count":4,"note_density":0.531,"motif_saturation":0.118,"interval_diversity":0.429,"rhythm_variety":0.667},{"measure":97,"complexity":0.572,"voice_count":4,"note_density":0.469,"motif_saturation":0.0,"interval_diversity":0.857,"rhythm_variety":0.667},{"measure":98,"complexity":0.557,"voice_count":4,"note_density":0.5,"motif_saturation":0.0,"interval_diversity":0.714,"rhythm_variety":0.667},{"measure":99,"complexity":0.619,"voice_count":4,"note_density":0.594,"motif_saturation":0.0,"interval_diversity":1.0,"rhythm_variety":0.667},{"measure":100,"complexity":0.629,"voice_count":4,"note_density":0.594,"motif_saturation":0.211,"interval_diversity":0.714,"rhythm_variety":0.667},{"measure":101,"complexity":0.675,"voice_count":4,"note_density":0.688,"motif_saturation":0.136,"interval_diversity":0.857,"rhythm_variety":0.833},{"measure":102,"complexity":0.586,"voice_count":4,"note_density":0.562,"motif_saturation":0.167,"interval_diversity":0.714,"rhythm_variety":0.5},{"measure":103,"complexity":0.6,"voice_count":4,"note_density":0.5,"motif_saturation":0.188,"interval_diversity":0.857,"rhythm_variety":0.5},{"measure":104,"complexity":0.631,"voice_count":4,"note_density":0.656,"motif_saturation":0.0,"interval_diversity":1.0,"rhythm_variety":0.667},{"measure":105,"complexity":0.573,"voice_count":4,"note_density":0.5,"motif_saturation":0.062,"interval_diversity":0.714,"rhythm_variety":0.667},{"measure":106,"complexity":0.642,"voice_count":4,"note_density":0.656,"motif_saturation":0.143,"interval_diversity":1.0,"rhythm_variety":0.5},{"measure":107,"complexity":0.594,"voice_count":4,"note_density":0.562,"motif_saturation":0.111,"interval_diversity":0.857,"rhythm_variety":0.5},{"measure":108,"complexity":0.616,"voice_count":4,"note_density":0.625,"motif_saturation":0.15,"interval_diversity":0.857,"rhythm_variety":0.5},{"measure":109,"complexity":0.582,"voice_count":4,"note_density":0.5,"motif_saturation":0.0,"interval_diversity":0.714,"rhythm_variety":0.833},{"measure":110,"complexity":0.479,"voice_count":3,"note_density":0.5,"motif_saturation":0.125,"interval_diversity":0.571,"rhythm_variety":0.5},{"measure":111,"complexity":0.548,"voice_count":4,"note_density":0.5,"motif_saturation":0.062,"interval_diversity":0.714,"rhythm_variety":0.5},{"measure":112,"complexity":0.511,"voice_count":4,"note_density":0.5,"motif_saturation":0.0,"interval_diversity":0.571,"rhythm_variety":0.5},{"measure":113,"complexity":0.541,"voice_count":4,"note_density":0.562,"motif_saturation":0.056,"interval_diversity":0.429,"rhythm_variety":0.667},{"measure":114,"complexity":0.662,"voice_count":4,"note_density":0.625,"motif_saturation":0.15,"interval_diversity":1.0,"rhythm_variety":0.667},{"measure":115,"complexity":0.667,"voice_count":4,"note_density":0.656,"motif_saturation":0.143,"interval_diversity":1.0,"rhythm_variety":0.667},{"measure":116,"complexity":0.572,"voice_count":4,"note_density":0.562,"motif_saturation":0.111,"interval_diversity":0.714,"rhythm_variety":0.5},{"measure":117,"complexity":0.566,"voice_count":4,"note_density":0.562,"motif_saturation":0.0,"interval_diversity":0.857,"rhythm_variety":0.5},{"measure":118,"complexity":0.594,"voice_count":4,"note_density":0.719,"motif_saturation":0.0,"interval_diversity":1.0,"rhythm_variety":0.333},{"measure":119,"complexity":0.536,"voice_count":4,"note_density":0.75,"motif_saturation":0.0,"interval_diversity":0.571,"rhythm_variety":0.333},{"measure":120,"complexity":0.626,"voice_count":4,"note_density":0.594,"motif_saturation":0.0,"interval_diversity":0.714,"rhythm_variety":1.0},{"measure":121,"complexity":0.526,"voice_count":4,"note_density":0.469,"motif_saturation":0.0,"interval_diversity":0.714,"rhythm_variety":0.5},{"measure":122,"complexity":0.551,"voice_count":4,"note_density":0.594,"motif_saturation":0.0,"interval_diversity":0.714,"rhythm_variety":0.5},{"measure":123,"complexity":0.489,"voice_count":4,"note_density":0.625,"motif_saturation":0.0,"interval_diversity":0.429,"rhythm_variety":0.333},{"measure":124,"complexity":0.551,"voice_count":4,"note_density":0.719,"motif_saturation":0.0,"interval_diversity":0.714,"rhythm_variety":0.333},{"measure":125,"complexity":0.637,"voice_count":4,"note_density":0.688,"motif_saturation":0.0,"interval_diversity":1.0,"rhythm_variety":0.667},{"measure":126,"complexity":0.557,"voice_count":4,"note_density":0.75,"motif_saturation":0.0,"interval_diversity":0.714,"rhythm_variety":0.333},{"measure":127,"complexity":0.641,"voice_count":4,"note_density":0.688,"motif_saturation":0.0,"interval_diversity":0.857,"rhythm_variety":0.833},{"measure":128,"complexity":0.629,"voice_count":4,"note_density":0.5,"motif_saturation":0.188,"interval_diversity":0.714,"rhythm_variety":0.833},{"measure":129,"complexity":0.529,"voice_count":4,"note_density":0.469,"motif_saturation":0.0,"interval_diversity":0.571,"rhythm_variety":0.667},{"measure":130,"complexity":0.613,"voice_count":4,"note_density":0.812,"motif_saturation":0.0,"interval_diversity":1.0,"rhythm_variety":0.333},{"measure":131,"complexity":0.582,"voice_count":4,"note_density":1.0,"motif_saturation":0.0,"interval_diversity":0.714,"rhythm_variety":0.167},{"measure":132,"complexity":0.645,"voice_count":4,"note_density":0.781,"motif_saturation":0.24,"interval_diversity":0.857,"rhythm_variety":0.333},{"measure":133,"complexity":0.658,"voice_count":4,"note_density":0.562,"motif_saturation":0.167,"interval_diversity":0.857,"rhythm_variety":0.833},{"measure":134,"complexity":0.558,"voice_count":4,"note_density":0.469,"motif_saturation":0.2,"interval_diversity":0.429,"rhythm_variety":0.667},{"measure":135,"complexity":0.625,"voice_count":4,"note_density":0.531,"motif_saturation":0.059,"interval_diversity":0.857,"rhythm_variety":0.833},{"measure":136,"complexity":0.695,"voice_count":4,"note_density":0.625,"motif_saturation":0.45,"interval_diversity":0.714,"rhythm_variety":0.667},{"measure":137,"complexity":0.663,"voice_count":4,"note_density":0.594,"motif_saturation":0.263,"interval_diversity":0.857,"rhythm_variety":0.667},{"measure":138,"complexity":0.515,"voice_count":3,"note_density":0.594,"motif_saturation":0.105,"interval_diversity":0.714,"rhythm_variety":0.5},{"measure":139,"complexity":0.471,"voice_count":3,"note_density":0.656,"motif_saturation":0.238,"interval_diversity":0.286,"rhythm_variety":0.333},{"measure":140,"complexity":0.445,"voice_count":3,"note_density":0.5,"motif_saturation":0.0,"interval_diversity":0.714,"rhythm_variety":0.333},{"measure":141,"complexity":0.502,"voice_count":4,"note_density":0.562,"motif_saturation":0.0,"interval_diversity":0.429,"rhythm_variety":0.5},{"measure":142,"complexity":0.601,"voice_count":4,"note_density":0.594,"motif_saturation":0.0,"interval_diversity":0.714,"rhythm_variety":0.833},{"measure":143,"complexity":0.57,"voice_count":4,"note_density":0.688,"motif_saturation":0.0,"interval_diversity":0.714,"rhythm_variety":0.5},{"measure":144,"complexity":0.561,"voice_count":4,"note_density":0.625,"motif_saturation":0.0,"interval_diversity":0.571,"rhythm_variety":0.667},{"measure":145,"complexity":0.484,"voice_count":3,"note_density":0.469,"motif_saturation":0.067,"interval_diversity":0.571,"rhythm_variety":0.667},{"measure":146,"complexity":0.648,"voice_count":4,"note_density":0.531,"motif_saturation":0.353,"interval_diversity":0.857,"rhythm_variety":0.5},{"measure":147,"complexity":0.699,"voice_count":4,"note_density":0.531,"motif_saturation":0.471,"interval_diversity":1.0,"rhythm_variety":0.5},{"measure":148,"complexity":0.586,"voice_count":4,"note_density":0.562,"motif_saturation":0.167,"interval_diversity":0.714,"rhythm_variety":0.5},{"measure":149,"complexity":0.547,"voice_count":4,"note_density":0.469,"motif_saturation":0.0,"interval_diversity":0.857,"rhythm_variety":0.5},{"measure":150,"complexity":0.586,"voice_count":4,"note_density":0.531,"motif_saturation":0.176,"interval_diversity":0.571,"rhythm_variety":0.667},{"measure":151,"complexity":0.538,"voice_count":4,"note_density":0.469,"motif_saturation":0.133,"interval_diversity":0.571,"rhythm_variety":0.5},{"measure":152,"complexity":0.538,"voice_count":4,"note_density":0.469,"motif_saturation":0.133,"interval_diversity":0.571,"rhythm_variety":0.5},{"measure":153,"complexity":0.567,"voice_count":4,"note_density":0.688,"motif_saturation":0.091,"interval_diversity":0.714,"rhythm_variety":0.333},{"measure":154,"complexity":0.57,"voice_count":4,"note_density":0.688,"motif_saturation":0.0,"interval_diversity":0.714,"rhythm_variety":0.5},{"measure":155,"complexity":0.582,"voice_count":4,"note_density":0.625,"motif_saturation":0.0,"interval_diversity":0.714,"rhythm_variety":0.667},{"measure":156,"complexity":0.597,"voice_count":4,"note_density":0.719,"motif_saturation":0.0,"interval_diversity":0.857,"rhythm_variety":0.5},{"measure":157,"complexity":0.672,"voice_count":4,"note_density":0.812,"motif_saturation":0.308,"interval_diversity":0.714,"rhythm_variety":0.5},{"measure":158,"complexity":0.684,"voice_count":4,"note_density":0.531,"motif_saturation":0.412,"interval_diversity":1.0,"rhythm_variety":0.5},{"measure":159,"complexity":0.604,"voice_count":4,"note_density":0.469,"motif_saturation":0.4,"interval_diversity":0.571,"rhythm_variety":0.5},{"measure":160,"complexity":0.604,"voice_count":4,"note_density":0.469,"motif_saturation":0.4,"interval_diversity":0.571,"rhythm_variety":0.5},{"measure":161,"complexity":0.505,"voice_count":4,"note_density":0.5,"motif_saturation":0.062,"interval_diversity":0.429,"rhythm_variety":0.5},{"measure":162,"complexity":0.598,"voice_count":4,"note_density":0.5,"motif_saturation":0.062,"interval_diversity":0.714,"rhythm_variety":0.833},{"measure":163,"complexity":0.559,"voice_count":4,"note_density":0.469,"motif_saturation":0.133,"interval_diversity":0.714,"rhythm_variety":0.5},{"measure":164,"complexity":0.65,"voice_count":4,"note_density":0.531,"motif_saturation":0.176,"interval_diversity":1.0,"rhythm_variety":0.667},{"measure":165,"complexity":0.601,"voice_count":4,"note_density":0.469,"motif_saturation":0.2,"interval_diversity":0.714,"rhythm_variety":0.667},{"measure":166,"complexity":0.577,"voice_count":4,"note_density":0.438,"motif_saturation":0.214,"interval_diversity":0.571,"rhythm_variety":0.667},{"measure":167,"complexity":0.502,"voice_count":4,"note_density":0.562,"motif_saturation":0.0,"interval_diversity":0.429,"rhythm_variety":0.5},{"measure":168,"complexity":0.502,"voice_count":4,"note_density":0.562,"motif_saturation":0.0,"interval_diversity":0.429,"rhythm_variety":0.5},{"measure":169,"complexity":0.576,"voice_count":4,"note_density":0.594,"motif_saturation":0.0,"interval_diversity":0.714,"rhythm_variety":0.667},{"measure":170,"complexity":0.591,"voice_count":4,"note_density":0.938,"motif_saturation":0.0,"interval_diversity":0.857,"rhythm_variety":0.167},{"measure":171,"complexity":0.647,"voice_count":4,"note_density":0.5,"motif_saturation":0.188,"interval_diversity":1.0,"rhythm_variety":0.667},{"measure":172,"complexity":0.604,"voice_count":4,"note_density":0.531,"motif_saturation":0.176,"interval_diversity":0.857,"rhythm_variety":0.5},{"measure":173,"complexity":0.6,"voice_count":4,"note_density":0.5,"motif_saturation":0.188,"interval_diversity":0.857,"rhythm_variety":0.5},{"measure":174,"complexity":0.57,"voice_count":4,"note_density":0.625,"motif_saturation":0.05,"interval_diversity":0.714,"rhythm_variety":0.5},{"measure":175,"complexity":0.651,"voice_count":4,"note_density":0.594,"motif_saturation":0.316,"interval_diversity":0.857,"rhythm_variety":0.5},{"measure":176,"complexity":0.688,"voice_count":4,"note_density":0.625,"motif_saturation":0.25,"interval_diversity":1.0,"rhythm_variety":0.667},{"measure":177,"complexity":0.569,"voice_count":4,"note_density":0.594,"motif_saturation":0.158,"interval_diversity":0.571,"rhythm_variety":0.5},{"measure":178,"complexity":0.654,"voice_count":4,"note_density":0.625,"motif_saturation":0.2,"interval_diversity":0.857,"rhythm_variety":0.667},{"measure":179,"complexity":0.593,"voice_count":4,"note_density":0.531,"motif_saturation":0.118,"interval_diversity":0.714,"rhythm_variety":0.667},{"measure":180,"complexity":0.665,"voice_count":4,"note_density":0.656,"motif_saturation":0.333,"interval_diversity":1.0,"rhythm_variety":0.333},{"measure":181,"complexity":0.692,"voice_count":4,"note_density":0.688,"motif_saturation":0.318,"interval_diversity":1.0,"rhythm_variety":0.5},{"measure":182,"complexity":0.579,"voice_count":4,"note_density":0.5,"motif_saturation":0.188,"interval_diversity":0.714,"rhythm_variety":0.5},{"measure":183,"complexity":0.668,"voice_count":4,"note_density":0.562,"motif_saturation":0.222,"interval_diversity":1.0,"rhythm_variety":0.667},{"measure":184,"complexity":0.315,"voice_count":3,"note_density":0.094,"motif_saturation":0.333,"interval_diversity":0.0,"rhythm_variety":0.167}],"dissonance":[{"measure":1,"dissonance":0,"dissonant_pairs":0,"total_pairs":0},{"measure":2,"dissonance":0,"dissonant_pairs":0,"total_pairs":0},{"measure":3,"dissonance":0,"dissonant_pairs":0,"total_pairs":0},{"measure":4,"dissonance":0,"dissonant_pairs":0,"total_pairs":0},{"measure":5,"dissonance":0.125,"dissonant_pairs":0.5,"total_pairs":4},{"measure":6,"dissonance":0.16,"dissonant_pairs":0.8,"total_pairs":5},{"measure":7,"dissonance":0.217,"dissonant_pairs":1.3,"total_pairs":6},{"measure":8,"dissonance":0.2,"dissonant_pairs":1.0,"total_pairs":5},{"measure":9,"dissonance":0.133,"dissonant_pairs":1.6,"total_pairs":12},{"measure":10,"dissonance":0.2,"dissonant_pairs":3.4,"total_pairs":17},{"measure":11,"dissonance":0.217,"dissonant_pairs":2.6,"total_pairs":12},{"measure":12,"dissonance":0.15,"dissonant_pairs":1.8,"total_pairs":12},{"measure":13,"dissonance":0.092,"dissonant_pairs":2.3,"total_pairs":25},{"measure":14,"dissonance":0.181,"dissonant_pairs":4.9,"total_pairs":27},{"measure":15,"dissonance":0.231,"dissonant_pairs":6.0,"total_pairs":26},{"measure":16,"dissonance":0.054,"dissonant_pairs":1.5,"total_pairs":28},{"measure":17,"dissonance":0.17,"dissonant_pairs":4.6,"total_pairs":27},{"measure":18,"dissonance":0.131,"dissonant_pairs":2.1,"total_pairs":16},{"measure":19,"dissonance":0.03,"dissonant_pairs":0.8,"total_pairs":27},{"measure":20,"dissonance":0.062,"dissonant_pairs":0.8,"total_pairs":13},{"measure":21,"dissonance":0.124,"dissonant_pairs":3.1,"total_pairs":25},{"measure":22,"dissonance":0.108,"dissonant_pairs":3.9,"total_pairs":36},{"measure":23,"dissonance":0.054,"dissonant_pairs":1.5,"total_pairs":28},{"measure":24,"dissonance":0.107,"dissonant_pairs":4.5,"total_pairs":42},{"measure":25,"dissonance":0.078,"dissonant_pairs":2.8,"total_pairs":36},{"measure":26,"dissonance":0.233,"dissonant_pairs":9.1,"total_pairs":39},{"measure":27,"dissonance":0.0,"dissonant_pairs":0,"total_pairs":9},{"measure":28,"dissonance":0.0,"dissonant_pairs":0,"total_pairs":3},{"measure":29,"dissonance":0.0,"dissonant_pairs":0,"total_pairs":4},{"measure":30,"dissonance":0.226,"dissonant_pairs":5.2,"total_pairs":23},{"measure":31,"dissonance":0.21,"dissonant_pairs":4.4,"total_pairs":21},{"measure":32,"dissonance":0.045,"dissonant_pairs":0.5,"total_pairs":11},{"measure":33,"dissonance":0.286,"dissonant_pairs":2.0,"total_pairs":7},{"measure":34,"dissonance":0.062,"dissonant_pairs":1.0,"total_pairs":16},{"measure":35,"dissonance":0.142,"dissonant_pairs":4.7,"total_pairs":33},{"measure":36,"dissonance":0.209,"dissonant_pairs":9.4,"total_pairs":45},{"measure":37,"dissonance":0.202,"dissonant_pairs":8.5,"total_pairs":42},{"measure":38,"dissonance":0.257,"dissonant_pairs":10.8,"total_pairs":42},{"measure":39,"dissonance":0.118,"dissonant_pairs":2.6,"total_pairs":22},{"measure":40,"dissonance":0.155,"dissonant_pairs":3.1,"total_pairs":20},{"measure":41,"dissonance":0.092,"dissonant_pairs":3.6,"total_pairs":39},{"measure":42,"dissonance":0.173,"dissonant_pairs":5.2,"total_pairs":30},{"measure":43,"dissonance":0.175,"dissonant_pairs":4.9,"total_pairs":28},{"measure":44,"dissonance":0.175,"dissonant_pairs":7.0,"total_pairs":40},{"measure":45,"dissonance":0.128,"dissonant_pairs":5.0,"total_pairs":39},{"measure":46,"dissonance":0.172,"dissonant_pairs":6.9,"total_pairs":40},{"measure":47,"dissonance":0.054,"dissonant_pairs":1.3,"total_pairs":24},{"measure":48,"dissonance":0.106,"dissonant_pairs":5.1,"total_pairs":48},{"measure":49,"dissonance":0.169,"dissonant_pairs":7.1,"total_pairs":42},{"measure":50,"dissonance":0.164,"dissonant_pairs":7.4,"total_pairs":45},{"measure":51,"dissonance":0.167,"dissonant_pairs":9.5,"total_pairs":57},{"measure":52,"dissonance":0.084,"dissonant_pairs":3.1,"total_pairs":37},{"measure":53,"dissonance":0.129,"dissonant_pairs":3.1,"total_pairs":24},{"measure":54,"dissonance":0.091,"dissonant_pairs":3.1,"total_pairs":34},{"measure":55,"dissonance":0.08,"dissonant_pairs":2.4,"total_pairs":30},{"measure":56,"dissonance":0.188,"dissonant_pairs":9.6,"total_pairs":51},{"measure":57,"dissonance":0.096,"dissonant_pairs":2.4,"total_pairs":25},{"measure":58,"dissonance":0.124,"dissonant_pairs":3.1,"total_pairs":25},{"measure":59,"dissonance":0.0,"dissonant_pairs":0,"total_pairs":30},{"measure":60,"dissonance":0.151,"dissonant_pairs":5.6,"total_pairs":37},{"measure":61,"dissonance":0.236,"dissonant_pairs":5.2,"total_pairs":22},{"measure":62,"dissonance":0.057,"dissonant_pairs":2.0,"total_pairs":35},{"measure":63,"dissonance":0.06,"dissonant_pairs":1.8,"total_pairs":30},{"measure":64,"dissonance":0.092,"dissonant_pairs":3.4,"total_pairs":37},{"measure":65,"dissonance":0.023,"dissonant_pairs":0.5,"total_pairs":22},{"measure":66,"dissonance":0.143,"dissonant_pairs":5.0,"total_pairs":35},{"measure":67,"dissonance":0.079,"dissonant_pairs":2.6,"total_pairs":33},{"measure":68,"dissonance":0.108,"dissonant_pairs":5.2,"total_pairs":48},{"measure":69,"dissonance":0.1,"dissonant_pairs":4.8,"total_pairs":48},{"measure":70,"dissonance":0.133,"dissonant_pairs":4.8,"total_pairs":36},{"measure":71,"dissonance":0.089,"dissonant_pairs":1.6,"total_pairs":18},{"measure":72,"dissonance":0.12,"dissonant_pairs":1.8,"total_pairs":15},{"measure":73,"dissonance":0.103,"dissonant_pairs":3.1,"total_pairs":30},{"measure":74,"dissonance":0.141,"dissonant_pairs":3.1,"total_pairs":22},{"measure":75,"dissonance":0.177,"dissonant_pairs":5.3,"total_pairs":30},{"measure":76,"dissonance":0.119,"dissonant_pairs":4.3,"total_pairs":36},{"measure":77,"dissonance":0.122,"dissonant_pairs":3.3,"total_pairs":27},{"measure":78,"dissonance":0.282,"dissonant_pairs":10.7,"total_pairs":38},{"measure":79,"dissonance":0.091,"dissonant_pairs":2.0,"total_pairs":22},{"measure":80,"dissonance":0.103,"dissonant_pairs":3.4,"total_pairs":33},{"measure":81,"dissonance":0.098,"dissonant_pairs":4.2,"total_pairs":43},{"measure":82,"dissonance":0.124,"dissonant_pairs":5.2,"total_pairs":42},{"measure":83,"dissonance":0.214,"dissonant_pairs":7.7,"total_pairs":36},{"measure":84,"dissonance":0.084,"dissonant_pairs":3.8,"total_pairs":45},{"measure":85,"dissonance":0.174,"dissonant_pairs":6.6,"total_pairs":38},{"measure":86,"dissonance":0.128,"dissonant_pairs":4.1,"total_pairs":32},{"measure":87,"dissonance":0.147,"dissonant_pairs":2.8,"total_pairs":19},{"measure":88,"dissonance":0.106,"dissonant_pairs":3.8,"total_pairs":36},{"measure":89,"dissonance":0.08,"dissonant_pairs":0.8,"total_pairs":10},{"measure":90,"dissonance":0.145,"dissonant_pairs":1.6,"total_pairs":11},{"measure":91,"dissonance":0.068,"dissonant_pairs":1.5,"total_pairs":22},{"measure":92,"dissonance":0.054,"dissonant_pairs":1.3,"total_pairs":24},{"measure":93,"dissonance":0.13,"dissonant_pairs":3.9,"total_pairs":30},{"measure":94,"dissonance":0.11,"dissonant_pairs":5.6,"total_pairs":51},{"measure":95,"dissonance":0.108,"dissonant_pairs":3.9,"total_pairs":36},{"measure":96,"dissonance":0.163,"dissonant_pairs":4.9,"total_pairs":30},{"measure":97,"dissonance":0.097,"dissonant_pairs":3.3,"total_pairs":34},{"measure":98,"dissonance":0.154,"dissonant_pairs":6.0,"total_pairs":39},{"measure":99,"dissonance":0.137,"dissonant_pairs":5.9,"total_pairs":43},{"measure":100,"dissonance":0.135,"dissonant_pairs":5.4,"total_pairs":40},{"measure":101,"dissonance":0.155,"dissonant_pairs":9.3,"total_pairs":60},{"measure":102,"dissonance":0.167,"dissonant_pairs":5.5,"total_pairs":33},{"measure":103,"dissonance":0.196,"dissonant_pairs":5.5,"total_pairs":28},{"measure":104,"dissonance":0.188,"dissonant_pairs":8.1,"total_pairs":43},{"measure":105,"dissonance":0.178,"dissonant_pairs":6.4,"total_pairs":36},{"measure":106,"dissonance":0.129,"dissonant_pairs":5.8,"total_pairs":45},{"measure":107,"dissonance":0.011,"dissonant_pairs":0.5,"total_pairs":45},{"measure":108,"dissonance":0.185,"dissonant_pairs":8.9,"total_pairs":48},{"measure":109,"dissonance":0.058,"dissonant_pairs":1.8,"total_pairs":31},{"measure":110,"dissonance":0.109,"dissonant_pairs":2.4,"total_pairs":22},{"measure":111,"dissonance":0.13,"dissonant_pairs":3.9,"total_pairs":30},{"measure":112,"dissonance":0.011,"dissonant_pairs":0.5,"total_pairs":45},{"measure":113,"dissonance":0.145,"dissonant_pairs":6.1,"total_pairs":42},{"measure":114,"dissonance":0.109,"dissonant_pairs":4.9,"total_pairs":45},{"measure":115,"dissonance":0.135,"dissonant_pairs":6.5,"total_pairs":48},{"measure":116,"dissonance":0.179,"dissonant_pairs":7.0,"total_pairs":39},{"measure":117,"dissonance":0.147,"dissonant_pairs":4.4,"total_pairs":30},{"measure":118,"dissonance":0.183,"dissonant_pairs":7.7,"total_pairs":42},{"measure":119,"dissonance":0.175,"dissonant_pairs":8.4,"total_pairs":48},{"measure":120,"dissonance":0.081,"dissonant_pairs":4.4,"total_pairs":54},{"measure":121,"dissonance":0.12,"dissonant_pairs":3.6,"total_pairs":30},{"measure":122,"dissonance":0.133,"dissonant_pairs":5.2,"total_pairs":39},{"measure":123,"dissonance":0.1,"dissonant_pairs":2.4,"total_pairs":24},{"measure":124,"dissonance":0.174,"dissonant_pairs":7.3,"total_pairs":42},{"measure":125,"dissonance":0.096,"dissonant_pairs":4.6,"total_pairs":48},{"measure":126,"dissonance":0.057,"dissonant_pairs":2.4,"total_pairs":42},{"measure":127,"dissonance":0.165,"dissonant_pairs":7.9,"total_pairs":48},{"measure":128,"dissonance":0.1,"dissonant_pairs":4.6,"total_pairs":46},{"measure":129,"dissonance":0.147,"dissonant_pairs":6.6,"total_pairs":45},{"measure":130,"dissonance":0.186,"dissonant_pairs":7.8,"total_pairs":42},{"measure":131,"dissonance":0.033,"dissonant_pairs":1.6,"total_pairs":48},{"measure":132,"dissonance":0.088,"dissonant_pairs":3.7,"total_pairs":42},{"measure":133,"dissonance":0.124,"dissonant_pairs":5.2,"total_pairs":42},{"measure":134,"dissonance":0.188,"dissonant_pairs":6.2,"total_pairs":33},{"measure":135,"dissonance":0.095,"dissonant_pairs":3.6,"total_pairs":38},{"measure":136,"dissonance":0.072,"dissonant_pairs":2.6,"total_pairs":36},{"measure":137,"dissonance":0.091,"dissonant_pairs":4.1,"total_pairs":45},{"measure":138,"dissonance":0.062,"dissonant_pairs":1.5,"total_pairs":24},{"measure":139,"dissonance":0.054,"dissonant_pairs":1.3,"total_pairs":24},{"measure":140,"dissonance":0.088,"dissonant_pairs":2.1,"total_pairs":24},{"measure":141,"dissonance":0.173,"dissonant_pairs":5.2,"total_pairs":30},{"measure":142,"dissonance":0.15,"dissonant_pairs":6.3,"total_pairs":42},{"measure":143,"dissonance":0.158,"dissonant_pairs":5.2,"total_pairs":33},{"measure":144,"dissonance":0.131,"dissonant_pairs":5.9,"total_pairs":45},{"measure":145,"dissonance":0.183,"dissonant_pairs":4.4,"total_pairs":24},{"measure":146,"dissonance":0.117,"dissonant_pairs":4.2,"total_pairs":36},{"measure":147,"dissonance":0.088,"dissonant_pairs":3.7,"total_pairs":42},{"measure":148,"dissonance":0.264,"dissonant_pairs":11.1,"total_pairs":42},{"measure":149,"dissonance":0.067,"dissonant_pairs":1.8,"total_pairs":27},{"measure":150,"dissonance":0.127,"dissonant_pairs":4.2,"total_pairs":33},{"measure":151,"dissonance":0.0,"dissonant_pairs":0,"total_pairs":22},{"measure":152,"dissonance":0.121,"dissonant_pairs":3.4,"total_pairs":28},{"measure":153,"dissonance":0.191,"dissonant_pairs":6.3,"total_pairs":33},{"measure":154,"dissonance":0.195,"dissonant_pairs":8.4,"total_pairs":43},{"measure":155,"dissonance":0.174,"dissonant_pairs":6.8,"total_pairs":39},{"measure":156,"dissonance":0.185,"dissonant_pairs":7.2,"total_pairs":39},{"measure":157,"dissonance":0.164,"dissonant_pairs":7.4,"total_pairs":45},{"measure":158,"dissonance":0.133,"dissonant_pairs":4.4,"total_pairs":33},{"measure":159,"dissonance":0.103,"dissonant_pairs":3.5,"total_pairs":34},{"measure":160,"dissonance":0.209,"dissonant_pairs":6.7,"total_pairs":32},{"measure":161,"dissonance":0.07,"dissonant_pairs":2.6,"total_pairs":37},{"measure":162,"dissonance":0.086,"dissonant_pairs":3.6,"total_pairs":42},{"measure":163,"dissonance":0.128,"dissonant_pairs":5.1,"total_pairs":40},{"measure":164,"dissonance":0.151,"dissonant_pairs":5.6,"total_pairs":37},{"measure":165,"dissonance":0.23,"dissonant_pairs":8.5,"total_pairs":37},{"measure":166,"dissonance":0.197,"dissonant_pairs":6.1,"total_pairs":31},{"measure":167,"dissonance":0.07,"dissonant_pairs":2.3,"total_pairs":33},{"measure":168,"dissonance":0.211,"dissonant_pairs":5.7,"total_pairs":27},{"measure":169,"dissonance":0.153,"dissonant_pairs":5.5,"total_pairs":36},{"measure":170,"dissonance":0.056,"dissonant_pairs":2.4,"total_pairs":43},{"measure":171,"dissonance":0.105,"dissonant_pairs":4.4,"total_pairs":42},{"measure":172,"dissonance":0.097,"dissonant_pairs":3.1,"total_pairs":32},{"measure":173,"dissonance":0.081,"dissonant_pairs":2.6,"total_pairs":32},{"measure":174,"dissonance":0.117,"dissonant_pairs":4.9,"total_pairs":42},{"measure":175,"dissonance":0.14,"dissonant_pairs":5.9,"total_pairs":42},{"measure":176,"dissonance":0.065,"dissonant_pairs":2.6,"total_pairs":40},{"measure":177,"dissonance":0.18,"dissonant_pairs":7.2,"total_pairs":40},{"measure":178,"dissonance":0.055,"dissonant_pairs":2.3,"total_pairs":42},{"measure":179,"dissonance":0.231,"dissonant_pairs":9.7,"total_pairs":42},{"measure":180,"dissonance":0.071,"dissonant_pairs":3.2,"total_pairs":45},{"measure":181,"dissonance":0.186,"dissonant_pairs":7.8,"total_pairs":42},{"measure":182,"dissonance":0.231,"dissonant_pairs":9.7,"total_pairs":42},{"measure":183,"dissonance":0.056,"dissonant_pairs":1.5,"total_pairs":27},{"measure":184,"dissonance":0.0,"dissonant_pairs":0,"total_pairs":3}]}