{"metadata":{"title":"The Art of the Fugue, Contrapunctus X","number":"X","composer":"J.S. Bach","source_midi":"kunst_der_fuge_x_mutopia.mid","tempo_bpm":120.0,"tempo_us_per_beat":500000,"ticks_per_beat":384,"time_signature":"4/4","key_signature":"D minor","total_duration_seconds":260.7271,"total_measures":120,"beats_per_measure":4},"voices":[{"id":0,"name":"Soprano","midi_channel":0,"midi_track":1,"color":"#E85D4A","pitch_min":59,"pitch_max":84,"note_count":459},{"id":1,"name":"Alto","midi_channel":1,"midi_track":2,"color":"#4A90D9","pitch_min":57,"pitch_max":81,"note_count":439},{"id":2,"name":"Tenor","midi_channel":2,"midi_track":3,"color":"#27AE60","pitch_min":46,"pitch_max":69,"note_count":459},{"id":3,"name":"Bass","midi_channel":3,"midi_track":4,"color":"#8E44AD","pitch_min":38,"pitch_max":67,"note_count":371}],"notes":[{"voice":1,"pitch":61,"start":0.5455,"duration":0.5455,"velocity":127,"measure":1,"beat":2.0,"subject_pos":-1,"motif":"enigmatic_cell","motif_pos":0,"best_pos":0,"similarity":1.0,"stretto":false,"stretto_voices":0,"combination":[],"aug_dim":"","rhythm_ratio":1.0,"mirror":false,"chromatic_density":0.5,"complexity":0.399,"dissonance":0},{"voice":1,"pitch":62,"start":1.0909,"duration":0.5455,"velocity":127,"measure":1,"beat":3.0,"subject_pos":-1,"motif":"enigmatic_cell","motif_pos":1,"best_pos":1,"similarity":1.0,"stretto":false,"stretto_voices":0,"combination":[],"aug_dim":"","rhythm_ratio":1.0,"mirror":false,"chromatic_density":0.5,"complexity":0.399,"dissonance":0},{"voice":1,"pitch":57,"start":1.6364,"duration":0.5455,"velocity":127,"measure":1,"beat":4.0,"subject_pos":-1,"motif":"enigmatic_cell","motif_pos":2,"best_pos":2,"similarity":1.0,"stretto":false,"stretto_voices":0,"combination":[],"aug_dim":"","rhythm_ratio":1.0,"mirror":false,"chromatic_density":0.5,"complexity":0.399,"dissonance":0},{"voice":1,"pitch":65,"start":2.7273,"duration":0.5455,"velocity":127,"measure":2,"beat":2.0,"subject_pos":-1,"motif":"","motif_pos":-1,"best_pos":3,"similarity":0.379,"stretto":false,"stretto_voices":0,"combination":[],"aug_dim":"","rhythm_ratio":1.0,"mirror":false,"chromatic_density":0.5,"complexity":0.232,"dissonance":0},{"voice":1,"pitch":64,"start":3.2727,"duration":0.5455,"velocity":127,"measure":2,"beat":3.0,"subject_pos":-1,"motif":"","motif_pos":-1,"best_pos":4,"similarity":0.386,"stretto":false,"stretto_voices":0,"combination":[],"aug_dim":"","rhythm_ratio":1.0,"mirror":false,"chromatic_density":0.5,"complexity":0.232,"dissonance":0},{"voice":1,"pitch":69,"start":3.8182,"duration":0.5455,"velocity":127,"measure":2,"beat":4.0,"subject_pos":-1,"motif":"head_inv","motif_pos":0,"best_pos":0,"similarity":1.0,"stretto":false,"stretto_voices":0,"combination":[],"aug_dim":"","rhythm_ratio":1.0,"mirror":false,"chromatic_density":0.5,"complexity":0.232,"dissonance":0},{"voice":1,"pitch":62,"start":4.3636,"duration":0.2727,"velocity":127,"measure":3,"beat":1.0,"subject_pos":-1,"motif":"head_inv","motif_pos":1,"best_pos":1,"similarity":1.0,"stretto":false,"stretto_voices":0,"combination":[],"aug_dim":"","rhythm_ratio":1.0,"mirror":false,"chromatic_density":0.333,"complexity":0.449,"dissonance":0.8},{"voice":1,"pitch":64,"start":4.6364,"duration":0.2727,"velocity":127,"measure":3,"beat":1.5,"subject_pos":-1,"motif":"head_inv","motif_pos":2,"best_pos":2,"similarity":1.0,"stretto":false,"stretto_voices":0,"combination":[],"aug_dim":"","rhythm_ratio":1.0,"mirror":false,"chromatic_density":0.333,"complexity":0.449,"dissonance":0.8},{"voice":1,"pitch":65,"start":4.9091,"duration":0.2727,"velocity":127,"measure":3,"beat":2.0,"subject_pos":-1,"motif":"head_inv","motif_pos":3,"best_pos":3,"similarity":1.0,"stretto":false,"stretto_voices":0,"combination":[],"aug_dim":"","rhythm_ratio":1.0,"mirror":false,"chromatic_density":0.333,"complexity":0.449,"dissonance":0.8},{"voice":1,"pitch":67,"start":5.1818,"duration":0.2727,"velocity":127,"measure":3,"beat":2.5,"subject_pos":-1,"motif":"head_inv","motif_pos":4,"best_pos":4,"similarity":1.0,"stretto":false,"stretto_voices":0,"combination":[],"aug_dim":"","rhythm_ratio":1.0,"mirror":false,"chromatic_density":0.333,"complexity":0.449,"dissonance":0.8},{"voice":1,"pitch":69,"start":5.4545,"duration":0.2727,"velocity":127,"measure":3,"beat":3.0,"subject_pos":-1,"motif":"","motif_pos":-1,"best_pos":6,"similarity":0.661,"stretto":false,"stretto_voices":0,"combination":[],"aug_dim":"","rhythm_ratio":1.0,"mirror":false,"chromatic_density":0.333,"complexity":0.449,"dissonance":0.8},{"voice":1,"pitch":70,"start":5.7273,"duration":0.2727,"velocity":127,"measure":3,"beat":3.5,"subject_pos":-1,"motif":"","motif_pos":-1,"best_pos":5,"similarity":0.6,"stretto":false,"stretto_voices":0,"combination":[],"aug_dim":"","rhythm_ratio":1.0,"mirror":false,"chromatic_density":0.333,"complexity":0.449,"dissonance":0.8},{"voice":1,"pitch":72,"start":6.0,"duration":0.8182,"velocity":127,"measure":3,"beat":4.0,"subject_pos":-1,"motif":"","motif_pos":-1,"best_pos":6,"similarity":0.464,"stretto":false,"stretto_voices":0,"combination":[],"aug_dim":"","rhythm_ratio":1.0,"mirror":false,"chromatic_density":0.333,"complexity":0.449,"dissonance":0.8},{"voice":2,"pitch":54,"start":6.0,"duration":0.5455,"velocity":127,"measure":3,"beat":4.0,"subject_pos":-1,"motif":"enigmatic_cell","motif_pos":0,"best_pos":0,"similarity":1.0,"stretto":false,"stretto_voices":0,"combination":[],"aug_dim":"","rhythm_ratio":1.0,"mirror":false,"chromatic_density":0.333,"complexity":0.449,"dissonance":0.8},{"voice":2,"pitch":55,"start":6.5454,"duration":0.5455,"velocity":127,"measure":4,"beat":1.0,"subject_pos":-1,"motif":"enigmatic_cell","motif_pos":1,"best_pos":1,"similarity":1.0,"stretto":false,"stretto_voices":0,"combination":[],"aug_dim":"","rhythm_ratio":1.0,"mirror":false,"chromatic_density":0.286,"complexity":0.419,"dissonance":0.0},{"voice":1,"pitch":70,"start":6.8182,"duration":0.2727,"velocity":127,"measure":4,"beat":1.5,"subject_pos":-1,"motif":"","motif_pos":-1,"best_pos":3,"similarity":0.471,"stretto":false,"stretto_voices":0,"combination":[],"aug_dim":"","rhythm_ratio":1.0,"mirror":false,"chromatic_density":0.286,"complexity":0.419,"dissonance":0.0},{"voice":1,"pitch":69,"start":7.0909,"duration":0.2727,"velocity":127,"measure":4,"beat":2.0,"subject_pos":-1,"motif":"","motif_pos":-1,"best_pos":2,"similarity":0.429,"stretto":false,"stretto_voices":0,"combination":[],"aug_dim":"","rhythm_ratio":1.0,"mirror":false,"chromatic_density":0.286,"complexity":0.419,"dissonance":0.0},{"voice":2,"pitch":50,"start":7.0909,"duration":0.5455,"velocity":127,"measure":4,"beat":2.0,"subject_pos":-1,"motif":"enigmatic_cell","motif_pos":2,"best_pos":2,"similarity":1.0,"stretto":false,"stretto_voices":0,"combination":[],"aug_dim":"","rhythm_ratio":1.0,"mirror":false,"chromatic_density":0.286,"complexity":0.419,"dissonance":0.0},{"voice":1,"pitch":67,"start":7.3636,"duration":0.2727,"velocity":127,"measure":4,"beat":2.5,"subject_pos":-1,"motif":"","motif_pos":-1,"best_pos":3,"similarity":0.507,"stretto":false,"stretto_voices":0,"combination":[],"aug_dim":"","rhythm_ratio":1.0,"mirror":false,"chromatic_density":0.286,"complexity":0.419,"dissonance":0.0},{"voice":1,"pitch":66,"start":7.6364,"duration":0.2727,"velocity":127,"measure":4,"beat":3.0,"subject_pos":-1,"motif":"","motif_pos":-1,"best_pos":4,"similarity":0.414,"stretto":false,"stretto_voices":0,"combination":[],"aug_dim":"","rhythm_ratio":1.0,"mirror":false,"chromatic_density":0.286,"complexity":0.419,"dissonance":0.0},{"voice":1,"pitch":62,"start":7.9091,"duration":0.2727,"velocity":127,"measure":4,"beat":3.5,"subject_pos":-1,"motif":"","motif_pos":-1,"best_pos":0,"similarity":0.357,"stretto":false,"stretto_voices":0,"combination":[],"aug_dim":"","rhythm_ratio":1.0,"mirror":false,"chromatic_density":0.286,"complexity":0.419,"dissonance":0.0},{"voice":1,"pitch":67,"start":8.1818,"duration":0.8182,"velocity":127,"measure":4,"beat":4.0,"subject_pos":-1,"motif":"","motif_pos":-1,"best_pos":1,"similarity":0.436,"stretto":false,"stretto_voices":0,"combination":[],"aug_dim":"","rhythm_ratio":1.0,"mirror":false,"chromatic_density":0.286,"complexity":0.419,"dissonance":0.0},{"voice":2,"pitch":58,"start":8.1818,"duration":0.5455,"velocity":127,"measure":4,"beat":4.0,"subject_pos":-1,"motif":"","motif_pos":-1,"best_pos":3,"similarity":0.379,"stretto":false,"stretto_voices":0,"combination":[],"aug_dim":"","rhythm_ratio":1.0,"mirror":false,"chromatic_density":0.286,"complexity":0.419,"dissonance":0.0},{"voice":2,"pitch":57,"start":8.7273,"duration":0.5455,"velocity":127,"measure":5,"beat":1.0,"subject_pos":-1,"motif":"","motif_pos":-1,"best_pos":4,"similarity":0.386,"stretto":false,"stretto_voices":0,"combination":[],"aug_dim":"","rhythm_ratio":1.0,"mirror":false,"chromatic_density":0.25,"complexity":0.495,"dissonance":0.214},{"voice":1,"pitch":64,"start":9.0,"duration":0.2727,"velocity":127,"measure":5,"beat":1.5,"subject_pos":-1,"motif":"","motif_pos":-1,"best_pos":4,"similarity":0.429,"stretto":false,"stretto_voices":0,"combination":[],"aug_dim":"","rhythm_ratio":1.0,"mirror":false,"chromatic_density":0.25,"complexity":0.495,"dissonance":0.214},{"voice":1,"pitch":66,"start":9.2727,"duration":0.2727,"velocity":127,"measure":5,"beat":2.0,"subject_pos":-1,"motif":"","motif_pos":-1,"best_pos":5,"similarity":0.464,"stretto":false,"stretto_voices":0,"combination":[],"aug_dim":"","rhythm_ratio":1.0,"mirror":false,"chromatic_density":0.25,"complexity":0.495,"dissonance":0.214},{"voice":2,"pitch":62,"start":9.2727,"duration":0.5455,"velocity":127,"measure":5,"beat":2.0,"subject_pos":-1,"motif":"head_inv","motif_pos":0,"best_pos":0,"similarity":1.0,"stretto":false,"stretto_voices":0,"combination":[],"aug_dim":"","rhythm_ratio":1.0,"mirror":false,"chromatic_density":0.25,"complexity":0.495,"dissonance":0.214},{"voice":1,"pitch":69,"start":9.5454,"duration":0.2727,"velocity":127,"measure":5,"beat":2.5,"subject_pos":-1,"motif":"","motif_pos":-1,"best_pos":6,"similarity":0.518,"stretto":false,"stretto_voices":0,"combination":[],"aug_dim":"","rhythm_ratio":1.0,"mirror":false,"chromatic_density":0.25,"complexity":0.495,"dissonance":0.214},{"voice":1,"pitch":70,"start":9.8182,"duration":1.3636,"velocity":127,"measure":5,"beat":3.0,"subject_pos":-1,"motif":"","motif_pos":-1,"best_pos":7,"similarity":0.393,"stretto":false,"stretto_voices":0,"combination":[],"aug_dim":"","rhythm_ratio":1.0,"mirror":false,"chromatic_density":0.25,"complexity":0.495,"dissonance":0.214},{"voice":2,"pitch":55,"start":9.8182,"duration":0.2727,"velocity":127,"measure":5,"beat":3.0,"subject_pos":-1,"motif":"head_inv","motif_pos":1,"best_pos":1,"similarity":1.0,"stretto":false,"stretto_voices":0,"combination":[],"aug_dim":"","rhythm_ratio":1.0,"mirror":false,"chromatic_density":0.25,"complexity":0.495,"dissonance":0.214},{"voice":2,"pitch":57,"start":10.0909,"duration":0.2727,"velocity":127,"measure":5,"beat":3.5,"subject_pos":-1,"motif":"head_inv","motif_pos":2,"best_pos":2,"similarity":1.0,"stretto":false,"stretto_voices":0,"combination":[],"aug_dim":"","rhythm_ratio":1.0,"mirror":false,"chromatic_density":0.25,"complexity":0.495,"dissonance":0.214},{"voice":2,"pitch":58,"start":10.3636,"duration":0.2727,"velocity":127,"measure":5,"beat":4.0,"subject_pos":-1,"motif":"head_inv","motif_pos":3,"best_pos":3,"similarity":1.0,"stretto":false,"stretto_voices":0,"combination":[],"aug_dim":"","rhythm_ratio":1.0,"mirror":false,"chromatic_density":0.25,"complexity":0.495,"dissonance":0.214},{"voice":2,"pitch":60,"start":10.6364,"duration":0.2727,"velocity":127,"measure":5,"beat":4.5,"subject_pos":-1,"motif":"head_inv","motif_pos":4,"best_pos":4,"similarity":1.0,"stretto":false,"stretto_voices":0,"combination":[],"aug_dim":"","rhythm_ratio":1.0,"mirror":false,"chromatic_density":0.25,"complexity":0.495,"dissonance":0.214},{"voice":2,"pitch":62,"start":10.9091,"duration":0.2727,"velocity":127,"measure":6,"beat":1.0,"subject_pos":-1,"motif":"","motif_pos":-1,"best_pos":5,"similarity":0.593,"stretto":false,"stretto_voices":0,"combination":[],"aug_dim":"","rhythm_ratio":1.0,"mirror":false,"chromatic_density":0.375,"complexity":0.327,"dissonance":0.143},{"voice":1,"pitch":67,"start":11.1818,"duration":0.2727,"velocity":127,"measure":6,"beat":1.5,"subject_pos":-1,"motif":"","motif_pos":-1,"best_pos":3,"similarity":0.396,"stretto":false,"stretto_voices":0,"combination":[],"aug_dim":"","rhythm_ratio":1.0,"mirror":false,"chromatic_density":0.375,"complexity":0.327,"dissonance":0.143},{"voice":2,"pitch":64,"start":11.1818,"duration":0.2727,"velocity":127,"measure":6,"beat":1.5,"subject_pos":-1,"motif":"","motif_pos":-1,"best_pos":6,"similarity":0.65,"stretto":false,"stretto_voices":0,"combination":[],"aug_dim":"","rhythm_ratio":1.0,"mirror":false,"chromatic_density":0.375,"complexity":0.327,"dissonance":0.143},{"voice":1,"pitch":69,"start":11.4545,"duration":0.2727,"velocity":127,"measure":6,"beat":2.0,"subject_pos":-1,"motif":"","motif_pos":-1,"best_pos":5,"similarity":0.4,"stretto":false,"stretto_voices":0,"combination":[],"aug_dim":"","rhythm_ratio":1.0,"mirror":false,"chromatic_density":0.375,"complexity":0.327,"dissonance":0.143},{"voice":2,"pitch":65,"start":11.4545,"duration":0.8182,"velocity":127,"measure":6,"beat":2.0,"subject_pos":-1,"motif":"","motif_pos":-1,"best_pos":7,"similarity":0.464,"stretto":false,"stretto_voices":0,"combination":[],"aug_dim":"","rhythm_ratio":1.0,"mirror":false,"chromatic_density":0.375,"complexity":0.327,"dissonance":0.143},{"voice":1,"pitch":73,"start":11.7273,"duration":0.2727,"velocity":127,"measure":6,"beat":2.5,"subject_pos":-1,"motif":"","motif_pos":-1,"best_pos":6,"similarity":0.446,"stretto":false,"stretto_voices":0,"combination":[],"aug_dim":"","rhythm_ratio":1.0,"mirror":false,"chromatic_density":0.375,"complexity":0.327,"dissonance":0.143},{"voice":1,"pitch":74,"start":12.0,"duration":1.3636,"velocity":127,"measure":6,"beat":3.0,"subject_pos":-1,"motif":"","motif_pos":-1,"best_pos":1,"similarity":0.457,"stretto":false,"stretto_voices":0,"combination":[],"aug_dim":"","rhythm_ratio":1.0,"mirror":false,"chromatic_density":0.375,"complexity":0.327,"dissonance":0.143},{"voice":2,"pitch":64,"start":12.2727,"duration":0.2727,"velocity":127,"measure":6,"beat":3.5,"subject_pos":-1,"motif":"","motif_pos":-1,"best_pos":1,"similarity":0.393,"stretto":false,"stretto_voices":0,"combination":[],"aug_dim":"","rhythm_ratio":1.0,"mirror":false,"chromatic_density":0.375,"complexity":0.327,"dissonance":0.143},{"voice":2,"pitch":62,"start":12.5454,"duration":0.2727,"velocity":127,"measure":6,"beat":4.0,"subject_pos":-1,"motif":"","motif_pos":-1,"best_pos":2,"similarity":0.518,"stretto":false,"stretto_voices":0,"combination":[],"aug_dim":"","rhythm_ratio":1.0,"mirror":false,"chromatic_density":0.375,"complexity":0.327,"dissonance":0.143},{"voice":2,"pitch":60,"start":12.8182,"duration":0.2727,"velocity":127,"measure":6,"beat":4.5,"subject_pos":-1,"motif":"","motif_pos":-1,"best_pos":2,"similarity":0.579,"stretto":false,"stretto_voices":0,"combination":[],"aug_dim":"","rhythm_ratio":1.0,"mirror":false,"chromatic_density":0.375,"complexity":0.327,"dissonance":0.143},{"voice":2,"pitch":58,"start":13.0909,"duration":0.2727,"velocity":127,"measure":7,"beat":1.0,"subject_pos":-1,"motif":"enigmatic_cell","motif_pos":0,"best_pos":0,"similarity":1.0,"stretto":false,"stretto_voices":0,"combination":[],"aug_dim":"","rhythm_ratio":1.0,"mirror":false,"chromatic_density":0.455,"complexity":0.557,"dissonance":0.079},{"voice":1,"pitch":72,"start":13.3636,"duration":0.2727,"velocity":127,"measure":7,"beat":1.5,"subject_pos":-1,"motif":"","motif_pos":-1,"best_pos":2,"similarity":0.593,"stretto":false,"stretto_voices":0,"combination":[],"aug_dim":"","rhythm_ratio":1.0,"mirror":false,"chromatic_density":0.455,"complexity":0.557,"dissonance":0.079},{"voice":2,"pitch":57,"start":13.3636,"duration":0.2727,"velocity":127,"measure":7,"beat":1.5,"subject_pos":-1,"motif":"enigmatic_cell","motif_pos":1,"best_pos":1,"similarity":1.0,"stretto":false,"stretto_voices":0,"combination":[],"aug_dim":"","rhythm_ratio":1.0,"mirror":false,"chromatic_density":0.455,"complexity":0.557,"dissonance":0.079},{"voice":1,"pitch":70,"start":13.6364,"duration":0.2727,"velocity":127,"measure":7,"beat":2.0,"subject_pos":-1,"motif":"","motif_pos":-1,"best_pos":3,"similarity":0.6,"stretto":false,"stretto_voices":0,"combination":[],"aug_dim":"","rhythm_ratio":1.0,"mirror":false,"chromatic_density":0.455,"complexity":0.557,"dissonance":0.079},{"voice":2,"pitch":62,"start":13.6364,"duration":1.0909,"velocity":127,"measure":7,"beat":2.0,"subject_pos":-1,"motif":"enigmatic_cell","motif_pos":2,"best_pos":2,"similarity":1.0,"stretto":false,"stretto_voices":0,"combination":[],"aug_dim":"","rhythm_ratio":1.0,"mirror":false,"chromatic_density":0.455,"complexity":0.557,"dissonance":0.079},{"voice":3,"pitch":53,"start":13.6364,"duration":0.5455,"velocity":127,"measure":7,"beat":2.0,"subject_pos":-1,"motif":"enigmatic_cell","motif_pos":0,"best_pos":0,"similarity":1.0,"stretto":false,"stretto_voices":0,"combination":[],"aug_dim":"","rhythm_ratio":1.0,"mirror":false,"chromatic_density":0.455,"complexity":0.557,"dissonance":0.079},{"voice":1,"pitch":69,"start":13.9091,"duration":0.2727,"velocity":127,"measure":7,"beat":2.5,"subject_pos":-1,"motif":"","motif_pos":-1,"best_pos":4,"similarity":0.489,"stretto":false,"stretto_voices":0,"combination":[],"aug_dim":"","rhythm_ratio":1.0,"mirror":false,"chromatic_density":0.455,"complexity":0.557,"dissonance":0.079},{"voice":1,"pitch":67,"start":14.1818,"duration":0.2727,"velocity":127,"measure":7,"beat":3.0,"subject_pos":-1,"motif":"","motif_pos":-1,"best_pos":2,"similarity":0.579,"stretto":false,"stretto_voices":0,"combination":[],"aug_dim":"","rhythm_ratio":1.0,"mirror":false,"chromatic_density":0.455,"complexity":0.557,"dissonance":0.079},{"voice":3,"pitch":52,"start":14.1818,"duration":0.5455,"velocity":127,"measure":7,"beat":3.0,"subject_pos":-1,"motif":"enigmatic_cell","motif_pos":1,"best_pos":1,"similarity":1.0,"stretto":false,"stretto_voices":0,"combination":[],"aug_dim":"","rhythm_ratio":1.0,"mirror":false,"chromatic_density":0.455,"complexity":0.557,"dissonance":0.079},{"voice":1,"pitch":65,"start":14.4545,"duration":0.2727,"velocity":127,"measure":7,"beat":3.5,"subject_pos":-1,"motif":"enigmatic_cell","motif_pos":0,"best_pos":0,"similarity":1.0,"stretto":false,"stretto_voices":0,"combination":[],"aug_dim":"","rhythm_ratio":1.0,"mirror":false,"chromatic_density":0.455,"complexity":0.557,"dissonance":0.079},{"voice":1,"pitch":64,"start":14.7273,"duration":0.5455,"velocity":127,"measure":7,"beat":4.0,"subject_pos":-1,"motif":"enigmatic_cell","motif_pos":1,"best_pos":1,"similarity":1.0,"stretto":false,"stretto_voices":0,"combination":[],"aug_dim":"","rhythm_ratio":1.0,"mirror":false,"chromatic_density":0.455,"complexity":0.557,"dissonance":0.079},{"voice":2,"pitch":61,"start":14.7273,"duration":0.2727,"velocity":127,"measure":7,"beat":4.0,"subject_pos":-1,"motif":"","motif_pos":-1,"best_pos":4,"similarity":0.564,"stretto":false,"stretto_voices":0,"combination":[],"aug_dim":"","rhythm_ratio":1.0,"mirror":false,"chromatic_density":0.455,"complexity":0.557,"dissonance":0.079},{"voice":3,"pitch":57,"start":14.7273,"duration":0.5455,"velocity":127,"measure":7,"beat":4.0,"subject_pos":-1,"motif":"enigmatic_cell","motif_pos":2,"best_pos":2,"similarity":1.0,"stretto":false,"stretto_voices":0,"combination":[],"aug_dim":"","rhythm_ratio":1.0,"mirror":false,"chromatic_density":0.455,"complexity":0.557,"dissonance":0.079},{"voice":2,"pitch":59,"start":15.0,"duration":0.2727,"velocity":127,"measure":7,"beat":4.5,"subject_pos":-1,"motif":"","motif_pos":-1,"best_pos":5,"similarity":0.6,"stretto":false,"stretto_voices":0,"combination":[],"aug_dim":"","rhythm_ratio":1.0,"mirror":false,"chromatic_density":0.455,"complexity":0.557,"dissonance":0.079},{"voice":1,"pitch":69,"start":15.2727,"duration":0.8182,"velocity":127,"measure":8,"beat":1.0,"subject_pos":-1,"motif":"enigmatic_cell","motif_pos":2,"best_pos":2,"similarity":1.0,"stretto":false,"stretto_voices":0,"combination":[],"aug_dim":"","rhythm_ratio":1.0,"mirror":false,"chromatic_density":0.3,"complexity":0.555,"dissonance":0.254},{"voice":2,"pitch":61,"start":15.2727,"duration":0.2727,"velocity":127,"measure":8,"beat":1.0,"subject_pos":-1,"motif":"","motif_pos":-1,"best_pos":6,"similarity":0.657,"stretto":false,"stretto_voices":0,"combination":[],"aug_dim":"","rhythm_ratio":1.0,"mirror":false,"chromatic_density":0.3,"complexity":0.555,"dissonance":0.254},{"voice":2,"pitch":62,"start":15.5454,"duration":0.2727,"velocity":127,"measure":8,"beat":1.5,"subject_pos":-1,"motif":"","motif_pos":-1,"best_pos":5,"similarity":0.636,"stretto":false,"stretto_voices":0,"combination":[],"aug_dim":"","rhythm_ratio":1.0,"mirror":false,"chromatic_density":0.3,"complexity":0.555,"dissonance":0.254},{"voice":2,"pitch":64,"start":15.8182,"duration":0.8182,"velocity":127,"measure":8,"beat":2.0,"subject_pos":-1,"motif":"","motif_pos":-1,"best_pos":6,"similarity":0.464,"stretto":false,"stretto_voices":0,"combination":[],"aug_dim":"","rhythm_ratio":1.0,"mirror":false,"chromatic_density":0.3,"complexity":0.555,"dissonance":0.254},{"voice":3,"pitch":49,"start":15.8182,"duration":0.5455,"velocity":127,"measure":8,"beat":2.0,"subject_pos":-1,"motif":"","motif_pos":-1,"best_pos":6,"similarity":0.371,"stretto":false,"stretto_voices":0,"combination":[],"aug_dim":"","rhythm_ratio":1.0,"mirror":false,"chromatic_density":0.3,"complexity":0.555,"dissonance":0.254},{"voice":1,"pitch":67,"start":16.0909,"duration":0.2727,"velocity":127,"measure":8,"beat":2.5,"subject_pos":-1,"motif":"","motif_pos":-1,"best_pos":2,"similarity":0.75,"stretto":false,"stretto_voices":0,"combination":[],"aug_dim":"","rhythm_ratio":1.0,"mirror":false,"chromatic_density":0.3,"complexity":0.555,"dissonance":0.254},{"voice":1,"pitch":65,"start":16.3636,"duration":0.5455,"velocity":127,"measure":8,"beat":3.0,"subject_pos":-1,"motif":"","motif_pos":-1,"best_pos":3,"similarity":0.786,"stretto":false,"stretto_voices":0,"combination":[],"aug_dim":"","rhythm_ratio":1.0,"mirror":false,"chromatic_density":0.3,"complexity":0.555,"dissonance":0.254},{"voice":3,"pitch":50,"start":16.3636,"duration":0.5455,"velocity":127,"measure":8,"beat":3.0,"subject_pos":-1,"motif":"","motif_pos":-1,"best_pos":7,"similarity":0.293,"stretto":false,"stretto_voices":0,"combination":[],"aug_dim":"","rhythm_ratio":1.0,"mirror":false,"chromatic_density":0.3,"complexity":0.555,"dissonance":0.254},{"voice":2,"pitch":62,"start":16.6363,"duration":0.2727,"velocity":127,"measure":8,"beat":3.5,"subject_pos":-1,"motif":"","motif_pos":-1,"best_pos":2,"similarity":0.379,"stretto":false,"stretto_voices":0,"combination":[],"aug_dim":"","rhythm_ratio":1.0,"mirror":false,"chromatic_density":0.3,"complexity":0.555,"dissonance":0.254},{"voice":0,"pitch":72,"start":16.9091,"duration":0.5455,"velocity":127,"measure":8,"beat":4.0,"subject_pos":-1,"motif":"enigmatic","motif_pos":0,"best_pos":0,"similarity":1.0,"stretto":false,"stretto_voices":0,"combination":[],"aug_dim":"","rhythm_ratio":1.0,"mirror":false,"chromatic_density":0.3,"complexity":0.555,"dissonance":0.254},{"voice":1,"pitch":64,"start":16.9091,"duration":0.2727,"velocity":127,"measure":8,"beat":4.0,"subject_pos":-1,"motif":"","motif_pos":-1,"best_pos":4,"similarity":0.786,"stretto":false,"stretto_voices":0,"combination":[],"aug_dim":"","rhythm_ratio":1.0,"mirror":false,"chromatic_density":0.3,"complexity":0.555,"dissonance":0.254},{"voice":2,"pitch":64,"start":16.9091,"duration":2.1818,"velocity":127,"measure":8,"beat":4.0,"subject_pos":-1,"motif":"","motif_pos":-1,"best_pos":1,"similarity":0.386,"stretto":false,"stretto_voices":0,"combination":[],"aug_dim":"","rhythm_ratio":1.0,"mirror":false,"chromatic_density":0.3,"complexity":0.555,"dissonance":0.254},{"voice":3,"pitch":45,"start":16.9091,"duration":0.5455,"velocity":127,"measure":8,"beat":4.0,"subject_pos":-1,"motif":"head","motif_pos":0,"best_pos":0,"similarity":1.0,"stretto":false,"stretto_voices":0,"combination":[],"aug_dim":"","rhythm_ratio":1.0,"mirror":false,"chromatic_density":0.3,"complexity":0.555,"dissonance":0.254},{"voice":1,"pitch":66,"start":17.1818,"duration":0.2727,"velocity":127,"measure":8,"beat":4.5,"subject_pos":-1,"motif":"","motif_pos":-1,"best_pos":5,"similarity":0.75,"stretto":false,"stretto_voices":0,"combination":[],"aug_dim":"","rhythm_ratio":1.0,"mirror":false,"chromatic_density":0.3,"complexity":0.555,"dissonance":0.254},{"voice":0,"pitch":71,"start":17.4545,"duration":0.5455,"velocity":127,"measure":9,"beat":1.0,"subject_pos":-1,"motif":"enigmatic","motif_pos":1,"best_pos":1,"similarity":1.0,"stretto":false,"stretto_voices":0,"combination":[],"aug_dim":"","rhythm_ratio":1.0,"mirror":false,"chromatic_density":0.333,"complexity":0.667,"dissonance":0.109},{"voice":1,"pitch":68,"start":17.4545,"duration":0.5455,"velocity":127,"measure":9,"beat":1.0,"subject_pos":-1,"motif":"","motif_pos":-1,"best_pos":6,"similarity":0.714,"stretto":false,"stretto_voices":0,"combination":[],"aug_dim":"","rhythm_ratio":1.0,"mirror":false,"chromatic_density":0.333,"complexity":0.667,"dissonance":0.109},{"voice":3,"pitch":52,"start":17.4545,"duration":0.2727,"velocity":127,"measure":9,"beat":1.0,"subject_pos":-1,"motif":"head","motif_pos":1,"best_pos":1,"similarity":1.0,"stretto":false,"stretto_voices":0,"combination":[],"aug_dim":"","rhythm_ratio":1.0,"mirror":false,"chromatic_density":0.333,"complexity":0.667,"dissonance":0.109},{"voice":3,"pitch":50,"start":17.7273,"duration":0.2727,"velocity":127,"measure":9,"beat":1.5,"subject_pos":-1,"motif":"head","motif_pos":2,"best_pos":2,"similarity":1.0,"stretto":false,"stretto_voices":0,"combination":[],"aug_dim":"","rhythm_ratio":1.0,"mirror":false,"chromatic_density":0.333,"complexity":0.667,"dissonance":0.109},{"voice":0,"pitch":76,"start":18.0,"duration":0.5455,"velocity":127,"measure":9,"beat":2.0,"subject_pos":-1,"motif":"enigmatic","motif_pos":2,"best_pos":2,"similarity":1.0,"stretto":false,"stretto_voices":0,"combination":[],"aug_dim":"","rhythm_ratio":1.0,"mirror":false,"chromatic_density":0.333,"complexity":0.667,"dissonance":0.109},{"voice":1,"pitch":69,"start":18.0,"duration":0.2727,"velocity":127,"measure":9,"beat":2.0,"subject_pos":-1,"motif":"","motif_pos":-1,"best_pos":5,"similarity":0.729,"stretto":false,"stretto_voices":0,"combination":[],"aug_dim":"","rhythm_ratio":1.0,"mirror":false,"chromatic_density":0.333,"complexity":0.667,"dissonance":0.109},{"voice":3,"pitch":48,"start":18.0,"duration":0.2727,"velocity":127,"measure":9,"beat":2.0,"subject_pos":-1,"motif":"head","motif_pos":3,"best_pos":3,"similarity":1.0,"stretto":false,"stretto_voices":0,"combination":[],"aug_dim":"","rhythm_ratio":1.0,"mirror":false,"chromatic_density":0.333,"complexity":0.667,"dissonance":0.109},{"voice":1,"pitch":71,"start":18.2727,"duration":0.2727,"velocity":127,"measure":9,"beat":2.5,"subject_pos":-1,"motif":"tail_inv","motif_pos":0,"best_pos":0,"similarity":1.0,"stretto":false,"stretto_voices":0,"combination":[],"aug_dim":"","rhythm_ratio":1.0,"mirror":false,"chromatic_density":0.333,"complexity":0.667,"dissonance":0.109},{"voice":3,"pitch":47,"start":18.2727,"duration":0.2727,"velocity":127,"measure":9,"beat":2.5,"subject_pos":-1,"motif":"head","motif_pos":4,"best_pos":4,"similarity":1.0,"stretto":false,"stretto_voices":0,"combination":[],"aug_dim":"","rhythm_ratio":1.0,"mirror":false,"chromatic_density":0.333,"complexity":0.667,"dissonance":0.109},{"voice":1,"pitch":72,"start":18.5454,"duration":0.5455,"velocity":127,"measure":9,"beat":3.0,"subject_pos":-1,"motif":"tail_inv","motif_pos":1,"best_pos":1,"similarity":1.0,"stretto":false,"stretto_voices":0,"combination":[],"aug_dim":"","rhythm_ratio":1.0,"mirror":false,"chromatic_density":0.333,"complexity":0.667,"dissonance":0.109},{"voice":3,"pitch":45,"start":18.5454,"duration":0.2727,"velocity":127,"measure":9,"beat":3.0,"subject_pos":-1,"motif":"","motif_pos":-1,"best_pos":2,"similarity":0.536,"stretto":false,"stretto_voices":0,"combination":[],"aug_dim":"","rhythm_ratio":1.0,"mirror":false,"chromatic_density":0.333,"complexity":0.667,"dissonance":0.109},{"voice":3,"pitch":43,"start":18.8182,"duration":0.2727,"velocity":127,"measure":9,"beat":3.5,"subject_pos":-1,"motif":"","motif_pos":-1,"best_pos":3,"similarity":0.571,"stretto":false,"stretto_voices":0,"combination":[],"aug_dim":"","rhythm_ratio":1.0,"mirror":false,"chromatic_density":0.333,"complexity":0.667,"dissonance":0.109},{"voice":0,"pitch":68,"start":19.0909,"duration":0.5455,"velocity":127,"measure":9,"beat":4.0,"subject_pos":-1,"motif":"enigmatic","motif_pos":3,"best_pos":3,"similarity":1.0,"stretto":false,"stretto_voices":0,"combination":[],"aug_dim":"","rhythm_ratio":1.0,"mirror":false,"chromatic_density":0.333,"complexity":0.667,"dissonance":0.109},{"voice":1,"pitch":71,"start":19.0909,"duration":0.5455,"velocity":127,"measure":9,"beat":4.0,"subject_pos":-1,"motif":"tail_inv","motif_pos":2,"best_pos":2,"similarity":1.0,"stretto":false,"stretto_voices":0,"combination":[],"aug_dim":"","rhythm_ratio":1.0,"mirror":false,"chromatic_density":0.333,"complexity":0.667,"dissonance":0.109},{"voice":2,"pitch":62,"start":19.0909,"duration":0.5455,"velocity":127,"measure":9,"beat":4.0,"subject_pos":-1,"motif":"","motif_pos":-1,"best_pos":2,"similarity":0.45,"stretto":false,"stretto_voices":0,"combination":[],"aug_dim":"","rhythm_ratio":1.0,"mirror":false,"chromatic_density":0.333,"complexity":0.667,"dissonance":0.109},{"voice":3,"pitch":41,"start":19.0909,"duration":0.8182,"velocity":127,"measure":9,"beat":4.0,"subject_pos":-1,"motif":"","motif_pos":-1,"best_pos":4,"similarity":0.607,"stretto":false,"stretto_voices":0,"combination":[],"aug_dim":"","rhythm_ratio":1.0,"mirror":false,"chromatic_density":0.333,"complexity":0.667,"dissonance":0.109},{"voice":0,"pitch":69,"start":19.6363,"duration":0.5455,"velocity":127,"measure":10,"beat":1.0,"subject_pos":-1,"motif":"enigmatic","motif_pos":4,"best_pos":4,"similarity":1.0,"stretto":false,"stretto_voices":0,"combination":[],"aug_dim":"","rhythm_ratio":1.0,"mirror":false,"chromatic_density":0.182,"complexity":0.576,"dissonance":0.081},{"voice":1,"pitch":69,"start":19.6363,"duration":1.0909,"velocity":127,"measure":10,"beat":1.0,"subject_pos":-1,"motif":"tail_inv","motif_pos":3,"best_pos":3,"similarity":1.0,"stretto":false,"stretto_voices":0,"combination":[],"aug_dim":"","rhythm_ratio":1.0,"mirror":false,"chromatic_density":0.182,"complexity":0.576,"dissonance":0.081},{"voice":2,"pitch":60,"start":19.6363,"duration":1.0909,"velocity":127,"measure":10,"beat":1.0,"subject_pos":-1,"motif":"","motif_pos":-1,"best_pos":3,"similarity":0.314,"stretto":false,"stretto_voices":0,"combination":[],"aug_dim":"","rhythm_ratio":1.0,"mirror":false,"chromatic_density":0.182,"complexity":0.576,"dissonance":0.081},{"voice":3,"pitch":43,"start":19.9091,"duration":0.2727,"velocity":127,"measure":10,"beat":1.5,"subject_pos":-1,"motif":"","motif_pos":-1,"best_pos":5,"similarity":0.607,"stretto":false,"stretto_voices":0,"combination":[],"aug_dim":"","rhythm_ratio":1.0,"mirror":false,"chromatic_density":0.182,"complexity":0.576,"dissonance":0.081},{"voice":0,"pitch":64,"start":20.1818,"duration":0.5455,"velocity":127,"measure":10,"beat":2.0,"subject_pos":-1,"motif":"enigmatic","motif_pos":5,"best_pos":5,"similarity":1.0,"stretto":false,"stretto_voices":0,"combination":[],"aug_dim":"","rhythm_ratio":1.0,"mirror":false,"chromatic_density":0.182,"complexity":0.576,"dissonance":0.081},{"voice":3,"pitch":45,"start":20.1818,"duration":0.2727,"velocity":127,"measure":10,"beat":2.0,"subject_pos":-1,"motif":"","motif_pos":-1,"best_pos":5,"similarity":0.621,"stretto":false,"stretto_voices":0,"combination":[],"aug_dim":"","rhythm_ratio":1.0,"mirror":false,"chromatic_density":0.182,"complexity":0.576,"dissonance":0.081},{"voice":3,"pitch":47,"start":20.4545,"duration":0.2727,"velocity":127,"measure":10,"beat":2.5,"subject_pos":-1,"motif":"","motif_pos":-1,"best_pos":6,"similarity":0.65,"stretto":false,"stretto_voices":0,"combination":[],"aug_dim":"","rhythm_ratio":1.0,"mirror":false,"chromatic_density":0.182,"complexity":0.576,"dissonance":0.081},{"voice":0,"pitch":69,"start":20.7273,"duration":0.2727,"velocity":127,"measure":10,"beat":3.0,"subject_pos":-1,"motif":"","motif_pos":-1,"best_pos":1,"similarity":0.714,"stretto":false,"stretto_voices":0,"combination":[],"aug_dim":"","rhythm_ratio":1.0,"mirror":false,"chromatic_density":0.182,"complexity":0.576,"dissonance":0.081},{"voice":3,"pitch":48,"start":20.7273,"duration":0.5455,"velocity":127,"measure":10,"beat":3.0,"subject_pos":-1,"motif":"","motif_pos":-1,"best_pos":7,"similarity":0.464,"stretto":false,"stretto_voices":0,"combination":[],"aug_dim":"","rhythm_ratio":1.0,"mirror":false,"chromatic_density":0.182,"complexity":0.576,"dissonance":0.081},{"voice":0,"pitch":67,"start":21.0,"duration":0.2727,"velocity":127,"measure":10,"beat":3.5,"subject_pos":-1,"motif":"","motif_pos":-1,"best_pos":2,"similarity":0.721,"stretto":false,"stretto_voices":0,"combination":[],"aug_dim":"","rhythm_ratio":1.0,"mirror":false,"chromatic_density":0.182,"complexity":0.576,"dissonance":0.081},{"voice":2,"pitch":52,"start":21.0,"duration":0.2727,"velocity":127,"measure":10,"beat":3.5,"subject_pos":-1,"motif":"","motif_pos":-1,"best_pos":0,"similarity":0.446,"stretto":false,"stretto_voices":0,"combination":[],"aug_dim":"","rhythm_ratio":1.0,"mirror":false,"chromatic_density":0.182,"complexity":0.576,"dissonance":0.081},{"voice":0,"pitch":65,"start":21.2727,"duration":0.2727,"velocity":127,"measure":10,"beat":4.0,"subject_pos":-1,"motif":"","motif_pos":-1,"best_pos":3,"similarity":0.664,"stretto":false,"stretto_voices":0,"combination":[],"aug_dim":"","rhythm_ratio":1.0,"mirror":false,"chromatic_density":0.182,"complexity":0.576,"dissonance":0.081},{"voice":2,"pitch":57,"start":21.2727,"duration":1.0909,"velocity":127,"measure":10,"beat":4.0,"subject_pos":-1,"motif":"","motif_pos":-1,"best_pos":1,"similarity":0.625,"stretto":false,"stretto_voices":0,"combination":[],"aug_dim":"","rhythm_ratio":1.0,"mirror":false,"chromatic_density":0.182,"complexity":0.576,"dissonance":0.081},{"voice":3,"pitch":45,"start":21.2727,"duration":0.5455,"velocity":127,"measure":10,"beat":4.0,"subject_pos":-1,"motif":"","motif_pos":-1,"best_pos":5,"similarity":0.364,"stretto":false,"stretto_voices":0,"combination":[],"aug_dim":"","rhythm_ratio":1.0,"mirror":false,"chromatic_density":0.182,"complexity":0.576,"dissonance":0.081},{"voice":0,"pitch":64,"start":21.5454,"duration":0.2727,"velocity":127,"measure":10,"beat":4.5,"subject_pos":-1,"motif":"","motif_pos":-1,"best_pos":4,"similarity":0.489,"stretto":false,"stretto_voices":0,"combination":[],"aug_dim":"","rhythm_ratio":1.0,"mirror":false,"chromatic_density":0.182,"complexity":0.576,"dissonance":0.081},{"voice":0,"pitch":62,"start":21.8182,"duration":0.2727,"velocity":127,"measure":11,"beat":1.0,"subject_pos":-1,"motif":"","motif_pos":-1,"best_pos":2,"similarity":0.607,"stretto":false,"stretto_voices":0,"combination":[],"aug_dim":"","rhythm_ratio":1.0,"mirror":false,"chromatic_density":0.364,"complexity":0.532,"dissonance":0.09},{"voice":3,"pitch":47,"start":21.8182,"duration":0.5455,"velocity":127,"measure":11,"beat":1.0,"subject_pos":-1,"motif":"","motif_pos":-1,"best_pos":6,"similarity":0.346,"stretto":false,"stretto_voices":0,"combination":[],"aug_dim":"","rhythm_ratio":1.0,"mirror":false,"chromatic_density":0.364,"complexity":0.532,"dissonance":0.09},{"voice":0,"pitch":60,"start":22.0909,"duration":0.2727,"velocity":127,"measure":11,"beat":1.5,"subject_pos":-1,"motif":"","motif_pos":-1,"best_pos":3,"similarity":0.679,"stretto":false,"stretto_voices":0,"combination":[],"aug_dim":"","rhythm_ratio":1.0,"mirror":false,"chromatic_density":0.364,"complexity":0.532,"dissonance":0.09},{"voice":0,"pitch":59,"start":22.3636,"duration":0.8182,"velocity":127,"measure":11,"beat":2.0,"subject_pos":-1,"motif":"","motif_pos":-1,"best_pos":4,"similarity":0.679,"stretto":false,"stretto_voices":0,"combination":[],"aug_dim":"","rhythm_ratio":1.0,"mirror":false,"chromatic_density":0.364,"complexity":0.532,"dissonance":0.09},{"voice":2,"pitch":55,"start":22.3636,"duration":0.2727,"velocity":127,"measure":11,"beat":2.0,"subject_pos":-1,"motif":"","motif_pos":-1,"best_pos":3,"similarity":0.579,"stretto":false,"stretto_voices":0,"combination":[],"aug_dim":"","rhythm_ratio":1.0,"mirror":false,"chromatic_density":0.364,"complexity":0.532,"dissonance":0.09},{"voice":3,"pitch":52,"start":22.3636,"duration":0.8182,"velocity":127,"measure":11,"beat":2.0,"subject_pos":-1,"motif":"head_inv","motif_pos":0,"best_pos":0,"similarity":1.0,"stretto":false,"stretto_voices":0,"combination":[],"aug_dim":"","rhythm_ratio":1.0,"mirror":false,"chromatic_density":0.364,"complexity":0.532,"dissonance":0.09},{"voice":2,"pitch":54,"start":22.6363,"duration":0.2727,"velocity":127,"measure":11,"beat":2.5,"subject_pos":-1,"motif":"","motif_pos":-1,"best_pos":4,"similarity":0.693,"stretto":false,"stretto_voices":0,"combination":[],"aug_dim":"","rhythm_ratio":1.0,"mirror":false,"chromatic_density":0.364,"complexity":0.532,"dissonance":0.09},{"voice":2,"pitch":55,"start":22.9091,"duration":1.0909,"velocity":127,"measure":11,"beat":3.0,"subject_pos":-1,"motif":"","motif_pos":-1,"best_pos":5,"similarity":0.564,"stretto":false,"stretto_voices":0,"combination":[],"aug_dim":"","rhythm_ratio":1.0,"mirror":false,"chromatic_density":0.364,"complexity":0.532,"dissonance":0.09},{"voice":0,"pitch":61,"start":23.1818,"duration":0.2727,"velocity":127,"measure":11,"beat":3.5,"subject_pos":-1,"motif":"","motif_pos":-1,"best_pos":6,"similarity":0.643,"stretto":false,"stretto_voices":0,"combination":[],"aug_dim":"","rhythm_ratio":1.0,"mirror":false,"chromatic_density":0.364,"complexity":0.532,"dissonance":0.09},{"voice":3,"pitch":45,"start":23.1818,"duration":0.2727,"velocity":127,"measure":11,"beat":3.5,"subject_pos":-1,"motif":"head_inv","motif_pos":1,"best_pos":1,"similarity":1.0,"stretto":false,"stretto_voices":0,"combination":[],"aug_dim":"","rhythm_ratio":1.0,"mirror":false,"chromatic_density":0.364,"complexity":0.532,"dissonance":0.09},{"voice":0,"pitch":62,"start":23.4545,"duration":0.2727,"velocity":127,"measure":11,"beat":4.0,"subject_pos":-1,"motif":"","motif_pos":-1,"best_pos":5,"similarity":0.746,"stretto":false,"stretto_voices":0,"combination":[],"aug_dim":"","rhythm_ratio":1.0,"mirror":false,"chromatic_density":0.364,"complexity":0.532,"dissonance":0.09},{"voice":3,"pitch":47,"start":23.4545,"duration":0.2727,"velocity":127,"measure":11,"beat":4.0,"subject_pos":-1,"motif":"head_inv","motif_pos":2,"best_pos":2,"similarity":1.0,"stretto":false,"stretto_voices":0,"combination":[],"aug_dim":"","rhythm_ratio":1.0,"mirror":false,"chromatic_density":0.364,"complexity":0.532,"dissonance":0.09},{"voice":0,"pitch":64,"start":23.7272,"duration":0.2727,"velocity":127,"measure":11,"beat":4.5,"subject_pos":-1,"motif":"","motif_pos":-1,"best_pos":6,"similarity":0.721,"stretto":false,"stretto_voices":0,"combination":[],"aug_dim":"","rhythm_ratio":1.0,"mirror":false,"chromatic_density":0.364,"complexity":0.532,"dissonance":0.09},{"voice":3,"pitch":49,"start":23.7272,"duration":0.2727,"velocity":127,"measure":11,"beat":4.5,"subject_pos":-1,"motif":"head_inv","motif_pos":3,"best_pos":3,"similarity":1.0,"stretto":false,"stretto_voices":0,"combination":[],"aug_dim":"","rhythm_ratio":1.0,"mirror":false,"chromatic_density":0.364,"complexity":0.532,"dissonance":0.09},{"voice":0,"pitch":65,"start":24.0,"duration":0.2727,"velocity":127,"measure":12,"beat":1.0,"subject_pos":-1,"motif":"","motif_pos":-1,"best_pos":7,"similarity":0.5,"stretto":false,"stretto_voices":0,"combination":[],"aug_dim":"","rhythm_ratio":1.0,"mirror":false,"chromatic_density":0.267,"complexity":0.428,"dissonance":0.163},{"voice":2,"pitch":53,"start":24.0,"duration":0.2727,"velocity":127,"measure":12,"beat":1.0,"subject_pos":-1,"motif":"","motif_pos":-1,"best_pos":4,"similarity":0.514,"stretto":false,"stretto_voices":0,"combination":[],"aug_dim":"","rhythm_ratio":1.0,"mirror":false,"chromatic_density":0.267,"complexity":0.428,"dissonance":0.163},{"voice":3,"pitch":50,"start":24.0,"duration":1.0909,"velocity":127,"measure":12,"beat":1.0,"subject_pos":-1,"motif":"head_inv","motif_pos":4,"best_pos":4,"similarity":1.0,"stretto":false,"stretto_voices":0,"combination":[],"aug_dim":"","rhythm_ratio":1.0,"mirror":false,"chromatic_density":0.267,"complexity":0.428,"dissonance":0.163},{"voice":0,"pitch":64,"start":24.2727,"duration":0.2727,"velocity":127,"measure":12,"beat":1.5,"subject_pos":-1,"motif":"","motif_pos":-1,"best_pos":4,"similarity":0.629,"stretto":false,"stretto_voices":0,"combination":[],"aug_dim":"","rhythm_ratio":1.0,"mirror":false,"chromatic_density":0.267,"complexity":0.428,"dissonance":0.163},{"voice":2,"pitch":55,"start":24.2727,"duration":0.2727,"velocity":127,"measure":12,"beat":1.5,"subject_pos":-1,"motif":"","motif_pos":-1,"best_pos":5,"similarity":0.579,"stretto":false,"stretto_voices":0,"combination":[],"aug_dim":"","rhythm_ratio":1.0,"mirror":false,"chromatic_density":0.267,"complexity":0.428,"dissonance":0.163},{"voice":0,"pitch":65,"start":24.5454,"duration":0.2727,"velocity":127,"measure":12,"beat":2.0,"subject_pos":-1,"motif":"","motif_pos":-1,"best_pos":5,"similarity":0.507,"stretto":false,"stretto_voices":0,"combination":[],"aug_dim":"","rhythm_ratio":1.0,"mirror":false,"chromatic_density":0.267,"complexity":0.428,"dissonance":0.163},{"voice":2,"pitch":57,"start":24.5454,"duration":0.2727,"velocity":127,"measure":12,"beat":2.0,"subject_pos":-1,"motif":"","motif_pos":-1,"best_pos":5,"similarity":0.621,"stretto":false,"stretto_voices":0,"combination":[],"aug_dim":"","rhythm_ratio":1.0,"mirror":false,"chromatic_density":0.267,"complexity":0.428,"dissonance":0.163},{"voice":0,"pitch":62,"start":24.8182,"duration":0.2727,"velocity":127,"measure":12,"beat":2.5,"subject_pos":-1,"motif":"","motif_pos":-1,"best_pos":4,"similarity":0.479,"stretto":false,"stretto_voices":0,"combination":[],"aug_dim":"","rhythm_ratio":1.0,"mirror":false,"chromatic_density":0.267,"complexity":0.428,"dissonance":0.163},{"voice":2,"pitch":59,"start":24.8182,"duration":0.2727,"velocity":127,"measure":12,"beat":2.5,"subject_pos":-1,"motif":"","motif_pos":-1,"best_pos":6,"similarity":0.65,"stretto":false,"stretto_voices":0,"combination":[],"aug_dim":"","rhythm_ratio":1.0,"mirror":false,"chromatic_density":0.267,"complexity":0.428,"dissonance":0.163},{"voice":0,"pitch":64,"start":25.0909,"duration":0.2727,"velocity":127,"measure":12,"beat":3.0,"subject_pos":-1,"motif":"","motif_pos":-1,"best_pos":5,"similarity":0.614,"stretto":false,"stretto_voices":0,"combination":[],"aug_dim":"","rhythm_ratio":1.0,"mirror":false,"chromatic_density":0.267,"complexity":0.428,"dissonance":0.163},{"voice":2,"pitch":60,"start":25.0909,"duration":1.0909,"velocity":127,"measure":12,"beat":3.0,"subject_pos":-1,"motif":"","motif_pos":-1,"best_pos":7,"similarity":0.464,"stretto":false,"stretto_voices":0,"combination":[],"aug_dim":"","rhythm_ratio":1.0,"mirror":false,"chromatic_density":0.267,"complexity":0.428,"dissonance":0.163},{"voice":3,"pitch":48,"start":25.0909,"duration":0.2727,"velocity":127,"measure":12,"beat":3.0,"subject_pos":-1,"motif":"","motif_pos":-1,"best_pos":4,"similarity":0.486,"stretto":false,"stretto_voices":0,"combination":[],"aug_dim":"","rhythm_ratio":1.0,"mirror":false,"chromatic_density":0.267,"complexity":0.428,"dissonance":0.163},{"voice":0,"pitch":66,"start":25.3636,"duration":0.2727,"velocity":127,"measure":12,"beat":3.5,"subject_pos":-1,"motif":"","motif_pos":-1,"best_pos":6,"similarity":0.661,"stretto":false,"stretto_voices":0,"combination":[],"aug_dim":"","rhythm_ratio":1.0,"mirror":false,"chromatic_density":0.267,"complexity":0.428,"dissonance":0.163},{"voice":3,"pitch":50,"start":25.3636,"duration":0.2727,"velocity":127,"measure":12,"beat":3.5,"subject_pos":-1,"motif":"","motif_pos":-1,"best_pos":5,"similarity":0.579,"stretto":false,"stretto_voices":0,"combination":[],"aug_dim":"","rhythm_ratio":1.0,"mirror":false,"chromatic_density":0.267,"complexity":0.428,"dissonance":0.163},{"voice":0,"pitch":67,"start":25.6363,"duration":0.2727,"velocity":127,"measure":12,"beat":4.0,"subject_pos":-1,"motif":"","motif_pos":-1,"best_pos":5,"similarity":0.729,"stretto":false,"stretto_voices":0,"combination":[],"aug_dim":"","rhythm_ratio":1.0,"mirror":false,"chromatic_density":0.267,"complexity":0.428,"dissonance":0.163},{"voice":3,"pitch":52,"start":25.6363,"duration":0.2727,"velocity":127,"measure":12,"beat":4.0,"subject_pos":-1,"motif":"","motif_pos":-1,"best_pos":5,"similarity":0.621,"stretto":false,"stretto_voices":0,"combination":[],"aug_dim":"","rhythm_ratio":1.0,"mirror":false,"chromatic_density":0.267,"complexity":0.428,"dissonance":0.163},{"voice":0,"pitch":69,"start":25.9091,"duration":0.2727,"velocity":127,"measure":12,"beat":4.5,"subject_pos":-1,"motif":"","motif_pos":-1,"best_pos":6,"similarity":0.721,"stretto":false,"stretto_voices":0,"combination":[],"aug_dim":"","rhythm_ratio":1.0,"mirror":false,"chromatic_density":0.267,"complexity":0.428,"dissonance":0.163},{"voice":3,"pitch":54,"start":25.9091,"duration":0.2727,"velocity":127,"measure":12,"beat":4.5,"subject_pos":-1,"motif":"","motif_pos":-1,"best_pos":6,"similarity":0.65,"stretto":false,"stretto_voices":0,"combination":[],"aug_dim":"","rhythm_ratio":1.0,"mirror":false,"chromatic_density":0.267,"complexity":0.428,"dissonance":0.163},{"voice":0,"pitch":70,"start":26.1818,"duration":0.2727,"velocity":127,"measure":13,"beat":1.0,"subject_pos":-1,"motif":"","motif_pos":-1,"best_pos":7,"similarity":0.5,"stretto":false,"stretto_voices":0,"combination":[],"aug_dim":"","rhythm_ratio":1.0,"mirror":false,"chromatic_density":0.308,"complexity":0.551,"dissonance":0.083},{"voice":2,"pitch":58,"start":26.1818,"duration":0.2727,"velocity":127,"measure":13,"beat":1.0,"subject_pos":-1,"motif":"","motif_pos":-1,"best_pos":4,"similarity":0.486,"stretto":false,"stretto_voices":0,"combination":[],"aug_dim":"","rhythm_ratio":1.0,"mirror":false,"chromatic_density":0.308,"complexity":0.551,"dissonance":0.083},{"voice":3,"pitch":55,"start":26.1818,"duration":1.0909,"velocity":127,"measure":13,"beat":1.0,"subject_pos":-1,"motif":"head_inv","motif_pos":0,"best_pos":0,"similarity":1.0,"stretto":false,"stretto_voices":0,"combination":[],"aug_dim":"","rhythm_ratio":1.0,"mirror":false,"chromatic_density":0.308,"complexity":0.551,"dissonance":0.083},{"voice":0,"pitch":69,"start":26.4545,"duration":0.2727,"velocity":127,"measure":13,"beat":1.5,"subject_pos":-1,"motif":"","motif_pos":-1,"best_pos":4,"similarity":0.629,"stretto":false,"stretto_voices":0,"combination":[],"aug_dim":"","rhythm_ratio":1.0,"mirror":false,"chromatic_density":0.308,"complexity":0.551,"dissonance":0.083},{"voice":2,"pitch":60,"start":26.4545,"duration":0.2727,"velocity":127,"measure":13,"beat":1.5,"subject_pos":-1,"motif":"","motif_pos":-1,"best_pos":5,"similarity":0.579,"stretto":false,"stretto_voices":0,"combination":[],"aug_dim":"","rhythm_ratio":1.0,"mirror":false,"chromatic_density":0.308,"complexity":0.551,"dissonance":0.083},{"voice":0,"pitch":70,"start":26.7272,"duration":0.2727,"velocity":127,"measure":13,"beat":2.0,"subject_pos":-1,"motif":"","motif_pos":-1,"best_pos":5,"similarity":0.507,"stretto":false,"stretto_voices":0,"combination":[],"aug_dim":"","rhythm_ratio":1.0,"mirror":false,"chromatic_density":0.308,"complexity":0.551,"dissonance":0.083},{"voice":2,"pitch":62,"start":26.7272,"duration":0.2727,"velocity":127,"measure":13,"beat":2.0,"subject_pos":-1,"motif":"","motif_pos":-1,"best_pos":5,"similarity":0.621,"stretto":false,"stretto_voices":0,"combination":[],"aug_dim":"","rhythm_ratio":1.0,"mirror":false,"chromatic_density":0.308,"complexity":0.551,"dissonance":0.083},{"voice":0,"pitch":67,"start":27.0,"duration":0.2727,"velocity":127,"measure":13,"beat":2.5,"subject_pos":-1,"motif":"","motif_pos":-1,"best_pos":5,"similarity":0.382,"stretto":false,"stretto_voices":0,"combination":[],"aug_dim":"","rhythm_ratio":1.0,"mirror":false,"chromatic_density":0.308,"complexity":0.551,"dissonance":0.083},{"voice":2,"pitch":64,"start":27.0,"duration":0.2727,"velocity":127,"measure":13,"beat":2.5,"subject_pos":-1,"motif":"","motif_pos":-1,"best_pos":6,"similarity":0.65,"stretto":false,"stretto_voices":0,"combination":[],"aug_dim":"","rhythm_ratio":1.0,"mirror":false,"chromatic_density":0.308,"complexity":0.551,"dissonance":0.083},{"voice":0,"pitch":69,"start":27.2727,"duration":0.5455,"velocity":127,"measure":13,"beat":3.0,"subject_pos":-1,"motif":"","motif_pos":-1,"best_pos":0,"similarity":0.429,"stretto":false,"stretto_voices":0,"combination":[],"aug_dim":"","rhythm_ratio":1.0,"mirror":false,"chromatic_density":0.308,"complexity":0.551,"dissonance":0.083},{"voice":2,"pitch":65,"start":27.2727,"duration":1.0909,"velocity":127,"measure":13,"beat":3.0,"subject_pos":-1,"motif":"","motif_pos":-1,"best_pos":3,"similarity":0.479,"stretto":false,"stretto_voices":0,"combination":[],"aug_dim":"","rhythm_ratio":1.0,"mirror":false,"chromatic_density":0.308,"complexity":0.551,"dissonance":0.083},{"voice":3,"pitch":50,"start":27.2727,"duration":0.2727,"velocity":127,"measure":13,"beat":3.0,"subject_pos":-1,"motif":"head_inv","motif_pos":1,"best_pos":1,"similarity":1.0,"stretto":false,"stretto_voices":0,"combination":[],"aug_dim":"","rhythm_ratio":1.0,"mirror":false,"chromatic_density":0.308,"complexity":0.551,"dissonance":0.083},{"voice":3,"pitch":52,"start":27.5454,"duration":0.2727,"velocity":127,"measure":13,"beat":3.5,"subject_pos":-1,"motif":"head_inv","motif_pos":2,"best_pos":2,"similarity":1.0,"stretto":false,"stretto_voices":0,"combination":[],"aug_dim":"","rhythm_ratio":1.0,"mirror":false,"chromatic_density":0.308,"complexity":0.551,"dissonance":0.083},{"voice":0,"pitch":74,"start":27.8182,"duration":0.8182,"velocity":127,"measure":13,"beat":4.0,"subject_pos":-1,"motif":"","motif_pos":-1,"best_pos":1,"similarity":0.589,"stretto":false,"stretto_voices":0,"combination":[],"aug_dim":"","rhythm_ratio":1.0,"mirror":false,"chromatic_density":0.308,"complexity":0.551,"dissonance":0.083},{"voice":3,"pitch":53,"start":27.8182,"duration":0.2727,"velocity":127,"measure":13,"beat":4.0,"subject_pos":-1,"motif":"head_inv","motif_pos":3,"best_pos":3,"similarity":1.0,"stretto":false,"stretto_voices":0,"combination":[],"aug_dim":"","rhythm_ratio":1.0,"mirror":false,"chromatic_density":0.308,"complexity":0.551,"dissonance":0.083},{"voice":3,"pitch":55,"start":28.0909,"duration":0.2727,"velocity":127,"measure":13,"beat":4.5,"subject_pos":-1,"motif":"head_inv","motif_pos":4,"best_pos":4,"similarity":1.0,"stretto":false,"stretto_voices":0,"combination":[],"aug_dim":"","rhythm_ratio":1.0,"mirror":false,"chromatic_density":0.308,"complexity":0.551,"dissonance":0.083},{"voice":2,"pitch":64,"start":28.3636,"duration":0.5455,"velocity":127,"measure":14,"beat":1.0,"subject_pos":-1,"motif":"","motif_pos":-1,"best_pos":4,"similarity":0.629,"stretto":false,"stretto_voices":0,"combination":[],"aug_dim":"","rhythm_ratio":1.0,"mirror":false,"chromatic_density":0.357,"complexity":0.622,"dissonance":0.22},{"voice":3,"pitch":57,"start":28.3636,"duration":1.3636,"velocity":127,"measure":14,"beat":1.0,"subject_pos":-1,"motif":"","motif_pos":-1,"best_pos":6,"similarity":0.375,"stretto":false,"stretto_voices":0,"combination":[],"aug_dim":"","rhythm_ratio":1.0,"mirror":false,"chromatic_density":0.357,"complexity":0.622,"dissonance":0.22},{"voice":0,"pitch":72,"start":28.6363,"duration":0.2727,"velocity":127,"measure":14,"beat":1.5,"subject_pos":-1,"motif":"","motif_pos":-1,"best_pos":2,"similarity":0.536,"stretto":false,"stretto_voices":0,"combination":[],"aug_dim":"","rhythm_ratio":1.0,"mirror":false,"chromatic_density":0.357,"complexity":0.622,"dissonance":0.22},{"voice":0,"pitch":74,"start":28.9091,"duration":0.2727,"velocity":127,"measure":14,"beat":2.0,"subject_pos":-1,"motif":"","motif_pos":-1,"best_pos":3,"similarity":0.464,"stretto":false,"stretto_voices":0,"combination":[],"aug_dim":"","rhythm_ratio":1.0,"mirror":false,"chromatic_density":0.357,"complexity":0.622,"dissonance":0.22},{"voice":1,"pitch":68,"start":28.9091,"duration":0.5455,"velocity":127,"measure":14,"beat":2.0,"subject_pos":-1,"motif":"tail_inv","motif_pos":4,"best_pos":4,"similarity":1.0,"stretto":false,"stretto_voices":0,"combination":[],"aug_dim":"","rhythm_ratio":1.0,"mirror":false,"chromatic_density":0.357,"complexity":0.622,"dissonance":0.22},{"voice":2,"pitch":65,"start":28.9091,"duration":0.2727,"velocity":127,"measure":14,"beat":2.0,"subject_pos":-1,"motif":"","motif_pos":-1,"best_pos":5,"similarity":0.507,"stretto":false,"stretto_voices":0,"combination":[],"aug_dim":"","rhythm_ratio":1.0,"mirror":false,"chromatic_density":0.357,"complexity":0.622,"dissonance":0.22},{"voice":0,"pitch":71,"start":29.1818,"duration":0.2727,"velocity":127,"measure":14,"beat":2.5,"subject_pos":-1,"motif":"","motif_pos":-1,"best_pos":4,"similarity":0.571,"stretto":false,"stretto_voices":0,"combination":[],"aug_dim":"","rhythm_ratio":1.0,"mirror":false,"chromatic_density":0.357,"complexity":0.622,"dissonance":0.22},{"voice":2,"pitch":62,"start":29.1818,"duration":0.2727,"velocity":127,"measure":14,"beat":2.5,"subject_pos":-1,"motif":"","motif_pos":-1,"best_pos":5,"similarity":0.368,"stretto":false,"stretto_voices":0,"combination":[],"aug_dim":"","rhythm_ratio":1.0,"mirror":false,"chromatic_density":0.357,"complexity":0.622,"dissonance":0.22},{"voice":0,"pitch":72,"start":29.4545,"duration":0.5455,"velocity":127,"measure":14,"beat":3.0,"subject_pos":-1,"motif":"","motif_pos":-1,"best_pos":5,"similarity":0.607,"stretto":false,"stretto_voices":0,"combination":[],"aug_dim":"","rhythm_ratio":1.0,"mirror":false,"chromatic_density":0.357,"complexity":0.622,"dissonance":0.22},{"voice":1,"pitch":69,"start":29.4545,"duration":0.5455,"velocity":127,"measure":14,"beat":3.0,"subject_pos":-1,"motif":"","motif_pos":-1,"best_pos":5,"similarity":0.464,"stretto":false,"stretto_voices":0,"combination":[],"aug_dim":"","rhythm_ratio":1.0,"mirror":false,"chromatic_density":0.357,"complexity":0.622,"dissonance":0.22},{"voice":2,"pitch":64,"start":29.4545,"duration":0.2727,"velocity":127,"measure":14,"beat":3.0,"subject_pos":-1,"motif":"","motif_pos":-1,"best_pos":5,"similarity":0.329,"stretto":false,"stretto_voices":0,"combination":[],"aug_dim":"","rhythm_ratio":1.0,"mirror":false,"chromatic_density":0.357,"complexity":0.622,"dissonance":0.22},{"voice":2,"pitch":57,"start":29.7272,"duration":0.2727,"velocity":127,"measure":14,"beat":3.5,"subject_pos":-1,"motif":"","motif_pos":-1,"best_pos":6,"similarity":0.375,"stretto":false,"stretto_voices":0,"combination":[],"aug_dim":"","rhythm_ratio":1.0,"mirror":false,"chromatic_density":0.357,"complexity":0.622,"dissonance":0.22},{"voice":3,"pitch":53,"start":29.7272,"duration":0.2727,"velocity":127,"measure":14,"beat":3.5,"subject_pos":-1,"motif":"","motif_pos":-1,"best_pos":2,"similarity":0.407,"stretto":false,"stretto_voices":0,"combination":[],"aug_dim":"","rhythm_ratio":1.0,"mirror":false,"chromatic_density":0.357,"complexity":0.622,"dissonance":0.22},{"voice":0,"pitch":73,"start":30.0,"duration":0.5455,"velocity":127,"measure":14,"beat":4.0,"subject_pos":-1,"motif":"enigmatic_cell","motif_pos":0,"best_pos":0,"similarity":1.0,"stretto":false,"stretto_voices":0,"combination":[],"aug_dim":"","rhythm_ratio":1.0,"mirror":false,"chromatic_density":0.357,"complexity":0.622,"dissonance":0.22},{"voice":1,"pitch":64,"start":30.0,"duration":0.5455,"velocity":127,"measure":14,"beat":4.0,"subject_pos":-1,"motif":"","motif_pos":-1,"best_pos":2,"similarity":0.307,"stretto":false,"stretto_voices":0,"combination":[],"aug_dim":"","rhythm_ratio":1.0,"mirror":false,"chromatic_density":0.357,"complexity":0.622,"dissonance":0.22},{"voice":2,"pitch":58,"start":30.0,"duration":0.5455,"velocity":127,"measure":14,"beat":4.0,"subject_pos":-1,"motif":"enigmatic_cell","motif_pos":0,"best_pos":0,"similarity":1.0,"stretto":false,"stretto_voices":0,"combination":[],"aug_dim":"","rhythm_ratio":1.0,"mirror":false,"chromatic_density":0.357,"complexity":0.622,"dissonance":0.22},{"voice":3,"pitch":55,"start":30.0,"duration":0.2727,"velocity":127,"measure":14,"beat":4.0,"subject_pos":-1,"motif":"","motif_pos":-1,"best_pos":3,"similarity":0.371,"stretto":false,"stretto_voices":0,"combination":[],"aug_dim":"","rhythm_ratio":1.0,"mirror":false,"chromatic_density":0.357,"complexity":0.622,"dissonance":0.22},{"voice":3,"pitch":52,"start":30.2727,"duration":0.2727,"velocity":127,"measure":14,"beat":4.5,"subject_pos":-1,"motif":"tail_inv","motif_pos":0,"best_pos":0,"similarity":1.0,"stretto":false,"stretto_voices":0,"combination":[],"aug_dim":"","rhythm_ratio":1.0,"mirror":false,"chromatic_density":0.357,"complexity":0.622,"dissonance":0.22},{"voice":0,"pitch":74,"start":30.5454,"duration":0.5455,"velocity":127,"measure":15,"beat":1.0,"subject_pos":-1,"motif":"enigmatic_cell","motif_pos":1,"best_pos":1,"similarity":1.0,"stretto":false,"stretto_voices":0,"combination":[],"aug_dim":"","rhythm_ratio":1.0,"mirror":false,"chromatic_density":0.286,"complexity":0.715,"dissonance":0.164},{"voice":2,"pitch":57,"start":30.5454,"duration":0.5455,"velocity":127,"measure":15,"beat":1.0,"subject_pos":-1,"motif":"enigmatic_cell","motif_pos":1,"best_pos":1,"similarity":1.0,"stretto":false,"stretto_voices":0,"combination":[],"aug_dim":"","rhythm_ratio":1.0,"mirror":false,"chromatic_density":0.286,"complexity":0.715,"dissonance":0.164},{"voice":3,"pitch":53,"start":30.5454,"duration":0.2727,"velocity":127,"measure":15,"beat":1.0,"subject_pos":-1,"motif":"tail_inv","motif_pos":1,"best_pos":1,"similarity":1.0,"stretto":false,"stretto_voices":0,"combination":[],"aug_dim":"","rhythm_ratio":1.0,"mirror":false,"chromatic_density":0.286,"complexity":0.715,"dissonance":0.164},{"voice":3,"pitch":52,"start":30.8182,"duration":0.2727,"velocity":127,"measure":15,"beat":1.5,"subject_pos":-1,"motif":"tail_inv","motif_pos":2,"best_pos":2,"similarity":1.0,"stretto":false,"stretto_voices":0,"combination":[],"aug_dim":"","rhythm_ratio":1.0,"mirror":false,"chromatic_density":0.286,"complexity":0.715,"dissonance":0.164},{"voice":0,"pitch":67,"start":31.0909,"duration":0.5455,"velocity":127,"measure":15,"beat":2.0,"subject_pos":-1,"motif":"enigmatic_cell","motif_pos":2,"best_pos":2,"similarity":1.0,"stretto":false,"stretto_voices":0,"combination":[],"aug_dim":"","rhythm_ratio":1.0,"mirror":false,"chromatic_density":0.286,"complexity":0.715,"dissonance":0.164},{"voice":1,"pitch":70,"start":31.0909,"duration":0.5455,"velocity":127,"measure":15,"beat":2.0,"subject_pos":-1,"motif":"enigmatic_cell","motif_pos":0,"best_pos":0,"similarity":1.0,"stretto":false,"stretto_voices":0,"combination":[],"aug_dim":"","rhythm_ratio":1.0,"mirror":false,"chromatic_density":0.286,"complexity":0.715,"dissonance":0.164},{"voice":2,"pitch":62,"start":31.0909,"duration":0.5455,"velocity":127,"measure":15,"beat":2.0,"subject_pos":-1,"motif":"enigmatic_cell","motif_pos":2,"best_pos":2,"similarity":1.0,"stretto":false,"stretto_voices":0,"combination":[],"aug_dim":"","rhythm_ratio":1.0,"mirror":false,"chromatic_density":0.286,"complexity":0.715,"dissonance":0.164},{"voice":3,"pitch":50,"start":31.0909,"duration":0.2727,"velocity":127,"measure":15,"beat":2.0,"subject_pos":-1,"motif":"tail_inv","motif_pos":3,"best_pos":3,"similarity":1.0,"stretto":false,"stretto_voices":0,"combination":[],"aug_dim":"","rhythm_ratio":1.0,"mirror":false,"chromatic_density":0.286,"complexity":0.715,"dissonance":0.164},{"voice":3,"pitch":49,"start":31.3636,"duration":0.2727,"velocity":127,"measure":15,"beat":2.5,"subject_pos":-1,"motif":"tail_inv","motif_pos":4,"best_pos":4,"similarity":1.0,"stretto":false,"stretto_voices":0,"combination":[],"aug_dim":"","rhythm_ratio":1.0,"mirror":false,"chromatic_density":0.286,"complexity":0.715,"dissonance":0.164},{"voice":0,"pitch":65,"start":31.6363,"duration":0.5455,"velocity":127,"measure":15,"beat":3.0,"subject_pos":-1,"motif":"","motif_pos":-1,"best_pos":2,"similarity":0.321,"stretto":false,"stretto_voices":0,"combination":[],"aug_dim":"","rhythm_ratio":1.0,"mirror":false,"chromatic_density":0.286,"complexity":0.715,"dissonance":0.164},{"voice":1,"pitch":69,"start":31.6363,"duration":0.5455,"velocity":127,"measure":15,"beat":3.0,"subject_pos":-1,"motif":"enigmatic_cell","motif_pos":1,"best_pos":1,"similarity":1.0,"stretto":false,"stretto_voices":0,"combination":[],"aug_dim":"","rhythm_ratio":1.0,"mirror":false,"chromatic_density":0.286,"complexity":0.715,"dissonance":0.164},{"voice":3,"pitch":50,"start":31.6363,"duration":0.2727,"velocity":127,"measure":15,"beat":3.0,"subject_pos":-1,"motif":"","motif_pos":-1,"best_pos":5,"similarity":0.536,"stretto":false,"stretto_voices":0,"combination":[],"aug_dim":"","rhythm_ratio":1.0,"mirror":false,"chromatic_density":0.286,"complexity":0.715,"dissonance":0.164},{"voice":3,"pitch":46,"start":31.9091,"duration":0.2727,"velocity":127,"measure":15,"beat":3.5,"subject_pos":-1,"motif":"","motif_pos":-1,"best_pos":2,"similarity":0.371,"stretto":false,"stretto_voices":0,"combination":[],"aug_dim":"","rhythm_ratio":1.0,"mirror":false,"chromatic_density":0.286,"complexity":0.715,"dissonance":0.164},{"voice":0,"pitch":69,"start":32.1818,"duration":0.5455,"velocity":127,"measure":15,"beat":4.0,"subject_pos":-1,"motif":"","motif_pos":-1,"best_pos":4,"similarity":0.321,"stretto":false,"stretto_voices":0,"combination":[],"aug_dim":"","rhythm_ratio":1.0,"mirror":false,"chromatic_density":0.286,"complexity":0.715,"dissonance":0.164},{"voice":1,"pitch":74,"start":32.1818,"duration":0.5455,"velocity":127,"measure":15,"beat":4.0,"subject_pos":-1,"motif":"enigmatic_cell","motif_pos":2,"best_pos":2,"similarity":1.0,"stretto":false,"stretto_voices":0,"combination":[],"aug_dim":"","rhythm_ratio":1.0,"mirror":false,"chromatic_density":0.286,"complexity":0.715,"dissonance":0.164},{"voice":2,"pitch":54,"start":32.1818,"duration":0.5455,"velocity":127,"measure":15,"beat":4.0,"subject_pos":-1,"motif":"","motif_pos":-1,"best_pos":6,"similarity":0.371,"stretto":false,"stretto_voices":0,"combination":[],"aug_dim":"","rhythm_ratio":1.0,"mirror":false,"chromatic_density":0.286,"complexity":0.715,"dissonance":0.164},{"voice":3,"pitch":48,"start":32.1818,"duration":0.2727,"velocity":127,"measure":15,"beat":4.0,"subject_pos":-1,"motif":"","motif_pos":-1,"best_pos":2,"similarity":0.364,"stretto":false,"stretto_voices":0,"combination":[],"aug_dim":"","rhythm_ratio":1.0,"mirror":false,"chromatic_density":0.286,"complexity":0.715,"dissonance":0.164},{"voice":3,"pitch":45,"start":32.4545,"duration":0.2727,"velocity":127,"measure":15,"beat":4.5,"subject_pos":-1,"motif":"","motif_pos":-1,"best_pos":4,"similarity":0.5,"stretto":false,"stretto_voices":0,"combination":[],"aug_dim":"","rhythm_ratio":1.0,"mirror":false,"chromatic_density":0.286,"complexity":0.715,"dissonance":0.164},{"voice":0,"pitch":74,"start":32.7272,"duration":0.8182,"velocity":127,"measure":16,"beat":1.0,"subject_pos":-1,"motif":"","motif_pos":-1,"best_pos":5,"similarity":0.493,"stretto":false,"stretto_voices":0,"combination":[],"aug_dim":"","rhythm_ratio":1.0,"mirror":false,"chromatic_density":0.278,"complexity":0.651,"dissonance":0.163},{"voice":1,"pitch":67,"start":32.7272,"duration":0.2727,"velocity":127,"measure":16,"beat":1.0,"subject_pos":-1,"motif":"","motif_pos":-1,"best_pos":5,"similarity":0.375,"stretto":false,"stretto_voices":0,"combination":[],"aug_dim":"","rhythm_ratio":1.0,"mirror":false,"chromatic_density":0.278,"complexity":0.651,"dissonance":0.163},{"voice":2,"pitch":55,"start":32.7272,"duration":0.5455,"velocity":127,"measure":16,"beat":1.0,"subject_pos":-1,"motif":"","motif_pos":-1,"best_pos":7,"similarity":0.293,"stretto":false,"stretto_voices":0,"combination":[],"aug_dim":"","rhythm_ratio":1.0,"mirror":false,"chromatic_density":0.278,"complexity":0.651,"dissonance":0.163},{"voice":3,"pitch":47,"start":32.7272,"duration":0.2727,"velocity":127,"measure":16,"beat":1.0,"subject_pos":-1,"motif":"","motif_pos":-1,"best_pos":5,"similarity":0.607,"stretto":false,"stretto_voices":0,"combination":[],"aug_dim":"","rhythm_ratio":1.0,"mirror":false,"chromatic_density":0.278,"complexity":0.651,"dissonance":0.163},{"voice":1,"pitch":69,"start":33.0,"duration":0.2727,"velocity":127,"measure":16,"beat":1.5,"subject_pos":-1,"motif":"","motif_pos":-1,"best_pos":5,"similarity":0.5,"stretto":false,"stretto_voices":0,"combination":[],"aug_dim":"","rhythm_ratio":1.0,"mirror":false,"chromatic_density":0.278,"complexity":0.651,"dissonance":0.163},{"voice":3,"pitch":49,"start":33.0,"duration":0.2727,"velocity":127,"measure":16,"beat":1.5,"subject_pos":-1,"motif":"","motif_pos":-1,"best_pos":6,"similarity":0.661,"stretto":false,"stretto_voices":0,"combination":[],"aug_dim":"","rhythm_ratio":1.0,"mirror":false,"chromatic_density":0.278,"complexity":0.651,"dissonance":0.163},{"voice":1,"pitch":71,"start":33.2727,"duration":0.2727,"velocity":127,"measure":16,"beat":2.0,"subject_pos":-1,"motif":"","motif_pos":-1,"best_pos":5,"similarity":0.593,"stretto":false,"stretto_voices":0,"combination":[],"aug_dim":"","rhythm_ratio":1.0,"mirror":false,"chromatic_density":0.278,"complexity":0.651,"dissonance":0.163},{"voice":2,"pitch":50,"start":33.2727,"duration":0.5455,"velocity":127,"measure":16,"beat":2.0,"subject_pos":-1,"motif":"head","motif_pos":0,"best_pos":0,"similarity":1.0,"stretto":false,"stretto_voices":0,"combination":[],"aug_dim":"","rhythm_ratio":1.0,"mirror":false,"chromatic_density":0.278,"complexity":0.651,"dissonance":0.163},{"voice":3,"pitch":50,"start":33.2727,"duration":1.0909,"velocity":127,"measure":16,"beat":2.0,"subject_pos":-1,"motif":"","motif_pos":-1,"best_pos":7,"similarity":0.464,"stretto":false,"stretto_voices":0,"combination":[],"aug_dim":"","rhythm_ratio":1.0,"mirror":false,"chromatic_density":0.278,"complexity":0.651,"dissonance":0.163},{"voice":0,"pitch":76,"start":33.5454,"duration":0.2727,"velocity":127,"measure":16,"beat":2.5,"subject_pos":-1,"motif":"","motif_pos":-1,"best_pos":6,"similarity":0.586,"stretto":false,"stretto_voices":0,"combination":[],"aug_dim":"","rhythm_ratio":1.0,"mirror":false,"chromatic_density":0.278,"complexity":0.651,"dissonance":0.163},{"voice":1,"pitch":73,"start":33.5454,"duration":0.2727,"velocity":127,"measure":16,"beat":2.5,"subject_pos":-1,"motif":"","motif_pos":-1,"best_pos":6,"similarity":0.65,"stretto":false,"stretto_voices":0,"combination":[],"aug_dim":"","rhythm_ratio":1.0,"mirror":false,"chromatic_density":0.278,"complexity":0.651,"dissonance":0.163},{"voice":0,"pitch":77,"start":33.8181,"duration":0.2727,"velocity":127,"measure":16,"beat":3.0,"subject_pos":-1,"motif":"","motif_pos":-1,"best_pos":5,"similarity":0.657,"stretto":false,"stretto_voices":0,"combination":[],"aug_dim":"","rhythm_ratio":1.0,"mirror":false,"chromatic_density":0.278,"complexity":0.651,"dissonance":0.163},{"voice":1,"pitch":74,"start":33.8181,"duration":0.2727,"velocity":127,"measure":16,"beat":3.0,"subject_pos":-1,"motif":"","motif_pos":-1,"best_pos":5,"similarity":0.729,"stretto":false,"stretto_voices":0,"combination":[],"aug_dim":"","rhythm_ratio":1.0,"mirror":false,"chromatic_density":0.278,"complexity":0.651,"dissonance":0.163},{"voice":2,"pitch":57,"start":33.8181,"duration":0.2727,"velocity":127,"measure":16,"beat":3.0,"subject_pos":-1,"motif":"head","motif_pos":1,"best_pos":1,"similarity":1.0,"stretto":false,"stretto_voices":0,"combination":[],"aug_dim":"","rhythm_ratio":1.0,"mirror":false,"chromatic_density":0.278,"complexity":0.651,"dissonance":0.163},{"voice":0,"pitch":79,"start":34.0909,"duration":0.2727,"velocity":127,"measure":16,"beat":3.5,"subject_pos":-1,"motif":"","motif_pos":-1,"best_pos":5,"similarity":0.607,"stretto":false,"stretto_voices":0,"combination":[],"aug_dim":"","rhythm_ratio":1.0,"mirror":false,"chromatic_density":0.278,"complexity":0.651,"dissonance":0.163},{"voice":1,"pitch":76,"start":34.0909,"duration":0.2727,"velocity":127,"measure":16,"beat":3.5,"subject_pos":-1,"motif":"","motif_pos":-1,"best_pos":6,"similarity":0.721,"stretto":false,"stretto_voices":0,"combination":[],"aug_dim":"","rhythm_ratio":1.0,"mirror":false,"chromatic_density":0.278,"complexity":0.651,"dissonance":0.163},{"voice":2,"pitch":55,"start":34.0909,"duration":0.2727,"velocity":127,"measure":16,"beat":3.5,"subject_pos":-1,"motif":"head","motif_pos":2,"best_pos":2,"similarity":1.0,"stretto":false,"stretto_voices":0,"combination":[],"aug_dim":"","rhythm_ratio":1.0,"mirror":false,"chromatic_density":0.278,"complexity":0.651,"dissonance":0.163},{"voice":0,"pitch":81,"start":34.3636,"duration":1.0909,"velocity":127,"measure":16,"beat":4.0,"subject_pos":-1,"motif":"","motif_pos":-1,"best_pos":6,"similarity":0.661,"stretto":false,"stretto_voices":0,"combination":[],"aug_dim":"","rhythm_ratio":1.0,"mirror":false,"chromatic_density":0.278,"complexity":0.651,"dissonance":0.163},{"voice":1,"pitch":77,"start":34.3636,"duration":0.8182,"velocity":127,"measure":16,"beat":4.0,"subject_pos":-1,"motif":"","motif_pos":-1,"best_pos":7,"similarity":0.5,"stretto":false,"stretto_voices":0,"combination":[],"aug_dim":"","rhythm_ratio":1.0,"mirror":false,"chromatic_density":0.278,"complexity":0.651,"dissonance":0.163},{"voice":2,"pitch":53,"start":34.3636,"duration":0.2727,"velocity":127,"measure":16,"beat":4.0,"subject_pos":-1,"motif":"head","motif_pos":3,"best_pos":3,"similarity":1.0,"stretto":false,"stretto_voices":0,"combination":[],"aug_dim":"","rhythm_ratio":1.0,"mirror":false,"chromatic_density":0.278,"complexity":0.651,"dissonance":0.163},{"voice":3,"pitch":41,"start":34.3636,"duration":0.5455,"velocity":127,"measure":16,"beat":4.0,"subject_pos":-1,"motif":"","motif_pos":-1,"best_pos":5,"similarity":0.336,"stretto":false,"stretto_voices":0,"combination":[],"aug_dim":"","rhythm_ratio":1.0,"mirror":false,"chromatic_density":0.278,"complexity":0.651,"dissonance":0.163},{"voice":2,"pitch":52,"start":34.6363,"duration":0.2727,"velocity":127,"measure":16,"beat":4.5,"subject_pos":-1,"motif":"head","motif_pos":4,"best_pos":4,"similarity":1.0,"stretto":false,"stretto_voices":0,"combination":[],"aug_dim":"","rhythm_ratio":1.0,"mirror":false,"chromatic_density":0.278,"complexity":0.651,"dissonance":0.163},{"voice":2,"pitch":50,"start":34.9091,"duration":0.2727,"velocity":127,"measure":17,"beat":1.0,"subject_pos":-1,"motif":"","motif_pos":-1,"best_pos":2,"similarity":0.536,"stretto":false,"stretto_voices":0,"combination":[],"aug_dim":"","rhythm_ratio":1.0,"mirror":false,"chromatic_density":0.188,"complexity":0.543,"dissonance":0.095},{"voice":3,"pitch":43,"start":34.9091,"duration":1.6364,"velocity":127,"measure":17,"beat":1.0,"subject_pos":-1,"motif":"","motif_pos":-1,"best_pos":6,"similarity":0.332,"stretto":false,"stretto_voices":0,"combination":[],"aug_dim":"","rhythm_ratio":1.0,"mirror":false,"chromatic_density":0.188,"complexity":0.543,"dissonance":0.095},{"voice":1,"pitch":76,"start":35.1818,"duration":0.2727,"velocity":127,"measure":17,"beat":1.5,"subject_pos":-1,"motif":"","motif_pos":-1,"best_pos":1,"similarity":0.393,"stretto":false,"stretto_voices":0,"combination":[],"aug_dim":"","rhythm_ratio":1.0,"mirror":false,"chromatic_density":0.188,"complexity":0.543,"dissonance":0.095},{"voice":2,"pitch":48,"start":35.1818,"duration":0.2727,"velocity":127,"measure":17,"beat":1.5,"subject_pos":-1,"motif":"","motif_pos":-1,"best_pos":3,"similarity":0.571,"stretto":false,"stretto_voices":0,"combination":[],"aug_dim":"","rhythm_ratio":1.0,"mirror":false,"chromatic_density":0.188,"complexity":0.543,"dissonance":0.095},{"voice":0,"pitch":82,"start":35.4545,"duration":0.2727,"velocity":127,"measure":17,"beat":2.0,"subject_pos":-1,"motif":"","motif_pos":-1,"best_pos":7,"similarity":0.464,"stretto":false,"stretto_voices":0,"combination":[],"aug_dim":"","rhythm_ratio":1.0,"mirror":false,"chromatic_density":0.188,"complexity":0.543,"dissonance":0.095},{"voice":1,"pitch":74,"start":35.4545,"duration":0.2727,"velocity":127,"measure":17,"beat":2.0,"subject_pos":-1,"motif":"","motif_pos":-1,"best_pos":2,"similarity":0.518,"stretto":false,"stretto_voices":0,"combination":[],"aug_dim":"","rhythm_ratio":1.0,"mirror":false,"chromatic_density":0.188,"complexity":0.543,"dissonance":0.095},{"voice":2,"pitch":46,"start":35.4545,"duration":0.8182,"velocity":127,"measure":17,"beat":2.0,"subject_pos":-1,"motif":"","motif_pos":-1,"best_pos":4,"similarity":0.607,"stretto":false,"stretto_voices":0,"combination":[],"aug_dim":"","rhythm_ratio":1.0,"mirror":false,"chromatic_density":0.188,"complexity":0.543,"dissonance":0.095},{"voice":0,"pitch":81,"start":35.7272,"duration":0.2727,"velocity":127,"measure":17,"beat":2.5,"subject_pos":-1,"motif":"","motif_pos":-1,"best_pos":2,"similarity":0.407,"stretto":false,"stretto_voices":0,"combination":[],"aug_dim":"","rhythm_ratio":1.0,"mirror":false,"chromatic_density":0.188,"complexity":0.543,"dissonance":0.095},{"voice":1,"pitch":72,"start":35.7272,"duration":0.2727,"velocity":127,"measure":17,"beat":2.5,"subject_pos":-1,"motif":"","motif_pos":-1,"best_pos":2,"similarity":0.643,"stretto":false,"stretto_voices":0,"combination":[],"aug_dim":"","rhythm_ratio":1.0,"mirror":false,"chromatic_density":0.188,"complexity":0.543,"dissonance":0.095},{"voice":0,"pitch":79,"start":36.0,"duration":0.2727,"velocity":127,"measure":17,"beat":3.0,"subject_pos":-1,"motif":"","motif_pos":-1,"best_pos":2,"similarity":0.443,"stretto":false,"stretto_voices":0,"combination":[],"aug_dim":"","rhythm_ratio":1.0,"mirror":false,"chromatic_density":0.188,"complexity":0.543,"dissonance":0.095},{"voice":1,"pitch":70,"start":36.0,"duration":0.2727,"velocity":127,"measure":17,"beat":3.0,"subject_pos":-1,"motif":"","motif_pos":-1,"best_pos":3,"similarity":0.721,"stretto":false,"stretto_voices":0,"combination":[],"aug_dim":"","rhythm_ratio":1.0,"mirror":false,"chromatic_density":0.188,"complexity":0.543,"dissonance":0.095},{"voice":0,"pitch":77,"start":36.2727,"duration":0.2727,"velocity":127,"measure":17,"beat":3.5,"subject_pos":-1,"motif":"","motif_pos":-1,"best_pos":5,"similarity":0.404,"stretto":false,"stretto_voices":0,"combination":[],"aug_dim":"","rhythm_ratio":1.0,"mirror":false,"chromatic_density":0.188,"complexity":0.543,"dissonance":0.095},{"voice":1,"pitch":69,"start":36.2727,"duration":0.2727,"velocity":127,"measure":17,"beat":3.5,"subject_pos":-1,"motif":"","motif_pos":-1,"best_pos":4,"similarity":0.736,"stretto":false,"stretto_voices":0,"combination":[],"aug_dim":"","rhythm_ratio":1.0,"mirror":false,"chromatic_density":0.188,"complexity":0.543,"dissonance":0.095},{"voice":2,"pitch":48,"start":36.2727,"duration":0.2727,"velocity":127,"measure":17,"beat":3.5,"subject_pos":-1,"motif":"","motif_pos":-1,"best_pos":5,"similarity":0.607,"stretto":false,"stretto_voices":0,"combination":[],"aug_dim":"","rhythm_ratio":1.0,"mirror":false,"chromatic_density":0.188,"complexity":0.543,"dissonance":0.095},{"voice":0,"pitch":79,"start":36.5454,"duration":0.5455,"velocity":127,"measure":17,"beat":4.0,"subject_pos":-1,"motif":"","motif_pos":-1,"best_pos":6,"similarity":0.336,"stretto":false,"stretto_voices":0,"combination":[],"aug_dim":"","rhythm_ratio":1.0,"mirror":false,"chromatic_density":0.188,"complexity":0.543,"dissonance":0.095},{"voice":1,"pitch":70,"start":36.5454,"duration":1.0909,"velocity":127,"measure":17,"beat":4.0,"subject_pos":-1,"motif":"","motif_pos":-1,"best_pos":5,"similarity":0.507,"stretto":false,"stretto_voices":0,"combination":[],"aug_dim":"","rhythm_ratio":1.0,"mirror":false,"chromatic_density":0.188,"complexity":0.543,"dissonance":0.095},{"voice":2,"pitch":50,"start":36.5454,"duration":0.2727,"velocity":127,"measure":17,"beat":4.0,"subject_pos":-1,"motif":"","motif_pos":-1,"best_pos":5,"similarity":0.621,"stretto":false,"stretto_voices":0,"combination":[],"aug_dim":"","rhythm_ratio":1.0,"mirror":false,"chromatic_density":0.188,"complexity":0.543,"dissonance":0.095},{"voice":3,"pitch":41,"start":36.5454,"duration":0.2727,"velocity":127,"measure":17,"beat":4.0,"subject_pos":-1,"motif":"","motif_pos":-1,"best_pos":4,"similarity":0.5,"stretto":false,"stretto_voices":0,"combination":[],"aug_dim":"","rhythm_ratio":1.0,"mirror":false,"chromatic_density":0.188,"complexity":0.543,"dissonance":0.095},{"voice":2,"pitch":52,"start":36.8181,"duration":0.2727,"velocity":127,"measure":17,"beat":4.5,"subject_pos":-1,"motif":"","motif_pos":-1,"best_pos":6,"similarity":0.65,"stretto":false,"stretto_voices":0,"combination":[],"aug_dim":"","rhythm_ratio":1.0,"mirror":false,"chromatic_density":0.188,"complexity":0.543,"dissonance":0.095},{"voice":3,"pitch":43,"start":36.8181,"duration":0.2727,"velocity":127,"measure":17,"beat":4.5,"subject_pos":-1,"motif":"","motif_pos":-1,"best_pos":5,"similarity":0.643,"stretto":false,"stretto_voices":0,"combination":[],"aug_dim":"","rhythm_ratio":1.0,"mirror":false,"chromatic_density":0.188,"complexity":0.543,"dissonance":0.095},{"voice":0,"pitch":72,"start":37.0909,"duration":2.4545,"velocity":127,"measure":18,"beat":1.0,"subject_pos":-1,"motif":"","motif_pos":-1,"best_pos":3,"similarity":0.257,"stretto":false,"stretto_voices":0,"combination":[],"aug_dim":"","rhythm_ratio":1.0,"mirror":false,"chromatic_density":0.091,"complexity":0.487,"dissonance":0.102},{"voice":2,"pitch":53,"start":37.0909,"duration":0.2727,"velocity":127,"measure":18,"beat":1.0,"subject_pos":-1,"motif":"","motif_pos":-1,"best_pos":5,"similarity":0.6,"stretto":false,"stretto_voices":0,"combination":[],"aug_dim":"","rhythm_ratio":1.0,"mirror":false,"chromatic_density":0.091,"complexity":0.487,"dissonance":0.102},{"voice":3,"pitch":45,"start":37.0909,"duration":1.6364,"velocity":127,"measure":18,"beat":1.0,"subject_pos":-1,"motif":"","motif_pos":-1,"best_pos":6,"similarity":0.679,"stretto":false,"stretto_voices":0,"combination":[],"aug_dim":"","rhythm_ratio":1.0,"mirror":false,"chromatic_density":0.091,"complexity":0.487,"dissonance":0.102},{"voice":2,"pitch":55,"start":37.3636,"duration":0.2727,"velocity":127,"measure":18,"beat":1.5,"subject_pos":-1,"motif":"","motif_pos":-1,"best_pos":6,"similarity":0.464,"stretto":false,"stretto_voices":0,"combination":[],"aug_dim":"","rhythm_ratio":1.0,"mirror":false,"chromatic_density":0.091,"complexity":0.487,"dissonance":0.102},{"voice":1,"pitch":69,"start":37.6363,"duration":0.2727,"velocity":127,"measure":18,"beat":2.0,"subject_pos":-1,"motif":"","motif_pos":-1,"best_pos":4,"similarity":0.414,"stretto":false,"stretto_voices":0,"combination":[],"aug_dim":"","rhythm_ratio":1.0,"mirror":false,"chromatic_density":0.091,"complexity":0.487,"dissonance":0.102},{"voice":2,"pitch":53,"start":37.6363,"duration":1.0909,"velocity":127,"measure":18,"beat":2.0,"subject_pos":-1,"motif":"","motif_pos":-1,"best_pos":4,"similarity":0.507,"stretto":false,"stretto_voices":0,"combination":[],"aug_dim":"","rhythm_ratio":1.0,"mirror":false,"chromatic_density":0.091,"complexity":0.487,"dissonance":0.102},{"voice":1,"pitch":67,"start":37.9091,"duration":0.2727,"velocity":127,"measure":18,"beat":2.5,"subject_pos":-1,"motif":"","motif_pos":-1,"best_pos":2,"similarity":0.45,"stretto":false,"stretto_voices":0,"combination":[],"aug_dim":"","rhythm_ratio":1.0,"mirror":false,"chromatic_density":0.091,"complexity":0.487,"dissonance":0.102},{"voice":1,"pitch":65,"start":38.1818,"duration":0.2727,"velocity":127,"measure":18,"beat":3.0,"subject_pos":-1,"motif":"","motif_pos":-1,"best_pos":5,"similarity":0.418,"stretto":false,"stretto_voices":0,"combination":[],"aug_dim":"","rhythm_ratio":1.0,"mirror":false,"chromatic_density":0.091,"complexity":0.487,"dissonance":0.102},{"voice":1,"pitch":67,"start":38.4545,"duration":0.2727,"velocity":127,"measure":18,"beat":3.5,"subject_pos":-1,"motif":"","motif_pos":-1,"best_pos":1,"similarity":0.457,"stretto":false,"stretto_voices":0,"combination":[],"aug_dim":"","rhythm_ratio":1.0,"mirror":false,"chromatic_density":0.091,"complexity":0.487,"dissonance":0.102},{"voice":1,"pitch":65,"start":38.7272,"duration":0.2727,"velocity":127,"measure":18,"beat":4.0,"subject_pos":-1,"motif":"","motif_pos":-1,"best_pos":2,"similarity":0.621,"stretto":false,"stretto_voices":0,"combination":[],"aug_dim":"","rhythm_ratio":1.0,"mirror":false,"chromatic_density":0.091,"complexity":0.487,"dissonance":0.102},{"voice":2,"pitch":55,"start":38.7272,"duration":0.2727,"velocity":127,"measure":18,"beat":4.0,"subject_pos":-1,"motif":"","motif_pos":-1,"best_pos":5,"similarity":0.643,"stretto":false,"stretto_voices":0,"combination":[],"aug_dim":"","rhythm_ratio":1.0,"mirror":false,"chromatic_density":0.091,"complexity":0.487,"dissonance":0.102},{"voice":3,"pitch":46,"start":38.7272,"duration":0.2727,"velocity":127,"measure":18,"beat":4.0,"subject_pos":-1,"motif":"","motif_pos":-1,"best_pos":5,"similarity":0.657,"stretto":false,"stretto_voices":0,"combination":[],"aug_dim":"","rhythm_ratio":1.0,"mirror":false,"chromatic_density":0.091,"complexity":0.487,"dissonance":0.102},{"voice":1,"pitch":63,"start":39.0,"duration":0.2727,"velocity":127,"measure":18,"beat":4.5,"subject_pos":-1,"motif":"","motif_pos":-1,"best_pos":3,"similarity":0.686,"stretto":false,"stretto_voices":0,"combination":[],"aug_dim":"","rhythm_ratio":1.0,"mirror":false,"chromatic_density":0.091,"complexity":0.487,"dissonance":0.102},{"voice":2,"pitch":57,"start":39.0,"duration":0.2727,"velocity":127,"measure":18,"beat":4.5,"subject_pos":-1,"motif":"","motif_pos":-1,"best_pos":6,"similarity":0.679,"stretto":false,"stretto_voices":0,"combination":[],"aug_dim":"","rhythm_ratio":1.0,"mirror":false,"chromatic_density":0.091,"complexity":0.487,"dissonance":0.102},{"voice":3,"pitch":48,"start":39.0,"duration":0.2727,"velocity":127,"measure":18,"beat":4.5,"subject_pos":-1,"motif":"","motif_pos":-1,"best_pos":6,"similarity":0.579,"stretto":false,"stretto_voices":0,"combination":[],"aug_dim":"","rhythm_ratio":1.0,"mirror":false,"chromatic_density":0.091,"complexity":0.487,"dissonance":0.102},{"voice":1,"pitch":62,"start":39.2727,"duration":1.6364,"velocity":127,"measure":19,"beat":1.0,"subject_pos":-1,"motif":"","motif_pos":-1,"best_pos":4,"similarity":0.679,"stretto":false,"stretto_voices":0,"combination":[],"aug_dim":"","rhythm_ratio":1.0,"mirror":false,"chromatic_density":0.429,"complexity":0.544,"dissonance":0.08},{"voice":2,"pitch":58,"start":39.2727,"duration":1.3636,"velocity":127,"measure":19,"beat":1.0,"subject_pos":-1,"motif":"","motif_pos":-1,"best_pos":7,"similarity":0.464,"stretto":false,"stretto_voices":0,"combination":[],"aug_dim":"","rhythm_ratio":1.0,"mirror":false,"chromatic_density":0.429,"complexity":0.544,"dissonance":0.08},{"voice":3,"pitch":50,"start":39.2727,"duration":0.5455,"velocity":127,"measure":19,"beat":1.0,"subject_pos":-1,"motif":"","motif_pos":-1,"best_pos":5,"similarity":0.521,"stretto":false,"stretto_voices":0,"combination":[],"aug_dim":"","rhythm_ratio":1.0,"mirror":false,"chromatic_density":0.429,"complexity":0.544,"dissonance":0.08},{"voice":0,"pitch":66,"start":39.5454,"duration":0.2727,"velocity":127,"measure":19,"beat":1.5,"subject_pos":-1,"motif":"","motif_pos":-1,"best_pos":4,"similarity":0.521,"stretto":false,"stretto_voices":0,"combination":[],"aug_dim":"","rhythm_ratio":1.0,"mirror":false,"chromatic_density":0.429,"complexity":0.544,"dissonance":0.08},{"voice":0,"pitch":67,"start":39.8181,"duration":0.2727,"velocity":127,"measure":19,"beat":2.0,"subject_pos":-1,"motif":"","motif_pos":-1,"best_pos":5,"similarity":0.721,"stretto":false,"stretto_voices":0,"combination":[],"aug_dim":"","rhythm_ratio":1.0,"mirror":false,"chromatic_density":0.429,"complexity":0.544,"dissonance":0.08},{"voice":3,"pitch":52,"start":39.8181,"duration":0.2727,"velocity":127,"measure":19,"beat":2.0,"subject_pos":-1,"motif":"","motif_pos":-1,"best_pos":5,"similarity":0.586,"stretto":false,"stretto_voices":0,"combination":[],"aug_dim":"","rhythm_ratio":1.0,"mirror":false,"chromatic_density":0.429,"complexity":0.544,"dissonance":0.08},{"voice":0,"pitch":69,"start":40.0909,"duration":0.2727,"velocity":127,"measure":19,"beat":2.5,"subject_pos":-1,"motif":"","motif_pos":-1,"best_pos":6,"similarity":0.714,"stretto":false,"stretto_voices":0,"combination":[],"aug_dim":"","rhythm_ratio":1.0,"mirror":false,"chromatic_density":0.429,"complexity":0.544,"dissonance":0.08},{"voice":3,"pitch":54,"start":40.0909,"duration":0.2727,"velocity":127,"measure":19,"beat":2.5,"subject_pos":-1,"motif":"","motif_pos":-1,"best_pos":6,"similarity":0.65,"stretto":false,"stretto_voices":0,"combination":[],"aug_dim":"","rhythm_ratio":1.0,"mirror":false,"chromatic_density":0.429,"complexity":0.544,"dissonance":0.08},{"voice":0,"pitch":70,"start":40.3636,"duration":2.1818,"velocity":127,"measure":19,"beat":3.0,"subject_pos":-1,"motif":"enigmatic_cell","motif_pos":0,"best_pos":0,"similarity":1.0,"stretto":false,"stretto_voices":0,"combination":[],"aug_dim":"","rhythm_ratio":1.0,"mirror":false,"chromatic_density":0.429,"complexity":0.544,"dissonance":0.08},{"voice":3,"pitch":55,"start":40.3636,"duration":0.2727,"velocity":127,"measure":19,"beat":3.0,"subject_pos":-1,"motif":"","motif_pos":-1,"best_pos":7,"similarity":0.464,"stretto":false,"stretto_voices":0,"combination":[],"aug_dim":"","rhythm_ratio":1.0,"mirror":false,"chromatic_density":0.429,"complexity":0.544,"dissonance":0.08},{"voice":2,"pitch":57,"start":40.6363,"duration":0.2727,"velocity":127,"measure":19,"beat":3.5,"subject_pos":-1,"motif":"","motif_pos":-1,"best_pos":1,"similarity":0.429,"stretto":false,"stretto_voices":0,"combination":[],"aug_dim":"","rhythm_ratio":1.0,"mirror":false,"chromatic_density":0.429,"complexity":0.544,"dissonance":0.08},{"voice":3,"pitch":53,"start":40.6363,"duration":0.2727,"velocity":127,"measure":19,"beat":3.5,"subject_pos":-1,"motif":"","motif_pos":-1,"best_pos":3,"similarity":0.471,"stretto":false,"stretto_voices":0,"combination":[],"aug_dim":"","rhythm_ratio":1.0,"mirror":false,"chromatic_density":0.429,"complexity":0.544,"dissonance":0.08},{"voice":1,"pitch":64,"start":40.9091,"duration":0.2727,"velocity":127,"measure":19,"beat":4.0,"subject_pos":-1,"motif":"","motif_pos":-1,"best_pos":6,"similarity":0.643,"stretto":false,"stretto_voices":0,"combination":[],"aug_dim":"","rhythm_ratio":1.0,"mirror":false,"chromatic_density":0.429,"complexity":0.544,"dissonance":0.08},{"voice":2,"pitch":55,"start":40.9091,"duration":0.2727,"velocity":127,"measure":19,"beat":4.0,"subject_pos":-1,"motif":"","motif_pos":-1,"best_pos":2,"similarity":0.643,"stretto":false,"stretto_voices":0,"combination":[],"aug_dim":"","rhythm_ratio":1.0,"mirror":false,"chromatic_density":0.429,"complexity":0.544,"dissonance":0.08},{"voice":3,"pitch":52,"start":40.9091,"duration":0.2727,"velocity":127,"measure":19,"beat":4.0,"subject_pos":-1,"motif":"","motif_pos":-1,"best_pos":3,"similarity":0.45,"stretto":false,"stretto_voices":0,"combination":[],"aug_dim":"","rhythm_ratio":1.0,"mirror":false,"chromatic_density":0.429,"complexity":0.544,"dissonance":0.08},{"voice":1,"pitch":65,"start":41.1818,"duration":0.2727,"velocity":127,"measure":19,"beat":4.5,"subject_pos":-1,"motif":"","motif_pos":-1,"best_pos":5,"similarity":0.618,"stretto":false,"stretto_voices":0,"combination":[],"aug_dim":"","rhythm_ratio":1.0,"mirror":false,"chromatic_density":0.429,"complexity":0.544,"dissonance":0.08},{"voice":2,"pitch":53,"start":41.1818,"duration":0.2727,"velocity":127,"measure":19,"beat":4.5,"subject_pos":-1,"motif":"","motif_pos":-1,"best_pos":3,"similarity":0.786,"stretto":false,"stretto_voices":0,"combination":[],"aug_dim":"","rhythm_ratio":1.0,"mirror":false,"chromatic_density":0.429,"complexity":0.544,"dissonance":0.08},{"voice":3,"pitch":50,"start":41.1818,"duration":0.2727,"velocity":127,"measure":19,"beat":4.5,"subject_pos":-1,"motif":"","motif_pos":-1,"best_pos":3,"similarity":0.5,"stretto":false,"stretto_voices":0,"combination":[],"aug_dim":"","rhythm_ratio":1.0,"mirror":false,"chromatic_density":0.429,"complexity":0.544,"dissonance":0.08},{"voice":1,"pitch":67,"start":41.4545,"duration":0.2727,"velocity":127,"measure":20,"beat":1.0,"subject_pos":-1,"motif":"","motif_pos":-1,"best_pos":6,"similarity":0.464,"stretto":false,"stretto_voices":0,"combination":[],"aug_dim":"","rhythm_ratio":1.0,"mirror":false,"chromatic_density":0.267,"complexity":0.521,"dissonance":0.097},{"voice":2,"pitch":52,"start":41.4545,"duration":0.5455,"velocity":127,"measure":20,"beat":1.0,"subject_pos":-1,"motif":"","motif_pos":-1,"best_pos":4,"similarity":0.893,"stretto":false,"stretto_voices":0,"combination":[],"aug_dim":"","rhythm_ratio":1.0,"mirror":false,"chromatic_density":0.267,"complexity":0.521,"dissonance":0.097},{"voice":3,"pitch":48,"start":41.4545,"duration":0.5455,"velocity":127,"measure":20,"beat":1.0,"subject_pos":-1,"motif":"","motif_pos":-1,"best_pos":4,"similarity":0.607,"stretto":false,"stretto_voices":0,"combination":[],"aug_dim":"","rhythm_ratio":1.0,"mirror":false,"chromatic_density":0.267,"complexity":0.521,"dissonance":0.097},{"voice":1,"pitch":65,"start":41.7272,"duration":0.2727,"velocity":127,"measure":20,"beat":1.5,"subject_pos":-1,"motif":"","motif_pos":-1,"best_pos":3,"similarity":0.471,"stretto":false,"stretto_voices":0,"combination":[],"aug_dim":"","rhythm_ratio":1.0,"mirror":false,"chromatic_density":0.267,"complexity":0.521,"dissonance":0.097},{"voice":1,"pitch":64,"start":42.0,"duration":0.2727,"velocity":127,"measure":20,"beat":2.0,"subject_pos":-1,"motif":"","motif_pos":-1,"best_pos":4,"similarity":0.414,"stretto":false,"stretto_voices":0,"combination":[],"aug_dim":"","rhythm_ratio":1.0,"mirror":false,"chromatic_density":0.267,"complexity":0.521,"dissonance":0.097},{"voice":2,"pitch":53,"start":42.0,"duration":0.2727,"velocity":127,"measure":20,"beat":2.0,"subject_pos":-1,"motif":"","motif_pos":-1,"best_pos":5,"similarity":0.821,"stretto":false,"stretto_voices":0,"combination":[],"aug_dim":"","rhythm_ratio":1.0,"mirror":false,"chromatic_density":0.267,"complexity":0.521,"dissonance":0.097},{"voice":3,"pitch":50,"start":42.0,"duration":0.2727,"velocity":127,"measure":20,"beat":2.0,"subject_pos":-1,"motif":"","motif_pos":-1,"best_pos":5,"similarity":0.679,"stretto":false,"stretto_voices":0,"combination":[],"aug_dim":"","rhythm_ratio":1.0,"mirror":false,"chromatic_density":0.267,"complexity":0.521,"dissonance":0.097},{"voice":1,"pitch":62,"start":42.2727,"duration":0.2727,"velocity":127,"measure":20,"beat":2.5,"subject_pos":-1,"motif":"","motif_pos":-1,"best_pos":2,"similarity":0.464,"stretto":false,"stretto_voices":0,"combination":[],"aug_dim":"","rhythm_ratio":1.0,"mirror":false,"chromatic_density":0.267,"complexity":0.521,"dissonance":0.097},{"voice":2,"pitch":55,"start":42.2727,"duration":0.2727,"velocity":127,"measure":20,"beat":2.5,"subject_pos":-1,"motif":"","motif_pos":-1,"best_pos":6,"similarity":0.643,"stretto":false,"stretto_voices":0,"combination":[],"aug_dim":"","rhythm_ratio":1.0,"mirror":false,"chromatic_density":0.267,"complexity":0.521,"dissonance":0.097},{"voice":3,"pitch":52,"start":42.2727,"duration":0.2727,"velocity":127,"measure":20,"beat":2.5,"subject_pos":-1,"motif":"","motif_pos":-1,"best_pos":6,"similarity":0.679,"stretto":false,"stretto_voices":0,"combination":[],"aug_dim":"","rhythm_ratio":1.0,"mirror":false,"chromatic_density":0.267,"complexity":0.521,"dissonance":0.097},{"voice":0,"pitch":69,"start":42.5454,"duration":1.3636,"velocity":127,"measure":20,"beat":3.0,"subject_pos":-1,"motif":"enigmatic_cell","motif_pos":1,"best_pos":1,"similarity":1.0,"stretto":false,"stretto_voices":0,"combination":[],"aug_dim":"","rhythm_ratio":1.0,"mirror":false,"chromatic_density":0.267,"complexity":0.521,"dissonance":0.097},{"voice":1,"pitch":60,"start":42.5454,"duration":0.5455,"velocity":127,"measure":20,"beat":3.0,"subject_pos":-1,"motif":"","motif_pos":-1,"best_pos":2,"similarity":0.429,"stretto":false,"stretto_voices":0,"combination":[],"aug_dim":"","rhythm_ratio":1.0,"mirror":false,"chromatic_density":0.267,"complexity":0.521,"dissonance":0.097},{"voice":2,"pitch":57,"start":42.5454,"duration":0.5455,"velocity":127,"measure":20,"beat":3.0,"subject_pos":-1,"motif":"","motif_pos":-1,"best_pos":6,"similarity":0.404,"stretto":false,"stretto_voices":0,"combination":[],"aug_dim":"","rhythm_ratio":1.0,"mirror":false,"chromatic_density":0.267,"complexity":0.521,"dissonance":0.097},{"voice":3,"pitch":53,"start":42.5454,"duration":0.2727,"velocity":127,"measure":20,"beat":3.0,"subject_pos":-1,"motif":"","motif_pos":-1,"best_pos":7,"similarity":0.464,"stretto":false,"stretto_voices":0,"combination":[],"aug_dim":"","rhythm_ratio":1.0,"mirror":false,"chromatic_density":0.267,"complexity":0.521,"dissonance":0.097},{"voice":3,"pitch":52,"start":42.8181,"duration":0.2727,"velocity":127,"measure":20,"beat":3.5,"subject_pos":-1,"motif":"","motif_pos":-1,"best_pos":1,"similarity":0.393,"stretto":false,"stretto_voices":0,"combination":[],"aug_dim":"","rhythm_ratio":1.0,"mirror":false,"chromatic_density":0.267,"complexity":0.521,"dissonance":0.097},{"voice":1,"pitch":65,"start":43.0909,"duration":0.5455,"velocity":127,"measure":20,"beat":4.0,"subject_pos":-1,"motif":"","motif_pos":-1,"best_pos":3,"similarity":0.464,"stretto":false,"stretto_voices":0,"combination":[],"aug_dim":"","rhythm_ratio":1.0,"mirror":false,"chromatic_density":0.267,"complexity":0.521,"dissonance":0.097},{"voice":2,"pitch":62,"start":43.0909,"duration":0.5455,"velocity":127,"measure":20,"beat":4.0,"subject_pos":-1,"motif":"","motif_pos":-1,"best_pos":1,"similarity":0.293,"stretto":false,"stretto_voices":0,"combination":[],"aug_dim":"","rhythm_ratio":1.0,"mirror":false,"chromatic_density":0.267,"complexity":0.521,"dissonance":0.097},{"voice":3,"pitch":50,"start":43.0909,"duration":0.2727,"velocity":127,"measure":20,"beat":4.0,"subject_pos":-1,"motif":"","motif_pos":-1,"best_pos":2,"similarity":0.5,"stretto":false,"stretto_voices":0,"combination":[],"aug_dim":"","rhythm_ratio":1.0,"mirror":false,"chromatic_density":0.267,"complexity":0.521,"dissonance":0.097},{"voice":3,"pitch":48,"start":43.3636,"duration":0.2727,"velocity":127,"measure":20,"beat":4.5,"subject_pos":-1,"motif":"","motif_pos":-1,"best_pos":2,"similarity":0.446,"stretto":false,"stretto_voices":0,"combination":[],"aug_dim":"","rhythm_ratio":1.0,"mirror":false,"chromatic_density":0.267,"complexity":0.521,"dissonance":0.097},{"voice":1,"pitch":65,"start":43.6363,"duration":1.3636,"velocity":127,"measure":21,"beat":1.0,"subject_pos":-1,"motif":"","motif_pos":-1,"best_pos":4,"similarity":0.643,"stretto":false,"stretto_voices":0,"combination":[],"aug_dim":"","rhythm_ratio":1.0,"mirror":false,"chromatic_density":0.7,"complexity":0.498,"dissonance":0.064},{"voice":2,"pitch":50,"start":43.6363,"duration":0.5455,"velocity":127,"measure":21,"beat":1.0,"subject_pos":-1,"motif":"","motif_pos":-1,"best_pos":2,"similarity":0.164,"stretto":false,"stretto_voices":0,"combination":[],"aug_dim":"","rhythm_ratio":1.0,"mirror":false,"chromatic_density":0.7,"complexity":0.498,"dissonance":0.064},{"voice":3,"pitch":46,"start":43.6363,"duration":0.5455,"velocity":127,"measure":21,"beat":1.0,"subject_pos":-1,"motif":"","motif_pos":-1,"best_pos":2,"similarity":0.5,"stretto":false,"stretto_voices":0,"combination":[],"aug_dim":"","rhythm_ratio":1.0,"mirror":false,"chromatic_density":0.7,"complexity":0.498,"dissonance":0.064},{"voice":0,"pitch":74,"start":43.909,"duration":0.5455,"velocity":127,"measure":21,"beat":1.5,"subject_pos":-1,"motif":"enigmatic_cell","motif_pos":2,"best_pos":2,"similarity":1.0,"stretto":false,"stretto_voices":0,"combination":[],"aug_dim":"","rhythm_ratio":1.0,"mirror":false,"chromatic_density":0.7,"complexity":0.498,"dissonance":0.064},{"voice":3,"pitch":58,"start":44.1818,"duration":0.2727,"velocity":127,"measure":21,"beat":2.0,"subject_pos":-1,"motif":"","motif_pos":-1,"best_pos":3,"similarity":0.571,"stretto":false,"stretto_voices":0,"combination":[],"aug_dim":"","rhythm_ratio":1.0,"mirror":false,"chromatic_density":0.7,"complexity":0.498,"dissonance":0.064},{"voice":0,"pitch":73,"start":44.4545,"duration":0.2727,"velocity":127,"measure":21,"beat":2.5,"subject_pos":-1,"motif":"","motif_pos":-1,"best_pos":4,"similarity":0.621,"stretto":false,"stretto_voices":0,"combination":[],"aug_dim":"","rhythm_ratio":1.0,"mirror":false,"chromatic_density":0.7,"complexity":0.498,"dissonance":0.064},{"voice":3,"pitch":57,"start":44.4545,"duration":0.2727,"velocity":127,"measure":21,"beat":2.5,"subject_pos":-1,"motif":"","motif_pos":-1,"best_pos":4,"similarity":0.661,"stretto":false,"stretto_voices":0,"combination":[],"aug_dim":"","rhythm_ratio":1.0,"mirror":false,"chromatic_density":0.7,"complexity":0.498,"dissonance":0.064},{"voice":0,"pitch":74,"start":44.7272,"duration":1.6364,"velocity":127,"measure":21,"beat":3.0,"subject_pos":-1,"motif":"","motif_pos":-1,"best_pos":3,"similarity":0.457,"stretto":false,"stretto_voices":0,"combination":[],"aug_dim":"","rhythm_ratio":1.0,"mirror":false,"chromatic_density":0.7,"complexity":0.498,"dissonance":0.064},{"voice":3,"pitch":58,"start":44.7272,"duration":0.5455,"velocity":127,"measure":21,"beat":3.0,"subject_pos":-1,"motif":"","motif_pos":-1,"best_pos":5,"similarity":0.464,"stretto":false,"stretto_voices":0,"combination":[],"aug_dim":"","rhythm_ratio":1.0,"mirror":false,"chromatic_density":0.7,"complexity":0.498,"dissonance":0.064},{"voice":1,"pitch":66,"start":45.0,"duration":0.2727,"velocity":127,"measure":21,"beat":3.5,"subject_pos":-1,"motif":"","motif_pos":-1,"best_pos":5,"similarity":0.643,"stretto":false,"stretto_voices":0,"combination":[],"aug_dim":"","rhythm_ratio":1.0,"mirror":false,"chromatic_density":0.7,"complexity":0.498,"dissonance":0.064},{"voice":1,"pitch":67,"start":45.2727,"duration":0.2727,"velocity":127,"measure":21,"beat":4.0,"subject_pos":-1,"motif":"","motif_pos":-1,"best_pos":5,"similarity":0.614,"stretto":false,"stretto_voices":0,"combination":[],"aug_dim":"","rhythm_ratio":1.0,"mirror":false,"chromatic_density":0.7,"complexity":0.498,"dissonance":0.064},{"voice":2,"pitch":62,"start":45.2727,"duration":0.5455,"velocity":127,"measure":21,"beat":4.0,"subject_pos":-1,"motif":"","motif_pos":-1,"best_pos":5,"similarity":0.3,"stretto":false,"stretto_voices":0,"combination":[],"aug_dim":"","rhythm_ratio":1.0,"mirror":false,"chromatic_density":0.7,"complexity":0.498,"dissonance":0.064},{"voice":3,"pitch":46,"start":45.2727,"duration":0.5455,"velocity":127,"measure":21,"beat":4.0,"subject_pos":-1,"motif":"","motif_pos":-1,"best_pos":3,"similarity":0.336,"stretto":false,"stretto_voices":0,"combination":[],"aug_dim":"","rhythm_ratio":1.0,"mirror":false,"chromatic_density":0.7,"complexity":0.498,"dissonance":0.064},{"voice":1,"pitch":68,"start":45.5454,"duration":0.2727,"velocity":127,"measure":21,"beat":4.5,"subject_pos":-1,"motif":"","motif_pos":-1,"best_pos":6,"similarity":0.589,"stretto":false,"stretto_voices":0,"combination":[],"aug_dim":"","rhythm_ratio":1.0,"mirror":false,"chromatic_density":0.7,"complexity":0.498,"dissonance":0.064},{"voice":1,"pitch":69,"start":45.8181,"duration":1.0909,"velocity":127,"measure":22,"beat":1.0,"subject_pos":-1,"motif":"","motif_pos":-1,"best_pos":7,"similarity":0.429,"stretto":false,"stretto_voices":0,"combination":[],"aug_dim":"","rhythm_ratio":1.0,"mirror":false,"chromatic_density":0.5,"complexity":0.452,"dissonance":0.113},{"voice":2,"pitch":64,"start":45.8181,"duration":1.0909,"velocity":127,"measure":22,"beat":1.0,"subject_pos":-1,"motif":"","motif_pos":-1,"best_pos":1,"similarity":0.357,"stretto":false,"stretto_voices":0,"combination":[],"aug_dim":"","rhythm_ratio":1.0,"mirror":false,"chromatic_density":0.5,"complexity":0.452,"dissonance":0.113},{"voice":3,"pitch":45,"start":45.8181,"duration":0.5455,"velocity":127,"measure":22,"beat":1.0,"subject_pos":-1,"motif":"","motif_pos":-1,"best_pos":4,"similarity":0.382,"stretto":false,"stretto_voices":0,"combination":[],"aug_dim":"","rhythm_ratio":1.0,"mirror":false,"chromatic_density":0.5,"complexity":0.452,"dissonance":0.113},{"voice":0,"pitch":73,"start":46.3636,"duration":0.5455,"velocity":127,"measure":22,"beat":2.0,"subject_pos":-1,"motif":"","motif_pos":-1,"best_pos":4,"similarity":0.371,"stretto":false,"stretto_voices":0,"combination":[],"aug_dim":"","rhythm_ratio":1.0,"mirror":false,"chromatic_density":0.5,"complexity":0.452,"dissonance":0.113},{"voice":3,"pitch":57,"start":46.3636,"duration":0.2727,"velocity":127,"measure":22,"beat":2.0,"subject_pos":-1,"motif":"","motif_pos":-1,"best_pos":4,"similarity":0.343,"stretto":false,"stretto_voices":0,"combination":[],"aug_dim":"","rhythm_ratio":1.0,"mirror":false,"chromatic_density":0.5,"complexity":0.452,"dissonance":0.113},{"voice":3,"pitch":58,"start":46.6363,"duration":0.2727,"velocity":127,"measure":22,"beat":2.5,"subject_pos":-1,"motif":"","motif_pos":-1,"best_pos":5,"similarity":0.346,"stretto":false,"stretto_voices":0,"combination":[],"aug_dim":"","rhythm_ratio":1.0,"mirror":false,"chromatic_density":0.5,"complexity":0.452,"dissonance":0.113},{"voice":3,"pitch":57,"start":46.909,"duration":0.2727,"velocity":127,"measure":22,"beat":3.0,"subject_pos":-1,"motif":"","motif_pos":-1,"best_pos":1,"similarity":0.429,"stretto":false,"stretto_voices":0,"combination":[],"aug_dim":"","rhythm_ratio":1.0,"mirror":false,"chromatic_density":0.5,"complexity":0.452,"dissonance":0.113},{"voice":3,"pitch":55,"start":47.1818,"duration":0.2727,"velocity":127,"measure":22,"beat":3.5,"subject_pos":-1,"motif":"","motif_pos":-1,"best_pos":2,"similarity":0.643,"stretto":false,"stretto_voices":0,"combination":[],"aug_dim":"","rhythm_ratio":1.0,"mirror":false,"chromatic_density":0.5,"complexity":0.452,"dissonance":0.113},{"voice":3,"pitch":53,"start":47.4545,"duration":0.2727,"velocity":127,"measure":22,"beat":4.0,"subject_pos":-1,"motif":"","motif_pos":-1,"best_pos":3,"similarity":0.721,"stretto":false,"stretto_voices":0,"combination":[],"aug_dim":"","rhythm_ratio":1.0,"mirror":false,"chromatic_density":0.5,"complexity":0.452,"dissonance":0.113},{"voice":3,"pitch":52,"start":47.7272,"duration":0.2727,"velocity":127,"measure":22,"beat":4.5,"subject_pos":-1,"motif":"","motif_pos":-1,"best_pos":4,"similarity":0.8,"stretto":false,"stretto_voices":0,"combination":[],"aug_dim":"","rhythm_ratio":1.0,"mirror":false,"chromatic_density":0.5,"complexity":0.452,"dissonance":0.113},{"voice":0,"pitch":81,"start":48.0,"duration":1.0909,"velocity":127,"measure":23,"beat":1.0,"subject_pos":0,"motif":"subject_inv","motif_pos":0,"best_pos":0,"similarity":1.0,"stretto":false,"stretto_voices":0,"combination":[],"aug_dim":"","rhythm_ratio":1.0,"mirror":false,"chromatic_density":0.444,"complexity":0.401,"dissonance":0.25},{"voice":3,"pitch":53,"start":48.0,"duration":0.2727,"velocity":127,"measure":23,"beat":1.0,"subject_pos":-1,"motif":"","motif_pos":-1,"best_pos":5,"similarity":0.636,"stretto":false,"stretto_voices":0,"combination":[],"aug_dim":"","rhythm_ratio":1.0,"mirror":false,"chromatic_density":0.444,"complexity":0.401,"dissonance":0.25},{"voice":3,"pitch":52,"start":48.2727,"duration":0.2727,"velocity":127,"measure":23,"beat":1.5,"subject_pos":-1,"motif":"","motif_pos":-1,"best_pos":4,"similarity":0.771,"stretto":false,"stretto_voices":0,"combination":[],"aug_dim":"","rhythm_ratio":1.0,"mirror":false,"chromatic_density":0.444,"complexity":0.401,"dissonance":0.25},{"voice":3,"pitch":53,"start":48.5454,"duration":0.2727,"velocity":127,"measure":23,"beat":2.0,"subject_pos":-1,"motif":"","motif_pos":-1,"best_pos":5,"similarity":0.736,"stretto":false,"stretto_voices":0,"combination":[],"aug_dim":"","rhythm_ratio":1.0,"mirror":false,"chromatic_density":0.444,"complexity":0.401,"dissonance":0.25},{"voice":3,"pitch":55,"start":48.8181,"duration":0.2727,"velocity":127,"measure":23,"beat":2.5,"subject_pos":-1,"motif":"","motif_pos":-1,"best_pos":6,"similarity":0.529,"stretto":false,"stretto_voices":0,"combination":[],"aug_dim":"","rhythm_ratio":1.0,"mirror":false,"chromatic_density":0.444,"complexity":0.401,"dissonance":0.25},{"voice":0,"pitch":74,"start":49.0909,"duration":0.8182,"velocity":127,"measure":23,"beat":3.0,"subject_pos":1,"motif":"subject_inv","motif_pos":1,"best_pos":1,"similarity":1.0,"stretto":false,"stretto_voices":0,"combination":[],"aug_dim":"","rhythm_ratio":1.0,"mirror":false,"chromatic_density":0.444,"complexity":0.401,"dissonance":0.25},{"voice":3,"pitch":53,"start":49.0909,"duration":0.2727,"velocity":127,"measure":23,"beat":3.0,"subject_pos":-1,"motif":"","motif_pos":-1,"best_pos":3,"similarity":0.471,"stretto":false,"stretto_voices":0,"combination":[],"aug_dim":"","rhythm_ratio":1.0,"mirror":false,"chromatic_density":0.444,"complexity":0.401,"dissonance":0.25},{"voice":3,"pitch":52,"start":49.3636,"duration":0.2727,"velocity":127,"measure":23,"beat":3.5,"subject_pos":-1,"motif":"","motif_pos":-1,"best_pos":2,"similarity":0.5,"stretto":false,"stretto_voices":0,"combination":[],"aug_dim":"","rhythm_ratio":1.0,"mirror":false,"chromatic_density":0.444,"complexity":0.401,"dissonance":0.25},{"voice":3,"pitch":50,"start":49.6363,"duration":0.2727,"velocity":127,"measure":23,"beat":4.0,"subject_pos":-1,"motif":"","motif_pos":-1,"best_pos":3,"similarity":0.643,"stretto":false,"stretto_voices":0,"combination":[],"aug_dim":"","rhythm_ratio":1.0,"mirror":false,"chromatic_density":0.444,"complexity":0.401,"dissonance":0.25},{"voice":0,"pitch":76,"start":49.909,"duration":0.2727,"velocity":127,"measure":23,"beat":4.5,"subject_pos":2,"motif":"subject_inv","motif_pos":2,"best_pos":2,"similarity":1.0,"stretto":false,"stretto_voices":0,"combination":[],"aug_dim":"","rhythm_ratio":1.0,"mirror":false,"chromatic_density":0.444,"complexity":0.401,"dissonance":0.25},{"voice":3,"pitch":49,"start":49.909,"duration":0.2727,"velocity":127,"measure":23,"beat":4.5,"subject_pos":-1,"motif":"","motif_pos":-1,"best_pos":4,"similarity":0.679,"stretto":false,"stretto_voices":0,"combination":[],"aug_dim":"","rhythm_ratio":1.0,"mirror":false,"chromatic_density":0.444,"complexity":0.401,"dissonance":0.25},{"voice":0,"pitch":77,"start":50.1818,"duration":0.8182,"velocity":127,"measure":24,"beat":1.0,"subject_pos":3,"motif":"subject_inv","motif_pos":3,"best_pos":3,"similarity":1.0,"stretto":false,"stretto_voices":0,"combination":[],"aug_dim":"","rhythm_ratio":1.0,"mirror":false,"chromatic_density":0.091,"complexity":0.532,"dissonance":0.054},{"voice":1,"pitch":74,"start":50.1818,"duration":1.0909,"velocity":127,"measure":24,"beat":1.0,"subject_pos":-1,"motif":"","motif_pos":-1,"best_pos":1,"similarity":0.436,"stretto":false,"stretto_voices":0,"combination":[],"aug_dim":"","rhythm_ratio":1.0,"mirror":false,"chromatic_density":0.091,"complexity":0.532,"dissonance":0.054},{"voice":3,"pitch":50,"start":50.1818,"duration":0.2727,"velocity":127,"measure":24,"beat":1.0,"subject_pos":-1,"motif":"","motif_pos":-1,"best_pos":5,"similarity":0.464,"stretto":false,"stretto_voices":0,"combination":[],"aug_dim":"","rhythm_ratio":1.0,"mirror":false,"chromatic_density":0.091,"complexity":0.532,"dissonance":0.054},{"voice":3,"pitch":38,"start":50.4545,"duration":0.2727,"velocity":127,"measure":24,"beat":1.5,"subject_pos":-1,"motif":"","motif_pos":-1,"best_pos":4,"similarity":0.264,"stretto":false,"stretto_voices":0,"combination":[],"aug_dim":"","rhythm_ratio":1.0,"mirror":false,"chromatic_density":0.091,"complexity":0.532,"dissonance":0.054},{"voice":3,"pitch":50,"start":50.7272,"duration":0.2727,"velocity":127,"measure":24,"beat":2.0,"subject_pos":-1,"motif":"","motif_pos":-1,"best_pos":5,"similarity":0.436,"stretto":false,"stretto_voices":0,"combination":[],"aug_dim":"","rhythm_ratio":1.0,"mirror":false,"chromatic_density":0.091,"complexity":0.532,"dissonance":0.054},{"voice":0,"pitch":79,"start":50.9999,"duration":0.2727,"velocity":127,"measure":24,"beat":2.5,"subject_pos":4,"motif":"subject_inv","motif_pos":4,"best_pos":4,"similarity":1.0,"stretto":false,"stretto_voices":0,"combination":[],"aug_dim":"","rhythm_ratio":1.0,"mirror":false,"chromatic_density":0.091,"complexity":0.532,"dissonance":0.054},{"voice":3,"pitch":52,"start":50.9999,"duration":0.2727,"velocity":127,"measure":24,"beat":2.5,"subject_pos":-1,"motif":"","motif_pos":-1,"best_pos":6,"similarity":0.571,"stretto":false,"stretto_voices":0,"combination":[],"aug_dim":"","rhythm_ratio":1.0,"mirror":false,"chromatic_density":0.091,"complexity":0.532,"dissonance":0.054},{"voice":0,"pitch":81,"start":51.2727,"duration":1.0909,"velocity":127,"measure":24,"beat":3.0,"subject_pos":5,"motif":"subject_inv","motif_pos":5,"best_pos":5,"similarity":1.0,"stretto":false,"stretto_voices":0,"combination":[],"aug_dim":"","rhythm_ratio":1.0,"mirror":false,"chromatic_density":0.091,"complexity":0.532,"dissonance":0.054},{"voice":1,"pitch":69,"start":51.2727,"duration":0.8182,"velocity":127,"measure":24,"beat":3.0,"subject_pos":-1,"motif":"","motif_pos":-1,"best_pos":4,"similarity":0.393,"stretto":false,"stretto_voices":0,"combination":[],"aug_dim":"","rhythm_ratio":1.0,"mirror":false,"chromatic_density":0.091,"complexity":0.532,"dissonance":0.054},{"voice":3,"pitch":53,"start":51.2727,"duration":0.2727,"velocity":127,"measure":24,"beat":3.0,"subject_pos":-1,"motif":"","motif_pos":-1,"best_pos":7,"similarity":0.429,"stretto":false,"stretto_voices":0,"combination":[],"aug_dim":"","rhythm_ratio":1.0,"mirror":false,"chromatic_density":0.091,"complexity":0.532,"dissonance":0.054},{"voice":3,"pitch":57,"start":51.5454,"duration":0.2727,"velocity":127,"measure":24,"beat":3.5,"subject_pos":-1,"motif":"","motif_pos":-1,"best_pos":0,"similarity":0.304,"stretto":false,"stretto_voices":0,"combination":[],"aug_dim":"","rhythm_ratio":1.0,"mirror":false,"chromatic_density":0.091,"complexity":0.532,"dissonance":0.054},{"voice":3,"pitch":62,"start":51.8181,"duration":0.2727,"velocity":127,"measure":24,"beat":4.0,"subject_pos":-1,"motif":"","motif_pos":-1,"best_pos":1,"similarity":0.339,"stretto":false,"stretto_voices":0,"combination":[],"aug_dim":"","rhythm_ratio":1.0,"mirror":false,"chromatic_density":0.091,"complexity":0.532,"dissonance":0.054},{"voice":1,"pitch":71,"start":52.0909,"duration":0.2727,"velocity":127,"measure":24,"beat":4.5,"subject_pos":-1,"motif":"","motif_pos":-1,"best_pos":5,"similarity":0.586,"stretto":false,"stretto_voices":0,"combination":[],"aug_dim":"","rhythm_ratio":1.0,"mirror":false,"chromatic_density":0.091,"complexity":0.532,"dissonance":0.054},{"voice":3,"pitch":65,"start":52.0909,"duration":0.2727,"velocity":127,"measure":24,"beat":4.5,"subject_pos":-1,"motif":"","motif_pos":-1,"best_pos":3,"similarity":0.536,"stretto":false,"stretto_voices":0,"combination":[],"aug_dim":"","rhythm_ratio":1.0,"mirror":false,"chromatic_density":0.091,"complexity":0.532,"dissonance":0.054},{"voice":0,"pitch":82,"start":52.3636,"duration":1.0909,"velocity":127,"measure":25,"beat":1.0,"subject_pos":6,"motif":"subject_inv","motif_pos":6,"best_pos":6,"similarity":1.0,"stretto":false,"stretto_voices":0,"combination":[],"aug_dim":"","rhythm_ratio":1.0,"mirror":false,"chromatic_density":0.364,"complexity":0.468,"dissonance":0.196},{"voice":1,"pitch":73,"start":52.3636,"duration":0.8182,"velocity":127,"measure":25,"beat":1.0,"subject_pos":-1,"motif":"","motif_pos":-1,"best_pos":6,"similarity":0.65,"stretto":false,"stretto_voices":0,"combination":[],"aug_dim":"","rhythm_ratio":1.0,"mirror":false,"chromatic_density":0.364,"complexity":0.468,"dissonance":0.196},{"voice":3,"pitch":64,"start":52.3636,"duration":0.2727,"velocity":127,"measure":25,"beat":1.0,"subject_pos":-1,"motif":"","motif_pos":-1,"best_pos":4,"similarity":0.721,"stretto":false,"stretto_voices":0,"combination":[],"aug_dim":"","rhythm_ratio":1.0,"mirror":false,"chromatic_density":0.364,"complexity":0.468,"dissonance":0.196},{"voice":3,"pitch":65,"start":52.6363,"duration":0.2727,"velocity":127,"measure":25,"beat":1.5,"subject_pos":-1,"motif":"","motif_pos":-1,"best_pos":5,"similarity":0.729,"stretto":false,"stretto_voices":0,"combination":[],"aug_dim":"","rhythm_ratio":1.0,"mirror":false,"chromatic_density":0.364,"complexity":0.468,"dissonance":0.196},{"voice":3,"pitch":67,"start":52.909,"duration":0.2727,"velocity":127,"measure":25,"beat":2.0,"subject_pos":-1,"motif":"","motif_pos":-1,"best_pos":6,"similarity":0.529,"stretto":false,"stretto_voices":0,"combination":[],"aug_dim":"","rhythm_ratio":1.0,"mirror":false,"chromatic_density":0.364,"complexity":0.468,"dissonance":0.196},{"voice":1,"pitch":74,"start":53.1818,"duration":0.2727,"velocity":127,"measure":25,"beat":2.5,"subject_pos":-1,"motif":"","motif_pos":-1,"best_pos":5,"similarity":0.586,"stretto":false,"stretto_voices":0,"combination":[],"aug_dim":"","rhythm_ratio":1.0,"mirror":false,"chromatic_density":0.364,"complexity":0.468,"dissonance":0.196},{"voice":3,"pitch":64,"start":53.1818,"duration":0.2727,"velocity":127,"measure":25,"beat":2.5,"subject_pos":-1,"motif":"","motif_pos":-1,"best_pos":3,"similarity":0.593,"stretto":false,"stretto_voices":0,"combination":[],"aug_dim":"","rhythm_ratio":1.0,"mirror":false,"chromatic_density":0.364,"complexity":0.468,"dissonance":0.196},{"voice":0,"pitch":81,"start":53.4545,"duration":0.8182,"velocity":127,"measure":25,"beat":3.0,"subject_pos":7,"motif":"subject_inv","motif_pos":7,"best_pos":7,"similarity":1.0,"stretto":false,"stretto_voices":0,"combination":[],"aug_dim":"","rhythm_ratio":1.0,"mirror":false,"chromatic_density":0.364,"complexity":0.468,"dissonance":0.196},{"voice":1,"pitch":76,"start":53.4545,"duration":1.0909,"velocity":127,"measure":25,"beat":3.0,"subject_pos":-1,"motif":"","motif_pos":-1,"best_pos":6,"similarity":0.436,"stretto":false,"stretto_voices":0,"combination":[],"aug_dim":"","rhythm_ratio":1.0,"mirror":false,"chromatic_density":0.364,"complexity":0.468,"dissonance":0.196},{"voice":3,"pitch":61,"start":53.4545,"duration":0.2727,"velocity":127,"measure":25,"beat":3.0,"subject_pos":-1,"motif":"","motif_pos":-1,"best_pos":4,"similarity":0.657,"stretto":false,"stretto_voices":0,"combination":[],"aug_dim":"","rhythm_ratio":1.0,"mirror":false,"chromatic_density":0.364,"complexity":0.468,"dissonance":0.196},{"voice":3,"pitch":62,"start":53.7272,"duration":0.2727,"velocity":127,"measure":25,"beat":3.5,"subject_pos":-1,"motif":"","motif_pos":-1,"best_pos":5,"similarity":0.693,"stretto":false,"stretto_voices":0,"combination":[],"aug_dim":"","rhythm_ratio":1.0,"mirror":false,"chromatic_density":0.364,"complexity":0.468,"dissonance":0.196},{"voice":3,"pitch":64,"start":53.9999,"duration":0.2727,"velocity":127,"measure":25,"beat":4.0,"subject_pos":-1,"motif":"","motif_pos":-1,"best_pos":6,"similarity":0.475,"stretto":false,"stretto_voices":0,"combination":[],"aug_dim":"","rhythm_ratio":1.0,"mirror":false,"chromatic_density":0.364,"complexity":0.468,"dissonance":0.196},{"voice":0,"pitch":79,"start":54.2727,"duration":0.2727,"velocity":127,"measure":25,"beat":4.5,"subject_pos":8,"motif":"subject_inv","motif_pos":8,"best_pos":0,"similarity":1.0,"stretto":false,"stretto_voices":0,"combination":[],"aug_dim":"","rhythm_ratio":1.0,"mirror":false,"chromatic_density":0.364,"complexity":0.468,"dissonance":0.196},{"voice":3,"pitch":61,"start":54.2727,"duration":0.2727,"velocity":127,"measure":25,"beat":4.5,"subject_pos":-1,"motif":"","motif_pos":-1,"best_pos":3,"similarity":0.379,"stretto":false,"stretto_voices":0,"combination":[],"aug_dim":"","rhythm_ratio":1.0,"mirror":false,"chromatic_density":0.364,"complexity":0.468,"dissonance":0.196},{"voice":0,"pitch":77,"start":54.5454,"duration":1.3636,"velocity":127,"measure":26,"beat":1.0,"subject_pos":-1,"motif":"","motif_pos":-1,"best_pos":3,"similarity":0.714,"stretto":false,"stretto_voices":0,"combination":[],"aug_dim":"","rhythm_ratio":1.0,"mirror":false,"chromatic_density":0.167,"complexity":0.598,"dissonance":0.0},{"voice":1,"pitch":69,"start":54.5454,"duration":1.0909,"velocity":127,"measure":26,"beat":1.0,"subject_pos":-1,"motif":"","motif_pos":-1,"best_pos":0,"similarity":0.357,"stretto":false,"stretto_voices":0,"combination":[],"aug_dim":"","rhythm_ratio":1.0,"mirror":false,"chromatic_density":0.167,"complexity":0.598,"dissonance":0.0},{"voice":2,"pitch":62,"start":54.5454,"duration":1.0909,"velocity":127,"measure":26,"beat":1.0,"subject_pos":0,"motif":"subject_inv","motif_pos":0,"best_pos":0,"similarity":1.0,"stretto":false,"stretto_voices":0,"combination":[],"aug_dim":"","rhythm_ratio":1.0,"mirror":false,"chromatic_density":0.167,"complexity":0.598,"dissonance":0.0},{"voice":3,"pitch":62,"start":54.5454,"duration":0.5455,"velocity":127,"measure":26,"beat":1.0,"subject_pos":-1,"motif":"","motif_pos":-1,"best_pos":5,"similarity":0.321,"stretto":false,"stretto_voices":0,"combination":[],"aug_dim":"","rhythm_ratio":1.0,"mirror":false,"chromatic_density":0.167,"complexity":0.598,"dissonance":0.0},{"voice":3,"pitch":50,"start":55.0909,"duration":0.5455,"velocity":127,"measure":26,"beat":2.0,"subject_pos":-1,"motif":"","motif_pos":-1,"best_pos":0,"similarity":0.3,"stretto":false,"stretto_voices":0,"combination":[],"aug_dim":"","rhythm_ratio":1.0,"mirror":false,"chromatic_density":0.167,"complexity":0.598,"dissonance":0.0},{"voice":2,"pitch":57,"start":55.6363,"duration":0.8182,"velocity":127,"measure":26,"beat":3.0,"subject_pos":1,"motif":"subject_inv","motif_pos":1,"best_pos":1,"similarity":1.0,"stretto":false,"stretto_voices":0,"combination":[],"aug_dim":"","rhythm_ratio":1.0,"mirror":false,"chromatic_density":0.167,"complexity":0.598,"dissonance":0.0},{"voice":0,"pitch":76,"start":55.909,"duration":0.2727,"velocity":127,"measure":26,"beat":3.5,"subject_pos":-1,"motif":"","motif_pos":-1,"best_pos":4,"similarity":0.786,"stretto":false,"stretto_voices":0,"combination":[],"aug_dim":"","rhythm_ratio":1.0,"mirror":false,"chromatic_density":0.167,"complexity":0.598,"dissonance":0.0},{"voice":0,"pitch":78,"start":56.1818,"duration":0.2727,"velocity":127,"measure":26,"beat":4.0,"subject_pos":-1,"motif":"","motif_pos":-1,"best_pos":5,"similarity":0.75,"stretto":false,"stretto_voices":0,"combination":[],"aug_dim":"","rhythm_ratio":1.0,"mirror":false,"chromatic_density":0.167,"complexity":0.598,"dissonance":0.0},{"voice":0,"pitch":80,"start":56.4545,"duration":0.2727,"velocity":127,"measure":26,"beat":4.5,"subject_pos":-1,"motif":"","motif_pos":-1,"best_pos":6,"similarity":0.714,"stretto":false,"stretto_voices":0,"combination":[],"aug_dim":"","rhythm_ratio":1.0,"mirror":false,"chromatic_density":0.167,"complexity":0.598,"dissonance":0.0},{"voice":2,"pitch":59,"start":56.4545,"duration":0.2727,"velocity":127,"measure":26,"beat":4.5,"subject_pos":2,"motif":"subject_inv","motif_pos":2,"best_pos":2,"similarity":1.0,"stretto":false,"stretto_voices":0,"combination":[],"aug_dim":"","rhythm_ratio":1.0,"mirror":false,"chromatic_density":0.167,"complexity":0.598,"dissonance":0.0},{"voice":0,"pitch":81,"start":56.7272,"duration":0.2727,"velocity":127,"measure":27,"beat":1.0,"subject_pos":-1,"motif":"","motif_pos":-1,"best_pos":7,"similarity":0.464,"stretto":false,"stretto_voices":0,"combination":[],"aug_dim":"","rhythm_ratio":1.0,"mirror":false,"chromatic_density":0.25,"complexity":0.405,"dissonance":0.111},{"voice":2,"pitch":60,"start":56.7272,"duration":0.8182,"velocity":127,"measure":27,"beat":1.0,"subject_pos":3,"motif":"subject_inv","motif_pos":3,"best_pos":3,"similarity":1.0,"stretto":false,"stretto_voices":0,"combination":[],"aug_dim":"","rhythm_ratio":1.0,"mirror":false,"chromatic_density":0.25,"complexity":0.405,"dissonance":0.111},{"voice":0,"pitch":79,"start":56.9999,"duration":0.1364,"velocity":127,"measure":27,"beat":1.5,"subject_pos":-1,"motif":"","motif_pos":-1,"best_pos":2,"similarity":0.593,"stretto":false,"stretto_voices":0,"combination":[],"aug_dim":"","rhythm_ratio":1.0,"mirror":false,"chromatic_density":0.25,"complexity":0.405,"dissonance":0.111},{"voice":0,"pitch":77,"start":57.1363,"duration":0.1364,"velocity":127,"measure":27,"beat":1.75,"subject_pos":-1,"motif":"","motif_pos":-1,"best_pos":3,"similarity":0.6,"stretto":false,"stretto_voices":0,"combination":[],"aug_dim":"","rhythm_ratio":1.0,"mirror":false,"chromatic_density":0.25,"complexity":0.405,"dissonance":0.111},{"voice":0,"pitch":76,"start":57.2727,"duration":0.8182,"velocity":127,"measure":27,"beat":2.0,"subject_pos":-1,"motif":"","motif_pos":-1,"best_pos":4,"similarity":0.489,"stretto":false,"stretto_voices":0,"combination":[],"aug_dim":"","rhythm_ratio":1.0,"mirror":false,"chromatic_density":0.25,"complexity":0.405,"dissonance":0.111},{"voice":2,"pitch":62,"start":57.5454,"duration":0.2727,"velocity":127,"measure":27,"beat":2.5,"subject_pos":4,"motif":"subject_inv","motif_pos":4,"best_pos":4,"similarity":1.0,"stretto":false,"stretto_voices":0,"combination":[],"aug_dim":"","rhythm_ratio":1.0,"mirror":false,"chromatic_density":0.25,"complexity":0.405,"dissonance":0.111},{"voice":2,"pitch":64,"start":57.8181,"duration":1.0909,"velocity":127,"measure":27,"beat":3.0,"subject_pos":5,"motif":"subject_inv","motif_pos":5,"best_pos":5,"similarity":1.0,"stretto":false,"stretto_voices":0,"combination":[],"aug_dim":"","rhythm_ratio":1.0,"mirror":false,"chromatic_density":0.25,"complexity":0.405,"dissonance":0.111},{"voice":0,"pitch":74,"start":58.0909,"duration":0.2727,"velocity":127,"measure":27,"beat":3.5,"subject_pos":-1,"motif":"","motif_pos":-1,"best_pos":2,"similarity":0.579,"stretto":false,"stretto_voices":0,"combination":[],"aug_dim":"","rhythm_ratio":1.0,"mirror":false,"chromatic_density":0.25,"complexity":0.405,"dissonance":0.111},{"voice":0,"pitch":72,"start":58.3636,"duration":0.2727,"velocity":127,"measure":27,"beat":4.0,"subject_pos":-1,"motif":"","motif_pos":-1,"best_pos":3,"similarity":0.593,"stretto":false,"stretto_voices":0,"combination":[],"aug_dim":"","rhythm_ratio":1.0,"mirror":false,"chromatic_density":0.25,"complexity":0.405,"dissonance":0.111},{"voice":0,"pitch":71,"start":58.6363,"duration":0.2727,"velocity":127,"measure":27,"beat":4.5,"subject_pos":-1,"motif":"","motif_pos":-1,"best_pos":4,"similarity":0.543,"stretto":false,"stretto_voices":0,"combination":[],"aug_dim":"","rhythm_ratio":1.0,"mirror":false,"chromatic_density":0.25,"complexity":0.405,"dissonance":0.111},{"voice":0,"pitch":69,"start":58.909,"duration":0.2727,"velocity":127,"measure":28,"beat":1.0,"subject_pos":-1,"motif":"","motif_pos":-1,"best_pos":3,"similarity":0.714,"stretto":false,"stretto_voices":0,"combination":[],"aug_dim":"","rhythm_ratio":1.0,"mirror":false,"chromatic_density":0.556,"complexity":0.38,"dissonance":0.163},{"voice":2,"pitch":65,"start":58.909,"duration":1.0909,"velocity":127,"measure":28,"beat":1.0,"subject_pos":6,"motif":"subject_inv","motif_pos":6,"best_pos":6,"similarity":1.0,"stretto":false,"stretto_voices":0,"combination":[],"aug_dim":"","rhythm_ratio":1.0,"mirror":false,"chromatic_density":0.556,"complexity":0.38,"dissonance":0.163},{"voice":0,"pitch":68,"start":59.1818,"duration":0.2727,"velocity":127,"measure":28,"beat":1.5,"subject_pos":-1,"motif":"","motif_pos":-1,"best_pos":4,"similarity":0.857,"stretto":false,"stretto_voices":0,"combination":[],"aug_dim":"","rhythm_ratio":1.0,"mirror":false,"chromatic_density":0.556,"complexity":0.38,"dissonance":0.163},{"voice":0,"pitch":69,"start":59.4545,"duration":0.2727,"velocity":127,"measure":28,"beat":2.0,"subject_pos":-1,"motif":"","motif_pos":-1,"best_pos":5,"similarity":0.821,"stretto":false,"stretto_voices":0,"combination":[],"aug_dim":"","rhythm_ratio":1.0,"mirror":false,"chromatic_density":0.556,"complexity":0.38,"dissonance":0.163},{"voice":0,"pitch":71,"start":59.7272,"duration":0.2727,"velocity":127,"measure":28,"beat":2.5,"subject_pos":-1,"motif":"","motif_pos":-1,"best_pos":6,"similarity":0.643,"stretto":false,"stretto_voices":0,"combination":[],"aug_dim":"","rhythm_ratio":1.0,"mirror":false,"chromatic_density":0.556,"complexity":0.38,"dissonance":0.163},{"voice":0,"pitch":73,"start":59.9999,"duration":0.2727,"velocity":127,"measure":28,"beat":3.0,"subject_pos":-1,"motif":"","motif_pos":-1,"best_pos":6,"similarity":0.661,"stretto":false,"stretto_voices":0,"combination":[],"aug_dim":"","rhythm_ratio":1.0,"mirror":false,"chromatic_density":0.556,"complexity":0.38,"dissonance":0.163},{"voice":2,"pitch":64,"start":59.9999,"duration":0.8182,"velocity":127,"measure":28,"beat":3.0,"subject_pos":7,"motif":"subject_inv","motif_pos":7,"best_pos":7,"similarity":1.0,"stretto":false,"stretto_voices":0,"combination":[],"aug_dim":"","rhythm_ratio":1.0,"mirror":false,"chromatic_density":0.556,"complexity":0.38,"dissonance":0.163},{"voice":0,"pitch":74,"start":60.2727,"duration":0.2727,"velocity":127,"measure":28,"beat":3.5,"subject_pos":-1,"motif":"","motif_pos":-1,"best_pos":5,"similarity":0.729,"stretto":false,"stretto_voices":0,"combination":[],"aug_dim":"","rhythm_ratio":1.0,"mirror":false,"chromatic_density":0.556,"complexity":0.38,"dissonance":0.163},{"voice":0,"pitch":76,"start":60.5454,"duration":0.2727,"velocity":127,"measure":28,"beat":4.0,"subject_pos":-1,"motif":"","motif_pos":-1,"best_pos":6,"similarity":0.721,"stretto":false,"stretto_voices":0,"combination":[],"aug_dim":"","rhythm_ratio":1.0,"mirror":false,"chromatic_density":0.556,"complexity":0.38,"dissonance":0.163},{"voice":0,"pitch":77,"start":60.8181,"duration":0.2727,"velocity":127,"measure":28,"beat":4.5,"subject_pos":-1,"motif":"","motif_pos":-1,"best_pos":5,"similarity":0.664,"stretto":false,"stretto_voices":0,"combination":[],"aug_dim":"","rhythm_ratio":1.0,"mirror":false,"chromatic_density":0.556,"complexity":0.38,"dissonance":0.163},{"voice":2,"pitch":62,"start":60.8181,"duration":0.2727,"velocity":127,"measure":28,"beat":4.5,"subject_pos":8,"motif":"subject_inv","motif_pos":8,"best_pos":0,"similarity":1.0,"stretto":false,"stretto_voices":0,"combination":[],"aug_dim":"","rhythm_ratio":1.0,"mirror":false,"chromatic_density":0.556,"complexity":0.38,"dissonance":0.163},{"voice":0,"pitch":79,"start":61.0908,"duration":0.2727,"velocity":127,"measure":29,"beat":1.0,"subject_pos":-1,"motif":"","motif_pos":-1,"best_pos":5,"similarity":0.607,"stretto":false,"stretto_voices":0,"combination":[],"aug_dim":"","rhythm_ratio":1.0,"mirror":false,"chromatic_density":0.1,"complexity":0.357,"dissonance":0.2},{"voice":2,"pitch":61,"start":61.0908,"duration":1.3636,"velocity":127,"measure":29,"beat":1.0,"subject_pos":-1,"motif":"","motif_pos":-1,"best_pos":4,"similarity":0.571,"stretto":false,"stretto_voices":0,"combination":[],"aug_dim":"","rhythm_ratio":1.0,"mirror":false,"chromatic_density":0.1,"complexity":0.357,"dissonance":0.2},{"voice":0,"pitch":81,"start":61.3636,"duration":0.2727,"velocity":127,"measure":29,"beat":1.5,"subject_pos":-1,"motif":"","motif_pos":-1,"best_pos":6,"similarity":0.661,"stretto":false,"stretto_voices":0,"combination":[],"aug_dim":"","rhythm_ratio":1.0,"mirror":false,"chromatic_density":0.1,"complexity":0.357,"dissonance":0.2},{"voice":0,"pitch":82,"start":61.6363,"duration":0.2727,"velocity":127,"measure":29,"beat":2.0,"subject_pos":-1,"motif":"","motif_pos":-1,"best_pos":7,"similarity":0.464,"stretto":false,"stretto_voices":0,"combination":[],"aug_dim":"","rhythm_ratio":1.0,"mirror":false,"chromatic_density":0.1,"complexity":0.357,"dissonance":0.2},{"voice":0,"pitch":79,"start":61.909,"duration":0.2727,"velocity":127,"measure":29,"beat":2.5,"subject_pos":-1,"motif":"","motif_pos":-1,"best_pos":2,"similarity":0.45,"stretto":false,"stretto_voices":0,"combination":[],"aug_dim":"","rhythm_ratio":1.0,"mirror":false,"chromatic_density":0.1,"complexity":0.357,"dissonance":0.2},{"voice":0,"pitch":76,"start":62.1818,"duration":0.2727,"velocity":127,"measure":29,"beat":3.0,"subject_pos":-1,"motif":"","motif_pos":-1,"best_pos":3,"similarity":0.45,"stretto":false,"stretto_voices":0,"combination":[],"aug_dim":"","rhythm_ratio":1.0,"mirror":false,"chromatic_density":0.1,"complexity":0.357,"dissonance":0.2},{"voice":0,"pitch":81,"start":62.4545,"duration":0.2727,"velocity":127,"measure":29,"beat":3.5,"subject_pos":-1,"motif":"","motif_pos":-1,"best_pos":1,"similarity":0.579,"stretto":false,"stretto_voices":0,"combination":[],"aug_dim":"","rhythm_ratio":1.0,"mirror":false,"chromatic_density":0.1,"complexity":0.357,"dissonance":0.2},{"voice":2,"pitch":57,"start":62.4545,"duration":0.2727,"velocity":127,"measure":29,"beat":3.5,"subject_pos":-1,"motif":"","motif_pos":-1,"best_pos":5,"similarity":0.536,"stretto":false,"stretto_voices":0,"combination":[],"aug_dim":"","rhythm_ratio":1.0,"mirror":false,"chromatic_density":0.1,"complexity":0.357,"dissonance":0.2},{"voice":0,"pitch":79,"start":62.7272,"duration":0.2727,"velocity":127,"measure":29,"beat":4.0,"subject_pos":-1,"motif":"","motif_pos":-1,"best_pos":2,"similarity":0.479,"stretto":false,"stretto_voices":0,"combination":[],"aug_dim":"","rhythm_ratio":1.0,"mirror":false,"chromatic_density":0.1,"complexity":0.357,"dissonance":0.2},{"voice":2,"pitch":59,"start":62.7272,"duration":0.2727,"velocity":127,"measure":29,"beat":4.0,"subject_pos":-1,"motif":"","motif_pos":-1,"best_pos":5,"similarity":0.604,"stretto":false,"stretto_voices":0,"combination":[],"aug_dim":"","rhythm_ratio":1.0,"mirror":false,"chromatic_density":0.1,"complexity":0.357,"dissonance":0.2},{"voice":0,"pitch":81,"start":62.9999,"duration":0.2727,"velocity":127,"measure":29,"beat":4.5,"subject_pos":-1,"motif":"","motif_pos":-1,"best_pos":3,"similarity":0.386,"stretto":false,"stretto_voices":0,"combination":[],"aug_dim":"","rhythm_ratio":1.0,"mirror":false,"chromatic_density":0.1,"complexity":0.357,"dissonance":0.2},{"voice":2,"pitch":61,"start":62.9999,"duration":0.2727,"velocity":127,"measure":29,"beat":4.5,"subject_pos":-1,"motif":"","motif_pos":-1,"best_pos":6,"similarity":0.65,"stretto":false,"stretto_voices":0,"combination":[],"aug_dim":"","rhythm_ratio":1.0,"mirror":false,"chromatic_density":0.1,"complexity":0.357,"dissonance":0.2},{"voice":0,"pitch":77,"start":63.2727,"duration":0.2727,"velocity":127,"measure":30,"beat":1.0,"subject_pos":-1,"motif":"","motif_pos":-1,"best_pos":5,"similarity":0.407,"stretto":false,"stretto_voices":0,"combination":[],"aug_dim":"","rhythm_ratio":1.0,"mirror":false,"chromatic_density":0.167,"complexity":0.37,"dissonance":0.0},{"voice":2,"pitch":62,"start":63.2727,"duration":0.2727,"velocity":127,"measure":30,"beat":1.0,"subject_pos":-1,"motif":"","motif_pos":-1,"best_pos":5,"similarity":0.729,"stretto":false,"stretto_voices":0,"combination":[],"aug_dim":"","rhythm_ratio":1.0,"mirror":false,"chromatic_density":0.167,"complexity":0.37,"dissonance":0.0},{"voice":0,"pitch":79,"start":63.5454,"duration":0.2727,"velocity":127,"measure":30,"beat":1.5,"subject_pos":-1,"motif":"","motif_pos":-1,"best_pos":5,"similarity":0.443,"stretto":false,"stretto_voices":0,"combination":[],"aug_dim":"","rhythm_ratio":1.0,"mirror":false,"chromatic_density":0.167,"complexity":0.37,"dissonance":0.0},{"voice":2,"pitch":64,"start":63.5454,"duration":0.2727,"velocity":127,"measure":30,"beat":1.5,"subject_pos":-1,"motif":"","motif_pos":-1,"best_pos":6,"similarity":0.721,"stretto":false,"stretto_voices":0,"combination":[],"aug_dim":"","rhythm_ratio":1.0,"mirror":false,"chromatic_density":0.167,"complexity":0.37,"dissonance":0.0},{"voice":0,"pitch":81,"start":63.8181,"duration":0.2727,"velocity":127,"measure":30,"beat":2.0,"subject_pos":-1,"motif":"","motif_pos":-1,"best_pos":1,"similarity":0.457,"stretto":false,"stretto_voices":0,"combination":[],"aug_dim":"","rhythm_ratio":1.0,"mirror":false,"chromatic_density":0.167,"complexity":0.37,"dissonance":0.0},{"voice":2,"pitch":65,"start":63.8181,"duration":0.8182,"velocity":127,"measure":30,"beat":2.0,"subject_pos":-1,"motif":"","motif_pos":-1,"best_pos":7,"similarity":0.5,"stretto":false,"stretto_voices":0,"combination":[],"aug_dim":"","rhythm_ratio":1.0,"mirror":false,"chromatic_density":0.167,"complexity":0.37,"dissonance":0.0},{"voice":0,"pitch":77,"start":64.0908,"duration":0.2727,"velocity":127,"measure":30,"beat":2.5,"subject_pos":-1,"motif":"","motif_pos":-1,"best_pos":2,"similarity":0.593,"stretto":false,"stretto_voices":0,"combination":[],"aug_dim":"","rhythm_ratio":1.0,"mirror":false,"chromatic_density":0.167,"complexity":0.37,"dissonance":0.0},{"voice":0,"pitch":74,"start":64.3636,"duration":0.2727,"velocity":127,"measure":30,"beat":3.0,"subject_pos":-1,"motif":"","motif_pos":-1,"best_pos":3,"similarity":0.521,"stretto":false,"stretto_voices":0,"combination":[],"aug_dim":"","rhythm_ratio":1.0,"mirror":false,"chromatic_density":0.167,"complexity":0.37,"dissonance":0.0},{"voice":0,"pitch":79,"start":64.6363,"duration":0.2727,"velocity":127,"measure":30,"beat":3.5,"subject_pos":-1,"motif":"","motif_pos":-1,"best_pos":1,"similarity":0.589,"stretto":false,"stretto_voices":0,"combination":[],"aug_dim":"","rhythm_ratio":1.0,"mirror":false,"chromatic_density":0.167,"complexity":0.37,"dissonance":0.0},{"voice":2,"pitch":64,"start":64.6363,"duration":0.2727,"velocity":127,"measure":30,"beat":3.5,"subject_pos":-1,"motif":"","motif_pos":-1,"best_pos":4,"similarity":0.486,"stretto":false,"stretto_voices":0,"combination":[],"aug_dim":"","rhythm_ratio":1.0,"mirror":false,"chromatic_density":0.167,"complexity":0.37,"dissonance":0.0},{"voice":0,"pitch":77,"start":64.909,"duration":0.2727,"velocity":127,"measure":30,"beat":4.0,"subject_pos":-1,"motif":"","motif_pos":-1,"best_pos":2,"similarity":0.536,"stretto":false,"stretto_voices":0,"combination":[],"aug_dim":"","rhythm_ratio":1.0,"mirror":false,"chromatic_density":0.167,"complexity":0.37,"dissonance":0.0},{"voice":2,"pitch":62,"start":64.909,"duration":0.2727,"velocity":127,"measure":30,"beat":4.0,"subject_pos":-1,"motif":"","motif_pos":-1,"best_pos":5,"similarity":0.479,"stretto":false,"stretto_voices":0,"combination":[],"aug_dim":"","rhythm_ratio":1.0,"mirror":false,"chromatic_density":0.167,"complexity":0.37,"dissonance":0.0},{"voice":0,"pitch":79,"start":65.1818,"duration":0.2727,"velocity":127,"measure":30,"beat":4.5,"subject_pos":-1,"motif":"","motif_pos":-1,"best_pos":3,"similarity":0.5,"stretto":false,"stretto_voices":0,"combination":[],"aug_dim":"","rhythm_ratio":1.0,"mirror":false,"chromatic_density":0.167,"complexity":0.37,"dissonance":0.0},{"voice":2,"pitch":64,"start":65.1818,"duration":0.2727,"velocity":127,"measure":30,"beat":4.5,"subject_pos":-1,"motif":"","motif_pos":-1,"best_pos":3,"similarity":0.429,"stretto":false,"stretto_voices":0,"combination":[],"aug_dim":"","rhythm_ratio":1.0,"mirror":false,"chromatic_density":0.167,"complexity":0.37,"dissonance":0.0},{"voice":0,"pitch":76,"start":65.4545,"duration":0.2727,"velocity":127,"measure":31,"beat":1.0,"subject_pos":-1,"motif":"","motif_pos":-1,"best_pos":4,"similarity":0.579,"stretto":false,"stretto_voices":0,"combination":[],"aug_dim":"","rhythm_ratio":1.0,"mirror":false,"chromatic_density":0.273,"complexity":0.511,"dissonance":0.104},{"voice":2,"pitch":61,"start":65.4545,"duration":0.2727,"velocity":127,"measure":31,"beat":1.0,"subject_pos":-1,"motif":"","motif_pos":-1,"best_pos":4,"similarity":0.571,"stretto":false,"stretto_voices":0,"combination":[],"aug_dim":"","rhythm_ratio":1.0,"mirror":false,"chromatic_density":0.273,"complexity":0.511,"dissonance":0.104},{"voice":3,"pitch":57,"start":65.4545,"duration":1.0909,"velocity":127,"measure":31,"beat":1.0,"subject_pos":0,"motif":"subject_inv","motif_pos":0,"best_pos":0,"similarity":1.0,"stretto":false,"stretto_voices":0,"combination":[],"aug_dim":"","rhythm_ratio":1.0,"mirror":false,"chromatic_density":0.273,"complexity":0.511,"dissonance":0.104},{"voice":0,"pitch":77,"start":65.7272,"duration":0.2727,"velocity":127,"measure":31,"beat":1.5,"subject_pos":-1,"motif":"","motif_pos":-1,"best_pos":5,"similarity":0.621,"stretto":false,"stretto_voices":0,"combination":[],"aug_dim":"","rhythm_ratio":1.0,"mirror":false,"chromatic_density":0.273,"complexity":0.511,"dissonance":0.104},{"voice":2,"pitch":62,"start":65.7272,"duration":0.2727,"velocity":127,"measure":31,"beat":1.5,"subject_pos":-1,"motif":"","motif_pos":-1,"best_pos":5,"similarity":0.607,"stretto":false,"stretto_voices":0,"combination":[],"aug_dim":"","rhythm_ratio":1.0,"mirror":false,"chromatic_density":0.273,"complexity":0.511,"dissonance":0.104},{"voice":0,"pitch":79,"start":65.9999,"duration":0.2727,"velocity":127,"measure":31,"beat":2.0,"subject_pos":-1,"motif":"","motif_pos":-1,"best_pos":6,"similarity":0.475,"stretto":false,"stretto_voices":0,"combination":[],"aug_dim":"","rhythm_ratio":1.0,"mirror":false,"chromatic_density":0.273,"complexity":0.511,"dissonance":0.104},{"voice":2,"pitch":64,"start":65.9999,"duration":0.8182,"velocity":127,"measure":31,"beat":2.0,"subject_pos":-1,"motif":"","motif_pos":-1,"best_pos":6,"similarity":0.446,"stretto":false,"stretto_voices":0,"combination":[],"aug_dim":"","rhythm_ratio":1.0,"mirror":false,"chromatic_density":0.273,"complexity":0.511,"dissonance":0.104},{"voice":0,"pitch":76,"start":66.2727,"duration":0.2727,"velocity":127,"measure":31,"beat":2.5,"subject_pos":-1,"motif":"","motif_pos":-1,"best_pos":4,"similarity":0.543,"stretto":false,"stretto_voices":0,"combination":[],"aug_dim":"","rhythm_ratio":1.0,"mirror":false,"chromatic_density":0.273,"complexity":0.511,"dissonance":0.104},{"voice":0,"pitch":77,"start":66.5454,"duration":0.8182,"velocity":127,"measure":31,"beat":3.0,"subject_pos":-1,"motif":"","motif_pos":-1,"best_pos":5,"similarity":0.679,"stretto":false,"stretto_voices":0,"combination":[],"aug_dim":"","rhythm_ratio":1.0,"mirror":false,"chromatic_density":0.273,"complexity":0.511,"dissonance":0.104},{"voice":3,"pitch":50,"start":66.5454,"duration":0.8182,"velocity":127,"measure":31,"beat":3.0,"subject_pos":1,"motif":"subject_inv","motif_pos":1,"best_pos":1,"similarity":1.0,"stretto":false,"stretto_voices":0,"combination":[],"aug_dim":"","rhythm_ratio":1.0,"mirror":false,"chromatic_density":0.273,"complexity":0.511,"dissonance":0.104},{"voice":2,"pitch":57,"start":66.8181,"duration":0.2727,"velocity":127,"measure":31,"beat":3.5,"subject_pos":-1,"motif":"","motif_pos":-1,"best_pos":0,"similarity":0.307,"stretto":false,"stretto_voices":0,"combination":[],"aug_dim":"","rhythm_ratio":1.0,"mirror":false,"chromatic_density":0.273,"complexity":0.511,"dissonance":0.104},{"voice":2,"pitch":62,"start":67.0908,"duration":0.8182,"velocity":127,"measure":31,"beat":4.0,"subject_pos":-1,"motif":"","motif_pos":-1,"best_pos":5,"similarity":0.457,"stretto":false,"stretto_voices":0,"combination":[],"aug_dim":"","rhythm_ratio":1.0,"mirror":false,"chromatic_density":0.273,"complexity":0.511,"dissonance":0.104},{"voice":0,"pitch":79,"start":67.3636,"duration":0.2727,"velocity":127,"measure":31,"beat":4.5,"subject_pos":-1,"motif":"","motif_pos":-1,"best_pos":6,"similarity":0.589,"stretto":false,"stretto_voices":0,"combination":[],"aug_dim":"","rhythm_ratio":1.0,"mirror":false,"chromatic_density":0.273,"complexity":0.511,"dissonance":0.104},{"voice":3,"pitch":52,"start":67.3636,"duration":0.2727,"velocity":127,"measure":31,"beat":4.5,"subject_pos":2,"motif":"subject_inv","motif_pos":2,"best_pos":2,"similarity":1.0,"stretto":false,"stretto_voices":0,"combination":[],"aug_dim":"","rhythm_ratio":1.0,"mirror":false,"chromatic_density":0.273,"complexity":0.511,"dissonance":0.104},{"voice":0,"pitch":81,"start":67.6363,"duration":0.8182,"velocity":127,"measure":32,"beat":1.0,"subject_pos":-1,"motif":"","motif_pos":-1,"best_pos":1,"similarity":0.457,"stretto":false,"stretto_voices":0,"combination":[],"aug_dim":"","rhythm_ratio":1.0,"mirror":false,"chromatic_density":0.3,"complexity":0.444,"dissonance":0.091},{"voice":3,"pitch":53,"start":67.6363,"duration":0.8182,"velocity":127,"measure":32,"beat":1.0,"subject_pos":3,"motif":"subject_inv","motif_pos":3,"best_pos":3,"similarity":1.0,"stretto":false,"stretto_voices":0,"combination":[],"aug_dim":"","rhythm_ratio":1.0,"mirror":false,"chromatic_density":0.3,"complexity":0.444,"dissonance":0.091},{"voice":2,"pitch":64,"start":67.909,"duration":0.2727,"velocity":127,"measure":32,"beat":1.5,"subject_pos":-1,"motif":"","motif_pos":-1,"best_pos":6,"similarity":0.586,"stretto":false,"stretto_voices":0,"combination":[],"aug_dim":"","rhythm_ratio":1.0,"mirror":false,"chromatic_density":0.3,"complexity":0.444,"dissonance":0.091},{"voice":2,"pitch":65,"start":68.1817,"duration":0.8182,"velocity":127,"measure":32,"beat":2.0,"subject_pos":-1,"motif":"","motif_pos":-1,"best_pos":5,"similarity":0.657,"stretto":false,"stretto_voices":0,"combination":[],"aug_dim":"","rhythm_ratio":1.0,"mirror":false,"chromatic_density":0.3,"complexity":0.444,"dissonance":0.091},{"voice":0,"pitch":79,"start":68.4545,"duration":0.2727,"velocity":127,"measure":32,"beat":2.5,"subject_pos":-1,"motif":"","motif_pos":-1,"best_pos":2,"similarity":0.593,"stretto":false,"stretto_voices":0,"combination":[],"aug_dim":"","rhythm_ratio":1.0,"mirror":false,"chromatic_density":0.3,"complexity":0.444,"dissonance":0.091},{"voice":3,"pitch":55,"start":68.4545,"duration":0.2727,"velocity":127,"measure":32,"beat":2.5,"subject_pos":4,"motif":"subject_inv","motif_pos":4,"best_pos":4,"similarity":1.0,"stretto":false,"stretto_voices":0,"combination":[],"aug_dim":"","rhythm_ratio":1.0,"mirror":false,"chromatic_density":0.3,"complexity":0.444,"dissonance":0.091},{"voice":0,"pitch":77,"start":68.7272,"duration":0.2727,"velocity":127,"measure":32,"beat":3.0,"subject_pos":-1,"motif":"","motif_pos":-1,"best_pos":3,"similarity":0.6,"stretto":false,"stretto_voices":0,"combination":[],"aug_dim":"","rhythm_ratio":1.0,"mirror":false,"chromatic_density":0.3,"complexity":0.444,"dissonance":0.091},{"voice":3,"pitch":57,"start":68.7272,"duration":1.0909,"velocity":127,"measure":32,"beat":3.0,"subject_pos":5,"motif":"subject_inv","motif_pos":5,"best_pos":5,"similarity":1.0,"stretto":false,"stretto_voices":0,"combination":[],"aug_dim":"","rhythm_ratio":1.0,"mirror":false,"chromatic_density":0.3,"complexity":0.444,"dissonance":0.091},{"voice":0,"pitch":76,"start":68.9999,"duration":0.2727,"velocity":127,"measure":32,"beat":3.5,"subject_pos":-1,"motif":"","motif_pos":-1,"best_pos":4,"similarity":0.543,"stretto":false,"stretto_voices":0,"combination":[],"aug_dim":"","rhythm_ratio":1.0,"mirror":false,"chromatic_density":0.3,"complexity":0.444,"dissonance":0.091},{"voice":2,"pitch":67,"start":68.9999,"duration":0.2727,"velocity":127,"measure":32,"beat":3.5,"subject_pos":-1,"motif":"","motif_pos":-1,"best_pos":6,"similarity":0.579,"stretto":false,"stretto_voices":0,"combination":[],"aug_dim":"","rhythm_ratio":1.0,"mirror":false,"chromatic_density":0.3,"complexity":0.444,"dissonance":0.091},{"voice":0,"pitch":74,"start":69.2727,"duration":0.2727,"velocity":127,"measure":32,"beat":4.0,"subject_pos":-1,"motif":"","motif_pos":-1,"best_pos":3,"similarity":0.643,"stretto":false,"stretto_voices":0,"combination":[],"aug_dim":"","rhythm_ratio":1.0,"mirror":false,"chromatic_density":0.3,"complexity":0.444,"dissonance":0.091},{"voice":2,"pitch":69,"start":69.2727,"duration":0.8182,"velocity":127,"measure":32,"beat":4.0,"subject_pos":-1,"motif":"","motif_pos":-1,"best_pos":1,"similarity":0.457,"stretto":false,"stretto_voices":0,"combination":[],"aug_dim":"","rhythm_ratio":1.0,"mirror":false,"chromatic_density":0.3,"complexity":0.444,"dissonance":0.091},{"voice":0,"pitch":73,"start":69.5454,"duration":0.2727,"velocity":127,"measure":32,"beat":4.5,"subject_pos":-1,"motif":"","motif_pos":-1,"best_pos":4,"similarity":0.714,"stretto":false,"stretto_voices":0,"combination":[],"aug_dim":"","rhythm_ratio":1.0,"mirror":false,"chromatic_density":0.3,"complexity":0.444,"dissonance":0.091},{"voice":0,"pitch":74,"start":69.8181,"duration":1.3636,"velocity":127,"measure":33,"beat":1.0,"subject_pos":-1,"motif":"","motif_pos":-1,"best_pos":5,"similarity":0.536,"stretto":false,"stretto_voices":0,"combination":[],"aug_dim":"","rhythm_ratio":1.0,"mirror":false,"chromatic_density":0.5,"complexity":0.536,"dissonance":0.118},{"voice":3,"pitch":58,"start":69.8181,"duration":1.0909,"velocity":127,"measure":33,"beat":1.0,"subject_pos":6,"motif":"subject_inv","motif_pos":6,"best_pos":6,"similarity":1.0,"stretto":false,"stretto_voices":0,"combination":[],"aug_dim":"","rhythm_ratio":1.0,"mirror":false,"chromatic_density":0.5,"complexity":0.536,"dissonance":0.118},{"voice":2,"pitch":67,"start":70.0908,"duration":0.2727,"velocity":127,"measure":33,"beat":1.5,"subject_pos":-1,"motif":"","motif_pos":-1,"best_pos":2,"similarity":0.657,"stretto":false,"stretto_voices":0,"combination":[],"aug_dim":"","rhythm_ratio":1.0,"mirror":false,"chromatic_density":0.5,"complexity":0.536,"dissonance":0.118},{"voice":2,"pitch":65,"start":70.3636,"duration":0.2727,"velocity":127,"measure":33,"beat":2.0,"subject_pos":-1,"motif":"","motif_pos":-1,"best_pos":3,"similarity":0.729,"stretto":false,"stretto_voices":0,"combination":[],"aug_dim":"","rhythm_ratio":1.0,"mirror":false,"chromatic_density":0.5,"complexity":0.536,"dissonance":0.118},{"voice":2,"pitch":64,"start":70.6363,"duration":0.2727,"velocity":127,"measure":33,"beat":2.5,"subject_pos":-1,"motif":"","motif_pos":-1,"best_pos":4,"similarity":0.729,"stretto":false,"stretto_voices":0,"combination":[],"aug_dim":"","rhythm_ratio":1.0,"mirror":false,"chromatic_density":0.5,"complexity":0.536,"dissonance":0.118},{"voice":2,"pitch":65,"start":70.909,"duration":0.5455,"velocity":127,"measure":33,"beat":3.0,"subject_pos":-1,"motif":"","motif_pos":-1,"best_pos":5,"similarity":0.493,"stretto":false,"stretto_voices":0,"combination":[],"aug_dim":"","rhythm_ratio":1.0,"mirror":false,"chromatic_density":0.5,"complexity":0.536,"dissonance":0.118},{"voice":3,"pitch":57,"start":70.909,"duration":0.8182,"velocity":127,"measure":33,"beat":3.0,"subject_pos":7,"motif":"subject_inv","motif_pos":7,"best_pos":7,"similarity":1.0,"stretto":false,"stretto_voices":0,"combination":[],"aug_dim":"","rhythm_ratio":1.0,"mirror":false,"chromatic_density":0.5,"complexity":0.536,"dissonance":0.118},{"voice":0,"pitch":71,"start":71.1817,"duration":0.2727,"velocity":127,"measure":33,"beat":3.5,"subject_pos":-1,"motif":"","motif_pos":-1,"best_pos":5,"similarity":0.511,"stretto":false,"stretto_voices":0,"combination":[],"aug_dim":"","rhythm_ratio":1.0,"mirror":false,"chromatic_density":0.5,"complexity":0.536,"dissonance":0.118},{"voice":0,"pitch":73,"start":71.4545,"duration":0.5455,"velocity":127,"measure":33,"beat":4.0,"subject_pos":-1,"motif":"","motif_pos":-1,"best_pos":6,"similarity":0.604,"stretto":false,"stretto_voices":0,"combination":[],"aug_dim":"","rhythm_ratio":1.0,"mirror":false,"chromatic_density":0.5,"complexity":0.536,"dissonance":0.118},{"voice":2,"pitch":64,"start":71.4545,"duration":0.5455,"velocity":127,"measure":33,"beat":4.0,"subject_pos":-1,"motif":"head_inv","motif_pos":0,"best_pos":0,"similarity":1.0,"stretto":false,"stretto_voices":0,"combination":[],"aug_dim":"","rhythm_ratio":1.0,"mirror":false,"chromatic_density":0.5,"complexity":0.536,"dissonance":0.118},{"voice":3,"pitch":55,"start":71.7272,"duration":0.2727,"velocity":127,"measure":33,"beat":4.5,"subject_pos":8,"motif":"subject_inv","motif_pos":8,"best_pos":0,"similarity":1.0,"stretto":false,"stretto_voices":0,"combination":[],"aug_dim":"","rhythm_ratio":1.0,"mirror":false,"chromatic_density":0.5,"complexity":0.536,"dissonance":0.118},{"voice":0,"pitch":74,"start":71.9999,"duration":0.2727,"velocity":127,"measure":34,"beat":1.0,"subject_pos":-1,"motif":"","motif_pos":-1,"best_pos":7,"similarity":0.436,"stretto":false,"stretto_voices":0,"combination":[],"aug_dim":"","rhythm_ratio":1.0,"mirror":false,"chromatic_density":0.308,"complexity":0.691,"dissonance":0.154},{"voice":1,"pitch":74,"start":71.9999,"duration":1.0909,"velocity":127,"measure":34,"beat":1.0,"subject_pos":0,"motif":"subject_inv","motif_pos":0,"best_pos":0,"similarity":1.0,"stretto":false,"stretto_voices":0,"combination":[],"aug_dim":"","rhythm_ratio":1.0,"mirror":false,"chromatic_density":0.308,"complexity":0.691,"dissonance":0.154},{"voice":2,"pitch":57,"start":71.9999,"duration":0.5455,"velocity":127,"measure":34,"beat":1.0,"subject_pos":-1,"motif":"head_inv","motif_pos":1,"best_pos":1,"similarity":1.0,"stretto":false,"stretto_voices":0,"combination":[],"aug_dim":"","rhythm_ratio":1.0,"mirror":false,"chromatic_density":0.308,"complexity":0.691,"dissonance":0.154},{"voice":3,"pitch":53,"start":71.9999,"duration":1.3636,"velocity":127,"measure":34,"beat":1.0,"subject_pos":-1,"motif":"","motif_pos":-1,"best_pos":3,"similarity":0.786,"stretto":false,"stretto_voices":0,"combination":[],"aug_dim":"","rhythm_ratio":1.0,"mirror":false,"chromatic_density":0.308,"complexity":0.691,"dissonance":0.154},{"voice":0,"pitch":70,"start":72.2727,"duration":0.2727,"velocity":127,"measure":34,"beat":1.5,"subject_pos":-1,"motif":"","motif_pos":-1,"best_pos":3,"similarity":0.471,"stretto":false,"stretto_voices":0,"combination":[],"aug_dim":"","rhythm_ratio":1.0,"mirror":false,"chromatic_density":0.308,"complexity":0.691,"dissonance":0.154},{"voice":0,"pitch":69,"start":72.5454,"duration":0.2727,"velocity":127,"measure":34,"beat":2.0,"subject_pos":-1,"motif":"","motif_pos":-1,"best_pos":4,"similarity":0.407,"stretto":false,"stretto_voices":0,"combination":[],"aug_dim":"","rhythm_ratio":1.0,"mirror":false,"chromatic_density":0.308,"complexity":0.691,"dissonance":0.154},{"voice":2,"pitch":59,"start":72.5454,"duration":0.2727,"velocity":127,"measure":34,"beat":2.0,"subject_pos":-1,"motif":"head_inv","motif_pos":2,"best_pos":2,"similarity":1.0,"stretto":false,"stretto_voices":0,"combination":[],"aug_dim":"","rhythm_ratio":1.0,"mirror":false,"chromatic_density":0.308,"complexity":0.691,"dissonance":0.154},{"voice":0,"pitch":67,"start":72.8181,"duration":0.2727,"velocity":127,"measure":34,"beat":2.5,"subject_pos":-1,"motif":"","motif_pos":-1,"best_pos":2,"similarity":0.446,"stretto":false,"stretto_voices":0,"combination":[],"aug_dim":"","rhythm_ratio":1.0,"mirror":false,"chromatic_density":0.308,"complexity":0.691,"dissonance":0.154},{"voice":2,"pitch":61,"start":72.8181,"duration":0.2727,"velocity":127,"measure":34,"beat":2.5,"subject_pos":-1,"motif":"head_inv","motif_pos":3,"best_pos":3,"similarity":1.0,"stretto":false,"stretto_voices":0,"combination":[],"aug_dim":"","rhythm_ratio":1.0,"mirror":false,"chromatic_density":0.308,"complexity":0.691,"dissonance":0.154},{"voice":0,"pitch":65,"start":73.0908,"duration":0.5455,"velocity":127,"measure":34,"beat":3.0,"subject_pos":-1,"motif":"","motif_pos":-1,"best_pos":2,"similarity":0.464,"stretto":false,"stretto_voices":0,"combination":[],"aug_dim":"","rhythm_ratio":1.0,"mirror":false,"chromatic_density":0.308,"complexity":0.691,"dissonance":0.154},{"voice":1,"pitch":69,"start":73.0908,"duration":0.8182,"velocity":127,"measure":34,"beat":3.0,"subject_pos":1,"motif":"subject_inv","motif_pos":1,"best_pos":1,"similarity":1.0,"stretto":false,"stretto_voices":0,"combination":[],"aug_dim":"","rhythm_ratio":1.0,"mirror":false,"chromatic_density":0.308,"complexity":0.691,"dissonance":0.154},{"voice":2,"pitch":62,"start":73.0908,"duration":1.0909,"velocity":127,"measure":34,"beat":3.0,"subject_pos":-1,"motif":"head_inv","motif_pos":4,"best_pos":4,"similarity":1.0,"stretto":false,"stretto_voices":0,"combination":[],"aug_dim":"","rhythm_ratio":1.0,"mirror":false,"chromatic_density":0.308,"complexity":0.691,"dissonance":0.154},{"voice":3,"pitch":52,"start":73.3636,"duration":0.2727,"velocity":127,"measure":34,"beat":3.5,"subject_pos":-1,"motif":"","motif_pos":-1,"best_pos":4,"similarity":0.893,"stretto":false,"stretto_voices":0,"combination":[],"aug_dim":"","rhythm_ratio":1.0,"mirror":false,"chromatic_density":0.308,"complexity":0.691,"dissonance":0.154},{"voice":0,"pitch":77,"start":73.6363,"duration":0.8182,"velocity":127,"measure":34,"beat":4.0,"subject_pos":-1,"motif":"","motif_pos":-1,"best_pos":3,"similarity":0.571,"stretto":false,"stretto_voices":0,"combination":[],"aug_dim":"","rhythm_ratio":1.0,"mirror":false,"chromatic_density":0.308,"complexity":0.691,"dissonance":0.154},{"voice":3,"pitch":53,"start":73.6363,"duration":0.2727,"velocity":127,"measure":34,"beat":4.0,"subject_pos":-1,"motif":"","motif_pos":-1,"best_pos":5,"similarity":0.821,"stretto":false,"stretto_voices":0,"combination":[],"aug_dim":"","rhythm_ratio":1.0,"mirror":false,"chromatic_density":0.308,"complexity":0.691,"dissonance":0.154},{"voice":1,"pitch":71,"start":73.909,"duration":0.2727,"velocity":127,"measure":34,"beat":4.5,"subject_pos":2,"motif":"subject_inv","motif_pos":2,"best_pos":2,"similarity":1.0,"stretto":false,"stretto_voices":0,"combination":[],"aug_dim":"","rhythm_ratio":1.0,"mirror":false,"chromatic_density":0.308,"complexity":0.691,"dissonance":0.154},{"voice":3,"pitch":55,"start":73.909,"duration":0.2727,"velocity":127,"measure":34,"beat":4.5,"subject_pos":-1,"motif":"","motif_pos":-1,"best_pos":6,"similarity":0.643,"stretto":false,"stretto_voices":0,"combination":[],"aug_dim":"","rhythm_ratio":1.0,"mirror":false,"chromatic_density":0.308,"complexity":0.691,"dissonance":0.154},{"voice":1,"pitch":72,"start":74.1817,"duration":0.8182,"velocity":127,"measure":35,"beat":1.0,"subject_pos":3,"motif":"subject_inv","motif_pos":3,"best_pos":3,"similarity":1.0,"stretto":false,"stretto_voices":0,"combination":[],"aug_dim":"","rhythm_ratio":1.0,"mirror":false,"chromatic_density":0.4,"complexity":0.559,"dissonance":0.091},{"voice":2,"pitch":60,"start":74.1817,"duration":0.8182,"velocity":127,"measure":35,"beat":1.0,"subject_pos":-1,"motif":"","motif_pos":-1,"best_pos":3,"similarity":0.611,"stretto":false,"stretto_voices":0,"combination":[],"aug_dim":"","rhythm_ratio":1.0,"mirror":false,"chromatic_density":0.4,"complexity":0.559,"dissonance":0.091},{"voice":3,"pitch":57,"start":74.1817,"duration":1.3636,"velocity":127,"measure":35,"beat":1.0,"subject_pos":-1,"motif":"","motif_pos":-1,"best_pos":1,"similarity":0.457,"stretto":false,"stretto_voices":0,"combination":[],"aug_dim":"","rhythm_ratio":1.0,"mirror":false,"chromatic_density":0.4,"complexity":0.559,"dissonance":0.091},{"voice":0,"pitch":76,"start":74.4545,"duration":0.2727,"velocity":127,"measure":35,"beat":1.5,"subject_pos":-1,"motif":"","motif_pos":-1,"best_pos":4,"similarity":0.714,"stretto":false,"stretto_voices":0,"combination":[],"aug_dim":"","rhythm_ratio":1.0,"mirror":false,"chromatic_density":0.4,"complexity":0.559,"dissonance":0.091},{"voice":0,"pitch":78,"start":74.7272,"duration":0.2727,"velocity":127,"measure":35,"beat":2.0,"subject_pos":-1,"motif":"","motif_pos":-1,"best_pos":5,"similarity":0.714,"stretto":false,"stretto_voices":0,"combination":[],"aug_dim":"","rhythm_ratio":1.0,"mirror":false,"chromatic_density":0.4,"complexity":0.559,"dissonance":0.091},{"voice":0,"pitch":80,"start":74.9999,"duration":0.2727,"velocity":127,"measure":35,"beat":2.5,"subject_pos":-1,"motif":"","motif_pos":-1,"best_pos":6,"similarity":0.714,"stretto":false,"stretto_voices":0,"combination":[],"aug_dim":"","rhythm_ratio":1.0,"mirror":false,"chromatic_density":0.4,"complexity":0.559,"dissonance":0.091},{"voice":1,"pitch":74,"start":74.9999,"duration":0.2727,"velocity":127,"measure":35,"beat":2.5,"subject_pos":4,"motif":"subject_inv","motif_pos":4,"best_pos":4,"similarity":1.0,"stretto":false,"stretto_voices":0,"combination":[],"aug_dim":"","rhythm_ratio":1.0,"mirror":false,"chromatic_density":0.4,"complexity":0.559,"dissonance":0.091},{"voice":2,"pitch":59,"start":74.9999,"duration":0.2727,"velocity":127,"measure":35,"beat":2.5,"subject_pos":-1,"motif":"","motif_pos":-1,"best_pos":4,"similarity":0.693,"stretto":false,"stretto_voices":0,"combination":[],"aug_dim":"","rhythm_ratio":1.0,"mirror":false,"chromatic_density":0.4,"complexity":0.559,"dissonance":0.091},{"voice":0,"pitch":81,"start":75.2727,"duration":2.4545,"velocity":127,"measure":35,"beat":3.0,"subject_pos":-1,"motif":"","motif_pos":-1,"best_pos":7,"similarity":0.464,"stretto":false,"stretto_voices":0,"combination":[],"aug_dim":"","rhythm_ratio":1.0,"mirror":false,"chromatic_density":0.4,"complexity":0.559,"dissonance":0.091},{"voice":1,"pitch":76,"start":75.2727,"duration":1.0909,"velocity":127,"measure":35,"beat":3.0,"subject_pos":5,"motif":"subject_inv","motif_pos":5,"best_pos":5,"similarity":1.0,"stretto":false,"stretto_voices":0,"combination":[],"aug_dim":"","rhythm_ratio":1.0,"mirror":false,"chromatic_density":0.4,"complexity":0.559,"dissonance":0.091},{"voice":2,"pitch":60,"start":75.2727,"duration":1.3636,"velocity":127,"measure":35,"beat":3.0,"subject_pos":-1,"motif":"","motif_pos":-1,"best_pos":5,"similarity":0.55,"stretto":false,"stretto_voices":0,"combination":[],"aug_dim":"","rhythm_ratio":1.0,"mirror":false,"chromatic_density":0.4,"complexity":0.559,"dissonance":0.091},{"voice":3,"pitch":55,"start":75.5454,"duration":0.2727,"velocity":127,"measure":35,"beat":3.5,"subject_pos":-1,"motif":"","motif_pos":-1,"best_pos":2,"similarity":0.593,"stretto":false,"stretto_voices":0,"combination":[],"aug_dim":"","rhythm_ratio":1.0,"mirror":false,"chromatic_density":0.4,"complexity":0.559,"dissonance":0.091},{"voice":3,"pitch":53,"start":75.8181,"duration":0.2727,"velocity":127,"measure":35,"beat":4.0,"subject_pos":-1,"motif":"","motif_pos":-1,"best_pos":3,"similarity":0.6,"stretto":false,"stretto_voices":0,"combination":[],"aug_dim":"","rhythm_ratio":1.0,"mirror":false,"chromatic_density":0.4,"complexity":0.559,"dissonance":0.091},{"voice":3,"pitch":52,"start":76.0908,"duration":0.2727,"velocity":127,"measure":35,"beat":4.5,"subject_pos":-1,"motif":"","motif_pos":-1,"best_pos":4,"similarity":0.507,"stretto":false,"stretto_voices":0,"combination":[],"aug_dim":"","rhythm_ratio":1.0,"mirror":false,"chromatic_density":0.4,"complexity":0.559,"dissonance":0.091},{"voice":1,"pitch":77,"start":76.3636,"duration":1.0909,"velocity":127,"measure":36,"beat":1.0,"subject_pos":6,"motif":"subject_inv","motif_pos":6,"best_pos":6,"similarity":1.0,"stretto":false,"stretto_voices":0,"combination":[],"aug_dim":"","rhythm_ratio":1.0,"mirror":false,"chromatic_density":0.333,"complexity":0.594,"dissonance":0.19},{"voice":3,"pitch":50,"start":76.3636,"duration":1.0909,"velocity":127,"measure":36,"beat":1.0,"subject_pos":-1,"motif":"","motif_pos":-1,"best_pos":2,"similarity":0.364,"stretto":false,"stretto_voices":0,"combination":[],"aug_dim":"","rhythm_ratio":1.0,"mirror":false,"chromatic_density":0.333,"complexity":0.594,"dissonance":0.19},{"voice":2,"pitch":60,"start":76.6363,"duration":0.2727,"velocity":127,"measure":36,"beat":1.5,"subject_pos":-1,"motif":"","motif_pos":-1,"best_pos":2,"similarity":0.443,"stretto":false,"stretto_voices":0,"combination":[],"aug_dim":"","rhythm_ratio":1.0,"mirror":false,"chromatic_density":0.333,"complexity":0.594,"dissonance":0.19},{"voice":2,"pitch":58,"start":76.909,"duration":0.2727,"velocity":127,"measure":36,"beat":2.0,"subject_pos":-1,"motif":"","motif_pos":-1,"best_pos":3,"similarity":0.632,"stretto":false,"stretto_voices":0,"combination":[],"aug_dim":"","rhythm_ratio":1.0,"mirror":false,"chromatic_density":0.333,"complexity":0.594,"dissonance":0.19},{"voice":2,"pitch":57,"start":77.1817,"duration":0.2727,"velocity":127,"measure":36,"beat":2.5,"subject_pos":-1,"motif":"","motif_pos":-1,"best_pos":4,"similarity":0.696,"stretto":false,"stretto_voices":0,"combination":[],"aug_dim":"","rhythm_ratio":1.0,"mirror":false,"chromatic_density":0.333,"complexity":0.594,"dissonance":0.19},{"voice":1,"pitch":76,"start":77.4545,"duration":0.8182,"velocity":127,"measure":36,"beat":3.0,"subject_pos":7,"motif":"subject_inv","motif_pos":7,"best_pos":7,"similarity":1.0,"stretto":false,"stretto_voices":0,"combination":[],"aug_dim":"","rhythm_ratio":1.0,"mirror":false,"chromatic_density":0.333,"complexity":0.594,"dissonance":0.19},{"voice":2,"pitch":58,"start":77.4545,"duration":0.8182,"velocity":127,"measure":36,"beat":3.0,"subject_pos":-1,"motif":"","motif_pos":-1,"best_pos":5,"similarity":0.536,"stretto":false,"stretto_voices":0,"combination":[],"aug_dim":"","rhythm_ratio":1.0,"mirror":false,"chromatic_density":0.333,"complexity":0.594,"dissonance":0.19},{"voice":3,"pitch":55,"start":77.4545,"duration":1.3636,"velocity":127,"measure":36,"beat":3.0,"subject_pos":-1,"motif":"","motif_pos":-1,"best_pos":1,"similarity":0.5,"stretto":false,"stretto_voices":0,"combination":[],"aug_dim":"","rhythm_ratio":1.0,"mirror":false,"chromatic_density":0.333,"complexity":0.594,"dissonance":0.19},{"voice":0,"pitch":81,"start":77.7272,"duration":0.2727,"velocity":127,"measure":36,"beat":3.5,"subject_pos":-1,"motif":"","motif_pos":-1,"best_pos":1,"similarity":0.429,"stretto":false,"stretto_voices":0,"combination":[],"aug_dim":"","rhythm_ratio":1.0,"mirror":false,"chromatic_density":0.333,"complexity":0.594,"dissonance":0.19},{"voice":0,"pitch":79,"start":77.9999,"duration":0.2727,"velocity":127,"measure":36,"beat":4.0,"subject_pos":-1,"motif":"","motif_pos":-1,"best_pos":2,"similarity":0.579,"stretto":false,"stretto_voices":0,"combination":[],"aug_dim":"","rhythm_ratio":1.0,"mirror":false,"chromatic_density":0.333,"complexity":0.594,"dissonance":0.19},{"voice":0,"pitch":77,"start":78.2726,"duration":0.2727,"velocity":127,"measure":36,"beat":4.5,"subject_pos":-1,"motif":"enigmatic_cell","motif_pos":0,"best_pos":0,"similarity":1.0,"stretto":false,"stretto_voices":0,"combination":[],"aug_dim":"","rhythm_ratio":1.0,"mirror":false,"chromatic_density":0.333,"complexity":0.594,"dissonance":0.19},{"voice":1,"pitch":74,"start":78.2726,"duration":0.2727,"velocity":127,"measure":36,"beat":4.5,"subject_pos":8,"motif":"subject_inv","motif_pos":8,"best_pos":0,"similarity":1.0,"stretto":false,"stretto_voices":0,"combination":[],"aug_dim":"","rhythm_ratio":1.0,"mirror":false,"chromatic_density":0.333,"complexity":0.594,"dissonance":0.19},{"voice":2,"pitch":62,"start":78.2726,"duration":0.2727,"velocity":127,"measure":36,"beat":4.5,"subject_pos":-1,"motif":"","motif_pos":-1,"best_pos":0,"similarity":0.293,"stretto":false,"stretto_voices":0,"combination":[],"aug_dim":"","rhythm_ratio":1.0,"mirror":false,"chromatic_density":0.333,"complexity":0.594,"dissonance":0.19},{"voice":0,"pitch":76,"start":78.5454,"duration":0.5455,"velocity":127,"measure":37,"beat":1.0,"subject_pos":-1,"motif":"enigmatic_cell","motif_pos":1,"best_pos":1,"similarity":1.0,"stretto":false,"stretto_voices":0,"combination":[],"aug_dim":"","rhythm_ratio":1.0,"mirror":false,"chromatic_density":0.25,"complexity":0.552,"dissonance":0.148},{"voice":1,"pitch":73,"start":78.5454,"duration":1.3636,"velocity":127,"measure":37,"beat":1.0,"subject_pos":-1,"motif":"","motif_pos":-1,"best_pos":4,"similarity":0.571,"stretto":false,"stretto_voices":0,"combination":[],"aug_dim":"","rhythm_ratio":1.0,"mirror":false,"chromatic_density":0.25,"complexity":0.552,"dissonance":0.148},{"voice":2,"pitch":69,"start":78.5454,"duration":1.0909,"velocity":127,"measure":37,"beat":1.0,"subject_pos":-1,"motif":"","motif_pos":-1,"best_pos":1,"similarity":0.307,"stretto":false,"stretto_voices":0,"combination":[],"aug_dim":"","rhythm_ratio":1.0,"mirror":false,"chromatic_density":0.25,"complexity":0.552,"dissonance":0.148},{"voice":3,"pitch":55,"start":78.8181,"duration":0.2727,"velocity":127,"measure":37,"beat":1.5,"subject_pos":-1,"motif":"","motif_pos":-1,"best_pos":2,"similarity":0.571,"stretto":false,"stretto_voices":0,"combination":[],"aug_dim":"","rhythm_ratio":1.0,"mirror":false,"chromatic_density":0.25,"complexity":0.552,"dissonance":0.148},{"voice":0,"pitch":81,"start":79.0908,"duration":1.0909,"velocity":127,"measure":37,"beat":2.0,"subject_pos":-1,"motif":"enigmatic_cell","motif_pos":2,"best_pos":2,"similarity":1.0,"stretto":false,"stretto_voices":0,"combination":[],"aug_dim":"","rhythm_ratio":1.0,"mirror":false,"chromatic_density":0.25,"complexity":0.552,"dissonance":0.148},{"voice":3,"pitch":53,"start":79.0908,"duration":0.2727,"velocity":127,"measure":37,"beat":2.0,"subject_pos":-1,"motif":"","motif_pos":-1,"best_pos":3,"similarity":0.686,"stretto":false,"stretto_voices":0,"combination":[],"aug_dim":"","rhythm_ratio":1.0,"mirror":false,"chromatic_density":0.25,"complexity":0.552,"dissonance":0.148},{"voice":3,"pitch":52,"start":79.3636,"duration":0.2727,"velocity":127,"measure":37,"beat":2.5,"subject_pos":-1,"motif":"","motif_pos":-1,"best_pos":4,"similarity":0.746,"stretto":false,"stretto_voices":0,"combination":[],"aug_dim":"","rhythm_ratio":1.0,"mirror":false,"chromatic_density":0.25,"complexity":0.552,"dissonance":0.148},{"voice":3,"pitch":53,"start":79.6363,"duration":1.3636,"velocity":127,"measure":37,"beat":3.0,"subject_pos":-1,"motif":"","motif_pos":-1,"best_pos":5,"similarity":0.636,"stretto":false,"stretto_voices":0,"combination":[],"aug_dim":"","rhythm_ratio":1.0,"mirror":false,"chromatic_density":0.25,"complexity":0.552,"dissonance":0.148},{"voice":1,"pitch":69,"start":79.909,"duration":0.2727,"velocity":127,"measure":37,"beat":3.5,"subject_pos":-1,"motif":"","motif_pos":-1,"best_pos":5,"similarity":0.536,"stretto":false,"stretto_voices":0,"combination":[],"aug_dim":"","rhythm_ratio":1.0,"mirror":false,"chromatic_density":0.25,"complexity":0.552,"dissonance":0.148},{"voice":0,"pitch":79,"start":80.1817,"duration":0.5455,"velocity":127,"measure":37,"beat":4.0,"subject_pos":-1,"motif":"","motif_pos":-1,"best_pos":2,"similarity":0.75,"stretto":false,"stretto_voices":0,"combination":[],"aug_dim":"","rhythm_ratio":1.0,"mirror":false,"chromatic_density":0.25,"complexity":0.552,"dissonance":0.148},{"voice":1,"pitch":71,"start":80.1817,"duration":0.2727,"velocity":127,"measure":37,"beat":4.0,"subject_pos":-1,"motif":"","motif_pos":-1,"best_pos":5,"similarity":0.604,"stretto":false,"stretto_voices":0,"combination":[],"aug_dim":"","rhythm_ratio":1.0,"mirror":false,"chromatic_density":0.25,"complexity":0.552,"dissonance":0.148},{"voice":1,"pitch":73,"start":80.4545,"duration":0.2727,"velocity":127,"measure":37,"beat":4.5,"subject_pos":-1,"motif":"","motif_pos":-1,"best_pos":6,"similarity":0.65,"stretto":false,"stretto_voices":0,"combination":[],"aug_dim":"","rhythm_ratio":1.0,"mirror":false,"chromatic_density":0.25,"complexity":0.552,"dissonance":0.148},{"voice":0,"pitch":77,"start":80.7272,"duration":1.0909,"velocity":127,"measure":38,"beat":1.0,"subject_pos":-1,"motif":"","motif_pos":-1,"best_pos":3,"similarity":0.75,"stretto":false,"stretto_voices":0,"combination":[],"aug_dim":"","rhythm_ratio":1.0,"mirror":false,"chromatic_density":0.5,"complexity":0.439,"dissonance":0.159},{"voice":1,"pitch":74,"start":80.7272,"duration":1.3636,"velocity":127,"measure":38,"beat":1.0,"subject_pos":-1,"motif":"","motif_pos":-1,"best_pos":7,"similarity":0.464,"stretto":false,"stretto_voices":0,"combination":[],"aug_dim":"","rhythm_ratio":1.0,"mirror":false,"chromatic_density":0.5,"complexity":0.439,"dissonance":0.159},{"voice":3,"pitch":52,"start":80.9999,"duration":0.2727,"velocity":127,"measure":38,"beat":1.5,"subject_pos":-1,"motif":"","motif_pos":-1,"best_pos":4,"similarity":0.8,"stretto":false,"stretto_voices":0,"combination":[],"aug_dim":"","rhythm_ratio":1.0,"mirror":false,"chromatic_density":0.5,"complexity":0.439,"dissonance":0.159},{"voice":3,"pitch":53,"start":81.2726,"duration":0.2727,"velocity":127,"measure":38,"beat":2.0,"subject_pos":-1,"motif":"","motif_pos":-1,"best_pos":5,"similarity":0.793,"stretto":false,"stretto_voices":0,"combination":[],"aug_dim":"","rhythm_ratio":1.0,"mirror":false,"chromatic_density":0.5,"complexity":0.439,"dissonance":0.159},{"voice":3,"pitch":55,"start":81.5454,"duration":0.2727,"velocity":127,"measure":38,"beat":2.5,"subject_pos":-1,"motif":"","motif_pos":-1,"best_pos":6,"similarity":0.643,"stretto":false,"stretto_voices":0,"combination":[],"aug_dim":"","rhythm_ratio":1.0,"mirror":false,"chromatic_density":0.5,"complexity":0.439,"dissonance":0.159},{"voice":0,"pitch":76,"start":81.8181,"duration":1.6364,"velocity":127,"measure":38,"beat":3.0,"subject_pos":-1,"motif":"","motif_pos":-1,"best_pos":4,"similarity":0.679,"stretto":false,"stretto_voices":0,"combination":[],"aug_dim":"","rhythm_ratio":1.0,"mirror":false,"chromatic_density":0.5,"complexity":0.439,"dissonance":0.159},{"voice":3,"pitch":57,"start":81.8181,"duration":1.3636,"velocity":127,"measure":38,"beat":3.0,"subject_pos":-1,"motif":"tail_inv","motif_pos":0,"best_pos":0,"similarity":1.0,"stretto":false,"stretto_voices":0,"combination":[],"aug_dim":"","rhythm_ratio":1.0,"mirror":false,"chromatic_density":0.5,"complexity":0.439,"dissonance":0.159},{"voice":1,"pitch":74,"start":82.0908,"duration":0.2727,"velocity":127,"measure":38,"beat":3.5,"subject_pos":-1,"motif":"","motif_pos":-1,"best_pos":2,"similarity":0.443,"stretto":false,"stretto_voices":0,"combination":[],"aug_dim":"","rhythm_ratio":1.0,"mirror":false,"chromatic_density":0.5,"complexity":0.439,"dissonance":0.159},{"voice":1,"pitch":72,"start":82.3636,"duration":0.2727,"velocity":127,"measure":38,"beat":4.0,"subject_pos":-1,"motif":"","motif_pos":-1,"best_pos":3,"similarity":0.632,"stretto":false,"stretto_voices":0,"combination":[],"aug_dim":"","rhythm_ratio":1.0,"mirror":false,"chromatic_density":0.5,"complexity":0.439,"dissonance":0.159},{"voice":1,"pitch":71,"start":82.6363,"duration":0.2727,"velocity":127,"measure":38,"beat":4.5,"subject_pos":-1,"motif":"","motif_pos":-1,"best_pos":4,"similarity":0.704,"stretto":false,"stretto_voices":0,"combination":[],"aug_dim":"","rhythm_ratio":1.0,"mirror":false,"chromatic_density":0.5,"complexity":0.439,"dissonance":0.159},{"voice":1,"pitch":72,"start":82.909,"duration":1.3636,"velocity":127,"measure":39,"beat":1.0,"subject_pos":-1,"motif":"","motif_pos":-1,"best_pos":5,"similarity":0.55,"stretto":false,"stretto_voices":0,"combination":[],"aug_dim":"","rhythm_ratio":1.0,"mirror":false,"chromatic_density":0.4,"complexity":0.618,"dissonance":0.155},{"voice":3,"pitch":58,"start":83.1817,"duration":0.2727,"velocity":127,"measure":39,"beat":1.5,"subject_pos":-1,"motif":"tail_inv","motif_pos":1,"best_pos":1,"similarity":1.0,"stretto":false,"stretto_voices":0,"combination":[],"aug_dim":"","rhythm_ratio":1.0,"mirror":false,"chromatic_density":0.4,"complexity":0.618,"dissonance":0.155},{"voice":0,"pitch":78,"start":83.4545,"duration":0.2727,"velocity":127,"measure":39,"beat":2.0,"subject_pos":-1,"motif":"","motif_pos":-1,"best_pos":6,"similarity":0.643,"stretto":false,"stretto_voices":0,"combination":[],"aug_dim":"","rhythm_ratio":1.0,"mirror":false,"chromatic_density":0.4,"complexity":0.618,"dissonance":0.155},{"voice":3,"pitch":57,"start":83.4545,"duration":0.2727,"velocity":127,"measure":39,"beat":2.0,"subject_pos":-1,"motif":"tail_inv","motif_pos":2,"best_pos":2,"similarity":1.0,"stretto":false,"stretto_voices":0,"combination":[],"aug_dim":"","rhythm_ratio":1.0,"mirror":false,"chromatic_density":0.4,"complexity":0.618,"dissonance":0.155},{"voice":0,"pitch":79,"start":83.7272,"duration":0.2727,"velocity":127,"measure":39,"beat":2.5,"subject_pos":-1,"motif":"","motif_pos":-1,"best_pos":5,"similarity":0.604,"stretto":false,"stretto_voices":0,"combination":[],"aug_dim":"","rhythm_ratio":1.0,"mirror":false,"chromatic_density":0.4,"complexity":0.618,"dissonance":0.155},{"voice":3,"pitch":55,"start":83.7272,"duration":0.2727,"velocity":127,"measure":39,"beat":2.5,"subject_pos":-1,"motif":"tail_inv","motif_pos":3,"best_pos":3,"similarity":1.0,"stretto":false,"stretto_voices":0,"combination":[],"aug_dim":"","rhythm_ratio":1.0,"mirror":false,"chromatic_density":0.4,"complexity":0.618,"dissonance":0.155},{"voice":0,"pitch":81,"start":83.9999,"duration":0.5455,"velocity":127,"measure":39,"beat":3.0,"subject_pos":-1,"motif":"head_inv","motif_pos":0,"best_pos":0,"similarity":1.0,"stretto":false,"stretto_voices":0,"combination":[],"aug_dim":"","rhythm_ratio":1.0,"mirror":false,"chromatic_density":0.4,"complexity":0.618,"dissonance":0.155},{"voice":3,"pitch":54,"start":83.9999,"duration":0.8182,"velocity":127,"measure":39,"beat":3.0,"subject_pos":-1,"motif":"tail_inv","motif_pos":4,"best_pos":4,"similarity":1.0,"stretto":false,"stretto_voices":0,"combination":[],"aug_dim":"","rhythm_ratio":1.0,"mirror":false,"chromatic_density":0.4,"complexity":0.618,"dissonance":0.155},{"voice":1,"pitch":72,"start":84.2726,"duration":0.2727,"velocity":127,"measure":39,"beat":3.5,"subject_pos":-1,"motif":"","motif_pos":-1,"best_pos":2,"similarity":0.443,"stretto":false,"stretto_voices":0,"combination":[],"aug_dim":"","rhythm_ratio":1.0,"mirror":false,"chromatic_density":0.4,"complexity":0.618,"dissonance":0.155},{"voice":0,"pitch":74,"start":84.5454,"duration":1.0909,"velocity":127,"measure":39,"beat":4.0,"subject_pos":-1,"motif":"head_inv","motif_pos":1,"best_pos":1,"similarity":1.0,"stretto":false,"stretto_voices":0,"combination":[],"aug_dim":"","rhythm_ratio":1.0,"mirror":false,"chromatic_density":0.4,"complexity":0.618,"dissonance":0.155},{"voice":1,"pitch":70,"start":84.5454,"duration":0.2727,"velocity":127,"measure":39,"beat":4.0,"subject_pos":-1,"motif":"","motif_pos":-1,"best_pos":3,"similarity":0.632,"stretto":false,"stretto_voices":0,"combination":[],"aug_dim":"","rhythm_ratio":1.0,"mirror":false,"chromatic_density":0.4,"complexity":0.618,"dissonance":0.155},{"voice":1,"pitch":69,"start":84.8181,"duration":0.2727,"velocity":127,"measure":39,"beat":4.5,"subject_pos":-1,"motif":"","motif_pos":-1,"best_pos":4,"similarity":0.714,"stretto":false,"stretto_voices":0,"combination":[],"aug_dim":"","rhythm_ratio":1.0,"mirror":false,"chromatic_density":0.4,"complexity":0.618,"dissonance":0.155},{"voice":3,"pitch":52,"start":84.8181,"duration":0.1364,"velocity":127,"measure":39,"beat":4.5,"subject_pos":-1,"motif":"","motif_pos":-1,"best_pos":5,"similarity":0.636,"stretto":false,"stretto_voices":0,"combination":[],"aug_dim":"","rhythm_ratio":1.0,"mirror":false,"chromatic_density":0.4,"complexity":0.618,"dissonance":0.155},{"voice":3,"pitch":54,"start":84.9545,"duration":0.1364,"velocity":127,"measure":39,"beat":4.75,"subject_pos":-1,"motif":"","motif_pos":-1,"best_pos":6,"similarity":0.657,"stretto":false,"stretto_voices":0,"combination":[],"aug_dim":"","rhythm_ratio":1.0,"mirror":false,"chromatic_density":0.4,"complexity":0.618,"dissonance":0.155},{"voice":1,"pitch":70,"start":85.0908,"duration":1.3636,"velocity":127,"measure":40,"beat":1.0,"subject_pos":-1,"motif":"","motif_pos":-1,"best_pos":5,"similarity":0.571,"stretto":false,"stretto_voices":0,"combination":[],"aug_dim":"","rhythm_ratio":1.0,"mirror":false,"chromatic_density":0.273,"complexity":0.559,"dissonance":0.17},{"voice":3,"pitch":55,"start":85.0908,"duration":0.2727,"velocity":127,"measure":40,"beat":1.0,"subject_pos":-1,"motif":"","motif_pos":-1,"best_pos":5,"similarity":0.636,"stretto":false,"stretto_voices":0,"combination":[],"aug_dim":"","rhythm_ratio":1.0,"mirror":false,"chromatic_density":0.273,"complexity":0.559,"dissonance":0.17},{"voice":3,"pitch":57,"start":85.3636,"duration":0.2727,"velocity":127,"measure":40,"beat":1.5,"subject_pos":-1,"motif":"","motif_pos":-1,"best_pos":6,"similarity":0.464,"stretto":false,"stretto_voices":0,"combination":[],"aug_dim":"","rhythm_ratio":1.0,"mirror":false,"chromatic_density":0.273,"complexity":0.559,"dissonance":0.17},{"voice":0,"pitch":76,"start":85.6363,"duration":0.2727,"velocity":127,"measure":40,"beat":2.0,"subject_pos":-1,"motif":"head_inv","motif_pos":2,"best_pos":2,"similarity":1.0,"stretto":false,"stretto_voices":0,"combination":[],"aug_dim":"","rhythm_ratio":1.0,"mirror":false,"chromatic_density":0.273,"complexity":0.559,"dissonance":0.17},{"voice":3,"pitch":55,"start":85.6363,"duration":0.2727,"velocity":127,"measure":40,"beat":2.0,"subject_pos":-1,"motif":"","motif_pos":-1,"best_pos":2,"similarity":0.593,"stretto":false,"stretto_voices":0,"combination":[],"aug_dim":"","rhythm_ratio":1.0,"mirror":false,"chromatic_density":0.273,"complexity":0.559,"dissonance":0.17},{"voice":0,"pitch":77,"start":85.909,"duration":0.2727,"velocity":127,"measure":40,"beat":2.5,"subject_pos":-1,"motif":"head_inv","motif_pos":3,"best_pos":3,"similarity":1.0,"stretto":false,"stretto_voices":0,"combination":[],"aug_dim":"","rhythm_ratio":1.0,"mirror":false,"chromatic_density":0.273,"complexity":0.559,"dissonance":0.17},{"voice":3,"pitch":53,"start":85.909,"duration":0.2727,"velocity":127,"measure":40,"beat":2.5,"subject_pos":-1,"motif":"","motif_pos":-1,"best_pos":3,"similarity":0.664,"stretto":false,"stretto_voices":0,"combination":[],"aug_dim":"","rhythm_ratio":1.0,"mirror":false,"chromatic_density":0.273,"complexity":0.559,"dissonance":0.17},{"voice":0,"pitch":79,"start":86.1817,"duration":0.5455,"velocity":127,"measure":40,"beat":3.0,"subject_pos":-1,"motif":"head_inv","motif_pos":4,"best_pos":4,"similarity":1.0,"stretto":false,"stretto_voices":0,"combination":[],"aug_dim":"","rhythm_ratio":1.0,"mirror":false,"chromatic_density":0.273,"complexity":0.559,"dissonance":0.17},{"voice":3,"pitch":52,"start":86.1817,"duration":0.8182,"velocity":127,"measure":40,"beat":3.0,"subject_pos":-1,"motif":"","motif_pos":-1,"best_pos":4,"similarity":0.671,"stretto":false,"stretto_voices":0,"combination":[],"aug_dim":"","rhythm_ratio":1.0,"mirror":false,"chromatic_density":0.273,"complexity":0.559,"dissonance":0.17},{"voice":1,"pitch":70,"start":86.4545,"duration":0.2727,"velocity":127,"measure":40,"beat":3.5,"subject_pos":-1,"motif":"","motif_pos":-1,"best_pos":3,"similarity":0.414,"stretto":false,"stretto_voices":0,"combination":[],"aug_dim":"","rhythm_ratio":1.0,"mirror":false,"chromatic_density":0.273,"complexity":0.559,"dissonance":0.17},{"voice":0,"pitch":72,"start":86.7272,"duration":0.8182,"velocity":127,"measure":40,"beat":4.0,"subject_pos":-1,"motif":"","motif_pos":-1,"best_pos":3,"similarity":0.443,"stretto":false,"stretto_voices":0,"combination":[],"aug_dim":"","rhythm_ratio":1.0,"mirror":false,"chromatic_density":0.273,"complexity":0.559,"dissonance":0.17},{"voice":1,"pitch":69,"start":86.7272,"duration":0.2727,"velocity":127,"measure":40,"beat":4.0,"subject_pos":-1,"motif":"","motif_pos":-1,"best_pos":4,"similarity":0.486,"stretto":false,"stretto_voices":0,"combination":[],"aug_dim":"","rhythm_ratio":1.0,"mirror":false,"chromatic_density":0.273,"complexity":0.559,"dissonance":0.17},{"voice":1,"pitch":67,"start":86.9999,"duration":0.2727,"velocity":127,"measure":40,"beat":4.5,"subject_pos":-1,"motif":"","motif_pos":-1,"best_pos":5,"similarity":0.479,"stretto":false,"stretto_voices":0,"combination":[],"aug_dim":"","rhythm_ratio":1.0,"mirror":false,"chromatic_density":0.273,"complexity":0.559,"dissonance":0.17},{"voice":3,"pitch":50,"start":86.9999,"duration":0.1364,"velocity":127,"measure":40,"beat":4.5,"subject_pos":-1,"motif":"","motif_pos":-1,"best_pos":5,"similarity":0.636,"stretto":false,"stretto_voices":0,"combination":[],"aug_dim":"","rhythm_ratio":1.0,"mirror":false,"chromatic_density":0.273,"complexity":0.559,"dissonance":0.17},{"voice":3,"pitch":52,"start":87.1363,"duration":0.1364,"velocity":127,"measure":40,"beat":4.75,"subject_pos":-1,"motif":"tail_inv","motif_pos":0,"best_pos":0,"similarity":1.0,"stretto":false,"stretto_voices":0,"combination":[],"aug_dim":"","rhythm_ratio":1.0,"mirror":false,"chromatic_density":0.273,"complexity":0.559,"dissonance":0.17},{"voice":1,"pitch":69,"start":87.2726,"duration":1.3636,"velocity":127,"measure":41,"beat":1.0,"subject_pos":-1,"motif":"","motif_pos":-1,"best_pos":1,"similarity":0.457,"stretto":false,"stretto_voices":0,"combination":[],"aug_dim":"","rhythm_ratio":1.0,"mirror":false,"chromatic_density":0.333,"complexity":0.537,"dissonance":0.104},{"voice":3,"pitch":53,"start":87.2726,"duration":0.5455,"velocity":127,"measure":41,"beat":1.0,"subject_pos":-1,"motif":"tail_inv","motif_pos":1,"best_pos":1,"similarity":1.0,"stretto":false,"stretto_voices":0,"combination":[],"aug_dim":"","rhythm_ratio":1.0,"mirror":false,"chromatic_density":0.333,"complexity":0.537,"dissonance":0.104},{"voice":0,"pitch":71,"start":87.5454,"duration":0.2727,"velocity":127,"measure":41,"beat":1.5,"subject_pos":-1,"motif":"","motif_pos":-1,"best_pos":4,"similarity":0.557,"stretto":false,"stretto_voices":0,"combination":[],"aug_dim":"","rhythm_ratio":1.0,"mirror":false,"chromatic_density":0.333,"complexity":0.537,"dissonance":0.104},{"voice":0,"pitch":73,"start":87.8181,"duration":0.2727,"velocity":127,"measure":41,"beat":2.0,"subject_pos":-1,"motif":"","motif_pos":-1,"best_pos":6,"similarity":0.607,"stretto":false,"stretto_voices":0,"combination":[],"aug_dim":"","rhythm_ratio":1.0,"mirror":false,"chromatic_density":0.333,"complexity":0.537,"dissonance":0.104},{"voice":3,"pitch":52,"start":87.8181,"duration":0.2727,"velocity":127,"measure":41,"beat":2.0,"subject_pos":-1,"motif":"tail_inv","motif_pos":2,"best_pos":2,"similarity":1.0,"stretto":false,"stretto_voices":0,"combination":[],"aug_dim":"","rhythm_ratio":1.0,"mirror":false,"chromatic_density":0.333,"complexity":0.537,"dissonance":0.104},{"voice":0,"pitch":74,"start":88.0908,"duration":0.2727,"velocity":127,"measure":41,"beat":2.5,"subject_pos":-1,"motif":"","motif_pos":-1,"best_pos":5,"similarity":0.604,"stretto":false,"stretto_voices":0,"combination":[],"aug_dim":"","rhythm_ratio":1.0,"mirror":false,"chromatic_density":0.333,"complexity":0.537,"dissonance":0.104},{"voice":3,"pitch":50,"start":88.0908,"duration":0.2727,"velocity":127,"measure":41,"beat":2.5,"subject_pos":-1,"motif":"tail_inv","motif_pos":3,"best_pos":3,"similarity":1.0,"stretto":false,"stretto_voices":0,"combination":[],"aug_dim":"","rhythm_ratio":1.0,"mirror":false,"chromatic_density":0.333,"complexity":0.537,"dissonance":0.104},{"voice":0,"pitch":76,"start":88.3635,"duration":0.5455,"velocity":127,"measure":41,"beat":3.0,"subject_pos":-1,"motif":"","motif_pos":-1,"best_pos":6,"similarity":0.436,"stretto":false,"stretto_voices":0,"combination":[],"aug_dim":"","rhythm_ratio":1.0,"mirror":false,"chromatic_density":0.333,"complexity":0.537,"dissonance":0.104},{"voice":3,"pitch":49,"start":88.3635,"duration":0.8182,"velocity":127,"measure":41,"beat":3.0,"subject_pos":-1,"motif":"tail_inv","motif_pos":4,"best_pos":4,"similarity":1.0,"stretto":false,"stretto_voices":0,"combination":[],"aug_dim":"","rhythm_ratio":1.0,"mirror":false,"chromatic_density":0.333,"complexity":0.537,"dissonance":0.104},{"voice":1,"pitch":67,"start":88.6363,"duration":0.2727,"velocity":127,"measure":41,"beat":3.5,"subject_pos":-1,"motif":"","motif_pos":-1,"best_pos":2,"similarity":0.657,"stretto":false,"stretto_voices":0,"combination":[],"aug_dim":"","rhythm_ratio":1.0,"mirror":false,"chromatic_density":0.333,"complexity":0.537,"dissonance":0.104},{"voice":0,"pitch":69,"start":88.909,"duration":0.8182,"velocity":127,"measure":41,"beat":4.0,"subject_pos":-1,"motif":"","motif_pos":-1,"best_pos":6,"similarity":0.232,"stretto":false,"stretto_voices":0,"combination":[],"aug_dim":"","rhythm_ratio":1.0,"mirror":false,"chromatic_density":0.333,"complexity":0.537,"dissonance":0.104},{"voice":1,"pitch":65,"start":88.909,"duration":0.2727,"velocity":127,"measure":41,"beat":4.0,"subject_pos":-1,"motif":"","motif_pos":-1,"best_pos":3,"similarity":0.739,"stretto":false,"stretto_voices":0,"combination":[],"aug_dim":"","rhythm_ratio":1.0,"mirror":false,"chromatic_density":0.333,"complexity":0.537,"dissonance":0.104},{"voice":1,"pitch":64,"start":89.1817,"duration":0.2727,"velocity":127,"measure":41,"beat":4.5,"subject_pos":-1,"motif":"","motif_pos":-1,"best_pos":4,"similarity":0.768,"stretto":false,"stretto_voices":0,"combination":[],"aug_dim":"","rhythm_ratio":1.0,"mirror":false,"chromatic_density":0.333,"complexity":0.537,"dissonance":0.104},{"voice":3,"pitch":47,"start":89.1817,"duration":0.1364,"velocity":127,"measure":41,"beat":4.5,"subject_pos":-1,"motif":"","motif_pos":-1,"best_pos":5,"similarity":0.636,"stretto":false,"stretto_voices":0,"combination":[],"aug_dim":"","rhythm_ratio":1.0,"mirror":false,"chromatic_density":0.333,"complexity":0.537,"dissonance":0.104},{"voice":3,"pitch":49,"start":89.3181,"duration":0.1364,"velocity":127,"measure":41,"beat":4.75,"subject_pos":-1,"motif":"","motif_pos":-1,"best_pos":6,"similarity":0.657,"stretto":false,"stretto_voices":0,"combination":[],"aug_dim":"","rhythm_ratio":1.0,"mirror":false,"chromatic_density":0.333,"complexity":0.537,"dissonance":0.104},{"voice":1,"pitch":65,"start":89.4545,"duration":1.6364,"velocity":127,"measure":42,"beat":1.0,"subject_pos":-1,"motif":"","motif_pos":-1,"best_pos":5,"similarity":0.571,"stretto":false,"stretto_voices":0,"combination":[],"aug_dim":"","rhythm_ratio":1.0,"mirror":false,"chromatic_density":0.5,"complexity":0.436,"dissonance":0.045},{"voice":3,"pitch":50,"start":89.4545,"duration":1.3636,"velocity":127,"measure":42,"beat":1.0,"subject_pos":-1,"motif":"","motif_pos":-1,"best_pos":7,"similarity":0.436,"stretto":false,"stretto_voices":0,"combination":[],"aug_dim":"","rhythm_ratio":1.0,"mirror":false,"chromatic_density":0.5,"complexity":0.436,"dissonance":0.045},{"voice":0,"pitch":69,"start":89.7272,"duration":0.2727,"velocity":127,"measure":42,"beat":1.5,"subject_pos":-1,"motif":"","motif_pos":-1,"best_pos":0,"similarity":0.364,"stretto":false,"stretto_voices":0,"combination":[],"aug_dim":"","rhythm_ratio":1.0,"mirror":false,"chromatic_density":0.5,"complexity":0.436,"dissonance":0.045},{"voice":0,"pitch":74,"start":89.9999,"duration":0.2727,"velocity":127,"measure":42,"beat":2.0,"subject_pos":-1,"motif":"","motif_pos":-1,"best_pos":3,"similarity":0.482,"stretto":false,"stretto_voices":0,"combination":[],"aug_dim":"","rhythm_ratio":1.0,"mirror":false,"chromatic_density":0.5,"complexity":0.436,"dissonance":0.045},{"voice":0,"pitch":73,"start":90.2726,"duration":0.2727,"velocity":127,"measure":42,"beat":2.5,"subject_pos":-1,"motif":"","motif_pos":-1,"best_pos":4,"similarity":0.643,"stretto":false,"stretto_voices":0,"combination":[],"aug_dim":"","rhythm_ratio":1.0,"mirror":false,"chromatic_density":0.5,"complexity":0.436,"dissonance":0.045},{"voice":0,"pitch":74,"start":90.5454,"duration":1.6364,"velocity":127,"measure":42,"beat":3.0,"subject_pos":-1,"motif":"","motif_pos":-1,"best_pos":5,"similarity":0.536,"stretto":false,"stretto_voices":0,"combination":[],"aug_dim":"","rhythm_ratio":1.0,"mirror":false,"chromatic_density":0.5,"complexity":0.436,"dissonance":0.045},{"voice":3,"pitch":41,"start":90.8181,"duration":0.2727,"velocity":127,"measure":42,"beat":3.5,"subject_pos":-1,"motif":"","motif_pos":-1,"best_pos":0,"similarity":0.393,"stretto":false,"stretto_voices":0,"combination":[],"aug_dim":"","rhythm_ratio":1.0,"mirror":false,"chromatic_density":0.5,"complexity":0.436,"dissonance":0.045},{"voice":1,"pitch":65,"start":91.0908,"duration":0.5455,"velocity":127,"measure":42,"beat":4.0,"subject_pos":-1,"motif":"","motif_pos":-1,"best_pos":3,"similarity":0.407,"stretto":false,"stretto_voices":0,"combination":[],"aug_dim":"","rhythm_ratio":1.0,"mirror":false,"chromatic_density":0.5,"complexity":0.436,"dissonance":0.045},{"voice":3,"pitch":46,"start":91.0908,"duration":0.2727,"velocity":127,"measure":42,"beat":4.0,"subject_pos":-1,"motif":"","motif_pos":-1,"best_pos":1,"similarity":0.507,"stretto":false,"stretto_voices":0,"combination":[],"aug_dim":"","rhythm_ratio":1.0,"mirror":false,"chromatic_density":0.5,"complexity":0.436,"dissonance":0.045},{"voice":3,"pitch":45,"start":91.3635,"duration":0.2727,"velocity":127,"measure":42,"beat":4.5,"subject_pos":-1,"motif":"","motif_pos":-1,"best_pos":4,"similarity":0.529,"stretto":false,"stretto_voices":0,"combination":[],"aug_dim":"","rhythm_ratio":1.0,"mirror":false,"chromatic_density":0.5,"complexity":0.436,"dissonance":0.045},{"voice":1,"pitch":64,"start":91.6363,"duration":1.6364,"velocity":127,"measure":43,"beat":1.0,"subject_pos":-1,"motif":"","motif_pos":-1,"best_pos":4,"similarity":0.464,"stretto":false,"stretto_voices":0,"combination":[],"aug_dim":"","rhythm_ratio":1.0,"mirror":false,"chromatic_density":0.25,"complexity":0.47,"dissonance":0.18},{"voice":3,"pitch":43,"start":91.6363,"duration":0.2727,"velocity":127,"measure":43,"beat":1.0,"subject_pos":-1,"motif":"","motif_pos":-1,"best_pos":5,"similarity":0.6,"stretto":false,"stretto_voices":0,"combination":[],"aug_dim":"","rhythm_ratio":1.0,"mirror":false,"chromatic_density":0.25,"complexity":0.47,"dissonance":0.18},{"voice":3,"pitch":45,"start":91.909,"duration":0.2727,"velocity":127,"measure":43,"beat":1.5,"subject_pos":-1,"motif":"","motif_pos":-1,"best_pos":6,"similarity":0.657,"stretto":false,"stretto_voices":0,"combination":[],"aug_dim":"","rhythm_ratio":1.0,"mirror":false,"chromatic_density":0.25,"complexity":0.47,"dissonance":0.18},{"voice":0,"pitch":74,"start":92.1817,"duration":0.5455,"velocity":127,"measure":43,"beat":2.0,"subject_pos":-1,"motif":"","motif_pos":-1,"best_pos":3,"similarity":0.471,"stretto":false,"stretto_voices":0,"combination":[],"aug_dim":"","rhythm_ratio":1.0,"mirror":false,"chromatic_density":0.25,"complexity":0.47,"dissonance":0.18},{"voice":3,"pitch":46,"start":92.1817,"duration":0.2727,"velocity":127,"measure":43,"beat":2.0,"subject_pos":-1,"motif":"","motif_pos":-1,"best_pos":7,"similarity":0.436,"stretto":false,"stretto_voices":0,"combination":[],"aug_dim":"","rhythm_ratio":1.0,"mirror":false,"chromatic_density":0.25,"complexity":0.47,"dissonance":0.18},{"voice":3,"pitch":43,"start":92.4545,"duration":0.2727,"velocity":127,"measure":43,"beat":2.5,"subject_pos":-1,"motif":"","motif_pos":-1,"best_pos":2,"similarity":0.45,"stretto":false,"stretto_voices":0,"combination":[],"aug_dim":"","rhythm_ratio":1.0,"mirror":false,"chromatic_density":0.25,"complexity":0.47,"dissonance":0.18},{"voice":0,"pitch":73,"start":92.7272,"duration":1.0909,"velocity":127,"measure":43,"beat":3.0,"subject_pos":-1,"motif":"","motif_pos":-1,"best_pos":4,"similarity":0.629,"stretto":false,"stretto_voices":0,"combination":[],"aug_dim":"","rhythm_ratio":1.0,"mirror":false,"chromatic_density":0.25,"complexity":0.47,"dissonance":0.18},{"voice":3,"pitch":40,"start":92.7272,"duration":0.2727,"velocity":127,"measure":43,"beat":3.0,"subject_pos":-1,"motif":"","motif_pos":-1,"best_pos":3,"similarity":0.45,"stretto":false,"stretto_voices":0,"combination":[],"aug_dim":"","rhythm_ratio":1.0,"mirror":false,"chromatic_density":0.25,"complexity":0.47,"dissonance":0.18},{"voice":3,"pitch":45,"start":92.9999,"duration":0.2727,"velocity":127,"measure":43,"beat":3.5,"subject_pos":-1,"motif":"","motif_pos":-1,"best_pos":1,"similarity":0.579,"stretto":false,"stretto_voices":0,"combination":[],"aug_dim":"","rhythm_ratio":1.0,"mirror":false,"chromatic_density":0.25,"complexity":0.47,"dissonance":0.18},{"voice":1,"pitch":64,"start":93.2726,"duration":0.5455,"velocity":127,"measure":43,"beat":4.0,"subject_pos":-1,"motif":"","motif_pos":-1,"best_pos":5,"similarity":0.321,"stretto":false,"stretto_voices":0,"combination":[],"aug_dim":"","rhythm_ratio":1.0,"mirror":false,"chromatic_density":0.25,"complexity":0.47,"dissonance":0.18},{"voice":3,"pitch":43,"start":93.2726,"duration":0.2727,"velocity":127,"measure":43,"beat":4.0,"subject_pos":-1,"motif":"","motif_pos":-1,"best_pos":2,"similarity":0.479,"stretto":false,"stretto_voices":0,"combination":[],"aug_dim":"","rhythm_ratio":1.0,"mirror":false,"chromatic_density":0.25,"complexity":0.47,"dissonance":0.18},{"voice":3,"pitch":45,"start":93.5454,"duration":0.2727,"velocity":127,"measure":43,"beat":4.5,"subject_pos":-1,"motif":"","motif_pos":-1,"best_pos":3,"similarity":0.386,"stretto":false,"stretto_voices":0,"combination":[],"aug_dim":"","rhythm_ratio":1.0,"mirror":false,"chromatic_density":0.25,"complexity":0.47,"dissonance":0.18},{"voice":0,"pitch":74,"start":93.8181,"duration":0.2727,"velocity":127,"measure":44,"beat":1.0,"subject_pos":-1,"motif":"","motif_pos":-1,"best_pos":5,"similarity":0.507,"stretto":false,"stretto_voices":0,"combination":[],"aug_dim":"","rhythm_ratio":1.0,"mirror":false,"chromatic_density":0.154,"complexity":0.688,"dissonance":0.152},{"voice":1,"pitch":69,"start":93.8181,"duration":1.0909,"velocity":127,"measure":44,"beat":1.0,"subject_pos":0,"motif":"subject_inv","motif_pos":0,"best_pos":0,"similarity":1.0,"stretto":false,"stretto_voices":0,"combination":[],"aug_dim":"","rhythm_ratio":1.0,"mirror":false,"chromatic_density":0.154,"complexity":0.688,"dissonance":0.152},{"voice":3,"pitch":41,"start":93.8181,"duration":0.2727,"velocity":127,"measure":44,"beat":1.0,"subject_pos":-1,"motif":"","motif_pos":-1,"best_pos":5,"similarity":0.407,"stretto":false,"stretto_voices":0,"combination":[],"aug_dim":"","rhythm_ratio":1.0,"mirror":false,"chromatic_density":0.154,"complexity":0.688,"dissonance":0.152},{"voice":0,"pitch":70,"start":94.0908,"duration":0.2727,"velocity":127,"measure":44,"beat":1.5,"subject_pos":-1,"motif":"","motif_pos":-1,"best_pos":2,"similarity":0.407,"stretto":false,"stretto_voices":0,"combination":[],"aug_dim":"","rhythm_ratio":1.0,"mirror":false,"chromatic_density":0.154,"complexity":0.688,"dissonance":0.152},{"voice":3,"pitch":43,"start":94.0908,"duration":0.2727,"velocity":127,"measure":44,"beat":1.5,"subject_pos":-1,"motif":"","motif_pos":-1,"best_pos":5,"similarity":0.457,"stretto":false,"stretto_voices":0,"combination":[],"aug_dim":"","rhythm_ratio":1.0,"mirror":false,"chromatic_density":0.154,"complexity":0.688,"dissonance":0.152},{"voice":0,"pitch":72,"start":94.3635,"duration":0.8182,"velocity":127,"measure":44,"beat":2.0,"subject_pos":-1,"motif":"","motif_pos":-1,"best_pos":3,"similarity":0.371,"stretto":false,"stretto_voices":0,"combination":[],"aug_dim":"","rhythm_ratio":1.0,"mirror":false,"chromatic_density":0.154,"complexity":0.688,"dissonance":0.152},{"voice":2,"pitch":54,"start":94.3635,"duration":0.5455,"velocity":127,"measure":44,"beat":2.0,"subject_pos":-1,"motif":"enigmatic_cell","motif_pos":0,"best_pos":0,"similarity":1.0,"stretto":false,"stretto_voices":0,"combination":[],"aug_dim":"","rhythm_ratio":1.0,"mirror":false,"chromatic_density":0.154,"complexity":0.688,"dissonance":0.152},{"voice":3,"pitch":45,"start":94.3635,"duration":0.2727,"velocity":127,"measure":44,"beat":2.0,"subject_pos":-1,"motif":"","motif_pos":-1,"best_pos":6,"similarity":0.393,"stretto":false,"stretto_voices":0,"combination":[],"aug_dim":"","rhythm_ratio":1.0,"mirror":false,"chromatic_density":0.154,"complexity":0.688,"dissonance":0.152},{"voice":3,"pitch":42,"start":94.6363,"duration":0.2727,"velocity":127,"measure":44,"beat":2.5,"subject_pos":-1,"motif":"","motif_pos":-1,"best_pos":3,"similarity":0.321,"stretto":false,"stretto_voices":0,"combination":[],"aug_dim":"","rhythm_ratio":1.0,"mirror":false,"chromatic_density":0.154,"complexity":0.688,"dissonance":0.152},{"voice":1,"pitch":62,"start":94.909,"duration":0.8182,"velocity":127,"measure":44,"beat":3.0,"subject_pos":1,"motif":"subject_inv","motif_pos":1,"best_pos":1,"similarity":1.0,"stretto":false,"stretto_voices":0,"combination":[],"aug_dim":"","rhythm_ratio":1.0,"mirror":false,"chromatic_density":0.154,"complexity":0.688,"dissonance":0.152},{"voice":2,"pitch":55,"start":94.909,"duration":0.5455,"velocity":127,"measure":44,"beat":3.0,"subject_pos":-1,"motif":"enigmatic_cell","motif_pos":1,"best_pos":1,"similarity":1.0,"stretto":false,"stretto_voices":0,"combination":[],"aug_dim":"","rhythm_ratio":1.0,"mirror":false,"chromatic_density":0.154,"complexity":0.688,"dissonance":0.152},{"voice":3,"pitch":46,"start":94.909,"duration":0.5455,"velocity":127,"measure":44,"beat":3.0,"subject_pos":-1,"motif":"","motif_pos":-1,"best_pos":2,"similarity":0.321,"stretto":false,"stretto_voices":0,"combination":[],"aug_dim":"","rhythm_ratio":1.0,"mirror":false,"chromatic_density":0.154,"complexity":0.688,"dissonance":0.152},{"voice":0,"pitch":69,"start":95.1817,"duration":0.2727,"velocity":127,"measure":44,"beat":3.5,"subject_pos":-1,"motif":"","motif_pos":-1,"best_pos":4,"similarity":0.45,"stretto":false,"stretto_voices":0,"combination":[],"aug_dim":"","rhythm_ratio":1.0,"mirror":false,"chromatic_density":0.154,"complexity":0.688,"dissonance":0.152},{"voice":0,"pitch":70,"start":95.4544,"duration":0.8182,"velocity":127,"measure":44,"beat":4.0,"subject_pos":-1,"motif":"enigmatic_cell","motif_pos":0,"best_pos":0,"similarity":1.0,"stretto":false,"stretto_voices":0,"combination":[],"aug_dim":"","rhythm_ratio":1.0,"mirror":false,"chromatic_density":0.154,"complexity":0.688,"dissonance":0.152},{"voice":2,"pitch":50,"start":95.4544,"duration":0.5455,"velocity":127,"measure":44,"beat":4.0,"subject_pos":-1,"motif":"enigmatic_cell","motif_pos":2,"best_pos":2,"similarity":1.0,"stretto":false,"stretto_voices":0,"combination":[],"aug_dim":"","rhythm_ratio":1.0,"mirror":false,"chromatic_density":0.154,"complexity":0.688,"dissonance":0.152},{"voice":3,"pitch":43,"start":95.4544,"duration":0.5455,"velocity":127,"measure":44,"beat":4.0,"subject_pos":-1,"motif":"","motif_pos":-1,"best_pos":3,"similarity":0.393,"stretto":false,"stretto_voices":0,"combination":[],"aug_dim":"","rhythm_ratio":1.0,"mirror":false,"chromatic_density":0.154,"complexity":0.688,"dissonance":0.152},{"voice":1,"pitch":64,"start":95.7272,"duration":0.2727,"velocity":127,"measure":44,"beat":4.5,"subject_pos":2,"motif":"subject_inv","motif_pos":2,"best_pos":2,"similarity":1.0,"stretto":false,"stretto_voices":0,"combination":[],"aug_dim":"","rhythm_ratio":1.0,"mirror":false,"chromatic_density":0.154,"complexity":0.688,"dissonance":0.152},{"voice":1,"pitch":65,"start":95.9999,"duration":0.8182,"velocity":127,"measure":45,"beat":1.0,"subject_pos":3,"motif":"subject_inv","motif_pos":3,"best_pos":3,"similarity":1.0,"stretto":false,"stretto_voices":0,"combination":[],"aug_dim":"","rhythm_ratio":1.0,"mirror":false,"chromatic_density":0.5,"complexity":0.627,"dissonance":0.057},{"voice":3,"pitch":50,"start":95.9999,"duration":0.8182,"velocity":127,"measure":45,"beat":1.0,"subject_pos":-1,"motif":"","motif_pos":-1,"best_pos":5,"similarity":0.464,"stretto":false,"stretto_voices":0,"combination":[],"aug_dim":"","rhythm_ratio":1.0,"mirror":false,"chromatic_density":0.5,"complexity":0.627,"dissonance":0.057},{"voice":0,"pitch":69,"start":96.2726,"duration":0.2727,"velocity":127,"measure":45,"beat":1.5,"subject_pos":-1,"motif":"enigmatic_cell","motif_pos":1,"best_pos":1,"similarity":1.0,"stretto":false,"stretto_voices":0,"combination":[],"aug_dim":"","rhythm_ratio":1.0,"mirror":false,"chromatic_density":0.5,"complexity":0.627,"dissonance":0.057},{"voice":0,"pitch":74,"start":96.5454,"duration":0.8182,"velocity":127,"measure":45,"beat":2.0,"subject_pos":-1,"motif":"enigmatic_cell","motif_pos":2,"best_pos":2,"similarity":1.0,"stretto":false,"stretto_voices":0,"combination":[],"aug_dim":"","rhythm_ratio":1.0,"mirror":false,"chromatic_density":0.5,"complexity":0.627,"dissonance":0.057},{"voice":2,"pitch":58,"start":96.5454,"duration":0.5455,"velocity":127,"measure":45,"beat":2.0,"subject_pos":-1,"motif":"","motif_pos":-1,"best_pos":3,"similarity":0.379,"stretto":false,"stretto_voices":0,"combination":[],"aug_dim":"","rhythm_ratio":1.0,"mirror":false,"chromatic_density":0.5,"complexity":0.627,"dissonance":0.057},{"voice":1,"pitch":67,"start":96.8181,"duration":0.2727,"velocity":127,"measure":45,"beat":2.5,"subject_pos":4,"motif":"subject_inv","motif_pos":4,"best_pos":4,"similarity":1.0,"stretto":false,"stretto_voices":0,"combination":[],"aug_dim":"","rhythm_ratio":1.0,"mirror":false,"chromatic_density":0.5,"complexity":0.627,"dissonance":0.057},{"voice":3,"pitch":52,"start":96.8181,"duration":0.2727,"velocity":127,"measure":45,"beat":2.5,"subject_pos":-1,"motif":"","motif_pos":-1,"best_pos":6,"similarity":0.589,"stretto":false,"stretto_voices":0,"combination":[],"aug_dim":"","rhythm_ratio":1.0,"mirror":false,"chromatic_density":0.5,"complexity":0.627,"dissonance":0.057},{"voice":1,"pitch":69,"start":97.0908,"duration":1.0909,"velocity":127,"measure":45,"beat":3.0,"subject_pos":5,"motif":"subject_inv","motif_pos":5,"best_pos":5,"similarity":1.0,"stretto":false,"stretto_voices":0,"combination":[],"aug_dim":"","rhythm_ratio":1.0,"mirror":false,"chromatic_density":0.5,"complexity":0.627,"dissonance":0.057},{"voice":2,"pitch":57,"start":97.0908,"duration":0.5455,"velocity":127,"measure":45,"beat":3.0,"subject_pos":-1,"motif":"","motif_pos":-1,"best_pos":4,"similarity":0.386,"stretto":false,"stretto_voices":0,"combination":[],"aug_dim":"","rhythm_ratio":1.0,"mirror":false,"chromatic_density":0.5,"complexity":0.627,"dissonance":0.057},{"voice":3,"pitch":53,"start":97.0908,"duration":0.8182,"velocity":127,"measure":45,"beat":3.0,"subject_pos":-1,"motif":"","motif_pos":-1,"best_pos":5,"similarity":0.586,"stretto":false,"stretto_voices":0,"combination":[],"aug_dim":"","rhythm_ratio":1.0,"mirror":false,"chromatic_density":0.5,"complexity":0.627,"dissonance":0.057},{"voice":0,"pitch":73,"start":97.3635,"duration":0.2727,"velocity":127,"measure":45,"beat":3.5,"subject_pos":-1,"motif":"","motif_pos":-1,"best_pos":4,"similarity":0.693,"stretto":false,"stretto_voices":0,"combination":[],"aug_dim":"","rhythm_ratio":1.0,"mirror":false,"chromatic_density":0.5,"complexity":0.627,"dissonance":0.057},{"voice":0,"pitch":74,"start":97.6363,"duration":0.8182,"velocity":127,"measure":45,"beat":4.0,"subject_pos":-1,"motif":"tail","motif_pos":3,"best_pos":3,"similarity":1.0,"stretto":false,"stretto_voices":0,"combination":[],"aug_dim":"","rhythm_ratio":1.0,"mirror":false,"chromatic_density":0.5,"complexity":0.627,"dissonance":0.057},{"voice":2,"pitch":62,"start":97.6363,"duration":0.5455,"velocity":127,"measure":45,"beat":4.0,"subject_pos":-1,"motif":"head_inv","motif_pos":0,"best_pos":0,"similarity":1.0,"stretto":false,"stretto_voices":0,"combination":[],"aug_dim":"","rhythm_ratio":1.0,"mirror":false,"chromatic_density":0.5,"complexity":0.627,"dissonance":0.057},{"voice":3,"pitch":54,"start":97.909,"duration":0.2727,"velocity":127,"measure":45,"beat":4.5,"subject_pos":-1,"motif":"","motif_pos":-1,"best_pos":6,"similarity":0.579,"stretto":false,"stretto_voices":0,"combination":[],"aug_dim":"","rhythm_ratio":1.0,"mirror":false,"chromatic_density":0.5,"complexity":0.627,"dissonance":0.057},{"voice":1,"pitch":70,"start":98.1817,"duration":1.0909,"velocity":127,"measure":46,"beat":1.0,"subject_pos":6,"motif":"subject_inv","motif_pos":6,"best_pos":6,"similarity":1.0,"stretto":false,"stretto_voices":0,"combination":[],"aug_dim":"","rhythm_ratio":1.0,"mirror":false,"chromatic_density":0.4,"complexity":0.656,"dissonance":0.18},{"voice":2,"pitch":55,"start":98.1817,"duration":0.2727,"velocity":127,"measure":46,"beat":1.0,"subject_pos":-1,"motif":"head_inv","motif_pos":1,"best_pos":1,"similarity":1.0,"stretto":false,"stretto_voices":0,"combination":[],"aug_dim":"","rhythm_ratio":1.0,"mirror":false,"chromatic_density":0.4,"complexity":0.656,"dissonance":0.18},{"voice":3,"pitch":55,"start":98.1817,"duration":1.0909,"velocity":127,"measure":46,"beat":1.0,"subject_pos":-1,"motif":"","motif_pos":-1,"best_pos":5,"similarity":0.429,"stretto":false,"stretto_voices":0,"combination":[],"aug_dim":"","rhythm_ratio":1.0,"mirror":false,"chromatic_density":0.4,"complexity":0.656,"dissonance":0.18},{"voice":0,"pitch":73,"start":98.4544,"duration":0.2727,"velocity":127,"measure":46,"beat":1.5,"subject_pos":-1,"motif":"tail","motif_pos":4,"best_pos":4,"similarity":1.0,"stretto":false,"stretto_voices":0,"combination":[],"aug_dim":"","rhythm_ratio":1.0,"mirror":false,"chromatic_density":0.4,"complexity":0.656,"dissonance":0.18},{"voice":2,"pitch":57,"start":98.4544,"duration":0.2727,"velocity":127,"measure":46,"beat":1.5,"subject_pos":-1,"motif":"head_inv","motif_pos":2,"best_pos":2,"similarity":1.0,"stretto":false,"stretto_voices":0,"combination":[],"aug_dim":"","rhythm_ratio":1.0,"mirror":false,"chromatic_density":0.4,"complexity":0.656,"dissonance":0.18},{"voice":0,"pitch":74,"start":98.7272,"duration":0.2727,"velocity":127,"measure":46,"beat":2.0,"subject_pos":-1,"motif":"tail","motif_pos":5,"best_pos":5,"similarity":1.0,"stretto":false,"stretto_voices":0,"combination":[],"aug_dim":"","rhythm_ratio":1.0,"mirror":false,"chromatic_density":0.4,"complexity":0.656,"dissonance":0.18},{"voice":2,"pitch":58,"start":98.7272,"duration":0.2727,"velocity":127,"measure":46,"beat":2.0,"subject_pos":-1,"motif":"head_inv","motif_pos":3,"best_pos":3,"similarity":1.0,"stretto":false,"stretto_voices":0,"combination":[],"aug_dim":"","rhythm_ratio":1.0,"mirror":false,"chromatic_density":0.4,"complexity":0.656,"dissonance":0.18},{"voice":0,"pitch":76,"start":98.9999,"duration":0.2727,"velocity":127,"measure":46,"beat":2.5,"subject_pos":-1,"motif":"tail","motif_pos":6,"best_pos":6,"similarity":1.0,"stretto":false,"stretto_voices":0,"combination":[],"aug_dim":"","rhythm_ratio":1.0,"mirror":false,"chromatic_density":0.4,"complexity":0.656,"dissonance":0.18},{"voice":2,"pitch":60,"start":98.9999,"duration":0.2727,"velocity":127,"measure":46,"beat":2.5,"subject_pos":-1,"motif":"head_inv","motif_pos":4,"best_pos":4,"similarity":1.0,"stretto":false,"stretto_voices":0,"combination":[],"aug_dim":"","rhythm_ratio":1.0,"mirror":false,"chromatic_density":0.4,"complexity":0.656,"dissonance":0.18},{"voice":0,"pitch":77,"start":99.2726,"duration":0.8182,"velocity":127,"measure":46,"beat":3.0,"subject_pos":-1,"motif":"tail","motif_pos":7,"best_pos":7,"similarity":1.0,"stretto":false,"stretto_voices":0,"combination":[],"aug_dim":"","rhythm_ratio":1.0,"mirror":false,"chromatic_density":0.4,"complexity":0.656,"dissonance":0.18},{"voice":1,"pitch":69,"start":99.2726,"duration":0.8182,"velocity":127,"measure":46,"beat":3.0,"subject_pos":7,"motif":"subject_inv","motif_pos":7,"best_pos":7,"similarity":1.0,"stretto":false,"stretto_voices":0,"combination":[],"aug_dim":"","rhythm_ratio":1.0,"mirror":false,"chromatic_density":0.4,"complexity":0.656,"dissonance":0.18},{"voice":2,"pitch":62,"start":99.2726,"duration":0.2727,"velocity":127,"measure":46,"beat":3.0,"subject_pos":-1,"motif":"","motif_pos":-1,"best_pos":5,"similarity":0.593,"stretto":false,"stretto_voices":0,"combination":[],"aug_dim":"","rhythm_ratio":1.0,"mirror":false,"chromatic_density":0.4,"complexity":0.656,"dissonance":0.18},{"voice":3,"pitch":53,"start":99.2726,"duration":0.2727,"velocity":127,"measure":46,"beat":3.0,"subject_pos":-1,"motif":"","motif_pos":-1,"best_pos":4,"similarity":0.521,"stretto":false,"stretto_voices":0,"combination":[],"aug_dim":"","rhythm_ratio":1.0,"mirror":false,"chromatic_density":0.4,"complexity":0.656,"dissonance":0.18},{"voice":2,"pitch":64,"start":99.5454,"duration":0.2727,"velocity":127,"measure":46,"beat":3.5,"subject_pos":-1,"motif":"","motif_pos":-1,"best_pos":6,"similarity":0.65,"stretto":false,"stretto_voices":0,"combination":[],"aug_dim":"","rhythm_ratio":1.0,"mirror":false,"chromatic_density":0.4,"complexity":0.656,"dissonance":0.18},{"voice":3,"pitch":55,"start":99.5454,"duration":0.2727,"velocity":127,"measure":46,"beat":3.5,"subject_pos":-1,"motif":"","motif_pos":-1,"best_pos":5,"similarity":0.65,"stretto":false,"stretto_voices":0,"combination":[],"aug_dim":"","rhythm_ratio":1.0,"mirror":false,"chromatic_density":0.4,"complexity":0.656,"dissonance":0.18},{"voice":2,"pitch":65,"start":99.8181,"duration":0.8182,"velocity":127,"measure":46,"beat":4.0,"subject_pos":-1,"motif":"","motif_pos":-1,"best_pos":7,"similarity":0.464,"stretto":false,"stretto_voices":0,"combination":[],"aug_dim":"","rhythm_ratio":1.0,"mirror":false,"chromatic_density":0.4,"complexity":0.656,"dissonance":0.18},{"voice":3,"pitch":57,"start":99.8181,"duration":0.5455,"velocity":127,"measure":46,"beat":4.0,"subject_pos":-1,"motif":"","motif_pos":-1,"best_pos":6,"similarity":0.679,"stretto":false,"stretto_voices":0,"combination":[],"aug_dim":"","rhythm_ratio":1.0,"mirror":false,"chromatic_density":0.4,"complexity":0.656,"dissonance":0.18},{"voice":0,"pitch":76,"start":100.0908,"duration":0.2727,"velocity":127,"measure":46,"beat":4.5,"subject_pos":-1,"motif":"","motif_pos":-1,"best_pos":2,"similarity":0.514,"stretto":false,"stretto_voices":0,"combination":[],"aug_dim":"","rhythm_ratio":1.0,"mirror":false,"chromatic_density":0.4,"complexity":0.656,"dissonance":0.18},{"voice":1,"pitch":67,"start":100.0908,"duration":0.2727,"velocity":127,"measure":46,"beat":4.5,"subject_pos":8,"motif":"subject_inv","motif_pos":8,"best_pos":0,"similarity":1.0,"stretto":false,"stretto_voices":0,"combination":[],"aug_dim":"","rhythm_ratio":1.0,"mirror":false,"chromatic_density":0.4,"complexity":0.656,"dissonance":0.18},{"voice":0,"pitch":74,"start":100.3635,"duration":1.3636,"velocity":127,"measure":47,"beat":1.0,"subject_pos":-1,"motif":"","motif_pos":-1,"best_pos":3,"similarity":0.721,"stretto":false,"stretto_voices":0,"combination":[],"aug_dim":"","rhythm_ratio":1.0,"mirror":false,"chromatic_density":0.455,"complexity":0.528,"dissonance":0.164},{"voice":1,"pitch":65,"start":100.3635,"duration":1.3636,"velocity":127,"measure":47,"beat":1.0,"subject_pos":-1,"motif":"","motif_pos":-1,"best_pos":3,"similarity":0.786,"stretto":false,"stretto_voices":0,"combination":[],"aug_dim":"","rhythm_ratio":1.0,"mirror":false,"chromatic_density":0.455,"complexity":0.528,"dissonance":0.164},{"voice":3,"pitch":58,"start":100.3635,"duration":0.5455,"velocity":127,"measure":47,"beat":1.0,"subject_pos":-1,"motif":"","motif_pos":-1,"best_pos":7,"similarity":0.464,"stretto":false,"stretto_voices":0,"combination":[],"aug_dim":"","rhythm_ratio":1.0,"mirror":false,"chromatic_density":0.455,"complexity":0.528,"dissonance":0.164},{"voice":2,"pitch":64,"start":100.6363,"duration":0.2727,"velocity":127,"measure":47,"beat":1.5,"subject_pos":-1,"motif":"","motif_pos":-1,"best_pos":1,"similarity":0.393,"stretto":false,"stretto_voices":0,"combination":[],"aug_dim":"","rhythm_ratio":1.0,"mirror":false,"chromatic_density":0.455,"complexity":0.528,"dissonance":0.164},{"voice":2,"pitch":62,"start":100.909,"duration":0.2727,"velocity":127,"measure":47,"beat":2.0,"subject_pos":-1,"motif":"","motif_pos":-1,"best_pos":2,"similarity":0.518,"stretto":false,"stretto_voices":0,"combination":[],"aug_dim":"","rhythm_ratio":1.0,"mirror":false,"chromatic_density":0.455,"complexity":0.528,"dissonance":0.164},{"voice":3,"pitch":57,"start":100.909,"duration":1.0909,"velocity":127,"measure":47,"beat":2.0,"subject_pos":-1,"motif":"","motif_pos":-1,"best_pos":2,"similarity":0.379,"stretto":false,"stretto_voices":0,"combination":[],"aug_dim":"","rhythm_ratio":1.0,"mirror":false,"chromatic_density":0.455,"complexity":0.528,"dissonance":0.164},{"voice":2,"pitch":60,"start":101.1817,"duration":0.2727,"velocity":127,"measure":47,"beat":2.5,"subject_pos":-1,"motif":"","motif_pos":-1,"best_pos":2,"similarity":0.579,"stretto":false,"stretto_voices":0,"combination":[],"aug_dim":"","rhythm_ratio":1.0,"mirror":false,"chromatic_density":0.455,"complexity":0.528,"dissonance":0.164},{"voice":2,"pitch":58,"start":101.4544,"duration":1.0909,"velocity":127,"measure":47,"beat":3.0,"subject_pos":-1,"motif":"enigmatic_cell","motif_pos":0,"best_pos":0,"similarity":1.0,"stretto":false,"stretto_voices":0,"combination":[],"aug_dim":"","rhythm_ratio":1.0,"mirror":false,"chromatic_density":0.455,"complexity":0.528,"dissonance":0.164},{"voice":0,"pitch":73,"start":101.7272,"duration":0.2727,"velocity":127,"measure":47,"beat":3.5,"subject_pos":-1,"motif":"","motif_pos":-1,"best_pos":4,"similarity":0.829,"stretto":false,"stretto_voices":0,"combination":[],"aug_dim":"","rhythm_ratio":1.0,"mirror":false,"chromatic_density":0.455,"complexity":0.528,"dissonance":0.164},{"voice":1,"pitch":64,"start":101.7272,"duration":0.2727,"velocity":127,"measure":47,"beat":3.5,"subject_pos":-1,"motif":"","motif_pos":-1,"best_pos":4,"similarity":0.893,"stretto":false,"stretto_voices":0,"combination":[],"aug_dim":"","rhythm_ratio":1.0,"mirror":false,"chromatic_density":0.455,"complexity":0.528,"dissonance":0.164},{"voice":0,"pitch":74,"start":101.9999,"duration":0.2727,"velocity":127,"measure":47,"beat":4.0,"subject_pos":-1,"motif":"","motif_pos":-1,"best_pos":5,"similarity":0.764,"stretto":false,"stretto_voices":0,"combination":[],"aug_dim":"","rhythm_ratio":1.0,"mirror":false,"chromatic_density":0.455,"complexity":0.528,"dissonance":0.164},{"voice":1,"pitch":65,"start":101.9999,"duration":0.2727,"velocity":127,"measure":47,"beat":4.0,"subject_pos":-1,"motif":"","motif_pos":-1,"best_pos":5,"similarity":0.821,"stretto":false,"stretto_voices":0,"combination":[],"aug_dim":"","rhythm_ratio":1.0,"mirror":false,"chromatic_density":0.455,"complexity":0.528,"dissonance":0.164},{"voice":3,"pitch":55,"start":101.9999,"duration":0.8182,"velocity":127,"measure":47,"beat":4.0,"subject_pos":-1,"motif":"","motif_pos":-1,"best_pos":3,"similarity":0.386,"stretto":false,"stretto_voices":0,"combination":[],"aug_dim":"","rhythm_ratio":1.0,"mirror":false,"chromatic_density":0.455,"complexity":0.528,"dissonance":0.164},{"voice":0,"pitch":76,"start":102.2726,"duration":0.2727,"velocity":127,"measure":47,"beat":4.5,"subject_pos":-1,"motif":"","motif_pos":-1,"best_pos":6,"similarity":0.529,"stretto":false,"stretto_voices":0,"combination":[],"aug_dim":"","rhythm_ratio":1.0,"mirror":false,"chromatic_density":0.455,"complexity":0.528,"dissonance":0.164},{"voice":1,"pitch":67,"start":102.2726,"duration":0.2727,"velocity":127,"measure":47,"beat":4.5,"subject_pos":-1,"motif":"","motif_pos":-1,"best_pos":6,"similarity":0.643,"stretto":false,"stretto_voices":0,"combination":[],"aug_dim":"","rhythm_ratio":1.0,"mirror":false,"chromatic_density":0.455,"complexity":0.528,"dissonance":0.164},{"voice":0,"pitch":73,"start":102.5454,"duration":0.5455,"velocity":127,"measure":48,"beat":1.0,"subject_pos":-1,"motif":"","motif_pos":-1,"best_pos":4,"similarity":0.579,"stretto":false,"stretto_voices":0,"combination":[],"aug_dim":"","rhythm_ratio":1.0,"mirror":false,"chromatic_density":0.111,"complexity":0.555,"dissonance":0.093},{"voice":1,"pitch":69,"start":102.5454,"duration":0.5455,"velocity":127,"measure":48,"beat":1.0,"subject_pos":-1,"motif":"","motif_pos":-1,"best_pos":0,"similarity":0.464,"stretto":false,"stretto_voices":0,"combination":[],"aug_dim":"","rhythm_ratio":1.0,"mirror":false,"chromatic_density":0.111,"complexity":0.555,"dissonance":0.093},{"voice":2,"pitch":57,"start":102.5454,"duration":1.6364,"velocity":127,"measure":48,"beat":1.0,"subject_pos":-1,"motif":"enigmatic_cell","motif_pos":1,"best_pos":1,"similarity":1.0,"stretto":false,"stretto_voices":0,"combination":[],"aug_dim":"","rhythm_ratio":1.0,"mirror":false,"chromatic_density":0.111,"complexity":0.555,"dissonance":0.093},{"voice":3,"pitch":55,"start":102.8181,"duration":0.2727,"velocity":127,"measure":48,"beat":1.5,"subject_pos":-1,"motif":"","motif_pos":-1,"best_pos":2,"similarity":0.446,"stretto":false,"stretto_voices":0,"combination":[],"aug_dim":"","rhythm_ratio":1.0,"mirror":false,"chromatic_density":0.111,"complexity":0.555,"dissonance":0.093},{"voice":1,"pitch":74,"start":103.0908,"duration":0.8182,"velocity":127,"measure":48,"beat":2.0,"subject_pos":-1,"motif":"","motif_pos":-1,"best_pos":1,"similarity":0.714,"stretto":false,"stretto_voices":0,"combination":[],"aug_dim":"","rhythm_ratio":1.0,"mirror":false,"chromatic_density":0.111,"complexity":0.555,"dissonance":0.093},{"voice":3,"pitch":52,"start":103.0908,"duration":0.2727,"velocity":127,"measure":48,"beat":2.0,"subject_pos":-1,"motif":"","motif_pos":-1,"best_pos":3,"similarity":0.507,"stretto":false,"stretto_voices":0,"combination":[],"aug_dim":"","rhythm_ratio":1.0,"mirror":false,"chromatic_density":0.111,"complexity":0.555,"dissonance":0.093},{"voice":3,"pitch":50,"start":103.3635,"duration":0.2727,"velocity":127,"measure":48,"beat":2.5,"subject_pos":-1,"motif":"","motif_pos":-1,"best_pos":2,"similarity":0.436,"stretto":false,"stretto_voices":0,"combination":[],"aug_dim":"","rhythm_ratio":1.0,"mirror":false,"chromatic_density":0.111,"complexity":0.555,"dissonance":0.093},{"voice":3,"pitch":53,"start":103.6363,"duration":1.6364,"velocity":127,"measure":48,"beat":3.0,"subject_pos":-1,"motif":"","motif_pos":-1,"best_pos":3,"similarity":0.514,"stretto":false,"stretto_voices":0,"combination":[],"aug_dim":"","rhythm_ratio":1.0,"mirror":false,"chromatic_density":0.111,"complexity":0.555,"dissonance":0.093},{"voice":1,"pitch":72,"start":103.909,"duration":0.2727,"velocity":127,"measure":48,"beat":3.5,"subject_pos":-1,"motif":"","motif_pos":-1,"best_pos":2,"similarity":0.721,"stretto":false,"stretto_voices":0,"combination":[],"aug_dim":"","rhythm_ratio":1.0,"mirror":false,"chromatic_density":0.111,"complexity":0.555,"dissonance":0.093},{"voice":1,"pitch":70,"start":104.1817,"duration":0.2727,"velocity":127,"measure":48,"beat":4.0,"subject_pos":-1,"motif":"","motif_pos":-1,"best_pos":3,"similarity":0.664,"stretto":false,"stretto_voices":0,"combination":[],"aug_dim":"","rhythm_ratio":1.0,"mirror":false,"chromatic_density":0.111,"complexity":0.555,"dissonance":0.093},{"voice":2,"pitch":62,"start":104.1817,"duration":0.2727,"velocity":127,"measure":48,"beat":4.0,"subject_pos":-1,"motif":"enigmatic_cell","motif_pos":2,"best_pos":2,"similarity":1.0,"stretto":false,"stretto_voices":0,"combination":[],"aug_dim":"","rhythm_ratio":1.0,"mirror":false,"chromatic_density":0.111,"complexity":0.555,"dissonance":0.093},{"voice":1,"pitch":69,"start":104.4544,"duration":0.2727,"velocity":127,"measure":48,"beat":4.5,"subject_pos":-1,"motif":"","motif_pos":-1,"best_pos":4,"similarity":0.479,"stretto":false,"stretto_voices":0,"combination":[],"aug_dim":"","rhythm_ratio":1.0,"mirror":false,"chromatic_density":0.111,"complexity":0.555,"dissonance":0.093},{"voice":2,"pitch":60,"start":104.4544,"duration":0.2727,"velocity":127,"measure":48,"beat":4.5,"subject_pos":-1,"motif":"","motif_pos":-1,"best_pos":2,"similarity":0.721,"stretto":false,"stretto_voices":0,"combination":[],"aug_dim":"","rhythm_ratio":1.0,"mirror":false,"chromatic_density":0.111,"complexity":0.555,"dissonance":0.093},{"voice":1,"pitch":67,"start":104.7272,"duration":0.5455,"velocity":127,"measure":49,"beat":1.0,"subject_pos":-1,"motif":"head","motif_pos":0,"best_pos":0,"similarity":1.0,"stretto":false,"stretto_voices":0,"combination":[],"aug_dim":"","rhythm_ratio":1.0,"mirror":false,"chromatic_density":0.2,"complexity":0.612,"dissonance":0.13},{"voice":2,"pitch":58,"start":104.7272,"duration":0.2727,"velocity":127,"measure":49,"beat":1.0,"subject_pos":-1,"motif":"","motif_pos":-1,"best_pos":3,"similarity":0.664,"stretto":false,"stretto_voices":0,"combination":[],"aug_dim":"","rhythm_ratio":1.0,"mirror":false,"chromatic_density":0.2,"complexity":0.612,"dissonance":0.13},{"voice":2,"pitch":57,"start":104.9999,"duration":0.2727,"velocity":127,"measure":49,"beat":1.5,"subject_pos":-1,"motif":"","motif_pos":-1,"best_pos":4,"similarity":0.479,"stretto":false,"stretto_voices":0,"combination":[],"aug_dim":"","rhythm_ratio":1.0,"mirror":false,"chromatic_density":0.2,"complexity":0.612,"dissonance":0.13},{"voice":1,"pitch":72,"start":105.2726,"duration":0.8182,"velocity":127,"measure":49,"beat":2.0,"subject_pos":-1,"motif":"head","motif_pos":1,"best_pos":1,"similarity":1.0,"stretto":false,"stretto_voices":0,"combination":[],"aug_dim":"","rhythm_ratio":1.0,"mirror":false,"chromatic_density":0.2,"complexity":0.612,"dissonance":0.13},{"voice":2,"pitch":55,"start":105.2726,"duration":1.0909,"velocity":127,"measure":49,"beat":2.0,"subject_pos":-1,"motif":"head","motif_pos":0,"best_pos":0,"similarity":1.0,"stretto":false,"stretto_voices":0,"combination":[],"aug_dim":"","rhythm_ratio":1.0,"mirror":false,"chromatic_density":0.2,"complexity":0.612,"dissonance":0.13},{"voice":3,"pitch":52,"start":105.2726,"duration":0.2727,"velocity":127,"measure":49,"beat":2.0,"subject_pos":-1,"motif":"","motif_pos":-1,"best_pos":4,"similarity":0.536,"stretto":false,"stretto_voices":0,"combination":[],"aug_dim":"","rhythm_ratio":1.0,"mirror":false,"chromatic_density":0.2,"complexity":0.612,"dissonance":0.13},{"voice":3,"pitch":50,"start":105.5453,"duration":0.2727,"velocity":127,"measure":49,"beat":2.5,"subject_pos":-1,"motif":"","motif_pos":-1,"best_pos":5,"similarity":0.471,"stretto":false,"stretto_voices":0,"combination":[],"aug_dim":"","rhythm_ratio":1.0,"mirror":false,"chromatic_density":0.2,"complexity":0.612,"dissonance":0.13},{"voice":3,"pitch":52,"start":105.8181,"duration":1.6364,"velocity":127,"measure":49,"beat":3.0,"subject_pos":-1,"motif":"","motif_pos":-1,"best_pos":6,"similarity":0.4,"stretto":false,"stretto_voices":0,"combination":[],"aug_dim":"","rhythm_ratio":1.0,"mirror":false,"chromatic_density":0.2,"complexity":0.612,"dissonance":0.13},{"voice":1,"pitch":70,"start":106.0908,"duration":0.2727,"velocity":127,"measure":49,"beat":3.5,"subject_pos":-1,"motif":"head","motif_pos":2,"best_pos":2,"similarity":1.0,"stretto":false,"stretto_voices":0,"combination":[],"aug_dim":"","rhythm_ratio":1.0,"mirror":false,"chromatic_density":0.2,"complexity":0.612,"dissonance":0.13},{"voice":1,"pitch":69,"start":106.3635,"duration":0.2727,"velocity":127,"measure":49,"beat":4.0,"subject_pos":-1,"motif":"head","motif_pos":3,"best_pos":3,"similarity":1.0,"stretto":false,"stretto_voices":0,"combination":[],"aug_dim":"","rhythm_ratio":1.0,"mirror":false,"chromatic_density":0.2,"complexity":0.612,"dissonance":0.13},{"voice":2,"pitch":60,"start":106.3635,"duration":0.2727,"velocity":127,"measure":49,"beat":4.0,"subject_pos":-1,"motif":"head","motif_pos":1,"best_pos":1,"similarity":1.0,"stretto":false,"stretto_voices":0,"combination":[],"aug_dim":"","rhythm_ratio":1.0,"mirror":false,"chromatic_density":0.2,"complexity":0.612,"dissonance":0.13},{"voice":1,"pitch":67,"start":106.6363,"duration":0.2727,"velocity":127,"measure":49,"beat":4.5,"subject_pos":-1,"motif":"head","motif_pos":4,"best_pos":4,"similarity":1.0,"stretto":false,"stretto_voices":0,"combination":[],"aug_dim":"","rhythm_ratio":1.0,"mirror":false,"chromatic_density":0.2,"complexity":0.612,"dissonance":0.13},{"voice":2,"pitch":58,"start":106.6363,"duration":0.2727,"velocity":127,"measure":49,"beat":4.5,"subject_pos":-1,"motif":"head","motif_pos":2,"best_pos":2,"similarity":1.0,"stretto":false,"stretto_voices":0,"combination":[],"aug_dim":"","rhythm_ratio":1.0,"mirror":false,"chromatic_density":0.2,"complexity":0.612,"dissonance":0.13},{"voice":1,"pitch":65,"start":106.909,"duration":0.5455,"velocity":127,"measure":50,"beat":1.0,"subject_pos":-1,"motif":"","motif_pos":-1,"best_pos":2,"similarity":0.429,"stretto":false,"stretto_voices":0,"combination":[],"aug_dim":"","rhythm_ratio":1.0,"mirror":false,"chromatic_density":0.462,"complexity":0.626,"dissonance":0.1},{"voice":2,"pitch":57,"start":106.909,"duration":0.2727,"velocity":127,"measure":50,"beat":1.0,"subject_pos":-1,"motif":"head","motif_pos":3,"best_pos":3,"similarity":1.0,"stretto":false,"stretto_voices":0,"combination":[],"aug_dim":"","rhythm_ratio":1.0,"mirror":false,"chromatic_density":0.462,"complexity":0.626,"dissonance":0.1},{"voice":2,"pitch":55,"start":107.1817,"duration":0.2727,"velocity":127,"measure":50,"beat":1.5,"subject_pos":-1,"motif":"head","motif_pos":4,"best_pos":4,"similarity":1.0,"stretto":false,"stretto_voices":0,"combination":[],"aug_dim":"","rhythm_ratio":1.0,"mirror":false,"chromatic_density":0.462,"complexity":0.626,"dissonance":0.1},{"voice":0,"pitch":74,"start":107.4544,"duration":0.2727,"velocity":127,"measure":50,"beat":2.0,"subject_pos":-1,"motif":"","motif_pos":-1,"best_pos":5,"similarity":0.75,"stretto":false,"stretto_voices":0,"combination":[],"aug_dim":"","rhythm_ratio":1.0,"mirror":false,"chromatic_density":0.462,"complexity":0.626,"dissonance":0.1},{"voice":1,"pitch":70,"start":107.4544,"duration":1.0909,"velocity":127,"measure":50,"beat":2.0,"subject_pos":-1,"motif":"enigmatic_cell","motif_pos":0,"best_pos":0,"similarity":1.0,"stretto":false,"stretto_voices":0,"combination":[],"aug_dim":"","rhythm_ratio":1.0,"mirror":false,"chromatic_density":0.462,"complexity":0.626,"dissonance":0.1},{"voice":2,"pitch":53,"start":107.4544,"duration":0.8182,"velocity":127,"measure":50,"beat":2.0,"subject_pos":-1,"motif":"","motif_pos":-1,"best_pos":3,"similarity":0.721,"stretto":false,"stretto_voices":0,"combination":[],"aug_dim":"","rhythm_ratio":1.0,"mirror":false,"chromatic_density":0.462,"complexity":0.626,"dissonance":0.1},{"voice":3,"pitch":50,"start":107.4544,"duration":0.2727,"velocity":127,"measure":50,"beat":2.0,"subject_pos":-1,"motif":"","motif_pos":-1,"best_pos":3,"similarity":0.593,"stretto":false,"stretto_voices":0,"combination":[],"aug_dim":"","rhythm_ratio":1.0,"mirror":false,"chromatic_density":0.462,"complexity":0.626,"dissonance":0.1},{"voice":0,"pitch":76,"start":107.7272,"duration":0.2727,"velocity":127,"measure":50,"beat":2.5,"subject_pos":-1,"motif":"","motif_pos":-1,"best_pos":6,"similarity":0.732,"stretto":false,"stretto_voices":0,"combination":[],"aug_dim":"","rhythm_ratio":1.0,"mirror":false,"chromatic_density":0.462,"complexity":0.626,"dissonance":0.1},{"voice":3,"pitch":49,"start":107.7272,"duration":0.2727,"velocity":127,"measure":50,"beat":2.5,"subject_pos":-1,"motif":"","motif_pos":-1,"best_pos":4,"similarity":0.736,"stretto":false,"stretto_voices":0,"combination":[],"aug_dim":"","rhythm_ratio":1.0,"mirror":false,"chromatic_density":0.462,"complexity":0.626,"dissonance":0.1},{"voice":0,"pitch":77,"start":107.9999,"duration":0.2727,"velocity":127,"measure":50,"beat":3.0,"subject_pos":-1,"motif":"","motif_pos":-1,"best_pos":5,"similarity":0.664,"stretto":false,"stretto_voices":0,"combination":[],"aug_dim":"","rhythm_ratio":1.0,"mirror":false,"chromatic_density":0.462,"complexity":0.626,"dissonance":0.1},{"voice":3,"pitch":50,"start":107.9999,"duration":2.1818,"velocity":127,"measure":50,"beat":3.0,"subject_pos":-1,"motif":"","motif_pos":-1,"best_pos":5,"similarity":0.636,"stretto":false,"stretto_voices":0,"combination":[],"aug_dim":"","rhythm_ratio":1.0,"mirror":false,"chromatic_density":0.462,"complexity":0.626,"dissonance":0.1},{"voice":0,"pitch":79,"start":108.2726,"duration":0.2727,"velocity":127,"measure":50,"beat":3.5,"subject_pos":-1,"motif":"","motif_pos":-1,"best_pos":6,"similarity":0.579,"stretto":false,"stretto_voices":0,"combination":[],"aug_dim":"","rhythm_ratio":1.0,"mirror":false,"chromatic_density":0.462,"complexity":0.626,"dissonance":0.1},{"voice":2,"pitch":52,"start":108.2726,"duration":0.2727,"velocity":127,"measure":50,"beat":3.5,"subject_pos":-1,"motif":"","motif_pos":-1,"best_pos":4,"similarity":0.729,"stretto":false,"stretto_voices":0,"combination":[],"aug_dim":"","rhythm_ratio":1.0,"mirror":false,"chromatic_density":0.462,"complexity":0.626,"dissonance":0.1},{"voice":0,"pitch":81,"start":108.5453,"duration":0.2727,"velocity":127,"measure":50,"beat":4.0,"subject_pos":-1,"motif":"","motif_pos":-1,"best_pos":6,"similarity":0.375,"stretto":false,"stretto_voices":0,"combination":[],"aug_dim":"","rhythm_ratio":1.0,"mirror":false,"chromatic_density":0.462,"complexity":0.626,"dissonance":0.1},{"voice":1,"pitch":69,"start":108.5453,"duration":0.5455,"velocity":127,"measure":50,"beat":4.0,"subject_pos":-1,"motif":"enigmatic_cell","motif_pos":1,"best_pos":1,"similarity":1.0,"stretto":false,"stretto_voices":0,"combination":[],"aug_dim":"","rhythm_ratio":1.0,"mirror":false,"chromatic_density":0.462,"complexity":0.626,"dissonance":0.1},{"voice":2,"pitch":53,"start":108.5453,"duration":0.5455,"velocity":127,"measure":50,"beat":4.0,"subject_pos":-1,"motif":"","motif_pos":-1,"best_pos":5,"similarity":0.493,"stretto":false,"stretto_voices":0,"combination":[],"aug_dim":"","rhythm_ratio":1.0,"mirror":false,"chromatic_density":0.462,"complexity":0.626,"dissonance":0.1},{"voice":0,"pitch":77,"start":108.8181,"duration":0.2727,"velocity":127,"measure":50,"beat":4.5,"subject_pos":-1,"motif":"","motif_pos":-1,"best_pos":4,"similarity":0.393,"stretto":false,"stretto_voices":0,"combination":[],"aug_dim":"","rhythm_ratio":1.0,"mirror":false,"chromatic_density":0.462,"complexity":0.626,"dissonance":0.1},{"voice":0,"pitch":79,"start":109.0908,"duration":0.2727,"velocity":127,"measure":51,"beat":1.0,"subject_pos":-1,"motif":"","motif_pos":-1,"best_pos":5,"similarity":0.586,"stretto":false,"stretto_voices":0,"combination":[],"aug_dim":"","rhythm_ratio":1.0,"mirror":false,"chromatic_density":0.111,"complexity":0.558,"dissonance":0.235},{"voice":1,"pitch":76,"start":109.0908,"duration":0.5455,"velocity":127,"measure":51,"beat":1.0,"subject_pos":-1,"motif":"enigmatic_cell","motif_pos":2,"best_pos":2,"similarity":1.0,"stretto":false,"stretto_voices":0,"combination":[],"aug_dim":"","rhythm_ratio":1.0,"mirror":false,"chromatic_density":0.111,"complexity":0.558,"dissonance":0.235},{"voice":2,"pitch":58,"start":109.0908,"duration":0.5455,"velocity":127,"measure":51,"beat":1.0,"subject_pos":-1,"motif":"","motif_pos":-1,"best_pos":1,"similarity":0.393,"stretto":false,"stretto_voices":0,"combination":[],"aug_dim":"","rhythm_ratio":1.0,"mirror":false,"chromatic_density":0.111,"complexity":0.558,"dissonance":0.235},{"voice":0,"pitch":81,"start":109.3635,"duration":0.2727,"velocity":127,"measure":51,"beat":1.5,"subject_pos":-1,"motif":"","motif_pos":-1,"best_pos":6,"similarity":0.65,"stretto":false,"stretto_voices":0,"combination":[],"aug_dim":"","rhythm_ratio":1.0,"mirror":false,"chromatic_density":0.111,"complexity":0.558,"dissonance":0.235},{"voice":0,"pitch":82,"start":109.6363,"duration":0.2727,"velocity":127,"measure":51,"beat":2.0,"subject_pos":-1,"motif":"","motif_pos":-1,"best_pos":7,"similarity":0.464,"stretto":false,"stretto_voices":0,"combination":[],"aug_dim":"","rhythm_ratio":1.0,"mirror":false,"chromatic_density":0.111,"complexity":0.558,"dissonance":0.235},{"voice":2,"pitch":52,"start":109.6363,"duration":0.5455,"velocity":127,"measure":51,"beat":2.0,"subject_pos":-1,"motif":"","motif_pos":-1,"best_pos":0,"similarity":0.464,"stretto":false,"stretto_voices":0,"combination":[],"aug_dim":"","rhythm_ratio":1.0,"mirror":false,"chromatic_density":0.111,"complexity":0.558,"dissonance":0.235},{"voice":0,"pitch":79,"start":109.909,"duration":0.2727,"velocity":127,"measure":51,"beat":2.5,"subject_pos":-1,"motif":"","motif_pos":-1,"best_pos":2,"similarity":0.45,"stretto":false,"stretto_voices":0,"combination":[],"aug_dim":"","rhythm_ratio":1.0,"mirror":false,"chromatic_density":0.111,"complexity":0.558,"dissonance":0.235},{"voice":0,"pitch":76,"start":110.1817,"duration":0.2727,"velocity":127,"measure":51,"beat":3.0,"subject_pos":-1,"motif":"","motif_pos":-1,"best_pos":3,"similarity":0.45,"stretto":false,"stretto_voices":0,"combination":[],"aug_dim":"","rhythm_ratio":1.0,"mirror":false,"chromatic_density":0.111,"complexity":0.558,"dissonance":0.235},{"voice":2,"pitch":57,"start":110.1817,"duration":1.3636,"velocity":127,"measure":51,"beat":3.0,"subject_pos":-1,"motif":"","motif_pos":-1,"best_pos":1,"similarity":0.65,"stretto":false,"stretto_voices":0,"combination":[],"aug_dim":"","rhythm_ratio":1.0,"mirror":false,"chromatic_density":0.111,"complexity":0.558,"dissonance":0.235},{"voice":3,"pitch":49,"start":110.1817,"duration":1.0909,"velocity":127,"measure":51,"beat":3.0,"subject_pos":-1,"motif":"","motif_pos":-1,"best_pos":4,"similarity":0.657,"stretto":false,"stretto_voices":0,"combination":[],"aug_dim":"","rhythm_ratio":1.0,"mirror":false,"chromatic_density":0.111,"complexity":0.558,"dissonance":0.235},{"voice":0,"pitch":81,"start":110.4544,"duration":0.2727,"velocity":127,"measure":51,"beat":3.5,"subject_pos":-1,"motif":"","motif_pos":-1,"best_pos":1,"similarity":0.579,"stretto":false,"stretto_voices":0,"combination":[],"aug_dim":"","rhythm_ratio":1.0,"mirror":false,"chromatic_density":0.111,"complexity":0.558,"dissonance":0.235},{"voice":0,"pitch":79,"start":110.7272,"duration":0.2727,"velocity":127,"measure":51,"beat":4.0,"subject_pos":-1,"motif":"","motif_pos":-1,"best_pos":2,"similarity":0.461,"stretto":false,"stretto_voices":0,"combination":[],"aug_dim":"","rhythm_ratio":1.0,"mirror":false,"chromatic_density":0.111,"complexity":0.558,"dissonance":0.235},{"voice":0,"pitch":81,"start":110.9999,"duration":0.2727,"velocity":127,"measure":51,"beat":4.5,"subject_pos":-1,"motif":"","motif_pos":-1,"best_pos":1,"similarity":0.386,"stretto":false,"stretto_voices":0,"combination":[],"aug_dim":"","rhythm_ratio":1.0,"mirror":false,"chromatic_density":0.111,"complexity":0.558,"dissonance":0.235},{"voice":0,"pitch":77,"start":111.2726,"duration":0.2727,"velocity":127,"measure":52,"beat":1.0,"subject_pos":-1,"motif":"","motif_pos":-1,"best_pos":3,"similarity":0.457,"stretto":false,"stretto_voices":0,"combination":[],"aug_dim":"","rhythm_ratio":1.0,"mirror":false,"chromatic_density":0.154,"complexity":0.586,"dissonance":0.107},{"voice":3,"pitch":50,"start":111.2726,"duration":1.0909,"velocity":127,"measure":52,"beat":1.0,"subject_pos":0,"motif":"subject_inv","motif_pos":0,"best_pos":0,"similarity":1.0,"stretto":false,"stretto_voices":0,"combination":[],"aug_dim":"","rhythm_ratio":1.0,"mirror":false,"chromatic_density":0.154,"complexity":0.586,"dissonance":0.107},{"voice":0,"pitch":76,"start":111.5453,"duration":0.2727,"velocity":127,"measure":52,"beat":1.5,"subject_pos":-1,"motif":"","motif_pos":-1,"best_pos":4,"similarity":0.464,"stretto":false,"stretto_voices":0,"combination":[],"aug_dim":"","rhythm_ratio":1.0,"mirror":false,"chromatic_density":0.154,"complexity":0.586,"dissonance":0.107},{"voice":2,"pitch":55,"start":111.5453,"duration":0.2727,"velocity":127,"measure":52,"beat":1.5,"subject_pos":-1,"motif":"","motif_pos":-1,"best_pos":2,"similarity":0.621,"stretto":false,"stretto_voices":0,"combination":[],"aug_dim":"","rhythm_ratio":1.0,"mirror":false,"chromatic_density":0.154,"complexity":0.586,"dissonance":0.107},{"voice":0,"pitch":74,"start":111.8181,"duration":0.8182,"velocity":127,"measure":52,"beat":2.0,"subject_pos":-1,"motif":"","motif_pos":-1,"best_pos":2,"similarity":0.643,"stretto":false,"stretto_voices":0,"combination":[],"aug_dim":"","rhythm_ratio":1.0,"mirror":false,"chromatic_density":0.154,"complexity":0.586,"dissonance":0.107},{"voice":1,"pitch":62,"start":111.8181,"duration":0.5455,"velocity":127,"measure":52,"beat":2.0,"subject_pos":-1,"motif":"","motif_pos":-1,"best_pos":5,"similarity":0.161,"stretto":false,"stretto_voices":0,"combination":[],"aug_dim":"","rhythm_ratio":1.0,"mirror":false,"chromatic_density":0.154,"complexity":0.586,"dissonance":0.107},{"voice":2,"pitch":53,"start":111.8181,"duration":0.2727,"velocity":127,"measure":52,"beat":2.0,"subject_pos":-1,"motif":"","motif_pos":-1,"best_pos":4,"similarity":0.5,"stretto":false,"stretto_voices":0,"combination":[],"aug_dim":"","rhythm_ratio":1.0,"mirror":false,"chromatic_density":0.154,"complexity":0.586,"dissonance":0.107},{"voice":2,"pitch":55,"start":112.0908,"duration":0.2727,"velocity":127,"measure":52,"beat":2.5,"subject_pos":-1,"motif":"","motif_pos":-1,"best_pos":5,"similarity":0.536,"stretto":false,"stretto_voices":0,"combination":[],"aug_dim":"","rhythm_ratio":1.0,"mirror":false,"chromatic_density":0.154,"complexity":0.586,"dissonance":0.107},{"voice":1,"pitch":65,"start":112.3635,"duration":0.5455,"velocity":127,"measure":52,"beat":3.0,"subject_pos":-1,"motif":"","motif_pos":-1,"best_pos":1,"similarity":0.25,"stretto":false,"stretto_voices":0,"combination":[],"aug_dim":"","rhythm_ratio":1.0,"mirror":false,"chromatic_density":0.154,"complexity":0.586,"dissonance":0.107},{"voice":2,"pitch":57,"start":112.3635,"duration":0.5455,"velocity":127,"measure":52,"beat":3.0,"subject_pos":-1,"motif":"","motif_pos":-1,"best_pos":6,"similarity":0.393,"stretto":false,"stretto_voices":0,"combination":[],"aug_dim":"","rhythm_ratio":1.0,"mirror":false,"chromatic_density":0.154,"complexity":0.586,"dissonance":0.107},{"voice":3,"pitch":45,"start":112.3635,"duration":0.8182,"velocity":127,"measure":52,"beat":3.0,"subject_pos":1,"motif":"subject_inv","motif_pos":1,"best_pos":1,"similarity":1.0,"stretto":false,"stretto_voices":0,"combination":[],"aug_dim":"","rhythm_ratio":1.0,"mirror":false,"chromatic_density":0.154,"complexity":0.586,"dissonance":0.107},{"voice":0,"pitch":71,"start":112.6363,"duration":0.2727,"velocity":127,"measure":52,"beat":3.5,"subject_pos":-1,"motif":"","motif_pos":-1,"best_pos":3,"similarity":0.643,"stretto":false,"stretto_voices":0,"combination":[],"aug_dim":"","rhythm_ratio":1.0,"mirror":false,"chromatic_density":0.154,"complexity":0.586,"dissonance":0.107},{"voice":0,"pitch":72,"start":112.909,"duration":0.2727,"velocity":127,"measure":52,"beat":4.0,"subject_pos":-1,"motif":"","motif_pos":-1,"best_pos":5,"similarity":0.714,"stretto":false,"stretto_voices":0,"combination":[],"aug_dim":"","rhythm_ratio":1.0,"mirror":false,"chromatic_density":0.154,"complexity":0.586,"dissonance":0.107},{"voice":1,"pitch":60,"start":112.909,"duration":0.5455,"velocity":127,"measure":52,"beat":4.0,"subject_pos":-1,"motif":"","motif_pos":-1,"best_pos":2,"similarity":0.257,"stretto":false,"stretto_voices":0,"combination":[],"aug_dim":"","rhythm_ratio":1.0,"mirror":false,"chromatic_density":0.154,"complexity":0.586,"dissonance":0.107},{"voice":2,"pitch":52,"start":112.909,"duration":0.5455,"velocity":127,"measure":52,"beat":4.0,"subject_pos":-1,"motif":"","motif_pos":-1,"best_pos":0,"similarity":0.307,"stretto":false,"stretto_voices":0,"combination":[],"aug_dim":"","rhythm_ratio":1.0,"mirror":false,"chromatic_density":0.154,"complexity":0.586,"dissonance":0.107},{"voice":0,"pitch":74,"start":113.1817,"duration":0.2727,"velocity":127,"measure":52,"beat":4.5,"subject_pos":-1,"motif":"","motif_pos":-1,"best_pos":6,"similarity":0.589,"stretto":false,"stretto_voices":0,"combination":[],"aug_dim":"","rhythm_ratio":1.0,"mirror":false,"chromatic_density":0.154,"complexity":0.586,"dissonance":0.107},{"voice":3,"pitch":47,"start":113.1817,"duration":0.2727,"velocity":127,"measure":52,"beat":4.5,"subject_pos":2,"motif":"subject_inv","motif_pos":2,"best_pos":2,"similarity":1.0,"stretto":false,"stretto_voices":0,"combination":[],"aug_dim":"","rhythm_ratio":1.0,"mirror":false,"chromatic_density":0.154,"complexity":0.586,"dissonance":0.107},{"voice":0,"pitch":76,"start":113.4544,"duration":0.2727,"velocity":127,"measure":53,"beat":1.0,"subject_pos":-1,"motif":"","motif_pos":-1,"best_pos":1,"similarity":0.457,"stretto":false,"stretto_voices":0,"combination":[],"aug_dim":"","rhythm_ratio":1.0,"mirror":false,"chromatic_density":0.231,"complexity":0.609,"dissonance":0.048},{"voice":2,"pitch":57,"start":113.4544,"duration":0.8182,"velocity":127,"measure":53,"beat":1.0,"subject_pos":-1,"motif":"","motif_pos":-1,"best_pos":5,"similarity":0.471,"stretto":false,"stretto_voices":0,"combination":[],"aug_dim":"","rhythm_ratio":1.0,"mirror":false,"chromatic_density":0.231,"complexity":0.609,"dissonance":0.048},{"voice":3,"pitch":48,"start":113.4544,"duration":0.8182,"velocity":127,"measure":53,"beat":1.0,"subject_pos":3,"motif":"subject_inv","motif_pos":3,"best_pos":3,"similarity":1.0,"stretto":false,"stretto_voices":0,"combination":[],"aug_dim":"","rhythm_ratio":1.0,"mirror":false,"chromatic_density":0.231,"complexity":0.609,"dissonance":0.048},{"voice":0,"pitch":74,"start":113.7272,"duration":0.2727,"velocity":127,"measure":53,"beat":1.5,"subject_pos":-1,"motif":"","motif_pos":-1,"best_pos":2,"similarity":0.593,"stretto":false,"stretto_voices":0,"combination":[],"aug_dim":"","rhythm_ratio":1.0,"mirror":false,"chromatic_density":0.231,"complexity":0.609,"dissonance":0.048},{"voice":0,"pitch":72,"start":113.9999,"duration":0.8182,"velocity":127,"measure":53,"beat":2.0,"subject_pos":-1,"motif":"enigmatic_cell","motif_pos":0,"best_pos":0,"similarity":1.0,"stretto":false,"stretto_voices":0,"combination":[],"aug_dim":"","rhythm_ratio":1.0,"mirror":false,"chromatic_density":0.231,"complexity":0.609,"dissonance":0.048},{"voice":1,"pitch":69,"start":113.9999,"duration":0.5455,"velocity":127,"measure":53,"beat":2.0,"subject_pos":-1,"motif":"","motif_pos":-1,"best_pos":1,"similarity":0.357,"stretto":false,"stretto_voices":0,"combination":[],"aug_dim":"","rhythm_ratio":1.0,"mirror":false,"chromatic_density":0.231,"complexity":0.609,"dissonance":0.048},{"voice":2,"pitch":59,"start":114.2726,"duration":0.2727,"velocity":127,"measure":53,"beat":2.5,"subject_pos":-1,"motif":"","motif_pos":-1,"best_pos":6,"similarity":0.593,"stretto":false,"stretto_voices":0,"combination":[],"aug_dim":"","rhythm_ratio":1.0,"mirror":false,"chromatic_density":0.231,"complexity":0.609,"dissonance":0.048},{"voice":3,"pitch":50,"start":114.2726,"duration":0.2727,"velocity":127,"measure":53,"beat":2.5,"subject_pos":4,"motif":"subject_inv","motif_pos":4,"best_pos":4,"similarity":1.0,"stretto":false,"stretto_voices":0,"combination":[],"aug_dim":"","rhythm_ratio":1.0,"mirror":false,"chromatic_density":0.231,"complexity":0.609,"dissonance":0.048},{"voice":1,"pitch":67,"start":114.5453,"duration":0.5455,"velocity":127,"measure":53,"beat":3.0,"subject_pos":-1,"motif":"","motif_pos":-1,"best_pos":2,"similarity":0.357,"stretto":false,"stretto_voices":0,"combination":[],"aug_dim":"","rhythm_ratio":1.0,"mirror":false,"chromatic_density":0.231,"complexity":0.609,"dissonance":0.048},{"voice":2,"pitch":60,"start":114.5453,"duration":0.2727,"velocity":127,"measure":53,"beat":3.0,"subject_pos":-1,"motif":"","motif_pos":-1,"best_pos":5,"similarity":0.6,"stretto":false,"stretto_voices":0,"combination":[],"aug_dim":"","rhythm_ratio":1.0,"mirror":false,"chromatic_density":0.231,"complexity":0.609,"dissonance":0.048},{"voice":3,"pitch":52,"start":114.5453,"duration":1.0909,"velocity":127,"measure":53,"beat":3.0,"subject_pos":5,"motif":"subject_inv","motif_pos":5,"best_pos":5,"similarity":1.0,"stretto":false,"stretto_voices":0,"combination":[],"aug_dim":"","rhythm_ratio":1.0,"mirror":false,"chromatic_density":0.231,"complexity":0.609,"dissonance":0.048},{"voice":0,"pitch":71,"start":114.8181,"duration":0.2727,"velocity":127,"measure":53,"beat":3.5,"subject_pos":-1,"motif":"enigmatic_cell","motif_pos":1,"best_pos":1,"similarity":1.0,"stretto":false,"stretto_voices":0,"combination":[],"aug_dim":"","rhythm_ratio":1.0,"mirror":false,"chromatic_density":0.231,"complexity":0.609,"dissonance":0.048},{"voice":2,"pitch":62,"start":114.8181,"duration":0.2727,"velocity":127,"measure":53,"beat":3.5,"subject_pos":-1,"motif":"","motif_pos":-1,"best_pos":6,"similarity":0.464,"stretto":false,"stretto_voices":0,"combination":[],"aug_dim":"","rhythm_ratio":1.0,"mirror":false,"chromatic_density":0.231,"complexity":0.609,"dissonance":0.048},{"voice":0,"pitch":76,"start":115.0908,"duration":1.0909,"velocity":127,"measure":53,"beat":4.0,"subject_pos":-1,"motif":"enigmatic_cell","motif_pos":2,"best_pos":2,"similarity":1.0,"stretto":false,"stretto_voices":0,"combination":[],"aug_dim":"","rhythm_ratio":1.0,"mirror":false,"chromatic_density":0.231,"complexity":0.609,"dissonance":0.048},{"voice":1,"pitch":72,"start":115.0908,"duration":0.5455,"velocity":127,"measure":53,"beat":4.0,"subject_pos":-1,"motif":"","motif_pos":-1,"best_pos":1,"similarity":0.321,"stretto":false,"stretto_voices":0,"combination":[],"aug_dim":"","rhythm_ratio":1.0,"mirror":false,"chromatic_density":0.231,"complexity":0.609,"dissonance":0.048},{"voice":2,"pitch":60,"start":115.0908,"duration":0.2727,"velocity":127,"measure":53,"beat":4.0,"subject_pos":-1,"motif":"","motif_pos":-1,"best_pos":3,"similarity":0.471,"stretto":false,"stretto_voices":0,"combination":[],"aug_dim":"","rhythm_ratio":1.0,"mirror":false,"chromatic_density":0.231,"complexity":0.609,"dissonance":0.048},{"voice":2,"pitch":59,"start":115.3635,"duration":0.2727,"velocity":127,"measure":53,"beat":4.5,"subject_pos":-1,"motif":"","motif_pos":-1,"best_pos":2,"similarity":0.5,"stretto":false,"stretto_voices":0,"combination":[],"aug_dim":"","rhythm_ratio":1.0,"mirror":false,"chromatic_density":0.231,"complexity":0.609,"dissonance":0.048},{"voice":1,"pitch":65,"start":115.6362,"duration":0.2727,"velocity":127,"measure":54,"beat":1.0,"subject_pos":-1,"motif":"","motif_pos":-1,"best_pos":4,"similarity":0.393,"stretto":false,"stretto_voices":0,"combination":[],"aug_dim":"","rhythm_ratio":1.0,"mirror":false,"chromatic_density":0.364,"complexity":0.578,"dissonance":0.102},{"voice":2,"pitch":57,"start":115.6362,"duration":1.6364,"velocity":127,"measure":54,"beat":1.0,"subject_pos":-1,"motif":"","motif_pos":-1,"best_pos":3,"similarity":0.643,"stretto":false,"stretto_voices":0,"combination":[],"aug_dim":"","rhythm_ratio":1.0,"mirror":false,"chromatic_density":0.364,"complexity":0.578,"dissonance":0.102},{"voice":3,"pitch":53,"start":115.6362,"duration":1.0909,"velocity":127,"measure":54,"beat":1.0,"subject_pos":6,"motif":"subject_inv","motif_pos":6,"best_pos":6,"similarity":1.0,"stretto":false,"stretto_voices":0,"combination":[],"aug_dim":"","rhythm_ratio":1.0,"mirror":false,"chromatic_density":0.364,"complexity":0.578,"dissonance":0.102},{"voice":1,"pitch":67,"start":115.909,"duration":0.2727,"velocity":127,"measure":54,"beat":1.5,"subject_pos":-1,"motif":"","motif_pos":-1,"best_pos":5,"similarity":0.5,"stretto":false,"stretto_voices":0,"combination":[],"aug_dim":"","rhythm_ratio":1.0,"mirror":false,"chromatic_density":0.364,"complexity":0.578,"dissonance":0.102},{"voice":0,"pitch":74,"start":116.1817,"duration":0.5455,"velocity":127,"measure":54,"beat":2.0,"subject_pos":-1,"motif":"","motif_pos":-1,"best_pos":2,"similarity":0.721,"stretto":false,"stretto_voices":0,"combination":[],"aug_dim":"","rhythm_ratio":1.0,"mirror":false,"chromatic_density":0.364,"complexity":0.578,"dissonance":0.102},{"voice":1,"pitch":69,"start":116.1817,"duration":0.2727,"velocity":127,"measure":54,"beat":2.0,"subject_pos":-1,"motif":"","motif_pos":-1,"best_pos":5,"similarity":0.593,"stretto":false,"stretto_voices":0,"combination":[],"aug_dim":"","rhythm_ratio":1.0,"mirror":false,"chromatic_density":0.364,"complexity":0.578,"dissonance":0.102},{"voice":1,"pitch":71,"start":116.4544,"duration":0.2727,"velocity":127,"measure":54,"beat":2.5,"subject_pos":-1,"motif":"","motif_pos":-1,"best_pos":6,"similarity":0.65,"stretto":false,"stretto_voices":0,"combination":[],"aug_dim":"","rhythm_ratio":1.0,"mirror":false,"chromatic_density":0.364,"complexity":0.578,"dissonance":0.102},{"voice":0,"pitch":72,"start":116.7272,"duration":0.5455,"velocity":127,"measure":54,"beat":3.0,"subject_pos":-1,"motif":"","motif_pos":-1,"best_pos":3,"similarity":0.675,"stretto":false,"stretto_voices":0,"combination":[],"aug_dim":"","rhythm_ratio":1.0,"mirror":false,"chromatic_density":0.364,"complexity":0.578,"dissonance":0.102},{"voice":1,"pitch":72,"start":116.7272,"duration":0.2727,"velocity":127,"measure":54,"beat":3.0,"subject_pos":-1,"motif":"","motif_pos":-1,"best_pos":5,"similarity":0.657,"stretto":false,"stretto_voices":0,"combination":[],"aug_dim":"","rhythm_ratio":1.0,"mirror":false,"chromatic_density":0.364,"complexity":0.578,"dissonance":0.102},{"voice":3,"pitch":52,"start":116.7272,"duration":0.8182,"velocity":127,"measure":54,"beat":3.0,"subject_pos":7,"motif":"subject_inv","motif_pos":7,"best_pos":7,"similarity":1.0,"stretto":false,"stretto_voices":0,"combination":[],"aug_dim":"","rhythm_ratio":1.0,"mirror":false,"chromatic_density":0.364,"complexity":0.578,"dissonance":0.102},{"voice":1,"pitch":74,"start":116.9999,"duration":0.2727,"velocity":127,"measure":54,"beat":3.5,"subject_pos":-1,"motif":"","motif_pos":-1,"best_pos":6,"similarity":0.579,"stretto":false,"stretto_voices":0,"combination":[],"aug_dim":"","rhythm_ratio":1.0,"mirror":false,"chromatic_density":0.364,"complexity":0.578,"dissonance":0.102},{"voice":0,"pitch":71,"start":117.2726,"duration":0.5455,"velocity":127,"measure":54,"beat":4.0,"subject_pos":-1,"motif":"","motif_pos":-1,"best_pos":4,"similarity":0.529,"stretto":false,"stretto_voices":0,"combination":[],"aug_dim":"","rhythm_ratio":1.0,"mirror":false,"chromatic_density":0.364,"complexity":0.578,"dissonance":0.102},{"voice":1,"pitch":76,"start":117.2726,"duration":0.8182,"velocity":127,"measure":54,"beat":4.0,"subject_pos":-1,"motif":"","motif_pos":-1,"best_pos":1,"similarity":0.457,"stretto":false,"stretto_voices":0,"combination":[],"aug_dim":"","rhythm_ratio":1.0,"mirror":false,"chromatic_density":0.364,"complexity":0.578,"dissonance":0.102},{"voice":2,"pitch":56,"start":117.2726,"duration":0.5455,"velocity":127,"measure":54,"beat":4.0,"subject_pos":-1,"motif":"enigmatic_cell","motif_pos":0,"best_pos":0,"similarity":1.0,"stretto":false,"stretto_voices":0,"combination":[],"aug_dim":"","rhythm_ratio":1.0,"mirror":false,"chromatic_density":0.364,"complexity":0.578,"dissonance":0.102},{"voice":3,"pitch":50,"start":117.5453,"duration":0.2727,"velocity":127,"measure":54,"beat":4.5,"subject_pos":8,"motif":"subject_inv","motif_pos":8,"best_pos":0,"similarity":1.0,"stretto":false,"stretto_voices":0,"combination":[],"aug_dim":"","rhythm_ratio":1.0,"mirror":false,"chromatic_density":0.364,"complexity":0.578,"dissonance":0.102},{"voice":0,"pitch":69,"start":117.8181,"duration":1.0909,"velocity":127,"measure":55,"beat":1.0,"subject_pos":-1,"motif":"","motif_pos":-1,"best_pos":4,"similarity":0.571,"stretto":false,"stretto_voices":0,"combination":[],"aug_dim":"","rhythm_ratio":1.0,"mirror":false,"chromatic_density":0.3,"complexity":0.559,"dissonance":0.091},{"voice":2,"pitch":57,"start":117.8181,"duration":0.5455,"velocity":127,"measure":55,"beat":1.0,"subject_pos":-1,"motif":"enigmatic_cell","motif_pos":1,"best_pos":1,"similarity":1.0,"stretto":false,"stretto_voices":0,"combination":[],"aug_dim":"","rhythm_ratio":1.0,"mirror":false,"chromatic_density":0.3,"complexity":0.559,"dissonance":0.091},{"voice":3,"pitch":48,"start":117.8181,"duration":1.3636,"velocity":127,"measure":55,"beat":1.0,"subject_pos":-1,"motif":"","motif_pos":-1,"best_pos":3,"similarity":0.786,"stretto":false,"stretto_voices":0,"combination":[],"aug_dim":"","rhythm_ratio":1.0,"mirror":false,"chromatic_density":0.3,"complexity":0.559,"dissonance":0.091},{"voice":1,"pitch":74,"start":118.0908,"duration":0.2727,"velocity":127,"measure":55,"beat":1.5,"subject_pos":-1,"motif":"","motif_pos":-1,"best_pos":2,"similarity":0.593,"stretto":false,"stretto_voices":0,"combination":[],"aug_dim":"","rhythm_ratio":1.0,"mirror":false,"chromatic_density":0.3,"complexity":0.559,"dissonance":0.091},{"voice":1,"pitch":72,"start":118.3635,"duration":0.2727,"velocity":127,"measure":55,"beat":2.0,"subject_pos":-1,"motif":"","motif_pos":-1,"best_pos":3,"similarity":0.593,"stretto":false,"stretto_voices":0,"combination":[],"aug_dim":"","rhythm_ratio":1.0,"mirror":false,"chromatic_density":0.3,"complexity":0.559,"dissonance":0.091},{"voice":2,"pitch":52,"start":118.3635,"duration":0.5455,"velocity":127,"measure":55,"beat":2.0,"subject_pos":-1,"motif":"enigmatic_cell","motif_pos":2,"best_pos":2,"similarity":1.0,"stretto":false,"stretto_voices":0,"combination":[],"aug_dim":"","rhythm_ratio":1.0,"mirror":false,"chromatic_density":0.3,"complexity":0.559,"dissonance":0.091},{"voice":1,"pitch":71,"start":118.6362,"duration":0.2727,"velocity":127,"measure":55,"beat":2.5,"subject_pos":-1,"motif":"","motif_pos":-1,"best_pos":4,"similarity":0.493,"stretto":false,"stretto_voices":0,"combination":[],"aug_dim":"","rhythm_ratio":1.0,"mirror":false,"chromatic_density":0.3,"complexity":0.559,"dissonance":0.091},{"voice":1,"pitch":69,"start":118.909,"duration":1.3636,"velocity":127,"measure":55,"beat":3.0,"subject_pos":-1,"motif":"","motif_pos":-1,"best_pos":2,"similarity":0.586,"stretto":false,"stretto_voices":0,"combination":[],"aug_dim":"","rhythm_ratio":1.0,"mirror":false,"chromatic_density":0.3,"complexity":0.559,"dissonance":0.091},{"voice":2,"pitch":64,"start":118.909,"duration":0.5455,"velocity":127,"measure":55,"beat":3.0,"subject_pos":-1,"motif":"","motif_pos":-1,"best_pos":1,"similarity":0.429,"stretto":false,"stretto_voices":0,"combination":[],"aug_dim":"","rhythm_ratio":1.0,"mirror":false,"chromatic_density":0.3,"complexity":0.559,"dissonance":0.091},{"voice":3,"pitch":47,"start":119.1817,"duration":0.2727,"velocity":127,"measure":55,"beat":3.5,"subject_pos":-1,"motif":"","motif_pos":-1,"best_pos":4,"similarity":0.893,"stretto":false,"stretto_voices":0,"combination":[],"aug_dim":"","rhythm_ratio":1.0,"mirror":false,"chromatic_density":0.3,"complexity":0.559,"dissonance":0.091},{"voice":2,"pitch":62,"start":119.4544,"duration":0.2727,"velocity":127,"measure":55,"beat":4.0,"subject_pos":-1,"motif":"","motif_pos":-1,"best_pos":2,"similarity":0.571,"stretto":false,"stretto_voices":0,"combination":[],"aug_dim":"","rhythm_ratio":1.0,"mirror":false,"chromatic_density":0.3,"complexity":0.559,"dissonance":0.091},{"voice":3,"pitch":48,"start":119.4544,"duration":0.2727,"velocity":127,"measure":55,"beat":4.0,"subject_pos":-1,"motif":"","motif_pos":-1,"best_pos":5,"similarity":0.821,"stretto":false,"stretto_voices":0,"combination":[],"aug_dim":"","rhythm_ratio":1.0,"mirror":false,"chromatic_density":0.3,"complexity":0.559,"dissonance":0.091},{"voice":2,"pitch":60,"start":119.7272,"duration":0.2727,"velocity":127,"measure":55,"beat":4.5,"subject_pos":-1,"motif":"","motif_pos":-1,"best_pos":3,"similarity":0.643,"stretto":false,"stretto_voices":0,"combination":[],"aug_dim":"","rhythm_ratio":1.0,"mirror":false,"chromatic_density":0.3,"complexity":0.559,"dissonance":0.091},{"voice":3,"pitch":50,"start":119.7272,"duration":0.2727,"velocity":127,"measure":55,"beat":4.5,"subject_pos":-1,"motif":"","motif_pos":-1,"best_pos":6,"similarity":0.643,"stretto":false,"stretto_voices":0,"combination":[],"aug_dim":"","rhythm_ratio":1.0,"mirror":false,"chromatic_density":0.3,"complexity":0.559,"dissonance":0.091},{"voice":2,"pitch":59,"start":119.9999,"duration":0.5455,"velocity":127,"measure":56,"beat":1.0,"subject_pos":-1,"motif":"head_inv","motif_pos":0,"best_pos":0,"similarity":1.0,"stretto":false,"stretto_voices":0,"combination":[],"aug_dim":"","rhythm_ratio":1.0,"mirror":false,"chromatic_density":0.444,"complexity":0.501,"dissonance":0.083},{"voice":3,"pitch":52,"start":119.9999,"duration":0.2727,"velocity":127,"measure":56,"beat":1.0,"subject_pos":-1,"motif":"","motif_pos":-1,"best_pos":3,"similarity":0.468,"stretto":false,"stretto_voices":0,"combination":[],"aug_dim":"","rhythm_ratio":1.0,"mirror":false,"chromatic_density":0.444,"complexity":0.501,"dissonance":0.083},{"voice":1,"pitch":66,"start":120.2726,"duration":0.2727,"velocity":127,"measure":56,"beat":1.5,"subject_pos":-1,"motif":"","motif_pos":-1,"best_pos":3,"similarity":0.529,"stretto":false,"stretto_voices":0,"combination":[],"aug_dim":"","rhythm_ratio":1.0,"mirror":false,"chromatic_density":0.444,"complexity":0.501,"dissonance":0.083},{"voice":3,"pitch":51,"start":120.2726,"duration":0.2727,"velocity":127,"measure":56,"beat":1.5,"subject_pos":-1,"motif":"","motif_pos":-1,"best_pos":4,"similarity":0.65,"stretto":false,"stretto_voices":0,"combination":[],"aug_dim":"","rhythm_ratio":1.0,"mirror":false,"chromatic_density":0.444,"complexity":0.501,"dissonance":0.083},{"voice":1,"pitch":68,"start":120.5453,"duration":0.5455,"velocity":127,"measure":56,"beat":2.0,"subject_pos":-1,"motif":"","motif_pos":-1,"best_pos":4,"similarity":0.457,"stretto":false,"stretto_voices":0,"combination":[],"aug_dim":"","rhythm_ratio":1.0,"mirror":false,"chromatic_density":0.444,"complexity":0.501,"dissonance":0.083},{"voice":2,"pitch":52,"start":120.5453,"duration":0.2727,"velocity":127,"measure":56,"beat":2.0,"subject_pos":-1,"motif":"head_inv","motif_pos":1,"best_pos":1,"similarity":1.0,"stretto":false,"stretto_voices":0,"combination":[],"aug_dim":"","rhythm_ratio":1.0,"mirror":false,"chromatic_density":0.444,"complexity":0.501,"dissonance":0.083},{"voice":3,"pitch":52,"start":120.5453,"duration":0.5455,"velocity":127,"measure":56,"beat":2.0,"subject_pos":-1,"motif":"","motif_pos":-1,"best_pos":5,"similarity":0.571,"stretto":false,"stretto_voices":0,"combination":[],"aug_dim":"","rhythm_ratio":1.0,"mirror":false,"chromatic_density":0.444,"complexity":0.501,"dissonance":0.083},{"voice":2,"pitch":54,"start":120.8181,"duration":0.2727,"velocity":127,"measure":56,"beat":2.5,"subject_pos":-1,"motif":"head_inv","motif_pos":2,"best_pos":2,"similarity":1.0,"stretto":false,"stretto_voices":0,"combination":[],"aug_dim":"","rhythm_ratio":1.0,"mirror":false,"chromatic_density":0.444,"complexity":0.501,"dissonance":0.083},{"voice":2,"pitch":56,"start":121.0908,"duration":0.2727,"velocity":127,"measure":56,"beat":3.0,"subject_pos":-1,"motif":"head_inv","motif_pos":3,"best_pos":3,"similarity":1.0,"stretto":false,"stretto_voices":0,"combination":[],"aug_dim":"","rhythm_ratio":1.0,"mirror":false,"chromatic_density":0.444,"complexity":0.501,"dissonance":0.083},{"voice":2,"pitch":57,"start":121.3635,"duration":0.2727,"velocity":127,"measure":56,"beat":3.5,"subject_pos":-1,"motif":"head_inv","motif_pos":4,"best_pos":4,"similarity":1.0,"stretto":false,"stretto_voices":0,"combination":[],"aug_dim":"","rhythm_ratio":1.0,"mirror":false,"chromatic_density":0.444,"complexity":0.501,"dissonance":0.083},{"voice":2,"pitch":59,"start":121.6362,"duration":0.2727,"velocity":127,"measure":56,"beat":4.0,"subject_pos":-1,"motif":"","motif_pos":-1,"best_pos":6,"similarity":0.721,"stretto":false,"stretto_voices":0,"combination":[],"aug_dim":"","rhythm_ratio":1.0,"mirror":false,"chromatic_density":0.444,"complexity":0.501,"dissonance":0.083},{"voice":3,"pitch":52,"start":121.6362,"duration":0.5455,"velocity":127,"measure":56,"beat":4.0,"subject_pos":-1,"motif":"","motif_pos":-1,"best_pos":5,"similarity":0.554,"stretto":false,"stretto_voices":0,"combination":[],"aug_dim":"","rhythm_ratio":1.0,"mirror":false,"chromatic_density":0.444,"complexity":0.501,"dissonance":0.083},{"voice":2,"pitch":60,"start":121.909,"duration":0.2727,"velocity":127,"measure":56,"beat":4.5,"subject_pos":-1,"motif":"","motif_pos":-1,"best_pos":5,"similarity":0.664,"stretto":false,"stretto_voices":0,"combination":[],"aug_dim":"","rhythm_ratio":1.0,"mirror":false,"chromatic_density":0.444,"complexity":0.501,"dissonance":0.083},{"voice":2,"pitch":62,"start":122.1817,"duration":0.2727,"velocity":127,"measure":57,"beat":1.0,"subject_pos":-1,"motif":"","motif_pos":-1,"best_pos":5,"similarity":0.607,"stretto":false,"stretto_voices":0,"combination":[],"aug_dim":"","rhythm_ratio":1.0,"mirror":false,"chromatic_density":0.273,"complexity":0.342,"dissonance":0.225},{"voice":3,"pitch":54,"start":122.1817,"duration":0.2727,"velocity":127,"measure":57,"beat":1.0,"subject_pos":-1,"motif":"","motif_pos":-1,"best_pos":5,"similarity":0.65,"stretto":false,"stretto_voices":0,"combination":[],"aug_dim":"","rhythm_ratio":1.0,"mirror":false,"chromatic_density":0.273,"complexity":0.342,"dissonance":0.225},{"voice":2,"pitch":64,"start":122.4544,"duration":0.2727,"velocity":127,"measure":57,"beat":1.5,"subject_pos":-1,"motif":"","motif_pos":-1,"best_pos":6,"similarity":0.661,"stretto":false,"stretto_voices":0,"combination":[],"aug_dim":"","rhythm_ratio":1.0,"mirror":false,"chromatic_density":0.273,"complexity":0.342,"dissonance":0.225},{"voice":3,"pitch":56,"start":122.4544,"duration":0.2727,"velocity":127,"measure":57,"beat":1.5,"subject_pos":-1,"motif":"","motif_pos":-1,"best_pos":6,"similarity":0.679,"stretto":false,"stretto_voices":0,"combination":[],"aug_dim":"","rhythm_ratio":1.0,"mirror":false,"chromatic_density":0.273,"complexity":0.342,"dissonance":0.225},{"voice":2,"pitch":65,"start":122.7271,"duration":0.2727,"velocity":127,"measure":57,"beat":2.0,"subject_pos":-1,"motif":"","motif_pos":-1,"best_pos":7,"similarity":0.464,"stretto":false,"stretto_voices":0,"combination":[],"aug_dim":"","rhythm_ratio":1.0,"mirror":false,"chromatic_density":0.273,"complexity":0.342,"dissonance":0.225},{"voice":3,"pitch":57,"start":122.7271,"duration":1.0909,"velocity":127,"measure":57,"beat":2.0,"subject_pos":-1,"motif":"","motif_pos":-1,"best_pos":7,"similarity":0.464,"stretto":false,"stretto_voices":0,"combination":[],"aug_dim":"","rhythm_ratio":1.0,"mirror":false,"chromatic_density":0.273,"complexity":0.342,"dissonance":0.225},{"voice":2,"pitch":62,"start":122.9999,"duration":0.2727,"velocity":127,"measure":57,"beat":2.5,"subject_pos":-1,"motif":"","motif_pos":-1,"best_pos":2,"similarity":0.45,"stretto":false,"stretto_voices":0,"combination":[],"aug_dim":"","rhythm_ratio":1.0,"mirror":false,"chromatic_density":0.273,"complexity":0.342,"dissonance":0.225},{"voice":2,"pitch":59,"start":123.2726,"duration":0.2727,"velocity":127,"measure":57,"beat":3.0,"subject_pos":-1,"motif":"","motif_pos":-1,"best_pos":3,"similarity":0.45,"stretto":false,"stretto_voices":0,"combination":[],"aug_dim":"","rhythm_ratio":1.0,"mirror":false,"chromatic_density":0.273,"complexity":0.342,"dissonance":0.225},{"voice":2,"pitch":64,"start":123.5453,"duration":0.2727,"velocity":127,"measure":57,"beat":3.5,"subject_pos":-1,"motif":"","motif_pos":-1,"best_pos":1,"similarity":0.589,"stretto":false,"stretto_voices":0,"combination":[],"aug_dim":"","rhythm_ratio":1.0,"mirror":false,"chromatic_density":0.273,"complexity":0.342,"dissonance":0.225},{"voice":2,"pitch":62,"start":123.8181,"duration":0.2727,"velocity":127,"measure":57,"beat":4.0,"subject_pos":-1,"motif":"","motif_pos":-1,"best_pos":2,"similarity":0.464,"stretto":false,"stretto_voices":0,"combination":[],"aug_dim":"","rhythm_ratio":1.0,"mirror":false,"chromatic_density":0.273,"complexity":0.342,"dissonance":0.225},{"voice":3,"pitch":56,"start":123.8181,"duration":0.2727,"velocity":127,"measure":57,"beat":4.0,"subject_pos":-1,"motif":"","motif_pos":-1,"best_pos":4,"similarity":0.414,"stretto":false,"stretto_voices":0,"combination":[],"aug_dim":"","rhythm_ratio":1.0,"mirror":false,"chromatic_density":0.273,"complexity":0.342,"dissonance":0.225},{"voice":2,"pitch":64,"start":124.0908,"duration":0.2727,"velocity":127,"measure":57,"beat":4.5,"subject_pos":-1,"motif":"","motif_pos":-1,"best_pos":2,"similarity":0.336,"stretto":false,"stretto_voices":0,"combination":[],"aug_dim":"","rhythm_ratio":1.0,"mirror":false,"chromatic_density":0.273,"complexity":0.342,"dissonance":0.225},{"voice":3,"pitch":54,"start":124.0908,"duration":0.2727,"velocity":127,"measure":57,"beat":4.5,"subject_pos":-1,"motif":"","motif_pos":-1,"best_pos":4,"similarity":0.504,"stretto":false,"stretto_voices":0,"combination":[],"aug_dim":"","rhythm_ratio":1.0,"mirror":false,"chromatic_density":0.273,"complexity":0.342,"dissonance":0.225},{"voice":2,"pitch":61,"start":124.3635,"duration":0.2727,"velocity":127,"measure":58,"beat":1.0,"subject_pos":-1,"motif":"","motif_pos":-1,"best_pos":3,"similarity":0.343,"stretto":false,"stretto_voices":0,"combination":[],"aug_dim":"","rhythm_ratio":1.0,"mirror":false,"chromatic_density":0.25,"complexity":0.46,"dissonance":0.195},{"voice":3,"pitch":55,"start":124.3635,"duration":0.5455,"velocity":127,"measure":58,"beat":1.0,"subject_pos":-1,"motif":"","motif_pos":-1,"best_pos":5,"similarity":0.439,"stretto":false,"stretto_voices":0,"combination":[],"aug_dim":"","rhythm_ratio":1.0,"mirror":false,"chromatic_density":0.25,"complexity":0.46,"dissonance":0.195},{"voice":2,"pitch":57,"start":124.6362,"duration":0.2727,"velocity":127,"measure":58,"beat":1.5,"subject_pos":-1,"motif":"","motif_pos":-1,"best_pos":2,"similarity":0.304,"stretto":false,"stretto_voices":0,"combination":[],"aug_dim":"","rhythm_ratio":1.0,"mirror":false,"chromatic_density":0.25,"complexity":0.46,"dissonance":0.195},{"voice":0,"pitch":69,"start":124.909,"duration":0.2727,"velocity":127,"measure":58,"beat":2.0,"subject_pos":-1,"motif":"","motif_pos":-1,"best_pos":4,"similarity":0.607,"stretto":false,"stretto_voices":0,"combination":[],"aug_dim":"","rhythm_ratio":1.0,"mirror":false,"chromatic_density":0.25,"complexity":0.46,"dissonance":0.195},{"voice":2,"pitch":62,"start":124.909,"duration":0.5455,"velocity":127,"measure":58,"beat":2.0,"subject_pos":-1,"motif":"","motif_pos":-1,"best_pos":1,"similarity":0.314,"stretto":false,"stretto_voices":0,"combination":[],"aug_dim":"","rhythm_ratio":1.0,"mirror":false,"chromatic_density":0.25,"complexity":0.46,"dissonance":0.195},{"voice":3,"pitch":53,"start":124.909,"duration":0.5455,"velocity":127,"measure":58,"beat":2.0,"subject_pos":-1,"motif":"","motif_pos":-1,"best_pos":3,"similarity":0.464,"stretto":false,"stretto_voices":0,"combination":[],"aug_dim":"","rhythm_ratio":1.0,"mirror":false,"chromatic_density":0.25,"complexity":0.46,"dissonance":0.195},{"voice":0,"pitch":71,"start":125.1817,"duration":0.2727,"velocity":127,"measure":58,"beat":2.5,"subject_pos":-1,"motif":"","motif_pos":-1,"best_pos":5,"similarity":0.679,"stretto":false,"stretto_voices":0,"combination":[],"aug_dim":"","rhythm_ratio":1.0,"mirror":false,"chromatic_density":0.25,"complexity":0.46,"dissonance":0.195},{"voice":0,"pitch":73,"start":125.4544,"duration":0.2727,"velocity":127,"measure":58,"beat":3.0,"subject_pos":-1,"motif":"","motif_pos":-1,"best_pos":6,"similarity":0.679,"stretto":false,"stretto_voices":0,"combination":[],"aug_dim":"","rhythm_ratio":1.0,"mirror":false,"chromatic_density":0.25,"complexity":0.46,"dissonance":0.195},{"voice":2,"pitch":55,"start":125.4544,"duration":0.5455,"velocity":127,"measure":58,"beat":3.0,"subject_pos":-1,"motif":"","motif_pos":-1,"best_pos":2,"similarity":0.179,"stretto":false,"stretto_voices":0,"combination":[],"aug_dim":"","rhythm_ratio":1.0,"mirror":false,"chromatic_density":0.25,"complexity":0.46,"dissonance":0.195},{"voice":3,"pitch":52,"start":125.4544,"duration":0.5455,"velocity":127,"measure":58,"beat":3.0,"subject_pos":-1,"motif":"","motif_pos":-1,"best_pos":2,"similarity":0.5,"stretto":false,"stretto_voices":0,"combination":[],"aug_dim":"","rhythm_ratio":1.0,"mirror":false,"chromatic_density":0.25,"complexity":0.46,"dissonance":0.195},{"voice":0,"pitch":74,"start":125.7271,"duration":0.2727,"velocity":127,"measure":58,"beat":3.5,"subject_pos":-1,"motif":"","motif_pos":-1,"best_pos":5,"similarity":0.729,"stretto":false,"stretto_voices":0,"combination":[],"aug_dim":"","rhythm_ratio":1.0,"mirror":false,"chromatic_density":0.25,"complexity":0.46,"dissonance":0.195},{"voice":0,"pitch":76,"start":125.9999,"duration":0.2727,"velocity":127,"measure":58,"beat":4.0,"subject_pos":-1,"motif":"","motif_pos":-1,"best_pos":6,"similarity":0.721,"stretto":false,"stretto_voices":0,"combination":[],"aug_dim":"","rhythm_ratio":1.0,"mirror":false,"chromatic_density":0.25,"complexity":0.46,"dissonance":0.195},{"voice":2,"pitch":58,"start":125.9999,"duration":0.5455,"velocity":127,"measure":58,"beat":4.0,"subject_pos":-1,"motif":"","motif_pos":-1,"best_pos":1,"similarity":0.286,"stretto":false,"stretto_voices":0,"combination":[],"aug_dim":"","rhythm_ratio":1.0,"mirror":false,"chromatic_density":0.25,"complexity":0.46,"dissonance":0.195},{"voice":3,"pitch":50,"start":125.9999,"duration":0.5455,"velocity":127,"measure":58,"beat":4.0,"subject_pos":-1,"motif":"","motif_pos":-1,"best_pos":3,"similarity":0.643,"stretto":false,"stretto_voices":0,"combination":[],"aug_dim":"","rhythm_ratio":1.0,"mirror":false,"chromatic_density":0.25,"complexity":0.46,"dissonance":0.195},{"voice":0,"pitch":77,"start":126.2726,"duration":0.2727,"velocity":127,"measure":58,"beat":4.5,"subject_pos":-1,"motif":"","motif_pos":-1,"best_pos":5,"similarity":0.664,"stretto":false,"stretto_voices":0,"combination":[],"aug_dim":"","rhythm_ratio":1.0,"mirror":false,"chromatic_density":0.25,"complexity":0.46,"dissonance":0.195},{"voice":0,"pitch":79,"start":126.5453,"duration":0.2727,"velocity":127,"measure":59,"beat":1.0,"subject_pos":-1,"motif":"","motif_pos":-1,"best_pos":5,"similarity":0.607,"stretto":false,"stretto_voices":0,"combination":[],"aug_dim":"","rhythm_ratio":1.0,"mirror":false,"chromatic_density":0.231,"complexity":0.47,"dissonance":0.129},{"voice":2,"pitch":52,"start":126.5453,"duration":0.5455,"velocity":127,"measure":59,"beat":1.0,"subject_pos":-1,"motif":"","motif_pos":-1,"best_pos":2,"similarity":0.464,"stretto":false,"stretto_voices":0,"combination":[],"aug_dim":"","rhythm_ratio":1.0,"mirror":false,"chromatic_density":0.231,"complexity":0.47,"dissonance":0.129},{"voice":3,"pitch":49,"start":126.5453,"duration":0.5455,"velocity":127,"measure":59,"beat":1.0,"subject_pos":-1,"motif":"","motif_pos":-1,"best_pos":4,"similarity":0.686,"stretto":false,"stretto_voices":0,"combination":[],"aug_dim":"","rhythm_ratio":1.0,"mirror":false,"chromatic_density":0.231,"complexity":0.47,"dissonance":0.129},{"voice":0,"pitch":81,"start":126.8181,"duration":0.2727,"velocity":127,"measure":59,"beat":1.5,"subject_pos":-1,"motif":"","motif_pos":-1,"best_pos":6,"similarity":0.661,"stretto":false,"stretto_voices":0,"combination":[],"aug_dim":"","rhythm_ratio":1.0,"mirror":false,"chromatic_density":0.231,"complexity":0.47,"dissonance":0.129},{"voice":0,"pitch":82,"start":127.0908,"duration":0.2727,"velocity":127,"measure":59,"beat":2.0,"subject_pos":-1,"motif":"","motif_pos":-1,"best_pos":7,"similarity":0.464,"stretto":false,"stretto_voices":0,"combination":[],"aug_dim":"","rhythm_ratio":1.0,"mirror":false,"chromatic_density":0.231,"complexity":0.47,"dissonance":0.129},{"voice":2,"pitch":50,"start":127.0908,"duration":1.0909,"velocity":127,"measure":59,"beat":2.0,"subject_pos":-1,"motif":"","motif_pos":-1,"best_pos":3,"similarity":0.625,"stretto":false,"stretto_voices":0,"combination":[],"aug_dim":"","rhythm_ratio":1.0,"mirror":false,"chromatic_density":0.231,"complexity":0.47,"dissonance":0.129},{"voice":3,"pitch":50,"start":127.0908,"duration":0.2727,"velocity":127,"measure":59,"beat":2.0,"subject_pos":-1,"motif":"","motif_pos":-1,"best_pos":5,"similarity":0.479,"stretto":false,"stretto_voices":0,"combination":[],"aug_dim":"","rhythm_ratio":1.0,"mirror":false,"chromatic_density":0.231,"complexity":0.47,"dissonance":0.129},{"voice":0,"pitch":79,"start":127.3635,"duration":0.2727,"velocity":127,"measure":59,"beat":2.5,"subject_pos":-1,"motif":"","motif_pos":-1,"best_pos":2,"similarity":0.45,"stretto":false,"stretto_voices":0,"combination":[],"aug_dim":"","rhythm_ratio":1.0,"mirror":false,"chromatic_density":0.231,"complexity":0.47,"dissonance":0.129},{"voice":3,"pitch":46,"start":127.3635,"duration":0.2727,"velocity":127,"measure":59,"beat":2.5,"subject_pos":-1,"motif":"","motif_pos":-1,"best_pos":2,"similarity":0.6,"stretto":false,"stretto_voices":0,"combination":[],"aug_dim":"","rhythm_ratio":1.0,"mirror":false,"chromatic_density":0.231,"complexity":0.47,"dissonance":0.129},{"voice":0,"pitch":76,"start":127.6362,"duration":0.2727,"velocity":127,"measure":59,"beat":3.0,"subject_pos":-1,"motif":"","motif_pos":-1,"best_pos":3,"similarity":0.45,"stretto":false,"stretto_voices":0,"combination":[],"aug_dim":"","rhythm_ratio":1.0,"mirror":false,"chromatic_density":0.231,"complexity":0.47,"dissonance":0.129},{"voice":3,"pitch":43,"start":127.6362,"duration":0.5455,"velocity":127,"measure":59,"beat":3.0,"subject_pos":-1,"motif":"","motif_pos":-1,"best_pos":3,"similarity":0.471,"stretto":false,"stretto_voices":0,"combination":[],"aug_dim":"","rhythm_ratio":1.0,"mirror":false,"chromatic_density":0.231,"complexity":0.47,"dissonance":0.129},{"voice":0,"pitch":81,"start":127.909,"duration":0.2727,"velocity":127,"measure":59,"beat":3.5,"subject_pos":-1,"motif":"","motif_pos":-1,"best_pos":1,"similarity":0.579,"stretto":false,"stretto_voices":0,"combination":[],"aug_dim":"","rhythm_ratio":1.0,"mirror":false,"chromatic_density":0.231,"complexity":0.47,"dissonance":0.129},{"voice":0,"pitch":79,"start":128.1817,"duration":0.2727,"velocity":127,"measure":59,"beat":4.0,"subject_pos":-1,"motif":"","motif_pos":-1,"best_pos":2,"similarity":0.479,"stretto":false,"stretto_voices":0,"combination":[],"aug_dim":"","rhythm_ratio":1.0,"mirror":false,"chromatic_density":0.231,"complexity":0.47,"dissonance":0.129},{"voice":2,"pitch":49,"start":128.1817,"duration":0.5455,"velocity":127,"measure":59,"beat":4.0,"subject_pos":-1,"motif":"","motif_pos":-1,"best_pos":4,"similarity":0.661,"stretto":false,"stretto_voices":0,"combination":[],"aug_dim":"","rhythm_ratio":1.0,"mirror":false,"chromatic_density":0.231,"complexity":0.47,"dissonance":0.129},{"voice":3,"pitch":45,"start":128.1817,"duration":0.5455,"velocity":127,"measure":59,"beat":4.0,"subject_pos":-1,"motif":"","motif_pos":-1,"best_pos":6,"similarity":0.307,"stretto":false,"stretto_voices":0,"combination":[],"aug_dim":"","rhythm_ratio":1.0,"mirror":false,"chromatic_density":0.231,"complexity":0.47,"dissonance":0.129},{"voice":0,"pitch":81,"start":128.4544,"duration":0.2727,"velocity":127,"measure":59,"beat":4.5,"subject_pos":-1,"motif":"","motif_pos":-1,"best_pos":1,"similarity":0.35,"stretto":false,"stretto_voices":0,"combination":[],"aug_dim":"","rhythm_ratio":1.0,"mirror":false,"chromatic_density":0.231,"complexity":0.47,"dissonance":0.129},{"voice":0,"pitch":77,"start":128.7271,"duration":0.2727,"velocity":127,"measure":60,"beat":1.0,"subject_pos":-1,"motif":"","motif_pos":-1,"best_pos":2,"similarity":0.389,"stretto":false,"stretto_voices":0,"combination":[],"aug_dim":"","rhythm_ratio":1.0,"mirror":false,"chromatic_density":0.25,"complexity":0.464,"dissonance":0.0},{"voice":2,"pitch":50,"start":128.7271,"duration":0.5455,"velocity":127,"measure":60,"beat":1.0,"subject_pos":-1,"motif":"","motif_pos":-1,"best_pos":5,"similarity":0.464,"stretto":false,"stretto_voices":0,"combination":[],"aug_dim":"","rhythm_ratio":1.0,"mirror":false,"chromatic_density":0.25,"complexity":0.464,"dissonance":0.0},{"voice":3,"pitch":38,"start":128.7271,"duration":0.5455,"velocity":127,"measure":60,"beat":1.0,"subject_pos":-1,"motif":"","motif_pos":-1,"best_pos":0,"similarity":0.307,"stretto":false,"stretto_voices":0,"combination":[],"aug_dim":"","rhythm_ratio":1.0,"mirror":false,"chromatic_density":0.25,"complexity":0.464,"dissonance":0.0},{"voice":0,"pitch":79,"start":128.9999,"duration":0.2727,"velocity":127,"measure":60,"beat":1.5,"subject_pos":-1,"motif":"","motif_pos":-1,"best_pos":1,"similarity":0.386,"stretto":false,"stretto_voices":0,"combination":[],"aug_dim":"","rhythm_ratio":1.0,"mirror":false,"chromatic_density":0.25,"complexity":0.464,"dissonance":0.0},{"voice":0,"pitch":77,"start":129.2726,"duration":0.2727,"velocity":127,"measure":60,"beat":2.0,"subject_pos":-1,"motif":"","motif_pos":-1,"best_pos":3,"similarity":0.529,"stretto":false,"stretto_voices":0,"combination":[],"aug_dim":"","rhythm_ratio":1.0,"mirror":false,"chromatic_density":0.25,"complexity":0.464,"dissonance":0.0},{"voice":1,"pitch":62,"start":129.2726,"duration":0.2727,"velocity":127,"measure":60,"beat":2.0,"subject_pos":-1,"motif":"","motif_pos":-1,"best_pos":5,"similarity":0.514,"stretto":false,"stretto_voices":0,"combination":[],"aug_dim":"","rhythm_ratio":1.0,"mirror":false,"chromatic_density":0.25,"complexity":0.464,"dissonance":0.0},{"voice":0,"pitch":76,"start":129.5453,"duration":0.2727,"velocity":127,"measure":60,"beat":2.5,"subject_pos":-1,"motif":"","motif_pos":-1,"best_pos":4,"similarity":0.607,"stretto":false,"stretto_voices":0,"combination":[],"aug_dim":"","rhythm_ratio":1.0,"mirror":false,"chromatic_density":0.25,"complexity":0.464,"dissonance":0.0},{"voice":1,"pitch":64,"start":129.5453,"duration":0.2727,"velocity":127,"measure":60,"beat":2.5,"subject_pos":-1,"motif":"","motif_pos":-1,"best_pos":6,"similarity":0.579,"stretto":false,"stretto_voices":0,"combination":[],"aug_dim":"","rhythm_ratio":1.0,"mirror":false,"chromatic_density":0.25,"complexity":0.464,"dissonance":0.0},{"voice":0,"pitch":74,"start":129.8181,"duration":0.2727,"velocity":127,"measure":60,"beat":3.0,"subject_pos":-1,"motif":"","motif_pos":-1,"best_pos":5,"similarity":0.636,"stretto":false,"stretto_voices":0,"combination":[],"aug_dim":"","rhythm_ratio":1.0,"mirror":false,"chromatic_density":0.25,"complexity":0.464,"dissonance":0.0},{"voice":1,"pitch":65,"start":129.8181,"duration":0.2727,"velocity":127,"measure":60,"beat":3.0,"subject_pos":-1,"motif":"","motif_pos":-1,"best_pos":5,"similarity":0.664,"stretto":false,"stretto_voices":0,"combination":[],"aug_dim":"","rhythm_ratio":1.0,"mirror":false,"chromatic_density":0.25,"complexity":0.464,"dissonance":0.0},{"voice":0,"pitch":76,"start":130.0908,"duration":0.2727,"velocity":127,"measure":60,"beat":3.5,"subject_pos":-1,"motif":"","motif_pos":-1,"best_pos":6,"similarity":0.657,"stretto":false,"stretto_voices":0,"combination":[],"aug_dim":"","rhythm_ratio":1.0,"mirror":false,"chromatic_density":0.25,"complexity":0.464,"dissonance":0.0},{"voice":1,"pitch":67,"start":130.0908,"duration":0.2727,"velocity":127,"measure":60,"beat":3.5,"subject_pos":-1,"motif":"","motif_pos":-1,"best_pos":6,"similarity":0.579,"stretto":false,"stretto_voices":0,"combination":[],"aug_dim":"","rhythm_ratio":1.0,"mirror":false,"chromatic_density":0.25,"complexity":0.464,"dissonance":0.0},{"voice":0,"pitch":77,"start":130.3635,"duration":0.2727,"velocity":127,"measure":60,"beat":4.0,"subject_pos":-1,"motif":"","motif_pos":-1,"best_pos":7,"similarity":0.436,"stretto":false,"stretto_voices":0,"combination":[],"aug_dim":"","rhythm_ratio":1.0,"mirror":false,"chromatic_density":0.25,"complexity":0.464,"dissonance":0.0},{"voice":1,"pitch":69,"start":130.3635,"duration":0.2727,"velocity":127,"measure":60,"beat":4.0,"subject_pos":-1,"motif":"","motif_pos":-1,"best_pos":5,"similarity":0.593,"stretto":false,"stretto_voices":0,"combination":[],"aug_dim":"","rhythm_ratio":1.0,"mirror":false,"chromatic_density":0.25,"complexity":0.464,"dissonance":0.0},{"voice":0,"pitch":74,"start":130.6362,"duration":0.2727,"velocity":127,"measure":60,"beat":4.5,"subject_pos":-1,"motif":"","motif_pos":-1,"best_pos":4,"similarity":0.45,"stretto":false,"stretto_voices":0,"combination":[],"aug_dim":"","rhythm_ratio":1.0,"mirror":false,"chromatic_density":0.25,"complexity":0.464,"dissonance":0.0},{"voice":1,"pitch":71,"start":130.6362,"duration":0.2727,"velocity":127,"measure":60,"beat":4.5,"subject_pos":-1,"motif":"","motif_pos":-1,"best_pos":6,"similarity":0.65,"stretto":false,"stretto_voices":0,"combination":[],"aug_dim":"","rhythm_ratio":1.0,"mirror":false,"chromatic_density":0.25,"complexity":0.464,"dissonance":0.0},{"voice":0,"pitch":76,"start":130.909,"duration":0.2727,"velocity":127,"measure":61,"beat":1.0,"subject_pos":-1,"motif":"","motif_pos":-1,"best_pos":5,"similarity":0.614,"stretto":false,"stretto_voices":0,"combination":[],"aug_dim":"","rhythm_ratio":1.0,"mirror":false,"chromatic_density":0.2,"complexity":0.361,"dissonance":0.062},{"voice":1,"pitch":72,"start":130.909,"duration":0.2727,"velocity":127,"measure":61,"beat":1.0,"subject_pos":-1,"motif":"","motif_pos":-1,"best_pos":5,"similarity":0.729,"stretto":false,"stretto_voices":0,"combination":[],"aug_dim":"","rhythm_ratio":1.0,"mirror":false,"chromatic_density":0.2,"complexity":0.361,"dissonance":0.062},{"voice":0,"pitch":78,"start":131.1817,"duration":0.2727,"velocity":127,"measure":61,"beat":1.5,"subject_pos":-1,"motif":"","motif_pos":-1,"best_pos":6,"similarity":0.661,"stretto":false,"stretto_voices":0,"combination":[],"aug_dim":"","rhythm_ratio":1.0,"mirror":false,"chromatic_density":0.2,"complexity":0.361,"dissonance":0.062},{"voice":1,"pitch":74,"start":131.1817,"duration":0.2727,"velocity":127,"measure":61,"beat":1.5,"subject_pos":-1,"motif":"","motif_pos":-1,"best_pos":6,"similarity":0.721,"stretto":false,"stretto_voices":0,"combination":[],"aug_dim":"","rhythm_ratio":1.0,"mirror":false,"chromatic_density":0.2,"complexity":0.361,"dissonance":0.062},{"voice":0,"pitch":79,"start":131.4544,"duration":1.0909,"velocity":127,"measure":61,"beat":2.0,"subject_pos":-1,"motif":"","motif_pos":-1,"best_pos":7,"similarity":0.464,"stretto":false,"stretto_voices":0,"combination":[],"aug_dim":"","rhythm_ratio":1.0,"mirror":false,"chromatic_density":0.2,"complexity":0.361,"dissonance":0.062},{"voice":1,"pitch":75,"start":131.4544,"duration":0.2727,"velocity":127,"measure":61,"beat":2.0,"subject_pos":-1,"motif":"","motif_pos":-1,"best_pos":7,"similarity":0.5,"stretto":false,"stretto_voices":0,"combination":[],"aug_dim":"","rhythm_ratio":1.0,"mirror":false,"chromatic_density":0.2,"complexity":0.361,"dissonance":0.062},{"voice":1,"pitch":72,"start":131.7271,"duration":0.2727,"velocity":127,"measure":61,"beat":2.5,"subject_pos":-1,"motif":"","motif_pos":-1,"best_pos":2,"similarity":0.45,"stretto":false,"stretto_voices":0,"combination":[],"aug_dim":"","rhythm_ratio":1.0,"mirror":false,"chromatic_density":0.2,"complexity":0.361,"dissonance":0.062},{"voice":1,"pitch":69,"start":131.9999,"duration":0.2727,"velocity":127,"measure":61,"beat":3.0,"subject_pos":-1,"motif":"","motif_pos":-1,"best_pos":3,"similarity":0.45,"stretto":false,"stretto_voices":0,"combination":[],"aug_dim":"","rhythm_ratio":1.0,"mirror":false,"chromatic_density":0.2,"complexity":0.361,"dissonance":0.062},{"voice":1,"pitch":74,"start":132.2726,"duration":0.2727,"velocity":127,"measure":61,"beat":3.5,"subject_pos":-1,"motif":"","motif_pos":-1,"best_pos":1,"similarity":0.579,"stretto":false,"stretto_voices":0,"combination":[],"aug_dim":"","rhythm_ratio":1.0,"mirror":false,"chromatic_density":0.2,"complexity":0.361,"dissonance":0.062},{"voice":0,"pitch":77,"start":132.5453,"duration":0.5455,"velocity":127,"measure":61,"beat":4.0,"subject_pos":-1,"motif":"","motif_pos":-1,"best_pos":5,"similarity":0.35,"stretto":false,"stretto_voices":0,"combination":[],"aug_dim":"","rhythm_ratio":1.0,"mirror":false,"chromatic_density":0.2,"complexity":0.361,"dissonance":0.062},{"voice":1,"pitch":72,"start":132.5453,"duration":0.2727,"velocity":127,"measure":61,"beat":4.0,"subject_pos":-1,"motif":"","motif_pos":-1,"best_pos":2,"similarity":0.479,"stretto":false,"stretto_voices":0,"combination":[],"aug_dim":"","rhythm_ratio":1.0,"mirror":false,"chromatic_density":0.2,"complexity":0.361,"dissonance":0.062},{"voice":1,"pitch":74,"start":132.818,"duration":0.2727,"velocity":127,"measure":61,"beat":4.5,"subject_pos":-1,"motif":"","motif_pos":-1,"best_pos":1,"similarity":0.35,"stretto":false,"stretto_voices":0,"combination":[],"aug_dim":"","rhythm_ratio":1.0,"mirror":false,"chromatic_density":0.2,"complexity":0.361,"dissonance":0.062},{"voice":0,"pitch":79,"start":133.0908,"duration":0.5455,"velocity":127,"measure":62,"beat":1.0,"subject_pos":-1,"motif":"","motif_pos":-1,"best_pos":6,"similarity":0.318,"stretto":false,"stretto_voices":0,"combination":[],"aug_dim":"","rhythm_ratio":1.0,"mirror":false,"chromatic_density":0.214,"complexity":0.454,"dissonance":0.025},{"voice":1,"pitch":70,"start":133.0908,"duration":0.2727,"velocity":127,"measure":62,"beat":1.0,"subject_pos":-1,"motif":"","motif_pos":-1,"best_pos":2,"similarity":0.389,"stretto":false,"stretto_voices":0,"combination":[],"aug_dim":"","rhythm_ratio":1.0,"mirror":false,"chromatic_density":0.214,"complexity":0.454,"dissonance":0.025},{"voice":1,"pitch":72,"start":133.3635,"duration":0.2727,"velocity":127,"measure":62,"beat":1.5,"subject_pos":-1,"motif":"","motif_pos":-1,"best_pos":1,"similarity":0.386,"stretto":false,"stretto_voices":0,"combination":[],"aug_dim":"","rhythm_ratio":1.0,"mirror":false,"chromatic_density":0.214,"complexity":0.454,"dissonance":0.025},{"voice":0,"pitch":74,"start":133.6362,"duration":0.5455,"velocity":127,"measure":62,"beat":2.0,"subject_pos":-1,"motif":"","motif_pos":-1,"best_pos":0,"similarity":0.446,"stretto":false,"stretto_voices":0,"combination":[],"aug_dim":"","rhythm_ratio":1.0,"mirror":false,"chromatic_density":0.214,"complexity":0.454,"dissonance":0.025},{"voice":1,"pitch":70,"start":133.6362,"duration":0.2727,"velocity":127,"measure":62,"beat":2.0,"subject_pos":-1,"motif":"","motif_pos":-1,"best_pos":3,"similarity":0.529,"stretto":false,"stretto_voices":0,"combination":[],"aug_dim":"","rhythm_ratio":1.0,"mirror":false,"chromatic_density":0.214,"complexity":0.454,"dissonance":0.025},{"voice":3,"pitch":43,"start":133.6362,"duration":0.2727,"velocity":127,"measure":62,"beat":2.0,"subject_pos":-1,"motif":"","motif_pos":-1,"best_pos":5,"similarity":0.457,"stretto":false,"stretto_voices":0,"combination":[],"aug_dim":"","rhythm_ratio":1.0,"mirror":false,"chromatic_density":0.214,"complexity":0.454,"dissonance":0.025},{"voice":1,"pitch":69,"start":133.909,"duration":0.2727,"velocity":127,"measure":62,"beat":2.5,"subject_pos":-1,"motif":"","motif_pos":-1,"best_pos":4,"similarity":0.607,"stretto":false,"stretto_voices":0,"combination":[],"aug_dim":"","rhythm_ratio":1.0,"mirror":false,"chromatic_density":0.214,"complexity":0.454,"dissonance":0.025},{"voice":3,"pitch":45,"start":133.909,"duration":0.2727,"velocity":127,"measure":62,"beat":2.5,"subject_pos":-1,"motif":"","motif_pos":-1,"best_pos":6,"similarity":0.586,"stretto":false,"stretto_voices":0,"combination":[],"aug_dim":"","rhythm_ratio":1.0,"mirror":false,"chromatic_density":0.214,"complexity":0.454,"dissonance":0.025},{"voice":0,"pitch":79,"start":134.1817,"duration":1.6364,"velocity":127,"measure":62,"beat":3.0,"subject_pos":-1,"motif":"","motif_pos":-1,"best_pos":1,"similarity":0.625,"stretto":false,"stretto_voices":0,"combination":[],"aug_dim":"","rhythm_ratio":1.0,"mirror":false,"chromatic_density":0.214,"complexity":0.454,"dissonance":0.025},{"voice":1,"pitch":67,"start":134.1817,"duration":0.2727,"velocity":127,"measure":62,"beat":3.0,"subject_pos":-1,"motif":"","motif_pos":-1,"best_pos":5,"similarity":0.636,"stretto":false,"stretto_voices":0,"combination":[],"aug_dim":"","rhythm_ratio":1.0,"mirror":false,"chromatic_density":0.214,"complexity":0.454,"dissonance":0.025},{"voice":3,"pitch":46,"start":134.1817,"duration":0.2727,"velocity":127,"measure":62,"beat":3.0,"subject_pos":-1,"motif":"","motif_pos":-1,"best_pos":5,"similarity":0.657,"stretto":false,"stretto_voices":0,"combination":[],"aug_dim":"","rhythm_ratio":1.0,"mirror":false,"chromatic_density":0.214,"complexity":0.454,"dissonance":0.025},{"voice":1,"pitch":69,"start":134.4544,"duration":0.2727,"velocity":127,"measure":62,"beat":3.5,"subject_pos":-1,"motif":"","motif_pos":-1,"best_pos":6,"similarity":0.657,"stretto":false,"stretto_voices":0,"combination":[],"aug_dim":"","rhythm_ratio":1.0,"mirror":false,"chromatic_density":0.214,"complexity":0.454,"dissonance":0.025},{"voice":3,"pitch":48,"start":134.4544,"duration":0.2727,"velocity":127,"measure":62,"beat":3.5,"subject_pos":-1,"motif":"","motif_pos":-1,"best_pos":6,"similarity":0.579,"stretto":false,"stretto_voices":0,"combination":[],"aug_dim":"","rhythm_ratio":1.0,"mirror":false,"chromatic_density":0.214,"complexity":0.454,"dissonance":0.025},{"voice":1,"pitch":70,"start":134.7271,"duration":0.2727,"velocity":127,"measure":62,"beat":4.0,"subject_pos":-1,"motif":"","motif_pos":-1,"best_pos":7,"similarity":0.436,"stretto":false,"stretto_voices":0,"combination":[],"aug_dim":"","rhythm_ratio":1.0,"mirror":false,"chromatic_density":0.214,"complexity":0.454,"dissonance":0.025},{"voice":3,"pitch":50,"start":134.7271,"duration":0.2727,"velocity":127,"measure":62,"beat":4.0,"subject_pos":-1,"motif":"","motif_pos":-1,"best_pos":5,"similarity":0.593,"stretto":false,"stretto_voices":0,"combination":[],"aug_dim":"","rhythm_ratio":1.0,"mirror":false,"chromatic_density":0.214,"complexity":0.454,"dissonance":0.025},{"voice":1,"pitch":67,"start":134.9999,"duration":0.2727,"velocity":127,"measure":62,"beat":4.5,"subject_pos":-1,"motif":"","motif_pos":-1,"best_pos":4,"similarity":0.45,"stretto":false,"stretto_voices":0,"combination":[],"aug_dim":"","rhythm_ratio":1.0,"mirror":false,"chromatic_density":0.214,"complexity":0.454,"dissonance":0.025},{"voice":3,"pitch":52,"start":134.9999,"duration":0.2727,"velocity":127,"measure":62,"beat":4.5,"subject_pos":-1,"motif":"","motif_pos":-1,"best_pos":6,"similarity":0.65,"stretto":false,"stretto_voices":0,"combination":[],"aug_dim":"","rhythm_ratio":1.0,"mirror":false,"chromatic_density":0.214,"complexity":0.454,"dissonance":0.025},{"voice":1,"pitch":69,"start":135.2726,"duration":0.2727,"velocity":127,"measure":63,"beat":1.0,"subject_pos":-1,"motif":"","motif_pos":-1,"best_pos":5,"similarity":0.614,"stretto":false,"stretto_voices":0,"combination":[],"aug_dim":"","rhythm_ratio":1.0,"mirror":false,"chromatic_density":0.231,"complexity":0.47,"dissonance":0.1},{"voice":3,"pitch":53,"start":135.2726,"duration":0.2727,"velocity":127,"measure":63,"beat":1.0,"subject_pos":-1,"motif":"","motif_pos":-1,"best_pos":5,"similarity":0.657,"stretto":false,"stretto_voices":0,"combination":[],"aug_dim":"","rhythm_ratio":1.0,"mirror":false,"chromatic_density":0.231,"complexity":0.47,"dissonance":0.1},{"voice":1,"pitch":71,"start":135.5453,"duration":0.2727,"velocity":127,"measure":63,"beat":1.5,"subject_pos":-1,"motif":"","motif_pos":-1,"best_pos":6,"similarity":0.661,"stretto":false,"stretto_voices":0,"combination":[],"aug_dim":"","rhythm_ratio":1.0,"mirror":false,"chromatic_density":0.231,"complexity":0.47,"dissonance":0.1},{"voice":3,"pitch":55,"start":135.5453,"duration":0.2727,"velocity":127,"measure":63,"beat":1.5,"subject_pos":-1,"motif":"","motif_pos":-1,"best_pos":6,"similarity":0.579,"stretto":false,"stretto_voices":0,"combination":[],"aug_dim":"","rhythm_ratio":1.0,"mirror":false,"chromatic_density":0.231,"complexity":0.47,"dissonance":0.1},{"voice":0,"pitch":77,"start":135.818,"duration":0.2727,"velocity":127,"measure":63,"beat":2.0,"subject_pos":-1,"motif":"","motif_pos":-1,"best_pos":3,"similarity":0.571,"stretto":false,"stretto_voices":0,"combination":[],"aug_dim":"","rhythm_ratio":1.0,"mirror":false,"chromatic_density":0.231,"complexity":0.47,"dissonance":0.1},{"voice":1,"pitch":72,"start":135.818,"duration":1.0909,"velocity":127,"measure":63,"beat":2.0,"subject_pos":-1,"motif":"","motif_pos":-1,"best_pos":7,"similarity":0.464,"stretto":false,"stretto_voices":0,"combination":[],"aug_dim":"","rhythm_ratio":1.0,"mirror":false,"chromatic_density":0.231,"complexity":0.47,"dissonance":0.1},{"voice":3,"pitch":57,"start":135.818,"duration":0.2727,"velocity":127,"measure":63,"beat":2.0,"subject_pos":-1,"motif":"","motif_pos":-1,"best_pos":1,"similarity":0.457,"stretto":false,"stretto_voices":0,"combination":[],"aug_dim":"","rhythm_ratio":1.0,"mirror":false,"chromatic_density":0.231,"complexity":0.47,"dissonance":0.1},{"voice":0,"pitch":76,"start":136.0908,"duration":0.2727,"velocity":127,"measure":63,"beat":2.5,"subject_pos":-1,"motif":"","motif_pos":-1,"best_pos":4,"similarity":0.65,"stretto":false,"stretto_voices":0,"combination":[],"aug_dim":"","rhythm_ratio":1.0,"mirror":false,"chromatic_density":0.231,"complexity":0.47,"dissonance":0.1},{"voice":3,"pitch":53,"start":136.0908,"duration":0.2727,"velocity":127,"measure":63,"beat":2.5,"subject_pos":-1,"motif":"","motif_pos":-1,"best_pos":2,"similarity":0.593,"stretto":false,"stretto_voices":0,"combination":[],"aug_dim":"","rhythm_ratio":1.0,"mirror":false,"chromatic_density":0.231,"complexity":0.47,"dissonance":0.1},{"voice":0,"pitch":77,"start":136.3635,"duration":0.5455,"velocity":127,"measure":63,"beat":3.0,"subject_pos":-1,"motif":"","motif_pos":-1,"best_pos":5,"similarity":0.479,"stretto":false,"stretto_voices":0,"combination":[],"aug_dim":"","rhythm_ratio":1.0,"mirror":false,"chromatic_density":0.231,"complexity":0.47,"dissonance":0.1},{"voice":3,"pitch":50,"start":136.3635,"duration":0.2727,"velocity":127,"measure":63,"beat":3.0,"subject_pos":-1,"motif":"","motif_pos":-1,"best_pos":3,"similarity":0.521,"stretto":false,"stretto_voices":0,"combination":[],"aug_dim":"","rhythm_ratio":1.0,"mirror":false,"chromatic_density":0.231,"complexity":0.47,"dissonance":0.1},{"voice":3,"pitch":55,"start":136.6362,"duration":0.2727,"velocity":127,"measure":63,"beat":3.5,"subject_pos":-1,"motif":"","motif_pos":-1,"best_pos":1,"similarity":0.589,"stretto":false,"stretto_voices":0,"combination":[],"aug_dim":"","rhythm_ratio":1.0,"mirror":false,"chromatic_density":0.231,"complexity":0.47,"dissonance":0.1},{"voice":0,"pitch":74,"start":136.909,"duration":0.5455,"velocity":127,"measure":63,"beat":4.0,"subject_pos":-1,"motif":"","motif_pos":-1,"best_pos":3,"similarity":0.521,"stretto":false,"stretto_voices":0,"combination":[],"aug_dim":"","rhythm_ratio":1.0,"mirror":false,"chromatic_density":0.231,"complexity":0.47,"dissonance":0.1},{"voice":1,"pitch":70,"start":136.909,"duration":1.0909,"velocity":127,"measure":63,"beat":4.0,"subject_pos":-1,"motif":"","motif_pos":-1,"best_pos":2,"similarity":0.336,"stretto":false,"stretto_voices":0,"combination":[],"aug_dim":"","rhythm_ratio":1.0,"mirror":false,"chromatic_density":0.231,"complexity":0.47,"dissonance":0.1},{"voice":3,"pitch":53,"start":136.909,"duration":0.2727,"velocity":127,"measure":63,"beat":4.0,"subject_pos":-1,"motif":"","motif_pos":-1,"best_pos":2,"similarity":0.536,"stretto":false,"stretto_voices":0,"combination":[],"aug_dim":"","rhythm_ratio":1.0,"mirror":false,"chromatic_density":0.231,"complexity":0.47,"dissonance":0.1},{"voice":3,"pitch":55,"start":137.1817,"duration":0.2727,"velocity":127,"measure":63,"beat":4.5,"subject_pos":-1,"motif":"","motif_pos":-1,"best_pos":3,"similarity":0.5,"stretto":false,"stretto_voices":0,"combination":[],"aug_dim":"","rhythm_ratio":1.0,"mirror":false,"chromatic_density":0.231,"complexity":0.47,"dissonance":0.1},{"voice":0,"pitch":72,"start":137.4544,"duration":1.6364,"velocity":127,"measure":64,"beat":1.0,"subject_pos":-1,"motif":"","motif_pos":-1,"best_pos":4,"similarity":0.486,"stretto":false,"stretto_voices":0,"combination":[],"aug_dim":"","rhythm_ratio":1.0,"mirror":false,"chromatic_density":0.375,"complexity":0.466,"dissonance":0.0},{"voice":3,"pitch":52,"start":137.4544,"duration":0.2727,"velocity":127,"measure":64,"beat":1.0,"subject_pos":-1,"motif":"","motif_pos":-1,"best_pos":4,"similarity":0.579,"stretto":false,"stretto_voices":0,"combination":[],"aug_dim":"","rhythm_ratio":1.0,"mirror":false,"chromatic_density":0.375,"complexity":0.466,"dissonance":0.0},{"voice":3,"pitch":53,"start":137.7271,"duration":0.2727,"velocity":127,"measure":64,"beat":1.5,"subject_pos":-1,"motif":"","motif_pos":-1,"best_pos":5,"similarity":0.621,"stretto":false,"stretto_voices":0,"combination":[],"aug_dim":"","rhythm_ratio":1.0,"mirror":false,"chromatic_density":0.375,"complexity":0.466,"dissonance":0.0},{"voice":1,"pitch":64,"start":137.9999,"duration":0.5455,"velocity":127,"measure":64,"beat":2.0,"subject_pos":-1,"motif":"","motif_pos":-1,"best_pos":0,"similarity":0.293,"stretto":false,"stretto_voices":0,"combination":[],"aug_dim":"","rhythm_ratio":1.0,"mirror":false,"chromatic_density":0.375,"complexity":0.466,"dissonance":0.0},{"voice":3,"pitch":55,"start":137.9999,"duration":0.2727,"velocity":127,"measure":64,"beat":2.0,"subject_pos":-1,"motif":"","motif_pos":-1,"best_pos":6,"similarity":0.475,"stretto":false,"stretto_voices":0,"combination":[],"aug_dim":"","rhythm_ratio":1.0,"mirror":false,"chromatic_density":0.375,"complexity":0.466,"dissonance":0.0},{"voice":3,"pitch":52,"start":138.2726,"duration":0.2727,"velocity":127,"measure":64,"beat":2.5,"subject_pos":-1,"motif":"","motif_pos":-1,"best_pos":1,"similarity":0.357,"stretto":false,"stretto_voices":0,"combination":[],"aug_dim":"","rhythm_ratio":1.0,"mirror":false,"chromatic_density":0.375,"complexity":0.466,"dissonance":0.0},{"voice":1,"pitch":69,"start":138.5453,"duration":1.6364,"velocity":127,"measure":64,"beat":3.0,"subject_pos":-1,"motif":"","motif_pos":-1,"best_pos":1,"similarity":0.336,"stretto":false,"stretto_voices":0,"combination":[],"aug_dim":"","rhythm_ratio":1.0,"mirror":false,"chromatic_density":0.375,"complexity":0.466,"dissonance":0.0},{"voice":3,"pitch":48,"start":138.5453,"duration":0.2727,"velocity":127,"measure":64,"beat":3.0,"subject_pos":-1,"motif":"","motif_pos":-1,"best_pos":2,"similarity":0.5,"stretto":false,"stretto_voices":0,"combination":[],"aug_dim":"","rhythm_ratio":1.0,"mirror":false,"chromatic_density":0.375,"complexity":0.466,"dissonance":0.0},{"voice":3,"pitch":53,"start":138.818,"duration":0.2727,"velocity":127,"measure":64,"beat":3.5,"subject_pos":-1,"motif":"","motif_pos":-1,"best_pos":3,"similarity":0.571,"stretto":false,"stretto_voices":0,"combination":[],"aug_dim":"","rhythm_ratio":1.0,"mirror":false,"chromatic_density":0.375,"complexity":0.466,"dissonance":0.0},{"voice":0,"pitch":72,"start":139.0908,"duration":0.5455,"velocity":127,"measure":64,"beat":4.0,"subject_pos":-1,"motif":"","motif_pos":-1,"best_pos":4,"similarity":0.429,"stretto":false,"stretto_voices":0,"combination":[],"aug_dim":"","rhythm_ratio":1.0,"mirror":false,"chromatic_density":0.375,"complexity":0.466,"dissonance":0.0},{"voice":3,"pitch":52,"start":139.0908,"duration":0.2727,"velocity":127,"measure":64,"beat":4.0,"subject_pos":-1,"motif":"","motif_pos":-1,"best_pos":4,"similarity":0.679,"stretto":false,"stretto_voices":0,"combination":[],"aug_dim":"","rhythm_ratio":1.0,"mirror":false,"chromatic_density":0.375,"complexity":0.466,"dissonance":0.0},{"voice":3,"pitch":53,"start":139.3635,"duration":0.2727,"velocity":127,"measure":64,"beat":4.5,"subject_pos":-1,"motif":"","motif_pos":-1,"best_pos":5,"similarity":0.5,"stretto":false,"stretto_voices":0,"combination":[],"aug_dim":"","rhythm_ratio":1.0,"mirror":false,"chromatic_density":0.375,"complexity":0.466,"dissonance":0.0},{"voice":0,"pitch":77,"start":139.6362,"duration":1.3636,"velocity":127,"measure":65,"beat":1.0,"subject_pos":-1,"motif":"","motif_pos":-1,"best_pos":5,"similarity":0.436,"stretto":false,"stretto_voices":0,"combination":[],"aug_dim":"","rhythm_ratio":1.0,"mirror":false,"chromatic_density":0.091,"complexity":0.457,"dissonance":0.115},{"voice":3,"pitch":50,"start":139.6362,"duration":0.2727,"velocity":127,"measure":65,"beat":1.0,"subject_pos":-1,"motif":"","motif_pos":-1,"best_pos":5,"similarity":0.511,"stretto":false,"stretto_voices":0,"combination":[],"aug_dim":"","rhythm_ratio":1.0,"mirror":false,"chromatic_density":0.091,"complexity":0.457,"dissonance":0.115},{"voice":3,"pitch":52,"start":139.909,"duration":0.2727,"velocity":127,"measure":65,"beat":1.5,"subject_pos":-1,"motif":"","motif_pos":-1,"best_pos":6,"similarity":0.604,"stretto":false,"stretto_voices":0,"combination":[],"aug_dim":"","rhythm_ratio":1.0,"mirror":false,"chromatic_density":0.091,"complexity":0.457,"dissonance":0.115},{"voice":1,"pitch":74,"start":140.1817,"duration":0.5455,"velocity":127,"measure":65,"beat":2.0,"subject_pos":-1,"motif":"","motif_pos":-1,"best_pos":1,"similarity":0.364,"stretto":false,"stretto_voices":0,"combination":[],"aug_dim":"","rhythm_ratio":1.0,"mirror":false,"chromatic_density":0.091,"complexity":0.457,"dissonance":0.115},{"voice":3,"pitch":53,"start":140.1817,"duration":0.2727,"velocity":127,"measure":65,"beat":2.0,"subject_pos":-1,"motif":"","motif_pos":-1,"best_pos":7,"similarity":0.436,"stretto":false,"stretto_voices":0,"combination":[],"aug_dim":"","rhythm_ratio":1.0,"mirror":false,"chromatic_density":0.091,"complexity":0.457,"dissonance":0.115},{"voice":3,"pitch":50,"start":140.4544,"duration":0.2727,"velocity":127,"measure":65,"beat":2.5,"subject_pos":-1,"motif":"","motif_pos":-1,"best_pos":2,"similarity":0.45,"stretto":false,"stretto_voices":0,"combination":[],"aug_dim":"","rhythm_ratio":1.0,"mirror":false,"chromatic_density":0.091,"complexity":0.457,"dissonance":0.115},{"voice":1,"pitch":67,"start":140.7271,"duration":1.3636,"velocity":127,"measure":65,"beat":3.0,"subject_pos":-1,"motif":"","motif_pos":-1,"best_pos":2,"similarity":0.289,"stretto":false,"stretto_voices":0,"combination":[],"aug_dim":"","rhythm_ratio":1.0,"mirror":false,"chromatic_density":0.091,"complexity":0.457,"dissonance":0.115},{"voice":3,"pitch":47,"start":140.7271,"duration":0.2727,"velocity":127,"measure":65,"beat":3.0,"subject_pos":-1,"motif":"","motif_pos":-1,"best_pos":3,"similarity":0.45,"stretto":false,"stretto_voices":0,"combination":[],"aug_dim":"","rhythm_ratio":1.0,"mirror":false,"chromatic_density":0.091,"complexity":0.457,"dissonance":0.115},{"voice":0,"pitch":79,"start":140.9999,"duration":0.2727,"velocity":127,"measure":65,"beat":3.5,"subject_pos":-1,"motif":"","motif_pos":-1,"best_pos":6,"similarity":0.364,"stretto":false,"stretto_voices":0,"combination":[],"aug_dim":"","rhythm_ratio":1.0,"mirror":false,"chromatic_density":0.091,"complexity":0.457,"dissonance":0.115},{"voice":3,"pitch":52,"start":140.9999,"duration":0.2727,"velocity":127,"measure":65,"beat":3.5,"subject_pos":-1,"motif":"","motif_pos":-1,"best_pos":1,"similarity":0.589,"stretto":false,"stretto_voices":0,"combination":[],"aug_dim":"","rhythm_ratio":1.0,"mirror":false,"chromatic_density":0.091,"complexity":0.457,"dissonance":0.115},{"voice":0,"pitch":77,"start":141.2726,"duration":0.2727,"velocity":127,"measure":65,"beat":4.0,"subject_pos":-1,"motif":"","motif_pos":-1,"best_pos":5,"similarity":0.343,"stretto":false,"stretto_voices":0,"combination":[],"aug_dim":"","rhythm_ratio":1.0,"mirror":false,"chromatic_density":0.091,"complexity":0.457,"dissonance":0.115},{"voice":3,"pitch":50,"start":141.2726,"duration":0.2727,"velocity":127,"measure":65,"beat":4.0,"subject_pos":-1,"motif":"","motif_pos":-1,"best_pos":2,"similarity":0.536,"stretto":false,"stretto_voices":0,"combination":[],"aug_dim":"","rhythm_ratio":1.0,"mirror":false,"chromatic_density":0.091,"complexity":0.457,"dissonance":0.115},{"voice":0,"pitch":79,"start":141.5453,"duration":0.2727,"velocity":127,"measure":65,"beat":4.5,"subject_pos":-1,"motif":"","motif_pos":-1,"best_pos":2,"similarity":0.386,"stretto":false,"stretto_voices":0,"combination":[],"aug_dim":"","rhythm_ratio":1.0,"mirror":false,"chromatic_density":0.091,"complexity":0.457,"dissonance":0.115},{"voice":3,"pitch":52,"start":141.5453,"duration":0.2727,"velocity":127,"measure":65,"beat":4.5,"subject_pos":-1,"motif":"","motif_pos":-1,"best_pos":3,"similarity":0.429,"stretto":false,"stretto_voices":0,"combination":[],"aug_dim":"","rhythm_ratio":1.0,"mirror":false,"chromatic_density":0.091,"complexity":0.457,"dissonance":0.115},{"voice":0,"pitch":76,"start":141.818,"duration":0.5455,"velocity":127,"measure":66,"beat":1.0,"subject_pos":-1,"motif":"","motif_pos":-1,"best_pos":3,"similarity":0.443,"stretto":false,"stretto_voices":0,"combination":[],"aug_dim":"","rhythm_ratio":1.0,"mirror":false,"chromatic_density":0.5,"complexity":0.686,"dissonance":0.147},{"voice":2,"pitch":57,"start":141.818,"duration":1.0909,"velocity":127,"measure":66,"beat":1.0,"subject_pos":0,"motif":"subject_inv","motif_pos":0,"best_pos":0,"similarity":1.0,"stretto":false,"stretto_voices":0,"combination":[],"aug_dim":"","rhythm_ratio":1.0,"mirror":false,"chromatic_density":0.5,"complexity":0.686,"dissonance":0.147},{"voice":3,"pitch":49,"start":141.818,"duration":1.0909,"velocity":127,"measure":66,"beat":1.0,"subject_pos":-1,"motif":"","motif_pos":-1,"best_pos":4,"similarity":0.429,"stretto":false,"stretto_voices":0,"combination":[],"aug_dim":"","rhythm_ratio":1.0,"mirror":false,"chromatic_density":0.5,"complexity":0.686,"dissonance":0.147},{"voice":1,"pitch":67,"start":142.0908,"duration":0.2727,"velocity":127,"measure":66,"beat":1.5,"subject_pos":-1,"motif":"","motif_pos":-1,"best_pos":2,"similarity":0.429,"stretto":false,"stretto_voices":0,"combination":[],"aug_dim":"","rhythm_ratio":1.0,"mirror":false,"chromatic_density":0.5,"complexity":0.686,"dissonance":0.147},{"voice":0,"pitch":69,"start":142.3635,"duration":0.5455,"velocity":127,"measure":66,"beat":2.0,"subject_pos":-1,"motif":"enigmatic_cell","motif_pos":0,"best_pos":0,"similarity":1.0,"stretto":false,"stretto_voices":0,"combination":[],"aug_dim":"","rhythm_ratio":1.0,"mirror":false,"chromatic_density":0.5,"complexity":0.686,"dissonance":0.147},{"voice":1,"pitch":65,"start":142.3635,"duration":0.2727,"velocity":127,"measure":66,"beat":2.0,"subject_pos":-1,"motif":"","motif_pos":-1,"best_pos":3,"similarity":0.614,"stretto":false,"stretto_voices":0,"combination":[],"aug_dim":"","rhythm_ratio":1.0,"mirror":false,"chromatic_density":0.5,"complexity":0.686,"dissonance":0.147},{"voice":1,"pitch":64,"start":142.6362,"duration":0.2727,"velocity":127,"measure":66,"beat":2.5,"subject_pos":-1,"motif":"","motif_pos":-1,"best_pos":4,"similarity":0.682,"stretto":false,"stretto_voices":0,"combination":[],"aug_dim":"","rhythm_ratio":1.0,"mirror":false,"chromatic_density":0.5,"complexity":0.686,"dissonance":0.147},{"voice":0,"pitch":70,"start":142.9089,"duration":0.5455,"velocity":127,"measure":66,"beat":3.0,"subject_pos":-1,"motif":"enigmatic_cell","motif_pos":1,"best_pos":1,"similarity":1.0,"stretto":false,"stretto_voices":0,"combination":[],"aug_dim":"","rhythm_ratio":1.0,"mirror":false,"chromatic_density":0.5,"complexity":0.686,"dissonance":0.147},{"voice":1,"pitch":65,"start":142.9089,"duration":0.2727,"velocity":127,"measure":66,"beat":3.0,"subject_pos":-1,"motif":"","motif_pos":-1,"best_pos":5,"similarity":0.507,"stretto":false,"stretto_voices":0,"combination":[],"aug_dim":"","rhythm_ratio":1.0,"mirror":false,"chromatic_density":0.5,"complexity":0.686,"dissonance":0.147},{"voice":2,"pitch":50,"start":142.9089,"duration":0.8182,"velocity":127,"measure":66,"beat":3.0,"subject_pos":1,"motif":"subject_inv","motif_pos":1,"best_pos":1,"similarity":1.0,"stretto":false,"stretto_voices":0,"combination":[],"aug_dim":"","rhythm_ratio":1.0,"mirror":false,"chromatic_density":0.5,"complexity":0.686,"dissonance":0.147},{"voice":3,"pitch":50,"start":142.9089,"duration":1.6364,"velocity":127,"measure":66,"beat":3.0,"subject_pos":-1,"motif":"","motif_pos":-1,"best_pos":1,"similarity":0.332,"stretto":false,"stretto_voices":0,"combination":[],"aug_dim":"","rhythm_ratio":1.0,"mirror":false,"chromatic_density":0.5,"complexity":0.686,"dissonance":0.147},{"voice":1,"pitch":64,"start":143.1817,"duration":0.2727,"velocity":127,"measure":66,"beat":3.5,"subject_pos":-1,"motif":"","motif_pos":-1,"best_pos":2,"similarity":0.514,"stretto":false,"stretto_voices":0,"combination":[],"aug_dim":"","rhythm_ratio":1.0,"mirror":false,"chromatic_density":0.5,"complexity":0.686,"dissonance":0.147},{"voice":0,"pitch":65,"start":143.4544,"duration":0.5455,"velocity":127,"measure":66,"beat":4.0,"subject_pos":-1,"motif":"enigmatic_cell","motif_pos":2,"best_pos":2,"similarity":1.0,"stretto":false,"stretto_voices":0,"combination":[],"aug_dim":"","rhythm_ratio":1.0,"mirror":false,"chromatic_density":0.5,"complexity":0.686,"dissonance":0.147},{"voice":1,"pitch":62,"start":143.4544,"duration":0.2727,"velocity":127,"measure":66,"beat":4.0,"subject_pos":-1,"motif":"tail","motif_pos":3,"best_pos":3,"similarity":1.0,"stretto":false,"stretto_voices":0,"combination":[],"aug_dim":"","rhythm_ratio":1.0,"mirror":false,"chromatic_density":0.5,"complexity":0.686,"dissonance":0.147},{"voice":1,"pitch":61,"start":143.7271,"duration":0.2727,"velocity":127,"measure":66,"beat":4.5,"subject_pos":-1,"motif":"tail","motif_pos":4,"best_pos":4,"similarity":1.0,"stretto":false,"stretto_voices":0,"combination":[],"aug_dim":"","rhythm_ratio":1.0,"mirror":false,"chromatic_density":0.5,"complexity":0.686,"dissonance":0.147},{"voice":2,"pitch":52,"start":143.7271,"duration":0.2727,"velocity":127,"measure":66,"beat":4.5,"subject_pos":2,"motif":"subject_inv","motif_pos":2,"best_pos":2,"similarity":1.0,"stretto":false,"stretto_voices":0,"combination":[],"aug_dim":"","rhythm_ratio":1.0,"mirror":false,"chromatic_density":0.5,"complexity":0.686,"dissonance":0.147},{"voice":1,"pitch":62,"start":143.9999,"duration":0.2727,"velocity":127,"measure":67,"beat":1.0,"subject_pos":-1,"motif":"tail","motif_pos":5,"best_pos":5,"similarity":1.0,"stretto":false,"stretto_voices":0,"combination":[],"aug_dim":"","rhythm_ratio":1.0,"mirror":false,"chromatic_density":0.2,"complexity":0.652,"dissonance":0.066},{"voice":2,"pitch":53,"start":143.9999,"duration":0.8182,"velocity":127,"measure":67,"beat":1.0,"subject_pos":3,"motif":"subject_inv","motif_pos":3,"best_pos":3,"similarity":1.0,"stretto":false,"stretto_voices":0,"combination":[],"aug_dim":"","rhythm_ratio":1.0,"mirror":false,"chromatic_density":0.2,"complexity":0.652,"dissonance":0.066},{"voice":1,"pitch":64,"start":144.2726,"duration":0.2727,"velocity":127,"measure":67,"beat":1.5,"subject_pos":-1,"motif":"tail","motif_pos":6,"best_pos":6,"similarity":1.0,"stretto":false,"stretto_voices":0,"combination":[],"aug_dim":"","rhythm_ratio":1.0,"mirror":false,"chromatic_density":0.2,"complexity":0.652,"dissonance":0.066},{"voice":0,"pitch":74,"start":144.5453,"duration":0.5455,"velocity":127,"measure":67,"beat":2.0,"subject_pos":-1,"motif":"","motif_pos":-1,"best_pos":1,"similarity":0.357,"stretto":false,"stretto_voices":0,"combination":[],"aug_dim":"","rhythm_ratio":1.0,"mirror":false,"chromatic_density":0.2,"complexity":0.652,"dissonance":0.066},{"voice":1,"pitch":65,"start":144.5453,"duration":0.8182,"velocity":127,"measure":67,"beat":2.0,"subject_pos":-1,"motif":"tail","motif_pos":7,"best_pos":7,"similarity":1.0,"stretto":false,"stretto_voices":0,"combination":[],"aug_dim":"","rhythm_ratio":1.0,"mirror":false,"chromatic_density":0.2,"complexity":0.652,"dissonance":0.066},{"voice":3,"pitch":46,"start":144.5453,"duration":0.5455,"velocity":127,"measure":67,"beat":2.0,"subject_pos":-1,"motif":"","motif_pos":-1,"best_pos":0,"similarity":0.357,"stretto":false,"stretto_voices":0,"combination":[],"aug_dim":"","rhythm_ratio":1.0,"mirror":false,"chromatic_density":0.2,"complexity":0.652,"dissonance":0.066},{"voice":2,"pitch":55,"start":144.818,"duration":0.2727,"velocity":127,"measure":67,"beat":2.5,"subject_pos":4,"motif":"subject_inv","motif_pos":4,"best_pos":4,"similarity":1.0,"stretto":false,"stretto_voices":0,"combination":[],"aug_dim":"","rhythm_ratio":1.0,"mirror":false,"chromatic_density":0.2,"complexity":0.652,"dissonance":0.066},{"voice":0,"pitch":72,"start":145.0908,"duration":0.5455,"velocity":127,"measure":67,"beat":3.0,"subject_pos":-1,"motif":"","motif_pos":-1,"best_pos":2,"similarity":0.357,"stretto":false,"stretto_voices":0,"combination":[],"aug_dim":"","rhythm_ratio":1.0,"mirror":false,"chromatic_density":0.2,"complexity":0.652,"dissonance":0.066},{"voice":2,"pitch":57,"start":145.0908,"duration":1.0909,"velocity":127,"measure":67,"beat":3.0,"subject_pos":5,"motif":"subject_inv","motif_pos":5,"best_pos":5,"similarity":1.0,"stretto":false,"stretto_voices":0,"combination":[],"aug_dim":"","rhythm_ratio":1.0,"mirror":false,"chromatic_density":0.2,"complexity":0.652,"dissonance":0.066},{"voice":3,"pitch":53,"start":145.0908,"duration":0.8182,"velocity":127,"measure":67,"beat":3.0,"subject_pos":-1,"motif":"","motif_pos":-1,"best_pos":1,"similarity":0.464,"stretto":false,"stretto_voices":0,"combination":[],"aug_dim":"","rhythm_ratio":1.0,"mirror":false,"chromatic_density":0.2,"complexity":0.652,"dissonance":0.066},{"voice":1,"pitch":64,"start":145.3635,"duration":0.2727,"velocity":127,"measure":67,"beat":3.5,"subject_pos":-1,"motif":"","motif_pos":-1,"best_pos":1,"similarity":0.357,"stretto":false,"stretto_voices":0,"combination":[],"aug_dim":"","rhythm_ratio":1.0,"mirror":false,"chromatic_density":0.2,"complexity":0.652,"dissonance":0.066},{"voice":0,"pitch":77,"start":145.6362,"duration":0.5455,"velocity":127,"measure":67,"beat":4.0,"subject_pos":-1,"motif":"","motif_pos":-1,"best_pos":1,"similarity":0.321,"stretto":false,"stretto_voices":0,"combination":[],"aug_dim":"","rhythm_ratio":1.0,"mirror":false,"chromatic_density":0.2,"complexity":0.652,"dissonance":0.066},{"voice":1,"pitch":62,"start":145.6362,"duration":1.0909,"velocity":127,"measure":67,"beat":4.0,"subject_pos":-1,"motif":"","motif_pos":-1,"best_pos":2,"similarity":0.5,"stretto":false,"stretto_voices":0,"combination":[],"aug_dim":"","rhythm_ratio":1.0,"mirror":false,"chromatic_density":0.2,"complexity":0.652,"dissonance":0.066},{"voice":3,"pitch":50,"start":145.9089,"duration":0.2727,"velocity":127,"measure":67,"beat":4.5,"subject_pos":-1,"motif":"","motif_pos":-1,"best_pos":2,"similarity":0.364,"stretto":false,"stretto_voices":0,"combination":[],"aug_dim":"","rhythm_ratio":1.0,"mirror":false,"chromatic_density":0.2,"complexity":0.652,"dissonance":0.066},{"voice":0,"pitch":70,"start":146.1817,"duration":0.2727,"velocity":127,"measure":68,"beat":1.0,"subject_pos":-1,"motif":"","motif_pos":-1,"best_pos":4,"similarity":0.393,"stretto":false,"stretto_voices":0,"combination":[],"aug_dim":"","rhythm_ratio":1.0,"mirror":false,"chromatic_density":0.429,"complexity":0.613,"dissonance":0.145},{"voice":2,"pitch":58,"start":146.1817,"duration":1.0909,"velocity":127,"measure":68,"beat":1.0,"subject_pos":6,"motif":"subject_inv","motif_pos":6,"best_pos":6,"similarity":1.0,"stretto":false,"stretto_voices":0,"combination":[],"aug_dim":"","rhythm_ratio":1.0,"mirror":false,"chromatic_density":0.429,"complexity":0.613,"dissonance":0.145},{"voice":3,"pitch":55,"start":146.1817,"duration":0.8182,"velocity":127,"measure":68,"beat":1.0,"subject_pos":-1,"motif":"","motif_pos":-1,"best_pos":1,"similarity":0.5,"stretto":false,"stretto_voices":0,"combination":[],"aug_dim":"","rhythm_ratio":1.0,"mirror":false,"chromatic_density":0.429,"complexity":0.613,"dissonance":0.145},{"voice":0,"pitch":72,"start":146.4544,"duration":0.2727,"velocity":127,"measure":68,"beat":1.5,"subject_pos":-1,"motif":"","motif_pos":-1,"best_pos":5,"similarity":0.5,"stretto":false,"stretto_voices":0,"combination":[],"aug_dim":"","rhythm_ratio":1.0,"mirror":false,"chromatic_density":0.429,"complexity":0.613,"dissonance":0.145},{"voice":0,"pitch":74,"start":146.7271,"duration":0.2727,"velocity":127,"measure":68,"beat":2.0,"subject_pos":-1,"motif":"","motif_pos":-1,"best_pos":5,"similarity":0.593,"stretto":false,"stretto_voices":0,"combination":[],"aug_dim":"","rhythm_ratio":1.0,"mirror":false,"chromatic_density":0.429,"complexity":0.613,"dissonance":0.145},{"voice":1,"pitch":74,"start":146.7271,"duration":0.2727,"velocity":127,"measure":68,"beat":2.0,"subject_pos":-1,"motif":"tail","motif_pos":3,"best_pos":3,"similarity":1.0,"stretto":false,"stretto_voices":0,"combination":[],"aug_dim":"","rhythm_ratio":1.0,"mirror":false,"chromatic_density":0.429,"complexity":0.613,"dissonance":0.145},{"voice":0,"pitch":76,"start":146.9999,"duration":0.2727,"velocity":127,"measure":68,"beat":2.5,"subject_pos":-1,"motif":"","motif_pos":-1,"best_pos":6,"similarity":0.65,"stretto":false,"stretto_voices":0,"combination":[],"aug_dim":"","rhythm_ratio":1.0,"mirror":false,"chromatic_density":0.429,"complexity":0.613,"dissonance":0.145},{"voice":1,"pitch":73,"start":146.9999,"duration":0.2727,"velocity":127,"measure":68,"beat":2.5,"subject_pos":-1,"motif":"tail","motif_pos":4,"best_pos":4,"similarity":1.0,"stretto":false,"stretto_voices":0,"combination":[],"aug_dim":"","rhythm_ratio":1.0,"mirror":false,"chromatic_density":0.429,"complexity":0.613,"dissonance":0.145},{"voice":3,"pitch":55,"start":146.9999,"duration":0.2727,"velocity":127,"measure":68,"beat":2.5,"subject_pos":-1,"motif":"","motif_pos":-1,"best_pos":2,"similarity":0.507,"stretto":false,"stretto_voices":0,"combination":[],"aug_dim":"","rhythm_ratio":1.0,"mirror":false,"chromatic_density":0.429,"complexity":0.613,"dissonance":0.145},{"voice":0,"pitch":77,"start":147.2726,"duration":0.2727,"velocity":127,"measure":68,"beat":3.0,"subject_pos":-1,"motif":"","motif_pos":-1,"best_pos":5,"similarity":0.657,"stretto":false,"stretto_voices":0,"combination":[],"aug_dim":"","rhythm_ratio":1.0,"mirror":false,"chromatic_density":0.429,"complexity":0.613,"dissonance":0.145},{"voice":1,"pitch":74,"start":147.2726,"duration":0.2727,"velocity":127,"measure":68,"beat":3.0,"subject_pos":-1,"motif":"tail","motif_pos":5,"best_pos":5,"similarity":1.0,"stretto":false,"stretto_voices":0,"combination":[],"aug_dim":"","rhythm_ratio":1.0,"mirror":false,"chromatic_density":0.429,"complexity":0.613,"dissonance":0.145},{"voice":2,"pitch":57,"start":147.2726,"duration":0.8182,"velocity":127,"measure":68,"beat":3.0,"subject_pos":7,"motif":"subject_inv","motif_pos":7,"best_pos":7,"similarity":1.0,"stretto":false,"stretto_voices":0,"combination":[],"aug_dim":"","rhythm_ratio":1.0,"mirror":false,"chromatic_density":0.429,"complexity":0.613,"dissonance":0.145},{"voice":3,"pitch":53,"start":147.2726,"duration":0.8182,"velocity":127,"measure":68,"beat":3.0,"subject_pos":-1,"motif":"","motif_pos":-1,"best_pos":3,"similarity":0.557,"stretto":false,"stretto_voices":0,"combination":[],"aug_dim":"","rhythm_ratio":1.0,"mirror":false,"chromatic_density":0.429,"complexity":0.613,"dissonance":0.145},{"voice":0,"pitch":79,"start":147.5453,"duration":0.2727,"velocity":127,"measure":68,"beat":3.5,"subject_pos":-1,"motif":"","motif_pos":-1,"best_pos":6,"similarity":0.579,"stretto":false,"stretto_voices":0,"combination":[],"aug_dim":"","rhythm_ratio":1.0,"mirror":false,"chromatic_density":0.429,"complexity":0.613,"dissonance":0.145},{"voice":1,"pitch":76,"start":147.5453,"duration":0.2727,"velocity":127,"measure":68,"beat":3.5,"subject_pos":-1,"motif":"tail","motif_pos":6,"best_pos":6,"similarity":1.0,"stretto":false,"stretto_voices":0,"combination":[],"aug_dim":"","rhythm_ratio":1.0,"mirror":false,"chromatic_density":0.429,"complexity":0.613,"dissonance":0.145},{"voice":0,"pitch":81,"start":147.818,"duration":0.8182,"velocity":127,"measure":68,"beat":4.0,"subject_pos":-1,"motif":"","motif_pos":-1,"best_pos":1,"similarity":0.457,"stretto":false,"stretto_voices":0,"combination":[],"aug_dim":"","rhythm_ratio":1.0,"mirror":false,"chromatic_density":0.429,"complexity":0.613,"dissonance":0.145},{"voice":1,"pitch":77,"start":147.818,"duration":1.0909,"velocity":127,"measure":68,"beat":4.0,"subject_pos":-1,"motif":"tail","motif_pos":7,"best_pos":7,"similarity":1.0,"stretto":false,"stretto_voices":0,"combination":[],"aug_dim":"","rhythm_ratio":1.0,"mirror":false,"chromatic_density":0.429,"complexity":0.613,"dissonance":0.145},{"voice":2,"pitch":55,"start":148.0908,"duration":0.2727,"velocity":127,"measure":68,"beat":4.5,"subject_pos":8,"motif":"subject_inv","motif_pos":8,"best_pos":0,"similarity":1.0,"stretto":false,"stretto_voices":0,"combination":[],"aug_dim":"","rhythm_ratio":1.0,"mirror":false,"chromatic_density":0.429,"complexity":0.613,"dissonance":0.145},{"voice":3,"pitch":52,"start":148.0908,"duration":0.2727,"velocity":127,"measure":68,"beat":4.5,"subject_pos":-1,"motif":"","motif_pos":-1,"best_pos":4,"similarity":0.425,"stretto":false,"stretto_voices":0,"combination":[],"aug_dim":"","rhythm_ratio":1.0,"mirror":false,"chromatic_density":0.429,"complexity":0.613,"dissonance":0.145},{"voice":2,"pitch":53,"start":148.3635,"duration":1.3636,"velocity":127,"measure":69,"beat":1.0,"subject_pos":-1,"motif":"","motif_pos":-1,"best_pos":3,"similarity":0.786,"stretto":false,"stretto_voices":0,"combination":[],"aug_dim":"","rhythm_ratio":1.0,"mirror":false,"chromatic_density":0.364,"complexity":0.533,"dissonance":0.122},{"voice":3,"pitch":50,"start":148.3635,"duration":0.8182,"velocity":127,"measure":69,"beat":1.0,"subject_pos":-1,"motif":"","motif_pos":-1,"best_pos":2,"similarity":0.5,"stretto":false,"stretto_voices":0,"combination":[],"aug_dim":"","rhythm_ratio":1.0,"mirror":false,"chromatic_density":0.364,"complexity":0.533,"dissonance":0.122},{"voice":0,"pitch":79,"start":148.6362,"duration":0.2727,"velocity":127,"measure":69,"beat":1.5,"subject_pos":-1,"motif":"","motif_pos":-1,"best_pos":2,"similarity":0.593,"stretto":false,"stretto_voices":0,"combination":[],"aug_dim":"","rhythm_ratio":1.0,"mirror":false,"chromatic_density":0.364,"complexity":0.533,"dissonance":0.122},{"voice":0,"pitch":77,"start":148.9089,"duration":0.2727,"velocity":127,"measure":69,"beat":2.0,"subject_pos":-1,"motif":"","motif_pos":-1,"best_pos":3,"similarity":0.6,"stretto":false,"stretto_voices":0,"combination":[],"aug_dim":"","rhythm_ratio":1.0,"mirror":false,"chromatic_density":0.364,"complexity":0.533,"dissonance":0.122},{"voice":1,"pitch":69,"start":148.9089,"duration":0.5455,"velocity":127,"measure":69,"beat":2.0,"subject_pos":-1,"motif":"","motif_pos":-1,"best_pos":6,"similarity":0.436,"stretto":false,"stretto_voices":0,"combination":[],"aug_dim":"","rhythm_ratio":1.0,"mirror":false,"chromatic_density":0.364,"complexity":0.533,"dissonance":0.122},{"voice":0,"pitch":76,"start":149.1817,"duration":0.2727,"velocity":127,"measure":69,"beat":2.5,"subject_pos":-1,"motif":"","motif_pos":-1,"best_pos":4,"similarity":0.507,"stretto":false,"stretto_voices":0,"combination":[],"aug_dim":"","rhythm_ratio":1.0,"mirror":false,"chromatic_density":0.364,"complexity":0.533,"dissonance":0.122},{"voice":3,"pitch":48,"start":149.1817,"duration":0.2727,"velocity":127,"measure":69,"beat":2.5,"subject_pos":-1,"motif":"","motif_pos":-1,"best_pos":2,"similarity":0.436,"stretto":false,"stretto_voices":0,"combination":[],"aug_dim":"","rhythm_ratio":1.0,"mirror":false,"chromatic_density":0.364,"complexity":0.533,"dissonance":0.122},{"voice":0,"pitch":74,"start":149.4544,"duration":1.0909,"velocity":127,"measure":69,"beat":3.0,"subject_pos":-1,"motif":"","motif_pos":-1,"best_pos":2,"similarity":0.536,"stretto":false,"stretto_voices":0,"combination":[],"aug_dim":"","rhythm_ratio":1.0,"mirror":false,"chromatic_density":0.364,"complexity":0.533,"dissonance":0.122},{"voice":1,"pitch":70,"start":149.4544,"duration":0.5455,"velocity":127,"measure":69,"beat":3.0,"subject_pos":-1,"motif":"","motif_pos":-1,"best_pos":5,"similarity":0.364,"stretto":false,"stretto_voices":0,"combination":[],"aug_dim":"","rhythm_ratio":1.0,"mirror":false,"chromatic_density":0.364,"complexity":0.533,"dissonance":0.122},{"voice":3,"pitch":46,"start":149.4544,"duration":1.0909,"velocity":127,"measure":69,"beat":3.0,"subject_pos":-1,"motif":"","motif_pos":-1,"best_pos":3,"similarity":0.371,"stretto":false,"stretto_voices":0,"combination":[],"aug_dim":"","rhythm_ratio":1.0,"mirror":false,"chromatic_density":0.364,"complexity":0.533,"dissonance":0.122},{"voice":2,"pitch":52,"start":149.7271,"duration":0.2727,"velocity":127,"measure":69,"beat":3.5,"subject_pos":-1,"motif":"","motif_pos":-1,"best_pos":4,"similarity":0.893,"stretto":false,"stretto_voices":0,"combination":[],"aug_dim":"","rhythm_ratio":1.0,"mirror":false,"chromatic_density":0.364,"complexity":0.533,"dissonance":0.122},{"voice":1,"pitch":62,"start":149.9999,"duration":0.2727,"velocity":127,"measure":69,"beat":4.0,"subject_pos":-1,"motif":"","motif_pos":-1,"best_pos":5,"similarity":0.464,"stretto":false,"stretto_voices":0,"combination":[],"aug_dim":"","rhythm_ratio":1.0,"mirror":false,"chromatic_density":0.364,"complexity":0.533,"dissonance":0.122},{"voice":2,"pitch":53,"start":149.9999,"duration":0.2727,"velocity":127,"measure":69,"beat":4.0,"subject_pos":-1,"motif":"","motif_pos":-1,"best_pos":5,"similarity":0.821,"stretto":false,"stretto_voices":0,"combination":[],"aug_dim":"","rhythm_ratio":1.0,"mirror":false,"chromatic_density":0.364,"complexity":0.533,"dissonance":0.122},{"voice":1,"pitch":64,"start":150.2726,"duration":0.2727,"velocity":127,"measure":69,"beat":4.5,"subject_pos":-1,"motif":"","motif_pos":-1,"best_pos":6,"similarity":0.589,"stretto":false,"stretto_voices":0,"combination":[],"aug_dim":"","rhythm_ratio":1.0,"mirror":false,"chromatic_density":0.364,"complexity":0.533,"dissonance":0.122},{"voice":2,"pitch":55,"start":150.2726,"duration":0.2727,"velocity":127,"measure":69,"beat":4.5,"subject_pos":-1,"motif":"","motif_pos":-1,"best_pos":6,"similarity":0.643,"stretto":false,"stretto_voices":0,"combination":[],"aug_dim":"","rhythm_ratio":1.0,"mirror":false,"chromatic_density":0.364,"complexity":0.533,"dissonance":0.122},{"voice":0,"pitch":72,"start":150.5453,"duration":1.3636,"velocity":127,"measure":70,"beat":1.0,"subject_pos":-1,"motif":"","motif_pos":-1,"best_pos":3,"similarity":0.571,"stretto":false,"stretto_voices":0,"combination":[],"aug_dim":"","rhythm_ratio":1.0,"mirror":false,"chromatic_density":0.333,"complexity":0.542,"dissonance":0.083},{"voice":1,"pitch":65,"start":150.5453,"duration":0.2727,"velocity":127,"measure":70,"beat":1.0,"subject_pos":-1,"motif":"","motif_pos":-1,"best_pos":3,"similarity":0.543,"stretto":false,"stretto_voices":0,"combination":[],"aug_dim":"","rhythm_ratio":1.0,"mirror":false,"chromatic_density":0.333,"complexity":0.542,"dissonance":0.083},{"voice":2,"pitch":57,"start":150.5453,"duration":0.2727,"velocity":127,"measure":70,"beat":1.0,"subject_pos":-1,"motif":"","motif_pos":-1,"best_pos":6,"similarity":0.446,"stretto":false,"stretto_voices":0,"combination":[],"aug_dim":"","rhythm_ratio":1.0,"mirror":false,"chromatic_density":0.333,"complexity":0.542,"dissonance":0.083},{"voice":3,"pitch":53,"start":150.5453,"duration":1.0909,"velocity":127,"measure":70,"beat":1.0,"subject_pos":-1,"motif":"","motif_pos":-1,"best_pos":1,"similarity":0.436,"stretto":false,"stretto_voices":0,"combination":[],"aug_dim":"","rhythm_ratio":1.0,"mirror":false,"chromatic_density":0.333,"complexity":0.542,"dissonance":0.083},{"voice":1,"pitch":64,"start":150.818,"duration":0.2727,"velocity":127,"measure":70,"beat":1.5,"subject_pos":-1,"motif":"","motif_pos":-1,"best_pos":4,"similarity":0.771,"stretto":false,"stretto_voices":0,"combination":[],"aug_dim":"","rhythm_ratio":1.0,"mirror":false,"chromatic_density":0.333,"complexity":0.542,"dissonance":0.083},{"voice":2,"pitch":60,"start":150.818,"duration":0.2727,"velocity":127,"measure":70,"beat":1.5,"subject_pos":-1,"motif":"","motif_pos":-1,"best_pos":5,"similarity":0.443,"stretto":false,"stretto_voices":0,"combination":[],"aug_dim":"","rhythm_ratio":1.0,"mirror":false,"chromatic_density":0.333,"complexity":0.542,"dissonance":0.083},{"voice":1,"pitch":65,"start":151.0908,"duration":0.2727,"velocity":127,"measure":70,"beat":2.0,"subject_pos":-1,"motif":"","motif_pos":-1,"best_pos":5,"similarity":0.793,"stretto":false,"stretto_voices":0,"combination":[],"aug_dim":"","rhythm_ratio":1.0,"mirror":false,"chromatic_density":0.333,"complexity":0.542,"dissonance":0.083},{"voice":2,"pitch":62,"start":151.0908,"duration":0.2727,"velocity":127,"measure":70,"beat":2.0,"subject_pos":-1,"motif":"","motif_pos":-1,"best_pos":5,"similarity":0.586,"stretto":false,"stretto_voices":0,"combination":[],"aug_dim":"","rhythm_ratio":1.0,"mirror":false,"chromatic_density":0.333,"complexity":0.542,"dissonance":0.083},{"voice":1,"pitch":67,"start":151.3635,"duration":0.2727,"velocity":127,"measure":70,"beat":2.5,"subject_pos":-1,"motif":"","motif_pos":-1,"best_pos":6,"similarity":0.643,"stretto":false,"stretto_voices":0,"combination":[],"aug_dim":"","rhythm_ratio":1.0,"mirror":false,"chromatic_density":0.333,"complexity":0.542,"dissonance":0.083},{"voice":2,"pitch":64,"start":151.3635,"duration":0.2727,"velocity":127,"measure":70,"beat":2.5,"subject_pos":-1,"motif":"","motif_pos":-1,"best_pos":6,"similarity":0.65,"stretto":false,"stretto_voices":0,"combination":[],"aug_dim":"","rhythm_ratio":1.0,"mirror":false,"chromatic_density":0.333,"complexity":0.542,"dissonance":0.083},{"voice":1,"pitch":69,"start":151.6362,"duration":0.8182,"velocity":127,"measure":70,"beat":3.0,"subject_pos":-1,"motif":"","motif_pos":-1,"best_pos":6,"similarity":0.404,"stretto":false,"stretto_voices":0,"combination":[],"aug_dim":"","rhythm_ratio":1.0,"mirror":false,"chromatic_density":0.333,"complexity":0.542,"dissonance":0.083},{"voice":2,"pitch":65,"start":151.6362,"duration":0.8182,"velocity":127,"measure":70,"beat":3.0,"subject_pos":-1,"motif":"","motif_pos":-1,"best_pos":7,"similarity":0.464,"stretto":false,"stretto_voices":0,"combination":[],"aug_dim":"","rhythm_ratio":1.0,"mirror":false,"chromatic_density":0.333,"complexity":0.542,"dissonance":0.083},{"voice":0,"pitch":72,"start":151.9089,"duration":0.2727,"velocity":127,"measure":70,"beat":3.5,"subject_pos":-1,"motif":"","motif_pos":-1,"best_pos":4,"similarity":0.643,"stretto":false,"stretto_voices":0,"combination":[],"aug_dim":"","rhythm_ratio":1.0,"mirror":false,"chromatic_density":0.333,"complexity":0.542,"dissonance":0.083},{"voice":0,"pitch":74,"start":152.1817,"duration":0.2727,"velocity":127,"measure":70,"beat":4.0,"subject_pos":-1,"motif":"","motif_pos":-1,"best_pos":5,"similarity":0.679,"stretto":false,"stretto_voices":0,"combination":[],"aug_dim":"","rhythm_ratio":1.0,"mirror":false,"chromatic_density":0.333,"complexity":0.542,"dissonance":0.083},{"voice":0,"pitch":76,"start":152.4544,"duration":0.2727,"velocity":127,"measure":70,"beat":4.5,"subject_pos":-1,"motif":"","motif_pos":-1,"best_pos":6,"similarity":0.679,"stretto":false,"stretto_voices":0,"combination":[],"aug_dim":"","rhythm_ratio":1.0,"mirror":false,"chromatic_density":0.333,"complexity":0.542,"dissonance":0.083},{"voice":1,"pitch":67,"start":152.4544,"duration":0.2727,"velocity":127,"measure":70,"beat":4.5,"subject_pos":-1,"motif":"","motif_pos":-1,"best_pos":2,"similarity":0.514,"stretto":false,"stretto_voices":0,"combination":[],"aug_dim":"","rhythm_ratio":1.0,"mirror":false,"chromatic_density":0.333,"complexity":0.542,"dissonance":0.083},{"voice":2,"pitch":64,"start":152.4544,"duration":0.2727,"velocity":127,"measure":70,"beat":4.5,"subject_pos":-1,"motif":"","motif_pos":-1,"best_pos":1,"similarity":0.393,"stretto":false,"stretto_voices":0,"combination":[],"aug_dim":"","rhythm_ratio":1.0,"mirror":false,"chromatic_density":0.333,"complexity":0.542,"dissonance":0.083},{"voice":0,"pitch":77,"start":152.7271,"duration":1.3636,"velocity":127,"measure":71,"beat":1.0,"subject_pos":-1,"motif":"","motif_pos":-1,"best_pos":5,"similarity":0.586,"stretto":false,"stretto_voices":0,"combination":[],"aug_dim":"","rhythm_ratio":1.0,"mirror":false,"chromatic_density":0.333,"complexity":0.514,"dissonance":0.039},{"voice":1,"pitch":65,"start":152.7271,"duration":0.2727,"velocity":127,"measure":71,"beat":1.0,"subject_pos":-1,"motif":"","motif_pos":-1,"best_pos":3,"similarity":0.507,"stretto":false,"stretto_voices":0,"combination":[],"aug_dim":"","rhythm_ratio":1.0,"mirror":false,"chromatic_density":0.333,"complexity":0.514,"dissonance":0.039},{"voice":2,"pitch":62,"start":152.7271,"duration":0.8182,"velocity":127,"measure":71,"beat":1.0,"subject_pos":-1,"motif":"","motif_pos":-1,"best_pos":2,"similarity":0.518,"stretto":false,"stretto_voices":0,"combination":[],"aug_dim":"","rhythm_ratio":1.0,"mirror":false,"chromatic_density":0.333,"complexity":0.514,"dissonance":0.039},{"voice":1,"pitch":69,"start":152.9998,"duration":0.2727,"velocity":127,"measure":71,"beat":1.5,"subject_pos":-1,"motif":"","motif_pos":-1,"best_pos":4,"similarity":0.607,"stretto":false,"stretto_voices":0,"combination":[],"aug_dim":"","rhythm_ratio":1.0,"mirror":false,"chromatic_density":0.333,"complexity":0.514,"dissonance":0.039},{"voice":1,"pitch":70,"start":153.2726,"duration":0.2727,"velocity":127,"measure":71,"beat":2.0,"subject_pos":-1,"motif":"","motif_pos":-1,"best_pos":5,"similarity":0.679,"stretto":false,"stretto_voices":0,"combination":[],"aug_dim":"","rhythm_ratio":1.0,"mirror":false,"chromatic_density":0.333,"complexity":0.514,"dissonance":0.039},{"voice":1,"pitch":72,"start":153.5453,"duration":0.2727,"velocity":127,"measure":71,"beat":2.5,"subject_pos":-1,"motif":"","motif_pos":-1,"best_pos":6,"similarity":0.571,"stretto":false,"stretto_voices":0,"combination":[],"aug_dim":"","rhythm_ratio":1.0,"mirror":false,"chromatic_density":0.333,"complexity":0.514,"dissonance":0.039},{"voice":2,"pitch":60,"start":153.5453,"duration":0.2727,"velocity":127,"measure":71,"beat":2.5,"subject_pos":-1,"motif":"","motif_pos":-1,"best_pos":2,"similarity":0.579,"stretto":false,"stretto_voices":0,"combination":[],"aug_dim":"","rhythm_ratio":1.0,"mirror":false,"chromatic_density":0.333,"complexity":0.514,"dissonance":0.039},{"voice":1,"pitch":74,"start":153.818,"duration":1.9091,"velocity":127,"measure":71,"beat":3.0,"subject_pos":-1,"motif":"","motif_pos":-1,"best_pos":1,"similarity":0.457,"stretto":false,"stretto_voices":0,"combination":[],"aug_dim":"","rhythm_ratio":1.0,"mirror":false,"chromatic_density":0.333,"complexity":0.514,"dissonance":0.039},{"voice":2,"pitch":58,"start":153.818,"duration":0.8182,"velocity":127,"measure":71,"beat":3.0,"subject_pos":-1,"motif":"","motif_pos":-1,"best_pos":3,"similarity":0.586,"stretto":false,"stretto_voices":0,"combination":[],"aug_dim":"","rhythm_ratio":1.0,"mirror":false,"chromatic_density":0.333,"complexity":0.514,"dissonance":0.039},{"voice":0,"pitch":78,"start":154.0908,"duration":0.2727,"velocity":127,"measure":71,"beat":3.5,"subject_pos":-1,"motif":"","motif_pos":-1,"best_pos":4,"similarity":0.593,"stretto":false,"stretto_voices":0,"combination":[],"aug_dim":"","rhythm_ratio":1.0,"mirror":false,"chromatic_density":0.333,"complexity":0.514,"dissonance":0.039},{"voice":3,"pitch":50,"start":154.0908,"duration":0.2727,"velocity":127,"measure":71,"beat":3.5,"subject_pos":-1,"motif":"","motif_pos":-1,"best_pos":4,"similarity":0.5,"stretto":false,"stretto_voices":0,"combination":[],"aug_dim":"","rhythm_ratio":1.0,"mirror":false,"chromatic_density":0.333,"complexity":0.514,"dissonance":0.039},{"voice":0,"pitch":79,"start":154.3635,"duration":0.2727,"velocity":127,"measure":71,"beat":4.0,"subject_pos":-1,"motif":"","motif_pos":-1,"best_pos":5,"similarity":0.757,"stretto":false,"stretto_voices":0,"combination":[],"aug_dim":"","rhythm_ratio":1.0,"mirror":false,"chromatic_density":0.333,"complexity":0.514,"dissonance":0.039},{"voice":3,"pitch":52,"start":154.3635,"duration":0.2727,"velocity":127,"measure":71,"beat":4.0,"subject_pos":-1,"motif":"","motif_pos":-1,"best_pos":5,"similarity":0.607,"stretto":false,"stretto_voices":0,"combination":[],"aug_dim":"","rhythm_ratio":1.0,"mirror":false,"chromatic_density":0.333,"complexity":0.514,"dissonance":0.039},{"voice":0,"pitch":81,"start":154.6362,"duration":0.2727,"velocity":127,"measure":71,"beat":4.5,"subject_pos":-1,"motif":"","motif_pos":-1,"best_pos":6,"similarity":0.732,"stretto":false,"stretto_voices":0,"combination":[],"aug_dim":"","rhythm_ratio":1.0,"mirror":false,"chromatic_density":0.333,"complexity":0.514,"dissonance":0.039},{"voice":2,"pitch":57,"start":154.6362,"duration":0.2727,"velocity":127,"measure":71,"beat":4.5,"subject_pos":-1,"motif":"","motif_pos":-1,"best_pos":4,"similarity":0.493,"stretto":false,"stretto_voices":0,"combination":[],"aug_dim":"","rhythm_ratio":1.0,"mirror":false,"chromatic_density":0.333,"complexity":0.514,"dissonance":0.039},{"voice":3,"pitch":54,"start":154.6362,"duration":0.2727,"velocity":127,"measure":71,"beat":4.5,"subject_pos":-1,"motif":"","motif_pos":-1,"best_pos":6,"similarity":0.661,"stretto":false,"stretto_voices":0,"combination":[],"aug_dim":"","rhythm_ratio":1.0,"mirror":false,"chromatic_density":0.333,"complexity":0.514,"dissonance":0.039},{"voice":0,"pitch":82,"start":154.9089,"duration":1.0909,"velocity":127,"measure":72,"beat":1.0,"subject_pos":-1,"motif":"","motif_pos":-1,"best_pos":7,"similarity":0.5,"stretto":false,"stretto_voices":0,"combination":[],"aug_dim":"","rhythm_ratio":1.0,"mirror":false,"chromatic_density":0.3,"complexity":0.498,"dissonance":0.156},{"voice":2,"pitch":55,"start":154.9089,"duration":0.2727,"velocity":127,"measure":72,"beat":1.0,"subject_pos":-1,"motif":"","motif_pos":-1,"best_pos":4,"similarity":0.429,"stretto":false,"stretto_voices":0,"combination":[],"aug_dim":"","rhythm_ratio":1.0,"mirror":false,"chromatic_density":0.3,"complexity":0.498,"dissonance":0.156},{"voice":3,"pitch":55,"start":154.9089,"duration":1.0909,"velocity":127,"measure":72,"beat":1.0,"subject_pos":-1,"motif":"","motif_pos":-1,"best_pos":7,"similarity":0.464,"stretto":false,"stretto_voices":0,"combination":[],"aug_dim":"","rhythm_ratio":1.0,"mirror":false,"chromatic_density":0.3,"complexity":0.498,"dissonance":0.156},{"voice":2,"pitch":62,"start":155.1817,"duration":0.2727,"velocity":127,"measure":72,"beat":1.5,"subject_pos":-1,"motif":"","motif_pos":-1,"best_pos":4,"similarity":0.464,"stretto":false,"stretto_voices":0,"combination":[],"aug_dim":"","rhythm_ratio":1.0,"mirror":false,"chromatic_density":0.3,"complexity":0.498,"dissonance":0.156},{"voice":2,"pitch":64,"start":155.4544,"duration":0.2727,"velocity":127,"measure":72,"beat":2.0,"subject_pos":-1,"motif":"","motif_pos":-1,"best_pos":5,"similarity":0.607,"stretto":false,"stretto_voices":0,"combination":[],"aug_dim":"","rhythm_ratio":1.0,"mirror":false,"chromatic_density":0.3,"complexity":0.498,"dissonance":0.156},{"voice":1,"pitch":72,"start":155.7271,"duration":0.2727,"velocity":127,"measure":72,"beat":2.5,"subject_pos":-1,"motif":"","motif_pos":-1,"best_pos":2,"similarity":0.593,"stretto":false,"stretto_voices":0,"combination":[],"aug_dim":"","rhythm_ratio":1.0,"mirror":false,"chromatic_density":0.3,"complexity":0.498,"dissonance":0.156},{"voice":2,"pitch":66,"start":155.7271,"duration":0.2727,"velocity":127,"measure":72,"beat":2.5,"subject_pos":-1,"motif":"","motif_pos":-1,"best_pos":6,"similarity":0.643,"stretto":false,"stretto_voices":0,"combination":[],"aug_dim":"","rhythm_ratio":1.0,"mirror":false,"chromatic_density":0.3,"complexity":0.498,"dissonance":0.156},{"voice":1,"pitch":70,"start":155.9998,"duration":0.8182,"velocity":127,"measure":72,"beat":3.0,"subject_pos":-1,"motif":"","motif_pos":-1,"best_pos":3,"similarity":0.611,"stretto":false,"stretto_voices":0,"combination":[],"aug_dim":"","rhythm_ratio":1.0,"mirror":false,"chromatic_density":0.3,"complexity":0.498,"dissonance":0.156},{"voice":2,"pitch":67,"start":155.9998,"duration":0.8182,"velocity":127,"measure":72,"beat":3.0,"subject_pos":-1,"motif":"","motif_pos":-1,"best_pos":7,"similarity":0.464,"stretto":false,"stretto_voices":0,"combination":[],"aug_dim":"","rhythm_ratio":1.0,"mirror":false,"chromatic_density":0.3,"complexity":0.498,"dissonance":0.156},{"voice":0,"pitch":74,"start":156.2726,"duration":0.2727,"velocity":127,"measure":72,"beat":3.5,"subject_pos":-1,"motif":"","motif_pos":-1,"best_pos":5,"similarity":0.464,"stretto":false,"stretto_voices":0,"combination":[],"aug_dim":"","rhythm_ratio":1.0,"mirror":false,"chromatic_density":0.3,"complexity":0.498,"dissonance":0.156},{"voice":0,"pitch":76,"start":156.5453,"duration":0.2727,"velocity":127,"measure":72,"beat":4.0,"subject_pos":-1,"motif":"","motif_pos":-1,"best_pos":6,"similarity":0.589,"stretto":false,"stretto_voices":0,"combination":[],"aug_dim":"","rhythm_ratio":1.0,"mirror":false,"chromatic_density":0.3,"complexity":0.498,"dissonance":0.156},{"voice":0,"pitch":77,"start":156.818,"duration":0.2727,"velocity":127,"measure":72,"beat":4.5,"subject_pos":-1,"motif":"","motif_pos":-1,"best_pos":5,"similarity":0.729,"stretto":false,"stretto_voices":0,"combination":[],"aug_dim":"","rhythm_ratio":1.0,"mirror":false,"chromatic_density":0.3,"complexity":0.498,"dissonance":0.156},{"voice":1,"pitch":69,"start":156.818,"duration":0.2727,"velocity":127,"measure":72,"beat":4.5,"subject_pos":-1,"motif":"","motif_pos":-1,"best_pos":4,"similarity":0.564,"stretto":false,"stretto_voices":0,"combination":[],"aug_dim":"","rhythm_ratio":1.0,"mirror":false,"chromatic_density":0.3,"complexity":0.498,"dissonance":0.156},{"voice":2,"pitch":65,"start":156.818,"duration":0.2727,"velocity":127,"measure":72,"beat":4.5,"subject_pos":-1,"motif":"","motif_pos":-1,"best_pos":3,"similarity":0.471,"stretto":false,"stretto_voices":0,"combination":[],"aug_dim":"","rhythm_ratio":1.0,"mirror":false,"chromatic_density":0.3,"complexity":0.498,"dissonance":0.156},{"voice":0,"pitch":79,"start":157.0908,"duration":1.3636,"velocity":127,"measure":73,"beat":1.0,"subject_pos":-1,"motif":"","motif_pos":-1,"best_pos":6,"similarity":0.721,"stretto":false,"stretto_voices":0,"combination":[],"aug_dim":"","rhythm_ratio":1.0,"mirror":false,"chromatic_density":0.333,"complexity":0.514,"dissonance":0.085},{"voice":1,"pitch":67,"start":157.0908,"duration":0.2727,"velocity":127,"measure":73,"beat":1.0,"subject_pos":-1,"motif":"","motif_pos":-1,"best_pos":3,"similarity":0.429,"stretto":false,"stretto_voices":0,"combination":[],"aug_dim":"","rhythm_ratio":1.0,"mirror":false,"chromatic_density":0.333,"complexity":0.514,"dissonance":0.085},{"voice":2,"pitch":64,"start":157.0908,"duration":0.8182,"velocity":127,"measure":73,"beat":1.0,"subject_pos":-1,"motif":"","motif_pos":-1,"best_pos":1,"similarity":0.429,"stretto":false,"stretto_voices":0,"combination":[],"aug_dim":"","rhythm_ratio":1.0,"mirror":false,"chromatic_density":0.333,"complexity":0.514,"dissonance":0.085},{"voice":1,"pitch":71,"start":157.3635,"duration":0.2727,"velocity":127,"measure":73,"beat":1.5,"subject_pos":-1,"motif":"","motif_pos":-1,"best_pos":4,"similarity":0.571,"stretto":false,"stretto_voices":0,"combination":[],"aug_dim":"","rhythm_ratio":1.0,"mirror":false,"chromatic_density":0.333,"complexity":0.514,"dissonance":0.085},{"voice":1,"pitch":72,"start":157.6362,"duration":0.2727,"velocity":127,"measure":73,"beat":2.0,"subject_pos":-1,"motif":"","motif_pos":-1,"best_pos":5,"similarity":0.679,"stretto":false,"stretto_voices":0,"combination":[],"aug_dim":"","rhythm_ratio":1.0,"mirror":false,"chromatic_density":0.333,"complexity":0.514,"dissonance":0.085},{"voice":1,"pitch":74,"start":157.9089,"duration":0.2727,"velocity":127,"measure":73,"beat":2.5,"subject_pos":-1,"motif":"","motif_pos":-1,"best_pos":6,"similarity":0.571,"stretto":false,"stretto_voices":0,"combination":[],"aug_dim":"","rhythm_ratio":1.0,"mirror":false,"chromatic_density":0.333,"complexity":0.514,"dissonance":0.085},{"voice":2,"pitch":62,"start":157.9089,"duration":0.2727,"velocity":127,"measure":73,"beat":2.5,"subject_pos":-1,"motif":"","motif_pos":-1,"best_pos":2,"similarity":0.579,"stretto":false,"stretto_voices":0,"combination":[],"aug_dim":"","rhythm_ratio":1.0,"mirror":false,"chromatic_density":0.333,"complexity":0.514,"dissonance":0.085},{"voice":1,"pitch":76,"start":158.1817,"duration":1.9091,"velocity":127,"measure":73,"beat":3.0,"subject_pos":-1,"motif":"","motif_pos":-1,"best_pos":1,"similarity":0.457,"stretto":false,"stretto_voices":0,"combination":[],"aug_dim":"","rhythm_ratio":1.0,"mirror":false,"chromatic_density":0.333,"complexity":0.514,"dissonance":0.085},{"voice":2,"pitch":60,"start":158.1817,"duration":0.8182,"velocity":127,"measure":73,"beat":3.0,"subject_pos":-1,"motif":"","motif_pos":-1,"best_pos":3,"similarity":0.586,"stretto":false,"stretto_voices":0,"combination":[],"aug_dim":"","rhythm_ratio":1.0,"mirror":false,"chromatic_density":0.333,"complexity":0.514,"dissonance":0.085},{"voice":0,"pitch":80,"start":158.4544,"duration":0.2727,"velocity":127,"measure":73,"beat":3.5,"subject_pos":-1,"motif":"","motif_pos":-1,"best_pos":4,"similarity":0.579,"stretto":false,"stretto_voices":0,"combination":[],"aug_dim":"","rhythm_ratio":1.0,"mirror":false,"chromatic_density":0.333,"complexity":0.514,"dissonance":0.085},{"voice":3,"pitch":52,"start":158.4544,"duration":0.2727,"velocity":127,"measure":73,"beat":3.5,"subject_pos":-1,"motif":"","motif_pos":-1,"best_pos":4,"similarity":0.45,"stretto":false,"stretto_voices":0,"combination":[],"aug_dim":"","rhythm_ratio":1.0,"mirror":false,"chromatic_density":0.333,"complexity":0.514,"dissonance":0.085},{"voice":0,"pitch":81,"start":158.7271,"duration":0.2727,"velocity":127,"measure":73,"beat":4.0,"subject_pos":-1,"motif":"","motif_pos":-1,"best_pos":5,"similarity":0.75,"stretto":false,"stretto_voices":0,"combination":[],"aug_dim":"","rhythm_ratio":1.0,"mirror":false,"chromatic_density":0.333,"complexity":0.514,"dissonance":0.085},{"voice":3,"pitch":54,"start":158.7271,"duration":0.2727,"velocity":127,"measure":73,"beat":4.0,"subject_pos":-1,"motif":"","motif_pos":-1,"best_pos":5,"similarity":0.614,"stretto":false,"stretto_voices":0,"combination":[],"aug_dim":"","rhythm_ratio":1.0,"mirror":false,"chromatic_density":0.333,"complexity":0.514,"dissonance":0.085},{"voice":0,"pitch":83,"start":158.9998,"duration":0.2727,"velocity":127,"measure":73,"beat":4.5,"subject_pos":-1,"motif":"","motif_pos":-1,"best_pos":6,"similarity":0.732,"stretto":false,"stretto_voices":0,"combination":[],"aug_dim":"","rhythm_ratio":1.0,"mirror":false,"chromatic_density":0.333,"complexity":0.514,"dissonance":0.085},{"voice":2,"pitch":59,"start":158.9998,"duration":0.2727,"velocity":127,"measure":73,"beat":4.5,"subject_pos":-1,"motif":"","motif_pos":-1,"best_pos":4,"similarity":0.493,"stretto":false,"stretto_voices":0,"combination":[],"aug_dim":"","rhythm_ratio":1.0,"mirror":false,"chromatic_density":0.333,"complexity":0.514,"dissonance":0.085},{"voice":3,"pitch":56,"start":158.9998,"duration":0.2727,"velocity":127,"measure":73,"beat":4.5,"subject_pos":-1,"motif":"","motif_pos":-1,"best_pos":6,"similarity":0.661,"stretto":false,"stretto_voices":0,"combination":[],"aug_dim":"","rhythm_ratio":1.0,"mirror":false,"chromatic_density":0.333,"complexity":0.514,"dissonance":0.085},{"voice":0,"pitch":84,"start":159.2726,"duration":1.0909,"velocity":127,"measure":74,"beat":1.0,"subject_pos":-1,"motif":"","motif_pos":-1,"best_pos":7,"similarity":0.5,"stretto":false,"stretto_voices":0,"combination":[],"aug_dim":"","rhythm_ratio":1.0,"mirror":false,"chromatic_density":0.3,"complexity":0.498,"dissonance":0.103},{"voice":2,"pitch":57,"start":159.2726,"duration":0.2727,"velocity":127,"measure":74,"beat":1.0,"subject_pos":-1,"motif":"","motif_pos":-1,"best_pos":4,"similarity":0.429,"stretto":false,"stretto_voices":0,"combination":[],"aug_dim":"","rhythm_ratio":1.0,"mirror":false,"chromatic_density":0.3,"complexity":0.498,"dissonance":0.103},{"voice":3,"pitch":57,"start":159.2726,"duration":1.0909,"velocity":127,"measure":74,"beat":1.0,"subject_pos":-1,"motif":"","motif_pos":-1,"best_pos":5,"similarity":0.514,"stretto":false,"stretto_voices":0,"combination":[],"aug_dim":"","rhythm_ratio":1.0,"mirror":false,"chromatic_density":0.3,"complexity":0.498,"dissonance":0.103},{"voice":2,"pitch":64,"start":159.5453,"duration":0.2727,"velocity":127,"measure":74,"beat":1.5,"subject_pos":-1,"motif":"","motif_pos":-1,"best_pos":4,"similarity":0.464,"stretto":false,"stretto_voices":0,"combination":[],"aug_dim":"","rhythm_ratio":1.0,"mirror":false,"chromatic_density":0.3,"complexity":0.498,"dissonance":0.103},{"voice":2,"pitch":66,"start":159.818,"duration":0.2727,"velocity":127,"measure":74,"beat":2.0,"subject_pos":-1,"motif":"","motif_pos":-1,"best_pos":5,"similarity":0.607,"stretto":false,"stretto_voices":0,"combination":[],"aug_dim":"","rhythm_ratio":1.0,"mirror":false,"chromatic_density":0.3,"complexity":0.498,"dissonance":0.103},{"voice":1,"pitch":74,"start":160.0907,"duration":0.2727,"velocity":127,"measure":74,"beat":2.5,"subject_pos":-1,"motif":"","motif_pos":-1,"best_pos":2,"similarity":0.657,"stretto":false,"stretto_voices":0,"combination":[],"aug_dim":"","rhythm_ratio":1.0,"mirror":false,"chromatic_density":0.3,"complexity":0.498,"dissonance":0.103},{"voice":2,"pitch":68,"start":160.0907,"duration":0.2727,"velocity":127,"measure":74,"beat":2.5,"subject_pos":-1,"motif":"","motif_pos":-1,"best_pos":6,"similarity":0.643,"stretto":false,"stretto_voices":0,"combination":[],"aug_dim":"","rhythm_ratio":1.0,"mirror":false,"chromatic_density":0.3,"complexity":0.498,"dissonance":0.103},{"voice":1,"pitch":72,"start":160.3635,"duration":0.8182,"velocity":127,"measure":74,"beat":3.0,"subject_pos":-1,"motif":"","motif_pos":-1,"best_pos":3,"similarity":0.721,"stretto":false,"stretto_voices":0,"combination":[],"aug_dim":"","rhythm_ratio":1.0,"mirror":false,"chromatic_density":0.3,"complexity":0.498,"dissonance":0.103},{"voice":2,"pitch":69,"start":160.3635,"duration":0.8182,"velocity":127,"measure":74,"beat":3.0,"subject_pos":-1,"motif":"","motif_pos":-1,"best_pos":7,"similarity":0.464,"stretto":false,"stretto_voices":0,"combination":[],"aug_dim":"","rhythm_ratio":1.0,"mirror":false,"chromatic_density":0.3,"complexity":0.498,"dissonance":0.103},{"voice":0,"pitch":76,"start":160.6362,"duration":0.2727,"velocity":127,"measure":74,"beat":3.5,"subject_pos":-1,"motif":"","motif_pos":-1,"best_pos":4,"similarity":0.486,"stretto":false,"stretto_voices":0,"combination":[],"aug_dim":"","rhythm_ratio":1.0,"mirror":false,"chromatic_density":0.3,"complexity":0.498,"dissonance":0.103},{"voice":0,"pitch":77,"start":160.9089,"duration":0.2727,"velocity":127,"measure":74,"beat":4.0,"subject_pos":-1,"motif":"","motif_pos":-1,"best_pos":5,"similarity":0.65,"stretto":false,"stretto_voices":0,"combination":[],"aug_dim":"","rhythm_ratio":1.0,"mirror":false,"chromatic_density":0.3,"complexity":0.498,"dissonance":0.103},{"voice":0,"pitch":79,"start":161.1817,"duration":0.2727,"velocity":127,"measure":74,"beat":4.5,"subject_pos":-1,"motif":"","motif_pos":-1,"best_pos":6,"similarity":0.571,"stretto":false,"stretto_voices":0,"combination":[],"aug_dim":"","rhythm_ratio":1.0,"mirror":false,"chromatic_density":0.3,"complexity":0.498,"dissonance":0.103},{"voice":1,"pitch":71,"start":161.1817,"duration":0.2727,"velocity":127,"measure":74,"beat":4.5,"subject_pos":-1,"motif":"","motif_pos":-1,"best_pos":4,"similarity":0.75,"stretto":false,"stretto_voices":0,"combination":[],"aug_dim":"","rhythm_ratio":1.0,"mirror":false,"chromatic_density":0.3,"complexity":0.498,"dissonance":0.103},{"voice":2,"pitch":67,"start":161.1817,"duration":0.2727,"velocity":127,"measure":74,"beat":4.5,"subject_pos":-1,"motif":"","motif_pos":-1,"best_pos":2,"similarity":0.657,"stretto":false,"stretto_voices":0,"combination":[],"aug_dim":"","rhythm_ratio":1.0,"mirror":false,"chromatic_density":0.3,"complexity":0.498,"dissonance":0.103},{"voice":0,"pitch":81,"start":161.4544,"duration":1.0909,"velocity":127,"measure":75,"beat":1.0,"subject_pos":0,"motif":"subject_inv","motif_pos":0,"best_pos":0,"similarity":1.0,"stretto":false,"stretto_voices":0,"combination":[],"aug_dim":"","rhythm_ratio":1.0,"mirror":false,"chromatic_density":0.231,"complexity":0.74,"dissonance":0.079},{"voice":1,"pitch":72,"start":161.4544,"duration":1.0909,"velocity":127,"measure":75,"beat":1.0,"subject_pos":-1,"motif":"head_inv","motif_pos":0,"best_pos":0,"similarity":1.0,"stretto":false,"stretto_voices":0,"combination":[],"aug_dim":"","rhythm_ratio":1.0,"mirror":false,"chromatic_density":0.231,"complexity":0.74,"dissonance":0.079},{"voice":2,"pitch":65,"start":161.4544,"duration":0.2727,"velocity":127,"measure":75,"beat":1.0,"subject_pos":-1,"motif":"","motif_pos":-1,"best_pos":3,"similarity":0.721,"stretto":false,"stretto_voices":0,"combination":[],"aug_dim":"","rhythm_ratio":1.0,"mirror":false,"chromatic_density":0.231,"complexity":0.74,"dissonance":0.079},{"voice":2,"pitch":64,"start":161.7271,"duration":0.2727,"velocity":127,"measure":75,"beat":1.5,"subject_pos":-1,"motif":"enigmatic_cell","motif_pos":0,"best_pos":0,"similarity":1.0,"stretto":false,"stretto_voices":0,"combination":[],"aug_dim":"","rhythm_ratio":1.0,"mirror":false,"chromatic_density":0.231,"complexity":0.74,"dissonance":0.079},{"voice":2,"pitch":65,"start":161.9998,"duration":0.2727,"velocity":127,"measure":75,"beat":2.0,"subject_pos":-1,"motif":"enigmatic_cell","motif_pos":1,"best_pos":1,"similarity":1.0,"stretto":false,"stretto_voices":0,"combination":[],"aug_dim":"","rhythm_ratio":1.0,"mirror":false,"chromatic_density":0.231,"complexity":0.74,"dissonance":0.079},{"voice":3,"pitch":57,"start":161.9998,"duration":0.5455,"velocity":127,"measure":75,"beat":2.0,"subject_pos":-1,"motif":"enigmatic_cell","motif_pos":0,"best_pos":0,"similarity":1.0,"stretto":false,"stretto_voices":0,"combination":[],"aug_dim":"","rhythm_ratio":1.0,"mirror":false,"chromatic_density":0.231,"complexity":0.74,"dissonance":0.079},{"voice":2,"pitch":60,"start":162.2726,"duration":0.2727,"velocity":127,"measure":75,"beat":2.5,"subject_pos":-1,"motif":"enigmatic_cell","motif_pos":2,"best_pos":2,"similarity":1.0,"stretto":false,"stretto_voices":0,"combination":[],"aug_dim":"","rhythm_ratio":1.0,"mirror":false,"chromatic_density":0.231,"complexity":0.74,"dissonance":0.079},{"voice":0,"pitch":74,"start":162.5453,"duration":0.8182,"velocity":127,"measure":75,"beat":3.0,"subject_pos":1,"motif":"subject_inv","motif_pos":1,"best_pos":1,"similarity":1.0,"stretto":false,"stretto_voices":0,"combination":[],"aug_dim":"","rhythm_ratio":1.0,"mirror":false,"chromatic_density":0.231,"complexity":0.74,"dissonance":0.079},{"voice":1,"pitch":65,"start":162.5453,"duration":0.8182,"velocity":127,"measure":75,"beat":3.0,"subject_pos":-1,"motif":"head_inv","motif_pos":1,"best_pos":1,"similarity":1.0,"stretto":false,"stretto_voices":0,"combination":[],"aug_dim":"","rhythm_ratio":1.0,"mirror":false,"chromatic_density":0.231,"complexity":0.74,"dissonance":0.079},{"voice":2,"pitch":62,"start":162.5453,"duration":0.2727,"velocity":127,"measure":75,"beat":3.0,"subject_pos":-1,"motif":"","motif_pos":-1,"best_pos":6,"similarity":0.332,"stretto":false,"stretto_voices":0,"combination":[],"aug_dim":"","rhythm_ratio":1.0,"mirror":false,"chromatic_density":0.231,"complexity":0.74,"dissonance":0.079},{"voice":3,"pitch":58,"start":162.5453,"duration":0.5455,"velocity":127,"measure":75,"beat":3.0,"subject_pos":-1,"motif":"enigmatic_cell","motif_pos":1,"best_pos":1,"similarity":1.0,"stretto":false,"stretto_voices":0,"combination":[],"aug_dim":"","rhythm_ratio":1.0,"mirror":false,"chromatic_density":0.231,"complexity":0.74,"dissonance":0.079},{"voice":2,"pitch":60,"start":162.818,"duration":0.2727,"velocity":127,"measure":75,"beat":3.5,"subject_pos":-1,"motif":"","motif_pos":-1,"best_pos":5,"similarity":0.346,"stretto":false,"stretto_voices":0,"combination":[],"aug_dim":"","rhythm_ratio":1.0,"mirror":false,"chromatic_density":0.231,"complexity":0.74,"dissonance":0.079},{"voice":2,"pitch":62,"start":163.0907,"duration":0.2727,"velocity":127,"measure":75,"beat":4.0,"subject_pos":-1,"motif":"","motif_pos":-1,"best_pos":1,"similarity":0.386,"stretto":false,"stretto_voices":0,"combination":[],"aug_dim":"","rhythm_ratio":1.0,"mirror":false,"chromatic_density":0.231,"complexity":0.74,"dissonance":0.079},{"voice":3,"pitch":53,"start":163.0907,"duration":0.5455,"velocity":127,"measure":75,"beat":4.0,"subject_pos":-1,"motif":"enigmatic_cell","motif_pos":2,"best_pos":2,"similarity":1.0,"stretto":false,"stretto_voices":0,"combination":[],"aug_dim":"","rhythm_ratio":1.0,"mirror":false,"chromatic_density":0.231,"complexity":0.74,"dissonance":0.079},{"voice":0,"pitch":76,"start":163.3635,"duration":0.2727,"velocity":127,"measure":75,"beat":4.5,"subject_pos":2,"motif":"subject_inv","motif_pos":2,"best_pos":2,"similarity":1.0,"stretto":false,"stretto_voices":0,"combination":[],"aug_dim":"","rhythm_ratio":1.0,"mirror":false,"chromatic_density":0.231,"complexity":0.74,"dissonance":0.079},{"voice":1,"pitch":67,"start":163.3635,"duration":0.2727,"velocity":127,"measure":75,"beat":4.5,"subject_pos":-1,"motif":"head_inv","motif_pos":2,"best_pos":2,"similarity":1.0,"stretto":false,"stretto_voices":0,"combination":[],"aug_dim":"","rhythm_ratio":1.0,"mirror":false,"chromatic_density":0.231,"complexity":0.74,"dissonance":0.079},{"voice":2,"pitch":58,"start":163.3635,"duration":0.2727,"velocity":127,"measure":75,"beat":4.5,"subject_pos":-1,"motif":"","motif_pos":-1,"best_pos":3,"similarity":0.464,"stretto":false,"stretto_voices":0,"combination":[],"aug_dim":"","rhythm_ratio":1.0,"mirror":false,"chromatic_density":0.231,"complexity":0.74,"dissonance":0.079},{"voice":0,"pitch":77,"start":163.6362,"duration":0.8182,"velocity":127,"measure":76,"beat":1.0,"subject_pos":3,"motif":"subject_inv","motif_pos":3,"best_pos":3,"similarity":1.0,"stretto":false,"stretto_voices":0,"combination":[],"aug_dim":"","rhythm_ratio":1.0,"mirror":false,"chromatic_density":0.273,"complexity":0.613,"dissonance":0.048},{"voice":1,"pitch":69,"start":163.6362,"duration":0.8182,"velocity":127,"measure":76,"beat":1.0,"subject_pos":-1,"motif":"head_inv","motif_pos":3,"best_pos":3,"similarity":1.0,"stretto":false,"stretto_voices":0,"combination":[],"aug_dim":"","rhythm_ratio":1.0,"mirror":false,"chromatic_density":0.273,"complexity":0.613,"dissonance":0.048},{"voice":2,"pitch":57,"start":163.6362,"duration":0.2727,"velocity":127,"measure":76,"beat":1.0,"subject_pos":-1,"motif":"","motif_pos":-1,"best_pos":1,"similarity":0.429,"stretto":false,"stretto_voices":0,"combination":[],"aug_dim":"","rhythm_ratio":1.0,"mirror":false,"chromatic_density":0.273,"complexity":0.613,"dissonance":0.048},{"voice":2,"pitch":55,"start":163.9089,"duration":0.2727,"velocity":127,"measure":76,"beat":1.5,"subject_pos":-1,"motif":"","motif_pos":-1,"best_pos":2,"similarity":0.643,"stretto":false,"stretto_voices":0,"combination":[],"aug_dim":"","rhythm_ratio":1.0,"mirror":false,"chromatic_density":0.273,"complexity":0.613,"dissonance":0.048},{"voice":2,"pitch":53,"start":164.1817,"duration":0.8182,"velocity":127,"measure":76,"beat":2.0,"subject_pos":-1,"motif":"","motif_pos":-1,"best_pos":3,"similarity":0.732,"stretto":false,"stretto_voices":0,"combination":[],"aug_dim":"","rhythm_ratio":1.0,"mirror":false,"chromatic_density":0.273,"complexity":0.613,"dissonance":0.048},{"voice":3,"pitch":50,"start":164.1817,"duration":0.5455,"velocity":127,"measure":76,"beat":2.0,"subject_pos":-1,"motif":"","motif_pos":-1,"best_pos":3,"similarity":0.521,"stretto":false,"stretto_voices":0,"combination":[],"aug_dim":"","rhythm_ratio":1.0,"mirror":false,"chromatic_density":0.273,"complexity":0.613,"dissonance":0.048},{"voice":0,"pitch":79,"start":164.4544,"duration":0.2727,"velocity":127,"measure":76,"beat":2.5,"subject_pos":4,"motif":"subject_inv","motif_pos":4,"best_pos":4,"similarity":1.0,"stretto":false,"stretto_voices":0,"combination":[],"aug_dim":"","rhythm_ratio":1.0,"mirror":false,"chromatic_density":0.273,"complexity":0.613,"dissonance":0.048},{"voice":1,"pitch":70,"start":164.4544,"duration":0.2727,"velocity":127,"measure":76,"beat":2.5,"subject_pos":-1,"motif":"head_inv","motif_pos":4,"best_pos":4,"similarity":1.0,"stretto":false,"stretto_voices":0,"combination":[],"aug_dim":"","rhythm_ratio":1.0,"mirror":false,"chromatic_density":0.273,"complexity":0.613,"dissonance":0.048},{"voice":0,"pitch":81,"start":164.7271,"duration":1.0909,"velocity":127,"measure":76,"beat":3.0,"subject_pos":5,"motif":"subject_inv","motif_pos":5,"best_pos":5,"similarity":1.0,"stretto":false,"stretto_voices":0,"combination":[],"aug_dim":"","rhythm_ratio":1.0,"mirror":false,"chromatic_density":0.273,"complexity":0.613,"dissonance":0.048},{"voice":1,"pitch":72,"start":164.7271,"duration":1.0909,"velocity":127,"measure":76,"beat":3.0,"subject_pos":-1,"motif":"","motif_pos":-1,"best_pos":6,"similarity":0.579,"stretto":false,"stretto_voices":0,"combination":[],"aug_dim":"","rhythm_ratio":1.0,"mirror":false,"chromatic_density":0.273,"complexity":0.613,"dissonance":0.048},{"voice":3,"pitch":48,"start":164.7271,"duration":0.5455,"velocity":127,"measure":76,"beat":3.0,"subject_pos":-1,"motif":"","motif_pos":-1,"best_pos":4,"similarity":0.386,"stretto":false,"stretto_voices":0,"combination":[],"aug_dim":"","rhythm_ratio":1.0,"mirror":false,"chromatic_density":0.273,"complexity":0.613,"dissonance":0.048},{"voice":2,"pitch":52,"start":164.9998,"duration":0.2727,"velocity":127,"measure":76,"beat":3.5,"subject_pos":-1,"motif":"","motif_pos":-1,"best_pos":4,"similarity":0.757,"stretto":false,"stretto_voices":0,"combination":[],"aug_dim":"","rhythm_ratio":1.0,"mirror":false,"chromatic_density":0.273,"complexity":0.613,"dissonance":0.048},{"voice":2,"pitch":53,"start":165.2726,"duration":0.2727,"velocity":127,"measure":76,"beat":4.0,"subject_pos":-1,"motif":"","motif_pos":-1,"best_pos":5,"similarity":0.55,"stretto":false,"stretto_voices":0,"combination":[],"aug_dim":"","rhythm_ratio":1.0,"mirror":false,"chromatic_density":0.273,"complexity":0.613,"dissonance":0.048},{"voice":3,"pitch":53,"start":165.2726,"duration":0.5455,"velocity":127,"measure":76,"beat":4.0,"subject_pos":-1,"motif":"","motif_pos":-1,"best_pos":1,"similarity":0.321,"stretto":false,"stretto_voices":0,"combination":[],"aug_dim":"","rhythm_ratio":1.0,"mirror":false,"chromatic_density":0.273,"complexity":0.613,"dissonance":0.048},{"voice":2,"pitch":57,"start":165.5453,"duration":0.5455,"velocity":127,"measure":76,"beat":4.5,"subject_pos":-1,"motif":"","motif_pos":-1,"best_pos":1,"similarity":0.507,"stretto":false,"stretto_voices":0,"combination":[],"aug_dim":"","rhythm_ratio":1.0,"mirror":false,"chromatic_density":0.273,"complexity":0.613,"dissonance":0.048},{"voice":0,"pitch":82,"start":165.818,"duration":1.0909,"velocity":127,"measure":77,"beat":1.0,"subject_pos":6,"motif":"subject_inv","motif_pos":6,"best_pos":6,"similarity":1.0,"stretto":false,"stretto_voices":0,"combination":[],"aug_dim":"","rhythm_ratio":1.0,"mirror":false,"chromatic_density":0.214,"complexity":0.522,"dissonance":0.151},{"voice":1,"pitch":74,"start":165.818,"duration":1.0909,"velocity":127,"measure":77,"beat":1.0,"subject_pos":-1,"motif":"","motif_pos":-1,"best_pos":1,"similarity":0.457,"stretto":false,"stretto_voices":0,"combination":[],"aug_dim":"","rhythm_ratio":1.0,"mirror":false,"chromatic_density":0.214,"complexity":0.522,"dissonance":0.151},{"voice":3,"pitch":46,"start":165.818,"duration":0.2727,"velocity":127,"measure":77,"beat":1.0,"subject_pos":-1,"motif":"","motif_pos":-1,"best_pos":4,"similarity":0.393,"stretto":false,"stretto_voices":0,"combination":[],"aug_dim":"","rhythm_ratio":1.0,"mirror":false,"chromatic_density":0.214,"complexity":0.522,"dissonance":0.151},{"voice":2,"pitch":55,"start":166.0907,"duration":0.2727,"velocity":127,"measure":77,"beat":1.5,"subject_pos":-1,"motif":"","motif_pos":-1,"best_pos":2,"similarity":0.55,"stretto":false,"stretto_voices":0,"combination":[],"aug_dim":"","rhythm_ratio":1.0,"mirror":false,"chromatic_density":0.214,"complexity":0.522,"dissonance":0.151},{"voice":3,"pitch":48,"start":166.0907,"duration":0.2727,"velocity":127,"measure":77,"beat":1.5,"subject_pos":-1,"motif":"","motif_pos":-1,"best_pos":5,"similarity":0.5,"stretto":false,"stretto_voices":0,"combination":[],"aug_dim":"","rhythm_ratio":1.0,"mirror":false,"chromatic_density":0.214,"complexity":0.522,"dissonance":0.151},{"voice":2,"pitch":53,"start":166.3635,"duration":0.2727,"velocity":127,"measure":77,"beat":2.0,"subject_pos":-1,"motif":"","motif_pos":-1,"best_pos":4,"similarity":0.571,"stretto":false,"stretto_voices":0,"combination":[],"aug_dim":"","rhythm_ratio":1.0,"mirror":false,"chromatic_density":0.214,"complexity":0.522,"dissonance":0.151},{"voice":3,"pitch":50,"start":166.3635,"duration":0.2727,"velocity":127,"measure":77,"beat":2.0,"subject_pos":-1,"motif":"","motif_pos":-1,"best_pos":5,"similarity":0.593,"stretto":false,"stretto_voices":0,"combination":[],"aug_dim":"","rhythm_ratio":1.0,"mirror":false,"chromatic_density":0.214,"complexity":0.522,"dissonance":0.151},{"voice":2,"pitch":55,"start":166.6362,"duration":0.2727,"velocity":127,"measure":77,"beat":2.5,"subject_pos":-1,"motif":"","motif_pos":-1,"best_pos":5,"similarity":0.679,"stretto":false,"stretto_voices":0,"combination":[],"aug_dim":"","rhythm_ratio":1.0,"mirror":false,"chromatic_density":0.214,"complexity":0.522,"dissonance":0.151},{"voice":3,"pitch":52,"start":166.6362,"duration":0.2727,"velocity":127,"measure":77,"beat":2.5,"subject_pos":-1,"motif":"","motif_pos":-1,"best_pos":6,"similarity":0.65,"stretto":false,"stretto_voices":0,"combination":[],"aug_dim":"","rhythm_ratio":1.0,"mirror":false,"chromatic_density":0.214,"complexity":0.522,"dissonance":0.151},{"voice":0,"pitch":81,"start":166.9089,"duration":0.8182,"velocity":127,"measure":77,"beat":3.0,"subject_pos":7,"motif":"subject_inv","motif_pos":7,"best_pos":7,"similarity":1.0,"stretto":false,"stretto_voices":0,"combination":[],"aug_dim":"","rhythm_ratio":1.0,"mirror":false,"chromatic_density":0.214,"complexity":0.522,"dissonance":0.151},{"voice":1,"pitch":72,"start":166.9089,"duration":0.8182,"velocity":127,"measure":77,"beat":3.0,"subject_pos":-1,"motif":"","motif_pos":-1,"best_pos":2,"similarity":0.593,"stretto":false,"stretto_voices":0,"combination":[],"aug_dim":"","rhythm_ratio":1.0,"mirror":false,"chromatic_density":0.214,"complexity":0.522,"dissonance":0.151},{"voice":2,"pitch":57,"start":166.9089,"duration":0.8182,"velocity":127,"measure":77,"beat":3.0,"subject_pos":-1,"motif":"","motif_pos":-1,"best_pos":6,"similarity":0.679,"stretto":false,"stretto_voices":0,"combination":[],"aug_dim":"","rhythm_ratio":1.0,"mirror":false,"chromatic_density":0.214,"complexity":0.522,"dissonance":0.151},{"voice":3,"pitch":53,"start":166.9089,"duration":0.2727,"velocity":127,"measure":77,"beat":3.0,"subject_pos":-1,"motif":"","motif_pos":-1,"best_pos":5,"similarity":0.657,"stretto":false,"stretto_voices":0,"combination":[],"aug_dim":"","rhythm_ratio":1.0,"mirror":false,"chromatic_density":0.214,"complexity":0.522,"dissonance":0.151},{"voice":3,"pitch":55,"start":167.1817,"duration":0.2727,"velocity":127,"measure":77,"beat":3.5,"subject_pos":-1,"motif":"","motif_pos":-1,"best_pos":6,"similarity":0.579,"stretto":false,"stretto_voices":0,"combination":[],"aug_dim":"","rhythm_ratio":1.0,"mirror":false,"chromatic_density":0.214,"complexity":0.522,"dissonance":0.151},{"voice":3,"pitch":57,"start":167.4544,"duration":0.8182,"velocity":127,"measure":77,"beat":4.0,"subject_pos":-1,"motif":"","motif_pos":-1,"best_pos":1,"similarity":0.457,"stretto":false,"stretto_voices":0,"combination":[],"aug_dim":"","rhythm_ratio":1.0,"mirror":false,"chromatic_density":0.214,"complexity":0.522,"dissonance":0.151},{"voice":0,"pitch":79,"start":167.7271,"duration":0.2727,"velocity":127,"measure":77,"beat":4.5,"subject_pos":8,"motif":"subject_inv","motif_pos":8,"best_pos":0,"similarity":1.0,"stretto":false,"stretto_voices":0,"combination":[],"aug_dim":"","rhythm_ratio":1.0,"mirror":false,"chromatic_density":0.214,"complexity":0.522,"dissonance":0.151},{"voice":1,"pitch":70,"start":167.7271,"duration":0.2727,"velocity":127,"measure":77,"beat":4.5,"subject_pos":-1,"motif":"","motif_pos":-1,"best_pos":3,"similarity":0.664,"stretto":false,"stretto_voices":0,"combination":[],"aug_dim":"","rhythm_ratio":1.0,"mirror":false,"chromatic_density":0.214,"complexity":0.522,"dissonance":0.151},{"voice":2,"pitch":58,"start":167.7271,"duration":0.2727,"velocity":127,"measure":77,"beat":4.5,"subject_pos":-1,"motif":"","motif_pos":-1,"best_pos":5,"similarity":0.586,"stretto":false,"stretto_voices":0,"combination":[],"aug_dim":"","rhythm_ratio":1.0,"mirror":false,"chromatic_density":0.214,"complexity":0.522,"dissonance":0.151},{"voice":0,"pitch":77,"start":167.9998,"duration":1.3636,"velocity":127,"measure":78,"beat":1.0,"subject_pos":-1,"motif":"","motif_pos":-1,"best_pos":3,"similarity":0.786,"stretto":false,"stretto_voices":0,"combination":[],"aug_dim":"","rhythm_ratio":1.0,"mirror":false,"chromatic_density":0.4,"complexity":0.527,"dissonance":0.089},{"voice":1,"pitch":69,"start":167.9998,"duration":1.3636,"velocity":127,"measure":78,"beat":1.0,"subject_pos":-1,"motif":"","motif_pos":-1,"best_pos":4,"similarity":0.671,"stretto":false,"stretto_voices":0,"combination":[],"aug_dim":"","rhythm_ratio":1.0,"mirror":false,"chromatic_density":0.4,"complexity":0.527,"dissonance":0.089},{"voice":2,"pitch":60,"start":167.9998,"duration":1.6364,"velocity":127,"measure":78,"beat":1.0,"subject_pos":-1,"motif":"","motif_pos":-1,"best_pos":6,"similarity":0.436,"stretto":false,"stretto_voices":0,"combination":[],"aug_dim":"","rhythm_ratio":1.0,"mirror":false,"chromatic_density":0.4,"complexity":0.527,"dissonance":0.089},{"voice":3,"pitch":55,"start":168.2726,"duration":0.2727,"velocity":127,"measure":78,"beat":1.5,"subject_pos":-1,"motif":"","motif_pos":-1,"best_pos":2,"similarity":0.593,"stretto":false,"stretto_voices":0,"combination":[],"aug_dim":"","rhythm_ratio":1.0,"mirror":false,"chromatic_density":0.4,"complexity":0.527,"dissonance":0.089},{"voice":3,"pitch":53,"start":168.5453,"duration":0.2727,"velocity":127,"measure":78,"beat":2.0,"subject_pos":-1,"motif":"","motif_pos":-1,"best_pos":3,"similarity":0.6,"stretto":false,"stretto_voices":0,"combination":[],"aug_dim":"","rhythm_ratio":1.0,"mirror":false,"chromatic_density":0.4,"complexity":0.527,"dissonance":0.089},{"voice":3,"pitch":52,"start":168.818,"duration":0.2727,"velocity":127,"measure":78,"beat":2.5,"subject_pos":-1,"motif":"","motif_pos":-1,"best_pos":4,"similarity":0.471,"stretto":false,"stretto_voices":0,"combination":[],"aug_dim":"","rhythm_ratio":1.0,"mirror":false,"chromatic_density":0.4,"complexity":0.527,"dissonance":0.089},{"voice":3,"pitch":50,"start":169.0907,"duration":1.0909,"velocity":127,"measure":78,"beat":3.0,"subject_pos":-1,"motif":"","motif_pos":-1,"best_pos":2,"similarity":0.429,"stretto":false,"stretto_voices":0,"combination":[],"aug_dim":"","rhythm_ratio":1.0,"mirror":false,"chromatic_density":0.4,"complexity":0.527,"dissonance":0.089},{"voice":0,"pitch":76,"start":169.3635,"duration":0.2727,"velocity":127,"measure":78,"beat":3.5,"subject_pos":-1,"motif":"","motif_pos":-1,"best_pos":4,"similarity":0.893,"stretto":false,"stretto_voices":0,"combination":[],"aug_dim":"","rhythm_ratio":1.0,"mirror":false,"chromatic_density":0.4,"complexity":0.527,"dissonance":0.089},{"voice":1,"pitch":67,"start":169.3635,"duration":0.2727,"velocity":127,"measure":78,"beat":3.5,"subject_pos":-1,"motif":"","motif_pos":-1,"best_pos":5,"similarity":0.636,"stretto":false,"stretto_voices":0,"combination":[],"aug_dim":"","rhythm_ratio":1.0,"mirror":false,"chromatic_density":0.4,"complexity":0.527,"dissonance":0.089},{"voice":0,"pitch":77,"start":169.6362,"duration":0.2727,"velocity":127,"measure":78,"beat":4.0,"subject_pos":-1,"motif":"","motif_pos":-1,"best_pos":5,"similarity":0.821,"stretto":false,"stretto_voices":0,"combination":[],"aug_dim":"","rhythm_ratio":1.0,"mirror":false,"chromatic_density":0.4,"complexity":0.527,"dissonance":0.089},{"voice":1,"pitch":69,"start":169.6362,"duration":0.2727,"velocity":127,"measure":78,"beat":4.0,"subject_pos":-1,"motif":"","motif_pos":-1,"best_pos":6,"similarity":0.657,"stretto":false,"stretto_voices":0,"combination":[],"aug_dim":"","rhythm_ratio":1.0,"mirror":false,"chromatic_density":0.4,"complexity":0.527,"dissonance":0.089},{"voice":2,"pitch":53,"start":169.6362,"duration":0.8182,"velocity":127,"measure":78,"beat":4.0,"subject_pos":-1,"motif":"","motif_pos":-1,"best_pos":2,"similarity":0.361,"stretto":false,"stretto_voices":0,"combination":[],"aug_dim":"","rhythm_ratio":1.0,"mirror":false,"chromatic_density":0.4,"complexity":0.527,"dissonance":0.089},{"voice":0,"pitch":79,"start":169.9089,"duration":0.2727,"velocity":127,"measure":78,"beat":4.5,"subject_pos":-1,"motif":"","motif_pos":-1,"best_pos":6,"similarity":0.643,"stretto":false,"stretto_voices":0,"combination":[],"aug_dim":"","rhythm_ratio":1.0,"mirror":false,"chromatic_density":0.4,"complexity":0.527,"dissonance":0.089},{"voice":1,"pitch":70,"start":169.9089,"duration":0.2727,"velocity":127,"measure":78,"beat":4.5,"subject_pos":-1,"motif":"","motif_pos":-1,"best_pos":5,"similarity":0.621,"stretto":false,"stretto_voices":0,"combination":[],"aug_dim":"","rhythm_ratio":1.0,"mirror":false,"chromatic_density":0.4,"complexity":0.527,"dissonance":0.089},{"voice":0,"pitch":81,"start":170.1816,"duration":0.2727,"velocity":127,"measure":79,"beat":1.0,"subject_pos":-1,"motif":"","motif_pos":-1,"best_pos":6,"similarity":0.375,"stretto":false,"stretto_voices":0,"combination":[],"aug_dim":"","rhythm_ratio":1.0,"mirror":false,"chromatic_density":0.0,"complexity":0.492,"dissonance":0.06},{"voice":1,"pitch":72,"start":170.1816,"duration":1.0909,"velocity":127,"measure":79,"beat":1.0,"subject_pos":-1,"motif":"","motif_pos":-1,"best_pos":6,"similarity":0.436,"stretto":false,"stretto_voices":0,"combination":[],"aug_dim":"","rhythm_ratio":1.0,"mirror":false,"chromatic_density":0.0,"complexity":0.492,"dissonance":0.06},{"voice":3,"pitch":48,"start":170.1816,"duration":1.0909,"velocity":127,"measure":79,"beat":1.0,"subject_pos":-1,"motif":"","motif_pos":-1,"best_pos":0,"similarity":0.357,"stretto":false,"stretto_voices":0,"combination":[],"aug_dim":"","rhythm_ratio":1.0,"mirror":false,"chromatic_density":0.0,"complexity":0.492,"dissonance":0.06},{"voice":0,"pitch":77,"start":170.4544,"duration":0.2727,"velocity":127,"measure":79,"beat":1.5,"subject_pos":-1,"motif":"","motif_pos":-1,"best_pos":2,"similarity":0.35,"stretto":false,"stretto_voices":0,"combination":[],"aug_dim":"","rhythm_ratio":1.0,"mirror":false,"chromatic_density":0.0,"complexity":0.492,"dissonance":0.06},{"voice":2,"pitch":50,"start":170.4544,"duration":0.2727,"velocity":127,"measure":79,"beat":1.5,"subject_pos":-1,"motif":"","motif_pos":-1,"best_pos":3,"similarity":0.379,"stretto":false,"stretto_voices":0,"combination":[],"aug_dim":"","rhythm_ratio":1.0,"mirror":false,"chromatic_density":0.0,"complexity":0.492,"dissonance":0.06},{"voice":0,"pitch":79,"start":170.7271,"duration":0.8182,"velocity":127,"measure":79,"beat":2.0,"subject_pos":-1,"motif":"","motif_pos":-1,"best_pos":6,"similarity":0.293,"stretto":false,"stretto_voices":0,"combination":[],"aug_dim":"","rhythm_ratio":1.0,"mirror":false,"chromatic_density":0.0,"complexity":0.492,"dissonance":0.06},{"voice":2,"pitch":52,"start":170.7271,"duration":0.2727,"velocity":127,"measure":79,"beat":2.0,"subject_pos":-1,"motif":"","motif_pos":-1,"best_pos":6,"similarity":0.371,"stretto":false,"stretto_voices":0,"combination":[],"aug_dim":"","rhythm_ratio":1.0,"mirror":false,"chromatic_density":0.0,"complexity":0.492,"dissonance":0.06},{"voice":2,"pitch":55,"start":170.9998,"duration":0.2727,"velocity":127,"measure":79,"beat":2.5,"subject_pos":-1,"motif":"","motif_pos":-1,"best_pos":0,"similarity":0.446,"stretto":false,"stretto_voices":0,"combination":[],"aug_dim":"","rhythm_ratio":1.0,"mirror":false,"chromatic_density":0.0,"complexity":0.492,"dissonance":0.06},{"voice":2,"pitch":60,"start":171.2726,"duration":0.8182,"velocity":127,"measure":79,"beat":3.0,"subject_pos":-1,"motif":"","motif_pos":-1,"best_pos":1,"similarity":0.614,"stretto":false,"stretto_voices":0,"combination":[],"aug_dim":"","rhythm_ratio":1.0,"mirror":false,"chromatic_density":0.0,"complexity":0.492,"dissonance":0.06},{"voice":0,"pitch":74,"start":171.5453,"duration":0.2727,"velocity":127,"measure":79,"beat":3.5,"subject_pos":-1,"motif":"","motif_pos":-1,"best_pos":5,"similarity":0.371,"stretto":false,"stretto_voices":0,"combination":[],"aug_dim":"","rhythm_ratio":1.0,"mirror":false,"chromatic_density":0.0,"complexity":0.492,"dissonance":0.06},{"voice":0,"pitch":76,"start":171.818,"duration":0.2727,"velocity":127,"measure":79,"beat":4.0,"subject_pos":-1,"motif":"","motif_pos":-1,"best_pos":6,"similarity":0.364,"stretto":false,"stretto_voices":0,"combination":[],"aug_dim":"","rhythm_ratio":1.0,"mirror":false,"chromatic_density":0.0,"complexity":0.492,"dissonance":0.06},{"voice":0,"pitch":79,"start":172.0907,"duration":0.2727,"velocity":127,"measure":79,"beat":4.5,"subject_pos":-1,"motif":"","motif_pos":-1,"best_pos":6,"similarity":0.221,"stretto":false,"stretto_voices":0,"combination":[],"aug_dim":"","rhythm_ratio":1.0,"mirror":false,"chromatic_density":0.0,"complexity":0.492,"dissonance":0.06},{"voice":2,"pitch":58,"start":172.0907,"duration":0.2727,"velocity":127,"measure":79,"beat":4.5,"subject_pos":-1,"motif":"","motif_pos":-1,"best_pos":2,"similarity":0.55,"stretto":false,"stretto_voices":0,"combination":[],"aug_dim":"","rhythm_ratio":1.0,"mirror":false,"chromatic_density":0.0,"complexity":0.492,"dissonance":0.06},{"voice":0,"pitch":72,"start":172.3635,"duration":1.0909,"velocity":127,"measure":80,"beat":1.0,"subject_pos":-1,"motif":"","motif_pos":-1,"best_pos":1,"similarity":0.436,"stretto":false,"stretto_voices":0,"combination":[],"aug_dim":"","rhythm_ratio":1.0,"mirror":false,"chromatic_density":0.125,"complexity":0.463,"dissonance":0.105},{"voice":2,"pitch":57,"start":172.3635,"duration":1.3636,"velocity":127,"measure":80,"beat":1.0,"subject_pos":-1,"motif":"","motif_pos":-1,"best_pos":4,"similarity":0.507,"stretto":false,"stretto_voices":0,"combination":[],"aug_dim":"","rhythm_ratio":1.0,"mirror":false,"chromatic_density":0.125,"complexity":0.463,"dissonance":0.105},{"voice":1,"pitch":64,"start":172.6362,"duration":0.2727,"velocity":127,"measure":80,"beat":1.5,"subject_pos":-1,"motif":"","motif_pos":-1,"best_pos":6,"similarity":0.375,"stretto":false,"stretto_voices":0,"combination":[],"aug_dim":"","rhythm_ratio":1.0,"mirror":false,"chromatic_density":0.125,"complexity":0.463,"dissonance":0.105},{"voice":1,"pitch":65,"start":172.9089,"duration":0.2727,"velocity":127,"measure":80,"beat":2.0,"subject_pos":-1,"motif":"","motif_pos":-1,"best_pos":5,"similarity":0.357,"stretto":false,"stretto_voices":0,"combination":[],"aug_dim":"","rhythm_ratio":1.0,"mirror":false,"chromatic_density":0.125,"complexity":0.463,"dissonance":0.105},{"voice":1,"pitch":69,"start":173.1816,"duration":0.2727,"velocity":127,"measure":80,"beat":2.5,"subject_pos":-1,"motif":"","motif_pos":-1,"best_pos":4,"similarity":0.236,"stretto":false,"stretto_voices":0,"combination":[],"aug_dim":"","rhythm_ratio":1.0,"mirror":false,"chromatic_density":0.125,"complexity":0.463,"dissonance":0.105},{"voice":0,"pitch":70,"start":173.4544,"duration":1.3636,"velocity":127,"measure":80,"beat":3.0,"subject_pos":-1,"motif":"","motif_pos":-1,"best_pos":2,"similarity":0.604,"stretto":false,"stretto_voices":0,"combination":[],"aug_dim":"","rhythm_ratio":1.0,"mirror":false,"chromatic_density":0.125,"complexity":0.463,"dissonance":0.105},{"voice":1,"pitch":62,"start":173.4544,"duration":0.5455,"velocity":127,"measure":80,"beat":3.0,"subject_pos":-1,"motif":"","motif_pos":-1,"best_pos":5,"similarity":0.436,"stretto":false,"stretto_voices":0,"combination":[],"aug_dim":"","rhythm_ratio":1.0,"mirror":false,"chromatic_density":0.125,"complexity":0.463,"dissonance":0.105},{"voice":2,"pitch":53,"start":173.7271,"duration":0.2727,"velocity":127,"measure":80,"beat":3.5,"subject_pos":-1,"motif":"","motif_pos":-1,"best_pos":5,"similarity":0.479,"stretto":false,"stretto_voices":0,"combination":[],"aug_dim":"","rhythm_ratio":1.0,"mirror":false,"chromatic_density":0.125,"complexity":0.463,"dissonance":0.105},{"voice":1,"pitch":64,"start":173.9998,"duration":0.5455,"velocity":127,"measure":80,"beat":4.0,"subject_pos":-1,"motif":"","motif_pos":-1,"best_pos":6,"similarity":0.571,"stretto":false,"stretto_voices":0,"combination":[],"aug_dim":"","rhythm_ratio":1.0,"mirror":false,"chromatic_density":0.125,"complexity":0.463,"dissonance":0.105},{"voice":2,"pitch":55,"start":173.9998,"duration":0.2727,"velocity":127,"measure":80,"beat":4.0,"subject_pos":-1,"motif":"","motif_pos":-1,"best_pos":6,"similarity":0.386,"stretto":false,"stretto_voices":0,"combination":[],"aug_dim":"","rhythm_ratio":1.0,"mirror":false,"chromatic_density":0.125,"complexity":0.463,"dissonance":0.105},{"voice":2,"pitch":60,"start":174.2726,"duration":0.2727,"velocity":127,"measure":80,"beat":4.5,"subject_pos":-1,"motif":"","motif_pos":-1,"best_pos":1,"similarity":0.314,"stretto":false,"stretto_voices":0,"combination":[],"aug_dim":"","rhythm_ratio":1.0,"mirror":false,"chromatic_density":0.125,"complexity":0.463,"dissonance":0.105},{"voice":1,"pitch":65,"start":174.5453,"duration":0.8182,"velocity":127,"measure":81,"beat":1.0,"subject_pos":-1,"motif":"","motif_pos":-1,"best_pos":7,"similarity":0.429,"stretto":false,"stretto_voices":0,"combination":[],"aug_dim":"","rhythm_ratio":1.0,"mirror":false,"chromatic_density":0.222,"complexity":0.47,"dissonance":0.111},{"voice":2,"pitch":53,"start":174.5453,"duration":1.0909,"velocity":127,"measure":81,"beat":1.0,"subject_pos":-1,"motif":"","motif_pos":-1,"best_pos":0,"similarity":0.3,"stretto":false,"stretto_voices":0,"combination":[],"aug_dim":"","rhythm_ratio":1.0,"mirror":false,"chromatic_density":0.222,"complexity":0.47,"dissonance":0.111},{"voice":0,"pitch":67,"start":174.818,"duration":0.2727,"velocity":127,"measure":81,"beat":1.5,"subject_pos":-1,"motif":"","motif_pos":-1,"best_pos":3,"similarity":0.5,"stretto":false,"stretto_voices":0,"combination":[],"aug_dim":"","rhythm_ratio":1.0,"mirror":false,"chromatic_density":0.222,"complexity":0.47,"dissonance":0.111},{"voice":0,"pitch":69,"start":175.0907,"duration":0.2727,"velocity":127,"measure":81,"beat":2.0,"subject_pos":-1,"motif":"","motif_pos":-1,"best_pos":6,"similarity":0.407,"stretto":false,"stretto_voices":0,"combination":[],"aug_dim":"","rhythm_ratio":1.0,"mirror":false,"chromatic_density":0.222,"complexity":0.47,"dissonance":0.111},{"voice":0,"pitch":72,"start":175.3635,"duration":0.2727,"velocity":127,"measure":81,"beat":2.5,"subject_pos":-1,"motif":"","motif_pos":-1,"best_pos":0,"similarity":0.321,"stretto":false,"stretto_voices":0,"combination":[],"aug_dim":"","rhythm_ratio":1.0,"mirror":false,"chromatic_density":0.222,"complexity":0.47,"dissonance":0.111},{"voice":1,"pitch":64,"start":175.3635,"duration":0.2727,"velocity":127,"measure":81,"beat":2.5,"subject_pos":-1,"motif":"","motif_pos":-1,"best_pos":4,"similarity":0.407,"stretto":false,"stretto_voices":0,"combination":[],"aug_dim":"","rhythm_ratio":1.0,"mirror":false,"chromatic_density":0.222,"complexity":0.47,"dissonance":0.111},{"voice":0,"pitch":77,"start":175.6362,"duration":1.6364,"velocity":127,"measure":81,"beat":3.0,"subject_pos":-1,"motif":"","motif_pos":-1,"best_pos":1,"similarity":0.393,"stretto":false,"stretto_voices":0,"combination":[],"aug_dim":"","rhythm_ratio":1.0,"mirror":false,"chromatic_density":0.222,"complexity":0.47,"dissonance":0.111},{"voice":1,"pitch":62,"start":175.6362,"duration":0.2727,"velocity":127,"measure":81,"beat":3.0,"subject_pos":-1,"motif":"","motif_pos":-1,"best_pos":3,"similarity":0.411,"stretto":false,"stretto_voices":0,"combination":[],"aug_dim":"","rhythm_ratio":1.0,"mirror":false,"chromatic_density":0.222,"complexity":0.47,"dissonance":0.111},{"voice":1,"pitch":57,"start":175.9089,"duration":0.2727,"velocity":127,"measure":81,"beat":3.5,"subject_pos":-1,"motif":"","motif_pos":-1,"best_pos":4,"similarity":0.464,"stretto":false,"stretto_voices":0,"combination":[],"aug_dim":"","rhythm_ratio":1.0,"mirror":false,"chromatic_density":0.222,"complexity":0.47,"dissonance":0.111},{"voice":1,"pitch":58,"start":176.1816,"duration":0.2727,"velocity":127,"measure":81,"beat":4.0,"subject_pos":-1,"motif":"","motif_pos":-1,"best_pos":5,"similarity":0.421,"stretto":false,"stretto_voices":0,"combination":[],"aug_dim":"","rhythm_ratio":1.0,"mirror":false,"chromatic_density":0.222,"complexity":0.47,"dissonance":0.111},{"voice":2,"pitch":58,"start":176.1816,"duration":0.8182,"velocity":127,"measure":81,"beat":4.0,"subject_pos":-1,"motif":"","motif_pos":-1,"best_pos":1,"similarity":0.321,"stretto":false,"stretto_voices":0,"combination":[],"aug_dim":"","rhythm_ratio":1.0,"mirror":false,"chromatic_density":0.222,"complexity":0.47,"dissonance":0.111},{"voice":1,"pitch":62,"start":176.4544,"duration":0.2727,"velocity":127,"measure":81,"beat":4.5,"subject_pos":-1,"motif":"","motif_pos":-1,"best_pos":0,"similarity":0.304,"stretto":false,"stretto_voices":0,"combination":[],"aug_dim":"","rhythm_ratio":1.0,"mirror":false,"chromatic_density":0.222,"complexity":0.47,"dissonance":0.111},{"voice":1,"pitch":67,"start":176.7271,"duration":1.3636,"velocity":127,"measure":82,"beat":1.0,"subject_pos":-1,"motif":"","motif_pos":-1,"best_pos":1,"similarity":0.329,"stretto":false,"stretto_voices":0,"combination":[],"aug_dim":"","rhythm_ratio":1.0,"mirror":false,"chromatic_density":0.143,"complexity":0.51,"dissonance":0.084},{"voice":2,"pitch":50,"start":176.9998,"duration":0.2727,"velocity":127,"measure":82,"beat":1.5,"subject_pos":-1,"motif":"","motif_pos":-1,"best_pos":5,"similarity":0.329,"stretto":false,"stretto_voices":0,"combination":[],"aug_dim":"","rhythm_ratio":1.0,"mirror":false,"chromatic_density":0.143,"complexity":0.51,"dissonance":0.084},{"voice":0,"pitch":71,"start":177.2725,"duration":0.5455,"velocity":127,"measure":82,"beat":2.0,"subject_pos":-1,"motif":"","motif_pos":-1,"best_pos":0,"similarity":0.429,"stretto":false,"stretto_voices":0,"combination":[],"aug_dim":"","rhythm_ratio":1.0,"mirror":false,"chromatic_density":0.143,"complexity":0.51,"dissonance":0.084},{"voice":2,"pitch":52,"start":177.2725,"duration":0.2727,"velocity":127,"measure":82,"beat":2.0,"subject_pos":-1,"motif":"","motif_pos":-1,"best_pos":6,"similarity":0.357,"stretto":false,"stretto_voices":0,"combination":[],"aug_dim":"","rhythm_ratio":1.0,"mirror":false,"chromatic_density":0.143,"complexity":0.51,"dissonance":0.084},{"voice":2,"pitch":55,"start":177.5453,"duration":0.2727,"velocity":127,"measure":82,"beat":2.5,"subject_pos":-1,"motif":"","motif_pos":-1,"best_pos":6,"similarity":0.214,"stretto":false,"stretto_voices":0,"combination":[],"aug_dim":"","rhythm_ratio":1.0,"mirror":false,"chromatic_density":0.143,"complexity":0.51,"dissonance":0.084},{"voice":0,"pitch":76,"start":177.818,"duration":1.6364,"velocity":127,"measure":82,"beat":3.0,"subject_pos":-1,"motif":"","motif_pos":-1,"best_pos":1,"similarity":0.589,"stretto":false,"stretto_voices":0,"combination":[],"aug_dim":"","rhythm_ratio":1.0,"mirror":false,"chromatic_density":0.143,"complexity":0.51,"dissonance":0.084},{"voice":2,"pitch":49,"start":177.818,"duration":0.8182,"velocity":127,"measure":82,"beat":3.0,"subject_pos":-1,"motif":"","motif_pos":-1,"best_pos":3,"similarity":0.393,"stretto":false,"stretto_voices":0,"combination":[],"aug_dim":"","rhythm_ratio":1.0,"mirror":false,"chromatic_density":0.143,"complexity":0.51,"dissonance":0.084},{"voice":1,"pitch":70,"start":178.0907,"duration":0.2727,"velocity":127,"measure":82,"beat":3.5,"subject_pos":-1,"motif":"","motif_pos":-1,"best_pos":3,"similarity":0.357,"stretto":false,"stretto_voices":0,"combination":[],"aug_dim":"","rhythm_ratio":1.0,"mirror":false,"chromatic_density":0.143,"complexity":0.51,"dissonance":0.084},{"voice":1,"pitch":69,"start":178.3635,"duration":0.2727,"velocity":127,"measure":82,"beat":4.0,"subject_pos":-1,"motif":"","motif_pos":-1,"best_pos":4,"similarity":0.429,"stretto":false,"stretto_voices":0,"combination":[],"aug_dim":"","rhythm_ratio":1.0,"mirror":false,"chromatic_density":0.143,"complexity":0.51,"dissonance":0.084},{"voice":1,"pitch":64,"start":178.6362,"duration":0.2727,"velocity":127,"measure":82,"beat":4.5,"subject_pos":-1,"motif":"","motif_pos":-1,"best_pos":4,"similarity":0.493,"stretto":false,"stretto_voices":0,"combination":[],"aug_dim":"","rhythm_ratio":1.0,"mirror":false,"chromatic_density":0.143,"complexity":0.51,"dissonance":0.084},{"voice":2,"pitch":49,"start":178.6362,"duration":0.2727,"velocity":127,"measure":82,"beat":4.5,"subject_pos":-1,"motif":"","motif_pos":-1,"best_pos":4,"similarity":0.657,"stretto":false,"stretto_voices":0,"combination":[],"aug_dim":"","rhythm_ratio":1.0,"mirror":false,"chromatic_density":0.143,"complexity":0.51,"dissonance":0.084},{"voice":1,"pitch":65,"start":178.9089,"duration":1.0909,"velocity":127,"measure":83,"beat":1.0,"subject_pos":-1,"motif":"","motif_pos":-1,"best_pos":5,"similarity":0.604,"stretto":false,"stretto_voices":0,"combination":[],"aug_dim":"","rhythm_ratio":1.0,"mirror":false,"chromatic_density":0.25,"complexity":0.442,"dissonance":0.125},{"voice":2,"pitch":50,"start":178.9089,"duration":0.2727,"velocity":127,"measure":83,"beat":1.0,"subject_pos":-1,"motif":"","motif_pos":-1,"best_pos":5,"similarity":0.793,"stretto":false,"stretto_voices":0,"combination":[],"aug_dim":"","rhythm_ratio":1.0,"mirror":false,"chromatic_density":0.25,"complexity":0.442,"dissonance":0.125},{"voice":2,"pitch":52,"start":179.1816,"duration":0.2727,"velocity":127,"measure":83,"beat":1.5,"subject_pos":-1,"motif":"","motif_pos":-1,"best_pos":6,"similarity":0.75,"stretto":false,"stretto_voices":0,"combination":[],"aug_dim":"","rhythm_ratio":1.0,"mirror":false,"chromatic_density":0.25,"complexity":0.442,"dissonance":0.125},{"voice":0,"pitch":74,"start":179.4544,"duration":0.5455,"velocity":127,"measure":83,"beat":2.0,"subject_pos":-1,"motif":"","motif_pos":-1,"best_pos":2,"similarity":0.471,"stretto":false,"stretto_voices":0,"combination":[],"aug_dim":"","rhythm_ratio":1.0,"mirror":false,"chromatic_density":0.25,"complexity":0.442,"dissonance":0.125},{"voice":2,"pitch":53,"start":179.4544,"duration":0.2727,"velocity":127,"measure":83,"beat":2.0,"subject_pos":-1,"motif":"","motif_pos":-1,"best_pos":7,"similarity":0.5,"stretto":false,"stretto_voices":0,"combination":[],"aug_dim":"","rhythm_ratio":1.0,"mirror":false,"chromatic_density":0.25,"complexity":0.442,"dissonance":0.125},{"voice":2,"pitch":57,"start":179.7271,"duration":0.2727,"velocity":127,"measure":83,"beat":2.5,"subject_pos":-1,"motif":"","motif_pos":-1,"best_pos":0,"similarity":0.464,"stretto":false,"stretto_voices":0,"combination":[],"aug_dim":"","rhythm_ratio":1.0,"mirror":false,"chromatic_density":0.25,"complexity":0.442,"dissonance":0.125},{"voice":2,"pitch":62,"start":179.9998,"duration":0.8182,"velocity":127,"measure":83,"beat":3.0,"subject_pos":-1,"motif":"","motif_pos":-1,"best_pos":1,"similarity":0.661,"stretto":false,"stretto_voices":0,"combination":[],"aug_dim":"","rhythm_ratio":1.0,"mirror":false,"chromatic_density":0.25,"complexity":0.442,"dissonance":0.125},{"voice":0,"pitch":76,"start":180.2725,"duration":0.2727,"velocity":127,"measure":83,"beat":3.5,"subject_pos":-1,"motif":"","motif_pos":-1,"best_pos":6,"similarity":0.586,"stretto":false,"stretto_voices":0,"combination":[],"aug_dim":"","rhythm_ratio":1.0,"mirror":false,"chromatic_density":0.25,"complexity":0.442,"dissonance":0.125},{"voice":0,"pitch":77,"start":180.5453,"duration":0.2727,"velocity":127,"measure":83,"beat":4.0,"subject_pos":-1,"motif":"","motif_pos":-1,"best_pos":7,"similarity":0.436,"stretto":false,"stretto_voices":0,"combination":[],"aug_dim":"","rhythm_ratio":1.0,"mirror":false,"chromatic_density":0.25,"complexity":0.442,"dissonance":0.125},{"voice":0,"pitch":81,"start":180.818,"duration":0.2727,"velocity":127,"measure":83,"beat":4.5,"subject_pos":-1,"motif":"","motif_pos":-1,"best_pos":1,"similarity":0.261,"stretto":false,"stretto_voices":0,"combination":[],"aug_dim":"","rhythm_ratio":1.0,"mirror":false,"chromatic_density":0.25,"complexity":0.442,"dissonance":0.125},{"voice":2,"pitch":60,"start":180.818,"duration":0.2727,"velocity":127,"measure":83,"beat":4.5,"subject_pos":-1,"motif":"","motif_pos":-1,"best_pos":2,"similarity":0.643,"stretto":false,"stretto_voices":0,"combination":[],"aug_dim":"","rhythm_ratio":1.0,"mirror":false,"chromatic_density":0.25,"complexity":0.442,"dissonance":0.125},{"voice":0,"pitch":74,"start":181.0907,"duration":1.0909,"velocity":127,"measure":84,"beat":1.0,"subject_pos":-1,"motif":"","motif_pos":-1,"best_pos":1,"similarity":0.436,"stretto":false,"stretto_voices":0,"combination":[],"aug_dim":"","rhythm_ratio":1.0,"mirror":false,"chromatic_density":0.125,"complexity":0.463,"dissonance":0.155},{"voice":2,"pitch":58,"start":181.0907,"duration":1.3636,"velocity":127,"measure":84,"beat":1.0,"subject_pos":-1,"motif":"","motif_pos":-1,"best_pos":2,"similarity":0.593,"stretto":false,"stretto_voices":0,"combination":[],"aug_dim":"","rhythm_ratio":1.0,"mirror":false,"chromatic_density":0.125,"complexity":0.463,"dissonance":0.155},{"voice":1,"pitch":66,"start":181.3635,"duration":0.2727,"velocity":127,"measure":84,"beat":1.5,"subject_pos":-1,"motif":"","motif_pos":-1,"best_pos":6,"similarity":0.579,"stretto":false,"stretto_voices":0,"combination":[],"aug_dim":"","rhythm_ratio":1.0,"mirror":false,"chromatic_density":0.125,"complexity":0.463,"dissonance":0.155},{"voice":1,"pitch":67,"start":181.6362,"duration":0.2727,"velocity":127,"measure":84,"beat":2.0,"subject_pos":-1,"motif":"","motif_pos":-1,"best_pos":5,"similarity":0.471,"stretto":false,"stretto_voices":0,"combination":[],"aug_dim":"","rhythm_ratio":1.0,"mirror":false,"chromatic_density":0.125,"complexity":0.463,"dissonance":0.155},{"voice":1,"pitch":70,"start":181.9089,"duration":0.2727,"velocity":127,"measure":84,"beat":2.5,"subject_pos":-1,"motif":"","motif_pos":-1,"best_pos":6,"similarity":0.304,"stretto":false,"stretto_voices":0,"combination":[],"aug_dim":"","rhythm_ratio":1.0,"mirror":false,"chromatic_density":0.125,"complexity":0.463,"dissonance":0.155},{"voice":0,"pitch":72,"start":182.1816,"duration":1.3636,"velocity":127,"measure":84,"beat":3.0,"subject_pos":-1,"motif":"","motif_pos":-1,"best_pos":2,"similarity":0.621,"stretto":false,"stretto_voices":0,"combination":[],"aug_dim":"","rhythm_ratio":1.0,"mirror":false,"chromatic_density":0.125,"complexity":0.463,"dissonance":0.155},{"voice":1,"pitch":64,"start":182.1816,"duration":0.5455,"velocity":127,"measure":84,"beat":3.0,"subject_pos":-1,"motif":"","motif_pos":-1,"best_pos":5,"similarity":0.45,"stretto":false,"stretto_voices":0,"combination":[],"aug_dim":"","rhythm_ratio":1.0,"mirror":false,"chromatic_density":0.125,"complexity":0.463,"dissonance":0.155},{"voice":2,"pitch":55,"start":182.4544,"duration":0.2727,"velocity":127,"measure":84,"beat":3.5,"subject_pos":-1,"motif":"","motif_pos":-1,"best_pos":3,"similarity":0.471,"stretto":false,"stretto_voices":0,"combination":[],"aug_dim":"","rhythm_ratio":1.0,"mirror":false,"chromatic_density":0.125,"complexity":0.463,"dissonance":0.155},{"voice":1,"pitch":66,"start":182.7271,"duration":0.5455,"velocity":127,"measure":84,"beat":4.0,"subject_pos":-1,"motif":"","motif_pos":-1,"best_pos":6,"similarity":0.579,"stretto":false,"stretto_voices":0,"combination":[],"aug_dim":"","rhythm_ratio":1.0,"mirror":false,"chromatic_density":0.125,"complexity":0.463,"dissonance":0.155},{"voice":2,"pitch":57,"start":182.7271,"duration":0.2727,"velocity":127,"measure":84,"beat":4.0,"subject_pos":-1,"motif":"","motif_pos":-1,"best_pos":6,"similarity":0.364,"stretto":false,"stretto_voices":0,"combination":[],"aug_dim":"","rhythm_ratio":1.0,"mirror":false,"chromatic_density":0.125,"complexity":0.463,"dissonance":0.155},{"voice":2,"pitch":62,"start":182.9998,"duration":0.2727,"velocity":127,"measure":84,"beat":4.5,"subject_pos":-1,"motif":"","motif_pos":-1,"best_pos":1,"similarity":0.321,"stretto":false,"stretto_voices":0,"combination":[],"aug_dim":"","rhythm_ratio":1.0,"mirror":false,"chromatic_density":0.125,"complexity":0.463,"dissonance":0.155},{"voice":1,"pitch":67,"start":183.2725,"duration":0.2727,"velocity":127,"measure":85,"beat":1.0,"subject_pos":-1,"motif":"","motif_pos":-1,"best_pos":3,"similarity":0.507,"stretto":false,"stretto_voices":0,"combination":[],"aug_dim":"","rhythm_ratio":1.0,"mirror":false,"chromatic_density":0.375,"complexity":0.72,"dissonance":0.176},{"voice":2,"pitch":55,"start":183.2725,"duration":0.5455,"velocity":127,"measure":85,"beat":1.0,"subject_pos":-1,"motif":"","motif_pos":-1,"best_pos":0,"similarity":0.307,"stretto":false,"stretto_voices":0,"combination":[],"aug_dim":"","rhythm_ratio":1.0,"mirror":false,"chromatic_density":0.375,"complexity":0.72,"dissonance":0.176},{"voice":3,"pitch":55,"start":183.2725,"duration":1.0909,"velocity":127,"measure":85,"beat":1.0,"subject_pos":0,"motif":"subject_inv","motif_pos":0,"best_pos":0,"similarity":1.0,"stretto":false,"stretto_voices":0,"combination":[],"aug_dim":"","rhythm_ratio":1.0,"mirror":false,"chromatic_density":0.375,"complexity":0.72,"dissonance":0.176},{"voice":0,"pitch":69,"start":183.5453,"duration":0.2727,"velocity":127,"measure":85,"beat":1.5,"subject_pos":-1,"motif":"","motif_pos":-1,"best_pos":3,"similarity":0.564,"stretto":false,"stretto_voices":0,"combination":[],"aug_dim":"","rhythm_ratio":1.0,"mirror":false,"chromatic_density":0.375,"complexity":0.72,"dissonance":0.176},{"voice":1,"pitch":66,"start":183.5453,"duration":0.2727,"velocity":127,"measure":85,"beat":1.5,"subject_pos":-1,"motif":"","motif_pos":-1,"best_pos":4,"similarity":0.664,"stretto":false,"stretto_voices":0,"combination":[],"aug_dim":"","rhythm_ratio":1.0,"mirror":false,"chromatic_density":0.375,"complexity":0.72,"dissonance":0.176},{"voice":0,"pitch":71,"start":183.818,"duration":0.2727,"velocity":127,"measure":85,"beat":2.0,"subject_pos":-1,"motif":"","motif_pos":-1,"best_pos":5,"similarity":0.643,"stretto":false,"stretto_voices":0,"combination":[],"aug_dim":"","rhythm_ratio":1.0,"mirror":false,"chromatic_density":0.375,"complexity":0.72,"dissonance":0.176},{"voice":1,"pitch":67,"start":183.818,"duration":0.5455,"velocity":127,"measure":85,"beat":2.0,"subject_pos":-1,"motif":"","motif_pos":-1,"best_pos":5,"similarity":0.579,"stretto":false,"stretto_voices":0,"combination":[],"aug_dim":"","rhythm_ratio":1.0,"mirror":false,"chromatic_density":0.375,"complexity":0.72,"dissonance":0.176},{"voice":2,"pitch":62,"start":183.818,"duration":0.2727,"velocity":127,"measure":85,"beat":2.0,"subject_pos":-1,"motif":"","motif_pos":-1,"best_pos":5,"similarity":0.429,"stretto":false,"stretto_voices":0,"combination":[],"aug_dim":"","rhythm_ratio":1.0,"mirror":false,"chromatic_density":0.375,"complexity":0.72,"dissonance":0.176},{"voice":0,"pitch":73,"start":184.0907,"duration":0.2727,"velocity":127,"measure":85,"beat":2.5,"subject_pos":-1,"motif":"enigmatic_cell","motif_pos":0,"best_pos":0,"similarity":1.0,"stretto":false,"stretto_voices":0,"combination":[],"aug_dim":"","rhythm_ratio":1.0,"mirror":false,"chromatic_density":0.375,"complexity":0.72,"dissonance":0.176},{"voice":2,"pitch":64,"start":184.0907,"duration":0.2727,"velocity":127,"measure":85,"beat":2.5,"subject_pos":-1,"motif":"tail_inv","motif_pos":0,"best_pos":0,"similarity":1.0,"stretto":false,"stretto_voices":0,"combination":[],"aug_dim":"","rhythm_ratio":1.0,"mirror":false,"chromatic_density":0.375,"complexity":0.72,"dissonance":0.176},{"voice":0,"pitch":74,"start":184.3635,"duration":0.5455,"velocity":127,"measure":85,"beat":3.0,"subject_pos":-1,"motif":"enigmatic_cell","motif_pos":1,"best_pos":1,"similarity":1.0,"stretto":false,"stretto_voices":0,"combination":[],"aug_dim":"","rhythm_ratio":1.0,"mirror":false,"chromatic_density":0.375,"complexity":0.72,"dissonance":0.176},{"voice":1,"pitch":70,"start":184.3635,"duration":0.5455,"velocity":127,"measure":85,"beat":3.0,"subject_pos":-1,"motif":"","motif_pos":-1,"best_pos":6,"similarity":0.357,"stretto":false,"stretto_voices":0,"combination":[],"aug_dim":"","rhythm_ratio":1.0,"mirror":false,"chromatic_density":0.375,"complexity":0.72,"dissonance":0.176},{"voice":2,"pitch":65,"start":184.3635,"duration":0.2727,"velocity":127,"measure":85,"beat":3.0,"subject_pos":-1,"motif":"tail_inv","motif_pos":1,"best_pos":1,"similarity":1.0,"stretto":false,"stretto_voices":0,"combination":[],"aug_dim":"","rhythm_ratio":1.0,"mirror":false,"chromatic_density":0.375,"complexity":0.72,"dissonance":0.176},{"voice":3,"pitch":50,"start":184.3635,"duration":0.8182,"velocity":127,"measure":85,"beat":3.0,"subject_pos":1,"motif":"subject_inv","motif_pos":1,"best_pos":1,"similarity":1.0,"stretto":false,"stretto_voices":0,"combination":[],"aug_dim":"","rhythm_ratio":1.0,"mirror":false,"chromatic_density":0.375,"complexity":0.72,"dissonance":0.176},{"voice":2,"pitch":64,"start":184.6362,"duration":0.2727,"velocity":127,"measure":85,"beat":3.5,"subject_pos":-1,"motif":"tail_inv","motif_pos":2,"best_pos":2,"similarity":1.0,"stretto":false,"stretto_voices":0,"combination":[],"aug_dim":"","rhythm_ratio":1.0,"mirror":false,"chromatic_density":0.375,"complexity":0.72,"dissonance":0.176},{"voice":0,"pitch":69,"start":184.9089,"duration":0.5455,"velocity":127,"measure":85,"beat":4.0,"subject_pos":-1,"motif":"enigmatic_cell","motif_pos":2,"best_pos":2,"similarity":1.0,"stretto":false,"stretto_voices":0,"combination":[],"aug_dim":"","rhythm_ratio":1.0,"mirror":false,"chromatic_density":0.375,"complexity":0.72,"dissonance":0.176},{"voice":1,"pitch":65,"start":184.9089,"duration":0.5455,"velocity":127,"measure":85,"beat":4.0,"subject_pos":-1,"motif":"","motif_pos":-1,"best_pos":2,"similarity":0.257,"stretto":false,"stretto_voices":0,"combination":[],"aug_dim":"","rhythm_ratio":1.0,"mirror":false,"chromatic_density":0.375,"complexity":0.72,"dissonance":0.176},{"voice":2,"pitch":62,"start":184.9089,"duration":0.2727,"velocity":127,"measure":85,"beat":4.0,"subject_pos":-1,"motif":"tail_inv","motif_pos":3,"best_pos":3,"similarity":1.0,"stretto":false,"stretto_voices":0,"combination":[],"aug_dim":"","rhythm_ratio":1.0,"mirror":false,"chromatic_density":0.375,"complexity":0.72,"dissonance":0.176},{"voice":2,"pitch":61,"start":185.1816,"duration":0.2727,"velocity":127,"measure":85,"beat":4.5,"subject_pos":-1,"motif":"tail_inv","motif_pos":4,"best_pos":4,"similarity":1.0,"stretto":false,"stretto_voices":0,"combination":[],"aug_dim":"","rhythm_ratio":1.0,"mirror":false,"chromatic_density":0.375,"complexity":0.72,"dissonance":0.176},{"voice":3,"pitch":52,"start":185.1816,"duration":0.2727,"velocity":127,"measure":85,"beat":4.5,"subject_pos":2,"motif":"subject_inv","motif_pos":2,"best_pos":2,"similarity":1.0,"stretto":false,"stretto_voices":0,"combination":[],"aug_dim":"","rhythm_ratio":1.0,"mirror":false,"chromatic_density":0.375,"complexity":0.72,"dissonance":0.176},{"voice":2,"pitch":62,"start":185.4544,"duration":0.2727,"velocity":127,"measure":86,"beat":1.0,"subject_pos":-1,"motif":"","motif_pos":-1,"best_pos":5,"similarity":0.464,"stretto":false,"stretto_voices":0,"combination":[],"aug_dim":"","rhythm_ratio":1.0,"mirror":false,"chromatic_density":0.182,"complexity":0.629,"dissonance":0.026},{"voice":3,"pitch":53,"start":185.4544,"duration":0.8182,"velocity":127,"measure":86,"beat":1.0,"subject_pos":3,"motif":"subject_inv","motif_pos":3,"best_pos":3,"similarity":1.0,"stretto":false,"stretto_voices":0,"combination":[],"aug_dim":"","rhythm_ratio":1.0,"mirror":false,"chromatic_density":0.182,"complexity":0.629,"dissonance":0.026},{"voice":2,"pitch":57,"start":185.7271,"duration":0.2727,"velocity":127,"measure":86,"beat":1.5,"subject_pos":-1,"motif":"","motif_pos":-1,"best_pos":6,"similarity":0.214,"stretto":false,"stretto_voices":0,"combination":[],"aug_dim":"","rhythm_ratio":1.0,"mirror":false,"chromatic_density":0.182,"complexity":0.629,"dissonance":0.026},{"voice":0,"pitch":77,"start":185.9998,"duration":0.5455,"velocity":127,"measure":86,"beat":2.0,"subject_pos":-1,"motif":"","motif_pos":-1,"best_pos":3,"similarity":0.379,"stretto":false,"stretto_voices":0,"combination":[],"aug_dim":"","rhythm_ratio":1.0,"mirror":false,"chromatic_density":0.182,"complexity":0.629,"dissonance":0.026},{"voice":1,"pitch":74,"start":185.9998,"duration":0.5455,"velocity":127,"measure":86,"beat":2.0,"subject_pos":-1,"motif":"","motif_pos":-1,"best_pos":1,"similarity":0.357,"stretto":false,"stretto_voices":0,"combination":[],"aug_dim":"","rhythm_ratio":1.0,"mirror":false,"chromatic_density":0.182,"complexity":0.629,"dissonance":0.026},{"voice":2,"pitch":69,"start":185.9998,"duration":0.8182,"velocity":127,"measure":86,"beat":2.0,"subject_pos":-1,"motif":"","motif_pos":-1,"best_pos":1,"similarity":0.286,"stretto":false,"stretto_voices":0,"combination":[],"aug_dim":"","rhythm_ratio":1.0,"mirror":false,"chromatic_density":0.182,"complexity":0.629,"dissonance":0.026},{"voice":3,"pitch":55,"start":186.2725,"duration":0.2727,"velocity":127,"measure":86,"beat":2.5,"subject_pos":4,"motif":"subject_inv","motif_pos":4,"best_pos":4,"similarity":1.0,"stretto":false,"stretto_voices":0,"combination":[],"aug_dim":"","rhythm_ratio":1.0,"mirror":false,"chromatic_density":0.182,"complexity":0.629,"dissonance":0.026},{"voice":0,"pitch":76,"start":186.5453,"duration":0.5455,"velocity":127,"measure":86,"beat":3.0,"subject_pos":-1,"motif":"","motif_pos":-1,"best_pos":4,"similarity":0.386,"stretto":false,"stretto_voices":0,"combination":[],"aug_dim":"","rhythm_ratio":1.0,"mirror":false,"chromatic_density":0.182,"complexity":0.629,"dissonance":0.026},{"voice":1,"pitch":72,"start":186.5453,"duration":0.5455,"velocity":127,"measure":86,"beat":3.0,"subject_pos":-1,"motif":"","motif_pos":-1,"best_pos":2,"similarity":0.357,"stretto":false,"stretto_voices":0,"combination":[],"aug_dim":"","rhythm_ratio":1.0,"mirror":false,"chromatic_density":0.182,"complexity":0.629,"dissonance":0.026},{"voice":3,"pitch":57,"start":186.5453,"duration":1.0909,"velocity":127,"measure":86,"beat":3.0,"subject_pos":5,"motif":"subject_inv","motif_pos":5,"best_pos":5,"similarity":1.0,"stretto":false,"stretto_voices":0,"combination":[],"aug_dim":"","rhythm_ratio":1.0,"mirror":false,"chromatic_density":0.182,"complexity":0.629,"dissonance":0.026},{"voice":2,"pitch":64,"start":186.818,"duration":0.2727,"velocity":127,"measure":86,"beat":3.5,"subject_pos":-1,"motif":"","motif_pos":-1,"best_pos":2,"similarity":0.429,"stretto":false,"stretto_voices":0,"combination":[],"aug_dim":"","rhythm_ratio":1.0,"mirror":false,"chromatic_density":0.182,"complexity":0.629,"dissonance":0.026},{"voice":0,"pitch":81,"start":187.0907,"duration":0.5455,"velocity":127,"measure":86,"beat":4.0,"subject_pos":-1,"motif":"head_inv","motif_pos":0,"best_pos":0,"similarity":1.0,"stretto":false,"stretto_voices":0,"combination":[],"aug_dim":"","rhythm_ratio":1.0,"mirror":false,"chromatic_density":0.182,"complexity":0.629,"dissonance":0.026},{"voice":1,"pitch":77,"start":187.0907,"duration":0.5455,"velocity":127,"measure":86,"beat":4.0,"subject_pos":-1,"motif":"","motif_pos":-1,"best_pos":1,"similarity":0.321,"stretto":false,"stretto_voices":0,"combination":[],"aug_dim":"","rhythm_ratio":1.0,"mirror":false,"chromatic_density":0.182,"complexity":0.629,"dissonance":0.026},{"voice":2,"pitch":62,"start":187.0907,"duration":0.2727,"velocity":127,"measure":86,"beat":4.0,"subject_pos":-1,"motif":"enigmatic_cell","motif_pos":0,"best_pos":0,"similarity":1.0,"stretto":false,"stretto_voices":0,"combination":[],"aug_dim":"","rhythm_ratio":1.0,"mirror":false,"chromatic_density":0.182,"complexity":0.629,"dissonance":0.026},{"voice":2,"pitch":61,"start":187.3634,"duration":0.2727,"velocity":127,"measure":86,"beat":4.5,"subject_pos":-1,"motif":"enigmatic_cell","motif_pos":1,"best_pos":1,"similarity":1.0,"stretto":false,"stretto_voices":0,"combination":[],"aug_dim":"","rhythm_ratio":1.0,"mirror":false,"chromatic_density":0.182,"complexity":0.629,"dissonance":0.026},{"voice":0,"pitch":74,"start":187.6362,"duration":0.2727,"velocity":127,"measure":87,"beat":1.0,"subject_pos":-1,"motif":"head_inv","motif_pos":1,"best_pos":1,"similarity":1.0,"stretto":false,"stretto_voices":0,"combination":[],"aug_dim":"","rhythm_ratio":1.0,"mirror":false,"chromatic_density":0.235,"complexity":0.664,"dissonance":0.147},{"voice":1,"pitch":70,"start":187.6362,"duration":0.2727,"velocity":127,"measure":87,"beat":1.0,"subject_pos":-1,"motif":"","motif_pos":-1,"best_pos":4,"similarity":0.393,"stretto":false,"stretto_voices":0,"combination":[],"aug_dim":"","rhythm_ratio":1.0,"mirror":false,"chromatic_density":0.235,"complexity":0.664,"dissonance":0.147},{"voice":2,"pitch":67,"start":187.6362,"duration":0.5455,"velocity":127,"measure":87,"beat":1.0,"subject_pos":-1,"motif":"enigmatic_cell","motif_pos":2,"best_pos":2,"similarity":1.0,"stretto":false,"stretto_voices":0,"combination":[],"aug_dim":"","rhythm_ratio":1.0,"mirror":false,"chromatic_density":0.235,"complexity":0.664,"dissonance":0.147},{"voice":3,"pitch":58,"start":187.6362,"duration":1.0909,"velocity":127,"measure":87,"beat":1.0,"subject_pos":6,"motif":"subject_inv","motif_pos":6,"best_pos":6,"similarity":1.0,"stretto":false,"stretto_voices":0,"combination":[],"aug_dim":"","rhythm_ratio":1.0,"mirror":false,"chromatic_density":0.235,"complexity":0.664,"dissonance":0.147},{"voice":0,"pitch":76,"start":187.9089,"duration":0.2727,"velocity":127,"measure":87,"beat":1.5,"subject_pos":-1,"motif":"head_inv","motif_pos":2,"best_pos":2,"similarity":1.0,"stretto":false,"stretto_voices":0,"combination":[],"aug_dim":"","rhythm_ratio":1.0,"mirror":false,"chromatic_density":0.235,"complexity":0.664,"dissonance":0.147},{"voice":1,"pitch":72,"start":187.9089,"duration":0.2727,"velocity":127,"measure":87,"beat":1.5,"subject_pos":-1,"motif":"","motif_pos":-1,"best_pos":5,"similarity":0.5,"stretto":false,"stretto_voices":0,"combination":[],"aug_dim":"","rhythm_ratio":1.0,"mirror":false,"chromatic_density":0.235,"complexity":0.664,"dissonance":0.147},{"voice":0,"pitch":77,"start":188.1816,"duration":0.2727,"velocity":127,"measure":87,"beat":2.0,"subject_pos":-1,"motif":"head_inv","motif_pos":3,"best_pos":3,"similarity":1.0,"stretto":false,"stretto_voices":0,"combination":[],"aug_dim":"","rhythm_ratio":1.0,"mirror":false,"chromatic_density":0.235,"complexity":0.664,"dissonance":0.147},{"voice":1,"pitch":74,"start":188.1816,"duration":0.2727,"velocity":127,"measure":87,"beat":2.0,"subject_pos":-1,"motif":"","motif_pos":-1,"best_pos":5,"similarity":0.593,"stretto":false,"stretto_voices":0,"combination":[],"aug_dim":"","rhythm_ratio":1.0,"mirror":false,"chromatic_density":0.235,"complexity":0.664,"dissonance":0.147},{"voice":2,"pitch":62,"start":188.1816,"duration":0.5455,"velocity":127,"measure":87,"beat":2.0,"subject_pos":-1,"motif":"","motif_pos":-1,"best_pos":2,"similarity":0.321,"stretto":false,"stretto_voices":0,"combination":[],"aug_dim":"","rhythm_ratio":1.0,"mirror":false,"chromatic_density":0.235,"complexity":0.664,"dissonance":0.147},{"voice":0,"pitch":79,"start":188.4544,"duration":0.2727,"velocity":127,"measure":87,"beat":2.5,"subject_pos":-1,"motif":"head_inv","motif_pos":4,"best_pos":4,"similarity":1.0,"stretto":false,"stretto_voices":0,"combination":[],"aug_dim":"","rhythm_ratio":1.0,"mirror":false,"chromatic_density":0.235,"complexity":0.664,"dissonance":0.147},{"voice":1,"pitch":76,"start":188.4544,"duration":0.2727,"velocity":127,"measure":87,"beat":2.5,"subject_pos":-1,"motif":"","motif_pos":-1,"best_pos":6,"similarity":0.65,"stretto":false,"stretto_voices":0,"combination":[],"aug_dim":"","rhythm_ratio":1.0,"mirror":false,"chromatic_density":0.235,"complexity":0.664,"dissonance":0.147},{"voice":0,"pitch":81,"start":188.7271,"duration":0.2727,"velocity":127,"measure":87,"beat":3.0,"subject_pos":-1,"motif":"","motif_pos":-1,"best_pos":6,"similarity":0.661,"stretto":false,"stretto_voices":0,"combination":[],"aug_dim":"","rhythm_ratio":1.0,"mirror":false,"chromatic_density":0.235,"complexity":0.664,"dissonance":0.147},{"voice":1,"pitch":77,"start":188.7271,"duration":0.2727,"velocity":127,"measure":87,"beat":3.0,"subject_pos":-1,"motif":"","motif_pos":-1,"best_pos":5,"similarity":0.657,"stretto":false,"stretto_voices":0,"combination":[],"aug_dim":"","rhythm_ratio":1.0,"mirror":false,"chromatic_density":0.235,"complexity":0.664,"dissonance":0.147},{"voice":3,"pitch":57,"start":188.7271,"duration":0.8182,"velocity":127,"measure":87,"beat":3.0,"subject_pos":7,"motif":"subject_inv","motif_pos":7,"best_pos":7,"similarity":1.0,"stretto":false,"stretto_voices":0,"combination":[],"aug_dim":"","rhythm_ratio":1.0,"mirror":false,"chromatic_density":0.235,"complexity":0.664,"dissonance":0.147},{"voice":0,"pitch":82,"start":188.9998,"duration":0.2727,"velocity":127,"measure":87,"beat":3.5,"subject_pos":-1,"motif":"","motif_pos":-1,"best_pos":5,"similarity":0.6,"stretto":false,"stretto_voices":0,"combination":[],"aug_dim":"","rhythm_ratio":1.0,"mirror":false,"chromatic_density":0.235,"complexity":0.664,"dissonance":0.147},{"voice":1,"pitch":79,"start":188.9998,"duration":0.2727,"velocity":127,"measure":87,"beat":3.5,"subject_pos":-1,"motif":"","motif_pos":-1,"best_pos":6,"similarity":0.579,"stretto":false,"stretto_voices":0,"combination":[],"aug_dim":"","rhythm_ratio":1.0,"mirror":false,"chromatic_density":0.235,"complexity":0.664,"dissonance":0.147},{"voice":2,"pitch":62,"start":188.9998,"duration":0.2727,"velocity":127,"measure":87,"beat":3.5,"subject_pos":-1,"motif":"","motif_pos":-1,"best_pos":1,"similarity":0.429,"stretto":false,"stretto_voices":0,"combination":[],"aug_dim":"","rhythm_ratio":1.0,"mirror":false,"chromatic_density":0.235,"complexity":0.664,"dissonance":0.147},{"voice":0,"pitch":84,"start":189.2725,"duration":0.8182,"velocity":127,"measure":87,"beat":4.0,"subject_pos":-1,"motif":"","motif_pos":-1,"best_pos":6,"similarity":0.464,"stretto":false,"stretto_voices":0,"combination":[],"aug_dim":"","rhythm_ratio":1.0,"mirror":false,"chromatic_density":0.235,"complexity":0.664,"dissonance":0.147},{"voice":1,"pitch":81,"start":189.2725,"duration":0.8182,"velocity":127,"measure":87,"beat":4.0,"subject_pos":-1,"motif":"","motif_pos":-1,"best_pos":1,"similarity":0.457,"stretto":false,"stretto_voices":0,"combination":[],"aug_dim":"","rhythm_ratio":1.0,"mirror":false,"chromatic_density":0.235,"complexity":0.664,"dissonance":0.147},{"voice":2,"pitch":60,"start":189.2725,"duration":0.2727,"velocity":127,"measure":87,"beat":4.0,"subject_pos":-1,"motif":"","motif_pos":-1,"best_pos":2,"similarity":0.579,"stretto":false,"stretto_voices":0,"combination":[],"aug_dim":"","rhythm_ratio":1.0,"mirror":false,"chromatic_density":0.235,"complexity":0.664,"dissonance":0.147},{"voice":2,"pitch":58,"start":189.5453,"duration":0.2727,"velocity":127,"measure":87,"beat":4.5,"subject_pos":-1,"motif":"","motif_pos":-1,"best_pos":3,"similarity":0.621,"stretto":false,"stretto_voices":0,"combination":[],"aug_dim":"","rhythm_ratio":1.0,"mirror":false,"chromatic_density":0.235,"complexity":0.664,"dissonance":0.147},{"voice":3,"pitch":55,"start":189.5453,"duration":0.2727,"velocity":127,"measure":87,"beat":4.5,"subject_pos":8,"motif":"subject_inv","motif_pos":8,"best_pos":0,"similarity":1.0,"stretto":false,"stretto_voices":0,"combination":[],"aug_dim":"","rhythm_ratio":1.0,"mirror":false,"chromatic_density":0.235,"complexity":0.664,"dissonance":0.147},{"voice":2,"pitch":57,"start":189.818,"duration":0.8182,"velocity":127,"measure":88,"beat":1.0,"subject_pos":-1,"motif":"","motif_pos":-1,"best_pos":4,"similarity":0.529,"stretto":false,"stretto_voices":0,"combination":[],"aug_dim":"","rhythm_ratio":1.0,"mirror":false,"chromatic_density":0.417,"complexity":0.608,"dissonance":0.17},{"voice":3,"pitch":53,"start":189.818,"duration":1.3636,"velocity":127,"measure":88,"beat":1.0,"subject_pos":-1,"motif":"","motif_pos":-1,"best_pos":3,"similarity":0.786,"stretto":false,"stretto_voices":0,"combination":[],"aug_dim":"","rhythm_ratio":1.0,"mirror":false,"chromatic_density":0.417,"complexity":0.608,"dissonance":0.17},{"voice":0,"pitch":82,"start":190.0907,"duration":0.2727,"velocity":127,"measure":88,"beat":1.5,"subject_pos":-1,"motif":"","motif_pos":-1,"best_pos":3,"similarity":0.471,"stretto":false,"stretto_voices":0,"combination":[],"aug_dim":"","rhythm_ratio":1.0,"mirror":false,"chromatic_density":0.417,"complexity":0.608,"dissonance":0.17},{"voice":1,"pitch":79,"start":190.0907,"duration":0.2727,"velocity":127,"measure":88,"beat":1.5,"subject_pos":-1,"motif":"","motif_pos":-1,"best_pos":2,"similarity":0.593,"stretto":false,"stretto_voices":0,"combination":[],"aug_dim":"","rhythm_ratio":1.0,"mirror":false,"chromatic_density":0.417,"complexity":0.608,"dissonance":0.17},{"voice":0,"pitch":81,"start":190.3634,"duration":0.2727,"velocity":127,"measure":88,"beat":2.0,"subject_pos":-1,"motif":"","motif_pos":-1,"best_pos":1,"similarity":0.429,"stretto":false,"stretto_voices":0,"combination":[],"aug_dim":"","rhythm_ratio":1.0,"mirror":false,"chromatic_density":0.417,"complexity":0.608,"dissonance":0.17},{"voice":1,"pitch":77,"start":190.3634,"duration":0.2727,"velocity":127,"measure":88,"beat":2.0,"subject_pos":-1,"motif":"","motif_pos":-1,"best_pos":3,"similarity":0.6,"stretto":false,"stretto_voices":0,"combination":[],"aug_dim":"","rhythm_ratio":1.0,"mirror":false,"chromatic_density":0.417,"complexity":0.608,"dissonance":0.17},{"voice":0,"pitch":79,"start":190.6362,"duration":0.2727,"velocity":127,"measure":88,"beat":2.5,"subject_pos":-1,"motif":"","motif_pos":-1,"best_pos":2,"similarity":0.571,"stretto":false,"stretto_voices":0,"combination":[],"aug_dim":"","rhythm_ratio":1.0,"mirror":false,"chromatic_density":0.417,"complexity":0.608,"dissonance":0.17},{"voice":1,"pitch":76,"start":190.6362,"duration":0.2727,"velocity":127,"measure":88,"beat":2.5,"subject_pos":-1,"motif":"","motif_pos":-1,"best_pos":4,"similarity":0.471,"stretto":false,"stretto_voices":0,"combination":[],"aug_dim":"","rhythm_ratio":1.0,"mirror":false,"chromatic_density":0.417,"complexity":0.608,"dissonance":0.17},{"voice":2,"pitch":61,"start":190.6362,"duration":0.2727,"velocity":127,"measure":88,"beat":2.5,"subject_pos":-1,"motif":"enigmatic_cell","motif_pos":0,"best_pos":0,"similarity":1.0,"stretto":false,"stretto_voices":0,"combination":[],"aug_dim":"","rhythm_ratio":1.0,"mirror":false,"chromatic_density":0.417,"complexity":0.608,"dissonance":0.17},{"voice":0,"pitch":77,"start":190.9089,"duration":1.0909,"velocity":127,"measure":88,"beat":3.0,"subject_pos":-1,"motif":"","motif_pos":-1,"best_pos":3,"similarity":0.643,"stretto":false,"stretto_voices":0,"combination":[],"aug_dim":"","rhythm_ratio":1.0,"mirror":false,"chromatic_density":0.417,"complexity":0.608,"dissonance":0.17},{"voice":1,"pitch":74,"start":190.9089,"duration":1.0909,"velocity":127,"measure":88,"beat":3.0,"subject_pos":-1,"motif":"","motif_pos":-1,"best_pos":3,"similarity":0.571,"stretto":false,"stretto_voices":0,"combination":[],"aug_dim":"","rhythm_ratio":1.0,"mirror":false,"chromatic_density":0.417,"complexity":0.608,"dissonance":0.17},{"voice":2,"pitch":62,"start":190.9089,"duration":0.5455,"velocity":127,"measure":88,"beat":3.0,"subject_pos":-1,"motif":"enigmatic_cell","motif_pos":1,"best_pos":1,"similarity":1.0,"stretto":false,"stretto_voices":0,"combination":[],"aug_dim":"","rhythm_ratio":1.0,"mirror":false,"chromatic_density":0.417,"complexity":0.608,"dissonance":0.17},{"voice":3,"pitch":52,"start":191.1816,"duration":0.2727,"velocity":127,"measure":88,"beat":3.5,"subject_pos":-1,"motif":"","motif_pos":-1,"best_pos":4,"similarity":0.893,"stretto":false,"stretto_voices":0,"combination":[],"aug_dim":"","rhythm_ratio":1.0,"mirror":false,"chromatic_density":0.417,"complexity":0.608,"dissonance":0.17},{"voice":2,"pitch":57,"start":191.4544,"duration":0.5455,"velocity":127,"measure":88,"beat":4.0,"subject_pos":-1,"motif":"enigmatic_cell","motif_pos":2,"best_pos":2,"similarity":1.0,"stretto":false,"stretto_voices":0,"combination":[],"aug_dim":"","rhythm_ratio":1.0,"mirror":false,"chromatic_density":0.417,"complexity":0.608,"dissonance":0.17},{"voice":3,"pitch":53,"start":191.4544,"duration":0.2727,"velocity":127,"measure":88,"beat":4.0,"subject_pos":-1,"motif":"","motif_pos":-1,"best_pos":5,"similarity":0.821,"stretto":false,"stretto_voices":0,"combination":[],"aug_dim":"","rhythm_ratio":1.0,"mirror":false,"chromatic_density":0.417,"complexity":0.608,"dissonance":0.17},{"voice":3,"pitch":55,"start":191.7271,"duration":0.2727,"velocity":127,"measure":88,"beat":4.5,"subject_pos":-1,"motif":"","motif_pos":-1,"best_pos":6,"similarity":0.643,"stretto":false,"stretto_voices":0,"combination":[],"aug_dim":"","rhythm_ratio":1.0,"mirror":false,"chromatic_density":0.417,"complexity":0.608,"dissonance":0.17},{"voice":0,"pitch":76,"start":191.9998,"duration":1.0909,"velocity":127,"measure":89,"beat":1.0,"subject_pos":-1,"motif":"","motif_pos":-1,"best_pos":4,"similarity":0.579,"stretto":false,"stretto_voices":0,"combination":[],"aug_dim":"","rhythm_ratio":1.0,"mirror":false,"chromatic_density":0.143,"complexity":0.528,"dissonance":0.085},{"voice":1,"pitch":73,"start":191.9998,"duration":1.0909,"velocity":127,"measure":89,"beat":1.0,"subject_pos":-1,"motif":"","motif_pos":-1,"best_pos":4,"similarity":0.543,"stretto":false,"stretto_voices":0,"combination":[],"aug_dim":"","rhythm_ratio":1.0,"mirror":false,"chromatic_density":0.143,"complexity":0.528,"dissonance":0.085},{"voice":2,"pitch":69,"start":191.9998,"duration":0.2727,"velocity":127,"measure":89,"beat":1.0,"subject_pos":-1,"motif":"","motif_pos":-1,"best_pos":1,"similarity":0.221,"stretto":false,"stretto_voices":0,"combination":[],"aug_dim":"","rhythm_ratio":1.0,"mirror":false,"chromatic_density":0.143,"complexity":0.528,"dissonance":0.085},{"voice":3,"pitch":57,"start":191.9998,"duration":1.0909,"velocity":127,"measure":89,"beat":1.0,"subject_pos":-1,"motif":"","motif_pos":-1,"best_pos":6,"similarity":0.518,"stretto":false,"stretto_voices":0,"combination":[],"aug_dim":"","rhythm_ratio":1.0,"mirror":false,"chromatic_density":0.143,"complexity":0.528,"dissonance":0.085},{"voice":2,"pitch":64,"start":192.2725,"duration":0.2727,"velocity":127,"measure":89,"beat":1.5,"subject_pos":-1,"motif":"","motif_pos":-1,"best_pos":2,"similarity":0.371,"stretto":false,"stretto_voices":0,"combination":[],"aug_dim":"","rhythm_ratio":1.0,"mirror":false,"chromatic_density":0.143,"complexity":0.528,"dissonance":0.085},{"voice":2,"pitch":62,"start":192.5453,"duration":0.2727,"velocity":127,"measure":89,"beat":2.0,"subject_pos":-1,"motif":"","motif_pos":-1,"best_pos":5,"similarity":0.471,"stretto":false,"stretto_voices":0,"combination":[],"aug_dim":"","rhythm_ratio":1.0,"mirror":false,"chromatic_density":0.143,"complexity":0.528,"dissonance":0.085},{"voice":2,"pitch":64,"start":192.818,"duration":0.2727,"velocity":127,"measure":89,"beat":2.5,"subject_pos":-1,"motif":"","motif_pos":-1,"best_pos":6,"similarity":0.593,"stretto":false,"stretto_voices":0,"combination":[],"aug_dim":"","rhythm_ratio":1.0,"mirror":false,"chromatic_density":0.143,"complexity":0.528,"dissonance":0.085},{"voice":2,"pitch":65,"start":193.0907,"duration":0.5455,"velocity":127,"measure":89,"beat":3.0,"subject_pos":-1,"motif":"","motif_pos":-1,"best_pos":5,"similarity":0.479,"stretto":false,"stretto_voices":0,"combination":[],"aug_dim":"","rhythm_ratio":1.0,"mirror":false,"chromatic_density":0.143,"complexity":0.528,"dissonance":0.085},{"voice":3,"pitch":57,"start":193.3634,"duration":0.2727,"velocity":127,"measure":89,"beat":3.5,"subject_pos":-1,"motif":"","motif_pos":-1,"best_pos":4,"similarity":0.393,"stretto":false,"stretto_voices":0,"combination":[],"aug_dim":"","rhythm_ratio":1.0,"mirror":false,"chromatic_density":0.143,"complexity":0.528,"dissonance":0.085},{"voice":2,"pitch":61,"start":193.6362,"duration":0.5455,"velocity":127,"measure":89,"beat":4.0,"subject_pos":-1,"motif":"enigmatic_cell","motif_pos":0,"best_pos":0,"similarity":1.0,"stretto":false,"stretto_voices":0,"combination":[],"aug_dim":"","rhythm_ratio":1.0,"mirror":false,"chromatic_density":0.143,"complexity":0.528,"dissonance":0.085},{"voice":3,"pitch":55,"start":193.6362,"duration":0.2727,"velocity":127,"measure":89,"beat":4.0,"subject_pos":-1,"motif":"","motif_pos":-1,"best_pos":5,"similarity":0.529,"stretto":false,"stretto_voices":0,"combination":[],"aug_dim":"","rhythm_ratio":1.0,"mirror":false,"chromatic_density":0.143,"complexity":0.528,"dissonance":0.085},{"voice":3,"pitch":57,"start":193.9089,"duration":0.2727,"velocity":127,"measure":89,"beat":4.5,"subject_pos":-1,"motif":"","motif_pos":-1,"best_pos":6,"similarity":0.621,"stretto":false,"stretto_voices":0,"combination":[],"aug_dim":"","rhythm_ratio":1.0,"mirror":false,"chromatic_density":0.143,"complexity":0.528,"dissonance":0.085},{"voice":2,"pitch":62,"start":194.1816,"duration":0.5455,"velocity":127,"measure":90,"beat":1.0,"subject_pos":-1,"motif":"enigmatic_cell","motif_pos":1,"best_pos":1,"similarity":1.0,"stretto":false,"stretto_voices":0,"combination":[],"aug_dim":"","rhythm_ratio":1.0,"mirror":false,"chromatic_density":0.083,"complexity":0.581,"dissonance":0.142},{"voice":3,"pitch":58,"start":194.1816,"duration":0.5455,"velocity":127,"measure":90,"beat":1.0,"subject_pos":-1,"motif":"","motif_pos":-1,"best_pos":7,"similarity":0.436,"stretto":false,"stretto_voices":0,"combination":[],"aug_dim":"","rhythm_ratio":1.0,"mirror":false,"chromatic_density":0.083,"complexity":0.581,"dissonance":0.142},{"voice":1,"pitch":67,"start":194.4544,"duration":0.2727,"velocity":127,"measure":90,"beat":1.5,"subject_pos":-1,"motif":"","motif_pos":-1,"best_pos":5,"similarity":0.479,"stretto":false,"stretto_voices":0,"combination":[],"aug_dim":"","rhythm_ratio":1.0,"mirror":false,"chromatic_density":0.083,"complexity":0.581,"dissonance":0.142},{"voice":1,"pitch":69,"start":194.7271,"duration":0.2727,"velocity":127,"measure":90,"beat":2.0,"subject_pos":-1,"motif":"","motif_pos":-1,"best_pos":6,"similarity":0.386,"stretto":false,"stretto_voices":0,"combination":[],"aug_dim":"","rhythm_ratio":1.0,"mirror":false,"chromatic_density":0.083,"complexity":0.581,"dissonance":0.142},{"voice":2,"pitch":57,"start":194.7271,"duration":0.5455,"velocity":127,"measure":90,"beat":2.0,"subject_pos":-1,"motif":"enigmatic_cell","motif_pos":2,"best_pos":2,"similarity":1.0,"stretto":false,"stretto_voices":0,"combination":[],"aug_dim":"","rhythm_ratio":1.0,"mirror":false,"chromatic_density":0.083,"complexity":0.581,"dissonance":0.142},{"voice":3,"pitch":54,"start":194.7271,"duration":0.5455,"velocity":127,"measure":90,"beat":2.0,"subject_pos":-1,"motif":"","motif_pos":-1,"best_pos":2,"similarity":0.371,"stretto":false,"stretto_voices":0,"combination":[],"aug_dim":"","rhythm_ratio":1.0,"mirror":false,"chromatic_density":0.083,"complexity":0.581,"dissonance":0.142},{"voice":1,"pitch":67,"start":194.9998,"duration":0.2727,"velocity":127,"measure":90,"beat":2.5,"subject_pos":-1,"motif":"","motif_pos":-1,"best_pos":3,"similarity":0.486,"stretto":false,"stretto_voices":0,"combination":[],"aug_dim":"","rhythm_ratio":1.0,"mirror":false,"chromatic_density":0.083,"complexity":0.581,"dissonance":0.142},{"voice":1,"pitch":66,"start":195.2725,"duration":0.5455,"velocity":127,"measure":90,"beat":3.0,"subject_pos":-1,"motif":"","motif_pos":-1,"best_pos":4,"similarity":0.457,"stretto":false,"stretto_voices":0,"combination":[],"aug_dim":"","rhythm_ratio":1.0,"mirror":false,"chromatic_density":0.083,"complexity":0.581,"dissonance":0.142},{"voice":2,"pitch":60,"start":195.2725,"duration":0.5455,"velocity":127,"measure":90,"beat":3.0,"subject_pos":-1,"motif":"","motif_pos":-1,"best_pos":5,"similarity":0.236,"stretto":false,"stretto_voices":0,"combination":[],"aug_dim":"","rhythm_ratio":1.0,"mirror":false,"chromatic_density":0.083,"complexity":0.581,"dissonance":0.142},{"voice":3,"pitch":57,"start":195.2725,"duration":0.5455,"velocity":127,"measure":90,"beat":3.0,"subject_pos":-1,"motif":"","motif_pos":-1,"best_pos":3,"similarity":0.329,"stretto":false,"stretto_voices":0,"combination":[],"aug_dim":"","rhythm_ratio":1.0,"mirror":false,"chromatic_density":0.083,"complexity":0.581,"dissonance":0.142},{"voice":0,"pitch":72,"start":195.5453,"duration":0.2727,"velocity":127,"measure":90,"beat":3.5,"subject_pos":-1,"motif":"","motif_pos":-1,"best_pos":5,"similarity":0.479,"stretto":false,"stretto_voices":0,"combination":[],"aug_dim":"","rhythm_ratio":1.0,"mirror":false,"chromatic_density":0.083,"complexity":0.581,"dissonance":0.142},{"voice":0,"pitch":74,"start":195.818,"duration":0.2727,"velocity":127,"measure":90,"beat":4.0,"subject_pos":-1,"motif":"","motif_pos":-1,"best_pos":1,"similarity":0.386,"stretto":false,"stretto_voices":0,"combination":[],"aug_dim":"","rhythm_ratio":1.0,"mirror":false,"chromatic_density":0.083,"complexity":0.581,"dissonance":0.142},{"voice":1,"pitch":69,"start":195.818,"duration":0.5455,"velocity":127,"measure":90,"beat":4.0,"subject_pos":-1,"motif":"","motif_pos":-1,"best_pos":1,"similarity":0.436,"stretto":false,"stretto_voices":0,"combination":[],"aug_dim":"","rhythm_ratio":1.0,"mirror":false,"chromatic_density":0.083,"complexity":0.581,"dissonance":0.142},{"voice":2,"pitch":54,"start":195.818,"duration":0.5455,"velocity":127,"measure":90,"beat":4.0,"subject_pos":-1,"motif":"","motif_pos":-1,"best_pos":4,"similarity":0.371,"stretto":false,"stretto_voices":0,"combination":[],"aug_dim":"","rhythm_ratio":1.0,"mirror":false,"chromatic_density":0.083,"complexity":0.581,"dissonance":0.142},{"voice":3,"pitch":50,"start":195.818,"duration":0.5455,"velocity":127,"measure":90,"beat":4.0,"subject_pos":-1,"motif":"","motif_pos":-1,"best_pos":4,"similarity":0.5,"stretto":false,"stretto_voices":0,"combination":[],"aug_dim":"","rhythm_ratio":1.0,"mirror":false,"chromatic_density":0.083,"complexity":0.581,"dissonance":0.142},{"voice":0,"pitch":72,"start":196.0907,"duration":0.2727,"velocity":127,"measure":90,"beat":4.5,"subject_pos":-1,"motif":"","motif_pos":-1,"best_pos":2,"similarity":0.479,"stretto":false,"stretto_voices":0,"combination":[],"aug_dim":"","rhythm_ratio":1.0,"mirror":false,"chromatic_density":0.083,"complexity":0.581,"dissonance":0.142},{"voice":0,"pitch":70,"start":196.3634,"duration":1.0909,"velocity":127,"measure":91,"beat":1.0,"subject_pos":-1,"motif":"","motif_pos":-1,"best_pos":3,"similarity":0.371,"stretto":false,"stretto_voices":0,"combination":[],"aug_dim":"","rhythm_ratio":1.0,"mirror":false,"chromatic_density":0.222,"complexity":0.498,"dissonance":0.169},{"voice":2,"pitch":55,"start":196.3634,"duration":0.5455,"velocity":127,"measure":91,"beat":1.0,"subject_pos":-1,"motif":"","motif_pos":-1,"best_pos":5,"similarity":0.386,"stretto":false,"stretto_voices":0,"combination":[],"aug_dim":"","rhythm_ratio":1.0,"mirror":false,"chromatic_density":0.222,"complexity":0.498,"dissonance":0.169},{"voice":3,"pitch":51,"start":196.3634,"duration":0.5455,"velocity":127,"measure":91,"beat":1.0,"subject_pos":-1,"motif":"","motif_pos":-1,"best_pos":5,"similarity":0.571,"stretto":false,"stretto_voices":0,"combination":[],"aug_dim":"","rhythm_ratio":1.0,"mirror":false,"chromatic_density":0.222,"complexity":0.498,"dissonance":0.169},{"voice":1,"pitch":67,"start":196.6362,"duration":0.2727,"velocity":127,"measure":91,"beat":1.5,"subject_pos":-1,"motif":"","motif_pos":-1,"best_pos":2,"similarity":0.514,"stretto":false,"stretto_voices":0,"combination":[],"aug_dim":"","rhythm_ratio":1.0,"mirror":false,"chromatic_density":0.222,"complexity":0.498,"dissonance":0.169},{"voice":1,"pitch":65,"start":196.9089,"duration":0.2727,"velocity":127,"measure":91,"beat":2.0,"subject_pos":-1,"motif":"","motif_pos":-1,"best_pos":4,"similarity":0.5,"stretto":false,"stretto_voices":0,"combination":[],"aug_dim":"","rhythm_ratio":1.0,"mirror":false,"chromatic_density":0.222,"complexity":0.498,"dissonance":0.169},{"voice":2,"pitch":60,"start":196.9089,"duration":0.5455,"velocity":127,"measure":91,"beat":2.0,"subject_pos":-1,"motif":"","motif_pos":-1,"best_pos":1,"similarity":0.436,"stretto":false,"stretto_voices":0,"combination":[],"aug_dim":"","rhythm_ratio":1.0,"mirror":false,"chromatic_density":0.222,"complexity":0.498,"dissonance":0.169},{"voice":3,"pitch":52,"start":196.9089,"duration":0.5455,"velocity":127,"measure":91,"beat":2.0,"subject_pos":-1,"motif":"","motif_pos":-1,"best_pos":6,"similarity":0.571,"stretto":false,"stretto_voices":0,"combination":[],"aug_dim":"","rhythm_ratio":1.0,"mirror":false,"chromatic_density":0.222,"complexity":0.498,"dissonance":0.169},{"voice":1,"pitch":67,"start":197.1816,"duration":0.2727,"velocity":127,"measure":91,"beat":2.5,"subject_pos":-1,"motif":"","motif_pos":-1,"best_pos":5,"similarity":0.536,"stretto":false,"stretto_voices":0,"combination":[],"aug_dim":"","rhythm_ratio":1.0,"mirror":false,"chromatic_density":0.222,"complexity":0.498,"dissonance":0.169},{"voice":1,"pitch":69,"start":197.4543,"duration":0.5455,"velocity":127,"measure":91,"beat":3.0,"subject_pos":-1,"motif":"","motif_pos":-1,"best_pos":6,"similarity":0.393,"stretto":false,"stretto_voices":0,"combination":[],"aug_dim":"","rhythm_ratio":1.0,"mirror":false,"chromatic_density":0.222,"complexity":0.498,"dissonance":0.169},{"voice":3,"pitch":53,"start":197.4543,"duration":0.5455,"velocity":127,"measure":91,"beat":3.0,"subject_pos":-1,"motif":"","motif_pos":-1,"best_pos":5,"similarity":0.5,"stretto":false,"stretto_voices":0,"combination":[],"aug_dim":"","rhythm_ratio":1.0,"mirror":false,"chromatic_density":0.222,"complexity":0.498,"dissonance":0.169},{"voice":2,"pitch":60,"start":197.7271,"duration":0.2727,"velocity":127,"measure":91,"beat":3.5,"subject_pos":-1,"motif":"","motif_pos":-1,"best_pos":2,"similarity":0.407,"stretto":false,"stretto_voices":0,"combination":[],"aug_dim":"","rhythm_ratio":1.0,"mirror":false,"chromatic_density":0.222,"complexity":0.498,"dissonance":0.169},{"voice":1,"pitch":64,"start":197.9998,"duration":0.5455,"velocity":127,"measure":91,"beat":4.0,"subject_pos":-1,"motif":"","motif_pos":-1,"best_pos":6,"similarity":0.364,"stretto":false,"stretto_voices":0,"combination":[],"aug_dim":"","rhythm_ratio":1.0,"mirror":false,"chromatic_density":0.222,"complexity":0.498,"dissonance":0.169},{"voice":2,"pitch":58,"start":197.9998,"duration":0.2727,"velocity":127,"measure":91,"beat":4.0,"subject_pos":-1,"motif":"","motif_pos":-1,"best_pos":5,"similarity":0.457,"stretto":false,"stretto_voices":0,"combination":[],"aug_dim":"","rhythm_ratio":1.0,"mirror":false,"chromatic_density":0.222,"complexity":0.498,"dissonance":0.169},{"voice":2,"pitch":60,"start":198.2725,"duration":0.2727,"velocity":127,"measure":91,"beat":4.5,"subject_pos":-1,"motif":"","motif_pos":-1,"best_pos":5,"similarity":0.507,"stretto":false,"stretto_voices":0,"combination":[],"aug_dim":"","rhythm_ratio":1.0,"mirror":false,"chromatic_density":0.222,"complexity":0.498,"dissonance":0.169},{"voice":1,"pitch":65,"start":198.5453,"duration":0.5455,"velocity":127,"measure":92,"beat":1.0,"subject_pos":-1,"motif":"","motif_pos":-1,"best_pos":0,"similarity":0.357,"stretto":false,"stretto_voices":0,"combination":[],"aug_dim":"","rhythm_ratio":1.0,"mirror":false,"chromatic_density":0.333,"complexity":0.575,"dissonance":0.065},{"voice":2,"pitch":62,"start":198.5453,"duration":0.5455,"velocity":127,"measure":92,"beat":1.0,"subject_pos":-1,"motif":"","motif_pos":-1,"best_pos":6,"similarity":0.393,"stretto":false,"stretto_voices":0,"combination":[],"aug_dim":"","rhythm_ratio":1.0,"mirror":false,"chromatic_density":0.333,"complexity":0.575,"dissonance":0.065},{"voice":0,"pitch":77,"start":198.818,"duration":0.2727,"velocity":127,"measure":92,"beat":1.5,"subject_pos":-1,"motif":"","motif_pos":-1,"best_pos":1,"similarity":0.457,"stretto":false,"stretto_voices":0,"combination":[],"aug_dim":"","rhythm_ratio":1.0,"mirror":false,"chromatic_density":0.333,"complexity":0.575,"dissonance":0.065},{"voice":0,"pitch":79,"start":199.0907,"duration":0.2727,"velocity":127,"measure":92,"beat":2.0,"subject_pos":-1,"motif":"","motif_pos":-1,"best_pos":2,"similarity":0.464,"stretto":false,"stretto_voices":0,"combination":[],"aug_dim":"","rhythm_ratio":1.0,"mirror":false,"chromatic_density":0.333,"complexity":0.575,"dissonance":0.065},{"voice":1,"pitch":72,"start":199.0907,"duration":0.5455,"velocity":127,"measure":92,"beat":2.0,"subject_pos":-1,"motif":"","motif_pos":-1,"best_pos":1,"similarity":0.429,"stretto":false,"stretto_voices":0,"combination":[],"aug_dim":"","rhythm_ratio":1.0,"mirror":false,"chromatic_density":0.333,"complexity":0.575,"dissonance":0.065},{"voice":2,"pitch":57,"start":199.0907,"duration":0.5455,"velocity":127,"measure":92,"beat":2.0,"subject_pos":-1,"motif":"","motif_pos":-1,"best_pos":3,"similarity":0.3,"stretto":false,"stretto_voices":0,"combination":[],"aug_dim":"","rhythm_ratio":1.0,"mirror":false,"chromatic_density":0.333,"complexity":0.575,"dissonance":0.065},{"voice":0,"pitch":77,"start":199.3634,"duration":0.2727,"velocity":127,"measure":92,"beat":2.5,"subject_pos":-1,"motif":"enigmatic_cell","motif_pos":0,"best_pos":0,"similarity":1.0,"stretto":false,"stretto_voices":0,"combination":[],"aug_dim":"","rhythm_ratio":1.0,"mirror":false,"chromatic_density":0.333,"complexity":0.575,"dissonance":0.065},{"voice":0,"pitch":76,"start":199.6362,"duration":0.5455,"velocity":127,"measure":92,"beat":3.0,"subject_pos":-1,"motif":"enigmatic_cell","motif_pos":1,"best_pos":1,"similarity":1.0,"stretto":false,"stretto_voices":0,"combination":[],"aug_dim":"","rhythm_ratio":1.0,"mirror":false,"chromatic_density":0.333,"complexity":0.575,"dissonance":0.065},{"voice":1,"pitch":67,"start":199.6362,"duration":0.5455,"velocity":127,"measure":92,"beat":3.0,"subject_pos":-1,"motif":"","motif_pos":-1,"best_pos":2,"similarity":0.293,"stretto":false,"stretto_voices":0,"combination":[],"aug_dim":"","rhythm_ratio":1.0,"mirror":false,"chromatic_density":0.333,"complexity":0.575,"dissonance":0.065},{"voice":2,"pitch":60,"start":199.6362,"duration":0.5455,"velocity":127,"measure":92,"beat":3.0,"subject_pos":-1,"motif":"","motif_pos":-1,"best_pos":4,"similarity":0.436,"stretto":false,"stretto_voices":0,"combination":[],"aug_dim":"","rhythm_ratio":1.0,"mirror":false,"chromatic_density":0.333,"complexity":0.575,"dissonance":0.065},{"voice":3,"pitch":52,"start":199.9089,"duration":0.2727,"velocity":127,"measure":92,"beat":3.5,"subject_pos":-1,"motif":"","motif_pos":-1,"best_pos":4,"similarity":0.614,"stretto":false,"stretto_voices":0,"combination":[],"aug_dim":"","rhythm_ratio":1.0,"mirror":false,"chromatic_density":0.333,"complexity":0.575,"dissonance":0.065},{"voice":0,"pitch":81,"start":200.1816,"duration":0.5455,"velocity":127,"measure":92,"beat":4.0,"subject_pos":-1,"motif":"enigmatic_cell","motif_pos":2,"best_pos":2,"similarity":1.0,"stretto":false,"stretto_voices":0,"combination":[],"aug_dim":"","rhythm_ratio":1.0,"mirror":false,"chromatic_density":0.333,"complexity":0.575,"dissonance":0.065},{"voice":1,"pitch":76,"start":200.1816,"duration":0.5455,"velocity":127,"measure":92,"beat":4.0,"subject_pos":-1,"motif":"","motif_pos":-1,"best_pos":3,"similarity":0.193,"stretto":false,"stretto_voices":0,"combination":[],"aug_dim":"","rhythm_ratio":1.0,"mirror":false,"chromatic_density":0.333,"complexity":0.575,"dissonance":0.065},{"voice":2,"pitch":61,"start":200.1816,"duration":0.5455,"velocity":127,"measure":92,"beat":4.0,"subject_pos":-1,"motif":"","motif_pos":-1,"best_pos":5,"similarity":0.475,"stretto":false,"stretto_voices":0,"combination":[],"aug_dim":"","rhythm_ratio":1.0,"mirror":false,"chromatic_density":0.333,"complexity":0.575,"dissonance":0.065},{"voice":3,"pitch":53,"start":200.1816,"duration":0.2727,"velocity":127,"measure":92,"beat":4.0,"subject_pos":-1,"motif":"","motif_pos":-1,"best_pos":5,"similarity":0.479,"stretto":false,"stretto_voices":0,"combination":[],"aug_dim":"","rhythm_ratio":1.0,"mirror":false,"chromatic_density":0.333,"complexity":0.575,"dissonance":0.065},{"voice":3,"pitch":52,"start":200.4543,"duration":0.2727,"velocity":127,"measure":92,"beat":4.5,"subject_pos":-1,"motif":"","motif_pos":-1,"best_pos":4,"similarity":0.443,"stretto":false,"stretto_voices":0,"combination":[],"aug_dim":"","rhythm_ratio":1.0,"mirror":false,"chromatic_density":0.333,"complexity":0.575,"dissonance":0.065},{"voice":0,"pitch":77,"start":200.7271,"duration":0.2727,"velocity":127,"measure":93,"beat":1.0,"subject_pos":-1,"motif":"","motif_pos":-1,"best_pos":2,"similarity":0.482,"stretto":false,"stretto_voices":0,"combination":[],"aug_dim":"","rhythm_ratio":1.0,"mirror":false,"chromatic_density":0.308,"complexity":0.538,"dissonance":0.083},{"voice":1,"pitch":69,"start":200.7271,"duration":0.5455,"velocity":127,"measure":93,"beat":1.0,"subject_pos":-1,"motif":"","motif_pos":-1,"best_pos":0,"similarity":0.318,"stretto":false,"stretto_voices":0,"combination":[],"aug_dim":"","rhythm_ratio":1.0,"mirror":false,"chromatic_density":0.308,"complexity":0.538,"dissonance":0.083},{"voice":2,"pitch":62,"start":200.7271,"duration":0.5455,"velocity":127,"measure":93,"beat":1.0,"subject_pos":-1,"motif":"","motif_pos":-1,"best_pos":1,"similarity":0.404,"stretto":false,"stretto_voices":0,"combination":[],"aug_dim":"","rhythm_ratio":1.0,"mirror":false,"chromatic_density":0.308,"complexity":0.538,"dissonance":0.083},{"voice":3,"pitch":50,"start":200.7271,"duration":0.5455,"velocity":127,"measure":93,"beat":1.0,"subject_pos":-1,"motif":"","motif_pos":-1,"best_pos":2,"similarity":0.375,"stretto":false,"stretto_voices":0,"combination":[],"aug_dim":"","rhythm_ratio":1.0,"mirror":false,"chromatic_density":0.308,"complexity":0.538,"dissonance":0.083},{"voice":0,"pitch":81,"start":200.9998,"duration":0.2727,"velocity":127,"measure":93,"beat":1.5,"subject_pos":-1,"motif":"","motif_pos":-1,"best_pos":4,"similarity":0.379,"stretto":false,"stretto_voices":0,"combination":[],"aug_dim":"","rhythm_ratio":1.0,"mirror":false,"chromatic_density":0.308,"complexity":0.538,"dissonance":0.083},{"voice":0,"pitch":82,"start":201.2725,"duration":0.2727,"velocity":127,"measure":93,"beat":2.0,"subject_pos":-1,"motif":"","motif_pos":-1,"best_pos":5,"similarity":0.364,"stretto":false,"stretto_voices":0,"combination":[],"aug_dim":"","rhythm_ratio":1.0,"mirror":false,"chromatic_density":0.308,"complexity":0.538,"dissonance":0.083},{"voice":2,"pitch":60,"start":201.2725,"duration":0.5455,"velocity":127,"measure":93,"beat":2.0,"subject_pos":-1,"motif":"","motif_pos":-1,"best_pos":2,"similarity":0.514,"stretto":false,"stretto_voices":0,"combination":[],"aug_dim":"","rhythm_ratio":1.0,"mirror":false,"chromatic_density":0.308,"complexity":0.538,"dissonance":0.083},{"voice":3,"pitch":53,"start":201.2725,"duration":1.0909,"velocity":127,"measure":93,"beat":2.0,"subject_pos":-1,"motif":"","motif_pos":-1,"best_pos":1,"similarity":0.4,"stretto":false,"stretto_voices":0,"combination":[],"aug_dim":"","rhythm_ratio":1.0,"mirror":false,"chromatic_density":0.308,"complexity":0.538,"dissonance":0.083},{"voice":0,"pitch":81,"start":201.5453,"duration":0.2727,"velocity":127,"measure":93,"beat":2.5,"subject_pos":-1,"motif":"","motif_pos":-1,"best_pos":4,"similarity":0.343,"stretto":false,"stretto_voices":0,"combination":[],"aug_dim":"","rhythm_ratio":1.0,"mirror":false,"chromatic_density":0.308,"complexity":0.538,"dissonance":0.083},{"voice":0,"pitch":79,"start":201.818,"duration":0.5455,"velocity":127,"measure":93,"beat":3.0,"subject_pos":-1,"motif":"","motif_pos":-1,"best_pos":0,"similarity":0.3,"stretto":false,"stretto_voices":0,"combination":[],"aug_dim":"","rhythm_ratio":1.0,"mirror":false,"chromatic_density":0.308,"complexity":0.538,"dissonance":0.083},{"voice":2,"pitch":58,"start":201.818,"duration":0.5455,"velocity":127,"measure":93,"beat":3.0,"subject_pos":-1,"motif":"","motif_pos":-1,"best_pos":2,"similarity":0.604,"stretto":false,"stretto_voices":0,"combination":[],"aug_dim":"","rhythm_ratio":1.0,"mirror":false,"chromatic_density":0.308,"complexity":0.538,"dissonance":0.083},{"voice":1,"pitch":74,"start":202.0907,"duration":0.2727,"velocity":127,"measure":93,"beat":3.5,"subject_pos":-1,"motif":"","motif_pos":-1,"best_pos":1,"similarity":0.386,"stretto":false,"stretto_voices":0,"combination":[],"aug_dim":"","rhythm_ratio":1.0,"mirror":false,"chromatic_density":0.308,"complexity":0.538,"dissonance":0.083},{"voice":0,"pitch":84,"start":202.3634,"duration":0.5455,"velocity":127,"measure":93,"beat":4.0,"subject_pos":-1,"motif":"","motif_pos":-1,"best_pos":1,"similarity":0.321,"stretto":false,"stretto_voices":0,"combination":[],"aug_dim":"","rhythm_ratio":1.0,"mirror":false,"chromatic_density":0.308,"complexity":0.538,"dissonance":0.083},{"voice":1,"pitch":75,"start":202.3634,"duration":0.2727,"velocity":127,"measure":93,"beat":4.0,"subject_pos":-1,"motif":"","motif_pos":-1,"best_pos":3,"similarity":0.336,"stretto":false,"stretto_voices":0,"combination":[],"aug_dim":"","rhythm_ratio":1.0,"mirror":false,"chromatic_density":0.308,"complexity":0.538,"dissonance":0.083},{"voice":2,"pitch":55,"start":202.3634,"duration":0.5455,"velocity":127,"measure":93,"beat":4.0,"subject_pos":-1,"motif":"","motif_pos":-1,"best_pos":3,"similarity":0.5,"stretto":false,"stretto_voices":0,"combination":[],"aug_dim":"","rhythm_ratio":1.0,"mirror":false,"chromatic_density":0.308,"complexity":0.538,"dissonance":0.083},{"voice":3,"pitch":51,"start":202.3634,"duration":1.0909,"velocity":127,"measure":93,"beat":4.0,"subject_pos":-1,"motif":"","motif_pos":-1,"best_pos":3,"similarity":0.471,"stretto":false,"stretto_voices":0,"combination":[],"aug_dim":"","rhythm_ratio":1.0,"mirror":false,"chromatic_density":0.308,"complexity":0.538,"dissonance":0.083},{"voice":1,"pitch":74,"start":202.6362,"duration":0.2727,"velocity":127,"measure":93,"beat":4.5,"subject_pos":-1,"motif":"","motif_pos":-1,"best_pos":4,"similarity":0.343,"stretto":false,"stretto_voices":0,"combination":[],"aug_dim":"","rhythm_ratio":1.0,"mirror":false,"chromatic_density":0.308,"complexity":0.538,"dissonance":0.083},{"voice":0,"pitch":77,"start":202.9089,"duration":0.5455,"velocity":127,"measure":94,"beat":1.0,"subject_pos":-1,"motif":"","motif_pos":-1,"best_pos":0,"similarity":0.393,"stretto":false,"stretto_voices":0,"combination":[],"aug_dim":"","rhythm_ratio":1.0,"mirror":false,"chromatic_density":0.0,"complexity":0.517,"dissonance":0.097},{"voice":1,"pitch":72,"start":202.9089,"duration":0.5455,"velocity":127,"measure":94,"beat":1.0,"subject_pos":-1,"motif":"","motif_pos":-1,"best_pos":2,"similarity":0.321,"stretto":false,"stretto_voices":0,"combination":[],"aug_dim":"","rhythm_ratio":1.0,"mirror":false,"chromatic_density":0.0,"complexity":0.517,"dissonance":0.097},{"voice":2,"pitch":57,"start":202.9089,"duration":0.2727,"velocity":127,"measure":94,"beat":1.0,"subject_pos":-1,"motif":"","motif_pos":-1,"best_pos":6,"similarity":0.407,"stretto":false,"stretto_voices":0,"combination":[],"aug_dim":"","rhythm_ratio":1.0,"mirror":false,"chromatic_density":0.0,"complexity":0.517,"dissonance":0.097},{"voice":2,"pitch":60,"start":203.1816,"duration":0.2727,"velocity":127,"measure":94,"beat":1.5,"subject_pos":-1,"motif":"","motif_pos":-1,"best_pos":1,"similarity":0.364,"stretto":false,"stretto_voices":0,"combination":[],"aug_dim":"","rhythm_ratio":1.0,"mirror":false,"chromatic_density":0.0,"complexity":0.517,"dissonance":0.097},{"voice":0,"pitch":82,"start":203.4543,"duration":0.5455,"velocity":127,"measure":94,"beat":2.0,"subject_pos":-1,"motif":"","motif_pos":-1,"best_pos":1,"similarity":0.571,"stretto":false,"stretto_voices":0,"combination":[],"aug_dim":"","rhythm_ratio":1.0,"mirror":false,"chromatic_density":0.0,"complexity":0.517,"dissonance":0.097},{"voice":1,"pitch":77,"start":203.4543,"duration":0.5455,"velocity":127,"measure":94,"beat":2.0,"subject_pos":-1,"motif":"","motif_pos":-1,"best_pos":1,"similarity":0.321,"stretto":false,"stretto_voices":0,"combination":[],"aug_dim":"","rhythm_ratio":1.0,"mirror":false,"chromatic_density":0.0,"complexity":0.517,"dissonance":0.097},{"voice":2,"pitch":58,"start":203.4543,"duration":0.2727,"velocity":127,"measure":94,"beat":2.0,"subject_pos":-1,"motif":"","motif_pos":-1,"best_pos":4,"similarity":0.436,"stretto":false,"stretto_voices":0,"combination":[],"aug_dim":"","rhythm_ratio":1.0,"mirror":false,"chromatic_density":0.0,"complexity":0.517,"dissonance":0.097},{"voice":3,"pitch":50,"start":203.4543,"duration":0.5455,"velocity":127,"measure":94,"beat":2.0,"subject_pos":-1,"motif":"","motif_pos":-1,"best_pos":4,"similarity":0.479,"stretto":false,"stretto_voices":0,"combination":[],"aug_dim":"","rhythm_ratio":1.0,"mirror":false,"chromatic_density":0.0,"complexity":0.517,"dissonance":0.097},{"voice":2,"pitch":60,"start":203.7271,"duration":0.2727,"velocity":127,"measure":94,"beat":2.5,"subject_pos":-1,"motif":"","motif_pos":-1,"best_pos":5,"similarity":0.5,"stretto":false,"stretto_voices":0,"combination":[],"aug_dim":"","rhythm_ratio":1.0,"mirror":false,"chromatic_density":0.0,"complexity":0.517,"dissonance":0.097},{"voice":1,"pitch":70,"start":203.9998,"duration":0.5455,"velocity":127,"measure":94,"beat":3.0,"subject_pos":-1,"motif":"","motif_pos":-1,"best_pos":5,"similarity":0.321,"stretto":false,"stretto_voices":0,"combination":[],"aug_dim":"","rhythm_ratio":1.0,"mirror":false,"chromatic_density":0.0,"complexity":0.517,"dissonance":0.097},{"voice":2,"pitch":62,"start":203.9998,"duration":0.5455,"velocity":127,"measure":94,"beat":3.0,"subject_pos":-1,"motif":"","motif_pos":-1,"best_pos":6,"similarity":0.393,"stretto":false,"stretto_voices":0,"combination":[],"aug_dim":"","rhythm_ratio":1.0,"mirror":false,"chromatic_density":0.0,"complexity":0.517,"dissonance":0.097},{"voice":3,"pitch":53,"start":204.2725,"duration":0.2727,"velocity":127,"measure":94,"beat":3.5,"subject_pos":-1,"motif":"","motif_pos":-1,"best_pos":1,"similarity":0.364,"stretto":false,"stretto_voices":0,"combination":[],"aug_dim":"","rhythm_ratio":1.0,"mirror":false,"chromatic_density":0.0,"complexity":0.517,"dissonance":0.097},{"voice":0,"pitch":77,"start":204.5453,"duration":1.0909,"velocity":127,"measure":94,"beat":4.0,"subject_pos":-1,"motif":"","motif_pos":-1,"best_pos":2,"similarity":0.579,"stretto":false,"stretto_voices":0,"combination":[],"aug_dim":"","rhythm_ratio":1.0,"mirror":false,"chromatic_density":0.0,"complexity":0.517,"dissonance":0.097},{"voice":1,"pitch":72,"start":204.5453,"duration":0.5455,"velocity":127,"measure":94,"beat":4.0,"subject_pos":-1,"motif":"","motif_pos":-1,"best_pos":6,"similarity":0.286,"stretto":false,"stretto_voices":0,"combination":[],"aug_dim":"","rhythm_ratio":1.0,"mirror":false,"chromatic_density":0.0,"complexity":0.517,"dissonance":0.097},{"voice":2,"pitch":57,"start":204.5453,"duration":0.5455,"velocity":127,"measure":94,"beat":4.0,"subject_pos":-1,"motif":"","motif_pos":-1,"best_pos":4,"similarity":0.471,"stretto":false,"stretto_voices":0,"combination":[],"aug_dim":"","rhythm_ratio":1.0,"mirror":false,"chromatic_density":0.0,"complexity":0.517,"dissonance":0.097},{"voice":3,"pitch":51,"start":204.5453,"duration":0.2727,"velocity":127,"measure":94,"beat":4.0,"subject_pos":-1,"motif":"","motif_pos":-1,"best_pos":4,"similarity":0.464,"stretto":false,"stretto_voices":0,"combination":[],"aug_dim":"","rhythm_ratio":1.0,"mirror":false,"chromatic_density":0.0,"complexity":0.517,"dissonance":0.097},{"voice":3,"pitch":53,"start":204.818,"duration":0.2727,"velocity":127,"measure":94,"beat":4.5,"subject_pos":-1,"motif":"","motif_pos":-1,"best_pos":5,"similarity":0.5,"stretto":false,"stretto_voices":0,"combination":[],"aug_dim":"","rhythm_ratio":1.0,"mirror":false,"chromatic_density":0.0,"complexity":0.517,"dissonance":0.097},{"voice":2,"pitch":58,"start":205.0907,"duration":0.5455,"velocity":127,"measure":95,"beat":1.0,"subject_pos":-1,"motif":"","motif_pos":-1,"best_pos":5,"similarity":0.6,"stretto":false,"stretto_voices":0,"combination":[],"aug_dim":"","rhythm_ratio":1.0,"mirror":false,"chromatic_density":0.273,"complexity":0.568,"dissonance":0.107},{"voice":3,"pitch":55,"start":205.0907,"duration":0.5455,"velocity":127,"measure":95,"beat":1.0,"subject_pos":-1,"motif":"","motif_pos":-1,"best_pos":6,"similarity":0.393,"stretto":false,"stretto_voices":0,"combination":[],"aug_dim":"","rhythm_ratio":1.0,"mirror":false,"chromatic_density":0.273,"complexity":0.568,"dissonance":0.107},{"voice":1,"pitch":67,"start":205.3634,"duration":0.2727,"velocity":127,"measure":95,"beat":1.5,"subject_pos":-1,"motif":"","motif_pos":-1,"best_pos":5,"similarity":0.321,"stretto":false,"stretto_voices":0,"combination":[],"aug_dim":"","rhythm_ratio":1.0,"mirror":false,"chromatic_density":0.273,"complexity":0.568,"dissonance":0.107},{"voice":0,"pitch":75,"start":205.6362,"duration":1.0909,"velocity":127,"measure":95,"beat":2.0,"subject_pos":-1,"motif":"","motif_pos":-1,"best_pos":3,"similarity":0.593,"stretto":false,"stretto_voices":0,"combination":[],"aug_dim":"","rhythm_ratio":1.0,"mirror":false,"chromatic_density":0.273,"complexity":0.568,"dissonance":0.107},{"voice":1,"pitch":69,"start":205.6362,"duration":0.2727,"velocity":127,"measure":95,"beat":2.0,"subject_pos":-1,"motif":"","motif_pos":-1,"best_pos":1,"similarity":0.386,"stretto":false,"stretto_voices":0,"combination":[],"aug_dim":"","rhythm_ratio":1.0,"mirror":false,"chromatic_density":0.273,"complexity":0.568,"dissonance":0.107},{"voice":2,"pitch":60,"start":205.6362,"duration":0.8182,"velocity":127,"measure":95,"beat":2.0,"subject_pos":-1,"motif":"","motif_pos":-1,"best_pos":6,"similarity":0.464,"stretto":false,"stretto_voices":0,"combination":[],"aug_dim":"","rhythm_ratio":1.0,"mirror":false,"chromatic_density":0.273,"complexity":0.568,"dissonance":0.107},{"voice":3,"pitch":48,"start":205.6362,"duration":0.5455,"velocity":127,"measure":95,"beat":2.0,"subject_pos":-1,"motif":"","motif_pos":-1,"best_pos":5,"similarity":0.443,"stretto":false,"stretto_voices":0,"combination":[],"aug_dim":"","rhythm_ratio":1.0,"mirror":false,"chromatic_density":0.273,"complexity":0.568,"dissonance":0.107},{"voice":1,"pitch":67,"start":205.9089,"duration":0.2727,"velocity":127,"measure":95,"beat":2.5,"subject_pos":-1,"motif":"","motif_pos":-1,"best_pos":2,"similarity":0.443,"stretto":false,"stretto_voices":0,"combination":[],"aug_dim":"","rhythm_ratio":1.0,"mirror":false,"chromatic_density":0.273,"complexity":0.568,"dissonance":0.107},{"voice":1,"pitch":65,"start":206.1816,"duration":0.5455,"velocity":127,"measure":95,"beat":3.0,"subject_pos":-1,"motif":"","motif_pos":-1,"best_pos":3,"similarity":0.364,"stretto":false,"stretto_voices":0,"combination":[],"aug_dim":"","rhythm_ratio":1.0,"mirror":false,"chromatic_density":0.273,"complexity":0.568,"dissonance":0.107},{"voice":3,"pitch":50,"start":206.1816,"duration":1.0909,"velocity":127,"measure":95,"beat":3.0,"subject_pos":-1,"motif":"enigmatic_cell","motif_pos":0,"best_pos":0,"similarity":1.0,"stretto":false,"stretto_voices":0,"combination":[],"aug_dim":"","rhythm_ratio":1.0,"mirror":false,"chromatic_density":0.273,"complexity":0.568,"dissonance":0.107},{"voice":2,"pitch":57,"start":206.4543,"duration":0.2727,"velocity":127,"measure":95,"beat":3.5,"subject_pos":-1,"motif":"","motif_pos":-1,"best_pos":3,"similarity":0.421,"stretto":false,"stretto_voices":0,"combination":[],"aug_dim":"","rhythm_ratio":1.0,"mirror":false,"chromatic_density":0.273,"complexity":0.568,"dissonance":0.107},{"voice":0,"pitch":74,"start":206.7271,"duration":1.0909,"velocity":127,"measure":95,"beat":4.0,"subject_pos":-1,"motif":"","motif_pos":-1,"best_pos":4,"similarity":0.454,"stretto":false,"stretto_voices":0,"combination":[],"aug_dim":"","rhythm_ratio":1.0,"mirror":false,"chromatic_density":0.273,"complexity":0.568,"dissonance":0.107},{"voice":1,"pitch":70,"start":206.7271,"duration":0.5455,"velocity":127,"measure":95,"beat":4.0,"subject_pos":-1,"motif":"","motif_pos":-1,"best_pos":1,"similarity":0.35,"stretto":false,"stretto_voices":0,"combination":[],"aug_dim":"","rhythm_ratio":1.0,"mirror":false,"chromatic_density":0.273,"complexity":0.568,"dissonance":0.107},{"voice":2,"pitch":58,"start":206.7271,"duration":0.2727,"velocity":127,"measure":95,"beat":4.0,"subject_pos":-1,"motif":"","motif_pos":-1,"best_pos":3,"similarity":0.414,"stretto":false,"stretto_voices":0,"combination":[],"aug_dim":"","rhythm_ratio":1.0,"mirror":false,"chromatic_density":0.273,"complexity":0.568,"dissonance":0.107},{"voice":2,"pitch":57,"start":206.9998,"duration":0.2727,"velocity":127,"measure":95,"beat":4.5,"subject_pos":-1,"motif":"","motif_pos":-1,"best_pos":4,"similarity":0.379,"stretto":false,"stretto_voices":0,"combination":[],"aug_dim":"","rhythm_ratio":1.0,"mirror":false,"chromatic_density":0.273,"complexity":0.568,"dissonance":0.107},{"voice":2,"pitch":55,"start":207.2725,"duration":0.5455,"velocity":127,"measure":96,"beat":1.0,"subject_pos":-1,"motif":"","motif_pos":-1,"best_pos":2,"similarity":0.321,"stretto":false,"stretto_voices":0,"combination":[],"aug_dim":"","rhythm_ratio":1.0,"mirror":false,"chromatic_density":0.182,"complexity":0.609,"dissonance":0.107},{"voice":3,"pitch":51,"start":207.2725,"duration":0.5455,"velocity":127,"measure":96,"beat":1.0,"subject_pos":-1,"motif":"enigmatic_cell","motif_pos":1,"best_pos":1,"similarity":1.0,"stretto":false,"stretto_voices":0,"combination":[],"aug_dim":"","rhythm_ratio":1.0,"mirror":false,"chromatic_density":0.182,"complexity":0.609,"dissonance":0.107},{"voice":1,"pitch":63,"start":207.5452,"duration":0.2727,"velocity":127,"measure":96,"beat":1.5,"subject_pos":-1,"motif":"","motif_pos":-1,"best_pos":5,"similarity":0.336,"stretto":false,"stretto_voices":0,"combination":[],"aug_dim":"","rhythm_ratio":1.0,"mirror":false,"chromatic_density":0.182,"complexity":0.609,"dissonance":0.107},{"voice":0,"pitch":72,"start":207.818,"duration":1.0909,"velocity":127,"measure":96,"beat":2.0,"subject_pos":-1,"motif":"","motif_pos":-1,"best_pos":2,"similarity":0.579,"stretto":false,"stretto_voices":0,"combination":[],"aug_dim":"","rhythm_ratio":1.0,"mirror":false,"chromatic_density":0.182,"complexity":0.609,"dissonance":0.107},{"voice":1,"pitch":65,"start":207.818,"duration":0.2727,"velocity":127,"measure":96,"beat":2.0,"subject_pos":-1,"motif":"","motif_pos":-1,"best_pos":1,"similarity":0.35,"stretto":false,"stretto_voices":0,"combination":[],"aug_dim":"","rhythm_ratio":1.0,"mirror":false,"chromatic_density":0.182,"complexity":0.609,"dissonance":0.107},{"voice":2,"pitch":60,"start":207.818,"duration":0.5455,"velocity":127,"measure":96,"beat":2.0,"subject_pos":-1,"motif":"","motif_pos":-1,"best_pos":1,"similarity":0.35,"stretto":false,"stretto_voices":0,"combination":[],"aug_dim":"","rhythm_ratio":1.0,"mirror":false,"chromatic_density":0.182,"complexity":0.609,"dissonance":0.107},{"voice":3,"pitch":45,"start":207.818,"duration":0.5455,"velocity":127,"measure":96,"beat":2.0,"subject_pos":-1,"motif":"enigmatic_cell","motif_pos":2,"best_pos":2,"similarity":1.0,"stretto":false,"stretto_voices":0,"combination":[],"aug_dim":"","rhythm_ratio":1.0,"mirror":false,"chromatic_density":0.182,"complexity":0.609,"dissonance":0.107},{"voice":1,"pitch":63,"start":208.0907,"duration":0.2727,"velocity":127,"measure":96,"beat":2.5,"subject_pos":-1,"motif":"enigmatic_cell","motif_pos":0,"best_pos":0,"similarity":1.0,"stretto":false,"stretto_voices":0,"combination":[],"aug_dim":"","rhythm_ratio":1.0,"mirror":false,"chromatic_density":0.182,"complexity":0.609,"dissonance":0.107},{"voice":1,"pitch":62,"start":208.3634,"duration":0.5455,"velocity":127,"measure":96,"beat":3.0,"subject_pos":-1,"motif":"enigmatic_cell","motif_pos":1,"best_pos":1,"similarity":1.0,"stretto":false,"stretto_voices":0,"combination":[],"aug_dim":"","rhythm_ratio":1.0,"mirror":false,"chromatic_density":0.182,"complexity":0.609,"dissonance":0.107},{"voice":3,"pitch":46,"start":208.3634,"duration":1.0909,"velocity":127,"measure":96,"beat":3.0,"subject_pos":-1,"motif":"","motif_pos":-1,"best_pos":5,"similarity":0.579,"stretto":false,"stretto_voices":0,"combination":[],"aug_dim":"","rhythm_ratio":1.0,"mirror":false,"chromatic_density":0.182,"complexity":0.609,"dissonance":0.107},{"voice":2,"pitch":53,"start":208.6362,"duration":0.2727,"velocity":127,"measure":96,"beat":3.5,"subject_pos":-1,"motif":"","motif_pos":-1,"best_pos":5,"similarity":0.336,"stretto":false,"stretto_voices":0,"combination":[],"aug_dim":"","rhythm_ratio":1.0,"mirror":false,"chromatic_density":0.182,"complexity":0.609,"dissonance":0.107},{"voice":0,"pitch":70,"start":208.9089,"duration":1.0909,"velocity":127,"measure":96,"beat":4.0,"subject_pos":-1,"motif":"","motif_pos":-1,"best_pos":3,"similarity":0.586,"stretto":false,"stretto_voices":0,"combination":[],"aug_dim":"","rhythm_ratio":1.0,"mirror":false,"chromatic_density":0.182,"complexity":0.609,"dissonance":0.107},{"voice":1,"pitch":67,"start":208.9089,"duration":0.5455,"velocity":127,"measure":96,"beat":4.0,"subject_pos":-1,"motif":"enigmatic_cell","motif_pos":2,"best_pos":2,"similarity":1.0,"stretto":false,"stretto_voices":0,"combination":[],"aug_dim":"","rhythm_ratio":1.0,"mirror":false,"chromatic_density":0.182,"complexity":0.609,"dissonance":0.107},{"voice":2,"pitch":55,"start":208.9089,"duration":0.2727,"velocity":127,"measure":96,"beat":4.0,"subject_pos":-1,"motif":"","motif_pos":-1,"best_pos":1,"similarity":0.386,"stretto":false,"stretto_voices":0,"combination":[],"aug_dim":"","rhythm_ratio":1.0,"mirror":false,"chromatic_density":0.182,"complexity":0.609,"dissonance":0.107},{"voice":2,"pitch":53,"start":209.1816,"duration":0.2727,"velocity":127,"measure":96,"beat":4.5,"subject_pos":-1,"motif":"","motif_pos":-1,"best_pos":2,"similarity":0.443,"stretto":false,"stretto_voices":0,"combination":[],"aug_dim":"","rhythm_ratio":1.0,"mirror":false,"chromatic_density":0.182,"complexity":0.609,"dissonance":0.107},{"voice":2,"pitch":51,"start":209.4543,"duration":0.5455,"velocity":127,"measure":97,"beat":1.0,"subject_pos":-1,"motif":"","motif_pos":-1,"best_pos":2,"similarity":0.357,"stretto":false,"stretto_voices":0,"combination":[],"aug_dim":"","rhythm_ratio":1.0,"mirror":false,"chromatic_density":0.167,"complexity":0.588,"dissonance":0.11},{"voice":3,"pitch":48,"start":209.4543,"duration":0.5455,"velocity":127,"measure":97,"beat":1.0,"subject_pos":-1,"motif":"","motif_pos":-1,"best_pos":6,"similarity":0.429,"stretto":false,"stretto_voices":0,"combination":[],"aug_dim":"","rhythm_ratio":1.0,"mirror":false,"chromatic_density":0.167,"complexity":0.588,"dissonance":0.11},{"voice":1,"pitch":60,"start":209.7271,"duration":0.2727,"velocity":127,"measure":97,"beat":1.5,"subject_pos":-1,"motif":"","motif_pos":-1,"best_pos":5,"similarity":0.318,"stretto":false,"stretto_voices":0,"combination":[],"aug_dim":"","rhythm_ratio":1.0,"mirror":false,"chromatic_density":0.167,"complexity":0.588,"dissonance":0.11},{"voice":0,"pitch":69,"start":209.9998,"duration":0.8182,"velocity":127,"measure":97,"beat":2.0,"subject_pos":-1,"motif":"","motif_pos":-1,"best_pos":4,"similarity":0.464,"stretto":false,"stretto_voices":0,"combination":[],"aug_dim":"","rhythm_ratio":1.0,"mirror":false,"chromatic_density":0.167,"complexity":0.588,"dissonance":0.11},{"voice":1,"pitch":62,"start":209.9998,"duration":0.2727,"velocity":127,"measure":97,"beat":2.0,"subject_pos":-1,"motif":"","motif_pos":-1,"best_pos":1,"similarity":0.386,"stretto":false,"stretto_voices":0,"combination":[],"aug_dim":"","rhythm_ratio":1.0,"mirror":false,"chromatic_density":0.167,"complexity":0.588,"dissonance":0.11},{"voice":2,"pitch":57,"start":209.9998,"duration":0.5455,"velocity":127,"measure":97,"beat":2.0,"subject_pos":-1,"motif":"","motif_pos":-1,"best_pos":3,"similarity":0.293,"stretto":false,"stretto_voices":0,"combination":[],"aug_dim":"","rhythm_ratio":1.0,"mirror":false,"chromatic_density":0.167,"complexity":0.588,"dissonance":0.11},{"voice":3,"pitch":42,"start":209.9998,"duration":0.5455,"velocity":127,"measure":97,"beat":2.0,"subject_pos":-1,"motif":"enigmatic_cell","motif_pos":0,"best_pos":0,"similarity":1.0,"stretto":false,"stretto_voices":0,"combination":[],"aug_dim":"","rhythm_ratio":1.0,"mirror":false,"chromatic_density":0.167,"complexity":0.588,"dissonance":0.11},{"voice":1,"pitch":60,"start":210.2725,"duration":0.2727,"velocity":127,"measure":97,"beat":2.5,"subject_pos":-1,"motif":"","motif_pos":-1,"best_pos":2,"similarity":0.45,"stretto":false,"stretto_voices":0,"combination":[],"aug_dim":"","rhythm_ratio":1.0,"mirror":false,"chromatic_density":0.167,"complexity":0.588,"dissonance":0.11},{"voice":1,"pitch":58,"start":210.5452,"duration":0.5455,"velocity":127,"measure":97,"beat":3.0,"subject_pos":-1,"motif":"","motif_pos":-1,"best_pos":3,"similarity":0.379,"stretto":false,"stretto_voices":0,"combination":[],"aug_dim":"","rhythm_ratio":1.0,"mirror":false,"chromatic_density":0.167,"complexity":0.588,"dissonance":0.11},{"voice":3,"pitch":43,"start":210.5452,"duration":1.0909,"velocity":127,"measure":97,"beat":3.0,"subject_pos":-1,"motif":"enigmatic_cell","motif_pos":1,"best_pos":1,"similarity":1.0,"stretto":false,"stretto_voices":0,"combination":[],"aug_dim":"","rhythm_ratio":1.0,"mirror":false,"chromatic_density":0.167,"complexity":0.588,"dissonance":0.11},{"voice":0,"pitch":67,"start":210.818,"duration":0.2727,"velocity":127,"measure":97,"beat":3.5,"subject_pos":-1,"motif":"","motif_pos":-1,"best_pos":2,"similarity":0.357,"stretto":false,"stretto_voices":0,"combination":[],"aug_dim":"","rhythm_ratio":1.0,"mirror":false,"chromatic_density":0.167,"complexity":0.588,"dissonance":0.11},{"voice":2,"pitch":50,"start":210.818,"duration":0.2727,"velocity":127,"measure":97,"beat":3.5,"subject_pos":-1,"motif":"","motif_pos":-1,"best_pos":4,"similarity":0.443,"stretto":false,"stretto_voices":0,"combination":[],"aug_dim":"","rhythm_ratio":1.0,"mirror":false,"chromatic_density":0.167,"complexity":0.588,"dissonance":0.11},{"voice":0,"pitch":79,"start":211.0907,"duration":0.8182,"velocity":127,"measure":97,"beat":4.0,"subject_pos":-1,"motif":"","motif_pos":-1,"best_pos":2,"similarity":0.318,"stretto":false,"stretto_voices":0,"combination":[],"aug_dim":"","rhythm_ratio":1.0,"mirror":false,"chromatic_density":0.167,"complexity":0.588,"dissonance":0.11},{"voice":1,"pitch":70,"start":211.0907,"duration":0.8182,"velocity":127,"measure":97,"beat":4.0,"subject_pos":-1,"motif":"","motif_pos":-1,"best_pos":4,"similarity":0.321,"stretto":false,"stretto_voices":0,"combination":[],"aug_dim":"","rhythm_ratio":1.0,"mirror":false,"chromatic_density":0.167,"complexity":0.588,"dissonance":0.11},{"voice":2,"pitch":51,"start":211.0907,"duration":0.2727,"velocity":127,"measure":97,"beat":4.0,"subject_pos":-1,"motif":"","motif_pos":-1,"best_pos":5,"similarity":0.457,"stretto":false,"stretto_voices":0,"combination":[],"aug_dim":"","rhythm_ratio":1.0,"mirror":false,"chromatic_density":0.167,"complexity":0.588,"dissonance":0.11},{"voice":2,"pitch":49,"start":211.3634,"duration":0.2727,"velocity":127,"measure":97,"beat":4.5,"subject_pos":-1,"motif":"","motif_pos":-1,"best_pos":4,"similarity":0.457,"stretto":false,"stretto_voices":0,"combination":[],"aug_dim":"","rhythm_ratio":1.0,"mirror":false,"chromatic_density":0.167,"complexity":0.588,"dissonance":0.11},{"voice":2,"pitch":50,"start":211.6362,"duration":0.5455,"velocity":127,"measure":98,"beat":1.0,"subject_pos":-1,"motif":"","motif_pos":-1,"best_pos":5,"similarity":0.379,"stretto":false,"stretto_voices":0,"combination":[],"aug_dim":"","rhythm_ratio":1.0,"mirror":false,"chromatic_density":0.125,"complexity":0.556,"dissonance":0.12},{"voice":3,"pitch":38,"start":211.6362,"duration":1.0909,"velocity":127,"measure":98,"beat":1.0,"subject_pos":-1,"motif":"enigmatic_cell","motif_pos":2,"best_pos":2,"similarity":1.0,"stretto":false,"stretto_voices":0,"combination":[],"aug_dim":"","rhythm_ratio":1.0,"mirror":false,"chromatic_density":0.125,"complexity":0.556,"dissonance":0.12},{"voice":0,"pitch":76,"start":211.9089,"duration":0.2727,"velocity":127,"measure":98,"beat":1.5,"subject_pos":-1,"motif":"","motif_pos":-1,"best_pos":5,"similarity":0.386,"stretto":false,"stretto_voices":0,"combination":[],"aug_dim":"","rhythm_ratio":1.0,"mirror":false,"chromatic_density":0.125,"complexity":0.556,"dissonance":0.12},{"voice":1,"pitch":67,"start":211.9089,"duration":0.2727,"velocity":127,"measure":98,"beat":1.5,"subject_pos":-1,"motif":"","motif_pos":-1,"best_pos":5,"similarity":0.364,"stretto":false,"stretto_voices":0,"combination":[],"aug_dim":"","rhythm_ratio":1.0,"mirror":false,"chromatic_density":0.125,"complexity":0.556,"dissonance":0.12},{"voice":0,"pitch":78,"start":212.1816,"duration":0.5455,"velocity":127,"measure":98,"beat":2.0,"subject_pos":-1,"motif":"","motif_pos":-1,"best_pos":3,"similarity":0.379,"stretto":false,"stretto_voices":0,"combination":[],"aug_dim":"","rhythm_ratio":1.0,"mirror":false,"chromatic_density":0.125,"complexity":0.556,"dissonance":0.12},{"voice":1,"pitch":69,"start":212.1816,"duration":0.8182,"velocity":127,"measure":98,"beat":2.0,"subject_pos":-1,"motif":"","motif_pos":-1,"best_pos":1,"similarity":0.421,"stretto":false,"stretto_voices":0,"combination":[],"aug_dim":"","rhythm_ratio":1.0,"mirror":false,"chromatic_density":0.125,"complexity":0.556,"dissonance":0.12},{"voice":0,"pitch":77,"start":212.7271,"duration":1.6364,"velocity":127,"measure":98,"beat":3.0,"subject_pos":-1,"motif":"","motif_pos":-1,"best_pos":2,"similarity":0.514,"stretto":false,"stretto_voices":0,"combination":[],"aug_dim":"","rhythm_ratio":1.0,"mirror":false,"chromatic_density":0.125,"complexity":0.556,"dissonance":0.12},{"voice":2,"pitch":62,"start":212.7271,"duration":0.8182,"velocity":127,"measure":98,"beat":3.0,"subject_pos":-1,"motif":"","motif_pos":-1,"best_pos":1,"similarity":0.357,"stretto":false,"stretto_voices":0,"combination":[],"aug_dim":"","rhythm_ratio":1.0,"mirror":false,"chromatic_density":0.125,"complexity":0.556,"dissonance":0.12},{"voice":1,"pitch":67,"start":212.9998,"duration":0.2727,"velocity":127,"measure":98,"beat":3.5,"subject_pos":-1,"motif":"","motif_pos":-1,"best_pos":2,"similarity":0.532,"stretto":false,"stretto_voices":0,"combination":[],"aug_dim":"","rhythm_ratio":1.0,"mirror":false,"chromatic_density":0.125,"complexity":0.556,"dissonance":0.12},{"voice":1,"pitch":65,"start":213.2725,"duration":0.2727,"velocity":127,"measure":98,"beat":4.0,"subject_pos":-1,"motif":"","motif_pos":-1,"best_pos":2,"similarity":0.579,"stretto":false,"stretto_voices":0,"combination":[],"aug_dim":"","rhythm_ratio":1.0,"mirror":false,"chromatic_density":0.125,"complexity":0.556,"dissonance":0.12},{"voice":1,"pitch":63,"start":213.5452,"duration":0.2727,"velocity":127,"measure":98,"beat":4.5,"subject_pos":-1,"motif":"enigmatic_cell","motif_pos":0,"best_pos":0,"similarity":1.0,"stretto":false,"stretto_voices":0,"combination":[],"aug_dim":"","rhythm_ratio":1.0,"mirror":false,"chromatic_density":0.125,"complexity":0.556,"dissonance":0.12},{"voice":2,"pitch":60,"start":213.5452,"duration":0.2727,"velocity":127,"measure":98,"beat":4.5,"subject_pos":-1,"motif":"","motif_pos":-1,"best_pos":3,"similarity":0.457,"stretto":false,"stretto_voices":0,"combination":[],"aug_dim":"","rhythm_ratio":1.0,"mirror":false,"chromatic_density":0.125,"complexity":0.556,"dissonance":0.12},{"voice":1,"pitch":62,"start":213.818,"duration":0.5455,"velocity":127,"measure":99,"beat":1.0,"subject_pos":-1,"motif":"enigmatic_cell","motif_pos":1,"best_pos":1,"similarity":1.0,"stretto":false,"stretto_voices":0,"combination":[],"aug_dim":"","rhythm_ratio":1.0,"mirror":false,"chromatic_density":0.3,"complexity":0.529,"dissonance":0.125},{"voice":2,"pitch":59,"start":213.818,"duration":0.2727,"velocity":127,"measure":99,"beat":1.0,"subject_pos":-1,"motif":"","motif_pos":-1,"best_pos":4,"similarity":0.407,"stretto":false,"stretto_voices":0,"combination":[],"aug_dim":"","rhythm_ratio":1.0,"mirror":false,"chromatic_density":0.3,"complexity":0.529,"dissonance":0.125},{"voice":2,"pitch":57,"start":214.0907,"duration":0.2727,"velocity":127,"measure":99,"beat":1.5,"subject_pos":-1,"motif":"","motif_pos":-1,"best_pos":2,"similarity":0.436,"stretto":false,"stretto_voices":0,"combination":[],"aug_dim":"","rhythm_ratio":1.0,"mirror":false,"chromatic_density":0.3,"complexity":0.529,"dissonance":0.125},{"voice":0,"pitch":75,"start":214.3634,"duration":0.2727,"velocity":127,"measure":99,"beat":2.0,"subject_pos":-1,"motif":"","motif_pos":-1,"best_pos":3,"similarity":0.657,"stretto":false,"stretto_voices":0,"combination":[],"aug_dim":"","rhythm_ratio":1.0,"mirror":false,"chromatic_density":0.3,"complexity":0.529,"dissonance":0.125},{"voice":1,"pitch":67,"start":214.3634,"duration":0.8182,"velocity":127,"measure":99,"beat":2.0,"subject_pos":-1,"motif":"enigmatic_cell","motif_pos":2,"best_pos":2,"similarity":1.0,"stretto":false,"stretto_voices":0,"combination":[],"aug_dim":"","rhythm_ratio":1.0,"mirror":false,"chromatic_density":0.3,"complexity":0.529,"dissonance":0.125},{"voice":2,"pitch":55,"start":214.3634,"duration":0.5455,"velocity":127,"measure":99,"beat":2.0,"subject_pos":-1,"motif":"head","motif_pos":0,"best_pos":0,"similarity":1.0,"stretto":false,"stretto_voices":0,"combination":[],"aug_dim":"","rhythm_ratio":1.0,"mirror":false,"chromatic_density":0.3,"complexity":0.529,"dissonance":0.125},{"voice":0,"pitch":74,"start":214.6361,"duration":0.2727,"velocity":127,"measure":99,"beat":2.5,"subject_pos":-1,"motif":"","motif_pos":-1,"best_pos":4,"similarity":0.7,"stretto":false,"stretto_voices":0,"combination":[],"aug_dim":"","rhythm_ratio":1.0,"mirror":false,"chromatic_density":0.3,"complexity":0.529,"dissonance":0.125},{"voice":0,"pitch":75,"start":214.9089,"duration":1.6364,"velocity":127,"measure":99,"beat":3.0,"subject_pos":-1,"motif":"","motif_pos":-1,"best_pos":5,"similarity":0.507,"stretto":false,"stretto_voices":0,"combination":[],"aug_dim":"","rhythm_ratio":1.0,"mirror":false,"chromatic_density":0.3,"complexity":0.529,"dissonance":0.125},{"voice":2,"pitch":60,"start":214.9089,"duration":0.8182,"velocity":127,"measure":99,"beat":3.0,"subject_pos":-1,"motif":"head","motif_pos":1,"best_pos":1,"similarity":1.0,"stretto":false,"stretto_voices":0,"combination":[],"aug_dim":"","rhythm_ratio":1.0,"mirror":false,"chromatic_density":0.3,"complexity":0.529,"dissonance":0.125},{"voice":1,"pitch":65,"start":215.1816,"duration":0.2727,"velocity":127,"measure":99,"beat":3.5,"subject_pos":-1,"motif":"","motif_pos":-1,"best_pos":2,"similarity":0.721,"stretto":false,"stretto_voices":0,"combination":[],"aug_dim":"","rhythm_ratio":1.0,"mirror":false,"chromatic_density":0.3,"complexity":0.529,"dissonance":0.125},{"voice":1,"pitch":63,"start":215.4543,"duration":0.2727,"velocity":127,"measure":99,"beat":4.0,"subject_pos":-1,"motif":"","motif_pos":-1,"best_pos":3,"similarity":0.664,"stretto":false,"stretto_voices":0,"combination":[],"aug_dim":"","rhythm_ratio":1.0,"mirror":false,"chromatic_density":0.3,"complexity":0.529,"dissonance":0.125},{"voice":1,"pitch":62,"start":215.7271,"duration":0.2727,"velocity":127,"measure":99,"beat":4.5,"subject_pos":-1,"motif":"","motif_pos":-1,"best_pos":4,"similarity":0.479,"stretto":false,"stretto_voices":0,"combination":[],"aug_dim":"","rhythm_ratio":1.0,"mirror":false,"chromatic_density":0.3,"complexity":0.529,"dissonance":0.125},{"voice":2,"pitch":58,"start":215.7271,"duration":0.2727,"velocity":127,"measure":99,"beat":4.5,"subject_pos":-1,"motif":"head","motif_pos":2,"best_pos":2,"similarity":1.0,"stretto":false,"stretto_voices":0,"combination":[],"aug_dim":"","rhythm_ratio":1.0,"mirror":false,"chromatic_density":0.3,"complexity":0.529,"dissonance":0.125},{"voice":1,"pitch":60,"start":215.9998,"duration":0.5455,"velocity":127,"measure":100,"beat":1.0,"subject_pos":-1,"motif":"head","motif_pos":0,"best_pos":0,"similarity":1.0,"stretto":false,"stretto_voices":0,"combination":[],"aug_dim":"","rhythm_ratio":1.0,"mirror":false,"chromatic_density":0.25,"complexity":0.537,"dissonance":0.025},{"voice":2,"pitch":57,"start":215.9998,"duration":0.2727,"velocity":127,"measure":100,"beat":1.0,"subject_pos":-1,"motif":"head","motif_pos":3,"best_pos":3,"similarity":1.0,"stretto":false,"stretto_voices":0,"combination":[],"aug_dim":"","rhythm_ratio":1.0,"mirror":false,"chromatic_density":0.25,"complexity":0.537,"dissonance":0.025},{"voice":2,"pitch":55,"start":216.2725,"duration":0.2727,"velocity":127,"measure":100,"beat":1.5,"subject_pos":-1,"motif":"head","motif_pos":4,"best_pos":4,"similarity":1.0,"stretto":false,"stretto_voices":0,"combination":[],"aug_dim":"","rhythm_ratio":1.0,"mirror":false,"chromatic_density":0.25,"complexity":0.537,"dissonance":0.025},{"voice":0,"pitch":74,"start":216.5452,"duration":0.2727,"velocity":127,"measure":100,"beat":2.0,"subject_pos":-1,"motif":"","motif_pos":-1,"best_pos":4,"similarity":0.579,"stretto":false,"stretto_voices":0,"combination":[],"aug_dim":"","rhythm_ratio":1.0,"mirror":false,"chromatic_density":0.25,"complexity":0.537,"dissonance":0.025},{"voice":1,"pitch":65,"start":216.5452,"duration":0.8182,"velocity":127,"measure":100,"beat":2.0,"subject_pos":-1,"motif":"head","motif_pos":1,"best_pos":1,"similarity":1.0,"stretto":false,"stretto_voices":0,"combination":[],"aug_dim":"","rhythm_ratio":1.0,"mirror":false,"chromatic_density":0.25,"complexity":0.537,"dissonance":0.025},{"voice":2,"pitch":53,"start":216.5452,"duration":0.5455,"velocity":127,"measure":100,"beat":2.0,"subject_pos":-1,"motif":"","motif_pos":-1,"best_pos":2,"similarity":0.436,"stretto":false,"stretto_voices":0,"combination":[],"aug_dim":"","rhythm_ratio":1.0,"mirror":false,"chromatic_density":0.25,"complexity":0.537,"dissonance":0.025},{"voice":0,"pitch":72,"start":216.818,"duration":0.2727,"velocity":127,"measure":100,"beat":2.5,"subject_pos":-1,"motif":"","motif_pos":-1,"best_pos":5,"similarity":0.607,"stretto":false,"stretto_voices":0,"combination":[],"aug_dim":"","rhythm_ratio":1.0,"mirror":false,"chromatic_density":0.25,"complexity":0.537,"dissonance":0.025},{"voice":0,"pitch":74,"start":217.0907,"duration":0.2727,"velocity":127,"measure":100,"beat":3.0,"subject_pos":-1,"motif":"","motif_pos":-1,"best_pos":6,"similarity":0.657,"stretto":false,"stretto_voices":0,"combination":[],"aug_dim":"","rhythm_ratio":1.0,"mirror":false,"chromatic_density":0.25,"complexity":0.537,"dissonance":0.025},{"voice":2,"pitch":58,"start":217.0907,"duration":0.8182,"velocity":127,"measure":100,"beat":3.0,"subject_pos":-1,"motif":"","motif_pos":-1,"best_pos":1,"similarity":0.536,"stretto":false,"stretto_voices":0,"combination":[],"aug_dim":"","rhythm_ratio":1.0,"mirror":false,"chromatic_density":0.25,"complexity":0.537,"dissonance":0.025},{"voice":0,"pitch":75,"start":217.3634,"duration":0.2727,"velocity":127,"measure":100,"beat":3.5,"subject_pos":-1,"motif":"","motif_pos":-1,"best_pos":5,"similarity":0.636,"stretto":false,"stretto_voices":0,"combination":[],"aug_dim":"","rhythm_ratio":1.0,"mirror":false,"chromatic_density":0.25,"complexity":0.537,"dissonance":0.025},{"voice":1,"pitch":63,"start":217.3634,"duration":0.2727,"velocity":127,"measure":100,"beat":3.5,"subject_pos":-1,"motif":"head","motif_pos":2,"best_pos":2,"similarity":1.0,"stretto":false,"stretto_voices":0,"combination":[],"aug_dim":"","rhythm_ratio":1.0,"mirror":false,"chromatic_density":0.25,"complexity":0.537,"dissonance":0.025},{"voice":0,"pitch":77,"start":217.6361,"duration":0.8182,"velocity":127,"measure":100,"beat":4.0,"subject_pos":-1,"motif":"","motif_pos":-1,"best_pos":6,"similarity":0.464,"stretto":false,"stretto_voices":0,"combination":[],"aug_dim":"","rhythm_ratio":1.0,"mirror":false,"chromatic_density":0.25,"complexity":0.537,"dissonance":0.025},{"voice":1,"pitch":62,"start":217.6361,"duration":0.2727,"velocity":127,"measure":100,"beat":4.0,"subject_pos":-1,"motif":"head","motif_pos":3,"best_pos":3,"similarity":1.0,"stretto":false,"stretto_voices":0,"combination":[],"aug_dim":"","rhythm_ratio":1.0,"mirror":false,"chromatic_density":0.25,"complexity":0.537,"dissonance":0.025},{"voice":1,"pitch":60,"start":217.9089,"duration":0.2727,"velocity":127,"measure":100,"beat":4.5,"subject_pos":-1,"motif":"head","motif_pos":4,"best_pos":4,"similarity":1.0,"stretto":false,"stretto_voices":0,"combination":[],"aug_dim":"","rhythm_ratio":1.0,"mirror":false,"chromatic_density":0.25,"complexity":0.537,"dissonance":0.025},{"voice":2,"pitch":57,"start":217.9089,"duration":0.2727,"velocity":127,"measure":100,"beat":4.5,"subject_pos":-1,"motif":"","motif_pos":-1,"best_pos":2,"similarity":0.536,"stretto":false,"stretto_voices":0,"combination":[],"aug_dim":"","rhythm_ratio":1.0,"mirror":false,"chromatic_density":0.25,"complexity":0.537,"dissonance":0.025},{"voice":1,"pitch":58,"start":218.1816,"duration":0.8182,"velocity":127,"measure":101,"beat":1.0,"subject_pos":-1,"motif":"","motif_pos":-1,"best_pos":3,"similarity":0.786,"stretto":false,"stretto_voices":0,"combination":[],"aug_dim":"","rhythm_ratio":1.0,"mirror":false,"chromatic_density":0.333,"complexity":0.448,"dissonance":0.118},{"voice":2,"pitch":55,"start":218.1816,"duration":2.1818,"velocity":127,"measure":101,"beat":1.0,"subject_pos":-1,"motif":"","motif_pos":-1,"best_pos":3,"similarity":0.571,"stretto":false,"stretto_voices":0,"combination":[],"aug_dim":"","rhythm_ratio":1.0,"mirror":false,"chromatic_density":0.333,"complexity":0.448,"dissonance":0.118},{"voice":0,"pitch":74,"start":218.4543,"duration":0.2727,"velocity":127,"measure":101,"beat":1.5,"subject_pos":-1,"motif":"","motif_pos":-1,"best_pos":3,"similarity":0.55,"stretto":false,"stretto_voices":0,"combination":[],"aug_dim":"","rhythm_ratio":1.0,"mirror":false,"chromatic_density":0.333,"complexity":0.448,"dissonance":0.118},{"voice":0,"pitch":76,"start":218.7271,"duration":0.2727,"velocity":127,"measure":101,"beat":2.0,"subject_pos":-1,"motif":"","motif_pos":-1,"best_pos":4,"similarity":0.607,"stretto":false,"stretto_voices":0,"combination":[],"aug_dim":"","rhythm_ratio":1.0,"mirror":false,"chromatic_density":0.333,"complexity":0.448,"dissonance":0.118},{"voice":0,"pitch":77,"start":218.9998,"duration":0.2727,"velocity":127,"measure":101,"beat":2.5,"subject_pos":-1,"motif":"","motif_pos":-1,"best_pos":5,"similarity":0.657,"stretto":false,"stretto_voices":0,"combination":[],"aug_dim":"","rhythm_ratio":1.0,"mirror":false,"chromatic_density":0.333,"complexity":0.448,"dissonance":0.118},{"voice":1,"pitch":57,"start":218.9998,"duration":0.2727,"velocity":127,"measure":101,"beat":2.5,"subject_pos":-1,"motif":"","motif_pos":-1,"best_pos":4,"similarity":0.893,"stretto":false,"stretto_voices":0,"combination":[],"aug_dim":"","rhythm_ratio":1.0,"mirror":false,"chromatic_density":0.333,"complexity":0.448,"dissonance":0.118},{"voice":0,"pitch":79,"start":219.2725,"duration":0.5455,"velocity":127,"measure":101,"beat":3.0,"subject_pos":-1,"motif":"","motif_pos":-1,"best_pos":6,"similarity":0.436,"stretto":false,"stretto_voices":0,"combination":[],"aug_dim":"","rhythm_ratio":1.0,"mirror":false,"chromatic_density":0.333,"complexity":0.448,"dissonance":0.118},{"voice":1,"pitch":58,"start":219.2725,"duration":0.2727,"velocity":127,"measure":101,"beat":3.0,"subject_pos":-1,"motif":"","motif_pos":-1,"best_pos":5,"similarity":0.821,"stretto":false,"stretto_voices":0,"combination":[],"aug_dim":"","rhythm_ratio":1.0,"mirror":false,"chromatic_density":0.333,"complexity":0.448,"dissonance":0.118},{"voice":1,"pitch":60,"start":219.5452,"duration":0.2727,"velocity":127,"measure":101,"beat":3.5,"subject_pos":-1,"motif":"","motif_pos":-1,"best_pos":6,"similarity":0.643,"stretto":false,"stretto_voices":0,"combination":[],"aug_dim":"","rhythm_ratio":1.0,"mirror":false,"chromatic_density":0.333,"complexity":0.448,"dissonance":0.118},{"voice":0,"pitch":70,"start":219.818,"duration":0.8182,"velocity":127,"measure":101,"beat":4.0,"subject_pos":-1,"motif":"","motif_pos":-1,"best_pos":2,"similarity":0.386,"stretto":false,"stretto_voices":0,"combination":[],"aug_dim":"","rhythm_ratio":1.0,"mirror":false,"chromatic_density":0.333,"complexity":0.448,"dissonance":0.118},{"voice":1,"pitch":62,"start":219.818,"duration":0.2727,"velocity":127,"measure":101,"beat":4.0,"subject_pos":-1,"motif":"","motif_pos":-1,"best_pos":5,"similarity":0.593,"stretto":false,"stretto_voices":0,"combination":[],"aug_dim":"","rhythm_ratio":1.0,"mirror":false,"chromatic_density":0.333,"complexity":0.448,"dissonance":0.118},{"voice":1,"pitch":64,"start":220.0907,"duration":0.2727,"velocity":127,"measure":101,"beat":4.5,"subject_pos":-1,"motif":"enigmatic_cell","motif_pos":0,"best_pos":0,"similarity":1.0,"stretto":false,"stretto_voices":0,"combination":[],"aug_dim":"","rhythm_ratio":1.0,"mirror":false,"chromatic_density":0.333,"complexity":0.448,"dissonance":0.118},{"voice":1,"pitch":65,"start":220.3634,"duration":0.5455,"velocity":127,"measure":102,"beat":1.0,"subject_pos":-1,"motif":"enigmatic_cell","motif_pos":1,"best_pos":1,"similarity":1.0,"stretto":false,"stretto_voices":0,"combination":[],"aug_dim":"","rhythm_ratio":1.0,"mirror":false,"chromatic_density":0.25,"complexity":0.492,"dissonance":0.094},{"voice":2,"pitch":53,"start":220.3634,"duration":0.8182,"velocity":127,"measure":102,"beat":1.0,"subject_pos":-1,"motif":"","motif_pos":-1,"best_pos":4,"similarity":0.607,"stretto":false,"stretto_voices":0,"combination":[],"aug_dim":"","rhythm_ratio":1.0,"mirror":false,"chromatic_density":0.25,"complexity":0.492,"dissonance":0.094},{"voice":0,"pitch":67,"start":220.6361,"duration":0.2727,"velocity":127,"measure":102,"beat":1.5,"subject_pos":-1,"motif":"","motif_pos":-1,"best_pos":3,"similarity":0.536,"stretto":false,"stretto_voices":0,"combination":[],"aug_dim":"","rhythm_ratio":1.0,"mirror":false,"chromatic_density":0.25,"complexity":0.492,"dissonance":0.094},{"voice":0,"pitch":69,"start":220.9089,"duration":0.2727,"velocity":127,"measure":102,"beat":2.0,"subject_pos":-1,"motif":"","motif_pos":-1,"best_pos":4,"similarity":0.636,"stretto":false,"stretto_voices":0,"combination":[],"aug_dim":"","rhythm_ratio":1.0,"mirror":false,"chromatic_density":0.25,"complexity":0.492,"dissonance":0.094},{"voice":1,"pitch":60,"start":220.9089,"duration":0.5455,"velocity":127,"measure":102,"beat":2.0,"subject_pos":-1,"motif":"enigmatic_cell","motif_pos":2,"best_pos":2,"similarity":1.0,"stretto":false,"stretto_voices":0,"combination":[],"aug_dim":"","rhythm_ratio":1.0,"mirror":false,"chromatic_density":0.25,"complexity":0.492,"dissonance":0.094},{"voice":0,"pitch":70,"start":221.1816,"duration":0.2727,"velocity":127,"measure":102,"beat":2.5,"subject_pos":-1,"motif":"","motif_pos":-1,"best_pos":5,"similarity":0.729,"stretto":false,"stretto_voices":0,"combination":[],"aug_dim":"","rhythm_ratio":1.0,"mirror":false,"chromatic_density":0.25,"complexity":0.492,"dissonance":0.094},{"voice":2,"pitch":55,"start":221.1816,"duration":0.2727,"velocity":127,"measure":102,"beat":2.5,"subject_pos":-1,"motif":"","motif_pos":-1,"best_pos":5,"similarity":0.679,"stretto":false,"stretto_voices":0,"combination":[],"aug_dim":"","rhythm_ratio":1.0,"mirror":false,"chromatic_density":0.25,"complexity":0.492,"dissonance":0.094},{"voice":0,"pitch":72,"start":221.4543,"duration":0.2727,"velocity":127,"measure":102,"beat":3.0,"subject_pos":-1,"motif":"","motif_pos":-1,"best_pos":5,"similarity":0.607,"stretto":false,"stretto_voices":0,"combination":[],"aug_dim":"","rhythm_ratio":1.0,"mirror":false,"chromatic_density":0.25,"complexity":0.492,"dissonance":0.094},{"voice":2,"pitch":57,"start":221.4543,"duration":0.2727,"velocity":127,"measure":102,"beat":3.0,"subject_pos":-1,"motif":"","motif_pos":-1,"best_pos":6,"similarity":0.679,"stretto":false,"stretto_voices":0,"combination":[],"aug_dim":"","rhythm_ratio":1.0,"mirror":false,"chromatic_density":0.25,"complexity":0.492,"dissonance":0.094},{"voice":0,"pitch":74,"start":221.7271,"duration":0.2727,"velocity":127,"measure":102,"beat":3.5,"subject_pos":-1,"motif":"","motif_pos":-1,"best_pos":6,"similarity":0.661,"stretto":false,"stretto_voices":0,"combination":[],"aug_dim":"","rhythm_ratio":1.0,"mirror":false,"chromatic_density":0.25,"complexity":0.492,"dissonance":0.094},{"voice":2,"pitch":58,"start":221.7271,"duration":0.2727,"velocity":127,"measure":102,"beat":3.5,"subject_pos":-1,"motif":"","motif_pos":-1,"best_pos":5,"similarity":0.6,"stretto":false,"stretto_voices":0,"combination":[],"aug_dim":"","rhythm_ratio":1.0,"mirror":false,"chromatic_density":0.25,"complexity":0.492,"dissonance":0.094},{"voice":0,"pitch":75,"start":221.9998,"duration":0.2727,"velocity":127,"measure":102,"beat":4.0,"subject_pos":-1,"motif":"","motif_pos":-1,"best_pos":7,"similarity":0.464,"stretto":false,"stretto_voices":0,"combination":[],"aug_dim":"","rhythm_ratio":1.0,"mirror":false,"chromatic_density":0.25,"complexity":0.492,"dissonance":0.094},{"voice":2,"pitch":60,"start":221.9998,"duration":0.2727,"velocity":127,"measure":102,"beat":4.0,"subject_pos":-1,"motif":"","motif_pos":-1,"best_pos":6,"similarity":0.464,"stretto":false,"stretto_voices":0,"combination":[],"aug_dim":"","rhythm_ratio":1.0,"mirror":false,"chromatic_density":0.25,"complexity":0.492,"dissonance":0.094},{"voice":0,"pitch":72,"start":222.2725,"duration":0.2727,"velocity":127,"measure":102,"beat":4.5,"subject_pos":-1,"motif":"","motif_pos":-1,"best_pos":5,"similarity":0.386,"stretto":false,"stretto_voices":0,"combination":[],"aug_dim":"","rhythm_ratio":1.0,"mirror":false,"chromatic_density":0.25,"complexity":0.492,"dissonance":0.094},{"voice":2,"pitch":57,"start":222.2725,"duration":0.2727,"velocity":127,"measure":102,"beat":4.5,"subject_pos":-1,"motif":"enigmatic_cell","motif_pos":0,"best_pos":0,"similarity":1.0,"stretto":false,"stretto_voices":0,"combination":[],"aug_dim":"","rhythm_ratio":1.0,"mirror":false,"chromatic_density":0.25,"complexity":0.492,"dissonance":0.094},{"voice":0,"pitch":74,"start":222.5452,"duration":0.5455,"velocity":127,"measure":103,"beat":1.0,"subject_pos":-1,"motif":"","motif_pos":-1,"best_pos":6,"similarity":0.389,"stretto":false,"stretto_voices":0,"combination":[],"aug_dim":"","rhythm_ratio":1.0,"mirror":false,"chromatic_density":0.286,"complexity":0.67,"dissonance":0.125},{"voice":2,"pitch":58,"start":222.5452,"duration":0.5455,"velocity":127,"measure":103,"beat":1.0,"subject_pos":-1,"motif":"enigmatic_cell","motif_pos":1,"best_pos":1,"similarity":1.0,"stretto":false,"stretto_voices":0,"combination":[],"aug_dim":"","rhythm_ratio":1.0,"mirror":false,"chromatic_density":0.286,"complexity":0.67,"dissonance":0.125},{"voice":1,"pitch":72,"start":222.818,"duration":0.2727,"velocity":127,"measure":103,"beat":1.5,"subject_pos":-1,"motif":"","motif_pos":-1,"best_pos":1,"similarity":0.357,"stretto":false,"stretto_voices":0,"combination":[],"aug_dim":"","rhythm_ratio":1.0,"mirror":false,"chromatic_density":0.286,"complexity":0.67,"dissonance":0.125},{"voice":0,"pitch":77,"start":223.0907,"duration":0.5455,"velocity":127,"measure":103,"beat":2.0,"subject_pos":-1,"motif":"","motif_pos":-1,"best_pos":4,"similarity":0.243,"stretto":false,"stretto_voices":0,"combination":[],"aug_dim":"","rhythm_ratio":1.0,"mirror":false,"chromatic_density":0.286,"complexity":0.67,"dissonance":0.125},{"voice":1,"pitch":70,"start":223.0907,"duration":0.2727,"velocity":127,"measure":103,"beat":2.0,"subject_pos":-1,"motif":"","motif_pos":-1,"best_pos":3,"similarity":0.45,"stretto":false,"stretto_voices":0,"combination":[],"aug_dim":"","rhythm_ratio":1.0,"mirror":false,"chromatic_density":0.286,"complexity":0.67,"dissonance":0.125},{"voice":2,"pitch":53,"start":223.0907,"duration":0.5455,"velocity":127,"measure":103,"beat":2.0,"subject_pos":-1,"motif":"enigmatic_cell","motif_pos":2,"best_pos":2,"similarity":1.0,"stretto":false,"stretto_voices":0,"combination":[],"aug_dim":"","rhythm_ratio":1.0,"mirror":false,"chromatic_density":0.286,"complexity":0.67,"dissonance":0.125},{"voice":3,"pitch":50,"start":223.0907,"duration":0.5455,"velocity":127,"measure":103,"beat":2.0,"subject_pos":-1,"motif":"enigmatic_cell","motif_pos":0,"best_pos":0,"similarity":1.0,"stretto":false,"stretto_voices":0,"combination":[],"aug_dim":"","rhythm_ratio":1.0,"mirror":false,"chromatic_density":0.286,"complexity":0.67,"dissonance":0.125},{"voice":1,"pitch":69,"start":223.3634,"duration":0.2727,"velocity":127,"measure":103,"beat":2.5,"subject_pos":-1,"motif":"","motif_pos":-1,"best_pos":2,"similarity":0.5,"stretto":false,"stretto_voices":0,"combination":[],"aug_dim":"","rhythm_ratio":1.0,"mirror":false,"chromatic_density":0.286,"complexity":0.67,"dissonance":0.125},{"voice":0,"pitch":70,"start":223.6361,"duration":0.8182,"velocity":127,"measure":103,"beat":3.0,"subject_pos":-1,"motif":"","motif_pos":-1,"best_pos":5,"similarity":0.371,"stretto":false,"stretto_voices":0,"combination":[],"aug_dim":"","rhythm_ratio":1.0,"mirror":false,"chromatic_density":0.286,"complexity":0.67,"dissonance":0.125},{"voice":1,"pitch":67,"start":223.6361,"duration":0.2727,"velocity":127,"measure":103,"beat":3.0,"subject_pos":-1,"motif":"tail","motif_pos":3,"best_pos":3,"similarity":1.0,"stretto":false,"stretto_voices":0,"combination":[],"aug_dim":"","rhythm_ratio":1.0,"mirror":false,"chromatic_density":0.286,"complexity":0.67,"dissonance":0.125},{"voice":2,"pitch":55,"start":223.6361,"duration":0.5455,"velocity":127,"measure":103,"beat":3.0,"subject_pos":-1,"motif":"","motif_pos":-1,"best_pos":6,"similarity":0.304,"stretto":false,"stretto_voices":0,"combination":[],"aug_dim":"","rhythm_ratio":1.0,"mirror":false,"chromatic_density":0.286,"complexity":0.67,"dissonance":0.125},{"voice":3,"pitch":51,"start":223.6361,"duration":0.5455,"velocity":127,"measure":103,"beat":3.0,"subject_pos":-1,"motif":"enigmatic_cell","motif_pos":1,"best_pos":1,"similarity":1.0,"stretto":false,"stretto_voices":0,"combination":[],"aug_dim":"","rhythm_ratio":1.0,"mirror":false,"chromatic_density":0.286,"complexity":0.67,"dissonance":0.125},{"voice":1,"pitch":66,"start":223.9089,"duration":0.2727,"velocity":127,"measure":103,"beat":3.5,"subject_pos":-1,"motif":"tail","motif_pos":4,"best_pos":4,"similarity":1.0,"stretto":false,"stretto_voices":0,"combination":[],"aug_dim":"","rhythm_ratio":1.0,"mirror":false,"chromatic_density":0.286,"complexity":0.67,"dissonance":0.125},{"voice":1,"pitch":67,"start":224.1816,"duration":0.2727,"velocity":127,"measure":103,"beat":4.0,"subject_pos":-1,"motif":"tail","motif_pos":5,"best_pos":5,"similarity":1.0,"stretto":false,"stretto_voices":0,"combination":[],"aug_dim":"","rhythm_ratio":1.0,"mirror":false,"chromatic_density":0.286,"complexity":0.67,"dissonance":0.125},{"voice":2,"pitch":50,"start":224.1816,"duration":0.5455,"velocity":127,"measure":103,"beat":4.0,"subject_pos":-1,"motif":"","motif_pos":-1,"best_pos":2,"similarity":0.307,"stretto":false,"stretto_voices":0,"combination":[],"aug_dim":"","rhythm_ratio":1.0,"mirror":false,"chromatic_density":0.286,"complexity":0.67,"dissonance":0.125},{"voice":3,"pitch":46,"start":224.1816,"duration":0.5455,"velocity":127,"measure":103,"beat":4.0,"subject_pos":-1,"motif":"enigmatic_cell","motif_pos":2,"best_pos":2,"similarity":1.0,"stretto":false,"stretto_voices":0,"combination":[],"aug_dim":"","rhythm_ratio":1.0,"mirror":false,"chromatic_density":0.286,"complexity":0.67,"dissonance":0.125},{"voice":0,"pitch":72,"start":224.4543,"duration":0.2727,"velocity":127,"measure":103,"beat":4.5,"subject_pos":-1,"motif":"","motif_pos":-1,"best_pos":5,"similarity":0.5,"stretto":false,"stretto_voices":0,"combination":[],"aug_dim":"","rhythm_ratio":1.0,"mirror":false,"chromatic_density":0.286,"complexity":0.67,"dissonance":0.125},{"voice":1,"pitch":69,"start":224.4543,"duration":0.2727,"velocity":127,"measure":103,"beat":4.5,"subject_pos":-1,"motif":"tail","motif_pos":6,"best_pos":6,"similarity":1.0,"stretto":false,"stretto_voices":0,"combination":[],"aug_dim":"","rhythm_ratio":1.0,"mirror":false,"chromatic_density":0.286,"complexity":0.67,"dissonance":0.125},{"voice":0,"pitch":74,"start":224.727,"duration":0.8182,"velocity":127,"measure":104,"beat":1.0,"subject_pos":-1,"motif":"","motif_pos":-1,"best_pos":5,"similarity":0.593,"stretto":false,"stretto_voices":0,"combination":[],"aug_dim":"","rhythm_ratio":1.0,"mirror":false,"chromatic_density":0.385,"complexity":0.571,"dissonance":0.095},{"voice":1,"pitch":70,"start":224.727,"duration":0.2727,"velocity":127,"measure":104,"beat":1.0,"subject_pos":-1,"motif":"tail","motif_pos":7,"best_pos":7,"similarity":1.0,"stretto":false,"stretto_voices":0,"combination":[],"aug_dim":"","rhythm_ratio":1.0,"mirror":false,"chromatic_density":0.385,"complexity":0.571,"dissonance":0.095},{"voice":1,"pitch":69,"start":224.9998,"duration":0.2727,"velocity":127,"measure":104,"beat":1.5,"subject_pos":-1,"motif":"","motif_pos":-1,"best_pos":4,"similarity":0.6,"stretto":false,"stretto_voices":0,"combination":[],"aug_dim":"","rhythm_ratio":1.0,"mirror":false,"chromatic_density":0.385,"complexity":0.571,"dissonance":0.095},{"voice":1,"pitch":70,"start":225.2725,"duration":0.2727,"velocity":127,"measure":104,"beat":2.0,"subject_pos":-1,"motif":"","motif_pos":-1,"best_pos":5,"similarity":0.45,"stretto":false,"stretto_voices":0,"combination":[],"aug_dim":"","rhythm_ratio":1.0,"mirror":false,"chromatic_density":0.385,"complexity":0.571,"dissonance":0.095},{"voice":2,"pitch":58,"start":225.2725,"duration":0.5455,"velocity":127,"measure":104,"beat":2.0,"subject_pos":-1,"motif":"","motif_pos":-1,"best_pos":3,"similarity":0.379,"stretto":false,"stretto_voices":0,"combination":[],"aug_dim":"","rhythm_ratio":1.0,"mirror":false,"chromatic_density":0.385,"complexity":0.571,"dissonance":0.095},{"voice":3,"pitch":55,"start":225.2725,"duration":0.5455,"velocity":127,"measure":104,"beat":2.0,"subject_pos":-1,"motif":"","motif_pos":-1,"best_pos":1,"similarity":0.357,"stretto":false,"stretto_voices":0,"combination":[],"aug_dim":"","rhythm_ratio":1.0,"mirror":false,"chromatic_density":0.385,"complexity":0.571,"dissonance":0.095},{"voice":0,"pitch":76,"start":225.5452,"duration":0.2727,"velocity":127,"measure":104,"beat":2.5,"subject_pos":-1,"motif":"","motif_pos":-1,"best_pos":6,"similarity":0.65,"stretto":false,"stretto_voices":0,"combination":[],"aug_dim":"","rhythm_ratio":1.0,"mirror":false,"chromatic_density":0.385,"complexity":0.571,"dissonance":0.095},{"voice":1,"pitch":67,"start":225.5452,"duration":0.2727,"velocity":127,"measure":104,"beat":2.5,"subject_pos":-1,"motif":"","motif_pos":-1,"best_pos":3,"similarity":0.343,"stretto":false,"stretto_voices":0,"combination":[],"aug_dim":"","rhythm_ratio":1.0,"mirror":false,"chromatic_density":0.385,"complexity":0.571,"dissonance":0.095},{"voice":0,"pitch":77,"start":225.818,"duration":1.0909,"velocity":127,"measure":104,"beat":3.0,"subject_pos":-1,"motif":"","motif_pos":-1,"best_pos":5,"similarity":0.6,"stretto":false,"stretto_voices":0,"combination":[],"aug_dim":"","rhythm_ratio":1.0,"mirror":false,"chromatic_density":0.385,"complexity":0.571,"dissonance":0.095},{"voice":1,"pitch":72,"start":225.818,"duration":0.2727,"velocity":127,"measure":104,"beat":3.0,"subject_pos":-1,"motif":"","motif_pos":-1,"best_pos":1,"similarity":0.357,"stretto":false,"stretto_voices":0,"combination":[],"aug_dim":"","rhythm_ratio":1.0,"mirror":false,"chromatic_density":0.385,"complexity":0.571,"dissonance":0.095},{"voice":2,"pitch":57,"start":225.818,"duration":0.5455,"velocity":127,"measure":104,"beat":3.0,"subject_pos":-1,"motif":"","motif_pos":-1,"best_pos":4,"similarity":0.386,"stretto":false,"stretto_voices":0,"combination":[],"aug_dim":"","rhythm_ratio":1.0,"mirror":false,"chromatic_density":0.385,"complexity":0.571,"dissonance":0.095},{"voice":3,"pitch":53,"start":225.818,"duration":0.5455,"velocity":127,"measure":104,"beat":3.0,"subject_pos":-1,"motif":"","motif_pos":-1,"best_pos":2,"similarity":0.357,"stretto":false,"stretto_voices":0,"combination":[],"aug_dim":"","rhythm_ratio":1.0,"mirror":false,"chromatic_density":0.385,"complexity":0.571,"dissonance":0.095},{"voice":1,"pitch":75,"start":226.0907,"duration":0.2727,"velocity":127,"measure":104,"beat":3.5,"subject_pos":-1,"motif":"","motif_pos":-1,"best_pos":1,"similarity":0.321,"stretto":false,"stretto_voices":0,"combination":[],"aug_dim":"","rhythm_ratio":1.0,"mirror":false,"chromatic_density":0.385,"complexity":0.571,"dissonance":0.095},{"voice":1,"pitch":74,"start":226.3634,"duration":0.2727,"velocity":127,"measure":104,"beat":4.0,"subject_pos":-1,"motif":"","motif_pos":-1,"best_pos":2,"similarity":0.4,"stretto":false,"stretto_voices":0,"combination":[],"aug_dim":"","rhythm_ratio":1.0,"mirror":false,"chromatic_density":0.385,"complexity":0.571,"dissonance":0.095},{"voice":2,"pitch":62,"start":226.3634,"duration":0.5455,"velocity":127,"measure":104,"beat":4.0,"subject_pos":-1,"motif":"head_inv","motif_pos":0,"best_pos":0,"similarity":1.0,"stretto":false,"stretto_voices":0,"combination":[],"aug_dim":"","rhythm_ratio":1.0,"mirror":false,"chromatic_density":0.385,"complexity":0.571,"dissonance":0.095},{"voice":3,"pitch":58,"start":226.3634,"duration":0.5455,"velocity":127,"measure":104,"beat":4.0,"subject_pos":-1,"motif":"","motif_pos":-1,"best_pos":1,"similarity":0.321,"stretto":false,"stretto_voices":0,"combination":[],"aug_dim":"","rhythm_ratio":1.0,"mirror":false,"chromatic_density":0.385,"complexity":0.571,"dissonance":0.095},{"voice":1,"pitch":72,"start":226.6361,"duration":0.2727,"velocity":127,"measure":104,"beat":4.5,"subject_pos":-1,"motif":"","motif_pos":-1,"best_pos":2,"similarity":0.464,"stretto":false,"stretto_voices":0,"combination":[],"aug_dim":"","rhythm_ratio":1.0,"mirror":false,"chromatic_density":0.385,"complexity":0.571,"dissonance":0.095},{"voice":0,"pitch":79,"start":226.9089,"duration":1.0909,"velocity":127,"measure":105,"beat":1.0,"subject_pos":-1,"motif":"","motif_pos":-1,"best_pos":6,"similarity":0.464,"stretto":false,"stretto_voices":0,"combination":[],"aug_dim":"","rhythm_ratio":1.0,"mirror":false,"chromatic_density":0.235,"complexity":0.619,"dissonance":0.14},{"voice":1,"pitch":70,"start":226.9089,"duration":0.5455,"velocity":127,"measure":105,"beat":1.0,"subject_pos":-1,"motif":"","motif_pos":-1,"best_pos":2,"similarity":0.375,"stretto":false,"stretto_voices":0,"combination":[],"aug_dim":"","rhythm_ratio":1.0,"mirror":false,"chromatic_density":0.235,"complexity":0.619,"dissonance":0.14},{"voice":2,"pitch":55,"start":226.9089,"duration":0.2727,"velocity":127,"measure":105,"beat":1.0,"subject_pos":-1,"motif":"head_inv","motif_pos":1,"best_pos":1,"similarity":1.0,"stretto":false,"stretto_voices":0,"combination":[],"aug_dim":"","rhythm_ratio":1.0,"mirror":false,"chromatic_density":0.235,"complexity":0.619,"dissonance":0.14},{"voice":3,"pitch":51,"start":226.9089,"duration":0.2727,"velocity":127,"measure":105,"beat":1.0,"subject_pos":-1,"motif":"","motif_pos":-1,"best_pos":4,"similarity":0.393,"stretto":false,"stretto_voices":0,"combination":[],"aug_dim":"","rhythm_ratio":1.0,"mirror":false,"chromatic_density":0.235,"complexity":0.619,"dissonance":0.14},{"voice":2,"pitch":57,"start":227.1816,"duration":0.2727,"velocity":127,"measure":105,"beat":1.5,"subject_pos":-1,"motif":"head_inv","motif_pos":2,"best_pos":2,"similarity":1.0,"stretto":false,"stretto_voices":0,"combination":[],"aug_dim":"","rhythm_ratio":1.0,"mirror":false,"chromatic_density":0.235,"complexity":0.619,"dissonance":0.14},{"voice":3,"pitch":53,"start":227.1816,"duration":0.2727,"velocity":127,"measure":105,"beat":1.5,"subject_pos":-1,"motif":"","motif_pos":-1,"best_pos":5,"similarity":0.5,"stretto":false,"stretto_voices":0,"combination":[],"aug_dim":"","rhythm_ratio":1.0,"mirror":false,"chromatic_density":0.235,"complexity":0.619,"dissonance":0.14},{"voice":1,"pitch":75,"start":227.4543,"duration":0.5455,"velocity":127,"measure":105,"beat":2.0,"subject_pos":-1,"motif":"","motif_pos":-1,"best_pos":1,"similarity":0.429,"stretto":false,"stretto_voices":0,"combination":[],"aug_dim":"","rhythm_ratio":1.0,"mirror":false,"chromatic_density":0.235,"complexity":0.619,"dissonance":0.14},{"voice":2,"pitch":58,"start":227.4543,"duration":0.2727,"velocity":127,"measure":105,"beat":2.0,"subject_pos":-1,"motif":"head_inv","motif_pos":3,"best_pos":3,"similarity":1.0,"stretto":false,"stretto_voices":0,"combination":[],"aug_dim":"","rhythm_ratio":1.0,"mirror":false,"chromatic_density":0.235,"complexity":0.619,"dissonance":0.14},{"voice":3,"pitch":55,"start":227.4543,"duration":0.2727,"velocity":127,"measure":105,"beat":2.0,"subject_pos":-1,"motif":"","motif_pos":-1,"best_pos":5,"similarity":0.593,"stretto":false,"stretto_voices":0,"combination":[],"aug_dim":"","rhythm_ratio":1.0,"mirror":false,"chromatic_density":0.235,"complexity":0.619,"dissonance":0.14},{"voice":2,"pitch":60,"start":227.727,"duration":0.2727,"velocity":127,"measure":105,"beat":2.5,"subject_pos":-1,"motif":"head_inv","motif_pos":4,"best_pos":4,"similarity":1.0,"stretto":false,"stretto_voices":0,"combination":[],"aug_dim":"","rhythm_ratio":1.0,"mirror":false,"chromatic_density":0.235,"complexity":0.619,"dissonance":0.14},{"voice":3,"pitch":57,"start":227.727,"duration":0.2727,"velocity":127,"measure":105,"beat":2.5,"subject_pos":-1,"motif":"","motif_pos":-1,"best_pos":6,"similarity":0.65,"stretto":false,"stretto_voices":0,"combination":[],"aug_dim":"","rhythm_ratio":1.0,"mirror":false,"chromatic_density":0.235,"complexity":0.619,"dissonance":0.14},{"voice":0,"pitch":77,"start":227.9998,"duration":0.8182,"velocity":127,"measure":105,"beat":3.0,"subject_pos":-1,"motif":"","motif_pos":-1,"best_pos":2,"similarity":0.593,"stretto":false,"stretto_voices":0,"combination":[],"aug_dim":"","rhythm_ratio":1.0,"mirror":false,"chromatic_density":0.235,"complexity":0.619,"dissonance":0.14},{"voice":2,"pitch":62,"start":227.9998,"duration":0.2727,"velocity":127,"measure":105,"beat":3.0,"subject_pos":-1,"motif":"","motif_pos":-1,"best_pos":6,"similarity":0.661,"stretto":false,"stretto_voices":0,"combination":[],"aug_dim":"","rhythm_ratio":1.0,"mirror":false,"chromatic_density":0.235,"complexity":0.619,"dissonance":0.14},{"voice":3,"pitch":58,"start":227.9998,"duration":0.2727,"velocity":127,"measure":105,"beat":3.0,"subject_pos":-1,"motif":"","motif_pos":-1,"best_pos":5,"similarity":0.657,"stretto":false,"stretto_voices":0,"combination":[],"aug_dim":"","rhythm_ratio":1.0,"mirror":false,"chromatic_density":0.235,"complexity":0.619,"dissonance":0.14},{"voice":1,"pitch":75,"start":228.2725,"duration":0.2727,"velocity":127,"measure":105,"beat":3.5,"subject_pos":-1,"motif":"","motif_pos":-1,"best_pos":2,"similarity":0.364,"stretto":false,"stretto_voices":0,"combination":[],"aug_dim":"","rhythm_ratio":1.0,"mirror":false,"chromatic_density":0.235,"complexity":0.619,"dissonance":0.14},{"voice":2,"pitch":63,"start":228.2725,"duration":0.2727,"velocity":127,"measure":105,"beat":3.5,"subject_pos":-1,"motif":"","motif_pos":-1,"best_pos":5,"similarity":0.6,"stretto":false,"stretto_voices":0,"combination":[],"aug_dim":"","rhythm_ratio":1.0,"mirror":false,"chromatic_density":0.235,"complexity":0.619,"dissonance":0.14},{"voice":3,"pitch":60,"start":228.2725,"duration":0.2727,"velocity":127,"measure":105,"beat":3.5,"subject_pos":-1,"motif":"","motif_pos":-1,"best_pos":6,"similarity":0.579,"stretto":false,"stretto_voices":0,"combination":[],"aug_dim":"","rhythm_ratio":1.0,"mirror":false,"chromatic_density":0.235,"complexity":0.619,"dissonance":0.14},{"voice":1,"pitch":74,"start":228.5452,"duration":0.2727,"velocity":127,"measure":105,"beat":4.0,"subject_pos":-1,"motif":"","motif_pos":-1,"best_pos":1,"similarity":0.429,"stretto":false,"stretto_voices":0,"combination":[],"aug_dim":"","rhythm_ratio":1.0,"mirror":false,"chromatic_density":0.235,"complexity":0.619,"dissonance":0.14},{"voice":2,"pitch":65,"start":228.5452,"duration":0.8182,"velocity":127,"measure":105,"beat":4.0,"subject_pos":-1,"motif":"","motif_pos":-1,"best_pos":6,"similarity":0.464,"stretto":false,"stretto_voices":0,"combination":[],"aug_dim":"","rhythm_ratio":1.0,"mirror":false,"chromatic_density":0.235,"complexity":0.619,"dissonance":0.14},{"voice":3,"pitch":62,"start":228.5452,"duration":0.8182,"velocity":127,"measure":105,"beat":4.0,"subject_pos":-1,"motif":"","motif_pos":-1,"best_pos":1,"similarity":0.457,"stretto":false,"stretto_voices":0,"combination":[],"aug_dim":"","rhythm_ratio":1.0,"mirror":false,"chromatic_density":0.235,"complexity":0.619,"dissonance":0.14},{"voice":0,"pitch":75,"start":228.818,"duration":0.2727,"velocity":127,"measure":105,"beat":4.5,"subject_pos":-1,"motif":"","motif_pos":-1,"best_pos":3,"similarity":0.664,"stretto":false,"stretto_voices":0,"combination":[],"aug_dim":"","rhythm_ratio":1.0,"mirror":false,"chromatic_density":0.235,"complexity":0.619,"dissonance":0.14},{"voice":1,"pitch":72,"start":228.818,"duration":0.2727,"velocity":127,"measure":105,"beat":4.5,"subject_pos":-1,"motif":"","motif_pos":-1,"best_pos":2,"similarity":0.579,"stretto":false,"stretto_voices":0,"combination":[],"aug_dim":"","rhythm_ratio":1.0,"mirror":false,"chromatic_density":0.235,"complexity":0.619,"dissonance":0.14},{"voice":0,"pitch":74,"start":229.0907,"duration":1.3636,"velocity":127,"measure":106,"beat":1.0,"subject_pos":-1,"motif":"","motif_pos":-1,"best_pos":4,"similarity":0.636,"stretto":false,"stretto_voices":0,"combination":[],"aug_dim":"","rhythm_ratio":1.0,"mirror":false,"chromatic_density":0.375,"complexity":0.514,"dissonance":0.13},{"voice":1,"pitch":70,"start":229.0907,"duration":0.2727,"velocity":127,"measure":106,"beat":1.0,"subject_pos":-1,"motif":"","motif_pos":-1,"best_pos":3,"similarity":0.657,"stretto":false,"stretto_voices":0,"combination":[],"aug_dim":"","rhythm_ratio":1.0,"mirror":false,"chromatic_density":0.375,"complexity":0.514,"dissonance":0.13},{"voice":1,"pitch":69,"start":229.3634,"duration":0.2727,"velocity":127,"measure":106,"beat":1.5,"subject_pos":-1,"motif":"","motif_pos":-1,"best_pos":4,"similarity":0.671,"stretto":false,"stretto_voices":0,"combination":[],"aug_dim":"","rhythm_ratio":1.0,"mirror":false,"chromatic_density":0.375,"complexity":0.514,"dissonance":0.13},{"voice":2,"pitch":63,"start":229.3634,"duration":0.2727,"velocity":127,"measure":106,"beat":1.5,"subject_pos":-1,"motif":"","motif_pos":-1,"best_pos":3,"similarity":0.471,"stretto":false,"stretto_voices":0,"combination":[],"aug_dim":"","rhythm_ratio":1.0,"mirror":false,"chromatic_density":0.375,"complexity":0.514,"dissonance":0.13},{"voice":3,"pitch":60,"start":229.3634,"duration":0.2727,"velocity":127,"measure":106,"beat":1.5,"subject_pos":-1,"motif":"","motif_pos":-1,"best_pos":2,"similarity":0.593,"stretto":false,"stretto_voices":0,"combination":[],"aug_dim":"","rhythm_ratio":1.0,"mirror":false,"chromatic_density":0.375,"complexity":0.514,"dissonance":0.13},{"voice":1,"pitch":67,"start":229.6361,"duration":0.2727,"velocity":127,"measure":106,"beat":2.0,"subject_pos":-1,"motif":"","motif_pos":-1,"best_pos":5,"similarity":0.636,"stretto":false,"stretto_voices":0,"combination":[],"aug_dim":"","rhythm_ratio":1.0,"mirror":false,"chromatic_density":0.375,"complexity":0.514,"dissonance":0.13},{"voice":2,"pitch":62,"start":229.6361,"duration":0.2727,"velocity":127,"measure":106,"beat":2.0,"subject_pos":-1,"motif":"","motif_pos":-1,"best_pos":1,"similarity":0.429,"stretto":false,"stretto_voices":0,"combination":[],"aug_dim":"","rhythm_ratio":1.0,"mirror":false,"chromatic_density":0.375,"complexity":0.514,"dissonance":0.13},{"voice":3,"pitch":58,"start":229.6361,"duration":0.2727,"velocity":127,"measure":106,"beat":2.0,"subject_pos":-1,"motif":"","motif_pos":-1,"best_pos":3,"similarity":0.6,"stretto":false,"stretto_voices":0,"combination":[],"aug_dim":"","rhythm_ratio":1.0,"mirror":false,"chromatic_density":0.375,"complexity":0.514,"dissonance":0.13},{"voice":1,"pitch":69,"start":229.9089,"duration":0.2727,"velocity":127,"measure":106,"beat":2.5,"subject_pos":-1,"motif":"","motif_pos":-1,"best_pos":6,"similarity":0.657,"stretto":false,"stretto_voices":0,"combination":[],"aug_dim":"","rhythm_ratio":1.0,"mirror":false,"chromatic_density":0.375,"complexity":0.514,"dissonance":0.13},{"voice":2,"pitch":60,"start":229.9089,"duration":0.2727,"velocity":127,"measure":106,"beat":2.5,"subject_pos":-1,"motif":"","motif_pos":-1,"best_pos":2,"similarity":0.571,"stretto":false,"stretto_voices":0,"combination":[],"aug_dim":"","rhythm_ratio":1.0,"mirror":false,"chromatic_density":0.375,"complexity":0.514,"dissonance":0.13},{"voice":3,"pitch":57,"start":229.9089,"duration":0.2727,"velocity":127,"measure":106,"beat":2.5,"subject_pos":-1,"motif":"","motif_pos":-1,"best_pos":4,"similarity":0.479,"stretto":false,"stretto_voices":0,"combination":[],"aug_dim":"","rhythm_ratio":1.0,"mirror":false,"chromatic_density":0.375,"complexity":0.514,"dissonance":0.13},{"voice":1,"pitch":70,"start":230.1816,"duration":0.2727,"velocity":127,"measure":106,"beat":3.0,"subject_pos":-1,"motif":"","motif_pos":-1,"best_pos":5,"similarity":0.507,"stretto":false,"stretto_voices":0,"combination":[],"aug_dim":"","rhythm_ratio":1.0,"mirror":false,"chromatic_density":0.375,"complexity":0.514,"dissonance":0.13},{"voice":2,"pitch":58,"start":230.1816,"duration":1.0909,"velocity":127,"measure":106,"beat":3.0,"subject_pos":-1,"motif":"","motif_pos":-1,"best_pos":3,"similarity":0.579,"stretto":false,"stretto_voices":0,"combination":[],"aug_dim":"","rhythm_ratio":1.0,"mirror":false,"chromatic_density":0.375,"complexity":0.514,"dissonance":0.13},{"voice":3,"pitch":55,"start":230.1816,"duration":1.0909,"velocity":127,"measure":106,"beat":3.0,"subject_pos":-1,"motif":"","motif_pos":-1,"best_pos":2,"similarity":0.429,"stretto":false,"stretto_voices":0,"combination":[],"aug_dim":"","rhythm_ratio":1.0,"mirror":false,"chromatic_density":0.375,"complexity":0.514,"dissonance":0.13},{"voice":0,"pitch":72,"start":230.4543,"duration":0.2727,"velocity":127,"measure":106,"beat":3.5,"subject_pos":-1,"motif":"","motif_pos":-1,"best_pos":4,"similarity":0.607,"stretto":false,"stretto_voices":0,"combination":[],"aug_dim":"","rhythm_ratio":1.0,"mirror":false,"chromatic_density":0.375,"complexity":0.514,"dissonance":0.13},{"voice":1,"pitch":69,"start":230.4543,"duration":0.2727,"velocity":127,"measure":106,"beat":3.5,"subject_pos":-1,"motif":"","motif_pos":-1,"best_pos":4,"similarity":0.6,"stretto":false,"stretto_voices":0,"combination":[],"aug_dim":"","rhythm_ratio":1.0,"mirror":false,"chromatic_density":0.375,"complexity":0.514,"dissonance":0.13},{"voice":0,"pitch":74,"start":230.727,"duration":0.2727,"velocity":127,"measure":106,"beat":4.0,"subject_pos":-1,"motif":"","motif_pos":-1,"best_pos":5,"similarity":0.661,"stretto":false,"stretto_voices":0,"combination":[],"aug_dim":"","rhythm_ratio":1.0,"mirror":false,"chromatic_density":0.375,"complexity":0.514,"dissonance":0.13},{"voice":1,"pitch":70,"start":230.727,"duration":0.2727,"velocity":127,"measure":106,"beat":4.0,"subject_pos":-1,"motif":"","motif_pos":-1,"best_pos":5,"similarity":0.45,"stretto":false,"stretto_voices":0,"combination":[],"aug_dim":"","rhythm_ratio":1.0,"mirror":false,"chromatic_density":0.375,"complexity":0.514,"dissonance":0.13},{"voice":0,"pitch":76,"start":230.9998,"duration":0.2727,"velocity":127,"measure":106,"beat":4.5,"subject_pos":-1,"motif":"","motif_pos":-1,"best_pos":6,"similarity":0.679,"stretto":false,"stretto_voices":0,"combination":[],"aug_dim":"","rhythm_ratio":1.0,"mirror":false,"chromatic_density":0.375,"complexity":0.514,"dissonance":0.13},{"voice":1,"pitch":67,"start":230.9998,"duration":0.2727,"velocity":127,"measure":106,"beat":4.5,"subject_pos":-1,"motif":"","motif_pos":-1,"best_pos":3,"similarity":0.371,"stretto":false,"stretto_voices":0,"combination":[],"aug_dim":"","rhythm_ratio":1.0,"mirror":false,"chromatic_density":0.375,"complexity":0.514,"dissonance":0.13},{"voice":0,"pitch":77,"start":231.2725,"duration":0.5455,"velocity":127,"measure":107,"beat":1.0,"subject_pos":-1,"motif":"","motif_pos":-1,"best_pos":7,"similarity":0.464,"stretto":false,"stretto_voices":0,"combination":[],"aug_dim":"","rhythm_ratio":1.0,"mirror":false,"chromatic_density":0.2,"complexity":0.555,"dissonance":0.1},{"voice":1,"pitch":72,"start":231.2725,"duration":0.5455,"velocity":127,"measure":107,"beat":1.0,"subject_pos":-1,"motif":"head_inv","motif_pos":0,"best_pos":0,"similarity":1.0,"stretto":false,"stretto_voices":0,"combination":[],"aug_dim":"","rhythm_ratio":1.0,"mirror":false,"chromatic_density":0.2,"complexity":0.555,"dissonance":0.1},{"voice":2,"pitch":57,"start":231.2725,"duration":0.5455,"velocity":127,"measure":107,"beat":1.0,"subject_pos":-1,"motif":"","motif_pos":-1,"best_pos":4,"similarity":0.461,"stretto":false,"stretto_voices":0,"combination":[],"aug_dim":"","rhythm_ratio":1.0,"mirror":false,"chromatic_density":0.2,"complexity":0.555,"dissonance":0.1},{"voice":3,"pitch":53,"start":231.2725,"duration":1.0909,"velocity":127,"measure":107,"beat":1.0,"subject_pos":-1,"motif":"","motif_pos":-1,"best_pos":3,"similarity":0.357,"stretto":false,"stretto_voices":0,"combination":[],"aug_dim":"","rhythm_ratio":1.0,"mirror":false,"chromatic_density":0.2,"complexity":0.555,"dissonance":0.1},{"voice":0,"pitch":65,"start":231.8179,"duration":0.2727,"velocity":127,"measure":107,"beat":2.0,"subject_pos":-1,"motif":"","motif_pos":-1,"best_pos":5,"similarity":0.393,"stretto":false,"stretto_voices":0,"combination":[],"aug_dim":"","rhythm_ratio":1.0,"mirror":false,"chromatic_density":0.2,"complexity":0.555,"dissonance":0.1},{"voice":2,"pitch":65,"start":231.8179,"duration":0.5455,"velocity":127,"measure":107,"beat":2.0,"subject_pos":-1,"motif":"","motif_pos":-1,"best_pos":1,"similarity":0.5,"stretto":false,"stretto_voices":0,"combination":[],"aug_dim":"","rhythm_ratio":1.0,"mirror":false,"chromatic_density":0.2,"complexity":0.555,"dissonance":0.1},{"voice":0,"pitch":67,"start":232.0907,"duration":0.2727,"velocity":127,"measure":107,"beat":2.5,"subject_pos":-1,"motif":"","motif_pos":-1,"best_pos":5,"similarity":0.579,"stretto":false,"stretto_voices":0,"combination":[],"aug_dim":"","rhythm_ratio":1.0,"mirror":false,"chromatic_density":0.2,"complexity":0.555,"dissonance":0.1},{"voice":0,"pitch":69,"start":232.3634,"duration":0.2727,"velocity":127,"measure":107,"beat":3.0,"subject_pos":-1,"motif":"","motif_pos":-1,"best_pos":6,"similarity":0.643,"stretto":false,"stretto_voices":0,"combination":[],"aug_dim":"","rhythm_ratio":1.0,"mirror":false,"chromatic_density":0.2,"complexity":0.555,"dissonance":0.1},{"voice":2,"pitch":63,"start":232.3634,"duration":0.5455,"velocity":127,"measure":107,"beat":3.0,"subject_pos":-1,"motif":"","motif_pos":-1,"best_pos":2,"similarity":0.507,"stretto":false,"stretto_voices":0,"combination":[],"aug_dim":"","rhythm_ratio":1.0,"mirror":false,"chromatic_density":0.2,"complexity":0.555,"dissonance":0.1},{"voice":0,"pitch":70,"start":232.6361,"duration":0.2727,"velocity":127,"measure":107,"beat":3.5,"subject_pos":-1,"motif":"","motif_pos":-1,"best_pos":5,"similarity":0.657,"stretto":false,"stretto_voices":0,"combination":[],"aug_dim":"","rhythm_ratio":1.0,"mirror":false,"chromatic_density":0.2,"complexity":0.555,"dissonance":0.1},{"voice":0,"pitch":72,"start":232.9089,"duration":0.2727,"velocity":127,"measure":107,"beat":4.0,"subject_pos":-1,"motif":"","motif_pos":-1,"best_pos":5,"similarity":0.607,"stretto":false,"stretto_voices":0,"combination":[],"aug_dim":"","rhythm_ratio":1.0,"mirror":false,"chromatic_density":0.2,"complexity":0.555,"dissonance":0.1},{"voice":1,"pitch":65,"start":232.9089,"duration":0.5455,"velocity":127,"measure":107,"beat":4.0,"subject_pos":-1,"motif":"head_inv","motif_pos":1,"best_pos":1,"similarity":1.0,"stretto":false,"stretto_voices":0,"combination":[],"aug_dim":"","rhythm_ratio":1.0,"mirror":false,"chromatic_density":0.2,"complexity":0.555,"dissonance":0.1},{"voice":2,"pitch":62,"start":232.9089,"duration":0.5455,"velocity":127,"measure":107,"beat":4.0,"subject_pos":-1,"motif":"","motif_pos":-1,"best_pos":3,"similarity":0.407,"stretto":false,"stretto_voices":0,"combination":[],"aug_dim":"","rhythm_ratio":1.0,"mirror":false,"chromatic_density":0.2,"complexity":0.555,"dissonance":0.1},{"voice":0,"pitch":74,"start":233.1816,"duration":0.2727,"velocity":127,"measure":107,"beat":4.5,"subject_pos":-1,"motif":"","motif_pos":-1,"best_pos":6,"similarity":0.661,"stretto":false,"stretto_voices":0,"combination":[],"aug_dim":"","rhythm_ratio":1.0,"mirror":false,"chromatic_density":0.2,"complexity":0.555,"dissonance":0.1},{"voice":0,"pitch":75,"start":233.4543,"duration":0.2727,"velocity":127,"measure":108,"beat":1.0,"subject_pos":-1,"motif":"","motif_pos":-1,"best_pos":5,"similarity":0.657,"stretto":false,"stretto_voices":0,"combination":[],"aug_dim":"","rhythm_ratio":1.0,"mirror":false,"chromatic_density":0.182,"complexity":0.486,"dissonance":0.117},{"voice":1,"pitch":67,"start":233.4543,"duration":0.2727,"velocity":127,"measure":108,"beat":1.0,"subject_pos":-1,"motif":"head_inv","motif_pos":2,"best_pos":2,"similarity":1.0,"stretto":false,"stretto_voices":0,"combination":[],"aug_dim":"","rhythm_ratio":1.0,"mirror":false,"chromatic_density":0.182,"complexity":0.486,"dissonance":0.117},{"voice":2,"pitch":60,"start":233.4543,"duration":1.0909,"velocity":127,"measure":108,"beat":1.0,"subject_pos":-1,"motif":"","motif_pos":-1,"best_pos":2,"similarity":0.321,"stretto":false,"stretto_voices":0,"combination":[],"aug_dim":"","rhythm_ratio":1.0,"mirror":false,"chromatic_density":0.182,"complexity":0.486,"dissonance":0.117},{"voice":0,"pitch":77,"start":233.727,"duration":0.2727,"velocity":127,"measure":108,"beat":1.5,"subject_pos":-1,"motif":"","motif_pos":-1,"best_pos":6,"similarity":0.579,"stretto":false,"stretto_voices":0,"combination":[],"aug_dim":"","rhythm_ratio":1.0,"mirror":false,"chromatic_density":0.182,"complexity":0.486,"dissonance":0.117},{"voice":1,"pitch":69,"start":233.727,"duration":0.2727,"velocity":127,"measure":108,"beat":1.5,"subject_pos":-1,"motif":"head_inv","motif_pos":3,"best_pos":3,"similarity":1.0,"stretto":false,"stretto_voices":0,"combination":[],"aug_dim":"","rhythm_ratio":1.0,"mirror":false,"chromatic_density":0.182,"complexity":0.486,"dissonance":0.117},{"voice":0,"pitch":79,"start":233.9998,"duration":0.2727,"velocity":127,"measure":108,"beat":2.0,"subject_pos":-1,"motif":"","motif_pos":-1,"best_pos":1,"similarity":0.457,"stretto":false,"stretto_voices":0,"combination":[],"aug_dim":"","rhythm_ratio":1.0,"mirror":false,"chromatic_density":0.182,"complexity":0.486,"dissonance":0.117},{"voice":1,"pitch":70,"start":233.9998,"duration":1.0909,"velocity":127,"measure":108,"beat":2.0,"subject_pos":-1,"motif":"head_inv","motif_pos":4,"best_pos":4,"similarity":1.0,"stretto":false,"stretto_voices":0,"combination":[],"aug_dim":"","rhythm_ratio":1.0,"mirror":false,"chromatic_density":0.182,"complexity":0.486,"dissonance":0.117},{"voice":0,"pitch":75,"start":234.2725,"duration":0.2727,"velocity":127,"measure":108,"beat":2.5,"subject_pos":-1,"motif":"","motif_pos":-1,"best_pos":2,"similarity":0.593,"stretto":false,"stretto_voices":0,"combination":[],"aug_dim":"","rhythm_ratio":1.0,"mirror":false,"chromatic_density":0.182,"complexity":0.486,"dissonance":0.117},{"voice":0,"pitch":72,"start":234.5452,"duration":0.2727,"velocity":127,"measure":108,"beat":3.0,"subject_pos":-1,"motif":"","motif_pos":-1,"best_pos":3,"similarity":0.521,"stretto":false,"stretto_voices":0,"combination":[],"aug_dim":"","rhythm_ratio":1.0,"mirror":false,"chromatic_density":0.182,"complexity":0.486,"dissonance":0.117},{"voice":2,"pitch":65,"start":234.5452,"duration":1.0909,"velocity":127,"measure":108,"beat":3.0,"subject_pos":-1,"motif":"","motif_pos":-1,"best_pos":1,"similarity":0.321,"stretto":false,"stretto_voices":0,"combination":[],"aug_dim":"","rhythm_ratio":1.0,"mirror":false,"chromatic_density":0.182,"complexity":0.486,"dissonance":0.117},{"voice":0,"pitch":77,"start":234.8179,"duration":0.2727,"velocity":127,"measure":108,"beat":3.5,"subject_pos":-1,"motif":"","motif_pos":-1,"best_pos":1,"similarity":0.589,"stretto":false,"stretto_voices":0,"combination":[],"aug_dim":"","rhythm_ratio":1.0,"mirror":false,"chromatic_density":0.182,"complexity":0.486,"dissonance":0.117},{"voice":0,"pitch":75,"start":235.0907,"duration":0.2727,"velocity":127,"measure":108,"beat":4.0,"subject_pos":-1,"motif":"","motif_pos":-1,"best_pos":2,"similarity":0.536,"stretto":false,"stretto_voices":0,"combination":[],"aug_dim":"","rhythm_ratio":1.0,"mirror":false,"chromatic_density":0.182,"complexity":0.486,"dissonance":0.117},{"voice":1,"pitch":69,"start":235.0907,"duration":1.0909,"velocity":127,"measure":108,"beat":4.0,"subject_pos":-1,"motif":"","motif_pos":-1,"best_pos":4,"similarity":0.357,"stretto":false,"stretto_voices":0,"combination":[],"aug_dim":"","rhythm_ratio":1.0,"mirror":false,"chromatic_density":0.182,"complexity":0.486,"dissonance":0.117},{"voice":0,"pitch":77,"start":235.3634,"duration":0.2727,"velocity":127,"measure":108,"beat":4.5,"subject_pos":-1,"motif":"","motif_pos":-1,"best_pos":3,"similarity":0.5,"stretto":false,"stretto_voices":0,"combination":[],"aug_dim":"","rhythm_ratio":1.0,"mirror":false,"chromatic_density":0.182,"complexity":0.486,"dissonance":0.117},{"voice":0,"pitch":74,"start":235.6361,"duration":0.2727,"velocity":127,"measure":109,"beat":1.0,"subject_pos":-1,"motif":"","motif_pos":-1,"best_pos":4,"similarity":0.579,"stretto":false,"stretto_voices":0,"combination":[],"aug_dim":"","rhythm_ratio":1.0,"mirror":false,"chromatic_density":0.188,"complexity":0.51,"dissonance":0.075},{"voice":2,"pitch":58,"start":235.6361,"duration":0.2727,"velocity":127,"measure":109,"beat":1.0,"subject_pos":-1,"motif":"","motif_pos":-1,"best_pos":5,"similarity":0.393,"stretto":false,"stretto_voices":0,"combination":[],"aug_dim":"","rhythm_ratio":1.0,"mirror":false,"chromatic_density":0.188,"complexity":0.51,"dissonance":0.075},{"voice":0,"pitch":75,"start":235.9089,"duration":0.2727,"velocity":127,"measure":109,"beat":1.5,"subject_pos":-1,"motif":"","motif_pos":-1,"best_pos":5,"similarity":0.621,"stretto":false,"stretto_voices":0,"combination":[],"aug_dim":"","rhythm_ratio":1.0,"mirror":false,"chromatic_density":0.188,"complexity":0.51,"dissonance":0.075},{"voice":2,"pitch":60,"start":235.9089,"duration":0.2727,"velocity":127,"measure":109,"beat":1.5,"subject_pos":-1,"motif":"","motif_pos":-1,"best_pos":5,"similarity":0.429,"stretto":false,"stretto_voices":0,"combination":[],"aug_dim":"","rhythm_ratio":1.0,"mirror":false,"chromatic_density":0.188,"complexity":0.51,"dissonance":0.075},{"voice":0,"pitch":77,"start":236.1816,"duration":0.2727,"velocity":127,"measure":109,"beat":2.0,"subject_pos":-1,"motif":"","motif_pos":-1,"best_pos":6,"similarity":0.475,"stretto":false,"stretto_voices":0,"combination":[],"aug_dim":"","rhythm_ratio":1.0,"mirror":false,"chromatic_density":0.188,"complexity":0.51,"dissonance":0.075},{"voice":1,"pitch":62,"start":236.1816,"duration":0.5455,"velocity":127,"measure":109,"beat":2.0,"subject_pos":-1,"motif":"","motif_pos":-1,"best_pos":0,"similarity":0.307,"stretto":false,"stretto_voices":0,"combination":[],"aug_dim":"","rhythm_ratio":1.0,"mirror":false,"chromatic_density":0.188,"complexity":0.51,"dissonance":0.075},{"voice":2,"pitch":62,"start":236.1816,"duration":0.2727,"velocity":127,"measure":109,"beat":2.0,"subject_pos":-1,"motif":"","motif_pos":-1,"best_pos":1,"similarity":0.386,"stretto":false,"stretto_voices":0,"combination":[],"aug_dim":"","rhythm_ratio":1.0,"mirror":false,"chromatic_density":0.188,"complexity":0.51,"dissonance":0.075},{"voice":0,"pitch":74,"start":236.4543,"duration":0.2727,"velocity":127,"measure":109,"beat":2.5,"subject_pos":-1,"motif":"","motif_pos":-1,"best_pos":1,"similarity":0.429,"stretto":false,"stretto_voices":0,"combination":[],"aug_dim":"","rhythm_ratio":1.0,"mirror":false,"chromatic_density":0.188,"complexity":0.51,"dissonance":0.075},{"voice":2,"pitch":58,"start":236.4543,"duration":0.2727,"velocity":127,"measure":109,"beat":2.5,"subject_pos":-1,"motif":"","motif_pos":-1,"best_pos":2,"similarity":0.45,"stretto":false,"stretto_voices":0,"combination":[],"aug_dim":"","rhythm_ratio":1.0,"mirror":false,"chromatic_density":0.188,"complexity":0.51,"dissonance":0.075},{"voice":0,"pitch":70,"start":236.727,"duration":0.2727,"velocity":127,"measure":109,"beat":3.0,"subject_pos":-1,"motif":"","motif_pos":-1,"best_pos":2,"similarity":0.607,"stretto":false,"stretto_voices":0,"combination":[],"aug_dim":"","rhythm_ratio":1.0,"mirror":false,"chromatic_density":0.188,"complexity":0.51,"dissonance":0.075},{"voice":2,"pitch":63,"start":236.727,"duration":0.2727,"velocity":127,"measure":109,"beat":3.0,"subject_pos":-1,"motif":"","motif_pos":-1,"best_pos":1,"similarity":0.536,"stretto":false,"stretto_voices":0,"combination":[],"aug_dim":"","rhythm_ratio":1.0,"mirror":false,"chromatic_density":0.188,"complexity":0.51,"dissonance":0.075},{"voice":0,"pitch":67,"start":236.9998,"duration":0.2727,"velocity":127,"measure":109,"beat":3.5,"subject_pos":-1,"motif":"","motif_pos":-1,"best_pos":3,"similarity":0.507,"stretto":false,"stretto_voices":0,"combination":[],"aug_dim":"","rhythm_ratio":1.0,"mirror":false,"chromatic_density":0.188,"complexity":0.51,"dissonance":0.075},{"voice":1,"pitch":67,"start":236.9998,"duration":0.2727,"velocity":127,"measure":109,"beat":3.5,"subject_pos":-1,"motif":"","motif_pos":-1,"best_pos":5,"similarity":0.475,"stretto":false,"stretto_voices":0,"combination":[],"aug_dim":"","rhythm_ratio":1.0,"mirror":false,"chromatic_density":0.188,"complexity":0.51,"dissonance":0.075},{"voice":2,"pitch":62,"start":236.9998,"duration":0.2727,"velocity":127,"measure":109,"beat":3.5,"subject_pos":-1,"motif":"","motif_pos":-1,"best_pos":2,"similarity":0.518,"stretto":false,"stretto_voices":0,"combination":[],"aug_dim":"","rhythm_ratio":1.0,"mirror":false,"chromatic_density":0.188,"complexity":0.51,"dissonance":0.075},{"voice":0,"pitch":79,"start":237.2725,"duration":1.0909,"velocity":127,"measure":109,"beat":4.0,"subject_pos":-1,"motif":"","motif_pos":-1,"best_pos":4,"similarity":0.443,"stretto":false,"stretto_voices":0,"combination":[],"aug_dim":"","rhythm_ratio":1.0,"mirror":false,"chromatic_density":0.188,"complexity":0.51,"dissonance":0.075},{"voice":1,"pitch":69,"start":237.2725,"duration":0.2727,"velocity":127,"measure":109,"beat":4.0,"subject_pos":-1,"motif":"","motif_pos":-1,"best_pos":6,"similarity":0.586,"stretto":false,"stretto_voices":0,"combination":[],"aug_dim":"","rhythm_ratio":1.0,"mirror":false,"chromatic_density":0.188,"complexity":0.51,"dissonance":0.075},{"voice":2,"pitch":60,"start":237.2725,"duration":0.2727,"velocity":127,"measure":109,"beat":4.0,"subject_pos":-1,"motif":"","motif_pos":-1,"best_pos":2,"similarity":0.643,"stretto":false,"stretto_voices":0,"combination":[],"aug_dim":"","rhythm_ratio":1.0,"mirror":false,"chromatic_density":0.188,"complexity":0.51,"dissonance":0.075},{"voice":1,"pitch":70,"start":237.5452,"duration":0.2727,"velocity":127,"measure":109,"beat":4.5,"subject_pos":-1,"motif":"","motif_pos":-1,"best_pos":5,"similarity":0.657,"stretto":false,"stretto_voices":0,"combination":[],"aug_dim":"","rhythm_ratio":1.0,"mirror":false,"chromatic_density":0.188,"complexity":0.51,"dissonance":0.075},{"voice":2,"pitch":58,"start":237.5452,"duration":0.2727,"velocity":127,"measure":109,"beat":4.5,"subject_pos":-1,"motif":"","motif_pos":-1,"best_pos":3,"similarity":0.786,"stretto":false,"stretto_voices":0,"combination":[],"aug_dim":"","rhythm_ratio":1.0,"mirror":false,"chromatic_density":0.188,"complexity":0.51,"dissonance":0.075},{"voice":1,"pitch":72,"start":237.8179,"duration":0.2727,"velocity":127,"measure":110,"beat":1.0,"subject_pos":-1,"motif":"","motif_pos":-1,"best_pos":5,"similarity":0.607,"stretto":false,"stretto_voices":0,"combination":[],"aug_dim":"","rhythm_ratio":1.0,"mirror":false,"chromatic_density":0.231,"complexity":0.47,"dissonance":0.075},{"voice":2,"pitch":57,"start":237.8179,"duration":0.2727,"velocity":127,"measure":110,"beat":1.0,"subject_pos":-1,"motif":"","motif_pos":-1,"best_pos":4,"similarity":0.864,"stretto":false,"stretto_voices":0,"combination":[],"aug_dim":"","rhythm_ratio":1.0,"mirror":false,"chromatic_density":0.231,"complexity":0.47,"dissonance":0.075},{"voice":1,"pitch":74,"start":238.0907,"duration":0.2727,"velocity":127,"measure":110,"beat":1.5,"subject_pos":-1,"motif":"","motif_pos":-1,"best_pos":6,"similarity":0.661,"stretto":false,"stretto_voices":0,"combination":[],"aug_dim":"","rhythm_ratio":1.0,"mirror":false,"chromatic_density":0.231,"complexity":0.47,"dissonance":0.075},{"voice":2,"pitch":58,"start":238.0907,"duration":0.2727,"velocity":127,"measure":110,"beat":1.5,"subject_pos":-1,"motif":"","motif_pos":-1,"best_pos":5,"similarity":0.764,"stretto":false,"stretto_voices":0,"combination":[],"aug_dim":"","rhythm_ratio":1.0,"mirror":false,"chromatic_density":0.231,"complexity":0.47,"dissonance":0.075},{"voice":0,"pitch":79,"start":238.3634,"duration":1.0909,"velocity":127,"measure":110,"beat":2.0,"subject_pos":-1,"motif":"","motif_pos":-1,"best_pos":3,"similarity":0.464,"stretto":false,"stretto_voices":0,"combination":[],"aug_dim":"","rhythm_ratio":1.0,"mirror":false,"chromatic_density":0.231,"complexity":0.47,"dissonance":0.075},{"voice":1,"pitch":75,"start":238.3634,"duration":0.2727,"velocity":127,"measure":110,"beat":2.0,"subject_pos":-1,"motif":"","motif_pos":-1,"best_pos":7,"similarity":0.464,"stretto":false,"stretto_voices":0,"combination":[],"aug_dim":"","rhythm_ratio":1.0,"mirror":false,"chromatic_density":0.231,"complexity":0.47,"dissonance":0.075},{"voice":2,"pitch":60,"start":238.3634,"duration":0.2727,"velocity":127,"measure":110,"beat":2.0,"subject_pos":-1,"motif":"","motif_pos":-1,"best_pos":6,"similarity":0.529,"stretto":false,"stretto_voices":0,"combination":[],"aug_dim":"","rhythm_ratio":1.0,"mirror":false,"chromatic_density":0.231,"complexity":0.47,"dissonance":0.075},{"voice":1,"pitch":72,"start":238.6361,"duration":0.2727,"velocity":127,"measure":110,"beat":2.5,"subject_pos":-1,"motif":"","motif_pos":-1,"best_pos":2,"similarity":0.45,"stretto":false,"stretto_voices":0,"combination":[],"aug_dim":"","rhythm_ratio":1.0,"mirror":false,"chromatic_density":0.231,"complexity":0.47,"dissonance":0.075},{"voice":2,"pitch":57,"start":238.6361,"duration":0.2727,"velocity":127,"measure":110,"beat":2.5,"subject_pos":-1,"motif":"","motif_pos":-1,"best_pos":3,"similarity":0.314,"stretto":false,"stretto_voices":0,"combination":[],"aug_dim":"","rhythm_ratio":1.0,"mirror":false,"chromatic_density":0.231,"complexity":0.47,"dissonance":0.075},{"voice":1,"pitch":69,"start":238.9089,"duration":0.2727,"velocity":127,"measure":110,"beat":3.0,"subject_pos":-1,"motif":"","motif_pos":-1,"best_pos":3,"similarity":0.45,"stretto":false,"stretto_voices":0,"combination":[],"aug_dim":"","rhythm_ratio":1.0,"mirror":false,"chromatic_density":0.231,"complexity":0.47,"dissonance":0.075},{"voice":2,"pitch":62,"start":238.9089,"duration":0.5455,"velocity":127,"measure":110,"beat":3.0,"subject_pos":-1,"motif":"","motif_pos":-1,"best_pos":1,"similarity":0.286,"stretto":false,"stretto_voices":0,"combination":[],"aug_dim":"","rhythm_ratio":1.0,"mirror":false,"chromatic_density":0.231,"complexity":0.47,"dissonance":0.075},{"voice":1,"pitch":74,"start":239.1816,"duration":0.2727,"velocity":127,"measure":110,"beat":3.5,"subject_pos":-1,"motif":"","motif_pos":-1,"best_pos":1,"similarity":0.579,"stretto":false,"stretto_voices":0,"combination":[],"aug_dim":"","rhythm_ratio":1.0,"mirror":false,"chromatic_density":0.231,"complexity":0.47,"dissonance":0.075},{"voice":0,"pitch":78,"start":239.4543,"duration":0.5455,"velocity":127,"measure":110,"beat":4.0,"subject_pos":-1,"motif":"","motif_pos":-1,"best_pos":4,"similarity":0.607,"stretto":false,"stretto_voices":0,"combination":[],"aug_dim":"","rhythm_ratio":1.0,"mirror":false,"chromatic_density":0.231,"complexity":0.47,"dissonance":0.075},{"voice":1,"pitch":72,"start":239.4543,"duration":0.2727,"velocity":127,"measure":110,"beat":4.0,"subject_pos":-1,"motif":"","motif_pos":-1,"best_pos":2,"similarity":0.461,"stretto":false,"stretto_voices":0,"combination":[],"aug_dim":"","rhythm_ratio":1.0,"mirror":false,"chromatic_density":0.231,"complexity":0.47,"dissonance":0.075},{"voice":2,"pitch":50,"start":239.4543,"duration":0.5455,"velocity":127,"measure":110,"beat":4.0,"subject_pos":-1,"motif":"","motif_pos":-1,"best_pos":0,"similarity":0.321,"stretto":false,"stretto_voices":0,"combination":[],"aug_dim":"","rhythm_ratio":1.0,"mirror":false,"chromatic_density":0.231,"complexity":0.47,"dissonance":0.075},{"voice":1,"pitch":74,"start":239.727,"duration":0.2727,"velocity":127,"measure":110,"beat":4.5,"subject_pos":-1,"motif":"","motif_pos":-1,"best_pos":2,"similarity":0.386,"stretto":false,"stretto_voices":0,"combination":[],"aug_dim":"","rhythm_ratio":1.0,"mirror":false,"chromatic_density":0.231,"complexity":0.47,"dissonance":0.075},{"voice":0,"pitch":79,"start":239.9998,"duration":0.2727,"velocity":127,"measure":111,"beat":1.0,"subject_pos":-1,"motif":"","motif_pos":-1,"best_pos":5,"similarity":0.479,"stretto":false,"stretto_voices":0,"combination":[],"aug_dim":"","rhythm_ratio":1.0,"mirror":false,"chromatic_density":0.545,"complexity":0.439,"dissonance":0.075},{"voice":1,"pitch":70,"start":239.9998,"duration":1.0909,"velocity":127,"measure":111,"beat":1.0,"subject_pos":-1,"motif":"","motif_pos":-1,"best_pos":3,"similarity":0.593,"stretto":false,"stretto_voices":0,"combination":[],"aug_dim":"","rhythm_ratio":1.0,"mirror":false,"chromatic_density":0.545,"complexity":0.439,"dissonance":0.075},{"voice":2,"pitch":55,"start":239.9998,"duration":0.5455,"velocity":127,"measure":111,"beat":1.0,"subject_pos":-1,"motif":"","motif_pos":-1,"best_pos":1,"similarity":0.429,"stretto":false,"stretto_voices":0,"combination":[],"aug_dim":"","rhythm_ratio":1.0,"mirror":false,"chromatic_density":0.545,"complexity":0.439,"dissonance":0.075},{"voice":0,"pitch":77,"start":240.2725,"duration":0.2727,"velocity":127,"measure":111,"beat":1.5,"subject_pos":-1,"motif":"","motif_pos":-1,"best_pos":2,"similarity":0.604,"stretto":false,"stretto_voices":0,"combination":[],"aug_dim":"","rhythm_ratio":1.0,"mirror":false,"chromatic_density":0.545,"complexity":0.439,"dissonance":0.075},{"voice":0,"pitch":75,"start":240.5452,"duration":0.2727,"velocity":127,"measure":111,"beat":2.0,"subject_pos":-1,"motif":"","motif_pos":-1,"best_pos":3,"similarity":0.65,"stretto":false,"stretto_voices":0,"combination":[],"aug_dim":"","rhythm_ratio":1.0,"mirror":false,"chromatic_density":0.545,"complexity":0.439,"dissonance":0.075},{"voice":2,"pitch":67,"start":240.5452,"duration":0.8182,"velocity":127,"measure":111,"beat":2.0,"subject_pos":-1,"motif":"","motif_pos":-1,"best_pos":2,"similarity":0.436,"stretto":false,"stretto_voices":0,"combination":[],"aug_dim":"","rhythm_ratio":1.0,"mirror":false,"chromatic_density":0.545,"complexity":0.439,"dissonance":0.075},{"voice":0,"pitch":74,"start":240.8179,"duration":0.2727,"velocity":127,"measure":111,"beat":2.5,"subject_pos":-1,"motif":"","motif_pos":-1,"best_pos":3,"similarity":0.714,"stretto":false,"stretto_voices":0,"combination":[],"aug_dim":"","rhythm_ratio":1.0,"mirror":false,"chromatic_density":0.545,"complexity":0.439,"dissonance":0.075},{"voice":0,"pitch":73,"start":241.0907,"duration":0.5455,"velocity":127,"measure":111,"beat":3.0,"subject_pos":-1,"motif":"","motif_pos":-1,"best_pos":4,"similarity":0.821,"stretto":false,"stretto_voices":0,"combination":[],"aug_dim":"","rhythm_ratio":1.0,"mirror":false,"chromatic_density":0.545,"complexity":0.439,"dissonance":0.075},{"voice":1,"pitch":69,"start":241.0907,"duration":0.5455,"velocity":127,"measure":111,"beat":3.0,"subject_pos":-1,"motif":"","motif_pos":-1,"best_pos":4,"similarity":0.671,"stretto":false,"stretto_voices":0,"combination":[],"aug_dim":"","rhythm_ratio":1.0,"mirror":false,"chromatic_density":0.545,"complexity":0.439,"dissonance":0.075},{"voice":2,"pitch":65,"start":241.3634,"duration":0.2727,"velocity":127,"measure":111,"beat":3.5,"subject_pos":-1,"motif":"","motif_pos":-1,"best_pos":3,"similarity":0.521,"stretto":false,"stretto_voices":0,"combination":[],"aug_dim":"","rhythm_ratio":1.0,"mirror":false,"chromatic_density":0.545,"complexity":0.439,"dissonance":0.075},{"voice":0,"pitch":74,"start":241.6361,"duration":0.5455,"velocity":127,"measure":111,"beat":4.0,"subject_pos":-1,"motif":"","motif_pos":-1,"best_pos":5,"similarity":0.732,"stretto":false,"stretto_voices":0,"combination":[],"aug_dim":"","rhythm_ratio":1.0,"mirror":false,"chromatic_density":0.545,"complexity":0.439,"dissonance":0.075},{"voice":1,"pitch":70,"start":241.6361,"duration":0.8182,"velocity":127,"measure":111,"beat":4.0,"subject_pos":-1,"motif":"","motif_pos":-1,"best_pos":5,"similarity":0.507,"stretto":false,"stretto_voices":0,"combination":[],"aug_dim":"","rhythm_ratio":1.0,"mirror":false,"chromatic_density":0.545,"complexity":0.439,"dissonance":0.075},{"voice":2,"pitch":64,"start":241.6361,"duration":0.2727,"velocity":127,"measure":111,"beat":4.0,"subject_pos":-1,"motif":"","motif_pos":-1,"best_pos":2,"similarity":0.5,"stretto":false,"stretto_voices":0,"combination":[],"aug_dim":"","rhythm_ratio":1.0,"mirror":false,"chromatic_density":0.545,"complexity":0.439,"dissonance":0.075},{"voice":2,"pitch":62,"start":241.9088,"duration":0.2727,"velocity":127,"measure":111,"beat":4.5,"subject_pos":-1,"motif":"","motif_pos":-1,"best_pos":3,"similarity":0.714,"stretto":false,"stretto_voices":0,"combination":[],"aug_dim":"","rhythm_ratio":1.0,"mirror":false,"chromatic_density":0.545,"complexity":0.439,"dissonance":0.075},{"voice":0,"pitch":76,"start":242.1816,"duration":1.3636,"velocity":127,"measure":112,"beat":1.0,"subject_pos":-1,"motif":"","motif_pos":-1,"best_pos":6,"similarity":0.5,"stretto":false,"stretto_voices":0,"combination":[],"aug_dim":"","rhythm_ratio":1.0,"mirror":false,"chromatic_density":0.231,"complexity":0.466,"dissonance":0.091},{"voice":2,"pitch":61,"start":242.1816,"duration":0.2727,"velocity":127,"measure":112,"beat":1.0,"subject_pos":-1,"motif":"","motif_pos":-1,"best_pos":4,"similarity":0.829,"stretto":false,"stretto_voices":0,"combination":[],"aug_dim":"","rhythm_ratio":1.0,"mirror":false,"chromatic_density":0.231,"complexity":0.466,"dissonance":0.091},{"voice":1,"pitch":69,"start":242.4543,"duration":0.2727,"velocity":127,"measure":112,"beat":1.5,"subject_pos":-1,"motif":"","motif_pos":-1,"best_pos":4,"similarity":0.507,"stretto":false,"stretto_voices":0,"combination":[],"aug_dim":"","rhythm_ratio":1.0,"mirror":false,"chromatic_density":0.231,"complexity":0.466,"dissonance":0.091},{"voice":2,"pitch":62,"start":242.4543,"duration":0.2727,"velocity":127,"measure":112,"beat":1.5,"subject_pos":-1,"motif":"","motif_pos":-1,"best_pos":5,"similarity":0.764,"stretto":false,"stretto_voices":0,"combination":[],"aug_dim":"","rhythm_ratio":1.0,"mirror":false,"chromatic_density":0.231,"complexity":0.466,"dissonance":0.091},{"voice":1,"pitch":67,"start":242.727,"duration":0.2727,"velocity":127,"measure":112,"beat":2.0,"subject_pos":-1,"motif":"","motif_pos":-1,"best_pos":5,"similarity":0.464,"stretto":false,"stretto_voices":0,"combination":[],"aug_dim":"","rhythm_ratio":1.0,"mirror":false,"chromatic_density":0.231,"complexity":0.466,"dissonance":0.091},{"voice":2,"pitch":64,"start":242.727,"duration":0.2727,"velocity":127,"measure":112,"beat":2.0,"subject_pos":-1,"motif":"","motif_pos":-1,"best_pos":6,"similarity":0.529,"stretto":false,"stretto_voices":0,"combination":[],"aug_dim":"","rhythm_ratio":1.0,"mirror":false,"chromatic_density":0.231,"complexity":0.466,"dissonance":0.091},{"voice":1,"pitch":69,"start":242.9998,"duration":0.2727,"velocity":127,"measure":112,"beat":2.5,"subject_pos":-1,"motif":"","motif_pos":-1,"best_pos":6,"similarity":0.371,"stretto":false,"stretto_voices":0,"combination":[],"aug_dim":"","rhythm_ratio":1.0,"mirror":false,"chromatic_density":0.231,"complexity":0.466,"dissonance":0.091},{"voice":2,"pitch":61,"start":242.9998,"duration":0.2727,"velocity":127,"measure":112,"beat":2.5,"subject_pos":-1,"motif":"","motif_pos":-1,"best_pos":3,"similarity":0.4,"stretto":false,"stretto_voices":0,"combination":[],"aug_dim":"","rhythm_ratio":1.0,"mirror":false,"chromatic_density":0.231,"complexity":0.466,"dissonance":0.091},{"voice":1,"pitch":65,"start":243.2725,"duration":1.3636,"velocity":127,"measure":112,"beat":3.0,"subject_pos":-1,"motif":"","motif_pos":-1,"best_pos":2,"similarity":0.379,"stretto":false,"stretto_voices":0,"combination":[],"aug_dim":"","rhythm_ratio":1.0,"mirror":false,"chromatic_density":0.231,"complexity":0.466,"dissonance":0.091},{"voice":2,"pitch":62,"start":243.2725,"duration":0.2727,"velocity":127,"measure":112,"beat":3.0,"subject_pos":-1,"motif":"","motif_pos":-1,"best_pos":1,"similarity":0.457,"stretto":false,"stretto_voices":0,"combination":[],"aug_dim":"","rhythm_ratio":1.0,"mirror":false,"chromatic_density":0.231,"complexity":0.466,"dissonance":0.091},{"voice":0,"pitch":69,"start":243.5452,"duration":0.2727,"velocity":127,"measure":112,"beat":3.5,"subject_pos":-1,"motif":"","motif_pos":-1,"best_pos":0,"similarity":0.464,"stretto":false,"stretto_voices":0,"combination":[],"aug_dim":"","rhythm_ratio":1.0,"mirror":false,"chromatic_density":0.231,"complexity":0.466,"dissonance":0.091},{"voice":2,"pitch":60,"start":243.5452,"duration":0.2727,"velocity":127,"measure":112,"beat":3.5,"subject_pos":-1,"motif":"","motif_pos":-1,"best_pos":2,"similarity":0.593,"stretto":false,"stretto_voices":0,"combination":[],"aug_dim":"","rhythm_ratio":1.0,"mirror":false,"chromatic_density":0.231,"complexity":0.466,"dissonance":0.091},{"voice":0,"pitch":74,"start":243.8179,"duration":0.2727,"velocity":127,"measure":112,"beat":4.0,"subject_pos":-1,"motif":"","motif_pos":-1,"best_pos":1,"similarity":0.679,"stretto":false,"stretto_voices":0,"combination":[],"aug_dim":"","rhythm_ratio":1.0,"mirror":false,"chromatic_density":0.231,"complexity":0.466,"dissonance":0.091},{"voice":2,"pitch":58,"start":243.8179,"duration":0.2727,"velocity":127,"measure":112,"beat":4.0,"subject_pos":-1,"motif":"","motif_pos":-1,"best_pos":3,"similarity":0.593,"stretto":false,"stretto_voices":0,"combination":[],"aug_dim":"","rhythm_ratio":1.0,"mirror":false,"chromatic_density":0.231,"complexity":0.466,"dissonance":0.091},{"voice":0,"pitch":72,"start":244.0907,"duration":0.2727,"velocity":127,"measure":112,"beat":4.5,"subject_pos":-1,"motif":"","motif_pos":-1,"best_pos":2,"similarity":0.661,"stretto":false,"stretto_voices":0,"combination":[],"aug_dim":"","rhythm_ratio":1.0,"mirror":false,"chromatic_density":0.231,"complexity":0.466,"dissonance":0.091},{"voice":2,"pitch":57,"start":244.0907,"duration":0.2727,"velocity":127,"measure":112,"beat":4.5,"subject_pos":-1,"motif":"","motif_pos":-1,"best_pos":4,"similarity":0.493,"stretto":false,"stretto_voices":0,"combination":[],"aug_dim":"","rhythm_ratio":1.0,"mirror":false,"chromatic_density":0.231,"complexity":0.466,"dissonance":0.091},{"voice":0,"pitch":70,"start":244.3634,"duration":2.4545,"velocity":127,"measure":113,"beat":1.0,"subject_pos":-1,"motif":"","motif_pos":-1,"best_pos":3,"similarity":0.543,"stretto":false,"stretto_voices":0,"combination":[],"aug_dim":"","rhythm_ratio":1.0,"mirror":false,"chromatic_density":0.273,"complexity":0.525,"dissonance":0.2},{"voice":2,"pitch":55,"start":244.3634,"duration":0.2727,"velocity":127,"measure":113,"beat":1.0,"subject_pos":-1,"motif":"head_inv","motif_pos":0,"best_pos":0,"similarity":1.0,"stretto":false,"stretto_voices":0,"combination":[],"aug_dim":"","rhythm_ratio":1.0,"mirror":false,"chromatic_density":0.273,"complexity":0.525,"dissonance":0.2},{"voice":1,"pitch":69,"start":244.6361,"duration":0.2727,"velocity":127,"measure":113,"beat":1.5,"subject_pos":-1,"motif":"","motif_pos":-1,"best_pos":1,"similarity":0.571,"stretto":false,"stretto_voices":0,"combination":[],"aug_dim":"","rhythm_ratio":1.0,"mirror":false,"chromatic_density":0.273,"complexity":0.525,"dissonance":0.2},{"voice":2,"pitch":50,"start":244.6361,"duration":0.2727,"velocity":127,"measure":113,"beat":1.5,"subject_pos":-1,"motif":"head_inv","motif_pos":1,"best_pos":1,"similarity":1.0,"stretto":false,"stretto_voices":0,"combination":[],"aug_dim":"","rhythm_ratio":1.0,"mirror":false,"chromatic_density":0.273,"complexity":0.525,"dissonance":0.2},{"voice":1,"pitch":67,"start":244.9088,"duration":0.2727,"velocity":127,"measure":113,"beat":2.0,"subject_pos":-1,"motif":"","motif_pos":-1,"best_pos":2,"similarity":0.65,"stretto":false,"stretto_voices":0,"combination":[],"aug_dim":"","rhythm_ratio":1.0,"mirror":false,"chromatic_density":0.273,"complexity":0.525,"dissonance":0.2},{"voice":2,"pitch":52,"start":244.9088,"duration":0.2727,"velocity":127,"measure":113,"beat":2.0,"subject_pos":-1,"motif":"head_inv","motif_pos":2,"best_pos":2,"similarity":1.0,"stretto":false,"stretto_voices":0,"combination":[],"aug_dim":"","rhythm_ratio":1.0,"mirror":false,"chromatic_density":0.273,"complexity":0.525,"dissonance":0.2},{"voice":1,"pitch":65,"start":245.1816,"duration":0.2727,"velocity":127,"measure":113,"beat":2.5,"subject_pos":-1,"motif":"","motif_pos":-1,"best_pos":3,"similarity":0.629,"stretto":false,"stretto_voices":0,"combination":[],"aug_dim":"","rhythm_ratio":1.0,"mirror":false,"chromatic_density":0.273,"complexity":0.525,"dissonance":0.2},{"voice":2,"pitch":53,"start":245.1816,"duration":0.2727,"velocity":127,"measure":113,"beat":2.5,"subject_pos":-1,"motif":"head_inv","motif_pos":3,"best_pos":3,"similarity":1.0,"stretto":false,"stretto_voices":0,"combination":[],"aug_dim":"","rhythm_ratio":1.0,"mirror":false,"chromatic_density":0.273,"complexity":0.525,"dissonance":0.2},{"voice":1,"pitch":64,"start":245.4543,"duration":0.5455,"velocity":127,"measure":113,"beat":3.0,"subject_pos":-1,"motif":"","motif_pos":-1,"best_pos":4,"similarity":0.543,"stretto":false,"stretto_voices":0,"combination":[],"aug_dim":"","rhythm_ratio":1.0,"mirror":false,"chromatic_density":0.273,"complexity":0.525,"dissonance":0.2},{"voice":2,"pitch":55,"start":245.4543,"duration":0.2727,"velocity":127,"measure":113,"beat":3.0,"subject_pos":-1,"motif":"head_inv","motif_pos":4,"best_pos":4,"similarity":1.0,"stretto":false,"stretto_voices":0,"combination":[],"aug_dim":"","rhythm_ratio":1.0,"mirror":false,"chromatic_density":0.273,"complexity":0.525,"dissonance":0.2},{"voice":2,"pitch":57,"start":245.727,"duration":0.2727,"velocity":127,"measure":113,"beat":3.5,"subject_pos":-1,"motif":"","motif_pos":-1,"best_pos":6,"similarity":0.661,"stretto":false,"stretto_voices":0,"combination":[],"aug_dim":"","rhythm_ratio":1.0,"mirror":false,"chromatic_density":0.273,"complexity":0.525,"dissonance":0.2},{"voice":1,"pitch":62,"start":245.9998,"duration":0.5455,"velocity":127,"measure":113,"beat":4.0,"subject_pos":-1,"motif":"","motif_pos":-1,"best_pos":3,"similarity":0.714,"stretto":false,"stretto_voices":0,"combination":[],"aug_dim":"","rhythm_ratio":1.0,"mirror":false,"chromatic_density":0.273,"complexity":0.525,"dissonance":0.2},{"voice":2,"pitch":58,"start":245.9998,"duration":0.2727,"velocity":127,"measure":113,"beat":4.0,"subject_pos":-1,"motif":"","motif_pos":-1,"best_pos":7,"similarity":0.464,"stretto":false,"stretto_voices":0,"combination":[],"aug_dim":"","rhythm_ratio":1.0,"mirror":false,"chromatic_density":0.273,"complexity":0.525,"dissonance":0.2},{"voice":2,"pitch":55,"start":246.2725,"duration":0.2727,"velocity":127,"measure":113,"beat":4.5,"subject_pos":-1,"motif":"","motif_pos":-1,"best_pos":3,"similarity":0.443,"stretto":false,"stretto_voices":0,"combination":[],"aug_dim":"","rhythm_ratio":1.0,"mirror":false,"chromatic_density":0.273,"complexity":0.525,"dissonance":0.2},{"voice":1,"pitch":61,"start":246.5452,"duration":0.2727,"velocity":127,"measure":114,"beat":1.0,"subject_pos":-1,"motif":"","motif_pos":-1,"best_pos":4,"similarity":0.857,"stretto":false,"stretto_voices":0,"combination":[],"aug_dim":"","rhythm_ratio":1.0,"mirror":false,"chromatic_density":0.333,"complexity":0.443,"dissonance":0.159},{"voice":2,"pitch":57,"start":246.5452,"duration":2.1818,"velocity":127,"measure":114,"beat":1.0,"subject_pos":-1,"motif":"","motif_pos":-1,"best_pos":6,"similarity":0.461,"stretto":false,"stretto_voices":0,"combination":[],"aug_dim":"","rhythm_ratio":1.0,"mirror":false,"chromatic_density":0.333,"complexity":0.443,"dissonance":0.159},{"voice":0,"pitch":70,"start":246.8179,"duration":0.2727,"velocity":127,"measure":114,"beat":1.5,"subject_pos":-1,"motif":"","motif_pos":-1,"best_pos":3,"similarity":0.479,"stretto":false,"stretto_voices":0,"combination":[],"aug_dim":"","rhythm_ratio":1.0,"mirror":false,"chromatic_density":0.333,"complexity":0.443,"dissonance":0.159},{"voice":1,"pitch":62,"start":246.8179,"duration":0.2727,"velocity":127,"measure":114,"beat":1.5,"subject_pos":-1,"motif":"","motif_pos":-1,"best_pos":5,"similarity":0.821,"stretto":false,"stretto_voices":0,"combination":[],"aug_dim":"","rhythm_ratio":1.0,"mirror":false,"chromatic_density":0.333,"complexity":0.443,"dissonance":0.159},{"voice":0,"pitch":69,"start":247.0907,"duration":0.2727,"velocity":127,"measure":114,"beat":2.0,"subject_pos":-1,"motif":"","motif_pos":-1,"best_pos":4,"similarity":0.45,"stretto":false,"stretto_voices":0,"combination":[],"aug_dim":"","rhythm_ratio":1.0,"mirror":false,"chromatic_density":0.333,"complexity":0.443,"dissonance":0.159},{"voice":1,"pitch":64,"start":247.0907,"duration":0.8182,"velocity":127,"measure":114,"beat":2.0,"subject_pos":-1,"motif":"","motif_pos":-1,"best_pos":6,"similarity":0.643,"stretto":false,"stretto_voices":0,"combination":[],"aug_dim":"","rhythm_ratio":1.0,"mirror":false,"chromatic_density":0.333,"complexity":0.443,"dissonance":0.159},{"voice":0,"pitch":67,"start":247.3634,"duration":0.2727,"velocity":127,"measure":114,"beat":2.5,"subject_pos":-1,"motif":"","motif_pos":-1,"best_pos":2,"similarity":0.518,"stretto":false,"stretto_voices":0,"combination":[],"aug_dim":"","rhythm_ratio":1.0,"mirror":false,"chromatic_density":0.333,"complexity":0.443,"dissonance":0.159},{"voice":0,"pitch":65,"start":247.6361,"duration":0.8182,"velocity":127,"measure":114,"beat":3.0,"subject_pos":-1,"motif":"","motif_pos":-1,"best_pos":3,"similarity":0.471,"stretto":false,"stretto_voices":0,"combination":[],"aug_dim":"","rhythm_ratio":1.0,"mirror":false,"chromatic_density":0.333,"complexity":0.443,"dissonance":0.159},{"voice":1,"pitch":64,"start":247.9088,"duration":0.2727,"velocity":127,"measure":114,"beat":3.5,"subject_pos":-1,"motif":"","motif_pos":-1,"best_pos":2,"similarity":0.443,"stretto":false,"stretto_voices":0,"combination":[],"aug_dim":"","rhythm_ratio":1.0,"mirror":false,"chromatic_density":0.333,"complexity":0.443,"dissonance":0.159},{"voice":1,"pitch":62,"start":248.1816,"duration":1.0909,"velocity":127,"measure":114,"beat":4.0,"subject_pos":-1,"motif":"","motif_pos":-1,"best_pos":3,"similarity":0.614,"stretto":false,"stretto_voices":0,"combination":[],"aug_dim":"","rhythm_ratio":1.0,"mirror":false,"chromatic_density":0.333,"complexity":0.443,"dissonance":0.159},{"voice":0,"pitch":65,"start":248.4543,"duration":0.2727,"velocity":127,"measure":114,"beat":4.5,"subject_pos":-1,"motif":"enigmatic_cell","motif_pos":0,"best_pos":0,"similarity":1.0,"stretto":false,"stretto_voices":0,"combination":[],"aug_dim":"","rhythm_ratio":1.0,"mirror":false,"chromatic_density":0.333,"complexity":0.443,"dissonance":0.159},{"voice":0,"pitch":64,"start":248.727,"duration":0.2727,"velocity":127,"measure":115,"beat":1.0,"subject_pos":-1,"motif":"enigmatic_cell","motif_pos":1,"best_pos":1,"similarity":1.0,"stretto":false,"stretto_voices":0,"combination":[],"aug_dim":"","rhythm_ratio":1.0,"mirror":false,"chromatic_density":0.333,"complexity":0.708,"dissonance":0.126},{"voice":3,"pitch":57,"start":248.727,"duration":1.0909,"velocity":127,"measure":115,"beat":1.0,"subject_pos":0,"motif":"subject_inv","motif_pos":0,"best_pos":0,"similarity":1.0,"stretto":false,"stretto_voices":0,"combination":[],"aug_dim":"","rhythm_ratio":1.0,"mirror":false,"chromatic_density":0.333,"complexity":0.708,"dissonance":0.126},{"voice":0,"pitch":69,"start":248.9998,"duration":0.5455,"velocity":127,"measure":115,"beat":1.5,"subject_pos":-1,"motif":"enigmatic_cell","motif_pos":2,"best_pos":2,"similarity":1.0,"stretto":false,"stretto_voices":0,"combination":[],"aug_dim":"","rhythm_ratio":1.0,"mirror":false,"chromatic_density":0.333,"complexity":0.708,"dissonance":0.126},{"voice":1,"pitch":61,"start":249.2725,"duration":0.5455,"velocity":127,"measure":115,"beat":2.0,"subject_pos":-1,"motif":"enigmatic_cell","motif_pos":0,"best_pos":0,"similarity":1.0,"stretto":false,"stretto_voices":0,"combination":[],"aug_dim":"","rhythm_ratio":1.0,"mirror":false,"chromatic_density":0.333,"complexity":0.708,"dissonance":0.126},{"voice":2,"pitch":57,"start":249.2725,"duration":0.5455,"velocity":127,"measure":115,"beat":2.0,"subject_pos":-1,"motif":"enigmatic_cell","motif_pos":0,"best_pos":0,"similarity":1.0,"stretto":false,"stretto_voices":0,"combination":[],"aug_dim":"","rhythm_ratio":1.0,"mirror":false,"chromatic_density":0.333,"complexity":0.708,"dissonance":0.126},{"voice":0,"pitch":67,"start":249.5452,"duration":0.2727,"velocity":127,"measure":115,"beat":2.5,"subject_pos":-1,"motif":"","motif_pos":-1,"best_pos":2,"similarity":0.786,"stretto":false,"stretto_voices":0,"combination":[],"aug_dim":"","rhythm_ratio":1.0,"mirror":false,"chromatic_density":0.333,"complexity":0.708,"dissonance":0.126},{"voice":0,"pitch":65,"start":249.8179,"duration":0.2727,"velocity":127,"measure":115,"beat":3.0,"subject_pos":-1,"motif":"","motif_pos":-1,"best_pos":3,"similarity":0.857,"stretto":false,"stretto_voices":0,"combination":[],"aug_dim":"","rhythm_ratio":1.0,"mirror":false,"chromatic_density":0.333,"complexity":0.708,"dissonance":0.126},{"voice":1,"pitch":62,"start":249.8179,"duration":0.5455,"velocity":127,"measure":115,"beat":3.0,"subject_pos":-1,"motif":"enigmatic_cell","motif_pos":1,"best_pos":1,"similarity":1.0,"stretto":false,"stretto_voices":0,"combination":[],"aug_dim":"","rhythm_ratio":1.0,"mirror":false,"chromatic_density":0.333,"complexity":0.708,"dissonance":0.126},{"voice":2,"pitch":58,"start":249.8179,"duration":0.5455,"velocity":127,"measure":115,"beat":3.0,"subject_pos":-1,"motif":"enigmatic_cell","motif_pos":1,"best_pos":1,"similarity":1.0,"stretto":false,"stretto_voices":0,"combination":[],"aug_dim":"","rhythm_ratio":1.0,"mirror":false,"chromatic_density":0.333,"complexity":0.708,"dissonance":0.126},{"voice":3,"pitch":50,"start":249.8179,"duration":0.8182,"velocity":127,"measure":115,"beat":3.0,"subject_pos":1,"motif":"subject_inv","motif_pos":1,"best_pos":1,"similarity":1.0,"stretto":false,"stretto_voices":0,"combination":[],"aug_dim":"","rhythm_ratio":1.0,"mirror":false,"chromatic_density":0.333,"complexity":0.708,"dissonance":0.126},{"voice":0,"pitch":64,"start":250.0907,"duration":0.2727,"velocity":127,"measure":115,"beat":3.5,"subject_pos":-1,"motif":"","motif_pos":-1,"best_pos":4,"similarity":0.893,"stretto":false,"stretto_voices":0,"combination":[],"aug_dim":"","rhythm_ratio":1.0,"mirror":false,"chromatic_density":0.333,"complexity":0.708,"dissonance":0.126},{"voice":0,"pitch":65,"start":250.3634,"duration":0.2727,"velocity":127,"measure":115,"beat":4.0,"subject_pos":-1,"motif":"","motif_pos":-1,"best_pos":5,"similarity":0.821,"stretto":false,"stretto_voices":0,"combination":[],"aug_dim":"","rhythm_ratio":1.0,"mirror":false,"chromatic_density":0.333,"complexity":0.708,"dissonance":0.126},{"voice":1,"pitch":57,"start":250.3634,"duration":0.5455,"velocity":127,"measure":115,"beat":4.0,"subject_pos":-1,"motif":"enigmatic_cell","motif_pos":2,"best_pos":2,"similarity":1.0,"stretto":false,"stretto_voices":0,"combination":[],"aug_dim":"","rhythm_ratio":1.0,"mirror":false,"chromatic_density":0.333,"complexity":0.708,"dissonance":0.126},{"voice":2,"pitch":53,"start":250.3634,"duration":0.5455,"velocity":127,"measure":115,"beat":4.0,"subject_pos":-1,"motif":"enigmatic_cell","motif_pos":2,"best_pos":2,"similarity":1.0,"stretto":false,"stretto_voices":0,"combination":[],"aug_dim":"","rhythm_ratio":1.0,"mirror":false,"chromatic_density":0.333,"complexity":0.708,"dissonance":0.126},{"voice":0,"pitch":67,"start":250.6361,"duration":0.2727,"velocity":127,"measure":115,"beat":4.5,"subject_pos":-1,"motif":"","motif_pos":-1,"best_pos":6,"similarity":0.643,"stretto":false,"stretto_voices":0,"combination":[],"aug_dim":"","rhythm_ratio":1.0,"mirror":false,"chromatic_density":0.333,"complexity":0.708,"dissonance":0.126},{"voice":3,"pitch":52,"start":250.6361,"duration":0.2727,"velocity":127,"measure":115,"beat":4.5,"subject_pos":2,"motif":"subject_inv","motif_pos":2,"best_pos":2,"similarity":1.0,"stretto":false,"stretto_voices":0,"combination":[],"aug_dim":"","rhythm_ratio":1.0,"mirror":false,"chromatic_density":0.333,"complexity":0.708,"dissonance":0.126},{"voice":0,"pitch":69,"start":250.9088,"duration":0.2727,"velocity":127,"measure":116,"beat":1.0,"subject_pos":-1,"motif":"","motif_pos":-1,"best_pos":6,"similarity":0.404,"stretto":false,"stretto_voices":0,"combination":[],"aug_dim":"","rhythm_ratio":1.0,"mirror":false,"chromatic_density":0.231,"complexity":0.601,"dissonance":0.121},{"voice":3,"pitch":53,"start":250.9088,"duration":0.8182,"velocity":127,"measure":116,"beat":1.0,"subject_pos":3,"motif":"subject_inv","motif_pos":3,"best_pos":3,"similarity":1.0,"stretto":false,"stretto_voices":0,"combination":[],"aug_dim":"","rhythm_ratio":1.0,"mirror":false,"chromatic_density":0.231,"complexity":0.601,"dissonance":0.121},{"voice":0,"pitch":67,"start":251.1816,"duration":0.2727,"velocity":127,"measure":116,"beat":1.5,"subject_pos":-1,"motif":"","motif_pos":-1,"best_pos":5,"similarity":0.471,"stretto":false,"stretto_voices":0,"combination":[],"aug_dim":"","rhythm_ratio":1.0,"mirror":false,"chromatic_density":0.231,"complexity":0.601,"dissonance":0.121},{"voice":0,"pitch":69,"start":251.4543,"duration":0.2727,"velocity":127,"measure":116,"beat":2.0,"subject_pos":-1,"motif":"","motif_pos":-1,"best_pos":6,"similarity":0.593,"stretto":false,"stretto_voices":0,"combination":[],"aug_dim":"","rhythm_ratio":1.0,"mirror":false,"chromatic_density":0.231,"complexity":0.601,"dissonance":0.121},{"voice":1,"pitch":65,"start":251.4543,"duration":0.5455,"velocity":127,"measure":116,"beat":2.0,"subject_pos":-1,"motif":"","motif_pos":-1,"best_pos":3,"similarity":0.379,"stretto":false,"stretto_voices":0,"combination":[],"aug_dim":"","rhythm_ratio":1.0,"mirror":false,"chromatic_density":0.231,"complexity":0.601,"dissonance":0.121},{"voice":2,"pitch":62,"start":251.4543,"duration":0.5455,"velocity":127,"measure":116,"beat":2.0,"subject_pos":-1,"motif":"","motif_pos":-1,"best_pos":1,"similarity":0.357,"stretto":false,"stretto_voices":0,"combination":[],"aug_dim":"","rhythm_ratio":1.0,"mirror":false,"chromatic_density":0.231,"complexity":0.601,"dissonance":0.121},{"voice":0,"pitch":70,"start":251.727,"duration":0.2727,"velocity":127,"measure":116,"beat":2.5,"subject_pos":-1,"motif":"","motif_pos":-1,"best_pos":5,"similarity":0.693,"stretto":false,"stretto_voices":0,"combination":[],"aug_dim":"","rhythm_ratio":1.0,"mirror":false,"chromatic_density":0.231,"complexity":0.601,"dissonance":0.121},{"voice":3,"pitch":55,"start":251.727,"duration":0.2727,"velocity":127,"measure":116,"beat":2.5,"subject_pos":4,"motif":"subject_inv","motif_pos":4,"best_pos":4,"similarity":1.0,"stretto":false,"stretto_voices":0,"combination":[],"aug_dim":"","rhythm_ratio":1.0,"mirror":false,"chromatic_density":0.231,"complexity":0.601,"dissonance":0.121},{"voice":0,"pitch":72,"start":251.9997,"duration":0.2727,"velocity":127,"measure":116,"beat":3.0,"subject_pos":-1,"motif":"","motif_pos":-1,"best_pos":5,"similarity":0.607,"stretto":false,"stretto_voices":0,"combination":[],"aug_dim":"","rhythm_ratio":1.0,"mirror":false,"chromatic_density":0.231,"complexity":0.601,"dissonance":0.121},{"voice":1,"pitch":64,"start":251.9997,"duration":0.5455,"velocity":127,"measure":116,"beat":3.0,"subject_pos":-1,"motif":"","motif_pos":-1,"best_pos":4,"similarity":0.386,"stretto":false,"stretto_voices":0,"combination":[],"aug_dim":"","rhythm_ratio":1.0,"mirror":false,"chromatic_density":0.231,"complexity":0.601,"dissonance":0.121},{"voice":2,"pitch":60,"start":251.9997,"duration":0.5455,"velocity":127,"measure":116,"beat":3.0,"subject_pos":-1,"motif":"","motif_pos":-1,"best_pos":2,"similarity":0.357,"stretto":false,"stretto_voices":0,"combination":[],"aug_dim":"","rhythm_ratio":1.0,"mirror":false,"chromatic_density":0.231,"complexity":0.601,"dissonance":0.121},{"voice":3,"pitch":57,"start":251.9997,"duration":1.0909,"velocity":127,"measure":116,"beat":3.0,"subject_pos":5,"motif":"subject_inv","motif_pos":5,"best_pos":5,"similarity":1.0,"stretto":false,"stretto_voices":0,"combination":[],"aug_dim":"","rhythm_ratio":1.0,"mirror":false,"chromatic_density":0.231,"complexity":0.601,"dissonance":0.121},{"voice":0,"pitch":74,"start":252.2725,"duration":0.2727,"velocity":127,"measure":116,"beat":3.5,"subject_pos":-1,"motif":"","motif_pos":-1,"best_pos":6,"similarity":0.661,"stretto":false,"stretto_voices":0,"combination":[],"aug_dim":"","rhythm_ratio":1.0,"mirror":false,"chromatic_density":0.231,"complexity":0.601,"dissonance":0.121},{"voice":0,"pitch":75,"start":252.5452,"duration":0.2727,"velocity":127,"measure":116,"beat":4.0,"subject_pos":-1,"motif":"","motif_pos":-1,"best_pos":7,"similarity":0.464,"stretto":false,"stretto_voices":0,"combination":[],"aug_dim":"","rhythm_ratio":1.0,"mirror":false,"chromatic_density":0.231,"complexity":0.601,"dissonance":0.121},{"voice":1,"pitch":69,"start":252.5452,"duration":0.5455,"velocity":127,"measure":116,"beat":4.0,"subject_pos":-1,"motif":"head_inv","motif_pos":0,"best_pos":0,"similarity":1.0,"stretto":false,"stretto_voices":0,"combination":[],"aug_dim":"","rhythm_ratio":1.0,"mirror":false,"chromatic_density":0.231,"complexity":0.601,"dissonance":0.121},{"voice":2,"pitch":65,"start":252.5452,"duration":0.5455,"velocity":127,"measure":116,"beat":4.0,"subject_pos":-1,"motif":"","motif_pos":-1,"best_pos":1,"similarity":0.321,"stretto":false,"stretto_voices":0,"combination":[],"aug_dim":"","rhythm_ratio":1.0,"mirror":false,"chromatic_density":0.231,"complexity":0.601,"dissonance":0.121},{"voice":0,"pitch":72,"start":252.8179,"duration":0.2727,"velocity":127,"measure":116,"beat":4.5,"subject_pos":-1,"motif":"","motif_pos":-1,"best_pos":5,"similarity":0.364,"stretto":false,"stretto_voices":0,"combination":[],"aug_dim":"","rhythm_ratio":1.0,"mirror":false,"chromatic_density":0.231,"complexity":0.601,"dissonance":0.121},{"voice":0,"pitch":74,"start":253.0907,"duration":1.0909,"velocity":127,"measure":117,"beat":1.0,"subject_pos":-1,"motif":"","motif_pos":-1,"best_pos":1,"similarity":0.386,"stretto":false,"stretto_voices":0,"combination":[],"aug_dim":"","rhythm_ratio":1.0,"mirror":false,"chromatic_density":0.294,"complexity":0.629,"dissonance":0.117},{"voice":1,"pitch":62,"start":253.0907,"duration":0.2727,"velocity":127,"measure":117,"beat":1.0,"subject_pos":-1,"motif":"head_inv","motif_pos":1,"best_pos":1,"similarity":1.0,"stretto":false,"stretto_voices":0,"combination":[],"aug_dim":"","rhythm_ratio":1.0,"mirror":false,"chromatic_density":0.294,"complexity":0.629,"dissonance":0.117},{"voice":2,"pitch":58,"start":253.0907,"duration":0.2727,"velocity":127,"measure":117,"beat":1.0,"subject_pos":-1,"motif":"","motif_pos":-1,"best_pos":4,"similarity":0.393,"stretto":false,"stretto_voices":0,"combination":[],"aug_dim":"","rhythm_ratio":1.0,"mirror":false,"chromatic_density":0.294,"complexity":0.629,"dissonance":0.117},{"voice":3,"pitch":58,"start":253.0907,"duration":1.0909,"velocity":127,"measure":117,"beat":1.0,"subject_pos":6,"motif":"subject_inv","motif_pos":6,"best_pos":6,"similarity":1.0,"stretto":false,"stretto_voices":0,"combination":[],"aug_dim":"","rhythm_ratio":1.0,"mirror":false,"chromatic_density":0.294,"complexity":0.629,"dissonance":0.117},{"voice":1,"pitch":64,"start":253.3634,"duration":0.2727,"velocity":127,"measure":117,"beat":1.5,"subject_pos":-1,"motif":"head_inv","motif_pos":2,"best_pos":2,"similarity":1.0,"stretto":false,"stretto_voices":0,"combination":[],"aug_dim":"","rhythm_ratio":1.0,"mirror":false,"chromatic_density":0.294,"complexity":0.629,"dissonance":0.117},{"voice":2,"pitch":60,"start":253.3634,"duration":0.2727,"velocity":127,"measure":117,"beat":1.5,"subject_pos":-1,"motif":"","motif_pos":-1,"best_pos":5,"similarity":0.5,"stretto":false,"stretto_voices":0,"combination":[],"aug_dim":"","rhythm_ratio":1.0,"mirror":false,"chromatic_density":0.294,"complexity":0.629,"dissonance":0.117},{"voice":1,"pitch":65,"start":253.6361,"duration":0.2727,"velocity":127,"measure":117,"beat":2.0,"subject_pos":-1,"motif":"head_inv","motif_pos":3,"best_pos":3,"similarity":1.0,"stretto":false,"stretto_voices":0,"combination":[],"aug_dim":"","rhythm_ratio":1.0,"mirror":false,"chromatic_density":0.294,"complexity":0.629,"dissonance":0.117},{"voice":2,"pitch":62,"start":253.6361,"duration":0.2727,"velocity":127,"measure":117,"beat":2.0,"subject_pos":-1,"motif":"","motif_pos":-1,"best_pos":5,"similarity":0.593,"stretto":false,"stretto_voices":0,"combination":[],"aug_dim":"","rhythm_ratio":1.0,"mirror":false,"chromatic_density":0.294,"complexity":0.629,"dissonance":0.117},{"voice":1,"pitch":67,"start":253.9088,"duration":0.2727,"velocity":127,"measure":117,"beat":2.5,"subject_pos":-1,"motif":"head_inv","motif_pos":4,"best_pos":4,"similarity":1.0,"stretto":false,"stretto_voices":0,"combination":[],"aug_dim":"","rhythm_ratio":1.0,"mirror":false,"chromatic_density":0.294,"complexity":0.629,"dissonance":0.117},{"voice":2,"pitch":64,"start":253.9088,"duration":0.2727,"velocity":127,"measure":117,"beat":2.5,"subject_pos":-1,"motif":"","motif_pos":-1,"best_pos":6,"similarity":0.65,"stretto":false,"stretto_voices":0,"combination":[],"aug_dim":"","rhythm_ratio":1.0,"mirror":false,"chromatic_density":0.294,"complexity":0.629,"dissonance":0.117},{"voice":0,"pitch":72,"start":254.1816,"duration":0.5455,"velocity":127,"measure":117,"beat":3.0,"subject_pos":-1,"motif":"","motif_pos":-1,"best_pos":2,"similarity":0.514,"stretto":false,"stretto_voices":0,"combination":[],"aug_dim":"","rhythm_ratio":1.0,"mirror":false,"chromatic_density":0.294,"complexity":0.629,"dissonance":0.117},{"voice":1,"pitch":69,"start":254.1816,"duration":0.2727,"velocity":127,"measure":117,"beat":3.0,"subject_pos":-1,"motif":"","motif_pos":-1,"best_pos":6,"similarity":0.661,"stretto":false,"stretto_voices":0,"combination":[],"aug_dim":"","rhythm_ratio":1.0,"mirror":false,"chromatic_density":0.294,"complexity":0.629,"dissonance":0.117},{"voice":2,"pitch":65,"start":254.1816,"duration":0.2727,"velocity":127,"measure":117,"beat":3.0,"subject_pos":-1,"motif":"","motif_pos":-1,"best_pos":5,"similarity":0.657,"stretto":false,"stretto_voices":0,"combination":[],"aug_dim":"","rhythm_ratio":1.0,"mirror":false,"chromatic_density":0.294,"complexity":0.629,"dissonance":0.117},{"voice":3,"pitch":57,"start":254.1816,"duration":0.8182,"velocity":127,"measure":117,"beat":3.0,"subject_pos":7,"motif":"subject_inv","motif_pos":7,"best_pos":7,"similarity":1.0,"stretto":false,"stretto_voices":0,"combination":[],"aug_dim":"","rhythm_ratio":1.0,"mirror":false,"chromatic_density":0.294,"complexity":0.629,"dissonance":0.117},{"voice":1,"pitch":70,"start":254.4543,"duration":0.2727,"velocity":127,"measure":117,"beat":3.5,"subject_pos":-1,"motif":"","motif_pos":-1,"best_pos":5,"similarity":0.6,"stretto":false,"stretto_voices":0,"combination":[],"aug_dim":"","rhythm_ratio":1.0,"mirror":false,"chromatic_density":0.294,"complexity":0.629,"dissonance":0.117},{"voice":2,"pitch":67,"start":254.4543,"duration":0.2727,"velocity":127,"measure":117,"beat":3.5,"subject_pos":-1,"motif":"","motif_pos":-1,"best_pos":6,"similarity":0.579,"stretto":false,"stretto_voices":0,"combination":[],"aug_dim":"","rhythm_ratio":1.0,"mirror":false,"chromatic_density":0.294,"complexity":0.629,"dissonance":0.117},{"voice":0,"pitch":77,"start":254.727,"duration":0.2727,"velocity":127,"measure":117,"beat":4.0,"subject_pos":-1,"motif":"","motif_pos":-1,"best_pos":3,"similarity":0.579,"stretto":false,"stretto_voices":0,"combination":[],"aug_dim":"","rhythm_ratio":1.0,"mirror":false,"chromatic_density":0.294,"complexity":0.629,"dissonance":0.117},{"voice":1,"pitch":72,"start":254.727,"duration":0.8182,"velocity":127,"measure":117,"beat":4.0,"subject_pos":-1,"motif":"","motif_pos":-1,"best_pos":6,"similarity":0.464,"stretto":false,"stretto_voices":0,"combination":[],"aug_dim":"","rhythm_ratio":1.0,"mirror":false,"chromatic_density":0.294,"complexity":0.629,"dissonance":0.117},{"voice":2,"pitch":69,"start":254.727,"duration":0.8182,"velocity":127,"measure":117,"beat":4.0,"subject_pos":-1,"motif":"","motif_pos":-1,"best_pos":1,"similarity":0.457,"stretto":false,"stretto_voices":0,"combination":[],"aug_dim":"","rhythm_ratio":1.0,"mirror":false,"chromatic_density":0.294,"complexity":0.629,"dissonance":0.117},{"voice":0,"pitch":76,"start":254.9997,"duration":0.2727,"velocity":127,"measure":117,"beat":4.5,"subject_pos":-1,"motif":"","motif_pos":-1,"best_pos":4,"similarity":0.714,"stretto":false,"stretto_voices":0,"combination":[],"aug_dim":"","rhythm_ratio":1.0,"mirror":false,"chromatic_density":0.294,"complexity":0.629,"dissonance":0.117},{"voice":3,"pitch":55,"start":254.9997,"duration":0.2727,"velocity":127,"measure":117,"beat":4.5,"subject_pos":8,"motif":"subject_inv","motif_pos":8,"best_pos":0,"similarity":1.0,"stretto":false,"stretto_voices":0,"combination":[],"aug_dim":"","rhythm_ratio":1.0,"mirror":false,"chromatic_density":0.294,"complexity":0.629,"dissonance":0.117},{"voice":0,"pitch":77,"start":255.2725,"duration":0.8182,"velocity":127,"measure":118,"beat":1.0,"subject_pos":-1,"motif":"","motif_pos":-1,"best_pos":5,"similarity":0.571,"stretto":false,"stretto_voices":0,"combination":[],"aug_dim":"","rhythm_ratio":1.0,"mirror":false,"chromatic_density":0.357,"complexity":0.552,"dissonance":0.123},{"voice":3,"pitch":53,"start":255.2725,"duration":1.3636,"velocity":127,"measure":118,"beat":1.0,"subject_pos":-1,"motif":"","motif_pos":-1,"best_pos":3,"similarity":0.786,"stretto":false,"stretto_voices":0,"combination":[],"aug_dim":"","rhythm_ratio":1.0,"mirror":false,"chromatic_density":0.357,"complexity":0.552,"dissonance":0.123},{"voice":1,"pitch":70,"start":255.5452,"duration":0.2727,"velocity":127,"measure":118,"beat":1.5,"subject_pos":-1,"motif":"","motif_pos":-1,"best_pos":3,"similarity":0.471,"stretto":false,"stretto_voices":0,"combination":[],"aug_dim":"","rhythm_ratio":1.0,"mirror":false,"chromatic_density":0.357,"complexity":0.552,"dissonance":0.123},{"voice":2,"pitch":67,"start":255.5452,"duration":0.2727,"velocity":127,"measure":118,"beat":1.5,"subject_pos":-1,"motif":"","motif_pos":-1,"best_pos":2,"similarity":0.593,"stretto":false,"stretto_voices":0,"combination":[],"aug_dim":"","rhythm_ratio":1.0,"mirror":false,"chromatic_density":0.357,"complexity":0.552,"dissonance":0.123},{"voice":1,"pitch":69,"start":255.8179,"duration":0.2727,"velocity":127,"measure":118,"beat":2.0,"subject_pos":-1,"motif":"","motif_pos":-1,"best_pos":3,"similarity":0.45,"stretto":false,"stretto_voices":0,"combination":[],"aug_dim":"","rhythm_ratio":1.0,"mirror":false,"chromatic_density":0.357,"complexity":0.552,"dissonance":0.123},{"voice":2,"pitch":65,"start":255.8179,"duration":0.2727,"velocity":127,"measure":118,"beat":2.0,"subject_pos":-1,"motif":"","motif_pos":-1,"best_pos":3,"similarity":0.664,"stretto":false,"stretto_voices":0,"combination":[],"aug_dim":"","rhythm_ratio":1.0,"mirror":false,"chromatic_density":0.357,"complexity":0.552,"dissonance":0.123},{"voice":0,"pitch":73,"start":256.0907,"duration":0.2727,"velocity":127,"measure":118,"beat":2.5,"subject_pos":-1,"motif":"","motif_pos":-1,"best_pos":2,"similarity":0.543,"stretto":false,"stretto_voices":0,"combination":[],"aug_dim":"","rhythm_ratio":1.0,"mirror":false,"chromatic_density":0.357,"complexity":0.552,"dissonance":0.123},{"voice":1,"pitch":67,"start":256.0907,"duration":0.2727,"velocity":127,"measure":118,"beat":2.5,"subject_pos":-1,"motif":"","motif_pos":-1,"best_pos":3,"similarity":0.5,"stretto":false,"stretto_voices":0,"combination":[],"aug_dim":"","rhythm_ratio":1.0,"mirror":false,"chromatic_density":0.357,"complexity":0.552,"dissonance":0.123},{"voice":2,"pitch":64,"start":256.0907,"duration":0.2727,"velocity":127,"measure":118,"beat":2.5,"subject_pos":-1,"motif":"","motif_pos":-1,"best_pos":4,"similarity":0.671,"stretto":false,"stretto_voices":0,"combination":[],"aug_dim":"","rhythm_ratio":1.0,"mirror":false,"chromatic_density":0.357,"complexity":0.552,"dissonance":0.123},{"voice":0,"pitch":74,"start":256.3634,"duration":2.7273,"velocity":127,"measure":118,"beat":3.0,"subject_pos":-1,"motif":"","motif_pos":-1,"best_pos":3,"similarity":0.607,"stretto":false,"stretto_voices":0,"combination":[],"aug_dim":"","rhythm_ratio":1.0,"mirror":false,"chromatic_density":0.357,"complexity":0.552,"dissonance":0.123},{"voice":1,"pitch":65,"start":256.3634,"duration":0.2727,"velocity":127,"measure":118,"beat":3.0,"subject_pos":-1,"motif":"","motif_pos":-1,"best_pos":4,"similarity":0.536,"stretto":false,"stretto_voices":0,"combination":[],"aug_dim":"","rhythm_ratio":1.0,"mirror":false,"chromatic_density":0.357,"complexity":0.552,"dissonance":0.123},{"voice":2,"pitch":62,"start":256.3634,"duration":0.8182,"velocity":127,"measure":118,"beat":3.0,"subject_pos":-1,"motif":"","motif_pos":-1,"best_pos":5,"similarity":0.636,"stretto":false,"stretto_voices":0,"combination":[],"aug_dim":"","rhythm_ratio":1.0,"mirror":false,"chromatic_density":0.357,"complexity":0.552,"dissonance":0.123},{"voice":1,"pitch":67,"start":256.6361,"duration":0.2727,"velocity":127,"measure":118,"beat":3.5,"subject_pos":-1,"motif":"","motif_pos":-1,"best_pos":5,"similarity":0.536,"stretto":false,"stretto_voices":0,"combination":[],"aug_dim":"","rhythm_ratio":1.0,"mirror":false,"chromatic_density":0.357,"complexity":0.552,"dissonance":0.123},{"voice":3,"pitch":52,"start":256.6361,"duration":0.2727,"velocity":127,"measure":118,"beat":3.5,"subject_pos":-1,"motif":"","motif_pos":-1,"best_pos":4,"similarity":0.893,"stretto":false,"stretto_voices":0,"combination":[],"aug_dim":"","rhythm_ratio":1.0,"mirror":false,"chromatic_density":0.357,"complexity":0.552,"dissonance":0.123},{"voice":1,"pitch":69,"start":256.9088,"duration":3.8182,"velocity":127,"measure":118,"beat":4.0,"subject_pos":-1,"motif":"","motif_pos":-1,"best_pos":6,"similarity":0.393,"stretto":false,"stretto_voices":0,"combination":[],"aug_dim":"","rhythm_ratio":1.0,"mirror":false,"chromatic_density":0.357,"complexity":0.552,"dissonance":0.123},{"voice":3,"pitch":53,"start":256.9088,"duration":0.2727,"velocity":127,"measure":118,"beat":4.0,"subject_pos":-1,"motif":"","motif_pos":-1,"best_pos":5,"similarity":0.821,"stretto":false,"stretto_voices":0,"combination":[],"aug_dim":"","rhythm_ratio":1.0,"mirror":false,"chromatic_density":0.357,"complexity":0.552,"dissonance":0.123},{"voice":2,"pitch":64,"start":257.1816,"duration":0.2727,"velocity":127,"measure":118,"beat":4.5,"subject_pos":-1,"motif":"","motif_pos":-1,"best_pos":6,"similarity":0.657,"stretto":false,"stretto_voices":0,"combination":[],"aug_dim":"","rhythm_ratio":1.0,"mirror":false,"chromatic_density":0.357,"complexity":0.552,"dissonance":0.123},{"voice":3,"pitch":55,"start":257.1816,"duration":0.2727,"velocity":127,"measure":118,"beat":4.5,"subject_pos":-1,"motif":"","motif_pos":-1,"best_pos":6,"similarity":0.643,"stretto":false,"stretto_voices":0,"combination":[],"aug_dim":"","rhythm_ratio":1.0,"mirror":false,"chromatic_density":0.357,"complexity":0.552,"dissonance":0.123},{"voice":2,"pitch":65,"start":257.4543,"duration":0.5455,"velocity":127,"measure":119,"beat":1.0,"subject_pos":-1,"motif":"","motif_pos":-1,"best_pos":7,"similarity":0.436,"stretto":false,"stretto_voices":0,"combination":[],"aug_dim":"","rhythm_ratio":1.0,"mirror":false,"chromatic_density":0.4,"complexity":0.38,"dissonance":0.163},{"voice":3,"pitch":57,"start":257.4543,"duration":2.1818,"velocity":127,"measure":119,"beat":1.0,"subject_pos":-1,"motif":"","motif_pos":-1,"best_pos":6,"similarity":0.375,"stretto":false,"stretto_voices":0,"combination":[],"aug_dim":"","rhythm_ratio":1.0,"mirror":false,"chromatic_density":0.4,"complexity":0.38,"dissonance":0.163},{"voice":2,"pitch":64,"start":257.9997,"duration":0.2727,"velocity":127,"measure":119,"beat":2.0,"subject_pos":-1,"motif":"","motif_pos":-1,"best_pos":4,"similarity":0.55,"stretto":false,"stretto_voices":0,"combination":[],"aug_dim":"","rhythm_ratio":1.0,"mirror":false,"chromatic_density":0.4,"complexity":0.38,"dissonance":0.163},{"voice":2,"pitch":62,"start":258.2725,"duration":0.2727,"velocity":127,"measure":119,"beat":2.5,"subject_pos":-1,"motif":"","motif_pos":-1,"best_pos":5,"similarity":0.607,"stretto":false,"stretto_voices":0,"combination":[],"aug_dim":"","rhythm_ratio":1.0,"mirror":false,"chromatic_density":0.4,"complexity":0.38,"dissonance":0.163},{"voice":2,"pitch":64,"start":258.5452,"duration":0.2727,"velocity":127,"measure":119,"beat":3.0,"subject_pos":-1,"motif":"","motif_pos":-1,"best_pos":6,"similarity":0.657,"stretto":false,"stretto_voices":0,"combination":[],"aug_dim":"","rhythm_ratio":1.0,"mirror":false,"chromatic_density":0.4,"complexity":0.38,"dissonance":0.163},{"voice":2,"pitch":65,"start":258.8179,"duration":0.2727,"velocity":127,"measure":119,"beat":3.5,"subject_pos":-1,"motif":"","motif_pos":-1,"best_pos":5,"similarity":0.657,"stretto":false,"stretto_voices":0,"combination":[],"aug_dim":"","rhythm_ratio":1.0,"mirror":false,"chromatic_density":0.4,"complexity":0.38,"dissonance":0.163},{"voice":0,"pitch":73,"start":259.0906,"duration":0.5455,"velocity":127,"measure":119,"beat":4.0,"subject_pos":-1,"motif":"","motif_pos":-1,"best_pos":4,"similarity":0.657,"stretto":false,"stretto_voices":0,"combination":[],"aug_dim":"","rhythm_ratio":1.0,"mirror":false,"chromatic_density":0.4,"complexity":0.38,"dissonance":0.163},{"voice":2,"pitch":67,"start":259.0906,"duration":1.0909,"velocity":127,"measure":119,"beat":4.0,"subject_pos":-1,"motif":"","motif_pos":-1,"best_pos":6,"similarity":0.507,"stretto":false,"stretto_voices":0,"combination":[],"aug_dim":"","rhythm_ratio":1.0,"mirror":false,"chromatic_density":0.4,"complexity":0.38,"dissonance":0.163},{"voice":0,"pitch":74,"start":259.6361,"duration":1.0909,"velocity":127,"measure":120,"beat":1.0,"subject_pos":-1,"motif":"","motif_pos":-1,"best_pos":5,"similarity":0.436,"stretto":false,"stretto_voices":0,"combination":[],"aug_dim":"","rhythm_ratio":1.0,"mirror":false,"chromatic_density":0.0,"complexity":0.256,"dissonance":0.0},{"voice":3,"pitch":50,"start":259.6361,"duration":1.0909,"velocity":127,"measure":120,"beat":1.0,"subject_pos":-1,"motif":"","motif_pos":-1,"best_pos":7,"similarity":0.179,"stretto":false,"stretto_voices":0,"combination":[],"aug_dim":"","rhythm_ratio":1.0,"mirror":false,"chromatic_density":0.0,"complexity":0.256,"dissonance":0.0},{"voice":2,"pitch":66,"start":260.1816,"duration":0.5455,"velocity":127,"measure":120,"beat":2.0,"subject_pos":-1,"motif":"","motif_pos":-1,"best_pos":4,"similarity":0.293,"stretto":false,"stretto_voices":0,"combination":[],"aug_dim":"","rhythm_ratio":1.0,"mirror":false,"chromatic_density":0.0,"complexity":0.256,"dissonance":0.0}],"chromatic_density":[{"measure":1,"density":0.5,"chromatic_count":1,"interval_count":2},{"measure":2,"density":0.5,"chromatic_count":1,"interval_count":2},{"measure":3,"density":0.333,"chromatic_count":2,"interval_count":6},{"measure":4,"density":0.286,"chromatic_count":2,"interval_count":7},{"measure":5,"density":0.25,"chromatic_count":2,"interval_count":8},{"measure":6,"density":0.375,"chromatic_count":3,"interval_count":8},{"measure":7,"density":0.455,"chromatic_count":5,"interval_count":11},{"measure":8,"density":0.3,"chromatic_count":3,"interval_count":10},{"measure":9,"density":0.333,"chromatic_count":4,"interval_count":12},{"measure":10,"density":0.182,"chromatic_count":2,"interval_count":11},{"measure":11,"density":0.364,"chromatic_count":4,"interval_count":11},{"measure":12,"density":0.267,"chromatic_count":4,"interval_count":15},{"measure":13,"density":0.308,"chromatic_count":4,"interval_count":13},{"measure":14,"density":0.357,"chromatic_count":5,"interval_count":14},{"measure":15,"density":0.286,"chromatic_count":4,"interval_count":14},{"measure":16,"density":0.278,"chromatic_count":5,"interval_count":18},{"measure":17,"density":0.188,"chromatic_count":3,"interval_count":16},{"measure":18,"density":0.091,"chromatic_count":1,"interval_count":11},{"measure":19,"density":0.429,"chromatic_count":6,"interval_count":14},{"measure":20,"density":0.267,"chromatic_count":4,"interval_count":15},{"measure":21,"density":0.7,"chromatic_count":7,"interval_count":10},{"measure":22,"density":0.5,"chromatic_count":3,"interval_count":6},{"measure":23,"density":0.444,"chromatic_count":4,"interval_count":9},{"measure":24,"density":0.091,"chromatic_count":1,"interval_count":11},{"measure":25,"density":0.364,"chromatic_count":4,"interval_count":11},{"measure":26,"density":0.167,"chromatic_count":1,"interval_count":6},{"measure":27,"density":0.25,"chromatic_count":2,"interval_count":8},{"measure":28,"density":0.556,"chromatic_count":5,"interval_count":9},{"measure":29,"density":0.1,"chromatic_count":1,"interval_count":10},{"measure":30,"density":0.167,"chromatic_count":2,"interval_count":12},{"measure":31,"density":0.273,"chromatic_count":3,"interval_count":11},{"measure":32,"density":0.3,"chromatic_count":3,"interval_count":10},{"measure":33,"density":0.5,"chromatic_count":4,"interval_count":8},{"measure":34,"density":0.308,"chromatic_count":4,"interval_count":13},{"measure":35,"density":0.4,"chromatic_count":4,"interval_count":10},{"measure":36,"density":0.333,"chromatic_count":3,"interval_count":9},{"measure":37,"density":0.25,"chromatic_count":2,"interval_count":8},{"measure":38,"density":0.5,"chromatic_count":3,"interval_count":6},{"measure":39,"density":0.4,"chromatic_count":4,"interval_count":10},{"measure":40,"density":0.273,"chromatic_count":3,"interval_count":11},{"measure":41,"density":0.333,"chromatic_count":4,"interval_count":12},{"measure":42,"density":0.5,"chromatic_count":3,"interval_count":6},{"measure":43,"density":0.25,"chromatic_count":2,"interval_count":8},{"measure":44,"density":0.154,"chromatic_count":2,"interval_count":13},{"measure":45,"density":0.5,"chromatic_count":5,"interval_count":10},{"measure":46,"density":0.4,"chromatic_count":6,"interval_count":15},{"measure":47,"density":0.455,"chromatic_count":5,"interval_count":11},{"measure":48,"density":0.111,"chromatic_count":1,"interval_count":9},{"measure":49,"density":0.2,"chromatic_count":2,"interval_count":10},{"measure":50,"density":0.462,"chromatic_count":6,"interval_count":13},{"measure":51,"density":0.111,"chromatic_count":1,"interval_count":9},{"measure":52,"density":0.154,"chromatic_count":2,"interval_count":13},{"measure":53,"density":0.231,"chromatic_count":3,"interval_count":13},{"measure":54,"density":0.364,"chromatic_count":4,"interval_count":11},{"measure":55,"density":0.3,"chromatic_count":3,"interval_count":10},{"measure":56,"density":0.444,"chromatic_count":4,"interval_count":9},{"measure":57,"density":0.273,"chromatic_count":3,"interval_count":11},{"measure":58,"density":0.25,"chromatic_count":3,"interval_count":12},{"measure":59,"density":0.231,"chromatic_count":3,"interval_count":13},{"measure":60,"density":0.25,"chromatic_count":3,"interval_count":12},{"measure":61,"density":0.2,"chromatic_count":2,"interval_count":10},{"measure":62,"density":0.214,"chromatic_count":3,"interval_count":14},{"measure":63,"density":0.231,"chromatic_count":3,"interval_count":13},{"measure":64,"density":0.375,"chromatic_count":3,"interval_count":8},{"measure":65,"density":0.091,"chromatic_count":1,"interval_count":11},{"measure":66,"density":0.5,"chromatic_count":6,"interval_count":12},{"measure":67,"density":0.2,"chromatic_count":2,"interval_count":10},{"measure":68,"density":0.429,"chromatic_count":6,"interval_count":14},{"measure":69,"density":0.364,"chromatic_count":4,"interval_count":11},{"measure":70,"density":0.333,"chromatic_count":4,"interval_count":12},{"measure":71,"density":0.333,"chromatic_count":4,"interval_count":12},{"measure":72,"density":0.3,"chromatic_count":3,"interval_count":10},{"measure":73,"density":0.333,"chromatic_count":4,"interval_count":12},{"measure":74,"density":0.3,"chromatic_count":3,"interval_count":10},{"measure":75,"density":0.231,"chromatic_count":3,"interval_count":13},{"measure":76,"density":0.273,"chromatic_count":3,"interval_count":11},{"measure":77,"density":0.214,"chromatic_count":3,"interval_count":14},{"measure":78,"density":0.4,"chromatic_count":4,"interval_count":10},{"measure":79,"density":0.0,"chromatic_count":0,"interval_count":9},{"measure":80,"density":0.125,"chromatic_count":1,"interval_count":8},{"measure":81,"density":0.222,"chromatic_count":2,"interval_count":9},{"measure":82,"density":0.143,"chromatic_count":1,"interval_count":7},{"measure":83,"density":0.25,"chromatic_count":2,"interval_count":8},{"measure":84,"density":0.125,"chromatic_count":1,"interval_count":8},{"measure":85,"density":0.375,"chromatic_count":6,"interval_count":16},{"measure":86,"density":0.182,"chromatic_count":2,"interval_count":11},{"measure":87,"density":0.235,"chromatic_count":4,"interval_count":17},{"measure":88,"density":0.417,"chromatic_count":5,"interval_count":12},{"measure":89,"density":0.143,"chromatic_count":1,"interval_count":7},{"measure":90,"density":0.083,"chromatic_count":1,"interval_count":12},{"measure":91,"density":0.222,"chromatic_count":2,"interval_count":9},{"measure":92,"density":0.333,"chromatic_count":4,"interval_count":12},{"measure":93,"density":0.308,"chromatic_count":4,"interval_count":13},{"measure":94,"density":0.0,"chromatic_count":0,"interval_count":13},{"measure":95,"density":0.273,"chromatic_count":3,"interval_count":11},{"measure":96,"density":0.182,"chromatic_count":2,"interval_count":11},{"measure":97,"density":0.167,"chromatic_count":2,"interval_count":12},{"measure":98,"density":0.125,"chromatic_count":1,"interval_count":8},{"measure":99,"density":0.3,"chromatic_count":3,"interval_count":10},{"measure":100,"density":0.25,"chromatic_count":3,"interval_count":12},{"measure":101,"density":0.333,"chromatic_count":3,"interval_count":9},{"measure":102,"density":0.25,"chromatic_count":3,"interval_count":12},{"measure":103,"density":0.286,"chromatic_count":4,"interval_count":14},{"measure":104,"density":0.385,"chromatic_count":5,"interval_count":13},{"measure":105,"density":0.235,"chromatic_count":4,"interval_count":17},{"measure":106,"density":0.375,"chromatic_count":6,"interval_count":16},{"measure":107,"density":0.2,"chromatic_count":2,"interval_count":10},{"measure":108,"density":0.182,"chromatic_count":2,"interval_count":11},{"measure":109,"density":0.188,"chromatic_count":3,"interval_count":16},{"measure":110,"density":0.231,"chromatic_count":3,"interval_count":13},{"measure":111,"density":0.545,"chromatic_count":6,"interval_count":11},{"measure":112,"density":0.231,"chromatic_count":3,"interval_count":13},{"measure":113,"density":0.273,"chromatic_count":3,"interval_count":11},{"measure":114,"density":0.333,"chromatic_count":2,"interval_count":6},{"measure":115,"density":0.333,"chromatic_count":4,"interval_count":12},{"measure":116,"density":0.231,"chromatic_count":3,"interval_count":13},{"measure":117,"density":0.294,"chromatic_count":5,"interval_count":17},{"measure":118,"density":0.357,"chromatic_count":5,"interval_count":14},{"measure":119,"density":0.4,"chromatic_count":2,"interval_count":5},{"measure":120,"density":0.0,"chromatic_count":0,"interval_count":0}],"complexity":[{"measure":1,"complexity":0.399,"voice_count":1,"note_density":0.094,"motif_saturation":1.0,"interval_diversity":0.286,"rhythm_variety":0.167},{"measure":2,"complexity":0.232,"voice_count":1,"note_density":0.094,"motif_saturation":0.333,"interval_diversity":0.286,"rhythm_variety":0.167},{"measure":3,"complexity":0.449,"voice_count":2,"note_density":0.25,"motif_saturation":0.625,"interval_diversity":0.286,"rhythm_variety":0.5},{"measure":4,"complexity":0.419,"voice_count":2,"note_density":0.281,"motif_saturation":0.222,"interval_diversity":0.714,"rhythm_variety":0.5},{"measure":5,"complexity":0.495,"voice_count":2,"note_density":0.312,"motif_saturation":0.5,"interval_diversity":0.714,"rhythm_variety":0.5},{"measure":6,"complexity":0.327,"voice_count":2,"note_density":0.312,"motif_saturation":0.0,"interval_diversity":0.429,"rhythm_variety":0.5},{"measure":7,"complexity":0.557,"voice_count":3,"note_density":0.438,"motif_saturation":0.571,"interval_diversity":0.429,"rhythm_variety":0.5},{"measure":8,"complexity":0.555,"voice_count":4,"note_density":0.438,"motif_saturation":0.214,"interval_diversity":0.429,"rhythm_variety":0.667},{"measure":9,"complexity":0.667,"voice_count":4,"note_density":0.5,"motif_saturation":0.625,"interval_diversity":0.571,"rhythm_variety":0.5},{"measure":10,"complexity":0.576,"voice_count":4,"note_density":0.469,"motif_saturation":0.2,"interval_diversity":0.714,"rhythm_variety":0.5},{"measure":11,"complexity":0.532,"voice_count":3,"note_density":0.438,"motif_saturation":0.286,"interval_diversity":0.571,"rhythm_variety":0.667},{"measure":12,"complexity":0.428,"voice_count":3,"note_density":0.562,"motif_saturation":0.056,"interval_diversity":0.429,"rhythm_variety":0.333},{"measure":13,"complexity":0.551,"voice_count":3,"note_density":0.5,"motif_saturation":0.312,"interval_diversity":0.571,"rhythm_variety":0.667},{"measure":14,"complexity":0.622,"voice_count":4,"note_density":0.562,"motif_saturation":0.222,"interval_diversity":0.857,"rhythm_variety":0.5},{"measure":15,"complexity":0.715,"voice_count":4,"note_density":0.562,"motif_saturation":0.611,"interval_diversity":1.0,"rhythm_variety":0.333},{"measure":16,"complexity":0.651,"voice_count":4,"note_density":0.688,"motif_saturation":0.227,"interval_diversity":0.714,"rhythm_variety":0.667},{"measure":17,"complexity":0.543,"voice_count":4,"note_density":0.625,"motif_saturation":0.0,"interval_diversity":0.286,"rhythm_variety":0.833},{"measure":18,"complexity":0.487,"voice_count":4,"note_density":0.469,"motif_saturation":0.0,"interval_diversity":0.286,"rhythm_variety":0.667},{"measure":19,"complexity":0.544,"voice_count":4,"note_density":0.562,"motif_saturation":0.056,"interval_diversity":0.286,"rhythm_variety":0.833},{"measure":20,"complexity":0.521,"voice_count":4,"note_density":0.594,"motif_saturation":0.053,"interval_diversity":0.429,"rhythm_variety":0.5},{"measure":21,"complexity":0.498,"voice_count":4,"note_density":0.438,"motif_saturation":0.071,"interval_diversity":0.286,"rhythm_variety":0.667},{"measure":22,"complexity":0.452,"voice_count":4,"note_density":0.312,"motif_saturation":0.0,"interval_diversity":0.429,"rhythm_variety":0.5},{"measure":23,"complexity":0.401,"voice_count":2,"note_density":0.344,"motif_saturation":0.273,"interval_diversity":0.429,"rhythm_variety":0.5},{"measure":24,"complexity":0.532,"voice_count":3,"note_density":0.438,"motif_saturation":0.214,"interval_diversity":0.857,"rhythm_variety":0.5},{"measure":25,"complexity":0.468,"voice_count":3,"note_density":0.438,"motif_saturation":0.214,"interval_diversity":0.429,"rhythm_variety":0.5},{"measure":26,"complexity":0.598,"voice_count":4,"note_density":0.312,"motif_saturation":0.3,"interval_diversity":0.571,"rhythm_variety":0.833},{"measure":27,"complexity":0.405,"voice_count":2,"note_density":0.312,"motif_saturation":0.3,"interval_diversity":0.286,"rhythm_variety":0.667},{"measure":28,"complexity":0.38,"voice_count":2,"note_density":0.344,"motif_saturation":0.273,"interval_diversity":0.286,"rhythm_variety":0.5},{"measure":29,"complexity":0.357,"voice_count":2,"note_density":0.375,"motif_saturation":0.0,"interval_diversity":0.714,"rhythm_variety":0.333},{"measure":30,"complexity":0.37,"voice_count":2,"note_density":0.438,"motif_saturation":0.0,"interval_diversity":0.714,"rhythm_variety":0.333},{"measure":31,"complexity":0.511,"voice_count":3,"note_density":0.438,"motif_saturation":0.214,"interval_diversity":0.714,"rhythm_variety":0.5},{"measure":32,"complexity":0.444,"voice_count":3,"note_density":0.406,"motif_saturation":0.231,"interval_diversity":0.286,"rhythm_variety":0.5},{"measure":33,"complexity":0.536,"voice_count":3,"note_density":0.344,"motif_saturation":0.364,"interval_diversity":0.429,"rhythm_variety":0.833},{"measure":34,"complexity":0.691,"voice_count":4,"note_density":0.531,"motif_saturation":0.412,"interval_diversity":0.714,"rhythm_variety":0.833},{"measure":35,"complexity":0.559,"voice_count":4,"note_density":0.438,"motif_saturation":0.214,"interval_diversity":0.286,"rhythm_variety":0.833},{"measure":36,"complexity":0.594,"voice_count":4,"note_density":0.406,"motif_saturation":0.308,"interval_diversity":0.571,"rhythm_variety":0.667},{"measure":37,"complexity":0.552,"voice_count":4,"note_density":0.375,"motif_saturation":0.167,"interval_diversity":0.571,"rhythm_variety":0.667},{"measure":38,"complexity":0.439,"voice_count":3,"note_density":0.312,"motif_saturation":0.1,"interval_diversity":0.429,"rhythm_variety":0.667},{"measure":39,"complexity":0.618,"voice_count":3,"note_density":0.438,"motif_saturation":0.429,"interval_diversity":0.571,"rhythm_variety":1.0},{"measure":40,"complexity":0.559,"voice_count":3,"note_density":0.469,"motif_saturation":0.267,"interval_diversity":0.571,"rhythm_variety":0.833},{"measure":41,"complexity":0.537,"voice_count":3,"note_density":0.469,"motif_saturation":0.267,"interval_diversity":0.429,"rhythm_variety":0.833},{"measure":42,"complexity":0.436,"voice_count":3,"note_density":0.312,"motif_saturation":0.0,"interval_diversity":0.571,"rhythm_variety":0.667},{"measure":43,"complexity":0.47,"voice_count":3,"note_density":0.375,"motif_saturation":0.0,"interval_diversity":0.714,"rhythm_variety":0.667},{"measure":44,"complexity":0.688,"voice_count":4,"note_density":0.531,"motif_saturation":0.412,"interval_diversity":0.857,"rhythm_variety":0.667},{"measure":45,"complexity":0.627,"voice_count":4,"note_density":0.438,"motif_saturation":0.5,"interval_diversity":0.429,"rhythm_variety":0.667},{"measure":46,"complexity":0.656,"voice_count":4,"note_density":0.594,"motif_saturation":0.579,"interval_diversity":0.286,"rhythm_variety":0.667},{"measure":47,"complexity":0.528,"voice_count":4,"note_density":0.469,"motif_saturation":0.067,"interval_diversity":0.286,"rhythm_variety":0.833},{"measure":48,"complexity":0.555,"voice_count":4,"note_density":0.406,"motif_saturation":0.154,"interval_diversity":0.571,"rhythm_variety":0.667},{"measure":49,"complexity":0.612,"voice_count":3,"note_density":0.406,"motif_saturation":0.615,"interval_diversity":0.429,"rhythm_variety":0.833},{"measure":50,"complexity":0.626,"voice_count":4,"note_density":0.531,"motif_saturation":0.235,"interval_diversity":0.571,"rhythm_variety":0.833},{"measure":51,"complexity":0.558,"voice_count":4,"note_density":0.406,"motif_saturation":0.077,"interval_diversity":0.714,"rhythm_variety":0.667},{"measure":52,"complexity":0.586,"voice_count":4,"note_density":0.531,"motif_saturation":0.176,"interval_diversity":0.571,"rhythm_variety":0.667},{"measure":53,"complexity":0.609,"voice_count":4,"note_density":0.531,"motif_saturation":0.353,"interval_diversity":0.429,"rhythm_variety":0.667},{"measure":54,"complexity":0.578,"voice_count":4,"note_density":0.469,"motif_saturation":0.267,"interval_diversity":0.286,"rhythm_variety":0.833},{"measure":55,"complexity":0.559,"voice_count":4,"note_density":0.438,"motif_saturation":0.143,"interval_diversity":0.571,"rhythm_variety":0.667},{"measure":56,"complexity":0.501,"voice_count":3,"note_density":0.406,"motif_saturation":0.385,"interval_diversity":0.571,"rhythm_variety":0.333},{"measure":57,"complexity":0.342,"voice_count":2,"note_density":0.406,"motif_saturation":0.0,"interval_diversity":0.571,"rhythm_variety":0.333},{"measure":58,"complexity":0.46,"voice_count":3,"note_density":0.469,"motif_saturation":0.0,"interval_diversity":0.857,"rhythm_variety":0.333},{"measure":59,"complexity":0.47,"voice_count":3,"note_density":0.5,"motif_saturation":0.0,"interval_diversity":0.714,"rhythm_variety":0.5},{"measure":60,"complexity":0.464,"voice_count":4,"note_density":0.5,"motif_saturation":0.0,"interval_diversity":0.429,"rhythm_variety":0.333},{"measure":61,"complexity":0.361,"voice_count":2,"note_density":0.375,"motif_saturation":0.0,"interval_diversity":0.571,"rhythm_variety":0.5},{"measure":62,"complexity":0.454,"voice_count":3,"note_density":0.531,"motif_saturation":0.0,"interval_diversity":0.571,"rhythm_variety":0.5},{"measure":63,"complexity":0.47,"voice_count":3,"note_density":0.5,"motif_saturation":0.0,"interval_diversity":0.714,"rhythm_variety":0.5},{"measure":64,"complexity":0.466,"voice_count":3,"note_density":0.375,"motif_saturation":0.0,"interval_diversity":0.857,"rhythm_variety":0.5},{"measure":65,"complexity":0.457,"voice_count":3,"note_density":0.438,"motif_saturation":0.0,"interval_diversity":0.714,"rhythm_variety":0.5},{"measure":66,"complexity":0.686,"voice_count":4,"note_density":0.5,"motif_saturation":0.5,"interval_diversity":0.571,"rhythm_variety":0.833},{"measure":67,"complexity":0.652,"voice_count":4,"note_density":0.438,"motif_saturation":0.429,"interval_diversity":0.714,"rhythm_variety":0.667},{"measure":68,"complexity":0.613,"voice_count":4,"note_density":0.594,"motif_saturation":0.421,"interval_diversity":0.429,"rhythm_variety":0.5},{"measure":69,"complexity":0.533,"voice_count":4,"note_density":0.469,"motif_saturation":0.0,"interval_diversity":0.429,"rhythm_variety":0.833},{"measure":70,"complexity":0.542,"voice_count":4,"note_density":0.531,"motif_saturation":0.0,"interval_diversity":0.571,"rhythm_variety":0.667},{"measure":71,"complexity":0.514,"voice_count":4,"note_density":0.5,"motif_saturation":0.0,"interval_diversity":0.429,"rhythm_variety":0.667},{"measure":72,"complexity":0.498,"voice_count":4,"note_density":0.438,"motif_saturation":0.0,"interval_diversity":0.571,"rhythm_variety":0.5},{"measure":73,"complexity":0.514,"voice_count":4,"note_density":0.5,"motif_saturation":0.0,"interval_diversity":0.429,"rhythm_variety":0.667},{"measure":74,"complexity":0.498,"voice_count":4,"note_density":0.438,"motif_saturation":0.0,"interval_diversity":0.571,"rhythm_variety":0.5},{"measure":75,"complexity":0.74,"voice_count":4,"note_density":0.531,"motif_saturation":0.706,"interval_diversity":0.714,"rhythm_variety":0.667},{"measure":76,"complexity":0.613,"voice_count":4,"note_density":0.469,"motif_saturation":0.333,"interval_diversity":0.571,"rhythm_variety":0.667},{"measure":77,"complexity":0.522,"voice_count":4,"note_density":0.562,"motif_saturation":0.167,"interval_diversity":0.286,"rhythm_variety":0.5},{"measure":78,"complexity":0.527,"voice_count":4,"note_density":0.438,"motif_saturation":0.0,"interval_diversity":0.429,"rhythm_variety":0.833},{"measure":79,"complexity":0.492,"voice_count":4,"note_density":0.406,"motif_saturation":0.0,"interval_diversity":0.571,"rhythm_variety":0.5},{"measure":80,"complexity":0.463,"voice_count":3,"note_density":0.344,"motif_saturation":0.0,"interval_diversity":0.714,"rhythm_variety":0.667},{"measure":81,"complexity":0.47,"voice_count":3,"note_density":0.375,"motif_saturation":0.0,"interval_diversity":0.714,"rhythm_variety":0.667},{"measure":82,"complexity":0.51,"voice_count":3,"note_density":0.344,"motif_saturation":0.0,"interval_diversity":0.857,"rhythm_variety":0.833},{"measure":83,"complexity":0.442,"voice_count":3,"note_density":0.344,"motif_saturation":0.0,"interval_diversity":0.571,"rhythm_variety":0.667},{"measure":84,"complexity":0.463,"voice_count":3,"note_density":0.344,"motif_saturation":0.0,"interval_diversity":0.714,"rhythm_variety":0.667},{"measure":85,"complexity":0.72,"voice_count":4,"note_density":0.625,"motif_saturation":0.55,"interval_diversity":0.714,"rhythm_variety":0.667},{"measure":86,"complexity":0.629,"voice_count":4,"note_density":0.469,"motif_saturation":0.4,"interval_diversity":0.571,"rhythm_variety":0.667},{"measure":87,"complexity":0.664,"voice_count":4,"note_density":0.688,"motif_saturation":0.364,"interval_diversity":0.571,"rhythm_variety":0.667},{"measure":88,"complexity":0.608,"voice_count":4,"note_density":0.5,"motif_saturation":0.188,"interval_diversity":0.571,"rhythm_variety":0.833},{"measure":89,"complexity":0.528,"voice_count":4,"note_density":0.375,"motif_saturation":0.083,"interval_diversity":0.714,"rhythm_variety":0.5},{"measure":90,"complexity":0.581,"voice_count":4,"note_density":0.5,"motif_saturation":0.125,"interval_diversity":1.0,"rhythm_variety":0.333},{"measure":91,"complexity":0.498,"voice_count":4,"note_density":0.438,"motif_saturation":0.0,"interval_diversity":0.571,"rhythm_variety":0.5},{"measure":92,"complexity":0.575,"voice_count":4,"note_density":0.5,"motif_saturation":0.188,"interval_diversity":0.857,"rhythm_variety":0.333},{"measure":93,"complexity":0.538,"voice_count":4,"note_density":0.531,"motif_saturation":0.0,"interval_diversity":0.714,"rhythm_variety":0.5},{"measure":94,"complexity":0.517,"voice_count":4,"note_density":0.531,"motif_saturation":0.0,"interval_diversity":0.571,"rhythm_variety":0.5},{"measure":95,"complexity":0.568,"voice_count":4,"note_density":0.469,"motif_saturation":0.067,"interval_diversity":0.714,"rhythm_variety":0.667},{"measure":96,"complexity":0.609,"voice_count":4,"note_density":0.469,"motif_saturation":0.333,"interval_diversity":0.714,"rhythm_variety":0.5},{"measure":97,"complexity":0.588,"voice_count":4,"note_density":0.5,"motif_saturation":0.125,"interval_diversity":0.714,"rhythm_variety":0.667},{"measure":98,"complexity":0.556,"voice_count":4,"note_density":0.375,"motif_saturation":0.167,"interval_diversity":0.429,"rhythm_variety":0.833},{"measure":99,"complexity":0.529,"voice_count":3,"note_density":0.406,"motif_saturation":0.385,"interval_diversity":0.429,"rhythm_variety":0.667},{"measure":100,"complexity":0.537,"voice_count":3,"note_density":0.469,"motif_saturation":0.467,"interval_diversity":0.429,"rhythm_variety":0.5},{"measure":101,"complexity":0.448,"voice_count":3,"note_density":0.375,"motif_saturation":0.083,"interval_diversity":0.429,"rhythm_variety":0.667},{"measure":102,"complexity":0.492,"voice_count":3,"note_density":0.469,"motif_saturation":0.2,"interval_diversity":0.571,"rhythm_variety":0.5},{"measure":103,"complexity":0.67,"voice_count":4,"note_density":0.562,"motif_saturation":0.5,"interval_diversity":0.714,"rhythm_variety":0.5},{"measure":104,"complexity":0.571,"voice_count":4,"note_density":0.531,"motif_saturation":0.118,"interval_diversity":0.571,"rhythm_variety":0.667},{"measure":105,"complexity":0.619,"voice_count":4,"note_density":0.688,"motif_saturation":0.182,"interval_diversity":0.571,"rhythm_variety":0.667},{"measure":106,"complexity":0.514,"voice_count":4,"note_density":0.625,"motif_saturation":0.0,"interval_diversity":0.429,"rhythm_variety":0.5},{"measure":107,"complexity":0.555,"voice_count":4,"note_density":0.438,"motif_saturation":0.143,"interval_diversity":0.714,"rhythm_variety":0.5},{"measure":108,"complexity":0.486,"voice_count":3,"note_density":0.438,"motif_saturation":0.214,"interval_diversity":0.714,"rhythm_variety":0.333},{"measure":109,"complexity":0.51,"voice_count":3,"note_density":0.594,"motif_saturation":0.0,"interval_diversity":0.857,"rhythm_variety":0.5},{"measure":110,"complexity":0.47,"voice_count":3,"note_density":0.5,"motif_saturation":0.0,"interval_diversity":0.714,"rhythm_variety":0.5},{"measure":111,"complexity":0.439,"voice_count":3,"note_density":0.438,"motif_saturation":0.0,"interval_diversity":0.429,"rhythm_variety":0.667},{"measure":112,"complexity":0.466,"voice_count":3,"note_density":0.5,"motif_saturation":0.0,"interval_diversity":0.857,"rhythm_variety":0.333},{"measure":113,"complexity":0.525,"voice_count":3,"note_density":0.438,"motif_saturation":0.357,"interval_diversity":0.571,"rhythm_variety":0.5},{"measure":114,"complexity":0.443,"voice_count":3,"note_density":0.344,"motif_saturation":0.091,"interval_diversity":0.429,"rhythm_variety":0.667},{"measure":115,"complexity":0.708,"voice_count":4,"note_density":0.5,"motif_saturation":0.688,"interval_diversity":0.571,"rhythm_variety":0.667},{"measure":116,"complexity":0.601,"voice_count":4,"note_density":0.531,"motif_saturation":0.235,"interval_diversity":0.571,"rhythm_variety":0.667},{"measure":117,"complexity":0.629,"voice_count":4,"note_density":0.656,"motif_saturation":0.333,"interval_diversity":0.429,"rhythm_variety":0.667},{"measure":118,"complexity":0.552,"voice_count":4,"note_density":0.562,"motif_saturation":0.0,"interval_diversity":0.429,"rhythm_variety":0.833},{"measure":119,"complexity":0.38,"voice_count":3,"note_density":0.25,"motif_saturation":0.0,"interval_diversity":0.286,"rhythm_variety":0.667},{"measure":120,"complexity":0.256,"voice_count":3,"note_density":0.094,"motif_saturation":0.0,"interval_diversity":0.0,"rhythm_variety":0.333}],"dissonance":[{"measure":1,"dissonance":0,"dissonant_pairs":0,"total_pairs":0},{"measure":2,"dissonance":0,"dissonant_pairs":0,"total_pairs":0},{"measure":3,"dissonance":0.8,"dissonant_pairs":0.8,"total_pairs":1},{"measure":4,"dissonance":0.0,"dissonant_pairs":0,"total_pairs":4},{"measure":5,"dissonance":0.214,"dissonant_pairs":1.5,"total_pairs":7},{"measure":6,"dissonance":0.143,"dissonant_pairs":1.0,"total_pairs":7},{"measure":7,"dissonance":0.079,"dissonant_pairs":1.5,"total_pairs":19},{"measure":8,"dissonance":0.254,"dissonant_pairs":6.6,"total_pairs":26},{"measure":9,"dissonance":0.109,"dissonant_pairs":2.4,"total_pairs":22},{"measure":10,"dissonance":0.081,"dissonant_pairs":2.5,"total_pairs":31},{"measure":11,"dissonance":0.09,"dissonant_pairs":1.8,"total_pairs":20},{"measure":12,"dissonance":0.163,"dissonant_pairs":3.9,"total_pairs":24},{"measure":13,"dissonance":0.083,"dissonant_pairs":2.0,"total_pairs":24},{"measure":14,"dissonance":0.22,"dissonant_pairs":8.8,"total_pairs":40},{"measure":15,"dissonance":0.164,"dissonant_pairs":6.4,"total_pairs":39},{"measure":16,"dissonance":0.163,"dissonant_pairs":7.8,"total_pairs":48},{"measure":17,"dissonance":0.095,"dissonant_pairs":3.8,"total_pairs":40},{"measure":18,"dissonance":0.102,"dissonant_pairs":4.3,"total_pairs":42},{"measure":19,"dissonance":0.08,"dissonant_pairs":3.6,"total_pairs":45},{"measure":20,"dissonance":0.097,"dissonant_pairs":3.5,"total_pairs":36},{"measure":21,"dissonance":0.064,"dissonant_pairs":2.1,"total_pairs":33},{"measure":22,"dissonance":0.113,"dissonant_pairs":1.8,"total_pairs":16},{"measure":23,"dissonance":0.25,"dissonant_pairs":2.0,"total_pairs":8},{"measure":24,"dissonance":0.054,"dissonant_pairs":1.3,"total_pairs":24},{"measure":25,"dissonance":0.196,"dissonant_pairs":4.7,"total_pairs":24},{"measure":26,"dissonance":0.0,"dissonant_pairs":0,"total_pairs":18},{"measure":27,"dissonance":0.111,"dissonant_pairs":1.0,"total_pairs":9},{"measure":28,"dissonance":0.163,"dissonant_pairs":1.3,"total_pairs":8},{"measure":29,"dissonance":0.2,"dissonant_pairs":1.6,"total_pairs":8},{"measure":30,"dissonance":0.0,"dissonant_pairs":0,"total_pairs":8},{"measure":31,"dissonance":0.104,"dissonant_pairs":2.5,"total_pairs":24},{"measure":32,"dissonance":0.091,"dissonant_pairs":2.0,"total_pairs":22},{"measure":33,"dissonance":0.118,"dissonant_pairs":2.6,"total_pairs":22},{"measure":34,"dissonance":0.154,"dissonant_pairs":7.4,"total_pairs":48},{"measure":35,"dissonance":0.091,"dissonant_pairs":4.1,"total_pairs":45},{"measure":36,"dissonance":0.19,"dissonant_pairs":5.9,"total_pairs":31},{"measure":37,"dissonance":0.148,"dissonant_pairs":4.9,"total_pairs":33},{"measure":38,"dissonance":0.159,"dissonant_pairs":3.5,"total_pairs":22},{"measure":39,"dissonance":0.155,"dissonant_pairs":3.4,"total_pairs":22},{"measure":40,"dissonance":0.17,"dissonant_pairs":3.9,"total_pairs":23},{"measure":41,"dissonance":0.104,"dissonant_pairs":2.6,"total_pairs":25},{"measure":42,"dissonance":0.045,"dissonant_pairs":1.0,"total_pairs":22},{"measure":43,"dissonance":0.18,"dissonant_pairs":3.6,"total_pairs":20},{"measure":44,"dissonance":0.152,"dissonant_pairs":6.4,"total_pairs":42},{"measure":45,"dissonance":0.057,"dissonant_pairs":2.3,"total_pairs":40},{"measure":46,"dissonance":0.18,"dissonant_pairs":8.1,"total_pairs":45},{"measure":47,"dissonance":0.164,"dissonant_pairs":7.4,"total_pairs":45},{"measure":48,"dissonance":0.093,"dissonant_pairs":2.8,"total_pairs":30},{"measure":49,"dissonance":0.13,"dissonant_pairs":2.6,"total_pairs":20},{"measure":50,"dissonance":0.1,"dissonant_pairs":3.8,"total_pairs":38},{"measure":51,"dissonance":0.235,"dissonant_pairs":4.7,"total_pairs":20},{"measure":52,"dissonance":0.107,"dissonant_pairs":4.3,"total_pairs":40},{"measure":53,"dissonance":0.048,"dissonant_pairs":2.0,"total_pairs":42},{"measure":54,"dissonance":0.102,"dissonant_pairs":4.3,"total_pairs":42},{"measure":55,"dissonance":0.091,"dissonant_pairs":3.0,"total_pairs":33},{"measure":56,"dissonance":0.083,"dissonant_pairs":1.0,"total_pairs":12},{"measure":57,"dissonance":0.225,"dissonant_pairs":1.8,"total_pairs":8},{"measure":58,"dissonance":0.195,"dissonant_pairs":3.9,"total_pairs":20},{"measure":59,"dissonance":0.129,"dissonant_pairs":3.1,"total_pairs":24},{"measure":60,"dissonance":0.0,"dissonant_pairs":0,"total_pairs":12},{"measure":61,"dissonance":0.062,"dissonant_pairs":0.5,"total_pairs":8},{"measure":62,"dissonance":0.025,"dissonant_pairs":0.5,"total_pairs":20},{"measure":63,"dissonance":0.1,"dissonant_pairs":2.0,"total_pairs":20},{"measure":64,"dissonance":0.0,"dissonant_pairs":0,"total_pairs":20},{"measure":65,"dissonance":0.115,"dissonant_pairs":2.3,"total_pairs":20},{"measure":66,"dissonance":0.147,"dissonant_pairs":6.6,"total_pairs":45},{"measure":67,"dissonance":0.066,"dissonant_pairs":2.5,"total_pairs":38},{"measure":68,"dissonance":0.145,"dissonant_pairs":6.1,"total_pairs":42},{"measure":69,"dissonance":0.122,"dissonant_pairs":4.9,"total_pairs":40},{"measure":70,"dissonance":0.083,"dissonant_pairs":3.0,"total_pairs":36},{"measure":71,"dissonance":0.039,"dissonant_pairs":1.3,"total_pairs":33},{"measure":72,"dissonance":0.156,"dissonant_pairs":3.9,"total_pairs":25},{"measure":73,"dissonance":0.085,"dissonant_pairs":2.8,"total_pairs":33},{"measure":74,"dissonance":0.103,"dissonant_pairs":3.1,"total_pairs":30},{"measure":75,"dissonance":0.079,"dissonant_pairs":3.3,"total_pairs":42},{"measure":76,"dissonance":0.048,"dissonant_pairs":2.0,"total_pairs":42},{"measure":77,"dissonance":0.151,"dissonant_pairs":6.8,"total_pairs":45},{"measure":78,"dissonance":0.089,"dissonant_pairs":4.0,"total_pairs":45},{"measure":79,"dissonance":0.06,"dissonant_pairs":1.5,"total_pairs":25},{"measure":80,"dissonance":0.105,"dissonant_pairs":2.3,"total_pairs":22},{"measure":81,"dissonance":0.111,"dissonant_pairs":2.0,"total_pairs":18},{"measure":82,"dissonance":0.084,"dissonant_pairs":1.6,"total_pairs":19},{"measure":83,"dissonance":0.125,"dissonant_pairs":1.5,"total_pairs":12},{"measure":84,"dissonance":0.155,"dissonant_pairs":3.4,"total_pairs":22},{"measure":85,"dissonance":0.176,"dissonant_pairs":7.9,"total_pairs":45},{"measure":86,"dissonance":0.026,"dissonant_pairs":1.0,"total_pairs":38},{"measure":87,"dissonance":0.147,"dissonant_pairs":6.6,"total_pairs":45},{"measure":88,"dissonance":0.17,"dissonant_pairs":7.3,"total_pairs":43},{"measure":89,"dissonance":0.085,"dissonant_pairs":2.3,"total_pairs":27},{"measure":90,"dissonance":0.142,"dissonant_pairs":4.4,"total_pairs":31},{"measure":91,"dissonance":0.169,"dissonant_pairs":5.4,"total_pairs":32},{"measure":92,"dissonance":0.065,"dissonant_pairs":2.0,"total_pairs":31},{"measure":93,"dissonance":0.083,"dissonant_pairs":3.5,"total_pairs":42},{"measure":94,"dissonance":0.097,"dissonant_pairs":3.3,"total_pairs":34},{"measure":95,"dissonance":0.107,"dissonant_pairs":4.3,"total_pairs":40},{"measure":96,"dissonance":0.107,"dissonant_pairs":4.3,"total_pairs":40},{"measure":97,"dissonance":0.11,"dissonant_pairs":4.4,"total_pairs":40},{"measure":98,"dissonance":0.12,"dissonant_pairs":3.0,"total_pairs":25},{"measure":99,"dissonance":0.125,"dissonant_pairs":2.5,"total_pairs":20},{"measure":100,"dissonance":0.025,"dissonant_pairs":0.5,"total_pairs":20},{"measure":101,"dissonance":0.118,"dissonant_pairs":2.6,"total_pairs":22},{"measure":102,"dissonance":0.094,"dissonant_pairs":1.5,"total_pairs":16},{"measure":103,"dissonance":0.125,"dissonant_pairs":5.0,"total_pairs":40},{"measure":104,"dissonance":0.095,"dissonant_pairs":3.6,"total_pairs":38},{"measure":105,"dissonance":0.14,"dissonant_pairs":6.3,"total_pairs":45},{"measure":106,"dissonance":0.13,"dissonant_pairs":5.6,"total_pairs":43},{"measure":107,"dissonance":0.1,"dissonant_pairs":2.3,"total_pairs":23},{"measure":108,"dissonance":0.117,"dissonant_pairs":2.8,"total_pairs":24},{"measure":109,"dissonance":0.075,"dissonant_pairs":1.5,"total_pairs":20},{"measure":110,"dissonance":0.075,"dissonant_pairs":1.5,"total_pairs":20},{"measure":111,"dissonance":0.075,"dissonant_pairs":1.8,"total_pairs":24},{"measure":112,"dissonance":0.091,"dissonant_pairs":2.0,"total_pairs":22},{"measure":113,"dissonance":0.2,"dissonant_pairs":4.4,"total_pairs":22},{"measure":114,"dissonance":0.159,"dissonant_pairs":3.5,"total_pairs":22},{"measure":115,"dissonance":0.126,"dissonant_pairs":4.8,"total_pairs":38},{"measure":116,"dissonance":0.121,"dissonant_pairs":4.6,"total_pairs":38},{"measure":117,"dissonance":0.117,"dissonant_pairs":5.6,"total_pairs":48},{"measure":118,"dissonance":0.123,"dissonant_pairs":5.3,"total_pairs":43},{"measure":119,"dissonance":0.163,"dissonant_pairs":1.3,"total_pairs":8},{"measure":120,"dissonance":0.0,"dissonant_pairs":0,"total_pairs":4}]}