{"metadata":{"title":"The Art of the Fugue, Contrapunctus IV","number":"IV","composer":"J.S. Bach","source_midi":"kunst_der_fuge_iv_mutopia.mid","tempo_bpm":120.0,"tempo_us_per_beat":500000,"ticks_per_beat":384,"time_signature":"4/4","key_signature":"D minor","total_duration_seconds":276.0,"total_measures":138,"beats_per_measure":4},"voices":[{"id":0,"name":"Soprano","midi_channel":0,"midi_track":1,"color":"#E85D4A","pitch_min":62,"pitch_max":84,"note_count":422},{"id":1,"name":"Alto","midi_channel":1,"midi_track":2,"color":"#4A90D9","pitch_min":57,"pitch_max":79,"note_count":495},{"id":2,"name":"Tenor","midi_channel":2,"midi_track":3,"color":"#27AE60","pitch_min":47,"pitch_max":70,"note_count":460},{"id":3,"name":"Bass","midi_channel":3,"midi_track":4,"color":"#8E44AD","pitch_min":38,"pitch_max":62,"note_count":426}],"notes":[{"voice":0,"pitch":69,"start":0.0,"duration":1.0,"velocity":127,"measure":1,"beat":1.0,"subject_pos":0,"motif":"subject_inv","motif_pos":0,"best_pos":0,"similarity":1.0,"stretto":false,"stretto_voices":0,"combination":[]},{"voice":0,"pitch":62,"start":1.0,"duration":1.0,"velocity":127,"measure":1,"beat":3.0,"subject_pos":1,"motif":"subject_inv","motif_pos":1,"best_pos":1,"similarity":1.0,"stretto":false,"stretto_voices":0,"combination":[]},{"voice":0,"pitch":65,"start":2.0,"duration":1.0,"velocity":127,"measure":2,"beat":1.0,"subject_pos":2,"motif":"subject_inv","motif_pos":2,"best_pos":2,"similarity":1.0,"stretto":false,"stretto_voices":0,"combination":[]},{"voice":0,"pitch":69,"start":3.0,"duration":1.0,"velocity":127,"measure":2,"beat":3.0,"subject_pos":3,"motif":"subject_inv","motif_pos":3,"best_pos":3,"similarity":1.0,"stretto":false,"stretto_voices":0,"combination":[]},{"voice":0,"pitch":70,"start":4.0,"duration":1.0,"velocity":127,"measure":3,"beat":1.0,"subject_pos":4,"motif":"subject_inv","motif_pos":4,"best_pos":4,"similarity":1.0,"stretto":false,"stretto_voices":0,"combination":[]},{"voice":0,"pitch":69,"start":5.0,"duration":0.5,"velocity":127,"measure":3,"beat":3.0,"subject_pos":5,"motif":"subject_inv","motif_pos":5,"best_pos":5,"similarity":1.0,"stretto":false,"stretto_voices":0,"combination":[]},{"voice":0,"pitch":67,"start":5.5,"duration":0.5,"velocity":127,"measure":3,"beat":4.0,"subject_pos":6,"motif":"subject_inv","motif_pos":6,"best_pos":6,"similarity":1.0,"stretto":false,"stretto_voices":0,"combination":[]},{"voice":0,"pitch":65,"start":6.0,"duration":1.25,"velocity":127,"measure":4,"beat":1.0,"subject_pos":7,"motif":"subject_inv","motif_pos":7,"best_pos":7,"similarity":1.0,"stretto":false,"stretto_voices":0,"combination":[]},{"voice":0,"pitch":64,"start":7.25,"duration":0.25,"velocity":127,"measure":4,"beat":3.5,"subject_pos":-1,"motif":"","motif_pos":-1,"best_pos":4,"similarity":0.893,"stretto":false,"stretto_voices":0,"combination":[]},{"voice":0,"pitch":65,"start":7.5,"duration":0.25,"velocity":127,"measure":4,"beat":4.0,"subject_pos":-1,"motif":"","motif_pos":-1,"best_pos":5,"similarity":0.821,"stretto":false,"stretto_voices":0,"combination":[]},{"voice":0,"pitch":67,"start":7.75,"duration":0.25,"velocity":127,"measure":4,"beat":4.5,"subject_pos":-1,"motif":"","motif_pos":-1,"best_pos":6,"similarity":0.643,"stretto":false,"stretto_voices":0,"combination":[]},{"voice":0,"pitch":69,"start":8.0,"duration":1.25,"velocity":127,"measure":5,"beat":1.0,"subject_pos":-1,"motif":"","motif_pos":-1,"best_pos":6,"similarity":0.661,"stretto":false,"stretto_voices":0,"combination":[]},{"voice":1,"pitch":62,"start":8.0,"duration":1.0,"velocity":127,"measure":5,"beat":1.0,"subject_pos":0,"motif":"subject_inv","motif_pos":0,"best_pos":0,"similarity":1.0,"stretto":false,"stretto_voices":0,"combination":[]},{"voice":1,"pitch":57,"start":9.0,"duration":1.0,"velocity":127,"measure":5,"beat":3.0,"subject_pos":1,"motif":"subject_inv","motif_pos":1,"best_pos":1,"similarity":1.0,"stretto":false,"stretto_voices":0,"combination":[]},{"voice":0,"pitch":70,"start":9.25,"duration":0.25,"velocity":127,"measure":5,"beat":3.5,"subject_pos":-1,"motif":"","motif_pos":-1,"best_pos":7,"similarity":0.464,"stretto":false,"stretto_voices":0,"combination":[]},{"voice":0,"pitch":69,"start":9.5,"duration":0.25,"velocity":127,"measure":5,"beat":4.0,"subject_pos":-1,"motif":"","motif_pos":-1,"best_pos":3,"similarity":0.557,"stretto":false,"stretto_voices":0,"combination":[]},{"voice":0,"pitch":68,"start":9.75,"duration":0.25,"velocity":127,"measure":5,"beat":4.5,"subject_pos":-1,"motif":"","motif_pos":-1,"best_pos":4,"similarity":0.704,"stretto":false,"stretto_voices":0,"combination":[]},{"voice":0,"pitch":69,"start":10.0,"duration":1.25,"velocity":127,"measure":6,"beat":1.0,"subject_pos":-1,"motif":"","motif_pos":-1,"best_pos":5,"similarity":0.625,"stretto":false,"stretto_voices":0,"combination":[]},{"voice":1,"pitch":60,"start":10.0,"duration":1.0,"velocity":127,"measure":6,"beat":1.0,"subject_pos":2,"motif":"subject_inv","motif_pos":2,"best_pos":2,"similarity":1.0,"stretto":false,"stretto_voices":0,"combination":[]},{"voice":1,"pitch":64,"start":11.0,"duration":1.0,"velocity":127,"measure":6,"beat":3.0,"subject_pos":3,"motif":"subject_inv","motif_pos":3,"best_pos":3,"similarity":1.0,"stretto":false,"stretto_voices":0,"combination":[]},{"voice":0,"pitch":70,"start":11.25,"duration":0.25,"velocity":127,"measure":6,"beat":3.5,"subject_pos":-1,"motif":"","motif_pos":-1,"best_pos":6,"similarity":0.429,"stretto":false,"stretto_voices":0,"combination":[]},{"voice":0,"pitch":69,"start":11.5,"duration":0.25,"velocity":127,"measure":6,"beat":4.0,"subject_pos":-1,"motif":"","motif_pos":-1,"best_pos":3,"similarity":0.529,"stretto":false,"stretto_voices":0,"combination":[]},{"voice":0,"pitch":68,"start":11.75,"duration":0.25,"velocity":127,"measure":6,"beat":4.5,"subject_pos":-1,"motif":"","motif_pos":-1,"best_pos":4,"similarity":0.629,"stretto":false,"stretto_voices":0,"combination":[]},{"voice":0,"pitch":69,"start":12.0,"duration":0.5,"velocity":127,"measure":7,"beat":1.0,"subject_pos":-1,"motif":"","motif_pos":-1,"best_pos":5,"similarity":0.475,"stretto":false,"stretto_voices":0,"combination":[]},{"voice":1,"pitch":65,"start":12.0,"duration":1.0,"velocity":127,"measure":7,"beat":1.0,"subject_pos":4,"motif":"subject_inv","motif_pos":4,"best_pos":4,"similarity":1.0,"stretto":false,"stretto_voices":0,"combination":[]},{"voice":0,"pitch":74,"start":12.5,"duration":0.5,"velocity":127,"measure":7,"beat":2.0,"subject_pos":-1,"motif":"","motif_pos":-1,"best_pos":1,"similarity":0.314,"stretto":false,"stretto_voices":0,"combination":[]},{"voice":0,"pitch":67,"start":13.0,"duration":0.5,"velocity":127,"measure":7,"beat":3.0,"subject_pos":-1,"motif":"","motif_pos":-1,"best_pos":2,"similarity":0.179,"stretto":false,"stretto_voices":0,"combination":[]},{"voice":1,"pitch":64,"start":13.0,"duration":0.5,"velocity":127,"measure":7,"beat":3.0,"subject_pos":5,"motif":"subject_inv","motif_pos":5,"best_pos":5,"similarity":1.0,"stretto":false,"stretto_voices":0,"combination":[]},{"voice":0,"pitch":70,"start":13.5,"duration":1.0,"velocity":127,"measure":7,"beat":4.0,"subject_pos":-1,"motif":"","motif_pos":-1,"best_pos":1,"similarity":0.179,"stretto":false,"stretto_voices":0,"combination":[]},{"voice":1,"pitch":62,"start":13.5,"duration":0.5,"velocity":127,"measure":7,"beat":4.0,"subject_pos":6,"motif":"subject_inv","motif_pos":6,"best_pos":6,"similarity":1.0,"stretto":false,"stretto_voices":0,"combination":[]},{"voice":1,"pitch":61,"start":14.0,"duration":1.25,"velocity":127,"measure":8,"beat":1.0,"subject_pos":7,"motif":"subject_inv","motif_pos":7,"best_pos":7,"similarity":1.0,"stretto":false,"stretto_voices":0,"combination":[]},{"voice":0,"pitch":64,"start":14.5,"duration":0.5,"velocity":127,"measure":8,"beat":2.0,"subject_pos":-1,"motif":"","motif_pos":-1,"best_pos":0,"similarity":0.464,"stretto":false,"stretto_voices":0,"combination":[]},{"voice":0,"pitch":69,"start":15.0,"duration":0.5,"velocity":127,"measure":8,"beat":3.0,"subject_pos":-1,"motif":"","motif_pos":-1,"best_pos":1,"similarity":0.643,"stretto":false,"stretto_voices":0,"combination":[]},{"voice":1,"pitch":57,"start":15.25,"duration":0.25,"velocity":127,"measure":8,"beat":3.5,"subject_pos":-1,"motif":"","motif_pos":-1,"best_pos":5,"similarity":0.536,"stretto":false,"stretto_voices":0,"combination":[]},{"voice":0,"pitch":67,"start":15.5,"duration":1.0,"velocity":127,"measure":8,"beat":4.0,"subject_pos":-1,"motif":"","motif_pos":-1,"best_pos":2,"similarity":0.589,"stretto":false,"stretto_voices":0,"combination":[]},{"voice":1,"pitch":59,"start":15.5,"duration":0.25,"velocity":127,"measure":8,"beat":4.0,"subject_pos":-1,"motif":"","motif_pos":-1,"best_pos":5,"similarity":0.604,"stretto":false,"stretto_voices":0,"combination":[]},{"voice":1,"pitch":61,"start":15.75,"duration":0.25,"velocity":127,"measure":8,"beat":4.5,"subject_pos":-1,"motif":"","motif_pos":-1,"best_pos":6,"similarity":0.65,"stretto":false,"stretto_voices":0,"combination":[]},{"voice":1,"pitch":62,"start":16.0,"duration":1.25,"velocity":127,"measure":9,"beat":1.0,"subject_pos":-1,"motif":"","motif_pos":-1,"best_pos":7,"similarity":0.464,"stretto":false,"stretto_voices":0,"combination":[]},{"voice":0,"pitch":65,"start":16.5,"duration":0.5,"velocity":127,"measure":9,"beat":2.0,"subject_pos":-1,"motif":"","motif_pos":-1,"best_pos":2,"similarity":0.436,"stretto":false,"stretto_voices":0,"combination":[]},{"voice":0,"pitch":70,"start":17.0,"duration":1.5,"velocity":127,"measure":9,"beat":3.0,"subject_pos":-1,"motif":"enigmatic_cell","motif_pos":0,"best_pos":0,"similarity":1.0,"stretto":false,"stretto_voices":0,"combination":[]},{"voice":1,"pitch":60,"start":17.25,"duration":0.25,"velocity":127,"measure":9,"beat":3.5,"subject_pos":-1,"motif":"","motif_pos":-1,"best_pos":4,"similarity":0.521,"stretto":false,"stretto_voices":0,"combination":[]},{"voice":1,"pitch":62,"start":17.5,"duration":0.25,"velocity":127,"measure":9,"beat":4.0,"subject_pos":-1,"motif":"","motif_pos":-1,"best_pos":5,"similarity":0.65,"stretto":false,"stretto_voices":0,"combination":[]},{"voice":1,"pitch":64,"start":17.75,"duration":0.25,"velocity":127,"measure":9,"beat":4.5,"subject_pos":-1,"motif":"","motif_pos":-1,"best_pos":6,"similarity":0.679,"stretto":false,"stretto_voices":0,"combination":[]},{"voice":1,"pitch":65,"start":18.0,"duration":1.25,"velocity":127,"measure":10,"beat":1.0,"subject_pos":-1,"motif":"","motif_pos":-1,"best_pos":3,"similarity":0.55,"stretto":false,"stretto_voices":0,"combination":[]},{"voice":0,"pitch":69,"start":18.5,"duration":0.5,"velocity":127,"measure":10,"beat":2.0,"subject_pos":-1,"motif":"enigmatic_cell","motif_pos":1,"best_pos":1,"similarity":1.0,"stretto":false,"stretto_voices":0,"combination":[]},{"voice":0,"pitch":74,"start":19.0,"duration":1.5,"velocity":127,"measure":10,"beat":3.0,"subject_pos":-1,"motif":"enigmatic_cell","motif_pos":2,"best_pos":2,"similarity":1.0,"stretto":false,"stretto_voices":0,"combination":[]},{"voice":1,"pitch":64,"start":19.25,"duration":0.25,"velocity":127,"measure":10,"beat":3.5,"subject_pos":-1,"motif":"","motif_pos":-1,"best_pos":4,"similarity":0.771,"stretto":false,"stretto_voices":0,"combination":[]},{"voice":1,"pitch":65,"start":19.5,"duration":0.25,"velocity":127,"measure":10,"beat":4.0,"subject_pos":-1,"motif":"","motif_pos":-1,"best_pos":5,"similarity":0.793,"stretto":false,"stretto_voices":0,"combination":[]},{"voice":1,"pitch":67,"start":19.75,"duration":0.25,"velocity":127,"measure":10,"beat":4.5,"subject_pos":-1,"motif":"","motif_pos":-1,"best_pos":6,"similarity":0.643,"stretto":false,"stretto_voices":0,"combination":[]},{"voice":1,"pitch":69,"start":20.0,"duration":1.25,"velocity":127,"measure":11,"beat":1.0,"subject_pos":-1,"motif":"","motif_pos":-1,"best_pos":1,"similarity":0.457,"stretto":false,"stretto_voices":0,"combination":[]},{"voice":2,"pitch":57,"start":20.0,"duration":1.0,"velocity":127,"measure":11,"beat":1.0,"subject_pos":0,"motif":"subject_inv","motif_pos":0,"best_pos":0,"similarity":1.0,"stretto":false,"stretto_voices":0,"combination":[]},{"voice":0,"pitch":72,"start":20.5,"duration":0.5,"velocity":127,"measure":11,"beat":2.0,"subject_pos":-1,"motif":"","motif_pos":-1,"best_pos":2,"similarity":0.721,"stretto":false,"stretto_voices":0,"combination":[]},{"voice":0,"pitch":70,"start":21.0,"duration":1.5,"velocity":127,"measure":11,"beat":3.0,"subject_pos":-1,"motif":"","motif_pos":-1,"best_pos":3,"similarity":0.664,"stretto":false,"stretto_voices":0,"combination":[]},{"voice":2,"pitch":50,"start":21.0,"duration":1.0,"velocity":127,"measure":11,"beat":3.0,"subject_pos":1,"motif":"subject_inv","motif_pos":1,"best_pos":1,"similarity":1.0,"stretto":false,"stretto_voices":0,"combination":[]},{"voice":1,"pitch":67,"start":21.25,"duration":0.25,"velocity":127,"measure":11,"beat":3.5,"subject_pos":-1,"motif":"","motif_pos":-1,"best_pos":2,"similarity":0.593,"stretto":false,"stretto_voices":0,"combination":[]},{"voice":1,"pitch":65,"start":21.5,"duration":0.25,"velocity":127,"measure":11,"beat":4.0,"subject_pos":-1,"motif":"","motif_pos":-1,"best_pos":3,"similarity":0.664,"stretto":false,"stretto_voices":0,"combination":[]},{"voice":1,"pitch":64,"start":21.75,"duration":0.25,"velocity":127,"measure":11,"beat":4.5,"subject_pos":-1,"motif":"","motif_pos":-1,"best_pos":4,"similarity":0.607,"stretto":false,"stretto_voices":0,"combination":[]},{"voice":1,"pitch":62,"start":22.0,"duration":1.25,"velocity":127,"measure":12,"beat":1.0,"subject_pos":-1,"motif":"","motif_pos":-1,"best_pos":5,"similarity":0.507,"stretto":false,"stretto_voices":0,"combination":[]},{"voice":2,"pitch":53,"start":22.0,"duration":1.0,"velocity":127,"measure":12,"beat":1.0,"subject_pos":2,"motif":"subject_inv","motif_pos":2,"best_pos":2,"similarity":1.0,"stretto":false,"stretto_voices":0,"combination":[]},{"voice":0,"pitch":69,"start":22.5,"duration":0.25,"velocity":127,"measure":12,"beat":2.0,"subject_pos":-1,"motif":"","motif_pos":-1,"best_pos":4,"similarity":0.471,"stretto":false,"stretto_voices":0,"combination":[]},{"voice":0,"pitch":67,"start":22.75,"duration":0.25,"velocity":127,"measure":12,"beat":2.5,"subject_pos":-1,"motif":"","motif_pos":-1,"best_pos":2,"similarity":0.446,"stretto":false,"stretto_voices":0,"combination":[]},{"voice":0,"pitch":65,"start":23.0,"duration":1.25,"velocity":127,"measure":12,"beat":3.0,"subject_pos":-1,"motif":"","motif_pos":-1,"best_pos":2,"similarity":0.436,"stretto":false,"stretto_voices":0,"combination":[]},{"voice":2,"pitch":57,"start":23.0,"duration":1.0,"velocity":127,"measure":12,"beat":3.0,"subject_pos":3,"motif":"subject_inv","motif_pos":3,"best_pos":3,"similarity":1.0,"stretto":false,"stretto_voices":0,"combination":[]},{"voice":1,"pitch":64,"start":23.25,"duration":0.25,"velocity":127,"measure":12,"beat":3.5,"subject_pos":-1,"motif":"","motif_pos":-1,"best_pos":6,"similarity":0.4,"stretto":false,"stretto_voices":0,"combination":[]},{"voice":1,"pitch":62,"start":23.5,"duration":0.25,"velocity":127,"measure":12,"beat":4.0,"subject_pos":-1,"motif":"","motif_pos":-1,"best_pos":3,"similarity":0.593,"stretto":false,"stretto_voices":0,"combination":[]},{"voice":1,"pitch":61,"start":23.75,"duration":0.25,"velocity":127,"measure":12,"beat":4.5,"subject_pos":-1,"motif":"","motif_pos":-1,"best_pos":4,"similarity":0.664,"stretto":false,"stretto_voices":0,"combination":[]},{"voice":1,"pitch":62,"start":24.0,"duration":0.5,"velocity":127,"measure":13,"beat":1.0,"subject_pos":-1,"motif":"","motif_pos":-1,"best_pos":5,"similarity":0.493,"stretto":false,"stretto_voices":0,"combination":[]},{"voice":2,"pitch":58,"start":24.0,"duration":1.0,"velocity":127,"measure":13,"beat":1.0,"subject_pos":4,"motif":"subject_inv","motif_pos":4,"best_pos":4,"similarity":1.0,"stretto":false,"stretto_voices":0,"combination":[]},{"voice":0,"pitch":77,"start":24.25,"duration":0.25,"velocity":127,"measure":13,"beat":1.5,"subject_pos":-1,"motif":"","motif_pos":-1,"best_pos":3,"similarity":0.514,"stretto":false,"stretto_voices":0,"combination":[]},{"voice":0,"pitch":76,"start":24.5,"duration":0.25,"velocity":127,"measure":13,"beat":2.0,"subject_pos":-1,"motif":"","motif_pos":-1,"best_pos":4,"similarity":0.6,"stretto":false,"stretto_voices":0,"combination":[]},{"voice":1,"pitch":67,"start":24.5,"duration":0.5,"velocity":127,"measure":13,"beat":2.0,"subject_pos":-1,"motif":"","motif_pos":-1,"best_pos":1,"similarity":0.357,"stretto":false,"stretto_voices":0,"combination":[]},{"voice":0,"pitch":74,"start":24.75,"duration":0.25,"velocity":127,"measure":13,"beat":2.5,"subject_pos":-1,"motif":"","motif_pos":-1,"best_pos":5,"similarity":0.6,"stretto":false,"stretto_voices":0,"combination":[]},{"voice":0,"pitch":76,"start":25.0,"duration":0.25,"velocity":127,"measure":13,"beat":3.0,"subject_pos":-1,"motif":"","motif_pos":-1,"best_pos":6,"similarity":0.657,"stretto":false,"stretto_voices":0,"combination":[]},{"voice":1,"pitch":61,"start":25.0,"duration":0.5,"velocity":127,"measure":13,"beat":3.0,"subject_pos":-1,"motif":"","motif_pos":-1,"best_pos":2,"similarity":0.221,"stretto":false,"stretto_voices":0,"combination":[]},{"voice":2,"pitch":57,"start":25.0,"duration":0.5,"velocity":127,"measure":13,"beat":3.0,"subject_pos":5,"motif":"subject_inv","motif_pos":5,"best_pos":5,"similarity":1.0,"stretto":false,"stretto_voices":0,"combination":[]},{"voice":0,"pitch":77,"start":25.25,"duration":0.25,"velocity":127,"measure":13,"beat":3.5,"subject_pos":-1,"motif":"","motif_pos":-1,"best_pos":5,"similarity":0.636,"stretto":false,"stretto_voices":0,"combination":[]},{"voice":0,"pitch":79,"start":25.5,"duration":0.25,"velocity":127,"measure":13,"beat":4.0,"subject_pos":-1,"motif":"","motif_pos":-1,"best_pos":6,"similarity":0.464,"stretto":false,"stretto_voices":0,"combination":[]},{"voice":1,"pitch":64,"start":25.5,"duration":1.0,"velocity":127,"measure":13,"beat":4.0,"subject_pos":-1,"motif":"","motif_pos":-1,"best_pos":3,"similarity":0.157,"stretto":false,"stretto_voices":0,"combination":[]},{"voice":2,"pitch":55,"start":25.5,"duration":0.5,"velocity":127,"measure":13,"beat":4.0,"subject_pos":6,"motif":"subject_inv","motif_pos":6,"best_pos":6,"similarity":1.0,"stretto":false,"stretto_voices":0,"combination":[]},{"voice":0,"pitch":76,"start":25.75,"duration":0.25,"velocity":127,"measure":13,"beat":4.5,"subject_pos":-1,"motif":"","motif_pos":-1,"best_pos":0,"similarity":0.321,"stretto":false,"stretto_voices":0,"combination":[]},{"voice":0,"pitch":81,"start":26.0,"duration":1.0,"velocity":127,"measure":14,"beat":1.0,"subject_pos":-1,"motif":"","motif_pos":-1,"best_pos":1,"similarity":0.429,"stretto":false,"stretto_voices":0,"combination":[]},{"voice":2,"pitch":53,"start":26.0,"duration":1.25,"velocity":127,"measure":14,"beat":1.0,"subject_pos":7,"motif":"subject_inv","motif_pos":7,"best_pos":7,"similarity":1.0,"stretto":false,"stretto_voices":0,"combination":[]},{"voice":1,"pitch":57,"start":26.5,"duration":0.5,"velocity":127,"measure":14,"beat":2.0,"subject_pos":-1,"motif":"","motif_pos":-1,"best_pos":0,"similarity":0.318,"stretto":false,"stretto_voices":0,"combination":[]},{"voice":1,"pitch":62,"start":27.0,"duration":1.25,"velocity":127,"measure":14,"beat":3.0,"subject_pos":-1,"motif":"","motif_pos":-1,"best_pos":1,"similarity":0.421,"stretto":false,"stretto_voices":0,"combination":[]},{"voice":2,"pitch":52,"start":27.25,"duration":0.25,"velocity":127,"measure":14,"beat":3.5,"subject_pos":-1,"motif":"","motif_pos":-1,"best_pos":4,"similarity":0.893,"stretto":false,"stretto_voices":0,"combination":[]},{"voice":0,"pitch":69,"start":27.5,"duration":0.5,"velocity":127,"measure":14,"beat":4.0,"subject_pos":-1,"motif":"","motif_pos":-1,"best_pos":2,"similarity":0.429,"stretto":false,"stretto_voices":0,"combination":[]},{"voice":2,"pitch":53,"start":27.5,"duration":0.25,"velocity":127,"measure":14,"beat":4.0,"subject_pos":-1,"motif":"","motif_pos":-1,"best_pos":5,"similarity":0.821,"stretto":false,"stretto_voices":0,"combination":[]},{"voice":2,"pitch":55,"start":27.75,"duration":0.25,"velocity":127,"measure":14,"beat":4.5,"subject_pos":-1,"motif":"","motif_pos":-1,"best_pos":6,"similarity":0.643,"stretto":false,"stretto_voices":0,"combination":[]},{"voice":0,"pitch":65,"start":28.0,"duration":2.0,"velocity":127,"measure":15,"beat":1.0,"subject_pos":-1,"motif":"","motif_pos":-1,"best_pos":3,"similarity":0.5,"stretto":false,"stretto_voices":0,"combination":[]},{"voice":2,"pitch":57,"start":28.0,"duration":1.25,"velocity":127,"measure":15,"beat":1.0,"subject_pos":-1,"motif":"","motif_pos":-1,"best_pos":6,"similarity":0.661,"stretto":false,"stretto_voices":0,"combination":[]},{"voice":3,"pitch":50,"start":28.0,"duration":1.0,"velocity":127,"measure":15,"beat":1.0,"subject_pos":0,"motif":"subject_inv","motif_pos":0,"best_pos":0,"similarity":1.0,"stretto":false,"stretto_voices":0,"combination":[]},{"voice":1,"pitch":63,"start":28.25,"duration":0.25,"velocity":127,"measure":15,"beat":1.5,"subject_pos":-1,"motif":"","motif_pos":-1,"best_pos":2,"similarity":0.457,"stretto":false,"stretto_voices":0,"combination":[]},{"voice":1,"pitch":62,"start":28.5,"duration":0.25,"velocity":127,"measure":15,"beat":2.0,"subject_pos":-1,"motif":"","motif_pos":-1,"best_pos":3,"similarity":0.586,"stretto":false,"stretto_voices":0,"combination":[]},{"voice":1,"pitch":61,"start":28.75,"duration":0.25,"velocity":127,"measure":15,"beat":2.5,"subject_pos":-1,"motif":"","motif_pos":-1,"best_pos":4,"similarity":0.621,"stretto":false,"stretto_voices":0,"combination":[]},{"voice":1,"pitch":62,"start":29.0,"duration":0.5,"velocity":127,"measure":15,"beat":3.0,"subject_pos":-1,"motif":"","motif_pos":-1,"best_pos":5,"similarity":0.461,"stretto":false,"stretto_voices":0,"combination":[]},{"voice":3,"pitch":45,"start":29.0,"duration":1.0,"velocity":127,"measure":15,"beat":3.0,"subject_pos":1,"motif":"subject_inv","motif_pos":1,"best_pos":1,"similarity":1.0,"stretto":false,"stretto_voices":0,"combination":[]},{"voice":2,"pitch":58,"start":29.25,"duration":0.25,"velocity":127,"measure":15,"beat":3.5,"subject_pos":-1,"motif":"","motif_pos":-1,"best_pos":7,"similarity":0.464,"stretto":false,"stretto_voices":0,"combination":[]},{"voice":1,"pitch":74,"start":29.5,"duration":1.0,"velocity":127,"measure":15,"beat":4.0,"subject_pos":-1,"motif":"","motif_pos":-1,"best_pos":1,"similarity":0.357,"stretto":false,"stretto_voices":0,"combination":[]},{"voice":2,"pitch":57,"start":29.5,"duration":0.25,"velocity":127,"measure":15,"beat":4.0,"subject_pos":-1,"motif":"","motif_pos":-1,"best_pos":3,"similarity":0.557,"stretto":false,"stretto_voices":0,"combination":[]},{"voice":2,"pitch":56,"start":29.75,"duration":0.25,"velocity":127,"measure":15,"beat":4.5,"subject_pos":-1,"motif":"","motif_pos":-1,"best_pos":4,"similarity":0.704,"stretto":false,"stretto_voices":0,"combination":[]},{"voice":0,"pitch":64,"start":30.0,"duration":0.5,"velocity":127,"measure":16,"beat":1.0,"subject_pos":-1,"motif":"","motif_pos":-1,"best_pos":4,"similarity":0.393,"stretto":false,"stretto_voices":0,"combination":[]},{"voice":2,"pitch":57,"start":30.0,"duration":1.25,"velocity":127,"measure":16,"beat":1.0,"subject_pos":-1,"motif":"","motif_pos":-1,"best_pos":5,"similarity":0.625,"stretto":false,"stretto_voices":0,"combination":[]},{"voice":3,"pitch":48,"start":30.0,"duration":1.0,"velocity":127,"measure":16,"beat":1.0,"subject_pos":2,"motif":"subject_inv","motif_pos":2,"best_pos":2,"similarity":1.0,"stretto":false,"stretto_voices":0,"combination":[]},{"voice":0,"pitch":76,"start":30.5,"duration":0.5,"velocity":127,"measure":16,"beat":2.0,"subject_pos":-1,"motif":"","motif_pos":-1,"best_pos":1,"similarity":0.371,"stretto":false,"stretto_voices":0,"combination":[]},{"voice":1,"pitch":72,"start":30.5,"duration":0.25,"velocity":127,"measure":16,"beat":2.0,"subject_pos":-1,"motif":"","motif_pos":-1,"best_pos":3,"similarity":0.457,"stretto":false,"stretto_voices":0,"combination":[]},{"voice":1,"pitch":71,"start":30.75,"duration":0.25,"velocity":127,"measure":16,"beat":2.5,"subject_pos":-1,"motif":"","motif_pos":-1,"best_pos":4,"similarity":0.407,"stretto":false,"stretto_voices":0,"combination":[]},{"voice":0,"pitch":72,"start":31.0,"duration":1.25,"velocity":127,"measure":16,"beat":3.0,"subject_pos":-1,"motif":"","motif_pos":-1,"best_pos":2,"similarity":0.464,"stretto":false,"stretto_voices":0,"combination":[]},{"voice":1,"pitch":69,"start":31.0,"duration":0.25,"velocity":127,"measure":16,"beat":3.0,"subject_pos":-1,"motif":"","motif_pos":-1,"best_pos":2,"similarity":0.518,"stretto":false,"stretto_voices":0,"combination":[]},{"voice":3,"pitch":52,"start":31.0,"duration":1.0,"velocity":127,"measure":16,"beat":3.0,"subject_pos":3,"motif":"subject_inv","motif_pos":3,"best_pos":3,"similarity":1.0,"stretto":false,"stretto_voices":0,"combination":[]},{"voice":1,"pitch":67,"start":31.25,"duration":0.25,"velocity":127,"measure":16,"beat":3.5,"subject_pos":-1,"motif":"","motif_pos":-1,"best_pos":2,"similarity":0.579,"stretto":false,"stretto_voices":0,"combination":[]},{"voice":2,"pitch":58,"start":31.25,"duration":0.25,"velocity":127,"measure":16,"beat":3.5,"subject_pos":-1,"motif":"","motif_pos":-1,"best_pos":6,"similarity":0.429,"stretto":false,"stretto_voices":0,"combination":[]},{"voice":1,"pitch":65,"start":31.5,"duration":0.25,"velocity":127,"measure":16,"beat":4.0,"subject_pos":-1,"motif":"","motif_pos":-1,"best_pos":3,"similarity":0.593,"stretto":false,"stretto_voices":0,"combination":[]},{"voice":2,"pitch":57,"start":31.5,"duration":0.25,"velocity":127,"measure":16,"beat":4.0,"subject_pos":-1,"motif":"","motif_pos":-1,"best_pos":3,"similarity":0.529,"stretto":false,"stretto_voices":0,"combination":[]},{"voice":1,"pitch":64,"start":31.75,"duration":0.25,"velocity":127,"measure":16,"beat":4.5,"subject_pos":-1,"motif":"","motif_pos":-1,"best_pos":4,"similarity":0.507,"stretto":false,"stretto_voices":0,"combination":[]},{"voice":2,"pitch":56,"start":31.75,"duration":0.25,"velocity":127,"measure":16,"beat":4.5,"subject_pos":-1,"motif":"","motif_pos":-1,"best_pos":4,"similarity":0.629,"stretto":false,"stretto_voices":0,"combination":[]},{"voice":1,"pitch":62,"start":32.0,"duration":0.5,"velocity":127,"measure":17,"beat":1.0,"subject_pos":-1,"motif":"","motif_pos":-1,"best_pos":4,"similarity":0.429,"stretto":false,"stretto_voices":0,"combination":[]},{"voice":2,"pitch":57,"start":32.0,"duration":0.5,"velocity":127,"measure":17,"beat":1.0,"subject_pos":-1,"motif":"","motif_pos":-1,"best_pos":5,"similarity":0.475,"stretto":false,"stretto_voices":0,"combination":[]},{"voice":3,"pitch":53,"start":32.0,"duration":1.0,"velocity":127,"measure":17,"beat":1.0,"subject_pos":4,"motif":"subject_inv","motif_pos":4,"best_pos":4,"similarity":1.0,"stretto":false,"stretto_voices":0,"combination":[]},{"voice":0,"pitch":72,"start":32.25,"duration":0.25,"velocity":127,"measure":17,"beat":1.5,"subject_pos":-1,"motif":"","motif_pos":-1,"best_pos":3,"similarity":0.543,"stretto":false,"stretto_voices":0,"combination":[]},{"voice":0,"pitch":71,"start":32.5,"duration":0.25,"velocity":127,"measure":17,"beat":2.0,"subject_pos":-1,"motif":"","motif_pos":-1,"best_pos":4,"similarity":0.579,"stretto":false,"stretto_voices":0,"combination":[]},{"voice":1,"pitch":67,"start":32.5,"duration":0.75,"velocity":127,"measure":17,"beat":2.0,"subject_pos":-1,"motif":"","motif_pos":-1,"best_pos":1,"similarity":0.421,"stretto":false,"stretto_voices":0,"combination":[]},{"voice":2,"pitch":62,"start":32.5,"duration":0.5,"velocity":127,"measure":17,"beat":2.0,"subject_pos":-1,"motif":"","motif_pos":-1,"best_pos":1,"similarity":0.314,"stretto":false,"stretto_voices":0,"combination":[]},{"voice":0,"pitch":69,"start":32.75,"duration":0.25,"velocity":127,"measure":17,"beat":2.5,"subject_pos":-1,"motif":"","motif_pos":-1,"best_pos":4,"similarity":0.554,"stretto":false,"stretto_voices":0,"combination":[]},{"voice":0,"pitch":71,"start":33.0,"duration":0.25,"velocity":127,"measure":17,"beat":3.0,"subject_pos":-1,"motif":"","motif_pos":-1,"best_pos":5,"similarity":0.661,"stretto":false,"stretto_voices":0,"combination":[]},{"voice":2,"pitch":55,"start":33.0,"duration":0.5,"velocity":127,"measure":17,"beat":3.0,"subject_pos":-1,"motif":"","motif_pos":-1,"best_pos":2,"similarity":0.179,"stretto":false,"stretto_voices":0,"combination":[]},{"voice":3,"pitch":52,"start":33.0,"duration":0.5,"velocity":127,"measure":17,"beat":3.0,"subject_pos":5,"motif":"subject_inv","motif_pos":5,"best_pos":5,"similarity":1.0,"stretto":false,"stretto_voices":0,"combination":[]},{"voice":0,"pitch":73,"start":33.25,"duration":0.25,"velocity":127,"measure":17,"beat":3.5,"subject_pos":-1,"motif":"","motif_pos":-1,"best_pos":6,"similarity":0.679,"stretto":false,"stretto_voices":0,"combination":[]},{"voice":1,"pitch":69,"start":33.25,"duration":0.25,"velocity":127,"measure":17,"beat":3.5,"subject_pos":-1,"motif":"","motif_pos":-1,"best_pos":2,"similarity":0.421,"stretto":false,"stretto_voices":0,"combination":[]},{"voice":0,"pitch":74,"start":33.5,"duration":0.5,"velocity":127,"measure":17,"beat":4.0,"subject_pos":-1,"motif":"","motif_pos":-1,"best_pos":5,"similarity":0.6,"stretto":false,"stretto_voices":0,"combination":[]},{"voice":1,"pitch":67,"start":33.5,"duration":0.25,"velocity":127,"measure":17,"beat":4.0,"subject_pos":-1,"motif":"","motif_pos":-1,"best_pos":3,"similarity":0.514,"stretto":false,"stretto_voices":0,"combination":[]},{"voice":2,"pitch":58,"start":33.5,"duration":1.0,"velocity":127,"measure":17,"beat":4.0,"subject_pos":-1,"motif":"","motif_pos":-1,"best_pos":1,"similarity":0.179,"stretto":false,"stretto_voices":0,"combination":[]},{"voice":3,"pitch":50,"start":33.5,"duration":0.5,"velocity":127,"measure":17,"beat":4.0,"subject_pos":6,"motif":"subject_inv","motif_pos":6,"best_pos":6,"similarity":1.0,"stretto":false,"stretto_voices":0,"combination":[]},{"voice":1,"pitch":65,"start":33.75,"duration":0.25,"velocity":127,"measure":17,"beat":4.5,"subject_pos":-1,"motif":"","motif_pos":-1,"best_pos":4,"similarity":0.579,"stretto":false,"stretto_voices":0,"combination":[]},{"voice":0,"pitch":76,"start":34.0,"duration":1.25,"velocity":127,"measure":18,"beat":1.0,"subject_pos":-1,"motif":"","motif_pos":-1,"best_pos":6,"similarity":0.464,"stretto":false,"stretto_voices":0,"combination":[]},{"voice":1,"pitch":67,"start":34.0,"duration":0.25,"velocity":127,"measure":18,"beat":1.0,"subject_pos":-1,"motif":"","motif_pos":-1,"best_pos":5,"similarity":0.679,"stretto":false,"stretto_voices":0,"combination":[]},{"voice":3,"pitch":49,"start":34.0,"duration":1.25,"velocity":127,"measure":18,"beat":1.0,"subject_pos":7,"motif":"subject_inv","motif_pos":7,"best_pos":7,"similarity":1.0,"stretto":false,"stretto_voices":0,"combination":[]},{"voice":1,"pitch":69,"start":34.25,"duration":0.25,"velocity":127,"measure":18,"beat":1.5,"subject_pos":-1,"motif":"","motif_pos":-1,"best_pos":6,"similarity":0.679,"stretto":false,"stretto_voices":0,"combination":[]},{"voice":1,"pitch":70,"start":34.5,"duration":0.25,"velocity":127,"measure":18,"beat":2.0,"subject_pos":-1,"motif":"","motif_pos":-1,"best_pos":7,"similarity":0.464,"stretto":false,"stretto_voices":0,"combination":[]},{"voice":2,"pitch":52,"start":34.5,"duration":0.5,"velocity":127,"measure":18,"beat":2.0,"subject_pos":-1,"motif":"","motif_pos":-1,"best_pos":0,"similarity":0.464,"stretto":false,"stretto_voices":0,"combination":[]},{"voice":1,"pitch":67,"start":34.75,"duration":0.25,"velocity":127,"measure":18,"beat":2.5,"subject_pos":-1,"motif":"","motif_pos":-1,"best_pos":2,"similarity":0.55,"stretto":false,"stretto_voices":0,"combination":[]},{"voice":1,"pitch":64,"start":35.0,"duration":1.5,"velocity":127,"measure":18,"beat":3.0,"subject_pos":-1,"motif":"","motif_pos":-1,"best_pos":3,"similarity":0.614,"stretto":false,"stretto_voices":0,"combination":[]},{"voice":2,"pitch":57,"start":35.0,"duration":0.5,"velocity":127,"measure":18,"beat":3.0,"subject_pos":-1,"motif":"","motif_pos":-1,"best_pos":1,"similarity":0.714,"stretto":false,"stretto_voices":0,"combination":[]},{"voice":0,"pitch":73,"start":35.25,"duration":0.25,"velocity":127,"measure":18,"beat":3.5,"subject_pos":-1,"motif":"","motif_pos":-1,"best_pos":4,"similarity":0.507,"stretto":false,"stretto_voices":0,"combination":[]},{"voice":3,"pitch":45,"start":35.25,"duration":0.25,"velocity":127,"measure":18,"beat":3.5,"subject_pos":-1,"motif":"","motif_pos":-1,"best_pos":5,"similarity":0.536,"stretto":false,"stretto_voices":0,"combination":[]},{"voice":0,"pitch":74,"start":35.5,"duration":0.25,"velocity":127,"measure":18,"beat":4.0,"subject_pos":-1,"motif":"","motif_pos":-1,"best_pos":5,"similarity":0.607,"stretto":false,"stretto_voices":0,"combination":[]},{"voice":2,"pitch":55,"start":35.5,"duration":0.5,"velocity":127,"measure":18,"beat":4.0,"subject_pos":-1,"motif":"","motif_pos":-1,"best_pos":2,"similarity":0.786,"stretto":false,"stretto_voices":0,"combination":[]},{"voice":3,"pitch":47,"start":35.5,"duration":0.25,"velocity":127,"measure":18,"beat":4.0,"subject_pos":-1,"motif":"","motif_pos":-1,"best_pos":5,"similarity":0.604,"stretto":false,"stretto_voices":0,"combination":[]},{"voice":0,"pitch":76,"start":35.75,"duration":0.25,"velocity":127,"measure":18,"beat":4.5,"subject_pos":-1,"motif":"","motif_pos":-1,"best_pos":6,"similarity":0.446,"stretto":false,"stretto_voices":0,"combination":[]},{"voice":3,"pitch":49,"start":35.75,"duration":0.25,"velocity":127,"measure":18,"beat":4.5,"subject_pos":-1,"motif":"","motif_pos":-1,"best_pos":6,"similarity":0.65,"stretto":false,"stretto_voices":0,"combination":[]},{"voice":0,"pitch":69,"start":36.0,"duration":1.5,"velocity":127,"measure":19,"beat":1.0,"subject_pos":-1,"motif":"","motif_pos":-1,"best_pos":0,"similarity":0.429,"stretto":false,"stretto_voices":0,"combination":[]},{"voice":2,"pitch":53,"start":36.0,"duration":0.25,"velocity":127,"measure":19,"beat":1.0,"subject_pos":-1,"motif":"","motif_pos":-1,"best_pos":3,"similarity":0.857,"stretto":false,"stretto_voices":0,"combination":[]},{"voice":3,"pitch":50,"start":36.0,"duration":1.25,"velocity":127,"measure":19,"beat":1.0,"subject_pos":-1,"motif":"","motif_pos":-1,"best_pos":7,"similarity":0.464,"stretto":false,"stretto_voices":0,"combination":[]},{"voice":2,"pitch":52,"start":36.25,"duration":0.25,"velocity":127,"measure":19,"beat":1.5,"subject_pos":-1,"motif":"","motif_pos":-1,"best_pos":4,"similarity":0.893,"stretto":false,"stretto_voices":0,"combination":[]},{"voice":1,"pitch":62,"start":36.5,"duration":0.25,"velocity":127,"measure":19,"beat":2.0,"subject_pos":-1,"motif":"","motif_pos":-1,"best_pos":4,"similarity":0.571,"stretto":false,"stretto_voices":0,"combination":[]},{"voice":2,"pitch":53,"start":36.5,"duration":0.25,"velocity":127,"measure":19,"beat":2.0,"subject_pos":-1,"motif":"","motif_pos":-1,"best_pos":5,"similarity":0.821,"stretto":false,"stretto_voices":0,"combination":[]},{"voice":1,"pitch":64,"start":36.75,"duration":0.25,"velocity":127,"measure":19,"beat":2.5,"subject_pos":-1,"motif":"","motif_pos":-1,"best_pos":6,"similarity":0.604,"stretto":false,"stretto_voices":0,"combination":[]},{"voice":2,"pitch":55,"start":36.75,"duration":0.25,"velocity":127,"measure":19,"beat":2.5,"subject_pos":-1,"motif":"","motif_pos":-1,"best_pos":6,"similarity":0.643,"stretto":false,"stretto_voices":0,"combination":[]},{"voice":1,"pitch":65,"start":37.0,"duration":1.5,"velocity":127,"measure":19,"beat":3.0,"subject_pos":-1,"motif":"","motif_pos":-1,"best_pos":5,"similarity":0.636,"stretto":false,"stretto_voices":0,"combination":[]},{"voice":2,"pitch":57,"start":37.0,"duration":0.5,"velocity":127,"measure":19,"beat":3.0,"subject_pos":-1,"motif":"head_inv","motif_pos":0,"best_pos":0,"similarity":1.0,"stretto":false,"stretto_voices":0,"combination":[]},{"voice":3,"pitch":48,"start":37.25,"duration":0.25,"velocity":127,"measure":19,"beat":3.5,"subject_pos":-1,"motif":"","motif_pos":-1,"best_pos":2,"similarity":0.593,"stretto":false,"stretto_voices":0,"combination":[]},{"voice":0,"pitch":74,"start":37.5,"duration":0.5,"velocity":127,"measure":19,"beat":4.0,"subject_pos":-1,"motif":"","motif_pos":-1,"best_pos":1,"similarity":0.589,"stretto":false,"stretto_voices":0,"combination":[]},{"voice":3,"pitch":46,"start":37.5,"duration":0.25,"velocity":127,"measure":19,"beat":4.0,"subject_pos":-1,"motif":"","motif_pos":-1,"best_pos":3,"similarity":0.629,"stretto":false,"stretto_voices":0,"combination":[]},{"voice":3,"pitch":45,"start":37.75,"duration":0.25,"velocity":127,"measure":19,"beat":4.5,"subject_pos":-1,"motif":"","motif_pos":-1,"best_pos":4,"similarity":0.546,"stretto":false,"stretto_voices":0,"combination":[]},{"voice":0,"pitch":70,"start":38.0,"duration":1.5,"velocity":127,"measure":20,"beat":1.0,"subject_pos":-1,"motif":"","motif_pos":-1,"best_pos":2,"similarity":0.536,"stretto":false,"stretto_voices":0,"combination":[]},{"voice":3,"pitch":43,"start":38.0,"duration":1.25,"velocity":127,"measure":20,"beat":1.0,"subject_pos":-1,"motif":"","motif_pos":-1,"best_pos":2,"similarity":0.436,"stretto":false,"stretto_voices":0,"combination":[]},{"voice":2,"pitch":50,"start":38.25,"duration":0.25,"velocity":127,"measure":20,"beat":1.5,"subject_pos":-1,"motif":"head_inv","motif_pos":1,"best_pos":1,"similarity":1.0,"stretto":false,"stretto_voices":0,"combination":[]},{"voice":1,"pitch":67,"start":38.5,"duration":0.5,"velocity":127,"measure":20,"beat":2.0,"subject_pos":-1,"motif":"","motif_pos":-1,"best_pos":6,"similarity":0.464,"stretto":false,"stretto_voices":0,"combination":[]},{"voice":2,"pitch":52,"start":38.5,"duration":0.25,"velocity":127,"measure":20,"beat":2.0,"subject_pos":-1,"motif":"head_inv","motif_pos":2,"best_pos":2,"similarity":1.0,"stretto":false,"stretto_voices":0,"combination":[]},{"voice":2,"pitch":53,"start":38.75,"duration":0.25,"velocity":127,"measure":20,"beat":2.5,"subject_pos":-1,"motif":"head_inv","motif_pos":3,"best_pos":3,"similarity":1.0,"stretto":false,"stretto_voices":0,"combination":[]},{"voice":1,"pitch":64,"start":39.0,"duration":1.5,"velocity":127,"measure":20,"beat":3.0,"subject_pos":-1,"motif":"","motif_pos":-1,"best_pos":3,"similarity":0.464,"stretto":false,"stretto_voices":0,"combination":[]},{"voice":2,"pitch":55,"start":39.0,"duration":0.5,"velocity":127,"measure":20,"beat":3.0,"subject_pos":-1,"motif":"head_inv","motif_pos":4,"best_pos":4,"similarity":1.0,"stretto":false,"stretto_voices":0,"combination":[]},{"voice":3,"pitch":46,"start":39.25,"duration":0.25,"velocity":127,"measure":20,"beat":3.5,"subject_pos":-1,"motif":"","motif_pos":-1,"best_pos":3,"similarity":0.45,"stretto":false,"stretto_voices":0,"combination":[]},{"voice":0,"pitch":72,"start":39.5,"duration":0.5,"velocity":127,"measure":20,"beat":4.0,"subject_pos":-1,"motif":"","motif_pos":-1,"best_pos":3,"similarity":0.429,"stretto":false,"stretto_voices":0,"combination":[]},{"voice":3,"pitch":45,"start":39.5,"duration":0.25,"velocity":127,"measure":20,"beat":4.0,"subject_pos":-1,"motif":"","motif_pos":-1,"best_pos":4,"similarity":0.407,"stretto":false,"stretto_voices":0,"combination":[]},{"voice":3,"pitch":43,"start":39.75,"duration":0.25,"velocity":127,"measure":20,"beat":4.5,"subject_pos":-1,"motif":"","motif_pos":-1,"best_pos":2,"similarity":0.436,"stretto":false,"stretto_voices":0,"combination":[]},{"voice":0,"pitch":69,"start":40.0,"duration":1.5,"velocity":127,"measure":21,"beat":1.0,"subject_pos":-1,"motif":"","motif_pos":-1,"best_pos":4,"similarity":0.464,"stretto":false,"stretto_voices":0,"combination":[]},{"voice":3,"pitch":41,"start":40.0,"duration":1.25,"velocity":127,"measure":21,"beat":1.0,"subject_pos":-1,"motif":"","motif_pos":-1,"best_pos":2,"similarity":0.364,"stretto":false,"stretto_voices":0,"combination":[]},{"voice":2,"pitch":49,"start":40.25,"duration":0.25,"velocity":127,"measure":21,"beat":1.5,"subject_pos":-1,"motif":"","motif_pos":-1,"best_pos":4,"similarity":0.507,"stretto":false,"stretto_voices":0,"combination":[]},{"voice":1,"pitch":65,"start":40.5,"duration":0.5,"velocity":127,"measure":21,"beat":2.0,"subject_pos":-1,"motif":"","motif_pos":-1,"best_pos":4,"similarity":0.4,"stretto":false,"stretto_voices":0,"combination":[]},{"voice":2,"pitch":50,"start":40.5,"duration":0.25,"velocity":127,"measure":21,"beat":2.0,"subject_pos":-1,"motif":"","motif_pos":-1,"best_pos":5,"similarity":0.714,"stretto":false,"stretto_voices":0,"combination":[]},{"voice":2,"pitch":52,"start":40.75,"duration":0.25,"velocity":127,"measure":21,"beat":2.5,"subject_pos":-1,"motif":"enigmatic_cell","motif_pos":0,"best_pos":0,"similarity":1.0,"stretto":false,"stretto_voices":0,"combination":[]},{"voice":1,"pitch":62,"start":41.0,"duration":1.5,"velocity":127,"measure":21,"beat":3.0,"subject_pos":-1,"motif":"","motif_pos":-1,"best_pos":5,"similarity":0.436,"stretto":false,"stretto_voices":0,"combination":[]},{"voice":2,"pitch":53,"start":41.0,"duration":0.5,"velocity":127,"measure":21,"beat":3.0,"subject_pos":-1,"motif":"enigmatic_cell","motif_pos":1,"best_pos":1,"similarity":1.0,"stretto":false,"stretto_voices":0,"combination":[]},{"voice":3,"pitch":45,"start":41.25,"duration":0.25,"velocity":127,"measure":21,"beat":3.5,"subject_pos":-1,"motif":"","motif_pos":-1,"best_pos":1,"similarity":0.571,"stretto":false,"stretto_voices":0,"combination":[]},{"voice":0,"pitch":70,"start":41.5,"duration":0.5,"velocity":127,"measure":21,"beat":4.0,"subject_pos":-1,"motif":"","motif_pos":-1,"best_pos":4,"similarity":0.393,"stretto":false,"stretto_voices":0,"combination":[]},{"voice":3,"pitch":43,"start":41.5,"duration":0.25,"velocity":127,"measure":21,"beat":4.0,"subject_pos":-1,"motif":"","motif_pos":-1,"best_pos":2,"similarity":0.661,"stretto":false,"stretto_voices":0,"combination":[]},{"voice":3,"pitch":41,"start":41.75,"duration":0.25,"velocity":127,"measure":21,"beat":4.5,"subject_pos":-1,"motif":"","motif_pos":-1,"best_pos":3,"similarity":0.65,"stretto":false,"stretto_voices":0,"combination":[]},{"voice":0,"pitch":67,"start":42.0,"duration":1.5,"velocity":127,"measure":22,"beat":1.0,"subject_pos":-1,"motif":"","motif_pos":-1,"best_pos":5,"similarity":0.421,"stretto":false,"stretto_voices":0,"combination":[]},{"voice":3,"pitch":40,"start":42.0,"duration":1.25,"velocity":127,"measure":22,"beat":1.0,"subject_pos":-1,"motif":"","motif_pos":-1,"best_pos":4,"similarity":0.532,"stretto":false,"stretto_voices":0,"combination":[]},{"voice":2,"pitch":47,"start":42.25,"duration":0.25,"velocity":127,"measure":22,"beat":1.5,"subject_pos":-1,"motif":"enigmatic_cell","motif_pos":2,"best_pos":2,"similarity":1.0,"stretto":false,"stretto_voices":0,"combination":[]},{"voice":1,"pitch":64,"start":42.5,"duration":0.5,"velocity":127,"measure":22,"beat":2.0,"subject_pos":-1,"motif":"","motif_pos":-1,"best_pos":2,"similarity":0.35,"stretto":false,"stretto_voices":0,"combination":[]},{"voice":2,"pitch":49,"start":42.5,"duration":0.25,"velocity":127,"measure":22,"beat":2.0,"subject_pos":-1,"motif":"","motif_pos":-1,"best_pos":6,"similarity":0.589,"stretto":false,"stretto_voices":0,"combination":[]},{"voice":2,"pitch":50,"start":42.75,"duration":0.25,"velocity":127,"measure":22,"beat":2.5,"subject_pos":-1,"motif":"","motif_pos":-1,"best_pos":5,"similarity":0.607,"stretto":false,"stretto_voices":0,"combination":[]},{"voice":1,"pitch":61,"start":43.0,"duration":1.0,"velocity":127,"measure":22,"beat":3.0,"subject_pos":-1,"motif":"","motif_pos":-1,"best_pos":4,"similarity":0.4,"stretto":false,"stretto_voices":0,"combination":[]},{"voice":2,"pitch":52,"start":43.0,"duration":0.5,"velocity":127,"measure":22,"beat":3.0,"subject_pos":-1,"motif":"","motif_pos":-1,"best_pos":6,"similarity":0.464,"stretto":false,"stretto_voices":0,"combination":[]},{"voice":3,"pitch":43,"start":43.25,"duration":0.25,"velocity":127,"measure":22,"beat":3.5,"subject_pos":-1,"motif":"","motif_pos":-1,"best_pos":1,"similarity":0.429,"stretto":false,"stretto_voices":0,"combination":[]},{"voice":0,"pitch":69,"start":43.5,"duration":0.5,"velocity":127,"measure":22,"beat":4.0,"subject_pos":-1,"motif":"","motif_pos":-1,"best_pos":6,"similarity":0.318,"stretto":false,"stretto_voices":0,"combination":[]},{"voice":3,"pitch":41,"start":43.5,"duration":0.25,"velocity":127,"measure":22,"beat":4.0,"subject_pos":-1,"motif":"","motif_pos":-1,"best_pos":2,"similarity":0.464,"stretto":false,"stretto_voices":0,"combination":[]},{"voice":3,"pitch":40,"start":43.75,"duration":0.25,"velocity":127,"measure":22,"beat":4.5,"subject_pos":-1,"motif":"","motif_pos":-1,"best_pos":4,"similarity":0.386,"stretto":false,"stretto_voices":0,"combination":[]},{"voice":0,"pitch":65,"start":44.0,"duration":1.0,"velocity":127,"measure":23,"beat":1.0,"subject_pos":-1,"motif":"","motif_pos":-1,"best_pos":2,"similarity":0.307,"stretto":false,"stretto_voices":0,"combination":[]},{"voice":1,"pitch":62,"start":44.0,"duration":1.0,"velocity":127,"measure":23,"beat":1.0,"subject_pos":-1,"motif":"","motif_pos":-1,"best_pos":5,"similarity":0.336,"stretto":false,"stretto_voices":0,"combination":[]},{"voice":3,"pitch":38,"start":44.0,"duration":0.5,"velocity":127,"measure":23,"beat":1.0,"subject_pos":-1,"motif":"","motif_pos":-1,"best_pos":2,"similarity":0.307,"stretto":false,"stretto_voices":0,"combination":[]},{"voice":2,"pitch":57,"start":44.25,"duration":0.25,"velocity":127,"measure":23,"beat":1.5,"subject_pos":-1,"motif":"","motif_pos":-1,"best_pos":4,"similarity":0.471,"stretto":false,"stretto_voices":0,"combination":[]},{"voice":2,"pitch":58,"start":44.5,"duration":0.25,"velocity":127,"measure":23,"beat":2.0,"subject_pos":-1,"motif":"","motif_pos":-1,"best_pos":5,"similarity":0.643,"stretto":false,"stretto_voices":0,"combination":[]},{"voice":3,"pitch":50,"start":44.5,"duration":0.5,"velocity":127,"measure":23,"beat":2.0,"subject_pos":-1,"motif":"","motif_pos":-1,"best_pos":1,"similarity":0.446,"stretto":false,"stretto_voices":0,"combination":[]},{"voice":2,"pitch":60,"start":44.75,"duration":0.25,"velocity":127,"measure":23,"beat":2.5,"subject_pos":-1,"motif":"","motif_pos":-1,"best_pos":6,"similarity":0.571,"stretto":false,"stretto_voices":0,"combination":[]},{"voice":2,"pitch":62,"start":45.0,"duration":1.25,"velocity":127,"measure":23,"beat":3.0,"subject_pos":-1,"motif":"","motif_pos":-1,"best_pos":6,"similarity":0.404,"stretto":false,"stretto_voices":0,"combination":[]},{"voice":3,"pitch":46,"start":45.0,"duration":0.5,"velocity":127,"measure":23,"beat":3.0,"subject_pos":-1,"motif":"","motif_pos":-1,"best_pos":2,"similarity":0.607,"stretto":false,"stretto_voices":0,"combination":[]},{"voice":1,"pitch":72,"start":45.25,"duration":0.25,"velocity":127,"measure":23,"beat":3.5,"subject_pos":-1,"motif":"","motif_pos":-1,"best_pos":1,"similarity":0.386,"stretto":false,"stretto_voices":0,"combination":[]},{"voice":1,"pitch":70,"start":45.5,"duration":0.25,"velocity":127,"measure":23,"beat":4.0,"subject_pos":-1,"motif":"","motif_pos":-1,"best_pos":3,"similarity":0.45,"stretto":false,"stretto_voices":0,"combination":[]},{"voice":3,"pitch":43,"start":45.5,"duration":0.5,"velocity":127,"measure":23,"beat":4.0,"subject_pos":-1,"motif":"","motif_pos":-1,"best_pos":3,"similarity":0.5,"stretto":false,"stretto_voices":0,"combination":[]},{"voice":1,"pitch":69,"start":45.75,"duration":0.25,"velocity":127,"measure":23,"beat":4.5,"subject_pos":-1,"motif":"","motif_pos":-1,"best_pos":4,"similarity":0.393,"stretto":false,"stretto_voices":0,"combination":[]},{"voice":1,"pitch":67,"start":46.0,"duration":1.25,"velocity":127,"measure":24,"beat":1.0,"subject_pos":-1,"motif":"head","motif_pos":0,"best_pos":0,"similarity":1.0,"stretto":false,"stretto_voices":0,"combination":[]},{"voice":3,"pitch":40,"start":46.0,"duration":0.5,"velocity":127,"measure":24,"beat":1.0,"subject_pos":-1,"motif":"","motif_pos":-1,"best_pos":3,"similarity":0.357,"stretto":false,"stretto_voices":0,"combination":[]},{"voice":2,"pitch":59,"start":46.25,"duration":0.25,"velocity":127,"measure":24,"beat":1.5,"subject_pos":-1,"motif":"","motif_pos":-1,"best_pos":4,"similarity":0.543,"stretto":false,"stretto_voices":0,"combination":[]},{"voice":2,"pitch":60,"start":46.5,"duration":0.25,"velocity":127,"measure":24,"beat":2.0,"subject_pos":-1,"motif":"","motif_pos":-1,"best_pos":5,"similarity":0.679,"stretto":false,"stretto_voices":0,"combination":[]},{"voice":3,"pitch":52,"start":46.5,"duration":0.5,"velocity":127,"measure":24,"beat":2.0,"subject_pos":-1,"motif":"","motif_pos":-1,"best_pos":1,"similarity":0.436,"stretto":false,"stretto_voices":0,"combination":[]},{"voice":2,"pitch":62,"start":46.75,"duration":0.25,"velocity":127,"measure":24,"beat":2.5,"subject_pos":-1,"motif":"","motif_pos":-1,"best_pos":6,"similarity":0.589,"stretto":false,"stretto_voices":0,"combination":[]},{"voice":2,"pitch":64,"start":47.0,"duration":1.25,"velocity":127,"measure":24,"beat":3.0,"subject_pos":-1,"motif":"","motif_pos":-1,"best_pos":6,"similarity":0.404,"stretto":false,"stretto_voices":0,"combination":[]},{"voice":3,"pitch":48,"start":47.0,"duration":0.5,"velocity":127,"measure":24,"beat":3.0,"subject_pos":-1,"motif":"","motif_pos":-1,"best_pos":2,"similarity":0.586,"stretto":false,"stretto_voices":0,"combination":[]},{"voice":1,"pitch":74,"start":47.25,"duration":0.25,"velocity":127,"measure":24,"beat":3.5,"subject_pos":-1,"motif":"head","motif_pos":1,"best_pos":1,"similarity":1.0,"stretto":false,"stretto_voices":0,"combination":[]},{"voice":1,"pitch":72,"start":47.5,"duration":0.25,"velocity":127,"measure":24,"beat":4.0,"subject_pos":-1,"motif":"head","motif_pos":2,"best_pos":2,"similarity":1.0,"stretto":false,"stretto_voices":0,"combination":[]},{"voice":3,"pitch":45,"start":47.5,"duration":0.5,"velocity":127,"measure":24,"beat":4.0,"subject_pos":-1,"motif":"","motif_pos":-1,"best_pos":3,"similarity":0.457,"stretto":false,"stretto_voices":0,"combination":[]},{"voice":1,"pitch":70,"start":47.75,"duration":0.25,"velocity":127,"measure":24,"beat":4.5,"subject_pos":-1,"motif":"head","motif_pos":3,"best_pos":3,"similarity":1.0,"stretto":false,"stretto_voices":0,"combination":[]},{"voice":1,"pitch":69,"start":48.0,"duration":1.25,"velocity":127,"measure":25,"beat":1.0,"subject_pos":-1,"motif":"head","motif_pos":4,"best_pos":4,"similarity":1.0,"stretto":false,"stretto_voices":0,"combination":[]},{"voice":3,"pitch":41,"start":48.0,"duration":0.5,"velocity":127,"measure":25,"beat":1.0,"subject_pos":-1,"motif":"","motif_pos":-1,"best_pos":2,"similarity":0.321,"stretto":false,"stretto_voices":0,"combination":[]},{"voice":2,"pitch":61,"start":48.25,"duration":0.25,"velocity":127,"measure":25,"beat":1.5,"subject_pos":-1,"motif":"","motif_pos":-1,"best_pos":4,"similarity":0.579,"stretto":false,"stretto_voices":0,"combination":[]},{"voice":2,"pitch":62,"start":48.5,"duration":0.25,"velocity":127,"measure":25,"beat":2.0,"subject_pos":-1,"motif":"","motif_pos":-1,"best_pos":5,"similarity":0.75,"stretto":false,"stretto_voices":0,"combination":[]},{"voice":3,"pitch":53,"start":48.5,"duration":0.5,"velocity":127,"measure":25,"beat":2.0,"subject_pos":-1,"motif":"","motif_pos":-1,"best_pos":2,"similarity":0.307,"stretto":false,"stretto_voices":0,"combination":[]},{"voice":2,"pitch":64,"start":48.75,"duration":0.25,"velocity":127,"measure":25,"beat":2.5,"subject_pos":-1,"motif":"","motif_pos":-1,"best_pos":6,"similarity":0.732,"stretto":false,"stretto_voices":0,"combination":[]},{"voice":2,"pitch":65,"start":49.0,"duration":1.25,"velocity":127,"measure":25,"beat":3.0,"subject_pos":-1,"motif":"","motif_pos":-1,"best_pos":7,"similarity":0.5,"stretto":false,"stretto_voices":0,"combination":[]},{"voice":3,"pitch":50,"start":49.0,"duration":0.5,"velocity":127,"measure":25,"beat":3.0,"subject_pos":-1,"motif":"","motif_pos":-1,"best_pos":1,"similarity":0.429,"stretto":false,"stretto_voices":0,"combination":[]},{"voice":1,"pitch":75,"start":49.25,"duration":0.25,"velocity":127,"measure":25,"beat":3.5,"subject_pos":-1,"motif":"","motif_pos":-1,"best_pos":1,"similarity":0.393,"stretto":false,"stretto_voices":0,"combination":[]},{"voice":1,"pitch":74,"start":49.5,"duration":0.25,"velocity":127,"measure":25,"beat":4.0,"subject_pos":-1,"motif":"","motif_pos":-1,"best_pos":2,"similarity":0.464,"stretto":false,"stretto_voices":0,"combination":[]},{"voice":3,"pitch":46,"start":49.5,"duration":0.5,"velocity":127,"measure":25,"beat":4.0,"subject_pos":-1,"motif":"","motif_pos":-1,"best_pos":2,"similarity":0.579,"stretto":false,"stretto_voices":0,"combination":[]},{"voice":1,"pitch":72,"start":49.75,"duration":0.25,"velocity":127,"measure":25,"beat":4.5,"subject_pos":-1,"motif":"","motif_pos":-1,"best_pos":2,"similarity":0.518,"stretto":false,"stretto_voices":0,"combination":[]},{"voice":1,"pitch":70,"start":50.0,"duration":1.25,"velocity":127,"measure":26,"beat":1.0,"subject_pos":-1,"motif":"","motif_pos":-1,"best_pos":3,"similarity":0.471,"stretto":false,"stretto_voices":0,"combination":[]},{"voice":3,"pitch":43,"start":50.0,"duration":0.5,"velocity":127,"measure":26,"beat":1.0,"subject_pos":-1,"motif":"","motif_pos":-1,"best_pos":3,"similarity":0.443,"stretto":false,"stretto_voices":0,"combination":[]},{"voice":2,"pitch":65,"start":50.25,"duration":0.25,"velocity":127,"measure":26,"beat":1.5,"subject_pos":-1,"motif":"","motif_pos":-1,"best_pos":3,"similarity":0.357,"stretto":false,"stretto_voices":0,"combination":[]},{"voice":2,"pitch":64,"start":50.5,"duration":0.25,"velocity":127,"measure":26,"beat":2.0,"subject_pos":-1,"motif":"","motif_pos":-1,"best_pos":1,"similarity":0.393,"stretto":false,"stretto_voices":0,"combination":[]},{"voice":3,"pitch":55,"start":50.5,"duration":0.5,"velocity":127,"measure":26,"beat":2.0,"subject_pos":-1,"motif":"","motif_pos":-1,"best_pos":2,"similarity":0.307,"stretto":false,"stretto_voices":0,"combination":[]},{"voice":2,"pitch":62,"start":50.75,"duration":0.25,"velocity":127,"measure":26,"beat":2.5,"subject_pos":-1,"motif":"","motif_pos":-1,"best_pos":2,"similarity":0.518,"stretto":false,"stretto_voices":0,"combination":[]},{"voice":2,"pitch":60,"start":51.0,"duration":2.5,"velocity":127,"measure":26,"beat":3.0,"subject_pos":-1,"motif":"","motif_pos":-1,"best_pos":2,"similarity":0.589,"stretto":false,"stretto_voices":0,"combination":[]},{"voice":3,"pitch":52,"start":51.0,"duration":0.5,"velocity":127,"measure":26,"beat":3.0,"subject_pos":-1,"motif":"","motif_pos":-1,"best_pos":1,"similarity":0.436,"stretto":false,"stretto_voices":0,"combination":[]},{"voice":1,"pitch":70,"start":51.25,"duration":0.25,"velocity":127,"measure":26,"beat":3.5,"subject_pos":-1,"motif":"","motif_pos":-1,"best_pos":3,"similarity":0.479,"stretto":false,"stretto_voices":0,"combination":[]},{"voice":1,"pitch":69,"start":51.5,"duration":0.25,"velocity":127,"measure":26,"beat":4.0,"subject_pos":-1,"motif":"","motif_pos":-1,"best_pos":4,"similarity":0.421,"stretto":false,"stretto_voices":0,"combination":[]},{"voice":3,"pitch":48,"start":51.5,"duration":0.5,"velocity":127,"measure":26,"beat":4.0,"subject_pos":-1,"motif":"","motif_pos":-1,"best_pos":2,"similarity":0.621,"stretto":false,"stretto_voices":0,"combination":[]},{"voice":1,"pitch":67,"start":51.75,"duration":0.25,"velocity":127,"measure":26,"beat":4.5,"subject_pos":-1,"motif":"","motif_pos":-1,"best_pos":2,"similarity":0.518,"stretto":false,"stretto_voices":0,"combination":[]},{"voice":0,"pitch":72,"start":52.0,"duration":1.0,"velocity":127,"measure":27,"beat":1.0,"subject_pos":-1,"motif":"","motif_pos":-1,"best_pos":1,"similarity":0.321,"stretto":false,"stretto_voices":0,"combination":[]},{"voice":1,"pitch":65,"start":52.0,"duration":0.5,"velocity":127,"measure":27,"beat":1.0,"subject_pos":-1,"motif":"","motif_pos":-1,"best_pos":2,"similarity":0.579,"stretto":false,"stretto_voices":0,"combination":[]},{"voice":3,"pitch":45,"start":52.0,"duration":0.25,"velocity":127,"measure":27,"beat":1.0,"subject_pos":-1,"motif":"","motif_pos":-1,"best_pos":3,"similarity":0.6,"stretto":false,"stretto_voices":0,"combination":[]},{"voice":3,"pitch":41,"start":52.25,"duration":0.25,"velocity":127,"measure":27,"beat":1.5,"subject_pos":-1,"motif":"","motif_pos":-1,"best_pos":4,"similarity":0.6,"stretto":false,"stretto_voices":0,"combination":[]},{"voice":1,"pitch":63,"start":52.5,"duration":0.5,"velocity":127,"measure":27,"beat":2.0,"subject_pos":-1,"motif":"","motif_pos":-1,"best_pos":3,"similarity":0.593,"stretto":false,"stretto_voices":0,"combination":[]},{"voice":3,"pitch":43,"start":52.5,"duration":0.25,"velocity":127,"measure":27,"beat":2.0,"subject_pos":-1,"motif":"","motif_pos":-1,"best_pos":5,"similarity":0.657,"stretto":false,"stretto_voices":0,"combination":[]},{"voice":3,"pitch":45,"start":52.75,"duration":0.25,"velocity":127,"measure":27,"beat":2.5,"subject_pos":-1,"motif":"","motif_pos":-1,"best_pos":6,"similarity":0.65,"stretto":false,"stretto_voices":0,"combination":[]},{"voice":0,"pitch":65,"start":53.0,"duration":1.0,"velocity":127,"measure":27,"beat":3.0,"subject_pos":-1,"motif":"","motif_pos":-1,"best_pos":2,"similarity":0.221,"stretto":false,"stretto_voices":0,"combination":[]},{"voice":1,"pitch":62,"start":53.0,"duration":1.0,"velocity":127,"measure":27,"beat":3.0,"subject_pos":-1,"motif":"","motif_pos":-1,"best_pos":4,"similarity":0.489,"stretto":false,"stretto_voices":0,"combination":[]},{"voice":3,"pitch":46,"start":53.0,"duration":0.25,"velocity":127,"measure":27,"beat":3.0,"subject_pos":-1,"motif":"","motif_pos":-1,"best_pos":5,"similarity":0.657,"stretto":false,"stretto_voices":0,"combination":[]},{"voice":3,"pitch":48,"start":53.25,"duration":0.25,"velocity":127,"measure":27,"beat":3.5,"subject_pos":-1,"motif":"","motif_pos":-1,"best_pos":6,"similarity":0.579,"stretto":false,"stretto_voices":0,"combination":[]},{"voice":2,"pitch":58,"start":53.5,"duration":0.5,"velocity":127,"measure":27,"beat":4.0,"subject_pos":-1,"motif":"","motif_pos":-1,"best_pos":3,"similarity":0.607,"stretto":false,"stretto_voices":0,"combination":[]},{"voice":3,"pitch":50,"start":53.5,"duration":0.25,"velocity":127,"measure":27,"beat":4.0,"subject_pos":-1,"motif":"","motif_pos":-1,"best_pos":5,"similarity":0.593,"stretto":false,"stretto_voices":0,"combination":[]},{"voice":3,"pitch":52,"start":53.75,"duration":0.25,"velocity":127,"measure":27,"beat":4.5,"subject_pos":-1,"motif":"","motif_pos":-1,"best_pos":6,"similarity":0.65,"stretto":false,"stretto_voices":0,"combination":[]},{"voice":0,"pitch":69,"start":54.0,"duration":1.0,"velocity":127,"measure":28,"beat":1.0,"subject_pos":-1,"motif":"","motif_pos":-1,"best_pos":5,"similarity":0.243,"stretto":false,"stretto_voices":0,"combination":[]},{"voice":1,"pitch":60,"start":54.0,"duration":0.25,"velocity":127,"measure":28,"beat":1.0,"subject_pos":-1,"motif":"","motif_pos":-1,"best_pos":2,"similarity":0.446,"stretto":false,"stretto_voices":0,"combination":[]},{"voice":2,"pitch":57,"start":54.0,"duration":0.5,"velocity":127,"measure":28,"beat":1.0,"subject_pos":-1,"motif":"","motif_pos":-1,"best_pos":4,"similarity":0.536,"stretto":false,"stretto_voices":0,"combination":[]},{"voice":3,"pitch":53,"start":54.0,"duration":1.25,"velocity":127,"measure":28,"beat":1.0,"subject_pos":-1,"motif":"","motif_pos":-1,"best_pos":7,"similarity":0.464,"stretto":false,"stretto_voices":0,"combination":[]},{"voice":1,"pitch":66,"start":54.25,"duration":0.25,"velocity":127,"measure":28,"beat":1.5,"subject_pos":-1,"motif":"","motif_pos":-1,"best_pos":3,"similarity":0.5,"stretto":false,"stretto_voices":0,"combination":[]},{"voice":1,"pitch":65,"start":54.5,"duration":0.25,"velocity":127,"measure":28,"beat":2.0,"subject_pos":-1,"motif":"","motif_pos":-1,"best_pos":3,"similarity":0.5,"stretto":false,"stretto_voices":0,"combination":[]},{"voice":2,"pitch":60,"start":54.5,"duration":0.5,"velocity":127,"measure":28,"beat":2.0,"subject_pos":-1,"motif":"","motif_pos":-1,"best_pos":2,"similarity":0.364,"stretto":false,"stretto_voices":0,"combination":[]},{"voice":1,"pitch":64,"start":54.75,"duration":0.25,"velocity":127,"measure":28,"beat":2.5,"subject_pos":-1,"motif":"","motif_pos":-1,"best_pos":4,"similarity":0.614,"stretto":false,"stretto_voices":0,"combination":[]},{"voice":0,"pitch":72,"start":55.0,"duration":1.0,"velocity":127,"measure":28,"beat":3.0,"subject_pos":-1,"motif":"","motif_pos":-1,"best_pos":5,"similarity":0.379,"stretto":false,"stretto_voices":0,"combination":[]},{"voice":1,"pitch":65,"start":55.0,"duration":1.25,"velocity":127,"measure":28,"beat":3.0,"subject_pos":-1,"motif":"","motif_pos":-1,"best_pos":5,"similarity":0.461,"stretto":false,"stretto_voices":0,"combination":[]},{"voice":2,"pitch":57,"start":55.0,"duration":1.25,"velocity":127,"measure":28,"beat":3.0,"subject_pos":-1,"motif":"","motif_pos":-1,"best_pos":3,"similarity":0.45,"stretto":false,"stretto_voices":0,"combination":[]},{"voice":3,"pitch":51,"start":55.25,"duration":0.25,"velocity":127,"measure":28,"beat":3.5,"subject_pos":-1,"motif":"","motif_pos":-1,"best_pos":3,"similarity":0.471,"stretto":false,"stretto_voices":0,"combination":[]},{"voice":3,"pitch":50,"start":55.5,"duration":0.25,"velocity":127,"measure":28,"beat":4.0,"subject_pos":-1,"motif":"","motif_pos":-1,"best_pos":3,"similarity":0.45,"stretto":false,"stretto_voices":0,"combination":[]},{"voice":3,"pitch":48,"start":55.75,"duration":0.25,"velocity":127,"measure":28,"beat":4.5,"subject_pos":-1,"motif":"","motif_pos":-1,"best_pos":2,"similarity":0.514,"stretto":false,"stretto_voices":0,"combination":[]},{"voice":0,"pitch":74,"start":56.0,"duration":1.0,"velocity":127,"measure":29,"beat":1.0,"subject_pos":-1,"motif":"","motif_pos":-1,"best_pos":1,"similarity":0.457,"stretto":false,"stretto_voices":0,"combination":[]},{"voice":3,"pitch":46,"start":56.0,"duration":1.0,"velocity":127,"measure":29,"beat":1.0,"subject_pos":-1,"motif":"","motif_pos":-1,"best_pos":5,"similarity":0.546,"stretto":false,"stretto_voices":0,"combination":[]},{"voice":1,"pitch":72,"start":56.25,"duration":0.25,"velocity":127,"measure":29,"beat":1.5,"subject_pos":-1,"motif":"","motif_pos":-1,"best_pos":1,"similarity":0.643,"stretto":false,"stretto_voices":0,"combination":[]},{"voice":2,"pitch":57,"start":56.25,"duration":0.25,"velocity":127,"measure":29,"beat":1.5,"subject_pos":-1,"motif":"","motif_pos":-1,"best_pos":1,"similarity":0.429,"stretto":false,"stretto_voices":0,"combination":[]},{"voice":1,"pitch":70,"start":56.5,"duration":0.25,"velocity":127,"measure":29,"beat":2.0,"subject_pos":-1,"motif":"","motif_pos":-1,"best_pos":2,"similarity":0.607,"stretto":false,"stretto_voices":0,"combination":[]},{"voice":2,"pitch":55,"start":56.5,"duration":0.25,"velocity":127,"measure":29,"beat":2.0,"subject_pos":-1,"motif":"","motif_pos":-1,"best_pos":2,"similarity":0.579,"stretto":false,"stretto_voices":0,"combination":[]},{"voice":1,"pitch":69,"start":56.75,"duration":0.25,"velocity":127,"measure":29,"beat":2.5,"subject_pos":-1,"motif":"","motif_pos":-1,"best_pos":4,"similarity":0.536,"stretto":false,"stretto_voices":0,"combination":[]},{"voice":2,"pitch":53,"start":56.75,"duration":0.25,"velocity":127,"measure":29,"beat":2.5,"subject_pos":-1,"motif":"","motif_pos":-1,"best_pos":3,"similarity":0.657,"stretto":false,"stretto_voices":0,"combination":[]},{"voice":0,"pitch":72,"start":57.0,"duration":0.5,"velocity":127,"measure":29,"beat":3.0,"subject_pos":-1,"motif":"","motif_pos":-1,"best_pos":2,"similarity":0.593,"stretto":false,"stretto_voices":0,"combination":[]},{"voice":1,"pitch":67,"start":57.0,"duration":0.25,"velocity":127,"measure":29,"beat":3.0,"subject_pos":-1,"motif":"","motif_pos":-1,"best_pos":5,"similarity":0.507,"stretto":false,"stretto_voices":0,"combination":[]},{"voice":2,"pitch":52,"start":57.0,"duration":0.25,"velocity":127,"measure":29,"beat":3.0,"subject_pos":-1,"motif":"","motif_pos":-1,"best_pos":4,"similarity":0.607,"stretto":false,"stretto_voices":0,"combination":[]},{"voice":3,"pitch":48,"start":57.0,"duration":1.0,"velocity":127,"measure":29,"beat":3.0,"subject_pos":-1,"motif":"","motif_pos":-1,"best_pos":6,"similarity":0.621,"stretto":false,"stretto_voices":0,"combination":[]},{"voice":1,"pitch":69,"start":57.25,"duration":0.25,"velocity":127,"measure":29,"beat":3.5,"subject_pos":-1,"motif":"","motif_pos":-1,"best_pos":1,"similarity":0.457,"stretto":false,"stretto_voices":0,"combination":[]},{"voice":2,"pitch":50,"start":57.25,"duration":0.25,"velocity":127,"measure":29,"beat":3.5,"subject_pos":-1,"motif":"","motif_pos":-1,"best_pos":5,"similarity":0.507,"stretto":false,"stretto_voices":0,"combination":[]},{"voice":0,"pitch":70,"start":57.5,"duration":0.5,"velocity":127,"measure":29,"beat":4.0,"subject_pos":-1,"motif":"","motif_pos":-1,"best_pos":3,"similarity":0.664,"stretto":false,"stretto_voices":0,"combination":[]},{"voice":1,"pitch":67,"start":57.5,"duration":0.25,"velocity":127,"measure":29,"beat":4.0,"subject_pos":-1,"motif":"","motif_pos":-1,"best_pos":2,"similarity":0.593,"stretto":false,"stretto_voices":0,"combination":[]},{"voice":2,"pitch":52,"start":57.5,"duration":1.0,"velocity":127,"measure":29,"beat":4.0,"subject_pos":-1,"motif":"","motif_pos":-1,"best_pos":0,"similarity":0.464,"stretto":false,"stretto_voices":0,"combination":[]},{"voice":1,"pitch":65,"start":57.75,"duration":0.25,"velocity":127,"measure":29,"beat":4.5,"subject_pos":-1,"motif":"","motif_pos":-1,"best_pos":3,"similarity":0.664,"stretto":false,"stretto_voices":0,"combination":[]},{"voice":0,"pitch":69,"start":58.0,"duration":1.25,"velocity":127,"measure":30,"beat":1.0,"subject_pos":-1,"motif":"","motif_pos":-1,"best_pos":4,"similarity":0.636,"stretto":false,"stretto_voices":0,"combination":[]},{"voice":1,"pitch":64,"start":58.0,"duration":0.25,"velocity":127,"measure":30,"beat":1.0,"subject_pos":-1,"motif":"","motif_pos":-1,"best_pos":4,"similarity":0.607,"stretto":false,"stretto_voices":0,"combination":[]},{"voice":3,"pitch":49,"start":58.0,"duration":1.0,"velocity":127,"measure":30,"beat":1.0,"subject_pos":-1,"motif":"","motif_pos":-1,"best_pos":6,"similarity":0.536,"stretto":false,"stretto_voices":0,"combination":[]},{"voice":1,"pitch":62,"start":58.25,"duration":0.25,"velocity":127,"measure":30,"beat":1.5,"subject_pos":-1,"motif":"","motif_pos":-1,"best_pos":5,"similarity":0.507,"stretto":false,"stretto_voices":0,"combination":[]},{"voice":1,"pitch":64,"start":58.5,"duration":0.5,"velocity":127,"measure":30,"beat":2.0,"subject_pos":-1,"motif":"","motif_pos":-1,"best_pos":6,"similarity":0.4,"stretto":false,"stretto_voices":0,"combination":[]},{"voice":2,"pitch":57,"start":58.5,"duration":0.25,"velocity":127,"measure":30,"beat":2.0,"subject_pos":-1,"motif":"","motif_pos":-1,"best_pos":1,"similarity":0.714,"stretto":false,"stretto_voices":0,"combination":[]},{"voice":2,"pitch":55,"start":58.75,"duration":0.25,"velocity":127,"measure":30,"beat":2.5,"subject_pos":-1,"motif":"","motif_pos":-1,"best_pos":2,"similarity":0.786,"stretto":false,"stretto_voices":0,"combination":[]},{"voice":1,"pitch":62,"start":59.0,"duration":0.5,"velocity":127,"measure":30,"beat":3.0,"subject_pos":-1,"motif":"","motif_pos":-1,"best_pos":2,"similarity":0.307,"stretto":false,"stretto_voices":0,"combination":[]},{"voice":2,"pitch":53,"start":59.0,"duration":0.25,"velocity":127,"measure":30,"beat":3.0,"subject_pos":-1,"motif":"","motif_pos":-1,"best_pos":3,"similarity":0.793,"stretto":false,"stretto_voices":0,"combination":[]},{"voice":3,"pitch":50,"start":59.0,"duration":1.0,"velocity":127,"measure":30,"beat":3.0,"subject_pos":-1,"motif":"","motif_pos":-1,"best_pos":7,"similarity":0.393,"stretto":false,"stretto_voices":0,"combination":[]},{"voice":0,"pitch":67,"start":59.25,"duration":0.25,"velocity":127,"measure":30,"beat":3.5,"subject_pos":-1,"motif":"","motif_pos":-1,"best_pos":4,"similarity":0.607,"stretto":false,"stretto_voices":0,"combination":[]},{"voice":2,"pitch":52,"start":59.25,"duration":0.25,"velocity":127,"measure":30,"beat":3.5,"subject_pos":-1,"motif":"","motif_pos":-1,"best_pos":4,"similarity":0.736,"stretto":false,"stretto_voices":0,"combination":[]},{"voice":0,"pitch":69,"start":59.5,"duration":0.25,"velocity":127,"measure":30,"beat":4.0,"subject_pos":-1,"motif":"","motif_pos":-1,"best_pos":5,"similarity":0.661,"stretto":false,"stretto_voices":0,"combination":[]},{"voice":2,"pitch":53,"start":59.5,"duration":1.0,"velocity":127,"measure":30,"beat":4.0,"subject_pos":-1,"motif":"","motif_pos":-1,"best_pos":5,"similarity":0.507,"stretto":false,"stretto_voices":0,"combination":[]},{"voice":0,"pitch":71,"start":59.75,"duration":0.25,"velocity":127,"measure":30,"beat":4.5,"subject_pos":-1,"motif":"","motif_pos":-1,"best_pos":6,"similarity":0.679,"stretto":false,"stretto_voices":0,"combination":[]},{"voice":0,"pitch":72,"start":60.0,"duration":1.0,"velocity":127,"measure":31,"beat":1.0,"subject_pos":-1,"motif":"","motif_pos":-1,"best_pos":7,"similarity":0.464,"stretto":false,"stretto_voices":0,"combination":[]},{"voice":1,"pitch":67,"start":60.0,"duration":1.0,"velocity":127,"measure":31,"beat":1.0,"subject_pos":-1,"motif":"","motif_pos":-1,"best_pos":1,"similarity":0.321,"stretto":false,"stretto_voices":0,"combination":[]},{"voice":3,"pitch":48,"start":60.0,"duration":1.0,"velocity":127,"measure":31,"beat":1.0,"subject_pos":-1,"motif":"","motif_pos":-1,"best_pos":2,"similarity":0.314,"stretto":false,"stretto_voices":0,"combination":[]},{"voice":2,"pitch":52,"start":60.5,"duration":0.25,"velocity":127,"measure":31,"beat":2.0,"subject_pos":-1,"motif":"","motif_pos":-1,"best_pos":4,"similarity":0.579,"stretto":false,"stretto_voices":0,"combination":[]},{"voice":2,"pitch":50,"start":60.75,"duration":0.25,"velocity":127,"measure":31,"beat":2.5,"subject_pos":-1,"motif":"","motif_pos":-1,"best_pos":5,"similarity":0.607,"stretto":false,"stretto_voices":0,"combination":[]},{"voice":1,"pitch":60,"start":61.0,"duration":1.0,"velocity":127,"measure":31,"beat":3.0,"subject_pos":-1,"motif":"","motif_pos":-1,"best_pos":2,"similarity":0.221,"stretto":false,"stretto_voices":0,"combination":[]},{"voice":2,"pitch":52,"start":61.0,"duration":0.25,"velocity":127,"measure":31,"beat":3.0,"subject_pos":-1,"motif":"","motif_pos":-1,"best_pos":6,"similarity":0.657,"stretto":false,"stretto_voices":0,"combination":[]},{"voice":2,"pitch":53,"start":61.25,"duration":0.25,"velocity":127,"measure":31,"beat":3.5,"subject_pos":-1,"motif":"","motif_pos":-1,"best_pos":5,"similarity":0.693,"stretto":false,"stretto_voices":0,"combination":[]},{"voice":2,"pitch":55,"start":61.5,"duration":0.75,"velocity":127,"measure":31,"beat":4.0,"subject_pos":-1,"motif":"","motif_pos":-1,"best_pos":5,"similarity":0.607,"stretto":false,"stretto_voices":0,"combination":[]},{"voice":3,"pitch":52,"start":61.5,"duration":0.5,"velocity":127,"measure":31,"beat":4.0,"subject_pos":-1,"motif":"","motif_pos":-1,"best_pos":1,"similarity":0.464,"stretto":false,"stretto_voices":0,"combination":[]},{"voice":1,"pitch":64,"start":62.0,"duration":1.0,"velocity":127,"measure":32,"beat":1.0,"subject_pos":-1,"motif":"","motif_pos":-1,"best_pos":5,"similarity":0.243,"stretto":false,"stretto_voices":0,"combination":[]},{"voice":3,"pitch":48,"start":62.0,"duration":0.5,"velocity":127,"measure":32,"beat":1.0,"subject_pos":-1,"motif":"","motif_pos":-1,"best_pos":0,"similarity":0.446,"stretto":false,"stretto_voices":0,"combination":[]},{"voice":2,"pitch":57,"start":62.25,"duration":0.25,"velocity":127,"measure":32,"beat":1.5,"subject_pos":-1,"motif":"","motif_pos":-1,"best_pos":6,"similarity":0.661,"stretto":false,"stretto_voices":0,"combination":[]},{"voice":0,"pitch":76,"start":62.5,"duration":0.5,"velocity":127,"measure":32,"beat":2.0,"subject_pos":-1,"motif":"","motif_pos":-1,"best_pos":1,"similarity":0.482,"stretto":false,"stretto_voices":0,"combination":[]},{"voice":2,"pitch":58,"start":62.5,"duration":1.0,"velocity":127,"measure":32,"beat":2.0,"subject_pos":-1,"motif":"","motif_pos":-1,"best_pos":7,"similarity":0.464,"stretto":false,"stretto_voices":0,"combination":[]},{"voice":3,"pitch":55,"start":62.5,"duration":0.25,"velocity":127,"measure":32,"beat":2.0,"subject_pos":-1,"motif":"","motif_pos":-1,"best_pos":1,"similarity":0.643,"stretto":false,"stretto_voices":0,"combination":[]},{"voice":3,"pitch":53,"start":62.75,"duration":0.25,"velocity":127,"measure":32,"beat":2.5,"subject_pos":-1,"motif":"","motif_pos":-1,"best_pos":2,"similarity":0.643,"stretto":false,"stretto_voices":0,"combination":[]},{"voice":0,"pitch":72,"start":63.0,"duration":1.5,"velocity":127,"measure":32,"beat":3.0,"subject_pos":-1,"motif":"","motif_pos":-1,"best_pos":3,"similarity":0.65,"stretto":false,"stretto_voices":0,"combination":[]},{"voice":1,"pitch":67,"start":63.0,"duration":1.0,"velocity":127,"measure":32,"beat":3.0,"subject_pos":-1,"motif":"","motif_pos":-1,"best_pos":5,"similarity":0.379,"stretto":false,"stretto_voices":0,"combination":[]},{"voice":3,"pitch":52,"start":63.0,"duration":0.25,"velocity":127,"measure":32,"beat":3.0,"subject_pos":-1,"motif":"","motif_pos":-1,"best_pos":3,"similarity":0.589,"stretto":false,"stretto_voices":0,"combination":[]},{"voice":3,"pitch":50,"start":63.25,"duration":0.25,"velocity":127,"measure":32,"beat":3.5,"subject_pos":-1,"motif":"","motif_pos":-1,"best_pos":4,"similarity":0.589,"stretto":false,"stretto_voices":0,"combination":[]},{"voice":2,"pitch":57,"start":63.5,"duration":0.25,"velocity":127,"measure":32,"beat":4.0,"subject_pos":-1,"motif":"","motif_pos":-1,"best_pos":2,"similarity":0.371,"stretto":false,"stretto_voices":0,"combination":[]},{"voice":3,"pitch":51,"start":63.5,"duration":0.75,"velocity":127,"measure":32,"beat":4.0,"subject_pos":-1,"motif":"","motif_pos":-1,"best_pos":5,"similarity":0.482,"stretto":false,"stretto_voices":0,"combination":[]},{"voice":2,"pitch":55,"start":63.75,"duration":0.25,"velocity":127,"measure":32,"beat":4.5,"subject_pos":-1,"motif":"","motif_pos":-1,"best_pos":2,"similarity":0.429,"stretto":false,"stretto_voices":0,"combination":[]},{"voice":1,"pitch":69,"start":64.0,"duration":1.0,"velocity":127,"measure":33,"beat":1.0,"subject_pos":-1,"motif":"","motif_pos":-1,"best_pos":1,"similarity":0.457,"stretto":false,"stretto_voices":0,"combination":[]},{"voice":2,"pitch":53,"start":64.0,"duration":1.0,"velocity":127,"measure":33,"beat":1.0,"subject_pos":-1,"motif":"","motif_pos":-1,"best_pos":3,"similarity":0.321,"stretto":false,"stretto_voices":0,"combination":[]},{"voice":3,"pitch":51,"start":64.25,"duration":0.25,"velocity":127,"measure":33,"beat":1.5,"subject_pos":-1,"motif":"","motif_pos":-1,"best_pos":3,"similarity":0.35,"stretto":false,"stretto_voices":0,"combination":[]},{"voice":0,"pitch":71,"start":64.5,"duration":0.25,"velocity":127,"measure":33,"beat":2.0,"subject_pos":-1,"motif":"","motif_pos":-1,"best_pos":4,"similarity":0.786,"stretto":false,"stretto_voices":0,"combination":[]},{"voice":3,"pitch":50,"start":64.5,"duration":0.25,"velocity":127,"measure":33,"beat":2.0,"subject_pos":-1,"motif":"","motif_pos":-1,"best_pos":2,"similarity":0.429,"stretto":false,"stretto_voices":0,"combination":[]},{"voice":0,"pitch":72,"start":64.75,"duration":0.25,"velocity":127,"measure":33,"beat":2.5,"subject_pos":-1,"motif":"","motif_pos":-1,"best_pos":5,"similarity":0.75,"stretto":false,"stretto_voices":0,"combination":[]},{"voice":3,"pitch":48,"start":64.75,"duration":0.25,"velocity":127,"measure":33,"beat":2.5,"subject_pos":-1,"motif":"","motif_pos":-1,"best_pos":3,"similarity":0.571,"stretto":false,"stretto_voices":0,"combination":[]},{"voice":0,"pitch":74,"start":65.0,"duration":1.25,"velocity":127,"measure":33,"beat":3.0,"subject_pos":-1,"motif":"head_inv","motif_pos":0,"best_pos":0,"similarity":1.0,"stretto":false,"stretto_voices":0,"combination":[]},{"voice":1,"pitch":67,"start":65.0,"duration":0.5,"velocity":127,"measure":33,"beat":3.0,"subject_pos":-1,"motif":"","motif_pos":-1,"best_pos":2,"similarity":0.593,"stretto":false,"stretto_voices":0,"combination":[]},{"voice":3,"pitch":47,"start":65.0,"duration":0.25,"velocity":127,"measure":33,"beat":3.0,"subject_pos":-1,"motif":"","motif_pos":-1,"best_pos":4,"similarity":0.571,"stretto":false,"stretto_voices":0,"combination":[]},{"voice":3,"pitch":43,"start":65.25,"duration":0.25,"velocity":127,"measure":33,"beat":3.5,"subject_pos":-1,"motif":"","motif_pos":-1,"best_pos":5,"similarity":0.536,"stretto":false,"stretto_voices":0,"combination":[]},{"voice":1,"pitch":65,"start":65.5,"duration":0.5,"velocity":127,"measure":33,"beat":4.0,"subject_pos":-1,"motif":"","motif_pos":-1,"best_pos":3,"similarity":0.664,"stretto":false,"stretto_voices":0,"combination":[]},{"voice":3,"pitch":45,"start":65.5,"duration":0.25,"velocity":127,"measure":33,"beat":4.0,"subject_pos":-1,"motif":"","motif_pos":-1,"best_pos":5,"similarity":0.604,"stretto":false,"stretto_voices":0,"combination":[]},{"voice":3,"pitch":47,"start":65.75,"duration":0.25,"velocity":127,"measure":33,"beat":4.5,"subject_pos":-1,"motif":"","motif_pos":-1,"best_pos":6,"similarity":0.65,"stretto":false,"stretto_voices":0,"combination":[]},{"voice":1,"pitch":64,"start":66.0,"duration":1.25,"velocity":127,"measure":34,"beat":1.0,"subject_pos":-1,"motif":"","motif_pos":-1,"best_pos":4,"similarity":0.636,"stretto":false,"stretto_voices":0,"combination":[]},{"voice":3,"pitch":48,"start":66.0,"duration":0.5,"velocity":127,"measure":34,"beat":1.0,"subject_pos":-1,"motif":"","motif_pos":-1,"best_pos":7,"similarity":0.464,"stretto":false,"stretto_voices":0,"combination":[]},{"voice":0,"pitch":67,"start":66.25,"duration":0.25,"velocity":127,"measure":34,"beat":1.5,"subject_pos":-1,"motif":"head_inv","motif_pos":1,"best_pos":1,"similarity":1.0,"stretto":false,"stretto_voices":0,"combination":[]},{"voice":0,"pitch":69,"start":66.5,"duration":0.25,"velocity":127,"measure":34,"beat":2.0,"subject_pos":-1,"motif":"head_inv","motif_pos":2,"best_pos":2,"similarity":1.0,"stretto":false,"stretto_voices":0,"combination":[]},{"voice":3,"pitch":46,"start":66.5,"duration":0.5,"velocity":127,"measure":34,"beat":2.0,"subject_pos":-1,"motif":"","motif_pos":-1,"best_pos":3,"similarity":0.536,"stretto":false,"stretto_voices":0,"combination":[]},{"voice":0,"pitch":71,"start":66.75,"duration":0.25,"velocity":127,"measure":34,"beat":2.5,"subject_pos":-1,"motif":"head_inv","motif_pos":3,"best_pos":3,"similarity":1.0,"stretto":false,"stretto_voices":0,"combination":[]},{"voice":0,"pitch":72,"start":67.0,"duration":1.5,"velocity":127,"measure":34,"beat":3.0,"subject_pos":-1,"motif":"head_inv","motif_pos":4,"best_pos":4,"similarity":1.0,"stretto":false,"stretto_voices":0,"combination":[]},{"voice":3,"pitch":45,"start":67.0,"duration":1.0,"velocity":127,"measure":34,"beat":3.0,"subject_pos":-1,"motif":"","motif_pos":-1,"best_pos":4,"similarity":0.607,"stretto":false,"stretto_voices":0,"combination":[]},{"voice":1,"pitch":62,"start":67.25,"duration":0.25,"velocity":127,"measure":34,"beat":3.5,"subject_pos":-1,"motif":"","motif_pos":-1,"best_pos":4,"similarity":0.607,"stretto":false,"stretto_voices":0,"combination":[]},{"voice":1,"pitch":64,"start":67.5,"duration":0.25,"velocity":127,"measure":34,"beat":4.0,"subject_pos":-1,"motif":"","motif_pos":-1,"best_pos":5,"similarity":0.661,"stretto":false,"stretto_voices":0,"combination":[]},{"voice":1,"pitch":66,"start":67.75,"duration":0.25,"velocity":127,"measure":34,"beat":4.5,"subject_pos":-1,"motif":"","motif_pos":-1,"best_pos":6,"similarity":0.679,"stretto":false,"stretto_voices":0,"combination":[]},{"voice":1,"pitch":67,"start":68.0,"duration":1.25,"velocity":127,"measure":35,"beat":1.0,"subject_pos":-1,"motif":"","motif_pos":-1,"best_pos":6,"similarity":0.507,"stretto":false,"stretto_voices":0,"combination":[]},{"voice":2,"pitch":62,"start":68.0,"duration":1.0,"velocity":127,"measure":35,"beat":1.0,"subject_pos":0,"motif":"subject_inv","motif_pos":0,"best_pos":0,"similarity":1.0,"stretto":false,"stretto_voices":0,"combination":[]},{"voice":3,"pitch":43,"start":68.0,"duration":0.25,"velocity":127,"measure":35,"beat":1.0,"subject_pos":-1,"motif":"","motif_pos":-1,"best_pos":5,"similarity":0.636,"stretto":false,"stretto_voices":0,"combination":[]},{"voice":3,"pitch":45,"start":68.25,"duration":0.25,"velocity":127,"measure":35,"beat":1.5,"subject_pos":-1,"motif":"","motif_pos":-1,"best_pos":6,"similarity":0.657,"stretto":false,"stretto_voices":0,"combination":[]},{"voice":0,"pitch":74,"start":68.5,"duration":0.5,"velocity":127,"measure":35,"beat":2.0,"subject_pos":-1,"motif":"","motif_pos":-1,"best_pos":6,"similarity":0.436,"stretto":false,"stretto_voices":0,"combination":[]},{"voice":3,"pitch":46,"start":68.5,"duration":0.25,"velocity":127,"measure":35,"beat":2.0,"subject_pos":-1,"motif":"","motif_pos":-1,"best_pos":7,"similarity":0.436,"stretto":false,"stretto_voices":0,"combination":[]},{"voice":3,"pitch":50,"start":68.75,"duration":0.25,"velocity":127,"measure":35,"beat":2.5,"subject_pos":-1,"motif":"","motif_pos":-1,"best_pos":0,"similarity":0.339,"stretto":false,"stretto_voices":0,"combination":[]},{"voice":0,"pitch":70,"start":69.0,"duration":1.0,"velocity":127,"measure":35,"beat":3.0,"subject_pos":-1,"motif":"","motif_pos":-1,"best_pos":2,"similarity":0.314,"stretto":false,"stretto_voices":0,"combination":[]},{"voice":2,"pitch":55,"start":69.0,"duration":1.0,"velocity":127,"measure":35,"beat":3.0,"subject_pos":1,"motif":"subject_inv","motif_pos":1,"best_pos":1,"similarity":1.0,"stretto":false,"stretto_voices":0,"combination":[]},{"voice":3,"pitch":55,"start":69.0,"duration":0.5,"velocity":127,"measure":35,"beat":3.0,"subject_pos":-1,"motif":"","motif_pos":-1,"best_pos":1,"similarity":0.4,"stretto":false,"stretto_voices":0,"combination":[]},{"voice":1,"pitch":68,"start":69.25,"duration":0.25,"velocity":127,"measure":35,"beat":3.5,"subject_pos":-1,"motif":"","motif_pos":-1,"best_pos":3,"similarity":0.407,"stretto":false,"stretto_voices":0,"combination":[]},{"voice":1,"pitch":67,"start":69.5,"duration":0.25,"velocity":127,"measure":35,"beat":4.0,"subject_pos":-1,"motif":"","motif_pos":-1,"best_pos":3,"similarity":0.557,"stretto":false,"stretto_voices":0,"combination":[]},{"voice":1,"pitch":66,"start":69.75,"duration":0.25,"velocity":127,"measure":35,"beat":4.5,"subject_pos":-1,"motif":"","motif_pos":-1,"best_pos":4,"similarity":0.704,"stretto":false,"stretto_voices":0,"combination":[]},{"voice":1,"pitch":67,"start":70.0,"duration":1.25,"velocity":127,"measure":36,"beat":1.0,"subject_pos":-1,"motif":"","motif_pos":-1,"best_pos":5,"similarity":0.625,"stretto":false,"stretto_voices":0,"combination":[]},{"voice":2,"pitch":58,"start":70.0,"duration":1.0,"velocity":127,"measure":36,"beat":1.0,"subject_pos":2,"motif":"subject_inv","motif_pos":2,"best_pos":2,"similarity":1.0,"stretto":false,"stretto_voices":0,"combination":[]},{"voice":0,"pitch":74,"start":70.5,"duration":0.5,"velocity":127,"measure":36,"beat":2.0,"subject_pos":-1,"motif":"","motif_pos":-1,"best_pos":1,"similarity":0.5,"stretto":false,"stretto_voices":0,"combination":[]},{"voice":0,"pitch":70,"start":71.0,"duration":0.5,"velocity":127,"measure":36,"beat":3.0,"subject_pos":-1,"motif":"","motif_pos":-1,"best_pos":2,"similarity":0.507,"stretto":false,"stretto_voices":0,"combination":[]},{"voice":2,"pitch":62,"start":71.0,"duration":1.0,"velocity":127,"measure":36,"beat":3.0,"subject_pos":3,"motif":"subject_inv","motif_pos":3,"best_pos":3,"similarity":1.0,"stretto":false,"stretto_voices":0,"combination":[]},{"voice":1,"pitch":68,"start":71.25,"duration":0.25,"velocity":127,"measure":36,"beat":3.5,"subject_pos":-1,"motif":"","motif_pos":-1,"best_pos":6,"similarity":0.429,"stretto":false,"stretto_voices":0,"combination":[]},{"voice":0,"pitch":82,"start":71.5,"duration":1.0,"velocity":127,"measure":36,"beat":4.0,"subject_pos":-1,"motif":"","motif_pos":-1,"best_pos":3,"similarity":0.55,"stretto":false,"stretto_voices":0,"combination":[]},{"voice":1,"pitch":67,"start":71.5,"duration":0.25,"velocity":127,"measure":36,"beat":4.0,"subject_pos":-1,"motif":"","motif_pos":-1,"best_pos":3,"similarity":0.529,"stretto":false,"stretto_voices":0,"combination":[]},{"voice":1,"pitch":66,"start":71.75,"duration":0.25,"velocity":127,"measure":36,"beat":4.5,"subject_pos":-1,"motif":"","motif_pos":-1,"best_pos":4,"similarity":0.629,"stretto":false,"stretto_voices":0,"combination":[]},{"voice":1,"pitch":67,"start":72.0,"duration":0.5,"velocity":127,"measure":37,"beat":1.0,"subject_pos":-1,"motif":"","motif_pos":-1,"best_pos":5,"similarity":0.475,"stretto":false,"stretto_voices":0,"combination":[]},{"voice":2,"pitch":63,"start":72.0,"duration":1.0,"velocity":127,"measure":37,"beat":1.0,"subject_pos":4,"motif":"subject_inv","motif_pos":4,"best_pos":4,"similarity":1.0,"stretto":false,"stretto_voices":0,"combination":[]},{"voice":0,"pitch":81,"start":72.5,"duration":0.25,"velocity":127,"measure":37,"beat":2.0,"subject_pos":-1,"motif":"","motif_pos":-1,"best_pos":4,"similarity":0.536,"stretto":false,"stretto_voices":0,"combination":[]},{"voice":1,"pitch":72,"start":72.5,"duration":0.5,"velocity":127,"measure":37,"beat":2.0,"subject_pos":-1,"motif":"","motif_pos":-1,"best_pos":1,"similarity":0.429,"stretto":false,"stretto_voices":0,"combination":[]},{"voice":0,"pitch":79,"start":72.75,"duration":0.25,"velocity":127,"measure":37,"beat":2.5,"subject_pos":-1,"motif":"","motif_pos":-1,"best_pos":5,"similarity":0.471,"stretto":false,"stretto_voices":0,"combination":[]},{"voice":0,"pitch":81,"start":73.0,"duration":0.25,"velocity":127,"measure":37,"beat":3.0,"subject_pos":-1,"motif":"","motif_pos":-1,"best_pos":6,"similarity":0.4,"stretto":false,"stretto_voices":0,"combination":[]},{"voice":1,"pitch":66,"start":73.0,"duration":0.5,"velocity":127,"measure":37,"beat":3.0,"subject_pos":-1,"motif":"","motif_pos":-1,"best_pos":2,"similarity":0.375,"stretto":false,"stretto_voices":0,"combination":[]},{"voice":2,"pitch":62,"start":73.0,"duration":0.5,"velocity":127,"measure":37,"beat":3.0,"subject_pos":5,"motif":"subject_inv","motif_pos":5,"best_pos":5,"similarity":1.0,"stretto":false,"stretto_voices":0,"combination":[]},{"voice":0,"pitch":79,"start":73.25,"duration":0.25,"velocity":127,"measure":37,"beat":3.5,"subject_pos":-1,"motif":"","motif_pos":-1,"best_pos":3,"similarity":0.479,"stretto":false,"stretto_voices":0,"combination":[]},{"voice":0,"pitch":78,"start":73.5,"duration":0.25,"velocity":127,"measure":37,"beat":4.0,"subject_pos":-1,"motif":"","motif_pos":-1,"best_pos":4,"similarity":0.471,"stretto":false,"stretto_voices":0,"combination":[]},{"voice":1,"pitch":69,"start":73.5,"duration":0.75,"velocity":127,"measure":37,"beat":4.0,"subject_pos":-1,"motif":"","motif_pos":-1,"best_pos":3,"similarity":0.436,"stretto":false,"stretto_voices":0,"combination":[]},{"voice":2,"pitch":60,"start":73.5,"duration":0.5,"velocity":127,"measure":37,"beat":4.0,"subject_pos":6,"motif":"subject_inv","motif_pos":6,"best_pos":6,"similarity":1.0,"stretto":false,"stretto_voices":0,"combination":[]},{"voice":0,"pitch":81,"start":73.75,"duration":0.25,"velocity":127,"measure":37,"beat":4.5,"subject_pos":-1,"motif":"","motif_pos":-1,"best_pos":5,"similarity":0.321,"stretto":false,"stretto_voices":0,"combination":[]},{"voice":0,"pitch":74,"start":74.0,"duration":1.0,"velocity":127,"measure":38,"beat":1.0,"subject_pos":-1,"motif":"","motif_pos":-1,"best_pos":6,"similarity":0.25,"stretto":false,"stretto_voices":0,"combination":[]},{"voice":2,"pitch":58,"start":74.0,"duration":1.25,"velocity":127,"measure":38,"beat":1.0,"subject_pos":7,"motif":"subject_inv","motif_pos":7,"best_pos":7,"similarity":1.0,"stretto":false,"stretto_voices":0,"combination":[]},{"voice":1,"pitch":68,"start":74.25,"duration":0.25,"velocity":127,"measure":38,"beat":1.5,"subject_pos":-1,"motif":"","motif_pos":-1,"best_pos":2,"similarity":0.464,"stretto":false,"stretto_voices":0,"combination":[]},{"voice":1,"pitch":67,"start":74.5,"duration":0.25,"velocity":127,"measure":38,"beat":2.0,"subject_pos":-1,"motif":"","motif_pos":-1,"best_pos":3,"similarity":0.596,"stretto":false,"stretto_voices":0,"combination":[]},{"voice":1,"pitch":66,"start":74.75,"duration":0.25,"velocity":127,"measure":38,"beat":2.5,"subject_pos":-1,"motif":"","motif_pos":-1,"best_pos":4,"similarity":0.729,"stretto":false,"stretto_voices":0,"combination":[]},{"voice":1,"pitch":67,"start":75.0,"duration":1.25,"velocity":127,"measure":38,"beat":3.0,"subject_pos":-1,"motif":"","motif_pos":-1,"best_pos":5,"similarity":0.618,"stretto":false,"stretto_voices":0,"combination":[]},{"voice":2,"pitch":57,"start":75.25,"duration":0.25,"velocity":127,"measure":38,"beat":3.5,"subject_pos":-1,"motif":"","motif_pos":-1,"best_pos":4,"similarity":0.893,"stretto":false,"stretto_voices":0,"combination":[]},{"voice":0,"pitch":74,"start":75.5,"duration":0.5,"velocity":127,"measure":38,"beat":4.0,"subject_pos":-1,"motif":"","motif_pos":-1,"best_pos":1,"similarity":0.371,"stretto":false,"stretto_voices":0,"combination":[]},{"voice":2,"pitch":58,"start":75.5,"duration":0.25,"velocity":127,"measure":38,"beat":4.0,"subject_pos":-1,"motif":"","motif_pos":-1,"best_pos":5,"similarity":0.821,"stretto":false,"stretto_voices":0,"combination":[]},{"voice":2,"pitch":60,"start":75.75,"duration":0.25,"velocity":127,"measure":38,"beat":4.5,"subject_pos":-1,"motif":"","motif_pos":-1,"best_pos":6,"similarity":0.643,"stretto":false,"stretto_voices":0,"combination":[]},{"voice":0,"pitch":70,"start":76.0,"duration":0.75,"velocity":127,"measure":39,"beat":1.0,"subject_pos":-1,"motif":"","motif_pos":-1,"best_pos":2,"similarity":0.457,"stretto":false,"stretto_voices":0,"combination":[]},{"voice":2,"pitch":62,"start":76.0,"duration":0.25,"velocity":127,"measure":39,"beat":1.0,"subject_pos":-1,"motif":"","motif_pos":-1,"best_pos":6,"similarity":0.661,"stretto":false,"stretto_voices":0,"combination":[]},{"voice":3,"pitch":55,"start":76.0,"duration":1.0,"velocity":127,"measure":39,"beat":1.0,"subject_pos":-1,"motif":"head_inv","motif_pos":0,"best_pos":0,"similarity":1.0,"stretto":false,"stretto_voices":0,"combination":[]},{"voice":1,"pitch":66,"start":76.25,"duration":0.25,"velocity":127,"measure":39,"beat":1.5,"subject_pos":-1,"motif":"","motif_pos":-1,"best_pos":4,"similarity":0.664,"stretto":false,"stretto_voices":0,"combination":[]},{"voice":2,"pitch":63,"start":76.25,"duration":0.25,"velocity":127,"measure":39,"beat":1.5,"subject_pos":-1,"motif":"","motif_pos":-1,"best_pos":7,"similarity":0.464,"stretto":false,"stretto_voices":0,"combination":[]},{"voice":1,"pitch":67,"start":76.5,"duration":0.75,"velocity":127,"measure":39,"beat":2.0,"subject_pos":-1,"motif":"","motif_pos":-1,"best_pos":5,"similarity":0.521,"stretto":false,"stretto_voices":0,"combination":[]},{"voice":2,"pitch":62,"start":76.5,"duration":0.25,"velocity":127,"measure":39,"beat":2.0,"subject_pos":-1,"motif":"","motif_pos":-1,"best_pos":3,"similarity":0.521,"stretto":false,"stretto_voices":0,"combination":[]},{"voice":0,"pitch":70,"start":76.75,"duration":0.25,"velocity":127,"measure":39,"beat":2.5,"subject_pos":-1,"motif":"","motif_pos":-1,"best_pos":3,"similarity":0.457,"stretto":false,"stretto_voices":0,"combination":[]},{"voice":2,"pitch":61,"start":76.75,"duration":0.25,"velocity":127,"measure":39,"beat":2.5,"subject_pos":-1,"motif":"","motif_pos":-1,"best_pos":4,"similarity":0.686,"stretto":false,"stretto_voices":0,"combination":[]},{"voice":0,"pitch":69,"start":77.0,"duration":1.0,"velocity":127,"measure":39,"beat":3.0,"subject_pos":-1,"motif":"","motif_pos":-1,"best_pos":4,"similarity":0.407,"stretto":false,"stretto_voices":0,"combination":[]},{"voice":2,"pitch":62,"start":77.0,"duration":0.25,"velocity":127,"measure":39,"beat":3.0,"subject_pos":-1,"motif":"","motif_pos":-1,"best_pos":5,"similarity":0.589,"stretto":false,"stretto_voices":0,"combination":[]},{"voice":3,"pitch":50,"start":77.0,"duration":1.0,"velocity":127,"measure":39,"beat":3.0,"subject_pos":-1,"motif":"head_inv","motif_pos":1,"best_pos":1,"similarity":1.0,"stretto":false,"stretto_voices":0,"combination":[]},{"voice":1,"pitch":67,"start":77.25,"duration":0.25,"velocity":127,"measure":39,"beat":3.5,"subject_pos":-1,"motif":"","motif_pos":-1,"best_pos":2,"similarity":0.379,"stretto":false,"stretto_voices":0,"combination":[]},{"voice":2,"pitch":52,"start":77.25,"duration":0.25,"velocity":127,"measure":39,"beat":3.5,"subject_pos":-1,"motif":"","motif_pos":-1,"best_pos":4,"similarity":0.514,"stretto":false,"stretto_voices":0,"combination":[]},{"voice":1,"pitch":65,"start":77.5,"duration":0.25,"velocity":127,"measure":39,"beat":4.0,"subject_pos":-1,"motif":"","motif_pos":-1,"best_pos":3,"similarity":0.486,"stretto":false,"stretto_voices":0,"combination":[]},{"voice":2,"pitch":53,"start":77.5,"duration":0.25,"velocity":127,"measure":39,"beat":4.0,"subject_pos":-1,"motif":"","motif_pos":-1,"best_pos":5,"similarity":0.65,"stretto":false,"stretto_voices":0,"combination":[]},{"voice":1,"pitch":64,"start":77.75,"duration":0.25,"velocity":127,"measure":39,"beat":4.5,"subject_pos":-1,"motif":"","motif_pos":-1,"best_pos":4,"similarity":0.404,"stretto":false,"stretto_voices":0,"combination":[]},{"voice":2,"pitch":55,"start":77.75,"duration":0.25,"velocity":127,"measure":39,"beat":4.5,"subject_pos":-1,"motif":"","motif_pos":-1,"best_pos":6,"similarity":0.571,"stretto":false,"stretto_voices":0,"combination":[]},{"voice":1,"pitch":62,"start":78.0,"duration":0.5,"velocity":127,"measure":40,"beat":1.0,"subject_pos":-1,"motif":"","motif_pos":-1,"best_pos":0,"similarity":0.429,"stretto":false,"stretto_voices":0,"combination":[]},{"voice":2,"pitch":57,"start":78.0,"duration":0.25,"velocity":127,"measure":40,"beat":1.0,"subject_pos":-1,"motif":"","motif_pos":-1,"best_pos":6,"similarity":0.375,"stretto":false,"stretto_voices":0,"combination":[]},{"voice":3,"pitch":53,"start":78.0,"duration":1.0,"velocity":127,"measure":40,"beat":1.0,"subject_pos":-1,"motif":"head_inv","motif_pos":2,"best_pos":2,"similarity":1.0,"stretto":false,"stretto_voices":0,"combination":[]},{"voice":2,"pitch":50,"start":78.25,"duration":0.25,"velocity":127,"measure":40,"beat":1.5,"subject_pos":-1,"motif":"","motif_pos":-1,"best_pos":3,"similarity":0.2,"stretto":false,"stretto_voices":0,"combination":[]},{"voice":0,"pitch":81,"start":78.5,"duration":0.5,"velocity":127,"measure":40,"beat":2.0,"subject_pos":-1,"motif":"","motif_pos":-1,"best_pos":1,"similarity":0.286,"stretto":false,"stretto_voices":0,"combination":[]},{"voice":2,"pitch":62,"start":78.5,"duration":0.75,"velocity":127,"measure":40,"beat":2.0,"subject_pos":-1,"motif":"","motif_pos":-1,"best_pos":4,"similarity":0.339,"stretto":false,"stretto_voices":0,"combination":[]},{"voice":0,"pitch":77,"start":79.0,"duration":1.0,"velocity":127,"measure":40,"beat":3.0,"subject_pos":-1,"motif":"","motif_pos":-1,"best_pos":2,"similarity":0.357,"stretto":false,"stretto_voices":0,"combination":[]},{"voice":3,"pitch":57,"start":79.0,"duration":1.0,"velocity":127,"measure":40,"beat":3.0,"subject_pos":-1,"motif":"head_inv","motif_pos":3,"best_pos":3,"similarity":1.0,"stretto":false,"stretto_voices":0,"combination":[]},{"voice":2,"pitch":63,"start":79.25,"duration":0.25,"velocity":127,"measure":40,"beat":3.5,"subject_pos":-1,"motif":"","motif_pos":-1,"best_pos":3,"similarity":0.386,"stretto":false,"stretto_voices":0,"combination":[]},{"voice":1,"pitch":69,"start":79.5,"duration":0.5,"velocity":127,"measure":40,"beat":4.0,"subject_pos":-1,"motif":"","motif_pos":-1,"best_pos":1,"similarity":0.571,"stretto":false,"stretto_voices":0,"combination":[]},{"voice":2,"pitch":62,"start":79.5,"duration":0.25,"velocity":127,"measure":40,"beat":4.0,"subject_pos":-1,"motif":"","motif_pos":-1,"best_pos":3,"similarity":0.55,"stretto":false,"stretto_voices":0,"combination":[]},{"voice":2,"pitch":61,"start":79.75,"duration":0.25,"velocity":127,"measure":40,"beat":4.5,"subject_pos":-1,"motif":"","motif_pos":-1,"best_pos":4,"similarity":0.704,"stretto":false,"stretto_voices":0,"combination":[]},{"voice":1,"pitch":65,"start":80.0,"duration":0.5,"velocity":127,"measure":41,"beat":1.0,"subject_pos":-1,"motif":"","motif_pos":-1,"best_pos":2,"similarity":0.429,"stretto":false,"stretto_voices":0,"combination":[]},{"voice":2,"pitch":62,"start":80.0,"duration":0.25,"velocity":127,"measure":41,"beat":1.0,"subject_pos":-1,"motif":"","motif_pos":-1,"best_pos":5,"similarity":0.625,"stretto":false,"stretto_voices":0,"combination":[]},{"voice":3,"pitch":58,"start":80.0,"duration":1.0,"velocity":127,"measure":41,"beat":1.0,"subject_pos":-1,"motif":"head_inv","motif_pos":4,"best_pos":4,"similarity":1.0,"stretto":false,"stretto_voices":0,"combination":[]},{"voice":2,"pitch":65,"start":80.25,"duration":0.25,"velocity":127,"measure":41,"beat":1.5,"subject_pos":-1,"motif":"","motif_pos":-1,"best_pos":6,"similarity":0.429,"stretto":false,"stretto_voices":0,"combination":[]},{"voice":0,"pitch":79,"start":80.5,"duration":0.5,"velocity":127,"measure":41,"beat":2.0,"subject_pos":-1,"motif":"","motif_pos":-1,"best_pos":3,"similarity":0.357,"stretto":false,"stretto_voices":0,"combination":[]},{"voice":1,"pitch":70,"start":80.5,"duration":0.5,"velocity":127,"measure":41,"beat":2.0,"subject_pos":-1,"motif":"","motif_pos":-1,"best_pos":1,"similarity":0.429,"stretto":false,"stretto_voices":0,"combination":[]},{"voice":2,"pitch":64,"start":80.5,"duration":0.25,"velocity":127,"measure":41,"beat":2.0,"subject_pos":-1,"motif":"","motif_pos":-1,"best_pos":2,"similarity":0.321,"stretto":false,"stretto_voices":0,"combination":[]},{"voice":2,"pitch":62,"start":80.75,"duration":0.25,"velocity":127,"measure":41,"beat":2.5,"subject_pos":-1,"motif":"","motif_pos":-1,"best_pos":2,"similarity":0.357,"stretto":false,"stretto_voices":0,"combination":[]},{"voice":0,"pitch":73,"start":81.0,"duration":0.25,"velocity":127,"measure":41,"beat":3.0,"subject_pos":-1,"motif":"","motif_pos":-1,"best_pos":4,"similarity":0.5,"stretto":false,"stretto_voices":0,"combination":[]},{"voice":1,"pitch":64,"start":81.0,"duration":0.75,"velocity":127,"measure":41,"beat":3.0,"subject_pos":-1,"motif":"","motif_pos":-1,"best_pos":2,"similarity":0.364,"stretto":false,"stretto_voices":0,"combination":[]},{"voice":2,"pitch":69,"start":81.0,"duration":0.5,"velocity":127,"measure":41,"beat":3.0,"subject_pos":-1,"motif":"","motif_pos":-1,"best_pos":3,"similarity":0.357,"stretto":false,"stretto_voices":0,"combination":[]},{"voice":3,"pitch":57,"start":81.0,"duration":0.5,"velocity":127,"measure":41,"beat":3.0,"subject_pos":-1,"motif":"","motif_pos":-1,"best_pos":1,"similarity":0.429,"stretto":false,"stretto_voices":0,"combination":[]},{"voice":0,"pitch":74,"start":81.25,"duration":0.25,"velocity":127,"measure":41,"beat":3.5,"subject_pos":-1,"motif":"","motif_pos":-1,"best_pos":5,"similarity":0.571,"stretto":false,"stretto_voices":0,"combination":[]},{"voice":0,"pitch":76,"start":81.5,"duration":0.75,"velocity":127,"measure":41,"beat":4.0,"subject_pos":0,"motif":"subject_inv","motif_pos":0,"best_pos":0,"similarity":1.0,"stretto":false,"stretto_voices":0,"combination":[]},{"voice":2,"pitch":61,"start":81.5,"duration":1.0,"velocity":127,"measure":41,"beat":4.0,"subject_pos":-1,"motif":"","motif_pos":-1,"best_pos":4,"similarity":0.571,"stretto":false,"stretto_voices":0,"combination":[]},{"voice":3,"pitch":55,"start":81.5,"duration":0.5,"velocity":127,"measure":41,"beat":4.0,"subject_pos":-1,"motif":"","motif_pos":-1,"best_pos":2,"similarity":0.643,"stretto":false,"stretto_voices":0,"combination":[]},{"voice":1,"pitch":70,"start":81.75,"duration":0.25,"velocity":127,"measure":41,"beat":4.5,"subject_pos":-1,"motif":"","motif_pos":-1,"best_pos":3,"similarity":0.414,"stretto":false,"stretto_voices":0,"combination":[]},{"voice":1,"pitch":69,"start":82.0,"duration":0.25,"velocity":127,"measure":42,"beat":1.0,"subject_pos":-1,"motif":"","motif_pos":-1,"best_pos":2,"similarity":0.464,"stretto":false,"stretto_voices":0,"combination":[]},{"voice":3,"pitch":53,"start":82.0,"duration":1.25,"velocity":127,"measure":42,"beat":1.0,"subject_pos":-1,"motif":"","motif_pos":-1,"best_pos":3,"similarity":0.786,"stretto":false,"stretto_voices":0,"combination":[]},{"voice":0,"pitch":69,"start":82.25,"duration":0.25,"velocity":127,"measure":42,"beat":1.5,"subject_pos":1,"motif":"subject_inv","motif_pos":1,"best_pos":1,"similarity":1.0,"stretto":false,"stretto_voices":0,"combination":[]},{"voice":1,"pitch":67,"start":82.25,"duration":0.25,"velocity":127,"measure":42,"beat":1.5,"subject_pos":-1,"motif":"","motif_pos":-1,"best_pos":3,"similarity":0.536,"stretto":false,"stretto_voices":0,"combination":[]},{"voice":0,"pitch":71,"start":82.5,"duration":0.25,"velocity":127,"measure":42,"beat":2.0,"subject_pos":2,"motif":"subject_inv","motif_pos":2,"best_pos":2,"similarity":1.0,"stretto":false,"stretto_voices":0,"combination":[]},{"voice":1,"pitch":65,"start":82.5,"duration":0.25,"velocity":127,"measure":42,"beat":2.0,"subject_pos":-1,"motif":"","motif_pos":-1,"best_pos":4,"similarity":0.554,"stretto":false,"stretto_voices":0,"combination":[]},{"voice":2,"pitch":62,"start":82.5,"duration":0.25,"velocity":127,"measure":42,"beat":2.0,"subject_pos":-1,"motif":"","motif_pos":-1,"best_pos":5,"similarity":0.714,"stretto":false,"stretto_voices":0,"combination":[]},{"voice":0,"pitch":73,"start":82.75,"duration":0.25,"velocity":127,"measure":42,"beat":2.5,"subject_pos":3,"motif":"subject_inv","motif_pos":3,"best_pos":3,"similarity":1.0,"stretto":false,"stretto_voices":0,"combination":[]},{"voice":1,"pitch":67,"start":82.75,"duration":0.25,"velocity":127,"measure":42,"beat":2.5,"subject_pos":-1,"motif":"","motif_pos":-1,"best_pos":5,"similarity":0.571,"stretto":false,"stretto_voices":0,"combination":[]},{"voice":2,"pitch":64,"start":82.75,"duration":0.25,"velocity":127,"measure":42,"beat":2.5,"subject_pos":-1,"motif":"","motif_pos":-1,"best_pos":6,"similarity":0.714,"stretto":false,"stretto_voices":0,"combination":[]},{"voice":0,"pitch":74,"start":83.0,"duration":1.25,"velocity":127,"measure":42,"beat":3.0,"subject_pos":4,"motif":"subject_inv","motif_pos":4,"best_pos":4,"similarity":1.0,"stretto":false,"stretto_voices":0,"combination":[]},{"voice":1,"pitch":69,"start":83.0,"duration":1.25,"velocity":127,"measure":42,"beat":3.0,"subject_pos":-1,"motif":"","motif_pos":-1,"best_pos":6,"similarity":0.464,"stretto":false,"stretto_voices":0,"combination":[]},{"voice":2,"pitch":65,"start":83.0,"duration":1.5,"velocity":127,"measure":42,"beat":3.0,"subject_pos":-1,"motif":"","motif_pos":-1,"best_pos":7,"similarity":0.5,"stretto":false,"stretto_voices":0,"combination":[]},{"voice":3,"pitch":52,"start":83.25,"duration":0.25,"velocity":127,"measure":42,"beat":3.5,"subject_pos":-1,"motif":"","motif_pos":-1,"best_pos":4,"similarity":0.893,"stretto":false,"stretto_voices":0,"combination":[]},{"voice":3,"pitch":53,"start":83.5,"duration":0.25,"velocity":127,"measure":42,"beat":4.0,"subject_pos":-1,"motif":"","motif_pos":-1,"best_pos":5,"similarity":0.821,"stretto":false,"stretto_voices":0,"combination":[]},{"voice":3,"pitch":55,"start":83.75,"duration":0.25,"velocity":127,"measure":42,"beat":4.5,"subject_pos":-1,"motif":"","motif_pos":-1,"best_pos":6,"similarity":0.643,"stretto":false,"stretto_voices":0,"combination":[]},{"voice":3,"pitch":57,"start":84.0,"duration":1.0,"velocity":127,"measure":43,"beat":1.0,"subject_pos":-1,"motif":"","motif_pos":-1,"best_pos":6,"similarity":0.518,"stretto":false,"stretto_voices":0,"combination":[]},{"voice":0,"pitch":71,"start":84.25,"duration":0.25,"velocity":127,"measure":43,"beat":1.5,"subject_pos":-1,"motif":"subject_inv","motif_pos":4,"best_pos":4,"similarity":1.0,"stretto":false,"stretto_voices":0,"combination":[]},{"voice":1,"pitch":68,"start":84.25,"duration":0.25,"velocity":127,"measure":43,"beat":1.5,"subject_pos":-1,"motif":"enigmatic_cell","motif_pos":0,"best_pos":0,"similarity":1.0,"stretto":false,"stretto_voices":0,"combination":[]},{"voice":0,"pitch":72,"start":84.5,"duration":0.25,"velocity":127,"measure":43,"beat":2.0,"subject_pos":-1,"motif":"subject_inv","motif_pos":4,"best_pos":4,"similarity":1.0,"stretto":false,"stretto_voices":0,"combination":[]},{"voice":1,"pitch":69,"start":84.5,"duration":0.5,"velocity":127,"measure":43,"beat":2.0,"subject_pos":-1,"motif":"enigmatic_cell","motif_pos":1,"best_pos":1,"similarity":1.0,"stretto":false,"stretto_voices":0,"combination":[]},{"voice":2,"pitch":64,"start":84.5,"duration":0.5,"velocity":127,"measure":43,"beat":2.0,"subject_pos":-1,"motif":"","motif_pos":-1,"best_pos":4,"similarity":0.457,"stretto":false,"stretto_voices":0,"combination":[]},{"voice":0,"pitch":74,"start":84.75,"duration":0.25,"velocity":127,"measure":43,"beat":2.5,"subject_pos":-1,"motif":"subject_inv","motif_pos":4,"best_pos":4,"similarity":1.0,"stretto":false,"stretto_voices":0,"combination":[]},{"voice":0,"pitch":76,"start":85.0,"duration":1.25,"velocity":127,"measure":43,"beat":3.0,"subject_pos":5,"motif":"subject_inv","motif_pos":5,"best_pos":5,"similarity":1.0,"stretto":false,"stretto_voices":0,"combination":[]},{"voice":2,"pitch":60,"start":85.0,"duration":1.5,"velocity":127,"measure":43,"beat":3.0,"subject_pos":-1,"motif":"","motif_pos":-1,"best_pos":5,"similarity":0.45,"stretto":false,"stretto_voices":0,"combination":[]},{"voice":1,"pitch":64,"start":85.25,"duration":0.25,"velocity":127,"measure":43,"beat":3.5,"subject_pos":-1,"motif":"enigmatic_cell","motif_pos":2,"best_pos":2,"similarity":1.0,"stretto":false,"stretto_voices":0,"combination":[]},{"voice":1,"pitch":65,"start":85.5,"duration":0.25,"velocity":127,"measure":43,"beat":4.0,"subject_pos":-1,"motif":"","motif_pos":-1,"best_pos":5,"similarity":0.664,"stretto":false,"stretto_voices":0,"combination":[]},{"voice":3,"pitch":57,"start":85.5,"duration":0.5,"velocity":127,"measure":43,"beat":4.0,"subject_pos":-1,"motif":"","motif_pos":-1,"best_pos":7,"similarity":0.321,"stretto":false,"stretto_voices":0,"combination":[]},{"voice":1,"pitch":67,"start":85.75,"duration":0.25,"velocity":127,"measure":43,"beat":4.5,"subject_pos":-1,"motif":"","motif_pos":-1,"best_pos":6,"similarity":0.579,"stretto":false,"stretto_voices":0,"combination":[]},{"voice":1,"pitch":69,"start":86.0,"duration":1.0,"velocity":127,"measure":44,"beat":1.0,"subject_pos":-1,"motif":"head_inv","motif_pos":0,"best_pos":0,"similarity":1.0,"stretto":false,"stretto_voices":0,"combination":[]},{"voice":3,"pitch":53,"start":86.0,"duration":1.0,"velocity":127,"measure":44,"beat":1.0,"subject_pos":-1,"motif":"","motif_pos":-1,"best_pos":2,"similarity":0.393,"stretto":false,"stretto_voices":0,"combination":[]},{"voice":0,"pitch":79,"start":86.25,"duration":0.25,"velocity":127,"measure":44,"beat":1.5,"subject_pos":-1,"motif":"subject_inv","motif_pos":5,"best_pos":5,"similarity":1.0,"stretto":false,"stretto_voices":0,"combination":[]},{"voice":0,"pitch":77,"start":86.5,"duration":0.25,"velocity":127,"measure":44,"beat":2.0,"subject_pos":6,"motif":"subject_inv","motif_pos":6,"best_pos":6,"similarity":1.0,"stretto":false,"stretto_voices":0,"combination":[]},{"voice":2,"pitch":62,"start":86.5,"duration":0.5,"velocity":127,"measure":44,"beat":2.0,"subject_pos":-1,"motif":"","motif_pos":-1,"best_pos":6,"similarity":0.386,"stretto":false,"stretto_voices":0,"combination":[]},{"voice":0,"pitch":76,"start":86.75,"duration":0.25,"velocity":127,"measure":44,"beat":2.5,"subject_pos":7,"motif":"subject_inv","motif_pos":7,"best_pos":7,"similarity":1.0,"stretto":false,"stretto_voices":0,"combination":[]},{"voice":0,"pitch":74,"start":87.0,"duration":1.25,"velocity":127,"measure":44,"beat":3.0,"subject_pos":8,"motif":"subject_inv","motif_pos":8,"best_pos":0,"similarity":1.0,"stretto":false,"stretto_voices":0,"combination":[]},{"voice":2,"pitch":59,"start":87.0,"duration":1.5,"velocity":127,"measure":44,"beat":3.0,"subject_pos":-1,"motif":"","motif_pos":-1,"best_pos":4,"similarity":0.464,"stretto":false,"stretto_voices":0,"combination":[]},{"voice":1,"pitch":62,"start":87.25,"duration":0.25,"velocity":127,"measure":44,"beat":3.5,"subject_pos":-1,"motif":"head_inv","motif_pos":1,"best_pos":1,"similarity":1.0,"stretto":false,"stretto_voices":0,"combination":[]},{"voice":1,"pitch":64,"start":87.5,"duration":0.25,"velocity":127,"measure":44,"beat":4.0,"subject_pos":-1,"motif":"head_inv","motif_pos":2,"best_pos":2,"similarity":1.0,"stretto":false,"stretto_voices":0,"combination":[]},{"voice":3,"pitch":55,"start":87.5,"duration":0.5,"velocity":127,"measure":44,"beat":4.0,"subject_pos":-1,"motif":"","motif_pos":-1,"best_pos":2,"similarity":0.357,"stretto":false,"stretto_voices":0,"combination":[]},{"voice":1,"pitch":65,"start":87.75,"duration":0.25,"velocity":127,"measure":44,"beat":4.5,"subject_pos":-1,"motif":"head_inv","motif_pos":3,"best_pos":3,"similarity":1.0,"stretto":false,"stretto_voices":0,"combination":[]},{"voice":1,"pitch":67,"start":88.0,"duration":1.0,"velocity":127,"measure":45,"beat":1.0,"subject_pos":-1,"motif":"head_inv","motif_pos":4,"best_pos":4,"similarity":1.0,"stretto":false,"stretto_voices":0,"combination":[]},{"voice":3,"pitch":52,"start":88.0,"duration":1.0,"velocity":127,"measure":45,"beat":1.0,"subject_pos":-1,"motif":"","motif_pos":-1,"best_pos":4,"similarity":0.436,"stretto":false,"stretto_voices":0,"combination":[]},{"voice":0,"pitch":77,"start":88.25,"duration":0.25,"velocity":127,"measure":45,"beat":1.5,"subject_pos":-1,"motif":"","motif_pos":-1,"best_pos":3,"similarity":0.45,"stretto":false,"stretto_voices":0,"combination":[]},{"voice":0,"pitch":76,"start":88.5,"duration":0.25,"velocity":127,"measure":45,"beat":2.0,"subject_pos":-1,"motif":"","motif_pos":-1,"best_pos":4,"similarity":0.407,"stretto":false,"stretto_voices":0,"combination":[]},{"voice":2,"pitch":60,"start":88.5,"duration":0.5,"velocity":127,"measure":45,"beat":2.0,"subject_pos":-1,"motif":"","motif_pos":-1,"best_pos":4,"similarity":0.4,"stretto":false,"stretto_voices":0,"combination":[]},{"voice":0,"pitch":74,"start":88.75,"duration":0.25,"velocity":127,"measure":45,"beat":2.5,"subject_pos":-1,"motif":"","motif_pos":-1,"best_pos":2,"similarity":0.436,"stretto":false,"stretto_voices":0,"combination":[]},{"voice":0,"pitch":72,"start":89.0,"duration":1.25,"velocity":127,"measure":45,"beat":3.0,"subject_pos":-1,"motif":"","motif_pos":-1,"best_pos":2,"similarity":0.364,"stretto":false,"stretto_voices":0,"combination":[]},{"voice":2,"pitch":57,"start":89.0,"duration":1.5,"velocity":127,"measure":45,"beat":3.0,"subject_pos":-1,"motif":"","motif_pos":-1,"best_pos":5,"similarity":0.436,"stretto":false,"stretto_voices":0,"combination":[]},{"voice":1,"pitch":60,"start":89.25,"duration":0.25,"velocity":127,"measure":45,"beat":3.5,"subject_pos":-1,"motif":"","motif_pos":-1,"best_pos":5,"similarity":0.379,"stretto":false,"stretto_voices":0,"combination":[]},{"voice":1,"pitch":62,"start":89.5,"duration":0.25,"velocity":127,"measure":45,"beat":4.0,"subject_pos":-1,"motif":"","motif_pos":-1,"best_pos":5,"similarity":0.571,"stretto":false,"stretto_voices":0,"combination":[]},{"voice":3,"pitch":53,"start":89.5,"duration":0.5,"velocity":127,"measure":45,"beat":4.0,"subject_pos":-1,"motif":"","motif_pos":-1,"best_pos":2,"similarity":0.404,"stretto":false,"stretto_voices":0,"combination":[]},{"voice":1,"pitch":64,"start":89.75,"duration":0.25,"velocity":127,"measure":45,"beat":4.5,"subject_pos":-1,"motif":"","motif_pos":-1,"best_pos":6,"similarity":0.643,"stretto":false,"stretto_voices":0,"combination":[]},{"voice":1,"pitch":65,"start":90.0,"duration":1.25,"velocity":127,"measure":46,"beat":1.0,"subject_pos":-1,"motif":"","motif_pos":-1,"best_pos":7,"similarity":0.464,"stretto":false,"stretto_voices":0,"combination":[]},{"voice":3,"pitch":50,"start":90.0,"duration":1.25,"velocity":127,"measure":46,"beat":1.0,"subject_pos":-1,"motif":"","motif_pos":-1,"best_pos":3,"similarity":0.514,"stretto":false,"stretto_voices":0,"combination":[]},{"voice":0,"pitch":76,"start":90.25,"duration":0.25,"velocity":127,"measure":46,"beat":1.5,"subject_pos":-1,"motif":"","motif_pos":-1,"best_pos":1,"similarity":0.571,"stretto":false,"stretto_voices":0,"combination":[]},{"voice":0,"pitch":74,"start":90.5,"duration":0.25,"velocity":127,"measure":46,"beat":2.0,"subject_pos":-1,"motif":"","motif_pos":-1,"best_pos":2,"similarity":0.65,"stretto":false,"stretto_voices":0,"combination":[]},{"voice":2,"pitch":59,"start":90.5,"duration":0.5,"velocity":127,"measure":46,"beat":2.0,"subject_pos":-1,"motif":"","motif_pos":-1,"best_pos":6,"similarity":0.346,"stretto":false,"stretto_voices":0,"combination":[]},{"voice":0,"pitch":72,"start":90.75,"duration":0.25,"velocity":127,"measure":46,"beat":2.5,"subject_pos":-1,"motif":"","motif_pos":-1,"best_pos":3,"similarity":0.629,"stretto":false,"stretto_voices":0,"combination":[]},{"voice":0,"pitch":71,"start":91.0,"duration":1.25,"velocity":127,"measure":46,"beat":3.0,"subject_pos":-1,"motif":"","motif_pos":-1,"best_pos":4,"similarity":0.489,"stretto":false,"stretto_voices":0,"combination":[]},{"voice":2,"pitch":56,"start":91.0,"duration":1.5,"velocity":127,"measure":46,"beat":3.0,"subject_pos":-1,"motif":"","motif_pos":-1,"best_pos":3,"similarity":0.343,"stretto":false,"stretto_voices":0,"combination":[]},{"voice":1,"pitch":64,"start":91.25,"duration":0.25,"velocity":127,"measure":46,"beat":3.5,"subject_pos":-1,"motif":"","motif_pos":-1,"best_pos":4,"similarity":0.425,"stretto":false,"stretto_voices":0,"combination":[]},{"voice":3,"pitch":48,"start":91.25,"duration":0.25,"velocity":127,"measure":46,"beat":3.5,"subject_pos":-1,"motif":"","motif_pos":-1,"best_pos":3,"similarity":0.55,"stretto":false,"stretto_voices":0,"combination":[]},{"voice":1,"pitch":62,"start":91.5,"duration":0.25,"velocity":127,"measure":46,"beat":4.0,"subject_pos":-1,"motif":"","motif_pos":-1,"best_pos":2,"similarity":0.436,"stretto":false,"stretto_voices":0,"combination":[]},{"voice":3,"pitch":47,"start":91.5,"duration":0.25,"velocity":127,"measure":46,"beat":4.0,"subject_pos":-1,"motif":"","motif_pos":-1,"best_pos":4,"similarity":0.496,"stretto":false,"stretto_voices":0,"combination":[]},{"voice":1,"pitch":65,"start":91.75,"duration":0.25,"velocity":127,"measure":46,"beat":4.5,"subject_pos":-1,"motif":"enigmatic_cell","motif_pos":0,"best_pos":0,"similarity":1.0,"stretto":false,"stretto_voices":0,"combination":[]},{"voice":3,"pitch":50,"start":91.75,"duration":0.25,"velocity":127,"measure":46,"beat":4.5,"subject_pos":-1,"motif":"","motif_pos":-1,"best_pos":1,"similarity":0.411,"stretto":false,"stretto_voices":0,"combination":[]},{"voice":1,"pitch":64,"start":92.0,"duration":1.75,"velocity":127,"measure":47,"beat":1.0,"subject_pos":-1,"motif":"enigmatic_cell","motif_pos":1,"best_pos":1,"similarity":1.0,"stretto":false,"stretto_voices":0,"combination":[]},{"voice":3,"pitch":48,"start":92.0,"duration":0.75,"velocity":127,"measure":47,"beat":1.0,"subject_pos":-1,"motif":"","motif_pos":-1,"best_pos":3,"similarity":0.571,"stretto":false,"stretto_voices":0,"combination":[]},{"voice":0,"pitch":69,"start":92.25,"duration":0.25,"velocity":127,"measure":47,"beat":1.5,"subject_pos":-1,"motif":"","motif_pos":-1,"best_pos":3,"similarity":0.543,"stretto":false,"stretto_voices":0,"combination":[]},{"voice":0,"pitch":68,"start":92.5,"duration":0.25,"velocity":127,"measure":47,"beat":2.0,"subject_pos":-1,"motif":"","motif_pos":-1,"best_pos":4,"similarity":0.514,"stretto":false,"stretto_voices":0,"combination":[]},{"voice":2,"pitch":52,"start":92.5,"duration":1.0,"velocity":127,"measure":47,"beat":2.0,"subject_pos":-1,"motif":"","motif_pos":-1,"best_pos":0,"similarity":0.5,"stretto":false,"stretto_voices":0,"combination":[]},{"voice":0,"pitch":71,"start":92.75,"duration":0.25,"velocity":127,"measure":47,"beat":2.5,"subject_pos":-1,"motif":"","motif_pos":-1,"best_pos":4,"similarity":0.379,"stretto":false,"stretto_voices":0,"combination":[]},{"voice":3,"pitch":47,"start":92.75,"duration":0.25,"velocity":127,"measure":47,"beat":2.5,"subject_pos":-1,"motif":"","motif_pos":-1,"best_pos":4,"similarity":0.65,"stretto":false,"stretto_voices":0,"combination":[]},{"voice":0,"pitch":69,"start":93.0,"duration":0.25,"velocity":127,"measure":47,"beat":3.0,"subject_pos":-1,"motif":"","motif_pos":-1,"best_pos":5,"similarity":0.489,"stretto":false,"stretto_voices":0,"combination":[]},{"voice":3,"pitch":48,"start":93.0,"duration":0.5,"velocity":127,"measure":47,"beat":3.0,"subject_pos":-1,"motif":"","motif_pos":-1,"best_pos":5,"similarity":0.479,"stretto":false,"stretto_voices":0,"combination":[]},{"voice":0,"pitch":71,"start":93.25,"duration":0.25,"velocity":127,"measure":47,"beat":3.5,"subject_pos":-1,"motif":"","motif_pos":-1,"best_pos":6,"similarity":0.593,"stretto":false,"stretto_voices":0,"combination":[]},{"voice":0,"pitch":72,"start":93.5,"duration":0.75,"velocity":127,"measure":47,"beat":4.0,"subject_pos":-1,"motif":"","motif_pos":-1,"best_pos":7,"similarity":0.436,"stretto":false,"stretto_voices":0,"combination":[]},{"voice":2,"pitch":57,"start":93.5,"duration":1.0,"velocity":127,"measure":47,"beat":4.0,"subject_pos":-1,"motif":"","motif_pos":-1,"best_pos":1,"similarity":0.714,"stretto":false,"stretto_voices":0,"combination":[]},{"voice":3,"pitch":45,"start":93.5,"duration":0.5,"velocity":127,"measure":47,"beat":4.0,"subject_pos":-1,"motif":"","motif_pos":-1,"best_pos":0,"similarity":0.429,"stretto":false,"stretto_voices":0,"combination":[]},{"voice":1,"pitch":69,"start":93.75,"duration":0.25,"velocity":127,"measure":47,"beat":4.5,"subject_pos":-1,"motif":"enigmatic_cell","motif_pos":2,"best_pos":2,"similarity":1.0,"stretto":false,"stretto_voices":0,"combination":[]},{"voice":1,"pitch":65,"start":94.0,"duration":0.5,"velocity":127,"measure":48,"beat":1.0,"subject_pos":-1,"motif":"","motif_pos":-1,"best_pos":2,"similarity":0.45,"stretto":false,"stretto_voices":0,"combination":[]},{"voice":3,"pitch":50,"start":94.0,"duration":0.75,"velocity":127,"measure":48,"beat":1.0,"subject_pos":-1,"motif":"","motif_pos":-1,"best_pos":1,"similarity":0.589,"stretto":false,"stretto_voices":0,"combination":[]},{"voice":0,"pitch":71,"start":94.25,"duration":0.25,"velocity":127,"measure":48,"beat":1.5,"subject_pos":-1,"motif":"","motif_pos":-1,"best_pos":4,"similarity":0.425,"stretto":false,"stretto_voices":0,"combination":[]},{"voice":0,"pitch":69,"start":94.5,"duration":0.25,"velocity":127,"measure":48,"beat":2.0,"subject_pos":-1,"motif":"","motif_pos":-1,"best_pos":2,"similarity":0.5,"stretto":false,"stretto_voices":0,"combination":[]},{"voice":1,"pitch":69,"start":94.5,"duration":1.25,"velocity":127,"measure":48,"beat":2.0,"subject_pos":-1,"motif":"","motif_pos":-1,"best_pos":5,"similarity":0.343,"stretto":false,"stretto_voices":0,"combination":[]},{"voice":2,"pitch":53,"start":94.5,"duration":1.0,"velocity":127,"measure":48,"beat":2.0,"subject_pos":-1,"motif":"","motif_pos":-1,"best_pos":2,"similarity":0.721,"stretto":false,"stretto_voices":0,"combination":[]},{"voice":0,"pitch":72,"start":94.75,"duration":0.25,"velocity":127,"measure":48,"beat":2.5,"subject_pos":-1,"motif":"","motif_pos":-1,"best_pos":3,"similarity":0.643,"stretto":false,"stretto_voices":0,"combination":[]},{"voice":3,"pitch":48,"start":94.75,"duration":0.25,"velocity":127,"measure":48,"beat":2.5,"subject_pos":-1,"motif":"","motif_pos":-1,"best_pos":2,"similarity":0.471,"stretto":false,"stretto_voices":0,"combination":[]},{"voice":0,"pitch":71,"start":95.0,"duration":0.25,"velocity":127,"measure":48,"beat":3.0,"subject_pos":-1,"motif":"","motif_pos":-1,"best_pos":4,"similarity":0.793,"stretto":false,"stretto_voices":0,"combination":[]},{"voice":3,"pitch":50,"start":95.0,"duration":0.5,"velocity":127,"measure":48,"beat":3.0,"subject_pos":-1,"motif":"","motif_pos":-1,"best_pos":6,"similarity":0.329,"stretto":false,"stretto_voices":0,"combination":[]},{"voice":0,"pitch":72,"start":95.25,"duration":0.25,"velocity":127,"measure":48,"beat":3.5,"subject_pos":-1,"motif":"","motif_pos":-1,"best_pos":5,"similarity":0.729,"stretto":false,"stretto_voices":0,"combination":[]},{"voice":0,"pitch":74,"start":95.5,"duration":0.75,"velocity":127,"measure":48,"beat":4.0,"subject_pos":-1,"motif":"","motif_pos":-1,"best_pos":6,"similarity":0.529,"stretto":false,"stretto_voices":0,"combination":[]},{"voice":2,"pitch":50,"start":95.5,"duration":0.5,"velocity":127,"measure":48,"beat":4.0,"subject_pos":-1,"motif":"","motif_pos":-1,"best_pos":3,"similarity":0.532,"stretto":false,"stretto_voices":0,"combination":[]},{"voice":3,"pitch":47,"start":95.5,"duration":0.5,"velocity":127,"measure":48,"beat":4.0,"subject_pos":-1,"motif":"","motif_pos":-1,"best_pos":0,"similarity":0.429,"stretto":false,"stretto_voices":0,"combination":[]},{"voice":1,"pitch":71,"start":95.75,"duration":0.25,"velocity":127,"measure":48,"beat":4.5,"subject_pos":-1,"motif":"","motif_pos":-1,"best_pos":2,"similarity":0.471,"stretto":false,"stretto_voices":0,"combination":[]},{"voice":1,"pitch":68,"start":96.0,"duration":0.5,"velocity":127,"measure":49,"beat":1.0,"subject_pos":-1,"motif":"","motif_pos":-1,"best_pos":3,"similarity":0.507,"stretto":false,"stretto_voices":0,"combination":[]},{"voice":2,"pitch":59,"start":96.0,"duration":0.5,"velocity":127,"measure":49,"beat":1.0,"subject_pos":-1,"motif":"","motif_pos":-1,"best_pos":2,"similarity":0.429,"stretto":false,"stretto_voices":0,"combination":[]},{"voice":3,"pitch":52,"start":96.0,"duration":0.75,"velocity":127,"measure":49,"beat":1.0,"subject_pos":-1,"motif":"","motif_pos":-1,"best_pos":1,"similarity":0.579,"stretto":false,"stretto_voices":0,"combination":[]},{"voice":0,"pitch":72,"start":96.25,"duration":0.25,"velocity":127,"measure":49,"beat":1.5,"subject_pos":-1,"motif":"","motif_pos":-1,"best_pos":3,"similarity":0.493,"stretto":false,"stretto_voices":0,"combination":[]},{"voice":0,"pitch":71,"start":96.5,"duration":0.25,"velocity":127,"measure":49,"beat":2.0,"subject_pos":-1,"motif":"","motif_pos":-1,"best_pos":4,"similarity":0.486,"stretto":false,"stretto_voices":0,"combination":[]},{"voice":1,"pitch":71,"start":96.5,"duration":1.25,"velocity":127,"measure":49,"beat":2.0,"subject_pos":-1,"motif":"","motif_pos":-1,"best_pos":4,"similarity":0.482,"stretto":false,"stretto_voices":0,"combination":[]},{"voice":2,"pitch":56,"start":96.5,"duration":1.0,"velocity":127,"measure":49,"beat":2.0,"subject_pos":-1,"motif":"","motif_pos":-1,"best_pos":3,"similarity":0.571,"stretto":false,"stretto_voices":0,"combination":[]},{"voice":0,"pitch":74,"start":96.75,"duration":0.25,"velocity":127,"measure":49,"beat":2.5,"subject_pos":-1,"motif":"","motif_pos":-1,"best_pos":1,"similarity":0.364,"stretto":false,"stretto_voices":0,"combination":[]},{"voice":3,"pitch":50,"start":96.75,"duration":0.25,"velocity":127,"measure":49,"beat":2.5,"subject_pos":-1,"motif":"","motif_pos":-1,"best_pos":2,"similarity":0.45,"stretto":false,"stretto_voices":0,"combination":[]},{"voice":0,"pitch":72,"start":97.0,"duration":0.25,"velocity":127,"measure":49,"beat":3.0,"subject_pos":-1,"motif":"","motif_pos":-1,"best_pos":4,"similarity":0.471,"stretto":false,"stretto_voices":0,"combination":[]},{"voice":3,"pitch":52,"start":97.0,"duration":0.5,"velocity":127,"measure":49,"beat":3.0,"subject_pos":-1,"motif":"","motif_pos":-1,"best_pos":1,"similarity":0.386,"stretto":false,"stretto_voices":0,"combination":[]},{"voice":0,"pitch":74,"start":97.25,"duration":0.25,"velocity":127,"measure":49,"beat":3.5,"subject_pos":-1,"motif":"","motif_pos":-1,"best_pos":5,"similarity":0.514,"stretto":false,"stretto_voices":0,"combination":[]},{"voice":0,"pitch":76,"start":97.5,"duration":0.75,"velocity":127,"measure":49,"beat":4.0,"subject_pos":-1,"motif":"","motif_pos":-1,"best_pos":6,"similarity":0.421,"stretto":false,"stretto_voices":0,"combination":[]},{"voice":2,"pitch":56,"start":97.5,"duration":0.5,"velocity":127,"measure":49,"beat":4.0,"subject_pos":-1,"motif":"","motif_pos":-1,"best_pos":4,"similarity":0.571,"stretto":false,"stretto_voices":0,"combination":[]},{"voice":3,"pitch":48,"start":97.5,"duration":0.5,"velocity":127,"measure":49,"beat":4.0,"subject_pos":-1,"motif":"","motif_pos":-1,"best_pos":2,"similarity":0.514,"stretto":false,"stretto_voices":0,"combination":[]},{"voice":1,"pitch":72,"start":97.75,"duration":0.25,"velocity":127,"measure":49,"beat":4.5,"subject_pos":-1,"motif":"","motif_pos":-1,"best_pos":2,"similarity":0.564,"stretto":false,"stretto_voices":0,"combination":[]},{"voice":1,"pitch":69,"start":98.0,"duration":1.5,"velocity":127,"measure":50,"beat":1.0,"subject_pos":-1,"motif":"","motif_pos":-1,"best_pos":3,"similarity":0.818,"stretto":false,"stretto_voices":0,"combination":[]},{"voice":2,"pitch":57,"start":98.0,"duration":0.5,"velocity":127,"measure":50,"beat":1.0,"subject_pos":-1,"motif":"","motif_pos":-1,"best_pos":5,"similarity":0.429,"stretto":false,"stretto_voices":0,"combination":[]},{"voice":3,"pitch":53,"start":98.0,"duration":0.75,"velocity":127,"measure":50,"beat":1.0,"subject_pos":-1,"motif":"","motif_pos":-1,"best_pos":3,"similarity":0.579,"stretto":false,"stretto_voices":0,"combination":[]},{"voice":0,"pitch":74,"start":98.25,"duration":0.25,"velocity":127,"measure":50,"beat":1.5,"subject_pos":-1,"motif":"","motif_pos":-1,"best_pos":3,"similarity":0.493,"stretto":false,"stretto_voices":0,"combination":[]},{"voice":0,"pitch":73,"start":98.5,"duration":0.25,"velocity":127,"measure":50,"beat":2.0,"subject_pos":-1,"motif":"","motif_pos":-1,"best_pos":4,"similarity":0.486,"stretto":false,"stretto_voices":0,"combination":[]},{"voice":2,"pitch":64,"start":98.5,"duration":0.5,"velocity":127,"measure":50,"beat":2.0,"subject_pos":-1,"motif":"","motif_pos":-1,"best_pos":1,"similarity":0.35,"stretto":false,"stretto_voices":0,"combination":[]},{"voice":0,"pitch":76,"start":98.75,"duration":0.25,"velocity":127,"measure":50,"beat":2.5,"subject_pos":-1,"motif":"","motif_pos":-1,"best_pos":4,"similarity":0.379,"stretto":false,"stretto_voices":0,"combination":[]},{"voice":3,"pitch":52,"start":98.75,"duration":0.25,"velocity":127,"measure":50,"beat":2.5,"subject_pos":-1,"motif":"","motif_pos":-1,"best_pos":4,"similarity":0.643,"stretto":false,"stretto_voices":0,"combination":[]},{"voice":0,"pitch":74,"start":99.0,"duration":0.25,"velocity":127,"measure":50,"beat":3.0,"subject_pos":-1,"motif":"","motif_pos":-1,"best_pos":5,"similarity":0.489,"stretto":false,"stretto_voices":0,"combination":[]},{"voice":2,"pitch":57,"start":99.0,"duration":0.5,"velocity":127,"measure":50,"beat":3.0,"subject_pos":-1,"motif":"","motif_pos":-1,"best_pos":0,"similarity":0.446,"stretto":false,"stretto_voices":0,"combination":[]},{"voice":3,"pitch":53,"start":99.0,"duration":0.5,"velocity":127,"measure":50,"beat":3.0,"subject_pos":-1,"motif":"","motif_pos":-1,"best_pos":5,"similarity":0.429,"stretto":false,"stretto_voices":0,"combination":[]},{"voice":0,"pitch":76,"start":99.25,"duration":0.25,"velocity":127,"measure":50,"beat":3.5,"subject_pos":-1,"motif":"","motif_pos":-1,"best_pos":6,"similarity":0.593,"stretto":false,"stretto_voices":0,"combination":[]},{"voice":0,"pitch":77,"start":99.5,"duration":1.0,"velocity":127,"measure":50,"beat":4.0,"subject_pos":-1,"motif":"","motif_pos":-1,"best_pos":7,"similarity":0.436,"stretto":false,"stretto_voices":0,"combination":[]},{"voice":1,"pitch":68,"start":99.5,"duration":0.25,"velocity":127,"measure":50,"beat":4.0,"subject_pos":-1,"motif":"","motif_pos":-1,"best_pos":4,"similarity":0.882,"stretto":false,"stretto_voices":0,"combination":[]},{"voice":2,"pitch":62,"start":99.5,"duration":0.75,"velocity":127,"measure":50,"beat":4.0,"subject_pos":-1,"motif":"","motif_pos":-1,"best_pos":1,"similarity":0.614,"stretto":false,"stretto_voices":0,"combination":[]},{"voice":3,"pitch":50,"start":99.5,"duration":0.5,"velocity":127,"measure":50,"beat":4.0,"subject_pos":-1,"motif":"","motif_pos":-1,"best_pos":3,"similarity":0.307,"stretto":false,"stretto_voices":0,"combination":[]},{"voice":1,"pitch":69,"start":99.75,"duration":0.25,"velocity":127,"measure":50,"beat":4.5,"subject_pos":-1,"motif":"","motif_pos":-1,"best_pos":5,"similarity":0.821,"stretto":false,"stretto_voices":0,"combination":[]},{"voice":1,"pitch":71,"start":100.0,"duration":0.5,"velocity":127,"measure":51,"beat":1.0,"subject_pos":-1,"motif":"","motif_pos":-1,"best_pos":6,"similarity":0.571,"stretto":false,"stretto_voices":0,"combination":[]},{"voice":3,"pitch":56,"start":100.0,"duration":1.0,"velocity":127,"measure":51,"beat":1.0,"subject_pos":-1,"motif":"","motif_pos":-1,"best_pos":1,"similarity":0.436,"stretto":false,"stretto_voices":0,"combination":[]},{"voice":2,"pitch":60,"start":100.25,"duration":0.25,"velocity":127,"measure":51,"beat":1.5,"subject_pos":-1,"motif":"","motif_pos":-1,"best_pos":2,"similarity":0.521,"stretto":false,"stretto_voices":0,"combination":[]},{"voice":0,"pitch":76,"start":100.5,"duration":1.0,"velocity":127,"measure":51,"beat":2.0,"subject_pos":-1,"motif":"","motif_pos":-1,"best_pos":2,"similarity":0.371,"stretto":false,"stretto_voices":0,"combination":[]},{"voice":1,"pitch":74,"start":100.5,"duration":0.5,"velocity":127,"measure":51,"beat":2.0,"subject_pos":-1,"motif":"","motif_pos":-1,"best_pos":7,"similarity":0.286,"stretto":false,"stretto_voices":0,"combination":[]},{"voice":2,"pitch":59,"start":100.5,"duration":0.25,"velocity":127,"measure":51,"beat":2.0,"subject_pos":-1,"motif":"","motif_pos":-1,"best_pos":4,"similarity":0.461,"stretto":false,"stretto_voices":0,"combination":[]},{"voice":2,"pitch":62,"start":100.75,"duration":0.25,"velocity":127,"measure":51,"beat":2.5,"subject_pos":-1,"motif":"","motif_pos":-1,"best_pos":1,"similarity":0.429,"stretto":false,"stretto_voices":0,"combination":[]},{"voice":1,"pitch":68,"start":101.0,"duration":0.5,"velocity":127,"measure":51,"beat":3.0,"subject_pos":-1,"motif":"","motif_pos":-1,"best_pos":0,"similarity":0.214,"stretto":false,"stretto_voices":0,"combination":[]},{"voice":2,"pitch":60,"start":101.0,"duration":0.25,"velocity":127,"measure":51,"beat":3.0,"subject_pos":-1,"motif":"","motif_pos":-1,"best_pos":2,"similarity":0.482,"stretto":false,"stretto_voices":0,"combination":[]},{"voice":2,"pitch":59,"start":101.25,"duration":0.25,"velocity":127,"measure":51,"beat":3.5,"subject_pos":-1,"motif":"","motif_pos":-1,"best_pos":2,"similarity":0.5,"stretto":false,"stretto_voices":0,"combination":[]},{"voice":0,"pitch":74,"start":101.5,"duration":0.5,"velocity":127,"measure":51,"beat":4.0,"subject_pos":-1,"motif":"","motif_pos":-1,"best_pos":2,"similarity":0.446,"stretto":false,"stretto_voices":0,"combination":[]},{"voice":1,"pitch":71,"start":101.5,"duration":0.75,"velocity":127,"measure":51,"beat":4.0,"subject_pos":-1,"motif":"","motif_pos":-1,"best_pos":1,"similarity":0.357,"stretto":false,"stretto_voices":0,"combination":[]},{"voice":2,"pitch":57,"start":101.5,"duration":0.25,"velocity":127,"measure":51,"beat":4.0,"subject_pos":-1,"motif":"","motif_pos":-1,"best_pos":3,"similarity":0.714,"stretto":false,"stretto_voices":0,"combination":[]},{"voice":3,"pitch":52,"start":101.5,"duration":0.5,"velocity":127,"measure":51,"beat":4.0,"subject_pos":-1,"motif":"","motif_pos":-1,"best_pos":0,"similarity":0.5,"stretto":false,"stretto_voices":0,"combination":[]},{"voice":2,"pitch":56,"start":101.75,"duration":0.25,"velocity":127,"measure":51,"beat":4.5,"subject_pos":-1,"motif":"","motif_pos":-1,"best_pos":4,"similarity":0.857,"stretto":false,"stretto_voices":0,"combination":[]},{"voice":0,"pitch":72,"start":102.0,"duration":0.5,"velocity":127,"measure":52,"beat":1.0,"subject_pos":-1,"motif":"","motif_pos":-1,"best_pos":2,"similarity":0.5,"stretto":false,"stretto_voices":0,"combination":[]},{"voice":2,"pitch":57,"start":102.0,"duration":0.75,"velocity":127,"measure":52,"beat":1.0,"subject_pos":-1,"motif":"","motif_pos":-1,"best_pos":5,"similarity":0.821,"stretto":false,"stretto_voices":0,"combination":[]},{"voice":3,"pitch":57,"start":102.0,"duration":0.5,"velocity":127,"measure":52,"beat":1.0,"subject_pos":-1,"motif":"","motif_pos":-1,"best_pos":1,"similarity":0.721,"stretto":false,"stretto_voices":0,"combination":[]},{"voice":1,"pitch":69,"start":102.25,"duration":0.25,"velocity":127,"measure":52,"beat":1.5,"subject_pos":-1,"motif":"","motif_pos":-1,"best_pos":2,"similarity":0.339,"stretto":false,"stretto_voices":0,"combination":[]},{"voice":0,"pitch":81,"start":102.5,"duration":1.0,"velocity":127,"measure":52,"beat":2.0,"subject_pos":-1,"motif":"","motif_pos":-1,"best_pos":3,"similarity":0.571,"stretto":false,"stretto_voices":0,"combination":[]},{"voice":1,"pitch":72,"start":102.5,"duration":0.5,"velocity":127,"measure":52,"beat":2.0,"subject_pos":-1,"motif":"","motif_pos":-1,"best_pos":0,"similarity":0.393,"stretto":false,"stretto_voices":0,"combination":[]},{"voice":3,"pitch":53,"start":102.5,"duration":0.5,"velocity":127,"measure":52,"beat":2.0,"subject_pos":-1,"motif":"","motif_pos":-1,"best_pos":2,"similarity":0.729,"stretto":false,"stretto_voices":0,"combination":[]},{"voice":2,"pitch":59,"start":102.75,"duration":0.25,"velocity":127,"measure":52,"beat":2.5,"subject_pos":-1,"motif":"","motif_pos":-1,"best_pos":6,"similarity":0.643,"stretto":false,"stretto_voices":0,"combination":[]},{"voice":2,"pitch":59,"start":103.0,"duration":1.0,"velocity":127,"measure":52,"beat":3.0,"subject_pos":-1,"motif":"","motif_pos":-1,"best_pos":7,"similarity":0.357,"stretto":false,"stretto_voices":0,"combination":[]},{"voice":3,"pitch":50,"start":103.0,"duration":0.5,"velocity":127,"measure":52,"beat":3.0,"subject_pos":-1,"motif":"","motif_pos":-1,"best_pos":3,"similarity":0.529,"stretto":false,"stretto_voices":0,"combination":[]},{"voice":1,"pitch":77,"start":103.25,"duration":0.25,"velocity":127,"measure":52,"beat":3.5,"subject_pos":-1,"motif":"","motif_pos":-1,"best_pos":1,"similarity":0.536,"stretto":false,"stretto_voices":0,"combination":[]},{"voice":0,"pitch":80,"start":103.5,"duration":0.5,"velocity":127,"measure":52,"beat":4.0,"subject_pos":-1,"motif":"enigmatic_cell","motif_pos":0,"best_pos":0,"similarity":1.0,"stretto":false,"stretto_voices":0,"combination":[]},{"voice":1,"pitch":76,"start":103.5,"duration":0.25,"velocity":127,"measure":52,"beat":4.0,"subject_pos":-1,"motif":"","motif_pos":-1,"best_pos":2,"similarity":0.507,"stretto":false,"stretto_voices":0,"combination":[]},{"voice":3,"pitch":52,"start":103.5,"duration":0.5,"velocity":127,"measure":52,"beat":4.0,"subject_pos":-1,"motif":"","motif_pos":-1,"best_pos":6,"similarity":0.307,"stretto":false,"stretto_voices":0,"combination":[]},{"voice":1,"pitch":74,"start":103.75,"duration":0.5,"velocity":127,"measure":52,"beat":4.5,"subject_pos":-1,"motif":"","motif_pos":-1,"best_pos":3,"similarity":0.45,"stretto":false,"stretto_voices":0,"combination":[]},{"voice":0,"pitch":81,"start":104.0,"duration":0.5,"velocity":127,"measure":53,"beat":1.0,"subject_pos":-1,"motif":"enigmatic_cell","motif_pos":1,"best_pos":1,"similarity":1.0,"stretto":false,"stretto_voices":0,"combination":[]},{"voice":2,"pitch":57,"start":104.0,"duration":1.0,"velocity":127,"measure":53,"beat":1.0,"subject_pos":-1,"motif":"","motif_pos":-1,"best_pos":0,"similarity":0.464,"stretto":false,"stretto_voices":0,"combination":[]},{"voice":3,"pitch":45,"start":104.0,"duration":1.0,"velocity":127,"measure":53,"beat":1.0,"subject_pos":-1,"motif":"","motif_pos":-1,"best_pos":0,"similarity":0.15,"stretto":false,"stretto_voices":0,"combination":[]},{"voice":1,"pitch":74,"start":104.25,"duration":0.25,"velocity":127,"measure":53,"beat":1.5,"subject_pos":-1,"motif":"","motif_pos":-1,"best_pos":2,"similarity":0.364,"stretto":false,"stretto_voices":0,"combination":[]},{"voice":0,"pitch":76,"start":104.5,"duration":0.5,"velocity":127,"measure":53,"beat":2.0,"subject_pos":-1,"motif":"enigmatic_cell","motif_pos":2,"best_pos":2,"similarity":1.0,"stretto":false,"stretto_voices":0,"combination":[]},{"voice":1,"pitch":72,"start":104.5,"duration":0.25,"velocity":127,"measure":53,"beat":2.0,"subject_pos":-1,"motif":"","motif_pos":-1,"best_pos":3,"similarity":0.514,"stretto":false,"stretto_voices":0,"combination":[]},{"voice":1,"pitch":71,"start":104.75,"duration":0.25,"velocity":127,"measure":53,"beat":2.5,"subject_pos":-1,"motif":"","motif_pos":-1,"best_pos":3,"similarity":0.507,"stretto":false,"stretto_voices":0,"combination":[]},{"voice":0,"pitch":72,"start":105.0,"duration":1.0,"velocity":127,"measure":53,"beat":3.0,"subject_pos":-1,"motif":"","motif_pos":-1,"best_pos":3,"similarity":0.379,"stretto":false,"stretto_voices":0,"combination":[]},{"voice":1,"pitch":69,"start":105.0,"duration":1.0,"velocity":127,"measure":53,"beat":3.0,"subject_pos":-1,"motif":"","motif_pos":-1,"best_pos":4,"similarity":0.557,"stretto":false,"stretto_voices":0,"combination":[]},{"voice":2,"pitch":62,"start":105.25,"duration":0.25,"velocity":127,"measure":53,"beat":3.5,"subject_pos":-1,"motif":"","motif_pos":-1,"best_pos":1,"similarity":0.714,"stretto":false,"stretto_voices":0,"combination":[]},{"voice":2,"pitch":60,"start":105.5,"duration":0.25,"velocity":127,"measure":53,"beat":4.0,"subject_pos":-1,"motif":"","motif_pos":-1,"best_pos":2,"similarity":0.786,"stretto":false,"stretto_voices":0,"combination":[]},{"voice":3,"pitch":57,"start":105.5,"duration":0.5,"velocity":127,"measure":53,"beat":4.0,"subject_pos":-1,"motif":"","motif_pos":-1,"best_pos":1,"similarity":0.318,"stretto":false,"stretto_voices":0,"combination":[]},{"voice":2,"pitch":58,"start":105.75,"duration":0.25,"velocity":127,"measure":53,"beat":4.5,"subject_pos":-1,"motif":"","motif_pos":-1,"best_pos":3,"similarity":0.793,"stretto":false,"stretto_voices":0,"combination":[]},{"voice":2,"pitch":57,"start":106.0,"duration":1.0,"velocity":127,"measure":54,"beat":1.0,"subject_pos":-1,"motif":"","motif_pos":-1,"best_pos":4,"similarity":0.736,"stretto":false,"stretto_voices":0,"combination":[]},{"voice":3,"pitch":53,"start":106.0,"duration":1.0,"velocity":127,"measure":54,"beat":1.0,"subject_pos":-1,"motif":"","motif_pos":-1,"best_pos":2,"similarity":0.35,"stretto":false,"stretto_voices":0,"combination":[]},{"voice":1,"pitch":70,"start":106.25,"duration":0.25,"velocity":127,"measure":54,"beat":1.5,"subject_pos":-1,"motif":"","motif_pos":-1,"best_pos":3,"similarity":0.479,"stretto":false,"stretto_voices":0,"combination":[]},{"voice":0,"pitch":72,"start":106.5,"duration":0.5,"velocity":127,"measure":54,"beat":2.0,"subject_pos":-1,"motif":"","motif_pos":-1,"best_pos":2,"similarity":0.357,"stretto":false,"stretto_voices":0,"combination":[]},{"voice":1,"pitch":69,"start":106.5,"duration":0.25,"velocity":127,"measure":54,"beat":2.0,"subject_pos":-1,"motif":"","motif_pos":-1,"best_pos":4,"similarity":0.414,"stretto":false,"stretto_voices":0,"combination":[]},{"voice":1,"pitch":67,"start":106.75,"duration":0.25,"velocity":127,"measure":54,"beat":2.5,"subject_pos":-1,"motif":"","motif_pos":-1,"best_pos":2,"similarity":0.436,"stretto":false,"stretto_voices":0,"combination":[]},{"voice":0,"pitch":69,"start":107.0,"duration":1.0,"velocity":127,"measure":54,"beat":3.0,"subject_pos":-1,"motif":"","motif_pos":-1,"best_pos":3,"similarity":0.339,"stretto":false,"stretto_voices":0,"combination":[]},{"voice":1,"pitch":65,"start":107.0,"duration":1.0,"velocity":127,"measure":54,"beat":3.0,"subject_pos":-1,"motif":"","motif_pos":-1,"best_pos":2,"similarity":0.375,"stretto":false,"stretto_voices":0,"combination":[]},{"voice":2,"pitch":58,"start":107.25,"duration":0.25,"velocity":127,"measure":54,"beat":3.5,"subject_pos":-1,"motif":"","motif_pos":-1,"best_pos":5,"similarity":0.507,"stretto":false,"stretto_voices":0,"combination":[]},{"voice":2,"pitch":57,"start":107.5,"duration":0.25,"velocity":127,"measure":54,"beat":4.0,"subject_pos":-1,"motif":"","motif_pos":-1,"best_pos":4,"similarity":0.379,"stretto":false,"stretto_voices":0,"combination":[]},{"voice":3,"pitch":53,"start":107.5,"duration":0.5,"velocity":127,"measure":54,"beat":4.0,"subject_pos":-1,"motif":"","motif_pos":-1,"best_pos":2,"similarity":0.357,"stretto":false,"stretto_voices":0,"combination":[]},{"voice":2,"pitch":55,"start":107.75,"duration":0.25,"velocity":127,"measure":54,"beat":4.5,"subject_pos":-1,"motif":"","motif_pos":-1,"best_pos":2,"similarity":0.436,"stretto":false,"stretto_voices":0,"combination":[]},{"voice":2,"pitch":53,"start":108.0,"duration":1.0,"velocity":127,"measure":55,"beat":1.0,"subject_pos":-1,"motif":"","motif_pos":-1,"best_pos":2,"similarity":0.375,"stretto":false,"stretto_voices":0,"combination":[]},{"voice":3,"pitch":50,"start":108.0,"duration":1.0,"velocity":127,"measure":55,"beat":1.0,"subject_pos":-1,"motif":"","motif_pos":-1,"best_pos":3,"similarity":0.339,"stretto":false,"stretto_voices":0,"combination":[]},{"voice":1,"pitch":79,"start":108.25,"duration":0.25,"velocity":127,"measure":55,"beat":1.5,"subject_pos":-1,"motif":"","motif_pos":-1,"best_pos":1,"similarity":0.357,"stretto":false,"stretto_voices":0,"combination":[]},{"voice":0,"pitch":81,"start":108.5,"duration":0.5,"velocity":127,"measure":55,"beat":2.0,"subject_pos":-1,"motif":"","motif_pos":-1,"best_pos":1,"similarity":0.318,"stretto":false,"stretto_voices":0,"combination":[]},{"voice":1,"pitch":77,"start":108.5,"duration":0.25,"velocity":127,"measure":55,"beat":2.0,"subject_pos":-1,"motif":"","motif_pos":-1,"best_pos":2,"similarity":0.5,"stretto":false,"stretto_voices":0,"combination":[]},{"voice":1,"pitch":76,"start":108.75,"duration":0.25,"velocity":127,"measure":55,"beat":2.5,"subject_pos":-1,"motif":"","motif_pos":-1,"best_pos":3,"similarity":0.507,"stretto":false,"stretto_voices":0,"combination":[]},{"voice":0,"pitch":77,"start":109.0,"duration":1.0,"velocity":127,"measure":55,"beat":3.0,"subject_pos":-1,"motif":"","motif_pos":-1,"best_pos":2,"similarity":0.35,"stretto":false,"stretto_voices":0,"combination":[]},{"voice":1,"pitch":74,"start":109.0,"duration":1.0,"velocity":127,"measure":55,"beat":3.0,"subject_pos":-1,"motif":"","motif_pos":-1,"best_pos":4,"similarity":0.557,"stretto":false,"stretto_voices":0,"combination":[]},{"voice":2,"pitch":67,"start":109.25,"duration":0.25,"velocity":127,"measure":55,"beat":3.5,"subject_pos":-1,"motif":"","motif_pos":-1,"best_pos":1,"similarity":0.357,"stretto":false,"stretto_voices":0,"combination":[]},{"voice":2,"pitch":65,"start":109.5,"duration":0.25,"velocity":127,"measure":55,"beat":4.0,"subject_pos":-1,"motif":"","motif_pos":-1,"best_pos":2,"similarity":0.5,"stretto":false,"stretto_voices":0,"combination":[]},{"voice":3,"pitch":62,"start":109.5,"duration":0.5,"velocity":127,"measure":55,"beat":4.0,"subject_pos":-1,"motif":"","motif_pos":-1,"best_pos":1,"similarity":0.318,"stretto":false,"stretto_voices":0,"combination":[]},{"voice":2,"pitch":64,"start":109.75,"duration":0.25,"velocity":127,"measure":55,"beat":4.5,"subject_pos":-1,"motif":"","motif_pos":-1,"best_pos":3,"similarity":0.507,"stretto":false,"stretto_voices":0,"combination":[]},{"voice":2,"pitch":62,"start":110.0,"duration":1.0,"velocity":127,"measure":56,"beat":1.0,"subject_pos":-1,"motif":"","motif_pos":-1,"best_pos":4,"similarity":0.557,"stretto":false,"stretto_voices":0,"combination":[]},{"voice":3,"pitch":58,"start":110.0,"duration":1.0,"velocity":127,"measure":56,"beat":1.0,"subject_pos":-1,"motif":"","motif_pos":-1,"best_pos":2,"similarity":0.386,"stretto":false,"stretto_voices":0,"combination":[]},{"voice":1,"pitch":75,"start":110.25,"duration":0.25,"velocity":127,"measure":56,"beat":1.5,"subject_pos":-1,"motif":"","motif_pos":-1,"best_pos":3,"similarity":0.479,"stretto":false,"stretto_voices":0,"combination":[]},{"voice":0,"pitch":77,"start":110.5,"duration":0.5,"velocity":127,"measure":56,"beat":2.0,"subject_pos":-1,"motif":"","motif_pos":-1,"best_pos":2,"similarity":0.364,"stretto":false,"stretto_voices":0,"combination":[]},{"voice":1,"pitch":74,"start":110.5,"duration":0.25,"velocity":127,"measure":56,"beat":2.0,"subject_pos":-1,"motif":"","motif_pos":-1,"best_pos":4,"similarity":0.45,"stretto":false,"stretto_voices":0,"combination":[]},{"voice":1,"pitch":72,"start":110.75,"duration":0.25,"velocity":127,"measure":56,"beat":2.5,"subject_pos":-1,"motif":"","motif_pos":-1,"best_pos":2,"similarity":0.507,"stretto":false,"stretto_voices":0,"combination":[]},{"voice":0,"pitch":74,"start":111.0,"duration":1.0,"velocity":127,"measure":56,"beat":3.0,"subject_pos":-1,"motif":"","motif_pos":-1,"best_pos":3,"similarity":0.343,"stretto":false,"stretto_voices":0,"combination":[]},{"voice":1,"pitch":70,"start":111.0,"duration":1.0,"velocity":127,"measure":56,"beat":3.0,"subject_pos":-1,"motif":"","motif_pos":-1,"best_pos":3,"similarity":0.514,"stretto":false,"stretto_voices":0,"combination":[]},{"voice":2,"pitch":63,"start":111.25,"duration":0.25,"velocity":127,"measure":56,"beat":3.5,"subject_pos":-1,"motif":"","motif_pos":-1,"best_pos":3,"similarity":0.479,"stretto":false,"stretto_voices":0,"combination":[]},{"voice":2,"pitch":62,"start":111.5,"duration":0.25,"velocity":127,"measure":56,"beat":4.0,"subject_pos":-1,"motif":"","motif_pos":-1,"best_pos":4,"similarity":0.414,"stretto":false,"stretto_voices":0,"combination":[]},{"voice":3,"pitch":58,"start":111.5,"duration":0.5,"velocity":127,"measure":56,"beat":4.0,"subject_pos":-1,"motif":"","motif_pos":-1,"best_pos":4,"similarity":0.393,"stretto":false,"stretto_voices":0,"combination":[]},{"voice":2,"pitch":60,"start":111.75,"duration":0.25,"velocity":127,"measure":56,"beat":4.5,"subject_pos":-1,"motif":"","motif_pos":-1,"best_pos":2,"similarity":0.436,"stretto":false,"stretto_voices":0,"combination":[]},{"voice":2,"pitch":58,"start":112.0,"duration":0.5,"velocity":127,"measure":57,"beat":1.0,"subject_pos":-1,"motif":"","motif_pos":-1,"best_pos":2,"similarity":0.321,"stretto":false,"stretto_voices":0,"combination":[]},{"voice":3,"pitch":55,"start":112.0,"duration":1.0,"velocity":127,"measure":57,"beat":1.0,"subject_pos":-1,"motif":"","motif_pos":-1,"best_pos":5,"similarity":0.436,"stretto":false,"stretto_voices":0,"combination":[]},{"voice":0,"pitch":84,"start":112.25,"duration":0.25,"velocity":127,"measure":57,"beat":1.5,"subject_pos":-1,"motif":"","motif_pos":-1,"best_pos":1,"similarity":0.386,"stretto":false,"stretto_voices":0,"combination":[]},{"voice":0,"pitch":82,"start":112.5,"duration":0.25,"velocity":127,"measure":57,"beat":2.0,"subject_pos":-1,"motif":"","motif_pos":-1,"best_pos":2,"similarity":0.45,"stretto":false,"stretto_voices":0,"combination":[]},{"voice":2,"pitch":67,"start":112.5,"duration":0.5,"velocity":127,"measure":57,"beat":2.0,"subject_pos":-1,"motif":"","motif_pos":-1,"best_pos":1,"similarity":0.321,"stretto":false,"stretto_voices":0,"combination":[]},{"voice":0,"pitch":81,"start":112.75,"duration":0.25,"velocity":127,"measure":57,"beat":2.5,"subject_pos":-1,"motif":"","motif_pos":-1,"best_pos":1,"similarity":0.429,"stretto":false,"stretto_voices":0,"combination":[]},{"voice":0,"pitch":79,"start":113.0,"duration":0.25,"velocity":127,"measure":57,"beat":3.0,"subject_pos":-1,"motif":"","motif_pos":-1,"best_pos":2,"similarity":0.579,"stretto":false,"stretto_voices":0,"combination":[]},{"voice":2,"pitch":64,"start":113.0,"duration":1.0,"velocity":127,"measure":57,"beat":3.0,"subject_pos":-1,"motif":"","motif_pos":-1,"best_pos":1,"similarity":0.429,"stretto":false,"stretto_voices":0,"combination":[]},{"voice":0,"pitch":77,"start":113.25,"duration":0.25,"velocity":127,"measure":57,"beat":3.5,"subject_pos":-1,"motif":"","motif_pos":-1,"best_pos":3,"similarity":0.593,"stretto":false,"stretto_voices":0,"combination":[]},{"voice":3,"pitch":57,"start":113.25,"duration":0.25,"velocity":127,"measure":57,"beat":3.5,"subject_pos":-1,"motif":"","motif_pos":-1,"best_pos":1,"similarity":0.457,"stretto":false,"stretto_voices":0,"combination":[]},{"voice":0,"pitch":76,"start":113.5,"duration":0.25,"velocity":127,"measure":57,"beat":4.0,"subject_pos":-1,"motif":"","motif_pos":-1,"best_pos":4,"similarity":0.507,"stretto":false,"stretto_voices":0,"combination":[]},{"voice":1,"pitch":70,"start":113.5,"duration":0.5,"velocity":127,"measure":57,"beat":4.0,"subject_pos":-1,"motif":"","motif_pos":-1,"best_pos":4,"similarity":0.464,"stretto":false,"stretto_voices":0,"combination":[]},{"voice":3,"pitch":55,"start":113.5,"duration":0.25,"velocity":127,"measure":57,"beat":4.0,"subject_pos":-1,"motif":"","motif_pos":-1,"best_pos":2,"similarity":0.657,"stretto":false,"stretto_voices":0,"combination":[]},{"voice":0,"pitch":74,"start":113.75,"duration":0.25,"velocity":127,"measure":57,"beat":4.5,"subject_pos":-1,"motif":"","motif_pos":-1,"best_pos":2,"similarity":0.443,"stretto":false,"stretto_voices":0,"combination":[]},{"voice":3,"pitch":53,"start":113.75,"duration":0.25,"velocity":127,"measure":57,"beat":4.5,"subject_pos":-1,"motif":"","motif_pos":-1,"best_pos":3,"similarity":0.729,"stretto":false,"stretto_voices":0,"combination":[]},{"voice":0,"pitch":72,"start":114.0,"duration":0.5,"velocity":127,"measure":58,"beat":1.0,"subject_pos":-1,"motif":"","motif_pos":-1,"best_pos":5,"similarity":0.404,"stretto":false,"stretto_voices":0,"combination":[]},{"voice":1,"pitch":67,"start":114.0,"duration":1.25,"velocity":127,"measure":58,"beat":1.0,"subject_pos":-1,"motif":"","motif_pos":-1,"best_pos":5,"similarity":0.436,"stretto":false,"stretto_voices":0,"combination":[]},{"voice":3,"pitch":52,"start":114.0,"duration":1.0,"velocity":127,"measure":58,"beat":1.0,"subject_pos":-1,"motif":"","motif_pos":-1,"best_pos":4,"similarity":0.736,"stretto":false,"stretto_voices":0,"combination":[]},{"voice":2,"pitch":60,"start":114.25,"duration":0.25,"velocity":127,"measure":58,"beat":1.5,"subject_pos":-1,"motif":"","motif_pos":-1,"best_pos":2,"similarity":0.579,"stretto":false,"stretto_voices":0,"combination":[]},{"voice":0,"pitch":74,"start":114.5,"duration":0.5,"velocity":127,"measure":58,"beat":2.0,"subject_pos":-1,"motif":"","motif_pos":-1,"best_pos":6,"similarity":0.336,"stretto":false,"stretto_voices":0,"combination":[]},{"voice":2,"pitch":58,"start":114.5,"duration":0.25,"velocity":127,"measure":58,"beat":2.0,"subject_pos":-1,"motif":"","motif_pos":-1,"best_pos":3,"similarity":0.586,"stretto":false,"stretto_voices":0,"combination":[]},{"voice":2,"pitch":57,"start":114.75,"duration":0.25,"velocity":127,"measure":58,"beat":2.5,"subject_pos":-1,"motif":"","motif_pos":-1,"best_pos":4,"similarity":0.464,"stretto":false,"stretto_voices":0,"combination":[]},{"voice":0,"pitch":70,"start":115.0,"duration":1.5,"velocity":127,"measure":58,"beat":3.0,"subject_pos":-1,"motif":"","motif_pos":-1,"best_pos":2,"similarity":0.343,"stretto":false,"stretto_voices":0,"combination":[]},{"voice":2,"pitch":55,"start":115.0,"duration":2.0,"velocity":127,"measure":58,"beat":3.0,"subject_pos":-1,"motif":"head","motif_pos":0,"best_pos":0,"similarity":1.0,"stretto":false,"stretto_voices":0,"combination":[]},{"voice":1,"pitch":69,"start":115.25,"duration":0.25,"velocity":127,"measure":58,"beat":3.5,"subject_pos":-1,"motif":"","motif_pos":-1,"best_pos":1,"similarity":0.457,"stretto":false,"stretto_voices":0,"combination":[]},{"voice":3,"pitch":53,"start":115.25,"duration":0.25,"velocity":127,"measure":58,"beat":3.5,"subject_pos":-1,"motif":"","motif_pos":-1,"best_pos":5,"similarity":0.507,"stretto":false,"stretto_voices":0,"combination":[]},{"voice":1,"pitch":67,"start":115.5,"duration":0.25,"velocity":127,"measure":58,"beat":4.0,"subject_pos":-1,"motif":"","motif_pos":-1,"best_pos":2,"similarity":0.586,"stretto":false,"stretto_voices":0,"combination":[]},{"voice":3,"pitch":52,"start":115.5,"duration":0.25,"velocity":127,"measure":58,"beat":4.0,"subject_pos":-1,"motif":"","motif_pos":-1,"best_pos":4,"similarity":0.386,"stretto":false,"stretto_voices":0,"combination":[]},{"voice":1,"pitch":65,"start":115.75,"duration":0.25,"velocity":127,"measure":58,"beat":4.5,"subject_pos":-1,"motif":"","motif_pos":-1,"best_pos":3,"similarity":0.586,"stretto":false,"stretto_voices":0,"combination":[]},{"voice":3,"pitch":50,"start":115.75,"duration":0.25,"velocity":127,"measure":58,"beat":4.5,"subject_pos":-1,"motif":"","motif_pos":-1,"best_pos":2,"similarity":0.429,"stretto":false,"stretto_voices":0,"combination":[]},{"voice":1,"pitch":64,"start":116.0,"duration":0.25,"velocity":127,"measure":59,"beat":1.0,"subject_pos":-1,"motif":"","motif_pos":-1,"best_pos":4,"similarity":0.461,"stretto":false,"stretto_voices":0,"combination":[]},{"voice":3,"pitch":48,"start":116.0,"duration":1.0,"velocity":127,"measure":59,"beat":1.0,"subject_pos":-1,"motif":"","motif_pos":-1,"best_pos":0,"similarity":0.357,"stretto":false,"stretto_voices":0,"combination":[]},{"voice":1,"pitch":72,"start":116.25,"duration":0.25,"velocity":127,"measure":59,"beat":1.5,"subject_pos":-1,"motif":"","motif_pos":-1,"best_pos":1,"similarity":0.5,"stretto":false,"stretto_voices":0,"combination":[]},{"voice":0,"pitch":79,"start":116.5,"duration":0.5,"velocity":127,"measure":59,"beat":2.0,"subject_pos":-1,"motif":"","motif_pos":-1,"best_pos":2,"similarity":0.293,"stretto":false,"stretto_voices":0,"combination":[]},{"voice":1,"pitch":70,"start":116.5,"duration":0.25,"velocity":127,"measure":59,"beat":2.0,"subject_pos":-1,"motif":"","motif_pos":-1,"best_pos":2,"similarity":0.518,"stretto":false,"stretto_voices":0,"combination":[]},{"voice":1,"pitch":69,"start":116.75,"duration":0.25,"velocity":127,"measure":59,"beat":2.5,"subject_pos":-1,"motif":"","motif_pos":-1,"best_pos":4,"similarity":0.475,"stretto":false,"stretto_voices":0,"combination":[]},{"voice":0,"pitch":76,"start":117.0,"duration":1.25,"velocity":127,"measure":59,"beat":3.0,"subject_pos":-1,"motif":"","motif_pos":-1,"best_pos":0,"similarity":0.464,"stretto":false,"stretto_voices":0,"combination":[]},{"voice":1,"pitch":67,"start":117.0,"duration":0.25,"velocity":127,"measure":59,"beat":3.0,"subject_pos":-1,"motif":"","motif_pos":-1,"best_pos":2,"similarity":0.436,"stretto":false,"stretto_voices":0,"combination":[]},{"voice":1,"pitch":70,"start":117.25,"duration":0.25,"velocity":127,"measure":59,"beat":3.5,"subject_pos":-1,"motif":"enigmatic_cell","motif_pos":0,"best_pos":0,"similarity":1.0,"stretto":false,"stretto_voices":0,"combination":[]},{"voice":2,"pitch":62,"start":117.25,"duration":0.25,"velocity":127,"measure":59,"beat":3.5,"subject_pos":-1,"motif":"head","motif_pos":1,"best_pos":1,"similarity":1.0,"stretto":false,"stretto_voices":0,"combination":[]},{"voice":1,"pitch":69,"start":117.5,"duration":0.25,"velocity":127,"measure":59,"beat":4.0,"subject_pos":-1,"motif":"enigmatic_cell","motif_pos":1,"best_pos":1,"similarity":1.0,"stretto":false,"stretto_voices":0,"combination":[]},{"voice":2,"pitch":60,"start":117.5,"duration":0.25,"velocity":127,"measure":59,"beat":4.0,"subject_pos":-1,"motif":"head","motif_pos":2,"best_pos":2,"similarity":1.0,"stretto":false,"stretto_voices":0,"combination":[]},{"voice":1,"pitch":74,"start":117.75,"duration":0.25,"velocity":127,"measure":59,"beat":4.5,"subject_pos":-1,"motif":"enigmatic_cell","motif_pos":2,"best_pos":2,"similarity":1.0,"stretto":false,"stretto_voices":0,"combination":[]},{"voice":2,"pitch":58,"start":117.75,"duration":0.25,"velocity":127,"measure":59,"beat":4.5,"subject_pos":-1,"motif":"head","motif_pos":3,"best_pos":3,"similarity":1.0,"stretto":false,"stretto_voices":0,"combination":[]},{"voice":1,"pitch":72,"start":118.0,"duration":0.5,"velocity":127,"measure":60,"beat":1.0,"subject_pos":-1,"motif":"","motif_pos":-1,"best_pos":2,"similarity":0.443,"stretto":false,"stretto_voices":0,"combination":[]},{"voice":2,"pitch":57,"start":118.0,"duration":1.0,"velocity":127,"measure":60,"beat":1.0,"subject_pos":-1,"motif":"head","motif_pos":4,"best_pos":4,"similarity":1.0,"stretto":false,"stretto_voices":0,"combination":[]},{"voice":0,"pitch":81,"start":118.25,"duration":0.25,"velocity":127,"measure":60,"beat":1.5,"subject_pos":-1,"motif":"","motif_pos":-1,"best_pos":1,"similarity":0.714,"stretto":false,"stretto_voices":0,"combination":[]},{"voice":0,"pitch":79,"start":118.5,"duration":0.25,"velocity":127,"measure":60,"beat":2.0,"subject_pos":-1,"motif":"","motif_pos":-1,"best_pos":2,"similarity":0.721,"stretto":false,"stretto_voices":0,"combination":[]},{"voice":1,"pitch":64,"start":118.5,"duration":0.5,"velocity":127,"measure":60,"beat":2.0,"subject_pos":-1,"motif":"","motif_pos":-1,"best_pos":1,"similarity":0.357,"stretto":false,"stretto_voices":0,"combination":[]},{"voice":0,"pitch":77,"start":118.75,"duration":0.25,"velocity":127,"measure":60,"beat":2.5,"subject_pos":-1,"motif":"","motif_pos":-1,"best_pos":3,"similarity":0.664,"stretto":false,"stretto_voices":0,"combination":[]},{"voice":0,"pitch":76,"start":119.0,"duration":0.25,"velocity":127,"measure":60,"beat":3.0,"subject_pos":-1,"motif":"","motif_pos":-1,"best_pos":4,"similarity":0.479,"stretto":false,"stretto_voices":0,"combination":[]},{"voice":1,"pitch":60,"start":119.0,"duration":1.5,"velocity":127,"measure":60,"beat":3.0,"subject_pos":-1,"motif":"","motif_pos":-1,"best_pos":2,"similarity":0.429,"stretto":false,"stretto_voices":0,"combination":[]},{"voice":0,"pitch":74,"start":119.25,"duration":0.25,"velocity":127,"measure":60,"beat":3.5,"subject_pos":-1,"motif":"","motif_pos":-1,"best_pos":2,"similarity":0.518,"stretto":false,"stretto_voices":0,"combination":[]},{"voice":2,"pitch":58,"start":119.25,"duration":0.25,"velocity":127,"measure":60,"beat":3.5,"subject_pos":-1,"motif":"","motif_pos":-1,"best_pos":5,"similarity":0.507,"stretto":false,"stretto_voices":0,"combination":[]},{"voice":0,"pitch":72,"start":119.5,"duration":0.25,"velocity":127,"measure":60,"beat":4.0,"subject_pos":-1,"motif":"","motif_pos":-1,"best_pos":2,"similarity":0.571,"stretto":false,"stretto_voices":0,"combination":[]},{"voice":2,"pitch":57,"start":119.5,"duration":0.25,"velocity":127,"measure":60,"beat":4.0,"subject_pos":-1,"motif":"","motif_pos":-1,"best_pos":4,"similarity":0.543,"stretto":false,"stretto_voices":0,"combination":[]},{"voice":0,"pitch":70,"start":119.75,"duration":0.25,"velocity":127,"measure":60,"beat":4.5,"subject_pos":-1,"motif":"","motif_pos":-1,"best_pos":3,"similarity":0.579,"stretto":false,"stretto_voices":0,"combination":[]},{"voice":2,"pitch":55,"start":119.75,"duration":0.25,"velocity":127,"measure":60,"beat":4.5,"subject_pos":-1,"motif":"","motif_pos":-1,"best_pos":4,"similarity":0.543,"stretto":false,"stretto_voices":0,"combination":[]},{"voice":0,"pitch":69,"start":120.0,"duration":0.25,"velocity":127,"measure":61,"beat":1.0,"subject_pos":-1,"motif":"","motif_pos":-1,"best_pos":4,"similarity":0.461,"stretto":false,"stretto_voices":0,"combination":[]},{"voice":2,"pitch":57,"start":120.0,"duration":0.5,"velocity":127,"measure":61,"beat":1.0,"subject_pos":-1,"motif":"","motif_pos":-1,"best_pos":5,"similarity":0.661,"stretto":false,"stretto_voices":0,"combination":[]},{"voice":3,"pitch":53,"start":120.0,"duration":1.0,"velocity":127,"measure":61,"beat":1.0,"subject_pos":-1,"motif":"","motif_pos":-1,"best_pos":1,"similarity":0.436,"stretto":false,"stretto_voices":0,"combination":[]},{"voice":0,"pitch":77,"start":120.25,"duration":0.25,"velocity":127,"measure":61,"beat":1.5,"subject_pos":-1,"motif":"","motif_pos":-1,"best_pos":3,"similarity":0.429,"stretto":false,"stretto_voices":0,"combination":[]},{"voice":0,"pitch":76,"start":120.5,"duration":0.25,"velocity":127,"measure":61,"beat":2.0,"subject_pos":-1,"motif":"","motif_pos":-1,"best_pos":3,"similarity":0.536,"stretto":false,"stretto_voices":0,"combination":[]},{"voice":1,"pitch":68,"start":120.5,"duration":0.5,"velocity":127,"measure":61,"beat":2.0,"subject_pos":-1,"motif":"enigmatic_cell","motif_pos":0,"best_pos":0,"similarity":1.0,"stretto":false,"stretto_voices":0,"combination":[]},{"voice":2,"pitch":59,"start":120.5,"duration":0.5,"velocity":127,"measure":61,"beat":2.0,"subject_pos":-1,"motif":"","motif_pos":-1,"best_pos":6,"similarity":0.679,"stretto":false,"stretto_voices":0,"combination":[]},{"voice":0,"pitch":75,"start":120.75,"duration":0.25,"velocity":127,"measure":61,"beat":2.5,"subject_pos":-1,"motif":"","motif_pos":-1,"best_pos":4,"similarity":0.696,"stretto":false,"stretto_voices":0,"combination":[]},{"voice":0,"pitch":76,"start":121.0,"duration":1.25,"velocity":127,"measure":61,"beat":3.0,"subject_pos":-1,"motif":"","motif_pos":-1,"best_pos":5,"similarity":0.625,"stretto":false,"stretto_voices":0,"combination":[]},{"voice":1,"pitch":67,"start":121.0,"duration":0.25,"velocity":127,"measure":61,"beat":3.0,"subject_pos":-1,"motif":"enigmatic_cell","motif_pos":1,"best_pos":1,"similarity":1.0,"stretto":false,"stretto_voices":0,"combination":[]},{"voice":2,"pitch":60,"start":121.0,"duration":0.5,"velocity":127,"measure":61,"beat":3.0,"subject_pos":-1,"motif":"","motif_pos":-1,"best_pos":7,"similarity":0.464,"stretto":false,"stretto_voices":0,"combination":[]},{"voice":3,"pitch":48,"start":121.0,"duration":1.0,"velocity":127,"measure":61,"beat":3.0,"subject_pos":-1,"motif":"","motif_pos":-1,"best_pos":2,"similarity":0.318,"stretto":false,"stretto_voices":0,"combination":[]},{"voice":1,"pitch":73,"start":121.25,"duration":0.25,"velocity":127,"measure":61,"beat":3.5,"subject_pos":-1,"motif":"enigmatic_cell","motif_pos":2,"best_pos":2,"similarity":1.0,"stretto":false,"stretto_voices":0,"combination":[]},{"voice":1,"pitch":72,"start":121.5,"duration":0.25,"velocity":127,"measure":61,"beat":4.0,"subject_pos":-1,"motif":"","motif_pos":-1,"best_pos":3,"similarity":0.536,"stretto":false,"stretto_voices":0,"combination":[]},{"voice":2,"pitch":64,"start":121.5,"duration":0.5,"velocity":127,"measure":61,"beat":4.0,"subject_pos":-1,"motif":"","motif_pos":-1,"best_pos":1,"similarity":0.436,"stretto":false,"stretto_voices":0,"combination":[]},{"voice":1,"pitch":71,"start":121.75,"duration":0.25,"velocity":127,"measure":61,"beat":4.5,"subject_pos":-1,"motif":"","motif_pos":-1,"best_pos":4,"similarity":0.696,"stretto":false,"stretto_voices":0,"combination":[]},{"voice":1,"pitch":72,"start":122.0,"duration":1.25,"velocity":127,"measure":62,"beat":1.0,"subject_pos":-1,"motif":"","motif_pos":-1,"best_pos":5,"similarity":0.625,"stretto":false,"stretto_voices":0,"combination":[]},{"voice":2,"pitch":60,"start":122.0,"duration":1.0,"velocity":127,"measure":62,"beat":1.0,"subject_pos":-1,"motif":"","motif_pos":-1,"best_pos":2,"similarity":0.389,"stretto":false,"stretto_voices":0,"combination":[]},{"voice":3,"pitch":52,"start":122.0,"duration":1.0,"velocity":127,"measure":62,"beat":1.0,"subject_pos":-1,"motif":"","motif_pos":-1,"best_pos":5,"similarity":0.221,"stretto":false,"stretto_voices":0,"combination":[]},{"voice":0,"pitch":77,"start":122.25,"duration":0.25,"velocity":127,"measure":62,"beat":1.5,"subject_pos":-1,"motif":"","motif_pos":-1,"best_pos":6,"similarity":0.429,"stretto":false,"stretto_voices":0,"combination":[]},{"voice":0,"pitch":76,"start":122.5,"duration":0.25,"velocity":127,"measure":62,"beat":2.0,"subject_pos":-1,"motif":"","motif_pos":-1,"best_pos":3,"similarity":0.557,"stretto":false,"stretto_voices":0,"combination":[]},{"voice":0,"pitch":75,"start":122.75,"duration":0.25,"velocity":127,"measure":62,"beat":2.5,"subject_pos":-1,"motif":"","motif_pos":-1,"best_pos":4,"similarity":0.704,"stretto":false,"stretto_voices":0,"combination":[]},{"voice":0,"pitch":76,"start":123.0,"duration":1.25,"velocity":127,"measure":62,"beat":3.0,"subject_pos":-1,"motif":"","motif_pos":-1,"best_pos":5,"similarity":0.625,"stretto":false,"stretto_voices":0,"combination":[]},{"voice":3,"pitch":55,"start":123.0,"duration":1.0,"velocity":127,"measure":62,"beat":3.0,"subject_pos":-1,"motif":"","motif_pos":-1,"best_pos":5,"similarity":0.268,"stretto":false,"stretto_voices":0,"combination":[]},{"voice":1,"pitch":73,"start":123.25,"duration":0.25,"velocity":127,"measure":62,"beat":3.5,"subject_pos":-1,"motif":"","motif_pos":-1,"best_pos":6,"similarity":0.429,"stretto":false,"stretto_voices":0,"combination":[]},{"voice":1,"pitch":72,"start":123.5,"duration":0.25,"velocity":127,"measure":62,"beat":4.0,"subject_pos":-1,"motif":"","motif_pos":-1,"best_pos":3,"similarity":0.539,"stretto":false,"stretto_voices":0,"combination":[]},{"voice":2,"pitch":64,"start":123.5,"duration":0.5,"velocity":127,"measure":62,"beat":4.0,"subject_pos":-1,"motif":"","motif_pos":-1,"best_pos":1,"similarity":0.429,"stretto":false,"stretto_voices":0,"combination":[]},{"voice":1,"pitch":71,"start":123.75,"duration":0.25,"velocity":127,"measure":62,"beat":4.5,"subject_pos":-1,"motif":"","motif_pos":-1,"best_pos":4,"similarity":0.657,"stretto":false,"stretto_voices":0,"combination":[]},{"voice":1,"pitch":72,"start":124.0,"duration":1.75,"velocity":127,"measure":63,"beat":1.0,"subject_pos":-1,"motif":"","motif_pos":-1,"best_pos":5,"similarity":0.532,"stretto":false,"stretto_voices":0,"combination":[]},{"voice":2,"pitch":60,"start":124.0,"duration":1.0,"velocity":127,"measure":63,"beat":1.0,"subject_pos":-1,"motif":"","motif_pos":-1,"best_pos":2,"similarity":0.364,"stretto":false,"stretto_voices":0,"combination":[]},{"voice":3,"pitch":58,"start":124.0,"duration":1.0,"velocity":127,"measure":63,"beat":1.0,"subject_pos":-1,"motif":"","motif_pos":-1,"best_pos":1,"similarity":0.357,"stretto":false,"stretto_voices":0,"combination":[]},{"voice":0,"pitch":79,"start":124.25,"duration":0.25,"velocity":127,"measure":63,"beat":1.5,"subject_pos":-1,"motif":"","motif_pos":-1,"best_pos":6,"similarity":0.429,"stretto":false,"stretto_voices":0,"combination":[]},{"voice":0,"pitch":78,"start":124.5,"duration":0.25,"velocity":127,"measure":63,"beat":2.0,"subject_pos":-1,"motif":"","motif_pos":-1,"best_pos":4,"similarity":0.536,"stretto":false,"stretto_voices":0,"combination":[]},{"voice":0,"pitch":76,"start":124.75,"duration":0.25,"velocity":127,"measure":63,"beat":2.5,"subject_pos":-1,"motif":"","motif_pos":-1,"best_pos":5,"similarity":0.6,"stretto":false,"stretto_voices":0,"combination":[]},{"voice":0,"pitch":78,"start":125.0,"duration":0.25,"velocity":127,"measure":63,"beat":3.0,"subject_pos":-1,"motif":"","motif_pos":-1,"best_pos":6,"similarity":0.657,"stretto":false,"stretto_voices":0,"combination":[]},{"voice":3,"pitch":57,"start":125.0,"duration":0.5,"velocity":127,"measure":63,"beat":3.0,"subject_pos":-1,"motif":"","motif_pos":-1,"best_pos":2,"similarity":0.464,"stretto":false,"stretto_voices":0,"combination":[]},{"voice":0,"pitch":79,"start":125.25,"duration":0.25,"velocity":127,"measure":63,"beat":3.5,"subject_pos":-1,"motif":"","motif_pos":-1,"best_pos":5,"similarity":0.621,"stretto":false,"stretto_voices":0,"combination":[]},{"voice":0,"pitch":81,"start":125.5,"duration":0.5,"velocity":127,"measure":63,"beat":4.0,"subject_pos":-1,"motif":"","motif_pos":-1,"best_pos":6,"similarity":0.436,"stretto":false,"stretto_voices":0,"combination":[]},{"voice":2,"pitch":63,"start":125.5,"duration":0.5,"velocity":127,"measure":63,"beat":4.0,"subject_pos":-1,"motif":"","motif_pos":-1,"best_pos":3,"similarity":0.193,"stretto":false,"stretto_voices":0,"combination":[]},{"voice":3,"pitch":55,"start":125.5,"duration":0.5,"velocity":127,"measure":63,"beat":4.0,"subject_pos":-1,"motif":"","motif_pos":-1,"best_pos":3,"similarity":0.589,"stretto":false,"stretto_voices":0,"combination":[]},{"voice":1,"pitch":72,"start":125.75,"duration":0.5,"velocity":127,"measure":63,"beat":4.5,"subject_pos":-1,"motif":"","motif_pos":-1,"best_pos":2,"similarity":0.379,"stretto":false,"stretto_voices":0,"combination":[]},{"voice":0,"pitch":74,"start":126.0,"duration":1.5,"velocity":127,"measure":64,"beat":1.0,"subject_pos":-1,"motif":"","motif_pos":-1,"best_pos":6,"similarity":0.232,"stretto":false,"stretto_voices":0,"combination":[]},{"voice":2,"pitch":57,"start":126.0,"duration":1.0,"velocity":127,"measure":64,"beat":1.0,"subject_pos":-1,"motif":"","motif_pos":-1,"best_pos":0,"similarity":0.3,"stretto":false,"stretto_voices":0,"combination":[]},{"voice":3,"pitch":54,"start":126.0,"duration":1.25,"velocity":127,"measure":64,"beat":1.0,"subject_pos":-1,"motif":"","motif_pos":-1,"best_pos":4,"similarity":0.571,"stretto":false,"stretto_voices":0,"combination":[]},{"voice":1,"pitch":70,"start":126.25,"duration":0.25,"velocity":127,"measure":64,"beat":1.5,"subject_pos":-1,"motif":"","motif_pos":-1,"best_pos":3,"similarity":0.557,"stretto":false,"stretto_voices":0,"combination":[]},{"voice":1,"pitch":69,"start":126.5,"duration":0.25,"velocity":127,"measure":64,"beat":2.0,"subject_pos":-1,"motif":"","motif_pos":-1,"best_pos":4,"similarity":0.564,"stretto":false,"stretto_voices":0,"combination":[]},{"voice":1,"pitch":67,"start":126.75,"duration":0.25,"velocity":127,"measure":64,"beat":2.5,"subject_pos":-1,"motif":"","motif_pos":-1,"best_pos":5,"similarity":0.529,"stretto":false,"stretto_voices":0,"combination":[]},{"voice":1,"pitch":69,"start":127.0,"duration":1.25,"velocity":127,"measure":64,"beat":3.0,"subject_pos":-1,"motif":"","motif_pos":-1,"best_pos":3,"similarity":0.471,"stretto":false,"stretto_voices":0,"combination":[]},{"voice":3,"pitch":50,"start":127.25,"duration":0.25,"velocity":127,"measure":64,"beat":3.5,"subject_pos":-1,"motif":"","motif_pos":-1,"best_pos":5,"similarity":0.536,"stretto":false,"stretto_voices":0,"combination":[]},{"voice":0,"pitch":74,"start":127.5,"duration":0.5,"velocity":127,"measure":64,"beat":4.0,"subject_pos":-1,"motif":"","motif_pos":-1,"best_pos":1,"similarity":0.357,"stretto":false,"stretto_voices":0,"combination":[]},{"voice":3,"pitch":52,"start":127.5,"duration":0.25,"velocity":127,"measure":64,"beat":4.0,"subject_pos":-1,"motif":"","motif_pos":-1,"best_pos":5,"similarity":0.604,"stretto":false,"stretto_voices":0,"combination":[]},{"voice":3,"pitch":54,"start":127.75,"duration":0.25,"velocity":127,"measure":64,"beat":4.5,"subject_pos":-1,"motif":"enigmatic_cell","motif_pos":0,"best_pos":0,"similarity":1.0,"stretto":false,"stretto_voices":0,"combination":[]},{"voice":0,"pitch":70,"start":128.0,"duration":1.25,"velocity":127,"measure":65,"beat":1.0,"subject_pos":-1,"motif":"","motif_pos":-1,"best_pos":2,"similarity":0.446,"stretto":false,"stretto_voices":0,"combination":[]},{"voice":2,"pitch":62,"start":128.0,"duration":1.0,"velocity":127,"measure":65,"beat":1.0,"subject_pos":-1,"motif":"","motif_pos":-1,"best_pos":1,"similarity":0.314,"stretto":false,"stretto_voices":0,"combination":[]},{"voice":3,"pitch":55,"start":128.0,"duration":0.5,"velocity":127,"measure":65,"beat":1.0,"subject_pos":-1,"motif":"enigmatic_cell","motif_pos":1,"best_pos":1,"similarity":1.0,"stretto":false,"stretto_voices":0,"combination":[]},{"voice":1,"pitch":68,"start":128.25,"duration":0.25,"velocity":127,"measure":65,"beat":1.5,"subject_pos":-1,"motif":"","motif_pos":-1,"best_pos":4,"similarity":0.514,"stretto":false,"stretto_voices":0,"combination":[]},{"voice":1,"pitch":67,"start":128.5,"duration":0.25,"velocity":127,"measure":65,"beat":2.0,"subject_pos":-1,"motif":"","motif_pos":-1,"best_pos":3,"similarity":0.614,"stretto":false,"stretto_voices":0,"combination":[]},{"voice":3,"pitch":50,"start":128.5,"duration":0.5,"velocity":127,"measure":65,"beat":2.0,"subject_pos":-1,"motif":"enigmatic_cell","motif_pos":2,"best_pos":2,"similarity":1.0,"stretto":false,"stretto_voices":0,"combination":[]},{"voice":1,"pitch":66,"start":128.75,"duration":0.25,"velocity":127,"measure":65,"beat":2.5,"subject_pos":-1,"motif":"","motif_pos":-1,"best_pos":4,"similarity":0.732,"stretto":false,"stretto_voices":0,"combination":[]},{"voice":1,"pitch":67,"start":129.0,"duration":1.25,"velocity":127,"measure":65,"beat":3.0,"subject_pos":-1,"motif":"","motif_pos":-1,"best_pos":5,"similarity":0.625,"stretto":false,"stretto_voices":0,"combination":[]},{"voice":2,"pitch":55,"start":129.0,"duration":1.0,"velocity":127,"measure":65,"beat":3.0,"subject_pos":-1,"motif":"","motif_pos":-1,"best_pos":2,"similarity":0.189,"stretto":false,"stretto_voices":0,"combination":[]},{"voice":3,"pitch":46,"start":129.0,"duration":1.0,"velocity":127,"measure":65,"beat":3.0,"subject_pos":-1,"motif":"","motif_pos":-1,"best_pos":2,"similarity":0.336,"stretto":false,"stretto_voices":0,"combination":[]},{"voice":0,"pitch":75,"start":129.25,"duration":0.25,"velocity":127,"measure":65,"beat":3.5,"subject_pos":-1,"motif":"","motif_pos":-1,"best_pos":3,"similarity":0.5,"stretto":false,"stretto_voices":0,"combination":[]},{"voice":0,"pitch":74,"start":129.5,"duration":0.25,"velocity":127,"measure":65,"beat":4.0,"subject_pos":-1,"motif":"","motif_pos":-1,"best_pos":4,"similarity":0.571,"stretto":false,"stretto_voices":0,"combination":[]},{"voice":0,"pitch":73,"start":129.75,"duration":0.25,"velocity":127,"measure":65,"beat":4.5,"subject_pos":-1,"motif":"","motif_pos":-1,"best_pos":4,"similarity":0.696,"stretto":false,"stretto_voices":0,"combination":[]},{"voice":0,"pitch":74,"start":130.0,"duration":1.25,"velocity":127,"measure":66,"beat":1.0,"subject_pos":-1,"motif":"","motif_pos":-1,"best_pos":5,"similarity":0.625,"stretto":false,"stretto_voices":0,"combination":[]},{"voice":2,"pitch":58,"start":130.0,"duration":1.0,"velocity":127,"measure":66,"beat":1.0,"subject_pos":-1,"motif":"","motif_pos":-1,"best_pos":5,"similarity":0.179,"stretto":false,"stretto_voices":0,"combination":[]},{"voice":1,"pitch":68,"start":130.25,"duration":0.25,"velocity":127,"measure":66,"beat":1.5,"subject_pos":-1,"motif":"","motif_pos":-1,"best_pos":6,"similarity":0.429,"stretto":false,"stretto_voices":0,"combination":[]},{"voice":1,"pitch":67,"start":130.5,"duration":0.25,"velocity":127,"measure":66,"beat":2.0,"subject_pos":-1,"motif":"","motif_pos":-1,"best_pos":3,"similarity":0.557,"stretto":false,"stretto_voices":0,"combination":[]},{"voice":3,"pitch":50,"start":130.5,"duration":0.5,"velocity":127,"measure":66,"beat":2.0,"subject_pos":-1,"motif":"","motif_pos":-1,"best_pos":1,"similarity":0.5,"stretto":false,"stretto_voices":0,"combination":[]},{"voice":1,"pitch":66,"start":130.75,"duration":0.25,"velocity":127,"measure":66,"beat":2.5,"subject_pos":-1,"motif":"","motif_pos":-1,"best_pos":4,"similarity":0.757,"stretto":false,"stretto_voices":0,"combination":[]},{"voice":1,"pitch":67,"start":131.0,"duration":0.5,"velocity":127,"measure":66,"beat":3.0,"subject_pos":-1,"motif":"","motif_pos":-1,"best_pos":5,"similarity":0.732,"stretto":false,"stretto_voices":0,"combination":[]},{"voice":2,"pitch":62,"start":131.0,"duration":1.0,"velocity":127,"measure":66,"beat":3.0,"subject_pos":-1,"motif":"","motif_pos":-1,"best_pos":5,"similarity":0.229,"stretto":false,"stretto_voices":0,"combination":[]},{"voice":3,"pitch":46,"start":131.0,"duration":1.0,"velocity":127,"measure":66,"beat":3.0,"subject_pos":-1,"motif":"","motif_pos":-1,"best_pos":2,"similarity":0.507,"stretto":false,"stretto_voices":0,"combination":[]},{"voice":0,"pitch":75,"start":131.25,"duration":0.25,"velocity":127,"measure":66,"beat":3.5,"subject_pos":-1,"motif":"","motif_pos":-1,"best_pos":6,"similarity":0.429,"stretto":false,"stretto_voices":0,"combination":[]},{"voice":0,"pitch":74,"start":131.5,"duration":0.25,"velocity":127,"measure":66,"beat":4.0,"subject_pos":-1,"motif":"","motif_pos":-1,"best_pos":3,"similarity":0.593,"stretto":false,"stretto_voices":0,"combination":[]},{"voice":1,"pitch":68,"start":131.5,"duration":0.75,"velocity":127,"measure":66,"beat":4.0,"subject_pos":-1,"motif":"","motif_pos":-1,"best_pos":6,"similarity":0.643,"stretto":false,"stretto_voices":0,"combination":[]},{"voice":0,"pitch":73,"start":131.75,"duration":0.25,"velocity":127,"measure":66,"beat":4.5,"subject_pos":-1,"motif":"","motif_pos":-1,"best_pos":4,"similarity":0.757,"stretto":false,"stretto_voices":0,"combination":[]},{"voice":0,"pitch":74,"start":132.0,"duration":1.0,"velocity":127,"measure":67,"beat":1.0,"subject_pos":-1,"motif":"","motif_pos":-1,"best_pos":5,"similarity":0.732,"stretto":false,"stretto_voices":0,"combination":[]},{"voice":2,"pitch":65,"start":132.0,"duration":1.0,"velocity":127,"measure":67,"beat":1.0,"subject_pos":-1,"motif":"","motif_pos":-1,"best_pos":1,"similarity":0.357,"stretto":false,"stretto_voices":0,"combination":[]},{"voice":1,"pitch":69,"start":132.25,"duration":0.25,"velocity":127,"measure":67,"beat":1.5,"subject_pos":-1,"motif":"","motif_pos":-1,"best_pos":3,"similarity":0.55,"stretto":false,"stretto_voices":0,"combination":[]},{"voice":3,"pitch":48,"start":132.25,"duration":0.25,"velocity":127,"measure":67,"beat":1.5,"subject_pos":-1,"motif":"","motif_pos":-1,"best_pos":3,"similarity":0.486,"stretto":false,"stretto_voices":0,"combination":[]},{"voice":1,"pitch":68,"start":132.5,"duration":0.25,"velocity":127,"measure":67,"beat":2.0,"subject_pos":-1,"motif":"","motif_pos":-1,"best_pos":4,"similarity":0.754,"stretto":false,"stretto_voices":0,"combination":[]},{"voice":3,"pitch":47,"start":132.5,"duration":0.25,"velocity":127,"measure":67,"beat":2.0,"subject_pos":-1,"motif":"","motif_pos":-1,"best_pos":2,"similarity":0.443,"stretto":false,"stretto_voices":0,"combination":[]},{"voice":1,"pitch":69,"start":132.75,"duration":0.25,"velocity":127,"measure":67,"beat":2.5,"subject_pos":-1,"motif":"","motif_pos":-1,"best_pos":5,"similarity":0.757,"stretto":false,"stretto_voices":0,"combination":[]},{"voice":3,"pitch":45,"start":132.75,"duration":0.25,"velocity":127,"measure":67,"beat":2.5,"subject_pos":-1,"motif":"","motif_pos":-1,"best_pos":3,"similarity":0.579,"stretto":false,"stretto_voices":0,"combination":[]},{"voice":1,"pitch":71,"start":133.0,"duration":1.5,"velocity":127,"measure":67,"beat":3.0,"subject_pos":-1,"motif":"","motif_pos":-1,"best_pos":6,"similarity":0.571,"stretto":false,"stretto_voices":0,"combination":[]},{"voice":2,"pitch":64,"start":133.0,"duration":0.5,"velocity":127,"measure":67,"beat":3.0,"subject_pos":-1,"motif":"","motif_pos":-1,"best_pos":2,"similarity":0.464,"stretto":false,"stretto_voices":0,"combination":[]},{"voice":3,"pitch":44,"start":133.0,"duration":0.25,"velocity":127,"measure":67,"beat":3.0,"subject_pos":-1,"motif":"","motif_pos":-1,"best_pos":4,"similarity":0.571,"stretto":false,"stretto_voices":0,"combination":[]},{"voice":3,"pitch":40,"start":133.25,"duration":0.25,"velocity":127,"measure":67,"beat":3.5,"subject_pos":-1,"motif":"","motif_pos":-1,"best_pos":5,"similarity":0.536,"stretto":false,"stretto_voices":0,"combination":[]},{"voice":2,"pitch":62,"start":133.5,"duration":0.5,"velocity":127,"measure":67,"beat":4.0,"subject_pos":-1,"motif":"","motif_pos":-1,"best_pos":3,"similarity":0.589,"stretto":false,"stretto_voices":0,"combination":[]},{"voice":3,"pitch":42,"start":133.5,"duration":0.25,"velocity":127,"measure":67,"beat":4.0,"subject_pos":-1,"motif":"","motif_pos":-1,"best_pos":5,"similarity":0.604,"stretto":false,"stretto_voices":0,"combination":[]},{"voice":3,"pitch":44,"start":133.75,"duration":0.25,"velocity":127,"measure":67,"beat":4.5,"subject_pos":-1,"motif":"","motif_pos":-1,"best_pos":6,"similarity":0.65,"stretto":false,"stretto_voices":0,"combination":[]},{"voice":2,"pitch":61,"start":134.0,"duration":1.25,"velocity":127,"measure":68,"beat":1.0,"subject_pos":-1,"motif":"","motif_pos":-1,"best_pos":4,"similarity":0.571,"stretto":false,"stretto_voices":0,"combination":[]},{"voice":3,"pitch":45,"start":134.0,"duration":0.25,"velocity":127,"measure":68,"beat":1.0,"subject_pos":-1,"motif":"","motif_pos":-1,"best_pos":7,"similarity":0.464,"stretto":false,"stretto_voices":0,"combination":[]},{"voice":3,"pitch":57,"start":134.25,"duration":0.25,"velocity":127,"measure":68,"beat":1.5,"subject_pos":-1,"motif":"","motif_pos":-1,"best_pos":1,"similarity":0.429,"stretto":false,"stretto_voices":0,"combination":[]},{"voice":1,"pitch":70,"start":134.5,"duration":0.5,"velocity":127,"measure":68,"beat":2.0,"subject_pos":-1,"motif":"","motif_pos":-1,"best_pos":2,"similarity":0.486,"stretto":false,"stretto_voices":0,"combination":[]},{"voice":3,"pitch":55,"start":134.5,"duration":0.25,"velocity":127,"measure":68,"beat":2.0,"subject_pos":-1,"motif":"","motif_pos":-1,"best_pos":2,"similarity":0.643,"stretto":false,"stretto_voices":0,"combination":[]},{"voice":3,"pitch":53,"start":134.75,"duration":0.25,"velocity":127,"measure":68,"beat":2.5,"subject_pos":-1,"motif":"","motif_pos":-1,"best_pos":3,"similarity":0.786,"stretto":false,"stretto_voices":0,"combination":[]},{"voice":1,"pitch":67,"start":135.0,"duration":0.5,"velocity":127,"measure":68,"beat":3.0,"subject_pos":-1,"motif":"","motif_pos":-1,"best_pos":3,"similarity":0.45,"stretto":false,"stretto_voices":0,"combination":[]},{"voice":3,"pitch":52,"start":135.0,"duration":0.25,"velocity":127,"measure":68,"beat":3.0,"subject_pos":-1,"motif":"","motif_pos":-1,"best_pos":4,"similarity":0.864,"stretto":false,"stretto_voices":0,"combination":[]},{"voice":2,"pitch":57,"start":135.25,"duration":0.25,"velocity":127,"measure":68,"beat":3.5,"subject_pos":-1,"motif":"","motif_pos":-1,"best_pos":5,"similarity":0.536,"stretto":false,"stretto_voices":0,"combination":[]},{"voice":3,"pitch":53,"start":135.25,"duration":0.25,"velocity":127,"measure":68,"beat":3.5,"subject_pos":-1,"motif":"","motif_pos":-1,"best_pos":5,"similarity":0.764,"stretto":false,"stretto_voices":0,"combination":[]},{"voice":1,"pitch":64,"start":135.5,"duration":0.5,"velocity":127,"measure":68,"beat":4.0,"subject_pos":-1,"motif":"","motif_pos":-1,"best_pos":3,"similarity":0.357,"stretto":false,"stretto_voices":0,"combination":[]},{"voice":2,"pitch":59,"start":135.5,"duration":0.25,"velocity":127,"measure":68,"beat":4.0,"subject_pos":-1,"motif":"","motif_pos":-1,"best_pos":5,"similarity":0.604,"stretto":false,"stretto_voices":0,"combination":[]},{"voice":3,"pitch":55,"start":135.5,"duration":0.25,"velocity":127,"measure":68,"beat":4.0,"subject_pos":-1,"motif":"","motif_pos":-1,"best_pos":6,"similarity":0.529,"stretto":false,"stretto_voices":0,"combination":[]},{"voice":2,"pitch":61,"start":135.75,"duration":0.25,"velocity":127,"measure":68,"beat":4.5,"subject_pos":-1,"motif":"enigmatic_cell","motif_pos":0,"best_pos":0,"similarity":1.0,"stretto":false,"stretto_voices":0,"combination":[]},{"voice":3,"pitch":52,"start":135.75,"duration":0.25,"velocity":127,"measure":68,"beat":4.5,"subject_pos":-1,"motif":"","motif_pos":-1,"best_pos":4,"similarity":0.514,"stretto":false,"stretto_voices":0,"combination":[]},{"voice":1,"pitch":69,"start":136.0,"duration":1.5,"velocity":127,"measure":69,"beat":1.0,"subject_pos":-1,"motif":"","motif_pos":-1,"best_pos":1,"similarity":0.314,"stretto":false,"stretto_voices":0,"combination":[]},{"voice":2,"pitch":62,"start":136.0,"duration":0.5,"velocity":127,"measure":69,"beat":1.0,"subject_pos":-1,"motif":"enigmatic_cell","motif_pos":1,"best_pos":1,"similarity":1.0,"stretto":false,"stretto_voices":0,"combination":[]},{"voice":3,"pitch":53,"start":136.0,"duration":0.25,"velocity":127,"measure":69,"beat":1.0,"subject_pos":-1,"motif":"","motif_pos":-1,"best_pos":5,"similarity":0.621,"stretto":false,"stretto_voices":0,"combination":[]},{"voice":3,"pitch":55,"start":136.25,"duration":0.25,"velocity":127,"measure":69,"beat":1.5,"subject_pos":-1,"motif":"","motif_pos":-1,"best_pos":6,"similarity":0.475,"stretto":false,"stretto_voices":0,"combination":[]},{"voice":2,"pitch":57,"start":136.5,"duration":0.5,"velocity":127,"measure":69,"beat":2.0,"subject_pos":-1,"motif":"enigmatic_cell","motif_pos":2,"best_pos":2,"similarity":1.0,"stretto":false,"stretto_voices":0,"combination":[]},{"voice":3,"pitch":53,"start":136.5,"duration":0.25,"velocity":127,"measure":69,"beat":2.0,"subject_pos":-1,"motif":"","motif_pos":-1,"best_pos":3,"similarity":0.471,"stretto":false,"stretto_voices":0,"combination":[]},{"voice":3,"pitch":52,"start":136.75,"duration":0.25,"velocity":127,"measure":69,"beat":2.5,"subject_pos":-1,"motif":"","motif_pos":-1,"best_pos":4,"similarity":0.414,"stretto":false,"stretto_voices":0,"combination":[]},{"voice":2,"pitch":65,"start":137.0,"duration":1.5,"velocity":127,"measure":69,"beat":3.0,"subject_pos":-1,"motif":"","motif_pos":-1,"best_pos":1,"similarity":0.161,"stretto":false,"stretto_voices":0,"combination":[]},{"voice":3,"pitch":50,"start":137.0,"duration":0.25,"velocity":127,"measure":69,"beat":3.0,"subject_pos":-1,"motif":"","motif_pos":-1,"best_pos":2,"similarity":0.518,"stretto":false,"stretto_voices":0,"combination":[]},{"voice":3,"pitch":48,"start":137.25,"duration":0.25,"velocity":127,"measure":69,"beat":3.5,"subject_pos":-1,"motif":"","motif_pos":-1,"best_pos":2,"similarity":0.579,"stretto":false,"stretto_voices":0,"combination":[]},{"voice":1,"pitch":62,"start":137.5,"duration":0.5,"velocity":127,"measure":69,"beat":4.0,"subject_pos":-1,"motif":"","motif_pos":-1,"best_pos":2,"similarity":0.171,"stretto":false,"stretto_voices":0,"combination":[]},{"voice":3,"pitch":46,"start":137.5,"duration":0.25,"velocity":127,"measure":69,"beat":4.0,"subject_pos":-1,"motif":"","motif_pos":-1,"best_pos":3,"similarity":0.657,"stretto":false,"stretto_voices":0,"combination":[]},{"voice":3,"pitch":45,"start":137.75,"duration":0.25,"velocity":127,"measure":69,"beat":4.5,"subject_pos":-1,"motif":"","motif_pos":-1,"best_pos":4,"similarity":0.671,"stretto":false,"stretto_voices":0,"combination":[]},{"voice":1,"pitch":70,"start":138.0,"duration":1.5,"velocity":127,"measure":70,"beat":1.0,"subject_pos":-1,"motif":"","motif_pos":-1,"best_pos":1,"similarity":0.161,"stretto":false,"stretto_voices":0,"combination":[]},{"voice":3,"pitch":43,"start":138.0,"duration":0.25,"velocity":127,"measure":70,"beat":1.0,"subject_pos":-1,"motif":"","motif_pos":-1,"best_pos":5,"similarity":0.636,"stretto":false,"stretto_voices":0,"combination":[]},{"voice":3,"pitch":45,"start":138.25,"duration":0.25,"velocity":127,"measure":70,"beat":1.5,"subject_pos":-1,"motif":"","motif_pos":-1,"best_pos":6,"similarity":0.657,"stretto":false,"stretto_voices":0,"combination":[]},{"voice":2,"pitch":55,"start":138.5,"duration":0.5,"velocity":127,"measure":70,"beat":2.0,"subject_pos":-1,"motif":"","motif_pos":-1,"best_pos":5,"similarity":0.161,"stretto":false,"stretto_voices":0,"combination":[]},{"voice":3,"pitch":46,"start":138.5,"duration":0.25,"velocity":127,"measure":70,"beat":2.0,"subject_pos":-1,"motif":"","motif_pos":-1,"best_pos":7,"similarity":0.436,"stretto":false,"stretto_voices":0,"combination":[]},{"voice":3,"pitch":43,"start":138.75,"duration":0.25,"velocity":127,"measure":70,"beat":2.5,"subject_pos":-1,"motif":"","motif_pos":-1,"best_pos":3,"similarity":0.45,"stretto":false,"stretto_voices":0,"combination":[]},{"voice":2,"pitch":64,"start":139.0,"duration":1.5,"velocity":127,"measure":70,"beat":3.0,"subject_pos":-1,"motif":"","motif_pos":-1,"best_pos":4,"similarity":0.304,"stretto":false,"stretto_voices":0,"combination":[]},{"voice":3,"pitch":48,"start":139.0,"duration":0.25,"velocity":127,"measure":70,"beat":3.0,"subject_pos":-1,"motif":"","motif_pos":-1,"best_pos":4,"similarity":0.436,"stretto":false,"stretto_voices":0,"combination":[]},{"voice":3,"pitch":50,"start":139.25,"duration":0.25,"velocity":127,"measure":70,"beat":3.5,"subject_pos":-1,"motif":"","motif_pos":-1,"best_pos":5,"similarity":0.5,"stretto":false,"stretto_voices":0,"combination":[]},{"voice":1,"pitch":60,"start":139.5,"duration":0.5,"velocity":127,"measure":70,"beat":4.0,"subject_pos":-1,"motif":"","motif_pos":-1,"best_pos":0,"similarity":0.157,"stretto":false,"stretto_voices":0,"combination":[]},{"voice":3,"pitch":52,"start":139.5,"duration":0.25,"velocity":127,"measure":70,"beat":4.0,"subject_pos":-1,"motif":"","motif_pos":-1,"best_pos":6,"similarity":0.357,"stretto":false,"stretto_voices":0,"combination":[]},{"voice":3,"pitch":48,"start":139.75,"duration":0.25,"velocity":127,"measure":70,"beat":4.5,"subject_pos":-1,"motif":"","motif_pos":-1,"best_pos":2,"similarity":0.35,"stretto":false,"stretto_voices":0,"combination":[]},{"voice":1,"pitch":69,"start":140.0,"duration":1.5,"velocity":127,"measure":71,"beat":1.0,"subject_pos":-1,"motif":"","motif_pos":-1,"best_pos":4,"similarity":0.304,"stretto":false,"stretto_voices":0,"combination":[]},{"voice":3,"pitch":53,"start":140.0,"duration":0.25,"velocity":127,"measure":71,"beat":1.0,"subject_pos":-1,"motif":"","motif_pos":-1,"best_pos":5,"similarity":0.4,"stretto":false,"stretto_voices":0,"combination":[]},{"voice":3,"pitch":55,"start":140.25,"duration":0.25,"velocity":127,"measure":71,"beat":1.5,"subject_pos":-1,"motif":"","motif_pos":-1,"best_pos":5,"similarity":0.464,"stretto":false,"stretto_voices":0,"combination":[]},{"voice":2,"pitch":65,"start":140.5,"duration":0.5,"velocity":127,"measure":71,"beat":2.0,"subject_pos":-1,"motif":"","motif_pos":-1,"best_pos":2,"similarity":0.382,"stretto":false,"stretto_voices":0,"combination":[]},{"voice":3,"pitch":57,"start":140.5,"duration":0.25,"velocity":127,"measure":71,"beat":2.0,"subject_pos":-1,"motif":"","motif_pos":-1,"best_pos":1,"similarity":0.386,"stretto":false,"stretto_voices":0,"combination":[]},{"voice":3,"pitch":53,"start":140.75,"duration":0.25,"velocity":127,"measure":71,"beat":2.5,"subject_pos":-1,"motif":"","motif_pos":-1,"best_pos":2,"similarity":0.45,"stretto":false,"stretto_voices":0,"combination":[]},{"voice":2,"pitch":62,"start":141.0,"duration":1.25,"velocity":127,"measure":71,"beat":3.0,"subject_pos":-1,"motif":"","motif_pos":-1,"best_pos":3,"similarity":0.389,"stretto":false,"stretto_voices":0,"combination":[]},{"voice":3,"pitch":58,"start":141.0,"duration":0.25,"velocity":127,"measure":71,"beat":3.0,"subject_pos":-1,"motif":"","motif_pos":-1,"best_pos":1,"similarity":0.536,"stretto":false,"stretto_voices":0,"combination":[]},{"voice":3,"pitch":57,"start":141.25,"duration":0.25,"velocity":127,"measure":71,"beat":3.5,"subject_pos":-1,"motif":"","motif_pos":-1,"best_pos":2,"similarity":0.518,"stretto":false,"stretto_voices":0,"combination":[]},{"voice":1,"pitch":70,"start":141.5,"duration":0.5,"velocity":127,"measure":71,"beat":4.0,"subject_pos":-1,"motif":"","motif_pos":-1,"best_pos":2,"similarity":0.382,"stretto":false,"stretto_voices":0,"combination":[]},{"voice":3,"pitch":55,"start":141.5,"duration":0.25,"velocity":127,"measure":71,"beat":4.0,"subject_pos":-1,"motif":"","motif_pos":-1,"best_pos":2,"similarity":0.579,"stretto":false,"stretto_voices":0,"combination":[]},{"voice":3,"pitch":53,"start":141.75,"duration":0.25,"velocity":127,"measure":71,"beat":4.5,"subject_pos":-1,"motif":"","motif_pos":-1,"best_pos":3,"similarity":0.593,"stretto":false,"stretto_voices":0,"combination":[]},{"voice":1,"pitch":67,"start":142.0,"duration":1.25,"velocity":127,"measure":72,"beat":1.0,"subject_pos":-1,"motif":"","motif_pos":-1,"best_pos":3,"similarity":0.389,"stretto":false,"stretto_voices":0,"combination":[]},{"voice":3,"pitch":52,"start":142.0,"duration":0.25,"velocity":127,"measure":72,"beat":1.0,"subject_pos":-1,"motif":"","motif_pos":-1,"best_pos":4,"similarity":0.479,"stretto":false,"stretto_voices":0,"combination":[]},{"voice":2,"pitch":65,"start":142.25,"duration":0.25,"velocity":127,"measure":72,"beat":1.5,"subject_pos":-1,"motif":"","motif_pos":-1,"best_pos":3,"similarity":0.386,"stretto":false,"stretto_voices":0,"combination":[]},{"voice":3,"pitch":50,"start":142.25,"duration":0.25,"velocity":127,"measure":72,"beat":1.5,"subject_pos":-1,"motif":"","motif_pos":-1,"best_pos":3,"similarity":0.521,"stretto":false,"stretto_voices":0,"combination":[]},{"voice":2,"pitch":64,"start":142.5,"duration":0.25,"velocity":127,"measure":72,"beat":2.0,"subject_pos":-1,"motif":"","motif_pos":-1,"best_pos":2,"similarity":0.5,"stretto":false,"stretto_voices":0,"combination":[]},{"voice":3,"pitch":49,"start":142.5,"duration":0.25,"velocity":127,"measure":72,"beat":2.0,"subject_pos":-1,"motif":"","motif_pos":-1,"best_pos":4,"similarity":0.443,"stretto":false,"stretto_voices":0,"combination":[]},{"voice":2,"pitch":62,"start":142.75,"duration":0.25,"velocity":127,"measure":72,"beat":2.5,"subject_pos":-1,"motif":"","motif_pos":-1,"best_pos":3,"similarity":0.596,"stretto":false,"stretto_voices":0,"combination":[]},{"voice":3,"pitch":47,"start":142.75,"duration":0.25,"velocity":127,"measure":72,"beat":2.5,"subject_pos":-1,"motif":"","motif_pos":-1,"best_pos":2,"similarity":0.507,"stretto":false,"stretto_voices":0,"combination":[]},{"voice":2,"pitch":61,"start":143.0,"duration":1.25,"velocity":127,"measure":72,"beat":3.0,"subject_pos":-1,"motif":"","motif_pos":-1,"best_pos":4,"similarity":0.568,"stretto":false,"stretto_voices":0,"combination":[]},{"voice":3,"pitch":45,"start":143.0,"duration":0.25,"velocity":127,"measure":72,"beat":3.0,"subject_pos":-1,"motif":"","motif_pos":-1,"best_pos":2,"similarity":0.518,"stretto":false,"stretto_voices":0,"combination":[]},{"voice":1,"pitch":70,"start":143.25,"duration":0.25,"velocity":127,"measure":72,"beat":3.5,"subject_pos":-1,"motif":"","motif_pos":-1,"best_pos":3,"similarity":0.45,"stretto":false,"stretto_voices":0,"combination":[]},{"voice":3,"pitch":43,"start":143.25,"duration":0.25,"velocity":127,"measure":72,"beat":3.5,"subject_pos":-1,"motif":"","motif_pos":-1,"best_pos":2,"similarity":0.579,"stretto":false,"stretto_voices":0,"combination":[]},{"voice":1,"pitch":69,"start":143.5,"duration":0.25,"velocity":127,"measure":72,"beat":4.0,"subject_pos":-1,"motif":"","motif_pos":-1,"best_pos":4,"similarity":0.493,"stretto":false,"stretto_voices":0,"combination":[]},{"voice":3,"pitch":41,"start":143.5,"duration":0.25,"velocity":127,"measure":72,"beat":4.0,"subject_pos":-1,"motif":"","motif_pos":-1,"best_pos":3,"similarity":0.586,"stretto":false,"stretto_voices":0,"combination":[]},{"voice":1,"pitch":67,"start":143.75,"duration":0.25,"velocity":127,"measure":72,"beat":4.5,"subject_pos":-1,"motif":"","motif_pos":-1,"best_pos":5,"similarity":0.457,"stretto":false,"stretto_voices":0,"combination":[]},{"voice":3,"pitch":40,"start":143.75,"duration":0.25,"velocity":127,"measure":72,"beat":4.5,"subject_pos":-1,"motif":"","motif_pos":-1,"best_pos":4,"similarity":0.457,"stretto":false,"stretto_voices":0,"combination":[]},{"voice":1,"pitch":69,"start":144.0,"duration":1.0,"velocity":127,"measure":73,"beat":1.0,"subject_pos":-1,"motif":"","motif_pos":-1,"best_pos":6,"similarity":0.371,"stretto":false,"stretto_voices":0,"combination":[]},{"voice":3,"pitch":38,"start":144.0,"duration":0.5,"velocity":127,"measure":73,"beat":1.0,"subject_pos":-1,"motif":"","motif_pos":-1,"best_pos":2,"similarity":0.307,"stretto":false,"stretto_voices":0,"combination":[]},{"voice":2,"pitch":63,"start":144.25,"duration":0.25,"velocity":127,"measure":73,"beat":1.5,"subject_pos":-1,"motif":"","motif_pos":-1,"best_pos":3,"similarity":0.429,"stretto":false,"stretto_voices":0,"combination":[]},{"voice":2,"pitch":62,"start":144.5,"duration":0.25,"velocity":127,"measure":73,"beat":2.0,"subject_pos":-1,"motif":"","motif_pos":-1,"best_pos":3,"similarity":0.521,"stretto":false,"stretto_voices":0,"combination":[]},{"voice":3,"pitch":57,"start":144.5,"duration":0.5,"velocity":127,"measure":73,"beat":2.0,"subject_pos":-1,"motif":"","motif_pos":-1,"best_pos":1,"similarity":0.436,"stretto":false,"stretto_voices":0,"combination":[]},{"voice":2,"pitch":61,"start":144.75,"duration":0.25,"velocity":127,"measure":73,"beat":2.5,"subject_pos":-1,"motif":"","motif_pos":-1,"best_pos":4,"similarity":0.636,"stretto":false,"stretto_voices":0,"combination":[]},{"voice":1,"pitch":62,"start":145.0,"duration":1.0,"velocity":127,"measure":73,"beat":3.0,"subject_pos":-1,"motif":"","motif_pos":-1,"best_pos":5,"similarity":0.207,"stretto":false,"stretto_voices":0,"combination":[]},{"voice":2,"pitch":62,"start":145.0,"duration":0.25,"velocity":127,"measure":73,"beat":3.0,"subject_pos":-1,"motif":"head","motif_pos":0,"best_pos":0,"similarity":1.0,"stretto":false,"stretto_voices":0,"combination":[]},{"voice":3,"pitch":53,"start":145.0,"duration":0.5,"velocity":127,"measure":73,"beat":3.0,"subject_pos":-1,"motif":"","motif_pos":-1,"best_pos":2,"similarity":0.586,"stretto":false,"stretto_voices":0,"combination":[]},{"voice":2,"pitch":67,"start":145.25,"duration":0.25,"velocity":127,"measure":73,"beat":3.5,"subject_pos":-1,"motif":"head","motif_pos":1,"best_pos":1,"similarity":1.0,"stretto":false,"stretto_voices":0,"combination":[]},{"voice":2,"pitch":65,"start":145.5,"duration":0.25,"velocity":127,"measure":73,"beat":4.0,"subject_pos":-1,"motif":"head","motif_pos":2,"best_pos":2,"similarity":1.0,"stretto":false,"stretto_voices":0,"combination":[]},{"voice":3,"pitch":50,"start":145.5,"duration":0.5,"velocity":127,"measure":73,"beat":4.0,"subject_pos":-1,"motif":"","motif_pos":-1,"best_pos":3,"similarity":0.457,"stretto":false,"stretto_voices":0,"combination":[]},{"voice":2,"pitch":64,"start":145.75,"duration":0.25,"velocity":127,"measure":73,"beat":4.5,"subject_pos":-1,"motif":"head","motif_pos":3,"best_pos":3,"similarity":1.0,"stretto":false,"stretto_voices":0,"combination":[]},{"voice":1,"pitch":65,"start":146.0,"duration":1.0,"velocity":127,"measure":74,"beat":1.0,"subject_pos":-1,"motif":"","motif_pos":-1,"best_pos":5,"similarity":0.179,"stretto":false,"stretto_voices":0,"combination":[]},{"voice":2,"pitch":62,"start":146.0,"duration":0.25,"velocity":127,"measure":74,"beat":1.0,"subject_pos":-1,"motif":"head","motif_pos":4,"best_pos":4,"similarity":1.0,"stretto":false,"stretto_voices":0,"combination":[]},{"voice":2,"pitch":63,"start":146.25,"duration":0.25,"velocity":127,"measure":74,"beat":1.5,"subject_pos":-1,"motif":"","motif_pos":-1,"best_pos":3,"similarity":0.529,"stretto":false,"stretto_voices":0,"combination":[]},{"voice":2,"pitch":62,"start":146.5,"duration":0.25,"velocity":127,"measure":74,"beat":2.0,"subject_pos":-1,"motif":"","motif_pos":-1,"best_pos":3,"similarity":0.521,"stretto":false,"stretto_voices":0,"combination":[]},{"voice":3,"pitch":45,"start":146.5,"duration":0.5,"velocity":127,"measure":74,"beat":2.0,"subject_pos":-1,"motif":"","motif_pos":-1,"best_pos":1,"similarity":0.429,"stretto":false,"stretto_voices":0,"combination":[]},{"voice":2,"pitch":61,"start":146.75,"duration":0.25,"velocity":127,"measure":74,"beat":2.5,"subject_pos":-1,"motif":"","motif_pos":-1,"best_pos":4,"similarity":0.636,"stretto":false,"stretto_voices":0,"combination":[]},{"voice":1,"pitch":69,"start":147.0,"duration":1.0,"velocity":127,"measure":74,"beat":3.0,"subject_pos":-1,"motif":"","motif_pos":-1,"best_pos":5,"similarity":0.229,"stretto":false,"stretto_voices":0,"combination":[]},{"voice":2,"pitch":62,"start":147.0,"duration":0.25,"velocity":127,"measure":74,"beat":3.0,"subject_pos":-1,"motif":"","motif_pos":-1,"best_pos":5,"similarity":0.489,"stretto":false,"stretto_voices":0,"combination":[]},{"voice":3,"pitch":41,"start":147.0,"duration":0.5,"velocity":127,"measure":74,"beat":3.0,"subject_pos":-1,"motif":"","motif_pos":-1,"best_pos":2,"similarity":0.589,"stretto":false,"stretto_voices":0,"combination":[]},{"voice":2,"pitch":67,"start":147.25,"duration":0.25,"velocity":127,"measure":74,"beat":3.5,"subject_pos":-1,"motif":"","motif_pos":-1,"best_pos":1,"similarity":0.679,"stretto":false,"stretto_voices":0,"combination":[]},{"voice":2,"pitch":65,"start":147.5,"duration":0.25,"velocity":127,"measure":74,"beat":4.0,"subject_pos":-1,"motif":"","motif_pos":-1,"best_pos":2,"similarity":0.714,"stretto":false,"stretto_voices":0,"combination":[]},{"voice":3,"pitch":38,"start":147.5,"duration":0.5,"velocity":127,"measure":74,"beat":4.0,"subject_pos":-1,"motif":"","motif_pos":-1,"best_pos":3,"similarity":0.471,"stretto":false,"stretto_voices":0,"combination":[]},{"voice":2,"pitch":64,"start":147.75,"duration":0.25,"velocity":127,"measure":74,"beat":4.5,"subject_pos":-1,"motif":"","motif_pos":-1,"best_pos":3,"similarity":0.721,"stretto":false,"stretto_voices":0,"combination":[]},{"voice":1,"pitch":72,"start":148.0,"duration":1.0,"velocity":127,"measure":75,"beat":1.0,"subject_pos":-1,"motif":"","motif_pos":-1,"best_pos":1,"similarity":0.357,"stretto":false,"stretto_voices":0,"combination":[]},{"voice":2,"pitch":63,"start":148.0,"duration":0.25,"velocity":127,"measure":75,"beat":1.0,"subject_pos":-1,"motif":"","motif_pos":-1,"best_pos":4,"similarity":0.764,"stretto":false,"stretto_voices":0,"combination":[]},{"voice":2,"pitch":64,"start":148.25,"duration":0.25,"velocity":127,"measure":75,"beat":1.5,"subject_pos":-1,"motif":"","motif_pos":-1,"best_pos":5,"similarity":0.618,"stretto":false,"stretto_voices":0,"combination":[]},{"voice":3,"pitch":55,"start":148.25,"duration":0.25,"velocity":127,"measure":75,"beat":1.5,"subject_pos":-1,"motif":"","motif_pos":-1,"best_pos":3,"similarity":0.379,"stretto":false,"stretto_voices":0,"combination":[]},{"voice":2,"pitch":63,"start":148.5,"duration":0.25,"velocity":127,"measure":75,"beat":2.0,"subject_pos":-1,"motif":"","motif_pos":-1,"best_pos":4,"similarity":0.771,"stretto":false,"stretto_voices":0,"combination":[]},{"voice":3,"pitch":54,"start":148.5,"duration":0.25,"velocity":127,"measure":75,"beat":2.0,"subject_pos":-1,"motif":"","motif_pos":-1,"best_pos":2,"similarity":0.436,"stretto":false,"stretto_voices":0,"combination":[]},{"voice":2,"pitch":64,"start":148.75,"duration":0.25,"velocity":127,"measure":75,"beat":2.5,"subject_pos":-1,"motif":"","motif_pos":-1,"best_pos":5,"similarity":0.736,"stretto":false,"stretto_voices":0,"combination":[]},{"voice":3,"pitch":52,"start":148.75,"duration":0.25,"velocity":127,"measure":75,"beat":2.5,"subject_pos":-1,"motif":"","motif_pos":-1,"best_pos":3,"similarity":0.586,"stretto":false,"stretto_voices":0,"combination":[]},{"voice":1,"pitch":71,"start":149.0,"duration":0.5,"velocity":127,"measure":75,"beat":3.0,"subject_pos":-1,"motif":"","motif_pos":-1,"best_pos":2,"similarity":0.464,"stretto":false,"stretto_voices":0,"combination":[]},{"voice":2,"pitch":66,"start":149.0,"duration":0.25,"velocity":127,"measure":75,"beat":3.0,"subject_pos":-1,"motif":"","motif_pos":-1,"best_pos":6,"similarity":0.529,"stretto":false,"stretto_voices":0,"combination":[]},{"voice":3,"pitch":51,"start":149.0,"duration":0.25,"velocity":127,"measure":75,"beat":3.0,"subject_pos":-1,"motif":"","motif_pos":-1,"best_pos":4,"similarity":0.564,"stretto":false,"stretto_voices":0,"combination":[]},{"voice":2,"pitch":64,"start":149.25,"duration":0.25,"velocity":127,"measure":75,"beat":3.5,"subject_pos":-1,"motif":"","motif_pos":-1,"best_pos":5,"similarity":0.35,"stretto":false,"stretto_voices":0,"combination":[]},{"voice":3,"pitch":49,"start":149.25,"duration":0.25,"velocity":127,"measure":75,"beat":3.5,"subject_pos":-1,"motif":"","motif_pos":-1,"best_pos":5,"similarity":0.493,"stretto":false,"stretto_voices":0,"combination":[]},{"voice":1,"pitch":69,"start":149.5,"duration":0.5,"velocity":127,"measure":75,"beat":4.0,"subject_pos":-1,"motif":"","motif_pos":-1,"best_pos":3,"similarity":0.589,"stretto":false,"stretto_voices":0,"combination":[]},{"voice":2,"pitch":66,"start":149.5,"duration":0.25,"velocity":127,"measure":75,"beat":4.0,"subject_pos":-1,"motif":"","motif_pos":-1,"best_pos":2,"similarity":0.4,"stretto":false,"stretto_voices":0,"combination":[]},{"voice":3,"pitch":51,"start":149.5,"duration":0.25,"velocity":127,"measure":75,"beat":4.0,"subject_pos":-1,"motif":"","motif_pos":-1,"best_pos":6,"similarity":0.371,"stretto":false,"stretto_voices":0,"combination":[]},{"voice":2,"pitch":63,"start":149.75,"duration":0.25,"velocity":127,"measure":75,"beat":4.5,"subject_pos":-1,"motif":"","motif_pos":-1,"best_pos":3,"similarity":0.479,"stretto":false,"stretto_voices":0,"combination":[]},{"voice":3,"pitch":47,"start":149.75,"duration":0.25,"velocity":127,"measure":75,"beat":4.5,"subject_pos":-1,"motif":"","motif_pos":-1,"best_pos":2,"similarity":0.3,"stretto":false,"stretto_voices":0,"combination":[]},{"voice":1,"pitch":68,"start":150.0,"duration":1.25,"velocity":127,"measure":76,"beat":1.0,"subject_pos":-1,"motif":"","motif_pos":-1,"best_pos":4,"similarity":0.571,"stretto":false,"stretto_voices":0,"combination":[]},{"voice":2,"pitch":59,"start":150.0,"duration":0.25,"velocity":127,"measure":76,"beat":1.0,"subject_pos":-1,"motif":"","motif_pos":-1,"best_pos":4,"similarity":0.55,"stretto":false,"stretto_voices":0,"combination":[]},{"voice":3,"pitch":52,"start":150.0,"duration":0.5,"velocity":127,"measure":76,"beat":1.0,"subject_pos":-1,"motif":"","motif_pos":-1,"best_pos":1,"similarity":0.293,"stretto":false,"stretto_voices":0,"combination":[]},{"voice":2,"pitch":60,"start":150.25,"duration":0.25,"velocity":127,"measure":76,"beat":1.5,"subject_pos":-1,"motif":"","motif_pos":-1,"best_pos":3,"similarity":0.671,"stretto":false,"stretto_voices":0,"combination":[]},{"voice":2,"pitch":59,"start":150.5,"duration":0.25,"velocity":127,"measure":76,"beat":2.0,"subject_pos":-1,"motif":"","motif_pos":-1,"best_pos":4,"similarity":0.807,"stretto":false,"stretto_voices":0,"combination":[]},{"voice":3,"pitch":40,"start":150.5,"duration":0.5,"velocity":127,"measure":76,"beat":2.0,"subject_pos":-1,"motif":"","motif_pos":-1,"best_pos":0,"similarity":0.321,"stretto":false,"stretto_voices":0,"combination":[]},{"voice":2,"pitch":60,"start":150.75,"duration":0.25,"velocity":127,"measure":76,"beat":2.5,"subject_pos":-1,"motif":"","motif_pos":-1,"best_pos":5,"similarity":0.736,"stretto":false,"stretto_voices":0,"combination":[]},{"voice":2,"pitch":62,"start":151.0,"duration":0.5,"velocity":127,"measure":76,"beat":3.0,"subject_pos":-1,"motif":"","motif_pos":-1,"best_pos":6,"similarity":0.529,"stretto":false,"stretto_voices":0,"combination":[]},{"voice":3,"pitch":47,"start":151.0,"duration":0.5,"velocity":127,"measure":76,"beat":3.0,"subject_pos":-1,"motif":"","motif_pos":-1,"best_pos":1,"similarity":0.357,"stretto":false,"stretto_voices":0,"combination":[]},{"voice":1,"pitch":64,"start":151.25,"duration":0.25,"velocity":127,"measure":76,"beat":3.5,"subject_pos":-1,"motif":"","motif_pos":-1,"best_pos":5,"similarity":0.536,"stretto":false,"stretto_voices":0,"combination":[]},{"voice":1,"pitch":66,"start":151.5,"duration":0.25,"velocity":127,"measure":76,"beat":4.0,"subject_pos":-1,"motif":"","motif_pos":-1,"best_pos":5,"similarity":0.604,"stretto":false,"stretto_voices":0,"combination":[]},{"voice":2,"pitch":59,"start":151.5,"duration":0.5,"velocity":127,"measure":76,"beat":4.0,"subject_pos":-1,"motif":"","motif_pos":-1,"best_pos":3,"similarity":0.45,"stretto":false,"stretto_voices":0,"combination":[]},{"voice":3,"pitch":50,"start":151.5,"duration":0.5,"velocity":127,"measure":76,"beat":4.0,"subject_pos":-1,"motif":"","motif_pos":-1,"best_pos":1,"similarity":0.375,"stretto":false,"stretto_voices":0,"combination":[]},{"voice":1,"pitch":68,"start":151.75,"duration":0.25,"velocity":127,"measure":76,"beat":4.5,"subject_pos":-1,"motif":"","motif_pos":-1,"best_pos":6,"similarity":0.65,"stretto":false,"stretto_voices":0,"combination":[]},{"voice":0,"pitch":76,"start":152.0,"duration":1.0,"velocity":127,"measure":77,"beat":1.0,"subject_pos":-1,"motif":"","motif_pos":-1,"best_pos":6,"similarity":0.5,"stretto":false,"stretto_voices":0,"combination":[]},{"voice":1,"pitch":69,"start":152.0,"duration":0.25,"velocity":127,"measure":77,"beat":1.0,"subject_pos":-1,"motif":"","motif_pos":-1,"best_pos":6,"similarity":0.507,"stretto":false,"stretto_voices":0,"combination":[]},{"voice":2,"pitch":57,"start":152.0,"duration":0.5,"velocity":127,"measure":77,"beat":1.0,"subject_pos":-1,"motif":"","motif_pos":-1,"best_pos":0,"similarity":0.429,"stretto":false,"stretto_voices":0,"combination":[]},{"voice":3,"pitch":48,"start":152.0,"duration":0.5,"velocity":127,"measure":77,"beat":1.0,"subject_pos":-1,"motif":"","motif_pos":-1,"best_pos":2,"similarity":0.375,"stretto":false,"stretto_voices":0,"combination":[]},{"voice":1,"pitch":70,"start":152.25,"duration":0.25,"velocity":127,"measure":77,"beat":1.5,"subject_pos":-1,"motif":"","motif_pos":-1,"best_pos":3,"similarity":0.407,"stretto":false,"stretto_voices":0,"combination":[]},{"voice":1,"pitch":69,"start":152.5,"duration":0.25,"velocity":127,"measure":77,"beat":2.0,"subject_pos":-1,"motif":"","motif_pos":-1,"best_pos":3,"similarity":0.529,"stretto":false,"stretto_voices":0,"combination":[]},{"voice":2,"pitch":64,"start":152.5,"duration":0.5,"velocity":127,"measure":77,"beat":2.0,"subject_pos":-1,"motif":"","motif_pos":-1,"best_pos":1,"similarity":0.579,"stretto":false,"stretto_voices":0,"combination":[]},{"voice":1,"pitch":68,"start":152.75,"duration":0.25,"velocity":127,"measure":77,"beat":2.5,"subject_pos":-1,"motif":"","motif_pos":-1,"best_pos":4,"similarity":0.636,"stretto":false,"stretto_voices":0,"combination":[]},{"voice":0,"pitch":69,"start":153.0,"duration":1.0,"velocity":127,"measure":77,"beat":3.0,"subject_pos":-1,"motif":"","motif_pos":-1,"best_pos":7,"similarity":0.214,"stretto":false,"stretto_voices":0,"combination":[]},{"voice":1,"pitch":69,"start":153.0,"duration":0.25,"velocity":127,"measure":77,"beat":3.0,"subject_pos":-1,"motif":"head","motif_pos":0,"best_pos":0,"similarity":1.0,"stretto":false,"stretto_voices":0,"combination":[]},{"voice":2,"pitch":60,"start":153.0,"duration":0.5,"velocity":127,"measure":77,"beat":3.0,"subject_pos":-1,"motif":"","motif_pos":-1,"best_pos":2,"similarity":0.45,"stretto":false,"stretto_voices":0,"combination":[]},{"voice":1,"pitch":74,"start":153.25,"duration":0.25,"velocity":127,"measure":77,"beat":3.5,"subject_pos":-1,"motif":"head","motif_pos":1,"best_pos":1,"similarity":1.0,"stretto":false,"stretto_voices":0,"combination":[]},{"voice":1,"pitch":72,"start":153.5,"duration":0.25,"velocity":127,"measure":77,"beat":4.0,"subject_pos":-1,"motif":"head","motif_pos":2,"best_pos":2,"similarity":1.0,"stretto":false,"stretto_voices":0,"combination":[]},{"voice":3,"pitch":57,"start":153.5,"duration":0.5,"velocity":127,"measure":77,"beat":4.0,"subject_pos":-1,"motif":"","motif_pos":-1,"best_pos":2,"similarity":0.307,"stretto":false,"stretto_voices":0,"combination":[]},{"voice":1,"pitch":71,"start":153.75,"duration":0.25,"velocity":127,"measure":77,"beat":4.5,"subject_pos":-1,"motif":"head","motif_pos":3,"best_pos":3,"similarity":1.0,"stretto":false,"stretto_voices":0,"combination":[]},{"voice":0,"pitch":72,"start":154.0,"duration":1.0,"velocity":127,"measure":78,"beat":1.0,"subject_pos":-1,"motif":"","motif_pos":-1,"best_pos":5,"similarity":0.179,"stretto":false,"stretto_voices":0,"combination":[]},{"voice":1,"pitch":69,"start":154.0,"duration":0.25,"velocity":127,"measure":78,"beat":1.0,"subject_pos":-1,"motif":"head","motif_pos":4,"best_pos":4,"similarity":1.0,"stretto":false,"stretto_voices":0,"combination":[]},{"voice":3,"pitch":54,"start":154.0,"duration":1.0,"velocity":127,"measure":78,"beat":1.0,"subject_pos":-1,"motif":"","motif_pos":-1,"best_pos":3,"similarity":0.329,"stretto":false,"stretto_voices":0,"combination":[]},{"voice":1,"pitch":70,"start":154.25,"duration":0.25,"velocity":127,"measure":78,"beat":1.5,"subject_pos":-1,"motif":"","motif_pos":-1,"best_pos":3,"similarity":0.529,"stretto":false,"stretto_voices":0,"combination":[]},{"voice":1,"pitch":69,"start":154.5,"duration":0.25,"velocity":127,"measure":78,"beat":2.0,"subject_pos":-1,"motif":"","motif_pos":-1,"best_pos":3,"similarity":0.521,"stretto":false,"stretto_voices":0,"combination":[]},{"voice":2,"pitch":64,"start":154.5,"duration":0.5,"velocity":127,"measure":78,"beat":2.0,"subject_pos":-1,"motif":"","motif_pos":-1,"best_pos":1,"similarity":0.429,"stretto":false,"stretto_voices":0,"combination":[]},{"voice":1,"pitch":68,"start":154.75,"duration":0.25,"velocity":127,"measure":78,"beat":2.5,"subject_pos":-1,"motif":"","motif_pos":-1,"best_pos":4,"similarity":0.636,"stretto":false,"stretto_voices":0,"combination":[]},{"voice":0,"pitch":76,"start":155.0,"duration":1.0,"velocity":127,"measure":78,"beat":3.0,"subject_pos":-1,"motif":"","motif_pos":-1,"best_pos":5,"similarity":0.229,"stretto":false,"stretto_voices":0,"combination":[]},{"voice":1,"pitch":69,"start":155.0,"duration":0.25,"velocity":127,"measure":78,"beat":3.0,"subject_pos":-1,"motif":"","motif_pos":-1,"best_pos":5,"similarity":0.489,"stretto":false,"stretto_voices":0,"combination":[]},{"voice":2,"pitch":60,"start":155.0,"duration":0.5,"velocity":127,"measure":78,"beat":3.0,"subject_pos":-1,"motif":"","motif_pos":-1,"best_pos":2,"similarity":0.357,"stretto":false,"stretto_voices":0,"combination":[]},{"voice":1,"pitch":74,"start":155.25,"duration":0.25,"velocity":127,"measure":78,"beat":3.5,"subject_pos":-1,"motif":"","motif_pos":-1,"best_pos":1,"similarity":0.679,"stretto":false,"stretto_voices":0,"combination":[]},{"voice":1,"pitch":72,"start":155.5,"duration":0.25,"velocity":127,"measure":78,"beat":4.0,"subject_pos":-1,"motif":"","motif_pos":-1,"best_pos":2,"similarity":0.643,"stretto":false,"stretto_voices":0,"combination":[]},{"voice":2,"pitch":64,"start":155.5,"duration":1.0,"velocity":127,"measure":78,"beat":4.0,"subject_pos":-1,"motif":"","motif_pos":-1,"best_pos":1,"similarity":0.304,"stretto":false,"stretto_voices":0,"combination":[]},{"voice":3,"pitch":57,"start":155.5,"duration":0.5,"velocity":127,"measure":78,"beat":4.0,"subject_pos":-1,"motif":"","motif_pos":-1,"best_pos":2,"similarity":0.307,"stretto":false,"stretto_voices":0,"combination":[]},{"voice":1,"pitch":71,"start":155.75,"duration":0.25,"velocity":127,"measure":78,"beat":4.5,"subject_pos":-1,"motif":"","motif_pos":-1,"best_pos":3,"similarity":0.579,"stretto":false,"stretto_voices":0,"combination":[]},{"voice":0,"pitch":79,"start":156.0,"duration":1.0,"velocity":127,"measure":79,"beat":1.0,"subject_pos":-1,"motif":"","motif_pos":-1,"best_pos":1,"similarity":0.357,"stretto":false,"stretto_voices":0,"combination":[]},{"voice":1,"pitch":70,"start":156.0,"duration":0.25,"velocity":127,"measure":79,"beat":1.0,"subject_pos":-1,"motif":"","motif_pos":-1,"best_pos":4,"similarity":0.414,"stretto":false,"stretto_voices":0,"combination":[]},{"voice":3,"pitch":54,"start":156.0,"duration":0.5,"velocity":127,"measure":79,"beat":1.0,"subject_pos":-1,"motif":"","motif_pos":-1,"best_pos":3,"similarity":0.329,"stretto":false,"stretto_voices":0,"combination":[]},{"voice":1,"pitch":78,"start":156.25,"duration":0.25,"velocity":127,"measure":79,"beat":1.5,"subject_pos":-1,"motif":"","motif_pos":-1,"best_pos":1,"similarity":0.571,"stretto":false,"stretto_voices":0,"combination":[]},{"voice":1,"pitch":76,"start":156.5,"duration":0.25,"velocity":127,"measure":79,"beat":2.0,"subject_pos":-1,"motif":"","motif_pos":-1,"best_pos":2,"similarity":0.65,"stretto":false,"stretto_voices":0,"combination":[]},{"voice":2,"pitch":58,"start":156.5,"duration":0.5,"velocity":127,"measure":79,"beat":2.0,"subject_pos":-1,"motif":"","motif_pos":-1,"best_pos":2,"similarity":0.357,"stretto":false,"stretto_voices":0,"combination":[]},{"voice":3,"pitch":49,"start":156.5,"duration":0.5,"velocity":127,"measure":79,"beat":2.0,"subject_pos":-1,"motif":"","motif_pos":-1,"best_pos":2,"similarity":0.45,"stretto":false,"stretto_voices":0,"combination":[]},{"voice":1,"pitch":74,"start":156.75,"duration":0.25,"velocity":127,"measure":79,"beat":2.5,"subject_pos":-1,"motif":"","motif_pos":-1,"best_pos":3,"similarity":0.629,"stretto":false,"stretto_voices":0,"combination":[]},{"voice":0,"pitch":78,"start":157.0,"duration":0.5,"velocity":127,"measure":79,"beat":3.0,"subject_pos":-1,"motif":"","motif_pos":-1,"best_pos":2,"similarity":0.464,"stretto":false,"stretto_voices":0,"combination":[]},{"voice":1,"pitch":73,"start":157.0,"duration":0.25,"velocity":127,"measure":79,"beat":3.0,"subject_pos":-1,"motif":"","motif_pos":-1,"best_pos":4,"similarity":0.489,"stretto":false,"stretto_voices":0,"combination":[]},{"voice":3,"pitch":46,"start":157.0,"duration":0.5,"velocity":127,"measure":79,"beat":3.0,"subject_pos":-1,"motif":"","motif_pos":-1,"best_pos":3,"similarity":0.4,"stretto":false,"stretto_voices":0,"combination":[]},{"voice":1,"pitch":71,"start":157.25,"duration":0.25,"velocity":127,"measure":79,"beat":3.5,"subject_pos":-1,"motif":"","motif_pos":-1,"best_pos":3,"similarity":0.536,"stretto":false,"stretto_voices":0,"combination":[]},{"voice":0,"pitch":76,"start":157.5,"duration":0.5,"velocity":127,"measure":79,"beat":4.0,"subject_pos":-1,"motif":"","motif_pos":-1,"best_pos":3,"similarity":0.589,"stretto":false,"stretto_voices":0,"combination":[]},{"voice":1,"pitch":70,"start":157.5,"duration":0.25,"velocity":127,"measure":79,"beat":4.0,"subject_pos":-1,"motif":"","motif_pos":-1,"best_pos":4,"similarity":0.536,"stretto":false,"stretto_voices":0,"combination":[]},{"voice":2,"pitch":54,"start":157.5,"duration":0.25,"velocity":127,"measure":79,"beat":4.0,"subject_pos":-1,"motif":"","motif_pos":-1,"best_pos":4,"similarity":0.507,"stretto":false,"stretto_voices":0,"combination":[]},{"voice":3,"pitch":42,"start":157.5,"duration":0.5,"velocity":127,"measure":79,"beat":4.0,"subject_pos":-1,"motif":"","motif_pos":-1,"best_pos":2,"similarity":0.304,"stretto":false,"stretto_voices":0,"combination":[]},{"voice":1,"pitch":73,"start":157.75,"duration":0.25,"velocity":127,"measure":79,"beat":4.5,"subject_pos":-1,"motif":"","motif_pos":-1,"best_pos":5,"similarity":0.393,"stretto":false,"stretto_voices":0,"combination":[]},{"voice":2,"pitch":55,"start":157.75,"duration":0.25,"velocity":127,"measure":79,"beat":4.5,"subject_pos":-1,"motif":"","motif_pos":-1,"best_pos":5,"similarity":0.664,"stretto":false,"stretto_voices":0,"combination":[]},{"voice":0,"pitch":75,"start":158.0,"duration":1.25,"velocity":127,"measure":80,"beat":1.0,"subject_pos":-1,"motif":"","motif_pos":-1,"best_pos":4,"similarity":0.571,"stretto":false,"stretto_voices":0,"combination":[]},{"voice":1,"pitch":66,"start":158.0,"duration":0.25,"velocity":127,"measure":80,"beat":1.0,"subject_pos":-1,"motif":"","motif_pos":-1,"best_pos":4,"similarity":0.407,"stretto":false,"stretto_voices":0,"combination":[]},{"voice":2,"pitch":57,"start":158.0,"duration":1.0,"velocity":127,"measure":80,"beat":1.0,"subject_pos":-1,"motif":"","motif_pos":-1,"best_pos":5,"similarity":0.643,"stretto":false,"stretto_voices":0,"combination":[]},{"voice":1,"pitch":67,"start":158.25,"duration":0.25,"velocity":127,"measure":80,"beat":1.5,"subject_pos":-1,"motif":"","motif_pos":-1,"best_pos":3,"similarity":0.561,"stretto":false,"stretto_voices":0,"combination":[]},{"voice":1,"pitch":66,"start":158.5,"duration":0.25,"velocity":127,"measure":80,"beat":2.0,"subject_pos":-1,"motif":"","motif_pos":-1,"best_pos":4,"similarity":0.743,"stretto":false,"stretto_voices":0,"combination":[]},{"voice":3,"pitch":47,"start":158.5,"duration":0.5,"velocity":127,"measure":80,"beat":2.0,"subject_pos":-1,"motif":"","motif_pos":-1,"best_pos":1,"similarity":0.357,"stretto":false,"stretto_voices":0,"combination":[]},{"voice":1,"pitch":67,"start":158.75,"duration":0.25,"velocity":127,"measure":80,"beat":2.5,"subject_pos":-1,"motif":"","motif_pos":-1,"best_pos":5,"similarity":0.736,"stretto":false,"stretto_voices":0,"combination":[]},{"voice":1,"pitch":69,"start":159.0,"duration":0.5,"velocity":127,"measure":80,"beat":3.0,"subject_pos":-1,"motif":"","motif_pos":-1,"best_pos":6,"similarity":0.529,"stretto":false,"stretto_voices":0,"combination":[]},{"voice":3,"pitch":54,"start":159.0,"duration":0.5,"velocity":127,"measure":80,"beat":3.0,"subject_pos":-1,"motif":"","motif_pos":-1,"best_pos":2,"similarity":0.357,"stretto":false,"stretto_voices":0,"combination":[]},{"voice":0,"pitch":71,"start":159.25,"duration":0.25,"velocity":127,"measure":80,"beat":3.5,"subject_pos":-1,"motif":"","motif_pos":-1,"best_pos":5,"similarity":0.536,"stretto":false,"stretto_voices":0,"combination":[]},{"voice":0,"pitch":73,"start":159.5,"duration":0.25,"velocity":127,"measure":80,"beat":4.0,"subject_pos":-1,"motif":"","motif_pos":-1,"best_pos":5,"similarity":0.604,"stretto":false,"stretto_voices":0,"combination":[]},{"voice":1,"pitch":66,"start":159.5,"duration":0.5,"velocity":127,"measure":80,"beat":4.0,"subject_pos":-1,"motif":"","motif_pos":-1,"best_pos":3,"similarity":0.457,"stretto":false,"stretto_voices":0,"combination":[]},{"voice":2,"pitch":59,"start":159.5,"duration":0.75,"velocity":127,"measure":80,"beat":4.0,"subject_pos":-1,"motif":"","motif_pos":-1,"best_pos":6,"similarity":0.661,"stretto":false,"stretto_voices":0,"combination":[]},{"voice":3,"pitch":57,"start":159.5,"duration":1.0,"velocity":127,"measure":80,"beat":4.0,"subject_pos":-1,"motif":"tail","motif_pos":3,"best_pos":3,"similarity":1.0,"stretto":false,"stretto_voices":0,"combination":[]},{"voice":0,"pitch":75,"start":159.75,"duration":0.25,"velocity":127,"measure":80,"beat":4.5,"subject_pos":-1,"motif":"","motif_pos":-1,"best_pos":6,"similarity":0.65,"stretto":false,"stretto_voices":0,"combination":[]},{"voice":0,"pitch":76,"start":160.0,"duration":1.25,"velocity":127,"measure":81,"beat":1.0,"subject_pos":-1,"motif":"","motif_pos":-1,"best_pos":5,"similarity":0.514,"stretto":false,"stretto_voices":0,"combination":[]},{"voice":1,"pitch":64,"start":160.0,"duration":0.5,"velocity":127,"measure":81,"beat":1.0,"subject_pos":-1,"motif":"","motif_pos":-1,"best_pos":0,"similarity":0.446,"stretto":false,"stretto_voices":0,"combination":[]},{"voice":2,"pitch":60,"start":160.25,"duration":0.25,"velocity":127,"measure":81,"beat":1.5,"subject_pos":-1,"motif":"","motif_pos":-1,"best_pos":5,"similarity":0.6,"stretto":false,"stretto_voices":0,"combination":[]},{"voice":1,"pitch":71,"start":160.5,"duration":0.5,"velocity":127,"measure":81,"beat":2.0,"subject_pos":-1,"motif":"","motif_pos":-1,"best_pos":1,"similarity":0.643,"stretto":false,"stretto_voices":0,"combination":[]},{"voice":2,"pitch":62,"start":160.5,"duration":0.25,"velocity":127,"measure":81,"beat":2.0,"subject_pos":-1,"motif":"","motif_pos":-1,"best_pos":6,"similarity":0.464,"stretto":false,"stretto_voices":0,"combination":[]},{"voice":3,"pitch":56,"start":160.5,"duration":0.5,"velocity":127,"measure":81,"beat":2.0,"subject_pos":-1,"motif":"tail","motif_pos":4,"best_pos":4,"similarity":1.0,"stretto":false,"stretto_voices":0,"combination":[]},{"voice":2,"pitch":59,"start":160.75,"duration":0.25,"velocity":127,"measure":81,"beat":2.5,"subject_pos":-1,"motif":"","motif_pos":-1,"best_pos":3,"similarity":0.557,"stretto":false,"stretto_voices":0,"combination":[]},{"voice":1,"pitch":69,"start":161.0,"duration":1.25,"velocity":127,"measure":81,"beat":3.0,"subject_pos":-1,"motif":"","motif_pos":-1,"best_pos":2,"similarity":0.589,"stretto":false,"stretto_voices":0,"combination":[]},{"voice":2,"pitch":60,"start":161.0,"duration":0.5,"velocity":127,"measure":81,"beat":3.0,"subject_pos":-1,"motif":"","motif_pos":-1,"best_pos":5,"similarity":0.607,"stretto":false,"stretto_voices":0,"combination":[]},{"voice":3,"pitch":57,"start":161.0,"duration":1.25,"velocity":127,"measure":81,"beat":3.0,"subject_pos":-1,"motif":"tail","motif_pos":5,"best_pos":5,"similarity":1.0,"stretto":false,"stretto_voices":0,"combination":[]},{"voice":0,"pitch":77,"start":161.25,"duration":0.25,"velocity":127,"measure":81,"beat":3.5,"subject_pos":-1,"motif":"","motif_pos":-1,"best_pos":5,"similarity":0.621,"stretto":false,"stretto_voices":0,"combination":[]},{"voice":0,"pitch":79,"start":161.5,"duration":0.25,"velocity":127,"measure":81,"beat":4.0,"subject_pos":-1,"motif":"","motif_pos":-1,"best_pos":6,"similarity":0.475,"stretto":false,"stretto_voices":0,"combination":[]},{"voice":2,"pitch":61,"start":161.5,"duration":0.5,"velocity":127,"measure":81,"beat":4.0,"subject_pos":-1,"motif":"","motif_pos":-1,"best_pos":6,"similarity":0.589,"stretto":false,"stretto_voices":0,"combination":[]},{"voice":0,"pitch":76,"start":161.75,"duration":0.25,"velocity":127,"measure":81,"beat":4.5,"subject_pos":-1,"motif":"","motif_pos":-1,"best_pos":3,"similarity":0.421,"stretto":false,"stretto_voices":0,"combination":[]},{"voice":0,"pitch":77,"start":162.0,"duration":0.25,"velocity":127,"measure":82,"beat":1.0,"subject_pos":-1,"motif":"","motif_pos":-1,"best_pos":3,"similarity":0.479,"stretto":false,"stretto_voices":0,"combination":[]},{"voice":2,"pitch":62,"start":162.0,"duration":1.5,"velocity":127,"measure":82,"beat":1.0,"subject_pos":-1,"motif":"","motif_pos":-1,"best_pos":7,"similarity":0.429,"stretto":false,"stretto_voices":0,"combination":[]},{"voice":0,"pitch":76,"start":162.25,"duration":0.25,"velocity":127,"measure":82,"beat":1.5,"subject_pos":-1,"motif":"","motif_pos":-1,"best_pos":4,"similarity":0.579,"stretto":false,"stretto_voices":0,"combination":[]},{"voice":1,"pitch":68,"start":162.25,"duration":0.25,"velocity":127,"measure":82,"beat":1.5,"subject_pos":-1,"motif":"","motif_pos":-1,"best_pos":4,"similarity":0.475,"stretto":false,"stretto_voices":0,"combination":[]},{"voice":3,"pitch":59,"start":162.25,"duration":0.25,"velocity":127,"measure":82,"beat":1.5,"subject_pos":-1,"motif":"tail","motif_pos":6,"best_pos":6,"similarity":1.0,"stretto":false,"stretto_voices":0,"combination":[]},{"voice":0,"pitch":74,"start":162.5,"duration":0.75,"velocity":127,"measure":82,"beat":2.0,"subject_pos":-1,"motif":"","motif_pos":-1,"best_pos":5,"similarity":0.607,"stretto":false,"stretto_voices":0,"combination":[]},{"voice":1,"pitch":66,"start":162.5,"duration":0.25,"velocity":127,"measure":82,"beat":2.0,"subject_pos":-1,"motif":"","motif_pos":-1,"best_pos":2,"similarity":0.5,"stretto":false,"stretto_voices":0,"combination":[]},{"voice":3,"pitch":60,"start":162.5,"duration":0.25,"velocity":127,"measure":82,"beat":2.0,"subject_pos":-1,"motif":"tail","motif_pos":7,"best_pos":7,"similarity":1.0,"stretto":false,"stretto_voices":0,"combination":[]},{"voice":1,"pitch":69,"start":162.75,"duration":0.25,"velocity":127,"measure":82,"beat":2.5,"subject_pos":-1,"motif":"","motif_pos":-1,"best_pos":3,"similarity":0.643,"stretto":false,"stretto_voices":0,"combination":[]},{"voice":3,"pitch":57,"start":162.75,"duration":0.25,"velocity":127,"measure":82,"beat":2.5,"subject_pos":-1,"motif":"","motif_pos":-1,"best_pos":5,"similarity":0.364,"stretto":false,"stretto_voices":0,"combination":[]},{"voice":1,"pitch":68,"start":163.0,"duration":0.5,"velocity":127,"measure":82,"beat":3.0,"subject_pos":-1,"motif":"","motif_pos":-1,"best_pos":4,"similarity":0.793,"stretto":false,"stretto_voices":0,"combination":[]},{"voice":3,"pitch":59,"start":163.0,"duration":0.5,"velocity":127,"measure":82,"beat":3.0,"subject_pos":-1,"motif":"","motif_pos":-1,"best_pos":1,"similarity":0.357,"stretto":false,"stretto_voices":0,"combination":[]},{"voice":0,"pitch":76,"start":163.25,"duration":0.25,"velocity":127,"measure":82,"beat":3.5,"subject_pos":-1,"motif":"","motif_pos":-1,"best_pos":6,"similarity":0.657,"stretto":false,"stretto_voices":0,"combination":[]},{"voice":0,"pitch":77,"start":163.5,"duration":0.25,"velocity":127,"measure":82,"beat":4.0,"subject_pos":-1,"motif":"","motif_pos":-1,"best_pos":7,"similarity":0.436,"stretto":false,"stretto_voices":0,"combination":[]},{"voice":1,"pitch":69,"start":163.5,"duration":0.5,"velocity":127,"measure":82,"beat":4.0,"subject_pos":-1,"motif":"","motif_pos":-1,"best_pos":5,"similarity":0.729,"stretto":false,"stretto_voices":0,"combination":[]},{"voice":2,"pitch":60,"start":163.5,"duration":0.5,"velocity":127,"measure":82,"beat":4.0,"subject_pos":-1,"motif":"enigmatic_cell","motif_pos":0,"best_pos":0,"similarity":1.0,"stretto":false,"stretto_voices":0,"combination":[]},{"voice":3,"pitch":57,"start":163.5,"duration":0.5,"velocity":127,"measure":82,"beat":4.0,"subject_pos":-1,"motif":"","motif_pos":-1,"best_pos":3,"similarity":0.479,"stretto":false,"stretto_voices":0,"combination":[]},{"voice":0,"pitch":74,"start":163.75,"duration":0.25,"velocity":127,"measure":82,"beat":4.5,"subject_pos":-1,"motif":"","motif_pos":-1,"best_pos":5,"similarity":0.364,"stretto":false,"stretto_voices":0,"combination":[]},{"voice":0,"pitch":76,"start":164.0,"duration":0.25,"velocity":127,"measure":83,"beat":1.0,"subject_pos":-1,"motif":"","motif_pos":-1,"best_pos":1,"similarity":0.393,"stretto":false,"stretto_voices":0,"combination":[]},{"voice":1,"pitch":71,"start":164.0,"duration":0.5,"velocity":127,"measure":83,"beat":1.0,"subject_pos":-1,"motif":"","motif_pos":-1,"best_pos":6,"similarity":0.529,"stretto":false,"stretto_voices":0,"combination":[]},{"voice":2,"pitch":59,"start":164.0,"duration":0.5,"velocity":127,"measure":83,"beat":1.0,"subject_pos":-1,"motif":"enigmatic_cell","motif_pos":1,"best_pos":1,"similarity":1.0,"stretto":false,"stretto_voices":0,"combination":[]},{"voice":3,"pitch":56,"start":164.0,"duration":0.5,"velocity":127,"measure":83,"beat":1.0,"subject_pos":-1,"motif":"","motif_pos":-1,"best_pos":4,"similarity":0.507,"stretto":false,"stretto_voices":0,"combination":[]},{"voice":0,"pitch":74,"start":164.25,"duration":0.25,"velocity":127,"measure":83,"beat":1.5,"subject_pos":-1,"motif":"","motif_pos":-1,"best_pos":2,"similarity":0.529,"stretto":false,"stretto_voices":0,"combination":[]},{"voice":0,"pitch":72,"start":164.5,"duration":0.75,"velocity":127,"measure":83,"beat":2.0,"subject_pos":-1,"motif":"","motif_pos":-1,"best_pos":5,"similarity":0.529,"stretto":false,"stretto_voices":0,"combination":[]},{"voice":1,"pitch":69,"start":164.5,"duration":0.25,"velocity":127,"measure":83,"beat":2.0,"subject_pos":-1,"motif":"","motif_pos":-1,"best_pos":3,"similarity":0.6,"stretto":false,"stretto_voices":0,"combination":[]},{"voice":2,"pitch":64,"start":164.5,"duration":0.5,"velocity":127,"measure":83,"beat":2.0,"subject_pos":-1,"motif":"enigmatic_cell","motif_pos":2,"best_pos":2,"similarity":1.0,"stretto":false,"stretto_voices":0,"combination":[]},{"voice":3,"pitch":52,"start":164.5,"duration":0.5,"velocity":127,"measure":83,"beat":2.0,"subject_pos":-1,"motif":"","motif_pos":-1,"best_pos":4,"similarity":0.564,"stretto":false,"stretto_voices":0,"combination":[]},{"voice":1,"pitch":68,"start":164.75,"duration":0.25,"velocity":127,"measure":83,"beat":2.5,"subject_pos":-1,"motif":"","motif_pos":-1,"best_pos":4,"similarity":0.682,"stretto":false,"stretto_voices":0,"combination":[]},{"voice":1,"pitch":69,"start":165.0,"duration":1.5,"velocity":127,"measure":83,"beat":3.0,"subject_pos":-1,"motif":"","motif_pos":-1,"best_pos":5,"similarity":0.529,"stretto":false,"stretto_voices":0,"combination":[]},{"voice":2,"pitch":60,"start":165.0,"duration":0.25,"velocity":127,"measure":83,"beat":3.0,"subject_pos":-1,"motif":"","motif_pos":-1,"best_pos":3,"similarity":0.571,"stretto":false,"stretto_voices":0,"combination":[]},{"voice":3,"pitch":53,"start":165.0,"duration":0.5,"velocity":127,"measure":83,"beat":3.0,"subject_pos":-1,"motif":"","motif_pos":-1,"best_pos":4,"similarity":0.607,"stretto":false,"stretto_voices":0,"combination":[]},{"voice":0,"pitch":74,"start":165.25,"duration":0.25,"velocity":127,"measure":83,"beat":3.5,"subject_pos":-1,"motif":"","motif_pos":-1,"best_pos":6,"similarity":0.621,"stretto":false,"stretto_voices":0,"combination":[]},{"voice":2,"pitch":59,"start":165.25,"duration":0.25,"velocity":127,"measure":83,"beat":3.5,"subject_pos":-1,"motif":"","motif_pos":-1,"best_pos":4,"similarity":0.65,"stretto":false,"stretto_voices":0,"combination":[]},{"voice":0,"pitch":75,"start":165.5,"duration":0.25,"velocity":127,"measure":83,"beat":4.0,"subject_pos":-1,"motif":"","motif_pos":-1,"best_pos":7,"similarity":0.436,"stretto":false,"stretto_voices":0,"combination":[]},{"voice":2,"pitch":60,"start":165.5,"duration":0.5,"velocity":127,"measure":83,"beat":4.0,"subject_pos":-1,"motif":"","motif_pos":-1,"best_pos":5,"similarity":0.479,"stretto":false,"stretto_voices":0,"combination":[]},{"voice":3,"pitch":54,"start":165.5,"duration":1.0,"velocity":127,"measure":83,"beat":4.0,"subject_pos":-1,"motif":"","motif_pos":-1,"best_pos":5,"similarity":0.643,"stretto":false,"stretto_voices":0,"combination":[]},{"voice":0,"pitch":72,"start":165.75,"duration":0.25,"velocity":127,"measure":83,"beat":4.5,"subject_pos":-1,"motif":"","motif_pos":-1,"best_pos":5,"similarity":0.364,"stretto":false,"stretto_voices":0,"combination":[]},{"voice":0,"pitch":74,"start":166.0,"duration":0.25,"velocity":127,"measure":84,"beat":1.0,"subject_pos":-1,"motif":"","motif_pos":-1,"best_pos":2,"similarity":0.386,"stretto":false,"stretto_voices":0,"combination":[]},{"voice":2,"pitch":57,"start":166.0,"duration":0.5,"velocity":127,"measure":84,"beat":1.0,"subject_pos":-1,"motif":"","motif_pos":-1,"best_pos":3,"similarity":0.514,"stretto":false,"stretto_voices":0,"combination":[]},{"voice":0,"pitch":72,"start":166.25,"duration":0.25,"velocity":127,"measure":84,"beat":1.5,"subject_pos":-1,"motif":"","motif_pos":-1,"best_pos":3,"similarity":0.657,"stretto":false,"stretto_voices":0,"combination":[]},{"voice":0,"pitch":71,"start":166.5,"duration":0.75,"velocity":127,"measure":84,"beat":2.0,"subject_pos":-1,"motif":"","motif_pos":-1,"best_pos":4,"similarity":0.8,"stretto":false,"stretto_voices":0,"combination":[]},{"voice":1,"pitch":67,"start":166.5,"duration":0.25,"velocity":127,"measure":84,"beat":2.0,"subject_pos":-1,"motif":"","motif_pos":-1,"best_pos":3,"similarity":0.593,"stretto":false,"stretto_voices":0,"combination":[]},{"voice":2,"pitch":62,"start":166.5,"duration":0.5,"velocity":127,"measure":84,"beat":2.0,"subject_pos":-1,"motif":"","motif_pos":-1,"best_pos":4,"similarity":0.579,"stretto":false,"stretto_voices":0,"combination":[]},{"voice":3,"pitch":55,"start":166.5,"duration":1.0,"velocity":127,"measure":84,"beat":2.0,"subject_pos":-1,"motif":"","motif_pos":-1,"best_pos":5,"similarity":0.614,"stretto":false,"stretto_voices":0,"combination":[]},{"voice":1,"pitch":66,"start":166.75,"duration":0.25,"velocity":127,"measure":84,"beat":2.5,"subject_pos":-1,"motif":"","motif_pos":-1,"best_pos":4,"similarity":0.736,"stretto":false,"stretto_voices":0,"combination":[]},{"voice":1,"pitch":67,"start":167.0,"duration":0.5,"velocity":127,"measure":84,"beat":3.0,"subject_pos":-1,"motif":"","motif_pos":-1,"best_pos":5,"similarity":0.636,"stretto":false,"stretto_voices":0,"combination":[]},{"voice":2,"pitch":63,"start":167.0,"duration":0.5,"velocity":127,"measure":84,"beat":3.0,"subject_pos":-1,"motif":"","motif_pos":-1,"best_pos":5,"similarity":0.643,"stretto":false,"stretto_voices":0,"combination":[]},{"voice":0,"pitch":72,"start":167.25,"duration":0.25,"velocity":127,"measure":84,"beat":3.5,"subject_pos":-1,"motif":"","motif_pos":-1,"best_pos":5,"similarity":0.764,"stretto":false,"stretto_voices":0,"combination":[]},{"voice":0,"pitch":74,"start":167.5,"duration":0.25,"velocity":127,"measure":84,"beat":4.0,"subject_pos":-1,"motif":"","motif_pos":-1,"best_pos":6,"similarity":0.529,"stretto":false,"stretto_voices":0,"combination":[]},{"voice":2,"pitch":65,"start":167.5,"duration":0.75,"velocity":127,"measure":84,"beat":4.0,"subject_pos":-1,"motif":"","motif_pos":-1,"best_pos":6,"similarity":0.429,"stretto":false,"stretto_voices":0,"combination":[]},{"voice":3,"pitch":56,"start":167.5,"duration":1.0,"velocity":127,"measure":84,"beat":4.0,"subject_pos":-1,"motif":"","motif_pos":-1,"best_pos":6,"similarity":0.589,"stretto":false,"stretto_voices":0,"combination":[]},{"voice":0,"pitch":71,"start":167.75,"duration":0.25,"velocity":127,"measure":84,"beat":4.5,"subject_pos":-1,"motif":"","motif_pos":-1,"best_pos":3,"similarity":0.45,"stretto":false,"stretto_voices":0,"combination":[]},{"voice":0,"pitch":72,"start":168.0,"duration":3.0,"velocity":127,"measure":85,"beat":1.0,"subject_pos":-1,"motif":"","motif_pos":-1,"best_pos":3,"similarity":0.554,"stretto":false,"stretto_voices":0,"combination":[]},{"voice":2,"pitch":59,"start":168.25,"duration":0.25,"velocity":127,"measure":85,"beat":1.5,"subject_pos":-1,"motif":"","motif_pos":-1,"best_pos":4,"similarity":0.507,"stretto":false,"stretto_voices":0,"combination":[]},{"voice":1,"pitch":66,"start":168.5,"duration":0.75,"velocity":127,"measure":85,"beat":2.0,"subject_pos":-1,"motif":"","motif_pos":-1,"best_pos":4,"similarity":0.771,"stretto":false,"stretto_voices":0,"combination":[]},{"voice":2,"pitch":60,"start":168.5,"duration":0.25,"velocity":127,"measure":85,"beat":2.0,"subject_pos":-1,"motif":"","motif_pos":-1,"best_pos":5,"similarity":0.714,"stretto":false,"stretto_voices":0,"combination":[]},{"voice":3,"pitch":57,"start":168.5,"duration":0.75,"velocity":127,"measure":85,"beat":2.0,"subject_pos":-1,"motif":"","motif_pos":-1,"best_pos":7,"similarity":0.429,"stretto":false,"stretto_voices":0,"combination":[]},{"voice":2,"pitch":62,"start":168.75,"duration":0.25,"velocity":127,"measure":85,"beat":2.5,"subject_pos":-1,"motif":"","motif_pos":-1,"best_pos":6,"similarity":0.714,"stretto":false,"stretto_voices":0,"combination":[]},{"voice":2,"pitch":63,"start":169.0,"duration":1.25,"velocity":127,"measure":85,"beat":3.0,"subject_pos":-1,"motif":"","motif_pos":-1,"best_pos":7,"similarity":0.5,"stretto":false,"stretto_voices":0,"combination":[]},{"voice":1,"pitch":67,"start":169.25,"duration":0.25,"velocity":127,"measure":85,"beat":3.5,"subject_pos":-1,"motif":"","motif_pos":-1,"best_pos":5,"similarity":0.736,"stretto":false,"stretto_voices":0,"combination":[]},{"voice":3,"pitch":55,"start":169.25,"duration":0.25,"velocity":127,"measure":85,"beat":3.5,"subject_pos":-1,"motif":"","motif_pos":-1,"best_pos":3,"similarity":0.493,"stretto":false,"stretto_voices":0,"combination":[]},{"voice":1,"pitch":69,"start":169.5,"duration":0.25,"velocity":127,"measure":85,"beat":4.0,"subject_pos":-1,"motif":"","motif_pos":-1,"best_pos":6,"similarity":0.529,"stretto":false,"stretto_voices":0,"combination":[]},{"voice":3,"pitch":54,"start":169.5,"duration":0.25,"velocity":127,"measure":85,"beat":4.0,"subject_pos":-1,"motif":"","motif_pos":-1,"best_pos":4,"similarity":0.45,"stretto":false,"stretto_voices":0,"combination":[]},{"voice":1,"pitch":66,"start":169.75,"duration":0.25,"velocity":127,"measure":85,"beat":4.5,"subject_pos":-1,"motif":"","motif_pos":-1,"best_pos":3,"similarity":0.429,"stretto":false,"stretto_voices":0,"combination":[]},{"voice":3,"pitch":57,"start":169.75,"duration":0.25,"velocity":127,"measure":85,"beat":4.5,"subject_pos":-1,"motif":"","motif_pos":-1,"best_pos":1,"similarity":0.357,"stretto":false,"stretto_voices":0,"combination":[]},{"voice":1,"pitch":67,"start":170.0,"duration":0.5,"velocity":127,"measure":86,"beat":1.0,"subject_pos":-1,"motif":"","motif_pos":-1,"best_pos":1,"similarity":0.386,"stretto":false,"stretto_voices":0,"combination":[]},{"voice":3,"pitch":55,"start":170.0,"duration":1.0,"velocity":127,"measure":86,"beat":1.0,"subject_pos":-1,"motif":"","motif_pos":-1,"best_pos":2,"similarity":0.357,"stretto":false,"stretto_voices":0,"combination":[]},{"voice":2,"pitch":62,"start":170.25,"duration":1.25,"velocity":127,"measure":86,"beat":1.5,"subject_pos":-1,"motif":"","motif_pos":-1,"best_pos":4,"similarity":0.379,"stretto":false,"stretto_voices":0,"combination":[]},{"voice":1,"pitch":65,"start":170.5,"duration":0.25,"velocity":127,"measure":86,"beat":2.0,"subject_pos":-1,"motif":"","motif_pos":-1,"best_pos":2,"similarity":0.45,"stretto":false,"stretto_voices":0,"combination":[]},{"voice":1,"pitch":68,"start":170.75,"duration":0.25,"velocity":127,"measure":86,"beat":2.5,"subject_pos":-1,"motif":"","motif_pos":-1,"best_pos":3,"similarity":0.457,"stretto":false,"stretto_voices":0,"combination":[]},{"voice":0,"pitch":71,"start":171.0,"duration":1.0,"velocity":127,"measure":86,"beat":3.0,"subject_pos":-1,"motif":"","motif_pos":-1,"best_pos":4,"similarity":0.664,"stretto":false,"stretto_voices":0,"combination":[]},{"voice":1,"pitch":67,"start":171.0,"duration":0.25,"velocity":127,"measure":86,"beat":3.0,"subject_pos":-1,"motif":"","motif_pos":-1,"best_pos":2,"similarity":0.471,"stretto":false,"stretto_voices":0,"combination":[]},{"voice":3,"pitch":43,"start":171.0,"duration":1.0,"velocity":127,"measure":86,"beat":3.0,"subject_pos":-1,"motif":"","motif_pos":-1,"best_pos":0,"similarity":0.321,"stretto":false,"stretto_voices":0,"combination":[]},{"voice":1,"pitch":65,"start":171.25,"duration":0.25,"velocity":127,"measure":86,"beat":3.5,"subject_pos":-1,"motif":"","motif_pos":-1,"best_pos":3,"similarity":0.604,"stretto":false,"stretto_voices":0,"combination":[]},{"voice":1,"pitch":64,"start":171.5,"duration":0.25,"velocity":127,"measure":86,"beat":4.0,"subject_pos":-1,"motif":"","motif_pos":-1,"best_pos":4,"similarity":0.582,"stretto":false,"stretto_voices":0,"combination":[]},{"voice":2,"pitch":55,"start":171.5,"duration":0.75,"velocity":127,"measure":86,"beat":4.0,"subject_pos":-1,"motif":"","motif_pos":-1,"best_pos":3,"similarity":0.393,"stretto":false,"stretto_voices":0,"combination":[]},{"voice":1,"pitch":62,"start":171.75,"duration":0.25,"velocity":127,"measure":86,"beat":4.5,"subject_pos":-1,"motif":"","motif_pos":-1,"best_pos":5,"similarity":0.529,"stretto":false,"stretto_voices":0,"combination":[]},{"voice":0,"pitch":72,"start":172.0,"duration":1.0,"velocity":127,"measure":87,"beat":1.0,"subject_pos":-1,"motif":"","motif_pos":-1,"best_pos":5,"similarity":0.521,"stretto":false,"stretto_voices":0,"combination":[]},{"voice":1,"pitch":64,"start":172.0,"duration":0.5,"velocity":127,"measure":87,"beat":1.0,"subject_pos":-1,"motif":"","motif_pos":-1,"best_pos":6,"similarity":0.443,"stretto":false,"stretto_voices":0,"combination":[]},{"voice":3,"pitch":48,"start":172.0,"duration":1.0,"velocity":127,"measure":87,"beat":1.0,"subject_pos":-1,"motif":"","motif_pos":-1,"best_pos":4,"similarity":0.393,"stretto":false,"stretto_voices":0,"combination":[]},{"voice":2,"pitch":55,"start":172.25,"duration":0.25,"velocity":127,"measure":87,"beat":1.5,"subject_pos":-1,"motif":"","motif_pos":-1,"best_pos":4,"similarity":0.55,"stretto":false,"stretto_voices":0,"combination":[]},{"voice":1,"pitch":67,"start":172.5,"duration":0.5,"velocity":127,"measure":87,"beat":2.0,"subject_pos":-1,"motif":"","motif_pos":-1,"best_pos":2,"similarity":0.35,"stretto":false,"stretto_voices":0,"combination":[]},{"voice":2,"pitch":57,"start":172.5,"duration":0.25,"velocity":127,"measure":87,"beat":2.0,"subject_pos":-1,"motif":"","motif_pos":-1,"best_pos":5,"similarity":0.65,"stretto":false,"stretto_voices":0,"combination":[]},{"voice":2,"pitch":59,"start":172.75,"duration":0.25,"velocity":127,"measure":87,"beat":2.5,"subject_pos":-1,"motif":"","motif_pos":-1,"best_pos":6,"similarity":0.679,"stretto":false,"stretto_voices":0,"combination":[]},{"voice":1,"pitch":64,"start":173.0,"duration":0.5,"velocity":127,"measure":87,"beat":3.0,"subject_pos":-1,"motif":"","motif_pos":-1,"best_pos":3,"similarity":0.393,"stretto":false,"stretto_voices":0,"combination":[]},{"voice":2,"pitch":60,"start":173.0,"duration":0.5,"velocity":127,"measure":87,"beat":3.0,"subject_pos":-1,"motif":"","motif_pos":-1,"best_pos":7,"similarity":0.464,"stretto":false,"stretto_voices":0,"combination":[]},{"voice":3,"pitch":48,"start":173.25,"duration":0.25,"velocity":127,"measure":87,"beat":3.5,"subject_pos":-1,"motif":"","motif_pos":-1,"best_pos":4,"similarity":0.5,"stretto":false,"stretto_voices":0,"combination":[]},{"voice":0,"pitch":72,"start":173.5,"duration":0.5,"velocity":127,"measure":87,"beat":4.0,"subject_pos":-1,"motif":"","motif_pos":-1,"best_pos":2,"similarity":0.371,"stretto":false,"stretto_voices":0,"combination":[]},{"voice":1,"pitch":67,"start":173.5,"duration":0.75,"velocity":127,"measure":87,"beat":4.0,"subject_pos":-1,"motif":"","motif_pos":-1,"best_pos":1,"similarity":0.321,"stretto":false,"stretto_voices":0,"combination":[]},{"voice":3,"pitch":50,"start":173.5,"duration":0.25,"velocity":127,"measure":87,"beat":4.0,"subject_pos":-1,"motif":"","motif_pos":-1,"best_pos":5,"similarity":0.643,"stretto":false,"stretto_voices":0,"combination":[]},{"voice":3,"pitch":52,"start":173.75,"duration":0.25,"velocity":127,"measure":87,"beat":4.5,"subject_pos":-1,"motif":"","motif_pos":-1,"best_pos":6,"similarity":0.679,"stretto":false,"stretto_voices":0,"combination":[]},{"voice":0,"pitch":69,"start":174.0,"duration":1.0,"velocity":127,"measure":88,"beat":1.0,"subject_pos":-1,"motif":"","motif_pos":-1,"best_pos":3,"similarity":0.329,"stretto":false,"stretto_voices":0,"combination":[]},{"voice":3,"pitch":53,"start":174.0,"duration":1.0,"velocity":127,"measure":88,"beat":1.0,"subject_pos":-1,"motif":"","motif_pos":-1,"best_pos":5,"similarity":0.6,"stretto":false,"stretto_voices":0,"combination":[]},{"voice":1,"pitch":67,"start":174.25,"duration":0.25,"velocity":127,"measure":88,"beat":1.5,"subject_pos":-1,"motif":"","motif_pos":-1,"best_pos":2,"similarity":0.482,"stretto":false,"stretto_voices":0,"combination":[]},{"voice":1,"pitch":64,"start":174.5,"duration":0.25,"velocity":127,"measure":88,"beat":2.0,"subject_pos":-1,"motif":"","motif_pos":-1,"best_pos":3,"similarity":0.536,"stretto":false,"stretto_voices":0,"combination":[]},{"voice":2,"pitch":60,"start":174.5,"duration":0.5,"velocity":127,"measure":88,"beat":2.0,"subject_pos":-1,"motif":"","motif_pos":-1,"best_pos":2,"similarity":0.479,"stretto":false,"stretto_voices":0,"combination":[]},{"voice":1,"pitch":62,"start":174.75,"duration":0.25,"velocity":127,"measure":88,"beat":2.5,"subject_pos":-1,"motif":"","motif_pos":-1,"best_pos":4,"similarity":0.411,"stretto":false,"stretto_voices":0,"combination":[]},{"voice":1,"pitch":65,"start":175.0,"duration":0.5,"velocity":127,"measure":88,"beat":3.0,"subject_pos":-1,"motif":"","motif_pos":-1,"best_pos":0,"similarity":0.286,"stretto":false,"stretto_voices":0,"combination":[]},{"voice":2,"pitch":57,"start":175.0,"duration":1.0,"velocity":127,"measure":88,"beat":3.0,"subject_pos":-1,"motif":"","motif_pos":-1,"best_pos":3,"similarity":0.614,"stretto":false,"stretto_voices":0,"combination":[]},{"voice":3,"pitch":55,"start":175.25,"duration":0.25,"velocity":127,"measure":88,"beat":3.5,"subject_pos":-1,"motif":"","motif_pos":-1,"best_pos":6,"similarity":0.464,"stretto":false,"stretto_voices":0,"combination":[]},{"voice":0,"pitch":81,"start":175.5,"duration":0.5,"velocity":127,"measure":88,"beat":4.0,"subject_pos":-1,"motif":"","motif_pos":-1,"best_pos":1,"similarity":0.446,"stretto":false,"stretto_voices":0,"combination":[]},{"voice":3,"pitch":53,"start":175.5,"duration":0.25,"velocity":127,"measure":88,"beat":4.0,"subject_pos":-1,"motif":"","motif_pos":-1,"best_pos":3,"similarity":0.482,"stretto":false,"stretto_voices":0,"combination":[]},{"voice":3,"pitch":52,"start":175.75,"duration":0.25,"velocity":127,"measure":88,"beat":4.5,"subject_pos":-1,"motif":"","motif_pos":-1,"best_pos":3,"similarity":0.507,"stretto":false,"stretto_voices":0,"combination":[]},{"voice":0,"pitch":77,"start":176.0,"duration":1.0,"velocity":127,"measure":89,"beat":1.0,"subject_pos":-1,"motif":"","motif_pos":-1,"best_pos":2,"similarity":0.625,"stretto":false,"stretto_voices":0,"combination":[]},{"voice":3,"pitch":50,"start":176.0,"duration":1.0,"velocity":127,"measure":89,"beat":1.0,"subject_pos":-1,"motif":"","motif_pos":-1,"best_pos":4,"similarity":0.607,"stretto":false,"stretto_voices":0,"combination":[]},{"voice":2,"pitch":57,"start":176.25,"duration":0.25,"velocity":127,"measure":89,"beat":1.5,"subject_pos":-1,"motif":"","motif_pos":-1,"best_pos":4,"similarity":0.661,"stretto":false,"stretto_voices":0,"combination":[]},{"voice":1,"pitch":69,"start":176.5,"duration":0.5,"velocity":127,"measure":89,"beat":2.0,"subject_pos":-1,"motif":"","motif_pos":-1,"best_pos":1,"similarity":0.464,"stretto":false,"stretto_voices":0,"combination":[]},{"voice":2,"pitch":59,"start":176.5,"duration":0.25,"velocity":127,"measure":89,"beat":2.0,"subject_pos":-1,"motif":"","motif_pos":-1,"best_pos":5,"similarity":0.714,"stretto":false,"stretto_voices":0,"combination":[]},{"voice":2,"pitch":61,"start":176.75,"duration":0.25,"velocity":127,"measure":89,"beat":2.5,"subject_pos":-1,"motif":"","motif_pos":-1,"best_pos":6,"similarity":0.679,"stretto":false,"stretto_voices":0,"combination":[]},{"voice":1,"pitch":65,"start":177.0,"duration":0.5,"velocity":127,"measure":89,"beat":3.0,"subject_pos":-1,"motif":"","motif_pos":-1,"best_pos":2,"similarity":0.436,"stretto":false,"stretto_voices":0,"combination":[]},{"voice":2,"pitch":62,"start":177.0,"duration":0.5,"velocity":127,"measure":89,"beat":3.0,"subject_pos":-1,"motif":"","motif_pos":-1,"best_pos":7,"similarity":0.464,"stretto":false,"stretto_voices":0,"combination":[]},{"voice":3,"pitch":50,"start":177.25,"duration":0.25,"velocity":127,"measure":89,"beat":3.5,"subject_pos":-1,"motif":"","motif_pos":-1,"best_pos":5,"similarity":0.661,"stretto":false,"stretto_voices":0,"combination":[]},{"voice":0,"pitch":74,"start":177.5,"duration":0.5,"velocity":127,"measure":89,"beat":4.0,"subject_pos":-1,"motif":"","motif_pos":-1,"best_pos":3,"similarity":0.543,"stretto":false,"stretto_voices":0,"combination":[]},{"voice":1,"pitch":69,"start":177.5,"duration":0.75,"velocity":127,"measure":89,"beat":4.0,"subject_pos":-1,"motif":"","motif_pos":-1,"best_pos":1,"similarity":0.357,"stretto":false,"stretto_voices":0,"combination":[]},{"voice":3,"pitch":52,"start":177.5,"duration":0.25,"velocity":127,"measure":89,"beat":4.0,"subject_pos":-1,"motif":"","motif_pos":-1,"best_pos":6,"similarity":0.679,"stretto":false,"stretto_voices":0,"combination":[]},{"voice":3,"pitch":53,"start":177.75,"duration":0.25,"velocity":127,"measure":89,"beat":4.5,"subject_pos":-1,"motif":"","motif_pos":-1,"best_pos":5,"similarity":0.664,"stretto":false,"stretto_voices":0,"combination":[]},{"voice":0,"pitch":71,"start":178.0,"duration":1.0,"velocity":127,"measure":90,"beat":1.0,"subject_pos":-1,"motif":"","motif_pos":-1,"best_pos":3,"similarity":0.418,"stretto":false,"stretto_voices":0,"combination":[]},{"voice":3,"pitch":55,"start":178.0,"duration":1.0,"velocity":127,"measure":90,"beat":1.0,"subject_pos":-1,"motif":"","motif_pos":-1,"best_pos":6,"similarity":0.579,"stretto":false,"stretto_voices":0,"combination":[]},{"voice":1,"pitch":69,"start":178.25,"duration":0.25,"velocity":127,"measure":90,"beat":1.5,"subject_pos":-1,"motif":"","motif_pos":-1,"best_pos":2,"similarity":0.5,"stretto":false,"stretto_voices":0,"combination":[]},{"voice":1,"pitch":67,"start":178.5,"duration":0.25,"velocity":127,"measure":90,"beat":2.0,"subject_pos":-1,"motif":"","motif_pos":-1,"best_pos":3,"similarity":0.643,"stretto":false,"stretto_voices":0,"combination":[]},{"voice":2,"pitch":62,"start":178.5,"duration":0.5,"velocity":127,"measure":90,"beat":2.0,"subject_pos":-1,"motif":"","motif_pos":-1,"best_pos":2,"similarity":0.479,"stretto":false,"stretto_voices":0,"combination":[]},{"voice":1,"pitch":66,"start":178.75,"duration":0.25,"velocity":127,"measure":90,"beat":2.5,"subject_pos":-1,"motif":"","motif_pos":-1,"best_pos":4,"similarity":0.668,"stretto":false,"stretto_voices":0,"combination":[]},{"voice":1,"pitch":67,"start":179.0,"duration":1.0,"velocity":127,"measure":90,"beat":3.0,"subject_pos":-1,"motif":"","motif_pos":-1,"best_pos":5,"similarity":0.479,"stretto":false,"stretto_voices":0,"combination":[]},{"voice":2,"pitch":59,"start":179.0,"duration":1.0,"velocity":127,"measure":90,"beat":3.0,"subject_pos":-1,"motif":"","motif_pos":-1,"best_pos":3,"similarity":0.579,"stretto":false,"stretto_voices":0,"combination":[]},{"voice":3,"pitch":57,"start":179.25,"duration":0.25,"velocity":127,"measure":90,"beat":3.5,"subject_pos":-1,"motif":"","motif_pos":-1,"best_pos":1,"similarity":0.457,"stretto":false,"stretto_voices":0,"combination":[]},{"voice":0,"pitch":74,"start":179.5,"duration":0.5,"velocity":127,"measure":90,"beat":4.0,"subject_pos":-1,"motif":"","motif_pos":-1,"best_pos":0,"similarity":0.357,"stretto":false,"stretto_voices":0,"combination":[]},{"voice":3,"pitch":55,"start":179.5,"duration":0.25,"velocity":127,"measure":90,"beat":4.0,"subject_pos":-1,"motif":"","motif_pos":-1,"best_pos":2,"similarity":0.621,"stretto":false,"stretto_voices":0,"combination":[]},{"voice":3,"pitch":53,"start":179.75,"duration":0.25,"velocity":127,"measure":90,"beat":4.5,"subject_pos":-1,"motif":"","motif_pos":-1,"best_pos":3,"similarity":0.686,"stretto":false,"stretto_voices":0,"combination":[]},{"voice":0,"pitch":79,"start":180.0,"duration":3.25,"velocity":127,"measure":91,"beat":1.0,"subject_pos":-1,"motif":"","motif_pos":-1,"best_pos":1,"similarity":0.5,"stretto":false,"stretto_voices":0,"combination":[]},{"voice":3,"pitch":52,"start":180.0,"duration":1.0,"velocity":127,"measure":91,"beat":1.0,"subject_pos":-1,"motif":"","motif_pos":-1,"best_pos":4,"similarity":0.679,"stretto":false,"stretto_voices":0,"combination":[]},{"voice":2,"pitch":59,"start":180.25,"duration":0.25,"velocity":127,"measure":91,"beat":1.5,"subject_pos":-1,"motif":"","motif_pos":-1,"best_pos":5,"similarity":0.614,"stretto":false,"stretto_voices":0,"combination":[]},{"voice":1,"pitch":76,"start":180.5,"duration":0.5,"velocity":127,"measure":91,"beat":2.0,"subject_pos":-1,"motif":"","motif_pos":-1,"best_pos":2,"similarity":0.343,"stretto":false,"stretto_voices":0,"combination":[]},{"voice":2,"pitch":61,"start":180.5,"duration":0.25,"velocity":127,"measure":91,"beat":2.0,"subject_pos":-1,"motif":"","motif_pos":-1,"best_pos":6,"similarity":0.661,"stretto":false,"stretto_voices":0,"combination":[]},{"voice":2,"pitch":62,"start":180.75,"duration":0.25,"velocity":127,"measure":91,"beat":2.5,"subject_pos":-1,"motif":"","motif_pos":-1,"best_pos":5,"similarity":0.593,"stretto":false,"stretto_voices":0,"combination":[]},{"voice":1,"pitch":73,"start":181.0,"duration":0.5,"velocity":127,"measure":91,"beat":3.0,"subject_pos":-1,"motif":"","motif_pos":-1,"best_pos":3,"similarity":0.45,"stretto":false,"stretto_voices":0,"combination":[]},{"voice":2,"pitch":64,"start":181.0,"duration":0.5,"velocity":127,"measure":91,"beat":3.0,"subject_pos":-1,"motif":"","motif_pos":-1,"best_pos":6,"similarity":0.436,"stretto":false,"stretto_voices":0,"combination":[]},{"voice":3,"pitch":52,"start":181.25,"duration":0.25,"velocity":127,"measure":91,"beat":3.5,"subject_pos":-1,"motif":"","motif_pos":-1,"best_pos":4,"similarity":0.714,"stretto":false,"stretto_voices":0,"combination":[]},{"voice":1,"pitch":74,"start":181.5,"duration":0.75,"velocity":127,"measure":91,"beat":4.0,"subject_pos":-1,"motif":"","motif_pos":-1,"best_pos":4,"similarity":0.457,"stretto":false,"stretto_voices":0,"combination":[]},{"voice":2,"pitch":70,"start":181.5,"duration":0.5,"velocity":127,"measure":91,"beat":4.0,"subject_pos":-1,"motif":"","motif_pos":-1,"best_pos":1,"similarity":0.293,"stretto":false,"stretto_voices":0,"combination":[]},{"voice":3,"pitch":53,"start":181.5,"duration":0.25,"velocity":127,"measure":91,"beat":4.0,"subject_pos":-1,"motif":"","motif_pos":-1,"best_pos":5,"similarity":0.732,"stretto":false,"stretto_voices":0,"combination":[]},{"voice":3,"pitch":55,"start":181.75,"duration":0.25,"velocity":127,"measure":91,"beat":4.5,"subject_pos":-1,"motif":"","motif_pos":-1,"best_pos":6,"similarity":0.607,"stretto":false,"stretto_voices":0,"combination":[]},{"voice":2,"pitch":64,"start":182.0,"duration":0.25,"velocity":127,"measure":92,"beat":1.0,"subject_pos":-1,"motif":"","motif_pos":-1,"best_pos":2,"similarity":0.307,"stretto":false,"stretto_voices":0,"combination":[]},{"voice":3,"pitch":57,"start":182.0,"duration":1.0,"velocity":127,"measure":92,"beat":1.0,"subject_pos":-1,"motif":"","motif_pos":-1,"best_pos":6,"similarity":0.518,"stretto":false,"stretto_voices":0,"combination":[]},{"voice":1,"pitch":71,"start":182.25,"duration":0.25,"velocity":127,"measure":92,"beat":1.5,"subject_pos":-1,"motif":"","motif_pos":-1,"best_pos":5,"similarity":0.564,"stretto":false,"stretto_voices":0,"combination":[]},{"voice":2,"pitch":62,"start":182.25,"duration":0.25,"velocity":127,"measure":92,"beat":1.5,"subject_pos":-1,"motif":"","motif_pos":-1,"best_pos":5,"similarity":0.329,"stretto":false,"stretto_voices":0,"combination":[]},{"voice":1,"pitch":73,"start":182.5,"duration":0.25,"velocity":127,"measure":92,"beat":2.0,"subject_pos":-1,"motif":"","motif_pos":-1,"best_pos":4,"similarity":0.643,"stretto":false,"stretto_voices":0,"combination":[]},{"voice":2,"pitch":64,"start":182.5,"duration":0.5,"velocity":127,"measure":92,"beat":2.0,"subject_pos":-1,"motif":"","motif_pos":-1,"best_pos":2,"similarity":0.329,"stretto":false,"stretto_voices":0,"combination":[]},{"voice":1,"pitch":74,"start":182.75,"duration":0.25,"velocity":127,"measure":92,"beat":2.5,"subject_pos":-1,"motif":"","motif_pos":-1,"best_pos":5,"similarity":0.729,"stretto":false,"stretto_voices":0,"combination":[]},{"voice":1,"pitch":76,"start":183.0,"duration":1.25,"velocity":127,"measure":92,"beat":3.0,"subject_pos":-1,"motif":"","motif_pos":-1,"best_pos":6,"similarity":0.579,"stretto":false,"stretto_voices":0,"combination":[]},{"voice":2,"pitch":61,"start":183.0,"duration":1.0,"velocity":127,"measure":92,"beat":3.0,"subject_pos":-1,"motif":"","motif_pos":-1,"best_pos":1,"similarity":0.357,"stretto":false,"stretto_voices":0,"combination":[]},{"voice":0,"pitch":79,"start":183.25,"duration":0.25,"velocity":127,"measure":92,"beat":3.5,"subject_pos":-1,"motif":"","motif_pos":-1,"best_pos":2,"similarity":0.571,"stretto":false,"stretto_voices":0,"combination":[]},{"voice":0,"pitch":77,"start":183.5,"duration":0.25,"velocity":127,"measure":92,"beat":4.0,"subject_pos":-1,"motif":"","motif_pos":-1,"best_pos":3,"similarity":0.75,"stretto":false,"stretto_voices":0,"combination":[]},{"voice":3,"pitch":57,"start":183.5,"duration":0.5,"velocity":127,"measure":92,"beat":4.0,"subject_pos":-1,"motif":"","motif_pos":-1,"best_pos":7,"similarity":0.321,"stretto":false,"stretto_voices":0,"combination":[]},{"voice":0,"pitch":76,"start":183.75,"duration":0.25,"velocity":127,"measure":92,"beat":4.5,"subject_pos":-1,"motif":"","motif_pos":-1,"best_pos":4,"similarity":0.839,"stretto":false,"stretto_voices":0,"combination":[]},{"voice":0,"pitch":77,"start":184.0,"duration":1.0,"velocity":127,"measure":93,"beat":1.0,"subject_pos":-1,"motif":"","motif_pos":-1,"best_pos":5,"similarity":0.821,"stretto":false,"stretto_voices":0,"combination":[]},{"voice":3,"pitch":50,"start":184.0,"duration":1.0,"velocity":127,"measure":93,"beat":1.0,"subject_pos":-1,"motif":"","motif_pos":-1,"best_pos":3,"similarity":0.236,"stretto":false,"stretto_voices":0,"combination":[]},{"voice":1,"pitch":76,"start":184.25,"duration":0.25,"velocity":127,"measure":93,"beat":1.5,"subject_pos":-1,"motif":"","motif_pos":-1,"best_pos":2,"similarity":0.443,"stretto":false,"stretto_voices":0,"combination":[]},{"voice":1,"pitch":74,"start":184.5,"duration":0.25,"velocity":127,"measure":93,"beat":2.0,"subject_pos":-1,"motif":"","motif_pos":-1,"best_pos":3,"similarity":0.614,"stretto":false,"stretto_voices":0,"combination":[]},{"voice":2,"pitch":57,"start":184.5,"duration":0.5,"velocity":127,"measure":93,"beat":2.0,"subject_pos":-1,"motif":"","motif_pos":-1,"best_pos":2,"similarity":0.436,"stretto":false,"stretto_voices":0,"combination":[]},{"voice":1,"pitch":73,"start":184.75,"duration":0.25,"velocity":127,"measure":93,"beat":2.5,"subject_pos":-1,"motif":"","motif_pos":-1,"best_pos":4,"similarity":0.679,"stretto":false,"stretto_voices":0,"combination":[]},{"voice":1,"pitch":74,"start":185.0,"duration":1.0,"velocity":127,"measure":93,"beat":3.0,"subject_pos":-1,"motif":"","motif_pos":-1,"best_pos":5,"similarity":0.5,"stretto":false,"stretto_voices":0,"combination":[]},{"voice":2,"pitch":53,"start":185.0,"duration":1.0,"velocity":127,"measure":93,"beat":3.0,"subject_pos":-1,"motif":"","motif_pos":-1,"best_pos":0,"similarity":0.357,"stretto":false,"stretto_voices":0,"combination":[]},{"voice":0,"pitch":79,"start":185.25,"duration":0.25,"velocity":127,"measure":93,"beat":3.5,"subject_pos":-1,"motif":"","motif_pos":-1,"best_pos":6,"similarity":0.643,"stretto":false,"stretto_voices":0,"combination":[]},{"voice":3,"pitch":50,"start":185.25,"duration":0.25,"velocity":127,"measure":93,"beat":3.5,"subject_pos":-1,"motif":"","motif_pos":-1,"best_pos":1,"similarity":0.429,"stretto":false,"stretto_voices":0,"combination":[]},{"voice":0,"pitch":81,"start":185.5,"duration":0.25,"velocity":127,"measure":93,"beat":4.0,"subject_pos":-1,"motif":"","motif_pos":-1,"best_pos":6,"similarity":0.661,"stretto":false,"stretto_voices":0,"combination":[]},{"voice":3,"pitch":48,"start":185.5,"duration":0.25,"velocity":127,"measure":93,"beat":4.0,"subject_pos":-1,"motif":"","motif_pos":-1,"best_pos":2,"similarity":0.571,"stretto":false,"stretto_voices":0,"combination":[]},{"voice":0,"pitch":82,"start":185.75,"duration":0.25,"velocity":127,"measure":93,"beat":4.5,"subject_pos":-1,"motif":"","motif_pos":-1,"best_pos":5,"similarity":0.586,"stretto":false,"stretto_voices":0,"combination":[]},{"voice":3,"pitch":46,"start":185.75,"duration":0.25,"velocity":127,"measure":93,"beat":4.5,"subject_pos":-1,"motif":"","motif_pos":-1,"best_pos":3,"similarity":0.571,"stretto":false,"stretto_voices":0,"combination":[]},{"voice":0,"pitch":84,"start":186.0,"duration":0.25,"velocity":127,"measure":94,"beat":1.0,"subject_pos":-1,"motif":"","motif_pos":-1,"best_pos":6,"similarity":0.436,"stretto":false,"stretto_voices":0,"combination":[]},{"voice":3,"pitch":45,"start":186.0,"duration":0.5,"velocity":127,"measure":94,"beat":1.0,"subject_pos":-1,"motif":"","motif_pos":-1,"best_pos":4,"similarity":0.464,"stretto":false,"stretto_voices":0,"combination":[]},{"voice":0,"pitch":77,"start":186.25,"duration":0.25,"velocity":127,"measure":94,"beat":1.5,"subject_pos":-1,"motif":"","motif_pos":-1,"best_pos":2,"similarity":0.4,"stretto":false,"stretto_voices":0,"combination":[]},{"voice":0,"pitch":75,"start":186.5,"duration":0.25,"velocity":127,"measure":94,"beat":2.0,"subject_pos":-1,"motif":"","motif_pos":-1,"best_pos":3,"similarity":0.6,"stretto":false,"stretto_voices":0,"combination":[]},{"voice":2,"pitch":60,"start":186.5,"duration":0.5,"velocity":127,"measure":94,"beat":2.0,"subject_pos":-1,"motif":"","motif_pos":-1,"best_pos":1,"similarity":0.429,"stretto":false,"stretto_voices":0,"combination":[]},{"voice":0,"pitch":74,"start":186.75,"duration":0.25,"velocity":127,"measure":94,"beat":2.5,"subject_pos":-1,"motif":"","motif_pos":-1,"best_pos":4,"similarity":0.7,"stretto":false,"stretto_voices":0,"combination":[]},{"voice":0,"pitch":75,"start":187.0,"duration":1.5,"velocity":127,"measure":94,"beat":3.0,"subject_pos":-1,"motif":"","motif_pos":-1,"best_pos":5,"similarity":0.564,"stretto":false,"stretto_voices":0,"combination":[]},{"voice":2,"pitch":57,"start":187.0,"duration":0.5,"velocity":127,"measure":94,"beat":3.0,"subject_pos":-1,"motif":"","motif_pos":-1,"best_pos":3,"similarity":0.314,"stretto":false,"stretto_voices":0,"combination":[]},{"voice":1,"pitch":70,"start":187.25,"duration":0.25,"velocity":127,"measure":94,"beat":3.5,"subject_pos":-1,"motif":"","motif_pos":-1,"best_pos":3,"similarity":0.464,"stretto":false,"stretto_voices":0,"combination":[]},{"voice":1,"pitch":69,"start":187.5,"duration":0.25,"velocity":127,"measure":94,"beat":4.0,"subject_pos":-1,"motif":"","motif_pos":-1,"best_pos":4,"similarity":0.407,"stretto":false,"stretto_voices":0,"combination":[]},{"voice":2,"pitch":60,"start":187.5,"duration":0.5,"velocity":127,"measure":94,"beat":4.0,"subject_pos":-1,"motif":"","motif_pos":-1,"best_pos":1,"similarity":0.243,"stretto":false,"stretto_voices":0,"combination":[]},{"voice":3,"pitch":53,"start":187.5,"duration":0.5,"velocity":127,"measure":94,"beat":4.0,"subject_pos":-1,"motif":"","motif_pos":-1,"best_pos":1,"similarity":0.257,"stretto":false,"stretto_voices":0,"combination":[]},{"voice":1,"pitch":67,"start":187.75,"duration":0.25,"velocity":127,"measure":94,"beat":4.5,"subject_pos":-1,"motif":"","motif_pos":-1,"best_pos":2,"similarity":0.436,"stretto":false,"stretto_voices":0,"combination":[]},{"voice":1,"pitch":65,"start":188.0,"duration":0.25,"velocity":127,"measure":95,"beat":1.0,"subject_pos":-1,"motif":"","motif_pos":-1,"best_pos":0,"similarity":0.446,"stretto":false,"stretto_voices":0,"combination":[]},{"voice":3,"pitch":46,"start":188.0,"duration":1.0,"velocity":127,"measure":95,"beat":1.0,"subject_pos":-1,"motif":"","motif_pos":-1,"best_pos":2,"similarity":0.279,"stretto":false,"stretto_voices":0,"combination":[]},{"voice":1,"pitch":72,"start":188.25,"duration":0.25,"velocity":127,"measure":95,"beat":1.5,"subject_pos":-1,"motif":"","motif_pos":-1,"best_pos":1,"similarity":0.625,"stretto":false,"stretto_voices":0,"combination":[]},{"voice":0,"pitch":74,"start":188.5,"duration":0.5,"velocity":127,"measure":95,"beat":2.0,"subject_pos":-1,"motif":"","motif_pos":-1,"best_pos":4,"similarity":0.693,"stretto":false,"stretto_voices":0,"combination":[]},{"voice":1,"pitch":70,"start":188.5,"duration":0.25,"velocity":127,"measure":95,"beat":2.0,"subject_pos":-1,"motif":"","motif_pos":-1,"best_pos":3,"similarity":0.571,"stretto":false,"stretto_voices":0,"combination":[]},{"voice":2,"pitch":53,"start":188.5,"duration":0.5,"velocity":127,"measure":95,"beat":2.0,"subject_pos":-1,"motif":"","motif_pos":-1,"best_pos":2,"similarity":0.357,"stretto":false,"stretto_voices":0,"combination":[]},{"voice":1,"pitch":69,"start":188.75,"duration":0.25,"velocity":127,"measure":95,"beat":2.5,"subject_pos":-1,"motif":"","motif_pos":-1,"best_pos":4,"similarity":0.661,"stretto":false,"stretto_voices":0,"combination":[]},{"voice":1,"pitch":70,"start":189.0,"duration":0.5,"velocity":127,"measure":95,"beat":3.0,"subject_pos":-1,"motif":"","motif_pos":-1,"best_pos":5,"similarity":0.5,"stretto":false,"stretto_voices":0,"combination":[]},{"voice":2,"pitch":50,"start":189.0,"duration":1.0,"velocity":127,"measure":95,"beat":3.0,"subject_pos":-1,"motif":"","motif_pos":-1,"best_pos":3,"similarity":0.368,"stretto":false,"stretto_voices":0,"combination":[]},{"voice":0,"pitch":76,"start":189.25,"duration":0.25,"velocity":127,"measure":95,"beat":3.5,"subject_pos":-1,"motif":"","motif_pos":-1,"best_pos":5,"similarity":0.721,"stretto":false,"stretto_voices":0,"combination":[]},{"voice":3,"pitch":46,"start":189.25,"duration":0.25,"velocity":127,"measure":95,"beat":3.5,"subject_pos":-1,"motif":"","motif_pos":-1,"best_pos":3,"similarity":0.386,"stretto":false,"stretto_voices":0,"combination":[]},{"voice":0,"pitch":78,"start":189.5,"duration":0.25,"velocity":127,"measure":95,"beat":4.0,"subject_pos":-1,"motif":"","motif_pos":-1,"best_pos":6,"similarity":0.714,"stretto":false,"stretto_voices":0,"combination":[]},{"voice":3,"pitch":45,"start":189.5,"duration":0.25,"velocity":127,"measure":95,"beat":4.0,"subject_pos":-1,"motif":"","motif_pos":-1,"best_pos":2,"similarity":0.429,"stretto":false,"stretto_voices":0,"combination":[]},{"voice":0,"pitch":79,"start":189.75,"duration":0.25,"velocity":127,"measure":95,"beat":4.5,"subject_pos":-1,"motif":"","motif_pos":-1,"best_pos":5,"similarity":0.586,"stretto":false,"stretto_voices":0,"combination":[]},{"voice":3,"pitch":43,"start":189.75,"duration":0.25,"velocity":127,"measure":95,"beat":4.5,"subject_pos":-1,"motif":"","motif_pos":-1,"best_pos":3,"similarity":0.5,"stretto":false,"stretto_voices":0,"combination":[]},{"voice":0,"pitch":81,"start":190.0,"duration":0.25,"velocity":127,"measure":96,"beat":1.0,"subject_pos":-1,"motif":"","motif_pos":-1,"best_pos":6,"similarity":0.436,"stretto":false,"stretto_voices":0,"combination":[]},{"voice":3,"pitch":42,"start":190.0,"duration":0.5,"velocity":127,"measure":96,"beat":1.0,"subject_pos":-1,"motif":"","motif_pos":-1,"best_pos":4,"similarity":0.429,"stretto":false,"stretto_voices":0,"combination":[]},{"voice":0,"pitch":74,"start":190.25,"duration":0.25,"velocity":127,"measure":96,"beat":1.5,"subject_pos":-1,"motif":"","motif_pos":-1,"best_pos":1,"similarity":0.364,"stretto":false,"stretto_voices":0,"combination":[]},{"voice":0,"pitch":72,"start":190.5,"duration":0.25,"velocity":127,"measure":96,"beat":2.0,"subject_pos":-1,"motif":"","motif_pos":-1,"best_pos":2,"similarity":0.45,"stretto":false,"stretto_voices":0,"combination":[]},{"voice":2,"pitch":57,"start":190.5,"duration":0.5,"velocity":127,"measure":96,"beat":2.0,"subject_pos":-1,"motif":"","motif_pos":-1,"best_pos":1,"similarity":0.464,"stretto":false,"stretto_voices":0,"combination":[]},{"voice":0,"pitch":70,"start":190.75,"duration":0.25,"velocity":127,"measure":96,"beat":2.5,"subject_pos":-1,"motif":"","motif_pos":-1,"best_pos":4,"similarity":0.414,"stretto":false,"stretto_voices":0,"combination":[]},{"voice":0,"pitch":72,"start":191.0,"duration":1.25,"velocity":127,"measure":96,"beat":3.0,"subject_pos":-1,"motif":"","motif_pos":-1,"best_pos":3,"similarity":0.393,"stretto":false,"stretto_voices":0,"combination":[]},{"voice":2,"pitch":54,"start":191.0,"duration":0.5,"velocity":127,"measure":96,"beat":3.0,"subject_pos":-1,"motif":"","motif_pos":-1,"best_pos":2,"similarity":0.375,"stretto":false,"stretto_voices":0,"combination":[]},{"voice":1,"pitch":67,"start":191.25,"duration":0.25,"velocity":127,"measure":96,"beat":3.5,"subject_pos":-1,"motif":"","motif_pos":-1,"best_pos":3,"similarity":0.607,"stretto":false,"stretto_voices":0,"combination":[]},{"voice":1,"pitch":66,"start":191.5,"duration":0.25,"velocity":127,"measure":96,"beat":4.0,"subject_pos":-1,"motif":"","motif_pos":-1,"best_pos":4,"similarity":0.486,"stretto":false,"stretto_voices":0,"combination":[]},{"voice":2,"pitch":57,"start":191.5,"duration":1.0,"velocity":127,"measure":96,"beat":4.0,"subject_pos":-1,"motif":"","motif_pos":-1,"best_pos":1,"similarity":0.411,"stretto":false,"stretto_voices":0,"combination":[]},{"voice":3,"pitch":50,"start":191.5,"duration":0.5,"velocity":127,"measure":96,"beat":4.0,"subject_pos":-1,"motif":"","motif_pos":-1,"best_pos":4,"similarity":0.321,"stretto":false,"stretto_voices":0,"combination":[]},{"voice":1,"pitch":64,"start":191.75,"duration":0.25,"velocity":127,"measure":96,"beat":4.5,"subject_pos":-1,"motif":"","motif_pos":-1,"best_pos":2,"similarity":0.464,"stretto":false,"stretto_voices":0,"combination":[]},{"voice":1,"pitch":62,"start":192.0,"duration":0.5,"velocity":127,"measure":97,"beat":1.0,"subject_pos":-1,"motif":"","motif_pos":-1,"best_pos":4,"similarity":0.493,"stretto":false,"stretto_voices":0,"combination":[]},{"voice":3,"pitch":43,"start":192.0,"duration":0.5,"velocity":127,"measure":97,"beat":1.0,"subject_pos":-1,"motif":"","motif_pos":-1,"best_pos":5,"similarity":0.446,"stretto":false,"stretto_voices":0,"combination":[]},{"voice":0,"pitch":70,"start":192.25,"duration":0.25,"velocity":127,"measure":97,"beat":1.5,"subject_pos":-1,"motif":"","motif_pos":-1,"best_pos":4,"similarity":0.446,"stretto":false,"stretto_voices":0,"combination":[]},{"voice":0,"pitch":72,"start":192.5,"duration":0.25,"velocity":127,"measure":97,"beat":2.0,"subject_pos":-1,"motif":"","motif_pos":-1,"best_pos":5,"similarity":0.393,"stretto":false,"stretto_voices":0,"combination":[]},{"voice":2,"pitch":55,"start":192.5,"duration":0.25,"velocity":127,"measure":97,"beat":2.0,"subject_pos":-1,"motif":"","motif_pos":-1,"best_pos":3,"similarity":0.579,"stretto":false,"stretto_voices":0,"combination":[]},{"voice":3,"pitch":45,"start":192.5,"duration":0.5,"velocity":127,"measure":97,"beat":2.0,"subject_pos":-1,"motif":"","motif_pos":-1,"best_pos":6,"similarity":0.571,"stretto":false,"stretto_voices":0,"combination":[]},{"voice":0,"pitch":75,"start":192.75,"duration":0.25,"velocity":127,"measure":97,"beat":2.5,"subject_pos":-1,"motif":"","motif_pos":-1,"best_pos":3,"similarity":0.386,"stretto":false,"stretto_voices":0,"combination":[]},{"voice":2,"pitch":54,"start":192.75,"duration":0.25,"velocity":127,"measure":97,"beat":2.5,"subject_pos":-1,"motif":"","motif_pos":-1,"best_pos":4,"similarity":0.729,"stretto":false,"stretto_voices":0,"combination":[]},{"voice":0,"pitch":74,"start":193.0,"duration":1.5,"velocity":127,"measure":97,"beat":3.0,"subject_pos":-1,"motif":"","motif_pos":-1,"best_pos":4,"similarity":0.536,"stretto":false,"stretto_voices":0,"combination":[]},{"voice":2,"pitch":55,"start":193.0,"duration":1.25,"velocity":127,"measure":97,"beat":3.0,"subject_pos":-1,"motif":"","motif_pos":-1,"best_pos":5,"similarity":0.636,"stretto":false,"stretto_voices":0,"combination":[]},{"voice":3,"pitch":46,"start":193.0,"duration":0.5,"velocity":127,"measure":97,"beat":3.0,"subject_pos":-1,"motif":"","motif_pos":-1,"best_pos":7,"similarity":0.429,"stretto":false,"stretto_voices":0,"combination":[]},{"voice":1,"pitch":67,"start":193.25,"duration":0.25,"velocity":127,"measure":97,"beat":3.5,"subject_pos":-1,"motif":"","motif_pos":-1,"best_pos":5,"similarity":0.564,"stretto":false,"stretto_voices":0,"combination":[]},{"voice":1,"pitch":69,"start":193.5,"duration":0.25,"velocity":127,"measure":97,"beat":4.0,"subject_pos":-1,"motif":"enigmatic_cell","motif_pos":0,"best_pos":0,"similarity":1.0,"stretto":false,"stretto_voices":0,"combination":[]},{"voice":3,"pitch":43,"start":193.5,"duration":0.5,"velocity":127,"measure":97,"beat":4.0,"subject_pos":-1,"motif":"","motif_pos":-1,"best_pos":0,"similarity":0.357,"stretto":false,"stretto_voices":0,"combination":[]},{"voice":1,"pitch":70,"start":193.75,"duration":0.25,"velocity":127,"measure":97,"beat":4.5,"subject_pos":-1,"motif":"enigmatic_cell","motif_pos":1,"best_pos":1,"similarity":1.0,"stretto":false,"stretto_voices":0,"combination":[]},{"voice":1,"pitch":63,"start":194.0,"duration":0.5,"velocity":127,"measure":98,"beat":1.0,"subject_pos":-1,"motif":"enigmatic_cell","motif_pos":2,"best_pos":2,"similarity":1.0,"stretto":false,"stretto_voices":0,"combination":[]},{"voice":3,"pitch":48,"start":194.0,"duration":0.5,"velocity":127,"measure":98,"beat":1.0,"subject_pos":-1,"motif":"","motif_pos":-1,"best_pos":1,"similarity":0.446,"stretto":false,"stretto_voices":0,"combination":[]},{"voice":2,"pitch":54,"start":194.25,"duration":0.25,"velocity":127,"measure":98,"beat":1.5,"subject_pos":-1,"motif":"","motif_pos":-1,"best_pos":4,"similarity":0.711,"stretto":false,"stretto_voices":0,"combination":[]},{"voice":0,"pitch":72,"start":194.5,"duration":0.25,"velocity":127,"measure":98,"beat":2.0,"subject_pos":-1,"motif":"","motif_pos":-1,"best_pos":5,"similarity":0.6,"stretto":false,"stretto_voices":0,"combination":[]},{"voice":2,"pitch":55,"start":194.5,"duration":0.25,"velocity":127,"measure":98,"beat":2.0,"subject_pos":-1,"motif":"","motif_pos":-1,"best_pos":5,"similarity":0.614,"stretto":false,"stretto_voices":0,"combination":[]},{"voice":3,"pitch":51,"start":194.5,"duration":0.5,"velocity":127,"measure":98,"beat":2.0,"subject_pos":-1,"motif":"","motif_pos":-1,"best_pos":2,"similarity":0.471,"stretto":false,"stretto_voices":0,"combination":[]},{"voice":0,"pitch":74,"start":194.75,"duration":0.25,"velocity":127,"measure":98,"beat":2.5,"subject_pos":-1,"motif":"","motif_pos":-1,"best_pos":6,"similarity":0.657,"stretto":false,"stretto_voices":0,"combination":[]},{"voice":2,"pitch":58,"start":194.75,"duration":0.25,"velocity":127,"measure":98,"beat":2.5,"subject_pos":-1,"motif":"","motif_pos":-1,"best_pos":6,"similarity":0.429,"stretto":false,"stretto_voices":0,"combination":[]},{"voice":0,"pitch":75,"start":195.0,"duration":1.5,"velocity":127,"measure":98,"beat":3.0,"subject_pos":-1,"motif":"","motif_pos":-1,"best_pos":3,"similarity":0.543,"stretto":false,"stretto_voices":0,"combination":[]},{"voice":2,"pitch":57,"start":195.0,"duration":1.25,"velocity":127,"measure":98,"beat":3.0,"subject_pos":-1,"motif":"","motif_pos":-1,"best_pos":4,"similarity":0.482,"stretto":false,"stretto_voices":0,"combination":[]},{"voice":3,"pitch":48,"start":195.0,"duration":0.5,"velocity":127,"measure":98,"beat":3.0,"subject_pos":-1,"motif":"","motif_pos":-1,"best_pos":2,"similarity":0.471,"stretto":false,"stretto_voices":0,"combination":[]},{"voice":1,"pitch":69,"start":195.25,"duration":0.25,"velocity":127,"measure":98,"beat":3.5,"subject_pos":-1,"motif":"","motif_pos":-1,"best_pos":4,"similarity":0.45,"stretto":false,"stretto_voices":0,"combination":[]},{"voice":1,"pitch":70,"start":195.5,"duration":0.25,"velocity":127,"measure":98,"beat":4.0,"subject_pos":-1,"motif":"","motif_pos":-1,"best_pos":5,"similarity":0.579,"stretto":false,"stretto_voices":0,"combination":[]},{"voice":3,"pitch":45,"start":195.5,"duration":0.5,"velocity":127,"measure":98,"beat":4.0,"subject_pos":-1,"motif":"","motif_pos":-1,"best_pos":3,"similarity":0.389,"stretto":false,"stretto_voices":0,"combination":[]},{"voice":1,"pitch":72,"start":195.75,"duration":0.25,"velocity":127,"measure":98,"beat":4.5,"subject_pos":-1,"motif":"","motif_pos":-1,"best_pos":6,"similarity":0.429,"stretto":false,"stretto_voices":0,"combination":[]},{"voice":1,"pitch":66,"start":196.0,"duration":0.5,"velocity":127,"measure":99,"beat":1.0,"subject_pos":-1,"motif":"","motif_pos":-1,"best_pos":7,"similarity":0.214,"stretto":false,"stretto_voices":0,"combination":[]},{"voice":3,"pitch":50,"start":196.0,"duration":0.5,"velocity":127,"measure":99,"beat":1.0,"subject_pos":-1,"motif":"","motif_pos":-1,"best_pos":1,"similarity":0.364,"stretto":false,"stretto_voices":0,"combination":[]},{"voice":2,"pitch":55,"start":196.25,"duration":0.25,"velocity":127,"measure":99,"beat":1.5,"subject_pos":-1,"motif":"","motif_pos":-1,"best_pos":5,"similarity":0.493,"stretto":false,"stretto_voices":0,"combination":[]},{"voice":0,"pitch":74,"start":196.5,"duration":0.25,"velocity":127,"measure":99,"beat":2.0,"subject_pos":-1,"motif":"","motif_pos":-1,"best_pos":4,"similarity":0.743,"stretto":false,"stretto_voices":0,"combination":[]},{"voice":2,"pitch":57,"start":196.5,"duration":0.25,"velocity":127,"measure":99,"beat":2.0,"subject_pos":-1,"motif":"","motif_pos":-1,"best_pos":6,"similarity":0.443,"stretto":false,"stretto_voices":0,"combination":[]},{"voice":3,"pitch":54,"start":196.5,"duration":0.5,"velocity":127,"measure":99,"beat":2.0,"subject_pos":-1,"motif":"","motif_pos":-1,"best_pos":1,"similarity":0.5,"stretto":false,"stretto_voices":0,"combination":[]},{"voice":0,"pitch":75,"start":196.75,"duration":0.25,"velocity":127,"measure":99,"beat":2.5,"subject_pos":-1,"motif":"","motif_pos":-1,"best_pos":5,"similarity":0.736,"stretto":false,"stretto_voices":0,"combination":[]},{"voice":2,"pitch":60,"start":196.75,"duration":0.25,"velocity":127,"measure":99,"beat":2.5,"subject_pos":-1,"motif":"","motif_pos":-1,"best_pos":1,"similarity":0.411,"stretto":false,"stretto_voices":0,"combination":[]},{"voice":0,"pitch":77,"start":197.0,"duration":1.5,"velocity":127,"measure":99,"beat":3.0,"subject_pos":-1,"motif":"","motif_pos":-1,"best_pos":6,"similarity":0.529,"stretto":false,"stretto_voices":0,"combination":[]},{"voice":2,"pitch":58,"start":197.0,"duration":1.25,"velocity":127,"measure":99,"beat":3.0,"subject_pos":-1,"motif":"","motif_pos":-1,"best_pos":3,"similarity":0.596,"stretto":false,"stretto_voices":0,"combination":[]},{"voice":3,"pitch":50,"start":197.0,"duration":0.5,"velocity":127,"measure":99,"beat":3.0,"subject_pos":-1,"motif":"","motif_pos":-1,"best_pos":2,"similarity":0.507,"stretto":false,"stretto_voices":0,"combination":[]},{"voice":1,"pitch":70,"start":197.25,"duration":0.25,"velocity":127,"measure":99,"beat":3.5,"subject_pos":-1,"motif":"","motif_pos":-1,"best_pos":1,"similarity":0.229,"stretto":false,"stretto_voices":0,"combination":[]},{"voice":1,"pitch":74,"start":197.5,"duration":0.25,"velocity":127,"measure":99,"beat":4.0,"subject_pos":-1,"motif":"","motif_pos":-1,"best_pos":2,"similarity":0.279,"stretto":false,"stretto_voices":0,"combination":[]},{"voice":3,"pitch":46,"start":197.5,"duration":0.5,"velocity":127,"measure":99,"beat":4.0,"subject_pos":-1,"motif":"","motif_pos":-1,"best_pos":0,"similarity":0.357,"stretto":false,"stretto_voices":0,"combination":[]},{"voice":1,"pitch":68,"start":197.75,"duration":0.25,"velocity":127,"measure":99,"beat":4.5,"subject_pos":-1,"motif":"","motif_pos":-1,"best_pos":3,"similarity":0.457,"stretto":false,"stretto_voices":0,"combination":[]},{"voice":1,"pitch":67,"start":198.0,"duration":0.5,"velocity":127,"measure":100,"beat":1.0,"subject_pos":-1,"motif":"","motif_pos":-1,"best_pos":4,"similarity":0.521,"stretto":false,"stretto_voices":0,"combination":[]},{"voice":3,"pitch":51,"start":198.0,"duration":0.5,"velocity":127,"measure":100,"beat":1.0,"subject_pos":-1,"motif":"","motif_pos":-1,"best_pos":1,"similarity":0.436,"stretto":false,"stretto_voices":0,"combination":[]},{"voice":2,"pitch":57,"start":198.25,"duration":0.25,"velocity":127,"measure":100,"beat":1.5,"subject_pos":-1,"motif":"","motif_pos":-1,"best_pos":4,"similarity":0.686,"stretto":false,"stretto_voices":0,"combination":[]},{"voice":0,"pitch":75,"start":198.5,"duration":0.25,"velocity":127,"measure":100,"beat":2.0,"subject_pos":-1,"motif":"","motif_pos":-1,"best_pos":4,"similarity":0.443,"stretto":false,"stretto_voices":0,"combination":[]},{"voice":2,"pitch":58,"start":198.5,"duration":0.25,"velocity":127,"measure":100,"beat":2.0,"subject_pos":-1,"motif":"","motif_pos":-1,"best_pos":5,"similarity":0.55,"stretto":false,"stretto_voices":0,"combination":[]},{"voice":3,"pitch":55,"start":198.5,"duration":0.5,"velocity":127,"measure":100,"beat":2.0,"subject_pos":-1,"motif":"","motif_pos":-1,"best_pos":2,"similarity":0.45,"stretto":false,"stretto_voices":0,"combination":[]},{"voice":0,"pitch":77,"start":198.75,"duration":0.25,"velocity":127,"measure":100,"beat":2.5,"subject_pos":-1,"motif":"","motif_pos":-1,"best_pos":5,"similarity":0.514,"stretto":false,"stretto_voices":0,"combination":[]},{"voice":2,"pitch":62,"start":198.75,"duration":0.25,"velocity":127,"measure":100,"beat":2.5,"subject_pos":-1,"motif":"","motif_pos":-1,"best_pos":1,"similarity":0.507,"stretto":false,"stretto_voices":0,"combination":[]},{"voice":0,"pitch":79,"start":199.0,"duration":1.5,"velocity":127,"measure":100,"beat":3.0,"subject_pos":-1,"motif":"","motif_pos":-1,"best_pos":6,"similarity":0.421,"stretto":false,"stretto_voices":0,"combination":[]},{"voice":2,"pitch":60,"start":199.0,"duration":1.25,"velocity":127,"measure":100,"beat":3.0,"subject_pos":-1,"motif":"","motif_pos":-1,"best_pos":2,"similarity":0.532,"stretto":false,"stretto_voices":0,"combination":[]},{"voice":3,"pitch":52,"start":199.0,"duration":0.5,"velocity":127,"measure":100,"beat":3.0,"subject_pos":-1,"motif":"","motif_pos":-1,"best_pos":3,"similarity":0.418,"stretto":false,"stretto_voices":0,"combination":[]},{"voice":1,"pitch":69,"start":199.25,"duration":0.25,"velocity":127,"measure":100,"beat":3.5,"subject_pos":-1,"motif":"","motif_pos":-1,"best_pos":6,"similarity":0.607,"stretto":false,"stretto_voices":0,"combination":[]},{"voice":1,"pitch":70,"start":199.5,"duration":0.25,"velocity":127,"measure":100,"beat":4.0,"subject_pos":-1,"motif":"","motif_pos":-1,"best_pos":7,"similarity":0.446,"stretto":false,"stretto_voices":0,"combination":[]},{"voice":3,"pitch":48,"start":199.5,"duration":0.5,"velocity":127,"measure":100,"beat":4.0,"subject_pos":-1,"motif":"","motif_pos":-1,"best_pos":0,"similarity":0.357,"stretto":false,"stretto_voices":0,"combination":[]},{"voice":1,"pitch":67,"start":199.75,"duration":0.25,"velocity":127,"measure":100,"beat":4.5,"subject_pos":-1,"motif":"","motif_pos":-1,"best_pos":5,"similarity":0.35,"stretto":false,"stretto_voices":0,"combination":[]},{"voice":1,"pitch":69,"start":200.0,"duration":0.5,"velocity":127,"measure":101,"beat":1.0,"subject_pos":-1,"motif":"","motif_pos":-1,"best_pos":6,"similarity":0.318,"stretto":false,"stretto_voices":0,"combination":[]},{"voice":3,"pitch":53,"start":200.0,"duration":0.5,"velocity":127,"measure":101,"beat":1.0,"subject_pos":-1,"motif":"","motif_pos":-1,"best_pos":1,"similarity":0.436,"stretto":false,"stretto_voices":0,"combination":[]},{"voice":2,"pitch":58,"start":200.25,"duration":0.25,"velocity":127,"measure":101,"beat":1.5,"subject_pos":-1,"motif":"","motif_pos":-1,"best_pos":4,"similarity":0.446,"stretto":false,"stretto_voices":0,"combination":[]},{"voice":0,"pitch":77,"start":200.5,"duration":0.25,"velocity":127,"measure":101,"beat":2.0,"subject_pos":-1,"motif":"","motif_pos":-1,"best_pos":4,"similarity":0.436,"stretto":false,"stretto_voices":0,"combination":[]},{"voice":2,"pitch":60,"start":200.5,"duration":0.25,"velocity":127,"measure":101,"beat":2.0,"subject_pos":-1,"motif":"","motif_pos":-1,"best_pos":5,"similarity":0.429,"stretto":false,"stretto_voices":0,"combination":[]},{"voice":3,"pitch":57,"start":200.5,"duration":0.5,"velocity":127,"measure":101,"beat":2.0,"subject_pos":-1,"motif":"","motif_pos":-1,"best_pos":2,"similarity":0.45,"stretto":false,"stretto_voices":0,"combination":[]},{"voice":0,"pitch":79,"start":200.75,"duration":0.25,"velocity":127,"measure":101,"beat":2.5,"subject_pos":-1,"motif":"","motif_pos":-1,"best_pos":5,"similarity":0.5,"stretto":false,"stretto_voices":0,"combination":[]},{"voice":2,"pitch":63,"start":200.75,"duration":0.25,"velocity":127,"measure":101,"beat":2.5,"subject_pos":-1,"motif":"","motif_pos":-1,"best_pos":1,"similarity":0.321,"stretto":false,"stretto_voices":0,"combination":[]},{"voice":0,"pitch":81,"start":201.0,"duration":1.25,"velocity":127,"measure":101,"beat":3.0,"subject_pos":-1,"motif":"","motif_pos":-1,"best_pos":6,"similarity":0.393,"stretto":false,"stretto_voices":0,"combination":[]},{"voice":2,"pitch":62,"start":201.0,"duration":0.25,"velocity":127,"measure":101,"beat":3.0,"subject_pos":-1,"motif":"","motif_pos":-1,"best_pos":1,"similarity":0.429,"stretto":false,"stretto_voices":0,"combination":[]},{"voice":3,"pitch":54,"start":201.0,"duration":0.5,"velocity":127,"measure":101,"beat":3.0,"subject_pos":-1,"motif":"","motif_pos":-1,"best_pos":3,"similarity":0.4,"stretto":false,"stretto_voices":0,"combination":[]},{"voice":2,"pitch":60,"start":201.25,"duration":0.25,"velocity":127,"measure":101,"beat":3.5,"subject_pos":-1,"motif":"","motif_pos":-1,"best_pos":2,"similarity":0.643,"stretto":false,"stretto_voices":0,"combination":[]},{"voice":2,"pitch":58,"start":201.5,"duration":0.25,"velocity":127,"measure":101,"beat":4.0,"subject_pos":-1,"motif":"","motif_pos":-1,"best_pos":3,"similarity":0.786,"stretto":false,"stretto_voices":0,"combination":[]},{"voice":3,"pitch":50,"start":201.5,"duration":0.5,"velocity":127,"measure":101,"beat":4.0,"subject_pos":-1,"motif":"","motif_pos":-1,"best_pos":0,"similarity":0.5,"stretto":false,"stretto_voices":0,"combination":[]},{"voice":2,"pitch":57,"start":201.75,"duration":0.25,"velocity":127,"measure":101,"beat":4.5,"subject_pos":-1,"motif":"","motif_pos":-1,"best_pos":4,"similarity":0.864,"stretto":false,"stretto_voices":0,"combination":[]},{"voice":2,"pitch":58,"start":202.0,"duration":0.75,"velocity":127,"measure":102,"beat":1.0,"subject_pos":-1,"motif":"","motif_pos":-1,"best_pos":5,"similarity":0.764,"stretto":false,"stretto_voices":0,"combination":[]},{"voice":3,"pitch":55,"start":202.0,"duration":0.5,"velocity":127,"measure":102,"beat":1.0,"subject_pos":-1,"motif":"","motif_pos":-1,"best_pos":1,"similarity":0.721,"stretto":false,"stretto_voices":0,"combination":[]},{"voice":0,"pitch":74,"start":202.25,"duration":0.25,"velocity":127,"measure":102,"beat":1.5,"subject_pos":-1,"motif":"","motif_pos":-1,"best_pos":0,"similarity":0.364,"stretto":false,"stretto_voices":0,"combination":[]},{"voice":0,"pitch":79,"start":202.5,"duration":1.0,"velocity":127,"measure":102,"beat":2.0,"subject_pos":-1,"motif":"","motif_pos":-1,"best_pos":1,"similarity":0.479,"stretto":false,"stretto_voices":0,"combination":[]},{"voice":3,"pitch":51,"start":202.5,"duration":0.5,"velocity":127,"measure":102,"beat":2.0,"subject_pos":-1,"motif":"","motif_pos":-1,"best_pos":2,"similarity":0.736,"stretto":false,"stretto_voices":0,"combination":[]},{"voice":2,"pitch":60,"start":202.75,"duration":0.25,"velocity":127,"measure":102,"beat":2.5,"subject_pos":-1,"motif":"","motif_pos":-1,"best_pos":6,"similarity":0.529,"stretto":false,"stretto_voices":0,"combination":[]},{"voice":2,"pitch":57,"start":203.0,"duration":1.0,"velocity":127,"measure":102,"beat":3.0,"subject_pos":-1,"motif":"","motif_pos":-1,"best_pos":3,"similarity":0.457,"stretto":false,"stretto_voices":0,"combination":[]},{"voice":3,"pitch":48,"start":203.0,"duration":0.5,"velocity":127,"measure":102,"beat":3.0,"subject_pos":-1,"motif":"","motif_pos":-1,"best_pos":3,"similarity":0.579,"stretto":false,"stretto_voices":0,"combination":[]},{"voice":1,"pitch":75,"start":203.25,"duration":0.25,"velocity":127,"measure":102,"beat":3.5,"subject_pos":-1,"motif":"","motif_pos":-1,"best_pos":1,"similarity":0.393,"stretto":false,"stretto_voices":0,"combination":[]},{"voice":0,"pitch":78,"start":203.5,"duration":0.5,"velocity":127,"measure":102,"beat":4.0,"subject_pos":-1,"motif":"","motif_pos":-1,"best_pos":4,"similarity":0.621,"stretto":false,"stretto_voices":0,"combination":[]},{"voice":1,"pitch":74,"start":203.5,"duration":0.25,"velocity":127,"measure":102,"beat":4.0,"subject_pos":-1,"motif":"","motif_pos":-1,"best_pos":2,"similarity":0.464,"stretto":false,"stretto_voices":0,"combination":[]},{"voice":3,"pitch":50,"start":203.5,"duration":0.5,"velocity":127,"measure":102,"beat":4.0,"subject_pos":-1,"motif":"","motif_pos":-1,"best_pos":0,"similarity":0.357,"stretto":false,"stretto_voices":0,"combination":[]},{"voice":1,"pitch":72,"start":203.75,"duration":0.25,"velocity":127,"measure":102,"beat":4.5,"subject_pos":-1,"motif":"","motif_pos":-1,"best_pos":3,"similarity":0.471,"stretto":false,"stretto_voices":0,"combination":[]},{"voice":0,"pitch":79,"start":204.0,"duration":0.5,"velocity":127,"measure":103,"beat":1.0,"subject_pos":-1,"motif":"","motif_pos":-1,"best_pos":5,"similarity":0.514,"stretto":false,"stretto_voices":0,"combination":[]},{"voice":1,"pitch":70,"start":204.0,"duration":0.5,"velocity":127,"measure":103,"beat":1.0,"subject_pos":-1,"motif":"","motif_pos":-1,"best_pos":4,"similarity":0.425,"stretto":false,"stretto_voices":0,"combination":[]},{"voice":2,"pitch":55,"start":204.0,"duration":0.25,"velocity":127,"measure":103,"beat":1.0,"subject_pos":-1,"motif":"","motif_pos":-1,"best_pos":2,"similarity":0.436,"stretto":false,"stretto_voices":0,"combination":[]},{"voice":3,"pitch":55,"start":204.0,"duration":0.5,"velocity":127,"measure":103,"beat":1.0,"subject_pos":-1,"motif":"","motif_pos":-1,"best_pos":1,"similarity":0.464,"stretto":false,"stretto_voices":0,"combination":[]},{"voice":2,"pitch":63,"start":204.25,"duration":0.25,"velocity":127,"measure":103,"beat":1.5,"subject_pos":-1,"motif":"","motif_pos":-1,"best_pos":3,"similarity":0.45,"stretto":false,"stretto_voices":0,"combination":[]},{"voice":2,"pitch":62,"start":204.5,"duration":0.25,"velocity":127,"measure":103,"beat":2.0,"subject_pos":-1,"motif":"","motif_pos":-1,"best_pos":2,"similarity":0.464,"stretto":false,"stretto_voices":0,"combination":[]},{"voice":3,"pitch":58,"start":204.5,"duration":0.5,"velocity":127,"measure":103,"beat":2.0,"subject_pos":-1,"motif":"","motif_pos":-1,"best_pos":2,"similarity":0.507,"stretto":false,"stretto_voices":0,"combination":[]},{"voice":2,"pitch":60,"start":204.75,"duration":0.25,"velocity":127,"measure":103,"beat":2.5,"subject_pos":-1,"motif":"","motif_pos":-1,"best_pos":3,"similarity":0.471,"stretto":false,"stretto_voices":0,"combination":[]},{"voice":2,"pitch":58,"start":205.0,"duration":1.0,"velocity":127,"measure":103,"beat":3.0,"subject_pos":-1,"motif":"","motif_pos":-1,"best_pos":4,"similarity":0.425,"stretto":false,"stretto_voices":0,"combination":[]},{"voice":3,"pitch":55,"start":205.0,"duration":1.0,"velocity":127,"measure":103,"beat":3.0,"subject_pos":-1,"motif":"","motif_pos":-1,"best_pos":3,"similarity":0.521,"stretto":false,"stretto_voices":0,"combination":[]},{"voice":1,"pitch":72,"start":205.25,"duration":0.25,"velocity":127,"measure":103,"beat":3.5,"subject_pos":-1,"motif":"","motif_pos":-1,"best_pos":1,"similarity":0.386,"stretto":false,"stretto_voices":0,"combination":[]},{"voice":0,"pitch":79,"start":205.5,"duration":0.5,"velocity":127,"measure":103,"beat":4.0,"subject_pos":-1,"motif":"","motif_pos":-1,"best_pos":2,"similarity":0.425,"stretto":false,"stretto_voices":0,"combination":[]},{"voice":1,"pitch":70,"start":205.5,"duration":0.25,"velocity":127,"measure":103,"beat":4.0,"subject_pos":-1,"motif":"","motif_pos":-1,"best_pos":2,"similarity":0.479,"stretto":false,"stretto_voices":0,"combination":[]},{"voice":1,"pitch":69,"start":205.75,"duration":0.25,"velocity":127,"measure":103,"beat":4.5,"subject_pos":-1,"motif":"","motif_pos":-1,"best_pos":3,"similarity":0.436,"stretto":false,"stretto_voices":0,"combination":[]},{"voice":0,"pitch":76,"start":206.0,"duration":1.0,"velocity":127,"measure":104,"beat":1.0,"subject_pos":-1,"motif":"","motif_pos":-1,"best_pos":3,"similarity":0.443,"stretto":false,"stretto_voices":0,"combination":[]},{"voice":1,"pitch":67,"start":206.0,"duration":1.0,"velocity":127,"measure":104,"beat":1.0,"subject_pos":-1,"motif":"","motif_pos":-1,"best_pos":4,"similarity":0.393,"stretto":false,"stretto_voices":0,"combination":[]},{"voice":2,"pitch":60,"start":206.25,"duration":0.25,"velocity":127,"measure":104,"beat":1.5,"subject_pos":-1,"motif":"","motif_pos":-1,"best_pos":1,"similarity":0.386,"stretto":false,"stretto_voices":0,"combination":[]},{"voice":2,"pitch":58,"start":206.5,"duration":0.25,"velocity":127,"measure":104,"beat":2.0,"subject_pos":-1,"motif":"","motif_pos":-1,"best_pos":3,"similarity":0.457,"stretto":false,"stretto_voices":0,"combination":[]},{"voice":3,"pitch":55,"start":206.5,"duration":0.5,"velocity":127,"measure":104,"beat":2.0,"subject_pos":-1,"motif":"","motif_pos":-1,"best_pos":2,"similarity":0.357,"stretto":false,"stretto_voices":0,"combination":[]},{"voice":2,"pitch":57,"start":206.75,"duration":0.25,"velocity":127,"measure":104,"beat":2.5,"subject_pos":-1,"motif":"","motif_pos":-1,"best_pos":4,"similarity":0.4,"stretto":false,"stretto_voices":0,"combination":[]},{"voice":2,"pitch":55,"start":207.0,"duration":1.0,"velocity":127,"measure":104,"beat":3.0,"subject_pos":-1,"motif":"head","motif_pos":0,"best_pos":0,"similarity":1.0,"stretto":false,"stretto_voices":0,"combination":[]},{"voice":3,"pitch":52,"start":207.0,"duration":1.0,"velocity":127,"measure":104,"beat":3.0,"subject_pos":-1,"motif":"","motif_pos":-1,"best_pos":0,"similarity":0.436,"stretto":false,"stretto_voices":0,"combination":[]},{"voice":0,"pitch":77,"start":207.25,"duration":0.25,"velocity":127,"measure":104,"beat":3.5,"subject_pos":-1,"motif":"","motif_pos":-1,"best_pos":3,"similarity":0.407,"stretto":false,"stretto_voices":0,"combination":[]},{"voice":0,"pitch":76,"start":207.5,"duration":0.25,"velocity":127,"measure":104,"beat":4.0,"subject_pos":-1,"motif":"","motif_pos":-1,"best_pos":4,"similarity":0.414,"stretto":false,"stretto_voices":0,"combination":[]},{"voice":1,"pitch":67,"start":207.5,"duration":0.5,"velocity":127,"measure":104,"beat":4.0,"subject_pos":-1,"motif":"","motif_pos":-1,"best_pos":2,"similarity":0.375,"stretto":false,"stretto_voices":0,"combination":[]},{"voice":0,"pitch":74,"start":207.75,"duration":0.25,"velocity":127,"measure":104,"beat":4.5,"subject_pos":-1,"motif":"","motif_pos":-1,"best_pos":2,"similarity":0.507,"stretto":false,"stretto_voices":0,"combination":[]},{"voice":0,"pitch":72,"start":208.0,"duration":1.0,"velocity":127,"measure":105,"beat":1.0,"subject_pos":-1,"motif":"","motif_pos":-1,"best_pos":3,"similarity":0.443,"stretto":false,"stretto_voices":0,"combination":[]},{"voice":1,"pitch":64,"start":208.0,"duration":1.0,"velocity":127,"measure":105,"beat":1.0,"subject_pos":-1,"motif":"","motif_pos":-1,"best_pos":3,"similarity":0.364,"stretto":false,"stretto_voices":0,"combination":[]},{"voice":2,"pitch":62,"start":208.25,"duration":0.25,"velocity":127,"measure":105,"beat":1.5,"subject_pos":-1,"motif":"head","motif_pos":1,"best_pos":1,"similarity":1.0,"stretto":false,"stretto_voices":0,"combination":[]},{"voice":2,"pitch":60,"start":208.5,"duration":0.25,"velocity":127,"measure":105,"beat":2.0,"subject_pos":-1,"motif":"head","motif_pos":2,"best_pos":2,"similarity":1.0,"stretto":false,"stretto_voices":0,"combination":[]},{"voice":3,"pitch":57,"start":208.5,"duration":0.5,"velocity":127,"measure":105,"beat":2.0,"subject_pos":-1,"motif":"","motif_pos":-1,"best_pos":1,"similarity":0.604,"stretto":false,"stretto_voices":0,"combination":[]},{"voice":2,"pitch":58,"start":208.75,"duration":0.25,"velocity":127,"measure":105,"beat":2.5,"subject_pos":-1,"motif":"head","motif_pos":3,"best_pos":3,"similarity":1.0,"stretto":false,"stretto_voices":0,"combination":[]},{"voice":2,"pitch":57,"start":209.0,"duration":1.0,"velocity":127,"measure":105,"beat":3.0,"subject_pos":-1,"motif":"head","motif_pos":4,"best_pos":4,"similarity":1.0,"stretto":false,"stretto_voices":0,"combination":[]},{"voice":3,"pitch":53,"start":209.0,"duration":1.0,"velocity":127,"measure":105,"beat":3.0,"subject_pos":-1,"motif":"","motif_pos":-1,"best_pos":2,"similarity":0.511,"stretto":false,"stretto_voices":0,"combination":[]},{"voice":1,"pitch":70,"start":209.25,"duration":0.25,"velocity":127,"measure":105,"beat":3.5,"subject_pos":-1,"motif":"","motif_pos":-1,"best_pos":1,"similarity":0.393,"stretto":false,"stretto_voices":0,"combination":[]},{"voice":0,"pitch":72,"start":209.5,"duration":0.5,"velocity":127,"measure":105,"beat":4.0,"subject_pos":-1,"motif":"","motif_pos":-1,"best_pos":2,"similarity":0.364,"stretto":false,"stretto_voices":0,"combination":[]},{"voice":1,"pitch":69,"start":209.5,"duration":0.25,"velocity":127,"measure":105,"beat":4.0,"subject_pos":-1,"motif":"","motif_pos":-1,"best_pos":2,"similarity":0.436,"stretto":false,"stretto_voices":0,"combination":[]},{"voice":1,"pitch":67,"start":209.75,"duration":0.25,"velocity":127,"measure":105,"beat":4.5,"subject_pos":-1,"motif":"","motif_pos":-1,"best_pos":2,"similarity":0.429,"stretto":false,"stretto_voices":0,"combination":[]},{"voice":0,"pitch":69,"start":210.0,"duration":1.0,"velocity":127,"measure":106,"beat":1.0,"subject_pos":-1,"motif":"","motif_pos":-1,"best_pos":3,"similarity":0.343,"stretto":false,"stretto_voices":0,"combination":[]},{"voice":1,"pitch":65,"start":210.0,"duration":1.0,"velocity":127,"measure":106,"beat":1.0,"subject_pos":-1,"motif":"","motif_pos":-1,"best_pos":3,"similarity":0.357,"stretto":false,"stretto_voices":0,"combination":[]},{"voice":2,"pitch":58,"start":210.25,"duration":0.25,"velocity":127,"measure":106,"beat":1.5,"subject_pos":-1,"motif":"","motif_pos":-1,"best_pos":5,"similarity":0.507,"stretto":false,"stretto_voices":0,"combination":[]},{"voice":2,"pitch":57,"start":210.5,"duration":0.25,"velocity":127,"measure":106,"beat":2.0,"subject_pos":-1,"motif":"","motif_pos":-1,"best_pos":4,"similarity":0.386,"stretto":false,"stretto_voices":0,"combination":[]},{"voice":3,"pitch":53,"start":210.5,"duration":0.5,"velocity":127,"measure":106,"beat":2.0,"subject_pos":-1,"motif":"","motif_pos":-1,"best_pos":2,"similarity":0.371,"stretto":false,"stretto_voices":0,"combination":[]},{"voice":2,"pitch":55,"start":210.75,"duration":0.25,"velocity":127,"measure":106,"beat":2.5,"subject_pos":-1,"motif":"","motif_pos":-1,"best_pos":2,"similarity":0.429,"stretto":false,"stretto_voices":0,"combination":[]},{"voice":2,"pitch":53,"start":211.0,"duration":1.0,"velocity":127,"measure":106,"beat":3.0,"subject_pos":-1,"motif":"","motif_pos":-1,"best_pos":3,"similarity":0.321,"stretto":false,"stretto_voices":0,"combination":[]},{"voice":3,"pitch":50,"start":211.0,"duration":1.5,"velocity":127,"measure":106,"beat":3.0,"subject_pos":-1,"motif":"","motif_pos":-1,"best_pos":3,"similarity":0.368,"stretto":false,"stretto_voices":0,"combination":[]},{"voice":0,"pitch":79,"start":211.25,"duration":0.25,"velocity":127,"measure":106,"beat":3.5,"subject_pos":-1,"motif":"","motif_pos":-1,"best_pos":1,"similarity":0.386,"stretto":false,"stretto_voices":0,"combination":[]},{"voice":0,"pitch":77,"start":211.5,"duration":0.25,"velocity":127,"measure":106,"beat":4.0,"subject_pos":-1,"motif":"","motif_pos":-1,"best_pos":2,"similarity":0.514,"stretto":false,"stretto_voices":0,"combination":[]},{"voice":1,"pitch":69,"start":211.5,"duration":0.5,"velocity":127,"measure":106,"beat":4.0,"subject_pos":-1,"motif":"","motif_pos":-1,"best_pos":1,"similarity":0.464,"stretto":false,"stretto_voices":0,"combination":[]},{"voice":0,"pitch":76,"start":211.75,"duration":0.25,"velocity":127,"measure":106,"beat":4.5,"subject_pos":-1,"motif":"","motif_pos":-1,"best_pos":3,"similarity":0.514,"stretto":false,"stretto_voices":0,"combination":[]},{"voice":0,"pitch":74,"start":212.0,"duration":0.25,"velocity":127,"measure":107,"beat":1.0,"subject_pos":-1,"motif":"","motif_pos":-1,"best_pos":4,"similarity":0.568,"stretto":false,"stretto_voices":0,"combination":[]},{"voice":1,"pitch":65,"start":212.0,"duration":1.25,"velocity":127,"measure":107,"beat":1.0,"subject_pos":-1,"motif":"","motif_pos":-1,"best_pos":2,"similarity":0.446,"stretto":false,"stretto_voices":0,"combination":[]},{"voice":2,"pitch":57,"start":212.0,"duration":1.0,"velocity":127,"measure":107,"beat":1.0,"subject_pos":0,"motif":"subject_inv","motif_pos":0,"best_pos":0,"similarity":1.0,"stretto":false,"stretto_voices":0,"combination":[]},{"voice":0,"pitch":75,"start":212.25,"duration":0.25,"velocity":127,"measure":107,"beat":1.5,"subject_pos":-1,"motif":"","motif_pos":-1,"best_pos":3,"similarity":0.529,"stretto":false,"stretto_voices":0,"combination":[]},{"voice":0,"pitch":74,"start":212.5,"duration":0.25,"velocity":127,"measure":107,"beat":2.0,"subject_pos":-1,"motif":"","motif_pos":-1,"best_pos":4,"similarity":0.586,"stretto":false,"stretto_voices":0,"combination":[]},{"voice":3,"pitch":53,"start":212.5,"duration":1.0,"velocity":127,"measure":107,"beat":2.0,"subject_pos":-1,"motif":"","motif_pos":-1,"best_pos":4,"similarity":0.243,"stretto":false,"stretto_voices":0,"combination":[]},{"voice":0,"pitch":73,"start":212.75,"duration":0.25,"velocity":127,"measure":107,"beat":2.5,"subject_pos":-1,"motif":"","motif_pos":-1,"best_pos":4,"similarity":0.704,"stretto":false,"stretto_voices":0,"combination":[]},{"voice":0,"pitch":74,"start":213.0,"duration":1.25,"velocity":127,"measure":107,"beat":3.0,"subject_pos":-1,"motif":"","motif_pos":-1,"best_pos":5,"similarity":0.625,"stretto":false,"stretto_voices":0,"combination":[]},{"voice":2,"pitch":50,"start":213.0,"duration":1.0,"velocity":127,"measure":107,"beat":3.0,"subject_pos":1,"motif":"subject_inv","motif_pos":1,"best_pos":1,"similarity":1.0,"stretto":false,"stretto_voices":0,"combination":[]},{"voice":1,"pitch":67,"start":213.25,"duration":0.25,"velocity":127,"measure":107,"beat":3.5,"subject_pos":-1,"motif":"","motif_pos":-1,"best_pos":1,"similarity":0.386,"stretto":false,"stretto_voices":0,"combination":[]},{"voice":1,"pitch":65,"start":213.5,"duration":0.25,"velocity":127,"measure":107,"beat":4.0,"subject_pos":-1,"motif":"","motif_pos":-1,"best_pos":3,"similarity":0.493,"stretto":false,"stretto_voices":0,"combination":[]},{"voice":3,"pitch":46,"start":213.5,"duration":1.0,"velocity":127,"measure":107,"beat":4.0,"subject_pos":-1,"motif":"","motif_pos":-1,"best_pos":5,"similarity":0.193,"stretto":false,"stretto_voices":0,"combination":[]},{"voice":1,"pitch":64,"start":213.75,"duration":0.25,"velocity":127,"measure":107,"beat":4.5,"subject_pos":-1,"motif":"","motif_pos":-1,"best_pos":4,"similarity":0.5,"stretto":false,"stretto_voices":0,"combination":[]},{"voice":1,"pitch":62,"start":214.0,"duration":0.5,"velocity":127,"measure":108,"beat":1.0,"subject_pos":-1,"motif":"","motif_pos":-1,"best_pos":4,"similarity":0.471,"stretto":false,"stretto_voices":0,"combination":[]},{"voice":2,"pitch":53,"start":214.0,"duration":1.0,"velocity":127,"measure":108,"beat":1.0,"subject_pos":2,"motif":"subject_inv","motif_pos":2,"best_pos":2,"similarity":1.0,"stretto":false,"stretto_voices":0,"combination":[]},{"voice":0,"pitch":75,"start":214.25,"duration":0.25,"velocity":127,"measure":108,"beat":1.5,"subject_pos":-1,"motif":"","motif_pos":-1,"best_pos":6,"similarity":0.429,"stretto":false,"stretto_voices":0,"combination":[]},{"voice":0,"pitch":74,"start":214.5,"duration":0.25,"velocity":127,"measure":108,"beat":2.0,"subject_pos":-1,"motif":"","motif_pos":-1,"best_pos":3,"similarity":0.557,"stretto":false,"stretto_voices":0,"combination":[]},{"voice":1,"pitch":65,"start":214.5,"duration":0.75,"velocity":127,"measure":108,"beat":2.0,"subject_pos":-1,"motif":"","motif_pos":-1,"best_pos":5,"similarity":0.461,"stretto":false,"stretto_voices":0,"combination":[]},{"voice":3,"pitch":50,"start":214.5,"duration":1.0,"velocity":127,"measure":108,"beat":2.0,"subject_pos":-1,"motif":"","motif_pos":-1,"best_pos":5,"similarity":0.243,"stretto":false,"stretto_voices":0,"combination":[]},{"voice":0,"pitch":73,"start":214.75,"duration":0.25,"velocity":127,"measure":108,"beat":2.5,"subject_pos":-1,"motif":"","motif_pos":-1,"best_pos":4,"similarity":0.704,"stretto":false,"stretto_voices":0,"combination":[]},{"voice":0,"pitch":74,"start":215.0,"duration":1.25,"velocity":127,"measure":108,"beat":3.0,"subject_pos":-1,"motif":"","motif_pos":-1,"best_pos":5,"similarity":0.625,"stretto":false,"stretto_voices":0,"combination":[]},{"voice":2,"pitch":57,"start":215.0,"duration":1.0,"velocity":127,"measure":108,"beat":3.0,"subject_pos":3,"motif":"subject_inv","motif_pos":3,"best_pos":3,"similarity":1.0,"stretto":false,"stretto_voices":0,"combination":[]},{"voice":1,"pitch":67,"start":215.25,"duration":0.25,"velocity":127,"measure":108,"beat":3.5,"subject_pos":-1,"motif":"","motif_pos":-1,"best_pos":1,"similarity":0.386,"stretto":false,"stretto_voices":0,"combination":[]},{"voice":1,"pitch":65,"start":215.5,"duration":0.25,"velocity":127,"measure":108,"beat":4.0,"subject_pos":-1,"motif":"","motif_pos":-1,"best_pos":3,"similarity":0.546,"stretto":false,"stretto_voices":0,"combination":[]},{"voice":3,"pitch":53,"start":215.5,"duration":1.0,"velocity":127,"measure":108,"beat":4.0,"subject_pos":-1,"motif":"","motif_pos":-1,"best_pos":5,"similarity":0.379,"stretto":false,"stretto_voices":0,"combination":[]},{"voice":1,"pitch":64,"start":215.75,"duration":0.25,"velocity":127,"measure":108,"beat":4.5,"subject_pos":-1,"motif":"","motif_pos":-1,"best_pos":4,"similarity":0.607,"stretto":false,"stretto_voices":0,"combination":[]},{"voice":1,"pitch":62,"start":216.0,"duration":0.5,"velocity":127,"measure":109,"beat":1.0,"subject_pos":-1,"motif":"","motif_pos":-1,"best_pos":5,"similarity":0.636,"stretto":false,"stretto_voices":0,"combination":[]},{"voice":2,"pitch":58,"start":216.0,"duration":1.0,"velocity":127,"measure":109,"beat":1.0,"subject_pos":4,"motif":"subject_inv","motif_pos":4,"best_pos":4,"similarity":1.0,"stretto":false,"stretto_voices":0,"combination":[]},{"voice":0,"pitch":75,"start":216.25,"duration":0.25,"velocity":127,"measure":109,"beat":1.5,"subject_pos":-1,"motif":"","motif_pos":-1,"best_pos":6,"similarity":0.429,"stretto":false,"stretto_voices":0,"combination":[]},{"voice":0,"pitch":74,"start":216.5,"duration":0.25,"velocity":127,"measure":109,"beat":2.0,"subject_pos":-1,"motif":"tail","motif_pos":3,"best_pos":3,"similarity":1.0,"stretto":false,"stretto_voices":0,"combination":[]},{"voice":1,"pitch":64,"start":216.5,"duration":0.5,"velocity":127,"measure":109,"beat":2.0,"subject_pos":-1,"motif":"","motif_pos":-1,"best_pos":6,"similarity":0.657,"stretto":false,"stretto_voices":0,"combination":[]},{"voice":3,"pitch":55,"start":216.5,"duration":0.75,"velocity":127,"measure":109,"beat":2.0,"subject_pos":-1,"motif":"","motif_pos":-1,"best_pos":1,"similarity":0.386,"stretto":false,"stretto_voices":0,"combination":[]},{"voice":0,"pitch":73,"start":216.75,"duration":0.25,"velocity":127,"measure":109,"beat":2.5,"subject_pos":-1,"motif":"tail","motif_pos":4,"best_pos":4,"similarity":1.0,"stretto":false,"stretto_voices":0,"combination":[]},{"voice":0,"pitch":74,"start":217.0,"duration":0.75,"velocity":127,"measure":109,"beat":3.0,"subject_pos":-1,"motif":"tail","motif_pos":5,"best_pos":5,"similarity":1.0,"stretto":false,"stretto_voices":0,"combination":[]},{"voice":1,"pitch":65,"start":217.0,"duration":0.25,"velocity":127,"measure":109,"beat":3.0,"subject_pos":-1,"motif":"","motif_pos":-1,"best_pos":5,"similarity":0.479,"stretto":false,"stretto_voices":0,"combination":[]},{"voice":2,"pitch":57,"start":217.0,"duration":0.5,"velocity":127,"measure":109,"beat":3.0,"subject_pos":5,"motif":"subject_inv","motif_pos":5,"best_pos":5,"similarity":1.0,"stretto":false,"stretto_voices":0,"combination":[]},{"voice":1,"pitch":69,"start":217.25,"duration":0.25,"velocity":127,"measure":109,"beat":3.5,"subject_pos":-1,"motif":"","motif_pos":-1,"best_pos":5,"similarity":0.421,"stretto":false,"stretto_voices":0,"combination":[]},{"voice":3,"pitch":53,"start":217.25,"duration":0.5,"velocity":127,"measure":109,"beat":3.5,"subject_pos":-1,"motif":"","motif_pos":-1,"best_pos":3,"similarity":0.482,"stretto":false,"stretto_voices":0,"combination":[]},{"voice":1,"pitch":71,"start":217.5,"duration":0.25,"velocity":127,"measure":109,"beat":4.0,"subject_pos":-1,"motif":"","motif_pos":-1,"best_pos":5,"similarity":0.579,"stretto":false,"stretto_voices":0,"combination":[]},{"voice":2,"pitch":55,"start":217.5,"duration":0.5,"velocity":127,"measure":109,"beat":4.0,"subject_pos":6,"motif":"subject_inv","motif_pos":6,"best_pos":6,"similarity":1.0,"stretto":false,"stretto_voices":0,"combination":[]},{"voice":0,"pitch":76,"start":217.75,"duration":0.25,"velocity":127,"measure":109,"beat":4.5,"subject_pos":-1,"motif":"tail","motif_pos":6,"best_pos":6,"similarity":1.0,"stretto":false,"stretto_voices":0,"combination":[]},{"voice":1,"pitch":73,"start":217.75,"duration":0.25,"velocity":127,"measure":109,"beat":4.5,"subject_pos":-1,"motif":"","motif_pos":-1,"best_pos":6,"similarity":0.643,"stretto":false,"stretto_voices":0,"combination":[]},{"voice":3,"pitch":52,"start":217.75,"duration":0.25,"velocity":127,"measure":109,"beat":4.5,"subject_pos":-1,"motif":"","motif_pos":-1,"best_pos":2,"similarity":0.5,"stretto":false,"stretto_voices":0,"combination":[]},{"voice":0,"pitch":77,"start":218.0,"duration":0.5,"velocity":127,"measure":110,"beat":1.0,"subject_pos":-1,"motif":"tail","motif_pos":7,"best_pos":7,"similarity":1.0,"stretto":false,"stretto_voices":0,"combination":[]},{"voice":1,"pitch":74,"start":218.0,"duration":0.5,"velocity":127,"measure":110,"beat":1.0,"subject_pos":-1,"motif":"","motif_pos":-1,"best_pos":7,"similarity":0.464,"stretto":false,"stretto_voices":0,"combination":[]},{"voice":2,"pitch":53,"start":218.0,"duration":1.25,"velocity":127,"measure":110,"beat":1.0,"subject_pos":7,"motif":"subject_inv","motif_pos":7,"best_pos":7,"similarity":1.0,"stretto":false,"stretto_voices":0,"combination":[]},{"voice":3,"pitch":50,"start":218.0,"duration":1.25,"velocity":127,"measure":110,"beat":1.0,"subject_pos":-1,"motif":"tail","motif_pos":3,"best_pos":3,"similarity":1.0,"stretto":false,"stretto_voices":0,"combination":[]},{"voice":0,"pitch":81,"start":218.5,"duration":0.5,"velocity":127,"measure":110,"beat":2.0,"subject_pos":-1,"motif":"","motif_pos":-1,"best_pos":1,"similarity":0.579,"stretto":false,"stretto_voices":0,"combination":[]},{"voice":1,"pitch":77,"start":218.5,"duration":0.5,"velocity":127,"measure":110,"beat":2.0,"subject_pos":-1,"motif":"","motif_pos":-1,"best_pos":6,"similarity":0.321,"stretto":false,"stretto_voices":0,"combination":[]},{"voice":0,"pitch":77,"start":219.0,"duration":0.5,"velocity":127,"measure":110,"beat":3.0,"subject_pos":-1,"motif":"","motif_pos":-1,"best_pos":2,"similarity":0.675,"stretto":false,"stretto_voices":0,"combination":[]},{"voice":1,"pitch":74,"start":219.0,"duration":0.5,"velocity":127,"measure":110,"beat":3.0,"subject_pos":-1,"motif":"","motif_pos":-1,"best_pos":3,"similarity":0.321,"stretto":false,"stretto_voices":0,"combination":[]},{"voice":2,"pitch":52,"start":219.25,"duration":0.25,"velocity":127,"measure":110,"beat":3.5,"subject_pos":-1,"motif":"","motif_pos":-1,"best_pos":4,"similarity":0.893,"stretto":false,"stretto_voices":0,"combination":[]},{"voice":3,"pitch":49,"start":219.25,"duration":0.25,"velocity":127,"measure":110,"beat":3.5,"subject_pos":-1,"motif":"tail","motif_pos":4,"best_pos":4,"similarity":1.0,"stretto":false,"stretto_voices":0,"combination":[]},{"voice":1,"pitch":69,"start":219.5,"duration":0.5,"velocity":127,"measure":110,"beat":4.0,"subject_pos":-1,"motif":"","motif_pos":-1,"best_pos":1,"similarity":0.321,"stretto":false,"stretto_voices":0,"combination":[]},{"voice":2,"pitch":53,"start":219.5,"duration":0.25,"velocity":127,"measure":110,"beat":4.0,"subject_pos":-1,"motif":"","motif_pos":-1,"best_pos":5,"similarity":0.821,"stretto":false,"stretto_voices":0,"combination":[]},{"voice":3,"pitch":50,"start":219.5,"duration":0.25,"velocity":127,"measure":110,"beat":4.0,"subject_pos":-1,"motif":"tail","motif_pos":5,"best_pos":5,"similarity":1.0,"stretto":false,"stretto_voices":0,"combination":[]},{"voice":2,"pitch":55,"start":219.75,"duration":0.25,"velocity":127,"measure":110,"beat":4.5,"subject_pos":-1,"motif":"","motif_pos":-1,"best_pos":6,"similarity":0.643,"stretto":false,"stretto_voices":0,"combination":[]},{"voice":3,"pitch":52,"start":219.75,"duration":0.25,"velocity":127,"measure":110,"beat":4.5,"subject_pos":-1,"motif":"tail","motif_pos":6,"best_pos":6,"similarity":1.0,"stretto":false,"stretto_voices":0,"combination":[]},{"voice":0,"pitch":74,"start":220.0,"duration":0.5,"velocity":127,"measure":111,"beat":1.0,"subject_pos":0,"motif":"subject_inv","motif_pos":0,"best_pos":0,"similarity":1.0,"stretto":false,"stretto_voices":0,"combination":[]},{"voice":1,"pitch":65,"start":220.0,"duration":1.0,"velocity":127,"measure":111,"beat":1.0,"subject_pos":-1,"motif":"","motif_pos":-1,"best_pos":2,"similarity":0.364,"stretto":false,"stretto_voices":0,"combination":[]},{"voice":2,"pitch":57,"start":220.0,"duration":0.25,"velocity":127,"measure":111,"beat":1.0,"subject_pos":-1,"motif":"","motif_pos":-1,"best_pos":6,"similarity":0.661,"stretto":false,"stretto_voices":0,"combination":[]},{"voice":3,"pitch":53,"start":220.0,"duration":1.25,"velocity":127,"measure":111,"beat":1.0,"subject_pos":-1,"motif":"tail","motif_pos":7,"best_pos":7,"similarity":1.0,"stretto":false,"stretto_voices":0,"combination":[]},{"voice":2,"pitch":58,"start":220.25,"duration":0.25,"velocity":127,"measure":111,"beat":1.5,"subject_pos":-1,"motif":"","motif_pos":-1,"best_pos":7,"similarity":0.464,"stretto":false,"stretto_voices":0,"combination":[]},{"voice":0,"pitch":69,"start":220.5,"duration":1.0,"velocity":127,"measure":111,"beat":2.0,"subject_pos":1,"motif":"subject_inv","motif_pos":1,"best_pos":1,"similarity":1.0,"stretto":false,"stretto_voices":0,"combination":[]},{"voice":2,"pitch":57,"start":220.5,"duration":0.25,"velocity":127,"measure":111,"beat":2.0,"subject_pos":-1,"motif":"","motif_pos":-1,"best_pos":3,"similarity":0.539,"stretto":false,"stretto_voices":0,"combination":[]},{"voice":2,"pitch":56,"start":220.75,"duration":0.25,"velocity":127,"measure":111,"beat":2.5,"subject_pos":-1,"motif":"","motif_pos":-1,"best_pos":4,"similarity":0.657,"stretto":false,"stretto_voices":0,"combination":[]},{"voice":1,"pitch":60,"start":221.0,"duration":1.0,"velocity":127,"measure":111,"beat":3.0,"subject_pos":-1,"motif":"","motif_pos":-1,"best_pos":4,"similarity":0.271,"stretto":false,"stretto_voices":0,"combination":[]},{"voice":2,"pitch":57,"start":221.0,"duration":1.25,"velocity":127,"measure":111,"beat":3.0,"subject_pos":-1,"motif":"","motif_pos":-1,"best_pos":5,"similarity":0.532,"stretto":false,"stretto_voices":0,"combination":[]},{"voice":3,"pitch":53,"start":221.25,"duration":0.25,"velocity":127,"measure":111,"beat":3.5,"subject_pos":-1,"motif":"","motif_pos":-1,"best_pos":3,"similarity":0.357,"stretto":false,"stretto_voices":0,"combination":[]},{"voice":0,"pitch":72,"start":221.5,"duration":1.0,"velocity":127,"measure":111,"beat":4.0,"subject_pos":2,"motif":"subject_inv","motif_pos":2,"best_pos":2,"similarity":1.0,"stretto":false,"stretto_voices":0,"combination":[]},{"voice":3,"pitch":52,"start":221.5,"duration":0.25,"velocity":127,"measure":111,"beat":4.0,"subject_pos":-1,"motif":"","motif_pos":-1,"best_pos":1,"similarity":0.429,"stretto":false,"stretto_voices":0,"combination":[]},{"voice":3,"pitch":50,"start":221.75,"duration":0.25,"velocity":127,"measure":111,"beat":4.5,"subject_pos":-1,"motif":"","motif_pos":-1,"best_pos":2,"similarity":0.589,"stretto":false,"stretto_voices":0,"combination":[]},{"voice":1,"pitch":64,"start":222.0,"duration":1.0,"velocity":127,"measure":112,"beat":1.0,"subject_pos":-1,"motif":"","motif_pos":-1,"best_pos":5,"similarity":0.293,"stretto":false,"stretto_voices":0,"combination":[]},{"voice":3,"pitch":48,"start":222.0,"duration":1.25,"velocity":127,"measure":112,"beat":1.0,"subject_pos":-1,"motif":"","motif_pos":-1,"best_pos":3,"similarity":0.614,"stretto":false,"stretto_voices":0,"combination":[]},{"voice":2,"pitch":57,"start":222.25,"duration":0.25,"velocity":127,"measure":112,"beat":1.5,"subject_pos":-1,"motif":"","motif_pos":-1,"best_pos":1,"similarity":0.429,"stretto":false,"stretto_voices":0,"combination":[]},{"voice":0,"pitch":76,"start":222.5,"duration":1.0,"velocity":127,"measure":112,"beat":2.0,"subject_pos":3,"motif":"subject_inv","motif_pos":3,"best_pos":3,"similarity":1.0,"stretto":false,"stretto_voices":0,"combination":[]},{"voice":2,"pitch":55,"start":222.5,"duration":0.25,"velocity":127,"measure":112,"beat":2.0,"subject_pos":-1,"motif":"","motif_pos":-1,"best_pos":2,"similarity":0.579,"stretto":false,"stretto_voices":0,"combination":[]},{"voice":2,"pitch":53,"start":222.75,"duration":0.25,"velocity":127,"measure":112,"beat":2.5,"subject_pos":-1,"motif":"","motif_pos":-1,"best_pos":3,"similarity":0.657,"stretto":false,"stretto_voices":0,"combination":[]},{"voice":1,"pitch":68,"start":223.0,"duration":1.0,"velocity":127,"measure":112,"beat":3.0,"subject_pos":-1,"motif":"","motif_pos":-1,"best_pos":6,"similarity":0.379,"stretto":false,"stretto_voices":0,"combination":[]},{"voice":2,"pitch":52,"start":223.0,"duration":0.5,"velocity":127,"measure":112,"beat":3.0,"subject_pos":-1,"motif":"","motif_pos":-1,"best_pos":4,"similarity":0.607,"stretto":false,"stretto_voices":0,"combination":[]},{"voice":3,"pitch":47,"start":223.25,"duration":0.5,"velocity":127,"measure":112,"beat":3.5,"subject_pos":-1,"motif":"","motif_pos":-1,"best_pos":3,"similarity":0.536,"stretto":false,"stretto_voices":0,"combination":[]},{"voice":0,"pitch":77,"start":223.5,"duration":1.0,"velocity":127,"measure":112,"beat":4.0,"subject_pos":4,"motif":"subject_inv","motif_pos":4,"best_pos":4,"similarity":1.0,"stretto":false,"stretto_voices":0,"combination":[]},{"voice":2,"pitch":50,"start":223.5,"duration":0.75,"velocity":127,"measure":112,"beat":4.0,"subject_pos":-1,"motif":"","motif_pos":-1,"best_pos":5,"similarity":0.507,"stretto":false,"stretto_voices":0,"combination":[]},{"voice":3,"pitch":46,"start":223.75,"duration":0.25,"velocity":127,"measure":112,"beat":4.5,"subject_pos":-1,"motif":"","motif_pos":-1,"best_pos":3,"similarity":0.5,"stretto":false,"stretto_voices":0,"combination":[]},{"voice":1,"pitch":69,"start":224.0,"duration":1.0,"velocity":127,"measure":113,"beat":1.0,"subject_pos":-1,"motif":"","motif_pos":-1,"best_pos":1,"similarity":0.457,"stretto":false,"stretto_voices":0,"combination":[]},{"voice":3,"pitch":45,"start":224.0,"duration":2.25,"velocity":127,"measure":113,"beat":1.0,"subject_pos":-1,"motif":"","motif_pos":-1,"best_pos":4,"similarity":0.571,"stretto":false,"stretto_voices":0,"combination":[]},{"voice":2,"pitch":52,"start":224.25,"duration":0.25,"velocity":127,"measure":113,"beat":1.5,"subject_pos":-1,"motif":"","motif_pos":-1,"best_pos":6,"similarity":0.4,"stretto":false,"stretto_voices":0,"combination":[]},{"voice":0,"pitch":76,"start":224.5,"duration":1.0,"velocity":127,"measure":113,"beat":2.0,"subject_pos":5,"motif":"subject_inv","motif_pos":5,"best_pos":5,"similarity":1.0,"stretto":false,"stretto_voices":0,"combination":[]},{"voice":2,"pitch":50,"start":224.5,"duration":0.25,"velocity":127,"measure":113,"beat":2.0,"subject_pos":-1,"motif":"tail","motif_pos":3,"best_pos":3,"similarity":1.0,"stretto":false,"stretto_voices":0,"combination":[]},{"voice":2,"pitch":49,"start":224.75,"duration":0.25,"velocity":127,"measure":113,"beat":2.5,"subject_pos":-1,"motif":"tail","motif_pos":4,"best_pos":4,"similarity":1.0,"stretto":false,"stretto_voices":0,"combination":[]},{"voice":1,"pitch":67,"start":225.0,"duration":0.5,"velocity":127,"measure":113,"beat":3.0,"subject_pos":-1,"motif":"","motif_pos":-1,"best_pos":2,"similarity":0.593,"stretto":false,"stretto_voices":0,"combination":[]},{"voice":2,"pitch":50,"start":225.0,"duration":0.25,"velocity":127,"measure":113,"beat":3.0,"subject_pos":-1,"motif":"tail","motif_pos":5,"best_pos":5,"similarity":1.0,"stretto":false,"stretto_voices":0,"combination":[]},{"voice":2,"pitch":52,"start":225.25,"duration":0.25,"velocity":127,"measure":113,"beat":3.5,"subject_pos":-1,"motif":"tail","motif_pos":6,"best_pos":6,"similarity":1.0,"stretto":false,"stretto_voices":0,"combination":[]},{"voice":0,"pitch":74,"start":225.5,"duration":1.0,"velocity":127,"measure":113,"beat":4.0,"subject_pos":6,"motif":"subject_inv","motif_pos":6,"best_pos":6,"similarity":1.0,"stretto":false,"stretto_voices":0,"combination":[]},{"voice":1,"pitch":65,"start":225.5,"duration":0.5,"velocity":127,"measure":113,"beat":4.0,"subject_pos":-1,"motif":"","motif_pos":-1,"best_pos":3,"similarity":0.629,"stretto":false,"stretto_voices":0,"combination":[]},{"voice":2,"pitch":53,"start":225.5,"duration":0.25,"velocity":127,"measure":113,"beat":4.0,"subject_pos":-1,"motif":"tail","motif_pos":7,"best_pos":7,"similarity":1.0,"stretto":false,"stretto_voices":0,"combination":[]},{"voice":2,"pitch":55,"start":225.75,"duration":0.25,"velocity":127,"measure":113,"beat":4.5,"subject_pos":-1,"motif":"","motif_pos":-1,"best_pos":6,"similarity":0.579,"stretto":false,"stretto_voices":0,"combination":[]},{"voice":1,"pitch":64,"start":226.0,"duration":1.25,"velocity":127,"measure":114,"beat":1.0,"subject_pos":-1,"motif":"","motif_pos":-1,"best_pos":4,"similarity":0.564,"stretto":false,"stretto_voices":0,"combination":[]},{"voice":2,"pitch":57,"start":226.0,"duration":0.25,"velocity":127,"measure":114,"beat":1.0,"subject_pos":-1,"motif":"","motif_pos":-1,"best_pos":6,"similarity":0.446,"stretto":false,"stretto_voices":0,"combination":[]},{"voice":3,"pitch":55,"start":226.25,"duration":0.25,"velocity":127,"measure":114,"beat":1.5,"subject_pos":-1,"motif":"","motif_pos":-1,"best_pos":5,"similarity":0.589,"stretto":false,"stretto_voices":0,"combination":[]},{"voice":0,"pitch":73,"start":226.5,"duration":0.75,"velocity":127,"measure":114,"beat":2.0,"subject_pos":7,"motif":"subject_inv","motif_pos":7,"best_pos":7,"similarity":1.0,"stretto":false,"stretto_voices":0,"combination":[]},{"voice":3,"pitch":57,"start":226.5,"duration":0.25,"velocity":127,"measure":114,"beat":2.0,"subject_pos":-1,"motif":"","motif_pos":-1,"best_pos":6,"similarity":0.643,"stretto":false,"stretto_voices":0,"combination":[]},{"voice":3,"pitch":58,"start":226.75,"duration":0.25,"velocity":127,"measure":114,"beat":2.5,"subject_pos":-1,"motif":"","motif_pos":-1,"best_pos":7,"similarity":0.429,"stretto":false,"stretto_voices":0,"combination":[]},{"voice":3,"pitch":57,"start":227.0,"duration":0.25,"velocity":127,"measure":114,"beat":3.0,"subject_pos":-1,"motif":"","motif_pos":-1,"best_pos":1,"similarity":0.429,"stretto":false,"stretto_voices":0,"combination":[]},{"voice":0,"pitch":69,"start":227.25,"duration":0.25,"velocity":127,"measure":114,"beat":3.5,"subject_pos":-1,"motif":"","motif_pos":-1,"best_pos":5,"similarity":0.536,"stretto":false,"stretto_voices":0,"combination":[]},{"voice":1,"pitch":61,"start":227.25,"duration":0.25,"velocity":127,"measure":114,"beat":3.5,"subject_pos":-1,"motif":"","motif_pos":-1,"best_pos":4,"similarity":0.607,"stretto":false,"stretto_voices":0,"combination":[]},{"voice":3,"pitch":55,"start":227.25,"duration":0.25,"velocity":127,"measure":114,"beat":3.5,"subject_pos":-1,"motif":"","motif_pos":-1,"best_pos":2,"similarity":0.607,"stretto":false,"stretto_voices":0,"combination":[]},{"voice":0,"pitch":71,"start":227.5,"duration":0.25,"velocity":127,"measure":114,"beat":4.0,"subject_pos":-1,"motif":"","motif_pos":-1,"best_pos":5,"similarity":0.604,"stretto":false,"stretto_voices":0,"combination":[]},{"voice":1,"pitch":62,"start":227.5,"duration":0.25,"velocity":127,"measure":114,"beat":4.0,"subject_pos":-1,"motif":"","motif_pos":-1,"best_pos":5,"similarity":0.625,"stretto":false,"stretto_voices":0,"combination":[]},{"voice":3,"pitch":53,"start":227.5,"duration":0.25,"velocity":127,"measure":114,"beat":4.0,"subject_pos":-1,"motif":"","motif_pos":-1,"best_pos":3,"similarity":0.643,"stretto":false,"stretto_voices":0,"combination":[]},{"voice":0,"pitch":73,"start":227.75,"duration":0.25,"velocity":127,"measure":114,"beat":4.5,"subject_pos":-1,"motif":"","motif_pos":-1,"best_pos":6,"similarity":0.65,"stretto":false,"stretto_voices":0,"combination":[]},{"voice":1,"pitch":64,"start":227.75,"duration":0.25,"velocity":127,"measure":114,"beat":4.5,"subject_pos":-1,"motif":"","motif_pos":-1,"best_pos":6,"similarity":0.446,"stretto":false,"stretto_voices":0,"combination":[]},{"voice":3,"pitch":52,"start":227.75,"duration":0.25,"velocity":127,"measure":114,"beat":4.5,"subject_pos":-1,"motif":"","motif_pos":-1,"best_pos":4,"similarity":0.571,"stretto":false,"stretto_voices":0,"combination":[]},{"voice":0,"pitch":74,"start":228.0,"duration":1.0,"velocity":127,"measure":115,"beat":1.0,"subject_pos":-1,"motif":"","motif_pos":-1,"best_pos":7,"similarity":0.464,"stretto":false,"stretto_voices":0,"combination":[]},{"voice":1,"pitch":57,"start":228.0,"duration":0.5,"velocity":127,"measure":115,"beat":1.0,"subject_pos":-1,"motif":"","motif_pos":-1,"best_pos":7,"similarity":0.214,"stretto":false,"stretto_voices":0,"combination":[]},{"voice":3,"pitch":54,"start":228.0,"duration":1.0,"velocity":127,"measure":115,"beat":1.0,"subject_pos":-1,"motif":"","motif_pos":-1,"best_pos":6,"similarity":0.357,"stretto":false,"stretto_voices":0,"combination":[]},{"voice":2,"pitch":60,"start":228.25,"duration":0.25,"velocity":127,"measure":115,"beat":1.5,"subject_pos":-1,"motif":"","motif_pos":-1,"best_pos":5,"similarity":0.514,"stretto":false,"stretto_voices":0,"combination":[]},{"voice":1,"pitch":69,"start":228.5,"duration":0.5,"velocity":127,"measure":115,"beat":2.0,"subject_pos":-1,"motif":"","motif_pos":-1,"best_pos":2,"similarity":0.429,"stretto":false,"stretto_voices":0,"combination":[]},{"voice":2,"pitch":62,"start":228.5,"duration":0.25,"velocity":127,"measure":115,"beat":2.0,"subject_pos":-1,"motif":"","motif_pos":-1,"best_pos":6,"similarity":0.614,"stretto":false,"stretto_voices":0,"combination":[]},{"voice":2,"pitch":63,"start":228.75,"duration":0.25,"velocity":127,"measure":115,"beat":2.5,"subject_pos":-1,"motif":"","motif_pos":-1,"best_pos":7,"similarity":0.446,"stretto":false,"stretto_voices":0,"combination":[]},{"voice":1,"pitch":66,"start":229.0,"duration":1.0,"velocity":127,"measure":115,"beat":3.0,"subject_pos":-1,"motif":"","motif_pos":-1,"best_pos":3,"similarity":0.643,"stretto":false,"stretto_voices":0,"combination":[]},{"voice":2,"pitch":62,"start":229.0,"duration":0.25,"velocity":127,"measure":115,"beat":3.0,"subject_pos":-1,"motif":"","motif_pos":-1,"best_pos":1,"similarity":0.429,"stretto":false,"stretto_voices":0,"combination":[]},{"voice":2,"pitch":60,"start":229.25,"duration":0.25,"velocity":127,"measure":115,"beat":3.5,"subject_pos":-1,"motif":"","motif_pos":-1,"best_pos":2,"similarity":0.579,"stretto":false,"stretto_voices":0,"combination":[]},{"voice":0,"pitch":74,"start":229.5,"duration":0.5,"velocity":127,"measure":115,"beat":4.0,"subject_pos":-1,"motif":"","motif_pos":-1,"best_pos":2,"similarity":0.336,"stretto":false,"stretto_voices":0,"combination":[]},{"voice":2,"pitch":58,"start":229.5,"duration":0.25,"velocity":127,"measure":115,"beat":4.0,"subject_pos":-1,"motif":"","motif_pos":-1,"best_pos":3,"similarity":0.586,"stretto":false,"stretto_voices":0,"combination":[]},{"voice":3,"pitch":50,"start":229.5,"duration":0.5,"velocity":127,"measure":115,"beat":4.0,"subject_pos":-1,"motif":"","motif_pos":-1,"best_pos":2,"similarity":0.336,"stretto":false,"stretto_voices":0,"combination":[]},{"voice":2,"pitch":57,"start":229.75,"duration":0.25,"velocity":127,"measure":115,"beat":4.5,"subject_pos":-1,"motif":"","motif_pos":-1,"best_pos":4,"similarity":0.457,"stretto":false,"stretto_voices":0,"combination":[]},{"voice":0,"pitch":70,"start":230.0,"duration":1.0,"velocity":127,"measure":116,"beat":1.0,"subject_pos":-1,"motif":"","motif_pos":-1,"best_pos":3,"similarity":0.471,"stretto":false,"stretto_voices":0,"combination":[]},{"voice":2,"pitch":55,"start":230.0,"duration":0.5,"velocity":127,"measure":116,"beat":1.0,"subject_pos":-1,"motif":"","motif_pos":-1,"best_pos":0,"similarity":0.5,"stretto":false,"stretto_voices":0,"combination":[]},{"voice":3,"pitch":43,"start":230.0,"duration":0.5,"velocity":127,"measure":116,"beat":1.0,"subject_pos":-1,"motif":"","motif_pos":-1,"best_pos":3,"similarity":0.193,"stretto":false,"stretto_voices":0,"combination":[]},{"voice":1,"pitch":66,"start":230.25,"duration":0.25,"velocity":127,"measure":116,"beat":1.5,"subject_pos":-1,"motif":"","motif_pos":-1,"best_pos":4,"similarity":0.721,"stretto":false,"stretto_voices":0,"combination":[]},{"voice":1,"pitch":67,"start":230.5,"duration":0.25,"velocity":127,"measure":116,"beat":2.0,"subject_pos":-1,"motif":"","motif_pos":-1,"best_pos":5,"similarity":0.729,"stretto":false,"stretto_voices":0,"combination":[]},{"voice":2,"pitch":62,"start":230.5,"duration":0.5,"velocity":127,"measure":116,"beat":2.0,"subject_pos":-1,"motif":"","motif_pos":-1,"best_pos":1,"similarity":0.721,"stretto":false,"stretto_voices":0,"combination":[]},{"voice":1,"pitch":69,"start":230.75,"duration":0.25,"velocity":127,"measure":116,"beat":2.5,"subject_pos":-1,"motif":"","motif_pos":-1,"best_pos":6,"similarity":0.493,"stretto":false,"stretto_voices":0,"combination":[]},{"voice":1,"pitch":67,"start":231.0,"duration":0.25,"velocity":127,"measure":116,"beat":3.0,"subject_pos":-1,"motif":"","motif_pos":-1,"best_pos":2,"similarity":0.593,"stretto":false,"stretto_voices":0,"combination":[]},{"voice":2,"pitch":58,"start":231.0,"duration":1.25,"velocity":127,"measure":116,"beat":3.0,"subject_pos":-1,"motif":"","motif_pos":-1,"best_pos":2,"similarity":0.8,"stretto":false,"stretto_voices":0,"combination":[]},{"voice":1,"pitch":65,"start":231.25,"duration":0.25,"velocity":127,"measure":116,"beat":3.5,"subject_pos":-1,"motif":"","motif_pos":-1,"best_pos":3,"similarity":0.6,"stretto":false,"stretto_voices":0,"combination":[]},{"voice":1,"pitch":64,"start":231.5,"duration":0.25,"velocity":127,"measure":116,"beat":4.0,"subject_pos":-1,"motif":"","motif_pos":-1,"best_pos":4,"similarity":0.479,"stretto":false,"stretto_voices":0,"combination":[]},{"voice":3,"pitch":55,"start":231.5,"duration":0.5,"velocity":127,"measure":116,"beat":4.0,"subject_pos":-1,"motif":"","motif_pos":-1,"best_pos":2,"similarity":0.307,"stretto":false,"stretto_voices":0,"combination":[]},{"voice":1,"pitch":62,"start":231.75,"duration":0.25,"velocity":127,"measure":116,"beat":4.5,"subject_pos":-1,"motif":"","motif_pos":-1,"best_pos":2,"similarity":0.5,"stretto":false,"stretto_voices":0,"combination":[]},{"voice":1,"pitch":60,"start":232.0,"duration":0.5,"velocity":127,"measure":117,"beat":1.0,"subject_pos":-1,"motif":"","motif_pos":-1,"best_pos":3,"similarity":0.5,"stretto":false,"stretto_voices":0,"combination":[]},{"voice":3,"pitch":52,"start":232.0,"duration":1.0,"velocity":127,"measure":117,"beat":1.0,"subject_pos":-1,"motif":"","motif_pos":-1,"best_pos":3,"similarity":0.329,"stretto":false,"stretto_voices":0,"combination":[]},{"voice":0,"pitch":70,"start":232.25,"duration":0.25,"velocity":127,"measure":117,"beat":1.5,"subject_pos":-1,"motif":"","motif_pos":-1,"best_pos":4,"similarity":0.525,"stretto":false,"stretto_voices":0,"combination":[]},{"voice":2,"pitch":55,"start":232.25,"duration":0.25,"velocity":127,"measure":117,"beat":1.5,"subject_pos":-1,"motif":"","motif_pos":-1,"best_pos":3,"similarity":0.679,"stretto":false,"stretto_voices":0,"combination":[]},{"voice":0,"pitch":72,"start":232.5,"duration":0.25,"velocity":127,"measure":117,"beat":2.0,"subject_pos":-1,"motif":"","motif_pos":-1,"best_pos":5,"similarity":0.55,"stretto":false,"stretto_voices":0,"combination":[]},{"voice":2,"pitch":57,"start":232.5,"duration":0.25,"velocity":127,"measure":117,"beat":2.0,"subject_pos":-1,"motif":"","motif_pos":-1,"best_pos":6,"similarity":0.593,"stretto":false,"stretto_voices":0,"combination":[]},{"voice":0,"pitch":74,"start":232.75,"duration":0.25,"velocity":127,"measure":117,"beat":2.5,"subject_pos":-1,"motif":"","motif_pos":-1,"best_pos":1,"similarity":0.457,"stretto":false,"stretto_voices":0,"combination":[]},{"voice":2,"pitch":58,"start":232.75,"duration":0.25,"velocity":127,"measure":117,"beat":2.5,"subject_pos":-1,"motif":"","motif_pos":-1,"best_pos":7,"similarity":0.436,"stretto":false,"stretto_voices":0,"combination":[]},{"voice":0,"pitch":72,"start":233.0,"duration":0.25,"velocity":127,"measure":117,"beat":3.0,"subject_pos":-1,"motif":"","motif_pos":-1,"best_pos":2,"similarity":0.593,"stretto":false,"stretto_voices":0,"combination":[]},{"voice":2,"pitch":57,"start":233.0,"duration":0.25,"velocity":127,"measure":117,"beat":3.0,"subject_pos":-1,"motif":"","motif_pos":-1,"best_pos":1,"similarity":0.429,"stretto":false,"stretto_voices":0,"combination":[]},{"voice":0,"pitch":70,"start":233.25,"duration":0.25,"velocity":127,"measure":117,"beat":3.5,"subject_pos":-1,"motif":"","motif_pos":-1,"best_pos":3,"similarity":0.664,"stretto":false,"stretto_voices":0,"combination":[]},{"voice":2,"pitch":55,"start":233.25,"duration":0.25,"velocity":127,"measure":117,"beat":3.5,"subject_pos":-1,"motif":"","motif_pos":-1,"best_pos":2,"similarity":0.643,"stretto":false,"stretto_voices":0,"combination":[]},{"voice":0,"pitch":69,"start":233.5,"duration":0.25,"velocity":127,"measure":117,"beat":4.0,"subject_pos":-1,"motif":"","motif_pos":-1,"best_pos":4,"similarity":0.607,"stretto":false,"stretto_voices":0,"combination":[]},{"voice":2,"pitch":53,"start":233.5,"duration":0.25,"velocity":127,"measure":117,"beat":4.0,"subject_pos":-1,"motif":"","motif_pos":-1,"best_pos":3,"similarity":0.732,"stretto":false,"stretto_voices":0,"combination":[]},{"voice":3,"pitch":48,"start":233.5,"duration":0.5,"velocity":127,"measure":117,"beat":4.0,"subject_pos":-1,"motif":"","motif_pos":-1,"best_pos":0,"similarity":0.429,"stretto":false,"stretto_voices":0,"combination":[]},{"voice":0,"pitch":67,"start":233.75,"duration":0.25,"velocity":127,"measure":117,"beat":4.5,"subject_pos":-1,"motif":"","motif_pos":-1,"best_pos":5,"similarity":0.507,"stretto":false,"stretto_voices":0,"combination":[]},{"voice":2,"pitch":52,"start":233.75,"duration":0.25,"velocity":127,"measure":117,"beat":4.5,"subject_pos":-1,"motif":"","motif_pos":-1,"best_pos":4,"similarity":0.768,"stretto":false,"stretto_voices":0,"combination":[]},{"voice":0,"pitch":69,"start":234.0,"duration":2.5,"velocity":127,"measure":118,"beat":1.0,"subject_pos":-1,"motif":"","motif_pos":-1,"best_pos":6,"similarity":0.4,"stretto":false,"stretto_voices":0,"combination":[]},{"voice":2,"pitch":53,"start":234.0,"duration":2.25,"velocity":127,"measure":118,"beat":1.0,"subject_pos":-1,"motif":"","motif_pos":-1,"best_pos":5,"similarity":0.571,"stretto":false,"stretto_voices":0,"combination":[]},{"voice":3,"pitch":53,"start":234.0,"duration":0.5,"velocity":127,"measure":118,"beat":1.0,"subject_pos":-1,"motif":"","motif_pos":-1,"best_pos":1,"similarity":0.579,"stretto":false,"stretto_voices":0,"combination":[]},{"voice":1,"pitch":64,"start":234.25,"duration":0.25,"velocity":127,"measure":118,"beat":1.5,"subject_pos":-1,"motif":"","motif_pos":-1,"best_pos":4,"similarity":0.579,"stretto":false,"stretto_voices":0,"combination":[]},{"voice":1,"pitch":65,"start":234.5,"duration":0.25,"velocity":127,"measure":118,"beat":2.0,"subject_pos":-1,"motif":"","motif_pos":-1,"best_pos":5,"similarity":0.621,"stretto":false,"stretto_voices":0,"combination":[]},{"voice":3,"pitch":48,"start":234.5,"duration":0.5,"velocity":127,"measure":118,"beat":2.0,"subject_pos":-1,"motif":"","motif_pos":-1,"best_pos":2,"similarity":0.593,"stretto":false,"stretto_voices":0,"combination":[]},{"voice":1,"pitch":67,"start":234.75,"duration":0.25,"velocity":127,"measure":118,"beat":2.5,"subject_pos":-1,"motif":"","motif_pos":-1,"best_pos":1,"similarity":0.457,"stretto":false,"stretto_voices":0,"combination":[]},{"voice":1,"pitch":65,"start":235.0,"duration":0.25,"velocity":127,"measure":118,"beat":3.0,"subject_pos":-1,"motif":"","motif_pos":-1,"best_pos":2,"similarity":0.604,"stretto":false,"stretto_voices":0,"combination":[]},{"voice":3,"pitch":45,"start":235.0,"duration":0.5,"velocity":127,"measure":118,"beat":3.0,"subject_pos":-1,"motif":"","motif_pos":-1,"best_pos":3,"similarity":0.479,"stretto":false,"stretto_voices":0,"combination":[]},{"voice":1,"pitch":63,"start":235.25,"duration":0.25,"velocity":127,"measure":118,"beat":3.5,"subject_pos":-1,"motif":"","motif_pos":-1,"best_pos":3,"similarity":0.65,"stretto":false,"stretto_voices":0,"combination":[]},{"voice":1,"pitch":62,"start":235.5,"duration":0.25,"velocity":127,"measure":118,"beat":4.0,"subject_pos":-1,"motif":"","motif_pos":-1,"best_pos":3,"similarity":0.714,"stretto":false,"stretto_voices":0,"combination":[]},{"voice":3,"pitch":41,"start":235.5,"duration":0.5,"velocity":127,"measure":118,"beat":4.0,"subject_pos":-1,"motif":"","motif_pos":-1,"best_pos":2,"similarity":0.436,"stretto":false,"stretto_voices":0,"combination":[]},{"voice":1,"pitch":61,"start":235.75,"duration":0.25,"velocity":127,"measure":118,"beat":4.5,"subject_pos":-1,"motif":"","motif_pos":-1,"best_pos":4,"similarity":0.821,"stretto":false,"stretto_voices":0,"combination":[]},{"voice":1,"pitch":62,"start":236.0,"duration":0.5,"velocity":127,"measure":119,"beat":1.0,"subject_pos":-1,"motif":"","motif_pos":-1,"best_pos":5,"similarity":0.732,"stretto":false,"stretto_voices":0,"combination":[]},{"voice":3,"pitch":46,"start":236.0,"duration":1.25,"velocity":127,"measure":119,"beat":1.0,"subject_pos":-1,"motif":"","motif_pos":-1,"best_pos":1,"similarity":0.507,"stretto":false,"stretto_voices":0,"combination":[]},{"voice":2,"pitch":53,"start":236.25,"duration":0.25,"velocity":127,"measure":119,"beat":1.5,"subject_pos":-1,"motif":"","motif_pos":-1,"best_pos":3,"similarity":0.414,"stretto":false,"stretto_voices":0,"combination":[]},{"voice":0,"pitch":67,"start":236.5,"duration":0.5,"velocity":127,"measure":119,"beat":2.0,"subject_pos":-1,"motif":"","motif_pos":-1,"best_pos":0,"similarity":0.357,"stretto":false,"stretto_voices":0,"combination":[]},{"voice":2,"pitch":52,"start":236.5,"duration":0.25,"velocity":127,"measure":119,"beat":2.0,"subject_pos":-1,"motif":"","motif_pos":-1,"best_pos":4,"similarity":0.496,"stretto":false,"stretto_voices":0,"combination":[]},{"voice":2,"pitch":50,"start":236.75,"duration":0.25,"velocity":127,"measure":119,"beat":2.5,"subject_pos":-1,"motif":"","motif_pos":-1,"best_pos":5,"similarity":0.5,"stretto":false,"stretto_voices":0,"combination":[]},{"voice":0,"pitch":72,"start":237.0,"duration":1.5,"velocity":127,"measure":119,"beat":3.0,"subject_pos":-1,"motif":"","motif_pos":-1,"best_pos":1,"similarity":0.446,"stretto":false,"stretto_voices":0,"combination":[]},{"voice":2,"pitch":52,"start":237.0,"duration":0.5,"velocity":127,"measure":119,"beat":3.0,"subject_pos":-1,"motif":"","motif_pos":-1,"best_pos":6,"similarity":0.443,"stretto":false,"stretto_voices":0,"combination":[]},{"voice":3,"pitch":45,"start":237.25,"duration":0.25,"velocity":127,"measure":119,"beat":3.5,"subject_pos":-1,"motif":"","motif_pos":-1,"best_pos":4,"similarity":0.475,"stretto":false,"stretto_voices":0,"combination":[]},{"voice":1,"pitch":64,"start":237.5,"duration":0.5,"velocity":127,"measure":119,"beat":4.0,"subject_pos":-1,"motif":"","motif_pos":-1,"best_pos":6,"similarity":0.5,"stretto":false,"stretto_voices":0,"combination":[]},{"voice":2,"pitch":55,"start":237.5,"duration":1.0,"velocity":127,"measure":119,"beat":4.0,"subject_pos":-1,"motif":"","motif_pos":-1,"best_pos":3,"similarity":0.386,"stretto":false,"stretto_voices":0,"combination":[]},{"voice":3,"pitch":43,"start":237.5,"duration":0.25,"velocity":127,"measure":119,"beat":4.0,"subject_pos":-1,"motif":"","motif_pos":-1,"best_pos":2,"similarity":0.464,"stretto":false,"stretto_voices":0,"combination":[]},{"voice":3,"pitch":46,"start":237.75,"duration":0.25,"velocity":127,"measure":119,"beat":4.5,"subject_pos":-1,"motif":"","motif_pos":-1,"best_pos":3,"similarity":0.536,"stretto":false,"stretto_voices":0,"combination":[]},{"voice":1,"pitch":60,"start":238.0,"duration":0.5,"velocity":127,"measure":120,"beat":1.0,"subject_pos":-1,"motif":"","motif_pos":-1,"best_pos":2,"similarity":0.314,"stretto":false,"stretto_voices":0,"combination":[]},{"voice":3,"pitch":45,"start":238.0,"duration":0.25,"velocity":127,"measure":120,"beat":1.0,"subject_pos":-1,"motif":"","motif_pos":-1,"best_pos":4,"similarity":0.589,"stretto":false,"stretto_voices":0,"combination":[]},{"voice":3,"pitch":47,"start":238.25,"duration":0.25,"velocity":127,"measure":120,"beat":1.5,"subject_pos":-1,"motif":"","motif_pos":-1,"best_pos":6,"similarity":0.614,"stretto":false,"stretto_voices":0,"combination":[]},{"voice":0,"pitch":69,"start":238.5,"duration":0.5,"velocity":127,"measure":120,"beat":2.0,"subject_pos":-1,"motif":"","motif_pos":-1,"best_pos":0,"similarity":0.357,"stretto":false,"stretto_voices":0,"combination":[]},{"voice":2,"pitch":54,"start":238.5,"duration":0.25,"velocity":127,"measure":120,"beat":2.0,"subject_pos":-1,"motif":"","motif_pos":-1,"best_pos":4,"similarity":0.482,"stretto":false,"stretto_voices":0,"combination":[]},{"voice":3,"pitch":48,"start":238.5,"duration":0.75,"velocity":127,"measure":120,"beat":2.0,"subject_pos":-1,"motif":"","motif_pos":-1,"best_pos":7,"similarity":0.446,"stretto":false,"stretto_voices":0,"combination":[]},{"voice":2,"pitch":52,"start":238.75,"duration":0.25,"velocity":127,"measure":120,"beat":2.5,"subject_pos":-1,"motif":"","motif_pos":-1,"best_pos":5,"similarity":0.493,"stretto":false,"stretto_voices":0,"combination":[]},{"voice":0,"pitch":74,"start":239.0,"duration":1.5,"velocity":127,"measure":120,"beat":3.0,"subject_pos":-1,"motif":"","motif_pos":-1,"best_pos":1,"similarity":0.446,"stretto":false,"stretto_voices":0,"combination":[]},{"voice":2,"pitch":54,"start":239.0,"duration":0.5,"velocity":127,"measure":120,"beat":3.0,"subject_pos":-1,"motif":"","motif_pos":-1,"best_pos":6,"similarity":0.443,"stretto":false,"stretto_voices":0,"combination":[]},{"voice":3,"pitch":47,"start":239.25,"duration":0.25,"velocity":127,"measure":120,"beat":3.5,"subject_pos":-1,"motif":"","motif_pos":-1,"best_pos":4,"similarity":0.425,"stretto":false,"stretto_voices":0,"combination":[]},{"voice":1,"pitch":66,"start":239.5,"duration":0.5,"velocity":127,"measure":120,"beat":4.0,"subject_pos":-1,"motif":"","motif_pos":-1,"best_pos":1,"similarity":0.436,"stretto":false,"stretto_voices":0,"combination":[]},{"voice":2,"pitch":57,"start":239.5,"duration":1.0,"velocity":127,"measure":120,"beat":4.0,"subject_pos":-1,"motif":"","motif_pos":-1,"best_pos":3,"similarity":0.386,"stretto":false,"stretto_voices":0,"combination":[]},{"voice":3,"pitch":45,"start":239.5,"duration":0.25,"velocity":127,"measure":120,"beat":4.0,"subject_pos":-1,"motif":"","motif_pos":-1,"best_pos":2,"similarity":0.464,"stretto":false,"stretto_voices":0,"combination":[]},{"voice":3,"pitch":48,"start":239.75,"duration":0.25,"velocity":127,"measure":120,"beat":4.5,"subject_pos":-1,"motif":"","motif_pos":-1,"best_pos":3,"similarity":0.536,"stretto":false,"stretto_voices":0,"combination":[]},{"voice":1,"pitch":62,"start":240.0,"duration":0.5,"velocity":127,"measure":121,"beat":1.0,"subject_pos":-1,"motif":"","motif_pos":-1,"best_pos":2,"similarity":0.371,"stretto":false,"stretto_voices":0,"combination":[]},{"voice":3,"pitch":47,"start":240.0,"duration":0.25,"velocity":127,"measure":121,"beat":1.0,"subject_pos":-1,"motif":"","motif_pos":-1,"best_pos":4,"similarity":0.589,"stretto":false,"stretto_voices":0,"combination":[]},{"voice":3,"pitch":49,"start":240.25,"duration":0.25,"velocity":127,"measure":121,"beat":1.5,"subject_pos":-1,"motif":"","motif_pos":-1,"best_pos":6,"similarity":0.614,"stretto":false,"stretto_voices":0,"combination":[]},{"voice":0,"pitch":71,"start":240.5,"duration":0.5,"velocity":127,"measure":121,"beat":2.0,"subject_pos":-1,"motif":"","motif_pos":-1,"best_pos":3,"similarity":0.5,"stretto":false,"stretto_voices":0,"combination":[]},{"voice":2,"pitch":56,"start":240.5,"duration":0.25,"velocity":127,"measure":121,"beat":2.0,"subject_pos":-1,"motif":"","motif_pos":-1,"best_pos":4,"similarity":0.482,"stretto":false,"stretto_voices":0,"combination":[]},{"voice":3,"pitch":50,"start":240.5,"duration":0.75,"velocity":127,"measure":121,"beat":2.0,"subject_pos":-1,"motif":"","motif_pos":-1,"best_pos":7,"similarity":0.446,"stretto":false,"stretto_voices":0,"combination":[]},{"voice":2,"pitch":54,"start":240.75,"duration":0.25,"velocity":127,"measure":121,"beat":2.5,"subject_pos":-1,"motif":"","motif_pos":-1,"best_pos":5,"similarity":0.493,"stretto":false,"stretto_voices":0,"combination":[]},{"voice":0,"pitch":76,"start":241.0,"duration":1.25,"velocity":127,"measure":121,"beat":3.0,"subject_pos":-1,"motif":"","motif_pos":-1,"best_pos":4,"similarity":0.571,"stretto":false,"stretto_voices":0,"combination":[]},{"voice":2,"pitch":56,"start":241.0,"duration":0.5,"velocity":127,"measure":121,"beat":3.0,"subject_pos":-1,"motif":"","motif_pos":-1,"best_pos":6,"similarity":0.443,"stretto":false,"stretto_voices":0,"combination":[]},{"voice":3,"pitch":49,"start":241.25,"duration":0.25,"velocity":127,"measure":121,"beat":3.5,"subject_pos":-1,"motif":"","motif_pos":-1,"best_pos":4,"similarity":0.425,"stretto":false,"stretto_voices":0,"combination":[]},{"voice":1,"pitch":68,"start":241.5,"duration":0.5,"velocity":127,"measure":121,"beat":4.0,"subject_pos":-1,"motif":"","motif_pos":-1,"best_pos":1,"similarity":0.5,"stretto":false,"stretto_voices":0,"combination":[]},{"voice":2,"pitch":59,"start":241.5,"duration":1.0,"velocity":127,"measure":121,"beat":4.0,"subject_pos":-1,"motif":"","motif_pos":-1,"best_pos":3,"similarity":0.343,"stretto":false,"stretto_voices":0,"combination":[]},{"voice":3,"pitch":47,"start":241.5,"duration":0.25,"velocity":127,"measure":121,"beat":4.0,"subject_pos":-1,"motif":"","motif_pos":-1,"best_pos":2,"similarity":0.5,"stretto":false,"stretto_voices":0,"combination":[]},{"voice":3,"pitch":50,"start":241.75,"duration":0.25,"velocity":127,"measure":121,"beat":4.5,"subject_pos":-1,"motif":"","motif_pos":-1,"best_pos":3,"similarity":0.643,"stretto":false,"stretto_voices":0,"combination":[]},{"voice":1,"pitch":64,"start":242.0,"duration":0.5,"velocity":127,"measure":122,"beat":1.0,"subject_pos":-1,"motif":"","motif_pos":-1,"best_pos":2,"similarity":0.518,"stretto":false,"stretto_voices":0,"combination":[]},{"voice":3,"pitch":49,"start":242.0,"duration":0.25,"velocity":127,"measure":122,"beat":1.0,"subject_pos":-1,"motif":"","motif_pos":-1,"best_pos":4,"similarity":0.793,"stretto":false,"stretto_voices":0,"combination":[]},{"voice":0,"pitch":77,"start":242.25,"duration":0.25,"velocity":127,"measure":122,"beat":1.5,"subject_pos":-1,"motif":"","motif_pos":-1,"best_pos":5,"similarity":0.643,"stretto":false,"stretto_voices":0,"combination":[]},{"voice":3,"pitch":50,"start":242.25,"duration":0.25,"velocity":127,"measure":122,"beat":1.5,"subject_pos":-1,"motif":"","motif_pos":-1,"best_pos":5,"similarity":0.729,"stretto":false,"stretto_voices":0,"combination":[]},{"voice":0,"pitch":79,"start":242.5,"duration":0.25,"velocity":127,"measure":122,"beat":2.0,"subject_pos":-1,"motif":"","motif_pos":-1,"best_pos":6,"similarity":0.429,"stretto":false,"stretto_voices":0,"combination":[]},{"voice":2,"pitch":58,"start":242.5,"duration":0.5,"velocity":127,"measure":122,"beat":2.0,"subject_pos":-1,"motif":"","motif_pos":-1,"best_pos":3,"similarity":0.45,"stretto":false,"stretto_voices":0,"combination":[]},{"voice":3,"pitch":52,"start":242.5,"duration":0.75,"velocity":127,"measure":122,"beat":2.0,"subject_pos":-1,"motif":"","motif_pos":-1,"best_pos":6,"similarity":0.529,"stretto":false,"stretto_voices":0,"combination":[]},{"voice":0,"pitch":74,"start":242.75,"duration":0.25,"velocity":127,"measure":122,"beat":2.5,"subject_pos":-1,"motif":"","motif_pos":-1,"best_pos":3,"similarity":0.386,"stretto":false,"stretto_voices":0,"combination":[]},{"voice":0,"pitch":73,"start":243.0,"duration":0.25,"velocity":127,"measure":122,"beat":3.0,"subject_pos":-1,"motif":"","motif_pos":-1,"best_pos":4,"similarity":0.35,"stretto":false,"stretto_voices":0,"combination":[]},{"voice":2,"pitch":57,"start":243.0,"duration":1.5,"velocity":127,"measure":122,"beat":3.0,"subject_pos":-1,"motif":"","motif_pos":-1,"best_pos":4,"similarity":0.5,"stretto":false,"stretto_voices":0,"combination":[]},{"voice":0,"pitch":82,"start":243.25,"duration":0.25,"velocity":127,"measure":122,"beat":3.5,"subject_pos":-1,"motif":"","motif_pos":-1,"best_pos":3,"similarity":0.379,"stretto":false,"stretto_voices":0,"combination":[]},{"voice":3,"pitch":50,"start":243.25,"duration":0.25,"velocity":127,"measure":122,"beat":3.5,"subject_pos":-1,"motif":"","motif_pos":-1,"best_pos":3,"similarity":0.493,"stretto":false,"stretto_voices":0,"combination":[]},{"voice":0,"pitch":81,"start":243.5,"duration":0.25,"velocity":127,"measure":122,"beat":4.0,"subject_pos":-1,"motif":"","motif_pos":-1,"best_pos":1,"similarity":0.429,"stretto":false,"stretto_voices":0,"combination":[]},{"voice":3,"pitch":49,"start":243.5,"duration":0.25,"velocity":127,"measure":122,"beat":4.0,"subject_pos":-1,"motif":"","motif_pos":-1,"best_pos":4,"similarity":0.486,"stretto":false,"stretto_voices":0,"combination":[]},{"voice":0,"pitch":79,"start":243.75,"duration":0.25,"velocity":127,"measure":122,"beat":4.5,"subject_pos":-1,"motif":"","motif_pos":-1,"best_pos":2,"similarity":0.579,"stretto":false,"stretto_voices":0,"combination":[]},{"voice":3,"pitch":52,"start":243.75,"duration":0.25,"velocity":127,"measure":122,"beat":4.5,"subject_pos":-1,"motif":"","motif_pos":-1,"best_pos":4,"similarity":0.379,"stretto":false,"stretto_voices":0,"combination":[]},{"voice":0,"pitch":77,"start":244.0,"duration":2.5,"velocity":127,"measure":123,"beat":1.0,"subject_pos":-1,"motif":"","motif_pos":-1,"best_pos":3,"similarity":0.657,"stretto":false,"stretto_voices":0,"combination":[]},{"voice":3,"pitch":50,"start":244.0,"duration":0.5,"velocity":127,"measure":123,"beat":1.0,"subject_pos":-1,"motif":"","motif_pos":-1,"best_pos":5,"similarity":0.489,"stretto":false,"stretto_voices":0,"combination":[]},{"voice":1,"pitch":74,"start":244.25,"duration":0.25,"velocity":127,"measure":123,"beat":1.5,"subject_pos":-1,"motif":"","motif_pos":-1,"best_pos":3,"similarity":0.507,"stretto":false,"stretto_voices":0,"combination":[]},{"voice":1,"pitch":73,"start":244.5,"duration":0.25,"velocity":127,"measure":123,"beat":2.0,"subject_pos":-1,"motif":"","motif_pos":-1,"best_pos":4,"similarity":0.45,"stretto":false,"stretto_voices":0,"combination":[]},{"voice":2,"pitch":55,"start":244.5,"duration":0.5,"velocity":127,"measure":123,"beat":2.0,"subject_pos":-1,"motif":"","motif_pos":-1,"best_pos":5,"similarity":0.489,"stretto":false,"stretto_voices":0,"combination":[]},{"voice":3,"pitch":52,"start":244.5,"duration":0.5,"velocity":127,"measure":123,"beat":2.0,"subject_pos":-1,"motif":"","motif_pos":-1,"best_pos":6,"similarity":0.593,"stretto":false,"stretto_voices":0,"combination":[]},{"voice":1,"pitch":76,"start":244.75,"duration":0.25,"velocity":127,"measure":123,"beat":2.5,"subject_pos":-1,"motif":"","motif_pos":-1,"best_pos":1,"similarity":0.464,"stretto":false,"stretto_voices":0,"combination":[]},{"voice":1,"pitch":74,"start":245.0,"duration":0.25,"velocity":127,"measure":123,"beat":3.0,"subject_pos":-1,"motif":"","motif_pos":-1,"best_pos":2,"similarity":0.554,"stretto":false,"stretto_voices":0,"combination":[]},{"voice":2,"pitch":57,"start":245.0,"duration":0.5,"velocity":127,"measure":123,"beat":3.0,"subject_pos":-1,"motif":"","motif_pos":-1,"best_pos":0,"similarity":0.5,"stretto":false,"stretto_voices":0,"combination":[]},{"voice":3,"pitch":53,"start":245.0,"duration":0.5,"velocity":127,"measure":123,"beat":3.0,"subject_pos":-1,"motif":"","motif_pos":-1,"best_pos":7,"similarity":0.436,"stretto":false,"stretto_voices":0,"combination":[]},{"voice":1,"pitch":72,"start":245.25,"duration":0.25,"velocity":127,"measure":123,"beat":3.5,"subject_pos":-1,"motif":"","motif_pos":-1,"best_pos":2,"similarity":0.643,"stretto":false,"stretto_voices":0,"combination":[]},{"voice":1,"pitch":70,"start":245.5,"duration":0.25,"velocity":127,"measure":123,"beat":4.0,"subject_pos":-1,"motif":"","motif_pos":-1,"best_pos":3,"similarity":0.721,"stretto":false,"stretto_voices":0,"combination":[]},{"voice":2,"pitch":62,"start":245.5,"duration":1.0,"velocity":127,"measure":123,"beat":4.0,"subject_pos":-1,"motif":"","motif_pos":-1,"best_pos":1,"similarity":0.732,"stretto":false,"stretto_voices":0,"combination":[]},{"voice":3,"pitch":50,"start":245.5,"duration":0.5,"velocity":127,"measure":123,"beat":4.0,"subject_pos":-1,"motif":"","motif_pos":-1,"best_pos":3,"similarity":0.314,"stretto":false,"stretto_voices":0,"combination":[]},{"voice":1,"pitch":69,"start":245.75,"duration":0.25,"velocity":127,"measure":123,"beat":4.5,"subject_pos":-1,"motif":"","motif_pos":-1,"best_pos":4,"similarity":0.736,"stretto":false,"stretto_voices":0,"combination":[]},{"voice":1,"pitch":70,"start":246.0,"duration":0.25,"velocity":127,"measure":124,"beat":1.0,"subject_pos":-1,"motif":"","motif_pos":-1,"best_pos":5,"similarity":0.507,"stretto":false,"stretto_voices":0,"combination":[]},{"voice":3,"pitch":55,"start":246.0,"duration":1.0,"velocity":127,"measure":124,"beat":1.0,"subject_pos":-1,"motif":"","motif_pos":-1,"best_pos":1,"similarity":0.314,"stretto":false,"stretto_voices":0,"combination":[]},{"voice":1,"pitch":69,"start":246.25,"duration":0.25,"velocity":127,"measure":124,"beat":1.5,"subject_pos":-1,"motif":"","motif_pos":-1,"best_pos":4,"similarity":0.579,"stretto":false,"stretto_voices":0,"combination":[]},{"voice":0,"pitch":76,"start":246.5,"duration":0.25,"velocity":127,"measure":124,"beat":2.0,"subject_pos":-1,"motif":"","motif_pos":-1,"best_pos":4,"similarity":0.607,"stretto":false,"stretto_voices":0,"combination":[]},{"voice":1,"pitch":67,"start":246.5,"duration":0.75,"velocity":127,"measure":124,"beat":2.0,"subject_pos":-1,"motif":"","motif_pos":-1,"best_pos":5,"similarity":0.607,"stretto":false,"stretto_voices":0,"combination":[]},{"voice":2,"pitch":58,"start":246.5,"duration":0.5,"velocity":127,"measure":124,"beat":2.0,"subject_pos":-1,"motif":"","motif_pos":-1,"best_pos":2,"similarity":0.757,"stretto":false,"stretto_voices":0,"combination":[]},{"voice":0,"pitch":74,"start":246.75,"duration":0.25,"velocity":127,"measure":124,"beat":2.5,"subject_pos":-1,"motif":"","motif_pos":-1,"best_pos":5,"similarity":0.507,"stretto":false,"stretto_voices":0,"combination":[]},{"voice":0,"pitch":76,"start":247.0,"duration":1.5,"velocity":127,"measure":124,"beat":3.0,"subject_pos":-1,"motif":"","motif_pos":-1,"best_pos":6,"similarity":0.4,"stretto":false,"stretto_voices":0,"combination":[]},{"voice":2,"pitch":55,"start":247.0,"duration":0.5,"velocity":127,"measure":124,"beat":3.0,"subject_pos":-1,"motif":"","motif_pos":-1,"best_pos":3,"similarity":0.586,"stretto":false,"stretto_voices":0,"combination":[]},{"voice":1,"pitch":69,"start":247.25,"duration":0.25,"velocity":127,"measure":124,"beat":3.5,"subject_pos":-1,"motif":"","motif_pos":-1,"best_pos":6,"similarity":0.657,"stretto":false,"stretto_voices":0,"combination":[]},{"voice":1,"pitch":70,"start":247.5,"duration":0.25,"velocity":127,"measure":124,"beat":4.0,"subject_pos":-1,"motif":"","motif_pos":-1,"best_pos":7,"similarity":0.436,"stretto":false,"stretto_voices":0,"combination":[]},{"voice":2,"pitch":52,"start":247.5,"duration":0.5,"velocity":127,"measure":124,"beat":4.0,"subject_pos":-1,"motif":"","motif_pos":-1,"best_pos":0,"similarity":0.5,"stretto":false,"stretto_voices":0,"combination":[]},{"voice":3,"pitch":48,"start":247.5,"duration":0.5,"velocity":127,"measure":124,"beat":4.0,"subject_pos":-1,"motif":"","motif_pos":-1,"best_pos":0,"similarity":0.286,"stretto":false,"stretto_voices":0,"combination":[]},{"voice":1,"pitch":67,"start":247.75,"duration":0.25,"velocity":127,"measure":124,"beat":4.5,"subject_pos":-1,"motif":"","motif_pos":-1,"best_pos":5,"similarity":0.364,"stretto":false,"stretto_voices":0,"combination":[]},{"voice":1,"pitch":69,"start":248.0,"duration":0.25,"velocity":127,"measure":125,"beat":1.0,"subject_pos":-1,"motif":"","motif_pos":-1,"best_pos":1,"similarity":0.393,"stretto":false,"stretto_voices":0,"combination":[]},{"voice":3,"pitch":53,"start":248.0,"duration":1.0,"velocity":127,"measure":125,"beat":1.0,"subject_pos":-1,"motif":"","motif_pos":-1,"best_pos":1,"similarity":0.357,"stretto":false,"stretto_voices":0,"combination":[]},{"voice":1,"pitch":67,"start":248.25,"duration":0.25,"velocity":127,"measure":125,"beat":1.5,"subject_pos":-1,"motif":"","motif_pos":-1,"best_pos":2,"similarity":0.493,"stretto":false,"stretto_voices":0,"combination":[]},{"voice":0,"pitch":74,"start":248.5,"duration":0.25,"velocity":127,"measure":125,"beat":2.0,"subject_pos":-1,"motif":"","motif_pos":-1,"best_pos":3,"similarity":0.593,"stretto":false,"stretto_voices":0,"combination":[]},{"voice":1,"pitch":65,"start":248.5,"duration":0.75,"velocity":127,"measure":125,"beat":2.0,"subject_pos":-1,"motif":"","motif_pos":-1,"best_pos":4,"similarity":0.507,"stretto":false,"stretto_voices":0,"combination":[]},{"voice":2,"pitch":57,"start":248.5,"duration":0.5,"velocity":127,"measure":125,"beat":2.0,"subject_pos":-1,"motif":"","motif_pos":-1,"best_pos":1,"similarity":0.714,"stretto":false,"stretto_voices":0,"combination":[]},{"voice":0,"pitch":73,"start":248.75,"duration":0.25,"velocity":127,"measure":125,"beat":2.5,"subject_pos":-1,"motif":"","motif_pos":-1,"best_pos":4,"similarity":0.671,"stretto":false,"stretto_voices":0,"combination":[]},{"voice":0,"pitch":74,"start":249.0,"duration":1.5,"velocity":127,"measure":125,"beat":3.0,"subject_pos":-1,"motif":"","motif_pos":-1,"best_pos":5,"similarity":0.507,"stretto":false,"stretto_voices":0,"combination":[]},{"voice":2,"pitch":53,"start":249.0,"duration":0.5,"velocity":127,"measure":125,"beat":3.0,"subject_pos":-1,"motif":"","motif_pos":-1,"best_pos":2,"similarity":0.714,"stretto":false,"stretto_voices":0,"combination":[]},{"voice":1,"pitch":67,"start":249.25,"duration":0.25,"velocity":127,"measure":125,"beat":3.5,"subject_pos":-1,"motif":"","motif_pos":-1,"best_pos":5,"similarity":0.536,"stretto":false,"stretto_voices":0,"combination":[]},{"voice":1,"pitch":69,"start":249.5,"duration":0.25,"velocity":127,"measure":125,"beat":4.0,"subject_pos":-1,"motif":"","motif_pos":-1,"best_pos":6,"similarity":0.393,"stretto":false,"stretto_voices":0,"combination":[]},{"voice":2,"pitch":50,"start":249.5,"duration":0.5,"velocity":127,"measure":125,"beat":4.0,"subject_pos":-1,"motif":"","motif_pos":-1,"best_pos":0,"similarity":0.5,"stretto":false,"stretto_voices":0,"combination":[]},{"voice":3,"pitch":41,"start":249.5,"duration":0.5,"velocity":127,"measure":125,"beat":4.0,"subject_pos":-1,"motif":"","motif_pos":-1,"best_pos":0,"similarity":0.364,"stretto":false,"stretto_voices":0,"combination":[]},{"voice":1,"pitch":65,"start":249.75,"duration":0.25,"velocity":127,"measure":125,"beat":4.5,"subject_pos":-1,"motif":"","motif_pos":-1,"best_pos":2,"similarity":0.379,"stretto":false,"stretto_voices":0,"combination":[]},{"voice":1,"pitch":67,"start":250.0,"duration":0.25,"velocity":127,"measure":126,"beat":1.0,"subject_pos":-1,"motif":"","motif_pos":-1,"best_pos":1,"similarity":0.393,"stretto":false,"stretto_voices":0,"combination":[]},{"voice":3,"pitch":46,"start":250.0,"duration":1.25,"velocity":127,"measure":126,"beat":1.0,"subject_pos":-1,"motif":"","motif_pos":-1,"best_pos":3,"similarity":0.5,"stretto":false,"stretto_voices":0,"combination":[]},{"voice":1,"pitch":65,"start":250.25,"duration":0.25,"velocity":127,"measure":126,"beat":1.5,"subject_pos":-1,"motif":"","motif_pos":-1,"best_pos":2,"similarity":0.529,"stretto":false,"stretto_voices":0,"combination":[]},{"voice":0,"pitch":72,"start":250.5,"duration":0.25,"velocity":127,"measure":126,"beat":2.0,"subject_pos":-1,"motif":"","motif_pos":-1,"best_pos":2,"similarity":0.464,"stretto":false,"stretto_voices":0,"combination":[]},{"voice":1,"pitch":63,"start":250.5,"duration":0.75,"velocity":127,"measure":126,"beat":2.0,"subject_pos":-1,"motif":"","motif_pos":-1,"best_pos":3,"similarity":0.464,"stretto":false,"stretto_voices":0,"combination":[]},{"voice":2,"pitch":55,"start":250.5,"duration":0.5,"velocity":127,"measure":126,"beat":2.0,"subject_pos":-1,"motif":"","motif_pos":-1,"best_pos":1,"similarity":0.721,"stretto":false,"stretto_voices":0,"combination":[]},{"voice":0,"pitch":70,"start":250.75,"duration":0.25,"velocity":127,"measure":126,"beat":2.5,"subject_pos":-1,"motif":"","motif_pos":-1,"best_pos":4,"similarity":0.414,"stretto":false,"stretto_voices":0,"combination":[]},{"voice":0,"pitch":72,"start":251.0,"duration":2.25,"velocity":127,"measure":126,"beat":3.0,"subject_pos":-1,"motif":"","motif_pos":-1,"best_pos":6,"similarity":0.364,"stretto":false,"stretto_voices":0,"combination":[]},{"voice":2,"pitch":51,"start":251.0,"duration":0.5,"velocity":127,"measure":126,"beat":3.0,"subject_pos":-1,"motif":"","motif_pos":-1,"best_pos":2,"similarity":0.764,"stretto":false,"stretto_voices":0,"combination":[]},{"voice":1,"pitch":66,"start":251.25,"duration":0.25,"velocity":127,"measure":126,"beat":3.5,"subject_pos":-1,"motif":"","motif_pos":-1,"best_pos":4,"similarity":0.493,"stretto":false,"stretto_voices":0,"combination":[]},{"voice":3,"pitch":45,"start":251.25,"duration":0.25,"velocity":127,"measure":126,"beat":3.5,"subject_pos":-1,"motif":"","motif_pos":-1,"best_pos":4,"similarity":0.589,"stretto":false,"stretto_voices":0,"combination":[]},{"voice":1,"pitch":67,"start":251.5,"duration":0.25,"velocity":127,"measure":126,"beat":4.0,"subject_pos":-1,"motif":"","motif_pos":-1,"best_pos":2,"similarity":0.436,"stretto":false,"stretto_voices":0,"combination":[]},{"voice":2,"pitch":48,"start":251.5,"duration":0.5,"velocity":127,"measure":126,"beat":4.0,"subject_pos":-1,"motif":"","motif_pos":-1,"best_pos":3,"similarity":0.671,"stretto":false,"stretto_voices":0,"combination":[]},{"voice":3,"pitch":46,"start":251.5,"duration":0.25,"velocity":127,"measure":126,"beat":4.0,"subject_pos":-1,"motif":"","motif_pos":-1,"best_pos":5,"similarity":0.464,"stretto":false,"stretto_voices":0,"combination":[]},{"voice":1,"pitch":64,"start":251.75,"duration":0.25,"velocity":127,"measure":126,"beat":4.5,"subject_pos":-1,"motif":"","motif_pos":-1,"best_pos":3,"similarity":0.561,"stretto":false,"stretto_voices":0,"combination":[]},{"voice":3,"pitch":43,"start":251.75,"duration":0.25,"velocity":127,"measure":126,"beat":4.5,"subject_pos":-1,"motif":"","motif_pos":-1,"best_pos":3,"similarity":0.371,"stretto":false,"stretto_voices":0,"combination":[]},{"voice":1,"pitch":66,"start":252.0,"duration":0.25,"velocity":127,"measure":127,"beat":1.0,"subject_pos":-1,"motif":"","motif_pos":-1,"best_pos":4,"similarity":0.607,"stretto":false,"stretto_voices":0,"combination":[]},{"voice":2,"pitch":50,"start":252.0,"duration":1.25,"velocity":127,"measure":127,"beat":1.0,"subject_pos":-1,"motif":"","motif_pos":-1,"best_pos":4,"similarity":0.564,"stretto":false,"stretto_voices":0,"combination":[]},{"voice":3,"pitch":46,"start":252.0,"duration":0.25,"velocity":127,"measure":127,"beat":1.0,"subject_pos":-1,"motif":"","motif_pos":-1,"best_pos":3,"similarity":0.386,"stretto":false,"stretto_voices":0,"combination":[]},{"voice":1,"pitch":67,"start":252.25,"duration":0.25,"velocity":127,"measure":127,"beat":1.5,"subject_pos":-1,"motif":"","motif_pos":-1,"best_pos":5,"similarity":0.657,"stretto":false,"stretto_voices":0,"combination":[]},{"voice":3,"pitch":45,"start":252.25,"duration":0.25,"velocity":127,"measure":127,"beat":1.5,"subject_pos":-1,"motif":"","motif_pos":-1,"best_pos":2,"similarity":0.536,"stretto":false,"stretto_voices":0,"combination":[]},{"voice":1,"pitch":69,"start":252.5,"duration":0.5,"velocity":127,"measure":127,"beat":2.0,"subject_pos":-1,"motif":"","motif_pos":-1,"best_pos":6,"similarity":0.436,"stretto":false,"stretto_voices":0,"combination":[]},{"voice":3,"pitch":43,"start":252.5,"duration":0.25,"velocity":127,"measure":127,"beat":2.0,"subject_pos":-1,"motif":"","motif_pos":-1,"best_pos":3,"similarity":0.668,"stretto":false,"stretto_voices":0,"combination":[]},{"voice":3,"pitch":42,"start":252.75,"duration":0.25,"velocity":127,"measure":127,"beat":2.5,"subject_pos":-1,"motif":"","motif_pos":-1,"best_pos":4,"similarity":0.764,"stretto":false,"stretto_voices":0,"combination":[]},{"voice":1,"pitch":62,"start":253.0,"duration":0.5,"velocity":127,"measure":127,"beat":3.0,"subject_pos":-1,"motif":"","motif_pos":-1,"best_pos":3,"similarity":0.293,"stretto":false,"stretto_voices":0,"combination":[]},{"voice":3,"pitch":43,"start":253.0,"duration":1.25,"velocity":127,"measure":127,"beat":3.0,"subject_pos":-1,"motif":"tail","motif_pos":3,"best_pos":3,"similarity":1.0,"stretto":false,"stretto_voices":0,"combination":[]},{"voice":0,"pitch":70,"start":253.25,"duration":0.25,"velocity":127,"measure":127,"beat":3.5,"subject_pos":-1,"motif":"","motif_pos":-1,"best_pos":4,"similarity":0.429,"stretto":false,"stretto_voices":0,"combination":[]},{"voice":2,"pitch":50,"start":253.25,"duration":0.25,"velocity":127,"measure":127,"beat":3.5,"subject_pos":-1,"motif":"","motif_pos":-1,"best_pos":5,"similarity":0.586,"stretto":false,"stretto_voices":0,"combination":[]},{"voice":0,"pitch":72,"start":253.5,"duration":0.25,"velocity":127,"measure":127,"beat":4.0,"subject_pos":-1,"motif":"","motif_pos":-1,"best_pos":3,"similarity":0.382,"stretto":false,"stretto_voices":0,"combination":[]},{"voice":2,"pitch":52,"start":253.5,"duration":0.25,"velocity":127,"measure":127,"beat":4.0,"subject_pos":-1,"motif":"","motif_pos":-1,"best_pos":5,"similarity":0.643,"stretto":false,"stretto_voices":0,"combination":[]},{"voice":0,"pitch":69,"start":253.75,"duration":0.25,"velocity":127,"measure":127,"beat":4.5,"subject_pos":-1,"motif":"","motif_pos":-1,"best_pos":4,"similarity":0.536,"stretto":false,"stretto_voices":0,"combination":[]},{"voice":2,"pitch":54,"start":253.75,"duration":0.25,"velocity":127,"measure":127,"beat":4.5,"subject_pos":-1,"motif":"","motif_pos":-1,"best_pos":6,"similarity":0.679,"stretto":false,"stretto_voices":0,"combination":[]},{"voice":0,"pitch":70,"start":254.0,"duration":0.25,"velocity":127,"measure":128,"beat":1.0,"subject_pos":-1,"motif":"","motif_pos":-1,"best_pos":5,"similarity":0.536,"stretto":false,"stretto_voices":0,"combination":[]},{"voice":2,"pitch":55,"start":254.0,"duration":0.5,"velocity":127,"measure":128,"beat":1.0,"subject_pos":-1,"motif":"","motif_pos":-1,"best_pos":7,"similarity":0.464,"stretto":false,"stretto_voices":0,"combination":[]},{"voice":0,"pitch":74,"start":254.25,"duration":0.25,"velocity":127,"measure":128,"beat":1.5,"subject_pos":-1,"motif":"","motif_pos":-1,"best_pos":6,"similarity":0.518,"stretto":false,"stretto_voices":0,"combination":[]},{"voice":3,"pitch":42,"start":254.25,"duration":0.25,"velocity":127,"measure":128,"beat":1.5,"subject_pos":-1,"motif":"tail","motif_pos":4,"best_pos":4,"similarity":1.0,"stretto":false,"stretto_voices":0,"combination":[]},{"voice":0,"pitch":75,"start":254.5,"duration":0.25,"velocity":127,"measure":128,"beat":2.0,"subject_pos":-1,"motif":"","motif_pos":-1,"best_pos":2,"similarity":0.407,"stretto":false,"stretto_voices":0,"combination":[]},{"voice":3,"pitch":43,"start":254.5,"duration":0.25,"velocity":127,"measure":128,"beat":2.0,"subject_pos":-1,"motif":"tail","motif_pos":5,"best_pos":5,"similarity":1.0,"stretto":false,"stretto_voices":0,"combination":[]},{"voice":0,"pitch":72,"start":254.75,"duration":0.25,"velocity":127,"measure":128,"beat":2.5,"subject_pos":-1,"motif":"","motif_pos":-1,"best_pos":3,"similarity":0.379,"stretto":false,"stretto_voices":0,"combination":[]},{"voice":3,"pitch":45,"start":254.75,"duration":0.25,"velocity":127,"measure":128,"beat":2.5,"subject_pos":-1,"motif":"tail","motif_pos":6,"best_pos":6,"similarity":1.0,"stretto":false,"stretto_voices":0,"combination":[]},{"voice":0,"pitch":74,"start":255.0,"duration":0.25,"velocity":127,"measure":128,"beat":3.0,"subject_pos":-1,"motif":"","motif_pos":-1,"best_pos":0,"similarity":0.393,"stretto":false,"stretto_voices":0,"combination":[]},{"voice":3,"pitch":46,"start":255.0,"duration":0.25,"velocity":127,"measure":128,"beat":3.0,"subject_pos":-1,"motif":"tail","motif_pos":7,"best_pos":7,"similarity":1.0,"stretto":false,"stretto_voices":0,"combination":[]},{"voice":0,"pitch":79,"start":255.25,"duration":0.25,"velocity":127,"measure":128,"beat":3.5,"subject_pos":-1,"motif":"","motif_pos":-1,"best_pos":1,"similarity":0.536,"stretto":false,"stretto_voices":0,"combination":[]},{"voice":3,"pitch":43,"start":255.25,"duration":0.25,"velocity":127,"measure":128,"beat":3.5,"subject_pos":-1,"motif":"","motif_pos":-1,"best_pos":3,"similarity":0.357,"stretto":false,"stretto_voices":0,"combination":[]},{"voice":0,"pitch":74,"start":255.5,"duration":0.25,"velocity":127,"measure":128,"beat":4.0,"subject_pos":-1,"motif":"","motif_pos":-1,"best_pos":2,"similarity":0.507,"stretto":false,"stretto_voices":0,"combination":[]},{"voice":3,"pitch":46,"start":255.5,"duration":0.25,"velocity":127,"measure":128,"beat":4.0,"subject_pos":-1,"motif":"","motif_pos":-1,"best_pos":4,"similarity":0.221,"stretto":false,"stretto_voices":0,"combination":[]},{"voice":0,"pitch":72,"start":255.75,"duration":0.5,"velocity":127,"measure":128,"beat":4.5,"subject_pos":-1,"motif":"","motif_pos":-1,"best_pos":2,"similarity":0.5,"stretto":false,"stretto_voices":0,"combination":[]},{"voice":3,"pitch":50,"start":255.75,"duration":0.25,"velocity":127,"measure":128,"beat":4.5,"subject_pos":-1,"motif":"","motif_pos":-1,"best_pos":0,"similarity":0.393,"stretto":false,"stretto_voices":0,"combination":[]},{"voice":2,"pitch":62,"start":256.0,"duration":1.0,"velocity":127,"measure":129,"beat":1.0,"subject_pos":-1,"motif":"","motif_pos":-1,"best_pos":1,"similarity":0.314,"stretto":false,"stretto_voices":0,"combination":[]},{"voice":3,"pitch":55,"start":256.0,"duration":2.25,"velocity":127,"measure":129,"beat":1.0,"subject_pos":-1,"motif":"","motif_pos":-1,"best_pos":1,"similarity":0.518,"stretto":false,"stretto_voices":0,"combination":[]},{"voice":0,"pitch":70,"start":256.25,"duration":0.25,"velocity":127,"measure":129,"beat":1.5,"subject_pos":-1,"motif":"","motif_pos":-1,"best_pos":3,"similarity":0.436,"stretto":false,"stretto_voices":0,"combination":[]},{"voice":0,"pitch":74,"start":256.5,"duration":0.25,"velocity":127,"measure":129,"beat":2.0,"subject_pos":-1,"motif":"","motif_pos":-1,"best_pos":4,"similarity":0.45,"stretto":false,"stretto_voices":0,"combination":[]},{"voice":1,"pitch":57,"start":256.5,"duration":0.5,"velocity":127,"measure":129,"beat":2.0,"subject_pos":-1,"motif":"","motif_pos":-1,"best_pos":4,"similarity":0.514,"stretto":false,"stretto_voices":0,"combination":[]},{"voice":0,"pitch":75,"start":256.75,"duration":0.25,"velocity":127,"measure":129,"beat":2.5,"subject_pos":-1,"motif":"","motif_pos":-1,"best_pos":5,"similarity":0.364,"stretto":false,"stretto_voices":0,"combination":[]},{"voice":0,"pitch":74,"start":257.0,"duration":0.25,"velocity":127,"measure":129,"beat":3.0,"subject_pos":-1,"motif":"","motif_pos":-1,"best_pos":1,"similarity":0.429,"stretto":false,"stretto_voices":0,"combination":[]},{"voice":1,"pitch":58,"start":257.0,"duration":0.5,"velocity":127,"measure":129,"beat":3.0,"subject_pos":-1,"motif":"","motif_pos":-1,"best_pos":5,"similarity":0.664,"stretto":false,"stretto_voices":0,"combination":[]},{"voice":2,"pitch":55,"start":257.0,"duration":1.0,"velocity":127,"measure":129,"beat":3.0,"subject_pos":-1,"motif":"","motif_pos":-1,"best_pos":2,"similarity":0.189,"stretto":false,"stretto_voices":0,"combination":[]},{"voice":0,"pitch":72,"start":257.25,"duration":0.25,"velocity":127,"measure":129,"beat":3.5,"subject_pos":-1,"motif":"","motif_pos":-1,"best_pos":2,"similarity":0.579,"stretto":false,"stretto_voices":0,"combination":[]},{"voice":0,"pitch":70,"start":257.5,"duration":0.25,"velocity":127,"measure":129,"beat":4.0,"subject_pos":-1,"motif":"","motif_pos":-1,"best_pos":3,"similarity":0.593,"stretto":false,"stretto_voices":0,"combination":[]},{"voice":1,"pitch":60,"start":257.5,"duration":0.5,"velocity":127,"measure":129,"beat":4.0,"subject_pos":-1,"motif":"","motif_pos":-1,"best_pos":6,"similarity":0.579,"stretto":false,"stretto_voices":0,"combination":[]},{"voice":0,"pitch":69,"start":257.75,"duration":0.25,"velocity":127,"measure":129,"beat":4.5,"subject_pos":-1,"motif":"","motif_pos":-1,"best_pos":4,"similarity":0.543,"stretto":false,"stretto_voices":0,"combination":[]},{"voice":0,"pitch":67,"start":258.0,"duration":0.25,"velocity":127,"measure":130,"beat":1.0,"subject_pos":-1,"motif":"","motif_pos":-1,"best_pos":3,"similarity":0.714,"stretto":false,"stretto_voices":0,"combination":[]},{"voice":1,"pitch":62,"start":258.0,"duration":1.0,"velocity":127,"measure":130,"beat":1.0,"subject_pos":-1,"motif":"","motif_pos":-1,"best_pos":6,"similarity":0.375,"stretto":false,"stretto_voices":0,"combination":[]},{"voice":2,"pitch":58,"start":258.0,"duration":1.0,"velocity":127,"measure":130,"beat":1.0,"subject_pos":-1,"motif":"","motif_pos":-1,"best_pos":5,"similarity":0.179,"stretto":false,"stretto_voices":0,"combination":[]},{"voice":0,"pitch":66,"start":258.25,"duration":0.25,"velocity":127,"measure":130,"beat":1.5,"subject_pos":-1,"motif":"","motif_pos":-1,"best_pos":4,"similarity":0.839,"stretto":false,"stretto_voices":0,"combination":[]},{"voice":3,"pitch":50,"start":258.25,"duration":0.25,"velocity":127,"measure":130,"beat":1.5,"subject_pos":-1,"motif":"","motif_pos":-1,"best_pos":2,"similarity":0.536,"stretto":false,"stretto_voices":0,"combination":[]},{"voice":0,"pitch":67,"start":258.5,"duration":0.5,"velocity":127,"measure":130,"beat":2.0,"subject_pos":-1,"motif":"","motif_pos":-1,"best_pos":5,"similarity":0.786,"stretto":false,"stretto_voices":0,"combination":[]},{"voice":3,"pitch":48,"start":258.5,"duration":0.25,"velocity":127,"measure":130,"beat":2.0,"subject_pos":-1,"motif":"","motif_pos":-1,"best_pos":2,"similarity":0.614,"stretto":false,"stretto_voices":0,"combination":[]},{"voice":3,"pitch":45,"start":258.75,"duration":0.25,"velocity":127,"measure":130,"beat":2.5,"subject_pos":-1,"motif":"","motif_pos":-1,"best_pos":3,"similarity":0.514,"stretto":false,"stretto_voices":0,"combination":[]},{"voice":2,"pitch":62,"start":259.0,"duration":1.0,"velocity":127,"measure":130,"beat":3.0,"subject_pos":-1,"motif":"","motif_pos":-1,"best_pos":5,"similarity":0.229,"stretto":false,"stretto_voices":0,"combination":[]},{"voice":3,"pitch":46,"start":259.0,"duration":0.25,"velocity":127,"measure":130,"beat":3.0,"subject_pos":-1,"motif":"","motif_pos":-1,"best_pos":5,"similarity":0.429,"stretto":false,"stretto_voices":0,"combination":[]},{"voice":3,"pitch":50,"start":259.25,"duration":0.25,"velocity":127,"measure":130,"beat":3.5,"subject_pos":-1,"motif":"","motif_pos":-1,"best_pos":1,"similarity":0.314,"stretto":false,"stretto_voices":0,"combination":[]},{"voice":0,"pitch":69,"start":259.5,"duration":0.5,"velocity":127,"measure":130,"beat":4.0,"subject_pos":-1,"motif":"","motif_pos":-1,"best_pos":6,"similarity":0.571,"stretto":false,"stretto_voices":0,"combination":[]},{"voice":1,"pitch":57,"start":259.5,"duration":0.5,"velocity":127,"measure":130,"beat":4.0,"subject_pos":-1,"motif":"","motif_pos":-1,"best_pos":5,"similarity":0.3,"stretto":false,"stretto_voices":0,"combination":[]},{"voice":3,"pitch":43,"start":259.5,"duration":0.25,"velocity":127,"measure":130,"beat":4.0,"subject_pos":-1,"motif":"","motif_pos":-1,"best_pos":2,"similarity":0.386,"stretto":false,"stretto_voices":0,"combination":[]},{"voice":3,"pitch":41,"start":259.75,"duration":0.25,"velocity":127,"measure":130,"beat":4.5,"subject_pos":-1,"motif":"","motif_pos":-1,"best_pos":3,"similarity":0.486,"stretto":false,"stretto_voices":0,"combination":[]},{"voice":0,"pitch":68,"start":260.0,"duration":1.0,"velocity":127,"measure":131,"beat":1.0,"subject_pos":-1,"motif":"","motif_pos":-1,"best_pos":4,"similarity":0.586,"stretto":false,"stretto_voices":0,"combination":[]},{"voice":1,"pitch":59,"start":260.0,"duration":1.0,"velocity":127,"measure":131,"beat":1.0,"subject_pos":-1,"motif":"","motif_pos":-1,"best_pos":6,"similarity":0.293,"stretto":false,"stretto_voices":0,"combination":[]},{"voice":2,"pitch":65,"start":260.0,"duration":1.0,"velocity":127,"measure":131,"beat":1.0,"subject_pos":-1,"motif":"","motif_pos":-1,"best_pos":1,"similarity":0.357,"stretto":false,"stretto_voices":0,"combination":[]},{"voice":3,"pitch":40,"start":260.0,"duration":0.25,"velocity":127,"measure":131,"beat":1.0,"subject_pos":-1,"motif":"","motif_pos":-1,"best_pos":4,"similarity":0.386,"stretto":false,"stretto_voices":0,"combination":[]},{"voice":3,"pitch":52,"start":260.25,"duration":0.25,"velocity":127,"measure":131,"beat":1.5,"subject_pos":-1,"motif":"","motif_pos":-1,"best_pos":1,"similarity":0.446,"stretto":false,"stretto_voices":0,"combination":[]},{"voice":3,"pitch":50,"start":260.5,"duration":0.25,"velocity":127,"measure":131,"beat":2.0,"subject_pos":-1,"motif":"","motif_pos":-1,"best_pos":2,"similarity":0.614,"stretto":false,"stretto_voices":0,"combination":[]},{"voice":3,"pitch":47,"start":260.75,"duration":0.25,"velocity":127,"measure":131,"beat":2.5,"subject_pos":-1,"motif":"","motif_pos":-1,"best_pos":3,"similarity":0.514,"stretto":false,"stretto_voices":0,"combination":[]},{"voice":0,"pitch":69,"start":261.0,"duration":0.5,"velocity":127,"measure":131,"beat":3.0,"subject_pos":-1,"motif":"","motif_pos":-1,"best_pos":5,"similarity":0.443,"stretto":false,"stretto_voices":0,"combination":[]},{"voice":2,"pitch":64,"start":261.0,"duration":0.5,"velocity":127,"measure":131,"beat":3.0,"subject_pos":-1,"motif":"","motif_pos":-1,"best_pos":2,"similarity":0.464,"stretto":false,"stretto_voices":0,"combination":[]},{"voice":3,"pitch":48,"start":261.0,"duration":0.25,"velocity":127,"measure":131,"beat":3.0,"subject_pos":-1,"motif":"","motif_pos":-1,"best_pos":5,"similarity":0.429,"stretto":false,"stretto_voices":0,"combination":[]},{"voice":3,"pitch":52,"start":261.25,"duration":0.25,"velocity":127,"measure":131,"beat":3.5,"subject_pos":-1,"motif":"","motif_pos":-1,"best_pos":2,"similarity":0.257,"stretto":false,"stretto_voices":0,"combination":[]},{"voice":1,"pitch":65,"start":261.5,"duration":1.0,"velocity":127,"measure":131,"beat":4.0,"subject_pos":-1,"motif":"enigmatic_cell","motif_pos":0,"best_pos":0,"similarity":1.0,"stretto":false,"stretto_voices":0,"combination":[]},{"voice":2,"pitch":62,"start":261.5,"duration":0.5,"velocity":127,"measure":131,"beat":4.0,"subject_pos":-1,"motif":"","motif_pos":-1,"best_pos":3,"similarity":0.589,"stretto":false,"stretto_voices":0,"combination":[]},{"voice":3,"pitch":45,"start":261.5,"duration":0.25,"velocity":127,"measure":131,"beat":4.0,"subject_pos":-1,"motif":"","motif_pos":-1,"best_pos":3,"similarity":0.464,"stretto":false,"stretto_voices":0,"combination":[]},{"voice":3,"pitch":44,"start":261.75,"duration":0.25,"velocity":127,"measure":131,"beat":4.5,"subject_pos":-1,"motif":"","motif_pos":-1,"best_pos":4,"similarity":0.593,"stretto":false,"stretto_voices":0,"combination":[]},{"voice":2,"pitch":61,"start":262.0,"duration":1.25,"velocity":127,"measure":132,"beat":1.0,"subject_pos":-1,"motif":"","motif_pos":-1,"best_pos":4,"similarity":0.571,"stretto":false,"stretto_voices":0,"combination":[]},{"voice":3,"pitch":45,"start":262.0,"duration":0.25,"velocity":127,"measure":132,"beat":1.0,"subject_pos":-1,"motif":"","motif_pos":-1,"best_pos":5,"similarity":0.45,"stretto":false,"stretto_voices":0,"combination":[]},{"voice":3,"pitch":57,"start":262.25,"duration":0.25,"velocity":127,"measure":132,"beat":1.5,"subject_pos":-1,"motif":"","motif_pos":-1,"best_pos":1,"similarity":0.446,"stretto":false,"stretto_voices":0,"combination":[]},{"voice":1,"pitch":64,"start":262.5,"duration":0.5,"velocity":127,"measure":132,"beat":2.0,"subject_pos":-1,"motif":"enigmatic_cell","motif_pos":1,"best_pos":1,"similarity":1.0,"stretto":false,"stretto_voices":0,"combination":[]},{"voice":3,"pitch":55,"start":262.5,"duration":0.25,"velocity":127,"measure":132,"beat":2.0,"subject_pos":-1,"motif":"","motif_pos":-1,"best_pos":2,"similarity":0.607,"stretto":false,"stretto_voices":0,"combination":[]},{"voice":3,"pitch":52,"start":262.75,"duration":0.25,"velocity":127,"measure":132,"beat":2.5,"subject_pos":-1,"motif":"enigmatic_cell","motif_pos":0,"best_pos":0,"similarity":1.0,"stretto":false,"stretto_voices":0,"combination":[]},{"voice":3,"pitch":53,"start":263.0,"duration":2.0,"velocity":127,"measure":132,"beat":3.0,"subject_pos":-1,"motif":"enigmatic_cell","motif_pos":1,"best_pos":1,"similarity":1.0,"stretto":false,"stretto_voices":0,"combination":[]},{"voice":0,"pitch":81,"start":263.25,"duration":0.25,"velocity":127,"measure":132,"beat":3.5,"subject_pos":-1,"motif":"","motif_pos":-1,"best_pos":1,"similarity":0.446,"stretto":false,"stretto_voices":0,"combination":[]},{"voice":2,"pitch":57,"start":263.25,"duration":0.25,"velocity":127,"measure":132,"beat":3.5,"subject_pos":-1,"motif":"","motif_pos":-1,"best_pos":5,"similarity":0.536,"stretto":false,"stretto_voices":0,"combination":[]},{"voice":0,"pitch":79,"start":263.5,"duration":0.25,"velocity":127,"measure":132,"beat":4.0,"subject_pos":-1,"motif":"","motif_pos":-1,"best_pos":2,"similarity":0.614,"stretto":false,"stretto_voices":0,"combination":[]},{"voice":2,"pitch":59,"start":263.5,"duration":0.25,"velocity":127,"measure":132,"beat":4.0,"subject_pos":-1,"motif":"","motif_pos":-1,"best_pos":5,"similarity":0.604,"stretto":false,"stretto_voices":0,"combination":[]},{"voice":0,"pitch":76,"start":263.75,"duration":0.25,"velocity":127,"measure":132,"beat":4.5,"subject_pos":-1,"motif":"","motif_pos":-1,"best_pos":3,"similarity":0.514,"stretto":false,"stretto_voices":0,"combination":[]},{"voice":2,"pitch":61,"start":263.75,"duration":0.25,"velocity":127,"measure":132,"beat":4.5,"subject_pos":-1,"motif":"enigmatic_cell","motif_pos":0,"best_pos":0,"similarity":1.0,"stretto":false,"stretto_voices":0,"combination":[]},{"voice":0,"pitch":77,"start":264.0,"duration":0.25,"velocity":127,"measure":133,"beat":1.0,"subject_pos":-1,"motif":"","motif_pos":-1,"best_pos":5,"similarity":0.429,"stretto":false,"stretto_voices":0,"combination":[]},{"voice":1,"pitch":69,"start":264.0,"duration":1.0,"velocity":127,"measure":133,"beat":1.0,"subject_pos":-1,"motif":"enigmatic_cell","motif_pos":2,"best_pos":2,"similarity":1.0,"stretto":false,"stretto_voices":0,"combination":[]},{"voice":2,"pitch":62,"start":264.0,"duration":0.5,"velocity":127,"measure":133,"beat":1.0,"subject_pos":-1,"motif":"enigmatic_cell","motif_pos":1,"best_pos":1,"similarity":1.0,"stretto":false,"stretto_voices":0,"combination":[]},{"voice":0,"pitch":81,"start":264.25,"duration":0.25,"velocity":127,"measure":133,"beat":1.5,"subject_pos":-1,"motif":"","motif_pos":-1,"best_pos":2,"similarity":0.257,"stretto":false,"stretto_voices":0,"combination":[]},{"voice":0,"pitch":74,"start":264.5,"duration":0.25,"velocity":127,"measure":133,"beat":2.0,"subject_pos":-1,"motif":"","motif_pos":-1,"best_pos":3,"similarity":0.5,"stretto":false,"stretto_voices":0,"combination":[]},{"voice":2,"pitch":57,"start":264.5,"duration":0.75,"velocity":127,"measure":133,"beat":2.0,"subject_pos":-1,"motif":"enigmatic_cell","motif_pos":2,"best_pos":2,"similarity":1.0,"stretto":false,"stretto_voices":0,"combination":[]},{"voice":0,"pitch":73,"start":264.75,"duration":0.25,"velocity":127,"measure":133,"beat":2.5,"subject_pos":-1,"motif":"","motif_pos":-1,"best_pos":4,"similarity":0.675,"stretto":false,"stretto_voices":0,"combination":[]},{"voice":0,"pitch":74,"start":265.0,"duration":1.25,"velocity":127,"measure":133,"beat":3.0,"subject_pos":-1,"motif":"","motif_pos":-1,"best_pos":5,"similarity":0.614,"stretto":false,"stretto_voices":0,"combination":[]},{"voice":1,"pitch":62,"start":265.0,"duration":1.0,"velocity":127,"measure":133,"beat":3.0,"subject_pos":-1,"motif":"","motif_pos":-1,"best_pos":2,"similarity":0.243,"stretto":false,"stretto_voices":0,"combination":[]},{"voice":3,"pitch":46,"start":265.0,"duration":1.0,"velocity":127,"measure":133,"beat":3.0,"subject_pos":-1,"motif":"enigmatic_cell","motif_pos":2,"best_pos":2,"similarity":1.0,"stretto":false,"stretto_voices":0,"combination":[]},{"voice":2,"pitch":58,"start":265.25,"duration":0.25,"velocity":127,"measure":133,"beat":3.5,"subject_pos":-1,"motif":"","motif_pos":-1,"best_pos":3,"similarity":0.464,"stretto":false,"stretto_voices":0,"combination":[]},{"voice":2,"pitch":57,"start":265.5,"duration":0.25,"velocity":127,"measure":133,"beat":4.0,"subject_pos":-1,"motif":"","motif_pos":-1,"best_pos":3,"similarity":0.514,"stretto":false,"stretto_voices":0,"combination":[]},{"voice":2,"pitch":56,"start":265.75,"duration":0.25,"velocity":127,"measure":133,"beat":4.5,"subject_pos":-1,"motif":"","motif_pos":-1,"best_pos":4,"similarity":0.65,"stretto":false,"stretto_voices":0,"combination":[]},{"voice":1,"pitch":65,"start":266.0,"duration":1.0,"velocity":127,"measure":134,"beat":1.0,"subject_pos":-1,"motif":"","motif_pos":-1,"best_pos":5,"similarity":0.286,"stretto":false,"stretto_voices":0,"combination":[]},{"voice":2,"pitch":57,"start":266.0,"duration":0.25,"velocity":127,"measure":134,"beat":1.0,"subject_pos":-1,"motif":"","motif_pos":-1,"best_pos":5,"similarity":0.518,"stretto":false,"stretto_voices":0,"combination":[]},{"voice":3,"pitch":45,"start":266.0,"duration":2.0,"velocity":127,"measure":134,"beat":1.0,"subject_pos":-1,"motif":"","motif_pos":-1,"best_pos":4,"similarity":0.336,"stretto":false,"stretto_voices":0,"combination":[]},{"voice":0,"pitch":77,"start":266.25,"duration":0.25,"velocity":127,"measure":134,"beat":1.5,"subject_pos":-1,"motif":"","motif_pos":-1,"best_pos":6,"similarity":0.429,"stretto":false,"stretto_voices":0,"combination":[]},{"voice":2,"pitch":47,"start":266.25,"duration":0.25,"velocity":127,"measure":134,"beat":1.5,"subject_pos":-1,"motif":"","motif_pos":-1,"best_pos":5,"similarity":0.482,"stretto":false,"stretto_voices":0,"combination":[]},{"voice":0,"pitch":76,"start":266.5,"duration":0.25,"velocity":127,"measure":134,"beat":2.0,"subject_pos":-1,"motif":"","motif_pos":-1,"best_pos":2,"similarity":0.536,"stretto":false,"stretto_voices":0,"combination":[]},{"voice":2,"pitch":49,"start":266.5,"duration":0.25,"velocity":127,"measure":134,"beat":2.0,"subject_pos":-1,"motif":"","motif_pos":-1,"best_pos":6,"similarity":0.589,"stretto":false,"stretto_voices":0,"combination":[]},{"voice":0,"pitch":74,"start":266.75,"duration":0.25,"velocity":127,"measure":134,"beat":2.5,"subject_pos":-1,"motif":"","motif_pos":-1,"best_pos":3,"similarity":0.661,"stretto":false,"stretto_voices":0,"combination":[]},{"voice":2,"pitch":50,"start":266.75,"duration":0.25,"velocity":127,"measure":134,"beat":2.5,"subject_pos":-1,"motif":"","motif_pos":-1,"best_pos":5,"similarity":0.729,"stretto":false,"stretto_voices":0,"combination":[]},{"voice":0,"pitch":73,"start":267.0,"duration":0.25,"velocity":127,"measure":134,"beat":3.0,"subject_pos":-1,"motif":"","motif_pos":-1,"best_pos":4,"similarity":0.714,"stretto":false,"stretto_voices":0,"combination":[]},{"voice":1,"pitch":69,"start":267.0,"duration":1.0,"velocity":127,"measure":134,"beat":3.0,"subject_pos":-1,"motif":"tail_inv","motif_pos":0,"best_pos":0,"similarity":1.0,"stretto":false,"stretto_voices":0,"combination":[]},{"voice":2,"pitch":52,"start":267.0,"duration":0.25,"velocity":127,"measure":134,"beat":3.0,"subject_pos":-1,"motif":"","motif_pos":-1,"best_pos":6,"similarity":0.721,"stretto":false,"stretto_voices":0,"combination":[]},{"voice":0,"pitch":74,"start":267.25,"duration":0.25,"velocity":127,"measure":134,"beat":3.5,"subject_pos":-1,"motif":"","motif_pos":-1,"best_pos":5,"similarity":0.536,"stretto":false,"stretto_voices":0,"combination":[]},{"voice":2,"pitch":53,"start":267.25,"duration":0.25,"velocity":127,"measure":134,"beat":3.5,"subject_pos":-1,"motif":"","motif_pos":-1,"best_pos":5,"similarity":0.607,"stretto":false,"stretto_voices":0,"combination":[]},{"voice":0,"pitch":71,"start":267.5,"duration":0.25,"velocity":127,"measure":134,"beat":4.0,"subject_pos":-1,"motif":"","motif_pos":-1,"best_pos":5,"similarity":0.511,"stretto":false,"stretto_voices":0,"combination":[]},{"voice":2,"pitch":55,"start":267.5,"duration":0.25,"velocity":127,"measure":134,"beat":4.0,"subject_pos":-1,"motif":"","motif_pos":-1,"best_pos":6,"similarity":0.464,"stretto":false,"stretto_voices":0,"combination":[]},{"voice":0,"pitch":73,"start":267.75,"duration":0.25,"velocity":127,"measure":134,"beat":4.5,"subject_pos":-1,"motif":"","motif_pos":-1,"best_pos":6,"similarity":0.604,"stretto":false,"stretto_voices":0,"combination":[]},{"voice":2,"pitch":52,"start":267.75,"duration":0.25,"velocity":127,"measure":134,"beat":4.5,"subject_pos":-1,"motif":"","motif_pos":-1,"best_pos":3,"similarity":0.379,"stretto":false,"stretto_voices":0,"combination":[]},{"voice":0,"pitch":74,"start":268.0,"duration":0.75,"velocity":127,"measure":135,"beat":1.0,"subject_pos":-1,"motif":"","motif_pos":-1,"best_pos":5,"similarity":0.543,"stretto":false,"stretto_voices":0,"combination":[]},{"voice":1,"pitch":70,"start":268.0,"duration":1.0,"velocity":127,"measure":135,"beat":1.0,"subject_pos":-1,"motif":"tail_inv","motif_pos":1,"best_pos":1,"similarity":1.0,"stretto":false,"stretto_voices":0,"combination":[]},{"voice":2,"pitch":54,"start":268.0,"duration":0.25,"velocity":127,"measure":135,"beat":1.0,"subject_pos":-1,"motif":"","motif_pos":-1,"best_pos":6,"similarity":0.379,"stretto":false,"stretto_voices":0,"combination":[]},{"voice":3,"pitch":50,"start":268.0,"duration":8.0,"velocity":127,"measure":135,"beat":1.0,"subject_pos":-1,"motif":"","motif_pos":-1,"best_pos":1,"similarity":0.286,"stretto":false,"stretto_voices":0,"combination":[]},{"voice":2,"pitch":57,"start":268.25,"duration":0.25,"velocity":127,"measure":135,"beat":1.5,"subject_pos":-1,"motif":"","motif_pos":-1,"best_pos":1,"similarity":0.393,"stretto":false,"stretto_voices":0,"combination":[]},{"voice":2,"pitch":55,"start":268.5,"duration":0.75,"velocity":127,"measure":135,"beat":2.0,"subject_pos":-1,"motif":"","motif_pos":-1,"best_pos":3,"similarity":0.457,"stretto":false,"stretto_voices":0,"combination":[]},{"voice":0,"pitch":73,"start":268.75,"duration":0.25,"velocity":127,"measure":135,"beat":2.5,"subject_pos":-1,"motif":"","motif_pos":-1,"best_pos":4,"similarity":0.679,"stretto":false,"stretto_voices":0,"combination":[]},{"voice":0,"pitch":74,"start":269.0,"duration":0.75,"velocity":127,"measure":135,"beat":3.0,"subject_pos":-1,"motif":"","motif_pos":-1,"best_pos":5,"similarity":0.607,"stretto":false,"stretto_voices":0,"combination":[]},{"voice":1,"pitch":69,"start":269.0,"duration":0.5,"velocity":127,"measure":135,"beat":3.0,"subject_pos":-1,"motif":"tail_inv","motif_pos":2,"best_pos":2,"similarity":1.0,"stretto":false,"stretto_voices":0,"combination":[]},{"voice":2,"pitch":54,"start":269.25,"duration":0.25,"velocity":127,"measure":135,"beat":3.5,"subject_pos":-1,"motif":"","motif_pos":-1,"best_pos":4,"similarity":0.418,"stretto":false,"stretto_voices":0,"combination":[]},{"voice":1,"pitch":67,"start":269.5,"duration":0.5,"velocity":127,"measure":135,"beat":4.0,"subject_pos":-1,"motif":"tail_inv","motif_pos":3,"best_pos":3,"similarity":1.0,"stretto":false,"stretto_voices":0,"combination":[]},{"voice":2,"pitch":58,"start":269.5,"duration":0.75,"velocity":127,"measure":135,"beat":4.0,"subject_pos":-1,"motif":"bach","motif_pos":0,"best_pos":0,"similarity":1.0,"stretto":false,"stretto_voices":0,"combination":[]},{"voice":0,"pitch":73,"start":269.75,"duration":0.25,"velocity":127,"measure":135,"beat":4.5,"subject_pos":-1,"motif":"","motif_pos":-1,"best_pos":4,"similarity":0.693,"stretto":false,"stretto_voices":0,"combination":[]},{"voice":0,"pitch":74,"start":270.0,"duration":0.75,"velocity":127,"measure":136,"beat":1.0,"subject_pos":-1,"motif":"enigmatic_cell","motif_pos":0,"best_pos":0,"similarity":1.0,"stretto":false,"stretto_voices":0,"combination":[]},{"voice":1,"pitch":66,"start":270.0,"duration":1.25,"velocity":127,"measure":136,"beat":1.0,"subject_pos":-1,"motif":"tail_inv","motif_pos":4,"best_pos":4,"similarity":1.0,"stretto":false,"stretto_voices":0,"combination":[]},{"voice":2,"pitch":57,"start":270.25,"duration":0.25,"velocity":127,"measure":136,"beat":1.5,"subject_pos":-1,"motif":"bach","motif_pos":1,"best_pos":1,"similarity":1.0,"stretto":false,"stretto_voices":0,"combination":[]},{"voice":2,"pitch":60,"start":270.5,"duration":1.0,"velocity":127,"measure":136,"beat":2.0,"subject_pos":-1,"motif":"bach","motif_pos":2,"best_pos":2,"similarity":1.0,"stretto":false,"stretto_voices":0,"combination":[]},{"voice":0,"pitch":75,"start":270.75,"duration":0.25,"velocity":127,"measure":136,"beat":2.5,"subject_pos":-1,"motif":"enigmatic_cell","motif_pos":1,"best_pos":1,"similarity":1.0,"stretto":false,"stretto_voices":0,"combination":[]},{"voice":0,"pitch":69,"start":271.0,"duration":0.5,"velocity":127,"measure":136,"beat":3.0,"subject_pos":-1,"motif":"enigmatic_cell","motif_pos":2,"best_pos":2,"similarity":1.0,"stretto":false,"stretto_voices":0,"combination":[]},{"voice":1,"pitch":62,"start":271.25,"duration":0.25,"velocity":127,"measure":136,"beat":3.5,"subject_pos":-1,"motif":"","motif_pos":-1,"best_pos":5,"similarity":0.536,"stretto":false,"stretto_voices":0,"combination":[]},{"voice":1,"pitch":64,"start":271.5,"duration":0.25,"velocity":127,"measure":136,"beat":4.0,"subject_pos":-1,"motif":"","motif_pos":-1,"best_pos":5,"similarity":0.604,"stretto":false,"stretto_voices":0,"combination":[]},{"voice":2,"pitch":59,"start":271.5,"duration":0.25,"velocity":127,"measure":136,"beat":4.0,"subject_pos":-1,"motif":"bach","motif_pos":3,"best_pos":3,"similarity":1.0,"stretto":false,"stretto_voices":0,"combination":[]},{"voice":1,"pitch":66,"start":271.75,"duration":0.25,"velocity":127,"measure":136,"beat":4.5,"subject_pos":-1,"motif":"","motif_pos":-1,"best_pos":6,"similarity":0.65,"stretto":false,"stretto_voices":0,"combination":[]},{"voice":2,"pitch":57,"start":271.75,"duration":0.25,"velocity":127,"measure":136,"beat":4.5,"subject_pos":-1,"motif":"","motif_pos":-1,"best_pos":5,"similarity":0.493,"stretto":false,"stretto_voices":0,"combination":[]},{"voice":1,"pitch":67,"start":272.0,"duration":1.25,"velocity":127,"measure":137,"beat":1.0,"subject_pos":-1,"motif":"","motif_pos":-1,"best_pos":3,"similarity":0.479,"stretto":false,"stretto_voices":0,"combination":[]},{"voice":2,"pitch":59,"start":272.0,"duration":0.5,"velocity":127,"measure":137,"beat":1.0,"subject_pos":-1,"motif":"","motif_pos":-1,"best_pos":3,"similarity":0.471,"stretto":false,"stretto_voices":0,"combination":[]},{"voice":0,"pitch":74,"start":272.25,"duration":0.25,"velocity":127,"measure":137,"beat":1.5,"subject_pos":-1,"motif":"","motif_pos":-1,"best_pos":5,"similarity":0.357,"stretto":false,"stretto_voices":0,"combination":[]},{"voice":0,"pitch":76,"start":272.5,"duration":0.25,"velocity":127,"measure":137,"beat":2.0,"subject_pos":-1,"motif":"","motif_pos":-1,"best_pos":6,"similarity":0.371,"stretto":false,"stretto_voices":0,"combination":[]},{"voice":2,"pitch":58,"start":272.5,"duration":1.0,"velocity":127,"measure":137,"beat":2.0,"subject_pos":-1,"motif":"","motif_pos":-1,"best_pos":4,"similarity":0.479,"stretto":false,"stretto_voices":0,"combination":[]},{"voice":0,"pitch":79,"start":272.75,"duration":0.25,"velocity":127,"measure":137,"beat":2.5,"subject_pos":-1,"motif":"","motif_pos":-1,"best_pos":3,"similarity":0.229,"stretto":false,"stretto_voices":0,"combination":[]},{"voice":0,"pitch":73,"start":273.0,"duration":1.0,"velocity":127,"measure":137,"beat":3.0,"subject_pos":-1,"motif":"","motif_pos":-1,"best_pos":6,"similarity":0.329,"stretto":false,"stretto_voices":0,"combination":[]},{"voice":1,"pitch":66,"start":273.25,"duration":0.25,"velocity":127,"measure":137,"beat":3.5,"subject_pos":-1,"motif":"","motif_pos":-1,"best_pos":4,"similarity":0.629,"stretto":false,"stretto_voices":0,"combination":[]},{"voice":1,"pitch":67,"start":273.5,"duration":0.25,"velocity":127,"measure":137,"beat":4.0,"subject_pos":-1,"motif":"","motif_pos":-1,"best_pos":5,"similarity":0.507,"stretto":false,"stretto_voices":0,"combination":[]},{"voice":2,"pitch":57,"start":273.5,"duration":0.25,"velocity":127,"measure":137,"beat":4.0,"subject_pos":-1,"motif":"","motif_pos":-1,"best_pos":4,"similarity":0.5,"stretto":false,"stretto_voices":0,"combination":[]},{"voice":1,"pitch":64,"start":273.75,"duration":0.25,"velocity":127,"measure":137,"beat":4.5,"subject_pos":-1,"motif":"","motif_pos":-1,"best_pos":5,"similarity":0.368,"stretto":false,"stretto_voices":0,"combination":[]},{"voice":2,"pitch":55,"start":273.75,"duration":0.25,"velocity":127,"measure":137,"beat":4.5,"subject_pos":-1,"motif":"","motif_pos":-1,"best_pos":5,"similarity":0.475,"stretto":false,"stretto_voices":0,"combination":[]},{"voice":0,"pitch":74,"start":274.0,"duration":2.0,"velocity":127,"measure":138,"beat":1.0,"subject_pos":-1,"motif":"","motif_pos":-1,"best_pos":7,"similarity":0.304,"stretto":false,"stretto_voices":0,"combination":[]},{"voice":1,"pitch":66,"start":274.0,"duration":2.0,"velocity":127,"measure":138,"beat":1.0,"subject_pos":-1,"motif":"","motif_pos":-1,"best_pos":6,"similarity":0.318,"stretto":false,"stretto_voices":0,"combination":[]},{"voice":2,"pitch":57,"start":274.0,"duration":2.0,"velocity":127,"measure":138,"beat":1.0,"subject_pos":-1,"motif":"","motif_pos":-1,"best_pos":6,"similarity":0.371,"stretto":false,"stretto_voices":0,"combination":[]}]}