{"metadata":{"title":"The Art of the Fugue, Contrapunctus IX","number":"IX","composer":"J.S. Bach","source_midi":"kunst_der_fuge_ix_mutopia.mid","tempo_bpm":120.0,"tempo_us_per_beat":500000,"ticks_per_beat":384,"time_signature":"4/4","key_signature":"D minor","total_duration_seconds":283.6361,"total_measures":130,"beats_per_measure":4},"voices":[{"id":0,"name":"Soprano","midi_channel":0,"midi_track":1,"color":"#E85D4A","pitch_min":62,"pitch_max":84,"note_count":504},{"id":1,"name":"Alto","midi_channel":1,"midi_track":2,"color":"#4A90D9","pitch_min":56,"pitch_max":77,"note_count":490},{"id":2,"name":"Tenor","midi_channel":2,"midi_track":3,"color":"#27AE60","pitch_min":48,"pitch_max":69,"note_count":361},{"id":3,"name":"Bass","midi_channel":3,"midi_track":4,"color":"#8E44AD","pitch_min":36,"pitch_max":62,"note_count":336}],"notes":[{"voice":1,"pitch":62,"start":0.5455,"duration":0.5455,"velocity":127,"measure":1,"beat":2.0,"subject_pos":0,"motif":"subject","motif_pos":0,"best_pos":0,"similarity":1.0,"stretto":false,"stretto_voices":0,"combination":[],"aug_dim":"","rhythm_ratio":1.0,"mirror":false,"chromatic_density":0.0,"complexity":0.396,"dissonance":0},{"voice":1,"pitch":74,"start":1.0909,"duration":1.6364,"velocity":127,"measure":1,"beat":3.0,"subject_pos":1,"motif":"subject","motif_pos":1,"best_pos":1,"similarity":1.0,"stretto":false,"stretto_voices":0,"combination":[],"aug_dim":"","rhythm_ratio":1.0,"mirror":false,"chromatic_density":0.0,"complexity":0.396,"dissonance":0},{"voice":1,"pitch":73,"start":2.7273,"duration":0.2727,"velocity":127,"measure":2,"beat":2.0,"subject_pos":2,"motif":"subject","motif_pos":2,"best_pos":2,"similarity":1.0,"stretto":false,"stretto_voices":0,"combination":[],"aug_dim":"","rhythm_ratio":1.0,"mirror":false,"chromatic_density":0.2,"complexity":0.418,"dissonance":0},{"voice":1,"pitch":71,"start":3.0,"duration":0.2727,"velocity":127,"measure":2,"beat":2.5,"subject_pos":3,"motif":"subject","motif_pos":3,"best_pos":3,"similarity":1.0,"stretto":false,"stretto_voices":0,"combination":[],"aug_dim":"","rhythm_ratio":1.0,"mirror":false,"chromatic_density":0.2,"complexity":0.418,"dissonance":0},{"voice":1,"pitch":69,"start":3.2727,"duration":0.2727,"velocity":127,"measure":2,"beat":3.0,"subject_pos":4,"motif":"subject","motif_pos":4,"best_pos":4,"similarity":1.0,"stretto":false,"stretto_voices":0,"combination":[],"aug_dim":"","rhythm_ratio":1.0,"mirror":false,"chromatic_density":0.2,"complexity":0.418,"dissonance":0},{"voice":1,"pitch":67,"start":3.5455,"duration":0.2727,"velocity":127,"measure":2,"beat":3.5,"subject_pos":5,"motif":"subject","motif_pos":5,"best_pos":5,"similarity":1.0,"stretto":false,"stretto_voices":0,"combination":[],"aug_dim":"","rhythm_ratio":1.0,"mirror":false,"chromatic_density":0.2,"complexity":0.418,"dissonance":0},{"voice":1,"pitch":65,"start":3.8182,"duration":0.2727,"velocity":127,"measure":2,"beat":4.0,"subject_pos":6,"motif":"subject","motif_pos":6,"best_pos":6,"similarity":1.0,"stretto":false,"stretto_voices":0,"combination":[],"aug_dim":"","rhythm_ratio":1.0,"mirror":false,"chromatic_density":0.2,"complexity":0.418,"dissonance":0},{"voice":1,"pitch":64,"start":4.0909,"duration":0.2727,"velocity":127,"measure":2,"beat":4.5,"subject_pos":7,"motif":"subject","motif_pos":7,"best_pos":7,"similarity":1.0,"stretto":false,"stretto_voices":0,"combination":[],"aug_dim":"","rhythm_ratio":1.0,"mirror":false,"chromatic_density":0.2,"complexity":0.418,"dissonance":0},{"voice":1,"pitch":62,"start":4.3636,"duration":0.2727,"velocity":127,"measure":3,"beat":1.0,"subject_pos":8,"motif":"subject","motif_pos":8,"best_pos":0,"similarity":1.0,"stretto":false,"stretto_voices":0,"combination":[],"aug_dim":"","rhythm_ratio":1.0,"mirror":false,"chromatic_density":0.571,"complexity":0.233,"dissonance":0},{"voice":1,"pitch":61,"start":4.6364,"duration":0.2727,"velocity":127,"measure":3,"beat":1.5,"subject_pos":-1,"motif":"","motif_pos":-1,"best_pos":4,"similarity":0.893,"stretto":false,"stretto_voices":0,"combination":[],"aug_dim":"","rhythm_ratio":1.0,"mirror":false,"chromatic_density":0.571,"complexity":0.233,"dissonance":0},{"voice":1,"pitch":62,"start":4.9091,"duration":0.2727,"velocity":127,"measure":3,"beat":2.0,"subject_pos":-1,"motif":"","motif_pos":-1,"best_pos":5,"similarity":0.893,"stretto":false,"stretto_voices":0,"combination":[],"aug_dim":"","rhythm_ratio":1.0,"mirror":false,"chromatic_density":0.571,"complexity":0.233,"dissonance":0},{"voice":1,"pitch":64,"start":5.1818,"duration":0.2727,"velocity":127,"measure":3,"beat":2.5,"subject_pos":-1,"motif":"","motif_pos":-1,"best_pos":6,"similarity":0.786,"stretto":false,"stretto_voices":0,"combination":[],"aug_dim":"","rhythm_ratio":1.0,"mirror":false,"chromatic_density":0.571,"complexity":0.233,"dissonance":0},{"voice":1,"pitch":65,"start":5.4545,"duration":0.2727,"velocity":127,"measure":3,"beat":3.0,"subject_pos":-1,"motif":"","motif_pos":-1,"best_pos":7,"similarity":0.5,"stretto":false,"stretto_voices":0,"combination":[],"aug_dim":"","rhythm_ratio":1.0,"mirror":false,"chromatic_density":0.571,"complexity":0.233,"dissonance":0},{"voice":1,"pitch":62,"start":5.7273,"duration":0.2727,"velocity":127,"measure":3,"beat":3.5,"subject_pos":-1,"motif":"","motif_pos":-1,"best_pos":3,"similarity":0.55,"stretto":false,"stretto_voices":0,"combination":[],"aug_dim":"","rhythm_ratio":1.0,"mirror":false,"chromatic_density":0.571,"complexity":0.233,"dissonance":0},{"voice":1,"pitch":64,"start":6.0,"duration":0.2727,"velocity":127,"measure":3,"beat":4.0,"subject_pos":-1,"motif":"","motif_pos":-1,"best_pos":4,"similarity":0.625,"stretto":false,"stretto_voices":0,"combination":[],"aug_dim":"","rhythm_ratio":1.0,"mirror":false,"chromatic_density":0.571,"complexity":0.233,"dissonance":0},{"voice":1,"pitch":65,"start":6.2727,"duration":0.2727,"velocity":127,"measure":3,"beat":4.5,"subject_pos":-1,"motif":"","motif_pos":-1,"best_pos":5,"similarity":0.693,"stretto":false,"stretto_voices":0,"combination":[],"aug_dim":"","rhythm_ratio":1.0,"mirror":false,"chromatic_density":0.571,"complexity":0.233,"dissonance":0},{"voice":1,"pitch":67,"start":6.5454,"duration":0.2727,"velocity":127,"measure":4,"beat":1.0,"subject_pos":-1,"motif":"tail","motif_pos":3,"best_pos":3,"similarity":1.0,"stretto":false,"stretto_voices":0,"combination":[],"aug_dim":"","rhythm_ratio":1.0,"mirror":false,"chromatic_density":0.571,"complexity":0.358,"dissonance":0},{"voice":1,"pitch":66,"start":6.8182,"duration":0.2727,"velocity":127,"measure":4,"beat":1.5,"subject_pos":-1,"motif":"tail","motif_pos":4,"best_pos":4,"similarity":1.0,"stretto":false,"stretto_voices":0,"combination":[],"aug_dim":"","rhythm_ratio":1.0,"mirror":false,"chromatic_density":0.571,"complexity":0.358,"dissonance":0},{"voice":1,"pitch":67,"start":7.0909,"duration":0.2727,"velocity":127,"measure":4,"beat":2.0,"subject_pos":-1,"motif":"tail","motif_pos":5,"best_pos":5,"similarity":1.0,"stretto":false,"stretto_voices":0,"combination":[],"aug_dim":"","rhythm_ratio":1.0,"mirror":false,"chromatic_density":0.571,"complexity":0.358,"dissonance":0},{"voice":1,"pitch":69,"start":7.3636,"duration":0.2727,"velocity":127,"measure":4,"beat":2.5,"subject_pos":-1,"motif":"tail","motif_pos":6,"best_pos":6,"similarity":1.0,"stretto":false,"stretto_voices":0,"combination":[],"aug_dim":"","rhythm_ratio":1.0,"mirror":false,"chromatic_density":0.571,"complexity":0.358,"dissonance":0},{"voice":1,"pitch":70,"start":7.6364,"duration":0.2727,"velocity":127,"measure":4,"beat":3.0,"subject_pos":-1,"motif":"tail","motif_pos":7,"best_pos":7,"similarity":1.0,"stretto":false,"stretto_voices":0,"combination":[],"aug_dim":"","rhythm_ratio":1.0,"mirror":false,"chromatic_density":0.571,"complexity":0.358,"dissonance":0},{"voice":1,"pitch":67,"start":7.9091,"duration":0.2727,"velocity":127,"measure":4,"beat":3.5,"subject_pos":-1,"motif":"","motif_pos":-1,"best_pos":3,"similarity":0.496,"stretto":false,"stretto_voices":0,"combination":[],"aug_dim":"","rhythm_ratio":1.0,"mirror":false,"chromatic_density":0.571,"complexity":0.358,"dissonance":0},{"voice":1,"pitch":69,"start":8.1818,"duration":0.2727,"velocity":127,"measure":4,"beat":4.0,"subject_pos":-1,"motif":"","motif_pos":-1,"best_pos":6,"similarity":0.604,"stretto":false,"stretto_voices":0,"combination":[],"aug_dim":"","rhythm_ratio":1.0,"mirror":false,"chromatic_density":0.571,"complexity":0.358,"dissonance":0},{"voice":1,"pitch":70,"start":8.4545,"duration":0.2727,"velocity":127,"measure":4,"beat":4.5,"subject_pos":-1,"motif":"","motif_pos":-1,"best_pos":5,"similarity":0.479,"stretto":false,"stretto_voices":0,"combination":[],"aug_dim":"","rhythm_ratio":1.0,"mirror":false,"chromatic_density":0.571,"complexity":0.358,"dissonance":0},{"voice":1,"pitch":70,"start":8.7273,"duration":0.5455,"velocity":127,"measure":5,"beat":1.0,"subject_pos":-1,"motif":"","motif_pos":-1,"best_pos":3,"similarity":0.414,"stretto":false,"stretto_voices":0,"combination":[],"aug_dim":"","rhythm_ratio":1.0,"mirror":false,"chromatic_density":0.333,"complexity":0.208,"dissonance":0},{"voice":1,"pitch":69,"start":9.2727,"duration":0.5455,"velocity":127,"measure":5,"beat":2.0,"subject_pos":-1,"motif":"","motif_pos":-1,"best_pos":4,"similarity":0.5,"stretto":false,"stretto_voices":0,"combination":[],"aug_dim":"","rhythm_ratio":1.0,"mirror":false,"chromatic_density":0.333,"complexity":0.208,"dissonance":0},{"voice":1,"pitch":69,"start":10.0909,"duration":0.2727,"velocity":127,"measure":5,"beat":3.5,"subject_pos":-1,"motif":"","motif_pos":-1,"best_pos":4,"similarity":0.439,"stretto":false,"stretto_voices":0,"combination":[],"aug_dim":"","rhythm_ratio":1.0,"mirror":false,"chromatic_density":0.333,"complexity":0.208,"dissonance":0},{"voice":1,"pitch":67,"start":10.3636,"duration":0.2727,"velocity":127,"measure":5,"beat":4.0,"subject_pos":-1,"motif":"","motif_pos":-1,"best_pos":5,"similarity":0.546,"stretto":false,"stretto_voices":0,"combination":[],"aug_dim":"","rhythm_ratio":1.0,"mirror":false,"chromatic_density":0.333,"complexity":0.208,"dissonance":0},{"voice":1,"pitch":69,"start":10.6364,"duration":0.2727,"velocity":127,"measure":5,"beat":4.5,"subject_pos":-1,"motif":"","motif_pos":-1,"best_pos":6,"similarity":0.621,"stretto":false,"stretto_voices":0,"combination":[],"aug_dim":"","rhythm_ratio":1.0,"mirror":false,"chromatic_density":0.333,"complexity":0.208,"dissonance":0},{"voice":1,"pitch":70,"start":10.9091,"duration":0.2727,"velocity":127,"measure":6,"beat":1.0,"subject_pos":-1,"motif":"","motif_pos":-1,"best_pos":7,"similarity":0.436,"stretto":false,"stretto_voices":0,"combination":[],"aug_dim":"","rhythm_ratio":1.0,"mirror":false,"chromatic_density":0.143,"complexity":0.202,"dissonance":0},{"voice":1,"pitch":74,"start":11.1818,"duration":0.2727,"velocity":127,"measure":6,"beat":1.5,"subject_pos":-1,"motif":"","motif_pos":-1,"best_pos":1,"similarity":0.507,"stretto":false,"stretto_voices":0,"combination":[],"aug_dim":"","rhythm_ratio":1.0,"mirror":false,"chromatic_density":0.143,"complexity":0.202,"dissonance":0},{"voice":1,"pitch":72,"start":11.4545,"duration":0.2727,"velocity":127,"measure":6,"beat":2.0,"subject_pos":-1,"motif":"","motif_pos":-1,"best_pos":2,"similarity":0.521,"stretto":false,"stretto_voices":0,"combination":[],"aug_dim":"","rhythm_ratio":1.0,"mirror":false,"chromatic_density":0.143,"complexity":0.202,"dissonance":0},{"voice":1,"pitch":70,"start":11.7273,"duration":0.2727,"velocity":127,"measure":6,"beat":2.5,"subject_pos":-1,"motif":"","motif_pos":-1,"best_pos":5,"similarity":0.4,"stretto":false,"stretto_voices":0,"combination":[],"aug_dim":"","rhythm_ratio":1.0,"mirror":false,"chromatic_density":0.143,"complexity":0.202,"dissonance":0},{"voice":1,"pitch":72,"start":12.0,"duration":0.2727,"velocity":127,"measure":6,"beat":3.0,"subject_pos":-1,"motif":"","motif_pos":-1,"best_pos":1,"similarity":0.386,"stretto":false,"stretto_voices":0,"combination":[],"aug_dim":"","rhythm_ratio":1.0,"mirror":false,"chromatic_density":0.143,"complexity":0.202,"dissonance":0},{"voice":1,"pitch":70,"start":12.2727,"duration":0.2727,"velocity":127,"measure":6,"beat":3.5,"subject_pos":-1,"motif":"","motif_pos":-1,"best_pos":3,"similarity":0.464,"stretto":false,"stretto_voices":0,"combination":[],"aug_dim":"","rhythm_ratio":1.0,"mirror":false,"chromatic_density":0.143,"complexity":0.202,"dissonance":0},{"voice":1,"pitch":69,"start":12.5454,"duration":0.2727,"velocity":127,"measure":6,"beat":4.0,"subject_pos":-1,"motif":"","motif_pos":-1,"best_pos":4,"similarity":0.414,"stretto":false,"stretto_voices":0,"combination":[],"aug_dim":"","rhythm_ratio":1.0,"mirror":false,"chromatic_density":0.143,"complexity":0.202,"dissonance":0},{"voice":1,"pitch":67,"start":12.8182,"duration":0.2727,"velocity":127,"measure":6,"beat":4.5,"subject_pos":-1,"motif":"","motif_pos":-1,"best_pos":2,"similarity":0.446,"stretto":false,"stretto_voices":0,"combination":[],"aug_dim":"","rhythm_ratio":1.0,"mirror":false,"chromatic_density":0.143,"complexity":0.202,"dissonance":0},{"voice":1,"pitch":65,"start":13.0909,"duration":0.2727,"velocity":127,"measure":7,"beat":1.0,"subject_pos":-1,"motif":"","motif_pos":-1,"best_pos":2,"similarity":0.436,"stretto":false,"stretto_voices":0,"combination":[],"aug_dim":"","rhythm_ratio":1.0,"mirror":false,"chromatic_density":0.286,"complexity":0.202,"dissonance":0},{"voice":1,"pitch":70,"start":13.3636,"duration":0.2727,"velocity":127,"measure":7,"beat":1.5,"subject_pos":-1,"motif":"","motif_pos":-1,"best_pos":3,"similarity":0.514,"stretto":false,"stretto_voices":0,"combination":[],"aug_dim":"","rhythm_ratio":1.0,"mirror":false,"chromatic_density":0.286,"complexity":0.202,"dissonance":0},{"voice":1,"pitch":69,"start":13.6364,"duration":0.2727,"velocity":127,"measure":7,"beat":2.0,"subject_pos":-1,"motif":"","motif_pos":-1,"best_pos":4,"similarity":0.536,"stretto":false,"stretto_voices":0,"combination":[],"aug_dim":"","rhythm_ratio":1.0,"mirror":false,"chromatic_density":0.286,"complexity":0.202,"dissonance":0},{"voice":1,"pitch":67,"start":13.9091,"duration":0.2727,"velocity":127,"measure":7,"beat":2.5,"subject_pos":-1,"motif":"","motif_pos":-1,"best_pos":5,"similarity":0.471,"stretto":false,"stretto_voices":0,"combination":[],"aug_dim":"","rhythm_ratio":1.0,"mirror":false,"chromatic_density":0.286,"complexity":0.202,"dissonance":0},{"voice":1,"pitch":69,"start":14.1818,"duration":0.2727,"velocity":127,"measure":7,"beat":3.0,"subject_pos":-1,"motif":"","motif_pos":-1,"best_pos":1,"similarity":0.457,"stretto":false,"stretto_voices":0,"combination":[],"aug_dim":"","rhythm_ratio":1.0,"mirror":false,"chromatic_density":0.286,"complexity":0.202,"dissonance":0},{"voice":1,"pitch":67,"start":14.4545,"duration":0.2727,"velocity":127,"measure":7,"beat":3.5,"subject_pos":-1,"motif":"","motif_pos":-1,"best_pos":2,"similarity":0.593,"stretto":false,"stretto_voices":0,"combination":[],"aug_dim":"","rhythm_ratio":1.0,"mirror":false,"chromatic_density":0.286,"complexity":0.202,"dissonance":0},{"voice":1,"pitch":65,"start":14.7273,"duration":0.2727,"velocity":127,"measure":7,"beat":4.0,"subject_pos":-1,"motif":"","motif_pos":-1,"best_pos":3,"similarity":0.6,"stretto":false,"stretto_voices":0,"combination":[],"aug_dim":"","rhythm_ratio":1.0,"mirror":false,"chromatic_density":0.286,"complexity":0.202,"dissonance":0},{"voice":1,"pitch":64,"start":15.0,"duration":0.2727,"velocity":127,"measure":7,"beat":4.5,"subject_pos":-1,"motif":"","motif_pos":-1,"best_pos":4,"similarity":0.479,"stretto":false,"stretto_voices":0,"combination":[],"aug_dim":"","rhythm_ratio":1.0,"mirror":false,"chromatic_density":0.286,"complexity":0.202,"dissonance":0},{"voice":1,"pitch":62,"start":15.2727,"duration":0.2727,"velocity":127,"measure":8,"beat":1.0,"subject_pos":-1,"motif":"","motif_pos":-1,"best_pos":0,"similarity":0.446,"stretto":false,"stretto_voices":0,"combination":[],"aug_dim":"","rhythm_ratio":1.0,"mirror":false,"chromatic_density":0.375,"complexity":0.423,"dissonance":0.0},{"voice":1,"pitch":67,"start":15.5454,"duration":0.2727,"velocity":127,"measure":8,"beat":1.5,"subject_pos":-1,"motif":"","motif_pos":-1,"best_pos":1,"similarity":0.625,"stretto":false,"stretto_voices":0,"combination":[],"aug_dim":"","rhythm_ratio":1.0,"mirror":false,"chromatic_density":0.375,"complexity":0.423,"dissonance":0.0},{"voice":0,"pitch":69,"start":15.8182,"duration":0.5455,"velocity":127,"measure":8,"beat":2.0,"subject_pos":0,"motif":"subject","motif_pos":0,"best_pos":0,"similarity":1.0,"stretto":false,"stretto_voices":0,"combination":[],"aug_dim":"","rhythm_ratio":1.0,"mirror":false,"chromatic_density":0.375,"complexity":0.423,"dissonance":0.0},{"voice":1,"pitch":65,"start":15.8182,"duration":0.2727,"velocity":127,"measure":8,"beat":2.0,"subject_pos":-1,"motif":"","motif_pos":-1,"best_pos":3,"similarity":0.579,"stretto":false,"stretto_voices":0,"combination":[],"aug_dim":"","rhythm_ratio":1.0,"mirror":false,"chromatic_density":0.375,"complexity":0.423,"dissonance":0.0},{"voice":1,"pitch":64,"start":16.0909,"duration":0.2727,"velocity":127,"measure":8,"beat":2.5,"subject_pos":-1,"motif":"","motif_pos":-1,"best_pos":4,"similarity":0.664,"stretto":false,"stretto_voices":0,"combination":[],"aug_dim":"","rhythm_ratio":1.0,"mirror":false,"chromatic_density":0.375,"complexity":0.423,"dissonance":0.0},{"voice":0,"pitch":81,"start":16.3636,"duration":1.6364,"velocity":127,"measure":8,"beat":3.0,"subject_pos":1,"motif":"subject","motif_pos":1,"best_pos":1,"similarity":1.0,"stretto":false,"stretto_voices":0,"combination":[],"aug_dim":"","rhythm_ratio":1.0,"mirror":false,"chromatic_density":0.375,"complexity":0.423,"dissonance":0.0},{"voice":1,"pitch":65,"start":16.3636,"duration":0.2727,"velocity":127,"measure":8,"beat":3.0,"subject_pos":-1,"motif":"","motif_pos":-1,"best_pos":5,"similarity":0.507,"stretto":false,"stretto_voices":0,"combination":[],"aug_dim":"","rhythm_ratio":1.0,"mirror":false,"chromatic_density":0.375,"complexity":0.423,"dissonance":0.0},{"voice":1,"pitch":64,"start":16.6363,"duration":0.2727,"velocity":127,"measure":8,"beat":3.5,"subject_pos":-1,"motif":"","motif_pos":-1,"best_pos":1,"similarity":0.429,"stretto":false,"stretto_voices":0,"combination":[],"aug_dim":"","rhythm_ratio":1.0,"mirror":false,"chromatic_density":0.375,"complexity":0.423,"dissonance":0.0},{"voice":1,"pitch":62,"start":16.9091,"duration":0.2727,"velocity":127,"measure":8,"beat":4.0,"subject_pos":-1,"motif":"","motif_pos":-1,"best_pos":2,"similarity":0.579,"stretto":false,"stretto_voices":0,"combination":[],"aug_dim":"","rhythm_ratio":1.0,"mirror":false,"chromatic_density":0.375,"complexity":0.423,"dissonance":0.0},{"voice":1,"pitch":60,"start":17.1818,"duration":0.2727,"velocity":127,"measure":8,"beat":4.5,"subject_pos":-1,"motif":"enigmatic_cell","motif_pos":0,"best_pos":0,"similarity":1.0,"stretto":false,"stretto_voices":0,"combination":[],"aug_dim":"","rhythm_ratio":1.0,"mirror":false,"chromatic_density":0.375,"complexity":0.423,"dissonance":0.0},{"voice":1,"pitch":59,"start":17.4545,"duration":0.5455,"velocity":127,"measure":9,"beat":1.0,"subject_pos":-1,"motif":"enigmatic_cell","motif_pos":1,"best_pos":1,"similarity":1.0,"stretto":false,"stretto_voices":0,"combination":[],"aug_dim":"","rhythm_ratio":1.0,"mirror":false,"chromatic_density":0.125,"complexity":0.523,"dissonance":0.217},{"voice":0,"pitch":80,"start":18.0,"duration":0.2727,"velocity":127,"measure":9,"beat":2.0,"subject_pos":2,"motif":"subject","motif_pos":2,"best_pos":2,"similarity":1.0,"stretto":false,"stretto_voices":0,"combination":[],"aug_dim":"","rhythm_ratio":1.0,"mirror":false,"chromatic_density":0.125,"complexity":0.523,"dissonance":0.217},{"voice":1,"pitch":64,"start":18.0,"duration":0.5455,"velocity":127,"measure":9,"beat":2.0,"subject_pos":-1,"motif":"enigmatic_cell","motif_pos":2,"best_pos":2,"similarity":1.0,"stretto":false,"stretto_voices":0,"combination":[],"aug_dim":"","rhythm_ratio":1.0,"mirror":false,"chromatic_density":0.125,"complexity":0.523,"dissonance":0.217},{"voice":0,"pitch":78,"start":18.2727,"duration":0.2727,"velocity":127,"measure":9,"beat":2.5,"subject_pos":3,"motif":"subject","motif_pos":3,"best_pos":3,"similarity":1.0,"stretto":false,"stretto_voices":0,"combination":[],"aug_dim":"","rhythm_ratio":1.0,"mirror":false,"chromatic_density":0.125,"complexity":0.523,"dissonance":0.217},{"voice":0,"pitch":76,"start":18.5454,"duration":0.2727,"velocity":127,"measure":9,"beat":3.0,"subject_pos":4,"motif":"subject","motif_pos":4,"best_pos":4,"similarity":1.0,"stretto":false,"stretto_voices":0,"combination":[],"aug_dim":"","rhythm_ratio":1.0,"mirror":false,"chromatic_density":0.125,"complexity":0.523,"dissonance":0.217},{"voice":1,"pitch":68,"start":18.5454,"duration":0.5455,"velocity":127,"measure":9,"beat":3.0,"subject_pos":-1,"motif":"","motif_pos":-1,"best_pos":1,"similarity":0.507,"stretto":false,"stretto_voices":0,"combination":[],"aug_dim":"","rhythm_ratio":1.0,"mirror":false,"chromatic_density":0.125,"complexity":0.523,"dissonance":0.217},{"voice":0,"pitch":74,"start":18.8182,"duration":0.2727,"velocity":127,"measure":9,"beat":3.5,"subject_pos":5,"motif":"subject","motif_pos":5,"best_pos":5,"similarity":1.0,"stretto":false,"stretto_voices":0,"combination":[],"aug_dim":"","rhythm_ratio":1.0,"mirror":false,"chromatic_density":0.125,"complexity":0.523,"dissonance":0.217},{"voice":0,"pitch":72,"start":19.0909,"duration":0.2727,"velocity":127,"measure":9,"beat":4.0,"subject_pos":6,"motif":"subject","motif_pos":6,"best_pos":6,"similarity":1.0,"stretto":false,"stretto_voices":0,"combination":[],"aug_dim":"","rhythm_ratio":1.0,"mirror":false,"chromatic_density":0.125,"complexity":0.523,"dissonance":0.217},{"voice":1,"pitch":64,"start":19.0909,"duration":0.5455,"velocity":127,"measure":9,"beat":4.0,"subject_pos":-1,"motif":"","motif_pos":-1,"best_pos":2,"similarity":0.521,"stretto":false,"stretto_voices":0,"combination":[],"aug_dim":"","rhythm_ratio":1.0,"mirror":false,"chromatic_density":0.125,"complexity":0.523,"dissonance":0.217},{"voice":0,"pitch":71,"start":19.3636,"duration":0.2727,"velocity":127,"measure":9,"beat":4.5,"subject_pos":7,"motif":"subject","motif_pos":7,"best_pos":7,"similarity":1.0,"stretto":false,"stretto_voices":0,"combination":[],"aug_dim":"","rhythm_ratio":1.0,"mirror":false,"chromatic_density":0.125,"complexity":0.523,"dissonance":0.217},{"voice":0,"pitch":69,"start":19.6363,"duration":0.2727,"velocity":127,"measure":10,"beat":1.0,"subject_pos":8,"motif":"subject","motif_pos":8,"best_pos":0,"similarity":1.0,"stretto":false,"stretto_voices":0,"combination":[],"aug_dim":"","rhythm_ratio":1.0,"mirror":false,"chromatic_density":0.417,"complexity":0.366,"dissonance":0.163},{"voice":1,"pitch":60,"start":19.6363,"duration":0.2727,"velocity":127,"measure":10,"beat":1.0,"subject_pos":-1,"motif":"","motif_pos":-1,"best_pos":2,"similarity":0.375,"stretto":false,"stretto_voices":0,"combination":[],"aug_dim":"","rhythm_ratio":1.0,"mirror":false,"chromatic_density":0.417,"complexity":0.366,"dissonance":0.163},{"voice":0,"pitch":68,"start":19.9091,"duration":0.2727,"velocity":127,"measure":10,"beat":1.5,"subject_pos":-1,"motif":"","motif_pos":-1,"best_pos":4,"similarity":0.893,"stretto":false,"stretto_voices":0,"combination":[],"aug_dim":"","rhythm_ratio":1.0,"mirror":false,"chromatic_density":0.417,"complexity":0.366,"dissonance":0.163},{"voice":1,"pitch":62,"start":19.9091,"duration":0.2727,"velocity":127,"measure":10,"beat":1.5,"subject_pos":-1,"motif":"","motif_pos":-1,"best_pos":1,"similarity":0.386,"stretto":false,"stretto_voices":0,"combination":[],"aug_dim":"","rhythm_ratio":1.0,"mirror":false,"chromatic_density":0.417,"complexity":0.366,"dissonance":0.163},{"voice":0,"pitch":69,"start":20.1818,"duration":0.2727,"velocity":127,"measure":10,"beat":2.0,"subject_pos":-1,"motif":"","motif_pos":-1,"best_pos":5,"similarity":0.893,"stretto":false,"stretto_voices":0,"combination":[],"aug_dim":"","rhythm_ratio":1.0,"mirror":false,"chromatic_density":0.417,"complexity":0.366,"dissonance":0.163},{"voice":1,"pitch":60,"start":20.1818,"duration":0.2727,"velocity":127,"measure":10,"beat":2.0,"subject_pos":-1,"motif":"","motif_pos":-1,"best_pos":3,"similarity":0.457,"stretto":false,"stretto_voices":0,"combination":[],"aug_dim":"","rhythm_ratio":1.0,"mirror":false,"chromatic_density":0.417,"complexity":0.366,"dissonance":0.163},{"voice":0,"pitch":71,"start":20.4545,"duration":0.2727,"velocity":127,"measure":10,"beat":2.5,"subject_pos":-1,"motif":"","motif_pos":-1,"best_pos":6,"similarity":0.786,"stretto":false,"stretto_voices":0,"combination":[],"aug_dim":"","rhythm_ratio":1.0,"mirror":false,"chromatic_density":0.417,"complexity":0.366,"dissonance":0.163},{"voice":1,"pitch":59,"start":20.4545,"duration":0.2727,"velocity":127,"measure":10,"beat":2.5,"subject_pos":-1,"motif":"","motif_pos":-1,"best_pos":4,"similarity":0.4,"stretto":false,"stretto_voices":0,"combination":[],"aug_dim":"","rhythm_ratio":1.0,"mirror":false,"chromatic_density":0.417,"complexity":0.366,"dissonance":0.163},{"voice":0,"pitch":72,"start":20.7273,"duration":0.2727,"velocity":127,"measure":10,"beat":3.0,"subject_pos":-1,"motif":"","motif_pos":-1,"best_pos":7,"similarity":0.5,"stretto":false,"stretto_voices":0,"combination":[],"aug_dim":"","rhythm_ratio":1.0,"mirror":false,"chromatic_density":0.417,"complexity":0.366,"dissonance":0.163},{"voice":1,"pitch":57,"start":20.7273,"duration":0.5455,"velocity":127,"measure":10,"beat":3.0,"subject_pos":-1,"motif":"","motif_pos":-1,"best_pos":2,"similarity":0.393,"stretto":false,"stretto_voices":0,"combination":[],"aug_dim":"","rhythm_ratio":1.0,"mirror":false,"chromatic_density":0.417,"complexity":0.366,"dissonance":0.163},{"voice":0,"pitch":69,"start":21.0,"duration":0.2727,"velocity":127,"measure":10,"beat":3.5,"subject_pos":-1,"motif":"","motif_pos":-1,"best_pos":3,"similarity":0.55,"stretto":false,"stretto_voices":0,"combination":[],"aug_dim":"","rhythm_ratio":1.0,"mirror":false,"chromatic_density":0.417,"complexity":0.366,"dissonance":0.163},{"voice":0,"pitch":71,"start":21.2727,"duration":0.2727,"velocity":127,"measure":10,"beat":4.0,"subject_pos":-1,"motif":"","motif_pos":-1,"best_pos":4,"similarity":0.625,"stretto":false,"stretto_voices":0,"combination":[],"aug_dim":"","rhythm_ratio":1.0,"mirror":false,"chromatic_density":0.417,"complexity":0.366,"dissonance":0.163},{"voice":1,"pitch":67,"start":21.2727,"duration":0.5455,"velocity":127,"measure":10,"beat":4.0,"subject_pos":-1,"motif":"","motif_pos":-1,"best_pos":3,"similarity":0.364,"stretto":false,"stretto_voices":0,"combination":[],"aug_dim":"","rhythm_ratio":1.0,"mirror":false,"chromatic_density":0.417,"complexity":0.366,"dissonance":0.163},{"voice":0,"pitch":72,"start":21.5454,"duration":0.2727,"velocity":127,"measure":10,"beat":4.5,"subject_pos":-1,"motif":"","motif_pos":-1,"best_pos":5,"similarity":0.693,"stretto":false,"stretto_voices":0,"combination":[],"aug_dim":"","rhythm_ratio":1.0,"mirror":false,"chromatic_density":0.417,"complexity":0.366,"dissonance":0.163},{"voice":0,"pitch":74,"start":21.8182,"duration":0.2727,"velocity":127,"measure":11,"beat":1.0,"subject_pos":-1,"motif":"tail","motif_pos":3,"best_pos":3,"similarity":1.0,"stretto":false,"stretto_voices":0,"combination":[],"aug_dim":"","rhythm_ratio":1.0,"mirror":false,"chromatic_density":0.417,"complexity":0.438,"dissonance":0.163},{"voice":1,"pitch":65,"start":21.8182,"duration":0.2727,"velocity":127,"measure":11,"beat":1.0,"subject_pos":-1,"motif":"","motif_pos":-1,"best_pos":2,"similarity":0.389,"stretto":false,"stretto_voices":0,"combination":[],"aug_dim":"","rhythm_ratio":1.0,"mirror":false,"chromatic_density":0.417,"complexity":0.438,"dissonance":0.163},{"voice":0,"pitch":73,"start":22.0909,"duration":0.2727,"velocity":127,"measure":11,"beat":1.5,"subject_pos":-1,"motif":"tail","motif_pos":4,"best_pos":4,"similarity":1.0,"stretto":false,"stretto_voices":0,"combination":[],"aug_dim":"","rhythm_ratio":1.0,"mirror":false,"chromatic_density":0.417,"complexity":0.438,"dissonance":0.163},{"voice":1,"pitch":67,"start":22.0909,"duration":0.2727,"velocity":127,"measure":11,"beat":1.5,"subject_pos":-1,"motif":"","motif_pos":-1,"best_pos":1,"similarity":0.386,"stretto":false,"stretto_voices":0,"combination":[],"aug_dim":"","rhythm_ratio":1.0,"mirror":false,"chromatic_density":0.417,"complexity":0.438,"dissonance":0.163},{"voice":0,"pitch":74,"start":22.3636,"duration":0.2727,"velocity":127,"measure":11,"beat":2.0,"subject_pos":-1,"motif":"tail","motif_pos":5,"best_pos":5,"similarity":1.0,"stretto":false,"stretto_voices":0,"combination":[],"aug_dim":"","rhythm_ratio":1.0,"mirror":false,"chromatic_density":0.417,"complexity":0.438,"dissonance":0.163},{"voice":1,"pitch":65,"start":22.3636,"duration":0.2727,"velocity":127,"measure":11,"beat":2.0,"subject_pos":-1,"motif":"","motif_pos":-1,"best_pos":3,"similarity":0.457,"stretto":false,"stretto_voices":0,"combination":[],"aug_dim":"","rhythm_ratio":1.0,"mirror":false,"chromatic_density":0.417,"complexity":0.438,"dissonance":0.163},{"voice":0,"pitch":76,"start":22.6363,"duration":0.2727,"velocity":127,"measure":11,"beat":2.5,"subject_pos":-1,"motif":"tail","motif_pos":6,"best_pos":6,"similarity":1.0,"stretto":false,"stretto_voices":0,"combination":[],"aug_dim":"","rhythm_ratio":1.0,"mirror":false,"chromatic_density":0.417,"complexity":0.438,"dissonance":0.163},{"voice":1,"pitch":64,"start":22.6363,"duration":0.2727,"velocity":127,"measure":11,"beat":2.5,"subject_pos":-1,"motif":"","motif_pos":-1,"best_pos":4,"similarity":0.393,"stretto":false,"stretto_voices":0,"combination":[],"aug_dim":"","rhythm_ratio":1.0,"mirror":false,"chromatic_density":0.417,"complexity":0.438,"dissonance":0.163},{"voice":0,"pitch":77,"start":22.9091,"duration":0.2727,"velocity":127,"measure":11,"beat":3.0,"subject_pos":-1,"motif":"tail","motif_pos":7,"best_pos":7,"similarity":1.0,"stretto":false,"stretto_voices":0,"combination":[],"aug_dim":"","rhythm_ratio":1.0,"mirror":false,"chromatic_density":0.417,"complexity":0.438,"dissonance":0.163},{"voice":1,"pitch":62,"start":22.9091,"duration":0.5455,"velocity":127,"measure":11,"beat":3.0,"subject_pos":-1,"motif":"","motif_pos":-1,"best_pos":2,"similarity":0.357,"stretto":false,"stretto_voices":0,"combination":[],"aug_dim":"","rhythm_ratio":1.0,"mirror":false,"chromatic_density":0.417,"complexity":0.438,"dissonance":0.163},{"voice":0,"pitch":74,"start":23.1818,"duration":0.2727,"velocity":127,"measure":11,"beat":3.5,"subject_pos":-1,"motif":"","motif_pos":-1,"best_pos":3,"similarity":0.496,"stretto":false,"stretto_voices":0,"combination":[],"aug_dim":"","rhythm_ratio":1.0,"mirror":false,"chromatic_density":0.417,"complexity":0.438,"dissonance":0.163},{"voice":0,"pitch":76,"start":23.4545,"duration":0.2727,"velocity":127,"measure":11,"beat":4.0,"subject_pos":-1,"motif":"","motif_pos":-1,"best_pos":6,"similarity":0.604,"stretto":false,"stretto_voices":0,"combination":[],"aug_dim":"","rhythm_ratio":1.0,"mirror":false,"chromatic_density":0.417,"complexity":0.438,"dissonance":0.163},{"voice":1,"pitch":74,"start":23.4545,"duration":0.5455,"velocity":127,"measure":11,"beat":4.0,"subject_pos":-1,"motif":"","motif_pos":-1,"best_pos":3,"similarity":0.357,"stretto":false,"stretto_voices":0,"combination":[],"aug_dim":"","rhythm_ratio":1.0,"mirror":false,"chromatic_density":0.417,"complexity":0.438,"dissonance":0.163},{"voice":0,"pitch":77,"start":23.7272,"duration":0.2727,"velocity":127,"measure":11,"beat":4.5,"subject_pos":-1,"motif":"","motif_pos":-1,"best_pos":5,"similarity":0.479,"stretto":false,"stretto_voices":0,"combination":[],"aug_dim":"","rhythm_ratio":1.0,"mirror":false,"chromatic_density":0.417,"complexity":0.438,"dissonance":0.163},{"voice":0,"pitch":77,"start":24.0,"duration":0.5455,"velocity":127,"measure":12,"beat":1.0,"subject_pos":-1,"motif":"","motif_pos":-1,"best_pos":3,"similarity":0.414,"stretto":false,"stretto_voices":0,"combination":[],"aug_dim":"","rhythm_ratio":1.0,"mirror":false,"chromatic_density":0.571,"complexity":0.377,"dissonance":0.0},{"voice":1,"pitch":68,"start":24.0,"duration":0.5455,"velocity":127,"measure":12,"beat":1.0,"subject_pos":-1,"motif":"","motif_pos":-1,"best_pos":4,"similarity":0.571,"stretto":false,"stretto_voices":0,"combination":[],"aug_dim":"","rhythm_ratio":1.0,"mirror":false,"chromatic_density":0.571,"complexity":0.377,"dissonance":0.0},{"voice":0,"pitch":76,"start":24.5454,"duration":0.5455,"velocity":127,"measure":12,"beat":2.0,"subject_pos":-1,"motif":"","motif_pos":-1,"best_pos":4,"similarity":0.5,"stretto":false,"stretto_voices":0,"combination":[],"aug_dim":"","rhythm_ratio":1.0,"mirror":false,"chromatic_density":0.571,"complexity":0.377,"dissonance":0.0},{"voice":1,"pitch":69,"start":24.5454,"duration":0.2727,"velocity":127,"measure":12,"beat":2.0,"subject_pos":-1,"motif":"","motif_pos":-1,"best_pos":5,"similarity":0.714,"stretto":false,"stretto_voices":0,"combination":[],"aug_dim":"","rhythm_ratio":1.0,"mirror":false,"chromatic_density":0.571,"complexity":0.377,"dissonance":0.0},{"voice":1,"pitch":71,"start":24.8182,"duration":0.2727,"velocity":127,"measure":12,"beat":2.5,"subject_pos":-1,"motif":"tail_inv","motif_pos":0,"best_pos":0,"similarity":1.0,"stretto":false,"stretto_voices":0,"combination":[],"aug_dim":"","rhythm_ratio":1.0,"mirror":false,"chromatic_density":0.571,"complexity":0.377,"dissonance":0.0},{"voice":1,"pitch":72,"start":25.0909,"duration":0.5455,"velocity":127,"measure":12,"beat":3.0,"subject_pos":-1,"motif":"tail_inv","motif_pos":1,"best_pos":1,"similarity":1.0,"stretto":false,"stretto_voices":0,"combination":[],"aug_dim":"","rhythm_ratio":1.0,"mirror":false,"chromatic_density":0.571,"complexity":0.377,"dissonance":0.0},{"voice":0,"pitch":76,"start":25.3636,"duration":0.2727,"velocity":127,"measure":12,"beat":3.5,"subject_pos":-1,"motif":"","motif_pos":-1,"best_pos":4,"similarity":0.439,"stretto":false,"stretto_voices":0,"combination":[],"aug_dim":"","rhythm_ratio":1.0,"mirror":false,"chromatic_density":0.571,"complexity":0.377,"dissonance":0.0},{"voice":0,"pitch":74,"start":25.6363,"duration":0.2727,"velocity":127,"measure":12,"beat":4.0,"subject_pos":-1,"motif":"","motif_pos":-1,"best_pos":5,"similarity":0.546,"stretto":false,"stretto_voices":0,"combination":[],"aug_dim":"","rhythm_ratio":1.0,"mirror":false,"chromatic_density":0.571,"complexity":0.377,"dissonance":0.0},{"voice":1,"pitch":71,"start":25.6363,"duration":0.5455,"velocity":127,"measure":12,"beat":4.0,"subject_pos":-1,"motif":"tail_inv","motif_pos":2,"best_pos":2,"similarity":1.0,"stretto":false,"stretto_voices":0,"combination":[],"aug_dim":"","rhythm_ratio":1.0,"mirror":false,"chromatic_density":0.571,"complexity":0.377,"dissonance":0.0},{"voice":0,"pitch":76,"start":25.9091,"duration":0.2727,"velocity":127,"measure":12,"beat":4.5,"subject_pos":-1,"motif":"","motif_pos":-1,"best_pos":6,"similarity":0.621,"stretto":false,"stretto_voices":0,"combination":[],"aug_dim":"","rhythm_ratio":1.0,"mirror":false,"chromatic_density":0.571,"complexity":0.377,"dissonance":0.0},{"voice":0,"pitch":77,"start":26.1818,"duration":0.2727,"velocity":127,"measure":13,"beat":1.0,"subject_pos":-1,"motif":"","motif_pos":-1,"best_pos":7,"similarity":0.436,"stretto":false,"stretto_voices":0,"combination":[],"aug_dim":"","rhythm_ratio":1.0,"mirror":false,"chromatic_density":0.25,"complexity":0.377,"dissonance":0.217},{"voice":1,"pitch":69,"start":26.1818,"duration":1.0909,"velocity":127,"measure":13,"beat":1.0,"subject_pos":-1,"motif":"tail_inv","motif_pos":3,"best_pos":3,"similarity":1.0,"stretto":false,"stretto_voices":0,"combination":[],"aug_dim":"","rhythm_ratio":1.0,"mirror":false,"chromatic_density":0.25,"complexity":0.377,"dissonance":0.217},{"voice":0,"pitch":81,"start":26.4545,"duration":0.2727,"velocity":127,"measure":13,"beat":1.5,"subject_pos":-1,"motif":"","motif_pos":-1,"best_pos":1,"similarity":0.507,"stretto":false,"stretto_voices":0,"combination":[],"aug_dim":"","rhythm_ratio":1.0,"mirror":false,"chromatic_density":0.25,"complexity":0.377,"dissonance":0.217},{"voice":0,"pitch":79,"start":26.7272,"duration":0.2727,"velocity":127,"measure":13,"beat":2.0,"subject_pos":-1,"motif":"","motif_pos":-1,"best_pos":2,"similarity":0.521,"stretto":false,"stretto_voices":0,"combination":[],"aug_dim":"","rhythm_ratio":1.0,"mirror":false,"chromatic_density":0.25,"complexity":0.377,"dissonance":0.217},{"voice":0,"pitch":77,"start":27.0,"duration":0.2727,"velocity":127,"measure":13,"beat":2.5,"subject_pos":-1,"motif":"","motif_pos":-1,"best_pos":5,"similarity":0.4,"stretto":false,"stretto_voices":0,"combination":[],"aug_dim":"","rhythm_ratio":1.0,"mirror":false,"chromatic_density":0.25,"complexity":0.377,"dissonance":0.217},{"voice":0,"pitch":79,"start":27.2727,"duration":0.2727,"velocity":127,"measure":13,"beat":3.0,"subject_pos":-1,"motif":"","motif_pos":-1,"best_pos":1,"similarity":0.386,"stretto":false,"stretto_voices":0,"combination":[],"aug_dim":"","rhythm_ratio":1.0,"mirror":false,"chromatic_density":0.25,"complexity":0.377,"dissonance":0.217},{"voice":0,"pitch":77,"start":27.5454,"duration":0.2727,"velocity":127,"measure":13,"beat":3.5,"subject_pos":-1,"motif":"","motif_pos":-1,"best_pos":3,"similarity":0.464,"stretto":false,"stretto_voices":0,"combination":[],"aug_dim":"","rhythm_ratio":1.0,"mirror":false,"chromatic_density":0.25,"complexity":0.377,"dissonance":0.217},{"voice":0,"pitch":76,"start":27.8182,"duration":0.2727,"velocity":127,"measure":13,"beat":4.0,"subject_pos":-1,"motif":"","motif_pos":-1,"best_pos":4,"similarity":0.414,"stretto":false,"stretto_voices":0,"combination":[],"aug_dim":"","rhythm_ratio":1.0,"mirror":false,"chromatic_density":0.25,"complexity":0.377,"dissonance":0.217},{"voice":1,"pitch":68,"start":27.8182,"duration":0.5455,"velocity":127,"measure":13,"beat":4.0,"subject_pos":-1,"motif":"tail_inv","motif_pos":4,"best_pos":4,"similarity":1.0,"stretto":false,"stretto_voices":0,"combination":[],"aug_dim":"","rhythm_ratio":1.0,"mirror":false,"chromatic_density":0.25,"complexity":0.377,"dissonance":0.217},{"voice":0,"pitch":74,"start":28.0909,"duration":0.2727,"velocity":127,"measure":13,"beat":4.5,"subject_pos":-1,"motif":"","motif_pos":-1,"best_pos":2,"similarity":0.446,"stretto":false,"stretto_voices":0,"combination":[],"aug_dim":"","rhythm_ratio":1.0,"mirror":false,"chromatic_density":0.25,"complexity":0.377,"dissonance":0.217},{"voice":0,"pitch":72,"start":28.3636,"duration":0.2727,"velocity":127,"measure":14,"beat":1.0,"subject_pos":-1,"motif":"","motif_pos":-1,"best_pos":2,"similarity":0.436,"stretto":false,"stretto_voices":0,"combination":[],"aug_dim":"","rhythm_ratio":1.0,"mirror":false,"chromatic_density":0.125,"complexity":0.352,"dissonance":0.114},{"voice":1,"pitch":69,"start":28.3636,"duration":1.0909,"velocity":127,"measure":14,"beat":1.0,"subject_pos":-1,"motif":"","motif_pos":-1,"best_pos":5,"similarity":0.607,"stretto":false,"stretto_voices":0,"combination":[],"aug_dim":"","rhythm_ratio":1.0,"mirror":false,"chromatic_density":0.125,"complexity":0.352,"dissonance":0.114},{"voice":0,"pitch":77,"start":28.6363,"duration":0.2727,"velocity":127,"measure":14,"beat":1.5,"subject_pos":-1,"motif":"","motif_pos":-1,"best_pos":3,"similarity":0.514,"stretto":false,"stretto_voices":0,"combination":[],"aug_dim":"","rhythm_ratio":1.0,"mirror":false,"chromatic_density":0.125,"complexity":0.352,"dissonance":0.114},{"voice":0,"pitch":76,"start":28.9091,"duration":0.2727,"velocity":127,"measure":14,"beat":2.0,"subject_pos":-1,"motif":"","motif_pos":-1,"best_pos":4,"similarity":0.536,"stretto":false,"stretto_voices":0,"combination":[],"aug_dim":"","rhythm_ratio":1.0,"mirror":false,"chromatic_density":0.125,"complexity":0.352,"dissonance":0.114},{"voice":0,"pitch":74,"start":29.1818,"duration":0.2727,"velocity":127,"measure":14,"beat":2.5,"subject_pos":-1,"motif":"","motif_pos":-1,"best_pos":5,"similarity":0.471,"stretto":false,"stretto_voices":0,"combination":[],"aug_dim":"","rhythm_ratio":1.0,"mirror":false,"chromatic_density":0.125,"complexity":0.352,"dissonance":0.114},{"voice":0,"pitch":76,"start":29.4545,"duration":0.2727,"velocity":127,"measure":14,"beat":3.0,"subject_pos":-1,"motif":"","motif_pos":-1,"best_pos":1,"similarity":0.421,"stretto":false,"stretto_voices":0,"combination":[],"aug_dim":"","rhythm_ratio":1.0,"mirror":false,"chromatic_density":0.125,"complexity":0.352,"dissonance":0.114},{"voice":0,"pitch":74,"start":29.7272,"duration":0.2727,"velocity":127,"measure":14,"beat":3.5,"subject_pos":-1,"motif":"","motif_pos":-1,"best_pos":2,"similarity":0.532,"stretto":false,"stretto_voices":0,"combination":[],"aug_dim":"","rhythm_ratio":1.0,"mirror":false,"chromatic_density":0.125,"complexity":0.352,"dissonance":0.114},{"voice":0,"pitch":72,"start":30.0,"duration":0.2727,"velocity":127,"measure":14,"beat":4.0,"subject_pos":-1,"motif":"","motif_pos":-1,"best_pos":2,"similarity":0.579,"stretto":false,"stretto_voices":0,"combination":[],"aug_dim":"","rhythm_ratio":1.0,"mirror":false,"chromatic_density":0.125,"complexity":0.352,"dissonance":0.114},{"voice":1,"pitch":64,"start":30.0,"duration":0.5455,"velocity":127,"measure":14,"beat":4.0,"subject_pos":-1,"motif":"","motif_pos":-1,"best_pos":6,"similarity":0.5,"stretto":false,"stretto_voices":0,"combination":[],"aug_dim":"","rhythm_ratio":1.0,"mirror":false,"chromatic_density":0.125,"complexity":0.352,"dissonance":0.114},{"voice":0,"pitch":70,"start":30.2727,"duration":0.2727,"velocity":127,"measure":14,"beat":4.5,"subject_pos":-1,"motif":"enigmatic_cell","motif_pos":0,"best_pos":0,"similarity":1.0,"stretto":false,"stretto_voices":0,"combination":[],"aug_dim":"","rhythm_ratio":1.0,"mirror":false,"chromatic_density":0.125,"complexity":0.352,"dissonance":0.114},{"voice":0,"pitch":69,"start":30.5454,"duration":0.2727,"velocity":127,"measure":15,"beat":1.0,"subject_pos":-1,"motif":"enigmatic_cell","motif_pos":1,"best_pos":1,"similarity":1.0,"stretto":false,"stretto_voices":0,"combination":[],"aug_dim":"","rhythm_ratio":1.0,"mirror":false,"chromatic_density":0.25,"complexity":0.532,"dissonance":0.072},{"voice":1,"pitch":65,"start":30.5454,"duration":1.0909,"velocity":127,"measure":15,"beat":1.0,"subject_pos":-1,"motif":"","motif_pos":-1,"best_pos":5,"similarity":0.414,"stretto":false,"stretto_voices":0,"combination":[],"aug_dim":"","rhythm_ratio":1.0,"mirror":false,"chromatic_density":0.25,"complexity":0.532,"dissonance":0.072},{"voice":0,"pitch":74,"start":30.8182,"duration":0.2727,"velocity":127,"measure":15,"beat":1.5,"subject_pos":-1,"motif":"enigmatic_cell","motif_pos":2,"best_pos":2,"similarity":1.0,"stretto":false,"stretto_voices":0,"combination":[],"aug_dim":"","rhythm_ratio":1.0,"mirror":false,"chromatic_density":0.25,"complexity":0.532,"dissonance":0.072},{"voice":0,"pitch":72,"start":31.0909,"duration":0.2727,"velocity":127,"measure":15,"beat":2.0,"subject_pos":-1,"motif":"","motif_pos":-1,"best_pos":2,"similarity":0.593,"stretto":false,"stretto_voices":0,"combination":[],"aug_dim":"","rhythm_ratio":1.0,"mirror":false,"chromatic_density":0.25,"complexity":0.532,"dissonance":0.072},{"voice":3,"pitch":50,"start":31.0909,"duration":0.5455,"velocity":127,"measure":15,"beat":2.0,"subject_pos":0,"motif":"subject","motif_pos":0,"best_pos":0,"similarity":1.0,"stretto":false,"stretto_voices":0,"combination":[],"aug_dim":"","rhythm_ratio":1.0,"mirror":false,"chromatic_density":0.25,"complexity":0.532,"dissonance":0.072},{"voice":0,"pitch":70,"start":31.3636,"duration":0.2727,"velocity":127,"measure":15,"beat":2.5,"subject_pos":-1,"motif":"","motif_pos":-1,"best_pos":3,"similarity":0.407,"stretto":false,"stretto_voices":0,"combination":[],"aug_dim":"","rhythm_ratio":1.0,"mirror":false,"chromatic_density":0.25,"complexity":0.532,"dissonance":0.072},{"voice":0,"pitch":72,"start":31.6363,"duration":0.2727,"velocity":127,"measure":15,"beat":3.0,"subject_pos":-1,"motif":"","motif_pos":-1,"best_pos":1,"similarity":0.421,"stretto":false,"stretto_voices":0,"combination":[],"aug_dim":"","rhythm_ratio":1.0,"mirror":false,"chromatic_density":0.25,"complexity":0.532,"dissonance":0.072},{"voice":3,"pitch":62,"start":31.6363,"duration":1.6364,"velocity":127,"measure":15,"beat":3.0,"subject_pos":1,"motif":"subject","motif_pos":1,"best_pos":1,"similarity":1.0,"stretto":false,"stretto_voices":0,"combination":[],"aug_dim":"","rhythm_ratio":1.0,"mirror":false,"chromatic_density":0.25,"complexity":0.532,"dissonance":0.072},{"voice":0,"pitch":70,"start":31.9091,"duration":0.2727,"velocity":127,"measure":15,"beat":3.5,"subject_pos":-1,"motif":"","motif_pos":-1,"best_pos":2,"similarity":0.586,"stretto":false,"stretto_voices":0,"combination":[],"aug_dim":"","rhythm_ratio":1.0,"mirror":false,"chromatic_density":0.25,"complexity":0.532,"dissonance":0.072},{"voice":0,"pitch":69,"start":32.1818,"duration":0.2727,"velocity":127,"measure":15,"beat":4.0,"subject_pos":-1,"motif":"","motif_pos":-1,"best_pos":3,"similarity":0.65,"stretto":false,"stretto_voices":0,"combination":[],"aug_dim":"","rhythm_ratio":1.0,"mirror":false,"chromatic_density":0.25,"complexity":0.532,"dissonance":0.072},{"voice":1,"pitch":65,"start":32.1818,"duration":0.5455,"velocity":127,"measure":15,"beat":4.0,"subject_pos":-1,"motif":"","motif_pos":-1,"best_pos":3,"similarity":0.371,"stretto":false,"stretto_voices":0,"combination":[],"aug_dim":"","rhythm_ratio":1.0,"mirror":false,"chromatic_density":0.25,"complexity":0.532,"dissonance":0.072},{"voice":0,"pitch":68,"start":32.4545,"duration":0.2727,"velocity":127,"measure":15,"beat":4.5,"subject_pos":-1,"motif":"","motif_pos":-1,"best_pos":4,"similarity":0.686,"stretto":false,"stretto_voices":0,"combination":[],"aug_dim":"","rhythm_ratio":1.0,"mirror":false,"chromatic_density":0.25,"complexity":0.532,"dissonance":0.072},{"voice":0,"pitch":69,"start":32.7272,"duration":0.5455,"velocity":127,"measure":16,"beat":1.0,"subject_pos":-1,"motif":"","motif_pos":-1,"best_pos":5,"similarity":0.461,"stretto":false,"stretto_voices":0,"combination":[],"aug_dim":"","rhythm_ratio":1.0,"mirror":false,"chromatic_density":0.125,"complexity":0.553,"dissonance":0.193},{"voice":1,"pitch":64,"start":32.7272,"duration":1.0909,"velocity":127,"measure":16,"beat":1.0,"subject_pos":-1,"motif":"","motif_pos":-1,"best_pos":4,"similarity":0.429,"stretto":false,"stretto_voices":0,"combination":[],"aug_dim":"","rhythm_ratio":1.0,"mirror":false,"chromatic_density":0.125,"complexity":0.553,"dissonance":0.193},{"voice":0,"pitch":76,"start":33.2727,"duration":0.5455,"velocity":127,"measure":16,"beat":2.0,"subject_pos":-1,"motif":"","motif_pos":-1,"best_pos":1,"similarity":0.479,"stretto":false,"stretto_voices":0,"combination":[],"aug_dim":"","rhythm_ratio":1.0,"mirror":false,"chromatic_density":0.125,"complexity":0.553,"dissonance":0.193},{"voice":3,"pitch":61,"start":33.2727,"duration":0.2727,"velocity":127,"measure":16,"beat":2.0,"subject_pos":2,"motif":"subject","motif_pos":2,"best_pos":2,"similarity":1.0,"stretto":false,"stretto_voices":0,"combination":[],"aug_dim":"","rhythm_ratio":1.0,"mirror":false,"chromatic_density":0.125,"complexity":0.553,"dissonance":0.193},{"voice":3,"pitch":59,"start":33.5454,"duration":0.2727,"velocity":127,"measure":16,"beat":2.5,"subject_pos":3,"motif":"subject","motif_pos":3,"best_pos":3,"similarity":1.0,"stretto":false,"stretto_voices":0,"combination":[],"aug_dim":"","rhythm_ratio":1.0,"mirror":false,"chromatic_density":0.125,"complexity":0.553,"dissonance":0.193},{"voice":0,"pitch":73,"start":33.8181,"duration":1.0909,"velocity":127,"measure":16,"beat":3.0,"subject_pos":-1,"motif":"","motif_pos":-1,"best_pos":2,"similarity":0.393,"stretto":false,"stretto_voices":0,"combination":[],"aug_dim":"","rhythm_ratio":1.0,"mirror":false,"chromatic_density":0.125,"complexity":0.553,"dissonance":0.193},{"voice":3,"pitch":57,"start":33.8181,"duration":0.2727,"velocity":127,"measure":16,"beat":3.0,"subject_pos":4,"motif":"subject","motif_pos":4,"best_pos":4,"similarity":1.0,"stretto":false,"stretto_voices":0,"combination":[],"aug_dim":"","rhythm_ratio":1.0,"mirror":false,"chromatic_density":0.125,"complexity":0.553,"dissonance":0.193},{"voice":3,"pitch":55,"start":34.0909,"duration":0.2727,"velocity":127,"measure":16,"beat":3.5,"subject_pos":5,"motif":"subject","motif_pos":5,"best_pos":5,"similarity":1.0,"stretto":false,"stretto_voices":0,"combination":[],"aug_dim":"","rhythm_ratio":1.0,"mirror":false,"chromatic_density":0.125,"complexity":0.553,"dissonance":0.193},{"voice":1,"pitch":67,"start":34.3636,"duration":1.0909,"velocity":127,"measure":16,"beat":4.0,"subject_pos":-1,"motif":"","motif_pos":-1,"best_pos":1,"similarity":0.364,"stretto":false,"stretto_voices":0,"combination":[],"aug_dim":"","rhythm_ratio":1.0,"mirror":false,"chromatic_density":0.125,"complexity":0.553,"dissonance":0.193},{"voice":3,"pitch":53,"start":34.3636,"duration":0.2727,"velocity":127,"measure":16,"beat":4.0,"subject_pos":6,"motif":"subject","motif_pos":6,"best_pos":6,"similarity":1.0,"stretto":false,"stretto_voices":0,"combination":[],"aug_dim":"","rhythm_ratio":1.0,"mirror":false,"chromatic_density":0.125,"complexity":0.553,"dissonance":0.193},{"voice":3,"pitch":52,"start":34.6363,"duration":0.2727,"velocity":127,"measure":16,"beat":4.5,"subject_pos":7,"motif":"subject","motif_pos":7,"best_pos":7,"similarity":1.0,"stretto":false,"stretto_voices":0,"combination":[],"aug_dim":"","rhythm_ratio":1.0,"mirror":false,"chromatic_density":0.125,"complexity":0.553,"dissonance":0.193},{"voice":0,"pitch":74,"start":34.9091,"duration":1.0909,"velocity":127,"measure":17,"beat":1.0,"subject_pos":-1,"motif":"","motif_pos":-1,"best_pos":1,"similarity":0.386,"stretto":false,"stretto_voices":0,"combination":[],"aug_dim":"","rhythm_ratio":1.0,"mirror":false,"chromatic_density":0.4,"complexity":0.402,"dissonance":0.094},{"voice":3,"pitch":50,"start":34.9091,"duration":0.2727,"velocity":127,"measure":17,"beat":1.0,"subject_pos":8,"motif":"subject","motif_pos":8,"best_pos":0,"similarity":1.0,"stretto":false,"stretto_voices":0,"combination":[],"aug_dim":"","rhythm_ratio":1.0,"mirror":false,"chromatic_density":0.4,"complexity":0.402,"dissonance":0.094},{"voice":3,"pitch":49,"start":35.1818,"duration":0.2727,"velocity":127,"measure":17,"beat":1.5,"subject_pos":-1,"motif":"","motif_pos":-1,"best_pos":4,"similarity":0.893,"stretto":false,"stretto_voices":0,"combination":[],"aug_dim":"","rhythm_ratio":1.0,"mirror":false,"chromatic_density":0.4,"complexity":0.402,"dissonance":0.094},{"voice":1,"pitch":65,"start":35.4545,"duration":0.2727,"velocity":127,"measure":17,"beat":2.0,"subject_pos":-1,"motif":"","motif_pos":-1,"best_pos":4,"similarity":0.464,"stretto":false,"stretto_voices":0,"combination":[],"aug_dim":"","rhythm_ratio":1.0,"mirror":false,"chromatic_density":0.4,"complexity":0.402,"dissonance":0.094},{"voice":3,"pitch":50,"start":35.4545,"duration":0.2727,"velocity":127,"measure":17,"beat":2.0,"subject_pos":-1,"motif":"","motif_pos":-1,"best_pos":5,"similarity":0.893,"stretto":false,"stretto_voices":0,"combination":[],"aug_dim":"","rhythm_ratio":1.0,"mirror":false,"chromatic_density":0.4,"complexity":0.402,"dissonance":0.094},{"voice":1,"pitch":67,"start":35.7272,"duration":0.2727,"velocity":127,"measure":17,"beat":2.5,"subject_pos":-1,"motif":"","motif_pos":-1,"best_pos":5,"similarity":0.5,"stretto":false,"stretto_voices":0,"combination":[],"aug_dim":"","rhythm_ratio":1.0,"mirror":false,"chromatic_density":0.4,"complexity":0.402,"dissonance":0.094},{"voice":3,"pitch":52,"start":35.7272,"duration":0.2727,"velocity":127,"measure":17,"beat":2.5,"subject_pos":-1,"motif":"","motif_pos":-1,"best_pos":6,"similarity":0.786,"stretto":false,"stretto_voices":0,"combination":[],"aug_dim":"","rhythm_ratio":1.0,"mirror":false,"chromatic_density":0.4,"complexity":0.402,"dissonance":0.094},{"voice":1,"pitch":69,"start":36.0,"duration":1.0909,"velocity":127,"measure":17,"beat":3.0,"subject_pos":-1,"motif":"","motif_pos":-1,"best_pos":6,"similarity":0.393,"stretto":false,"stretto_voices":0,"combination":[],"aug_dim":"","rhythm_ratio":1.0,"mirror":false,"chromatic_density":0.4,"complexity":0.402,"dissonance":0.094},{"voice":3,"pitch":53,"start":36.0,"duration":0.2727,"velocity":127,"measure":17,"beat":3.0,"subject_pos":-1,"motif":"","motif_pos":-1,"best_pos":7,"similarity":0.5,"stretto":false,"stretto_voices":0,"combination":[],"aug_dim":"","rhythm_ratio":1.0,"mirror":false,"chromatic_density":0.4,"complexity":0.402,"dissonance":0.094},{"voice":3,"pitch":50,"start":36.2727,"duration":0.2727,"velocity":127,"measure":17,"beat":3.5,"subject_pos":-1,"motif":"","motif_pos":-1,"best_pos":3,"similarity":0.55,"stretto":false,"stretto_voices":0,"combination":[],"aug_dim":"","rhythm_ratio":1.0,"mirror":false,"chromatic_density":0.4,"complexity":0.402,"dissonance":0.094},{"voice":0,"pitch":72,"start":36.5454,"duration":1.0909,"velocity":127,"measure":17,"beat":4.0,"subject_pos":-1,"motif":"","motif_pos":-1,"best_pos":2,"similarity":0.45,"stretto":false,"stretto_voices":0,"combination":[],"aug_dim":"","rhythm_ratio":1.0,"mirror":false,"chromatic_density":0.4,"complexity":0.402,"dissonance":0.094},{"voice":3,"pitch":52,"start":36.5454,"duration":0.2727,"velocity":127,"measure":17,"beat":4.0,"subject_pos":-1,"motif":"","motif_pos":-1,"best_pos":4,"similarity":0.625,"stretto":false,"stretto_voices":0,"combination":[],"aug_dim":"","rhythm_ratio":1.0,"mirror":false,"chromatic_density":0.4,"complexity":0.402,"dissonance":0.094},{"voice":3,"pitch":53,"start":36.8181,"duration":0.2727,"velocity":127,"measure":17,"beat":4.5,"subject_pos":-1,"motif":"","motif_pos":-1,"best_pos":5,"similarity":0.693,"stretto":false,"stretto_voices":0,"combination":[],"aug_dim":"","rhythm_ratio":1.0,"mirror":false,"chromatic_density":0.4,"complexity":0.402,"dissonance":0.094},{"voice":1,"pitch":62,"start":37.0909,"duration":1.0909,"velocity":127,"measure":18,"beat":1.0,"subject_pos":-1,"motif":"","motif_pos":-1,"best_pos":0,"similarity":0.364,"stretto":false,"stretto_voices":0,"combination":[],"aug_dim":"","rhythm_ratio":1.0,"mirror":false,"chromatic_density":0.364,"complexity":0.546,"dissonance":0.113},{"voice":3,"pitch":55,"start":37.0909,"duration":0.2727,"velocity":127,"measure":18,"beat":1.0,"subject_pos":-1,"motif":"tail","motif_pos":3,"best_pos":3,"similarity":1.0,"stretto":false,"stretto_voices":0,"combination":[],"aug_dim":"","rhythm_ratio":1.0,"mirror":false,"chromatic_density":0.364,"complexity":0.546,"dissonance":0.113},{"voice":3,"pitch":54,"start":37.3636,"duration":0.2727,"velocity":127,"measure":18,"beat":1.5,"subject_pos":-1,"motif":"tail","motif_pos":4,"best_pos":4,"similarity":1.0,"stretto":false,"stretto_voices":0,"combination":[],"aug_dim":"","rhythm_ratio":1.0,"mirror":false,"chromatic_density":0.364,"complexity":0.546,"dissonance":0.113},{"voice":0,"pitch":70,"start":37.6363,"duration":0.2727,"velocity":127,"measure":18,"beat":2.0,"subject_pos":-1,"motif":"","motif_pos":-1,"best_pos":3,"similarity":0.307,"stretto":false,"stretto_voices":0,"combination":[],"aug_dim":"","rhythm_ratio":1.0,"mirror":false,"chromatic_density":0.364,"complexity":0.546,"dissonance":0.113},{"voice":3,"pitch":55,"start":37.6363,"duration":0.2727,"velocity":127,"measure":18,"beat":2.0,"subject_pos":-1,"motif":"tail","motif_pos":5,"best_pos":5,"similarity":1.0,"stretto":false,"stretto_voices":0,"combination":[],"aug_dim":"","rhythm_ratio":1.0,"mirror":false,"chromatic_density":0.364,"complexity":0.546,"dissonance":0.113},{"voice":0,"pitch":74,"start":37.9091,"duration":0.2727,"velocity":127,"measure":18,"beat":2.5,"subject_pos":-1,"motif":"","motif_pos":-1,"best_pos":0,"similarity":0.429,"stretto":false,"stretto_voices":0,"combination":[],"aug_dim":"","rhythm_ratio":1.0,"mirror":false,"chromatic_density":0.364,"complexity":0.546,"dissonance":0.113},{"voice":3,"pitch":57,"start":37.9091,"duration":0.2727,"velocity":127,"measure":18,"beat":2.5,"subject_pos":-1,"motif":"tail","motif_pos":6,"best_pos":6,"similarity":1.0,"stretto":false,"stretto_voices":0,"combination":[],"aug_dim":"","rhythm_ratio":1.0,"mirror":false,"chromatic_density":0.364,"complexity":0.546,"dissonance":0.113},{"voice":0,"pitch":79,"start":38.1818,"duration":0.5455,"velocity":127,"measure":18,"beat":3.0,"subject_pos":-1,"motif":"","motif_pos":-1,"best_pos":1,"similarity":0.607,"stretto":false,"stretto_voices":0,"combination":[],"aug_dim":"","rhythm_ratio":1.0,"mirror":false,"chromatic_density":0.364,"complexity":0.546,"dissonance":0.113},{"voice":3,"pitch":58,"start":38.1818,"duration":0.2727,"velocity":127,"measure":18,"beat":3.0,"subject_pos":-1,"motif":"tail","motif_pos":7,"best_pos":7,"similarity":1.0,"stretto":false,"stretto_voices":0,"combination":[],"aug_dim":"","rhythm_ratio":1.0,"mirror":false,"chromatic_density":0.364,"complexity":0.546,"dissonance":0.113},{"voice":3,"pitch":55,"start":38.4545,"duration":0.2727,"velocity":127,"measure":18,"beat":3.5,"subject_pos":-1,"motif":"","motif_pos":-1,"best_pos":3,"similarity":0.496,"stretto":false,"stretto_voices":0,"combination":[],"aug_dim":"","rhythm_ratio":1.0,"mirror":false,"chromatic_density":0.364,"complexity":0.546,"dissonance":0.113},{"voice":0,"pitch":76,"start":38.7272,"duration":0.5455,"velocity":127,"measure":18,"beat":4.0,"subject_pos":-1,"motif":"","motif_pos":-1,"best_pos":2,"similarity":0.714,"stretto":false,"stretto_voices":0,"combination":[],"aug_dim":"","rhythm_ratio":1.0,"mirror":false,"chromatic_density":0.364,"complexity":0.546,"dissonance":0.113},{"voice":1,"pitch":67,"start":38.7272,"duration":0.5455,"velocity":127,"measure":18,"beat":4.0,"subject_pos":-1,"motif":"","motif_pos":-1,"best_pos":1,"similarity":0.45,"stretto":false,"stretto_voices":0,"combination":[],"aug_dim":"","rhythm_ratio":1.0,"mirror":false,"chromatic_density":0.364,"complexity":0.546,"dissonance":0.113},{"voice":3,"pitch":57,"start":38.7272,"duration":0.2727,"velocity":127,"measure":18,"beat":4.0,"subject_pos":-1,"motif":"","motif_pos":-1,"best_pos":6,"similarity":0.604,"stretto":false,"stretto_voices":0,"combination":[],"aug_dim":"","rhythm_ratio":1.0,"mirror":false,"chromatic_density":0.364,"complexity":0.546,"dissonance":0.113},{"voice":3,"pitch":58,"start":39.0,"duration":0.2727,"velocity":127,"measure":18,"beat":4.5,"subject_pos":-1,"motif":"","motif_pos":-1,"best_pos":5,"similarity":0.479,"stretto":false,"stretto_voices":0,"combination":[],"aug_dim":"","rhythm_ratio":1.0,"mirror":false,"chromatic_density":0.364,"complexity":0.546,"dissonance":0.113},{"voice":0,"pitch":73,"start":39.2727,"duration":1.0909,"velocity":127,"measure":19,"beat":1.0,"subject_pos":-1,"motif":"","motif_pos":-1,"best_pos":3,"similarity":0.75,"stretto":false,"stretto_voices":0,"combination":[],"aug_dim":"","rhythm_ratio":1.0,"mirror":false,"chromatic_density":0.429,"complexity":0.402,"dissonance":0.231},{"voice":1,"pitch":64,"start":39.2727,"duration":0.5455,"velocity":127,"measure":19,"beat":1.0,"subject_pos":-1,"motif":"","motif_pos":-1,"best_pos":4,"similarity":0.514,"stretto":false,"stretto_voices":0,"combination":[],"aug_dim":"","rhythm_ratio":1.0,"mirror":false,"chromatic_density":0.429,"complexity":0.402,"dissonance":0.231},{"voice":3,"pitch":58,"start":39.2727,"duration":0.5455,"velocity":127,"measure":19,"beat":1.0,"subject_pos":-1,"motif":"","motif_pos":-1,"best_pos":3,"similarity":0.414,"stretto":false,"stretto_voices":0,"combination":[],"aug_dim":"","rhythm_ratio":1.0,"mirror":false,"chromatic_density":0.429,"complexity":0.402,"dissonance":0.231},{"voice":1,"pitch":65,"start":39.8181,"duration":0.2727,"velocity":127,"measure":19,"beat":2.0,"subject_pos":-1,"motif":"","motif_pos":-1,"best_pos":5,"similarity":0.621,"stretto":false,"stretto_voices":0,"combination":[],"aug_dim":"","rhythm_ratio":1.0,"mirror":false,"chromatic_density":0.429,"complexity":0.402,"dissonance":0.231},{"voice":3,"pitch":57,"start":39.8181,"duration":0.5455,"velocity":127,"measure":19,"beat":2.0,"subject_pos":-1,"motif":"","motif_pos":-1,"best_pos":4,"similarity":0.5,"stretto":false,"stretto_voices":0,"combination":[],"aug_dim":"","rhythm_ratio":1.0,"mirror":false,"chromatic_density":0.429,"complexity":0.402,"dissonance":0.231},{"voice":1,"pitch":67,"start":40.0909,"duration":0.2727,"velocity":127,"measure":19,"beat":2.5,"subject_pos":-1,"motif":"","motif_pos":-1,"best_pos":6,"similarity":0.475,"stretto":false,"stretto_voices":0,"combination":[],"aug_dim":"","rhythm_ratio":1.0,"mirror":false,"chromatic_density":0.429,"complexity":0.402,"dissonance":0.231},{"voice":1,"pitch":65,"start":40.3636,"duration":0.5455,"velocity":127,"measure":19,"beat":3.0,"subject_pos":-1,"motif":"","motif_pos":-1,"best_pos":3,"similarity":0.536,"stretto":false,"stretto_voices":0,"combination":[],"aug_dim":"","rhythm_ratio":1.0,"mirror":false,"chromatic_density":0.429,"complexity":0.402,"dissonance":0.231},{"voice":3,"pitch":57,"start":40.6363,"duration":0.2727,"velocity":127,"measure":19,"beat":3.5,"subject_pos":-1,"motif":"","motif_pos":-1,"best_pos":4,"similarity":0.439,"stretto":false,"stretto_voices":0,"combination":[],"aug_dim":"","rhythm_ratio":1.0,"mirror":false,"chromatic_density":0.429,"complexity":0.402,"dissonance":0.231},{"voice":0,"pitch":73,"start":40.9091,"duration":0.5455,"velocity":127,"measure":19,"beat":4.0,"subject_pos":-1,"motif":"","motif_pos":-1,"best_pos":4,"similarity":0.696,"stretto":false,"stretto_voices":0,"combination":[],"aug_dim":"","rhythm_ratio":1.0,"mirror":false,"chromatic_density":0.429,"complexity":0.402,"dissonance":0.231},{"voice":1,"pitch":64,"start":40.9091,"duration":0.5455,"velocity":127,"measure":19,"beat":4.0,"subject_pos":-1,"motif":"","motif_pos":-1,"best_pos":4,"similarity":0.607,"stretto":false,"stretto_voices":0,"combination":[],"aug_dim":"","rhythm_ratio":1.0,"mirror":false,"chromatic_density":0.429,"complexity":0.402,"dissonance":0.231},{"voice":3,"pitch":55,"start":40.9091,"duration":0.2727,"velocity":127,"measure":19,"beat":4.0,"subject_pos":-1,"motif":"","motif_pos":-1,"best_pos":5,"similarity":0.546,"stretto":false,"stretto_voices":0,"combination":[],"aug_dim":"","rhythm_ratio":1.0,"mirror":false,"chromatic_density":0.429,"complexity":0.402,"dissonance":0.231},{"voice":3,"pitch":57,"start":41.1818,"duration":0.2727,"velocity":127,"measure":19,"beat":4.5,"subject_pos":-1,"motif":"","motif_pos":-1,"best_pos":6,"similarity":0.621,"stretto":false,"stretto_voices":0,"combination":[],"aug_dim":"","rhythm_ratio":1.0,"mirror":false,"chromatic_density":0.429,"complexity":0.402,"dissonance":0.231},{"voice":0,"pitch":74,"start":41.4545,"duration":0.5455,"velocity":127,"measure":20,"beat":1.0,"subject_pos":-1,"motif":"","motif_pos":-1,"best_pos":5,"similarity":0.607,"stretto":false,"stretto_voices":0,"combination":[],"aug_dim":"","rhythm_ratio":1.0,"mirror":false,"chromatic_density":0.231,"complexity":0.485,"dissonance":0.153},{"voice":1,"pitch":62,"start":41.4545,"duration":0.5455,"velocity":127,"measure":20,"beat":1.0,"subject_pos":-1,"motif":"","motif_pos":-1,"best_pos":5,"similarity":0.636,"stretto":false,"stretto_voices":0,"combination":[],"aug_dim":"","rhythm_ratio":1.0,"mirror":false,"chromatic_density":0.231,"complexity":0.485,"dissonance":0.153},{"voice":3,"pitch":58,"start":41.4545,"duration":0.2727,"velocity":127,"measure":20,"beat":1.0,"subject_pos":-1,"motif":"","motif_pos":-1,"best_pos":7,"similarity":0.436,"stretto":false,"stretto_voices":0,"combination":[],"aug_dim":"","rhythm_ratio":1.0,"mirror":false,"chromatic_density":0.231,"complexity":0.485,"dissonance":0.153},{"voice":3,"pitch":62,"start":41.7272,"duration":0.2727,"velocity":127,"measure":20,"beat":1.5,"subject_pos":-1,"motif":"","motif_pos":-1,"best_pos":1,"similarity":0.507,"stretto":false,"stretto_voices":0,"combination":[],"aug_dim":"","rhythm_ratio":1.0,"mirror":false,"chromatic_density":0.231,"complexity":0.485,"dissonance":0.153},{"voice":0,"pitch":77,"start":42.0,"duration":0.5455,"velocity":127,"measure":20,"beat":2.0,"subject_pos":-1,"motif":"","motif_pos":-1,"best_pos":3,"similarity":0.514,"stretto":false,"stretto_voices":0,"combination":[],"aug_dim":"","rhythm_ratio":1.0,"mirror":false,"chromatic_density":0.231,"complexity":0.485,"dissonance":0.153},{"voice":3,"pitch":60,"start":42.0,"duration":0.2727,"velocity":127,"measure":20,"beat":2.0,"subject_pos":-1,"motif":"","motif_pos":-1,"best_pos":2,"similarity":0.521,"stretto":false,"stretto_voices":0,"combination":[],"aug_dim":"","rhythm_ratio":1.0,"mirror":false,"chromatic_density":0.231,"complexity":0.485,"dissonance":0.153},{"voice":3,"pitch":58,"start":42.2727,"duration":0.2727,"velocity":127,"measure":20,"beat":2.5,"subject_pos":-1,"motif":"","motif_pos":-1,"best_pos":5,"similarity":0.4,"stretto":false,"stretto_voices":0,"combination":[],"aug_dim":"","rhythm_ratio":1.0,"mirror":false,"chromatic_density":0.231,"complexity":0.485,"dissonance":0.153},{"voice":0,"pitch":76,"start":42.5454,"duration":0.1364,"velocity":127,"measure":20,"beat":3.0,"subject_pos":-1,"motif":"","motif_pos":-1,"best_pos":4,"similarity":0.721,"stretto":false,"stretto_voices":0,"combination":[],"aug_dim":"","rhythm_ratio":1.0,"mirror":false,"chromatic_density":0.231,"complexity":0.485,"dissonance":0.153},{"voice":3,"pitch":60,"start":42.5454,"duration":0.2727,"velocity":127,"measure":20,"beat":3.0,"subject_pos":-1,"motif":"","motif_pos":-1,"best_pos":1,"similarity":0.386,"stretto":false,"stretto_voices":0,"combination":[],"aug_dim":"","rhythm_ratio":1.0,"mirror":false,"chromatic_density":0.231,"complexity":0.485,"dissonance":0.153},{"voice":0,"pitch":77,"start":42.6818,"duration":0.1364,"velocity":127,"measure":20,"beat":3.25,"subject_pos":-1,"motif":"","motif_pos":-1,"best_pos":5,"similarity":0.714,"stretto":false,"stretto_voices":0,"combination":[],"aug_dim":"","rhythm_ratio":1.0,"mirror":false,"chromatic_density":0.231,"complexity":0.485,"dissonance":0.153},{"voice":0,"pitch":79,"start":42.8181,"duration":0.2727,"velocity":127,"measure":20,"beat":3.5,"subject_pos":-1,"motif":"","motif_pos":-1,"best_pos":6,"similarity":0.5,"stretto":false,"stretto_voices":0,"combination":[],"aug_dim":"","rhythm_ratio":1.0,"mirror":false,"chromatic_density":0.231,"complexity":0.485,"dissonance":0.153},{"voice":3,"pitch":58,"start":42.8181,"duration":0.2727,"velocity":127,"measure":20,"beat":3.5,"subject_pos":-1,"motif":"","motif_pos":-1,"best_pos":3,"similarity":0.464,"stretto":false,"stretto_voices":0,"combination":[],"aug_dim":"","rhythm_ratio":1.0,"mirror":false,"chromatic_density":0.231,"complexity":0.485,"dissonance":0.153},{"voice":0,"pitch":70,"start":43.0909,"duration":0.5455,"velocity":127,"measure":20,"beat":4.0,"subject_pos":-1,"motif":"enigmatic_cell","motif_pos":0,"best_pos":0,"similarity":1.0,"stretto":false,"stretto_voices":0,"combination":[],"aug_dim":"","rhythm_ratio":1.0,"mirror":false,"chromatic_density":0.231,"complexity":0.485,"dissonance":0.153},{"voice":1,"pitch":64,"start":43.0909,"duration":0.5455,"velocity":127,"measure":20,"beat":4.0,"subject_pos":-1,"motif":"","motif_pos":-1,"best_pos":6,"similarity":0.657,"stretto":false,"stretto_voices":0,"combination":[],"aug_dim":"","rhythm_ratio":1.0,"mirror":false,"chromatic_density":0.231,"complexity":0.485,"dissonance":0.153},{"voice":3,"pitch":57,"start":43.0909,"duration":0.2727,"velocity":127,"measure":20,"beat":4.0,"subject_pos":-1,"motif":"","motif_pos":-1,"best_pos":4,"similarity":0.414,"stretto":false,"stretto_voices":0,"combination":[],"aug_dim":"","rhythm_ratio":1.0,"mirror":false,"chromatic_density":0.231,"complexity":0.485,"dissonance":0.153},{"voice":3,"pitch":55,"start":43.3636,"duration":0.2727,"velocity":127,"measure":20,"beat":4.5,"subject_pos":-1,"motif":"","motif_pos":-1,"best_pos":2,"similarity":0.446,"stretto":false,"stretto_voices":0,"combination":[],"aug_dim":"","rhythm_ratio":1.0,"mirror":false,"chromatic_density":0.231,"complexity":0.485,"dissonance":0.153},{"voice":0,"pitch":69,"start":43.6363,"duration":0.5455,"velocity":127,"measure":21,"beat":1.0,"subject_pos":-1,"motif":"enigmatic_cell","motif_pos":1,"best_pos":1,"similarity":1.0,"stretto":false,"stretto_voices":0,"combination":[],"aug_dim":"","rhythm_ratio":1.0,"mirror":false,"chromatic_density":0.308,"complexity":0.501,"dissonance":0.182},{"voice":1,"pitch":65,"start":43.6363,"duration":0.5455,"velocity":127,"measure":21,"beat":1.0,"subject_pos":-1,"motif":"","motif_pos":-1,"best_pos":5,"similarity":0.479,"stretto":false,"stretto_voices":0,"combination":[],"aug_dim":"","rhythm_ratio":1.0,"mirror":false,"chromatic_density":0.308,"complexity":0.501,"dissonance":0.182},{"voice":3,"pitch":53,"start":43.6363,"duration":0.2727,"velocity":127,"measure":21,"beat":1.0,"subject_pos":-1,"motif":"","motif_pos":-1,"best_pos":2,"similarity":0.436,"stretto":false,"stretto_voices":0,"combination":[],"aug_dim":"","rhythm_ratio":1.0,"mirror":false,"chromatic_density":0.308,"complexity":0.501,"dissonance":0.182},{"voice":3,"pitch":58,"start":43.909,"duration":0.2727,"velocity":127,"measure":21,"beat":1.5,"subject_pos":-1,"motif":"","motif_pos":-1,"best_pos":3,"similarity":0.514,"stretto":false,"stretto_voices":0,"combination":[],"aug_dim":"","rhythm_ratio":1.0,"mirror":false,"chromatic_density":0.308,"complexity":0.501,"dissonance":0.182},{"voice":0,"pitch":74,"start":44.1818,"duration":0.5455,"velocity":127,"measure":21,"beat":2.0,"subject_pos":-1,"motif":"enigmatic_cell","motif_pos":2,"best_pos":2,"similarity":1.0,"stretto":false,"stretto_voices":0,"combination":[],"aug_dim":"","rhythm_ratio":1.0,"mirror":false,"chromatic_density":0.308,"complexity":0.501,"dissonance":0.182},{"voice":3,"pitch":57,"start":44.1818,"duration":0.2727,"velocity":127,"measure":21,"beat":2.0,"subject_pos":-1,"motif":"","motif_pos":-1,"best_pos":4,"similarity":0.536,"stretto":false,"stretto_voices":0,"combination":[],"aug_dim":"","rhythm_ratio":1.0,"mirror":false,"chromatic_density":0.308,"complexity":0.501,"dissonance":0.182},{"voice":3,"pitch":55,"start":44.4545,"duration":0.2727,"velocity":127,"measure":21,"beat":2.5,"subject_pos":-1,"motif":"","motif_pos":-1,"best_pos":5,"similarity":0.471,"stretto":false,"stretto_voices":0,"combination":[],"aug_dim":"","rhythm_ratio":1.0,"mirror":false,"chromatic_density":0.308,"complexity":0.501,"dissonance":0.182},{"voice":0,"pitch":73,"start":44.7272,"duration":0.1364,"velocity":127,"measure":21,"beat":3.0,"subject_pos":-1,"motif":"","motif_pos":-1,"best_pos":4,"similarity":0.75,"stretto":false,"stretto_voices":0,"combination":[],"aug_dim":"","rhythm_ratio":1.0,"mirror":false,"chromatic_density":0.308,"complexity":0.501,"dissonance":0.182},{"voice":3,"pitch":57,"start":44.7272,"duration":0.2727,"velocity":127,"measure":21,"beat":3.0,"subject_pos":-1,"motif":"","motif_pos":-1,"best_pos":1,"similarity":0.457,"stretto":false,"stretto_voices":0,"combination":[],"aug_dim":"","rhythm_ratio":1.0,"mirror":false,"chromatic_density":0.308,"complexity":0.501,"dissonance":0.182},{"voice":0,"pitch":74,"start":44.8636,"duration":0.1364,"velocity":127,"measure":21,"beat":3.25,"subject_pos":-1,"motif":"","motif_pos":-1,"best_pos":5,"similarity":0.714,"stretto":false,"stretto_voices":0,"combination":[],"aug_dim":"","rhythm_ratio":1.0,"mirror":false,"chromatic_density":0.308,"complexity":0.501,"dissonance":0.182},{"voice":0,"pitch":76,"start":45.0,"duration":0.2727,"velocity":127,"measure":21,"beat":3.5,"subject_pos":-1,"motif":"","motif_pos":-1,"best_pos":6,"similarity":0.5,"stretto":false,"stretto_voices":0,"combination":[],"aug_dim":"","rhythm_ratio":1.0,"mirror":false,"chromatic_density":0.308,"complexity":0.501,"dissonance":0.182},{"voice":3,"pitch":55,"start":45.0,"duration":0.2727,"velocity":127,"measure":21,"beat":3.5,"subject_pos":-1,"motif":"","motif_pos":-1,"best_pos":2,"similarity":0.593,"stretto":false,"stretto_voices":0,"combination":[],"aug_dim":"","rhythm_ratio":1.0,"mirror":false,"chromatic_density":0.308,"complexity":0.501,"dissonance":0.182},{"voice":0,"pitch":67,"start":45.2727,"duration":0.5455,"velocity":127,"measure":21,"beat":4.0,"subject_pos":-1,"motif":"","motif_pos":-1,"best_pos":1,"similarity":0.357,"stretto":false,"stretto_voices":0,"combination":[],"aug_dim":"","rhythm_ratio":1.0,"mirror":false,"chromatic_density":0.308,"complexity":0.501,"dissonance":0.182},{"voice":1,"pitch":61,"start":45.2727,"duration":0.5455,"velocity":127,"measure":21,"beat":4.0,"subject_pos":-1,"motif":"","motif_pos":-1,"best_pos":4,"similarity":0.55,"stretto":false,"stretto_voices":0,"combination":[],"aug_dim":"","rhythm_ratio":1.0,"mirror":false,"chromatic_density":0.308,"complexity":0.501,"dissonance":0.182},{"voice":3,"pitch":53,"start":45.2727,"duration":0.2727,"velocity":127,"measure":21,"beat":4.0,"subject_pos":-1,"motif":"","motif_pos":-1,"best_pos":3,"similarity":0.6,"stretto":false,"stretto_voices":0,"combination":[],"aug_dim":"","rhythm_ratio":1.0,"mirror":false,"chromatic_density":0.308,"complexity":0.501,"dissonance":0.182},{"voice":3,"pitch":52,"start":45.5454,"duration":0.2727,"velocity":127,"measure":21,"beat":4.5,"subject_pos":-1,"motif":"","motif_pos":-1,"best_pos":4,"similarity":0.479,"stretto":false,"stretto_voices":0,"combination":[],"aug_dim":"","rhythm_ratio":1.0,"mirror":false,"chromatic_density":0.308,"complexity":0.501,"dissonance":0.182},{"voice":0,"pitch":65,"start":45.8181,"duration":1.0909,"velocity":127,"measure":22,"beat":1.0,"subject_pos":-1,"motif":"","motif_pos":-1,"best_pos":2,"similarity":0.436,"stretto":false,"stretto_voices":0,"combination":[],"aug_dim":"","rhythm_ratio":1.0,"mirror":false,"chromatic_density":0.3,"complexity":0.58,"dissonance":0.094},{"voice":1,"pitch":62,"start":45.8181,"duration":1.0909,"velocity":127,"measure":22,"beat":1.0,"subject_pos":-1,"motif":"","motif_pos":-1,"best_pos":5,"similarity":0.736,"stretto":false,"stretto_voices":0,"combination":[],"aug_dim":"","rhythm_ratio":1.0,"mirror":false,"chromatic_density":0.3,"complexity":0.58,"dissonance":0.094},{"voice":3,"pitch":50,"start":45.8181,"duration":0.2727,"velocity":127,"measure":22,"beat":1.0,"subject_pos":-1,"motif":"","motif_pos":-1,"best_pos":0,"similarity":0.446,"stretto":false,"stretto_voices":0,"combination":[],"aug_dim":"","rhythm_ratio":1.0,"mirror":false,"chromatic_density":0.3,"complexity":0.58,"dissonance":0.094},{"voice":3,"pitch":55,"start":46.0909,"duration":0.2727,"velocity":127,"measure":22,"beat":1.5,"subject_pos":-1,"motif":"","motif_pos":-1,"best_pos":1,"similarity":0.625,"stretto":false,"stretto_voices":0,"combination":[],"aug_dim":"","rhythm_ratio":1.0,"mirror":false,"chromatic_density":0.3,"complexity":0.58,"dissonance":0.094},{"voice":2,"pitch":57,"start":46.3636,"duration":0.5455,"velocity":127,"measure":22,"beat":2.0,"subject_pos":0,"motif":"subject","motif_pos":0,"best_pos":0,"similarity":1.0,"stretto":false,"stretto_voices":0,"combination":[],"aug_dim":"","rhythm_ratio":1.0,"mirror":false,"chromatic_density":0.3,"complexity":0.58,"dissonance":0.094},{"voice":3,"pitch":53,"start":46.3636,"duration":0.2727,"velocity":127,"measure":22,"beat":2.0,"subject_pos":-1,"motif":"","motif_pos":-1,"best_pos":3,"similarity":0.579,"stretto":false,"stretto_voices":0,"combination":[],"aug_dim":"","rhythm_ratio":1.0,"mirror":false,"chromatic_density":0.3,"complexity":0.58,"dissonance":0.094},{"voice":3,"pitch":52,"start":46.6363,"duration":0.2727,"velocity":127,"measure":22,"beat":2.5,"subject_pos":-1,"motif":"","motif_pos":-1,"best_pos":4,"similarity":0.664,"stretto":false,"stretto_voices":0,"combination":[],"aug_dim":"","rhythm_ratio":1.0,"mirror":false,"chromatic_density":0.3,"complexity":0.58,"dissonance":0.094},{"voice":2,"pitch":69,"start":46.909,"duration":1.6364,"velocity":127,"measure":22,"beat":3.0,"subject_pos":1,"motif":"subject","motif_pos":1,"best_pos":1,"similarity":1.0,"stretto":false,"stretto_voices":0,"combination":[],"aug_dim":"","rhythm_ratio":1.0,"mirror":false,"chromatic_density":0.3,"complexity":0.58,"dissonance":0.094},{"voice":3,"pitch":53,"start":46.909,"duration":0.2727,"velocity":127,"measure":22,"beat":3.0,"subject_pos":-1,"motif":"","motif_pos":-1,"best_pos":5,"similarity":0.507,"stretto":false,"stretto_voices":0,"combination":[],"aug_dim":"","rhythm_ratio":1.0,"mirror":false,"chromatic_density":0.3,"complexity":0.58,"dissonance":0.094},{"voice":3,"pitch":52,"start":47.1818,"duration":0.2727,"velocity":127,"measure":22,"beat":3.5,"subject_pos":-1,"motif":"","motif_pos":-1,"best_pos":4,"similarity":0.414,"stretto":false,"stretto_voices":0,"combination":[],"aug_dim":"","rhythm_ratio":1.0,"mirror":false,"chromatic_density":0.3,"complexity":0.58,"dissonance":0.094},{"voice":0,"pitch":72,"start":47.4545,"duration":0.5455,"velocity":127,"measure":22,"beat":4.0,"subject_pos":-1,"motif":"","motif_pos":-1,"best_pos":1,"similarity":0.589,"stretto":false,"stretto_voices":0,"combination":[],"aug_dim":"","rhythm_ratio":1.0,"mirror":false,"chromatic_density":0.3,"complexity":0.58,"dissonance":0.094},{"voice":1,"pitch":64,"start":47.4545,"duration":0.5455,"velocity":127,"measure":22,"beat":4.0,"subject_pos":-1,"motif":"","motif_pos":-1,"best_pos":6,"similarity":0.721,"stretto":false,"stretto_voices":0,"combination":[],"aug_dim":"","rhythm_ratio":1.0,"mirror":false,"chromatic_density":0.3,"complexity":0.58,"dissonance":0.094},{"voice":3,"pitch":50,"start":47.4545,"duration":0.2727,"velocity":127,"measure":22,"beat":4.0,"subject_pos":-1,"motif":"","motif_pos":-1,"best_pos":2,"similarity":0.45,"stretto":false,"stretto_voices":0,"combination":[],"aug_dim":"","rhythm_ratio":1.0,"mirror":false,"chromatic_density":0.3,"complexity":0.58,"dissonance":0.094},{"voice":3,"pitch":48,"start":47.7272,"duration":0.2727,"velocity":127,"measure":22,"beat":4.5,"subject_pos":-1,"motif":"","motif_pos":-1,"best_pos":5,"similarity":0.418,"stretto":false,"stretto_voices":0,"combination":[],"aug_dim":"","rhythm_ratio":1.0,"mirror":false,"chromatic_density":0.3,"complexity":0.58,"dissonance":0.094},{"voice":0,"pitch":71,"start":48.0,"duration":1.0909,"velocity":127,"measure":23,"beat":1.0,"subject_pos":-1,"motif":"","motif_pos":-1,"best_pos":2,"similarity":0.643,"stretto":false,"stretto_voices":0,"combination":[],"aug_dim":"","rhythm_ratio":1.0,"mirror":false,"chromatic_density":0.167,"complexity":0.604,"dissonance":0.168},{"voice":1,"pitch":65,"start":48.0,"duration":0.5455,"velocity":127,"measure":23,"beat":1.0,"subject_pos":-1,"motif":"","motif_pos":-1,"best_pos":7,"similarity":0.5,"stretto":false,"stretto_voices":0,"combination":[],"aug_dim":"","rhythm_ratio":1.0,"mirror":false,"chromatic_density":0.167,"complexity":0.604,"dissonance":0.168},{"voice":3,"pitch":50,"start":48.0,"duration":0.5455,"velocity":127,"measure":23,"beat":1.0,"subject_pos":-1,"motif":"","motif_pos":-1,"best_pos":6,"similarity":0.364,"stretto":false,"stretto_voices":0,"combination":[],"aug_dim":"","rhythm_ratio":1.0,"mirror":false,"chromatic_density":0.167,"complexity":0.604,"dissonance":0.168},{"voice":1,"pitch":62,"start":48.5454,"duration":0.5455,"velocity":127,"measure":23,"beat":2.0,"subject_pos":-1,"motif":"","motif_pos":-1,"best_pos":3,"similarity":0.379,"stretto":false,"stretto_voices":0,"combination":[],"aug_dim":"","rhythm_ratio":1.0,"mirror":false,"chromatic_density":0.167,"complexity":0.604,"dissonance":0.168},{"voice":2,"pitch":68,"start":48.5454,"duration":0.2727,"velocity":127,"measure":23,"beat":2.0,"subject_pos":2,"motif":"subject","motif_pos":2,"best_pos":2,"similarity":1.0,"stretto":false,"stretto_voices":0,"combination":[],"aug_dim":"","rhythm_ratio":1.0,"mirror":false,"chromatic_density":0.167,"complexity":0.604,"dissonance":0.168},{"voice":3,"pitch":47,"start":48.5454,"duration":0.5455,"velocity":127,"measure":23,"beat":2.0,"subject_pos":-1,"motif":"","motif_pos":-1,"best_pos":0,"similarity":0.3,"stretto":false,"stretto_voices":0,"combination":[],"aug_dim":"","rhythm_ratio":1.0,"mirror":false,"chromatic_density":0.167,"complexity":0.604,"dissonance":0.168},{"voice":2,"pitch":66,"start":48.8181,"duration":0.2727,"velocity":127,"measure":23,"beat":2.5,"subject_pos":3,"motif":"subject","motif_pos":3,"best_pos":3,"similarity":1.0,"stretto":false,"stretto_voices":0,"combination":[],"aug_dim":"","rhythm_ratio":1.0,"mirror":false,"chromatic_density":0.167,"complexity":0.604,"dissonance":0.168},{"voice":2,"pitch":64,"start":49.0909,"duration":0.2727,"velocity":127,"measure":23,"beat":3.0,"subject_pos":4,"motif":"subject","motif_pos":4,"best_pos":4,"similarity":1.0,"stretto":false,"stretto_voices":0,"combination":[],"aug_dim":"","rhythm_ratio":1.0,"mirror":false,"chromatic_density":0.167,"complexity":0.604,"dissonance":0.168},{"voice":3,"pitch":52,"start":49.0909,"duration":1.0909,"velocity":127,"measure":23,"beat":3.0,"subject_pos":-1,"motif":"","motif_pos":-1,"best_pos":1,"similarity":0.35,"stretto":false,"stretto_voices":0,"combination":[],"aug_dim":"","rhythm_ratio":1.0,"mirror":false,"chromatic_density":0.167,"complexity":0.604,"dissonance":0.168},{"voice":1,"pitch":65,"start":49.3636,"duration":0.2727,"velocity":127,"measure":23,"beat":3.5,"subject_pos":-1,"motif":"","motif_pos":-1,"best_pos":3,"similarity":0.386,"stretto":false,"stretto_voices":0,"combination":[],"aug_dim":"","rhythm_ratio":1.0,"mirror":false,"chromatic_density":0.167,"complexity":0.604,"dissonance":0.168},{"voice":2,"pitch":62,"start":49.3636,"duration":0.2727,"velocity":127,"measure":23,"beat":3.5,"subject_pos":5,"motif":"subject","motif_pos":5,"best_pos":5,"similarity":1.0,"stretto":false,"stretto_voices":0,"combination":[],"aug_dim":"","rhythm_ratio":1.0,"mirror":false,"chromatic_density":0.167,"complexity":0.604,"dissonance":0.168},{"voice":0,"pitch":68,"start":49.6363,"duration":0.5455,"velocity":127,"measure":23,"beat":4.0,"subject_pos":-1,"motif":"","motif_pos":-1,"best_pos":3,"similarity":0.607,"stretto":false,"stretto_voices":0,"combination":[],"aug_dim":"","rhythm_ratio":1.0,"mirror":false,"chromatic_density":0.167,"complexity":0.604,"dissonance":0.168},{"voice":1,"pitch":64,"start":49.6363,"duration":0.2727,"velocity":127,"measure":23,"beat":4.0,"subject_pos":-1,"motif":"","motif_pos":-1,"best_pos":1,"similarity":0.429,"stretto":false,"stretto_voices":0,"combination":[],"aug_dim":"","rhythm_ratio":1.0,"mirror":false,"chromatic_density":0.167,"complexity":0.604,"dissonance":0.168},{"voice":2,"pitch":60,"start":49.6363,"duration":0.2727,"velocity":127,"measure":23,"beat":4.0,"subject_pos":6,"motif":"subject","motif_pos":6,"best_pos":6,"similarity":1.0,"stretto":false,"stretto_voices":0,"combination":[],"aug_dim":"","rhythm_ratio":1.0,"mirror":false,"chromatic_density":0.167,"complexity":0.604,"dissonance":0.168},{"voice":1,"pitch":62,"start":49.909,"duration":0.2727,"velocity":127,"measure":23,"beat":4.5,"subject_pos":-1,"motif":"","motif_pos":-1,"best_pos":2,"similarity":0.643,"stretto":false,"stretto_voices":0,"combination":[],"aug_dim":"","rhythm_ratio":1.0,"mirror":false,"chromatic_density":0.167,"complexity":0.604,"dissonance":0.168},{"voice":2,"pitch":59,"start":49.909,"duration":0.2727,"velocity":127,"measure":23,"beat":4.5,"subject_pos":7,"motif":"subject","motif_pos":7,"best_pos":7,"similarity":1.0,"stretto":false,"stretto_voices":0,"combination":[],"aug_dim":"","rhythm_ratio":1.0,"mirror":false,"chromatic_density":0.167,"complexity":0.604,"dissonance":0.168},{"voice":0,"pitch":69,"start":50.1818,"duration":4.3636,"velocity":127,"measure":24,"beat":1.0,"subject_pos":-1,"motif":"","motif_pos":-1,"best_pos":5,"similarity":0.768,"stretto":false,"stretto_voices":0,"combination":[],"aug_dim":"","rhythm_ratio":1.0,"mirror":false,"chromatic_density":0.429,"complexity":0.537,"dissonance":0.097},{"voice":1,"pitch":60,"start":50.1818,"duration":0.2727,"velocity":127,"measure":24,"beat":1.0,"subject_pos":-1,"motif":"","motif_pos":-1,"best_pos":3,"similarity":0.786,"stretto":false,"stretto_voices":0,"combination":[],"aug_dim":"","rhythm_ratio":1.0,"mirror":false,"chromatic_density":0.429,"complexity":0.537,"dissonance":0.097},{"voice":2,"pitch":57,"start":50.1818,"duration":0.2727,"velocity":127,"measure":24,"beat":1.0,"subject_pos":8,"motif":"subject","motif_pos":8,"best_pos":0,"similarity":1.0,"stretto":false,"stretto_voices":0,"combination":[],"aug_dim":"","rhythm_ratio":1.0,"mirror":false,"chromatic_density":0.429,"complexity":0.537,"dissonance":0.097},{"voice":3,"pitch":45,"start":50.1818,"duration":1.0909,"velocity":127,"measure":24,"beat":1.0,"subject_pos":-1,"motif":"","motif_pos":-1,"best_pos":2,"similarity":0.261,"stretto":false,"stretto_voices":0,"combination":[],"aug_dim":"","rhythm_ratio":1.0,"mirror":false,"chromatic_density":0.429,"complexity":0.537,"dissonance":0.097},{"voice":1,"pitch":59,"start":50.4545,"duration":0.2727,"velocity":127,"measure":24,"beat":1.5,"subject_pos":-1,"motif":"","motif_pos":-1,"best_pos":4,"similarity":0.893,"stretto":false,"stretto_voices":0,"combination":[],"aug_dim":"","rhythm_ratio":1.0,"mirror":false,"chromatic_density":0.429,"complexity":0.537,"dissonance":0.097},{"voice":2,"pitch":56,"start":50.4545,"duration":0.2727,"velocity":127,"measure":24,"beat":1.5,"subject_pos":-1,"motif":"","motif_pos":-1,"best_pos":4,"similarity":0.893,"stretto":false,"stretto_voices":0,"combination":[],"aug_dim":"","rhythm_ratio":1.0,"mirror":false,"chromatic_density":0.429,"complexity":0.537,"dissonance":0.097},{"voice":1,"pitch":60,"start":50.7272,"duration":0.2727,"velocity":127,"measure":24,"beat":2.0,"subject_pos":-1,"motif":"","motif_pos":-1,"best_pos":5,"similarity":0.821,"stretto":false,"stretto_voices":0,"combination":[],"aug_dim":"","rhythm_ratio":1.0,"mirror":false,"chromatic_density":0.429,"complexity":0.537,"dissonance":0.097},{"voice":2,"pitch":57,"start":50.7272,"duration":0.2727,"velocity":127,"measure":24,"beat":2.0,"subject_pos":-1,"motif":"","motif_pos":-1,"best_pos":5,"similarity":0.893,"stretto":false,"stretto_voices":0,"combination":[],"aug_dim":"","rhythm_ratio":1.0,"mirror":false,"chromatic_density":0.429,"complexity":0.537,"dissonance":0.097},{"voice":1,"pitch":62,"start":50.9999,"duration":0.2727,"velocity":127,"measure":24,"beat":2.5,"subject_pos":-1,"motif":"","motif_pos":-1,"best_pos":6,"similarity":0.643,"stretto":false,"stretto_voices":0,"combination":[],"aug_dim":"","rhythm_ratio":1.0,"mirror":false,"chromatic_density":0.429,"complexity":0.537,"dissonance":0.097},{"voice":2,"pitch":59,"start":50.9999,"duration":0.2727,"velocity":127,"measure":24,"beat":2.5,"subject_pos":-1,"motif":"","motif_pos":-1,"best_pos":6,"similarity":0.786,"stretto":false,"stretto_voices":0,"combination":[],"aug_dim":"","rhythm_ratio":1.0,"mirror":false,"chromatic_density":0.429,"complexity":0.537,"dissonance":0.097},{"voice":1,"pitch":64,"start":51.2727,"duration":0.2727,"velocity":127,"measure":24,"beat":3.0,"subject_pos":-1,"motif":"","motif_pos":-1,"best_pos":6,"similarity":0.375,"stretto":false,"stretto_voices":0,"combination":[],"aug_dim":"","rhythm_ratio":1.0,"mirror":false,"chromatic_density":0.429,"complexity":0.537,"dissonance":0.097},{"voice":2,"pitch":60,"start":51.2727,"duration":0.2727,"velocity":127,"measure":24,"beat":3.0,"subject_pos":-1,"motif":"","motif_pos":-1,"best_pos":7,"similarity":0.5,"stretto":false,"stretto_voices":0,"combination":[],"aug_dim":"","rhythm_ratio":1.0,"mirror":false,"chromatic_density":0.429,"complexity":0.537,"dissonance":0.097},{"voice":1,"pitch":60,"start":51.5454,"duration":0.2727,"velocity":127,"measure":24,"beat":3.5,"subject_pos":-1,"motif":"","motif_pos":-1,"best_pos":4,"similarity":0.393,"stretto":false,"stretto_voices":0,"combination":[],"aug_dim":"","rhythm_ratio":1.0,"mirror":false,"chromatic_density":0.429,"complexity":0.537,"dissonance":0.097},{"voice":2,"pitch":57,"start":51.5454,"duration":0.2727,"velocity":127,"measure":24,"beat":3.5,"subject_pos":-1,"motif":"","motif_pos":-1,"best_pos":3,"similarity":0.55,"stretto":false,"stretto_voices":0,"combination":[],"aug_dim":"","rhythm_ratio":1.0,"mirror":false,"chromatic_density":0.429,"complexity":0.537,"dissonance":0.097},{"voice":1,"pitch":62,"start":51.8181,"duration":0.2727,"velocity":127,"measure":24,"beat":4.0,"subject_pos":-1,"motif":"","motif_pos":-1,"best_pos":5,"similarity":0.586,"stretto":false,"stretto_voices":0,"combination":[],"aug_dim":"","rhythm_ratio":1.0,"mirror":false,"chromatic_density":0.429,"complexity":0.537,"dissonance":0.097},{"voice":2,"pitch":59,"start":51.8181,"duration":0.2727,"velocity":127,"measure":24,"beat":4.0,"subject_pos":-1,"motif":"","motif_pos":-1,"best_pos":4,"similarity":0.625,"stretto":false,"stretto_voices":0,"combination":[],"aug_dim":"","rhythm_ratio":1.0,"mirror":false,"chromatic_density":0.429,"complexity":0.537,"dissonance":0.097},{"voice":1,"pitch":64,"start":52.0909,"duration":0.2727,"velocity":127,"measure":24,"beat":4.5,"subject_pos":-1,"motif":"","motif_pos":-1,"best_pos":6,"similarity":0.65,"stretto":false,"stretto_voices":0,"combination":[],"aug_dim":"","rhythm_ratio":1.0,"mirror":false,"chromatic_density":0.429,"complexity":0.537,"dissonance":0.097},{"voice":2,"pitch":60,"start":52.0909,"duration":0.2727,"velocity":127,"measure":24,"beat":4.5,"subject_pos":-1,"motif":"","motif_pos":-1,"best_pos":5,"similarity":0.693,"stretto":false,"stretto_voices":0,"combination":[],"aug_dim":"","rhythm_ratio":1.0,"mirror":false,"chromatic_density":0.429,"complexity":0.537,"dissonance":0.097},{"voice":1,"pitch":65,"start":52.3636,"duration":0.5455,"velocity":127,"measure":25,"beat":1.0,"subject_pos":-1,"motif":"","motif_pos":-1,"best_pos":5,"similarity":0.514,"stretto":false,"stretto_voices":0,"combination":[],"aug_dim":"","rhythm_ratio":1.0,"mirror":false,"chromatic_density":0.462,"complexity":0.48,"dissonance":0.192},{"voice":2,"pitch":62,"start":52.3636,"duration":0.2727,"velocity":127,"measure":25,"beat":1.0,"subject_pos":-1,"motif":"tail","motif_pos":3,"best_pos":3,"similarity":1.0,"stretto":false,"stretto_voices":0,"combination":[],"aug_dim":"","rhythm_ratio":1.0,"mirror":false,"chromatic_density":0.462,"complexity":0.48,"dissonance":0.192},{"voice":2,"pitch":61,"start":52.6363,"duration":0.2727,"velocity":127,"measure":25,"beat":1.5,"subject_pos":-1,"motif":"tail","motif_pos":4,"best_pos":4,"similarity":1.0,"stretto":false,"stretto_voices":0,"combination":[],"aug_dim":"","rhythm_ratio":1.0,"mirror":false,"chromatic_density":0.462,"complexity":0.48,"dissonance":0.192},{"voice":3,"pitch":55,"start":52.6363,"duration":0.2727,"velocity":127,"measure":25,"beat":1.5,"subject_pos":-1,"motif":"","motif_pos":-1,"best_pos":1,"similarity":0.386,"stretto":false,"stretto_voices":0,"combination":[],"aug_dim":"","rhythm_ratio":1.0,"mirror":false,"chromatic_density":0.462,"complexity":0.48,"dissonance":0.192},{"voice":2,"pitch":62,"start":52.909,"duration":0.2727,"velocity":127,"measure":25,"beat":2.0,"subject_pos":-1,"motif":"tail","motif_pos":5,"best_pos":5,"similarity":1.0,"stretto":false,"stretto_voices":0,"combination":[],"aug_dim":"","rhythm_ratio":1.0,"mirror":false,"chromatic_density":0.462,"complexity":0.48,"dissonance":0.192},{"voice":3,"pitch":53,"start":52.909,"duration":0.2727,"velocity":127,"measure":25,"beat":2.0,"subject_pos":-1,"motif":"","motif_pos":-1,"best_pos":2,"similarity":0.45,"stretto":false,"stretto_voices":0,"combination":[],"aug_dim":"","rhythm_ratio":1.0,"mirror":false,"chromatic_density":0.462,"complexity":0.48,"dissonance":0.192},{"voice":2,"pitch":64,"start":53.1818,"duration":0.2727,"velocity":127,"measure":25,"beat":2.5,"subject_pos":-1,"motif":"tail","motif_pos":6,"best_pos":6,"similarity":1.0,"stretto":false,"stretto_voices":0,"combination":[],"aug_dim":"","rhythm_ratio":1.0,"mirror":false,"chromatic_density":0.462,"complexity":0.48,"dissonance":0.192},{"voice":3,"pitch":52,"start":53.1818,"duration":0.2727,"velocity":127,"measure":25,"beat":2.5,"subject_pos":-1,"motif":"","motif_pos":-1,"best_pos":1,"similarity":0.429,"stretto":false,"stretto_voices":0,"combination":[],"aug_dim":"","rhythm_ratio":1.0,"mirror":false,"chromatic_density":0.462,"complexity":0.48,"dissonance":0.192},{"voice":2,"pitch":65,"start":53.4545,"duration":0.2727,"velocity":127,"measure":25,"beat":3.0,"subject_pos":-1,"motif":"tail","motif_pos":7,"best_pos":7,"similarity":1.0,"stretto":false,"stretto_voices":0,"combination":[],"aug_dim":"","rhythm_ratio":1.0,"mirror":false,"chromatic_density":0.462,"complexity":0.48,"dissonance":0.192},{"voice":3,"pitch":50,"start":53.4545,"duration":0.2727,"velocity":127,"measure":25,"beat":3.0,"subject_pos":-1,"motif":"","motif_pos":-1,"best_pos":2,"similarity":0.579,"stretto":false,"stretto_voices":0,"combination":[],"aug_dim":"","rhythm_ratio":1.0,"mirror":false,"chromatic_density":0.462,"complexity":0.48,"dissonance":0.192},{"voice":2,"pitch":62,"start":53.7272,"duration":0.2727,"velocity":127,"measure":25,"beat":3.5,"subject_pos":-1,"motif":"","motif_pos":-1,"best_pos":3,"similarity":0.496,"stretto":false,"stretto_voices":0,"combination":[],"aug_dim":"","rhythm_ratio":1.0,"mirror":false,"chromatic_density":0.462,"complexity":0.48,"dissonance":0.192},{"voice":3,"pitch":48,"start":53.7272,"duration":0.2727,"velocity":127,"measure":25,"beat":3.5,"subject_pos":-1,"motif":"","motif_pos":-1,"best_pos":3,"similarity":0.593,"stretto":false,"stretto_voices":0,"combination":[],"aug_dim":"","rhythm_ratio":1.0,"mirror":false,"chromatic_density":0.462,"complexity":0.48,"dissonance":0.192},{"voice":2,"pitch":64,"start":53.9999,"duration":0.2727,"velocity":127,"measure":25,"beat":4.0,"subject_pos":-1,"motif":"","motif_pos":-1,"best_pos":6,"similarity":0.604,"stretto":false,"stretto_voices":0,"combination":[],"aug_dim":"","rhythm_ratio":1.0,"mirror":false,"chromatic_density":0.462,"complexity":0.48,"dissonance":0.192},{"voice":3,"pitch":47,"start":53.9999,"duration":0.2727,"velocity":127,"measure":25,"beat":4.0,"subject_pos":-1,"motif":"","motif_pos":-1,"best_pos":4,"similarity":0.479,"stretto":false,"stretto_voices":0,"combination":[],"aug_dim":"","rhythm_ratio":1.0,"mirror":false,"chromatic_density":0.462,"complexity":0.48,"dissonance":0.192},{"voice":2,"pitch":65,"start":54.2727,"duration":0.2727,"velocity":127,"measure":25,"beat":4.5,"subject_pos":-1,"motif":"","motif_pos":-1,"best_pos":5,"similarity":0.479,"stretto":false,"stretto_voices":0,"combination":[],"aug_dim":"","rhythm_ratio":1.0,"mirror":false,"chromatic_density":0.462,"complexity":0.48,"dissonance":0.192},{"voice":3,"pitch":45,"start":54.2727,"duration":0.2727,"velocity":127,"measure":25,"beat":4.5,"subject_pos":-1,"motif":"","motif_pos":-1,"best_pos":3,"similarity":0.586,"stretto":false,"stretto_voices":0,"combination":[],"aug_dim":"","rhythm_ratio":1.0,"mirror":false,"chromatic_density":0.462,"complexity":0.48,"dissonance":0.192},{"voice":0,"pitch":71,"start":54.5454,"duration":0.2727,"velocity":127,"measure":26,"beat":1.0,"subject_pos":-1,"motif":"","motif_pos":-1,"best_pos":6,"similarity":0.732,"stretto":false,"stretto_voices":0,"combination":[],"aug_dim":"","rhythm_ratio":1.0,"mirror":false,"chromatic_density":0.385,"complexity":0.504,"dissonance":0.133},{"voice":2,"pitch":65,"start":54.5454,"duration":0.5455,"velocity":127,"measure":26,"beat":1.0,"subject_pos":-1,"motif":"","motif_pos":-1,"best_pos":3,"similarity":0.414,"stretto":false,"stretto_voices":0,"combination":[],"aug_dim":"","rhythm_ratio":1.0,"mirror":false,"chromatic_density":0.385,"complexity":0.504,"dissonance":0.133},{"voice":3,"pitch":44,"start":54.5454,"duration":0.8182,"velocity":127,"measure":26,"beat":1.0,"subject_pos":-1,"motif":"","motif_pos":-1,"best_pos":4,"similarity":0.636,"stretto":false,"stretto_voices":0,"combination":[],"aug_dim":"","rhythm_ratio":1.0,"mirror":false,"chromatic_density":0.385,"complexity":0.504,"dissonance":0.133},{"voice":0,"pitch":72,"start":54.8181,"duration":0.2727,"velocity":127,"measure":26,"beat":1.5,"subject_pos":-1,"motif":"","motif_pos":-1,"best_pos":5,"similarity":0.607,"stretto":false,"stretto_voices":0,"combination":[],"aug_dim":"","rhythm_ratio":1.0,"mirror":false,"chromatic_density":0.385,"complexity":0.504,"dissonance":0.133},{"voice":0,"pitch":74,"start":55.0909,"duration":0.2727,"velocity":127,"measure":26,"beat":2.0,"subject_pos":-1,"motif":"","motif_pos":-1,"best_pos":6,"similarity":0.464,"stretto":false,"stretto_voices":0,"combination":[],"aug_dim":"","rhythm_ratio":1.0,"mirror":false,"chromatic_density":0.385,"complexity":0.504,"dissonance":0.133},{"voice":2,"pitch":64,"start":55.0909,"duration":0.5455,"velocity":127,"measure":26,"beat":2.0,"subject_pos":-1,"motif":"","motif_pos":-1,"best_pos":4,"similarity":0.5,"stretto":false,"stretto_voices":0,"combination":[],"aug_dim":"","rhythm_ratio":1.0,"mirror":false,"chromatic_density":0.385,"complexity":0.504,"dissonance":0.133},{"voice":0,"pitch":71,"start":55.3636,"duration":0.2727,"velocity":127,"measure":26,"beat":2.5,"subject_pos":-1,"motif":"","motif_pos":-1,"best_pos":3,"similarity":0.4,"stretto":false,"stretto_voices":0,"combination":[],"aug_dim":"","rhythm_ratio":1.0,"mirror":false,"chromatic_density":0.385,"complexity":0.504,"dissonance":0.133},{"voice":3,"pitch":42,"start":55.3636,"duration":0.1364,"velocity":127,"measure":26,"beat":2.5,"subject_pos":-1,"motif":"","motif_pos":-1,"best_pos":5,"similarity":0.636,"stretto":false,"stretto_voices":0,"combination":[],"aug_dim":"","rhythm_ratio":1.0,"mirror":false,"chromatic_density":0.385,"complexity":0.504,"dissonance":0.133},{"voice":3,"pitch":44,"start":55.4999,"duration":0.1364,"velocity":127,"measure":26,"beat":2.75,"subject_pos":-1,"motif":"","motif_pos":-1,"best_pos":6,"similarity":0.657,"stretto":false,"stretto_voices":0,"combination":[],"aug_dim":"","rhythm_ratio":1.0,"mirror":false,"chromatic_density":0.385,"complexity":0.504,"dissonance":0.133},{"voice":0,"pitch":72,"start":55.6363,"duration":2.1818,"velocity":127,"measure":26,"beat":3.0,"subject_pos":-1,"motif":"","motif_pos":-1,"best_pos":1,"similarity":0.386,"stretto":false,"stretto_voices":0,"combination":[],"aug_dim":"","rhythm_ratio":1.0,"mirror":false,"chromatic_density":0.385,"complexity":0.504,"dissonance":0.133},{"voice":3,"pitch":45,"start":55.6363,"duration":0.2727,"velocity":127,"measure":26,"beat":3.0,"subject_pos":-1,"motif":"","motif_pos":-1,"best_pos":1,"similarity":0.457,"stretto":false,"stretto_voices":0,"combination":[],"aug_dim":"","rhythm_ratio":1.0,"mirror":false,"chromatic_density":0.385,"complexity":0.504,"dissonance":0.133},{"voice":2,"pitch":64,"start":55.909,"duration":0.2727,"velocity":127,"measure":26,"beat":3.5,"subject_pos":-1,"motif":"","motif_pos":-1,"best_pos":4,"similarity":0.439,"stretto":false,"stretto_voices":0,"combination":[],"aug_dim":"","rhythm_ratio":1.0,"mirror":false,"chromatic_density":0.385,"complexity":0.504,"dissonance":0.133},{"voice":3,"pitch":43,"start":55.909,"duration":0.2727,"velocity":127,"measure":26,"beat":3.5,"subject_pos":-1,"motif":"","motif_pos":-1,"best_pos":2,"similarity":0.593,"stretto":false,"stretto_voices":0,"combination":[],"aug_dim":"","rhythm_ratio":1.0,"mirror":false,"chromatic_density":0.385,"complexity":0.504,"dissonance":0.133},{"voice":2,"pitch":62,"start":56.1818,"duration":0.2727,"velocity":127,"measure":26,"beat":4.0,"subject_pos":-1,"motif":"","motif_pos":-1,"best_pos":5,"similarity":0.546,"stretto":false,"stretto_voices":0,"combination":[],"aug_dim":"","rhythm_ratio":1.0,"mirror":false,"chromatic_density":0.385,"complexity":0.504,"dissonance":0.133},{"voice":3,"pitch":41,"start":56.1818,"duration":0.2727,"velocity":127,"measure":26,"beat":4.0,"subject_pos":-1,"motif":"","motif_pos":-1,"best_pos":3,"similarity":0.593,"stretto":false,"stretto_voices":0,"combination":[],"aug_dim":"","rhythm_ratio":1.0,"mirror":false,"chromatic_density":0.385,"complexity":0.504,"dissonance":0.133},{"voice":2,"pitch":64,"start":56.4545,"duration":0.2727,"velocity":127,"measure":26,"beat":4.5,"subject_pos":-1,"motif":"","motif_pos":-1,"best_pos":6,"similarity":0.621,"stretto":false,"stretto_voices":0,"combination":[],"aug_dim":"","rhythm_ratio":1.0,"mirror":false,"chromatic_density":0.385,"complexity":0.504,"dissonance":0.133},{"voice":3,"pitch":40,"start":56.4545,"duration":0.2727,"velocity":127,"measure":26,"beat":4.5,"subject_pos":-1,"motif":"","motif_pos":-1,"best_pos":4,"similarity":0.493,"stretto":false,"stretto_voices":0,"combination":[],"aug_dim":"","rhythm_ratio":1.0,"mirror":false,"chromatic_density":0.385,"complexity":0.504,"dissonance":0.133},{"voice":2,"pitch":65,"start":56.7272,"duration":0.2727,"velocity":127,"measure":27,"beat":1.0,"subject_pos":-1,"motif":"","motif_pos":-1,"best_pos":7,"similarity":0.436,"stretto":false,"stretto_voices":0,"combination":[],"aug_dim":"","rhythm_ratio":1.0,"mirror":false,"chromatic_density":0.1,"complexity":0.429,"dissonance":0.256},{"voice":3,"pitch":38,"start":56.7272,"duration":0.5455,"velocity":127,"measure":27,"beat":1.0,"subject_pos":-1,"motif":"","motif_pos":-1,"best_pos":4,"similarity":0.393,"stretto":false,"stretto_voices":0,"combination":[],"aug_dim":"","rhythm_ratio":1.0,"mirror":false,"chromatic_density":0.1,"complexity":0.429,"dissonance":0.256},{"voice":2,"pitch":69,"start":56.9999,"duration":0.2727,"velocity":127,"measure":27,"beat":1.5,"subject_pos":-1,"motif":"","motif_pos":-1,"best_pos":1,"similarity":0.507,"stretto":false,"stretto_voices":0,"combination":[],"aug_dim":"","rhythm_ratio":1.0,"mirror":false,"chromatic_density":0.1,"complexity":0.429,"dissonance":0.256},{"voice":2,"pitch":67,"start":57.2727,"duration":0.2727,"velocity":127,"measure":27,"beat":2.0,"subject_pos":-1,"motif":"","motif_pos":-1,"best_pos":2,"similarity":0.521,"stretto":false,"stretto_voices":0,"combination":[],"aug_dim":"","rhythm_ratio":1.0,"mirror":false,"chromatic_density":0.1,"complexity":0.429,"dissonance":0.256},{"voice":3,"pitch":50,"start":57.2727,"duration":0.5455,"velocity":127,"measure":27,"beat":2.0,"subject_pos":-1,"motif":"","motif_pos":-1,"best_pos":5,"similarity":0.375,"stretto":false,"stretto_voices":0,"combination":[],"aug_dim":"","rhythm_ratio":1.0,"mirror":false,"chromatic_density":0.1,"complexity":0.429,"dissonance":0.256},{"voice":2,"pitch":65,"start":57.5454,"duration":0.2727,"velocity":127,"measure":27,"beat":2.5,"subject_pos":-1,"motif":"","motif_pos":-1,"best_pos":5,"similarity":0.4,"stretto":false,"stretto_voices":0,"combination":[],"aug_dim":"","rhythm_ratio":1.0,"mirror":false,"chromatic_density":0.1,"complexity":0.429,"dissonance":0.256},{"voice":0,"pitch":70,"start":57.8181,"duration":1.0909,"velocity":127,"measure":27,"beat":3.0,"subject_pos":-1,"motif":"","motif_pos":-1,"best_pos":3,"similarity":0.464,"stretto":false,"stretto_voices":0,"combination":[],"aug_dim":"","rhythm_ratio":1.0,"mirror":false,"chromatic_density":0.1,"complexity":0.429,"dissonance":0.256},{"voice":2,"pitch":67,"start":57.8181,"duration":0.2727,"velocity":127,"measure":27,"beat":3.0,"subject_pos":-1,"motif":"","motif_pos":-1,"best_pos":1,"similarity":0.386,"stretto":false,"stretto_voices":0,"combination":[],"aug_dim":"","rhythm_ratio":1.0,"mirror":false,"chromatic_density":0.1,"complexity":0.429,"dissonance":0.256},{"voice":3,"pitch":52,"start":57.8181,"duration":0.5455,"velocity":127,"measure":27,"beat":3.0,"subject_pos":-1,"motif":"","motif_pos":-1,"best_pos":6,"similarity":0.321,"stretto":false,"stretto_voices":0,"combination":[],"aug_dim":"","rhythm_ratio":1.0,"mirror":false,"chromatic_density":0.1,"complexity":0.429,"dissonance":0.256},{"voice":2,"pitch":65,"start":58.0909,"duration":0.2727,"velocity":127,"measure":27,"beat":3.5,"subject_pos":-1,"motif":"","motif_pos":-1,"best_pos":3,"similarity":0.464,"stretto":false,"stretto_voices":0,"combination":[],"aug_dim":"","rhythm_ratio":1.0,"mirror":false,"chromatic_density":0.1,"complexity":0.429,"dissonance":0.256},{"voice":2,"pitch":64,"start":58.3636,"duration":0.2727,"velocity":127,"measure":27,"beat":4.0,"subject_pos":-1,"motif":"","motif_pos":-1,"best_pos":4,"similarity":0.414,"stretto":false,"stretto_voices":0,"combination":[],"aug_dim":"","rhythm_ratio":1.0,"mirror":false,"chromatic_density":0.1,"complexity":0.429,"dissonance":0.256},{"voice":3,"pitch":48,"start":58.3636,"duration":0.5455,"velocity":127,"measure":27,"beat":4.0,"subject_pos":-1,"motif":"","motif_pos":-1,"best_pos":2,"similarity":0.336,"stretto":false,"stretto_voices":0,"combination":[],"aug_dim":"","rhythm_ratio":1.0,"mirror":false,"chromatic_density":0.1,"complexity":0.429,"dissonance":0.256},{"voice":2,"pitch":62,"start":58.6363,"duration":0.2727,"velocity":127,"measure":27,"beat":4.5,"subject_pos":-1,"motif":"","motif_pos":-1,"best_pos":2,"similarity":0.446,"stretto":false,"stretto_voices":0,"combination":[],"aug_dim":"","rhythm_ratio":1.0,"mirror":false,"chromatic_density":0.1,"complexity":0.429,"dissonance":0.256},{"voice":0,"pitch":69,"start":58.909,"duration":1.0909,"velocity":127,"measure":28,"beat":1.0,"subject_pos":-1,"motif":"","motif_pos":-1,"best_pos":4,"similarity":0.414,"stretto":false,"stretto_voices":0,"combination":[],"aug_dim":"","rhythm_ratio":1.0,"mirror":false,"chromatic_density":0.182,"complexity":0.457,"dissonance":0.212},{"voice":2,"pitch":60,"start":58.909,"duration":0.2727,"velocity":127,"measure":28,"beat":1.0,"subject_pos":-1,"motif":"","motif_pos":-1,"best_pos":2,"similarity":0.436,"stretto":false,"stretto_voices":0,"combination":[],"aug_dim":"","rhythm_ratio":1.0,"mirror":false,"chromatic_density":0.182,"complexity":0.457,"dissonance":0.212},{"voice":3,"pitch":53,"start":58.909,"duration":0.5455,"velocity":127,"measure":28,"beat":1.0,"subject_pos":-1,"motif":"","motif_pos":-1,"best_pos":1,"similarity":0.364,"stretto":false,"stretto_voices":0,"combination":[],"aug_dim":"","rhythm_ratio":1.0,"mirror":false,"chromatic_density":0.182,"complexity":0.457,"dissonance":0.212},{"voice":2,"pitch":65,"start":59.1818,"duration":0.2727,"velocity":127,"measure":28,"beat":1.5,"subject_pos":-1,"motif":"","motif_pos":-1,"best_pos":3,"similarity":0.514,"stretto":false,"stretto_voices":0,"combination":[],"aug_dim":"","rhythm_ratio":1.0,"mirror":false,"chromatic_density":0.182,"complexity":0.457,"dissonance":0.212},{"voice":2,"pitch":64,"start":59.4545,"duration":0.2727,"velocity":127,"measure":28,"beat":2.0,"subject_pos":-1,"motif":"","motif_pos":-1,"best_pos":4,"similarity":0.536,"stretto":false,"stretto_voices":0,"combination":[],"aug_dim":"","rhythm_ratio":1.0,"mirror":false,"chromatic_density":0.182,"complexity":0.457,"dissonance":0.212},{"voice":3,"pitch":47,"start":59.4545,"duration":0.5455,"velocity":127,"measure":28,"beat":2.0,"subject_pos":-1,"motif":"","motif_pos":-1,"best_pos":5,"similarity":0.321,"stretto":false,"stretto_voices":0,"combination":[],"aug_dim":"","rhythm_ratio":1.0,"mirror":false,"chromatic_density":0.182,"complexity":0.457,"dissonance":0.212},{"voice":2,"pitch":62,"start":59.7272,"duration":0.2727,"velocity":127,"measure":28,"beat":2.5,"subject_pos":-1,"motif":"","motif_pos":-1,"best_pos":5,"similarity":0.471,"stretto":false,"stretto_voices":0,"combination":[],"aug_dim":"","rhythm_ratio":1.0,"mirror":false,"chromatic_density":0.182,"complexity":0.457,"dissonance":0.212},{"voice":0,"pitch":67,"start":59.9999,"duration":1.0909,"velocity":127,"measure":28,"beat":3.0,"subject_pos":-1,"motif":"","motif_pos":-1,"best_pos":2,"similarity":0.436,"stretto":false,"stretto_voices":0,"combination":[],"aug_dim":"","rhythm_ratio":1.0,"mirror":false,"chromatic_density":0.182,"complexity":0.457,"dissonance":0.212},{"voice":2,"pitch":64,"start":59.9999,"duration":0.2727,"velocity":127,"measure":28,"beat":3.0,"subject_pos":-1,"motif":"","motif_pos":-1,"best_pos":6,"similarity":0.4,"stretto":false,"stretto_voices":0,"combination":[],"aug_dim":"","rhythm_ratio":1.0,"mirror":false,"chromatic_density":0.182,"complexity":0.457,"dissonance":0.212},{"voice":3,"pitch":49,"start":59.9999,"duration":0.5455,"velocity":127,"measure":28,"beat":3.0,"subject_pos":-1,"motif":"","motif_pos":-1,"best_pos":1,"similarity":0.35,"stretto":false,"stretto_voices":0,"combination":[],"aug_dim":"","rhythm_ratio":1.0,"mirror":false,"chromatic_density":0.182,"complexity":0.457,"dissonance":0.212},{"voice":2,"pitch":62,"start":60.2727,"duration":0.2727,"velocity":127,"measure":28,"beat":3.5,"subject_pos":-1,"motif":"","motif_pos":-1,"best_pos":3,"similarity":0.464,"stretto":false,"stretto_voices":0,"combination":[],"aug_dim":"","rhythm_ratio":1.0,"mirror":false,"chromatic_density":0.182,"complexity":0.457,"dissonance":0.212},{"voice":2,"pitch":61,"start":60.5454,"duration":0.2727,"velocity":127,"measure":28,"beat":4.0,"subject_pos":-1,"motif":"","motif_pos":-1,"best_pos":4,"similarity":0.479,"stretto":false,"stretto_voices":0,"combination":[],"aug_dim":"","rhythm_ratio":1.0,"mirror":false,"chromatic_density":0.182,"complexity":0.457,"dissonance":0.212},{"voice":3,"pitch":45,"start":60.5454,"duration":0.5455,"velocity":127,"measure":28,"beat":4.0,"subject_pos":-1,"motif":"","motif_pos":-1,"best_pos":2,"similarity":0.407,"stretto":false,"stretto_voices":0,"combination":[],"aug_dim":"","rhythm_ratio":1.0,"mirror":false,"chromatic_density":0.182,"complexity":0.457,"dissonance":0.212},{"voice":2,"pitch":59,"start":60.8181,"duration":0.2727,"velocity":127,"measure":28,"beat":4.5,"subject_pos":-1,"motif":"","motif_pos":-1,"best_pos":3,"similarity":0.507,"stretto":false,"stretto_voices":0,"combination":[],"aug_dim":"","rhythm_ratio":1.0,"mirror":false,"chromatic_density":0.182,"complexity":0.457,"dissonance":0.212},{"voice":0,"pitch":65,"start":61.0908,"duration":0.2727,"velocity":127,"measure":29,"beat":1.0,"subject_pos":-1,"motif":"","motif_pos":-1,"best_pos":2,"similarity":0.364,"stretto":false,"stretto_voices":0,"combination":[],"aug_dim":"","rhythm_ratio":1.0,"mirror":false,"chromatic_density":0.4,"complexity":0.461,"dissonance":0.13},{"voice":2,"pitch":57,"start":61.0908,"duration":0.5455,"velocity":127,"measure":29,"beat":1.0,"subject_pos":-1,"motif":"","motif_pos":-1,"best_pos":4,"similarity":0.621,"stretto":false,"stretto_voices":0,"combination":[],"aug_dim":"","rhythm_ratio":1.0,"mirror":false,"chromatic_density":0.4,"complexity":0.461,"dissonance":0.13},{"voice":3,"pitch":50,"start":61.0908,"duration":1.0909,"velocity":127,"measure":29,"beat":1.0,"subject_pos":-1,"motif":"","motif_pos":-1,"best_pos":1,"similarity":0.364,"stretto":false,"stretto_voices":0,"combination":[],"aug_dim":"","rhythm_ratio":1.0,"mirror":false,"chromatic_density":0.4,"complexity":0.461,"dissonance":0.13},{"voice":0,"pitch":69,"start":61.3636,"duration":0.2727,"velocity":127,"measure":29,"beat":1.5,"subject_pos":-1,"motif":"","motif_pos":-1,"best_pos":1,"similarity":0.507,"stretto":false,"stretto_voices":0,"combination":[],"aug_dim":"","rhythm_ratio":1.0,"mirror":false,"chromatic_density":0.4,"complexity":0.461,"dissonance":0.13},{"voice":0,"pitch":67,"start":61.6363,"duration":0.2727,"velocity":127,"measure":29,"beat":2.0,"subject_pos":-1,"motif":"","motif_pos":-1,"best_pos":2,"similarity":0.521,"stretto":false,"stretto_voices":0,"combination":[],"aug_dim":"","rhythm_ratio":1.0,"mirror":false,"chromatic_density":0.4,"complexity":0.461,"dissonance":0.13},{"voice":2,"pitch":58,"start":61.6363,"duration":0.2727,"velocity":127,"measure":29,"beat":2.0,"subject_pos":-1,"motif":"","motif_pos":-1,"best_pos":3,"similarity":0.671,"stretto":false,"stretto_voices":0,"combination":[],"aug_dim":"","rhythm_ratio":1.0,"mirror":false,"chromatic_density":0.4,"complexity":0.461,"dissonance":0.13},{"voice":0,"pitch":65,"start":61.909,"duration":0.2727,"velocity":127,"measure":29,"beat":2.5,"subject_pos":-1,"motif":"","motif_pos":-1,"best_pos":5,"similarity":0.4,"stretto":false,"stretto_voices":0,"combination":[],"aug_dim":"","rhythm_ratio":1.0,"mirror":false,"chromatic_density":0.4,"complexity":0.461,"dissonance":0.13},{"voice":2,"pitch":57,"start":61.909,"duration":0.2727,"velocity":127,"measure":29,"beat":2.5,"subject_pos":-1,"motif":"","motif_pos":-1,"best_pos":4,"similarity":0.807,"stretto":false,"stretto_voices":0,"combination":[],"aug_dim":"","rhythm_ratio":1.0,"mirror":false,"chromatic_density":0.4,"complexity":0.461,"dissonance":0.13},{"voice":0,"pitch":67,"start":62.1818,"duration":0.2727,"velocity":127,"measure":29,"beat":3.0,"subject_pos":-1,"motif":"","motif_pos":-1,"best_pos":1,"similarity":0.386,"stretto":false,"stretto_voices":0,"combination":[],"aug_dim":"","rhythm_ratio":1.0,"mirror":false,"chromatic_density":0.4,"complexity":0.461,"dissonance":0.13},{"voice":2,"pitch":58,"start":62.1818,"duration":1.6364,"velocity":127,"measure":29,"beat":3.0,"subject_pos":-1,"motif":"","motif_pos":-1,"best_pos":5,"similarity":0.736,"stretto":false,"stretto_voices":0,"combination":[],"aug_dim":"","rhythm_ratio":1.0,"mirror":false,"chromatic_density":0.4,"complexity":0.461,"dissonance":0.13},{"voice":0,"pitch":65,"start":62.4545,"duration":0.2727,"velocity":127,"measure":29,"beat":3.5,"subject_pos":-1,"motif":"","motif_pos":-1,"best_pos":3,"similarity":0.464,"stretto":false,"stretto_voices":0,"combination":[],"aug_dim":"","rhythm_ratio":1.0,"mirror":false,"chromatic_density":0.4,"complexity":0.461,"dissonance":0.13},{"voice":0,"pitch":64,"start":62.7272,"duration":0.2727,"velocity":127,"measure":29,"beat":4.0,"subject_pos":-1,"motif":"","motif_pos":-1,"best_pos":4,"similarity":0.425,"stretto":false,"stretto_voices":0,"combination":[],"aug_dim":"","rhythm_ratio":1.0,"mirror":false,"chromatic_density":0.4,"complexity":0.461,"dissonance":0.13},{"voice":3,"pitch":50,"start":62.7272,"duration":0.5455,"velocity":127,"measure":29,"beat":4.0,"subject_pos":-1,"motif":"","motif_pos":-1,"best_pos":5,"similarity":0.464,"stretto":false,"stretto_voices":0,"combination":[],"aug_dim":"","rhythm_ratio":1.0,"mirror":false,"chromatic_density":0.4,"complexity":0.461,"dissonance":0.13},{"voice":0,"pitch":62,"start":62.9999,"duration":0.2727,"velocity":127,"measure":29,"beat":4.5,"subject_pos":-1,"motif":"","motif_pos":-1,"best_pos":4,"similarity":0.368,"stretto":false,"stretto_voices":0,"combination":[],"aug_dim":"","rhythm_ratio":1.0,"mirror":false,"chromatic_density":0.4,"complexity":0.461,"dissonance":0.13},{"voice":0,"pitch":67,"start":63.2727,"duration":0.2727,"velocity":127,"measure":30,"beat":1.0,"subject_pos":-1,"motif":"","motif_pos":-1,"best_pos":1,"similarity":0.357,"stretto":false,"stretto_voices":0,"combination":[],"aug_dim":"","rhythm_ratio":1.0,"mirror":false,"chromatic_density":0.2,"complexity":0.493,"dissonance":0.1},{"voice":3,"pitch":52,"start":63.2727,"duration":1.0909,"velocity":127,"measure":30,"beat":1.0,"subject_pos":-1,"motif":"","motif_pos":-1,"best_pos":6,"similarity":0.357,"stretto":false,"stretto_voices":0,"combination":[],"aug_dim":"","rhythm_ratio":1.0,"mirror":false,"chromatic_density":0.2,"complexity":0.493,"dissonance":0.1},{"voice":0,"pitch":70,"start":63.5454,"duration":0.2727,"velocity":127,"measure":30,"beat":1.5,"subject_pos":-1,"motif":"","motif_pos":-1,"best_pos":3,"similarity":0.371,"stretto":false,"stretto_voices":0,"combination":[],"aug_dim":"","rhythm_ratio":1.0,"mirror":false,"chromatic_density":0.2,"complexity":0.493,"dissonance":0.1},{"voice":0,"pitch":69,"start":63.8181,"duration":0.2727,"velocity":127,"measure":30,"beat":2.0,"subject_pos":-1,"motif":"","motif_pos":-1,"best_pos":4,"similarity":0.464,"stretto":false,"stretto_voices":0,"combination":[],"aug_dim":"","rhythm_ratio":1.0,"mirror":false,"chromatic_density":0.2,"complexity":0.493,"dissonance":0.1},{"voice":2,"pitch":60,"start":63.8181,"duration":0.2727,"velocity":127,"measure":30,"beat":2.0,"subject_pos":-1,"motif":"","motif_pos":-1,"best_pos":6,"similarity":0.529,"stretto":false,"stretto_voices":0,"combination":[],"aug_dim":"","rhythm_ratio":1.0,"mirror":false,"chromatic_density":0.2,"complexity":0.493,"dissonance":0.1},{"voice":0,"pitch":67,"start":64.0908,"duration":0.2727,"velocity":127,"measure":30,"beat":2.5,"subject_pos":-1,"motif":"","motif_pos":-1,"best_pos":5,"similarity":0.471,"stretto":false,"stretto_voices":0,"combination":[],"aug_dim":"","rhythm_ratio":1.0,"mirror":false,"chromatic_density":0.2,"complexity":0.493,"dissonance":0.1},{"voice":2,"pitch":58,"start":64.0908,"duration":0.2727,"velocity":127,"measure":30,"beat":2.5,"subject_pos":-1,"motif":"","motif_pos":-1,"best_pos":5,"similarity":0.336,"stretto":false,"stretto_voices":0,"combination":[],"aug_dim":"","rhythm_ratio":1.0,"mirror":false,"chromatic_density":0.2,"complexity":0.493,"dissonance":0.1},{"voice":0,"pitch":69,"start":64.3636,"duration":0.2727,"velocity":127,"measure":30,"beat":3.0,"subject_pos":-1,"motif":"","motif_pos":-1,"best_pos":1,"similarity":0.457,"stretto":false,"stretto_voices":0,"combination":[],"aug_dim":"","rhythm_ratio":1.0,"mirror":false,"chromatic_density":0.2,"complexity":0.493,"dissonance":0.1},{"voice":2,"pitch":60,"start":64.3636,"duration":1.6364,"velocity":127,"measure":30,"beat":3.0,"subject_pos":-1,"motif":"","motif_pos":-1,"best_pos":6,"similarity":0.307,"stretto":false,"stretto_voices":0,"combination":[],"aug_dim":"","rhythm_ratio":1.0,"mirror":false,"chromatic_density":0.2,"complexity":0.493,"dissonance":0.1},{"voice":0,"pitch":67,"start":64.6363,"duration":0.2727,"velocity":127,"measure":30,"beat":3.5,"subject_pos":-1,"motif":"","motif_pos":-1,"best_pos":2,"similarity":0.593,"stretto":false,"stretto_voices":0,"combination":[],"aug_dim":"","rhythm_ratio":1.0,"mirror":false,"chromatic_density":0.2,"complexity":0.493,"dissonance":0.1},{"voice":0,"pitch":65,"start":64.909,"duration":0.2727,"velocity":127,"measure":30,"beat":4.0,"subject_pos":-1,"motif":"enigmatic_cell","motif_pos":0,"best_pos":0,"similarity":1.0,"stretto":false,"stretto_voices":0,"combination":[],"aug_dim":"","rhythm_ratio":1.0,"mirror":false,"chromatic_density":0.2,"complexity":0.493,"dissonance":0.1},{"voice":3,"pitch":48,"start":64.909,"duration":0.5455,"velocity":127,"measure":30,"beat":4.0,"subject_pos":-1,"motif":"","motif_pos":-1,"best_pos":0,"similarity":0.321,"stretto":false,"stretto_voices":0,"combination":[],"aug_dim":"","rhythm_ratio":1.0,"mirror":false,"chromatic_density":0.2,"complexity":0.493,"dissonance":0.1},{"voice":0,"pitch":64,"start":65.1818,"duration":0.2727,"velocity":127,"measure":30,"beat":4.5,"subject_pos":-1,"motif":"enigmatic_cell","motif_pos":1,"best_pos":1,"similarity":1.0,"stretto":false,"stretto_voices":0,"combination":[],"aug_dim":"","rhythm_ratio":1.0,"mirror":false,"chromatic_density":0.2,"complexity":0.493,"dissonance":0.1},{"voice":0,"pitch":69,"start":65.4545,"duration":0.5455,"velocity":127,"measure":31,"beat":1.0,"subject_pos":-1,"motif":"enigmatic_cell","motif_pos":2,"best_pos":2,"similarity":1.0,"stretto":false,"stretto_voices":0,"combination":[],"aug_dim":"","rhythm_ratio":1.0,"mirror":false,"chromatic_density":0.111,"complexity":0.465,"dissonance":0.167},{"voice":3,"pitch":53,"start":65.4545,"duration":0.2727,"velocity":127,"measure":31,"beat":1.0,"subject_pos":-1,"motif":"","motif_pos":-1,"best_pos":1,"similarity":0.393,"stretto":false,"stretto_voices":0,"combination":[],"aug_dim":"","rhythm_ratio":1.0,"mirror":false,"chromatic_density":0.111,"complexity":0.465,"dissonance":0.167},{"voice":3,"pitch":57,"start":65.7272,"duration":0.2727,"velocity":127,"measure":31,"beat":1.5,"subject_pos":-1,"motif":"","motif_pos":-1,"best_pos":1,"similarity":0.507,"stretto":false,"stretto_voices":0,"combination":[],"aug_dim":"","rhythm_ratio":1.0,"mirror":false,"chromatic_density":0.111,"complexity":0.465,"dissonance":0.167},{"voice":0,"pitch":72,"start":65.9999,"duration":0.5455,"velocity":127,"measure":31,"beat":2.0,"subject_pos":-1,"motif":"","motif_pos":-1,"best_pos":0,"similarity":0.393,"stretto":false,"stretto_voices":0,"combination":[],"aug_dim":"","rhythm_ratio":1.0,"mirror":false,"chromatic_density":0.111,"complexity":0.465,"dissonance":0.167},{"voice":3,"pitch":55,"start":65.9999,"duration":0.2727,"velocity":127,"measure":31,"beat":2.0,"subject_pos":-1,"motif":"","motif_pos":-1,"best_pos":2,"similarity":0.521,"stretto":false,"stretto_voices":0,"combination":[],"aug_dim":"","rhythm_ratio":1.0,"mirror":false,"chromatic_density":0.111,"complexity":0.465,"dissonance":0.167},{"voice":3,"pitch":53,"start":66.2727,"duration":0.2727,"velocity":127,"measure":31,"beat":2.5,"subject_pos":-1,"motif":"","motif_pos":-1,"best_pos":5,"similarity":0.4,"stretto":false,"stretto_voices":0,"combination":[],"aug_dim":"","rhythm_ratio":1.0,"mirror":false,"chromatic_density":0.111,"complexity":0.465,"dissonance":0.167},{"voice":0,"pitch":77,"start":66.5454,"duration":2.1818,"velocity":127,"measure":31,"beat":3.0,"subject_pos":-1,"motif":"","motif_pos":-1,"best_pos":1,"similarity":0.571,"stretto":false,"stretto_voices":0,"combination":[],"aug_dim":"","rhythm_ratio":1.0,"mirror":false,"chromatic_density":0.111,"complexity":0.465,"dissonance":0.167},{"voice":3,"pitch":55,"start":66.5454,"duration":0.2727,"velocity":127,"measure":31,"beat":3.0,"subject_pos":-1,"motif":"","motif_pos":-1,"best_pos":1,"similarity":0.386,"stretto":false,"stretto_voices":0,"combination":[],"aug_dim":"","rhythm_ratio":1.0,"mirror":false,"chromatic_density":0.111,"complexity":0.465,"dissonance":0.167},{"voice":3,"pitch":53,"start":66.8181,"duration":0.2727,"velocity":127,"measure":31,"beat":3.5,"subject_pos":-1,"motif":"","motif_pos":-1,"best_pos":3,"similarity":0.464,"stretto":false,"stretto_voices":0,"combination":[],"aug_dim":"","rhythm_ratio":1.0,"mirror":false,"chromatic_density":0.111,"complexity":0.465,"dissonance":0.167},{"voice":1,"pitch":69,"start":67.0908,"duration":0.5455,"velocity":127,"measure":31,"beat":4.0,"subject_pos":-1,"motif":"","motif_pos":-1,"best_pos":6,"similarity":0.507,"stretto":false,"stretto_voices":0,"combination":[],"aug_dim":"","rhythm_ratio":1.0,"mirror":false,"chromatic_density":0.111,"complexity":0.465,"dissonance":0.167},{"voice":3,"pitch":52,"start":67.0908,"duration":0.2727,"velocity":127,"measure":31,"beat":4.0,"subject_pos":-1,"motif":"","motif_pos":-1,"best_pos":4,"similarity":0.425,"stretto":false,"stretto_voices":0,"combination":[],"aug_dim":"","rhythm_ratio":1.0,"mirror":false,"chromatic_density":0.111,"complexity":0.465,"dissonance":0.167},{"voice":3,"pitch":50,"start":67.3636,"duration":0.2727,"velocity":127,"measure":31,"beat":4.5,"subject_pos":-1,"motif":"","motif_pos":-1,"best_pos":4,"similarity":0.368,"stretto":false,"stretto_voices":0,"combination":[],"aug_dim":"","rhythm_ratio":1.0,"mirror":false,"chromatic_density":0.111,"complexity":0.465,"dissonance":0.167},{"voice":1,"pitch":70,"start":67.6363,"duration":0.2727,"velocity":127,"measure":32,"beat":1.0,"subject_pos":-1,"motif":"","motif_pos":-1,"best_pos":7,"similarity":0.393,"stretto":false,"stretto_voices":0,"combination":[],"aug_dim":"","rhythm_ratio":1.0,"mirror":false,"chromatic_density":0.214,"complexity":0.459,"dissonance":0.113},{"voice":3,"pitch":55,"start":67.6363,"duration":0.2727,"velocity":127,"measure":32,"beat":1.0,"subject_pos":-1,"motif":"","motif_pos":-1,"best_pos":1,"similarity":0.357,"stretto":false,"stretto_voices":0,"combination":[],"aug_dim":"","rhythm_ratio":1.0,"mirror":false,"chromatic_density":0.214,"complexity":0.459,"dissonance":0.113},{"voice":1,"pitch":74,"start":67.909,"duration":0.2727,"velocity":127,"measure":32,"beat":1.5,"subject_pos":-1,"motif":"","motif_pos":-1,"best_pos":1,"similarity":0.507,"stretto":false,"stretto_voices":0,"combination":[],"aug_dim":"","rhythm_ratio":1.0,"mirror":false,"chromatic_density":0.214,"complexity":0.459,"dissonance":0.113},{"voice":3,"pitch":58,"start":67.909,"duration":0.2727,"velocity":127,"measure":32,"beat":1.5,"subject_pos":-1,"motif":"","motif_pos":-1,"best_pos":3,"similarity":0.371,"stretto":false,"stretto_voices":0,"combination":[],"aug_dim":"","rhythm_ratio":1.0,"mirror":false,"chromatic_density":0.214,"complexity":0.459,"dissonance":0.113},{"voice":1,"pitch":72,"start":68.1817,"duration":0.2727,"velocity":127,"measure":32,"beat":2.0,"subject_pos":-1,"motif":"","motif_pos":-1,"best_pos":2,"similarity":0.521,"stretto":false,"stretto_voices":0,"combination":[],"aug_dim":"","rhythm_ratio":1.0,"mirror":false,"chromatic_density":0.214,"complexity":0.459,"dissonance":0.113},{"voice":3,"pitch":57,"start":68.1817,"duration":0.2727,"velocity":127,"measure":32,"beat":2.0,"subject_pos":-1,"motif":"","motif_pos":-1,"best_pos":4,"similarity":0.464,"stretto":false,"stretto_voices":0,"combination":[],"aug_dim":"","rhythm_ratio":1.0,"mirror":false,"chromatic_density":0.214,"complexity":0.459,"dissonance":0.113},{"voice":1,"pitch":70,"start":68.4545,"duration":0.2727,"velocity":127,"measure":32,"beat":2.5,"subject_pos":-1,"motif":"","motif_pos":-1,"best_pos":5,"similarity":0.4,"stretto":false,"stretto_voices":0,"combination":[],"aug_dim":"","rhythm_ratio":1.0,"mirror":false,"chromatic_density":0.214,"complexity":0.459,"dissonance":0.113},{"voice":3,"pitch":55,"start":68.4545,"duration":0.2727,"velocity":127,"measure":32,"beat":2.5,"subject_pos":-1,"motif":"","motif_pos":-1,"best_pos":5,"similarity":0.471,"stretto":false,"stretto_voices":0,"combination":[],"aug_dim":"","rhythm_ratio":1.0,"mirror":false,"chromatic_density":0.214,"complexity":0.459,"dissonance":0.113},{"voice":0,"pitch":76,"start":68.7272,"duration":2.1818,"velocity":127,"measure":32,"beat":3.0,"subject_pos":-1,"motif":"","motif_pos":-1,"best_pos":2,"similarity":0.643,"stretto":false,"stretto_voices":0,"combination":[],"aug_dim":"","rhythm_ratio":1.0,"mirror":false,"chromatic_density":0.214,"complexity":0.459,"dissonance":0.113},{"voice":1,"pitch":72,"start":68.7272,"duration":0.2727,"velocity":127,"measure":32,"beat":3.0,"subject_pos":-1,"motif":"","motif_pos":-1,"best_pos":1,"similarity":0.386,"stretto":false,"stretto_voices":0,"combination":[],"aug_dim":"","rhythm_ratio":1.0,"mirror":false,"chromatic_density":0.214,"complexity":0.459,"dissonance":0.113},{"voice":3,"pitch":57,"start":68.7272,"duration":0.2727,"velocity":127,"measure":32,"beat":3.0,"subject_pos":-1,"motif":"","motif_pos":-1,"best_pos":1,"similarity":0.457,"stretto":false,"stretto_voices":0,"combination":[],"aug_dim":"","rhythm_ratio":1.0,"mirror":false,"chromatic_density":0.214,"complexity":0.459,"dissonance":0.113},{"voice":1,"pitch":70,"start":68.9999,"duration":0.2727,"velocity":127,"measure":32,"beat":3.5,"subject_pos":-1,"motif":"","motif_pos":-1,"best_pos":3,"similarity":0.464,"stretto":false,"stretto_voices":0,"combination":[],"aug_dim":"","rhythm_ratio":1.0,"mirror":false,"chromatic_density":0.214,"complexity":0.459,"dissonance":0.113},{"voice":3,"pitch":55,"start":68.9999,"duration":0.2727,"velocity":127,"measure":32,"beat":3.5,"subject_pos":-1,"motif":"","motif_pos":-1,"best_pos":2,"similarity":0.593,"stretto":false,"stretto_voices":0,"combination":[],"aug_dim":"","rhythm_ratio":1.0,"mirror":false,"chromatic_density":0.214,"complexity":0.459,"dissonance":0.113},{"voice":1,"pitch":69,"start":69.2727,"duration":0.2727,"velocity":127,"measure":32,"beat":4.0,"subject_pos":-1,"motif":"","motif_pos":-1,"best_pos":4,"similarity":0.414,"stretto":false,"stretto_voices":0,"combination":[],"aug_dim":"","rhythm_ratio":1.0,"mirror":false,"chromatic_density":0.214,"complexity":0.459,"dissonance":0.113},{"voice":3,"pitch":53,"start":69.2727,"duration":0.2727,"velocity":127,"measure":32,"beat":4.0,"subject_pos":-1,"motif":"enigmatic_cell","motif_pos":0,"best_pos":0,"similarity":1.0,"stretto":false,"stretto_voices":0,"combination":[],"aug_dim":"","rhythm_ratio":1.0,"mirror":false,"chromatic_density":0.214,"complexity":0.459,"dissonance":0.113},{"voice":1,"pitch":67,"start":69.5454,"duration":0.2727,"velocity":127,"measure":32,"beat":4.5,"subject_pos":-1,"motif":"","motif_pos":-1,"best_pos":2,"similarity":0.436,"stretto":false,"stretto_voices":0,"combination":[],"aug_dim":"","rhythm_ratio":1.0,"mirror":false,"chromatic_density":0.214,"complexity":0.459,"dissonance":0.113},{"voice":3,"pitch":52,"start":69.5454,"duration":0.2727,"velocity":127,"measure":32,"beat":4.5,"subject_pos":-1,"motif":"enigmatic_cell","motif_pos":1,"best_pos":1,"similarity":1.0,"stretto":false,"stretto_voices":0,"combination":[],"aug_dim":"","rhythm_ratio":1.0,"mirror":false,"chromatic_density":0.214,"complexity":0.459,"dissonance":0.113},{"voice":1,"pitch":65,"start":69.8181,"duration":0.2727,"velocity":127,"measure":33,"beat":1.0,"subject_pos":-1,"motif":"","motif_pos":-1,"best_pos":2,"similarity":0.364,"stretto":false,"stretto_voices":0,"combination":[],"aug_dim":"","rhythm_ratio":1.0,"mirror":false,"chromatic_density":0.25,"complexity":0.443,"dissonance":0.15},{"voice":3,"pitch":57,"start":69.8181,"duration":1.0909,"velocity":127,"measure":33,"beat":1.0,"subject_pos":-1,"motif":"enigmatic_cell","motif_pos":2,"best_pos":2,"similarity":1.0,"stretto":false,"stretto_voices":0,"combination":[],"aug_dim":"","rhythm_ratio":1.0,"mirror":false,"chromatic_density":0.25,"complexity":0.443,"dissonance":0.15},{"voice":1,"pitch":69,"start":70.0908,"duration":0.2727,"velocity":127,"measure":33,"beat":1.5,"subject_pos":-1,"motif":"","motif_pos":-1,"best_pos":1,"similarity":0.507,"stretto":false,"stretto_voices":0,"combination":[],"aug_dim":"","rhythm_ratio":1.0,"mirror":false,"chromatic_density":0.25,"complexity":0.443,"dissonance":0.15},{"voice":1,"pitch":67,"start":70.3636,"duration":0.2727,"velocity":127,"measure":33,"beat":2.0,"subject_pos":-1,"motif":"","motif_pos":-1,"best_pos":2,"similarity":0.521,"stretto":false,"stretto_voices":0,"combination":[],"aug_dim":"","rhythm_ratio":1.0,"mirror":false,"chromatic_density":0.25,"complexity":0.443,"dissonance":0.15},{"voice":1,"pitch":65,"start":70.6363,"duration":0.2727,"velocity":127,"measure":33,"beat":2.5,"subject_pos":-1,"motif":"","motif_pos":-1,"best_pos":5,"similarity":0.4,"stretto":false,"stretto_voices":0,"combination":[],"aug_dim":"","rhythm_ratio":1.0,"mirror":false,"chromatic_density":0.25,"complexity":0.443,"dissonance":0.15},{"voice":0,"pitch":74,"start":70.909,"duration":2.1818,"velocity":127,"measure":33,"beat":3.0,"subject_pos":-1,"motif":"","motif_pos":-1,"best_pos":3,"similarity":0.714,"stretto":false,"stretto_voices":0,"combination":[],"aug_dim":"","rhythm_ratio":1.0,"mirror":false,"chromatic_density":0.25,"complexity":0.443,"dissonance":0.15},{"voice":1,"pitch":67,"start":70.909,"duration":0.2727,"velocity":127,"measure":33,"beat":3.0,"subject_pos":-1,"motif":"","motif_pos":-1,"best_pos":1,"similarity":0.386,"stretto":false,"stretto_voices":0,"combination":[],"aug_dim":"","rhythm_ratio":1.0,"mirror":false,"chromatic_density":0.25,"complexity":0.443,"dissonance":0.15},{"voice":1,"pitch":65,"start":71.1817,"duration":0.2727,"velocity":127,"measure":33,"beat":3.5,"subject_pos":-1,"motif":"","motif_pos":-1,"best_pos":3,"similarity":0.529,"stretto":false,"stretto_voices":0,"combination":[],"aug_dim":"","rhythm_ratio":1.0,"mirror":false,"chromatic_density":0.25,"complexity":0.443,"dissonance":0.15},{"voice":1,"pitch":64,"start":71.4545,"duration":0.2727,"velocity":127,"measure":33,"beat":4.0,"subject_pos":-1,"motif":"","motif_pos":-1,"best_pos":4,"similarity":0.536,"stretto":false,"stretto_voices":0,"combination":[],"aug_dim":"","rhythm_ratio":1.0,"mirror":false,"chromatic_density":0.25,"complexity":0.443,"dissonance":0.15},{"voice":3,"pitch":58,"start":71.4545,"duration":0.5455,"velocity":127,"measure":33,"beat":4.0,"subject_pos":-1,"motif":"","motif_pos":-1,"best_pos":2,"similarity":0.5,"stretto":false,"stretto_voices":0,"combination":[],"aug_dim":"","rhythm_ratio":1.0,"mirror":false,"chromatic_density":0.25,"complexity":0.443,"dissonance":0.15},{"voice":1,"pitch":62,"start":71.7272,"duration":0.2727,"velocity":127,"measure":33,"beat":4.5,"subject_pos":-1,"motif":"","motif_pos":-1,"best_pos":5,"similarity":0.493,"stretto":false,"stretto_voices":0,"combination":[],"aug_dim":"","rhythm_ratio":1.0,"mirror":false,"chromatic_density":0.25,"complexity":0.443,"dissonance":0.15},{"voice":1,"pitch":64,"start":71.9999,"duration":0.2727,"velocity":127,"measure":34,"beat":1.0,"subject_pos":-1,"motif":"","motif_pos":-1,"best_pos":6,"similarity":0.371,"stretto":false,"stretto_voices":0,"combination":[],"aug_dim":"","rhythm_ratio":1.0,"mirror":false,"chromatic_density":0.2,"complexity":0.472,"dissonance":0.081},{"voice":3,"pitch":55,"start":71.9999,"duration":0.5455,"velocity":127,"measure":34,"beat":1.0,"subject_pos":-1,"motif":"","motif_pos":-1,"best_pos":3,"similarity":0.457,"stretto":false,"stretto_voices":0,"combination":[],"aug_dim":"","rhythm_ratio":1.0,"mirror":false,"chromatic_density":0.2,"complexity":0.472,"dissonance":0.081},{"voice":1,"pitch":70,"start":72.2727,"duration":0.2727,"velocity":127,"measure":34,"beat":1.5,"subject_pos":-1,"motif":"","motif_pos":-1,"best_pos":3,"similarity":0.386,"stretto":false,"stretto_voices":0,"combination":[],"aug_dim":"","rhythm_ratio":1.0,"mirror":false,"chromatic_density":0.2,"complexity":0.472,"dissonance":0.081},{"voice":1,"pitch":69,"start":72.5454,"duration":0.2727,"velocity":127,"measure":34,"beat":2.0,"subject_pos":-1,"motif":"","motif_pos":-1,"best_pos":4,"similarity":0.471,"stretto":false,"stretto_voices":0,"combination":[],"aug_dim":"","rhythm_ratio":1.0,"mirror":false,"chromatic_density":0.2,"complexity":0.472,"dissonance":0.081},{"voice":3,"pitch":52,"start":72.5454,"duration":0.5455,"velocity":127,"measure":34,"beat":2.0,"subject_pos":-1,"motif":"","motif_pos":-1,"best_pos":3,"similarity":0.4,"stretto":false,"stretto_voices":0,"combination":[],"aug_dim":"","rhythm_ratio":1.0,"mirror":false,"chromatic_density":0.2,"complexity":0.472,"dissonance":0.081},{"voice":1,"pitch":67,"start":72.8181,"duration":0.2727,"velocity":127,"measure":34,"beat":2.5,"subject_pos":-1,"motif":"","motif_pos":-1,"best_pos":5,"similarity":0.471,"stretto":false,"stretto_voices":0,"combination":[],"aug_dim":"","rhythm_ratio":1.0,"mirror":false,"chromatic_density":0.2,"complexity":0.472,"dissonance":0.081},{"voice":0,"pitch":73,"start":73.0908,"duration":1.0909,"velocity":127,"measure":34,"beat":3.0,"subject_pos":-1,"motif":"","motif_pos":-1,"best_pos":4,"similarity":0.679,"stretto":false,"stretto_voices":0,"combination":[],"aug_dim":"","rhythm_ratio":1.0,"mirror":false,"chromatic_density":0.2,"complexity":0.472,"dissonance":0.081},{"voice":1,"pitch":69,"start":73.0908,"duration":0.2727,"velocity":127,"measure":34,"beat":3.0,"subject_pos":-1,"motif":"","motif_pos":-1,"best_pos":1,"similarity":0.457,"stretto":false,"stretto_voices":0,"combination":[],"aug_dim":"","rhythm_ratio":1.0,"mirror":false,"chromatic_density":0.2,"complexity":0.472,"dissonance":0.081},{"voice":3,"pitch":57,"start":73.0908,"duration":0.5455,"velocity":127,"measure":34,"beat":3.0,"subject_pos":-1,"motif":"","motif_pos":-1,"best_pos":1,"similarity":0.3,"stretto":false,"stretto_voices":0,"combination":[],"aug_dim":"","rhythm_ratio":1.0,"mirror":false,"chromatic_density":0.2,"complexity":0.472,"dissonance":0.081},{"voice":1,"pitch":67,"start":73.3636,"duration":0.2727,"velocity":127,"measure":34,"beat":3.5,"subject_pos":-1,"motif":"","motif_pos":-1,"best_pos":2,"similarity":0.593,"stretto":false,"stretto_voices":0,"combination":[],"aug_dim":"","rhythm_ratio":1.0,"mirror":false,"chromatic_density":0.2,"complexity":0.472,"dissonance":0.081},{"voice":1,"pitch":65,"start":73.6363,"duration":0.2727,"velocity":127,"measure":34,"beat":4.0,"subject_pos":-1,"motif":"","motif_pos":-1,"best_pos":3,"similarity":0.593,"stretto":false,"stretto_voices":0,"combination":[],"aug_dim":"","rhythm_ratio":1.0,"mirror":false,"chromatic_density":0.2,"complexity":0.472,"dissonance":0.081},{"voice":3,"pitch":45,"start":73.6363,"duration":0.5455,"velocity":127,"measure":34,"beat":4.0,"subject_pos":-1,"motif":"","motif_pos":-1,"best_pos":4,"similarity":0.329,"stretto":false,"stretto_voices":0,"combination":[],"aug_dim":"","rhythm_ratio":1.0,"mirror":false,"chromatic_density":0.2,"complexity":0.472,"dissonance":0.081},{"voice":1,"pitch":64,"start":73.909,"duration":0.2727,"velocity":127,"measure":34,"beat":4.5,"subject_pos":-1,"motif":"","motif_pos":-1,"best_pos":4,"similarity":0.464,"stretto":false,"stretto_voices":0,"combination":[],"aug_dim":"","rhythm_ratio":1.0,"mirror":false,"chromatic_density":0.2,"complexity":0.472,"dissonance":0.081},{"voice":0,"pitch":74,"start":74.1817,"duration":2.1818,"velocity":127,"measure":35,"beat":1.0,"subject_pos":0,"motif":"subject","motif_pos":0,"best_pos":0,"similarity":1.0,"stretto":true,"stretto_voices":2,"combination":[],"aug_dim":"augmentation","rhythm_ratio":4.35,"mirror":false,"chromatic_density":0.2,"complexity":0.666,"dissonance":0.067},{"voice":1,"pitch":62,"start":74.1817,"duration":0.2727,"velocity":127,"measure":35,"beat":1.0,"subject_pos":-1,"motif":"","motif_pos":-1,"best_pos":2,"similarity":0.375,"stretto":false,"stretto_voices":0,"combination":[],"aug_dim":"","rhythm_ratio":1.0,"mirror":false,"chromatic_density":0.2,"complexity":0.666,"dissonance":0.067},{"voice":3,"pitch":46,"start":74.1817,"duration":0.5455,"velocity":127,"measure":35,"beat":1.0,"subject_pos":-1,"motif":"","motif_pos":-1,"best_pos":0,"similarity":0.304,"stretto":false,"stretto_voices":0,"combination":[],"aug_dim":"","rhythm_ratio":1.0,"mirror":false,"chromatic_density":0.2,"complexity":0.666,"dissonance":0.067},{"voice":1,"pitch":72,"start":74.4545,"duration":0.2727,"velocity":127,"measure":35,"beat":1.5,"subject_pos":-1,"motif":"","motif_pos":-1,"best_pos":1,"similarity":0.386,"stretto":false,"stretto_voices":0,"combination":[],"aug_dim":"","rhythm_ratio":1.0,"mirror":false,"chromatic_density":0.2,"complexity":0.666,"dissonance":0.067},{"voice":1,"pitch":70,"start":74.7272,"duration":0.2727,"velocity":127,"measure":35,"beat":2.0,"subject_pos":-1,"motif":"","motif_pos":-1,"best_pos":2,"similarity":0.45,"stretto":false,"stretto_voices":0,"combination":[],"aug_dim":"","rhythm_ratio":1.0,"mirror":false,"chromatic_density":0.2,"complexity":0.666,"dissonance":0.067},{"voice":2,"pitch":50,"start":74.7272,"duration":0.5455,"velocity":127,"measure":35,"beat":2.0,"subject_pos":0,"motif":"subject","motif_pos":0,"best_pos":0,"similarity":1.0,"stretto":true,"stretto_voices":2,"combination":[],"aug_dim":"","rhythm_ratio":1.0,"mirror":false,"chromatic_density":0.2,"complexity":0.666,"dissonance":0.067},{"voice":3,"pitch":53,"start":74.7272,"duration":0.5455,"velocity":127,"measure":35,"beat":2.0,"subject_pos":-1,"motif":"","motif_pos":-1,"best_pos":0,"similarity":0.357,"stretto":false,"stretto_voices":0,"combination":[],"aug_dim":"","rhythm_ratio":1.0,"mirror":false,"chromatic_density":0.2,"complexity":0.666,"dissonance":0.067},{"voice":1,"pitch":69,"start":74.9999,"duration":0.2727,"velocity":127,"measure":35,"beat":2.5,"subject_pos":-1,"motif":"","motif_pos":-1,"best_pos":1,"similarity":0.429,"stretto":false,"stretto_voices":0,"combination":[],"aug_dim":"","rhythm_ratio":1.0,"mirror":false,"chromatic_density":0.2,"complexity":0.666,"dissonance":0.067},{"voice":1,"pitch":67,"start":75.2727,"duration":0.2727,"velocity":127,"measure":35,"beat":3.0,"subject_pos":-1,"motif":"","motif_pos":-1,"best_pos":2,"similarity":0.589,"stretto":false,"stretto_voices":0,"combination":[],"aug_dim":"","rhythm_ratio":1.0,"mirror":false,"chromatic_density":0.2,"complexity":0.666,"dissonance":0.067},{"voice":2,"pitch":62,"start":75.2727,"duration":1.6364,"velocity":127,"measure":35,"beat":3.0,"subject_pos":1,"motif":"subject","motif_pos":1,"best_pos":1,"similarity":1.0,"stretto":true,"stretto_voices":2,"combination":[],"aug_dim":"","rhythm_ratio":1.0,"mirror":false,"chromatic_density":0.2,"complexity":0.666,"dissonance":0.067},{"voice":3,"pitch":58,"start":75.2727,"duration":1.0909,"velocity":127,"measure":35,"beat":3.0,"subject_pos":-1,"motif":"","motif_pos":-1,"best_pos":1,"similarity":0.429,"stretto":false,"stretto_voices":0,"combination":[],"aug_dim":"","rhythm_ratio":1.0,"mirror":false,"chromatic_density":0.2,"complexity":0.666,"dissonance":0.067},{"voice":1,"pitch":65,"start":75.5454,"duration":0.2727,"velocity":127,"measure":35,"beat":3.5,"subject_pos":-1,"motif":"","motif_pos":-1,"best_pos":3,"similarity":0.614,"stretto":false,"stretto_voices":0,"combination":[],"aug_dim":"","rhythm_ratio":1.0,"mirror":false,"chromatic_density":0.2,"complexity":0.666,"dissonance":0.067},{"voice":1,"pitch":64,"start":75.8181,"duration":0.2727,"velocity":127,"measure":35,"beat":4.0,"subject_pos":-1,"motif":"","motif_pos":-1,"best_pos":4,"similarity":0.532,"stretto":false,"stretto_voices":0,"combination":[],"aug_dim":"","rhythm_ratio":1.0,"mirror":false,"chromatic_density":0.2,"complexity":0.666,"dissonance":0.067},{"voice":1,"pitch":67,"start":76.0908,"duration":0.2727,"velocity":127,"measure":35,"beat":4.5,"subject_pos":-1,"motif":"","motif_pos":-1,"best_pos":1,"similarity":0.393,"stretto":false,"stretto_voices":0,"combination":[],"aug_dim":"","rhythm_ratio":1.0,"mirror":false,"chromatic_density":0.2,"complexity":0.666,"dissonance":0.067},{"voice":0,"pitch":81,"start":76.3636,"duration":2.1818,"velocity":127,"measure":36,"beat":1.0,"subject_pos":1,"motif":"subject","motif_pos":1,"best_pos":1,"similarity":1.0,"stretto":true,"stretto_voices":2,"combination":[],"aug_dim":"augmentation","rhythm_ratio":4.35,"mirror":false,"chromatic_density":0.286,"complexity":0.665,"dissonance":0.054},{"voice":1,"pitch":65,"start":76.3636,"duration":0.5455,"velocity":127,"measure":36,"beat":1.0,"subject_pos":-1,"motif":"","motif_pos":-1,"best_pos":2,"similarity":0.464,"stretto":false,"stretto_voices":0,"combination":[],"aug_dim":"","rhythm_ratio":1.0,"mirror":false,"chromatic_density":0.286,"complexity":0.665,"dissonance":0.054},{"voice":3,"pitch":57,"start":76.3636,"duration":1.0909,"velocity":127,"measure":36,"beat":1.0,"subject_pos":-1,"motif":"","motif_pos":-1,"best_pos":2,"similarity":0.304,"stretto":false,"stretto_voices":0,"combination":[],"aug_dim":"","rhythm_ratio":1.0,"mirror":false,"chromatic_density":0.286,"complexity":0.665,"dissonance":0.054},{"voice":1,"pitch":64,"start":76.909,"duration":0.5455,"velocity":127,"measure":36,"beat":2.0,"subject_pos":-1,"motif":"","motif_pos":-1,"best_pos":4,"similarity":0.429,"stretto":false,"stretto_voices":0,"combination":[],"aug_dim":"","rhythm_ratio":1.0,"mirror":false,"chromatic_density":0.286,"complexity":0.665,"dissonance":0.054},{"voice":2,"pitch":61,"start":76.909,"duration":0.2727,"velocity":127,"measure":36,"beat":2.0,"subject_pos":2,"motif":"subject","motif_pos":2,"best_pos":2,"similarity":1.0,"stretto":true,"stretto_voices":2,"combination":[],"aug_dim":"","rhythm_ratio":1.0,"mirror":false,"chromatic_density":0.286,"complexity":0.665,"dissonance":0.054},{"voice":2,"pitch":59,"start":77.1817,"duration":0.2727,"velocity":127,"measure":36,"beat":2.5,"subject_pos":3,"motif":"subject","motif_pos":3,"best_pos":3,"similarity":1.0,"stretto":true,"stretto_voices":2,"combination":[],"aug_dim":"","rhythm_ratio":1.0,"mirror":false,"chromatic_density":0.286,"complexity":0.665,"dissonance":0.054},{"voice":2,"pitch":57,"start":77.4545,"duration":0.2727,"velocity":127,"measure":36,"beat":3.0,"subject_pos":4,"motif":"subject","motif_pos":4,"best_pos":4,"similarity":1.0,"stretto":true,"stretto_voices":2,"combination":[],"aug_dim":"","rhythm_ratio":1.0,"mirror":false,"chromatic_density":0.286,"complexity":0.665,"dissonance":0.054},{"voice":2,"pitch":55,"start":77.7272,"duration":0.2727,"velocity":127,"measure":36,"beat":3.5,"subject_pos":5,"motif":"subject","motif_pos":5,"best_pos":5,"similarity":1.0,"stretto":true,"stretto_voices":2,"combination":[],"aug_dim":"","rhythm_ratio":1.0,"mirror":false,"chromatic_density":0.286,"complexity":0.665,"dissonance":0.054},{"voice":1,"pitch":73,"start":77.9999,"duration":0.5455,"velocity":127,"measure":36,"beat":4.0,"subject_pos":-1,"motif":"enigmatic_cell","motif_pos":0,"best_pos":0,"similarity":1.0,"stretto":false,"stretto_voices":0,"combination":[],"aug_dim":"","rhythm_ratio":1.0,"mirror":false,"chromatic_density":0.286,"complexity":0.665,"dissonance":0.054},{"voice":2,"pitch":53,"start":77.9999,"duration":0.2727,"velocity":127,"measure":36,"beat":4.0,"subject_pos":6,"motif":"subject","motif_pos":6,"best_pos":6,"similarity":1.0,"stretto":true,"stretto_voices":2,"combination":[],"aug_dim":"","rhythm_ratio":1.0,"mirror":false,"chromatic_density":0.286,"complexity":0.665,"dissonance":0.054},{"voice":2,"pitch":52,"start":78.2726,"duration":0.2727,"velocity":127,"measure":36,"beat":4.5,"subject_pos":7,"motif":"subject","motif_pos":7,"best_pos":7,"similarity":1.0,"stretto":true,"stretto_voices":2,"combination":[],"aug_dim":"","rhythm_ratio":1.0,"mirror":false,"chromatic_density":0.286,"complexity":0.665,"dissonance":0.054},{"voice":0,"pitch":77,"start":78.5454,"duration":2.1818,"velocity":127,"measure":37,"beat":1.0,"subject_pos":2,"motif":"subject","motif_pos":2,"best_pos":2,"similarity":1.0,"stretto":false,"stretto_voices":0,"combination":[],"aug_dim":"augmentation","rhythm_ratio":4.35,"mirror":false,"chromatic_density":0.4,"complexity":0.531,"dissonance":0.146},{"voice":1,"pitch":74,"start":78.5454,"duration":0.5455,"velocity":127,"measure":37,"beat":1.0,"subject_pos":-1,"motif":"enigmatic_cell","motif_pos":1,"best_pos":1,"similarity":1.0,"stretto":false,"stretto_voices":0,"combination":[],"aug_dim":"","rhythm_ratio":1.0,"mirror":false,"chromatic_density":0.4,"complexity":0.531,"dissonance":0.146},{"voice":2,"pitch":50,"start":78.5454,"duration":0.2727,"velocity":127,"measure":37,"beat":1.0,"subject_pos":8,"motif":"subject","motif_pos":8,"best_pos":0,"similarity":1.0,"stretto":true,"stretto_voices":2,"combination":[],"aug_dim":"","rhythm_ratio":1.0,"mirror":false,"chromatic_density":0.4,"complexity":0.531,"dissonance":0.146},{"voice":2,"pitch":49,"start":78.8181,"duration":0.2727,"velocity":127,"measure":37,"beat":1.5,"subject_pos":-1,"motif":"","motif_pos":-1,"best_pos":4,"similarity":0.893,"stretto":false,"stretto_voices":0,"combination":[],"aug_dim":"","rhythm_ratio":1.0,"mirror":false,"chromatic_density":0.4,"complexity":0.531,"dissonance":0.146},{"voice":1,"pitch":69,"start":79.0908,"duration":0.5455,"velocity":127,"measure":37,"beat":2.0,"subject_pos":-1,"motif":"enigmatic_cell","motif_pos":2,"best_pos":2,"similarity":1.0,"stretto":false,"stretto_voices":0,"combination":[],"aug_dim":"","rhythm_ratio":1.0,"mirror":false,"chromatic_density":0.4,"complexity":0.531,"dissonance":0.146},{"voice":2,"pitch":50,"start":79.0908,"duration":0.2727,"velocity":127,"measure":37,"beat":2.0,"subject_pos":-1,"motif":"","motif_pos":-1,"best_pos":5,"similarity":0.893,"stretto":false,"stretto_voices":0,"combination":[],"aug_dim":"","rhythm_ratio":1.0,"mirror":false,"chromatic_density":0.4,"complexity":0.531,"dissonance":0.146},{"voice":2,"pitch":52,"start":79.3636,"duration":0.2727,"velocity":127,"measure":37,"beat":2.5,"subject_pos":-1,"motif":"","motif_pos":-1,"best_pos":6,"similarity":0.786,"stretto":false,"stretto_voices":0,"combination":[],"aug_dim":"","rhythm_ratio":1.0,"mirror":false,"chromatic_density":0.4,"complexity":0.531,"dissonance":0.146},{"voice":1,"pitch":74,"start":79.6363,"duration":0.5455,"velocity":127,"measure":37,"beat":3.0,"subject_pos":-1,"motif":"","motif_pos":-1,"best_pos":1,"similarity":0.714,"stretto":false,"stretto_voices":0,"combination":[],"aug_dim":"","rhythm_ratio":1.0,"mirror":false,"chromatic_density":0.4,"complexity":0.531,"dissonance":0.146},{"voice":2,"pitch":53,"start":79.6363,"duration":0.2727,"velocity":127,"measure":37,"beat":3.0,"subject_pos":-1,"motif":"","motif_pos":-1,"best_pos":7,"similarity":0.5,"stretto":false,"stretto_voices":0,"combination":[],"aug_dim":"","rhythm_ratio":1.0,"mirror":false,"chromatic_density":0.4,"complexity":0.531,"dissonance":0.146},{"voice":2,"pitch":50,"start":79.909,"duration":0.2727,"velocity":127,"measure":37,"beat":3.5,"subject_pos":-1,"motif":"","motif_pos":-1,"best_pos":3,"similarity":0.55,"stretto":false,"stretto_voices":0,"combination":[],"aug_dim":"","rhythm_ratio":1.0,"mirror":false,"chromatic_density":0.4,"complexity":0.531,"dissonance":0.146},{"voice":1,"pitch":72,"start":80.1817,"duration":1.0909,"velocity":127,"measure":37,"beat":4.0,"subject_pos":-1,"motif":"","motif_pos":-1,"best_pos":2,"similarity":0.721,"stretto":false,"stretto_voices":0,"combination":[],"aug_dim":"","rhythm_ratio":1.0,"mirror":false,"chromatic_density":0.4,"complexity":0.531,"dissonance":0.146},{"voice":2,"pitch":52,"start":80.1817,"duration":0.2727,"velocity":127,"measure":37,"beat":4.0,"subject_pos":-1,"motif":"","motif_pos":-1,"best_pos":4,"similarity":0.625,"stretto":false,"stretto_voices":0,"combination":[],"aug_dim":"","rhythm_ratio":1.0,"mirror":false,"chromatic_density":0.4,"complexity":0.531,"dissonance":0.146},{"voice":2,"pitch":53,"start":80.4545,"duration":0.2727,"velocity":127,"measure":37,"beat":4.5,"subject_pos":-1,"motif":"","motif_pos":-1,"best_pos":5,"similarity":0.693,"stretto":false,"stretto_voices":0,"combination":[],"aug_dim":"","rhythm_ratio":1.0,"mirror":false,"chromatic_density":0.4,"complexity":0.531,"dissonance":0.146},{"voice":0,"pitch":74,"start":80.7272,"duration":2.1818,"velocity":127,"measure":38,"beat":1.0,"subject_pos":3,"motif":"subject","motif_pos":3,"best_pos":3,"similarity":1.0,"stretto":false,"stretto_voices":0,"combination":[],"aug_dim":"augmentation","rhythm_ratio":4.35,"mirror":false,"chromatic_density":0.5,"complexity":0.523,"dissonance":0.0},{"voice":2,"pitch":55,"start":80.7272,"duration":0.2727,"velocity":127,"measure":38,"beat":1.0,"subject_pos":-1,"motif":"tail","motif_pos":3,"best_pos":3,"similarity":1.0,"stretto":false,"stretto_voices":0,"combination":[],"aug_dim":"","rhythm_ratio":1.0,"mirror":false,"chromatic_density":0.5,"complexity":0.523,"dissonance":0.0},{"voice":2,"pitch":54,"start":80.9999,"duration":0.2727,"velocity":127,"measure":38,"beat":1.5,"subject_pos":-1,"motif":"tail","motif_pos":4,"best_pos":4,"similarity":1.0,"stretto":false,"stretto_voices":0,"combination":[],"aug_dim":"","rhythm_ratio":1.0,"mirror":false,"chromatic_density":0.5,"complexity":0.523,"dissonance":0.0},{"voice":1,"pitch":70,"start":81.2726,"duration":0.2727,"velocity":127,"measure":38,"beat":2.0,"subject_pos":-1,"motif":"","motif_pos":-1,"best_pos":3,"similarity":0.664,"stretto":false,"stretto_voices":0,"combination":[],"aug_dim":"","rhythm_ratio":1.0,"mirror":false,"chromatic_density":0.5,"complexity":0.523,"dissonance":0.0},{"voice":2,"pitch":55,"start":81.2726,"duration":0.2727,"velocity":127,"measure":38,"beat":2.0,"subject_pos":-1,"motif":"tail","motif_pos":5,"best_pos":5,"similarity":1.0,"stretto":false,"stretto_voices":0,"combination":[],"aug_dim":"","rhythm_ratio":1.0,"mirror":false,"chromatic_density":0.5,"complexity":0.523,"dissonance":0.0},{"voice":1,"pitch":69,"start":81.5454,"duration":0.2727,"velocity":127,"measure":38,"beat":2.5,"subject_pos":-1,"motif":"","motif_pos":-1,"best_pos":4,"similarity":0.489,"stretto":false,"stretto_voices":0,"combination":[],"aug_dim":"","rhythm_ratio":1.0,"mirror":false,"chromatic_density":0.5,"complexity":0.523,"dissonance":0.0},{"voice":2,"pitch":57,"start":81.5454,"duration":0.2727,"velocity":127,"measure":38,"beat":2.5,"subject_pos":-1,"motif":"tail","motif_pos":6,"best_pos":6,"similarity":1.0,"stretto":false,"stretto_voices":0,"combination":[],"aug_dim":"","rhythm_ratio":1.0,"mirror":false,"chromatic_density":0.5,"complexity":0.523,"dissonance":0.0},{"voice":1,"pitch":67,"start":81.8181,"duration":0.5455,"velocity":127,"measure":38,"beat":3.0,"subject_pos":-1,"motif":"","motif_pos":-1,"best_pos":2,"similarity":0.643,"stretto":false,"stretto_voices":0,"combination":[],"aug_dim":"","rhythm_ratio":1.0,"mirror":false,"chromatic_density":0.5,"complexity":0.523,"dissonance":0.0},{"voice":2,"pitch":58,"start":81.8181,"duration":0.2727,"velocity":127,"measure":38,"beat":3.0,"subject_pos":-1,"motif":"tail","motif_pos":7,"best_pos":7,"similarity":1.0,"stretto":false,"stretto_voices":0,"combination":[],"aug_dim":"","rhythm_ratio":1.0,"mirror":false,"chromatic_density":0.5,"complexity":0.523,"dissonance":0.0},{"voice":2,"pitch":55,"start":82.0908,"duration":0.2727,"velocity":127,"measure":38,"beat":3.5,"subject_pos":-1,"motif":"","motif_pos":-1,"best_pos":3,"similarity":0.496,"stretto":false,"stretto_voices":0,"combination":[],"aug_dim":"","rhythm_ratio":1.0,"mirror":false,"chromatic_density":0.5,"complexity":0.523,"dissonance":0.0},{"voice":1,"pitch":65,"start":82.3636,"duration":0.5455,"velocity":127,"measure":38,"beat":4.0,"subject_pos":-1,"motif":"","motif_pos":-1,"best_pos":3,"similarity":0.786,"stretto":false,"stretto_voices":0,"combination":[],"aug_dim":"","rhythm_ratio":1.0,"mirror":false,"chromatic_density":0.5,"complexity":0.523,"dissonance":0.0},{"voice":2,"pitch":57,"start":82.3636,"duration":0.2727,"velocity":127,"measure":38,"beat":4.0,"subject_pos":-1,"motif":"","motif_pos":-1,"best_pos":6,"similarity":0.604,"stretto":false,"stretto_voices":0,"combination":[],"aug_dim":"","rhythm_ratio":1.0,"mirror":false,"chromatic_density":0.5,"complexity":0.523,"dissonance":0.0},{"voice":2,"pitch":58,"start":82.6363,"duration":0.2727,"velocity":127,"measure":38,"beat":4.5,"subject_pos":-1,"motif":"","motif_pos":-1,"best_pos":5,"similarity":0.479,"stretto":false,"stretto_voices":0,"combination":[],"aug_dim":"","rhythm_ratio":1.0,"mirror":false,"chromatic_density":0.5,"complexity":0.523,"dissonance":0.0},{"voice":0,"pitch":73,"start":82.909,"duration":2.1818,"velocity":127,"measure":39,"beat":1.0,"subject_pos":4,"motif":"subject","motif_pos":4,"best_pos":4,"similarity":1.0,"stretto":false,"stretto_voices":0,"combination":[],"aug_dim":"augmentation","rhythm_ratio":4.35,"mirror":false,"chromatic_density":0.429,"complexity":0.418,"dissonance":0.176},{"voice":1,"pitch":64,"start":82.909,"duration":0.5455,"velocity":127,"measure":39,"beat":1.0,"subject_pos":-1,"motif":"","motif_pos":-1,"best_pos":4,"similarity":0.864,"stretto":false,"stretto_voices":0,"combination":[],"aug_dim":"","rhythm_ratio":1.0,"mirror":false,"chromatic_density":0.429,"complexity":0.418,"dissonance":0.176},{"voice":2,"pitch":58,"start":82.909,"duration":0.5455,"velocity":127,"measure":39,"beat":1.0,"subject_pos":-1,"motif":"","motif_pos":-1,"best_pos":3,"similarity":0.414,"stretto":false,"stretto_voices":0,"combination":[],"aug_dim":"","rhythm_ratio":1.0,"mirror":false,"chromatic_density":0.429,"complexity":0.418,"dissonance":0.176},{"voice":1,"pitch":65,"start":83.4545,"duration":0.2727,"velocity":127,"measure":39,"beat":2.0,"subject_pos":-1,"motif":"","motif_pos":-1,"best_pos":5,"similarity":0.764,"stretto":false,"stretto_voices":0,"combination":[],"aug_dim":"","rhythm_ratio":1.0,"mirror":false,"chromatic_density":0.429,"complexity":0.418,"dissonance":0.176},{"voice":2,"pitch":57,"start":83.4545,"duration":0.5455,"velocity":127,"measure":39,"beat":2.0,"subject_pos":-1,"motif":"","motif_pos":-1,"best_pos":4,"similarity":0.5,"stretto":false,"stretto_voices":0,"combination":[],"aug_dim":"","rhythm_ratio":1.0,"mirror":false,"chromatic_density":0.429,"complexity":0.418,"dissonance":0.176},{"voice":1,"pitch":67,"start":83.7272,"duration":0.2727,"velocity":127,"measure":39,"beat":2.5,"subject_pos":-1,"motif":"","motif_pos":-1,"best_pos":6,"similarity":0.529,"stretto":false,"stretto_voices":0,"combination":[],"aug_dim":"","rhythm_ratio":1.0,"mirror":false,"chromatic_density":0.429,"complexity":0.418,"dissonance":0.176},{"voice":1,"pitch":65,"start":83.9999,"duration":0.5455,"velocity":127,"measure":39,"beat":3.0,"subject_pos":-1,"motif":"","motif_pos":-1,"best_pos":3,"similarity":0.471,"stretto":false,"stretto_voices":0,"combination":[],"aug_dim":"","rhythm_ratio":1.0,"mirror":false,"chromatic_density":0.429,"complexity":0.418,"dissonance":0.176},{"voice":2,"pitch":57,"start":84.2726,"duration":0.2727,"velocity":127,"measure":39,"beat":3.5,"subject_pos":-1,"motif":"","motif_pos":-1,"best_pos":4,"similarity":0.439,"stretto":false,"stretto_voices":0,"combination":[],"aug_dim":"","rhythm_ratio":1.0,"mirror":false,"chromatic_density":0.429,"complexity":0.418,"dissonance":0.176},{"voice":1,"pitch":64,"start":84.5454,"duration":0.5455,"velocity":127,"measure":39,"beat":4.0,"subject_pos":-1,"motif":"","motif_pos":-1,"best_pos":4,"similarity":0.425,"stretto":false,"stretto_voices":0,"combination":[],"aug_dim":"","rhythm_ratio":1.0,"mirror":false,"chromatic_density":0.429,"complexity":0.418,"dissonance":0.176},{"voice":2,"pitch":55,"start":84.5454,"duration":0.2727,"velocity":127,"measure":39,"beat":4.0,"subject_pos":-1,"motif":"","motif_pos":-1,"best_pos":5,"similarity":0.546,"stretto":false,"stretto_voices":0,"combination":[],"aug_dim":"","rhythm_ratio":1.0,"mirror":false,"chromatic_density":0.429,"complexity":0.418,"dissonance":0.176},{"voice":2,"pitch":57,"start":84.8181,"duration":0.2727,"velocity":127,"measure":39,"beat":4.5,"subject_pos":-1,"motif":"","motif_pos":-1,"best_pos":6,"similarity":0.621,"stretto":false,"stretto_voices":0,"combination":[],"aug_dim":"","rhythm_ratio":1.0,"mirror":false,"chromatic_density":0.429,"complexity":0.418,"dissonance":0.176},{"voice":0,"pitch":74,"start":85.0908,"duration":1.0909,"velocity":127,"measure":40,"beat":1.0,"subject_pos":5,"motif":"subject","motif_pos":5,"best_pos":5,"similarity":1.0,"stretto":false,"stretto_voices":0,"combination":[],"aug_dim":"augmentation","rhythm_ratio":4.35,"mirror":false,"chromatic_density":0.1,"complexity":0.489,"dissonance":0.108},{"voice":1,"pitch":62,"start":85.0908,"duration":0.5455,"velocity":127,"measure":40,"beat":1.0,"subject_pos":-1,"motif":"","motif_pos":-1,"best_pos":4,"similarity":0.368,"stretto":false,"stretto_voices":0,"combination":[],"aug_dim":"","rhythm_ratio":1.0,"mirror":false,"chromatic_density":0.1,"complexity":0.489,"dissonance":0.108},{"voice":2,"pitch":58,"start":85.0908,"duration":0.2727,"velocity":127,"measure":40,"beat":1.0,"subject_pos":-1,"motif":"","motif_pos":-1,"best_pos":7,"similarity":0.436,"stretto":false,"stretto_voices":0,"combination":[],"aug_dim":"","rhythm_ratio":1.0,"mirror":false,"chromatic_density":0.1,"complexity":0.489,"dissonance":0.108},{"voice":2,"pitch":62,"start":85.3636,"duration":0.2727,"velocity":127,"measure":40,"beat":1.5,"subject_pos":-1,"motif":"","motif_pos":-1,"best_pos":1,"similarity":0.507,"stretto":false,"stretto_voices":0,"combination":[],"aug_dim":"","rhythm_ratio":1.0,"mirror":false,"chromatic_density":0.1,"complexity":0.489,"dissonance":0.108},{"voice":1,"pitch":67,"start":85.6363,"duration":1.0909,"velocity":127,"measure":40,"beat":2.0,"subject_pos":-1,"motif":"","motif_pos":-1,"best_pos":1,"similarity":0.329,"stretto":false,"stretto_voices":0,"combination":[],"aug_dim":"","rhythm_ratio":1.0,"mirror":false,"chromatic_density":0.1,"complexity":0.489,"dissonance":0.108},{"voice":2,"pitch":60,"start":85.6363,"duration":0.2727,"velocity":127,"measure":40,"beat":2.0,"subject_pos":-1,"motif":"","motif_pos":-1,"best_pos":2,"similarity":0.521,"stretto":false,"stretto_voices":0,"combination":[],"aug_dim":"","rhythm_ratio":1.0,"mirror":false,"chromatic_density":0.1,"complexity":0.489,"dissonance":0.108},{"voice":2,"pitch":58,"start":85.909,"duration":0.2727,"velocity":127,"measure":40,"beat":2.5,"subject_pos":-1,"motif":"","motif_pos":-1,"best_pos":5,"similarity":0.4,"stretto":false,"stretto_voices":0,"combination":[],"aug_dim":"","rhythm_ratio":1.0,"mirror":false,"chromatic_density":0.1,"complexity":0.489,"dissonance":0.108},{"voice":0,"pitch":76,"start":86.1817,"duration":1.0909,"velocity":127,"measure":40,"beat":3.0,"subject_pos":6,"motif":"subject","motif_pos":6,"best_pos":6,"similarity":1.0,"stretto":false,"stretto_voices":0,"combination":[],"aug_dim":"augmentation","rhythm_ratio":4.35,"mirror":false,"chromatic_density":0.1,"complexity":0.489,"dissonance":0.108},{"voice":2,"pitch":60,"start":86.1817,"duration":0.2727,"velocity":127,"measure":40,"beat":3.0,"subject_pos":-1,"motif":"","motif_pos":-1,"best_pos":1,"similarity":0.386,"stretto":false,"stretto_voices":0,"combination":[],"aug_dim":"","rhythm_ratio":1.0,"mirror":false,"chromatic_density":0.1,"complexity":0.489,"dissonance":0.108},{"voice":2,"pitch":58,"start":86.4545,"duration":0.2727,"velocity":127,"measure":40,"beat":3.5,"subject_pos":-1,"motif":"","motif_pos":-1,"best_pos":3,"similarity":0.464,"stretto":false,"stretto_voices":0,"combination":[],"aug_dim":"","rhythm_ratio":1.0,"mirror":false,"chromatic_density":0.1,"complexity":0.489,"dissonance":0.108},{"voice":1,"pitch":70,"start":86.7272,"duration":0.5455,"velocity":127,"measure":40,"beat":4.0,"subject_pos":-1,"motif":"","motif_pos":-1,"best_pos":3,"similarity":0.321,"stretto":false,"stretto_voices":0,"combination":[],"aug_dim":"","rhythm_ratio":1.0,"mirror":false,"chromatic_density":0.1,"complexity":0.489,"dissonance":0.108},{"voice":2,"pitch":57,"start":86.7272,"duration":0.2727,"velocity":127,"measure":40,"beat":4.0,"subject_pos":-1,"motif":"","motif_pos":-1,"best_pos":4,"similarity":0.414,"stretto":false,"stretto_voices":0,"combination":[],"aug_dim":"","rhythm_ratio":1.0,"mirror":false,"chromatic_density":0.1,"complexity":0.489,"dissonance":0.108},{"voice":2,"pitch":55,"start":86.9999,"duration":0.2727,"velocity":127,"measure":40,"beat":4.5,"subject_pos":-1,"motif":"","motif_pos":-1,"best_pos":2,"similarity":0.446,"stretto":false,"stretto_voices":0,"combination":[],"aug_dim":"","rhythm_ratio":1.0,"mirror":false,"chromatic_density":0.1,"complexity":0.489,"dissonance":0.108},{"voice":0,"pitch":77,"start":87.2726,"duration":2.7273,"velocity":127,"measure":41,"beat":1.0,"subject_pos":7,"motif":"subject","motif_pos":7,"best_pos":7,"similarity":1.0,"stretto":false,"stretto_voices":0,"combination":[],"aug_dim":"augmentation","rhythm_ratio":4.35,"mirror":false,"chromatic_density":0.182,"complexity":0.496,"dissonance":0.167},{"voice":1,"pitch":69,"start":87.2726,"duration":0.5455,"velocity":127,"measure":41,"beat":1.0,"subject_pos":-1,"motif":"","motif_pos":-1,"best_pos":4,"similarity":0.364,"stretto":false,"stretto_voices":0,"combination":[],"aug_dim":"","rhythm_ratio":1.0,"mirror":false,"chromatic_density":0.182,"complexity":0.496,"dissonance":0.167},{"voice":2,"pitch":53,"start":87.2726,"duration":0.2727,"velocity":127,"measure":41,"beat":1.0,"subject_pos":-1,"motif":"","motif_pos":-1,"best_pos":2,"similarity":0.436,"stretto":false,"stretto_voices":0,"combination":[],"aug_dim":"","rhythm_ratio":1.0,"mirror":false,"chromatic_density":0.182,"complexity":0.496,"dissonance":0.167},{"voice":2,"pitch":58,"start":87.5454,"duration":0.2727,"velocity":127,"measure":41,"beat":1.5,"subject_pos":-1,"motif":"","motif_pos":-1,"best_pos":3,"similarity":0.514,"stretto":false,"stretto_voices":0,"combination":[],"aug_dim":"","rhythm_ratio":1.0,"mirror":false,"chromatic_density":0.182,"complexity":0.496,"dissonance":0.167},{"voice":1,"pitch":72,"start":87.8181,"duration":0.5455,"velocity":127,"measure":41,"beat":2.0,"subject_pos":-1,"motif":"","motif_pos":-1,"best_pos":5,"similarity":0.229,"stretto":false,"stretto_voices":0,"combination":[],"aug_dim":"","rhythm_ratio":1.0,"mirror":false,"chromatic_density":0.182,"complexity":0.496,"dissonance":0.167},{"voice":2,"pitch":57,"start":87.8181,"duration":0.2727,"velocity":127,"measure":41,"beat":2.0,"subject_pos":-1,"motif":"","motif_pos":-1,"best_pos":4,"similarity":0.536,"stretto":false,"stretto_voices":0,"combination":[],"aug_dim":"","rhythm_ratio":1.0,"mirror":false,"chromatic_density":0.182,"complexity":0.496,"dissonance":0.167},{"voice":2,"pitch":55,"start":88.0908,"duration":0.2727,"velocity":127,"measure":41,"beat":2.5,"subject_pos":-1,"motif":"","motif_pos":-1,"best_pos":5,"similarity":0.471,"stretto":false,"stretto_voices":0,"combination":[],"aug_dim":"","rhythm_ratio":1.0,"mirror":false,"chromatic_density":0.182,"complexity":0.496,"dissonance":0.167},{"voice":1,"pitch":65,"start":88.3635,"duration":0.5455,"velocity":127,"measure":41,"beat":3.0,"subject_pos":-1,"motif":"","motif_pos":-1,"best_pos":0,"similarity":0.286,"stretto":false,"stretto_voices":0,"combination":[],"aug_dim":"","rhythm_ratio":1.0,"mirror":false,"chromatic_density":0.182,"complexity":0.496,"dissonance":0.167},{"voice":2,"pitch":57,"start":88.3635,"duration":0.2727,"velocity":127,"measure":41,"beat":3.0,"subject_pos":-1,"motif":"","motif_pos":-1,"best_pos":1,"similarity":0.457,"stretto":false,"stretto_voices":0,"combination":[],"aug_dim":"","rhythm_ratio":1.0,"mirror":false,"chromatic_density":0.182,"complexity":0.496,"dissonance":0.167},{"voice":2,"pitch":55,"start":88.6363,"duration":0.2727,"velocity":127,"measure":41,"beat":3.5,"subject_pos":-1,"motif":"","motif_pos":-1,"best_pos":2,"similarity":0.593,"stretto":false,"stretto_voices":0,"combination":[],"aug_dim":"","rhythm_ratio":1.0,"mirror":false,"chromatic_density":0.182,"complexity":0.496,"dissonance":0.167},{"voice":1,"pitch":69,"start":88.909,"duration":0.2727,"velocity":127,"measure":41,"beat":4.0,"subject_pos":-1,"motif":"","motif_pos":-1,"best_pos":1,"similarity":0.429,"stretto":false,"stretto_voices":0,"combination":[],"aug_dim":"","rhythm_ratio":1.0,"mirror":false,"chromatic_density":0.182,"complexity":0.496,"dissonance":0.167},{"voice":2,"pitch":53,"start":88.909,"duration":0.2727,"velocity":127,"measure":41,"beat":4.0,"subject_pos":-1,"motif":"","motif_pos":-1,"best_pos":3,"similarity":0.611,"stretto":false,"stretto_voices":0,"combination":[],"aug_dim":"","rhythm_ratio":1.0,"mirror":false,"chromatic_density":0.182,"complexity":0.496,"dissonance":0.167},{"voice":1,"pitch":67,"start":89.1817,"duration":0.2727,"velocity":127,"measure":41,"beat":4.5,"subject_pos":-1,"motif":"","motif_pos":-1,"best_pos":2,"similarity":0.364,"stretto":false,"stretto_voices":0,"combination":[],"aug_dim":"","rhythm_ratio":1.0,"mirror":false,"chromatic_density":0.182,"complexity":0.496,"dissonance":0.167},{"voice":2,"pitch":52,"start":89.1817,"duration":0.2727,"velocity":127,"measure":41,"beat":4.5,"subject_pos":-1,"motif":"","motif_pos":-1,"best_pos":4,"similarity":0.529,"stretto":false,"stretto_voices":0,"combination":[],"aug_dim":"","rhythm_ratio":1.0,"mirror":false,"chromatic_density":0.182,"complexity":0.496,"dissonance":0.167},{"voice":1,"pitch":69,"start":89.4545,"duration":0.2727,"velocity":127,"measure":42,"beat":1.0,"subject_pos":-1,"motif":"","motif_pos":-1,"best_pos":0,"similarity":0.446,"stretto":false,"stretto_voices":0,"combination":[],"aug_dim":"","rhythm_ratio":1.0,"mirror":false,"chromatic_density":0.455,"complexity":0.442,"dissonance":0.311},{"voice":2,"pitch":50,"start":89.4545,"duration":1.0909,"velocity":127,"measure":42,"beat":1.0,"subject_pos":-1,"motif":"","motif_pos":-1,"best_pos":4,"similarity":0.607,"stretto":false,"stretto_voices":0,"combination":[],"aug_dim":"","rhythm_ratio":1.0,"mirror":false,"chromatic_density":0.455,"complexity":0.442,"dissonance":0.311},{"voice":1,"pitch":76,"start":89.7272,"duration":0.2727,"velocity":127,"measure":42,"beat":1.5,"subject_pos":-1,"motif":"","motif_pos":-1,"best_pos":1,"similarity":0.625,"stretto":false,"stretto_voices":0,"combination":[],"aug_dim":"","rhythm_ratio":1.0,"mirror":false,"chromatic_density":0.455,"complexity":0.442,"dissonance":0.311},{"voice":0,"pitch":79,"start":89.9999,"duration":0.5455,"velocity":127,"measure":42,"beat":2.0,"subject_pos":-1,"motif":"","motif_pos":-1,"best_pos":6,"similarity":0.464,"stretto":false,"stretto_voices":0,"combination":[],"aug_dim":"","rhythm_ratio":1.0,"mirror":false,"chromatic_density":0.455,"complexity":0.442,"dissonance":0.311},{"voice":1,"pitch":74,"start":89.9999,"duration":0.2727,"velocity":127,"measure":42,"beat":2.0,"subject_pos":-1,"motif":"","motif_pos":-1,"best_pos":3,"similarity":0.586,"stretto":false,"stretto_voices":0,"combination":[],"aug_dim":"","rhythm_ratio":1.0,"mirror":false,"chromatic_density":0.455,"complexity":0.442,"dissonance":0.311},{"voice":1,"pitch":73,"start":90.2726,"duration":0.2727,"velocity":127,"measure":42,"beat":2.5,"subject_pos":-1,"motif":"","motif_pos":-1,"best_pos":4,"similarity":0.664,"stretto":false,"stretto_voices":0,"combination":[],"aug_dim":"","rhythm_ratio":1.0,"mirror":false,"chromatic_density":0.455,"complexity":0.442,"dissonance":0.311},{"voice":0,"pitch":77,"start":90.5454,"duration":0.5455,"velocity":127,"measure":42,"beat":3.0,"subject_pos":-1,"motif":"","motif_pos":-1,"best_pos":3,"similarity":0.482,"stretto":false,"stretto_voices":0,"combination":[],"aug_dim":"","rhythm_ratio":1.0,"mirror":false,"chromatic_density":0.455,"complexity":0.442,"dissonance":0.311},{"voice":1,"pitch":74,"start":90.5454,"duration":0.2727,"velocity":127,"measure":42,"beat":3.0,"subject_pos":-1,"motif":"","motif_pos":-1,"best_pos":5,"similarity":0.507,"stretto":false,"stretto_voices":0,"combination":[],"aug_dim":"","rhythm_ratio":1.0,"mirror":false,"chromatic_density":0.455,"complexity":0.442,"dissonance":0.311},{"voice":1,"pitch":72,"start":90.8181,"duration":0.2727,"velocity":127,"measure":42,"beat":3.5,"subject_pos":-1,"motif":"","motif_pos":-1,"best_pos":2,"similarity":0.657,"stretto":false,"stretto_voices":0,"combination":[],"aug_dim":"","rhythm_ratio":1.0,"mirror":false,"chromatic_density":0.455,"complexity":0.442,"dissonance":0.311},{"voice":2,"pitch":50,"start":90.8181,"duration":0.2727,"velocity":127,"measure":42,"beat":3.5,"subject_pos":-1,"motif":"","motif_pos":-1,"best_pos":5,"similarity":0.661,"stretto":false,"stretto_voices":0,"combination":[],"aug_dim":"","rhythm_ratio":1.0,"mirror":false,"chromatic_density":0.455,"complexity":0.442,"dissonance":0.311},{"voice":0,"pitch":76,"start":91.0908,"duration":0.5455,"velocity":127,"measure":42,"beat":4.0,"subject_pos":-1,"motif":"","motif_pos":-1,"best_pos":3,"similarity":0.443,"stretto":false,"stretto_voices":0,"combination":[],"aug_dim":"","rhythm_ratio":1.0,"mirror":false,"chromatic_density":0.455,"complexity":0.442,"dissonance":0.311},{"voice":1,"pitch":70,"start":91.0908,"duration":0.2727,"velocity":127,"measure":42,"beat":4.0,"subject_pos":-1,"motif":"","motif_pos":-1,"best_pos":3,"similarity":0.793,"stretto":false,"stretto_voices":0,"combination":[],"aug_dim":"","rhythm_ratio":1.0,"mirror":false,"chromatic_density":0.455,"complexity":0.442,"dissonance":0.311},{"voice":2,"pitch":52,"start":91.0908,"duration":0.2727,"velocity":127,"measure":42,"beat":4.0,"subject_pos":-1,"motif":"","motif_pos":-1,"best_pos":6,"similarity":0.679,"stretto":false,"stretto_voices":0,"combination":[],"aug_dim":"","rhythm_ratio":1.0,"mirror":false,"chromatic_density":0.455,"complexity":0.442,"dissonance":0.311},{"voice":1,"pitch":69,"start":91.3635,"duration":0.2727,"velocity":127,"measure":42,"beat":4.5,"subject_pos":-1,"motif":"","motif_pos":-1,"best_pos":4,"similarity":0.864,"stretto":false,"stretto_voices":0,"combination":[],"aug_dim":"","rhythm_ratio":1.0,"mirror":false,"chromatic_density":0.455,"complexity":0.442,"dissonance":0.311},{"voice":2,"pitch":53,"start":91.3635,"duration":0.2727,"velocity":127,"measure":42,"beat":4.5,"subject_pos":-1,"motif":"","motif_pos":-1,"best_pos":5,"similarity":0.664,"stretto":false,"stretto_voices":0,"combination":[],"aug_dim":"","rhythm_ratio":1.0,"mirror":false,"chromatic_density":0.455,"complexity":0.442,"dissonance":0.311},{"voice":0,"pitch":74,"start":91.6363,"duration":2.4545,"velocity":127,"measure":43,"beat":1.0,"subject_pos":-1,"motif":"","motif_pos":-1,"best_pos":4,"similarity":0.414,"stretto":false,"stretto_voices":0,"combination":[],"aug_dim":"","rhythm_ratio":1.0,"mirror":false,"chromatic_density":0.2,"complexity":0.387,"dissonance":0.137},{"voice":1,"pitch":70,"start":91.6363,"duration":0.5455,"velocity":127,"measure":43,"beat":1.0,"subject_pos":-1,"motif":"","motif_pos":-1,"best_pos":5,"similarity":0.764,"stretto":false,"stretto_voices":0,"combination":[],"aug_dim":"","rhythm_ratio":1.0,"mirror":false,"chromatic_density":0.2,"complexity":0.387,"dissonance":0.137},{"voice":2,"pitch":55,"start":91.6363,"duration":0.2727,"velocity":127,"measure":43,"beat":1.0,"subject_pos":-1,"motif":"","motif_pos":-1,"best_pos":6,"similarity":0.579,"stretto":false,"stretto_voices":0,"combination":[],"aug_dim":"","rhythm_ratio":1.0,"mirror":false,"chromatic_density":0.2,"complexity":0.387,"dissonance":0.137},{"voice":2,"pitch":57,"start":91.909,"duration":0.2727,"velocity":127,"measure":43,"beat":1.5,"subject_pos":-1,"motif":"","motif_pos":-1,"best_pos":6,"similarity":0.404,"stretto":false,"stretto_voices":0,"combination":[],"aug_dim":"","rhythm_ratio":1.0,"mirror":false,"chromatic_density":0.2,"complexity":0.387,"dissonance":0.137},{"voice":1,"pitch":72,"start":92.1817,"duration":0.5455,"velocity":127,"measure":43,"beat":2.0,"subject_pos":-1,"motif":"","motif_pos":-1,"best_pos":6,"similarity":0.529,"stretto":false,"stretto_voices":0,"combination":[],"aug_dim":"","rhythm_ratio":1.0,"mirror":false,"chromatic_density":0.2,"complexity":0.387,"dissonance":0.137},{"voice":2,"pitch":55,"start":92.1817,"duration":0.2727,"velocity":127,"measure":43,"beat":2.0,"subject_pos":-1,"motif":"","motif_pos":-1,"best_pos":2,"similarity":0.464,"stretto":false,"stretto_voices":0,"combination":[],"aug_dim":"","rhythm_ratio":1.0,"mirror":false,"chromatic_density":0.2,"complexity":0.387,"dissonance":0.137},{"voice":2,"pitch":53,"start":92.4545,"duration":0.2727,"velocity":127,"measure":43,"beat":2.5,"subject_pos":-1,"motif":"","motif_pos":-1,"best_pos":5,"similarity":0.4,"stretto":false,"stretto_voices":0,"combination":[],"aug_dim":"","rhythm_ratio":1.0,"mirror":false,"chromatic_density":0.2,"complexity":0.387,"dissonance":0.137},{"voice":1,"pitch":70,"start":92.7272,"duration":0.5455,"velocity":127,"measure":43,"beat":3.0,"subject_pos":-1,"motif":"","motif_pos":-1,"best_pos":3,"similarity":0.464,"stretto":false,"stretto_voices":0,"combination":[],"aug_dim":"","rhythm_ratio":1.0,"mirror":false,"chromatic_density":0.2,"complexity":0.387,"dissonance":0.137},{"voice":2,"pitch":55,"start":92.7272,"duration":0.2727,"velocity":127,"measure":43,"beat":3.0,"subject_pos":-1,"motif":"","motif_pos":-1,"best_pos":1,"similarity":0.386,"stretto":false,"stretto_voices":0,"combination":[],"aug_dim":"","rhythm_ratio":1.0,"mirror":false,"chromatic_density":0.2,"complexity":0.387,"dissonance":0.137},{"voice":2,"pitch":53,"start":92.9999,"duration":0.2727,"velocity":127,"measure":43,"beat":3.5,"subject_pos":-1,"motif":"","motif_pos":-1,"best_pos":3,"similarity":0.529,"stretto":false,"stretto_voices":0,"combination":[],"aug_dim":"","rhythm_ratio":1.0,"mirror":false,"chromatic_density":0.2,"complexity":0.387,"dissonance":0.137},{"voice":1,"pitch":69,"start":93.2726,"duration":0.5455,"velocity":127,"measure":43,"beat":4.0,"subject_pos":-1,"motif":"","motif_pos":-1,"best_pos":4,"similarity":0.393,"stretto":false,"stretto_voices":0,"combination":[],"aug_dim":"","rhythm_ratio":1.0,"mirror":false,"chromatic_density":0.2,"complexity":0.387,"dissonance":0.137},{"voice":2,"pitch":52,"start":93.2726,"duration":0.2727,"velocity":127,"measure":43,"beat":4.0,"subject_pos":-1,"motif":"","motif_pos":-1,"best_pos":4,"similarity":0.607,"stretto":false,"stretto_voices":0,"combination":[],"aug_dim":"","rhythm_ratio":1.0,"mirror":false,"chromatic_density":0.2,"complexity":0.387,"dissonance":0.137},{"voice":2,"pitch":50,"start":93.5454,"duration":0.2727,"velocity":127,"measure":43,"beat":4.5,"subject_pos":-1,"motif":"","motif_pos":-1,"best_pos":5,"similarity":0.636,"stretto":false,"stretto_voices":0,"combination":[],"aug_dim":"","rhythm_ratio":1.0,"mirror":false,"chromatic_density":0.2,"complexity":0.387,"dissonance":0.137},{"voice":1,"pitch":67,"start":93.8181,"duration":1.0909,"velocity":127,"measure":44,"beat":1.0,"subject_pos":-1,"motif":"","motif_pos":-1,"best_pos":2,"similarity":0.321,"stretto":false,"stretto_voices":0,"combination":[],"aug_dim":"","rhythm_ratio":1.0,"mirror":false,"chromatic_density":0.231,"complexity":0.402,"dissonance":0.071},{"voice":2,"pitch":52,"start":93.8181,"duration":0.2727,"velocity":127,"measure":44,"beat":1.0,"subject_pos":-1,"motif":"","motif_pos":-1,"best_pos":6,"similarity":0.657,"stretto":false,"stretto_voices":0,"combination":[],"aug_dim":"","rhythm_ratio":1.0,"mirror":false,"chromatic_density":0.231,"complexity":0.402,"dissonance":0.071},{"voice":0,"pitch":74,"start":94.0908,"duration":0.2727,"velocity":127,"measure":44,"beat":1.5,"subject_pos":-1,"motif":"","motif_pos":-1,"best_pos":3,"similarity":0.4,"stretto":false,"stretto_voices":0,"combination":[],"aug_dim":"","rhythm_ratio":1.0,"mirror":false,"chromatic_density":0.231,"complexity":0.402,"dissonance":0.071},{"voice":2,"pitch":53,"start":94.0908,"duration":0.2727,"velocity":127,"measure":44,"beat":1.5,"subject_pos":-1,"motif":"","motif_pos":-1,"best_pos":7,"similarity":0.436,"stretto":false,"stretto_voices":0,"combination":[],"aug_dim":"","rhythm_ratio":1.0,"mirror":false,"chromatic_density":0.231,"complexity":0.402,"dissonance":0.071},{"voice":0,"pitch":72,"start":94.3635,"duration":0.2727,"velocity":127,"measure":44,"beat":2.0,"subject_pos":-1,"motif":"","motif_pos":-1,"best_pos":2,"similarity":0.45,"stretto":false,"stretto_voices":0,"combination":[],"aug_dim":"","rhythm_ratio":1.0,"mirror":false,"chromatic_density":0.231,"complexity":0.402,"dissonance":0.071},{"voice":2,"pitch":52,"start":94.3635,"duration":0.2727,"velocity":127,"measure":44,"beat":2.0,"subject_pos":-1,"motif":"","motif_pos":-1,"best_pos":4,"similarity":0.479,"stretto":false,"stretto_voices":0,"combination":[],"aug_dim":"","rhythm_ratio":1.0,"mirror":false,"chromatic_density":0.231,"complexity":0.402,"dissonance":0.071},{"voice":0,"pitch":70,"start":94.6363,"duration":0.2727,"velocity":127,"measure":44,"beat":2.5,"subject_pos":-1,"motif":"","motif_pos":-1,"best_pos":4,"similarity":0.407,"stretto":false,"stretto_voices":0,"combination":[],"aug_dim":"","rhythm_ratio":1.0,"mirror":false,"chromatic_density":0.231,"complexity":0.402,"dissonance":0.071},{"voice":2,"pitch":50,"start":94.6363,"duration":0.2727,"velocity":127,"measure":44,"beat":2.5,"subject_pos":-1,"motif":"","motif_pos":-1,"best_pos":5,"similarity":0.464,"stretto":false,"stretto_voices":0,"combination":[],"aug_dim":"","rhythm_ratio":1.0,"mirror":false,"chromatic_density":0.231,"complexity":0.402,"dissonance":0.071},{"voice":0,"pitch":72,"start":94.909,"duration":0.2727,"velocity":127,"measure":44,"beat":3.0,"subject_pos":-1,"motif":"","motif_pos":-1,"best_pos":1,"similarity":0.386,"stretto":false,"stretto_voices":0,"combination":[],"aug_dim":"","rhythm_ratio":1.0,"mirror":false,"chromatic_density":0.231,"complexity":0.402,"dissonance":0.071},{"voice":2,"pitch":52,"start":94.909,"duration":0.2727,"velocity":127,"measure":44,"beat":3.0,"subject_pos":-1,"motif":"","motif_pos":-1,"best_pos":6,"similarity":0.371,"stretto":false,"stretto_voices":0,"combination":[],"aug_dim":"","rhythm_ratio":1.0,"mirror":false,"chromatic_density":0.231,"complexity":0.402,"dissonance":0.071},{"voice":0,"pitch":70,"start":95.1817,"duration":0.2727,"velocity":127,"measure":44,"beat":3.5,"subject_pos":-1,"motif":"","motif_pos":-1,"best_pos":3,"similarity":0.529,"stretto":false,"stretto_voices":0,"combination":[],"aug_dim":"","rhythm_ratio":1.0,"mirror":false,"chromatic_density":0.231,"complexity":0.402,"dissonance":0.071},{"voice":2,"pitch":48,"start":95.1817,"duration":0.2727,"velocity":127,"measure":44,"beat":3.5,"subject_pos":-1,"motif":"","motif_pos":-1,"best_pos":4,"similarity":0.457,"stretto":false,"stretto_voices":0,"combination":[],"aug_dim":"","rhythm_ratio":1.0,"mirror":false,"chromatic_density":0.231,"complexity":0.402,"dissonance":0.071},{"voice":0,"pitch":69,"start":95.4544,"duration":0.2727,"velocity":127,"measure":44,"beat":4.0,"subject_pos":-1,"motif":"","motif_pos":-1,"best_pos":4,"similarity":0.536,"stretto":false,"stretto_voices":0,"combination":[],"aug_dim":"","rhythm_ratio":1.0,"mirror":false,"chromatic_density":0.231,"complexity":0.402,"dissonance":0.071},{"voice":2,"pitch":50,"start":95.4544,"duration":0.2727,"velocity":127,"measure":44,"beat":4.0,"subject_pos":-1,"motif":"","motif_pos":-1,"best_pos":5,"similarity":0.586,"stretto":false,"stretto_voices":0,"combination":[],"aug_dim":"","rhythm_ratio":1.0,"mirror":false,"chromatic_density":0.231,"complexity":0.402,"dissonance":0.071},{"voice":0,"pitch":67,"start":95.7272,"duration":0.2727,"velocity":127,"measure":44,"beat":4.5,"subject_pos":-1,"motif":"","motif_pos":-1,"best_pos":5,"similarity":0.493,"stretto":false,"stretto_voices":0,"combination":[],"aug_dim":"","rhythm_ratio":1.0,"mirror":false,"chromatic_density":0.231,"complexity":0.402,"dissonance":0.071},{"voice":2,"pitch":52,"start":95.7272,"duration":0.2727,"velocity":127,"measure":44,"beat":4.5,"subject_pos":-1,"motif":"","motif_pos":-1,"best_pos":6,"similarity":0.65,"stretto":false,"stretto_voices":0,"combination":[],"aug_dim":"","rhythm_ratio":1.0,"mirror":false,"chromatic_density":0.231,"complexity":0.402,"dissonance":0.071},{"voice":0,"pitch":69,"start":95.9999,"duration":0.2727,"velocity":127,"measure":45,"beat":1.0,"subject_pos":-1,"motif":"","motif_pos":-1,"best_pos":6,"similarity":0.371,"stretto":false,"stretto_voices":0,"combination":[],"aug_dim":"","rhythm_ratio":1.0,"mirror":false,"chromatic_density":0.375,"complexity":0.442,"dissonance":0.075},{"voice":2,"pitch":53,"start":95.9999,"duration":2.1818,"velocity":127,"measure":45,"beat":1.0,"subject_pos":-1,"motif":"","motif_pos":-1,"best_pos":7,"similarity":0.464,"stretto":false,"stretto_voices":0,"combination":[],"aug_dim":"","rhythm_ratio":1.0,"mirror":false,"chromatic_density":0.375,"complexity":0.442,"dissonance":0.075},{"voice":0,"pitch":84,"start":96.2726,"duration":0.2727,"velocity":127,"measure":45,"beat":1.5,"subject_pos":-1,"motif":"","motif_pos":-1,"best_pos":2,"similarity":0.371,"stretto":false,"stretto_voices":0,"combination":[],"aug_dim":"","rhythm_ratio":1.0,"mirror":false,"chromatic_density":0.375,"complexity":0.442,"dissonance":0.075},{"voice":0,"pitch":82,"start":96.5454,"duration":0.2727,"velocity":127,"measure":45,"beat":2.0,"subject_pos":-1,"motif":"","motif_pos":-1,"best_pos":3,"similarity":0.586,"stretto":false,"stretto_voices":0,"combination":[],"aug_dim":"","rhythm_ratio":1.0,"mirror":false,"chromatic_density":0.375,"complexity":0.442,"dissonance":0.075},{"voice":1,"pitch":60,"start":96.5454,"duration":0.5455,"velocity":127,"measure":45,"beat":2.0,"subject_pos":-1,"motif":"","motif_pos":-1,"best_pos":3,"similarity":0.193,"stretto":false,"stretto_voices":0,"combination":[],"aug_dim":"","rhythm_ratio":1.0,"mirror":false,"chromatic_density":0.375,"complexity":0.442,"dissonance":0.075},{"voice":0,"pitch":81,"start":96.8181,"duration":0.2727,"velocity":127,"measure":45,"beat":2.5,"subject_pos":-1,"motif":"","motif_pos":-1,"best_pos":4,"similarity":0.664,"stretto":false,"stretto_voices":0,"combination":[],"aug_dim":"","rhythm_ratio":1.0,"mirror":false,"chromatic_density":0.375,"complexity":0.442,"dissonance":0.075},{"voice":0,"pitch":82,"start":97.0908,"duration":0.2727,"velocity":127,"measure":45,"beat":3.0,"subject_pos":-1,"motif":"","motif_pos":-1,"best_pos":5,"similarity":0.507,"stretto":false,"stretto_voices":0,"combination":[],"aug_dim":"","rhythm_ratio":1.0,"mirror":false,"chromatic_density":0.375,"complexity":0.442,"dissonance":0.075},{"voice":1,"pitch":72,"start":97.0908,"duration":1.6364,"velocity":127,"measure":45,"beat":3.0,"subject_pos":-1,"motif":"","motif_pos":-1,"best_pos":1,"similarity":0.357,"stretto":false,"stretto_voices":0,"combination":[],"aug_dim":"","rhythm_ratio":1.0,"mirror":false,"chromatic_density":0.375,"complexity":0.442,"dissonance":0.075},{"voice":0,"pitch":81,"start":97.3635,"duration":0.2727,"velocity":127,"measure":45,"beat":3.5,"subject_pos":-1,"motif":"","motif_pos":-1,"best_pos":1,"similarity":0.429,"stretto":false,"stretto_voices":0,"combination":[],"aug_dim":"","rhythm_ratio":1.0,"mirror":false,"chromatic_density":0.375,"complexity":0.442,"dissonance":0.075},{"voice":0,"pitch":79,"start":97.6363,"duration":0.2727,"velocity":127,"measure":45,"beat":4.0,"subject_pos":-1,"motif":"","motif_pos":-1,"best_pos":2,"similarity":0.643,"stretto":false,"stretto_voices":0,"combination":[],"aug_dim":"","rhythm_ratio":1.0,"mirror":false,"chromatic_density":0.375,"complexity":0.442,"dissonance":0.075},{"voice":0,"pitch":77,"start":97.909,"duration":0.2727,"velocity":127,"measure":45,"beat":4.5,"subject_pos":-1,"motif":"","motif_pos":-1,"best_pos":3,"similarity":0.786,"stretto":false,"stretto_voices":0,"combination":[],"aug_dim":"","rhythm_ratio":1.0,"mirror":false,"chromatic_density":0.375,"complexity":0.442,"dissonance":0.075},{"voice":0,"pitch":76,"start":98.1817,"duration":0.2727,"velocity":127,"measure":46,"beat":1.0,"subject_pos":-1,"motif":"","motif_pos":-1,"best_pos":4,"similarity":0.893,"stretto":false,"stretto_voices":0,"combination":[],"aug_dim":"","rhythm_ratio":1.0,"mirror":false,"chromatic_density":0.429,"complexity":0.396,"dissonance":0.083},{"voice":2,"pitch":60,"start":98.1817,"duration":2.1818,"velocity":127,"measure":46,"beat":1.0,"subject_pos":-1,"motif":"","motif_pos":-1,"best_pos":1,"similarity":0.571,"stretto":false,"stretto_voices":0,"combination":[],"aug_dim":"","rhythm_ratio":1.0,"mirror":false,"chromatic_density":0.429,"complexity":0.396,"dissonance":0.083},{"voice":0,"pitch":77,"start":98.4544,"duration":0.2727,"velocity":127,"measure":46,"beat":1.5,"subject_pos":-1,"motif":"","motif_pos":-1,"best_pos":5,"similarity":0.821,"stretto":false,"stretto_voices":0,"combination":[],"aug_dim":"","rhythm_ratio":1.0,"mirror":false,"chromatic_density":0.429,"complexity":0.396,"dissonance":0.083},{"voice":0,"pitch":79,"start":98.7272,"duration":0.5455,"velocity":127,"measure":46,"beat":2.0,"subject_pos":-1,"motif":"","motif_pos":-1,"best_pos":6,"similarity":0.643,"stretto":false,"stretto_voices":0,"combination":[],"aug_dim":"","rhythm_ratio":1.0,"mirror":false,"chromatic_density":0.429,"complexity":0.396,"dissonance":0.083},{"voice":1,"pitch":70,"start":98.7272,"duration":0.2727,"velocity":127,"measure":46,"beat":2.0,"subject_pos":-1,"motif":"","motif_pos":-1,"best_pos":3,"similarity":0.45,"stretto":false,"stretto_voices":0,"combination":[],"aug_dim":"","rhythm_ratio":1.0,"mirror":false,"chromatic_density":0.429,"complexity":0.396,"dissonance":0.083},{"voice":1,"pitch":69,"start":98.9999,"duration":0.2727,"velocity":127,"measure":46,"beat":2.5,"subject_pos":-1,"motif":"","motif_pos":-1,"best_pos":1,"similarity":0.429,"stretto":false,"stretto_voices":0,"combination":[],"aug_dim":"","rhythm_ratio":1.0,"mirror":false,"chromatic_density":0.429,"complexity":0.396,"dissonance":0.083},{"voice":1,"pitch":67,"start":99.2726,"duration":0.2727,"velocity":127,"measure":46,"beat":3.0,"subject_pos":-1,"motif":"","motif_pos":-1,"best_pos":2,"similarity":0.579,"stretto":false,"stretto_voices":0,"combination":[],"aug_dim":"","rhythm_ratio":1.0,"mirror":false,"chromatic_density":0.429,"complexity":0.396,"dissonance":0.083},{"voice":1,"pitch":65,"start":99.5454,"duration":0.2727,"velocity":127,"measure":46,"beat":3.5,"subject_pos":-1,"motif":"","motif_pos":-1,"best_pos":3,"similarity":0.593,"stretto":false,"stretto_voices":0,"combination":[],"aug_dim":"","rhythm_ratio":1.0,"mirror":false,"chromatic_density":0.429,"complexity":0.396,"dissonance":0.083},{"voice":0,"pitch":79,"start":99.8181,"duration":0.5455,"velocity":127,"measure":46,"beat":4.0,"subject_pos":-1,"motif":"","motif_pos":-1,"best_pos":7,"similarity":0.357,"stretto":false,"stretto_voices":0,"combination":[],"aug_dim":"","rhythm_ratio":1.0,"mirror":false,"chromatic_density":0.429,"complexity":0.396,"dissonance":0.083},{"voice":1,"pitch":64,"start":99.8181,"duration":0.2727,"velocity":127,"measure":46,"beat":4.0,"subject_pos":-1,"motif":"","motif_pos":-1,"best_pos":4,"similarity":0.479,"stretto":false,"stretto_voices":0,"combination":[],"aug_dim":"","rhythm_ratio":1.0,"mirror":false,"chromatic_density":0.429,"complexity":0.396,"dissonance":0.083},{"voice":1,"pitch":62,"start":100.0908,"duration":0.2727,"velocity":127,"measure":46,"beat":4.5,"subject_pos":-1,"motif":"","motif_pos":-1,"best_pos":2,"similarity":0.536,"stretto":false,"stretto_voices":0,"combination":[],"aug_dim":"","rhythm_ratio":1.0,"mirror":false,"chromatic_density":0.429,"complexity":0.396,"dissonance":0.083},{"voice":0,"pitch":79,"start":100.3635,"duration":0.5455,"velocity":127,"measure":47,"beat":1.0,"subject_pos":-1,"motif":"","motif_pos":-1,"best_pos":1,"similarity":0.357,"stretto":false,"stretto_voices":0,"combination":[],"aug_dim":"","rhythm_ratio":1.0,"mirror":false,"chromatic_density":0.0,"complexity":0.414,"dissonance":0.167},{"voice":1,"pitch":60,"start":100.3635,"duration":0.2727,"velocity":127,"measure":47,"beat":1.0,"subject_pos":-1,"motif":"","motif_pos":-1,"best_pos":3,"similarity":0.571,"stretto":false,"stretto_voices":0,"combination":[],"aug_dim":"","rhythm_ratio":1.0,"mirror":false,"chromatic_density":0.0,"complexity":0.414,"dissonance":0.167},{"voice":2,"pitch":57,"start":100.3635,"duration":2.1818,"velocity":127,"measure":47,"beat":1.0,"subject_pos":-1,"motif":"","motif_pos":-1,"best_pos":2,"similarity":0.643,"stretto":false,"stretto_voices":0,"combination":[],"aug_dim":"","rhythm_ratio":1.0,"mirror":false,"chromatic_density":0.0,"complexity":0.414,"dissonance":0.167},{"voice":1,"pitch":58,"start":100.6363,"duration":0.2727,"velocity":127,"measure":47,"beat":1.5,"subject_pos":-1,"motif":"","motif_pos":-1,"best_pos":4,"similarity":0.607,"stretto":false,"stretto_voices":0,"combination":[],"aug_dim":"","rhythm_ratio":1.0,"mirror":false,"chromatic_density":0.0,"complexity":0.414,"dissonance":0.167},{"voice":0,"pitch":77,"start":100.909,"duration":0.5455,"velocity":127,"measure":47,"beat":2.0,"subject_pos":-1,"motif":"","motif_pos":-1,"best_pos":2,"similarity":0.464,"stretto":false,"stretto_voices":0,"combination":[],"aug_dim":"","rhythm_ratio":1.0,"mirror":false,"chromatic_density":0.0,"complexity":0.414,"dissonance":0.167},{"voice":1,"pitch":60,"start":100.909,"duration":0.2727,"velocity":127,"measure":47,"beat":2.0,"subject_pos":-1,"motif":"","motif_pos":-1,"best_pos":5,"similarity":0.607,"stretto":false,"stretto_voices":0,"combination":[],"aug_dim":"","rhythm_ratio":1.0,"mirror":false,"chromatic_density":0.0,"complexity":0.414,"dissonance":0.167},{"voice":1,"pitch":62,"start":101.1817,"duration":0.2727,"velocity":127,"measure":47,"beat":2.5,"subject_pos":-1,"motif":"","motif_pos":-1,"best_pos":6,"similarity":0.536,"stretto":false,"stretto_voices":0,"combination":[],"aug_dim":"","rhythm_ratio":1.0,"mirror":false,"chromatic_density":0.0,"complexity":0.414,"dissonance":0.167},{"voice":1,"pitch":64,"start":101.4544,"duration":0.2727,"velocity":127,"measure":47,"beat":3.0,"subject_pos":-1,"motif":"","motif_pos":-1,"best_pos":6,"similarity":0.364,"stretto":false,"stretto_voices":0,"combination":[],"aug_dim":"","rhythm_ratio":1.0,"mirror":false,"chromatic_density":0.0,"complexity":0.414,"dissonance":0.167},{"voice":0,"pitch":72,"start":101.7272,"duration":0.2727,"velocity":127,"measure":47,"beat":3.5,"subject_pos":-1,"motif":"","motif_pos":-1,"best_pos":3,"similarity":0.429,"stretto":false,"stretto_voices":0,"combination":[],"aug_dim":"","rhythm_ratio":1.0,"mirror":false,"chromatic_density":0.0,"complexity":0.414,"dissonance":0.167},{"voice":1,"pitch":60,"start":101.7272,"duration":0.2727,"velocity":127,"measure":47,"beat":3.5,"subject_pos":-1,"motif":"","motif_pos":-1,"best_pos":4,"similarity":0.393,"stretto":false,"stretto_voices":0,"combination":[],"aug_dim":"","rhythm_ratio":1.0,"mirror":false,"chromatic_density":0.0,"complexity":0.414,"dissonance":0.167},{"voice":0,"pitch":70,"start":101.9999,"duration":0.2727,"velocity":127,"measure":47,"beat":4.0,"subject_pos":-1,"motif":"","motif_pos":-1,"best_pos":4,"similarity":0.4,"stretto":false,"stretto_voices":0,"combination":[],"aug_dim":"","rhythm_ratio":1.0,"mirror":false,"chromatic_density":0.0,"complexity":0.414,"dissonance":0.167},{"voice":1,"pitch":62,"start":101.9999,"duration":0.2727,"velocity":127,"measure":47,"beat":4.0,"subject_pos":-1,"motif":"","motif_pos":-1,"best_pos":5,"similarity":0.586,"stretto":false,"stretto_voices":0,"combination":[],"aug_dim":"","rhythm_ratio":1.0,"mirror":false,"chromatic_density":0.0,"complexity":0.414,"dissonance":0.167},{"voice":0,"pitch":72,"start":102.2726,"duration":0.2727,"velocity":127,"measure":47,"beat":4.5,"subject_pos":-1,"motif":"","motif_pos":-1,"best_pos":6,"similarity":0.336,"stretto":false,"stretto_voices":0,"combination":[],"aug_dim":"","rhythm_ratio":1.0,"mirror":false,"chromatic_density":0.0,"complexity":0.414,"dissonance":0.167},{"voice":1,"pitch":64,"start":102.2726,"duration":0.2727,"velocity":127,"measure":47,"beat":4.5,"subject_pos":-1,"motif":"","motif_pos":-1,"best_pos":6,"similarity":0.65,"stretto":false,"stretto_voices":0,"combination":[],"aug_dim":"","rhythm_ratio":1.0,"mirror":false,"chromatic_density":0.0,"complexity":0.414,"dissonance":0.167},{"voice":0,"pitch":69,"start":102.5454,"duration":0.5455,"velocity":127,"measure":48,"beat":1.0,"subject_pos":-1,"motif":"","motif_pos":-1,"best_pos":0,"similarity":0.446,"stretto":false,"stretto_voices":0,"combination":[],"aug_dim":"","rhythm_ratio":1.0,"mirror":false,"chromatic_density":0.3,"complexity":0.429,"dissonance":0.137},{"voice":1,"pitch":65,"start":102.5454,"duration":0.2727,"velocity":127,"measure":48,"beat":1.0,"subject_pos":-1,"motif":"","motif_pos":-1,"best_pos":3,"similarity":0.55,"stretto":false,"stretto_voices":0,"combination":[],"aug_dim":"","rhythm_ratio":1.0,"mirror":false,"chromatic_density":0.3,"complexity":0.429,"dissonance":0.137},{"voice":2,"pitch":53,"start":102.5454,"duration":2.1818,"velocity":127,"measure":48,"beat":1.0,"subject_pos":-1,"motif":"","motif_pos":-1,"best_pos":3,"similarity":0.786,"stretto":false,"stretto_voices":0,"combination":[],"aug_dim":"","rhythm_ratio":1.0,"mirror":false,"chromatic_density":0.3,"complexity":0.429,"dissonance":0.137},{"voice":1,"pitch":64,"start":102.8181,"duration":0.2727,"velocity":127,"measure":48,"beat":1.5,"subject_pos":-1,"motif":"","motif_pos":-1,"best_pos":4,"similarity":0.771,"stretto":false,"stretto_voices":0,"combination":[],"aug_dim":"","rhythm_ratio":1.0,"mirror":false,"chromatic_density":0.3,"complexity":0.429,"dissonance":0.137},{"voice":0,"pitch":74,"start":103.0908,"duration":0.5455,"velocity":127,"measure":48,"beat":2.0,"subject_pos":-1,"motif":"","motif_pos":-1,"best_pos":1,"similarity":0.625,"stretto":false,"stretto_voices":0,"combination":[],"aug_dim":"","rhythm_ratio":1.0,"mirror":false,"chromatic_density":0.3,"complexity":0.429,"dissonance":0.137},{"voice":1,"pitch":65,"start":103.0908,"duration":0.2727,"velocity":127,"measure":48,"beat":2.0,"subject_pos":-1,"motif":"","motif_pos":-1,"best_pos":5,"similarity":0.793,"stretto":false,"stretto_voices":0,"combination":[],"aug_dim":"","rhythm_ratio":1.0,"mirror":false,"chromatic_density":0.3,"complexity":0.429,"dissonance":0.137},{"voice":1,"pitch":67,"start":103.3635,"duration":0.2727,"velocity":127,"measure":48,"beat":2.5,"subject_pos":-1,"motif":"","motif_pos":-1,"best_pos":6,"similarity":0.643,"stretto":false,"stretto_voices":0,"combination":[],"aug_dim":"","rhythm_ratio":1.0,"mirror":false,"chromatic_density":0.3,"complexity":0.429,"dissonance":0.137},{"voice":0,"pitch":72,"start":103.6363,"duration":0.5455,"velocity":127,"measure":48,"beat":3.0,"subject_pos":-1,"motif":"","motif_pos":-1,"best_pos":3,"similarity":0.579,"stretto":false,"stretto_voices":0,"combination":[],"aug_dim":"","rhythm_ratio":1.0,"mirror":false,"chromatic_density":0.3,"complexity":0.429,"dissonance":0.137},{"voice":1,"pitch":69,"start":103.6363,"duration":0.2727,"velocity":127,"measure":48,"beat":3.0,"subject_pos":-1,"motif":"","motif_pos":-1,"best_pos":6,"similarity":0.375,"stretto":false,"stretto_voices":0,"combination":[],"aug_dim":"","rhythm_ratio":1.0,"mirror":false,"chromatic_density":0.3,"complexity":0.429,"dissonance":0.137},{"voice":1,"pitch":65,"start":103.909,"duration":0.2727,"velocity":127,"measure":48,"beat":3.5,"subject_pos":-1,"motif":"","motif_pos":-1,"best_pos":5,"similarity":0.371,"stretto":false,"stretto_voices":0,"combination":[],"aug_dim":"","rhythm_ratio":1.0,"mirror":false,"chromatic_density":0.3,"complexity":0.429,"dissonance":0.137},{"voice":0,"pitch":71,"start":104.1817,"duration":0.5455,"velocity":127,"measure":48,"beat":4.0,"subject_pos":-1,"motif":"","motif_pos":-1,"best_pos":4,"similarity":0.675,"stretto":false,"stretto_voices":0,"combination":[],"aug_dim":"","rhythm_ratio":1.0,"mirror":false,"chromatic_density":0.3,"complexity":0.429,"dissonance":0.137},{"voice":1,"pitch":67,"start":104.1817,"duration":0.2727,"velocity":127,"measure":48,"beat":4.0,"subject_pos":-1,"motif":"","motif_pos":-1,"best_pos":5,"similarity":0.514,"stretto":false,"stretto_voices":0,"combination":[],"aug_dim":"","rhythm_ratio":1.0,"mirror":false,"chromatic_density":0.3,"complexity":0.429,"dissonance":0.137},{"voice":1,"pitch":69,"start":104.4544,"duration":0.2727,"velocity":127,"measure":48,"beat":4.5,"subject_pos":-1,"motif":"","motif_pos":-1,"best_pos":6,"similarity":0.507,"stretto":false,"stretto_voices":0,"combination":[],"aug_dim":"","rhythm_ratio":1.0,"mirror":false,"chromatic_density":0.3,"complexity":0.429,"dissonance":0.137},{"voice":0,"pitch":72,"start":104.7272,"duration":0.5455,"velocity":127,"measure":49,"beat":1.0,"subject_pos":-1,"motif":"","motif_pos":-1,"best_pos":5,"similarity":0.529,"stretto":false,"stretto_voices":0,"combination":[],"aug_dim":"","rhythm_ratio":1.0,"mirror":false,"chromatic_density":0.333,"complexity":0.414,"dissonance":0.247},{"voice":1,"pitch":69,"start":104.7272,"duration":0.5455,"velocity":127,"measure":49,"beat":1.0,"subject_pos":-1,"motif":"","motif_pos":-1,"best_pos":1,"similarity":0.336,"stretto":false,"stretto_voices":0,"combination":[],"aug_dim":"","rhythm_ratio":1.0,"mirror":false,"chromatic_density":0.333,"complexity":0.414,"dissonance":0.247},{"voice":2,"pitch":52,"start":104.7272,"duration":2.1818,"velocity":127,"measure":49,"beat":1.0,"subject_pos":-1,"motif":"","motif_pos":-1,"best_pos":4,"similarity":0.857,"stretto":false,"stretto_voices":0,"combination":[],"aug_dim":"","rhythm_ratio":1.0,"mirror":false,"chromatic_density":0.333,"complexity":0.414,"dissonance":0.247},{"voice":0,"pitch":70,"start":105.2726,"duration":0.2727,"velocity":127,"measure":49,"beat":2.0,"subject_pos":-1,"motif":"","motif_pos":-1,"best_pos":3,"similarity":0.593,"stretto":false,"stretto_voices":0,"combination":[],"aug_dim":"","rhythm_ratio":1.0,"mirror":false,"chromatic_density":0.333,"complexity":0.414,"dissonance":0.247},{"voice":1,"pitch":67,"start":105.2726,"duration":0.5455,"velocity":127,"measure":49,"beat":2.0,"subject_pos":-1,"motif":"","motif_pos":-1,"best_pos":2,"similarity":0.421,"stretto":false,"stretto_voices":0,"combination":[],"aug_dim":"","rhythm_ratio":1.0,"mirror":false,"chromatic_density":0.333,"complexity":0.414,"dissonance":0.247},{"voice":0,"pitch":69,"start":105.5453,"duration":0.2727,"velocity":127,"measure":49,"beat":2.5,"subject_pos":-1,"motif":"","motif_pos":-1,"best_pos":4,"similarity":0.664,"stretto":false,"stretto_voices":0,"combination":[],"aug_dim":"","rhythm_ratio":1.0,"mirror":false,"chromatic_density":0.333,"complexity":0.414,"dissonance":0.247},{"voice":0,"pitch":70,"start":105.8181,"duration":1.0909,"velocity":127,"measure":49,"beat":3.0,"subject_pos":-1,"motif":"","motif_pos":-1,"best_pos":5,"similarity":0.493,"stretto":false,"stretto_voices":0,"combination":[],"aug_dim":"","rhythm_ratio":1.0,"mirror":false,"chromatic_density":0.333,"complexity":0.414,"dissonance":0.247},{"voice":1,"pitch":67,"start":106.0908,"duration":0.2727,"velocity":127,"measure":49,"beat":3.5,"subject_pos":-1,"motif":"","motif_pos":-1,"best_pos":3,"similarity":0.457,"stretto":false,"stretto_voices":0,"combination":[],"aug_dim":"","rhythm_ratio":1.0,"mirror":false,"chromatic_density":0.333,"complexity":0.414,"dissonance":0.247},{"voice":1,"pitch":65,"start":106.3635,"duration":0.2727,"velocity":127,"measure":49,"beat":4.0,"subject_pos":-1,"motif":"","motif_pos":-1,"best_pos":4,"similarity":0.532,"stretto":false,"stretto_voices":0,"combination":[],"aug_dim":"","rhythm_ratio":1.0,"mirror":false,"chromatic_density":0.333,"complexity":0.414,"dissonance":0.247},{"voice":1,"pitch":67,"start":106.6363,"duration":0.2727,"velocity":127,"measure":49,"beat":4.5,"subject_pos":-1,"motif":"","motif_pos":-1,"best_pos":5,"similarity":0.543,"stretto":false,"stretto_voices":0,"combination":[],"aug_dim":"","rhythm_ratio":1.0,"mirror":false,"chromatic_density":0.333,"complexity":0.414,"dissonance":0.247},{"voice":0,"pitch":69,"start":106.909,"duration":0.5455,"velocity":127,"measure":50,"beat":1.0,"subject_pos":-1,"motif":"","motif_pos":-1,"best_pos":4,"similarity":0.343,"stretto":false,"stretto_voices":0,"combination":[],"aug_dim":"","rhythm_ratio":1.0,"mirror":false,"chromatic_density":0.3,"complexity":0.474,"dissonance":0.083},{"voice":1,"pitch":69,"start":106.909,"duration":0.2727,"velocity":127,"measure":50,"beat":1.0,"subject_pos":-1,"motif":"","motif_pos":-1,"best_pos":6,"similarity":0.464,"stretto":false,"stretto_voices":0,"combination":[],"aug_dim":"","rhythm_ratio":1.0,"mirror":false,"chromatic_density":0.3,"complexity":0.474,"dissonance":0.083},{"voice":2,"pitch":53,"start":106.909,"duration":1.0909,"velocity":127,"measure":50,"beat":1.0,"subject_pos":-1,"motif":"","motif_pos":-1,"best_pos":5,"similarity":0.821,"stretto":false,"stretto_voices":0,"combination":[],"aug_dim":"","rhythm_ratio":1.0,"mirror":false,"chromatic_density":0.3,"complexity":0.474,"dissonance":0.083},{"voice":1,"pitch":72,"start":107.1817,"duration":0.2727,"velocity":127,"measure":50,"beat":1.5,"subject_pos":-1,"motif":"","motif_pos":-1,"best_pos":1,"similarity":0.411,"stretto":false,"stretto_voices":0,"combination":[],"aug_dim":"","rhythm_ratio":1.0,"mirror":false,"chromatic_density":0.3,"complexity":0.474,"dissonance":0.083},{"voice":0,"pitch":77,"start":107.4544,"duration":0.5455,"velocity":127,"measure":50,"beat":2.0,"subject_pos":-1,"motif":"","motif_pos":-1,"best_pos":1,"similarity":0.393,"stretto":false,"stretto_voices":0,"combination":[],"aug_dim":"","rhythm_ratio":1.0,"mirror":false,"chromatic_density":0.3,"complexity":0.474,"dissonance":0.083},{"voice":1,"pitch":70,"start":107.4544,"duration":0.2727,"velocity":127,"measure":50,"beat":2.0,"subject_pos":-1,"motif":"","motif_pos":-1,"best_pos":3,"similarity":0.586,"stretto":false,"stretto_voices":0,"combination":[],"aug_dim":"","rhythm_ratio":1.0,"mirror":false,"chromatic_density":0.3,"complexity":0.474,"dissonance":0.083},{"voice":1,"pitch":69,"start":107.7272,"duration":0.2727,"velocity":127,"measure":50,"beat":2.5,"subject_pos":-1,"motif":"","motif_pos":-1,"best_pos":4,"similarity":0.664,"stretto":false,"stretto_voices":0,"combination":[],"aug_dim":"","rhythm_ratio":1.0,"mirror":false,"chromatic_density":0.3,"complexity":0.474,"dissonance":0.083},{"voice":0,"pitch":74,"start":107.9999,"duration":1.3636,"velocity":127,"measure":50,"beat":3.0,"subject_pos":-1,"motif":"","motif_pos":-1,"best_pos":3,"similarity":0.45,"stretto":false,"stretto_voices":0,"combination":[],"aug_dim":"","rhythm_ratio":1.0,"mirror":false,"chromatic_density":0.3,"complexity":0.474,"dissonance":0.083},{"voice":1,"pitch":70,"start":107.9999,"duration":0.2727,"velocity":127,"measure":50,"beat":3.0,"subject_pos":-1,"motif":"","motif_pos":-1,"best_pos":5,"similarity":0.507,"stretto":false,"stretto_voices":0,"combination":[],"aug_dim":"","rhythm_ratio":1.0,"mirror":false,"chromatic_density":0.3,"complexity":0.474,"dissonance":0.083},{"voice":2,"pitch":55,"start":107.9999,"duration":1.0909,"velocity":127,"measure":50,"beat":3.0,"subject_pos":-1,"motif":"","motif_pos":-1,"best_pos":6,"similarity":0.643,"stretto":false,"stretto_voices":0,"combination":[],"aug_dim":"","rhythm_ratio":1.0,"mirror":false,"chromatic_density":0.3,"complexity":0.474,"dissonance":0.083},{"voice":1,"pitch":69,"start":108.2726,"duration":0.2727,"velocity":127,"measure":50,"beat":3.5,"subject_pos":-1,"motif":"","motif_pos":-1,"best_pos":1,"similarity":0.429,"stretto":false,"stretto_voices":0,"combination":[],"aug_dim":"","rhythm_ratio":1.0,"mirror":false,"chromatic_density":0.3,"complexity":0.474,"dissonance":0.083},{"voice":1,"pitch":67,"start":108.5453,"duration":0.2727,"velocity":127,"measure":50,"beat":4.0,"subject_pos":-1,"motif":"","motif_pos":-1,"best_pos":2,"similarity":0.579,"stretto":false,"stretto_voices":0,"combination":[],"aug_dim":"","rhythm_ratio":1.0,"mirror":false,"chromatic_density":0.3,"complexity":0.474,"dissonance":0.083},{"voice":1,"pitch":65,"start":108.8181,"duration":0.2727,"velocity":127,"measure":50,"beat":4.5,"subject_pos":-1,"motif":"enigmatic_cell","motif_pos":0,"best_pos":0,"similarity":1.0,"stretto":false,"stretto_voices":0,"combination":[],"aug_dim":"","rhythm_ratio":1.0,"mirror":false,"chromatic_density":0.3,"complexity":0.474,"dissonance":0.083},{"voice":1,"pitch":64,"start":109.0908,"duration":0.2727,"velocity":127,"measure":51,"beat":1.0,"subject_pos":-1,"motif":"enigmatic_cell","motif_pos":1,"best_pos":1,"similarity":1.0,"stretto":false,"stretto_voices":0,"combination":[],"aug_dim":"","rhythm_ratio":1.0,"mirror":false,"chromatic_density":0.308,"complexity":0.433,"dissonance":0.159},{"voice":2,"pitch":57,"start":109.0908,"duration":2.7273,"velocity":127,"measure":51,"beat":1.0,"subject_pos":-1,"motif":"","motif_pos":-1,"best_pos":6,"similarity":0.661,"stretto":false,"stretto_voices":0,"combination":[],"aug_dim":"","rhythm_ratio":1.0,"mirror":false,"chromatic_density":0.308,"complexity":0.433,"dissonance":0.159},{"voice":0,"pitch":72,"start":109.3635,"duration":0.2727,"velocity":127,"measure":51,"beat":1.5,"subject_pos":-1,"motif":"","motif_pos":-1,"best_pos":2,"similarity":0.643,"stretto":false,"stretto_voices":0,"combination":[],"aug_dim":"","rhythm_ratio":1.0,"mirror":false,"chromatic_density":0.308,"complexity":0.433,"dissonance":0.159},{"voice":1,"pitch":69,"start":109.3635,"duration":0.2727,"velocity":127,"measure":51,"beat":1.5,"subject_pos":-1,"motif":"enigmatic_cell","motif_pos":2,"best_pos":2,"similarity":1.0,"stretto":false,"stretto_voices":0,"combination":[],"aug_dim":"","rhythm_ratio":1.0,"mirror":false,"chromatic_density":0.308,"complexity":0.433,"dissonance":0.159},{"voice":0,"pitch":70,"start":109.6363,"duration":0.2727,"velocity":127,"measure":51,"beat":2.0,"subject_pos":-1,"motif":"","motif_pos":-1,"best_pos":3,"similarity":0.721,"stretto":false,"stretto_voices":0,"combination":[],"aug_dim":"","rhythm_ratio":1.0,"mirror":false,"chromatic_density":0.308,"complexity":0.433,"dissonance":0.159},{"voice":1,"pitch":67,"start":109.6363,"duration":0.2727,"velocity":127,"measure":51,"beat":2.0,"subject_pos":-1,"motif":"","motif_pos":-1,"best_pos":2,"similarity":0.593,"stretto":false,"stretto_voices":0,"combination":[],"aug_dim":"","rhythm_ratio":1.0,"mirror":false,"chromatic_density":0.308,"complexity":0.433,"dissonance":0.159},{"voice":0,"pitch":69,"start":109.909,"duration":0.2727,"velocity":127,"measure":51,"beat":2.5,"subject_pos":-1,"motif":"","motif_pos":-1,"best_pos":4,"similarity":0.736,"stretto":false,"stretto_voices":0,"combination":[],"aug_dim":"","rhythm_ratio":1.0,"mirror":false,"chromatic_density":0.308,"complexity":0.433,"dissonance":0.159},{"voice":1,"pitch":65,"start":109.909,"duration":0.2727,"velocity":127,"measure":51,"beat":2.5,"subject_pos":-1,"motif":"","motif_pos":-1,"best_pos":3,"similarity":0.407,"stretto":false,"stretto_voices":0,"combination":[],"aug_dim":"","rhythm_ratio":1.0,"mirror":false,"chromatic_density":0.308,"complexity":0.433,"dissonance":0.159},{"voice":0,"pitch":70,"start":110.1817,"duration":0.2727,"velocity":127,"measure":51,"beat":3.0,"subject_pos":-1,"motif":"","motif_pos":-1,"best_pos":5,"similarity":0.507,"stretto":false,"stretto_voices":0,"combination":[],"aug_dim":"","rhythm_ratio":1.0,"mirror":false,"chromatic_density":0.308,"complexity":0.433,"dissonance":0.159},{"voice":1,"pitch":67,"start":110.1817,"duration":0.2727,"velocity":127,"measure":51,"beat":3.0,"subject_pos":-1,"motif":"","motif_pos":-1,"best_pos":1,"similarity":0.386,"stretto":false,"stretto_voices":0,"combination":[],"aug_dim":"","rhythm_ratio":1.0,"mirror":false,"chromatic_density":0.308,"complexity":0.433,"dissonance":0.159},{"voice":0,"pitch":69,"start":110.4544,"duration":0.2727,"velocity":127,"measure":51,"beat":3.5,"subject_pos":-1,"motif":"","motif_pos":-1,"best_pos":1,"similarity":0.429,"stretto":false,"stretto_voices":0,"combination":[],"aug_dim":"","rhythm_ratio":1.0,"mirror":false,"chromatic_density":0.308,"complexity":0.433,"dissonance":0.159},{"voice":1,"pitch":65,"start":110.4544,"duration":0.2727,"velocity":127,"measure":51,"beat":3.5,"subject_pos":-1,"motif":"","motif_pos":-1,"best_pos":3,"similarity":0.464,"stretto":false,"stretto_voices":0,"combination":[],"aug_dim":"","rhythm_ratio":1.0,"mirror":false,"chromatic_density":0.308,"complexity":0.433,"dissonance":0.159},{"voice":0,"pitch":67,"start":110.7272,"duration":0.2727,"velocity":127,"measure":51,"beat":4.0,"subject_pos":-1,"motif":"","motif_pos":-1,"best_pos":2,"similarity":0.643,"stretto":false,"stretto_voices":0,"combination":[],"aug_dim":"","rhythm_ratio":1.0,"mirror":false,"chromatic_density":0.308,"complexity":0.433,"dissonance":0.159},{"voice":1,"pitch":64,"start":110.7272,"duration":0.2727,"velocity":127,"measure":51,"beat":4.0,"subject_pos":-1,"motif":"","motif_pos":-1,"best_pos":4,"similarity":0.443,"stretto":false,"stretto_voices":0,"combination":[],"aug_dim":"","rhythm_ratio":1.0,"mirror":false,"chromatic_density":0.308,"complexity":0.433,"dissonance":0.159},{"voice":0,"pitch":65,"start":110.9999,"duration":0.2727,"velocity":127,"measure":51,"beat":4.5,"subject_pos":-1,"motif":"","motif_pos":-1,"best_pos":3,"similarity":0.786,"stretto":false,"stretto_voices":0,"combination":[],"aug_dim":"","rhythm_ratio":1.0,"mirror":false,"chromatic_density":0.308,"complexity":0.433,"dissonance":0.159},{"voice":1,"pitch":62,"start":110.9999,"duration":0.2727,"velocity":127,"measure":51,"beat":4.5,"subject_pos":-1,"motif":"","motif_pos":-1,"best_pos":2,"similarity":0.536,"stretto":false,"stretto_voices":0,"combination":[],"aug_dim":"","rhythm_ratio":1.0,"mirror":false,"chromatic_density":0.308,"complexity":0.433,"dissonance":0.159},{"voice":0,"pitch":64,"start":111.2726,"duration":0.2727,"velocity":127,"measure":52,"beat":1.0,"subject_pos":-1,"motif":"","motif_pos":-1,"best_pos":4,"similarity":0.893,"stretto":false,"stretto_voices":0,"combination":[],"aug_dim":"","rhythm_ratio":1.0,"mirror":false,"chromatic_density":0.375,"complexity":0.427,"dissonance":0.239},{"voice":1,"pitch":60,"start":111.2726,"duration":1.0909,"velocity":127,"measure":52,"beat":1.0,"subject_pos":-1,"motif":"","motif_pos":-1,"best_pos":3,"similarity":0.571,"stretto":false,"stretto_voices":0,"combination":[],"aug_dim":"","rhythm_ratio":1.0,"mirror":false,"chromatic_density":0.375,"complexity":0.427,"dissonance":0.239},{"voice":0,"pitch":65,"start":111.5453,"duration":0.2727,"velocity":127,"measure":52,"beat":1.5,"subject_pos":-1,"motif":"","motif_pos":-1,"best_pos":5,"similarity":0.821,"stretto":false,"stretto_voices":0,"combination":[],"aug_dim":"","rhythm_ratio":1.0,"mirror":false,"chromatic_density":0.375,"complexity":0.427,"dissonance":0.239},{"voice":0,"pitch":67,"start":111.8181,"duration":0.2727,"velocity":127,"measure":52,"beat":2.0,"subject_pos":-1,"motif":"","motif_pos":-1,"best_pos":6,"similarity":0.643,"stretto":false,"stretto_voices":0,"combination":[],"aug_dim":"","rhythm_ratio":1.0,"mirror":false,"chromatic_density":0.375,"complexity":0.427,"dissonance":0.239},{"voice":2,"pitch":58,"start":111.8181,"duration":0.5455,"velocity":127,"measure":52,"beat":2.0,"subject_pos":-1,"motif":"","motif_pos":-1,"best_pos":7,"similarity":0.464,"stretto":false,"stretto_voices":0,"combination":[],"aug_dim":"","rhythm_ratio":1.0,"mirror":false,"chromatic_density":0.375,"complexity":0.427,"dissonance":0.239},{"voice":0,"pitch":69,"start":112.0908,"duration":0.2727,"velocity":127,"measure":52,"beat":2.5,"subject_pos":-1,"motif":"","motif_pos":-1,"best_pos":6,"similarity":0.661,"stretto":false,"stretto_voices":0,"combination":[],"aug_dim":"","rhythm_ratio":1.0,"mirror":false,"chromatic_density":0.375,"complexity":0.427,"dissonance":0.239},{"voice":0,"pitch":70,"start":112.3635,"duration":1.3636,"velocity":127,"measure":52,"beat":3.0,"subject_pos":-1,"motif":"","motif_pos":-1,"best_pos":7,"similarity":0.464,"stretto":false,"stretto_voices":0,"combination":[],"aug_dim":"","rhythm_ratio":1.0,"mirror":false,"chromatic_density":0.375,"complexity":0.427,"dissonance":0.239},{"voice":2,"pitch":57,"start":112.3635,"duration":0.5455,"velocity":127,"measure":52,"beat":3.0,"subject_pos":-1,"motif":"","motif_pos":-1,"best_pos":2,"similarity":0.371,"stretto":false,"stretto_voices":0,"combination":[],"aug_dim":"","rhythm_ratio":1.0,"mirror":false,"chromatic_density":0.375,"complexity":0.427,"dissonance":0.239},{"voice":1,"pitch":60,"start":112.6363,"duration":0.2727,"velocity":127,"measure":52,"beat":3.5,"subject_pos":-1,"motif":"","motif_pos":-1,"best_pos":4,"similarity":0.643,"stretto":false,"stretto_voices":0,"combination":[],"aug_dim":"","rhythm_ratio":1.0,"mirror":false,"chromatic_density":0.375,"complexity":0.427,"dissonance":0.239},{"voice":1,"pitch":62,"start":112.909,"duration":0.2727,"velocity":127,"measure":52,"beat":4.0,"subject_pos":-1,"motif":"","motif_pos":-1,"best_pos":5,"similarity":0.679,"stretto":false,"stretto_voices":0,"combination":[],"aug_dim":"","rhythm_ratio":1.0,"mirror":false,"chromatic_density":0.375,"complexity":0.427,"dissonance":0.239},{"voice":2,"pitch":55,"start":112.909,"duration":0.5455,"velocity":127,"measure":52,"beat":4.0,"subject_pos":-1,"motif":"","motif_pos":-1,"best_pos":2,"similarity":0.436,"stretto":false,"stretto_voices":0,"combination":[],"aug_dim":"","rhythm_ratio":1.0,"mirror":false,"chromatic_density":0.375,"complexity":0.427,"dissonance":0.239},{"voice":1,"pitch":64,"start":113.1817,"duration":0.2727,"velocity":127,"measure":52,"beat":4.5,"subject_pos":-1,"motif":"","motif_pos":-1,"best_pos":6,"similarity":0.679,"stretto":false,"stretto_voices":0,"combination":[],"aug_dim":"","rhythm_ratio":1.0,"mirror":false,"chromatic_density":0.375,"complexity":0.427,"dissonance":0.239},{"voice":1,"pitch":65,"start":113.4544,"duration":1.3636,"velocity":127,"measure":53,"beat":1.0,"subject_pos":-1,"motif":"","motif_pos":-1,"best_pos":3,"similarity":0.479,"stretto":false,"stretto_voices":0,"combination":[],"aug_dim":"","rhythm_ratio":1.0,"mirror":false,"chromatic_density":0.333,"complexity":0.402,"dissonance":0.177},{"voice":2,"pitch":53,"start":113.4544,"duration":0.5455,"velocity":127,"measure":53,"beat":1.0,"subject_pos":-1,"motif":"","motif_pos":-1,"best_pos":2,"similarity":0.375,"stretto":false,"stretto_voices":0,"combination":[],"aug_dim":"","rhythm_ratio":1.0,"mirror":false,"chromatic_density":0.333,"complexity":0.402,"dissonance":0.177},{"voice":0,"pitch":69,"start":113.7272,"duration":0.2727,"velocity":127,"measure":53,"beat":1.5,"subject_pos":-1,"motif":"","motif_pos":-1,"best_pos":4,"similarity":0.557,"stretto":false,"stretto_voices":0,"combination":[],"aug_dim":"","rhythm_ratio":1.0,"mirror":false,"chromatic_density":0.333,"complexity":0.402,"dissonance":0.177},{"voice":0,"pitch":71,"start":113.9999,"duration":0.2727,"velocity":127,"measure":53,"beat":2.0,"subject_pos":-1,"motif":"","motif_pos":-1,"best_pos":6,"similarity":0.625,"stretto":false,"stretto_voices":0,"combination":[],"aug_dim":"","rhythm_ratio":1.0,"mirror":false,"chromatic_density":0.333,"complexity":0.402,"dissonance":0.177},{"voice":2,"pitch":62,"start":113.9999,"duration":0.5455,"velocity":127,"measure":53,"beat":2.0,"subject_pos":-1,"motif":"","motif_pos":-1,"best_pos":1,"similarity":0.429,"stretto":false,"stretto_voices":0,"combination":[],"aug_dim":"","rhythm_ratio":1.0,"mirror":false,"chromatic_density":0.333,"complexity":0.402,"dissonance":0.177},{"voice":0,"pitch":72,"start":114.2726,"duration":0.2727,"velocity":127,"measure":53,"beat":2.5,"subject_pos":-1,"motif":"","motif_pos":-1,"best_pos":5,"similarity":0.618,"stretto":false,"stretto_voices":0,"combination":[],"aug_dim":"","rhythm_ratio":1.0,"mirror":false,"chromatic_density":0.333,"complexity":0.402,"dissonance":0.177},{"voice":0,"pitch":74,"start":114.5453,"duration":1.3636,"velocity":127,"measure":53,"beat":3.0,"subject_pos":-1,"motif":"","motif_pos":-1,"best_pos":6,"similarity":0.464,"stretto":false,"stretto_voices":0,"combination":[],"aug_dim":"","rhythm_ratio":1.0,"mirror":false,"chromatic_density":0.333,"complexity":0.402,"dissonance":0.177},{"voice":2,"pitch":60,"start":114.5453,"duration":0.5455,"velocity":127,"measure":53,"beat":3.0,"subject_pos":-1,"motif":"","motif_pos":-1,"best_pos":2,"similarity":0.464,"stretto":false,"stretto_voices":0,"combination":[],"aug_dim":"","rhythm_ratio":1.0,"mirror":false,"chromatic_density":0.333,"complexity":0.402,"dissonance":0.177},{"voice":1,"pitch":64,"start":114.8181,"duration":0.2727,"velocity":127,"measure":53,"beat":3.5,"subject_pos":-1,"motif":"","motif_pos":-1,"best_pos":4,"similarity":0.664,"stretto":false,"stretto_voices":0,"combination":[],"aug_dim":"","rhythm_ratio":1.0,"mirror":false,"chromatic_density":0.333,"complexity":0.402,"dissonance":0.177},{"voice":1,"pitch":66,"start":115.0908,"duration":0.2727,"velocity":127,"measure":53,"beat":4.0,"subject_pos":-1,"motif":"","motif_pos":-1,"best_pos":5,"similarity":0.721,"stretto":false,"stretto_voices":0,"combination":[],"aug_dim":"","rhythm_ratio":1.0,"mirror":false,"chromatic_density":0.333,"complexity":0.402,"dissonance":0.177},{"voice":2,"pitch":59,"start":115.0908,"duration":0.5455,"velocity":127,"measure":53,"beat":4.0,"subject_pos":-1,"motif":"","motif_pos":-1,"best_pos":4,"similarity":0.404,"stretto":false,"stretto_voices":0,"combination":[],"aug_dim":"","rhythm_ratio":1.0,"mirror":false,"chromatic_density":0.333,"complexity":0.402,"dissonance":0.177},{"voice":1,"pitch":68,"start":115.3635,"duration":0.2727,"velocity":127,"measure":53,"beat":4.5,"subject_pos":-1,"motif":"","motif_pos":-1,"best_pos":6,"similarity":0.714,"stretto":false,"stretto_voices":0,"combination":[],"aug_dim":"","rhythm_ratio":1.0,"mirror":false,"chromatic_density":0.333,"complexity":0.402,"dissonance":0.177},{"voice":1,"pitch":69,"start":115.6362,"duration":1.3636,"velocity":127,"measure":54,"beat":1.0,"subject_pos":-1,"motif":"","motif_pos":-1,"best_pos":7,"similarity":0.464,"stretto":false,"stretto_voices":0,"combination":[],"aug_dim":"","rhythm_ratio":1.0,"mirror":false,"chromatic_density":0.222,"complexity":0.402,"dissonance":0.195},{"voice":2,"pitch":57,"start":115.6362,"duration":0.5455,"velocity":127,"measure":54,"beat":1.0,"subject_pos":-1,"motif":"","motif_pos":-1,"best_pos":2,"similarity":0.436,"stretto":false,"stretto_voices":0,"combination":[],"aug_dim":"","rhythm_ratio":1.0,"mirror":false,"chromatic_density":0.222,"complexity":0.402,"dissonance":0.195},{"voice":0,"pitch":72,"start":115.909,"duration":0.2727,"velocity":127,"measure":54,"beat":1.5,"subject_pos":-1,"motif":"","motif_pos":-1,"best_pos":4,"similarity":0.507,"stretto":false,"stretto_voices":0,"combination":[],"aug_dim":"","rhythm_ratio":1.0,"mirror":false,"chromatic_density":0.222,"complexity":0.402,"dissonance":0.195},{"voice":0,"pitch":74,"start":116.1817,"duration":0.2727,"velocity":127,"measure":54,"beat":2.0,"subject_pos":-1,"motif":"","motif_pos":-1,"best_pos":5,"similarity":0.643,"stretto":false,"stretto_voices":0,"combination":[],"aug_dim":"","rhythm_ratio":1.0,"mirror":false,"chromatic_density":0.222,"complexity":0.402,"dissonance":0.195},{"voice":2,"pitch":65,"start":116.1817,"duration":0.5455,"velocity":127,"measure":54,"beat":2.0,"subject_pos":-1,"motif":"","motif_pos":-1,"best_pos":3,"similarity":0.45,"stretto":false,"stretto_voices":0,"combination":[],"aug_dim":"","rhythm_ratio":1.0,"mirror":false,"chromatic_density":0.222,"complexity":0.402,"dissonance":0.195},{"voice":0,"pitch":76,"start":116.4544,"duration":0.2727,"velocity":127,"measure":54,"beat":2.5,"subject_pos":-1,"motif":"","motif_pos":-1,"best_pos":6,"similarity":0.679,"stretto":false,"stretto_voices":0,"combination":[],"aug_dim":"","rhythm_ratio":1.0,"mirror":false,"chromatic_density":0.222,"complexity":0.402,"dissonance":0.195},{"voice":0,"pitch":77,"start":116.7272,"duration":1.3636,"velocity":127,"measure":54,"beat":3.0,"subject_pos":-1,"motif":"","motif_pos":-1,"best_pos":7,"similarity":0.464,"stretto":false,"stretto_voices":0,"combination":[],"aug_dim":"","rhythm_ratio":1.0,"mirror":false,"chromatic_density":0.222,"complexity":0.402,"dissonance":0.195},{"voice":2,"pitch":64,"start":116.7272,"duration":0.5455,"velocity":127,"measure":54,"beat":3.0,"subject_pos":-1,"motif":"","motif_pos":-1,"best_pos":2,"similarity":0.446,"stretto":false,"stretto_voices":0,"combination":[],"aug_dim":"","rhythm_ratio":1.0,"mirror":false,"chromatic_density":0.222,"complexity":0.402,"dissonance":0.195},{"voice":1,"pitch":67,"start":116.9999,"duration":0.2727,"velocity":127,"measure":54,"beat":3.5,"subject_pos":-1,"motif":"","motif_pos":-1,"best_pos":4,"similarity":0.521,"stretto":false,"stretto_voices":0,"combination":[],"aug_dim":"","rhythm_ratio":1.0,"mirror":false,"chromatic_density":0.222,"complexity":0.402,"dissonance":0.195},{"voice":1,"pitch":69,"start":117.2726,"duration":0.2727,"velocity":127,"measure":54,"beat":4.0,"subject_pos":-1,"motif":"","motif_pos":-1,"best_pos":5,"similarity":0.65,"stretto":false,"stretto_voices":0,"combination":[],"aug_dim":"","rhythm_ratio":1.0,"mirror":false,"chromatic_density":0.222,"complexity":0.402,"dissonance":0.195},{"voice":2,"pitch":62,"start":117.2726,"duration":0.5455,"velocity":127,"measure":54,"beat":4.0,"subject_pos":-1,"motif":"","motif_pos":-1,"best_pos":2,"similarity":0.579,"stretto":false,"stretto_voices":0,"combination":[],"aug_dim":"","rhythm_ratio":1.0,"mirror":false,"chromatic_density":0.222,"complexity":0.402,"dissonance":0.195},{"voice":1,"pitch":71,"start":117.5453,"duration":0.2727,"velocity":127,"measure":54,"beat":4.5,"subject_pos":-1,"motif":"","motif_pos":-1,"best_pos":6,"similarity":0.679,"stretto":false,"stretto_voices":0,"combination":[],"aug_dim":"","rhythm_ratio":1.0,"mirror":false,"chromatic_density":0.222,"complexity":0.402,"dissonance":0.195},{"voice":1,"pitch":72,"start":117.8181,"duration":0.5455,"velocity":127,"measure":55,"beat":1.0,"subject_pos":-1,"motif":"","motif_pos":-1,"best_pos":7,"similarity":0.464,"stretto":false,"stretto_voices":0,"combination":[],"aug_dim":"","rhythm_ratio":1.0,"mirror":false,"chromatic_density":0.3,"complexity":0.408,"dissonance":0.15},{"voice":2,"pitch":60,"start":117.8181,"duration":1.0909,"velocity":127,"measure":55,"beat":1.0,"subject_pos":-1,"motif":"","motif_pos":-1,"best_pos":3,"similarity":0.593,"stretto":false,"stretto_voices":0,"combination":[],"aug_dim":"","rhythm_ratio":1.0,"mirror":false,"chromatic_density":0.3,"complexity":0.408,"dissonance":0.15},{"voice":0,"pitch":77,"start":118.0908,"duration":0.2727,"velocity":127,"measure":55,"beat":1.5,"subject_pos":-1,"motif":"","motif_pos":-1,"best_pos":3,"similarity":0.421,"stretto":false,"stretto_voices":0,"combination":[],"aug_dim":"","rhythm_ratio":1.0,"mirror":false,"chromatic_density":0.3,"complexity":0.408,"dissonance":0.15},{"voice":0,"pitch":76,"start":118.3635,"duration":0.2727,"velocity":127,"measure":55,"beat":2.0,"subject_pos":-1,"motif":"","motif_pos":-1,"best_pos":4,"similarity":0.486,"stretto":false,"stretto_voices":0,"combination":[],"aug_dim":"","rhythm_ratio":1.0,"mirror":false,"chromatic_density":0.3,"complexity":0.408,"dissonance":0.15},{"voice":1,"pitch":64,"start":118.3635,"duration":0.5455,"velocity":127,"measure":55,"beat":2.0,"subject_pos":-1,"motif":"","motif_pos":-1,"best_pos":5,"similarity":0.393,"stretto":false,"stretto_voices":0,"combination":[],"aug_dim":"","rhythm_ratio":1.0,"mirror":false,"chromatic_density":0.3,"complexity":0.408,"dissonance":0.15},{"voice":0,"pitch":74,"start":118.6362,"duration":0.2727,"velocity":127,"measure":55,"beat":2.5,"subject_pos":-1,"motif":"","motif_pos":-1,"best_pos":5,"similarity":0.479,"stretto":false,"stretto_voices":0,"combination":[],"aug_dim":"","rhythm_ratio":1.0,"mirror":false,"chromatic_density":0.3,"complexity":0.408,"dissonance":0.15},{"voice":0,"pitch":76,"start":118.909,"duration":0.2727,"velocity":127,"measure":55,"beat":3.0,"subject_pos":-1,"motif":"","motif_pos":-1,"best_pos":1,"similarity":0.457,"stretto":false,"stretto_voices":0,"combination":[],"aug_dim":"","rhythm_ratio":1.0,"mirror":false,"chromatic_density":0.3,"complexity":0.408,"dissonance":0.15},{"voice":1,"pitch":66,"start":118.909,"duration":0.5455,"velocity":127,"measure":55,"beat":3.0,"subject_pos":-1,"motif":"","motif_pos":-1,"best_pos":5,"similarity":0.579,"stretto":false,"stretto_voices":0,"combination":[],"aug_dim":"","rhythm_ratio":1.0,"mirror":false,"chromatic_density":0.3,"complexity":0.408,"dissonance":0.15},{"voice":2,"pitch":59,"start":118.909,"duration":1.0909,"velocity":127,"measure":55,"beat":3.0,"subject_pos":-1,"motif":"","motif_pos":-1,"best_pos":4,"similarity":0.479,"stretto":false,"stretto_voices":0,"combination":[],"aug_dim":"","rhythm_ratio":1.0,"mirror":false,"chromatic_density":0.3,"complexity":0.408,"dissonance":0.15},{"voice":0,"pitch":74,"start":119.1817,"duration":0.2727,"velocity":127,"measure":55,"beat":3.5,"subject_pos":-1,"motif":"","motif_pos":-1,"best_pos":2,"similarity":0.657,"stretto":false,"stretto_voices":0,"combination":[],"aug_dim":"","rhythm_ratio":1.0,"mirror":false,"chromatic_density":0.3,"complexity":0.408,"dissonance":0.15},{"voice":0,"pitch":72,"start":119.4544,"duration":0.2727,"velocity":127,"measure":55,"beat":4.0,"subject_pos":-1,"motif":"","motif_pos":-1,"best_pos":3,"similarity":0.793,"stretto":false,"stretto_voices":0,"combination":[],"aug_dim":"","rhythm_ratio":1.0,"mirror":false,"chromatic_density":0.3,"complexity":0.408,"dissonance":0.15},{"voice":1,"pitch":68,"start":119.4544,"duration":0.5455,"velocity":127,"measure":55,"beat":4.0,"subject_pos":-1,"motif":"","motif_pos":-1,"best_pos":6,"similarity":0.643,"stretto":false,"stretto_voices":0,"combination":[],"aug_dim":"","rhythm_ratio":1.0,"mirror":false,"chromatic_density":0.3,"complexity":0.408,"dissonance":0.15},{"voice":0,"pitch":71,"start":119.7272,"duration":0.2727,"velocity":127,"measure":55,"beat":4.5,"subject_pos":-1,"motif":"","motif_pos":-1,"best_pos":4,"similarity":0.864,"stretto":false,"stretto_voices":0,"combination":[],"aug_dim":"","rhythm_ratio":1.0,"mirror":false,"chromatic_density":0.3,"complexity":0.408,"dissonance":0.15},{"voice":0,"pitch":72,"start":119.9999,"duration":0.2727,"velocity":127,"measure":56,"beat":1.0,"subject_pos":-1,"motif":"","motif_pos":-1,"best_pos":5,"similarity":0.764,"stretto":false,"stretto_voices":0,"combination":[],"aug_dim":"","rhythm_ratio":1.0,"mirror":false,"chromatic_density":0.091,"complexity":0.414,"dissonance":0.104},{"voice":1,"pitch":69,"start":119.9999,"duration":0.5455,"velocity":127,"measure":56,"beat":1.0,"subject_pos":-1,"motif":"","motif_pos":-1,"best_pos":7,"similarity":0.464,"stretto":false,"stretto_voices":0,"combination":[],"aug_dim":"","rhythm_ratio":1.0,"mirror":false,"chromatic_density":0.091,"complexity":0.414,"dissonance":0.104},{"voice":2,"pitch":57,"start":119.9999,"duration":1.0909,"velocity":127,"measure":56,"beat":1.0,"subject_pos":-1,"motif":"","motif_pos":-1,"best_pos":2,"similarity":0.507,"stretto":false,"stretto_voices":0,"combination":[],"aug_dim":"","rhythm_ratio":1.0,"mirror":false,"chromatic_density":0.091,"complexity":0.414,"dissonance":0.104},{"voice":0,"pitch":74,"start":120.2726,"duration":0.2727,"velocity":127,"measure":56,"beat":1.5,"subject_pos":-1,"motif":"","motif_pos":-1,"best_pos":6,"similarity":0.529,"stretto":false,"stretto_voices":0,"combination":[],"aug_dim":"","rhythm_ratio":1.0,"mirror":false,"chromatic_density":0.091,"complexity":0.414,"dissonance":0.104},{"voice":0,"pitch":72,"start":120.5453,"duration":0.2727,"velocity":127,"measure":56,"beat":2.0,"subject_pos":-1,"motif":"","motif_pos":-1,"best_pos":2,"similarity":0.464,"stretto":false,"stretto_voices":0,"combination":[],"aug_dim":"","rhythm_ratio":1.0,"mirror":false,"chromatic_density":0.091,"complexity":0.414,"dissonance":0.104},{"voice":1,"pitch":60,"start":120.5453,"duration":0.5455,"velocity":127,"measure":56,"beat":2.0,"subject_pos":-1,"motif":"","motif_pos":-1,"best_pos":5,"similarity":0.393,"stretto":false,"stretto_voices":0,"combination":[],"aug_dim":"","rhythm_ratio":1.0,"mirror":false,"chromatic_density":0.091,"complexity":0.414,"dissonance":0.104},{"voice":0,"pitch":70,"start":120.8181,"duration":0.2727,"velocity":127,"measure":56,"beat":2.5,"subject_pos":-1,"motif":"","motif_pos":-1,"best_pos":5,"similarity":0.4,"stretto":false,"stretto_voices":0,"combination":[],"aug_dim":"","rhythm_ratio":1.0,"mirror":false,"chromatic_density":0.091,"complexity":0.414,"dissonance":0.104},{"voice":0,"pitch":72,"start":121.0908,"duration":0.2727,"velocity":127,"measure":56,"beat":3.0,"subject_pos":-1,"motif":"","motif_pos":-1,"best_pos":1,"similarity":0.386,"stretto":false,"stretto_voices":0,"combination":[],"aug_dim":"","rhythm_ratio":1.0,"mirror":false,"chromatic_density":0.091,"complexity":0.414,"dissonance":0.104},{"voice":1,"pitch":62,"start":121.0908,"duration":0.5455,"velocity":127,"measure":56,"beat":3.0,"subject_pos":-1,"motif":"","motif_pos":-1,"best_pos":5,"similarity":0.579,"stretto":false,"stretto_voices":0,"combination":[],"aug_dim":"","rhythm_ratio":1.0,"mirror":false,"chromatic_density":0.091,"complexity":0.414,"dissonance":0.104},{"voice":2,"pitch":55,"start":121.0908,"duration":1.0909,"velocity":127,"measure":56,"beat":3.0,"subject_pos":-1,"motif":"","motif_pos":-1,"best_pos":3,"similarity":0.45,"stretto":false,"stretto_voices":0,"combination":[],"aug_dim":"","rhythm_ratio":1.0,"mirror":false,"chromatic_density":0.091,"complexity":0.414,"dissonance":0.104},{"voice":0,"pitch":70,"start":121.3635,"duration":0.2727,"velocity":127,"measure":56,"beat":3.5,"subject_pos":-1,"motif":"","motif_pos":-1,"best_pos":3,"similarity":0.529,"stretto":false,"stretto_voices":0,"combination":[],"aug_dim":"","rhythm_ratio":1.0,"mirror":false,"chromatic_density":0.091,"complexity":0.414,"dissonance":0.104},{"voice":0,"pitch":69,"start":121.6362,"duration":0.2727,"velocity":127,"measure":56,"beat":4.0,"subject_pos":-1,"motif":"","motif_pos":-1,"best_pos":4,"similarity":0.543,"stretto":false,"stretto_voices":0,"combination":[],"aug_dim":"","rhythm_ratio":1.0,"mirror":false,"chromatic_density":0.091,"complexity":0.414,"dissonance":0.104},{"voice":1,"pitch":64,"start":121.6362,"duration":0.5455,"velocity":127,"measure":56,"beat":4.0,"subject_pos":-1,"motif":"","motif_pos":-1,"best_pos":6,"similarity":0.643,"stretto":false,"stretto_voices":0,"combination":[],"aug_dim":"","rhythm_ratio":1.0,"mirror":false,"chromatic_density":0.091,"complexity":0.414,"dissonance":0.104},{"voice":0,"pitch":67,"start":121.909,"duration":0.2727,"velocity":127,"measure":56,"beat":4.5,"subject_pos":-1,"motif":"","motif_pos":-1,"best_pos":5,"similarity":0.507,"stretto":false,"stretto_voices":0,"combination":[],"aug_dim":"","rhythm_ratio":1.0,"mirror":false,"chromatic_density":0.091,"complexity":0.414,"dissonance":0.104},{"voice":0,"pitch":69,"start":122.1817,"duration":0.5455,"velocity":127,"measure":57,"beat":1.0,"subject_pos":-1,"motif":"","motif_pos":-1,"best_pos":5,"similarity":0.446,"stretto":false,"stretto_voices":0,"combination":[],"aug_dim":"","rhythm_ratio":1.0,"mirror":false,"chromatic_density":0.231,"complexity":0.423,"dissonance":0.212},{"voice":1,"pitch":65,"start":122.1817,"duration":0.5455,"velocity":127,"measure":57,"beat":1.0,"subject_pos":-1,"motif":"","motif_pos":-1,"best_pos":5,"similarity":0.6,"stretto":false,"stretto_voices":0,"combination":[],"aug_dim":"","rhythm_ratio":1.0,"mirror":false,"chromatic_density":0.231,"complexity":0.423,"dissonance":0.212},{"voice":2,"pitch":53,"start":122.1817,"duration":0.2727,"velocity":127,"measure":57,"beat":1.0,"subject_pos":-1,"motif":"","motif_pos":-1,"best_pos":2,"similarity":0.436,"stretto":false,"stretto_voices":0,"combination":[],"aug_dim":"","rhythm_ratio":1.0,"mirror":false,"chromatic_density":0.231,"complexity":0.423,"dissonance":0.212},{"voice":2,"pitch":58,"start":122.4544,"duration":0.2727,"velocity":127,"measure":57,"beat":1.5,"subject_pos":-1,"motif":"","motif_pos":-1,"best_pos":3,"similarity":0.514,"stretto":false,"stretto_voices":0,"combination":[],"aug_dim":"","rhythm_ratio":1.0,"mirror":false,"chromatic_density":0.231,"complexity":0.423,"dissonance":0.212},{"voice":0,"pitch":73,"start":122.7271,"duration":0.5455,"velocity":127,"measure":57,"beat":2.0,"subject_pos":-1,"motif":"","motif_pos":-1,"best_pos":4,"similarity":0.5,"stretto":false,"stretto_voices":0,"combination":[],"aug_dim":"","rhythm_ratio":1.0,"mirror":false,"chromatic_density":0.231,"complexity":0.423,"dissonance":0.212},{"voice":1,"pitch":67,"start":122.7271,"duration":0.5455,"velocity":127,"measure":57,"beat":2.0,"subject_pos":-1,"motif":"","motif_pos":-1,"best_pos":6,"similarity":0.464,"stretto":false,"stretto_voices":0,"combination":[],"aug_dim":"","rhythm_ratio":1.0,"mirror":false,"chromatic_density":0.231,"complexity":0.423,"dissonance":0.212},{"voice":2,"pitch":57,"start":122.7271,"duration":0.2727,"velocity":127,"measure":57,"beat":2.0,"subject_pos":-1,"motif":"","motif_pos":-1,"best_pos":4,"similarity":0.536,"stretto":false,"stretto_voices":0,"combination":[],"aug_dim":"","rhythm_ratio":1.0,"mirror":false,"chromatic_density":0.231,"complexity":0.423,"dissonance":0.212},{"voice":2,"pitch":55,"start":122.9999,"duration":0.2727,"velocity":127,"measure":57,"beat":2.5,"subject_pos":-1,"motif":"","motif_pos":-1,"best_pos":5,"similarity":0.471,"stretto":false,"stretto_voices":0,"combination":[],"aug_dim":"","rhythm_ratio":1.0,"mirror":false,"chromatic_density":0.231,"complexity":0.423,"dissonance":0.212},{"voice":0,"pitch":74,"start":123.2726,"duration":0.5455,"velocity":127,"measure":57,"beat":3.0,"subject_pos":-1,"motif":"","motif_pos":-1,"best_pos":5,"similarity":0.571,"stretto":false,"stretto_voices":0,"combination":[],"aug_dim":"","rhythm_ratio":1.0,"mirror":false,"chromatic_density":0.231,"complexity":0.423,"dissonance":0.212},{"voice":1,"pitch":65,"start":123.2726,"duration":0.5455,"velocity":127,"measure":57,"beat":3.0,"subject_pos":-1,"motif":"","motif_pos":-1,"best_pos":2,"similarity":0.586,"stretto":false,"stretto_voices":0,"combination":[],"aug_dim":"","rhythm_ratio":1.0,"mirror":false,"chromatic_density":0.231,"complexity":0.423,"dissonance":0.212},{"voice":2,"pitch":57,"start":123.2726,"duration":0.2727,"velocity":127,"measure":57,"beat":3.0,"subject_pos":-1,"motif":"","motif_pos":-1,"best_pos":1,"similarity":0.457,"stretto":false,"stretto_voices":0,"combination":[],"aug_dim":"","rhythm_ratio":1.0,"mirror":false,"chromatic_density":0.231,"complexity":0.423,"dissonance":0.212},{"voice":2,"pitch":55,"start":123.5453,"duration":0.2727,"velocity":127,"measure":57,"beat":3.5,"subject_pos":-1,"motif":"","motif_pos":-1,"best_pos":2,"similarity":0.657,"stretto":false,"stretto_voices":0,"combination":[],"aug_dim":"","rhythm_ratio":1.0,"mirror":false,"chromatic_density":0.231,"complexity":0.423,"dissonance":0.212},{"voice":0,"pitch":76,"start":123.8181,"duration":0.5455,"velocity":127,"measure":57,"beat":4.0,"subject_pos":-1,"motif":"","motif_pos":-1,"best_pos":6,"similarity":0.429,"stretto":false,"stretto_voices":0,"combination":[],"aug_dim":"","rhythm_ratio":1.0,"mirror":false,"chromatic_density":0.231,"complexity":0.423,"dissonance":0.212},{"voice":1,"pitch":61,"start":123.8181,"duration":0.5455,"velocity":127,"measure":57,"beat":4.0,"subject_pos":-1,"motif":"","motif_pos":-1,"best_pos":3,"similarity":0.596,"stretto":false,"stretto_voices":0,"combination":[],"aug_dim":"","rhythm_ratio":1.0,"mirror":false,"chromatic_density":0.231,"complexity":0.423,"dissonance":0.212},{"voice":2,"pitch":53,"start":123.8181,"duration":0.2727,"velocity":127,"measure":57,"beat":4.0,"subject_pos":-1,"motif":"","motif_pos":-1,"best_pos":3,"similarity":0.793,"stretto":false,"stretto_voices":0,"combination":[],"aug_dim":"","rhythm_ratio":1.0,"mirror":false,"chromatic_density":0.231,"complexity":0.423,"dissonance":0.212},{"voice":2,"pitch":52,"start":124.0908,"duration":0.2727,"velocity":127,"measure":57,"beat":4.5,"subject_pos":-1,"motif":"","motif_pos":-1,"best_pos":4,"similarity":0.864,"stretto":false,"stretto_voices":0,"combination":[],"aug_dim":"","rhythm_ratio":1.0,"mirror":false,"chromatic_density":0.231,"complexity":0.423,"dissonance":0.212},{"voice":0,"pitch":69,"start":124.3635,"duration":0.2727,"velocity":127,"measure":58,"beat":1.0,"subject_pos":-1,"motif":"","motif_pos":-1,"best_pos":6,"similarity":0.375,"stretto":false,"stretto_voices":0,"combination":[],"aug_dim":"","rhythm_ratio":1.0,"mirror":false,"chromatic_density":0.533,"complexity":0.462,"dissonance":0.072},{"voice":1,"pitch":61,"start":124.3635,"duration":0.5455,"velocity":127,"measure":58,"beat":1.0,"subject_pos":-1,"motif":"","motif_pos":-1,"best_pos":4,"similarity":0.607,"stretto":false,"stretto_voices":0,"combination":[],"aug_dim":"","rhythm_ratio":1.0,"mirror":false,"chromatic_density":0.533,"complexity":0.462,"dissonance":0.072},{"voice":2,"pitch":53,"start":124.3635,"duration":0.2727,"velocity":127,"measure":58,"beat":1.0,"subject_pos":-1,"motif":"","motif_pos":-1,"best_pos":5,"similarity":0.764,"stretto":false,"stretto_voices":0,"combination":[],"aug_dim":"","rhythm_ratio":1.0,"mirror":false,"chromatic_density":0.533,"complexity":0.462,"dissonance":0.072},{"voice":0,"pitch":70,"start":124.6362,"duration":0.2727,"velocity":127,"measure":58,"beat":1.5,"subject_pos":-1,"motif":"","motif_pos":-1,"best_pos":3,"similarity":0.421,"stretto":false,"stretto_voices":0,"combination":[],"aug_dim":"","rhythm_ratio":1.0,"mirror":false,"chromatic_density":0.533,"complexity":0.462,"dissonance":0.072},{"voice":2,"pitch":55,"start":124.6362,"duration":0.2727,"velocity":127,"measure":58,"beat":1.5,"subject_pos":-1,"motif":"","motif_pos":-1,"best_pos":6,"similarity":0.529,"stretto":false,"stretto_voices":0,"combination":[],"aug_dim":"","rhythm_ratio":1.0,"mirror":false,"chromatic_density":0.533,"complexity":0.462,"dissonance":0.072},{"voice":0,"pitch":69,"start":124.909,"duration":0.2727,"velocity":127,"measure":58,"beat":2.0,"subject_pos":-1,"motif":"","motif_pos":-1,"best_pos":4,"similarity":0.486,"stretto":false,"stretto_voices":0,"combination":[],"aug_dim":"","rhythm_ratio":1.0,"mirror":false,"chromatic_density":0.533,"complexity":0.462,"dissonance":0.072},{"voice":1,"pitch":62,"start":124.909,"duration":0.5455,"velocity":127,"measure":58,"beat":2.0,"subject_pos":-1,"motif":"","motif_pos":-1,"best_pos":5,"similarity":0.464,"stretto":false,"stretto_voices":0,"combination":[],"aug_dim":"","rhythm_ratio":1.0,"mirror":false,"chromatic_density":0.533,"complexity":0.462,"dissonance":0.072},{"voice":2,"pitch":53,"start":124.909,"duration":0.2727,"velocity":127,"measure":58,"beat":2.0,"subject_pos":-1,"motif":"","motif_pos":-1,"best_pos":3,"similarity":0.6,"stretto":false,"stretto_voices":0,"combination":[],"aug_dim":"","rhythm_ratio":1.0,"mirror":false,"chromatic_density":0.533,"complexity":0.462,"dissonance":0.072},{"voice":0,"pitch":67,"start":125.1817,"duration":0.2727,"velocity":127,"measure":58,"beat":2.5,"subject_pos":-1,"motif":"","motif_pos":-1,"best_pos":5,"similarity":0.479,"stretto":false,"stretto_voices":0,"combination":[],"aug_dim":"","rhythm_ratio":1.0,"mirror":false,"chromatic_density":0.533,"complexity":0.462,"dissonance":0.072},{"voice":2,"pitch":52,"start":125.1817,"duration":0.2727,"velocity":127,"measure":58,"beat":2.5,"subject_pos":-1,"motif":"tail_inv","motif_pos":0,"best_pos":0,"similarity":1.0,"stretto":false,"stretto_voices":0,"combination":[],"aug_dim":"","rhythm_ratio":1.0,"mirror":false,"chromatic_density":0.533,"complexity":0.462,"dissonance":0.072},{"voice":0,"pitch":69,"start":125.4544,"duration":0.2727,"velocity":127,"measure":58,"beat":3.0,"subject_pos":-1,"motif":"","motif_pos":-1,"best_pos":1,"similarity":0.457,"stretto":false,"stretto_voices":0,"combination":[],"aug_dim":"","rhythm_ratio":1.0,"mirror":false,"chromatic_density":0.533,"complexity":0.462,"dissonance":0.072},{"voice":2,"pitch":53,"start":125.4544,"duration":0.2727,"velocity":127,"measure":58,"beat":3.0,"subject_pos":-1,"motif":"tail_inv","motif_pos":1,"best_pos":1,"similarity":1.0,"stretto":false,"stretto_voices":0,"combination":[],"aug_dim":"","rhythm_ratio":1.0,"mirror":false,"chromatic_density":0.533,"complexity":0.462,"dissonance":0.072},{"voice":0,"pitch":67,"start":125.7271,"duration":0.2727,"velocity":127,"measure":58,"beat":3.5,"subject_pos":-1,"motif":"","motif_pos":-1,"best_pos":2,"similarity":0.657,"stretto":false,"stretto_voices":0,"combination":[],"aug_dim":"","rhythm_ratio":1.0,"mirror":false,"chromatic_density":0.533,"complexity":0.462,"dissonance":0.072},{"voice":2,"pitch":52,"start":125.7271,"duration":0.2727,"velocity":127,"measure":58,"beat":3.5,"subject_pos":-1,"motif":"tail_inv","motif_pos":2,"best_pos":2,"similarity":1.0,"stretto":false,"stretto_voices":0,"combination":[],"aug_dim":"","rhythm_ratio":1.0,"mirror":false,"chromatic_density":0.533,"complexity":0.462,"dissonance":0.072},{"voice":0,"pitch":65,"start":125.9999,"duration":0.2727,"velocity":127,"measure":58,"beat":4.0,"subject_pos":-1,"motif":"","motif_pos":-1,"best_pos":3,"similarity":0.721,"stretto":false,"stretto_voices":0,"combination":[],"aug_dim":"","rhythm_ratio":1.0,"mirror":false,"chromatic_density":0.533,"complexity":0.462,"dissonance":0.072},{"voice":2,"pitch":50,"start":125.9999,"duration":0.2727,"velocity":127,"measure":58,"beat":4.0,"subject_pos":-1,"motif":"tail_inv","motif_pos":3,"best_pos":3,"similarity":1.0,"stretto":false,"stretto_voices":0,"combination":[],"aug_dim":"","rhythm_ratio":1.0,"mirror":false,"chromatic_density":0.533,"complexity":0.462,"dissonance":0.072},{"voice":0,"pitch":64,"start":126.2726,"duration":0.2727,"velocity":127,"measure":58,"beat":4.5,"subject_pos":-1,"motif":"","motif_pos":-1,"best_pos":4,"similarity":0.721,"stretto":false,"stretto_voices":0,"combination":[],"aug_dim":"","rhythm_ratio":1.0,"mirror":false,"chromatic_density":0.533,"complexity":0.462,"dissonance":0.072},{"voice":2,"pitch":49,"start":126.2726,"duration":0.2727,"velocity":127,"measure":58,"beat":4.5,"subject_pos":-1,"motif":"tail_inv","motif_pos":4,"best_pos":4,"similarity":1.0,"stretto":false,"stretto_voices":0,"combination":[],"aug_dim":"","rhythm_ratio":1.0,"mirror":false,"chromatic_density":0.533,"complexity":0.462,"dissonance":0.072},{"voice":0,"pitch":65,"start":126.5453,"duration":0.2727,"velocity":127,"measure":59,"beat":1.0,"subject_pos":-1,"motif":"","motif_pos":-1,"best_pos":5,"similarity":0.479,"stretto":false,"stretto_voices":0,"combination":[],"aug_dim":"","rhythm_ratio":1.0,"mirror":false,"chromatic_density":0.375,"complexity":0.598,"dissonance":0.033},{"voice":1,"pitch":62,"start":126.5453,"duration":2.1818,"velocity":127,"measure":59,"beat":1.0,"subject_pos":0,"motif":"subject","motif_pos":0,"best_pos":0,"similarity":1.0,"stretto":true,"stretto_voices":2,"combination":[],"aug_dim":"augmentation","rhythm_ratio":4.35,"mirror":false,"chromatic_density":0.375,"complexity":0.598,"dissonance":0.033},{"voice":2,"pitch":50,"start":126.5453,"duration":1.0909,"velocity":127,"measure":59,"beat":1.0,"subject_pos":-1,"motif":"","motif_pos":-1,"best_pos":5,"similarity":0.464,"stretto":false,"stretto_voices":0,"combination":[],"aug_dim":"","rhythm_ratio":1.0,"mirror":false,"chromatic_density":0.375,"complexity":0.598,"dissonance":0.033},{"voice":0,"pitch":72,"start":126.8181,"duration":0.2727,"velocity":127,"measure":59,"beat":1.5,"subject_pos":-1,"motif":"","motif_pos":-1,"best_pos":1,"similarity":0.625,"stretto":false,"stretto_voices":0,"combination":[],"aug_dim":"","rhythm_ratio":1.0,"mirror":false,"chromatic_density":0.375,"complexity":0.598,"dissonance":0.033},{"voice":0,"pitch":70,"start":127.0908,"duration":0.2727,"velocity":127,"measure":59,"beat":2.0,"subject_pos":-1,"motif":"","motif_pos":-1,"best_pos":3,"similarity":0.586,"stretto":false,"stretto_voices":0,"combination":[],"aug_dim":"","rhythm_ratio":1.0,"mirror":false,"chromatic_density":0.375,"complexity":0.598,"dissonance":0.033},{"voice":3,"pitch":38,"start":127.0908,"duration":0.5455,"velocity":127,"measure":59,"beat":2.0,"subject_pos":0,"motif":"subject","motif_pos":0,"best_pos":0,"similarity":1.0,"stretto":true,"stretto_voices":2,"combination":[],"aug_dim":"","rhythm_ratio":1.0,"mirror":false,"chromatic_density":0.375,"complexity":0.598,"dissonance":0.033},{"voice":0,"pitch":69,"start":127.3635,"duration":0.2727,"velocity":127,"measure":59,"beat":2.5,"subject_pos":-1,"motif":"","motif_pos":-1,"best_pos":4,"similarity":0.664,"stretto":false,"stretto_voices":0,"combination":[],"aug_dim":"","rhythm_ratio":1.0,"mirror":false,"chromatic_density":0.375,"complexity":0.598,"dissonance":0.033},{"voice":0,"pitch":70,"start":127.6362,"duration":0.2727,"velocity":127,"measure":59,"beat":3.0,"subject_pos":-1,"motif":"","motif_pos":-1,"best_pos":5,"similarity":0.507,"stretto":false,"stretto_voices":0,"combination":[],"aug_dim":"","rhythm_ratio":1.0,"mirror":false,"chromatic_density":0.375,"complexity":0.598,"dissonance":0.033},{"voice":3,"pitch":50,"start":127.6362,"duration":1.6364,"velocity":127,"measure":59,"beat":3.0,"subject_pos":1,"motif":"subject","motif_pos":1,"best_pos":1,"similarity":1.0,"stretto":true,"stretto_voices":2,"combination":[],"aug_dim":"","rhythm_ratio":1.0,"mirror":false,"chromatic_density":0.375,"complexity":0.598,"dissonance":0.033},{"voice":0,"pitch":69,"start":127.909,"duration":0.2727,"velocity":127,"measure":59,"beat":3.5,"subject_pos":-1,"motif":"","motif_pos":-1,"best_pos":1,"similarity":0.429,"stretto":false,"stretto_voices":0,"combination":[],"aug_dim":"","rhythm_ratio":1.0,"mirror":false,"chromatic_density":0.375,"complexity":0.598,"dissonance":0.033},{"voice":0,"pitch":67,"start":128.1817,"duration":0.2727,"velocity":127,"measure":59,"beat":4.0,"subject_pos":-1,"motif":"","motif_pos":-1,"best_pos":2,"similarity":0.571,"stretto":false,"stretto_voices":0,"combination":[],"aug_dim":"","rhythm_ratio":1.0,"mirror":false,"chromatic_density":0.375,"complexity":0.598,"dissonance":0.033},{"voice":0,"pitch":65,"start":128.4544,"duration":0.2727,"velocity":127,"measure":59,"beat":4.5,"subject_pos":-1,"motif":"","motif_pos":-1,"best_pos":3,"similarity":0.589,"stretto":false,"stretto_voices":0,"combination":[],"aug_dim":"","rhythm_ratio":1.0,"mirror":false,"chromatic_density":0.375,"complexity":0.598,"dissonance":0.033},{"voice":0,"pitch":64,"start":128.7271,"duration":0.5455,"velocity":127,"measure":60,"beat":1.0,"subject_pos":-1,"motif":"","motif_pos":-1,"best_pos":4,"similarity":0.471,"stretto":false,"stretto_voices":0,"combination":[],"aug_dim":"","rhythm_ratio":1.0,"mirror":false,"chromatic_density":0.25,"complexity":0.568,"dissonance":0.053},{"voice":1,"pitch":69,"start":128.7271,"duration":2.1818,"velocity":127,"measure":60,"beat":1.0,"subject_pos":1,"motif":"subject","motif_pos":1,"best_pos":1,"similarity":1.0,"stretto":true,"stretto_voices":2,"combination":[],"aug_dim":"augmentation","rhythm_ratio":4.35,"mirror":false,"chromatic_density":0.25,"complexity":0.568,"dissonance":0.053},{"voice":0,"pitch":76,"start":129.2726,"duration":0.5455,"velocity":127,"measure":60,"beat":2.0,"subject_pos":-1,"motif":"","motif_pos":-1,"best_pos":4,"similarity":0.282,"stretto":false,"stretto_voices":0,"combination":[],"aug_dim":"","rhythm_ratio":1.0,"mirror":false,"chromatic_density":0.25,"complexity":0.568,"dissonance":0.053},{"voice":3,"pitch":49,"start":129.2726,"duration":0.2727,"velocity":127,"measure":60,"beat":2.0,"subject_pos":2,"motif":"subject","motif_pos":2,"best_pos":2,"similarity":1.0,"stretto":true,"stretto_voices":2,"combination":[],"aug_dim":"","rhythm_ratio":1.0,"mirror":false,"chromatic_density":0.25,"complexity":0.568,"dissonance":0.053},{"voice":3,"pitch":47,"start":129.5453,"duration":0.2727,"velocity":127,"measure":60,"beat":2.5,"subject_pos":3,"motif":"subject","motif_pos":3,"best_pos":3,"similarity":1.0,"stretto":true,"stretto_voices":2,"combination":[],"aug_dim":"","rhythm_ratio":1.0,"mirror":false,"chromatic_density":0.25,"complexity":0.568,"dissonance":0.053},{"voice":3,"pitch":45,"start":129.8181,"duration":0.2727,"velocity":127,"measure":60,"beat":3.0,"subject_pos":4,"motif":"subject","motif_pos":4,"best_pos":4,"similarity":1.0,"stretto":true,"stretto_voices":2,"combination":[],"aug_dim":"","rhythm_ratio":1.0,"mirror":false,"chromatic_density":0.25,"complexity":0.568,"dissonance":0.053},{"voice":0,"pitch":76,"start":130.0908,"duration":0.2727,"velocity":127,"measure":60,"beat":3.5,"subject_pos":-1,"motif":"","motif_pos":-1,"best_pos":2,"similarity":0.429,"stretto":false,"stretto_voices":0,"combination":[],"aug_dim":"","rhythm_ratio":1.0,"mirror":false,"chromatic_density":0.25,"complexity":0.568,"dissonance":0.053},{"voice":3,"pitch":43,"start":130.0908,"duration":0.2727,"velocity":127,"measure":60,"beat":3.5,"subject_pos":5,"motif":"subject","motif_pos":5,"best_pos":5,"similarity":1.0,"stretto":true,"stretto_voices":2,"combination":[],"aug_dim":"","rhythm_ratio":1.0,"mirror":false,"chromatic_density":0.25,"complexity":0.568,"dissonance":0.053},{"voice":0,"pitch":74,"start":130.3635,"duration":0.2727,"velocity":127,"measure":60,"beat":4.0,"subject_pos":-1,"motif":"","motif_pos":-1,"best_pos":3,"similarity":0.607,"stretto":false,"stretto_voices":0,"combination":[],"aug_dim":"","rhythm_ratio":1.0,"mirror":false,"chromatic_density":0.25,"complexity":0.568,"dissonance":0.053},{"voice":3,"pitch":41,"start":130.3635,"duration":0.2727,"velocity":127,"measure":60,"beat":4.0,"subject_pos":6,"motif":"subject","motif_pos":6,"best_pos":6,"similarity":1.0,"stretto":true,"stretto_voices":2,"combination":[],"aug_dim":"","rhythm_ratio":1.0,"mirror":false,"chromatic_density":0.25,"complexity":0.568,"dissonance":0.053},{"voice":0,"pitch":73,"start":130.6362,"duration":0.2727,"velocity":127,"measure":60,"beat":4.5,"subject_pos":-1,"motif":"enigmatic_cell","motif_pos":0,"best_pos":0,"similarity":1.0,"stretto":false,"stretto_voices":0,"combination":[],"aug_dim":"","rhythm_ratio":1.0,"mirror":false,"chromatic_density":0.25,"complexity":0.568,"dissonance":0.053},{"voice":3,"pitch":40,"start":130.6362,"duration":0.2727,"velocity":127,"measure":60,"beat":4.5,"subject_pos":7,"motif":"subject","motif_pos":7,"best_pos":7,"similarity":1.0,"stretto":true,"stretto_voices":2,"combination":[],"aug_dim":"","rhythm_ratio":1.0,"mirror":false,"chromatic_density":0.25,"complexity":0.568,"dissonance":0.053},{"voice":0,"pitch":74,"start":130.909,"duration":0.5455,"velocity":127,"measure":61,"beat":1.0,"subject_pos":-1,"motif":"enigmatic_cell","motif_pos":1,"best_pos":1,"similarity":1.0,"stretto":false,"stretto_voices":0,"combination":[],"aug_dim":"","rhythm_ratio":1.0,"mirror":false,"chromatic_density":0.4,"complexity":0.506,"dissonance":0.146},{"voice":1,"pitch":65,"start":130.909,"duration":2.1818,"velocity":127,"measure":61,"beat":1.0,"subject_pos":2,"motif":"subject","motif_pos":2,"best_pos":2,"similarity":1.0,"stretto":false,"stretto_voices":0,"combination":[],"aug_dim":"augmentation","rhythm_ratio":4.35,"mirror":false,"chromatic_density":0.4,"complexity":0.506,"dissonance":0.146},{"voice":3,"pitch":38,"start":130.909,"duration":0.2727,"velocity":127,"measure":61,"beat":1.0,"subject_pos":8,"motif":"subject","motif_pos":8,"best_pos":0,"similarity":1.0,"stretto":true,"stretto_voices":2,"combination":[],"aug_dim":"","rhythm_ratio":1.0,"mirror":false,"chromatic_density":0.4,"complexity":0.506,"dissonance":0.146},{"voice":3,"pitch":37,"start":131.1817,"duration":0.2727,"velocity":127,"measure":61,"beat":1.5,"subject_pos":-1,"motif":"","motif_pos":-1,"best_pos":4,"similarity":0.893,"stretto":false,"stretto_voices":0,"combination":[],"aug_dim":"","rhythm_ratio":1.0,"mirror":false,"chromatic_density":0.4,"complexity":0.506,"dissonance":0.146},{"voice":0,"pitch":69,"start":131.4544,"duration":0.5455,"velocity":127,"measure":61,"beat":2.0,"subject_pos":-1,"motif":"enigmatic_cell","motif_pos":2,"best_pos":2,"similarity":1.0,"stretto":false,"stretto_voices":0,"combination":[],"aug_dim":"","rhythm_ratio":1.0,"mirror":false,"chromatic_density":0.4,"complexity":0.506,"dissonance":0.146},{"voice":3,"pitch":38,"start":131.4544,"duration":0.2727,"velocity":127,"measure":61,"beat":2.0,"subject_pos":-1,"motif":"","motif_pos":-1,"best_pos":5,"similarity":0.893,"stretto":false,"stretto_voices":0,"combination":[],"aug_dim":"","rhythm_ratio":1.0,"mirror":false,"chromatic_density":0.4,"complexity":0.506,"dissonance":0.146},{"voice":3,"pitch":40,"start":131.7271,"duration":0.2727,"velocity":127,"measure":61,"beat":2.5,"subject_pos":-1,"motif":"","motif_pos":-1,"best_pos":6,"similarity":0.786,"stretto":false,"stretto_voices":0,"combination":[],"aug_dim":"","rhythm_ratio":1.0,"mirror":false,"chromatic_density":0.4,"complexity":0.506,"dissonance":0.146},{"voice":0,"pitch":74,"start":131.9999,"duration":0.5455,"velocity":127,"measure":61,"beat":3.0,"subject_pos":-1,"motif":"","motif_pos":-1,"best_pos":1,"similarity":0.714,"stretto":false,"stretto_voices":0,"combination":[],"aug_dim":"","rhythm_ratio":1.0,"mirror":false,"chromatic_density":0.4,"complexity":0.506,"dissonance":0.146},{"voice":3,"pitch":41,"start":131.9999,"duration":0.2727,"velocity":127,"measure":61,"beat":3.0,"subject_pos":-1,"motif":"","motif_pos":-1,"best_pos":7,"similarity":0.5,"stretto":false,"stretto_voices":0,"combination":[],"aug_dim":"","rhythm_ratio":1.0,"mirror":false,"chromatic_density":0.4,"complexity":0.506,"dissonance":0.146},{"voice":3,"pitch":38,"start":132.2726,"duration":0.2727,"velocity":127,"measure":61,"beat":3.5,"subject_pos":-1,"motif":"","motif_pos":-1,"best_pos":3,"similarity":0.55,"stretto":false,"stretto_voices":0,"combination":[],"aug_dim":"","rhythm_ratio":1.0,"mirror":false,"chromatic_density":0.4,"complexity":0.506,"dissonance":0.146},{"voice":0,"pitch":72,"start":132.5453,"duration":0.5455,"velocity":127,"measure":61,"beat":4.0,"subject_pos":-1,"motif":"","motif_pos":-1,"best_pos":2,"similarity":0.721,"stretto":false,"stretto_voices":0,"combination":[],"aug_dim":"","rhythm_ratio":1.0,"mirror":false,"chromatic_density":0.4,"complexity":0.506,"dissonance":0.146},{"voice":3,"pitch":40,"start":132.5453,"duration":0.2727,"velocity":127,"measure":61,"beat":4.0,"subject_pos":-1,"motif":"","motif_pos":-1,"best_pos":4,"similarity":0.625,"stretto":false,"stretto_voices":0,"combination":[],"aug_dim":"","rhythm_ratio":1.0,"mirror":false,"chromatic_density":0.4,"complexity":0.506,"dissonance":0.146},{"voice":3,"pitch":41,"start":132.818,"duration":0.2727,"velocity":127,"measure":61,"beat":4.5,"subject_pos":-1,"motif":"","motif_pos":-1,"best_pos":5,"similarity":0.693,"stretto":false,"stretto_voices":0,"combination":[],"aug_dim":"","rhythm_ratio":1.0,"mirror":false,"chromatic_density":0.4,"complexity":0.506,"dissonance":0.146},{"voice":0,"pitch":70,"start":133.0908,"duration":0.5455,"velocity":127,"measure":62,"beat":1.0,"subject_pos":-1,"motif":"","motif_pos":-1,"best_pos":3,"similarity":0.664,"stretto":false,"stretto_voices":0,"combination":[],"aug_dim":"","rhythm_ratio":1.0,"mirror":false,"chromatic_density":0.5,"complexity":0.523,"dissonance":0.021},{"voice":1,"pitch":62,"start":133.0908,"duration":2.1818,"velocity":127,"measure":62,"beat":1.0,"subject_pos":3,"motif":"subject","motif_pos":3,"best_pos":3,"similarity":1.0,"stretto":false,"stretto_voices":0,"combination":[],"aug_dim":"augmentation","rhythm_ratio":4.35,"mirror":false,"chromatic_density":0.5,"complexity":0.523,"dissonance":0.021},{"voice":3,"pitch":43,"start":133.0908,"duration":0.2727,"velocity":127,"measure":62,"beat":1.0,"subject_pos":-1,"motif":"tail","motif_pos":3,"best_pos":3,"similarity":1.0,"stretto":false,"stretto_voices":0,"combination":[],"aug_dim":"","rhythm_ratio":1.0,"mirror":false,"chromatic_density":0.5,"complexity":0.523,"dissonance":0.021},{"voice":3,"pitch":42,"start":133.3635,"duration":0.2727,"velocity":127,"measure":62,"beat":1.5,"subject_pos":-1,"motif":"tail","motif_pos":4,"best_pos":4,"similarity":1.0,"stretto":false,"stretto_voices":0,"combination":[],"aug_dim":"","rhythm_ratio":1.0,"mirror":false,"chromatic_density":0.5,"complexity":0.523,"dissonance":0.021},{"voice":0,"pitch":69,"start":133.6362,"duration":0.5455,"velocity":127,"measure":62,"beat":2.0,"subject_pos":-1,"motif":"","motif_pos":-1,"best_pos":4,"similarity":0.489,"stretto":false,"stretto_voices":0,"combination":[],"aug_dim":"","rhythm_ratio":1.0,"mirror":false,"chromatic_density":0.5,"complexity":0.523,"dissonance":0.021},{"voice":3,"pitch":43,"start":133.6362,"duration":0.2727,"velocity":127,"measure":62,"beat":2.0,"subject_pos":-1,"motif":"tail","motif_pos":5,"best_pos":5,"similarity":1.0,"stretto":false,"stretto_voices":0,"combination":[],"aug_dim":"","rhythm_ratio":1.0,"mirror":false,"chromatic_density":0.5,"complexity":0.523,"dissonance":0.021},{"voice":3,"pitch":45,"start":133.909,"duration":0.2727,"velocity":127,"measure":62,"beat":2.5,"subject_pos":-1,"motif":"tail","motif_pos":6,"best_pos":6,"similarity":1.0,"stretto":false,"stretto_voices":0,"combination":[],"aug_dim":"","rhythm_ratio":1.0,"mirror":false,"chromatic_density":0.5,"complexity":0.523,"dissonance":0.021},{"voice":0,"pitch":67,"start":134.1817,"duration":0.5455,"velocity":127,"measure":62,"beat":3.0,"subject_pos":-1,"motif":"","motif_pos":-1,"best_pos":2,"similarity":0.579,"stretto":false,"stretto_voices":0,"combination":[],"aug_dim":"","rhythm_ratio":1.0,"mirror":false,"chromatic_density":0.5,"complexity":0.523,"dissonance":0.021},{"voice":3,"pitch":46,"start":134.1817,"duration":0.2727,"velocity":127,"measure":62,"beat":3.0,"subject_pos":-1,"motif":"tail","motif_pos":7,"best_pos":7,"similarity":1.0,"stretto":false,"stretto_voices":0,"combination":[],"aug_dim":"","rhythm_ratio":1.0,"mirror":false,"chromatic_density":0.5,"complexity":0.523,"dissonance":0.021},{"voice":3,"pitch":43,"start":134.4544,"duration":0.2727,"velocity":127,"measure":62,"beat":3.5,"subject_pos":-1,"motif":"","motif_pos":-1,"best_pos":3,"similarity":0.496,"stretto":false,"stretto_voices":0,"combination":[],"aug_dim":"","rhythm_ratio":1.0,"mirror":false,"chromatic_density":0.5,"complexity":0.523,"dissonance":0.021},{"voice":0,"pitch":65,"start":134.7271,"duration":0.5455,"velocity":127,"measure":62,"beat":4.0,"subject_pos":-1,"motif":"","motif_pos":-1,"best_pos":3,"similarity":0.657,"stretto":false,"stretto_voices":0,"combination":[],"aug_dim":"","rhythm_ratio":1.0,"mirror":false,"chromatic_density":0.5,"complexity":0.523,"dissonance":0.021},{"voice":3,"pitch":45,"start":134.7271,"duration":0.2727,"velocity":127,"measure":62,"beat":4.0,"subject_pos":-1,"motif":"","motif_pos":-1,"best_pos":6,"similarity":0.604,"stretto":false,"stretto_voices":0,"combination":[],"aug_dim":"","rhythm_ratio":1.0,"mirror":false,"chromatic_density":0.5,"complexity":0.523,"dissonance":0.021},{"voice":3,"pitch":46,"start":134.9999,"duration":0.2727,"velocity":127,"measure":62,"beat":4.5,"subject_pos":-1,"motif":"","motif_pos":-1,"best_pos":5,"similarity":0.479,"stretto":false,"stretto_voices":0,"combination":[],"aug_dim":"","rhythm_ratio":1.0,"mirror":false,"chromatic_density":0.5,"complexity":0.523,"dissonance":0.021},{"voice":0,"pitch":64,"start":135.2726,"duration":0.2727,"velocity":127,"measure":63,"beat":1.0,"subject_pos":-1,"motif":"","motif_pos":-1,"best_pos":4,"similarity":0.671,"stretto":false,"stretto_voices":0,"combination":[],"aug_dim":"","rhythm_ratio":1.0,"mirror":false,"chromatic_density":0.222,"complexity":0.495,"dissonance":0.217},{"voice":1,"pitch":61,"start":135.2726,"duration":2.1818,"velocity":127,"measure":63,"beat":1.0,"subject_pos":4,"motif":"subject","motif_pos":4,"best_pos":4,"similarity":1.0,"stretto":false,"stretto_voices":0,"combination":[],"aug_dim":"augmentation","rhythm_ratio":4.35,"mirror":false,"chromatic_density":0.222,"complexity":0.495,"dissonance":0.217},{"voice":3,"pitch":46,"start":135.2726,"duration":0.5455,"velocity":127,"measure":63,"beat":1.0,"subject_pos":-1,"motif":"","motif_pos":-1,"best_pos":3,"similarity":0.414,"stretto":false,"stretto_voices":0,"combination":[],"aug_dim":"","rhythm_ratio":1.0,"mirror":false,"chromatic_density":0.222,"complexity":0.495,"dissonance":0.217},{"voice":0,"pitch":62,"start":135.5453,"duration":0.2727,"velocity":127,"measure":63,"beat":1.5,"subject_pos":-1,"motif":"","motif_pos":-1,"best_pos":5,"similarity":0.636,"stretto":false,"stretto_voices":0,"combination":[],"aug_dim":"","rhythm_ratio":1.0,"mirror":false,"chromatic_density":0.222,"complexity":0.495,"dissonance":0.217},{"voice":0,"pitch":64,"start":135.818,"duration":0.2727,"velocity":127,"measure":63,"beat":2.0,"subject_pos":-1,"motif":"","motif_pos":-1,"best_pos":6,"similarity":0.657,"stretto":false,"stretto_voices":0,"combination":[],"aug_dim":"","rhythm_ratio":1.0,"mirror":false,"chromatic_density":0.222,"complexity":0.495,"dissonance":0.217},{"voice":3,"pitch":45,"start":135.818,"duration":0.5455,"velocity":127,"measure":63,"beat":2.0,"subject_pos":-1,"motif":"","motif_pos":-1,"best_pos":4,"similarity":0.5,"stretto":false,"stretto_voices":0,"combination":[],"aug_dim":"","rhythm_ratio":1.0,"mirror":false,"chromatic_density":0.222,"complexity":0.495,"dissonance":0.217},{"voice":0,"pitch":65,"start":136.0908,"duration":0.2727,"velocity":127,"measure":63,"beat":2.5,"subject_pos":-1,"motif":"","motif_pos":-1,"best_pos":5,"similarity":0.636,"stretto":false,"stretto_voices":0,"combination":[],"aug_dim":"","rhythm_ratio":1.0,"mirror":false,"chromatic_density":0.222,"complexity":0.495,"dissonance":0.217},{"voice":0,"pitch":67,"start":136.3635,"duration":0.2727,"velocity":127,"measure":63,"beat":3.0,"subject_pos":-1,"motif":"","motif_pos":-1,"best_pos":6,"similarity":0.464,"stretto":false,"stretto_voices":0,"combination":[],"aug_dim":"","rhythm_ratio":1.0,"mirror":false,"chromatic_density":0.222,"complexity":0.495,"dissonance":0.217},{"voice":0,"pitch":64,"start":136.6362,"duration":0.2727,"velocity":127,"measure":63,"beat":3.5,"subject_pos":-1,"motif":"","motif_pos":-1,"best_pos":0,"similarity":0.429,"stretto":false,"stretto_voices":0,"combination":[],"aug_dim":"","rhythm_ratio":1.0,"mirror":false,"chromatic_density":0.222,"complexity":0.495,"dissonance":0.217},{"voice":3,"pitch":45,"start":136.6362,"duration":0.2727,"velocity":127,"measure":63,"beat":3.5,"subject_pos":-1,"motif":"","motif_pos":-1,"best_pos":4,"similarity":0.439,"stretto":false,"stretto_voices":0,"combination":[],"aug_dim":"","rhythm_ratio":1.0,"mirror":false,"chromatic_density":0.222,"complexity":0.495,"dissonance":0.217},{"voice":0,"pitch":69,"start":136.909,"duration":0.8182,"velocity":127,"measure":63,"beat":4.0,"subject_pos":-1,"motif":"","motif_pos":-1,"best_pos":1,"similarity":0.589,"stretto":false,"stretto_voices":0,"combination":[],"aug_dim":"","rhythm_ratio":1.0,"mirror":false,"chromatic_density":0.222,"complexity":0.495,"dissonance":0.217},{"voice":3,"pitch":43,"start":136.909,"duration":0.2727,"velocity":127,"measure":63,"beat":4.0,"subject_pos":-1,"motif":"","motif_pos":-1,"best_pos":5,"similarity":0.546,"stretto":false,"stretto_voices":0,"combination":[],"aug_dim":"","rhythm_ratio":1.0,"mirror":false,"chromatic_density":0.222,"complexity":0.495,"dissonance":0.217},{"voice":3,"pitch":45,"start":137.1817,"duration":0.2727,"velocity":127,"measure":63,"beat":4.5,"subject_pos":-1,"motif":"","motif_pos":-1,"best_pos":6,"similarity":0.621,"stretto":false,"stretto_voices":0,"combination":[],"aug_dim":"","rhythm_ratio":1.0,"mirror":false,"chromatic_density":0.222,"complexity":0.495,"dissonance":0.217},{"voice":1,"pitch":62,"start":137.4544,"duration":1.0909,"velocity":127,"measure":64,"beat":1.0,"subject_pos":5,"motif":"subject","motif_pos":5,"best_pos":5,"similarity":1.0,"stretto":false,"stretto_voices":0,"combination":[],"aug_dim":"augmentation","rhythm_ratio":4.35,"mirror":false,"chromatic_density":0.083,"complexity":0.513,"dissonance":0.214},{"voice":3,"pitch":46,"start":137.4544,"duration":0.2727,"velocity":127,"measure":64,"beat":1.0,"subject_pos":-1,"motif":"","motif_pos":-1,"best_pos":7,"similarity":0.436,"stretto":false,"stretto_voices":0,"combination":[],"aug_dim":"","rhythm_ratio":1.0,"mirror":false,"chromatic_density":0.083,"complexity":0.513,"dissonance":0.214},{"voice":0,"pitch":65,"start":137.7271,"duration":0.2727,"velocity":127,"measure":64,"beat":1.5,"subject_pos":-1,"motif":"","motif_pos":-1,"best_pos":2,"similarity":0.471,"stretto":false,"stretto_voices":0,"combination":[],"aug_dim":"","rhythm_ratio":1.0,"mirror":false,"chromatic_density":0.083,"complexity":0.513,"dissonance":0.214},{"voice":3,"pitch":50,"start":137.7271,"duration":0.2727,"velocity":127,"measure":64,"beat":1.5,"subject_pos":-1,"motif":"","motif_pos":-1,"best_pos":1,"similarity":0.507,"stretto":false,"stretto_voices":0,"combination":[],"aug_dim":"","rhythm_ratio":1.0,"mirror":false,"chromatic_density":0.083,"complexity":0.513,"dissonance":0.214},{"voice":0,"pitch":70,"start":137.9999,"duration":0.8182,"velocity":127,"measure":64,"beat":2.0,"subject_pos":-1,"motif":"","motif_pos":-1,"best_pos":1,"similarity":0.464,"stretto":false,"stretto_voices":0,"combination":[],"aug_dim":"","rhythm_ratio":1.0,"mirror":false,"chromatic_density":0.083,"complexity":0.513,"dissonance":0.214},{"voice":3,"pitch":48,"start":137.9999,"duration":0.2727,"velocity":127,"measure":64,"beat":2.0,"subject_pos":-1,"motif":"","motif_pos":-1,"best_pos":2,"similarity":0.521,"stretto":false,"stretto_voices":0,"combination":[],"aug_dim":"","rhythm_ratio":1.0,"mirror":false,"chromatic_density":0.083,"complexity":0.513,"dissonance":0.214},{"voice":3,"pitch":46,"start":138.2726,"duration":0.2727,"velocity":127,"measure":64,"beat":2.5,"subject_pos":-1,"motif":"","motif_pos":-1,"best_pos":5,"similarity":0.4,"stretto":false,"stretto_voices":0,"combination":[],"aug_dim":"","rhythm_ratio":1.0,"mirror":false,"chromatic_density":0.083,"complexity":0.513,"dissonance":0.214},{"voice":1,"pitch":64,"start":138.5453,"duration":1.0909,"velocity":127,"measure":64,"beat":3.0,"subject_pos":6,"motif":"subject","motif_pos":6,"best_pos":6,"similarity":1.0,"stretto":false,"stretto_voices":0,"combination":[],"aug_dim":"augmentation","rhythm_ratio":4.35,"mirror":false,"chromatic_density":0.083,"complexity":0.513,"dissonance":0.214},{"voice":3,"pitch":48,"start":138.5453,"duration":0.2727,"velocity":127,"measure":64,"beat":3.0,"subject_pos":-1,"motif":"","motif_pos":-1,"best_pos":1,"similarity":0.386,"stretto":false,"stretto_voices":0,"combination":[],"aug_dim":"","rhythm_ratio":1.0,"mirror":false,"chromatic_density":0.083,"complexity":0.513,"dissonance":0.214},{"voice":0,"pitch":67,"start":138.818,"duration":0.2727,"velocity":127,"measure":64,"beat":3.5,"subject_pos":-1,"motif":"","motif_pos":-1,"best_pos":0,"similarity":0.446,"stretto":false,"stretto_voices":0,"combination":[],"aug_dim":"","rhythm_ratio":1.0,"mirror":false,"chromatic_density":0.083,"complexity":0.513,"dissonance":0.214},{"voice":3,"pitch":46,"start":138.818,"duration":0.2727,"velocity":127,"measure":64,"beat":3.5,"subject_pos":-1,"motif":"","motif_pos":-1,"best_pos":3,"similarity":0.464,"stretto":false,"stretto_voices":0,"combination":[],"aug_dim":"","rhythm_ratio":1.0,"mirror":false,"chromatic_density":0.083,"complexity":0.513,"dissonance":0.214},{"voice":0,"pitch":72,"start":139.0908,"duration":0.2727,"velocity":127,"measure":64,"beat":4.0,"subject_pos":-1,"motif":"","motif_pos":-1,"best_pos":1,"similarity":0.607,"stretto":false,"stretto_voices":0,"combination":[],"aug_dim":"","rhythm_ratio":1.0,"mirror":false,"chromatic_density":0.083,"complexity":0.513,"dissonance":0.214},{"voice":3,"pitch":45,"start":139.0908,"duration":0.2727,"velocity":127,"measure":64,"beat":4.0,"subject_pos":-1,"motif":"","motif_pos":-1,"best_pos":4,"similarity":0.414,"stretto":false,"stretto_voices":0,"combination":[],"aug_dim":"","rhythm_ratio":1.0,"mirror":false,"chromatic_density":0.083,"complexity":0.513,"dissonance":0.214},{"voice":0,"pitch":70,"start":139.3635,"duration":0.2727,"velocity":127,"measure":64,"beat":4.5,"subject_pos":-1,"motif":"enigmatic_cell","motif_pos":0,"best_pos":0,"similarity":1.0,"stretto":false,"stretto_voices":0,"combination":[],"aug_dim":"","rhythm_ratio":1.0,"mirror":false,"chromatic_density":0.083,"complexity":0.513,"dissonance":0.214},{"voice":3,"pitch":43,"start":139.3635,"duration":0.2727,"velocity":127,"measure":64,"beat":4.5,"subject_pos":-1,"motif":"","motif_pos":-1,"best_pos":2,"similarity":0.446,"stretto":false,"stretto_voices":0,"combination":[],"aug_dim":"","rhythm_ratio":1.0,"mirror":false,"chromatic_density":0.083,"complexity":0.513,"dissonance":0.214},{"voice":0,"pitch":69,"start":139.6362,"duration":0.2727,"velocity":127,"measure":65,"beat":1.0,"subject_pos":-1,"motif":"enigmatic_cell","motif_pos":1,"best_pos":1,"similarity":1.0,"stretto":false,"stretto_voices":0,"combination":[],"aug_dim":"","rhythm_ratio":1.0,"mirror":false,"chromatic_density":0.154,"complexity":0.495,"dissonance":0.104},{"voice":1,"pitch":65,"start":139.6362,"duration":2.7273,"velocity":127,"measure":65,"beat":1.0,"subject_pos":7,"motif":"subject","motif_pos":7,"best_pos":7,"similarity":1.0,"stretto":false,"stretto_voices":0,"combination":[],"aug_dim":"augmentation","rhythm_ratio":4.35,"mirror":false,"chromatic_density":0.154,"complexity":0.495,"dissonance":0.104},{"voice":3,"pitch":41,"start":139.6362,"duration":0.2727,"velocity":127,"measure":65,"beat":1.0,"subject_pos":-1,"motif":"","motif_pos":-1,"best_pos":2,"similarity":0.436,"stretto":false,"stretto_voices":0,"combination":[],"aug_dim":"","rhythm_ratio":1.0,"mirror":false,"chromatic_density":0.154,"complexity":0.495,"dissonance":0.104},{"voice":0,"pitch":74,"start":139.909,"duration":0.2727,"velocity":127,"measure":65,"beat":1.5,"subject_pos":-1,"motif":"enigmatic_cell","motif_pos":2,"best_pos":2,"similarity":1.0,"stretto":false,"stretto_voices":0,"combination":[],"aug_dim":"","rhythm_ratio":1.0,"mirror":false,"chromatic_density":0.154,"complexity":0.495,"dissonance":0.104},{"voice":3,"pitch":46,"start":139.909,"duration":0.2727,"velocity":127,"measure":65,"beat":1.5,"subject_pos":-1,"motif":"","motif_pos":-1,"best_pos":3,"similarity":0.514,"stretto":false,"stretto_voices":0,"combination":[],"aug_dim":"","rhythm_ratio":1.0,"mirror":false,"chromatic_density":0.154,"complexity":0.495,"dissonance":0.104},{"voice":0,"pitch":72,"start":140.1817,"duration":0.2727,"velocity":127,"measure":65,"beat":2.0,"subject_pos":-1,"motif":"","motif_pos":-1,"best_pos":2,"similarity":0.593,"stretto":false,"stretto_voices":0,"combination":[],"aug_dim":"","rhythm_ratio":1.0,"mirror":false,"chromatic_density":0.154,"complexity":0.495,"dissonance":0.104},{"voice":3,"pitch":45,"start":140.1817,"duration":0.2727,"velocity":127,"measure":65,"beat":2.0,"subject_pos":-1,"motif":"","motif_pos":-1,"best_pos":4,"similarity":0.536,"stretto":false,"stretto_voices":0,"combination":[],"aug_dim":"","rhythm_ratio":1.0,"mirror":false,"chromatic_density":0.154,"complexity":0.495,"dissonance":0.104},{"voice":0,"pitch":70,"start":140.4544,"duration":0.2727,"velocity":127,"measure":65,"beat":2.5,"subject_pos":-1,"motif":"","motif_pos":-1,"best_pos":3,"similarity":0.436,"stretto":false,"stretto_voices":0,"combination":[],"aug_dim":"","rhythm_ratio":1.0,"mirror":false,"chromatic_density":0.154,"complexity":0.495,"dissonance":0.104},{"voice":3,"pitch":43,"start":140.4544,"duration":0.2727,"velocity":127,"measure":65,"beat":2.5,"subject_pos":-1,"motif":"","motif_pos":-1,"best_pos":5,"similarity":0.471,"stretto":false,"stretto_voices":0,"combination":[],"aug_dim":"","rhythm_ratio":1.0,"mirror":false,"chromatic_density":0.154,"complexity":0.495,"dissonance":0.104},{"voice":0,"pitch":72,"start":140.7271,"duration":0.2727,"velocity":127,"measure":65,"beat":3.0,"subject_pos":-1,"motif":"","motif_pos":-1,"best_pos":2,"similarity":0.364,"stretto":false,"stretto_voices":0,"combination":[],"aug_dim":"","rhythm_ratio":1.0,"mirror":false,"chromatic_density":0.154,"complexity":0.495,"dissonance":0.104},{"voice":3,"pitch":45,"start":140.7271,"duration":0.2727,"velocity":127,"measure":65,"beat":3.0,"subject_pos":-1,"motif":"","motif_pos":-1,"best_pos":1,"similarity":0.457,"stretto":false,"stretto_voices":0,"combination":[],"aug_dim":"","rhythm_ratio":1.0,"mirror":false,"chromatic_density":0.154,"complexity":0.495,"dissonance":0.104},{"voice":0,"pitch":69,"start":140.9999,"duration":0.2727,"velocity":127,"measure":65,"beat":3.5,"subject_pos":-1,"motif":"","motif_pos":-1,"best_pos":3,"similarity":0.407,"stretto":false,"stretto_voices":0,"combination":[],"aug_dim":"","rhythm_ratio":1.0,"mirror":false,"chromatic_density":0.154,"complexity":0.495,"dissonance":0.104},{"voice":3,"pitch":43,"start":140.9999,"duration":0.2727,"velocity":127,"measure":65,"beat":3.5,"subject_pos":-1,"motif":"","motif_pos":-1,"best_pos":2,"similarity":0.593,"stretto":false,"stretto_voices":0,"combination":[],"aug_dim":"","rhythm_ratio":1.0,"mirror":false,"chromatic_density":0.154,"complexity":0.495,"dissonance":0.104},{"voice":0,"pitch":72,"start":141.2726,"duration":0.8182,"velocity":127,"measure":65,"beat":4.0,"subject_pos":-1,"motif":"","motif_pos":-1,"best_pos":5,"similarity":0.407,"stretto":false,"stretto_voices":0,"combination":[],"aug_dim":"","rhythm_ratio":1.0,"mirror":false,"chromatic_density":0.154,"complexity":0.495,"dissonance":0.104},{"voice":3,"pitch":41,"start":141.2726,"duration":0.2727,"velocity":127,"measure":65,"beat":4.0,"subject_pos":-1,"motif":"","motif_pos":-1,"best_pos":3,"similarity":0.611,"stretto":false,"stretto_voices":0,"combination":[],"aug_dim":"","rhythm_ratio":1.0,"mirror":false,"chromatic_density":0.154,"complexity":0.495,"dissonance":0.104},{"voice":3,"pitch":40,"start":141.5453,"duration":0.2727,"velocity":127,"measure":65,"beat":4.5,"subject_pos":-1,"motif":"","motif_pos":-1,"best_pos":4,"similarity":0.529,"stretto":false,"stretto_voices":0,"combination":[],"aug_dim":"","rhythm_ratio":1.0,"mirror":false,"chromatic_density":0.154,"complexity":0.495,"dissonance":0.104},{"voice":3,"pitch":38,"start":141.818,"duration":1.0909,"velocity":127,"measure":66,"beat":1.0,"subject_pos":-1,"motif":"","motif_pos":-1,"best_pos":4,"similarity":0.607,"stretto":false,"stretto_voices":0,"combination":[],"aug_dim":"","rhythm_ratio":1.0,"mirror":false,"chromatic_density":0.25,"complexity":0.374,"dissonance":0.077},{"voice":0,"pitch":74,"start":142.0908,"duration":0.2727,"velocity":127,"measure":66,"beat":1.5,"subject_pos":-1,"motif":"","motif_pos":-1,"best_pos":1,"similarity":0.393,"stretto":false,"stretto_voices":0,"combination":[],"aug_dim":"","rhythm_ratio":1.0,"mirror":false,"chromatic_density":0.25,"complexity":0.374,"dissonance":0.077},{"voice":0,"pitch":72,"start":142.3635,"duration":0.2727,"velocity":127,"measure":66,"beat":2.0,"subject_pos":-1,"motif":"","motif_pos":-1,"best_pos":2,"similarity":0.464,"stretto":false,"stretto_voices":0,"combination":[],"aug_dim":"","rhythm_ratio":1.0,"mirror":false,"chromatic_density":0.25,"complexity":0.374,"dissonance":0.077},{"voice":1,"pitch":67,"start":142.3635,"duration":0.5455,"velocity":127,"measure":66,"beat":2.0,"subject_pos":-1,"motif":"","motif_pos":-1,"best_pos":6,"similarity":0.464,"stretto":false,"stretto_voices":0,"combination":[],"aug_dim":"","rhythm_ratio":1.0,"mirror":false,"chromatic_density":0.25,"complexity":0.374,"dissonance":0.077},{"voice":0,"pitch":70,"start":142.6362,"duration":0.2727,"velocity":127,"measure":66,"beat":2.5,"subject_pos":-1,"motif":"","motif_pos":-1,"best_pos":5,"similarity":0.4,"stretto":false,"stretto_voices":0,"combination":[],"aug_dim":"","rhythm_ratio":1.0,"mirror":false,"chromatic_density":0.25,"complexity":0.374,"dissonance":0.077},{"voice":0,"pitch":72,"start":142.9089,"duration":0.2727,"velocity":127,"measure":66,"beat":3.0,"subject_pos":-1,"motif":"","motif_pos":-1,"best_pos":1,"similarity":0.386,"stretto":false,"stretto_voices":0,"combination":[],"aug_dim":"","rhythm_ratio":1.0,"mirror":false,"chromatic_density":0.25,"complexity":0.374,"dissonance":0.077},{"voice":1,"pitch":65,"start":142.9089,"duration":0.5455,"velocity":127,"measure":66,"beat":3.0,"subject_pos":-1,"motif":"","motif_pos":-1,"best_pos":3,"similarity":0.536,"stretto":false,"stretto_voices":0,"combination":[],"aug_dim":"","rhythm_ratio":1.0,"mirror":false,"chromatic_density":0.25,"complexity":0.374,"dissonance":0.077},{"voice":0,"pitch":70,"start":143.1817,"duration":0.2727,"velocity":127,"measure":66,"beat":3.5,"subject_pos":-1,"motif":"","motif_pos":-1,"best_pos":3,"similarity":0.464,"stretto":false,"stretto_voices":0,"combination":[],"aug_dim":"","rhythm_ratio":1.0,"mirror":false,"chromatic_density":0.25,"complexity":0.374,"dissonance":0.077},{"voice":0,"pitch":69,"start":143.4544,"duration":0.2727,"velocity":127,"measure":66,"beat":4.0,"subject_pos":-1,"motif":"","motif_pos":-1,"best_pos":4,"similarity":0.414,"stretto":false,"stretto_voices":0,"combination":[],"aug_dim":"","rhythm_ratio":1.0,"mirror":false,"chromatic_density":0.25,"complexity":0.374,"dissonance":0.077},{"voice":1,"pitch":64,"start":143.4544,"duration":0.5455,"velocity":127,"measure":66,"beat":4.0,"subject_pos":-1,"motif":"","motif_pos":-1,"best_pos":4,"similarity":0.543,"stretto":false,"stretto_voices":0,"combination":[],"aug_dim":"","rhythm_ratio":1.0,"mirror":false,"chromatic_density":0.25,"complexity":0.374,"dissonance":0.077},{"voice":0,"pitch":67,"start":143.7271,"duration":0.2727,"velocity":127,"measure":66,"beat":4.5,"subject_pos":-1,"motif":"","motif_pos":-1,"best_pos":2,"similarity":0.436,"stretto":false,"stretto_voices":0,"combination":[],"aug_dim":"","rhythm_ratio":1.0,"mirror":false,"chromatic_density":0.25,"complexity":0.374,"dissonance":0.077},{"voice":0,"pitch":65,"start":143.9999,"duration":2.4545,"velocity":127,"measure":67,"beat":1.0,"subject_pos":-1,"motif":"","motif_pos":-1,"best_pos":2,"similarity":0.364,"stretto":false,"stretto_voices":0,"combination":[],"aug_dim":"","rhythm_ratio":1.0,"mirror":false,"chromatic_density":0.444,"complexity":0.38,"dissonance":0.315},{"voice":1,"pitch":62,"start":143.9999,"duration":0.2727,"velocity":127,"measure":67,"beat":1.0,"subject_pos":-1,"motif":"","motif_pos":-1,"best_pos":5,"similarity":0.507,"stretto":false,"stretto_voices":0,"combination":[],"aug_dim":"","rhythm_ratio":1.0,"mirror":false,"chromatic_density":0.444,"complexity":0.38,"dissonance":0.315},{"voice":1,"pitch":64,"start":144.2726,"duration":0.2727,"velocity":127,"measure":67,"beat":1.5,"subject_pos":-1,"motif":"","motif_pos":-1,"best_pos":6,"similarity":0.4,"stretto":false,"stretto_voices":0,"combination":[],"aug_dim":"","rhythm_ratio":1.0,"mirror":false,"chromatic_density":0.444,"complexity":0.38,"dissonance":0.315},{"voice":1,"pitch":62,"start":144.5453,"duration":0.2727,"velocity":127,"measure":67,"beat":2.0,"subject_pos":-1,"motif":"","motif_pos":-1,"best_pos":3,"similarity":0.593,"stretto":false,"stretto_voices":0,"combination":[],"aug_dim":"","rhythm_ratio":1.0,"mirror":false,"chromatic_density":0.444,"complexity":0.38,"dissonance":0.315},{"voice":3,"pitch":38,"start":144.5453,"duration":0.5455,"velocity":127,"measure":67,"beat":2.0,"subject_pos":-1,"motif":"","motif_pos":-1,"best_pos":5,"similarity":0.661,"stretto":false,"stretto_voices":0,"combination":[],"aug_dim":"","rhythm_ratio":1.0,"mirror":false,"chromatic_density":0.444,"complexity":0.38,"dissonance":0.315},{"voice":1,"pitch":61,"start":144.818,"duration":0.2727,"velocity":127,"measure":67,"beat":2.5,"subject_pos":-1,"motif":"","motif_pos":-1,"best_pos":4,"similarity":0.682,"stretto":false,"stretto_voices":0,"combination":[],"aug_dim":"","rhythm_ratio":1.0,"mirror":false,"chromatic_density":0.444,"complexity":0.38,"dissonance":0.315},{"voice":1,"pitch":62,"start":145.0908,"duration":0.2727,"velocity":127,"measure":67,"beat":3.0,"subject_pos":-1,"motif":"","motif_pos":-1,"best_pos":5,"similarity":0.529,"stretto":false,"stretto_voices":0,"combination":[],"aug_dim":"","rhythm_ratio":1.0,"mirror":false,"chromatic_density":0.444,"complexity":0.38,"dissonance":0.315},{"voice":3,"pitch":40,"start":145.0908,"duration":0.5455,"velocity":127,"measure":67,"beat":3.0,"subject_pos":-1,"motif":"","motif_pos":-1,"best_pos":6,"similarity":0.679,"stretto":false,"stretto_voices":0,"combination":[],"aug_dim":"","rhythm_ratio":1.0,"mirror":false,"chromatic_density":0.444,"complexity":0.38,"dissonance":0.315},{"voice":1,"pitch":60,"start":145.3635,"duration":0.2727,"velocity":127,"measure":67,"beat":3.5,"subject_pos":-1,"motif":"","motif_pos":-1,"best_pos":3,"similarity":0.529,"stretto":false,"stretto_voices":0,"combination":[],"aug_dim":"","rhythm_ratio":1.0,"mirror":false,"chromatic_density":0.444,"complexity":0.38,"dissonance":0.315},{"voice":1,"pitch":59,"start":145.6362,"duration":0.2727,"velocity":127,"measure":67,"beat":4.0,"subject_pos":-1,"motif":"","motif_pos":-1,"best_pos":4,"similarity":0.554,"stretto":false,"stretto_voices":0,"combination":[],"aug_dim":"","rhythm_ratio":1.0,"mirror":false,"chromatic_density":0.444,"complexity":0.38,"dissonance":0.315},{"voice":3,"pitch":41,"start":145.6362,"duration":0.5455,"velocity":127,"measure":67,"beat":4.0,"subject_pos":-1,"motif":"","motif_pos":-1,"best_pos":5,"similarity":0.593,"stretto":false,"stretto_voices":0,"combination":[],"aug_dim":"","rhythm_ratio":1.0,"mirror":false,"chromatic_density":0.444,"complexity":0.38,"dissonance":0.315},{"voice":1,"pitch":57,"start":145.9089,"duration":0.2727,"velocity":127,"measure":67,"beat":4.5,"subject_pos":-1,"motif":"","motif_pos":-1,"best_pos":5,"similarity":0.529,"stretto":false,"stretto_voices":0,"combination":[],"aug_dim":"","rhythm_ratio":1.0,"mirror":false,"chromatic_density":0.444,"complexity":0.38,"dissonance":0.315},{"voice":1,"pitch":59,"start":146.1817,"duration":2.4545,"velocity":127,"measure":68,"beat":1.0,"subject_pos":-1,"motif":"","motif_pos":-1,"best_pos":6,"similarity":0.443,"stretto":false,"stretto_voices":0,"combination":[],"aug_dim":"","rhythm_ratio":1.0,"mirror":false,"chromatic_density":0.111,"complexity":0.423,"dissonance":0.186},{"voice":3,"pitch":43,"start":146.1817,"duration":0.5455,"velocity":127,"measure":68,"beat":1.0,"subject_pos":-1,"motif":"","motif_pos":-1,"best_pos":6,"similarity":0.436,"stretto":false,"stretto_voices":0,"combination":[],"aug_dim":"","rhythm_ratio":1.0,"mirror":false,"chromatic_density":0.111,"complexity":0.423,"dissonance":0.186},{"voice":0,"pitch":69,"start":146.4544,"duration":0.2727,"velocity":127,"measure":68,"beat":1.5,"subject_pos":-1,"motif":"","motif_pos":-1,"best_pos":1,"similarity":0.507,"stretto":false,"stretto_voices":0,"combination":[],"aug_dim":"","rhythm_ratio":1.0,"mirror":false,"chromatic_density":0.111,"complexity":0.423,"dissonance":0.186},{"voice":0,"pitch":67,"start":146.7271,"duration":0.2727,"velocity":127,"measure":68,"beat":2.0,"subject_pos":-1,"motif":"","motif_pos":-1,"best_pos":2,"similarity":0.521,"stretto":false,"stretto_voices":0,"combination":[],"aug_dim":"","rhythm_ratio":1.0,"mirror":false,"chromatic_density":0.111,"complexity":0.423,"dissonance":0.186},{"voice":3,"pitch":55,"start":146.7271,"duration":0.5455,"velocity":127,"measure":68,"beat":2.0,"subject_pos":-1,"motif":"","motif_pos":-1,"best_pos":2,"similarity":0.314,"stretto":false,"stretto_voices":0,"combination":[],"aug_dim":"","rhythm_ratio":1.0,"mirror":false,"chromatic_density":0.111,"complexity":0.423,"dissonance":0.186},{"voice":0,"pitch":65,"start":146.9999,"duration":0.2727,"velocity":127,"measure":68,"beat":2.5,"subject_pos":-1,"motif":"","motif_pos":-1,"best_pos":5,"similarity":0.4,"stretto":false,"stretto_voices":0,"combination":[],"aug_dim":"","rhythm_ratio":1.0,"mirror":false,"chromatic_density":0.111,"complexity":0.423,"dissonance":0.186},{"voice":0,"pitch":67,"start":147.2726,"duration":0.2727,"velocity":127,"measure":68,"beat":3.0,"subject_pos":-1,"motif":"","motif_pos":-1,"best_pos":1,"similarity":0.386,"stretto":false,"stretto_voices":0,"combination":[],"aug_dim":"","rhythm_ratio":1.0,"mirror":false,"chromatic_density":0.111,"complexity":0.423,"dissonance":0.186},{"voice":3,"pitch":52,"start":147.2726,"duration":0.5455,"velocity":127,"measure":68,"beat":3.0,"subject_pos":-1,"motif":"","motif_pos":-1,"best_pos":3,"similarity":0.321,"stretto":false,"stretto_voices":0,"combination":[],"aug_dim":"","rhythm_ratio":1.0,"mirror":false,"chromatic_density":0.111,"complexity":0.423,"dissonance":0.186},{"voice":0,"pitch":65,"start":147.5453,"duration":0.2727,"velocity":127,"measure":68,"beat":3.5,"subject_pos":-1,"motif":"","motif_pos":-1,"best_pos":3,"similarity":0.529,"stretto":false,"stretto_voices":0,"combination":[],"aug_dim":"","rhythm_ratio":1.0,"mirror":false,"chromatic_density":0.111,"complexity":0.423,"dissonance":0.186},{"voice":0,"pitch":64,"start":147.818,"duration":0.2727,"velocity":127,"measure":68,"beat":4.0,"subject_pos":-1,"motif":"","motif_pos":-1,"best_pos":4,"similarity":0.536,"stretto":false,"stretto_voices":0,"combination":[],"aug_dim":"","rhythm_ratio":1.0,"mirror":false,"chromatic_density":0.111,"complexity":0.423,"dissonance":0.186},{"voice":3,"pitch":55,"start":147.818,"duration":0.5455,"velocity":127,"measure":68,"beat":4.0,"subject_pos":-1,"motif":"","motif_pos":-1,"best_pos":4,"similarity":0.207,"stretto":false,"stretto_voices":0,"combination":[],"aug_dim":"","rhythm_ratio":1.0,"mirror":false,"chromatic_density":0.111,"complexity":0.423,"dissonance":0.186},{"voice":0,"pitch":62,"start":148.0908,"duration":0.2727,"velocity":127,"measure":68,"beat":4.5,"subject_pos":-1,"motif":"","motif_pos":-1,"best_pos":5,"similarity":0.493,"stretto":false,"stretto_voices":0,"combination":[],"aug_dim":"","rhythm_ratio":1.0,"mirror":false,"chromatic_density":0.111,"complexity":0.423,"dissonance":0.186},{"voice":0,"pitch":64,"start":148.3635,"duration":2.4545,"velocity":127,"measure":69,"beat":1.0,"subject_pos":-1,"motif":"","motif_pos":-1,"best_pos":6,"similarity":0.371,"stretto":false,"stretto_voices":0,"combination":[],"aug_dim":"","rhythm_ratio":1.0,"mirror":false,"chromatic_density":0.444,"complexity":0.506,"dissonance":0.159},{"voice":3,"pitch":48,"start":148.3635,"duration":0.5455,"velocity":127,"measure":69,"beat":1.0,"subject_pos":-1,"motif":"","motif_pos":-1,"best_pos":4,"similarity":0.214,"stretto":false,"stretto_voices":0,"combination":[],"aug_dim":"","rhythm_ratio":1.0,"mirror":false,"chromatic_density":0.444,"complexity":0.506,"dissonance":0.159},{"voice":1,"pitch":62,"start":148.6362,"duration":0.2727,"velocity":127,"measure":69,"beat":1.5,"subject_pos":-1,"motif":"","motif_pos":-1,"best_pos":1,"similarity":0.411,"stretto":false,"stretto_voices":0,"combination":[],"aug_dim":"","rhythm_ratio":1.0,"mirror":false,"chromatic_density":0.444,"complexity":0.506,"dissonance":0.159},{"voice":1,"pitch":60,"start":148.9089,"duration":0.2727,"velocity":127,"measure":69,"beat":2.0,"subject_pos":-1,"motif":"","motif_pos":-1,"best_pos":3,"similarity":0.586,"stretto":false,"stretto_voices":0,"combination":[],"aug_dim":"","rhythm_ratio":1.0,"mirror":false,"chromatic_density":0.444,"complexity":0.506,"dissonance":0.159},{"voice":3,"pitch":36,"start":148.9089,"duration":0.5455,"velocity":127,"measure":69,"beat":2.0,"subject_pos":-1,"motif":"","motif_pos":-1,"best_pos":4,"similarity":0.371,"stretto":false,"stretto_voices":0,"combination":[],"aug_dim":"","rhythm_ratio":1.0,"mirror":false,"chromatic_density":0.444,"complexity":0.506,"dissonance":0.159},{"voice":1,"pitch":59,"start":149.1817,"duration":0.2727,"velocity":127,"measure":69,"beat":2.5,"subject_pos":-1,"motif":"tail_inv","motif_pos":0,"best_pos":0,"similarity":1.0,"stretto":false,"stretto_voices":0,"combination":[],"aug_dim":"","rhythm_ratio":1.0,"mirror":false,"chromatic_density":0.444,"complexity":0.506,"dissonance":0.159},{"voice":1,"pitch":60,"start":149.4544,"duration":0.2727,"velocity":127,"measure":69,"beat":3.0,"subject_pos":-1,"motif":"tail_inv","motif_pos":1,"best_pos":1,"similarity":1.0,"stretto":false,"stretto_voices":0,"combination":[],"aug_dim":"","rhythm_ratio":1.0,"mirror":false,"chromatic_density":0.444,"complexity":0.506,"dissonance":0.159},{"voice":3,"pitch":38,"start":149.4544,"duration":0.5455,"velocity":127,"measure":69,"beat":3.0,"subject_pos":-1,"motif":"","motif_pos":-1,"best_pos":5,"similarity":0.579,"stretto":false,"stretto_voices":0,"combination":[],"aug_dim":"","rhythm_ratio":1.0,"mirror":false,"chromatic_density":0.444,"complexity":0.506,"dissonance":0.159},{"voice":1,"pitch":59,"start":149.7271,"duration":0.2727,"velocity":127,"measure":69,"beat":3.5,"subject_pos":-1,"motif":"tail_inv","motif_pos":2,"best_pos":2,"similarity":1.0,"stretto":false,"stretto_voices":0,"combination":[],"aug_dim":"","rhythm_ratio":1.0,"mirror":false,"chromatic_density":0.444,"complexity":0.506,"dissonance":0.159},{"voice":1,"pitch":57,"start":149.9999,"duration":0.2727,"velocity":127,"measure":69,"beat":4.0,"subject_pos":-1,"motif":"tail_inv","motif_pos":3,"best_pos":3,"similarity":1.0,"stretto":false,"stretto_voices":0,"combination":[],"aug_dim":"","rhythm_ratio":1.0,"mirror":false,"chromatic_density":0.444,"complexity":0.506,"dissonance":0.159},{"voice":3,"pitch":40,"start":149.9999,"duration":0.5455,"velocity":127,"measure":69,"beat":4.0,"subject_pos":-1,"motif":"","motif_pos":-1,"best_pos":6,"similarity":0.643,"stretto":false,"stretto_voices":0,"combination":[],"aug_dim":"","rhythm_ratio":1.0,"mirror":false,"chromatic_density":0.444,"complexity":0.506,"dissonance":0.159},{"voice":1,"pitch":56,"start":150.2726,"duration":0.2727,"velocity":127,"measure":69,"beat":4.5,"subject_pos":-1,"motif":"tail_inv","motif_pos":4,"best_pos":4,"similarity":1.0,"stretto":false,"stretto_voices":0,"combination":[],"aug_dim":"","rhythm_ratio":1.0,"mirror":false,"chromatic_density":0.444,"complexity":0.506,"dissonance":0.159},{"voice":1,"pitch":57,"start":150.5453,"duration":0.5455,"velocity":127,"measure":70,"beat":1.0,"subject_pos":-1,"motif":"","motif_pos":-1,"best_pos":5,"similarity":0.5,"stretto":false,"stretto_voices":0,"combination":[],"aug_dim":"","rhythm_ratio":1.0,"mirror":false,"chromatic_density":0.333,"complexity":0.42,"dissonance":0.15},{"voice":3,"pitch":41,"start":150.5453,"duration":0.5455,"velocity":127,"measure":70,"beat":1.0,"subject_pos":-1,"motif":"","motif_pos":-1,"best_pos":7,"similarity":0.464,"stretto":false,"stretto_voices":0,"combination":[],"aug_dim":"","rhythm_ratio":1.0,"mirror":false,"chromatic_density":0.333,"complexity":0.42,"dissonance":0.15},{"voice":0,"pitch":79,"start":150.818,"duration":0.2727,"velocity":127,"measure":70,"beat":1.5,"subject_pos":-1,"motif":"","motif_pos":-1,"best_pos":2,"similarity":0.371,"stretto":false,"stretto_voices":0,"combination":[],"aug_dim":"","rhythm_ratio":1.0,"mirror":false,"chromatic_density":0.333,"complexity":0.42,"dissonance":0.15},{"voice":0,"pitch":77,"start":151.0908,"duration":0.2727,"velocity":127,"measure":70,"beat":2.0,"subject_pos":-1,"motif":"","motif_pos":-1,"best_pos":3,"similarity":0.586,"stretto":false,"stretto_voices":0,"combination":[],"aug_dim":"","rhythm_ratio":1.0,"mirror":false,"chromatic_density":0.333,"complexity":0.42,"dissonance":0.15},{"voice":3,"pitch":57,"start":151.0908,"duration":0.5455,"velocity":127,"measure":70,"beat":2.0,"subject_pos":-1,"motif":"","motif_pos":-1,"best_pos":6,"similarity":0.15,"stretto":false,"stretto_voices":0,"combination":[],"aug_dim":"","rhythm_ratio":1.0,"mirror":false,"chromatic_density":0.333,"complexity":0.42,"dissonance":0.15},{"voice":0,"pitch":76,"start":151.3635,"duration":0.2727,"velocity":127,"measure":70,"beat":2.5,"subject_pos":-1,"motif":"","motif_pos":-1,"best_pos":4,"similarity":0.664,"stretto":false,"stretto_voices":0,"combination":[],"aug_dim":"","rhythm_ratio":1.0,"mirror":false,"chromatic_density":0.333,"complexity":0.42,"dissonance":0.15},{"voice":0,"pitch":77,"start":151.6362,"duration":0.2727,"velocity":127,"measure":70,"beat":3.0,"subject_pos":-1,"motif":"","motif_pos":-1,"best_pos":5,"similarity":0.507,"stretto":false,"stretto_voices":0,"combination":[],"aug_dim":"","rhythm_ratio":1.0,"mirror":false,"chromatic_density":0.333,"complexity":0.42,"dissonance":0.15},{"voice":3,"pitch":50,"start":151.6362,"duration":0.5455,"velocity":127,"measure":70,"beat":3.0,"subject_pos":-1,"motif":"","motif_pos":-1,"best_pos":5,"similarity":0.15,"stretto":false,"stretto_voices":0,"combination":[],"aug_dim":"","rhythm_ratio":1.0,"mirror":false,"chromatic_density":0.333,"complexity":0.42,"dissonance":0.15},{"voice":0,"pitch":76,"start":151.9089,"duration":0.2727,"velocity":127,"measure":70,"beat":3.5,"subject_pos":-1,"motif":"","motif_pos":-1,"best_pos":4,"similarity":0.414,"stretto":false,"stretto_voices":0,"combination":[],"aug_dim":"","rhythm_ratio":1.0,"mirror":false,"chromatic_density":0.333,"complexity":0.42,"dissonance":0.15},{"voice":0,"pitch":74,"start":152.1817,"duration":0.2727,"velocity":127,"measure":70,"beat":4.0,"subject_pos":-1,"motif":"","motif_pos":-1,"best_pos":3,"similarity":0.471,"stretto":false,"stretto_voices":0,"combination":[],"aug_dim":"","rhythm_ratio":1.0,"mirror":false,"chromatic_density":0.333,"complexity":0.42,"dissonance":0.15},{"voice":3,"pitch":53,"start":152.1817,"duration":0.5455,"velocity":127,"measure":70,"beat":4.0,"subject_pos":-1,"motif":"","motif_pos":-1,"best_pos":1,"similarity":0.143,"stretto":false,"stretto_voices":0,"combination":[],"aug_dim":"","rhythm_ratio":1.0,"mirror":false,"chromatic_density":0.333,"complexity":0.42,"dissonance":0.15},{"voice":0,"pitch":72,"start":152.4544,"duration":0.2727,"velocity":127,"measure":70,"beat":4.5,"subject_pos":-1,"motif":"","motif_pos":-1,"best_pos":4,"similarity":0.482,"stretto":false,"stretto_voices":0,"combination":[],"aug_dim":"","rhythm_ratio":1.0,"mirror":false,"chromatic_density":0.333,"complexity":0.42,"dissonance":0.15},{"voice":0,"pitch":74,"start":152.7271,"duration":2.4545,"velocity":127,"measure":71,"beat":1.0,"subject_pos":-1,"motif":"","motif_pos":-1,"best_pos":5,"similarity":0.429,"stretto":false,"stretto_voices":0,"combination":[],"aug_dim":"","rhythm_ratio":1.0,"mirror":false,"chromatic_density":0.222,"complexity":0.423,"dissonance":0.223},{"voice":3,"pitch":47,"start":152.7271,"duration":0.5455,"velocity":127,"measure":71,"beat":1.0,"subject_pos":-1,"motif":"","motif_pos":-1,"best_pos":5,"similarity":0.164,"stretto":false,"stretto_voices":0,"combination":[],"aug_dim":"","rhythm_ratio":1.0,"mirror":false,"chromatic_density":0.222,"complexity":0.423,"dissonance":0.223},{"voice":1,"pitch":72,"start":152.9998,"duration":0.2727,"velocity":127,"measure":71,"beat":1.5,"subject_pos":-1,"motif":"","motif_pos":-1,"best_pos":3,"similarity":0.386,"stretto":false,"stretto_voices":0,"combination":[],"aug_dim":"","rhythm_ratio":1.0,"mirror":false,"chromatic_density":0.222,"complexity":0.423,"dissonance":0.223},{"voice":1,"pitch":71,"start":153.2726,"duration":0.2727,"velocity":127,"measure":71,"beat":2.0,"subject_pos":-1,"motif":"","motif_pos":-1,"best_pos":4,"similarity":0.471,"stretto":false,"stretto_voices":0,"combination":[],"aug_dim":"","rhythm_ratio":1.0,"mirror":false,"chromatic_density":0.222,"complexity":0.423,"dissonance":0.223},{"voice":3,"pitch":50,"start":153.2726,"duration":0.5455,"velocity":127,"measure":71,"beat":2.0,"subject_pos":-1,"motif":"","motif_pos":-1,"best_pos":6,"similarity":0.15,"stretto":false,"stretto_voices":0,"combination":[],"aug_dim":"","rhythm_ratio":1.0,"mirror":false,"chromatic_density":0.222,"complexity":0.423,"dissonance":0.223},{"voice":1,"pitch":69,"start":153.5453,"duration":0.2727,"velocity":127,"measure":71,"beat":2.5,"subject_pos":-1,"motif":"","motif_pos":-1,"best_pos":5,"similarity":0.471,"stretto":false,"stretto_voices":0,"combination":[],"aug_dim":"","rhythm_ratio":1.0,"mirror":false,"chromatic_density":0.222,"complexity":0.423,"dissonance":0.223},{"voice":1,"pitch":71,"start":153.818,"duration":0.2727,"velocity":127,"measure":71,"beat":3.0,"subject_pos":-1,"motif":"","motif_pos":-1,"best_pos":6,"similarity":0.4,"stretto":false,"stretto_voices":0,"combination":[],"aug_dim":"","rhythm_ratio":1.0,"mirror":false,"chromatic_density":0.222,"complexity":0.423,"dissonance":0.223},{"voice":3,"pitch":44,"start":153.818,"duration":0.5455,"velocity":127,"measure":71,"beat":3.0,"subject_pos":-1,"motif":"","motif_pos":-1,"best_pos":5,"similarity":0.164,"stretto":false,"stretto_voices":0,"combination":[],"aug_dim":"","rhythm_ratio":1.0,"mirror":false,"chromatic_density":0.222,"complexity":0.423,"dissonance":0.223},{"voice":1,"pitch":69,"start":154.0908,"duration":0.2727,"velocity":127,"measure":71,"beat":3.5,"subject_pos":-1,"motif":"","motif_pos":-1,"best_pos":3,"similarity":0.529,"stretto":false,"stretto_voices":0,"combination":[],"aug_dim":"","rhythm_ratio":1.0,"mirror":false,"chromatic_density":0.222,"complexity":0.423,"dissonance":0.223},{"voice":1,"pitch":68,"start":154.3635,"duration":0.2727,"velocity":127,"measure":71,"beat":4.0,"subject_pos":-1,"motif":"","motif_pos":-1,"best_pos":4,"similarity":0.536,"stretto":false,"stretto_voices":0,"combination":[],"aug_dim":"","rhythm_ratio":1.0,"mirror":false,"chromatic_density":0.222,"complexity":0.423,"dissonance":0.223},{"voice":3,"pitch":47,"start":154.3635,"duration":0.5455,"velocity":127,"measure":71,"beat":4.0,"subject_pos":-1,"motif":"","motif_pos":-1,"best_pos":6,"similarity":0.15,"stretto":false,"stretto_voices":0,"combination":[],"aug_dim":"","rhythm_ratio":1.0,"mirror":false,"chromatic_density":0.222,"complexity":0.423,"dissonance":0.223},{"voice":1,"pitch":66,"start":154.6362,"duration":0.2727,"velocity":127,"measure":71,"beat":4.5,"subject_pos":-1,"motif":"","motif_pos":-1,"best_pos":5,"similarity":0.493,"stretto":false,"stretto_voices":0,"combination":[],"aug_dim":"","rhythm_ratio":1.0,"mirror":false,"chromatic_density":0.222,"complexity":0.423,"dissonance":0.223},{"voice":1,"pitch":68,"start":154.9089,"duration":0.5455,"velocity":127,"measure":72,"beat":1.0,"subject_pos":-1,"motif":"","motif_pos":-1,"best_pos":6,"similarity":0.371,"stretto":false,"stretto_voices":0,"combination":[],"aug_dim":"","rhythm_ratio":1.0,"mirror":false,"chromatic_density":0.222,"complexity":0.377,"dissonance":0.15},{"voice":3,"pitch":40,"start":154.9089,"duration":0.5455,"velocity":127,"measure":72,"beat":1.0,"subject_pos":-1,"motif":"","motif_pos":-1,"best_pos":4,"similarity":0.196,"stretto":false,"stretto_voices":0,"combination":[],"aug_dim":"","rhythm_ratio":1.0,"mirror":false,"chromatic_density":0.222,"complexity":0.377,"dissonance":0.15},{"voice":0,"pitch":77,"start":155.1817,"duration":0.2727,"velocity":127,"measure":72,"beat":1.5,"subject_pos":-1,"motif":"","motif_pos":-1,"best_pos":3,"similarity":0.386,"stretto":false,"stretto_voices":0,"combination":[],"aug_dim":"","rhythm_ratio":1.0,"mirror":false,"chromatic_density":0.222,"complexity":0.377,"dissonance":0.15},{"voice":0,"pitch":76,"start":155.4544,"duration":0.2727,"velocity":127,"measure":72,"beat":2.0,"subject_pos":-1,"motif":"","motif_pos":-1,"best_pos":4,"similarity":0.471,"stretto":false,"stretto_voices":0,"combination":[],"aug_dim":"","rhythm_ratio":1.0,"mirror":false,"chromatic_density":0.222,"complexity":0.377,"dissonance":0.15},{"voice":3,"pitch":52,"start":155.4544,"duration":0.5455,"velocity":127,"measure":72,"beat":2.0,"subject_pos":-1,"motif":"","motif_pos":-1,"best_pos":4,"similarity":0.371,"stretto":false,"stretto_voices":0,"combination":[],"aug_dim":"","rhythm_ratio":1.0,"mirror":false,"chromatic_density":0.222,"complexity":0.377,"dissonance":0.15},{"voice":0,"pitch":74,"start":155.7271,"duration":0.2727,"velocity":127,"measure":72,"beat":2.5,"subject_pos":-1,"motif":"","motif_pos":-1,"best_pos":5,"similarity":0.471,"stretto":false,"stretto_voices":0,"combination":[],"aug_dim":"","rhythm_ratio":1.0,"mirror":false,"chromatic_density":0.222,"complexity":0.377,"dissonance":0.15},{"voice":0,"pitch":76,"start":155.9998,"duration":0.2727,"velocity":127,"measure":72,"beat":3.0,"subject_pos":-1,"motif":"","motif_pos":-1,"best_pos":1,"similarity":0.457,"stretto":false,"stretto_voices":0,"combination":[],"aug_dim":"","rhythm_ratio":1.0,"mirror":false,"chromatic_density":0.222,"complexity":0.377,"dissonance":0.15},{"voice":3,"pitch":54,"start":155.9998,"duration":0.5455,"velocity":127,"measure":72,"beat":3.0,"subject_pos":-1,"motif":"","motif_pos":-1,"best_pos":5,"similarity":0.579,"stretto":false,"stretto_voices":0,"combination":[],"aug_dim":"","rhythm_ratio":1.0,"mirror":false,"chromatic_density":0.222,"complexity":0.377,"dissonance":0.15},{"voice":0,"pitch":74,"start":156.2726,"duration":0.2727,"velocity":127,"measure":72,"beat":3.5,"subject_pos":-1,"motif":"","motif_pos":-1,"best_pos":2,"similarity":0.657,"stretto":false,"stretto_voices":0,"combination":[],"aug_dim":"","rhythm_ratio":1.0,"mirror":false,"chromatic_density":0.222,"complexity":0.377,"dissonance":0.15},{"voice":0,"pitch":72,"start":156.5453,"duration":0.2727,"velocity":127,"measure":72,"beat":4.0,"subject_pos":-1,"motif":"","motif_pos":-1,"best_pos":3,"similarity":0.739,"stretto":false,"stretto_voices":0,"combination":[],"aug_dim":"","rhythm_ratio":1.0,"mirror":false,"chromatic_density":0.222,"complexity":0.377,"dissonance":0.15},{"voice":3,"pitch":56,"start":156.5453,"duration":0.5455,"velocity":127,"measure":72,"beat":4.0,"subject_pos":-1,"motif":"","motif_pos":-1,"best_pos":6,"similarity":0.643,"stretto":false,"stretto_voices":0,"combination":[],"aug_dim":"","rhythm_ratio":1.0,"mirror":false,"chromatic_density":0.222,"complexity":0.377,"dissonance":0.15},{"voice":0,"pitch":71,"start":156.818,"duration":0.2727,"velocity":127,"measure":72,"beat":4.5,"subject_pos":-1,"motif":"","motif_pos":-1,"best_pos":4,"similarity":0.757,"stretto":false,"stretto_voices":0,"combination":[],"aug_dim":"","rhythm_ratio":1.0,"mirror":false,"chromatic_density":0.222,"complexity":0.377,"dissonance":0.15},{"voice":0,"pitch":72,"start":157.0908,"duration":0.2727,"velocity":127,"measure":73,"beat":1.0,"subject_pos":-1,"motif":"","motif_pos":-1,"best_pos":5,"similarity":0.55,"stretto":false,"stretto_voices":0,"combination":[],"aug_dim":"","rhythm_ratio":1.0,"mirror":false,"chromatic_density":0.125,"complexity":0.557,"dissonance":0.048},{"voice":2,"pitch":57,"start":157.0908,"duration":2.1818,"velocity":127,"measure":73,"beat":1.0,"subject_pos":0,"motif":"subject","motif_pos":0,"best_pos":0,"similarity":1.0,"stretto":false,"stretto_voices":0,"combination":[],"aug_dim":"augmentation","rhythm_ratio":4.35,"mirror":false,"chromatic_density":0.125,"complexity":0.557,"dissonance":0.048},{"voice":3,"pitch":57,"start":157.0908,"duration":2.4545,"velocity":127,"measure":73,"beat":1.0,"subject_pos":-1,"motif":"","motif_pos":-1,"best_pos":3,"similarity":0.479,"stretto":false,"stretto_voices":0,"combination":[],"aug_dim":"","rhythm_ratio":1.0,"mirror":false,"chromatic_density":0.125,"complexity":0.557,"dissonance":0.048},{"voice":0,"pitch":76,"start":157.3635,"duration":0.2727,"velocity":127,"measure":73,"beat":1.5,"subject_pos":-1,"motif":"","motif_pos":-1,"best_pos":1,"similarity":0.507,"stretto":false,"stretto_voices":0,"combination":[],"aug_dim":"","rhythm_ratio":1.0,"mirror":false,"chromatic_density":0.125,"complexity":0.557,"dissonance":0.048},{"voice":0,"pitch":74,"start":157.6362,"duration":0.2727,"velocity":127,"measure":73,"beat":2.0,"subject_pos":-1,"motif":"","motif_pos":-1,"best_pos":2,"similarity":0.521,"stretto":false,"stretto_voices":0,"combination":[],"aug_dim":"","rhythm_ratio":1.0,"mirror":false,"chromatic_density":0.125,"complexity":0.557,"dissonance":0.048},{"voice":1,"pitch":64,"start":157.6362,"duration":0.5455,"velocity":127,"measure":73,"beat":2.0,"subject_pos":-1,"motif":"","motif_pos":-1,"best_pos":2,"similarity":0.379,"stretto":false,"stretto_voices":0,"combination":[],"aug_dim":"","rhythm_ratio":1.0,"mirror":false,"chromatic_density":0.125,"complexity":0.557,"dissonance":0.048},{"voice":0,"pitch":72,"start":157.9089,"duration":0.2727,"velocity":127,"measure":73,"beat":2.5,"subject_pos":-1,"motif":"","motif_pos":-1,"best_pos":5,"similarity":0.4,"stretto":false,"stretto_voices":0,"combination":[],"aug_dim":"","rhythm_ratio":1.0,"mirror":false,"chromatic_density":0.125,"complexity":0.557,"dissonance":0.048},{"voice":0,"pitch":74,"start":158.1817,"duration":0.2727,"velocity":127,"measure":73,"beat":3.0,"subject_pos":-1,"motif":"","motif_pos":-1,"best_pos":1,"similarity":0.386,"stretto":false,"stretto_voices":0,"combination":[],"aug_dim":"","rhythm_ratio":1.0,"mirror":false,"chromatic_density":0.125,"complexity":0.557,"dissonance":0.048},{"voice":1,"pitch":76,"start":158.1817,"duration":1.6364,"velocity":127,"measure":73,"beat":3.0,"subject_pos":-1,"motif":"","motif_pos":-1,"best_pos":1,"similarity":0.429,"stretto":false,"stretto_voices":0,"combination":[],"aug_dim":"","rhythm_ratio":1.0,"mirror":false,"chromatic_density":0.125,"complexity":0.557,"dissonance":0.048},{"voice":0,"pitch":72,"start":158.4544,"duration":0.2727,"velocity":127,"measure":73,"beat":3.5,"subject_pos":-1,"motif":"","motif_pos":-1,"best_pos":3,"similarity":0.529,"stretto":false,"stretto_voices":0,"combination":[],"aug_dim":"","rhythm_ratio":1.0,"mirror":false,"chromatic_density":0.125,"complexity":0.557,"dissonance":0.048},{"voice":0,"pitch":71,"start":158.7271,"duration":0.2727,"velocity":127,"measure":73,"beat":4.0,"subject_pos":-1,"motif":"","motif_pos":-1,"best_pos":4,"similarity":0.536,"stretto":false,"stretto_voices":0,"combination":[],"aug_dim":"","rhythm_ratio":1.0,"mirror":false,"chromatic_density":0.125,"complexity":0.557,"dissonance":0.048},{"voice":0,"pitch":69,"start":158.9998,"duration":0.2727,"velocity":127,"measure":73,"beat":4.5,"subject_pos":-1,"motif":"","motif_pos":-1,"best_pos":5,"similarity":0.493,"stretto":false,"stretto_voices":0,"combination":[],"aug_dim":"","rhythm_ratio":1.0,"mirror":false,"chromatic_density":0.125,"complexity":0.557,"dissonance":0.048},{"voice":0,"pitch":71,"start":159.2726,"duration":0.5455,"velocity":127,"measure":74,"beat":1.0,"subject_pos":-1,"motif":"","motif_pos":-1,"best_pos":6,"similarity":0.371,"stretto":false,"stretto_voices":0,"combination":[],"aug_dim":"","rhythm_ratio":1.0,"mirror":false,"chromatic_density":0.333,"complexity":0.49,"dissonance":0.152},{"voice":2,"pitch":64,"start":159.2726,"duration":2.1818,"velocity":127,"measure":74,"beat":1.0,"subject_pos":1,"motif":"subject","motif_pos":1,"best_pos":1,"similarity":1.0,"stretto":false,"stretto_voices":0,"combination":[],"aug_dim":"augmentation","rhythm_ratio":4.35,"mirror":false,"chromatic_density":0.333,"complexity":0.49,"dissonance":0.152},{"voice":3,"pitch":56,"start":159.5453,"duration":0.2727,"velocity":127,"measure":74,"beat":1.5,"subject_pos":-1,"motif":"","motif_pos":-1,"best_pos":4,"similarity":0.629,"stretto":false,"stretto_voices":0,"combination":[],"aug_dim":"","rhythm_ratio":1.0,"mirror":false,"chromatic_density":0.333,"complexity":0.49,"dissonance":0.152},{"voice":1,"pitch":74,"start":159.818,"duration":0.2727,"velocity":127,"measure":74,"beat":2.0,"subject_pos":-1,"motif":"","motif_pos":-1,"best_pos":2,"similarity":0.579,"stretto":false,"stretto_voices":0,"combination":[],"aug_dim":"","rhythm_ratio":1.0,"mirror":false,"chromatic_density":0.333,"complexity":0.49,"dissonance":0.152},{"voice":3,"pitch":57,"start":159.818,"duration":0.2727,"velocity":127,"measure":74,"beat":2.0,"subject_pos":-1,"motif":"","motif_pos":-1,"best_pos":5,"similarity":0.507,"stretto":false,"stretto_voices":0,"combination":[],"aug_dim":"","rhythm_ratio":1.0,"mirror":false,"chromatic_density":0.333,"complexity":0.49,"dissonance":0.152},{"voice":1,"pitch":72,"start":160.0907,"duration":0.2727,"velocity":127,"measure":74,"beat":2.5,"subject_pos":-1,"motif":"","motif_pos":-1,"best_pos":3,"similarity":0.593,"stretto":false,"stretto_voices":0,"combination":[],"aug_dim":"","rhythm_ratio":1.0,"mirror":false,"chromatic_density":0.333,"complexity":0.49,"dissonance":0.152},{"voice":3,"pitch":54,"start":160.0907,"duration":0.2727,"velocity":127,"measure":74,"beat":2.5,"subject_pos":-1,"motif":"","motif_pos":-1,"best_pos":5,"similarity":0.404,"stretto":false,"stretto_voices":0,"combination":[],"aug_dim":"","rhythm_ratio":1.0,"mirror":false,"chromatic_density":0.333,"complexity":0.49,"dissonance":0.152},{"voice":1,"pitch":71,"start":160.3635,"duration":0.2727,"velocity":127,"measure":74,"beat":3.0,"subject_pos":-1,"motif":"","motif_pos":-1,"best_pos":4,"similarity":0.479,"stretto":false,"stretto_voices":0,"combination":[],"aug_dim":"","rhythm_ratio":1.0,"mirror":false,"chromatic_density":0.333,"complexity":0.49,"dissonance":0.152},{"voice":3,"pitch":56,"start":160.3635,"duration":0.5455,"velocity":127,"measure":74,"beat":3.0,"subject_pos":-1,"motif":"","motif_pos":-1,"best_pos":5,"similarity":0.4,"stretto":false,"stretto_voices":0,"combination":[],"aug_dim":"","rhythm_ratio":1.0,"mirror":false,"chromatic_density":0.333,"complexity":0.49,"dissonance":0.152},{"voice":1,"pitch":69,"start":160.6362,"duration":0.2727,"velocity":127,"measure":74,"beat":3.5,"subject_pos":-1,"motif":"","motif_pos":-1,"best_pos":3,"similarity":0.521,"stretto":false,"stretto_voices":0,"combination":[],"aug_dim":"","rhythm_ratio":1.0,"mirror":false,"chromatic_density":0.333,"complexity":0.49,"dissonance":0.152},{"voice":1,"pitch":68,"start":160.9089,"duration":0.2727,"velocity":127,"measure":74,"beat":4.0,"subject_pos":-1,"motif":"","motif_pos":-1,"best_pos":4,"similarity":0.443,"stretto":false,"stretto_voices":0,"combination":[],"aug_dim":"","rhythm_ratio":1.0,"mirror":false,"chromatic_density":0.333,"complexity":0.49,"dissonance":0.152},{"voice":3,"pitch":59,"start":160.9089,"duration":0.5455,"velocity":127,"measure":74,"beat":4.0,"subject_pos":-1,"motif":"","motif_pos":-1,"best_pos":6,"similarity":0.375,"stretto":false,"stretto_voices":0,"combination":[],"aug_dim":"","rhythm_ratio":1.0,"mirror":false,"chromatic_density":0.333,"complexity":0.49,"dissonance":0.152},{"voice":1,"pitch":66,"start":161.1817,"duration":0.2727,"velocity":127,"measure":74,"beat":4.5,"subject_pos":-1,"motif":"","motif_pos":-1,"best_pos":2,"similarity":0.536,"stretto":false,"stretto_voices":0,"combination":[],"aug_dim":"","rhythm_ratio":1.0,"mirror":false,"chromatic_density":0.333,"complexity":0.49,"dissonance":0.152},{"voice":1,"pitch":64,"start":161.4544,"duration":0.2727,"velocity":127,"measure":75,"beat":1.0,"subject_pos":-1,"motif":"","motif_pos":-1,"best_pos":3,"similarity":0.571,"stretto":false,"stretto_voices":0,"combination":[],"aug_dim":"","rhythm_ratio":1.0,"mirror":false,"chromatic_density":0.0,"complexity":0.541,"dissonance":0.183},{"voice":2,"pitch":60,"start":161.4544,"duration":2.1818,"velocity":127,"measure":75,"beat":1.0,"subject_pos":2,"motif":"subject","motif_pos":2,"best_pos":2,"similarity":1.0,"stretto":false,"stretto_voices":0,"combination":[],"aug_dim":"augmentation","rhythm_ratio":4.35,"mirror":false,"chromatic_density":0.0,"complexity":0.541,"dissonance":0.183},{"voice":3,"pitch":59,"start":161.4544,"duration":0.5455,"velocity":127,"measure":75,"beat":1.0,"subject_pos":-1,"motif":"","motif_pos":-1,"best_pos":1,"similarity":0.339,"stretto":false,"stretto_voices":0,"combination":[],"aug_dim":"","rhythm_ratio":1.0,"mirror":false,"chromatic_density":0.0,"complexity":0.541,"dissonance":0.183},{"voice":1,"pitch":62,"start":161.7271,"duration":0.2727,"velocity":127,"measure":75,"beat":1.5,"subject_pos":-1,"motif":"","motif_pos":-1,"best_pos":4,"similarity":0.607,"stretto":false,"stretto_voices":0,"combination":[],"aug_dim":"","rhythm_ratio":1.0,"mirror":false,"chromatic_density":0.0,"complexity":0.541,"dissonance":0.183},{"voice":0,"pitch":64,"start":161.9998,"duration":0.5455,"velocity":127,"measure":75,"beat":2.0,"subject_pos":-1,"motif":"","motif_pos":-1,"best_pos":2,"similarity":0.221,"stretto":false,"stretto_voices":0,"combination":[],"aug_dim":"","rhythm_ratio":1.0,"mirror":false,"chromatic_density":0.0,"complexity":0.541,"dissonance":0.183},{"voice":1,"pitch":64,"start":161.9998,"duration":0.2727,"velocity":127,"measure":75,"beat":2.0,"subject_pos":-1,"motif":"","motif_pos":-1,"best_pos":5,"similarity":0.607,"stretto":false,"stretto_voices":0,"combination":[],"aug_dim":"","rhythm_ratio":1.0,"mirror":false,"chromatic_density":0.0,"complexity":0.541,"dissonance":0.183},{"voice":3,"pitch":57,"start":161.9998,"duration":0.5455,"velocity":127,"measure":75,"beat":2.0,"subject_pos":-1,"motif":"","motif_pos":-1,"best_pos":2,"similarity":0.411,"stretto":false,"stretto_voices":0,"combination":[],"aug_dim":"","rhythm_ratio":1.0,"mirror":false,"chromatic_density":0.0,"complexity":0.541,"dissonance":0.183},{"voice":1,"pitch":66,"start":162.2726,"duration":0.2727,"velocity":127,"measure":75,"beat":2.5,"subject_pos":-1,"motif":"","motif_pos":-1,"best_pos":6,"similarity":0.536,"stretto":false,"stretto_voices":0,"combination":[],"aug_dim":"","rhythm_ratio":1.0,"mirror":false,"chromatic_density":0.0,"complexity":0.541,"dissonance":0.183},{"voice":0,"pitch":76,"start":162.5453,"duration":1.6364,"velocity":127,"measure":75,"beat":3.0,"subject_pos":-1,"motif":"","motif_pos":-1,"best_pos":3,"similarity":0.414,"stretto":false,"stretto_voices":0,"combination":[],"aug_dim":"","rhythm_ratio":1.0,"mirror":false,"chromatic_density":0.0,"complexity":0.541,"dissonance":0.183},{"voice":1,"pitch":68,"start":162.5453,"duration":0.2727,"velocity":127,"measure":75,"beat":3.0,"subject_pos":-1,"motif":"","motif_pos":-1,"best_pos":6,"similarity":0.364,"stretto":false,"stretto_voices":0,"combination":[],"aug_dim":"","rhythm_ratio":1.0,"mirror":false,"chromatic_density":0.0,"complexity":0.541,"dissonance":0.183},{"voice":1,"pitch":64,"start":162.818,"duration":0.2727,"velocity":127,"measure":75,"beat":3.5,"subject_pos":-1,"motif":"","motif_pos":-1,"best_pos":4,"similarity":0.393,"stretto":false,"stretto_voices":0,"combination":[],"aug_dim":"","rhythm_ratio":1.0,"mirror":false,"chromatic_density":0.0,"complexity":0.541,"dissonance":0.183},{"voice":1,"pitch":66,"start":163.0907,"duration":0.2727,"velocity":127,"measure":75,"beat":4.0,"subject_pos":-1,"motif":"","motif_pos":-1,"best_pos":5,"similarity":0.586,"stretto":false,"stretto_voices":0,"combination":[],"aug_dim":"","rhythm_ratio":1.0,"mirror":false,"chromatic_density":0.0,"complexity":0.541,"dissonance":0.183},{"voice":3,"pitch":52,"start":163.0907,"duration":0.5455,"velocity":127,"measure":75,"beat":4.0,"subject_pos":-1,"motif":"","motif_pos":-1,"best_pos":4,"similarity":0.425,"stretto":false,"stretto_voices":0,"combination":[],"aug_dim":"","rhythm_ratio":1.0,"mirror":false,"chromatic_density":0.0,"complexity":0.541,"dissonance":0.183},{"voice":1,"pitch":68,"start":163.3635,"duration":0.2727,"velocity":127,"measure":75,"beat":4.5,"subject_pos":-1,"motif":"","motif_pos":-1,"best_pos":6,"similarity":0.65,"stretto":false,"stretto_voices":0,"combination":[],"aug_dim":"","rhythm_ratio":1.0,"mirror":false,"chromatic_density":0.0,"complexity":0.541,"dissonance":0.183},{"voice":1,"pitch":69,"start":163.6362,"duration":0.2727,"velocity":127,"measure":76,"beat":1.0,"subject_pos":-1,"motif":"tail","motif_pos":3,"best_pos":3,"similarity":1.0,"stretto":false,"stretto_voices":0,"combination":[],"aug_dim":"","rhythm_ratio":1.0,"mirror":false,"chromatic_density":0.571,"complexity":0.611,"dissonance":0.279},{"voice":2,"pitch":57,"start":163.6362,"duration":2.1818,"velocity":127,"measure":76,"beat":1.0,"subject_pos":3,"motif":"subject","motif_pos":3,"best_pos":3,"similarity":1.0,"stretto":false,"stretto_voices":0,"combination":[],"aug_dim":"augmentation","rhythm_ratio":4.35,"mirror":false,"chromatic_density":0.571,"complexity":0.611,"dissonance":0.279},{"voice":3,"pitch":53,"start":163.6362,"duration":2.1818,"velocity":127,"measure":76,"beat":1.0,"subject_pos":-1,"motif":"","motif_pos":-1,"best_pos":3,"similarity":0.407,"stretto":false,"stretto_voices":0,"combination":[],"aug_dim":"","rhythm_ratio":1.0,"mirror":false,"chromatic_density":0.571,"complexity":0.611,"dissonance":0.279},{"voice":1,"pitch":68,"start":163.9089,"duration":0.2727,"velocity":127,"measure":76,"beat":1.5,"subject_pos":-1,"motif":"tail","motif_pos":4,"best_pos":4,"similarity":1.0,"stretto":false,"stretto_voices":0,"combination":[],"aug_dim":"","rhythm_ratio":1.0,"mirror":false,"chromatic_density":0.571,"complexity":0.611,"dissonance":0.279},{"voice":0,"pitch":75,"start":164.1817,"duration":0.5455,"velocity":127,"measure":76,"beat":2.0,"subject_pos":-1,"motif":"","motif_pos":-1,"best_pos":4,"similarity":0.579,"stretto":false,"stretto_voices":0,"combination":[],"aug_dim":"","rhythm_ratio":1.0,"mirror":false,"chromatic_density":0.571,"complexity":0.611,"dissonance":0.279},{"voice":1,"pitch":69,"start":164.1817,"duration":0.2727,"velocity":127,"measure":76,"beat":2.0,"subject_pos":-1,"motif":"tail","motif_pos":5,"best_pos":5,"similarity":1.0,"stretto":false,"stretto_voices":0,"combination":[],"aug_dim":"","rhythm_ratio":1.0,"mirror":false,"chromatic_density":0.571,"complexity":0.611,"dissonance":0.279},{"voice":1,"pitch":71,"start":164.4544,"duration":0.2727,"velocity":127,"measure":76,"beat":2.5,"subject_pos":-1,"motif":"tail","motif_pos":6,"best_pos":6,"similarity":1.0,"stretto":false,"stretto_voices":0,"combination":[],"aug_dim":"","rhythm_ratio":1.0,"mirror":false,"chromatic_density":0.571,"complexity":0.611,"dissonance":0.279},{"voice":1,"pitch":72,"start":164.7271,"duration":0.2727,"velocity":127,"measure":76,"beat":3.0,"subject_pos":-1,"motif":"tail","motif_pos":7,"best_pos":7,"similarity":1.0,"stretto":false,"stretto_voices":0,"combination":[],"aug_dim":"","rhythm_ratio":1.0,"mirror":false,"chromatic_density":0.571,"complexity":0.611,"dissonance":0.279},{"voice":1,"pitch":69,"start":164.9998,"duration":0.2727,"velocity":127,"measure":76,"beat":3.5,"subject_pos":-1,"motif":"","motif_pos":-1,"best_pos":3,"similarity":0.496,"stretto":false,"stretto_voices":0,"combination":[],"aug_dim":"","rhythm_ratio":1.0,"mirror":false,"chromatic_density":0.571,"complexity":0.611,"dissonance":0.279},{"voice":0,"pitch":75,"start":165.2726,"duration":0.5455,"velocity":127,"measure":76,"beat":4.0,"subject_pos":-1,"motif":"","motif_pos":-1,"best_pos":5,"similarity":0.571,"stretto":false,"stretto_voices":0,"combination":[],"aug_dim":"","rhythm_ratio":1.0,"mirror":false,"chromatic_density":0.571,"complexity":0.611,"dissonance":0.279},{"voice":1,"pitch":71,"start":165.2726,"duration":0.2727,"velocity":127,"measure":76,"beat":4.0,"subject_pos":-1,"motif":"","motif_pos":-1,"best_pos":6,"similarity":0.604,"stretto":false,"stretto_voices":0,"combination":[],"aug_dim":"","rhythm_ratio":1.0,"mirror":false,"chromatic_density":0.571,"complexity":0.611,"dissonance":0.279},{"voice":1,"pitch":72,"start":165.5453,"duration":0.2727,"velocity":127,"measure":76,"beat":4.5,"subject_pos":-1,"motif":"","motif_pos":-1,"best_pos":5,"similarity":0.479,"stretto":false,"stretto_voices":0,"combination":[],"aug_dim":"","rhythm_ratio":1.0,"mirror":false,"chromatic_density":0.571,"complexity":0.611,"dissonance":0.279},{"voice":0,"pitch":76,"start":165.818,"duration":0.2727,"velocity":127,"measure":77,"beat":1.0,"subject_pos":-1,"motif":"","motif_pos":-1,"best_pos":6,"similarity":0.571,"stretto":false,"stretto_voices":0,"combination":[],"aug_dim":"","rhythm_ratio":1.0,"mirror":false,"chromatic_density":0.4,"complexity":0.5,"dissonance":0.096},{"voice":1,"pitch":72,"start":165.818,"duration":0.5455,"velocity":127,"measure":77,"beat":1.0,"subject_pos":-1,"motif":"","motif_pos":-1,"best_pos":3,"similarity":0.414,"stretto":false,"stretto_voices":0,"combination":[],"aug_dim":"","rhythm_ratio":1.0,"mirror":false,"chromatic_density":0.4,"complexity":0.5,"dissonance":0.096},{"voice":2,"pitch":56,"start":165.818,"duration":2.1818,"velocity":127,"measure":77,"beat":1.0,"subject_pos":4,"motif":"subject","motif_pos":4,"best_pos":4,"similarity":1.0,"stretto":false,"stretto_voices":0,"combination":[],"aug_dim":"augmentation","rhythm_ratio":4.35,"mirror":false,"chromatic_density":0.4,"complexity":0.5,"dissonance":0.096},{"voice":3,"pitch":52,"start":165.818,"duration":2.1818,"velocity":127,"measure":77,"beat":1.0,"subject_pos":-1,"motif":"","motif_pos":-1,"best_pos":1,"similarity":0.429,"stretto":false,"stretto_voices":0,"combination":[],"aug_dim":"","rhythm_ratio":1.0,"mirror":false,"chromatic_density":0.4,"complexity":0.5,"dissonance":0.096},{"voice":0,"pitch":77,"start":166.0907,"duration":0.2727,"velocity":127,"measure":77,"beat":1.5,"subject_pos":-1,"motif":"","motif_pos":-1,"best_pos":3,"similarity":0.414,"stretto":false,"stretto_voices":0,"combination":[],"aug_dim":"","rhythm_ratio":1.0,"mirror":false,"chromatic_density":0.4,"complexity":0.5,"dissonance":0.096},{"voice":0,"pitch":76,"start":166.3635,"duration":0.2727,"velocity":127,"measure":77,"beat":2.0,"subject_pos":-1,"motif":"","motif_pos":-1,"best_pos":4,"similarity":0.486,"stretto":false,"stretto_voices":0,"combination":[],"aug_dim":"","rhythm_ratio":1.0,"mirror":false,"chromatic_density":0.4,"complexity":0.5,"dissonance":0.096},{"voice":1,"pitch":71,"start":166.3635,"duration":0.5455,"velocity":127,"measure":77,"beat":2.0,"subject_pos":-1,"motif":"","motif_pos":-1,"best_pos":4,"similarity":0.5,"stretto":false,"stretto_voices":0,"combination":[],"aug_dim":"","rhythm_ratio":1.0,"mirror":false,"chromatic_density":0.4,"complexity":0.5,"dissonance":0.096},{"voice":0,"pitch":74,"start":166.6362,"duration":0.2727,"velocity":127,"measure":77,"beat":2.5,"subject_pos":-1,"motif":"","motif_pos":-1,"best_pos":5,"similarity":0.479,"stretto":false,"stretto_voices":0,"combination":[],"aug_dim":"","rhythm_ratio":1.0,"mirror":false,"chromatic_density":0.4,"complexity":0.5,"dissonance":0.096},{"voice":0,"pitch":76,"start":166.9089,"duration":0.2727,"velocity":127,"measure":77,"beat":3.0,"subject_pos":-1,"motif":"","motif_pos":-1,"best_pos":1,"similarity":0.457,"stretto":false,"stretto_voices":0,"combination":[],"aug_dim":"","rhythm_ratio":1.0,"mirror":false,"chromatic_density":0.4,"complexity":0.5,"dissonance":0.096},{"voice":0,"pitch":74,"start":167.1817,"duration":0.2727,"velocity":127,"measure":77,"beat":3.5,"subject_pos":-1,"motif":"","motif_pos":-1,"best_pos":2,"similarity":0.657,"stretto":false,"stretto_voices":0,"combination":[],"aug_dim":"","rhythm_ratio":1.0,"mirror":false,"chromatic_density":0.4,"complexity":0.5,"dissonance":0.096},{"voice":1,"pitch":71,"start":167.1817,"duration":0.2727,"velocity":127,"measure":77,"beat":3.5,"subject_pos":-1,"motif":"","motif_pos":-1,"best_pos":4,"similarity":0.439,"stretto":false,"stretto_voices":0,"combination":[],"aug_dim":"","rhythm_ratio":1.0,"mirror":false,"chromatic_density":0.4,"complexity":0.5,"dissonance":0.096},{"voice":0,"pitch":72,"start":167.4544,"duration":0.2727,"velocity":127,"measure":77,"beat":4.0,"subject_pos":-1,"motif":"","motif_pos":-1,"best_pos":3,"similarity":0.721,"stretto":false,"stretto_voices":0,"combination":[],"aug_dim":"","rhythm_ratio":1.0,"mirror":false,"chromatic_density":0.4,"complexity":0.5,"dissonance":0.096},{"voice":1,"pitch":69,"start":167.4544,"duration":0.2727,"velocity":127,"measure":77,"beat":4.0,"subject_pos":-1,"motif":"","motif_pos":-1,"best_pos":5,"similarity":0.546,"stretto":false,"stretto_voices":0,"combination":[],"aug_dim":"","rhythm_ratio":1.0,"mirror":false,"chromatic_density":0.4,"complexity":0.5,"dissonance":0.096},{"voice":0,"pitch":71,"start":167.7271,"duration":0.2727,"velocity":127,"measure":77,"beat":4.5,"subject_pos":-1,"motif":"","motif_pos":-1,"best_pos":4,"similarity":0.714,"stretto":false,"stretto_voices":0,"combination":[],"aug_dim":"","rhythm_ratio":1.0,"mirror":false,"chromatic_density":0.4,"complexity":0.5,"dissonance":0.096},{"voice":1,"pitch":71,"start":167.7271,"duration":0.2727,"velocity":127,"measure":77,"beat":4.5,"subject_pos":-1,"motif":"","motif_pos":-1,"best_pos":6,"similarity":0.621,"stretto":false,"stretto_voices":0,"combination":[],"aug_dim":"","rhythm_ratio":1.0,"mirror":false,"chromatic_density":0.4,"complexity":0.5,"dissonance":0.096},{"voice":0,"pitch":72,"start":167.9998,"duration":0.5455,"velocity":127,"measure":78,"beat":1.0,"subject_pos":-1,"motif":"","motif_pos":-1,"best_pos":5,"similarity":0.464,"stretto":false,"stretto_voices":0,"combination":[],"aug_dim":"","rhythm_ratio":1.0,"mirror":false,"chromatic_density":0.091,"complexity":0.539,"dissonance":0.204},{"voice":1,"pitch":72,"start":167.9998,"duration":0.2727,"velocity":127,"measure":78,"beat":1.0,"subject_pos":-1,"motif":"","motif_pos":-1,"best_pos":7,"similarity":0.436,"stretto":false,"stretto_voices":0,"combination":[],"aug_dim":"","rhythm_ratio":1.0,"mirror":false,"chromatic_density":0.091,"complexity":0.539,"dissonance":0.204},{"voice":2,"pitch":57,"start":167.9998,"duration":1.0909,"velocity":127,"measure":78,"beat":1.0,"subject_pos":5,"motif":"subject","motif_pos":5,"best_pos":5,"similarity":1.0,"stretto":false,"stretto_voices":0,"combination":[],"aug_dim":"augmentation","rhythm_ratio":4.35,"mirror":false,"chromatic_density":0.091,"complexity":0.539,"dissonance":0.204},{"voice":1,"pitch":76,"start":168.2726,"duration":0.2727,"velocity":127,"measure":78,"beat":1.5,"subject_pos":-1,"motif":"","motif_pos":-1,"best_pos":1,"similarity":0.507,"stretto":false,"stretto_voices":0,"combination":[],"aug_dim":"","rhythm_ratio":1.0,"mirror":false,"chromatic_density":0.091,"complexity":0.539,"dissonance":0.204},{"voice":0,"pitch":81,"start":168.5453,"duration":0.5455,"velocity":127,"measure":78,"beat":2.0,"subject_pos":-1,"motif":"","motif_pos":-1,"best_pos":6,"similarity":0.214,"stretto":false,"stretto_voices":0,"combination":[],"aug_dim":"","rhythm_ratio":1.0,"mirror":false,"chromatic_density":0.091,"complexity":0.539,"dissonance":0.204},{"voice":1,"pitch":74,"start":168.5453,"duration":0.2727,"velocity":127,"measure":78,"beat":2.0,"subject_pos":-1,"motif":"","motif_pos":-1,"best_pos":2,"similarity":0.521,"stretto":false,"stretto_voices":0,"combination":[],"aug_dim":"","rhythm_ratio":1.0,"mirror":false,"chromatic_density":0.091,"complexity":0.539,"dissonance":0.204},{"voice":1,"pitch":72,"start":168.818,"duration":0.2727,"velocity":127,"measure":78,"beat":2.5,"subject_pos":-1,"motif":"","motif_pos":-1,"best_pos":5,"similarity":0.4,"stretto":false,"stretto_voices":0,"combination":[],"aug_dim":"","rhythm_ratio":1.0,"mirror":false,"chromatic_density":0.091,"complexity":0.539,"dissonance":0.204},{"voice":0,"pitch":74,"start":169.0907,"duration":0.5455,"velocity":127,"measure":78,"beat":3.0,"subject_pos":-1,"motif":"","motif_pos":-1,"best_pos":2,"similarity":0.214,"stretto":false,"stretto_voices":0,"combination":[],"aug_dim":"","rhythm_ratio":1.0,"mirror":false,"chromatic_density":0.091,"complexity":0.539,"dissonance":0.204},{"voice":1,"pitch":74,"start":169.0907,"duration":0.2727,"velocity":127,"measure":78,"beat":3.0,"subject_pos":-1,"motif":"","motif_pos":-1,"best_pos":1,"similarity":0.386,"stretto":false,"stretto_voices":0,"combination":[],"aug_dim":"","rhythm_ratio":1.0,"mirror":false,"chromatic_density":0.091,"complexity":0.539,"dissonance":0.204},{"voice":2,"pitch":59,"start":169.0907,"duration":1.0909,"velocity":127,"measure":78,"beat":3.0,"subject_pos":6,"motif":"subject","motif_pos":6,"best_pos":6,"similarity":1.0,"stretto":false,"stretto_voices":0,"combination":[],"aug_dim":"augmentation","rhythm_ratio":4.35,"mirror":false,"chromatic_density":0.091,"complexity":0.539,"dissonance":0.204},{"voice":1,"pitch":72,"start":169.3635,"duration":0.2727,"velocity":127,"measure":78,"beat":3.5,"subject_pos":-1,"motif":"","motif_pos":-1,"best_pos":3,"similarity":0.464,"stretto":false,"stretto_voices":0,"combination":[],"aug_dim":"","rhythm_ratio":1.0,"mirror":false,"chromatic_density":0.091,"complexity":0.539,"dissonance":0.204},{"voice":0,"pitch":77,"start":169.6362,"duration":0.8182,"velocity":127,"measure":78,"beat":4.0,"subject_pos":-1,"motif":"","motif_pos":-1,"best_pos":3,"similarity":0.339,"stretto":false,"stretto_voices":0,"combination":[],"aug_dim":"","rhythm_ratio":1.0,"mirror":false,"chromatic_density":0.091,"complexity":0.539,"dissonance":0.204},{"voice":1,"pitch":71,"start":169.6362,"duration":0.2727,"velocity":127,"measure":78,"beat":4.0,"subject_pos":-1,"motif":"","motif_pos":-1,"best_pos":4,"similarity":0.414,"stretto":false,"stretto_voices":0,"combination":[],"aug_dim":"","rhythm_ratio":1.0,"mirror":false,"chromatic_density":0.091,"complexity":0.539,"dissonance":0.204},{"voice":1,"pitch":69,"start":169.9089,"duration":0.2727,"velocity":127,"measure":78,"beat":4.5,"subject_pos":-1,"motif":"","motif_pos":-1,"best_pos":2,"similarity":0.446,"stretto":false,"stretto_voices":0,"combination":[],"aug_dim":"","rhythm_ratio":1.0,"mirror":false,"chromatic_density":0.091,"complexity":0.539,"dissonance":0.204},{"voice":1,"pitch":67,"start":170.1816,"duration":0.2727,"velocity":127,"measure":79,"beat":1.0,"subject_pos":-1,"motif":"","motif_pos":-1,"best_pos":2,"similarity":0.436,"stretto":false,"stretto_voices":0,"combination":[],"aug_dim":"","rhythm_ratio":1.0,"mirror":false,"chromatic_density":0.231,"complexity":0.433,"dissonance":0.218},{"voice":2,"pitch":60,"start":170.1816,"duration":2.7273,"velocity":127,"measure":79,"beat":1.0,"subject_pos":7,"motif":"subject","motif_pos":7,"best_pos":7,"similarity":1.0,"stretto":false,"stretto_voices":0,"combination":[],"aug_dim":"augmentation","rhythm_ratio":4.35,"mirror":false,"chromatic_density":0.231,"complexity":0.433,"dissonance":0.218},{"voice":0,"pitch":76,"start":170.4544,"duration":0.2727,"velocity":127,"measure":79,"beat":1.5,"subject_pos":-1,"motif":"","motif_pos":-1,"best_pos":2,"similarity":0.429,"stretto":false,"stretto_voices":0,"combination":[],"aug_dim":"","rhythm_ratio":1.0,"mirror":false,"chromatic_density":0.231,"complexity":0.433,"dissonance":0.218},{"voice":1,"pitch":72,"start":170.4544,"duration":0.2727,"velocity":127,"measure":79,"beat":1.5,"subject_pos":-1,"motif":"","motif_pos":-1,"best_pos":3,"similarity":0.514,"stretto":false,"stretto_voices":0,"combination":[],"aug_dim":"","rhythm_ratio":1.0,"mirror":false,"chromatic_density":0.231,"complexity":0.433,"dissonance":0.218},{"voice":0,"pitch":74,"start":170.7271,"duration":0.2727,"velocity":127,"measure":79,"beat":2.0,"subject_pos":-1,"motif":"","motif_pos":-1,"best_pos":3,"similarity":0.454,"stretto":false,"stretto_voices":0,"combination":[],"aug_dim":"","rhythm_ratio":1.0,"mirror":false,"chromatic_density":0.231,"complexity":0.433,"dissonance":0.218},{"voice":1,"pitch":71,"start":170.7271,"duration":0.2727,"velocity":127,"measure":79,"beat":2.0,"subject_pos":-1,"motif":"","motif_pos":-1,"best_pos":4,"similarity":0.536,"stretto":false,"stretto_voices":0,"combination":[],"aug_dim":"","rhythm_ratio":1.0,"mirror":false,"chromatic_density":0.231,"complexity":0.433,"dissonance":0.218},{"voice":0,"pitch":72,"start":170.9998,"duration":0.2727,"velocity":127,"measure":79,"beat":2.5,"subject_pos":-1,"motif":"","motif_pos":-1,"best_pos":4,"similarity":0.425,"stretto":false,"stretto_voices":0,"combination":[],"aug_dim":"","rhythm_ratio":1.0,"mirror":false,"chromatic_density":0.231,"complexity":0.433,"dissonance":0.218},{"voice":1,"pitch":69,"start":170.9998,"duration":0.2727,"velocity":127,"measure":79,"beat":2.5,"subject_pos":-1,"motif":"","motif_pos":-1,"best_pos":5,"similarity":0.471,"stretto":false,"stretto_voices":0,"combination":[],"aug_dim":"","rhythm_ratio":1.0,"mirror":false,"chromatic_density":0.231,"complexity":0.433,"dissonance":0.218},{"voice":0,"pitch":74,"start":171.2726,"duration":0.2727,"velocity":127,"measure":79,"beat":3.0,"subject_pos":-1,"motif":"","motif_pos":-1,"best_pos":1,"similarity":0.386,"stretto":false,"stretto_voices":0,"combination":[],"aug_dim":"","rhythm_ratio":1.0,"mirror":false,"chromatic_density":0.231,"complexity":0.433,"dissonance":0.218},{"voice":1,"pitch":71,"start":171.2726,"duration":0.2727,"velocity":127,"measure":79,"beat":3.0,"subject_pos":-1,"motif":"","motif_pos":-1,"best_pos":6,"similarity":0.4,"stretto":false,"stretto_voices":0,"combination":[],"aug_dim":"","rhythm_ratio":1.0,"mirror":false,"chromatic_density":0.231,"complexity":0.433,"dissonance":0.218},{"voice":0,"pitch":72,"start":171.5453,"duration":0.2727,"velocity":127,"measure":79,"beat":3.5,"subject_pos":-1,"motif":"","motif_pos":-1,"best_pos":3,"similarity":0.464,"stretto":false,"stretto_voices":0,"combination":[],"aug_dim":"","rhythm_ratio":1.0,"mirror":false,"chromatic_density":0.231,"complexity":0.433,"dissonance":0.218},{"voice":1,"pitch":69,"start":171.5453,"duration":0.2727,"velocity":127,"measure":79,"beat":3.5,"subject_pos":-1,"motif":"","motif_pos":-1,"best_pos":3,"similarity":0.464,"stretto":false,"stretto_voices":0,"combination":[],"aug_dim":"","rhythm_ratio":1.0,"mirror":false,"chromatic_density":0.231,"complexity":0.433,"dissonance":0.218},{"voice":0,"pitch":71,"start":171.818,"duration":0.2727,"velocity":127,"measure":79,"beat":4.0,"subject_pos":-1,"motif":"","motif_pos":-1,"best_pos":2,"similarity":0.5,"stretto":false,"stretto_voices":0,"combination":[],"aug_dim":"","rhythm_ratio":1.0,"mirror":false,"chromatic_density":0.231,"complexity":0.433,"dissonance":0.218},{"voice":1,"pitch":68,"start":171.818,"duration":0.2727,"velocity":127,"measure":79,"beat":4.0,"subject_pos":-1,"motif":"","motif_pos":-1,"best_pos":4,"similarity":0.479,"stretto":false,"stretto_voices":0,"combination":[],"aug_dim":"","rhythm_ratio":1.0,"mirror":false,"chromatic_density":0.231,"complexity":0.433,"dissonance":0.218},{"voice":0,"pitch":69,"start":172.0907,"duration":0.2727,"velocity":127,"measure":79,"beat":4.5,"subject_pos":-1,"motif":"tail","motif_pos":3,"best_pos":3,"similarity":1.0,"stretto":false,"stretto_voices":0,"combination":[],"aug_dim":"","rhythm_ratio":1.0,"mirror":false,"chromatic_density":0.231,"complexity":0.433,"dissonance":0.218},{"voice":1,"pitch":66,"start":172.0907,"duration":0.2727,"velocity":127,"measure":79,"beat":4.5,"subject_pos":-1,"motif":"","motif_pos":-1,"best_pos":3,"similarity":0.507,"stretto":false,"stretto_voices":0,"combination":[],"aug_dim":"","rhythm_ratio":1.0,"mirror":false,"chromatic_density":0.231,"complexity":0.433,"dissonance":0.218},{"voice":0,"pitch":68,"start":172.3635,"duration":1.0909,"velocity":127,"measure":80,"beat":1.0,"subject_pos":-1,"motif":"tail","motif_pos":4,"best_pos":4,"similarity":1.0,"stretto":false,"stretto_voices":0,"combination":[],"aug_dim":"","rhythm_ratio":1.0,"mirror":false,"chromatic_density":0.667,"complexity":0.639,"dissonance":0.115},{"voice":1,"pitch":64,"start":172.3635,"duration":0.5455,"velocity":127,"measure":80,"beat":1.0,"subject_pos":-1,"motif":"","motif_pos":-1,"best_pos":4,"similarity":0.586,"stretto":false,"stretto_voices":0,"combination":[],"aug_dim":"","rhythm_ratio":1.0,"mirror":false,"chromatic_density":0.667,"complexity":0.639,"dissonance":0.115},{"voice":3,"pitch":50,"start":172.6362,"duration":0.2727,"velocity":127,"measure":80,"beat":1.5,"subject_pos":-1,"motif":"","motif_pos":-1,"best_pos":2,"similarity":0.643,"stretto":false,"stretto_voices":0,"combination":[],"aug_dim":"","rhythm_ratio":1.0,"mirror":false,"chromatic_density":0.667,"complexity":0.639,"dissonance":0.115},{"voice":1,"pitch":65,"start":172.9089,"duration":0.5455,"velocity":127,"measure":80,"beat":2.0,"subject_pos":-1,"motif":"","motif_pos":-1,"best_pos":3,"similarity":0.536,"stretto":false,"stretto_voices":0,"combination":[],"aug_dim":"","rhythm_ratio":1.0,"mirror":false,"chromatic_density":0.667,"complexity":0.639,"dissonance":0.115},{"voice":2,"pitch":64,"start":172.9089,"duration":0.5455,"velocity":127,"measure":80,"beat":2.0,"subject_pos":-1,"motif":"","motif_pos":-1,"best_pos":1,"similarity":0.5,"stretto":false,"stretto_voices":0,"combination":[],"aug_dim":"","rhythm_ratio":1.0,"mirror":false,"chromatic_density":0.667,"complexity":0.639,"dissonance":0.115},{"voice":3,"pitch":48,"start":172.9089,"duration":0.2727,"velocity":127,"measure":80,"beat":2.0,"subject_pos":-1,"motif":"","motif_pos":-1,"best_pos":3,"similarity":0.721,"stretto":false,"stretto_voices":0,"combination":[],"aug_dim":"","rhythm_ratio":1.0,"mirror":false,"chromatic_density":0.667,"complexity":0.639,"dissonance":0.115},{"voice":3,"pitch":47,"start":173.1816,"duration":0.2727,"velocity":127,"measure":80,"beat":2.5,"subject_pos":-1,"motif":"tail_inv","motif_pos":0,"best_pos":0,"similarity":1.0,"stretto":false,"stretto_voices":0,"combination":[],"aug_dim":"","rhythm_ratio":1.0,"mirror":false,"chromatic_density":0.667,"complexity":0.639,"dissonance":0.115},{"voice":0,"pitch":69,"start":173.4544,"duration":0.5455,"velocity":127,"measure":80,"beat":3.0,"subject_pos":-1,"motif":"tail","motif_pos":5,"best_pos":5,"similarity":1.0,"stretto":false,"stretto_voices":0,"combination":[],"aug_dim":"","rhythm_ratio":1.0,"mirror":false,"chromatic_density":0.667,"complexity":0.639,"dissonance":0.115},{"voice":1,"pitch":64,"start":173.4544,"duration":1.6364,"velocity":127,"measure":80,"beat":3.0,"subject_pos":-1,"motif":"","motif_pos":-1,"best_pos":4,"similarity":0.536,"stretto":false,"stretto_voices":0,"combination":[],"aug_dim":"","rhythm_ratio":1.0,"mirror":false,"chromatic_density":0.667,"complexity":0.639,"dissonance":0.115},{"voice":2,"pitch":60,"start":173.4544,"duration":0.5455,"velocity":127,"measure":80,"beat":3.0,"subject_pos":-1,"motif":"","motif_pos":-1,"best_pos":2,"similarity":0.518,"stretto":false,"stretto_voices":0,"combination":[],"aug_dim":"","rhythm_ratio":1.0,"mirror":false,"chromatic_density":0.667,"complexity":0.639,"dissonance":0.115},{"voice":3,"pitch":48,"start":173.4544,"duration":0.2727,"velocity":127,"measure":80,"beat":3.0,"subject_pos":-1,"motif":"tail_inv","motif_pos":1,"best_pos":1,"similarity":1.0,"stretto":false,"stretto_voices":0,"combination":[],"aug_dim":"","rhythm_ratio":1.0,"mirror":false,"chromatic_density":0.667,"complexity":0.639,"dissonance":0.115},{"voice":3,"pitch":47,"start":173.7271,"duration":0.2727,"velocity":127,"measure":80,"beat":3.5,"subject_pos":-1,"motif":"tail_inv","motif_pos":2,"best_pos":2,"similarity":1.0,"stretto":false,"stretto_voices":0,"combination":[],"aug_dim":"","rhythm_ratio":1.0,"mirror":false,"chromatic_density":0.667,"complexity":0.639,"dissonance":0.115},{"voice":0,"pitch":71,"start":173.9998,"duration":0.5455,"velocity":127,"measure":80,"beat":4.0,"subject_pos":-1,"motif":"tail","motif_pos":6,"best_pos":6,"similarity":1.0,"stretto":false,"stretto_voices":0,"combination":[],"aug_dim":"","rhythm_ratio":1.0,"mirror":false,"chromatic_density":0.667,"complexity":0.639,"dissonance":0.115},{"voice":2,"pitch":59,"start":173.9998,"duration":0.5455,"velocity":127,"measure":80,"beat":4.0,"subject_pos":-1,"motif":"","motif_pos":-1,"best_pos":2,"similarity":0.5,"stretto":false,"stretto_voices":0,"combination":[],"aug_dim":"","rhythm_ratio":1.0,"mirror":false,"chromatic_density":0.667,"complexity":0.639,"dissonance":0.115},{"voice":3,"pitch":45,"start":173.9998,"duration":0.2727,"velocity":127,"measure":80,"beat":4.0,"subject_pos":-1,"motif":"tail_inv","motif_pos":3,"best_pos":3,"similarity":1.0,"stretto":false,"stretto_voices":0,"combination":[],"aug_dim":"","rhythm_ratio":1.0,"mirror":false,"chromatic_density":0.667,"complexity":0.639,"dissonance":0.115},{"voice":3,"pitch":44,"start":174.2726,"duration":0.2727,"velocity":127,"measure":80,"beat":4.5,"subject_pos":-1,"motif":"tail_inv","motif_pos":4,"best_pos":4,"similarity":1.0,"stretto":false,"stretto_voices":0,"combination":[],"aug_dim":"","rhythm_ratio":1.0,"mirror":false,"chromatic_density":0.667,"complexity":0.639,"dissonance":0.115},{"voice":0,"pitch":72,"start":174.5453,"duration":2.7273,"velocity":127,"measure":81,"beat":1.0,"subject_pos":-1,"motif":"tail","motif_pos":7,"best_pos":7,"similarity":1.0,"stretto":false,"stretto_voices":0,"combination":[],"aug_dim":"","rhythm_ratio":1.0,"mirror":false,"chromatic_density":0.444,"complexity":0.607,"dissonance":0.13},{"voice":2,"pitch":57,"start":174.5453,"duration":0.2727,"velocity":127,"measure":81,"beat":1.0,"subject_pos":-1,"motif":"tail","motif_pos":3,"best_pos":3,"similarity":1.0,"stretto":false,"stretto_voices":0,"combination":[],"aug_dim":"","rhythm_ratio":1.0,"mirror":false,"chromatic_density":0.444,"complexity":0.607,"dissonance":0.13},{"voice":3,"pitch":45,"start":174.5453,"duration":0.5455,"velocity":127,"measure":81,"beat":1.0,"subject_pos":-1,"motif":"","motif_pos":-1,"best_pos":5,"similarity":0.493,"stretto":false,"stretto_voices":0,"combination":[],"aug_dim":"","rhythm_ratio":1.0,"mirror":false,"chromatic_density":0.444,"complexity":0.607,"dissonance":0.13},{"voice":2,"pitch":56,"start":174.818,"duration":0.2727,"velocity":127,"measure":81,"beat":1.5,"subject_pos":-1,"motif":"tail","motif_pos":4,"best_pos":4,"similarity":1.0,"stretto":false,"stretto_voices":0,"combination":[],"aug_dim":"","rhythm_ratio":1.0,"mirror":false,"chromatic_density":0.444,"complexity":0.607,"dissonance":0.13},{"voice":1,"pitch":64,"start":175.0907,"duration":0.5455,"velocity":127,"measure":81,"beat":2.0,"subject_pos":-1,"motif":"","motif_pos":-1,"best_pos":0,"similarity":0.446,"stretto":false,"stretto_voices":0,"combination":[],"aug_dim":"","rhythm_ratio":1.0,"mirror":false,"chromatic_density":0.444,"complexity":0.607,"dissonance":0.13},{"voice":2,"pitch":57,"start":175.0907,"duration":0.2727,"velocity":127,"measure":81,"beat":2.0,"subject_pos":-1,"motif":"tail","motif_pos":5,"best_pos":5,"similarity":1.0,"stretto":false,"stretto_voices":0,"combination":[],"aug_dim":"","rhythm_ratio":1.0,"mirror":false,"chromatic_density":0.444,"complexity":0.607,"dissonance":0.13},{"voice":2,"pitch":59,"start":175.3635,"duration":0.2727,"velocity":127,"measure":81,"beat":2.5,"subject_pos":-1,"motif":"tail","motif_pos":6,"best_pos":6,"similarity":1.0,"stretto":false,"stretto_voices":0,"combination":[],"aug_dim":"","rhythm_ratio":1.0,"mirror":false,"chromatic_density":0.444,"complexity":0.607,"dissonance":0.13},{"voice":1,"pitch":69,"start":175.6362,"duration":0.5455,"velocity":127,"measure":81,"beat":3.0,"subject_pos":-1,"motif":"","motif_pos":-1,"best_pos":1,"similarity":0.614,"stretto":false,"stretto_voices":0,"combination":[],"aug_dim":"","rhythm_ratio":1.0,"mirror":false,"chromatic_density":0.444,"complexity":0.607,"dissonance":0.13},{"voice":2,"pitch":60,"start":175.6362,"duration":0.2727,"velocity":127,"measure":81,"beat":3.0,"subject_pos":-1,"motif":"tail","motif_pos":7,"best_pos":7,"similarity":1.0,"stretto":false,"stretto_voices":0,"combination":[],"aug_dim":"","rhythm_ratio":1.0,"mirror":false,"chromatic_density":0.444,"complexity":0.607,"dissonance":0.13},{"voice":2,"pitch":57,"start":175.9089,"duration":0.2727,"velocity":127,"measure":81,"beat":3.5,"subject_pos":-1,"motif":"","motif_pos":-1,"best_pos":3,"similarity":0.55,"stretto":false,"stretto_voices":0,"combination":[],"aug_dim":"","rhythm_ratio":1.0,"mirror":false,"chromatic_density":0.444,"complexity":0.607,"dissonance":0.13},{"voice":1,"pitch":67,"start":176.1816,"duration":0.5455,"velocity":127,"measure":81,"beat":4.0,"subject_pos":-1,"motif":"","motif_pos":-1,"best_pos":2,"similarity":0.521,"stretto":false,"stretto_voices":0,"combination":[],"aug_dim":"","rhythm_ratio":1.0,"mirror":false,"chromatic_density":0.444,"complexity":0.607,"dissonance":0.13},{"voice":2,"pitch":59,"start":176.1816,"duration":0.2727,"velocity":127,"measure":81,"beat":4.0,"subject_pos":-1,"motif":"","motif_pos":-1,"best_pos":4,"similarity":0.625,"stretto":false,"stretto_voices":0,"combination":[],"aug_dim":"","rhythm_ratio":1.0,"mirror":false,"chromatic_density":0.444,"complexity":0.607,"dissonance":0.13},{"voice":2,"pitch":60,"start":176.4544,"duration":0.2727,"velocity":127,"measure":81,"beat":4.5,"subject_pos":-1,"motif":"","motif_pos":-1,"best_pos":5,"similarity":0.693,"stretto":false,"stretto_voices":0,"combination":[],"aug_dim":"","rhythm_ratio":1.0,"mirror":false,"chromatic_density":0.444,"complexity":0.607,"dissonance":0.13},{"voice":1,"pitch":66,"start":176.7271,"duration":0.5455,"velocity":127,"measure":82,"beat":1.0,"subject_pos":-1,"motif":"","motif_pos":-1,"best_pos":4,"similarity":0.379,"stretto":false,"stretto_voices":0,"combination":[],"aug_dim":"","rhythm_ratio":1.0,"mirror":false,"chromatic_density":0.222,"complexity":0.398,"dissonance":0.13},{"voice":2,"pitch":62,"start":176.7271,"duration":0.2727,"velocity":127,"measure":82,"beat":1.0,"subject_pos":-1,"motif":"","motif_pos":-1,"best_pos":3,"similarity":0.521,"stretto":false,"stretto_voices":0,"combination":[],"aug_dim":"","rhythm_ratio":1.0,"mirror":false,"chromatic_density":0.222,"complexity":0.398,"dissonance":0.13},{"voice":2,"pitch":61,"start":176.9998,"duration":0.2727,"velocity":127,"measure":82,"beat":1.5,"subject_pos":-1,"motif":"","motif_pos":-1,"best_pos":4,"similarity":0.757,"stretto":false,"stretto_voices":0,"combination":[],"aug_dim":"","rhythm_ratio":1.0,"mirror":false,"chromatic_density":0.222,"complexity":0.398,"dissonance":0.13},{"voice":0,"pitch":69,"start":177.2725,"duration":0.5455,"velocity":127,"measure":82,"beat":2.0,"subject_pos":-1,"motif":"","motif_pos":-1,"best_pos":0,"similarity":0.446,"stretto":false,"stretto_voices":0,"combination":[],"aug_dim":"","rhythm_ratio":1.0,"mirror":false,"chromatic_density":0.222,"complexity":0.398,"dissonance":0.13},{"voice":2,"pitch":62,"start":177.2725,"duration":0.2727,"velocity":127,"measure":82,"beat":2.0,"subject_pos":-1,"motif":"","motif_pos":-1,"best_pos":5,"similarity":0.786,"stretto":false,"stretto_voices":0,"combination":[],"aug_dim":"","rhythm_ratio":1.0,"mirror":false,"chromatic_density":0.222,"complexity":0.398,"dissonance":0.13},{"voice":2,"pitch":64,"start":177.5453,"duration":0.2727,"velocity":127,"measure":82,"beat":2.5,"subject_pos":-1,"motif":"","motif_pos":-1,"best_pos":6,"similarity":0.643,"stretto":false,"stretto_voices":0,"combination":[],"aug_dim":"","rhythm_ratio":1.0,"mirror":false,"chromatic_density":0.222,"complexity":0.398,"dissonance":0.13},{"voice":0,"pitch":74,"start":177.818,"duration":0.5455,"velocity":127,"measure":82,"beat":3.0,"subject_pos":-1,"motif":"","motif_pos":-1,"best_pos":1,"similarity":0.614,"stretto":false,"stretto_voices":0,"combination":[],"aug_dim":"","rhythm_ratio":1.0,"mirror":false,"chromatic_density":0.222,"complexity":0.398,"dissonance":0.13},{"voice":2,"pitch":66,"start":177.818,"duration":0.2727,"velocity":127,"measure":82,"beat":3.0,"subject_pos":-1,"motif":"","motif_pos":-1,"best_pos":6,"similarity":0.375,"stretto":false,"stretto_voices":0,"combination":[],"aug_dim":"","rhythm_ratio":1.0,"mirror":false,"chromatic_density":0.222,"complexity":0.398,"dissonance":0.13},{"voice":2,"pitch":62,"start":178.0907,"duration":0.2727,"velocity":127,"measure":82,"beat":3.5,"subject_pos":-1,"motif":"","motif_pos":-1,"best_pos":5,"similarity":0.371,"stretto":false,"stretto_voices":0,"combination":[],"aug_dim":"","rhythm_ratio":1.0,"mirror":false,"chromatic_density":0.222,"complexity":0.398,"dissonance":0.13},{"voice":0,"pitch":72,"start":178.3635,"duration":0.5455,"velocity":127,"measure":82,"beat":4.0,"subject_pos":-1,"motif":"","motif_pos":-1,"best_pos":2,"similarity":0.521,"stretto":false,"stretto_voices":0,"combination":[],"aug_dim":"","rhythm_ratio":1.0,"mirror":false,"chromatic_density":0.222,"complexity":0.398,"dissonance":0.13},{"voice":2,"pitch":64,"start":178.3635,"duration":0.2727,"velocity":127,"measure":82,"beat":4.0,"subject_pos":-1,"motif":"","motif_pos":-1,"best_pos":5,"similarity":0.443,"stretto":false,"stretto_voices":0,"combination":[],"aug_dim":"","rhythm_ratio":1.0,"mirror":false,"chromatic_density":0.222,"complexity":0.398,"dissonance":0.13},{"voice":2,"pitch":66,"start":178.6362,"duration":0.2727,"velocity":127,"measure":82,"beat":4.5,"subject_pos":-1,"motif":"","motif_pos":-1,"best_pos":6,"similarity":0.364,"stretto":false,"stretto_voices":0,"combination":[],"aug_dim":"","rhythm_ratio":1.0,"mirror":false,"chromatic_density":0.222,"complexity":0.398,"dissonance":0.13},{"voice":0,"pitch":71,"start":178.9089,"duration":2.7273,"velocity":127,"measure":83,"beat":1.0,"subject_pos":-1,"motif":"","motif_pos":-1,"best_pos":4,"similarity":0.379,"stretto":false,"stretto_voices":0,"combination":[],"aug_dim":"","rhythm_ratio":1.0,"mirror":false,"chromatic_density":0.222,"complexity":0.423,"dissonance":0.17},{"voice":2,"pitch":55,"start":178.9089,"duration":0.2727,"velocity":127,"measure":83,"beat":1.0,"subject_pos":-1,"motif":"","motif_pos":-1,"best_pos":3,"similarity":0.521,"stretto":false,"stretto_voices":0,"combination":[],"aug_dim":"","rhythm_ratio":1.0,"mirror":false,"chromatic_density":0.222,"complexity":0.423,"dissonance":0.17},{"voice":2,"pitch":54,"start":179.1816,"duration":0.2727,"velocity":127,"measure":83,"beat":1.5,"subject_pos":-1,"motif":"","motif_pos":-1,"best_pos":4,"similarity":0.757,"stretto":false,"stretto_voices":0,"combination":[],"aug_dim":"","rhythm_ratio":1.0,"mirror":false,"chromatic_density":0.222,"complexity":0.423,"dissonance":0.17},{"voice":1,"pitch":62,"start":179.4544,"duration":0.5455,"velocity":127,"measure":83,"beat":2.0,"subject_pos":-1,"motif":"","motif_pos":-1,"best_pos":0,"similarity":0.446,"stretto":false,"stretto_voices":0,"combination":[],"aug_dim":"","rhythm_ratio":1.0,"mirror":false,"chromatic_density":0.222,"complexity":0.423,"dissonance":0.17},{"voice":2,"pitch":55,"start":179.4544,"duration":0.2727,"velocity":127,"measure":83,"beat":2.0,"subject_pos":-1,"motif":"","motif_pos":-1,"best_pos":5,"similarity":0.786,"stretto":false,"stretto_voices":0,"combination":[],"aug_dim":"","rhythm_ratio":1.0,"mirror":false,"chromatic_density":0.222,"complexity":0.423,"dissonance":0.17},{"voice":2,"pitch":57,"start":179.7271,"duration":0.2727,"velocity":127,"measure":83,"beat":2.5,"subject_pos":-1,"motif":"","motif_pos":-1,"best_pos":6,"similarity":0.643,"stretto":false,"stretto_voices":0,"combination":[],"aug_dim":"","rhythm_ratio":1.0,"mirror":false,"chromatic_density":0.222,"complexity":0.423,"dissonance":0.17},{"voice":1,"pitch":67,"start":179.9998,"duration":0.5455,"velocity":127,"measure":83,"beat":3.0,"subject_pos":-1,"motif":"","motif_pos":-1,"best_pos":1,"similarity":0.607,"stretto":false,"stretto_voices":0,"combination":[],"aug_dim":"","rhythm_ratio":1.0,"mirror":false,"chromatic_density":0.222,"complexity":0.423,"dissonance":0.17},{"voice":2,"pitch":59,"start":179.9998,"duration":0.2727,"velocity":127,"measure":83,"beat":3.0,"subject_pos":-1,"motif":"","motif_pos":-1,"best_pos":6,"similarity":0.375,"stretto":false,"stretto_voices":0,"combination":[],"aug_dim":"","rhythm_ratio":1.0,"mirror":false,"chromatic_density":0.222,"complexity":0.423,"dissonance":0.17},{"voice":2,"pitch":55,"start":180.2725,"duration":0.2727,"velocity":127,"measure":83,"beat":3.5,"subject_pos":-1,"motif":"","motif_pos":-1,"best_pos":4,"similarity":0.393,"stretto":false,"stretto_voices":0,"combination":[],"aug_dim":"","rhythm_ratio":1.0,"mirror":false,"chromatic_density":0.222,"complexity":0.423,"dissonance":0.17},{"voice":1,"pitch":65,"start":180.5453,"duration":0.5455,"velocity":127,"measure":83,"beat":4.0,"subject_pos":-1,"motif":"","motif_pos":-1,"best_pos":2,"similarity":0.507,"stretto":false,"stretto_voices":0,"combination":[],"aug_dim":"","rhythm_ratio":1.0,"mirror":false,"chromatic_density":0.222,"complexity":0.423,"dissonance":0.17},{"voice":2,"pitch":57,"start":180.5453,"duration":0.2727,"velocity":127,"measure":83,"beat":4.0,"subject_pos":-1,"motif":"","motif_pos":-1,"best_pos":5,"similarity":0.586,"stretto":false,"stretto_voices":0,"combination":[],"aug_dim":"","rhythm_ratio":1.0,"mirror":false,"chromatic_density":0.222,"complexity":0.423,"dissonance":0.17},{"voice":2,"pitch":59,"start":180.818,"duration":0.2727,"velocity":127,"measure":83,"beat":4.5,"subject_pos":-1,"motif":"","motif_pos":-1,"best_pos":6,"similarity":0.65,"stretto":false,"stretto_voices":0,"combination":[],"aug_dim":"","rhythm_ratio":1.0,"mirror":false,"chromatic_density":0.222,"complexity":0.423,"dissonance":0.17},{"voice":1,"pitch":64,"start":181.0907,"duration":0.5455,"velocity":127,"measure":84,"beat":1.0,"subject_pos":-1,"motif":"","motif_pos":-1,"best_pos":4,"similarity":0.379,"stretto":false,"stretto_voices":0,"combination":[],"aug_dim":"","rhythm_ratio":1.0,"mirror":false,"chromatic_density":0.222,"complexity":0.419,"dissonance":0.1},{"voice":2,"pitch":60,"start":181.0907,"duration":0.2727,"velocity":127,"measure":84,"beat":1.0,"subject_pos":-1,"motif":"","motif_pos":-1,"best_pos":3,"similarity":0.55,"stretto":false,"stretto_voices":0,"combination":[],"aug_dim":"","rhythm_ratio":1.0,"mirror":false,"chromatic_density":0.222,"complexity":0.419,"dissonance":0.1},{"voice":2,"pitch":59,"start":181.3635,"duration":0.2727,"velocity":127,"measure":84,"beat":1.5,"subject_pos":-1,"motif":"","motif_pos":-1,"best_pos":4,"similarity":0.771,"stretto":false,"stretto_voices":0,"combination":[],"aug_dim":"","rhythm_ratio":1.0,"mirror":false,"chromatic_density":0.222,"complexity":0.419,"dissonance":0.1},{"voice":0,"pitch":67,"start":181.6362,"duration":0.5455,"velocity":127,"measure":84,"beat":2.0,"subject_pos":-1,"motif":"","motif_pos":-1,"best_pos":0,"similarity":0.446,"stretto":false,"stretto_voices":0,"combination":[],"aug_dim":"","rhythm_ratio":1.0,"mirror":false,"chromatic_density":0.222,"complexity":0.419,"dissonance":0.1},{"voice":2,"pitch":60,"start":181.6362,"duration":0.2727,"velocity":127,"measure":84,"beat":2.0,"subject_pos":-1,"motif":"","motif_pos":-1,"best_pos":5,"similarity":0.793,"stretto":false,"stretto_voices":0,"combination":[],"aug_dim":"","rhythm_ratio":1.0,"mirror":false,"chromatic_density":0.222,"complexity":0.419,"dissonance":0.1},{"voice":2,"pitch":62,"start":181.9089,"duration":0.2727,"velocity":127,"measure":84,"beat":2.5,"subject_pos":-1,"motif":"","motif_pos":-1,"best_pos":6,"similarity":0.643,"stretto":false,"stretto_voices":0,"combination":[],"aug_dim":"","rhythm_ratio":1.0,"mirror":false,"chromatic_density":0.222,"complexity":0.419,"dissonance":0.1},{"voice":0,"pitch":72,"start":182.1816,"duration":0.5455,"velocity":127,"measure":84,"beat":3.0,"subject_pos":-1,"motif":"","motif_pos":-1,"best_pos":1,"similarity":0.607,"stretto":false,"stretto_voices":0,"combination":[],"aug_dim":"","rhythm_ratio":1.0,"mirror":false,"chromatic_density":0.222,"complexity":0.419,"dissonance":0.1},{"voice":2,"pitch":64,"start":182.1816,"duration":0.2727,"velocity":127,"measure":84,"beat":3.0,"subject_pos":-1,"motif":"","motif_pos":-1,"best_pos":6,"similarity":0.375,"stretto":false,"stretto_voices":0,"combination":[],"aug_dim":"","rhythm_ratio":1.0,"mirror":false,"chromatic_density":0.222,"complexity":0.419,"dissonance":0.1},{"voice":2,"pitch":60,"start":182.4544,"duration":0.2727,"velocity":127,"measure":84,"beat":3.5,"subject_pos":-1,"motif":"","motif_pos":-1,"best_pos":5,"similarity":0.371,"stretto":false,"stretto_voices":0,"combination":[],"aug_dim":"","rhythm_ratio":1.0,"mirror":false,"chromatic_density":0.222,"complexity":0.419,"dissonance":0.1},{"voice":0,"pitch":70,"start":182.7271,"duration":0.5455,"velocity":127,"measure":84,"beat":4.0,"subject_pos":-1,"motif":"enigmatic_cell","motif_pos":0,"best_pos":0,"similarity":1.0,"stretto":false,"stretto_voices":0,"combination":[],"aug_dim":"","rhythm_ratio":1.0,"mirror":false,"chromatic_density":0.222,"complexity":0.419,"dissonance":0.1},{"voice":2,"pitch":62,"start":182.7271,"duration":0.2727,"velocity":127,"measure":84,"beat":4.0,"subject_pos":-1,"motif":"","motif_pos":-1,"best_pos":5,"similarity":0.443,"stretto":false,"stretto_voices":0,"combination":[],"aug_dim":"","rhythm_ratio":1.0,"mirror":false,"chromatic_density":0.222,"complexity":0.419,"dissonance":0.1},{"voice":2,"pitch":64,"start":182.9998,"duration":0.2727,"velocity":127,"measure":84,"beat":4.5,"subject_pos":-1,"motif":"","motif_pos":-1,"best_pos":6,"similarity":0.364,"stretto":false,"stretto_voices":0,"combination":[],"aug_dim":"","rhythm_ratio":1.0,"mirror":false,"chromatic_density":0.222,"complexity":0.419,"dissonance":0.1},{"voice":0,"pitch":69,"start":183.2725,"duration":2.1818,"velocity":127,"measure":85,"beat":1.0,"subject_pos":-1,"motif":"enigmatic_cell","motif_pos":1,"best_pos":1,"similarity":1.0,"stretto":false,"stretto_voices":0,"combination":[],"aug_dim":"","rhythm_ratio":1.0,"mirror":false,"chromatic_density":0.222,"complexity":0.423,"dissonance":0.15},{"voice":2,"pitch":53,"start":183.2725,"duration":0.5455,"velocity":127,"measure":85,"beat":1.0,"subject_pos":-1,"motif":"","motif_pos":-1,"best_pos":3,"similarity":0.379,"stretto":false,"stretto_voices":0,"combination":[],"aug_dim":"","rhythm_ratio":1.0,"mirror":false,"chromatic_density":0.222,"complexity":0.423,"dissonance":0.15},{"voice":1,"pitch":76,"start":183.5453,"duration":0.2727,"velocity":127,"measure":85,"beat":1.5,"subject_pos":-1,"motif":"","motif_pos":-1,"best_pos":1,"similarity":0.364,"stretto":false,"stretto_voices":0,"combination":[],"aug_dim":"","rhythm_ratio":1.0,"mirror":false,"chromatic_density":0.222,"complexity":0.423,"dissonance":0.15},{"voice":1,"pitch":74,"start":183.818,"duration":0.2727,"velocity":127,"measure":85,"beat":2.0,"subject_pos":-1,"motif":"","motif_pos":-1,"best_pos":2,"similarity":0.45,"stretto":false,"stretto_voices":0,"combination":[],"aug_dim":"","rhythm_ratio":1.0,"mirror":false,"chromatic_density":0.222,"complexity":0.423,"dissonance":0.15},{"voice":2,"pitch":52,"start":183.818,"duration":0.5455,"velocity":127,"measure":85,"beat":2.0,"subject_pos":-1,"motif":"","motif_pos":-1,"best_pos":4,"similarity":0.443,"stretto":false,"stretto_voices":0,"combination":[],"aug_dim":"","rhythm_ratio":1.0,"mirror":false,"chromatic_density":0.222,"complexity":0.423,"dissonance":0.15},{"voice":1,"pitch":72,"start":184.0907,"duration":0.2727,"velocity":127,"measure":85,"beat":2.5,"subject_pos":-1,"motif":"","motif_pos":-1,"best_pos":5,"similarity":0.4,"stretto":false,"stretto_voices":0,"combination":[],"aug_dim":"","rhythm_ratio":1.0,"mirror":false,"chromatic_density":0.222,"complexity":0.423,"dissonance":0.15},{"voice":1,"pitch":74,"start":184.3635,"duration":0.2727,"velocity":127,"measure":85,"beat":3.0,"subject_pos":-1,"motif":"","motif_pos":-1,"best_pos":1,"similarity":0.386,"stretto":false,"stretto_voices":0,"combination":[],"aug_dim":"","rhythm_ratio":1.0,"mirror":false,"chromatic_density":0.222,"complexity":0.423,"dissonance":0.15},{"voice":2,"pitch":54,"start":184.3635,"duration":0.5455,"velocity":127,"measure":85,"beat":3.0,"subject_pos":-1,"motif":"","motif_pos":-1,"best_pos":1,"similarity":0.386,"stretto":false,"stretto_voices":0,"combination":[],"aug_dim":"","rhythm_ratio":1.0,"mirror":false,"chromatic_density":0.222,"complexity":0.423,"dissonance":0.15},{"voice":1,"pitch":72,"start":184.6362,"duration":0.2727,"velocity":127,"measure":85,"beat":3.5,"subject_pos":-1,"motif":"","motif_pos":-1,"best_pos":3,"similarity":0.529,"stretto":false,"stretto_voices":0,"combination":[],"aug_dim":"","rhythm_ratio":1.0,"mirror":false,"chromatic_density":0.222,"complexity":0.423,"dissonance":0.15},{"voice":1,"pitch":71,"start":184.9089,"duration":0.2727,"velocity":127,"measure":85,"beat":4.0,"subject_pos":-1,"motif":"","motif_pos":-1,"best_pos":4,"similarity":0.607,"stretto":false,"stretto_voices":0,"combination":[],"aug_dim":"","rhythm_ratio":1.0,"mirror":false,"chromatic_density":0.222,"complexity":0.423,"dissonance":0.15},{"voice":2,"pitch":50,"start":184.9089,"duration":0.5455,"velocity":127,"measure":85,"beat":4.0,"subject_pos":-1,"motif":"","motif_pos":-1,"best_pos":2,"similarity":0.479,"stretto":false,"stretto_voices":0,"combination":[],"aug_dim":"","rhythm_ratio":1.0,"mirror":false,"chromatic_density":0.222,"complexity":0.423,"dissonance":0.15},{"voice":1,"pitch":69,"start":185.1816,"duration":0.2727,"velocity":127,"measure":85,"beat":4.5,"subject_pos":-1,"motif":"","motif_pos":-1,"best_pos":5,"similarity":0.636,"stretto":false,"stretto_voices":0,"combination":[],"aug_dim":"","rhythm_ratio":1.0,"mirror":false,"chromatic_density":0.222,"complexity":0.423,"dissonance":0.15},{"voice":0,"pitch":76,"start":185.4544,"duration":2.1818,"velocity":127,"measure":86,"beat":1.0,"subject_pos":-1,"motif":"enigmatic_cell","motif_pos":2,"best_pos":2,"similarity":1.0,"stretto":false,"stretto_voices":0,"combination":[],"aug_dim":"","rhythm_ratio":1.0,"mirror":false,"chromatic_density":0.4,"complexity":0.427,"dissonance":0.104},{"voice":1,"pitch":71,"start":185.4544,"duration":0.2727,"velocity":127,"measure":86,"beat":1.0,"subject_pos":-1,"motif":"","motif_pos":-1,"best_pos":6,"similarity":0.657,"stretto":false,"stretto_voices":0,"combination":[],"aug_dim":"","rhythm_ratio":1.0,"mirror":false,"chromatic_density":0.4,"complexity":0.427,"dissonance":0.104},{"voice":2,"pitch":55,"start":185.4544,"duration":0.5455,"velocity":127,"measure":86,"beat":1.0,"subject_pos":-1,"motif":"","motif_pos":-1,"best_pos":3,"similarity":0.507,"stretto":false,"stretto_voices":0,"combination":[],"aug_dim":"","rhythm_ratio":1.0,"mirror":false,"chromatic_density":0.4,"complexity":0.427,"dissonance":0.104},{"voice":1,"pitch":72,"start":185.7271,"duration":0.2727,"velocity":127,"measure":86,"beat":1.5,"subject_pos":-1,"motif":"","motif_pos":-1,"best_pos":7,"similarity":0.436,"stretto":false,"stretto_voices":0,"combination":[],"aug_dim":"","rhythm_ratio":1.0,"mirror":false,"chromatic_density":0.4,"complexity":0.427,"dissonance":0.104},{"voice":1,"pitch":71,"start":185.9998,"duration":0.2727,"velocity":127,"measure":86,"beat":2.0,"subject_pos":-1,"motif":"","motif_pos":-1,"best_pos":4,"similarity":0.486,"stretto":false,"stretto_voices":0,"combination":[],"aug_dim":"","rhythm_ratio":1.0,"mirror":false,"chromatic_density":0.4,"complexity":0.427,"dissonance":0.104},{"voice":2,"pitch":54,"start":185.9998,"duration":0.5455,"velocity":127,"measure":86,"beat":2.0,"subject_pos":-1,"motif":"","motif_pos":-1,"best_pos":4,"similarity":0.507,"stretto":false,"stretto_voices":0,"combination":[],"aug_dim":"","rhythm_ratio":1.0,"mirror":false,"chromatic_density":0.4,"complexity":0.427,"dissonance":0.104},{"voice":1,"pitch":69,"start":186.2725,"duration":0.2727,"velocity":127,"measure":86,"beat":2.5,"subject_pos":-1,"motif":"","motif_pos":-1,"best_pos":5,"similarity":0.479,"stretto":false,"stretto_voices":0,"combination":[],"aug_dim":"","rhythm_ratio":1.0,"mirror":false,"chromatic_density":0.4,"complexity":0.427,"dissonance":0.104},{"voice":1,"pitch":71,"start":186.5453,"duration":0.2727,"velocity":127,"measure":86,"beat":3.0,"subject_pos":-1,"motif":"","motif_pos":-1,"best_pos":6,"similarity":0.4,"stretto":false,"stretto_voices":0,"combination":[],"aug_dim":"","rhythm_ratio":1.0,"mirror":false,"chromatic_density":0.4,"complexity":0.427,"dissonance":0.104},{"voice":2,"pitch":56,"start":186.5453,"duration":0.5455,"velocity":127,"measure":86,"beat":3.0,"subject_pos":-1,"motif":"","motif_pos":-1,"best_pos":1,"similarity":0.332,"stretto":false,"stretto_voices":0,"combination":[],"aug_dim":"","rhythm_ratio":1.0,"mirror":false,"chromatic_density":0.4,"complexity":0.427,"dissonance":0.104},{"voice":1,"pitch":69,"start":186.818,"duration":0.2727,"velocity":127,"measure":86,"beat":3.5,"subject_pos":-1,"motif":"","motif_pos":-1,"best_pos":3,"similarity":0.464,"stretto":false,"stretto_voices":0,"combination":[],"aug_dim":"","rhythm_ratio":1.0,"mirror":false,"chromatic_density":0.4,"complexity":0.427,"dissonance":0.104},{"voice":1,"pitch":68,"start":187.0907,"duration":0.2727,"velocity":127,"measure":86,"beat":4.0,"subject_pos":-1,"motif":"","motif_pos":-1,"best_pos":4,"similarity":0.414,"stretto":false,"stretto_voices":0,"combination":[],"aug_dim":"","rhythm_ratio":1.0,"mirror":false,"chromatic_density":0.4,"complexity":0.427,"dissonance":0.104},{"voice":2,"pitch":52,"start":187.0907,"duration":0.5455,"velocity":127,"measure":86,"beat":4.0,"subject_pos":-1,"motif":"","motif_pos":-1,"best_pos":2,"similarity":0.354,"stretto":false,"stretto_voices":0,"combination":[],"aug_dim":"","rhythm_ratio":1.0,"mirror":false,"chromatic_density":0.4,"complexity":0.427,"dissonance":0.104},{"voice":1,"pitch":66,"start":187.3634,"duration":0.2727,"velocity":127,"measure":86,"beat":4.5,"subject_pos":-1,"motif":"","motif_pos":-1,"best_pos":2,"similarity":0.436,"stretto":false,"stretto_voices":0,"combination":[],"aug_dim":"","rhythm_ratio":1.0,"mirror":false,"chromatic_density":0.4,"complexity":0.427,"dissonance":0.104},{"voice":0,"pitch":72,"start":187.6362,"duration":0.2727,"velocity":127,"measure":87,"beat":1.0,"subject_pos":-1,"motif":"","motif_pos":-1,"best_pos":2,"similarity":0.507,"stretto":false,"stretto_voices":0,"combination":[],"aug_dim":"","rhythm_ratio":1.0,"mirror":false,"chromatic_density":0.364,"complexity":0.461,"dissonance":0.258},{"voice":1,"pitch":64,"start":187.6362,"duration":2.1818,"velocity":127,"measure":87,"beat":1.0,"subject_pos":-1,"motif":"","motif_pos":-1,"best_pos":3,"similarity":0.371,"stretto":false,"stretto_voices":0,"combination":[],"aug_dim":"","rhythm_ratio":1.0,"mirror":false,"chromatic_density":0.364,"complexity":0.461,"dissonance":0.258},{"voice":2,"pitch":57,"start":187.6362,"duration":0.5455,"velocity":127,"measure":87,"beat":1.0,"subject_pos":-1,"motif":"","motif_pos":-1,"best_pos":4,"similarity":0.45,"stretto":false,"stretto_voices":0,"combination":[],"aug_dim":"","rhythm_ratio":1.0,"mirror":false,"chromatic_density":0.364,"complexity":0.461,"dissonance":0.258},{"voice":0,"pitch":81,"start":187.9089,"duration":0.2727,"velocity":127,"measure":87,"beat":1.5,"subject_pos":-1,"motif":"","motif_pos":-1,"best_pos":3,"similarity":0.443,"stretto":false,"stretto_voices":0,"combination":[],"aug_dim":"","rhythm_ratio":1.0,"mirror":false,"chromatic_density":0.364,"complexity":0.461,"dissonance":0.258},{"voice":0,"pitch":79,"start":188.1816,"duration":0.2727,"velocity":127,"measure":87,"beat":2.0,"subject_pos":-1,"motif":"","motif_pos":-1,"best_pos":2,"similarity":0.486,"stretto":false,"stretto_voices":0,"combination":[],"aug_dim":"","rhythm_ratio":1.0,"mirror":false,"chromatic_density":0.364,"complexity":0.461,"dissonance":0.258},{"voice":2,"pitch":58,"start":188.1816,"duration":0.2727,"velocity":127,"measure":87,"beat":2.0,"subject_pos":-1,"motif":"","motif_pos":-1,"best_pos":5,"similarity":0.493,"stretto":false,"stretto_voices":0,"combination":[],"aug_dim":"","rhythm_ratio":1.0,"mirror":false,"chromatic_density":0.364,"complexity":0.461,"dissonance":0.258},{"voice":0,"pitch":77,"start":188.4544,"duration":0.2727,"velocity":127,"measure":87,"beat":2.5,"subject_pos":-1,"motif":"","motif_pos":-1,"best_pos":5,"similarity":0.4,"stretto":false,"stretto_voices":0,"combination":[],"aug_dim":"","rhythm_ratio":1.0,"mirror":false,"chromatic_density":0.364,"complexity":0.461,"dissonance":0.258},{"voice":2,"pitch":57,"start":188.4544,"duration":0.2727,"velocity":127,"measure":87,"beat":2.5,"subject_pos":-1,"motif":"","motif_pos":-1,"best_pos":4,"similarity":0.586,"stretto":false,"stretto_voices":0,"combination":[],"aug_dim":"","rhythm_ratio":1.0,"mirror":false,"chromatic_density":0.364,"complexity":0.461,"dissonance":0.258},{"voice":0,"pitch":79,"start":188.7271,"duration":0.2727,"velocity":127,"measure":87,"beat":3.0,"subject_pos":-1,"motif":"","motif_pos":-1,"best_pos":1,"similarity":0.386,"stretto":false,"stretto_voices":0,"combination":[],"aug_dim":"","rhythm_ratio":1.0,"mirror":false,"chromatic_density":0.364,"complexity":0.461,"dissonance":0.258},{"voice":2,"pitch":58,"start":188.7271,"duration":0.5455,"velocity":127,"measure":87,"beat":3.0,"subject_pos":-1,"motif":"","motif_pos":-1,"best_pos":5,"similarity":0.436,"stretto":false,"stretto_voices":0,"combination":[],"aug_dim":"","rhythm_ratio":1.0,"mirror":false,"chromatic_density":0.364,"complexity":0.461,"dissonance":0.258},{"voice":0,"pitch":77,"start":188.9998,"duration":0.2727,"velocity":127,"measure":87,"beat":3.5,"subject_pos":-1,"motif":"","motif_pos":-1,"best_pos":3,"similarity":0.464,"stretto":false,"stretto_voices":0,"combination":[],"aug_dim":"","rhythm_ratio":1.0,"mirror":false,"chromatic_density":0.364,"complexity":0.461,"dissonance":0.258},{"voice":0,"pitch":76,"start":189.2725,"duration":0.2727,"velocity":127,"measure":87,"beat":4.0,"subject_pos":-1,"motif":"","motif_pos":-1,"best_pos":2,"similarity":0.446,"stretto":false,"stretto_voices":0,"combination":[],"aug_dim":"","rhythm_ratio":1.0,"mirror":false,"chromatic_density":0.364,"complexity":0.461,"dissonance":0.258},{"voice":2,"pitch":55,"start":189.2725,"duration":0.8182,"velocity":127,"measure":87,"beat":4.0,"subject_pos":-1,"motif":"","motif_pos":-1,"best_pos":3,"similarity":0.321,"stretto":false,"stretto_voices":0,"combination":[],"aug_dim":"","rhythm_ratio":1.0,"mirror":false,"chromatic_density":0.364,"complexity":0.461,"dissonance":0.258},{"voice":0,"pitch":74,"start":189.5453,"duration":0.2727,"velocity":127,"measure":87,"beat":4.5,"subject_pos":-1,"motif":"","motif_pos":-1,"best_pos":3,"similarity":0.543,"stretto":false,"stretto_voices":0,"combination":[],"aug_dim":"","rhythm_ratio":1.0,"mirror":false,"chromatic_density":0.364,"complexity":0.461,"dissonance":0.258},{"voice":0,"pitch":73,"start":189.818,"duration":0.2727,"velocity":127,"measure":88,"beat":1.0,"subject_pos":-1,"motif":"","motif_pos":-1,"best_pos":4,"similarity":0.496,"stretto":false,"stretto_voices":0,"combination":[],"aug_dim":"","rhythm_ratio":1.0,"mirror":false,"chromatic_density":0.538,"complexity":0.48,"dissonance":0.045},{"voice":1,"pitch":69,"start":189.818,"duration":2.7273,"velocity":127,"measure":88,"beat":1.0,"subject_pos":-1,"motif":"","motif_pos":-1,"best_pos":4,"similarity":0.386,"stretto":false,"stretto_voices":0,"combination":[],"aug_dim":"","rhythm_ratio":1.0,"mirror":false,"chromatic_density":0.538,"complexity":0.48,"dissonance":0.045},{"voice":0,"pitch":76,"start":190.0907,"duration":0.2727,"velocity":127,"measure":88,"beat":1.5,"subject_pos":-1,"motif":"","motif_pos":-1,"best_pos":1,"similarity":0.411,"stretto":false,"stretto_voices":0,"combination":[],"aug_dim":"","rhythm_ratio":1.0,"mirror":false,"chromatic_density":0.538,"complexity":0.48,"dissonance":0.045},{"voice":2,"pitch":67,"start":190.0907,"duration":0.2727,"velocity":127,"measure":88,"beat":1.5,"subject_pos":-1,"motif":"","motif_pos":-1,"best_pos":2,"similarity":0.357,"stretto":false,"stretto_voices":0,"combination":[],"aug_dim":"","rhythm_ratio":1.0,"mirror":false,"chromatic_density":0.538,"complexity":0.48,"dissonance":0.045},{"voice":0,"pitch":74,"start":190.3634,"duration":0.2727,"velocity":127,"measure":88,"beat":2.0,"subject_pos":-1,"motif":"","motif_pos":-1,"best_pos":3,"similarity":0.579,"stretto":false,"stretto_voices":0,"combination":[],"aug_dim":"","rhythm_ratio":1.0,"mirror":false,"chromatic_density":0.538,"complexity":0.48,"dissonance":0.045},{"voice":2,"pitch":65,"start":190.3634,"duration":0.2727,"velocity":127,"measure":88,"beat":2.0,"subject_pos":-1,"motif":"","motif_pos":-1,"best_pos":3,"similarity":0.579,"stretto":false,"stretto_voices":0,"combination":[],"aug_dim":"","rhythm_ratio":1.0,"mirror":false,"chromatic_density":0.538,"complexity":0.48,"dissonance":0.045},{"voice":0,"pitch":73,"start":190.6362,"duration":0.2727,"velocity":127,"measure":88,"beat":2.5,"subject_pos":-1,"motif":"","motif_pos":-1,"best_pos":4,"similarity":0.664,"stretto":false,"stretto_voices":0,"combination":[],"aug_dim":"","rhythm_ratio":1.0,"mirror":false,"chromatic_density":0.538,"complexity":0.48,"dissonance":0.045},{"voice":2,"pitch":64,"start":190.6362,"duration":0.2727,"velocity":127,"measure":88,"beat":2.5,"subject_pos":-1,"motif":"tail_inv","motif_pos":0,"best_pos":0,"similarity":1.0,"stretto":false,"stretto_voices":0,"combination":[],"aug_dim":"","rhythm_ratio":1.0,"mirror":false,"chromatic_density":0.538,"complexity":0.48,"dissonance":0.045},{"voice":0,"pitch":74,"start":190.9089,"duration":0.2727,"velocity":127,"measure":88,"beat":3.0,"subject_pos":-1,"motif":"","motif_pos":-1,"best_pos":5,"similarity":0.507,"stretto":false,"stretto_voices":0,"combination":[],"aug_dim":"","rhythm_ratio":1.0,"mirror":false,"chromatic_density":0.538,"complexity":0.48,"dissonance":0.045},{"voice":2,"pitch":65,"start":190.9089,"duration":0.2727,"velocity":127,"measure":88,"beat":3.0,"subject_pos":-1,"motif":"tail_inv","motif_pos":1,"best_pos":1,"similarity":1.0,"stretto":false,"stretto_voices":0,"combination":[],"aug_dim":"","rhythm_ratio":1.0,"mirror":false,"chromatic_density":0.538,"complexity":0.48,"dissonance":0.045},{"voice":0,"pitch":73,"start":191.1816,"duration":0.2727,"velocity":127,"measure":88,"beat":3.5,"subject_pos":-1,"motif":"","motif_pos":-1,"best_pos":4,"similarity":0.386,"stretto":false,"stretto_voices":0,"combination":[],"aug_dim":"","rhythm_ratio":1.0,"mirror":false,"chromatic_density":0.538,"complexity":0.48,"dissonance":0.045},{"voice":2,"pitch":64,"start":191.1816,"duration":0.2727,"velocity":127,"measure":88,"beat":3.5,"subject_pos":-1,"motif":"tail_inv","motif_pos":2,"best_pos":2,"similarity":1.0,"stretto":false,"stretto_voices":0,"combination":[],"aug_dim":"","rhythm_ratio":1.0,"mirror":false,"chromatic_density":0.538,"complexity":0.48,"dissonance":0.045},{"voice":0,"pitch":71,"start":191.4544,"duration":0.2727,"velocity":127,"measure":88,"beat":4.0,"subject_pos":-1,"motif":"","motif_pos":-1,"best_pos":2,"similarity":0.429,"stretto":false,"stretto_voices":0,"combination":[],"aug_dim":"","rhythm_ratio":1.0,"mirror":false,"chromatic_density":0.538,"complexity":0.48,"dissonance":0.045},{"voice":2,"pitch":62,"start":191.4544,"duration":0.2727,"velocity":127,"measure":88,"beat":4.0,"subject_pos":-1,"motif":"tail_inv","motif_pos":3,"best_pos":3,"similarity":1.0,"stretto":false,"stretto_voices":0,"combination":[],"aug_dim":"","rhythm_ratio":1.0,"mirror":false,"chromatic_density":0.538,"complexity":0.48,"dissonance":0.045},{"voice":0,"pitch":69,"start":191.7271,"duration":0.2727,"velocity":127,"measure":88,"beat":4.5,"subject_pos":-1,"motif":"","motif_pos":-1,"best_pos":0,"similarity":0.357,"stretto":false,"stretto_voices":0,"combination":[],"aug_dim":"","rhythm_ratio":1.0,"mirror":false,"chromatic_density":0.538,"complexity":0.48,"dissonance":0.045},{"voice":2,"pitch":61,"start":191.7271,"duration":0.2727,"velocity":127,"measure":88,"beat":4.5,"subject_pos":-1,"motif":"tail_inv","motif_pos":4,"best_pos":4,"similarity":1.0,"stretto":false,"stretto_voices":0,"combination":[],"aug_dim":"","rhythm_ratio":1.0,"mirror":false,"chromatic_density":0.538,"complexity":0.48,"dissonance":0.045},{"voice":0,"pitch":74,"start":191.9998,"duration":0.5455,"velocity":127,"measure":89,"beat":1.0,"subject_pos":-1,"motif":"","motif_pos":-1,"best_pos":1,"similarity":0.464,"stretto":false,"stretto_voices":0,"combination":[],"aug_dim":"","rhythm_ratio":1.0,"mirror":false,"chromatic_density":0.231,"complexity":0.578,"dissonance":0.095},{"voice":2,"pitch":62,"start":191.9998,"duration":0.2727,"velocity":127,"measure":89,"beat":1.0,"subject_pos":-1,"motif":"","motif_pos":-1,"best_pos":5,"similarity":0.607,"stretto":false,"stretto_voices":0,"combination":[],"aug_dim":"","rhythm_ratio":1.0,"mirror":false,"chromatic_density":0.231,"complexity":0.578,"dissonance":0.095},{"voice":3,"pitch":50,"start":191.9998,"duration":2.1818,"velocity":127,"measure":89,"beat":1.0,"subject_pos":0,"motif":"subject","motif_pos":0,"best_pos":0,"similarity":1.0,"stretto":false,"stretto_voices":0,"combination":[],"aug_dim":"augmentation","rhythm_ratio":4.35,"mirror":false,"chromatic_density":0.231,"complexity":0.578,"dissonance":0.095},{"voice":2,"pitch":52,"start":192.2725,"duration":0.2727,"velocity":127,"measure":89,"beat":1.5,"subject_pos":-1,"motif":"","motif_pos":-1,"best_pos":4,"similarity":0.514,"stretto":false,"stretto_voices":0,"combination":[],"aug_dim":"","rhythm_ratio":1.0,"mirror":false,"chromatic_density":0.231,"complexity":0.578,"dissonance":0.095},{"voice":0,"pitch":69,"start":192.5453,"duration":0.5455,"velocity":127,"measure":89,"beat":2.0,"subject_pos":-1,"motif":"","motif_pos":-1,"best_pos":2,"similarity":0.364,"stretto":false,"stretto_voices":0,"combination":[],"aug_dim":"","rhythm_ratio":1.0,"mirror":false,"chromatic_density":0.231,"complexity":0.578,"dissonance":0.095},{"voice":1,"pitch":74,"start":192.5453,"duration":0.2727,"velocity":127,"measure":89,"beat":2.0,"subject_pos":-1,"motif":"","motif_pos":-1,"best_pos":5,"similarity":0.493,"stretto":false,"stretto_voices":0,"combination":[],"aug_dim":"","rhythm_ratio":1.0,"mirror":false,"chromatic_density":0.231,"complexity":0.578,"dissonance":0.095},{"voice":2,"pitch":53,"start":192.5453,"duration":0.2727,"velocity":127,"measure":89,"beat":2.0,"subject_pos":-1,"motif":"","motif_pos":-1,"best_pos":5,"similarity":0.65,"stretto":false,"stretto_voices":0,"combination":[],"aug_dim":"","rhythm_ratio":1.0,"mirror":false,"chromatic_density":0.231,"complexity":0.578,"dissonance":0.095},{"voice":1,"pitch":76,"start":192.818,"duration":0.2727,"velocity":127,"measure":89,"beat":2.5,"subject_pos":-1,"motif":"","motif_pos":-1,"best_pos":6,"similarity":0.586,"stretto":false,"stretto_voices":0,"combination":[],"aug_dim":"","rhythm_ratio":1.0,"mirror":false,"chromatic_density":0.231,"complexity":0.578,"dissonance":0.095},{"voice":2,"pitch":55,"start":192.818,"duration":0.2727,"velocity":127,"measure":89,"beat":2.5,"subject_pos":-1,"motif":"","motif_pos":-1,"best_pos":6,"similarity":0.571,"stretto":false,"stretto_voices":0,"combination":[],"aug_dim":"","rhythm_ratio":1.0,"mirror":false,"chromatic_density":0.231,"complexity":0.578,"dissonance":0.095},{"voice":0,"pitch":81,"start":193.0907,"duration":1.6364,"velocity":127,"measure":89,"beat":3.0,"subject_pos":-1,"motif":"","motif_pos":-1,"best_pos":1,"similarity":0.429,"stretto":false,"stretto_voices":0,"combination":[],"aug_dim":"","rhythm_ratio":1.0,"mirror":false,"chromatic_density":0.231,"complexity":0.578,"dissonance":0.095},{"voice":1,"pitch":77,"start":193.0907,"duration":0.5455,"velocity":127,"measure":89,"beat":3.0,"subject_pos":-1,"motif":"","motif_pos":-1,"best_pos":3,"similarity":0.486,"stretto":false,"stretto_voices":0,"combination":[],"aug_dim":"","rhythm_ratio":1.0,"mirror":false,"chromatic_density":0.231,"complexity":0.578,"dissonance":0.095},{"voice":2,"pitch":57,"start":193.0907,"duration":0.2727,"velocity":127,"measure":89,"beat":3.0,"subject_pos":-1,"motif":"","motif_pos":-1,"best_pos":6,"similarity":0.404,"stretto":false,"stretto_voices":0,"combination":[],"aug_dim":"","rhythm_ratio":1.0,"mirror":false,"chromatic_density":0.231,"complexity":0.578,"dissonance":0.095},{"voice":2,"pitch":55,"start":193.3634,"duration":0.2727,"velocity":127,"measure":89,"beat":3.5,"subject_pos":-1,"motif":"","motif_pos":-1,"best_pos":4,"similarity":0.471,"stretto":false,"stretto_voices":0,"combination":[],"aug_dim":"","rhythm_ratio":1.0,"mirror":false,"chromatic_density":0.231,"complexity":0.578,"dissonance":0.095},{"voice":1,"pitch":76,"start":193.6362,"duration":0.2727,"velocity":127,"measure":89,"beat":4.0,"subject_pos":-1,"motif":"","motif_pos":-1,"best_pos":4,"similarity":0.479,"stretto":false,"stretto_voices":0,"combination":[],"aug_dim":"","rhythm_ratio":1.0,"mirror":false,"chromatic_density":0.231,"complexity":0.578,"dissonance":0.095},{"voice":2,"pitch":57,"start":193.6362,"duration":0.2727,"velocity":127,"measure":89,"beat":4.0,"subject_pos":-1,"motif":"","motif_pos":-1,"best_pos":5,"similarity":0.571,"stretto":false,"stretto_voices":0,"combination":[],"aug_dim":"","rhythm_ratio":1.0,"mirror":false,"chromatic_density":0.231,"complexity":0.578,"dissonance":0.095},{"voice":1,"pitch":74,"start":193.9089,"duration":0.2727,"velocity":127,"measure":89,"beat":4.5,"subject_pos":-1,"motif":"","motif_pos":-1,"best_pos":5,"similarity":0.464,"stretto":false,"stretto_voices":0,"combination":[],"aug_dim":"","rhythm_ratio":1.0,"mirror":false,"chromatic_density":0.231,"complexity":0.578,"dissonance":0.095},{"voice":2,"pitch":59,"start":193.9089,"duration":0.2727,"velocity":127,"measure":89,"beat":4.5,"subject_pos":-1,"motif":"","motif_pos":-1,"best_pos":6,"similarity":0.536,"stretto":false,"stretto_voices":0,"combination":[],"aug_dim":"","rhythm_ratio":1.0,"mirror":false,"chromatic_density":0.231,"complexity":0.578,"dissonance":0.095},{"voice":1,"pitch":76,"start":194.1816,"duration":0.5455,"velocity":127,"measure":90,"beat":1.0,"subject_pos":-1,"motif":"","motif_pos":-1,"best_pos":6,"similarity":0.371,"stretto":false,"stretto_voices":0,"combination":[],"aug_dim":"","rhythm_ratio":1.0,"mirror":false,"chromatic_density":0.455,"complexity":0.503,"dissonance":0.096},{"voice":2,"pitch":61,"start":194.1816,"duration":0.2727,"velocity":127,"measure":90,"beat":1.0,"subject_pos":-1,"motif":"","motif_pos":-1,"best_pos":6,"similarity":0.393,"stretto":false,"stretto_voices":0,"combination":[],"aug_dim":"","rhythm_ratio":1.0,"mirror":false,"chromatic_density":0.455,"complexity":0.503,"dissonance":0.096},{"voice":3,"pitch":57,"start":194.1816,"duration":2.1818,"velocity":127,"measure":90,"beat":1.0,"subject_pos":1,"motif":"subject","motif_pos":1,"best_pos":1,"similarity":1.0,"stretto":false,"stretto_voices":0,"combination":[],"aug_dim":"augmentation","rhythm_ratio":4.35,"mirror":false,"chromatic_density":0.455,"complexity":0.503,"dissonance":0.096},{"voice":2,"pitch":59,"start":194.4544,"duration":0.2727,"velocity":127,"measure":90,"beat":1.5,"subject_pos":-1,"motif":"","motif_pos":-1,"best_pos":5,"similarity":0.471,"stretto":false,"stretto_voices":0,"combination":[],"aug_dim":"","rhythm_ratio":1.0,"mirror":false,"chromatic_density":0.455,"complexity":0.503,"dissonance":0.096},{"voice":0,"pitch":79,"start":194.7271,"duration":0.2727,"velocity":127,"measure":90,"beat":2.0,"subject_pos":-1,"motif":"","motif_pos":-1,"best_pos":2,"similarity":0.579,"stretto":false,"stretto_voices":0,"combination":[],"aug_dim":"","rhythm_ratio":1.0,"mirror":false,"chromatic_density":0.455,"complexity":0.503,"dissonance":0.096},{"voice":2,"pitch":61,"start":194.7271,"duration":0.2727,"velocity":127,"measure":90,"beat":2.0,"subject_pos":-1,"motif":"","motif_pos":-1,"best_pos":6,"similarity":0.593,"stretto":false,"stretto_voices":0,"combination":[],"aug_dim":"","rhythm_ratio":1.0,"mirror":false,"chromatic_density":0.455,"complexity":0.503,"dissonance":0.096},{"voice":0,"pitch":77,"start":194.9998,"duration":0.2727,"velocity":127,"measure":90,"beat":2.5,"subject_pos":-1,"motif":"","motif_pos":-1,"best_pos":3,"similarity":0.593,"stretto":false,"stretto_voices":0,"combination":[],"aug_dim":"","rhythm_ratio":1.0,"mirror":false,"chromatic_density":0.455,"complexity":0.503,"dissonance":0.096},{"voice":2,"pitch":62,"start":194.9998,"duration":0.2727,"velocity":127,"measure":90,"beat":2.5,"subject_pos":-1,"motif":"","motif_pos":-1,"best_pos":3,"similarity":0.543,"stretto":false,"stretto_voices":0,"combination":[],"aug_dim":"","rhythm_ratio":1.0,"mirror":false,"chromatic_density":0.455,"complexity":0.503,"dissonance":0.096},{"voice":0,"pitch":76,"start":195.2725,"duration":0.2727,"velocity":127,"measure":90,"beat":3.0,"subject_pos":-1,"motif":"","motif_pos":-1,"best_pos":4,"similarity":0.479,"stretto":false,"stretto_voices":0,"combination":[],"aug_dim":"","rhythm_ratio":1.0,"mirror":false,"chromatic_density":0.455,"complexity":0.503,"dissonance":0.096},{"voice":2,"pitch":61,"start":195.2725,"duration":0.2727,"velocity":127,"measure":90,"beat":3.0,"subject_pos":-1,"motif":"","motif_pos":-1,"best_pos":4,"similarity":0.743,"stretto":false,"stretto_voices":0,"combination":[],"aug_dim":"","rhythm_ratio":1.0,"mirror":false,"chromatic_density":0.455,"complexity":0.503,"dissonance":0.096},{"voice":0,"pitch":74,"start":195.5453,"duration":0.2727,"velocity":127,"measure":90,"beat":3.5,"subject_pos":-1,"motif":"","motif_pos":-1,"best_pos":3,"similarity":0.521,"stretto":false,"stretto_voices":0,"combination":[],"aug_dim":"","rhythm_ratio":1.0,"mirror":false,"chromatic_density":0.455,"complexity":0.503,"dissonance":0.096},{"voice":2,"pitch":62,"start":195.5453,"duration":0.2727,"velocity":127,"measure":90,"beat":3.5,"subject_pos":-1,"motif":"","motif_pos":-1,"best_pos":5,"similarity":0.736,"stretto":false,"stretto_voices":0,"combination":[],"aug_dim":"","rhythm_ratio":1.0,"mirror":false,"chromatic_density":0.455,"complexity":0.503,"dissonance":0.096},{"voice":0,"pitch":73,"start":195.818,"duration":0.2727,"velocity":127,"measure":90,"beat":4.0,"subject_pos":-1,"motif":"","motif_pos":-1,"best_pos":4,"similarity":0.443,"stretto":false,"stretto_voices":0,"combination":[],"aug_dim":"","rhythm_ratio":1.0,"mirror":false,"chromatic_density":0.455,"complexity":0.503,"dissonance":0.096},{"voice":2,"pitch":64,"start":195.818,"duration":1.0909,"velocity":127,"measure":90,"beat":4.0,"subject_pos":-1,"motif":"","motif_pos":-1,"best_pos":6,"similarity":0.529,"stretto":false,"stretto_voices":0,"combination":[],"aug_dim":"","rhythm_ratio":1.0,"mirror":false,"chromatic_density":0.455,"complexity":0.503,"dissonance":0.096},{"voice":0,"pitch":71,"start":196.0907,"duration":0.2727,"velocity":127,"measure":90,"beat":4.5,"subject_pos":-1,"motif":"","motif_pos":-1,"best_pos":2,"similarity":0.536,"stretto":false,"stretto_voices":0,"combination":[],"aug_dim":"","rhythm_ratio":1.0,"mirror":false,"chromatic_density":0.455,"complexity":0.503,"dissonance":0.096},{"voice":0,"pitch":69,"start":196.3634,"duration":0.2727,"velocity":127,"measure":91,"beat":1.0,"subject_pos":-1,"motif":"","motif_pos":-1,"best_pos":3,"similarity":0.571,"stretto":false,"stretto_voices":0,"combination":[],"aug_dim":"","rhythm_ratio":1.0,"mirror":false,"chromatic_density":0.1,"complexity":0.541,"dissonance":0.141},{"voice":3,"pitch":53,"start":196.3634,"duration":2.1818,"velocity":127,"measure":91,"beat":1.0,"subject_pos":2,"motif":"subject","motif_pos":2,"best_pos":2,"similarity":1.0,"stretto":false,"stretto_voices":0,"combination":[],"aug_dim":"augmentation","rhythm_ratio":4.35,"mirror":false,"chromatic_density":0.1,"complexity":0.541,"dissonance":0.141},{"voice":0,"pitch":67,"start":196.6362,"duration":0.2727,"velocity":127,"measure":91,"beat":1.5,"subject_pos":-1,"motif":"","motif_pos":-1,"best_pos":4,"similarity":0.643,"stretto":false,"stretto_voices":0,"combination":[],"aug_dim":"","rhythm_ratio":1.0,"mirror":false,"chromatic_density":0.1,"complexity":0.541,"dissonance":0.141},{"voice":0,"pitch":69,"start":196.9089,"duration":0.2727,"velocity":127,"measure":91,"beat":2.0,"subject_pos":-1,"motif":"","motif_pos":-1,"best_pos":5,"similarity":0.679,"stretto":false,"stretto_voices":0,"combination":[],"aug_dim":"","rhythm_ratio":1.0,"mirror":false,"chromatic_density":0.1,"complexity":0.541,"dissonance":0.141},{"voice":2,"pitch":62,"start":196.9089,"duration":0.5455,"velocity":127,"measure":91,"beat":2.0,"subject_pos":-1,"motif":"","motif_pos":-1,"best_pos":2,"similarity":0.393,"stretto":false,"stretto_voices":0,"combination":[],"aug_dim":"","rhythm_ratio":1.0,"mirror":false,"chromatic_density":0.1,"complexity":0.541,"dissonance":0.141},{"voice":0,"pitch":71,"start":197.1816,"duration":0.2727,"velocity":127,"measure":91,"beat":2.5,"subject_pos":-1,"motif":"","motif_pos":-1,"best_pos":6,"similarity":0.679,"stretto":false,"stretto_voices":0,"combination":[],"aug_dim":"","rhythm_ratio":1.0,"mirror":false,"chromatic_density":0.1,"complexity":0.541,"dissonance":0.141},{"voice":0,"pitch":72,"start":197.4543,"duration":0.2727,"velocity":127,"measure":91,"beat":3.0,"subject_pos":-1,"motif":"","motif_pos":-1,"best_pos":7,"similarity":0.464,"stretto":false,"stretto_voices":0,"combination":[],"aug_dim":"","rhythm_ratio":1.0,"mirror":false,"chromatic_density":0.1,"complexity":0.541,"dissonance":0.141},{"voice":2,"pitch":57,"start":197.4543,"duration":1.6364,"velocity":127,"measure":91,"beat":3.0,"subject_pos":-1,"motif":"","motif_pos":-1,"best_pos":2,"similarity":0.293,"stretto":false,"stretto_voices":0,"combination":[],"aug_dim":"","rhythm_ratio":1.0,"mirror":false,"chromatic_density":0.1,"complexity":0.541,"dissonance":0.141},{"voice":0,"pitch":69,"start":197.7271,"duration":0.2727,"velocity":127,"measure":91,"beat":3.5,"subject_pos":-1,"motif":"","motif_pos":-1,"best_pos":4,"similarity":0.45,"stretto":false,"stretto_voices":0,"combination":[],"aug_dim":"","rhythm_ratio":1.0,"mirror":false,"chromatic_density":0.1,"complexity":0.541,"dissonance":0.141},{"voice":1,"pitch":60,"start":197.7271,"duration":0.2727,"velocity":127,"measure":91,"beat":3.5,"subject_pos":-1,"motif":"","motif_pos":-1,"best_pos":4,"similarity":0.429,"stretto":false,"stretto_voices":0,"combination":[],"aug_dim":"","rhythm_ratio":1.0,"mirror":false,"chromatic_density":0.1,"complexity":0.541,"dissonance":0.141},{"voice":0,"pitch":71,"start":197.9998,"duration":0.2727,"velocity":127,"measure":91,"beat":4.0,"subject_pos":-1,"motif":"","motif_pos":-1,"best_pos":5,"similarity":0.614,"stretto":false,"stretto_voices":0,"combination":[],"aug_dim":"","rhythm_ratio":1.0,"mirror":false,"chromatic_density":0.1,"complexity":0.541,"dissonance":0.141},{"voice":1,"pitch":62,"start":197.9998,"duration":0.2727,"velocity":127,"measure":91,"beat":4.0,"subject_pos":-1,"motif":"","motif_pos":-1,"best_pos":5,"similarity":0.571,"stretto":false,"stretto_voices":0,"combination":[],"aug_dim":"","rhythm_ratio":1.0,"mirror":false,"chromatic_density":0.1,"complexity":0.541,"dissonance":0.141},{"voice":0,"pitch":73,"start":198.2725,"duration":0.2727,"velocity":127,"measure":91,"beat":4.5,"subject_pos":-1,"motif":"","motif_pos":-1,"best_pos":6,"similarity":0.661,"stretto":false,"stretto_voices":0,"combination":[],"aug_dim":"","rhythm_ratio":1.0,"mirror":false,"chromatic_density":0.1,"complexity":0.541,"dissonance":0.141},{"voice":1,"pitch":64,"start":198.2725,"duration":0.2727,"velocity":127,"measure":91,"beat":4.5,"subject_pos":-1,"motif":"","motif_pos":-1,"best_pos":6,"similarity":0.643,"stretto":false,"stretto_voices":0,"combination":[],"aug_dim":"","rhythm_ratio":1.0,"mirror":false,"chromatic_density":0.1,"complexity":0.541,"dissonance":0.141},{"voice":0,"pitch":74,"start":198.5453,"duration":0.2727,"velocity":127,"measure":92,"beat":1.0,"subject_pos":-1,"motif":"tail","motif_pos":3,"best_pos":3,"similarity":1.0,"stretto":false,"stretto_voices":0,"combination":[],"aug_dim":"","rhythm_ratio":1.0,"mirror":false,"chromatic_density":0.364,"complexity":0.647,"dissonance":0.106},{"voice":1,"pitch":65,"start":198.5453,"duration":0.5455,"velocity":127,"measure":92,"beat":1.0,"subject_pos":-1,"motif":"","motif_pos":-1,"best_pos":7,"similarity":0.464,"stretto":false,"stretto_voices":0,"combination":[],"aug_dim":"","rhythm_ratio":1.0,"mirror":false,"chromatic_density":0.364,"complexity":0.647,"dissonance":0.106},{"voice":3,"pitch":50,"start":198.5453,"duration":2.1818,"velocity":127,"measure":92,"beat":1.0,"subject_pos":3,"motif":"subject","motif_pos":3,"best_pos":3,"similarity":1.0,"stretto":false,"stretto_voices":0,"combination":[],"aug_dim":"augmentation","rhythm_ratio":4.35,"mirror":false,"chromatic_density":0.364,"complexity":0.647,"dissonance":0.106},{"voice":0,"pitch":73,"start":198.818,"duration":0.2727,"velocity":127,"measure":92,"beat":1.5,"subject_pos":-1,"motif":"tail","motif_pos":4,"best_pos":4,"similarity":1.0,"stretto":false,"stretto_voices":0,"combination":[],"aug_dim":"","rhythm_ratio":1.0,"mirror":false,"chromatic_density":0.364,"complexity":0.647,"dissonance":0.106},{"voice":0,"pitch":74,"start":199.0907,"duration":0.2727,"velocity":127,"measure":92,"beat":2.0,"subject_pos":-1,"motif":"tail","motif_pos":5,"best_pos":5,"similarity":1.0,"stretto":false,"stretto_voices":0,"combination":[],"aug_dim":"","rhythm_ratio":1.0,"mirror":false,"chromatic_density":0.364,"complexity":0.647,"dissonance":0.106},{"voice":2,"pitch":53,"start":199.0907,"duration":0.5455,"velocity":127,"measure":92,"beat":2.0,"subject_pos":-1,"motif":"","motif_pos":-1,"best_pos":0,"similarity":0.293,"stretto":false,"stretto_voices":0,"combination":[],"aug_dim":"","rhythm_ratio":1.0,"mirror":false,"chromatic_density":0.364,"complexity":0.647,"dissonance":0.106},{"voice":0,"pitch":76,"start":199.3634,"duration":0.2727,"velocity":127,"measure":92,"beat":2.5,"subject_pos":-1,"motif":"tail","motif_pos":6,"best_pos":6,"similarity":1.0,"stretto":false,"stretto_voices":0,"combination":[],"aug_dim":"","rhythm_ratio":1.0,"mirror":false,"chromatic_density":0.364,"complexity":0.647,"dissonance":0.106},{"voice":0,"pitch":77,"start":199.6362,"duration":0.2727,"velocity":127,"measure":92,"beat":3.0,"subject_pos":-1,"motif":"tail","motif_pos":7,"best_pos":7,"similarity":1.0,"stretto":false,"stretto_voices":0,"combination":[],"aug_dim":"","rhythm_ratio":1.0,"mirror":false,"chromatic_density":0.364,"complexity":0.647,"dissonance":0.106},{"voice":2,"pitch":58,"start":199.6362,"duration":0.5455,"velocity":127,"measure":92,"beat":3.0,"subject_pos":-1,"motif":"","motif_pos":-1,"best_pos":1,"similarity":0.307,"stretto":false,"stretto_voices":0,"combination":[],"aug_dim":"","rhythm_ratio":1.0,"mirror":false,"chromatic_density":0.364,"complexity":0.647,"dissonance":0.106},{"voice":0,"pitch":74,"start":199.9089,"duration":0.2727,"velocity":127,"measure":92,"beat":3.5,"subject_pos":-1,"motif":"","motif_pos":-1,"best_pos":3,"similarity":0.496,"stretto":false,"stretto_voices":0,"combination":[],"aug_dim":"","rhythm_ratio":1.0,"mirror":false,"chromatic_density":0.364,"complexity":0.647,"dissonance":0.106},{"voice":1,"pitch":65,"start":199.9089,"duration":0.2727,"velocity":127,"measure":92,"beat":3.5,"subject_pos":-1,"motif":"","motif_pos":-1,"best_pos":5,"similarity":0.536,"stretto":false,"stretto_voices":0,"combination":[],"aug_dim":"","rhythm_ratio":1.0,"mirror":false,"chromatic_density":0.364,"complexity":0.647,"dissonance":0.106},{"voice":0,"pitch":76,"start":200.1816,"duration":0.2727,"velocity":127,"measure":92,"beat":4.0,"subject_pos":-1,"motif":"","motif_pos":-1,"best_pos":6,"similarity":0.604,"stretto":false,"stretto_voices":0,"combination":[],"aug_dim":"","rhythm_ratio":1.0,"mirror":false,"chromatic_density":0.364,"complexity":0.647,"dissonance":0.106},{"voice":1,"pitch":67,"start":200.1816,"duration":0.2727,"velocity":127,"measure":92,"beat":4.0,"subject_pos":-1,"motif":"","motif_pos":-1,"best_pos":5,"similarity":0.65,"stretto":false,"stretto_voices":0,"combination":[],"aug_dim":"","rhythm_ratio":1.0,"mirror":false,"chromatic_density":0.364,"complexity":0.647,"dissonance":0.106},{"voice":2,"pitch":62,"start":200.1816,"duration":0.5455,"velocity":127,"measure":92,"beat":4.0,"subject_pos":-1,"motif":"","motif_pos":-1,"best_pos":2,"similarity":0.186,"stretto":false,"stretto_voices":0,"combination":[],"aug_dim":"","rhythm_ratio":1.0,"mirror":false,"chromatic_density":0.364,"complexity":0.647,"dissonance":0.106},{"voice":0,"pitch":77,"start":200.4543,"duration":0.2727,"velocity":127,"measure":92,"beat":4.5,"subject_pos":-1,"motif":"","motif_pos":-1,"best_pos":5,"similarity":0.479,"stretto":false,"stretto_voices":0,"combination":[],"aug_dim":"","rhythm_ratio":1.0,"mirror":false,"chromatic_density":0.364,"complexity":0.647,"dissonance":0.106},{"voice":1,"pitch":69,"start":200.4543,"duration":0.2727,"velocity":127,"measure":92,"beat":4.5,"subject_pos":-1,"motif":"","motif_pos":-1,"best_pos":6,"similarity":0.679,"stretto":false,"stretto_voices":0,"combination":[],"aug_dim":"","rhythm_ratio":1.0,"mirror":false,"chromatic_density":0.364,"complexity":0.647,"dissonance":0.106},{"voice":0,"pitch":77,"start":200.7271,"duration":0.5455,"velocity":127,"measure":93,"beat":1.0,"subject_pos":-1,"motif":"","motif_pos":-1,"best_pos":3,"similarity":0.414,"stretto":false,"stretto_voices":0,"combination":[],"aug_dim":"","rhythm_ratio":1.0,"mirror":false,"chromatic_density":0.333,"complexity":0.578,"dissonance":0.213},{"voice":1,"pitch":70,"start":200.7271,"duration":0.2727,"velocity":127,"measure":93,"beat":1.0,"subject_pos":-1,"motif":"","motif_pos":-1,"best_pos":7,"similarity":0.464,"stretto":false,"stretto_voices":0,"combination":[],"aug_dim":"","rhythm_ratio":1.0,"mirror":false,"chromatic_density":0.333,"complexity":0.578,"dissonance":0.213},{"voice":2,"pitch":55,"start":200.7271,"duration":0.5455,"velocity":127,"measure":93,"beat":1.0,"subject_pos":-1,"motif":"","motif_pos":-1,"best_pos":3,"similarity":0.164,"stretto":false,"stretto_voices":0,"combination":[],"aug_dim":"","rhythm_ratio":1.0,"mirror":false,"chromatic_density":0.333,"complexity":0.578,"dissonance":0.213},{"voice":3,"pitch":49,"start":200.7271,"duration":2.1818,"velocity":127,"measure":93,"beat":1.0,"subject_pos":4,"motif":"subject","motif_pos":4,"best_pos":4,"similarity":1.0,"stretto":false,"stretto_voices":0,"combination":[],"aug_dim":"augmentation","rhythm_ratio":4.35,"mirror":false,"chromatic_density":0.333,"complexity":0.578,"dissonance":0.213},{"voice":1,"pitch":69,"start":200.9998,"duration":0.2727,"velocity":127,"measure":93,"beat":1.5,"subject_pos":-1,"motif":"","motif_pos":-1,"best_pos":4,"similarity":0.425,"stretto":false,"stretto_voices":0,"combination":[],"aug_dim":"","rhythm_ratio":1.0,"mirror":false,"chromatic_density":0.333,"complexity":0.578,"dissonance":0.213},{"voice":0,"pitch":76,"start":201.2725,"duration":0.5455,"velocity":127,"measure":93,"beat":2.0,"subject_pos":-1,"motif":"","motif_pos":-1,"best_pos":4,"similarity":0.5,"stretto":false,"stretto_voices":0,"combination":[],"aug_dim":"","rhythm_ratio":1.0,"mirror":false,"chromatic_density":0.333,"complexity":0.578,"dissonance":0.213},{"voice":1,"pitch":67,"start":201.2725,"duration":0.2727,"velocity":127,"measure":93,"beat":2.0,"subject_pos":-1,"motif":"","motif_pos":-1,"best_pos":2,"similarity":0.5,"stretto":false,"stretto_voices":0,"combination":[],"aug_dim":"","rhythm_ratio":1.0,"mirror":false,"chromatic_density":0.333,"complexity":0.578,"dissonance":0.213},{"voice":2,"pitch":58,"start":201.2725,"duration":0.5455,"velocity":127,"measure":93,"beat":2.0,"subject_pos":-1,"motif":"","motif_pos":-1,"best_pos":1,"similarity":0.179,"stretto":false,"stretto_voices":0,"combination":[],"aug_dim":"","rhythm_ratio":1.0,"mirror":false,"chromatic_density":0.333,"complexity":0.578,"dissonance":0.213},{"voice":1,"pitch":70,"start":201.5453,"duration":0.2727,"velocity":127,"measure":93,"beat":2.5,"subject_pos":-1,"motif":"","motif_pos":-1,"best_pos":3,"similarity":0.643,"stretto":false,"stretto_voices":0,"combination":[],"aug_dim":"","rhythm_ratio":1.0,"mirror":false,"chromatic_density":0.333,"complexity":0.578,"dissonance":0.213},{"voice":1,"pitch":69,"start":201.818,"duration":1.6364,"velocity":127,"measure":93,"beat":3.0,"subject_pos":-1,"motif":"","motif_pos":-1,"best_pos":4,"similarity":0.793,"stretto":false,"stretto_voices":0,"combination":[],"aug_dim":"","rhythm_ratio":1.0,"mirror":false,"chromatic_density":0.333,"complexity":0.578,"dissonance":0.213},{"voice":2,"pitch":52,"start":201.818,"duration":0.2727,"velocity":127,"measure":93,"beat":3.0,"subject_pos":-1,"motif":"","motif_pos":-1,"best_pos":0,"similarity":0.232,"stretto":false,"stretto_voices":0,"combination":[],"aug_dim":"","rhythm_ratio":1.0,"mirror":false,"chromatic_density":0.333,"complexity":0.578,"dissonance":0.213},{"voice":0,"pitch":76,"start":202.0907,"duration":0.2727,"velocity":127,"measure":93,"beat":3.5,"subject_pos":-1,"motif":"","motif_pos":-1,"best_pos":4,"similarity":0.439,"stretto":false,"stretto_voices":0,"combination":[],"aug_dim":"","rhythm_ratio":1.0,"mirror":false,"chromatic_density":0.333,"complexity":0.578,"dissonance":0.213},{"voice":2,"pitch":55,"start":202.0907,"duration":0.2727,"velocity":127,"measure":93,"beat":3.5,"subject_pos":-1,"motif":"","motif_pos":-1,"best_pos":1,"similarity":0.429,"stretto":false,"stretto_voices":0,"combination":[],"aug_dim":"","rhythm_ratio":1.0,"mirror":false,"chromatic_density":0.333,"complexity":0.578,"dissonance":0.213},{"voice":0,"pitch":74,"start":202.3634,"duration":0.2727,"velocity":127,"measure":93,"beat":4.0,"subject_pos":-1,"motif":"","motif_pos":-1,"best_pos":5,"similarity":0.546,"stretto":false,"stretto_voices":0,"combination":[],"aug_dim":"","rhythm_ratio":1.0,"mirror":false,"chromatic_density":0.333,"complexity":0.578,"dissonance":0.213},{"voice":2,"pitch":53,"start":202.3634,"duration":0.2727,"velocity":127,"measure":93,"beat":4.0,"subject_pos":-1,"motif":"","motif_pos":-1,"best_pos":2,"similarity":0.464,"stretto":false,"stretto_voices":0,"combination":[],"aug_dim":"","rhythm_ratio":1.0,"mirror":false,"chromatic_density":0.333,"complexity":0.578,"dissonance":0.213},{"voice":0,"pitch":76,"start":202.6362,"duration":0.2727,"velocity":127,"measure":93,"beat":4.5,"subject_pos":-1,"motif":"","motif_pos":-1,"best_pos":6,"similarity":0.621,"stretto":false,"stretto_voices":0,"combination":[],"aug_dim":"","rhythm_ratio":1.0,"mirror":false,"chromatic_density":0.333,"complexity":0.578,"dissonance":0.213},{"voice":2,"pitch":52,"start":202.6362,"duration":0.2727,"velocity":127,"measure":93,"beat":4.5,"subject_pos":-1,"motif":"","motif_pos":-1,"best_pos":4,"similarity":0.457,"stretto":false,"stretto_voices":0,"combination":[],"aug_dim":"","rhythm_ratio":1.0,"mirror":false,"chromatic_density":0.333,"complexity":0.578,"dissonance":0.213},{"voice":0,"pitch":77,"start":202.9089,"duration":0.2727,"velocity":127,"measure":94,"beat":1.0,"subject_pos":-1,"motif":"","motif_pos":-1,"best_pos":7,"similarity":0.436,"stretto":false,"stretto_voices":0,"combination":[],"aug_dim":"","rhythm_ratio":1.0,"mirror":false,"chromatic_density":0.1,"complexity":0.512,"dissonance":0.144},{"voice":2,"pitch":50,"start":202.9089,"duration":0.5455,"velocity":127,"measure":94,"beat":1.0,"subject_pos":-1,"motif":"","motif_pos":-1,"best_pos":3,"similarity":0.429,"stretto":false,"stretto_voices":0,"combination":[],"aug_dim":"","rhythm_ratio":1.0,"mirror":false,"chromatic_density":0.1,"complexity":0.512,"dissonance":0.144},{"voice":3,"pitch":50,"start":202.9089,"duration":1.0909,"velocity":127,"measure":94,"beat":1.0,"subject_pos":5,"motif":"subject","motif_pos":5,"best_pos":5,"similarity":1.0,"stretto":false,"stretto_voices":0,"combination":[],"aug_dim":"augmentation","rhythm_ratio":4.35,"mirror":false,"chromatic_density":0.1,"complexity":0.512,"dissonance":0.144},{"voice":0,"pitch":81,"start":203.1816,"duration":0.2727,"velocity":127,"measure":94,"beat":1.5,"subject_pos":-1,"motif":"","motif_pos":-1,"best_pos":1,"similarity":0.507,"stretto":false,"stretto_voices":0,"combination":[],"aug_dim":"","rhythm_ratio":1.0,"mirror":false,"chromatic_density":0.1,"complexity":0.512,"dissonance":0.144},{"voice":0,"pitch":79,"start":203.4543,"duration":0.2727,"velocity":127,"measure":94,"beat":2.0,"subject_pos":-1,"motif":"","motif_pos":-1,"best_pos":2,"similarity":0.521,"stretto":false,"stretto_voices":0,"combination":[],"aug_dim":"","rhythm_ratio":1.0,"mirror":false,"chromatic_density":0.1,"complexity":0.512,"dissonance":0.144},{"voice":1,"pitch":70,"start":203.4543,"duration":1.0909,"velocity":127,"measure":94,"beat":2.0,"subject_pos":-1,"motif":"","motif_pos":-1,"best_pos":5,"similarity":0.729,"stretto":false,"stretto_voices":0,"combination":[],"aug_dim":"","rhythm_ratio":1.0,"mirror":false,"chromatic_density":0.1,"complexity":0.512,"dissonance":0.144},{"voice":0,"pitch":77,"start":203.7271,"duration":0.2727,"velocity":127,"measure":94,"beat":2.5,"subject_pos":-1,"motif":"","motif_pos":-1,"best_pos":5,"similarity":0.4,"stretto":false,"stretto_voices":0,"combination":[],"aug_dim":"","rhythm_ratio":1.0,"mirror":false,"chromatic_density":0.1,"complexity":0.512,"dissonance":0.144},{"voice":0,"pitch":79,"start":203.9998,"duration":0.2727,"velocity":127,"measure":94,"beat":3.0,"subject_pos":-1,"motif":"","motif_pos":-1,"best_pos":1,"similarity":0.386,"stretto":false,"stretto_voices":0,"combination":[],"aug_dim":"","rhythm_ratio":1.0,"mirror":false,"chromatic_density":0.1,"complexity":0.512,"dissonance":0.144},{"voice":3,"pitch":52,"start":203.9998,"duration":1.0909,"velocity":127,"measure":94,"beat":3.0,"subject_pos":6,"motif":"subject","motif_pos":6,"best_pos":6,"similarity":1.0,"stretto":false,"stretto_voices":0,"combination":[],"aug_dim":"augmentation","rhythm_ratio":4.35,"mirror":false,"chromatic_density":0.1,"complexity":0.512,"dissonance":0.144},{"voice":0,"pitch":77,"start":204.2725,"duration":0.2727,"velocity":127,"measure":94,"beat":3.5,"subject_pos":-1,"motif":"","motif_pos":-1,"best_pos":3,"similarity":0.464,"stretto":false,"stretto_voices":0,"combination":[],"aug_dim":"","rhythm_ratio":1.0,"mirror":false,"chromatic_density":0.1,"complexity":0.512,"dissonance":0.144},{"voice":0,"pitch":76,"start":204.5453,"duration":0.2727,"velocity":127,"measure":94,"beat":4.0,"subject_pos":-1,"motif":"","motif_pos":-1,"best_pos":4,"similarity":0.414,"stretto":false,"stretto_voices":0,"combination":[],"aug_dim":"","rhythm_ratio":1.0,"mirror":false,"chromatic_density":0.1,"complexity":0.512,"dissonance":0.144},{"voice":1,"pitch":72,"start":204.5453,"duration":0.2727,"velocity":127,"measure":94,"beat":4.0,"subject_pos":-1,"motif":"","motif_pos":-1,"best_pos":6,"similarity":0.529,"stretto":false,"stretto_voices":0,"combination":[],"aug_dim":"","rhythm_ratio":1.0,"mirror":false,"chromatic_density":0.1,"complexity":0.512,"dissonance":0.144},{"voice":0,"pitch":74,"start":204.818,"duration":0.2727,"velocity":127,"measure":94,"beat":4.5,"subject_pos":-1,"motif":"","motif_pos":-1,"best_pos":2,"similarity":0.446,"stretto":false,"stretto_voices":0,"combination":[],"aug_dim":"","rhythm_ratio":1.0,"mirror":false,"chromatic_density":0.1,"complexity":0.512,"dissonance":0.144},{"voice":1,"pitch":70,"start":204.818,"duration":0.2727,"velocity":127,"measure":94,"beat":4.5,"subject_pos":-1,"motif":"","motif_pos":-1,"best_pos":3,"similarity":0.521,"stretto":false,"stretto_voices":0,"combination":[],"aug_dim":"","rhythm_ratio":1.0,"mirror":false,"chromatic_density":0.1,"complexity":0.512,"dissonance":0.144},{"voice":0,"pitch":72,"start":205.0907,"duration":0.2727,"velocity":127,"measure":95,"beat":1.0,"subject_pos":-1,"motif":"","motif_pos":-1,"best_pos":2,"similarity":0.436,"stretto":false,"stretto_voices":0,"combination":[],"aug_dim":"","rhythm_ratio":1.0,"mirror":false,"chromatic_density":0.182,"complexity":0.584,"dissonance":0.224},{"voice":1,"pitch":69,"start":205.0907,"duration":0.5455,"velocity":127,"measure":95,"beat":1.0,"subject_pos":-1,"motif":"","motif_pos":-1,"best_pos":4,"similarity":0.514,"stretto":false,"stretto_voices":0,"combination":[],"aug_dim":"","rhythm_ratio":1.0,"mirror":false,"chromatic_density":0.182,"complexity":0.584,"dissonance":0.224},{"voice":3,"pitch":53,"start":205.0907,"duration":2.7273,"velocity":127,"measure":95,"beat":1.0,"subject_pos":7,"motif":"subject","motif_pos":7,"best_pos":7,"similarity":1.0,"stretto":false,"stretto_voices":0,"combination":[],"aug_dim":"augmentation","rhythm_ratio":4.35,"mirror":false,"chromatic_density":0.182,"complexity":0.584,"dissonance":0.224},{"voice":0,"pitch":77,"start":205.3634,"duration":0.2727,"velocity":127,"measure":95,"beat":1.5,"subject_pos":-1,"motif":"","motif_pos":-1,"best_pos":3,"similarity":0.514,"stretto":false,"stretto_voices":0,"combination":[],"aug_dim":"","rhythm_ratio":1.0,"mirror":false,"chromatic_density":0.182,"complexity":0.584,"dissonance":0.224},{"voice":0,"pitch":76,"start":205.6362,"duration":0.2727,"velocity":127,"measure":95,"beat":2.0,"subject_pos":-1,"motif":"","motif_pos":-1,"best_pos":4,"similarity":0.536,"stretto":false,"stretto_voices":0,"combination":[],"aug_dim":"","rhythm_ratio":1.0,"mirror":false,"chromatic_density":0.182,"complexity":0.584,"dissonance":0.224},{"voice":1,"pitch":65,"start":205.6362,"duration":0.5455,"velocity":127,"measure":95,"beat":2.0,"subject_pos":-1,"motif":"","motif_pos":-1,"best_pos":5,"similarity":0.479,"stretto":false,"stretto_voices":0,"combination":[],"aug_dim":"","rhythm_ratio":1.0,"mirror":false,"chromatic_density":0.182,"complexity":0.584,"dissonance":0.224},{"voice":2,"pitch":57,"start":205.6362,"duration":0.5455,"velocity":127,"measure":95,"beat":2.0,"subject_pos":-1,"motif":"","motif_pos":-1,"best_pos":4,"similarity":0.536,"stretto":false,"stretto_voices":0,"combination":[],"aug_dim":"","rhythm_ratio":1.0,"mirror":false,"chromatic_density":0.182,"complexity":0.584,"dissonance":0.224},{"voice":0,"pitch":74,"start":205.9089,"duration":0.2727,"velocity":127,"measure":95,"beat":2.5,"subject_pos":-1,"motif":"","motif_pos":-1,"best_pos":5,"similarity":0.471,"stretto":false,"stretto_voices":0,"combination":[],"aug_dim":"","rhythm_ratio":1.0,"mirror":false,"chromatic_density":0.182,"complexity":0.584,"dissonance":0.224},{"voice":0,"pitch":76,"start":206.1816,"duration":0.2727,"velocity":127,"measure":95,"beat":3.0,"subject_pos":-1,"motif":"","motif_pos":-1,"best_pos":1,"similarity":0.421,"stretto":false,"stretto_voices":0,"combination":[],"aug_dim":"","rhythm_ratio":1.0,"mirror":false,"chromatic_density":0.182,"complexity":0.584,"dissonance":0.224},{"voice":1,"pitch":67,"start":206.1816,"duration":0.5455,"velocity":127,"measure":95,"beat":3.0,"subject_pos":-1,"motif":"","motif_pos":-1,"best_pos":6,"similarity":0.386,"stretto":false,"stretto_voices":0,"combination":[],"aug_dim":"","rhythm_ratio":1.0,"mirror":false,"chromatic_density":0.182,"complexity":0.584,"dissonance":0.224},{"voice":2,"pitch":58,"start":206.1816,"duration":1.0909,"velocity":127,"measure":95,"beat":3.0,"subject_pos":-1,"motif":"","motif_pos":-1,"best_pos":5,"similarity":0.607,"stretto":false,"stretto_voices":0,"combination":[],"aug_dim":"","rhythm_ratio":1.0,"mirror":false,"chromatic_density":0.182,"complexity":0.584,"dissonance":0.224},{"voice":0,"pitch":74,"start":206.4543,"duration":0.2727,"velocity":127,"measure":95,"beat":3.5,"subject_pos":-1,"motif":"","motif_pos":-1,"best_pos":2,"similarity":0.532,"stretto":false,"stretto_voices":0,"combination":[],"aug_dim":"","rhythm_ratio":1.0,"mirror":false,"chromatic_density":0.182,"complexity":0.584,"dissonance":0.224},{"voice":0,"pitch":72,"start":206.7271,"duration":0.2727,"velocity":127,"measure":95,"beat":4.0,"subject_pos":-1,"motif":"","motif_pos":-1,"best_pos":2,"similarity":0.579,"stretto":false,"stretto_voices":0,"combination":[],"aug_dim":"","rhythm_ratio":1.0,"mirror":false,"chromatic_density":0.182,"complexity":0.584,"dissonance":0.224},{"voice":1,"pitch":64,"start":206.7271,"duration":0.5455,"velocity":127,"measure":95,"beat":4.0,"subject_pos":-1,"motif":"","motif_pos":-1,"best_pos":4,"similarity":0.5,"stretto":false,"stretto_voices":0,"combination":[],"aug_dim":"","rhythm_ratio":1.0,"mirror":false,"chromatic_density":0.182,"complexity":0.584,"dissonance":0.224},{"voice":0,"pitch":70,"start":206.9998,"duration":0.2727,"velocity":127,"measure":95,"beat":4.5,"subject_pos":-1,"motif":"enigmatic_cell","motif_pos":0,"best_pos":0,"similarity":1.0,"stretto":false,"stretto_voices":0,"combination":[],"aug_dim":"","rhythm_ratio":1.0,"mirror":false,"chromatic_density":0.182,"complexity":0.584,"dissonance":0.224},{"voice":0,"pitch":69,"start":207.2725,"duration":0.2727,"velocity":127,"measure":96,"beat":1.0,"subject_pos":-1,"motif":"enigmatic_cell","motif_pos":1,"best_pos":1,"similarity":1.0,"stretto":false,"stretto_voices":0,"combination":[],"aug_dim":"","rhythm_ratio":1.0,"mirror":false,"chromatic_density":0.182,"complexity":0.513,"dissonance":0.177},{"voice":1,"pitch":65,"start":207.2725,"duration":0.5455,"velocity":127,"measure":96,"beat":1.0,"subject_pos":-1,"motif":"","motif_pos":-1,"best_pos":5,"similarity":0.464,"stretto":false,"stretto_voices":0,"combination":[],"aug_dim":"","rhythm_ratio":1.0,"mirror":false,"chromatic_density":0.182,"complexity":0.513,"dissonance":0.177},{"voice":2,"pitch":60,"start":207.2725,"duration":0.5455,"velocity":127,"measure":96,"beat":1.0,"subject_pos":-1,"motif":"","motif_pos":-1,"best_pos":6,"similarity":0.429,"stretto":false,"stretto_voices":0,"combination":[],"aug_dim":"","rhythm_ratio":1.0,"mirror":false,"chromatic_density":0.182,"complexity":0.513,"dissonance":0.177},{"voice":0,"pitch":74,"start":207.5452,"duration":0.2727,"velocity":127,"measure":96,"beat":1.5,"subject_pos":-1,"motif":"enigmatic_cell","motif_pos":2,"best_pos":2,"similarity":1.0,"stretto":false,"stretto_voices":0,"combination":[],"aug_dim":"","rhythm_ratio":1.0,"mirror":false,"chromatic_density":0.182,"complexity":0.513,"dissonance":0.177},{"voice":0,"pitch":72,"start":207.818,"duration":0.2727,"velocity":127,"measure":96,"beat":2.0,"subject_pos":-1,"motif":"","motif_pos":-1,"best_pos":2,"similarity":0.593,"stretto":false,"stretto_voices":0,"combination":[],"aug_dim":"","rhythm_ratio":1.0,"mirror":false,"chromatic_density":0.182,"complexity":0.513,"dissonance":0.177},{"voice":3,"pitch":55,"start":207.818,"duration":0.5455,"velocity":127,"measure":96,"beat":2.0,"subject_pos":-1,"motif":"","motif_pos":-1,"best_pos":6,"similarity":0.464,"stretto":false,"stretto_voices":0,"combination":[],"aug_dim":"","rhythm_ratio":1.0,"mirror":false,"chromatic_density":0.182,"complexity":0.513,"dissonance":0.177},{"voice":0,"pitch":70,"start":208.0907,"duration":0.2727,"velocity":127,"measure":96,"beat":2.5,"subject_pos":-1,"motif":"","motif_pos":-1,"best_pos":3,"similarity":0.407,"stretto":false,"stretto_voices":0,"combination":[],"aug_dim":"","rhythm_ratio":1.0,"mirror":false,"chromatic_density":0.182,"complexity":0.513,"dissonance":0.177},{"voice":0,"pitch":72,"start":208.3634,"duration":0.2727,"velocity":127,"measure":96,"beat":3.0,"subject_pos":-1,"motif":"","motif_pos":-1,"best_pos":1,"similarity":0.386,"stretto":false,"stretto_voices":0,"combination":[],"aug_dim":"","rhythm_ratio":1.0,"mirror":false,"chromatic_density":0.182,"complexity":0.513,"dissonance":0.177},{"voice":3,"pitch":53,"start":208.3634,"duration":0.5455,"velocity":127,"measure":96,"beat":3.0,"subject_pos":-1,"motif":"","motif_pos":-1,"best_pos":2,"similarity":0.514,"stretto":false,"stretto_voices":0,"combination":[],"aug_dim":"","rhythm_ratio":1.0,"mirror":false,"chromatic_density":0.182,"complexity":0.513,"dissonance":0.177},{"voice":0,"pitch":70,"start":208.6362,"duration":0.2727,"velocity":127,"measure":96,"beat":3.5,"subject_pos":-1,"motif":"","motif_pos":-1,"best_pos":3,"similarity":0.464,"stretto":false,"stretto_voices":0,"combination":[],"aug_dim":"","rhythm_ratio":1.0,"mirror":false,"chromatic_density":0.182,"complexity":0.513,"dissonance":0.177},{"voice":0,"pitch":69,"start":208.9089,"duration":0.2727,"velocity":127,"measure":96,"beat":4.0,"subject_pos":-1,"motif":"","motif_pos":-1,"best_pos":4,"similarity":0.414,"stretto":false,"stretto_voices":0,"combination":[],"aug_dim":"","rhythm_ratio":1.0,"mirror":false,"chromatic_density":0.182,"complexity":0.513,"dissonance":0.177},{"voice":1,"pitch":61,"start":208.9089,"duration":0.5455,"velocity":127,"measure":96,"beat":4.0,"subject_pos":-1,"motif":"","motif_pos":-1,"best_pos":6,"similarity":0.446,"stretto":false,"stretto_voices":0,"combination":[],"aug_dim":"","rhythm_ratio":1.0,"mirror":false,"chromatic_density":0.182,"complexity":0.513,"dissonance":0.177},{"voice":2,"pitch":55,"start":208.9089,"duration":0.5455,"velocity":127,"measure":96,"beat":4.0,"subject_pos":-1,"motif":"","motif_pos":-1,"best_pos":5,"similarity":0.307,"stretto":false,"stretto_voices":0,"combination":[],"aug_dim":"","rhythm_ratio":1.0,"mirror":false,"chromatic_density":0.182,"complexity":0.513,"dissonance":0.177},{"voice":3,"pitch":52,"start":208.9089,"duration":0.5455,"velocity":127,"measure":96,"beat":4.0,"subject_pos":-1,"motif":"","motif_pos":-1,"best_pos":3,"similarity":0.514,"stretto":false,"stretto_voices":0,"combination":[],"aug_dim":"","rhythm_ratio":1.0,"mirror":false,"chromatic_density":0.182,"complexity":0.513,"dissonance":0.177},{"voice":0,"pitch":67,"start":209.1816,"duration":0.2727,"velocity":127,"measure":96,"beat":4.5,"subject_pos":-1,"motif":"","motif_pos":-1,"best_pos":2,"similarity":0.446,"stretto":false,"stretto_voices":0,"combination":[],"aug_dim":"","rhythm_ratio":1.0,"mirror":false,"chromatic_density":0.182,"complexity":0.513,"dissonance":0.177},{"voice":0,"pitch":65,"start":209.4543,"duration":0.2727,"velocity":127,"measure":97,"beat":1.0,"subject_pos":-1,"motif":"","motif_pos":-1,"best_pos":2,"similarity":0.436,"stretto":false,"stretto_voices":0,"combination":[],"aug_dim":"","rhythm_ratio":1.0,"mirror":false,"chromatic_density":0.3,"complexity":0.498,"dissonance":0.117},{"voice":1,"pitch":62,"start":209.4543,"duration":0.5455,"velocity":127,"measure":97,"beat":1.0,"subject_pos":-1,"motif":"","motif_pos":-1,"best_pos":5,"similarity":0.379,"stretto":false,"stretto_voices":0,"combination":[],"aug_dim":"","rhythm_ratio":1.0,"mirror":false,"chromatic_density":0.3,"complexity":0.498,"dissonance":0.117},{"voice":2,"pitch":57,"start":209.4543,"duration":0.5455,"velocity":127,"measure":97,"beat":1.0,"subject_pos":-1,"motif":"","motif_pos":-1,"best_pos":5,"similarity":0.3,"stretto":false,"stretto_voices":0,"combination":[],"aug_dim":"","rhythm_ratio":1.0,"mirror":false,"chromatic_density":0.3,"complexity":0.498,"dissonance":0.117},{"voice":3,"pitch":50,"start":209.4543,"duration":2.4545,"velocity":127,"measure":97,"beat":1.0,"subject_pos":-1,"motif":"","motif_pos":-1,"best_pos":4,"similarity":0.557,"stretto":false,"stretto_voices":0,"combination":[],"aug_dim":"","rhythm_ratio":1.0,"mirror":false,"chromatic_density":0.3,"complexity":0.498,"dissonance":0.117},{"voice":0,"pitch":70,"start":209.7271,"duration":0.2727,"velocity":127,"measure":97,"beat":1.5,"subject_pos":-1,"motif":"","motif_pos":-1,"best_pos":3,"similarity":0.514,"stretto":false,"stretto_voices":0,"combination":[],"aug_dim":"","rhythm_ratio":1.0,"mirror":false,"chromatic_density":0.3,"complexity":0.498,"dissonance":0.117},{"voice":0,"pitch":69,"start":209.9998,"duration":0.2727,"velocity":127,"measure":97,"beat":2.0,"subject_pos":-1,"motif":"","motif_pos":-1,"best_pos":4,"similarity":0.536,"stretto":false,"stretto_voices":0,"combination":[],"aug_dim":"","rhythm_ratio":1.0,"mirror":false,"chromatic_density":0.3,"complexity":0.498,"dissonance":0.117},{"voice":2,"pitch":52,"start":209.9998,"duration":0.5455,"velocity":127,"measure":97,"beat":2.0,"subject_pos":-1,"motif":"","motif_pos":-1,"best_pos":4,"similarity":0.457,"stretto":false,"stretto_voices":0,"combination":[],"aug_dim":"","rhythm_ratio":1.0,"mirror":false,"chromatic_density":0.3,"complexity":0.498,"dissonance":0.117},{"voice":0,"pitch":67,"start":210.2725,"duration":0.2727,"velocity":127,"measure":97,"beat":2.5,"subject_pos":-1,"motif":"","motif_pos":-1,"best_pos":5,"similarity":0.471,"stretto":false,"stretto_voices":0,"combination":[],"aug_dim":"","rhythm_ratio":1.0,"mirror":false,"chromatic_density":0.3,"complexity":0.498,"dissonance":0.117},{"voice":0,"pitch":69,"start":210.5452,"duration":0.2727,"velocity":127,"measure":97,"beat":3.0,"subject_pos":-1,"motif":"","motif_pos":-1,"best_pos":1,"similarity":0.457,"stretto":false,"stretto_voices":0,"combination":[],"aug_dim":"","rhythm_ratio":1.0,"mirror":false,"chromatic_density":0.3,"complexity":0.498,"dissonance":0.117},{"voice":2,"pitch":53,"start":210.5452,"duration":0.5455,"velocity":127,"measure":97,"beat":3.0,"subject_pos":-1,"motif":"","motif_pos":-1,"best_pos":5,"similarity":0.514,"stretto":false,"stretto_voices":0,"combination":[],"aug_dim":"","rhythm_ratio":1.0,"mirror":false,"chromatic_density":0.3,"complexity":0.498,"dissonance":0.117},{"voice":0,"pitch":67,"start":210.818,"duration":0.2727,"velocity":127,"measure":97,"beat":3.5,"subject_pos":-1,"motif":"","motif_pos":-1,"best_pos":2,"similarity":0.593,"stretto":false,"stretto_voices":0,"combination":[],"aug_dim":"","rhythm_ratio":1.0,"mirror":false,"chromatic_density":0.3,"complexity":0.498,"dissonance":0.117},{"voice":0,"pitch":65,"start":211.0907,"duration":0.2727,"velocity":127,"measure":97,"beat":4.0,"subject_pos":-1,"motif":"","motif_pos":-1,"best_pos":3,"similarity":0.593,"stretto":false,"stretto_voices":0,"combination":[],"aug_dim":"","rhythm_ratio":1.0,"mirror":false,"chromatic_density":0.3,"complexity":0.498,"dissonance":0.117},{"voice":2,"pitch":57,"start":211.0907,"duration":0.5455,"velocity":127,"measure":97,"beat":4.0,"subject_pos":-1,"motif":"","motif_pos":-1,"best_pos":6,"similarity":0.507,"stretto":false,"stretto_voices":0,"combination":[],"aug_dim":"","rhythm_ratio":1.0,"mirror":false,"chromatic_density":0.3,"complexity":0.498,"dissonance":0.117},{"voice":0,"pitch":64,"start":211.3634,"duration":0.2727,"velocity":127,"measure":97,"beat":4.5,"subject_pos":-1,"motif":"","motif_pos":-1,"best_pos":4,"similarity":0.464,"stretto":false,"stretto_voices":0,"combination":[],"aug_dim":"","rhythm_ratio":1.0,"mirror":false,"chromatic_density":0.3,"complexity":0.498,"dissonance":0.117},{"voice":0,"pitch":62,"start":211.6362,"duration":2.4545,"velocity":127,"measure":98,"beat":1.0,"subject_pos":-1,"motif":"","motif_pos":-1,"best_pos":2,"similarity":0.364,"stretto":false,"stretto_voices":0,"combination":[],"aug_dim":"","rhythm_ratio":1.0,"mirror":false,"chromatic_density":0.462,"complexity":0.458,"dissonance":0.114},{"voice":2,"pitch":58,"start":211.6362,"duration":0.2727,"velocity":127,"measure":98,"beat":1.0,"subject_pos":-1,"motif":"","motif_pos":-1,"best_pos":5,"similarity":0.593,"stretto":false,"stretto_voices":0,"combination":[],"aug_dim":"","rhythm_ratio":1.0,"mirror":false,"chromatic_density":0.462,"complexity":0.458,"dissonance":0.114},{"voice":2,"pitch":60,"start":211.9089,"duration":0.2727,"velocity":127,"measure":98,"beat":1.5,"subject_pos":-1,"motif":"","motif_pos":-1,"best_pos":6,"similarity":0.457,"stretto":false,"stretto_voices":0,"combination":[],"aug_dim":"","rhythm_ratio":1.0,"mirror":false,"chromatic_density":0.462,"complexity":0.458,"dissonance":0.114},{"voice":3,"pitch":51,"start":211.9089,"duration":0.2727,"velocity":127,"measure":98,"beat":1.5,"subject_pos":-1,"motif":"","motif_pos":-1,"best_pos":3,"similarity":0.543,"stretto":false,"stretto_voices":0,"combination":[],"aug_dim":"","rhythm_ratio":1.0,"mirror":false,"chromatic_density":0.462,"complexity":0.458,"dissonance":0.114},{"voice":2,"pitch":58,"start":212.1816,"duration":0.2727,"velocity":127,"measure":98,"beat":2.0,"subject_pos":-1,"motif":"","motif_pos":-1,"best_pos":3,"similarity":0.6,"stretto":false,"stretto_voices":0,"combination":[],"aug_dim":"","rhythm_ratio":1.0,"mirror":false,"chromatic_density":0.462,"complexity":0.458,"dissonance":0.114},{"voice":3,"pitch":50,"start":212.1816,"duration":0.2727,"velocity":127,"measure":98,"beat":2.0,"subject_pos":-1,"motif":"","motif_pos":-1,"best_pos":4,"similarity":0.55,"stretto":false,"stretto_voices":0,"combination":[],"aug_dim":"","rhythm_ratio":1.0,"mirror":false,"chromatic_density":0.462,"complexity":0.458,"dissonance":0.114},{"voice":2,"pitch":57,"start":212.4543,"duration":0.2727,"velocity":127,"measure":98,"beat":2.5,"subject_pos":-1,"motif":"tail_inv","motif_pos":0,"best_pos":0,"similarity":1.0,"stretto":false,"stretto_voices":0,"combination":[],"aug_dim":"","rhythm_ratio":1.0,"mirror":false,"chromatic_density":0.462,"complexity":0.458,"dissonance":0.114},{"voice":3,"pitch":48,"start":212.4543,"duration":0.2727,"velocity":127,"measure":98,"beat":2.5,"subject_pos":-1,"motif":"","motif_pos":-1,"best_pos":5,"similarity":0.479,"stretto":false,"stretto_voices":0,"combination":[],"aug_dim":"","rhythm_ratio":1.0,"mirror":false,"chromatic_density":0.462,"complexity":0.458,"dissonance":0.114},{"voice":2,"pitch":58,"start":212.7271,"duration":0.2727,"velocity":127,"measure":98,"beat":3.0,"subject_pos":-1,"motif":"tail_inv","motif_pos":1,"best_pos":1,"similarity":1.0,"stretto":false,"stretto_voices":0,"combination":[],"aug_dim":"","rhythm_ratio":1.0,"mirror":false,"chromatic_density":0.462,"complexity":0.458,"dissonance":0.114},{"voice":3,"pitch":50,"start":212.7271,"duration":0.2727,"velocity":127,"measure":98,"beat":3.0,"subject_pos":-1,"motif":"","motif_pos":-1,"best_pos":1,"similarity":0.457,"stretto":false,"stretto_voices":0,"combination":[],"aug_dim":"","rhythm_ratio":1.0,"mirror":false,"chromatic_density":0.462,"complexity":0.458,"dissonance":0.114},{"voice":2,"pitch":57,"start":212.9998,"duration":0.2727,"velocity":127,"measure":98,"beat":3.5,"subject_pos":-1,"motif":"tail_inv","motif_pos":2,"best_pos":2,"similarity":1.0,"stretto":false,"stretto_voices":0,"combination":[],"aug_dim":"","rhythm_ratio":1.0,"mirror":false,"chromatic_density":0.462,"complexity":0.458,"dissonance":0.114},{"voice":3,"pitch":48,"start":212.9998,"duration":0.2727,"velocity":127,"measure":98,"beat":3.5,"subject_pos":-1,"motif":"","motif_pos":-1,"best_pos":2,"similarity":0.657,"stretto":false,"stretto_voices":0,"combination":[],"aug_dim":"","rhythm_ratio":1.0,"mirror":false,"chromatic_density":0.462,"complexity":0.458,"dissonance":0.114},{"voice":2,"pitch":55,"start":213.2725,"duration":0.2727,"velocity":127,"measure":98,"beat":4.0,"subject_pos":-1,"motif":"tail_inv","motif_pos":3,"best_pos":3,"similarity":1.0,"stretto":false,"stretto_voices":0,"combination":[],"aug_dim":"","rhythm_ratio":1.0,"mirror":false,"chromatic_density":0.462,"complexity":0.458,"dissonance":0.114},{"voice":3,"pitch":46,"start":213.2725,"duration":0.2727,"velocity":127,"measure":98,"beat":4.0,"subject_pos":-1,"motif":"","motif_pos":-1,"best_pos":3,"similarity":0.721,"stretto":false,"stretto_voices":0,"combination":[],"aug_dim":"","rhythm_ratio":1.0,"mirror":false,"chromatic_density":0.462,"complexity":0.458,"dissonance":0.114},{"voice":2,"pitch":54,"start":213.5452,"duration":0.2727,"velocity":127,"measure":98,"beat":4.5,"subject_pos":-1,"motif":"tail_inv","motif_pos":4,"best_pos":4,"similarity":1.0,"stretto":false,"stretto_voices":0,"combination":[],"aug_dim":"","rhythm_ratio":1.0,"mirror":false,"chromatic_density":0.462,"complexity":0.458,"dissonance":0.114},{"voice":3,"pitch":45,"start":213.5452,"duration":0.2727,"velocity":127,"measure":98,"beat":4.5,"subject_pos":-1,"motif":"","motif_pos":-1,"best_pos":4,"similarity":0.714,"stretto":false,"stretto_voices":0,"combination":[],"aug_dim":"","rhythm_ratio":1.0,"mirror":false,"chromatic_density":0.462,"complexity":0.458,"dissonance":0.114},{"voice":2,"pitch":55,"start":213.818,"duration":2.1818,"velocity":127,"measure":99,"beat":1.0,"subject_pos":0,"motif":"subject","motif_pos":0,"best_pos":0,"similarity":1.0,"stretto":false,"stretto_voices":0,"combination":[],"aug_dim":"augmentation","rhythm_ratio":4.35,"mirror":false,"chromatic_density":0.125,"complexity":0.535,"dissonance":0.095},{"voice":3,"pitch":46,"start":213.818,"duration":1.0909,"velocity":127,"measure":99,"beat":1.0,"subject_pos":-1,"motif":"","motif_pos":-1,"best_pos":5,"similarity":0.464,"stretto":false,"stretto_voices":0,"combination":[],"aug_dim":"","rhythm_ratio":1.0,"mirror":false,"chromatic_density":0.125,"complexity":0.535,"dissonance":0.095},{"voice":0,"pitch":74,"start":214.0907,"duration":0.2727,"velocity":127,"measure":99,"beat":1.5,"subject_pos":-1,"motif":"","motif_pos":-1,"best_pos":3,"similarity":0.371,"stretto":false,"stretto_voices":0,"combination":[],"aug_dim":"","rhythm_ratio":1.0,"mirror":false,"chromatic_density":0.125,"complexity":0.535,"dissonance":0.095},{"voice":0,"pitch":72,"start":214.3634,"duration":0.2727,"velocity":127,"measure":99,"beat":2.0,"subject_pos":-1,"motif":"","motif_pos":-1,"best_pos":2,"similarity":0.45,"stretto":false,"stretto_voices":0,"combination":[],"aug_dim":"","rhythm_ratio":1.0,"mirror":false,"chromatic_density":0.125,"complexity":0.535,"dissonance":0.095},{"voice":1,"pitch":62,"start":214.3634,"duration":0.5455,"velocity":127,"measure":99,"beat":2.0,"subject_pos":-1,"motif":"","motif_pos":-1,"best_pos":4,"similarity":0.25,"stretto":false,"stretto_voices":0,"combination":[],"aug_dim":"","rhythm_ratio":1.0,"mirror":false,"chromatic_density":0.125,"complexity":0.535,"dissonance":0.095},{"voice":0,"pitch":70,"start":214.6361,"duration":0.2727,"velocity":127,"measure":99,"beat":2.5,"subject_pos":-1,"motif":"","motif_pos":-1,"best_pos":5,"similarity":0.4,"stretto":false,"stretto_voices":0,"combination":[],"aug_dim":"","rhythm_ratio":1.0,"mirror":false,"chromatic_density":0.125,"complexity":0.535,"dissonance":0.095},{"voice":0,"pitch":72,"start":214.9089,"duration":0.2727,"velocity":127,"measure":99,"beat":3.0,"subject_pos":-1,"motif":"","motif_pos":-1,"best_pos":1,"similarity":0.386,"stretto":false,"stretto_voices":0,"combination":[],"aug_dim":"","rhythm_ratio":1.0,"mirror":false,"chromatic_density":0.125,"complexity":0.535,"dissonance":0.095},{"voice":1,"pitch":74,"start":214.9089,"duration":1.6364,"velocity":127,"measure":99,"beat":3.0,"subject_pos":-1,"motif":"","motif_pos":-1,"best_pos":1,"similarity":0.429,"stretto":false,"stretto_voices":0,"combination":[],"aug_dim":"","rhythm_ratio":1.0,"mirror":false,"chromatic_density":0.125,"complexity":0.535,"dissonance":0.095},{"voice":0,"pitch":70,"start":215.1816,"duration":0.2727,"velocity":127,"measure":99,"beat":3.5,"subject_pos":-1,"motif":"","motif_pos":-1,"best_pos":3,"similarity":0.529,"stretto":false,"stretto_voices":0,"combination":[],"aug_dim":"","rhythm_ratio":1.0,"mirror":false,"chromatic_density":0.125,"complexity":0.535,"dissonance":0.095},{"voice":0,"pitch":69,"start":215.4543,"duration":0.2727,"velocity":127,"measure":99,"beat":4.0,"subject_pos":-1,"motif":"","motif_pos":-1,"best_pos":4,"similarity":0.607,"stretto":false,"stretto_voices":0,"combination":[],"aug_dim":"","rhythm_ratio":1.0,"mirror":false,"chromatic_density":0.125,"complexity":0.535,"dissonance":0.095},{"voice":3,"pitch":58,"start":215.4543,"duration":0.5455,"velocity":127,"measure":99,"beat":4.0,"subject_pos":-1,"motif":"","motif_pos":-1,"best_pos":1,"similarity":0.304,"stretto":false,"stretto_voices":0,"combination":[],"aug_dim":"","rhythm_ratio":1.0,"mirror":false,"chromatic_density":0.125,"complexity":0.535,"dissonance":0.095},{"voice":0,"pitch":67,"start":215.7271,"duration":0.2727,"velocity":127,"measure":99,"beat":4.5,"subject_pos":-1,"motif":"","motif_pos":-1,"best_pos":5,"similarity":0.636,"stretto":false,"stretto_voices":0,"combination":[],"aug_dim":"","rhythm_ratio":1.0,"mirror":false,"chromatic_density":0.125,"complexity":0.535,"dissonance":0.095},{"voice":0,"pitch":69,"start":215.9998,"duration":0.5455,"velocity":127,"measure":100,"beat":1.0,"subject_pos":-1,"motif":"","motif_pos":-1,"best_pos":6,"similarity":0.657,"stretto":false,"stretto_voices":0,"combination":[],"aug_dim":"","rhythm_ratio":1.0,"mirror":false,"chromatic_density":0.25,"complexity":0.507,"dissonance":0.179},{"voice":2,"pitch":62,"start":215.9998,"duration":2.1818,"velocity":127,"measure":100,"beat":1.0,"subject_pos":1,"motif":"subject","motif_pos":1,"best_pos":1,"similarity":1.0,"stretto":false,"stretto_voices":0,"combination":[],"aug_dim":"augmentation","rhythm_ratio":4.35,"mirror":false,"chromatic_density":0.25,"complexity":0.507,"dissonance":0.179},{"voice":3,"pitch":54,"start":215.9998,"duration":0.5455,"velocity":127,"measure":100,"beat":1.0,"subject_pos":-1,"motif":"","motif_pos":-1,"best_pos":2,"similarity":0.321,"stretto":false,"stretto_voices":0,"combination":[],"aug_dim":"","rhythm_ratio":1.0,"mirror":false,"chromatic_density":0.25,"complexity":0.507,"dissonance":0.179},{"voice":1,"pitch":72,"start":216.5452,"duration":0.2727,"velocity":127,"measure":100,"beat":2.0,"subject_pos":-1,"motif":"","motif_pos":-1,"best_pos":2,"similarity":0.579,"stretto":false,"stretto_voices":0,"combination":[],"aug_dim":"","rhythm_ratio":1.0,"mirror":false,"chromatic_density":0.25,"complexity":0.507,"dissonance":0.179},{"voice":3,"pitch":57,"start":216.5452,"duration":0.5455,"velocity":127,"measure":100,"beat":2.0,"subject_pos":-1,"motif":"","motif_pos":-1,"best_pos":2,"similarity":0.307,"stretto":false,"stretto_voices":0,"combination":[],"aug_dim":"","rhythm_ratio":1.0,"mirror":false,"chromatic_density":0.25,"complexity":0.507,"dissonance":0.179},{"voice":1,"pitch":70,"start":216.818,"duration":0.2727,"velocity":127,"measure":100,"beat":2.5,"subject_pos":-1,"motif":"","motif_pos":-1,"best_pos":3,"similarity":0.593,"stretto":false,"stretto_voices":0,"combination":[],"aug_dim":"","rhythm_ratio":1.0,"mirror":false,"chromatic_density":0.25,"complexity":0.507,"dissonance":0.179},{"voice":1,"pitch":69,"start":217.0907,"duration":0.2727,"velocity":127,"measure":100,"beat":3.0,"subject_pos":-1,"motif":"","motif_pos":-1,"best_pos":4,"similarity":0.479,"stretto":false,"stretto_voices":0,"combination":[],"aug_dim":"","rhythm_ratio":1.0,"mirror":false,"chromatic_density":0.25,"complexity":0.507,"dissonance":0.179},{"voice":3,"pitch":54,"start":217.0907,"duration":0.5455,"velocity":127,"measure":100,"beat":3.0,"subject_pos":-1,"motif":"","motif_pos":-1,"best_pos":3,"similarity":0.329,"stretto":false,"stretto_voices":0,"combination":[],"aug_dim":"","rhythm_ratio":1.0,"mirror":false,"chromatic_density":0.25,"complexity":0.507,"dissonance":0.179},{"voice":1,"pitch":67,"start":217.3634,"duration":0.2727,"velocity":127,"measure":100,"beat":3.5,"subject_pos":-1,"motif":"","motif_pos":-1,"best_pos":3,"similarity":0.521,"stretto":false,"stretto_voices":0,"combination":[],"aug_dim":"","rhythm_ratio":1.0,"mirror":false,"chromatic_density":0.25,"complexity":0.507,"dissonance":0.179},{"voice":1,"pitch":66,"start":217.6361,"duration":0.2727,"velocity":127,"measure":100,"beat":4.0,"subject_pos":-1,"motif":"","motif_pos":-1,"best_pos":4,"similarity":0.454,"stretto":false,"stretto_voices":0,"combination":[],"aug_dim":"","rhythm_ratio":1.0,"mirror":false,"chromatic_density":0.25,"complexity":0.507,"dissonance":0.179},{"voice":3,"pitch":50,"start":217.6361,"duration":0.5455,"velocity":127,"measure":100,"beat":4.0,"subject_pos":-1,"motif":"","motif_pos":-1,"best_pos":2,"similarity":0.371,"stretto":false,"stretto_voices":0,"combination":[],"aug_dim":"","rhythm_ratio":1.0,"mirror":false,"chromatic_density":0.25,"complexity":0.507,"dissonance":0.179},{"voice":1,"pitch":64,"start":217.9089,"duration":0.2727,"velocity":127,"measure":100,"beat":4.5,"subject_pos":-1,"motif":"","motif_pos":-1,"best_pos":2,"similarity":0.643,"stretto":false,"stretto_voices":0,"combination":[],"aug_dim":"","rhythm_ratio":1.0,"mirror":false,"chromatic_density":0.25,"complexity":0.507,"dissonance":0.179},{"voice":1,"pitch":62,"start":218.1816,"duration":0.2727,"velocity":127,"measure":101,"beat":1.0,"subject_pos":-1,"motif":"","motif_pos":-1,"best_pos":3,"similarity":0.786,"stretto":false,"stretto_voices":0,"combination":[],"aug_dim":"","rhythm_ratio":1.0,"mirror":false,"chromatic_density":0.25,"complexity":0.532,"dissonance":0.103},{"voice":2,"pitch":58,"start":218.1816,"duration":2.1818,"velocity":127,"measure":101,"beat":1.0,"subject_pos":2,"motif":"subject","motif_pos":2,"best_pos":2,"similarity":1.0,"stretto":false,"stretto_voices":0,"combination":[],"aug_dim":"augmentation","rhythm_ratio":4.35,"mirror":false,"chromatic_density":0.25,"complexity":0.532,"dissonance":0.103},{"voice":3,"pitch":55,"start":218.1816,"duration":1.0909,"velocity":127,"measure":101,"beat":1.0,"subject_pos":-1,"motif":"","motif_pos":-1,"best_pos":1,"similarity":0.45,"stretto":false,"stretto_voices":0,"combination":[],"aug_dim":"","rhythm_ratio":1.0,"mirror":false,"chromatic_density":0.25,"complexity":0.532,"dissonance":0.103},{"voice":1,"pitch":61,"start":218.4543,"duration":0.2727,"velocity":127,"measure":101,"beat":1.5,"subject_pos":-1,"motif":"","motif_pos":-1,"best_pos":4,"similarity":0.893,"stretto":false,"stretto_voices":0,"combination":[],"aug_dim":"","rhythm_ratio":1.0,"mirror":false,"chromatic_density":0.25,"complexity":0.532,"dissonance":0.103},{"voice":1,"pitch":62,"start":218.7271,"duration":0.2727,"velocity":127,"measure":101,"beat":2.0,"subject_pos":-1,"motif":"","motif_pos":-1,"best_pos":5,"similarity":0.821,"stretto":false,"stretto_voices":0,"combination":[],"aug_dim":"","rhythm_ratio":1.0,"mirror":false,"chromatic_density":0.25,"complexity":0.532,"dissonance":0.103},{"voice":1,"pitch":64,"start":218.9998,"duration":0.2727,"velocity":127,"measure":101,"beat":2.5,"subject_pos":-1,"motif":"","motif_pos":-1,"best_pos":6,"similarity":0.643,"stretto":false,"stretto_voices":0,"combination":[],"aug_dim":"","rhythm_ratio":1.0,"mirror":false,"chromatic_density":0.25,"complexity":0.532,"dissonance":0.103},{"voice":0,"pitch":70,"start":219.2725,"duration":1.6364,"velocity":127,"measure":101,"beat":3.0,"subject_pos":-1,"motif":"","motif_pos":-1,"best_pos":5,"similarity":0.621,"stretto":false,"stretto_voices":0,"combination":[],"aug_dim":"","rhythm_ratio":1.0,"mirror":false,"chromatic_density":0.25,"complexity":0.532,"dissonance":0.103},{"voice":1,"pitch":66,"start":219.2725,"duration":0.2727,"velocity":127,"measure":101,"beat":3.0,"subject_pos":-1,"motif":"","motif_pos":-1,"best_pos":6,"similarity":0.375,"stretto":false,"stretto_voices":0,"combination":[],"aug_dim":"","rhythm_ratio":1.0,"mirror":false,"chromatic_density":0.25,"complexity":0.532,"dissonance":0.103},{"voice":3,"pitch":50,"start":219.2725,"duration":1.0909,"velocity":127,"measure":101,"beat":3.0,"subject_pos":-1,"motif":"","motif_pos":-1,"best_pos":4,"similarity":0.546,"stretto":false,"stretto_voices":0,"combination":[],"aug_dim":"","rhythm_ratio":1.0,"mirror":false,"chromatic_density":0.25,"complexity":0.532,"dissonance":0.103},{"voice":1,"pitch":62,"start":219.5452,"duration":0.2727,"velocity":127,"measure":101,"beat":3.5,"subject_pos":-1,"motif":"","motif_pos":-1,"best_pos":4,"similarity":0.393,"stretto":false,"stretto_voices":0,"combination":[],"aug_dim":"","rhythm_ratio":1.0,"mirror":false,"chromatic_density":0.25,"complexity":0.532,"dissonance":0.103},{"voice":1,"pitch":64,"start":219.818,"duration":0.2727,"velocity":127,"measure":101,"beat":4.0,"subject_pos":-1,"motif":"","motif_pos":-1,"best_pos":5,"similarity":0.586,"stretto":false,"stretto_voices":0,"combination":[],"aug_dim":"","rhythm_ratio":1.0,"mirror":false,"chromatic_density":0.25,"complexity":0.532,"dissonance":0.103},{"voice":1,"pitch":66,"start":220.0907,"duration":0.2727,"velocity":127,"measure":101,"beat":4.5,"subject_pos":-1,"motif":"","motif_pos":-1,"best_pos":6,"similarity":0.65,"stretto":false,"stretto_voices":0,"combination":[],"aug_dim":"","rhythm_ratio":1.0,"mirror":false,"chromatic_density":0.25,"complexity":0.532,"dissonance":0.103},{"voice":1,"pitch":67,"start":220.3634,"duration":0.2727,"velocity":127,"measure":102,"beat":1.0,"subject_pos":-1,"motif":"tail","motif_pos":3,"best_pos":3,"similarity":1.0,"stretto":false,"stretto_voices":0,"combination":[],"aug_dim":"","rhythm_ratio":1.0,"mirror":false,"chromatic_density":0.667,"complexity":0.583,"dissonance":0.226},{"voice":2,"pitch":55,"start":220.3634,"duration":2.1818,"velocity":127,"measure":102,"beat":1.0,"subject_pos":3,"motif":"subject","motif_pos":3,"best_pos":3,"similarity":1.0,"stretto":false,"stretto_voices":0,"combination":[],"aug_dim":"augmentation","rhythm_ratio":4.35,"mirror":false,"chromatic_density":0.667,"complexity":0.583,"dissonance":0.226},{"voice":3,"pitch":51,"start":220.3634,"duration":0.5455,"velocity":127,"measure":102,"beat":1.0,"subject_pos":-1,"motif":"","motif_pos":-1,"best_pos":5,"similarity":0.621,"stretto":false,"stretto_voices":0,"combination":[],"aug_dim":"","rhythm_ratio":1.0,"mirror":false,"chromatic_density":0.667,"complexity":0.583,"dissonance":0.226},{"voice":1,"pitch":66,"start":220.6361,"duration":0.2727,"velocity":127,"measure":102,"beat":1.5,"subject_pos":-1,"motif":"tail","motif_pos":4,"best_pos":4,"similarity":1.0,"stretto":false,"stretto_voices":0,"combination":[],"aug_dim":"","rhythm_ratio":1.0,"mirror":false,"chromatic_density":0.667,"complexity":0.583,"dissonance":0.226},{"voice":0,"pitch":71,"start":220.9089,"duration":0.5455,"velocity":127,"measure":102,"beat":2.0,"subject_pos":-1,"motif":"","motif_pos":-1,"best_pos":5,"similarity":0.607,"stretto":false,"stretto_voices":0,"combination":[],"aug_dim":"","rhythm_ratio":1.0,"mirror":false,"chromatic_density":0.667,"complexity":0.583,"dissonance":0.226},{"voice":1,"pitch":67,"start":220.9089,"duration":0.2727,"velocity":127,"measure":102,"beat":2.0,"subject_pos":-1,"motif":"tail","motif_pos":5,"best_pos":5,"similarity":1.0,"stretto":false,"stretto_voices":0,"combination":[],"aug_dim":"","rhythm_ratio":1.0,"mirror":false,"chromatic_density":0.667,"complexity":0.583,"dissonance":0.226},{"voice":3,"pitch":53,"start":220.9089,"duration":0.5455,"velocity":127,"measure":102,"beat":2.0,"subject_pos":-1,"motif":"","motif_pos":-1,"best_pos":6,"similarity":0.507,"stretto":false,"stretto_voices":0,"combination":[],"aug_dim":"","rhythm_ratio":1.0,"mirror":false,"chromatic_density":0.667,"complexity":0.583,"dissonance":0.226},{"voice":1,"pitch":69,"start":221.1816,"duration":0.2727,"velocity":127,"measure":102,"beat":2.5,"subject_pos":-1,"motif":"tail","motif_pos":6,"best_pos":6,"similarity":1.0,"stretto":false,"stretto_voices":0,"combination":[],"aug_dim":"","rhythm_ratio":1.0,"mirror":false,"chromatic_density":0.667,"complexity":0.583,"dissonance":0.226},{"voice":0,"pitch":72,"start":221.4543,"duration":0.5455,"velocity":127,"measure":102,"beat":3.0,"subject_pos":-1,"motif":"","motif_pos":-1,"best_pos":5,"similarity":0.614,"stretto":false,"stretto_voices":0,"combination":[],"aug_dim":"","rhythm_ratio":1.0,"mirror":false,"chromatic_density":0.667,"complexity":0.583,"dissonance":0.226},{"voice":1,"pitch":70,"start":221.4543,"duration":0.2727,"velocity":127,"measure":102,"beat":3.0,"subject_pos":-1,"motif":"tail","motif_pos":7,"best_pos":7,"similarity":1.0,"stretto":false,"stretto_voices":0,"combination":[],"aug_dim":"","rhythm_ratio":1.0,"mirror":false,"chromatic_density":0.667,"complexity":0.583,"dissonance":0.226},{"voice":3,"pitch":52,"start":221.4543,"duration":0.5455,"velocity":127,"measure":102,"beat":3.0,"subject_pos":-1,"motif":"","motif_pos":-1,"best_pos":3,"similarity":0.421,"stretto":false,"stretto_voices":0,"combination":[],"aug_dim":"","rhythm_ratio":1.0,"mirror":false,"chromatic_density":0.667,"complexity":0.583,"dissonance":0.226},{"voice":1,"pitch":67,"start":221.7271,"duration":0.2727,"velocity":127,"measure":102,"beat":3.5,"subject_pos":-1,"motif":"","motif_pos":-1,"best_pos":3,"similarity":0.496,"stretto":false,"stretto_voices":0,"combination":[],"aug_dim":"","rhythm_ratio":1.0,"mirror":false,"chromatic_density":0.667,"complexity":0.583,"dissonance":0.226},{"voice":0,"pitch":73,"start":221.9998,"duration":0.5455,"velocity":127,"measure":102,"beat":4.0,"subject_pos":-1,"motif":"","motif_pos":-1,"best_pos":6,"similarity":0.589,"stretto":false,"stretto_voices":0,"combination":[],"aug_dim":"","rhythm_ratio":1.0,"mirror":false,"chromatic_density":0.667,"complexity":0.583,"dissonance":0.226},{"voice":1,"pitch":69,"start":221.9998,"duration":0.2727,"velocity":127,"measure":102,"beat":4.0,"subject_pos":-1,"motif":"","motif_pos":-1,"best_pos":6,"similarity":0.604,"stretto":false,"stretto_voices":0,"combination":[],"aug_dim":"","rhythm_ratio":1.0,"mirror":false,"chromatic_density":0.667,"complexity":0.583,"dissonance":0.226},{"voice":3,"pitch":51,"start":221.9998,"duration":0.5455,"velocity":127,"measure":102,"beat":4.0,"subject_pos":-1,"motif":"","motif_pos":-1,"best_pos":3,"similarity":0.457,"stretto":false,"stretto_voices":0,"combination":[],"aug_dim":"","rhythm_ratio":1.0,"mirror":false,"chromatic_density":0.667,"complexity":0.583,"dissonance":0.226},{"voice":1,"pitch":70,"start":222.2725,"duration":0.2727,"velocity":127,"measure":102,"beat":4.5,"subject_pos":-1,"motif":"","motif_pos":-1,"best_pos":5,"similarity":0.479,"stretto":false,"stretto_voices":0,"combination":[],"aug_dim":"","rhythm_ratio":1.0,"mirror":false,"chromatic_density":0.667,"complexity":0.583,"dissonance":0.226},{"voice":1,"pitch":70,"start":222.5452,"duration":0.5455,"velocity":127,"measure":103,"beat":1.0,"subject_pos":-1,"motif":"","motif_pos":-1,"best_pos":3,"similarity":0.414,"stretto":false,"stretto_voices":0,"combination":[],"aug_dim":"","rhythm_ratio":1.0,"mirror":false,"chromatic_density":0.2,"complexity":0.525,"dissonance":0.136},{"voice":2,"pitch":54,"start":222.5452,"duration":2.1818,"velocity":127,"measure":103,"beat":1.0,"subject_pos":4,"motif":"subject","motif_pos":4,"best_pos":4,"similarity":1.0,"stretto":false,"stretto_voices":0,"combination":[],"aug_dim":"augmentation","rhythm_ratio":4.35,"mirror":false,"chromatic_density":0.2,"complexity":0.525,"dissonance":0.136},{"voice":3,"pitch":50,"start":222.5452,"duration":1.0909,"velocity":127,"measure":103,"beat":1.0,"subject_pos":-1,"motif":"","motif_pos":-1,"best_pos":1,"similarity":0.429,"stretto":false,"stretto_voices":0,"combination":[],"aug_dim":"","rhythm_ratio":1.0,"mirror":false,"chromatic_density":0.2,"complexity":0.525,"dissonance":0.136},{"voice":0,"pitch":74,"start":222.818,"duration":0.2727,"velocity":127,"measure":103,"beat":1.5,"subject_pos":-1,"motif":"","motif_pos":-1,"best_pos":7,"similarity":0.429,"stretto":false,"stretto_voices":0,"combination":[],"aug_dim":"","rhythm_ratio":1.0,"mirror":false,"chromatic_density":0.2,"complexity":0.525,"dissonance":0.136},{"voice":0,"pitch":72,"start":223.0907,"duration":0.2727,"velocity":127,"measure":103,"beat":2.0,"subject_pos":-1,"motif":"","motif_pos":-1,"best_pos":2,"similarity":0.493,"stretto":false,"stretto_voices":0,"combination":[],"aug_dim":"","rhythm_ratio":1.0,"mirror":false,"chromatic_density":0.2,"complexity":0.525,"dissonance":0.136},{"voice":1,"pitch":69,"start":223.0907,"duration":0.5455,"velocity":127,"measure":103,"beat":2.0,"subject_pos":-1,"motif":"","motif_pos":-1,"best_pos":4,"similarity":0.5,"stretto":false,"stretto_voices":0,"combination":[],"aug_dim":"","rhythm_ratio":1.0,"mirror":false,"chromatic_density":0.2,"complexity":0.525,"dissonance":0.136},{"voice":0,"pitch":70,"start":223.3634,"duration":0.2727,"velocity":127,"measure":103,"beat":2.5,"subject_pos":-1,"motif":"","motif_pos":-1,"best_pos":4,"similarity":0.507,"stretto":false,"stretto_voices":0,"combination":[],"aug_dim":"","rhythm_ratio":1.0,"mirror":false,"chromatic_density":0.2,"complexity":0.525,"dissonance":0.136},{"voice":0,"pitch":72,"start":223.6361,"duration":0.5455,"velocity":127,"measure":103,"beat":3.0,"subject_pos":-1,"motif":"","motif_pos":-1,"best_pos":5,"similarity":0.536,"stretto":false,"stretto_voices":0,"combination":[],"aug_dim":"","rhythm_ratio":1.0,"mirror":false,"chromatic_density":0.2,"complexity":0.525,"dissonance":0.136},{"voice":1,"pitch":69,"start":223.9089,"duration":0.2727,"velocity":127,"measure":103,"beat":3.5,"subject_pos":-1,"motif":"","motif_pos":-1,"best_pos":4,"similarity":0.439,"stretto":false,"stretto_voices":0,"combination":[],"aug_dim":"","rhythm_ratio":1.0,"mirror":false,"chromatic_density":0.2,"complexity":0.525,"dissonance":0.136},{"voice":3,"pitch":48,"start":223.9089,"duration":0.2727,"velocity":127,"measure":103,"beat":3.5,"subject_pos":-1,"motif":"","motif_pos":-1,"best_pos":2,"similarity":0.579,"stretto":false,"stretto_voices":0,"combination":[],"aug_dim":"","rhythm_ratio":1.0,"mirror":false,"chromatic_density":0.2,"complexity":0.525,"dissonance":0.136},{"voice":0,"pitch":74,"start":224.1816,"duration":0.5455,"velocity":127,"measure":103,"beat":4.0,"subject_pos":-1,"motif":"","motif_pos":-1,"best_pos":6,"similarity":0.393,"stretto":false,"stretto_voices":0,"combination":[],"aug_dim":"","rhythm_ratio":1.0,"mirror":false,"chromatic_density":0.2,"complexity":0.525,"dissonance":0.136},{"voice":1,"pitch":67,"start":224.1816,"duration":0.2727,"velocity":127,"measure":103,"beat":4.0,"subject_pos":-1,"motif":"","motif_pos":-1,"best_pos":5,"similarity":0.546,"stretto":false,"stretto_voices":0,"combination":[],"aug_dim":"","rhythm_ratio":1.0,"mirror":false,"chromatic_density":0.2,"complexity":0.525,"dissonance":0.136},{"voice":3,"pitch":46,"start":224.1816,"duration":0.2727,"velocity":127,"measure":103,"beat":4.0,"subject_pos":-1,"motif":"","motif_pos":-1,"best_pos":3,"similarity":0.586,"stretto":false,"stretto_voices":0,"combination":[],"aug_dim":"","rhythm_ratio":1.0,"mirror":false,"chromatic_density":0.2,"complexity":0.525,"dissonance":0.136},{"voice":1,"pitch":69,"start":224.4543,"duration":0.2727,"velocity":127,"measure":103,"beat":4.5,"subject_pos":-1,"motif":"","motif_pos":-1,"best_pos":6,"similarity":0.621,"stretto":false,"stretto_voices":0,"combination":[],"aug_dim":"","rhythm_ratio":1.0,"mirror":false,"chromatic_density":0.2,"complexity":0.525,"dissonance":0.136},{"voice":3,"pitch":45,"start":224.4543,"duration":0.2727,"velocity":127,"measure":103,"beat":4.5,"subject_pos":-1,"motif":"","motif_pos":-1,"best_pos":4,"similarity":0.475,"stretto":false,"stretto_voices":0,"combination":[],"aug_dim":"","rhythm_ratio":1.0,"mirror":false,"chromatic_density":0.2,"complexity":0.525,"dissonance":0.136},{"voice":0,"pitch":70,"start":224.727,"duration":0.5455,"velocity":127,"measure":104,"beat":1.0,"subject_pos":-1,"motif":"","motif_pos":-1,"best_pos":2,"similarity":0.379,"stretto":false,"stretto_voices":0,"combination":[],"aug_dim":"","rhythm_ratio":1.0,"mirror":false,"chromatic_density":0.091,"complexity":0.538,"dissonance":0.11},{"voice":1,"pitch":70,"start":224.727,"duration":0.2727,"velocity":127,"measure":104,"beat":1.0,"subject_pos":-1,"motif":"","motif_pos":-1,"best_pos":7,"similarity":0.436,"stretto":false,"stretto_voices":0,"combination":[],"aug_dim":"","rhythm_ratio":1.0,"mirror":false,"chromatic_density":0.091,"complexity":0.538,"dissonance":0.11},{"voice":2,"pitch":55,"start":224.727,"duration":1.0909,"velocity":127,"measure":104,"beat":1.0,"subject_pos":5,"motif":"subject","motif_pos":5,"best_pos":5,"similarity":1.0,"stretto":false,"stretto_voices":0,"combination":[],"aug_dim":"augmentation","rhythm_ratio":4.35,"mirror":false,"chromatic_density":0.091,"complexity":0.538,"dissonance":0.11},{"voice":3,"pitch":43,"start":224.727,"duration":0.5455,"velocity":127,"measure":104,"beat":1.0,"subject_pos":-1,"motif":"","motif_pos":-1,"best_pos":2,"similarity":0.436,"stretto":false,"stretto_voices":0,"combination":[],"aug_dim":"","rhythm_ratio":1.0,"mirror":false,"chromatic_density":0.091,"complexity":0.538,"dissonance":0.11},{"voice":1,"pitch":74,"start":224.9998,"duration":0.2727,"velocity":127,"measure":104,"beat":1.5,"subject_pos":-1,"motif":"","motif_pos":-1,"best_pos":1,"similarity":0.507,"stretto":false,"stretto_voices":0,"combination":[],"aug_dim":"","rhythm_ratio":1.0,"mirror":false,"chromatic_density":0.091,"complexity":0.538,"dissonance":0.11},{"voice":0,"pitch":79,"start":225.2725,"duration":1.0909,"velocity":127,"measure":104,"beat":2.0,"subject_pos":-1,"motif":"","motif_pos":-1,"best_pos":1,"similarity":0.5,"stretto":false,"stretto_voices":0,"combination":[],"aug_dim":"","rhythm_ratio":1.0,"mirror":false,"chromatic_density":0.091,"complexity":0.538,"dissonance":0.11},{"voice":1,"pitch":72,"start":225.2725,"duration":0.2727,"velocity":127,"measure":104,"beat":2.0,"subject_pos":-1,"motif":"","motif_pos":-1,"best_pos":2,"similarity":0.521,"stretto":false,"stretto_voices":0,"combination":[],"aug_dim":"","rhythm_ratio":1.0,"mirror":false,"chromatic_density":0.091,"complexity":0.538,"dissonance":0.11},{"voice":1,"pitch":70,"start":225.5452,"duration":0.2727,"velocity":127,"measure":104,"beat":2.5,"subject_pos":-1,"motif":"","motif_pos":-1,"best_pos":5,"similarity":0.4,"stretto":false,"stretto_voices":0,"combination":[],"aug_dim":"","rhythm_ratio":1.0,"mirror":false,"chromatic_density":0.091,"complexity":0.538,"dissonance":0.11},{"voice":1,"pitch":72,"start":225.818,"duration":0.2727,"velocity":127,"measure":104,"beat":3.0,"subject_pos":-1,"motif":"","motif_pos":-1,"best_pos":1,"similarity":0.386,"stretto":false,"stretto_voices":0,"combination":[],"aug_dim":"","rhythm_ratio":1.0,"mirror":false,"chromatic_density":0.091,"complexity":0.538,"dissonance":0.11},{"voice":2,"pitch":57,"start":225.818,"duration":1.0909,"velocity":127,"measure":104,"beat":3.0,"subject_pos":6,"motif":"subject","motif_pos":6,"best_pos":6,"similarity":1.0,"stretto":false,"stretto_voices":0,"combination":[],"aug_dim":"augmentation","rhythm_ratio":4.35,"mirror":false,"chromatic_density":0.091,"complexity":0.538,"dissonance":0.11},{"voice":1,"pitch":70,"start":226.0907,"duration":0.2727,"velocity":127,"measure":104,"beat":3.5,"subject_pos":-1,"motif":"","motif_pos":-1,"best_pos":3,"similarity":0.464,"stretto":false,"stretto_voices":0,"combination":[],"aug_dim":"","rhythm_ratio":1.0,"mirror":false,"chromatic_density":0.091,"complexity":0.538,"dissonance":0.11},{"voice":0,"pitch":77,"start":226.3634,"duration":0.2727,"velocity":127,"measure":104,"beat":4.0,"subject_pos":-1,"motif":"","motif_pos":-1,"best_pos":2,"similarity":0.679,"stretto":false,"stretto_voices":0,"combination":[],"aug_dim":"","rhythm_ratio":1.0,"mirror":false,"chromatic_density":0.091,"complexity":0.538,"dissonance":0.11},{"voice":1,"pitch":69,"start":226.3634,"duration":0.2727,"velocity":127,"measure":104,"beat":4.0,"subject_pos":-1,"motif":"","motif_pos":-1,"best_pos":4,"similarity":0.414,"stretto":false,"stretto_voices":0,"combination":[],"aug_dim":"","rhythm_ratio":1.0,"mirror":false,"chromatic_density":0.091,"complexity":0.538,"dissonance":0.11},{"voice":0,"pitch":75,"start":226.6361,"duration":0.2727,"velocity":127,"measure":104,"beat":4.5,"subject_pos":-1,"motif":"","motif_pos":-1,"best_pos":3,"similarity":0.804,"stretto":false,"stretto_voices":0,"combination":[],"aug_dim":"","rhythm_ratio":1.0,"mirror":false,"chromatic_density":0.091,"complexity":0.538,"dissonance":0.11},{"voice":1,"pitch":67,"start":226.6361,"duration":0.2727,"velocity":127,"measure":104,"beat":4.5,"subject_pos":-1,"motif":"","motif_pos":-1,"best_pos":2,"similarity":0.436,"stretto":false,"stretto_voices":0,"combination":[],"aug_dim":"","rhythm_ratio":1.0,"mirror":false,"chromatic_density":0.091,"complexity":0.538,"dissonance":0.11},{"voice":0,"pitch":74,"start":226.9089,"duration":0.5455,"velocity":127,"measure":105,"beat":1.0,"subject_pos":-1,"motif":"","motif_pos":-1,"best_pos":4,"similarity":0.857,"stretto":false,"stretto_voices":0,"combination":[],"aug_dim":"","rhythm_ratio":1.0,"mirror":false,"chromatic_density":0.455,"complexity":0.55,"dissonance":0.105},{"voice":1,"pitch":65,"start":226.9089,"duration":0.2727,"velocity":127,"measure":105,"beat":1.0,"subject_pos":-1,"motif":"","motif_pos":-1,"best_pos":0,"similarity":0.446,"stretto":false,"stretto_voices":0,"combination":[],"aug_dim":"","rhythm_ratio":1.0,"mirror":false,"chromatic_density":0.455,"complexity":0.55,"dissonance":0.105},{"voice":2,"pitch":58,"start":226.9089,"duration":2.7273,"velocity":127,"measure":105,"beat":1.0,"subject_pos":7,"motif":"subject","motif_pos":7,"best_pos":7,"similarity":1.0,"stretto":false,"stretto_voices":0,"combination":[],"aug_dim":"augmentation","rhythm_ratio":4.35,"mirror":false,"chromatic_density":0.455,"complexity":0.55,"dissonance":0.105},{"voice":1,"pitch":70,"start":227.1816,"duration":0.2727,"velocity":127,"measure":105,"beat":1.5,"subject_pos":-1,"motif":"","motif_pos":-1,"best_pos":1,"similarity":0.625,"stretto":false,"stretto_voices":0,"combination":[],"aug_dim":"","rhythm_ratio":1.0,"mirror":false,"chromatic_density":0.455,"complexity":0.55,"dissonance":0.105},{"voice":0,"pitch":75,"start":227.4543,"duration":0.5455,"velocity":127,"measure":105,"beat":2.0,"subject_pos":-1,"motif":"","motif_pos":-1,"best_pos":5,"similarity":0.75,"stretto":false,"stretto_voices":0,"combination":[],"aug_dim":"","rhythm_ratio":1.0,"mirror":false,"chromatic_density":0.455,"complexity":0.55,"dissonance":0.105},{"voice":1,"pitch":68,"start":227.4543,"duration":0.2727,"velocity":127,"measure":105,"beat":2.0,"subject_pos":-1,"motif":"","motif_pos":-1,"best_pos":3,"similarity":0.579,"stretto":false,"stretto_voices":0,"combination":[],"aug_dim":"","rhythm_ratio":1.0,"mirror":false,"chromatic_density":0.455,"complexity":0.55,"dissonance":0.105},{"voice":3,"pitch":51,"start":227.4543,"duration":0.5455,"velocity":127,"measure":105,"beat":2.0,"subject_pos":-1,"motif":"enigmatic_cell","motif_pos":0,"best_pos":0,"similarity":1.0,"stretto":false,"stretto_voices":0,"combination":[],"aug_dim":"","rhythm_ratio":1.0,"mirror":false,"chromatic_density":0.455,"complexity":0.55,"dissonance":0.105},{"voice":1,"pitch":67,"start":227.727,"duration":0.2727,"velocity":127,"measure":105,"beat":2.5,"subject_pos":-1,"motif":"","motif_pos":-1,"best_pos":4,"similarity":0.664,"stretto":false,"stretto_voices":0,"combination":[],"aug_dim":"","rhythm_ratio":1.0,"mirror":false,"chromatic_density":0.455,"complexity":0.55,"dissonance":0.105},{"voice":0,"pitch":77,"start":227.9998,"duration":0.5455,"velocity":127,"measure":105,"beat":3.0,"subject_pos":-1,"motif":"","motif_pos":-1,"best_pos":6,"similarity":0.5,"stretto":false,"stretto_voices":0,"combination":[],"aug_dim":"","rhythm_ratio":1.0,"mirror":false,"chromatic_density":0.455,"complexity":0.55,"dissonance":0.105},{"voice":1,"pitch":68,"start":227.9998,"duration":0.2727,"velocity":127,"measure":105,"beat":3.0,"subject_pos":-1,"motif":"","motif_pos":-1,"best_pos":5,"similarity":0.507,"stretto":false,"stretto_voices":0,"combination":[],"aug_dim":"","rhythm_ratio":1.0,"mirror":false,"chromatic_density":0.455,"complexity":0.55,"dissonance":0.105},{"voice":3,"pitch":50,"start":227.9998,"duration":0.5455,"velocity":127,"measure":105,"beat":3.0,"subject_pos":-1,"motif":"enigmatic_cell","motif_pos":1,"best_pos":1,"similarity":1.0,"stretto":false,"stretto_voices":0,"combination":[],"aug_dim":"","rhythm_ratio":1.0,"mirror":false,"chromatic_density":0.455,"complexity":0.55,"dissonance":0.105},{"voice":1,"pitch":67,"start":228.2725,"duration":0.2727,"velocity":127,"measure":105,"beat":3.5,"subject_pos":-1,"motif":"","motif_pos":-1,"best_pos":1,"similarity":0.429,"stretto":false,"stretto_voices":0,"combination":[],"aug_dim":"","rhythm_ratio":1.0,"mirror":false,"chromatic_density":0.455,"complexity":0.55,"dissonance":0.105},{"voice":1,"pitch":65,"start":228.5452,"duration":0.2727,"velocity":127,"measure":105,"beat":4.0,"subject_pos":-1,"motif":"","motif_pos":-1,"best_pos":2,"similarity":0.643,"stretto":false,"stretto_voices":0,"combination":[],"aug_dim":"","rhythm_ratio":1.0,"mirror":false,"chromatic_density":0.455,"complexity":0.55,"dissonance":0.105},{"voice":3,"pitch":55,"start":228.5452,"duration":0.5455,"velocity":127,"measure":105,"beat":4.0,"subject_pos":-1,"motif":"enigmatic_cell","motif_pos":2,"best_pos":2,"similarity":1.0,"stretto":false,"stretto_voices":0,"combination":[],"aug_dim":"","rhythm_ratio":1.0,"mirror":false,"chromatic_density":0.455,"complexity":0.55,"dissonance":0.105},{"voice":1,"pitch":63,"start":228.818,"duration":0.2727,"velocity":127,"measure":105,"beat":4.5,"subject_pos":-1,"motif":"","motif_pos":-1,"best_pos":3,"similarity":0.786,"stretto":false,"stretto_voices":0,"combination":[],"aug_dim":"","rhythm_ratio":1.0,"mirror":false,"chromatic_density":0.455,"complexity":0.55,"dissonance":0.105},{"voice":1,"pitch":62,"start":229.0907,"duration":1.0909,"velocity":127,"measure":106,"beat":1.0,"subject_pos":-1,"motif":"","motif_pos":-1,"best_pos":4,"similarity":0.857,"stretto":false,"stretto_voices":0,"combination":[],"aug_dim":"","rhythm_ratio":1.0,"mirror":false,"chromatic_density":0.273,"complexity":0.414,"dissonance":0.155},{"voice":3,"pitch":53,"start":229.0907,"duration":0.2727,"velocity":127,"measure":106,"beat":1.0,"subject_pos":-1,"motif":"","motif_pos":-1,"best_pos":2,"similarity":0.579,"stretto":false,"stretto_voices":0,"combination":[],"aug_dim":"","rhythm_ratio":1.0,"mirror":false,"chromatic_density":0.273,"complexity":0.414,"dissonance":0.155},{"voice":3,"pitch":56,"start":229.3634,"duration":0.2727,"velocity":127,"measure":106,"beat":1.5,"subject_pos":-1,"motif":"","motif_pos":-1,"best_pos":3,"similarity":0.586,"stretto":false,"stretto_voices":0,"combination":[],"aug_dim":"","rhythm_ratio":1.0,"mirror":false,"chromatic_density":0.273,"complexity":0.414,"dissonance":0.155},{"voice":2,"pitch":60,"start":229.6361,"duration":0.5455,"velocity":127,"measure":106,"beat":2.0,"subject_pos":-1,"motif":"","motif_pos":-1,"best_pos":6,"similarity":0.464,"stretto":false,"stretto_voices":0,"combination":[],"aug_dim":"","rhythm_ratio":1.0,"mirror":false,"chromatic_density":0.273,"complexity":0.414,"dissonance":0.155},{"voice":3,"pitch":55,"start":229.6361,"duration":0.2727,"velocity":127,"measure":106,"beat":2.0,"subject_pos":-1,"motif":"","motif_pos":-1,"best_pos":4,"similarity":0.536,"stretto":false,"stretto_voices":0,"combination":[],"aug_dim":"","rhythm_ratio":1.0,"mirror":false,"chromatic_density":0.273,"complexity":0.414,"dissonance":0.155},{"voice":3,"pitch":53,"start":229.9089,"duration":0.2727,"velocity":127,"measure":106,"beat":2.5,"subject_pos":-1,"motif":"","motif_pos":-1,"best_pos":5,"similarity":0.471,"stretto":false,"stretto_voices":0,"combination":[],"aug_dim":"","rhythm_ratio":1.0,"mirror":false,"chromatic_density":0.273,"complexity":0.414,"dissonance":0.155},{"voice":1,"pitch":63,"start":230.1816,"duration":0.5455,"velocity":127,"measure":106,"beat":3.0,"subject_pos":-1,"motif":"","motif_pos":-1,"best_pos":5,"similarity":0.75,"stretto":false,"stretto_voices":0,"combination":[],"aug_dim":"","rhythm_ratio":1.0,"mirror":false,"chromatic_density":0.273,"complexity":0.414,"dissonance":0.155},{"voice":2,"pitch":58,"start":230.1816,"duration":0.5455,"velocity":127,"measure":106,"beat":3.0,"subject_pos":-1,"motif":"","motif_pos":-1,"best_pos":2,"similarity":0.621,"stretto":false,"stretto_voices":0,"combination":[],"aug_dim":"","rhythm_ratio":1.0,"mirror":false,"chromatic_density":0.273,"complexity":0.414,"dissonance":0.155},{"voice":3,"pitch":55,"start":230.1816,"duration":0.2727,"velocity":127,"measure":106,"beat":3.0,"subject_pos":-1,"motif":"","motif_pos":-1,"best_pos":1,"similarity":0.457,"stretto":false,"stretto_voices":0,"combination":[],"aug_dim":"","rhythm_ratio":1.0,"mirror":false,"chromatic_density":0.273,"complexity":0.414,"dissonance":0.155},{"voice":3,"pitch":53,"start":230.4543,"duration":0.2727,"velocity":127,"measure":106,"beat":3.5,"subject_pos":-1,"motif":"","motif_pos":-1,"best_pos":2,"similarity":0.657,"stretto":false,"stretto_voices":0,"combination":[],"aug_dim":"","rhythm_ratio":1.0,"mirror":false,"chromatic_density":0.273,"complexity":0.414,"dissonance":0.155},{"voice":1,"pitch":65,"start":230.727,"duration":0.5455,"velocity":127,"measure":106,"beat":4.0,"subject_pos":-1,"motif":"","motif_pos":-1,"best_pos":6,"similarity":0.5,"stretto":false,"stretto_voices":0,"combination":[],"aug_dim":"","rhythm_ratio":1.0,"mirror":false,"chromatic_density":0.273,"complexity":0.414,"dissonance":0.155},{"voice":2,"pitch":56,"start":230.727,"duration":0.5455,"velocity":127,"measure":106,"beat":4.0,"subject_pos":-1,"motif":"","motif_pos":-1,"best_pos":3,"similarity":0.721,"stretto":false,"stretto_voices":0,"combination":[],"aug_dim":"","rhythm_ratio":1.0,"mirror":false,"chromatic_density":0.273,"complexity":0.414,"dissonance":0.155},{"voice":3,"pitch":51,"start":230.727,"duration":0.2727,"velocity":127,"measure":106,"beat":4.0,"subject_pos":-1,"motif":"","motif_pos":-1,"best_pos":3,"similarity":0.793,"stretto":false,"stretto_voices":0,"combination":[],"aug_dim":"","rhythm_ratio":1.0,"mirror":false,"chromatic_density":0.273,"complexity":0.414,"dissonance":0.155},{"voice":3,"pitch":50,"start":230.9998,"duration":0.2727,"velocity":127,"measure":106,"beat":4.5,"subject_pos":-1,"motif":"","motif_pos":-1,"best_pos":4,"similarity":0.864,"stretto":false,"stretto_voices":0,"combination":[],"aug_dim":"","rhythm_ratio":1.0,"mirror":false,"chromatic_density":0.273,"complexity":0.414,"dissonance":0.155},{"voice":1,"pitch":58,"start":231.2725,"duration":0.5455,"velocity":127,"measure":107,"beat":1.0,"subject_pos":-1,"motif":"","motif_pos":-1,"best_pos":4,"similarity":0.4,"stretto":false,"stretto_voices":0,"combination":[],"aug_dim":"","rhythm_ratio":1.0,"mirror":false,"chromatic_density":0.6,"complexity":0.483,"dissonance":0.042},{"voice":2,"pitch":55,"start":231.2725,"duration":2.7273,"velocity":127,"measure":107,"beat":1.0,"subject_pos":-1,"motif":"","motif_pos":-1,"best_pos":4,"similarity":0.786,"stretto":false,"stretto_voices":0,"combination":[],"aug_dim":"","rhythm_ratio":1.0,"mirror":false,"chromatic_density":0.6,"complexity":0.483,"dissonance":0.042},{"voice":3,"pitch":51,"start":231.2725,"duration":0.2727,"velocity":127,"measure":107,"beat":1.0,"subject_pos":-1,"motif":"","motif_pos":-1,"best_pos":5,"similarity":0.764,"stretto":false,"stretto_voices":0,"combination":[],"aug_dim":"","rhythm_ratio":1.0,"mirror":false,"chromatic_density":0.6,"complexity":0.483,"dissonance":0.042},{"voice":3,"pitch":53,"start":231.5452,"duration":0.2727,"velocity":127,"measure":107,"beat":1.5,"subject_pos":-1,"motif":"","motif_pos":-1,"best_pos":6,"similarity":0.529,"stretto":false,"stretto_voices":0,"combination":[],"aug_dim":"","rhythm_ratio":1.0,"mirror":false,"chromatic_density":0.6,"complexity":0.483,"dissonance":0.042},{"voice":1,"pitch":59,"start":231.8179,"duration":0.5455,"velocity":127,"measure":107,"beat":2.0,"subject_pos":-1,"motif":"","motif_pos":-1,"best_pos":4,"similarity":0.593,"stretto":false,"stretto_voices":0,"combination":[],"aug_dim":"","rhythm_ratio":1.0,"mirror":false,"chromatic_density":0.6,"complexity":0.483,"dissonance":0.042},{"voice":3,"pitch":51,"start":231.8179,"duration":0.2727,"velocity":127,"measure":107,"beat":2.0,"subject_pos":-1,"motif":"","motif_pos":-1,"best_pos":3,"similarity":0.6,"stretto":false,"stretto_voices":0,"combination":[],"aug_dim":"","rhythm_ratio":1.0,"mirror":false,"chromatic_density":0.6,"complexity":0.483,"dissonance":0.042},{"voice":3,"pitch":50,"start":232.0907,"duration":0.2727,"velocity":127,"measure":107,"beat":2.5,"subject_pos":-1,"motif":"tail_inv","motif_pos":0,"best_pos":0,"similarity":1.0,"stretto":false,"stretto_voices":0,"combination":[],"aug_dim":"","rhythm_ratio":1.0,"mirror":false,"chromatic_density":0.6,"complexity":0.483,"dissonance":0.042},{"voice":1,"pitch":60,"start":232.3634,"duration":0.5455,"velocity":127,"measure":107,"beat":3.0,"subject_pos":-1,"motif":"","motif_pos":-1,"best_pos":5,"similarity":0.757,"stretto":false,"stretto_voices":0,"combination":[],"aug_dim":"","rhythm_ratio":1.0,"mirror":false,"chromatic_density":0.6,"complexity":0.483,"dissonance":0.042},{"voice":3,"pitch":51,"start":232.3634,"duration":0.2727,"velocity":127,"measure":107,"beat":3.0,"subject_pos":-1,"motif":"tail_inv","motif_pos":1,"best_pos":1,"similarity":1.0,"stretto":false,"stretto_voices":0,"combination":[],"aug_dim":"","rhythm_ratio":1.0,"mirror":false,"chromatic_density":0.6,"complexity":0.483,"dissonance":0.042},{"voice":3,"pitch":50,"start":232.6361,"duration":0.2727,"velocity":127,"measure":107,"beat":3.5,"subject_pos":-1,"motif":"tail_inv","motif_pos":2,"best_pos":2,"similarity":1.0,"stretto":false,"stretto_voices":0,"combination":[],"aug_dim":"","rhythm_ratio":1.0,"mirror":false,"chromatic_density":0.6,"complexity":0.483,"dissonance":0.042},{"voice":1,"pitch":62,"start":232.9089,"duration":0.5455,"velocity":127,"measure":107,"beat":4.0,"subject_pos":-1,"motif":"","motif_pos":-1,"best_pos":6,"similarity":0.732,"stretto":false,"stretto_voices":0,"combination":[],"aug_dim":"","rhythm_ratio":1.0,"mirror":false,"chromatic_density":0.6,"complexity":0.483,"dissonance":0.042},{"voice":3,"pitch":48,"start":232.9089,"duration":0.2727,"velocity":127,"measure":107,"beat":4.0,"subject_pos":-1,"motif":"tail_inv","motif_pos":3,"best_pos":3,"similarity":1.0,"stretto":false,"stretto_voices":0,"combination":[],"aug_dim":"","rhythm_ratio":1.0,"mirror":false,"chromatic_density":0.6,"complexity":0.483,"dissonance":0.042},{"voice":3,"pitch":47,"start":233.1816,"duration":0.2727,"velocity":127,"measure":107,"beat":4.5,"subject_pos":-1,"motif":"tail_inv","motif_pos":4,"best_pos":4,"similarity":1.0,"stretto":false,"stretto_voices":0,"combination":[],"aug_dim":"","rhythm_ratio":1.0,"mirror":false,"chromatic_density":0.6,"complexity":0.483,"dissonance":0.042},{"voice":1,"pitch":63,"start":233.4543,"duration":2.4545,"velocity":127,"measure":108,"beat":1.0,"subject_pos":-1,"motif":"","motif_pos":-1,"best_pos":7,"similarity":0.5,"stretto":false,"stretto_voices":0,"combination":[],"aug_dim":"","rhythm_ratio":1.0,"mirror":false,"chromatic_density":0.222,"complexity":0.38,"dissonance":0.23},{"voice":3,"pitch":48,"start":233.4543,"duration":0.2727,"velocity":127,"measure":108,"beat":1.0,"subject_pos":-1,"motif":"","motif_pos":-1,"best_pos":5,"similarity":0.764,"stretto":false,"stretto_voices":0,"combination":[],"aug_dim":"","rhythm_ratio":1.0,"mirror":false,"chromatic_density":0.222,"complexity":0.38,"dissonance":0.23},{"voice":3,"pitch":50,"start":233.727,"duration":0.2727,"velocity":127,"measure":108,"beat":1.5,"subject_pos":-1,"motif":"","motif_pos":-1,"best_pos":6,"similarity":0.529,"stretto":false,"stretto_voices":0,"combination":[],"aug_dim":"","rhythm_ratio":1.0,"mirror":false,"chromatic_density":0.222,"complexity":0.38,"dissonance":0.23},{"voice":2,"pitch":55,"start":233.9998,"duration":0.5455,"velocity":127,"measure":108,"beat":2.0,"subject_pos":-1,"motif":"","motif_pos":-1,"best_pos":5,"similarity":0.75,"stretto":false,"stretto_voices":0,"combination":[],"aug_dim":"","rhythm_ratio":1.0,"mirror":false,"chromatic_density":0.222,"complexity":0.38,"dissonance":0.23},{"voice":3,"pitch":48,"start":233.9998,"duration":0.2727,"velocity":127,"measure":108,"beat":2.0,"subject_pos":-1,"motif":"","motif_pos":-1,"best_pos":2,"similarity":0.464,"stretto":false,"stretto_voices":0,"combination":[],"aug_dim":"","rhythm_ratio":1.0,"mirror":false,"chromatic_density":0.222,"complexity":0.38,"dissonance":0.23},{"voice":3,"pitch":46,"start":234.2725,"duration":0.2727,"velocity":127,"measure":108,"beat":2.5,"subject_pos":-1,"motif":"","motif_pos":-1,"best_pos":5,"similarity":0.4,"stretto":false,"stretto_voices":0,"combination":[],"aug_dim":"","rhythm_ratio":1.0,"mirror":false,"chromatic_density":0.222,"complexity":0.38,"dissonance":0.23},{"voice":2,"pitch":57,"start":234.5452,"duration":0.5455,"velocity":127,"measure":108,"beat":3.0,"subject_pos":-1,"motif":"","motif_pos":-1,"best_pos":6,"similarity":0.714,"stretto":false,"stretto_voices":0,"combination":[],"aug_dim":"","rhythm_ratio":1.0,"mirror":false,"chromatic_density":0.222,"complexity":0.38,"dissonance":0.23},{"voice":3,"pitch":48,"start":234.5452,"duration":0.2727,"velocity":127,"measure":108,"beat":3.0,"subject_pos":-1,"motif":"","motif_pos":-1,"best_pos":1,"similarity":0.386,"stretto":false,"stretto_voices":0,"combination":[],"aug_dim":"","rhythm_ratio":1.0,"mirror":false,"chromatic_density":0.222,"complexity":0.38,"dissonance":0.23},{"voice":3,"pitch":46,"start":234.8179,"duration":0.2727,"velocity":127,"measure":108,"beat":3.5,"subject_pos":-1,"motif":"","motif_pos":-1,"best_pos":3,"similarity":0.529,"stretto":false,"stretto_voices":0,"combination":[],"aug_dim":"","rhythm_ratio":1.0,"mirror":false,"chromatic_density":0.222,"complexity":0.38,"dissonance":0.23},{"voice":2,"pitch":58,"start":235.0907,"duration":0.5455,"velocity":127,"measure":108,"beat":4.0,"subject_pos":-1,"motif":"","motif_pos":-1,"best_pos":5,"similarity":0.629,"stretto":false,"stretto_voices":0,"combination":[],"aug_dim":"","rhythm_ratio":1.0,"mirror":false,"chromatic_density":0.222,"complexity":0.38,"dissonance":0.23},{"voice":3,"pitch":45,"start":235.0907,"duration":0.2727,"velocity":127,"measure":108,"beat":4.0,"subject_pos":-1,"motif":"","motif_pos":-1,"best_pos":4,"similarity":0.607,"stretto":false,"stretto_voices":0,"combination":[],"aug_dim":"","rhythm_ratio":1.0,"mirror":false,"chromatic_density":0.222,"complexity":0.38,"dissonance":0.23},{"voice":3,"pitch":43,"start":235.3634,"duration":0.2727,"velocity":127,"measure":108,"beat":4.5,"subject_pos":-1,"motif":"","motif_pos":-1,"best_pos":5,"similarity":0.636,"stretto":false,"stretto_voices":0,"combination":[],"aug_dim":"","rhythm_ratio":1.0,"mirror":false,"chromatic_density":0.222,"complexity":0.38,"dissonance":0.23},{"voice":2,"pitch":60,"start":235.6361,"duration":2.4545,"velocity":127,"measure":109,"beat":1.0,"subject_pos":-1,"motif":"","motif_pos":-1,"best_pos":6,"similarity":0.507,"stretto":false,"stretto_voices":0,"combination":[],"aug_dim":"","rhythm_ratio":1.0,"mirror":false,"chromatic_density":0.308,"complexity":0.38,"dissonance":0.082},{"voice":3,"pitch":45,"start":235.6361,"duration":0.2727,"velocity":127,"measure":109,"beat":1.0,"subject_pos":-1,"motif":"","motif_pos":-1,"best_pos":6,"similarity":0.657,"stretto":false,"stretto_voices":0,"combination":[],"aug_dim":"","rhythm_ratio":1.0,"mirror":false,"chromatic_density":0.308,"complexity":0.38,"dissonance":0.082},{"voice":1,"pitch":67,"start":235.9089,"duration":0.2727,"velocity":127,"measure":109,"beat":1.5,"subject_pos":-1,"motif":"","motif_pos":-1,"best_pos":1,"similarity":0.507,"stretto":false,"stretto_voices":0,"combination":[],"aug_dim":"","rhythm_ratio":1.0,"mirror":false,"chromatic_density":0.308,"complexity":0.38,"dissonance":0.082},{"voice":3,"pitch":46,"start":235.9089,"duration":0.2727,"velocity":127,"measure":109,"beat":1.5,"subject_pos":-1,"motif":"","motif_pos":-1,"best_pos":7,"similarity":0.436,"stretto":false,"stretto_voices":0,"combination":[],"aug_dim":"","rhythm_ratio":1.0,"mirror":false,"chromatic_density":0.308,"complexity":0.38,"dissonance":0.082},{"voice":1,"pitch":65,"start":236.1816,"duration":0.2727,"velocity":127,"measure":109,"beat":2.0,"subject_pos":-1,"motif":"","motif_pos":-1,"best_pos":2,"similarity":0.521,"stretto":false,"stretto_voices":0,"combination":[],"aug_dim":"","rhythm_ratio":1.0,"mirror":false,"chromatic_density":0.308,"complexity":0.38,"dissonance":0.082},{"voice":3,"pitch":45,"start":236.1816,"duration":0.2727,"velocity":127,"measure":109,"beat":2.0,"subject_pos":-1,"motif":"","motif_pos":-1,"best_pos":4,"similarity":0.486,"stretto":false,"stretto_voices":0,"combination":[],"aug_dim":"","rhythm_ratio":1.0,"mirror":false,"chromatic_density":0.308,"complexity":0.38,"dissonance":0.082},{"voice":1,"pitch":63,"start":236.4543,"duration":0.2727,"velocity":127,"measure":109,"beat":2.5,"subject_pos":-1,"motif":"","motif_pos":-1,"best_pos":5,"similarity":0.4,"stretto":false,"stretto_voices":0,"combination":[],"aug_dim":"","rhythm_ratio":1.0,"mirror":false,"chromatic_density":0.308,"complexity":0.38,"dissonance":0.082},{"voice":3,"pitch":43,"start":236.4543,"duration":0.2727,"velocity":127,"measure":109,"beat":2.5,"subject_pos":-1,"motif":"","motif_pos":-1,"best_pos":5,"similarity":0.479,"stretto":false,"stretto_voices":0,"combination":[],"aug_dim":"","rhythm_ratio":1.0,"mirror":false,"chromatic_density":0.308,"complexity":0.38,"dissonance":0.082},{"voice":1,"pitch":65,"start":236.727,"duration":0.2727,"velocity":127,"measure":109,"beat":3.0,"subject_pos":-1,"motif":"","motif_pos":-1,"best_pos":1,"similarity":0.386,"stretto":false,"stretto_voices":0,"combination":[],"aug_dim":"","rhythm_ratio":1.0,"mirror":false,"chromatic_density":0.308,"complexity":0.38,"dissonance":0.082},{"voice":3,"pitch":45,"start":236.727,"duration":0.2727,"velocity":127,"measure":109,"beat":3.0,"subject_pos":-1,"motif":"","motif_pos":-1,"best_pos":6,"similarity":0.4,"stretto":false,"stretto_voices":0,"combination":[],"aug_dim":"","rhythm_ratio":1.0,"mirror":false,"chromatic_density":0.308,"complexity":0.38,"dissonance":0.082},{"voice":1,"pitch":63,"start":236.9998,"duration":0.2727,"velocity":127,"measure":109,"beat":3.5,"subject_pos":-1,"motif":"","motif_pos":-1,"best_pos":3,"similarity":0.457,"stretto":false,"stretto_voices":0,"combination":[],"aug_dim":"","rhythm_ratio":1.0,"mirror":false,"chromatic_density":0.308,"complexity":0.38,"dissonance":0.082},{"voice":3,"pitch":43,"start":236.9998,"duration":0.2727,"velocity":127,"measure":109,"beat":3.5,"subject_pos":-1,"motif":"","motif_pos":-1,"best_pos":3,"similarity":0.529,"stretto":false,"stretto_voices":0,"combination":[],"aug_dim":"","rhythm_ratio":1.0,"mirror":false,"chromatic_density":0.308,"complexity":0.38,"dissonance":0.082},{"voice":1,"pitch":62,"start":237.2725,"duration":0.2727,"velocity":127,"measure":109,"beat":4.0,"subject_pos":-1,"motif":"","motif_pos":-1,"best_pos":4,"similarity":0.464,"stretto":false,"stretto_voices":0,"combination":[],"aug_dim":"","rhythm_ratio":1.0,"mirror":false,"chromatic_density":0.308,"complexity":0.38,"dissonance":0.082},{"voice":3,"pitch":42,"start":237.2725,"duration":0.2727,"velocity":127,"measure":109,"beat":4.0,"subject_pos":-1,"motif":"","motif_pos":-1,"best_pos":4,"similarity":0.536,"stretto":false,"stretto_voices":0,"combination":[],"aug_dim":"","rhythm_ratio":1.0,"mirror":false,"chromatic_density":0.308,"complexity":0.38,"dissonance":0.082},{"voice":1,"pitch":60,"start":237.5452,"duration":0.2727,"velocity":127,"measure":109,"beat":4.5,"subject_pos":-1,"motif":"","motif_pos":-1,"best_pos":3,"similarity":0.364,"stretto":false,"stretto_voices":0,"combination":[],"aug_dim":"","rhythm_ratio":1.0,"mirror":false,"chromatic_density":0.308,"complexity":0.38,"dissonance":0.082},{"voice":3,"pitch":40,"start":237.5452,"duration":0.2727,"velocity":127,"measure":109,"beat":4.5,"subject_pos":-1,"motif":"","motif_pos":-1,"best_pos":5,"similarity":0.493,"stretto":false,"stretto_voices":0,"combination":[],"aug_dim":"","rhythm_ratio":1.0,"mirror":false,"chromatic_density":0.308,"complexity":0.38,"dissonance":0.082},{"voice":1,"pitch":69,"start":237.8179,"duration":2.4545,"velocity":127,"measure":110,"beat":1.0,"subject_pos":-1,"motif":"","motif_pos":-1,"best_pos":4,"similarity":0.414,"stretto":false,"stretto_voices":0,"combination":[],"aug_dim":"","rhythm_ratio":1.0,"mirror":false,"chromatic_density":0.286,"complexity":0.414,"dissonance":0.144},{"voice":3,"pitch":42,"start":237.8179,"duration":1.0909,"velocity":127,"measure":110,"beat":1.0,"subject_pos":-1,"motif":"","motif_pos":-1,"best_pos":5,"similarity":0.375,"stretto":false,"stretto_voices":0,"combination":[],"aug_dim":"","rhythm_ratio":1.0,"mirror":false,"chromatic_density":0.286,"complexity":0.414,"dissonance":0.144},{"voice":2,"pitch":63,"start":238.0907,"duration":0.2727,"velocity":127,"measure":110,"beat":1.5,"subject_pos":-1,"motif":"","motif_pos":-1,"best_pos":3,"similarity":0.393,"stretto":false,"stretto_voices":0,"combination":[],"aug_dim":"","rhythm_ratio":1.0,"mirror":false,"chromatic_density":0.286,"complexity":0.414,"dissonance":0.144},{"voice":2,"pitch":62,"start":238.3634,"duration":0.2727,"velocity":127,"measure":110,"beat":2.0,"subject_pos":-1,"motif":"","motif_pos":-1,"best_pos":4,"similarity":0.471,"stretto":false,"stretto_voices":0,"combination":[],"aug_dim":"","rhythm_ratio":1.0,"mirror":false,"chromatic_density":0.286,"complexity":0.414,"dissonance":0.144},{"voice":2,"pitch":60,"start":238.6361,"duration":0.2727,"velocity":127,"measure":110,"beat":2.5,"subject_pos":-1,"motif":"","motif_pos":-1,"best_pos":5,"similarity":0.471,"stretto":false,"stretto_voices":0,"combination":[],"aug_dim":"","rhythm_ratio":1.0,"mirror":false,"chromatic_density":0.286,"complexity":0.414,"dissonance":0.144},{"voice":2,"pitch":62,"start":238.9089,"duration":0.2727,"velocity":127,"measure":110,"beat":3.0,"subject_pos":-1,"motif":"","motif_pos":-1,"best_pos":1,"similarity":0.457,"stretto":false,"stretto_voices":0,"combination":[],"aug_dim":"","rhythm_ratio":1.0,"mirror":false,"chromatic_density":0.286,"complexity":0.414,"dissonance":0.144},{"voice":2,"pitch":60,"start":239.1816,"duration":0.2727,"velocity":127,"measure":110,"beat":3.5,"subject_pos":-1,"motif":"","motif_pos":-1,"best_pos":2,"similarity":0.657,"stretto":false,"stretto_voices":0,"combination":[],"aug_dim":"","rhythm_ratio":1.0,"mirror":false,"chromatic_density":0.286,"complexity":0.414,"dissonance":0.144},{"voice":2,"pitch":58,"start":239.4543,"duration":0.2727,"velocity":127,"measure":110,"beat":4.0,"subject_pos":-1,"motif":"","motif_pos":-1,"best_pos":3,"similarity":0.793,"stretto":false,"stretto_voices":0,"combination":[],"aug_dim":"","rhythm_ratio":1.0,"mirror":false,"chromatic_density":0.286,"complexity":0.414,"dissonance":0.144},{"voice":3,"pitch":54,"start":239.4543,"duration":0.5455,"velocity":127,"measure":110,"beat":4.0,"subject_pos":-1,"motif":"","motif_pos":-1,"best_pos":6,"similarity":0.393,"stretto":false,"stretto_voices":0,"combination":[],"aug_dim":"","rhythm_ratio":1.0,"mirror":false,"chromatic_density":0.286,"complexity":0.414,"dissonance":0.144},{"voice":2,"pitch":57,"start":239.727,"duration":0.2727,"velocity":127,"measure":110,"beat":4.5,"subject_pos":-1,"motif":"","motif_pos":-1,"best_pos":4,"similarity":0.864,"stretto":false,"stretto_voices":0,"combination":[],"aug_dim":"","rhythm_ratio":1.0,"mirror":false,"chromatic_density":0.286,"complexity":0.414,"dissonance":0.144},{"voice":2,"pitch":58,"start":239.9998,"duration":1.0909,"velocity":127,"measure":111,"beat":1.0,"subject_pos":-1,"motif":"","motif_pos":-1,"best_pos":5,"similarity":0.764,"stretto":false,"stretto_voices":0,"combination":[],"aug_dim":"","rhythm_ratio":1.0,"mirror":false,"chromatic_density":0.273,"complexity":0.436,"dissonance":0.114},{"voice":3,"pitch":55,"start":239.9998,"duration":0.5455,"velocity":127,"measure":111,"beat":1.0,"subject_pos":-1,"motif":"","motif_pos":-1,"best_pos":1,"similarity":0.464,"stretto":false,"stretto_voices":0,"combination":[],"aug_dim":"","rhythm_ratio":1.0,"mirror":false,"chromatic_density":0.273,"complexity":0.436,"dissonance":0.114},{"voice":1,"pitch":70,"start":240.2725,"duration":0.2727,"velocity":127,"measure":111,"beat":1.5,"subject_pos":-1,"motif":"","motif_pos":-1,"best_pos":3,"similarity":0.364,"stretto":false,"stretto_voices":0,"combination":[],"aug_dim":"","rhythm_ratio":1.0,"mirror":false,"chromatic_density":0.273,"complexity":0.436,"dissonance":0.114},{"voice":1,"pitch":69,"start":240.5452,"duration":0.2727,"velocity":127,"measure":111,"beat":2.0,"subject_pos":-1,"motif":"","motif_pos":-1,"best_pos":4,"similarity":0.418,"stretto":false,"stretto_voices":0,"combination":[],"aug_dim":"","rhythm_ratio":1.0,"mirror":false,"chromatic_density":0.273,"complexity":0.436,"dissonance":0.114},{"voice":3,"pitch":51,"start":240.5452,"duration":0.5455,"velocity":127,"measure":111,"beat":2.0,"subject_pos":-1,"motif":"","motif_pos":-1,"best_pos":2,"similarity":0.6,"stretto":false,"stretto_voices":0,"combination":[],"aug_dim":"","rhythm_ratio":1.0,"mirror":false,"chromatic_density":0.273,"complexity":0.436,"dissonance":0.114},{"voice":1,"pitch":67,"start":240.8179,"duration":0.2727,"velocity":127,"measure":111,"beat":2.5,"subject_pos":-1,"motif":"","motif_pos":-1,"best_pos":2,"similarity":0.436,"stretto":false,"stretto_voices":0,"combination":[],"aug_dim":"","rhythm_ratio":1.0,"mirror":false,"chromatic_density":0.273,"complexity":0.436,"dissonance":0.114},{"voice":1,"pitch":70,"start":241.0907,"duration":0.2727,"velocity":127,"measure":111,"beat":3.0,"subject_pos":-1,"motif":"","motif_pos":-1,"best_pos":3,"similarity":0.45,"stretto":false,"stretto_voices":0,"combination":[],"aug_dim":"","rhythm_ratio":1.0,"mirror":false,"chromatic_density":0.273,"complexity":0.436,"dissonance":0.114},{"voice":2,"pitch":60,"start":241.0907,"duration":0.5455,"velocity":127,"measure":111,"beat":3.0,"subject_pos":-1,"motif":"","motif_pos":-1,"best_pos":6,"similarity":0.529,"stretto":false,"stretto_voices":0,"combination":[],"aug_dim":"","rhythm_ratio":1.0,"mirror":false,"chromatic_density":0.273,"complexity":0.436,"dissonance":0.114},{"voice":3,"pitch":48,"start":241.0907,"duration":0.5455,"velocity":127,"measure":111,"beat":3.0,"subject_pos":-1,"motif":"","motif_pos":-1,"best_pos":3,"similarity":0.464,"stretto":false,"stretto_voices":0,"combination":[],"aug_dim":"","rhythm_ratio":1.0,"mirror":false,"chromatic_density":0.273,"complexity":0.436,"dissonance":0.114},{"voice":1,"pitch":69,"start":241.3634,"duration":0.2727,"velocity":127,"measure":111,"beat":3.5,"subject_pos":-1,"motif":"","motif_pos":-1,"best_pos":2,"similarity":0.536,"stretto":false,"stretto_voices":0,"combination":[],"aug_dim":"","rhythm_ratio":1.0,"mirror":false,"chromatic_density":0.273,"complexity":0.436,"dissonance":0.114},{"voice":1,"pitch":67,"start":241.6361,"duration":0.2727,"velocity":127,"measure":111,"beat":4.0,"subject_pos":-1,"motif":"","motif_pos":-1,"best_pos":3,"similarity":0.661,"stretto":false,"stretto_voices":0,"combination":[],"aug_dim":"","rhythm_ratio":1.0,"mirror":false,"chromatic_density":0.273,"complexity":0.436,"dissonance":0.114},{"voice":2,"pitch":57,"start":241.6361,"duration":0.5455,"velocity":127,"measure":111,"beat":4.0,"subject_pos":-1,"motif":"","motif_pos":-1,"best_pos":4,"similarity":0.514,"stretto":false,"stretto_voices":0,"combination":[],"aug_dim":"","rhythm_ratio":1.0,"mirror":false,"chromatic_density":0.273,"complexity":0.436,"dissonance":0.114},{"voice":3,"pitch":50,"start":241.6361,"duration":0.5455,"velocity":127,"measure":111,"beat":4.0,"subject_pos":-1,"motif":"","motif_pos":-1,"best_pos":6,"similarity":0.307,"stretto":false,"stretto_voices":0,"combination":[],"aug_dim":"","rhythm_ratio":1.0,"mirror":false,"chromatic_density":0.273,"complexity":0.436,"dissonance":0.114},{"voice":1,"pitch":66,"start":241.9088,"duration":0.2727,"velocity":127,"measure":111,"beat":4.5,"subject_pos":-1,"motif":"","motif_pos":-1,"best_pos":4,"similarity":0.75,"stretto":false,"stretto_voices":0,"combination":[],"aug_dim":"","rhythm_ratio":1.0,"mirror":false,"chromatic_density":0.273,"complexity":0.436,"dissonance":0.114},{"voice":1,"pitch":67,"start":242.1816,"duration":0.5455,"velocity":127,"measure":112,"beat":1.0,"subject_pos":-1,"motif":"","motif_pos":-1,"best_pos":5,"similarity":0.607,"stretto":false,"stretto_voices":0,"combination":[],"aug_dim":"","rhythm_ratio":1.0,"mirror":false,"chromatic_density":0.444,"complexity":0.501,"dissonance":0.08},{"voice":2,"pitch":58,"start":242.1816,"duration":0.5455,"velocity":127,"measure":112,"beat":1.0,"subject_pos":-1,"motif":"","motif_pos":-1,"best_pos":5,"similarity":0.621,"stretto":false,"stretto_voices":0,"combination":[],"aug_dim":"","rhythm_ratio":1.0,"mirror":false,"chromatic_density":0.444,"complexity":0.501,"dissonance":0.08},{"voice":3,"pitch":43,"start":242.1816,"duration":0.5455,"velocity":127,"measure":112,"beat":1.0,"subject_pos":-1,"motif":"","motif_pos":-1,"best_pos":0,"similarity":0.189,"stretto":false,"stretto_voices":0,"combination":[],"aug_dim":"","rhythm_ratio":1.0,"mirror":false,"chromatic_density":0.444,"complexity":0.501,"dissonance":0.08},{"voice":0,"pitch":62,"start":242.4543,"duration":0.2727,"velocity":127,"measure":112,"beat":1.5,"subject_pos":-1,"motif":"","motif_pos":-1,"best_pos":5,"similarity":0.379,"stretto":false,"stretto_voices":0,"combination":[],"aug_dim":"","rhythm_ratio":1.0,"mirror":false,"chromatic_density":0.444,"complexity":0.501,"dissonance":0.08},{"voice":0,"pitch":64,"start":242.727,"duration":0.2727,"velocity":127,"measure":112,"beat":2.0,"subject_pos":-1,"motif":"","motif_pos":-1,"best_pos":5,"similarity":0.571,"stretto":false,"stretto_voices":0,"combination":[],"aug_dim":"","rhythm_ratio":1.0,"mirror":false,"chromatic_density":0.444,"complexity":0.501,"dissonance":0.08},{"voice":2,"pitch":60,"start":242.727,"duration":0.5455,"velocity":127,"measure":112,"beat":2.0,"subject_pos":-1,"motif":"","motif_pos":-1,"best_pos":6,"similarity":0.475,"stretto":false,"stretto_voices":0,"combination":[],"aug_dim":"","rhythm_ratio":1.0,"mirror":false,"chromatic_density":0.444,"complexity":0.501,"dissonance":0.08},{"voice":0,"pitch":66,"start":242.9998,"duration":0.2727,"velocity":127,"measure":112,"beat":2.5,"subject_pos":-1,"motif":"","motif_pos":-1,"best_pos":6,"similarity":0.643,"stretto":false,"stretto_voices":0,"combination":[],"aug_dim":"","rhythm_ratio":1.0,"mirror":false,"chromatic_density":0.444,"complexity":0.501,"dissonance":0.08},{"voice":0,"pitch":67,"start":243.2725,"duration":0.2727,"velocity":127,"measure":112,"beat":3.0,"subject_pos":-1,"motif":"tail","motif_pos":3,"best_pos":3,"similarity":1.0,"stretto":false,"stretto_voices":0,"combination":[],"aug_dim":"","rhythm_ratio":1.0,"mirror":false,"chromatic_density":0.444,"complexity":0.501,"dissonance":0.08},{"voice":2,"pitch":58,"start":243.2725,"duration":0.5455,"velocity":127,"measure":112,"beat":3.0,"subject_pos":-1,"motif":"","motif_pos":-1,"best_pos":3,"similarity":0.536,"stretto":false,"stretto_voices":0,"combination":[],"aug_dim":"","rhythm_ratio":1.0,"mirror":false,"chromatic_density":0.444,"complexity":0.501,"dissonance":0.08},{"voice":0,"pitch":66,"start":243.5452,"duration":0.2727,"velocity":127,"measure":112,"beat":3.5,"subject_pos":-1,"motif":"tail","motif_pos":4,"best_pos":4,"similarity":1.0,"stretto":false,"stretto_voices":0,"combination":[],"aug_dim":"","rhythm_ratio":1.0,"mirror":false,"chromatic_density":0.444,"complexity":0.501,"dissonance":0.08},{"voice":0,"pitch":67,"start":243.8179,"duration":0.2727,"velocity":127,"measure":112,"beat":4.0,"subject_pos":-1,"motif":"tail","motif_pos":5,"best_pos":5,"similarity":1.0,"stretto":false,"stretto_voices":0,"combination":[],"aug_dim":"","rhythm_ratio":1.0,"mirror":false,"chromatic_density":0.444,"complexity":0.501,"dissonance":0.08},{"voice":2,"pitch":57,"start":243.8179,"duration":0.5455,"velocity":127,"measure":112,"beat":4.0,"subject_pos":-1,"motif":"","motif_pos":-1,"best_pos":4,"similarity":0.571,"stretto":false,"stretto_voices":0,"combination":[],"aug_dim":"","rhythm_ratio":1.0,"mirror":false,"chromatic_density":0.444,"complexity":0.501,"dissonance":0.08},{"voice":0,"pitch":69,"start":244.0907,"duration":0.2727,"velocity":127,"measure":112,"beat":4.5,"subject_pos":-1,"motif":"tail","motif_pos":6,"best_pos":6,"similarity":1.0,"stretto":false,"stretto_voices":0,"combination":[],"aug_dim":"","rhythm_ratio":1.0,"mirror":false,"chromatic_density":0.444,"complexity":0.501,"dissonance":0.08},{"voice":0,"pitch":70,"start":244.3634,"duration":0.2727,"velocity":127,"measure":113,"beat":1.0,"subject_pos":-1,"motif":"tail","motif_pos":7,"best_pos":7,"similarity":1.0,"stretto":false,"stretto_voices":0,"combination":[],"aug_dim":"","rhythm_ratio":1.0,"mirror":false,"chromatic_density":0.364,"complexity":0.504,"dissonance":0.28},{"voice":2,"pitch":55,"start":244.3634,"duration":1.0909,"velocity":127,"measure":113,"beat":1.0,"subject_pos":-1,"motif":"","motif_pos":-1,"best_pos":4,"similarity":0.607,"stretto":false,"stretto_voices":0,"combination":[],"aug_dim":"","rhythm_ratio":1.0,"mirror":false,"chromatic_density":0.364,"complexity":0.504,"dissonance":0.28},{"voice":0,"pitch":67,"start":244.6361,"duration":0.2727,"velocity":127,"measure":113,"beat":1.5,"subject_pos":-1,"motif":"","motif_pos":-1,"best_pos":4,"similarity":0.45,"stretto":false,"stretto_voices":0,"combination":[],"aug_dim":"","rhythm_ratio":1.0,"mirror":false,"chromatic_density":0.364,"complexity":0.504,"dissonance":0.28},{"voice":0,"pitch":69,"start":244.9088,"duration":0.2727,"velocity":127,"measure":113,"beat":2.0,"subject_pos":-1,"motif":"","motif_pos":-1,"best_pos":5,"similarity":0.614,"stretto":false,"stretto_voices":0,"combination":[],"aug_dim":"","rhythm_ratio":1.0,"mirror":false,"chromatic_density":0.364,"complexity":0.504,"dissonance":0.28},{"voice":3,"pitch":53,"start":244.9088,"duration":0.5455,"velocity":127,"measure":113,"beat":2.0,"subject_pos":-1,"motif":"","motif_pos":-1,"best_pos":1,"similarity":0.386,"stretto":false,"stretto_voices":0,"combination":[],"aug_dim":"","rhythm_ratio":1.0,"mirror":false,"chromatic_density":0.364,"complexity":0.504,"dissonance":0.28},{"voice":0,"pitch":71,"start":245.1816,"duration":0.2727,"velocity":127,"measure":113,"beat":2.5,"subject_pos":-1,"motif":"","motif_pos":-1,"best_pos":6,"similarity":0.661,"stretto":false,"stretto_voices":0,"combination":[],"aug_dim":"","rhythm_ratio":1.0,"mirror":false,"chromatic_density":0.364,"complexity":0.504,"dissonance":0.28},{"voice":0,"pitch":72,"start":245.4543,"duration":0.2727,"velocity":127,"measure":113,"beat":3.0,"subject_pos":-1,"motif":"tail","motif_pos":3,"best_pos":3,"similarity":1.0,"stretto":false,"stretto_voices":0,"combination":[],"aug_dim":"","rhythm_ratio":1.0,"mirror":false,"chromatic_density":0.364,"complexity":0.504,"dissonance":0.28},{"voice":2,"pitch":57,"start":245.4543,"duration":0.5455,"velocity":127,"measure":113,"beat":3.0,"subject_pos":-1,"motif":"","motif_pos":-1,"best_pos":5,"similarity":0.661,"stretto":false,"stretto_voices":0,"combination":[],"aug_dim":"","rhythm_ratio":1.0,"mirror":false,"chromatic_density":0.364,"complexity":0.504,"dissonance":0.28},{"voice":3,"pitch":51,"start":245.4543,"duration":0.5455,"velocity":127,"measure":113,"beat":3.0,"subject_pos":-1,"motif":"","motif_pos":-1,"best_pos":3,"similarity":0.461,"stretto":false,"stretto_voices":0,"combination":[],"aug_dim":"","rhythm_ratio":1.0,"mirror":false,"chromatic_density":0.364,"complexity":0.504,"dissonance":0.28},{"voice":0,"pitch":71,"start":245.727,"duration":0.2727,"velocity":127,"measure":113,"beat":3.5,"subject_pos":-1,"motif":"tail","motif_pos":4,"best_pos":4,"similarity":1.0,"stretto":false,"stretto_voices":0,"combination":[],"aug_dim":"","rhythm_ratio":1.0,"mirror":false,"chromatic_density":0.364,"complexity":0.504,"dissonance":0.28},{"voice":0,"pitch":72,"start":245.9998,"duration":0.2727,"velocity":127,"measure":113,"beat":4.0,"subject_pos":-1,"motif":"tail","motif_pos":5,"best_pos":5,"similarity":1.0,"stretto":false,"stretto_voices":0,"combination":[],"aug_dim":"","rhythm_ratio":1.0,"mirror":false,"chromatic_density":0.364,"complexity":0.504,"dissonance":0.28},{"voice":2,"pitch":59,"start":245.9998,"duration":0.5455,"velocity":127,"measure":113,"beat":4.0,"subject_pos":-1,"motif":"","motif_pos":-1,"best_pos":6,"similarity":0.679,"stretto":false,"stretto_voices":0,"combination":[],"aug_dim":"","rhythm_ratio":1.0,"mirror":false,"chromatic_density":0.364,"complexity":0.504,"dissonance":0.28},{"voice":3,"pitch":50,"start":245.9998,"duration":0.5455,"velocity":127,"measure":113,"beat":4.0,"subject_pos":-1,"motif":"","motif_pos":-1,"best_pos":4,"similarity":0.493,"stretto":false,"stretto_voices":0,"combination":[],"aug_dim":"","rhythm_ratio":1.0,"mirror":false,"chromatic_density":0.364,"complexity":0.504,"dissonance":0.28},{"voice":0,"pitch":74,"start":246.2725,"duration":0.2727,"velocity":127,"measure":113,"beat":4.5,"subject_pos":-1,"motif":"tail","motif_pos":6,"best_pos":6,"similarity":1.0,"stretto":false,"stretto_voices":0,"combination":[],"aug_dim":"","rhythm_ratio":1.0,"mirror":false,"chromatic_density":0.364,"complexity":0.504,"dissonance":0.28},{"voice":0,"pitch":75,"start":246.5452,"duration":0.5455,"velocity":127,"measure":114,"beat":1.0,"subject_pos":-1,"motif":"tail","motif_pos":7,"best_pos":7,"similarity":1.0,"stretto":false,"stretto_voices":0,"combination":[],"aug_dim":"","rhythm_ratio":1.0,"mirror":false,"chromatic_density":0.333,"complexity":0.465,"dissonance":0.287},{"voice":2,"pitch":60,"start":246.5452,"duration":0.5455,"velocity":127,"measure":114,"beat":1.0,"subject_pos":-1,"motif":"","motif_pos":-1,"best_pos":7,"similarity":0.464,"stretto":false,"stretto_voices":0,"combination":[],"aug_dim":"","rhythm_ratio":1.0,"mirror":false,"chromatic_density":0.333,"complexity":0.465,"dissonance":0.287},{"voice":3,"pitch":48,"start":246.5452,"duration":0.5455,"velocity":127,"measure":114,"beat":1.0,"subject_pos":-1,"motif":"","motif_pos":-1,"best_pos":3,"similarity":0.429,"stretto":false,"stretto_voices":0,"combination":[],"aug_dim":"","rhythm_ratio":1.0,"mirror":false,"chromatic_density":0.333,"complexity":0.465,"dissonance":0.287},{"voice":1,"pitch":59,"start":246.8179,"duration":0.2727,"velocity":127,"measure":114,"beat":1.5,"subject_pos":-1,"motif":"","motif_pos":-1,"best_pos":4,"similarity":0.55,"stretto":false,"stretto_voices":0,"combination":[],"aug_dim":"","rhythm_ratio":1.0,"mirror":false,"chromatic_density":0.333,"complexity":0.465,"dissonance":0.287},{"voice":0,"pitch":74,"start":247.0907,"duration":0.5455,"velocity":127,"measure":114,"beat":2.0,"subject_pos":-1,"motif":"","motif_pos":-1,"best_pos":1,"similarity":0.429,"stretto":false,"stretto_voices":0,"combination":[],"aug_dim":"","rhythm_ratio":1.0,"mirror":false,"chromatic_density":0.333,"complexity":0.465,"dissonance":0.287},{"voice":1,"pitch":60,"start":247.0907,"duration":0.2727,"velocity":127,"measure":114,"beat":2.0,"subject_pos":-1,"motif":"","motif_pos":-1,"best_pos":5,"similarity":0.721,"stretto":false,"stretto_voices":0,"combination":[],"aug_dim":"","rhythm_ratio":1.0,"mirror":false,"chromatic_density":0.333,"complexity":0.465,"dissonance":0.287},{"voice":1,"pitch":62,"start":247.3634,"duration":0.2727,"velocity":127,"measure":114,"beat":2.5,"subject_pos":-1,"motif":"","motif_pos":-1,"best_pos":6,"similarity":0.714,"stretto":false,"stretto_voices":0,"combination":[],"aug_dim":"","rhythm_ratio":1.0,"mirror":false,"chromatic_density":0.333,"complexity":0.465,"dissonance":0.287},{"voice":0,"pitch":72,"start":247.6361,"duration":0.5455,"velocity":127,"measure":114,"beat":3.0,"subject_pos":-1,"motif":"","motif_pos":-1,"best_pos":2,"similarity":0.579,"stretto":false,"stretto_voices":0,"combination":[],"aug_dim":"","rhythm_ratio":1.0,"mirror":false,"chromatic_density":0.333,"complexity":0.465,"dissonance":0.287},{"voice":1,"pitch":63,"start":247.6361,"duration":0.2727,"velocity":127,"measure":114,"beat":3.0,"subject_pos":-1,"motif":"","motif_pos":-1,"best_pos":7,"similarity":0.5,"stretto":false,"stretto_voices":0,"combination":[],"aug_dim":"","rhythm_ratio":1.0,"mirror":false,"chromatic_density":0.333,"complexity":0.465,"dissonance":0.287},{"voice":1,"pitch":60,"start":247.9088,"duration":0.2727,"velocity":127,"measure":114,"beat":3.5,"subject_pos":-1,"motif":"","motif_pos":-1,"best_pos":4,"similarity":0.45,"stretto":false,"stretto_voices":0,"combination":[],"aug_dim":"","rhythm_ratio":1.0,"mirror":false,"chromatic_density":0.333,"complexity":0.465,"dissonance":0.287},{"voice":0,"pitch":70,"start":248.1816,"duration":0.5455,"velocity":127,"measure":114,"beat":4.0,"subject_pos":-1,"motif":"","motif_pos":-1,"best_pos":3,"similarity":0.657,"stretto":false,"stretto_voices":0,"combination":[],"aug_dim":"","rhythm_ratio":1.0,"mirror":false,"chromatic_density":0.333,"complexity":0.465,"dissonance":0.287},{"voice":1,"pitch":62,"start":248.1816,"duration":0.2727,"velocity":127,"measure":114,"beat":4.0,"subject_pos":-1,"motif":"","motif_pos":-1,"best_pos":5,"similarity":0.614,"stretto":false,"stretto_voices":0,"combination":[],"aug_dim":"","rhythm_ratio":1.0,"mirror":false,"chromatic_density":0.333,"complexity":0.465,"dissonance":0.287},{"voice":1,"pitch":64,"start":248.4543,"duration":0.2727,"velocity":127,"measure":114,"beat":4.5,"subject_pos":-1,"motif":"","motif_pos":-1,"best_pos":6,"similarity":0.661,"stretto":false,"stretto_voices":0,"combination":[],"aug_dim":"","rhythm_ratio":1.0,"mirror":false,"chromatic_density":0.333,"complexity":0.465,"dissonance":0.287},{"voice":0,"pitch":69,"start":248.727,"duration":0.2727,"velocity":127,"measure":115,"beat":1.0,"subject_pos":-1,"motif":"","motif_pos":-1,"best_pos":4,"similarity":0.671,"stretto":false,"stretto_voices":0,"combination":[],"aug_dim":"","rhythm_ratio":1.0,"mirror":false,"chromatic_density":0.154,"complexity":0.439,"dissonance":0.15},{"voice":1,"pitch":65,"start":248.727,"duration":3.2727,"velocity":127,"measure":115,"beat":1.0,"subject_pos":-1,"motif":"","motif_pos":-1,"best_pos":7,"similarity":0.464,"stretto":false,"stretto_voices":0,"combination":[],"aug_dim":"","rhythm_ratio":1.0,"mirror":false,"chromatic_density":0.154,"complexity":0.439,"dissonance":0.15},{"voice":0,"pitch":67,"start":248.9998,"duration":0.2727,"velocity":127,"measure":115,"beat":1.5,"subject_pos":-1,"motif":"","motif_pos":-1,"best_pos":5,"similarity":0.636,"stretto":false,"stretto_voices":0,"combination":[],"aug_dim":"","rhythm_ratio":1.0,"mirror":false,"chromatic_density":0.154,"complexity":0.439,"dissonance":0.15},{"voice":3,"pitch":52,"start":248.9998,"duration":0.2727,"velocity":127,"measure":115,"beat":1.5,"subject_pos":-1,"motif":"","motif_pos":-1,"best_pos":4,"similarity":0.571,"stretto":false,"stretto_voices":0,"combination":[],"aug_dim":"","rhythm_ratio":1.0,"mirror":false,"chromatic_density":0.154,"complexity":0.439,"dissonance":0.15},{"voice":0,"pitch":69,"start":249.2725,"duration":0.2727,"velocity":127,"measure":115,"beat":2.0,"subject_pos":-1,"motif":"","motif_pos":-1,"best_pos":6,"similarity":0.657,"stretto":false,"stretto_voices":0,"combination":[],"aug_dim":"","rhythm_ratio":1.0,"mirror":false,"chromatic_density":0.154,"complexity":0.439,"dissonance":0.15},{"voice":3,"pitch":53,"start":249.2725,"duration":0.2727,"velocity":127,"measure":115,"beat":2.0,"subject_pos":-1,"motif":"","motif_pos":-1,"best_pos":5,"similarity":0.679,"stretto":false,"stretto_voices":0,"combination":[],"aug_dim":"","rhythm_ratio":1.0,"mirror":false,"chromatic_density":0.154,"complexity":0.439,"dissonance":0.15},{"voice":0,"pitch":70,"start":249.5452,"duration":0.2727,"velocity":127,"measure":115,"beat":2.5,"subject_pos":-1,"motif":"","motif_pos":-1,"best_pos":5,"similarity":0.636,"stretto":false,"stretto_voices":0,"combination":[],"aug_dim":"","rhythm_ratio":1.0,"mirror":false,"chromatic_density":0.154,"complexity":0.439,"dissonance":0.15},{"voice":3,"pitch":55,"start":249.5452,"duration":0.2727,"velocity":127,"measure":115,"beat":2.5,"subject_pos":-1,"motif":"","motif_pos":-1,"best_pos":6,"similarity":0.571,"stretto":false,"stretto_voices":0,"combination":[],"aug_dim":"","rhythm_ratio":1.0,"mirror":false,"chromatic_density":0.154,"complexity":0.439,"dissonance":0.15},{"voice":0,"pitch":72,"start":249.8179,"duration":0.2727,"velocity":127,"measure":115,"beat":3.0,"subject_pos":-1,"motif":"","motif_pos":-1,"best_pos":6,"similarity":0.464,"stretto":false,"stretto_voices":0,"combination":[],"aug_dim":"","rhythm_ratio":1.0,"mirror":false,"chromatic_density":0.154,"complexity":0.439,"dissonance":0.15},{"voice":3,"pitch":57,"start":249.8179,"duration":0.2727,"velocity":127,"measure":115,"beat":3.0,"subject_pos":-1,"motif":"","motif_pos":-1,"best_pos":6,"similarity":0.375,"stretto":false,"stretto_voices":0,"combination":[],"aug_dim":"","rhythm_ratio":1.0,"mirror":false,"chromatic_density":0.154,"complexity":0.439,"dissonance":0.15},{"voice":0,"pitch":69,"start":250.0907,"duration":0.2727,"velocity":127,"measure":115,"beat":3.5,"subject_pos":-1,"motif":"","motif_pos":-1,"best_pos":3,"similarity":0.443,"stretto":false,"stretto_voices":0,"combination":[],"aug_dim":"","rhythm_ratio":1.0,"mirror":false,"chromatic_density":0.154,"complexity":0.439,"dissonance":0.15},{"voice":3,"pitch":53,"start":250.0907,"duration":0.2727,"velocity":127,"measure":115,"beat":3.5,"subject_pos":-1,"motif":"","motif_pos":-1,"best_pos":4,"similarity":0.393,"stretto":false,"stretto_voices":0,"combination":[],"aug_dim":"","rhythm_ratio":1.0,"mirror":false,"chromatic_density":0.154,"complexity":0.439,"dissonance":0.15},{"voice":0,"pitch":71,"start":250.3634,"duration":0.2727,"velocity":127,"measure":115,"beat":4.0,"subject_pos":-1,"motif":"","motif_pos":-1,"best_pos":5,"similarity":0.607,"stretto":false,"stretto_voices":0,"combination":[],"aug_dim":"","rhythm_ratio":1.0,"mirror":false,"chromatic_density":0.154,"complexity":0.439,"dissonance":0.15},{"voice":3,"pitch":55,"start":250.3634,"duration":0.2727,"velocity":127,"measure":115,"beat":4.0,"subject_pos":-1,"motif":"","motif_pos":-1,"best_pos":5,"similarity":0.586,"stretto":false,"stretto_voices":0,"combination":[],"aug_dim":"","rhythm_ratio":1.0,"mirror":false,"chromatic_density":0.154,"complexity":0.439,"dissonance":0.15},{"voice":0,"pitch":73,"start":250.6361,"duration":0.2727,"velocity":127,"measure":115,"beat":4.5,"subject_pos":-1,"motif":"enigmatic_cell","motif_pos":0,"best_pos":0,"similarity":1.0,"stretto":false,"stretto_voices":0,"combination":[],"aug_dim":"","rhythm_ratio":1.0,"mirror":false,"chromatic_density":0.154,"complexity":0.439,"dissonance":0.15},{"voice":3,"pitch":57,"start":250.6361,"duration":0.2727,"velocity":127,"measure":115,"beat":4.5,"subject_pos":-1,"motif":"","motif_pos":-1,"best_pos":6,"similarity":0.65,"stretto":false,"stretto_voices":0,"combination":[],"aug_dim":"","rhythm_ratio":1.0,"mirror":false,"chromatic_density":0.154,"complexity":0.439,"dissonance":0.15},{"voice":0,"pitch":74,"start":250.9088,"duration":0.5455,"velocity":127,"measure":116,"beat":1.0,"subject_pos":-1,"motif":"enigmatic_cell","motif_pos":1,"best_pos":1,"similarity":1.0,"stretto":false,"stretto_voices":0,"combination":[],"aug_dim":"","rhythm_ratio":1.0,"mirror":false,"chromatic_density":0.25,"complexity":0.552,"dissonance":0.24},{"voice":3,"pitch":58,"start":250.9088,"duration":0.5455,"velocity":127,"measure":116,"beat":1.0,"subject_pos":-1,"motif":"","motif_pos":-1,"best_pos":7,"similarity":0.464,"stretto":false,"stretto_voices":0,"combination":[],"aug_dim":"","rhythm_ratio":1.0,"mirror":false,"chromatic_density":0.25,"complexity":0.552,"dissonance":0.24},{"voice":2,"pitch":60,"start":251.1816,"duration":0.2727,"velocity":127,"measure":116,"beat":1.5,"subject_pos":-1,"motif":"","motif_pos":-1,"best_pos":2,"similarity":0.379,"stretto":false,"stretto_voices":0,"combination":[],"aug_dim":"","rhythm_ratio":1.0,"mirror":false,"chromatic_density":0.25,"complexity":0.552,"dissonance":0.24},{"voice":0,"pitch":67,"start":251.4543,"duration":1.0909,"velocity":127,"measure":116,"beat":2.0,"subject_pos":-1,"motif":"enigmatic_cell","motif_pos":2,"best_pos":2,"similarity":1.0,"stretto":false,"stretto_voices":0,"combination":[],"aug_dim":"","rhythm_ratio":1.0,"mirror":false,"chromatic_density":0.25,"complexity":0.552,"dissonance":0.24},{"voice":2,"pitch":58,"start":251.4543,"duration":0.2727,"velocity":127,"measure":116,"beat":2.0,"subject_pos":-1,"motif":"","motif_pos":-1,"best_pos":3,"similarity":0.521,"stretto":false,"stretto_voices":0,"combination":[],"aug_dim":"","rhythm_ratio":1.0,"mirror":false,"chromatic_density":0.25,"complexity":0.552,"dissonance":0.24},{"voice":2,"pitch":57,"start":251.727,"duration":0.2727,"velocity":127,"measure":116,"beat":2.5,"subject_pos":-1,"motif":"","motif_pos":-1,"best_pos":4,"similarity":0.493,"stretto":false,"stretto_voices":0,"combination":[],"aug_dim":"","rhythm_ratio":1.0,"mirror":false,"chromatic_density":0.25,"complexity":0.552,"dissonance":0.24},{"voice":1,"pitch":64,"start":251.9997,"duration":1.0909,"velocity":127,"measure":116,"beat":3.0,"subject_pos":-1,"motif":"","motif_pos":-1,"best_pos":1,"similarity":0.393,"stretto":false,"stretto_voices":0,"combination":[],"aug_dim":"","rhythm_ratio":1.0,"mirror":false,"chromatic_density":0.25,"complexity":0.552,"dissonance":0.24},{"voice":2,"pitch":55,"start":251.9997,"duration":0.2727,"velocity":127,"measure":116,"beat":3.0,"subject_pos":-1,"motif":"","motif_pos":-1,"best_pos":2,"similarity":0.436,"stretto":false,"stretto_voices":0,"combination":[],"aug_dim":"","rhythm_ratio":1.0,"mirror":false,"chromatic_density":0.25,"complexity":0.552,"dissonance":0.24},{"voice":2,"pitch":58,"start":252.2725,"duration":0.2727,"velocity":127,"measure":116,"beat":3.5,"subject_pos":-1,"motif":"","motif_pos":-1,"best_pos":3,"similarity":0.45,"stretto":false,"stretto_voices":0,"combination":[],"aug_dim":"","rhythm_ratio":1.0,"mirror":false,"chromatic_density":0.25,"complexity":0.552,"dissonance":0.24},{"voice":0,"pitch":65,"start":252.5452,"duration":0.8182,"velocity":127,"measure":116,"beat":4.0,"subject_pos":-1,"motif":"","motif_pos":-1,"best_pos":3,"similarity":0.471,"stretto":false,"stretto_voices":0,"combination":[],"aug_dim":"","rhythm_ratio":1.0,"mirror":false,"chromatic_density":0.25,"complexity":0.552,"dissonance":0.24},{"voice":2,"pitch":57,"start":252.5452,"duration":0.2727,"velocity":127,"measure":116,"beat":4.0,"subject_pos":-1,"motif":"","motif_pos":-1,"best_pos":4,"similarity":0.407,"stretto":false,"stretto_voices":0,"combination":[],"aug_dim":"","rhythm_ratio":1.0,"mirror":false,"chromatic_density":0.25,"complexity":0.552,"dissonance":0.24},{"voice":2,"pitch":55,"start":252.8179,"duration":0.2727,"velocity":127,"measure":116,"beat":4.5,"subject_pos":-1,"motif":"","motif_pos":-1,"best_pos":2,"similarity":0.464,"stretto":false,"stretto_voices":0,"combination":[],"aug_dim":"","rhythm_ratio":1.0,"mirror":false,"chromatic_density":0.25,"complexity":0.552,"dissonance":0.24},{"voice":1,"pitch":62,"start":253.0907,"duration":0.8182,"velocity":127,"measure":117,"beat":1.0,"subject_pos":-1,"motif":"","motif_pos":-1,"best_pos":2,"similarity":0.518,"stretto":false,"stretto_voices":0,"combination":[],"aug_dim":"","rhythm_ratio":1.0,"mirror":false,"chromatic_density":0.2,"complexity":0.523,"dissonance":0.136},{"voice":2,"pitch":53,"start":253.0907,"duration":0.5455,"velocity":127,"measure":117,"beat":1.0,"subject_pos":-1,"motif":"","motif_pos":-1,"best_pos":2,"similarity":0.589,"stretto":false,"stretto_voices":0,"combination":[],"aug_dim":"","rhythm_ratio":1.0,"mirror":false,"chromatic_density":0.2,"complexity":0.523,"dissonance":0.136},{"voice":0,"pitch":64,"start":253.3634,"duration":0.2727,"velocity":127,"measure":117,"beat":1.5,"subject_pos":-1,"motif":"","motif_pos":-1,"best_pos":4,"similarity":0.425,"stretto":false,"stretto_voices":0,"combination":[],"aug_dim":"","rhythm_ratio":1.0,"mirror":false,"chromatic_density":0.2,"complexity":0.523,"dissonance":0.136},{"voice":3,"pitch":55,"start":253.3634,"duration":0.2727,"velocity":127,"measure":117,"beat":1.5,"subject_pos":-1,"motif":"","motif_pos":-1,"best_pos":3,"similarity":0.493,"stretto":false,"stretto_voices":0,"combination":[],"aug_dim":"","rhythm_ratio":1.0,"mirror":false,"chromatic_density":0.2,"complexity":0.523,"dissonance":0.136},{"voice":0,"pitch":62,"start":253.6361,"duration":1.0909,"velocity":127,"measure":117,"beat":2.0,"subject_pos":-1,"motif":"","motif_pos":-1,"best_pos":4,"similarity":0.368,"stretto":false,"stretto_voices":0,"combination":[],"aug_dim":"","rhythm_ratio":1.0,"mirror":false,"chromatic_density":0.2,"complexity":0.523,"dissonance":0.136},{"voice":3,"pitch":53,"start":253.6361,"duration":0.2727,"velocity":127,"measure":117,"beat":2.0,"subject_pos":-1,"motif":"","motif_pos":-1,"best_pos":3,"similarity":0.557,"stretto":false,"stretto_voices":0,"combination":[],"aug_dim":"","rhythm_ratio":1.0,"mirror":false,"chromatic_density":0.2,"complexity":0.523,"dissonance":0.136},{"voice":1,"pitch":60,"start":253.9088,"duration":0.2727,"velocity":127,"measure":117,"beat":2.5,"subject_pos":-1,"motif":"","motif_pos":-1,"best_pos":2,"similarity":0.579,"stretto":false,"stretto_voices":0,"combination":[],"aug_dim":"","rhythm_ratio":1.0,"mirror":false,"chromatic_density":0.2,"complexity":0.523,"dissonance":0.136},{"voice":3,"pitch":52,"start":253.9088,"duration":0.2727,"velocity":127,"measure":117,"beat":2.5,"subject_pos":-1,"motif":"","motif_pos":-1,"best_pos":4,"similarity":0.511,"stretto":false,"stretto_voices":0,"combination":[],"aug_dim":"","rhythm_ratio":1.0,"mirror":false,"chromatic_density":0.2,"complexity":0.523,"dissonance":0.136},{"voice":1,"pitch":58,"start":254.1816,"duration":1.0909,"velocity":127,"measure":117,"beat":3.0,"subject_pos":-1,"motif":"","motif_pos":-1,"best_pos":3,"similarity":0.586,"stretto":false,"stretto_voices":0,"combination":[],"aug_dim":"","rhythm_ratio":1.0,"mirror":false,"chromatic_density":0.2,"complexity":0.523,"dissonance":0.136},{"voice":3,"pitch":50,"start":254.1816,"duration":0.2727,"velocity":127,"measure":117,"beat":3.0,"subject_pos":-1,"motif":"","motif_pos":-1,"best_pos":2,"similarity":0.436,"stretto":false,"stretto_voices":0,"combination":[],"aug_dim":"","rhythm_ratio":1.0,"mirror":false,"chromatic_density":0.2,"complexity":0.523,"dissonance":0.136},{"voice":3,"pitch":53,"start":254.4543,"duration":0.2727,"velocity":127,"measure":117,"beat":3.5,"subject_pos":-1,"motif":"","motif_pos":-1,"best_pos":3,"similarity":0.45,"stretto":false,"stretto_voices":0,"combination":[],"aug_dim":"","rhythm_ratio":1.0,"mirror":false,"chromatic_density":0.2,"complexity":0.523,"dissonance":0.136},{"voice":0,"pitch":67,"start":254.727,"duration":0.8182,"velocity":127,"measure":117,"beat":4.0,"subject_pos":-1,"motif":"","motif_pos":-1,"best_pos":1,"similarity":0.357,"stretto":false,"stretto_voices":0,"combination":[],"aug_dim":"","rhythm_ratio":1.0,"mirror":false,"chromatic_density":0.2,"complexity":0.523,"dissonance":0.136},{"voice":3,"pitch":52,"start":254.727,"duration":0.2727,"velocity":127,"measure":117,"beat":4.0,"subject_pos":-1,"motif":"","motif_pos":-1,"best_pos":2,"similarity":0.482,"stretto":false,"stretto_voices":0,"combination":[],"aug_dim":"","rhythm_ratio":1.0,"mirror":false,"chromatic_density":0.2,"complexity":0.523,"dissonance":0.136},{"voice":3,"pitch":50,"start":254.9997,"duration":0.2727,"velocity":127,"measure":117,"beat":4.5,"subject_pos":-1,"motif":"","motif_pos":-1,"best_pos":3,"similarity":0.554,"stretto":false,"stretto_voices":0,"combination":[],"aug_dim":"","rhythm_ratio":1.0,"mirror":false,"chromatic_density":0.2,"complexity":0.523,"dissonance":0.136},{"voice":1,"pitch":57,"start":255.2725,"duration":0.5455,"velocity":127,"measure":118,"beat":1.0,"subject_pos":-1,"motif":"","motif_pos":-1,"best_pos":4,"similarity":0.457,"stretto":false,"stretto_voices":0,"combination":[],"aug_dim":"","rhythm_ratio":1.0,"mirror":false,"chromatic_density":0.222,"complexity":0.398,"dissonance":0.15},{"voice":3,"pitch":49,"start":255.2725,"duration":0.5455,"velocity":127,"measure":118,"beat":1.0,"subject_pos":-1,"motif":"","motif_pos":-1,"best_pos":4,"similarity":0.464,"stretto":false,"stretto_voices":0,"combination":[],"aug_dim":"","rhythm_ratio":1.0,"mirror":false,"chromatic_density":0.222,"complexity":0.398,"dissonance":0.15},{"voice":0,"pitch":70,"start":255.5452,"duration":0.2727,"velocity":127,"measure":118,"beat":1.5,"subject_pos":-1,"motif":"","motif_pos":-1,"best_pos":3,"similarity":0.371,"stretto":false,"stretto_voices":0,"combination":[],"aug_dim":"","rhythm_ratio":1.0,"mirror":false,"chromatic_density":0.222,"complexity":0.398,"dissonance":0.15},{"voice":0,"pitch":69,"start":255.8179,"duration":0.2727,"velocity":127,"measure":118,"beat":2.0,"subject_pos":-1,"motif":"","motif_pos":-1,"best_pos":4,"similarity":0.464,"stretto":false,"stretto_voices":0,"combination":[],"aug_dim":"","rhythm_ratio":1.0,"mirror":false,"chromatic_density":0.222,"complexity":0.398,"dissonance":0.15},{"voice":3,"pitch":52,"start":255.8179,"duration":0.5455,"velocity":127,"measure":118,"beat":2.0,"subject_pos":-1,"motif":"","motif_pos":-1,"best_pos":2,"similarity":0.307,"stretto":false,"stretto_voices":0,"combination":[],"aug_dim":"","rhythm_ratio":1.0,"mirror":false,"chromatic_density":0.222,"complexity":0.398,"dissonance":0.15},{"voice":0,"pitch":67,"start":256.0907,"duration":0.2727,"velocity":127,"measure":118,"beat":2.5,"subject_pos":-1,"motif":"","motif_pos":-1,"best_pos":5,"similarity":0.471,"stretto":false,"stretto_voices":0,"combination":[],"aug_dim":"","rhythm_ratio":1.0,"mirror":false,"chromatic_density":0.222,"complexity":0.398,"dissonance":0.15},{"voice":0,"pitch":69,"start":256.3634,"duration":0.2727,"velocity":127,"measure":118,"beat":3.0,"subject_pos":-1,"motif":"","motif_pos":-1,"best_pos":1,"similarity":0.457,"stretto":false,"stretto_voices":0,"combination":[],"aug_dim":"","rhythm_ratio":1.0,"mirror":false,"chromatic_density":0.222,"complexity":0.398,"dissonance":0.15},{"voice":3,"pitch":49,"start":256.3634,"duration":0.5455,"velocity":127,"measure":118,"beat":3.0,"subject_pos":-1,"motif":"","motif_pos":-1,"best_pos":3,"similarity":0.336,"stretto":false,"stretto_voices":0,"combination":[],"aug_dim":"","rhythm_ratio":1.0,"mirror":false,"chromatic_density":0.222,"complexity":0.398,"dissonance":0.15},{"voice":0,"pitch":67,"start":256.6361,"duration":0.2727,"velocity":127,"measure":118,"beat":3.5,"subject_pos":-1,"motif":"","motif_pos":-1,"best_pos":2,"similarity":0.657,"stretto":false,"stretto_voices":0,"combination":[],"aug_dim":"","rhythm_ratio":1.0,"mirror":false,"chromatic_density":0.222,"complexity":0.398,"dissonance":0.15},{"voice":0,"pitch":65,"start":256.9088,"duration":0.2727,"velocity":127,"measure":118,"beat":4.0,"subject_pos":-1,"motif":"","motif_pos":-1,"best_pos":3,"similarity":0.729,"stretto":false,"stretto_voices":0,"combination":[],"aug_dim":"","rhythm_ratio":1.0,"mirror":false,"chromatic_density":0.222,"complexity":0.398,"dissonance":0.15},{"voice":3,"pitch":45,"start":256.9088,"duration":0.5455,"velocity":127,"measure":118,"beat":4.0,"subject_pos":-1,"motif":"","motif_pos":-1,"best_pos":0,"similarity":0.464,"stretto":false,"stretto_voices":0,"combination":[],"aug_dim":"","rhythm_ratio":1.0,"mirror":false,"chromatic_density":0.222,"complexity":0.398,"dissonance":0.15},{"voice":0,"pitch":64,"start":257.1816,"duration":0.2727,"velocity":127,"measure":118,"beat":4.5,"subject_pos":-1,"motif":"","motif_pos":-1,"best_pos":4,"similarity":0.8,"stretto":false,"stretto_voices":0,"combination":[],"aug_dim":"","rhythm_ratio":1.0,"mirror":false,"chromatic_density":0.222,"complexity":0.398,"dissonance":0.15},{"voice":0,"pitch":65,"start":257.4543,"duration":0.2727,"velocity":127,"measure":119,"beat":1.0,"subject_pos":-1,"motif":"","motif_pos":-1,"best_pos":5,"similarity":0.636,"stretto":false,"stretto_voices":0,"combination":[],"aug_dim":"","rhythm_ratio":1.0,"mirror":false,"chromatic_density":0.3,"complexity":0.602,"dissonance":0.09},{"voice":1,"pitch":62,"start":257.4543,"duration":2.1818,"velocity":127,"measure":119,"beat":1.0,"subject_pos":0,"motif":"subject","motif_pos":0,"best_pos":0,"similarity":1.0,"stretto":true,"stretto_voices":2,"combination":[],"aug_dim":"augmentation","rhythm_ratio":4.35,"mirror":false,"chromatic_density":0.3,"complexity":0.602,"dissonance":0.09},{"voice":3,"pitch":50,"start":257.4543,"duration":0.5455,"velocity":127,"measure":119,"beat":1.0,"subject_pos":-1,"motif":"","motif_pos":-1,"best_pos":1,"similarity":0.714,"stretto":false,"stretto_voices":0,"combination":[],"aug_dim":"","rhythm_ratio":1.0,"mirror":false,"chromatic_density":0.3,"complexity":0.602,"dissonance":0.09},{"voice":0,"pitch":64,"start":257.727,"duration":0.2727,"velocity":127,"measure":119,"beat":1.5,"subject_pos":-1,"motif":"","motif_pos":-1,"best_pos":4,"similarity":0.664,"stretto":false,"stretto_voices":0,"combination":[],"aug_dim":"","rhythm_ratio":1.0,"mirror":false,"chromatic_density":0.3,"complexity":0.602,"dissonance":0.09},{"voice":0,"pitch":65,"start":257.9997,"duration":0.2727,"velocity":127,"measure":119,"beat":2.0,"subject_pos":-1,"motif":"","motif_pos":-1,"best_pos":5,"similarity":0.521,"stretto":false,"stretto_voices":0,"combination":[],"aug_dim":"","rhythm_ratio":1.0,"mirror":false,"chromatic_density":0.3,"complexity":0.602,"dissonance":0.09},{"voice":2,"pitch":50,"start":257.9997,"duration":0.5455,"velocity":127,"measure":119,"beat":2.0,"subject_pos":0,"motif":"subject","motif_pos":0,"best_pos":0,"similarity":1.0,"stretto":true,"stretto_voices":2,"combination":[],"aug_dim":"","rhythm_ratio":1.0,"mirror":false,"chromatic_density":0.3,"complexity":0.602,"dissonance":0.09},{"voice":3,"pitch":48,"start":257.9997,"duration":0.5455,"velocity":127,"measure":119,"beat":2.0,"subject_pos":-1,"motif":"","motif_pos":-1,"best_pos":2,"similarity":0.75,"stretto":false,"stretto_voices":0,"combination":[],"aug_dim":"","rhythm_ratio":1.0,"mirror":false,"chromatic_density":0.3,"complexity":0.602,"dissonance":0.09},{"voice":0,"pitch":69,"start":258.2725,"duration":0.2727,"velocity":127,"measure":119,"beat":2.5,"subject_pos":-1,"motif":"","motif_pos":-1,"best_pos":1,"similarity":0.571,"stretto":false,"stretto_voices":0,"combination":[],"aug_dim":"","rhythm_ratio":1.0,"mirror":false,"chromatic_density":0.3,"complexity":0.602,"dissonance":0.09},{"voice":0,"pitch":67,"start":258.5452,"duration":0.2727,"velocity":127,"measure":119,"beat":3.0,"subject_pos":-1,"motif":"","motif_pos":-1,"best_pos":2,"similarity":0.65,"stretto":false,"stretto_voices":0,"combination":[],"aug_dim":"","rhythm_ratio":1.0,"mirror":false,"chromatic_density":0.3,"complexity":0.602,"dissonance":0.09},{"voice":2,"pitch":62,"start":258.5452,"duration":1.6364,"velocity":127,"measure":119,"beat":3.0,"subject_pos":1,"motif":"subject","motif_pos":1,"best_pos":1,"similarity":1.0,"stretto":true,"stretto_voices":2,"combination":[],"aug_dim":"","rhythm_ratio":1.0,"mirror":false,"chromatic_density":0.3,"complexity":0.602,"dissonance":0.09},{"voice":3,"pitch":46,"start":258.5452,"duration":1.0909,"velocity":127,"measure":119,"beat":3.0,"subject_pos":-1,"motif":"","motif_pos":-1,"best_pos":3,"similarity":0.75,"stretto":false,"stretto_voices":0,"combination":[],"aug_dim":"","rhythm_ratio":1.0,"mirror":false,"chromatic_density":0.3,"complexity":0.602,"dissonance":0.09},{"voice":0,"pitch":65,"start":258.8179,"duration":0.2727,"velocity":127,"measure":119,"beat":3.5,"subject_pos":-1,"motif":"","motif_pos":-1,"best_pos":3,"similarity":0.693,"stretto":false,"stretto_voices":0,"combination":[],"aug_dim":"","rhythm_ratio":1.0,"mirror":false,"chromatic_density":0.3,"complexity":0.602,"dissonance":0.09},{"voice":0,"pitch":64,"start":259.0906,"duration":0.2727,"velocity":127,"measure":119,"beat":4.0,"subject_pos":-1,"motif":"","motif_pos":-1,"best_pos":4,"similarity":0.6,"stretto":false,"stretto_voices":0,"combination":[],"aug_dim":"","rhythm_ratio":1.0,"mirror":false,"chromatic_density":0.3,"complexity":0.602,"dissonance":0.09},{"voice":0,"pitch":62,"start":259.3634,"duration":0.2727,"velocity":127,"measure":119,"beat":4.5,"subject_pos":-1,"motif":"","motif_pos":-1,"best_pos":5,"similarity":0.493,"stretto":false,"stretto_voices":0,"combination":[],"aug_dim":"","rhythm_ratio":1.0,"mirror":false,"chromatic_density":0.3,"complexity":0.602,"dissonance":0.09},{"voice":0,"pitch":64,"start":259.6361,"duration":1.0909,"velocity":127,"measure":120,"beat":1.0,"subject_pos":-1,"motif":"","motif_pos":-1,"best_pos":5,"similarity":0.375,"stretto":false,"stretto_voices":0,"combination":[],"aug_dim":"","rhythm_ratio":1.0,"mirror":false,"chromatic_density":0.167,"complexity":0.664,"dissonance":0.052},{"voice":1,"pitch":69,"start":259.6361,"duration":2.1818,"velocity":127,"measure":120,"beat":1.0,"subject_pos":1,"motif":"subject","motif_pos":1,"best_pos":1,"similarity":1.0,"stretto":true,"stretto_voices":2,"combination":[],"aug_dim":"augmentation","rhythm_ratio":4.35,"mirror":false,"chromatic_density":0.167,"complexity":0.664,"dissonance":0.052},{"voice":3,"pitch":45,"start":259.6361,"duration":1.0909,"velocity":127,"measure":120,"beat":1.0,"subject_pos":-1,"motif":"","motif_pos":-1,"best_pos":4,"similarity":0.643,"stretto":false,"stretto_voices":0,"combination":[],"aug_dim":"","rhythm_ratio":1.0,"mirror":false,"chromatic_density":0.167,"complexity":0.664,"dissonance":0.052},{"voice":2,"pitch":61,"start":260.1816,"duration":0.2727,"velocity":127,"measure":120,"beat":2.0,"subject_pos":2,"motif":"subject","motif_pos":2,"best_pos":2,"similarity":1.0,"stretto":true,"stretto_voices":2,"combination":[],"aug_dim":"","rhythm_ratio":1.0,"mirror":false,"chromatic_density":0.167,"complexity":0.664,"dissonance":0.052},{"voice":2,"pitch":59,"start":260.4543,"duration":0.2727,"velocity":127,"measure":120,"beat":2.5,"subject_pos":3,"motif":"subject","motif_pos":3,"best_pos":3,"similarity":1.0,"stretto":true,"stretto_voices":2,"combination":[],"aug_dim":"","rhythm_ratio":1.0,"mirror":false,"chromatic_density":0.167,"complexity":0.664,"dissonance":0.052},{"voice":2,"pitch":57,"start":260.727,"duration":0.2727,"velocity":127,"measure":120,"beat":3.0,"subject_pos":4,"motif":"subject","motif_pos":4,"best_pos":4,"similarity":1.0,"stretto":true,"stretto_voices":2,"combination":[],"aug_dim":"","rhythm_ratio":1.0,"mirror":false,"chromatic_density":0.167,"complexity":0.664,"dissonance":0.052},{"voice":2,"pitch":55,"start":260.9997,"duration":0.2727,"velocity":127,"measure":120,"beat":3.5,"subject_pos":5,"motif":"subject","motif_pos":5,"best_pos":5,"similarity":1.0,"stretto":true,"stretto_voices":2,"combination":[],"aug_dim":"","rhythm_ratio":1.0,"mirror":false,"chromatic_density":0.167,"complexity":0.664,"dissonance":0.052},{"voice":0,"pitch":73,"start":261.2725,"duration":0.5455,"velocity":127,"measure":120,"beat":4.0,"subject_pos":-1,"motif":"","motif_pos":-1,"best_pos":6,"similarity":0.393,"stretto":false,"stretto_voices":0,"combination":[],"aug_dim":"","rhythm_ratio":1.0,"mirror":false,"chromatic_density":0.167,"complexity":0.664,"dissonance":0.052},{"voice":2,"pitch":53,"start":261.2725,"duration":0.2727,"velocity":127,"measure":120,"beat":4.0,"subject_pos":6,"motif":"subject","motif_pos":6,"best_pos":6,"similarity":1.0,"stretto":true,"stretto_voices":2,"combination":[],"aug_dim":"","rhythm_ratio":1.0,"mirror":false,"chromatic_density":0.167,"complexity":0.664,"dissonance":0.052},{"voice":3,"pitch":45,"start":261.2725,"duration":0.5455,"velocity":127,"measure":120,"beat":4.0,"subject_pos":-1,"motif":"","motif_pos":-1,"best_pos":4,"similarity":0.621,"stretto":false,"stretto_voices":0,"combination":[],"aug_dim":"","rhythm_ratio":1.0,"mirror":false,"chromatic_density":0.167,"complexity":0.664,"dissonance":0.052},{"voice":2,"pitch":52,"start":261.5452,"duration":0.2727,"velocity":127,"measure":120,"beat":4.5,"subject_pos":7,"motif":"subject","motif_pos":7,"best_pos":7,"similarity":1.0,"stretto":true,"stretto_voices":2,"combination":[],"aug_dim":"","rhythm_ratio":1.0,"mirror":false,"chromatic_density":0.167,"complexity":0.664,"dissonance":0.052},{"voice":0,"pitch":74,"start":261.8179,"duration":1.3636,"velocity":127,"measure":121,"beat":1.0,"subject_pos":-1,"motif":"","motif_pos":-1,"best_pos":1,"similarity":0.457,"stretto":false,"stretto_voices":0,"combination":[],"aug_dim":"","rhythm_ratio":1.0,"mirror":false,"chromatic_density":0.5,"complexity":0.537,"dissonance":0.165},{"voice":1,"pitch":65,"start":261.8179,"duration":2.1818,"velocity":127,"measure":121,"beat":1.0,"subject_pos":2,"motif":"subject","motif_pos":2,"best_pos":2,"similarity":1.0,"stretto":false,"stretto_voices":0,"combination":[],"aug_dim":"augmentation","rhythm_ratio":4.35,"mirror":false,"chromatic_density":0.5,"complexity":0.537,"dissonance":0.165},{"voice":2,"pitch":50,"start":261.8179,"duration":0.2727,"velocity":127,"measure":121,"beat":1.0,"subject_pos":8,"motif":"subject","motif_pos":8,"best_pos":0,"similarity":1.0,"stretto":true,"stretto_voices":2,"combination":[],"aug_dim":"","rhythm_ratio":1.0,"mirror":false,"chromatic_density":0.5,"complexity":0.537,"dissonance":0.165},{"voice":3,"pitch":46,"start":261.8179,"duration":3.2727,"velocity":127,"measure":121,"beat":1.0,"subject_pos":-1,"motif":"","motif_pos":-1,"best_pos":5,"similarity":0.546,"stretto":false,"stretto_voices":0,"combination":[],"aug_dim":"","rhythm_ratio":1.0,"mirror":false,"chromatic_density":0.5,"complexity":0.537,"dissonance":0.165},{"voice":2,"pitch":49,"start":262.0906,"duration":0.2727,"velocity":127,"measure":121,"beat":1.5,"subject_pos":-1,"motif":"","motif_pos":-1,"best_pos":4,"similarity":0.893,"stretto":false,"stretto_voices":0,"combination":[],"aug_dim":"","rhythm_ratio":1.0,"mirror":false,"chromatic_density":0.5,"complexity":0.537,"dissonance":0.165},{"voice":2,"pitch":50,"start":262.3634,"duration":0.2727,"velocity":127,"measure":121,"beat":2.0,"subject_pos":-1,"motif":"","motif_pos":-1,"best_pos":5,"similarity":0.893,"stretto":false,"stretto_voices":0,"combination":[],"aug_dim":"","rhythm_ratio":1.0,"mirror":false,"chromatic_density":0.5,"complexity":0.537,"dissonance":0.165},{"voice":2,"pitch":52,"start":262.6361,"duration":0.2727,"velocity":127,"measure":121,"beat":2.5,"subject_pos":-1,"motif":"","motif_pos":-1,"best_pos":6,"similarity":0.786,"stretto":false,"stretto_voices":0,"combination":[],"aug_dim":"","rhythm_ratio":1.0,"mirror":false,"chromatic_density":0.5,"complexity":0.537,"dissonance":0.165},{"voice":2,"pitch":53,"start":262.9088,"duration":0.2727,"velocity":127,"measure":121,"beat":3.0,"subject_pos":-1,"motif":"","motif_pos":-1,"best_pos":7,"similarity":0.5,"stretto":false,"stretto_voices":0,"combination":[],"aug_dim":"","rhythm_ratio":1.0,"mirror":false,"chromatic_density":0.5,"complexity":0.537,"dissonance":0.165},{"voice":0,"pitch":72,"start":263.1816,"duration":0.2727,"velocity":127,"measure":121,"beat":3.5,"subject_pos":-1,"motif":"","motif_pos":-1,"best_pos":2,"similarity":0.593,"stretto":false,"stretto_voices":0,"combination":[],"aug_dim":"","rhythm_ratio":1.0,"mirror":false,"chromatic_density":0.5,"complexity":0.537,"dissonance":0.165},{"voice":2,"pitch":50,"start":263.1816,"duration":0.2727,"velocity":127,"measure":121,"beat":3.5,"subject_pos":-1,"motif":"","motif_pos":-1,"best_pos":3,"similarity":0.55,"stretto":false,"stretto_voices":0,"combination":[],"aug_dim":"","rhythm_ratio":1.0,"mirror":false,"chromatic_density":0.5,"complexity":0.537,"dissonance":0.165},{"voice":0,"pitch":70,"start":263.4543,"duration":0.2727,"velocity":127,"measure":121,"beat":4.0,"subject_pos":-1,"motif":"","motif_pos":-1,"best_pos":3,"similarity":0.6,"stretto":false,"stretto_voices":0,"combination":[],"aug_dim":"","rhythm_ratio":1.0,"mirror":false,"chromatic_density":0.5,"complexity":0.537,"dissonance":0.165},{"voice":2,"pitch":52,"start":263.4543,"duration":0.2727,"velocity":127,"measure":121,"beat":4.0,"subject_pos":-1,"motif":"","motif_pos":-1,"best_pos":4,"similarity":0.625,"stretto":false,"stretto_voices":0,"combination":[],"aug_dim":"","rhythm_ratio":1.0,"mirror":false,"chromatic_density":0.5,"complexity":0.537,"dissonance":0.165},{"voice":0,"pitch":69,"start":263.727,"duration":0.2727,"velocity":127,"measure":121,"beat":4.5,"subject_pos":-1,"motif":"","motif_pos":-1,"best_pos":4,"similarity":0.479,"stretto":false,"stretto_voices":0,"combination":[],"aug_dim":"","rhythm_ratio":1.0,"mirror":false,"chromatic_density":0.5,"complexity":0.537,"dissonance":0.165},{"voice":2,"pitch":53,"start":263.727,"duration":0.2727,"velocity":127,"measure":121,"beat":4.5,"subject_pos":-1,"motif":"","motif_pos":-1,"best_pos":5,"similarity":0.693,"stretto":false,"stretto_voices":0,"combination":[],"aug_dim":"","rhythm_ratio":1.0,"mirror":false,"chromatic_density":0.5,"complexity":0.537,"dissonance":0.165},{"voice":0,"pitch":67,"start":263.9997,"duration":4.3636,"velocity":127,"measure":122,"beat":1.0,"subject_pos":-1,"motif":"","motif_pos":-1,"best_pos":2,"similarity":0.446,"stretto":false,"stretto_voices":0,"combination":[],"aug_dim":"","rhythm_ratio":1.0,"mirror":false,"chromatic_density":0.556,"complexity":0.586,"dissonance":0.091},{"voice":1,"pitch":62,"start":263.9997,"duration":2.1818,"velocity":127,"measure":122,"beat":1.0,"subject_pos":3,"motif":"subject","motif_pos":3,"best_pos":3,"similarity":1.0,"stretto":false,"stretto_voices":0,"combination":[],"aug_dim":"augmentation","rhythm_ratio":4.35,"mirror":false,"chromatic_density":0.556,"complexity":0.586,"dissonance":0.091},{"voice":2,"pitch":55,"start":263.9997,"duration":0.2727,"velocity":127,"measure":122,"beat":1.0,"subject_pos":-1,"motif":"tail","motif_pos":3,"best_pos":3,"similarity":1.0,"stretto":false,"stretto_voices":0,"combination":[],"aug_dim":"","rhythm_ratio":1.0,"mirror":false,"chromatic_density":0.556,"complexity":0.586,"dissonance":0.091},{"voice":2,"pitch":54,"start":264.2725,"duration":0.2727,"velocity":127,"measure":122,"beat":1.5,"subject_pos":-1,"motif":"tail","motif_pos":4,"best_pos":4,"similarity":1.0,"stretto":false,"stretto_voices":0,"combination":[],"aug_dim":"","rhythm_ratio":1.0,"mirror":false,"chromatic_density":0.556,"complexity":0.586,"dissonance":0.091},{"voice":2,"pitch":55,"start":264.5452,"duration":0.2727,"velocity":127,"measure":122,"beat":2.0,"subject_pos":-1,"motif":"tail","motif_pos":5,"best_pos":5,"similarity":1.0,"stretto":false,"stretto_voices":0,"combination":[],"aug_dim":"","rhythm_ratio":1.0,"mirror":false,"chromatic_density":0.556,"complexity":0.586,"dissonance":0.091},{"voice":2,"pitch":57,"start":264.8179,"duration":0.2727,"velocity":127,"measure":122,"beat":2.5,"subject_pos":-1,"motif":"tail","motif_pos":6,"best_pos":6,"similarity":1.0,"stretto":false,"stretto_voices":0,"combination":[],"aug_dim":"","rhythm_ratio":1.0,"mirror":false,"chromatic_density":0.556,"complexity":0.586,"dissonance":0.091},{"voice":2,"pitch":58,"start":265.0906,"duration":0.2727,"velocity":127,"measure":122,"beat":3.0,"subject_pos":-1,"motif":"tail","motif_pos":7,"best_pos":7,"similarity":1.0,"stretto":false,"stretto_voices":0,"combination":[],"aug_dim":"","rhythm_ratio":1.0,"mirror":false,"chromatic_density":0.556,"complexity":0.586,"dissonance":0.091},{"voice":2,"pitch":55,"start":265.3634,"duration":0.2727,"velocity":127,"measure":122,"beat":3.5,"subject_pos":-1,"motif":"","motif_pos":-1,"best_pos":3,"similarity":0.496,"stretto":false,"stretto_voices":0,"combination":[],"aug_dim":"","rhythm_ratio":1.0,"mirror":false,"chromatic_density":0.556,"complexity":0.586,"dissonance":0.091},{"voice":3,"pitch":52,"start":265.3634,"duration":0.2727,"velocity":127,"measure":122,"beat":3.5,"subject_pos":-1,"motif":"","motif_pos":-1,"best_pos":6,"similarity":0.493,"stretto":false,"stretto_voices":0,"combination":[],"aug_dim":"","rhythm_ratio":1.0,"mirror":false,"chromatic_density":0.556,"complexity":0.586,"dissonance":0.091},{"voice":2,"pitch":57,"start":265.6361,"duration":0.2727,"velocity":127,"measure":122,"beat":4.0,"subject_pos":-1,"motif":"","motif_pos":-1,"best_pos":6,"similarity":0.604,"stretto":false,"stretto_voices":0,"combination":[],"aug_dim":"","rhythm_ratio":1.0,"mirror":false,"chromatic_density":0.556,"complexity":0.586,"dissonance":0.091},{"voice":3,"pitch":53,"start":265.6361,"duration":0.2727,"velocity":127,"measure":122,"beat":4.0,"subject_pos":-1,"motif":"","motif_pos":-1,"best_pos":5,"similarity":0.579,"stretto":false,"stretto_voices":0,"combination":[],"aug_dim":"","rhythm_ratio":1.0,"mirror":false,"chromatic_density":0.556,"complexity":0.586,"dissonance":0.091},{"voice":2,"pitch":58,"start":265.9088,"duration":0.2727,"velocity":127,"measure":122,"beat":4.5,"subject_pos":-1,"motif":"","motif_pos":-1,"best_pos":5,"similarity":0.479,"stretto":false,"stretto_voices":0,"combination":[],"aug_dim":"","rhythm_ratio":1.0,"mirror":false,"chromatic_density":0.556,"complexity":0.586,"dissonance":0.091},{"voice":3,"pitch":55,"start":265.9088,"duration":0.2727,"velocity":127,"measure":122,"beat":4.5,"subject_pos":-1,"motif":"","motif_pos":-1,"best_pos":6,"similarity":0.429,"stretto":false,"stretto_voices":0,"combination":[],"aug_dim":"","rhythm_ratio":1.0,"mirror":false,"chromatic_density":0.556,"complexity":0.586,"dissonance":0.091},{"voice":1,"pitch":61,"start":266.1816,"duration":2.1818,"velocity":127,"measure":123,"beat":1.0,"subject_pos":4,"motif":"subject","motif_pos":4,"best_pos":4,"similarity":1.0,"stretto":false,"stretto_voices":0,"combination":[],"aug_dim":"augmentation","rhythm_ratio":4.35,"mirror":false,"chromatic_density":0.25,"complexity":0.465,"dissonance":0.245},{"voice":2,"pitch":58,"start":266.1816,"duration":0.5455,"velocity":127,"measure":123,"beat":1.0,"subject_pos":-1,"motif":"","motif_pos":-1,"best_pos":3,"similarity":0.414,"stretto":false,"stretto_voices":0,"combination":[],"aug_dim":"","rhythm_ratio":1.0,"mirror":false,"chromatic_density":0.25,"complexity":0.465,"dissonance":0.245},{"voice":3,"pitch":45,"start":266.1816,"duration":0.2727,"velocity":127,"measure":123,"beat":1.0,"subject_pos":-1,"motif":"","motif_pos":-1,"best_pos":0,"similarity":0.321,"stretto":false,"stretto_voices":0,"combination":[],"aug_dim":"","rhythm_ratio":1.0,"mirror":false,"chromatic_density":0.25,"complexity":0.465,"dissonance":0.245},{"voice":3,"pitch":52,"start":266.4543,"duration":0.2727,"velocity":127,"measure":123,"beat":1.5,"subject_pos":-1,"motif":"","motif_pos":-1,"best_pos":0,"similarity":0.464,"stretto":false,"stretto_voices":0,"combination":[],"aug_dim":"","rhythm_ratio":1.0,"mirror":false,"chromatic_density":0.25,"complexity":0.465,"dissonance":0.245},{"voice":2,"pitch":57,"start":266.727,"duration":0.5455,"velocity":127,"measure":123,"beat":2.0,"subject_pos":-1,"motif":"","motif_pos":-1,"best_pos":4,"similarity":0.5,"stretto":false,"stretto_voices":0,"combination":[],"aug_dim":"","rhythm_ratio":1.0,"mirror":false,"chromatic_density":0.25,"complexity":0.465,"dissonance":0.245},{"voice":3,"pitch":57,"start":266.727,"duration":0.2727,"velocity":127,"measure":123,"beat":2.0,"subject_pos":-1,"motif":"","motif_pos":-1,"best_pos":1,"similarity":0.714,"stretto":false,"stretto_voices":0,"combination":[],"aug_dim":"","rhythm_ratio":1.0,"mirror":false,"chromatic_density":0.25,"complexity":0.465,"dissonance":0.245},{"voice":3,"pitch":55,"start":266.9997,"duration":0.2727,"velocity":127,"measure":123,"beat":2.5,"subject_pos":-1,"motif":"","motif_pos":-1,"best_pos":2,"similarity":0.721,"stretto":false,"stretto_voices":0,"combination":[],"aug_dim":"","rhythm_ratio":1.0,"mirror":false,"chromatic_density":0.25,"complexity":0.465,"dissonance":0.245},{"voice":3,"pitch":53,"start":267.2725,"duration":0.5455,"velocity":127,"measure":123,"beat":3.0,"subject_pos":-1,"motif":"","motif_pos":-1,"best_pos":3,"similarity":0.664,"stretto":false,"stretto_voices":0,"combination":[],"aug_dim":"","rhythm_ratio":1.0,"mirror":false,"chromatic_density":0.25,"complexity":0.465,"dissonance":0.245},{"voice":2,"pitch":57,"start":267.5452,"duration":0.2727,"velocity":127,"measure":123,"beat":3.5,"subject_pos":-1,"motif":"","motif_pos":-1,"best_pos":4,"similarity":0.439,"stretto":false,"stretto_voices":0,"combination":[],"aug_dim":"","rhythm_ratio":1.0,"mirror":false,"chromatic_density":0.25,"complexity":0.465,"dissonance":0.245},{"voice":2,"pitch":55,"start":267.8179,"duration":0.2727,"velocity":127,"measure":123,"beat":4.0,"subject_pos":-1,"motif":"","motif_pos":-1,"best_pos":5,"similarity":0.546,"stretto":false,"stretto_voices":0,"combination":[],"aug_dim":"","rhythm_ratio":1.0,"mirror":false,"chromatic_density":0.25,"complexity":0.465,"dissonance":0.245},{"voice":3,"pitch":52,"start":267.8179,"duration":0.5455,"velocity":127,"measure":123,"beat":4.0,"subject_pos":-1,"motif":"","motif_pos":-1,"best_pos":4,"similarity":0.543,"stretto":false,"stretto_voices":0,"combination":[],"aug_dim":"","rhythm_ratio":1.0,"mirror":false,"chromatic_density":0.25,"complexity":0.465,"dissonance":0.245},{"voice":2,"pitch":57,"start":268.0906,"duration":0.2727,"velocity":127,"measure":123,"beat":4.5,"subject_pos":-1,"motif":"","motif_pos":-1,"best_pos":6,"similarity":0.621,"stretto":false,"stretto_voices":0,"combination":[],"aug_dim":"","rhythm_ratio":1.0,"mirror":false,"chromatic_density":0.25,"complexity":0.465,"dissonance":0.245},{"voice":0,"pitch":65,"start":268.3634,"duration":1.0909,"velocity":127,"measure":124,"beat":1.0,"subject_pos":-1,"motif":"","motif_pos":-1,"best_pos":2,"similarity":0.436,"stretto":false,"stretto_voices":0,"combination":[],"aug_dim":"","rhythm_ratio":1.0,"mirror":false,"chromatic_density":0.2,"complexity":0.552,"dissonance":0.137},{"voice":1,"pitch":62,"start":268.3634,"duration":1.0909,"velocity":127,"measure":124,"beat":1.0,"subject_pos":5,"motif":"subject","motif_pos":5,"best_pos":5,"similarity":1.0,"stretto":false,"stretto_voices":0,"combination":[],"aug_dim":"augmentation","rhythm_ratio":4.35,"mirror":false,"chromatic_density":0.2,"complexity":0.552,"dissonance":0.137},{"voice":2,"pitch":58,"start":268.3634,"duration":0.2727,"velocity":127,"measure":124,"beat":1.0,"subject_pos":-1,"motif":"","motif_pos":-1,"best_pos":7,"similarity":0.436,"stretto":false,"stretto_voices":0,"combination":[],"aug_dim":"","rhythm_ratio":1.0,"mirror":false,"chromatic_density":0.2,"complexity":0.552,"dissonance":0.137},{"voice":3,"pitch":50,"start":268.3634,"duration":1.0909,"velocity":127,"measure":124,"beat":1.0,"subject_pos":-1,"motif":"","motif_pos":-1,"best_pos":3,"similarity":0.643,"stretto":false,"stretto_voices":0,"combination":[],"aug_dim":"","rhythm_ratio":1.0,"mirror":false,"chromatic_density":0.2,"complexity":0.552,"dissonance":0.137},{"voice":2,"pitch":62,"start":268.6361,"duration":0.2727,"velocity":127,"measure":124,"beat":1.5,"subject_pos":-1,"motif":"","motif_pos":-1,"best_pos":1,"similarity":0.507,"stretto":false,"stretto_voices":0,"combination":[],"aug_dim":"","rhythm_ratio":1.0,"mirror":false,"chromatic_density":0.2,"complexity":0.552,"dissonance":0.137},{"voice":2,"pitch":60,"start":268.9088,"duration":0.2727,"velocity":127,"measure":124,"beat":2.0,"subject_pos":-1,"motif":"","motif_pos":-1,"best_pos":2,"similarity":0.521,"stretto":false,"stretto_voices":0,"combination":[],"aug_dim":"","rhythm_ratio":1.0,"mirror":false,"chromatic_density":0.2,"complexity":0.552,"dissonance":0.137},{"voice":2,"pitch":58,"start":269.1815,"duration":0.2727,"velocity":127,"measure":124,"beat":2.5,"subject_pos":-1,"motif":"","motif_pos":-1,"best_pos":5,"similarity":0.4,"stretto":false,"stretto_voices":0,"combination":[],"aug_dim":"","rhythm_ratio":1.0,"mirror":false,"chromatic_density":0.2,"complexity":0.552,"dissonance":0.137},{"voice":1,"pitch":64,"start":269.4543,"duration":1.0909,"velocity":127,"measure":124,"beat":3.0,"subject_pos":6,"motif":"subject","motif_pos":6,"best_pos":6,"similarity":1.0,"stretto":false,"stretto_voices":0,"combination":[],"aug_dim":"augmentation","rhythm_ratio":4.35,"mirror":false,"chromatic_density":0.2,"complexity":0.552,"dissonance":0.137},{"voice":2,"pitch":60,"start":269.4543,"duration":0.2727,"velocity":127,"measure":124,"beat":3.0,"subject_pos":-1,"motif":"","motif_pos":-1,"best_pos":1,"similarity":0.386,"stretto":false,"stretto_voices":0,"combination":[],"aug_dim":"","rhythm_ratio":1.0,"mirror":false,"chromatic_density":0.2,"complexity":0.552,"dissonance":0.137},{"voice":2,"pitch":58,"start":269.727,"duration":0.2727,"velocity":127,"measure":124,"beat":3.5,"subject_pos":-1,"motif":"","motif_pos":-1,"best_pos":3,"similarity":0.464,"stretto":false,"stretto_voices":0,"combination":[],"aug_dim":"","rhythm_ratio":1.0,"mirror":false,"chromatic_density":0.2,"complexity":0.552,"dissonance":0.137},{"voice":0,"pitch":70,"start":269.9997,"duration":0.5455,"velocity":127,"measure":124,"beat":4.0,"subject_pos":-1,"motif":"","motif_pos":-1,"best_pos":3,"similarity":0.479,"stretto":false,"stretto_voices":0,"combination":[],"aug_dim":"","rhythm_ratio":1.0,"mirror":false,"chromatic_density":0.2,"complexity":0.552,"dissonance":0.137},{"voice":2,"pitch":57,"start":269.9997,"duration":0.2727,"velocity":127,"measure":124,"beat":4.0,"subject_pos":-1,"motif":"","motif_pos":-1,"best_pos":4,"similarity":0.414,"stretto":false,"stretto_voices":0,"combination":[],"aug_dim":"","rhythm_ratio":1.0,"mirror":false,"chromatic_density":0.2,"complexity":0.552,"dissonance":0.137},{"voice":3,"pitch":49,"start":269.9997,"duration":0.5455,"velocity":127,"measure":124,"beat":4.0,"subject_pos":-1,"motif":"enigmatic_cell","motif_pos":0,"best_pos":0,"similarity":1.0,"stretto":false,"stretto_voices":0,"combination":[],"aug_dim":"","rhythm_ratio":1.0,"mirror":false,"chromatic_density":0.2,"complexity":0.552,"dissonance":0.137},{"voice":2,"pitch":55,"start":270.2725,"duration":0.2727,"velocity":127,"measure":124,"beat":4.5,"subject_pos":-1,"motif":"","motif_pos":-1,"best_pos":2,"similarity":0.446,"stretto":false,"stretto_voices":0,"combination":[],"aug_dim":"","rhythm_ratio":1.0,"mirror":false,"chromatic_density":0.2,"complexity":0.552,"dissonance":0.137},{"voice":0,"pitch":69,"start":270.5452,"duration":1.0909,"velocity":127,"measure":125,"beat":1.0,"subject_pos":-1,"motif":"","motif_pos":-1,"best_pos":4,"similarity":0.464,"stretto":false,"stretto_voices":0,"combination":[],"aug_dim":"","rhythm_ratio":1.0,"mirror":false,"chromatic_density":0.222,"complexity":0.575,"dissonance":0.092},{"voice":1,"pitch":65,"start":270.5452,"duration":2.7273,"velocity":127,"measure":125,"beat":1.0,"subject_pos":7,"motif":"subject","motif_pos":7,"best_pos":7,"similarity":1.0,"stretto":false,"stretto_voices":0,"combination":[],"aug_dim":"augmentation","rhythm_ratio":4.35,"mirror":false,"chromatic_density":0.222,"complexity":0.575,"dissonance":0.092},{"voice":2,"pitch":53,"start":270.5452,"duration":0.2727,"velocity":127,"measure":125,"beat":1.0,"subject_pos":-1,"motif":"","motif_pos":-1,"best_pos":2,"similarity":0.436,"stretto":false,"stretto_voices":0,"combination":[],"aug_dim":"","rhythm_ratio":1.0,"mirror":false,"chromatic_density":0.222,"complexity":0.575,"dissonance":0.092},{"voice":3,"pitch":50,"start":270.5452,"duration":1.0909,"velocity":127,"measure":125,"beat":1.0,"subject_pos":-1,"motif":"enigmatic_cell","motif_pos":1,"best_pos":1,"similarity":1.0,"stretto":false,"stretto_voices":0,"combination":[],"aug_dim":"","rhythm_ratio":1.0,"mirror":false,"chromatic_density":0.222,"complexity":0.575,"dissonance":0.092},{"voice":2,"pitch":58,"start":270.8179,"duration":0.2727,"velocity":127,"measure":125,"beat":1.5,"subject_pos":-1,"motif":"","motif_pos":-1,"best_pos":3,"similarity":0.514,"stretto":false,"stretto_voices":0,"combination":[],"aug_dim":"","rhythm_ratio":1.0,"mirror":false,"chromatic_density":0.222,"complexity":0.575,"dissonance":0.092},{"voice":2,"pitch":57,"start":271.0906,"duration":0.2727,"velocity":127,"measure":125,"beat":2.0,"subject_pos":-1,"motif":"","motif_pos":-1,"best_pos":4,"similarity":0.536,"stretto":false,"stretto_voices":0,"combination":[],"aug_dim":"","rhythm_ratio":1.0,"mirror":false,"chromatic_density":0.222,"complexity":0.575,"dissonance":0.092},{"voice":2,"pitch":55,"start":271.3634,"duration":0.2727,"velocity":127,"measure":125,"beat":2.5,"subject_pos":-1,"motif":"","motif_pos":-1,"best_pos":5,"similarity":0.471,"stretto":false,"stretto_voices":0,"combination":[],"aug_dim":"","rhythm_ratio":1.0,"mirror":false,"chromatic_density":0.222,"complexity":0.575,"dissonance":0.092},{"voice":2,"pitch":57,"start":271.6361,"duration":0.2727,"velocity":127,"measure":125,"beat":3.0,"subject_pos":-1,"motif":"","motif_pos":-1,"best_pos":1,"similarity":0.457,"stretto":false,"stretto_voices":0,"combination":[],"aug_dim":"","rhythm_ratio":1.0,"mirror":false,"chromatic_density":0.222,"complexity":0.575,"dissonance":0.092},{"voice":2,"pitch":55,"start":271.9088,"duration":0.2727,"velocity":127,"measure":125,"beat":3.5,"subject_pos":-1,"motif":"","motif_pos":-1,"best_pos":2,"similarity":0.593,"stretto":false,"stretto_voices":0,"combination":[],"aug_dim":"","rhythm_ratio":1.0,"mirror":false,"chromatic_density":0.222,"complexity":0.575,"dissonance":0.092},{"voice":0,"pitch":73,"start":272.1815,"duration":0.5455,"velocity":127,"measure":125,"beat":4.0,"subject_pos":-1,"motif":"","motif_pos":-1,"best_pos":6,"similarity":0.393,"stretto":false,"stretto_voices":0,"combination":[],"aug_dim":"","rhythm_ratio":1.0,"mirror":false,"chromatic_density":0.222,"complexity":0.575,"dissonance":0.092},{"voice":2,"pitch":53,"start":272.1815,"duration":0.2727,"velocity":127,"measure":125,"beat":4.0,"subject_pos":-1,"motif":"","motif_pos":-1,"best_pos":3,"similarity":0.593,"stretto":false,"stretto_voices":0,"combination":[],"aug_dim":"","rhythm_ratio":1.0,"mirror":false,"chromatic_density":0.222,"complexity":0.575,"dissonance":0.092},{"voice":3,"pitch":45,"start":272.1815,"duration":0.5455,"velocity":127,"measure":125,"beat":4.0,"subject_pos":-1,"motif":"enigmatic_cell","motif_pos":2,"best_pos":2,"similarity":1.0,"stretto":false,"stretto_voices":0,"combination":[],"aug_dim":"","rhythm_ratio":1.0,"mirror":false,"chromatic_density":0.222,"complexity":0.575,"dissonance":0.092},{"voice":2,"pitch":52,"start":272.4543,"duration":0.2727,"velocity":127,"measure":125,"beat":4.5,"subject_pos":-1,"motif":"","motif_pos":-1,"best_pos":4,"similarity":0.529,"stretto":false,"stretto_voices":0,"combination":[],"aug_dim":"","rhythm_ratio":1.0,"mirror":false,"chromatic_density":0.222,"complexity":0.575,"dissonance":0.092},{"voice":0,"pitch":74,"start":272.727,"duration":0.2727,"velocity":127,"measure":126,"beat":1.0,"subject_pos":-1,"motif":"","motif_pos":-1,"best_pos":1,"similarity":0.457,"stretto":false,"stretto_voices":0,"combination":[],"aug_dim":"","rhythm_ratio":1.0,"mirror":false,"chromatic_density":0.364,"complexity":0.566,"dissonance":0.169},{"voice":2,"pitch":50,"start":272.727,"duration":1.0909,"velocity":127,"measure":126,"beat":1.0,"subject_pos":-1,"motif":"","motif_pos":-1,"best_pos":3,"similarity":0.375,"stretto":false,"stretto_voices":0,"combination":[],"aug_dim":"","rhythm_ratio":1.0,"mirror":false,"chromatic_density":0.364,"complexity":0.566,"dissonance":0.169},{"voice":3,"pitch":46,"start":272.727,"duration":1.0909,"velocity":127,"measure":126,"beat":1.0,"subject_pos":-1,"motif":"","motif_pos":-1,"best_pos":5,"similarity":0.607,"stretto":false,"stretto_voices":0,"combination":[],"aug_dim":"","rhythm_ratio":1.0,"mirror":false,"chromatic_density":0.364,"complexity":0.566,"dissonance":0.169},{"voice":0,"pitch":72,"start":272.9997,"duration":0.2727,"velocity":127,"measure":126,"beat":1.5,"subject_pos":-1,"motif":"","motif_pos":-1,"best_pos":2,"similarity":0.657,"stretto":false,"stretto_voices":0,"combination":[],"aug_dim":"","rhythm_ratio":1.0,"mirror":false,"chromatic_density":0.364,"complexity":0.566,"dissonance":0.169},{"voice":0,"pitch":70,"start":273.2725,"duration":0.2727,"velocity":127,"measure":126,"beat":2.0,"subject_pos":-1,"motif":"","motif_pos":-1,"best_pos":3,"similarity":0.729,"stretto":false,"stretto_voices":0,"combination":[],"aug_dim":"","rhythm_ratio":1.0,"mirror":false,"chromatic_density":0.364,"complexity":0.566,"dissonance":0.169},{"voice":1,"pitch":67,"start":273.2725,"duration":0.5455,"velocity":127,"measure":126,"beat":2.0,"subject_pos":-1,"motif":"","motif_pos":-1,"best_pos":6,"similarity":0.464,"stretto":false,"stretto_voices":0,"combination":[],"aug_dim":"","rhythm_ratio":1.0,"mirror":false,"chromatic_density":0.364,"complexity":0.566,"dissonance":0.169},{"voice":0,"pitch":69,"start":273.5452,"duration":0.2727,"velocity":127,"measure":126,"beat":2.5,"subject_pos":-1,"motif":"tail_inv","motif_pos":0,"best_pos":0,"similarity":1.0,"stretto":false,"stretto_voices":0,"combination":[],"aug_dim":"","rhythm_ratio":1.0,"mirror":false,"chromatic_density":0.364,"complexity":0.566,"dissonance":0.169},{"voice":0,"pitch":70,"start":273.8179,"duration":0.2727,"velocity":127,"measure":126,"beat":3.0,"subject_pos":-1,"motif":"tail_inv","motif_pos":1,"best_pos":1,"similarity":1.0,"stretto":false,"stretto_voices":0,"combination":[],"aug_dim":"","rhythm_ratio":1.0,"mirror":false,"chromatic_density":0.364,"complexity":0.566,"dissonance":0.169},{"voice":1,"pitch":65,"start":273.8179,"duration":0.5455,"velocity":127,"measure":126,"beat":3.0,"subject_pos":-1,"motif":"","motif_pos":-1,"best_pos":2,"similarity":0.621,"stretto":false,"stretto_voices":0,"combination":[],"aug_dim":"","rhythm_ratio":1.0,"mirror":false,"chromatic_density":0.364,"complexity":0.566,"dissonance":0.169},{"voice":0,"pitch":69,"start":274.0906,"duration":0.2727,"velocity":127,"measure":126,"beat":3.5,"subject_pos":-1,"motif":"tail_inv","motif_pos":2,"best_pos":2,"similarity":1.0,"stretto":false,"stretto_voices":0,"combination":[],"aug_dim":"","rhythm_ratio":1.0,"mirror":false,"chromatic_density":0.364,"complexity":0.566,"dissonance":0.169},{"voice":0,"pitch":67,"start":274.3634,"duration":0.2727,"velocity":127,"measure":126,"beat":4.0,"subject_pos":-1,"motif":"tail_inv","motif_pos":3,"best_pos":3,"similarity":1.0,"stretto":false,"stretto_voices":0,"combination":[],"aug_dim":"","rhythm_ratio":1.0,"mirror":false,"chromatic_density":0.364,"complexity":0.566,"dissonance":0.169},{"voice":1,"pitch":63,"start":274.3634,"duration":0.5455,"velocity":127,"measure":126,"beat":4.0,"subject_pos":-1,"motif":"","motif_pos":-1,"best_pos":3,"similarity":0.721,"stretto":false,"stretto_voices":0,"combination":[],"aug_dim":"","rhythm_ratio":1.0,"mirror":false,"chromatic_density":0.364,"complexity":0.566,"dissonance":0.169},{"voice":2,"pitch":57,"start":274.3634,"duration":0.5455,"velocity":127,"measure":126,"beat":4.0,"subject_pos":-1,"motif":"","motif_pos":-1,"best_pos":4,"similarity":0.429,"stretto":false,"stretto_voices":0,"combination":[],"aug_dim":"","rhythm_ratio":1.0,"mirror":false,"chromatic_density":0.364,"complexity":0.566,"dissonance":0.169},{"voice":3,"pitch":48,"start":274.3634,"duration":0.5455,"velocity":127,"measure":126,"beat":4.0,"subject_pos":-1,"motif":"","motif_pos":-1,"best_pos":6,"similarity":0.464,"stretto":false,"stretto_voices":0,"combination":[],"aug_dim":"","rhythm_ratio":1.0,"mirror":false,"chromatic_density":0.364,"complexity":0.566,"dissonance":0.169},{"voice":0,"pitch":66,"start":274.6361,"duration":0.2727,"velocity":127,"measure":126,"beat":4.5,"subject_pos":-1,"motif":"tail_inv","motif_pos":4,"best_pos":4,"similarity":1.0,"stretto":false,"stretto_voices":0,"combination":[],"aug_dim":"","rhythm_ratio":1.0,"mirror":false,"chromatic_density":0.364,"complexity":0.566,"dissonance":0.169},{"voice":0,"pitch":67,"start":274.9088,"duration":2.4545,"velocity":127,"measure":127,"beat":1.0,"subject_pos":-1,"motif":"","motif_pos":-1,"best_pos":5,"similarity":0.643,"stretto":false,"stretto_voices":0,"combination":[],"aug_dim":"","rhythm_ratio":1.0,"mirror":false,"chromatic_density":0.429,"complexity":0.496,"dissonance":0.092},{"voice":1,"pitch":62,"start":274.9088,"duration":1.0909,"velocity":127,"measure":127,"beat":1.0,"subject_pos":-1,"motif":"","motif_pos":-1,"best_pos":4,"similarity":0.721,"stretto":false,"stretto_voices":0,"combination":[],"aug_dim":"","rhythm_ratio":1.0,"mirror":false,"chromatic_density":0.429,"complexity":0.496,"dissonance":0.092},{"voice":2,"pitch":58,"start":274.9088,"duration":1.0909,"velocity":127,"measure":127,"beat":1.0,"subject_pos":-1,"motif":"","motif_pos":-1,"best_pos":5,"similarity":0.393,"stretto":false,"stretto_voices":0,"combination":[],"aug_dim":"","rhythm_ratio":1.0,"mirror":false,"chromatic_density":0.429,"complexity":0.496,"dissonance":0.092},{"voice":3,"pitch":46,"start":274.9088,"duration":0.2727,"velocity":127,"measure":127,"beat":1.0,"subject_pos":-1,"motif":"","motif_pos":-1,"best_pos":2,"similarity":0.389,"stretto":false,"stretto_voices":0,"combination":[],"aug_dim":"","rhythm_ratio":1.0,"mirror":false,"chromatic_density":0.429,"complexity":0.496,"dissonance":0.092},{"voice":3,"pitch":48,"start":275.1815,"duration":0.2727,"velocity":127,"measure":127,"beat":1.5,"subject_pos":-1,"motif":"","motif_pos":-1,"best_pos":2,"similarity":0.386,"stretto":false,"stretto_voices":0,"combination":[],"aug_dim":"","rhythm_ratio":1.0,"mirror":false,"chromatic_density":0.429,"complexity":0.496,"dissonance":0.092},{"voice":3,"pitch":46,"start":275.4543,"duration":0.2727,"velocity":127,"measure":127,"beat":2.0,"subject_pos":-1,"motif":"","motif_pos":-1,"best_pos":3,"similarity":0.593,"stretto":false,"stretto_voices":0,"combination":[],"aug_dim":"","rhythm_ratio":1.0,"mirror":false,"chromatic_density":0.429,"complexity":0.496,"dissonance":0.092},{"voice":3,"pitch":45,"start":275.727,"duration":0.2727,"velocity":127,"measure":127,"beat":2.5,"subject_pos":-1,"motif":"","motif_pos":-1,"best_pos":4,"similarity":0.671,"stretto":false,"stretto_voices":0,"combination":[],"aug_dim":"","rhythm_ratio":1.0,"mirror":false,"chromatic_density":0.429,"complexity":0.496,"dissonance":0.092},{"voice":3,"pitch":46,"start":275.9997,"duration":0.2727,"velocity":127,"measure":127,"beat":3.0,"subject_pos":-1,"motif":"","motif_pos":-1,"best_pos":5,"similarity":0.507,"stretto":false,"stretto_voices":0,"combination":[],"aug_dim":"","rhythm_ratio":1.0,"mirror":false,"chromatic_density":0.429,"complexity":0.496,"dissonance":0.092},{"voice":3,"pitch":45,"start":276.2725,"duration":0.2727,"velocity":127,"measure":127,"beat":3.5,"subject_pos":-1,"motif":"","motif_pos":-1,"best_pos":1,"similarity":0.429,"stretto":false,"stretto_voices":0,"combination":[],"aug_dim":"","rhythm_ratio":1.0,"mirror":false,"chromatic_density":0.429,"complexity":0.496,"dissonance":0.092},{"voice":1,"pitch":62,"start":276.5452,"duration":0.5455,"velocity":127,"measure":127,"beat":4.0,"subject_pos":-1,"motif":"","motif_pos":-1,"best_pos":5,"similarity":0.621,"stretto":false,"stretto_voices":0,"combination":[],"aug_dim":"","rhythm_ratio":1.0,"mirror":false,"chromatic_density":0.429,"complexity":0.496,"dissonance":0.092},{"voice":2,"pitch":58,"start":276.5452,"duration":0.5455,"velocity":127,"measure":127,"beat":4.0,"subject_pos":-1,"motif":"","motif_pos":-1,"best_pos":6,"similarity":0.214,"stretto":false,"stretto_voices":0,"combination":[],"aug_dim":"","rhythm_ratio":1.0,"mirror":false,"chromatic_density":0.429,"complexity":0.496,"dissonance":0.092},{"voice":3,"pitch":43,"start":276.5452,"duration":0.2727,"velocity":127,"measure":127,"beat":4.0,"subject_pos":-1,"motif":"","motif_pos":-1,"best_pos":2,"similarity":0.571,"stretto":false,"stretto_voices":0,"combination":[],"aug_dim":"","rhythm_ratio":1.0,"mirror":false,"chromatic_density":0.429,"complexity":0.496,"dissonance":0.092},{"voice":3,"pitch":41,"start":276.8179,"duration":0.2727,"velocity":127,"measure":127,"beat":4.5,"subject_pos":-1,"motif":"","motif_pos":-1,"best_pos":3,"similarity":0.607,"stretto":false,"stretto_voices":0,"combination":[],"aug_dim":"","rhythm_ratio":1.0,"mirror":false,"chromatic_density":0.429,"complexity":0.496,"dissonance":0.092},{"voice":1,"pitch":64,"start":277.0906,"duration":0.5455,"velocity":127,"measure":128,"beat":1.0,"subject_pos":-1,"motif":"","motif_pos":-1,"best_pos":6,"similarity":0.457,"stretto":false,"stretto_voices":0,"combination":[],"aug_dim":"","rhythm_ratio":1.0,"mirror":false,"chromatic_density":0.286,"complexity":0.566,"dissonance":0.18},{"voice":2,"pitch":49,"start":277.0906,"duration":0.5455,"velocity":127,"measure":128,"beat":1.0,"subject_pos":-1,"motif":"","motif_pos":-1,"best_pos":0,"similarity":0.286,"stretto":false,"stretto_voices":0,"combination":[],"aug_dim":"","rhythm_ratio":1.0,"mirror":false,"chromatic_density":0.286,"complexity":0.566,"dissonance":0.18},{"voice":3,"pitch":40,"start":277.0906,"duration":0.5455,"velocity":127,"measure":128,"beat":1.0,"subject_pos":-1,"motif":"","motif_pos":-1,"best_pos":4,"similarity":0.536,"stretto":false,"stretto_voices":0,"combination":[],"aug_dim":"","rhythm_ratio":1.0,"mirror":false,"chromatic_density":0.286,"complexity":0.566,"dissonance":0.18},{"voice":0,"pitch":70,"start":277.3634,"duration":0.2727,"velocity":127,"measure":128,"beat":1.5,"subject_pos":-1,"motif":"","motif_pos":-1,"best_pos":6,"similarity":0.429,"stretto":false,"stretto_voices":0,"combination":[],"aug_dim":"","rhythm_ratio":1.0,"mirror":false,"chromatic_density":0.286,"complexity":0.566,"dissonance":0.18},{"voice":0,"pitch":69,"start":277.6361,"duration":0.2727,"velocity":127,"measure":128,"beat":2.0,"subject_pos":-1,"motif":"","motif_pos":-1,"best_pos":4,"similarity":0.471,"stretto":false,"stretto_voices":0,"combination":[],"aug_dim":"","rhythm_ratio":1.0,"mirror":false,"chromatic_density":0.286,"complexity":0.566,"dissonance":0.18},{"voice":1,"pitch":61,"start":277.6361,"duration":0.5455,"velocity":127,"measure":128,"beat":2.0,"subject_pos":-1,"motif":"","motif_pos":-1,"best_pos":3,"similarity":0.407,"stretto":false,"stretto_voices":0,"combination":[],"aug_dim":"","rhythm_ratio":1.0,"mirror":false,"chromatic_density":0.286,"complexity":0.566,"dissonance":0.18},{"voice":2,"pitch":55,"start":277.6361,"duration":0.5455,"velocity":127,"measure":128,"beat":2.0,"subject_pos":-1,"motif":"","motif_pos":-1,"best_pos":1,"similarity":0.5,"stretto":false,"stretto_voices":0,"combination":[],"aug_dim":"","rhythm_ratio":1.0,"mirror":false,"chromatic_density":0.286,"complexity":0.566,"dissonance":0.18},{"voice":3,"pitch":52,"start":277.6361,"duration":0.5455,"velocity":127,"measure":128,"beat":2.0,"subject_pos":-1,"motif":"","motif_pos":-1,"best_pos":4,"similarity":0.571,"stretto":false,"stretto_voices":0,"combination":[],"aug_dim":"","rhythm_ratio":1.0,"mirror":false,"chromatic_density":0.286,"complexity":0.566,"dissonance":0.18},{"voice":0,"pitch":67,"start":277.9088,"duration":0.2727,"velocity":127,"measure":128,"beat":2.5,"subject_pos":-1,"motif":"","motif_pos":-1,"best_pos":5,"similarity":0.471,"stretto":false,"stretto_voices":0,"combination":[],"aug_dim":"","rhythm_ratio":1.0,"mirror":false,"chromatic_density":0.286,"complexity":0.566,"dissonance":0.18},{"voice":0,"pitch":69,"start":278.1815,"duration":0.2727,"velocity":127,"measure":128,"beat":3.0,"subject_pos":-1,"motif":"","motif_pos":-1,"best_pos":1,"similarity":0.457,"stretto":false,"stretto_voices":0,"combination":[],"aug_dim":"","rhythm_ratio":1.0,"mirror":false,"chromatic_density":0.286,"complexity":0.566,"dissonance":0.18},{"voice":1,"pitch":62,"start":278.1815,"duration":2.1818,"velocity":127,"measure":128,"beat":3.0,"subject_pos":-1,"motif":"","motif_pos":-1,"best_pos":3,"similarity":0.393,"stretto":false,"stretto_voices":0,"combination":[],"aug_dim":"","rhythm_ratio":1.0,"mirror":false,"chromatic_density":0.286,"complexity":0.566,"dissonance":0.18},{"voice":2,"pitch":53,"start":278.1815,"duration":0.5455,"velocity":127,"measure":128,"beat":3.0,"subject_pos":-1,"motif":"","motif_pos":-1,"best_pos":2,"similarity":0.507,"stretto":false,"stretto_voices":0,"combination":[],"aug_dim":"","rhythm_ratio":1.0,"mirror":false,"chromatic_density":0.286,"complexity":0.566,"dissonance":0.18},{"voice":3,"pitch":53,"start":278.1815,"duration":0.5455,"velocity":127,"measure":128,"beat":3.0,"subject_pos":-1,"motif":"","motif_pos":-1,"best_pos":5,"similarity":0.661,"stretto":false,"stretto_voices":0,"combination":[],"aug_dim":"","rhythm_ratio":1.0,"mirror":false,"chromatic_density":0.286,"complexity":0.566,"dissonance":0.18},{"voice":0,"pitch":67,"start":278.4543,"duration":0.2727,"velocity":127,"measure":128,"beat":3.5,"subject_pos":-1,"motif":"","motif_pos":-1,"best_pos":2,"similarity":0.657,"stretto":false,"stretto_voices":0,"combination":[],"aug_dim":"","rhythm_ratio":1.0,"mirror":false,"chromatic_density":0.286,"complexity":0.566,"dissonance":0.18},{"voice":0,"pitch":65,"start":278.727,"duration":0.2727,"velocity":127,"measure":128,"beat":4.0,"subject_pos":-1,"motif":"","motif_pos":-1,"best_pos":3,"similarity":0.793,"stretto":false,"stretto_voices":0,"combination":[],"aug_dim":"","rhythm_ratio":1.0,"mirror":false,"chromatic_density":0.286,"complexity":0.566,"dissonance":0.18},{"voice":2,"pitch":58,"start":278.727,"duration":0.5455,"velocity":127,"measure":128,"beat":4.0,"subject_pos":-1,"motif":"","motif_pos":-1,"best_pos":1,"similarity":0.571,"stretto":false,"stretto_voices":0,"combination":[],"aug_dim":"","rhythm_ratio":1.0,"mirror":false,"chromatic_density":0.286,"complexity":0.566,"dissonance":0.18},{"voice":3,"pitch":55,"start":278.727,"duration":0.5455,"velocity":127,"measure":128,"beat":4.0,"subject_pos":-1,"motif":"","motif_pos":-1,"best_pos":6,"similarity":0.571,"stretto":false,"stretto_voices":0,"combination":[],"aug_dim":"","rhythm_ratio":1.0,"mirror":false,"chromatic_density":0.286,"complexity":0.566,"dissonance":0.18},{"voice":0,"pitch":64,"start":278.9997,"duration":0.2727,"velocity":127,"measure":128,"beat":4.5,"subject_pos":-1,"motif":"","motif_pos":-1,"best_pos":4,"similarity":0.864,"stretto":false,"stretto_voices":0,"combination":[],"aug_dim":"","rhythm_ratio":1.0,"mirror":false,"chromatic_density":0.286,"complexity":0.566,"dissonance":0.18},{"voice":0,"pitch":65,"start":279.2724,"duration":0.8182,"velocity":127,"measure":129,"beat":1.0,"subject_pos":-1,"motif":"","motif_pos":-1,"best_pos":5,"similarity":0.764,"stretto":false,"stretto_voices":0,"combination":[],"aug_dim":"","rhythm_ratio":1.0,"mirror":false,"chromatic_density":0.0,"complexity":0.508,"dissonance":0.17},{"voice":2,"pitch":57,"start":279.2724,"duration":1.6364,"velocity":127,"measure":129,"beat":1.0,"subject_pos":-1,"motif":"","motif_pos":-1,"best_pos":2,"similarity":0.571,"stretto":false,"stretto_voices":0,"combination":[],"aug_dim":"","rhythm_ratio":1.0,"mirror":false,"chromatic_density":0.0,"complexity":0.508,"dissonance":0.17},{"voice":3,"pitch":57,"start":279.2724,"duration":0.5455,"velocity":127,"measure":129,"beat":1.0,"subject_pos":-1,"motif":"","motif_pos":-1,"best_pos":6,"similarity":0.404,"stretto":false,"stretto_voices":0,"combination":[],"aug_dim":"","rhythm_ratio":1.0,"mirror":false,"chromatic_density":0.0,"complexity":0.508,"dissonance":0.17},{"voice":3,"pitch":55,"start":279.8179,"duration":0.5455,"velocity":127,"measure":129,"beat":2.0,"subject_pos":-1,"motif":"","motif_pos":-1,"best_pos":5,"similarity":0.329,"stretto":false,"stretto_voices":0,"combination":[],"aug_dim":"","rhythm_ratio":1.0,"mirror":false,"chromatic_density":0.0,"complexity":0.508,"dissonance":0.17},{"voice":0,"pitch":67,"start":280.0906,"duration":0.2727,"velocity":127,"measure":129,"beat":2.5,"subject_pos":-1,"motif":"","motif_pos":-1,"best_pos":6,"similarity":0.529,"stretto":false,"stretto_voices":0,"combination":[],"aug_dim":"","rhythm_ratio":1.0,"mirror":false,"chromatic_density":0.0,"complexity":0.508,"dissonance":0.17},{"voice":0,"pitch":64,"start":280.3634,"duration":0.8182,"velocity":127,"measure":129,"beat":3.0,"subject_pos":-1,"motif":"","motif_pos":-1,"best_pos":3,"similarity":0.521,"stretto":false,"stretto_voices":0,"combination":[],"aug_dim":"","rhythm_ratio":1.0,"mirror":false,"chromatic_density":0.0,"complexity":0.508,"dissonance":0.17},{"voice":1,"pitch":61,"start":280.3634,"duration":1.0909,"velocity":127,"measure":129,"beat":3.0,"subject_pos":-1,"motif":"","motif_pos":-1,"best_pos":4,"similarity":0.336,"stretto":false,"stretto_voices":0,"combination":[],"aug_dim":"","rhythm_ratio":1.0,"mirror":false,"chromatic_density":0.0,"complexity":0.508,"dissonance":0.17},{"voice":3,"pitch":57,"start":280.3634,"duration":0.5455,"velocity":127,"measure":129,"beat":3.0,"subject_pos":-1,"motif":"","motif_pos":-1,"best_pos":6,"similarity":0.307,"stretto":false,"stretto_voices":0,"combination":[],"aug_dim":"","rhythm_ratio":1.0,"mirror":false,"chromatic_density":0.0,"complexity":0.508,"dissonance":0.17},{"voice":2,"pitch":55,"start":280.9088,"duration":0.5455,"velocity":127,"measure":129,"beat":4.0,"subject_pos":-1,"motif":"","motif_pos":-1,"best_pos":3,"similarity":0.571,"stretto":false,"stretto_voices":0,"combination":[],"aug_dim":"","rhythm_ratio":1.0,"mirror":false,"chromatic_density":0.0,"complexity":0.508,"dissonance":0.17},{"voice":3,"pitch":45,"start":280.9088,"duration":0.5455,"velocity":127,"measure":129,"beat":4.0,"subject_pos":-1,"motif":"","motif_pos":-1,"best_pos":0,"similarity":0.286,"stretto":false,"stretto_voices":0,"combination":[],"aug_dim":"","rhythm_ratio":1.0,"mirror":false,"chromatic_density":0.0,"complexity":0.508,"dissonance":0.17},{"voice":0,"pitch":62,"start":281.1815,"duration":0.2727,"velocity":127,"measure":129,"beat":4.5,"subject_pos":-1,"motif":"","motif_pos":-1,"best_pos":4,"similarity":0.436,"stretto":false,"stretto_voices":0,"combination":[],"aug_dim":"","rhythm_ratio":1.0,"mirror":false,"chromatic_density":0.0,"complexity":0.508,"dissonance":0.17},{"voice":0,"pitch":62,"start":281.4543,"duration":2.1818,"velocity":127,"measure":130,"beat":1.0,"subject_pos":-1,"motif":"","motif_pos":-1,"best_pos":5,"similarity":0.286,"stretto":false,"stretto_voices":0,"combination":[],"aug_dim":"","rhythm_ratio":1.0,"mirror":false,"chromatic_density":0.0,"complexity":0.3,"dissonance":0.0},{"voice":1,"pitch":57,"start":281.4543,"duration":2.1818,"velocity":127,"measure":130,"beat":1.0,"subject_pos":-1,"motif":"","motif_pos":-1,"best_pos":2,"similarity":0.286,"stretto":false,"stretto_voices":0,"combination":[],"aug_dim":"","rhythm_ratio":1.0,"mirror":false,"chromatic_density":0.0,"complexity":0.3,"dissonance":0.0},{"voice":2,"pitch":54,"start":281.4543,"duration":2.1818,"velocity":127,"measure":130,"beat":1.0,"subject_pos":-1,"motif":"","motif_pos":-1,"best_pos":4,"similarity":0.393,"stretto":false,"stretto_voices":0,"combination":[],"aug_dim":"","rhythm_ratio":1.0,"mirror":false,"chromatic_density":0.0,"complexity":0.3,"dissonance":0.0},{"voice":3,"pitch":50,"start":281.4543,"duration":2.1818,"velocity":127,"measure":130,"beat":1.0,"subject_pos":-1,"motif":"","motif_pos":-1,"best_pos":1,"similarity":0.286,"stretto":false,"stretto_voices":0,"combination":[],"aug_dim":"","rhythm_ratio":1.0,"mirror":false,"chromatic_density":0.0,"complexity":0.3,"dissonance":0.0}],"chromatic_density":[{"measure":1,"density":0.0,"chromatic_count":0,"interval_count":1},{"measure":2,"density":0.2,"chromatic_count":1,"interval_count":5},{"measure":3,"density":0.571,"chromatic_count":4,"interval_count":7},{"measure":4,"density":0.571,"chromatic_count":4,"interval_count":7},{"measure":5,"density":0.333,"chromatic_count":1,"interval_count":3},{"measure":6,"density":0.143,"chromatic_count":1,"interval_count":7},{"measure":7,"density":0.286,"chromatic_count":2,"interval_count":7},{"measure":8,"density":0.375,"chromatic_count":3,"interval_count":8},{"measure":9,"density":0.125,"chromatic_count":1,"interval_count":8},{"measure":10,"density":0.417,"chromatic_count":5,"interval_count":12},{"measure":11,"density":0.417,"chromatic_count":5,"interval_count":12},{"measure":12,"density":0.571,"chromatic_count":4,"interval_count":7},{"measure":13,"density":0.25,"chromatic_count":2,"interval_count":8},{"measure":14,"density":0.125,"chromatic_count":1,"interval_count":8},{"measure":15,"density":0.25,"chromatic_count":2,"interval_count":8},{"measure":16,"density":0.125,"chromatic_count":1,"interval_count":8},{"measure":17,"density":0.4,"chromatic_count":4,"interval_count":10},{"measure":18,"density":0.364,"chromatic_count":4,"interval_count":11},{"measure":19,"density":0.429,"chromatic_count":3,"interval_count":7},{"measure":20,"density":0.231,"chromatic_count":3,"interval_count":13},{"measure":21,"density":0.308,"chromatic_count":4,"interval_count":13},{"measure":22,"density":0.3,"chromatic_count":3,"interval_count":10},{"measure":23,"density":0.167,"chromatic_count":2,"interval_count":12},{"measure":24,"density":0.429,"chromatic_count":6,"interval_count":14},{"measure":25,"density":0.462,"chromatic_count":6,"interval_count":13},{"measure":26,"density":0.385,"chromatic_count":5,"interval_count":13},{"measure":27,"density":0.1,"chromatic_count":1,"interval_count":10},{"measure":28,"density":0.182,"chromatic_count":2,"interval_count":11},{"measure":29,"density":0.4,"chromatic_count":4,"interval_count":10},{"measure":30,"density":0.2,"chromatic_count":2,"interval_count":10},{"measure":31,"density":0.111,"chromatic_count":1,"interval_count":9},{"measure":32,"density":0.214,"chromatic_count":3,"interval_count":14},{"measure":33,"density":0.25,"chromatic_count":2,"interval_count":8},{"measure":34,"density":0.2,"chromatic_count":2,"interval_count":10},{"measure":35,"density":0.2,"chromatic_count":2,"interval_count":10},{"measure":36,"density":0.286,"chromatic_count":2,"interval_count":7},{"measure":37,"density":0.4,"chromatic_count":4,"interval_count":10},{"measure":38,"density":0.5,"chromatic_count":5,"interval_count":10},{"measure":39,"density":0.429,"chromatic_count":3,"interval_count":7},{"measure":40,"density":0.1,"chromatic_count":1,"interval_count":10},{"measure":41,"density":0.182,"chromatic_count":2,"interval_count":11},{"measure":42,"density":0.455,"chromatic_count":5,"interval_count":11},{"measure":43,"density":0.2,"chromatic_count":2,"interval_count":10},{"measure":44,"density":0.231,"chromatic_count":3,"interval_count":13},{"measure":45,"density":0.375,"chromatic_count":3,"interval_count":8},{"measure":46,"density":0.429,"chromatic_count":3,"interval_count":7},{"measure":47,"density":0.0,"chromatic_count":0,"interval_count":11},{"measure":48,"density":0.3,"chromatic_count":3,"interval_count":10},{"measure":49,"density":0.333,"chromatic_count":2,"interval_count":6},{"measure":50,"density":0.3,"chromatic_count":3,"interval_count":10},{"measure":51,"density":0.308,"chromatic_count":4,"interval_count":13},{"measure":52,"density":0.375,"chromatic_count":3,"interval_count":8},{"measure":53,"density":0.333,"chromatic_count":3,"interval_count":9},{"measure":54,"density":0.222,"chromatic_count":2,"interval_count":9},{"measure":55,"density":0.3,"chromatic_count":3,"interval_count":10},{"measure":56,"density":0.091,"chromatic_count":1,"interval_count":11},{"measure":57,"density":0.231,"chromatic_count":3,"interval_count":13},{"measure":58,"density":0.533,"chromatic_count":8,"interval_count":15},{"measure":59,"density":0.375,"chromatic_count":3,"interval_count":8},{"measure":60,"density":0.25,"chromatic_count":2,"interval_count":8},{"measure":61,"density":0.4,"chromatic_count":4,"interval_count":10},{"measure":62,"density":0.5,"chromatic_count":5,"interval_count":10},{"measure":63,"density":0.222,"chromatic_count":2,"interval_count":9},{"measure":64,"density":0.083,"chromatic_count":1,"interval_count":12},{"measure":65,"density":0.154,"chromatic_count":2,"interval_count":13},{"measure":66,"density":0.25,"chromatic_count":2,"interval_count":8},{"measure":67,"density":0.444,"chromatic_count":4,"interval_count":9},{"measure":68,"density":0.111,"chromatic_count":1,"interval_count":9},{"measure":69,"density":0.444,"chromatic_count":4,"interval_count":9},{"measure":70,"density":0.333,"chromatic_count":3,"interval_count":9},{"measure":71,"density":0.222,"chromatic_count":2,"interval_count":9},{"measure":72,"density":0.222,"chromatic_count":2,"interval_count":9},{"measure":73,"density":0.125,"chromatic_count":1,"interval_count":8},{"measure":74,"density":0.333,"chromatic_count":3,"interval_count":9},{"measure":75,"density":0.0,"chromatic_count":0,"interval_count":10},{"measure":76,"density":0.571,"chromatic_count":4,"interval_count":7},{"measure":77,"density":0.4,"chromatic_count":4,"interval_count":10},{"measure":78,"density":0.091,"chromatic_count":1,"interval_count":11},{"measure":79,"density":0.231,"chromatic_count":3,"interval_count":13},{"measure":80,"density":0.667,"chromatic_count":8,"interval_count":12},{"measure":81,"density":0.444,"chromatic_count":4,"interval_count":9},{"measure":82,"density":0.222,"chromatic_count":2,"interval_count":9},{"measure":83,"density":0.222,"chromatic_count":2,"interval_count":9},{"measure":84,"density":0.222,"chromatic_count":2,"interval_count":9},{"measure":85,"density":0.222,"chromatic_count":2,"interval_count":9},{"measure":86,"density":0.4,"chromatic_count":4,"interval_count":10},{"measure":87,"density":0.364,"chromatic_count":4,"interval_count":11},{"measure":88,"density":0.538,"chromatic_count":7,"interval_count":13},{"measure":89,"density":0.231,"chromatic_count":3,"interval_count":13},{"measure":90,"density":0.455,"chromatic_count":5,"interval_count":11},{"measure":91,"density":0.1,"chromatic_count":1,"interval_count":10},{"measure":92,"density":0.364,"chromatic_count":4,"interval_count":11},{"measure":93,"density":0.333,"chromatic_count":4,"interval_count":12},{"measure":94,"density":0.1,"chromatic_count":1,"interval_count":10},{"measure":95,"density":0.182,"chromatic_count":2,"interval_count":11},{"measure":96,"density":0.182,"chromatic_count":2,"interval_count":11},{"measure":97,"density":0.3,"chromatic_count":3,"interval_count":10},{"measure":98,"density":0.462,"chromatic_count":6,"interval_count":13},{"measure":99,"density":0.125,"chromatic_count":1,"interval_count":8},{"measure":100,"density":0.25,"chromatic_count":2,"interval_count":8},{"measure":101,"density":0.25,"chromatic_count":2,"interval_count":8},{"measure":102,"density":0.667,"chromatic_count":8,"interval_count":12},{"measure":103,"density":0.2,"chromatic_count":2,"interval_count":10},{"measure":104,"density":0.091,"chromatic_count":1,"interval_count":11},{"measure":105,"density":0.455,"chromatic_count":5,"interval_count":11},{"measure":106,"density":0.273,"chromatic_count":3,"interval_count":11},{"measure":107,"density":0.6,"chromatic_count":6,"interval_count":10},{"measure":108,"density":0.222,"chromatic_count":2,"interval_count":9},{"measure":109,"density":0.308,"chromatic_count":4,"interval_count":13},{"measure":110,"density":0.286,"chromatic_count":2,"interval_count":7},{"measure":111,"density":0.273,"chromatic_count":3,"interval_count":11},{"measure":112,"density":0.444,"chromatic_count":4,"interval_count":9},{"measure":113,"density":0.364,"chromatic_count":4,"interval_count":11},{"measure":114,"density":0.333,"chromatic_count":3,"interval_count":9},{"measure":115,"density":0.154,"chromatic_count":2,"interval_count":13},{"measure":116,"density":0.25,"chromatic_count":2,"interval_count":8},{"measure":117,"density":0.2,"chromatic_count":2,"interval_count":10},{"measure":118,"density":0.222,"chromatic_count":2,"interval_count":9},{"measure":119,"density":0.3,"chromatic_count":3,"interval_count":10},{"measure":120,"density":0.167,"chromatic_count":1,"interval_count":6},{"measure":121,"density":0.5,"chromatic_count":5,"interval_count":10},{"measure":122,"density":0.556,"chromatic_count":5,"interval_count":9},{"measure":123,"density":0.25,"chromatic_count":2,"interval_count":8},{"measure":124,"density":0.2,"chromatic_count":2,"interval_count":10},{"measure":125,"density":0.222,"chromatic_count":2,"interval_count":9},{"measure":126,"density":0.364,"chromatic_count":4,"interval_count":11},{"measure":127,"density":0.429,"chromatic_count":3,"interval_count":7},{"measure":128,"density":0.286,"chromatic_count":4,"interval_count":14},{"measure":129,"density":0.0,"chromatic_count":0,"interval_count":7},{"measure":130,"density":0.0,"chromatic_count":0,"interval_count":0}],"complexity":[{"measure":1,"complexity":0.396,"voice_count":1,"note_density":0.062,"motif_saturation":1.0,"interval_diversity":0.143,"rhythm_variety":0.333},{"measure":2,"complexity":0.418,"voice_count":1,"note_density":0.188,"motif_saturation":1.0,"interval_diversity":0.286,"rhythm_variety":0.167},{"measure":3,"complexity":0.233,"voice_count":1,"note_density":0.25,"motif_saturation":0.125,"interval_diversity":0.429,"rhythm_variety":0.167},{"measure":4,"complexity":0.358,"voice_count":1,"note_density":0.25,"motif_saturation":0.625,"interval_diversity":0.429,"rhythm_variety":0.167},{"measure":5,"complexity":0.208,"voice_count":1,"note_density":0.156,"motif_saturation":0.0,"interval_diversity":0.429,"rhythm_variety":0.333},{"measure":6,"complexity":0.202,"voice_count":1,"note_density":0.25,"motif_saturation":0.0,"interval_diversity":0.429,"rhythm_variety":0.167},{"measure":7,"complexity":0.202,"voice_count":1,"note_density":0.25,"motif_saturation":0.0,"interval_diversity":0.429,"rhythm_variety":0.167},{"measure":8,"complexity":0.423,"voice_count":2,"note_density":0.312,"motif_saturation":0.3,"interval_diversity":0.571,"rhythm_variety":0.5},{"measure":9,"complexity":0.523,"voice_count":2,"note_density":0.312,"motif_saturation":0.8,"interval_diversity":0.571,"rhythm_variety":0.333},{"measure":10,"complexity":0.366,"voice_count":2,"note_density":0.438,"motif_saturation":0.071,"interval_diversity":0.571,"rhythm_variety":0.333},{"measure":11,"complexity":0.438,"voice_count":2,"note_density":0.438,"motif_saturation":0.357,"interval_diversity":0.571,"rhythm_variety":0.333},{"measure":12,"complexity":0.377,"voice_count":2,"note_density":0.312,"motif_saturation":0.3,"interval_diversity":0.429,"rhythm_variety":0.333},{"measure":13,"complexity":0.377,"voice_count":2,"note_density":0.312,"motif_saturation":0.2,"interval_diversity":0.429,"rhythm_variety":0.5},{"measure":14,"complexity":0.352,"voice_count":2,"note_density":0.312,"motif_saturation":0.1,"interval_diversity":0.429,"rhythm_variety":0.5},{"measure":15,"complexity":0.532,"voice_count":3,"note_density":0.375,"motif_saturation":0.333,"interval_diversity":0.571,"rhythm_variety":0.667},{"measure":16,"complexity":0.553,"voice_count":3,"note_density":0.344,"motif_saturation":0.545,"interval_diversity":0.571,"rhythm_variety":0.5},{"measure":17,"complexity":0.402,"voice_count":3,"note_density":0.406,"motif_saturation":0.077,"interval_diversity":0.429,"rhythm_variety":0.333},{"measure":18,"complexity":0.546,"voice_count":3,"note_density":0.438,"motif_saturation":0.357,"interval_diversity":0.714,"rhythm_variety":0.5},{"measure":19,"complexity":0.402,"voice_count":3,"note_density":0.375,"motif_saturation":0.0,"interval_diversity":0.429,"rhythm_variety":0.5},{"measure":20,"complexity":0.485,"voice_count":3,"note_density":0.5,"motif_saturation":0.062,"interval_diversity":0.714,"rhythm_variety":0.5},{"measure":21,"complexity":0.501,"voice_count":3,"note_density":0.5,"motif_saturation":0.125,"interval_diversity":0.714,"rhythm_variety":0.5},{"measure":22,"complexity":0.58,"voice_count":4,"note_density":0.438,"motif_saturation":0.143,"interval_diversity":0.714,"rhythm_variety":0.667},{"measure":23,"complexity":0.604,"voice_count":4,"note_density":0.5,"motif_saturation":0.375,"interval_diversity":0.571,"rhythm_variety":0.5},{"measure":24,"complexity":0.537,"voice_count":4,"note_density":0.562,"motif_saturation":0.056,"interval_diversity":0.571,"rhythm_variety":0.5},{"measure":25,"complexity":0.48,"voice_count":3,"note_density":0.5,"motif_saturation":0.312,"interval_diversity":0.429,"rhythm_variety":0.333},{"measure":26,"complexity":0.504,"voice_count":3,"note_density":0.531,"motif_saturation":0.0,"interval_diversity":0.571,"rhythm_variety":0.833},{"measure":27,"complexity":0.429,"voice_count":3,"note_density":0.406,"motif_saturation":0.0,"interval_diversity":0.571,"rhythm_variety":0.5},{"measure":28,"complexity":0.457,"voice_count":3,"note_density":0.438,"motif_saturation":0.0,"interval_diversity":0.714,"rhythm_variety":0.5},{"measure":29,"complexity":0.461,"voice_count":3,"note_density":0.438,"motif_saturation":0.0,"interval_diversity":0.571,"rhythm_variety":0.667},{"measure":30,"complexity":0.493,"voice_count":3,"note_density":0.406,"motif_saturation":0.154,"interval_diversity":0.571,"rhythm_variety":0.667},{"measure":31,"complexity":0.465,"voice_count":3,"note_density":0.375,"motif_saturation":0.083,"interval_diversity":0.714,"rhythm_variety":0.5},{"measure":32,"complexity":0.459,"voice_count":3,"note_density":0.531,"motif_saturation":0.118,"interval_diversity":0.571,"rhythm_variety":0.333},{"measure":33,"complexity":0.443,"voice_count":3,"note_density":0.344,"motif_saturation":0.091,"interval_diversity":0.429,"rhythm_variety":0.667},{"measure":34,"complexity":0.472,"voice_count":3,"note_density":0.406,"motif_saturation":0.0,"interval_diversity":0.857,"rhythm_variety":0.5},{"measure":35,"complexity":0.666,"voice_count":4,"note_density":0.438,"motif_saturation":0.214,"interval_diversity":1.0,"rhythm_variety":0.833},{"measure":36,"complexity":0.665,"voice_count":4,"note_density":0.344,"motif_saturation":0.727,"interval_diversity":0.429,"rhythm_variety":0.667},{"measure":37,"complexity":0.531,"voice_count":3,"note_density":0.406,"motif_saturation":0.308,"interval_diversity":0.571,"rhythm_variety":0.667},{"measure":38,"complexity":0.523,"voice_count":3,"note_density":0.406,"motif_saturation":0.462,"interval_diversity":0.429,"rhythm_variety":0.5},{"measure":39,"complexity":0.418,"voice_count":3,"note_density":0.344,"motif_saturation":0.091,"interval_diversity":0.429,"rhythm_variety":0.5},{"measure":40,"complexity":0.489,"voice_count":3,"note_density":0.406,"motif_saturation":0.154,"interval_diversity":0.714,"rhythm_variety":0.5},{"measure":41,"complexity":0.496,"voice_count":3,"note_density":0.438,"motif_saturation":0.071,"interval_diversity":0.857,"rhythm_variety":0.5},{"measure":42,"complexity":0.442,"voice_count":3,"note_density":0.469,"motif_saturation":0.0,"interval_diversity":0.571,"rhythm_variety":0.5},{"measure":43,"complexity":0.387,"voice_count":3,"note_density":0.406,"motif_saturation":0.0,"interval_diversity":0.286,"rhythm_variety":0.5},{"measure":44,"complexity":0.402,"voice_count":3,"note_density":0.5,"motif_saturation":0.0,"interval_diversity":0.429,"rhythm_variety":0.333},{"measure":45,"complexity":0.442,"voice_count":3,"note_density":0.344,"motif_saturation":0.0,"interval_diversity":0.571,"rhythm_variety":0.667},{"measure":46,"complexity":0.396,"voice_count":3,"note_density":0.344,"motif_saturation":0.0,"interval_diversity":0.429,"rhythm_variety":0.5},{"measure":47,"complexity":0.414,"voice_count":3,"note_density":0.438,"motif_saturation":0.0,"interval_diversity":0.429,"rhythm_variety":0.5},{"measure":48,"complexity":0.429,"voice_count":3,"note_density":0.406,"motif_saturation":0.0,"interval_diversity":0.571,"rhythm_variety":0.5},{"measure":49,"complexity":0.414,"voice_count":3,"note_density":0.312,"motif_saturation":0.0,"interval_diversity":0.429,"rhythm_variety":0.667},{"measure":50,"complexity":0.474,"voice_count":3,"note_density":0.406,"motif_saturation":0.077,"interval_diversity":0.571,"rhythm_variety":0.667},{"measure":51,"complexity":0.433,"voice_count":3,"note_density":0.5,"motif_saturation":0.125,"interval_diversity":0.429,"rhythm_variety":0.333},{"measure":52,"complexity":0.427,"voice_count":3,"note_density":0.375,"motif_saturation":0.0,"interval_diversity":0.429,"rhythm_variety":0.667},{"measure":53,"complexity":0.402,"voice_count":3,"note_density":0.375,"motif_saturation":0.0,"interval_diversity":0.429,"rhythm_variety":0.5},{"measure":54,"complexity":0.402,"voice_count":3,"note_density":0.375,"motif_saturation":0.0,"interval_diversity":0.429,"rhythm_variety":0.5},{"measure":55,"complexity":0.408,"voice_count":3,"note_density":0.406,"motif_saturation":0.0,"interval_diversity":0.429,"rhythm_variety":0.5},{"measure":56,"complexity":0.414,"voice_count":3,"note_density":0.438,"motif_saturation":0.0,"interval_diversity":0.429,"rhythm_variety":0.5},{"measure":57,"complexity":0.423,"voice_count":3,"note_density":0.5,"motif_saturation":0.0,"interval_diversity":0.571,"rhythm_variety":0.333},{"measure":58,"complexity":0.462,"voice_count":3,"note_density":0.562,"motif_saturation":0.278,"interval_diversity":0.286,"rhythm_variety":0.333},{"measure":59,"complexity":0.598,"voice_count":4,"note_density":0.375,"motif_saturation":0.25,"interval_diversity":0.571,"rhythm_variety":0.833},{"measure":60,"complexity":0.568,"voice_count":3,"note_density":0.375,"motif_saturation":0.667,"interval_diversity":0.429,"rhythm_variety":0.5},{"measure":61,"complexity":0.506,"voice_count":3,"note_density":0.406,"motif_saturation":0.308,"interval_diversity":0.571,"rhythm_variety":0.5},{"measure":62,"complexity":0.523,"voice_count":3,"note_density":0.406,"motif_saturation":0.462,"interval_diversity":0.429,"rhythm_variety":0.5},{"measure":63,"complexity":0.495,"voice_count":3,"note_density":0.406,"motif_saturation":0.077,"interval_diversity":0.714,"rhythm_variety":0.667},{"measure":64,"complexity":0.513,"voice_count":3,"note_density":0.469,"motif_saturation":0.2,"interval_diversity":0.714,"rhythm_variety":0.5},{"measure":65,"complexity":0.495,"voice_count":3,"note_density":0.5,"motif_saturation":0.188,"interval_diversity":0.571,"rhythm_variety":0.5},{"measure":66,"complexity":0.374,"voice_count":3,"note_density":0.344,"motif_saturation":0.0,"interval_diversity":0.286,"rhythm_variety":0.5},{"measure":67,"complexity":0.38,"voice_count":3,"note_density":0.375,"motif_saturation":0.0,"interval_diversity":0.286,"rhythm_variety":0.5},{"measure":68,"complexity":0.423,"voice_count":3,"note_density":0.375,"motif_saturation":0.0,"interval_diversity":0.571,"rhythm_variety":0.5},{"measure":69,"complexity":0.506,"voice_count":3,"note_density":0.375,"motif_saturation":0.417,"interval_diversity":0.429,"rhythm_variety":0.5},{"measure":70,"complexity":0.42,"voice_count":3,"note_density":0.375,"motif_saturation":0.0,"interval_diversity":0.714,"rhythm_variety":0.333},{"measure":71,"complexity":0.423,"voice_count":3,"note_density":0.375,"motif_saturation":0.0,"interval_diversity":0.571,"rhythm_variety":0.5},{"measure":72,"complexity":0.377,"voice_count":3,"note_density":0.375,"motif_saturation":0.0,"interval_diversity":0.429,"rhythm_variety":0.333},{"measure":73,"complexity":0.557,"voice_count":4,"note_density":0.375,"motif_saturation":0.083,"interval_diversity":0.571,"rhythm_variety":0.833},{"measure":74,"complexity":0.49,"voice_count":4,"note_density":0.406,"motif_saturation":0.077,"interval_diversity":0.429,"rhythm_variety":0.5},{"measure":75,"complexity":0.541,"voice_count":4,"note_density":0.438,"motif_saturation":0.071,"interval_diversity":0.571,"rhythm_variety":0.667},{"measure":76,"complexity":0.611,"voice_count":4,"note_density":0.375,"motif_saturation":0.5,"interval_diversity":0.571,"rhythm_variety":0.5},{"measure":77,"complexity":0.5,"voice_count":4,"note_density":0.469,"motif_saturation":0.067,"interval_diversity":0.429,"rhythm_variety":0.5},{"measure":78,"complexity":0.539,"voice_count":3,"note_density":0.438,"motif_saturation":0.143,"interval_diversity":0.857,"rhythm_variety":0.667},{"measure":79,"complexity":0.433,"voice_count":3,"note_density":0.5,"motif_saturation":0.125,"interval_diversity":0.429,"rhythm_variety":0.333},{"measure":80,"complexity":0.639,"voice_count":4,"note_density":0.5,"motif_saturation":0.5,"interval_diversity":0.429,"rhythm_variety":0.667},{"measure":81,"complexity":0.607,"voice_count":4,"note_density":0.406,"motif_saturation":0.462,"interval_diversity":0.571,"rhythm_variety":0.5},{"measure":82,"complexity":0.398,"voice_count":3,"note_density":0.375,"motif_saturation":0.0,"interval_diversity":0.571,"rhythm_variety":0.333},{"measure":83,"complexity":0.423,"voice_count":3,"note_density":0.375,"motif_saturation":0.0,"interval_diversity":0.571,"rhythm_variety":0.5},{"measure":84,"complexity":0.419,"voice_count":3,"note_density":0.375,"motif_saturation":0.083,"interval_diversity":0.571,"rhythm_variety":0.333},{"measure":85,"complexity":0.423,"voice_count":3,"note_density":0.375,"motif_saturation":0.083,"interval_diversity":0.429,"rhythm_variety":0.5},{"measure":86,"complexity":0.427,"voice_count":3,"note_density":0.406,"motif_saturation":0.077,"interval_diversity":0.429,"rhythm_variety":0.5},{"measure":87,"complexity":0.461,"voice_count":3,"note_density":0.438,"motif_saturation":0.0,"interval_diversity":0.571,"rhythm_variety":0.667},{"measure":88,"complexity":0.48,"voice_count":3,"note_density":0.5,"motif_saturation":0.312,"interval_diversity":0.429,"rhythm_variety":0.333},{"measure":89,"complexity":0.578,"voice_count":4,"note_density":0.531,"motif_saturation":0.059,"interval_diversity":0.714,"rhythm_variety":0.667},{"measure":90,"complexity":0.503,"voice_count":4,"note_density":0.469,"motif_saturation":0.067,"interval_diversity":0.286,"rhythm_variety":0.667},{"measure":91,"complexity":0.541,"voice_count":4,"note_density":0.438,"motif_saturation":0.071,"interval_diversity":0.571,"rhythm_variety":0.667},{"measure":92,"complexity":0.647,"voice_count":4,"note_density":0.5,"motif_saturation":0.375,"interval_diversity":0.857,"rhythm_variety":0.5},{"measure":93,"complexity":0.578,"voice_count":4,"note_density":0.531,"motif_saturation":0.059,"interval_diversity":0.714,"rhythm_variety":0.667},{"measure":94,"complexity":0.512,"voice_count":4,"note_density":0.438,"motif_saturation":0.143,"interval_diversity":0.429,"rhythm_variety":0.5},{"measure":95,"complexity":0.584,"voice_count":4,"note_density":0.469,"motif_saturation":0.133,"interval_diversity":0.714,"rhythm_variety":0.667},{"measure":96,"complexity":0.513,"voice_count":4,"note_density":0.469,"motif_saturation":0.133,"interval_diversity":0.571,"rhythm_variety":0.333},{"measure":97,"complexity":0.498,"voice_count":4,"note_density":0.438,"motif_saturation":0.0,"interval_diversity":0.571,"rhythm_variety":0.5},{"measure":98,"complexity":0.458,"voice_count":3,"note_density":0.5,"motif_saturation":0.312,"interval_diversity":0.286,"rhythm_variety":0.333},{"measure":99,"complexity":0.535,"voice_count":4,"note_density":0.375,"motif_saturation":0.083,"interval_diversity":0.429,"rhythm_variety":0.833},{"measure":100,"complexity":0.507,"voice_count":4,"note_density":0.375,"motif_saturation":0.083,"interval_diversity":0.571,"rhythm_variety":0.5},{"measure":101,"complexity":0.532,"voice_count":4,"note_density":0.375,"motif_saturation":0.083,"interval_diversity":0.571,"rhythm_variety":0.667},{"measure":102,"complexity":0.583,"voice_count":4,"note_density":0.5,"motif_saturation":0.375,"interval_diversity":0.429,"rhythm_variety":0.5},{"measure":103,"complexity":0.525,"voice_count":4,"note_density":0.469,"motif_saturation":0.067,"interval_diversity":0.429,"rhythm_variety":0.667},{"measure":104,"complexity":0.538,"voice_count":4,"note_density":0.469,"motif_saturation":0.133,"interval_diversity":0.571,"rhythm_variety":0.5},{"measure":105,"complexity":0.55,"voice_count":4,"note_density":0.469,"motif_saturation":0.267,"interval_diversity":0.429,"rhythm_variety":0.5},{"measure":106,"complexity":0.414,"voice_count":3,"note_density":0.438,"motif_saturation":0.0,"interval_diversity":0.429,"rhythm_variety":0.5},{"measure":107,"complexity":0.483,"voice_count":3,"note_density":0.406,"motif_saturation":0.385,"interval_diversity":0.286,"rhythm_variety":0.5},{"measure":108,"complexity":0.38,"voice_count":3,"note_density":0.375,"motif_saturation":0.0,"interval_diversity":0.286,"rhythm_variety":0.5},{"measure":109,"complexity":0.38,"voice_count":3,"note_density":0.5,"motif_saturation":0.0,"interval_diversity":0.286,"rhythm_variety":0.333},{"measure":110,"complexity":0.414,"voice_count":3,"note_density":0.312,"motif_saturation":0.0,"interval_diversity":0.429,"rhythm_variety":0.667},{"measure":111,"complexity":0.436,"voice_count":3,"note_density":0.438,"motif_saturation":0.0,"interval_diversity":0.571,"rhythm_variety":0.5},{"measure":112,"complexity":0.501,"voice_count":4,"note_density":0.406,"motif_saturation":0.308,"interval_diversity":0.286,"rhythm_variety":0.333},{"measure":113,"complexity":0.504,"voice_count":3,"note_density":0.438,"motif_saturation":0.357,"interval_diversity":0.429,"rhythm_variety":0.5},{"measure":114,"complexity":0.465,"voice_count":4,"note_density":0.406,"motif_saturation":0.077,"interval_diversity":0.429,"rhythm_variety":0.333},{"measure":115,"complexity":0.439,"voice_count":3,"note_density":0.5,"motif_saturation":0.062,"interval_diversity":0.571,"rhythm_variety":0.333},{"measure":116,"complexity":0.552,"voice_count":4,"note_density":0.375,"motif_saturation":0.167,"interval_diversity":0.571,"rhythm_variety":0.667},{"measure":117,"complexity":0.523,"voice_count":4,"note_density":0.438,"motif_saturation":0.0,"interval_diversity":0.571,"rhythm_variety":0.667},{"measure":118,"complexity":0.398,"voice_count":3,"note_density":0.375,"motif_saturation":0.0,"interval_diversity":0.571,"rhythm_variety":0.333},{"measure":119,"complexity":0.602,"voice_count":4,"note_density":0.438,"motif_saturation":0.214,"interval_diversity":0.571,"rhythm_variety":0.833},{"measure":120,"complexity":0.664,"voice_count":4,"note_density":0.344,"motif_saturation":0.636,"interval_diversity":0.571,"rhythm_variety":0.667},{"measure":121,"complexity":0.537,"voice_count":4,"note_density":0.438,"motif_saturation":0.143,"interval_diversity":0.429,"rhythm_variety":0.667},{"measure":122,"complexity":0.586,"voice_count":4,"note_density":0.406,"motif_saturation":0.462,"interval_diversity":0.429,"rhythm_variety":0.5},{"measure":123,"complexity":0.465,"voice_count":3,"note_density":0.375,"motif_saturation":0.083,"interval_diversity":0.714,"rhythm_variety":0.5},{"measure":124,"complexity":0.552,"voice_count":4,"note_density":0.438,"motif_saturation":0.214,"interval_diversity":0.571,"rhythm_variety":0.5},{"measure":125,"complexity":0.575,"voice_count":4,"note_density":0.406,"motif_saturation":0.231,"interval_diversity":0.571,"rhythm_variety":0.667},{"measure":126,"complexity":0.566,"voice_count":4,"note_density":0.469,"motif_saturation":0.333,"interval_diversity":0.429,"rhythm_variety":0.5},{"measure":127,"complexity":0.496,"voice_count":4,"note_density":0.406,"motif_saturation":0.0,"interval_diversity":0.429,"rhythm_variety":0.667},{"measure":128,"complexity":0.566,"voice_count":4,"note_density":0.562,"motif_saturation":0.0,"interval_diversity":0.857,"rhythm_variety":0.5},{"measure":129,"complexity":0.508,"voice_count":4,"note_density":0.344,"motif_saturation":0.0,"interval_diversity":0.429,"rhythm_variety":0.833},{"measure":130,"complexity":0.3,"voice_count":4,"note_density":0.125,"motif_saturation":0.0,"interval_diversity":0.0,"rhythm_variety":0.167}],"dissonance":[{"measure":1,"dissonance":0,"dissonant_pairs":0,"total_pairs":0},{"measure":2,"dissonance":0,"dissonant_pairs":0,"total_pairs":0},{"measure":3,"dissonance":0,"dissonant_pairs":0,"total_pairs":0},{"measure":4,"dissonance":0,"dissonant_pairs":0,"total_pairs":0},{"measure":5,"dissonance":0,"dissonant_pairs":0,"total_pairs":0},{"measure":6,"dissonance":0,"dissonant_pairs":0,"total_pairs":0},{"measure":7,"dissonance":0,"dissonant_pairs":0,"total_pairs":0},{"measure":8,"dissonance":0.0,"dissonant_pairs":0,"total_pairs":6},{"measure":9,"dissonance":0.217,"dissonant_pairs":1.3,"total_pairs":6},{"measure":10,"dissonance":0.163,"dissonant_pairs":1.3,"total_pairs":8},{"measure":11,"dissonance":0.163,"dissonant_pairs":1.3,"total_pairs":8},{"measure":12,"dissonance":0.0,"dissonant_pairs":0,"total_pairs":6},{"measure":13,"dissonance":0.217,"dissonant_pairs":1.3,"total_pairs":6},{"measure":14,"dissonance":0.114,"dissonant_pairs":0.8,"total_pairs":7},{"measure":15,"dissonance":0.072,"dissonant_pairs":1.3,"total_pairs":18},{"measure":16,"dissonance":0.193,"dissonant_pairs":2.9,"total_pairs":15},{"measure":17,"dissonance":0.094,"dissonant_pairs":1.5,"total_pairs":16},{"measure":18,"dissonance":0.113,"dissonant_pairs":1.8,"total_pairs":16},{"measure":19,"dissonance":0.231,"dissonant_pairs":3.7,"total_pairs":16},{"measure":20,"dissonance":0.153,"dissonant_pairs":2.6,"total_pairs":17},{"measure":21,"dissonance":0.182,"dissonant_pairs":3.1,"total_pairs":17},{"measure":22,"dissonance":0.094,"dissonant_pairs":3.0,"total_pairs":32},{"measure":23,"dissonance":0.168,"dissonant_pairs":5.2,"total_pairs":31},{"measure":24,"dissonance":0.097,"dissonant_pairs":3.5,"total_pairs":36},{"measure":25,"dissonance":0.192,"dissonant_pairs":2.3,"total_pairs":12},{"measure":26,"dissonance":0.133,"dissonant_pairs":3.6,"total_pairs":27},{"measure":27,"dissonance":0.256,"dissonant_pairs":4.1,"total_pairs":16},{"measure":28,"dissonance":0.212,"dissonant_pairs":5.1,"total_pairs":24},{"measure":29,"dissonance":0.13,"dissonant_pairs":2.6,"total_pairs":20},{"measure":30,"dissonance":0.1,"dissonant_pairs":1.6,"total_pairs":16},{"measure":31,"dissonance":0.167,"dissonant_pairs":2.0,"total_pairs":12},{"measure":32,"dissonance":0.113,"dissonant_pairs":1.8,"total_pairs":16},{"measure":33,"dissonance":0.15,"dissonant_pairs":1.8,"total_pairs":12},{"measure":34,"dissonance":0.081,"dissonant_pairs":1.3,"total_pairs":16},{"measure":35,"dissonance":0.067,"dissonant_pairs":2.8,"total_pairs":42},{"measure":36,"dissonance":0.054,"dissonant_pairs":1.5,"total_pairs":28},{"measure":37,"dissonance":0.146,"dissonant_pairs":3.5,"total_pairs":24},{"measure":38,"dissonance":0.0,"dissonant_pairs":0,"total_pairs":20},{"measure":39,"dissonance":0.176,"dissonant_pairs":3.7,"total_pairs":21},{"measure":40,"dissonance":0.108,"dissonant_pairs":2.6,"total_pairs":24},{"measure":41,"dissonance":0.167,"dissonant_pairs":4.0,"total_pairs":24},{"measure":42,"dissonance":0.311,"dissonant_pairs":5.6,"total_pairs":18},{"measure":43,"dissonance":0.137,"dissonant_pairs":3.3,"total_pairs":24},{"measure":44,"dissonance":0.071,"dissonant_pairs":1.0,"total_pairs":14},{"measure":45,"dissonance":0.075,"dissonant_pairs":1.5,"total_pairs":20},{"measure":46,"dissonance":0.083,"dissonant_pairs":1.5,"total_pairs":18},{"measure":47,"dissonance":0.167,"dissonant_pairs":4.0,"total_pairs":24},{"measure":48,"dissonance":0.137,"dissonant_pairs":3.3,"total_pairs":24},{"measure":49,"dissonance":0.247,"dissonant_pairs":4.7,"total_pairs":19},{"measure":50,"dissonance":0.083,"dissonant_pairs":2.0,"total_pairs":24},{"measure":51,"dissonance":0.159,"dissonant_pairs":3.5,"total_pairs":22},{"measure":52,"dissonance":0.239,"dissonant_pairs":4.3,"total_pairs":18},{"measure":53,"dissonance":0.177,"dissonant_pairs":3.9,"total_pairs":22},{"measure":54,"dissonance":0.195,"dissonant_pairs":4.3,"total_pairs":22},{"measure":55,"dissonance":0.15,"dissonant_pairs":3.3,"total_pairs":22},{"measure":56,"dissonance":0.104,"dissonant_pairs":2.5,"total_pairs":24},{"measure":57,"dissonance":0.212,"dissonant_pairs":5.1,"total_pairs":24},{"measure":58,"dissonance":0.072,"dissonant_pairs":1.3,"total_pairs":18},{"measure":59,"dissonance":0.033,"dissonant_pairs":1.0,"total_pairs":30},{"measure":60,"dissonance":0.053,"dissonant_pairs":1.0,"total_pairs":19},{"measure":61,"dissonance":0.146,"dissonant_pairs":3.5,"total_pairs":24},{"measure":62,"dissonance":0.021,"dissonant_pairs":0.5,"total_pairs":24},{"measure":63,"dissonance":0.217,"dissonant_pairs":5.2,"total_pairs":24},{"measure":64,"dissonance":0.214,"dissonant_pairs":4.7,"total_pairs":22},{"measure":65,"dissonance":0.104,"dissonant_pairs":2.5,"total_pairs":24},{"measure":66,"dissonance":0.077,"dissonant_pairs":1.0,"total_pairs":13},{"measure":67,"dissonance":0.315,"dissonant_pairs":6.3,"total_pairs":20},{"measure":68,"dissonance":0.186,"dissonant_pairs":4.1,"total_pairs":22},{"measure":69,"dissonance":0.159,"dissonant_pairs":3.5,"total_pairs":22},{"measure":70,"dissonance":0.15,"dissonant_pairs":1.5,"total_pairs":10},{"measure":71,"dissonance":0.223,"dissonant_pairs":4.9,"total_pairs":22},{"measure":72,"dissonance":0.15,"dissonant_pairs":1.5,"total_pairs":10},{"measure":73,"dissonance":0.048,"dissonant_pairs":2.0,"total_pairs":42},{"measure":74,"dissonance":0.152,"dissonant_pairs":3.8,"total_pairs":25},{"measure":75,"dissonance":0.183,"dissonant_pairs":6.6,"total_pairs":36},{"measure":76,"dissonance":0.279,"dissonant_pairs":10.9,"total_pairs":39},{"measure":77,"dissonance":0.096,"dissonant_pairs":4.6,"total_pairs":48},{"measure":78,"dissonance":0.204,"dissonant_pairs":4.9,"total_pairs":24},{"measure":79,"dissonance":0.218,"dissonant_pairs":4.8,"total_pairs":22},{"measure":80,"dissonance":0.115,"dissonant_pairs":4.6,"total_pairs":40},{"measure":81,"dissonance":0.13,"dissonant_pairs":3.5,"total_pairs":27},{"measure":82,"dissonance":0.13,"dissonant_pairs":1.3,"total_pairs":10},{"measure":83,"dissonance":0.17,"dissonant_pairs":3.4,"total_pairs":20},{"measure":84,"dissonance":0.1,"dissonant_pairs":0.8,"total_pairs":8},{"measure":85,"dissonance":0.15,"dissonant_pairs":3.3,"total_pairs":22},{"measure":86,"dissonance":0.104,"dissonant_pairs":2.5,"total_pairs":24},{"measure":87,"dissonance":0.258,"dissonant_pairs":6.2,"total_pairs":24},{"measure":88,"dissonance":0.045,"dissonant_pairs":1.0,"total_pairs":22},{"measure":89,"dissonance":0.095,"dissonant_pairs":4.0,"total_pairs":42},{"measure":90,"dissonance":0.096,"dissonant_pairs":2.3,"total_pairs":24},{"measure":91,"dissonance":0.141,"dissonant_pairs":4.1,"total_pairs":29},{"measure":92,"dissonance":0.106,"dissonant_pairs":3.8,"total_pairs":36},{"measure":93,"dissonance":0.213,"dissonant_pairs":9.6,"total_pairs":45},{"measure":94,"dissonance":0.144,"dissonant_pairs":3.9,"total_pairs":27},{"measure":95,"dissonance":0.224,"dissonant_pairs":9.4,"total_pairs":42},{"measure":96,"dissonance":0.177,"dissonant_pairs":3.9,"total_pairs":22},{"measure":97,"dissonance":0.117,"dissonant_pairs":3.5,"total_pairs":30},{"measure":98,"dissonance":0.114,"dissonant_pairs":2.5,"total_pairs":22},{"measure":99,"dissonance":0.095,"dissonant_pairs":3.5,"total_pairs":37},{"measure":100,"dissonance":0.179,"dissonant_pairs":4.3,"total_pairs":24},{"measure":101,"dissonance":0.103,"dissonant_pairs":3.7,"total_pairs":36},{"measure":102,"dissonance":0.226,"dissonant_pairs":9.5,"total_pairs":42},{"measure":103,"dissonance":0.136,"dissonant_pairs":5.7,"total_pairs":42},{"measure":104,"dissonance":0.11,"dissonant_pairs":3.3,"total_pairs":30},{"measure":105,"dissonance":0.105,"dissonant_pairs":4.1,"total_pairs":39},{"measure":106,"dissonance":0.155,"dissonant_pairs":3.1,"total_pairs":20},{"measure":107,"dissonance":0.042,"dissonant_pairs":1.0,"total_pairs":24},{"measure":108,"dissonance":0.23,"dissonant_pairs":4.6,"total_pairs":20},{"measure":109,"dissonance":0.082,"dissonant_pairs":1.8,"total_pairs":22},{"measure":110,"dissonance":0.144,"dissonant_pairs":2.6,"total_pairs":18},{"measure":111,"dissonance":0.114,"dissonant_pairs":2.5,"total_pairs":22},{"measure":112,"dissonance":0.08,"dissonant_pairs":1.6,"total_pairs":20},{"measure":113,"dissonance":0.28,"dissonant_pairs":5.6,"total_pairs":20},{"measure":114,"dissonance":0.287,"dissonant_pairs":4.3,"total_pairs":15},{"measure":115,"dissonance":0.15,"dissonant_pairs":3.3,"total_pairs":22},{"measure":116,"dissonance":0.24,"dissonant_pairs":4.8,"total_pairs":20},{"measure":117,"dissonance":0.136,"dissonant_pairs":3.8,"total_pairs":28},{"measure":118,"dissonance":0.15,"dissonant_pairs":1.8,"total_pairs":12},{"measure":119,"dissonance":0.09,"dissonant_pairs":3.8,"total_pairs":42},{"measure":120,"dissonance":0.052,"dissonant_pairs":1.5,"total_pairs":29},{"measure":121,"dissonance":0.165,"dissonant_pairs":7.9,"total_pairs":48},{"measure":122,"dissonance":0.091,"dissonant_pairs":3.0,"total_pairs":33},{"measure":123,"dissonance":0.245,"dissonant_pairs":5.4,"total_pairs":22},{"measure":124,"dissonance":0.137,"dissonant_pairs":5.2,"total_pairs":38},{"measure":125,"dissonance":0.092,"dissonant_pairs":3.5,"total_pairs":38},{"measure":126,"dissonance":0.169,"dissonant_pairs":5.4,"total_pairs":32},{"measure":127,"dissonance":0.092,"dissonant_pairs":3.5,"total_pairs":38},{"measure":128,"dissonance":0.18,"dissonant_pairs":8.1,"total_pairs":45},{"measure":129,"dissonance":0.17,"dissonant_pairs":4.6,"total_pairs":27},{"measure":130,"dissonance":0.0,"dissonant_pairs":0,"total_pairs":6}]}