{"metadata":{"title":"The Art of the Fugue, Contrapunctus VI","number":"VI","composer":"J.S. Bach","source_midi":"kunst_der_fuge_vi_mutopia.mid","tempo_bpm":120.0,"tempo_us_per_beat":500000,"ticks_per_beat":384,"time_signature":"4/4","key_signature":"D minor","total_duration_seconds":210.6665,"total_measures":79,"beats_per_measure":4},"voices":[{"id":0,"name":"Soprano","midi_channel":0,"midi_track":1,"color":"#E85D4A","pitch_min":60,"pitch_max":84,"note_count":428},{"id":1,"name":"Alto","midi_channel":1,"midi_track":2,"color":"#4A90D9","pitch_min":53,"pitch_max":79,"note_count":430},{"id":2,"name":"Tenor","midi_channel":2,"midi_track":3,"color":"#27AE60","pitch_min":48,"pitch_max":69,"note_count":349},{"id":3,"name":"Bass","midi_channel":3,"midi_track":4,"color":"#8E44AD","pitch_min":36,"pitch_max":62,"note_count":477}],"notes":[{"voice":3,"pitch":50,"start":0.0,"duration":1.3333,"velocity":127,"measure":1,"beat":1.0,"subject_pos":0,"motif":"subject","motif_pos":0,"best_pos":0,"similarity":1.0,"stretto":false,"stretto_voices":0,"combination":[],"aug_dim":"augmentation","rhythm_ratio":2.0,"mirror":false,"chromatic_density":0.0,"complexity":0.449,"dissonance":0},{"voice":3,"pitch":57,"start":1.3333,"duration":1.0,"velocity":127,"measure":1,"beat":3.0,"subject_pos":1,"motif":"subject","motif_pos":1,"best_pos":1,"similarity":1.0,"stretto":false,"stretto_voices":0,"combination":[],"aug_dim":"augmentation","rhythm_ratio":2.0,"mirror":false,"chromatic_density":0.0,"complexity":0.449,"dissonance":0},{"voice":3,"pitch":55,"start":2.3333,"duration":0.3333,"velocity":127,"measure":1,"beat":4.5,"subject_pos":2,"motif":"subject","motif_pos":2,"best_pos":2,"similarity":1.0,"stretto":false,"stretto_voices":0,"combination":[],"aug_dim":"augmentation","rhythm_ratio":2.0,"mirror":false,"chromatic_density":0.0,"complexity":0.449,"dissonance":0},{"voice":0,"pitch":81,"start":2.6667,"duration":0.6667,"velocity":127,"measure":2,"beat":1.0,"subject_pos":0,"motif":"subject_inv","motif_pos":0,"best_pos":0,"similarity":1.0,"stretto":true,"stretto_voices":2,"combination":[],"aug_dim":"","rhythm_ratio":1.0,"mirror":false,"chromatic_density":0.286,"complexity":0.646,"dissonance":0.071},{"voice":3,"pitch":53,"start":2.6667,"duration":1.0,"velocity":127,"measure":2,"beat":1.0,"subject_pos":3,"motif":"subject","motif_pos":3,"best_pos":3,"similarity":1.0,"stretto":true,"stretto_voices":2,"combination":[],"aug_dim":"augmentation","rhythm_ratio":2.0,"mirror":false,"chromatic_density":0.286,"complexity":0.646,"dissonance":0.071},{"voice":0,"pitch":74,"start":3.3333,"duration":0.5,"velocity":127,"measure":2,"beat":2.0,"subject_pos":1,"motif":"subject_inv","motif_pos":1,"best_pos":1,"similarity":1.0,"stretto":true,"stretto_voices":2,"combination":[],"aug_dim":"","rhythm_ratio":1.0,"mirror":false,"chromatic_density":0.286,"complexity":0.646,"dissonance":0.071},{"voice":3,"pitch":52,"start":3.6667,"duration":0.3333,"velocity":127,"measure":2,"beat":2.5,"subject_pos":4,"motif":"subject","motif_pos":4,"best_pos":4,"similarity":1.0,"stretto":true,"stretto_voices":2,"combination":[],"aug_dim":"augmentation","rhythm_ratio":2.0,"mirror":false,"chromatic_density":0.286,"complexity":0.646,"dissonance":0.071},{"voice":0,"pitch":76,"start":3.8333,"duration":0.1667,"velocity":127,"measure":2,"beat":2.75,"subject_pos":2,"motif":"subject_inv","motif_pos":2,"best_pos":2,"similarity":1.0,"stretto":true,"stretto_voices":2,"combination":[],"aug_dim":"","rhythm_ratio":1.0,"mirror":false,"chromatic_density":0.286,"complexity":0.646,"dissonance":0.071},{"voice":0,"pitch":77,"start":4.0,"duration":0.5,"velocity":127,"measure":2,"beat":3.0,"subject_pos":3,"motif":"subject_inv","motif_pos":3,"best_pos":3,"similarity":1.0,"stretto":true,"stretto_voices":2,"combination":[],"aug_dim":"","rhythm_ratio":1.0,"mirror":false,"chromatic_density":0.286,"complexity":0.646,"dissonance":0.071},{"voice":3,"pitch":50,"start":4.0,"duration":1.3333,"velocity":127,"measure":2,"beat":3.0,"subject_pos":5,"motif":"subject","motif_pos":5,"best_pos":5,"similarity":1.0,"stretto":true,"stretto_voices":2,"combination":[],"aug_dim":"augmentation","rhythm_ratio":2.0,"mirror":false,"chromatic_density":0.286,"complexity":0.646,"dissonance":0.071},{"voice":0,"pitch":79,"start":4.5,"duration":0.1667,"velocity":127,"measure":2,"beat":3.75,"subject_pos":4,"motif":"subject_inv","motif_pos":4,"best_pos":4,"similarity":1.0,"stretto":true,"stretto_voices":2,"combination":[],"aug_dim":"","rhythm_ratio":1.0,"mirror":false,"chromatic_density":0.286,"complexity":0.646,"dissonance":0.071},{"voice":0,"pitch":81,"start":4.6667,"duration":0.6667,"velocity":127,"measure":2,"beat":4.0,"subject_pos":5,"motif":"subject_inv","motif_pos":5,"best_pos":5,"similarity":1.0,"stretto":true,"stretto_voices":2,"combination":[],"aug_dim":"","rhythm_ratio":1.0,"mirror":false,"chromatic_density":0.286,"complexity":0.646,"dissonance":0.071},{"voice":0,"pitch":82,"start":5.3333,"duration":0.6667,"velocity":127,"measure":3,"beat":1.0,"subject_pos":6,"motif":"subject_inv","motif_pos":6,"best_pos":6,"similarity":1.0,"stretto":true,"stretto_voices":2,"combination":[],"aug_dim":"","rhythm_ratio":1.0,"mirror":false,"chromatic_density":0.4,"complexity":0.656,"dissonance":0.211},{"voice":3,"pitch":49,"start":5.3333,"duration":1.3333,"velocity":127,"measure":3,"beat":1.0,"subject_pos":6,"motif":"subject","motif_pos":6,"best_pos":6,"similarity":1.0,"stretto":true,"stretto_voices":2,"combination":[],"aug_dim":"augmentation","rhythm_ratio":2.0,"mirror":false,"chromatic_density":0.4,"complexity":0.656,"dissonance":0.211},{"voice":0,"pitch":81,"start":6.0,"duration":0.5,"velocity":127,"measure":3,"beat":2.0,"subject_pos":7,"motif":"subject_inv","motif_pos":7,"best_pos":7,"similarity":1.0,"stretto":true,"stretto_voices":2,"combination":[],"aug_dim":"","rhythm_ratio":1.0,"mirror":false,"chromatic_density":0.4,"complexity":0.656,"dissonance":0.211},{"voice":0,"pitch":79,"start":6.5,"duration":0.1667,"velocity":127,"measure":3,"beat":2.75,"subject_pos":8,"motif":"subject_inv","motif_pos":8,"best_pos":0,"similarity":1.0,"stretto":true,"stretto_voices":2,"combination":[],"aug_dim":"","rhythm_ratio":1.0,"mirror":false,"chromatic_density":0.4,"complexity":0.656,"dissonance":0.211},{"voice":0,"pitch":77,"start":6.6667,"duration":0.8333,"velocity":127,"measure":3,"beat":3.0,"subject_pos":-1,"motif":"","motif_pos":-1,"best_pos":3,"similarity":0.786,"stretto":false,"stretto_voices":0,"combination":[],"aug_dim":"","rhythm_ratio":1.0,"mirror":false,"chromatic_density":0.4,"complexity":0.656,"dissonance":0.211},{"voice":1,"pitch":62,"start":6.6667,"duration":0.6667,"velocity":127,"measure":3,"beat":3.0,"subject_pos":0,"motif":"subject","motif_pos":0,"best_pos":0,"similarity":1.0,"stretto":true,"stretto_voices":2,"combination":[],"aug_dim":"","rhythm_ratio":1.0,"mirror":false,"chromatic_density":0.4,"complexity":0.656,"dissonance":0.211},{"voice":3,"pitch":50,"start":6.6667,"duration":1.0,"velocity":127,"measure":3,"beat":3.0,"subject_pos":7,"motif":"subject","motif_pos":7,"best_pos":7,"similarity":1.0,"stretto":true,"stretto_voices":2,"combination":[],"aug_dim":"augmentation","rhythm_ratio":2.0,"mirror":false,"chromatic_density":0.4,"complexity":0.656,"dissonance":0.211},{"voice":1,"pitch":69,"start":7.3333,"duration":0.5,"velocity":127,"measure":3,"beat":4.0,"subject_pos":1,"motif":"subject","motif_pos":1,"best_pos":1,"similarity":1.0,"stretto":true,"stretto_voices":2,"combination":[],"aug_dim":"","rhythm_ratio":1.0,"mirror":false,"chromatic_density":0.4,"complexity":0.656,"dissonance":0.211},{"voice":0,"pitch":76,"start":7.5,"duration":0.1667,"velocity":127,"measure":3,"beat":4.25,"subject_pos":-1,"motif":"","motif_pos":-1,"best_pos":4,"similarity":0.893,"stretto":false,"stretto_voices":0,"combination":[],"aug_dim":"","rhythm_ratio":1.0,"mirror":false,"chromatic_density":0.4,"complexity":0.656,"dissonance":0.211},{"voice":0,"pitch":77,"start":7.6667,"duration":0.1667,"velocity":127,"measure":3,"beat":4.5,"subject_pos":-1,"motif":"","motif_pos":-1,"best_pos":5,"similarity":0.821,"stretto":false,"stretto_voices":0,"combination":[],"aug_dim":"","rhythm_ratio":1.0,"mirror":false,"chromatic_density":0.4,"complexity":0.656,"dissonance":0.211},{"voice":3,"pitch":52,"start":7.6667,"duration":0.3333,"velocity":127,"measure":3,"beat":4.5,"subject_pos":8,"motif":"subject","motif_pos":8,"best_pos":0,"similarity":1.0,"stretto":true,"stretto_voices":2,"combination":[],"aug_dim":"augmentation","rhythm_ratio":2.0,"mirror":false,"chromatic_density":0.4,"complexity":0.656,"dissonance":0.211},{"voice":0,"pitch":79,"start":7.8333,"duration":0.1667,"velocity":127,"measure":3,"beat":4.75,"subject_pos":-1,"motif":"","motif_pos":-1,"best_pos":6,"similarity":0.643,"stretto":false,"stretto_voices":0,"combination":[],"aug_dim":"","rhythm_ratio":1.0,"mirror":false,"chromatic_density":0.4,"complexity":0.656,"dissonance":0.211},{"voice":1,"pitch":67,"start":7.8333,"duration":0.1667,"velocity":127,"measure":3,"beat":4.75,"subject_pos":2,"motif":"subject","motif_pos":2,"best_pos":2,"similarity":1.0,"stretto":true,"stretto_voices":2,"combination":[],"aug_dim":"","rhythm_ratio":1.0,"mirror":false,"chromatic_density":0.4,"complexity":0.656,"dissonance":0.211},{"voice":0,"pitch":81,"start":8.0,"duration":0.5,"velocity":127,"measure":4,"beat":1.0,"subject_pos":-1,"motif":"","motif_pos":-1,"best_pos":1,"similarity":0.457,"stretto":false,"stretto_voices":0,"combination":[],"aug_dim":"","rhythm_ratio":1.0,"mirror":false,"chromatic_density":0.4,"complexity":0.551,"dissonance":0.11},{"voice":1,"pitch":65,"start":8.0,"duration":0.5,"velocity":127,"measure":4,"beat":1.0,"subject_pos":3,"motif":"subject","motif_pos":3,"best_pos":3,"similarity":1.0,"stretto":false,"stretto_voices":0,"combination":[],"aug_dim":"","rhythm_ratio":1.0,"mirror":false,"chromatic_density":0.4,"complexity":0.551,"dissonance":0.11},{"voice":3,"pitch":53,"start":8.0,"duration":1.8333,"velocity":127,"measure":4,"beat":1.0,"subject_pos":-1,"motif":"","motif_pos":-1,"best_pos":5,"similarity":0.607,"stretto":false,"stretto_voices":0,"combination":[],"aug_dim":"","rhythm_ratio":1.0,"mirror":false,"chromatic_density":0.4,"complexity":0.551,"dissonance":0.11},{"voice":0,"pitch":79,"start":8.5,"duration":0.1667,"velocity":127,"measure":4,"beat":1.75,"subject_pos":-1,"motif":"","motif_pos":-1,"best_pos":2,"similarity":0.593,"stretto":false,"stretto_voices":0,"combination":[],"aug_dim":"","rhythm_ratio":1.0,"mirror":false,"chromatic_density":0.4,"complexity":0.551,"dissonance":0.11},{"voice":1,"pitch":64,"start":8.5,"duration":0.1667,"velocity":127,"measure":4,"beat":1.75,"subject_pos":4,"motif":"subject","motif_pos":4,"best_pos":4,"similarity":1.0,"stretto":false,"stretto_voices":0,"combination":[],"aug_dim":"","rhythm_ratio":1.0,"mirror":false,"chromatic_density":0.4,"complexity":0.551,"dissonance":0.11},{"voice":0,"pitch":77,"start":8.6667,"duration":0.1667,"velocity":127,"measure":4,"beat":2.0,"subject_pos":-1,"motif":"","motif_pos":-1,"best_pos":3,"similarity":0.6,"stretto":false,"stretto_voices":0,"combination":[],"aug_dim":"","rhythm_ratio":1.0,"mirror":false,"chromatic_density":0.4,"complexity":0.551,"dissonance":0.11},{"voice":1,"pitch":62,"start":8.6667,"duration":0.6667,"velocity":127,"measure":4,"beat":2.0,"subject_pos":5,"motif":"subject","motif_pos":5,"best_pos":5,"similarity":1.0,"stretto":false,"stretto_voices":0,"combination":[],"aug_dim":"","rhythm_ratio":1.0,"mirror":false,"chromatic_density":0.4,"complexity":0.551,"dissonance":0.11},{"voice":0,"pitch":76,"start":8.8333,"duration":0.1667,"velocity":127,"measure":4,"beat":2.25,"subject_pos":-1,"motif":"","motif_pos":-1,"best_pos":4,"similarity":0.479,"stretto":false,"stretto_voices":0,"combination":[],"aug_dim":"","rhythm_ratio":1.0,"mirror":false,"chromatic_density":0.4,"complexity":0.551,"dissonance":0.11},{"voice":0,"pitch":74,"start":9.0,"duration":0.1667,"velocity":127,"measure":4,"beat":2.5,"subject_pos":-1,"motif":"","motif_pos":-1,"best_pos":2,"similarity":0.518,"stretto":false,"stretto_voices":0,"combination":[],"aug_dim":"","rhythm_ratio":1.0,"mirror":false,"chromatic_density":0.4,"complexity":0.551,"dissonance":0.11},{"voice":0,"pitch":72,"start":9.1667,"duration":0.1667,"velocity":127,"measure":4,"beat":2.75,"subject_pos":-1,"motif":"","motif_pos":-1,"best_pos":2,"similarity":0.607,"stretto":false,"stretto_voices":0,"combination":[],"aug_dim":"","rhythm_ratio":1.0,"mirror":false,"chromatic_density":0.4,"complexity":0.551,"dissonance":0.11},{"voice":0,"pitch":70,"start":9.3333,"duration":0.6667,"velocity":127,"measure":4,"beat":3.0,"subject_pos":-1,"motif":"","motif_pos":-1,"best_pos":3,"similarity":0.679,"stretto":false,"stretto_voices":0,"combination":[],"aug_dim":"","rhythm_ratio":1.0,"mirror":false,"chromatic_density":0.4,"complexity":0.551,"dissonance":0.11},{"voice":1,"pitch":61,"start":9.3333,"duration":0.6667,"velocity":127,"measure":4,"beat":3.0,"subject_pos":6,"motif":"subject","motif_pos":6,"best_pos":6,"similarity":1.0,"stretto":false,"stretto_voices":0,"combination":[],"aug_dim":"","rhythm_ratio":1.0,"mirror":false,"chromatic_density":0.4,"complexity":0.551,"dissonance":0.11},{"voice":3,"pitch":55,"start":9.8333,"duration":0.1667,"velocity":127,"measure":4,"beat":3.75,"subject_pos":-1,"motif":"","motif_pos":-1,"best_pos":6,"similarity":0.464,"stretto":false,"stretto_voices":0,"combination":[],"aug_dim":"","rhythm_ratio":1.0,"mirror":false,"chromatic_density":0.4,"complexity":0.551,"dissonance":0.11},{"voice":0,"pitch":69,"start":10.0,"duration":1.1667,"velocity":127,"measure":4,"beat":4.0,"subject_pos":-1,"motif":"","motif_pos":-1,"best_pos":4,"similarity":0.661,"stretto":false,"stretto_voices":0,"combination":[],"aug_dim":"","rhythm_ratio":1.0,"mirror":false,"chromatic_density":0.4,"complexity":0.551,"dissonance":0.11},{"voice":1,"pitch":62,"start":10.0,"duration":0.5,"velocity":127,"measure":4,"beat":4.0,"subject_pos":7,"motif":"subject","motif_pos":7,"best_pos":7,"similarity":1.0,"stretto":false,"stretto_voices":0,"combination":[],"aug_dim":"","rhythm_ratio":1.0,"mirror":false,"chromatic_density":0.4,"complexity":0.551,"dissonance":0.11},{"voice":3,"pitch":53,"start":10.0,"duration":0.5,"velocity":127,"measure":4,"beat":4.0,"subject_pos":-1,"motif":"","motif_pos":-1,"best_pos":3,"similarity":0.464,"stretto":false,"stretto_voices":0,"combination":[],"aug_dim":"","rhythm_ratio":1.0,"mirror":false,"chromatic_density":0.4,"complexity":0.551,"dissonance":0.11},{"voice":1,"pitch":64,"start":10.5,"duration":0.1667,"velocity":127,"measure":4,"beat":4.75,"subject_pos":8,"motif":"subject","motif_pos":8,"best_pos":0,"similarity":1.0,"stretto":false,"stretto_voices":0,"combination":[],"aug_dim":"","rhythm_ratio":1.0,"mirror":false,"chromatic_density":0.4,"complexity":0.551,"dissonance":0.11},{"voice":3,"pitch":52,"start":10.5,"duration":0.1667,"velocity":127,"measure":4,"beat":4.75,"subject_pos":-1,"motif":"","motif_pos":-1,"best_pos":3,"similarity":0.436,"stretto":false,"stretto_voices":0,"combination":[],"aug_dim":"","rhythm_ratio":1.0,"mirror":false,"chromatic_density":0.4,"complexity":0.551,"dissonance":0.11},{"voice":1,"pitch":65,"start":10.6667,"duration":0.8333,"velocity":127,"measure":5,"beat":1.0,"subject_pos":-1,"motif":"","motif_pos":-1,"best_pos":5,"similarity":0.607,"stretto":false,"stretto_voices":0,"combination":[],"aug_dim":"","rhythm_ratio":1.0,"mirror":false,"chromatic_density":0.353,"complexity":0.502,"dissonance":0.157},{"voice":3,"pitch":50,"start":10.6667,"duration":0.5,"velocity":127,"measure":5,"beat":1.0,"subject_pos":-1,"motif":"","motif_pos":-1,"best_pos":4,"similarity":0.464,"stretto":false,"stretto_voices":0,"combination":[],"aug_dim":"","rhythm_ratio":1.0,"mirror":false,"chromatic_density":0.353,"complexity":0.502,"dissonance":0.157},{"voice":0,"pitch":71,"start":11.1667,"duration":0.1667,"velocity":127,"measure":5,"beat":1.75,"subject_pos":-1,"motif":"","motif_pos":-1,"best_pos":6,"similarity":0.643,"stretto":false,"stretto_voices":0,"combination":[],"aug_dim":"","rhythm_ratio":1.0,"mirror":false,"chromatic_density":0.353,"complexity":0.502,"dissonance":0.157},{"voice":3,"pitch":38,"start":11.1667,"duration":0.1667,"velocity":127,"measure":5,"beat":1.75,"subject_pos":-1,"motif":"","motif_pos":-1,"best_pos":5,"similarity":0.518,"stretto":false,"stretto_voices":0,"combination":[],"aug_dim":"","rhythm_ratio":1.0,"mirror":false,"chromatic_density":0.353,"complexity":0.502,"dissonance":0.157},{"voice":0,"pitch":72,"start":11.3333,"duration":1.1667,"velocity":127,"measure":5,"beat":2.0,"subject_pos":-1,"motif":"","motif_pos":-1,"best_pos":7,"similarity":0.446,"stretto":false,"stretto_voices":0,"combination":[],"aug_dim":"","rhythm_ratio":1.0,"mirror":false,"chromatic_density":0.353,"complexity":0.502,"dissonance":0.157},{"voice":3,"pitch":40,"start":11.3333,"duration":0.5,"velocity":127,"measure":5,"beat":2.0,"subject_pos":-1,"motif":"","motif_pos":-1,"best_pos":6,"similarity":0.607,"stretto":false,"stretto_voices":0,"combination":[],"aug_dim":"","rhythm_ratio":1.0,"mirror":false,"chromatic_density":0.353,"complexity":0.502,"dissonance":0.157},{"voice":1,"pitch":67,"start":11.5,"duration":0.1667,"velocity":127,"measure":5,"beat":2.25,"subject_pos":-1,"motif":"","motif_pos":-1,"best_pos":6,"similarity":0.464,"stretto":false,"stretto_voices":0,"combination":[],"aug_dim":"","rhythm_ratio":1.0,"mirror":false,"chromatic_density":0.353,"complexity":0.502,"dissonance":0.157},{"voice":1,"pitch":65,"start":11.6667,"duration":0.1667,"velocity":127,"measure":5,"beat":2.5,"subject_pos":-1,"motif":"","motif_pos":-1,"best_pos":3,"similarity":0.536,"stretto":false,"stretto_voices":0,"combination":[],"aug_dim":"","rhythm_ratio":1.0,"mirror":false,"chromatic_density":0.353,"complexity":0.502,"dissonance":0.157},{"voice":1,"pitch":64,"start":11.8333,"duration":0.1667,"velocity":127,"measure":5,"beat":2.75,"subject_pos":-1,"motif":"","motif_pos":-1,"best_pos":4,"similarity":0.607,"stretto":false,"stretto_voices":0,"combination":[],"aug_dim":"","rhythm_ratio":1.0,"mirror":false,"chromatic_density":0.353,"complexity":0.502,"dissonance":0.157},{"voice":3,"pitch":41,"start":11.8333,"duration":0.1667,"velocity":127,"measure":5,"beat":2.75,"subject_pos":-1,"motif":"","motif_pos":-1,"best_pos":5,"similarity":0.657,"stretto":false,"stretto_voices":0,"combination":[],"aug_dim":"","rhythm_ratio":1.0,"mirror":false,"chromatic_density":0.353,"complexity":0.502,"dissonance":0.157},{"voice":1,"pitch":62,"start":12.0,"duration":0.6667,"velocity":127,"measure":5,"beat":3.0,"subject_pos":-1,"motif":"","motif_pos":-1,"best_pos":5,"similarity":0.636,"stretto":false,"stretto_voices":0,"combination":[],"aug_dim":"","rhythm_ratio":1.0,"mirror":false,"chromatic_density":0.353,"complexity":0.502,"dissonance":0.157},{"voice":3,"pitch":43,"start":12.0,"duration":0.5,"velocity":127,"measure":5,"beat":3.0,"subject_pos":-1,"motif":"","motif_pos":-1,"best_pos":6,"similarity":0.579,"stretto":false,"stretto_voices":0,"combination":[],"aug_dim":"","rhythm_ratio":1.0,"mirror":false,"chromatic_density":0.353,"complexity":0.502,"dissonance":0.157},{"voice":0,"pitch":71,"start":12.5,"duration":0.1667,"velocity":127,"measure":5,"beat":3.75,"subject_pos":-1,"motif":"","motif_pos":-1,"best_pos":4,"similarity":0.557,"stretto":false,"stretto_voices":0,"combination":[],"aug_dim":"","rhythm_ratio":1.0,"mirror":false,"chromatic_density":0.353,"complexity":0.502,"dissonance":0.157},{"voice":3,"pitch":45,"start":12.5,"duration":0.1667,"velocity":127,"measure":5,"beat":3.75,"subject_pos":-1,"motif":"","motif_pos":-1,"best_pos":1,"similarity":0.457,"stretto":false,"stretto_voices":0,"combination":[],"aug_dim":"","rhythm_ratio":1.0,"mirror":false,"chromatic_density":0.353,"complexity":0.502,"dissonance":0.157},{"voice":0,"pitch":73,"start":12.6667,"duration":0.5,"velocity":127,"measure":5,"beat":4.0,"subject_pos":-1,"motif":"","motif_pos":-1,"best_pos":6,"similarity":0.625,"stretto":false,"stretto_voices":0,"combination":[],"aug_dim":"","rhythm_ratio":1.0,"mirror":false,"chromatic_density":0.353,"complexity":0.502,"dissonance":0.157},{"voice":1,"pitch":64,"start":12.6667,"duration":0.5,"velocity":127,"measure":5,"beat":4.0,"subject_pos":-1,"motif":"","motif_pos":-1,"best_pos":6,"similarity":0.657,"stretto":false,"stretto_voices":0,"combination":[],"aug_dim":"","rhythm_ratio":1.0,"mirror":false,"chromatic_density":0.353,"complexity":0.502,"dissonance":0.157},{"voice":3,"pitch":43,"start":12.6667,"duration":0.5,"velocity":127,"measure":5,"beat":4.0,"subject_pos":-1,"motif":"","motif_pos":-1,"best_pos":2,"similarity":0.586,"stretto":false,"stretto_voices":0,"combination":[],"aug_dim":"","rhythm_ratio":1.0,"mirror":false,"chromatic_density":0.353,"complexity":0.502,"dissonance":0.157},{"voice":0,"pitch":74,"start":13.1667,"duration":0.1667,"velocity":127,"measure":5,"beat":4.75,"subject_pos":-1,"motif":"","motif_pos":-1,"best_pos":5,"similarity":0.746,"stretto":false,"stretto_voices":0,"combination":[],"aug_dim":"","rhythm_ratio":1.0,"mirror":false,"chromatic_density":0.353,"complexity":0.502,"dissonance":0.157},{"voice":1,"pitch":65,"start":13.1667,"duration":0.1667,"velocity":127,"measure":5,"beat":4.75,"subject_pos":-1,"motif":"","motif_pos":-1,"best_pos":5,"similarity":0.636,"stretto":false,"stretto_voices":0,"combination":[],"aug_dim":"","rhythm_ratio":1.0,"mirror":false,"chromatic_density":0.353,"complexity":0.502,"dissonance":0.157},{"voice":3,"pitch":41,"start":13.1667,"duration":0.1667,"velocity":127,"measure":5,"beat":4.75,"subject_pos":-1,"motif":"","motif_pos":-1,"best_pos":3,"similarity":0.614,"stretto":false,"stretto_voices":0,"combination":[],"aug_dim":"","rhythm_ratio":1.0,"mirror":false,"chromatic_density":0.353,"complexity":0.502,"dissonance":0.157},{"voice":0,"pitch":76,"start":13.3333,"duration":0.8333,"velocity":127,"measure":6,"beat":1.0,"subject_pos":-1,"motif":"","motif_pos":-1,"best_pos":6,"similarity":0.721,"stretto":false,"stretto_voices":0,"combination":[],"aug_dim":"","rhythm_ratio":1.0,"mirror":false,"chromatic_density":0.529,"complexity":0.552,"dissonance":0.137},{"voice":1,"pitch":67,"start":13.3333,"duration":0.6667,"velocity":127,"measure":6,"beat":1.0,"subject_pos":-1,"motif":"","motif_pos":-1,"best_pos":6,"similarity":0.464,"stretto":false,"stretto_voices":0,"combination":[],"aug_dim":"","rhythm_ratio":1.0,"mirror":false,"chromatic_density":0.529,"complexity":0.552,"dissonance":0.137},{"voice":3,"pitch":40,"start":13.3333,"duration":0.5,"velocity":127,"measure":6,"beat":1.0,"subject_pos":-1,"motif":"","motif_pos":-1,"best_pos":4,"similarity":0.536,"stretto":false,"stretto_voices":0,"combination":[],"aug_dim":"","rhythm_ratio":1.0,"mirror":false,"chromatic_density":0.529,"complexity":0.552,"dissonance":0.137},{"voice":3,"pitch":52,"start":13.8333,"duration":0.1667,"velocity":127,"measure":6,"beat":1.75,"subject_pos":-1,"motif":"","motif_pos":-1,"best_pos":4,"similarity":0.571,"stretto":false,"stretto_voices":0,"combination":[],"aug_dim":"","rhythm_ratio":1.0,"mirror":false,"chromatic_density":0.529,"complexity":0.552,"dissonance":0.137},{"voice":1,"pitch":65,"start":14.0,"duration":1.1667,"velocity":127,"measure":6,"beat":2.0,"subject_pos":-1,"motif":"","motif_pos":-1,"best_pos":3,"similarity":0.664,"stretto":false,"stretto_voices":0,"combination":[],"aug_dim":"","rhythm_ratio":1.0,"mirror":false,"chromatic_density":0.529,"complexity":0.552,"dissonance":0.137},{"voice":3,"pitch":53,"start":14.0,"duration":0.5,"velocity":127,"measure":6,"beat":2.0,"subject_pos":-1,"motif":"","motif_pos":-1,"best_pos":5,"similarity":0.661,"stretto":false,"stretto_voices":0,"combination":[],"aug_dim":"","rhythm_ratio":1.0,"mirror":false,"chromatic_density":0.529,"complexity":0.552,"dissonance":0.137},{"voice":0,"pitch":77,"start":14.1667,"duration":0.1667,"velocity":127,"measure":6,"beat":2.25,"subject_pos":-1,"motif":"","motif_pos":-1,"best_pos":7,"similarity":0.5,"stretto":false,"stretto_voices":0,"combination":[],"aug_dim":"","rhythm_ratio":1.0,"mirror":false,"chromatic_density":0.529,"complexity":0.552,"dissonance":0.137},{"voice":0,"pitch":76,"start":14.3333,"duration":0.1667,"velocity":127,"measure":6,"beat":2.5,"subject_pos":-1,"motif":"","motif_pos":-1,"best_pos":2,"similarity":0.514,"stretto":false,"stretto_voices":0,"combination":[],"aug_dim":"","rhythm_ratio":1.0,"mirror":false,"chromatic_density":0.529,"complexity":0.552,"dissonance":0.137},{"voice":0,"pitch":74,"start":14.5,"duration":0.1667,"velocity":127,"measure":6,"beat":2.75,"subject_pos":-1,"motif":"tail","motif_pos":3,"best_pos":3,"similarity":1.0,"stretto":false,"stretto_voices":0,"combination":[],"aug_dim":"","rhythm_ratio":1.0,"mirror":false,"chromatic_density":0.529,"complexity":0.552,"dissonance":0.137},{"voice":3,"pitch":55,"start":14.5,"duration":0.1667,"velocity":127,"measure":6,"beat":2.75,"subject_pos":-1,"motif":"","motif_pos":-1,"best_pos":5,"similarity":0.607,"stretto":false,"stretto_voices":0,"combination":[],"aug_dim":"","rhythm_ratio":1.0,"mirror":false,"chromatic_density":0.529,"complexity":0.552,"dissonance":0.137},{"voice":0,"pitch":73,"start":14.6667,"duration":0.6667,"velocity":127,"measure":6,"beat":3.0,"subject_pos":-1,"motif":"tail","motif_pos":4,"best_pos":4,"similarity":1.0,"stretto":false,"stretto_voices":0,"combination":[],"aug_dim":"","rhythm_ratio":1.0,"mirror":false,"chromatic_density":0.529,"complexity":0.552,"dissonance":0.137},{"voice":3,"pitch":57,"start":14.6667,"duration":0.5,"velocity":127,"measure":6,"beat":3.0,"subject_pos":-1,"motif":"","motif_pos":-1,"best_pos":6,"similarity":0.661,"stretto":false,"stretto_voices":0,"combination":[],"aug_dim":"","rhythm_ratio":1.0,"mirror":false,"chromatic_density":0.529,"complexity":0.552,"dissonance":0.137},{"voice":1,"pitch":64,"start":15.1667,"duration":0.1667,"velocity":127,"measure":6,"beat":3.75,"subject_pos":-1,"motif":"","motif_pos":-1,"best_pos":4,"similarity":0.829,"stretto":false,"stretto_voices":0,"combination":[],"aug_dim":"","rhythm_ratio":1.0,"mirror":false,"chromatic_density":0.529,"complexity":0.552,"dissonance":0.137},{"voice":3,"pitch":58,"start":15.1667,"duration":0.1667,"velocity":127,"measure":6,"beat":3.75,"subject_pos":-1,"motif":"","motif_pos":-1,"best_pos":7,"similarity":0.464,"stretto":false,"stretto_voices":0,"combination":[],"aug_dim":"","rhythm_ratio":1.0,"mirror":false,"chromatic_density":0.529,"complexity":0.552,"dissonance":0.137},{"voice":0,"pitch":74,"start":15.3333,"duration":0.5,"velocity":127,"measure":6,"beat":4.0,"subject_pos":-1,"motif":"tail","motif_pos":5,"best_pos":5,"similarity":1.0,"stretto":false,"stretto_voices":0,"combination":[],"aug_dim":"","rhythm_ratio":1.0,"mirror":false,"chromatic_density":0.529,"complexity":0.552,"dissonance":0.137},{"voice":1,"pitch":65,"start":15.3333,"duration":0.5,"velocity":127,"measure":6,"beat":4.0,"subject_pos":-1,"motif":"","motif_pos":-1,"best_pos":5,"similarity":0.821,"stretto":false,"stretto_voices":0,"combination":[],"aug_dim":"","rhythm_ratio":1.0,"mirror":false,"chromatic_density":0.529,"complexity":0.552,"dissonance":0.137},{"voice":3,"pitch":57,"start":15.3333,"duration":0.5,"velocity":127,"measure":6,"beat":4.0,"subject_pos":-1,"motif":"","motif_pos":-1,"best_pos":2,"similarity":0.379,"stretto":false,"stretto_voices":0,"combination":[],"aug_dim":"","rhythm_ratio":1.0,"mirror":false,"chromatic_density":0.529,"complexity":0.552,"dissonance":0.137},{"voice":0,"pitch":76,"start":15.8333,"duration":0.1667,"velocity":127,"measure":6,"beat":4.75,"subject_pos":-1,"motif":"tail","motif_pos":6,"best_pos":6,"similarity":1.0,"stretto":false,"stretto_voices":0,"combination":[],"aug_dim":"","rhythm_ratio":1.0,"mirror":false,"chromatic_density":0.529,"complexity":0.552,"dissonance":0.137},{"voice":1,"pitch":67,"start":15.8333,"duration":0.1667,"velocity":127,"measure":6,"beat":4.75,"subject_pos":-1,"motif":"","motif_pos":-1,"best_pos":6,"similarity":0.643,"stretto":false,"stretto_voices":0,"combination":[],"aug_dim":"","rhythm_ratio":1.0,"mirror":false,"chromatic_density":0.529,"complexity":0.552,"dissonance":0.137},{"voice":3,"pitch":55,"start":15.8333,"duration":0.1667,"velocity":127,"measure":6,"beat":4.75,"subject_pos":-1,"motif":"","motif_pos":-1,"best_pos":2,"similarity":0.464,"stretto":false,"stretto_voices":0,"combination":[],"aug_dim":"","rhythm_ratio":1.0,"mirror":false,"chromatic_density":0.529,"complexity":0.552,"dissonance":0.137},{"voice":0,"pitch":77,"start":16.0,"duration":0.5,"velocity":127,"measure":7,"beat":1.0,"subject_pos":-1,"motif":"tail","motif_pos":7,"best_pos":7,"similarity":1.0,"stretto":false,"stretto_voices":0,"combination":[],"aug_dim":"","rhythm_ratio":1.0,"mirror":false,"chromatic_density":0.375,"complexity":0.782,"dissonance":0.075},{"voice":1,"pitch":69,"start":16.0,"duration":1.8333,"velocity":127,"measure":7,"beat":1.0,"subject_pos":-1,"motif":"","motif_pos":-1,"best_pos":5,"similarity":0.593,"stretto":false,"stretto_voices":0,"combination":[],"aug_dim":"","rhythm_ratio":1.0,"mirror":false,"chromatic_density":0.375,"complexity":0.782,"dissonance":0.075},{"voice":2,"pitch":62,"start":16.0,"duration":0.6667,"velocity":127,"measure":7,"beat":1.0,"subject_pos":0,"motif":"subject_inv","motif_pos":0,"best_pos":0,"similarity":1.0,"stretto":false,"stretto_voices":0,"combination":[],"aug_dim":"","rhythm_ratio":1.0,"mirror":false,"chromatic_density":0.375,"complexity":0.782,"dissonance":0.075},{"voice":3,"pitch":53,"start":16.0,"duration":0.6667,"velocity":127,"measure":7,"beat":1.0,"subject_pos":-1,"motif":"","motif_pos":-1,"best_pos":2,"similarity":0.571,"stretto":false,"stretto_voices":0,"combination":[],"aug_dim":"","rhythm_ratio":1.0,"mirror":false,"chromatic_density":0.375,"complexity":0.782,"dissonance":0.075},{"voice":0,"pitch":76,"start":16.5,"duration":0.1667,"velocity":127,"measure":7,"beat":1.75,"subject_pos":-1,"motif":"","motif_pos":-1,"best_pos":4,"similarity":0.629,"stretto":false,"stretto_voices":0,"combination":[],"aug_dim":"","rhythm_ratio":1.0,"mirror":false,"chromatic_density":0.375,"complexity":0.782,"dissonance":0.075},{"voice":0,"pitch":77,"start":16.6667,"duration":0.5,"velocity":127,"measure":7,"beat":2.0,"subject_pos":-1,"motif":"","motif_pos":-1,"best_pos":5,"similarity":0.507,"stretto":false,"stretto_voices":0,"combination":[],"aug_dim":"","rhythm_ratio":1.0,"mirror":false,"chromatic_density":0.375,"complexity":0.782,"dissonance":0.075},{"voice":2,"pitch":57,"start":16.6667,"duration":0.5,"velocity":127,"measure":7,"beat":2.0,"subject_pos":1,"motif":"subject_inv","motif_pos":1,"best_pos":1,"similarity":1.0,"stretto":false,"stretto_voices":0,"combination":[],"aug_dim":"","rhythm_ratio":1.0,"mirror":false,"chromatic_density":0.375,"complexity":0.782,"dissonance":0.075},{"voice":3,"pitch":50,"start":16.6667,"duration":0.6667,"velocity":127,"measure":7,"beat":2.0,"subject_pos":-1,"motif":"","motif_pos":-1,"best_pos":3,"similarity":0.436,"stretto":false,"stretto_voices":0,"combination":[],"aug_dim":"","rhythm_ratio":1.0,"mirror":false,"chromatic_density":0.375,"complexity":0.782,"dissonance":0.075},{"voice":0,"pitch":74,"start":17.1666,"duration":0.1667,"velocity":127,"measure":7,"beat":2.75,"subject_pos":-1,"motif":"","motif_pos":-1,"best_pos":5,"similarity":0.382,"stretto":false,"stretto_voices":0,"combination":[],"aug_dim":"","rhythm_ratio":1.0,"mirror":false,"chromatic_density":0.375,"complexity":0.782,"dissonance":0.075},{"voice":2,"pitch":59,"start":17.1666,"duration":0.1667,"velocity":127,"measure":7,"beat":2.75,"subject_pos":2,"motif":"subject_inv","motif_pos":2,"best_pos":2,"similarity":1.0,"stretto":false,"stretto_voices":0,"combination":[],"aug_dim":"","rhythm_ratio":1.0,"mirror":false,"chromatic_density":0.375,"complexity":0.782,"dissonance":0.075},{"voice":0,"pitch":76,"start":17.3333,"duration":1.8333,"velocity":127,"measure":7,"beat":3.0,"subject_pos":-1,"motif":"","motif_pos":-1,"best_pos":1,"similarity":0.457,"stretto":false,"stretto_voices":0,"combination":[],"aug_dim":"","rhythm_ratio":1.0,"mirror":false,"chromatic_density":0.375,"complexity":0.782,"dissonance":0.075},{"voice":2,"pitch":60,"start":17.3333,"duration":0.5,"velocity":127,"measure":7,"beat":3.0,"subject_pos":3,"motif":"subject_inv","motif_pos":3,"best_pos":3,"similarity":1.0,"stretto":false,"stretto_voices":0,"combination":[],"aug_dim":"","rhythm_ratio":1.0,"mirror":false,"chromatic_density":0.375,"complexity":0.782,"dissonance":0.075},{"voice":3,"pitch":57,"start":17.3333,"duration":4.5,"velocity":127,"measure":7,"beat":3.0,"subject_pos":-1,"motif":"","motif_pos":-1,"best_pos":1,"similarity":0.464,"stretto":false,"stretto_voices":0,"combination":[],"aug_dim":"","rhythm_ratio":1.0,"mirror":false,"chromatic_density":0.375,"complexity":0.782,"dissonance":0.075},{"voice":1,"pitch":71,"start":17.8333,"duration":0.1667,"velocity":127,"measure":7,"beat":3.75,"subject_pos":-1,"motif":"tail_inv","motif_pos":0,"best_pos":0,"similarity":1.0,"stretto":false,"stretto_voices":0,"combination":[],"aug_dim":"","rhythm_ratio":1.0,"mirror":false,"chromatic_density":0.375,"complexity":0.782,"dissonance":0.075},{"voice":2,"pitch":62,"start":17.8333,"duration":0.1667,"velocity":127,"measure":7,"beat":3.75,"subject_pos":4,"motif":"subject_inv","motif_pos":4,"best_pos":4,"similarity":1.0,"stretto":false,"stretto_voices":0,"combination":[],"aug_dim":"","rhythm_ratio":1.0,"mirror":false,"chromatic_density":0.375,"complexity":0.782,"dissonance":0.075},{"voice":1,"pitch":72,"start":18.0,"duration":0.4167,"velocity":127,"measure":7,"beat":4.0,"subject_pos":-1,"motif":"tail_inv","motif_pos":1,"best_pos":1,"similarity":1.0,"stretto":false,"stretto_voices":0,"combination":[],"aug_dim":"","rhythm_ratio":1.0,"mirror":false,"chromatic_density":0.375,"complexity":0.782,"dissonance":0.075},{"voice":2,"pitch":64,"start":18.0,"duration":0.6667,"velocity":127,"measure":7,"beat":4.0,"subject_pos":5,"motif":"subject_inv","motif_pos":5,"best_pos":5,"similarity":1.0,"stretto":false,"stretto_voices":0,"combination":[],"aug_dim":"","rhythm_ratio":1.0,"mirror":false,"chromatic_density":0.375,"complexity":0.782,"dissonance":0.075},{"voice":1,"pitch":71,"start":18.4166,"duration":0.0833,"velocity":127,"measure":7,"beat":4.625,"subject_pos":-1,"motif":"tail_inv","motif_pos":2,"best_pos":2,"similarity":1.0,"stretto":false,"stretto_voices":0,"combination":[],"aug_dim":"","rhythm_ratio":1.0,"mirror":false,"chromatic_density":0.375,"complexity":0.782,"dissonance":0.075},{"voice":1,"pitch":69,"start":18.5,"duration":0.0833,"velocity":127,"measure":7,"beat":4.75,"subject_pos":-1,"motif":"tail_inv","motif_pos":3,"best_pos":3,"similarity":1.0,"stretto":false,"stretto_voices":0,"combination":[],"aug_dim":"","rhythm_ratio":1.0,"mirror":false,"chromatic_density":0.375,"complexity":0.782,"dissonance":0.075},{"voice":1,"pitch":68,"start":18.5833,"duration":0.0833,"velocity":127,"measure":7,"beat":4.875,"subject_pos":-1,"motif":"tail_inv","motif_pos":4,"best_pos":4,"similarity":1.0,"stretto":false,"stretto_voices":0,"combination":[],"aug_dim":"","rhythm_ratio":1.0,"mirror":false,"chromatic_density":0.375,"complexity":0.782,"dissonance":0.075},{"voice":1,"pitch":69,"start":18.6666,"duration":1.3333,"velocity":127,"measure":8,"beat":1.0,"subject_pos":0,"motif":"subject","motif_pos":0,"best_pos":0,"similarity":1.0,"stretto":true,"stretto_voices":2,"combination":[],"aug_dim":"augmentation","rhythm_ratio":2.0,"mirror":false,"chromatic_density":0.286,"complexity":0.618,"dissonance":0.054},{"voice":2,"pitch":65,"start":18.6666,"duration":0.6667,"velocity":127,"measure":8,"beat":1.0,"subject_pos":6,"motif":"subject_inv","motif_pos":6,"best_pos":6,"similarity":1.0,"stretto":true,"stretto_voices":2,"combination":[],"aug_dim":"","rhythm_ratio":1.0,"mirror":false,"chromatic_density":0.286,"complexity":0.618,"dissonance":0.054},{"voice":0,"pitch":74,"start":19.1666,"duration":0.1667,"velocity":127,"measure":8,"beat":1.75,"subject_pos":-1,"motif":"","motif_pos":-1,"best_pos":2,"similarity":0.593,"stretto":false,"stretto_voices":0,"combination":[],"aug_dim":"","rhythm_ratio":1.0,"mirror":false,"chromatic_density":0.286,"complexity":0.618,"dissonance":0.054},{"voice":0,"pitch":72,"start":19.3333,"duration":0.5,"velocity":127,"measure":8,"beat":2.0,"subject_pos":-1,"motif":"","motif_pos":-1,"best_pos":3,"similarity":0.593,"stretto":false,"stretto_voices":0,"combination":[],"aug_dim":"","rhythm_ratio":1.0,"mirror":false,"chromatic_density":0.286,"complexity":0.618,"dissonance":0.054},{"voice":2,"pitch":64,"start":19.3333,"duration":0.5,"velocity":127,"measure":8,"beat":2.0,"subject_pos":7,"motif":"subject_inv","motif_pos":7,"best_pos":7,"similarity":1.0,"stretto":true,"stretto_voices":2,"combination":[],"aug_dim":"","rhythm_ratio":1.0,"mirror":false,"chromatic_density":0.286,"complexity":0.618,"dissonance":0.054},{"voice":0,"pitch":71,"start":19.8333,"duration":0.1667,"velocity":127,"measure":8,"beat":2.75,"subject_pos":-1,"motif":"","motif_pos":-1,"best_pos":4,"similarity":0.464,"stretto":false,"stretto_voices":0,"combination":[],"aug_dim":"","rhythm_ratio":1.0,"mirror":false,"chromatic_density":0.286,"complexity":0.618,"dissonance":0.054},{"voice":2,"pitch":62,"start":19.8333,"duration":0.1667,"velocity":127,"measure":8,"beat":2.75,"subject_pos":8,"motif":"subject_inv","motif_pos":8,"best_pos":0,"similarity":1.0,"stretto":true,"stretto_voices":2,"combination":[],"aug_dim":"","rhythm_ratio":1.0,"mirror":false,"chromatic_density":0.286,"complexity":0.618,"dissonance":0.054},{"voice":0,"pitch":69,"start":20.0,"duration":0.5,"velocity":127,"measure":8,"beat":3.0,"subject_pos":-1,"motif":"","motif_pos":-1,"best_pos":2,"similarity":0.364,"stretto":false,"stretto_voices":0,"combination":[],"aug_dim":"","rhythm_ratio":1.0,"mirror":false,"chromatic_density":0.286,"complexity":0.618,"dissonance":0.054},{"voice":1,"pitch":76,"start":20.0,"duration":1.0,"velocity":127,"measure":8,"beat":3.0,"subject_pos":1,"motif":"subject","motif_pos":1,"best_pos":1,"similarity":1.0,"stretto":false,"stretto_voices":0,"combination":[],"aug_dim":"augmentation","rhythm_ratio":2.0,"mirror":false,"chromatic_density":0.286,"complexity":0.618,"dissonance":0.054},{"voice":2,"pitch":60,"start":20.0,"duration":0.8333,"velocity":127,"measure":8,"beat":3.0,"subject_pos":-1,"motif":"","motif_pos":-1,"best_pos":3,"similarity":0.786,"stretto":false,"stretto_voices":0,"combination":[],"aug_dim":"","rhythm_ratio":1.0,"mirror":false,"chromatic_density":0.286,"complexity":0.618,"dissonance":0.054},{"voice":0,"pitch":81,"start":20.5,"duration":0.1667,"velocity":127,"measure":8,"beat":3.75,"subject_pos":-1,"motif":"","motif_pos":-1,"best_pos":1,"similarity":0.429,"stretto":false,"stretto_voices":0,"combination":[],"aug_dim":"","rhythm_ratio":1.0,"mirror":false,"chromatic_density":0.286,"complexity":0.618,"dissonance":0.054},{"voice":0,"pitch":79,"start":20.6666,"duration":0.5,"velocity":127,"measure":8,"beat":4.0,"subject_pos":-1,"motif":"","motif_pos":-1,"best_pos":2,"similarity":0.571,"stretto":false,"stretto_voices":0,"combination":[],"aug_dim":"","rhythm_ratio":1.0,"mirror":false,"chromatic_density":0.286,"complexity":0.618,"dissonance":0.054},{"voice":2,"pitch":59,"start":20.8333,"duration":0.1667,"velocity":127,"measure":8,"beat":4.25,"subject_pos":-1,"motif":"","motif_pos":-1,"best_pos":4,"similarity":0.893,"stretto":false,"stretto_voices":0,"combination":[],"aug_dim":"","rhythm_ratio":1.0,"mirror":false,"chromatic_density":0.286,"complexity":0.618,"dissonance":0.054},{"voice":1,"pitch":74,"start":21.0,"duration":0.3333,"velocity":127,"measure":8,"beat":4.5,"subject_pos":2,"motif":"subject","motif_pos":2,"best_pos":2,"similarity":1.0,"stretto":false,"stretto_voices":0,"combination":[],"aug_dim":"augmentation","rhythm_ratio":2.0,"mirror":false,"chromatic_density":0.286,"complexity":0.618,"dissonance":0.054},{"voice":2,"pitch":60,"start":21.0,"duration":0.1667,"velocity":127,"measure":8,"beat":4.5,"subject_pos":-1,"motif":"","motif_pos":-1,"best_pos":5,"similarity":0.821,"stretto":false,"stretto_voices":0,"combination":[],"aug_dim":"","rhythm_ratio":1.0,"mirror":false,"chromatic_density":0.286,"complexity":0.618,"dissonance":0.054},{"voice":0,"pitch":77,"start":21.1666,"duration":0.1667,"velocity":127,"measure":8,"beat":4.75,"subject_pos":-1,"motif":"","motif_pos":-1,"best_pos":3,"similarity":0.571,"stretto":false,"stretto_voices":0,"combination":[],"aug_dim":"","rhythm_ratio":1.0,"mirror":false,"chromatic_density":0.286,"complexity":0.618,"dissonance":0.054},{"voice":2,"pitch":62,"start":21.1666,"duration":0.1667,"velocity":127,"measure":8,"beat":4.75,"subject_pos":-1,"motif":"","motif_pos":-1,"best_pos":6,"similarity":0.643,"stretto":false,"stretto_voices":0,"combination":[],"aug_dim":"","rhythm_ratio":1.0,"mirror":false,"chromatic_density":0.286,"complexity":0.618,"dissonance":0.054},{"voice":0,"pitch":76,"start":21.3333,"duration":0.6667,"velocity":127,"measure":9,"beat":1.0,"subject_pos":-1,"motif":"","motif_pos":-1,"best_pos":4,"similarity":0.436,"stretto":false,"stretto_voices":0,"combination":[],"aug_dim":"","rhythm_ratio":1.0,"mirror":false,"chromatic_density":0.333,"complexity":0.625,"dissonance":0.017},{"voice":1,"pitch":72,"start":21.3333,"duration":1.0,"velocity":127,"measure":9,"beat":1.0,"subject_pos":3,"motif":"subject","motif_pos":3,"best_pos":3,"similarity":1.0,"stretto":false,"stretto_voices":0,"combination":[],"aug_dim":"augmentation","rhythm_ratio":2.0,"mirror":false,"chromatic_density":0.333,"complexity":0.625,"dissonance":0.017},{"voice":2,"pitch":64,"start":21.3333,"duration":2.0,"velocity":127,"measure":9,"beat":1.0,"subject_pos":-1,"motif":"","motif_pos":-1,"best_pos":1,"similarity":0.457,"stretto":false,"stretto_voices":0,"combination":[],"aug_dim":"","rhythm_ratio":1.0,"mirror":false,"chromatic_density":0.333,"complexity":0.625,"dissonance":0.017},{"voice":3,"pitch":52,"start":21.8333,"duration":0.1667,"velocity":127,"measure":9,"beat":1.75,"subject_pos":-1,"motif":"","motif_pos":-1,"best_pos":0,"similarity":0.464,"stretto":false,"stretto_voices":0,"combination":[],"aug_dim":"","rhythm_ratio":1.0,"mirror":false,"chromatic_density":0.333,"complexity":0.625,"dissonance":0.017},{"voice":3,"pitch":57,"start":22.0,"duration":0.5,"velocity":127,"measure":9,"beat":2.0,"subject_pos":-1,"motif":"","motif_pos":-1,"best_pos":1,"similarity":0.714,"stretto":false,"stretto_voices":0,"combination":[],"aug_dim":"","rhythm_ratio":1.0,"mirror":false,"chromatic_density":0.333,"complexity":0.625,"dissonance":0.017},{"voice":1,"pitch":71,"start":22.3333,"duration":0.3333,"velocity":127,"measure":9,"beat":2.5,"subject_pos":4,"motif":"subject","motif_pos":4,"best_pos":4,"similarity":1.0,"stretto":false,"stretto_voices":0,"combination":[],"aug_dim":"augmentation","rhythm_ratio":2.0,"mirror":false,"chromatic_density":0.333,"complexity":0.625,"dissonance":0.017},{"voice":3,"pitch":55,"start":22.5,"duration":0.1667,"velocity":127,"measure":9,"beat":2.75,"subject_pos":-1,"motif":"","motif_pos":-1,"best_pos":2,"similarity":0.786,"stretto":false,"stretto_voices":0,"combination":[],"aug_dim":"","rhythm_ratio":1.0,"mirror":false,"chromatic_density":0.333,"complexity":0.625,"dissonance":0.017},{"voice":1,"pitch":69,"start":22.6666,"duration":1.3333,"velocity":127,"measure":9,"beat":3.0,"subject_pos":5,"motif":"subject","motif_pos":5,"best_pos":5,"similarity":1.0,"stretto":false,"stretto_voices":0,"combination":[],"aug_dim":"augmentation","rhythm_ratio":2.0,"mirror":false,"chromatic_density":0.333,"complexity":0.625,"dissonance":0.017},{"voice":3,"pitch":53,"start":22.6666,"duration":0.5,"velocity":127,"measure":9,"beat":3.0,"subject_pos":-1,"motif":"","motif_pos":-1,"best_pos":3,"similarity":0.786,"stretto":false,"stretto_voices":0,"combination":[],"aug_dim":"","rhythm_ratio":1.0,"mirror":false,"chromatic_density":0.333,"complexity":0.625,"dissonance":0.017},{"voice":3,"pitch":52,"start":23.1666,"duration":0.1667,"velocity":127,"measure":9,"beat":3.75,"subject_pos":-1,"motif":"","motif_pos":-1,"best_pos":4,"similarity":0.75,"stretto":false,"stretto_voices":0,"combination":[],"aug_dim":"","rhythm_ratio":1.0,"mirror":false,"chromatic_density":0.333,"complexity":0.625,"dissonance":0.017},{"voice":2,"pitch":62,"start":23.3333,"duration":1.1667,"velocity":127,"measure":9,"beat":4.0,"subject_pos":-1,"motif":"","motif_pos":-1,"best_pos":2,"similarity":0.593,"stretto":false,"stretto_voices":0,"combination":[],"aug_dim":"","rhythm_ratio":1.0,"mirror":false,"chromatic_density":0.333,"complexity":0.625,"dissonance":0.017},{"voice":3,"pitch":53,"start":23.3333,"duration":0.5,"velocity":127,"measure":9,"beat":4.0,"subject_pos":-1,"motif":"","motif_pos":-1,"best_pos":5,"similarity":0.536,"stretto":false,"stretto_voices":0,"combination":[],"aug_dim":"","rhythm_ratio":1.0,"mirror":false,"chromatic_density":0.333,"complexity":0.625,"dissonance":0.017},{"voice":3,"pitch":50,"start":23.8333,"duration":0.1667,"velocity":127,"measure":9,"beat":4.75,"subject_pos":-1,"motif":"","motif_pos":-1,"best_pos":5,"similarity":0.439,"stretto":false,"stretto_voices":0,"combination":[],"aug_dim":"","rhythm_ratio":1.0,"mirror":false,"chromatic_density":0.333,"complexity":0.625,"dissonance":0.017},{"voice":1,"pitch":68,"start":24.0,"duration":1.3333,"velocity":127,"measure":10,"beat":1.0,"subject_pos":6,"motif":"subject","motif_pos":6,"best_pos":6,"similarity":1.0,"stretto":false,"stretto_voices":0,"combination":[],"aug_dim":"augmentation","rhythm_ratio":2.0,"mirror":false,"chromatic_density":0.286,"complexity":0.705,"dissonance":0.144},{"voice":3,"pitch":52,"start":24.0,"duration":1.0,"velocity":127,"measure":10,"beat":1.0,"subject_pos":-1,"motif":"","motif_pos":-1,"best_pos":6,"similarity":0.461,"stretto":false,"stretto_voices":0,"combination":[],"aug_dim":"","rhythm_ratio":1.0,"mirror":false,"chromatic_density":0.286,"complexity":0.705,"dissonance":0.144},{"voice":2,"pitch":59,"start":24.5,"duration":0.1667,"velocity":127,"measure":10,"beat":1.75,"subject_pos":-1,"motif":"","motif_pos":-1,"best_pos":0,"similarity":0.464,"stretto":false,"stretto_voices":0,"combination":[],"aug_dim":"","rhythm_ratio":1.0,"mirror":false,"chromatic_density":0.286,"complexity":0.705,"dissonance":0.144},{"voice":2,"pitch":64,"start":24.6666,"duration":0.5,"velocity":127,"measure":10,"beat":2.0,"subject_pos":-1,"motif":"","motif_pos":-1,"best_pos":1,"similarity":0.65,"stretto":false,"stretto_voices":0,"combination":[],"aug_dim":"","rhythm_ratio":1.0,"mirror":false,"chromatic_density":0.286,"complexity":0.705,"dissonance":0.144},{"voice":3,"pitch":52,"start":25.0,"duration":0.3333,"velocity":127,"measure":10,"beat":2.5,"subject_pos":-1,"motif":"","motif_pos":-1,"best_pos":4,"similarity":0.514,"stretto":false,"stretto_voices":0,"combination":[],"aug_dim":"","rhythm_ratio":1.0,"mirror":false,"chromatic_density":0.286,"complexity":0.705,"dissonance":0.144},{"voice":2,"pitch":62,"start":25.1666,"duration":0.1667,"velocity":127,"measure":10,"beat":2.75,"subject_pos":-1,"motif":"","motif_pos":-1,"best_pos":2,"similarity":0.593,"stretto":false,"stretto_voices":0,"combination":[],"aug_dim":"","rhythm_ratio":1.0,"mirror":false,"chromatic_density":0.286,"complexity":0.705,"dissonance":0.144},{"voice":0,"pitch":69,"start":25.3333,"duration":0.6667,"velocity":127,"measure":10,"beat":3.0,"subject_pos":0,"motif":"subject","motif_pos":0,"best_pos":0,"similarity":1.0,"stretto":true,"stretto_voices":2,"combination":[],"aug_dim":"","rhythm_ratio":1.0,"mirror":false,"chromatic_density":0.286,"complexity":0.705,"dissonance":0.144},{"voice":1,"pitch":69,"start":25.3333,"duration":1.0,"velocity":127,"measure":10,"beat":3.0,"subject_pos":7,"motif":"subject","motif_pos":7,"best_pos":7,"similarity":1.0,"stretto":true,"stretto_voices":2,"combination":[],"aug_dim":"augmentation","rhythm_ratio":2.0,"mirror":false,"chromatic_density":0.286,"complexity":0.705,"dissonance":0.144},{"voice":2,"pitch":60,"start":25.3333,"duration":0.5,"velocity":127,"measure":10,"beat":3.0,"subject_pos":-1,"motif":"","motif_pos":-1,"best_pos":3,"similarity":0.407,"stretto":false,"stretto_voices":0,"combination":[],"aug_dim":"","rhythm_ratio":1.0,"mirror":false,"chromatic_density":0.286,"complexity":0.705,"dissonance":0.144},{"voice":3,"pitch":53,"start":25.3333,"duration":0.5,"velocity":127,"measure":10,"beat":3.0,"subject_pos":-1,"motif":"","motif_pos":-1,"best_pos":3,"similarity":0.5,"stretto":false,"stretto_voices":0,"combination":[],"aug_dim":"","rhythm_ratio":1.0,"mirror":false,"chromatic_density":0.286,"complexity":0.705,"dissonance":0.144},{"voice":2,"pitch":62,"start":25.8333,"duration":0.1667,"velocity":127,"measure":10,"beat":3.75,"subject_pos":-1,"motif":"","motif_pos":-1,"best_pos":1,"similarity":0.386,"stretto":false,"stretto_voices":0,"combination":[],"aug_dim":"","rhythm_ratio":1.0,"mirror":false,"chromatic_density":0.286,"complexity":0.705,"dissonance":0.144},{"voice":3,"pitch":52,"start":25.8333,"duration":0.1667,"velocity":127,"measure":10,"beat":3.75,"subject_pos":-1,"motif":"","motif_pos":-1,"best_pos":4,"similarity":0.675,"stretto":false,"stretto_voices":0,"combination":[],"aug_dim":"","rhythm_ratio":1.0,"mirror":false,"chromatic_density":0.286,"complexity":0.705,"dissonance":0.144},{"voice":0,"pitch":76,"start":26.0,"duration":0.5,"velocity":127,"measure":10,"beat":4.0,"subject_pos":1,"motif":"subject","motif_pos":1,"best_pos":1,"similarity":1.0,"stretto":true,"stretto_voices":2,"combination":[],"aug_dim":"","rhythm_ratio":1.0,"mirror":false,"chromatic_density":0.286,"complexity":0.705,"dissonance":0.144},{"voice":2,"pitch":60,"start":26.0,"duration":0.5,"velocity":127,"measure":10,"beat":4.0,"subject_pos":-1,"motif":"","motif_pos":-1,"best_pos":3,"similarity":0.457,"stretto":false,"stretto_voices":0,"combination":[],"aug_dim":"","rhythm_ratio":1.0,"mirror":false,"chromatic_density":0.286,"complexity":0.705,"dissonance":0.144},{"voice":3,"pitch":54,"start":26.0,"duration":0.5,"velocity":127,"measure":10,"beat":4.0,"subject_pos":-1,"motif":"","motif_pos":-1,"best_pos":5,"similarity":0.721,"stretto":false,"stretto_voices":0,"combination":[],"aug_dim":"","rhythm_ratio":1.0,"mirror":false,"chromatic_density":0.286,"complexity":0.705,"dissonance":0.144},{"voice":1,"pitch":71,"start":26.3333,"duration":0.3333,"velocity":127,"measure":10,"beat":4.5,"subject_pos":8,"motif":"subject","motif_pos":8,"best_pos":0,"similarity":1.0,"stretto":true,"stretto_voices":2,"combination":[],"aug_dim":"augmentation","rhythm_ratio":2.0,"mirror":false,"chromatic_density":0.286,"complexity":0.705,"dissonance":0.144},{"voice":0,"pitch":74,"start":26.5,"duration":0.1667,"velocity":127,"measure":10,"beat":4.75,"subject_pos":2,"motif":"subject","motif_pos":2,"best_pos":2,"similarity":1.0,"stretto":true,"stretto_voices":2,"combination":[],"aug_dim":"","rhythm_ratio":1.0,"mirror":false,"chromatic_density":0.286,"complexity":0.705,"dissonance":0.144},{"voice":2,"pitch":59,"start":26.5,"duration":0.1667,"velocity":127,"measure":10,"beat":4.75,"subject_pos":-1,"motif":"","motif_pos":-1,"best_pos":4,"similarity":0.411,"stretto":false,"stretto_voices":0,"combination":[],"aug_dim":"","rhythm_ratio":1.0,"mirror":false,"chromatic_density":0.286,"complexity":0.705,"dissonance":0.144},{"voice":3,"pitch":56,"start":26.5,"duration":0.1667,"velocity":127,"measure":10,"beat":4.75,"subject_pos":-1,"motif":"","motif_pos":-1,"best_pos":6,"similarity":0.714,"stretto":false,"stretto_voices":0,"combination":[],"aug_dim":"","rhythm_ratio":1.0,"mirror":false,"chromatic_density":0.286,"complexity":0.705,"dissonance":0.144},{"voice":0,"pitch":72,"start":26.6666,"duration":0.5,"velocity":127,"measure":11,"beat":1.0,"subject_pos":3,"motif":"subject","motif_pos":3,"best_pos":3,"similarity":1.0,"stretto":false,"stretto_voices":0,"combination":[],"aug_dim":"","rhythm_ratio":1.0,"mirror":false,"chromatic_density":0.471,"complexity":0.732,"dissonance":0.123},{"voice":1,"pitch":72,"start":26.6666,"duration":1.8333,"velocity":127,"measure":11,"beat":1.0,"subject_pos":-1,"motif":"","motif_pos":-1,"best_pos":5,"similarity":0.607,"stretto":false,"stretto_voices":0,"combination":[],"aug_dim":"","rhythm_ratio":1.0,"mirror":false,"chromatic_density":0.471,"complexity":0.732,"dissonance":0.123},{"voice":2,"pitch":57,"start":26.6666,"duration":0.5,"velocity":127,"measure":11,"beat":1.0,"subject_pos":-1,"motif":"","motif_pos":-1,"best_pos":2,"similarity":0.5,"stretto":false,"stretto_voices":0,"combination":[],"aug_dim":"","rhythm_ratio":1.0,"mirror":false,"chromatic_density":0.471,"complexity":0.732,"dissonance":0.123},{"voice":3,"pitch":57,"start":26.6666,"duration":0.5,"velocity":127,"measure":11,"beat":1.0,"subject_pos":-1,"motif":"","motif_pos":-1,"best_pos":7,"similarity":0.464,"stretto":false,"stretto_voices":0,"combination":[],"aug_dim":"","rhythm_ratio":1.0,"mirror":false,"chromatic_density":0.471,"complexity":0.732,"dissonance":0.123},{"voice":0,"pitch":71,"start":27.1666,"duration":0.1667,"velocity":127,"measure":11,"beat":1.75,"subject_pos":4,"motif":"subject","motif_pos":4,"best_pos":4,"similarity":1.0,"stretto":false,"stretto_voices":0,"combination":[],"aug_dim":"","rhythm_ratio":1.0,"mirror":false,"chromatic_density":0.471,"complexity":0.732,"dissonance":0.123},{"voice":2,"pitch":64,"start":27.1666,"duration":0.6667,"velocity":127,"measure":11,"beat":1.75,"subject_pos":-1,"motif":"","motif_pos":-1,"best_pos":3,"similarity":0.571,"stretto":false,"stretto_voices":0,"combination":[],"aug_dim":"","rhythm_ratio":1.0,"mirror":false,"chromatic_density":0.471,"complexity":0.732,"dissonance":0.123},{"voice":3,"pitch":55,"start":27.1666,"duration":0.1667,"velocity":127,"measure":11,"beat":1.75,"subject_pos":-1,"motif":"","motif_pos":-1,"best_pos":2,"similarity":0.593,"stretto":false,"stretto_voices":0,"combination":[],"aug_dim":"","rhythm_ratio":1.0,"mirror":false,"chromatic_density":0.471,"complexity":0.732,"dissonance":0.123},{"voice":0,"pitch":69,"start":27.3333,"duration":0.6667,"velocity":127,"measure":11,"beat":2.0,"subject_pos":5,"motif":"subject","motif_pos":5,"best_pos":5,"similarity":1.0,"stretto":false,"stretto_voices":0,"combination":[],"aug_dim":"","rhythm_ratio":1.0,"mirror":false,"chromatic_density":0.471,"complexity":0.732,"dissonance":0.123},{"voice":3,"pitch":53,"start":27.3333,"duration":0.6667,"velocity":127,"measure":11,"beat":2.0,"subject_pos":-1,"motif":"","motif_pos":-1,"best_pos":3,"similarity":0.593,"stretto":false,"stretto_voices":0,"combination":[],"aug_dim":"","rhythm_ratio":1.0,"mirror":false,"chromatic_density":0.471,"complexity":0.732,"dissonance":0.123},{"voice":2,"pitch":63,"start":27.8333,"duration":0.1667,"velocity":127,"measure":11,"beat":2.75,"subject_pos":-1,"motif":"enigmatic_cell","motif_pos":0,"best_pos":0,"similarity":1.0,"stretto":false,"stretto_voices":0,"combination":[],"aug_dim":"","rhythm_ratio":1.0,"mirror":false,"chromatic_density":0.471,"complexity":0.732,"dissonance":0.123},{"voice":0,"pitch":68,"start":28.0,"duration":0.6667,"velocity":127,"measure":11,"beat":3.0,"subject_pos":6,"motif":"subject","motif_pos":6,"best_pos":6,"similarity":1.0,"stretto":false,"stretto_voices":0,"combination":[],"aug_dim":"","rhythm_ratio":1.0,"mirror":false,"chromatic_density":0.471,"complexity":0.732,"dissonance":0.123},{"voice":2,"pitch":64,"start":28.0,"duration":0.5,"velocity":127,"measure":11,"beat":3.0,"subject_pos":-1,"motif":"enigmatic_cell","motif_pos":1,"best_pos":1,"similarity":1.0,"stretto":false,"stretto_voices":0,"combination":[],"aug_dim":"","rhythm_ratio":1.0,"mirror":false,"chromatic_density":0.471,"complexity":0.732,"dissonance":0.123},{"voice":3,"pitch":52,"start":28.0,"duration":1.3333,"velocity":127,"measure":11,"beat":3.0,"subject_pos":-1,"motif":"","motif_pos":-1,"best_pos":4,"similarity":0.493,"stretto":false,"stretto_voices":0,"combination":[],"aug_dim":"","rhythm_ratio":1.0,"mirror":false,"chromatic_density":0.471,"complexity":0.732,"dissonance":0.123},{"voice":1,"pitch":74,"start":28.5,"duration":0.1667,"velocity":127,"measure":11,"beat":3.75,"subject_pos":-1,"motif":"","motif_pos":-1,"best_pos":6,"similarity":0.464,"stretto":false,"stretto_voices":0,"combination":[],"aug_dim":"","rhythm_ratio":1.0,"mirror":false,"chromatic_density":0.471,"complexity":0.732,"dissonance":0.123},{"voice":2,"pitch":59,"start":28.5,"duration":0.1667,"velocity":127,"measure":11,"beat":3.75,"subject_pos":-1,"motif":"enigmatic_cell","motif_pos":2,"best_pos":2,"similarity":1.0,"stretto":false,"stretto_voices":0,"combination":[],"aug_dim":"","rhythm_ratio":1.0,"mirror":false,"chromatic_density":0.471,"complexity":0.732,"dissonance":0.123},{"voice":0,"pitch":69,"start":28.6666,"duration":0.5,"velocity":127,"measure":11,"beat":4.0,"subject_pos":7,"motif":"subject","motif_pos":7,"best_pos":7,"similarity":1.0,"stretto":false,"stretto_voices":0,"combination":[],"aug_dim":"","rhythm_ratio":1.0,"mirror":false,"chromatic_density":0.471,"complexity":0.732,"dissonance":0.123},{"voice":1,"pitch":72,"start":28.6666,"duration":0.5,"velocity":127,"measure":11,"beat":4.0,"subject_pos":-1,"motif":"","motif_pos":-1,"best_pos":3,"similarity":0.471,"stretto":false,"stretto_voices":0,"combination":[],"aug_dim":"","rhythm_ratio":1.0,"mirror":false,"chromatic_density":0.471,"complexity":0.732,"dissonance":0.123},{"voice":2,"pitch":60,"start":28.6666,"duration":0.5,"velocity":127,"measure":11,"beat":4.0,"subject_pos":-1,"motif":"","motif_pos":-1,"best_pos":5,"similarity":0.45,"stretto":false,"stretto_voices":0,"combination":[],"aug_dim":"","rhythm_ratio":1.0,"mirror":false,"chromatic_density":0.471,"complexity":0.732,"dissonance":0.123},{"voice":0,"pitch":71,"start":29.1666,"duration":0.1667,"velocity":127,"measure":11,"beat":4.75,"subject_pos":8,"motif":"subject","motif_pos":8,"best_pos":0,"similarity":1.0,"stretto":false,"stretto_voices":0,"combination":[],"aug_dim":"","rhythm_ratio":1.0,"mirror":false,"chromatic_density":0.471,"complexity":0.732,"dissonance":0.123},{"voice":1,"pitch":71,"start":29.1666,"duration":0.1667,"velocity":127,"measure":11,"beat":4.75,"subject_pos":-1,"motif":"","motif_pos":-1,"best_pos":2,"similarity":0.5,"stretto":false,"stretto_voices":0,"combination":[],"aug_dim":"","rhythm_ratio":1.0,"mirror":false,"chromatic_density":0.471,"complexity":0.732,"dissonance":0.123},{"voice":2,"pitch":56,"start":29.1666,"duration":0.1667,"velocity":127,"measure":11,"beat":4.75,"subject_pos":-1,"motif":"enigmatic_cell","motif_pos":0,"best_pos":0,"similarity":1.0,"stretto":false,"stretto_voices":0,"combination":[],"aug_dim":"","rhythm_ratio":1.0,"mirror":false,"chromatic_density":0.471,"complexity":0.732,"dissonance":0.123},{"voice":0,"pitch":72,"start":29.3333,"duration":0.8333,"velocity":127,"measure":12,"beat":1.0,"subject_pos":-1,"motif":"","motif_pos":-1,"best_pos":5,"similarity":0.607,"stretto":false,"stretto_voices":0,"combination":[],"aug_dim":"","rhythm_ratio":1.0,"mirror":false,"chromatic_density":0.4,"complexity":0.542,"dissonance":0.074},{"voice":1,"pitch":69,"start":29.3333,"duration":1.1667,"velocity":127,"measure":12,"beat":1.0,"subject_pos":-1,"motif":"","motif_pos":-1,"best_pos":3,"similarity":0.65,"stretto":false,"stretto_voices":0,"combination":[],"aug_dim":"","rhythm_ratio":1.0,"mirror":false,"chromatic_density":0.4,"complexity":0.542,"dissonance":0.074},{"voice":2,"pitch":57,"start":29.3333,"duration":0.5,"velocity":127,"measure":12,"beat":1.0,"subject_pos":-1,"motif":"enigmatic_cell","motif_pos":1,"best_pos":1,"similarity":1.0,"stretto":false,"stretto_voices":0,"combination":[],"aug_dim":"","rhythm_ratio":1.0,"mirror":false,"chromatic_density":0.4,"complexity":0.542,"dissonance":0.074},{"voice":2,"pitch":52,"start":29.8333,"duration":0.1667,"velocity":127,"measure":12,"beat":1.75,"subject_pos":-1,"motif":"enigmatic_cell","motif_pos":2,"best_pos":2,"similarity":1.0,"stretto":false,"stretto_voices":0,"combination":[],"aug_dim":"","rhythm_ratio":1.0,"mirror":false,"chromatic_density":0.4,"complexity":0.542,"dissonance":0.074},{"voice":2,"pitch":53,"start":30.0,"duration":0.8333,"velocity":127,"measure":12,"beat":2.0,"subject_pos":-1,"motif":"","motif_pos":-1,"best_pos":5,"similarity":0.607,"stretto":false,"stretto_voices":0,"combination":[],"aug_dim":"","rhythm_ratio":1.0,"mirror":false,"chromatic_density":0.4,"complexity":0.542,"dissonance":0.074},{"voice":0,"pitch":74,"start":30.1666,"duration":0.1667,"velocity":127,"measure":12,"beat":2.25,"subject_pos":-1,"motif":"","motif_pos":-1,"best_pos":6,"similarity":0.464,"stretto":false,"stretto_voices":0,"combination":[],"aug_dim":"","rhythm_ratio":1.0,"mirror":false,"chromatic_density":0.4,"complexity":0.542,"dissonance":0.074},{"voice":0,"pitch":72,"start":30.3333,"duration":0.1667,"velocity":127,"measure":12,"beat":2.5,"subject_pos":-1,"motif":"","motif_pos":-1,"best_pos":3,"similarity":0.482,"stretto":false,"stretto_voices":0,"combination":[],"aug_dim":"","rhythm_ratio":1.0,"mirror":false,"chromatic_density":0.4,"complexity":0.542,"dissonance":0.074},{"voice":0,"pitch":71,"start":30.5,"duration":0.1667,"velocity":127,"measure":12,"beat":2.75,"subject_pos":-1,"motif":"","motif_pos":-1,"best_pos":4,"similarity":0.5,"stretto":false,"stretto_voices":0,"combination":[],"aug_dim":"","rhythm_ratio":1.0,"mirror":false,"chromatic_density":0.4,"complexity":0.542,"dissonance":0.074},{"voice":1,"pitch":68,"start":30.5,"duration":0.1667,"velocity":127,"measure":12,"beat":2.75,"subject_pos":-1,"motif":"","motif_pos":-1,"best_pos":4,"similarity":0.7,"stretto":false,"stretto_voices":0,"combination":[],"aug_dim":"","rhythm_ratio":1.0,"mirror":false,"chromatic_density":0.4,"complexity":0.542,"dissonance":0.074},{"voice":0,"pitch":69,"start":30.6666,"duration":2.4167,"velocity":127,"measure":12,"beat":3.0,"subject_pos":-1,"motif":"","motif_pos":-1,"best_pos":3,"similarity":0.571,"stretto":false,"stretto_voices":0,"combination":[],"aug_dim":"","rhythm_ratio":1.0,"mirror":false,"chromatic_density":0.4,"complexity":0.542,"dissonance":0.074},{"voice":1,"pitch":69,"start":30.6666,"duration":1.0833,"velocity":127,"measure":12,"beat":3.0,"subject_pos":-1,"motif":"","motif_pos":-1,"best_pos":5,"similarity":0.507,"stretto":false,"stretto_voices":0,"combination":[],"aug_dim":"","rhythm_ratio":1.0,"mirror":false,"chromatic_density":0.4,"complexity":0.542,"dissonance":0.074},{"voice":2,"pitch":55,"start":30.8333,"duration":0.1667,"velocity":127,"measure":12,"beat":3.25,"subject_pos":-1,"motif":"","motif_pos":-1,"best_pos":6,"similarity":0.464,"stretto":false,"stretto_voices":0,"combination":[],"aug_dim":"","rhythm_ratio":1.0,"mirror":false,"chromatic_density":0.4,"complexity":0.542,"dissonance":0.074},{"voice":2,"pitch":53,"start":31.0,"duration":0.1667,"velocity":127,"measure":12,"beat":3.5,"subject_pos":-1,"motif":"","motif_pos":-1,"best_pos":3,"similarity":0.464,"stretto":false,"stretto_voices":0,"combination":[],"aug_dim":"","rhythm_ratio":1.0,"mirror":false,"chromatic_density":0.4,"complexity":0.542,"dissonance":0.074},{"voice":2,"pitch":52,"start":31.1666,"duration":0.1667,"velocity":127,"measure":12,"beat":3.75,"subject_pos":-1,"motif":"","motif_pos":-1,"best_pos":4,"similarity":0.464,"stretto":false,"stretto_voices":0,"combination":[],"aug_dim":"","rhythm_ratio":1.0,"mirror":false,"chromatic_density":0.4,"complexity":0.542,"dissonance":0.074},{"voice":2,"pitch":50,"start":31.3333,"duration":1.0833,"velocity":127,"measure":12,"beat":4.0,"subject_pos":-1,"motif":"","motif_pos":-1,"best_pos":3,"similarity":0.429,"stretto":false,"stretto_voices":0,"combination":[],"aug_dim":"","rhythm_ratio":1.0,"mirror":false,"chromatic_density":0.4,"complexity":0.542,"dissonance":0.074},{"voice":1,"pitch":67,"start":31.75,"duration":0.0833,"velocity":127,"measure":12,"beat":4.625,"subject_pos":-1,"motif":"","motif_pos":-1,"best_pos":2,"similarity":0.657,"stretto":false,"stretto_voices":0,"combination":[],"aug_dim":"","rhythm_ratio":1.0,"mirror":false,"chromatic_density":0.4,"complexity":0.542,"dissonance":0.074},{"voice":1,"pitch":65,"start":31.8333,"duration":0.0833,"velocity":127,"measure":12,"beat":4.75,"subject_pos":-1,"motif":"","motif_pos":-1,"best_pos":3,"similarity":0.739,"stretto":false,"stretto_voices":0,"combination":[],"aug_dim":"","rhythm_ratio":1.0,"mirror":false,"chromatic_density":0.4,"complexity":0.542,"dissonance":0.074},{"voice":1,"pitch":64,"start":31.9166,"duration":0.0833,"velocity":127,"measure":12,"beat":4.875,"subject_pos":-1,"motif":"","motif_pos":-1,"best_pos":4,"similarity":0.786,"stretto":false,"stretto_voices":0,"combination":[],"aug_dim":"","rhythm_ratio":1.0,"mirror":false,"chromatic_density":0.4,"complexity":0.542,"dissonance":0.074},{"voice":1,"pitch":65,"start":32.0,"duration":2.4167,"velocity":127,"measure":13,"beat":1.0,"subject_pos":-1,"motif":"","motif_pos":-1,"best_pos":5,"similarity":0.607,"stretto":false,"stretto_voices":0,"combination":[],"aug_dim":"","rhythm_ratio":1.0,"mirror":false,"chromatic_density":0.231,"complexity":0.458,"dissonance":0.048},{"voice":2,"pitch":57,"start":32.4166,"duration":0.0833,"velocity":127,"measure":13,"beat":1.625,"subject_pos":-1,"motif":"","motif_pos":-1,"best_pos":4,"similarity":0.571,"stretto":false,"stretto_voices":0,"combination":[],"aug_dim":"","rhythm_ratio":1.0,"mirror":false,"chromatic_density":0.231,"complexity":0.458,"dissonance":0.048},{"voice":2,"pitch":58,"start":32.5,"duration":0.0833,"velocity":127,"measure":13,"beat":1.75,"subject_pos":-1,"motif":"","motif_pos":-1,"best_pos":5,"similarity":0.679,"stretto":false,"stretto_voices":0,"combination":[],"aug_dim":"","rhythm_ratio":1.0,"mirror":false,"chromatic_density":0.231,"complexity":0.458,"dissonance":0.048},{"voice":2,"pitch":60,"start":32.5833,"duration":0.0833,"velocity":127,"measure":13,"beat":1.875,"subject_pos":-1,"motif":"","motif_pos":-1,"best_pos":6,"similarity":0.571,"stretto":false,"stretto_voices":0,"combination":[],"aug_dim":"","rhythm_ratio":1.0,"mirror":false,"chromatic_density":0.231,"complexity":0.458,"dissonance":0.048},{"voice":2,"pitch":62,"start":32.6666,"duration":0.5,"velocity":127,"measure":13,"beat":2.0,"subject_pos":-1,"motif":"","motif_pos":-1,"best_pos":6,"similarity":0.404,"stretto":false,"stretto_voices":0,"combination":[],"aug_dim":"","rhythm_ratio":1.0,"mirror":false,"chromatic_density":0.231,"complexity":0.458,"dissonance":0.048},{"voice":0,"pitch":69,"start":33.0833,"duration":0.0833,"velocity":127,"measure":13,"beat":2.625,"subject_pos":-1,"motif":"","motif_pos":-1,"best_pos":4,"similarity":0.714,"stretto":false,"stretto_voices":0,"combination":[],"aug_dim":"","rhythm_ratio":1.0,"mirror":false,"chromatic_density":0.231,"complexity":0.458,"dissonance":0.048},{"voice":0,"pitch":70,"start":33.1666,"duration":0.0833,"velocity":127,"measure":13,"beat":2.75,"subject_pos":-1,"motif":"","motif_pos":-1,"best_pos":5,"similarity":0.75,"stretto":false,"stretto_voices":0,"combination":[],"aug_dim":"","rhythm_ratio":1.0,"mirror":false,"chromatic_density":0.231,"complexity":0.458,"dissonance":0.048},{"voice":2,"pitch":60,"start":33.1666,"duration":0.1667,"velocity":127,"measure":13,"beat":2.75,"subject_pos":-1,"motif":"","motif_pos":-1,"best_pos":2,"similarity":0.464,"stretto":false,"stretto_voices":0,"combination":[],"aug_dim":"","rhythm_ratio":1.0,"mirror":false,"chromatic_density":0.231,"complexity":0.458,"dissonance":0.048},{"voice":0,"pitch":72,"start":33.25,"duration":0.0833,"velocity":127,"measure":13,"beat":2.875,"subject_pos":-1,"motif":"","motif_pos":-1,"best_pos":6,"similarity":0.607,"stretto":false,"stretto_voices":0,"combination":[],"aug_dim":"","rhythm_ratio":1.0,"mirror":false,"chromatic_density":0.231,"complexity":0.458,"dissonance":0.048},{"voice":0,"pitch":74,"start":33.3333,"duration":2.4167,"velocity":127,"measure":13,"beat":3.0,"subject_pos":-1,"motif":"","motif_pos":-1,"best_pos":6,"similarity":0.518,"stretto":false,"stretto_voices":0,"combination":[],"aug_dim":"","rhythm_ratio":1.0,"mirror":false,"chromatic_density":0.231,"complexity":0.458,"dissonance":0.048},{"voice":2,"pitch":58,"start":33.3333,"duration":0.5,"velocity":127,"measure":13,"beat":3.0,"subject_pos":-1,"motif":"","motif_pos":-1,"best_pos":5,"similarity":0.4,"stretto":false,"stretto_voices":0,"combination":[],"aug_dim":"","rhythm_ratio":1.0,"mirror":false,"chromatic_density":0.231,"complexity":0.458,"dissonance":0.048},{"voice":2,"pitch":60,"start":33.8333,"duration":0.1667,"velocity":127,"measure":13,"beat":3.75,"subject_pos":-1,"motif":"","motif_pos":-1,"best_pos":1,"similarity":0.386,"stretto":false,"stretto_voices":0,"combination":[],"aug_dim":"","rhythm_ratio":1.0,"mirror":false,"chromatic_density":0.231,"complexity":0.458,"dissonance":0.048},{"voice":2,"pitch":58,"start":34.0,"duration":0.5,"velocity":127,"measure":13,"beat":4.0,"subject_pos":-1,"motif":"","motif_pos":-1,"best_pos":3,"similarity":0.457,"stretto":false,"stretto_voices":0,"combination":[],"aug_dim":"","rhythm_ratio":1.0,"mirror":false,"chromatic_density":0.231,"complexity":0.458,"dissonance":0.048},{"voice":1,"pitch":65,"start":34.4166,"duration":0.0833,"velocity":127,"measure":13,"beat":4.625,"subject_pos":-1,"motif":"","motif_pos":-1,"best_pos":5,"similarity":0.554,"stretto":false,"stretto_voices":0,"combination":[],"aug_dim":"","rhythm_ratio":1.0,"mirror":false,"chromatic_density":0.231,"complexity":0.458,"dissonance":0.048},{"voice":1,"pitch":67,"start":34.5,"duration":0.0833,"velocity":127,"measure":13,"beat":4.75,"subject_pos":-1,"motif":"","motif_pos":-1,"best_pos":5,"similarity":0.65,"stretto":false,"stretto_voices":0,"combination":[],"aug_dim":"","rhythm_ratio":1.0,"mirror":false,"chromatic_density":0.231,"complexity":0.458,"dissonance":0.048},{"voice":2,"pitch":57,"start":34.5,"duration":0.1667,"velocity":127,"measure":13,"beat":4.75,"subject_pos":-1,"motif":"","motif_pos":-1,"best_pos":3,"similarity":0.436,"stretto":false,"stretto_voices":0,"combination":[],"aug_dim":"","rhythm_ratio":1.0,"mirror":false,"chromatic_density":0.231,"complexity":0.458,"dissonance":0.048},{"voice":1,"pitch":69,"start":34.5833,"duration":0.0833,"velocity":127,"measure":13,"beat":4.875,"subject_pos":-1,"motif":"","motif_pos":-1,"best_pos":6,"similarity":0.679,"stretto":false,"stretto_voices":0,"combination":[],"aug_dim":"","rhythm_ratio":1.0,"mirror":false,"chromatic_density":0.231,"complexity":0.458,"dissonance":0.048},{"voice":1,"pitch":70,"start":34.6666,"duration":1.8333,"velocity":127,"measure":14,"beat":1.0,"subject_pos":-1,"motif":"","motif_pos":-1,"best_pos":6,"similarity":0.507,"stretto":false,"stretto_voices":0,"combination":[],"aug_dim":"","rhythm_ratio":1.0,"mirror":false,"chromatic_density":0.444,"complexity":0.602,"dissonance":0.246},{"voice":2,"pitch":55,"start":34.6666,"duration":0.4167,"velocity":127,"measure":14,"beat":1.0,"subject_pos":-1,"motif":"","motif_pos":-1,"best_pos":4,"similarity":0.464,"stretto":false,"stretto_voices":0,"combination":[],"aug_dim":"","rhythm_ratio":1.0,"mirror":false,"chromatic_density":0.444,"complexity":0.602,"dissonance":0.246},{"voice":2,"pitch":62,"start":35.0833,"duration":0.0833,"velocity":127,"measure":14,"beat":1.625,"subject_pos":-1,"motif":"","motif_pos":-1,"best_pos":5,"similarity":0.518,"stretto":false,"stretto_voices":0,"combination":[],"aug_dim":"","rhythm_ratio":1.0,"mirror":false,"chromatic_density":0.444,"complexity":0.602,"dissonance":0.246},{"voice":2,"pitch":64,"start":35.1666,"duration":0.0833,"velocity":127,"measure":14,"beat":1.75,"subject_pos":-1,"motif":"","motif_pos":-1,"best_pos":6,"similarity":0.607,"stretto":false,"stretto_voices":0,"combination":[],"aug_dim":"","rhythm_ratio":1.0,"mirror":false,"chromatic_density":0.444,"complexity":0.602,"dissonance":0.246},{"voice":2,"pitch":65,"start":35.25,"duration":0.0833,"velocity":127,"measure":14,"beat":1.875,"subject_pos":-1,"motif":"","motif_pos":-1,"best_pos":5,"similarity":0.6,"stretto":false,"stretto_voices":0,"combination":[],"aug_dim":"","rhythm_ratio":1.0,"mirror":false,"chromatic_density":0.444,"complexity":0.602,"dissonance":0.246},{"voice":2,"pitch":67,"start":35.3333,"duration":0.5,"velocity":127,"measure":14,"beat":2.0,"subject_pos":-1,"motif":"","motif_pos":-1,"best_pos":6,"similarity":0.464,"stretto":false,"stretto_voices":0,"combination":[],"aug_dim":"","rhythm_ratio":1.0,"mirror":false,"chromatic_density":0.444,"complexity":0.602,"dissonance":0.246},{"voice":0,"pitch":74,"start":35.75,"duration":0.0833,"velocity":127,"measure":14,"beat":2.625,"subject_pos":-1,"motif":"","motif_pos":-1,"best_pos":5,"similarity":0.586,"stretto":false,"stretto_voices":0,"combination":[],"aug_dim":"","rhythm_ratio":1.0,"mirror":false,"chromatic_density":0.444,"complexity":0.602,"dissonance":0.246},{"voice":0,"pitch":76,"start":35.8333,"duration":0.0833,"velocity":127,"measure":14,"beat":2.75,"subject_pos":-1,"motif":"","motif_pos":-1,"best_pos":6,"similarity":0.65,"stretto":false,"stretto_voices":0,"combination":[],"aug_dim":"","rhythm_ratio":1.0,"mirror":false,"chromatic_density":0.444,"complexity":0.602,"dissonance":0.246},{"voice":2,"pitch":65,"start":35.8333,"duration":0.1667,"velocity":127,"measure":14,"beat":2.75,"subject_pos":-1,"motif":"","motif_pos":-1,"best_pos":3,"similarity":0.6,"stretto":false,"stretto_voices":0,"combination":[],"aug_dim":"","rhythm_ratio":1.0,"mirror":false,"chromatic_density":0.444,"complexity":0.602,"dissonance":0.246},{"voice":0,"pitch":77,"start":35.9166,"duration":0.0833,"velocity":127,"measure":14,"beat":2.875,"subject_pos":-1,"motif":"","motif_pos":-1,"best_pos":5,"similarity":0.607,"stretto":false,"stretto_voices":0,"combination":[],"aug_dim":"","rhythm_ratio":1.0,"mirror":false,"chromatic_density":0.444,"complexity":0.602,"dissonance":0.246},{"voice":0,"pitch":79,"start":36.0,"duration":1.8333,"velocity":127,"measure":14,"beat":3.0,"subject_pos":-1,"motif":"","motif_pos":-1,"best_pos":6,"similarity":0.464,"stretto":false,"stretto_voices":0,"combination":[],"aug_dim":"","rhythm_ratio":1.0,"mirror":false,"chromatic_density":0.444,"complexity":0.602,"dissonance":0.246},{"voice":2,"pitch":64,"start":36.0,"duration":0.5,"velocity":127,"measure":14,"beat":3.0,"subject_pos":-1,"motif":"tail_inv","motif_pos":0,"best_pos":0,"similarity":1.0,"stretto":false,"stretto_voices":0,"combination":[],"aug_dim":"","rhythm_ratio":1.0,"mirror":false,"chromatic_density":0.444,"complexity":0.602,"dissonance":0.246},{"voice":1,"pitch":71,"start":36.5,"duration":0.1667,"velocity":127,"measure":14,"beat":3.75,"subject_pos":-1,"motif":"","motif_pos":-1,"best_pos":5,"similarity":0.5,"stretto":false,"stretto_voices":0,"combination":[],"aug_dim":"","rhythm_ratio":1.0,"mirror":false,"chromatic_density":0.444,"complexity":0.602,"dissonance":0.246},{"voice":2,"pitch":65,"start":36.5,"duration":0.1667,"velocity":127,"measure":14,"beat":3.75,"subject_pos":-1,"motif":"tail_inv","motif_pos":1,"best_pos":1,"similarity":1.0,"stretto":false,"stretto_voices":0,"combination":[],"aug_dim":"","rhythm_ratio":1.0,"mirror":false,"chromatic_density":0.444,"complexity":0.602,"dissonance":0.246},{"voice":1,"pitch":74,"start":36.6666,"duration":0.3333,"velocity":127,"measure":14,"beat":4.0,"subject_pos":-1,"motif":"","motif_pos":-1,"best_pos":3,"similarity":0.393,"stretto":false,"stretto_voices":0,"combination":[],"aug_dim":"","rhythm_ratio":1.0,"mirror":false,"chromatic_density":0.444,"complexity":0.602,"dissonance":0.246},{"voice":2,"pitch":64,"start":36.6666,"duration":0.5,"velocity":127,"measure":14,"beat":4.0,"subject_pos":-1,"motif":"tail_inv","motif_pos":2,"best_pos":2,"similarity":1.0,"stretto":false,"stretto_voices":0,"combination":[],"aug_dim":"","rhythm_ratio":1.0,"mirror":false,"chromatic_density":0.444,"complexity":0.602,"dissonance":0.246},{"voice":1,"pitch":73,"start":37.0,"duration":0.0833,"velocity":127,"measure":14,"beat":4.5,"subject_pos":-1,"motif":"","motif_pos":-1,"best_pos":4,"similarity":0.536,"stretto":false,"stretto_voices":0,"combination":[],"aug_dim":"","rhythm_ratio":1.0,"mirror":false,"chromatic_density":0.444,"complexity":0.602,"dissonance":0.246},{"voice":1,"pitch":71,"start":37.0833,"duration":0.0833,"velocity":127,"measure":14,"beat":4.625,"subject_pos":-1,"motif":"","motif_pos":-1,"best_pos":5,"similarity":0.6,"stretto":false,"stretto_voices":0,"combination":[],"aug_dim":"","rhythm_ratio":1.0,"mirror":false,"chromatic_density":0.444,"complexity":0.602,"dissonance":0.246},{"voice":1,"pitch":73,"start":37.1666,"duration":0.0833,"velocity":127,"measure":14,"beat":4.75,"subject_pos":-1,"motif":"","motif_pos":-1,"best_pos":6,"similarity":0.657,"stretto":false,"stretto_voices":0,"combination":[],"aug_dim":"","rhythm_ratio":1.0,"mirror":false,"chromatic_density":0.444,"complexity":0.602,"dissonance":0.246},{"voice":2,"pitch":62,"start":37.1666,"duration":0.1667,"velocity":127,"measure":14,"beat":4.75,"subject_pos":-1,"motif":"tail_inv","motif_pos":3,"best_pos":3,"similarity":1.0,"stretto":false,"stretto_voices":0,"combination":[],"aug_dim":"","rhythm_ratio":1.0,"mirror":false,"chromatic_density":0.444,"complexity":0.602,"dissonance":0.246},{"voice":1,"pitch":74,"start":37.25,"duration":0.0833,"velocity":127,"measure":14,"beat":4.875,"subject_pos":-1,"motif":"","motif_pos":-1,"best_pos":5,"similarity":0.636,"stretto":false,"stretto_voices":0,"combination":[],"aug_dim":"","rhythm_ratio":1.0,"mirror":false,"chromatic_density":0.444,"complexity":0.602,"dissonance":0.246},{"voice":1,"pitch":76,"start":37.3333,"duration":1.1667,"velocity":127,"measure":15,"beat":1.0,"subject_pos":-1,"motif":"","motif_pos":-1,"best_pos":6,"similarity":0.464,"stretto":false,"stretto_voices":0,"combination":[],"aug_dim":"","rhythm_ratio":1.0,"mirror":false,"chromatic_density":0.333,"complexity":0.703,"dissonance":0.16},{"voice":2,"pitch":61,"start":37.3333,"duration":0.6667,"velocity":127,"measure":15,"beat":1.0,"subject_pos":-1,"motif":"tail_inv","motif_pos":4,"best_pos":4,"similarity":1.0,"stretto":false,"stretto_voices":0,"combination":[],"aug_dim":"","rhythm_ratio":1.0,"mirror":false,"chromatic_density":0.333,"complexity":0.703,"dissonance":0.16},{"voice":3,"pitch":57,"start":37.3333,"duration":0.6667,"velocity":127,"measure":15,"beat":1.0,"subject_pos":0,"motif":"subject_inv","motif_pos":0,"best_pos":0,"similarity":1.0,"stretto":false,"stretto_voices":0,"combination":[],"aug_dim":"","rhythm_ratio":1.0,"mirror":false,"chromatic_density":0.333,"complexity":0.703,"dissonance":0.16},{"voice":0,"pitch":77,"start":37.8333,"duration":0.0833,"velocity":127,"measure":15,"beat":1.75,"subject_pos":-1,"motif":"","motif_pos":-1,"best_pos":3,"similarity":0.664,"stretto":false,"stretto_voices":0,"combination":[],"aug_dim":"","rhythm_ratio":1.0,"mirror":false,"chromatic_density":0.333,"complexity":0.703,"dissonance":0.16},{"voice":0,"pitch":76,"start":37.9166,"duration":0.0833,"velocity":127,"measure":15,"beat":1.875,"subject_pos":-1,"motif":"","motif_pos":-1,"best_pos":4,"similarity":0.829,"stretto":false,"stretto_voices":0,"combination":[],"aug_dim":"","rhythm_ratio":1.0,"mirror":false,"chromatic_density":0.333,"complexity":0.703,"dissonance":0.16},{"voice":0,"pitch":77,"start":38.0,"duration":0.5,"velocity":127,"measure":15,"beat":2.0,"subject_pos":-1,"motif":"","motif_pos":-1,"best_pos":5,"similarity":0.821,"stretto":false,"stretto_voices":0,"combination":[],"aug_dim":"","rhythm_ratio":1.0,"mirror":false,"chromatic_density":0.333,"complexity":0.703,"dissonance":0.16},{"voice":2,"pitch":57,"start":38.0,"duration":1.3333,"velocity":127,"measure":15,"beat":2.0,"subject_pos":-1,"motif":"","motif_pos":-1,"best_pos":0,"similarity":0.321,"stretto":false,"stretto_voices":0,"combination":[],"aug_dim":"","rhythm_ratio":1.0,"mirror":false,"chromatic_density":0.333,"complexity":0.703,"dissonance":0.16},{"voice":3,"pitch":50,"start":38.0,"duration":0.5,"velocity":127,"measure":15,"beat":2.0,"subject_pos":1,"motif":"subject_inv","motif_pos":1,"best_pos":1,"similarity":1.0,"stretto":false,"stretto_voices":0,"combination":[],"aug_dim":"","rhythm_ratio":1.0,"mirror":false,"chromatic_density":0.333,"complexity":0.703,"dissonance":0.16},{"voice":0,"pitch":79,"start":38.5,"duration":0.1667,"velocity":127,"measure":15,"beat":2.75,"subject_pos":-1,"motif":"","motif_pos":-1,"best_pos":6,"similarity":0.643,"stretto":false,"stretto_voices":0,"combination":[],"aug_dim":"","rhythm_ratio":1.0,"mirror":false,"chromatic_density":0.333,"complexity":0.703,"dissonance":0.16},{"voice":1,"pitch":74,"start":38.5,"duration":0.0833,"velocity":127,"measure":15,"beat":2.75,"subject_pos":-1,"motif":"","motif_pos":-1,"best_pos":3,"similarity":0.6,"stretto":false,"stretto_voices":0,"combination":[],"aug_dim":"","rhythm_ratio":1.0,"mirror":false,"chromatic_density":0.333,"complexity":0.703,"dissonance":0.16},{"voice":3,"pitch":52,"start":38.5,"duration":0.1667,"velocity":127,"measure":15,"beat":2.75,"subject_pos":2,"motif":"subject_inv","motif_pos":2,"best_pos":2,"similarity":1.0,"stretto":false,"stretto_voices":0,"combination":[],"aug_dim":"","rhythm_ratio":1.0,"mirror":false,"chromatic_density":0.333,"complexity":0.703,"dissonance":0.16},{"voice":1,"pitch":73,"start":38.5833,"duration":0.0833,"velocity":127,"measure":15,"beat":2.875,"subject_pos":-1,"motif":"","motif_pos":-1,"best_pos":4,"similarity":0.671,"stretto":false,"stretto_voices":0,"combination":[],"aug_dim":"","rhythm_ratio":1.0,"mirror":false,"chromatic_density":0.333,"complexity":0.703,"dissonance":0.16},{"voice":0,"pitch":81,"start":38.6666,"duration":0.5,"velocity":127,"measure":15,"beat":3.0,"subject_pos":-1,"motif":"","motif_pos":-1,"best_pos":1,"similarity":0.457,"stretto":false,"stretto_voices":0,"combination":[],"aug_dim":"","rhythm_ratio":1.0,"mirror":false,"chromatic_density":0.333,"complexity":0.703,"dissonance":0.16},{"voice":1,"pitch":74,"start":38.6666,"duration":1.1667,"velocity":127,"measure":15,"beat":3.0,"subject_pos":-1,"motif":"","motif_pos":-1,"best_pos":5,"similarity":0.507,"stretto":false,"stretto_voices":0,"combination":[],"aug_dim":"","rhythm_ratio":1.0,"mirror":false,"chromatic_density":0.333,"complexity":0.703,"dissonance":0.16},{"voice":3,"pitch":53,"start":38.6666,"duration":0.5,"velocity":127,"measure":15,"beat":3.0,"subject_pos":3,"motif":"subject_inv","motif_pos":3,"best_pos":3,"similarity":1.0,"stretto":false,"stretto_voices":0,"combination":[],"aug_dim":"","rhythm_ratio":1.0,"mirror":false,"chromatic_density":0.333,"complexity":0.703,"dissonance":0.16},{"voice":0,"pitch":79,"start":39.1666,"duration":0.0833,"velocity":127,"measure":15,"beat":3.75,"subject_pos":-1,"motif":"","motif_pos":-1,"best_pos":2,"similarity":0.621,"stretto":false,"stretto_voices":0,"combination":[],"aug_dim":"","rhythm_ratio":1.0,"mirror":false,"chromatic_density":0.333,"complexity":0.703,"dissonance":0.16},{"voice":3,"pitch":55,"start":39.1666,"duration":0.1667,"velocity":127,"measure":15,"beat":3.75,"subject_pos":4,"motif":"subject_inv","motif_pos":4,"best_pos":4,"similarity":1.0,"stretto":false,"stretto_voices":0,"combination":[],"aug_dim":"","rhythm_ratio":1.0,"mirror":false,"chromatic_density":0.333,"complexity":0.703,"dissonance":0.16},{"voice":0,"pitch":77,"start":39.25,"duration":0.0833,"velocity":127,"measure":15,"beat":3.875,"subject_pos":-1,"motif":"","motif_pos":-1,"best_pos":3,"similarity":0.686,"stretto":false,"stretto_voices":0,"combination":[],"aug_dim":"","rhythm_ratio":1.0,"mirror":false,"chromatic_density":0.333,"complexity":0.703,"dissonance":0.16},{"voice":0,"pitch":76,"start":39.3333,"duration":0.5,"velocity":127,"measure":15,"beat":4.0,"subject_pos":-1,"motif":"","motif_pos":-1,"best_pos":4,"similarity":0.679,"stretto":false,"stretto_voices":0,"combination":[],"aug_dim":"","rhythm_ratio":1.0,"mirror":false,"chromatic_density":0.333,"complexity":0.703,"dissonance":0.16},{"voice":3,"pitch":57,"start":39.3333,"duration":0.6667,"velocity":127,"measure":15,"beat":4.0,"subject_pos":5,"motif":"subject_inv","motif_pos":5,"best_pos":5,"similarity":1.0,"stretto":false,"stretto_voices":0,"combination":[],"aug_dim":"","rhythm_ratio":1.0,"mirror":false,"chromatic_density":0.333,"complexity":0.703,"dissonance":0.16},{"voice":0,"pitch":78,"start":39.8333,"duration":0.1667,"velocity":127,"measure":15,"beat":4.75,"subject_pos":-1,"motif":"","motif_pos":-1,"best_pos":6,"similarity":0.643,"stretto":false,"stretto_voices":0,"combination":[],"aug_dim":"","rhythm_ratio":1.0,"mirror":false,"chromatic_density":0.333,"complexity":0.703,"dissonance":0.16},{"voice":1,"pitch":72,"start":39.8333,"duration":0.1667,"velocity":127,"measure":15,"beat":4.75,"subject_pos":-1,"motif":"","motif_pos":-1,"best_pos":2,"similarity":0.486,"stretto":false,"stretto_voices":0,"combination":[],"aug_dim":"","rhythm_ratio":1.0,"mirror":false,"chromatic_density":0.333,"complexity":0.703,"dissonance":0.16},{"voice":0,"pitch":79,"start":40.0,"duration":0.6667,"velocity":127,"measure":16,"beat":1.0,"subject_pos":-1,"motif":"","motif_pos":-1,"best_pos":5,"similarity":0.604,"stretto":false,"stretto_voices":0,"combination":[],"aug_dim":"","rhythm_ratio":1.0,"mirror":false,"chromatic_density":0.294,"complexity":0.746,"dissonance":0.044},{"voice":1,"pitch":70,"start":40.0,"duration":0.5,"velocity":127,"measure":16,"beat":1.0,"subject_pos":-1,"motif":"","motif_pos":-1,"best_pos":2,"similarity":0.661,"stretto":false,"stretto_voices":0,"combination":[],"aug_dim":"","rhythm_ratio":1.0,"mirror":false,"chromatic_density":0.294,"complexity":0.746,"dissonance":0.044},{"voice":2,"pitch":62,"start":40.0,"duration":1.3333,"velocity":127,"measure":16,"beat":1.0,"subject_pos":0,"motif":"subject","motif_pos":0,"best_pos":0,"similarity":1.0,"stretto":true,"stretto_voices":2,"combination":[],"aug_dim":"augmentation","rhythm_ratio":2.0,"mirror":false,"chromatic_density":0.294,"complexity":0.746,"dissonance":0.044},{"voice":3,"pitch":58,"start":40.0,"duration":0.6667,"velocity":127,"measure":16,"beat":1.0,"subject_pos":6,"motif":"subject_inv","motif_pos":6,"best_pos":6,"similarity":1.0,"stretto":true,"stretto_voices":2,"combination":[],"aug_dim":"","rhythm_ratio":1.0,"mirror":false,"chromatic_density":0.294,"complexity":0.746,"dissonance":0.044},{"voice":1,"pitch":67,"start":40.5,"duration":0.1667,"velocity":127,"measure":16,"beat":1.75,"subject_pos":-1,"motif":"","motif_pos":-1,"best_pos":3,"similarity":0.614,"stretto":false,"stretto_voices":0,"combination":[],"aug_dim":"","rhythm_ratio":1.0,"mirror":false,"chromatic_density":0.294,"complexity":0.746,"dissonance":0.044},{"voice":1,"pitch":65,"start":40.6666,"duration":0.5,"velocity":127,"measure":16,"beat":2.0,"subject_pos":-1,"motif":"","motif_pos":-1,"best_pos":3,"similarity":0.514,"stretto":false,"stretto_voices":0,"combination":[],"aug_dim":"","rhythm_ratio":1.0,"mirror":false,"chromatic_density":0.294,"complexity":0.746,"dissonance":0.044},{"voice":3,"pitch":57,"start":40.6666,"duration":0.5,"velocity":127,"measure":16,"beat":2.0,"subject_pos":7,"motif":"subject_inv","motif_pos":7,"best_pos":7,"similarity":1.0,"stretto":true,"stretto_voices":2,"combination":[],"aug_dim":"","rhythm_ratio":1.0,"mirror":false,"chromatic_density":0.294,"complexity":0.746,"dissonance":0.044},{"voice":1,"pitch":64,"start":41.1666,"duration":0.1667,"velocity":127,"measure":16,"beat":2.75,"subject_pos":-1,"motif":"","motif_pos":-1,"best_pos":4,"similarity":0.493,"stretto":false,"stretto_voices":0,"combination":[],"aug_dim":"","rhythm_ratio":1.0,"mirror":false,"chromatic_density":0.294,"complexity":0.746,"dissonance":0.044},{"voice":3,"pitch":55,"start":41.1666,"duration":0.1667,"velocity":127,"measure":16,"beat":2.75,"subject_pos":8,"motif":"subject_inv","motif_pos":8,"best_pos":0,"similarity":1.0,"stretto":true,"stretto_voices":2,"combination":[],"aug_dim":"","rhythm_ratio":1.0,"mirror":false,"chromatic_density":0.294,"complexity":0.746,"dissonance":0.044},{"voice":0,"pitch":81,"start":41.3333,"duration":0.6667,"velocity":127,"measure":16,"beat":3.0,"subject_pos":0,"motif":"subject_inv","motif_pos":0,"best_pos":0,"similarity":1.0,"stretto":true,"stretto_voices":2,"combination":[],"aug_dim":"","rhythm_ratio":1.0,"mirror":false,"chromatic_density":0.294,"complexity":0.746,"dissonance":0.044},{"voice":1,"pitch":62,"start":41.3333,"duration":0.5,"velocity":127,"measure":16,"beat":3.0,"subject_pos":-1,"motif":"","motif_pos":-1,"best_pos":3,"similarity":0.357,"stretto":false,"stretto_voices":0,"combination":[],"aug_dim":"","rhythm_ratio":1.0,"mirror":false,"chromatic_density":0.294,"complexity":0.746,"dissonance":0.044},{"voice":2,"pitch":69,"start":41.3333,"duration":1.0,"velocity":127,"measure":16,"beat":3.0,"subject_pos":1,"motif":"subject","motif_pos":1,"best_pos":1,"similarity":1.0,"stretto":true,"stretto_voices":2,"combination":[],"aug_dim":"augmentation","rhythm_ratio":2.0,"mirror":false,"chromatic_density":0.294,"complexity":0.746,"dissonance":0.044},{"voice":3,"pitch":53,"start":41.3333,"duration":0.8333,"velocity":127,"measure":16,"beat":3.0,"subject_pos":-1,"motif":"","motif_pos":-1,"best_pos":3,"similarity":0.786,"stretto":false,"stretto_voices":0,"combination":[],"aug_dim":"","rhythm_ratio":1.0,"mirror":false,"chromatic_density":0.294,"complexity":0.746,"dissonance":0.044},{"voice":1,"pitch":73,"start":41.8333,"duration":0.1667,"velocity":127,"measure":16,"beat":3.75,"subject_pos":-1,"motif":"","motif_pos":-1,"best_pos":4,"similarity":0.429,"stretto":false,"stretto_voices":0,"combination":[],"aug_dim":"","rhythm_ratio":1.0,"mirror":false,"chromatic_density":0.294,"complexity":0.746,"dissonance":0.044},{"voice":0,"pitch":74,"start":42.0,"duration":0.5,"velocity":127,"measure":16,"beat":4.0,"subject_pos":1,"motif":"subject_inv","motif_pos":1,"best_pos":1,"similarity":1.0,"stretto":true,"stretto_voices":2,"combination":[],"aug_dim":"","rhythm_ratio":1.0,"mirror":false,"chromatic_density":0.294,"complexity":0.746,"dissonance":0.044},{"voice":1,"pitch":74,"start":42.0,"duration":1.1667,"velocity":127,"measure":16,"beat":4.0,"subject_pos":-1,"motif":"","motif_pos":-1,"best_pos":5,"similarity":0.393,"stretto":false,"stretto_voices":0,"combination":[],"aug_dim":"","rhythm_ratio":1.0,"mirror":false,"chromatic_density":0.294,"complexity":0.746,"dissonance":0.044},{"voice":3,"pitch":52,"start":42.1666,"duration":0.1667,"velocity":127,"measure":16,"beat":4.25,"subject_pos":-1,"motif":"","motif_pos":-1,"best_pos":4,"similarity":0.893,"stretto":false,"stretto_voices":0,"combination":[],"aug_dim":"","rhythm_ratio":1.0,"mirror":false,"chromatic_density":0.294,"complexity":0.746,"dissonance":0.044},{"voice":2,"pitch":67,"start":42.3333,"duration":0.3333,"velocity":127,"measure":16,"beat":4.5,"subject_pos":2,"motif":"subject","motif_pos":2,"best_pos":2,"similarity":1.0,"stretto":true,"stretto_voices":2,"combination":[],"aug_dim":"augmentation","rhythm_ratio":2.0,"mirror":false,"chromatic_density":0.294,"complexity":0.746,"dissonance":0.044},{"voice":3,"pitch":53,"start":42.3333,"duration":0.1667,"velocity":127,"measure":16,"beat":4.5,"subject_pos":-1,"motif":"","motif_pos":-1,"best_pos":5,"similarity":0.821,"stretto":false,"stretto_voices":0,"combination":[],"aug_dim":"","rhythm_ratio":1.0,"mirror":false,"chromatic_density":0.294,"complexity":0.746,"dissonance":0.044},{"voice":0,"pitch":76,"start":42.5,"duration":0.1667,"velocity":127,"measure":16,"beat":4.75,"subject_pos":2,"motif":"subject_inv","motif_pos":2,"best_pos":2,"similarity":1.0,"stretto":true,"stretto_voices":2,"combination":[],"aug_dim":"","rhythm_ratio":1.0,"mirror":false,"chromatic_density":0.294,"complexity":0.746,"dissonance":0.044},{"voice":3,"pitch":55,"start":42.5,"duration":0.1667,"velocity":127,"measure":16,"beat":4.75,"subject_pos":-1,"motif":"","motif_pos":-1,"best_pos":6,"similarity":0.643,"stretto":false,"stretto_voices":0,"combination":[],"aug_dim":"","rhythm_ratio":1.0,"mirror":false,"chromatic_density":0.294,"complexity":0.746,"dissonance":0.044},{"voice":0,"pitch":77,"start":42.6666,"duration":0.5,"velocity":127,"measure":17,"beat":1.0,"subject_pos":3,"motif":"subject_inv","motif_pos":3,"best_pos":3,"similarity":1.0,"stretto":true,"stretto_voices":2,"combination":[],"aug_dim":"","rhythm_ratio":1.0,"mirror":false,"chromatic_density":0.429,"complexity":0.702,"dissonance":0.123},{"voice":2,"pitch":65,"start":42.6666,"duration":1.0,"velocity":127,"measure":17,"beat":1.0,"subject_pos":3,"motif":"subject","motif_pos":3,"best_pos":3,"similarity":1.0,"stretto":true,"stretto_voices":2,"combination":[],"aug_dim":"augmentation","rhythm_ratio":2.0,"mirror":false,"chromatic_density":0.429,"complexity":0.702,"dissonance":0.123},{"voice":3,"pitch":57,"start":42.6666,"duration":1.3333,"velocity":127,"measure":17,"beat":1.0,"subject_pos":-1,"motif":"","motif_pos":-1,"best_pos":6,"similarity":0.661,"stretto":false,"stretto_voices":0,"combination":[],"aug_dim":"","rhythm_ratio":1.0,"mirror":false,"chromatic_density":0.429,"complexity":0.702,"dissonance":0.123},{"voice":0,"pitch":79,"start":43.1666,"duration":0.1667,"velocity":127,"measure":17,"beat":1.75,"subject_pos":4,"motif":"subject_inv","motif_pos":4,"best_pos":4,"similarity":1.0,"stretto":true,"stretto_voices":2,"combination":[],"aug_dim":"","rhythm_ratio":1.0,"mirror":false,"chromatic_density":0.429,"complexity":0.702,"dissonance":0.123},{"voice":1,"pitch":71,"start":43.1666,"duration":0.1667,"velocity":127,"measure":17,"beat":1.75,"subject_pos":-1,"motif":"","motif_pos":-1,"best_pos":5,"similarity":0.35,"stretto":false,"stretto_voices":0,"combination":[],"aug_dim":"","rhythm_ratio":1.0,"mirror":false,"chromatic_density":0.429,"complexity":0.702,"dissonance":0.123},{"voice":0,"pitch":81,"start":43.3333,"duration":0.6667,"velocity":127,"measure":17,"beat":2.0,"subject_pos":5,"motif":"subject_inv","motif_pos":5,"best_pos":5,"similarity":1.0,"stretto":true,"stretto_voices":2,"combination":[],"aug_dim":"","rhythm_ratio":1.0,"mirror":false,"chromatic_density":0.429,"complexity":0.702,"dissonance":0.123},{"voice":1,"pitch":73,"start":43.3333,"duration":0.5,"velocity":127,"measure":17,"beat":2.0,"subject_pos":-1,"motif":"","motif_pos":-1,"best_pos":1,"similarity":0.457,"stretto":false,"stretto_voices":0,"combination":[],"aug_dim":"","rhythm_ratio":1.0,"mirror":false,"chromatic_density":0.429,"complexity":0.702,"dissonance":0.123},{"voice":2,"pitch":64,"start":43.6666,"duration":0.3333,"velocity":127,"measure":17,"beat":2.5,"subject_pos":4,"motif":"subject","motif_pos":4,"best_pos":4,"similarity":1.0,"stretto":true,"stretto_voices":2,"combination":[],"aug_dim":"augmentation","rhythm_ratio":2.0,"mirror":false,"chromatic_density":0.429,"complexity":0.702,"dissonance":0.123},{"voice":1,"pitch":69,"start":43.8333,"duration":0.1667,"velocity":127,"measure":17,"beat":2.75,"subject_pos":-1,"motif":"","motif_pos":-1,"best_pos":2,"similarity":0.657,"stretto":false,"stretto_voices":0,"combination":[],"aug_dim":"","rhythm_ratio":1.0,"mirror":false,"chromatic_density":0.429,"complexity":0.702,"dissonance":0.123},{"voice":0,"pitch":82,"start":44.0,"duration":0.6667,"velocity":127,"measure":17,"beat":3.0,"subject_pos":6,"motif":"subject_inv","motif_pos":6,"best_pos":6,"similarity":1.0,"stretto":true,"stretto_voices":2,"combination":[],"aug_dim":"","rhythm_ratio":1.0,"mirror":false,"chromatic_density":0.429,"complexity":0.702,"dissonance":0.123},{"voice":1,"pitch":65,"start":44.0,"duration":0.5,"velocity":127,"measure":17,"beat":3.0,"subject_pos":-1,"motif":"","motif_pos":-1,"best_pos":3,"similarity":0.793,"stretto":false,"stretto_voices":0,"combination":[],"aug_dim":"","rhythm_ratio":1.0,"mirror":false,"chromatic_density":0.429,"complexity":0.702,"dissonance":0.123},{"voice":2,"pitch":62,"start":44.0,"duration":1.3333,"velocity":127,"measure":17,"beat":3.0,"subject_pos":5,"motif":"subject","motif_pos":5,"best_pos":5,"similarity":1.0,"stretto":true,"stretto_voices":2,"combination":[],"aug_dim":"augmentation","rhythm_ratio":2.0,"mirror":false,"chromatic_density":0.429,"complexity":0.702,"dissonance":0.123},{"voice":1,"pitch":64,"start":44.5,"duration":0.1667,"velocity":127,"measure":17,"beat":3.75,"subject_pos":-1,"motif":"","motif_pos":-1,"best_pos":4,"similarity":0.893,"stretto":false,"stretto_voices":0,"combination":[],"aug_dim":"","rhythm_ratio":1.0,"mirror":false,"chromatic_density":0.429,"complexity":0.702,"dissonance":0.123},{"voice":0,"pitch":81,"start":44.6666,"duration":0.5,"velocity":127,"measure":17,"beat":4.0,"subject_pos":7,"motif":"subject_inv","motif_pos":7,"best_pos":7,"similarity":1.0,"stretto":true,"stretto_voices":2,"combination":[],"aug_dim":"","rhythm_ratio":1.0,"mirror":false,"chromatic_density":0.429,"complexity":0.702,"dissonance":0.123},{"voice":1,"pitch":65,"start":44.6666,"duration":0.5,"velocity":127,"measure":17,"beat":4.0,"subject_pos":-1,"motif":"","motif_pos":-1,"best_pos":5,"similarity":0.821,"stretto":false,"stretto_voices":0,"combination":[],"aug_dim":"","rhythm_ratio":1.0,"mirror":false,"chromatic_density":0.429,"complexity":0.702,"dissonance":0.123},{"voice":3,"pitch":58,"start":45.0,"duration":0.3333,"velocity":127,"measure":17,"beat":4.5,"subject_pos":-1,"motif":"","motif_pos":-1,"best_pos":7,"similarity":0.464,"stretto":false,"stretto_voices":0,"combination":[],"aug_dim":"","rhythm_ratio":1.0,"mirror":false,"chromatic_density":0.429,"complexity":0.702,"dissonance":0.123},{"voice":0,"pitch":79,"start":45.1666,"duration":0.1667,"velocity":127,"measure":17,"beat":4.75,"subject_pos":8,"motif":"subject_inv","motif_pos":8,"best_pos":0,"similarity":1.0,"stretto":true,"stretto_voices":2,"combination":[],"aug_dim":"","rhythm_ratio":1.0,"mirror":false,"chromatic_density":0.429,"complexity":0.702,"dissonance":0.123},{"voice":1,"pitch":67,"start":45.1666,"duration":0.1667,"velocity":127,"measure":17,"beat":4.75,"subject_pos":-1,"motif":"","motif_pos":-1,"best_pos":6,"similarity":0.643,"stretto":false,"stretto_voices":0,"combination":[],"aug_dim":"","rhythm_ratio":1.0,"mirror":false,"chromatic_density":0.429,"complexity":0.702,"dissonance":0.123},{"voice":0,"pitch":77,"start":45.3333,"duration":0.8333,"velocity":127,"measure":18,"beat":1.0,"subject_pos":-1,"motif":"","motif_pos":-1,"best_pos":3,"similarity":0.786,"stretto":false,"stretto_voices":0,"combination":[],"aug_dim":"","rhythm_ratio":1.0,"mirror":false,"chromatic_density":0.421,"complexity":0.641,"dissonance":0.154},{"voice":1,"pitch":69,"start":45.3333,"duration":1.1667,"velocity":127,"measure":18,"beat":1.0,"subject_pos":-1,"motif":"","motif_pos":-1,"best_pos":6,"similarity":0.661,"stretto":false,"stretto_voices":0,"combination":[],"aug_dim":"","rhythm_ratio":1.0,"mirror":false,"chromatic_density":0.421,"complexity":0.641,"dissonance":0.154},{"voice":2,"pitch":61,"start":45.3333,"duration":1.3333,"velocity":127,"measure":18,"beat":1.0,"subject_pos":6,"motif":"subject","motif_pos":6,"best_pos":6,"similarity":1.0,"stretto":false,"stretto_voices":0,"combination":[],"aug_dim":"augmentation","rhythm_ratio":2.0,"mirror":false,"chromatic_density":0.421,"complexity":0.641,"dissonance":0.154},{"voice":3,"pitch":57,"start":45.3333,"duration":0.5,"velocity":127,"measure":18,"beat":1.0,"subject_pos":-1,"motif":"","motif_pos":-1,"best_pos":2,"similarity":0.407,"stretto":false,"stretto_voices":0,"combination":[],"aug_dim":"","rhythm_ratio":1.0,"mirror":false,"chromatic_density":0.421,"complexity":0.641,"dissonance":0.154},{"voice":3,"pitch":55,"start":45.8333,"duration":0.1667,"velocity":127,"measure":18,"beat":1.75,"subject_pos":-1,"motif":"","motif_pos":-1,"best_pos":2,"similarity":0.45,"stretto":false,"stretto_voices":0,"combination":[],"aug_dim":"","rhythm_ratio":1.0,"mirror":false,"chromatic_density":0.421,"complexity":0.641,"dissonance":0.154},{"voice":3,"pitch":53,"start":46.0,"duration":1.0833,"velocity":127,"measure":18,"beat":2.0,"subject_pos":-1,"motif":"","motif_pos":-1,"best_pos":4,"similarity":0.425,"stretto":false,"stretto_voices":0,"combination":[],"aug_dim":"","rhythm_ratio":1.0,"mirror":false,"chromatic_density":0.421,"complexity":0.641,"dissonance":0.154},{"voice":0,"pitch":76,"start":46.1666,"duration":0.1667,"velocity":127,"measure":18,"beat":2.25,"subject_pos":-1,"motif":"","motif_pos":-1,"best_pos":4,"similarity":0.893,"stretto":false,"stretto_voices":0,"combination":[],"aug_dim":"","rhythm_ratio":1.0,"mirror":false,"chromatic_density":0.421,"complexity":0.641,"dissonance":0.154},{"voice":0,"pitch":77,"start":46.3333,"duration":0.1667,"velocity":127,"measure":18,"beat":2.5,"subject_pos":-1,"motif":"","motif_pos":-1,"best_pos":5,"similarity":0.821,"stretto":false,"stretto_voices":0,"combination":[],"aug_dim":"","rhythm_ratio":1.0,"mirror":false,"chromatic_density":0.421,"complexity":0.641,"dissonance":0.154},{"voice":0,"pitch":79,"start":46.5,"duration":0.1667,"velocity":127,"measure":18,"beat":2.75,"subject_pos":-1,"motif":"","motif_pos":-1,"best_pos":6,"similarity":0.643,"stretto":false,"stretto_voices":0,"combination":[],"aug_dim":"","rhythm_ratio":1.0,"mirror":false,"chromatic_density":0.421,"complexity":0.641,"dissonance":0.154},{"voice":1,"pitch":70,"start":46.5,"duration":0.1667,"velocity":127,"measure":18,"beat":2.75,"subject_pos":-1,"motif":"","motif_pos":-1,"best_pos":7,"similarity":0.464,"stretto":false,"stretto_voices":0,"combination":[],"aug_dim":"","rhythm_ratio":1.0,"mirror":false,"chromatic_density":0.421,"complexity":0.641,"dissonance":0.154},{"voice":0,"pitch":81,"start":46.6666,"duration":0.6667,"velocity":127,"measure":18,"beat":3.0,"subject_pos":-1,"motif":"","motif_pos":-1,"best_pos":6,"similarity":0.375,"stretto":false,"stretto_voices":0,"combination":[],"aug_dim":"","rhythm_ratio":1.0,"mirror":false,"chromatic_density":0.421,"complexity":0.641,"dissonance":0.154},{"voice":1,"pitch":69,"start":46.6666,"duration":0.5,"velocity":127,"measure":18,"beat":3.0,"subject_pos":-1,"motif":"","motif_pos":-1,"best_pos":4,"similarity":0.339,"stretto":false,"stretto_voices":0,"combination":[],"aug_dim":"","rhythm_ratio":1.0,"mirror":false,"chromatic_density":0.421,"complexity":0.641,"dissonance":0.154},{"voice":2,"pitch":62,"start":46.6666,"duration":1.0,"velocity":127,"measure":18,"beat":3.0,"subject_pos":7,"motif":"subject","motif_pos":7,"best_pos":7,"similarity":1.0,"stretto":false,"stretto_voices":0,"combination":[],"aug_dim":"augmentation","rhythm_ratio":2.0,"mirror":false,"chromatic_density":0.421,"complexity":0.641,"dissonance":0.154},{"voice":3,"pitch":55,"start":47.0833,"duration":0.0833,"velocity":127,"measure":18,"beat":3.625,"subject_pos":-1,"motif":"","motif_pos":-1,"best_pos":1,"similarity":0.386,"stretto":false,"stretto_voices":0,"combination":[],"aug_dim":"","rhythm_ratio":1.0,"mirror":false,"chromatic_density":0.421,"complexity":0.641,"dissonance":0.154},{"voice":1,"pitch":79,"start":47.1666,"duration":0.1667,"velocity":127,"measure":18,"beat":3.75,"subject_pos":-1,"motif":"","motif_pos":-1,"best_pos":1,"similarity":0.386,"stretto":false,"stretto_voices":0,"combination":[],"aug_dim":"","rhythm_ratio":1.0,"mirror":false,"chromatic_density":0.421,"complexity":0.641,"dissonance":0.154},{"voice":3,"pitch":53,"start":47.1666,"duration":0.0833,"velocity":127,"measure":18,"beat":3.75,"subject_pos":-1,"motif":"","motif_pos":-1,"best_pos":2,"similarity":0.479,"stretto":false,"stretto_voices":0,"combination":[],"aug_dim":"","rhythm_ratio":1.0,"mirror":false,"chromatic_density":0.421,"complexity":0.641,"dissonance":0.154},{"voice":3,"pitch":52,"start":47.25,"duration":0.0833,"velocity":127,"measure":18,"beat":3.875,"subject_pos":-1,"motif":"","motif_pos":-1,"best_pos":3,"similarity":0.507,"stretto":false,"stretto_voices":0,"combination":[],"aug_dim":"","rhythm_ratio":1.0,"mirror":false,"chromatic_density":0.421,"complexity":0.641,"dissonance":0.154},{"voice":1,"pitch":77,"start":47.3333,"duration":0.1667,"velocity":127,"measure":18,"beat":4.0,"subject_pos":-1,"motif":"","motif_pos":-1,"best_pos":2,"similarity":0.461,"stretto":false,"stretto_voices":0,"combination":[],"aug_dim":"","rhythm_ratio":1.0,"mirror":false,"chromatic_density":0.421,"complexity":0.641,"dissonance":0.154},{"voice":3,"pitch":50,"start":47.3333,"duration":0.6667,"velocity":127,"measure":18,"beat":4.0,"subject_pos":-1,"motif":"","motif_pos":-1,"best_pos":4,"similarity":0.607,"stretto":false,"stretto_voices":0,"combination":[],"aug_dim":"","rhythm_ratio":1.0,"mirror":false,"chromatic_density":0.421,"complexity":0.641,"dissonance":0.154},{"voice":1,"pitch":76,"start":47.5,"duration":0.1667,"velocity":127,"measure":18,"beat":4.25,"subject_pos":-1,"motif":"","motif_pos":-1,"best_pos":2,"similarity":0.5,"stretto":false,"stretto_voices":0,"combination":[],"aug_dim":"","rhythm_ratio":1.0,"mirror":false,"chromatic_density":0.421,"complexity":0.641,"dissonance":0.154},{"voice":1,"pitch":74,"start":47.6666,"duration":0.1667,"velocity":127,"measure":18,"beat":4.5,"subject_pos":-1,"motif":"","motif_pos":-1,"best_pos":3,"similarity":0.65,"stretto":false,"stretto_voices":0,"combination":[],"aug_dim":"","rhythm_ratio":1.0,"mirror":false,"chromatic_density":0.421,"complexity":0.641,"dissonance":0.154},{"voice":2,"pitch":64,"start":47.6666,"duration":0.3333,"velocity":127,"measure":18,"beat":4.5,"subject_pos":8,"motif":"subject","motif_pos":8,"best_pos":0,"similarity":1.0,"stretto":false,"stretto_voices":0,"combination":[],"aug_dim":"augmentation","rhythm_ratio":2.0,"mirror":false,"chromatic_density":0.421,"complexity":0.641,"dissonance":0.154},{"voice":1,"pitch":73,"start":47.8333,"duration":0.1667,"velocity":127,"measure":18,"beat":4.75,"subject_pos":-1,"motif":"","motif_pos":-1,"best_pos":4,"similarity":0.711,"stretto":false,"stretto_voices":0,"combination":[],"aug_dim":"","rhythm_ratio":1.0,"mirror":false,"chromatic_density":0.421,"complexity":0.641,"dissonance":0.154},{"voice":1,"pitch":74,"start":48.0,"duration":0.8333,"velocity":127,"measure":19,"beat":1.0,"subject_pos":-1,"motif":"","motif_pos":-1,"best_pos":5,"similarity":0.529,"stretto":false,"stretto_voices":0,"combination":[],"aug_dim":"","rhythm_ratio":1.0,"mirror":false,"chromatic_density":0.235,"complexity":0.57,"dissonance":0.23},{"voice":2,"pitch":65,"start":48.0,"duration":1.8333,"velocity":127,"measure":19,"beat":1.0,"subject_pos":-1,"motif":"","motif_pos":-1,"best_pos":5,"similarity":0.607,"stretto":false,"stretto_voices":0,"combination":[],"aug_dim":"","rhythm_ratio":1.0,"mirror":false,"chromatic_density":0.235,"complexity":0.57,"dissonance":0.23},{"voice":3,"pitch":50,"start":48.4166,"duration":0.0833,"velocity":127,"measure":19,"beat":1.625,"subject_pos":-1,"motif":"","motif_pos":-1,"best_pos":5,"similarity":0.661,"stretto":false,"stretto_voices":0,"combination":[],"aug_dim":"","rhythm_ratio":1.0,"mirror":false,"chromatic_density":0.235,"complexity":0.57,"dissonance":0.23},{"voice":3,"pitch":52,"start":48.5,"duration":0.0833,"velocity":127,"measure":19,"beat":1.75,"subject_pos":-1,"motif":"","motif_pos":-1,"best_pos":6,"similarity":0.679,"stretto":false,"stretto_voices":0,"combination":[],"aug_dim":"","rhythm_ratio":1.0,"mirror":false,"chromatic_density":0.235,"complexity":0.57,"dissonance":0.23},{"voice":3,"pitch":53,"start":48.5833,"duration":0.0833,"velocity":127,"measure":19,"beat":1.875,"subject_pos":-1,"motif":"","motif_pos":-1,"best_pos":5,"similarity":0.607,"stretto":false,"stretto_voices":0,"combination":[],"aug_dim":"","rhythm_ratio":1.0,"mirror":false,"chromatic_density":0.235,"complexity":0.57,"dissonance":0.23},{"voice":3,"pitch":55,"start":48.6666,"duration":1.0833,"velocity":127,"measure":19,"beat":2.0,"subject_pos":-1,"motif":"","motif_pos":-1,"best_pos":6,"similarity":0.464,"stretto":false,"stretto_voices":0,"combination":[],"aug_dim":"","rhythm_ratio":1.0,"mirror":false,"chromatic_density":0.235,"complexity":0.57,"dissonance":0.23},{"voice":1,"pitch":72,"start":48.8333,"duration":0.1667,"velocity":127,"measure":19,"beat":2.25,"subject_pos":-1,"motif":"","motif_pos":-1,"best_pos":3,"similarity":0.529,"stretto":false,"stretto_voices":0,"combination":[],"aug_dim":"","rhythm_ratio":1.0,"mirror":false,"chromatic_density":0.235,"complexity":0.57,"dissonance":0.23},{"voice":1,"pitch":71,"start":49.0,"duration":0.1667,"velocity":127,"measure":19,"beat":2.5,"subject_pos":-1,"motif":"","motif_pos":-1,"best_pos":4,"similarity":0.536,"stretto":false,"stretto_voices":0,"combination":[],"aug_dim":"","rhythm_ratio":1.0,"mirror":false,"chromatic_density":0.235,"complexity":0.57,"dissonance":0.23},{"voice":1,"pitch":69,"start":49.1666,"duration":0.1667,"velocity":127,"measure":19,"beat":2.75,"subject_pos":-1,"motif":"","motif_pos":-1,"best_pos":5,"similarity":0.493,"stretto":false,"stretto_voices":0,"combination":[],"aug_dim":"","rhythm_ratio":1.0,"mirror":false,"chromatic_density":0.235,"complexity":0.57,"dissonance":0.23},{"voice":1,"pitch":71,"start":49.3333,"duration":0.5,"velocity":127,"measure":19,"beat":3.0,"subject_pos":-1,"motif":"","motif_pos":-1,"best_pos":1,"similarity":0.386,"stretto":false,"stretto_voices":0,"combination":[],"aug_dim":"","rhythm_ratio":1.0,"mirror":false,"chromatic_density":0.235,"complexity":0.57,"dissonance":0.23},{"voice":3,"pitch":52,"start":49.75,"duration":0.0833,"velocity":127,"measure":19,"beat":3.625,"subject_pos":-1,"motif":"","motif_pos":-1,"best_pos":4,"similarity":0.543,"stretto":false,"stretto_voices":0,"combination":[],"aug_dim":"","rhythm_ratio":1.0,"mirror":false,"chromatic_density":0.235,"complexity":0.57,"dissonance":0.23},{"voice":1,"pitch":67,"start":49.8333,"duration":0.1667,"velocity":127,"measure":19,"beat":3.75,"subject_pos":-1,"motif":"","motif_pos":-1,"best_pos":2,"similarity":0.45,"stretto":false,"stretto_voices":0,"combination":[],"aug_dim":"","rhythm_ratio":1.0,"mirror":false,"chromatic_density":0.235,"complexity":0.57,"dissonance":0.23},{"voice":2,"pitch":67,"start":49.8333,"duration":0.1667,"velocity":127,"measure":19,"beat":3.75,"subject_pos":-1,"motif":"","motif_pos":-1,"best_pos":6,"similarity":0.464,"stretto":false,"stretto_voices":0,"combination":[],"aug_dim":"","rhythm_ratio":1.0,"mirror":false,"chromatic_density":0.235,"complexity":0.57,"dissonance":0.23},{"voice":3,"pitch":53,"start":49.8333,"duration":0.0833,"velocity":127,"measure":19,"beat":3.75,"subject_pos":-1,"motif":"","motif_pos":-1,"best_pos":5,"similarity":0.679,"stretto":false,"stretto_voices":0,"combination":[],"aug_dim":"","rhythm_ratio":1.0,"mirror":false,"chromatic_density":0.235,"complexity":0.57,"dissonance":0.23},{"voice":3,"pitch":55,"start":49.9166,"duration":0.0833,"velocity":127,"measure":19,"beat":3.875,"subject_pos":-1,"motif":"","motif_pos":-1,"best_pos":6,"similarity":0.589,"stretto":false,"stretto_voices":0,"combination":[],"aug_dim":"","rhythm_ratio":1.0,"mirror":false,"chromatic_density":0.235,"complexity":0.57,"dissonance":0.23},{"voice":1,"pitch":72,"start":49.9999,"duration":1.1667,"velocity":127,"measure":19,"beat":4.0,"subject_pos":-1,"motif":"","motif_pos":-1,"best_pos":3,"similarity":0.521,"stretto":false,"stretto_voices":0,"combination":[],"aug_dim":"","rhythm_ratio":1.0,"mirror":false,"chromatic_density":0.235,"complexity":0.57,"dissonance":0.23},{"voice":2,"pitch":65,"start":49.9999,"duration":0.5,"velocity":127,"measure":19,"beat":4.0,"subject_pos":-1,"motif":"","motif_pos":-1,"best_pos":3,"similarity":0.471,"stretto":false,"stretto_voices":0,"combination":[],"aug_dim":"","rhythm_ratio":1.0,"mirror":false,"chromatic_density":0.235,"complexity":0.57,"dissonance":0.23},{"voice":3,"pitch":57,"start":49.9999,"duration":0.5,"velocity":127,"measure":19,"beat":4.0,"subject_pos":-1,"motif":"","motif_pos":-1,"best_pos":1,"similarity":0.404,"stretto":false,"stretto_voices":0,"combination":[],"aug_dim":"","rhythm_ratio":1.0,"mirror":false,"chromatic_density":0.235,"complexity":0.57,"dissonance":0.23},{"voice":2,"pitch":64,"start":50.4999,"duration":0.1667,"velocity":127,"measure":19,"beat":4.75,"subject_pos":-1,"motif":"","motif_pos":-1,"best_pos":4,"similarity":0.407,"stretto":false,"stretto_voices":0,"combination":[],"aug_dim":"","rhythm_ratio":1.0,"mirror":false,"chromatic_density":0.235,"complexity":0.57,"dissonance":0.23},{"voice":3,"pitch":55,"start":50.4999,"duration":0.1667,"velocity":127,"measure":19,"beat":4.75,"subject_pos":-1,"motif":"","motif_pos":-1,"best_pos":2,"similarity":0.486,"stretto":false,"stretto_voices":0,"combination":[],"aug_dim":"","rhythm_ratio":1.0,"mirror":false,"chromatic_density":0.235,"complexity":0.57,"dissonance":0.23},{"voice":2,"pitch":62,"start":50.6666,"duration":0.6667,"velocity":127,"measure":20,"beat":1.0,"subject_pos":-1,"motif":"","motif_pos":-1,"best_pos":2,"similarity":0.464,"stretto":false,"stretto_voices":0,"combination":[],"aug_dim":"","rhythm_ratio":1.0,"mirror":false,"chromatic_density":0.235,"complexity":0.609,"dissonance":0.077},{"voice":3,"pitch":53,"start":50.6666,"duration":0.5,"velocity":127,"measure":20,"beat":1.0,"subject_pos":-1,"motif":"","motif_pos":-1,"best_pos":2,"similarity":0.579,"stretto":false,"stretto_voices":0,"combination":[],"aug_dim":"","rhythm_ratio":1.0,"mirror":false,"chromatic_density":0.235,"complexity":0.609,"dissonance":0.077},{"voice":1,"pitch":71,"start":51.1666,"duration":0.0833,"velocity":127,"measure":20,"beat":1.75,"subject_pos":-1,"motif":"","motif_pos":-1,"best_pos":4,"similarity":0.6,"stretto":false,"stretto_voices":0,"combination":[],"aug_dim":"","rhythm_ratio":1.0,"mirror":false,"chromatic_density":0.235,"complexity":0.609,"dissonance":0.077},{"voice":3,"pitch":50,"start":51.1666,"duration":0.1667,"velocity":127,"measure":20,"beat":1.75,"subject_pos":-1,"motif":"","motif_pos":-1,"best_pos":3,"similarity":0.45,"stretto":false,"stretto_voices":0,"combination":[],"aug_dim":"","rhythm_ratio":1.0,"mirror":false,"chromatic_density":0.235,"complexity":0.609,"dissonance":0.077},{"voice":1,"pitch":69,"start":51.2499,"duration":0.0833,"velocity":127,"measure":20,"beat":1.875,"subject_pos":-1,"motif":"","motif_pos":-1,"best_pos":5,"similarity":0.6,"stretto":false,"stretto_voices":0,"combination":[],"aug_dim":"","rhythm_ratio":1.0,"mirror":false,"chromatic_density":0.235,"complexity":0.609,"dissonance":0.077},{"voice":1,"pitch":71,"start":51.3333,"duration":0.5,"velocity":127,"measure":20,"beat":2.0,"subject_pos":-1,"motif":"","motif_pos":-1,"best_pos":6,"similarity":0.657,"stretto":false,"stretto_voices":0,"combination":[],"aug_dim":"","rhythm_ratio":1.0,"mirror":false,"chromatic_density":0.235,"complexity":0.609,"dissonance":0.077},{"voice":3,"pitch":55,"start":51.3333,"duration":0.5,"velocity":127,"measure":20,"beat":2.0,"subject_pos":-1,"motif":"","motif_pos":-1,"best_pos":1,"similarity":0.614,"stretto":false,"stretto_voices":0,"combination":[],"aug_dim":"","rhythm_ratio":1.0,"mirror":false,"chromatic_density":0.235,"complexity":0.609,"dissonance":0.077},{"voice":1,"pitch":72,"start":51.8333,"duration":0.1667,"velocity":127,"measure":20,"beat":2.75,"subject_pos":-1,"motif":"","motif_pos":-1,"best_pos":7,"similarity":0.436,"stretto":false,"stretto_voices":0,"combination":[],"aug_dim":"","rhythm_ratio":1.0,"mirror":false,"chromatic_density":0.235,"complexity":0.609,"dissonance":0.077},{"voice":3,"pitch":53,"start":51.8333,"duration":0.1667,"velocity":127,"measure":20,"beat":2.75,"subject_pos":-1,"motif":"","motif_pos":-1,"best_pos":2,"similarity":0.55,"stretto":false,"stretto_voices":0,"combination":[],"aug_dim":"","rhythm_ratio":1.0,"mirror":false,"chromatic_density":0.235,"complexity":0.609,"dissonance":0.077},{"voice":1,"pitch":72,"start":51.9999,"duration":0.5,"velocity":127,"measure":20,"beat":3.0,"subject_pos":-1,"motif":"","motif_pos":-1,"best_pos":2,"similarity":0.379,"stretto":false,"stretto_voices":0,"combination":[],"aug_dim":"","rhythm_ratio":1.0,"mirror":false,"chromatic_density":0.235,"complexity":0.609,"dissonance":0.077},{"voice":2,"pitch":60,"start":51.9999,"duration":1.3333,"velocity":127,"measure":20,"beat":3.0,"subject_pos":-1,"motif":"head_inv","motif_pos":0,"best_pos":0,"similarity":1.0,"stretto":false,"stretto_voices":0,"combination":[],"aug_dim":"","rhythm_ratio":1.0,"mirror":false,"chromatic_density":0.235,"complexity":0.609,"dissonance":0.077},{"voice":3,"pitch":52,"start":51.9999,"duration":0.4167,"velocity":127,"measure":20,"beat":3.0,"subject_pos":-1,"motif":"","motif_pos":-1,"best_pos":4,"similarity":0.536,"stretto":false,"stretto_voices":0,"combination":[],"aug_dim":"","rhythm_ratio":1.0,"mirror":false,"chromatic_density":0.235,"complexity":0.609,"dissonance":0.077},{"voice":3,"pitch":48,"start":52.4166,"duration":0.0833,"velocity":127,"measure":20,"beat":3.625,"subject_pos":-1,"motif":"","motif_pos":-1,"best_pos":5,"similarity":0.536,"stretto":false,"stretto_voices":0,"combination":[],"aug_dim":"","rhythm_ratio":1.0,"mirror":false,"chromatic_density":0.235,"complexity":0.609,"dissonance":0.077},{"voice":1,"pitch":70,"start":52.4999,"duration":0.1667,"velocity":127,"measure":20,"beat":3.75,"subject_pos":-1,"motif":"","motif_pos":-1,"best_pos":3,"similarity":0.557,"stretto":false,"stretto_voices":0,"combination":[],"aug_dim":"","rhythm_ratio":1.0,"mirror":false,"chromatic_density":0.235,"complexity":0.609,"dissonance":0.077},{"voice":3,"pitch":50,"start":52.4999,"duration":0.0833,"velocity":127,"measure":20,"beat":3.75,"subject_pos":-1,"motif":"","motif_pos":-1,"best_pos":5,"similarity":0.604,"stretto":false,"stretto_voices":0,"combination":[],"aug_dim":"","rhythm_ratio":1.0,"mirror":false,"chromatic_density":0.235,"complexity":0.609,"dissonance":0.077},{"voice":3,"pitch":52,"start":52.5833,"duration":0.0833,"velocity":127,"measure":20,"beat":3.875,"subject_pos":-1,"motif":"","motif_pos":-1,"best_pos":6,"similarity":0.65,"stretto":false,"stretto_voices":0,"combination":[],"aug_dim":"","rhythm_ratio":1.0,"mirror":false,"chromatic_density":0.235,"complexity":0.609,"dissonance":0.077},{"voice":1,"pitch":69,"start":52.6666,"duration":0.5,"velocity":127,"measure":20,"beat":4.0,"subject_pos":-1,"motif":"","motif_pos":-1,"best_pos":4,"similarity":0.618,"stretto":false,"stretto_voices":0,"combination":[],"aug_dim":"","rhythm_ratio":1.0,"mirror":false,"chromatic_density":0.235,"complexity":0.609,"dissonance":0.077},{"voice":3,"pitch":53,"start":52.6666,"duration":0.5,"velocity":127,"measure":20,"beat":4.0,"subject_pos":-1,"motif":"","motif_pos":-1,"best_pos":7,"similarity":0.464,"stretto":false,"stretto_voices":0,"combination":[],"aug_dim":"","rhythm_ratio":1.0,"mirror":false,"chromatic_density":0.235,"complexity":0.609,"dissonance":0.077},{"voice":1,"pitch":67,"start":53.1666,"duration":0.0833,"velocity":127,"measure":20,"beat":4.75,"subject_pos":-1,"motif":"","motif_pos":-1,"best_pos":5,"similarity":0.636,"stretto":false,"stretto_voices":0,"combination":[],"aug_dim":"","rhythm_ratio":1.0,"mirror":false,"chromatic_density":0.235,"complexity":0.609,"dissonance":0.077},{"voice":3,"pitch":51,"start":53.1666,"duration":0.1667,"velocity":127,"measure":20,"beat":4.75,"subject_pos":-1,"motif":"","motif_pos":-1,"best_pos":3,"similarity":0.536,"stretto":false,"stretto_voices":0,"combination":[],"aug_dim":"","rhythm_ratio":1.0,"mirror":false,"chromatic_density":0.235,"complexity":0.609,"dissonance":0.077},{"voice":1,"pitch":69,"start":53.2499,"duration":0.0833,"velocity":127,"measure":20,"beat":4.875,"subject_pos":-1,"motif":"","motif_pos":-1,"best_pos":6,"similarity":0.657,"stretto":false,"stretto_voices":0,"combination":[],"aug_dim":"","rhythm_ratio":1.0,"mirror":false,"chromatic_density":0.235,"complexity":0.609,"dissonance":0.077},{"voice":1,"pitch":70,"start":53.3333,"duration":0.5,"velocity":127,"measure":21,"beat":1.0,"subject_pos":-1,"motif":"","motif_pos":-1,"best_pos":7,"similarity":0.436,"stretto":false,"stretto_voices":0,"combination":[],"aug_dim":"","rhythm_ratio":1.0,"mirror":false,"chromatic_density":0.294,"complexity":0.618,"dissonance":0.102},{"voice":2,"pitch":53,"start":53.3333,"duration":1.0,"velocity":127,"measure":21,"beat":1.0,"subject_pos":-1,"motif":"head_inv","motif_pos":1,"best_pos":1,"similarity":1.0,"stretto":false,"stretto_voices":0,"combination":[],"aug_dim":"","rhythm_ratio":1.0,"mirror":false,"chromatic_density":0.294,"complexity":0.618,"dissonance":0.102},{"voice":3,"pitch":50,"start":53.3333,"duration":0.5,"velocity":127,"measure":21,"beat":1.0,"subject_pos":-1,"motif":"","motif_pos":-1,"best_pos":4,"similarity":0.571,"stretto":false,"stretto_voices":0,"combination":[],"aug_dim":"","rhythm_ratio":1.0,"mirror":false,"chromatic_density":0.294,"complexity":0.618,"dissonance":0.102},{"voice":1,"pitch":74,"start":53.8333,"duration":0.1667,"velocity":127,"measure":21,"beat":1.75,"subject_pos":-1,"motif":"","motif_pos":-1,"best_pos":1,"similarity":0.571,"stretto":false,"stretto_voices":0,"combination":[],"aug_dim":"","rhythm_ratio":1.0,"mirror":false,"chromatic_density":0.294,"complexity":0.618,"dissonance":0.102},{"voice":3,"pitch":48,"start":53.8333,"duration":0.1667,"velocity":127,"measure":21,"beat":1.75,"subject_pos":-1,"motif":"","motif_pos":-1,"best_pos":4,"similarity":0.607,"stretto":false,"stretto_voices":0,"combination":[],"aug_dim":"","rhythm_ratio":1.0,"mirror":false,"chromatic_density":0.294,"complexity":0.618,"dissonance":0.102},{"voice":1,"pitch":72,"start":53.9999,"duration":0.5,"velocity":127,"measure":21,"beat":2.0,"subject_pos":-1,"motif":"","motif_pos":-1,"best_pos":2,"similarity":0.65,"stretto":false,"stretto_voices":0,"combination":[],"aug_dim":"","rhythm_ratio":1.0,"mirror":false,"chromatic_density":0.294,"complexity":0.618,"dissonance":0.102},{"voice":3,"pitch":50,"start":53.9999,"duration":0.5,"velocity":127,"measure":21,"beat":2.0,"subject_pos":-1,"motif":"","motif_pos":-1,"best_pos":5,"similarity":0.661,"stretto":false,"stretto_voices":0,"combination":[],"aug_dim":"","rhythm_ratio":1.0,"mirror":false,"chromatic_density":0.294,"complexity":0.618,"dissonance":0.102},{"voice":2,"pitch":55,"start":54.3333,"duration":0.3333,"velocity":127,"measure":21,"beat":2.5,"subject_pos":-1,"motif":"head_inv","motif_pos":2,"best_pos":2,"similarity":1.0,"stretto":false,"stretto_voices":0,"combination":[],"aug_dim":"","rhythm_ratio":1.0,"mirror":false,"chromatic_density":0.294,"complexity":0.618,"dissonance":0.102},{"voice":1,"pitch":70,"start":54.4999,"duration":0.1667,"velocity":127,"measure":21,"beat":2.75,"subject_pos":-1,"motif":"","motif_pos":-1,"best_pos":3,"similarity":0.629,"stretto":false,"stretto_voices":0,"combination":[],"aug_dim":"","rhythm_ratio":1.0,"mirror":false,"chromatic_density":0.294,"complexity":0.618,"dissonance":0.102},{"voice":3,"pitch":52,"start":54.4999,"duration":0.1667,"velocity":127,"measure":21,"beat":2.75,"subject_pos":-1,"motif":"","motif_pos":-1,"best_pos":6,"similarity":0.679,"stretto":false,"stretto_voices":0,"combination":[],"aug_dim":"","rhythm_ratio":1.0,"mirror":false,"chromatic_density":0.294,"complexity":0.618,"dissonance":0.102},{"voice":1,"pitch":69,"start":54.6666,"duration":1.1667,"velocity":127,"measure":21,"beat":3.0,"subject_pos":-1,"motif":"","motif_pos":-1,"best_pos":4,"similarity":0.507,"stretto":false,"stretto_voices":0,"combination":[],"aug_dim":"","rhythm_ratio":1.0,"mirror":false,"chromatic_density":0.294,"complexity":0.618,"dissonance":0.102},{"voice":2,"pitch":57,"start":54.6666,"duration":1.0,"velocity":127,"measure":21,"beat":3.0,"subject_pos":-1,"motif":"head_inv","motif_pos":3,"best_pos":3,"similarity":1.0,"stretto":false,"stretto_voices":0,"combination":[],"aug_dim":"","rhythm_ratio":1.0,"mirror":false,"chromatic_density":0.294,"complexity":0.618,"dissonance":0.102},{"voice":3,"pitch":53,"start":54.6666,"duration":0.5,"velocity":127,"measure":21,"beat":3.0,"subject_pos":-1,"motif":"","motif_pos":-1,"best_pos":3,"similarity":0.55,"stretto":false,"stretto_voices":0,"combination":[],"aug_dim":"","rhythm_ratio":1.0,"mirror":false,"chromatic_density":0.294,"complexity":0.618,"dissonance":0.102},{"voice":0,"pitch":74,"start":55.1666,"duration":0.1667,"velocity":127,"measure":21,"beat":3.75,"subject_pos":-1,"motif":"","motif_pos":-1,"best_pos":1,"similarity":0.429,"stretto":false,"stretto_voices":0,"combination":[],"aug_dim":"","rhythm_ratio":1.0,"mirror":false,"chromatic_density":0.294,"complexity":0.618,"dissonance":0.102},{"voice":3,"pitch":52,"start":55.1666,"duration":0.1667,"velocity":127,"measure":21,"beat":3.75,"subject_pos":-1,"motif":"","motif_pos":-1,"best_pos":4,"similarity":0.771,"stretto":false,"stretto_voices":0,"combination":[],"aug_dim":"","rhythm_ratio":1.0,"mirror":false,"chromatic_density":0.294,"complexity":0.618,"dissonance":0.102},{"voice":0,"pitch":72,"start":55.3333,"duration":0.5,"velocity":127,"measure":21,"beat":4.0,"subject_pos":-1,"motif":"","motif_pos":-1,"best_pos":2,"similarity":0.643,"stretto":false,"stretto_voices":0,"combination":[],"aug_dim":"","rhythm_ratio":1.0,"mirror":false,"chromatic_density":0.294,"complexity":0.618,"dissonance":0.102},{"voice":3,"pitch":53,"start":55.3333,"duration":0.5,"velocity":127,"measure":21,"beat":4.0,"subject_pos":-1,"motif":"","motif_pos":-1,"best_pos":5,"similarity":0.793,"stretto":false,"stretto_voices":0,"combination":[],"aug_dim":"","rhythm_ratio":1.0,"mirror":false,"chromatic_density":0.294,"complexity":0.618,"dissonance":0.102},{"voice":2,"pitch":58,"start":55.6666,"duration":0.3333,"velocity":127,"measure":21,"beat":4.5,"subject_pos":-1,"motif":"head_inv","motif_pos":4,"best_pos":4,"similarity":1.0,"stretto":false,"stretto_voices":0,"combination":[],"aug_dim":"","rhythm_ratio":1.0,"mirror":false,"chromatic_density":0.294,"complexity":0.618,"dissonance":0.102},{"voice":0,"pitch":70,"start":55.8333,"duration":0.1667,"velocity":127,"measure":21,"beat":4.75,"subject_pos":-1,"motif":"","motif_pos":-1,"best_pos":3,"similarity":0.786,"stretto":false,"stretto_voices":0,"combination":[],"aug_dim":"","rhythm_ratio":1.0,"mirror":false,"chromatic_density":0.294,"complexity":0.618,"dissonance":0.102},{"voice":1,"pitch":67,"start":55.8333,"duration":0.1667,"velocity":127,"measure":21,"beat":4.75,"subject_pos":-1,"motif":"","motif_pos":-1,"best_pos":2,"similarity":0.45,"stretto":false,"stretto_voices":0,"combination":[],"aug_dim":"","rhythm_ratio":1.0,"mirror":false,"chromatic_density":0.294,"complexity":0.618,"dissonance":0.102},{"voice":3,"pitch":55,"start":55.8333,"duration":0.1667,"velocity":127,"measure":21,"beat":4.75,"subject_pos":-1,"motif":"","motif_pos":-1,"best_pos":6,"similarity":0.643,"stretto":false,"stretto_voices":0,"combination":[],"aug_dim":"","rhythm_ratio":1.0,"mirror":false,"chromatic_density":0.294,"complexity":0.618,"dissonance":0.102},{"voice":0,"pitch":69,"start":55.9999,"duration":0.5,"velocity":127,"measure":22,"beat":1.0,"subject_pos":-1,"motif":"","motif_pos":-1,"best_pos":4,"similarity":0.857,"stretto":false,"stretto_voices":0,"combination":[],"aug_dim":"","rhythm_ratio":1.0,"mirror":false,"chromatic_density":0.263,"complexity":0.762,"dissonance":0.083},{"voice":1,"pitch":65,"start":55.9999,"duration":0.5,"velocity":127,"measure":22,"beat":1.0,"subject_pos":-1,"motif":"","motif_pos":-1,"best_pos":5,"similarity":0.418,"stretto":false,"stretto_voices":0,"combination":[],"aug_dim":"","rhythm_ratio":1.0,"mirror":false,"chromatic_density":0.263,"complexity":0.762,"dissonance":0.083},{"voice":2,"pitch":60,"start":55.9999,"duration":1.3333,"velocity":127,"measure":22,"beat":1.0,"subject_pos":-1,"motif":"","motif_pos":-1,"best_pos":6,"similarity":0.579,"stretto":false,"stretto_voices":0,"combination":[],"aug_dim":"","rhythm_ratio":1.0,"mirror":false,"chromatic_density":0.263,"complexity":0.762,"dissonance":0.083},{"voice":3,"pitch":57,"start":55.9999,"duration":1.0833,"velocity":127,"measure":22,"beat":1.0,"subject_pos":-1,"motif":"","motif_pos":-1,"best_pos":6,"similarity":0.375,"stretto":false,"stretto_voices":0,"combination":[],"aug_dim":"","rhythm_ratio":1.0,"mirror":false,"chromatic_density":0.263,"complexity":0.762,"dissonance":0.083},{"voice":0,"pitch":70,"start":56.4999,"duration":0.1667,"velocity":127,"measure":22,"beat":1.75,"subject_pos":-1,"motif":"","motif_pos":-1,"best_pos":5,"similarity":0.75,"stretto":false,"stretto_voices":0,"combination":[],"aug_dim":"","rhythm_ratio":1.0,"mirror":false,"chromatic_density":0.263,"complexity":0.762,"dissonance":0.083},{"voice":1,"pitch":67,"start":56.4999,"duration":0.1667,"velocity":127,"measure":22,"beat":1.75,"subject_pos":-1,"motif":"","motif_pos":-1,"best_pos":1,"similarity":0.457,"stretto":false,"stretto_voices":0,"combination":[],"aug_dim":"","rhythm_ratio":1.0,"mirror":false,"chromatic_density":0.263,"complexity":0.762,"dissonance":0.083},{"voice":0,"pitch":72,"start":56.6666,"duration":1.0833,"velocity":127,"measure":22,"beat":2.0,"subject_pos":-1,"motif":"head_inv","motif_pos":0,"best_pos":0,"similarity":1.0,"stretto":false,"stretto_voices":0,"combination":[],"aug_dim":"","rhythm_ratio":1.0,"mirror":false,"chromatic_density":0.263,"complexity":0.762,"dissonance":0.083},{"voice":1,"pitch":65,"start":56.6666,"duration":0.5,"velocity":127,"measure":22,"beat":2.0,"subject_pos":-1,"motif":"","motif_pos":-1,"best_pos":2,"similarity":0.593,"stretto":false,"stretto_voices":0,"combination":[],"aug_dim":"","rhythm_ratio":1.0,"mirror":false,"chromatic_density":0.263,"complexity":0.762,"dissonance":0.083},{"voice":3,"pitch":53,"start":57.0833,"duration":0.0833,"velocity":127,"measure":22,"beat":2.625,"subject_pos":-1,"motif":"","motif_pos":-1,"best_pos":4,"similarity":0.393,"stretto":false,"stretto_voices":0,"combination":[],"aug_dim":"","rhythm_ratio":1.0,"mirror":false,"chromatic_density":0.263,"complexity":0.762,"dissonance":0.083},{"voice":1,"pitch":63,"start":57.1666,"duration":0.1667,"velocity":127,"measure":22,"beat":2.75,"subject_pos":-1,"motif":"enigmatic_cell","motif_pos":0,"best_pos":0,"similarity":1.0,"stretto":false,"stretto_voices":0,"combination":[],"aug_dim":"","rhythm_ratio":1.0,"mirror":false,"chromatic_density":0.263,"complexity":0.762,"dissonance":0.083},{"voice":3,"pitch":55,"start":57.1666,"duration":0.0833,"velocity":127,"measure":22,"beat":2.75,"subject_pos":-1,"motif":"","motif_pos":-1,"best_pos":5,"similarity":0.586,"stretto":false,"stretto_voices":0,"combination":[],"aug_dim":"","rhythm_ratio":1.0,"mirror":false,"chromatic_density":0.263,"complexity":0.762,"dissonance":0.083},{"voice":3,"pitch":57,"start":57.2499,"duration":0.0833,"velocity":127,"measure":22,"beat":2.875,"subject_pos":-1,"motif":"","motif_pos":-1,"best_pos":6,"similarity":0.65,"stretto":false,"stretto_voices":0,"combination":[],"aug_dim":"","rhythm_ratio":1.0,"mirror":false,"chromatic_density":0.263,"complexity":0.762,"dissonance":0.083},{"voice":1,"pitch":62,"start":57.3333,"duration":0.6667,"velocity":127,"measure":22,"beat":3.0,"subject_pos":-1,"motif":"enigmatic_cell","motif_pos":1,"best_pos":1,"similarity":1.0,"stretto":false,"stretto_voices":0,"combination":[],"aug_dim":"","rhythm_ratio":1.0,"mirror":false,"chromatic_density":0.263,"complexity":0.762,"dissonance":0.083},{"voice":2,"pitch":62,"start":57.3333,"duration":1.3333,"velocity":127,"measure":22,"beat":3.0,"subject_pos":-1,"motif":"","motif_pos":-1,"best_pos":1,"similarity":0.457,"stretto":false,"stretto_voices":0,"combination":[],"aug_dim":"","rhythm_ratio":1.0,"mirror":false,"chromatic_density":0.263,"complexity":0.762,"dissonance":0.083},{"voice":3,"pitch":58,"start":57.3333,"duration":0.5,"velocity":127,"measure":22,"beat":3.0,"subject_pos":-1,"motif":"","motif_pos":-1,"best_pos":7,"similarity":0.464,"stretto":false,"stretto_voices":0,"combination":[],"aug_dim":"","rhythm_ratio":1.0,"mirror":false,"chromatic_density":0.263,"complexity":0.762,"dissonance":0.083},{"voice":0,"pitch":65,"start":57.7499,"duration":0.0833,"velocity":127,"measure":22,"beat":3.625,"subject_pos":-1,"motif":"head_inv","motif_pos":1,"best_pos":1,"similarity":1.0,"stretto":false,"stretto_voices":0,"combination":[],"aug_dim":"","rhythm_ratio":1.0,"mirror":false,"chromatic_density":0.263,"complexity":0.762,"dissonance":0.083},{"voice":0,"pitch":67,"start":57.8333,"duration":0.0833,"velocity":127,"measure":22,"beat":3.75,"subject_pos":-1,"motif":"head_inv","motif_pos":2,"best_pos":2,"similarity":1.0,"stretto":false,"stretto_voices":0,"combination":[],"aug_dim":"","rhythm_ratio":1.0,"mirror":false,"chromatic_density":0.263,"complexity":0.762,"dissonance":0.083},{"voice":3,"pitch":57,"start":57.8333,"duration":0.1667,"velocity":127,"measure":22,"beat":3.75,"subject_pos":-1,"motif":"","motif_pos":-1,"best_pos":1,"similarity":0.429,"stretto":false,"stretto_voices":0,"combination":[],"aug_dim":"","rhythm_ratio":1.0,"mirror":false,"chromatic_density":0.263,"complexity":0.762,"dissonance":0.083},{"voice":0,"pitch":69,"start":57.9166,"duration":0.0833,"velocity":127,"measure":22,"beat":3.875,"subject_pos":-1,"motif":"head_inv","motif_pos":3,"best_pos":3,"similarity":1.0,"stretto":false,"stretto_voices":0,"combination":[],"aug_dim":"","rhythm_ratio":1.0,"mirror":false,"chromatic_density":0.263,"complexity":0.762,"dissonance":0.083},{"voice":0,"pitch":70,"start":57.9999,"duration":0.5,"velocity":127,"measure":22,"beat":4.0,"subject_pos":-1,"motif":"head_inv","motif_pos":4,"best_pos":4,"similarity":1.0,"stretto":false,"stretto_voices":0,"combination":[],"aug_dim":"","rhythm_ratio":1.0,"mirror":false,"chromatic_density":0.263,"complexity":0.762,"dissonance":0.083},{"voice":1,"pitch":67,"start":57.9999,"duration":1.1667,"velocity":127,"measure":22,"beat":4.0,"subject_pos":-1,"motif":"enigmatic_cell","motif_pos":2,"best_pos":2,"similarity":1.0,"stretto":false,"stretto_voices":0,"combination":[],"aug_dim":"","rhythm_ratio":1.0,"mirror":false,"chromatic_density":0.263,"complexity":0.762,"dissonance":0.083},{"voice":3,"pitch":55,"start":57.9999,"duration":0.5,"velocity":127,"measure":22,"beat":4.0,"subject_pos":-1,"motif":"","motif_pos":-1,"best_pos":2,"similarity":0.571,"stretto":false,"stretto_voices":0,"combination":[],"aug_dim":"","rhythm_ratio":1.0,"mirror":false,"chromatic_density":0.263,"complexity":0.762,"dissonance":0.083},{"voice":0,"pitch":70,"start":58.4999,"duration":0.1667,"velocity":127,"measure":22,"beat":4.75,"subject_pos":-1,"motif":"","motif_pos":-1,"best_pos":6,"similarity":0.364,"stretto":false,"stretto_voices":0,"combination":[],"aug_dim":"","rhythm_ratio":1.0,"mirror":false,"chromatic_density":0.263,"complexity":0.762,"dissonance":0.083},{"voice":3,"pitch":53,"start":58.4999,"duration":0.1667,"velocity":127,"measure":22,"beat":4.75,"subject_pos":-1,"motif":"","motif_pos":-1,"best_pos":3,"similarity":0.579,"stretto":false,"stretto_voices":0,"combination":[],"aug_dim":"","rhythm_ratio":1.0,"mirror":false,"chromatic_density":0.263,"complexity":0.762,"dissonance":0.083},{"voice":0,"pitch":70,"start":58.6666,"duration":0.5,"velocity":127,"measure":23,"beat":1.0,"subject_pos":-1,"motif":"","motif_pos":-1,"best_pos":3,"similarity":0.443,"stretto":false,"stretto_voices":0,"combination":[],"aug_dim":"","rhythm_ratio":1.0,"mirror":false,"chromatic_density":0.389,"complexity":0.651,"dissonance":0.049},{"voice":2,"pitch":60,"start":58.6666,"duration":1.0,"velocity":127,"measure":23,"beat":1.0,"subject_pos":-1,"motif":"","motif_pos":-1,"best_pos":2,"similarity":0.593,"stretto":false,"stretto_voices":0,"combination":[],"aug_dim":"","rhythm_ratio":1.0,"mirror":false,"chromatic_density":0.389,"complexity":0.651,"dissonance":0.049},{"voice":3,"pitch":52,"start":58.6666,"duration":0.5,"velocity":127,"measure":23,"beat":1.0,"subject_pos":-1,"motif":"","motif_pos":-1,"best_pos":4,"similarity":0.479,"stretto":false,"stretto_voices":0,"combination":[],"aug_dim":"","rhythm_ratio":1.0,"mirror":false,"chromatic_density":0.389,"complexity":0.651,"dissonance":0.049},{"voice":0,"pitch":69,"start":59.1666,"duration":0.0833,"velocity":127,"measure":23,"beat":1.75,"subject_pos":-1,"motif":"","motif_pos":-1,"best_pos":4,"similarity":0.561,"stretto":false,"stretto_voices":0,"combination":[],"aug_dim":"","rhythm_ratio":1.0,"mirror":false,"chromatic_density":0.389,"complexity":0.651,"dissonance":0.049},{"voice":1,"pitch":64,"start":59.1666,"duration":0.1667,"velocity":127,"measure":23,"beat":1.75,"subject_pos":-1,"motif":"","motif_pos":-1,"best_pos":2,"similarity":0.529,"stretto":false,"stretto_voices":0,"combination":[],"aug_dim":"","rhythm_ratio":1.0,"mirror":false,"chromatic_density":0.389,"complexity":0.651,"dissonance":0.049},{"voice":3,"pitch":48,"start":59.1666,"duration":0.1667,"velocity":127,"measure":23,"beat":1.75,"subject_pos":-1,"motif":"","motif_pos":-1,"best_pos":0,"similarity":0.336,"stretto":false,"stretto_voices":0,"combination":[],"aug_dim":"","rhythm_ratio":1.0,"mirror":false,"chromatic_density":0.389,"complexity":0.651,"dissonance":0.049},{"voice":0,"pitch":67,"start":59.2499,"duration":0.0833,"velocity":127,"measure":23,"beat":1.875,"subject_pos":-1,"motif":"","motif_pos":-1,"best_pos":5,"similarity":0.607,"stretto":false,"stretto_voices":0,"combination":[],"aug_dim":"","rhythm_ratio":1.0,"mirror":false,"chromatic_density":0.389,"complexity":0.651,"dissonance":0.049},{"voice":0,"pitch":69,"start":59.3333,"duration":0.5,"velocity":127,"measure":23,"beat":2.0,"subject_pos":-1,"motif":"","motif_pos":-1,"best_pos":6,"similarity":0.657,"stretto":false,"stretto_voices":0,"combination":[],"aug_dim":"","rhythm_ratio":1.0,"mirror":false,"chromatic_density":0.389,"complexity":0.651,"dissonance":0.049},{"voice":1,"pitch":65,"start":59.3333,"duration":1.1667,"velocity":127,"measure":23,"beat":2.0,"subject_pos":-1,"motif":"","motif_pos":-1,"best_pos":3,"similarity":0.671,"stretto":false,"stretto_voices":0,"combination":[],"aug_dim":"","rhythm_ratio":1.0,"mirror":false,"chromatic_density":0.389,"complexity":0.651,"dissonance":0.049},{"voice":3,"pitch":53,"start":59.3333,"duration":1.1667,"velocity":127,"measure":23,"beat":2.0,"subject_pos":-1,"motif":"","motif_pos":-1,"best_pos":1,"similarity":0.457,"stretto":false,"stretto_voices":0,"combination":[],"aug_dim":"","rhythm_ratio":1.0,"mirror":false,"chromatic_density":0.389,"complexity":0.651,"dissonance":0.049},{"voice":2,"pitch":58,"start":59.6666,"duration":0.3333,"velocity":127,"measure":23,"beat":2.5,"subject_pos":-1,"motif":"","motif_pos":-1,"best_pos":3,"similarity":0.664,"stretto":false,"stretto_voices":0,"combination":[],"aug_dim":"","rhythm_ratio":1.0,"mirror":false,"chromatic_density":0.389,"complexity":0.651,"dissonance":0.049},{"voice":0,"pitch":70,"start":59.8333,"duration":0.1667,"velocity":127,"measure":23,"beat":2.75,"subject_pos":-1,"motif":"","motif_pos":-1,"best_pos":5,"similarity":0.693,"stretto":false,"stretto_voices":0,"combination":[],"aug_dim":"","rhythm_ratio":1.0,"mirror":false,"chromatic_density":0.389,"complexity":0.651,"dissonance":0.049},{"voice":0,"pitch":72,"start":59.9999,"duration":0.5,"velocity":127,"measure":23,"beat":3.0,"subject_pos":-1,"motif":"","motif_pos":-1,"best_pos":6,"similarity":0.579,"stretto":false,"stretto_voices":0,"combination":[],"aug_dim":"","rhythm_ratio":1.0,"mirror":false,"chromatic_density":0.389,"complexity":0.651,"dissonance":0.049},{"voice":2,"pitch":57,"start":59.9999,"duration":1.8333,"velocity":127,"measure":23,"beat":3.0,"subject_pos":-1,"motif":"","motif_pos":-1,"best_pos":4,"similarity":0.636,"stretto":false,"stretto_voices":0,"combination":[],"aug_dim":"","rhythm_ratio":1.0,"mirror":false,"chromatic_density":0.389,"complexity":0.651,"dissonance":0.049},{"voice":0,"pitch":72,"start":60.4999,"duration":0.1667,"velocity":127,"measure":23,"beat":3.75,"subject_pos":-1,"motif":"","motif_pos":-1,"best_pos":5,"similarity":0.521,"stretto":false,"stretto_voices":0,"combination":[],"aug_dim":"","rhythm_ratio":1.0,"mirror":false,"chromatic_density":0.389,"complexity":0.651,"dissonance":0.049},{"voice":1,"pitch":64,"start":60.4999,"duration":0.1667,"velocity":127,"measure":23,"beat":3.75,"subject_pos":-1,"motif":"","motif_pos":-1,"best_pos":4,"similarity":0.8,"stretto":false,"stretto_voices":0,"combination":[],"aug_dim":"","rhythm_ratio":1.0,"mirror":false,"chromatic_density":0.389,"complexity":0.651,"dissonance":0.049},{"voice":3,"pitch":55,"start":60.4999,"duration":0.1667,"velocity":127,"measure":23,"beat":3.75,"subject_pos":-1,"motif":"","motif_pos":-1,"best_pos":2,"similarity":0.464,"stretto":false,"stretto_voices":0,"combination":[],"aug_dim":"","rhythm_ratio":1.0,"mirror":false,"chromatic_density":0.389,"complexity":0.651,"dissonance":0.049},{"voice":0,"pitch":74,"start":60.6666,"duration":0.5,"velocity":127,"measure":23,"beat":4.0,"subject_pos":-1,"motif":"","motif_pos":-1,"best_pos":5,"similarity":0.643,"stretto":false,"stretto_voices":0,"combination":[],"aug_dim":"","rhythm_ratio":1.0,"mirror":false,"chromatic_density":0.389,"complexity":0.651,"dissonance":0.049},{"voice":1,"pitch":65,"start":60.6666,"duration":0.5,"velocity":127,"measure":23,"beat":4.0,"subject_pos":-1,"motif":"","motif_pos":-1,"best_pos":5,"similarity":0.793,"stretto":false,"stretto_voices":0,"combination":[],"aug_dim":"","rhythm_ratio":1.0,"mirror":false,"chromatic_density":0.389,"complexity":0.651,"dissonance":0.049},{"voice":3,"pitch":53,"start":60.6666,"duration":0.5,"velocity":127,"measure":23,"beat":4.0,"subject_pos":-1,"motif":"","motif_pos":-1,"best_pos":3,"similarity":0.536,"stretto":false,"stretto_voices":0,"combination":[],"aug_dim":"","rhythm_ratio":1.0,"mirror":false,"chromatic_density":0.389,"complexity":0.651,"dissonance":0.049},{"voice":0,"pitch":76,"start":61.1666,"duration":0.1667,"velocity":127,"measure":23,"beat":4.75,"subject_pos":-1,"motif":"","motif_pos":-1,"best_pos":6,"similarity":0.679,"stretto":false,"stretto_voices":0,"combination":[],"aug_dim":"","rhythm_ratio":1.0,"mirror":false,"chromatic_density":0.389,"complexity":0.651,"dissonance":0.049},{"voice":1,"pitch":67,"start":61.1666,"duration":0.1667,"velocity":127,"measure":23,"beat":4.75,"subject_pos":-1,"motif":"","motif_pos":-1,"best_pos":6,"similarity":0.643,"stretto":false,"stretto_voices":0,"combination":[],"aug_dim":"","rhythm_ratio":1.0,"mirror":false,"chromatic_density":0.389,"complexity":0.651,"dissonance":0.049},{"voice":3,"pitch":52,"start":61.1666,"duration":0.1667,"velocity":127,"measure":23,"beat":4.75,"subject_pos":-1,"motif":"","motif_pos":-1,"best_pos":4,"similarity":0.407,"stretto":false,"stretto_voices":0,"combination":[],"aug_dim":"","rhythm_ratio":1.0,"mirror":false,"chromatic_density":0.389,"complexity":0.651,"dissonance":0.049},{"voice":0,"pitch":77,"start":61.3333,"duration":0.5,"velocity":127,"measure":24,"beat":1.0,"subject_pos":-1,"motif":"","motif_pos":-1,"best_pos":3,"similarity":0.55,"stretto":false,"stretto_voices":0,"combination":[],"aug_dim":"","rhythm_ratio":1.0,"mirror":false,"chromatic_density":0.235,"complexity":0.638,"dissonance":0.102},{"voice":1,"pitch":69,"start":61.3333,"duration":0.6667,"velocity":127,"measure":24,"beat":1.0,"subject_pos":-1,"motif":"","motif_pos":-1,"best_pos":6,"similarity":0.404,"stretto":false,"stretto_voices":0,"combination":[],"aug_dim":"","rhythm_ratio":1.0,"mirror":false,"chromatic_density":0.235,"complexity":0.638,"dissonance":0.102},{"voice":3,"pitch":50,"start":61.3333,"duration":1.3333,"velocity":127,"measure":24,"beat":1.0,"subject_pos":-1,"motif":"","motif_pos":-1,"best_pos":2,"similarity":0.464,"stretto":false,"stretto_voices":0,"combination":[],"aug_dim":"","rhythm_ratio":1.0,"mirror":false,"chromatic_density":0.235,"complexity":0.638,"dissonance":0.102},{"voice":0,"pitch":76,"start":61.8333,"duration":0.1667,"velocity":127,"measure":24,"beat":1.75,"subject_pos":-1,"motif":"","motif_pos":-1,"best_pos":4,"similarity":0.743,"stretto":false,"stretto_voices":0,"combination":[],"aug_dim":"","rhythm_ratio":1.0,"mirror":false,"chromatic_density":0.235,"complexity":0.638,"dissonance":0.102},{"voice":2,"pitch":55,"start":61.8333,"duration":0.1667,"velocity":127,"measure":24,"beat":1.75,"subject_pos":-1,"motif":"","motif_pos":-1,"best_pos":4,"similarity":0.607,"stretto":false,"stretto_voices":0,"combination":[],"aug_dim":"","rhythm_ratio":1.0,"mirror":false,"chromatic_density":0.235,"complexity":0.638,"dissonance":0.102},{"voice":0,"pitch":77,"start":61.9999,"duration":0.5,"velocity":127,"measure":24,"beat":2.0,"subject_pos":-1,"motif":"","motif_pos":-1,"best_pos":5,"similarity":0.736,"stretto":false,"stretto_voices":0,"combination":[],"aug_dim":"","rhythm_ratio":1.0,"mirror":false,"chromatic_density":0.235,"complexity":0.638,"dissonance":0.102},{"voice":1,"pitch":74,"start":61.9999,"duration":0.6667,"velocity":127,"measure":24,"beat":2.0,"subject_pos":-1,"motif":"","motif_pos":-1,"best_pos":1,"similarity":0.386,"stretto":false,"stretto_voices":0,"combination":[],"aug_dim":"","rhythm_ratio":1.0,"mirror":false,"chromatic_density":0.235,"complexity":0.638,"dissonance":0.102},{"voice":2,"pitch":57,"start":61.9999,"duration":0.5,"velocity":127,"measure":24,"beat":2.0,"subject_pos":-1,"motif":"","motif_pos":-1,"best_pos":5,"similarity":0.661,"stretto":false,"stretto_voices":0,"combination":[],"aug_dim":"","rhythm_ratio":1.0,"mirror":false,"chromatic_density":0.235,"complexity":0.638,"dissonance":0.102},{"voice":0,"pitch":79,"start":62.4999,"duration":0.1667,"velocity":127,"measure":24,"beat":2.75,"subject_pos":-1,"motif":"","motif_pos":-1,"best_pos":6,"similarity":0.529,"stretto":false,"stretto_voices":0,"combination":[],"aug_dim":"","rhythm_ratio":1.0,"mirror":false,"chromatic_density":0.235,"complexity":0.638,"dissonance":0.102},{"voice":2,"pitch":59,"start":62.4999,"duration":0.1667,"velocity":127,"measure":24,"beat":2.75,"subject_pos":-1,"motif":"","motif_pos":-1,"best_pos":6,"similarity":0.679,"stretto":false,"stretto_voices":0,"combination":[],"aug_dim":"","rhythm_ratio":1.0,"mirror":false,"chromatic_density":0.235,"complexity":0.638,"dissonance":0.102},{"voice":0,"pitch":76,"start":62.6666,"duration":0.5,"velocity":127,"measure":24,"beat":3.0,"subject_pos":-1,"motif":"","motif_pos":-1,"best_pos":3,"similarity":0.529,"stretto":false,"stretto_voices":0,"combination":[],"aug_dim":"","rhythm_ratio":1.0,"mirror":false,"chromatic_density":0.235,"complexity":0.638,"dissonance":0.102},{"voice":1,"pitch":67,"start":62.6666,"duration":0.6667,"velocity":127,"measure":24,"beat":3.0,"subject_pos":-1,"motif":"","motif_pos":-1,"best_pos":1,"similarity":0.321,"stretto":false,"stretto_voices":0,"combination":[],"aug_dim":"","rhythm_ratio":1.0,"mirror":false,"chromatic_density":0.235,"complexity":0.638,"dissonance":0.102},{"voice":2,"pitch":60,"start":62.6666,"duration":0.6667,"velocity":127,"measure":24,"beat":3.0,"subject_pos":-1,"motif":"","motif_pos":-1,"best_pos":7,"similarity":0.464,"stretto":false,"stretto_voices":0,"combination":[],"aug_dim":"","rhythm_ratio":1.0,"mirror":false,"chromatic_density":0.235,"complexity":0.638,"dissonance":0.102},{"voice":3,"pitch":48,"start":62.6666,"duration":0.4167,"velocity":127,"measure":24,"beat":3.0,"subject_pos":-1,"motif":"","motif_pos":-1,"best_pos":4,"similarity":0.464,"stretto":false,"stretto_voices":0,"combination":[],"aug_dim":"","rhythm_ratio":1.0,"mirror":false,"chromatic_density":0.235,"complexity":0.638,"dissonance":0.102},{"voice":3,"pitch":55,"start":63.0833,"duration":0.0833,"velocity":127,"measure":24,"beat":3.625,"subject_pos":-1,"motif":"","motif_pos":-1,"best_pos":5,"similarity":0.536,"stretto":false,"stretto_voices":0,"combination":[],"aug_dim":"","rhythm_ratio":1.0,"mirror":false,"chromatic_density":0.235,"complexity":0.638,"dissonance":0.102},{"voice":0,"pitch":74,"start":63.1666,"duration":0.1667,"velocity":127,"measure":24,"beat":3.75,"subject_pos":-1,"motif":"","motif_pos":-1,"best_pos":4,"similarity":0.468,"stretto":false,"stretto_voices":0,"combination":[],"aug_dim":"","rhythm_ratio":1.0,"mirror":false,"chromatic_density":0.235,"complexity":0.638,"dissonance":0.102},{"voice":3,"pitch":57,"start":63.1666,"duration":0.0833,"velocity":127,"measure":24,"beat":3.75,"subject_pos":-1,"motif":"","motif_pos":-1,"best_pos":6,"similarity":0.607,"stretto":false,"stretto_voices":0,"combination":[],"aug_dim":"","rhythm_ratio":1.0,"mirror":false,"chromatic_density":0.235,"complexity":0.638,"dissonance":0.102},{"voice":3,"pitch":58,"start":63.2499,"duration":0.0833,"velocity":127,"measure":24,"beat":3.875,"subject_pos":-1,"motif":"","motif_pos":-1,"best_pos":5,"similarity":0.6,"stretto":false,"stretto_voices":0,"combination":[],"aug_dim":"","rhythm_ratio":1.0,"mirror":false,"chromatic_density":0.235,"complexity":0.638,"dissonance":0.102},{"voice":0,"pitch":76,"start":63.3333,"duration":1.1667,"velocity":127,"measure":24,"beat":4.0,"subject_pos":-1,"motif":"","motif_pos":-1,"best_pos":2,"similarity":0.386,"stretto":false,"stretto_voices":0,"combination":[],"aug_dim":"","rhythm_ratio":1.0,"mirror":false,"chromatic_density":0.235,"complexity":0.638,"dissonance":0.102},{"voice":3,"pitch":60,"start":63.3333,"duration":0.5,"velocity":127,"measure":24,"beat":4.0,"subject_pos":-1,"motif":"","motif_pos":-1,"best_pos":6,"similarity":0.464,"stretto":false,"stretto_voices":0,"combination":[],"aug_dim":"","rhythm_ratio":1.0,"mirror":false,"chromatic_density":0.235,"complexity":0.638,"dissonance":0.102},{"voice":3,"pitch":58,"start":63.8333,"duration":0.1667,"velocity":127,"measure":24,"beat":4.75,"subject_pos":-1,"motif":"","motif_pos":-1,"best_pos":3,"similarity":0.457,"stretto":false,"stretto_voices":0,"combination":[],"aug_dim":"","rhythm_ratio":1.0,"mirror":false,"chromatic_density":0.235,"complexity":0.638,"dissonance":0.102},{"voice":1,"pitch":65,"start":63.9999,"duration":1.3333,"velocity":127,"measure":25,"beat":1.0,"subject_pos":-1,"motif":"","motif_pos":-1,"best_pos":0,"similarity":0.446,"stretto":false,"stretto_voices":0,"combination":[],"aug_dim":"","rhythm_ratio":1.0,"mirror":false,"chromatic_density":0.222,"complexity":0.619,"dissonance":0.18},{"voice":3,"pitch":57,"start":63.9999,"duration":0.5,"velocity":127,"measure":25,"beat":1.0,"subject_pos":-1,"motif":"","motif_pos":-1,"best_pos":4,"similarity":0.386,"stretto":false,"stretto_voices":0,"combination":[],"aug_dim":"","rhythm_ratio":1.0,"mirror":false,"chromatic_density":0.222,"complexity":0.619,"dissonance":0.18},{"voice":0,"pitch":74,"start":64.4999,"duration":0.0833,"velocity":127,"measure":25,"beat":1.75,"subject_pos":-1,"motif":"","motif_pos":-1,"best_pos":3,"similarity":0.593,"stretto":false,"stretto_voices":0,"combination":[],"aug_dim":"","rhythm_ratio":1.0,"mirror":false,"chromatic_density":0.222,"complexity":0.619,"dissonance":0.18},{"voice":3,"pitch":53,"start":64.4999,"duration":0.1667,"velocity":127,"measure":25,"beat":1.75,"subject_pos":-1,"motif":"","motif_pos":-1,"best_pos":0,"similarity":0.286,"stretto":false,"stretto_voices":0,"combination":[],"aug_dim":"","rhythm_ratio":1.0,"mirror":false,"chromatic_density":0.222,"complexity":0.619,"dissonance":0.18},{"voice":0,"pitch":73,"start":64.5833,"duration":0.0833,"velocity":127,"measure":25,"beat":1.875,"subject_pos":-1,"motif":"","motif_pos":-1,"best_pos":4,"similarity":0.671,"stretto":false,"stretto_voices":0,"combination":[],"aug_dim":"","rhythm_ratio":1.0,"mirror":false,"chromatic_density":0.222,"complexity":0.619,"dissonance":0.18},{"voice":0,"pitch":74,"start":64.6666,"duration":0.4167,"velocity":127,"measure":25,"beat":2.0,"subject_pos":-1,"motif":"","motif_pos":-1,"best_pos":5,"similarity":0.507,"stretto":false,"stretto_voices":0,"combination":[],"aug_dim":"","rhythm_ratio":1.0,"mirror":false,"chromatic_density":0.222,"complexity":0.619,"dissonance":0.18},{"voice":3,"pitch":58,"start":64.6666,"duration":0.5,"velocity":127,"measure":25,"beat":2.0,"subject_pos":-1,"motif":"","motif_pos":-1,"best_pos":1,"similarity":0.293,"stretto":false,"stretto_voices":0,"combination":[],"aug_dim":"","rhythm_ratio":1.0,"mirror":false,"chromatic_density":0.222,"complexity":0.619,"dissonance":0.18},{"voice":0,"pitch":72,"start":65.0833,"duration":0.0833,"velocity":127,"measure":25,"beat":2.625,"subject_pos":-1,"motif":"","motif_pos":-1,"best_pos":2,"similarity":0.593,"stretto":false,"stretto_voices":0,"combination":[],"aug_dim":"","rhythm_ratio":1.0,"mirror":false,"chromatic_density":0.222,"complexity":0.619,"dissonance":0.18},{"voice":0,"pitch":70,"start":65.1666,"duration":0.0833,"velocity":127,"measure":25,"beat":2.75,"subject_pos":-1,"motif":"","motif_pos":-1,"best_pos":3,"similarity":0.629,"stretto":false,"stretto_voices":0,"combination":[],"aug_dim":"","rhythm_ratio":1.0,"mirror":false,"chromatic_density":0.222,"complexity":0.619,"dissonance":0.18},{"voice":3,"pitch":62,"start":65.1666,"duration":0.1667,"velocity":127,"measure":25,"beat":2.75,"subject_pos":-1,"motif":"","motif_pos":-1,"best_pos":1,"similarity":0.221,"stretto":false,"stretto_voices":0,"combination":[],"aug_dim":"","rhythm_ratio":1.0,"mirror":false,"chromatic_density":0.222,"complexity":0.619,"dissonance":0.18},{"voice":0,"pitch":69,"start":65.2499,"duration":0.0833,"velocity":127,"measure":25,"beat":2.875,"subject_pos":-1,"motif":"","motif_pos":-1,"best_pos":4,"similarity":0.546,"stretto":false,"stretto_voices":0,"combination":[],"aug_dim":"","rhythm_ratio":1.0,"mirror":false,"chromatic_density":0.222,"complexity":0.619,"dissonance":0.18},{"voice":0,"pitch":67,"start":65.3333,"duration":0.5,"velocity":127,"measure":25,"beat":3.0,"subject_pos":-1,"motif":"","motif_pos":-1,"best_pos":2,"similarity":0.436,"stretto":false,"stretto_voices":0,"combination":[],"aug_dim":"","rhythm_ratio":1.0,"mirror":false,"chromatic_density":0.222,"complexity":0.619,"dissonance":0.18},{"voice":1,"pitch":72,"start":65.3333,"duration":1.0,"velocity":127,"measure":25,"beat":3.0,"subject_pos":-1,"motif":"","motif_pos":-1,"best_pos":1,"similarity":0.643,"stretto":false,"stretto_voices":0,"combination":[],"aug_dim":"","rhythm_ratio":1.0,"mirror":false,"chromatic_density":0.222,"complexity":0.619,"dissonance":0.18},{"voice":3,"pitch":52,"start":65.3333,"duration":1.0833,"velocity":127,"measure":25,"beat":3.0,"subject_pos":-1,"motif":"","motif_pos":-1,"best_pos":1,"similarity":0.293,"stretto":false,"stretto_voices":0,"combination":[],"aug_dim":"","rhythm_ratio":1.0,"mirror":false,"chromatic_density":0.222,"complexity":0.619,"dissonance":0.18},{"voice":0,"pitch":70,"start":65.8333,"duration":0.1667,"velocity":127,"measure":25,"beat":3.75,"subject_pos":-1,"motif":"","motif_pos":-1,"best_pos":3,"similarity":0.45,"stretto":false,"stretto_voices":0,"combination":[],"aug_dim":"","rhythm_ratio":1.0,"mirror":false,"chromatic_density":0.222,"complexity":0.619,"dissonance":0.18},{"voice":0,"pitch":69,"start":65.9999,"duration":0.5,"velocity":127,"measure":25,"beat":4.0,"subject_pos":-1,"motif":"","motif_pos":-1,"best_pos":1,"similarity":0.429,"stretto":false,"stretto_voices":0,"combination":[],"aug_dim":"","rhythm_ratio":1.0,"mirror":false,"chromatic_density":0.222,"complexity":0.619,"dissonance":0.18},{"voice":1,"pitch":70,"start":66.3333,"duration":0.3333,"velocity":127,"measure":25,"beat":4.5,"subject_pos":-1,"motif":"","motif_pos":-1,"best_pos":2,"similarity":0.579,"stretto":false,"stretto_voices":0,"combination":[],"aug_dim":"","rhythm_ratio":1.0,"mirror":false,"chromatic_density":0.222,"complexity":0.619,"dissonance":0.18},{"voice":3,"pitch":48,"start":66.4166,"duration":0.0833,"velocity":127,"measure":25,"beat":4.625,"subject_pos":-1,"motif":"","motif_pos":-1,"best_pos":4,"similarity":0.386,"stretto":false,"stretto_voices":0,"combination":[],"aug_dim":"","rhythm_ratio":1.0,"mirror":false,"chromatic_density":0.222,"complexity":0.619,"dissonance":0.18},{"voice":0,"pitch":67,"start":66.4999,"duration":0.1667,"velocity":127,"measure":25,"beat":4.75,"subject_pos":-1,"motif":"","motif_pos":-1,"best_pos":2,"similarity":0.579,"stretto":false,"stretto_voices":0,"combination":[],"aug_dim":"","rhythm_ratio":1.0,"mirror":false,"chromatic_density":0.222,"complexity":0.619,"dissonance":0.18},{"voice":3,"pitch":50,"start":66.4999,"duration":0.0833,"velocity":127,"measure":25,"beat":4.75,"subject_pos":-1,"motif":"","motif_pos":-1,"best_pos":5,"similarity":0.586,"stretto":false,"stretto_voices":0,"combination":[],"aug_dim":"","rhythm_ratio":1.0,"mirror":false,"chromatic_density":0.222,"complexity":0.619,"dissonance":0.18},{"voice":3,"pitch":52,"start":66.5833,"duration":0.0833,"velocity":127,"measure":25,"beat":4.875,"subject_pos":-1,"motif":"","motif_pos":-1,"best_pos":6,"similarity":0.65,"stretto":false,"stretto_voices":0,"combination":[],"aug_dim":"","rhythm_ratio":1.0,"mirror":false,"chromatic_density":0.222,"complexity":0.619,"dissonance":0.18},{"voice":0,"pitch":65,"start":66.6666,"duration":0.8333,"velocity":127,"measure":26,"beat":1.0,"subject_pos":-1,"motif":"","motif_pos":-1,"best_pos":3,"similarity":0.593,"stretto":false,"stretto_voices":0,"combination":[],"aug_dim":"","rhythm_ratio":1.0,"mirror":false,"chromatic_density":0.3,"complexity":0.723,"dissonance":0.104},{"voice":1,"pitch":69,"start":66.6666,"duration":1.0,"velocity":127,"measure":26,"beat":1.0,"subject_pos":-1,"motif":"","motif_pos":-1,"best_pos":3,"similarity":0.45,"stretto":false,"stretto_voices":0,"combination":[],"aug_dim":"","rhythm_ratio":1.0,"mirror":false,"chromatic_density":0.3,"complexity":0.723,"dissonance":0.104},{"voice":2,"pitch":60,"start":66.6666,"duration":0.6667,"velocity":127,"measure":26,"beat":1.0,"subject_pos":0,"motif":"subject_inv","motif_pos":0,"best_pos":0,"similarity":1.0,"stretto":false,"stretto_voices":0,"combination":[],"aug_dim":"","rhythm_ratio":1.0,"mirror":false,"chromatic_density":0.3,"complexity":0.723,"dissonance":0.104},{"voice":3,"pitch":53,"start":66.6666,"duration":0.5,"velocity":127,"measure":26,"beat":1.0,"subject_pos":-1,"motif":"","motif_pos":-1,"best_pos":7,"similarity":0.464,"stretto":false,"stretto_voices":0,"combination":[],"aug_dim":"","rhythm_ratio":1.0,"mirror":false,"chromatic_density":0.3,"complexity":0.723,"dissonance":0.104},{"voice":3,"pitch":52,"start":67.1666,"duration":0.1667,"velocity":127,"measure":26,"beat":1.75,"subject_pos":-1,"motif":"","motif_pos":-1,"best_pos":2,"similarity":0.379,"stretto":false,"stretto_voices":0,"combination":[],"aug_dim":"","rhythm_ratio":1.0,"mirror":false,"chromatic_density":0.3,"complexity":0.723,"dissonance":0.104},{"voice":2,"pitch":53,"start":67.3333,"duration":0.5,"velocity":127,"measure":26,"beat":2.0,"subject_pos":1,"motif":"subject_inv","motif_pos":1,"best_pos":1,"similarity":1.0,"stretto":false,"stretto_voices":0,"combination":[],"aug_dim":"","rhythm_ratio":1.0,"mirror":false,"chromatic_density":0.3,"complexity":0.723,"dissonance":0.104},{"voice":3,"pitch":50,"start":67.3333,"duration":0.8333,"velocity":127,"measure":26,"beat":2.0,"subject_pos":-1,"motif":"","motif_pos":-1,"best_pos":2,"similarity":0.393,"stretto":false,"stretto_voices":0,"combination":[],"aug_dim":"","rhythm_ratio":1.0,"mirror":false,"chromatic_density":0.3,"complexity":0.723,"dissonance":0.104},{"voice":0,"pitch":64,"start":67.4999,"duration":0.1667,"velocity":127,"measure":26,"beat":2.25,"subject_pos":-1,"motif":"","motif_pos":-1,"best_pos":4,"similarity":0.543,"stretto":false,"stretto_voices":0,"combination":[],"aug_dim":"","rhythm_ratio":1.0,"mirror":false,"chromatic_density":0.3,"complexity":0.723,"dissonance":0.104},{"voice":0,"pitch":62,"start":67.6666,"duration":0.1667,"velocity":127,"measure":26,"beat":2.5,"subject_pos":-1,"motif":"","motif_pos":-1,"best_pos":3,"similarity":0.643,"stretto":false,"stretto_voices":0,"combination":[],"aug_dim":"","rhythm_ratio":1.0,"mirror":false,"chromatic_density":0.3,"complexity":0.723,"dissonance":0.104},{"voice":1,"pitch":67,"start":67.6666,"duration":0.3333,"velocity":127,"measure":26,"beat":2.5,"subject_pos":-1,"motif":"","motif_pos":-1,"best_pos":2,"similarity":0.643,"stretto":false,"stretto_voices":0,"combination":[],"aug_dim":"","rhythm_ratio":1.0,"mirror":false,"chromatic_density":0.3,"complexity":0.723,"dissonance":0.104},{"voice":0,"pitch":61,"start":67.8333,"duration":0.1667,"velocity":127,"measure":26,"beat":2.75,"subject_pos":-1,"motif":"","motif_pos":-1,"best_pos":4,"similarity":0.679,"stretto":false,"stretto_voices":0,"combination":[],"aug_dim":"","rhythm_ratio":1.0,"mirror":false,"chromatic_density":0.3,"complexity":0.723,"dissonance":0.104},{"voice":2,"pitch":55,"start":67.8333,"duration":0.1667,"velocity":127,"measure":26,"beat":2.75,"subject_pos":2,"motif":"subject_inv","motif_pos":2,"best_pos":2,"similarity":1.0,"stretto":false,"stretto_voices":0,"combination":[],"aug_dim":"","rhythm_ratio":1.0,"mirror":false,"chromatic_density":0.3,"complexity":0.723,"dissonance":0.104},{"voice":0,"pitch":62,"start":67.9999,"duration":0.6667,"velocity":127,"measure":26,"beat":3.0,"subject_pos":-1,"motif":"","motif_pos":-1,"best_pos":5,"similarity":0.464,"stretto":false,"stretto_voices":0,"combination":[],"aug_dim":"","rhythm_ratio":1.0,"mirror":false,"chromatic_density":0.3,"complexity":0.723,"dissonance":0.104},{"voice":1,"pitch":65,"start":67.9999,"duration":1.3333,"velocity":127,"measure":26,"beat":3.0,"subject_pos":-1,"motif":"","motif_pos":-1,"best_pos":3,"similarity":0.786,"stretto":false,"stretto_voices":0,"combination":[],"aug_dim":"","rhythm_ratio":1.0,"mirror":false,"chromatic_density":0.3,"complexity":0.723,"dissonance":0.104},{"voice":2,"pitch":57,"start":67.9999,"duration":0.5,"velocity":127,"measure":26,"beat":3.0,"subject_pos":3,"motif":"subject_inv","motif_pos":3,"best_pos":3,"similarity":1.0,"stretto":false,"stretto_voices":0,"combination":[],"aug_dim":"","rhythm_ratio":1.0,"mirror":false,"chromatic_density":0.3,"complexity":0.723,"dissonance":0.104},{"voice":3,"pitch":50,"start":68.1666,"duration":0.1667,"velocity":127,"measure":26,"beat":3.25,"subject_pos":-1,"motif":"","motif_pos":-1,"best_pos":1,"similarity":0.429,"stretto":false,"stretto_voices":0,"combination":[],"aug_dim":"","rhythm_ratio":1.0,"mirror":false,"chromatic_density":0.3,"complexity":0.723,"dissonance":0.104},{"voice":3,"pitch":48,"start":68.3333,"duration":0.1667,"velocity":127,"measure":26,"beat":3.5,"subject_pos":-1,"motif":"","motif_pos":-1,"best_pos":2,"similarity":0.571,"stretto":false,"stretto_voices":0,"combination":[],"aug_dim":"","rhythm_ratio":1.0,"mirror":false,"chromatic_density":0.3,"complexity":0.723,"dissonance":0.104},{"voice":2,"pitch":58,"start":68.4999,"duration":0.1667,"velocity":127,"measure":26,"beat":3.75,"subject_pos":4,"motif":"subject_inv","motif_pos":4,"best_pos":4,"similarity":1.0,"stretto":false,"stretto_voices":0,"combination":[],"aug_dim":"","rhythm_ratio":1.0,"mirror":false,"chromatic_density":0.3,"complexity":0.723,"dissonance":0.104},{"voice":3,"pitch":46,"start":68.4999,"duration":0.1667,"velocity":127,"measure":26,"beat":3.75,"subject_pos":-1,"motif":"","motif_pos":-1,"best_pos":3,"similarity":0.643,"stretto":false,"stretto_voices":0,"combination":[],"aug_dim":"","rhythm_ratio":1.0,"mirror":false,"chromatic_density":0.3,"complexity":0.723,"dissonance":0.104},{"voice":2,"pitch":60,"start":68.6666,"duration":0.6667,"velocity":127,"measure":26,"beat":4.0,"subject_pos":5,"motif":"subject_inv","motif_pos":5,"best_pos":5,"similarity":1.0,"stretto":false,"stretto_voices":0,"combination":[],"aug_dim":"","rhythm_ratio":1.0,"mirror":false,"chromatic_density":0.3,"complexity":0.723,"dissonance":0.104},{"voice":3,"pitch":45,"start":68.6666,"duration":0.1667,"velocity":127,"measure":26,"beat":4.0,"subject_pos":-1,"motif":"","motif_pos":-1,"best_pos":4,"similarity":0.607,"stretto":false,"stretto_voices":0,"combination":[],"aug_dim":"","rhythm_ratio":1.0,"mirror":false,"chromatic_density":0.3,"complexity":0.723,"dissonance":0.104},{"voice":3,"pitch":41,"start":68.8333,"duration":0.1667,"velocity":127,"measure":26,"beat":4.25,"subject_pos":-1,"motif":"","motif_pos":-1,"best_pos":5,"similarity":0.536,"stretto":false,"stretto_voices":0,"combination":[],"aug_dim":"","rhythm_ratio":1.0,"mirror":false,"chromatic_density":0.3,"complexity":0.723,"dissonance":0.104},{"voice":3,"pitch":43,"start":68.9999,"duration":0.1667,"velocity":127,"measure":26,"beat":4.5,"subject_pos":-1,"motif":"","motif_pos":-1,"best_pos":5,"similarity":0.604,"stretto":false,"stretto_voices":0,"combination":[],"aug_dim":"","rhythm_ratio":1.0,"mirror":false,"chromatic_density":0.3,"complexity":0.723,"dissonance":0.104},{"voice":0,"pitch":74,"start":69.1666,"duration":0.1667,"velocity":127,"measure":26,"beat":4.75,"subject_pos":-1,"motif":"","motif_pos":-1,"best_pos":6,"similarity":0.214,"stretto":false,"stretto_voices":0,"combination":[],"aug_dim":"","rhythm_ratio":1.0,"mirror":false,"chromatic_density":0.3,"complexity":0.723,"dissonance":0.104},{"voice":3,"pitch":45,"start":69.1666,"duration":0.1667,"velocity":127,"measure":26,"beat":4.75,"subject_pos":-1,"motif":"","motif_pos":-1,"best_pos":6,"similarity":0.65,"stretto":false,"stretto_voices":0,"combination":[],"aug_dim":"","rhythm_ratio":1.0,"mirror":false,"chromatic_density":0.3,"complexity":0.723,"dissonance":0.104},{"voice":0,"pitch":67,"start":69.3333,"duration":0.8333,"velocity":127,"measure":27,"beat":1.0,"subject_pos":-1,"motif":"","motif_pos":-1,"best_pos":5,"similarity":0.186,"stretto":false,"stretto_voices":0,"combination":[],"aug_dim":"","rhythm_ratio":1.0,"mirror":false,"chromatic_density":0.462,"complexity":0.74,"dissonance":0.185},{"voice":1,"pitch":64,"start":69.3333,"duration":1.3333,"velocity":127,"measure":27,"beat":1.0,"subject_pos":-1,"motif":"","motif_pos":-1,"best_pos":4,"similarity":0.893,"stretto":false,"stretto_voices":0,"combination":[],"aug_dim":"","rhythm_ratio":1.0,"mirror":false,"chromatic_density":0.462,"complexity":0.74,"dissonance":0.185},{"voice":2,"pitch":61,"start":69.3333,"duration":0.6667,"velocity":127,"measure":27,"beat":1.0,"subject_pos":6,"motif":"subject_inv","motif_pos":6,"best_pos":6,"similarity":1.0,"stretto":false,"stretto_voices":0,"combination":[],"aug_dim":"","rhythm_ratio":1.0,"mirror":false,"chromatic_density":0.462,"complexity":0.74,"dissonance":0.185},{"voice":3,"pitch":46,"start":69.3333,"duration":0.1667,"velocity":127,"measure":27,"beat":1.0,"subject_pos":-1,"motif":"","motif_pos":-1,"best_pos":7,"similarity":0.464,"stretto":false,"stretto_voices":0,"combination":[],"aug_dim":"","rhythm_ratio":1.0,"mirror":false,"chromatic_density":0.462,"complexity":0.74,"dissonance":0.185},{"voice":3,"pitch":43,"start":69.4999,"duration":0.1667,"velocity":127,"measure":27,"beat":1.25,"subject_pos":-1,"motif":"","motif_pos":-1,"best_pos":3,"similarity":0.55,"stretto":false,"stretto_voices":0,"combination":[],"aug_dim":"","rhythm_ratio":1.0,"mirror":false,"chromatic_density":0.462,"complexity":0.74,"dissonance":0.185},{"voice":3,"pitch":45,"start":69.6666,"duration":0.1667,"velocity":127,"measure":27,"beat":1.5,"subject_pos":-1,"motif":"","motif_pos":-1,"best_pos":4,"similarity":0.679,"stretto":false,"stretto_voices":0,"combination":[],"aug_dim":"","rhythm_ratio":1.0,"mirror":false,"chromatic_density":0.462,"complexity":0.74,"dissonance":0.185},{"voice":3,"pitch":46,"start":69.8333,"duration":0.1667,"velocity":127,"measure":27,"beat":1.75,"subject_pos":-1,"motif":"","motif_pos":-1,"best_pos":5,"similarity":0.8,"stretto":false,"stretto_voices":0,"combination":[],"aug_dim":"","rhythm_ratio":1.0,"mirror":false,"chromatic_density":0.462,"complexity":0.74,"dissonance":0.185},{"voice":2,"pitch":60,"start":69.9999,"duration":0.5,"velocity":127,"measure":27,"beat":2.0,"subject_pos":7,"motif":"subject_inv","motif_pos":7,"best_pos":7,"similarity":1.0,"stretto":false,"stretto_voices":0,"combination":[],"aug_dim":"","rhythm_ratio":1.0,"mirror":false,"chromatic_density":0.462,"complexity":0.74,"dissonance":0.185},{"voice":3,"pitch":48,"start":69.9999,"duration":0.5,"velocity":127,"measure":27,"beat":2.0,"subject_pos":-1,"motif":"","motif_pos":-1,"best_pos":6,"similarity":0.721,"stretto":false,"stretto_voices":0,"combination":[],"aug_dim":"","rhythm_ratio":1.0,"mirror":false,"chromatic_density":0.462,"complexity":0.74,"dissonance":0.185},{"voice":0,"pitch":70,"start":70.1666,"duration":0.1667,"velocity":127,"measure":27,"beat":2.25,"subject_pos":-1,"motif":"","motif_pos":-1,"best_pos":1,"similarity":0.321,"stretto":false,"stretto_voices":0,"combination":[],"aug_dim":"","rhythm_ratio":1.0,"mirror":false,"chromatic_density":0.462,"complexity":0.74,"dissonance":0.185},{"voice":0,"pitch":69,"start":70.3333,"duration":0.1667,"velocity":127,"measure":27,"beat":2.5,"subject_pos":-1,"motif":"","motif_pos":-1,"best_pos":2,"similarity":0.4,"stretto":false,"stretto_voices":0,"combination":[],"aug_dim":"","rhythm_ratio":1.0,"mirror":false,"chromatic_density":0.462,"complexity":0.74,"dissonance":0.185},{"voice":0,"pitch":67,"start":70.4999,"duration":0.1667,"velocity":127,"measure":27,"beat":2.75,"subject_pos":-1,"motif":"","motif_pos":-1,"best_pos":2,"similarity":0.464,"stretto":false,"stretto_voices":0,"combination":[],"aug_dim":"","rhythm_ratio":1.0,"mirror":false,"chromatic_density":0.462,"complexity":0.74,"dissonance":0.185},{"voice":2,"pitch":58,"start":70.4999,"duration":0.1667,"velocity":127,"measure":27,"beat":2.75,"subject_pos":8,"motif":"subject_inv","motif_pos":8,"best_pos":0,"similarity":1.0,"stretto":false,"stretto_voices":0,"combination":[],"aug_dim":"","rhythm_ratio":1.0,"mirror":false,"chromatic_density":0.462,"complexity":0.74,"dissonance":0.185},{"voice":3,"pitch":49,"start":70.4999,"duration":0.1667,"velocity":127,"measure":27,"beat":2.75,"subject_pos":-1,"motif":"","motif_pos":-1,"best_pos":6,"similarity":0.518,"stretto":false,"stretto_voices":0,"combination":[],"aug_dim":"","rhythm_ratio":1.0,"mirror":false,"chromatic_density":0.462,"complexity":0.74,"dissonance":0.185},{"voice":0,"pitch":65,"start":70.6666,"duration":0.1667,"velocity":127,"measure":27,"beat":3.0,"subject_pos":-1,"motif":"","motif_pos":-1,"best_pos":4,"similarity":0.457,"stretto":false,"stretto_voices":0,"combination":[],"aug_dim":"","rhythm_ratio":1.0,"mirror":false,"chromatic_density":0.462,"complexity":0.74,"dissonance":0.185},{"voice":1,"pitch":65,"start":70.6666,"duration":1.0,"velocity":127,"measure":27,"beat":3.0,"subject_pos":-1,"motif":"","motif_pos":-1,"best_pos":5,"similarity":0.821,"stretto":false,"stretto_voices":0,"combination":[],"aug_dim":"","rhythm_ratio":1.0,"mirror":false,"chromatic_density":0.462,"complexity":0.74,"dissonance":0.185},{"voice":2,"pitch":57,"start":70.6666,"duration":0.8333,"velocity":127,"measure":27,"beat":3.0,"subject_pos":-1,"motif":"","motif_pos":-1,"best_pos":4,"similarity":0.636,"stretto":false,"stretto_voices":0,"combination":[],"aug_dim":"","rhythm_ratio":1.0,"mirror":false,"chromatic_density":0.462,"complexity":0.74,"dissonance":0.185},{"voice":3,"pitch":50,"start":70.6666,"duration":0.1667,"velocity":127,"measure":27,"beat":3.0,"subject_pos":-1,"motif":"tail","motif_pos":3,"best_pos":3,"similarity":1.0,"stretto":false,"stretto_voices":0,"combination":[],"aug_dim":"","rhythm_ratio":1.0,"mirror":false,"chromatic_density":0.462,"complexity":0.74,"dissonance":0.185},{"voice":0,"pitch":69,"start":70.8333,"duration":0.1667,"velocity":127,"measure":27,"beat":3.25,"subject_pos":-1,"motif":"","motif_pos":-1,"best_pos":4,"similarity":0.5,"stretto":false,"stretto_voices":0,"combination":[],"aug_dim":"","rhythm_ratio":1.0,"mirror":false,"chromatic_density":0.462,"complexity":0.74,"dissonance":0.185},{"voice":3,"pitch":49,"start":70.8333,"duration":0.1667,"velocity":127,"measure":27,"beat":3.25,"subject_pos":-1,"motif":"tail","motif_pos":4,"best_pos":4,"similarity":1.0,"stretto":false,"stretto_voices":0,"combination":[],"aug_dim":"","rhythm_ratio":1.0,"mirror":false,"chromatic_density":0.462,"complexity":0.74,"dissonance":0.185},{"voice":0,"pitch":71,"start":70.9999,"duration":0.1667,"velocity":127,"measure":27,"beat":3.5,"subject_pos":-1,"motif":"","motif_pos":-1,"best_pos":5,"similarity":0.607,"stretto":false,"stretto_voices":0,"combination":[],"aug_dim":"","rhythm_ratio":1.0,"mirror":false,"chromatic_density":0.462,"complexity":0.74,"dissonance":0.185},{"voice":3,"pitch":50,"start":70.9999,"duration":0.1667,"velocity":127,"measure":27,"beat":3.5,"subject_pos":-1,"motif":"tail","motif_pos":5,"best_pos":5,"similarity":1.0,"stretto":false,"stretto_voices":0,"combination":[],"aug_dim":"","rhythm_ratio":1.0,"mirror":false,"chromatic_density":0.462,"complexity":0.74,"dissonance":0.185},{"voice":0,"pitch":73,"start":71.1666,"duration":0.1667,"velocity":127,"measure":27,"beat":3.75,"subject_pos":-1,"motif":"","motif_pos":-1,"best_pos":6,"similarity":0.643,"stretto":false,"stretto_voices":0,"combination":[],"aug_dim":"","rhythm_ratio":1.0,"mirror":false,"chromatic_density":0.462,"complexity":0.74,"dissonance":0.185},{"voice":3,"pitch":52,"start":71.1666,"duration":0.1667,"velocity":127,"measure":27,"beat":3.75,"subject_pos":-1,"motif":"tail","motif_pos":6,"best_pos":6,"similarity":1.0,"stretto":false,"stretto_voices":0,"combination":[],"aug_dim":"","rhythm_ratio":1.0,"mirror":false,"chromatic_density":0.462,"complexity":0.74,"dissonance":0.185},{"voice":0,"pitch":74,"start":71.3333,"duration":0.6667,"velocity":127,"measure":27,"beat":4.0,"subject_pos":-1,"motif":"","motif_pos":-1,"best_pos":7,"similarity":0.464,"stretto":false,"stretto_voices":0,"combination":[],"aug_dim":"","rhythm_ratio":1.0,"mirror":false,"chromatic_density":0.462,"complexity":0.74,"dissonance":0.185},{"voice":3,"pitch":53,"start":71.3333,"duration":0.8333,"velocity":127,"measure":27,"beat":4.0,"subject_pos":-1,"motif":"tail","motif_pos":7,"best_pos":7,"similarity":1.0,"stretto":false,"stretto_voices":0,"combination":[],"aug_dim":"","rhythm_ratio":1.0,"mirror":false,"chromatic_density":0.462,"complexity":0.74,"dissonance":0.185},{"voice":2,"pitch":55,"start":71.4999,"duration":0.1667,"velocity":127,"measure":27,"beat":4.25,"subject_pos":-1,"motif":"","motif_pos":-1,"best_pos":5,"similarity":0.636,"stretto":false,"stretto_voices":0,"combination":[],"aug_dim":"","rhythm_ratio":1.0,"mirror":false,"chromatic_density":0.462,"complexity":0.74,"dissonance":0.185},{"voice":1,"pitch":67,"start":71.6666,"duration":0.3333,"velocity":127,"measure":27,"beat":4.5,"subject_pos":-1,"motif":"","motif_pos":-1,"best_pos":6,"similarity":0.643,"stretto":false,"stretto_voices":0,"combination":[],"aug_dim":"","rhythm_ratio":1.0,"mirror":false,"chromatic_density":0.462,"complexity":0.74,"dissonance":0.185},{"voice":2,"pitch":57,"start":71.6666,"duration":0.1667,"velocity":127,"measure":27,"beat":4.5,"subject_pos":-1,"motif":"","motif_pos":-1,"best_pos":6,"similarity":0.657,"stretto":false,"stretto_voices":0,"combination":[],"aug_dim":"","rhythm_ratio":1.0,"mirror":false,"chromatic_density":0.462,"complexity":0.74,"dissonance":0.185},{"voice":2,"pitch":58,"start":71.8333,"duration":0.1667,"velocity":127,"measure":27,"beat":4.75,"subject_pos":-1,"motif":"","motif_pos":-1,"best_pos":5,"similarity":0.657,"stretto":false,"stretto_voices":0,"combination":[],"aug_dim":"","rhythm_ratio":1.0,"mirror":false,"chromatic_density":0.462,"complexity":0.74,"dissonance":0.185},{"voice":1,"pitch":69,"start":71.9999,"duration":1.8333,"velocity":127,"measure":28,"beat":1.0,"subject_pos":-1,"motif":"","motif_pos":-1,"best_pos":6,"similarity":0.661,"stretto":false,"stretto_voices":0,"combination":[],"aug_dim":"","rhythm_ratio":1.0,"mirror":false,"chromatic_density":0.421,"complexity":0.587,"dissonance":0.124},{"voice":2,"pitch":60,"start":71.9999,"duration":0.8333,"velocity":127,"measure":28,"beat":1.0,"subject_pos":-1,"motif":"","motif_pos":-1,"best_pos":3,"similarity":0.521,"stretto":false,"stretto_voices":0,"combination":[],"aug_dim":"","rhythm_ratio":1.0,"mirror":false,"chromatic_density":0.421,"complexity":0.587,"dissonance":0.124},{"voice":0,"pitch":72,"start":72.1666,"duration":0.1667,"velocity":127,"measure":28,"beat":1.25,"subject_pos":-1,"motif":"","motif_pos":-1,"best_pos":4,"similarity":0.521,"stretto":false,"stretto_voices":0,"combination":[],"aug_dim":"","rhythm_ratio":1.0,"mirror":false,"chromatic_density":0.421,"complexity":0.587,"dissonance":0.124},{"voice":3,"pitch":52,"start":72.1666,"duration":0.1667,"velocity":127,"measure":28,"beat":1.25,"subject_pos":-1,"motif":"","motif_pos":-1,"best_pos":4,"similarity":0.771,"stretto":false,"stretto_voices":0,"combination":[],"aug_dim":"","rhythm_ratio":1.0,"mirror":false,"chromatic_density":0.421,"complexity":0.587,"dissonance":0.124},{"voice":0,"pitch":74,"start":72.3333,"duration":0.1667,"velocity":127,"measure":28,"beat":1.5,"subject_pos":-1,"motif":"","motif_pos":-1,"best_pos":5,"similarity":0.65,"stretto":false,"stretto_voices":0,"combination":[],"aug_dim":"","rhythm_ratio":1.0,"mirror":false,"chromatic_density":0.421,"complexity":0.587,"dissonance":0.124},{"voice":3,"pitch":53,"start":72.3333,"duration":0.1667,"velocity":127,"measure":28,"beat":1.5,"subject_pos":-1,"motif":"","motif_pos":-1,"best_pos":5,"similarity":0.793,"stretto":false,"stretto_voices":0,"combination":[],"aug_dim":"","rhythm_ratio":1.0,"mirror":false,"chromatic_density":0.421,"complexity":0.587,"dissonance":0.124},{"voice":0,"pitch":76,"start":72.4999,"duration":0.1667,"velocity":127,"measure":28,"beat":1.75,"subject_pos":-1,"motif":"","motif_pos":-1,"best_pos":6,"similarity":0.679,"stretto":false,"stretto_voices":0,"combination":[],"aug_dim":"","rhythm_ratio":1.0,"mirror":false,"chromatic_density":0.421,"complexity":0.587,"dissonance":0.124},{"voice":3,"pitch":55,"start":72.4999,"duration":0.1667,"velocity":127,"measure":28,"beat":1.75,"subject_pos":-1,"motif":"","motif_pos":-1,"best_pos":6,"similarity":0.643,"stretto":false,"stretto_voices":0,"combination":[],"aug_dim":"","rhythm_ratio":1.0,"mirror":false,"chromatic_density":0.421,"complexity":0.587,"dissonance":0.124},{"voice":0,"pitch":77,"start":72.6666,"duration":0.5,"velocity":127,"measure":28,"beat":2.0,"subject_pos":-1,"motif":"","motif_pos":-1,"best_pos":7,"similarity":0.464,"stretto":false,"stretto_voices":0,"combination":[],"aug_dim":"","rhythm_ratio":1.0,"mirror":false,"chromatic_density":0.421,"complexity":0.587,"dissonance":0.124},{"voice":3,"pitch":57,"start":72.6666,"duration":1.1667,"velocity":127,"measure":28,"beat":2.0,"subject_pos":-1,"motif":"","motif_pos":-1,"best_pos":1,"similarity":0.457,"stretto":false,"stretto_voices":0,"combination":[],"aug_dim":"","rhythm_ratio":1.0,"mirror":false,"chromatic_density":0.421,"complexity":0.587,"dissonance":0.124},{"voice":2,"pitch":59,"start":72.8333,"duration":0.1667,"velocity":127,"measure":28,"beat":2.25,"subject_pos":-1,"motif":"","motif_pos":-1,"best_pos":4,"similarity":0.757,"stretto":false,"stretto_voices":0,"combination":[],"aug_dim":"","rhythm_ratio":1.0,"mirror":false,"chromatic_density":0.421,"complexity":0.587,"dissonance":0.124},{"voice":2,"pitch":60,"start":72.9999,"duration":0.1667,"velocity":127,"measure":28,"beat":2.5,"subject_pos":-1,"motif":"","motif_pos":-1,"best_pos":5,"similarity":0.786,"stretto":false,"stretto_voices":0,"combination":[],"aug_dim":"","rhythm_ratio":1.0,"mirror":false,"chromatic_density":0.421,"complexity":0.587,"dissonance":0.124},{"voice":0,"pitch":76,"start":73.1666,"duration":0.0833,"velocity":127,"measure":28,"beat":2.75,"subject_pos":-1,"motif":"","motif_pos":-1,"best_pos":2,"similarity":0.379,"stretto":false,"stretto_voices":0,"combination":[],"aug_dim":"","rhythm_ratio":1.0,"mirror":false,"chromatic_density":0.421,"complexity":0.587,"dissonance":0.124},{"voice":2,"pitch":62,"start":73.1666,"duration":0.1667,"velocity":127,"measure":28,"beat":2.75,"subject_pos":-1,"motif":"","motif_pos":-1,"best_pos":6,"similarity":0.643,"stretto":false,"stretto_voices":0,"combination":[],"aug_dim":"","rhythm_ratio":1.0,"mirror":false,"chromatic_density":0.421,"complexity":0.587,"dissonance":0.124},{"voice":0,"pitch":74,"start":73.2499,"duration":0.0833,"velocity":127,"measure":28,"beat":2.875,"subject_pos":-1,"motif":"","motif_pos":-1,"best_pos":2,"similarity":0.471,"stretto":false,"stretto_voices":0,"combination":[],"aug_dim":"","rhythm_ratio":1.0,"mirror":false,"chromatic_density":0.421,"complexity":0.587,"dissonance":0.124},{"voice":0,"pitch":72,"start":73.3333,"duration":1.8333,"velocity":127,"measure":28,"beat":3.0,"subject_pos":-1,"motif":"","motif_pos":-1,"best_pos":2,"similarity":0.579,"stretto":false,"stretto_voices":0,"combination":[],"aug_dim":"","rhythm_ratio":1.0,"mirror":false,"chromatic_density":0.421,"complexity":0.587,"dissonance":0.124},{"voice":2,"pitch":64,"start":73.3333,"duration":0.6667,"velocity":127,"measure":28,"beat":3.0,"subject_pos":-1,"motif":"","motif_pos":-1,"best_pos":6,"similarity":0.375,"stretto":false,"stretto_voices":0,"combination":[],"aug_dim":"","rhythm_ratio":1.0,"mirror":false,"chromatic_density":0.421,"complexity":0.587,"dissonance":0.124},{"voice":1,"pitch":70,"start":73.8333,"duration":0.1667,"velocity":127,"measure":28,"beat":3.75,"subject_pos":-1,"motif":"","motif_pos":-1,"best_pos":7,"similarity":0.464,"stretto":false,"stretto_voices":0,"combination":[],"aug_dim":"","rhythm_ratio":1.0,"mirror":false,"chromatic_density":0.421,"complexity":0.587,"dissonance":0.124},{"voice":3,"pitch":55,"start":73.8333,"duration":0.1667,"velocity":127,"measure":28,"beat":3.75,"subject_pos":-1,"motif":"","motif_pos":-1,"best_pos":2,"similarity":0.593,"stretto":false,"stretto_voices":0,"combination":[],"aug_dim":"","rhythm_ratio":1.0,"mirror":false,"chromatic_density":0.421,"complexity":0.587,"dissonance":0.124},{"voice":1,"pitch":69,"start":73.9999,"duration":0.5,"velocity":127,"measure":28,"beat":4.0,"subject_pos":-1,"motif":"","motif_pos":-1,"best_pos":2,"similarity":0.379,"stretto":false,"stretto_voices":0,"combination":[],"aug_dim":"","rhythm_ratio":1.0,"mirror":false,"chromatic_density":0.421,"complexity":0.587,"dissonance":0.124},{"voice":3,"pitch":53,"start":73.9999,"duration":0.5,"velocity":127,"measure":28,"beat":4.0,"subject_pos":-1,"motif":"","motif_pos":-1,"best_pos":3,"similarity":0.593,"stretto":false,"stretto_voices":0,"combination":[],"aug_dim":"","rhythm_ratio":1.0,"mirror":false,"chromatic_density":0.421,"complexity":0.587,"dissonance":0.124},{"voice":1,"pitch":67,"start":74.4999,"duration":0.1667,"velocity":127,"measure":28,"beat":4.75,"subject_pos":-1,"motif":"","motif_pos":-1,"best_pos":2,"similarity":0.471,"stretto":false,"stretto_voices":0,"combination":[],"aug_dim":"","rhythm_ratio":1.0,"mirror":false,"chromatic_density":0.421,"complexity":0.587,"dissonance":0.124},{"voice":3,"pitch":52,"start":74.4999,"duration":0.1667,"velocity":127,"measure":28,"beat":4.75,"subject_pos":-1,"motif":"","motif_pos":-1,"best_pos":4,"similarity":0.493,"stretto":false,"stretto_voices":0,"combination":[],"aug_dim":"","rhythm_ratio":1.0,"mirror":false,"chromatic_density":0.421,"complexity":0.587,"dissonance":0.124},{"voice":1,"pitch":65,"start":74.6666,"duration":1.8333,"velocity":127,"measure":29,"beat":1.0,"subject_pos":-1,"motif":"","motif_pos":-1,"best_pos":2,"similarity":0.579,"stretto":false,"stretto_voices":0,"combination":[],"aug_dim":"","rhythm_ratio":1.0,"mirror":false,"chromatic_density":0.154,"complexity":0.52,"dissonance":0.112},{"voice":3,"pitch":50,"start":74.6666,"duration":1.0833,"velocity":127,"measure":29,"beat":1.0,"subject_pos":-1,"motif":"","motif_pos":-1,"best_pos":4,"similarity":0.464,"stretto":false,"stretto_voices":0,"combination":[],"aug_dim":"","rhythm_ratio":1.0,"mirror":false,"chromatic_density":0.154,"complexity":0.52,"dissonance":0.112},{"voice":0,"pitch":69,"start":75.1666,"duration":0.1667,"velocity":127,"measure":29,"beat":1.75,"subject_pos":-1,"motif":"","motif_pos":-1,"best_pos":0,"similarity":0.464,"stretto":false,"stretto_voices":0,"combination":[],"aug_dim":"","rhythm_ratio":1.0,"mirror":false,"chromatic_density":0.154,"complexity":0.52,"dissonance":0.112},{"voice":0,"pitch":74,"start":75.3333,"duration":0.5,"velocity":127,"measure":29,"beat":2.0,"subject_pos":-1,"motif":"","motif_pos":-1,"best_pos":1,"similarity":0.661,"stretto":false,"stretto_voices":0,"combination":[],"aug_dim":"","rhythm_ratio":1.0,"mirror":false,"chromatic_density":0.154,"complexity":0.52,"dissonance":0.112},{"voice":3,"pitch":38,"start":75.7499,"duration":0.0833,"velocity":127,"measure":29,"beat":2.625,"subject_pos":-1,"motif":"","motif_pos":-1,"best_pos":5,"similarity":0.518,"stretto":false,"stretto_voices":0,"combination":[],"aug_dim":"","rhythm_ratio":1.0,"mirror":false,"chromatic_density":0.154,"complexity":0.52,"dissonance":0.112},{"voice":0,"pitch":72,"start":75.8333,"duration":0.1667,"velocity":127,"measure":29,"beat":2.75,"subject_pos":-1,"motif":"","motif_pos":-1,"best_pos":2,"similarity":0.614,"stretto":false,"stretto_voices":0,"combination":[],"aug_dim":"","rhythm_ratio":1.0,"mirror":false,"chromatic_density":0.154,"complexity":0.52,"dissonance":0.112},{"voice":3,"pitch":40,"start":75.8333,"duration":0.0833,"velocity":127,"measure":29,"beat":2.75,"subject_pos":-1,"motif":"","motif_pos":-1,"best_pos":6,"similarity":0.607,"stretto":false,"stretto_voices":0,"combination":[],"aug_dim":"","rhythm_ratio":1.0,"mirror":false,"chromatic_density":0.154,"complexity":0.52,"dissonance":0.112},{"voice":3,"pitch":41,"start":75.9166,"duration":0.0833,"velocity":127,"measure":29,"beat":2.875,"subject_pos":-1,"motif":"","motif_pos":-1,"best_pos":5,"similarity":0.6,"stretto":false,"stretto_voices":0,"combination":[],"aug_dim":"","rhythm_ratio":1.0,"mirror":false,"chromatic_density":0.154,"complexity":0.52,"dissonance":0.112},{"voice":0,"pitch":70,"start":75.9999,"duration":1.8333,"velocity":127,"measure":29,"beat":3.0,"subject_pos":-1,"motif":"","motif_pos":-1,"best_pos":2,"similarity":0.579,"stretto":false,"stretto_voices":0,"combination":[],"aug_dim":"","rhythm_ratio":1.0,"mirror":false,"chromatic_density":0.154,"complexity":0.52,"dissonance":0.112},{"voice":3,"pitch":43,"start":75.9999,"duration":1.0833,"velocity":127,"measure":29,"beat":3.0,"subject_pos":-1,"motif":"","motif_pos":-1,"best_pos":6,"similarity":0.464,"stretto":false,"stretto_voices":0,"combination":[],"aug_dim":"","rhythm_ratio":1.0,"mirror":false,"chromatic_density":0.154,"complexity":0.52,"dissonance":0.112},{"voice":1,"pitch":62,"start":76.4999,"duration":0.1667,"velocity":127,"measure":29,"beat":3.75,"subject_pos":-1,"motif":"","motif_pos":-1,"best_pos":3,"similarity":0.45,"stretto":false,"stretto_voices":0,"combination":[],"aug_dim":"","rhythm_ratio":1.0,"mirror":false,"chromatic_density":0.154,"complexity":0.52,"dissonance":0.112},{"voice":1,"pitch":67,"start":76.6666,"duration":0.5,"velocity":127,"measure":29,"beat":4.0,"subject_pos":-1,"motif":"","motif_pos":-1,"best_pos":1,"similarity":0.614,"stretto":false,"stretto_voices":0,"combination":[],"aug_dim":"","rhythm_ratio":1.0,"mirror":false,"chromatic_density":0.154,"complexity":0.52,"dissonance":0.112},{"voice":3,"pitch":41,"start":77.0833,"duration":0.0833,"velocity":127,"measure":29,"beat":4.625,"subject_pos":-1,"motif":"","motif_pos":-1,"best_pos":3,"similarity":0.471,"stretto":false,"stretto_voices":0,"combination":[],"aug_dim":"","rhythm_ratio":1.0,"mirror":false,"chromatic_density":0.154,"complexity":0.52,"dissonance":0.112},{"voice":1,"pitch":65,"start":77.1666,"duration":0.1667,"velocity":127,"measure":29,"beat":4.75,"subject_pos":-1,"motif":"","motif_pos":-1,"best_pos":2,"similarity":0.521,"stretto":false,"stretto_voices":0,"combination":[],"aug_dim":"","rhythm_ratio":1.0,"mirror":false,"chromatic_density":0.154,"complexity":0.52,"dissonance":0.112},{"voice":3,"pitch":40,"start":77.1666,"duration":0.0833,"velocity":127,"measure":29,"beat":4.75,"subject_pos":-1,"motif":"","motif_pos":-1,"best_pos":4,"similarity":0.407,"stretto":false,"stretto_voices":0,"combination":[],"aug_dim":"","rhythm_ratio":1.0,"mirror":false,"chromatic_density":0.154,"complexity":0.52,"dissonance":0.112},{"voice":3,"pitch":38,"start":77.2499,"duration":0.0833,"velocity":127,"measure":29,"beat":4.875,"subject_pos":-1,"motif":"","motif_pos":-1,"best_pos":2,"similarity":0.464,"stretto":false,"stretto_voices":0,"combination":[],"aug_dim":"","rhythm_ratio":1.0,"mirror":false,"chromatic_density":0.154,"complexity":0.52,"dissonance":0.112},{"voice":1,"pitch":64,"start":77.3333,"duration":1.8333,"velocity":127,"measure":30,"beat":1.0,"subject_pos":-1,"motif":"","motif_pos":-1,"best_pos":4,"similarity":0.389,"stretto":false,"stretto_voices":0,"combination":[],"aug_dim":"","rhythm_ratio":1.0,"mirror":false,"chromatic_density":0.308,"complexity":0.582,"dissonance":0.159},{"voice":3,"pitch":36,"start":77.3333,"duration":1.0833,"velocity":127,"measure":30,"beat":1.0,"subject_pos":-1,"motif":"","motif_pos":-1,"best_pos":3,"similarity":0.429,"stretto":false,"stretto_voices":0,"combination":[],"aug_dim":"","rhythm_ratio":1.0,"mirror":false,"chromatic_density":0.308,"complexity":0.582,"dissonance":0.159},{"voice":0,"pitch":67,"start":77.8333,"duration":0.1667,"velocity":127,"measure":30,"beat":1.75,"subject_pos":-1,"motif":"head","motif_pos":0,"best_pos":0,"similarity":1.0,"stretto":false,"stretto_voices":0,"combination":[],"aug_dim":"","rhythm_ratio":1.0,"mirror":false,"chromatic_density":0.308,"complexity":0.582,"dissonance":0.159},{"voice":0,"pitch":72,"start":77.9999,"duration":0.5,"velocity":127,"measure":30,"beat":2.0,"subject_pos":-1,"motif":"head","motif_pos":1,"best_pos":1,"similarity":1.0,"stretto":false,"stretto_voices":0,"combination":[],"aug_dim":"","rhythm_ratio":1.0,"mirror":false,"chromatic_density":0.308,"complexity":0.582,"dissonance":0.159},{"voice":3,"pitch":48,"start":78.4166,"duration":0.0833,"velocity":127,"measure":30,"beat":2.625,"subject_pos":-1,"motif":"","motif_pos":-1,"best_pos":4,"similarity":0.5,"stretto":false,"stretto_voices":0,"combination":[],"aug_dim":"","rhythm_ratio":1.0,"mirror":false,"chromatic_density":0.308,"complexity":0.582,"dissonance":0.159},{"voice":0,"pitch":70,"start":78.4999,"duration":0.1667,"velocity":127,"measure":30,"beat":2.75,"subject_pos":-1,"motif":"head","motif_pos":2,"best_pos":2,"similarity":1.0,"stretto":false,"stretto_voices":0,"combination":[],"aug_dim":"","rhythm_ratio":1.0,"mirror":false,"chromatic_density":0.308,"complexity":0.582,"dissonance":0.159},{"voice":3,"pitch":50,"start":78.4999,"duration":0.0833,"velocity":127,"measure":30,"beat":2.75,"subject_pos":-1,"motif":"","motif_pos":-1,"best_pos":5,"similarity":0.607,"stretto":false,"stretto_voices":0,"combination":[],"aug_dim":"","rhythm_ratio":1.0,"mirror":false,"chromatic_density":0.308,"complexity":0.582,"dissonance":0.159},{"voice":3,"pitch":52,"start":78.5833,"duration":0.0833,"velocity":127,"measure":30,"beat":2.875,"subject_pos":-1,"motif":"","motif_pos":-1,"best_pos":6,"similarity":0.643,"stretto":false,"stretto_voices":0,"combination":[],"aug_dim":"","rhythm_ratio":1.0,"mirror":false,"chromatic_density":0.308,"complexity":0.582,"dissonance":0.159},{"voice":0,"pitch":69,"start":78.6666,"duration":1.8333,"velocity":127,"measure":30,"beat":3.0,"subject_pos":-1,"motif":"head","motif_pos":3,"best_pos":3,"similarity":1.0,"stretto":false,"stretto_voices":0,"combination":[],"aug_dim":"","rhythm_ratio":1.0,"mirror":false,"chromatic_density":0.308,"complexity":0.582,"dissonance":0.159},{"voice":3,"pitch":53,"start":78.6666,"duration":1.0833,"velocity":127,"measure":30,"beat":3.0,"subject_pos":-1,"motif":"","motif_pos":-1,"best_pos":7,"similarity":0.464,"stretto":false,"stretto_voices":0,"combination":[],"aug_dim":"","rhythm_ratio":1.0,"mirror":false,"chromatic_density":0.308,"complexity":0.582,"dissonance":0.159},{"voice":1,"pitch":60,"start":79.1666,"duration":0.1667,"velocity":127,"measure":30,"beat":3.75,"subject_pos":-1,"motif":"","motif_pos":-1,"best_pos":2,"similarity":0.436,"stretto":false,"stretto_voices":0,"combination":[],"aug_dim":"","rhythm_ratio":1.0,"mirror":false,"chromatic_density":0.308,"complexity":0.582,"dissonance":0.159},{"voice":1,"pitch":65,"start":79.3333,"duration":0.5,"velocity":127,"measure":30,"beat":4.0,"subject_pos":-1,"motif":"","motif_pos":-1,"best_pos":1,"similarity":0.571,"stretto":false,"stretto_voices":0,"combination":[],"aug_dim":"","rhythm_ratio":1.0,"mirror":false,"chromatic_density":0.308,"complexity":0.582,"dissonance":0.159},{"voice":3,"pitch":52,"start":79.7499,"duration":0.0833,"velocity":127,"measure":30,"beat":4.625,"subject_pos":-1,"motif":"","motif_pos":-1,"best_pos":1,"similarity":0.393,"stretto":false,"stretto_voices":0,"combination":[],"aug_dim":"","rhythm_ratio":1.0,"mirror":false,"chromatic_density":0.308,"complexity":0.582,"dissonance":0.159},{"voice":1,"pitch":64,"start":79.8333,"duration":0.1667,"velocity":127,"measure":30,"beat":4.75,"subject_pos":-1,"motif":"","motif_pos":-1,"best_pos":2,"similarity":0.571,"stretto":false,"stretto_voices":0,"combination":[],"aug_dim":"","rhythm_ratio":1.0,"mirror":false,"chromatic_density":0.308,"complexity":0.582,"dissonance":0.159},{"voice":3,"pitch":50,"start":79.8333,"duration":0.0833,"velocity":127,"measure":30,"beat":4.75,"subject_pos":-1,"motif":"","motif_pos":-1,"best_pos":2,"similarity":0.518,"stretto":false,"stretto_voices":0,"combination":[],"aug_dim":"","rhythm_ratio":1.0,"mirror":false,"chromatic_density":0.308,"complexity":0.582,"dissonance":0.159},{"voice":3,"pitch":48,"start":79.9166,"duration":0.0833,"velocity":127,"measure":30,"beat":4.875,"subject_pos":-1,"motif":"","motif_pos":-1,"best_pos":2,"similarity":0.607,"stretto":false,"stretto_voices":0,"combination":[],"aug_dim":"","rhythm_ratio":1.0,"mirror":false,"chromatic_density":0.308,"complexity":0.582,"dissonance":0.159},{"voice":1,"pitch":62,"start":79.9999,"duration":2.0,"velocity":127,"measure":31,"beat":1.0,"subject_pos":-1,"motif":"","motif_pos":-1,"best_pos":3,"similarity":0.571,"stretto":false,"stretto_voices":0,"combination":[],"aug_dim":"","rhythm_ratio":1.0,"mirror":false,"chromatic_density":0.3,"complexity":0.645,"dissonance":0.125},{"voice":2,"pitch":50,"start":79.9999,"duration":1.3333,"velocity":127,"measure":31,"beat":1.0,"subject_pos":0,"motif":"subject","motif_pos":0,"best_pos":0,"similarity":1.0,"stretto":false,"stretto_voices":0,"combination":[],"aug_dim":"augmentation","rhythm_ratio":2.0,"mirror":false,"chromatic_density":0.3,"complexity":0.645,"dissonance":0.125},{"voice":3,"pitch":46,"start":79.9999,"duration":1.3333,"velocity":127,"measure":31,"beat":1.0,"subject_pos":-1,"motif":"","motif_pos":-1,"best_pos":3,"similarity":0.679,"stretto":false,"stretto_voices":0,"combination":[],"aug_dim":"","rhythm_ratio":1.0,"mirror":false,"chromatic_density":0.3,"complexity":0.645,"dissonance":0.125},{"voice":0,"pitch":67,"start":80.4999,"duration":0.0833,"velocity":127,"measure":31,"beat":1.75,"subject_pos":-1,"motif":"head","motif_pos":4,"best_pos":4,"similarity":1.0,"stretto":false,"stretto_voices":0,"combination":[],"aug_dim":"","rhythm_ratio":1.0,"mirror":false,"chromatic_density":0.3,"complexity":0.645,"dissonance":0.125},{"voice":0,"pitch":65,"start":80.5833,"duration":0.0833,"velocity":127,"measure":31,"beat":1.875,"subject_pos":-1,"motif":"","motif_pos":-1,"best_pos":4,"similarity":0.464,"stretto":false,"stretto_voices":0,"combination":[],"aug_dim":"","rhythm_ratio":1.0,"mirror":false,"chromatic_density":0.3,"complexity":0.645,"dissonance":0.125},{"voice":0,"pitch":67,"start":80.6666,"duration":0.5,"velocity":127,"measure":31,"beat":2.0,"subject_pos":-1,"motif":"","motif_pos":-1,"best_pos":3,"similarity":0.429,"stretto":false,"stretto_voices":0,"combination":[],"aug_dim":"","rhythm_ratio":1.0,"mirror":false,"chromatic_density":0.3,"complexity":0.645,"dissonance":0.125},{"voice":0,"pitch":64,"start":81.1666,"duration":0.1667,"velocity":127,"measure":31,"beat":2.75,"subject_pos":-1,"motif":"","motif_pos":-1,"best_pos":4,"similarity":0.579,"stretto":false,"stretto_voices":0,"combination":[],"aug_dim":"","rhythm_ratio":1.0,"mirror":false,"chromatic_density":0.3,"complexity":0.645,"dissonance":0.125},{"voice":0,"pitch":65,"start":81.3333,"duration":0.5,"velocity":127,"measure":31,"beat":3.0,"subject_pos":-1,"motif":"","motif_pos":-1,"best_pos":5,"similarity":0.621,"stretto":false,"stretto_voices":0,"combination":[],"aug_dim":"","rhythm_ratio":1.0,"mirror":false,"chromatic_density":0.3,"complexity":0.645,"dissonance":0.125},{"voice":2,"pitch":57,"start":81.3333,"duration":1.0,"velocity":127,"measure":31,"beat":3.0,"subject_pos":1,"motif":"subject","motif_pos":1,"best_pos":1,"similarity":1.0,"stretto":false,"stretto_voices":0,"combination":[],"aug_dim":"augmentation","rhythm_ratio":2.0,"mirror":false,"chromatic_density":0.3,"complexity":0.645,"dissonance":0.125},{"voice":3,"pitch":45,"start":81.3333,"duration":5.0,"velocity":127,"measure":31,"beat":3.0,"subject_pos":-1,"motif":"","motif_pos":-1,"best_pos":4,"similarity":0.661,"stretto":false,"stretto_voices":0,"combination":[],"aug_dim":"","rhythm_ratio":1.0,"mirror":false,"chromatic_density":0.3,"complexity":0.645,"dissonance":0.125},{"voice":0,"pitch":67,"start":81.8333,"duration":0.1667,"velocity":127,"measure":31,"beat":3.75,"subject_pos":-1,"motif":"","motif_pos":-1,"best_pos":6,"similarity":0.475,"stretto":false,"stretto_voices":0,"combination":[],"aug_dim":"","rhythm_ratio":1.0,"mirror":false,"chromatic_density":0.3,"complexity":0.645,"dissonance":0.125},{"voice":0,"pitch":64,"start":81.9999,"duration":1.1667,"velocity":127,"measure":31,"beat":4.0,"subject_pos":-1,"motif":"","motif_pos":-1,"best_pos":3,"similarity":0.521,"stretto":false,"stretto_voices":0,"combination":[],"aug_dim":"","rhythm_ratio":1.0,"mirror":false,"chromatic_density":0.3,"complexity":0.645,"dissonance":0.125},{"voice":1,"pitch":61,"start":81.9999,"duration":0.6667,"velocity":127,"measure":31,"beat":4.0,"subject_pos":-1,"motif":"","motif_pos":-1,"best_pos":4,"similarity":0.429,"stretto":false,"stretto_voices":0,"combination":[],"aug_dim":"","rhythm_ratio":1.0,"mirror":false,"chromatic_density":0.3,"complexity":0.645,"dissonance":0.125},{"voice":2,"pitch":55,"start":82.3333,"duration":0.3333,"velocity":127,"measure":31,"beat":4.5,"subject_pos":2,"motif":"subject","motif_pos":2,"best_pos":2,"similarity":1.0,"stretto":false,"stretto_voices":0,"combination":[],"aug_dim":"augmentation","rhythm_ratio":2.0,"mirror":false,"chromatic_density":0.3,"complexity":0.645,"dissonance":0.125},{"voice":1,"pitch":69,"start":82.6666,"duration":0.6667,"velocity":127,"measure":32,"beat":1.0,"subject_pos":0,"motif":"subject_inv","motif_pos":0,"best_pos":0,"similarity":1.0,"stretto":true,"stretto_voices":2,"combination":[],"aug_dim":"","rhythm_ratio":1.0,"mirror":false,"chromatic_density":0.417,"complexity":0.75,"dissonance":0.107},{"voice":2,"pitch":53,"start":82.6666,"duration":1.0,"velocity":127,"measure":32,"beat":1.0,"subject_pos":3,"motif":"subject","motif_pos":3,"best_pos":3,"similarity":1.0,"stretto":true,"stretto_voices":2,"combination":[],"aug_dim":"augmentation","rhythm_ratio":2.0,"mirror":false,"chromatic_density":0.417,"complexity":0.75,"dissonance":0.107},{"voice":0,"pitch":62,"start":83.1666,"duration":0.0833,"velocity":127,"measure":32,"beat":1.75,"subject_pos":-1,"motif":"tail","motif_pos":3,"best_pos":3,"similarity":1.0,"stretto":false,"stretto_voices":0,"combination":[],"aug_dim":"","rhythm_ratio":1.0,"mirror":false,"chromatic_density":0.417,"complexity":0.75,"dissonance":0.107},{"voice":0,"pitch":61,"start":83.2499,"duration":0.0833,"velocity":127,"measure":32,"beat":1.875,"subject_pos":-1,"motif":"tail","motif_pos":4,"best_pos":4,"similarity":1.0,"stretto":false,"stretto_voices":0,"combination":[],"aug_dim":"","rhythm_ratio":1.0,"mirror":false,"chromatic_density":0.417,"complexity":0.75,"dissonance":0.107},{"voice":0,"pitch":62,"start":83.3333,"duration":1.1667,"velocity":127,"measure":32,"beat":2.0,"subject_pos":-1,"motif":"tail","motif_pos":5,"best_pos":5,"similarity":1.0,"stretto":false,"stretto_voices":0,"combination":[],"aug_dim":"","rhythm_ratio":1.0,"mirror":false,"chromatic_density":0.417,"complexity":0.75,"dissonance":0.107},{"voice":1,"pitch":62,"start":83.3333,"duration":0.5,"velocity":127,"measure":32,"beat":2.0,"subject_pos":1,"motif":"subject_inv","motif_pos":1,"best_pos":1,"similarity":1.0,"stretto":true,"stretto_voices":2,"combination":[],"aug_dim":"","rhythm_ratio":1.0,"mirror":false,"chromatic_density":0.417,"complexity":0.75,"dissonance":0.107},{"voice":2,"pitch":52,"start":83.6666,"duration":0.3333,"velocity":127,"measure":32,"beat":2.5,"subject_pos":4,"motif":"subject","motif_pos":4,"best_pos":4,"similarity":1.0,"stretto":true,"stretto_voices":2,"combination":[],"aug_dim":"augmentation","rhythm_ratio":2.0,"mirror":false,"chromatic_density":0.417,"complexity":0.75,"dissonance":0.107},{"voice":1,"pitch":64,"start":83.8332,"duration":0.1667,"velocity":127,"measure":32,"beat":2.75,"subject_pos":2,"motif":"subject_inv","motif_pos":2,"best_pos":2,"similarity":1.0,"stretto":true,"stretto_voices":2,"combination":[],"aug_dim":"","rhythm_ratio":1.0,"mirror":false,"chromatic_density":0.417,"complexity":0.75,"dissonance":0.107},{"voice":1,"pitch":65,"start":83.9999,"duration":0.5,"velocity":127,"measure":32,"beat":3.0,"subject_pos":3,"motif":"subject_inv","motif_pos":3,"best_pos":3,"similarity":1.0,"stretto":true,"stretto_voices":2,"combination":[],"aug_dim":"","rhythm_ratio":1.0,"mirror":false,"chromatic_density":0.417,"complexity":0.75,"dissonance":0.107},{"voice":2,"pitch":50,"start":83.9999,"duration":1.3333,"velocity":127,"measure":32,"beat":3.0,"subject_pos":5,"motif":"subject","motif_pos":5,"best_pos":5,"similarity":1.0,"stretto":true,"stretto_voices":2,"combination":[],"aug_dim":"augmentation","rhythm_ratio":2.0,"mirror":false,"chromatic_density":0.417,"complexity":0.75,"dissonance":0.107},{"voice":0,"pitch":64,"start":84.4999,"duration":0.1667,"velocity":127,"measure":32,"beat":3.75,"subject_pos":-1,"motif":"tail","motif_pos":6,"best_pos":6,"similarity":1.0,"stretto":false,"stretto_voices":0,"combination":[],"aug_dim":"","rhythm_ratio":1.0,"mirror":false,"chromatic_density":0.417,"complexity":0.75,"dissonance":0.107},{"voice":1,"pitch":67,"start":84.4999,"duration":0.1667,"velocity":127,"measure":32,"beat":3.75,"subject_pos":4,"motif":"subject_inv","motif_pos":4,"best_pos":4,"similarity":1.0,"stretto":true,"stretto_voices":2,"combination":[],"aug_dim":"","rhythm_ratio":1.0,"mirror":false,"chromatic_density":0.417,"complexity":0.75,"dissonance":0.107},{"voice":0,"pitch":65,"start":84.6666,"duration":0.5,"velocity":127,"measure":32,"beat":4.0,"subject_pos":-1,"motif":"tail","motif_pos":7,"best_pos":7,"similarity":1.0,"stretto":false,"stretto_voices":0,"combination":[],"aug_dim":"","rhythm_ratio":1.0,"mirror":false,"chromatic_density":0.417,"complexity":0.75,"dissonance":0.107},{"voice":1,"pitch":69,"start":84.6666,"duration":0.6667,"velocity":127,"measure":32,"beat":4.0,"subject_pos":5,"motif":"subject_inv","motif_pos":5,"best_pos":5,"similarity":1.0,"stretto":true,"stretto_voices":2,"combination":[],"aug_dim":"","rhythm_ratio":1.0,"mirror":false,"chromatic_density":0.417,"complexity":0.75,"dissonance":0.107},{"voice":0,"pitch":62,"start":85.1666,"duration":0.1667,"velocity":127,"measure":32,"beat":4.75,"subject_pos":-1,"motif":"","motif_pos":-1,"best_pos":3,"similarity":0.343,"stretto":false,"stretto_voices":0,"combination":[],"aug_dim":"","rhythm_ratio":1.0,"mirror":false,"chromatic_density":0.417,"complexity":0.75,"dissonance":0.107},{"voice":0,"pitch":67,"start":85.3332,"duration":0.4167,"velocity":127,"measure":33,"beat":1.0,"subject_pos":-1,"motif":"","motif_pos":-1,"best_pos":1,"similarity":0.307,"stretto":false,"stretto_voices":0,"combination":[],"aug_dim":"","rhythm_ratio":1.0,"mirror":false,"chromatic_density":0.421,"complexity":0.673,"dissonance":0.168},{"voice":1,"pitch":70,"start":85.3332,"duration":0.6667,"velocity":127,"measure":33,"beat":1.0,"subject_pos":6,"motif":"subject_inv","motif_pos":6,"best_pos":6,"similarity":1.0,"stretto":true,"stretto_voices":2,"combination":[],"aug_dim":"","rhythm_ratio":1.0,"mirror":false,"chromatic_density":0.421,"complexity":0.673,"dissonance":0.168},{"voice":2,"pitch":49,"start":85.3332,"duration":1.3333,"velocity":127,"measure":33,"beat":1.0,"subject_pos":6,"motif":"subject","motif_pos":6,"best_pos":6,"similarity":1.0,"stretto":true,"stretto_voices":2,"combination":[],"aug_dim":"augmentation","rhythm_ratio":2.0,"mirror":false,"chromatic_density":0.421,"complexity":0.673,"dissonance":0.168},{"voice":0,"pitch":76,"start":85.7499,"duration":0.0833,"velocity":127,"measure":33,"beat":1.625,"subject_pos":-1,"motif":"","motif_pos":-1,"best_pos":4,"similarity":0.471,"stretto":false,"stretto_voices":0,"combination":[],"aug_dim":"","rhythm_ratio":1.0,"mirror":false,"chromatic_density":0.421,"complexity":0.673,"dissonance":0.168},{"voice":0,"pitch":77,"start":85.8332,"duration":0.0833,"velocity":127,"measure":33,"beat":1.75,"subject_pos":-1,"motif":"","motif_pos":-1,"best_pos":5,"similarity":0.586,"stretto":false,"stretto_voices":0,"combination":[],"aug_dim":"","rhythm_ratio":1.0,"mirror":false,"chromatic_density":0.421,"complexity":0.673,"dissonance":0.168},{"voice":0,"pitch":79,"start":85.9166,"duration":0.0833,"velocity":127,"measure":33,"beat":1.875,"subject_pos":-1,"motif":"","motif_pos":-1,"best_pos":6,"similarity":0.457,"stretto":false,"stretto_voices":0,"combination":[],"aug_dim":"","rhythm_ratio":1.0,"mirror":false,"chromatic_density":0.421,"complexity":0.673,"dissonance":0.168},{"voice":0,"pitch":77,"start":85.9999,"duration":0.5,"velocity":127,"measure":33,"beat":2.0,"subject_pos":-1,"motif":"","motif_pos":-1,"best_pos":3,"similarity":0.471,"stretto":false,"stretto_voices":0,"combination":[],"aug_dim":"","rhythm_ratio":1.0,"mirror":false,"chromatic_density":0.421,"complexity":0.673,"dissonance":0.168},{"voice":1,"pitch":69,"start":85.9999,"duration":0.5,"velocity":127,"measure":33,"beat":2.0,"subject_pos":7,"motif":"subject_inv","motif_pos":7,"best_pos":7,"similarity":1.0,"stretto":true,"stretto_voices":2,"combination":[],"aug_dim":"","rhythm_ratio":1.0,"mirror":false,"chromatic_density":0.421,"complexity":0.673,"dissonance":0.168},{"voice":3,"pitch":45,"start":86.3332,"duration":0.3333,"velocity":127,"measure":33,"beat":2.5,"subject_pos":-1,"motif":"","motif_pos":-1,"best_pos":4,"similarity":0.557,"stretto":false,"stretto_voices":0,"combination":[],"aug_dim":"","rhythm_ratio":1.0,"mirror":false,"chromatic_density":0.421,"complexity":0.673,"dissonance":0.168},{"voice":0,"pitch":76,"start":86.4999,"duration":0.1667,"velocity":127,"measure":33,"beat":2.75,"subject_pos":-1,"motif":"","motif_pos":-1,"best_pos":4,"similarity":0.414,"stretto":false,"stretto_voices":0,"combination":[],"aug_dim":"","rhythm_ratio":1.0,"mirror":false,"chromatic_density":0.421,"complexity":0.673,"dissonance":0.168},{"voice":1,"pitch":67,"start":86.4999,"duration":0.1667,"velocity":127,"measure":33,"beat":2.75,"subject_pos":8,"motif":"subject_inv","motif_pos":8,"best_pos":0,"similarity":1.0,"stretto":true,"stretto_voices":2,"combination":[],"aug_dim":"","rhythm_ratio":1.0,"mirror":false,"chromatic_density":0.421,"complexity":0.673,"dissonance":0.168},{"voice":0,"pitch":74,"start":86.6666,"duration":0.5,"velocity":127,"measure":33,"beat":3.0,"subject_pos":-1,"motif":"","motif_pos":-1,"best_pos":2,"similarity":0.518,"stretto":false,"stretto_voices":0,"combination":[],"aug_dim":"","rhythm_ratio":1.0,"mirror":false,"chromatic_density":0.421,"complexity":0.673,"dissonance":0.168},{"voice":1,"pitch":65,"start":86.6666,"duration":0.8333,"velocity":127,"measure":33,"beat":3.0,"subject_pos":-1,"motif":"","motif_pos":-1,"best_pos":3,"similarity":0.786,"stretto":false,"stretto_voices":0,"combination":[],"aug_dim":"","rhythm_ratio":1.0,"mirror":false,"chromatic_density":0.421,"complexity":0.673,"dissonance":0.168},{"voice":2,"pitch":50,"start":86.6666,"duration":1.0,"velocity":127,"measure":33,"beat":3.0,"subject_pos":7,"motif":"subject","motif_pos":7,"best_pos":7,"similarity":1.0,"stretto":false,"stretto_voices":0,"combination":[],"aug_dim":"augmentation","rhythm_ratio":2.0,"mirror":false,"chromatic_density":0.421,"complexity":0.673,"dissonance":0.168},{"voice":3,"pitch":46,"start":86.6666,"duration":0.5,"velocity":127,"measure":33,"beat":3.0,"subject_pos":-1,"motif":"","motif_pos":-1,"best_pos":5,"similarity":0.418,"stretto":false,"stretto_voices":0,"combination":[],"aug_dim":"","rhythm_ratio":1.0,"mirror":false,"chromatic_density":0.421,"complexity":0.673,"dissonance":0.168},{"voice":0,"pitch":72,"start":87.1666,"duration":0.1667,"velocity":127,"measure":33,"beat":3.75,"subject_pos":-1,"motif":"","motif_pos":-1,"best_pos":2,"similarity":0.579,"stretto":false,"stretto_voices":0,"combination":[],"aug_dim":"","rhythm_ratio":1.0,"mirror":false,"chromatic_density":0.421,"complexity":0.673,"dissonance":0.168},{"voice":3,"pitch":45,"start":87.1666,"duration":0.1667,"velocity":127,"measure":33,"beat":3.75,"subject_pos":-1,"motif":"","motif_pos":-1,"best_pos":2,"similarity":0.407,"stretto":false,"stretto_voices":0,"combination":[],"aug_dim":"","rhythm_ratio":1.0,"mirror":false,"chromatic_density":0.421,"complexity":0.673,"dissonance":0.168},{"voice":0,"pitch":70,"start":87.3332,"duration":0.6667,"velocity":127,"measure":33,"beat":4.0,"subject_pos":-1,"motif":"","motif_pos":-1,"best_pos":3,"similarity":0.586,"stretto":false,"stretto_voices":0,"combination":[],"aug_dim":"","rhythm_ratio":1.0,"mirror":false,"chromatic_density":0.421,"complexity":0.673,"dissonance":0.168},{"voice":3,"pitch":43,"start":87.3332,"duration":0.6667,"velocity":127,"measure":33,"beat":4.0,"subject_pos":-1,"motif":"","motif_pos":-1,"best_pos":3,"similarity":0.507,"stretto":false,"stretto_voices":0,"combination":[],"aug_dim":"","rhythm_ratio":1.0,"mirror":false,"chromatic_density":0.421,"complexity":0.673,"dissonance":0.168},{"voice":1,"pitch":64,"start":87.4999,"duration":0.1667,"velocity":127,"measure":33,"beat":4.25,"subject_pos":-1,"motif":"","motif_pos":-1,"best_pos":4,"similarity":0.893,"stretto":false,"stretto_voices":0,"combination":[],"aug_dim":"","rhythm_ratio":1.0,"mirror":false,"chromatic_density":0.421,"complexity":0.673,"dissonance":0.168},{"voice":1,"pitch":65,"start":87.6666,"duration":0.1667,"velocity":127,"measure":33,"beat":4.5,"subject_pos":-1,"motif":"","motif_pos":-1,"best_pos":5,"similarity":0.821,"stretto":false,"stretto_voices":0,"combination":[],"aug_dim":"","rhythm_ratio":1.0,"mirror":false,"chromatic_density":0.421,"complexity":0.673,"dissonance":0.168},{"voice":2,"pitch":52,"start":87.6666,"duration":0.3333,"velocity":127,"measure":33,"beat":4.5,"subject_pos":8,"motif":"subject","motif_pos":8,"best_pos":0,"similarity":1.0,"stretto":false,"stretto_voices":0,"combination":[],"aug_dim":"augmentation","rhythm_ratio":2.0,"mirror":false,"chromatic_density":0.421,"complexity":0.673,"dissonance":0.168},{"voice":1,"pitch":67,"start":87.8332,"duration":0.1667,"velocity":127,"measure":33,"beat":4.75,"subject_pos":-1,"motif":"","motif_pos":-1,"best_pos":6,"similarity":0.643,"stretto":false,"stretto_voices":0,"combination":[],"aug_dim":"","rhythm_ratio":1.0,"mirror":false,"chromatic_density":0.421,"complexity":0.673,"dissonance":0.168},{"voice":0,"pitch":69,"start":87.9999,"duration":0.3333,"velocity":127,"measure":34,"beat":1.0,"subject_pos":-1,"motif":"","motif_pos":-1,"best_pos":4,"similarity":0.493,"stretto":false,"stretto_voices":0,"combination":[],"aug_dim":"","rhythm_ratio":1.0,"mirror":false,"chromatic_density":0.2,"complexity":0.626,"dissonance":0.033},{"voice":1,"pitch":69,"start":87.9999,"duration":0.5,"velocity":127,"measure":34,"beat":1.0,"subject_pos":-1,"motif":"","motif_pos":-1,"best_pos":6,"similarity":0.661,"stretto":false,"stretto_voices":0,"combination":[],"aug_dim":"","rhythm_ratio":1.0,"mirror":false,"chromatic_density":0.2,"complexity":0.626,"dissonance":0.033},{"voice":2,"pitch":53,"start":87.9999,"duration":1.8333,"velocity":127,"measure":34,"beat":1.0,"subject_pos":-1,"motif":"","motif_pos":-1,"best_pos":5,"similarity":0.607,"stretto":false,"stretto_voices":0,"combination":[],"aug_dim":"","rhythm_ratio":1.0,"mirror":false,"chromatic_density":0.2,"complexity":0.626,"dissonance":0.033},{"voice":3,"pitch":41,"start":87.9999,"duration":0.5,"velocity":127,"measure":34,"beat":1.0,"subject_pos":-1,"motif":"","motif_pos":-1,"best_pos":4,"similarity":0.607,"stretto":false,"stretto_voices":0,"combination":[],"aug_dim":"","rhythm_ratio":1.0,"mirror":false,"chromatic_density":0.2,"complexity":0.626,"dissonance":0.033},{"voice":1,"pitch":70,"start":88.4999,"duration":0.1667,"velocity":127,"measure":34,"beat":1.75,"subject_pos":-1,"motif":"","motif_pos":-1,"best_pos":5,"similarity":0.657,"stretto":false,"stretto_voices":0,"combination":[],"aug_dim":"","rhythm_ratio":1.0,"mirror":false,"chromatic_density":0.2,"complexity":0.626,"dissonance":0.033},{"voice":3,"pitch":43,"start":88.4999,"duration":0.1667,"velocity":127,"measure":34,"beat":1.75,"subject_pos":-1,"motif":"","motif_pos":-1,"best_pos":5,"similarity":0.679,"stretto":false,"stretto_voices":0,"combination":[],"aug_dim":"","rhythm_ratio":1.0,"mirror":false,"chromatic_density":0.2,"complexity":0.626,"dissonance":0.033},{"voice":1,"pitch":72,"start":88.6666,"duration":0.5,"velocity":127,"measure":34,"beat":2.0,"subject_pos":-1,"motif":"","motif_pos":-1,"best_pos":6,"similarity":0.579,"stretto":false,"stretto_voices":0,"combination":[],"aug_dim":"","rhythm_ratio":1.0,"mirror":false,"chromatic_density":0.2,"complexity":0.626,"dissonance":0.033},{"voice":3,"pitch":45,"start":88.6666,"duration":0.5,"velocity":127,"measure":34,"beat":2.0,"subject_pos":-1,"motif":"","motif_pos":-1,"best_pos":6,"similarity":0.679,"stretto":false,"stretto_voices":0,"combination":[],"aug_dim":"","rhythm_ratio":1.0,"mirror":false,"chromatic_density":0.2,"complexity":0.626,"dissonance":0.033},{"voice":1,"pitch":74,"start":89.1666,"duration":0.1667,"velocity":127,"measure":34,"beat":2.75,"subject_pos":-1,"motif":"","motif_pos":-1,"best_pos":6,"similarity":0.375,"stretto":false,"stretto_voices":0,"combination":[],"aug_dim":"","rhythm_ratio":1.0,"mirror":false,"chromatic_density":0.2,"complexity":0.626,"dissonance":0.033},{"voice":3,"pitch":46,"start":89.1666,"duration":0.1667,"velocity":127,"measure":34,"beat":2.75,"subject_pos":-1,"motif":"","motif_pos":-1,"best_pos":5,"similarity":0.657,"stretto":false,"stretto_voices":0,"combination":[],"aug_dim":"","rhythm_ratio":1.0,"mirror":false,"chromatic_density":0.2,"complexity":0.626,"dissonance":0.033},{"voice":1,"pitch":67,"start":89.3332,"duration":0.5,"velocity":127,"measure":34,"beat":3.0,"subject_pos":-1,"motif":"","motif_pos":-1,"best_pos":0,"similarity":0.186,"stretto":false,"stretto_voices":0,"combination":[],"aug_dim":"","rhythm_ratio":1.0,"mirror":false,"chromatic_density":0.2,"complexity":0.626,"dissonance":0.033},{"voice":3,"pitch":48,"start":89.3332,"duration":2.3333,"velocity":127,"measure":34,"beat":3.0,"subject_pos":-1,"motif":"","motif_pos":-1,"best_pos":6,"similarity":0.579,"stretto":false,"stretto_voices":0,"combination":[],"aug_dim":"","rhythm_ratio":1.0,"mirror":false,"chromatic_density":0.2,"complexity":0.626,"dissonance":0.033},{"voice":1,"pitch":75,"start":89.8332,"duration":0.1667,"velocity":127,"measure":34,"beat":3.75,"subject_pos":-1,"motif":"","motif_pos":-1,"best_pos":1,"similarity":0.236,"stretto":false,"stretto_voices":0,"combination":[],"aug_dim":"","rhythm_ratio":1.0,"mirror":false,"chromatic_density":0.2,"complexity":0.626,"dissonance":0.033},{"voice":2,"pitch":55,"start":89.8332,"duration":0.1667,"velocity":127,"measure":34,"beat":3.75,"subject_pos":-1,"motif":"","motif_pos":-1,"best_pos":6,"similarity":0.464,"stretto":false,"stretto_voices":0,"combination":[],"aug_dim":"","rhythm_ratio":1.0,"mirror":false,"chromatic_density":0.2,"complexity":0.626,"dissonance":0.033},{"voice":1,"pitch":69,"start":89.9999,"duration":0.5,"velocity":127,"measure":34,"beat":4.0,"subject_pos":-1,"motif":"","motif_pos":-1,"best_pos":4,"similarity":0.436,"stretto":false,"stretto_voices":0,"combination":[],"aug_dim":"","rhythm_ratio":1.0,"mirror":false,"chromatic_density":0.2,"complexity":0.626,"dissonance":0.033},{"voice":2,"pitch":53,"start":89.9999,"duration":0.5,"velocity":127,"measure":34,"beat":4.0,"subject_pos":-1,"motif":"","motif_pos":-1,"best_pos":2,"similarity":0.593,"stretto":false,"stretto_voices":0,"combination":[],"aug_dim":"","rhythm_ratio":1.0,"mirror":false,"chromatic_density":0.2,"complexity":0.626,"dissonance":0.033},{"voice":1,"pitch":70,"start":90.4999,"duration":0.0833,"velocity":127,"measure":34,"beat":4.75,"subject_pos":-1,"motif":"","motif_pos":-1,"best_pos":5,"similarity":0.571,"stretto":false,"stretto_voices":0,"combination":[],"aug_dim":"","rhythm_ratio":1.0,"mirror":false,"chromatic_density":0.2,"complexity":0.626,"dissonance":0.033},{"voice":2,"pitch":51,"start":90.4999,"duration":0.1667,"velocity":127,"measure":34,"beat":4.75,"subject_pos":-1,"motif":"","motif_pos":-1,"best_pos":3,"similarity":0.629,"stretto":false,"stretto_voices":0,"combination":[],"aug_dim":"","rhythm_ratio":1.0,"mirror":false,"chromatic_density":0.2,"complexity":0.626,"dissonance":0.033},{"voice":1,"pitch":72,"start":90.5832,"duration":0.0833,"velocity":127,"measure":34,"beat":4.875,"subject_pos":-1,"motif":"","motif_pos":-1,"best_pos":6,"similarity":0.429,"stretto":false,"stretto_voices":0,"combination":[],"aug_dim":"","rhythm_ratio":1.0,"mirror":false,"chromatic_density":0.2,"complexity":0.626,"dissonance":0.033},{"voice":0,"pitch":74,"start":90.6666,"duration":1.3333,"velocity":127,"measure":35,"beat":1.0,"subject_pos":0,"motif":"subject_inv","motif_pos":0,"best_pos":0,"similarity":1.0,"stretto":false,"stretto_voices":0,"combination":[],"aug_dim":"augmentation","rhythm_ratio":2.0,"mirror":false,"chromatic_density":0.231,"complexity":0.683,"dissonance":0.11},{"voice":1,"pitch":66,"start":90.6666,"duration":0.5,"velocity":127,"measure":35,"beat":1.0,"subject_pos":-1,"motif":"","motif_pos":-1,"best_pos":7,"similarity":0.214,"stretto":false,"stretto_voices":0,"combination":[],"aug_dim":"","rhythm_ratio":1.0,"mirror":false,"chromatic_density":0.231,"complexity":0.683,"dissonance":0.11},{"voice":2,"pitch":50,"start":90.6666,"duration":0.5,"velocity":127,"measure":35,"beat":1.0,"subject_pos":-1,"motif":"","motif_pos":-1,"best_pos":4,"similarity":0.564,"stretto":false,"stretto_voices":0,"combination":[],"aug_dim":"","rhythm_ratio":1.0,"mirror":false,"chromatic_density":0.231,"complexity":0.683,"dissonance":0.11},{"voice":1,"pitch":69,"start":91.1666,"duration":0.1667,"velocity":127,"measure":35,"beat":1.75,"subject_pos":-1,"motif":"","motif_pos":-1,"best_pos":3,"similarity":0.186,"stretto":false,"stretto_voices":0,"combination":[],"aug_dim":"","rhythm_ratio":1.0,"mirror":false,"chromatic_density":0.231,"complexity":0.683,"dissonance":0.11},{"voice":2,"pitch":54,"start":91.1666,"duration":0.1667,"velocity":127,"measure":35,"beat":1.75,"subject_pos":-1,"motif":"","motif_pos":-1,"best_pos":4,"similarity":0.607,"stretto":false,"stretto_voices":0,"combination":[],"aug_dim":"","rhythm_ratio":1.0,"mirror":false,"chromatic_density":0.231,"complexity":0.683,"dissonance":0.11},{"voice":1,"pitch":62,"start":91.3332,"duration":1.1667,"velocity":127,"measure":35,"beat":2.0,"subject_pos":-1,"motif":"","motif_pos":-1,"best_pos":4,"similarity":0.339,"stretto":false,"stretto_voices":0,"combination":[],"aug_dim":"","rhythm_ratio":1.0,"mirror":false,"chromatic_density":0.231,"complexity":0.683,"dissonance":0.11},{"voice":2,"pitch":55,"start":91.3332,"duration":0.5,"velocity":127,"measure":35,"beat":2.0,"subject_pos":-1,"motif":"","motif_pos":-1,"best_pos":5,"similarity":0.732,"stretto":false,"stretto_voices":0,"combination":[],"aug_dim":"","rhythm_ratio":1.0,"mirror":false,"chromatic_density":0.231,"complexity":0.683,"dissonance":0.11},{"voice":3,"pitch":48,"start":91.6666,"duration":0.3333,"velocity":127,"measure":35,"beat":2.5,"subject_pos":-1,"motif":"","motif_pos":-1,"best_pos":2,"similarity":0.379,"stretto":false,"stretto_voices":0,"combination":[],"aug_dim":"","rhythm_ratio":1.0,"mirror":false,"chromatic_density":0.231,"complexity":0.683,"dissonance":0.11},{"voice":2,"pitch":57,"start":91.8332,"duration":0.1667,"velocity":127,"measure":35,"beat":2.75,"subject_pos":-1,"motif":"","motif_pos":-1,"best_pos":6,"similarity":0.714,"stretto":false,"stretto_voices":0,"combination":[],"aug_dim":"","rhythm_ratio":1.0,"mirror":false,"chromatic_density":0.231,"complexity":0.683,"dissonance":0.11},{"voice":0,"pitch":67,"start":91.9999,"duration":1.0,"velocity":127,"measure":35,"beat":3.0,"subject_pos":1,"motif":"subject_inv","motif_pos":1,"best_pos":1,"similarity":1.0,"stretto":false,"stretto_voices":0,"combination":[],"aug_dim":"augmentation","rhythm_ratio":2.0,"mirror":false,"chromatic_density":0.231,"complexity":0.683,"dissonance":0.11},{"voice":2,"pitch":58,"start":91.9999,"duration":0.6667,"velocity":127,"measure":35,"beat":3.0,"subject_pos":-1,"motif":"","motif_pos":-1,"best_pos":5,"similarity":0.664,"stretto":false,"stretto_voices":0,"combination":[],"aug_dim":"","rhythm_ratio":1.0,"mirror":false,"chromatic_density":0.231,"complexity":0.683,"dissonance":0.11},{"voice":3,"pitch":46,"start":91.9999,"duration":1.0,"velocity":127,"measure":35,"beat":3.0,"subject_pos":-1,"motif":"","motif_pos":-1,"best_pos":3,"similarity":0.486,"stretto":false,"stretto_voices":0,"combination":[],"aug_dim":"","rhythm_ratio":1.0,"mirror":false,"chromatic_density":0.231,"complexity":0.683,"dissonance":0.11},{"voice":1,"pitch":62,"start":92.4999,"duration":0.1667,"velocity":127,"measure":35,"beat":3.75,"subject_pos":-1,"motif":"","motif_pos":-1,"best_pos":4,"similarity":0.514,"stretto":false,"stretto_voices":0,"combination":[],"aug_dim":"","rhythm_ratio":1.0,"mirror":false,"chromatic_density":0.231,"complexity":0.683,"dissonance":0.11},{"voice":1,"pitch":64,"start":92.6666,"duration":0.5,"velocity":127,"measure":35,"beat":4.0,"subject_pos":-1,"motif":"","motif_pos":-1,"best_pos":5,"similarity":0.65,"stretto":false,"stretto_voices":0,"combination":[],"aug_dim":"","rhythm_ratio":1.0,"mirror":false,"chromatic_density":0.231,"complexity":0.683,"dissonance":0.11},{"voice":2,"pitch":60,"start":92.6666,"duration":0.6667,"velocity":127,"measure":35,"beat":4.0,"subject_pos":-1,"motif":"","motif_pos":-1,"best_pos":6,"similarity":0.579,"stretto":false,"stretto_voices":0,"combination":[],"aug_dim":"","rhythm_ratio":1.0,"mirror":false,"chromatic_density":0.231,"complexity":0.683,"dissonance":0.11},{"voice":0,"pitch":69,"start":92.9999,"duration":0.3333,"velocity":127,"measure":35,"beat":4.5,"subject_pos":2,"motif":"subject_inv","motif_pos":2,"best_pos":2,"similarity":1.0,"stretto":false,"stretto_voices":0,"combination":[],"aug_dim":"augmentation","rhythm_ratio":2.0,"mirror":false,"chromatic_density":0.231,"complexity":0.683,"dissonance":0.11},{"voice":3,"pitch":45,"start":92.9999,"duration":0.3333,"velocity":127,"measure":35,"beat":4.5,"subject_pos":-1,"motif":"","motif_pos":-1,"best_pos":4,"similarity":0.411,"stretto":false,"stretto_voices":0,"combination":[],"aug_dim":"","rhythm_ratio":1.0,"mirror":false,"chromatic_density":0.231,"complexity":0.683,"dissonance":0.11},{"voice":1,"pitch":66,"start":93.1666,"duration":0.1667,"velocity":127,"measure":35,"beat":4.75,"subject_pos":-1,"motif":"","motif_pos":-1,"best_pos":6,"similarity":0.679,"stretto":false,"stretto_voices":0,"combination":[],"aug_dim":"","rhythm_ratio":1.0,"mirror":false,"chromatic_density":0.231,"complexity":0.683,"dissonance":0.11},{"voice":0,"pitch":70,"start":93.3332,"duration":1.0,"velocity":127,"measure":36,"beat":1.0,"subject_pos":3,"motif":"subject_inv","motif_pos":3,"best_pos":3,"similarity":1.0,"stretto":false,"stretto_voices":0,"combination":[],"aug_dim":"augmentation","rhythm_ratio":2.0,"mirror":false,"chromatic_density":0.286,"complexity":0.761,"dissonance":0.145},{"voice":1,"pitch":67,"start":93.3332,"duration":0.5,"velocity":127,"measure":36,"beat":1.0,"subject_pos":-1,"motif":"tail","motif_pos":3,"best_pos":3,"similarity":1.0,"stretto":false,"stretto_voices":0,"combination":[],"aug_dim":"","rhythm_ratio":1.0,"mirror":false,"chromatic_density":0.286,"complexity":0.761,"dissonance":0.145},{"voice":2,"pitch":62,"start":93.3332,"duration":0.8333,"velocity":127,"measure":36,"beat":1.0,"subject_pos":-1,"motif":"","motif_pos":-1,"best_pos":1,"similarity":0.457,"stretto":false,"stretto_voices":0,"combination":[],"aug_dim":"","rhythm_ratio":1.0,"mirror":false,"chromatic_density":0.286,"complexity":0.761,"dissonance":0.145},{"voice":3,"pitch":43,"start":93.3332,"duration":0.6667,"velocity":127,"measure":36,"beat":1.0,"subject_pos":0,"motif":"subject","motif_pos":0,"best_pos":0,"similarity":1.0,"stretto":false,"stretto_voices":0,"combination":[],"aug_dim":"","rhythm_ratio":1.0,"mirror":false,"chromatic_density":0.286,"complexity":0.761,"dissonance":0.145},{"voice":1,"pitch":66,"start":93.8332,"duration":0.1667,"velocity":127,"measure":36,"beat":1.75,"subject_pos":-1,"motif":"tail","motif_pos":4,"best_pos":4,"similarity":1.0,"stretto":false,"stretto_voices":0,"combination":[],"aug_dim":"","rhythm_ratio":1.0,"mirror":false,"chromatic_density":0.286,"complexity":0.761,"dissonance":0.145},{"voice":1,"pitch":67,"start":93.9999,"duration":0.5,"velocity":127,"measure":36,"beat":2.0,"subject_pos":-1,"motif":"tail","motif_pos":5,"best_pos":5,"similarity":1.0,"stretto":false,"stretto_voices":0,"combination":[],"aug_dim":"","rhythm_ratio":1.0,"mirror":false,"chromatic_density":0.286,"complexity":0.761,"dissonance":0.145},{"voice":3,"pitch":50,"start":93.9999,"duration":0.5,"velocity":127,"measure":36,"beat":2.0,"subject_pos":1,"motif":"subject","motif_pos":1,"best_pos":1,"similarity":1.0,"stretto":false,"stretto_voices":0,"combination":[],"aug_dim":"","rhythm_ratio":1.0,"mirror":false,"chromatic_density":0.286,"complexity":0.761,"dissonance":0.145},{"voice":2,"pitch":60,"start":94.1666,"duration":0.1667,"velocity":127,"measure":36,"beat":2.25,"subject_pos":-1,"motif":"","motif_pos":-1,"best_pos":2,"similarity":0.593,"stretto":false,"stretto_voices":0,"combination":[],"aug_dim":"","rhythm_ratio":1.0,"mirror":false,"chromatic_density":0.286,"complexity":0.761,"dissonance":0.145},{"voice":0,"pitch":72,"start":94.3332,"duration":0.3333,"velocity":127,"measure":36,"beat":2.5,"subject_pos":4,"motif":"subject_inv","motif_pos":4,"best_pos":4,"similarity":1.0,"stretto":false,"stretto_voices":0,"combination":[],"aug_dim":"augmentation","rhythm_ratio":2.0,"mirror":false,"chromatic_density":0.286,"complexity":0.761,"dissonance":0.145},{"voice":2,"pitch":58,"start":94.3332,"duration":0.1667,"velocity":127,"measure":36,"beat":2.5,"subject_pos":-1,"motif":"","motif_pos":-1,"best_pos":3,"similarity":0.593,"stretto":false,"stretto_voices":0,"combination":[],"aug_dim":"","rhythm_ratio":1.0,"mirror":false,"chromatic_density":0.286,"complexity":0.761,"dissonance":0.145},{"voice":1,"pitch":69,"start":94.4999,"duration":0.1667,"velocity":127,"measure":36,"beat":2.75,"subject_pos":-1,"motif":"tail","motif_pos":6,"best_pos":6,"similarity":1.0,"stretto":false,"stretto_voices":0,"combination":[],"aug_dim":"","rhythm_ratio":1.0,"mirror":false,"chromatic_density":0.286,"complexity":0.761,"dissonance":0.145},{"voice":2,"pitch":57,"start":94.4999,"duration":0.1667,"velocity":127,"measure":36,"beat":2.75,"subject_pos":-1,"motif":"","motif_pos":-1,"best_pos":4,"similarity":0.457,"stretto":false,"stretto_voices":0,"combination":[],"aug_dim":"","rhythm_ratio":1.0,"mirror":false,"chromatic_density":0.286,"complexity":0.761,"dissonance":0.145},{"voice":3,"pitch":48,"start":94.4999,"duration":0.1667,"velocity":127,"measure":36,"beat":2.75,"subject_pos":2,"motif":"subject","motif_pos":2,"best_pos":2,"similarity":1.0,"stretto":false,"stretto_voices":0,"combination":[],"aug_dim":"","rhythm_ratio":1.0,"mirror":false,"chromatic_density":0.286,"complexity":0.761,"dissonance":0.145},{"voice":0,"pitch":74,"start":94.6666,"duration":1.3333,"velocity":127,"measure":36,"beat":3.0,"subject_pos":5,"motif":"subject_inv","motif_pos":5,"best_pos":5,"similarity":1.0,"stretto":false,"stretto_voices":0,"combination":[],"aug_dim":"augmentation","rhythm_ratio":2.0,"mirror":false,"chromatic_density":0.286,"complexity":0.761,"dissonance":0.145},{"voice":1,"pitch":70,"start":94.6666,"duration":0.5,"velocity":127,"measure":36,"beat":3.0,"subject_pos":-1,"motif":"tail","motif_pos":7,"best_pos":7,"similarity":1.0,"stretto":false,"stretto_voices":0,"combination":[],"aug_dim":"","rhythm_ratio":1.0,"mirror":false,"chromatic_density":0.286,"complexity":0.761,"dissonance":0.145},{"voice":2,"pitch":55,"start":94.6666,"duration":0.6667,"velocity":127,"measure":36,"beat":3.0,"subject_pos":-1,"motif":"","motif_pos":-1,"best_pos":2,"similarity":0.321,"stretto":false,"stretto_voices":0,"combination":[],"aug_dim":"","rhythm_ratio":1.0,"mirror":false,"chromatic_density":0.286,"complexity":0.761,"dissonance":0.145},{"voice":3,"pitch":46,"start":94.6666,"duration":0.5,"velocity":127,"measure":36,"beat":3.0,"subject_pos":3,"motif":"subject","motif_pos":3,"best_pos":3,"similarity":1.0,"stretto":false,"stretto_voices":0,"combination":[],"aug_dim":"","rhythm_ratio":1.0,"mirror":false,"chromatic_density":0.286,"complexity":0.761,"dissonance":0.145},{"voice":1,"pitch":72,"start":95.1666,"duration":0.0833,"velocity":127,"measure":36,"beat":3.75,"subject_pos":-1,"motif":"","motif_pos":-1,"best_pos":6,"similarity":0.579,"stretto":false,"stretto_voices":0,"combination":[],"aug_dim":"","rhythm_ratio":1.0,"mirror":false,"chromatic_density":0.286,"complexity":0.761,"dissonance":0.145},{"voice":3,"pitch":45,"start":95.1666,"duration":0.1667,"velocity":127,"measure":36,"beat":3.75,"subject_pos":4,"motif":"subject","motif_pos":4,"best_pos":4,"similarity":1.0,"stretto":false,"stretto_voices":0,"combination":[],"aug_dim":"","rhythm_ratio":1.0,"mirror":false,"chromatic_density":0.286,"complexity":0.761,"dissonance":0.145},{"voice":1,"pitch":74,"start":95.2499,"duration":0.0833,"velocity":127,"measure":36,"beat":3.875,"subject_pos":-1,"motif":"","motif_pos":-1,"best_pos":1,"similarity":0.457,"stretto":false,"stretto_voices":0,"combination":[],"aug_dim":"","rhythm_ratio":1.0,"mirror":false,"chromatic_density":0.286,"complexity":0.761,"dissonance":0.145},{"voice":1,"pitch":72,"start":95.3332,"duration":0.1667,"velocity":127,"measure":36,"beat":4.0,"subject_pos":-1,"motif":"","motif_pos":-1,"best_pos":2,"similarity":0.593,"stretto":false,"stretto_voices":0,"combination":[],"aug_dim":"","rhythm_ratio":1.0,"mirror":false,"chromatic_density":0.286,"complexity":0.761,"dissonance":0.145},{"voice":3,"pitch":43,"start":95.3332,"duration":0.6667,"velocity":127,"measure":36,"beat":4.0,"subject_pos":5,"motif":"subject","motif_pos":5,"best_pos":5,"similarity":1.0,"stretto":false,"stretto_voices":0,"combination":[],"aug_dim":"","rhythm_ratio":1.0,"mirror":false,"chromatic_density":0.286,"complexity":0.761,"dissonance":0.145},{"voice":1,"pitch":70,"start":95.4999,"duration":0.1667,"velocity":127,"measure":36,"beat":4.25,"subject_pos":-1,"motif":"","motif_pos":-1,"best_pos":3,"similarity":0.6,"stretto":false,"stretto_voices":0,"combination":[],"aug_dim":"","rhythm_ratio":1.0,"mirror":false,"chromatic_density":0.286,"complexity":0.761,"dissonance":0.145},{"voice":1,"pitch":69,"start":95.6666,"duration":0.1667,"velocity":127,"measure":36,"beat":4.5,"subject_pos":-1,"motif":"","motif_pos":-1,"best_pos":4,"similarity":0.479,"stretto":false,"stretto_voices":0,"combination":[],"aug_dim":"","rhythm_ratio":1.0,"mirror":false,"chromatic_density":0.286,"complexity":0.761,"dissonance":0.145},{"voice":1,"pitch":67,"start":95.8332,"duration":0.1667,"velocity":127,"measure":36,"beat":4.75,"subject_pos":-1,"motif":"","motif_pos":-1,"best_pos":0,"similarity":0.446,"stretto":false,"stretto_voices":0,"combination":[],"aug_dim":"","rhythm_ratio":1.0,"mirror":false,"chromatic_density":0.286,"complexity":0.761,"dissonance":0.145},{"voice":0,"pitch":75,"start":95.9999,"duration":1.3333,"velocity":127,"measure":37,"beat":1.0,"subject_pos":6,"motif":"subject_inv","motif_pos":6,"best_pos":6,"similarity":1.0,"stretto":false,"stretto_voices":0,"combination":[],"aug_dim":"augmentation","rhythm_ratio":2.0,"mirror":false,"chromatic_density":0.421,"complexity":0.781,"dissonance":0.149},{"voice":1,"pitch":72,"start":95.9999,"duration":0.5,"velocity":127,"measure":37,"beat":1.0,"subject_pos":-1,"motif":"","motif_pos":-1,"best_pos":1,"similarity":0.625,"stretto":false,"stretto_voices":0,"combination":[],"aug_dim":"","rhythm_ratio":1.0,"mirror":false,"chromatic_density":0.421,"complexity":0.781,"dissonance":0.149},{"voice":3,"pitch":42,"start":95.9999,"duration":0.6667,"velocity":127,"measure":37,"beat":1.0,"subject_pos":6,"motif":"subject","motif_pos":6,"best_pos":6,"similarity":1.0,"stretto":false,"stretto_voices":0,"combination":[],"aug_dim":"","rhythm_ratio":1.0,"mirror":false,"chromatic_density":0.421,"complexity":0.781,"dissonance":0.149},{"voice":1,"pitch":70,"start":96.4999,"duration":0.0833,"velocity":127,"measure":37,"beat":1.75,"subject_pos":-1,"motif":"","motif_pos":-1,"best_pos":3,"similarity":0.571,"stretto":false,"stretto_voices":0,"combination":[],"aug_dim":"","rhythm_ratio":1.0,"mirror":false,"chromatic_density":0.421,"complexity":0.781,"dissonance":0.149},{"voice":1,"pitch":69,"start":96.5832,"duration":0.0833,"velocity":127,"measure":37,"beat":1.875,"subject_pos":-1,"motif":"","motif_pos":-1,"best_pos":4,"similarity":0.714,"stretto":false,"stretto_voices":0,"combination":[],"aug_dim":"","rhythm_ratio":1.0,"mirror":false,"chromatic_density":0.421,"complexity":0.781,"dissonance":0.149},{"voice":1,"pitch":70,"start":96.6666,"duration":0.5,"velocity":127,"measure":37,"beat":2.0,"subject_pos":-1,"motif":"","motif_pos":-1,"best_pos":5,"similarity":0.607,"stretto":false,"stretto_voices":0,"combination":[],"aug_dim":"","rhythm_ratio":1.0,"mirror":false,"chromatic_density":0.421,"complexity":0.781,"dissonance":0.149},{"voice":3,"pitch":43,"start":96.6666,"duration":0.5,"velocity":127,"measure":37,"beat":2.0,"subject_pos":7,"motif":"subject","motif_pos":7,"best_pos":7,"similarity":1.0,"stretto":false,"stretto_voices":0,"combination":[],"aug_dim":"","rhythm_ratio":1.0,"mirror":false,"chromatic_density":0.421,"complexity":0.781,"dissonance":0.149},{"voice":1,"pitch":66,"start":97.1666,"duration":0.1667,"velocity":127,"measure":37,"beat":2.75,"subject_pos":-1,"motif":"","motif_pos":-1,"best_pos":4,"similarity":0.579,"stretto":false,"stretto_voices":0,"combination":[],"aug_dim":"","rhythm_ratio":1.0,"mirror":false,"chromatic_density":0.421,"complexity":0.781,"dissonance":0.149},{"voice":3,"pitch":45,"start":97.1666,"duration":0.1667,"velocity":127,"measure":37,"beat":2.75,"subject_pos":8,"motif":"subject","motif_pos":8,"best_pos":0,"similarity":1.0,"stretto":false,"stretto_voices":0,"combination":[],"aug_dim":"","rhythm_ratio":1.0,"mirror":false,"chromatic_density":0.421,"complexity":0.781,"dissonance":0.149},{"voice":0,"pitch":74,"start":97.3332,"duration":1.0,"velocity":127,"measure":37,"beat":3.0,"subject_pos":7,"motif":"subject_inv","motif_pos":7,"best_pos":7,"similarity":1.0,"stretto":false,"stretto_voices":0,"combination":[],"aug_dim":"augmentation","rhythm_ratio":2.0,"mirror":false,"chromatic_density":0.421,"complexity":0.781,"dissonance":0.149},{"voice":1,"pitch":67,"start":97.3332,"duration":0.5,"velocity":127,"measure":37,"beat":3.0,"subject_pos":-1,"motif":"","motif_pos":-1,"best_pos":5,"similarity":0.736,"stretto":false,"stretto_voices":0,"combination":[],"aug_dim":"","rhythm_ratio":1.0,"mirror":false,"chromatic_density":0.421,"complexity":0.781,"dissonance":0.149},{"voice":2,"pitch":62,"start":97.3332,"duration":0.6667,"velocity":127,"measure":37,"beat":3.0,"subject_pos":0,"motif":"subject_inv","motif_pos":0,"best_pos":0,"similarity":1.0,"stretto":false,"stretto_voices":0,"combination":[],"aug_dim":"","rhythm_ratio":1.0,"mirror":false,"chromatic_density":0.421,"complexity":0.781,"dissonance":0.149},{"voice":3,"pitch":46,"start":97.3332,"duration":0.8333,"velocity":127,"measure":37,"beat":3.0,"subject_pos":-1,"motif":"","motif_pos":-1,"best_pos":5,"similarity":0.607,"stretto":false,"stretto_voices":0,"combination":[],"aug_dim":"","rhythm_ratio":1.0,"mirror":false,"chromatic_density":0.421,"complexity":0.781,"dissonance":0.149},{"voice":1,"pitch":69,"start":97.8332,"duration":0.0833,"velocity":127,"measure":37,"beat":3.75,"subject_pos":-1,"motif":"enigmatic_cell","motif_pos":0,"best_pos":0,"similarity":1.0,"stretto":false,"stretto_voices":0,"combination":[],"aug_dim":"","rhythm_ratio":1.0,"mirror":false,"chromatic_density":0.421,"complexity":0.781,"dissonance":0.149},{"voice":1,"pitch":70,"start":97.9166,"duration":0.0833,"velocity":127,"measure":37,"beat":3.875,"subject_pos":-1,"motif":"enigmatic_cell","motif_pos":1,"best_pos":1,"similarity":1.0,"stretto":false,"stretto_voices":0,"combination":[],"aug_dim":"","rhythm_ratio":1.0,"mirror":false,"chromatic_density":0.421,"complexity":0.781,"dissonance":0.149},{"voice":1,"pitch":64,"start":97.9999,"duration":0.5,"velocity":127,"measure":37,"beat":4.0,"subject_pos":-1,"motif":"enigmatic_cell","motif_pos":2,"best_pos":2,"similarity":1.0,"stretto":false,"stretto_voices":0,"combination":[],"aug_dim":"","rhythm_ratio":1.0,"mirror":false,"chromatic_density":0.421,"complexity":0.781,"dissonance":0.149},{"voice":2,"pitch":55,"start":97.9999,"duration":0.5,"velocity":127,"measure":37,"beat":4.0,"subject_pos":1,"motif":"subject_inv","motif_pos":1,"best_pos":1,"similarity":1.0,"stretto":false,"stretto_voices":0,"combination":[],"aug_dim":"","rhythm_ratio":1.0,"mirror":false,"chromatic_density":0.421,"complexity":0.781,"dissonance":0.149},{"voice":3,"pitch":48,"start":98.1666,"duration":0.1667,"velocity":127,"measure":37,"beat":4.25,"subject_pos":-1,"motif":"","motif_pos":-1,"best_pos":6,"similarity":0.464,"stretto":false,"stretto_voices":0,"combination":[],"aug_dim":"","rhythm_ratio":1.0,"mirror":false,"chromatic_density":0.421,"complexity":0.781,"dissonance":0.149},{"voice":0,"pitch":72,"start":98.3332,"duration":0.3333,"velocity":127,"measure":37,"beat":4.5,"subject_pos":8,"motif":"subject_inv","motif_pos":8,"best_pos":0,"similarity":1.0,"stretto":false,"stretto_voices":0,"combination":[],"aug_dim":"augmentation","rhythm_ratio":2.0,"mirror":false,"chromatic_density":0.421,"complexity":0.781,"dissonance":0.149},{"voice":3,"pitch":46,"start":98.3332,"duration":0.1667,"velocity":127,"measure":37,"beat":4.5,"subject_pos":-1,"motif":"","motif_pos":-1,"best_pos":3,"similarity":0.464,"stretto":false,"stretto_voices":0,"combination":[],"aug_dim":"","rhythm_ratio":1.0,"mirror":false,"chromatic_density":0.421,"complexity":0.781,"dissonance":0.149},{"voice":1,"pitch":66,"start":98.4999,"duration":0.1667,"velocity":127,"measure":37,"beat":4.75,"subject_pos":-1,"motif":"","motif_pos":-1,"best_pos":6,"similarity":0.589,"stretto":false,"stretto_voices":0,"combination":[],"aug_dim":"","rhythm_ratio":1.0,"mirror":false,"chromatic_density":0.421,"complexity":0.781,"dissonance":0.149},{"voice":2,"pitch":57,"start":98.4999,"duration":0.1667,"velocity":127,"measure":37,"beat":4.75,"subject_pos":2,"motif":"subject_inv","motif_pos":2,"best_pos":2,"similarity":1.0,"stretto":false,"stretto_voices":0,"combination":[],"aug_dim":"","rhythm_ratio":1.0,"mirror":false,"chromatic_density":0.421,"complexity":0.781,"dissonance":0.149},{"voice":3,"pitch":45,"start":98.4999,"duration":0.1667,"velocity":127,"measure":37,"beat":4.75,"subject_pos":-1,"motif":"","motif_pos":-1,"best_pos":4,"similarity":0.4,"stretto":false,"stretto_voices":0,"combination":[],"aug_dim":"","rhythm_ratio":1.0,"mirror":false,"chromatic_density":0.421,"complexity":0.781,"dissonance":0.149},{"voice":0,"pitch":70,"start":98.6666,"duration":1.8333,"velocity":127,"measure":38,"beat":1.0,"subject_pos":-1,"motif":"","motif_pos":-1,"best_pos":3,"similarity":0.786,"stretto":false,"stretto_voices":0,"combination":[],"aug_dim":"","rhythm_ratio":1.0,"mirror":false,"chromatic_density":0.312,"complexity":0.686,"dissonance":0.096},{"voice":1,"pitch":67,"start":98.6666,"duration":0.6667,"velocity":127,"measure":38,"beat":1.0,"subject_pos":-1,"motif":"","motif_pos":-1,"best_pos":7,"similarity":0.429,"stretto":false,"stretto_voices":0,"combination":[],"aug_dim":"","rhythm_ratio":1.0,"mirror":false,"chromatic_density":0.312,"complexity":0.686,"dissonance":0.096},{"voice":2,"pitch":58,"start":98.6666,"duration":0.5,"velocity":127,"measure":38,"beat":1.0,"subject_pos":3,"motif":"subject_inv","motif_pos":3,"best_pos":3,"similarity":1.0,"stretto":false,"stretto_voices":0,"combination":[],"aug_dim":"","rhythm_ratio":1.0,"mirror":false,"chromatic_density":0.312,"complexity":0.686,"dissonance":0.096},{"voice":3,"pitch":43,"start":98.6666,"duration":0.3333,"velocity":127,"measure":38,"beat":1.0,"subject_pos":-1,"motif":"","motif_pos":-1,"best_pos":2,"similarity":0.364,"stretto":false,"stretto_voices":0,"combination":[],"aug_dim":"","rhythm_ratio":1.0,"mirror":false,"chromatic_density":0.312,"complexity":0.686,"dissonance":0.096},{"voice":3,"pitch":55,"start":98.9999,"duration":0.75,"velocity":127,"measure":38,"beat":1.5,"subject_pos":-1,"motif":"","motif_pos":-1,"best_pos":1,"similarity":0.429,"stretto":false,"stretto_voices":0,"combination":[],"aug_dim":"","rhythm_ratio":1.0,"mirror":false,"chromatic_density":0.312,"complexity":0.686,"dissonance":0.096},{"voice":2,"pitch":60,"start":99.1666,"duration":0.1667,"velocity":127,"measure":38,"beat":1.75,"subject_pos":4,"motif":"subject_inv","motif_pos":4,"best_pos":4,"similarity":1.0,"stretto":false,"stretto_voices":0,"combination":[],"aug_dim":"","rhythm_ratio":1.0,"mirror":false,"chromatic_density":0.312,"complexity":0.686,"dissonance":0.096},{"voice":2,"pitch":62,"start":99.3332,"duration":0.6667,"velocity":127,"measure":38,"beat":2.0,"subject_pos":5,"motif":"subject_inv","motif_pos":5,"best_pos":5,"similarity":1.0,"stretto":false,"stretto_voices":0,"combination":[],"aug_dim":"","rhythm_ratio":1.0,"mirror":false,"chromatic_density":0.312,"complexity":0.686,"dissonance":0.096},{"voice":3,"pitch":53,"start":99.7499,"duration":0.0833,"velocity":127,"measure":38,"beat":2.625,"subject_pos":-1,"motif":"","motif_pos":-1,"best_pos":2,"similarity":0.579,"stretto":false,"stretto_voices":0,"combination":[],"aug_dim":"","rhythm_ratio":1.0,"mirror":false,"chromatic_density":0.312,"complexity":0.686,"dissonance":0.096},{"voice":3,"pitch":51,"start":99.8332,"duration":0.0833,"velocity":127,"measure":38,"beat":2.75,"subject_pos":-1,"motif":"","motif_pos":-1,"best_pos":3,"similarity":0.593,"stretto":false,"stretto_voices":0,"combination":[],"aug_dim":"","rhythm_ratio":1.0,"mirror":false,"chromatic_density":0.312,"complexity":0.686,"dissonance":0.096},{"voice":3,"pitch":50,"start":99.9166,"duration":0.0833,"velocity":127,"measure":38,"beat":2.875,"subject_pos":-1,"motif":"","motif_pos":-1,"best_pos":4,"similarity":0.507,"stretto":false,"stretto_voices":0,"combination":[],"aug_dim":"","rhythm_ratio":1.0,"mirror":false,"chromatic_density":0.312,"complexity":0.686,"dissonance":0.096},{"voice":2,"pitch":63,"start":99.9999,"duration":0.6667,"velocity":127,"measure":38,"beat":3.0,"subject_pos":6,"motif":"subject_inv","motif_pos":6,"best_pos":6,"similarity":1.0,"stretto":false,"stretto_voices":0,"combination":[],"aug_dim":"","rhythm_ratio":1.0,"mirror":false,"chromatic_density":0.312,"complexity":0.686,"dissonance":0.096},{"voice":3,"pitch":48,"start":99.9999,"duration":0.5,"velocity":127,"measure":38,"beat":3.0,"subject_pos":-1,"motif":"","motif_pos":-1,"best_pos":4,"similarity":0.457,"stretto":false,"stretto_voices":0,"combination":[],"aug_dim":"","rhythm_ratio":1.0,"mirror":false,"chromatic_density":0.312,"complexity":0.686,"dissonance":0.096},{"voice":0,"pitch":69,"start":100.4999,"duration":0.1667,"velocity":127,"measure":38,"beat":3.75,"subject_pos":-1,"motif":"","motif_pos":-1,"best_pos":4,"similarity":0.893,"stretto":false,"stretto_voices":0,"combination":[],"aug_dim":"","rhythm_ratio":1.0,"mirror":false,"chromatic_density":0.312,"complexity":0.686,"dissonance":0.096},{"voice":3,"pitch":53,"start":100.4999,"duration":0.1667,"velocity":127,"measure":38,"beat":3.75,"subject_pos":-1,"motif":"","motif_pos":-1,"best_pos":5,"similarity":0.475,"stretto":false,"stretto_voices":0,"combination":[],"aug_dim":"","rhythm_ratio":1.0,"mirror":false,"chromatic_density":0.312,"complexity":0.686,"dissonance":0.096},{"voice":0,"pitch":70,"start":100.6666,"duration":0.5,"velocity":127,"measure":38,"beat":4.0,"subject_pos":-1,"motif":"","motif_pos":-1,"best_pos":5,"similarity":0.821,"stretto":false,"stretto_voices":0,"combination":[],"aug_dim":"","rhythm_ratio":1.0,"mirror":false,"chromatic_density":0.312,"complexity":0.686,"dissonance":0.096},{"voice":2,"pitch":62,"start":100.6666,"duration":0.5,"velocity":127,"measure":38,"beat":4.0,"subject_pos":7,"motif":"subject_inv","motif_pos":7,"best_pos":7,"similarity":1.0,"stretto":false,"stretto_voices":0,"combination":[],"aug_dim":"","rhythm_ratio":1.0,"mirror":false,"chromatic_density":0.312,"complexity":0.686,"dissonance":0.096},{"voice":3,"pitch":55,"start":100.6666,"duration":0.5,"velocity":127,"measure":38,"beat":4.0,"subject_pos":-1,"motif":"","motif_pos":-1,"best_pos":5,"similarity":0.607,"stretto":false,"stretto_voices":0,"combination":[],"aug_dim":"","rhythm_ratio":1.0,"mirror":false,"chromatic_density":0.312,"complexity":0.686,"dissonance":0.096},{"voice":0,"pitch":72,"start":101.1666,"duration":0.1667,"velocity":127,"measure":38,"beat":4.75,"subject_pos":-1,"motif":"","motif_pos":-1,"best_pos":6,"similarity":0.643,"stretto":false,"stretto_voices":0,"combination":[],"aug_dim":"","rhythm_ratio":1.0,"mirror":false,"chromatic_density":0.312,"complexity":0.686,"dissonance":0.096},{"voice":2,"pitch":60,"start":101.1666,"duration":0.1667,"velocity":127,"measure":38,"beat":4.75,"subject_pos":8,"motif":"subject_inv","motif_pos":8,"best_pos":0,"similarity":1.0,"stretto":false,"stretto_voices":0,"combination":[],"aug_dim":"","rhythm_ratio":1.0,"mirror":false,"chromatic_density":0.312,"complexity":0.686,"dissonance":0.096},{"voice":3,"pitch":57,"start":101.1666,"duration":0.1667,"velocity":127,"measure":38,"beat":4.75,"subject_pos":-1,"motif":"","motif_pos":-1,"best_pos":6,"similarity":0.643,"stretto":false,"stretto_voices":0,"combination":[],"aug_dim":"","rhythm_ratio":1.0,"mirror":false,"chromatic_density":0.312,"complexity":0.686,"dissonance":0.096},{"voice":0,"pitch":74,"start":101.3332,"duration":0.8333,"velocity":127,"measure":39,"beat":1.0,"subject_pos":-1,"motif":"","motif_pos":-1,"best_pos":6,"similarity":0.661,"stretto":false,"stretto_voices":0,"combination":[],"aug_dim":"","rhythm_ratio":1.0,"mirror":false,"chromatic_density":0.316,"complexity":0.556,"dissonance":0.171},{"voice":2,"pitch":58,"start":101.3332,"duration":0.8333,"velocity":127,"measure":39,"beat":1.0,"subject_pos":-1,"motif":"","motif_pos":-1,"best_pos":3,"similarity":0.786,"stretto":false,"stretto_voices":0,"combination":[],"aug_dim":"","rhythm_ratio":1.0,"mirror":false,"chromatic_density":0.316,"complexity":0.556,"dissonance":0.171},{"voice":3,"pitch":58,"start":101.3332,"duration":0.5,"velocity":127,"measure":39,"beat":1.0,"subject_pos":-1,"motif":"","motif_pos":-1,"best_pos":7,"similarity":0.464,"stretto":false,"stretto_voices":0,"combination":[],"aug_dim":"","rhythm_ratio":1.0,"mirror":false,"chromatic_density":0.316,"complexity":0.556,"dissonance":0.171},{"voice":3,"pitch":57,"start":101.8332,"duration":0.1667,"velocity":127,"measure":39,"beat":1.75,"subject_pos":-1,"motif":"","motif_pos":-1,"best_pos":1,"similarity":0.393,"stretto":false,"stretto_voices":0,"combination":[],"aug_dim":"","rhythm_ratio":1.0,"mirror":false,"chromatic_density":0.316,"complexity":0.556,"dissonance":0.171},{"voice":3,"pitch":55,"start":101.9999,"duration":1.1667,"velocity":127,"measure":39,"beat":2.0,"subject_pos":-1,"motif":"","motif_pos":-1,"best_pos":2,"similarity":0.518,"stretto":false,"stretto_voices":0,"combination":[],"aug_dim":"","rhythm_ratio":1.0,"mirror":false,"chromatic_density":0.316,"complexity":0.556,"dissonance":0.171},{"voice":0,"pitch":75,"start":102.1666,"duration":0.1667,"velocity":127,"measure":39,"beat":2.25,"subject_pos":-1,"motif":"","motif_pos":-1,"best_pos":7,"similarity":0.464,"stretto":false,"stretto_voices":0,"combination":[],"aug_dim":"","rhythm_ratio":1.0,"mirror":false,"chromatic_density":0.316,"complexity":0.556,"dissonance":0.171},{"voice":2,"pitch":57,"start":102.1666,"duration":0.1667,"velocity":127,"measure":39,"beat":2.25,"subject_pos":-1,"motif":"","motif_pos":-1,"best_pos":4,"similarity":0.893,"stretto":false,"stretto_voices":0,"combination":[],"aug_dim":"","rhythm_ratio":1.0,"mirror":false,"chromatic_density":0.316,"complexity":0.556,"dissonance":0.171},{"voice":0,"pitch":74,"start":102.3332,"duration":0.1667,"velocity":127,"measure":39,"beat":2.5,"subject_pos":-1,"motif":"","motif_pos":-1,"best_pos":2,"similarity":0.379,"stretto":false,"stretto_voices":0,"combination":[],"aug_dim":"","rhythm_ratio":1.0,"mirror":false,"chromatic_density":0.316,"complexity":0.556,"dissonance":0.171},{"voice":2,"pitch":58,"start":102.3332,"duration":0.1667,"velocity":127,"measure":39,"beat":2.5,"subject_pos":-1,"motif":"","motif_pos":-1,"best_pos":5,"similarity":0.821,"stretto":false,"stretto_voices":0,"combination":[],"aug_dim":"","rhythm_ratio":1.0,"mirror":false,"chromatic_density":0.316,"complexity":0.556,"dissonance":0.171},{"voice":0,"pitch":72,"start":102.4999,"duration":0.1667,"velocity":127,"measure":39,"beat":2.75,"subject_pos":-1,"motif":"","motif_pos":-1,"best_pos":2,"similarity":0.5,"stretto":false,"stretto_voices":0,"combination":[],"aug_dim":"","rhythm_ratio":1.0,"mirror":false,"chromatic_density":0.316,"complexity":0.556,"dissonance":0.171},{"voice":2,"pitch":60,"start":102.4999,"duration":0.1667,"velocity":127,"measure":39,"beat":2.75,"subject_pos":-1,"motif":"","motif_pos":-1,"best_pos":6,"similarity":0.643,"stretto":false,"stretto_voices":0,"combination":[],"aug_dim":"","rhythm_ratio":1.0,"mirror":false,"chromatic_density":0.316,"complexity":0.556,"dissonance":0.171},{"voice":0,"pitch":70,"start":102.6666,"duration":0.1667,"velocity":127,"measure":39,"beat":3.0,"subject_pos":-1,"motif":"","motif_pos":-1,"best_pos":3,"similarity":0.5,"stretto":false,"stretto_voices":0,"combination":[],"aug_dim":"","rhythm_ratio":1.0,"mirror":false,"chromatic_density":0.316,"complexity":0.556,"dissonance":0.171},{"voice":2,"pitch":62,"start":102.6666,"duration":0.8333,"velocity":127,"measure":39,"beat":3.0,"subject_pos":-1,"motif":"head_inv","motif_pos":0,"best_pos":0,"similarity":1.0,"stretto":false,"stretto_voices":0,"combination":[],"aug_dim":"","rhythm_ratio":1.0,"mirror":false,"chromatic_density":0.316,"complexity":0.556,"dissonance":0.171},{"voice":0,"pitch":74,"start":102.8332,"duration":0.1667,"velocity":127,"measure":39,"beat":3.25,"subject_pos":-1,"motif":"","motif_pos":-1,"best_pos":4,"similarity":0.607,"stretto":false,"stretto_voices":0,"combination":[],"aug_dim":"","rhythm_ratio":1.0,"mirror":false,"chromatic_density":0.316,"complexity":0.556,"dissonance":0.171},{"voice":0,"pitch":75,"start":102.9999,"duration":0.1667,"velocity":127,"measure":39,"beat":3.5,"subject_pos":-1,"motif":"","motif_pos":-1,"best_pos":5,"similarity":0.679,"stretto":false,"stretto_voices":0,"combination":[],"aug_dim":"","rhythm_ratio":1.0,"mirror":false,"chromatic_density":0.316,"complexity":0.556,"dissonance":0.171},{"voice":0,"pitch":77,"start":103.1666,"duration":0.1667,"velocity":127,"measure":39,"beat":3.75,"subject_pos":-1,"motif":"","motif_pos":-1,"best_pos":5,"similarity":0.607,"stretto":false,"stretto_voices":0,"combination":[],"aug_dim":"","rhythm_ratio":1.0,"mirror":false,"chromatic_density":0.316,"complexity":0.556,"dissonance":0.171},{"voice":3,"pitch":53,"start":103.1666,"duration":0.1667,"velocity":127,"measure":39,"beat":3.75,"subject_pos":-1,"motif":"","motif_pos":-1,"best_pos":2,"similarity":0.579,"stretto":false,"stretto_voices":0,"combination":[],"aug_dim":"","rhythm_ratio":1.0,"mirror":false,"chromatic_density":0.316,"complexity":0.556,"dissonance":0.171},{"voice":0,"pitch":79,"start":103.3332,"duration":0.8333,"velocity":127,"measure":39,"beat":4.0,"subject_pos":-1,"motif":"","motif_pos":-1,"best_pos":6,"similarity":0.661,"stretto":false,"stretto_voices":0,"combination":[],"aug_dim":"","rhythm_ratio":1.0,"mirror":false,"chromatic_density":0.316,"complexity":0.556,"dissonance":0.171},{"voice":3,"pitch":51,"start":103.3332,"duration":1.1667,"velocity":127,"measure":39,"beat":4.0,"subject_pos":-1,"motif":"","motif_pos":-1,"best_pos":3,"similarity":0.657,"stretto":false,"stretto_voices":0,"combination":[],"aug_dim":"","rhythm_ratio":1.0,"mirror":false,"chromatic_density":0.316,"complexity":0.556,"dissonance":0.171},{"voice":2,"pitch":55,"start":103.4999,"duration":0.1667,"velocity":127,"measure":39,"beat":4.25,"subject_pos":-1,"motif":"head_inv","motif_pos":1,"best_pos":1,"similarity":1.0,"stretto":false,"stretto_voices":0,"combination":[],"aug_dim":"","rhythm_ratio":1.0,"mirror":false,"chromatic_density":0.316,"complexity":0.556,"dissonance":0.171},{"voice":2,"pitch":57,"start":103.6666,"duration":0.1667,"velocity":127,"measure":39,"beat":4.5,"subject_pos":-1,"motif":"head_inv","motif_pos":2,"best_pos":2,"similarity":1.0,"stretto":false,"stretto_voices":0,"combination":[],"aug_dim":"","rhythm_ratio":1.0,"mirror":false,"chromatic_density":0.316,"complexity":0.556,"dissonance":0.171},{"voice":2,"pitch":59,"start":103.8332,"duration":0.1667,"velocity":127,"measure":39,"beat":4.75,"subject_pos":-1,"motif":"head_inv","motif_pos":3,"best_pos":3,"similarity":1.0,"stretto":false,"stretto_voices":0,"combination":[],"aug_dim":"","rhythm_ratio":1.0,"mirror":false,"chromatic_density":0.316,"complexity":0.556,"dissonance":0.171},{"voice":2,"pitch":60,"start":103.9999,"duration":0.6667,"velocity":127,"measure":40,"beat":1.0,"subject_pos":-1,"motif":"head_inv","motif_pos":4,"best_pos":4,"similarity":1.0,"stretto":false,"stretto_voices":0,"combination":[],"aug_dim":"","rhythm_ratio":1.0,"mirror":false,"chromatic_density":0.3,"complexity":0.553,"dissonance":0.211},{"voice":0,"pitch":80,"start":104.1666,"duration":0.1667,"velocity":127,"measure":40,"beat":1.25,"subject_pos":-1,"motif":"","motif_pos":-1,"best_pos":7,"similarity":0.464,"stretto":false,"stretto_voices":0,"combination":[],"aug_dim":"","rhythm_ratio":1.0,"mirror":false,"chromatic_density":0.3,"complexity":0.553,"dissonance":0.211},{"voice":0,"pitch":79,"start":104.3332,"duration":0.1667,"velocity":127,"measure":40,"beat":1.5,"subject_pos":-1,"motif":"","motif_pos":-1,"best_pos":1,"similarity":0.429,"stretto":false,"stretto_voices":0,"combination":[],"aug_dim":"","rhythm_ratio":1.0,"mirror":false,"chromatic_density":0.3,"complexity":0.553,"dissonance":0.211},{"voice":0,"pitch":77,"start":104.4999,"duration":0.1667,"velocity":127,"measure":40,"beat":1.75,"subject_pos":-1,"motif":"","motif_pos":-1,"best_pos":2,"similarity":0.579,"stretto":false,"stretto_voices":0,"combination":[],"aug_dim":"","rhythm_ratio":1.0,"mirror":false,"chromatic_density":0.3,"complexity":0.553,"dissonance":0.211},{"voice":3,"pitch":50,"start":104.4999,"duration":0.1667,"velocity":127,"measure":40,"beat":1.75,"subject_pos":-1,"motif":"","motif_pos":-1,"best_pos":4,"similarity":0.671,"stretto":false,"stretto_voices":0,"combination":[],"aug_dim":"","rhythm_ratio":1.0,"mirror":false,"chromatic_density":0.3,"complexity":0.553,"dissonance":0.211},{"voice":0,"pitch":75,"start":104.6666,"duration":0.1667,"velocity":127,"measure":40,"beat":2.0,"subject_pos":-1,"motif":"","motif_pos":-1,"best_pos":3,"similarity":0.593,"stretto":false,"stretto_voices":0,"combination":[],"aug_dim":"","rhythm_ratio":1.0,"mirror":false,"chromatic_density":0.3,"complexity":0.553,"dissonance":0.211},{"voice":3,"pitch":48,"start":104.6666,"duration":0.5,"velocity":127,"measure":40,"beat":2.0,"subject_pos":-1,"motif":"","motif_pos":-1,"best_pos":5,"similarity":0.636,"stretto":false,"stretto_voices":0,"combination":[],"aug_dim":"","rhythm_ratio":1.0,"mirror":false,"chromatic_density":0.3,"complexity":0.553,"dissonance":0.211},{"voice":0,"pitch":74,"start":104.8332,"duration":0.1667,"velocity":127,"measure":40,"beat":2.25,"subject_pos":-1,"motif":"","motif_pos":-1,"best_pos":4,"similarity":0.489,"stretto":false,"stretto_voices":0,"combination":[],"aug_dim":"","rhythm_ratio":1.0,"mirror":false,"chromatic_density":0.3,"complexity":0.553,"dissonance":0.211},{"voice":0,"pitch":72,"start":104.9999,"duration":0.1667,"velocity":127,"measure":40,"beat":2.5,"subject_pos":-1,"motif":"","motif_pos":-1,"best_pos":2,"similarity":0.579,"stretto":false,"stretto_voices":0,"combination":[],"aug_dim":"","rhythm_ratio":1.0,"mirror":false,"chromatic_density":0.3,"complexity":0.553,"dissonance":0.211},{"voice":0,"pitch":70,"start":105.1666,"duration":0.1667,"velocity":127,"measure":40,"beat":2.75,"subject_pos":-1,"motif":"","motif_pos":-1,"best_pos":3,"similarity":0.593,"stretto":false,"stretto_voices":0,"combination":[],"aug_dim":"","rhythm_ratio":1.0,"mirror":false,"chromatic_density":0.3,"complexity":0.553,"dissonance":0.211},{"voice":3,"pitch":50,"start":105.1666,"duration":0.1667,"velocity":127,"measure":40,"beat":2.75,"subject_pos":-1,"motif":"","motif_pos":-1,"best_pos":6,"similarity":0.657,"stretto":false,"stretto_voices":0,"combination":[],"aug_dim":"","rhythm_ratio":1.0,"mirror":false,"chromatic_density":0.3,"complexity":0.553,"dissonance":0.211},{"voice":0,"pitch":69,"start":105.3332,"duration":0.5,"velocity":127,"measure":40,"beat":3.0,"subject_pos":-1,"motif":"","motif_pos":-1,"best_pos":4,"similarity":0.479,"stretto":false,"stretto_voices":0,"combination":[],"aug_dim":"","rhythm_ratio":1.0,"mirror":false,"chromatic_density":0.3,"complexity":0.553,"dissonance":0.211},{"voice":3,"pitch":51,"start":105.3332,"duration":0.1667,"velocity":127,"measure":40,"beat":3.0,"subject_pos":-1,"motif":"","motif_pos":-1,"best_pos":7,"similarity":0.436,"stretto":false,"stretto_voices":0,"combination":[],"aug_dim":"","rhythm_ratio":1.0,"mirror":false,"chromatic_density":0.3,"complexity":0.553,"dissonance":0.211},{"voice":3,"pitch":55,"start":105.4999,"duration":0.1667,"velocity":127,"measure":40,"beat":3.25,"subject_pos":-1,"motif":"","motif_pos":-1,"best_pos":1,"similarity":0.571,"stretto":false,"stretto_voices":0,"combination":[],"aug_dim":"","rhythm_ratio":1.0,"mirror":false,"chromatic_density":0.3,"complexity":0.553,"dissonance":0.211},{"voice":3,"pitch":53,"start":105.6666,"duration":0.1667,"velocity":127,"measure":40,"beat":3.5,"subject_pos":-1,"motif":"","motif_pos":-1,"best_pos":2,"similarity":0.65,"stretto":false,"stretto_voices":0,"combination":[],"aug_dim":"","rhythm_ratio":1.0,"mirror":false,"chromatic_density":0.3,"complexity":0.553,"dissonance":0.211},{"voice":0,"pitch":67,"start":105.8332,"duration":0.0833,"velocity":127,"measure":40,"beat":3.75,"subject_pos":-1,"motif":"","motif_pos":-1,"best_pos":2,"similarity":0.446,"stretto":false,"stretto_voices":0,"combination":[],"aug_dim":"","rhythm_ratio":1.0,"mirror":false,"chromatic_density":0.3,"complexity":0.553,"dissonance":0.211},{"voice":3,"pitch":51,"start":105.8332,"duration":0.1667,"velocity":127,"measure":40,"beat":3.75,"subject_pos":-1,"motif":"","motif_pos":-1,"best_pos":3,"similarity":0.629,"stretto":false,"stretto_voices":0,"combination":[],"aug_dim":"","rhythm_ratio":1.0,"mirror":false,"chromatic_density":0.3,"complexity":0.553,"dissonance":0.211},{"voice":0,"pitch":65,"start":105.9166,"duration":0.0833,"velocity":127,"measure":40,"beat":3.875,"subject_pos":-1,"motif":"","motif_pos":-1,"best_pos":2,"similarity":0.436,"stretto":false,"stretto_voices":0,"combination":[],"aug_dim":"","rhythm_ratio":1.0,"mirror":false,"chromatic_density":0.3,"complexity":0.553,"dissonance":0.211},{"voice":0,"pitch":70,"start":105.9999,"duration":0.8333,"velocity":127,"measure":40,"beat":4.0,"subject_pos":-1,"motif":"","motif_pos":-1,"best_pos":3,"similarity":0.514,"stretto":false,"stretto_voices":0,"combination":[],"aug_dim":"","rhythm_ratio":1.0,"mirror":false,"chromatic_density":0.3,"complexity":0.553,"dissonance":0.211},{"voice":3,"pitch":50,"start":105.9999,"duration":0.1667,"velocity":127,"measure":40,"beat":4.0,"subject_pos":-1,"motif":"","motif_pos":-1,"best_pos":4,"similarity":0.489,"stretto":false,"stretto_voices":0,"combination":[],"aug_dim":"","rhythm_ratio":1.0,"mirror":false,"chromatic_density":0.3,"complexity":0.553,"dissonance":0.211},{"voice":3,"pitch":48,"start":106.1666,"duration":0.1667,"velocity":127,"measure":40,"beat":4.25,"subject_pos":-1,"motif":"","motif_pos":-1,"best_pos":2,"similarity":0.579,"stretto":false,"stretto_voices":0,"combination":[],"aug_dim":"","rhythm_ratio":1.0,"mirror":false,"chromatic_density":0.3,"complexity":0.553,"dissonance":0.211},{"voice":3,"pitch":46,"start":106.3332,"duration":0.1667,"velocity":127,"measure":40,"beat":4.5,"subject_pos":-1,"motif":"","motif_pos":-1,"best_pos":3,"similarity":0.593,"stretto":false,"stretto_voices":0,"combination":[],"aug_dim":"","rhythm_ratio":1.0,"mirror":false,"chromatic_density":0.3,"complexity":0.553,"dissonance":0.211},{"voice":3,"pitch":45,"start":106.4999,"duration":0.1667,"velocity":127,"measure":40,"beat":4.75,"subject_pos":-1,"motif":"","motif_pos":-1,"best_pos":4,"similarity":0.507,"stretto":false,"stretto_voices":0,"combination":[],"aug_dim":"","rhythm_ratio":1.0,"mirror":false,"chromatic_density":0.3,"complexity":0.553,"dissonance":0.211},{"voice":3,"pitch":43,"start":106.6666,"duration":0.5,"velocity":127,"measure":41,"beat":1.0,"subject_pos":-1,"motif":"","motif_pos":-1,"best_pos":3,"similarity":0.464,"stretto":false,"stretto_voices":0,"combination":[],"aug_dim":"","rhythm_ratio":1.0,"mirror":false,"chromatic_density":0.304,"complexity":0.417,"dissonance":0.173},{"voice":0,"pitch":69,"start":106.8332,"duration":0.1667,"velocity":127,"measure":41,"beat":1.25,"subject_pos":-1,"motif":"","motif_pos":-1,"best_pos":4,"similarity":0.6,"stretto":false,"stretto_voices":0,"combination":[],"aug_dim":"","rhythm_ratio":1.0,"mirror":false,"chromatic_density":0.304,"complexity":0.417,"dissonance":0.173},{"voice":0,"pitch":67,"start":106.9999,"duration":0.1667,"velocity":127,"measure":41,"beat":1.5,"subject_pos":-1,"motif":"","motif_pos":-1,"best_pos":5,"similarity":0.6,"stretto":false,"stretto_voices":0,"combination":[],"aug_dim":"","rhythm_ratio":1.0,"mirror":false,"chromatic_density":0.304,"complexity":0.417,"dissonance":0.173},{"voice":0,"pitch":69,"start":107.1666,"duration":0.1667,"velocity":127,"measure":41,"beat":1.75,"subject_pos":-1,"motif":"","motif_pos":-1,"best_pos":6,"similarity":0.657,"stretto":false,"stretto_voices":0,"combination":[],"aug_dim":"","rhythm_ratio":1.0,"mirror":false,"chromatic_density":0.304,"complexity":0.417,"dissonance":0.173},{"voice":3,"pitch":41,"start":107.1666,"duration":0.1667,"velocity":127,"measure":41,"beat":1.75,"subject_pos":-1,"motif":"","motif_pos":-1,"best_pos":4,"similarity":0.482,"stretto":false,"stretto_voices":0,"combination":[],"aug_dim":"","rhythm_ratio":1.0,"mirror":false,"chromatic_density":0.304,"complexity":0.417,"dissonance":0.173},{"voice":0,"pitch":70,"start":107.3332,"duration":0.1667,"velocity":127,"measure":41,"beat":2.0,"subject_pos":-1,"motif":"","motif_pos":-1,"best_pos":5,"similarity":0.693,"stretto":false,"stretto_voices":0,"combination":[],"aug_dim":"","rhythm_ratio":1.0,"mirror":false,"chromatic_density":0.304,"complexity":0.417,"dissonance":0.173},{"voice":3,"pitch":43,"start":107.3332,"duration":0.5,"velocity":127,"measure":41,"beat":2.0,"subject_pos":-1,"motif":"","motif_pos":-1,"best_pos":5,"similarity":0.429,"stretto":false,"stretto_voices":0,"combination":[],"aug_dim":"","rhythm_ratio":1.0,"mirror":false,"chromatic_density":0.304,"complexity":0.417,"dissonance":0.173},{"voice":0,"pitch":72,"start":107.4999,"duration":0.1667,"velocity":127,"measure":41,"beat":2.25,"subject_pos":-1,"motif":"","motif_pos":-1,"best_pos":6,"similarity":0.579,"stretto":false,"stretto_voices":0,"combination":[],"aug_dim":"","rhythm_ratio":1.0,"mirror":false,"chromatic_density":0.304,"complexity":0.417,"dissonance":0.173},{"voice":0,"pitch":74,"start":107.6666,"duration":0.1667,"velocity":127,"measure":41,"beat":2.5,"subject_pos":-1,"motif":"","motif_pos":-1,"best_pos":5,"similarity":0.593,"stretto":false,"stretto_voices":0,"combination":[],"aug_dim":"","rhythm_ratio":1.0,"mirror":false,"chromatic_density":0.304,"complexity":0.417,"dissonance":0.173},{"voice":0,"pitch":76,"start":107.8332,"duration":0.1667,"velocity":127,"measure":41,"beat":2.75,"subject_pos":-1,"motif":"","motif_pos":-1,"best_pos":6,"similarity":0.65,"stretto":false,"stretto_voices":0,"combination":[],"aug_dim":"","rhythm_ratio":1.0,"mirror":false,"chromatic_density":0.304,"complexity":0.417,"dissonance":0.173},{"voice":3,"pitch":46,"start":107.8332,"duration":0.1667,"velocity":127,"measure":41,"beat":2.75,"subject_pos":-1,"motif":"","motif_pos":-1,"best_pos":3,"similarity":0.371,"stretto":false,"stretto_voices":0,"combination":[],"aug_dim":"","rhythm_ratio":1.0,"mirror":false,"chromatic_density":0.304,"complexity":0.417,"dissonance":0.173},{"voice":0,"pitch":77,"start":107.9999,"duration":0.5,"velocity":127,"measure":41,"beat":3.0,"subject_pos":-1,"motif":"","motif_pos":-1,"best_pos":7,"similarity":0.464,"stretto":false,"stretto_voices":0,"combination":[],"aug_dim":"","rhythm_ratio":1.0,"mirror":false,"chromatic_density":0.304,"complexity":0.417,"dissonance":0.173},{"voice":3,"pitch":45,"start":107.9999,"duration":0.1667,"velocity":127,"measure":41,"beat":3.0,"subject_pos":-1,"motif":"","motif_pos":-1,"best_pos":4,"similarity":0.471,"stretto":false,"stretto_voices":0,"combination":[],"aug_dim":"","rhythm_ratio":1.0,"mirror":false,"chromatic_density":0.304,"complexity":0.417,"dissonance":0.173},{"voice":3,"pitch":41,"start":108.1666,"duration":0.1667,"velocity":127,"measure":41,"beat":3.25,"subject_pos":-1,"motif":"","motif_pos":-1,"best_pos":5,"similarity":0.5,"stretto":false,"stretto_voices":0,"combination":[],"aug_dim":"","rhythm_ratio":1.0,"mirror":false,"chromatic_density":0.304,"complexity":0.417,"dissonance":0.173},{"voice":3,"pitch":43,"start":108.3332,"duration":0.1667,"velocity":127,"measure":41,"beat":3.5,"subject_pos":-1,"motif":"","motif_pos":-1,"best_pos":5,"similarity":0.604,"stretto":false,"stretto_voices":0,"combination":[],"aug_dim":"","rhythm_ratio":1.0,"mirror":false,"chromatic_density":0.304,"complexity":0.417,"dissonance":0.173},{"voice":0,"pitch":75,"start":108.4999,"duration":0.1667,"velocity":127,"measure":41,"beat":3.75,"subject_pos":-1,"motif":"","motif_pos":-1,"best_pos":3,"similarity":0.471,"stretto":false,"stretto_voices":0,"combination":[],"aug_dim":"","rhythm_ratio":1.0,"mirror":false,"chromatic_density":0.304,"complexity":0.417,"dissonance":0.173},{"voice":3,"pitch":45,"start":108.4999,"duration":0.1667,"velocity":127,"measure":41,"beat":3.75,"subject_pos":-1,"motif":"","motif_pos":-1,"best_pos":6,"similarity":0.65,"stretto":false,"stretto_voices":0,"combination":[],"aug_dim":"","rhythm_ratio":1.0,"mirror":false,"chromatic_density":0.304,"complexity":0.417,"dissonance":0.173},{"voice":0,"pitch":74,"start":108.6666,"duration":0.1667,"velocity":127,"measure":41,"beat":4.0,"subject_pos":-1,"motif":"","motif_pos":-1,"best_pos":1,"similarity":0.429,"stretto":false,"stretto_voices":0,"combination":[],"aug_dim":"","rhythm_ratio":1.0,"mirror":false,"chromatic_density":0.304,"complexity":0.417,"dissonance":0.173},{"voice":3,"pitch":46,"start":108.6666,"duration":0.1667,"velocity":127,"measure":41,"beat":4.0,"subject_pos":-1,"motif":"","motif_pos":-1,"best_pos":5,"similarity":0.657,"stretto":false,"stretto_voices":0,"combination":[],"aug_dim":"","rhythm_ratio":1.0,"mirror":false,"chromatic_density":0.304,"complexity":0.417,"dissonance":0.173},{"voice":0,"pitch":72,"start":108.8332,"duration":0.1667,"velocity":127,"measure":41,"beat":4.25,"subject_pos":-1,"motif":"","motif_pos":-1,"best_pos":2,"similarity":0.643,"stretto":false,"stretto_voices":0,"combination":[],"aug_dim":"","rhythm_ratio":1.0,"mirror":false,"chromatic_density":0.304,"complexity":0.417,"dissonance":0.173},{"voice":3,"pitch":48,"start":108.8332,"duration":0.1667,"velocity":127,"measure":41,"beat":4.25,"subject_pos":-1,"motif":"","motif_pos":-1,"best_pos":5,"similarity":0.607,"stretto":false,"stretto_voices":0,"combination":[],"aug_dim":"","rhythm_ratio":1.0,"mirror":false,"chromatic_density":0.304,"complexity":0.417,"dissonance":0.173},{"voice":0,"pitch":70,"start":108.9999,"duration":0.1667,"velocity":127,"measure":41,"beat":4.5,"subject_pos":-1,"motif":"","motif_pos":-1,"best_pos":3,"similarity":0.786,"stretto":false,"stretto_voices":0,"combination":[],"aug_dim":"","rhythm_ratio":1.0,"mirror":false,"chromatic_density":0.304,"complexity":0.417,"dissonance":0.173},{"voice":3,"pitch":50,"start":108.9999,"duration":0.1667,"velocity":127,"measure":41,"beat":4.5,"subject_pos":-1,"motif":"","motif_pos":-1,"best_pos":6,"similarity":0.661,"stretto":false,"stretto_voices":0,"combination":[],"aug_dim":"","rhythm_ratio":1.0,"mirror":false,"chromatic_density":0.304,"complexity":0.417,"dissonance":0.173},{"voice":0,"pitch":69,"start":109.1666,"duration":0.1667,"velocity":127,"measure":41,"beat":4.75,"subject_pos":-1,"motif":"","motif_pos":-1,"best_pos":4,"similarity":0.893,"stretto":false,"stretto_voices":0,"combination":[],"aug_dim":"","rhythm_ratio":1.0,"mirror":false,"chromatic_density":0.304,"complexity":0.417,"dissonance":0.173},{"voice":3,"pitch":51,"start":109.1666,"duration":0.1667,"velocity":127,"measure":41,"beat":4.75,"subject_pos":-1,"motif":"","motif_pos":-1,"best_pos":3,"similarity":0.55,"stretto":false,"stretto_voices":0,"combination":[],"aug_dim":"","rhythm_ratio":1.0,"mirror":false,"chromatic_density":0.304,"complexity":0.417,"dissonance":0.173},{"voice":0,"pitch":70,"start":109.3332,"duration":0.5,"velocity":127,"measure":42,"beat":1.0,"subject_pos":-1,"motif":"","motif_pos":-1,"best_pos":5,"similarity":0.821,"stretto":false,"stretto_voices":0,"combination":[],"aug_dim":"","rhythm_ratio":1.0,"mirror":false,"chromatic_density":0.25,"complexity":0.632,"dissonance":0.139},{"voice":1,"pitch":65,"start":109.3332,"duration":0.6667,"velocity":127,"measure":42,"beat":1.0,"subject_pos":-1,"motif":"head_inv","motif_pos":0,"best_pos":0,"similarity":1.0,"stretto":false,"stretto_voices":0,"combination":[],"aug_dim":"","rhythm_ratio":1.0,"mirror":false,"chromatic_density":0.25,"complexity":0.632,"dissonance":0.139},{"voice":3,"pitch":50,"start":109.3332,"duration":0.6667,"velocity":127,"measure":42,"beat":1.0,"subject_pos":-1,"motif":"","motif_pos":-1,"best_pos":4,"similarity":0.743,"stretto":false,"stretto_voices":0,"combination":[],"aug_dim":"","rhythm_ratio":1.0,"mirror":false,"chromatic_density":0.25,"complexity":0.632,"dissonance":0.139},{"voice":0,"pitch":72,"start":109.8332,"duration":0.0833,"velocity":127,"measure":42,"beat":1.75,"subject_pos":-1,"motif":"","motif_pos":-1,"best_pos":6,"similarity":0.643,"stretto":false,"stretto_voices":0,"combination":[],"aug_dim":"","rhythm_ratio":1.0,"mirror":false,"chromatic_density":0.25,"complexity":0.632,"dissonance":0.139},{"voice":0,"pitch":74,"start":109.9166,"duration":0.0833,"velocity":127,"measure":42,"beat":1.875,"subject_pos":-1,"motif":"","motif_pos":-1,"best_pos":6,"similarity":0.375,"stretto":false,"stretto_voices":0,"combination":[],"aug_dim":"","rhythm_ratio":1.0,"mirror":false,"chromatic_density":0.25,"complexity":0.632,"dissonance":0.139},{"voice":0,"pitch":67,"start":109.9999,"duration":0.5,"velocity":127,"measure":42,"beat":2.0,"subject_pos":-1,"motif":"","motif_pos":-1,"best_pos":7,"similarity":0.179,"stretto":false,"stretto_voices":0,"combination":[],"aug_dim":"","rhythm_ratio":1.0,"mirror":false,"chromatic_density":0.25,"complexity":0.632,"dissonance":0.139},{"voice":1,"pitch":58,"start":109.9999,"duration":0.5,"velocity":127,"measure":42,"beat":2.0,"subject_pos":-1,"motif":"head_inv","motif_pos":1,"best_pos":1,"similarity":1.0,"stretto":false,"stretto_voices":0,"combination":[],"aug_dim":"","rhythm_ratio":1.0,"mirror":false,"chromatic_density":0.25,"complexity":0.632,"dissonance":0.139},{"voice":3,"pitch":51,"start":109.9999,"duration":0.6667,"velocity":127,"measure":42,"beat":2.0,"subject_pos":-1,"motif":"","motif_pos":-1,"best_pos":5,"similarity":0.736,"stretto":false,"stretto_voices":0,"combination":[],"aug_dim":"","rhythm_ratio":1.0,"mirror":false,"chromatic_density":0.25,"complexity":0.632,"dissonance":0.139},{"voice":0,"pitch":79,"start":110.4999,"duration":0.1667,"velocity":127,"measure":42,"beat":2.75,"subject_pos":-1,"motif":"","motif_pos":-1,"best_pos":2,"similarity":0.15,"stretto":false,"stretto_voices":0,"combination":[],"aug_dim":"","rhythm_ratio":1.0,"mirror":false,"chromatic_density":0.25,"complexity":0.632,"dissonance":0.139},{"voice":1,"pitch":60,"start":110.4999,"duration":0.1667,"velocity":127,"measure":42,"beat":2.75,"subject_pos":-1,"motif":"head_inv","motif_pos":2,"best_pos":2,"similarity":1.0,"stretto":false,"stretto_voices":0,"combination":[],"aug_dim":"","rhythm_ratio":1.0,"mirror":false,"chromatic_density":0.25,"complexity":0.632,"dissonance":0.139},{"voice":0,"pitch":70,"start":110.6666,"duration":0.4167,"velocity":127,"measure":42,"beat":3.0,"subject_pos":-1,"motif":"","motif_pos":-1,"best_pos":3,"similarity":0.371,"stretto":false,"stretto_voices":0,"combination":[],"aug_dim":"","rhythm_ratio":1.0,"mirror":false,"chromatic_density":0.25,"complexity":0.632,"dissonance":0.139},{"voice":1,"pitch":62,"start":110.6666,"duration":0.5,"velocity":127,"measure":42,"beat":3.0,"subject_pos":-1,"motif":"head_inv","motif_pos":3,"best_pos":3,"similarity":1.0,"stretto":false,"stretto_voices":0,"combination":[],"aug_dim":"","rhythm_ratio":1.0,"mirror":false,"chromatic_density":0.25,"complexity":0.632,"dissonance":0.139},{"voice":3,"pitch":53,"start":110.6666,"duration":1.5,"velocity":127,"measure":42,"beat":3.0,"subject_pos":-1,"motif":"","motif_pos":-1,"best_pos":6,"similarity":0.529,"stretto":false,"stretto_voices":0,"combination":[],"aug_dim":"","rhythm_ratio":1.0,"mirror":false,"chromatic_density":0.25,"complexity":0.632,"dissonance":0.139},{"voice":0,"pitch":69,"start":111.0832,"duration":0.0833,"velocity":127,"measure":42,"beat":3.625,"subject_pos":-1,"motif":"","motif_pos":-1,"best_pos":4,"similarity":0.493,"stretto":false,"stretto_voices":0,"combination":[],"aug_dim":"","rhythm_ratio":1.0,"mirror":false,"chromatic_density":0.25,"complexity":0.632,"dissonance":0.139},{"voice":0,"pitch":67,"start":111.1666,"duration":0.0833,"velocity":127,"measure":42,"beat":3.75,"subject_pos":-1,"motif":"","motif_pos":-1,"best_pos":5,"similarity":0.529,"stretto":false,"stretto_voices":0,"combination":[],"aug_dim":"","rhythm_ratio":1.0,"mirror":false,"chromatic_density":0.25,"complexity":0.632,"dissonance":0.139},{"voice":1,"pitch":63,"start":111.1666,"duration":0.1667,"velocity":127,"measure":42,"beat":3.75,"subject_pos":-1,"motif":"head_inv","motif_pos":4,"best_pos":4,"similarity":1.0,"stretto":false,"stretto_voices":0,"combination":[],"aug_dim":"","rhythm_ratio":1.0,"mirror":false,"chromatic_density":0.25,"complexity":0.632,"dissonance":0.139},{"voice":0,"pitch":69,"start":111.2499,"duration":0.0833,"velocity":127,"measure":42,"beat":3.875,"subject_pos":-1,"motif":"","motif_pos":-1,"best_pos":6,"similarity":0.514,"stretto":false,"stretto_voices":0,"combination":[],"aug_dim":"","rhythm_ratio":1.0,"mirror":false,"chromatic_density":0.25,"complexity":0.632,"dissonance":0.139},{"voice":0,"pitch":69,"start":111.3332,"duration":0.5,"velocity":127,"measure":42,"beat":4.0,"subject_pos":-1,"motif":"","motif_pos":-1,"best_pos":4,"similarity":0.571,"stretto":false,"stretto_voices":0,"combination":[],"aug_dim":"","rhythm_ratio":1.0,"mirror":false,"chromatic_density":0.25,"complexity":0.632,"dissonance":0.139},{"voice":1,"pitch":65,"start":111.3332,"duration":0.6667,"velocity":127,"measure":42,"beat":4.0,"subject_pos":-1,"motif":"","motif_pos":-1,"best_pos":6,"similarity":0.579,"stretto":false,"stretto_voices":0,"combination":[],"aug_dim":"","rhythm_ratio":1.0,"mirror":false,"chromatic_density":0.25,"complexity":0.632,"dissonance":0.139},{"voice":0,"pitch":70,"start":111.8332,"duration":0.1667,"velocity":127,"measure":42,"beat":4.75,"subject_pos":-1,"motif":"","motif_pos":-1,"best_pos":5,"similarity":0.5,"stretto":false,"stretto_voices":0,"combination":[],"aug_dim":"","rhythm_ratio":1.0,"mirror":false,"chromatic_density":0.25,"complexity":0.632,"dissonance":0.139},{"voice":0,"pitch":70,"start":111.9999,"duration":0.6667,"velocity":127,"measure":43,"beat":1.0,"subject_pos":-1,"motif":"","motif_pos":-1,"best_pos":5,"similarity":0.471,"stretto":false,"stretto_voices":0,"combination":[],"aug_dim":"","rhythm_ratio":1.0,"mirror":false,"chromatic_density":0.304,"complexity":0.617,"dissonance":0.059},{"voice":1,"pitch":67,"start":111.9999,"duration":0.6667,"velocity":127,"measure":43,"beat":1.0,"subject_pos":-1,"motif":"","motif_pos":-1,"best_pos":1,"similarity":0.457,"stretto":false,"stretto_voices":0,"combination":[],"aug_dim":"","rhythm_ratio":1.0,"mirror":false,"chromatic_density":0.304,"complexity":0.617,"dissonance":0.059},{"voice":3,"pitch":51,"start":112.1666,"duration":0.0833,"velocity":127,"measure":43,"beat":1.25,"subject_pos":-1,"motif":"","motif_pos":-1,"best_pos":3,"similarity":0.593,"stretto":false,"stretto_voices":0,"combination":[],"aug_dim":"","rhythm_ratio":1.0,"mirror":false,"chromatic_density":0.304,"complexity":0.617,"dissonance":0.059},{"voice":3,"pitch":50,"start":112.2499,"duration":0.0833,"velocity":127,"measure":43,"beat":1.375,"subject_pos":-1,"motif":"","motif_pos":-1,"best_pos":4,"similarity":0.657,"stretto":false,"stretto_voices":0,"combination":[],"aug_dim":"","rhythm_ratio":1.0,"mirror":false,"chromatic_density":0.304,"complexity":0.617,"dissonance":0.059},{"voice":3,"pitch":51,"start":112.3332,"duration":0.1667,"velocity":127,"measure":43,"beat":1.5,"subject_pos":-1,"motif":"","motif_pos":-1,"best_pos":5,"similarity":0.479,"stretto":false,"stretto_voices":0,"combination":[],"aug_dim":"","rhythm_ratio":1.0,"mirror":false,"chromatic_density":0.304,"complexity":0.617,"dissonance":0.059},{"voice":3,"pitch":48,"start":112.4999,"duration":0.1667,"velocity":127,"measure":43,"beat":1.75,"subject_pos":-1,"motif":"","motif_pos":-1,"best_pos":2,"similarity":0.55,"stretto":false,"stretto_voices":0,"combination":[],"aug_dim":"","rhythm_ratio":1.0,"mirror":false,"chromatic_density":0.304,"complexity":0.617,"dissonance":0.059},{"voice":1,"pitch":65,"start":112.6666,"duration":0.5,"velocity":127,"measure":43,"beat":2.0,"subject_pos":-1,"motif":"","motif_pos":-1,"best_pos":2,"similarity":0.593,"stretto":false,"stretto_voices":0,"combination":[],"aug_dim":"","rhythm_ratio":1.0,"mirror":false,"chromatic_density":0.304,"complexity":0.617,"dissonance":0.059},{"voice":3,"pitch":45,"start":112.6666,"duration":0.5,"velocity":127,"measure":43,"beat":2.0,"subject_pos":-1,"motif":"","motif_pos":-1,"best_pos":3,"similarity":0.614,"stretto":false,"stretto_voices":0,"combination":[],"aug_dim":"","rhythm_ratio":1.0,"mirror":false,"chromatic_density":0.304,"complexity":0.617,"dissonance":0.059},{"voice":0,"pitch":72,"start":113.1666,"duration":0.1667,"velocity":127,"measure":43,"beat":2.75,"subject_pos":-1,"motif":"","motif_pos":-1,"best_pos":6,"similarity":0.375,"stretto":false,"stretto_voices":0,"combination":[],"aug_dim":"","rhythm_ratio":1.0,"mirror":false,"chromatic_density":0.304,"complexity":0.617,"dissonance":0.059},{"voice":1,"pitch":63,"start":113.1666,"duration":0.1667,"velocity":127,"measure":43,"beat":2.75,"subject_pos":-1,"motif":"","motif_pos":-1,"best_pos":3,"similarity":0.664,"stretto":false,"stretto_voices":0,"combination":[],"aug_dim":"","rhythm_ratio":1.0,"mirror":false,"chromatic_density":0.304,"complexity":0.617,"dissonance":0.059},{"voice":3,"pitch":43,"start":113.1666,"duration":0.0833,"velocity":127,"measure":43,"beat":2.75,"subject_pos":-1,"motif":"","motif_pos":-1,"best_pos":5,"similarity":0.564,"stretto":false,"stretto_voices":0,"combination":[],"aug_dim":"","rhythm_ratio":1.0,"mirror":false,"chromatic_density":0.304,"complexity":0.617,"dissonance":0.059},{"voice":3,"pitch":45,"start":113.2499,"duration":0.0833,"velocity":127,"measure":43,"beat":2.875,"subject_pos":-1,"motif":"","motif_pos":-1,"best_pos":6,"similarity":0.604,"stretto":false,"stretto_voices":0,"combination":[],"aug_dim":"","rhythm_ratio":1.0,"mirror":false,"chromatic_density":0.304,"complexity":0.617,"dissonance":0.059},{"voice":0,"pitch":65,"start":113.3332,"duration":0.4167,"velocity":127,"measure":43,"beat":3.0,"subject_pos":-1,"motif":"","motif_pos":-1,"best_pos":5,"similarity":0.321,"stretto":false,"stretto_voices":0,"combination":[],"aug_dim":"","rhythm_ratio":1.0,"mirror":false,"chromatic_density":0.304,"complexity":0.617,"dissonance":0.059},{"voice":1,"pitch":62,"start":113.3332,"duration":0.8333,"velocity":127,"measure":43,"beat":3.0,"subject_pos":-1,"motif":"","motif_pos":-1,"best_pos":4,"similarity":0.636,"stretto":false,"stretto_voices":0,"combination":[],"aug_dim":"","rhythm_ratio":1.0,"mirror":false,"chromatic_density":0.304,"complexity":0.617,"dissonance":0.059},{"voice":3,"pitch":46,"start":113.3332,"duration":0.5,"velocity":127,"measure":43,"beat":3.0,"subject_pos":-1,"motif":"","motif_pos":-1,"best_pos":7,"similarity":0.436,"stretto":false,"stretto_voices":0,"combination":[],"aug_dim":"","rhythm_ratio":1.0,"mirror":false,"chromatic_density":0.304,"complexity":0.617,"dissonance":0.059},{"voice":0,"pitch":67,"start":113.7499,"duration":0.0833,"velocity":127,"measure":43,"beat":3.625,"subject_pos":-1,"motif":"","motif_pos":-1,"best_pos":2,"similarity":0.386,"stretto":false,"stretto_voices":0,"combination":[],"aug_dim":"","rhythm_ratio":1.0,"mirror":false,"chromatic_density":0.304,"complexity":0.617,"dissonance":0.059},{"voice":0,"pitch":65,"start":113.8332,"duration":0.0833,"velocity":127,"measure":43,"beat":3.75,"subject_pos":-1,"motif":"","motif_pos":-1,"best_pos":3,"similarity":0.657,"stretto":false,"stretto_voices":0,"combination":[],"aug_dim":"","rhythm_ratio":1.0,"mirror":false,"chromatic_density":0.304,"complexity":0.617,"dissonance":0.059},{"voice":3,"pitch":58,"start":113.8332,"duration":0.1667,"velocity":127,"measure":43,"beat":3.75,"subject_pos":-1,"motif":"","motif_pos":-1,"best_pos":3,"similarity":0.329,"stretto":false,"stretto_voices":0,"combination":[],"aug_dim":"","rhythm_ratio":1.0,"mirror":false,"chromatic_density":0.304,"complexity":0.617,"dissonance":0.059},{"voice":0,"pitch":64,"start":113.9166,"duration":0.0833,"velocity":127,"measure":43,"beat":3.875,"subject_pos":-1,"motif":"","motif_pos":-1,"best_pos":4,"similarity":0.829,"stretto":false,"stretto_voices":0,"combination":[],"aug_dim":"","rhythm_ratio":1.0,"mirror":false,"chromatic_density":0.304,"complexity":0.617,"dissonance":0.059},{"voice":0,"pitch":65,"start":113.9999,"duration":0.5,"velocity":127,"measure":43,"beat":4.0,"subject_pos":-1,"motif":"","motif_pos":-1,"best_pos":5,"similarity":0.821,"stretto":false,"stretto_voices":0,"combination":[],"aug_dim":"","rhythm_ratio":1.0,"mirror":false,"chromatic_density":0.304,"complexity":0.617,"dissonance":0.059},{"voice":3,"pitch":57,"start":113.9999,"duration":0.5,"velocity":127,"measure":43,"beat":4.0,"subject_pos":-1,"motif":"","motif_pos":-1,"best_pos":1,"similarity":0.357,"stretto":false,"stretto_voices":0,"combination":[],"aug_dim":"","rhythm_ratio":1.0,"mirror":false,"chromatic_density":0.304,"complexity":0.617,"dissonance":0.059},{"voice":1,"pitch":60,"start":114.1666,"duration":0.1667,"velocity":127,"measure":43,"beat":4.25,"subject_pos":-1,"motif":"","motif_pos":-1,"best_pos":4,"similarity":0.607,"stretto":false,"stretto_voices":0,"combination":[],"aug_dim":"","rhythm_ratio":1.0,"mirror":false,"chromatic_density":0.304,"complexity":0.617,"dissonance":0.059},{"voice":1,"pitch":62,"start":114.3332,"duration":0.1667,"velocity":127,"measure":43,"beat":4.5,"subject_pos":-1,"motif":"","motif_pos":-1,"best_pos":5,"similarity":0.661,"stretto":false,"stretto_voices":0,"combination":[],"aug_dim":"","rhythm_ratio":1.0,"mirror":false,"chromatic_density":0.304,"complexity":0.617,"dissonance":0.059},{"voice":0,"pitch":67,"start":114.4999,"duration":0.1667,"velocity":127,"measure":43,"beat":4.75,"subject_pos":-1,"motif":"","motif_pos":-1,"best_pos":6,"similarity":0.643,"stretto":false,"stretto_voices":0,"combination":[],"aug_dim":"","rhythm_ratio":1.0,"mirror":false,"chromatic_density":0.304,"complexity":0.617,"dissonance":0.059},{"voice":1,"pitch":64,"start":114.4999,"duration":0.1667,"velocity":127,"measure":43,"beat":4.75,"subject_pos":-1,"motif":"enigmatic_cell","motif_pos":0,"best_pos":0,"similarity":1.0,"stretto":false,"stretto_voices":0,"combination":[],"aug_dim":"","rhythm_ratio":1.0,"mirror":false,"chromatic_density":0.304,"complexity":0.617,"dissonance":0.059},{"voice":3,"pitch":55,"start":114.4999,"duration":0.1667,"velocity":127,"measure":43,"beat":4.75,"subject_pos":-1,"motif":"","motif_pos":-1,"best_pos":2,"similarity":0.436,"stretto":false,"stretto_voices":0,"combination":[],"aug_dim":"","rhythm_ratio":1.0,"mirror":false,"chromatic_density":0.304,"complexity":0.617,"dissonance":0.059},{"voice":0,"pitch":69,"start":114.6666,"duration":0.8333,"velocity":127,"measure":44,"beat":1.0,"subject_pos":-1,"motif":"","motif_pos":-1,"best_pos":6,"similarity":0.404,"stretto":false,"stretto_voices":0,"combination":[],"aug_dim":"","rhythm_ratio":1.0,"mirror":false,"chromatic_density":0.211,"complexity":0.579,"dissonance":0.236},{"voice":1,"pitch":65,"start":114.6666,"duration":0.5,"velocity":127,"measure":44,"beat":1.0,"subject_pos":-1,"motif":"enigmatic_cell","motif_pos":1,"best_pos":1,"similarity":1.0,"stretto":false,"stretto_voices":0,"combination":[],"aug_dim":"","rhythm_ratio":1.0,"mirror":false,"chromatic_density":0.211,"complexity":0.579,"dissonance":0.236},{"voice":3,"pitch":53,"start":114.6666,"duration":0.5,"velocity":127,"measure":44,"beat":1.0,"subject_pos":-1,"motif":"","motif_pos":-1,"best_pos":2,"similarity":0.375,"stretto":false,"stretto_voices":0,"combination":[],"aug_dim":"","rhythm_ratio":1.0,"mirror":false,"chromatic_density":0.211,"complexity":0.579,"dissonance":0.236},{"voice":1,"pitch":60,"start":115.1666,"duration":0.1667,"velocity":127,"measure":44,"beat":1.75,"subject_pos":-1,"motif":"enigmatic_cell","motif_pos":2,"best_pos":2,"similarity":1.0,"stretto":false,"stretto_voices":0,"combination":[],"aug_dim":"","rhythm_ratio":1.0,"mirror":false,"chromatic_density":0.211,"complexity":0.579,"dissonance":0.236},{"voice":3,"pitch":41,"start":115.1666,"duration":0.1667,"velocity":127,"measure":44,"beat":1.75,"subject_pos":-1,"motif":"","motif_pos":-1,"best_pos":1,"similarity":0.357,"stretto":false,"stretto_voices":0,"combination":[],"aug_dim":"","rhythm_ratio":1.0,"mirror":false,"chromatic_density":0.211,"complexity":0.579,"dissonance":0.236},{"voice":1,"pitch":65,"start":115.3332,"duration":1.3333,"velocity":127,"measure":44,"beat":2.0,"subject_pos":-1,"motif":"","motif_pos":-1,"best_pos":1,"similarity":0.507,"stretto":false,"stretto_voices":0,"combination":[],"aug_dim":"","rhythm_ratio":1.0,"mirror":false,"chromatic_density":0.211,"complexity":0.579,"dissonance":0.236},{"voice":3,"pitch":39,"start":115.3332,"duration":0.5,"velocity":127,"measure":44,"beat":2.0,"subject_pos":-1,"motif":"","motif_pos":-1,"best_pos":3,"similarity":0.443,"stretto":false,"stretto_voices":0,"combination":[],"aug_dim":"","rhythm_ratio":1.0,"mirror":false,"chromatic_density":0.211,"complexity":0.579,"dissonance":0.236},{"voice":0,"pitch":67,"start":115.4999,"duration":0.1667,"velocity":127,"measure":44,"beat":2.25,"subject_pos":-1,"motif":"","motif_pos":-1,"best_pos":4,"similarity":0.507,"stretto":false,"stretto_voices":0,"combination":[],"aug_dim":"","rhythm_ratio":1.0,"mirror":false,"chromatic_density":0.211,"complexity":0.579,"dissonance":0.236},{"voice":0,"pitch":69,"start":115.6666,"duration":0.1667,"velocity":127,"measure":44,"beat":2.5,"subject_pos":-1,"motif":"","motif_pos":-1,"best_pos":5,"similarity":0.643,"stretto":false,"stretto_voices":0,"combination":[],"aug_dim":"","rhythm_ratio":1.0,"mirror":false,"chromatic_density":0.211,"complexity":0.579,"dissonance":0.236},{"voice":0,"pitch":71,"start":115.8332,"duration":0.1667,"velocity":127,"measure":44,"beat":2.75,"subject_pos":-1,"motif":"enigmatic_cell","motif_pos":0,"best_pos":0,"similarity":1.0,"stretto":false,"stretto_voices":0,"combination":[],"aug_dim":"","rhythm_ratio":1.0,"mirror":false,"chromatic_density":0.211,"complexity":0.579,"dissonance":0.236},{"voice":3,"pitch":38,"start":115.8332,"duration":0.1667,"velocity":127,"measure":44,"beat":2.75,"subject_pos":-1,"motif":"","motif_pos":-1,"best_pos":4,"similarity":0.393,"stretto":false,"stretto_voices":0,"combination":[],"aug_dim":"","rhythm_ratio":1.0,"mirror":false,"chromatic_density":0.211,"complexity":0.579,"dissonance":0.236},{"voice":0,"pitch":72,"start":115.9999,"duration":0.5,"velocity":127,"measure":44,"beat":3.0,"subject_pos":-1,"motif":"enigmatic_cell","motif_pos":1,"best_pos":1,"similarity":1.0,"stretto":false,"stretto_voices":0,"combination":[],"aug_dim":"","rhythm_ratio":1.0,"mirror":false,"chromatic_density":0.211,"complexity":0.579,"dissonance":0.236},{"voice":3,"pitch":36,"start":115.9999,"duration":0.5,"velocity":127,"measure":44,"beat":3.0,"subject_pos":-1,"motif":"","motif_pos":-1,"best_pos":2,"similarity":0.375,"stretto":false,"stretto_voices":0,"combination":[],"aug_dim":"","rhythm_ratio":1.0,"mirror":false,"chromatic_density":0.211,"complexity":0.579,"dissonance":0.236},{"voice":0,"pitch":67,"start":116.4999,"duration":0.1667,"velocity":127,"measure":44,"beat":3.75,"subject_pos":-1,"motif":"enigmatic_cell","motif_pos":2,"best_pos":2,"similarity":1.0,"stretto":false,"stretto_voices":0,"combination":[],"aug_dim":"","rhythm_ratio":1.0,"mirror":false,"chromatic_density":0.211,"complexity":0.579,"dissonance":0.236},{"voice":3,"pitch":48,"start":116.4999,"duration":0.1667,"velocity":127,"measure":44,"beat":3.75,"subject_pos":-1,"motif":"","motif_pos":-1,"best_pos":1,"similarity":0.357,"stretto":false,"stretto_voices":0,"combination":[],"aug_dim":"","rhythm_ratio":1.0,"mirror":false,"chromatic_density":0.211,"complexity":0.579,"dissonance":0.236},{"voice":0,"pitch":72,"start":116.6666,"duration":1.3333,"velocity":127,"measure":44,"beat":4.0,"subject_pos":-1,"motif":"","motif_pos":-1,"best_pos":1,"similarity":0.507,"stretto":false,"stretto_voices":0,"combination":[],"aug_dim":"","rhythm_ratio":1.0,"mirror":false,"chromatic_density":0.211,"complexity":0.579,"dissonance":0.236},{"voice":1,"pitch":64,"start":116.6666,"duration":0.1667,"velocity":127,"measure":44,"beat":4.0,"subject_pos":-1,"motif":"","motif_pos":-1,"best_pos":4,"similarity":0.529,"stretto":false,"stretto_voices":0,"combination":[],"aug_dim":"","rhythm_ratio":1.0,"mirror":false,"chromatic_density":0.211,"complexity":0.579,"dissonance":0.236},{"voice":3,"pitch":46,"start":116.6666,"duration":0.5,"velocity":127,"measure":44,"beat":4.0,"subject_pos":-1,"motif":"","motif_pos":-1,"best_pos":3,"similarity":0.443,"stretto":false,"stretto_voices":0,"combination":[],"aug_dim":"","rhythm_ratio":1.0,"mirror":false,"chromatic_density":0.211,"complexity":0.579,"dissonance":0.236},{"voice":1,"pitch":62,"start":116.8332,"duration":0.1667,"velocity":127,"measure":44,"beat":4.25,"subject_pos":-1,"motif":"","motif_pos":-1,"best_pos":4,"similarity":0.536,"stretto":false,"stretto_voices":0,"combination":[],"aug_dim":"","rhythm_ratio":1.0,"mirror":false,"chromatic_density":0.211,"complexity":0.579,"dissonance":0.236},{"voice":1,"pitch":64,"start":116.9999,"duration":0.1667,"velocity":127,"measure":44,"beat":4.5,"subject_pos":-1,"motif":"","motif_pos":-1,"best_pos":5,"similarity":0.661,"stretto":false,"stretto_voices":0,"combination":[],"aug_dim":"","rhythm_ratio":1.0,"mirror":false,"chromatic_density":0.211,"complexity":0.579,"dissonance":0.236},{"voice":1,"pitch":66,"start":117.1665,"duration":0.1667,"velocity":127,"measure":44,"beat":4.75,"subject_pos":-1,"motif":"enigmatic_cell","motif_pos":0,"best_pos":0,"similarity":1.0,"stretto":false,"stretto_voices":0,"combination":[],"aug_dim":"","rhythm_ratio":1.0,"mirror":false,"chromatic_density":0.211,"complexity":0.579,"dissonance":0.236},{"voice":3,"pitch":45,"start":117.1665,"duration":0.1667,"velocity":127,"measure":44,"beat":4.75,"subject_pos":-1,"motif":"","motif_pos":-1,"best_pos":4,"similarity":0.393,"stretto":false,"stretto_voices":0,"combination":[],"aug_dim":"","rhythm_ratio":1.0,"mirror":false,"chromatic_density":0.211,"complexity":0.579,"dissonance":0.236},{"voice":1,"pitch":67,"start":117.3332,"duration":0.5,"velocity":127,"measure":45,"beat":1.0,"subject_pos":-1,"motif":"enigmatic_cell","motif_pos":1,"best_pos":1,"similarity":1.0,"stretto":false,"stretto_voices":0,"combination":[],"aug_dim":"","rhythm_ratio":1.0,"mirror":false,"chromatic_density":0.238,"complexity":0.637,"dissonance":0.137},{"voice":3,"pitch":43,"start":117.3332,"duration":0.5,"velocity":127,"measure":45,"beat":1.0,"subject_pos":-1,"motif":"","motif_pos":-1,"best_pos":2,"similarity":0.375,"stretto":false,"stretto_voices":0,"combination":[],"aug_dim":"","rhythm_ratio":1.0,"mirror":false,"chromatic_density":0.238,"complexity":0.637,"dissonance":0.137},{"voice":1,"pitch":62,"start":117.8332,"duration":0.1667,"velocity":127,"measure":45,"beat":1.75,"subject_pos":-1,"motif":"enigmatic_cell","motif_pos":2,"best_pos":2,"similarity":1.0,"stretto":false,"stretto_voices":0,"combination":[],"aug_dim":"","rhythm_ratio":1.0,"mirror":false,"chromatic_density":0.238,"complexity":0.637,"dissonance":0.137},{"voice":3,"pitch":55,"start":117.8332,"duration":0.1667,"velocity":127,"measure":45,"beat":1.75,"subject_pos":-1,"motif":"","motif_pos":-1,"best_pos":1,"similarity":0.357,"stretto":false,"stretto_voices":0,"combination":[],"aug_dim":"","rhythm_ratio":1.0,"mirror":false,"chromatic_density":0.238,"complexity":0.637,"dissonance":0.137},{"voice":0,"pitch":71,"start":117.9999,"duration":0.1667,"velocity":127,"measure":45,"beat":2.0,"subject_pos":-1,"motif":"","motif_pos":-1,"best_pos":4,"similarity":0.529,"stretto":false,"stretto_voices":0,"combination":[],"aug_dim":"","rhythm_ratio":1.0,"mirror":false,"chromatic_density":0.238,"complexity":0.637,"dissonance":0.137},{"voice":1,"pitch":67,"start":117.9999,"duration":1.3333,"velocity":127,"measure":45,"beat":2.0,"subject_pos":-1,"motif":"","motif_pos":-1,"best_pos":1,"similarity":0.589,"stretto":false,"stretto_voices":0,"combination":[],"aug_dim":"","rhythm_ratio":1.0,"mirror":false,"chromatic_density":0.238,"complexity":0.637,"dissonance":0.137},{"voice":3,"pitch":53,"start":117.9999,"duration":0.5,"velocity":127,"measure":45,"beat":2.0,"subject_pos":-1,"motif":"","motif_pos":-1,"best_pos":3,"similarity":0.443,"stretto":false,"stretto_voices":0,"combination":[],"aug_dim":"","rhythm_ratio":1.0,"mirror":false,"chromatic_density":0.238,"complexity":0.637,"dissonance":0.137},{"voice":0,"pitch":69,"start":118.1665,"duration":0.1667,"velocity":127,"measure":45,"beat":2.25,"subject_pos":-1,"motif":"","motif_pos":-1,"best_pos":4,"similarity":0.536,"stretto":false,"stretto_voices":0,"combination":[],"aug_dim":"","rhythm_ratio":1.0,"mirror":false,"chromatic_density":0.238,"complexity":0.637,"dissonance":0.137},{"voice":0,"pitch":71,"start":118.3332,"duration":0.1667,"velocity":127,"measure":45,"beat":2.5,"subject_pos":-1,"motif":"","motif_pos":-1,"best_pos":5,"similarity":0.661,"stretto":false,"stretto_voices":0,"combination":[],"aug_dim":"","rhythm_ratio":1.0,"mirror":false,"chromatic_density":0.238,"complexity":0.637,"dissonance":0.137},{"voice":0,"pitch":73,"start":118.4999,"duration":0.1667,"velocity":127,"measure":45,"beat":2.75,"subject_pos":-1,"motif":"","motif_pos":-1,"best_pos":6,"similarity":0.679,"stretto":false,"stretto_voices":0,"combination":[],"aug_dim":"","rhythm_ratio":1.0,"mirror":false,"chromatic_density":0.238,"complexity":0.637,"dissonance":0.137},{"voice":3,"pitch":52,"start":118.4999,"duration":0.1667,"velocity":127,"measure":45,"beat":2.75,"subject_pos":-1,"motif":"","motif_pos":-1,"best_pos":3,"similarity":0.429,"stretto":false,"stretto_voices":0,"combination":[],"aug_dim":"","rhythm_ratio":1.0,"mirror":false,"chromatic_density":0.238,"complexity":0.637,"dissonance":0.137},{"voice":0,"pitch":74,"start":118.6665,"duration":0.5,"velocity":127,"measure":45,"beat":3.0,"subject_pos":-1,"motif":"","motif_pos":-1,"best_pos":5,"similarity":0.729,"stretto":false,"stretto_voices":0,"combination":[],"aug_dim":"","rhythm_ratio":1.0,"mirror":false,"chromatic_density":0.238,"complexity":0.637,"dissonance":0.137},{"voice":3,"pitch":50,"start":118.6665,"duration":0.4167,"velocity":127,"measure":45,"beat":3.0,"subject_pos":-1,"motif":"","motif_pos":-1,"best_pos":4,"similarity":0.429,"stretto":false,"stretto_voices":0,"combination":[],"aug_dim":"","rhythm_ratio":1.0,"mirror":false,"chromatic_density":0.238,"complexity":0.637,"dissonance":0.137},{"voice":3,"pitch":57,"start":119.0832,"duration":0.0833,"velocity":127,"measure":45,"beat":3.625,"subject_pos":-1,"motif":"","motif_pos":-1,"best_pos":4,"similarity":0.464,"stretto":false,"stretto_voices":0,"combination":[],"aug_dim":"","rhythm_ratio":1.0,"mirror":false,"chromatic_density":0.238,"complexity":0.637,"dissonance":0.137},{"voice":0,"pitch":76,"start":119.1665,"duration":0.1667,"velocity":127,"measure":45,"beat":3.75,"subject_pos":-1,"motif":"","motif_pos":-1,"best_pos":6,"similarity":0.721,"stretto":false,"stretto_voices":0,"combination":[],"aug_dim":"","rhythm_ratio":1.0,"mirror":false,"chromatic_density":0.238,"complexity":0.637,"dissonance":0.137},{"voice":3,"pitch":59,"start":119.1665,"duration":0.0833,"velocity":127,"measure":45,"beat":3.75,"subject_pos":-1,"motif":"","motif_pos":-1,"best_pos":5,"similarity":0.607,"stretto":false,"stretto_voices":0,"combination":[],"aug_dim":"","rhythm_ratio":1.0,"mirror":false,"chromatic_density":0.238,"complexity":0.637,"dissonance":0.137},{"voice":3,"pitch":61,"start":119.2499,"duration":0.0833,"velocity":127,"measure":45,"beat":3.875,"subject_pos":-1,"motif":"","motif_pos":-1,"best_pos":6,"similarity":0.643,"stretto":false,"stretto_voices":0,"combination":[],"aug_dim":"","rhythm_ratio":1.0,"mirror":false,"chromatic_density":0.238,"complexity":0.637,"dissonance":0.137},{"voice":0,"pitch":77,"start":119.3332,"duration":1.1667,"velocity":127,"measure":45,"beat":4.0,"subject_pos":-1,"motif":"","motif_pos":-1,"best_pos":7,"similarity":0.5,"stretto":false,"stretto_voices":0,"combination":[],"aug_dim":"","rhythm_ratio":1.0,"mirror":false,"chromatic_density":0.238,"complexity":0.637,"dissonance":0.137},{"voice":1,"pitch":65,"start":119.3332,"duration":0.4167,"velocity":127,"measure":45,"beat":4.0,"subject_pos":-1,"motif":"","motif_pos":-1,"best_pos":2,"similarity":0.5,"stretto":false,"stretto_voices":0,"combination":[],"aug_dim":"","rhythm_ratio":1.0,"mirror":false,"chromatic_density":0.238,"complexity":0.637,"dissonance":0.137},{"voice":3,"pitch":62,"start":119.3332,"duration":0.5,"velocity":127,"measure":45,"beat":4.0,"subject_pos":-1,"motif":"","motif_pos":-1,"best_pos":7,"similarity":0.464,"stretto":false,"stretto_voices":0,"combination":[],"aug_dim":"","rhythm_ratio":1.0,"mirror":false,"chromatic_density":0.238,"complexity":0.637,"dissonance":0.137},{"voice":1,"pitch":69,"start":119.7499,"duration":0.0833,"velocity":127,"measure":45,"beat":4.625,"subject_pos":-1,"motif":"","motif_pos":-1,"best_pos":4,"similarity":0.536,"stretto":false,"stretto_voices":0,"combination":[],"aug_dim":"","rhythm_ratio":1.0,"mirror":false,"chromatic_density":0.238,"complexity":0.637,"dissonance":0.137},{"voice":1,"pitch":70,"start":119.8332,"duration":0.0833,"velocity":127,"measure":45,"beat":4.75,"subject_pos":-1,"motif":"","motif_pos":-1,"best_pos":5,"similarity":0.679,"stretto":false,"stretto_voices":0,"combination":[],"aug_dim":"","rhythm_ratio":1.0,"mirror":false,"chromatic_density":0.238,"complexity":0.637,"dissonance":0.137},{"voice":3,"pitch":60,"start":119.8332,"duration":0.1667,"velocity":127,"measure":45,"beat":4.75,"subject_pos":-1,"motif":"","motif_pos":-1,"best_pos":2,"similarity":0.657,"stretto":false,"stretto_voices":0,"combination":[],"aug_dim":"","rhythm_ratio":1.0,"mirror":false,"chromatic_density":0.238,"complexity":0.637,"dissonance":0.137},{"voice":1,"pitch":72,"start":119.9165,"duration":0.0833,"velocity":127,"measure":45,"beat":4.875,"subject_pos":-1,"motif":"","motif_pos":-1,"best_pos":6,"similarity":0.571,"stretto":false,"stretto_voices":0,"combination":[],"aug_dim":"","rhythm_ratio":1.0,"mirror":false,"chromatic_density":0.238,"complexity":0.637,"dissonance":0.137},{"voice":1,"pitch":74,"start":119.9999,"duration":0.6667,"velocity":127,"measure":46,"beat":1.0,"subject_pos":-1,"motif":"","motif_pos":-1,"best_pos":6,"similarity":0.375,"stretto":false,"stretto_voices":0,"combination":[],"aug_dim":"","rhythm_ratio":1.0,"mirror":false,"chromatic_density":0.333,"complexity":0.535,"dissonance":0.115},{"voice":3,"pitch":58,"start":119.9999,"duration":0.5,"velocity":127,"measure":46,"beat":1.0,"subject_pos":-1,"motif":"","motif_pos":-1,"best_pos":3,"similarity":0.721,"stretto":false,"stretto_voices":0,"combination":[],"aug_dim":"","rhythm_ratio":1.0,"mirror":false,"chromatic_density":0.333,"complexity":0.535,"dissonance":0.115},{"voice":0,"pitch":77,"start":120.4999,"duration":0.1667,"velocity":127,"measure":46,"beat":1.75,"subject_pos":-1,"motif":"","motif_pos":-1,"best_pos":3,"similarity":0.357,"stretto":false,"stretto_voices":0,"combination":[],"aug_dim":"","rhythm_ratio":1.0,"mirror":false,"chromatic_density":0.333,"complexity":0.535,"dissonance":0.115},{"voice":3,"pitch":57,"start":120.4999,"duration":0.1667,"velocity":127,"measure":46,"beat":1.75,"subject_pos":-1,"motif":"","motif_pos":-1,"best_pos":4,"similarity":0.75,"stretto":false,"stretto_voices":0,"combination":[],"aug_dim":"","rhythm_ratio":1.0,"mirror":false,"chromatic_density":0.333,"complexity":0.535,"dissonance":0.115},{"voice":0,"pitch":76,"start":120.6665,"duration":0.5,"velocity":127,"measure":46,"beat":2.0,"subject_pos":-1,"motif":"","motif_pos":-1,"best_pos":2,"similarity":0.429,"stretto":false,"stretto_voices":0,"combination":[],"aug_dim":"","rhythm_ratio":1.0,"mirror":false,"chromatic_density":0.333,"complexity":0.535,"dissonance":0.115},{"voice":1,"pitch":67,"start":120.6665,"duration":1.3333,"velocity":127,"measure":46,"beat":2.0,"subject_pos":-1,"motif":"","motif_pos":-1,"best_pos":1,"similarity":0.436,"stretto":false,"stretto_voices":0,"combination":[],"aug_dim":"","rhythm_ratio":1.0,"mirror":false,"chromatic_density":0.333,"complexity":0.535,"dissonance":0.115},{"voice":3,"pitch":58,"start":120.6665,"duration":0.5,"velocity":127,"measure":46,"beat":2.0,"subject_pos":-1,"motif":"","motif_pos":-1,"best_pos":5,"similarity":0.536,"stretto":false,"stretto_voices":0,"combination":[],"aug_dim":"","rhythm_ratio":1.0,"mirror":false,"chromatic_density":0.333,"complexity":0.535,"dissonance":0.115},{"voice":0,"pitch":74,"start":121.1665,"duration":0.1667,"velocity":127,"measure":46,"beat":2.75,"subject_pos":-1,"motif":"","motif_pos":-1,"best_pos":3,"similarity":0.507,"stretto":false,"stretto_voices":0,"combination":[],"aug_dim":"","rhythm_ratio":1.0,"mirror":false,"chromatic_density":0.333,"complexity":0.535,"dissonance":0.115},{"voice":3,"pitch":55,"start":121.1665,"duration":0.1667,"velocity":127,"measure":46,"beat":2.75,"subject_pos":-1,"motif":"","motif_pos":-1,"best_pos":5,"similarity":0.368,"stretto":false,"stretto_voices":0,"combination":[],"aug_dim":"","rhythm_ratio":1.0,"mirror":false,"chromatic_density":0.333,"complexity":0.535,"dissonance":0.115},{"voice":0,"pitch":73,"start":121.3332,"duration":0.5,"velocity":127,"measure":46,"beat":3.0,"subject_pos":-1,"motif":"","motif_pos":-1,"best_pos":4,"similarity":0.414,"stretto":false,"stretto_voices":0,"combination":[],"aug_dim":"","rhythm_ratio":1.0,"mirror":false,"chromatic_density":0.333,"complexity":0.535,"dissonance":0.115},{"voice":3,"pitch":57,"start":121.3332,"duration":0.6667,"velocity":127,"measure":46,"beat":3.0,"subject_pos":-1,"motif":"","motif_pos":-1,"best_pos":6,"similarity":0.318,"stretto":false,"stretto_voices":0,"combination":[],"aug_dim":"","rhythm_ratio":1.0,"mirror":false,"chromatic_density":0.333,"complexity":0.535,"dissonance":0.115},{"voice":0,"pitch":69,"start":121.8332,"duration":0.1667,"velocity":127,"measure":46,"beat":3.75,"subject_pos":-1,"motif":"","motif_pos":-1,"best_pos":0,"similarity":0.446,"stretto":false,"stretto_voices":0,"combination":[],"aug_dim":"","rhythm_ratio":1.0,"mirror":false,"chromatic_density":0.333,"complexity":0.535,"dissonance":0.115},{"voice":0,"pitch":74,"start":121.9999,"duration":1.1667,"velocity":127,"measure":46,"beat":4.0,"subject_pos":-1,"motif":"","motif_pos":-1,"best_pos":1,"similarity":0.625,"stretto":false,"stretto_voices":0,"combination":[],"aug_dim":"","rhythm_ratio":1.0,"mirror":false,"chromatic_density":0.333,"complexity":0.535,"dissonance":0.115},{"voice":1,"pitch":65,"start":121.9999,"duration":0.5,"velocity":127,"measure":46,"beat":4.0,"subject_pos":-1,"motif":"","motif_pos":-1,"best_pos":2,"similarity":0.593,"stretto":false,"stretto_voices":0,"combination":[],"aug_dim":"","rhythm_ratio":1.0,"mirror":false,"chromatic_density":0.333,"complexity":0.535,"dissonance":0.115},{"voice":1,"pitch":62,"start":122.4999,"duration":0.1667,"velocity":127,"measure":46,"beat":4.75,"subject_pos":-1,"motif":"","motif_pos":-1,"best_pos":3,"similarity":0.479,"stretto":false,"stretto_voices":0,"combination":[],"aug_dim":"","rhythm_ratio":1.0,"mirror":false,"chromatic_density":0.333,"complexity":0.535,"dissonance":0.115},{"voice":1,"pitch":64,"start":122.6665,"duration":0.6667,"velocity":127,"measure":47,"beat":1.0,"subject_pos":-1,"motif":"","motif_pos":-1,"best_pos":0,"similarity":0.464,"stretto":false,"stretto_voices":0,"combination":[],"aug_dim":"","rhythm_ratio":1.0,"mirror":false,"chromatic_density":0.462,"complexity":0.601,"dissonance":0.206},{"voice":3,"pitch":45,"start":122.6665,"duration":1.3333,"velocity":127,"measure":47,"beat":1.0,"subject_pos":0,"motif":"subject_inv","motif_pos":0,"best_pos":0,"similarity":1.0,"stretto":false,"stretto_voices":0,"combination":[],"aug_dim":"augmentation","rhythm_ratio":2.0,"mirror":false,"chromatic_density":0.462,"complexity":0.601,"dissonance":0.206},{"voice":0,"pitch":72,"start":123.1665,"duration":0.0833,"velocity":127,"measure":47,"beat":1.75,"subject_pos":-1,"motif":"","motif_pos":-1,"best_pos":3,"similarity":0.579,"stretto":false,"stretto_voices":0,"combination":[],"aug_dim":"","rhythm_ratio":1.0,"mirror":false,"chromatic_density":0.462,"complexity":0.601,"dissonance":0.206},{"voice":0,"pitch":71,"start":123.2499,"duration":0.0833,"velocity":127,"measure":47,"beat":1.875,"subject_pos":-1,"motif":"","motif_pos":-1,"best_pos":4,"similarity":0.675,"stretto":false,"stretto_voices":0,"combination":[],"aug_dim":"","rhythm_ratio":1.0,"mirror":false,"chromatic_density":0.462,"complexity":0.601,"dissonance":0.206},{"voice":0,"pitch":72,"start":123.3332,"duration":1.1667,"velocity":127,"measure":47,"beat":2.0,"subject_pos":-1,"motif":"","motif_pos":-1,"best_pos":5,"similarity":0.529,"stretto":false,"stretto_voices":0,"combination":[],"aug_dim":"","rhythm_ratio":1.0,"mirror":false,"chromatic_density":0.462,"complexity":0.601,"dissonance":0.206},{"voice":1,"pitch":69,"start":123.3332,"duration":0.5,"velocity":127,"measure":47,"beat":2.0,"subject_pos":-1,"motif":"","motif_pos":-1,"best_pos":1,"similarity":0.714,"stretto":false,"stretto_voices":0,"combination":[],"aug_dim":"","rhythm_ratio":1.0,"mirror":false,"chromatic_density":0.462,"complexity":0.601,"dissonance":0.206},{"voice":1,"pitch":67,"start":123.8332,"duration":0.1667,"velocity":127,"measure":47,"beat":2.75,"subject_pos":-1,"motif":"","motif_pos":-1,"best_pos":2,"similarity":0.721,"stretto":false,"stretto_voices":0,"combination":[],"aug_dim":"","rhythm_ratio":1.0,"mirror":false,"chromatic_density":0.462,"complexity":0.601,"dissonance":0.206},{"voice":1,"pitch":65,"start":123.9999,"duration":0.5,"velocity":127,"measure":47,"beat":3.0,"subject_pos":-1,"motif":"","motif_pos":-1,"best_pos":3,"similarity":0.664,"stretto":false,"stretto_voices":0,"combination":[],"aug_dim":"","rhythm_ratio":1.0,"mirror":false,"chromatic_density":0.462,"complexity":0.601,"dissonance":0.206},{"voice":3,"pitch":38,"start":123.9999,"duration":1.0,"velocity":127,"measure":47,"beat":3.0,"subject_pos":1,"motif":"subject_inv","motif_pos":1,"best_pos":1,"similarity":1.0,"stretto":false,"stretto_voices":0,"combination":[],"aug_dim":"augmentation","rhythm_ratio":2.0,"mirror":false,"chromatic_density":0.462,"complexity":0.601,"dissonance":0.206},{"voice":0,"pitch":70,"start":124.4999,"duration":0.0833,"velocity":127,"measure":47,"beat":3.75,"subject_pos":-1,"motif":"","motif_pos":-1,"best_pos":3,"similarity":0.604,"stretto":false,"stretto_voices":0,"combination":[],"aug_dim":"","rhythm_ratio":1.0,"mirror":false,"chromatic_density":0.462,"complexity":0.601,"dissonance":0.206},{"voice":1,"pitch":64,"start":124.4999,"duration":0.1667,"velocity":127,"measure":47,"beat":3.75,"subject_pos":-1,"motif":"","motif_pos":-1,"best_pos":4,"similarity":0.543,"stretto":false,"stretto_voices":0,"combination":[],"aug_dim":"","rhythm_ratio":1.0,"mirror":false,"chromatic_density":0.462,"complexity":0.601,"dissonance":0.206},{"voice":0,"pitch":69,"start":124.5832,"duration":0.0833,"velocity":127,"measure":47,"beat":3.875,"subject_pos":-1,"motif":"","motif_pos":-1,"best_pos":4,"similarity":0.704,"stretto":false,"stretto_voices":0,"combination":[],"aug_dim":"","rhythm_ratio":1.0,"mirror":false,"chromatic_density":0.462,"complexity":0.601,"dissonance":0.206},{"voice":0,"pitch":70,"start":124.6665,"duration":0.8333,"velocity":127,"measure":47,"beat":4.0,"subject_pos":-1,"motif":"","motif_pos":-1,"best_pos":5,"similarity":0.571,"stretto":false,"stretto_voices":0,"combination":[],"aug_dim":"","rhythm_ratio":1.0,"mirror":false,"chromatic_density":0.462,"complexity":0.601,"dissonance":0.206},{"voice":1,"pitch":62,"start":124.6665,"duration":0.5,"velocity":127,"measure":47,"beat":4.0,"subject_pos":-1,"motif":"tail","motif_pos":3,"best_pos":3,"similarity":1.0,"stretto":false,"stretto_voices":0,"combination":[],"aug_dim":"","rhythm_ratio":1.0,"mirror":false,"chromatic_density":0.462,"complexity":0.601,"dissonance":0.206},{"voice":3,"pitch":40,"start":124.9999,"duration":0.3333,"velocity":127,"measure":47,"beat":4.5,"subject_pos":2,"motif":"subject_inv","motif_pos":2,"best_pos":2,"similarity":1.0,"stretto":false,"stretto_voices":0,"combination":[],"aug_dim":"augmentation","rhythm_ratio":2.0,"mirror":false,"chromatic_density":0.462,"complexity":0.601,"dissonance":0.206},{"voice":1,"pitch":61,"start":125.1665,"duration":0.1667,"velocity":127,"measure":47,"beat":4.75,"subject_pos":-1,"motif":"tail","motif_pos":4,"best_pos":4,"similarity":1.0,"stretto":false,"stretto_voices":0,"combination":[],"aug_dim":"","rhythm_ratio":1.0,"mirror":false,"chromatic_density":0.462,"complexity":0.601,"dissonance":0.206},{"voice":1,"pitch":62,"start":125.3332,"duration":1.8333,"velocity":127,"measure":48,"beat":1.0,"subject_pos":-1,"motif":"tail","motif_pos":5,"best_pos":5,"similarity":1.0,"stretto":false,"stretto_voices":0,"combination":[],"aug_dim":"","rhythm_ratio":1.0,"mirror":false,"chromatic_density":0.25,"complexity":0.739,"dissonance":0.119},{"voice":2,"pitch":50,"start":125.3332,"duration":0.6667,"velocity":127,"measure":48,"beat":1.0,"subject_pos":0,"motif":"subject","motif_pos":0,"best_pos":0,"similarity":1.0,"stretto":true,"stretto_voices":2,"combination":[],"aug_dim":"","rhythm_ratio":1.0,"mirror":false,"chromatic_density":0.25,"complexity":0.739,"dissonance":0.119},{"voice":3,"pitch":41,"start":125.3332,"duration":1.0,"velocity":127,"measure":48,"beat":1.0,"subject_pos":3,"motif":"subject_inv","motif_pos":3,"best_pos":3,"similarity":1.0,"stretto":true,"stretto_voices":2,"combination":[],"aug_dim":"augmentation","rhythm_ratio":2.0,"mirror":false,"chromatic_density":0.25,"complexity":0.739,"dissonance":0.119},{"voice":0,"pitch":70,"start":125.4999,"duration":0.1667,"velocity":127,"measure":48,"beat":1.25,"subject_pos":-1,"motif":"","motif_pos":-1,"best_pos":6,"similarity":0.357,"stretto":false,"stretto_voices":0,"combination":[],"aug_dim":"","rhythm_ratio":1.0,"mirror":false,"chromatic_density":0.25,"complexity":0.739,"dissonance":0.119},{"voice":0,"pitch":69,"start":125.6665,"duration":0.1667,"velocity":127,"measure":48,"beat":1.5,"subject_pos":-1,"motif":"","motif_pos":-1,"best_pos":2,"similarity":0.393,"stretto":false,"stretto_voices":0,"combination":[],"aug_dim":"","rhythm_ratio":1.0,"mirror":false,"chromatic_density":0.25,"complexity":0.739,"dissonance":0.119},{"voice":0,"pitch":67,"start":125.8332,"duration":0.1667,"velocity":127,"measure":48,"beat":1.75,"subject_pos":-1,"motif":"","motif_pos":-1,"best_pos":3,"similarity":0.5,"stretto":false,"stretto_voices":0,"combination":[],"aug_dim":"","rhythm_ratio":1.0,"mirror":false,"chromatic_density":0.25,"complexity":0.739,"dissonance":0.119},{"voice":0,"pitch":65,"start":125.9999,"duration":1.1667,"velocity":127,"measure":48,"beat":2.0,"subject_pos":-1,"motif":"","motif_pos":-1,"best_pos":4,"similarity":0.607,"stretto":false,"stretto_voices":0,"combination":[],"aug_dim":"","rhythm_ratio":1.0,"mirror":false,"chromatic_density":0.25,"complexity":0.739,"dissonance":0.119},{"voice":2,"pitch":57,"start":125.9999,"duration":0.5,"velocity":127,"measure":48,"beat":2.0,"subject_pos":1,"motif":"subject","motif_pos":1,"best_pos":1,"similarity":1.0,"stretto":true,"stretto_voices":2,"combination":[],"aug_dim":"","rhythm_ratio":1.0,"mirror":false,"chromatic_density":0.25,"complexity":0.739,"dissonance":0.119},{"voice":3,"pitch":43,"start":126.3332,"duration":0.3333,"velocity":127,"measure":48,"beat":2.5,"subject_pos":4,"motif":"subject_inv","motif_pos":4,"best_pos":4,"similarity":1.0,"stretto":true,"stretto_voices":2,"combination":[],"aug_dim":"augmentation","rhythm_ratio":2.0,"mirror":false,"chromatic_density":0.25,"complexity":0.739,"dissonance":0.119},{"voice":2,"pitch":55,"start":126.4999,"duration":0.1667,"velocity":127,"measure":48,"beat":2.75,"subject_pos":2,"motif":"subject","motif_pos":2,"best_pos":2,"similarity":1.0,"stretto":true,"stretto_voices":2,"combination":[],"aug_dim":"","rhythm_ratio":1.0,"mirror":false,"chromatic_density":0.25,"complexity":0.739,"dissonance":0.119},{"voice":2,"pitch":53,"start":126.6665,"duration":0.5,"velocity":127,"measure":48,"beat":3.0,"subject_pos":3,"motif":"subject","motif_pos":3,"best_pos":3,"similarity":1.0,"stretto":true,"stretto_voices":2,"combination":[],"aug_dim":"","rhythm_ratio":1.0,"mirror":false,"chromatic_density":0.25,"complexity":0.739,"dissonance":0.119},{"voice":3,"pitch":45,"start":126.6665,"duration":1.3333,"velocity":127,"measure":48,"beat":3.0,"subject_pos":5,"motif":"subject_inv","motif_pos":5,"best_pos":5,"similarity":1.0,"stretto":true,"stretto_voices":2,"combination":[],"aug_dim":"augmentation","rhythm_ratio":2.0,"mirror":false,"chromatic_density":0.25,"complexity":0.739,"dissonance":0.119},{"voice":0,"pitch":67,"start":127.1665,"duration":0.1667,"velocity":127,"measure":48,"beat":3.75,"subject_pos":-1,"motif":"","motif_pos":-1,"best_pos":5,"similarity":0.679,"stretto":false,"stretto_voices":0,"combination":[],"aug_dim":"","rhythm_ratio":1.0,"mirror":false,"chromatic_density":0.25,"complexity":0.739,"dissonance":0.119},{"voice":1,"pitch":64,"start":127.1665,"duration":0.1667,"velocity":127,"measure":48,"beat":3.75,"subject_pos":-1,"motif":"tail","motif_pos":6,"best_pos":6,"similarity":1.0,"stretto":false,"stretto_voices":0,"combination":[],"aug_dim":"","rhythm_ratio":1.0,"mirror":false,"chromatic_density":0.25,"complexity":0.739,"dissonance":0.119},{"voice":2,"pitch":52,"start":127.1665,"duration":0.1667,"velocity":127,"measure":48,"beat":3.75,"subject_pos":4,"motif":"subject","motif_pos":4,"best_pos":4,"similarity":1.0,"stretto":true,"stretto_voices":2,"combination":[],"aug_dim":"","rhythm_ratio":1.0,"mirror":false,"chromatic_density":0.25,"complexity":0.739,"dissonance":0.119},{"voice":0,"pitch":69,"start":127.3332,"duration":0.5,"velocity":127,"measure":48,"beat":4.0,"subject_pos":-1,"motif":"","motif_pos":-1,"best_pos":6,"similarity":0.679,"stretto":false,"stretto_voices":0,"combination":[],"aug_dim":"","rhythm_ratio":1.0,"mirror":false,"chromatic_density":0.25,"complexity":0.739,"dissonance":0.119},{"voice":1,"pitch":65,"start":127.3332,"duration":0.5,"velocity":127,"measure":48,"beat":4.0,"subject_pos":-1,"motif":"tail","motif_pos":7,"best_pos":7,"similarity":1.0,"stretto":false,"stretto_voices":0,"combination":[],"aug_dim":"","rhythm_ratio":1.0,"mirror":false,"chromatic_density":0.25,"complexity":0.739,"dissonance":0.119},{"voice":2,"pitch":50,"start":127.3332,"duration":0.6667,"velocity":127,"measure":48,"beat":4.0,"subject_pos":5,"motif":"subject","motif_pos":5,"best_pos":5,"similarity":1.0,"stretto":true,"stretto_voices":2,"combination":[],"aug_dim":"","rhythm_ratio":1.0,"mirror":false,"chromatic_density":0.25,"complexity":0.739,"dissonance":0.119},{"voice":0,"pitch":70,"start":127.8332,"duration":0.1667,"velocity":127,"measure":48,"beat":4.75,"subject_pos":-1,"motif":"","motif_pos":-1,"best_pos":7,"similarity":0.464,"stretto":false,"stretto_voices":0,"combination":[],"aug_dim":"","rhythm_ratio":1.0,"mirror":false,"chromatic_density":0.25,"complexity":0.739,"dissonance":0.119},{"voice":1,"pitch":67,"start":127.8332,"duration":0.1667,"velocity":127,"measure":48,"beat":4.75,"subject_pos":-1,"motif":"","motif_pos":-1,"best_pos":6,"similarity":0.464,"stretto":false,"stretto_voices":0,"combination":[],"aug_dim":"","rhythm_ratio":1.0,"mirror":false,"chromatic_density":0.25,"complexity":0.739,"dissonance":0.119},{"voice":0,"pitch":67,"start":127.9999,"duration":0.5,"velocity":127,"measure":49,"beat":1.0,"subject_pos":-1,"motif":"","motif_pos":-1,"best_pos":3,"similarity":0.521,"stretto":false,"stretto_voices":0,"combination":[],"aug_dim":"","rhythm_ratio":1.0,"mirror":false,"chromatic_density":0.35,"complexity":0.72,"dissonance":0.224},{"voice":1,"pitch":64,"start":127.9999,"duration":0.6667,"velocity":127,"measure":49,"beat":1.0,"subject_pos":-1,"motif":"","motif_pos":-1,"best_pos":3,"similarity":0.421,"stretto":false,"stretto_voices":0,"combination":[],"aug_dim":"","rhythm_ratio":1.0,"mirror":false,"chromatic_density":0.35,"complexity":0.72,"dissonance":0.224},{"voice":2,"pitch":49,"start":127.9999,"duration":0.6667,"velocity":127,"measure":49,"beat":1.0,"subject_pos":6,"motif":"subject","motif_pos":6,"best_pos":6,"similarity":1.0,"stretto":true,"stretto_voices":2,"combination":[],"aug_dim":"","rhythm_ratio":1.0,"mirror":false,"chromatic_density":0.35,"complexity":0.72,"dissonance":0.224},{"voice":3,"pitch":46,"start":127.9999,"duration":1.3333,"velocity":127,"measure":49,"beat":1.0,"subject_pos":6,"motif":"subject_inv","motif_pos":6,"best_pos":6,"similarity":1.0,"stretto":true,"stretto_voices":2,"combination":[],"aug_dim":"augmentation","rhythm_ratio":2.0,"mirror":false,"chromatic_density":0.35,"complexity":0.72,"dissonance":0.224},{"voice":0,"pitch":76,"start":128.4999,"duration":0.0833,"velocity":127,"measure":49,"beat":1.75,"subject_pos":-1,"motif":"","motif_pos":-1,"best_pos":4,"similarity":0.579,"stretto":false,"stretto_voices":0,"combination":[],"aug_dim":"","rhythm_ratio":1.0,"mirror":false,"chromatic_density":0.35,"complexity":0.72,"dissonance":0.224},{"voice":0,"pitch":77,"start":128.5832,"duration":0.0833,"velocity":127,"measure":49,"beat":1.875,"subject_pos":-1,"motif":"","motif_pos":-1,"best_pos":5,"similarity":0.643,"stretto":false,"stretto_voices":0,"combination":[],"aug_dim":"","rhythm_ratio":1.0,"mirror":false,"chromatic_density":0.35,"complexity":0.72,"dissonance":0.224},{"voice":0,"pitch":79,"start":128.6665,"duration":0.5,"velocity":127,"measure":49,"beat":2.0,"subject_pos":-1,"motif":"","motif_pos":-1,"best_pos":6,"similarity":0.429,"stretto":false,"stretto_voices":0,"combination":[],"aug_dim":"","rhythm_ratio":1.0,"mirror":false,"chromatic_density":0.35,"complexity":0.72,"dissonance":0.224},{"voice":2,"pitch":50,"start":128.6665,"duration":0.5,"velocity":127,"measure":49,"beat":2.0,"subject_pos":7,"motif":"subject","motif_pos":7,"best_pos":7,"similarity":1.0,"stretto":true,"stretto_voices":2,"combination":[],"aug_dim":"","rhythm_ratio":1.0,"mirror":false,"chromatic_density":0.35,"complexity":0.72,"dissonance":0.224},{"voice":0,"pitch":73,"start":129.1665,"duration":0.1667,"velocity":127,"measure":49,"beat":2.75,"subject_pos":-1,"motif":"","motif_pos":-1,"best_pos":4,"similarity":0.443,"stretto":false,"stretto_voices":0,"combination":[],"aug_dim":"","rhythm_ratio":1.0,"mirror":false,"chromatic_density":0.35,"complexity":0.72,"dissonance":0.224},{"voice":1,"pitch":67,"start":129.1665,"duration":0.1667,"velocity":127,"measure":49,"beat":2.75,"subject_pos":-1,"motif":"","motif_pos":-1,"best_pos":4,"similarity":0.386,"stretto":false,"stretto_voices":0,"combination":[],"aug_dim":"","rhythm_ratio":1.0,"mirror":false,"chromatic_density":0.35,"complexity":0.72,"dissonance":0.224},{"voice":2,"pitch":52,"start":129.1665,"duration":0.1667,"velocity":127,"measure":49,"beat":2.75,"subject_pos":8,"motif":"subject","motif_pos":8,"best_pos":0,"similarity":1.0,"stretto":true,"stretto_voices":2,"combination":[],"aug_dim":"","rhythm_ratio":1.0,"mirror":false,"chromatic_density":0.35,"complexity":0.72,"dissonance":0.224},{"voice":0,"pitch":74,"start":129.3332,"duration":0.5,"velocity":127,"measure":49,"beat":3.0,"subject_pos":-1,"motif":"","motif_pos":-1,"best_pos":5,"similarity":0.586,"stretto":false,"stretto_voices":0,"combination":[],"aug_dim":"","rhythm_ratio":1.0,"mirror":false,"chromatic_density":0.35,"complexity":0.72,"dissonance":0.224},{"voice":1,"pitch":65,"start":129.3332,"duration":0.5,"velocity":127,"measure":49,"beat":3.0,"subject_pos":-1,"motif":"","motif_pos":-1,"best_pos":5,"similarity":0.471,"stretto":false,"stretto_voices":0,"combination":[],"aug_dim":"","rhythm_ratio":1.0,"mirror":false,"chromatic_density":0.35,"complexity":0.72,"dissonance":0.224},{"voice":2,"pitch":53,"start":129.3332,"duration":0.8333,"velocity":127,"measure":49,"beat":3.0,"subject_pos":-1,"motif":"","motif_pos":-1,"best_pos":5,"similarity":0.607,"stretto":false,"stretto_voices":0,"combination":[],"aug_dim":"","rhythm_ratio":1.0,"mirror":false,"chromatic_density":0.35,"complexity":0.72,"dissonance":0.224},{"voice":3,"pitch":45,"start":129.3332,"duration":1.0,"velocity":127,"measure":49,"beat":3.0,"subject_pos":7,"motif":"subject_inv","motif_pos":7,"best_pos":7,"similarity":1.0,"stretto":false,"stretto_voices":0,"combination":[],"aug_dim":"augmentation","rhythm_ratio":2.0,"mirror":false,"chromatic_density":0.35,"complexity":0.72,"dissonance":0.224},{"voice":0,"pitch":76,"start":129.8332,"duration":0.1667,"velocity":127,"measure":49,"beat":3.75,"subject_pos":-1,"motif":"","motif_pos":-1,"best_pos":6,"similarity":0.457,"stretto":false,"stretto_voices":0,"combination":[],"aug_dim":"","rhythm_ratio":1.0,"mirror":false,"chromatic_density":0.35,"complexity":0.72,"dissonance":0.224},{"voice":1,"pitch":67,"start":129.8332,"duration":0.1667,"velocity":127,"measure":49,"beat":3.75,"subject_pos":-1,"motif":"","motif_pos":-1,"best_pos":5,"similarity":0.5,"stretto":false,"stretto_voices":0,"combination":[],"aug_dim":"","rhythm_ratio":1.0,"mirror":false,"chromatic_density":0.35,"complexity":0.72,"dissonance":0.224},{"voice":0,"pitch":73,"start":129.9999,"duration":0.5,"velocity":127,"measure":49,"beat":4.0,"subject_pos":-1,"motif":"","motif_pos":-1,"best_pos":3,"similarity":0.521,"stretto":false,"stretto_voices":0,"combination":[],"aug_dim":"","rhythm_ratio":1.0,"mirror":false,"chromatic_density":0.35,"complexity":0.72,"dissonance":0.224},{"voice":1,"pitch":69,"start":129.9999,"duration":1.3333,"velocity":127,"measure":49,"beat":4.0,"subject_pos":-1,"motif":"","motif_pos":-1,"best_pos":0,"similarity":0.446,"stretto":false,"stretto_voices":0,"combination":[],"aug_dim":"","rhythm_ratio":1.0,"mirror":false,"chromatic_density":0.35,"complexity":0.72,"dissonance":0.224},{"voice":2,"pitch":55,"start":130.1665,"duration":0.1667,"velocity":127,"measure":49,"beat":4.25,"subject_pos":-1,"motif":"","motif_pos":-1,"best_pos":6,"similarity":0.464,"stretto":false,"stretto_voices":0,"combination":[],"aug_dim":"","rhythm_ratio":1.0,"mirror":false,"chromatic_density":0.35,"complexity":0.72,"dissonance":0.224},{"voice":2,"pitch":53,"start":130.3332,"duration":0.1667,"velocity":127,"measure":49,"beat":4.5,"subject_pos":-1,"motif":"","motif_pos":-1,"best_pos":3,"similarity":0.471,"stretto":false,"stretto_voices":0,"combination":[],"aug_dim":"","rhythm_ratio":1.0,"mirror":false,"chromatic_density":0.35,"complexity":0.72,"dissonance":0.224},{"voice":3,"pitch":43,"start":130.3332,"duration":0.3333,"velocity":127,"measure":49,"beat":4.5,"subject_pos":8,"motif":"subject_inv","motif_pos":8,"best_pos":0,"similarity":1.0,"stretto":false,"stretto_voices":0,"combination":[],"aug_dim":"augmentation","rhythm_ratio":2.0,"mirror":false,"chromatic_density":0.35,"complexity":0.72,"dissonance":0.224},{"voice":0,"pitch":74,"start":130.4999,"duration":0.1667,"velocity":127,"measure":49,"beat":4.75,"subject_pos":-1,"motif":"","motif_pos":-1,"best_pos":4,"similarity":0.579,"stretto":false,"stretto_voices":0,"combination":[],"aug_dim":"","rhythm_ratio":1.0,"mirror":false,"chromatic_density":0.35,"complexity":0.72,"dissonance":0.224},{"voice":2,"pitch":52,"start":130.4999,"duration":0.1667,"velocity":127,"measure":49,"beat":4.75,"subject_pos":-1,"motif":"","motif_pos":-1,"best_pos":2,"similarity":0.5,"stretto":false,"stretto_voices":0,"combination":[],"aug_dim":"","rhythm_ratio":1.0,"mirror":false,"chromatic_density":0.35,"complexity":0.72,"dissonance":0.224},{"voice":0,"pitch":74,"start":130.6665,"duration":0.5,"velocity":127,"measure":50,"beat":1.0,"subject_pos":-1,"motif":"","motif_pos":-1,"best_pos":5,"similarity":0.679,"stretto":false,"stretto_voices":0,"combination":[],"aug_dim":"","rhythm_ratio":1.0,"mirror":false,"chromatic_density":0.5,"complexity":0.655,"dissonance":0.139},{"voice":2,"pitch":50,"start":130.6665,"duration":0.5,"velocity":127,"measure":50,"beat":1.0,"subject_pos":-1,"motif":"tail","motif_pos":3,"best_pos":3,"similarity":1.0,"stretto":false,"stretto_voices":0,"combination":[],"aug_dim":"","rhythm_ratio":1.0,"mirror":false,"chromatic_density":0.5,"complexity":0.655,"dissonance":0.139},{"voice":3,"pitch":41,"start":130.6665,"duration":1.8333,"velocity":127,"measure":50,"beat":1.0,"subject_pos":-1,"motif":"","motif_pos":-1,"best_pos":3,"similarity":0.786,"stretto":false,"stretto_voices":0,"combination":[],"aug_dim":"","rhythm_ratio":1.0,"mirror":false,"chromatic_density":0.5,"complexity":0.655,"dissonance":0.139},{"voice":0,"pitch":76,"start":131.1665,"duration":0.1667,"velocity":127,"measure":50,"beat":1.75,"subject_pos":-1,"motif":"","motif_pos":-1,"best_pos":6,"similarity":0.661,"stretto":false,"stretto_voices":0,"combination":[],"aug_dim":"","rhythm_ratio":1.0,"mirror":false,"chromatic_density":0.5,"complexity":0.655,"dissonance":0.139},{"voice":2,"pitch":49,"start":131.1665,"duration":0.1667,"velocity":127,"measure":50,"beat":1.75,"subject_pos":-1,"motif":"tail","motif_pos":4,"best_pos":4,"similarity":1.0,"stretto":false,"stretto_voices":0,"combination":[],"aug_dim":"","rhythm_ratio":1.0,"mirror":false,"chromatic_density":0.5,"complexity":0.655,"dissonance":0.139},{"voice":0,"pitch":77,"start":131.3332,"duration":0.5,"velocity":127,"measure":50,"beat":2.0,"subject_pos":-1,"motif":"","motif_pos":-1,"best_pos":5,"similarity":0.664,"stretto":false,"stretto_voices":0,"combination":[],"aug_dim":"","rhythm_ratio":1.0,"mirror":false,"chromatic_density":0.5,"complexity":0.655,"dissonance":0.139},{"voice":2,"pitch":50,"start":131.3332,"duration":0.5,"velocity":127,"measure":50,"beat":2.0,"subject_pos":-1,"motif":"tail","motif_pos":5,"best_pos":5,"similarity":1.0,"stretto":false,"stretto_voices":0,"combination":[],"aug_dim":"","rhythm_ratio":1.0,"mirror":false,"chromatic_density":0.5,"complexity":0.655,"dissonance":0.139},{"voice":0,"pitch":79,"start":131.8332,"duration":0.1667,"velocity":127,"measure":50,"beat":2.75,"subject_pos":-1,"motif":"","motif_pos":-1,"best_pos":6,"similarity":0.579,"stretto":false,"stretto_voices":0,"combination":[],"aug_dim":"","rhythm_ratio":1.0,"mirror":false,"chromatic_density":0.5,"complexity":0.655,"dissonance":0.139},{"voice":2,"pitch":52,"start":131.8332,"duration":0.1667,"velocity":127,"measure":50,"beat":2.75,"subject_pos":-1,"motif":"tail","motif_pos":6,"best_pos":6,"similarity":1.0,"stretto":false,"stretto_voices":0,"combination":[],"aug_dim":"","rhythm_ratio":1.0,"mirror":false,"chromatic_density":0.5,"complexity":0.655,"dissonance":0.139},{"voice":0,"pitch":81,"start":131.9999,"duration":1.0833,"velocity":127,"measure":50,"beat":3.0,"subject_pos":-1,"motif":"","motif_pos":-1,"best_pos":6,"similarity":0.518,"stretto":false,"stretto_voices":0,"combination":[],"aug_dim":"","rhythm_ratio":1.0,"mirror":false,"chromatic_density":0.5,"complexity":0.655,"dissonance":0.139},{"voice":2,"pitch":53,"start":131.9999,"duration":0.3333,"velocity":127,"measure":50,"beat":3.0,"subject_pos":-1,"motif":"tail","motif_pos":7,"best_pos":7,"similarity":1.0,"stretto":false,"stretto_voices":0,"combination":[],"aug_dim":"","rhythm_ratio":1.0,"mirror":false,"chromatic_density":0.5,"complexity":0.655,"dissonance":0.139},{"voice":1,"pitch":76,"start":132.4165,"duration":0.0833,"velocity":127,"measure":50,"beat":3.625,"subject_pos":-1,"motif":"","motif_pos":-1,"best_pos":1,"similarity":0.625,"stretto":false,"stretto_voices":0,"combination":[],"aug_dim":"","rhythm_ratio":1.0,"mirror":false,"chromatic_density":0.5,"complexity":0.655,"dissonance":0.139},{"voice":1,"pitch":74,"start":132.4999,"duration":0.0833,"velocity":127,"measure":50,"beat":3.75,"subject_pos":-1,"motif":"","motif_pos":-1,"best_pos":3,"similarity":0.596,"stretto":false,"stretto_voices":0,"combination":[],"aug_dim":"","rhythm_ratio":1.0,"mirror":false,"chromatic_density":0.5,"complexity":0.655,"dissonance":0.139},{"voice":3,"pitch":40,"start":132.4999,"duration":0.1667,"velocity":127,"measure":50,"beat":3.75,"subject_pos":-1,"motif":"","motif_pos":-1,"best_pos":4,"similarity":0.893,"stretto":false,"stretto_voices":0,"combination":[],"aug_dim":"","rhythm_ratio":1.0,"mirror":false,"chromatic_density":0.5,"complexity":0.655,"dissonance":0.139},{"voice":1,"pitch":73,"start":132.5832,"duration":0.0833,"velocity":127,"measure":50,"beat":3.875,"subject_pos":-1,"motif":"","motif_pos":-1,"best_pos":4,"similarity":0.686,"stretto":false,"stretto_voices":0,"combination":[],"aug_dim":"","rhythm_ratio":1.0,"mirror":false,"chromatic_density":0.5,"complexity":0.655,"dissonance":0.139},{"voice":1,"pitch":74,"start":132.6665,"duration":1.75,"velocity":127,"measure":50,"beat":4.0,"subject_pos":-1,"motif":"","motif_pos":-1,"best_pos":5,"similarity":0.55,"stretto":false,"stretto_voices":0,"combination":[],"aug_dim":"","rhythm_ratio":1.0,"mirror":false,"chromatic_density":0.5,"complexity":0.655,"dissonance":0.139},{"voice":3,"pitch":41,"start":132.6665,"duration":0.5,"velocity":127,"measure":50,"beat":4.0,"subject_pos":-1,"motif":"","motif_pos":-1,"best_pos":5,"similarity":0.821,"stretto":false,"stretto_voices":0,"combination":[],"aug_dim":"","rhythm_ratio":1.0,"mirror":false,"chromatic_density":0.5,"complexity":0.655,"dissonance":0.139},{"voice":0,"pitch":81,"start":133.0832,"duration":0.0833,"velocity":127,"measure":50,"beat":4.625,"subject_pos":-1,"motif":"","motif_pos":-1,"best_pos":1,"similarity":0.429,"stretto":false,"stretto_voices":0,"combination":[],"aug_dim":"","rhythm_ratio":1.0,"mirror":false,"chromatic_density":0.5,"complexity":0.655,"dissonance":0.139},{"voice":0,"pitch":79,"start":133.1665,"duration":0.0833,"velocity":127,"measure":50,"beat":4.75,"subject_pos":-1,"motif":"","motif_pos":-1,"best_pos":2,"similarity":0.579,"stretto":false,"stretto_voices":0,"combination":[],"aug_dim":"","rhythm_ratio":1.0,"mirror":false,"chromatic_density":0.5,"complexity":0.655,"dissonance":0.139},{"voice":3,"pitch":43,"start":133.1665,"duration":0.1667,"velocity":127,"measure":50,"beat":4.75,"subject_pos":-1,"motif":"","motif_pos":-1,"best_pos":6,"similarity":0.643,"stretto":false,"stretto_voices":0,"combination":[],"aug_dim":"","rhythm_ratio":1.0,"mirror":false,"chromatic_density":0.5,"complexity":0.655,"dissonance":0.139},{"voice":0,"pitch":77,"start":133.2499,"duration":0.0833,"velocity":127,"measure":50,"beat":4.875,"subject_pos":-1,"motif":"","motif_pos":-1,"best_pos":3,"similarity":0.657,"stretto":false,"stretto_voices":0,"combination":[],"aug_dim":"","rhythm_ratio":1.0,"mirror":false,"chromatic_density":0.5,"complexity":0.655,"dissonance":0.139},{"voice":0,"pitch":76,"start":133.3332,"duration":1.8333,"velocity":127,"measure":51,"beat":1.0,"subject_pos":-1,"motif":"","motif_pos":-1,"best_pos":4,"similarity":0.671,"stretto":false,"stretto_voices":0,"combination":[],"aug_dim":"","rhythm_ratio":1.0,"mirror":false,"chromatic_density":0.312,"complexity":0.602,"dissonance":0.11},{"voice":3,"pitch":45,"start":133.3332,"duration":1.75,"velocity":127,"measure":51,"beat":1.0,"subject_pos":-1,"motif":"","motif_pos":-1,"best_pos":6,"similarity":0.446,"stretto":false,"stretto_voices":0,"combination":[],"aug_dim":"","rhythm_ratio":1.0,"mirror":false,"chromatic_density":0.312,"complexity":0.602,"dissonance":0.11},{"voice":2,"pitch":52,"start":133.7499,"duration":0.0833,"velocity":127,"measure":51,"beat":1.625,"subject_pos":-1,"motif":"","motif_pos":-1,"best_pos":4,"similarity":0.664,"stretto":false,"stretto_voices":0,"combination":[],"aug_dim":"","rhythm_ratio":1.0,"mirror":false,"chromatic_density":0.312,"complexity":0.602,"dissonance":0.11},{"voice":2,"pitch":54,"start":133.8332,"duration":0.0833,"velocity":127,"measure":51,"beat":1.75,"subject_pos":-1,"motif":"","motif_pos":-1,"best_pos":5,"similarity":0.721,"stretto":false,"stretto_voices":0,"combination":[],"aug_dim":"","rhythm_ratio":1.0,"mirror":false,"chromatic_density":0.312,"complexity":0.602,"dissonance":0.11},{"voice":2,"pitch":56,"start":133.9165,"duration":0.0833,"velocity":127,"measure":51,"beat":1.875,"subject_pos":-1,"motif":"","motif_pos":-1,"best_pos":6,"similarity":0.714,"stretto":false,"stretto_voices":0,"combination":[],"aug_dim":"","rhythm_ratio":1.0,"mirror":false,"chromatic_density":0.312,"complexity":0.602,"dissonance":0.11},{"voice":2,"pitch":57,"start":133.9999,"duration":1.0,"velocity":127,"measure":51,"beat":2.0,"subject_pos":-1,"motif":"head_inv","motif_pos":0,"best_pos":0,"similarity":1.0,"stretto":false,"stretto_voices":0,"combination":[],"aug_dim":"","rhythm_ratio":1.0,"mirror":false,"chromatic_density":0.312,"complexity":0.602,"dissonance":0.11},{"voice":1,"pitch":74,"start":134.4165,"duration":0.0833,"velocity":127,"measure":51,"beat":2.625,"subject_pos":-1,"motif":"","motif_pos":-1,"best_pos":2,"similarity":0.443,"stretto":false,"stretto_voices":0,"combination":[],"aug_dim":"","rhythm_ratio":1.0,"mirror":false,"chromatic_density":0.312,"complexity":0.602,"dissonance":0.11},{"voice":1,"pitch":72,"start":134.4999,"duration":0.0833,"velocity":127,"measure":51,"beat":2.75,"subject_pos":-1,"motif":"","motif_pos":-1,"best_pos":3,"similarity":0.686,"stretto":false,"stretto_voices":0,"combination":[],"aug_dim":"","rhythm_ratio":1.0,"mirror":false,"chromatic_density":0.312,"complexity":0.602,"dissonance":0.11},{"voice":1,"pitch":71,"start":134.5832,"duration":0.0833,"velocity":127,"measure":51,"beat":2.875,"subject_pos":-1,"motif":"","motif_pos":-1,"best_pos":4,"similarity":0.811,"stretto":false,"stretto_voices":0,"combination":[],"aug_dim":"","rhythm_ratio":1.0,"mirror":false,"chromatic_density":0.312,"complexity":0.602,"dissonance":0.11},{"voice":1,"pitch":72,"start":134.6665,"duration":0.6667,"velocity":127,"measure":51,"beat":3.0,"subject_pos":-1,"motif":"","motif_pos":-1,"best_pos":5,"similarity":0.764,"stretto":false,"stretto_voices":0,"combination":[],"aug_dim":"","rhythm_ratio":1.0,"mirror":false,"chromatic_density":0.312,"complexity":0.602,"dissonance":0.11},{"voice":3,"pitch":48,"start":135.0832,"duration":0.0833,"velocity":127,"measure":51,"beat":3.625,"subject_pos":-1,"motif":"","motif_pos":-1,"best_pos":3,"similarity":0.329,"stretto":false,"stretto_voices":0,"combination":[],"aug_dim":"","rhythm_ratio":1.0,"mirror":false,"chromatic_density":0.312,"complexity":0.602,"dissonance":0.11},{"voice":0,"pitch":74,"start":135.1665,"duration":0.1667,"velocity":127,"measure":51,"beat":3.75,"subject_pos":-1,"motif":"","motif_pos":-1,"best_pos":5,"similarity":0.636,"stretto":false,"stretto_voices":0,"combination":[],"aug_dim":"","rhythm_ratio":1.0,"mirror":false,"chromatic_density":0.312,"complexity":0.602,"dissonance":0.11},{"voice":3,"pitch":47,"start":135.1665,"duration":0.0833,"velocity":127,"measure":51,"beat":3.75,"subject_pos":-1,"motif":"","motif_pos":-1,"best_pos":2,"similarity":0.429,"stretto":false,"stretto_voices":0,"combination":[],"aug_dim":"","rhythm_ratio":1.0,"mirror":false,"chromatic_density":0.312,"complexity":0.602,"dissonance":0.11},{"voice":3,"pitch":45,"start":135.2499,"duration":0.0833,"velocity":127,"measure":51,"beat":3.875,"subject_pos":-1,"motif":"","motif_pos":-1,"best_pos":3,"similarity":0.454,"stretto":false,"stretto_voices":0,"combination":[],"aug_dim":"","rhythm_ratio":1.0,"mirror":false,"chromatic_density":0.312,"complexity":0.602,"dissonance":0.11},{"voice":0,"pitch":76,"start":135.3332,"duration":0.5,"velocity":127,"measure":51,"beat":4.0,"subject_pos":-1,"motif":"","motif_pos":-1,"best_pos":6,"similarity":0.657,"stretto":false,"stretto_voices":0,"combination":[],"aug_dim":"","rhythm_ratio":1.0,"mirror":false,"chromatic_density":0.312,"complexity":0.602,"dissonance":0.11},{"voice":3,"pitch":43,"start":135.3332,"duration":0.4167,"velocity":127,"measure":51,"beat":4.0,"subject_pos":-1,"motif":"","motif_pos":-1,"best_pos":5,"similarity":0.418,"stretto":false,"stretto_voices":0,"combination":[],"aug_dim":"","rhythm_ratio":1.0,"mirror":false,"chromatic_density":0.312,"complexity":0.602,"dissonance":0.11},{"voice":3,"pitch":45,"start":135.7499,"duration":0.0833,"velocity":127,"measure":51,"beat":4.625,"subject_pos":-1,"motif":"","motif_pos":-1,"best_pos":1,"similarity":0.457,"stretto":false,"stretto_voices":0,"combination":[],"aug_dim":"","rhythm_ratio":1.0,"mirror":false,"chromatic_density":0.312,"complexity":0.602,"dissonance":0.11},{"voice":0,"pitch":77,"start":135.8332,"duration":0.1667,"velocity":127,"measure":51,"beat":4.75,"subject_pos":-1,"motif":"","motif_pos":-1,"best_pos":5,"similarity":0.693,"stretto":false,"stretto_voices":0,"combination":[],"aug_dim":"","rhythm_ratio":1.0,"mirror":false,"chromatic_density":0.312,"complexity":0.602,"dissonance":0.11},{"voice":3,"pitch":43,"start":135.8332,"duration":0.0833,"velocity":127,"measure":51,"beat":4.75,"subject_pos":-1,"motif":"","motif_pos":-1,"best_pos":2,"similarity":0.593,"stretto":false,"stretto_voices":0,"combination":[],"aug_dim":"","rhythm_ratio":1.0,"mirror":false,"chromatic_density":0.312,"complexity":0.602,"dissonance":0.11},{"voice":3,"pitch":41,"start":135.9165,"duration":0.0833,"velocity":127,"measure":51,"beat":4.875,"subject_pos":-1,"motif":"","motif_pos":-1,"best_pos":3,"similarity":0.664,"stretto":false,"stretto_voices":0,"combination":[],"aug_dim":"","rhythm_ratio":1.0,"mirror":false,"chromatic_density":0.312,"complexity":0.602,"dissonance":0.11},{"voice":0,"pitch":79,"start":135.9999,"duration":1.0833,"velocity":127,"measure":52,"beat":1.0,"subject_pos":-1,"motif":"","motif_pos":-1,"best_pos":6,"similarity":0.579,"stretto":false,"stretto_voices":0,"combination":[],"aug_dim":"","rhythm_ratio":1.0,"mirror":false,"chromatic_density":0.4,"complexity":0.655,"dissonance":0.139},{"voice":3,"pitch":40,"start":135.9999,"duration":0.5,"velocity":127,"measure":52,"beat":1.0,"subject_pos":-1,"motif":"","motif_pos":-1,"best_pos":4,"similarity":0.671,"stretto":false,"stretto_voices":0,"combination":[],"aug_dim":"","rhythm_ratio":1.0,"mirror":false,"chromatic_density":0.4,"complexity":0.655,"dissonance":0.139},{"voice":1,"pitch":74,"start":136.4165,"duration":0.0833,"velocity":127,"measure":52,"beat":1.625,"subject_pos":-1,"motif":"","motif_pos":-1,"best_pos":6,"similarity":0.529,"stretto":false,"stretto_voices":0,"combination":[],"aug_dim":"","rhythm_ratio":1.0,"mirror":false,"chromatic_density":0.4,"complexity":0.655,"dissonance":0.139},{"voice":1,"pitch":72,"start":136.4999,"duration":0.0833,"velocity":127,"measure":52,"beat":1.75,"subject_pos":-1,"motif":"","motif_pos":-1,"best_pos":3,"similarity":0.611,"stretto":false,"stretto_voices":0,"combination":[],"aug_dim":"","rhythm_ratio":1.0,"mirror":false,"chromatic_density":0.4,"complexity":0.655,"dissonance":0.139},{"voice":3,"pitch":38,"start":136.4999,"duration":0.1667,"velocity":127,"measure":52,"beat":1.75,"subject_pos":-1,"motif":"","motif_pos":-1,"best_pos":5,"similarity":0.636,"stretto":false,"stretto_voices":0,"combination":[],"aug_dim":"","rhythm_ratio":1.0,"mirror":false,"chromatic_density":0.4,"complexity":0.655,"dissonance":0.139},{"voice":1,"pitch":71,"start":136.5832,"duration":0.0833,"velocity":127,"measure":52,"beat":1.875,"subject_pos":-1,"motif":"","motif_pos":-1,"best_pos":4,"similarity":0.693,"stretto":false,"stretto_voices":0,"combination":[],"aug_dim":"","rhythm_ratio":1.0,"mirror":false,"chromatic_density":0.4,"complexity":0.655,"dissonance":0.139},{"voice":1,"pitch":72,"start":136.6665,"duration":1.75,"velocity":127,"measure":52,"beat":2.0,"subject_pos":-1,"motif":"","motif_pos":-1,"best_pos":5,"similarity":0.55,"stretto":false,"stretto_voices":0,"combination":[],"aug_dim":"","rhythm_ratio":1.0,"mirror":false,"chromatic_density":0.4,"complexity":0.655,"dissonance":0.139},{"voice":3,"pitch":40,"start":136.6665,"duration":0.5,"velocity":127,"measure":52,"beat":2.0,"subject_pos":-1,"motif":"","motif_pos":-1,"best_pos":6,"similarity":0.657,"stretto":false,"stretto_voices":0,"combination":[],"aug_dim":"","rhythm_ratio":1.0,"mirror":false,"chromatic_density":0.4,"complexity":0.655,"dissonance":0.139},{"voice":0,"pitch":79,"start":137.0832,"duration":0.0833,"velocity":127,"measure":52,"beat":2.625,"subject_pos":-1,"motif":"","motif_pos":-1,"best_pos":2,"similarity":0.379,"stretto":false,"stretto_voices":0,"combination":[],"aug_dim":"","rhythm_ratio":1.0,"mirror":false,"chromatic_density":0.4,"complexity":0.655,"dissonance":0.139},{"voice":0,"pitch":77,"start":137.1665,"duration":0.0833,"velocity":127,"measure":52,"beat":2.75,"subject_pos":-1,"motif":"","motif_pos":-1,"best_pos":3,"similarity":0.493,"stretto":false,"stretto_voices":0,"combination":[],"aug_dim":"","rhythm_ratio":1.0,"mirror":false,"chromatic_density":0.4,"complexity":0.655,"dissonance":0.139},{"voice":3,"pitch":41,"start":137.1665,"duration":0.1667,"velocity":127,"measure":52,"beat":2.75,"subject_pos":-1,"motif":"","motif_pos":-1,"best_pos":5,"similarity":0.657,"stretto":false,"stretto_voices":0,"combination":[],"aug_dim":"","rhythm_ratio":1.0,"mirror":false,"chromatic_density":0.4,"complexity":0.655,"dissonance":0.139},{"voice":0,"pitch":76,"start":137.2499,"duration":0.0833,"velocity":127,"measure":52,"beat":2.875,"subject_pos":-1,"motif":"","motif_pos":-1,"best_pos":2,"similarity":0.5,"stretto":false,"stretto_voices":0,"combination":[],"aug_dim":"","rhythm_ratio":1.0,"mirror":false,"chromatic_density":0.4,"complexity":0.655,"dissonance":0.139},{"voice":0,"pitch":74,"start":137.3332,"duration":1.8333,"velocity":127,"measure":52,"beat":3.0,"subject_pos":-1,"motif":"tail","motif_pos":3,"best_pos":3,"similarity":1.0,"stretto":false,"stretto_voices":0,"combination":[],"aug_dim":"","rhythm_ratio":1.0,"mirror":false,"chromatic_density":0.4,"complexity":0.655,"dissonance":0.139},{"voice":3,"pitch":43,"start":137.3332,"duration":1.75,"velocity":127,"measure":52,"beat":3.0,"subject_pos":-1,"motif":"","motif_pos":-1,"best_pos":6,"similarity":0.507,"stretto":false,"stretto_voices":0,"combination":[],"aug_dim":"","rhythm_ratio":1.0,"mirror":false,"chromatic_density":0.4,"complexity":0.655,"dissonance":0.139},{"voice":2,"pitch":50,"start":137.7499,"duration":0.0833,"velocity":127,"measure":52,"beat":3.625,"subject_pos":-1,"motif":"head_inv","motif_pos":1,"best_pos":1,"similarity":1.0,"stretto":false,"stretto_voices":0,"combination":[],"aug_dim":"","rhythm_ratio":1.0,"mirror":false,"chromatic_density":0.4,"complexity":0.655,"dissonance":0.139},{"voice":2,"pitch":52,"start":137.8332,"duration":0.0833,"velocity":127,"measure":52,"beat":3.75,"subject_pos":-1,"motif":"head_inv","motif_pos":2,"best_pos":2,"similarity":1.0,"stretto":false,"stretto_voices":0,"combination":[],"aug_dim":"","rhythm_ratio":1.0,"mirror":false,"chromatic_density":0.4,"complexity":0.655,"dissonance":0.139},{"voice":2,"pitch":54,"start":137.9165,"duration":0.0833,"velocity":127,"measure":52,"beat":3.875,"subject_pos":-1,"motif":"head_inv","motif_pos":3,"best_pos":3,"similarity":1.0,"stretto":false,"stretto_voices":0,"combination":[],"aug_dim":"","rhythm_ratio":1.0,"mirror":false,"chromatic_density":0.4,"complexity":0.655,"dissonance":0.139},{"voice":2,"pitch":55,"start":137.9999,"duration":1.0,"velocity":127,"measure":52,"beat":4.0,"subject_pos":-1,"motif":"head_inv","motif_pos":4,"best_pos":4,"similarity":1.0,"stretto":false,"stretto_voices":0,"combination":[],"aug_dim":"","rhythm_ratio":1.0,"mirror":false,"chromatic_density":0.4,"complexity":0.655,"dissonance":0.139},{"voice":1,"pitch":72,"start":138.4165,"duration":0.0833,"velocity":127,"measure":52,"beat":4.625,"subject_pos":-1,"motif":"","motif_pos":-1,"best_pos":2,"similarity":0.443,"stretto":false,"stretto_voices":0,"combination":[],"aug_dim":"","rhythm_ratio":1.0,"mirror":false,"chromatic_density":0.4,"complexity":0.655,"dissonance":0.139},{"voice":1,"pitch":70,"start":138.4999,"duration":0.0833,"velocity":127,"measure":52,"beat":4.75,"subject_pos":-1,"motif":"","motif_pos":-1,"best_pos":3,"similarity":0.686,"stretto":false,"stretto_voices":0,"combination":[],"aug_dim":"","rhythm_ratio":1.0,"mirror":false,"chromatic_density":0.4,"complexity":0.655,"dissonance":0.139},{"voice":1,"pitch":69,"start":138.5832,"duration":0.0833,"velocity":127,"measure":52,"beat":4.875,"subject_pos":-1,"motif":"","motif_pos":-1,"best_pos":4,"similarity":0.811,"stretto":false,"stretto_voices":0,"combination":[],"aug_dim":"","rhythm_ratio":1.0,"mirror":false,"chromatic_density":0.4,"complexity":0.655,"dissonance":0.139},{"voice":1,"pitch":70,"start":138.6665,"duration":0.6667,"velocity":127,"measure":53,"beat":1.0,"subject_pos":-1,"motif":"","motif_pos":-1,"best_pos":5,"similarity":0.764,"stretto":false,"stretto_voices":0,"combination":[],"aug_dim":"","rhythm_ratio":1.0,"mirror":false,"chromatic_density":0.368,"complexity":0.589,"dissonance":0.218},{"voice":3,"pitch":46,"start":139.0832,"duration":0.0833,"velocity":127,"measure":53,"beat":1.625,"subject_pos":-1,"motif":"","motif_pos":-1,"best_pos":3,"similarity":0.329,"stretto":false,"stretto_voices":0,"combination":[],"aug_dim":"","rhythm_ratio":1.0,"mirror":false,"chromatic_density":0.368,"complexity":0.589,"dissonance":0.218},{"voice":0,"pitch":73,"start":139.1665,"duration":0.1667,"velocity":127,"measure":53,"beat":1.75,"subject_pos":-1,"motif":"tail","motif_pos":4,"best_pos":4,"similarity":1.0,"stretto":false,"stretto_voices":0,"combination":[],"aug_dim":"","rhythm_ratio":1.0,"mirror":false,"chromatic_density":0.368,"complexity":0.589,"dissonance":0.218},{"voice":3,"pitch":45,"start":139.1665,"duration":0.0833,"velocity":127,"measure":53,"beat":1.75,"subject_pos":-1,"motif":"","motif_pos":-1,"best_pos":2,"similarity":0.429,"stretto":false,"stretto_voices":0,"combination":[],"aug_dim":"","rhythm_ratio":1.0,"mirror":false,"chromatic_density":0.368,"complexity":0.589,"dissonance":0.218},{"voice":3,"pitch":43,"start":139.2499,"duration":0.0833,"velocity":127,"measure":53,"beat":1.875,"subject_pos":-1,"motif":"","motif_pos":-1,"best_pos":3,"similarity":0.454,"stretto":false,"stretto_voices":0,"combination":[],"aug_dim":"","rhythm_ratio":1.0,"mirror":false,"chromatic_density":0.368,"complexity":0.589,"dissonance":0.218},{"voice":0,"pitch":74,"start":139.3332,"duration":0.5,"velocity":127,"measure":53,"beat":2.0,"subject_pos":-1,"motif":"tail","motif_pos":5,"best_pos":5,"similarity":1.0,"stretto":false,"stretto_voices":0,"combination":[],"aug_dim":"","rhythm_ratio":1.0,"mirror":false,"chromatic_density":0.368,"complexity":0.589,"dissonance":0.218},{"voice":3,"pitch":41,"start":139.3332,"duration":0.4167,"velocity":127,"measure":53,"beat":2.0,"subject_pos":-1,"motif":"","motif_pos":-1,"best_pos":4,"similarity":0.425,"stretto":false,"stretto_voices":0,"combination":[],"aug_dim":"","rhythm_ratio":1.0,"mirror":false,"chromatic_density":0.368,"complexity":0.589,"dissonance":0.218},{"voice":3,"pitch":43,"start":139.7499,"duration":0.0833,"velocity":127,"measure":53,"beat":2.625,"subject_pos":-1,"motif":"","motif_pos":-1,"best_pos":1,"similarity":0.386,"stretto":false,"stretto_voices":0,"combination":[],"aug_dim":"","rhythm_ratio":1.0,"mirror":false,"chromatic_density":0.368,"complexity":0.589,"dissonance":0.218},{"voice":0,"pitch":76,"start":139.8332,"duration":0.1667,"velocity":127,"measure":53,"beat":2.75,"subject_pos":-1,"motif":"tail","motif_pos":6,"best_pos":6,"similarity":1.0,"stretto":false,"stretto_voices":0,"combination":[],"aug_dim":"","rhythm_ratio":1.0,"mirror":false,"chromatic_density":0.368,"complexity":0.589,"dissonance":0.218},{"voice":3,"pitch":41,"start":139.8332,"duration":0.0833,"velocity":127,"measure":53,"beat":2.75,"subject_pos":-1,"motif":"","motif_pos":-1,"best_pos":3,"similarity":0.464,"stretto":false,"stretto_voices":0,"combination":[],"aug_dim":"","rhythm_ratio":1.0,"mirror":false,"chromatic_density":0.368,"complexity":0.589,"dissonance":0.218},{"voice":3,"pitch":40,"start":139.9165,"duration":0.0833,"velocity":127,"measure":53,"beat":2.875,"subject_pos":-1,"motif":"","motif_pos":-1,"best_pos":3,"similarity":0.45,"stretto":false,"stretto_voices":0,"combination":[],"aug_dim":"","rhythm_ratio":1.0,"mirror":false,"chromatic_density":0.368,"complexity":0.589,"dissonance":0.218},{"voice":0,"pitch":77,"start":139.9999,"duration":1.0833,"velocity":127,"measure":53,"beat":3.0,"subject_pos":-1,"motif":"tail","motif_pos":7,"best_pos":7,"similarity":1.0,"stretto":false,"stretto_voices":0,"combination":[],"aug_dim":"","rhythm_ratio":1.0,"mirror":false,"chromatic_density":0.368,"complexity":0.589,"dissonance":0.218},{"voice":3,"pitch":38,"start":139.9999,"duration":0.5,"velocity":127,"measure":53,"beat":3.0,"subject_pos":-1,"motif":"","motif_pos":-1,"best_pos":3,"similarity":0.5,"stretto":false,"stretto_voices":0,"combination":[],"aug_dim":"","rhythm_ratio":1.0,"mirror":false,"chromatic_density":0.368,"complexity":0.589,"dissonance":0.218},{"voice":1,"pitch":72,"start":140.4165,"duration":0.0833,"velocity":127,"measure":53,"beat":3.625,"subject_pos":-1,"motif":"","motif_pos":-1,"best_pos":6,"similarity":0.529,"stretto":false,"stretto_voices":0,"combination":[],"aug_dim":"","rhythm_ratio":1.0,"mirror":false,"chromatic_density":0.368,"complexity":0.589,"dissonance":0.218},{"voice":1,"pitch":70,"start":140.4999,"duration":0.0833,"velocity":127,"measure":53,"beat":3.75,"subject_pos":-1,"motif":"","motif_pos":-1,"best_pos":3,"similarity":0.611,"stretto":false,"stretto_voices":0,"combination":[],"aug_dim":"","rhythm_ratio":1.0,"mirror":false,"chromatic_density":0.368,"complexity":0.589,"dissonance":0.218},{"voice":3,"pitch":36,"start":140.4999,"duration":0.1667,"velocity":127,"measure":53,"beat":3.75,"subject_pos":-1,"motif":"","motif_pos":-1,"best_pos":4,"similarity":0.607,"stretto":false,"stretto_voices":0,"combination":[],"aug_dim":"","rhythm_ratio":1.0,"mirror":false,"chromatic_density":0.368,"complexity":0.589,"dissonance":0.218},{"voice":1,"pitch":69,"start":140.5832,"duration":0.0833,"velocity":127,"measure":53,"beat":3.875,"subject_pos":-1,"motif":"","motif_pos":-1,"best_pos":4,"similarity":0.704,"stretto":false,"stretto_voices":0,"combination":[],"aug_dim":"","rhythm_ratio":1.0,"mirror":false,"chromatic_density":0.368,"complexity":0.589,"dissonance":0.218},{"voice":1,"pitch":70,"start":140.6665,"duration":1.75,"velocity":127,"measure":53,"beat":4.0,"subject_pos":-1,"motif":"","motif_pos":-1,"best_pos":5,"similarity":0.571,"stretto":false,"stretto_voices":0,"combination":[],"aug_dim":"","rhythm_ratio":1.0,"mirror":false,"chromatic_density":0.368,"complexity":0.589,"dissonance":0.218},{"voice":3,"pitch":38,"start":140.6665,"duration":0.5,"velocity":127,"measure":53,"beat":4.0,"subject_pos":-1,"motif":"","motif_pos":-1,"best_pos":5,"similarity":0.679,"stretto":false,"stretto_voices":0,"combination":[],"aug_dim":"","rhythm_ratio":1.0,"mirror":false,"chromatic_density":0.368,"complexity":0.589,"dissonance":0.218},{"voice":0,"pitch":77,"start":141.0832,"duration":0.0833,"velocity":127,"measure":53,"beat":4.625,"subject_pos":-1,"motif":"","motif_pos":-1,"best_pos":3,"similarity":0.357,"stretto":false,"stretto_voices":0,"combination":[],"aug_dim":"","rhythm_ratio":1.0,"mirror":false,"chromatic_density":0.368,"complexity":0.589,"dissonance":0.218},{"voice":0,"pitch":76,"start":141.1665,"duration":0.0833,"velocity":127,"measure":53,"beat":4.75,"subject_pos":-1,"motif":"","motif_pos":-1,"best_pos":1,"similarity":0.393,"stretto":false,"stretto_voices":0,"combination":[],"aug_dim":"","rhythm_ratio":1.0,"mirror":false,"chromatic_density":0.368,"complexity":0.589,"dissonance":0.218},{"voice":3,"pitch":40,"start":141.1665,"duration":0.1667,"velocity":127,"measure":53,"beat":4.75,"subject_pos":-1,"motif":"","motif_pos":-1,"best_pos":6,"similarity":0.679,"stretto":false,"stretto_voices":0,"combination":[],"aug_dim":"","rhythm_ratio":1.0,"mirror":false,"chromatic_density":0.368,"complexity":0.589,"dissonance":0.218},{"voice":0,"pitch":74,"start":141.2499,"duration":0.0833,"velocity":127,"measure":53,"beat":4.875,"subject_pos":-1,"motif":"","motif_pos":-1,"best_pos":2,"similarity":0.507,"stretto":false,"stretto_voices":0,"combination":[],"aug_dim":"","rhythm_ratio":1.0,"mirror":false,"chromatic_density":0.368,"complexity":0.589,"dissonance":0.218},{"voice":0,"pitch":72,"start":141.3332,"duration":1.8333,"velocity":127,"measure":54,"beat":1.0,"subject_pos":-1,"motif":"","motif_pos":-1,"best_pos":3,"similarity":0.45,"stretto":false,"stretto_voices":0,"combination":[],"aug_dim":"","rhythm_ratio":1.0,"mirror":false,"chromatic_density":0.267,"complexity":0.632,"dissonance":0.066},{"voice":3,"pitch":41,"start":141.3332,"duration":1.6667,"velocity":127,"measure":54,"beat":1.0,"subject_pos":-1,"motif":"","motif_pos":-1,"best_pos":7,"similarity":0.464,"stretto":false,"stretto_voices":0,"combination":[],"aug_dim":"","rhythm_ratio":1.0,"mirror":false,"chromatic_density":0.267,"complexity":0.632,"dissonance":0.066},{"voice":2,"pitch":48,"start":141.7499,"duration":0.0833,"velocity":127,"measure":54,"beat":1.625,"subject_pos":-1,"motif":"","motif_pos":-1,"best_pos":5,"similarity":0.393,"stretto":false,"stretto_voices":0,"combination":[],"aug_dim":"","rhythm_ratio":1.0,"mirror":false,"chromatic_density":0.267,"complexity":0.632,"dissonance":0.066},{"voice":2,"pitch":50,"start":141.8332,"duration":0.0833,"velocity":127,"measure":54,"beat":1.75,"subject_pos":-1,"motif":"","motif_pos":-1,"best_pos":5,"similarity":0.579,"stretto":false,"stretto_voices":0,"combination":[],"aug_dim":"","rhythm_ratio":1.0,"mirror":false,"chromatic_density":0.267,"complexity":0.632,"dissonance":0.066},{"voice":2,"pitch":52,"start":141.9165,"duration":0.0833,"velocity":127,"measure":54,"beat":1.875,"subject_pos":-1,"motif":"","motif_pos":-1,"best_pos":6,"similarity":0.643,"stretto":false,"stretto_voices":0,"combination":[],"aug_dim":"","rhythm_ratio":1.0,"mirror":false,"chromatic_density":0.267,"complexity":0.632,"dissonance":0.066},{"voice":2,"pitch":53,"start":141.9999,"duration":0.8333,"velocity":127,"measure":54,"beat":2.0,"subject_pos":-1,"motif":"","motif_pos":-1,"best_pos":5,"similarity":0.6,"stretto":false,"stretto_voices":0,"combination":[],"aug_dim":"","rhythm_ratio":1.0,"mirror":false,"chromatic_density":0.267,"complexity":0.632,"dissonance":0.066},{"voice":1,"pitch":70,"start":142.4165,"duration":0.0833,"velocity":127,"measure":54,"beat":2.625,"subject_pos":-1,"motif":"","motif_pos":-1,"best_pos":3,"similarity":0.414,"stretto":false,"stretto_voices":0,"combination":[],"aug_dim":"","rhythm_ratio":1.0,"mirror":false,"chromatic_density":0.267,"complexity":0.632,"dissonance":0.066},{"voice":1,"pitch":69,"start":142.4999,"duration":0.0833,"velocity":127,"measure":54,"beat":2.75,"subject_pos":-1,"motif":"","motif_pos":-1,"best_pos":4,"similarity":0.479,"stretto":false,"stretto_voices":0,"combination":[],"aug_dim":"","rhythm_ratio":1.0,"mirror":false,"chromatic_density":0.267,"complexity":0.632,"dissonance":0.066},{"voice":1,"pitch":67,"start":142.5832,"duration":0.0833,"velocity":127,"measure":54,"beat":2.875,"subject_pos":-1,"motif":"","motif_pos":-1,"best_pos":5,"similarity":0.464,"stretto":false,"stretto_voices":0,"combination":[],"aug_dim":"","rhythm_ratio":1.0,"mirror":false,"chromatic_density":0.267,"complexity":0.632,"dissonance":0.066},{"voice":1,"pitch":69,"start":142.6665,"duration":1.8333,"velocity":127,"measure":54,"beat":3.0,"subject_pos":-1,"motif":"","motif_pos":-1,"best_pos":6,"similarity":0.371,"stretto":false,"stretto_voices":0,"combination":[],"aug_dim":"","rhythm_ratio":1.0,"mirror":false,"chromatic_density":0.267,"complexity":0.632,"dissonance":0.066},{"voice":2,"pitch":55,"start":142.8332,"duration":0.1667,"velocity":127,"measure":54,"beat":3.25,"subject_pos":-1,"motif":"","motif_pos":-1,"best_pos":6,"similarity":0.464,"stretto":false,"stretto_voices":0,"combination":[],"aug_dim":"","rhythm_ratio":1.0,"mirror":false,"chromatic_density":0.267,"complexity":0.632,"dissonance":0.066},{"voice":2,"pitch":53,"start":142.9999,"duration":0.1667,"velocity":127,"measure":54,"beat":3.5,"subject_pos":-1,"motif":"","motif_pos":-1,"best_pos":3,"similarity":0.5,"stretto":false,"stretto_voices":0,"combination":[],"aug_dim":"","rhythm_ratio":1.0,"mirror":false,"chromatic_density":0.267,"complexity":0.632,"dissonance":0.066},{"voice":0,"pitch":72,"start":143.1665,"duration":0.1667,"velocity":127,"measure":54,"beat":3.75,"subject_pos":-1,"motif":"","motif_pos":-1,"best_pos":0,"similarity":0.393,"stretto":false,"stretto_voices":0,"combination":[],"aug_dim":"","rhythm_ratio":1.0,"mirror":false,"chromatic_density":0.267,"complexity":0.632,"dissonance":0.066},{"voice":2,"pitch":52,"start":143.1665,"duration":0.1667,"velocity":127,"measure":54,"beat":3.75,"subject_pos":-1,"motif":"","motif_pos":-1,"best_pos":4,"similarity":0.5,"stretto":false,"stretto_voices":0,"combination":[],"aug_dim":"","rhythm_ratio":1.0,"mirror":false,"chromatic_density":0.267,"complexity":0.632,"dissonance":0.066},{"voice":0,"pitch":77,"start":143.3332,"duration":0.5,"velocity":127,"measure":54,"beat":4.0,"subject_pos":-1,"motif":"","motif_pos":-1,"best_pos":1,"similarity":0.536,"stretto":false,"stretto_voices":0,"combination":[],"aug_dim":"","rhythm_ratio":1.0,"mirror":false,"chromatic_density":0.267,"complexity":0.632,"dissonance":0.066},{"voice":2,"pitch":50,"start":143.3332,"duration":0.1667,"velocity":127,"measure":54,"beat":4.0,"subject_pos":-1,"motif":"","motif_pos":-1,"best_pos":4,"similarity":0.5,"stretto":false,"stretto_voices":0,"combination":[],"aug_dim":"","rhythm_ratio":1.0,"mirror":false,"chromatic_density":0.267,"complexity":0.632,"dissonance":0.066},{"voice":2,"pitch":53,"start":143.4999,"duration":0.1667,"velocity":127,"measure":54,"beat":4.25,"subject_pos":-1,"motif":"","motif_pos":-1,"best_pos":5,"similarity":0.518,"stretto":false,"stretto_voices":0,"combination":[],"aug_dim":"","rhythm_ratio":1.0,"mirror":false,"chromatic_density":0.267,"complexity":0.632,"dissonance":0.066},{"voice":2,"pitch":55,"start":143.6665,"duration":0.1667,"velocity":127,"measure":54,"beat":4.5,"subject_pos":-1,"motif":"","motif_pos":-1,"best_pos":5,"similarity":0.621,"stretto":false,"stretto_voices":0,"combination":[],"aug_dim":"","rhythm_ratio":1.0,"mirror":false,"chromatic_density":0.267,"complexity":0.632,"dissonance":0.066},{"voice":0,"pitch":76,"start":143.8332,"duration":0.1667,"velocity":127,"measure":54,"beat":4.75,"subject_pos":-1,"motif":"","motif_pos":-1,"best_pos":2,"similarity":0.507,"stretto":false,"stretto_voices":0,"combination":[],"aug_dim":"","rhythm_ratio":1.0,"mirror":false,"chromatic_density":0.267,"complexity":0.632,"dissonance":0.066},{"voice":2,"pitch":57,"start":143.8332,"duration":0.1667,"velocity":127,"measure":54,"beat":4.75,"subject_pos":-1,"motif":"","motif_pos":-1,"best_pos":6,"similarity":0.65,"stretto":false,"stretto_voices":0,"combination":[],"aug_dim":"","rhythm_ratio":1.0,"mirror":false,"chromatic_density":0.267,"complexity":0.632,"dissonance":0.066},{"voice":0,"pitch":74,"start":143.9999,"duration":0.5,"velocity":127,"measure":55,"beat":1.0,"subject_pos":-1,"motif":"","motif_pos":-1,"best_pos":2,"similarity":0.5,"stretto":false,"stretto_voices":0,"combination":[],"aug_dim":"","rhythm_ratio":1.0,"mirror":false,"chromatic_density":0.32,"complexity":0.62,"dissonance":0.205},{"voice":2,"pitch":58,"start":143.9999,"duration":0.1667,"velocity":127,"measure":55,"beat":1.0,"subject_pos":-1,"motif":"","motif_pos":-1,"best_pos":5,"similarity":0.6,"stretto":false,"stretto_voices":0,"combination":[],"aug_dim":"","rhythm_ratio":1.0,"mirror":false,"chromatic_density":0.32,"complexity":0.62,"dissonance":0.205},{"voice":2,"pitch":60,"start":144.1665,"duration":0.1667,"velocity":127,"measure":55,"beat":1.25,"subject_pos":-1,"motif":"","motif_pos":-1,"best_pos":6,"similarity":0.464,"stretto":false,"stretto_voices":0,"combination":[],"aug_dim":"","rhythm_ratio":1.0,"mirror":false,"chromatic_density":0.32,"complexity":0.62,"dissonance":0.205},{"voice":2,"pitch":58,"start":144.3332,"duration":0.1667,"velocity":127,"measure":55,"beat":1.5,"subject_pos":-1,"motif":"","motif_pos":-1,"best_pos":3,"similarity":0.471,"stretto":false,"stretto_voices":0,"combination":[],"aug_dim":"","rhythm_ratio":1.0,"mirror":false,"chromatic_density":0.32,"complexity":0.62,"dissonance":0.205},{"voice":0,"pitch":72,"start":144.4999,"duration":0.1667,"velocity":127,"measure":55,"beat":1.75,"subject_pos":-1,"motif":"","motif_pos":-1,"best_pos":2,"similarity":0.436,"stretto":false,"stretto_voices":0,"combination":[],"aug_dim":"","rhythm_ratio":1.0,"mirror":false,"chromatic_density":0.32,"complexity":0.62,"dissonance":0.205},{"voice":1,"pitch":62,"start":144.4999,"duration":0.1667,"velocity":127,"measure":55,"beat":1.75,"subject_pos":-1,"motif":"head","motif_pos":0,"best_pos":0,"similarity":1.0,"stretto":false,"stretto_voices":0,"combination":[],"aug_dim":"","rhythm_ratio":1.0,"mirror":false,"chromatic_density":0.32,"complexity":0.62,"dissonance":0.205},{"voice":2,"pitch":57,"start":144.4999,"duration":0.1667,"velocity":127,"measure":55,"beat":1.75,"subject_pos":-1,"motif":"","motif_pos":-1,"best_pos":1,"similarity":0.429,"stretto":false,"stretto_voices":0,"combination":[],"aug_dim":"","rhythm_ratio":1.0,"mirror":false,"chromatic_density":0.32,"complexity":0.62,"dissonance":0.205},{"voice":0,"pitch":70,"start":144.6665,"duration":1.1667,"velocity":127,"measure":55,"beat":2.0,"subject_pos":-1,"motif":"","motif_pos":-1,"best_pos":2,"similarity":0.321,"stretto":false,"stretto_voices":0,"combination":[],"aug_dim":"","rhythm_ratio":1.0,"mirror":false,"chromatic_density":0.32,"complexity":0.62,"dissonance":0.205},{"voice":1,"pitch":67,"start":144.6665,"duration":0.5,"velocity":127,"measure":55,"beat":2.0,"subject_pos":-1,"motif":"head","motif_pos":1,"best_pos":1,"similarity":1.0,"stretto":false,"stretto_voices":0,"combination":[],"aug_dim":"","rhythm_ratio":1.0,"mirror":false,"chromatic_density":0.32,"complexity":0.62,"dissonance":0.205},{"voice":2,"pitch":55,"start":144.6665,"duration":0.1667,"velocity":127,"measure":55,"beat":2.0,"subject_pos":-1,"motif":"","motif_pos":-1,"best_pos":2,"similarity":0.579,"stretto":false,"stretto_voices":0,"combination":[],"aug_dim":"","rhythm_ratio":1.0,"mirror":false,"chromatic_density":0.32,"complexity":0.62,"dissonance":0.205},{"voice":2,"pitch":53,"start":144.8332,"duration":0.1667,"velocity":127,"measure":55,"beat":2.25,"subject_pos":-1,"motif":"","motif_pos":-1,"best_pos":3,"similarity":0.593,"stretto":false,"stretto_voices":0,"combination":[],"aug_dim":"","rhythm_ratio":1.0,"mirror":false,"chromatic_density":0.32,"complexity":0.62,"dissonance":0.205},{"voice":2,"pitch":52,"start":144.9999,"duration":0.1667,"velocity":127,"measure":55,"beat":2.5,"subject_pos":-1,"motif":"","motif_pos":-1,"best_pos":4,"similarity":0.471,"stretto":false,"stretto_voices":0,"combination":[],"aug_dim":"","rhythm_ratio":1.0,"mirror":false,"chromatic_density":0.32,"complexity":0.62,"dissonance":0.205},{"voice":1,"pitch":65,"start":145.1665,"duration":0.1667,"velocity":127,"measure":55,"beat":2.75,"subject_pos":-1,"motif":"head","motif_pos":2,"best_pos":2,"similarity":1.0,"stretto":false,"stretto_voices":0,"combination":[],"aug_dim":"","rhythm_ratio":1.0,"mirror":false,"chromatic_density":0.32,"complexity":0.62,"dissonance":0.205},{"voice":2,"pitch":50,"start":145.1665,"duration":0.1667,"velocity":127,"measure":55,"beat":2.75,"subject_pos":-1,"motif":"enigmatic_cell","motif_pos":0,"best_pos":0,"similarity":1.0,"stretto":false,"stretto_voices":0,"combination":[],"aug_dim":"","rhythm_ratio":1.0,"mirror":false,"chromatic_density":0.32,"complexity":0.62,"dissonance":0.205},{"voice":1,"pitch":64,"start":145.3332,"duration":0.5,"velocity":127,"measure":55,"beat":3.0,"subject_pos":-1,"motif":"head","motif_pos":3,"best_pos":3,"similarity":1.0,"stretto":false,"stretto_voices":0,"combination":[],"aug_dim":"","rhythm_ratio":1.0,"mirror":false,"chromatic_density":0.32,"complexity":0.62,"dissonance":0.205},{"voice":2,"pitch":49,"start":145.3332,"duration":0.1667,"velocity":127,"measure":55,"beat":3.0,"subject_pos":-1,"motif":"enigmatic_cell","motif_pos":1,"best_pos":1,"similarity":1.0,"stretto":false,"stretto_voices":0,"combination":[],"aug_dim":"","rhythm_ratio":1.0,"mirror":false,"chromatic_density":0.32,"complexity":0.62,"dissonance":0.205},{"voice":2,"pitch":55,"start":145.4999,"duration":0.1667,"velocity":127,"measure":55,"beat":3.25,"subject_pos":-1,"motif":"enigmatic_cell","motif_pos":2,"best_pos":2,"similarity":1.0,"stretto":false,"stretto_voices":0,"combination":[],"aug_dim":"","rhythm_ratio":1.0,"mirror":false,"chromatic_density":0.32,"complexity":0.62,"dissonance":0.205},{"voice":2,"pitch":57,"start":145.6665,"duration":0.1667,"velocity":127,"measure":55,"beat":3.5,"subject_pos":-1,"motif":"","motif_pos":-1,"best_pos":6,"similarity":0.643,"stretto":false,"stretto_voices":0,"combination":[],"aug_dim":"","rhythm_ratio":1.0,"mirror":false,"chromatic_density":0.32,"complexity":0.62,"dissonance":0.205},{"voice":0,"pitch":64,"start":145.8332,"duration":0.1667,"velocity":127,"measure":55,"beat":3.75,"subject_pos":-1,"motif":"","motif_pos":-1,"best_pos":0,"similarity":0.464,"stretto":false,"stretto_voices":0,"combination":[],"aug_dim":"","rhythm_ratio":1.0,"mirror":false,"chromatic_density":0.32,"complexity":0.62,"dissonance":0.205},{"voice":1,"pitch":62,"start":145.8332,"duration":0.1667,"velocity":127,"measure":55,"beat":3.75,"subject_pos":-1,"motif":"head","motif_pos":4,"best_pos":4,"similarity":1.0,"stretto":false,"stretto_voices":0,"combination":[],"aug_dim":"","rhythm_ratio":1.0,"mirror":false,"chromatic_density":0.32,"complexity":0.62,"dissonance":0.205},{"voice":2,"pitch":58,"start":145.8332,"duration":0.1667,"velocity":127,"measure":55,"beat":3.75,"subject_pos":-1,"motif":"","motif_pos":-1,"best_pos":7,"similarity":0.429,"stretto":false,"stretto_voices":0,"combination":[],"aug_dim":"","rhythm_ratio":1.0,"mirror":false,"chromatic_density":0.32,"complexity":0.62,"dissonance":0.205},{"voice":0,"pitch":69,"start":145.9999,"duration":0.5,"velocity":127,"measure":55,"beat":4.0,"subject_pos":-1,"motif":"","motif_pos":-1,"best_pos":1,"similarity":0.661,"stretto":false,"stretto_voices":0,"combination":[],"aug_dim":"","rhythm_ratio":1.0,"mirror":false,"chromatic_density":0.32,"complexity":0.62,"dissonance":0.205},{"voice":1,"pitch":61,"start":145.9999,"duration":0.6667,"velocity":127,"measure":55,"beat":4.0,"subject_pos":-1,"motif":"","motif_pos":-1,"best_pos":4,"similarity":0.75,"stretto":false,"stretto_voices":0,"combination":[],"aug_dim":"","rhythm_ratio":1.0,"mirror":false,"chromatic_density":0.32,"complexity":0.62,"dissonance":0.205},{"voice":2,"pitch":57,"start":145.9999,"duration":0.1667,"velocity":127,"measure":55,"beat":4.0,"subject_pos":-1,"motif":"","motif_pos":-1,"best_pos":1,"similarity":0.429,"stretto":false,"stretto_voices":0,"combination":[],"aug_dim":"","rhythm_ratio":1.0,"mirror":false,"chromatic_density":0.32,"complexity":0.62,"dissonance":0.205},{"voice":2,"pitch":55,"start":146.1665,"duration":0.1667,"velocity":127,"measure":55,"beat":4.25,"subject_pos":-1,"motif":"","motif_pos":-1,"best_pos":2,"similarity":0.579,"stretto":false,"stretto_voices":0,"combination":[],"aug_dim":"","rhythm_ratio":1.0,"mirror":false,"chromatic_density":0.32,"complexity":0.62,"dissonance":0.205},{"voice":2,"pitch":53,"start":146.3332,"duration":0.1667,"velocity":127,"measure":55,"beat":4.5,"subject_pos":-1,"motif":"","motif_pos":-1,"best_pos":3,"similarity":0.586,"stretto":false,"stretto_voices":0,"combination":[],"aug_dim":"","rhythm_ratio":1.0,"mirror":false,"chromatic_density":0.32,"complexity":0.62,"dissonance":0.205},{"voice":0,"pitch":67,"start":146.4999,"duration":0.1667,"velocity":127,"measure":55,"beat":4.75,"subject_pos":-1,"motif":"","motif_pos":-1,"best_pos":2,"similarity":0.679,"stretto":false,"stretto_voices":0,"combination":[],"aug_dim":"","rhythm_ratio":1.0,"mirror":false,"chromatic_density":0.32,"complexity":0.62,"dissonance":0.205},{"voice":2,"pitch":52,"start":146.4999,"duration":0.1667,"velocity":127,"measure":55,"beat":4.75,"subject_pos":-1,"motif":"","motif_pos":-1,"best_pos":4,"similarity":0.529,"stretto":false,"stretto_voices":0,"combination":[],"aug_dim":"","rhythm_ratio":1.0,"mirror":false,"chromatic_density":0.32,"complexity":0.62,"dissonance":0.205},{"voice":0,"pitch":65,"start":146.6665,"duration":0.5,"velocity":127,"measure":56,"beat":1.0,"subject_pos":-1,"motif":"","motif_pos":-1,"best_pos":3,"similarity":0.643,"stretto":false,"stretto_voices":0,"combination":[],"aug_dim":"","rhythm_ratio":1.0,"mirror":false,"chromatic_density":0.571,"complexity":0.554,"dissonance":0.2},{"voice":1,"pitch":62,"start":146.6665,"duration":1.5,"velocity":127,"measure":56,"beat":1.0,"subject_pos":-1,"motif":"","motif_pos":-1,"best_pos":5,"similarity":0.607,"stretto":false,"stretto_voices":0,"combination":[],"aug_dim":"","rhythm_ratio":1.0,"mirror":false,"chromatic_density":0.571,"complexity":0.554,"dissonance":0.2},{"voice":2,"pitch":50,"start":146.6665,"duration":0.1667,"velocity":127,"measure":56,"beat":1.0,"subject_pos":-1,"motif":"","motif_pos":-1,"best_pos":3,"similarity":0.429,"stretto":false,"stretto_voices":0,"combination":[],"aug_dim":"","rhythm_ratio":1.0,"mirror":false,"chromatic_density":0.571,"complexity":0.554,"dissonance":0.2},{"voice":2,"pitch":57,"start":146.8332,"duration":0.1667,"velocity":127,"measure":56,"beat":1.25,"subject_pos":-1,"motif":"","motif_pos":-1,"best_pos":4,"similarity":0.543,"stretto":false,"stretto_voices":0,"combination":[],"aug_dim":"","rhythm_ratio":1.0,"mirror":false,"chromatic_density":0.571,"complexity":0.554,"dissonance":0.2},{"voice":2,"pitch":58,"start":146.9999,"duration":0.1667,"velocity":127,"measure":56,"beat":1.5,"subject_pos":-1,"motif":"","motif_pos":-1,"best_pos":5,"similarity":0.621,"stretto":false,"stretto_voices":0,"combination":[],"aug_dim":"","rhythm_ratio":1.0,"mirror":false,"chromatic_density":0.571,"complexity":0.554,"dissonance":0.2},{"voice":0,"pitch":66,"start":147.1665,"duration":0.1667,"velocity":127,"measure":56,"beat":1.75,"subject_pos":-1,"motif":"","motif_pos":-1,"best_pos":4,"similarity":0.714,"stretto":false,"stretto_voices":0,"combination":[],"aug_dim":"","rhythm_ratio":1.0,"mirror":false,"chromatic_density":0.571,"complexity":0.554,"dissonance":0.2},{"voice":2,"pitch":60,"start":147.1665,"duration":0.1667,"velocity":127,"measure":56,"beat":1.75,"subject_pos":-1,"motif":"","motif_pos":-1,"best_pos":6,"similarity":0.457,"stretto":false,"stretto_voices":0,"combination":[],"aug_dim":"","rhythm_ratio":1.0,"mirror":false,"chromatic_density":0.571,"complexity":0.554,"dissonance":0.2},{"voice":0,"pitch":67,"start":147.3332,"duration":0.5,"velocity":127,"measure":56,"beat":2.0,"subject_pos":-1,"motif":"","motif_pos":-1,"best_pos":5,"similarity":0.786,"stretto":false,"stretto_voices":0,"combination":[],"aug_dim":"","rhythm_ratio":1.0,"mirror":false,"chromatic_density":0.571,"complexity":0.554,"dissonance":0.2},{"voice":2,"pitch":58,"start":147.3332,"duration":0.1667,"velocity":127,"measure":56,"beat":2.0,"subject_pos":-1,"motif":"","motif_pos":-1,"best_pos":3,"similarity":0.471,"stretto":false,"stretto_voices":0,"combination":[],"aug_dim":"","rhythm_ratio":1.0,"mirror":false,"chromatic_density":0.571,"complexity":0.554,"dissonance":0.2},{"voice":2,"pitch":57,"start":147.4999,"duration":0.1667,"velocity":127,"measure":56,"beat":2.25,"subject_pos":-1,"motif":"","motif_pos":-1,"best_pos":2,"similarity":0.5,"stretto":false,"stretto_voices":0,"combination":[],"aug_dim":"","rhythm_ratio":1.0,"mirror":false,"chromatic_density":0.571,"complexity":0.554,"dissonance":0.2},{"voice":2,"pitch":55,"start":147.6665,"duration":0.1667,"velocity":127,"measure":56,"beat":2.5,"subject_pos":-1,"motif":"","motif_pos":-1,"best_pos":3,"similarity":0.679,"stretto":false,"stretto_voices":0,"combination":[],"aug_dim":"","rhythm_ratio":1.0,"mirror":false,"chromatic_density":0.571,"complexity":0.554,"dissonance":0.2},{"voice":0,"pitch":69,"start":147.8332,"duration":0.1667,"velocity":127,"measure":56,"beat":2.75,"subject_pos":-1,"motif":"","motif_pos":-1,"best_pos":6,"similarity":0.732,"stretto":false,"stretto_voices":0,"combination":[],"aug_dim":"","rhythm_ratio":1.0,"mirror":false,"chromatic_density":0.571,"complexity":0.554,"dissonance":0.2},{"voice":2,"pitch":54,"start":147.8332,"duration":0.1667,"velocity":127,"measure":56,"beat":2.75,"subject_pos":-1,"motif":"","motif_pos":-1,"best_pos":4,"similarity":0.768,"stretto":false,"stretto_voices":0,"combination":[],"aug_dim":"","rhythm_ratio":1.0,"mirror":false,"chromatic_density":0.571,"complexity":0.554,"dissonance":0.2},{"voice":0,"pitch":70,"start":147.9999,"duration":0.5,"velocity":127,"measure":56,"beat":3.0,"subject_pos":-1,"motif":"","motif_pos":-1,"best_pos":4,"similarity":0.579,"stretto":false,"stretto_voices":0,"combination":[],"aug_dim":"","rhythm_ratio":1.0,"mirror":false,"chromatic_density":0.571,"complexity":0.554,"dissonance":0.2},{"voice":2,"pitch":55,"start":147.9999,"duration":1.5,"velocity":127,"measure":56,"beat":3.0,"subject_pos":-1,"motif":"","motif_pos":-1,"best_pos":5,"similarity":0.643,"stretto":false,"stretto_voices":0,"combination":[],"aug_dim":"","rhythm_ratio":1.0,"mirror":false,"chromatic_density":0.571,"complexity":0.554,"dissonance":0.2},{"voice":1,"pitch":62,"start":148.1665,"duration":0.1667,"velocity":127,"measure":56,"beat":3.25,"subject_pos":-1,"motif":"","motif_pos":-1,"best_pos":5,"similarity":0.625,"stretto":false,"stretto_voices":0,"combination":[],"aug_dim":"","rhythm_ratio":1.0,"mirror":false,"chromatic_density":0.571,"complexity":0.554,"dissonance":0.2},{"voice":1,"pitch":64,"start":148.3332,"duration":0.1667,"velocity":127,"measure":56,"beat":3.5,"subject_pos":-1,"motif":"tail_inv","motif_pos":0,"best_pos":0,"similarity":1.0,"stretto":false,"stretto_voices":0,"combination":[],"aug_dim":"","rhythm_ratio":1.0,"mirror":false,"chromatic_density":0.571,"complexity":0.554,"dissonance":0.2},{"voice":0,"pitch":71,"start":148.4999,"duration":0.1667,"velocity":127,"measure":56,"beat":3.75,"subject_pos":-1,"motif":"","motif_pos":-1,"best_pos":5,"similarity":0.75,"stretto":false,"stretto_voices":0,"combination":[],"aug_dim":"","rhythm_ratio":1.0,"mirror":false,"chromatic_density":0.571,"complexity":0.554,"dissonance":0.2},{"voice":1,"pitch":65,"start":148.4999,"duration":0.1667,"velocity":127,"measure":56,"beat":3.75,"subject_pos":-1,"motif":"tail_inv","motif_pos":1,"best_pos":1,"similarity":1.0,"stretto":false,"stretto_voices":0,"combination":[],"aug_dim":"","rhythm_ratio":1.0,"mirror":false,"chromatic_density":0.571,"complexity":0.554,"dissonance":0.2},{"voice":0,"pitch":73,"start":148.6665,"duration":0.5,"velocity":127,"measure":56,"beat":4.0,"subject_pos":-1,"motif":"","motif_pos":-1,"best_pos":6,"similarity":0.732,"stretto":false,"stretto_voices":0,"combination":[],"aug_dim":"","rhythm_ratio":1.0,"mirror":false,"chromatic_density":0.571,"complexity":0.554,"dissonance":0.2},{"voice":1,"pitch":64,"start":148.6665,"duration":0.1667,"velocity":127,"measure":56,"beat":4.0,"subject_pos":-1,"motif":"tail_inv","motif_pos":2,"best_pos":2,"similarity":1.0,"stretto":false,"stretto_voices":0,"combination":[],"aug_dim":"","rhythm_ratio":1.0,"mirror":false,"chromatic_density":0.571,"complexity":0.554,"dissonance":0.2},{"voice":1,"pitch":62,"start":148.8332,"duration":0.1667,"velocity":127,"measure":56,"beat":4.25,"subject_pos":-1,"motif":"tail_inv","motif_pos":3,"best_pos":3,"similarity":1.0,"stretto":false,"stretto_voices":0,"combination":[],"aug_dim":"","rhythm_ratio":1.0,"mirror":false,"chromatic_density":0.571,"complexity":0.554,"dissonance":0.2},{"voice":1,"pitch":61,"start":148.9999,"duration":0.1667,"velocity":127,"measure":56,"beat":4.5,"subject_pos":-1,"motif":"tail_inv","motif_pos":4,"best_pos":4,"similarity":1.0,"stretto":false,"stretto_voices":0,"combination":[],"aug_dim":"","rhythm_ratio":1.0,"mirror":false,"chromatic_density":0.571,"complexity":0.554,"dissonance":0.2},{"voice":0,"pitch":74,"start":149.1665,"duration":0.1667,"velocity":127,"measure":56,"beat":4.75,"subject_pos":-1,"motif":"","motif_pos":-1,"best_pos":5,"similarity":0.607,"stretto":false,"stretto_voices":0,"combination":[],"aug_dim":"","rhythm_ratio":1.0,"mirror":false,"chromatic_density":0.571,"complexity":0.554,"dissonance":0.2},{"voice":1,"pitch":59,"start":149.1665,"duration":0.1667,"velocity":127,"measure":56,"beat":4.75,"subject_pos":-1,"motif":"","motif_pos":-1,"best_pos":5,"similarity":0.493,"stretto":false,"stretto_voices":0,"combination":[],"aug_dim":"","rhythm_ratio":1.0,"mirror":false,"chromatic_density":0.571,"complexity":0.554,"dissonance":0.2},{"voice":0,"pitch":76,"start":149.3332,"duration":0.6667,"velocity":127,"measure":57,"beat":1.0,"subject_pos":-1,"motif":"","motif_pos":-1,"best_pos":0,"similarity":0.464,"stretto":false,"stretto_voices":0,"combination":[],"aug_dim":"","rhythm_ratio":1.0,"mirror":false,"chromatic_density":0.25,"complexity":0.53,"dissonance":0.206},{"voice":1,"pitch":61,"start":149.3332,"duration":0.8333,"velocity":127,"measure":57,"beat":1.0,"subject_pos":-1,"motif":"","motif_pos":-1,"best_pos":6,"similarity":0.371,"stretto":false,"stretto_voices":0,"combination":[],"aug_dim":"","rhythm_ratio":1.0,"mirror":false,"chromatic_density":0.25,"complexity":0.53,"dissonance":0.206},{"voice":2,"pitch":58,"start":149.4999,"duration":0.1667,"velocity":127,"measure":57,"beat":1.25,"subject_pos":-1,"motif":"","motif_pos":-1,"best_pos":6,"similarity":0.429,"stretto":false,"stretto_voices":0,"combination":[],"aug_dim":"","rhythm_ratio":1.0,"mirror":false,"chromatic_density":0.25,"complexity":0.53,"dissonance":0.206},{"voice":2,"pitch":57,"start":149.6665,"duration":0.1667,"velocity":127,"measure":57,"beat":1.5,"subject_pos":-1,"motif":"","motif_pos":-1,"best_pos":2,"similarity":0.4,"stretto":false,"stretto_voices":0,"combination":[],"aug_dim":"","rhythm_ratio":1.0,"mirror":false,"chromatic_density":0.25,"complexity":0.53,"dissonance":0.206},{"voice":2,"pitch":55,"start":149.8332,"duration":0.1667,"velocity":127,"measure":57,"beat":1.75,"subject_pos":-1,"motif":"","motif_pos":-1,"best_pos":2,"similarity":0.446,"stretto":false,"stretto_voices":0,"combination":[],"aug_dim":"","rhythm_ratio":1.0,"mirror":false,"chromatic_density":0.25,"complexity":0.53,"dissonance":0.206},{"voice":0,"pitch":81,"start":149.9999,"duration":0.5,"velocity":127,"measure":57,"beat":2.0,"subject_pos":-1,"motif":"","motif_pos":-1,"best_pos":1,"similarity":0.714,"stretto":false,"stretto_voices":0,"combination":[],"aug_dim":"","rhythm_ratio":1.0,"mirror":false,"chromatic_density":0.25,"complexity":0.53,"dissonance":0.206},{"voice":2,"pitch":53,"start":149.9999,"duration":1.3333,"velocity":127,"measure":57,"beat":2.0,"subject_pos":-1,"motif":"","motif_pos":-1,"best_pos":2,"similarity":0.436,"stretto":false,"stretto_voices":0,"combination":[],"aug_dim":"","rhythm_ratio":1.0,"mirror":false,"chromatic_density":0.25,"complexity":0.53,"dissonance":0.206},{"voice":1,"pitch":57,"start":150.1665,"duration":0.1667,"velocity":127,"measure":57,"beat":2.25,"subject_pos":-1,"motif":"","motif_pos":-1,"best_pos":4,"similarity":0.457,"stretto":false,"stretto_voices":0,"combination":[],"aug_dim":"","rhythm_ratio":1.0,"mirror":false,"chromatic_density":0.25,"complexity":0.53,"dissonance":0.206},{"voice":1,"pitch":59,"start":150.3332,"duration":0.1667,"velocity":127,"measure":57,"beat":2.5,"subject_pos":-1,"motif":"","motif_pos":-1,"best_pos":5,"similarity":0.586,"stretto":false,"stretto_voices":0,"combination":[],"aug_dim":"","rhythm_ratio":1.0,"mirror":false,"chromatic_density":0.25,"complexity":0.53,"dissonance":0.206},{"voice":0,"pitch":79,"start":150.4998,"duration":0.1667,"velocity":127,"measure":57,"beat":2.75,"subject_pos":-1,"motif":"","motif_pos":-1,"best_pos":2,"similarity":0.721,"stretto":false,"stretto_voices":0,"combination":[],"aug_dim":"","rhythm_ratio":1.0,"mirror":false,"chromatic_density":0.25,"complexity":0.53,"dissonance":0.206},{"voice":1,"pitch":61,"start":150.4998,"duration":0.1667,"velocity":127,"measure":57,"beat":2.75,"subject_pos":-1,"motif":"","motif_pos":-1,"best_pos":6,"similarity":0.65,"stretto":false,"stretto_voices":0,"combination":[],"aug_dim":"","rhythm_ratio":1.0,"mirror":false,"chromatic_density":0.25,"complexity":0.53,"dissonance":0.206},{"voice":0,"pitch":77,"start":150.6665,"duration":0.5,"velocity":127,"measure":57,"beat":3.0,"subject_pos":-1,"motif":"","motif_pos":-1,"best_pos":3,"similarity":0.664,"stretto":false,"stretto_voices":0,"combination":[],"aug_dim":"","rhythm_ratio":1.0,"mirror":false,"chromatic_density":0.25,"complexity":0.53,"dissonance":0.206},{"voice":1,"pitch":62,"start":150.6665,"duration":0.5,"velocity":127,"measure":57,"beat":3.0,"subject_pos":-1,"motif":"","motif_pos":-1,"best_pos":5,"similarity":0.729,"stretto":false,"stretto_voices":0,"combination":[],"aug_dim":"","rhythm_ratio":1.0,"mirror":false,"chromatic_density":0.25,"complexity":0.53,"dissonance":0.206},{"voice":0,"pitch":76,"start":151.1665,"duration":0.1667,"velocity":127,"measure":57,"beat":3.75,"subject_pos":-1,"motif":"","motif_pos":-1,"best_pos":4,"similarity":0.543,"stretto":false,"stretto_voices":0,"combination":[],"aug_dim":"","rhythm_ratio":1.0,"mirror":false,"chromatic_density":0.25,"complexity":0.53,"dissonance":0.206},{"voice":1,"pitch":64,"start":151.1665,"duration":0.1667,"velocity":127,"measure":57,"beat":3.75,"subject_pos":-1,"motif":"","motif_pos":-1,"best_pos":6,"similarity":0.721,"stretto":false,"stretto_voices":0,"combination":[],"aug_dim":"","rhythm_ratio":1.0,"mirror":false,"chromatic_density":0.25,"complexity":0.53,"dissonance":0.206},{"voice":0,"pitch":74,"start":151.3332,"duration":0.6667,"velocity":127,"measure":57,"beat":4.0,"subject_pos":-1,"motif":"tail","motif_pos":3,"best_pos":3,"similarity":1.0,"stretto":false,"stretto_voices":0,"combination":[],"aug_dim":"","rhythm_ratio":1.0,"mirror":false,"chromatic_density":0.25,"complexity":0.53,"dissonance":0.206},{"voice":1,"pitch":65,"start":151.3332,"duration":0.5,"velocity":127,"measure":57,"beat":4.0,"subject_pos":-1,"motif":"","motif_pos":-1,"best_pos":5,"similarity":0.664,"stretto":false,"stretto_voices":0,"combination":[],"aug_dim":"","rhythm_ratio":1.0,"mirror":false,"chromatic_density":0.25,"complexity":0.53,"dissonance":0.206},{"voice":2,"pitch":58,"start":151.3332,"duration":0.6667,"velocity":127,"measure":57,"beat":4.0,"subject_pos":-1,"motif":"","motif_pos":-1,"best_pos":3,"similarity":0.443,"stretto":false,"stretto_voices":0,"combination":[],"aug_dim":"","rhythm_ratio":1.0,"mirror":false,"chromatic_density":0.25,"complexity":0.53,"dissonance":0.206},{"voice":1,"pitch":67,"start":151.8332,"duration":0.1667,"velocity":127,"measure":57,"beat":4.75,"subject_pos":-1,"motif":"","motif_pos":-1,"best_pos":6,"similarity":0.579,"stretto":false,"stretto_voices":0,"combination":[],"aug_dim":"","rhythm_ratio":1.0,"mirror":false,"chromatic_density":0.25,"complexity":0.53,"dissonance":0.206},{"voice":0,"pitch":73,"start":151.9998,"duration":0.6667,"velocity":127,"measure":58,"beat":1.0,"subject_pos":-1,"motif":"tail","motif_pos":4,"best_pos":4,"similarity":1.0,"stretto":false,"stretto_voices":0,"combination":[],"aug_dim":"","rhythm_ratio":1.0,"mirror":false,"chromatic_density":0.312,"complexity":0.736,"dissonance":0.206},{"voice":1,"pitch":69,"start":151.9998,"duration":1.3333,"velocity":127,"measure":58,"beat":1.0,"subject_pos":0,"motif":"subject_inv","motif_pos":0,"best_pos":0,"similarity":1.0,"stretto":false,"stretto_voices":0,"combination":[],"aug_dim":"augmentation","rhythm_ratio":2.0,"mirror":false,"chromatic_density":0.312,"complexity":0.736,"dissonance":0.206},{"voice":2,"pitch":57,"start":151.9998,"duration":0.6667,"velocity":127,"measure":58,"beat":1.0,"subject_pos":-1,"motif":"","motif_pos":-1,"best_pos":4,"similarity":0.393,"stretto":false,"stretto_voices":0,"combination":[],"aug_dim":"","rhythm_ratio":1.0,"mirror":false,"chromatic_density":0.312,"complexity":0.736,"dissonance":0.206},{"voice":3,"pitch":45,"start":152.4998,"duration":0.1667,"velocity":127,"measure":58,"beat":1.75,"subject_pos":-1,"motif":"","motif_pos":-1,"best_pos":5,"similarity":0.421,"stretto":false,"stretto_voices":0,"combination":[],"aug_dim":"","rhythm_ratio":1.0,"mirror":false,"chromatic_density":0.312,"complexity":0.736,"dissonance":0.206},{"voice":0,"pitch":74,"start":152.6665,"duration":0.5,"velocity":127,"measure":58,"beat":2.0,"subject_pos":-1,"motif":"tail","motif_pos":5,"best_pos":5,"similarity":1.0,"stretto":false,"stretto_voices":0,"combination":[],"aug_dim":"","rhythm_ratio":1.0,"mirror":false,"chromatic_density":0.312,"complexity":0.736,"dissonance":0.206},{"voice":3,"pitch":47,"start":152.6665,"duration":0.5,"velocity":127,"measure":58,"beat":2.0,"subject_pos":-1,"motif":"","motif_pos":-1,"best_pos":5,"similarity":0.579,"stretto":false,"stretto_voices":0,"combination":[],"aug_dim":"","rhythm_ratio":1.0,"mirror":false,"chromatic_density":0.312,"complexity":0.736,"dissonance":0.206},{"voice":0,"pitch":76,"start":153.1665,"duration":0.1667,"velocity":127,"measure":58,"beat":2.75,"subject_pos":-1,"motif":"tail","motif_pos":6,"best_pos":6,"similarity":1.0,"stretto":false,"stretto_voices":0,"combination":[],"aug_dim":"","rhythm_ratio":1.0,"mirror":false,"chromatic_density":0.312,"complexity":0.736,"dissonance":0.206},{"voice":3,"pitch":49,"start":153.1665,"duration":0.1667,"velocity":127,"measure":58,"beat":2.75,"subject_pos":-1,"motif":"","motif_pos":-1,"best_pos":6,"similarity":0.643,"stretto":false,"stretto_voices":0,"combination":[],"aug_dim":"","rhythm_ratio":1.0,"mirror":false,"chromatic_density":0.312,"complexity":0.736,"dissonance":0.206},{"voice":0,"pitch":77,"start":153.3332,"duration":0.8333,"velocity":127,"measure":58,"beat":3.0,"subject_pos":-1,"motif":"tail","motif_pos":7,"best_pos":7,"similarity":1.0,"stretto":false,"stretto_voices":0,"combination":[],"aug_dim":"","rhythm_ratio":1.0,"mirror":false,"chromatic_density":0.312,"complexity":0.736,"dissonance":0.206},{"voice":1,"pitch":62,"start":153.3332,"duration":1.0,"velocity":127,"measure":58,"beat":3.0,"subject_pos":1,"motif":"subject_inv","motif_pos":1,"best_pos":1,"similarity":1.0,"stretto":true,"stretto_voices":2,"combination":[],"aug_dim":"augmentation","rhythm_ratio":2.0,"mirror":false,"chromatic_density":0.312,"complexity":0.736,"dissonance":0.206},{"voice":2,"pitch":62,"start":153.3332,"duration":0.6667,"velocity":127,"measure":58,"beat":3.0,"subject_pos":0,"motif":"subject","motif_pos":0,"best_pos":0,"similarity":1.0,"stretto":true,"stretto_voices":2,"combination":[],"aug_dim":"","rhythm_ratio":1.0,"mirror":false,"chromatic_density":0.312,"complexity":0.736,"dissonance":0.206},{"voice":3,"pitch":50,"start":153.3332,"duration":0.5,"velocity":127,"measure":58,"beat":3.0,"subject_pos":-1,"motif":"","motif_pos":-1,"best_pos":5,"similarity":0.729,"stretto":false,"stretto_voices":0,"combination":[],"aug_dim":"","rhythm_ratio":1.0,"mirror":false,"chromatic_density":0.312,"complexity":0.736,"dissonance":0.206},{"voice":3,"pitch":52,"start":153.8332,"duration":0.1667,"velocity":127,"measure":58,"beat":3.75,"subject_pos":-1,"motif":"","motif_pos":-1,"best_pos":6,"similarity":0.721,"stretto":false,"stretto_voices":0,"combination":[],"aug_dim":"","rhythm_ratio":1.0,"mirror":false,"chromatic_density":0.312,"complexity":0.736,"dissonance":0.206},{"voice":2,"pitch":69,"start":153.9998,"duration":0.5,"velocity":127,"measure":58,"beat":4.0,"subject_pos":1,"motif":"subject","motif_pos":1,"best_pos":1,"similarity":1.0,"stretto":true,"stretto_voices":2,"combination":[],"aug_dim":"","rhythm_ratio":1.0,"mirror":false,"chromatic_density":0.312,"complexity":0.736,"dissonance":0.206},{"voice":3,"pitch":53,"start":153.9998,"duration":1.0833,"velocity":127,"measure":58,"beat":4.0,"subject_pos":-1,"motif":"","motif_pos":-1,"best_pos":7,"similarity":0.5,"stretto":false,"stretto_voices":0,"combination":[],"aug_dim":"","rhythm_ratio":1.0,"mirror":false,"chromatic_density":0.312,"complexity":0.736,"dissonance":0.206},{"voice":0,"pitch":79,"start":154.1665,"duration":0.1667,"velocity":127,"measure":58,"beat":4.25,"subject_pos":-1,"motif":"","motif_pos":-1,"best_pos":6,"similarity":0.464,"stretto":false,"stretto_voices":0,"combination":[],"aug_dim":"","rhythm_ratio":1.0,"mirror":false,"chromatic_density":0.312,"complexity":0.736,"dissonance":0.206},{"voice":0,"pitch":77,"start":154.3332,"duration":0.1667,"velocity":127,"measure":58,"beat":4.5,"subject_pos":-1,"motif":"","motif_pos":-1,"best_pos":3,"similarity":0.464,"stretto":false,"stretto_voices":0,"combination":[],"aug_dim":"","rhythm_ratio":1.0,"mirror":false,"chromatic_density":0.312,"complexity":0.736,"dissonance":0.206},{"voice":1,"pitch":64,"start":154.3332,"duration":0.3333,"velocity":127,"measure":58,"beat":4.5,"subject_pos":2,"motif":"subject_inv","motif_pos":2,"best_pos":2,"similarity":1.0,"stretto":true,"stretto_voices":2,"combination":[],"aug_dim":"augmentation","rhythm_ratio":2.0,"mirror":false,"chromatic_density":0.312,"complexity":0.736,"dissonance":0.206},{"voice":0,"pitch":76,"start":154.4998,"duration":0.1667,"velocity":127,"measure":58,"beat":4.75,"subject_pos":-1,"motif":"","motif_pos":-1,"best_pos":4,"similarity":0.393,"stretto":false,"stretto_voices":0,"combination":[],"aug_dim":"","rhythm_ratio":1.0,"mirror":false,"chromatic_density":0.312,"complexity":0.736,"dissonance":0.206},{"voice":2,"pitch":67,"start":154.4998,"duration":0.1667,"velocity":127,"measure":58,"beat":4.75,"subject_pos":2,"motif":"subject","motif_pos":2,"best_pos":2,"similarity":1.0,"stretto":true,"stretto_voices":2,"combination":[],"aug_dim":"","rhythm_ratio":1.0,"mirror":false,"chromatic_density":0.312,"complexity":0.736,"dissonance":0.206},{"voice":0,"pitch":74,"start":154.6665,"duration":0.6667,"velocity":127,"measure":59,"beat":1.0,"subject_pos":-1,"motif":"","motif_pos":-1,"best_pos":2,"similarity":0.393,"stretto":false,"stretto_voices":0,"combination":[],"aug_dim":"","rhythm_ratio":1.0,"mirror":false,"chromatic_density":0.421,"complexity":0.706,"dissonance":0.111},{"voice":1,"pitch":65,"start":154.6665,"duration":1.0,"velocity":127,"measure":59,"beat":1.0,"subject_pos":3,"motif":"subject_inv","motif_pos":3,"best_pos":3,"similarity":1.0,"stretto":true,"stretto_voices":2,"combination":[],"aug_dim":"augmentation","rhythm_ratio":2.0,"mirror":false,"chromatic_density":0.421,"complexity":0.706,"dissonance":0.111},{"voice":2,"pitch":65,"start":154.6665,"duration":0.5,"velocity":127,"measure":59,"beat":1.0,"subject_pos":3,"motif":"subject","motif_pos":3,"best_pos":3,"similarity":1.0,"stretto":true,"stretto_voices":2,"combination":[],"aug_dim":"","rhythm_ratio":1.0,"mirror":false,"chromatic_density":0.421,"complexity":0.706,"dissonance":0.111},{"voice":3,"pitch":53,"start":155.0832,"duration":0.0833,"velocity":127,"measure":59,"beat":1.625,"subject_pos":-1,"motif":"","motif_pos":-1,"best_pos":5,"similarity":0.536,"stretto":false,"stretto_voices":0,"combination":[],"aug_dim":"","rhythm_ratio":1.0,"mirror":false,"chromatic_density":0.421,"complexity":0.706,"dissonance":0.111},{"voice":2,"pitch":64,"start":155.1665,"duration":0.1667,"velocity":127,"measure":59,"beat":1.75,"subject_pos":4,"motif":"subject","motif_pos":4,"best_pos":4,"similarity":1.0,"stretto":true,"stretto_voices":2,"combination":[],"aug_dim":"","rhythm_ratio":1.0,"mirror":false,"chromatic_density":0.421,"complexity":0.706,"dissonance":0.111},{"voice":3,"pitch":55,"start":155.1665,"duration":0.0833,"velocity":127,"measure":59,"beat":1.75,"subject_pos":-1,"motif":"","motif_pos":-1,"best_pos":5,"similarity":0.65,"stretto":false,"stretto_voices":0,"combination":[],"aug_dim":"","rhythm_ratio":1.0,"mirror":false,"chromatic_density":0.421,"complexity":0.706,"dissonance":0.111},{"voice":3,"pitch":57,"start":155.2498,"duration":0.0833,"velocity":127,"measure":59,"beat":1.875,"subject_pos":-1,"motif":"","motif_pos":-1,"best_pos":6,"similarity":0.679,"stretto":false,"stretto_voices":0,"combination":[],"aug_dim":"","rhythm_ratio":1.0,"mirror":false,"chromatic_density":0.421,"complexity":0.706,"dissonance":0.111},{"voice":2,"pitch":62,"start":155.3332,"duration":0.6667,"velocity":127,"measure":59,"beat":2.0,"subject_pos":5,"motif":"subject","motif_pos":5,"best_pos":5,"similarity":1.0,"stretto":true,"stretto_voices":2,"combination":[],"aug_dim":"","rhythm_ratio":1.0,"mirror":false,"chromatic_density":0.421,"complexity":0.706,"dissonance":0.111},{"voice":3,"pitch":58,"start":155.3332,"duration":0.5,"velocity":127,"measure":59,"beat":2.0,"subject_pos":-1,"motif":"","motif_pos":-1,"best_pos":7,"similarity":0.464,"stretto":false,"stretto_voices":0,"combination":[],"aug_dim":"","rhythm_ratio":1.0,"mirror":false,"chromatic_density":0.421,"complexity":0.706,"dissonance":0.111},{"voice":1,"pitch":67,"start":155.6665,"duration":0.3333,"velocity":127,"measure":59,"beat":2.5,"subject_pos":4,"motif":"subject_inv","motif_pos":4,"best_pos":4,"similarity":1.0,"stretto":true,"stretto_voices":2,"combination":[],"aug_dim":"augmentation","rhythm_ratio":2.0,"mirror":false,"chromatic_density":0.421,"complexity":0.706,"dissonance":0.111},{"voice":3,"pitch":46,"start":155.8332,"duration":0.1667,"velocity":127,"measure":59,"beat":2.75,"subject_pos":-1,"motif":"","motif_pos":-1,"best_pos":3,"similarity":0.314,"stretto":false,"stretto_voices":0,"combination":[],"aug_dim":"","rhythm_ratio":1.0,"mirror":false,"chromatic_density":0.421,"complexity":0.706,"dissonance":0.111},{"voice":1,"pitch":69,"start":155.9998,"duration":1.3333,"velocity":127,"measure":59,"beat":3.0,"subject_pos":5,"motif":"subject_inv","motif_pos":5,"best_pos":5,"similarity":1.0,"stretto":true,"stretto_voices":2,"combination":[],"aug_dim":"augmentation","rhythm_ratio":2.0,"mirror":false,"chromatic_density":0.421,"complexity":0.706,"dissonance":0.111},{"voice":2,"pitch":61,"start":155.9998,"duration":0.6667,"velocity":127,"measure":59,"beat":3.0,"subject_pos":6,"motif":"subject","motif_pos":6,"best_pos":6,"similarity":1.0,"stretto":true,"stretto_voices":2,"combination":[],"aug_dim":"","rhythm_ratio":1.0,"mirror":false,"chromatic_density":0.421,"complexity":0.706,"dissonance":0.111},{"voice":3,"pitch":45,"start":155.9998,"duration":0.1667,"velocity":127,"measure":59,"beat":3.0,"subject_pos":-1,"motif":"","motif_pos":-1,"best_pos":4,"similarity":0.314,"stretto":false,"stretto_voices":0,"combination":[],"aug_dim":"","rhythm_ratio":1.0,"mirror":false,"chromatic_density":0.421,"complexity":0.706,"dissonance":0.111},{"voice":3,"pitch":58,"start":156.1665,"duration":0.1667,"velocity":127,"measure":59,"beat":3.25,"subject_pos":-1,"motif":"","motif_pos":-1,"best_pos":3,"similarity":0.379,"stretto":false,"stretto_voices":0,"combination":[],"aug_dim":"","rhythm_ratio":1.0,"mirror":false,"chromatic_density":0.421,"complexity":0.706,"dissonance":0.111},{"voice":3,"pitch":57,"start":156.3332,"duration":0.1667,"velocity":127,"measure":59,"beat":3.5,"subject_pos":-1,"motif":"","motif_pos":-1,"best_pos":1,"similarity":0.429,"stretto":false,"stretto_voices":0,"combination":[],"aug_dim":"","rhythm_ratio":1.0,"mirror":false,"chromatic_density":0.421,"complexity":0.706,"dissonance":0.111},{"voice":3,"pitch":55,"start":156.4998,"duration":0.1667,"velocity":127,"measure":59,"beat":3.75,"subject_pos":-1,"motif":"","motif_pos":-1,"best_pos":2,"similarity":0.579,"stretto":false,"stretto_voices":0,"combination":[],"aug_dim":"","rhythm_ratio":1.0,"mirror":false,"chromatic_density":0.421,"complexity":0.706,"dissonance":0.111},{"voice":2,"pitch":62,"start":156.6665,"duration":0.5,"velocity":127,"measure":59,"beat":4.0,"subject_pos":7,"motif":"subject","motif_pos":7,"best_pos":7,"similarity":1.0,"stretto":true,"stretto_voices":2,"combination":[],"aug_dim":"","rhythm_ratio":1.0,"mirror":false,"chromatic_density":0.421,"complexity":0.706,"dissonance":0.111},{"voice":3,"pitch":53,"start":156.6665,"duration":0.1667,"velocity":127,"measure":59,"beat":4.0,"subject_pos":-1,"motif":"","motif_pos":-1,"best_pos":3,"similarity":0.593,"stretto":false,"stretto_voices":0,"combination":[],"aug_dim":"","rhythm_ratio":1.0,"mirror":false,"chromatic_density":0.421,"complexity":0.706,"dissonance":0.111},{"voice":3,"pitch":52,"start":156.8332,"duration":0.1667,"velocity":127,"measure":59,"beat":4.25,"subject_pos":-1,"motif":"","motif_pos":-1,"best_pos":4,"similarity":0.543,"stretto":false,"stretto_voices":0,"combination":[],"aug_dim":"","rhythm_ratio":1.0,"mirror":false,"chromatic_density":0.421,"complexity":0.706,"dissonance":0.111},{"voice":3,"pitch":50,"start":156.9998,"duration":0.1667,"velocity":127,"measure":59,"beat":4.5,"subject_pos":-1,"motif":"","motif_pos":-1,"best_pos":3,"similarity":0.643,"stretto":false,"stretto_voices":0,"combination":[],"aug_dim":"","rhythm_ratio":1.0,"mirror":false,"chromatic_density":0.421,"complexity":0.706,"dissonance":0.111},{"voice":2,"pitch":64,"start":157.1665,"duration":0.1667,"velocity":127,"measure":59,"beat":4.75,"subject_pos":8,"motif":"subject","motif_pos":8,"best_pos":0,"similarity":1.0,"stretto":true,"stretto_voices":2,"combination":[],"aug_dim":"","rhythm_ratio":1.0,"mirror":false,"chromatic_density":0.421,"complexity":0.706,"dissonance":0.111},{"voice":3,"pitch":49,"start":157.1665,"duration":0.1667,"velocity":127,"measure":59,"beat":4.75,"subject_pos":-1,"motif":"","motif_pos":-1,"best_pos":4,"similarity":0.686,"stretto":false,"stretto_voices":0,"combination":[],"aug_dim":"","rhythm_ratio":1.0,"mirror":false,"chromatic_density":0.421,"complexity":0.706,"dissonance":0.111},{"voice":1,"pitch":70,"start":157.3332,"duration":1.3333,"velocity":127,"measure":60,"beat":1.0,"subject_pos":6,"motif":"subject_inv","motif_pos":6,"best_pos":6,"similarity":1.0,"stretto":false,"stretto_voices":0,"combination":[],"aug_dim":"augmentation","rhythm_ratio":2.0,"mirror":false,"chromatic_density":0.4,"complexity":0.75,"dissonance":0.15},{"voice":2,"pitch":65,"start":157.3332,"duration":0.8333,"velocity":127,"measure":60,"beat":1.0,"subject_pos":-1,"motif":"","motif_pos":-1,"best_pos":7,"similarity":0.5,"stretto":false,"stretto_voices":0,"combination":[],"aug_dim":"","rhythm_ratio":1.0,"mirror":false,"chromatic_density":0.4,"complexity":0.75,"dissonance":0.15},{"voice":3,"pitch":50,"start":157.3332,"duration":0.1667,"velocity":127,"measure":60,"beat":1.0,"subject_pos":-1,"motif":"","motif_pos":-1,"best_pos":5,"similarity":0.479,"stretto":false,"stretto_voices":0,"combination":[],"aug_dim":"","rhythm_ratio":1.0,"mirror":false,"chromatic_density":0.4,"complexity":0.75,"dissonance":0.15},{"voice":3,"pitch":60,"start":157.4998,"duration":0.1667,"velocity":127,"measure":60,"beat":1.25,"subject_pos":-1,"motif":"","motif_pos":-1,"best_pos":1,"similarity":0.386,"stretto":false,"stretto_voices":0,"combination":[],"aug_dim":"","rhythm_ratio":1.0,"mirror":false,"chromatic_density":0.4,"complexity":0.75,"dissonance":0.15},{"voice":3,"pitch":58,"start":157.6665,"duration":0.1667,"velocity":127,"measure":60,"beat":1.5,"subject_pos":-1,"motif":"","motif_pos":-1,"best_pos":3,"similarity":0.457,"stretto":false,"stretto_voices":0,"combination":[],"aug_dim":"","rhythm_ratio":1.0,"mirror":false,"chromatic_density":0.4,"complexity":0.75,"dissonance":0.15},{"voice":3,"pitch":57,"start":157.8332,"duration":0.1667,"velocity":127,"measure":60,"beat":1.75,"subject_pos":-1,"motif":"","motif_pos":-1,"best_pos":1,"similarity":0.429,"stretto":false,"stretto_voices":0,"combination":[],"aug_dim":"","rhythm_ratio":1.0,"mirror":false,"chromatic_density":0.4,"complexity":0.75,"dissonance":0.15},{"voice":3,"pitch":55,"start":157.9998,"duration":0.1667,"velocity":127,"measure":60,"beat":2.0,"subject_pos":-1,"motif":"","motif_pos":-1,"best_pos":2,"similarity":0.579,"stretto":false,"stretto_voices":0,"combination":[],"aug_dim":"","rhythm_ratio":1.0,"mirror":false,"chromatic_density":0.4,"complexity":0.75,"dissonance":0.15},{"voice":2,"pitch":69,"start":158.1665,"duration":0.1667,"velocity":127,"measure":60,"beat":2.25,"subject_pos":-1,"motif":"","motif_pos":-1,"best_pos":1,"similarity":0.571,"stretto":false,"stretto_voices":0,"combination":[],"aug_dim":"","rhythm_ratio":1.0,"mirror":false,"chromatic_density":0.4,"complexity":0.75,"dissonance":0.15},{"voice":3,"pitch":53,"start":158.1665,"duration":0.1667,"velocity":127,"measure":60,"beat":2.25,"subject_pos":-1,"motif":"","motif_pos":-1,"best_pos":3,"similarity":0.593,"stretto":false,"stretto_voices":0,"combination":[],"aug_dim":"","rhythm_ratio":1.0,"mirror":false,"chromatic_density":0.4,"complexity":0.75,"dissonance":0.15},{"voice":2,"pitch":67,"start":158.3332,"duration":0.1667,"velocity":127,"measure":60,"beat":2.5,"subject_pos":-1,"motif":"","motif_pos":-1,"best_pos":2,"similarity":0.714,"stretto":false,"stretto_voices":0,"combination":[],"aug_dim":"","rhythm_ratio":1.0,"mirror":false,"chromatic_density":0.4,"complexity":0.75,"dissonance":0.15},{"voice":3,"pitch":52,"start":158.3332,"duration":0.1667,"velocity":127,"measure":60,"beat":2.5,"subject_pos":-1,"motif":"","motif_pos":-1,"best_pos":4,"similarity":0.471,"stretto":false,"stretto_voices":0,"combination":[],"aug_dim":"","rhythm_ratio":1.0,"mirror":false,"chromatic_density":0.4,"complexity":0.75,"dissonance":0.15},{"voice":2,"pitch":65,"start":158.4998,"duration":0.1667,"velocity":127,"measure":60,"beat":2.75,"subject_pos":-1,"motif":"","motif_pos":-1,"best_pos":3,"similarity":0.757,"stretto":false,"stretto_voices":0,"combination":[],"aug_dim":"","rhythm_ratio":1.0,"mirror":false,"chromatic_density":0.4,"complexity":0.75,"dissonance":0.15},{"voice":3,"pitch":50,"start":158.4998,"duration":0.1667,"velocity":127,"measure":60,"beat":2.75,"subject_pos":0,"motif":"subject","motif_pos":0,"best_pos":0,"similarity":1.0,"stretto":true,"stretto_voices":2,"combination":[],"aug_dim":"","rhythm_ratio":1.0,"mirror":false,"chromatic_density":0.4,"complexity":0.75,"dissonance":0.15},{"voice":1,"pitch":69,"start":158.6665,"duration":1.0,"velocity":127,"measure":60,"beat":3.0,"subject_pos":7,"motif":"subject_inv","motif_pos":7,"best_pos":7,"similarity":1.0,"stretto":true,"stretto_voices":2,"combination":[],"aug_dim":"augmentation","rhythm_ratio":2.0,"mirror":false,"chromatic_density":0.4,"complexity":0.75,"dissonance":0.15},{"voice":2,"pitch":64,"start":158.6665,"duration":0.1667,"velocity":127,"measure":60,"beat":3.0,"subject_pos":-1,"motif":"tail_inv","motif_pos":0,"best_pos":0,"similarity":1.0,"stretto":false,"stretto_voices":0,"combination":[],"aug_dim":"","rhythm_ratio":1.0,"mirror":false,"chromatic_density":0.4,"complexity":0.75,"dissonance":0.15},{"voice":3,"pitch":49,"start":158.6665,"duration":0.1667,"velocity":127,"measure":60,"beat":3.0,"subject_pos":-1,"motif":"subject","motif_pos":0,"best_pos":0,"similarity":1.0,"stretto":true,"stretto_voices":2,"combination":[],"aug_dim":"diminution","rhythm_ratio":0.38,"mirror":false,"chromatic_density":0.4,"complexity":0.75,"dissonance":0.15},{"voice":2,"pitch":65,"start":158.8332,"duration":0.1667,"velocity":127,"measure":60,"beat":3.25,"subject_pos":-1,"motif":"tail_inv","motif_pos":1,"best_pos":1,"similarity":1.0,"stretto":false,"stretto_voices":0,"combination":[],"aug_dim":"","rhythm_ratio":1.0,"mirror":false,"chromatic_density":0.4,"complexity":0.75,"dissonance":0.15},{"voice":3,"pitch":62,"start":158.8332,"duration":0.1667,"velocity":127,"measure":60,"beat":3.25,"subject_pos":1,"motif":"subject","motif_pos":1,"best_pos":1,"similarity":1.0,"stretto":true,"stretto_voices":2,"combination":[],"aug_dim":"diminution","rhythm_ratio":0.38,"mirror":false,"chromatic_density":0.4,"complexity":0.75,"dissonance":0.15},{"voice":2,"pitch":64,"start":158.9998,"duration":0.1667,"velocity":127,"measure":60,"beat":3.5,"subject_pos":-1,"motif":"tail_inv","motif_pos":2,"best_pos":2,"similarity":1.0,"stretto":false,"stretto_voices":0,"combination":[],"aug_dim":"","rhythm_ratio":1.0,"mirror":false,"chromatic_density":0.4,"complexity":0.75,"dissonance":0.15},{"voice":3,"pitch":61,"start":158.9998,"duration":0.1667,"velocity":127,"measure":60,"beat":3.5,"subject_pos":2,"motif":"subject","motif_pos":2,"best_pos":2,"similarity":1.0,"stretto":true,"stretto_voices":2,"combination":[],"aug_dim":"diminution","rhythm_ratio":0.38,"mirror":false,"chromatic_density":0.4,"complexity":0.75,"dissonance":0.15},{"voice":2,"pitch":62,"start":159.1665,"duration":0.1667,"velocity":127,"measure":60,"beat":3.75,"subject_pos":-1,"motif":"tail_inv","motif_pos":3,"best_pos":3,"similarity":1.0,"stretto":false,"stretto_voices":0,"combination":[],"aug_dim":"","rhythm_ratio":1.0,"mirror":false,"chromatic_density":0.4,"complexity":0.75,"dissonance":0.15},{"voice":3,"pitch":59,"start":159.1665,"duration":0.1667,"velocity":127,"measure":60,"beat":3.75,"subject_pos":3,"motif":"subject","motif_pos":3,"best_pos":3,"similarity":1.0,"stretto":true,"stretto_voices":2,"combination":[],"aug_dim":"diminution","rhythm_ratio":0.38,"mirror":false,"chromatic_density":0.4,"complexity":0.75,"dissonance":0.15},{"voice":2,"pitch":61,"start":159.3332,"duration":0.6667,"velocity":127,"measure":60,"beat":4.0,"subject_pos":-1,"motif":"tail_inv","motif_pos":4,"best_pos":4,"similarity":1.0,"stretto":false,"stretto_voices":0,"combination":[],"aug_dim":"","rhythm_ratio":1.0,"mirror":false,"chromatic_density":0.4,"complexity":0.75,"dissonance":0.15},{"voice":3,"pitch":57,"start":159.3332,"duration":0.1667,"velocity":127,"measure":60,"beat":4.0,"subject_pos":4,"motif":"subject","motif_pos":4,"best_pos":4,"similarity":1.0,"stretto":true,"stretto_voices":2,"combination":[],"aug_dim":"diminution","rhythm_ratio":0.38,"mirror":false,"chromatic_density":0.4,"complexity":0.75,"dissonance":0.15},{"voice":3,"pitch":55,"start":159.4998,"duration":0.1667,"velocity":127,"measure":60,"beat":4.25,"subject_pos":5,"motif":"subject","motif_pos":5,"best_pos":5,"similarity":1.0,"stretto":true,"stretto_voices":2,"combination":[],"aug_dim":"diminution","rhythm_ratio":0.38,"mirror":false,"chromatic_density":0.4,"complexity":0.75,"dissonance":0.15},{"voice":1,"pitch":67,"start":159.6665,"duration":0.3333,"velocity":127,"measure":60,"beat":4.5,"subject_pos":8,"motif":"subject_inv","motif_pos":8,"best_pos":0,"similarity":1.0,"stretto":true,"stretto_voices":2,"combination":[],"aug_dim":"augmentation","rhythm_ratio":2.0,"mirror":false,"chromatic_density":0.4,"complexity":0.75,"dissonance":0.15},{"voice":3,"pitch":53,"start":159.6665,"duration":0.1667,"velocity":127,"measure":60,"beat":4.5,"subject_pos":6,"motif":"subject","motif_pos":6,"best_pos":6,"similarity":1.0,"stretto":true,"stretto_voices":2,"combination":[],"aug_dim":"diminution","rhythm_ratio":0.38,"mirror":false,"chromatic_density":0.4,"complexity":0.75,"dissonance":0.15},{"voice":3,"pitch":52,"start":159.8332,"duration":0.1667,"velocity":127,"measure":60,"beat":4.75,"subject_pos":7,"motif":"subject","motif_pos":7,"best_pos":7,"similarity":1.0,"stretto":true,"stretto_voices":2,"combination":[],"aug_dim":"diminution","rhythm_ratio":0.38,"mirror":false,"chromatic_density":0.4,"complexity":0.75,"dissonance":0.15},{"voice":1,"pitch":65,"start":159.9998,"duration":1.8333,"velocity":127,"measure":61,"beat":1.0,"subject_pos":-1,"motif":"","motif_pos":-1,"best_pos":3,"similarity":0.786,"stretto":false,"stretto_voices":0,"combination":[],"aug_dim":"","rhythm_ratio":1.0,"mirror":false,"chromatic_density":0.269,"complexity":0.678,"dissonance":0.113},{"voice":2,"pitch":62,"start":159.9998,"duration":0.5,"velocity":127,"measure":61,"beat":1.0,"subject_pos":-1,"motif":"","motif_pos":-1,"best_pos":5,"similarity":0.479,"stretto":false,"stretto_voices":0,"combination":[],"aug_dim":"","rhythm_ratio":1.0,"mirror":false,"chromatic_density":0.269,"complexity":0.678,"dissonance":0.113},{"voice":3,"pitch":50,"start":159.9998,"duration":0.1667,"velocity":127,"measure":61,"beat":1.0,"subject_pos":8,"motif":"subject","motif_pos":8,"best_pos":0,"similarity":1.0,"stretto":false,"stretto_voices":0,"combination":[],"aug_dim":"diminution","rhythm_ratio":0.38,"mirror":false,"chromatic_density":0.269,"complexity":0.678,"dissonance":0.113},{"voice":3,"pitch":52,"start":160.1665,"duration":0.1667,"velocity":127,"measure":61,"beat":1.25,"subject_pos":-1,"motif":"","motif_pos":-1,"best_pos":1,"similarity":0.421,"stretto":false,"stretto_voices":0,"combination":[],"aug_dim":"","rhythm_ratio":1.0,"mirror":false,"chromatic_density":0.269,"complexity":0.678,"dissonance":0.113},{"voice":3,"pitch":50,"start":160.3332,"duration":0.1667,"velocity":127,"measure":61,"beat":1.5,"subject_pos":-1,"motif":"","motif_pos":-1,"best_pos":2,"similarity":0.532,"stretto":false,"stretto_voices":0,"combination":[],"aug_dim":"","rhythm_ratio":1.0,"mirror":false,"chromatic_density":0.269,"complexity":0.678,"dissonance":0.113},{"voice":2,"pitch":57,"start":160.4998,"duration":0.1667,"velocity":127,"measure":61,"beat":1.75,"subject_pos":-1,"motif":"","motif_pos":-1,"best_pos":0,"similarity":0.464,"stretto":false,"stretto_voices":0,"combination":[],"aug_dim":"","rhythm_ratio":1.0,"mirror":false,"chromatic_density":0.269,"complexity":0.678,"dissonance":0.113},{"voice":3,"pitch":48,"start":160.4998,"duration":0.1667,"velocity":127,"measure":61,"beat":1.75,"subject_pos":-1,"motif":"","motif_pos":-1,"best_pos":2,"similarity":0.579,"stretto":false,"stretto_voices":0,"combination":[],"aug_dim":"","rhythm_ratio":1.0,"mirror":false,"chromatic_density":0.269,"complexity":0.678,"dissonance":0.113},{"voice":2,"pitch":62,"start":160.6665,"duration":0.4167,"velocity":127,"measure":61,"beat":2.0,"subject_pos":-1,"motif":"","motif_pos":-1,"best_pos":1,"similarity":0.714,"stretto":false,"stretto_voices":0,"combination":[],"aug_dim":"","rhythm_ratio":1.0,"mirror":false,"chromatic_density":0.269,"complexity":0.678,"dissonance":0.113},{"voice":3,"pitch":46,"start":160.6665,"duration":0.1667,"velocity":127,"measure":61,"beat":2.0,"subject_pos":-1,"motif":"","motif_pos":-1,"best_pos":3,"similarity":0.593,"stretto":false,"stretto_voices":0,"combination":[],"aug_dim":"","rhythm_ratio":1.0,"mirror":false,"chromatic_density":0.269,"complexity":0.678,"dissonance":0.113},{"voice":3,"pitch":45,"start":160.8332,"duration":0.1667,"velocity":127,"measure":61,"beat":2.25,"subject_pos":-1,"motif":"","motif_pos":-1,"best_pos":4,"similarity":0.507,"stretto":false,"stretto_voices":0,"combination":[],"aug_dim":"","rhythm_ratio":1.0,"mirror":false,"chromatic_density":0.269,"complexity":0.678,"dissonance":0.113},{"voice":3,"pitch":43,"start":160.9998,"duration":0.1667,"velocity":127,"measure":61,"beat":2.5,"subject_pos":-1,"motif":"","motif_pos":-1,"best_pos":2,"similarity":0.443,"stretto":false,"stretto_voices":0,"combination":[],"aug_dim":"","rhythm_ratio":1.0,"mirror":false,"chromatic_density":0.269,"complexity":0.678,"dissonance":0.113},{"voice":2,"pitch":60,"start":161.0832,"duration":0.0833,"velocity":127,"measure":61,"beat":2.625,"subject_pos":-1,"motif":"","motif_pos":-1,"best_pos":2,"similarity":0.786,"stretto":false,"stretto_voices":0,"combination":[],"aug_dim":"","rhythm_ratio":1.0,"mirror":false,"chromatic_density":0.269,"complexity":0.678,"dissonance":0.113},{"voice":2,"pitch":58,"start":161.1665,"duration":0.0833,"velocity":127,"measure":61,"beat":2.75,"subject_pos":-1,"motif":"","motif_pos":-1,"best_pos":3,"similarity":0.786,"stretto":false,"stretto_voices":0,"combination":[],"aug_dim":"","rhythm_ratio":1.0,"mirror":false,"chromatic_density":0.269,"complexity":0.678,"dissonance":0.113},{"voice":3,"pitch":41,"start":161.1665,"duration":0.1667,"velocity":127,"measure":61,"beat":2.75,"subject_pos":-1,"motif":"","motif_pos":-1,"best_pos":5,"similarity":0.404,"stretto":false,"stretto_voices":0,"combination":[],"aug_dim":"","rhythm_ratio":1.0,"mirror":false,"chromatic_density":0.269,"complexity":0.678,"dissonance":0.113},{"voice":2,"pitch":57,"start":161.2498,"duration":0.0833,"velocity":127,"measure":61,"beat":2.875,"subject_pos":-1,"motif":"","motif_pos":-1,"best_pos":4,"similarity":0.721,"stretto":false,"stretto_voices":0,"combination":[],"aug_dim":"","rhythm_ratio":1.0,"mirror":false,"chromatic_density":0.269,"complexity":0.678,"dissonance":0.113},{"voice":2,"pitch":58,"start":161.3332,"duration":0.5,"velocity":127,"measure":61,"beat":3.0,"subject_pos":-1,"motif":"","motif_pos":-1,"best_pos":5,"similarity":0.479,"stretto":false,"stretto_voices":0,"combination":[],"aug_dim":"","rhythm_ratio":1.0,"mirror":false,"chromatic_density":0.269,"complexity":0.678,"dissonance":0.113},{"voice":3,"pitch":43,"start":161.3332,"duration":0.1667,"velocity":127,"measure":61,"beat":3.0,"subject_pos":-1,"motif":"head","motif_pos":0,"best_pos":0,"similarity":1.0,"stretto":false,"stretto_voices":0,"combination":[],"aug_dim":"","rhythm_ratio":1.0,"mirror":false,"chromatic_density":0.269,"complexity":0.678,"dissonance":0.113},{"voice":3,"pitch":50,"start":161.4998,"duration":0.1667,"velocity":127,"measure":61,"beat":3.25,"subject_pos":-1,"motif":"head","motif_pos":1,"best_pos":1,"similarity":1.0,"stretto":false,"stretto_voices":0,"combination":[],"aug_dim":"","rhythm_ratio":1.0,"mirror":false,"chromatic_density":0.269,"complexity":0.678,"dissonance":0.113},{"voice":3,"pitch":48,"start":161.6665,"duration":0.1667,"velocity":127,"measure":61,"beat":3.5,"subject_pos":-1,"motif":"head","motif_pos":2,"best_pos":2,"similarity":1.0,"stretto":false,"stretto_voices":0,"combination":[],"aug_dim":"","rhythm_ratio":1.0,"mirror":false,"chromatic_density":0.269,"complexity":0.678,"dissonance":0.113},{"voice":1,"pitch":64,"start":161.8332,"duration":0.1667,"velocity":127,"measure":61,"beat":3.75,"subject_pos":-1,"motif":"","motif_pos":-1,"best_pos":4,"similarity":0.893,"stretto":false,"stretto_voices":0,"combination":[],"aug_dim":"","rhythm_ratio":1.0,"mirror":false,"chromatic_density":0.269,"complexity":0.678,"dissonance":0.113},{"voice":2,"pitch":55,"start":161.8332,"duration":0.1667,"velocity":127,"measure":61,"beat":3.75,"subject_pos":-1,"motif":"","motif_pos":-1,"best_pos":0,"similarity":0.3,"stretto":false,"stretto_voices":0,"combination":[],"aug_dim":"","rhythm_ratio":1.0,"mirror":false,"chromatic_density":0.269,"complexity":0.678,"dissonance":0.113},{"voice":3,"pitch":46,"start":161.8332,"duration":0.1667,"velocity":127,"measure":61,"beat":3.75,"subject_pos":-1,"motif":"head","motif_pos":3,"best_pos":3,"similarity":1.0,"stretto":false,"stretto_voices":0,"combination":[],"aug_dim":"","rhythm_ratio":1.0,"mirror":false,"chromatic_density":0.269,"complexity":0.678,"dissonance":0.113},{"voice":1,"pitch":65,"start":161.9998,"duration":0.5,"velocity":127,"measure":61,"beat":4.0,"subject_pos":-1,"motif":"","motif_pos":-1,"best_pos":5,"similarity":0.821,"stretto":false,"stretto_voices":0,"combination":[],"aug_dim":"","rhythm_ratio":1.0,"mirror":false,"chromatic_density":0.269,"complexity":0.678,"dissonance":0.113},{"voice":2,"pitch":60,"start":161.9998,"duration":1.3333,"velocity":127,"measure":61,"beat":4.0,"subject_pos":-1,"motif":"","motif_pos":-1,"best_pos":1,"similarity":0.35,"stretto":false,"stretto_voices":0,"combination":[],"aug_dim":"","rhythm_ratio":1.0,"mirror":false,"chromatic_density":0.269,"complexity":0.678,"dissonance":0.113},{"voice":3,"pitch":45,"start":161.9998,"duration":0.1667,"velocity":127,"measure":61,"beat":4.0,"subject_pos":-1,"motif":"head","motif_pos":4,"best_pos":4,"similarity":1.0,"stretto":false,"stretto_voices":0,"combination":[],"aug_dim":"","rhythm_ratio":1.0,"mirror":false,"chromatic_density":0.269,"complexity":0.678,"dissonance":0.113},{"voice":3,"pitch":43,"start":162.1665,"duration":0.1667,"velocity":127,"measure":61,"beat":4.25,"subject_pos":-1,"motif":"","motif_pos":-1,"best_pos":2,"similarity":0.643,"stretto":false,"stretto_voices":0,"combination":[],"aug_dim":"","rhythm_ratio":1.0,"mirror":false,"chromatic_density":0.269,"complexity":0.678,"dissonance":0.113},{"voice":3,"pitch":41,"start":162.3332,"duration":0.1667,"velocity":127,"measure":61,"beat":4.5,"subject_pos":-1,"motif":"","motif_pos":-1,"best_pos":3,"similarity":0.714,"stretto":false,"stretto_voices":0,"combination":[],"aug_dim":"","rhythm_ratio":1.0,"mirror":false,"chromatic_density":0.269,"complexity":0.678,"dissonance":0.113},{"voice":1,"pitch":67,"start":162.4998,"duration":0.1667,"velocity":127,"measure":61,"beat":4.75,"subject_pos":-1,"motif":"","motif_pos":-1,"best_pos":6,"similarity":0.643,"stretto":false,"stretto_voices":0,"combination":[],"aug_dim":"","rhythm_ratio":1.0,"mirror":false,"chromatic_density":0.269,"complexity":0.678,"dissonance":0.113},{"voice":3,"pitch":40,"start":162.4998,"duration":0.1667,"velocity":127,"measure":61,"beat":4.75,"subject_pos":-1,"motif":"","motif_pos":-1,"best_pos":4,"similarity":0.75,"stretto":false,"stretto_voices":0,"combination":[],"aug_dim":"","rhythm_ratio":1.0,"mirror":false,"chromatic_density":0.269,"complexity":0.678,"dissonance":0.113},{"voice":1,"pitch":69,"start":162.6665,"duration":0.8333,"velocity":127,"measure":62,"beat":1.0,"subject_pos":-1,"motif":"","motif_pos":-1,"best_pos":6,"similarity":0.375,"stretto":false,"stretto_voices":0,"combination":[],"aug_dim":"","rhythm_ratio":1.0,"mirror":false,"chromatic_density":0.231,"complexity":0.457,"dissonance":0.094},{"voice":3,"pitch":41,"start":162.6665,"duration":0.1667,"velocity":127,"measure":62,"beat":1.0,"subject_pos":-1,"motif":"","motif_pos":-1,"best_pos":5,"similarity":0.536,"stretto":false,"stretto_voices":0,"combination":[],"aug_dim":"","rhythm_ratio":1.0,"mirror":false,"chromatic_density":0.231,"complexity":0.457,"dissonance":0.094},{"voice":3,"pitch":48,"start":162.8332,"duration":0.1667,"velocity":127,"measure":62,"beat":1.25,"subject_pos":-1,"motif":"","motif_pos":-1,"best_pos":5,"similarity":0.411,"stretto":false,"stretto_voices":0,"combination":[],"aug_dim":"","rhythm_ratio":1.0,"mirror":false,"chromatic_density":0.231,"complexity":0.457,"dissonance":0.094},{"voice":3,"pitch":50,"start":162.9998,"duration":0.1667,"velocity":127,"measure":62,"beat":1.5,"subject_pos":-1,"motif":"","motif_pos":-1,"best_pos":5,"similarity":0.579,"stretto":false,"stretto_voices":0,"combination":[],"aug_dim":"","rhythm_ratio":1.0,"mirror":false,"chromatic_density":0.231,"complexity":0.457,"dissonance":0.094},{"voice":3,"pitch":52,"start":163.1665,"duration":0.1667,"velocity":127,"measure":62,"beat":1.75,"subject_pos":-1,"motif":"","motif_pos":-1,"best_pos":6,"similarity":0.643,"stretto":false,"stretto_voices":0,"combination":[],"aug_dim":"","rhythm_ratio":1.0,"mirror":false,"chromatic_density":0.231,"complexity":0.457,"dissonance":0.094},{"voice":3,"pitch":53,"start":163.3332,"duration":0.1667,"velocity":127,"measure":62,"beat":2.0,"subject_pos":-1,"motif":"","motif_pos":-1,"best_pos":5,"similarity":0.6,"stretto":false,"stretto_voices":0,"combination":[],"aug_dim":"","rhythm_ratio":1.0,"mirror":false,"chromatic_density":0.231,"complexity":0.457,"dissonance":0.094},{"voice":1,"pitch":60,"start":163.4998,"duration":0.1667,"velocity":127,"measure":62,"beat":2.25,"subject_pos":-1,"motif":"","motif_pos":-1,"best_pos":5,"similarity":0.371,"stretto":false,"stretto_voices":0,"combination":[],"aug_dim":"","rhythm_ratio":1.0,"mirror":false,"chromatic_density":0.231,"complexity":0.457,"dissonance":0.094},{"voice":3,"pitch":55,"start":163.4998,"duration":0.1667,"velocity":127,"measure":62,"beat":2.25,"subject_pos":-1,"motif":"","motif_pos":-1,"best_pos":6,"similarity":0.464,"stretto":false,"stretto_voices":0,"combination":[],"aug_dim":"","rhythm_ratio":1.0,"mirror":false,"chromatic_density":0.231,"complexity":0.457,"dissonance":0.094},{"voice":1,"pitch":62,"start":163.6665,"duration":0.1667,"velocity":127,"measure":62,"beat":2.5,"subject_pos":-1,"motif":"","motif_pos":-1,"best_pos":5,"similarity":0.571,"stretto":false,"stretto_voices":0,"combination":[],"aug_dim":"","rhythm_ratio":1.0,"mirror":false,"chromatic_density":0.231,"complexity":0.457,"dissonance":0.094},{"voice":3,"pitch":53,"start":163.6665,"duration":0.1667,"velocity":127,"measure":62,"beat":2.5,"subject_pos":-1,"motif":"","motif_pos":-1,"best_pos":3,"similarity":0.5,"stretto":false,"stretto_voices":0,"combination":[],"aug_dim":"","rhythm_ratio":1.0,"mirror":false,"chromatic_density":0.231,"complexity":0.457,"dissonance":0.094},{"voice":1,"pitch":64,"start":163.8332,"duration":0.1667,"velocity":127,"measure":62,"beat":2.75,"subject_pos":-1,"motif":"","motif_pos":-1,"best_pos":6,"similarity":0.643,"stretto":false,"stretto_voices":0,"combination":[],"aug_dim":"","rhythm_ratio":1.0,"mirror":false,"chromatic_density":0.231,"complexity":0.457,"dissonance":0.094},{"voice":3,"pitch":52,"start":163.8332,"duration":0.1667,"velocity":127,"measure":62,"beat":2.75,"subject_pos":-1,"motif":"","motif_pos":-1,"best_pos":4,"similarity":0.5,"stretto":false,"stretto_voices":0,"combination":[],"aug_dim":"","rhythm_ratio":1.0,"mirror":false,"chromatic_density":0.231,"complexity":0.457,"dissonance":0.094},{"voice":1,"pitch":65,"start":163.9998,"duration":0.1667,"velocity":127,"measure":62,"beat":3.0,"subject_pos":-1,"motif":"","motif_pos":-1,"best_pos":5,"similarity":0.6,"stretto":false,"stretto_voices":0,"combination":[],"aug_dim":"","rhythm_ratio":1.0,"mirror":false,"chromatic_density":0.231,"complexity":0.457,"dissonance":0.094},{"voice":3,"pitch":50,"start":163.9998,"duration":0.1667,"velocity":127,"measure":62,"beat":3.0,"subject_pos":-1,"motif":"","motif_pos":-1,"best_pos":4,"similarity":0.5,"stretto":false,"stretto_voices":0,"combination":[],"aug_dim":"","rhythm_ratio":1.0,"mirror":false,"chromatic_density":0.231,"complexity":0.457,"dissonance":0.094},{"voice":1,"pitch":67,"start":164.1665,"duration":0.1667,"velocity":127,"measure":62,"beat":3.25,"subject_pos":-1,"motif":"","motif_pos":-1,"best_pos":6,"similarity":0.464,"stretto":false,"stretto_voices":0,"combination":[],"aug_dim":"","rhythm_ratio":1.0,"mirror":false,"chromatic_density":0.231,"complexity":0.457,"dissonance":0.094},{"voice":3,"pitch":53,"start":164.1665,"duration":0.1667,"velocity":127,"measure":62,"beat":3.25,"subject_pos":-1,"motif":"","motif_pos":-1,"best_pos":5,"similarity":0.518,"stretto":false,"stretto_voices":0,"combination":[],"aug_dim":"","rhythm_ratio":1.0,"mirror":false,"chromatic_density":0.231,"complexity":0.457,"dissonance":0.094},{"voice":1,"pitch":65,"start":164.3332,"duration":0.1667,"velocity":127,"measure":62,"beat":3.5,"subject_pos":-1,"motif":"","motif_pos":-1,"best_pos":3,"similarity":0.5,"stretto":false,"stretto_voices":0,"combination":[],"aug_dim":"","rhythm_ratio":1.0,"mirror":false,"chromatic_density":0.231,"complexity":0.457,"dissonance":0.094},{"voice":3,"pitch":55,"start":164.3332,"duration":0.1667,"velocity":127,"measure":62,"beat":3.5,"subject_pos":-1,"motif":"","motif_pos":-1,"best_pos":5,"similarity":0.621,"stretto":false,"stretto_voices":0,"combination":[],"aug_dim":"","rhythm_ratio":1.0,"mirror":false,"chromatic_density":0.231,"complexity":0.457,"dissonance":0.094},{"voice":1,"pitch":64,"start":164.4998,"duration":0.1667,"velocity":127,"measure":62,"beat":3.75,"subject_pos":-1,"motif":"","motif_pos":-1,"best_pos":4,"similarity":0.5,"stretto":false,"stretto_voices":0,"combination":[],"aug_dim":"","rhythm_ratio":1.0,"mirror":false,"chromatic_density":0.231,"complexity":0.457,"dissonance":0.094},{"voice":3,"pitch":57,"start":164.4998,"duration":0.1667,"velocity":127,"measure":62,"beat":3.75,"subject_pos":-1,"motif":"","motif_pos":-1,"best_pos":6,"similarity":0.65,"stretto":false,"stretto_voices":0,"combination":[],"aug_dim":"","rhythm_ratio":1.0,"mirror":false,"chromatic_density":0.231,"complexity":0.457,"dissonance":0.094},{"voice":1,"pitch":62,"start":164.6665,"duration":0.1667,"velocity":127,"measure":62,"beat":4.0,"subject_pos":-1,"motif":"","motif_pos":-1,"best_pos":4,"similarity":0.5,"stretto":false,"stretto_voices":0,"combination":[],"aug_dim":"","rhythm_ratio":1.0,"mirror":false,"chromatic_density":0.231,"complexity":0.457,"dissonance":0.094},{"voice":3,"pitch":58,"start":164.6665,"duration":0.1667,"velocity":127,"measure":62,"beat":4.0,"subject_pos":-1,"motif":"","motif_pos":-1,"best_pos":5,"similarity":0.6,"stretto":false,"stretto_voices":0,"combination":[],"aug_dim":"","rhythm_ratio":1.0,"mirror":false,"chromatic_density":0.231,"complexity":0.457,"dissonance":0.094},{"voice":1,"pitch":65,"start":164.8332,"duration":0.1667,"velocity":127,"measure":62,"beat":4.25,"subject_pos":-1,"motif":"","motif_pos":-1,"best_pos":5,"similarity":0.518,"stretto":false,"stretto_voices":0,"combination":[],"aug_dim":"","rhythm_ratio":1.0,"mirror":false,"chromatic_density":0.231,"complexity":0.457,"dissonance":0.094},{"voice":3,"pitch":60,"start":164.8332,"duration":0.1667,"velocity":127,"measure":62,"beat":4.25,"subject_pos":-1,"motif":"","motif_pos":-1,"best_pos":6,"similarity":0.464,"stretto":false,"stretto_voices":0,"combination":[],"aug_dim":"","rhythm_ratio":1.0,"mirror":false,"chromatic_density":0.231,"complexity":0.457,"dissonance":0.094},{"voice":1,"pitch":67,"start":164.9998,"duration":0.1667,"velocity":127,"measure":62,"beat":4.5,"subject_pos":-1,"motif":"","motif_pos":-1,"best_pos":5,"similarity":0.621,"stretto":false,"stretto_voices":0,"combination":[],"aug_dim":"","rhythm_ratio":1.0,"mirror":false,"chromatic_density":0.231,"complexity":0.457,"dissonance":0.094},{"voice":3,"pitch":58,"start":164.9998,"duration":0.1667,"velocity":127,"measure":62,"beat":4.5,"subject_pos":-1,"motif":"","motif_pos":-1,"best_pos":3,"similarity":0.464,"stretto":false,"stretto_voices":0,"combination":[],"aug_dim":"","rhythm_ratio":1.0,"mirror":false,"chromatic_density":0.231,"complexity":0.457,"dissonance":0.094},{"voice":1,"pitch":69,"start":165.1665,"duration":0.1667,"velocity":127,"measure":62,"beat":4.75,"subject_pos":-1,"motif":"","motif_pos":-1,"best_pos":6,"similarity":0.65,"stretto":false,"stretto_voices":0,"combination":[],"aug_dim":"","rhythm_ratio":1.0,"mirror":false,"chromatic_density":0.231,"complexity":0.457,"dissonance":0.094},{"voice":3,"pitch":57,"start":165.1665,"duration":0.1667,"velocity":127,"measure":62,"beat":4.75,"subject_pos":-1,"motif":"","motif_pos":-1,"best_pos":3,"similarity":0.436,"stretto":false,"stretto_voices":0,"combination":[],"aug_dim":"","rhythm_ratio":1.0,"mirror":false,"chromatic_density":0.231,"complexity":0.457,"dissonance":0.094},{"voice":1,"pitch":70,"start":165.3332,"duration":0.1667,"velocity":127,"measure":63,"beat":1.0,"subject_pos":-1,"motif":"","motif_pos":-1,"best_pos":5,"similarity":0.6,"stretto":false,"stretto_voices":0,"combination":[],"aug_dim":"","rhythm_ratio":1.0,"mirror":false,"chromatic_density":0.31,"complexity":0.573,"dissonance":0.125},{"voice":3,"pitch":55,"start":165.3332,"duration":0.1667,"velocity":127,"measure":63,"beat":1.0,"subject_pos":-1,"motif":"","motif_pos":-1,"best_pos":4,"similarity":0.464,"stretto":false,"stretto_voices":0,"combination":[],"aug_dim":"","rhythm_ratio":1.0,"mirror":false,"chromatic_density":0.31,"complexity":0.573,"dissonance":0.125},{"voice":1,"pitch":72,"start":165.4998,"duration":0.1667,"velocity":127,"measure":63,"beat":1.25,"subject_pos":-1,"motif":"","motif_pos":-1,"best_pos":6,"similarity":0.464,"stretto":false,"stretto_voices":0,"combination":[],"aug_dim":"","rhythm_ratio":1.0,"mirror":false,"chromatic_density":0.31,"complexity":0.573,"dissonance":0.125},{"voice":3,"pitch":43,"start":165.4998,"duration":0.1667,"velocity":127,"measure":63,"beat":1.25,"subject_pos":-1,"motif":"","motif_pos":-1,"best_pos":5,"similarity":0.518,"stretto":false,"stretto_voices":0,"combination":[],"aug_dim":"","rhythm_ratio":1.0,"mirror":false,"chromatic_density":0.31,"complexity":0.573,"dissonance":0.125},{"voice":1,"pitch":70,"start":165.6665,"duration":0.1667,"velocity":127,"measure":63,"beat":1.5,"subject_pos":-1,"motif":"","motif_pos":-1,"best_pos":3,"similarity":0.464,"stretto":false,"stretto_voices":0,"combination":[],"aug_dim":"","rhythm_ratio":1.0,"mirror":false,"chromatic_density":0.31,"complexity":0.573,"dissonance":0.125},{"voice":3,"pitch":45,"start":165.6665,"duration":0.1667,"velocity":127,"measure":63,"beat":1.5,"subject_pos":-1,"motif":"","motif_pos":-1,"best_pos":6,"similarity":0.607,"stretto":false,"stretto_voices":0,"combination":[],"aug_dim":"","rhythm_ratio":1.0,"mirror":false,"chromatic_density":0.31,"complexity":0.573,"dissonance":0.125},{"voice":1,"pitch":69,"start":165.8332,"duration":0.1667,"velocity":127,"measure":63,"beat":1.75,"subject_pos":-1,"motif":"","motif_pos":-1,"best_pos":3,"similarity":0.436,"stretto":false,"stretto_voices":0,"combination":[],"aug_dim":"","rhythm_ratio":1.0,"mirror":false,"chromatic_density":0.31,"complexity":0.573,"dissonance":0.125},{"voice":3,"pitch":46,"start":165.8332,"duration":0.1667,"velocity":127,"measure":63,"beat":1.75,"subject_pos":-1,"motif":"","motif_pos":-1,"best_pos":5,"similarity":0.657,"stretto":false,"stretto_voices":0,"combination":[],"aug_dim":"","rhythm_ratio":1.0,"mirror":false,"chromatic_density":0.31,"complexity":0.573,"dissonance":0.125},{"voice":1,"pitch":67,"start":165.9998,"duration":0.1667,"velocity":127,"measure":63,"beat":2.0,"subject_pos":-1,"motif":"","motif_pos":-1,"best_pos":4,"similarity":0.464,"stretto":false,"stretto_voices":0,"combination":[],"aug_dim":"","rhythm_ratio":1.0,"mirror":false,"chromatic_density":0.31,"complexity":0.573,"dissonance":0.125},{"voice":3,"pitch":48,"start":165.9998,"duration":0.1667,"velocity":127,"measure":63,"beat":2.0,"subject_pos":-1,"motif":"","motif_pos":-1,"best_pos":6,"similarity":0.579,"stretto":false,"stretto_voices":0,"combination":[],"aug_dim":"","rhythm_ratio":1.0,"mirror":false,"chromatic_density":0.31,"complexity":0.573,"dissonance":0.125},{"voice":1,"pitch":55,"start":166.1665,"duration":0.1667,"velocity":127,"measure":63,"beat":2.25,"subject_pos":-1,"motif":"","motif_pos":-1,"best_pos":5,"similarity":0.518,"stretto":false,"stretto_voices":0,"combination":[],"aug_dim":"","rhythm_ratio":1.0,"mirror":false,"chromatic_density":0.31,"complexity":0.573,"dissonance":0.125},{"voice":3,"pitch":50,"start":166.1665,"duration":0.1667,"velocity":127,"measure":63,"beat":2.25,"subject_pos":-1,"motif":"","motif_pos":-1,"best_pos":1,"similarity":0.457,"stretto":false,"stretto_voices":0,"combination":[],"aug_dim":"","rhythm_ratio":1.0,"mirror":false,"chromatic_density":0.31,"complexity":0.573,"dissonance":0.125},{"voice":1,"pitch":57,"start":166.3332,"duration":0.1667,"velocity":127,"measure":63,"beat":2.5,"subject_pos":-1,"motif":"","motif_pos":-1,"best_pos":6,"similarity":0.607,"stretto":false,"stretto_voices":0,"combination":[],"aug_dim":"","rhythm_ratio":1.0,"mirror":false,"chromatic_density":0.31,"complexity":0.573,"dissonance":0.125},{"voice":3,"pitch":48,"start":166.3332,"duration":0.1667,"velocity":127,"measure":63,"beat":2.5,"subject_pos":-1,"motif":"","motif_pos":-1,"best_pos":2,"similarity":0.657,"stretto":false,"stretto_voices":0,"combination":[],"aug_dim":"","rhythm_ratio":1.0,"mirror":false,"chromatic_density":0.31,"complexity":0.573,"dissonance":0.125},{"voice":1,"pitch":58,"start":166.4998,"duration":0.1667,"velocity":127,"measure":63,"beat":2.75,"subject_pos":-1,"motif":"","motif_pos":-1,"best_pos":5,"similarity":0.657,"stretto":false,"stretto_voices":0,"combination":[],"aug_dim":"","rhythm_ratio":1.0,"mirror":false,"chromatic_density":0.31,"complexity":0.573,"dissonance":0.125},{"voice":3,"pitch":46,"start":166.4998,"duration":0.1667,"velocity":127,"measure":63,"beat":2.75,"subject_pos":-1,"motif":"","motif_pos":-1,"best_pos":3,"similarity":0.729,"stretto":false,"stretto_voices":0,"combination":[],"aug_dim":"","rhythm_ratio":1.0,"mirror":false,"chromatic_density":0.31,"complexity":0.573,"dissonance":0.125},{"voice":1,"pitch":60,"start":166.6665,"duration":0.1667,"velocity":127,"measure":63,"beat":3.0,"subject_pos":-1,"motif":"","motif_pos":-1,"best_pos":6,"similarity":0.579,"stretto":false,"stretto_voices":0,"combination":[],"aug_dim":"","rhythm_ratio":1.0,"mirror":false,"chromatic_density":0.31,"complexity":0.573,"dissonance":0.125},{"voice":2,"pitch":53,"start":166.6665,"duration":0.6667,"velocity":127,"measure":63,"beat":3.0,"subject_pos":-1,"motif":"","motif_pos":-1,"best_pos":0,"similarity":0.446,"stretto":false,"stretto_voices":0,"combination":[],"aug_dim":"","rhythm_ratio":1.0,"mirror":false,"chromatic_density":0.31,"complexity":0.573,"dissonance":0.125},{"voice":3,"pitch":45,"start":166.6665,"duration":0.1667,"velocity":127,"measure":63,"beat":3.0,"subject_pos":-1,"motif":"","motif_pos":-1,"best_pos":4,"similarity":0.736,"stretto":false,"stretto_voices":0,"combination":[],"aug_dim":"","rhythm_ratio":1.0,"mirror":false,"chromatic_density":0.31,"complexity":0.573,"dissonance":0.125},{"voice":1,"pitch":62,"start":166.8332,"duration":0.1667,"velocity":127,"measure":63,"beat":3.25,"subject_pos":-1,"motif":"","motif_pos":-1,"best_pos":1,"similarity":0.457,"stretto":false,"stretto_voices":0,"combination":[],"aug_dim":"","rhythm_ratio":1.0,"mirror":false,"chromatic_density":0.31,"complexity":0.573,"dissonance":0.125},{"voice":3,"pitch":46,"start":166.8332,"duration":0.1667,"velocity":127,"measure":63,"beat":3.25,"subject_pos":-1,"motif":"","motif_pos":-1,"best_pos":5,"similarity":0.507,"stretto":false,"stretto_voices":0,"combination":[],"aug_dim":"","rhythm_ratio":1.0,"mirror":false,"chromatic_density":0.31,"complexity":0.573,"dissonance":0.125},{"voice":1,"pitch":60,"start":166.9998,"duration":0.1667,"velocity":127,"measure":63,"beat":3.5,"subject_pos":-1,"motif":"","motif_pos":-1,"best_pos":2,"similarity":0.657,"stretto":false,"stretto_voices":0,"combination":[],"aug_dim":"","rhythm_ratio":1.0,"mirror":false,"chromatic_density":0.31,"complexity":0.573,"dissonance":0.125},{"voice":3,"pitch":45,"start":166.9998,"duration":0.1667,"velocity":127,"measure":63,"beat":3.5,"subject_pos":-1,"motif":"","motif_pos":-1,"best_pos":1,"similarity":0.429,"stretto":false,"stretto_voices":0,"combination":[],"aug_dim":"","rhythm_ratio":1.0,"mirror":false,"chromatic_density":0.31,"complexity":0.573,"dissonance":0.125},{"voice":1,"pitch":58,"start":167.1665,"duration":0.1667,"velocity":127,"measure":63,"beat":3.75,"subject_pos":-1,"motif":"","motif_pos":-1,"best_pos":3,"similarity":0.729,"stretto":false,"stretto_voices":0,"combination":[],"aug_dim":"","rhythm_ratio":1.0,"mirror":false,"chromatic_density":0.31,"complexity":0.573,"dissonance":0.125},{"voice":3,"pitch":43,"start":167.1665,"duration":0.1667,"velocity":127,"measure":63,"beat":3.75,"subject_pos":-1,"motif":"","motif_pos":-1,"best_pos":2,"similarity":0.579,"stretto":false,"stretto_voices":0,"combination":[],"aug_dim":"","rhythm_ratio":1.0,"mirror":false,"chromatic_density":0.31,"complexity":0.573,"dissonance":0.125},{"voice":1,"pitch":57,"start":167.3332,"duration":0.1667,"velocity":127,"measure":63,"beat":4.0,"subject_pos":-1,"motif":"","motif_pos":-1,"best_pos":4,"similarity":0.736,"stretto":false,"stretto_voices":0,"combination":[],"aug_dim":"","rhythm_ratio":1.0,"mirror":false,"chromatic_density":0.31,"complexity":0.573,"dissonance":0.125},{"voice":2,"pitch":60,"start":167.3332,"duration":0.5,"velocity":127,"measure":63,"beat":4.0,"subject_pos":-1,"motif":"","motif_pos":-1,"best_pos":1,"similarity":0.643,"stretto":false,"stretto_voices":0,"combination":[],"aug_dim":"","rhythm_ratio":1.0,"mirror":false,"chromatic_density":0.31,"complexity":0.573,"dissonance":0.125},{"voice":3,"pitch":41,"start":167.3332,"duration":1.75,"velocity":127,"measure":63,"beat":4.0,"subject_pos":-1,"motif":"","motif_pos":-1,"best_pos":3,"similarity":0.593,"stretto":false,"stretto_voices":0,"combination":[],"aug_dim":"","rhythm_ratio":1.0,"mirror":false,"chromatic_density":0.31,"complexity":0.573,"dissonance":0.125},{"voice":1,"pitch":58,"start":167.4998,"duration":0.1667,"velocity":127,"measure":63,"beat":4.25,"subject_pos":-1,"motif":"","motif_pos":-1,"best_pos":5,"similarity":0.507,"stretto":false,"stretto_voices":0,"combination":[],"aug_dim":"","rhythm_ratio":1.0,"mirror":false,"chromatic_density":0.31,"complexity":0.573,"dissonance":0.125},{"voice":1,"pitch":57,"start":167.6665,"duration":0.1667,"velocity":127,"measure":63,"beat":4.5,"subject_pos":-1,"motif":"","motif_pos":-1,"best_pos":4,"similarity":0.386,"stretto":false,"stretto_voices":0,"combination":[],"aug_dim":"","rhythm_ratio":1.0,"mirror":false,"chromatic_density":0.31,"complexity":0.573,"dissonance":0.125},{"voice":1,"pitch":55,"start":167.8332,"duration":0.1667,"velocity":127,"measure":63,"beat":4.75,"subject_pos":-1,"motif":"","motif_pos":-1,"best_pos":2,"similarity":0.464,"stretto":false,"stretto_voices":0,"combination":[],"aug_dim":"","rhythm_ratio":1.0,"mirror":false,"chromatic_density":0.31,"complexity":0.573,"dissonance":0.125},{"voice":2,"pitch":58,"start":167.8332,"duration":0.1667,"velocity":127,"measure":63,"beat":4.75,"subject_pos":-1,"motif":"","motif_pos":-1,"best_pos":2,"similarity":0.579,"stretto":false,"stretto_voices":0,"combination":[],"aug_dim":"","rhythm_ratio":1.0,"mirror":false,"chromatic_density":0.31,"complexity":0.573,"dissonance":0.125},{"voice":1,"pitch":53,"start":167.9998,"duration":0.4167,"velocity":127,"measure":64,"beat":1.0,"subject_pos":-1,"motif":"","motif_pos":-1,"best_pos":4,"similarity":0.457,"stretto":false,"stretto_voices":0,"combination":[],"aug_dim":"","rhythm_ratio":1.0,"mirror":false,"chromatic_density":0.333,"complexity":0.692,"dissonance":0.152},{"voice":2,"pitch":57,"start":167.9998,"duration":0.5,"velocity":127,"measure":64,"beat":1.0,"subject_pos":-1,"motif":"","motif_pos":-1,"best_pos":3,"similarity":0.45,"stretto":false,"stretto_voices":0,"combination":[],"aug_dim":"","rhythm_ratio":1.0,"mirror":false,"chromatic_density":0.333,"complexity":0.692,"dissonance":0.152},{"voice":1,"pitch":57,"start":168.4165,"duration":0.0833,"velocity":127,"measure":64,"beat":1.625,"subject_pos":-1,"motif":"","motif_pos":-1,"best_pos":4,"similarity":0.5,"stretto":false,"stretto_voices":0,"combination":[],"aug_dim":"","rhythm_ratio":1.0,"mirror":false,"chromatic_density":0.333,"complexity":0.692,"dissonance":0.152},{"voice":1,"pitch":59,"start":168.4998,"duration":0.0833,"velocity":127,"measure":64,"beat":1.75,"subject_pos":-1,"motif":"","motif_pos":-1,"best_pos":5,"similarity":0.607,"stretto":false,"stretto_voices":0,"combination":[],"aug_dim":"","rhythm_ratio":1.0,"mirror":false,"chromatic_density":0.333,"complexity":0.692,"dissonance":0.152},{"voice":2,"pitch":55,"start":168.4998,"duration":0.1667,"velocity":127,"measure":64,"beat":1.75,"subject_pos":-1,"motif":"","motif_pos":-1,"best_pos":2,"similarity":0.643,"stretto":false,"stretto_voices":0,"combination":[],"aug_dim":"","rhythm_ratio":1.0,"mirror":false,"chromatic_density":0.333,"complexity":0.692,"dissonance":0.152},{"voice":1,"pitch":61,"start":168.5832,"duration":0.0833,"velocity":127,"measure":64,"beat":1.875,"subject_pos":-1,"motif":"","motif_pos":-1,"best_pos":6,"similarity":0.643,"stretto":false,"stretto_voices":0,"combination":[],"aug_dim":"","rhythm_ratio":1.0,"mirror":false,"chromatic_density":0.333,"complexity":0.692,"dissonance":0.152},{"voice":1,"pitch":62,"start":168.6665,"duration":1.1667,"velocity":127,"measure":64,"beat":2.0,"subject_pos":-1,"motif":"tail","motif_pos":3,"best_pos":3,"similarity":1.0,"stretto":false,"stretto_voices":0,"combination":[],"aug_dim":"","rhythm_ratio":1.0,"mirror":false,"chromatic_density":0.333,"complexity":0.692,"dissonance":0.152},{"voice":2,"pitch":53,"start":168.6665,"duration":0.6667,"velocity":127,"measure":64,"beat":2.0,"subject_pos":-1,"motif":"","motif_pos":-1,"best_pos":3,"similarity":0.786,"stretto":false,"stretto_voices":0,"combination":[],"aug_dim":"","rhythm_ratio":1.0,"mirror":false,"chromatic_density":0.333,"complexity":0.692,"dissonance":0.152},{"voice":3,"pitch":40,"start":169.0832,"duration":0.0833,"velocity":127,"measure":64,"beat":2.625,"subject_pos":-1,"motif":"","motif_pos":-1,"best_pos":4,"similarity":0.507,"stretto":false,"stretto_voices":0,"combination":[],"aug_dim":"","rhythm_ratio":1.0,"mirror":false,"chromatic_density":0.333,"complexity":0.692,"dissonance":0.152},{"voice":3,"pitch":38,"start":169.1665,"duration":0.0833,"velocity":127,"measure":64,"beat":2.75,"subject_pos":-1,"motif":"","motif_pos":-1,"best_pos":4,"similarity":0.421,"stretto":false,"stretto_voices":0,"combination":[],"aug_dim":"","rhythm_ratio":1.0,"mirror":false,"chromatic_density":0.333,"complexity":0.692,"dissonance":0.152},{"voice":3,"pitch":43,"start":169.2498,"duration":0.0833,"velocity":127,"measure":64,"beat":2.875,"subject_pos":-1,"motif":"","motif_pos":-1,"best_pos":5,"similarity":0.404,"stretto":false,"stretto_voices":0,"combination":[],"aug_dim":"","rhythm_ratio":1.0,"mirror":false,"chromatic_density":0.333,"complexity":0.692,"dissonance":0.152},{"voice":0,"pitch":69,"start":169.3332,"duration":1.3333,"velocity":127,"measure":64,"beat":3.0,"subject_pos":0,"motif":"subject_inv","motif_pos":0,"best_pos":0,"similarity":1.0,"stretto":false,"stretto_voices":0,"combination":[],"aug_dim":"augmentation","rhythm_ratio":2.0,"mirror":false,"chromatic_density":0.333,"complexity":0.692,"dissonance":0.152},{"voice":2,"pitch":52,"start":169.3332,"duration":0.6667,"velocity":127,"measure":64,"beat":3.0,"subject_pos":-1,"motif":"","motif_pos":-1,"best_pos":4,"similarity":0.893,"stretto":false,"stretto_voices":0,"combination":[],"aug_dim":"","rhythm_ratio":1.0,"mirror":false,"chromatic_density":0.333,"complexity":0.692,"dissonance":0.152},{"voice":3,"pitch":45,"start":169.3332,"duration":0.1667,"velocity":127,"measure":64,"beat":3.0,"subject_pos":-1,"motif":"","motif_pos":-1,"best_pos":6,"similarity":0.336,"stretto":false,"stretto_voices":0,"combination":[],"aug_dim":"","rhythm_ratio":1.0,"mirror":false,"chromatic_density":0.333,"complexity":0.692,"dissonance":0.152},{"voice":3,"pitch":58,"start":169.4998,"duration":0.1667,"velocity":127,"measure":64,"beat":3.25,"subject_pos":-1,"motif":"","motif_pos":-1,"best_pos":3,"similarity":0.393,"stretto":false,"stretto_voices":0,"combination":[],"aug_dim":"","rhythm_ratio":1.0,"mirror":false,"chromatic_density":0.333,"complexity":0.692,"dissonance":0.152},{"voice":3,"pitch":57,"start":169.6665,"duration":0.1667,"velocity":127,"measure":64,"beat":3.5,"subject_pos":-1,"motif":"","motif_pos":-1,"best_pos":1,"similarity":0.429,"stretto":false,"stretto_voices":0,"combination":[],"aug_dim":"","rhythm_ratio":1.0,"mirror":false,"chromatic_density":0.333,"complexity":0.692,"dissonance":0.152},{"voice":1,"pitch":61,"start":169.8332,"duration":0.1667,"velocity":127,"measure":64,"beat":3.75,"subject_pos":-1,"motif":"tail","motif_pos":4,"best_pos":4,"similarity":1.0,"stretto":false,"stretto_voices":0,"combination":[],"aug_dim":"","rhythm_ratio":1.0,"mirror":false,"chromatic_density":0.333,"complexity":0.692,"dissonance":0.152},{"voice":3,"pitch":55,"start":169.8332,"duration":0.1667,"velocity":127,"measure":64,"beat":3.75,"subject_pos":-1,"motif":"","motif_pos":-1,"best_pos":2,"similarity":0.579,"stretto":false,"stretto_voices":0,"combination":[],"aug_dim":"","rhythm_ratio":1.0,"mirror":false,"chromatic_density":0.333,"complexity":0.692,"dissonance":0.152},{"voice":1,"pitch":62,"start":169.9998,"duration":0.5,"velocity":127,"measure":64,"beat":4.0,"subject_pos":-1,"motif":"tail","motif_pos":5,"best_pos":5,"similarity":1.0,"stretto":false,"stretto_voices":0,"combination":[],"aug_dim":"","rhythm_ratio":1.0,"mirror":false,"chromatic_density":0.333,"complexity":0.692,"dissonance":0.152},{"voice":2,"pitch":53,"start":169.9998,"duration":0.5,"velocity":127,"measure":64,"beat":4.0,"subject_pos":-1,"motif":"","motif_pos":-1,"best_pos":5,"similarity":0.821,"stretto":false,"stretto_voices":0,"combination":[],"aug_dim":"","rhythm_ratio":1.0,"mirror":false,"chromatic_density":0.333,"complexity":0.692,"dissonance":0.152},{"voice":3,"pitch":53,"start":169.9998,"duration":0.1667,"velocity":127,"measure":64,"beat":4.0,"subject_pos":-1,"motif":"","motif_pos":-1,"best_pos":3,"similarity":0.593,"stretto":false,"stretto_voices":0,"combination":[],"aug_dim":"","rhythm_ratio":1.0,"mirror":false,"chromatic_density":0.333,"complexity":0.692,"dissonance":0.152},{"voice":3,"pitch":52,"start":170.1665,"duration":0.1667,"velocity":127,"measure":64,"beat":4.25,"subject_pos":-1,"motif":"","motif_pos":-1,"best_pos":4,"similarity":0.479,"stretto":false,"stretto_voices":0,"combination":[],"aug_dim":"","rhythm_ratio":1.0,"mirror":false,"chromatic_density":0.333,"complexity":0.692,"dissonance":0.152},{"voice":3,"pitch":50,"start":170.3332,"duration":0.5,"velocity":127,"measure":64,"beat":4.5,"subject_pos":-1,"motif":"","motif_pos":-1,"best_pos":2,"similarity":0.518,"stretto":false,"stretto_voices":0,"combination":[],"aug_dim":"","rhythm_ratio":1.0,"mirror":false,"chromatic_density":0.333,"complexity":0.692,"dissonance":0.152},{"voice":1,"pitch":64,"start":170.4998,"duration":0.1667,"velocity":127,"measure":64,"beat":4.75,"subject_pos":-1,"motif":"tail","motif_pos":6,"best_pos":6,"similarity":1.0,"stretto":false,"stretto_voices":0,"combination":[],"aug_dim":"","rhythm_ratio":1.0,"mirror":false,"chromatic_density":0.333,"complexity":0.692,"dissonance":0.152},{"voice":2,"pitch":55,"start":170.4998,"duration":0.1667,"velocity":127,"measure":64,"beat":4.75,"subject_pos":-1,"motif":"","motif_pos":-1,"best_pos":6,"similarity":0.643,"stretto":false,"stretto_voices":0,"combination":[],"aug_dim":"","rhythm_ratio":1.0,"mirror":false,"chromatic_density":0.333,"complexity":0.692,"dissonance":0.152},{"voice":0,"pitch":62,"start":170.6665,"duration":1.0,"velocity":127,"measure":65,"beat":1.0,"subject_pos":1,"motif":"subject_inv","motif_pos":1,"best_pos":1,"similarity":1.0,"stretto":false,"stretto_voices":0,"combination":[],"aug_dim":"augmentation","rhythm_ratio":2.0,"mirror":false,"chromatic_density":0.321,"complexity":0.791,"dissonance":0.119},{"voice":1,"pitch":65,"start":170.6665,"duration":0.6667,"velocity":127,"measure":65,"beat":1.0,"subject_pos":-1,"motif":"tail","motif_pos":7,"best_pos":7,"similarity":1.0,"stretto":false,"stretto_voices":0,"combination":[],"aug_dim":"","rhythm_ratio":1.0,"mirror":false,"chromatic_density":0.321,"complexity":0.791,"dissonance":0.119},{"voice":2,"pitch":57,"start":170.6665,"duration":0.8333,"velocity":127,"measure":65,"beat":1.0,"subject_pos":-1,"motif":"","motif_pos":-1,"best_pos":6,"similarity":0.661,"stretto":false,"stretto_voices":0,"combination":[],"aug_dim":"","rhythm_ratio":1.0,"mirror":false,"chromatic_density":0.321,"complexity":0.791,"dissonance":0.119},{"voice":3,"pitch":48,"start":170.8332,"duration":0.1667,"velocity":127,"measure":65,"beat":1.25,"subject_pos":-1,"motif":"","motif_pos":-1,"best_pos":2,"similarity":0.643,"stretto":false,"stretto_voices":0,"combination":[],"aug_dim":"","rhythm_ratio":1.0,"mirror":false,"chromatic_density":0.321,"complexity":0.791,"dissonance":0.119},{"voice":3,"pitch":46,"start":170.9998,"duration":0.1667,"velocity":127,"measure":65,"beat":1.5,"subject_pos":-1,"motif":"","motif_pos":-1,"best_pos":3,"similarity":0.714,"stretto":false,"stretto_voices":0,"combination":[],"aug_dim":"","rhythm_ratio":1.0,"mirror":false,"chromatic_density":0.321,"complexity":0.791,"dissonance":0.119},{"voice":3,"pitch":45,"start":171.1665,"duration":0.1667,"velocity":127,"measure":65,"beat":1.75,"subject_pos":-1,"motif":"","motif_pos":-1,"best_pos":4,"similarity":0.714,"stretto":false,"stretto_voices":0,"combination":[],"aug_dim":"","rhythm_ratio":1.0,"mirror":false,"chromatic_density":0.321,"complexity":0.791,"dissonance":0.119},{"voice":3,"pitch":46,"start":171.3332,"duration":0.1667,"velocity":127,"measure":65,"beat":2.0,"subject_pos":-1,"motif":"","motif_pos":-1,"best_pos":5,"similarity":0.464,"stretto":false,"stretto_voices":0,"combination":[],"aug_dim":"","rhythm_ratio":1.0,"mirror":false,"chromatic_density":0.321,"complexity":0.791,"dissonance":0.119},{"voice":2,"pitch":58,"start":171.4998,"duration":0.1667,"velocity":127,"measure":65,"beat":2.25,"subject_pos":-1,"motif":"","motif_pos":-1,"best_pos":7,"similarity":0.464,"stretto":false,"stretto_voices":0,"combination":[],"aug_dim":"","rhythm_ratio":1.0,"mirror":false,"chromatic_density":0.321,"complexity":0.791,"dissonance":0.119},{"voice":3,"pitch":43,"start":171.4998,"duration":0.1667,"velocity":127,"measure":65,"beat":2.25,"subject_pos":-1,"motif":"","motif_pos":-1,"best_pos":3,"similarity":0.443,"stretto":false,"stretto_voices":0,"combination":[],"aug_dim":"","rhythm_ratio":1.0,"mirror":false,"chromatic_density":0.321,"complexity":0.791,"dissonance":0.119},{"voice":0,"pitch":64,"start":171.6665,"duration":0.3333,"velocity":127,"measure":65,"beat":2.5,"subject_pos":2,"motif":"subject_inv","motif_pos":2,"best_pos":2,"similarity":1.0,"stretto":false,"stretto_voices":0,"combination":[],"aug_dim":"augmentation","rhythm_ratio":2.0,"mirror":false,"chromatic_density":0.321,"complexity":0.791,"dissonance":0.119},{"voice":2,"pitch":57,"start":171.6665,"duration":0.1667,"velocity":127,"measure":65,"beat":2.5,"subject_pos":-1,"motif":"","motif_pos":-1,"best_pos":2,"similarity":0.407,"stretto":false,"stretto_voices":0,"combination":[],"aug_dim":"","rhythm_ratio":1.0,"mirror":false,"chromatic_density":0.321,"complexity":0.791,"dissonance":0.119},{"voice":3,"pitch":49,"start":171.6665,"duration":0.3333,"velocity":127,"measure":65,"beat":2.5,"subject_pos":-1,"motif":"","motif_pos":-1,"best_pos":4,"similarity":0.454,"stretto":false,"stretto_voices":0,"combination":[],"aug_dim":"","rhythm_ratio":1.0,"mirror":false,"chromatic_density":0.321,"complexity":0.791,"dissonance":0.119},{"voice":2,"pitch":55,"start":171.8332,"duration":0.1667,"velocity":127,"measure":65,"beat":2.75,"subject_pos":-1,"motif":"","motif_pos":-1,"best_pos":2,"similarity":0.45,"stretto":false,"stretto_voices":0,"combination":[],"aug_dim":"","rhythm_ratio":1.0,"mirror":false,"chromatic_density":0.321,"complexity":0.791,"dissonance":0.119},{"voice":0,"pitch":65,"start":171.9998,"duration":1.0,"velocity":127,"measure":65,"beat":3.0,"subject_pos":3,"motif":"subject_inv","motif_pos":3,"best_pos":3,"similarity":1.0,"stretto":true,"stretto_voices":2,"combination":[],"aug_dim":"augmentation","rhythm_ratio":2.0,"mirror":false,"chromatic_density":0.321,"complexity":0.791,"dissonance":0.119},{"voice":1,"pitch":62,"start":171.9998,"duration":0.6667,"velocity":127,"measure":65,"beat":3.0,"subject_pos":0,"motif":"subject","motif_pos":0,"best_pos":0,"similarity":1.0,"stretto":true,"stretto_voices":2,"combination":[],"aug_dim":"","rhythm_ratio":1.0,"mirror":false,"chromatic_density":0.321,"complexity":0.791,"dissonance":0.119},{"voice":2,"pitch":53,"start":171.9998,"duration":0.1667,"velocity":127,"measure":65,"beat":3.0,"subject_pos":-1,"motif":"","motif_pos":-1,"best_pos":4,"similarity":0.425,"stretto":false,"stretto_voices":0,"combination":[],"aug_dim":"","rhythm_ratio":1.0,"mirror":false,"chromatic_density":0.321,"complexity":0.791,"dissonance":0.119},{"voice":3,"pitch":50,"start":171.9998,"duration":0.1667,"velocity":127,"measure":65,"beat":3.0,"subject_pos":-1,"motif":"","motif_pos":-1,"best_pos":2,"similarity":0.393,"stretto":false,"stretto_voices":0,"combination":[],"aug_dim":"","rhythm_ratio":1.0,"mirror":false,"chromatic_density":0.321,"complexity":0.791,"dissonance":0.119},{"voice":2,"pitch":55,"start":172.1665,"duration":0.1667,"velocity":127,"measure":65,"beat":3.25,"subject_pos":-1,"motif":"","motif_pos":-1,"best_pos":1,"similarity":0.386,"stretto":false,"stretto_voices":0,"combination":[],"aug_dim":"","rhythm_ratio":1.0,"mirror":false,"chromatic_density":0.321,"complexity":0.791,"dissonance":0.119},{"voice":3,"pitch":46,"start":172.1665,"duration":0.1667,"velocity":127,"measure":65,"beat":3.25,"subject_pos":-1,"motif":"","motif_pos":-1,"best_pos":3,"similarity":0.5,"stretto":false,"stretto_voices":0,"combination":[],"aug_dim":"","rhythm_ratio":1.0,"mirror":false,"chromatic_density":0.321,"complexity":0.791,"dissonance":0.119},{"voice":2,"pitch":53,"start":172.3332,"duration":0.1667,"velocity":127,"measure":65,"beat":3.5,"subject_pos":-1,"motif":"","motif_pos":-1,"best_pos":3,"similarity":0.457,"stretto":false,"stretto_voices":0,"combination":[],"aug_dim":"","rhythm_ratio":1.0,"mirror":false,"chromatic_density":0.321,"complexity":0.791,"dissonance":0.119},{"voice":3,"pitch":45,"start":172.3332,"duration":0.1667,"velocity":127,"measure":65,"beat":3.5,"subject_pos":-1,"motif":"","motif_pos":-1,"best_pos":3,"similarity":0.45,"stretto":false,"stretto_voices":0,"combination":[],"aug_dim":"","rhythm_ratio":1.0,"mirror":false,"chromatic_density":0.321,"complexity":0.791,"dissonance":0.119},{"voice":2,"pitch":52,"start":172.4998,"duration":0.1667,"velocity":127,"measure":65,"beat":3.75,"subject_pos":-1,"motif":"","motif_pos":-1,"best_pos":4,"similarity":0.4,"stretto":false,"stretto_voices":0,"combination":[],"aug_dim":"","rhythm_ratio":1.0,"mirror":false,"chromatic_density":0.321,"complexity":0.791,"dissonance":0.119},{"voice":3,"pitch":43,"start":172.4998,"duration":0.1667,"velocity":127,"measure":65,"beat":3.75,"subject_pos":-1,"motif":"","motif_pos":-1,"best_pos":2,"similarity":0.45,"stretto":false,"stretto_voices":0,"combination":[],"aug_dim":"","rhythm_ratio":1.0,"mirror":false,"chromatic_density":0.321,"complexity":0.791,"dissonance":0.119},{"voice":1,"pitch":69,"start":172.6665,"duration":0.5,"velocity":127,"measure":65,"beat":4.0,"subject_pos":1,"motif":"subject","motif_pos":1,"best_pos":1,"similarity":1.0,"stretto":true,"stretto_voices":2,"combination":[],"aug_dim":"","rhythm_ratio":1.0,"mirror":false,"chromatic_density":0.321,"complexity":0.791,"dissonance":0.119},{"voice":2,"pitch":50,"start":172.6665,"duration":0.5,"velocity":127,"measure":65,"beat":4.0,"subject_pos":-1,"motif":"","motif_pos":-1,"best_pos":0,"similarity":0.321,"stretto":false,"stretto_voices":0,"combination":[],"aug_dim":"","rhythm_ratio":1.0,"mirror":false,"chromatic_density":0.321,"complexity":0.791,"dissonance":0.119},{"voice":3,"pitch":41,"start":172.6665,"duration":0.1667,"velocity":127,"measure":65,"beat":4.0,"subject_pos":-1,"motif":"","motif_pos":-1,"best_pos":4,"similarity":0.425,"stretto":false,"stretto_voices":0,"combination":[],"aug_dim":"","rhythm_ratio":1.0,"mirror":false,"chromatic_density":0.321,"complexity":0.791,"dissonance":0.119},{"voice":3,"pitch":43,"start":172.8332,"duration":0.1667,"velocity":127,"measure":65,"beat":4.25,"subject_pos":-1,"motif":"","motif_pos":-1,"best_pos":1,"similarity":0.386,"stretto":false,"stretto_voices":0,"combination":[],"aug_dim":"","rhythm_ratio":1.0,"mirror":false,"chromatic_density":0.321,"complexity":0.791,"dissonance":0.119},{"voice":0,"pitch":67,"start":172.9998,"duration":0.3333,"velocity":127,"measure":65,"beat":4.5,"subject_pos":4,"motif":"subject_inv","motif_pos":4,"best_pos":4,"similarity":1.0,"stretto":true,"stretto_voices":2,"combination":[],"aug_dim":"augmentation","rhythm_ratio":2.0,"mirror":false,"chromatic_density":0.321,"complexity":0.791,"dissonance":0.119},{"voice":3,"pitch":41,"start":172.9998,"duration":0.1667,"velocity":127,"measure":65,"beat":4.5,"subject_pos":-1,"motif":"","motif_pos":-1,"best_pos":3,"similarity":0.457,"stretto":false,"stretto_voices":0,"combination":[],"aug_dim":"","rhythm_ratio":1.0,"mirror":false,"chromatic_density":0.321,"complexity":0.791,"dissonance":0.119},{"voice":1,"pitch":67,"start":173.1665,"duration":0.1667,"velocity":127,"measure":65,"beat":4.75,"subject_pos":2,"motif":"subject","motif_pos":2,"best_pos":2,"similarity":1.0,"stretto":true,"stretto_voices":2,"combination":[],"aug_dim":"","rhythm_ratio":1.0,"mirror":false,"chromatic_density":0.321,"complexity":0.791,"dissonance":0.119},{"voice":2,"pitch":57,"start":173.1665,"duration":0.1667,"velocity":127,"measure":65,"beat":4.75,"subject_pos":-1,"motif":"","motif_pos":-1,"best_pos":0,"similarity":0.464,"stretto":false,"stretto_voices":0,"combination":[],"aug_dim":"","rhythm_ratio":1.0,"mirror":false,"chromatic_density":0.321,"complexity":0.791,"dissonance":0.119},{"voice":3,"pitch":40,"start":173.1665,"duration":0.1667,"velocity":127,"measure":65,"beat":4.75,"subject_pos":-1,"motif":"","motif_pos":-1,"best_pos":4,"similarity":0.464,"stretto":false,"stretto_voices":0,"combination":[],"aug_dim":"","rhythm_ratio":1.0,"mirror":false,"chromatic_density":0.321,"complexity":0.791,"dissonance":0.119},{"voice":0,"pitch":69,"start":173.3332,"duration":1.3333,"velocity":127,"measure":66,"beat":1.0,"subject_pos":5,"motif":"subject_inv","motif_pos":5,"best_pos":5,"similarity":1.0,"stretto":true,"stretto_voices":2,"combination":[],"aug_dim":"augmentation","rhythm_ratio":2.0,"mirror":false,"chromatic_density":0.478,"complexity":0.682,"dissonance":0.127},{"voice":1,"pitch":65,"start":173.3332,"duration":0.5,"velocity":127,"measure":66,"beat":1.0,"subject_pos":3,"motif":"subject","motif_pos":3,"best_pos":3,"similarity":1.0,"stretto":true,"stretto_voices":2,"combination":[],"aug_dim":"","rhythm_ratio":1.0,"mirror":false,"chromatic_density":0.478,"complexity":0.682,"dissonance":0.127},{"voice":2,"pitch":62,"start":173.3332,"duration":0.5,"velocity":127,"measure":66,"beat":1.0,"subject_pos":-1,"motif":"","motif_pos":-1,"best_pos":1,"similarity":0.714,"stretto":false,"stretto_voices":0,"combination":[],"aug_dim":"","rhythm_ratio":1.0,"mirror":false,"chromatic_density":0.478,"complexity":0.682,"dissonance":0.127},{"voice":3,"pitch":38,"start":173.3332,"duration":0.1667,"velocity":127,"measure":66,"beat":1.0,"subject_pos":-1,"motif":"","motif_pos":-1,"best_pos":3,"similarity":0.429,"stretto":false,"stretto_voices":0,"combination":[],"aug_dim":"","rhythm_ratio":1.0,"mirror":false,"chromatic_density":0.478,"complexity":0.682,"dissonance":0.127},{"voice":3,"pitch":45,"start":173.4998,"duration":0.1667,"velocity":127,"measure":66,"beat":1.25,"subject_pos":-1,"motif":"","motif_pos":-1,"best_pos":4,"similarity":0.571,"stretto":false,"stretto_voices":0,"combination":[],"aug_dim":"","rhythm_ratio":1.0,"mirror":false,"chromatic_density":0.478,"complexity":0.682,"dissonance":0.127},{"voice":3,"pitch":46,"start":173.6665,"duration":0.1667,"velocity":127,"measure":66,"beat":1.5,"subject_pos":-1,"motif":"","motif_pos":-1,"best_pos":5,"similarity":0.679,"stretto":false,"stretto_voices":0,"combination":[],"aug_dim":"","rhythm_ratio":1.0,"mirror":false,"chromatic_density":0.478,"complexity":0.682,"dissonance":0.127},{"voice":1,"pitch":64,"start":173.8332,"duration":0.1667,"velocity":127,"measure":66,"beat":1.75,"subject_pos":4,"motif":"subject","motif_pos":4,"best_pos":4,"similarity":1.0,"stretto":true,"stretto_voices":2,"combination":[],"aug_dim":"","rhythm_ratio":1.0,"mirror":false,"chromatic_density":0.478,"complexity":0.682,"dissonance":0.127},{"voice":2,"pitch":60,"start":173.8332,"duration":0.1667,"velocity":127,"measure":66,"beat":1.75,"subject_pos":-1,"motif":"","motif_pos":-1,"best_pos":2,"similarity":0.721,"stretto":false,"stretto_voices":0,"combination":[],"aug_dim":"","rhythm_ratio":1.0,"mirror":false,"chromatic_density":0.478,"complexity":0.682,"dissonance":0.127},{"voice":3,"pitch":48,"start":173.8332,"duration":0.1667,"velocity":127,"measure":66,"beat":1.75,"subject_pos":-1,"motif":"","motif_pos":-1,"best_pos":6,"similarity":0.571,"stretto":false,"stretto_voices":0,"combination":[],"aug_dim":"","rhythm_ratio":1.0,"mirror":false,"chromatic_density":0.478,"complexity":0.682,"dissonance":0.127},{"voice":1,"pitch":62,"start":173.9998,"duration":0.6667,"velocity":127,"measure":66,"beat":2.0,"subject_pos":5,"motif":"subject","motif_pos":5,"best_pos":5,"similarity":1.0,"stretto":true,"stretto_voices":2,"combination":[],"aug_dim":"","rhythm_ratio":1.0,"mirror":false,"chromatic_density":0.478,"complexity":0.682,"dissonance":0.127},{"voice":2,"pitch":58,"start":173.9998,"duration":0.5,"velocity":127,"measure":66,"beat":2.0,"subject_pos":-1,"motif":"","motif_pos":-1,"best_pos":3,"similarity":0.657,"stretto":false,"stretto_voices":0,"combination":[],"aug_dim":"","rhythm_ratio":1.0,"mirror":false,"chromatic_density":0.478,"complexity":0.682,"dissonance":0.127},{"voice":3,"pitch":50,"start":173.9998,"duration":0.1667,"velocity":127,"measure":66,"beat":2.0,"subject_pos":-1,"motif":"","motif_pos":-1,"best_pos":5,"similarity":0.593,"stretto":false,"stretto_voices":0,"combination":[],"aug_dim":"","rhythm_ratio":1.0,"mirror":false,"chromatic_density":0.478,"complexity":0.682,"dissonance":0.127},{"voice":3,"pitch":52,"start":174.1665,"duration":0.1667,"velocity":127,"measure":66,"beat":2.25,"subject_pos":-1,"motif":"","motif_pos":-1,"best_pos":6,"similarity":0.65,"stretto":false,"stretto_voices":0,"combination":[],"aug_dim":"","rhythm_ratio":1.0,"mirror":false,"chromatic_density":0.478,"complexity":0.682,"dissonance":0.127},{"voice":3,"pitch":53,"start":174.3332,"duration":0.3333,"velocity":127,"measure":66,"beat":2.5,"subject_pos":-1,"motif":"","motif_pos":-1,"best_pos":3,"similarity":0.55,"stretto":false,"stretto_voices":0,"combination":[],"aug_dim":"","rhythm_ratio":1.0,"mirror":false,"chromatic_density":0.478,"complexity":0.682,"dissonance":0.127},{"voice":2,"pitch":57,"start":174.4998,"duration":0.1667,"velocity":127,"measure":66,"beat":2.75,"subject_pos":-1,"motif":"","motif_pos":-1,"best_pos":4,"similarity":0.529,"stretto":false,"stretto_voices":0,"combination":[],"aug_dim":"","rhythm_ratio":1.0,"mirror":false,"chromatic_density":0.478,"complexity":0.682,"dissonance":0.127},{"voice":0,"pitch":70,"start":174.6665,"duration":1.3333,"velocity":127,"measure":66,"beat":3.0,"subject_pos":6,"motif":"subject_inv","motif_pos":6,"best_pos":6,"similarity":1.0,"stretto":true,"stretto_voices":2,"combination":[],"aug_dim":"augmentation","rhythm_ratio":2.0,"mirror":false,"chromatic_density":0.478,"complexity":0.682,"dissonance":0.127},{"voice":1,"pitch":61,"start":174.6665,"duration":0.6667,"velocity":127,"measure":66,"beat":3.0,"subject_pos":6,"motif":"subject","motif_pos":6,"best_pos":6,"similarity":1.0,"stretto":true,"stretto_voices":2,"combination":[],"aug_dim":"","rhythm_ratio":1.0,"mirror":false,"chromatic_density":0.478,"complexity":0.682,"dissonance":0.127},{"voice":2,"pitch":55,"start":174.6665,"duration":0.3333,"velocity":127,"measure":66,"beat":3.0,"subject_pos":-1,"motif":"","motif_pos":-1,"best_pos":2,"similarity":0.643,"stretto":false,"stretto_voices":0,"combination":[],"aug_dim":"","rhythm_ratio":1.0,"mirror":false,"chromatic_density":0.478,"complexity":0.682,"dissonance":0.127},{"voice":3,"pitch":52,"start":174.8332,"duration":0.1667,"velocity":127,"measure":66,"beat":3.25,"subject_pos":-1,"motif":"","motif_pos":-1,"best_pos":4,"similarity":0.743,"stretto":false,"stretto_voices":0,"combination":[],"aug_dim":"","rhythm_ratio":1.0,"mirror":false,"chromatic_density":0.478,"complexity":0.682,"dissonance":0.127},{"voice":3,"pitch":53,"start":174.9998,"duration":0.1667,"velocity":127,"measure":66,"beat":3.5,"subject_pos":-1,"motif":"","motif_pos":-1,"best_pos":5,"similarity":0.736,"stretto":false,"stretto_voices":0,"combination":[],"aug_dim":"","rhythm_ratio":1.0,"mirror":false,"chromatic_density":0.478,"complexity":0.682,"dissonance":0.127},{"voice":3,"pitch":55,"start":175.1665,"duration":0.1667,"velocity":127,"measure":66,"beat":3.75,"subject_pos":-1,"motif":"","motif_pos":-1,"best_pos":6,"similarity":0.529,"stretto":false,"stretto_voices":0,"combination":[],"aug_dim":"","rhythm_ratio":1.0,"mirror":false,"chromatic_density":0.478,"complexity":0.682,"dissonance":0.127},{"voice":1,"pitch":62,"start":175.3332,"duration":0.5,"velocity":127,"measure":66,"beat":4.0,"subject_pos":7,"motif":"subject","motif_pos":7,"best_pos":7,"similarity":1.0,"stretto":true,"stretto_voices":2,"combination":[],"aug_dim":"","rhythm_ratio":1.0,"mirror":false,"chromatic_density":0.478,"complexity":0.682,"dissonance":0.127},{"voice":3,"pitch":53,"start":175.3332,"duration":0.1667,"velocity":127,"measure":66,"beat":4.0,"subject_pos":-1,"motif":"","motif_pos":-1,"best_pos":3,"similarity":0.471,"stretto":false,"stretto_voices":0,"combination":[],"aug_dim":"","rhythm_ratio":1.0,"mirror":false,"chromatic_density":0.478,"complexity":0.682,"dissonance":0.127},{"voice":3,"pitch":52,"start":175.4998,"duration":0.1667,"velocity":127,"measure":66,"beat":4.25,"subject_pos":-1,"motif":"","motif_pos":-1,"best_pos":2,"similarity":0.5,"stretto":false,"stretto_voices":0,"combination":[],"aug_dim":"","rhythm_ratio":1.0,"mirror":false,"chromatic_density":0.478,"complexity":0.682,"dissonance":0.127},{"voice":3,"pitch":50,"start":175.6665,"duration":0.1667,"velocity":127,"measure":66,"beat":4.5,"subject_pos":-1,"motif":"","motif_pos":-1,"best_pos":3,"similarity":0.679,"stretto":false,"stretto_voices":0,"combination":[],"aug_dim":"","rhythm_ratio":1.0,"mirror":false,"chromatic_density":0.478,"complexity":0.682,"dissonance":0.127},{"voice":1,"pitch":64,"start":175.8332,"duration":0.1667,"velocity":127,"measure":66,"beat":4.75,"subject_pos":8,"motif":"subject","motif_pos":8,"best_pos":0,"similarity":1.0,"stretto":true,"stretto_voices":2,"combination":[],"aug_dim":"","rhythm_ratio":1.0,"mirror":false,"chromatic_density":0.478,"complexity":0.682,"dissonance":0.127},{"voice":3,"pitch":49,"start":175.8332,"duration":0.1667,"velocity":127,"measure":66,"beat":4.75,"subject_pos":-1,"motif":"","motif_pos":-1,"best_pos":4,"similarity":0.768,"stretto":false,"stretto_voices":0,"combination":[],"aug_dim":"","rhythm_ratio":1.0,"mirror":false,"chromatic_density":0.478,"complexity":0.682,"dissonance":0.127},{"voice":0,"pitch":69,"start":175.9998,"duration":1.0,"velocity":127,"measure":67,"beat":1.0,"subject_pos":7,"motif":"subject_inv","motif_pos":7,"best_pos":7,"similarity":1.0,"stretto":false,"stretto_voices":0,"combination":[],"aug_dim":"augmentation","rhythm_ratio":2.0,"mirror":false,"chromatic_density":0.368,"complexity":0.63,"dissonance":0.086},{"voice":1,"pitch":65,"start":175.9998,"duration":0.8333,"velocity":127,"measure":67,"beat":1.0,"subject_pos":-1,"motif":"","motif_pos":-1,"best_pos":5,"similarity":0.607,"stretto":false,"stretto_voices":0,"combination":[],"aug_dim":"","rhythm_ratio":1.0,"mirror":false,"chromatic_density":0.368,"complexity":0.63,"dissonance":0.086},{"voice":3,"pitch":50,"start":175.9998,"duration":2.1667,"velocity":127,"measure":67,"beat":1.0,"subject_pos":-1,"motif":"","motif_pos":-1,"best_pos":5,"similarity":0.643,"stretto":false,"stretto_voices":0,"combination":[],"aug_dim":"","rhythm_ratio":1.0,"mirror":false,"chromatic_density":0.368,"complexity":0.63,"dissonance":0.086},{"voice":2,"pitch":52,"start":176.1665,"duration":0.1667,"velocity":127,"measure":67,"beat":1.25,"subject_pos":-1,"motif":"","motif_pos":-1,"best_pos":3,"similarity":0.643,"stretto":false,"stretto_voices":0,"combination":[],"aug_dim":"","rhythm_ratio":1.0,"mirror":false,"chromatic_density":0.368,"complexity":0.63,"dissonance":0.086},{"voice":2,"pitch":53,"start":176.3332,"duration":0.1667,"velocity":127,"measure":67,"beat":1.5,"subject_pos":-1,"motif":"","motif_pos":-1,"best_pos":5,"similarity":0.714,"stretto":false,"stretto_voices":0,"combination":[],"aug_dim":"","rhythm_ratio":1.0,"mirror":false,"chromatic_density":0.368,"complexity":0.63,"dissonance":0.086},{"voice":2,"pitch":55,"start":176.4998,"duration":0.1667,"velocity":127,"measure":67,"beat":1.75,"subject_pos":-1,"motif":"","motif_pos":-1,"best_pos":5,"similarity":0.679,"stretto":false,"stretto_voices":0,"combination":[],"aug_dim":"","rhythm_ratio":1.0,"mirror":false,"chromatic_density":0.368,"complexity":0.63,"dissonance":0.086},{"voice":2,"pitch":57,"start":176.6665,"duration":0.8333,"velocity":127,"measure":67,"beat":2.0,"subject_pos":-1,"motif":"","motif_pos":-1,"best_pos":6,"similarity":0.661,"stretto":false,"stretto_voices":0,"combination":[],"aug_dim":"","rhythm_ratio":1.0,"mirror":false,"chromatic_density":0.368,"complexity":0.63,"dissonance":0.086},{"voice":1,"pitch":67,"start":176.8332,"duration":0.1667,"velocity":127,"measure":67,"beat":2.25,"subject_pos":-1,"motif":"","motif_pos":-1,"best_pos":6,"similarity":0.464,"stretto":false,"stretto_voices":0,"combination":[],"aug_dim":"","rhythm_ratio":1.0,"mirror":false,"chromatic_density":0.368,"complexity":0.63,"dissonance":0.086},{"voice":0,"pitch":67,"start":176.9998,"duration":0.3333,"velocity":127,"measure":67,"beat":2.5,"subject_pos":8,"motif":"subject_inv","motif_pos":8,"best_pos":0,"similarity":1.0,"stretto":false,"stretto_voices":0,"combination":[],"aug_dim":"augmentation","rhythm_ratio":2.0,"mirror":false,"chromatic_density":0.368,"complexity":0.63,"dissonance":0.086},{"voice":1,"pitch":65,"start":176.9998,"duration":0.1667,"velocity":127,"measure":67,"beat":2.5,"subject_pos":-1,"motif":"","motif_pos":-1,"best_pos":3,"similarity":0.464,"stretto":false,"stretto_voices":0,"combination":[],"aug_dim":"","rhythm_ratio":1.0,"mirror":false,"chromatic_density":0.368,"complexity":0.63,"dissonance":0.086},{"voice":1,"pitch":64,"start":177.1665,"duration":0.1667,"velocity":127,"measure":67,"beat":2.75,"subject_pos":-1,"motif":"","motif_pos":-1,"best_pos":4,"similarity":0.464,"stretto":false,"stretto_voices":0,"combination":[],"aug_dim":"","rhythm_ratio":1.0,"mirror":false,"chromatic_density":0.368,"complexity":0.63,"dissonance":0.086},{"voice":0,"pitch":65,"start":177.3332,"duration":1.8333,"velocity":127,"measure":67,"beat":3.0,"subject_pos":-1,"motif":"","motif_pos":-1,"best_pos":3,"similarity":0.786,"stretto":false,"stretto_voices":0,"combination":[],"aug_dim":"","rhythm_ratio":1.0,"mirror":false,"chromatic_density":0.368,"complexity":0.63,"dissonance":0.086},{"voice":1,"pitch":62,"start":177.3332,"duration":0.5,"velocity":127,"measure":67,"beat":3.0,"subject_pos":-1,"motif":"","motif_pos":-1,"best_pos":3,"similarity":0.457,"stretto":false,"stretto_voices":0,"combination":[],"aug_dim":"","rhythm_ratio":1.0,"mirror":false,"chromatic_density":0.368,"complexity":0.63,"dissonance":0.086},{"voice":2,"pitch":58,"start":177.4998,"duration":0.1667,"velocity":127,"measure":67,"beat":3.25,"subject_pos":-1,"motif":"","motif_pos":-1,"best_pos":7,"similarity":0.464,"stretto":false,"stretto_voices":0,"combination":[],"aug_dim":"","rhythm_ratio":1.0,"mirror":false,"chromatic_density":0.368,"complexity":0.63,"dissonance":0.086},{"voice":2,"pitch":57,"start":177.6665,"duration":0.1667,"velocity":127,"measure":67,"beat":3.5,"subject_pos":-1,"motif":"","motif_pos":-1,"best_pos":1,"similarity":0.429,"stretto":false,"stretto_voices":0,"combination":[],"aug_dim":"","rhythm_ratio":1.0,"mirror":false,"chromatic_density":0.368,"complexity":0.63,"dissonance":0.086},{"voice":1,"pitch":57,"start":177.8332,"duration":0.1667,"velocity":127,"measure":67,"beat":3.75,"subject_pos":-1,"motif":"","motif_pos":-1,"best_pos":4,"similarity":0.6,"stretto":false,"stretto_voices":0,"combination":[],"aug_dim":"","rhythm_ratio":1.0,"mirror":false,"chromatic_density":0.368,"complexity":0.63,"dissonance":0.086},{"voice":2,"pitch":55,"start":177.8332,"duration":0.1667,"velocity":127,"measure":67,"beat":3.75,"subject_pos":-1,"motif":"","motif_pos":-1,"best_pos":2,"similarity":0.579,"stretto":false,"stretto_voices":0,"combination":[],"aug_dim":"","rhythm_ratio":1.0,"mirror":false,"chromatic_density":0.368,"complexity":0.63,"dissonance":0.086},{"voice":1,"pitch":58,"start":177.9998,"duration":0.5,"velocity":127,"measure":67,"beat":4.0,"subject_pos":-1,"motif":"","motif_pos":-1,"best_pos":5,"similarity":0.693,"stretto":false,"stretto_voices":0,"combination":[],"aug_dim":"","rhythm_ratio":1.0,"mirror":false,"chromatic_density":0.368,"complexity":0.63,"dissonance":0.086},{"voice":2,"pitch":53,"start":177.9998,"duration":0.8333,"velocity":127,"measure":67,"beat":4.0,"subject_pos":-1,"motif":"","motif_pos":-1,"best_pos":3,"similarity":0.593,"stretto":false,"stretto_voices":0,"combination":[],"aug_dim":"","rhythm_ratio":1.0,"mirror":false,"chromatic_density":0.368,"complexity":0.63,"dissonance":0.086},{"voice":3,"pitch":51,"start":178.1665,"duration":0.1667,"velocity":127,"measure":67,"beat":4.25,"subject_pos":-1,"motif":"","motif_pos":-1,"best_pos":6,"similarity":0.429,"stretto":false,"stretto_voices":0,"combination":[],"aug_dim":"","rhythm_ratio":1.0,"mirror":false,"chromatic_density":0.368,"complexity":0.63,"dissonance":0.086},{"voice":3,"pitch":50,"start":178.3332,"duration":0.1667,"velocity":127,"measure":67,"beat":4.5,"subject_pos":-1,"motif":"","motif_pos":-1,"best_pos":2,"similarity":0.407,"stretto":false,"stretto_voices":0,"combination":[],"aug_dim":"","rhythm_ratio":1.0,"mirror":false,"chromatic_density":0.368,"complexity":0.63,"dissonance":0.086},{"voice":1,"pitch":60,"start":178.4998,"duration":0.1667,"velocity":127,"measure":67,"beat":4.75,"subject_pos":-1,"motif":"","motif_pos":-1,"best_pos":6,"similarity":0.579,"stretto":false,"stretto_voices":0,"combination":[],"aug_dim":"","rhythm_ratio":1.0,"mirror":false,"chromatic_density":0.368,"complexity":0.63,"dissonance":0.086},{"voice":3,"pitch":48,"start":178.4998,"duration":0.1667,"velocity":127,"measure":67,"beat":4.75,"subject_pos":-1,"motif":"","motif_pos":-1,"best_pos":2,"similarity":0.518,"stretto":false,"stretto_voices":0,"combination":[],"aug_dim":"","rhythm_ratio":1.0,"mirror":false,"chromatic_density":0.368,"complexity":0.63,"dissonance":0.086},{"voice":1,"pitch":62,"start":178.6665,"duration":1.8333,"velocity":127,"measure":68,"beat":1.0,"subject_pos":-1,"motif":"","motif_pos":-1,"best_pos":6,"similarity":0.375,"stretto":false,"stretto_voices":0,"combination":[],"aug_dim":"","rhythm_ratio":1.0,"mirror":false,"chromatic_density":0.417,"complexity":0.626,"dissonance":0.102},{"voice":3,"pitch":46,"start":178.6665,"duration":0.8333,"velocity":127,"measure":68,"beat":1.0,"subject_pos":-1,"motif":"","motif_pos":-1,"best_pos":3,"similarity":0.471,"stretto":false,"stretto_voices":0,"combination":[],"aug_dim":"","rhythm_ratio":1.0,"mirror":false,"chromatic_density":0.417,"complexity":0.626,"dissonance":0.102},{"voice":2,"pitch":52,"start":178.8332,"duration":0.1667,"velocity":127,"measure":68,"beat":1.25,"subject_pos":-1,"motif":"","motif_pos":-1,"best_pos":4,"similarity":0.543,"stretto":false,"stretto_voices":0,"combination":[],"aug_dim":"","rhythm_ratio":1.0,"mirror":false,"chromatic_density":0.417,"complexity":0.626,"dissonance":0.102},{"voice":2,"pitch":50,"start":178.9998,"duration":0.1667,"velocity":127,"measure":68,"beat":1.5,"subject_pos":-1,"motif":"","motif_pos":-1,"best_pos":3,"similarity":0.661,"stretto":false,"stretto_voices":0,"combination":[],"aug_dim":"","rhythm_ratio":1.0,"mirror":false,"chromatic_density":0.417,"complexity":0.626,"dissonance":0.102},{"voice":0,"pitch":64,"start":179.1665,"duration":0.1667,"velocity":127,"measure":68,"beat":1.75,"subject_pos":-1,"motif":"","motif_pos":-1,"best_pos":4,"similarity":0.893,"stretto":false,"stretto_voices":0,"combination":[],"aug_dim":"","rhythm_ratio":1.0,"mirror":false,"chromatic_density":0.417,"complexity":0.626,"dissonance":0.102},{"voice":2,"pitch":49,"start":179.1665,"duration":0.1667,"velocity":127,"measure":68,"beat":1.75,"subject_pos":-1,"motif":"","motif_pos":-1,"best_pos":4,"similarity":0.721,"stretto":false,"stretto_voices":0,"combination":[],"aug_dim":"","rhythm_ratio":1.0,"mirror":false,"chromatic_density":0.417,"complexity":0.626,"dissonance":0.102},{"voice":0,"pitch":65,"start":179.3332,"duration":0.5,"velocity":127,"measure":68,"beat":2.0,"subject_pos":-1,"motif":"","motif_pos":-1,"best_pos":5,"similarity":0.821,"stretto":false,"stretto_voices":0,"combination":[],"aug_dim":"","rhythm_ratio":1.0,"mirror":false,"chromatic_density":0.417,"complexity":0.626,"dissonance":0.102},{"voice":2,"pitch":50,"start":179.3332,"duration":1.3333,"velocity":127,"measure":68,"beat":2.0,"subject_pos":-1,"motif":"","motif_pos":-1,"best_pos":5,"similarity":0.55,"stretto":false,"stretto_voices":0,"combination":[],"aug_dim":"","rhythm_ratio":1.0,"mirror":false,"chromatic_density":0.417,"complexity":0.626,"dissonance":0.102},{"voice":3,"pitch":46,"start":179.4998,"duration":0.1667,"velocity":127,"measure":68,"beat":2.25,"subject_pos":-1,"motif":"","motif_pos":-1,"best_pos":3,"similarity":0.479,"stretto":false,"stretto_voices":0,"combination":[],"aug_dim":"","rhythm_ratio":1.0,"mirror":false,"chromatic_density":0.417,"complexity":0.626,"dissonance":0.102},{"voice":3,"pitch":45,"start":179.6665,"duration":0.1667,"velocity":127,"measure":68,"beat":2.5,"subject_pos":-1,"motif":"","motif_pos":-1,"best_pos":2,"similarity":0.5,"stretto":false,"stretto_voices":0,"combination":[],"aug_dim":"","rhythm_ratio":1.0,"mirror":false,"chromatic_density":0.417,"complexity":0.626,"dissonance":0.102},{"voice":0,"pitch":67,"start":179.8332,"duration":0.1667,"velocity":127,"measure":68,"beat":2.75,"subject_pos":-1,"motif":"","motif_pos":-1,"best_pos":6,"similarity":0.643,"stretto":false,"stretto_voices":0,"combination":[],"aug_dim":"","rhythm_ratio":1.0,"mirror":false,"chromatic_density":0.417,"complexity":0.626,"dissonance":0.102},{"voice":3,"pitch":43,"start":179.8332,"duration":0.1667,"velocity":127,"measure":68,"beat":2.75,"subject_pos":-1,"motif":"","motif_pos":-1,"best_pos":3,"similarity":0.65,"stretto":false,"stretto_voices":0,"combination":[],"aug_dim":"","rhythm_ratio":1.0,"mirror":false,"chromatic_density":0.417,"complexity":0.626,"dissonance":0.102},{"voice":0,"pitch":69,"start":179.9998,"duration":1.75,"velocity":127,"measure":68,"beat":3.0,"subject_pos":-1,"motif":"head_inv","motif_pos":0,"best_pos":0,"similarity":1.0,"stretto":false,"stretto_voices":0,"combination":[],"aug_dim":"","rhythm_ratio":1.0,"mirror":false,"chromatic_density":0.417,"complexity":0.626,"dissonance":0.102},{"voice":3,"pitch":42,"start":179.9998,"duration":0.6667,"velocity":127,"measure":68,"beat":3.0,"subject_pos":-1,"motif":"","motif_pos":-1,"best_pos":4,"similarity":0.729,"stretto":false,"stretto_voices":0,"combination":[],"aug_dim":"","rhythm_ratio":1.0,"mirror":false,"chromatic_density":0.417,"complexity":0.626,"dissonance":0.102},{"voice":1,"pitch":57,"start":180.4998,"duration":0.1667,"velocity":127,"measure":68,"beat":3.75,"subject_pos":-1,"motif":"","motif_pos":-1,"best_pos":0,"similarity":0.464,"stretto":false,"stretto_voices":0,"combination":[],"aug_dim":"","rhythm_ratio":1.0,"mirror":false,"chromatic_density":0.417,"complexity":0.626,"dissonance":0.102},{"voice":1,"pitch":62,"start":180.6665,"duration":0.5,"velocity":127,"measure":68,"beat":4.0,"subject_pos":-1,"motif":"","motif_pos":-1,"best_pos":1,"similarity":0.714,"stretto":false,"stretto_voices":0,"combination":[],"aug_dim":"","rhythm_ratio":1.0,"mirror":false,"chromatic_density":0.417,"complexity":0.626,"dissonance":0.102},{"voice":1,"pitch":60,"start":181.1665,"duration":0.1667,"velocity":127,"measure":68,"beat":4.75,"subject_pos":-1,"motif":"","motif_pos":-1,"best_pos":2,"similarity":0.786,"stretto":false,"stretto_voices":0,"combination":[],"aug_dim":"","rhythm_ratio":1.0,"mirror":false,"chromatic_density":0.417,"complexity":0.626,"dissonance":0.102},{"voice":2,"pitch":50,"start":181.1665,"duration":0.1667,"velocity":127,"measure":68,"beat":4.75,"subject_pos":-1,"motif":"head","motif_pos":0,"best_pos":0,"similarity":1.0,"stretto":false,"stretto_voices":0,"combination":[],"aug_dim":"","rhythm_ratio":1.0,"mirror":false,"chromatic_density":0.417,"complexity":0.626,"dissonance":0.102},{"voice":1,"pitch":58,"start":181.3332,"duration":0.5,"velocity":127,"measure":69,"beat":1.0,"subject_pos":-1,"motif":"","motif_pos":-1,"best_pos":3,"similarity":0.786,"stretto":false,"stretto_voices":0,"combination":[],"aug_dim":"","rhythm_ratio":1.0,"mirror":false,"chromatic_density":0.278,"complexity":0.77,"dissonance":0.125},{"voice":2,"pitch":55,"start":181.3332,"duration":0.5,"velocity":127,"measure":69,"beat":1.0,"subject_pos":-1,"motif":"head","motif_pos":1,"best_pos":1,"similarity":1.0,"stretto":false,"stretto_voices":0,"combination":[],"aug_dim":"","rhythm_ratio":1.0,"mirror":false,"chromatic_density":0.278,"complexity":0.77,"dissonance":0.125},{"voice":0,"pitch":62,"start":181.7498,"duration":0.0833,"velocity":127,"measure":69,"beat":1.625,"subject_pos":-1,"motif":"head_inv","motif_pos":1,"best_pos":1,"similarity":1.0,"stretto":false,"stretto_voices":0,"combination":[],"aug_dim":"","rhythm_ratio":1.0,"mirror":false,"chromatic_density":0.278,"complexity":0.77,"dissonance":0.125},{"voice":0,"pitch":64,"start":181.8332,"duration":0.0833,"velocity":127,"measure":69,"beat":1.75,"subject_pos":-1,"motif":"head_inv","motif_pos":2,"best_pos":2,"similarity":1.0,"stretto":false,"stretto_voices":0,"combination":[],"aug_dim":"","rhythm_ratio":1.0,"mirror":false,"chromatic_density":0.278,"complexity":0.77,"dissonance":0.125},{"voice":1,"pitch":57,"start":181.8332,"duration":0.1667,"velocity":127,"measure":69,"beat":1.75,"subject_pos":-1,"motif":"","motif_pos":-1,"best_pos":4,"similarity":0.721,"stretto":false,"stretto_voices":0,"combination":[],"aug_dim":"","rhythm_ratio":1.0,"mirror":false,"chromatic_density":0.278,"complexity":0.77,"dissonance":0.125},{"voice":2,"pitch":53,"start":181.8332,"duration":0.1667,"velocity":127,"measure":69,"beat":1.75,"subject_pos":-1,"motif":"head","motif_pos":2,"best_pos":2,"similarity":1.0,"stretto":false,"stretto_voices":0,"combination":[],"aug_dim":"","rhythm_ratio":1.0,"mirror":false,"chromatic_density":0.278,"complexity":0.77,"dissonance":0.125},{"voice":0,"pitch":65,"start":181.9165,"duration":0.0833,"velocity":127,"measure":69,"beat":1.875,"subject_pos":-1,"motif":"head_inv","motif_pos":3,"best_pos":3,"similarity":1.0,"stretto":false,"stretto_voices":0,"combination":[],"aug_dim":"","rhythm_ratio":1.0,"mirror":false,"chromatic_density":0.278,"complexity":0.77,"dissonance":0.125},{"voice":0,"pitch":67,"start":181.9998,"duration":2.4167,"velocity":127,"measure":69,"beat":2.0,"subject_pos":-1,"motif":"head_inv","motif_pos":4,"best_pos":4,"similarity":1.0,"stretto":false,"stretto_voices":0,"combination":[],"aug_dim":"","rhythm_ratio":1.0,"mirror":false,"chromatic_density":0.278,"complexity":0.77,"dissonance":0.125},{"voice":1,"pitch":58,"start":181.9998,"duration":1.1667,"velocity":127,"measure":69,"beat":2.0,"subject_pos":-1,"motif":"","motif_pos":-1,"best_pos":5,"similarity":0.479,"stretto":false,"stretto_voices":0,"combination":[],"aug_dim":"","rhythm_ratio":1.0,"mirror":false,"chromatic_density":0.278,"complexity":0.77,"dissonance":0.125},{"voice":2,"pitch":52,"start":181.9998,"duration":0.5,"velocity":127,"measure":69,"beat":2.0,"subject_pos":-1,"motif":"head","motif_pos":3,"best_pos":3,"similarity":1.0,"stretto":false,"stretto_voices":0,"combination":[],"aug_dim":"","rhythm_ratio":1.0,"mirror":false,"chromatic_density":0.278,"complexity":0.77,"dissonance":0.125},{"voice":2,"pitch":50,"start":182.4998,"duration":0.1667,"velocity":127,"measure":69,"beat":2.75,"subject_pos":-1,"motif":"head","motif_pos":4,"best_pos":4,"similarity":1.0,"stretto":false,"stretto_voices":0,"combination":[],"aug_dim":"","rhythm_ratio":1.0,"mirror":false,"chromatic_density":0.278,"complexity":0.77,"dissonance":0.125},{"voice":3,"pitch":43,"start":182.4998,"duration":0.1667,"velocity":127,"measure":69,"beat":2.75,"subject_pos":-1,"motif":"","motif_pos":-1,"best_pos":5,"similarity":0.564,"stretto":false,"stretto_voices":0,"combination":[],"aug_dim":"","rhythm_ratio":1.0,"mirror":false,"chromatic_density":0.278,"complexity":0.77,"dissonance":0.125},{"voice":2,"pitch":52,"start":182.6665,"duration":1.1667,"velocity":127,"measure":69,"beat":3.0,"subject_pos":-1,"motif":"","motif_pos":-1,"best_pos":1,"similarity":0.386,"stretto":false,"stretto_voices":0,"combination":[],"aug_dim":"","rhythm_ratio":1.0,"mirror":false,"chromatic_density":0.278,"complexity":0.77,"dissonance":0.125},{"voice":3,"pitch":48,"start":182.6665,"duration":0.4167,"velocity":127,"measure":69,"beat":3.0,"subject_pos":-1,"motif":"","motif_pos":-1,"best_pos":1,"similarity":0.421,"stretto":false,"stretto_voices":0,"combination":[],"aug_dim":"","rhythm_ratio":1.0,"mirror":false,"chromatic_density":0.278,"complexity":0.77,"dissonance":0.125},{"voice":3,"pitch":50,"start":183.0832,"duration":0.0833,"velocity":127,"measure":69,"beat":3.625,"subject_pos":-1,"motif":"","motif_pos":-1,"best_pos":1,"similarity":0.457,"stretto":false,"stretto_voices":0,"combination":[],"aug_dim":"","rhythm_ratio":1.0,"mirror":false,"chromatic_density":0.278,"complexity":0.77,"dissonance":0.125},{"voice":1,"pitch":55,"start":183.1665,"duration":0.1667,"velocity":127,"measure":69,"beat":3.75,"subject_pos":-1,"motif":"head","motif_pos":0,"best_pos":0,"similarity":1.0,"stretto":false,"stretto_voices":0,"combination":[],"aug_dim":"","rhythm_ratio":1.0,"mirror":false,"chromatic_density":0.278,"complexity":0.77,"dissonance":0.125},{"voice":3,"pitch":48,"start":183.1665,"duration":0.0833,"velocity":127,"measure":69,"beat":3.75,"subject_pos":-1,"motif":"","motif_pos":-1,"best_pos":2,"similarity":0.586,"stretto":false,"stretto_voices":0,"combination":[],"aug_dim":"","rhythm_ratio":1.0,"mirror":false,"chromatic_density":0.278,"complexity":0.77,"dissonance":0.125},{"voice":3,"pitch":46,"start":183.2498,"duration":0.0833,"velocity":127,"measure":69,"beat":3.875,"subject_pos":-1,"motif":"","motif_pos":-1,"best_pos":3,"similarity":0.586,"stretto":false,"stretto_voices":0,"combination":[],"aug_dim":"","rhythm_ratio":1.0,"mirror":false,"chromatic_density":0.278,"complexity":0.77,"dissonance":0.125},{"voice":1,"pitch":60,"start":183.3331,"duration":0.5,"velocity":127,"measure":69,"beat":4.0,"subject_pos":-1,"motif":"head","motif_pos":1,"best_pos":1,"similarity":1.0,"stretto":false,"stretto_voices":0,"combination":[],"aug_dim":"","rhythm_ratio":1.0,"mirror":false,"chromatic_density":0.278,"complexity":0.77,"dissonance":0.125},{"voice":3,"pitch":45,"start":183.3331,"duration":0.6667,"velocity":127,"measure":69,"beat":4.0,"subject_pos":-1,"motif":"","motif_pos":-1,"best_pos":4,"similarity":0.479,"stretto":false,"stretto_voices":0,"combination":[],"aug_dim":"","rhythm_ratio":1.0,"mirror":false,"chromatic_density":0.278,"complexity":0.77,"dissonance":0.125},{"voice":1,"pitch":58,"start":183.8331,"duration":0.1667,"velocity":127,"measure":69,"beat":4.75,"subject_pos":-1,"motif":"head","motif_pos":2,"best_pos":2,"similarity":1.0,"stretto":false,"stretto_voices":0,"combination":[],"aug_dim":"","rhythm_ratio":1.0,"mirror":false,"chromatic_density":0.278,"complexity":0.77,"dissonance":0.125},{"voice":2,"pitch":48,"start":183.8331,"duration":0.1667,"velocity":127,"measure":69,"beat":4.75,"subject_pos":-1,"motif":"","motif_pos":-1,"best_pos":2,"similarity":0.45,"stretto":false,"stretto_voices":0,"combination":[],"aug_dim":"","rhythm_ratio":1.0,"mirror":false,"chromatic_density":0.278,"complexity":0.77,"dissonance":0.125},{"voice":1,"pitch":57,"start":183.9998,"duration":0.5,"velocity":127,"measure":70,"beat":1.0,"subject_pos":-1,"motif":"head","motif_pos":3,"best_pos":3,"similarity":1.0,"stretto":false,"stretto_voices":0,"combination":[],"aug_dim":"","rhythm_ratio":1.0,"mirror":false,"chromatic_density":0.333,"complexity":0.683,"dissonance":0.069},{"voice":2,"pitch":53,"start":183.9998,"duration":0.5,"velocity":127,"measure":70,"beat":1.0,"subject_pos":-1,"motif":"","motif_pos":-1,"best_pos":1,"similarity":0.571,"stretto":false,"stretto_voices":0,"combination":[],"aug_dim":"","rhythm_ratio":1.0,"mirror":false,"chromatic_density":0.333,"complexity":0.683,"dissonance":0.069},{"voice":0,"pitch":60,"start":184.4165,"duration":0.0833,"velocity":127,"measure":70,"beat":1.625,"subject_pos":-1,"motif":"","motif_pos":-1,"best_pos":5,"similarity":0.379,"stretto":false,"stretto_voices":0,"combination":[],"aug_dim":"","rhythm_ratio":1.0,"mirror":false,"chromatic_density":0.333,"complexity":0.683,"dissonance":0.069},{"voice":0,"pitch":62,"start":184.4998,"duration":0.0833,"velocity":127,"measure":70,"beat":1.75,"subject_pos":-1,"motif":"","motif_pos":-1,"best_pos":5,"similarity":0.571,"stretto":false,"stretto_voices":0,"combination":[],"aug_dim":"","rhythm_ratio":1.0,"mirror":false,"chromatic_density":0.333,"complexity":0.683,"dissonance":0.069},{"voice":1,"pitch":55,"start":184.4998,"duration":0.1667,"velocity":127,"measure":70,"beat":1.75,"subject_pos":-1,"motif":"head","motif_pos":4,"best_pos":4,"similarity":1.0,"stretto":false,"stretto_voices":0,"combination":[],"aug_dim":"","rhythm_ratio":1.0,"mirror":false,"chromatic_density":0.333,"complexity":0.683,"dissonance":0.069},{"voice":2,"pitch":52,"start":184.4998,"duration":0.1667,"velocity":127,"measure":70,"beat":1.75,"subject_pos":-1,"motif":"","motif_pos":-1,"best_pos":2,"similarity":0.643,"stretto":false,"stretto_voices":0,"combination":[],"aug_dim":"","rhythm_ratio":1.0,"mirror":false,"chromatic_density":0.333,"complexity":0.683,"dissonance":0.069},{"voice":0,"pitch":64,"start":184.5831,"duration":0.0833,"velocity":127,"measure":70,"beat":1.875,"subject_pos":-1,"motif":"","motif_pos":-1,"best_pos":6,"similarity":0.643,"stretto":false,"stretto_voices":0,"combination":[],"aug_dim":"","rhythm_ratio":1.0,"mirror":false,"chromatic_density":0.333,"complexity":0.683,"dissonance":0.069},{"voice":0,"pitch":65,"start":184.6665,"duration":1.1667,"velocity":127,"measure":70,"beat":2.0,"subject_pos":-1,"motif":"","motif_pos":-1,"best_pos":7,"similarity":0.464,"stretto":false,"stretto_voices":0,"combination":[],"aug_dim":"","rhythm_ratio":1.0,"mirror":false,"chromatic_density":0.333,"complexity":0.683,"dissonance":0.069},{"voice":1,"pitch":57,"start":184.6665,"duration":1.3333,"velocity":127,"measure":70,"beat":2.0,"subject_pos":-1,"motif":"","motif_pos":-1,"best_pos":6,"similarity":0.4,"stretto":false,"stretto_voices":0,"combination":[],"aug_dim":"","rhythm_ratio":1.0,"mirror":false,"chromatic_density":0.333,"complexity":0.683,"dissonance":0.069},{"voice":2,"pitch":50,"start":184.6665,"duration":0.5,"velocity":127,"measure":70,"beat":2.0,"subject_pos":-1,"motif":"","motif_pos":-1,"best_pos":3,"similarity":0.721,"stretto":false,"stretto_voices":0,"combination":[],"aug_dim":"","rhythm_ratio":1.0,"mirror":false,"chromatic_density":0.333,"complexity":0.683,"dissonance":0.069},{"voice":2,"pitch":49,"start":185.1665,"duration":0.1667,"velocity":127,"measure":70,"beat":2.75,"subject_pos":-1,"motif":"","motif_pos":-1,"best_pos":4,"similarity":0.7,"stretto":false,"stretto_voices":0,"combination":[],"aug_dim":"","rhythm_ratio":1.0,"mirror":false,"chromatic_density":0.333,"complexity":0.683,"dissonance":0.069},{"voice":3,"pitch":41,"start":185.1665,"duration":0.1667,"velocity":127,"measure":70,"beat":2.75,"subject_pos":-1,"motif":"","motif_pos":-1,"best_pos":0,"similarity":0.336,"stretto":false,"stretto_voices":0,"combination":[],"aug_dim":"","rhythm_ratio":1.0,"mirror":false,"chromatic_density":0.333,"complexity":0.683,"dissonance":0.069},{"voice":2,"pitch":50,"start":185.3331,"duration":1.1667,"velocity":127,"measure":70,"beat":3.0,"subject_pos":-1,"motif":"","motif_pos":-1,"best_pos":5,"similarity":0.507,"stretto":false,"stretto_voices":0,"combination":[],"aug_dim":"","rhythm_ratio":1.0,"mirror":false,"chromatic_density":0.333,"complexity":0.683,"dissonance":0.069},{"voice":3,"pitch":46,"start":185.3331,"duration":0.4167,"velocity":127,"measure":70,"beat":3.0,"subject_pos":-1,"motif":"","motif_pos":-1,"best_pos":1,"similarity":0.457,"stretto":false,"stretto_voices":0,"combination":[],"aug_dim":"","rhythm_ratio":1.0,"mirror":false,"chromatic_density":0.333,"complexity":0.683,"dissonance":0.069},{"voice":3,"pitch":48,"start":185.7498,"duration":0.0833,"velocity":127,"measure":70,"beat":3.625,"subject_pos":-1,"motif":"","motif_pos":-1,"best_pos":2,"similarity":0.529,"stretto":false,"stretto_voices":0,"combination":[],"aug_dim":"","rhythm_ratio":1.0,"mirror":false,"chromatic_density":0.333,"complexity":0.683,"dissonance":0.069},{"voice":0,"pitch":62,"start":185.8331,"duration":0.1667,"velocity":127,"measure":70,"beat":3.75,"subject_pos":-1,"motif":"","motif_pos":-1,"best_pos":0,"similarity":0.446,"stretto":false,"stretto_voices":0,"combination":[],"aug_dim":"","rhythm_ratio":1.0,"mirror":false,"chromatic_density":0.333,"complexity":0.683,"dissonance":0.069},{"voice":3,"pitch":46,"start":185.8331,"duration":0.0833,"velocity":127,"measure":70,"beat":3.75,"subject_pos":-1,"motif":"","motif_pos":-1,"best_pos":3,"similarity":0.693,"stretto":false,"stretto_voices":0,"combination":[],"aug_dim":"","rhythm_ratio":1.0,"mirror":false,"chromatic_density":0.333,"complexity":0.683,"dissonance":0.069},{"voice":3,"pitch":45,"start":185.9165,"duration":0.0833,"velocity":127,"measure":70,"beat":3.875,"subject_pos":-1,"motif":"","motif_pos":-1,"best_pos":4,"similarity":0.793,"stretto":false,"stretto_voices":0,"combination":[],"aug_dim":"","rhythm_ratio":1.0,"mirror":false,"chromatic_density":0.333,"complexity":0.683,"dissonance":0.069},{"voice":0,"pitch":67,"start":185.9998,"duration":0.5,"velocity":127,"measure":70,"beat":4.0,"subject_pos":-1,"motif":"","motif_pos":-1,"best_pos":1,"similarity":0.614,"stretto":false,"stretto_voices":0,"combination":[],"aug_dim":"","rhythm_ratio":1.0,"mirror":false,"chromatic_density":0.333,"complexity":0.683,"dissonance":0.069},{"voice":1,"pitch":55,"start":185.9998,"duration":0.5,"velocity":127,"measure":70,"beat":4.0,"subject_pos":-1,"motif":"","motif_pos":-1,"best_pos":0,"similarity":0.429,"stretto":false,"stretto_voices":0,"combination":[],"aug_dim":"","rhythm_ratio":1.0,"mirror":false,"chromatic_density":0.333,"complexity":0.683,"dissonance":0.069},{"voice":3,"pitch":46,"start":185.9998,"duration":0.5,"velocity":127,"measure":70,"beat":4.0,"subject_pos":-1,"motif":"","motif_pos":-1,"best_pos":5,"similarity":0.75,"stretto":false,"stretto_voices":0,"combination":[],"aug_dim":"","rhythm_ratio":1.0,"mirror":false,"chromatic_density":0.333,"complexity":0.683,"dissonance":0.069},{"voice":0,"pitch":65,"start":186.4998,"duration":0.1667,"velocity":127,"measure":70,"beat":4.75,"subject_pos":-1,"motif":"","motif_pos":-1,"best_pos":2,"similarity":0.521,"stretto":false,"stretto_voices":0,"combination":[],"aug_dim":"","rhythm_ratio":1.0,"mirror":false,"chromatic_density":0.333,"complexity":0.683,"dissonance":0.069},{"voice":1,"pitch":62,"start":186.4998,"duration":0.1667,"velocity":127,"measure":70,"beat":4.75,"subject_pos":-1,"motif":"","motif_pos":-1,"best_pos":1,"similarity":0.589,"stretto":false,"stretto_voices":0,"combination":[],"aug_dim":"","rhythm_ratio":1.0,"mirror":false,"chromatic_density":0.333,"complexity":0.683,"dissonance":0.069},{"voice":2,"pitch":55,"start":186.4998,"duration":0.8333,"velocity":127,"measure":70,"beat":4.75,"subject_pos":-1,"motif":"","motif_pos":-1,"best_pos":1,"similarity":0.464,"stretto":false,"stretto_voices":0,"combination":[],"aug_dim":"","rhythm_ratio":1.0,"mirror":false,"chromatic_density":0.333,"complexity":0.683,"dissonance":0.069},{"voice":3,"pitch":47,"start":186.4998,"duration":0.1667,"velocity":127,"measure":70,"beat":4.75,"subject_pos":-1,"motif":"","motif_pos":-1,"best_pos":6,"similarity":0.643,"stretto":false,"stretto_voices":0,"combination":[],"aug_dim":"","rhythm_ratio":1.0,"mirror":false,"chromatic_density":0.333,"complexity":0.683,"dissonance":0.069},{"voice":0,"pitch":64,"start":186.6665,"duration":0.5,"velocity":127,"measure":71,"beat":1.0,"subject_pos":-1,"motif":"","motif_pos":-1,"best_pos":4,"similarity":0.45,"stretto":false,"stretto_voices":0,"combination":[],"aug_dim":"","rhythm_ratio":1.0,"mirror":false,"chromatic_density":0.167,"complexity":0.629,"dissonance":0.108},{"voice":1,"pitch":60,"start":186.6665,"duration":0.5,"velocity":127,"measure":71,"beat":1.0,"subject_pos":-1,"motif":"","motif_pos":-1,"best_pos":2,"similarity":0.5,"stretto":false,"stretto_voices":0,"combination":[],"aug_dim":"","rhythm_ratio":1.0,"mirror":false,"chromatic_density":0.167,"complexity":0.629,"dissonance":0.108},{"voice":3,"pitch":48,"start":186.6665,"duration":0.5,"velocity":127,"measure":71,"beat":1.0,"subject_pos":-1,"motif":"","motif_pos":-1,"best_pos":7,"similarity":0.429,"stretto":false,"stretto_voices":0,"combination":[],"aug_dim":"","rhythm_ratio":1.0,"mirror":false,"chromatic_density":0.167,"complexity":0.629,"dissonance":0.108},{"voice":0,"pitch":67,"start":187.1665,"duration":0.1667,"velocity":127,"measure":71,"beat":1.75,"subject_pos":-1,"motif":"","motif_pos":-1,"best_pos":0,"similarity":0.446,"stretto":false,"stretto_voices":0,"combination":[],"aug_dim":"","rhythm_ratio":1.0,"mirror":false,"chromatic_density":0.167,"complexity":0.629,"dissonance":0.108},{"voice":1,"pitch":64,"start":187.1665,"duration":0.1667,"velocity":127,"measure":71,"beat":1.75,"subject_pos":-1,"motif":"","motif_pos":-1,"best_pos":4,"similarity":0.507,"stretto":false,"stretto_voices":0,"combination":[],"aug_dim":"","rhythm_ratio":1.0,"mirror":false,"chromatic_density":0.167,"complexity":0.629,"dissonance":0.108},{"voice":3,"pitch":46,"start":187.1665,"duration":0.1667,"velocity":127,"measure":71,"beat":1.75,"subject_pos":-1,"motif":"","motif_pos":-1,"best_pos":3,"similarity":0.493,"stretto":false,"stretto_voices":0,"combination":[],"aug_dim":"","rhythm_ratio":1.0,"mirror":false,"chromatic_density":0.167,"complexity":0.629,"dissonance":0.108},{"voice":0,"pitch":72,"start":187.3331,"duration":0.5,"velocity":127,"measure":71,"beat":2.0,"subject_pos":-1,"motif":"","motif_pos":-1,"best_pos":1,"similarity":0.614,"stretto":false,"stretto_voices":0,"combination":[],"aug_dim":"","rhythm_ratio":1.0,"mirror":false,"chromatic_density":0.167,"complexity":0.629,"dissonance":0.108},{"voice":1,"pitch":65,"start":187.3331,"duration":0.5,"velocity":127,"measure":71,"beat":2.0,"subject_pos":-1,"motif":"","motif_pos":-1,"best_pos":5,"similarity":0.621,"stretto":false,"stretto_voices":0,"combination":[],"aug_dim":"","rhythm_ratio":1.0,"mirror":false,"chromatic_density":0.167,"complexity":0.629,"dissonance":0.108},{"voice":3,"pitch":45,"start":187.3331,"duration":0.5,"velocity":127,"measure":71,"beat":2.0,"subject_pos":-1,"motif":"","motif_pos":-1,"best_pos":4,"similarity":0.457,"stretto":false,"stretto_voices":0,"combination":[],"aug_dim":"","rhythm_ratio":1.0,"mirror":false,"chromatic_density":0.167,"complexity":0.629,"dissonance":0.108},{"voice":0,"pitch":70,"start":187.8331,"duration":0.1667,"velocity":127,"measure":71,"beat":2.75,"subject_pos":-1,"motif":"","motif_pos":-1,"best_pos":2,"similarity":0.521,"stretto":false,"stretto_voices":0,"combination":[],"aug_dim":"","rhythm_ratio":1.0,"mirror":false,"chromatic_density":0.167,"complexity":0.629,"dissonance":0.108},{"voice":1,"pitch":67,"start":187.8331,"duration":0.1667,"velocity":127,"measure":71,"beat":2.75,"subject_pos":-1,"motif":"","motif_pos":-1,"best_pos":6,"similarity":0.457,"stretto":false,"stretto_voices":0,"combination":[],"aug_dim":"","rhythm_ratio":1.0,"mirror":false,"chromatic_density":0.167,"complexity":0.629,"dissonance":0.108},{"voice":2,"pitch":52,"start":187.8331,"duration":0.1667,"velocity":127,"measure":71,"beat":2.75,"subject_pos":-1,"motif":"","motif_pos":-1,"best_pos":0,"similarity":0.464,"stretto":false,"stretto_voices":0,"combination":[],"aug_dim":"","rhythm_ratio":1.0,"mirror":false,"chromatic_density":0.167,"complexity":0.629,"dissonance":0.108},{"voice":3,"pitch":48,"start":187.8331,"duration":0.1667,"velocity":127,"measure":71,"beat":2.75,"subject_pos":-1,"motif":"","motif_pos":-1,"best_pos":0,"similarity":0.446,"stretto":false,"stretto_voices":0,"combination":[],"aug_dim":"","rhythm_ratio":1.0,"mirror":false,"chromatic_density":0.167,"complexity":0.629,"dissonance":0.108},{"voice":0,"pitch":69,"start":187.9998,"duration":0.5,"velocity":127,"measure":71,"beat":3.0,"subject_pos":-1,"motif":"","motif_pos":-1,"best_pos":4,"similarity":0.45,"stretto":false,"stretto_voices":0,"combination":[],"aug_dim":"","rhythm_ratio":1.0,"mirror":false,"chromatic_density":0.167,"complexity":0.629,"dissonance":0.108},{"voice":1,"pitch":65,"start":187.9998,"duration":0.5,"velocity":127,"measure":71,"beat":3.0,"subject_pos":-1,"motif":"","motif_pos":-1,"best_pos":4,"similarity":0.443,"stretto":false,"stretto_voices":0,"combination":[],"aug_dim":"","rhythm_ratio":1.0,"mirror":false,"chromatic_density":0.167,"complexity":0.629,"dissonance":0.108},{"voice":2,"pitch":57,"start":187.9998,"duration":0.5,"velocity":127,"measure":71,"beat":3.0,"subject_pos":-1,"motif":"","motif_pos":-1,"best_pos":1,"similarity":0.643,"stretto":false,"stretto_voices":0,"combination":[],"aug_dim":"","rhythm_ratio":1.0,"mirror":false,"chromatic_density":0.167,"complexity":0.629,"dissonance":0.108},{"voice":3,"pitch":53,"start":187.9998,"duration":0.5,"velocity":127,"measure":71,"beat":3.0,"subject_pos":-1,"motif":"","motif_pos":-1,"best_pos":1,"similarity":0.614,"stretto":false,"stretto_voices":0,"combination":[],"aug_dim":"","rhythm_ratio":1.0,"mirror":false,"chromatic_density":0.167,"complexity":0.629,"dissonance":0.108},{"voice":0,"pitch":72,"start":188.4998,"duration":0.1667,"velocity":127,"measure":71,"beat":3.75,"subject_pos":-1,"motif":"","motif_pos":-1,"best_pos":0,"similarity":0.446,"stretto":false,"stretto_voices":0,"combination":[],"aug_dim":"","rhythm_ratio":1.0,"mirror":false,"chromatic_density":0.167,"complexity":0.629,"dissonance":0.108},{"voice":1,"pitch":67,"start":188.4998,"duration":0.1667,"velocity":127,"measure":71,"beat":3.75,"subject_pos":-1,"motif":"","motif_pos":-1,"best_pos":5,"similarity":0.514,"stretto":false,"stretto_voices":0,"combination":[],"aug_dim":"","rhythm_ratio":1.0,"mirror":false,"chromatic_density":0.167,"complexity":0.629,"dissonance":0.108},{"voice":2,"pitch":55,"start":188.4998,"duration":0.1667,"velocity":127,"measure":71,"beat":3.75,"subject_pos":-1,"motif":"","motif_pos":-1,"best_pos":2,"similarity":0.607,"stretto":false,"stretto_voices":0,"combination":[],"aug_dim":"","rhythm_ratio":1.0,"mirror":false,"chromatic_density":0.167,"complexity":0.629,"dissonance":0.108},{"voice":3,"pitch":51,"start":188.4998,"duration":0.1667,"velocity":127,"measure":71,"beat":3.75,"subject_pos":-1,"motif":"","motif_pos":-1,"best_pos":2,"similarity":0.521,"stretto":false,"stretto_voices":0,"combination":[],"aug_dim":"","rhythm_ratio":1.0,"mirror":false,"chromatic_density":0.167,"complexity":0.629,"dissonance":0.108},{"voice":0,"pitch":77,"start":188.6665,"duration":0.5,"velocity":127,"measure":71,"beat":4.0,"subject_pos":-1,"motif":"","motif_pos":-1,"best_pos":1,"similarity":0.643,"stretto":false,"stretto_voices":0,"combination":[],"aug_dim":"","rhythm_ratio":1.0,"mirror":false,"chromatic_density":0.167,"complexity":0.629,"dissonance":0.108},{"voice":1,"pitch":69,"start":188.6665,"duration":1.1667,"velocity":127,"measure":71,"beat":4.0,"subject_pos":-1,"motif":"","motif_pos":-1,"best_pos":6,"similarity":0.421,"stretto":false,"stretto_voices":0,"combination":[],"aug_dim":"","rhythm_ratio":1.0,"mirror":false,"chromatic_density":0.167,"complexity":0.629,"dissonance":0.108},{"voice":2,"pitch":53,"start":188.6665,"duration":0.5,"velocity":127,"measure":71,"beat":4.0,"subject_pos":-1,"motif":"","motif_pos":-1,"best_pos":3,"similarity":0.436,"stretto":false,"stretto_voices":0,"combination":[],"aug_dim":"","rhythm_ratio":1.0,"mirror":false,"chromatic_density":0.167,"complexity":0.629,"dissonance":0.108},{"voice":3,"pitch":50,"start":188.6665,"duration":0.5,"velocity":127,"measure":71,"beat":4.0,"subject_pos":-1,"motif":"","motif_pos":-1,"best_pos":4,"similarity":0.461,"stretto":false,"stretto_voices":0,"combination":[],"aug_dim":"","rhythm_ratio":1.0,"mirror":false,"chromatic_density":0.167,"complexity":0.629,"dissonance":0.108},{"voice":0,"pitch":75,"start":189.1665,"duration":0.1667,"velocity":127,"measure":71,"beat":4.75,"subject_pos":-1,"motif":"","motif_pos":-1,"best_pos":2,"similarity":0.589,"stretto":false,"stretto_voices":0,"combination":[],"aug_dim":"","rhythm_ratio":1.0,"mirror":false,"chromatic_density":0.167,"complexity":0.629,"dissonance":0.108},{"voice":2,"pitch":60,"start":189.1665,"duration":0.1667,"velocity":127,"measure":71,"beat":4.75,"subject_pos":-1,"motif":"","motif_pos":-1,"best_pos":1,"similarity":0.421,"stretto":false,"stretto_voices":0,"combination":[],"aug_dim":"","rhythm_ratio":1.0,"mirror":false,"chromatic_density":0.167,"complexity":0.629,"dissonance":0.108},{"voice":3,"pitch":53,"start":189.1665,"duration":0.1667,"velocity":127,"measure":71,"beat":4.75,"subject_pos":-1,"motif":"","motif_pos":-1,"best_pos":0,"similarity":0.393,"stretto":false,"stretto_voices":0,"combination":[],"aug_dim":"","rhythm_ratio":1.0,"mirror":false,"chromatic_density":0.167,"complexity":0.629,"dissonance":0.108},{"voice":0,"pitch":74,"start":189.3331,"duration":1.0,"velocity":127,"measure":72,"beat":1.0,"subject_pos":-1,"motif":"","motif_pos":-1,"best_pos":4,"similarity":0.532,"stretto":false,"stretto_voices":0,"combination":[],"aug_dim":"","rhythm_ratio":1.0,"mirror":false,"chromatic_density":0.5,"complexity":0.598,"dissonance":0.151},{"voice":2,"pitch":62,"start":189.3331,"duration":0.5,"velocity":127,"measure":72,"beat":1.0,"subject_pos":-1,"motif":"","motif_pos":-1,"best_pos":1,"similarity":0.457,"stretto":false,"stretto_voices":0,"combination":[],"aug_dim":"","rhythm_ratio":1.0,"mirror":false,"chromatic_density":0.5,"complexity":0.598,"dissonance":0.151},{"voice":3,"pitch":58,"start":189.3331,"duration":0.5,"velocity":127,"measure":72,"beat":1.0,"subject_pos":-1,"motif":"","motif_pos":-1,"best_pos":1,"similarity":0.536,"stretto":false,"stretto_voices":0,"combination":[],"aug_dim":"","rhythm_ratio":1.0,"mirror":false,"chromatic_density":0.5,"complexity":0.598,"dissonance":0.151},{"voice":1,"pitch":66,"start":189.8331,"duration":0.1667,"velocity":127,"measure":72,"beat":1.75,"subject_pos":-1,"motif":"","motif_pos":-1,"best_pos":4,"similarity":0.579,"stretto":false,"stretto_voices":0,"combination":[],"aug_dim":"","rhythm_ratio":1.0,"mirror":false,"chromatic_density":0.5,"complexity":0.598,"dissonance":0.151},{"voice":2,"pitch":60,"start":189.8331,"duration":0.1667,"velocity":127,"measure":72,"beat":1.75,"subject_pos":-1,"motif":"","motif_pos":-1,"best_pos":2,"similarity":0.593,"stretto":false,"stretto_voices":0,"combination":[],"aug_dim":"","rhythm_ratio":1.0,"mirror":false,"chromatic_density":0.5,"complexity":0.598,"dissonance":0.151},{"voice":3,"pitch":57,"start":189.8331,"duration":0.1667,"velocity":127,"measure":72,"beat":1.75,"subject_pos":-1,"motif":"","motif_pos":-1,"best_pos":2,"similarity":0.518,"stretto":false,"stretto_voices":0,"combination":[],"aug_dim":"","rhythm_ratio":1.0,"mirror":false,"chromatic_density":0.5,"complexity":0.598,"dissonance":0.151},{"voice":1,"pitch":67,"start":189.9998,"duration":0.5,"velocity":127,"measure":72,"beat":2.0,"subject_pos":-1,"motif":"","motif_pos":-1,"best_pos":5,"similarity":0.75,"stretto":false,"stretto_voices":0,"combination":[],"aug_dim":"","rhythm_ratio":1.0,"mirror":false,"chromatic_density":0.5,"complexity":0.598,"dissonance":0.151},{"voice":2,"pitch":58,"start":189.9998,"duration":0.5,"velocity":127,"measure":72,"beat":2.0,"subject_pos":-1,"motif":"","motif_pos":-1,"best_pos":3,"similarity":0.611,"stretto":false,"stretto_voices":0,"combination":[],"aug_dim":"","rhythm_ratio":1.0,"mirror":false,"chromatic_density":0.5,"complexity":0.598,"dissonance":0.151},{"voice":3,"pitch":55,"start":189.9998,"duration":0.5,"velocity":127,"measure":72,"beat":2.0,"subject_pos":-1,"motif":"","motif_pos":-1,"best_pos":2,"similarity":0.643,"stretto":false,"stretto_voices":0,"combination":[],"aug_dim":"","rhythm_ratio":1.0,"mirror":false,"chromatic_density":0.5,"complexity":0.598,"dissonance":0.151},{"voice":0,"pitch":74,"start":190.4998,"duration":0.1667,"velocity":127,"measure":72,"beat":2.75,"subject_pos":-1,"motif":"","motif_pos":-1,"best_pos":3,"similarity":0.421,"stretto":false,"stretto_voices":0,"combination":[],"aug_dim":"","rhythm_ratio":1.0,"mirror":false,"chromatic_density":0.5,"complexity":0.598,"dissonance":0.151},{"voice":1,"pitch":69,"start":190.4998,"duration":0.1667,"velocity":127,"measure":72,"beat":2.75,"subject_pos":-1,"motif":"","motif_pos":-1,"best_pos":6,"similarity":0.732,"stretto":false,"stretto_voices":0,"combination":[],"aug_dim":"","rhythm_ratio":1.0,"mirror":false,"chromatic_density":0.5,"complexity":0.598,"dissonance":0.151},{"voice":2,"pitch":57,"start":190.4998,"duration":0.1667,"velocity":127,"measure":72,"beat":2.75,"subject_pos":-1,"motif":"","motif_pos":-1,"best_pos":4,"similarity":0.529,"stretto":false,"stretto_voices":0,"combination":[],"aug_dim":"","rhythm_ratio":1.0,"mirror":false,"chromatic_density":0.5,"complexity":0.598,"dissonance":0.151},{"voice":3,"pitch":53,"start":190.4998,"duration":0.1667,"velocity":127,"measure":72,"beat":2.75,"subject_pos":-1,"motif":"","motif_pos":-1,"best_pos":3,"similarity":0.721,"stretto":false,"stretto_voices":0,"combination":[],"aug_dim":"","rhythm_ratio":1.0,"mirror":false,"chromatic_density":0.5,"complexity":0.598,"dissonance":0.151},{"voice":0,"pitch":73,"start":190.6665,"duration":1.0,"velocity":127,"measure":72,"beat":3.0,"subject_pos":-1,"motif":"","motif_pos":-1,"best_pos":4,"similarity":0.407,"stretto":false,"stretto_voices":0,"combination":[],"aug_dim":"","rhythm_ratio":1.0,"mirror":false,"chromatic_density":0.5,"complexity":0.598,"dissonance":0.151},{"voice":1,"pitch":70,"start":190.6665,"duration":1.0,"velocity":127,"measure":72,"beat":3.0,"subject_pos":-1,"motif":"","motif_pos":-1,"best_pos":7,"similarity":0.5,"stretto":false,"stretto_voices":0,"combination":[],"aug_dim":"","rhythm_ratio":1.0,"mirror":false,"chromatic_density":0.5,"complexity":0.598,"dissonance":0.151},{"voice":2,"pitch":55,"start":190.6665,"duration":1.0,"velocity":127,"measure":72,"beat":3.0,"subject_pos":-1,"motif":"","motif_pos":-1,"best_pos":3,"similarity":0.5,"stretto":false,"stretto_voices":0,"combination":[],"aug_dim":"","rhythm_ratio":1.0,"mirror":false,"chromatic_density":0.5,"complexity":0.598,"dissonance":0.151},{"voice":3,"pitch":52,"start":190.6665,"duration":0.5,"velocity":127,"measure":72,"beat":3.0,"subject_pos":-1,"motif":"tail_inv","motif_pos":0,"best_pos":0,"similarity":1.0,"stretto":false,"stretto_voices":0,"combination":[],"aug_dim":"","rhythm_ratio":1.0,"mirror":false,"chromatic_density":0.5,"complexity":0.598,"dissonance":0.151},{"voice":3,"pitch":53,"start":191.1665,"duration":0.1667,"velocity":127,"measure":72,"beat":3.75,"subject_pos":-1,"motif":"tail_inv","motif_pos":1,"best_pos":1,"similarity":1.0,"stretto":false,"stretto_voices":0,"combination":[],"aug_dim":"","rhythm_ratio":1.0,"mirror":false,"chromatic_density":0.5,"complexity":0.598,"dissonance":0.151},{"voice":3,"pitch":52,"start":191.3331,"duration":0.5,"velocity":127,"measure":72,"beat":4.0,"subject_pos":-1,"motif":"tail_inv","motif_pos":2,"best_pos":2,"similarity":1.0,"stretto":false,"stretto_voices":0,"combination":[],"aug_dim":"","rhythm_ratio":1.0,"mirror":false,"chromatic_density":0.5,"complexity":0.598,"dissonance":0.151},{"voice":0,"pitch":76,"start":191.8331,"duration":0.1667,"velocity":127,"measure":72,"beat":4.75,"subject_pos":-1,"motif":"","motif_pos":-1,"best_pos":5,"similarity":0.221,"stretto":false,"stretto_voices":0,"combination":[],"aug_dim":"","rhythm_ratio":1.0,"mirror":false,"chromatic_density":0.5,"complexity":0.598,"dissonance":0.151},{"voice":1,"pitch":70,"start":191.8331,"duration":0.1667,"velocity":127,"measure":72,"beat":4.75,"subject_pos":-1,"motif":"","motif_pos":-1,"best_pos":7,"similarity":0.25,"stretto":false,"stretto_voices":0,"combination":[],"aug_dim":"","rhythm_ratio":1.0,"mirror":false,"chromatic_density":0.5,"complexity":0.598,"dissonance":0.151},{"voice":2,"pitch":55,"start":191.8331,"duration":0.1667,"velocity":127,"measure":72,"beat":4.75,"subject_pos":-1,"motif":"","motif_pos":-1,"best_pos":4,"similarity":0.571,"stretto":false,"stretto_voices":0,"combination":[],"aug_dim":"","rhythm_ratio":1.0,"mirror":false,"chromatic_density":0.5,"complexity":0.598,"dissonance":0.151},{"voice":3,"pitch":50,"start":191.8331,"duration":0.1667,"velocity":127,"measure":72,"beat":4.75,"subject_pos":-1,"motif":"tail_inv","motif_pos":3,"best_pos":3,"similarity":1.0,"stretto":false,"stretto_voices":0,"combination":[],"aug_dim":"","rhythm_ratio":1.0,"mirror":false,"chromatic_density":0.5,"complexity":0.598,"dissonance":0.151},{"voice":0,"pitch":69,"start":191.9998,"duration":0.6667,"velocity":127,"measure":73,"beat":1.0,"subject_pos":-1,"motif":"","motif_pos":-1,"best_pos":0,"similarity":0.3,"stretto":false,"stretto_voices":0,"combination":[],"aug_dim":"","rhythm_ratio":1.0,"mirror":false,"chromatic_density":0.389,"complexity":0.705,"dissonance":0.142},{"voice":1,"pitch":64,"start":191.9998,"duration":0.6667,"velocity":127,"measure":73,"beat":1.0,"subject_pos":-1,"motif":"","motif_pos":-1,"best_pos":5,"similarity":0.221,"stretto":false,"stretto_voices":0,"combination":[],"aug_dim":"","rhythm_ratio":1.0,"mirror":false,"chromatic_density":0.389,"complexity":0.705,"dissonance":0.142},{"voice":2,"pitch":55,"start":191.9998,"duration":0.6667,"velocity":127,"measure":73,"beat":1.0,"subject_pos":-1,"motif":"","motif_pos":-1,"best_pos":5,"similarity":0.607,"stretto":false,"stretto_voices":0,"combination":[],"aug_dim":"","rhythm_ratio":1.0,"mirror":false,"chromatic_density":0.389,"complexity":0.705,"dissonance":0.142},{"voice":3,"pitch":49,"start":191.9998,"duration":0.6667,"velocity":127,"measure":73,"beat":1.0,"subject_pos":-1,"motif":"tail_inv","motif_pos":4,"best_pos":4,"similarity":1.0,"stretto":false,"stretto_voices":0,"combination":[],"aug_dim":"","rhythm_ratio":1.0,"mirror":false,"chromatic_density":0.389,"complexity":0.705,"dissonance":0.142},{"voice":0,"pitch":76,"start":192.9998,"duration":0.0833,"velocity":127,"measure":73,"beat":2.5,"subject_pos":-1,"motif":"","motif_pos":-1,"best_pos":4,"similarity":0.45,"stretto":false,"stretto_voices":0,"combination":[],"aug_dim":"","rhythm_ratio":1.0,"mirror":false,"chromatic_density":0.389,"complexity":0.705,"dissonance":0.142},{"voice":1,"pitch":73,"start":192.9998,"duration":0.3333,"velocity":127,"measure":73,"beat":2.5,"subject_pos":-1,"motif":"","motif_pos":-1,"best_pos":4,"similarity":0.389,"stretto":false,"stretto_voices":0,"combination":[],"aug_dim":"","rhythm_ratio":1.0,"mirror":false,"chromatic_density":0.389,"complexity":0.705,"dissonance":0.142},{"voice":2,"pitch":57,"start":192.9998,"duration":0.3333,"velocity":127,"measure":73,"beat":2.5,"subject_pos":-1,"motif":"","motif_pos":-1,"best_pos":6,"similarity":0.536,"stretto":false,"stretto_voices":0,"combination":[],"aug_dim":"","rhythm_ratio":1.0,"mirror":false,"chromatic_density":0.389,"complexity":0.705,"dissonance":0.142},{"voice":3,"pitch":45,"start":192.9998,"duration":0.3333,"velocity":127,"measure":73,"beat":2.5,"subject_pos":-1,"motif":"","motif_pos":-1,"best_pos":4,"similarity":0.379,"stretto":false,"stretto_voices":0,"combination":[],"aug_dim":"","rhythm_ratio":1.0,"mirror":false,"chromatic_density":0.389,"complexity":0.705,"dissonance":0.142},{"voice":0,"pitch":77,"start":193.0831,"duration":0.0833,"velocity":127,"measure":73,"beat":2.625,"subject_pos":-1,"motif":"","motif_pos":-1,"best_pos":5,"similarity":0.593,"stretto":false,"stretto_voices":0,"combination":[],"aug_dim":"","rhythm_ratio":1.0,"mirror":false,"chromatic_density":0.389,"complexity":0.705,"dissonance":0.142},{"voice":0,"pitch":79,"start":193.1665,"duration":0.1667,"velocity":127,"measure":73,"beat":2.75,"subject_pos":-1,"motif":"","motif_pos":-1,"best_pos":6,"similarity":0.457,"stretto":false,"stretto_voices":0,"combination":[],"aug_dim":"","rhythm_ratio":1.0,"mirror":false,"chromatic_density":0.389,"complexity":0.705,"dissonance":0.142},{"voice":0,"pitch":77,"start":193.3331,"duration":0.1667,"velocity":127,"measure":73,"beat":3.0,"subject_pos":-1,"motif":"","motif_pos":-1,"best_pos":3,"similarity":0.471,"stretto":false,"stretto_voices":0,"combination":[],"aug_dim":"","rhythm_ratio":1.0,"mirror":false,"chromatic_density":0.389,"complexity":0.705,"dissonance":0.142},{"voice":1,"pitch":74,"start":193.3331,"duration":0.3333,"velocity":127,"measure":73,"beat":3.0,"subject_pos":-1,"motif":"","motif_pos":-1,"best_pos":5,"similarity":0.436,"stretto":false,"stretto_voices":0,"combination":[],"aug_dim":"","rhythm_ratio":1.0,"mirror":false,"chromatic_density":0.389,"complexity":0.705,"dissonance":0.142},{"voice":2,"pitch":57,"start":193.3331,"duration":0.3333,"velocity":127,"measure":73,"beat":3.0,"subject_pos":-1,"motif":"","motif_pos":-1,"best_pos":4,"similarity":0.532,"stretto":false,"stretto_voices":0,"combination":[],"aug_dim":"","rhythm_ratio":1.0,"mirror":false,"chromatic_density":0.389,"complexity":0.705,"dissonance":0.142},{"voice":3,"pitch":50,"start":193.3331,"duration":0.5,"velocity":127,"measure":73,"beat":3.0,"subject_pos":-1,"motif":"","motif_pos":-1,"best_pos":5,"similarity":0.489,"stretto":false,"stretto_voices":0,"combination":[],"aug_dim":"","rhythm_ratio":1.0,"mirror":false,"chromatic_density":0.389,"complexity":0.705,"dissonance":0.142},{"voice":0,"pitch":76,"start":193.4998,"duration":0.1667,"velocity":127,"measure":73,"beat":3.25,"subject_pos":-1,"motif":"","motif_pos":-1,"best_pos":2,"similarity":0.5,"stretto":false,"stretto_voices":0,"combination":[],"aug_dim":"","rhythm_ratio":1.0,"mirror":false,"chromatic_density":0.389,"complexity":0.705,"dissonance":0.142},{"voice":0,"pitch":74,"start":193.6665,"duration":0.1667,"velocity":127,"measure":73,"beat":3.5,"subject_pos":-1,"motif":"","motif_pos":-1,"best_pos":3,"similarity":0.714,"stretto":false,"stretto_voices":0,"combination":[],"aug_dim":"","rhythm_ratio":1.0,"mirror":false,"chromatic_density":0.389,"complexity":0.705,"dissonance":0.142},{"voice":0,"pitch":73,"start":193.8331,"duration":0.1667,"velocity":127,"measure":73,"beat":3.75,"subject_pos":-1,"motif":"","motif_pos":-1,"best_pos":4,"similarity":0.829,"stretto":false,"stretto_voices":0,"combination":[],"aug_dim":"","rhythm_ratio":1.0,"mirror":false,"chromatic_density":0.389,"complexity":0.705,"dissonance":0.142},{"voice":3,"pitch":52,"start":193.8331,"duration":0.1667,"velocity":127,"measure":73,"beat":3.75,"subject_pos":-1,"motif":"","motif_pos":-1,"best_pos":6,"similarity":0.593,"stretto":false,"stretto_voices":0,"combination":[],"aug_dim":"","rhythm_ratio":1.0,"mirror":false,"chromatic_density":0.389,"complexity":0.705,"dissonance":0.142},{"voice":0,"pitch":74,"start":193.9998,"duration":1.1667,"velocity":127,"measure":73,"beat":4.0,"subject_pos":-1,"motif":"","motif_pos":-1,"best_pos":5,"similarity":0.764,"stretto":false,"stretto_voices":0,"combination":[],"aug_dim":"","rhythm_ratio":1.0,"mirror":false,"chromatic_density":0.389,"complexity":0.705,"dissonance":0.142},{"voice":3,"pitch":53,"start":193.9998,"duration":0.5,"velocity":127,"measure":73,"beat":4.0,"subject_pos":-1,"motif":"","motif_pos":-1,"best_pos":5,"similarity":0.657,"stretto":false,"stretto_voices":0,"combination":[],"aug_dim":"","rhythm_ratio":1.0,"mirror":false,"chromatic_density":0.389,"complexity":0.705,"dissonance":0.142},{"voice":1,"pitch":64,"start":194.4998,"duration":0.1667,"velocity":127,"measure":73,"beat":4.75,"subject_pos":-1,"motif":"","motif_pos":-1,"best_pos":4,"similarity":0.45,"stretto":false,"stretto_voices":0,"combination":[],"aug_dim":"","rhythm_ratio":1.0,"mirror":false,"chromatic_density":0.389,"complexity":0.705,"dissonance":0.142},{"voice":2,"pitch":58,"start":194.4998,"duration":0.1667,"velocity":127,"measure":73,"beat":4.75,"subject_pos":-1,"motif":"","motif_pos":-1,"best_pos":5,"similarity":0.529,"stretto":false,"stretto_voices":0,"combination":[],"aug_dim":"","rhythm_ratio":1.0,"mirror":false,"chromatic_density":0.389,"complexity":0.705,"dissonance":0.142},{"voice":3,"pitch":55,"start":194.4998,"duration":0.1667,"velocity":127,"measure":73,"beat":4.75,"subject_pos":-1,"motif":"","motif_pos":-1,"best_pos":6,"similarity":0.579,"stretto":false,"stretto_voices":0,"combination":[],"aug_dim":"","rhythm_ratio":1.0,"mirror":false,"chromatic_density":0.389,"complexity":0.705,"dissonance":0.142},{"voice":1,"pitch":65,"start":194.6665,"duration":0.5,"velocity":127,"measure":74,"beat":1.0,"subject_pos":-1,"motif":"","motif_pos":-1,"best_pos":5,"similarity":0.593,"stretto":false,"stretto_voices":0,"combination":[],"aug_dim":"","rhythm_ratio":1.0,"mirror":false,"chromatic_density":0.235,"complexity":0.663,"dissonance":0.106},{"voice":2,"pitch":57,"start":194.6665,"duration":0.5,"velocity":127,"measure":74,"beat":1.0,"subject_pos":-1,"motif":"","motif_pos":-1,"best_pos":4,"similarity":0.654,"stretto":false,"stretto_voices":0,"combination":[],"aug_dim":"","rhythm_ratio":1.0,"mirror":false,"chromatic_density":0.235,"complexity":0.663,"dissonance":0.106},{"voice":3,"pitch":57,"start":194.6665,"duration":0.5,"velocity":127,"measure":74,"beat":1.0,"subject_pos":-1,"motif":"","motif_pos":-1,"best_pos":6,"similarity":0.404,"stretto":false,"stretto_voices":0,"combination":[],"aug_dim":"","rhythm_ratio":1.0,"mirror":false,"chromatic_density":0.235,"complexity":0.663,"dissonance":0.106},{"voice":0,"pitch":76,"start":195.1665,"duration":0.1667,"velocity":127,"measure":74,"beat":1.75,"subject_pos":-1,"motif":"","motif_pos":-1,"best_pos":6,"similarity":0.529,"stretto":false,"stretto_voices":0,"combination":[],"aug_dim":"","rhythm_ratio":1.0,"mirror":false,"chromatic_density":0.235,"complexity":0.663,"dissonance":0.106},{"voice":1,"pitch":67,"start":195.1665,"duration":0.1667,"velocity":127,"measure":74,"beat":1.75,"subject_pos":-1,"motif":"","motif_pos":-1,"best_pos":6,"similarity":0.457,"stretto":false,"stretto_voices":0,"combination":[],"aug_dim":"","rhythm_ratio":1.0,"mirror":false,"chromatic_density":0.235,"complexity":0.663,"dissonance":0.106},{"voice":2,"pitch":58,"start":195.1665,"duration":0.1667,"velocity":127,"measure":74,"beat":1.75,"subject_pos":-1,"motif":"","motif_pos":-1,"best_pos":5,"similarity":0.536,"stretto":false,"stretto_voices":0,"combination":[],"aug_dim":"","rhythm_ratio":1.0,"mirror":false,"chromatic_density":0.235,"complexity":0.663,"dissonance":0.106},{"voice":3,"pitch":55,"start":195.1665,"duration":0.1667,"velocity":127,"measure":74,"beat":1.75,"subject_pos":-1,"motif":"","motif_pos":-1,"best_pos":5,"similarity":0.329,"stretto":false,"stretto_voices":0,"combination":[],"aug_dim":"","rhythm_ratio":1.0,"mirror":false,"chromatic_density":0.235,"complexity":0.663,"dissonance":0.106},{"voice":0,"pitch":73,"start":195.3331,"duration":0.5,"velocity":127,"measure":74,"beat":2.0,"subject_pos":-1,"motif":"","motif_pos":-1,"best_pos":3,"similarity":0.468,"stretto":false,"stretto_voices":0,"combination":[],"aug_dim":"","rhythm_ratio":1.0,"mirror":false,"chromatic_density":0.235,"complexity":0.663,"dissonance":0.106},{"voice":1,"pitch":64,"start":195.3331,"duration":0.5,"velocity":127,"measure":74,"beat":2.0,"subject_pos":-1,"motif":"","motif_pos":-1,"best_pos":3,"similarity":0.425,"stretto":false,"stretto_voices":0,"combination":[],"aug_dim":"","rhythm_ratio":1.0,"mirror":false,"chromatic_density":0.235,"complexity":0.663,"dissonance":0.106},{"voice":2,"pitch":57,"start":195.3331,"duration":0.3333,"velocity":127,"measure":74,"beat":2.0,"subject_pos":-1,"motif":"","motif_pos":-1,"best_pos":4,"similarity":0.5,"stretto":false,"stretto_voices":0,"combination":[],"aug_dim":"","rhythm_ratio":1.0,"mirror":false,"chromatic_density":0.235,"complexity":0.663,"dissonance":0.106},{"voice":3,"pitch":57,"start":195.3331,"duration":0.5,"velocity":127,"measure":74,"beat":2.0,"subject_pos":-1,"motif":"","motif_pos":-1,"best_pos":6,"similarity":0.307,"stretto":false,"stretto_voices":0,"combination":[],"aug_dim":"","rhythm_ratio":1.0,"mirror":false,"chromatic_density":0.235,"complexity":0.663,"dissonance":0.106},{"voice":0,"pitch":74,"start":195.8331,"duration":0.1667,"velocity":127,"measure":74,"beat":2.75,"subject_pos":-1,"motif":"","motif_pos":-1,"best_pos":5,"similarity":0.464,"stretto":false,"stretto_voices":0,"combination":[],"aug_dim":"","rhythm_ratio":1.0,"mirror":false,"chromatic_density":0.235,"complexity":0.663,"dissonance":0.106},{"voice":1,"pitch":67,"start":195.8331,"duration":0.1667,"velocity":127,"measure":74,"beat":2.75,"subject_pos":-1,"motif":"","motif_pos":-1,"best_pos":4,"similarity":0.375,"stretto":false,"stretto_voices":0,"combination":[],"aug_dim":"","rhythm_ratio":1.0,"mirror":false,"chromatic_density":0.235,"complexity":0.663,"dissonance":0.106},{"voice":3,"pitch":45,"start":195.8331,"duration":0.1667,"velocity":127,"measure":74,"beat":2.75,"subject_pos":-1,"motif":"","motif_pos":-1,"best_pos":0,"similarity":0.286,"stretto":false,"stretto_voices":0,"combination":[],"aug_dim":"","rhythm_ratio":1.0,"mirror":false,"chromatic_density":0.235,"complexity":0.663,"dissonance":0.106},{"voice":0,"pitch":74,"start":195.9998,"duration":0.6667,"velocity":127,"measure":74,"beat":3.0,"subject_pos":-1,"motif":"","motif_pos":-1,"best_pos":6,"similarity":0.375,"stretto":false,"stretto_voices":0,"combination":[],"aug_dim":"","rhythm_ratio":1.0,"mirror":false,"chromatic_density":0.235,"complexity":0.663,"dissonance":0.106},{"voice":1,"pitch":67,"start":195.9998,"duration":0.4167,"velocity":127,"measure":74,"beat":3.0,"subject_pos":-1,"motif":"","motif_pos":-1,"best_pos":4,"similarity":0.343,"stretto":false,"stretto_voices":0,"combination":[],"aug_dim":"","rhythm_ratio":1.0,"mirror":false,"chromatic_density":0.235,"complexity":0.663,"dissonance":0.106},{"voice":2,"pitch":57,"start":195.9998,"duration":0.6667,"velocity":127,"measure":74,"beat":3.0,"subject_pos":-1,"motif":"","motif_pos":-1,"best_pos":0,"similarity":0.464,"stretto":false,"stretto_voices":0,"combination":[],"aug_dim":"","rhythm_ratio":1.0,"mirror":false,"chromatic_density":0.235,"complexity":0.663,"dissonance":0.106},{"voice":3,"pitch":50,"start":195.9998,"duration":14.6667,"velocity":127,"measure":74,"beat":3.0,"subject_pos":-1,"motif":"","motif_pos":-1,"best_pos":1,"similarity":0.286,"stretto":false,"stretto_voices":0,"combination":[],"aug_dim":"","rhythm_ratio":1.0,"mirror":false,"chromatic_density":0.235,"complexity":0.663,"dissonance":0.106},{"voice":1,"pitch":67,"start":196.4165,"duration":0.0833,"velocity":127,"measure":74,"beat":3.625,"subject_pos":-1,"motif":"","motif_pos":-1,"best_pos":3,"similarity":0.454,"stretto":false,"stretto_voices":0,"combination":[],"aug_dim":"","rhythm_ratio":1.0,"mirror":false,"chromatic_density":0.235,"complexity":0.663,"dissonance":0.106},{"voice":1,"pitch":66,"start":196.4998,"duration":0.0833,"velocity":127,"measure":74,"beat":3.75,"subject_pos":-1,"motif":"","motif_pos":-1,"best_pos":4,"similarity":0.507,"stretto":false,"stretto_voices":0,"combination":[],"aug_dim":"","rhythm_ratio":1.0,"mirror":false,"chromatic_density":0.235,"complexity":0.663,"dissonance":0.106},{"voice":1,"pitch":64,"start":196.5831,"duration":0.0833,"velocity":127,"measure":74,"beat":3.875,"subject_pos":-1,"motif":"","motif_pos":-1,"best_pos":5,"similarity":0.5,"stretto":false,"stretto_voices":0,"combination":[],"aug_dim":"","rhythm_ratio":1.0,"mirror":false,"chromatic_density":0.235,"complexity":0.663,"dissonance":0.106},{"voice":1,"pitch":66,"start":196.6665,"duration":0.5,"velocity":127,"measure":74,"beat":4.0,"subject_pos":-1,"motif":"","motif_pos":-1,"best_pos":6,"similarity":0.443,"stretto":false,"stretto_voices":0,"combination":[],"aug_dim":"","rhythm_ratio":1.0,"mirror":false,"chromatic_density":0.235,"complexity":0.663,"dissonance":0.106},{"voice":2,"pitch":62,"start":196.6665,"duration":0.5,"velocity":127,"measure":74,"beat":4.0,"subject_pos":-1,"motif":"","motif_pos":-1,"best_pos":1,"similarity":0.714,"stretto":false,"stretto_voices":0,"combination":[],"aug_dim":"","rhythm_ratio":1.0,"mirror":false,"chromatic_density":0.235,"complexity":0.663,"dissonance":0.106},{"voice":1,"pitch":69,"start":197.1665,"duration":0.1667,"velocity":127,"measure":74,"beat":4.75,"subject_pos":-1,"motif":"","motif_pos":-1,"best_pos":6,"similarity":0.25,"stretto":false,"stretto_voices":0,"combination":[],"aug_dim":"","rhythm_ratio":1.0,"mirror":false,"chromatic_density":0.235,"complexity":0.663,"dissonance":0.106},{"voice":2,"pitch":60,"start":197.1665,"duration":0.1667,"velocity":127,"measure":74,"beat":4.75,"subject_pos":-1,"motif":"","motif_pos":-1,"best_pos":2,"similarity":0.721,"stretto":false,"stretto_voices":0,"combination":[],"aug_dim":"","rhythm_ratio":1.0,"mirror":false,"chromatic_density":0.235,"complexity":0.663,"dissonance":0.106},{"voice":1,"pitch":62,"start":197.3331,"duration":0.5,"velocity":127,"measure":75,"beat":1.0,"subject_pos":-1,"motif":"","motif_pos":-1,"best_pos":1,"similarity":0.357,"stretto":false,"stretto_voices":0,"combination":[],"aug_dim":"","rhythm_ratio":1.0,"mirror":false,"chromatic_density":0.375,"complexity":0.629,"dissonance":0.036},{"voice":2,"pitch":58,"start":197.3331,"duration":0.5,"velocity":127,"measure":75,"beat":1.0,"subject_pos":-1,"motif":"","motif_pos":-1,"best_pos":3,"similarity":0.664,"stretto":false,"stretto_voices":0,"combination":[],"aug_dim":"","rhythm_ratio":1.0,"mirror":false,"chromatic_density":0.375,"complexity":0.629,"dissonance":0.036},{"voice":1,"pitch":60,"start":197.8331,"duration":0.1667,"velocity":127,"measure":75,"beat":1.75,"subject_pos":-1,"motif":"","motif_pos":-1,"best_pos":2,"similarity":0.429,"stretto":false,"stretto_voices":0,"combination":[],"aug_dim":"","rhythm_ratio":1.0,"mirror":false,"chromatic_density":0.375,"complexity":0.629,"dissonance":0.036},{"voice":2,"pitch":57,"start":197.8331,"duration":0.1667,"velocity":127,"measure":75,"beat":1.75,"subject_pos":-1,"motif":"","motif_pos":-1,"best_pos":4,"similarity":0.543,"stretto":false,"stretto_voices":0,"combination":[],"aug_dim":"","rhythm_ratio":1.0,"mirror":false,"chromatic_density":0.375,"complexity":0.629,"dissonance":0.036},{"voice":1,"pitch":58,"start":197.9998,"duration":0.5,"velocity":127,"measure":75,"beat":2.0,"subject_pos":-1,"motif":"","motif_pos":-1,"best_pos":0,"similarity":0.321,"stretto":false,"stretto_voices":0,"combination":[],"aug_dim":"","rhythm_ratio":1.0,"mirror":false,"chromatic_density":0.375,"complexity":0.629,"dissonance":0.036},{"voice":2,"pitch":55,"start":197.9998,"duration":0.6667,"velocity":127,"measure":75,"beat":2.0,"subject_pos":-1,"motif":"tail","motif_pos":3,"best_pos":3,"similarity":1.0,"stretto":false,"stretto_voices":0,"combination":[],"aug_dim":"","rhythm_ratio":1.0,"mirror":false,"chromatic_density":0.375,"complexity":0.629,"dissonance":0.036},{"voice":1,"pitch":63,"start":198.4998,"duration":0.1667,"velocity":127,"measure":75,"beat":2.75,"subject_pos":-1,"motif":"","motif_pos":-1,"best_pos":1,"similarity":0.375,"stretto":false,"stretto_voices":0,"combination":[],"aug_dim":"","rhythm_ratio":1.0,"mirror":false,"chromatic_density":0.375,"complexity":0.629,"dissonance":0.036},{"voice":0,"pitch":74,"start":198.6665,"duration":1.3333,"velocity":127,"measure":75,"beat":3.0,"subject_pos":-1,"motif":"","motif_pos":-1,"best_pos":4,"similarity":0.314,"stretto":false,"stretto_voices":0,"combination":[],"aug_dim":"","rhythm_ratio":1.0,"mirror":false,"chromatic_density":0.375,"complexity":0.629,"dissonance":0.036},{"voice":1,"pitch":57,"start":198.6665,"duration":0.4167,"velocity":127,"measure":75,"beat":3.0,"subject_pos":-1,"motif":"","motif_pos":-1,"best_pos":2,"similarity":0.286,"stretto":false,"stretto_voices":0,"combination":[],"aug_dim":"","rhythm_ratio":1.0,"mirror":false,"chromatic_density":0.375,"complexity":0.629,"dissonance":0.036},{"voice":2,"pitch":54,"start":198.6665,"duration":0.6667,"velocity":127,"measure":75,"beat":3.0,"subject_pos":-1,"motif":"tail","motif_pos":4,"best_pos":4,"similarity":1.0,"stretto":false,"stretto_voices":0,"combination":[],"aug_dim":"","rhythm_ratio":1.0,"mirror":false,"chromatic_density":0.375,"complexity":0.629,"dissonance":0.036},{"voice":1,"pitch":69,"start":199.0831,"duration":0.0833,"velocity":127,"measure":75,"beat":3.625,"subject_pos":-1,"motif":"","motif_pos":-1,"best_pos":4,"similarity":0.45,"stretto":false,"stretto_voices":0,"combination":[],"aug_dim":"","rhythm_ratio":1.0,"mirror":false,"chromatic_density":0.375,"complexity":0.629,"dissonance":0.036},{"voice":1,"pitch":70,"start":199.1665,"duration":0.0833,"velocity":127,"measure":75,"beat":3.75,"subject_pos":-1,"motif":"","motif_pos":-1,"best_pos":5,"similarity":0.593,"stretto":false,"stretto_voices":0,"combination":[],"aug_dim":"","rhythm_ratio":1.0,"mirror":false,"chromatic_density":0.375,"complexity":0.629,"dissonance":0.036},{"voice":1,"pitch":72,"start":199.2498,"duration":0.0833,"velocity":127,"measure":75,"beat":3.875,"subject_pos":-1,"motif":"","motif_pos":-1,"best_pos":6,"similarity":0.457,"stretto":false,"stretto_voices":0,"combination":[],"aug_dim":"","rhythm_ratio":1.0,"mirror":false,"chromatic_density":0.375,"complexity":0.629,"dissonance":0.036},{"voice":1,"pitch":70,"start":199.3331,"duration":0.1667,"velocity":127,"measure":75,"beat":4.0,"subject_pos":-1,"motif":"","motif_pos":-1,"best_pos":3,"similarity":0.471,"stretto":false,"stretto_voices":0,"combination":[],"aug_dim":"","rhythm_ratio":1.0,"mirror":false,"chromatic_density":0.375,"complexity":0.629,"dissonance":0.036},{"voice":2,"pitch":55,"start":199.3331,"duration":0.5,"velocity":127,"measure":75,"beat":4.0,"subject_pos":-1,"motif":"tail","motif_pos":5,"best_pos":5,"similarity":1.0,"stretto":false,"stretto_voices":0,"combination":[],"aug_dim":"","rhythm_ratio":1.0,"mirror":false,"chromatic_density":0.375,"complexity":0.629,"dissonance":0.036},{"voice":1,"pitch":69,"start":199.4998,"duration":0.1667,"velocity":127,"measure":75,"beat":4.25,"subject_pos":-1,"motif":"","motif_pos":-1,"best_pos":2,"similarity":0.5,"stretto":false,"stretto_voices":0,"combination":[],"aug_dim":"","rhythm_ratio":1.0,"mirror":false,"chromatic_density":0.375,"complexity":0.629,"dissonance":0.036},{"voice":1,"pitch":67,"start":199.6665,"duration":0.1667,"velocity":127,"measure":75,"beat":4.5,"subject_pos":-1,"motif":"","motif_pos":-1,"best_pos":3,"similarity":0.643,"stretto":false,"stretto_voices":0,"combination":[],"aug_dim":"","rhythm_ratio":1.0,"mirror":false,"chromatic_density":0.375,"complexity":0.629,"dissonance":0.036},{"voice":1,"pitch":66,"start":199.8331,"duration":0.1667,"velocity":127,"measure":75,"beat":4.75,"subject_pos":-1,"motif":"enigmatic_cell","motif_pos":0,"best_pos":0,"similarity":1.0,"stretto":false,"stretto_voices":0,"combination":[],"aug_dim":"","rhythm_ratio":1.0,"mirror":false,"chromatic_density":0.375,"complexity":0.629,"dissonance":0.036},{"voice":2,"pitch":57,"start":199.8331,"duration":0.1667,"velocity":127,"measure":75,"beat":4.75,"subject_pos":-1,"motif":"tail","motif_pos":6,"best_pos":6,"similarity":1.0,"stretto":false,"stretto_voices":0,"combination":[],"aug_dim":"","rhythm_ratio":1.0,"mirror":false,"chromatic_density":0.375,"complexity":0.629,"dissonance":0.036},{"voice":0,"pitch":67,"start":199.9998,"duration":1.0,"velocity":127,"measure":76,"beat":1.0,"subject_pos":-1,"motif":"","motif_pos":-1,"best_pos":5,"similarity":0.379,"stretto":false,"stretto_voices":0,"combination":[],"aug_dim":"","rhythm_ratio":1.0,"mirror":false,"chromatic_density":0.176,"complexity":0.666,"dissonance":0.124},{"voice":1,"pitch":67,"start":199.9998,"duration":0.5,"velocity":127,"measure":76,"beat":1.0,"subject_pos":-1,"motif":"enigmatic_cell","motif_pos":1,"best_pos":1,"similarity":1.0,"stretto":false,"stretto_voices":0,"combination":[],"aug_dim":"","rhythm_ratio":1.0,"mirror":false,"chromatic_density":0.176,"complexity":0.666,"dissonance":0.124},{"voice":2,"pitch":58,"start":199.9998,"duration":0.8333,"velocity":127,"measure":76,"beat":1.0,"subject_pos":-1,"motif":"tail","motif_pos":7,"best_pos":7,"similarity":1.0,"stretto":false,"stretto_voices":0,"combination":[],"aug_dim":"","rhythm_ratio":1.0,"mirror":false,"chromatic_density":0.176,"complexity":0.666,"dissonance":0.124},{"voice":1,"pitch":62,"start":200.4998,"duration":0.1667,"velocity":127,"measure":76,"beat":1.75,"subject_pos":-1,"motif":"enigmatic_cell","motif_pos":2,"best_pos":2,"similarity":1.0,"stretto":false,"stretto_voices":0,"combination":[],"aug_dim":"","rhythm_ratio":1.0,"mirror":false,"chromatic_density":0.176,"complexity":0.666,"dissonance":0.124},{"voice":1,"pitch":64,"start":200.6665,"duration":0.5,"velocity":127,"measure":76,"beat":2.0,"subject_pos":-1,"motif":"","motif_pos":-1,"best_pos":5,"similarity":0.593,"stretto":false,"stretto_voices":0,"combination":[],"aug_dim":"","rhythm_ratio":1.0,"mirror":false,"chromatic_density":0.176,"complexity":0.666,"dissonance":0.124},{"voice":2,"pitch":60,"start":200.8331,"duration":0.1667,"velocity":127,"measure":76,"beat":2.25,"subject_pos":-1,"motif":"","motif_pos":-1,"best_pos":6,"similarity":0.464,"stretto":false,"stretto_voices":0,"combination":[],"aug_dim":"","rhythm_ratio":1.0,"mirror":false,"chromatic_density":0.176,"complexity":0.666,"dissonance":0.124},{"voice":0,"pitch":69,"start":200.9998,"duration":0.3333,"velocity":127,"measure":76,"beat":2.5,"subject_pos":-1,"motif":"","motif_pos":-1,"best_pos":0,"similarity":0.429,"stretto":false,"stretto_voices":0,"combination":[],"aug_dim":"","rhythm_ratio":1.0,"mirror":false,"chromatic_density":0.176,"complexity":0.666,"dissonance":0.124},{"voice":2,"pitch":58,"start":200.9998,"duration":0.1667,"velocity":127,"measure":76,"beat":2.5,"subject_pos":-1,"motif":"","motif_pos":-1,"best_pos":3,"similarity":0.536,"stretto":false,"stretto_voices":0,"combination":[],"aug_dim":"","rhythm_ratio":1.0,"mirror":false,"chromatic_density":0.176,"complexity":0.666,"dissonance":0.124},{"voice":1,"pitch":66,"start":201.1665,"duration":0.1667,"velocity":127,"measure":76,"beat":2.75,"subject_pos":-1,"motif":"","motif_pos":-1,"best_pos":6,"similarity":0.65,"stretto":false,"stretto_voices":0,"combination":[],"aug_dim":"","rhythm_ratio":1.0,"mirror":false,"chromatic_density":0.176,"complexity":0.666,"dissonance":0.124},{"voice":2,"pitch":57,"start":201.1665,"duration":0.1667,"velocity":127,"measure":76,"beat":2.75,"subject_pos":-1,"motif":"","motif_pos":-1,"best_pos":4,"similarity":0.607,"stretto":false,"stretto_voices":0,"combination":[],"aug_dim":"","rhythm_ratio":1.0,"mirror":false,"chromatic_density":0.176,"complexity":0.666,"dissonance":0.124},{"voice":0,"pitch":70,"start":201.3331,"duration":1.0,"velocity":127,"measure":76,"beat":3.0,"subject_pos":-1,"motif":"","motif_pos":-1,"best_pos":2,"similarity":0.429,"stretto":false,"stretto_voices":0,"combination":[],"aug_dim":"","rhythm_ratio":1.0,"mirror":false,"chromatic_density":0.176,"complexity":0.666,"dissonance":0.124},{"voice":1,"pitch":67,"start":201.3331,"duration":0.6667,"velocity":127,"measure":76,"beat":3.0,"subject_pos":0,"motif":"subject","motif_pos":0,"best_pos":0,"similarity":1.0,"stretto":false,"stretto_voices":0,"combination":[],"aug_dim":"","rhythm_ratio":1.0,"mirror":false,"chromatic_density":0.176,"complexity":0.666,"dissonance":0.124},{"voice":2,"pitch":55,"start":201.3331,"duration":1.0,"velocity":127,"measure":76,"beat":3.0,"subject_pos":-1,"motif":"","motif_pos":-1,"best_pos":5,"similarity":0.636,"stretto":false,"stretto_voices":0,"combination":[],"aug_dim":"","rhythm_ratio":1.0,"mirror":false,"chromatic_density":0.176,"complexity":0.666,"dissonance":0.124},{"voice":0,"pitch":74,"start":201.8331,"duration":0.1667,"velocity":127,"measure":76,"beat":3.75,"subject_pos":-1,"motif":"","motif_pos":-1,"best_pos":1,"similarity":0.571,"stretto":false,"stretto_voices":0,"combination":[],"aug_dim":"","rhythm_ratio":1.0,"mirror":false,"chromatic_density":0.176,"complexity":0.666,"dissonance":0.124},{"voice":0,"pitch":79,"start":201.9998,"duration":0.5,"velocity":127,"measure":76,"beat":4.0,"subject_pos":-1,"motif":"","motif_pos":-1,"best_pos":3,"similarity":0.25,"stretto":false,"stretto_voices":0,"combination":[],"aug_dim":"","rhythm_ratio":1.0,"mirror":false,"chromatic_density":0.176,"complexity":0.666,"dissonance":0.124},{"voice":1,"pitch":74,"start":201.9998,"duration":0.5,"velocity":127,"measure":76,"beat":4.0,"subject_pos":1,"motif":"subject","motif_pos":1,"best_pos":1,"similarity":1.0,"stretto":false,"stretto_voices":0,"combination":[],"aug_dim":"","rhythm_ratio":1.0,"mirror":false,"chromatic_density":0.176,"complexity":0.666,"dissonance":0.124},{"voice":0,"pitch":72,"start":202.3331,"duration":0.3333,"velocity":127,"measure":76,"beat":4.5,"subject_pos":-1,"motif":"","motif_pos":-1,"best_pos":3,"similarity":0.243,"stretto":false,"stretto_voices":0,"combination":[],"aug_dim":"","rhythm_ratio":1.0,"mirror":false,"chromatic_density":0.176,"complexity":0.666,"dissonance":0.124},{"voice":2,"pitch":57,"start":202.3331,"duration":0.3333,"velocity":127,"measure":76,"beat":4.5,"subject_pos":-1,"motif":"","motif_pos":-1,"best_pos":6,"similarity":0.657,"stretto":false,"stretto_voices":0,"combination":[],"aug_dim":"","rhythm_ratio":1.0,"mirror":false,"chromatic_density":0.176,"complexity":0.666,"dissonance":0.124},{"voice":0,"pitch":78,"start":202.4998,"duration":0.1667,"velocity":127,"measure":76,"beat":4.75,"subject_pos":-1,"motif":"","motif_pos":-1,"best_pos":4,"similarity":0.514,"stretto":false,"stretto_voices":0,"combination":[],"aug_dim":"","rhythm_ratio":1.0,"mirror":false,"chromatic_density":0.176,"complexity":0.666,"dissonance":0.124},{"voice":1,"pitch":72,"start":202.4998,"duration":0.1667,"velocity":127,"measure":76,"beat":4.75,"subject_pos":2,"motif":"subject","motif_pos":2,"best_pos":2,"similarity":1.0,"stretto":false,"stretto_voices":0,"combination":[],"aug_dim":"","rhythm_ratio":1.0,"mirror":false,"chromatic_density":0.176,"complexity":0.666,"dissonance":0.124},{"voice":0,"pitch":79,"start":202.6665,"duration":0.5,"velocity":127,"measure":77,"beat":1.0,"subject_pos":-1,"motif":"","motif_pos":-1,"best_pos":5,"similarity":0.721,"stretto":false,"stretto_voices":0,"combination":[],"aug_dim":"","rhythm_ratio":1.0,"mirror":false,"chromatic_density":0.292,"complexity":0.687,"dissonance":0.142},{"voice":0,"pitch":74,"start":202.6665,"duration":1.3333,"velocity":127,"measure":77,"beat":1.0,"subject_pos":-1,"motif":"","motif_pos":-1,"best_pos":0,"similarity":0.307,"stretto":false,"stretto_voices":0,"combination":[],"aug_dim":"","rhythm_ratio":1.0,"mirror":false,"chromatic_density":0.292,"complexity":0.687,"dissonance":0.142},{"voice":1,"pitch":70,"start":202.6665,"duration":0.5,"velocity":127,"measure":77,"beat":1.0,"subject_pos":3,"motif":"subject","motif_pos":3,"best_pos":3,"similarity":1.0,"stretto":false,"stretto_voices":0,"combination":[],"aug_dim":"","rhythm_ratio":1.0,"mirror":false,"chromatic_density":0.292,"complexity":0.687,"dissonance":0.142},{"voice":2,"pitch":58,"start":202.6665,"duration":0.5,"velocity":127,"measure":77,"beat":1.0,"subject_pos":-1,"motif":"","motif_pos":-1,"best_pos":5,"similarity":0.693,"stretto":false,"stretto_voices":0,"combination":[],"aug_dim":"","rhythm_ratio":1.0,"mirror":false,"chromatic_density":0.292,"complexity":0.687,"dissonance":0.142},{"voice":0,"pitch":81,"start":203.1665,"duration":0.1667,"velocity":127,"measure":77,"beat":1.75,"subject_pos":-1,"motif":"","motif_pos":-1,"best_pos":6,"similarity":0.714,"stretto":false,"stretto_voices":0,"combination":[],"aug_dim":"","rhythm_ratio":1.0,"mirror":false,"chromatic_density":0.292,"complexity":0.687,"dissonance":0.142},{"voice":1,"pitch":69,"start":203.1665,"duration":0.1667,"velocity":127,"measure":77,"beat":1.75,"subject_pos":4,"motif":"subject","motif_pos":4,"best_pos":4,"similarity":1.0,"stretto":false,"stretto_voices":0,"combination":[],"aug_dim":"","rhythm_ratio":1.0,"mirror":false,"chromatic_density":0.292,"complexity":0.687,"dissonance":0.142},{"voice":2,"pitch":60,"start":203.1665,"duration":0.1667,"velocity":127,"measure":77,"beat":1.75,"subject_pos":-1,"motif":"","motif_pos":-1,"best_pos":6,"similarity":0.579,"stretto":false,"stretto_voices":0,"combination":[],"aug_dim":"","rhythm_ratio":1.0,"mirror":false,"chromatic_density":0.292,"complexity":0.687,"dissonance":0.142},{"voice":0,"pitch":82,"start":203.3331,"duration":0.5,"velocity":127,"measure":77,"beat":2.0,"subject_pos":-1,"motif":"","motif_pos":-1,"best_pos":7,"similarity":0.5,"stretto":false,"stretto_voices":0,"combination":[],"aug_dim":"","rhythm_ratio":1.0,"mirror":false,"chromatic_density":0.292,"complexity":0.687,"dissonance":0.142},{"voice":1,"pitch":67,"start":203.3331,"duration":0.6667,"velocity":127,"measure":77,"beat":2.0,"subject_pos":5,"motif":"subject","motif_pos":5,"best_pos":5,"similarity":1.0,"stretto":false,"stretto_voices":0,"combination":[],"aug_dim":"","rhythm_ratio":1.0,"mirror":false,"chromatic_density":0.292,"complexity":0.687,"dissonance":0.142},{"voice":2,"pitch":62,"start":203.3331,"duration":0.5,"velocity":127,"measure":77,"beat":2.0,"subject_pos":-1,"motif":"","motif_pos":-1,"best_pos":6,"similarity":0.375,"stretto":false,"stretto_voices":0,"combination":[],"aug_dim":"","rhythm_ratio":1.0,"mirror":false,"chromatic_density":0.292,"complexity":0.687,"dissonance":0.142},{"voice":0,"pitch":79,"start":203.8331,"duration":0.1667,"velocity":127,"measure":77,"beat":2.75,"subject_pos":-1,"motif":"","motif_pos":-1,"best_pos":5,"similarity":0.464,"stretto":false,"stretto_voices":0,"combination":[],"aug_dim":"","rhythm_ratio":1.0,"mirror":false,"chromatic_density":0.292,"complexity":0.687,"dissonance":0.142},{"voice":2,"pitch":58,"start":203.8331,"duration":0.1667,"velocity":127,"measure":77,"beat":2.75,"subject_pos":-1,"motif":"","motif_pos":-1,"best_pos":2,"similarity":0.407,"stretto":false,"stretto_voices":0,"combination":[],"aug_dim":"","rhythm_ratio":1.0,"mirror":false,"chromatic_density":0.292,"complexity":0.687,"dissonance":0.142},{"voice":0,"pitch":81,"start":203.9998,"duration":0.5,"velocity":127,"measure":77,"beat":3.0,"subject_pos":-1,"motif":"","motif_pos":-1,"best_pos":6,"similarity":0.586,"stretto":false,"stretto_voices":0,"combination":[],"aug_dim":"","rhythm_ratio":1.0,"mirror":false,"chromatic_density":0.292,"complexity":0.687,"dissonance":0.142},{"voice":0,"pitch":75,"start":203.9998,"duration":1.3333,"velocity":127,"measure":77,"beat":3.0,"subject_pos":-1,"motif":"","motif_pos":-1,"best_pos":3,"similarity":0.321,"stretto":false,"stretto_voices":0,"combination":[],"aug_dim":"","rhythm_ratio":1.0,"mirror":false,"chromatic_density":0.292,"complexity":0.687,"dissonance":0.142},{"voice":1,"pitch":66,"start":203.9998,"duration":0.6667,"velocity":127,"measure":77,"beat":3.0,"subject_pos":6,"motif":"subject","motif_pos":6,"best_pos":6,"similarity":1.0,"stretto":false,"stretto_voices":0,"combination":[],"aug_dim":"","rhythm_ratio":1.0,"mirror":false,"chromatic_density":0.292,"complexity":0.687,"dissonance":0.142},{"voice":2,"pitch":60,"start":203.9998,"duration":0.5,"velocity":127,"measure":77,"beat":3.0,"subject_pos":-1,"motif":"","motif_pos":-1,"best_pos":3,"similarity":0.436,"stretto":false,"stretto_voices":0,"combination":[],"aug_dim":"","rhythm_ratio":1.0,"mirror":false,"chromatic_density":0.292,"complexity":0.687,"dissonance":0.142},{"voice":0,"pitch":82,"start":204.4998,"duration":0.0833,"velocity":127,"measure":77,"beat":3.75,"subject_pos":-1,"motif":"","motif_pos":-1,"best_pos":5,"similarity":0.6,"stretto":false,"stretto_voices":0,"combination":[],"aug_dim":"","rhythm_ratio":1.0,"mirror":false,"chromatic_density":0.292,"complexity":0.687,"dissonance":0.142},{"voice":2,"pitch":57,"start":204.4998,"duration":0.1667,"velocity":127,"measure":77,"beat":3.75,"subject_pos":-1,"motif":"","motif_pos":-1,"best_pos":4,"similarity":0.607,"stretto":false,"stretto_voices":0,"combination":[],"aug_dim":"","rhythm_ratio":1.0,"mirror":false,"chromatic_density":0.292,"complexity":0.687,"dissonance":0.142},{"voice":0,"pitch":84,"start":204.5831,"duration":0.0833,"velocity":127,"measure":77,"beat":3.875,"subject_pos":-1,"motif":"","motif_pos":-1,"best_pos":6,"similarity":0.464,"stretto":false,"stretto_voices":0,"combination":[],"aug_dim":"","rhythm_ratio":1.0,"mirror":false,"chromatic_density":0.292,"complexity":0.687,"dissonance":0.142},{"voice":0,"pitch":82,"start":204.6665,"duration":0.1667,"velocity":127,"measure":77,"beat":4.0,"subject_pos":-1,"motif":"","motif_pos":-1,"best_pos":3,"similarity":0.464,"stretto":false,"stretto_voices":0,"combination":[],"aug_dim":"","rhythm_ratio":1.0,"mirror":false,"chromatic_density":0.292,"complexity":0.687,"dissonance":0.142},{"voice":1,"pitch":67,"start":204.6665,"duration":0.5,"velocity":127,"measure":77,"beat":4.0,"subject_pos":7,"motif":"subject","motif_pos":7,"best_pos":7,"similarity":1.0,"stretto":false,"stretto_voices":0,"combination":[],"aug_dim":"","rhythm_ratio":1.0,"mirror":false,"chromatic_density":0.292,"complexity":0.687,"dissonance":0.142},{"voice":2,"pitch":58,"start":204.6665,"duration":0.5,"velocity":127,"measure":77,"beat":4.0,"subject_pos":-1,"motif":"","motif_pos":-1,"best_pos":5,"similarity":0.679,"stretto":false,"stretto_voices":0,"combination":[],"aug_dim":"","rhythm_ratio":1.0,"mirror":false,"chromatic_density":0.292,"complexity":0.687,"dissonance":0.142},{"voice":0,"pitch":81,"start":204.8331,"duration":0.1667,"velocity":127,"measure":77,"beat":4.25,"subject_pos":-1,"motif":"","motif_pos":-1,"best_pos":4,"similarity":0.411,"stretto":false,"stretto_voices":0,"combination":[],"aug_dim":"","rhythm_ratio":1.0,"mirror":false,"chromatic_density":0.292,"complexity":0.687,"dissonance":0.142},{"voice":0,"pitch":79,"start":204.9998,"duration":0.1667,"velocity":127,"measure":77,"beat":4.5,"subject_pos":-1,"motif":"","motif_pos":-1,"best_pos":2,"similarity":0.443,"stretto":false,"stretto_voices":0,"combination":[],"aug_dim":"","rhythm_ratio":1.0,"mirror":false,"chromatic_density":0.292,"complexity":0.687,"dissonance":0.142},{"voice":0,"pitch":78,"start":205.1665,"duration":0.1667,"velocity":127,"measure":77,"beat":4.75,"subject_pos":-1,"motif":"","motif_pos":-1,"best_pos":1,"similarity":0.429,"stretto":false,"stretto_voices":0,"combination":[],"aug_dim":"","rhythm_ratio":1.0,"mirror":false,"chromatic_density":0.292,"complexity":0.687,"dissonance":0.142},{"voice":1,"pitch":69,"start":205.1665,"duration":0.1667,"velocity":127,"measure":77,"beat":4.75,"subject_pos":8,"motif":"subject","motif_pos":8,"best_pos":0,"similarity":1.0,"stretto":false,"stretto_voices":0,"combination":[],"aug_dim":"","rhythm_ratio":1.0,"mirror":false,"chromatic_density":0.292,"complexity":0.687,"dissonance":0.142},{"voice":2,"pitch":60,"start":205.1665,"duration":0.1667,"velocity":127,"measure":77,"beat":4.75,"subject_pos":-1,"motif":"","motif_pos":-1,"best_pos":6,"similarity":0.589,"stretto":false,"stretto_voices":0,"combination":[],"aug_dim":"","rhythm_ratio":1.0,"mirror":false,"chromatic_density":0.292,"complexity":0.687,"dissonance":0.142},{"voice":0,"pitch":74,"start":205.3331,"duration":1.0,"velocity":127,"measure":78,"beat":1.0,"subject_pos":-1,"motif":"","motif_pos":-1,"best_pos":2,"similarity":0.464,"stretto":false,"stretto_voices":0,"combination":[],"aug_dim":"","rhythm_ratio":1.0,"mirror":false,"chromatic_density":0.238,"complexity":0.595,"dissonance":0.067},{"voice":0,"pitch":79,"start":205.3331,"duration":3.1667,"velocity":127,"measure":78,"beat":1.0,"subject_pos":-1,"motif":"","motif_pos":-1,"best_pos":1,"similarity":0.321,"stretto":false,"stretto_voices":0,"combination":[],"aug_dim":"","rhythm_ratio":1.0,"mirror":false,"chromatic_density":0.238,"complexity":0.595,"dissonance":0.067},{"voice":1,"pitch":70,"start":205.3331,"duration":0.8333,"velocity":127,"measure":78,"beat":1.0,"subject_pos":-1,"motif":"","motif_pos":-1,"best_pos":5,"similarity":0.607,"stretto":false,"stretto_voices":0,"combination":[],"aug_dim":"","rhythm_ratio":1.0,"mirror":false,"chromatic_density":0.238,"complexity":0.595,"dissonance":0.067},{"voice":2,"pitch":62,"start":205.3331,"duration":0.4167,"velocity":127,"measure":78,"beat":1.0,"subject_pos":-1,"motif":"","motif_pos":-1,"best_pos":6,"similarity":0.375,"stretto":false,"stretto_voices":0,"combination":[],"aug_dim":"","rhythm_ratio":1.0,"mirror":false,"chromatic_density":0.238,"complexity":0.595,"dissonance":0.067},{"voice":2,"pitch":50,"start":205.7498,"duration":0.0833,"velocity":127,"measure":78,"beat":1.625,"subject_pos":-1,"motif":"","motif_pos":-1,"best_pos":5,"similarity":0.371,"stretto":false,"stretto_voices":0,"combination":[],"aug_dim":"","rhythm_ratio":1.0,"mirror":false,"chromatic_density":0.238,"complexity":0.595,"dissonance":0.067},{"voice":2,"pitch":52,"start":205.8331,"duration":0.0833,"velocity":127,"measure":78,"beat":1.75,"subject_pos":-1,"motif":"","motif_pos":-1,"best_pos":5,"similarity":0.571,"stretto":false,"stretto_voices":0,"combination":[],"aug_dim":"","rhythm_ratio":1.0,"mirror":false,"chromatic_density":0.238,"complexity":0.595,"dissonance":0.067},{"voice":2,"pitch":54,"start":205.9165,"duration":0.0833,"velocity":127,"measure":78,"beat":1.875,"subject_pos":-1,"motif":"","motif_pos":-1,"best_pos":6,"similarity":0.643,"stretto":false,"stretto_voices":0,"combination":[],"aug_dim":"","rhythm_ratio":1.0,"mirror":false,"chromatic_density":0.238,"complexity":0.595,"dissonance":0.067},{"voice":2,"pitch":55,"start":205.9998,"duration":0.5,"velocity":127,"measure":78,"beat":2.0,"subject_pos":-1,"motif":"","motif_pos":-1,"best_pos":5,"similarity":0.729,"stretto":false,"stretto_voices":0,"combination":[],"aug_dim":"","rhythm_ratio":1.0,"mirror":false,"chromatic_density":0.238,"complexity":0.595,"dissonance":0.067},{"voice":1,"pitch":72,"start":206.1665,"duration":0.1667,"velocity":127,"measure":78,"beat":2.25,"subject_pos":-1,"motif":"","motif_pos":-1,"best_pos":6,"similarity":0.464,"stretto":false,"stretto_voices":0,"combination":[],"aug_dim":"","rhythm_ratio":1.0,"mirror":false,"chromatic_density":0.238,"complexity":0.595,"dissonance":0.067},{"voice":0,"pitch":72,"start":206.3331,"duration":0.3333,"velocity":127,"measure":78,"beat":2.5,"subject_pos":-1,"motif":"","motif_pos":-1,"best_pos":3,"similarity":0.311,"stretto":false,"stretto_voices":0,"combination":[],"aug_dim":"","rhythm_ratio":1.0,"mirror":false,"chromatic_density":0.238,"complexity":0.595,"dissonance":0.067},{"voice":1,"pitch":70,"start":206.3331,"duration":0.1667,"velocity":127,"measure":78,"beat":2.5,"subject_pos":-1,"motif":"","motif_pos":-1,"best_pos":3,"similarity":0.536,"stretto":false,"stretto_voices":0,"combination":[],"aug_dim":"","rhythm_ratio":1.0,"mirror":false,"chromatic_density":0.238,"complexity":0.595,"dissonance":0.067},{"voice":1,"pitch":69,"start":206.4998,"duration":0.1667,"velocity":127,"measure":78,"beat":2.75,"subject_pos":-1,"motif":"","motif_pos":-1,"best_pos":4,"similarity":0.543,"stretto":false,"stretto_voices":0,"combination":[],"aug_dim":"","rhythm_ratio":1.0,"mirror":false,"chromatic_density":0.238,"complexity":0.595,"dissonance":0.067},{"voice":2,"pitch":57,"start":206.4998,"duration":0.1667,"velocity":127,"measure":78,"beat":2.75,"subject_pos":-1,"motif":"","motif_pos":-1,"best_pos":6,"similarity":0.721,"stretto":false,"stretto_voices":0,"combination":[],"aug_dim":"","rhythm_ratio":1.0,"mirror":false,"chromatic_density":0.238,"complexity":0.595,"dissonance":0.067},{"voice":0,"pitch":70,"start":206.6665,"duration":1.8333,"velocity":127,"measure":78,"beat":3.0,"subject_pos":-1,"motif":"","motif_pos":-1,"best_pos":3,"similarity":0.286,"stretto":false,"stretto_voices":0,"combination":[],"aug_dim":"","rhythm_ratio":1.0,"mirror":false,"chromatic_density":0.238,"complexity":0.595,"dissonance":0.067},{"voice":1,"pitch":67,"start":206.6665,"duration":0.8333,"velocity":127,"measure":78,"beat":3.0,"subject_pos":-1,"motif":"","motif_pos":-1,"best_pos":5,"similarity":0.507,"stretto":false,"stretto_voices":0,"combination":[],"aug_dim":"","rhythm_ratio":1.0,"mirror":false,"chromatic_density":0.238,"complexity":0.595,"dissonance":0.067},{"voice":2,"pitch":58,"start":206.6665,"duration":0.5,"velocity":127,"measure":78,"beat":3.0,"subject_pos":-1,"motif":"","motif_pos":-1,"best_pos":5,"similarity":0.664,"stretto":false,"stretto_voices":0,"combination":[],"aug_dim":"","rhythm_ratio":1.0,"mirror":false,"chromatic_density":0.238,"complexity":0.595,"dissonance":0.067},{"voice":2,"pitch":60,"start":207.1665,"duration":0.1667,"velocity":127,"measure":78,"beat":3.75,"subject_pos":-1,"motif":"","motif_pos":-1,"best_pos":6,"similarity":0.579,"stretto":false,"stretto_voices":0,"combination":[],"aug_dim":"","rhythm_ratio":1.0,"mirror":false,"chromatic_density":0.238,"complexity":0.595,"dissonance":0.067},{"voice":2,"pitch":62,"start":207.3331,"duration":0.1667,"velocity":127,"measure":78,"beat":4.0,"subject_pos":-1,"motif":"","motif_pos":-1,"best_pos":1,"similarity":0.457,"stretto":false,"stretto_voices":0,"combination":[],"aug_dim":"","rhythm_ratio":1.0,"mirror":false,"chromatic_density":0.238,"complexity":0.595,"dissonance":0.067},{"voice":1,"pitch":69,"start":207.4998,"duration":0.1667,"velocity":127,"measure":78,"beat":4.25,"subject_pos":-1,"motif":"","motif_pos":-1,"best_pos":6,"similarity":0.4,"stretto":false,"stretto_voices":0,"combination":[],"aug_dim":"","rhythm_ratio":1.0,"mirror":false,"chromatic_density":0.238,"complexity":0.595,"dissonance":0.067},{"voice":2,"pitch":60,"start":207.4998,"duration":0.1667,"velocity":127,"measure":78,"beat":4.25,"subject_pos":-1,"motif":"","motif_pos":-1,"best_pos":2,"similarity":0.593,"stretto":false,"stretto_voices":0,"combination":[],"aug_dim":"","rhythm_ratio":1.0,"mirror":false,"chromatic_density":0.238,"complexity":0.595,"dissonance":0.067},{"voice":1,"pitch":67,"start":207.6665,"duration":0.1667,"velocity":127,"measure":78,"beat":4.5,"subject_pos":-1,"motif":"","motif_pos":-1,"best_pos":3,"similarity":0.493,"stretto":false,"stretto_voices":0,"combination":[],"aug_dim":"","rhythm_ratio":1.0,"mirror":false,"chromatic_density":0.238,"complexity":0.595,"dissonance":0.067},{"voice":2,"pitch":58,"start":207.6665,"duration":0.1667,"velocity":127,"measure":78,"beat":4.5,"subject_pos":-1,"motif":"","motif_pos":-1,"best_pos":3,"similarity":0.593,"stretto":false,"stretto_voices":0,"combination":[],"aug_dim":"","rhythm_ratio":1.0,"mirror":false,"chromatic_density":0.238,"complexity":0.595,"dissonance":0.067},{"voice":1,"pitch":66,"start":207.8331,"duration":0.1667,"velocity":127,"measure":78,"beat":4.75,"subject_pos":-1,"motif":"","motif_pos":-1,"best_pos":4,"similarity":0.5,"stretto":false,"stretto_voices":0,"combination":[],"aug_dim":"","rhythm_ratio":1.0,"mirror":false,"chromatic_density":0.238,"complexity":0.595,"dissonance":0.067},{"voice":2,"pitch":57,"start":207.8331,"duration":0.1667,"velocity":127,"measure":78,"beat":4.75,"subject_pos":-1,"motif":"","motif_pos":-1,"best_pos":4,"similarity":0.457,"stretto":false,"stretto_voices":0,"combination":[],"aug_dim":"","rhythm_ratio":1.0,"mirror":false,"chromatic_density":0.238,"complexity":0.595,"dissonance":0.067},{"voice":1,"pitch":64,"start":207.9998,"duration":0.3333,"velocity":127,"measure":79,"beat":1.0,"subject_pos":-1,"motif":"","motif_pos":-1,"best_pos":4,"similarity":0.464,"stretto":false,"stretto_voices":0,"combination":[],"aug_dim":"","rhythm_ratio":1.0,"mirror":false,"chromatic_density":0.0,"complexity":0.55,"dissonance":0.229},{"voice":2,"pitch":55,"start":207.9998,"duration":0.3333,"velocity":127,"measure":79,"beat":1.0,"subject_pos":-1,"motif":"","motif_pos":-1,"best_pos":2,"similarity":0.293,"stretto":false,"stretto_voices":0,"combination":[],"aug_dim":"","rhythm_ratio":1.0,"mirror":false,"chromatic_density":0.0,"complexity":0.55,"dissonance":0.229},{"voice":0,"pitch":69,"start":208.4998,"duration":0.1667,"velocity":127,"measure":79,"beat":1.75,"subject_pos":-1,"motif":"","motif_pos":-1,"best_pos":4,"similarity":0.286,"stretto":false,"stretto_voices":0,"combination":[],"aug_dim":"","rhythm_ratio":1.0,"mirror":false,"chromatic_density":0.0,"complexity":0.55,"dissonance":0.229},{"voice":0,"pitch":78,"start":208.4998,"duration":0.1667,"velocity":127,"measure":79,"beat":1.75,"subject_pos":-1,"motif":"","motif_pos":-1,"best_pos":5,"similarity":0.143,"stretto":false,"stretto_voices":0,"combination":[],"aug_dim":"","rhythm_ratio":1.0,"mirror":false,"chromatic_density":0.0,"complexity":0.55,"dissonance":0.229},{"voice":0,"pitch":70,"start":208.6665,"duration":0.5,"velocity":127,"measure":79,"beat":2.0,"subject_pos":-1,"motif":"","motif_pos":-1,"best_pos":0,"similarity":0.107,"stretto":false,"stretto_voices":0,"combination":[],"aug_dim":"","rhythm_ratio":1.0,"mirror":false,"chromatic_density":0.0,"complexity":0.55,"dissonance":0.229},{"voice":0,"pitch":79,"start":208.6665,"duration":0.5,"velocity":127,"measure":79,"beat":2.0,"subject_pos":-1,"motif":"","motif_pos":-1,"best_pos":1,"similarity":0.179,"stretto":false,"stretto_voices":0,"combination":[],"aug_dim":"","rhythm_ratio":1.0,"mirror":false,"chromatic_density":0.0,"complexity":0.55,"dissonance":0.229},{"voice":0,"pitch":73,"start":209.1665,"duration":0.1667,"velocity":127,"measure":79,"beat":2.75,"subject_pos":-1,"motif":"","motif_pos":-1,"best_pos":0,"similarity":0.214,"stretto":false,"stretto_voices":0,"combination":[],"aug_dim":"","rhythm_ratio":1.0,"mirror":false,"chromatic_density":0.0,"complexity":0.55,"dissonance":0.229},{"voice":0,"pitch":76,"start":209.1665,"duration":0.1667,"velocity":127,"measure":79,"beat":2.75,"subject_pos":-1,"motif":"","motif_pos":-1,"best_pos":1,"similarity":0.357,"stretto":false,"stretto_voices":0,"combination":[],"aug_dim":"","rhythm_ratio":1.0,"mirror":false,"chromatic_density":0.0,"complexity":0.55,"dissonance":0.229},{"voice":1,"pitch":67,"start":209.1665,"duration":0.1667,"velocity":127,"measure":79,"beat":2.75,"subject_pos":-1,"motif":"","motif_pos":-1,"best_pos":5,"similarity":0.446,"stretto":false,"stretto_voices":0,"combination":[],"aug_dim":"","rhythm_ratio":1.0,"mirror":false,"chromatic_density":0.0,"complexity":0.55,"dissonance":0.229},{"voice":2,"pitch":64,"start":209.1665,"duration":0.1667,"velocity":127,"measure":79,"beat":2.75,"subject_pos":-1,"motif":"","motif_pos":-1,"best_pos":1,"similarity":0.286,"stretto":false,"stretto_voices":0,"combination":[],"aug_dim":"","rhythm_ratio":1.0,"mirror":false,"chromatic_density":0.0,"complexity":0.55,"dissonance":0.229},{"voice":2,"pitch":58,"start":209.1665,"duration":0.1667,"velocity":127,"measure":79,"beat":2.75,"subject_pos":-1,"motif":"","motif_pos":-1,"best_pos":2,"similarity":0.393,"stretto":false,"stretto_voices":0,"combination":[],"aug_dim":"","rhythm_ratio":1.0,"mirror":false,"chromatic_density":0.0,"complexity":0.55,"dissonance":0.229},{"voice":2,"pitch":55,"start":209.1665,"duration":0.1667,"velocity":127,"measure":79,"beat":2.75,"subject_pos":-1,"motif":"","motif_pos":-1,"best_pos":0,"similarity":0.429,"stretto":false,"stretto_voices":0,"combination":[],"aug_dim":"","rhythm_ratio":1.0,"mirror":false,"chromatic_density":0.0,"complexity":0.55,"dissonance":0.229},{"voice":0,"pitch":74,"start":209.3331,"duration":1.3333,"velocity":127,"measure":79,"beat":3.0,"subject_pos":-1,"motif":"","motif_pos":-1,"best_pos":2,"similarity":0.321,"stretto":false,"stretto_voices":0,"combination":[],"aug_dim":"","rhythm_ratio":1.0,"mirror":false,"chromatic_density":0.0,"complexity":0.55,"dissonance":0.229},{"voice":0,"pitch":78,"start":209.3331,"duration":1.3333,"velocity":127,"measure":79,"beat":3.0,"subject_pos":-1,"motif":"","motif_pos":-1,"best_pos":3,"similarity":0.161,"stretto":false,"stretto_voices":0,"combination":[],"aug_dim":"","rhythm_ratio":1.0,"mirror":false,"chromatic_density":0.0,"complexity":0.55,"dissonance":0.229},{"voice":1,"pitch":69,"start":209.3331,"duration":1.3333,"velocity":127,"measure":79,"beat":3.0,"subject_pos":-1,"motif":"","motif_pos":-1,"best_pos":6,"similarity":0.357,"stretto":false,"stretto_voices":0,"combination":[],"aug_dim":"","rhythm_ratio":1.0,"mirror":false,"chromatic_density":0.0,"complexity":0.55,"dissonance":0.229},{"voice":2,"pitch":62,"start":209.3331,"duration":1.3333,"velocity":127,"measure":79,"beat":3.0,"subject_pos":-1,"motif":"","motif_pos":-1,"best_pos":1,"similarity":0.571,"stretto":false,"stretto_voices":0,"combination":[],"aug_dim":"","rhythm_ratio":1.0,"mirror":false,"chromatic_density":0.0,"complexity":0.55,"dissonance":0.229},{"voice":2,"pitch":57,"start":209.3331,"duration":1.3333,"velocity":127,"measure":79,"beat":3.0,"subject_pos":-1,"motif":"","motif_pos":-1,"best_pos":2,"similarity":0.571,"stretto":false,"stretto_voices":0,"combination":[],"aug_dim":"","rhythm_ratio":1.0,"mirror":false,"chromatic_density":0.0,"complexity":0.55,"dissonance":0.229},{"voice":2,"pitch":54,"start":209.3331,"duration":1.3333,"velocity":127,"measure":79,"beat":3.0,"subject_pos":-1,"motif":"","motif_pos":-1,"best_pos":3,"similarity":0.429,"stretto":false,"stretto_voices":0,"combination":[],"aug_dim":"","rhythm_ratio":1.0,"mirror":false,"chromatic_density":0.0,"complexity":0.55,"dissonance":0.229}],"chromatic_density":[{"measure":1,"density":0.0,"chromatic_count":0,"interval_count":2},{"measure":2,"density":0.286,"chromatic_count":2,"interval_count":7},{"measure":3,"density":0.4,"chromatic_count":4,"interval_count":10},{"measure":4,"density":0.4,"chromatic_count":6,"interval_count":15},{"measure":5,"density":0.353,"chromatic_count":6,"interval_count":17},{"measure":6,"density":0.529,"chromatic_count":9,"interval_count":17},{"measure":7,"density":0.375,"chromatic_count":6,"interval_count":16},{"measure":8,"density":0.286,"chromatic_count":4,"interval_count":14},{"measure":9,"density":0.333,"chromatic_count":3,"interval_count":9},{"measure":10,"density":0.286,"chromatic_count":4,"interval_count":14},{"measure":11,"density":0.471,"chromatic_count":8,"interval_count":17},{"measure":12,"density":0.4,"chromatic_count":6,"interval_count":15},{"measure":13,"density":0.231,"chromatic_count":3,"interval_count":13},{"measure":14,"density":0.444,"chromatic_count":8,"interval_count":18},{"measure":15,"density":0.333,"chromatic_count":6,"interval_count":18},{"measure":16,"density":0.294,"chromatic_count":5,"interval_count":17},{"measure":17,"density":0.429,"chromatic_count":6,"interval_count":14},{"measure":18,"density":0.421,"chromatic_count":8,"interval_count":19},{"measure":19,"density":0.235,"chromatic_count":4,"interval_count":17},{"measure":20,"density":0.235,"chromatic_count":4,"interval_count":17},{"measure":21,"density":0.294,"chromatic_count":5,"interval_count":17},{"measure":22,"density":0.263,"chromatic_count":5,"interval_count":19},{"measure":23,"density":0.389,"chromatic_count":7,"interval_count":18},{"measure":24,"density":0.235,"chromatic_count":4,"interval_count":17},{"measure":25,"density":0.222,"chromatic_count":4,"interval_count":18},{"measure":26,"density":0.3,"chromatic_count":6,"interval_count":20},{"measure":27,"density":0.462,"chromatic_count":12,"interval_count":26},{"measure":28,"density":0.421,"chromatic_count":8,"interval_count":19},{"measure":29,"density":0.154,"chromatic_count":2,"interval_count":13},{"measure":30,"density":0.308,"chromatic_count":4,"interval_count":13},{"measure":31,"density":0.3,"chromatic_count":3,"interval_count":10},{"measure":32,"density":0.417,"chromatic_count":5,"interval_count":12},{"measure":33,"density":0.421,"chromatic_count":8,"interval_count":19},{"measure":34,"density":0.2,"chromatic_count":3,"interval_count":15},{"measure":35,"density":0.231,"chromatic_count":3,"interval_count":13},{"measure":36,"density":0.286,"chromatic_count":6,"interval_count":21},{"measure":37,"density":0.421,"chromatic_count":8,"interval_count":19},{"measure":38,"density":0.312,"chromatic_count":5,"interval_count":16},{"measure":39,"density":0.316,"chromatic_count":6,"interval_count":19},{"measure":40,"density":0.3,"chromatic_count":6,"interval_count":20},{"measure":41,"density":0.304,"chromatic_count":7,"interval_count":23},{"measure":42,"density":0.25,"chromatic_count":4,"interval_count":16},{"measure":43,"density":0.304,"chromatic_count":7,"interval_count":23},{"measure":44,"density":0.211,"chromatic_count":4,"interval_count":19},{"measure":45,"density":0.238,"chromatic_count":5,"interval_count":21},{"measure":46,"density":0.333,"chromatic_count":4,"interval_count":12},{"measure":47,"density":0.462,"chromatic_count":6,"interval_count":13},{"measure":48,"density":0.25,"chromatic_count":4,"interval_count":16},{"measure":49,"density":0.35,"chromatic_count":7,"interval_count":20},{"measure":50,"density":0.5,"chromatic_count":8,"interval_count":16},{"measure":51,"density":0.312,"chromatic_count":5,"interval_count":16},{"measure":52,"density":0.4,"chromatic_count":6,"interval_count":15},{"measure":53,"density":0.368,"chromatic_count":7,"interval_count":19},{"measure":54,"density":0.267,"chromatic_count":4,"interval_count":15},{"measure":55,"density":0.32,"chromatic_count":8,"interval_count":25},{"measure":56,"density":0.571,"chromatic_count":12,"interval_count":21},{"measure":57,"density":0.25,"chromatic_count":4,"interval_count":16},{"measure":58,"density":0.312,"chromatic_count":5,"interval_count":16},{"measure":59,"density":0.421,"chromatic_count":8,"interval_count":19},{"measure":60,"density":0.4,"chromatic_count":10,"interval_count":25},{"measure":61,"density":0.269,"chromatic_count":7,"interval_count":26},{"measure":62,"density":0.231,"chromatic_count":6,"interval_count":26},{"measure":63,"density":0.31,"chromatic_count":9,"interval_count":29},{"measure":64,"density":0.333,"chromatic_count":7,"interval_count":21},{"measure":65,"density":0.321,"chromatic_count":9,"interval_count":28},{"measure":66,"density":0.478,"chromatic_count":11,"interval_count":23},{"measure":67,"density":0.368,"chromatic_count":7,"interval_count":19},{"measure":68,"density":0.417,"chromatic_count":5,"interval_count":12},{"measure":69,"density":0.278,"chromatic_count":5,"interval_count":18},{"measure":70,"density":0.333,"chromatic_count":7,"interval_count":21},{"measure":71,"density":0.167,"chromatic_count":4,"interval_count":24},{"measure":72,"density":0.5,"chromatic_count":8,"interval_count":16},{"measure":73,"density":0.389,"chromatic_count":7,"interval_count":18},{"measure":74,"density":0.235,"chromatic_count":4,"interval_count":17},{"measure":75,"density":0.375,"chromatic_count":6,"interval_count":16},{"measure":76,"density":0.176,"chromatic_count":3,"interval_count":17},{"measure":77,"density":0.292,"chromatic_count":7,"interval_count":24},{"measure":78,"density":0.238,"chromatic_count":5,"interval_count":21},{"measure":79,"density":0.0,"chromatic_count":0,"interval_count":15}],"complexity":[{"measure":1,"complexity":0.449,"voice_count":1,"note_density":0.094,"motif_saturation":1.0,"interval_diversity":0.286,"rhythm_variety":0.5},{"measure":2,"complexity":0.646,"voice_count":2,"note_density":0.281,"motif_saturation":1.0,"interval_diversity":0.429,"rhythm_variety":1.0},{"measure":3,"complexity":0.656,"voice_count":3,"note_density":0.406,"motif_saturation":0.692,"interval_diversity":0.429,"rhythm_variety":1.0},{"measure":4,"complexity":0.551,"voice_count":3,"note_density":0.562,"motif_saturation":0.333,"interval_diversity":0.286,"rhythm_variety":0.833},{"measure":5,"complexity":0.502,"voice_count":3,"note_density":0.625,"motif_saturation":0.0,"interval_diversity":0.429,"rhythm_variety":0.833},{"measure":6,"complexity":0.552,"voice_count":3,"note_density":0.625,"motif_saturation":0.2,"interval_diversity":0.429,"rhythm_variety":0.833},{"measure":7,"complexity":0.782,"voice_count":4,"note_density":0.625,"motif_saturation":0.6,"interval_diversity":0.714,"rhythm_variety":1.0},{"measure":8,"complexity":0.618,"voice_count":3,"note_density":0.531,"motif_saturation":0.353,"interval_diversity":0.571,"rhythm_variety":1.0},{"measure":9,"complexity":0.625,"voice_count":4,"note_density":0.406,"motif_saturation":0.231,"interval_diversity":0.571,"rhythm_variety":1.0},{"measure":10,"complexity":0.705,"voice_count":4,"note_density":0.594,"motif_saturation":0.316,"interval_diversity":0.714,"rhythm_variety":1.0},{"measure":11,"complexity":0.732,"voice_count":4,"note_density":0.656,"motif_saturation":0.476,"interval_diversity":0.714,"rhythm_variety":0.833},{"measure":12,"complexity":0.542,"voice_count":3,"note_density":0.562,"motif_saturation":0.111,"interval_diversity":0.429,"rhythm_variety":1.0},{"measure":13,"complexity":0.458,"voice_count":3,"note_density":0.531,"motif_saturation":0.0,"interval_diversity":0.429,"rhythm_variety":0.667},{"measure":14,"complexity":0.602,"voice_count":3,"note_density":0.656,"motif_saturation":0.19,"interval_diversity":0.571,"rhythm_variety":1.0},{"measure":15,"complexity":0.703,"voice_count":4,"note_density":0.688,"motif_saturation":0.318,"interval_diversity":0.571,"rhythm_variety":1.0},{"measure":16,"complexity":0.746,"voice_count":4,"note_density":0.656,"motif_saturation":0.429,"interval_diversity":0.714,"rhythm_variety":1.0},{"measure":17,"complexity":0.702,"voice_count":4,"note_density":0.562,"motif_saturation":0.5,"interval_diversity":0.429,"rhythm_variety":1.0},{"measure":18,"complexity":0.641,"voice_count":4,"note_density":0.719,"motif_saturation":0.13,"interval_diversity":0.429,"rhythm_variety":1.0},{"measure":19,"complexity":0.57,"voice_count":3,"note_density":0.625,"motif_saturation":0.0,"interval_diversity":0.714,"rhythm_variety":1.0},{"measure":20,"complexity":0.609,"voice_count":3,"note_density":0.656,"motif_saturation":0.048,"interval_diversity":0.857,"rhythm_variety":1.0},{"measure":21,"complexity":0.618,"voice_count":4,"note_density":0.656,"motif_saturation":0.19,"interval_diversity":0.429,"rhythm_variety":0.833},{"measure":22,"complexity":0.762,"voice_count":4,"note_density":0.75,"motif_saturation":0.333,"interval_diversity":0.857,"rhythm_variety":1.0},{"measure":23,"complexity":0.651,"voice_count":4,"note_density":0.719,"motif_saturation":0.0,"interval_diversity":0.714,"rhythm_variety":1.0},{"measure":24,"complexity":0.638,"voice_count":4,"note_density":0.656,"motif_saturation":0.0,"interval_diversity":0.714,"rhythm_variety":1.0},{"measure":25,"complexity":0.619,"voice_count":3,"note_density":0.656,"motif_saturation":0.0,"interval_diversity":1.0,"rhythm_variety":1.0},{"measure":26,"complexity":0.723,"voice_count":4,"note_density":0.781,"motif_saturation":0.24,"interval_diversity":0.714,"rhythm_variety":1.0},{"measure":27,"complexity":0.74,"voice_count":4,"note_density":0.938,"motif_saturation":0.267,"interval_diversity":0.571,"rhythm_variety":1.0},{"measure":28,"complexity":0.587,"voice_count":4,"note_density":0.719,"motif_saturation":0.0,"interval_diversity":0.286,"rhythm_variety":1.0},{"measure":29,"complexity":0.52,"voice_count":3,"note_density":0.5,"motif_saturation":0.0,"interval_diversity":0.714,"rhythm_variety":0.833},{"measure":30,"complexity":0.582,"voice_count":3,"note_density":0.5,"motif_saturation":0.25,"interval_diversity":0.714,"rhythm_variety":0.833},{"measure":31,"complexity":0.645,"voice_count":4,"note_density":0.438,"motif_saturation":0.286,"interval_diversity":0.571,"rhythm_variety":1.0},{"measure":32,"complexity":0.75,"voice_count":3,"note_density":0.469,"motif_saturation":0.933,"interval_diversity":0.571,"rhythm_variety":1.0},{"measure":33,"complexity":0.673,"voice_count":4,"note_density":0.719,"motif_saturation":0.261,"interval_diversity":0.429,"rhythm_variety":1.0},{"measure":34,"complexity":0.626,"voice_count":4,"note_density":0.594,"motif_saturation":0.0,"interval_diversity":0.714,"rhythm_variety":1.0},{"measure":35,"complexity":0.683,"voice_count":4,"note_density":0.562,"motif_saturation":0.167,"interval_diversity":0.857,"rhythm_variety":1.0},{"measure":36,"complexity":0.761,"voice_count":4,"note_density":0.781,"motif_saturation":0.56,"interval_diversity":0.429,"rhythm_variety":1.0},{"measure":37,"complexity":0.781,"voice_count":4,"note_density":0.719,"motif_saturation":0.522,"interval_diversity":0.714,"rhythm_variety":1.0},{"measure":38,"complexity":0.686,"voice_count":4,"note_density":0.625,"motif_saturation":0.3,"interval_diversity":0.571,"rhythm_variety":1.0},{"measure":39,"complexity":0.556,"voice_count":3,"note_density":0.688,"motif_saturation":0.182,"interval_diversity":0.571,"rhythm_variety":0.667},{"measure":40,"complexity":0.553,"voice_count":3,"note_density":0.719,"motif_saturation":0.043,"interval_diversity":0.571,"rhythm_variety":0.833},{"measure":41,"complexity":0.417,"voice_count":2,"note_density":0.781,"motif_saturation":0.0,"interval_diversity":0.571,"rhythm_variety":0.333},{"measure":42,"complexity":0.632,"voice_count":3,"note_density":0.625,"motif_saturation":0.25,"interval_diversity":0.714,"rhythm_variety":1.0},{"measure":43,"complexity":0.617,"voice_count":3,"note_density":0.812,"motif_saturation":0.038,"interval_diversity":0.714,"rhythm_variety":1.0},{"measure":44,"complexity":0.579,"voice_count":3,"note_density":0.688,"motif_saturation":0.273,"interval_diversity":0.571,"rhythm_variety":0.667},{"measure":45,"complexity":0.637,"voice_count":3,"note_density":0.75,"motif_saturation":0.083,"interval_diversity":0.857,"rhythm_variety":1.0},{"measure":46,"complexity":0.535,"voice_count":3,"note_density":0.469,"motif_saturation":0.0,"interval_diversity":0.857,"rhythm_variety":0.833},{"measure":47,"complexity":0.601,"voice_count":3,"note_density":0.5,"motif_saturation":0.312,"interval_diversity":0.571,"rhythm_variety":1.0},{"measure":48,"complexity":0.739,"voice_count":4,"note_density":0.625,"motif_saturation":0.6,"interval_diversity":0.429,"rhythm_variety":1.0},{"measure":49,"complexity":0.72,"voice_count":4,"note_density":0.75,"motif_saturation":0.25,"interval_diversity":0.714,"rhythm_variety":1.0},{"measure":50,"complexity":0.655,"voice_count":4,"note_density":0.656,"motif_saturation":0.238,"interval_diversity":0.429,"rhythm_variety":1.0},{"measure":51,"complexity":0.602,"voice_count":4,"note_density":0.625,"motif_saturation":0.05,"interval_diversity":0.429,"rhythm_variety":1.0},{"measure":52,"complexity":0.655,"voice_count":4,"note_density":0.656,"motif_saturation":0.238,"interval_diversity":0.429,"rhythm_variety":1.0},{"measure":53,"complexity":0.589,"voice_count":3,"note_density":0.719,"motif_saturation":0.174,"interval_diversity":0.429,"rhythm_variety":1.0},{"measure":54,"complexity":0.632,"voice_count":4,"note_density":0.625,"motif_saturation":0.0,"interval_diversity":0.714,"rhythm_variety":1.0},{"measure":55,"complexity":0.62,"voice_count":3,"note_density":0.875,"motif_saturation":0.286,"interval_diversity":0.571,"rhythm_variety":0.667},{"measure":56,"complexity":0.554,"voice_count":3,"note_density":0.781,"motif_saturation":0.2,"interval_diversity":0.571,"rhythm_variety":0.5},{"measure":57,"complexity":0.53,"voice_count":3,"note_density":0.594,"motif_saturation":0.053,"interval_diversity":0.571,"rhythm_variety":0.833},{"measure":58,"complexity":0.736,"voice_count":4,"note_density":0.625,"motif_saturation":0.5,"interval_diversity":0.571,"rhythm_variety":1.0},{"measure":59,"complexity":0.706,"voice_count":4,"note_density":0.719,"motif_saturation":0.391,"interval_diversity":0.429,"rhythm_variety":1.0},{"measure":60,"complexity":0.75,"voice_count":3,"note_density":0.875,"motif_saturation":0.607,"interval_diversity":0.571,"rhythm_variety":1.0},{"measure":61,"complexity":0.678,"voice_count":3,"note_density":0.906,"motif_saturation":0.207,"interval_diversity":0.714,"rhythm_variety":1.0},{"measure":62,"complexity":0.457,"voice_count":2,"note_density":0.875,"motif_saturation":0.0,"interval_diversity":0.714,"rhythm_variety":0.333},{"measure":63,"complexity":0.573,"voice_count":3,"note_density":1.0,"motif_saturation":0.0,"interval_diversity":0.571,"rhythm_variety":0.667},{"measure":64,"complexity":0.692,"voice_count":4,"note_density":0.781,"motif_saturation":0.2,"interval_diversity":0.571,"rhythm_variety":1.0},{"measure":65,"complexity":0.791,"voice_count":4,"note_density":1.0,"motif_saturation":0.25,"interval_diversity":0.857,"rhythm_variety":1.0},{"measure":66,"complexity":0.682,"voice_count":4,"note_density":0.844,"motif_saturation":0.296,"interval_diversity":0.429,"rhythm_variety":0.833},{"measure":67,"complexity":0.63,"voice_count":4,"note_density":0.719,"motif_saturation":0.087,"interval_diversity":0.429,"rhythm_variety":1.0},{"measure":68,"complexity":0.626,"voice_count":4,"note_density":0.562,"motif_saturation":0.111,"interval_diversity":0.571,"rhythm_variety":1.0},{"measure":69,"complexity":0.77,"voice_count":4,"note_density":0.688,"motif_saturation":0.5,"interval_diversity":0.714,"rhythm_variety":1.0},{"measure":70,"complexity":0.683,"voice_count":4,"note_density":0.781,"motif_saturation":0.08,"interval_diversity":0.714,"rhythm_variety":1.0},{"measure":71,"complexity":0.629,"voice_count":4,"note_density":0.875,"motif_saturation":0.0,"interval_diversity":0.857,"rhythm_variety":0.5},{"measure":72,"complexity":0.598,"voice_count":4,"note_density":0.719,"motif_saturation":0.174,"interval_diversity":0.571,"rhythm_variety":0.5},{"measure":73,"complexity":0.705,"voice_count":4,"note_density":0.719,"motif_saturation":0.043,"interval_diversity":1.0,"rhythm_variety":1.0},{"measure":74,"complexity":0.663,"voice_count":4,"note_density":0.781,"motif_saturation":0.0,"interval_diversity":0.714,"rhythm_variety":1.0},{"measure":75,"complexity":0.629,"voice_count":3,"note_density":0.594,"motif_saturation":0.263,"interval_diversity":0.714,"rhythm_variety":1.0},{"measure":76,"complexity":0.666,"voice_count":3,"note_density":0.625,"motif_saturation":0.3,"interval_diversity":0.857,"rhythm_variety":1.0},{"measure":77,"complexity":0.687,"voice_count":3,"note_density":0.844,"motif_saturation":0.222,"interval_diversity":1.0,"rhythm_variety":0.833},{"measure":78,"complexity":0.595,"voice_count":3,"note_density":0.75,"motif_saturation":0.0,"interval_diversity":0.714,"rhythm_variety":1.0},{"measure":79,"complexity":0.55,"voice_count":3,"note_density":0.562,"motif_saturation":0.0,"interval_diversity":1.0,"rhythm_variety":0.667}],"dissonance":[{"measure":1,"dissonance":0,"dissonant_pairs":0,"total_pairs":0},{"measure":2,"dissonance":0.071,"dissonant_pairs":0.5,"total_pairs":7},{"measure":3,"dissonance":0.211,"dissonant_pairs":3.8,"total_pairs":18},{"measure":4,"dissonance":0.11,"dissonant_pairs":3.3,"total_pairs":30},{"measure":5,"dissonance":0.157,"dissonant_pairs":4.4,"total_pairs":28},{"measure":6,"dissonance":0.137,"dissonant_pairs":4.1,"total_pairs":30},{"measure":7,"dissonance":0.075,"dissonant_pairs":4.5,"total_pairs":60},{"measure":8,"dissonance":0.054,"dissonant_pairs":1.5,"total_pairs":28},{"measure":9,"dissonance":0.017,"dissonant_pairs":0.5,"total_pairs":30},{"measure":10,"dissonance":0.144,"dissonant_pairs":6.2,"total_pairs":43},{"measure":11,"dissonance":0.123,"dissonant_pairs":5.9,"total_pairs":48},{"measure":12,"dissonance":0.074,"dissonant_pairs":3.1,"total_pairs":42},{"measure":13,"dissonance":0.048,"dissonant_pairs":1.5,"total_pairs":31},{"measure":14,"dissonance":0.246,"dissonant_pairs":8.6,"total_pairs":35},{"measure":15,"dissonance":0.16,"dissonant_pairs":9.1,"total_pairs":57},{"measure":16,"dissonance":0.044,"dissonant_pairs":2.5,"total_pairs":57},{"measure":17,"dissonance":0.123,"dissonant_pairs":5.9,"total_pairs":48},{"measure":18,"dissonance":0.154,"dissonant_pairs":11.1,"total_pairs":72},{"measure":19,"dissonance":0.23,"dissonant_pairs":9.2,"total_pairs":40},{"measure":20,"dissonance":0.077,"dissonant_pairs":2.3,"total_pairs":30},{"measure":21,"dissonance":0.102,"dissonant_pairs":4.3,"total_pairs":42},{"measure":22,"dissonance":0.083,"dissonant_pairs":6.0,"total_pairs":72},{"measure":23,"dissonance":0.049,"dissonant_pairs":2.8,"total_pairs":57},{"measure":24,"dissonance":0.102,"dissonant_pairs":4.8,"total_pairs":47},{"measure":25,"dissonance":0.18,"dissonant_pairs":7.2,"total_pairs":40},{"measure":26,"dissonance":0.104,"dissonant_pairs":7.8,"total_pairs":75},{"measure":27,"dissonance":0.185,"dissonant_pairs":17.8,"total_pairs":96},{"measure":28,"dissonance":0.124,"dissonant_pairs":8.7,"total_pairs":70},{"measure":29,"dissonance":0.112,"dissonant_pairs":3.8,"total_pairs":34},{"measure":30,"dissonance":0.159,"dissonant_pairs":5.4,"total_pairs":34},{"measure":31,"dissonance":0.125,"dissonant_pairs":6.4,"total_pairs":51},{"measure":32,"dissonance":0.107,"dissonant_pairs":3.0,"total_pairs":28},{"measure":33,"dissonance":0.168,"dissonant_pairs":10.6,"total_pairs":63},{"measure":34,"dissonance":0.033,"dissonant_pairs":1.0,"total_pairs":30},{"measure":35,"dissonance":0.11,"dissonant_pairs":5.6,"total_pairs":51},{"measure":36,"dissonance":0.145,"dissonant_pairs":10.0,"total_pairs":69},{"measure":37,"dissonance":0.149,"dissonant_pairs":8.5,"total_pairs":57},{"measure":38,"dissonance":0.096,"dissonant_pairs":4.3,"total_pairs":45},{"measure":39,"dissonance":0.171,"dissonant_pairs":7.2,"total_pairs":42},{"measure":40,"dissonance":0.211,"dissonant_pairs":3.8,"total_pairs":18},{"measure":41,"dissonance":0.173,"dissonant_pairs":2.6,"total_pairs":15},{"measure":42,"dissonance":0.139,"dissonant_pairs":4.6,"total_pairs":33},{"measure":43,"dissonance":0.059,"dissonant_pairs":2.6,"total_pairs":44},{"measure":44,"dissonance":0.236,"dissonant_pairs":8.5,"total_pairs":36},{"measure":45,"dissonance":0.137,"dissonant_pairs":5.2,"total_pairs":38},{"measure":46,"dissonance":0.115,"dissonant_pairs":2.3,"total_pairs":20},{"measure":47,"dissonance":0.206,"dissonant_pairs":6.4,"total_pairs":31},{"measure":48,"dissonance":0.119,"dissonant_pairs":7.5,"total_pairs":63},{"measure":49,"dissonance":0.224,"dissonant_pairs":14.8,"total_pairs":66},{"measure":50,"dissonance":0.139,"dissonant_pairs":5.0,"total_pairs":36},{"measure":51,"dissonance":0.11,"dissonant_pairs":5.5,"total_pairs":50},{"measure":52,"dissonance":0.139,"dissonant_pairs":9.3,"total_pairs":67},{"measure":53,"dissonance":0.218,"dissonant_pairs":7.2,"total_pairs":33},{"measure":54,"dissonance":0.066,"dissonant_pairs":4.0,"total_pairs":61},{"measure":55,"dissonance":0.205,"dissonant_pairs":8.6,"total_pairs":42},{"measure":56,"dissonance":0.2,"dissonant_pairs":9.6,"total_pairs":48},{"measure":57,"dissonance":0.206,"dissonant_pairs":7.0,"total_pairs":34},{"measure":58,"dissonance":0.206,"dissonant_pairs":10.5,"total_pairs":51},{"measure":59,"dissonance":0.111,"dissonant_pairs":6.0,"total_pairs":54},{"measure":60,"dissonance":0.15,"dissonant_pairs":7.2,"total_pairs":48},{"measure":61,"dissonance":0.113,"dissonant_pairs":6.1,"total_pairs":54},{"measure":62,"dissonance":0.094,"dissonant_pairs":1.5,"total_pairs":16},{"measure":63,"dissonance":0.125,"dissonant_pairs":4.0,"total_pairs":32},{"measure":64,"dissonance":0.152,"dissonant_pairs":9.4,"total_pairs":62},{"measure":65,"dissonance":0.119,"dissonant_pairs":9.6,"total_pairs":81},{"measure":66,"dissonance":0.127,"dissonant_pairs":9.9,"total_pairs":78},{"measure":67,"dissonance":0.086,"dissonant_pairs":8.0,"total_pairs":93},{"measure":68,"dissonance":0.102,"dissonant_pairs":5.4,"total_pairs":53},{"measure":69,"dissonance":0.125,"dissonant_pairs":6.9,"total_pairs":55},{"measure":70,"dissonance":0.069,"dissonant_pairs":3.8,"total_pairs":55},{"measure":71,"dissonance":0.108,"dissonant_pairs":4.2,"total_pairs":39},{"measure":72,"dissonance":0.151,"dissonant_pairs":6.8,"total_pairs":45},{"measure":73,"dissonance":0.142,"dissonant_pairs":6.4,"total_pairs":45},{"measure":74,"dissonance":0.106,"dissonant_pairs":5.1,"total_pairs":48},{"measure":75,"dissonance":0.036,"dissonant_pairs":1.0,"total_pairs":28},{"measure":76,"dissonance":0.124,"dissonant_pairs":4.1,"total_pairs":33},{"measure":77,"dissonance":0.142,"dissonant_pairs":4.7,"total_pairs":33},{"measure":78,"dissonance":0.067,"dissonant_pairs":2.8,"total_pairs":42},{"measure":79,"dissonance":0.229,"dissonant_pairs":1.6,"total_pairs":7}]}