{"metadata":{"title":"The Art of the Fugue, Contrapunctus II","number":"II","composer":"J.S. Bach","source_midi":"kunst_der_fuge_02_mutopia.mid","tempo_bpm":120.0,"tempo_us_per_beat":500000,"ticks_per_beat":384,"time_signature":"4/4","key_signature":"D minor","total_duration_seconds":175.3043,"total_measures":84,"beats_per_measure":4},"voices":[{"id":0,"name":"Soprano","midi_channel":0,"midi_track":1,"color":"#E85D4A","pitch_min":57,"pitch_max":84,"note_count":247},{"id":1,"name":"Alto","midi_channel":1,"midi_track":2,"color":"#4A90D9","pitch_min":53,"pitch_max":76,"note_count":288},{"id":2,"name":"Tenor","midi_channel":2,"midi_track":3,"color":"#27AE60","pitch_min":45,"pitch_max":67,"note_count":278},{"id":3,"name":"Bass","midi_channel":3,"midi_track":4,"color":"#8E44AD","pitch_min":38,"pitch_max":58,"note_count":265}],"notes":[{"voice":3,"pitch":50,"start":0.0,"duration":1.0435,"velocity":127,"measure":1,"beat":1.0,"subject_pos":0,"motif":"subject","motif_pos":0,"best_pos":0,"similarity":1.0,"stretto":false,"stretto_voices":0,"combination":[],"aug_dim":"","rhythm_ratio":1.0,"mirror":false,"chromatic_density":0.0,"complexity":0.371,"dissonance":0},{"voice":3,"pitch":57,"start":1.0435,"duration":1.0435,"velocity":127,"measure":1,"beat":3.0,"subject_pos":1,"motif":"subject","motif_pos":1,"best_pos":1,"similarity":1.0,"stretto":false,"stretto_voices":0,"combination":[],"aug_dim":"","rhythm_ratio":1.0,"mirror":false,"chromatic_density":0.0,"complexity":0.371,"dissonance":0},{"voice":3,"pitch":53,"start":2.087,"duration":1.0435,"velocity":127,"measure":2,"beat":1.0,"subject_pos":2,"motif":"subject","motif_pos":2,"best_pos":2,"similarity":1.0,"stretto":false,"stretto_voices":0,"combination":[],"aug_dim":"","rhythm_ratio":1.0,"mirror":false,"chromatic_density":0.0,"complexity":0.371,"dissonance":0},{"voice":3,"pitch":50,"start":3.1304,"duration":1.0435,"velocity":127,"measure":2,"beat":3.0,"subject_pos":3,"motif":"subject","motif_pos":3,"best_pos":3,"similarity":1.0,"stretto":false,"stretto_voices":0,"combination":[],"aug_dim":"","rhythm_ratio":1.0,"mirror":false,"chromatic_density":0.0,"complexity":0.371,"dissonance":0},{"voice":3,"pitch":49,"start":4.1739,"duration":1.0435,"velocity":127,"measure":3,"beat":1.0,"subject_pos":4,"motif":"subject","motif_pos":4,"best_pos":4,"similarity":1.0,"stretto":false,"stretto_voices":0,"combination":[],"aug_dim":"","rhythm_ratio":1.0,"mirror":false,"chromatic_density":0.5,"complexity":0.424,"dissonance":0},{"voice":3,"pitch":50,"start":5.2174,"duration":0.5217,"velocity":127,"measure":3,"beat":3.0,"subject_pos":5,"motif":"subject","motif_pos":5,"best_pos":5,"similarity":1.0,"stretto":false,"stretto_voices":0,"combination":[],"aug_dim":"","rhythm_ratio":1.0,"mirror":false,"chromatic_density":0.5,"complexity":0.424,"dissonance":0},{"voice":3,"pitch":52,"start":5.7391,"duration":0.5217,"velocity":127,"measure":3,"beat":4.0,"subject_pos":6,"motif":"subject","motif_pos":6,"best_pos":6,"similarity":1.0,"stretto":false,"stretto_voices":0,"combination":[],"aug_dim":"","rhythm_ratio":1.0,"mirror":false,"chromatic_density":0.5,"complexity":0.424,"dissonance":0},{"voice":3,"pitch":53,"start":6.2609,"duration":1.4348,"velocity":127,"measure":4,"beat":1.0,"subject_pos":7,"motif":"subject","motif_pos":7,"best_pos":7,"similarity":1.0,"stretto":false,"stretto_voices":0,"combination":[],"aug_dim":"","rhythm_ratio":1.0,"mirror":false,"chromatic_density":0.333,"complexity":0.268,"dissonance":0},{"voice":3,"pitch":55,"start":7.6957,"duration":0.1304,"velocity":127,"measure":4,"beat":3.75,"subject_pos":-1,"motif":"","motif_pos":-1,"best_pos":6,"similarity":0.464,"stretto":false,"stretto_voices":0,"combination":[],"aug_dim":"","rhythm_ratio":1.0,"mirror":false,"chromatic_density":0.333,"complexity":0.268,"dissonance":0},{"voice":3,"pitch":53,"start":7.8261,"duration":0.3913,"velocity":127,"measure":4,"beat":4.0,"subject_pos":-1,"motif":"","motif_pos":-1,"best_pos":3,"similarity":0.536,"stretto":false,"stretto_voices":0,"combination":[],"aug_dim":"","rhythm_ratio":1.0,"mirror":false,"chromatic_density":0.333,"complexity":0.268,"dissonance":0},{"voice":3,"pitch":52,"start":8.2174,"duration":0.1304,"velocity":127,"measure":4,"beat":4.75,"subject_pos":-1,"motif":"","motif_pos":-1,"best_pos":4,"similarity":0.543,"stretto":false,"stretto_voices":0,"combination":[],"aug_dim":"","rhythm_ratio":1.0,"mirror":false,"chromatic_density":0.333,"complexity":0.268,"dissonance":0},{"voice":2,"pitch":57,"start":8.3478,"duration":1.0435,"velocity":127,"measure":5,"beat":1.0,"subject_pos":0,"motif":"subject","motif_pos":0,"best_pos":0,"similarity":1.0,"stretto":false,"stretto_voices":0,"combination":[],"aug_dim":"","rhythm_ratio":1.0,"mirror":false,"chromatic_density":0.143,"complexity":0.401,"dissonance":0.125},{"voice":3,"pitch":50,"start":8.3478,"duration":0.3913,"velocity":127,"measure":5,"beat":1.0,"subject_pos":-1,"motif":"","motif_pos":-1,"best_pos":5,"similarity":0.507,"stretto":false,"stretto_voices":0,"combination":[],"aug_dim":"","rhythm_ratio":1.0,"mirror":false,"chromatic_density":0.143,"complexity":0.401,"dissonance":0.125},{"voice":3,"pitch":52,"start":8.7391,"duration":0.1304,"velocity":127,"measure":5,"beat":1.75,"subject_pos":-1,"motif":"","motif_pos":-1,"best_pos":6,"similarity":0.4,"stretto":false,"stretto_voices":0,"combination":[],"aug_dim":"","rhythm_ratio":1.0,"mirror":false,"chromatic_density":0.143,"complexity":0.401,"dissonance":0.125},{"voice":3,"pitch":50,"start":8.8696,"duration":0.3913,"velocity":127,"measure":5,"beat":2.0,"subject_pos":-1,"motif":"","motif_pos":-1,"best_pos":2,"similarity":0.464,"stretto":false,"stretto_voices":0,"combination":[],"aug_dim":"","rhythm_ratio":1.0,"mirror":false,"chromatic_density":0.143,"complexity":0.401,"dissonance":0.125},{"voice":3,"pitch":48,"start":9.2609,"duration":0.5217,"velocity":127,"measure":5,"beat":2.75,"subject_pos":-1,"motif":"","motif_pos":-1,"best_pos":5,"similarity":0.4,"stretto":false,"stretto_voices":0,"combination":[],"aug_dim":"","rhythm_ratio":1.0,"mirror":false,"chromatic_density":0.143,"complexity":0.401,"dissonance":0.125},{"voice":2,"pitch":62,"start":9.3913,"duration":1.0435,"velocity":127,"measure":5,"beat":3.0,"subject_pos":1,"motif":"subject","motif_pos":1,"best_pos":1,"similarity":1.0,"stretto":false,"stretto_voices":0,"combination":[],"aug_dim":"","rhythm_ratio":1.0,"mirror":false,"chromatic_density":0.143,"complexity":0.401,"dissonance":0.125},{"voice":3,"pitch":50,"start":9.7826,"duration":0.1304,"velocity":127,"measure":5,"beat":3.75,"subject_pos":-1,"motif":"","motif_pos":-1,"best_pos":1,"similarity":0.386,"stretto":false,"stretto_voices":0,"combination":[],"aug_dim":"","rhythm_ratio":1.0,"mirror":false,"chromatic_density":0.143,"complexity":0.401,"dissonance":0.125},{"voice":3,"pitch":48,"start":9.913,"duration":0.3913,"velocity":127,"measure":5,"beat":4.0,"subject_pos":-1,"motif":"","motif_pos":-1,"best_pos":3,"similarity":0.529,"stretto":false,"stretto_voices":0,"combination":[],"aug_dim":"","rhythm_ratio":1.0,"mirror":false,"chromatic_density":0.143,"complexity":0.401,"dissonance":0.125},{"voice":3,"pitch":47,"start":10.3043,"duration":0.5217,"velocity":127,"measure":5,"beat":4.75,"subject_pos":-1,"motif":"","motif_pos":-1,"best_pos":4,"similarity":0.607,"stretto":false,"stretto_voices":0,"combination":[],"aug_dim":"","rhythm_ratio":1.0,"mirror":false,"chromatic_density":0.143,"complexity":0.401,"dissonance":0.125},{"voice":2,"pitch":60,"start":10.4348,"duration":1.0435,"velocity":127,"measure":6,"beat":1.0,"subject_pos":2,"motif":"subject","motif_pos":2,"best_pos":2,"similarity":1.0,"stretto":false,"stretto_voices":0,"combination":[],"aug_dim":"","rhythm_ratio":1.0,"mirror":false,"chromatic_density":0.286,"complexity":0.376,"dissonance":0.143},{"voice":3,"pitch":45,"start":10.8261,"duration":0.1304,"velocity":127,"measure":6,"beat":1.75,"subject_pos":-1,"motif":"","motif_pos":-1,"best_pos":5,"similarity":0.636,"stretto":false,"stretto_voices":0,"combination":[],"aug_dim":"","rhythm_ratio":1.0,"mirror":false,"chromatic_density":0.286,"complexity":0.376,"dissonance":0.143},{"voice":3,"pitch":47,"start":10.9565,"duration":0.3913,"velocity":127,"measure":6,"beat":2.0,"subject_pos":-1,"motif":"","motif_pos":-1,"best_pos":6,"similarity":0.657,"stretto":false,"stretto_voices":0,"combination":[],"aug_dim":"","rhythm_ratio":1.0,"mirror":false,"chromatic_density":0.286,"complexity":0.376,"dissonance":0.143},{"voice":3,"pitch":48,"start":11.3478,"duration":0.1304,"velocity":127,"measure":6,"beat":2.75,"subject_pos":-1,"motif":"","motif_pos":-1,"best_pos":5,"similarity":0.693,"stretto":false,"stretto_voices":0,"combination":[],"aug_dim":"","rhythm_ratio":1.0,"mirror":false,"chromatic_density":0.286,"complexity":0.376,"dissonance":0.143},{"voice":2,"pitch":57,"start":11.4783,"duration":1.0435,"velocity":127,"measure":6,"beat":3.0,"subject_pos":3,"motif":"subject","motif_pos":3,"best_pos":3,"similarity":1.0,"stretto":false,"stretto_voices":0,"combination":[],"aug_dim":"","rhythm_ratio":1.0,"mirror":false,"chromatic_density":0.286,"complexity":0.376,"dissonance":0.143},{"voice":3,"pitch":50,"start":11.4783,"duration":0.3913,"velocity":127,"measure":6,"beat":3.0,"subject_pos":-1,"motif":"","motif_pos":-1,"best_pos":5,"similarity":0.607,"stretto":false,"stretto_voices":0,"combination":[],"aug_dim":"","rhythm_ratio":1.0,"mirror":false,"chromatic_density":0.286,"complexity":0.376,"dissonance":0.143},{"voice":3,"pitch":52,"start":11.8696,"duration":0.1304,"velocity":127,"measure":6,"beat":3.75,"subject_pos":-1,"motif":"","motif_pos":-1,"best_pos":6,"similarity":0.661,"stretto":false,"stretto_voices":0,"combination":[],"aug_dim":"","rhythm_ratio":1.0,"mirror":false,"chromatic_density":0.286,"complexity":0.376,"dissonance":0.143},{"voice":3,"pitch":53,"start":12.0,"duration":0.3913,"velocity":127,"measure":6,"beat":4.0,"subject_pos":-1,"motif":"","motif_pos":-1,"best_pos":7,"similarity":0.464,"stretto":false,"stretto_voices":0,"combination":[],"aug_dim":"","rhythm_ratio":1.0,"mirror":false,"chromatic_density":0.286,"complexity":0.376,"dissonance":0.143},{"voice":3,"pitch":50,"start":12.3913,"duration":0.1304,"velocity":127,"measure":6,"beat":4.75,"subject_pos":-1,"motif":"","motif_pos":-1,"best_pos":5,"similarity":0.493,"stretto":false,"stretto_voices":0,"combination":[],"aug_dim":"","rhythm_ratio":1.0,"mirror":false,"chromatic_density":0.286,"complexity":0.376,"dissonance":0.143},{"voice":2,"pitch":56,"start":12.5217,"duration":1.0435,"velocity":127,"measure":7,"beat":1.0,"subject_pos":4,"motif":"subject","motif_pos":4,"best_pos":4,"similarity":1.0,"stretto":false,"stretto_voices":0,"combination":[],"aug_dim":"","rhythm_ratio":1.0,"mirror":false,"chromatic_density":0.556,"complexity":0.405,"dissonance":0.225},{"voice":3,"pitch":52,"start":12.5217,"duration":0.3913,"velocity":127,"measure":7,"beat":1.0,"subject_pos":-1,"motif":"","motif_pos":-1,"best_pos":6,"similarity":0.604,"stretto":false,"stretto_voices":0,"combination":[],"aug_dim":"","rhythm_ratio":1.0,"mirror":false,"chromatic_density":0.556,"complexity":0.405,"dissonance":0.225},{"voice":3,"pitch":53,"start":12.913,"duration":0.1304,"velocity":127,"measure":7,"beat":1.75,"subject_pos":-1,"motif":"","motif_pos":-1,"best_pos":7,"similarity":0.436,"stretto":false,"stretto_voices":0,"combination":[],"aug_dim":"","rhythm_ratio":1.0,"mirror":false,"chromatic_density":0.556,"complexity":0.405,"dissonance":0.225},{"voice":3,"pitch":52,"start":13.0435,"duration":0.3913,"velocity":127,"measure":7,"beat":2.0,"subject_pos":-1,"motif":"","motif_pos":-1,"best_pos":1,"similarity":0.429,"stretto":false,"stretto_voices":0,"combination":[],"aug_dim":"","rhythm_ratio":1.0,"mirror":false,"chromatic_density":0.556,"complexity":0.405,"dissonance":0.225},{"voice":3,"pitch":50,"start":13.4348,"duration":0.1304,"velocity":127,"measure":7,"beat":2.75,"subject_pos":-1,"motif":"","motif_pos":-1,"best_pos":2,"similarity":0.579,"stretto":false,"stretto_voices":0,"combination":[],"aug_dim":"","rhythm_ratio":1.0,"mirror":false,"chromatic_density":0.556,"complexity":0.405,"dissonance":0.225},{"voice":2,"pitch":57,"start":13.5652,"duration":0.5217,"velocity":127,"measure":7,"beat":3.0,"subject_pos":5,"motif":"subject","motif_pos":5,"best_pos":5,"similarity":1.0,"stretto":false,"stretto_voices":0,"combination":[],"aug_dim":"","rhythm_ratio":1.0,"mirror":false,"chromatic_density":0.556,"complexity":0.405,"dissonance":0.225},{"voice":3,"pitch":48,"start":13.5652,"duration":0.3913,"velocity":127,"measure":7,"beat":3.0,"subject_pos":-1,"motif":"","motif_pos":-1,"best_pos":3,"similarity":0.593,"stretto":false,"stretto_voices":0,"combination":[],"aug_dim":"","rhythm_ratio":1.0,"mirror":false,"chromatic_density":0.556,"complexity":0.405,"dissonance":0.225},{"voice":3,"pitch":47,"start":13.9565,"duration":0.1304,"velocity":127,"measure":7,"beat":3.75,"subject_pos":-1,"motif":"","motif_pos":-1,"best_pos":4,"similarity":0.543,"stretto":false,"stretto_voices":0,"combination":[],"aug_dim":"","rhythm_ratio":1.0,"mirror":false,"chromatic_density":0.556,"complexity":0.405,"dissonance":0.225},{"voice":2,"pitch":59,"start":14.087,"duration":0.5217,"velocity":127,"measure":7,"beat":4.0,"subject_pos":6,"motif":"subject","motif_pos":6,"best_pos":6,"similarity":1.0,"stretto":false,"stretto_voices":0,"combination":[],"aug_dim":"","rhythm_ratio":1.0,"mirror":false,"chromatic_density":0.556,"complexity":0.405,"dissonance":0.225},{"voice":3,"pitch":45,"start":14.087,"duration":0.3913,"velocity":127,"measure":7,"beat":4.0,"subject_pos":-1,"motif":"","motif_pos":-1,"best_pos":3,"similarity":0.643,"stretto":false,"stretto_voices":0,"combination":[],"aug_dim":"","rhythm_ratio":1.0,"mirror":false,"chromatic_density":0.556,"complexity":0.405,"dissonance":0.225},{"voice":3,"pitch":44,"start":14.4783,"duration":0.1304,"velocity":127,"measure":7,"beat":4.75,"subject_pos":-1,"motif":"","motif_pos":-1,"best_pos":4,"similarity":0.696,"stretto":false,"stretto_voices":0,"combination":[],"aug_dim":"","rhythm_ratio":1.0,"mirror":false,"chromatic_density":0.556,"complexity":0.405,"dissonance":0.225},{"voice":2,"pitch":60,"start":14.6087,"duration":1.4348,"velocity":127,"measure":8,"beat":1.0,"subject_pos":7,"motif":"subject","motif_pos":7,"best_pos":7,"similarity":1.0,"stretto":false,"stretto_voices":0,"combination":[],"aug_dim":"","rhythm_ratio":1.0,"mirror":false,"chromatic_density":0.25,"complexity":0.495,"dissonance":0.062},{"voice":3,"pitch":45,"start":14.6087,"duration":0.3913,"velocity":127,"measure":8,"beat":1.0,"subject_pos":-1,"motif":"","motif_pos":-1,"best_pos":5,"similarity":0.5,"stretto":false,"stretto_voices":0,"combination":[],"aug_dim":"","rhythm_ratio":1.0,"mirror":false,"chromatic_density":0.25,"complexity":0.495,"dissonance":0.062},{"voice":3,"pitch":57,"start":15.0,"duration":0.1304,"velocity":127,"measure":8,"beat":1.75,"subject_pos":-1,"motif":"","motif_pos":-1,"best_pos":3,"similarity":0.443,"stretto":false,"stretto_voices":0,"combination":[],"aug_dim":"","rhythm_ratio":1.0,"mirror":false,"chromatic_density":0.25,"complexity":0.495,"dissonance":0.062},{"voice":3,"pitch":56,"start":15.1304,"duration":0.3913,"velocity":127,"measure":8,"beat":2.0,"subject_pos":-1,"motif":"","motif_pos":-1,"best_pos":4,"similarity":0.586,"stretto":false,"stretto_voices":0,"combination":[],"aug_dim":"","rhythm_ratio":1.0,"mirror":false,"chromatic_density":0.25,"complexity":0.495,"dissonance":0.062},{"voice":3,"pitch":57,"start":15.5217,"duration":0.1304,"velocity":127,"measure":8,"beat":2.75,"subject_pos":-1,"motif":"","motif_pos":-1,"best_pos":5,"similarity":0.443,"stretto":false,"stretto_voices":0,"combination":[],"aug_dim":"","rhythm_ratio":1.0,"mirror":false,"chromatic_density":0.25,"complexity":0.495,"dissonance":0.062},{"voice":3,"pitch":50,"start":15.6522,"duration":0.5217,"velocity":127,"measure":8,"beat":3.0,"subject_pos":-1,"motif":"head","motif_pos":0,"best_pos":0,"similarity":1.0,"stretto":false,"stretto_voices":0,"combination":[],"aug_dim":"","rhythm_ratio":1.0,"mirror":false,"chromatic_density":0.25,"complexity":0.495,"dissonance":0.062},{"voice":2,"pitch":62,"start":16.0435,"duration":0.1304,"velocity":127,"measure":8,"beat":3.75,"subject_pos":-1,"motif":"","motif_pos":-1,"best_pos":6,"similarity":0.464,"stretto":false,"stretto_voices":0,"combination":[],"aug_dim":"","rhythm_ratio":1.0,"mirror":false,"chromatic_density":0.25,"complexity":0.495,"dissonance":0.062},{"voice":2,"pitch":60,"start":16.1739,"duration":0.3913,"velocity":127,"measure":8,"beat":4.0,"subject_pos":-1,"motif":"","motif_pos":-1,"best_pos":2,"similarity":0.586,"stretto":false,"stretto_voices":0,"combination":[],"aug_dim":"","rhythm_ratio":1.0,"mirror":false,"chromatic_density":0.25,"complexity":0.495,"dissonance":0.062},{"voice":3,"pitch":55,"start":16.1739,"duration":0.913,"velocity":127,"measure":8,"beat":4.0,"subject_pos":-1,"motif":"head","motif_pos":1,"best_pos":1,"similarity":1.0,"stretto":false,"stretto_voices":0,"combination":[],"aug_dim":"","rhythm_ratio":1.0,"mirror":false,"chromatic_density":0.25,"complexity":0.495,"dissonance":0.062},{"voice":2,"pitch":58,"start":16.5652,"duration":0.1304,"velocity":127,"measure":8,"beat":4.75,"subject_pos":-1,"motif":"","motif_pos":-1,"best_pos":3,"similarity":0.586,"stretto":false,"stretto_voices":0,"combination":[],"aug_dim":"","rhythm_ratio":1.0,"mirror":false,"chromatic_density":0.25,"complexity":0.495,"dissonance":0.062},{"voice":1,"pitch":62,"start":16.6956,"duration":1.0435,"velocity":127,"measure":9,"beat":1.0,"subject_pos":0,"motif":"subject","motif_pos":0,"best_pos":0,"similarity":1.0,"stretto":false,"stretto_voices":0,"combination":[],"aug_dim":"","rhythm_ratio":1.0,"mirror":false,"chromatic_density":0.429,"complexity":0.561,"dissonance":0.105},{"voice":2,"pitch":57,"start":16.6956,"duration":1.4348,"velocity":127,"measure":9,"beat":1.0,"subject_pos":-1,"motif":"","motif_pos":-1,"best_pos":4,"similarity":0.461,"stretto":false,"stretto_voices":0,"combination":[],"aug_dim":"","rhythm_ratio":1.0,"mirror":false,"chromatic_density":0.429,"complexity":0.561,"dissonance":0.105},{"voice":3,"pitch":53,"start":17.087,"duration":0.1304,"velocity":127,"measure":9,"beat":1.75,"subject_pos":-1,"motif":"head","motif_pos":2,"best_pos":2,"similarity":1.0,"stretto":false,"stretto_voices":0,"combination":[],"aug_dim":"","rhythm_ratio":1.0,"mirror":false,"chromatic_density":0.429,"complexity":0.561,"dissonance":0.105},{"voice":3,"pitch":52,"start":17.2174,"duration":0.3913,"velocity":127,"measure":9,"beat":2.0,"subject_pos":-1,"motif":"head","motif_pos":3,"best_pos":3,"similarity":1.0,"stretto":false,"stretto_voices":0,"combination":[],"aug_dim":"","rhythm_ratio":1.0,"mirror":false,"chromatic_density":0.429,"complexity":0.561,"dissonance":0.105},{"voice":3,"pitch":50,"start":17.6087,"duration":0.1304,"velocity":127,"measure":9,"beat":2.75,"subject_pos":-1,"motif":"head","motif_pos":4,"best_pos":4,"similarity":1.0,"stretto":false,"stretto_voices":0,"combination":[],"aug_dim":"","rhythm_ratio":1.0,"mirror":false,"chromatic_density":0.429,"complexity":0.561,"dissonance":0.105},{"voice":1,"pitch":69,"start":17.7391,"duration":1.0435,"velocity":127,"measure":9,"beat":3.0,"subject_pos":1,"motif":"subject","motif_pos":1,"best_pos":1,"similarity":1.0,"stretto":false,"stretto_voices":0,"combination":[],"aug_dim":"","rhythm_ratio":1.0,"mirror":false,"chromatic_density":0.429,"complexity":0.561,"dissonance":0.105},{"voice":3,"pitch":49,"start":17.7391,"duration":1.0435,"velocity":127,"measure":9,"beat":3.0,"subject_pos":-1,"motif":"","motif_pos":-1,"best_pos":4,"similarity":0.686,"stretto":false,"stretto_voices":0,"combination":[],"aug_dim":"","rhythm_ratio":1.0,"mirror":false,"chromatic_density":0.429,"complexity":0.561,"dissonance":0.105},{"voice":2,"pitch":67,"start":18.1304,"duration":0.1304,"velocity":127,"measure":9,"beat":3.75,"subject_pos":-1,"motif":"","motif_pos":-1,"best_pos":1,"similarity":0.386,"stretto":false,"stretto_voices":0,"combination":[],"aug_dim":"","rhythm_ratio":1.0,"mirror":false,"chromatic_density":0.429,"complexity":0.561,"dissonance":0.105},{"voice":2,"pitch":65,"start":18.2609,"duration":0.3913,"velocity":127,"measure":9,"beat":4.0,"subject_pos":-1,"motif":"","motif_pos":-1,"best_pos":2,"similarity":0.45,"stretto":false,"stretto_voices":0,"combination":[],"aug_dim":"","rhythm_ratio":1.0,"mirror":false,"chromatic_density":0.429,"complexity":0.561,"dissonance":0.105},{"voice":2,"pitch":64,"start":18.6522,"duration":0.1304,"velocity":127,"measure":9,"beat":4.75,"subject_pos":-1,"motif":"","motif_pos":-1,"best_pos":4,"similarity":0.407,"stretto":false,"stretto_voices":0,"combination":[],"aug_dim":"","rhythm_ratio":1.0,"mirror":false,"chromatic_density":0.429,"complexity":0.561,"dissonance":0.105},{"voice":1,"pitch":65,"start":18.7826,"duration":1.0435,"velocity":127,"measure":10,"beat":1.0,"subject_pos":2,"motif":"subject","motif_pos":2,"best_pos":2,"similarity":1.0,"stretto":false,"stretto_voices":0,"combination":[],"aug_dim":"","rhythm_ratio":1.0,"mirror":false,"chromatic_density":0.333,"complexity":0.563,"dissonance":0.021},{"voice":2,"pitch":62,"start":18.7826,"duration":0.3913,"velocity":127,"measure":10,"beat":1.0,"subject_pos":-1,"motif":"","motif_pos":-1,"best_pos":2,"similarity":0.518,"stretto":false,"stretto_voices":0,"combination":[],"aug_dim":"","rhythm_ratio":1.0,"mirror":false,"chromatic_density":0.333,"complexity":0.563,"dissonance":0.021},{"voice":3,"pitch":50,"start":18.7826,"duration":0.5217,"velocity":127,"measure":10,"beat":1.0,"subject_pos":-1,"motif":"","motif_pos":-1,"best_pos":5,"similarity":0.479,"stretto":false,"stretto_voices":0,"combination":[],"aug_dim":"","rhythm_ratio":1.0,"mirror":false,"chromatic_density":0.333,"complexity":0.563,"dissonance":0.021},{"voice":2,"pitch":60,"start":19.1739,"duration":0.1304,"velocity":127,"measure":10,"beat":1.75,"subject_pos":-1,"motif":"","motif_pos":-1,"best_pos":2,"similarity":0.643,"stretto":false,"stretto_voices":0,"combination":[],"aug_dim":"","rhythm_ratio":1.0,"mirror":false,"chromatic_density":0.333,"complexity":0.563,"dissonance":0.021},{"voice":2,"pitch":58,"start":19.3043,"duration":0.3913,"velocity":127,"measure":10,"beat":2.0,"subject_pos":-1,"motif":"","motif_pos":-1,"best_pos":3,"similarity":0.721,"stretto":false,"stretto_voices":0,"combination":[],"aug_dim":"","rhythm_ratio":1.0,"mirror":false,"chromatic_density":0.333,"complexity":0.563,"dissonance":0.021},{"voice":3,"pitch":38,"start":19.3043,"duration":0.5217,"velocity":127,"measure":10,"beat":2.0,"subject_pos":-1,"motif":"","motif_pos":-1,"best_pos":0,"similarity":0.307,"stretto":false,"stretto_voices":0,"combination":[],"aug_dim":"","rhythm_ratio":1.0,"mirror":false,"chromatic_density":0.333,"complexity":0.563,"dissonance":0.021},{"voice":2,"pitch":57,"start":19.6956,"duration":0.1304,"velocity":127,"measure":10,"beat":2.75,"subject_pos":-1,"motif":"","motif_pos":-1,"best_pos":4,"similarity":0.736,"stretto":false,"stretto_voices":0,"combination":[],"aug_dim":"","rhythm_ratio":1.0,"mirror":false,"chromatic_density":0.333,"complexity":0.563,"dissonance":0.021},{"voice":1,"pitch":62,"start":19.8261,"duration":1.0435,"velocity":127,"measure":10,"beat":3.0,"subject_pos":3,"motif":"subject","motif_pos":3,"best_pos":3,"similarity":1.0,"stretto":false,"stretto_voices":0,"combination":[],"aug_dim":"","rhythm_ratio":1.0,"mirror":false,"chromatic_density":0.333,"complexity":0.563,"dissonance":0.021},{"voice":2,"pitch":58,"start":19.8261,"duration":0.3913,"velocity":127,"measure":10,"beat":3.0,"subject_pos":-1,"motif":"","motif_pos":-1,"best_pos":5,"similarity":0.507,"stretto":false,"stretto_voices":0,"combination":[],"aug_dim":"","rhythm_ratio":1.0,"mirror":false,"chromatic_density":0.333,"complexity":0.563,"dissonance":0.021},{"voice":3,"pitch":43,"start":19.8261,"duration":0.3913,"velocity":127,"measure":10,"beat":3.0,"subject_pos":-1,"motif":"","motif_pos":-1,"best_pos":5,"similarity":0.464,"stretto":false,"stretto_voices":0,"combination":[],"aug_dim":"","rhythm_ratio":1.0,"mirror":false,"chromatic_density":0.333,"complexity":0.563,"dissonance":0.021},{"voice":2,"pitch":57,"start":20.2174,"duration":0.1304,"velocity":127,"measure":10,"beat":3.75,"subject_pos":-1,"motif":"","motif_pos":-1,"best_pos":1,"similarity":0.429,"stretto":false,"stretto_voices":0,"combination":[],"aug_dim":"","rhythm_ratio":1.0,"mirror":false,"chromatic_density":0.333,"complexity":0.563,"dissonance":0.021},{"voice":3,"pitch":45,"start":20.2174,"duration":0.1304,"velocity":127,"measure":10,"beat":3.75,"subject_pos":-1,"motif":"","motif_pos":-1,"best_pos":6,"similarity":0.586,"stretto":false,"stretto_voices":0,"combination":[],"aug_dim":"","rhythm_ratio":1.0,"mirror":false,"chromatic_density":0.333,"complexity":0.563,"dissonance":0.021},{"voice":2,"pitch":55,"start":20.3478,"duration":0.3913,"velocity":127,"measure":10,"beat":4.0,"subject_pos":-1,"motif":"","motif_pos":-1,"best_pos":2,"similarity":0.579,"stretto":false,"stretto_voices":0,"combination":[],"aug_dim":"","rhythm_ratio":1.0,"mirror":false,"chromatic_density":0.333,"complexity":0.563,"dissonance":0.021},{"voice":3,"pitch":46,"start":20.3478,"duration":0.913,"velocity":127,"measure":10,"beat":4.0,"subject_pos":-1,"motif":"","motif_pos":-1,"best_pos":7,"similarity":0.436,"stretto":false,"stretto_voices":0,"combination":[],"aug_dim":"","rhythm_ratio":1.0,"mirror":false,"chromatic_density":0.333,"complexity":0.563,"dissonance":0.021},{"voice":2,"pitch":53,"start":20.7391,"duration":0.1304,"velocity":127,"measure":10,"beat":4.75,"subject_pos":-1,"motif":"enigmatic_cell","motif_pos":0,"best_pos":0,"similarity":1.0,"stretto":false,"stretto_voices":0,"combination":[],"aug_dim":"","rhythm_ratio":1.0,"mirror":false,"chromatic_density":0.333,"complexity":0.563,"dissonance":0.021},{"voice":1,"pitch":61,"start":20.8696,"duration":1.0435,"velocity":127,"measure":11,"beat":1.0,"subject_pos":4,"motif":"subject","motif_pos":4,"best_pos":4,"similarity":1.0,"stretto":false,"stretto_voices":0,"combination":[],"aug_dim":"","rhythm_ratio":1.0,"mirror":false,"chromatic_density":0.333,"complexity":0.531,"dissonance":0.082},{"voice":2,"pitch":52,"start":20.8696,"duration":1.0435,"velocity":127,"measure":11,"beat":1.0,"subject_pos":-1,"motif":"enigmatic_cell","motif_pos":1,"best_pos":1,"similarity":1.0,"stretto":false,"stretto_voices":0,"combination":[],"aug_dim":"","rhythm_ratio":1.0,"mirror":false,"chromatic_density":0.333,"complexity":0.531,"dissonance":0.082},{"voice":3,"pitch":46,"start":21.2609,"duration":0.1304,"velocity":127,"measure":11,"beat":1.75,"subject_pos":-1,"motif":"","motif_pos":-1,"best_pos":3,"similarity":0.357,"stretto":false,"stretto_voices":0,"combination":[],"aug_dim":"","rhythm_ratio":1.0,"mirror":false,"chromatic_density":0.333,"complexity":0.531,"dissonance":0.082},{"voice":3,"pitch":45,"start":21.3913,"duration":0.3913,"velocity":127,"measure":11,"beat":2.0,"subject_pos":-1,"motif":"","motif_pos":-1,"best_pos":1,"similarity":0.429,"stretto":false,"stretto_voices":0,"combination":[],"aug_dim":"","rhythm_ratio":1.0,"mirror":false,"chromatic_density":0.333,"complexity":0.531,"dissonance":0.082},{"voice":3,"pitch":43,"start":21.7826,"duration":0.1304,"velocity":127,"measure":11,"beat":2.75,"subject_pos":-1,"motif":"","motif_pos":-1,"best_pos":2,"similarity":0.579,"stretto":false,"stretto_voices":0,"combination":[],"aug_dim":"","rhythm_ratio":1.0,"mirror":false,"chromatic_density":0.333,"complexity":0.531,"dissonance":0.082},{"voice":1,"pitch":62,"start":21.913,"duration":0.5217,"velocity":127,"measure":11,"beat":3.0,"subject_pos":5,"motif":"subject","motif_pos":5,"best_pos":5,"similarity":1.0,"stretto":false,"stretto_voices":0,"combination":[],"aug_dim":"","rhythm_ratio":1.0,"mirror":false,"chromatic_density":0.333,"complexity":0.531,"dissonance":0.082},{"voice":3,"pitch":41,"start":21.913,"duration":0.5217,"velocity":127,"measure":11,"beat":3.0,"subject_pos":-1,"motif":"","motif_pos":-1,"best_pos":3,"similarity":0.586,"stretto":false,"stretto_voices":0,"combination":[],"aug_dim":"","rhythm_ratio":1.0,"mirror":false,"chromatic_density":0.333,"complexity":0.531,"dissonance":0.082},{"voice":2,"pitch":57,"start":22.3043,"duration":0.1304,"velocity":127,"measure":11,"beat":3.75,"subject_pos":-1,"motif":"enigmatic_cell","motif_pos":2,"best_pos":2,"similarity":1.0,"stretto":false,"stretto_voices":0,"combination":[],"aug_dim":"","rhythm_ratio":1.0,"mirror":false,"chromatic_density":0.333,"complexity":0.531,"dissonance":0.082},{"voice":1,"pitch":64,"start":22.4348,"duration":0.5217,"velocity":127,"measure":11,"beat":4.0,"subject_pos":6,"motif":"subject","motif_pos":6,"best_pos":6,"similarity":1.0,"stretto":false,"stretto_voices":0,"combination":[],"aug_dim":"","rhythm_ratio":1.0,"mirror":false,"chromatic_density":0.333,"complexity":0.531,"dissonance":0.082},{"voice":2,"pitch":59,"start":22.4348,"duration":0.3913,"velocity":127,"measure":11,"beat":4.0,"subject_pos":-1,"motif":"","motif_pos":-1,"best_pos":5,"similarity":0.589,"stretto":false,"stretto_voices":0,"combination":[],"aug_dim":"","rhythm_ratio":1.0,"mirror":false,"chromatic_density":0.333,"complexity":0.531,"dissonance":0.082},{"voice":3,"pitch":40,"start":22.4348,"duration":0.5217,"velocity":127,"measure":11,"beat":4.0,"subject_pos":-1,"motif":"","motif_pos":-1,"best_pos":4,"similarity":0.493,"stretto":false,"stretto_voices":0,"combination":[],"aug_dim":"","rhythm_ratio":1.0,"mirror":false,"chromatic_density":0.333,"complexity":0.531,"dissonance":0.082},{"voice":2,"pitch":61,"start":22.8261,"duration":0.1304,"velocity":127,"measure":11,"beat":4.75,"subject_pos":-1,"motif":"","motif_pos":-1,"best_pos":6,"similarity":0.643,"stretto":false,"stretto_voices":0,"combination":[],"aug_dim":"","rhythm_ratio":1.0,"mirror":false,"chromatic_density":0.333,"complexity":0.531,"dissonance":0.082},{"voice":1,"pitch":65,"start":22.9565,"duration":1.4348,"velocity":127,"measure":12,"beat":1.0,"subject_pos":7,"motif":"subject","motif_pos":7,"best_pos":7,"similarity":1.0,"stretto":false,"stretto_voices":0,"combination":[],"aug_dim":"","rhythm_ratio":1.0,"mirror":false,"chromatic_density":0.364,"complexity":0.539,"dissonance":0.212},{"voice":2,"pitch":62,"start":22.9565,"duration":1.5652,"velocity":127,"measure":12,"beat":1.0,"subject_pos":-1,"motif":"tail","motif_pos":3,"best_pos":3,"similarity":1.0,"stretto":false,"stretto_voices":0,"combination":[],"aug_dim":"","rhythm_ratio":1.0,"mirror":false,"chromatic_density":0.364,"complexity":0.539,"dissonance":0.212},{"voice":3,"pitch":38,"start":22.9565,"duration":0.3913,"velocity":127,"measure":12,"beat":1.0,"subject_pos":-1,"motif":"","motif_pos":-1,"best_pos":4,"similarity":0.464,"stretto":false,"stretto_voices":0,"combination":[],"aug_dim":"","rhythm_ratio":1.0,"mirror":false,"chromatic_density":0.364,"complexity":0.539,"dissonance":0.212},{"voice":3,"pitch":50,"start":23.3478,"duration":0.1304,"velocity":127,"measure":12,"beat":1.75,"subject_pos":-1,"motif":"","motif_pos":-1,"best_pos":5,"similarity":0.518,"stretto":false,"stretto_voices":0,"combination":[],"aug_dim":"","rhythm_ratio":1.0,"mirror":false,"chromatic_density":0.364,"complexity":0.539,"dissonance":0.212},{"voice":3,"pitch":52,"start":23.4783,"duration":0.3913,"velocity":127,"measure":12,"beat":2.0,"subject_pos":-1,"motif":"","motif_pos":-1,"best_pos":6,"similarity":0.607,"stretto":false,"stretto_voices":0,"combination":[],"aug_dim":"","rhythm_ratio":1.0,"mirror":false,"chromatic_density":0.364,"complexity":0.539,"dissonance":0.212},{"voice":3,"pitch":53,"start":23.8696,"duration":0.1304,"velocity":127,"measure":12,"beat":2.75,"subject_pos":-1,"motif":"","motif_pos":-1,"best_pos":5,"similarity":0.621,"stretto":false,"stretto_voices":0,"combination":[],"aug_dim":"","rhythm_ratio":1.0,"mirror":false,"chromatic_density":0.364,"complexity":0.539,"dissonance":0.212},{"voice":3,"pitch":55,"start":24.0,"duration":0.3913,"velocity":127,"measure":12,"beat":3.0,"subject_pos":-1,"motif":"","motif_pos":-1,"best_pos":6,"similarity":0.507,"stretto":false,"stretto_voices":0,"combination":[],"aug_dim":"","rhythm_ratio":1.0,"mirror":false,"chromatic_density":0.364,"complexity":0.539,"dissonance":0.212},{"voice":1,"pitch":67,"start":24.3913,"duration":0.1304,"velocity":127,"measure":12,"beat":3.75,"subject_pos":-1,"motif":"","motif_pos":-1,"best_pos":6,"similarity":0.464,"stretto":false,"stretto_voices":0,"combination":[],"aug_dim":"","rhythm_ratio":1.0,"mirror":false,"chromatic_density":0.364,"complexity":0.539,"dissonance":0.212},{"voice":3,"pitch":58,"start":24.3913,"duration":0.1304,"velocity":127,"measure":12,"beat":3.75,"subject_pos":-1,"motif":"","motif_pos":-1,"best_pos":3,"similarity":0.329,"stretto":false,"stretto_voices":0,"combination":[],"aug_dim":"","rhythm_ratio":1.0,"mirror":false,"chromatic_density":0.364,"complexity":0.539,"dissonance":0.212},{"voice":1,"pitch":65,"start":24.5217,"duration":0.3913,"velocity":127,"measure":12,"beat":4.0,"subject_pos":-1,"motif":"","motif_pos":-1,"best_pos":3,"similarity":0.536,"stretto":false,"stretto_voices":0,"combination":[],"aug_dim":"","rhythm_ratio":1.0,"mirror":false,"chromatic_density":0.364,"complexity":0.539,"dissonance":0.212},{"voice":2,"pitch":61,"start":24.5217,"duration":0.5217,"velocity":127,"measure":12,"beat":4.0,"subject_pos":-1,"motif":"tail","motif_pos":4,"best_pos":4,"similarity":1.0,"stretto":false,"stretto_voices":0,"combination":[],"aug_dim":"","rhythm_ratio":1.0,"mirror":false,"chromatic_density":0.364,"complexity":0.539,"dissonance":0.212},{"voice":3,"pitch":57,"start":24.5217,"duration":0.3913,"velocity":127,"measure":12,"beat":4.0,"subject_pos":-1,"motif":"","motif_pos":-1,"best_pos":2,"similarity":0.429,"stretto":false,"stretto_voices":0,"combination":[],"aug_dim":"","rhythm_ratio":1.0,"mirror":false,"chromatic_density":0.364,"complexity":0.539,"dissonance":0.212},{"voice":1,"pitch":64,"start":24.913,"duration":0.1304,"velocity":127,"measure":12,"beat":4.75,"subject_pos":-1,"motif":"","motif_pos":-1,"best_pos":4,"similarity":0.607,"stretto":false,"stretto_voices":0,"combination":[],"aug_dim":"","rhythm_ratio":1.0,"mirror":false,"chromatic_density":0.364,"complexity":0.539,"dissonance":0.212},{"voice":3,"pitch":55,"start":24.913,"duration":0.1304,"velocity":127,"measure":12,"beat":4.75,"subject_pos":-1,"motif":"","motif_pos":-1,"best_pos":3,"similarity":0.454,"stretto":false,"stretto_voices":0,"combination":[],"aug_dim":"","rhythm_ratio":1.0,"mirror":false,"chromatic_density":0.364,"complexity":0.539,"dissonance":0.212},{"voice":0,"pitch":69,"start":25.0435,"duration":1.0435,"velocity":127,"measure":13,"beat":1.0,"subject_pos":0,"motif":"subject","motif_pos":0,"best_pos":0,"similarity":1.0,"stretto":false,"stretto_voices":0,"combination":[],"aug_dim":"","rhythm_ratio":1.0,"mirror":false,"chromatic_density":0.286,"complexity":0.621,"dissonance":0.125},{"voice":1,"pitch":62,"start":25.0435,"duration":0.3913,"velocity":127,"measure":13,"beat":1.0,"subject_pos":-1,"motif":"","motif_pos":-1,"best_pos":5,"similarity":0.636,"stretto":false,"stretto_voices":0,"combination":[],"aug_dim":"","rhythm_ratio":1.0,"mirror":false,"chromatic_density":0.286,"complexity":0.621,"dissonance":0.125},{"voice":2,"pitch":62,"start":25.0435,"duration":0.7826,"velocity":127,"measure":13,"beat":1.0,"subject_pos":-1,"motif":"tail","motif_pos":5,"best_pos":5,"similarity":1.0,"stretto":false,"stretto_voices":0,"combination":[],"aug_dim":"","rhythm_ratio":1.0,"mirror":false,"chromatic_density":0.286,"complexity":0.621,"dissonance":0.125},{"voice":3,"pitch":53,"start":25.0435,"duration":0.3913,"velocity":127,"measure":13,"beat":1.0,"subject_pos":-1,"motif":"","motif_pos":-1,"best_pos":4,"similarity":0.425,"stretto":false,"stretto_voices":0,"combination":[],"aug_dim":"","rhythm_ratio":1.0,"mirror":false,"chromatic_density":0.286,"complexity":0.621,"dissonance":0.125},{"voice":1,"pitch":64,"start":25.4348,"duration":0.1304,"velocity":127,"measure":13,"beat":1.75,"subject_pos":-1,"motif":"","motif_pos":-1,"best_pos":6,"similarity":0.657,"stretto":false,"stretto_voices":0,"combination":[],"aug_dim":"","rhythm_ratio":1.0,"mirror":false,"chromatic_density":0.286,"complexity":0.621,"dissonance":0.125},{"voice":3,"pitch":55,"start":25.4348,"duration":0.1304,"velocity":127,"measure":13,"beat":1.75,"subject_pos":-1,"motif":"","motif_pos":-1,"best_pos":1,"similarity":0.386,"stretto":false,"stretto_voices":0,"combination":[],"aug_dim":"","rhythm_ratio":1.0,"mirror":false,"chromatic_density":0.286,"complexity":0.621,"dissonance":0.125},{"voice":1,"pitch":65,"start":25.5652,"duration":0.3913,"velocity":127,"measure":13,"beat":2.0,"subject_pos":-1,"motif":"","motif_pos":-1,"best_pos":5,"similarity":0.693,"stretto":false,"stretto_voices":0,"combination":[],"aug_dim":"","rhythm_ratio":1.0,"mirror":false,"chromatic_density":0.286,"complexity":0.621,"dissonance":0.125},{"voice":3,"pitch":53,"start":25.5652,"duration":0.3913,"velocity":127,"measure":13,"beat":2.0,"subject_pos":-1,"motif":"","motif_pos":-1,"best_pos":3,"similarity":0.529,"stretto":false,"stretto_voices":0,"combination":[],"aug_dim":"","rhythm_ratio":1.0,"mirror":false,"chromatic_density":0.286,"complexity":0.621,"dissonance":0.125},{"voice":1,"pitch":67,"start":25.9565,"duration":0.1304,"velocity":127,"measure":13,"beat":2.75,"subject_pos":-1,"motif":"","motif_pos":-1,"best_pos":6,"similarity":0.579,"stretto":false,"stretto_voices":0,"combination":[],"aug_dim":"","rhythm_ratio":1.0,"mirror":false,"chromatic_density":0.286,"complexity":0.621,"dissonance":0.125},{"voice":2,"pitch":64,"start":25.9565,"duration":0.1304,"velocity":127,"measure":13,"beat":2.75,"subject_pos":-1,"motif":"tail","motif_pos":6,"best_pos":6,"similarity":1.0,"stretto":false,"stretto_voices":0,"combination":[],"aug_dim":"","rhythm_ratio":1.0,"mirror":false,"chromatic_density":0.286,"complexity":0.621,"dissonance":0.125},{"voice":3,"pitch":52,"start":25.9565,"duration":0.1304,"velocity":127,"measure":13,"beat":2.75,"subject_pos":-1,"motif":"","motif_pos":-1,"best_pos":4,"similarity":0.607,"stretto":false,"stretto_voices":0,"combination":[],"aug_dim":"","rhythm_ratio":1.0,"mirror":false,"chromatic_density":0.286,"complexity":0.621,"dissonance":0.125},{"voice":0,"pitch":74,"start":26.087,"duration":1.0435,"velocity":127,"measure":13,"beat":3.0,"subject_pos":1,"motif":"subject","motif_pos":1,"best_pos":1,"similarity":1.0,"stretto":false,"stretto_voices":0,"combination":[],"aug_dim":"","rhythm_ratio":1.0,"mirror":false,"chromatic_density":0.286,"complexity":0.621,"dissonance":0.125},{"voice":1,"pitch":69,"start":26.087,"duration":1.4348,"velocity":127,"measure":13,"beat":3.0,"subject_pos":-1,"motif":"","motif_pos":-1,"best_pos":1,"similarity":0.457,"stretto":false,"stretto_voices":0,"combination":[],"aug_dim":"","rhythm_ratio":1.0,"mirror":false,"chromatic_density":0.286,"complexity":0.621,"dissonance":0.125},{"voice":2,"pitch":65,"start":26.087,"duration":1.0435,"velocity":127,"measure":13,"beat":3.0,"subject_pos":-1,"motif":"tail","motif_pos":7,"best_pos":7,"similarity":1.0,"stretto":false,"stretto_voices":0,"combination":[],"aug_dim":"","rhythm_ratio":1.0,"mirror":false,"chromatic_density":0.286,"complexity":0.621,"dissonance":0.125},{"voice":3,"pitch":50,"start":26.087,"duration":0.3913,"velocity":127,"measure":13,"beat":3.0,"subject_pos":-1,"motif":"","motif_pos":-1,"best_pos":5,"similarity":0.636,"stretto":false,"stretto_voices":0,"combination":[],"aug_dim":"","rhythm_ratio":1.0,"mirror":false,"chromatic_density":0.286,"complexity":0.621,"dissonance":0.125},{"voice":3,"pitch":52,"start":26.4783,"duration":0.1304,"velocity":127,"measure":13,"beat":3.75,"subject_pos":-1,"motif":"","motif_pos":-1,"best_pos":6,"similarity":0.657,"stretto":false,"stretto_voices":0,"combination":[],"aug_dim":"","rhythm_ratio":1.0,"mirror":false,"chromatic_density":0.286,"complexity":0.621,"dissonance":0.125},{"voice":3,"pitch":53,"start":26.6087,"duration":0.3913,"velocity":127,"measure":13,"beat":4.0,"subject_pos":-1,"motif":"","motif_pos":-1,"best_pos":5,"similarity":0.693,"stretto":false,"stretto_voices":0,"combination":[],"aug_dim":"","rhythm_ratio":1.0,"mirror":false,"chromatic_density":0.286,"complexity":0.621,"dissonance":0.125},{"voice":3,"pitch":55,"start":27.0,"duration":0.1304,"velocity":127,"measure":13,"beat":4.75,"subject_pos":-1,"motif":"","motif_pos":-1,"best_pos":6,"similarity":0.579,"stretto":false,"stretto_voices":0,"combination":[],"aug_dim":"","rhythm_ratio":1.0,"mirror":false,"chromatic_density":0.286,"complexity":0.621,"dissonance":0.125},{"voice":0,"pitch":72,"start":27.1304,"duration":1.0435,"velocity":127,"measure":14,"beat":1.0,"subject_pos":2,"motif":"subject","motif_pos":2,"best_pos":2,"similarity":1.0,"stretto":false,"stretto_voices":0,"combination":[],"aug_dim":"","rhythm_ratio":1.0,"mirror":false,"chromatic_density":0.333,"complexity":0.58,"dissonance":0.011},{"voice":2,"pitch":64,"start":27.1304,"duration":0.5217,"velocity":127,"measure":14,"beat":1.0,"subject_pos":-1,"motif":"","motif_pos":-1,"best_pos":1,"similarity":0.436,"stretto":false,"stretto_voices":0,"combination":[],"aug_dim":"","rhythm_ratio":1.0,"mirror":false,"chromatic_density":0.333,"complexity":0.58,"dissonance":0.011},{"voice":3,"pitch":57,"start":27.1304,"duration":1.0435,"velocity":127,"measure":14,"beat":1.0,"subject_pos":-1,"motif":"","motif_pos":-1,"best_pos":1,"similarity":0.4,"stretto":false,"stretto_voices":0,"combination":[],"aug_dim":"","rhythm_ratio":1.0,"mirror":false,"chromatic_density":0.333,"complexity":0.58,"dissonance":0.011},{"voice":1,"pitch":67,"start":27.5217,"duration":0.1304,"velocity":127,"measure":14,"beat":1.75,"subject_pos":-1,"motif":"","motif_pos":-1,"best_pos":2,"similarity":0.657,"stretto":false,"stretto_voices":0,"combination":[],"aug_dim":"","rhythm_ratio":1.0,"mirror":false,"chromatic_density":0.333,"complexity":0.58,"dissonance":0.011},{"voice":1,"pitch":65,"start":27.6522,"duration":0.3913,"velocity":127,"measure":14,"beat":2.0,"subject_pos":-1,"motif":"","motif_pos":-1,"best_pos":3,"similarity":0.729,"stretto":false,"stretto_voices":0,"combination":[],"aug_dim":"","rhythm_ratio":1.0,"mirror":false,"chromatic_density":0.333,"complexity":0.58,"dissonance":0.011},{"voice":2,"pitch":60,"start":27.6522,"duration":1.0435,"velocity":127,"measure":14,"beat":2.0,"subject_pos":-1,"motif":"","motif_pos":-1,"best_pos":2,"similarity":0.586,"stretto":false,"stretto_voices":0,"combination":[],"aug_dim":"","rhythm_ratio":1.0,"mirror":false,"chromatic_density":0.333,"complexity":0.58,"dissonance":0.011},{"voice":1,"pitch":64,"start":28.0435,"duration":0.5217,"velocity":127,"measure":14,"beat":2.75,"subject_pos":-1,"motif":"","motif_pos":-1,"best_pos":4,"similarity":0.736,"stretto":false,"stretto_voices":0,"combination":[],"aug_dim":"","rhythm_ratio":1.0,"mirror":false,"chromatic_density":0.333,"complexity":0.58,"dissonance":0.011},{"voice":0,"pitch":69,"start":28.1739,"duration":1.0435,"velocity":127,"measure":14,"beat":3.0,"subject_pos":3,"motif":"subject","motif_pos":3,"best_pos":3,"similarity":1.0,"stretto":false,"stretto_voices":0,"combination":[],"aug_dim":"","rhythm_ratio":1.0,"mirror":false,"chromatic_density":0.333,"complexity":0.58,"dissonance":0.011},{"voice":3,"pitch":53,"start":28.1739,"duration":1.4348,"velocity":127,"measure":14,"beat":3.0,"subject_pos":-1,"motif":"","motif_pos":-1,"best_pos":2,"similarity":0.479,"stretto":false,"stretto_voices":0,"combination":[],"aug_dim":"","rhythm_ratio":1.0,"mirror":false,"chromatic_density":0.333,"complexity":0.58,"dissonance":0.011},{"voice":1,"pitch":65,"start":28.5652,"duration":0.1304,"velocity":127,"measure":14,"beat":3.75,"subject_pos":-1,"motif":"","motif_pos":-1,"best_pos":5,"similarity":0.507,"stretto":false,"stretto_voices":0,"combination":[],"aug_dim":"","rhythm_ratio":1.0,"mirror":false,"chromatic_density":0.333,"complexity":0.58,"dissonance":0.011},{"voice":1,"pitch":64,"start":28.6956,"duration":0.3913,"velocity":127,"measure":14,"beat":4.0,"subject_pos":-1,"motif":"","motif_pos":-1,"best_pos":4,"similarity":0.436,"stretto":false,"stretto_voices":0,"combination":[],"aug_dim":"","rhythm_ratio":1.0,"mirror":false,"chromatic_density":0.333,"complexity":0.58,"dissonance":0.011},{"voice":2,"pitch":57,"start":28.6956,"duration":0.5217,"velocity":127,"measure":14,"beat":4.0,"subject_pos":-1,"motif":"","motif_pos":-1,"best_pos":3,"similarity":0.529,"stretto":false,"stretto_voices":0,"combination":[],"aug_dim":"","rhythm_ratio":1.0,"mirror":false,"chromatic_density":0.333,"complexity":0.58,"dissonance":0.011},{"voice":1,"pitch":62,"start":29.0869,"duration":0.5217,"velocity":127,"measure":14,"beat":4.75,"subject_pos":-1,"motif":"","motif_pos":-1,"best_pos":4,"similarity":0.543,"stretto":false,"stretto_voices":0,"combination":[],"aug_dim":"","rhythm_ratio":1.0,"mirror":false,"chromatic_density":0.333,"complexity":0.58,"dissonance":0.011},{"voice":0,"pitch":68,"start":29.2174,"duration":1.0435,"velocity":127,"measure":15,"beat":1.0,"subject_pos":4,"motif":"subject","motif_pos":4,"best_pos":4,"similarity":1.0,"stretto":false,"stretto_voices":0,"combination":[],"aug_dim":"","rhythm_ratio":1.0,"mirror":false,"chromatic_density":0.385,"complexity":0.623,"dissonance":0.128},{"voice":2,"pitch":59,"start":29.2174,"duration":1.0435,"velocity":127,"measure":15,"beat":1.0,"subject_pos":-1,"motif":"head_inv","motif_pos":0,"best_pos":0,"similarity":1.0,"stretto":false,"stretto_voices":0,"combination":[],"aug_dim":"","rhythm_ratio":1.0,"mirror":false,"chromatic_density":0.385,"complexity":0.623,"dissonance":0.128},{"voice":1,"pitch":62,"start":29.6087,"duration":0.1304,"velocity":127,"measure":15,"beat":1.75,"subject_pos":-1,"motif":"","motif_pos":-1,"best_pos":5,"similarity":0.661,"stretto":false,"stretto_voices":0,"combination":[],"aug_dim":"","rhythm_ratio":1.0,"mirror":false,"chromatic_density":0.385,"complexity":0.623,"dissonance":0.128},{"voice":3,"pitch":53,"start":29.6087,"duration":0.1304,"velocity":127,"measure":15,"beat":1.75,"subject_pos":-1,"motif":"","motif_pos":-1,"best_pos":3,"similarity":0.486,"stretto":false,"stretto_voices":0,"combination":[],"aug_dim":"","rhythm_ratio":1.0,"mirror":false,"chromatic_density":0.385,"complexity":0.623,"dissonance":0.128},{"voice":1,"pitch":64,"start":29.7391,"duration":0.3913,"velocity":127,"measure":15,"beat":2.0,"subject_pos":-1,"motif":"","motif_pos":-1,"best_pos":6,"similarity":0.679,"stretto":false,"stretto_voices":0,"combination":[],"aug_dim":"","rhythm_ratio":1.0,"mirror":false,"chromatic_density":0.385,"complexity":0.623,"dissonance":0.128},{"voice":3,"pitch":52,"start":29.7391,"duration":0.3913,"velocity":127,"measure":15,"beat":2.0,"subject_pos":-1,"motif":"","motif_pos":-1,"best_pos":4,"similarity":0.432,"stretto":false,"stretto_voices":0,"combination":[],"aug_dim":"","rhythm_ratio":1.0,"mirror":false,"chromatic_density":0.385,"complexity":0.623,"dissonance":0.128},{"voice":1,"pitch":65,"start":30.1304,"duration":0.1304,"velocity":127,"measure":15,"beat":2.75,"subject_pos":-1,"motif":"","motif_pos":-1,"best_pos":7,"similarity":0.464,"stretto":false,"stretto_voices":0,"combination":[],"aug_dim":"","rhythm_ratio":1.0,"mirror":false,"chromatic_density":0.385,"complexity":0.623,"dissonance":0.128},{"voice":3,"pitch":50,"start":30.1304,"duration":0.1304,"velocity":127,"measure":15,"beat":2.75,"subject_pos":-1,"motif":"","motif_pos":-1,"best_pos":2,"similarity":0.579,"stretto":false,"stretto_voices":0,"combination":[],"aug_dim":"","rhythm_ratio":1.0,"mirror":false,"chromatic_density":0.385,"complexity":0.623,"dissonance":0.128},{"voice":0,"pitch":69,"start":30.2609,"duration":0.5217,"velocity":127,"measure":15,"beat":3.0,"subject_pos":5,"motif":"subject","motif_pos":5,"best_pos":5,"similarity":1.0,"stretto":false,"stretto_voices":0,"combination":[],"aug_dim":"","rhythm_ratio":1.0,"mirror":false,"chromatic_density":0.385,"complexity":0.623,"dissonance":0.128},{"voice":1,"pitch":64,"start":30.2609,"duration":0.5217,"velocity":127,"measure":15,"beat":3.0,"subject_pos":-1,"motif":"","motif_pos":-1,"best_pos":2,"similarity":0.379,"stretto":false,"stretto_voices":0,"combination":[],"aug_dim":"","rhythm_ratio":1.0,"mirror":false,"chromatic_density":0.385,"complexity":0.623,"dissonance":0.128},{"voice":3,"pitch":48,"start":30.2609,"duration":0.5217,"velocity":127,"measure":15,"beat":3.0,"subject_pos":-1,"motif":"","motif_pos":-1,"best_pos":3,"similarity":0.657,"stretto":false,"stretto_voices":0,"combination":[],"aug_dim":"","rhythm_ratio":1.0,"mirror":false,"chromatic_density":0.385,"complexity":0.623,"dissonance":0.128},{"voice":2,"pitch":52,"start":30.6522,"duration":0.1304,"velocity":127,"measure":15,"beat":3.75,"subject_pos":-1,"motif":"head_inv","motif_pos":1,"best_pos":1,"similarity":1.0,"stretto":false,"stretto_voices":0,"combination":[],"aug_dim":"","rhythm_ratio":1.0,"mirror":false,"chromatic_density":0.385,"complexity":0.623,"dissonance":0.128},{"voice":0,"pitch":71,"start":30.7826,"duration":0.5217,"velocity":127,"measure":15,"beat":4.0,"subject_pos":6,"motif":"subject","motif_pos":6,"best_pos":6,"similarity":1.0,"stretto":false,"stretto_voices":0,"combination":[],"aug_dim":"","rhythm_ratio":1.0,"mirror":false,"chromatic_density":0.385,"complexity":0.623,"dissonance":0.128},{"voice":1,"pitch":62,"start":30.7826,"duration":0.5217,"velocity":127,"measure":15,"beat":4.0,"subject_pos":-1,"motif":"","motif_pos":-1,"best_pos":2,"similarity":0.5,"stretto":false,"stretto_voices":0,"combination":[],"aug_dim":"","rhythm_ratio":1.0,"mirror":false,"chromatic_density":0.385,"complexity":0.623,"dissonance":0.128},{"voice":2,"pitch":54,"start":30.7826,"duration":0.3913,"velocity":127,"measure":15,"beat":4.0,"subject_pos":-1,"motif":"head_inv","motif_pos":2,"best_pos":2,"similarity":1.0,"stretto":false,"stretto_voices":0,"combination":[],"aug_dim":"","rhythm_ratio":1.0,"mirror":false,"chromatic_density":0.385,"complexity":0.623,"dissonance":0.128},{"voice":3,"pitch":47,"start":30.7826,"duration":0.5217,"velocity":127,"measure":15,"beat":4.0,"subject_pos":-1,"motif":"","motif_pos":-1,"best_pos":4,"similarity":0.671,"stretto":false,"stretto_voices":0,"combination":[],"aug_dim":"","rhythm_ratio":1.0,"mirror":false,"chromatic_density":0.385,"complexity":0.623,"dissonance":0.128},{"voice":2,"pitch":56,"start":31.1739,"duration":0.1304,"velocity":127,"measure":15,"beat":4.75,"subject_pos":-1,"motif":"head_inv","motif_pos":3,"best_pos":3,"similarity":1.0,"stretto":false,"stretto_voices":0,"combination":[],"aug_dim":"","rhythm_ratio":1.0,"mirror":false,"chromatic_density":0.385,"complexity":0.623,"dissonance":0.128},{"voice":0,"pitch":72,"start":31.3043,"duration":1.4348,"velocity":127,"measure":16,"beat":1.0,"subject_pos":7,"motif":"subject","motif_pos":7,"best_pos":7,"similarity":1.0,"stretto":false,"stretto_voices":0,"combination":[],"aug_dim":"","rhythm_ratio":1.0,"mirror":false,"chromatic_density":0.455,"complexity":0.608,"dissonance":0.044},{"voice":1,"pitch":60,"start":31.3043,"duration":0.5217,"velocity":127,"measure":16,"beat":1.0,"subject_pos":-1,"motif":"","motif_pos":-1,"best_pos":3,"similarity":0.436,"stretto":false,"stretto_voices":0,"combination":[],"aug_dim":"","rhythm_ratio":1.0,"mirror":false,"chromatic_density":0.455,"complexity":0.608,"dissonance":0.044},{"voice":2,"pitch":57,"start":31.3043,"duration":1.5652,"velocity":127,"measure":16,"beat":1.0,"subject_pos":-1,"motif":"head_inv","motif_pos":4,"best_pos":4,"similarity":1.0,"stretto":false,"stretto_voices":0,"combination":[],"aug_dim":"","rhythm_ratio":1.0,"mirror":false,"chromatic_density":0.455,"complexity":0.608,"dissonance":0.044},{"voice":3,"pitch":45,"start":31.6956,"duration":0.1304,"velocity":127,"measure":16,"beat":1.75,"subject_pos":-1,"motif":"","motif_pos":-1,"best_pos":5,"similarity":0.636,"stretto":false,"stretto_voices":0,"combination":[],"aug_dim":"","rhythm_ratio":1.0,"mirror":false,"chromatic_density":0.455,"complexity":0.608,"dissonance":0.044},{"voice":1,"pitch":64,"start":31.8261,"duration":0.5217,"velocity":127,"measure":16,"beat":2.0,"subject_pos":-1,"motif":"","motif_pos":-1,"best_pos":4,"similarity":0.45,"stretto":false,"stretto_voices":0,"combination":[],"aug_dim":"","rhythm_ratio":1.0,"mirror":false,"chromatic_density":0.455,"complexity":0.608,"dissonance":0.044},{"voice":3,"pitch":47,"start":31.8261,"duration":0.3913,"velocity":127,"measure":16,"beat":2.0,"subject_pos":-1,"motif":"","motif_pos":-1,"best_pos":6,"similarity":0.657,"stretto":false,"stretto_voices":0,"combination":[],"aug_dim":"","rhythm_ratio":1.0,"mirror":false,"chromatic_density":0.455,"complexity":0.608,"dissonance":0.044},{"voice":3,"pitch":48,"start":32.2174,"duration":0.1304,"velocity":127,"measure":16,"beat":2.75,"subject_pos":-1,"motif":"","motif_pos":-1,"best_pos":5,"similarity":0.693,"stretto":false,"stretto_voices":0,"combination":[],"aug_dim":"","rhythm_ratio":1.0,"mirror":false,"chromatic_density":0.455,"complexity":0.608,"dissonance":0.044},{"voice":1,"pitch":65,"start":32.3478,"duration":0.5217,"velocity":127,"measure":16,"beat":3.0,"subject_pos":-1,"motif":"","motif_pos":-1,"best_pos":3,"similarity":0.364,"stretto":false,"stretto_voices":0,"combination":[],"aug_dim":"","rhythm_ratio":1.0,"mirror":false,"chromatic_density":0.455,"complexity":0.608,"dissonance":0.044},{"voice":3,"pitch":50,"start":32.3478,"duration":0.5217,"velocity":127,"measure":16,"beat":3.0,"subject_pos":-1,"motif":"","motif_pos":-1,"best_pos":5,"similarity":0.607,"stretto":false,"stretto_voices":0,"combination":[],"aug_dim":"","rhythm_ratio":1.0,"mirror":false,"chromatic_density":0.455,"complexity":0.608,"dissonance":0.044},{"voice":0,"pitch":74,"start":32.7391,"duration":0.1304,"velocity":127,"measure":16,"beat":3.75,"subject_pos":-1,"motif":"","motif_pos":-1,"best_pos":6,"similarity":0.464,"stretto":false,"stretto_voices":0,"combination":[],"aug_dim":"","rhythm_ratio":1.0,"mirror":false,"chromatic_density":0.455,"complexity":0.608,"dissonance":0.044},{"voice":0,"pitch":72,"start":32.8696,"duration":0.3913,"velocity":127,"measure":16,"beat":4.0,"subject_pos":-1,"motif":"","motif_pos":-1,"best_pos":3,"similarity":0.464,"stretto":false,"stretto_voices":0,"combination":[],"aug_dim":"","rhythm_ratio":1.0,"mirror":false,"chromatic_density":0.455,"complexity":0.608,"dissonance":0.044},{"voice":1,"pitch":64,"start":32.8696,"duration":0.913,"velocity":127,"measure":16,"beat":4.0,"subject_pos":-1,"motif":"","motif_pos":-1,"best_pos":2,"similarity":0.514,"stretto":false,"stretto_voices":0,"combination":[],"aug_dim":"","rhythm_ratio":1.0,"mirror":false,"chromatic_density":0.455,"complexity":0.608,"dissonance":0.044},{"voice":2,"pitch":56,"start":32.8696,"duration":0.5217,"velocity":127,"measure":16,"beat":4.0,"subject_pos":-1,"motif":"","motif_pos":-1,"best_pos":4,"similarity":0.771,"stretto":false,"stretto_voices":0,"combination":[],"aug_dim":"","rhythm_ratio":1.0,"mirror":false,"chromatic_density":0.455,"complexity":0.608,"dissonance":0.044},{"voice":3,"pitch":52,"start":32.8696,"duration":0.5217,"velocity":127,"measure":16,"beat":4.0,"subject_pos":-1,"motif":"tail_inv","motif_pos":0,"best_pos":0,"similarity":1.0,"stretto":false,"stretto_voices":0,"combination":[],"aug_dim":"","rhythm_ratio":1.0,"mirror":false,"chromatic_density":0.455,"complexity":0.608,"dissonance":0.044},{"voice":0,"pitch":71,"start":33.2609,"duration":0.1304,"velocity":127,"measure":16,"beat":4.75,"subject_pos":-1,"motif":"","motif_pos":-1,"best_pos":4,"similarity":0.411,"stretto":false,"stretto_voices":0,"combination":[],"aug_dim":"","rhythm_ratio":1.0,"mirror":false,"chromatic_density":0.455,"complexity":0.608,"dissonance":0.044},{"voice":0,"pitch":69,"start":33.3913,"duration":4.1739,"velocity":127,"measure":17,"beat":1.0,"subject_pos":-1,"motif":"","motif_pos":-1,"best_pos":2,"similarity":0.529,"stretto":false,"stretto_voices":0,"combination":[],"aug_dim":"","rhythm_ratio":1.0,"mirror":false,"chromatic_density":0.545,"complexity":0.675,"dissonance":0.051},{"voice":2,"pitch":57,"start":33.3913,"duration":0.5217,"velocity":127,"measure":17,"beat":1.0,"subject_pos":-1,"motif":"","motif_pos":-1,"best_pos":5,"similarity":0.793,"stretto":false,"stretto_voices":0,"combination":[],"aug_dim":"","rhythm_ratio":1.0,"mirror":false,"chromatic_density":0.545,"complexity":0.675,"dissonance":0.051},{"voice":3,"pitch":53,"start":33.3913,"duration":1.4348,"velocity":127,"measure":17,"beat":1.0,"subject_pos":-1,"motif":"tail_inv","motif_pos":1,"best_pos":1,"similarity":1.0,"stretto":false,"stretto_voices":0,"combination":[],"aug_dim":"","rhythm_ratio":1.0,"mirror":false,"chromatic_density":0.545,"complexity":0.675,"dissonance":0.051},{"voice":1,"pitch":61,"start":33.7826,"duration":0.1304,"velocity":127,"measure":17,"beat":1.75,"subject_pos":-1,"motif":"","motif_pos":-1,"best_pos":4,"similarity":0.614,"stretto":false,"stretto_voices":0,"combination":[],"aug_dim":"","rhythm_ratio":1.0,"mirror":false,"chromatic_density":0.545,"complexity":0.675,"dissonance":0.051},{"voice":1,"pitch":62,"start":33.913,"duration":0.3913,"velocity":127,"measure":17,"beat":2.0,"subject_pos":-1,"motif":"","motif_pos":-1,"best_pos":5,"similarity":0.768,"stretto":false,"stretto_voices":0,"combination":[],"aug_dim":"","rhythm_ratio":1.0,"mirror":false,"chromatic_density":0.545,"complexity":0.675,"dissonance":0.051},{"voice":2,"pitch":59,"start":33.913,"duration":0.3913,"velocity":127,"measure":17,"beat":2.0,"subject_pos":-1,"motif":"","motif_pos":-1,"best_pos":6,"similarity":0.643,"stretto":false,"stretto_voices":0,"combination":[],"aug_dim":"","rhythm_ratio":1.0,"mirror":false,"chromatic_density":0.545,"complexity":0.675,"dissonance":0.051},{"voice":1,"pitch":64,"start":34.3043,"duration":0.1304,"velocity":127,"measure":17,"beat":2.75,"subject_pos":-1,"motif":"","motif_pos":-1,"best_pos":6,"similarity":0.732,"stretto":false,"stretto_voices":0,"combination":[],"aug_dim":"","rhythm_ratio":1.0,"mirror":false,"chromatic_density":0.545,"complexity":0.675,"dissonance":0.051},{"voice":2,"pitch":61,"start":34.3043,"duration":0.1304,"velocity":127,"measure":17,"beat":2.75,"subject_pos":-1,"motif":"enigmatic_cell","motif_pos":0,"best_pos":0,"similarity":1.0,"stretto":false,"stretto_voices":0,"combination":[],"aug_dim":"","rhythm_ratio":1.0,"mirror":false,"chromatic_density":0.545,"complexity":0.675,"dissonance":0.051},{"voice":1,"pitch":65,"start":34.4348,"duration":0.5217,"velocity":127,"measure":17,"beat":3.0,"subject_pos":-1,"motif":"","motif_pos":-1,"best_pos":7,"similarity":0.5,"stretto":false,"stretto_voices":0,"combination":[],"aug_dim":"","rhythm_ratio":1.0,"mirror":false,"chromatic_density":0.545,"complexity":0.675,"dissonance":0.051},{"voice":2,"pitch":62,"start":34.4348,"duration":0.5217,"velocity":127,"measure":17,"beat":3.0,"subject_pos":-1,"motif":"enigmatic_cell","motif_pos":1,"best_pos":1,"similarity":1.0,"stretto":false,"stretto_voices":0,"combination":[],"aug_dim":"","rhythm_ratio":1.0,"mirror":false,"chromatic_density":0.545,"complexity":0.675,"dissonance":0.051},{"voice":3,"pitch":52,"start":34.8261,"duration":0.1304,"velocity":127,"measure":17,"beat":3.75,"subject_pos":-1,"motif":"tail_inv","motif_pos":2,"best_pos":2,"similarity":1.0,"stretto":false,"stretto_voices":0,"combination":[],"aug_dim":"","rhythm_ratio":1.0,"mirror":false,"chromatic_density":0.545,"complexity":0.675,"dissonance":0.051},{"voice":1,"pitch":64,"start":34.9565,"duration":0.913,"velocity":127,"measure":17,"beat":4.0,"subject_pos":-1,"motif":"","motif_pos":-1,"best_pos":4,"similarity":0.482,"stretto":false,"stretto_voices":0,"combination":[],"aug_dim":"","rhythm_ratio":1.0,"mirror":false,"chromatic_density":0.545,"complexity":0.675,"dissonance":0.051},{"voice":2,"pitch":55,"start":34.9565,"duration":0.913,"velocity":127,"measure":17,"beat":4.0,"subject_pos":-1,"motif":"enigmatic_cell","motif_pos":2,"best_pos":2,"similarity":1.0,"stretto":false,"stretto_voices":0,"combination":[],"aug_dim":"","rhythm_ratio":1.0,"mirror":false,"chromatic_density":0.545,"complexity":0.675,"dissonance":0.051},{"voice":3,"pitch":50,"start":34.9565,"duration":0.3913,"velocity":127,"measure":17,"beat":4.0,"subject_pos":-1,"motif":"tail_inv","motif_pos":3,"best_pos":3,"similarity":1.0,"stretto":false,"stretto_voices":0,"combination":[],"aug_dim":"","rhythm_ratio":1.0,"mirror":false,"chromatic_density":0.545,"complexity":0.675,"dissonance":0.051},{"voice":3,"pitch":49,"start":35.3478,"duration":0.1304,"velocity":127,"measure":17,"beat":4.75,"subject_pos":-1,"motif":"tail_inv","motif_pos":4,"best_pos":4,"similarity":1.0,"stretto":false,"stretto_voices":0,"combination":[],"aug_dim":"","rhythm_ratio":1.0,"mirror":false,"chromatic_density":0.545,"complexity":0.675,"dissonance":0.051},{"voice":3,"pitch":50,"start":35.4783,"duration":1.4348,"velocity":127,"measure":18,"beat":1.0,"subject_pos":-1,"motif":"","motif_pos":-1,"best_pos":5,"similarity":0.507,"stretto":false,"stretto_voices":0,"combination":[],"aug_dim":"","rhythm_ratio":1.0,"mirror":false,"chromatic_density":0.545,"complexity":0.486,"dissonance":0.195},{"voice":1,"pitch":64,"start":35.8696,"duration":0.1304,"velocity":127,"measure":18,"beat":1.75,"subject_pos":-1,"motif":"","motif_pos":-1,"best_pos":2,"similarity":0.429,"stretto":false,"stretto_voices":0,"combination":[],"aug_dim":"","rhythm_ratio":1.0,"mirror":false,"chromatic_density":0.545,"complexity":0.486,"dissonance":0.195},{"voice":2,"pitch":55,"start":35.8696,"duration":0.1304,"velocity":127,"measure":18,"beat":1.75,"subject_pos":-1,"motif":"","motif_pos":-1,"best_pos":2,"similarity":0.429,"stretto":false,"stretto_voices":0,"combination":[],"aug_dim":"","rhythm_ratio":1.0,"mirror":false,"chromatic_density":0.545,"complexity":0.486,"dissonance":0.195},{"voice":1,"pitch":62,"start":36.0,"duration":0.3913,"velocity":127,"measure":18,"beat":2.0,"subject_pos":-1,"motif":"","motif_pos":-1,"best_pos":3,"similarity":0.614,"stretto":false,"stretto_voices":0,"combination":[],"aug_dim":"","rhythm_ratio":1.0,"mirror":false,"chromatic_density":0.545,"complexity":0.486,"dissonance":0.195},{"voice":2,"pitch":53,"start":36.0,"duration":0.3913,"velocity":127,"measure":18,"beat":2.0,"subject_pos":-1,"motif":"","motif_pos":-1,"best_pos":3,"similarity":0.643,"stretto":false,"stretto_voices":0,"combination":[],"aug_dim":"","rhythm_ratio":1.0,"mirror":false,"chromatic_density":0.545,"complexity":0.486,"dissonance":0.195},{"voice":1,"pitch":61,"start":36.3913,"duration":0.1304,"velocity":127,"measure":18,"beat":2.75,"subject_pos":-1,"motif":"","motif_pos":-1,"best_pos":4,"similarity":0.682,"stretto":false,"stretto_voices":0,"combination":[],"aug_dim":"","rhythm_ratio":1.0,"mirror":false,"chromatic_density":0.545,"complexity":0.486,"dissonance":0.195},{"voice":2,"pitch":52,"start":36.3913,"duration":0.1304,"velocity":127,"measure":18,"beat":2.75,"subject_pos":-1,"motif":"","motif_pos":-1,"best_pos":4,"similarity":0.732,"stretto":false,"stretto_voices":0,"combination":[],"aug_dim":"","rhythm_ratio":1.0,"mirror":false,"chromatic_density":0.545,"complexity":0.486,"dissonance":0.195},{"voice":1,"pitch":62,"start":36.5217,"duration":0.5217,"velocity":127,"measure":18,"beat":3.0,"subject_pos":-1,"motif":"","motif_pos":-1,"best_pos":5,"similarity":0.507,"stretto":false,"stretto_voices":0,"combination":[],"aug_dim":"","rhythm_ratio":1.0,"mirror":false,"chromatic_density":0.545,"complexity":0.486,"dissonance":0.195},{"voice":2,"pitch":53,"start":36.5217,"duration":0.5217,"velocity":127,"measure":18,"beat":3.0,"subject_pos":-1,"motif":"","motif_pos":-1,"best_pos":5,"similarity":0.607,"stretto":false,"stretto_voices":0,"combination":[],"aug_dim":"","rhythm_ratio":1.0,"mirror":false,"chromatic_density":0.545,"complexity":0.486,"dissonance":0.195},{"voice":3,"pitch":48,"start":36.913,"duration":0.1304,"velocity":127,"measure":18,"beat":3.75,"subject_pos":-1,"motif":"","motif_pos":-1,"best_pos":2,"similarity":0.657,"stretto":false,"stretto_voices":0,"combination":[],"aug_dim":"","rhythm_ratio":1.0,"mirror":false,"chromatic_density":0.545,"complexity":0.486,"dissonance":0.195},{"voice":1,"pitch":60,"start":37.0435,"duration":1.0435,"velocity":127,"measure":18,"beat":4.0,"subject_pos":-1,"motif":"","motif_pos":-1,"best_pos":2,"similarity":0.657,"stretto":false,"stretto_voices":0,"combination":[],"aug_dim":"","rhythm_ratio":1.0,"mirror":false,"chromatic_density":0.545,"complexity":0.486,"dissonance":0.195},{"voice":2,"pitch":54,"start":37.0435,"duration":0.913,"velocity":127,"measure":18,"beat":4.0,"subject_pos":-1,"motif":"","motif_pos":-1,"best_pos":5,"similarity":0.411,"stretto":false,"stretto_voices":0,"combination":[],"aug_dim":"","rhythm_ratio":1.0,"mirror":false,"chromatic_density":0.545,"complexity":0.486,"dissonance":0.195},{"voice":3,"pitch":46,"start":37.0435,"duration":0.3913,"velocity":127,"measure":18,"beat":4.0,"subject_pos":-1,"motif":"","motif_pos":-1,"best_pos":3,"similarity":0.729,"stretto":false,"stretto_voices":0,"combination":[],"aug_dim":"","rhythm_ratio":1.0,"mirror":false,"chromatic_density":0.545,"complexity":0.486,"dissonance":0.195},{"voice":3,"pitch":45,"start":37.4348,"duration":0.1304,"velocity":127,"measure":18,"beat":4.75,"subject_pos":-1,"motif":"tail_inv","motif_pos":0,"best_pos":0,"similarity":1.0,"stretto":false,"stretto_voices":0,"combination":[],"aug_dim":"","rhythm_ratio":1.0,"mirror":false,"chromatic_density":0.545,"complexity":0.486,"dissonance":0.195},{"voice":0,"pitch":62,"start":37.5652,"duration":4.5652,"velocity":127,"measure":19,"beat":1.0,"subject_pos":-1,"motif":"","motif_pos":-1,"best_pos":3,"similarity":0.636,"stretto":false,"stretto_voices":0,"combination":[],"aug_dim":"","rhythm_ratio":1.0,"mirror":false,"chromatic_density":0.6,"complexity":0.677,"dissonance":0.172},{"voice":3,"pitch":46,"start":37.5652,"duration":1.4348,"velocity":127,"measure":19,"beat":1.0,"subject_pos":-1,"motif":"tail_inv","motif_pos":1,"best_pos":1,"similarity":1.0,"stretto":false,"stretto_voices":0,"combination":[],"aug_dim":"","rhythm_ratio":1.0,"mirror":false,"chromatic_density":0.6,"complexity":0.677,"dissonance":0.172},{"voice":2,"pitch":50,"start":37.9565,"duration":0.1304,"velocity":127,"measure":19,"beat":1.75,"subject_pos":-1,"motif":"","motif_pos":-1,"best_pos":4,"similarity":0.407,"stretto":false,"stretto_voices":0,"combination":[],"aug_dim":"","rhythm_ratio":1.0,"mirror":false,"chromatic_density":0.6,"complexity":0.677,"dissonance":0.172},{"voice":1,"pitch":58,"start":38.0869,"duration":0.3913,"velocity":127,"measure":19,"beat":2.0,"subject_pos":-1,"motif":"","motif_pos":-1,"best_pos":3,"similarity":0.729,"stretto":false,"stretto_voices":0,"combination":[],"aug_dim":"","rhythm_ratio":1.0,"mirror":false,"chromatic_density":0.6,"complexity":0.677,"dissonance":0.172},{"voice":2,"pitch":52,"start":38.0869,"duration":0.3913,"velocity":127,"measure":19,"beat":2.0,"subject_pos":-1,"motif":"","motif_pos":-1,"best_pos":5,"similarity":0.593,"stretto":false,"stretto_voices":0,"combination":[],"aug_dim":"","rhythm_ratio":1.0,"mirror":false,"chromatic_density":0.6,"complexity":0.677,"dissonance":0.172},{"voice":1,"pitch":57,"start":38.4783,"duration":0.1304,"velocity":127,"measure":19,"beat":2.75,"subject_pos":-1,"motif":"","motif_pos":-1,"best_pos":4,"similarity":0.736,"stretto":false,"stretto_voices":0,"combination":[],"aug_dim":"","rhythm_ratio":1.0,"mirror":false,"chromatic_density":0.6,"complexity":0.677,"dissonance":0.172},{"voice":2,"pitch":54,"start":38.4783,"duration":0.1304,"velocity":127,"measure":19,"beat":2.75,"subject_pos":-1,"motif":"enigmatic_cell","motif_pos":0,"best_pos":0,"similarity":1.0,"stretto":false,"stretto_voices":0,"combination":[],"aug_dim":"","rhythm_ratio":1.0,"mirror":false,"chromatic_density":0.6,"complexity":0.677,"dissonance":0.172},{"voice":1,"pitch":58,"start":38.6087,"duration":0.5217,"velocity":127,"measure":19,"beat":3.0,"subject_pos":-1,"motif":"","motif_pos":-1,"best_pos":5,"similarity":0.507,"stretto":false,"stretto_voices":0,"combination":[],"aug_dim":"","rhythm_ratio":1.0,"mirror":false,"chromatic_density":0.6,"complexity":0.677,"dissonance":0.172},{"voice":2,"pitch":55,"start":38.6087,"duration":0.5217,"velocity":127,"measure":19,"beat":3.0,"subject_pos":-1,"motif":"enigmatic_cell","motif_pos":1,"best_pos":1,"similarity":1.0,"stretto":false,"stretto_voices":0,"combination":[],"aug_dim":"","rhythm_ratio":1.0,"mirror":false,"chromatic_density":0.6,"complexity":0.677,"dissonance":0.172},{"voice":3,"pitch":45,"start":39.0,"duration":0.1304,"velocity":127,"measure":19,"beat":3.75,"subject_pos":-1,"motif":"tail_inv","motif_pos":2,"best_pos":2,"similarity":1.0,"stretto":false,"stretto_voices":0,"combination":[],"aug_dim":"","rhythm_ratio":1.0,"mirror":false,"chromatic_density":0.6,"complexity":0.677,"dissonance":0.172},{"voice":1,"pitch":57,"start":39.1304,"duration":0.913,"velocity":127,"measure":19,"beat":4.0,"subject_pos":-1,"motif":"","motif_pos":-1,"best_pos":2,"similarity":0.514,"stretto":false,"stretto_voices":0,"combination":[],"aug_dim":"","rhythm_ratio":1.0,"mirror":false,"chromatic_density":0.6,"complexity":0.677,"dissonance":0.172},{"voice":2,"pitch":48,"start":39.1304,"duration":0.913,"velocity":127,"measure":19,"beat":4.0,"subject_pos":-1,"motif":"enigmatic_cell","motif_pos":2,"best_pos":2,"similarity":1.0,"stretto":false,"stretto_voices":0,"combination":[],"aug_dim":"","rhythm_ratio":1.0,"mirror":false,"chromatic_density":0.6,"complexity":0.677,"dissonance":0.172},{"voice":3,"pitch":43,"start":39.1304,"duration":0.3913,"velocity":127,"measure":19,"beat":4.0,"subject_pos":-1,"motif":"tail_inv","motif_pos":3,"best_pos":3,"similarity":1.0,"stretto":false,"stretto_voices":0,"combination":[],"aug_dim":"","rhythm_ratio":1.0,"mirror":false,"chromatic_density":0.6,"complexity":0.677,"dissonance":0.172},{"voice":3,"pitch":42,"start":39.5217,"duration":0.1304,"velocity":127,"measure":19,"beat":4.75,"subject_pos":-1,"motif":"tail_inv","motif_pos":4,"best_pos":4,"similarity":1.0,"stretto":false,"stretto_voices":0,"combination":[],"aug_dim":"","rhythm_ratio":1.0,"mirror":false,"chromatic_density":0.6,"complexity":0.677,"dissonance":0.172},{"voice":3,"pitch":43,"start":39.6522,"duration":1.9565,"velocity":127,"measure":20,"beat":1.0,"subject_pos":-1,"motif":"","motif_pos":-1,"best_pos":5,"similarity":0.529,"stretto":false,"stretto_voices":0,"combination":[],"aug_dim":"","rhythm_ratio":1.0,"mirror":false,"chromatic_density":0.6,"complexity":0.412,"dissonance":0.133},{"voice":1,"pitch":54,"start":40.0435,"duration":0.1304,"velocity":127,"measure":20,"beat":1.75,"subject_pos":-1,"motif":"","motif_pos":-1,"best_pos":4,"similarity":0.614,"stretto":false,"stretto_voices":0,"combination":[],"aug_dim":"","rhythm_ratio":1.0,"mirror":false,"chromatic_density":0.6,"complexity":0.412,"dissonance":0.133},{"voice":2,"pitch":45,"start":40.0435,"duration":0.1304,"velocity":127,"measure":20,"beat":1.75,"subject_pos":-1,"motif":"","motif_pos":-1,"best_pos":4,"similarity":0.557,"stretto":false,"stretto_voices":0,"combination":[],"aug_dim":"","rhythm_ratio":1.0,"mirror":false,"chromatic_density":0.6,"complexity":0.412,"dissonance":0.133},{"voice":1,"pitch":55,"start":40.1739,"duration":0.3913,"velocity":127,"measure":20,"beat":2.0,"subject_pos":-1,"motif":"","motif_pos":-1,"best_pos":5,"similarity":0.768,"stretto":false,"stretto_voices":0,"combination":[],"aug_dim":"","rhythm_ratio":1.0,"mirror":false,"chromatic_density":0.6,"complexity":0.412,"dissonance":0.133},{"voice":2,"pitch":46,"start":40.1739,"duration":0.3913,"velocity":127,"measure":20,"beat":2.0,"subject_pos":-1,"motif":"","motif_pos":-1,"best_pos":5,"similarity":0.686,"stretto":false,"stretto_voices":0,"combination":[],"aug_dim":"","rhythm_ratio":1.0,"mirror":false,"chromatic_density":0.6,"complexity":0.412,"dissonance":0.133},{"voice":1,"pitch":57,"start":40.5652,"duration":0.1304,"velocity":127,"measure":20,"beat":2.75,"subject_pos":-1,"motif":"","motif_pos":-1,"best_pos":6,"similarity":0.732,"stretto":false,"stretto_voices":0,"combination":[],"aug_dim":"","rhythm_ratio":1.0,"mirror":false,"chromatic_density":0.6,"complexity":0.412,"dissonance":0.133},{"voice":2,"pitch":48,"start":40.5652,"duration":0.1304,"velocity":127,"measure":20,"beat":2.75,"subject_pos":-1,"motif":"","motif_pos":-1,"best_pos":6,"similarity":0.589,"stretto":false,"stretto_voices":0,"combination":[],"aug_dim":"","rhythm_ratio":1.0,"mirror":false,"chromatic_density":0.6,"complexity":0.412,"dissonance":0.133},{"voice":1,"pitch":58,"start":40.6956,"duration":0.5217,"velocity":127,"measure":20,"beat":3.0,"subject_pos":-1,"motif":"","motif_pos":-1,"best_pos":7,"similarity":0.5,"stretto":false,"stretto_voices":0,"combination":[],"aug_dim":"","rhythm_ratio":1.0,"mirror":false,"chromatic_density":0.6,"complexity":0.412,"dissonance":0.133},{"voice":2,"pitch":50,"start":40.6956,"duration":0.3913,"velocity":127,"measure":20,"beat":3.0,"subject_pos":-1,"motif":"","motif_pos":-1,"best_pos":3,"similarity":0.521,"stretto":false,"stretto_voices":0,"combination":[],"aug_dim":"","rhythm_ratio":1.0,"mirror":false,"chromatic_density":0.6,"complexity":0.412,"dissonance":0.133},{"voice":2,"pitch":49,"start":41.0869,"duration":0.1304,"velocity":127,"measure":20,"beat":3.75,"subject_pos":-1,"motif":"","motif_pos":-1,"best_pos":4,"similarity":0.729,"stretto":false,"stretto_voices":0,"combination":[],"aug_dim":"","rhythm_ratio":1.0,"mirror":false,"chromatic_density":0.6,"complexity":0.412,"dissonance":0.133},{"voice":1,"pitch":57,"start":41.2174,"duration":0.5217,"velocity":127,"measure":20,"beat":4.0,"subject_pos":-1,"motif":"","motif_pos":-1,"best_pos":4,"similarity":0.457,"stretto":false,"stretto_voices":0,"combination":[],"aug_dim":"","rhythm_ratio":1.0,"mirror":false,"chromatic_density":0.6,"complexity":0.412,"dissonance":0.133},{"voice":2,"pitch":50,"start":41.2174,"duration":0.5217,"velocity":127,"measure":20,"beat":4.0,"subject_pos":-1,"motif":"","motif_pos":-1,"best_pos":5,"similarity":0.729,"stretto":false,"stretto_voices":0,"combination":[],"aug_dim":"","rhythm_ratio":1.0,"mirror":false,"chromatic_density":0.6,"complexity":0.412,"dissonance":0.133},{"voice":3,"pitch":41,"start":41.6087,"duration":0.1304,"velocity":127,"measure":20,"beat":4.75,"subject_pos":-1,"motif":"","motif_pos":-1,"best_pos":3,"similarity":0.443,"stretto":false,"stretto_voices":0,"combination":[],"aug_dim":"","rhythm_ratio":1.0,"mirror":false,"chromatic_density":0.6,"complexity":0.412,"dissonance":0.133},{"voice":1,"pitch":56,"start":41.7391,"duration":0.5217,"velocity":127,"measure":21,"beat":1.0,"subject_pos":-1,"motif":"","motif_pos":-1,"best_pos":4,"similarity":0.414,"stretto":false,"stretto_voices":0,"combination":[],"aug_dim":"","rhythm_ratio":1.0,"mirror":false,"chromatic_density":0.5,"complexity":0.498,"dissonance":0.167},{"voice":2,"pitch":52,"start":41.7391,"duration":0.5217,"velocity":127,"measure":21,"beat":1.0,"subject_pos":-1,"motif":"","motif_pos":-1,"best_pos":6,"similarity":0.529,"stretto":false,"stretto_voices":0,"combination":[],"aug_dim":"","rhythm_ratio":1.0,"mirror":false,"chromatic_density":0.5,"complexity":0.498,"dissonance":0.167},{"voice":3,"pitch":40,"start":41.7391,"duration":3.1304,"velocity":127,"measure":21,"beat":1.0,"subject_pos":-1,"motif":"","motif_pos":-1,"best_pos":4,"similarity":0.371,"stretto":false,"stretto_voices":0,"combination":[],"aug_dim":"","rhythm_ratio":1.0,"mirror":false,"chromatic_density":0.5,"complexity":0.498,"dissonance":0.167},{"voice":0,"pitch":61,"start":42.1304,"duration":0.1304,"velocity":127,"measure":21,"beat":1.75,"subject_pos":-1,"motif":"","motif_pos":-1,"best_pos":4,"similarity":0.746,"stretto":false,"stretto_voices":0,"combination":[],"aug_dim":"","rhythm_ratio":1.0,"mirror":false,"chromatic_density":0.5,"complexity":0.498,"dissonance":0.167},{"voice":0,"pitch":62,"start":42.2609,"duration":0.3913,"velocity":127,"measure":21,"beat":2.0,"subject_pos":-1,"motif":"","motif_pos":-1,"best_pos":5,"similarity":0.614,"stretto":false,"stretto_voices":0,"combination":[],"aug_dim":"","rhythm_ratio":1.0,"mirror":false,"chromatic_density":0.5,"complexity":0.498,"dissonance":0.167},{"voice":0,"pitch":65,"start":42.6522,"duration":0.1304,"velocity":127,"measure":21,"beat":2.75,"subject_pos":-1,"motif":"","motif_pos":-1,"best_pos":6,"similarity":0.429,"stretto":false,"stretto_voices":0,"combination":[],"aug_dim":"","rhythm_ratio":1.0,"mirror":false,"chromatic_density":0.5,"complexity":0.498,"dissonance":0.167},{"voice":0,"pitch":64,"start":42.7826,"duration":0.3913,"velocity":127,"measure":21,"beat":3.0,"subject_pos":-1,"motif":"","motif_pos":-1,"best_pos":4,"similarity":0.407,"stretto":false,"stretto_voices":0,"combination":[],"aug_dim":"","rhythm_ratio":1.0,"mirror":false,"chromatic_density":0.5,"complexity":0.498,"dissonance":0.167},{"voice":0,"pitch":62,"start":43.1739,"duration":0.1304,"velocity":127,"measure":21,"beat":3.75,"subject_pos":-1,"motif":"","motif_pos":-1,"best_pos":3,"similarity":0.446,"stretto":false,"stretto_voices":0,"combination":[],"aug_dim":"","rhythm_ratio":1.0,"mirror":false,"chromatic_density":0.5,"complexity":0.498,"dissonance":0.167},{"voice":0,"pitch":68,"start":43.3043,"duration":0.3913,"velocity":127,"measure":21,"beat":4.0,"subject_pos":-1,"motif":"","motif_pos":-1,"best_pos":4,"similarity":0.607,"stretto":false,"stretto_voices":0,"combination":[],"aug_dim":"","rhythm_ratio":1.0,"mirror":false,"chromatic_density":0.5,"complexity":0.498,"dissonance":0.167},{"voice":0,"pitch":69,"start":43.6956,"duration":0.1304,"velocity":127,"measure":21,"beat":4.75,"subject_pos":-1,"motif":"","motif_pos":-1,"best_pos":5,"similarity":0.75,"stretto":false,"stretto_voices":0,"combination":[],"aug_dim":"","rhythm_ratio":1.0,"mirror":false,"chromatic_density":0.5,"complexity":0.498,"dissonance":0.167},{"voice":0,"pitch":71,"start":43.8261,"duration":0.3913,"velocity":127,"measure":22,"beat":1.0,"subject_pos":-1,"motif":"","motif_pos":-1,"best_pos":6,"similarity":0.714,"stretto":false,"stretto_voices":0,"combination":[],"aug_dim":"","rhythm_ratio":1.0,"mirror":false,"chromatic_density":0.571,"complexity":0.508,"dissonance":0.163},{"voice":0,"pitch":72,"start":44.2174,"duration":0.1304,"velocity":127,"measure":22,"beat":1.75,"subject_pos":-1,"motif":"","motif_pos":-1,"best_pos":5,"similarity":0.593,"stretto":false,"stretto_voices":0,"combination":[],"aug_dim":"","rhythm_ratio":1.0,"mirror":false,"chromatic_density":0.571,"complexity":0.508,"dissonance":0.163},{"voice":0,"pitch":74,"start":44.3478,"duration":0.3913,"velocity":127,"measure":22,"beat":2.0,"subject_pos":-1,"motif":"","motif_pos":-1,"best_pos":6,"similarity":0.436,"stretto":false,"stretto_voices":0,"combination":[],"aug_dim":"","rhythm_ratio":1.0,"mirror":false,"chromatic_density":0.571,"complexity":0.508,"dissonance":0.163},{"voice":0,"pitch":65,"start":44.7391,"duration":0.5217,"velocity":127,"measure":22,"beat":2.75,"subject_pos":-1,"motif":"","motif_pos":-1,"best_pos":3,"similarity":0.329,"stretto":false,"stretto_voices":0,"combination":[],"aug_dim":"","rhythm_ratio":1.0,"mirror":false,"chromatic_density":0.571,"complexity":0.508,"dissonance":0.163},{"voice":1,"pitch":59,"start":44.8696,"duration":1.0435,"velocity":127,"measure":22,"beat":3.0,"subject_pos":-1,"motif":"","motif_pos":-1,"best_pos":1,"similarity":0.375,"stretto":false,"stretto_voices":0,"combination":[],"aug_dim":"","rhythm_ratio":1.0,"mirror":false,"chromatic_density":0.571,"complexity":0.508,"dissonance":0.163},{"voice":2,"pitch":56,"start":44.8696,"duration":1.0435,"velocity":127,"measure":22,"beat":3.0,"subject_pos":-1,"motif":"","motif_pos":-1,"best_pos":1,"similarity":0.436,"stretto":false,"stretto_voices":0,"combination":[],"aug_dim":"","rhythm_ratio":1.0,"mirror":false,"chromatic_density":0.571,"complexity":0.508,"dissonance":0.163},{"voice":3,"pitch":52,"start":44.8696,"duration":1.0435,"velocity":127,"measure":22,"beat":3.0,"subject_pos":-1,"motif":"","motif_pos":-1,"best_pos":5,"similarity":0.193,"stretto":false,"stretto_voices":0,"combination":[],"aug_dim":"","rhythm_ratio":1.0,"mirror":false,"chromatic_density":0.571,"complexity":0.508,"dissonance":0.163},{"voice":0,"pitch":64,"start":45.2609,"duration":0.0652,"velocity":127,"measure":22,"beat":3.75,"subject_pos":-1,"motif":"","motif_pos":-1,"best_pos":2,"similarity":0.5,"stretto":false,"stretto_voices":0,"combination":[],"aug_dim":"","rhythm_ratio":1.0,"mirror":false,"chromatic_density":0.571,"complexity":0.508,"dissonance":0.163},{"voice":0,"pitch":62,"start":45.3261,"duration":0.0652,"velocity":127,"measure":22,"beat":3.875,"subject_pos":-1,"motif":"","motif_pos":-1,"best_pos":3,"similarity":0.65,"stretto":false,"stretto_voices":0,"combination":[],"aug_dim":"","rhythm_ratio":1.0,"mirror":false,"chromatic_density":0.571,"complexity":0.508,"dissonance":0.163},{"voice":0,"pitch":61,"start":45.3913,"duration":0.3913,"velocity":127,"measure":22,"beat":4.0,"subject_pos":-1,"motif":"","motif_pos":-1,"best_pos":4,"similarity":0.693,"stretto":false,"stretto_voices":0,"combination":[],"aug_dim":"","rhythm_ratio":1.0,"mirror":false,"chromatic_density":0.571,"complexity":0.508,"dissonance":0.163},{"voice":0,"pitch":62,"start":45.7826,"duration":0.1304,"velocity":127,"measure":22,"beat":4.75,"subject_pos":-1,"motif":"","motif_pos":-1,"best_pos":5,"similarity":0.493,"stretto":false,"stretto_voices":0,"combination":[],"aug_dim":"","rhythm_ratio":1.0,"mirror":false,"chromatic_density":0.571,"complexity":0.508,"dissonance":0.163},{"voice":0,"pitch":61,"start":45.913,"duration":0.5217,"velocity":127,"measure":23,"beat":1.0,"subject_pos":-1,"motif":"","motif_pos":-1,"best_pos":4,"similarity":0.357,"stretto":false,"stretto_voices":0,"combination":[],"aug_dim":"","rhythm_ratio":1.0,"mirror":false,"chromatic_density":0.143,"complexity":0.504,"dissonance":0.033},{"voice":1,"pitch":57,"start":45.913,"duration":0.3913,"velocity":127,"measure":23,"beat":1.0,"subject_pos":-1,"motif":"","motif_pos":-1,"best_pos":2,"similarity":0.393,"stretto":false,"stretto_voices":0,"combination":[],"aug_dim":"","rhythm_ratio":1.0,"mirror":false,"chromatic_density":0.143,"complexity":0.504,"dissonance":0.033},{"voice":2,"pitch":52,"start":45.913,"duration":0.5217,"velocity":127,"measure":23,"beat":1.0,"subject_pos":-1,"motif":"","motif_pos":-1,"best_pos":2,"similarity":0.407,"stretto":false,"stretto_voices":0,"combination":[],"aug_dim":"","rhythm_ratio":1.0,"mirror":false,"chromatic_density":0.143,"complexity":0.504,"dissonance":0.033},{"voice":3,"pitch":45,"start":45.913,"duration":0.5217,"velocity":127,"measure":23,"beat":1.0,"subject_pos":-1,"motif":"","motif_pos":-1,"best_pos":0,"similarity":0.307,"stretto":false,"stretto_voices":0,"combination":[],"aug_dim":"","rhythm_ratio":1.0,"mirror":false,"chromatic_density":0.143,"complexity":0.504,"dissonance":0.033},{"voice":1,"pitch":64,"start":46.3043,"duration":0.1304,"velocity":127,"measure":23,"beat":1.75,"subject_pos":-1,"motif":"","motif_pos":-1,"best_pos":4,"similarity":0.536,"stretto":false,"stretto_voices":0,"combination":[],"aug_dim":"","rhythm_ratio":1.0,"mirror":false,"chromatic_density":0.143,"complexity":0.504,"dissonance":0.033},{"voice":1,"pitch":65,"start":46.4348,"duration":0.3913,"velocity":127,"measure":23,"beat":2.0,"subject_pos":-1,"motif":"","motif_pos":-1,"best_pos":5,"similarity":0.679,"stretto":false,"stretto_voices":0,"combination":[],"aug_dim":"","rhythm_ratio":1.0,"mirror":false,"chromatic_density":0.143,"complexity":0.504,"dissonance":0.033},{"voice":1,"pitch":67,"start":46.8261,"duration":0.1304,"velocity":127,"measure":23,"beat":2.75,"subject_pos":-1,"motif":"","motif_pos":-1,"best_pos":6,"similarity":0.571,"stretto":false,"stretto_voices":0,"combination":[],"aug_dim":"","rhythm_ratio":1.0,"mirror":false,"chromatic_density":0.143,"complexity":0.504,"dissonance":0.033},{"voice":1,"pitch":69,"start":46.9565,"duration":1.0435,"velocity":127,"measure":23,"beat":3.0,"subject_pos":-1,"motif":"","motif_pos":-1,"best_pos":1,"similarity":0.529,"stretto":false,"stretto_voices":0,"combination":[],"aug_dim":"","rhythm_ratio":1.0,"mirror":false,"chromatic_density":0.143,"complexity":0.504,"dissonance":0.033},{"voice":2,"pitch":57,"start":47.3478,"duration":0.1304,"velocity":127,"measure":23,"beat":3.75,"subject_pos":-1,"motif":"","motif_pos":-1,"best_pos":4,"similarity":0.429,"stretto":false,"stretto_voices":0,"combination":[],"aug_dim":"","rhythm_ratio":1.0,"mirror":false,"chromatic_density":0.143,"complexity":0.504,"dissonance":0.033},{"voice":2,"pitch":59,"start":47.4782,"duration":0.3913,"velocity":127,"measure":23,"beat":4.0,"subject_pos":-1,"motif":"","motif_pos":-1,"best_pos":5,"similarity":0.607,"stretto":false,"stretto_voices":0,"combination":[],"aug_dim":"","rhythm_ratio":1.0,"mirror":false,"chromatic_density":0.143,"complexity":0.504,"dissonance":0.033},{"voice":2,"pitch":61,"start":47.8696,"duration":0.1304,"velocity":127,"measure":23,"beat":4.75,"subject_pos":-1,"motif":"","motif_pos":-1,"best_pos":6,"similarity":0.643,"stretto":false,"stretto_voices":0,"combination":[],"aug_dim":"","rhythm_ratio":1.0,"mirror":false,"chromatic_density":0.143,"complexity":0.504,"dissonance":0.033},{"voice":1,"pitch":65,"start":48.0,"duration":1.0435,"velocity":127,"measure":24,"beat":1.0,"subject_pos":-1,"motif":"","motif_pos":-1,"best_pos":2,"similarity":0.8,"stretto":false,"stretto_voices":0,"combination":[],"aug_dim":"","rhythm_ratio":1.0,"mirror":false,"chromatic_density":0.111,"complexity":0.493,"dissonance":0.159},{"voice":2,"pitch":62,"start":48.0,"duration":0.5217,"velocity":127,"measure":24,"beat":1.0,"subject_pos":-1,"motif":"","motif_pos":-1,"best_pos":7,"similarity":0.464,"stretto":false,"stretto_voices":0,"combination":[],"aug_dim":"","rhythm_ratio":1.0,"mirror":false,"chromatic_density":0.111,"complexity":0.493,"dissonance":0.159},{"voice":3,"pitch":50,"start":48.3913,"duration":0.1304,"velocity":127,"measure":24,"beat":1.75,"subject_pos":-1,"motif":"","motif_pos":-1,"best_pos":5,"similarity":0.457,"stretto":false,"stretto_voices":0,"combination":[],"aug_dim":"","rhythm_ratio":1.0,"mirror":false,"chromatic_density":0.111,"complexity":0.493,"dissonance":0.159},{"voice":2,"pitch":60,"start":48.5217,"duration":1.0435,"velocity":127,"measure":24,"beat":2.0,"subject_pos":-1,"motif":"","motif_pos":-1,"best_pos":2,"similarity":0.486,"stretto":false,"stretto_voices":0,"combination":[],"aug_dim":"","rhythm_ratio":1.0,"mirror":false,"chromatic_density":0.111,"complexity":0.493,"dissonance":0.159},{"voice":3,"pitch":52,"start":48.5217,"duration":0.3913,"velocity":127,"measure":24,"beat":2.0,"subject_pos":-1,"motif":"","motif_pos":-1,"best_pos":6,"similarity":0.586,"stretto":false,"stretto_voices":0,"combination":[],"aug_dim":"","rhythm_ratio":1.0,"mirror":false,"chromatic_density":0.111,"complexity":0.493,"dissonance":0.159},{"voice":3,"pitch":53,"start":48.913,"duration":0.1304,"velocity":127,"measure":24,"beat":2.75,"subject_pos":-1,"motif":"","motif_pos":-1,"best_pos":5,"similarity":0.657,"stretto":false,"stretto_voices":0,"combination":[],"aug_dim":"","rhythm_ratio":1.0,"mirror":false,"chromatic_density":0.111,"complexity":0.493,"dissonance":0.159},{"voice":1,"pitch":62,"start":49.0435,"duration":1.0435,"velocity":127,"measure":24,"beat":3.0,"subject_pos":-1,"motif":"tail","motif_pos":3,"best_pos":3,"similarity":1.0,"stretto":false,"stretto_voices":0,"combination":[],"aug_dim":"","rhythm_ratio":1.0,"mirror":false,"chromatic_density":0.111,"complexity":0.493,"dissonance":0.159},{"voice":3,"pitch":55,"start":49.0435,"duration":0.3913,"velocity":127,"measure":24,"beat":3.0,"subject_pos":-1,"motif":"","motif_pos":-1,"best_pos":6,"similarity":0.579,"stretto":false,"stretto_voices":0,"combination":[],"aug_dim":"","rhythm_ratio":1.0,"mirror":false,"chromatic_density":0.111,"complexity":0.493,"dissonance":0.159},{"voice":3,"pitch":57,"start":49.4348,"duration":0.1304,"velocity":127,"measure":24,"beat":3.75,"subject_pos":-1,"motif":"","motif_pos":-1,"best_pos":1,"similarity":0.457,"stretto":false,"stretto_voices":0,"combination":[],"aug_dim":"","rhythm_ratio":1.0,"mirror":false,"chromatic_density":0.111,"complexity":0.493,"dissonance":0.159},{"voice":2,"pitch":58,"start":49.5652,"duration":0.913,"velocity":127,"measure":24,"beat":4.0,"subject_pos":-1,"motif":"","motif_pos":-1,"best_pos":2,"similarity":0.661,"stretto":false,"stretto_voices":0,"combination":[],"aug_dim":"","rhythm_ratio":1.0,"mirror":false,"chromatic_density":0.111,"complexity":0.493,"dissonance":0.159},{"voice":3,"pitch":55,"start":49.5652,"duration":0.3913,"velocity":127,"measure":24,"beat":4.0,"subject_pos":-1,"motif":"","motif_pos":-1,"best_pos":2,"similarity":0.586,"stretto":false,"stretto_voices":0,"combination":[],"aug_dim":"","rhythm_ratio":1.0,"mirror":false,"chromatic_density":0.111,"complexity":0.493,"dissonance":0.159},{"voice":3,"pitch":53,"start":49.9565,"duration":0.1304,"velocity":127,"measure":24,"beat":4.75,"subject_pos":-1,"motif":"enigmatic_cell","motif_pos":0,"best_pos":0,"similarity":1.0,"stretto":false,"stretto_voices":0,"combination":[],"aug_dim":"","rhythm_ratio":1.0,"mirror":false,"chromatic_density":0.111,"complexity":0.493,"dissonance":0.159},{"voice":1,"pitch":61,"start":50.0869,"duration":1.0435,"velocity":127,"measure":25,"beat":1.0,"subject_pos":-1,"motif":"tail","motif_pos":4,"best_pos":4,"similarity":1.0,"stretto":false,"stretto_voices":0,"combination":[],"aug_dim":"","rhythm_ratio":1.0,"mirror":false,"chromatic_density":0.417,"complexity":0.625,"dissonance":0.118},{"voice":3,"pitch":52,"start":50.0869,"duration":0.3913,"velocity":127,"measure":25,"beat":1.0,"subject_pos":-1,"motif":"enigmatic_cell","motif_pos":1,"best_pos":1,"similarity":1.0,"stretto":false,"stretto_voices":0,"combination":[],"aug_dim":"","rhythm_ratio":1.0,"mirror":false,"chromatic_density":0.417,"complexity":0.625,"dissonance":0.118},{"voice":2,"pitch":55,"start":50.4782,"duration":0.1304,"velocity":127,"measure":25,"beat":1.75,"subject_pos":-1,"motif":"","motif_pos":-1,"best_pos":3,"similarity":0.614,"stretto":false,"stretto_voices":0,"combination":[],"aug_dim":"","rhythm_ratio":1.0,"mirror":false,"chromatic_density":0.417,"complexity":0.625,"dissonance":0.118},{"voice":3,"pitch":58,"start":50.4782,"duration":0.1304,"velocity":127,"measure":25,"beat":1.75,"subject_pos":-1,"motif":"enigmatic_cell","motif_pos":2,"best_pos":2,"similarity":1.0,"stretto":false,"stretto_voices":0,"combination":[],"aug_dim":"","rhythm_ratio":1.0,"mirror":false,"chromatic_density":0.417,"complexity":0.625,"dissonance":0.118},{"voice":2,"pitch":53,"start":50.6087,"duration":0.3913,"velocity":127,"measure":25,"beat":2.0,"subject_pos":-1,"motif":"enigmatic_cell","motif_pos":0,"best_pos":0,"similarity":1.0,"stretto":false,"stretto_voices":0,"combination":[],"aug_dim":"","rhythm_ratio":1.0,"mirror":false,"chromatic_density":0.417,"complexity":0.625,"dissonance":0.118},{"voice":3,"pitch":57,"start":50.6087,"duration":0.3913,"velocity":127,"measure":25,"beat":2.0,"subject_pos":-1,"motif":"","motif_pos":-1,"best_pos":2,"similarity":0.446,"stretto":false,"stretto_voices":0,"combination":[],"aug_dim":"","rhythm_ratio":1.0,"mirror":false,"chromatic_density":0.417,"complexity":0.625,"dissonance":0.118},{"voice":2,"pitch":52,"start":51.0,"duration":0.1304,"velocity":127,"measure":25,"beat":2.75,"subject_pos":-1,"motif":"enigmatic_cell","motif_pos":1,"best_pos":1,"similarity":1.0,"stretto":false,"stretto_voices":0,"combination":[],"aug_dim":"","rhythm_ratio":1.0,"mirror":false,"chromatic_density":0.417,"complexity":0.625,"dissonance":0.118},{"voice":3,"pitch":55,"start":51.0,"duration":0.1304,"velocity":127,"measure":25,"beat":2.75,"subject_pos":-1,"motif":"","motif_pos":-1,"best_pos":2,"similarity":0.579,"stretto":false,"stretto_voices":0,"combination":[],"aug_dim":"","rhythm_ratio":1.0,"mirror":false,"chromatic_density":0.417,"complexity":0.625,"dissonance":0.118},{"voice":1,"pitch":62,"start":51.1304,"duration":0.5217,"velocity":127,"measure":25,"beat":3.0,"subject_pos":-1,"motif":"tail","motif_pos":5,"best_pos":5,"similarity":1.0,"stretto":false,"stretto_voices":0,"combination":[],"aug_dim":"","rhythm_ratio":1.0,"mirror":false,"chromatic_density":0.417,"complexity":0.625,"dissonance":0.118},{"voice":2,"pitch":57,"start":51.1304,"duration":1.4348,"velocity":127,"measure":25,"beat":3.0,"subject_pos":-1,"motif":"enigmatic_cell","motif_pos":2,"best_pos":2,"similarity":1.0,"stretto":false,"stretto_voices":0,"combination":[],"aug_dim":"","rhythm_ratio":1.0,"mirror":false,"chromatic_density":0.417,"complexity":0.625,"dissonance":0.118},{"voice":3,"pitch":53,"start":51.1304,"duration":0.3913,"velocity":127,"measure":25,"beat":3.0,"subject_pos":-1,"motif":"","motif_pos":-1,"best_pos":3,"similarity":0.593,"stretto":false,"stretto_voices":0,"combination":[],"aug_dim":"","rhythm_ratio":1.0,"mirror":false,"chromatic_density":0.417,"complexity":0.625,"dissonance":0.118},{"voice":3,"pitch":52,"start":51.5217,"duration":0.1304,"velocity":127,"measure":25,"beat":3.75,"subject_pos":-1,"motif":"","motif_pos":-1,"best_pos":4,"similarity":0.543,"stretto":false,"stretto_voices":0,"combination":[],"aug_dim":"","rhythm_ratio":1.0,"mirror":false,"chromatic_density":0.417,"complexity":0.625,"dissonance":0.118},{"voice":1,"pitch":64,"start":51.6522,"duration":0.5217,"velocity":127,"measure":25,"beat":4.0,"subject_pos":-1,"motif":"tail","motif_pos":6,"best_pos":6,"similarity":1.0,"stretto":false,"stretto_voices":0,"combination":[],"aug_dim":"","rhythm_ratio":1.0,"mirror":false,"chromatic_density":0.417,"complexity":0.625,"dissonance":0.118},{"voice":3,"pitch":50,"start":51.6522,"duration":0.3913,"velocity":127,"measure":25,"beat":4.0,"subject_pos":-1,"motif":"","motif_pos":-1,"best_pos":3,"similarity":0.679,"stretto":false,"stretto_voices":0,"combination":[],"aug_dim":"","rhythm_ratio":1.0,"mirror":false,"chromatic_density":0.417,"complexity":0.625,"dissonance":0.118},{"voice":3,"pitch":49,"start":52.0435,"duration":0.1304,"velocity":127,"measure":25,"beat":4.75,"subject_pos":-1,"motif":"","motif_pos":-1,"best_pos":4,"similarity":0.75,"stretto":false,"stretto_voices":0,"combination":[],"aug_dim":"","rhythm_ratio":1.0,"mirror":false,"chromatic_density":0.417,"complexity":0.625,"dissonance":0.118},{"voice":0,"pitch":69,"start":52.1739,"duration":1.0435,"velocity":127,"measure":26,"beat":1.0,"subject_pos":0,"motif":"subject","motif_pos":0,"best_pos":0,"similarity":1.0,"stretto":false,"stretto_voices":0,"combination":[],"aug_dim":"","rhythm_ratio":1.0,"mirror":false,"chromatic_density":0.273,"complexity":0.722,"dissonance":0.16},{"voice":1,"pitch":65,"start":52.1739,"duration":1.4348,"velocity":127,"measure":26,"beat":1.0,"subject_pos":-1,"motif":"tail","motif_pos":7,"best_pos":7,"similarity":1.0,"stretto":false,"stretto_voices":0,"combination":[],"aug_dim":"","rhythm_ratio":1.0,"mirror":false,"chromatic_density":0.273,"complexity":0.722,"dissonance":0.16},{"voice":3,"pitch":50,"start":52.1739,"duration":0.5217,"velocity":127,"measure":26,"beat":1.0,"subject_pos":-1,"motif":"","motif_pos":-1,"best_pos":5,"similarity":0.607,"stretto":false,"stretto_voices":0,"combination":[],"aug_dim":"","rhythm_ratio":1.0,"mirror":false,"chromatic_density":0.273,"complexity":0.722,"dissonance":0.16},{"voice":2,"pitch":62,"start":52.5652,"duration":0.1304,"velocity":127,"measure":26,"beat":1.75,"subject_pos":-1,"motif":"","motif_pos":-1,"best_pos":1,"similarity":0.443,"stretto":false,"stretto_voices":0,"combination":[],"aug_dim":"","rhythm_ratio":1.0,"mirror":false,"chromatic_density":0.273,"complexity":0.722,"dissonance":0.16},{"voice":2,"pitch":61,"start":52.6956,"duration":0.3913,"velocity":127,"measure":26,"beat":2.0,"subject_pos":-1,"motif":"enigmatic_cell","motif_pos":0,"best_pos":0,"similarity":1.0,"stretto":false,"stretto_voices":0,"combination":[],"aug_dim":"","rhythm_ratio":1.0,"mirror":false,"chromatic_density":0.273,"complexity":0.722,"dissonance":0.16},{"voice":3,"pitch":53,"start":52.6956,"duration":0.5217,"velocity":127,"measure":26,"beat":2.0,"subject_pos":-1,"motif":"","motif_pos":-1,"best_pos":6,"similarity":0.357,"stretto":false,"stretto_voices":0,"combination":[],"aug_dim":"","rhythm_ratio":1.0,"mirror":false,"chromatic_density":0.273,"complexity":0.722,"dissonance":0.16},{"voice":2,"pitch":62,"start":53.0869,"duration":0.1304,"velocity":127,"measure":26,"beat":2.75,"subject_pos":-1,"motif":"enigmatic_cell","motif_pos":1,"best_pos":1,"similarity":1.0,"stretto":false,"stretto_voices":0,"combination":[],"aug_dim":"","rhythm_ratio":1.0,"mirror":false,"chromatic_density":0.273,"complexity":0.722,"dissonance":0.16},{"voice":0,"pitch":74,"start":53.2174,"duration":1.0435,"velocity":127,"measure":26,"beat":3.0,"subject_pos":1,"motif":"subject","motif_pos":1,"best_pos":1,"similarity":1.0,"stretto":false,"stretto_voices":0,"combination":[],"aug_dim":"","rhythm_ratio":1.0,"mirror":false,"chromatic_density":0.273,"complexity":0.722,"dissonance":0.16},{"voice":2,"pitch":56,"start":53.2174,"duration":0.5217,"velocity":127,"measure":26,"beat":3.0,"subject_pos":-1,"motif":"enigmatic_cell","motif_pos":2,"best_pos":2,"similarity":1.0,"stretto":false,"stretto_voices":0,"combination":[],"aug_dim":"","rhythm_ratio":1.0,"mirror":false,"chromatic_density":0.273,"complexity":0.722,"dissonance":0.16},{"voice":3,"pitch":47,"start":53.2174,"duration":0.5217,"velocity":127,"measure":26,"beat":3.0,"subject_pos":-1,"motif":"","motif_pos":-1,"best_pos":0,"similarity":0.3,"stretto":false,"stretto_voices":0,"combination":[],"aug_dim":"","rhythm_ratio":1.0,"mirror":false,"chromatic_density":0.273,"complexity":0.722,"dissonance":0.16},{"voice":1,"pitch":69,"start":53.6087,"duration":0.1304,"velocity":127,"measure":26,"beat":3.75,"subject_pos":-1,"motif":"","motif_pos":-1,"best_pos":1,"similarity":0.393,"stretto":false,"stretto_voices":0,"combination":[],"aug_dim":"","rhythm_ratio":1.0,"mirror":false,"chromatic_density":0.273,"complexity":0.722,"dissonance":0.16},{"voice":1,"pitch":68,"start":53.7391,"duration":0.3913,"velocity":127,"measure":26,"beat":4.0,"subject_pos":-1,"motif":"","motif_pos":-1,"best_pos":2,"similarity":0.429,"stretto":false,"stretto_voices":0,"combination":[],"aug_dim":"","rhythm_ratio":1.0,"mirror":false,"chromatic_density":0.273,"complexity":0.722,"dissonance":0.16},{"voice":2,"pitch":59,"start":53.7391,"duration":0.913,"velocity":127,"measure":26,"beat":4.0,"subject_pos":-1,"motif":"","motif_pos":-1,"best_pos":6,"similarity":0.161,"stretto":false,"stretto_voices":0,"combination":[],"aug_dim":"","rhythm_ratio":1.0,"mirror":false,"chromatic_density":0.273,"complexity":0.722,"dissonance":0.16},{"voice":3,"pitch":52,"start":53.7391,"duration":0.5217,"velocity":127,"measure":26,"beat":4.0,"subject_pos":-1,"motif":"","motif_pos":-1,"best_pos":1,"similarity":0.332,"stretto":false,"stretto_voices":0,"combination":[],"aug_dim":"","rhythm_ratio":1.0,"mirror":false,"chromatic_density":0.273,"complexity":0.722,"dissonance":0.16},{"voice":1,"pitch":66,"start":54.1304,"duration":0.1304,"velocity":127,"measure":26,"beat":4.75,"subject_pos":-1,"motif":"","motif_pos":-1,"best_pos":2,"similarity":0.436,"stretto":false,"stretto_voices":0,"combination":[],"aug_dim":"","rhythm_ratio":1.0,"mirror":false,"chromatic_density":0.273,"complexity":0.722,"dissonance":0.16},{"voice":0,"pitch":72,"start":54.2609,"duration":1.0435,"velocity":127,"measure":27,"beat":1.0,"subject_pos":2,"motif":"subject","motif_pos":2,"best_pos":2,"similarity":1.0,"stretto":false,"stretto_voices":0,"combination":[],"aug_dim":"","rhythm_ratio":1.0,"mirror":false,"chromatic_density":0.0,"complexity":0.598,"dissonance":0.067},{"voice":1,"pitch":64,"start":54.2609,"duration":1.4348,"velocity":127,"measure":27,"beat":1.0,"subject_pos":-1,"motif":"","motif_pos":-1,"best_pos":2,"similarity":0.321,"stretto":false,"stretto_voices":0,"combination":[],"aug_dim":"","rhythm_ratio":1.0,"mirror":false,"chromatic_density":0.0,"complexity":0.598,"dissonance":0.067},{"voice":3,"pitch":45,"start":54.2609,"duration":1.0435,"velocity":127,"measure":27,"beat":1.0,"subject_pos":-1,"motif":"","motif_pos":-1,"best_pos":0,"similarity":0.357,"stretto":false,"stretto_voices":0,"combination":[],"aug_dim":"","rhythm_ratio":1.0,"mirror":false,"chromatic_density":0.0,"complexity":0.598,"dissonance":0.067},{"voice":2,"pitch":52,"start":54.6522,"duration":0.1304,"velocity":127,"measure":27,"beat":1.75,"subject_pos":-1,"motif":"","motif_pos":-1,"best_pos":0,"similarity":0.464,"stretto":false,"stretto_voices":0,"combination":[],"aug_dim":"","rhythm_ratio":1.0,"mirror":false,"chromatic_density":0.0,"complexity":0.598,"dissonance":0.067},{"voice":2,"pitch":57,"start":54.7826,"duration":0.3913,"velocity":127,"measure":27,"beat":2.0,"subject_pos":-1,"motif":"","motif_pos":-1,"best_pos":1,"similarity":0.714,"stretto":false,"stretto_voices":0,"combination":[],"aug_dim":"","rhythm_ratio":1.0,"mirror":false,"chromatic_density":0.0,"complexity":0.598,"dissonance":0.067},{"voice":2,"pitch":55,"start":55.1739,"duration":0.1304,"velocity":127,"measure":27,"beat":2.75,"subject_pos":-1,"motif":"","motif_pos":-1,"best_pos":2,"similarity":0.714,"stretto":false,"stretto_voices":0,"combination":[],"aug_dim":"","rhythm_ratio":1.0,"mirror":false,"chromatic_density":0.0,"complexity":0.598,"dissonance":0.067},{"voice":0,"pitch":69,"start":55.3043,"duration":1.0435,"velocity":127,"measure":27,"beat":3.0,"subject_pos":3,"motif":"subject","motif_pos":3,"best_pos":3,"similarity":1.0,"stretto":false,"stretto_voices":0,"combination":[],"aug_dim":"","rhythm_ratio":1.0,"mirror":false,"chromatic_density":0.0,"complexity":0.598,"dissonance":0.067},{"voice":2,"pitch":53,"start":55.3043,"duration":1.5652,"velocity":127,"measure":27,"beat":3.0,"subject_pos":-1,"motif":"","motif_pos":-1,"best_pos":3,"similarity":0.65,"stretto":false,"stretto_voices":0,"combination":[],"aug_dim":"","rhythm_ratio":1.0,"mirror":false,"chromatic_density":0.0,"complexity":0.598,"dissonance":0.067},{"voice":3,"pitch":50,"start":55.3043,"duration":1.4348,"velocity":127,"measure":27,"beat":3.0,"subject_pos":-1,"motif":"","motif_pos":-1,"best_pos":1,"similarity":0.464,"stretto":false,"stretto_voices":0,"combination":[],"aug_dim":"","rhythm_ratio":1.0,"mirror":false,"chromatic_density":0.0,"complexity":0.598,"dissonance":0.067},{"voice":1,"pitch":57,"start":55.6956,"duration":0.1304,"velocity":127,"measure":27,"beat":3.75,"subject_pos":-1,"motif":"","motif_pos":-1,"best_pos":0,"similarity":0.446,"stretto":false,"stretto_voices":0,"combination":[],"aug_dim":"","rhythm_ratio":1.0,"mirror":false,"chromatic_density":0.0,"complexity":0.598,"dissonance":0.067},{"voice":1,"pitch":62,"start":55.8261,"duration":0.3913,"velocity":127,"measure":27,"beat":4.0,"subject_pos":-1,"motif":"","motif_pos":-1,"best_pos":1,"similarity":0.607,"stretto":false,"stretto_voices":0,"combination":[],"aug_dim":"","rhythm_ratio":1.0,"mirror":false,"chromatic_density":0.0,"complexity":0.598,"dissonance":0.067},{"voice":1,"pitch":60,"start":56.2174,"duration":0.1304,"velocity":127,"measure":27,"beat":4.75,"subject_pos":-1,"motif":"enigmatic_cell","motif_pos":0,"best_pos":0,"similarity":1.0,"stretto":false,"stretto_voices":0,"combination":[],"aug_dim":"","rhythm_ratio":1.0,"mirror":false,"chromatic_density":0.0,"complexity":0.598,"dissonance":0.067},{"voice":0,"pitch":68,"start":56.3478,"duration":1.0435,"velocity":127,"measure":28,"beat":1.0,"subject_pos":4,"motif":"subject","motif_pos":4,"best_pos":4,"similarity":1.0,"stretto":false,"stretto_voices":0,"combination":[],"aug_dim":"","rhythm_ratio":1.0,"mirror":false,"chromatic_density":0.222,"complexity":0.592,"dissonance":0.05},{"voice":1,"pitch":59,"start":56.3478,"duration":1.0435,"velocity":127,"measure":28,"beat":1.0,"subject_pos":-1,"motif":"enigmatic_cell","motif_pos":1,"best_pos":1,"similarity":1.0,"stretto":false,"stretto_voices":0,"combination":[],"aug_dim":"","rhythm_ratio":1.0,"mirror":false,"chromatic_density":0.222,"complexity":0.592,"dissonance":0.05},{"voice":3,"pitch":47,"start":56.7391,"duration":0.1304,"velocity":127,"measure":28,"beat":1.75,"subject_pos":-1,"motif":"","motif_pos":-1,"best_pos":0,"similarity":0.464,"stretto":false,"stretto_voices":0,"combination":[],"aug_dim":"","rhythm_ratio":1.0,"mirror":false,"chromatic_density":0.222,"complexity":0.592,"dissonance":0.05},{"voice":2,"pitch":52,"start":56.8696,"duration":0.5217,"velocity":127,"measure":28,"beat":2.0,"subject_pos":-1,"motif":"","motif_pos":-1,"best_pos":4,"similarity":0.461,"stretto":false,"stretto_voices":0,"combination":[],"aug_dim":"","rhythm_ratio":1.0,"mirror":false,"chromatic_density":0.222,"complexity":0.592,"dissonance":0.05},{"voice":3,"pitch":52,"start":56.8696,"duration":0.3913,"velocity":127,"measure":28,"beat":2.0,"subject_pos":-1,"motif":"","motif_pos":-1,"best_pos":1,"similarity":0.714,"stretto":false,"stretto_voices":0,"combination":[],"aug_dim":"","rhythm_ratio":1.0,"mirror":false,"chromatic_density":0.222,"complexity":0.592,"dissonance":0.05},{"voice":3,"pitch":50,"start":57.2609,"duration":0.1304,"velocity":127,"measure":28,"beat":2.75,"subject_pos":-1,"motif":"","motif_pos":-1,"best_pos":2,"similarity":0.721,"stretto":false,"stretto_voices":0,"combination":[],"aug_dim":"","rhythm_ratio":1.0,"mirror":false,"chromatic_density":0.222,"complexity":0.592,"dissonance":0.05},{"voice":0,"pitch":69,"start":57.3913,"duration":0.5217,"velocity":127,"measure":28,"beat":3.0,"subject_pos":5,"motif":"subject","motif_pos":5,"best_pos":5,"similarity":1.0,"stretto":false,"stretto_voices":0,"combination":[],"aug_dim":"","rhythm_ratio":1.0,"mirror":false,"chromatic_density":0.222,"complexity":0.592,"dissonance":0.05},{"voice":3,"pitch":48,"start":57.3913,"duration":0.5217,"velocity":127,"measure":28,"beat":3.0,"subject_pos":-1,"motif":"","motif_pos":-1,"best_pos":3,"similarity":0.664,"stretto":false,"stretto_voices":0,"combination":[],"aug_dim":"","rhythm_ratio":1.0,"mirror":false,"chromatic_density":0.222,"complexity":0.592,"dissonance":0.05},{"voice":1,"pitch":64,"start":57.7826,"duration":0.1304,"velocity":127,"measure":28,"beat":3.75,"subject_pos":-1,"motif":"enigmatic_cell","motif_pos":2,"best_pos":2,"similarity":1.0,"stretto":false,"stretto_voices":0,"combination":[],"aug_dim":"","rhythm_ratio":1.0,"mirror":false,"chromatic_density":0.222,"complexity":0.592,"dissonance":0.05},{"voice":0,"pitch":71,"start":57.913,"duration":0.5217,"velocity":127,"measure":28,"beat":4.0,"subject_pos":6,"motif":"subject","motif_pos":6,"best_pos":6,"similarity":1.0,"stretto":false,"stretto_voices":0,"combination":[],"aug_dim":"","rhythm_ratio":1.0,"mirror":false,"chromatic_density":0.222,"complexity":0.592,"dissonance":0.05},{"voice":1,"pitch":66,"start":57.913,"duration":0.3913,"velocity":127,"measure":28,"beat":4.0,"subject_pos":-1,"motif":"","motif_pos":-1,"best_pos":5,"similarity":0.589,"stretto":false,"stretto_voices":0,"combination":[],"aug_dim":"","rhythm_ratio":1.0,"mirror":false,"chromatic_density":0.222,"complexity":0.592,"dissonance":0.05},{"voice":3,"pitch":47,"start":57.913,"duration":0.5217,"velocity":127,"measure":28,"beat":4.0,"subject_pos":-1,"motif":"","motif_pos":-1,"best_pos":4,"similarity":0.471,"stretto":false,"stretto_voices":0,"combination":[],"aug_dim":"","rhythm_ratio":1.0,"mirror":false,"chromatic_density":0.222,"complexity":0.592,"dissonance":0.05},{"voice":1,"pitch":68,"start":58.3043,"duration":0.1304,"velocity":127,"measure":28,"beat":4.75,"subject_pos":-1,"motif":"","motif_pos":-1,"best_pos":6,"similarity":0.643,"stretto":false,"stretto_voices":0,"combination":[],"aug_dim":"","rhythm_ratio":1.0,"mirror":false,"chromatic_density":0.222,"complexity":0.592,"dissonance":0.05},{"voice":0,"pitch":72,"start":58.4348,"duration":1.4348,"velocity":127,"measure":29,"beat":1.0,"subject_pos":7,"motif":"subject","motif_pos":7,"best_pos":7,"similarity":1.0,"stretto":false,"stretto_voices":0,"combination":[],"aug_dim":"","rhythm_ratio":1.0,"mirror":false,"chromatic_density":0.625,"complexity":0.535,"dissonance":0.087},{"voice":1,"pitch":69,"start":58.4348,"duration":1.5652,"velocity":127,"measure":29,"beat":1.0,"subject_pos":-1,"motif":"","motif_pos":-1,"best_pos":3,"similarity":0.486,"stretto":false,"stretto_voices":0,"combination":[],"aug_dim":"","rhythm_ratio":1.0,"mirror":false,"chromatic_density":0.625,"complexity":0.535,"dissonance":0.087},{"voice":3,"pitch":45,"start":58.4348,"duration":0.5217,"velocity":127,"measure":29,"beat":1.0,"subject_pos":-1,"motif":"","motif_pos":-1,"best_pos":0,"similarity":0.321,"stretto":false,"stretto_voices":0,"combination":[],"aug_dim":"","rhythm_ratio":1.0,"mirror":false,"chromatic_density":0.625,"complexity":0.535,"dissonance":0.087},{"voice":2,"pitch":67,"start":58.8261,"duration":0.1304,"velocity":127,"measure":29,"beat":1.75,"subject_pos":-1,"motif":"","motif_pos":-1,"best_pos":1,"similarity":0.393,"stretto":false,"stretto_voices":0,"combination":[],"aug_dim":"","rhythm_ratio":1.0,"mirror":false,"chromatic_density":0.625,"complexity":0.535,"dissonance":0.087},{"voice":2,"pitch":65,"start":58.9565,"duration":0.3913,"velocity":127,"measure":29,"beat":2.0,"subject_pos":-1,"motif":"","motif_pos":-1,"best_pos":2,"similarity":0.571,"stretto":false,"stretto_voices":0,"combination":[],"aug_dim":"","rhythm_ratio":1.0,"mirror":false,"chromatic_density":0.625,"complexity":0.535,"dissonance":0.087},{"voice":2,"pitch":64,"start":59.3478,"duration":0.1304,"velocity":127,"measure":29,"beat":2.75,"subject_pos":-1,"motif":"","motif_pos":-1,"best_pos":3,"similarity":0.643,"stretto":false,"stretto_voices":0,"combination":[],"aug_dim":"","rhythm_ratio":1.0,"mirror":false,"chromatic_density":0.625,"complexity":0.535,"dissonance":0.087},{"voice":2,"pitch":63,"start":59.4782,"duration":0.5217,"velocity":127,"measure":29,"beat":3.0,"subject_pos":-1,"motif":"","motif_pos":-1,"best_pos":4,"similarity":0.714,"stretto":false,"stretto_voices":0,"combination":[],"aug_dim":"","rhythm_ratio":1.0,"mirror":false,"chromatic_density":0.625,"complexity":0.535,"dissonance":0.087},{"voice":0,"pitch":74,"start":59.8696,"duration":0.1304,"velocity":127,"measure":29,"beat":3.75,"subject_pos":-1,"motif":"","motif_pos":-1,"best_pos":6,"similarity":0.464,"stretto":false,"stretto_voices":0,"combination":[],"aug_dim":"","rhythm_ratio":1.0,"mirror":false,"chromatic_density":0.625,"complexity":0.535,"dissonance":0.087},{"voice":0,"pitch":72,"start":60.0,"duration":0.3913,"velocity":127,"measure":29,"beat":4.0,"subject_pos":-1,"motif":"","motif_pos":-1,"best_pos":3,"similarity":0.593,"stretto":false,"stretto_voices":0,"combination":[],"aug_dim":"","rhythm_ratio":1.0,"mirror":false,"chromatic_density":0.625,"complexity":0.535,"dissonance":0.087},{"voice":1,"pitch":68,"start":60.0,"duration":0.5217,"velocity":127,"measure":29,"beat":4.0,"subject_pos":-1,"motif":"","motif_pos":-1,"best_pos":4,"similarity":0.614,"stretto":false,"stretto_voices":0,"combination":[],"aug_dim":"","rhythm_ratio":1.0,"mirror":false,"chromatic_density":0.625,"complexity":0.535,"dissonance":0.087},{"voice":2,"pitch":64,"start":60.0,"duration":0.5217,"velocity":127,"measure":29,"beat":4.0,"subject_pos":-1,"motif":"head_inv","motif_pos":0,"best_pos":0,"similarity":1.0,"stretto":false,"stretto_voices":0,"combination":[],"aug_dim":"","rhythm_ratio":1.0,"mirror":false,"chromatic_density":0.625,"complexity":0.535,"dissonance":0.087},{"voice":0,"pitch":71,"start":60.3913,"duration":0.1304,"velocity":127,"measure":29,"beat":4.75,"subject_pos":-1,"motif":"","motif_pos":-1,"best_pos":4,"similarity":0.657,"stretto":false,"stretto_voices":0,"combination":[],"aug_dim":"","rhythm_ratio":1.0,"mirror":false,"chromatic_density":0.625,"complexity":0.535,"dissonance":0.087},{"voice":0,"pitch":72,"start":60.5217,"duration":0.5217,"velocity":127,"measure":30,"beat":1.0,"subject_pos":-1,"motif":"","motif_pos":-1,"best_pos":5,"similarity":0.479,"stretto":false,"stretto_voices":0,"combination":[],"aug_dim":"","rhythm_ratio":1.0,"mirror":false,"chromatic_density":0.182,"complexity":0.575,"dissonance":0.088},{"voice":1,"pitch":69,"start":60.5217,"duration":0.3913,"velocity":127,"measure":30,"beat":1.0,"subject_pos":-1,"motif":"","motif_pos":-1,"best_pos":5,"similarity":0.479,"stretto":false,"stretto_voices":0,"combination":[],"aug_dim":"","rhythm_ratio":1.0,"mirror":false,"chromatic_density":0.182,"complexity":0.575,"dissonance":0.088},{"voice":2,"pitch":57,"start":60.5217,"duration":1.0435,"velocity":127,"measure":30,"beat":1.0,"subject_pos":-1,"motif":"head_inv","motif_pos":1,"best_pos":1,"similarity":1.0,"stretto":false,"stretto_voices":0,"combination":[],"aug_dim":"","rhythm_ratio":1.0,"mirror":false,"chromatic_density":0.182,"complexity":0.575,"dissonance":0.088},{"voice":1,"pitch":67,"start":60.913,"duration":0.1304,"velocity":127,"measure":30,"beat":1.75,"subject_pos":-1,"motif":"","motif_pos":-1,"best_pos":2,"similarity":0.593,"stretto":false,"stretto_voices":0,"combination":[],"aug_dim":"","rhythm_ratio":1.0,"mirror":false,"chromatic_density":0.182,"complexity":0.575,"dissonance":0.088},{"voice":0,"pitch":81,"start":61.0435,"duration":0.913,"velocity":127,"measure":30,"beat":2.0,"subject_pos":-1,"motif":"","motif_pos":-1,"best_pos":1,"similarity":0.5,"stretto":false,"stretto_voices":0,"combination":[],"aug_dim":"","rhythm_ratio":1.0,"mirror":false,"chromatic_density":0.182,"complexity":0.575,"dissonance":0.088},{"voice":1,"pitch":65,"start":61.0435,"duration":0.3913,"velocity":127,"measure":30,"beat":2.0,"subject_pos":-1,"motif":"","motif_pos":-1,"best_pos":3,"similarity":0.6,"stretto":false,"stretto_voices":0,"combination":[],"aug_dim":"","rhythm_ratio":1.0,"mirror":false,"chromatic_density":0.182,"complexity":0.575,"dissonance":0.088},{"voice":1,"pitch":64,"start":61.4348,"duration":0.1304,"velocity":127,"measure":30,"beat":2.75,"subject_pos":-1,"motif":"","motif_pos":-1,"best_pos":4,"similarity":0.479,"stretto":false,"stretto_voices":0,"combination":[],"aug_dim":"","rhythm_ratio":1.0,"mirror":false,"chromatic_density":0.182,"complexity":0.575,"dissonance":0.088},{"voice":1,"pitch":62,"start":61.5652,"duration":0.5217,"velocity":127,"measure":30,"beat":3.0,"subject_pos":-1,"motif":"head","motif_pos":0,"best_pos":0,"similarity":1.0,"stretto":false,"stretto_voices":0,"combination":[],"aug_dim":"","rhythm_ratio":1.0,"mirror":false,"chromatic_density":0.182,"complexity":0.575,"dissonance":0.088},{"voice":2,"pitch":59,"start":61.5652,"duration":0.5217,"velocity":127,"measure":30,"beat":3.0,"subject_pos":-1,"motif":"head_inv","motif_pos":2,"best_pos":2,"similarity":1.0,"stretto":false,"stretto_voices":0,"combination":[],"aug_dim":"","rhythm_ratio":1.0,"mirror":false,"chromatic_density":0.182,"complexity":0.575,"dissonance":0.088},{"voice":0,"pitch":79,"start":61.9565,"duration":0.1304,"velocity":127,"measure":30,"beat":3.75,"subject_pos":-1,"motif":"","motif_pos":-1,"best_pos":2,"similarity":0.679,"stretto":false,"stretto_voices":0,"combination":[],"aug_dim":"","rhythm_ratio":1.0,"mirror":false,"chromatic_density":0.182,"complexity":0.575,"dissonance":0.088},{"voice":0,"pitch":77,"start":62.0869,"duration":0.3913,"velocity":127,"measure":30,"beat":4.0,"subject_pos":-1,"motif":"","motif_pos":-1,"best_pos":3,"similarity":0.739,"stretto":false,"stretto_voices":0,"combination":[],"aug_dim":"","rhythm_ratio":1.0,"mirror":false,"chromatic_density":0.182,"complexity":0.575,"dissonance":0.088},{"voice":1,"pitch":67,"start":62.0869,"duration":0.5217,"velocity":127,"measure":30,"beat":4.0,"subject_pos":-1,"motif":"head","motif_pos":1,"best_pos":1,"similarity":1.0,"stretto":false,"stretto_voices":0,"combination":[],"aug_dim":"","rhythm_ratio":1.0,"mirror":false,"chromatic_density":0.182,"complexity":0.575,"dissonance":0.088},{"voice":2,"pitch":61,"start":62.0869,"duration":0.5217,"velocity":127,"measure":30,"beat":4.0,"subject_pos":-1,"motif":"head_inv","motif_pos":3,"best_pos":3,"similarity":1.0,"stretto":false,"stretto_voices":0,"combination":[],"aug_dim":"","rhythm_ratio":1.0,"mirror":false,"chromatic_density":0.182,"complexity":0.575,"dissonance":0.088},{"voice":0,"pitch":76,"start":62.4782,"duration":0.5217,"velocity":127,"measure":30,"beat":4.75,"subject_pos":-1,"motif":"","motif_pos":-1,"best_pos":4,"similarity":0.736,"stretto":false,"stretto_voices":0,"combination":[],"aug_dim":"","rhythm_ratio":1.0,"mirror":false,"chromatic_density":0.182,"complexity":0.575,"dissonance":0.088},{"voice":1,"pitch":65,"start":62.6087,"duration":1.0435,"velocity":127,"measure":31,"beat":1.0,"subject_pos":-1,"motif":"head","motif_pos":2,"best_pos":2,"similarity":1.0,"stretto":false,"stretto_voices":0,"combination":[],"aug_dim":"","rhythm_ratio":1.0,"mirror":false,"chromatic_density":0.429,"complexity":0.597,"dissonance":0.091},{"voice":2,"pitch":62,"start":62.6087,"duration":1.0435,"velocity":127,"measure":31,"beat":1.0,"subject_pos":-1,"motif":"head_inv","motif_pos":4,"best_pos":4,"similarity":1.0,"stretto":false,"stretto_voices":0,"combination":[],"aug_dim":"","rhythm_ratio":1.0,"mirror":false,"chromatic_density":0.429,"complexity":0.597,"dissonance":0.091},{"voice":3,"pitch":50,"start":62.6087,"duration":1.0435,"velocity":127,"measure":31,"beat":1.0,"subject_pos":0,"motif":"subject","motif_pos":0,"best_pos":0,"similarity":1.0,"stretto":false,"stretto_voices":0,"combination":[],"aug_dim":"","rhythm_ratio":1.0,"mirror":false,"chromatic_density":0.429,"complexity":0.597,"dissonance":0.091},{"voice":0,"pitch":77,"start":63.0,"duration":0.1304,"velocity":127,"measure":31,"beat":1.75,"subject_pos":-1,"motif":"","motif_pos":-1,"best_pos":5,"similarity":0.507,"stretto":false,"stretto_voices":0,"combination":[],"aug_dim":"","rhythm_ratio":1.0,"mirror":false,"chromatic_density":0.429,"complexity":0.597,"dissonance":0.091},{"voice":0,"pitch":76,"start":63.1304,"duration":0.3913,"velocity":127,"measure":31,"beat":2.0,"subject_pos":-1,"motif":"","motif_pos":-1,"best_pos":4,"similarity":0.514,"stretto":false,"stretto_voices":0,"combination":[],"aug_dim":"","rhythm_ratio":1.0,"mirror":false,"chromatic_density":0.429,"complexity":0.597,"dissonance":0.091},{"voice":0,"pitch":74,"start":63.5217,"duration":0.5217,"velocity":127,"measure":31,"beat":2.75,"subject_pos":-1,"motif":"","motif_pos":-1,"best_pos":5,"similarity":0.479,"stretto":false,"stretto_voices":0,"combination":[],"aug_dim":"","rhythm_ratio":1.0,"mirror":false,"chromatic_density":0.429,"complexity":0.597,"dissonance":0.091},{"voice":1,"pitch":64,"start":63.6522,"duration":1.0435,"velocity":127,"measure":31,"beat":3.0,"subject_pos":-1,"motif":"head","motif_pos":3,"best_pos":3,"similarity":1.0,"stretto":false,"stretto_voices":0,"combination":[],"aug_dim":"","rhythm_ratio":1.0,"mirror":false,"chromatic_density":0.429,"complexity":0.597,"dissonance":0.091},{"voice":3,"pitch":57,"start":63.6522,"duration":1.0435,"velocity":127,"measure":31,"beat":3.0,"subject_pos":1,"motif":"subject","motif_pos":1,"best_pos":1,"similarity":1.0,"stretto":false,"stretto_voices":0,"combination":[],"aug_dim":"","rhythm_ratio":1.0,"mirror":false,"chromatic_density":0.429,"complexity":0.597,"dissonance":0.091},{"voice":0,"pitch":76,"start":64.0435,"duration":0.1304,"velocity":127,"measure":31,"beat":3.75,"subject_pos":-1,"motif":"","motif_pos":-1,"best_pos":6,"similarity":0.4,"stretto":false,"stretto_voices":0,"combination":[],"aug_dim":"","rhythm_ratio":1.0,"mirror":false,"chromatic_density":0.429,"complexity":0.597,"dissonance":0.091},{"voice":0,"pitch":74,"start":64.1739,"duration":0.3913,"velocity":127,"measure":31,"beat":4.0,"subject_pos":-1,"motif":"","motif_pos":-1,"best_pos":3,"similarity":0.586,"stretto":false,"stretto_voices":0,"combination":[],"aug_dim":"","rhythm_ratio":1.0,"mirror":false,"chromatic_density":0.429,"complexity":0.597,"dissonance":0.091},{"voice":0,"pitch":73,"start":64.5652,"duration":0.1304,"velocity":127,"measure":31,"beat":4.75,"subject_pos":-1,"motif":"","motif_pos":-1,"best_pos":4,"similarity":0.668,"stretto":false,"stretto_voices":0,"combination":[],"aug_dim":"","rhythm_ratio":1.0,"mirror":false,"chromatic_density":0.429,"complexity":0.597,"dissonance":0.091},{"voice":0,"pitch":74,"start":64.6956,"duration":1.0435,"velocity":127,"measure":32,"beat":1.0,"subject_pos":-1,"motif":"","motif_pos":-1,"best_pos":5,"similarity":0.5,"stretto":false,"stretto_voices":0,"combination":[],"aug_dim":"","rhythm_ratio":1.0,"mirror":false,"chromatic_density":0.286,"complexity":0.526,"dissonance":0.132},{"voice":1,"pitch":62,"start":64.6956,"duration":1.0435,"velocity":127,"measure":32,"beat":1.0,"subject_pos":-1,"motif":"head","motif_pos":4,"best_pos":4,"similarity":1.0,"stretto":false,"stretto_voices":0,"combination":[],"aug_dim":"","rhythm_ratio":1.0,"mirror":false,"chromatic_density":0.286,"complexity":0.526,"dissonance":0.132},{"voice":3,"pitch":53,"start":64.6956,"duration":1.0435,"velocity":127,"measure":32,"beat":1.0,"subject_pos":2,"motif":"subject","motif_pos":2,"best_pos":2,"similarity":1.0,"stretto":false,"stretto_voices":0,"combination":[],"aug_dim":"","rhythm_ratio":1.0,"mirror":false,"chromatic_density":0.286,"complexity":0.526,"dissonance":0.132},{"voice":2,"pitch":57,"start":65.0869,"duration":0.1304,"velocity":127,"measure":32,"beat":1.75,"subject_pos":-1,"motif":"","motif_pos":-1,"best_pos":4,"similarity":0.407,"stretto":false,"stretto_voices":0,"combination":[],"aug_dim":"","rhythm_ratio":1.0,"mirror":false,"chromatic_density":0.286,"complexity":0.526,"dissonance":0.132},{"voice":2,"pitch":59,"start":65.2174,"duration":0.3913,"velocity":127,"measure":32,"beat":2.0,"subject_pos":-1,"motif":"","motif_pos":-1,"best_pos":5,"similarity":0.593,"stretto":false,"stretto_voices":0,"combination":[],"aug_dim":"","rhythm_ratio":1.0,"mirror":false,"chromatic_density":0.286,"complexity":0.526,"dissonance":0.132},{"voice":2,"pitch":61,"start":65.6087,"duration":0.1304,"velocity":127,"measure":32,"beat":2.75,"subject_pos":-1,"motif":"","motif_pos":-1,"best_pos":6,"similarity":0.65,"stretto":false,"stretto_voices":0,"combination":[],"aug_dim":"","rhythm_ratio":1.0,"mirror":false,"chromatic_density":0.286,"complexity":0.526,"dissonance":0.132},{"voice":2,"pitch":62,"start":65.7391,"duration":0.3913,"velocity":127,"measure":32,"beat":3.0,"subject_pos":-1,"motif":"","motif_pos":-1,"best_pos":5,"similarity":0.729,"stretto":false,"stretto_voices":0,"combination":[],"aug_dim":"","rhythm_ratio":1.0,"mirror":false,"chromatic_density":0.286,"complexity":0.526,"dissonance":0.132},{"voice":3,"pitch":50,"start":65.7391,"duration":1.0435,"velocity":127,"measure":32,"beat":3.0,"subject_pos":3,"motif":"subject","motif_pos":3,"best_pos":3,"similarity":1.0,"stretto":false,"stretto_voices":0,"combination":[],"aug_dim":"","rhythm_ratio":1.0,"mirror":false,"chromatic_density":0.286,"complexity":0.526,"dissonance":0.132},{"voice":2,"pitch":64,"start":66.1304,"duration":0.1304,"velocity":127,"measure":32,"beat":3.75,"subject_pos":-1,"motif":"","motif_pos":-1,"best_pos":6,"similarity":0.721,"stretto":false,"stretto_voices":0,"combination":[],"aug_dim":"","rhythm_ratio":1.0,"mirror":false,"chromatic_density":0.286,"complexity":0.526,"dissonance":0.132},{"voice":2,"pitch":65,"start":66.2609,"duration":0.3913,"velocity":127,"measure":32,"beat":4.0,"subject_pos":-1,"motif":"","motif_pos":-1,"best_pos":7,"similarity":0.5,"stretto":false,"stretto_voices":0,"combination":[],"aug_dim":"","rhythm_ratio":1.0,"mirror":false,"chromatic_density":0.286,"complexity":0.526,"dissonance":0.132},{"voice":2,"pitch":62,"start":66.6522,"duration":0.1304,"velocity":127,"measure":32,"beat":4.75,"subject_pos":-1,"motif":"","motif_pos":-1,"best_pos":3,"similarity":0.371,"stretto":false,"stretto_voices":0,"combination":[],"aug_dim":"","rhythm_ratio":1.0,"mirror":false,"chromatic_density":0.286,"complexity":0.526,"dissonance":0.132},{"voice":2,"pitch":64,"start":66.7826,"duration":0.5217,"velocity":127,"measure":33,"beat":1.0,"subject_pos":-1,"motif":"","motif_pos":-1,"best_pos":5,"similarity":0.329,"stretto":false,"stretto_voices":0,"combination":[],"aug_dim":"","rhythm_ratio":1.0,"mirror":false,"chromatic_density":0.455,"complexity":0.493,"dissonance":0.186},{"voice":3,"pitch":49,"start":66.7826,"duration":1.0435,"velocity":127,"measure":33,"beat":1.0,"subject_pos":4,"motif":"subject","motif_pos":4,"best_pos":4,"similarity":1.0,"stretto":false,"stretto_voices":0,"combination":[],"aug_dim":"","rhythm_ratio":1.0,"mirror":false,"chromatic_density":0.455,"complexity":0.493,"dissonance":0.186},{"voice":1,"pitch":70,"start":67.1739,"duration":0.1304,"velocity":127,"measure":33,"beat":1.75,"subject_pos":-1,"motif":"","motif_pos":-1,"best_pos":3,"similarity":0.45,"stretto":false,"stretto_voices":0,"combination":[],"aug_dim":"","rhythm_ratio":1.0,"mirror":false,"chromatic_density":0.455,"complexity":0.493,"dissonance":0.186},{"voice":1,"pitch":69,"start":67.3043,"duration":0.3913,"velocity":127,"measure":33,"beat":2.0,"subject_pos":-1,"motif":"","motif_pos":-1,"best_pos":2,"similarity":0.446,"stretto":false,"stretto_voices":0,"combination":[],"aug_dim":"","rhythm_ratio":1.0,"mirror":false,"chromatic_density":0.455,"complexity":0.493,"dissonance":0.186},{"voice":2,"pitch":52,"start":67.3043,"duration":0.5217,"velocity":127,"measure":33,"beat":2.0,"subject_pos":-1,"motif":"","motif_pos":-1,"best_pos":4,"similarity":0.5,"stretto":false,"stretto_voices":0,"combination":[],"aug_dim":"","rhythm_ratio":1.0,"mirror":false,"chromatic_density":0.455,"complexity":0.493,"dissonance":0.186},{"voice":1,"pitch":67,"start":67.6956,"duration":0.1304,"velocity":127,"measure":33,"beat":2.75,"subject_pos":-1,"motif":"","motif_pos":-1,"best_pos":2,"similarity":0.579,"stretto":false,"stretto_voices":0,"combination":[],"aug_dim":"","rhythm_ratio":1.0,"mirror":false,"chromatic_density":0.455,"complexity":0.493,"dissonance":0.186},{"voice":1,"pitch":65,"start":67.8261,"duration":0.3913,"velocity":127,"measure":33,"beat":3.0,"subject_pos":-1,"motif":"","motif_pos":-1,"best_pos":3,"similarity":0.593,"stretto":false,"stretto_voices":0,"combination":[],"aug_dim":"","rhythm_ratio":1.0,"mirror":false,"chromatic_density":0.455,"complexity":0.493,"dissonance":0.186},{"voice":2,"pitch":53,"start":67.8261,"duration":0.5217,"velocity":127,"measure":33,"beat":3.0,"subject_pos":-1,"motif":"","motif_pos":-1,"best_pos":5,"similarity":0.643,"stretto":false,"stretto_voices":0,"combination":[],"aug_dim":"","rhythm_ratio":1.0,"mirror":false,"chromatic_density":0.455,"complexity":0.493,"dissonance":0.186},{"voice":3,"pitch":50,"start":67.8261,"duration":0.5217,"velocity":127,"measure":33,"beat":3.0,"subject_pos":5,"motif":"subject","motif_pos":5,"best_pos":5,"similarity":1.0,"stretto":false,"stretto_voices":0,"combination":[],"aug_dim":"","rhythm_ratio":1.0,"mirror":false,"chromatic_density":0.455,"complexity":0.493,"dissonance":0.186},{"voice":1,"pitch":64,"start":68.2174,"duration":0.1304,"velocity":127,"measure":33,"beat":3.75,"subject_pos":-1,"motif":"","motif_pos":-1,"best_pos":4,"similarity":0.543,"stretto":false,"stretto_voices":0,"combination":[],"aug_dim":"","rhythm_ratio":1.0,"mirror":false,"chromatic_density":0.455,"complexity":0.493,"dissonance":0.186},{"voice":1,"pitch":62,"start":68.3478,"duration":0.3913,"velocity":127,"measure":33,"beat":4.0,"subject_pos":-1,"motif":"","motif_pos":-1,"best_pos":3,"similarity":0.643,"stretto":false,"stretto_voices":0,"combination":[],"aug_dim":"","rhythm_ratio":1.0,"mirror":false,"chromatic_density":0.455,"complexity":0.493,"dissonance":0.186},{"voice":2,"pitch":55,"start":68.3478,"duration":0.5217,"velocity":127,"measure":33,"beat":4.0,"subject_pos":-1,"motif":"","motif_pos":-1,"best_pos":6,"similarity":0.571,"stretto":false,"stretto_voices":0,"combination":[],"aug_dim":"","rhythm_ratio":1.0,"mirror":false,"chromatic_density":0.455,"complexity":0.493,"dissonance":0.186},{"voice":3,"pitch":52,"start":68.3478,"duration":0.5217,"velocity":127,"measure":33,"beat":4.0,"subject_pos":6,"motif":"subject","motif_pos":6,"best_pos":6,"similarity":1.0,"stretto":false,"stretto_voices":0,"combination":[],"aug_dim":"","rhythm_ratio":1.0,"mirror":false,"chromatic_density":0.455,"complexity":0.493,"dissonance":0.186},{"voice":1,"pitch":61,"start":68.7391,"duration":0.1304,"velocity":127,"measure":33,"beat":4.75,"subject_pos":-1,"motif":"","motif_pos":-1,"best_pos":4,"similarity":0.686,"stretto":false,"stretto_voices":0,"combination":[],"aug_dim":"","rhythm_ratio":1.0,"mirror":false,"chromatic_density":0.455,"complexity":0.493,"dissonance":0.186},{"voice":1,"pitch":62,"start":68.8695,"duration":0.5217,"velocity":127,"measure":34,"beat":1.0,"subject_pos":-1,"motif":"","motif_pos":-1,"best_pos":5,"similarity":0.479,"stretto":false,"stretto_voices":0,"combination":[],"aug_dim":"","rhythm_ratio":1.0,"mirror":false,"chromatic_density":0.3,"complexity":0.645,"dissonance":0.137},{"voice":2,"pitch":57,"start":68.8695,"duration":0.5217,"velocity":127,"measure":34,"beat":1.0,"subject_pos":-1,"motif":"","motif_pos":-1,"best_pos":0,"similarity":0.464,"stretto":false,"stretto_voices":0,"combination":[],"aug_dim":"","rhythm_ratio":1.0,"mirror":false,"chromatic_density":0.3,"complexity":0.645,"dissonance":0.137},{"voice":3,"pitch":53,"start":68.8695,"duration":1.4348,"velocity":127,"measure":34,"beat":1.0,"subject_pos":7,"motif":"subject","motif_pos":7,"best_pos":7,"similarity":1.0,"stretto":false,"stretto_voices":0,"combination":[],"aug_dim":"","rhythm_ratio":1.0,"mirror":false,"chromatic_density":0.3,"complexity":0.645,"dissonance":0.137},{"voice":0,"pitch":81,"start":69.2609,"duration":0.1304,"velocity":127,"measure":34,"beat":1.75,"subject_pos":-1,"motif":"","motif_pos":-1,"best_pos":1,"similarity":0.443,"stretto":false,"stretto_voices":0,"combination":[],"aug_dim":"","rhythm_ratio":1.0,"mirror":false,"chromatic_density":0.3,"complexity":0.645,"dissonance":0.137},{"voice":0,"pitch":80,"start":69.3913,"duration":0.3913,"velocity":127,"measure":34,"beat":2.0,"subject_pos":-1,"motif":"","motif_pos":-1,"best_pos":4,"similarity":0.586,"stretto":false,"stretto_voices":0,"combination":[],"aug_dim":"","rhythm_ratio":1.0,"mirror":false,"chromatic_density":0.3,"complexity":0.645,"dissonance":0.137},{"voice":1,"pitch":74,"start":69.3913,"duration":0.5217,"velocity":127,"measure":34,"beat":2.0,"subject_pos":-1,"motif":"","motif_pos":-1,"best_pos":2,"similarity":0.386,"stretto":false,"stretto_voices":0,"combination":[],"aug_dim":"","rhythm_ratio":1.0,"mirror":false,"chromatic_density":0.3,"complexity":0.645,"dissonance":0.137},{"voice":0,"pitch":81,"start":69.7826,"duration":0.1304,"velocity":127,"measure":34,"beat":2.75,"subject_pos":-1,"motif":"","motif_pos":-1,"best_pos":5,"similarity":0.443,"stretto":false,"stretto_voices":0,"combination":[],"aug_dim":"","rhythm_ratio":1.0,"mirror":false,"chromatic_density":0.3,"complexity":0.645,"dissonance":0.137},{"voice":0,"pitch":74,"start":69.913,"duration":0.5217,"velocity":127,"measure":34,"beat":3.0,"subject_pos":-1,"motif":"head","motif_pos":0,"best_pos":0,"similarity":1.0,"stretto":false,"stretto_voices":0,"combination":[],"aug_dim":"","rhythm_ratio":1.0,"mirror":false,"chromatic_density":0.3,"complexity":0.645,"dissonance":0.137},{"voice":1,"pitch":71,"start":69.913,"duration":0.5217,"velocity":127,"measure":34,"beat":3.0,"subject_pos":-1,"motif":"","motif_pos":-1,"best_pos":3,"similarity":0.471,"stretto":false,"stretto_voices":0,"combination":[],"aug_dim":"","rhythm_ratio":1.0,"mirror":false,"chromatic_density":0.3,"complexity":0.645,"dissonance":0.137},{"voice":3,"pitch":55,"start":70.3043,"duration":0.1304,"velocity":127,"measure":34,"beat":3.75,"subject_pos":-1,"motif":"","motif_pos":-1,"best_pos":6,"similarity":0.464,"stretto":false,"stretto_voices":0,"combination":[],"aug_dim":"","rhythm_ratio":1.0,"mirror":false,"chromatic_density":0.3,"complexity":0.645,"dissonance":0.137},{"voice":0,"pitch":79,"start":70.4348,"duration":0.913,"velocity":127,"measure":34,"beat":4.0,"subject_pos":-1,"motif":"head","motif_pos":1,"best_pos":1,"similarity":1.0,"stretto":false,"stretto_voices":0,"combination":[],"aug_dim":"","rhythm_ratio":1.0,"mirror":false,"chromatic_density":0.3,"complexity":0.645,"dissonance":0.137},{"voice":1,"pitch":73,"start":70.4348,"duration":0.5217,"velocity":127,"measure":34,"beat":4.0,"subject_pos":-1,"motif":"","motif_pos":-1,"best_pos":6,"similarity":0.586,"stretto":false,"stretto_voices":0,"combination":[],"aug_dim":"","rhythm_ratio":1.0,"mirror":false,"chromatic_density":0.3,"complexity":0.645,"dissonance":0.137},{"voice":3,"pitch":53,"start":70.4348,"duration":0.3913,"velocity":127,"measure":34,"beat":4.0,"subject_pos":-1,"motif":"","motif_pos":-1,"best_pos":3,"similarity":0.471,"stretto":false,"stretto_voices":0,"combination":[],"aug_dim":"","rhythm_ratio":1.0,"mirror":false,"chromatic_density":0.3,"complexity":0.645,"dissonance":0.137},{"voice":3,"pitch":52,"start":70.8261,"duration":0.1304,"velocity":127,"measure":34,"beat":4.75,"subject_pos":-1,"motif":"","motif_pos":-1,"best_pos":4,"similarity":0.414,"stretto":false,"stretto_voices":0,"combination":[],"aug_dim":"","rhythm_ratio":1.0,"mirror":false,"chromatic_density":0.3,"complexity":0.645,"dissonance":0.137},{"voice":1,"pitch":74,"start":70.9565,"duration":0.5217,"velocity":127,"measure":35,"beat":1.0,"subject_pos":-1,"motif":"","motif_pos":-1,"best_pos":1,"similarity":0.457,"stretto":false,"stretto_voices":0,"combination":[],"aug_dim":"","rhythm_ratio":1.0,"mirror":false,"chromatic_density":0.25,"complexity":0.573,"dissonance":0.179},{"voice":3,"pitch":50,"start":70.9565,"duration":0.5217,"velocity":127,"measure":35,"beat":1.0,"subject_pos":-1,"motif":"head","motif_pos":0,"best_pos":0,"similarity":1.0,"stretto":false,"stretto_voices":0,"combination":[],"aug_dim":"","rhythm_ratio":1.0,"mirror":false,"chromatic_density":0.25,"complexity":0.573,"dissonance":0.179},{"voice":0,"pitch":77,"start":71.3478,"duration":0.1304,"velocity":127,"measure":35,"beat":1.75,"subject_pos":-1,"motif":"head","motif_pos":2,"best_pos":2,"similarity":1.0,"stretto":false,"stretto_voices":0,"combination":[],"aug_dim":"","rhythm_ratio":1.0,"mirror":false,"chromatic_density":0.25,"complexity":0.573,"dissonance":0.179},{"voice":0,"pitch":76,"start":71.4782,"duration":0.3913,"velocity":127,"measure":35,"beat":2.0,"subject_pos":-1,"motif":"head","motif_pos":3,"best_pos":3,"similarity":1.0,"stretto":false,"stretto_voices":0,"combination":[],"aug_dim":"","rhythm_ratio":1.0,"mirror":false,"chromatic_density":0.25,"complexity":0.573,"dissonance":0.179},{"voice":2,"pitch":62,"start":71.4782,"duration":0.913,"velocity":127,"measure":35,"beat":2.0,"subject_pos":-1,"motif":"","motif_pos":-1,"best_pos":1,"similarity":0.714,"stretto":false,"stretto_voices":0,"combination":[],"aug_dim":"","rhythm_ratio":1.0,"mirror":false,"chromatic_density":0.25,"complexity":0.573,"dissonance":0.179},{"voice":0,"pitch":74,"start":71.8695,"duration":0.1304,"velocity":127,"measure":35,"beat":2.75,"subject_pos":-1,"motif":"head","motif_pos":4,"best_pos":4,"similarity":1.0,"stretto":false,"stretto_voices":0,"combination":[],"aug_dim":"","rhythm_ratio":1.0,"mirror":false,"chromatic_density":0.25,"complexity":0.573,"dissonance":0.179},{"voice":0,"pitch":76,"start":72.0,"duration":0.5217,"velocity":127,"measure":35,"beat":3.0,"subject_pos":-1,"motif":"","motif_pos":-1,"best_pos":6,"similarity":0.4,"stretto":false,"stretto_voices":0,"combination":[],"aug_dim":"","rhythm_ratio":1.0,"mirror":false,"chromatic_density":0.25,"complexity":0.573,"dissonance":0.179},{"voice":2,"pitch":60,"start":72.3913,"duration":0.1304,"velocity":127,"measure":35,"beat":3.75,"subject_pos":-1,"motif":"","motif_pos":-1,"best_pos":2,"similarity":0.786,"stretto":false,"stretto_voices":0,"combination":[],"aug_dim":"","rhythm_ratio":1.0,"mirror":false,"chromatic_density":0.25,"complexity":0.573,"dissonance":0.179},{"voice":0,"pitch":81,"start":72.5217,"duration":0.5217,"velocity":127,"measure":35,"beat":4.0,"subject_pos":-1,"motif":"","motif_pos":-1,"best_pos":1,"similarity":0.314,"stretto":false,"stretto_voices":0,"combination":[],"aug_dim":"","rhythm_ratio":1.0,"mirror":false,"chromatic_density":0.25,"complexity":0.573,"dissonance":0.179},{"voice":1,"pitch":72,"start":72.5217,"duration":0.913,"velocity":127,"measure":35,"beat":4.0,"subject_pos":-1,"motif":"","motif_pos":-1,"best_pos":2,"similarity":0.593,"stretto":false,"stretto_voices":0,"combination":[],"aug_dim":"","rhythm_ratio":1.0,"mirror":false,"chromatic_density":0.25,"complexity":0.573,"dissonance":0.179},{"voice":2,"pitch":58,"start":72.5217,"duration":0.3913,"velocity":127,"measure":35,"beat":4.0,"subject_pos":-1,"motif":"","motif_pos":-1,"best_pos":3,"similarity":0.821,"stretto":false,"stretto_voices":0,"combination":[],"aug_dim":"","rhythm_ratio":1.0,"mirror":false,"chromatic_density":0.25,"complexity":0.573,"dissonance":0.179},{"voice":2,"pitch":57,"start":72.913,"duration":0.1304,"velocity":127,"measure":35,"beat":4.75,"subject_pos":-1,"motif":"","motif_pos":-1,"best_pos":4,"similarity":0.821,"stretto":false,"stretto_voices":0,"combination":[],"aug_dim":"","rhythm_ratio":1.0,"mirror":false,"chromatic_density":0.25,"complexity":0.573,"dissonance":0.179},{"voice":0,"pitch":74,"start":73.0435,"duration":0.5217,"velocity":127,"measure":36,"beat":1.0,"subject_pos":-1,"motif":"","motif_pos":-1,"best_pos":5,"similarity":0.286,"stretto":false,"stretto_voices":0,"combination":[],"aug_dim":"","rhythm_ratio":1.0,"mirror":false,"chromatic_density":0.417,"complexity":0.602,"dissonance":0.12},{"voice":2,"pitch":58,"start":73.0435,"duration":0.5217,"velocity":127,"measure":36,"beat":1.0,"subject_pos":-1,"motif":"","motif_pos":-1,"best_pos":4,"similarity":0.679,"stretto":false,"stretto_voices":0,"combination":[],"aug_dim":"","rhythm_ratio":1.0,"mirror":false,"chromatic_density":0.417,"complexity":0.602,"dissonance":0.12},{"voice":1,"pitch":70,"start":73.4348,"duration":0.1304,"velocity":127,"measure":36,"beat":1.75,"subject_pos":-1,"motif":"","motif_pos":-1,"best_pos":3,"similarity":0.664,"stretto":false,"stretto_voices":0,"combination":[],"aug_dim":"","rhythm_ratio":1.0,"mirror":false,"chromatic_density":0.417,"complexity":0.602,"dissonance":0.12},{"voice":0,"pitch":76,"start":73.5652,"duration":0.5217,"velocity":127,"measure":36,"beat":2.0,"subject_pos":-1,"motif":"","motif_pos":-1,"best_pos":5,"similarity":0.286,"stretto":false,"stretto_voices":0,"combination":[],"aug_dim":"","rhythm_ratio":1.0,"mirror":false,"chromatic_density":0.417,"complexity":0.602,"dissonance":0.12},{"voice":1,"pitch":69,"start":73.5652,"duration":0.3913,"velocity":127,"measure":36,"beat":2.0,"subject_pos":-1,"motif":"","motif_pos":-1,"best_pos":4,"similarity":0.618,"stretto":false,"stretto_voices":0,"combination":[],"aug_dim":"","rhythm_ratio":1.0,"mirror":false,"chromatic_density":0.417,"complexity":0.602,"dissonance":0.12},{"voice":2,"pitch":59,"start":73.5652,"duration":0.5217,"velocity":127,"measure":36,"beat":2.0,"subject_pos":-1,"motif":"","motif_pos":-1,"best_pos":5,"similarity":0.768,"stretto":false,"stretto_voices":0,"combination":[],"aug_dim":"","rhythm_ratio":1.0,"mirror":false,"chromatic_density":0.417,"complexity":0.602,"dissonance":0.12},{"voice":3,"pitch":55,"start":73.5652,"duration":0.913,"velocity":127,"measure":36,"beat":2.0,"subject_pos":-1,"motif":"head","motif_pos":1,"best_pos":1,"similarity":1.0,"stretto":false,"stretto_voices":0,"combination":[],"aug_dim":"","rhythm_ratio":1.0,"mirror":false,"chromatic_density":0.417,"complexity":0.602,"dissonance":0.12},{"voice":1,"pitch":67,"start":73.9565,"duration":0.1304,"velocity":127,"measure":36,"beat":2.75,"subject_pos":-1,"motif":"","motif_pos":-1,"best_pos":5,"similarity":0.529,"stretto":false,"stretto_voices":0,"combination":[],"aug_dim":"","rhythm_ratio":1.0,"mirror":false,"chromatic_density":0.417,"complexity":0.602,"dissonance":0.12},{"voice":0,"pitch":64,"start":74.0869,"duration":0.5217,"velocity":127,"measure":36,"beat":3.0,"subject_pos":-1,"motif":"","motif_pos":-1,"best_pos":6,"similarity":0.357,"stretto":false,"stretto_voices":0,"combination":[],"aug_dim":"","rhythm_ratio":1.0,"mirror":false,"chromatic_density":0.417,"complexity":0.602,"dissonance":0.12},{"voice":1,"pitch":69,"start":74.0869,"duration":1.0435,"velocity":127,"measure":36,"beat":3.0,"subject_pos":-1,"motif":"","motif_pos":-1,"best_pos":3,"similarity":0.443,"stretto":false,"stretto_voices":0,"combination":[],"aug_dim":"","rhythm_ratio":1.0,"mirror":false,"chromatic_density":0.417,"complexity":0.602,"dissonance":0.12},{"voice":2,"pitch":61,"start":74.0869,"duration":0.5217,"velocity":127,"measure":36,"beat":3.0,"subject_pos":-1,"motif":"","motif_pos":-1,"best_pos":6,"similarity":0.732,"stretto":false,"stretto_voices":0,"combination":[],"aug_dim":"","rhythm_ratio":1.0,"mirror":false,"chromatic_density":0.417,"complexity":0.602,"dissonance":0.12},{"voice":3,"pitch":53,"start":74.4782,"duration":0.1304,"velocity":127,"measure":36,"beat":3.75,"subject_pos":-1,"motif":"head","motif_pos":2,"best_pos":2,"similarity":1.0,"stretto":false,"stretto_voices":0,"combination":[],"aug_dim":"","rhythm_ratio":1.0,"mirror":false,"chromatic_density":0.417,"complexity":0.602,"dissonance":0.12},{"voice":0,"pitch":65,"start":74.6087,"duration":0.5217,"velocity":127,"measure":36,"beat":4.0,"subject_pos":-1,"motif":"","motif_pos":-1,"best_pos":3,"similarity":0.329,"stretto":false,"stretto_voices":0,"combination":[],"aug_dim":"","rhythm_ratio":1.0,"mirror":false,"chromatic_density":0.417,"complexity":0.602,"dissonance":0.12},{"voice":2,"pitch":62,"start":74.6087,"duration":0.913,"velocity":127,"measure":36,"beat":4.0,"subject_pos":-1,"motif":"","motif_pos":-1,"best_pos":7,"similarity":0.5,"stretto":false,"stretto_voices":0,"combination":[],"aug_dim":"","rhythm_ratio":1.0,"mirror":false,"chromatic_density":0.417,"complexity":0.602,"dissonance":0.12},{"voice":3,"pitch":52,"start":74.6087,"duration":0.3913,"velocity":127,"measure":36,"beat":4.0,"subject_pos":-1,"motif":"head","motif_pos":3,"best_pos":3,"similarity":1.0,"stretto":false,"stretto_voices":0,"combination":[],"aug_dim":"","rhythm_ratio":1.0,"mirror":false,"chromatic_density":0.417,"complexity":0.602,"dissonance":0.12},{"voice":3,"pitch":50,"start":75.0,"duration":0.1304,"velocity":127,"measure":36,"beat":4.75,"subject_pos":-1,"motif":"head","motif_pos":4,"best_pos":4,"similarity":1.0,"stretto":false,"stretto_voices":0,"combination":[],"aug_dim":"","rhythm_ratio":1.0,"mirror":false,"chromatic_density":0.417,"complexity":0.602,"dissonance":0.12},{"voice":0,"pitch":64,"start":75.1304,"duration":0.5217,"velocity":127,"measure":37,"beat":1.0,"subject_pos":-1,"motif":"","motif_pos":-1,"best_pos":4,"similarity":0.321,"stretto":false,"stretto_voices":0,"combination":[],"aug_dim":"","rhythm_ratio":1.0,"mirror":false,"chromatic_density":0.182,"complexity":0.597,"dissonance":0.045},{"voice":1,"pitch":68,"start":75.1304,"duration":0.5217,"velocity":127,"measure":37,"beat":1.0,"subject_pos":-1,"motif":"","motif_pos":-1,"best_pos":4,"similarity":0.421,"stretto":false,"stretto_voices":0,"combination":[],"aug_dim":"","rhythm_ratio":1.0,"mirror":false,"chromatic_density":0.182,"complexity":0.597,"dissonance":0.045},{"voice":3,"pitch":52,"start":75.1304,"duration":1.0435,"velocity":127,"measure":37,"beat":1.0,"subject_pos":-1,"motif":"","motif_pos":-1,"best_pos":6,"similarity":0.657,"stretto":false,"stretto_voices":0,"combination":[],"aug_dim":"","rhythm_ratio":1.0,"mirror":false,"chromatic_density":0.182,"complexity":0.597,"dissonance":0.045},{"voice":2,"pitch":60,"start":75.5217,"duration":0.1304,"velocity":127,"measure":37,"beat":1.75,"subject_pos":-1,"motif":"","motif_pos":-1,"best_pos":3,"similarity":0.536,"stretto":false,"stretto_voices":0,"combination":[],"aug_dim":"","rhythm_ratio":1.0,"mirror":false,"chromatic_density":0.182,"complexity":0.597,"dissonance":0.045},{"voice":0,"pitch":76,"start":75.6522,"duration":0.913,"velocity":127,"measure":37,"beat":2.0,"subject_pos":-1,"motif":"","motif_pos":-1,"best_pos":1,"similarity":0.429,"stretto":false,"stretto_voices":0,"combination":[],"aug_dim":"","rhythm_ratio":1.0,"mirror":false,"chromatic_density":0.182,"complexity":0.597,"dissonance":0.045},{"voice":1,"pitch":72,"start":75.6522,"duration":0.5217,"velocity":127,"measure":37,"beat":2.0,"subject_pos":-1,"motif":"","motif_pos":-1,"best_pos":4,"similarity":0.257,"stretto":false,"stretto_voices":0,"combination":[],"aug_dim":"","rhythm_ratio":1.0,"mirror":false,"chromatic_density":0.182,"complexity":0.597,"dissonance":0.045},{"voice":2,"pitch":59,"start":75.6522,"duration":0.3913,"velocity":127,"measure":37,"beat":2.0,"subject_pos":-1,"motif":"","motif_pos":-1,"best_pos":4,"similarity":0.543,"stretto":false,"stretto_voices":0,"combination":[],"aug_dim":"","rhythm_ratio":1.0,"mirror":false,"chromatic_density":0.182,"complexity":0.597,"dissonance":0.045},{"voice":2,"pitch":57,"start":76.0435,"duration":0.1304,"velocity":127,"measure":37,"beat":2.75,"subject_pos":-1,"motif":"","motif_pos":-1,"best_pos":5,"similarity":0.507,"stretto":false,"stretto_voices":0,"combination":[],"aug_dim":"","rhythm_ratio":1.0,"mirror":false,"chromatic_density":0.182,"complexity":0.597,"dissonance":0.045},{"voice":1,"pitch":66,"start":76.1739,"duration":0.5217,"velocity":127,"measure":37,"beat":3.0,"subject_pos":-1,"motif":"","motif_pos":-1,"best_pos":5,"similarity":0.446,"stretto":false,"stretto_voices":0,"combination":[],"aug_dim":"","rhythm_ratio":1.0,"mirror":false,"chromatic_density":0.182,"complexity":0.597,"dissonance":0.045},{"voice":2,"pitch":59,"start":76.1739,"duration":0.5217,"velocity":127,"measure":37,"beat":3.0,"subject_pos":-1,"motif":"","motif_pos":-1,"best_pos":6,"similarity":0.4,"stretto":false,"stretto_voices":0,"combination":[],"aug_dim":"","rhythm_ratio":1.0,"mirror":false,"chromatic_density":0.182,"complexity":0.597,"dissonance":0.045},{"voice":0,"pitch":74,"start":76.5652,"duration":0.1304,"velocity":127,"measure":37,"beat":3.75,"subject_pos":-1,"motif":"","motif_pos":-1,"best_pos":2,"similarity":0.643,"stretto":false,"stretto_voices":0,"combination":[],"aug_dim":"","rhythm_ratio":1.0,"mirror":false,"chromatic_density":0.182,"complexity":0.597,"dissonance":0.045},{"voice":0,"pitch":72,"start":76.6956,"duration":0.3913,"velocity":127,"measure":37,"beat":4.0,"subject_pos":-1,"motif":"","motif_pos":-1,"best_pos":3,"similarity":0.786,"stretto":false,"stretto_voices":0,"combination":[],"aug_dim":"","rhythm_ratio":1.0,"mirror":false,"chromatic_density":0.182,"complexity":0.597,"dissonance":0.045},{"voice":1,"pitch":68,"start":76.6956,"duration":0.5217,"velocity":127,"measure":37,"beat":4.0,"subject_pos":-1,"motif":"","motif_pos":-1,"best_pos":6,"similarity":0.571,"stretto":false,"stretto_voices":0,"combination":[],"aug_dim":"","rhythm_ratio":1.0,"mirror":false,"chromatic_density":0.182,"complexity":0.597,"dissonance":0.045},{"voice":2,"pitch":64,"start":76.6956,"duration":0.5217,"velocity":127,"measure":37,"beat":4.0,"subject_pos":-1,"motif":"","motif_pos":-1,"best_pos":1,"similarity":0.35,"stretto":false,"stretto_voices":0,"combination":[],"aug_dim":"","rhythm_ratio":1.0,"mirror":false,"chromatic_density":0.182,"complexity":0.597,"dissonance":0.045},{"voice":0,"pitch":71,"start":77.0869,"duration":0.1304,"velocity":127,"measure":37,"beat":4.75,"subject_pos":-1,"motif":"","motif_pos":-1,"best_pos":4,"similarity":0.893,"stretto":false,"stretto_voices":0,"combination":[],"aug_dim":"","rhythm_ratio":1.0,"mirror":false,"chromatic_density":0.182,"complexity":0.597,"dissonance":0.045},{"voice":0,"pitch":72,"start":77.2174,"duration":0.3913,"velocity":127,"measure":38,"beat":1.0,"subject_pos":-1,"motif":"","motif_pos":-1,"best_pos":5,"similarity":0.821,"stretto":false,"stretto_voices":0,"combination":[],"aug_dim":"","rhythm_ratio":1.0,"mirror":false,"chromatic_density":0.308,"complexity":0.529,"dissonance":0.146},{"voice":1,"pitch":69,"start":77.2174,"duration":0.3913,"velocity":127,"measure":38,"beat":1.0,"subject_pos":-1,"motif":"","motif_pos":-1,"best_pos":6,"similarity":0.5,"stretto":false,"stretto_voices":0,"combination":[],"aug_dim":"","rhythm_ratio":1.0,"mirror":false,"chromatic_density":0.308,"complexity":0.529,"dissonance":0.146},{"voice":2,"pitch":57,"start":77.2174,"duration":1.0435,"velocity":127,"measure":38,"beat":1.0,"subject_pos":0,"motif":"subject","motif_pos":0,"best_pos":0,"similarity":1.0,"stretto":false,"stretto_voices":0,"combination":[],"aug_dim":"","rhythm_ratio":1.0,"mirror":false,"chromatic_density":0.308,"complexity":0.529,"dissonance":0.146},{"voice":0,"pitch":74,"start":77.6087,"duration":0.1304,"velocity":127,"measure":38,"beat":1.75,"subject_pos":-1,"motif":"","motif_pos":-1,"best_pos":6,"similarity":0.643,"stretto":false,"stretto_voices":0,"combination":[],"aug_dim":"","rhythm_ratio":1.0,"mirror":false,"chromatic_density":0.308,"complexity":0.529,"dissonance":0.146},{"voice":1,"pitch":70,"start":77.6087,"duration":0.1304,"velocity":127,"measure":38,"beat":1.75,"subject_pos":-1,"motif":"","motif_pos":-1,"best_pos":7,"similarity":0.393,"stretto":false,"stretto_voices":0,"combination":[],"aug_dim":"","rhythm_ratio":1.0,"mirror":false,"chromatic_density":0.308,"complexity":0.529,"dissonance":0.146},{"voice":0,"pitch":76,"start":77.7391,"duration":0.913,"velocity":127,"measure":38,"beat":2.0,"subject_pos":-1,"motif":"","motif_pos":-1,"best_pos":6,"similarity":0.661,"stretto":false,"stretto_voices":0,"combination":[],"aug_dim":"","rhythm_ratio":1.0,"mirror":false,"chromatic_density":0.308,"complexity":0.529,"dissonance":0.146},{"voice":1,"pitch":69,"start":77.7391,"duration":0.3913,"velocity":127,"measure":38,"beat":2.0,"subject_pos":-1,"motif":"","motif_pos":-1,"best_pos":2,"similarity":0.379,"stretto":false,"stretto_voices":0,"combination":[],"aug_dim":"","rhythm_ratio":1.0,"mirror":false,"chromatic_density":0.308,"complexity":0.529,"dissonance":0.146},{"voice":1,"pitch":67,"start":78.1304,"duration":0.1304,"velocity":127,"measure":38,"beat":2.75,"subject_pos":-1,"motif":"","motif_pos":-1,"best_pos":2,"similarity":0.436,"stretto":false,"stretto_voices":0,"combination":[],"aug_dim":"","rhythm_ratio":1.0,"mirror":false,"chromatic_density":0.308,"complexity":0.529,"dissonance":0.146},{"voice":1,"pitch":65,"start":78.2609,"duration":0.3913,"velocity":127,"measure":38,"beat":3.0,"subject_pos":-1,"motif":"","motif_pos":-1,"best_pos":2,"similarity":0.364,"stretto":false,"stretto_voices":0,"combination":[],"aug_dim":"","rhythm_ratio":1.0,"mirror":false,"chromatic_density":0.308,"complexity":0.529,"dissonance":0.146},{"voice":2,"pitch":62,"start":78.2609,"duration":1.0435,"velocity":127,"measure":38,"beat":3.0,"subject_pos":1,"motif":"subject","motif_pos":1,"best_pos":1,"similarity":1.0,"stretto":false,"stretto_voices":0,"combination":[],"aug_dim":"","rhythm_ratio":1.0,"mirror":false,"chromatic_density":0.308,"complexity":0.529,"dissonance":0.146},{"voice":0,"pitch":77,"start":78.6522,"duration":0.1304,"velocity":127,"measure":38,"beat":3.75,"subject_pos":-1,"motif":"","motif_pos":-1,"best_pos":7,"similarity":0.464,"stretto":false,"stretto_voices":0,"combination":[],"aug_dim":"","rhythm_ratio":1.0,"mirror":false,"chromatic_density":0.308,"complexity":0.529,"dissonance":0.146},{"voice":1,"pitch":69,"start":78.6522,"duration":0.1304,"velocity":127,"measure":38,"beat":3.75,"subject_pos":-1,"motif":"","motif_pos":-1,"best_pos":1,"similarity":0.571,"stretto":false,"stretto_voices":0,"combination":[],"aug_dim":"","rhythm_ratio":1.0,"mirror":false,"chromatic_density":0.308,"complexity":0.529,"dissonance":0.146},{"voice":0,"pitch":76,"start":78.7826,"duration":0.3913,"velocity":127,"measure":38,"beat":4.0,"subject_pos":-1,"motif":"","motif_pos":-1,"best_pos":4,"similarity":0.336,"stretto":false,"stretto_voices":0,"combination":[],"aug_dim":"","rhythm_ratio":1.0,"mirror":false,"chromatic_density":0.308,"complexity":0.529,"dissonance":0.146},{"voice":1,"pitch":67,"start":78.7826,"duration":0.3913,"velocity":127,"measure":38,"beat":4.0,"subject_pos":-1,"motif":"","motif_pos":-1,"best_pos":2,"similarity":0.679,"stretto":false,"stretto_voices":0,"combination":[],"aug_dim":"","rhythm_ratio":1.0,"mirror":false,"chromatic_density":0.308,"complexity":0.529,"dissonance":0.146},{"voice":0,"pitch":74,"start":79.1739,"duration":0.1304,"velocity":127,"measure":38,"beat":4.75,"subject_pos":-1,"motif":"","motif_pos":-1,"best_pos":0,"similarity":0.375,"stretto":false,"stretto_voices":0,"combination":[],"aug_dim":"","rhythm_ratio":1.0,"mirror":false,"chromatic_density":0.308,"complexity":0.529,"dissonance":0.146},{"voice":1,"pitch":65,"start":79.1739,"duration":0.5217,"velocity":127,"measure":38,"beat":4.75,"subject_pos":-1,"motif":"","motif_pos":-1,"best_pos":3,"similarity":0.75,"stretto":false,"stretto_voices":0,"combination":[],"aug_dim":"","rhythm_ratio":1.0,"mirror":false,"chromatic_density":0.308,"complexity":0.529,"dissonance":0.146},{"voice":0,"pitch":81,"start":79.3043,"duration":0.5217,"velocity":127,"measure":39,"beat":1.0,"subject_pos":-1,"motif":"","motif_pos":-1,"best_pos":1,"similarity":0.482,"stretto":false,"stretto_voices":0,"combination":[],"aug_dim":"","rhythm_ratio":1.0,"mirror":false,"chromatic_density":0.286,"complexity":0.464,"dissonance":0.08},{"voice":2,"pitch":60,"start":79.3043,"duration":1.0435,"velocity":127,"measure":39,"beat":1.0,"subject_pos":2,"motif":"subject","motif_pos":2,"best_pos":2,"similarity":1.0,"stretto":false,"stretto_voices":0,"combination":[],"aug_dim":"","rhythm_ratio":1.0,"mirror":false,"chromatic_density":0.286,"complexity":0.464,"dissonance":0.08},{"voice":1,"pitch":64,"start":79.6956,"duration":0.1304,"velocity":127,"measure":39,"beat":1.75,"subject_pos":-1,"motif":"","motif_pos":-1,"best_pos":4,"similarity":0.786,"stretto":false,"stretto_voices":0,"combination":[],"aug_dim":"","rhythm_ratio":1.0,"mirror":false,"chromatic_density":0.286,"complexity":0.464,"dissonance":0.08},{"voice":1,"pitch":66,"start":79.8261,"duration":0.3913,"velocity":127,"measure":39,"beat":2.0,"subject_pos":-1,"motif":"","motif_pos":-1,"best_pos":5,"similarity":0.75,"stretto":false,"stretto_voices":0,"combination":[],"aug_dim":"","rhythm_ratio":1.0,"mirror":false,"chromatic_density":0.286,"complexity":0.464,"dissonance":0.08},{"voice":1,"pitch":68,"start":80.2174,"duration":0.1304,"velocity":127,"measure":39,"beat":2.75,"subject_pos":-1,"motif":"","motif_pos":-1,"best_pos":6,"similarity":0.714,"stretto":false,"stretto_voices":0,"combination":[],"aug_dim":"","rhythm_ratio":1.0,"mirror":false,"chromatic_density":0.286,"complexity":0.464,"dissonance":0.08},{"voice":1,"pitch":69,"start":80.3478,"duration":0.3913,"velocity":127,"measure":39,"beat":3.0,"subject_pos":-1,"motif":"","motif_pos":-1,"best_pos":5,"similarity":0.729,"stretto":false,"stretto_voices":0,"combination":[],"aug_dim":"","rhythm_ratio":1.0,"mirror":false,"chromatic_density":0.286,"complexity":0.464,"dissonance":0.08},{"voice":2,"pitch":57,"start":80.3478,"duration":1.0435,"velocity":127,"measure":39,"beat":3.0,"subject_pos":3,"motif":"subject","motif_pos":3,"best_pos":3,"similarity":1.0,"stretto":false,"stretto_voices":0,"combination":[],"aug_dim":"","rhythm_ratio":1.0,"mirror":false,"chromatic_density":0.286,"complexity":0.464,"dissonance":0.08},{"voice":1,"pitch":71,"start":80.7391,"duration":0.1304,"velocity":127,"measure":39,"beat":3.75,"subject_pos":-1,"motif":"","motif_pos":-1,"best_pos":6,"similarity":0.721,"stretto":false,"stretto_voices":0,"combination":[],"aug_dim":"","rhythm_ratio":1.0,"mirror":false,"chromatic_density":0.286,"complexity":0.464,"dissonance":0.08},{"voice":1,"pitch":72,"start":80.8695,"duration":0.3913,"velocity":127,"measure":39,"beat":4.0,"subject_pos":-1,"motif":"","motif_pos":-1,"best_pos":7,"similarity":0.5,"stretto":false,"stretto_voices":0,"combination":[],"aug_dim":"","rhythm_ratio":1.0,"mirror":false,"chromatic_density":0.286,"complexity":0.464,"dissonance":0.08},{"voice":1,"pitch":69,"start":81.2608,"duration":0.1304,"velocity":127,"measure":39,"beat":4.75,"subject_pos":-1,"motif":"","motif_pos":-1,"best_pos":5,"similarity":0.364,"stretto":false,"stretto_voices":0,"combination":[],"aug_dim":"","rhythm_ratio":1.0,"mirror":false,"chromatic_density":0.286,"complexity":0.464,"dissonance":0.08},{"voice":1,"pitch":71,"start":81.3913,"duration":1.4348,"velocity":127,"measure":40,"beat":1.0,"subject_pos":-1,"motif":"","motif_pos":-1,"best_pos":2,"similarity":0.386,"stretto":false,"stretto_voices":0,"combination":[],"aug_dim":"","rhythm_ratio":1.0,"mirror":false,"chromatic_density":0.444,"complexity":0.556,"dissonance":0.236},{"voice":2,"pitch":56,"start":81.3913,"duration":1.0435,"velocity":127,"measure":40,"beat":1.0,"subject_pos":4,"motif":"subject","motif_pos":4,"best_pos":4,"similarity":1.0,"stretto":false,"stretto_voices":0,"combination":[],"aug_dim":"","rhythm_ratio":1.0,"mirror":false,"chromatic_density":0.444,"complexity":0.556,"dissonance":0.236},{"voice":3,"pitch":53,"start":81.7826,"duration":0.1304,"velocity":127,"measure":40,"beat":1.75,"subject_pos":-1,"motif":"","motif_pos":-1,"best_pos":7,"similarity":0.436,"stretto":false,"stretto_voices":0,"combination":[],"aug_dim":"","rhythm_ratio":1.0,"mirror":false,"chromatic_density":0.444,"complexity":0.556,"dissonance":0.236},{"voice":3,"pitch":52,"start":81.913,"duration":0.3913,"velocity":127,"measure":40,"beat":2.0,"subject_pos":-1,"motif":"","motif_pos":-1,"best_pos":2,"similarity":0.379,"stretto":false,"stretto_voices":0,"combination":[],"aug_dim":"","rhythm_ratio":1.0,"mirror":false,"chromatic_density":0.444,"complexity":0.556,"dissonance":0.236},{"voice":3,"pitch":50,"start":82.3043,"duration":0.1304,"velocity":127,"measure":40,"beat":2.75,"subject_pos":-1,"motif":"","motif_pos":-1,"best_pos":2,"similarity":0.5,"stretto":false,"stretto_voices":0,"combination":[],"aug_dim":"","rhythm_ratio":1.0,"mirror":false,"chromatic_density":0.444,"complexity":0.556,"dissonance":0.236},{"voice":2,"pitch":57,"start":82.4348,"duration":0.5217,"velocity":127,"measure":40,"beat":3.0,"subject_pos":5,"motif":"subject","motif_pos":5,"best_pos":5,"similarity":1.0,"stretto":false,"stretto_voices":0,"combination":[],"aug_dim":"","rhythm_ratio":1.0,"mirror":false,"chromatic_density":0.444,"complexity":0.556,"dissonance":0.236},{"voice":3,"pitch":48,"start":82.4348,"duration":0.5217,"velocity":127,"measure":40,"beat":3.0,"subject_pos":-1,"motif":"","motif_pos":-1,"best_pos":3,"similarity":0.5,"stretto":false,"stretto_voices":0,"combination":[],"aug_dim":"","rhythm_ratio":1.0,"mirror":false,"chromatic_density":0.444,"complexity":0.556,"dissonance":0.236},{"voice":1,"pitch":69,"start":82.8261,"duration":0.1304,"velocity":127,"measure":40,"beat":3.75,"subject_pos":-1,"motif":"","motif_pos":-1,"best_pos":3,"similarity":0.586,"stretto":false,"stretto_voices":0,"combination":[],"aug_dim":"","rhythm_ratio":1.0,"mirror":false,"chromatic_density":0.444,"complexity":0.556,"dissonance":0.236},{"voice":1,"pitch":68,"start":82.9565,"duration":0.3913,"velocity":127,"measure":40,"beat":4.0,"subject_pos":-1,"motif":"enigmatic_cell","motif_pos":0,"best_pos":0,"similarity":1.0,"stretto":false,"stretto_voices":0,"combination":[],"aug_dim":"","rhythm_ratio":1.0,"mirror":false,"chromatic_density":0.444,"complexity":0.556,"dissonance":0.236},{"voice":2,"pitch":59,"start":82.9565,"duration":0.5217,"velocity":127,"measure":40,"beat":4.0,"subject_pos":6,"motif":"subject","motif_pos":6,"best_pos":6,"similarity":1.0,"stretto":false,"stretto_voices":0,"combination":[],"aug_dim":"","rhythm_ratio":1.0,"mirror":false,"chromatic_density":0.444,"complexity":0.556,"dissonance":0.236},{"voice":3,"pitch":53,"start":82.9565,"duration":1.0435,"velocity":127,"measure":40,"beat":4.0,"subject_pos":-1,"motif":"","motif_pos":-1,"best_pos":4,"similarity":0.643,"stretto":false,"stretto_voices":0,"combination":[],"aug_dim":"","rhythm_ratio":1.0,"mirror":false,"chromatic_density":0.444,"complexity":0.556,"dissonance":0.236},{"voice":1,"pitch":69,"start":83.3478,"duration":0.1304,"velocity":127,"measure":40,"beat":4.75,"subject_pos":-1,"motif":"enigmatic_cell","motif_pos":1,"best_pos":1,"similarity":1.0,"stretto":false,"stretto_voices":0,"combination":[],"aug_dim":"","rhythm_ratio":1.0,"mirror":false,"chromatic_density":0.444,"complexity":0.556,"dissonance":0.236},{"voice":1,"pitch":63,"start":83.4782,"duration":0.3913,"velocity":127,"measure":41,"beat":1.0,"subject_pos":-1,"motif":"enigmatic_cell","motif_pos":2,"best_pos":2,"similarity":1.0,"stretto":false,"stretto_voices":0,"combination":[],"aug_dim":"","rhythm_ratio":1.0,"mirror":false,"chromatic_density":0.273,"complexity":0.722,"dissonance":0.17},{"voice":2,"pitch":60,"start":83.4782,"duration":1.4348,"velocity":127,"measure":41,"beat":1.0,"subject_pos":7,"motif":"subject","motif_pos":7,"best_pos":7,"similarity":1.0,"stretto":false,"stretto_voices":0,"combination":[],"aug_dim":"","rhythm_ratio":1.0,"mirror":false,"chromatic_density":0.273,"complexity":0.722,"dissonance":0.17},{"voice":0,"pitch":76,"start":83.8695,"duration":0.1304,"velocity":127,"measure":41,"beat":1.75,"subject_pos":-1,"motif":"","motif_pos":-1,"best_pos":3,"similarity":0.5,"stretto":false,"stretto_voices":0,"combination":[],"aug_dim":"","rhythm_ratio":1.0,"mirror":false,"chromatic_density":0.273,"complexity":0.722,"dissonance":0.17},{"voice":1,"pitch":57,"start":83.8695,"duration":0.1304,"velocity":127,"measure":41,"beat":1.75,"subject_pos":-1,"motif":"","motif_pos":-1,"best_pos":2,"similarity":0.157,"stretto":false,"stretto_voices":0,"combination":[],"aug_dim":"","rhythm_ratio":1.0,"mirror":false,"chromatic_density":0.273,"complexity":0.722,"dissonance":0.17},{"voice":0,"pitch":75,"start":84.0,"duration":0.3913,"velocity":127,"measure":41,"beat":2.0,"subject_pos":-1,"motif":"enigmatic_cell","motif_pos":0,"best_pos":0,"similarity":1.0,"stretto":false,"stretto_voices":0,"combination":[],"aug_dim":"","rhythm_ratio":1.0,"mirror":false,"chromatic_density":0.273,"complexity":0.722,"dissonance":0.17},{"voice":1,"pitch":69,"start":84.0,"duration":1.0435,"velocity":127,"measure":41,"beat":2.0,"subject_pos":-1,"motif":"","motif_pos":-1,"best_pos":3,"similarity":0.207,"stretto":false,"stretto_voices":0,"combination":[],"aug_dim":"","rhythm_ratio":1.0,"mirror":false,"chromatic_density":0.273,"complexity":0.722,"dissonance":0.17},{"voice":3,"pitch":54,"start":84.0,"duration":1.0435,"velocity":127,"measure":41,"beat":2.0,"subject_pos":-1,"motif":"","motif_pos":-1,"best_pos":5,"similarity":0.75,"stretto":false,"stretto_voices":0,"combination":[],"aug_dim":"","rhythm_ratio":1.0,"mirror":false,"chromatic_density":0.273,"complexity":0.722,"dissonance":0.17},{"voice":0,"pitch":76,"start":84.3913,"duration":0.1304,"velocity":127,"measure":41,"beat":2.75,"subject_pos":-1,"motif":"enigmatic_cell","motif_pos":1,"best_pos":1,"similarity":1.0,"stretto":false,"stretto_voices":0,"combination":[],"aug_dim":"","rhythm_ratio":1.0,"mirror":false,"chromatic_density":0.273,"complexity":0.722,"dissonance":0.17},{"voice":0,"pitch":69,"start":84.5217,"duration":0.5217,"velocity":127,"measure":41,"beat":3.0,"subject_pos":-1,"motif":"enigmatic_cell","motif_pos":2,"best_pos":2,"similarity":1.0,"stretto":false,"stretto_voices":0,"combination":[],"aug_dim":"","rhythm_ratio":1.0,"mirror":false,"chromatic_density":0.273,"complexity":0.722,"dissonance":0.17},{"voice":2,"pitch":62,"start":84.913,"duration":0.1304,"velocity":127,"measure":41,"beat":3.75,"subject_pos":-1,"motif":"","motif_pos":-1,"best_pos":6,"similarity":0.464,"stretto":false,"stretto_voices":0,"combination":[],"aug_dim":"","rhythm_ratio":1.0,"mirror":false,"chromatic_density":0.273,"complexity":0.722,"dissonance":0.17},{"voice":0,"pitch":74,"start":85.0435,"duration":0.913,"velocity":127,"measure":41,"beat":4.0,"subject_pos":-1,"motif":"","motif_pos":-1,"best_pos":1,"similarity":0.714,"stretto":false,"stretto_voices":0,"combination":[],"aug_dim":"","rhythm_ratio":1.0,"mirror":false,"chromatic_density":0.273,"complexity":0.722,"dissonance":0.17},{"voice":1,"pitch":64,"start":85.0435,"duration":1.0435,"velocity":127,"measure":41,"beat":4.0,"subject_pos":-1,"motif":"","motif_pos":-1,"best_pos":4,"similarity":0.339,"stretto":false,"stretto_voices":0,"combination":[],"aug_dim":"","rhythm_ratio":1.0,"mirror":false,"chromatic_density":0.273,"complexity":0.722,"dissonance":0.17},{"voice":2,"pitch":60,"start":85.0435,"duration":0.3913,"velocity":127,"measure":41,"beat":4.0,"subject_pos":-1,"motif":"","motif_pos":-1,"best_pos":3,"similarity":0.471,"stretto":false,"stretto_voices":0,"combination":[],"aug_dim":"","rhythm_ratio":1.0,"mirror":false,"chromatic_density":0.273,"complexity":0.722,"dissonance":0.17},{"voice":3,"pitch":56,"start":85.0435,"duration":0.5217,"velocity":127,"measure":41,"beat":4.0,"subject_pos":-1,"motif":"enigmatic_cell","motif_pos":0,"best_pos":0,"similarity":1.0,"stretto":false,"stretto_voices":0,"combination":[],"aug_dim":"","rhythm_ratio":1.0,"mirror":false,"chromatic_density":0.273,"complexity":0.722,"dissonance":0.17},{"voice":2,"pitch":59,"start":85.4348,"duration":0.1304,"velocity":127,"measure":41,"beat":4.75,"subject_pos":-1,"motif":"","motif_pos":-1,"best_pos":4,"similarity":0.414,"stretto":false,"stretto_voices":0,"combination":[],"aug_dim":"","rhythm_ratio":1.0,"mirror":false,"chromatic_density":0.273,"complexity":0.722,"dissonance":0.17},{"voice":2,"pitch":57,"start":85.5652,"duration":1.4348,"velocity":127,"measure":42,"beat":1.0,"subject_pos":-1,"motif":"","motif_pos":-1,"best_pos":2,"similarity":0.518,"stretto":false,"stretto_voices":0,"combination":[],"aug_dim":"","rhythm_ratio":1.0,"mirror":false,"chromatic_density":0.375,"complexity":0.557,"dissonance":0.154},{"voice":3,"pitch":57,"start":85.5652,"duration":1.0435,"velocity":127,"measure":42,"beat":1.0,"subject_pos":-1,"motif":"enigmatic_cell","motif_pos":1,"best_pos":1,"similarity":1.0,"stretto":false,"stretto_voices":0,"combination":[],"aug_dim":"","rhythm_ratio":1.0,"mirror":false,"chromatic_density":0.375,"complexity":0.557,"dissonance":0.154},{"voice":0,"pitch":72,"start":85.9565,"duration":0.1304,"velocity":127,"measure":42,"beat":1.75,"subject_pos":-1,"motif":"","motif_pos":-1,"best_pos":2,"similarity":0.786,"stretto":false,"stretto_voices":0,"combination":[],"aug_dim":"","rhythm_ratio":1.0,"mirror":false,"chromatic_density":0.375,"complexity":0.557,"dissonance":0.154},{"voice":0,"pitch":70,"start":86.0869,"duration":0.3913,"velocity":127,"measure":42,"beat":2.0,"subject_pos":-1,"motif":"","motif_pos":-1,"best_pos":3,"similarity":0.793,"stretto":false,"stretto_voices":0,"combination":[],"aug_dim":"","rhythm_ratio":1.0,"mirror":false,"chromatic_density":0.375,"complexity":0.557,"dissonance":0.154},{"voice":1,"pitch":65,"start":86.0869,"duration":0.5217,"velocity":127,"measure":42,"beat":2.0,"subject_pos":-1,"motif":"","motif_pos":-1,"best_pos":2,"similarity":0.314,"stretto":false,"stretto_voices":0,"combination":[],"aug_dim":"","rhythm_ratio":1.0,"mirror":false,"chromatic_density":0.375,"complexity":0.557,"dissonance":0.154},{"voice":0,"pitch":69,"start":86.4782,"duration":0.1304,"velocity":127,"measure":42,"beat":2.75,"subject_pos":-1,"motif":"","motif_pos":-1,"best_pos":4,"similarity":0.736,"stretto":false,"stretto_voices":0,"combination":[],"aug_dim":"","rhythm_ratio":1.0,"mirror":false,"chromatic_density":0.375,"complexity":0.557,"dissonance":0.154},{"voice":0,"pitch":70,"start":86.6087,"duration":1.4348,"velocity":127,"measure":42,"beat":3.0,"subject_pos":-1,"motif":"","motif_pos":-1,"best_pos":5,"similarity":0.507,"stretto":false,"stretto_voices":0,"combination":[],"aug_dim":"","rhythm_ratio":1.0,"mirror":false,"chromatic_density":0.375,"complexity":0.557,"dissonance":0.154},{"voice":1,"pitch":62,"start":86.6087,"duration":0.5217,"velocity":127,"measure":42,"beat":3.0,"subject_pos":-1,"motif":"","motif_pos":-1,"best_pos":3,"similarity":0.307,"stretto":false,"stretto_voices":0,"combination":[],"aug_dim":"","rhythm_ratio":1.0,"mirror":false,"chromatic_density":0.375,"complexity":0.557,"dissonance":0.154},{"voice":2,"pitch":55,"start":87.0,"duration":0.1304,"velocity":127,"measure":42,"beat":3.75,"subject_pos":-1,"motif":"","motif_pos":-1,"best_pos":2,"similarity":0.643,"stretto":false,"stretto_voices":0,"combination":[],"aug_dim":"","rhythm_ratio":1.0,"mirror":false,"chromatic_density":0.375,"complexity":0.557,"dissonance":0.154},{"voice":1,"pitch":67,"start":87.1304,"duration":0.5217,"velocity":127,"measure":42,"beat":4.0,"subject_pos":-1,"motif":"","motif_pos":-1,"best_pos":1,"similarity":0.386,"stretto":false,"stretto_voices":0,"combination":[],"aug_dim":"","rhythm_ratio":1.0,"mirror":false,"chromatic_density":0.375,"complexity":0.557,"dissonance":0.154},{"voice":2,"pitch":53,"start":87.1304,"duration":0.3913,"velocity":127,"measure":42,"beat":4.0,"subject_pos":-1,"motif":"","motif_pos":-1,"best_pos":3,"similarity":0.721,"stretto":false,"stretto_voices":0,"combination":[],"aug_dim":"","rhythm_ratio":1.0,"mirror":false,"chromatic_density":0.375,"complexity":0.557,"dissonance":0.154},{"voice":2,"pitch":52,"start":87.5217,"duration":0.1304,"velocity":127,"measure":42,"beat":4.75,"subject_pos":-1,"motif":"","motif_pos":-1,"best_pos":4,"similarity":0.729,"stretto":false,"stretto_voices":0,"combination":[],"aug_dim":"","rhythm_ratio":1.0,"mirror":false,"chromatic_density":0.375,"complexity":0.557,"dissonance":0.154},{"voice":1,"pitch":60,"start":87.6522,"duration":0.3913,"velocity":127,"measure":43,"beat":1.0,"subject_pos":-1,"motif":"","motif_pos":-1,"best_pos":0,"similarity":0.393,"stretto":false,"stretto_voices":0,"combination":[],"aug_dim":"","rhythm_ratio":1.0,"mirror":false,"chromatic_density":0.167,"complexity":0.484,"dissonance":0.141},{"voice":2,"pitch":53,"start":87.6522,"duration":0.5217,"velocity":127,"measure":43,"beat":1.0,"subject_pos":-1,"motif":"","motif_pos":-1,"best_pos":5,"similarity":0.493,"stretto":false,"stretto_voices":0,"combination":[],"aug_dim":"","rhythm_ratio":1.0,"mirror":false,"chromatic_density":0.167,"complexity":0.484,"dissonance":0.141},{"voice":0,"pitch":69,"start":88.0435,"duration":0.1304,"velocity":127,"measure":43,"beat":1.75,"subject_pos":-1,"motif":"","motif_pos":-1,"best_pos":4,"similarity":0.414,"stretto":false,"stretto_voices":0,"combination":[],"aug_dim":"","rhythm_ratio":1.0,"mirror":false,"chromatic_density":0.167,"complexity":0.484,"dissonance":0.141},{"voice":1,"pitch":65,"start":88.0435,"duration":0.1304,"velocity":127,"measure":43,"beat":1.75,"subject_pos":-1,"motif":"","motif_pos":-1,"best_pos":1,"similarity":0.507,"stretto":false,"stretto_voices":0,"combination":[],"aug_dim":"","rhythm_ratio":1.0,"mirror":false,"chromatic_density":0.167,"complexity":0.484,"dissonance":0.141},{"voice":0,"pitch":67,"start":88.1739,"duration":0.3913,"velocity":127,"measure":43,"beat":2.0,"subject_pos":-1,"motif":"","motif_pos":-1,"best_pos":2,"similarity":0.45,"stretto":false,"stretto_voices":0,"combination":[],"aug_dim":"","rhythm_ratio":1.0,"mirror":false,"chromatic_density":0.167,"complexity":0.484,"dissonance":0.141},{"voice":1,"pitch":64,"start":88.1739,"duration":0.3913,"velocity":127,"measure":43,"beat":2.0,"subject_pos":-1,"motif":"","motif_pos":-1,"best_pos":4,"similarity":0.471,"stretto":false,"stretto_voices":0,"combination":[],"aug_dim":"","rhythm_ratio":1.0,"mirror":false,"chromatic_density":0.167,"complexity":0.484,"dissonance":0.141},{"voice":2,"pitch":58,"start":88.1739,"duration":0.5217,"velocity":127,"measure":43,"beat":2.0,"subject_pos":-1,"motif":"","motif_pos":-1,"best_pos":1,"similarity":0.357,"stretto":false,"stretto_voices":0,"combination":[],"aug_dim":"","rhythm_ratio":1.0,"mirror":false,"chromatic_density":0.167,"complexity":0.484,"dissonance":0.141},{"voice":0,"pitch":65,"start":88.5652,"duration":0.1304,"velocity":127,"measure":43,"beat":2.75,"subject_pos":-1,"motif":"","motif_pos":-1,"best_pos":4,"similarity":0.443,"stretto":false,"stretto_voices":0,"combination":[],"aug_dim":"","rhythm_ratio":1.0,"mirror":false,"chromatic_density":0.167,"complexity":0.484,"dissonance":0.141},{"voice":1,"pitch":62,"start":88.5652,"duration":0.5217,"velocity":127,"measure":43,"beat":2.75,"subject_pos":-1,"motif":"","motif_pos":-1,"best_pos":5,"similarity":0.471,"stretto":false,"stretto_voices":0,"combination":[],"aug_dim":"","rhythm_ratio":1.0,"mirror":false,"chromatic_density":0.167,"complexity":0.484,"dissonance":0.141},{"voice":0,"pitch":67,"start":88.6956,"duration":1.4348,"velocity":127,"measure":43,"beat":3.0,"subject_pos":-1,"motif":"","motif_pos":-1,"best_pos":3,"similarity":0.429,"stretto":false,"stretto_voices":0,"combination":[],"aug_dim":"","rhythm_ratio":1.0,"mirror":false,"chromatic_density":0.167,"complexity":0.484,"dissonance":0.141},{"voice":2,"pitch":52,"start":88.6956,"duration":0.5217,"velocity":127,"measure":43,"beat":3.0,"subject_pos":-1,"motif":"","motif_pos":-1,"best_pos":0,"similarity":0.3,"stretto":false,"stretto_voices":0,"combination":[],"aug_dim":"","rhythm_ratio":1.0,"mirror":false,"chromatic_density":0.167,"complexity":0.484,"dissonance":0.141},{"voice":1,"pitch":64,"start":89.0869,"duration":0.1304,"velocity":127,"measure":43,"beat":3.75,"subject_pos":-1,"motif":"","motif_pos":-1,"best_pos":6,"similarity":0.4,"stretto":false,"stretto_voices":0,"combination":[],"aug_dim":"","rhythm_ratio":1.0,"mirror":false,"chromatic_density":0.167,"complexity":0.484,"dissonance":0.141},{"voice":1,"pitch":62,"start":89.2174,"duration":0.3913,"velocity":127,"measure":43,"beat":4.0,"subject_pos":-1,"motif":"","motif_pos":-1,"best_pos":3,"similarity":0.593,"stretto":false,"stretto_voices":0,"combination":[],"aug_dim":"","rhythm_ratio":1.0,"mirror":false,"chromatic_density":0.167,"complexity":0.484,"dissonance":0.141},{"voice":2,"pitch":57,"start":89.2174,"duration":0.5217,"velocity":127,"measure":43,"beat":4.0,"subject_pos":0,"motif":"subject_inv","motif_pos":0,"best_pos":0,"similarity":1.0,"stretto":false,"stretto_voices":0,"combination":[],"aug_dim":"diminution","rhythm_ratio":0.41,"mirror":false,"chromatic_density":0.167,"complexity":0.484,"dissonance":0.141},{"voice":1,"pitch":61,"start":89.6087,"duration":0.1304,"velocity":127,"measure":43,"beat":4.75,"subject_pos":-1,"motif":"","motif_pos":-1,"best_pos":4,"similarity":0.664,"stretto":false,"stretto_voices":0,"combination":[],"aug_dim":"","rhythm_ratio":1.0,"mirror":false,"chromatic_density":0.167,"complexity":0.484,"dissonance":0.141},{"voice":1,"pitch":62,"start":89.7391,"duration":1.5652,"velocity":127,"measure":44,"beat":1.0,"subject_pos":-1,"motif":"","motif_pos":-1,"best_pos":5,"similarity":0.493,"stretto":false,"stretto_voices":0,"combination":[],"aug_dim":"","rhythm_ratio":1.0,"mirror":false,"chromatic_density":0.25,"complexity":0.571,"dissonance":0.082},{"voice":2,"pitch":50,"start":89.7391,"duration":0.5217,"velocity":127,"measure":44,"beat":1.0,"subject_pos":1,"motif":"subject_inv","motif_pos":1,"best_pos":1,"similarity":1.0,"stretto":false,"stretto_voices":0,"combination":[],"aug_dim":"diminution","rhythm_ratio":0.41,"mirror":false,"chromatic_density":0.25,"complexity":0.571,"dissonance":0.082},{"voice":0,"pitch":65,"start":90.1304,"duration":0.1304,"velocity":127,"measure":44,"beat":1.75,"subject_pos":-1,"motif":"","motif_pos":-1,"best_pos":4,"similarity":0.571,"stretto":false,"stretto_voices":0,"combination":[],"aug_dim":"","rhythm_ratio":1.0,"mirror":false,"chromatic_density":0.25,"complexity":0.571,"dissonance":0.082},{"voice":0,"pitch":67,"start":90.2608,"duration":0.3913,"velocity":127,"measure":44,"beat":2.0,"subject_pos":-1,"motif":"","motif_pos":-1,"best_pos":5,"similarity":0.643,"stretto":false,"stretto_voices":0,"combination":[],"aug_dim":"","rhythm_ratio":1.0,"mirror":false,"chromatic_density":0.25,"complexity":0.571,"dissonance":0.082},{"voice":2,"pitch":52,"start":90.2608,"duration":0.3913,"velocity":127,"measure":44,"beat":2.0,"subject_pos":2,"motif":"subject_inv","motif_pos":2,"best_pos":2,"similarity":1.0,"stretto":false,"stretto_voices":0,"combination":[],"aug_dim":"diminution","rhythm_ratio":0.41,"mirror":false,"chromatic_density":0.25,"complexity":0.571,"dissonance":0.082},{"voice":0,"pitch":69,"start":90.6522,"duration":0.1304,"velocity":127,"measure":44,"beat":2.75,"subject_pos":-1,"motif":"","motif_pos":-1,"best_pos":6,"similarity":0.679,"stretto":false,"stretto_voices":0,"combination":[],"aug_dim":"","rhythm_ratio":1.0,"mirror":false,"chromatic_density":0.25,"complexity":0.571,"dissonance":0.082},{"voice":2,"pitch":53,"start":90.6522,"duration":0.1304,"velocity":127,"measure":44,"beat":2.75,"subject_pos":3,"motif":"subject_inv","motif_pos":3,"best_pos":3,"similarity":1.0,"stretto":false,"stretto_voices":0,"combination":[],"aug_dim":"diminution","rhythm_ratio":0.41,"mirror":false,"chromatic_density":0.25,"complexity":0.571,"dissonance":0.082},{"voice":0,"pitch":70,"start":90.7826,"duration":0.3913,"velocity":127,"measure":44,"beat":3.0,"subject_pos":-1,"motif":"","motif_pos":-1,"best_pos":5,"similarity":0.657,"stretto":false,"stretto_voices":0,"combination":[],"aug_dim":"","rhythm_ratio":1.0,"mirror":false,"chromatic_density":0.25,"complexity":0.571,"dissonance":0.082},{"voice":2,"pitch":55,"start":90.7826,"duration":0.3913,"velocity":127,"measure":44,"beat":3.0,"subject_pos":4,"motif":"subject_inv","motif_pos":4,"best_pos":4,"similarity":1.0,"stretto":false,"stretto_voices":0,"combination":[],"aug_dim":"diminution","rhythm_ratio":0.41,"mirror":false,"chromatic_density":0.25,"complexity":0.571,"dissonance":0.082},{"voice":0,"pitch":72,"start":91.1739,"duration":0.1304,"velocity":127,"measure":44,"beat":3.75,"subject_pos":-1,"motif":"","motif_pos":-1,"best_pos":6,"similarity":0.579,"stretto":false,"stretto_voices":0,"combination":[],"aug_dim":"","rhythm_ratio":1.0,"mirror":false,"chromatic_density":0.25,"complexity":0.571,"dissonance":0.082},{"voice":2,"pitch":57,"start":91.1739,"duration":0.1304,"velocity":127,"measure":44,"beat":3.75,"subject_pos":5,"motif":"subject_inv","motif_pos":5,"best_pos":5,"similarity":1.0,"stretto":false,"stretto_voices":0,"combination":[],"aug_dim":"diminution","rhythm_ratio":0.41,"mirror":false,"chromatic_density":0.25,"complexity":0.571,"dissonance":0.082},{"voice":0,"pitch":74,"start":91.3043,"duration":0.3913,"velocity":127,"measure":44,"beat":4.0,"subject_pos":-1,"motif":"","motif_pos":-1,"best_pos":5,"similarity":0.593,"stretto":false,"stretto_voices":0,"combination":[],"aug_dim":"","rhythm_ratio":1.0,"mirror":false,"chromatic_density":0.25,"complexity":0.571,"dissonance":0.082},{"voice":1,"pitch":67,"start":91.3043,"duration":0.5217,"velocity":127,"measure":44,"beat":4.0,"subject_pos":-1,"motif":"","motif_pos":-1,"best_pos":1,"similarity":0.457,"stretto":false,"stretto_voices":0,"combination":[],"aug_dim":"","rhythm_ratio":1.0,"mirror":false,"chromatic_density":0.25,"complexity":0.571,"dissonance":0.082},{"voice":2,"pitch":58,"start":91.3043,"duration":0.913,"velocity":127,"measure":44,"beat":4.0,"subject_pos":6,"motif":"subject_inv","motif_pos":6,"best_pos":6,"similarity":1.0,"stretto":false,"stretto_voices":0,"combination":[],"aug_dim":"diminution","rhythm_ratio":0.41,"mirror":false,"chromatic_density":0.25,"complexity":0.571,"dissonance":0.082},{"voice":0,"pitch":76,"start":91.6956,"duration":0.1304,"velocity":127,"measure":44,"beat":4.75,"subject_pos":-1,"motif":"","motif_pos":-1,"best_pos":6,"similarity":0.65,"stretto":false,"stretto_voices":0,"combination":[],"aug_dim":"","rhythm_ratio":1.0,"mirror":false,"chromatic_density":0.25,"complexity":0.571,"dissonance":0.082},{"voice":0,"pitch":77,"start":91.8261,"duration":1.0435,"velocity":127,"measure":45,"beat":1.0,"subject_pos":-1,"motif":"","motif_pos":-1,"best_pos":7,"similarity":0.464,"stretto":false,"stretto_voices":0,"combination":[],"aug_dim":"","rhythm_ratio":1.0,"mirror":false,"chromatic_density":0.286,"complexity":0.464,"dissonance":0.091},{"voice":1,"pitch":60,"start":91.8261,"duration":1.4348,"velocity":127,"measure":45,"beat":1.0,"subject_pos":-1,"motif":"","motif_pos":-1,"best_pos":2,"similarity":0.464,"stretto":false,"stretto_voices":0,"combination":[],"aug_dim":"","rhythm_ratio":1.0,"mirror":false,"chromatic_density":0.286,"complexity":0.464,"dissonance":0.091},{"voice":2,"pitch":57,"start":92.2174,"duration":0.1304,"velocity":127,"measure":45,"beat":1.75,"subject_pos":7,"motif":"subject_inv","motif_pos":7,"best_pos":7,"similarity":1.0,"stretto":false,"stretto_voices":0,"combination":[],"aug_dim":"diminution","rhythm_ratio":0.41,"mirror":false,"chromatic_density":0.286,"complexity":0.464,"dissonance":0.091},{"voice":2,"pitch":55,"start":92.3478,"duration":0.3913,"velocity":127,"measure":45,"beat":2.0,"subject_pos":8,"motif":"subject_inv","motif_pos":8,"best_pos":0,"similarity":1.0,"stretto":false,"stretto_voices":0,"combination":[],"aug_dim":"diminution","rhythm_ratio":0.41,"mirror":false,"chromatic_density":0.286,"complexity":0.464,"dissonance":0.091},{"voice":2,"pitch":53,"start":92.7391,"duration":0.1304,"velocity":127,"measure":45,"beat":2.75,"subject_pos":-1,"motif":"","motif_pos":-1,"best_pos":3,"similarity":0.721,"stretto":false,"stretto_voices":0,"combination":[],"aug_dim":"","rhythm_ratio":1.0,"mirror":false,"chromatic_density":0.286,"complexity":0.464,"dissonance":0.091},{"voice":0,"pitch":84,"start":92.8695,"duration":1.0435,"velocity":127,"measure":45,"beat":3.0,"subject_pos":-1,"motif":"","motif_pos":-1,"best_pos":1,"similarity":0.571,"stretto":false,"stretto_voices":0,"combination":[],"aug_dim":"","rhythm_ratio":1.0,"mirror":false,"chromatic_density":0.286,"complexity":0.464,"dissonance":0.091},{"voice":2,"pitch":52,"start":92.8695,"duration":1.0435,"velocity":127,"measure":45,"beat":3.0,"subject_pos":-1,"motif":"","motif_pos":-1,"best_pos":4,"similarity":0.736,"stretto":false,"stretto_voices":0,"combination":[],"aug_dim":"","rhythm_ratio":1.0,"mirror":false,"chromatic_density":0.286,"complexity":0.464,"dissonance":0.091},{"voice":1,"pitch":58,"start":93.2608,"duration":0.1304,"velocity":127,"measure":45,"beat":3.75,"subject_pos":-1,"motif":"","motif_pos":-1,"best_pos":3,"similarity":0.536,"stretto":false,"stretto_voices":0,"combination":[],"aug_dim":"","rhythm_ratio":1.0,"mirror":false,"chromatic_density":0.286,"complexity":0.464,"dissonance":0.091},{"voice":1,"pitch":57,"start":93.3913,"duration":0.3913,"velocity":127,"measure":45,"beat":4.0,"subject_pos":-1,"motif":"","motif_pos":-1,"best_pos":4,"similarity":0.407,"stretto":false,"stretto_voices":0,"combination":[],"aug_dim":"","rhythm_ratio":1.0,"mirror":false,"chromatic_density":0.286,"complexity":0.464,"dissonance":0.091},{"voice":1,"pitch":55,"start":93.7826,"duration":0.1304,"velocity":127,"measure":45,"beat":4.75,"subject_pos":-1,"motif":"","motif_pos":-1,"best_pos":2,"similarity":0.464,"stretto":false,"stretto_voices":0,"combination":[],"aug_dim":"","rhythm_ratio":1.0,"mirror":false,"chromatic_density":0.286,"complexity":0.464,"dissonance":0.091},{"voice":0,"pitch":81,"start":93.913,"duration":1.0435,"velocity":127,"measure":46,"beat":1.0,"subject_pos":-1,"motif":"","motif_pos":-1,"best_pos":2,"similarity":0.643,"stretto":false,"stretto_voices":0,"combination":[],"aug_dim":"","rhythm_ratio":1.0,"mirror":false,"chromatic_density":0.111,"complexity":0.495,"dissonance":0.031},{"voice":1,"pitch":53,"start":93.913,"duration":0.3913,"velocity":127,"measure":46,"beat":1.0,"subject_pos":-1,"motif":"","motif_pos":-1,"best_pos":3,"similarity":0.429,"stretto":false,"stretto_voices":0,"combination":[],"aug_dim":"","rhythm_ratio":1.0,"mirror":false,"chromatic_density":0.111,"complexity":0.495,"dissonance":0.031},{"voice":2,"pitch":53,"start":93.913,"duration":0.5217,"velocity":127,"measure":46,"beat":1.0,"subject_pos":-1,"motif":"","motif_pos":-1,"best_pos":5,"similarity":0.507,"stretto":false,"stretto_voices":0,"combination":[],"aug_dim":"","rhythm_ratio":1.0,"mirror":false,"chromatic_density":0.111,"complexity":0.495,"dissonance":0.031},{"voice":1,"pitch":65,"start":94.3043,"duration":0.1304,"velocity":127,"measure":46,"beat":1.75,"subject_pos":-1,"motif":"","motif_pos":-1,"best_pos":4,"similarity":0.5,"stretto":false,"stretto_voices":0,"combination":[],"aug_dim":"","rhythm_ratio":1.0,"mirror":false,"chromatic_density":0.111,"complexity":0.495,"dissonance":0.031},{"voice":1,"pitch":67,"start":94.4348,"duration":0.3913,"velocity":127,"measure":46,"beat":2.0,"subject_pos":-1,"motif":"","motif_pos":-1,"best_pos":5,"similarity":0.607,"stretto":false,"stretto_voices":0,"combination":[],"aug_dim":"","rhythm_ratio":1.0,"mirror":false,"chromatic_density":0.111,"complexity":0.495,"dissonance":0.031},{"voice":1,"pitch":69,"start":94.8261,"duration":0.1304,"velocity":127,"measure":46,"beat":2.75,"subject_pos":-1,"motif":"","motif_pos":-1,"best_pos":6,"similarity":0.643,"stretto":false,"stretto_voices":0,"combination":[],"aug_dim":"","rhythm_ratio":1.0,"mirror":false,"chromatic_density":0.111,"complexity":0.495,"dissonance":0.031},{"voice":0,"pitch":77,"start":94.9565,"duration":1.0435,"velocity":127,"measure":46,"beat":3.0,"subject_pos":-1,"motif":"","motif_pos":-1,"best_pos":3,"similarity":0.786,"stretto":false,"stretto_voices":0,"combination":[],"aug_dim":"","rhythm_ratio":1.0,"mirror":false,"chromatic_density":0.111,"complexity":0.495,"dissonance":0.031},{"voice":1,"pitch":70,"start":94.9565,"duration":0.3913,"velocity":127,"measure":46,"beat":3.0,"subject_pos":-1,"motif":"","motif_pos":-1,"best_pos":5,"similarity":0.657,"stretto":false,"stretto_voices":0,"combination":[],"aug_dim":"","rhythm_ratio":1.0,"mirror":false,"chromatic_density":0.111,"complexity":0.495,"dissonance":0.031},{"voice":1,"pitch":72,"start":95.3478,"duration":0.1304,"velocity":127,"measure":46,"beat":3.75,"subject_pos":-1,"motif":"","motif_pos":-1,"best_pos":6,"similarity":0.579,"stretto":false,"stretto_voices":0,"combination":[],"aug_dim":"","rhythm_ratio":1.0,"mirror":false,"chromatic_density":0.111,"complexity":0.495,"dissonance":0.031},{"voice":1,"pitch":74,"start":95.4782,"duration":0.3913,"velocity":127,"measure":46,"beat":4.0,"subject_pos":-1,"motif":"","motif_pos":-1,"best_pos":6,"similarity":0.375,"stretto":false,"stretto_voices":0,"combination":[],"aug_dim":"","rhythm_ratio":1.0,"mirror":false,"chromatic_density":0.111,"complexity":0.495,"dissonance":0.031},{"voice":2,"pitch":58,"start":95.4782,"duration":0.913,"velocity":127,"measure":46,"beat":4.0,"subject_pos":-1,"motif":"","motif_pos":-1,"best_pos":1,"similarity":0.393,"stretto":false,"stretto_voices":0,"combination":[],"aug_dim":"","rhythm_ratio":1.0,"mirror":false,"chromatic_density":0.111,"complexity":0.495,"dissonance":0.031},{"voice":1,"pitch":70,"start":95.8695,"duration":0.1304,"velocity":127,"measure":46,"beat":4.75,"subject_pos":-1,"motif":"","motif_pos":-1,"best_pos":2,"similarity":0.321,"stretto":false,"stretto_voices":0,"combination":[],"aug_dim":"","rhythm_ratio":1.0,"mirror":false,"chromatic_density":0.111,"complexity":0.495,"dissonance":0.031},{"voice":0,"pitch":76,"start":96.0,"duration":1.0435,"velocity":127,"measure":47,"beat":1.0,"subject_pos":-1,"motif":"","motif_pos":-1,"best_pos":4,"similarity":0.857,"stretto":false,"stretto_voices":0,"combination":[],"aug_dim":"","rhythm_ratio":1.0,"mirror":false,"chromatic_density":0.3,"complexity":0.458,"dissonance":0.127},{"voice":1,"pitch":72,"start":96.0,"duration":0.5217,"velocity":127,"measure":47,"beat":1.0,"subject_pos":-1,"motif":"","motif_pos":-1,"best_pos":6,"similarity":0.293,"stretto":false,"stretto_voices":0,"combination":[],"aug_dim":"","rhythm_ratio":1.0,"mirror":false,"chromatic_density":0.3,"complexity":0.458,"dissonance":0.127},{"voice":2,"pitch":62,"start":96.3913,"duration":0.1304,"velocity":127,"measure":47,"beat":1.75,"subject_pos":-1,"motif":"","motif_pos":-1,"best_pos":1,"similarity":0.571,"stretto":false,"stretto_voices":0,"combination":[],"aug_dim":"","rhythm_ratio":1.0,"mirror":false,"chromatic_density":0.3,"complexity":0.458,"dissonance":0.127},{"voice":1,"pitch":67,"start":96.5217,"duration":0.5217,"velocity":127,"measure":47,"beat":2.0,"subject_pos":-1,"motif":"","motif_pos":-1,"best_pos":0,"similarity":0.336,"stretto":false,"stretto_voices":0,"combination":[],"aug_dim":"","rhythm_ratio":1.0,"mirror":false,"chromatic_density":0.3,"complexity":0.458,"dissonance":0.127},{"voice":2,"pitch":60,"start":96.5217,"duration":0.3913,"velocity":127,"measure":47,"beat":2.0,"subject_pos":-1,"motif":"","motif_pos":-1,"best_pos":2,"similarity":0.65,"stretto":false,"stretto_voices":0,"combination":[],"aug_dim":"","rhythm_ratio":1.0,"mirror":false,"chromatic_density":0.3,"complexity":0.458,"dissonance":0.127},{"voice":2,"pitch":58,"start":96.913,"duration":0.1304,"velocity":127,"measure":47,"beat":2.75,"subject_pos":-1,"motif":"","motif_pos":-1,"best_pos":3,"similarity":0.629,"stretto":false,"stretto_voices":0,"combination":[],"aug_dim":"","rhythm_ratio":1.0,"mirror":false,"chromatic_density":0.3,"complexity":0.458,"dissonance":0.127},{"voice":0,"pitch":77,"start":97.0435,"duration":0.5217,"velocity":127,"measure":47,"beat":3.0,"subject_pos":-1,"motif":"","motif_pos":-1,"best_pos":5,"similarity":0.821,"stretto":false,"stretto_voices":0,"combination":[],"aug_dim":"","rhythm_ratio":1.0,"mirror":false,"chromatic_density":0.3,"complexity":0.458,"dissonance":0.127},{"voice":1,"pitch":72,"start":97.0435,"duration":2.087,"velocity":127,"measure":47,"beat":3.0,"subject_pos":-1,"motif":"","motif_pos":-1,"best_pos":1,"similarity":0.421,"stretto":false,"stretto_voices":0,"combination":[],"aug_dim":"","rhythm_ratio":1.0,"mirror":false,"chromatic_density":0.3,"complexity":0.458,"dissonance":0.127},{"voice":2,"pitch":57,"start":97.0435,"duration":0.3913,"velocity":127,"measure":47,"beat":3.0,"subject_pos":-1,"motif":"","motif_pos":-1,"best_pos":4,"similarity":0.489,"stretto":false,"stretto_voices":0,"combination":[],"aug_dim":"","rhythm_ratio":1.0,"mirror":false,"chromatic_density":0.3,"complexity":0.458,"dissonance":0.127},{"voice":2,"pitch":55,"start":97.4348,"duration":0.1304,"velocity":127,"measure":47,"beat":3.75,"subject_pos":-1,"motif":"","motif_pos":-1,"best_pos":2,"similarity":0.643,"stretto":false,"stretto_voices":0,"combination":[],"aug_dim":"","rhythm_ratio":1.0,"mirror":false,"chromatic_density":0.3,"complexity":0.458,"dissonance":0.127},{"voice":0,"pitch":79,"start":97.5652,"duration":0.5217,"velocity":127,"measure":47,"beat":4.0,"subject_pos":-1,"motif":"","motif_pos":-1,"best_pos":6,"similarity":0.643,"stretto":false,"stretto_voices":0,"combination":[],"aug_dim":"","rhythm_ratio":1.0,"mirror":false,"chromatic_density":0.3,"complexity":0.458,"dissonance":0.127},{"voice":2,"pitch":53,"start":97.5652,"duration":0.3913,"velocity":127,"measure":47,"beat":4.0,"subject_pos":-1,"motif":"","motif_pos":-1,"best_pos":3,"similarity":0.714,"stretto":false,"stretto_voices":0,"combination":[],"aug_dim":"","rhythm_ratio":1.0,"mirror":false,"chromatic_density":0.3,"complexity":0.458,"dissonance":0.127},{"voice":2,"pitch":52,"start":97.9565,"duration":0.1304,"velocity":127,"measure":47,"beat":4.75,"subject_pos":-1,"motif":"","motif_pos":-1,"best_pos":4,"similarity":0.732,"stretto":false,"stretto_voices":0,"combination":[],"aug_dim":"","rhythm_ratio":1.0,"mirror":false,"chromatic_density":0.3,"complexity":0.458,"dissonance":0.127},{"voice":0,"pitch":81,"start":98.0869,"duration":1.4348,"velocity":127,"measure":48,"beat":1.0,"subject_pos":-1,"motif":"tail_inv","motif_pos":0,"best_pos":0,"similarity":1.0,"stretto":false,"stretto_voices":0,"combination":[],"aug_dim":"","rhythm_ratio":1.0,"mirror":false,"chromatic_density":0.4,"complexity":0.655,"dissonance":0.113},{"voice":2,"pitch":53,"start":98.0869,"duration":0.3913,"velocity":127,"measure":48,"beat":1.0,"subject_pos":-1,"motif":"","motif_pos":-1,"best_pos":5,"similarity":0.5,"stretto":false,"stretto_voices":0,"combination":[],"aug_dim":"","rhythm_ratio":1.0,"mirror":false,"chromatic_density":0.4,"complexity":0.655,"dissonance":0.113},{"voice":2,"pitch":65,"start":98.4782,"duration":0.1304,"velocity":127,"measure":48,"beat":1.75,"subject_pos":-1,"motif":"","motif_pos":-1,"best_pos":3,"similarity":0.443,"stretto":false,"stretto_voices":0,"combination":[],"aug_dim":"","rhythm_ratio":1.0,"mirror":false,"chromatic_density":0.4,"complexity":0.655,"dissonance":0.113},{"voice":2,"pitch":64,"start":98.6087,"duration":0.3913,"velocity":127,"measure":48,"beat":2.0,"subject_pos":-1,"motif":"enigmatic_cell","motif_pos":0,"best_pos":0,"similarity":1.0,"stretto":false,"stretto_voices":0,"combination":[],"aug_dim":"","rhythm_ratio":1.0,"mirror":false,"chromatic_density":0.4,"complexity":0.655,"dissonance":0.113},{"voice":2,"pitch":65,"start":99.0,"duration":0.1304,"velocity":127,"measure":48,"beat":2.75,"subject_pos":-1,"motif":"enigmatic_cell","motif_pos":1,"best_pos":1,"similarity":1.0,"stretto":false,"stretto_voices":0,"combination":[],"aug_dim":"","rhythm_ratio":1.0,"mirror":false,"chromatic_density":0.4,"complexity":0.655,"dissonance":0.113},{"voice":1,"pitch":74,"start":99.1304,"duration":0.5217,"velocity":127,"measure":48,"beat":3.0,"subject_pos":-1,"motif":"","motif_pos":-1,"best_pos":1,"similarity":0.457,"stretto":false,"stretto_voices":0,"combination":[],"aug_dim":"","rhythm_ratio":1.0,"mirror":false,"chromatic_density":0.4,"complexity":0.655,"dissonance":0.113},{"voice":2,"pitch":58,"start":99.1304,"duration":0.5217,"velocity":127,"measure":48,"beat":3.0,"subject_pos":-1,"motif":"enigmatic_cell","motif_pos":2,"best_pos":2,"similarity":1.0,"stretto":false,"stretto_voices":0,"combination":[],"aug_dim":"","rhythm_ratio":1.0,"mirror":false,"chromatic_density":0.4,"complexity":0.655,"dissonance":0.113},{"voice":0,"pitch":82,"start":99.5217,"duration":0.1304,"velocity":127,"measure":48,"beat":3.75,"subject_pos":-1,"motif":"tail_inv","motif_pos":1,"best_pos":1,"similarity":1.0,"stretto":false,"stretto_voices":0,"combination":[],"aug_dim":"","rhythm_ratio":1.0,"mirror":false,"chromatic_density":0.4,"complexity":0.655,"dissonance":0.113},{"voice":0,"pitch":81,"start":99.6521,"duration":0.3913,"velocity":127,"measure":48,"beat":4.0,"subject_pos":-1,"motif":"tail_inv","motif_pos":2,"best_pos":2,"similarity":1.0,"stretto":false,"stretto_voices":0,"combination":[],"aug_dim":"","rhythm_ratio":1.0,"mirror":false,"chromatic_density":0.4,"complexity":0.655,"dissonance":0.113},{"voice":1,"pitch":72,"start":99.6521,"duration":0.3913,"velocity":127,"measure":48,"beat":4.0,"subject_pos":-1,"motif":"","motif_pos":-1,"best_pos":2,"similarity":0.593,"stretto":false,"stretto_voices":0,"combination":[],"aug_dim":"","rhythm_ratio":1.0,"mirror":false,"chromatic_density":0.4,"complexity":0.655,"dissonance":0.113},{"voice":2,"pitch":63,"start":99.6521,"duration":0.913,"velocity":127,"measure":48,"beat":4.0,"subject_pos":-1,"motif":"","motif_pos":-1,"best_pos":1,"similarity":0.429,"stretto":false,"stretto_voices":0,"combination":[],"aug_dim":"","rhythm_ratio":1.0,"mirror":false,"chromatic_density":0.4,"complexity":0.655,"dissonance":0.113},{"voice":0,"pitch":79,"start":100.0435,"duration":0.1304,"velocity":127,"measure":48,"beat":4.75,"subject_pos":-1,"motif":"tail_inv","motif_pos":3,"best_pos":3,"similarity":1.0,"stretto":false,"stretto_voices":0,"combination":[],"aug_dim":"","rhythm_ratio":1.0,"mirror":false,"chromatic_density":0.4,"complexity":0.655,"dissonance":0.113},{"voice":1,"pitch":70,"start":100.0435,"duration":0.1304,"velocity":127,"measure":48,"beat":4.75,"subject_pos":-1,"motif":"enigmatic_cell","motif_pos":0,"best_pos":0,"similarity":1.0,"stretto":false,"stretto_voices":0,"combination":[],"aug_dim":"","rhythm_ratio":1.0,"mirror":false,"chromatic_density":0.4,"complexity":0.655,"dissonance":0.113},{"voice":0,"pitch":78,"start":100.1739,"duration":1.0435,"velocity":127,"measure":49,"beat":1.0,"subject_pos":-1,"motif":"tail_inv","motif_pos":4,"best_pos":4,"similarity":1.0,"stretto":false,"stretto_voices":0,"combination":[],"aug_dim":"","rhythm_ratio":1.0,"mirror":false,"chromatic_density":0.444,"complexity":0.556,"dissonance":0.118},{"voice":1,"pitch":69,"start":100.1739,"duration":1.0435,"velocity":127,"measure":49,"beat":1.0,"subject_pos":-1,"motif":"enigmatic_cell","motif_pos":1,"best_pos":1,"similarity":1.0,"stretto":false,"stretto_voices":0,"combination":[],"aug_dim":"","rhythm_ratio":1.0,"mirror":false,"chromatic_density":0.444,"complexity":0.556,"dissonance":0.118},{"voice":2,"pitch":63,"start":100.5652,"duration":0.1304,"velocity":127,"measure":49,"beat":1.75,"subject_pos":-1,"motif":"","motif_pos":-1,"best_pos":2,"similarity":0.364,"stretto":false,"stretto_voices":0,"combination":[],"aug_dim":"","rhythm_ratio":1.0,"mirror":false,"chromatic_density":0.444,"complexity":0.556,"dissonance":0.118},{"voice":2,"pitch":62,"start":100.6956,"duration":0.3913,"velocity":127,"measure":49,"beat":2.0,"subject_pos":-1,"motif":"","motif_pos":-1,"best_pos":1,"similarity":0.429,"stretto":false,"stretto_voices":0,"combination":[],"aug_dim":"","rhythm_ratio":1.0,"mirror":false,"chromatic_density":0.444,"complexity":0.556,"dissonance":0.118},{"voice":2,"pitch":60,"start":101.0869,"duration":0.1304,"velocity":127,"measure":49,"beat":2.75,"subject_pos":-1,"motif":"","motif_pos":-1,"best_pos":2,"similarity":0.579,"stretto":false,"stretto_voices":0,"combination":[],"aug_dim":"","rhythm_ratio":1.0,"mirror":false,"chromatic_density":0.444,"complexity":0.556,"dissonance":0.118},{"voice":0,"pitch":79,"start":101.2174,"duration":0.5217,"velocity":127,"measure":49,"beat":3.0,"subject_pos":-1,"motif":"","motif_pos":-1,"best_pos":5,"similarity":0.75,"stretto":false,"stretto_voices":0,"combination":[],"aug_dim":"","rhythm_ratio":1.0,"mirror":false,"chromatic_density":0.444,"complexity":0.556,"dissonance":0.118},{"voice":1,"pitch":74,"start":101.2174,"duration":1.0435,"velocity":127,"measure":49,"beat":3.0,"subject_pos":-1,"motif":"enigmatic_cell","motif_pos":2,"best_pos":2,"similarity":1.0,"stretto":false,"stretto_voices":0,"combination":[],"aug_dim":"","rhythm_ratio":1.0,"mirror":false,"chromatic_density":0.444,"complexity":0.556,"dissonance":0.118},{"voice":2,"pitch":58,"start":101.2174,"duration":0.3913,"velocity":127,"measure":49,"beat":3.0,"subject_pos":-1,"motif":"","motif_pos":-1,"best_pos":3,"similarity":0.593,"stretto":false,"stretto_voices":0,"combination":[],"aug_dim":"","rhythm_ratio":1.0,"mirror":false,"chromatic_density":0.444,"complexity":0.556,"dissonance":0.118},{"voice":2,"pitch":57,"start":101.6087,"duration":0.1304,"velocity":127,"measure":49,"beat":3.75,"subject_pos":-1,"motif":"","motif_pos":-1,"best_pos":4,"similarity":0.543,"stretto":false,"stretto_voices":0,"combination":[],"aug_dim":"","rhythm_ratio":1.0,"mirror":false,"chromatic_density":0.444,"complexity":0.556,"dissonance":0.118},{"voice":0,"pitch":81,"start":101.7391,"duration":0.913,"velocity":127,"measure":49,"beat":4.0,"subject_pos":-1,"motif":"","motif_pos":-1,"best_pos":6,"similarity":0.5,"stretto":false,"stretto_voices":0,"combination":[],"aug_dim":"","rhythm_ratio":1.0,"mirror":false,"chromatic_density":0.444,"complexity":0.556,"dissonance":0.118},{"voice":2,"pitch":55,"start":101.7391,"duration":0.3913,"velocity":127,"measure":49,"beat":4.0,"subject_pos":-1,"motif":"tail","motif_pos":3,"best_pos":3,"similarity":1.0,"stretto":false,"stretto_voices":0,"combination":[],"aug_dim":"","rhythm_ratio":1.0,"mirror":false,"chromatic_density":0.444,"complexity":0.556,"dissonance":0.118},{"voice":2,"pitch":54,"start":102.1304,"duration":0.1304,"velocity":127,"measure":49,"beat":4.75,"subject_pos":-1,"motif":"tail","motif_pos":4,"best_pos":4,"similarity":1.0,"stretto":false,"stretto_voices":0,"combination":[],"aug_dim":"","rhythm_ratio":1.0,"mirror":false,"chromatic_density":0.444,"complexity":0.556,"dissonance":0.118},{"voice":1,"pitch":70,"start":102.2608,"duration":1.0435,"velocity":127,"measure":50,"beat":1.0,"subject_pos":-1,"motif":"","motif_pos":-1,"best_pos":2,"similarity":0.929,"stretto":false,"stretto_voices":0,"combination":[],"aug_dim":"","rhythm_ratio":1.0,"mirror":false,"chromatic_density":0.364,"complexity":0.507,"dissonance":0.068},{"voice":2,"pitch":55,"start":102.2608,"duration":0.3913,"velocity":127,"measure":50,"beat":1.0,"subject_pos":-1,"motif":"tail","motif_pos":5,"best_pos":5,"similarity":1.0,"stretto":false,"stretto_voices":0,"combination":[],"aug_dim":"","rhythm_ratio":1.0,"mirror":false,"chromatic_density":0.364,"complexity":0.507,"dissonance":0.068},{"voice":0,"pitch":74,"start":102.6521,"duration":0.1304,"velocity":127,"measure":50,"beat":1.75,"subject_pos":-1,"motif":"","motif_pos":-1,"best_pos":0,"similarity":0.464,"stretto":false,"stretto_voices":0,"combination":[],"aug_dim":"","rhythm_ratio":1.0,"mirror":false,"chromatic_density":0.364,"complexity":0.507,"dissonance":0.068},{"voice":2,"pitch":57,"start":102.6521,"duration":0.1304,"velocity":127,"measure":50,"beat":1.75,"subject_pos":-1,"motif":"tail","motif_pos":6,"best_pos":6,"similarity":1.0,"stretto":false,"stretto_voices":0,"combination":[],"aug_dim":"","rhythm_ratio":1.0,"mirror":false,"chromatic_density":0.364,"complexity":0.507,"dissonance":0.068},{"voice":0,"pitch":79,"start":102.7826,"duration":0.3913,"velocity":127,"measure":50,"beat":2.0,"subject_pos":-1,"motif":"","motif_pos":-1,"best_pos":1,"similarity":0.714,"stretto":false,"stretto_voices":0,"combination":[],"aug_dim":"","rhythm_ratio":1.0,"mirror":false,"chromatic_density":0.364,"complexity":0.507,"dissonance":0.068},{"voice":2,"pitch":58,"start":102.7826,"duration":1.0435,"velocity":127,"measure":50,"beat":2.0,"subject_pos":-1,"motif":"tail","motif_pos":7,"best_pos":7,"similarity":1.0,"stretto":false,"stretto_voices":0,"combination":[],"aug_dim":"","rhythm_ratio":1.0,"mirror":false,"chromatic_density":0.364,"complexity":0.507,"dissonance":0.068},{"voice":0,"pitch":77,"start":103.1739,"duration":0.1304,"velocity":127,"measure":50,"beat":2.75,"subject_pos":-1,"motif":"","motif_pos":-1,"best_pos":2,"similarity":0.721,"stretto":false,"stretto_voices":0,"combination":[],"aug_dim":"","rhythm_ratio":1.0,"mirror":false,"chromatic_density":0.364,"complexity":0.507,"dissonance":0.068},{"voice":0,"pitch":75,"start":103.3043,"duration":0.3913,"velocity":127,"measure":50,"beat":3.0,"subject_pos":-1,"motif":"","motif_pos":-1,"best_pos":3,"similarity":0.664,"stretto":false,"stretto_voices":0,"combination":[],"aug_dim":"","rhythm_ratio":1.0,"mirror":false,"chromatic_density":0.364,"complexity":0.507,"dissonance":0.068},{"voice":1,"pitch":67,"start":103.3043,"duration":1.0435,"velocity":127,"measure":50,"beat":3.0,"subject_pos":-1,"motif":"tail","motif_pos":3,"best_pos":3,"similarity":1.0,"stretto":false,"stretto_voices":0,"combination":[],"aug_dim":"","rhythm_ratio":1.0,"mirror":false,"chromatic_density":0.364,"complexity":0.507,"dissonance":0.068},{"voice":0,"pitch":74,"start":103.6956,"duration":0.1304,"velocity":127,"measure":50,"beat":3.75,"subject_pos":-1,"motif":"","motif_pos":-1,"best_pos":4,"similarity":0.489,"stretto":false,"stretto_voices":0,"combination":[],"aug_dim":"","rhythm_ratio":1.0,"mirror":false,"chromatic_density":0.364,"complexity":0.507,"dissonance":0.068},{"voice":0,"pitch":72,"start":103.8261,"duration":0.3913,"velocity":127,"measure":50,"beat":4.0,"subject_pos":-1,"motif":"","motif_pos":-1,"best_pos":2,"similarity":0.571,"stretto":false,"stretto_voices":0,"combination":[],"aug_dim":"","rhythm_ratio":1.0,"mirror":false,"chromatic_density":0.364,"complexity":0.507,"dissonance":0.068},{"voice":2,"pitch":57,"start":103.8261,"duration":0.3913,"velocity":127,"measure":50,"beat":4.0,"subject_pos":-1,"motif":"","motif_pos":-1,"best_pos":4,"similarity":0.754,"stretto":false,"stretto_voices":0,"combination":[],"aug_dim":"","rhythm_ratio":1.0,"mirror":false,"chromatic_density":0.364,"complexity":0.507,"dissonance":0.068},{"voice":0,"pitch":70,"start":104.2174,"duration":0.1304,"velocity":127,"measure":50,"beat":4.75,"subject_pos":-1,"motif":"","motif_pos":-1,"best_pos":3,"similarity":0.579,"stretto":false,"stretto_voices":0,"combination":[],"aug_dim":"","rhythm_ratio":1.0,"mirror":false,"chromatic_density":0.364,"complexity":0.507,"dissonance":0.068},{"voice":2,"pitch":58,"start":104.2174,"duration":0.1304,"velocity":127,"measure":50,"beat":4.75,"subject_pos":-1,"motif":"","motif_pos":-1,"best_pos":5,"similarity":0.757,"stretto":false,"stretto_voices":0,"combination":[],"aug_dim":"","rhythm_ratio":1.0,"mirror":false,"chromatic_density":0.364,"complexity":0.507,"dissonance":0.068},{"voice":0,"pitch":69,"start":104.3478,"duration":1.0435,"velocity":127,"measure":51,"beat":1.0,"subject_pos":-1,"motif":"","motif_pos":-1,"best_pos":4,"similarity":0.45,"stretto":false,"stretto_voices":0,"combination":[],"aug_dim":"","rhythm_ratio":1.0,"mirror":false,"chromatic_density":0.5,"complexity":0.598,"dissonance":0.206},{"voice":1,"pitch":66,"start":104.3478,"duration":1.0435,"velocity":127,"measure":51,"beat":1.0,"subject_pos":-1,"motif":"tail","motif_pos":4,"best_pos":4,"similarity":1.0,"stretto":false,"stretto_voices":0,"combination":[],"aug_dim":"","rhythm_ratio":1.0,"mirror":false,"chromatic_density":0.5,"complexity":0.598,"dissonance":0.206},{"voice":2,"pitch":60,"start":104.3478,"duration":0.5217,"velocity":127,"measure":51,"beat":1.0,"subject_pos":-1,"motif":"","motif_pos":-1,"best_pos":6,"similarity":0.571,"stretto":false,"stretto_voices":0,"combination":[],"aug_dim":"","rhythm_ratio":1.0,"mirror":false,"chromatic_density":0.5,"complexity":0.598,"dissonance":0.206},{"voice":3,"pitch":51,"start":104.7391,"duration":0.1304,"velocity":127,"measure":51,"beat":1.75,"subject_pos":-1,"motif":"enigmatic_cell","motif_pos":2,"best_pos":2,"similarity":1.0,"stretto":false,"stretto_voices":0,"combination":[],"aug_dim":"","rhythm_ratio":1.0,"mirror":false,"chromatic_density":0.5,"complexity":0.598,"dissonance":0.206},{"voice":2,"pitch":63,"start":104.8695,"duration":0.5217,"velocity":127,"measure":51,"beat":2.0,"subject_pos":-1,"motif":"","motif_pos":-1,"best_pos":3,"similarity":0.45,"stretto":false,"stretto_voices":0,"combination":[],"aug_dim":"","rhythm_ratio":1.0,"mirror":false,"chromatic_density":0.5,"complexity":0.598,"dissonance":0.206},{"voice":3,"pitch":50,"start":104.8695,"duration":0.3913,"velocity":127,"measure":51,"beat":2.0,"subject_pos":-1,"motif":"","motif_pos":-1,"best_pos":1,"similarity":0.429,"stretto":false,"stretto_voices":0,"combination":[],"aug_dim":"","rhythm_ratio":1.0,"mirror":false,"chromatic_density":0.5,"complexity":0.598,"dissonance":0.206},{"voice":3,"pitch":48,"start":105.2608,"duration":0.1304,"velocity":127,"measure":51,"beat":2.75,"subject_pos":-1,"motif":"","motif_pos":-1,"best_pos":2,"similarity":0.579,"stretto":false,"stretto_voices":0,"combination":[],"aug_dim":"","rhythm_ratio":1.0,"mirror":false,"chromatic_density":0.5,"complexity":0.598,"dissonance":0.206},{"voice":1,"pitch":67,"start":105.3913,"duration":0.5217,"velocity":127,"measure":51,"beat":3.0,"subject_pos":-1,"motif":"tail","motif_pos":5,"best_pos":5,"similarity":1.0,"stretto":false,"stretto_voices":0,"combination":[],"aug_dim":"","rhythm_ratio":1.0,"mirror":false,"chromatic_density":0.5,"complexity":0.598,"dissonance":0.206},{"voice":2,"pitch":62,"start":105.3913,"duration":1.5652,"velocity":127,"measure":51,"beat":3.0,"subject_pos":-1,"motif":"","motif_pos":-1,"best_pos":4,"similarity":0.65,"stretto":false,"stretto_voices":0,"combination":[],"aug_dim":"","rhythm_ratio":1.0,"mirror":false,"chromatic_density":0.5,"complexity":0.598,"dissonance":0.206},{"voice":3,"pitch":46,"start":105.3913,"duration":0.3913,"velocity":127,"measure":51,"beat":3.0,"subject_pos":-1,"motif":"","motif_pos":-1,"best_pos":3,"similarity":0.593,"stretto":false,"stretto_voices":0,"combination":[],"aug_dim":"","rhythm_ratio":1.0,"mirror":false,"chromatic_density":0.5,"complexity":0.598,"dissonance":0.206},{"voice":3,"pitch":45,"start":105.7826,"duration":0.1304,"velocity":127,"measure":51,"beat":3.75,"subject_pos":-1,"motif":"","motif_pos":-1,"best_pos":4,"similarity":0.543,"stretto":false,"stretto_voices":0,"combination":[],"aug_dim":"","rhythm_ratio":1.0,"mirror":false,"chromatic_density":0.5,"complexity":0.598,"dissonance":0.206},{"voice":1,"pitch":69,"start":105.913,"duration":0.5217,"velocity":127,"measure":51,"beat":4.0,"subject_pos":-1,"motif":"tail","motif_pos":6,"best_pos":6,"similarity":1.0,"stretto":false,"stretto_voices":0,"combination":[],"aug_dim":"","rhythm_ratio":1.0,"mirror":false,"chromatic_density":0.5,"complexity":0.598,"dissonance":0.206},{"voice":3,"pitch":43,"start":105.913,"duration":0.3913,"velocity":127,"measure":51,"beat":4.0,"subject_pos":-1,"motif":"","motif_pos":-1,"best_pos":3,"similarity":0.643,"stretto":false,"stretto_voices":0,"combination":[],"aug_dim":"","rhythm_ratio":1.0,"mirror":false,"chromatic_density":0.5,"complexity":0.598,"dissonance":0.206},{"voice":3,"pitch":42,"start":106.3043,"duration":0.1304,"velocity":127,"measure":51,"beat":4.75,"subject_pos":-1,"motif":"","motif_pos":-1,"best_pos":4,"similarity":0.696,"stretto":false,"stretto_voices":0,"combination":[],"aug_dim":"","rhythm_ratio":1.0,"mirror":false,"chromatic_density":0.5,"complexity":0.598,"dissonance":0.206},{"voice":1,"pitch":70,"start":106.4348,"duration":1.4348,"velocity":127,"measure":52,"beat":1.0,"subject_pos":-1,"motif":"tail","motif_pos":7,"best_pos":7,"similarity":1.0,"stretto":false,"stretto_voices":0,"combination":[],"aug_dim":"","rhythm_ratio":1.0,"mirror":false,"chromatic_density":0.444,"complexity":0.582,"dissonance":0.155},{"voice":3,"pitch":43,"start":106.4348,"duration":0.3913,"velocity":127,"measure":52,"beat":1.0,"subject_pos":-1,"motif":"","motif_pos":-1,"best_pos":5,"similarity":0.5,"stretto":false,"stretto_voices":0,"combination":[],"aug_dim":"","rhythm_ratio":1.0,"mirror":false,"chromatic_density":0.444,"complexity":0.582,"dissonance":0.155},{"voice":3,"pitch":55,"start":106.8261,"duration":0.1304,"velocity":127,"measure":52,"beat":1.75,"subject_pos":-1,"motif":"","motif_pos":-1,"best_pos":3,"similarity":0.443,"stretto":false,"stretto_voices":0,"combination":[],"aug_dim":"","rhythm_ratio":1.0,"mirror":false,"chromatic_density":0.444,"complexity":0.582,"dissonance":0.155},{"voice":2,"pitch":62,"start":106.9565,"duration":0.5217,"velocity":127,"measure":52,"beat":2.0,"subject_pos":-1,"motif":"","motif_pos":-1,"best_pos":5,"similarity":0.714,"stretto":false,"stretto_voices":0,"combination":[],"aug_dim":"","rhythm_ratio":1.0,"mirror":false,"chromatic_density":0.444,"complexity":0.582,"dissonance":0.155},{"voice":3,"pitch":54,"start":106.9565,"duration":0.3913,"velocity":127,"measure":52,"beat":2.0,"subject_pos":-1,"motif":"enigmatic_cell","motif_pos":0,"best_pos":0,"similarity":1.0,"stretto":false,"stretto_voices":0,"combination":[],"aug_dim":"","rhythm_ratio":1.0,"mirror":false,"chromatic_density":0.444,"complexity":0.582,"dissonance":0.155},{"voice":3,"pitch":55,"start":107.3478,"duration":0.1304,"velocity":127,"measure":52,"beat":2.75,"subject_pos":-1,"motif":"enigmatic_cell","motif_pos":1,"best_pos":1,"similarity":1.0,"stretto":false,"stretto_voices":0,"combination":[],"aug_dim":"","rhythm_ratio":1.0,"mirror":false,"chromatic_density":0.444,"complexity":0.582,"dissonance":0.155},{"voice":2,"pitch":64,"start":107.4782,"duration":0.5217,"velocity":127,"measure":52,"beat":3.0,"subject_pos":-1,"motif":"","motif_pos":-1,"best_pos":6,"similarity":0.714,"stretto":false,"stretto_voices":0,"combination":[],"aug_dim":"","rhythm_ratio":1.0,"mirror":false,"chromatic_density":0.444,"complexity":0.582,"dissonance":0.155},{"voice":3,"pitch":48,"start":107.4782,"duration":2.087,"velocity":127,"measure":52,"beat":3.0,"subject_pos":-1,"motif":"enigmatic_cell","motif_pos":2,"best_pos":2,"similarity":1.0,"stretto":false,"stretto_voices":0,"combination":[],"aug_dim":"","rhythm_ratio":1.0,"mirror":false,"chromatic_density":0.444,"complexity":0.582,"dissonance":0.155},{"voice":1,"pitch":72,"start":107.8695,"duration":0.1304,"velocity":127,"measure":52,"beat":3.75,"subject_pos":-1,"motif":"","motif_pos":-1,"best_pos":6,"similarity":0.464,"stretto":false,"stretto_voices":0,"combination":[],"aug_dim":"","rhythm_ratio":1.0,"mirror":false,"chromatic_density":0.444,"complexity":0.582,"dissonance":0.155},{"voice":1,"pitch":70,"start":108.0,"duration":0.3913,"velocity":127,"measure":52,"beat":4.0,"subject_pos":-1,"motif":"","motif_pos":-1,"best_pos":3,"similarity":0.5,"stretto":false,"stretto_voices":0,"combination":[],"aug_dim":"","rhythm_ratio":1.0,"mirror":false,"chromatic_density":0.444,"complexity":0.582,"dissonance":0.155},{"voice":2,"pitch":65,"start":108.0,"duration":0.913,"velocity":127,"measure":52,"beat":4.0,"subject_pos":-1,"motif":"","motif_pos":-1,"best_pos":7,"similarity":0.464,"stretto":false,"stretto_voices":0,"combination":[],"aug_dim":"","rhythm_ratio":1.0,"mirror":false,"chromatic_density":0.444,"complexity":0.582,"dissonance":0.155},{"voice":1,"pitch":69,"start":108.3913,"duration":0.1304,"velocity":127,"measure":52,"beat":4.75,"subject_pos":-1,"motif":"","motif_pos":-1,"best_pos":4,"similarity":0.482,"stretto":false,"stretto_voices":0,"combination":[],"aug_dim":"","rhythm_ratio":1.0,"mirror":false,"chromatic_density":0.444,"complexity":0.582,"dissonance":0.155},{"voice":1,"pitch":67,"start":108.5217,"duration":0.5217,"velocity":127,"measure":53,"beat":1.0,"subject_pos":-1,"motif":"","motif_pos":-1,"best_pos":2,"similarity":0.446,"stretto":false,"stretto_voices":0,"combination":[],"aug_dim":"","rhythm_ratio":1.0,"mirror":false,"chromatic_density":0.333,"complexity":0.473,"dissonance":0.133},{"voice":2,"pitch":65,"start":108.913,"duration":0.1304,"velocity":127,"measure":53,"beat":1.75,"subject_pos":-1,"motif":"","motif_pos":-1,"best_pos":2,"similarity":0.379,"stretto":false,"stretto_voices":0,"combination":[],"aug_dim":"","rhythm_ratio":1.0,"mirror":false,"chromatic_density":0.333,"complexity":0.473,"dissonance":0.133},{"voice":1,"pitch":70,"start":109.0435,"duration":0.5217,"velocity":127,"measure":53,"beat":2.0,"subject_pos":-1,"motif":"","motif_pos":-1,"best_pos":3,"similarity":0.464,"stretto":false,"stretto_voices":0,"combination":[],"aug_dim":"","rhythm_ratio":1.0,"mirror":false,"chromatic_density":0.333,"complexity":0.473,"dissonance":0.133},{"voice":2,"pitch":63,"start":109.0435,"duration":0.3913,"velocity":127,"measure":53,"beat":2.0,"subject_pos":-1,"motif":"","motif_pos":-1,"best_pos":3,"similarity":0.493,"stretto":false,"stretto_voices":0,"combination":[],"aug_dim":"","rhythm_ratio":1.0,"mirror":false,"chromatic_density":0.333,"complexity":0.473,"dissonance":0.133},{"voice":2,"pitch":62,"start":109.4348,"duration":0.1304,"velocity":127,"measure":53,"beat":2.75,"subject_pos":-1,"motif":"","motif_pos":-1,"best_pos":4,"similarity":0.436,"stretto":false,"stretto_voices":0,"combination":[],"aug_dim":"","rhythm_ratio":1.0,"mirror":false,"chromatic_density":0.333,"complexity":0.473,"dissonance":0.133},{"voice":1,"pitch":69,"start":109.5652,"duration":0.5217,"velocity":127,"measure":53,"beat":3.0,"subject_pos":-1,"motif":"","motif_pos":-1,"best_pos":4,"similarity":0.464,"stretto":false,"stretto_voices":0,"combination":[],"aug_dim":"","rhythm_ratio":1.0,"mirror":false,"chromatic_density":0.333,"complexity":0.473,"dissonance":0.133},{"voice":2,"pitch":60,"start":109.5652,"duration":0.3913,"velocity":127,"measure":53,"beat":3.0,"subject_pos":-1,"motif":"","motif_pos":-1,"best_pos":2,"similarity":0.579,"stretto":false,"stretto_voices":0,"combination":[],"aug_dim":"","rhythm_ratio":1.0,"mirror":false,"chromatic_density":0.333,"complexity":0.473,"dissonance":0.133},{"voice":3,"pitch":53,"start":109.5652,"duration":1.0435,"velocity":127,"measure":53,"beat":3.0,"subject_pos":-1,"motif":"","motif_pos":-1,"best_pos":1,"similarity":0.571,"stretto":false,"stretto_voices":0,"combination":[],"aug_dim":"","rhythm_ratio":1.0,"mirror":false,"chromatic_density":0.333,"complexity":0.473,"dissonance":0.133},{"voice":2,"pitch":58,"start":109.9565,"duration":0.1304,"velocity":127,"measure":53,"beat":3.75,"subject_pos":-1,"motif":"","motif_pos":-1,"best_pos":3,"similarity":0.593,"stretto":false,"stretto_voices":0,"combination":[],"aug_dim":"","rhythm_ratio":1.0,"mirror":false,"chromatic_density":0.333,"complexity":0.473,"dissonance":0.133},{"voice":1,"pitch":72,"start":110.0869,"duration":0.913,"velocity":127,"measure":53,"beat":4.0,"subject_pos":-1,"motif":"head_inv","motif_pos":0,"best_pos":0,"similarity":1.0,"stretto":false,"stretto_voices":0,"combination":[],"aug_dim":"","rhythm_ratio":1.0,"mirror":false,"chromatic_density":0.333,"complexity":0.473,"dissonance":0.133},{"voice":2,"pitch":57,"start":110.0869,"duration":0.3913,"velocity":127,"measure":53,"beat":4.0,"subject_pos":-1,"motif":"","motif_pos":-1,"best_pos":4,"similarity":0.471,"stretto":false,"stretto_voices":0,"combination":[],"aug_dim":"","rhythm_ratio":1.0,"mirror":false,"chromatic_density":0.333,"complexity":0.473,"dissonance":0.133},{"voice":2,"pitch":55,"start":110.4782,"duration":0.1304,"velocity":127,"measure":53,"beat":4.75,"subject_pos":-1,"motif":"","motif_pos":-1,"best_pos":2,"similarity":0.479,"stretto":false,"stretto_voices":0,"combination":[],"aug_dim":"","rhythm_ratio":1.0,"mirror":false,"chromatic_density":0.333,"complexity":0.473,"dissonance":0.133},{"voice":2,"pitch":53,"start":110.6087,"duration":0.5217,"velocity":127,"measure":54,"beat":1.0,"subject_pos":-1,"motif":"head_inv","motif_pos":0,"best_pos":0,"similarity":1.0,"stretto":false,"stretto_voices":0,"combination":[],"aug_dim":"","rhythm_ratio":1.0,"mirror":false,"chromatic_density":0.143,"complexity":0.539,"dissonance":0.05},{"voice":3,"pitch":50,"start":110.6087,"duration":1.0435,"velocity":127,"measure":54,"beat":1.0,"subject_pos":-1,"motif":"","motif_pos":-1,"best_pos":2,"similarity":0.643,"stretto":false,"stretto_voices":0,"combination":[],"aug_dim":"","rhythm_ratio":1.0,"mirror":false,"chromatic_density":0.143,"complexity":0.539,"dissonance":0.05},{"voice":1,"pitch":65,"start":111.0,"duration":0.1304,"velocity":127,"measure":54,"beat":1.75,"subject_pos":-1,"motif":"head_inv","motif_pos":1,"best_pos":1,"similarity":1.0,"stretto":false,"stretto_voices":0,"combination":[],"aug_dim":"","rhythm_ratio":1.0,"mirror":false,"chromatic_density":0.143,"complexity":0.539,"dissonance":0.05},{"voice":1,"pitch":67,"start":111.1304,"duration":0.3913,"velocity":127,"measure":54,"beat":2.0,"subject_pos":-1,"motif":"head_inv","motif_pos":2,"best_pos":2,"similarity":1.0,"stretto":false,"stretto_voices":0,"combination":[],"aug_dim":"","rhythm_ratio":1.0,"mirror":false,"chromatic_density":0.143,"complexity":0.539,"dissonance":0.05},{"voice":1,"pitch":69,"start":111.5217,"duration":0.1304,"velocity":127,"measure":54,"beat":2.75,"subject_pos":-1,"motif":"head_inv","motif_pos":3,"best_pos":3,"similarity":1.0,"stretto":false,"stretto_voices":0,"combination":[],"aug_dim":"","rhythm_ratio":1.0,"mirror":false,"chromatic_density":0.143,"complexity":0.539,"dissonance":0.05},{"voice":1,"pitch":70,"start":111.6521,"duration":0.3913,"velocity":127,"measure":54,"beat":3.0,"subject_pos":-1,"motif":"head_inv","motif_pos":4,"best_pos":4,"similarity":1.0,"stretto":false,"stretto_voices":0,"combination":[],"aug_dim":"","rhythm_ratio":1.0,"mirror":false,"chromatic_density":0.143,"complexity":0.539,"dissonance":0.05},{"voice":3,"pitch":46,"start":111.6521,"duration":1.0435,"velocity":127,"measure":54,"beat":3.0,"subject_pos":-1,"motif":"","motif_pos":-1,"best_pos":3,"similarity":0.786,"stretto":false,"stretto_voices":0,"combination":[],"aug_dim":"","rhythm_ratio":1.0,"mirror":false,"chromatic_density":0.143,"complexity":0.539,"dissonance":0.05},{"voice":1,"pitch":72,"start":112.0435,"duration":0.1304,"velocity":127,"measure":54,"beat":3.75,"subject_pos":-1,"motif":"","motif_pos":-1,"best_pos":6,"similarity":0.579,"stretto":false,"stretto_voices":0,"combination":[],"aug_dim":"","rhythm_ratio":1.0,"mirror":false,"chromatic_density":0.143,"complexity":0.539,"dissonance":0.05},{"voice":1,"pitch":74,"start":112.1739,"duration":0.3913,"velocity":127,"measure":54,"beat":4.0,"subject_pos":-1,"motif":"","motif_pos":-1,"best_pos":6,"similarity":0.375,"stretto":false,"stretto_voices":0,"combination":[],"aug_dim":"","rhythm_ratio":1.0,"mirror":false,"chromatic_density":0.143,"complexity":0.539,"dissonance":0.05},{"voice":1,"pitch":70,"start":112.5652,"duration":0.1304,"velocity":127,"measure":54,"beat":4.75,"subject_pos":-1,"motif":"","motif_pos":-1,"best_pos":2,"similarity":0.318,"stretto":false,"stretto_voices":0,"combination":[],"aug_dim":"","rhythm_ratio":1.0,"mirror":false,"chromatic_density":0.143,"complexity":0.539,"dissonance":0.05},{"voice":1,"pitch":72,"start":112.6956,"duration":1.0435,"velocity":127,"measure":55,"beat":1.0,"subject_pos":-1,"motif":"","motif_pos":-1,"best_pos":6,"similarity":0.293,"stretto":false,"stretto_voices":0,"combination":[],"aug_dim":"","rhythm_ratio":1.0,"mirror":false,"chromatic_density":0.364,"complexity":0.583,"dissonance":0.115},{"voice":3,"pitch":45,"start":112.6956,"duration":1.0435,"velocity":127,"measure":55,"beat":1.0,"subject_pos":-1,"motif":"","motif_pos":-1,"best_pos":4,"similarity":0.857,"stretto":false,"stretto_voices":0,"combination":[],"aug_dim":"","rhythm_ratio":1.0,"mirror":false,"chromatic_density":0.364,"complexity":0.583,"dissonance":0.115},{"voice":0,"pitch":79,"start":113.0869,"duration":0.1304,"velocity":127,"measure":55,"beat":1.75,"subject_pos":-1,"motif":"","motif_pos":-1,"best_pos":1,"similarity":0.457,"stretto":false,"stretto_voices":0,"combination":[],"aug_dim":"","rhythm_ratio":1.0,"mirror":false,"chromatic_density":0.364,"complexity":0.583,"dissonance":0.115},{"voice":0,"pitch":77,"start":113.2174,"duration":0.3913,"velocity":127,"measure":55,"beat":2.0,"subject_pos":-1,"motif":"","motif_pos":-1,"best_pos":2,"similarity":0.593,"stretto":false,"stretto_voices":0,"combination":[],"aug_dim":"","rhythm_ratio":1.0,"mirror":false,"chromatic_density":0.364,"complexity":0.583,"dissonance":0.115},{"voice":2,"pitch":48,"start":113.2174,"duration":0.5217,"velocity":127,"measure":55,"beat":2.0,"subject_pos":-1,"motif":"head_inv","motif_pos":1,"best_pos":1,"similarity":1.0,"stretto":false,"stretto_voices":0,"combination":[],"aug_dim":"","rhythm_ratio":1.0,"mirror":false,"chromatic_density":0.364,"complexity":0.583,"dissonance":0.115},{"voice":0,"pitch":75,"start":113.6087,"duration":0.1304,"velocity":127,"measure":55,"beat":2.75,"subject_pos":-1,"motif":"","motif_pos":-1,"best_pos":3,"similarity":0.6,"stretto":false,"stretto_voices":0,"combination":[],"aug_dim":"","rhythm_ratio":1.0,"mirror":false,"chromatic_density":0.364,"complexity":0.583,"dissonance":0.115},{"voice":0,"pitch":74,"start":113.7391,"duration":0.3913,"velocity":127,"measure":55,"beat":3.0,"subject_pos":-1,"motif":"","motif_pos":-1,"best_pos":4,"similarity":0.489,"stretto":false,"stretto_voices":0,"combination":[],"aug_dim":"","rhythm_ratio":1.0,"mirror":false,"chromatic_density":0.364,"complexity":0.583,"dissonance":0.115},{"voice":1,"pitch":65,"start":113.7391,"duration":1.4348,"velocity":127,"measure":55,"beat":3.0,"subject_pos":-1,"motif":"","motif_pos":-1,"best_pos":5,"similarity":0.229,"stretto":false,"stretto_voices":0,"combination":[],"aug_dim":"","rhythm_ratio":1.0,"mirror":false,"chromatic_density":0.364,"complexity":0.583,"dissonance":0.115},{"voice":2,"pitch":50,"start":113.7391,"duration":0.5217,"velocity":127,"measure":55,"beat":3.0,"subject_pos":-1,"motif":"head_inv","motif_pos":2,"best_pos":2,"similarity":1.0,"stretto":false,"stretto_voices":0,"combination":[],"aug_dim":"","rhythm_ratio":1.0,"mirror":false,"chromatic_density":0.364,"complexity":0.583,"dissonance":0.115},{"voice":3,"pitch":46,"start":113.7391,"duration":0.5217,"velocity":127,"measure":55,"beat":3.0,"subject_pos":-1,"motif":"","motif_pos":-1,"best_pos":5,"similarity":0.821,"stretto":false,"stretto_voices":0,"combination":[],"aug_dim":"","rhythm_ratio":1.0,"mirror":false,"chromatic_density":0.364,"complexity":0.583,"dissonance":0.115},{"voice":0,"pitch":72,"start":114.1304,"duration":0.1304,"velocity":127,"measure":55,"beat":3.75,"subject_pos":-1,"motif":"","motif_pos":-1,"best_pos":2,"similarity":0.643,"stretto":false,"stretto_voices":0,"combination":[],"aug_dim":"","rhythm_ratio":1.0,"mirror":false,"chromatic_density":0.364,"complexity":0.583,"dissonance":0.115},{"voice":0,"pitch":70,"start":114.2608,"duration":0.3913,"velocity":127,"measure":55,"beat":4.0,"subject_pos":-1,"motif":"","motif_pos":-1,"best_pos":3,"similarity":0.721,"stretto":false,"stretto_voices":0,"combination":[],"aug_dim":"","rhythm_ratio":1.0,"mirror":false,"chromatic_density":0.364,"complexity":0.583,"dissonance":0.115},{"voice":2,"pitch":51,"start":114.2608,"duration":0.5217,"velocity":127,"measure":55,"beat":4.0,"subject_pos":-1,"motif":"head_inv","motif_pos":3,"best_pos":3,"similarity":1.0,"stretto":false,"stretto_voices":0,"combination":[],"aug_dim":"","rhythm_ratio":1.0,"mirror":false,"chromatic_density":0.364,"complexity":0.583,"dissonance":0.115},{"voice":3,"pitch":48,"start":114.2608,"duration":0.5217,"velocity":127,"measure":55,"beat":4.0,"subject_pos":-1,"motif":"","motif_pos":-1,"best_pos":6,"similarity":0.643,"stretto":false,"stretto_voices":0,"combination":[],"aug_dim":"","rhythm_ratio":1.0,"mirror":false,"chromatic_density":0.364,"complexity":0.583,"dissonance":0.115},{"voice":0,"pitch":69,"start":114.6521,"duration":0.1304,"velocity":127,"measure":55,"beat":4.75,"subject_pos":-1,"motif":"","motif_pos":-1,"best_pos":4,"similarity":0.746,"stretto":false,"stretto_voices":0,"combination":[],"aug_dim":"","rhythm_ratio":1.0,"mirror":false,"chromatic_density":0.364,"complexity":0.583,"dissonance":0.115},{"voice":0,"pitch":70,"start":114.7826,"duration":1.0435,"velocity":127,"measure":56,"beat":1.0,"subject_pos":-1,"motif":"","motif_pos":-1,"best_pos":5,"similarity":0.529,"stretto":false,"stretto_voices":0,"combination":[],"aug_dim":"","rhythm_ratio":1.0,"mirror":false,"chromatic_density":0.3,"complexity":0.545,"dissonance":0.211},{"voice":2,"pitch":53,"start":114.7826,"duration":0.5217,"velocity":127,"measure":56,"beat":1.0,"subject_pos":-1,"motif":"head_inv","motif_pos":4,"best_pos":4,"similarity":1.0,"stretto":false,"stretto_voices":0,"combination":[],"aug_dim":"","rhythm_ratio":1.0,"mirror":false,"chromatic_density":0.3,"complexity":0.545,"dissonance":0.211},{"voice":3,"pitch":50,"start":114.7826,"duration":1.4348,"velocity":127,"measure":56,"beat":1.0,"subject_pos":-1,"motif":"","motif_pos":-1,"best_pos":6,"similarity":0.661,"stretto":false,"stretto_voices":0,"combination":[],"aug_dim":"","rhythm_ratio":1.0,"mirror":false,"chromatic_density":0.3,"complexity":0.545,"dissonance":0.211},{"voice":1,"pitch":68,"start":115.1739,"duration":0.1304,"velocity":127,"measure":56,"beat":1.75,"subject_pos":-1,"motif":"","motif_pos":-1,"best_pos":3,"similarity":0.393,"stretto":false,"stretto_voices":0,"combination":[],"aug_dim":"","rhythm_ratio":1.0,"mirror":false,"chromatic_density":0.3,"complexity":0.545,"dissonance":0.211},{"voice":1,"pitch":67,"start":115.3043,"duration":0.3913,"velocity":127,"measure":56,"beat":2.0,"subject_pos":-1,"motif":"","motif_pos":-1,"best_pos":4,"similarity":0.5,"stretto":false,"stretto_voices":0,"combination":[],"aug_dim":"","rhythm_ratio":1.0,"mirror":false,"chromatic_density":0.3,"complexity":0.545,"dissonance":0.211},{"voice":2,"pitch":58,"start":115.3043,"duration":1.0435,"velocity":127,"measure":56,"beat":2.0,"subject_pos":-1,"motif":"","motif_pos":-1,"best_pos":0,"similarity":0.318,"stretto":false,"stretto_voices":0,"combination":[],"aug_dim":"","rhythm_ratio":1.0,"mirror":false,"chromatic_density":0.3,"complexity":0.545,"dissonance":0.211},{"voice":1,"pitch":65,"start":115.6956,"duration":0.1304,"velocity":127,"measure":56,"beat":2.75,"subject_pos":-1,"motif":"","motif_pos":-1,"best_pos":4,"similarity":0.536,"stretto":false,"stretto_voices":0,"combination":[],"aug_dim":"","rhythm_ratio":1.0,"mirror":false,"chromatic_density":0.3,"complexity":0.545,"dissonance":0.211},{"voice":0,"pitch":75,"start":115.8261,"duration":1.4348,"velocity":127,"measure":56,"beat":3.0,"subject_pos":-1,"motif":"","motif_pos":-1,"best_pos":1,"similarity":0.482,"stretto":false,"stretto_voices":0,"combination":[],"aug_dim":"","rhythm_ratio":1.0,"mirror":false,"chromatic_density":0.3,"complexity":0.545,"dissonance":0.211},{"voice":1,"pitch":67,"start":115.8261,"duration":0.5217,"velocity":127,"measure":56,"beat":3.0,"subject_pos":-1,"motif":"","motif_pos":-1,"best_pos":5,"similarity":0.661,"stretto":false,"stretto_voices":0,"combination":[],"aug_dim":"","rhythm_ratio":1.0,"mirror":false,"chromatic_density":0.3,"complexity":0.545,"dissonance":0.211},{"voice":3,"pitch":51,"start":116.2174,"duration":0.1304,"velocity":127,"measure":56,"beat":3.75,"subject_pos":-1,"motif":"","motif_pos":-1,"best_pos":7,"similarity":0.464,"stretto":false,"stretto_voices":0,"combination":[],"aug_dim":"","rhythm_ratio":1.0,"mirror":false,"chromatic_density":0.3,"complexity":0.545,"dissonance":0.211},{"voice":1,"pitch":69,"start":116.3478,"duration":0.5217,"velocity":127,"measure":56,"beat":4.0,"subject_pos":-1,"motif":"","motif_pos":-1,"best_pos":6,"similarity":0.679,"stretto":false,"stretto_voices":0,"combination":[],"aug_dim":"","rhythm_ratio":1.0,"mirror":false,"chromatic_density":0.3,"complexity":0.545,"dissonance":0.211},{"voice":2,"pitch":63,"start":116.3478,"duration":0.5217,"velocity":127,"measure":56,"beat":4.0,"subject_pos":-1,"motif":"","motif_pos":-1,"best_pos":1,"similarity":0.386,"stretto":false,"stretto_voices":0,"combination":[],"aug_dim":"","rhythm_ratio":1.0,"mirror":false,"chromatic_density":0.3,"complexity":0.545,"dissonance":0.211},{"voice":3,"pitch":50,"start":116.3478,"duration":0.3913,"velocity":127,"measure":56,"beat":4.0,"subject_pos":-1,"motif":"","motif_pos":-1,"best_pos":2,"similarity":0.371,"stretto":false,"stretto_voices":0,"combination":[],"aug_dim":"","rhythm_ratio":1.0,"mirror":false,"chromatic_density":0.3,"complexity":0.545,"dissonance":0.211},{"voice":3,"pitch":48,"start":116.7391,"duration":0.1304,"velocity":127,"measure":56,"beat":4.75,"subject_pos":-1,"motif":"","motif_pos":-1,"best_pos":2,"similarity":0.446,"stretto":false,"stretto_voices":0,"combination":[],"aug_dim":"","rhythm_ratio":1.0,"mirror":false,"chromatic_density":0.3,"complexity":0.545,"dissonance":0.211},{"voice":1,"pitch":70,"start":116.8695,"duration":1.0435,"velocity":127,"measure":57,"beat":1.0,"subject_pos":-1,"motif":"","motif_pos":-1,"best_pos":2,"similarity":0.543,"stretto":false,"stretto_voices":0,"combination":[],"aug_dim":"","rhythm_ratio":1.0,"mirror":false,"chromatic_density":0.417,"complexity":0.672,"dissonance":0.1},{"voice":2,"pitch":65,"start":116.8695,"duration":1.0435,"velocity":127,"measure":57,"beat":1.0,"subject_pos":-1,"motif":"","motif_pos":-1,"best_pos":2,"similarity":0.332,"stretto":false,"stretto_voices":0,"combination":[],"aug_dim":"","rhythm_ratio":1.0,"mirror":false,"chromatic_density":0.417,"complexity":0.672,"dissonance":0.1},{"voice":3,"pitch":46,"start":116.8695,"duration":0.3913,"velocity":127,"measure":57,"beat":1.0,"subject_pos":-1,"motif":"","motif_pos":-1,"best_pos":2,"similarity":0.5,"stretto":false,"stretto_voices":0,"combination":[],"aug_dim":"","rhythm_ratio":1.0,"mirror":false,"chromatic_density":0.417,"complexity":0.672,"dissonance":0.1},{"voice":0,"pitch":74,"start":117.2608,"duration":0.1304,"velocity":127,"measure":57,"beat":1.75,"subject_pos":-1,"motif":"","motif_pos":-1,"best_pos":3,"similarity":0.507,"stretto":false,"stretto_voices":0,"combination":[],"aug_dim":"","rhythm_ratio":1.0,"mirror":false,"chromatic_density":0.417,"complexity":0.672,"dissonance":0.1},{"voice":3,"pitch":58,"start":117.2608,"duration":0.1304,"velocity":127,"measure":57,"beat":1.75,"subject_pos":-1,"motif":"","motif_pos":-1,"best_pos":3,"similarity":0.571,"stretto":false,"stretto_voices":0,"combination":[],"aug_dim":"","rhythm_ratio":1.0,"mirror":false,"chromatic_density":0.417,"complexity":0.672,"dissonance":0.1},{"voice":0,"pitch":73,"start":117.3913,"duration":0.3913,"velocity":127,"measure":57,"beat":2.0,"subject_pos":-1,"motif":"enigmatic_cell","motif_pos":0,"best_pos":0,"similarity":1.0,"stretto":false,"stretto_voices":0,"combination":[],"aug_dim":"","rhythm_ratio":1.0,"mirror":false,"chromatic_density":0.417,"complexity":0.672,"dissonance":0.1},{"voice":3,"pitch":57,"start":117.3913,"duration":0.3913,"velocity":127,"measure":57,"beat":2.0,"subject_pos":-1,"motif":"enigmatic_cell","motif_pos":0,"best_pos":0,"similarity":1.0,"stretto":false,"stretto_voices":0,"combination":[],"aug_dim":"","rhythm_ratio":1.0,"mirror":false,"chromatic_density":0.417,"complexity":0.672,"dissonance":0.1},{"voice":0,"pitch":74,"start":117.7826,"duration":0.1304,"velocity":127,"measure":57,"beat":2.75,"subject_pos":-1,"motif":"enigmatic_cell","motif_pos":1,"best_pos":1,"similarity":1.0,"stretto":false,"stretto_voices":0,"combination":[],"aug_dim":"","rhythm_ratio":1.0,"mirror":false,"chromatic_density":0.417,"complexity":0.672,"dissonance":0.1},{"voice":3,"pitch":58,"start":117.7826,"duration":0.1304,"velocity":127,"measure":57,"beat":2.75,"subject_pos":-1,"motif":"enigmatic_cell","motif_pos":1,"best_pos":1,"similarity":1.0,"stretto":false,"stretto_voices":0,"combination":[],"aug_dim":"","rhythm_ratio":1.0,"mirror":false,"chromatic_density":0.417,"complexity":0.672,"dissonance":0.1},{"voice":0,"pitch":67,"start":117.913,"duration":0.5217,"velocity":127,"measure":57,"beat":3.0,"subject_pos":-1,"motif":"enigmatic_cell","motif_pos":2,"best_pos":2,"similarity":1.0,"stretto":false,"stretto_voices":0,"combination":[],"aug_dim":"","rhythm_ratio":1.0,"mirror":false,"chromatic_density":0.417,"complexity":0.672,"dissonance":0.1},{"voice":3,"pitch":52,"start":117.913,"duration":0.5217,"velocity":127,"measure":57,"beat":3.0,"subject_pos":-1,"motif":"enigmatic_cell","motif_pos":2,"best_pos":2,"similarity":1.0,"stretto":false,"stretto_voices":0,"combination":[],"aug_dim":"","rhythm_ratio":1.0,"mirror":false,"chromatic_density":0.417,"complexity":0.672,"dissonance":0.1},{"voice":2,"pitch":60,"start":118.3043,"duration":0.1304,"velocity":127,"measure":57,"beat":3.75,"subject_pos":-1,"motif":"","motif_pos":-1,"best_pos":2,"similarity":0.45,"stretto":false,"stretto_voices":0,"combination":[],"aug_dim":"","rhythm_ratio":1.0,"mirror":false,"chromatic_density":0.417,"complexity":0.672,"dissonance":0.1},{"voice":0,"pitch":72,"start":118.4348,"duration":1.0435,"velocity":127,"measure":57,"beat":4.0,"subject_pos":-1,"motif":"","motif_pos":-1,"best_pos":1,"similarity":0.607,"stretto":false,"stretto_voices":0,"combination":[],"aug_dim":"","rhythm_ratio":1.0,"mirror":false,"chromatic_density":0.417,"complexity":0.672,"dissonance":0.1},{"voice":2,"pitch":58,"start":118.4348,"duration":0.3913,"velocity":127,"measure":57,"beat":4.0,"subject_pos":-1,"motif":"","motif_pos":-1,"best_pos":3,"similarity":0.521,"stretto":false,"stretto_voices":0,"combination":[],"aug_dim":"","rhythm_ratio":1.0,"mirror":false,"chromatic_density":0.417,"complexity":0.672,"dissonance":0.1},{"voice":3,"pitch":54,"start":118.4348,"duration":0.5217,"velocity":127,"measure":57,"beat":4.0,"subject_pos":-1,"motif":"","motif_pos":-1,"best_pos":6,"similarity":0.589,"stretto":false,"stretto_voices":0,"combination":[],"aug_dim":"","rhythm_ratio":1.0,"mirror":false,"chromatic_density":0.417,"complexity":0.672,"dissonance":0.1},{"voice":2,"pitch":57,"start":118.8261,"duration":0.1304,"velocity":127,"measure":57,"beat":4.75,"subject_pos":-1,"motif":"","motif_pos":-1,"best_pos":4,"similarity":0.429,"stretto":false,"stretto_voices":0,"combination":[],"aug_dim":"","rhythm_ratio":1.0,"mirror":false,"chromatic_density":0.417,"complexity":0.672,"dissonance":0.1},{"voice":2,"pitch":55,"start":118.9565,"duration":0.5217,"velocity":127,"measure":58,"beat":1.0,"subject_pos":-1,"motif":"","motif_pos":-1,"best_pos":2,"similarity":0.429,"stretto":false,"stretto_voices":0,"combination":[],"aug_dim":"","rhythm_ratio":1.0,"mirror":false,"chromatic_density":0.545,"complexity":0.579,"dissonance":0.12},{"voice":3,"pitch":55,"start":118.9565,"duration":1.4348,"velocity":127,"measure":58,"beat":1.0,"subject_pos":-1,"motif":"","motif_pos":-1,"best_pos":7,"similarity":0.429,"stretto":false,"stretto_voices":0,"combination":[],"aug_dim":"","rhythm_ratio":1.0,"mirror":false,"chromatic_density":0.545,"complexity":0.579,"dissonance":0.12},{"voice":1,"pitch":67,"start":119.3478,"duration":0.1304,"velocity":127,"measure":58,"beat":1.75,"subject_pos":-1,"motif":"","motif_pos":-1,"best_pos":3,"similarity":0.736,"stretto":false,"stretto_voices":0,"combination":[],"aug_dim":"","rhythm_ratio":1.0,"mirror":false,"chromatic_density":0.545,"complexity":0.579,"dissonance":0.12},{"voice":0,"pitch":70,"start":119.4782,"duration":0.5217,"velocity":127,"measure":58,"beat":2.0,"subject_pos":-1,"motif":"","motif_pos":-1,"best_pos":2,"similarity":0.536,"stretto":false,"stretto_voices":0,"combination":[],"aug_dim":"","rhythm_ratio":1.0,"mirror":false,"chromatic_density":0.545,"complexity":0.579,"dissonance":0.12},{"voice":1,"pitch":66,"start":119.4782,"duration":0.3913,"velocity":127,"measure":58,"beat":2.0,"subject_pos":-1,"motif":"","motif_pos":-1,"best_pos":4,"similarity":0.793,"stretto":false,"stretto_voices":0,"combination":[],"aug_dim":"","rhythm_ratio":1.0,"mirror":false,"chromatic_density":0.545,"complexity":0.579,"dissonance":0.12},{"voice":2,"pitch":63,"start":119.4782,"duration":0.5217,"velocity":127,"measure":58,"beat":2.0,"subject_pos":-1,"motif":"","motif_pos":-1,"best_pos":1,"similarity":0.479,"stretto":false,"stretto_voices":0,"combination":[],"aug_dim":"","rhythm_ratio":1.0,"mirror":false,"chromatic_density":0.545,"complexity":0.579,"dissonance":0.12},{"voice":1,"pitch":67,"start":119.8695,"duration":0.1304,"velocity":127,"measure":58,"beat":2.75,"subject_pos":-1,"motif":"","motif_pos":-1,"best_pos":5,"similarity":0.643,"stretto":false,"stretto_voices":0,"combination":[],"aug_dim":"","rhythm_ratio":1.0,"mirror":false,"chromatic_density":0.545,"complexity":0.579,"dissonance":0.12},{"voice":0,"pitch":69,"start":120.0,"duration":1.4348,"velocity":127,"measure":58,"beat":3.0,"subject_pos":-1,"motif":"","motif_pos":-1,"best_pos":4,"similarity":0.507,"stretto":false,"stretto_voices":0,"combination":[],"aug_dim":"","rhythm_ratio":1.0,"mirror":false,"chromatic_density":0.545,"complexity":0.579,"dissonance":0.12},{"voice":1,"pitch":64,"start":120.0,"duration":0.5217,"velocity":127,"measure":58,"beat":3.0,"subject_pos":-1,"motif":"","motif_pos":-1,"best_pos":6,"similarity":0.5,"stretto":false,"stretto_voices":0,"combination":[],"aug_dim":"","rhythm_ratio":1.0,"mirror":false,"chromatic_density":0.545,"complexity":0.579,"dissonance":0.12},{"voice":2,"pitch":61,"start":120.0,"duration":0.5217,"velocity":127,"measure":58,"beat":3.0,"subject_pos":-1,"motif":"","motif_pos":-1,"best_pos":4,"similarity":0.554,"stretto":false,"stretto_voices":0,"combination":[],"aug_dim":"","rhythm_ratio":1.0,"mirror":false,"chromatic_density":0.545,"complexity":0.579,"dissonance":0.12},{"voice":3,"pitch":53,"start":120.3913,"duration":0.1304,"velocity":127,"measure":58,"beat":3.75,"subject_pos":-1,"motif":"","motif_pos":-1,"best_pos":3,"similarity":0.464,"stretto":false,"stretto_voices":0,"combination":[],"aug_dim":"","rhythm_ratio":1.0,"mirror":false,"chromatic_density":0.545,"complexity":0.579,"dissonance":0.12},{"voice":1,"pitch":65,"start":120.5217,"duration":0.913,"velocity":127,"measure":58,"beat":4.0,"subject_pos":-1,"motif":"","motif_pos":-1,"best_pos":2,"similarity":0.529,"stretto":false,"stretto_voices":0,"combination":[],"aug_dim":"","rhythm_ratio":1.0,"mirror":false,"chromatic_density":0.545,"complexity":0.579,"dissonance":0.12},{"voice":2,"pitch":62,"start":120.5217,"duration":0.7826,"velocity":127,"measure":58,"beat":4.0,"subject_pos":-1,"motif":"","motif_pos":-1,"best_pos":5,"similarity":0.464,"stretto":false,"stretto_voices":0,"combination":[],"aug_dim":"","rhythm_ratio":1.0,"mirror":false,"chromatic_density":0.545,"complexity":0.579,"dissonance":0.12},{"voice":3,"pitch":52,"start":120.5217,"duration":0.3913,"velocity":127,"measure":58,"beat":4.0,"subject_pos":-1,"motif":"","motif_pos":-1,"best_pos":4,"similarity":0.411,"stretto":false,"stretto_voices":0,"combination":[],"aug_dim":"","rhythm_ratio":1.0,"mirror":false,"chromatic_density":0.545,"complexity":0.579,"dissonance":0.12},{"voice":3,"pitch":50,"start":120.913,"duration":0.1304,"velocity":127,"measure":58,"beat":4.75,"subject_pos":-1,"motif":"","motif_pos":-1,"best_pos":2,"similarity":0.429,"stretto":false,"stretto_voices":0,"combination":[],"aug_dim":"","rhythm_ratio":1.0,"mirror":false,"chromatic_density":0.545,"complexity":0.579,"dissonance":0.12},{"voice":3,"pitch":58,"start":121.0434,"duration":2.087,"velocity":127,"measure":59,"beat":1.0,"subject_pos":-1,"motif":"","motif_pos":-1,"best_pos":3,"similarity":0.429,"stretto":false,"stretto_voices":0,"combination":[],"aug_dim":"","rhythm_ratio":1.0,"mirror":false,"chromatic_density":0.556,"complexity":0.427,"dissonance":0.114},{"voice":0,"pitch":77,"start":121.4348,"duration":0.1304,"velocity":127,"measure":59,"beat":1.75,"subject_pos":-1,"motif":"","motif_pos":-1,"best_pos":5,"similarity":0.479,"stretto":false,"stretto_voices":0,"combination":[],"aug_dim":"","rhythm_ratio":1.0,"mirror":false,"chromatic_density":0.556,"complexity":0.427,"dissonance":0.114},{"voice":1,"pitch":62,"start":121.4348,"duration":0.1304,"velocity":127,"measure":59,"beat":1.75,"subject_pos":-1,"motif":"","motif_pos":-1,"best_pos":3,"similarity":0.736,"stretto":false,"stretto_voices":0,"combination":[],"aug_dim":"","rhythm_ratio":1.0,"mirror":false,"chromatic_density":0.556,"complexity":0.427,"dissonance":0.114},{"voice":0,"pitch":79,"start":121.5652,"duration":0.3913,"velocity":127,"measure":59,"beat":2.0,"subject_pos":-1,"motif":"","motif_pos":-1,"best_pos":2,"similarity":0.393,"stretto":false,"stretto_voices":0,"combination":[],"aug_dim":"","rhythm_ratio":1.0,"mirror":false,"chromatic_density":0.556,"complexity":0.427,"dissonance":0.114},{"voice":1,"pitch":61,"start":121.5652,"duration":0.3913,"velocity":127,"measure":59,"beat":2.0,"subject_pos":-1,"motif":"","motif_pos":-1,"best_pos":4,"similarity":0.743,"stretto":false,"stretto_voices":0,"combination":[],"aug_dim":"","rhythm_ratio":1.0,"mirror":false,"chromatic_density":0.556,"complexity":0.427,"dissonance":0.114},{"voice":0,"pitch":77,"start":121.9565,"duration":0.1304,"velocity":127,"measure":59,"beat":2.75,"subject_pos":-1,"motif":"","motif_pos":-1,"best_pos":3,"similarity":0.5,"stretto":false,"stretto_voices":0,"combination":[],"aug_dim":"","rhythm_ratio":1.0,"mirror":false,"chromatic_density":0.556,"complexity":0.427,"dissonance":0.114},{"voice":1,"pitch":62,"start":121.9565,"duration":0.1304,"velocity":127,"measure":59,"beat":2.75,"subject_pos":-1,"motif":"","motif_pos":-1,"best_pos":5,"similarity":0.543,"stretto":false,"stretto_voices":0,"combination":[],"aug_dim":"","rhythm_ratio":1.0,"mirror":false,"chromatic_density":0.556,"complexity":0.427,"dissonance":0.114},{"voice":0,"pitch":76,"start":122.0869,"duration":0.3913,"velocity":127,"measure":59,"beat":3.0,"subject_pos":-1,"motif":"","motif_pos":-1,"best_pos":2,"similarity":0.5,"stretto":false,"stretto_voices":0,"combination":[],"aug_dim":"","rhythm_ratio":1.0,"mirror":false,"chromatic_density":0.556,"complexity":0.427,"dissonance":0.114},{"voice":1,"pitch":67,"start":122.0869,"duration":1.5652,"velocity":127,"measure":59,"beat":3.0,"subject_pos":-1,"motif":"","motif_pos":-1,"best_pos":1,"similarity":0.607,"stretto":false,"stretto_voices":0,"combination":[],"aug_dim":"","rhythm_ratio":1.0,"mirror":false,"chromatic_density":0.556,"complexity":0.427,"dissonance":0.114},{"voice":0,"pitch":74,"start":122.4782,"duration":0.1304,"velocity":127,"measure":59,"beat":3.75,"subject_pos":-1,"motif":"","motif_pos":-1,"best_pos":3,"similarity":0.65,"stretto":false,"stretto_voices":0,"combination":[],"aug_dim":"","rhythm_ratio":1.0,"mirror":false,"chromatic_density":0.556,"complexity":0.427,"dissonance":0.114},{"voice":0,"pitch":73,"start":122.6087,"duration":0.3913,"velocity":127,"measure":59,"beat":4.0,"subject_pos":-1,"motif":"","motif_pos":-1,"best_pos":4,"similarity":0.693,"stretto":false,"stretto_voices":0,"combination":[],"aug_dim":"","rhythm_ratio":1.0,"mirror":false,"chromatic_density":0.556,"complexity":0.427,"dissonance":0.114},{"voice":0,"pitch":74,"start":123.0,"duration":0.1304,"velocity":127,"measure":59,"beat":4.75,"subject_pos":-1,"motif":"","motif_pos":-1,"best_pos":5,"similarity":0.493,"stretto":false,"stretto_voices":0,"combination":[],"aug_dim":"","rhythm_ratio":1.0,"mirror":false,"chromatic_density":0.556,"complexity":0.427,"dissonance":0.114},{"voice":0,"pitch":73,"start":123.1304,"duration":0.3913,"velocity":127,"measure":60,"beat":1.0,"subject_pos":-1,"motif":"","motif_pos":-1,"best_pos":4,"similarity":0.425,"stretto":false,"stretto_voices":0,"combination":[],"aug_dim":"","rhythm_ratio":1.0,"mirror":false,"chromatic_density":0.6,"complexity":0.577,"dissonance":0.1},{"voice":3,"pitch":57,"start":123.1304,"duration":0.5217,"velocity":127,"measure":60,"beat":1.0,"subject_pos":-1,"motif":"","motif_pos":-1,"best_pos":4,"similarity":0.357,"stretto":false,"stretto_voices":0,"combination":[],"aug_dim":"","rhythm_ratio":1.0,"mirror":false,"chromatic_density":0.6,"complexity":0.577,"dissonance":0.1},{"voice":0,"pitch":81,"start":123.5217,"duration":0.1304,"velocity":127,"measure":60,"beat":1.75,"subject_pos":-1,"motif":"","motif_pos":-1,"best_pos":4,"similarity":0.35,"stretto":false,"stretto_voices":0,"combination":[],"aug_dim":"","rhythm_ratio":1.0,"mirror":false,"chromatic_density":0.6,"complexity":0.577,"dissonance":0.1},{"voice":0,"pitch":82,"start":123.6521,"duration":0.3913,"velocity":127,"measure":60,"beat":2.0,"subject_pos":-1,"motif":"","motif_pos":-1,"best_pos":5,"similarity":0.346,"stretto":false,"stretto_voices":0,"combination":[],"aug_dim":"","rhythm_ratio":1.0,"mirror":false,"chromatic_density":0.6,"complexity":0.577,"dissonance":0.1},{"voice":1,"pitch":65,"start":123.6521,"duration":0.5217,"velocity":127,"measure":60,"beat":2.0,"subject_pos":-1,"motif":"enigmatic_cell","motif_pos":0,"best_pos":0,"similarity":1.0,"stretto":false,"stretto_voices":0,"combination":[],"aug_dim":"","rhythm_ratio":1.0,"mirror":false,"chromatic_density":0.6,"complexity":0.577,"dissonance":0.1},{"voice":2,"pitch":62,"start":123.6521,"duration":1.0435,"velocity":127,"measure":60,"beat":2.0,"subject_pos":-1,"motif":"","motif_pos":-1,"best_pos":3,"similarity":0.543,"stretto":false,"stretto_voices":0,"combination":[],"aug_dim":"","rhythm_ratio":1.0,"mirror":false,"chromatic_density":0.6,"complexity":0.577,"dissonance":0.1},{"voice":0,"pitch":81,"start":124.0434,"duration":0.1304,"velocity":127,"measure":60,"beat":2.75,"subject_pos":-1,"motif":"","motif_pos":-1,"best_pos":1,"similarity":0.429,"stretto":false,"stretto_voices":0,"combination":[],"aug_dim":"","rhythm_ratio":1.0,"mirror":false,"chromatic_density":0.6,"complexity":0.577,"dissonance":0.1},{"voice":0,"pitch":79,"start":124.1739,"duration":0.3913,"velocity":127,"measure":60,"beat":3.0,"subject_pos":-1,"motif":"","motif_pos":-1,"best_pos":2,"similarity":0.643,"stretto":false,"stretto_voices":0,"combination":[],"aug_dim":"","rhythm_ratio":1.0,"mirror":false,"chromatic_density":0.6,"complexity":0.577,"dissonance":0.1},{"voice":1,"pitch":64,"start":124.1739,"duration":0.5217,"velocity":127,"measure":60,"beat":3.0,"subject_pos":-1,"motif":"enigmatic_cell","motif_pos":1,"best_pos":1,"similarity":1.0,"stretto":false,"stretto_voices":0,"combination":[],"aug_dim":"","rhythm_ratio":1.0,"mirror":false,"chromatic_density":0.6,"complexity":0.577,"dissonance":0.1},{"voice":0,"pitch":77,"start":124.5652,"duration":0.1304,"velocity":127,"measure":60,"beat":3.75,"subject_pos":-1,"motif":"","motif_pos":-1,"best_pos":3,"similarity":0.786,"stretto":false,"stretto_voices":0,"combination":[],"aug_dim":"","rhythm_ratio":1.0,"mirror":false,"chromatic_density":0.6,"complexity":0.577,"dissonance":0.1},{"voice":0,"pitch":76,"start":124.6956,"duration":0.3913,"velocity":127,"measure":60,"beat":4.0,"subject_pos":-1,"motif":"","motif_pos":-1,"best_pos":4,"similarity":0.864,"stretto":false,"stretto_voices":0,"combination":[],"aug_dim":"","rhythm_ratio":1.0,"mirror":false,"chromatic_density":0.6,"complexity":0.577,"dissonance":0.1},{"voice":1,"pitch":69,"start":124.6956,"duration":1.0435,"velocity":127,"measure":60,"beat":4.0,"subject_pos":-1,"motif":"enigmatic_cell","motif_pos":2,"best_pos":2,"similarity":1.0,"stretto":false,"stretto_voices":0,"combination":[],"aug_dim":"","rhythm_ratio":1.0,"mirror":false,"chromatic_density":0.6,"complexity":0.577,"dissonance":0.1},{"voice":2,"pitch":61,"start":124.6956,"duration":0.5217,"velocity":127,"measure":60,"beat":4.0,"subject_pos":-1,"motif":"","motif_pos":-1,"best_pos":4,"similarity":0.736,"stretto":false,"stretto_voices":0,"combination":[],"aug_dim":"","rhythm_ratio":1.0,"mirror":false,"chromatic_density":0.6,"complexity":0.577,"dissonance":0.1},{"voice":0,"pitch":77,"start":125.0869,"duration":0.1304,"velocity":127,"measure":60,"beat":4.75,"subject_pos":-1,"motif":"","motif_pos":-1,"best_pos":5,"similarity":0.764,"stretto":false,"stretto_voices":0,"combination":[],"aug_dim":"","rhythm_ratio":1.0,"mirror":false,"chromatic_density":0.6,"complexity":0.577,"dissonance":0.1},{"voice":0,"pitch":79,"start":125.2174,"duration":0.3913,"velocity":127,"measure":61,"beat":1.0,"subject_pos":-1,"motif":"","motif_pos":-1,"best_pos":6,"similarity":0.529,"stretto":false,"stretto_voices":0,"combination":[],"aug_dim":"","rhythm_ratio":1.0,"mirror":false,"chromatic_density":0.25,"complexity":0.489,"dissonance":0.062},{"voice":2,"pitch":62,"start":125.2174,"duration":1.0435,"velocity":127,"measure":61,"beat":1.0,"subject_pos":-1,"motif":"","motif_pos":-1,"best_pos":5,"similarity":0.721,"stretto":false,"stretto_voices":0,"combination":[],"aug_dim":"","rhythm_ratio":1.0,"mirror":false,"chromatic_density":0.25,"complexity":0.489,"dissonance":0.062},{"voice":3,"pitch":50,"start":125.2174,"duration":1.0435,"velocity":127,"measure":61,"beat":1.0,"subject_pos":0,"motif":"subject","motif_pos":0,"best_pos":0,"similarity":1.0,"stretto":false,"stretto_voices":0,"combination":[],"aug_dim":"","rhythm_ratio":1.0,"mirror":false,"chromatic_density":0.25,"complexity":0.489,"dissonance":0.062},{"voice":0,"pitch":77,"start":125.6087,"duration":0.1304,"velocity":127,"measure":61,"beat":1.75,"subject_pos":-1,"motif":"","motif_pos":-1,"best_pos":3,"similarity":0.536,"stretto":false,"stretto_voices":0,"combination":[],"aug_dim":"","rhythm_ratio":1.0,"mirror":false,"chromatic_density":0.25,"complexity":0.489,"dissonance":0.062},{"voice":0,"pitch":76,"start":125.7391,"duration":0.3913,"velocity":127,"measure":61,"beat":2.0,"subject_pos":-1,"motif":"","motif_pos":-1,"best_pos":4,"similarity":0.543,"stretto":false,"stretto_voices":0,"combination":[],"aug_dim":"","rhythm_ratio":1.0,"mirror":false,"chromatic_density":0.25,"complexity":0.489,"dissonance":0.062},{"voice":0,"pitch":74,"start":126.1304,"duration":0.5217,"velocity":127,"measure":61,"beat":2.75,"subject_pos":-1,"motif":"","motif_pos":-1,"best_pos":5,"similarity":0.507,"stretto":false,"stretto_voices":0,"combination":[],"aug_dim":"","rhythm_ratio":1.0,"mirror":false,"chromatic_density":0.25,"complexity":0.489,"dissonance":0.062},{"voice":2,"pitch":64,"start":126.2608,"duration":1.0435,"velocity":127,"measure":61,"beat":3.0,"subject_pos":-1,"motif":"head_inv","motif_pos":0,"best_pos":0,"similarity":1.0,"stretto":false,"stretto_voices":0,"combination":[],"aug_dim":"","rhythm_ratio":1.0,"mirror":false,"chromatic_density":0.25,"complexity":0.489,"dissonance":0.062},{"voice":3,"pitch":57,"start":126.2608,"duration":1.0435,"velocity":127,"measure":61,"beat":3.0,"subject_pos":1,"motif":"subject","motif_pos":1,"best_pos":1,"similarity":1.0,"stretto":false,"stretto_voices":0,"combination":[],"aug_dim":"","rhythm_ratio":1.0,"mirror":false,"chromatic_density":0.25,"complexity":0.489,"dissonance":0.062},{"voice":0,"pitch":76,"start":126.6521,"duration":0.1304,"velocity":127,"measure":61,"beat":3.75,"subject_pos":-1,"motif":"","motif_pos":-1,"best_pos":6,"similarity":0.4,"stretto":false,"stretto_voices":0,"combination":[],"aug_dim":"","rhythm_ratio":1.0,"mirror":false,"chromatic_density":0.25,"complexity":0.489,"dissonance":0.062},{"voice":0,"pitch":74,"start":126.7826,"duration":0.3913,"velocity":127,"measure":61,"beat":4.0,"subject_pos":-1,"motif":"","motif_pos":-1,"best_pos":3,"similarity":0.586,"stretto":false,"stretto_voices":0,"combination":[],"aug_dim":"","rhythm_ratio":1.0,"mirror":false,"chromatic_density":0.25,"complexity":0.489,"dissonance":0.062},{"voice":0,"pitch":73,"start":127.1739,"duration":0.1304,"velocity":127,"measure":61,"beat":4.75,"subject_pos":-1,"motif":"","motif_pos":-1,"best_pos":4,"similarity":0.686,"stretto":false,"stretto_voices":0,"combination":[],"aug_dim":"","rhythm_ratio":1.0,"mirror":false,"chromatic_density":0.25,"complexity":0.489,"dissonance":0.062},{"voice":0,"pitch":74,"start":127.3043,"duration":0.5217,"velocity":127,"measure":62,"beat":1.0,"subject_pos":-1,"motif":"","motif_pos":-1,"best_pos":5,"similarity":0.536,"stretto":false,"stretto_voices":0,"combination":[],"aug_dim":"","rhythm_ratio":1.0,"mirror":false,"chromatic_density":0.2,"complexity":0.655,"dissonance":0.153},{"voice":2,"pitch":57,"start":127.3043,"duration":0.5217,"velocity":127,"measure":62,"beat":1.0,"subject_pos":-1,"motif":"head_inv","motif_pos":1,"best_pos":1,"similarity":1.0,"stretto":false,"stretto_voices":0,"combination":[],"aug_dim":"","rhythm_ratio":1.0,"mirror":false,"chromatic_density":0.2,"complexity":0.655,"dissonance":0.153},{"voice":3,"pitch":53,"start":127.3043,"duration":1.0435,"velocity":127,"measure":62,"beat":1.0,"subject_pos":2,"motif":"subject","motif_pos":2,"best_pos":2,"similarity":1.0,"stretto":false,"stretto_voices":0,"combination":[],"aug_dim":"","rhythm_ratio":1.0,"mirror":false,"chromatic_density":0.2,"complexity":0.655,"dissonance":0.153},{"voice":1,"pitch":70,"start":127.6956,"duration":0.1304,"velocity":127,"measure":62,"beat":1.75,"subject_pos":-1,"motif":"","motif_pos":-1,"best_pos":3,"similarity":0.4,"stretto":false,"stretto_voices":0,"combination":[],"aug_dim":"","rhythm_ratio":1.0,"mirror":false,"chromatic_density":0.2,"complexity":0.655,"dissonance":0.153},{"voice":1,"pitch":69,"start":127.8261,"duration":0.3913,"velocity":127,"measure":62,"beat":2.0,"subject_pos":-1,"motif":"","motif_pos":-1,"best_pos":4,"similarity":0.479,"stretto":false,"stretto_voices":0,"combination":[],"aug_dim":"","rhythm_ratio":1.0,"mirror":false,"chromatic_density":0.2,"complexity":0.655,"dissonance":0.153},{"voice":2,"pitch":59,"start":127.8261,"duration":0.3913,"velocity":127,"measure":62,"beat":2.0,"subject_pos":-1,"motif":"head_inv","motif_pos":2,"best_pos":2,"similarity":1.0,"stretto":false,"stretto_voices":0,"combination":[],"aug_dim":"","rhythm_ratio":1.0,"mirror":false,"chromatic_density":0.2,"complexity":0.655,"dissonance":0.153},{"voice":1,"pitch":67,"start":128.2174,"duration":0.5217,"velocity":127,"measure":62,"beat":2.75,"subject_pos":-1,"motif":"","motif_pos":-1,"best_pos":5,"similarity":0.479,"stretto":false,"stretto_voices":0,"combination":[],"aug_dim":"","rhythm_ratio":1.0,"mirror":false,"chromatic_density":0.2,"complexity":0.655,"dissonance":0.153},{"voice":2,"pitch":61,"start":128.2174,"duration":0.1304,"velocity":127,"measure":62,"beat":2.75,"subject_pos":-1,"motif":"head_inv","motif_pos":3,"best_pos":3,"similarity":1.0,"stretto":false,"stretto_voices":0,"combination":[],"aug_dim":"","rhythm_ratio":1.0,"mirror":false,"chromatic_density":0.2,"complexity":0.655,"dissonance":0.153},{"voice":2,"pitch":62,"start":128.3478,"duration":0.5217,"velocity":127,"measure":62,"beat":3.0,"subject_pos":-1,"motif":"head_inv","motif_pos":4,"best_pos":4,"similarity":1.0,"stretto":false,"stretto_voices":0,"combination":[],"aug_dim":"","rhythm_ratio":1.0,"mirror":false,"chromatic_density":0.2,"complexity":0.655,"dissonance":0.153},{"voice":3,"pitch":50,"start":128.3478,"duration":1.0435,"velocity":127,"measure":62,"beat":3.0,"subject_pos":3,"motif":"subject","motif_pos":3,"best_pos":3,"similarity":1.0,"stretto":false,"stretto_voices":0,"combination":[],"aug_dim":"","rhythm_ratio":1.0,"mirror":false,"chromatic_density":0.2,"complexity":0.655,"dissonance":0.153},{"voice":1,"pitch":69,"start":128.7391,"duration":0.1304,"velocity":127,"measure":62,"beat":3.75,"subject_pos":-1,"motif":"","motif_pos":-1,"best_pos":1,"similarity":0.457,"stretto":false,"stretto_voices":0,"combination":[],"aug_dim":"","rhythm_ratio":1.0,"mirror":false,"chromatic_density":0.2,"complexity":0.655,"dissonance":0.153},{"voice":0,"pitch":70,"start":128.8695,"duration":0.913,"velocity":127,"measure":62,"beat":4.0,"subject_pos":-1,"motif":"","motif_pos":-1,"best_pos":2,"similarity":0.479,"stretto":false,"stretto_voices":0,"combination":[],"aug_dim":"","rhythm_ratio":1.0,"mirror":false,"chromatic_density":0.2,"complexity":0.655,"dissonance":0.153},{"voice":1,"pitch":67,"start":128.8695,"duration":0.3913,"velocity":127,"measure":62,"beat":4.0,"subject_pos":-1,"motif":"","motif_pos":-1,"best_pos":2,"similarity":0.586,"stretto":false,"stretto_voices":0,"combination":[],"aug_dim":"","rhythm_ratio":1.0,"mirror":false,"chromatic_density":0.2,"complexity":0.655,"dissonance":0.153},{"voice":1,"pitch":65,"start":129.2608,"duration":0.1304,"velocity":127,"measure":62,"beat":4.75,"subject_pos":-1,"motif":"","motif_pos":-1,"best_pos":3,"similarity":0.614,"stretto":false,"stretto_voices":0,"combination":[],"aug_dim":"","rhythm_ratio":1.0,"mirror":false,"chromatic_density":0.2,"complexity":0.655,"dissonance":0.153},{"voice":1,"pitch":64,"start":129.3913,"duration":0.5217,"velocity":127,"measure":63,"beat":1.0,"subject_pos":-1,"motif":"","motif_pos":-1,"best_pos":4,"similarity":0.518,"stretto":false,"stretto_voices":0,"combination":[],"aug_dim":"","rhythm_ratio":1.0,"mirror":false,"chromatic_density":0.5,"complexity":0.561,"dissonance":0.182},{"voice":3,"pitch":49,"start":129.3913,"duration":1.0435,"velocity":127,"measure":63,"beat":1.0,"subject_pos":4,"motif":"subject","motif_pos":4,"best_pos":4,"similarity":1.0,"stretto":false,"stretto_voices":0,"combination":[],"aug_dim":"","rhythm_ratio":1.0,"mirror":false,"chromatic_density":0.5,"complexity":0.561,"dissonance":0.182},{"voice":0,"pitch":70,"start":129.7826,"duration":0.1304,"velocity":127,"measure":63,"beat":1.75,"subject_pos":-1,"motif":"","motif_pos":-1,"best_pos":3,"similarity":0.486,"stretto":false,"stretto_voices":0,"combination":[],"aug_dim":"","rhythm_ratio":1.0,"mirror":false,"chromatic_density":0.5,"complexity":0.561,"dissonance":0.182},{"voice":0,"pitch":69,"start":129.913,"duration":0.3913,"velocity":127,"measure":63,"beat":2.0,"subject_pos":-1,"motif":"","motif_pos":-1,"best_pos":4,"similarity":0.432,"stretto":false,"stretto_voices":0,"combination":[],"aug_dim":"","rhythm_ratio":1.0,"mirror":false,"chromatic_density":0.5,"complexity":0.561,"dissonance":0.182},{"voice":1,"pitch":57,"start":129.913,"duration":0.5217,"velocity":127,"measure":63,"beat":2.0,"subject_pos":-1,"motif":"","motif_pos":-1,"best_pos":4,"similarity":0.407,"stretto":false,"stretto_voices":0,"combination":[],"aug_dim":"","rhythm_ratio":1.0,"mirror":false,"chromatic_density":0.5,"complexity":0.561,"dissonance":0.182},{"voice":2,"pitch":52,"start":129.913,"duration":0.5217,"velocity":127,"measure":63,"beat":2.0,"subject_pos":-1,"motif":"","motif_pos":-1,"best_pos":4,"similarity":0.486,"stretto":false,"stretto_voices":0,"combination":[],"aug_dim":"","rhythm_ratio":1.0,"mirror":false,"chromatic_density":0.5,"complexity":0.561,"dissonance":0.182},{"voice":0,"pitch":67,"start":130.3043,"duration":0.1304,"velocity":127,"measure":63,"beat":2.75,"subject_pos":-1,"motif":"","motif_pos":-1,"best_pos":2,"similarity":0.579,"stretto":false,"stretto_voices":0,"combination":[],"aug_dim":"","rhythm_ratio":1.0,"mirror":false,"chromatic_density":0.5,"complexity":0.561,"dissonance":0.182},{"voice":0,"pitch":65,"start":130.4348,"duration":0.3913,"velocity":127,"measure":63,"beat":3.0,"subject_pos":-1,"motif":"","motif_pos":-1,"best_pos":3,"similarity":0.593,"stretto":false,"stretto_voices":0,"combination":[],"aug_dim":"","rhythm_ratio":1.0,"mirror":false,"chromatic_density":0.5,"complexity":0.561,"dissonance":0.182},{"voice":1,"pitch":58,"start":130.4348,"duration":1.0435,"velocity":127,"measure":63,"beat":3.0,"subject_pos":-1,"motif":"","motif_pos":-1,"best_pos":3,"similarity":0.4,"stretto":false,"stretto_voices":0,"combination":[],"aug_dim":"","rhythm_ratio":1.0,"mirror":false,"chromatic_density":0.5,"complexity":0.561,"dissonance":0.182},{"voice":2,"pitch":53,"start":130.4348,"duration":0.5217,"velocity":127,"measure":63,"beat":3.0,"subject_pos":-1,"motif":"","motif_pos":-1,"best_pos":5,"similarity":0.65,"stretto":false,"stretto_voices":0,"combination":[],"aug_dim":"","rhythm_ratio":1.0,"mirror":false,"chromatic_density":0.5,"complexity":0.561,"dissonance":0.182},{"voice":3,"pitch":50,"start":130.4348,"duration":0.5217,"velocity":127,"measure":63,"beat":3.0,"subject_pos":5,"motif":"subject","motif_pos":5,"best_pos":5,"similarity":1.0,"stretto":false,"stretto_voices":0,"combination":[],"aug_dim":"","rhythm_ratio":1.0,"mirror":false,"chromatic_density":0.5,"complexity":0.561,"dissonance":0.182},{"voice":0,"pitch":64,"start":130.8261,"duration":0.1304,"velocity":127,"measure":63,"beat":3.75,"subject_pos":-1,"motif":"","motif_pos":-1,"best_pos":4,"similarity":0.543,"stretto":false,"stretto_voices":0,"combination":[],"aug_dim":"","rhythm_ratio":1.0,"mirror":false,"chromatic_density":0.5,"complexity":0.561,"dissonance":0.182},{"voice":0,"pitch":62,"start":130.9565,"duration":0.3913,"velocity":127,"measure":63,"beat":4.0,"subject_pos":-1,"motif":"","motif_pos":-1,"best_pos":3,"similarity":0.643,"stretto":false,"stretto_voices":0,"combination":[],"aug_dim":"","rhythm_ratio":1.0,"mirror":false,"chromatic_density":0.5,"complexity":0.561,"dissonance":0.182},{"voice":2,"pitch":55,"start":130.9565,"duration":0.5217,"velocity":127,"measure":63,"beat":4.0,"subject_pos":-1,"motif":"","motif_pos":-1,"best_pos":6,"similarity":0.571,"stretto":false,"stretto_voices":0,"combination":[],"aug_dim":"","rhythm_ratio":1.0,"mirror":false,"chromatic_density":0.5,"complexity":0.561,"dissonance":0.182},{"voice":3,"pitch":52,"start":130.9565,"duration":0.5217,"velocity":127,"measure":63,"beat":4.0,"subject_pos":6,"motif":"subject","motif_pos":6,"best_pos":6,"similarity":1.0,"stretto":false,"stretto_voices":0,"combination":[],"aug_dim":"","rhythm_ratio":1.0,"mirror":false,"chromatic_density":0.5,"complexity":0.561,"dissonance":0.182},{"voice":0,"pitch":61,"start":131.3478,"duration":0.1304,"velocity":127,"measure":63,"beat":4.75,"subject_pos":-1,"motif":"","motif_pos":-1,"best_pos":4,"similarity":0.714,"stretto":false,"stretto_voices":0,"combination":[],"aug_dim":"","rhythm_ratio":1.0,"mirror":false,"chromatic_density":0.5,"complexity":0.561,"dissonance":0.182},{"voice":0,"pitch":62,"start":131.4782,"duration":0.3913,"velocity":127,"measure":64,"beat":1.0,"subject_pos":-1,"motif":"","motif_pos":-1,"best_pos":5,"similarity":0.536,"stretto":false,"stretto_voices":0,"combination":[],"aug_dim":"","rhythm_ratio":1.0,"mirror":false,"chromatic_density":0.2,"complexity":0.57,"dissonance":0.086},{"voice":1,"pitch":57,"start":131.4782,"duration":0.5217,"velocity":127,"measure":64,"beat":1.0,"subject_pos":-1,"motif":"","motif_pos":-1,"best_pos":4,"similarity":0.486,"stretto":false,"stretto_voices":0,"combination":[],"aug_dim":"","rhythm_ratio":1.0,"mirror":false,"chromatic_density":0.2,"complexity":0.57,"dissonance":0.086},{"voice":2,"pitch":57,"start":131.4782,"duration":1.0435,"velocity":127,"measure":64,"beat":1.0,"subject_pos":-1,"motif":"","motif_pos":-1,"best_pos":6,"similarity":0.518,"stretto":false,"stretto_voices":0,"combination":[],"aug_dim":"","rhythm_ratio":1.0,"mirror":false,"chromatic_density":0.2,"complexity":0.57,"dissonance":0.086},{"voice":3,"pitch":53,"start":131.4782,"duration":1.4348,"velocity":127,"measure":64,"beat":1.0,"subject_pos":7,"motif":"subject","motif_pos":7,"best_pos":7,"similarity":1.0,"stretto":false,"stretto_voices":0,"combination":[],"aug_dim":"","rhythm_ratio":1.0,"mirror":false,"chromatic_density":0.2,"complexity":0.57,"dissonance":0.086},{"voice":0,"pitch":74,"start":131.8695,"duration":0.1304,"velocity":127,"measure":64,"beat":1.75,"subject_pos":-1,"motif":"","motif_pos":-1,"best_pos":5,"similarity":0.482,"stretto":false,"stretto_voices":0,"combination":[],"aug_dim":"","rhythm_ratio":1.0,"mirror":false,"chromatic_density":0.2,"complexity":0.57,"dissonance":0.086},{"voice":0,"pitch":76,"start":132.0,"duration":0.3913,"velocity":127,"measure":64,"beat":2.0,"subject_pos":-1,"motif":"","motif_pos":-1,"best_pos":6,"similarity":0.589,"stretto":false,"stretto_voices":0,"combination":[],"aug_dim":"","rhythm_ratio":1.0,"mirror":false,"chromatic_density":0.2,"complexity":0.57,"dissonance":0.086},{"voice":1,"pitch":69,"start":132.0,"duration":0.5217,"velocity":127,"measure":64,"beat":2.0,"subject_pos":-1,"motif":"","motif_pos":-1,"best_pos":5,"similarity":0.507,"stretto":false,"stretto_voices":0,"combination":[],"aug_dim":"","rhythm_ratio":1.0,"mirror":false,"chromatic_density":0.2,"complexity":0.57,"dissonance":0.086},{"voice":0,"pitch":77,"start":132.3913,"duration":0.1304,"velocity":127,"measure":64,"beat":2.75,"subject_pos":-1,"motif":"","motif_pos":-1,"best_pos":5,"similarity":0.6,"stretto":false,"stretto_voices":0,"combination":[],"aug_dim":"","rhythm_ratio":1.0,"mirror":false,"chromatic_density":0.2,"complexity":0.57,"dissonance":0.086},{"voice":0,"pitch":79,"start":132.5217,"duration":1.5652,"velocity":127,"measure":64,"beat":3.0,"subject_pos":-1,"motif":"","motif_pos":-1,"best_pos":6,"similarity":0.464,"stretto":false,"stretto_voices":0,"combination":[],"aug_dim":"","rhythm_ratio":1.0,"mirror":false,"chromatic_density":0.2,"complexity":0.57,"dissonance":0.086},{"voice":1,"pitch":71,"start":132.5217,"duration":0.5217,"velocity":127,"measure":64,"beat":3.0,"subject_pos":-1,"motif":"","motif_pos":-1,"best_pos":5,"similarity":0.589,"stretto":false,"stretto_voices":0,"combination":[],"aug_dim":"","rhythm_ratio":1.0,"mirror":false,"chromatic_density":0.2,"complexity":0.57,"dissonance":0.086},{"voice":3,"pitch":55,"start":132.913,"duration":0.1304,"velocity":127,"measure":64,"beat":3.75,"subject_pos":-1,"motif":"","motif_pos":-1,"best_pos":6,"similarity":0.464,"stretto":false,"stretto_voices":0,"combination":[],"aug_dim":"","rhythm_ratio":1.0,"mirror":false,"chromatic_density":0.2,"complexity":0.57,"dissonance":0.086},{"voice":1,"pitch":73,"start":133.0434,"duration":0.5217,"velocity":127,"measure":64,"beat":4.0,"subject_pos":-1,"motif":"","motif_pos":-1,"best_pos":6,"similarity":0.643,"stretto":false,"stretto_voices":0,"combination":[],"aug_dim":"","rhythm_ratio":1.0,"mirror":false,"chromatic_density":0.2,"complexity":0.57,"dissonance":0.086},{"voice":3,"pitch":53,"start":133.0434,"duration":0.3913,"velocity":127,"measure":64,"beat":4.0,"subject_pos":-1,"motif":"","motif_pos":-1,"best_pos":2,"similarity":0.514,"stretto":false,"stretto_voices":0,"combination":[],"aug_dim":"","rhythm_ratio":1.0,"mirror":false,"chromatic_density":0.2,"complexity":0.57,"dissonance":0.086},{"voice":3,"pitch":52,"start":133.4347,"duration":0.1304,"velocity":127,"measure":64,"beat":4.75,"subject_pos":-1,"motif":"","motif_pos":-1,"best_pos":3,"similarity":0.514,"stretto":false,"stretto_voices":0,"combination":[],"aug_dim":"","rhythm_ratio":1.0,"mirror":false,"chromatic_density":0.2,"complexity":0.57,"dissonance":0.086},{"voice":1,"pitch":74,"start":133.5652,"duration":0.5217,"velocity":127,"measure":65,"beat":1.0,"subject_pos":-1,"motif":"head_inv","motif_pos":0,"best_pos":0,"similarity":1.0,"stretto":false,"stretto_voices":0,"combination":[],"aug_dim":"","rhythm_ratio":1.0,"mirror":false,"chromatic_density":0.5,"complexity":0.559,"dissonance":0.177},{"voice":3,"pitch":50,"start":133.5652,"duration":1.4348,"velocity":127,"measure":65,"beat":1.0,"subject_pos":-1,"motif":"","motif_pos":-1,"best_pos":4,"similarity":0.557,"stretto":false,"stretto_voices":0,"combination":[],"aug_dim":"","rhythm_ratio":1.0,"mirror":false,"chromatic_density":0.5,"complexity":0.559,"dissonance":0.177},{"voice":2,"pitch":57,"start":133.9565,"duration":0.1304,"velocity":127,"measure":65,"beat":1.75,"subject_pos":-1,"motif":"","motif_pos":-1,"best_pos":5,"similarity":0.514,"stretto":false,"stretto_voices":0,"combination":[],"aug_dim":"","rhythm_ratio":1.0,"mirror":false,"chromatic_density":0.5,"complexity":0.559,"dissonance":0.177},{"voice":0,"pitch":77,"start":134.0869,"duration":0.3913,"velocity":127,"measure":65,"beat":2.0,"subject_pos":-1,"motif":"","motif_pos":-1,"best_pos":3,"similarity":0.611,"stretto":false,"stretto_voices":0,"combination":[],"aug_dim":"","rhythm_ratio":1.0,"mirror":false,"chromatic_density":0.5,"complexity":0.559,"dissonance":0.177},{"voice":2,"pitch":59,"start":134.0869,"duration":0.3913,"velocity":127,"measure":65,"beat":2.0,"subject_pos":-1,"motif":"","motif_pos":-1,"best_pos":5,"similarity":0.643,"stretto":false,"stretto_voices":0,"combination":[],"aug_dim":"","rhythm_ratio":1.0,"mirror":false,"chromatic_density":0.5,"complexity":0.559,"dissonance":0.177},{"voice":0,"pitch":76,"start":134.4782,"duration":0.1304,"velocity":127,"measure":65,"beat":2.75,"subject_pos":-1,"motif":"","motif_pos":-1,"best_pos":4,"similarity":0.686,"stretto":false,"stretto_voices":0,"combination":[],"aug_dim":"","rhythm_ratio":1.0,"mirror":false,"chromatic_density":0.5,"complexity":0.559,"dissonance":0.177},{"voice":2,"pitch":61,"start":134.4782,"duration":0.1304,"velocity":127,"measure":65,"beat":2.75,"subject_pos":-1,"motif":"","motif_pos":-1,"best_pos":6,"similarity":0.679,"stretto":false,"stretto_voices":0,"combination":[],"aug_dim":"","rhythm_ratio":1.0,"mirror":false,"chromatic_density":0.5,"complexity":0.559,"dissonance":0.177},{"voice":0,"pitch":77,"start":134.6087,"duration":0.5217,"velocity":127,"measure":65,"beat":3.0,"subject_pos":-1,"motif":"","motif_pos":-1,"best_pos":5,"similarity":0.536,"stretto":false,"stretto_voices":0,"combination":[],"aug_dim":"","rhythm_ratio":1.0,"mirror":false,"chromatic_density":0.5,"complexity":0.559,"dissonance":0.177},{"voice":2,"pitch":62,"start":134.6087,"duration":0.5217,"velocity":127,"measure":65,"beat":3.0,"subject_pos":-1,"motif":"","motif_pos":-1,"best_pos":7,"similarity":0.464,"stretto":false,"stretto_voices":0,"combination":[],"aug_dim":"","rhythm_ratio":1.0,"mirror":false,"chromatic_density":0.5,"complexity":0.559,"dissonance":0.177},{"voice":3,"pitch":51,"start":135.0,"duration":0.1304,"velocity":127,"measure":65,"beat":3.75,"subject_pos":-1,"motif":"","motif_pos":-1,"best_pos":3,"similarity":0.479,"stretto":false,"stretto_voices":0,"combination":[],"aug_dim":"","rhythm_ratio":1.0,"mirror":false,"chromatic_density":0.5,"complexity":0.559,"dissonance":0.177},{"voice":0,"pitch":81,"start":135.1304,"duration":0.5217,"velocity":127,"measure":65,"beat":4.0,"subject_pos":-1,"motif":"head_inv","motif_pos":0,"best_pos":0,"similarity":1.0,"stretto":false,"stretto_voices":0,"combination":[],"aug_dim":"","rhythm_ratio":1.0,"mirror":false,"chromatic_density":0.5,"complexity":0.559,"dissonance":0.177},{"voice":2,"pitch":54,"start":135.1304,"duration":0.5217,"velocity":127,"measure":65,"beat":4.0,"subject_pos":-1,"motif":"","motif_pos":-1,"best_pos":4,"similarity":0.457,"stretto":false,"stretto_voices":0,"combination":[],"aug_dim":"","rhythm_ratio":1.0,"mirror":false,"chromatic_density":0.5,"complexity":0.559,"dissonance":0.177},{"voice":3,"pitch":50,"start":135.1304,"duration":0.3913,"velocity":127,"measure":65,"beat":4.0,"subject_pos":-1,"motif":"","motif_pos":-1,"best_pos":4,"similarity":0.45,"stretto":false,"stretto_voices":0,"combination":[],"aug_dim":"","rhythm_ratio":1.0,"mirror":false,"chromatic_density":0.5,"complexity":0.559,"dissonance":0.177},{"voice":3,"pitch":48,"start":135.5217,"duration":0.1304,"velocity":127,"measure":65,"beat":4.75,"subject_pos":-1,"motif":"","motif_pos":-1,"best_pos":2,"similarity":0.45,"stretto":false,"stretto_voices":0,"combination":[],"aug_dim":"","rhythm_ratio":1.0,"mirror":false,"chromatic_density":0.5,"complexity":0.559,"dissonance":0.177},{"voice":0,"pitch":74,"start":135.6521,"duration":1.0435,"velocity":127,"measure":66,"beat":1.0,"subject_pos":-1,"motif":"head_inv","motif_pos":1,"best_pos":1,"similarity":1.0,"stretto":false,"stretto_voices":0,"combination":[],"aug_dim":"","rhythm_ratio":1.0,"mirror":false,"chromatic_density":0.25,"complexity":0.664,"dissonance":0.163},{"voice":2,"pitch":55,"start":135.6521,"duration":0.5217,"velocity":127,"measure":66,"beat":1.0,"subject_pos":-1,"motif":"","motif_pos":-1,"best_pos":5,"similarity":0.593,"stretto":false,"stretto_voices":0,"combination":[],"aug_dim":"","rhythm_ratio":1.0,"mirror":false,"chromatic_density":0.25,"complexity":0.664,"dissonance":0.163},{"voice":3,"pitch":46,"start":135.6521,"duration":1.4348,"velocity":127,"measure":66,"beat":1.0,"subject_pos":-1,"motif":"","motif_pos":-1,"best_pos":4,"similarity":0.425,"stretto":false,"stretto_voices":0,"combination":[],"aug_dim":"","rhythm_ratio":1.0,"mirror":false,"chromatic_density":0.25,"complexity":0.664,"dissonance":0.163},{"voice":1,"pitch":67,"start":136.0434,"duration":0.1304,"velocity":127,"measure":66,"beat":1.75,"subject_pos":-1,"motif":"head_inv","motif_pos":1,"best_pos":1,"similarity":1.0,"stretto":false,"stretto_voices":0,"combination":[],"aug_dim":"","rhythm_ratio":1.0,"mirror":false,"chromatic_density":0.25,"complexity":0.664,"dissonance":0.163},{"voice":1,"pitch":69,"start":136.1739,"duration":0.3913,"velocity":127,"measure":66,"beat":2.0,"subject_pos":-1,"motif":"head_inv","motif_pos":2,"best_pos":2,"similarity":1.0,"stretto":false,"stretto_voices":0,"combination":[],"aug_dim":"","rhythm_ratio":1.0,"mirror":false,"chromatic_density":0.25,"complexity":0.664,"dissonance":0.163},{"voice":1,"pitch":70,"start":136.5652,"duration":0.1304,"velocity":127,"measure":66,"beat":2.75,"subject_pos":-1,"motif":"head_inv","motif_pos":3,"best_pos":3,"similarity":1.0,"stretto":false,"stretto_voices":0,"combination":[],"aug_dim":"","rhythm_ratio":1.0,"mirror":false,"chromatic_density":0.25,"complexity":0.664,"dissonance":0.163},{"voice":0,"pitch":76,"start":136.6956,"duration":0.5217,"velocity":127,"measure":66,"beat":3.0,"subject_pos":-1,"motif":"head_inv","motif_pos":2,"best_pos":2,"similarity":1.0,"stretto":false,"stretto_voices":0,"combination":[],"aug_dim":"","rhythm_ratio":1.0,"mirror":false,"chromatic_density":0.25,"complexity":0.664,"dissonance":0.163},{"voice":1,"pitch":72,"start":136.6956,"duration":1.5652,"velocity":127,"measure":66,"beat":3.0,"subject_pos":-1,"motif":"head_inv","motif_pos":4,"best_pos":4,"similarity":1.0,"stretto":false,"stretto_voices":0,"combination":[],"aug_dim":"","rhythm_ratio":1.0,"mirror":false,"chromatic_density":0.25,"complexity":0.664,"dissonance":0.163},{"voice":3,"pitch":48,"start":137.0869,"duration":0.1304,"velocity":127,"measure":66,"beat":3.75,"subject_pos":-1,"motif":"","motif_pos":-1,"best_pos":1,"similarity":0.386,"stretto":false,"stretto_voices":0,"combination":[],"aug_dim":"","rhythm_ratio":1.0,"mirror":false,"chromatic_density":0.25,"complexity":0.664,"dissonance":0.163},{"voice":0,"pitch":78,"start":137.2174,"duration":0.5217,"velocity":127,"measure":66,"beat":4.0,"subject_pos":-1,"motif":"head_inv","motif_pos":3,"best_pos":3,"similarity":1.0,"stretto":false,"stretto_voices":0,"combination":[],"aug_dim":"","rhythm_ratio":1.0,"mirror":false,"chromatic_density":0.25,"complexity":0.664,"dissonance":0.163},{"voice":3,"pitch":46,"start":137.2174,"duration":0.3913,"velocity":127,"measure":66,"beat":4.0,"subject_pos":-1,"motif":"","motif_pos":-1,"best_pos":3,"similarity":0.457,"stretto":false,"stretto_voices":0,"combination":[],"aug_dim":"","rhythm_ratio":1.0,"mirror":false,"chromatic_density":0.25,"complexity":0.664,"dissonance":0.163},{"voice":3,"pitch":45,"start":137.6087,"duration":0.1304,"velocity":127,"measure":66,"beat":4.75,"subject_pos":-1,"motif":"","motif_pos":-1,"best_pos":3,"similarity":0.436,"stretto":false,"stretto_voices":0,"combination":[],"aug_dim":"","rhythm_ratio":1.0,"mirror":false,"chromatic_density":0.25,"complexity":0.664,"dissonance":0.163},{"voice":0,"pitch":79,"start":137.7391,"duration":1.5652,"velocity":127,"measure":67,"beat":1.0,"subject_pos":-1,"motif":"head_inv","motif_pos":4,"best_pos":4,"similarity":1.0,"stretto":false,"stretto_voices":0,"combination":[],"aug_dim":"","rhythm_ratio":1.0,"mirror":false,"chromatic_density":0.364,"complexity":0.521,"dissonance":0.175},{"voice":3,"pitch":43,"start":137.7391,"duration":0.3913,"velocity":127,"measure":67,"beat":1.0,"subject_pos":-1,"motif":"","motif_pos":-1,"best_pos":4,"similarity":0.429,"stretto":false,"stretto_voices":0,"combination":[],"aug_dim":"","rhythm_ratio":1.0,"mirror":false,"chromatic_density":0.364,"complexity":0.521,"dissonance":0.175},{"voice":3,"pitch":50,"start":138.1304,"duration":0.1304,"velocity":127,"measure":67,"beat":1.75,"subject_pos":-1,"motif":"","motif_pos":-1,"best_pos":4,"similarity":0.464,"stretto":false,"stretto_voices":0,"combination":[],"aug_dim":"","rhythm_ratio":1.0,"mirror":false,"chromatic_density":0.364,"complexity":0.521,"dissonance":0.175},{"voice":1,"pitch":70,"start":138.2608,"duration":0.3913,"velocity":127,"measure":67,"beat":2.0,"subject_pos":-1,"motif":"","motif_pos":-1,"best_pos":3,"similarity":0.6,"stretto":false,"stretto_voices":0,"combination":[],"aug_dim":"","rhythm_ratio":1.0,"mirror":false,"chromatic_density":0.364,"complexity":0.521,"dissonance":0.175},{"voice":3,"pitch":52,"start":138.2608,"duration":0.3913,"velocity":127,"measure":67,"beat":2.0,"subject_pos":-1,"motif":"","motif_pos":-1,"best_pos":5,"similarity":0.607,"stretto":false,"stretto_voices":0,"combination":[],"aug_dim":"","rhythm_ratio":1.0,"mirror":false,"chromatic_density":0.364,"complexity":0.521,"dissonance":0.175},{"voice":1,"pitch":69,"start":138.6521,"duration":0.1304,"velocity":127,"measure":67,"beat":2.75,"subject_pos":-1,"motif":"","motif_pos":-1,"best_pos":4,"similarity":0.671,"stretto":false,"stretto_voices":0,"combination":[],"aug_dim":"","rhythm_ratio":1.0,"mirror":false,"chromatic_density":0.364,"complexity":0.521,"dissonance":0.175},{"voice":3,"pitch":54,"start":138.6521,"duration":0.1304,"velocity":127,"measure":67,"beat":2.75,"subject_pos":-1,"motif":"","motif_pos":-1,"best_pos":6,"similarity":0.643,"stretto":false,"stretto_voices":0,"combination":[],"aug_dim":"","rhythm_ratio":1.0,"mirror":false,"chromatic_density":0.364,"complexity":0.521,"dissonance":0.175},{"voice":1,"pitch":70,"start":138.7826,"duration":0.5217,"velocity":127,"measure":67,"beat":3.0,"subject_pos":-1,"motif":"","motif_pos":-1,"best_pos":5,"similarity":0.507,"stretto":false,"stretto_voices":0,"combination":[],"aug_dim":"","rhythm_ratio":1.0,"mirror":false,"chromatic_density":0.364,"complexity":0.521,"dissonance":0.175},{"voice":3,"pitch":55,"start":138.7826,"duration":0.3913,"velocity":127,"measure":67,"beat":3.0,"subject_pos":-1,"motif":"","motif_pos":-1,"best_pos":5,"similarity":0.6,"stretto":false,"stretto_voices":0,"combination":[],"aug_dim":"","rhythm_ratio":1.0,"mirror":false,"chromatic_density":0.364,"complexity":0.521,"dissonance":0.175},{"voice":3,"pitch":57,"start":139.1739,"duration":0.1304,"velocity":127,"measure":67,"beat":3.75,"subject_pos":-1,"motif":"","motif_pos":-1,"best_pos":6,"similarity":0.464,"stretto":false,"stretto_voices":0,"combination":[],"aug_dim":"","rhythm_ratio":1.0,"mirror":false,"chromatic_density":0.364,"complexity":0.521,"dissonance":0.175},{"voice":0,"pitch":74,"start":139.3043,"duration":0.913,"velocity":127,"measure":67,"beat":4.0,"subject_pos":-1,"motif":"","motif_pos":-1,"best_pos":5,"similarity":0.336,"stretto":false,"stretto_voices":0,"combination":[],"aug_dim":"","rhythm_ratio":1.0,"mirror":false,"chromatic_density":0.364,"complexity":0.521,"dissonance":0.175},{"voice":1,"pitch":69,"start":139.3043,"duration":0.5217,"velocity":127,"measure":67,"beat":4.0,"subject_pos":-1,"motif":"","motif_pos":-1,"best_pos":1,"similarity":0.429,"stretto":false,"stretto_voices":0,"combination":[],"aug_dim":"","rhythm_ratio":1.0,"mirror":false,"chromatic_density":0.364,"complexity":0.521,"dissonance":0.175},{"voice":3,"pitch":55,"start":139.3043,"duration":0.3913,"velocity":127,"measure":67,"beat":4.0,"subject_pos":-1,"motif":"","motif_pos":-1,"best_pos":2,"similarity":0.593,"stretto":false,"stretto_voices":0,"combination":[],"aug_dim":"","rhythm_ratio":1.0,"mirror":false,"chromatic_density":0.364,"complexity":0.521,"dissonance":0.175},{"voice":3,"pitch":53,"start":139.6956,"duration":0.1304,"velocity":127,"measure":67,"beat":4.75,"subject_pos":-1,"motif":"enigmatic_cell","motif_pos":0,"best_pos":0,"similarity":1.0,"stretto":false,"stretto_voices":0,"combination":[],"aug_dim":"","rhythm_ratio":1.0,"mirror":false,"chromatic_density":0.364,"complexity":0.521,"dissonance":0.175},{"voice":1,"pitch":67,"start":139.8261,"duration":1.0435,"velocity":127,"measure":68,"beat":1.0,"subject_pos":-1,"motif":"","motif_pos":-1,"best_pos":2,"similarity":0.579,"stretto":false,"stretto_voices":0,"combination":[],"aug_dim":"","rhythm_ratio":1.0,"mirror":false,"chromatic_density":0.0,"complexity":0.468,"dissonance":0.136},{"voice":3,"pitch":52,"start":139.8261,"duration":0.5217,"velocity":127,"measure":68,"beat":1.0,"subject_pos":-1,"motif":"enigmatic_cell","motif_pos":1,"best_pos":1,"similarity":1.0,"stretto":false,"stretto_voices":0,"combination":[],"aug_dim":"","rhythm_ratio":1.0,"mirror":false,"chromatic_density":0.0,"complexity":0.468,"dissonance":0.136},{"voice":0,"pitch":76,"start":140.2174,"duration":0.1304,"velocity":127,"measure":68,"beat":1.75,"subject_pos":-1,"motif":"","motif_pos":-1,"best_pos":1,"similarity":0.393,"stretto":false,"stretto_voices":0,"combination":[],"aug_dim":"","rhythm_ratio":1.0,"mirror":false,"chromatic_density":0.0,"complexity":0.468,"dissonance":0.136},{"voice":0,"pitch":74,"start":140.3478,"duration":0.3913,"velocity":127,"measure":68,"beat":2.0,"subject_pos":-1,"motif":"","motif_pos":-1,"best_pos":2,"similarity":0.464,"stretto":false,"stretto_voices":0,"combination":[],"aug_dim":"","rhythm_ratio":1.0,"mirror":false,"chromatic_density":0.0,"complexity":0.468,"dissonance":0.136},{"voice":3,"pitch":57,"start":140.3478,"duration":0.5217,"velocity":127,"measure":68,"beat":2.0,"subject_pos":-1,"motif":"enigmatic_cell","motif_pos":2,"best_pos":2,"similarity":1.0,"stretto":false,"stretto_voices":0,"combination":[],"aug_dim":"","rhythm_ratio":1.0,"mirror":false,"chromatic_density":0.0,"complexity":0.468,"dissonance":0.136},{"voice":0,"pitch":72,"start":140.7391,"duration":0.5217,"velocity":127,"measure":68,"beat":2.75,"subject_pos":-1,"motif":"","motif_pos":-1,"best_pos":5,"similarity":0.4,"stretto":false,"stretto_voices":0,"combination":[],"aug_dim":"","rhythm_ratio":1.0,"mirror":false,"chromatic_density":0.0,"complexity":0.468,"dissonance":0.136},{"voice":1,"pitch":65,"start":140.8695,"duration":1.0435,"velocity":127,"measure":68,"beat":3.0,"subject_pos":-1,"motif":"","motif_pos":-1,"best_pos":3,"similarity":0.621,"stretto":false,"stretto_voices":0,"combination":[],"aug_dim":"","rhythm_ratio":1.0,"mirror":false,"chromatic_density":0.0,"complexity":0.468,"dissonance":0.136},{"voice":3,"pitch":50,"start":140.8695,"duration":0.5217,"velocity":127,"measure":68,"beat":3.0,"subject_pos":-1,"motif":"","motif_pos":-1,"best_pos":0,"similarity":0.329,"stretto":false,"stretto_voices":0,"combination":[],"aug_dim":"","rhythm_ratio":1.0,"mirror":false,"chromatic_density":0.0,"complexity":0.468,"dissonance":0.136},{"voice":0,"pitch":74,"start":141.2608,"duration":0.1304,"velocity":127,"measure":68,"beat":3.75,"subject_pos":-1,"motif":"","motif_pos":-1,"best_pos":1,"similarity":0.421,"stretto":false,"stretto_voices":0,"combination":[],"aug_dim":"","rhythm_ratio":1.0,"mirror":false,"chromatic_density":0.0,"complexity":0.468,"dissonance":0.136},{"voice":0,"pitch":72,"start":141.3913,"duration":0.3913,"velocity":127,"measure":68,"beat":4.0,"subject_pos":-1,"motif":"","motif_pos":-1,"best_pos":2,"similarity":0.532,"stretto":false,"stretto_voices":0,"combination":[],"aug_dim":"","rhythm_ratio":1.0,"mirror":false,"chromatic_density":0.0,"complexity":0.468,"dissonance":0.136},{"voice":3,"pitch":55,"start":141.3913,"duration":0.5217,"velocity":127,"measure":68,"beat":4.0,"subject_pos":-1,"motif":"","motif_pos":-1,"best_pos":1,"similarity":0.379,"stretto":false,"stretto_voices":0,"combination":[],"aug_dim":"","rhythm_ratio":1.0,"mirror":false,"chromatic_density":0.0,"complexity":0.468,"dissonance":0.136},{"voice":0,"pitch":70,"start":141.7826,"duration":0.5217,"velocity":127,"measure":68,"beat":4.75,"subject_pos":-1,"motif":"","motif_pos":-1,"best_pos":3,"similarity":0.479,"stretto":false,"stretto_voices":0,"combination":[],"aug_dim":"","rhythm_ratio":1.0,"mirror":false,"chromatic_density":0.0,"complexity":0.468,"dissonance":0.136},{"voice":1,"pitch":64,"start":141.913,"duration":1.0435,"velocity":127,"measure":69,"beat":1.0,"subject_pos":-1,"motif":"","motif_pos":-1,"best_pos":4,"similarity":0.564,"stretto":false,"stretto_voices":0,"combination":[],"aug_dim":"","rhythm_ratio":1.0,"mirror":false,"chromatic_density":0.3,"complexity":0.605,"dissonance":0.16},{"voice":3,"pitch":49,"start":141.913,"duration":1.0435,"velocity":127,"measure":69,"beat":1.0,"subject_pos":-1,"motif":"","motif_pos":-1,"best_pos":4,"similarity":0.507,"stretto":false,"stretto_voices":0,"combination":[],"aug_dim":"","rhythm_ratio":1.0,"mirror":false,"chromatic_density":0.3,"complexity":0.605,"dissonance":0.16},{"voice":0,"pitch":70,"start":142.3043,"duration":0.1304,"velocity":127,"measure":69,"beat":1.75,"subject_pos":-1,"motif":"","motif_pos":-1,"best_pos":3,"similarity":0.479,"stretto":false,"stretto_voices":0,"combination":[],"aug_dim":"","rhythm_ratio":1.0,"mirror":false,"chromatic_density":0.3,"complexity":0.605,"dissonance":0.16},{"voice":0,"pitch":69,"start":142.4347,"duration":0.3913,"velocity":127,"measure":69,"beat":2.0,"subject_pos":-1,"motif":"","motif_pos":-1,"best_pos":4,"similarity":0.414,"stretto":false,"stretto_voices":0,"combination":[],"aug_dim":"","rhythm_ratio":1.0,"mirror":false,"chromatic_density":0.3,"complexity":0.605,"dissonance":0.16},{"voice":2,"pitch":57,"start":142.4347,"duration":1.0435,"velocity":127,"measure":69,"beat":2.0,"subject_pos":0,"motif":"subject","motif_pos":0,"best_pos":0,"similarity":1.0,"stretto":false,"stretto_voices":0,"combination":[],"aug_dim":"","rhythm_ratio":0.93,"mirror":false,"chromatic_density":0.3,"complexity":0.605,"dissonance":0.16},{"voice":0,"pitch":67,"start":142.8261,"duration":0.1304,"velocity":127,"measure":69,"beat":2.75,"subject_pos":-1,"motif":"","motif_pos":-1,"best_pos":2,"similarity":0.436,"stretto":false,"stretto_voices":0,"combination":[],"aug_dim":"","rhythm_ratio":1.0,"mirror":false,"chromatic_density":0.3,"complexity":0.605,"dissonance":0.16},{"voice":0,"pitch":65,"start":142.9565,"duration":0.3913,"velocity":127,"measure":69,"beat":3.0,"subject_pos":-1,"motif":"","motif_pos":-1,"best_pos":0,"similarity":0.446,"stretto":false,"stretto_voices":0,"combination":[],"aug_dim":"","rhythm_ratio":1.0,"mirror":false,"chromatic_density":0.3,"complexity":0.605,"dissonance":0.16},{"voice":1,"pitch":62,"start":142.9565,"duration":0.5217,"velocity":127,"measure":69,"beat":3.0,"subject_pos":-1,"motif":"","motif_pos":-1,"best_pos":5,"similarity":0.421,"stretto":false,"stretto_voices":0,"combination":[],"aug_dim":"","rhythm_ratio":1.0,"mirror":false,"chromatic_density":0.3,"complexity":0.605,"dissonance":0.16},{"voice":3,"pitch":50,"start":142.9565,"duration":1.0435,"velocity":127,"measure":69,"beat":3.0,"subject_pos":-1,"motif":"","motif_pos":-1,"best_pos":5,"similarity":0.714,"stretto":false,"stretto_voices":0,"combination":[],"aug_dim":"","rhythm_ratio":1.0,"mirror":false,"chromatic_density":0.3,"complexity":0.605,"dissonance":0.16},{"voice":0,"pitch":72,"start":143.3478,"duration":0.1304,"velocity":127,"measure":69,"beat":3.75,"subject_pos":-1,"motif":"","motif_pos":-1,"best_pos":1,"similarity":0.679,"stretto":false,"stretto_voices":0,"combination":[],"aug_dim":"","rhythm_ratio":1.0,"mirror":false,"chromatic_density":0.3,"complexity":0.605,"dissonance":0.16},{"voice":0,"pitch":70,"start":143.4782,"duration":0.3913,"velocity":127,"measure":69,"beat":4.0,"subject_pos":-1,"motif":"","motif_pos":-1,"best_pos":2,"similarity":0.679,"stretto":false,"stretto_voices":0,"combination":[],"aug_dim":"","rhythm_ratio":1.0,"mirror":false,"chromatic_density":0.3,"complexity":0.605,"dissonance":0.16},{"voice":1,"pitch":65,"start":143.4782,"duration":0.913,"velocity":127,"measure":69,"beat":4.0,"subject_pos":-1,"motif":"","motif_pos":-1,"best_pos":6,"similarity":0.371,"stretto":false,"stretto_voices":0,"combination":[],"aug_dim":"","rhythm_ratio":1.0,"mirror":false,"chromatic_density":0.3,"complexity":0.605,"dissonance":0.16},{"voice":2,"pitch":62,"start":143.4782,"duration":1.0435,"velocity":127,"measure":69,"beat":4.0,"subject_pos":1,"motif":"subject","motif_pos":1,"best_pos":1,"similarity":1.0,"stretto":false,"stretto_voices":0,"combination":[],"aug_dim":"","rhythm_ratio":0.93,"mirror":false,"chromatic_density":0.3,"complexity":0.605,"dissonance":0.16},{"voice":0,"pitch":69,"start":143.8695,"duration":0.1304,"velocity":127,"measure":69,"beat":4.75,"subject_pos":-1,"motif":"","motif_pos":-1,"best_pos":3,"similarity":0.679,"stretto":false,"stretto_voices":0,"combination":[],"aug_dim":"","rhythm_ratio":1.0,"mirror":false,"chromatic_density":0.3,"complexity":0.605,"dissonance":0.16},{"voice":0,"pitch":68,"start":144.0,"duration":0.7826,"velocity":127,"measure":70,"beat":1.0,"subject_pos":-1,"motif":"","motif_pos":-1,"best_pos":4,"similarity":0.643,"stretto":false,"stretto_voices":0,"combination":[],"aug_dim":"","rhythm_ratio":1.0,"mirror":false,"chromatic_density":0.6,"complexity":0.619,"dissonance":0.05},{"voice":3,"pitch":52,"start":144.0,"duration":1.0435,"velocity":127,"measure":70,"beat":1.0,"subject_pos":-1,"motif":"enigmatic_cell","motif_pos":0,"best_pos":0,"similarity":1.0,"stretto":false,"stretto_voices":0,"combination":[],"aug_dim":"","rhythm_ratio":1.0,"mirror":false,"chromatic_density":0.6,"complexity":0.619,"dissonance":0.05},{"voice":1,"pitch":65,"start":144.3913,"duration":0.1304,"velocity":127,"measure":70,"beat":1.75,"subject_pos":-1,"motif":"","motif_pos":-1,"best_pos":3,"similarity":0.393,"stretto":false,"stretto_voices":0,"combination":[],"aug_dim":"","rhythm_ratio":1.0,"mirror":false,"chromatic_density":0.6,"complexity":0.619,"dissonance":0.05},{"voice":1,"pitch":64,"start":144.5217,"duration":0.913,"velocity":127,"measure":70,"beat":2.0,"subject_pos":-1,"motif":"","motif_pos":-1,"best_pos":4,"similarity":0.457,"stretto":false,"stretto_voices":0,"combination":[],"aug_dim":"","rhythm_ratio":1.0,"mirror":false,"chromatic_density":0.6,"complexity":0.619,"dissonance":0.05},{"voice":2,"pitch":60,"start":144.5217,"duration":1.0435,"velocity":127,"measure":70,"beat":2.0,"subject_pos":2,"motif":"subject","motif_pos":2,"best_pos":2,"similarity":1.0,"stretto":false,"stretto_voices":0,"combination":[],"aug_dim":"","rhythm_ratio":0.93,"mirror":false,"chromatic_density":0.6,"complexity":0.619,"dissonance":0.05},{"voice":0,"pitch":68,"start":144.913,"duration":0.1304,"velocity":127,"measure":70,"beat":2.75,"subject_pos":-1,"motif":"","motif_pos":-1,"best_pos":4,"similarity":0.543,"stretto":false,"stretto_voices":0,"combination":[],"aug_dim":"","rhythm_ratio":1.0,"mirror":false,"chromatic_density":0.6,"complexity":0.619,"dissonance":0.05},{"voice":0,"pitch":69,"start":145.0434,"duration":0.7826,"velocity":127,"measure":70,"beat":3.0,"subject_pos":-1,"motif":"","motif_pos":-1,"best_pos":5,"similarity":0.461,"stretto":false,"stretto_voices":0,"combination":[],"aug_dim":"","rhythm_ratio":1.0,"mirror":false,"chromatic_density":0.6,"complexity":0.619,"dissonance":0.05},{"voice":3,"pitch":53,"start":145.0434,"duration":1.0435,"velocity":127,"measure":70,"beat":3.0,"subject_pos":-1,"motif":"enigmatic_cell","motif_pos":1,"best_pos":1,"similarity":1.0,"stretto":false,"stretto_voices":0,"combination":[],"aug_dim":"","rhythm_ratio":1.0,"mirror":false,"chromatic_density":0.6,"complexity":0.619,"dissonance":0.05},{"voice":1,"pitch":64,"start":145.4347,"duration":0.1304,"velocity":127,"measure":70,"beat":3.75,"subject_pos":-1,"motif":"","motif_pos":-1,"best_pos":1,"similarity":0.321,"stretto":false,"stretto_voices":0,"combination":[],"aug_dim":"","rhythm_ratio":1.0,"mirror":false,"chromatic_density":0.6,"complexity":0.619,"dissonance":0.05},{"voice":1,"pitch":62,"start":145.5652,"duration":0.5217,"velocity":127,"measure":70,"beat":4.0,"subject_pos":-1,"motif":"","motif_pos":-1,"best_pos":2,"similarity":0.375,"stretto":false,"stretto_voices":0,"combination":[],"aug_dim":"","rhythm_ratio":1.0,"mirror":false,"chromatic_density":0.6,"complexity":0.619,"dissonance":0.05},{"voice":2,"pitch":57,"start":145.5652,"duration":1.0435,"velocity":127,"measure":70,"beat":4.0,"subject_pos":3,"motif":"subject","motif_pos":3,"best_pos":3,"similarity":1.0,"stretto":false,"stretto_voices":0,"combination":[],"aug_dim":"","rhythm_ratio":0.93,"mirror":false,"chromatic_density":0.6,"complexity":0.619,"dissonance":0.05},{"voice":0,"pitch":69,"start":145.9565,"duration":0.1304,"velocity":127,"measure":70,"beat":4.75,"subject_pos":-1,"motif":"","motif_pos":-1,"best_pos":4,"similarity":0.418,"stretto":false,"stretto_voices":0,"combination":[],"aug_dim":"","rhythm_ratio":1.0,"mirror":false,"chromatic_density":0.6,"complexity":0.619,"dissonance":0.05},{"voice":0,"pitch":74,"start":146.0869,"duration":0.3913,"velocity":127,"measure":71,"beat":1.0,"subject_pos":-1,"motif":"","motif_pos":-1,"best_pos":5,"similarity":0.536,"stretto":false,"stretto_voices":0,"combination":[],"aug_dim":"","rhythm_ratio":1.0,"mirror":false,"chromatic_density":0.6,"complexity":0.638,"dissonance":0.183},{"voice":3,"pitch":47,"start":146.0869,"duration":1.0435,"velocity":127,"measure":71,"beat":1.0,"subject_pos":-1,"motif":"enigmatic_cell","motif_pos":2,"best_pos":2,"similarity":1.0,"stretto":false,"stretto_voices":0,"combination":[],"aug_dim":"","rhythm_ratio":1.0,"mirror":false,"chromatic_density":0.6,"complexity":0.638,"dissonance":0.183},{"voice":0,"pitch":76,"start":146.4782,"duration":0.1304,"velocity":127,"measure":71,"beat":1.75,"subject_pos":-1,"motif":"","motif_pos":-1,"best_pos":6,"similarity":0.621,"stretto":false,"stretto_voices":0,"combination":[],"aug_dim":"","rhythm_ratio":1.0,"mirror":false,"chromatic_density":0.6,"complexity":0.638,"dissonance":0.183},{"voice":0,"pitch":77,"start":146.6087,"duration":0.5217,"velocity":127,"measure":71,"beat":2.0,"subject_pos":-1,"motif":"enigmatic_cell","motif_pos":0,"best_pos":0,"similarity":1.0,"stretto":false,"stretto_voices":0,"combination":[],"aug_dim":"","rhythm_ratio":1.0,"mirror":false,"chromatic_density":0.6,"complexity":0.638,"dissonance":0.183},{"voice":2,"pitch":56,"start":146.6087,"duration":0.5217,"velocity":127,"measure":71,"beat":2.0,"subject_pos":4,"motif":"subject","motif_pos":4,"best_pos":4,"similarity":1.0,"stretto":false,"stretto_voices":0,"combination":[],"aug_dim":"","rhythm_ratio":0.93,"mirror":false,"chromatic_density":0.6,"complexity":0.638,"dissonance":0.183},{"voice":1,"pitch":74,"start":147.0,"duration":0.1304,"velocity":127,"measure":71,"beat":2.75,"subject_pos":-1,"motif":"","motif_pos":-1,"best_pos":1,"similarity":0.357,"stretto":false,"stretto_voices":0,"combination":[],"aug_dim":"","rhythm_ratio":1.0,"mirror":false,"chromatic_density":0.6,"complexity":0.638,"dissonance":0.183},{"voice":0,"pitch":76,"start":147.1304,"duration":1.4348,"velocity":127,"measure":71,"beat":3.0,"subject_pos":-1,"motif":"enigmatic_cell","motif_pos":1,"best_pos":1,"similarity":1.0,"stretto":false,"stretto_voices":0,"combination":[],"aug_dim":"","rhythm_ratio":1.0,"mirror":false,"chromatic_density":0.6,"complexity":0.638,"dissonance":0.183},{"voice":1,"pitch":72,"start":147.1304,"duration":0.3913,"velocity":127,"measure":71,"beat":3.0,"subject_pos":-1,"motif":"","motif_pos":-1,"best_pos":3,"similarity":0.45,"stretto":false,"stretto_voices":0,"combination":[],"aug_dim":"","rhythm_ratio":1.0,"mirror":false,"chromatic_density":0.6,"complexity":0.638,"dissonance":0.183},{"voice":2,"pitch":57,"start":147.1304,"duration":0.5217,"velocity":127,"measure":71,"beat":3.0,"subject_pos":5,"motif":"subject","motif_pos":5,"best_pos":5,"similarity":1.0,"stretto":false,"stretto_voices":0,"combination":[],"aug_dim":"","rhythm_ratio":0.93,"mirror":false,"chromatic_density":0.6,"complexity":0.638,"dissonance":0.183},{"voice":3,"pitch":48,"start":147.1304,"duration":1.5652,"velocity":127,"measure":71,"beat":3.0,"subject_pos":-1,"motif":"","motif_pos":-1,"best_pos":5,"similarity":0.65,"stretto":false,"stretto_voices":0,"combination":[],"aug_dim":"","rhythm_ratio":1.0,"mirror":false,"chromatic_density":0.6,"complexity":0.638,"dissonance":0.183},{"voice":1,"pitch":71,"start":147.5217,"duration":0.1304,"velocity":127,"measure":71,"beat":3.75,"subject_pos":-1,"motif":"","motif_pos":-1,"best_pos":2,"similarity":0.5,"stretto":false,"stretto_voices":0,"combination":[],"aug_dim":"","rhythm_ratio":1.0,"mirror":false,"chromatic_density":0.6,"complexity":0.638,"dissonance":0.183},{"voice":1,"pitch":69,"start":147.6521,"duration":0.3913,"velocity":127,"measure":71,"beat":4.0,"subject_pos":-1,"motif":"","motif_pos":-1,"best_pos":3,"similarity":0.643,"stretto":false,"stretto_voices":0,"combination":[],"aug_dim":"","rhythm_ratio":1.0,"mirror":false,"chromatic_density":0.6,"complexity":0.638,"dissonance":0.183},{"voice":2,"pitch":59,"start":147.6521,"duration":0.5217,"velocity":127,"measure":71,"beat":4.0,"subject_pos":6,"motif":"subject","motif_pos":6,"best_pos":6,"similarity":1.0,"stretto":false,"stretto_voices":0,"combination":[],"aug_dim":"","rhythm_ratio":0.93,"mirror":false,"chromatic_density":0.6,"complexity":0.638,"dissonance":0.183},{"voice":1,"pitch":68,"start":148.0434,"duration":0.1304,"velocity":127,"measure":71,"beat":4.75,"subject_pos":-1,"motif":"","motif_pos":-1,"best_pos":4,"similarity":0.679,"stretto":false,"stretto_voices":0,"combination":[],"aug_dim":"","rhythm_ratio":1.0,"mirror":false,"chromatic_density":0.6,"complexity":0.638,"dissonance":0.183},{"voice":1,"pitch":69,"start":148.1739,"duration":1.0435,"velocity":127,"measure":72,"beat":1.0,"subject_pos":-1,"motif":"","motif_pos":-1,"best_pos":5,"similarity":0.464,"stretto":false,"stretto_voices":0,"combination":[],"aug_dim":"","rhythm_ratio":1.0,"mirror":false,"chromatic_density":0.4,"complexity":0.663,"dissonance":0.135},{"voice":2,"pitch":60,"start":148.1739,"duration":1.4348,"velocity":127,"measure":72,"beat":1.0,"subject_pos":7,"motif":"subject","motif_pos":7,"best_pos":7,"similarity":1.0,"stretto":false,"stretto_voices":0,"combination":[],"aug_dim":"","rhythm_ratio":0.93,"mirror":false,"chromatic_density":0.4,"complexity":0.663,"dissonance":0.135},{"voice":0,"pitch":81,"start":148.5652,"duration":0.1304,"velocity":127,"measure":72,"beat":1.75,"subject_pos":-1,"motif":"enigmatic_cell","motif_pos":2,"best_pos":2,"similarity":1.0,"stretto":false,"stretto_voices":0,"combination":[],"aug_dim":"","rhythm_ratio":1.0,"mirror":false,"chromatic_density":0.4,"complexity":0.663,"dissonance":0.135},{"voice":0,"pitch":80,"start":148.6956,"duration":0.3913,"velocity":127,"measure":72,"beat":2.0,"subject_pos":-1,"motif":"enigmatic_cell","motif_pos":0,"best_pos":0,"similarity":1.0,"stretto":false,"stretto_voices":0,"combination":[],"aug_dim":"","rhythm_ratio":1.0,"mirror":false,"chromatic_density":0.4,"complexity":0.663,"dissonance":0.135},{"voice":3,"pitch":50,"start":148.6956,"duration":0.5217,"velocity":127,"measure":72,"beat":2.0,"subject_pos":-1,"motif":"","motif_pos":-1,"best_pos":5,"similarity":0.614,"stretto":false,"stretto_voices":0,"combination":[],"aug_dim":"","rhythm_ratio":1.0,"mirror":false,"chromatic_density":0.4,"complexity":0.663,"dissonance":0.135},{"voice":0,"pitch":81,"start":149.0869,"duration":0.1304,"velocity":127,"measure":72,"beat":2.75,"subject_pos":-1,"motif":"enigmatic_cell","motif_pos":1,"best_pos":1,"similarity":1.0,"stretto":false,"stretto_voices":0,"combination":[],"aug_dim":"","rhythm_ratio":1.0,"mirror":false,"chromatic_density":0.4,"complexity":0.663,"dissonance":0.135},{"voice":0,"pitch":76,"start":149.2174,"duration":0.3913,"velocity":127,"measure":72,"beat":3.0,"subject_pos":-1,"motif":"enigmatic_cell","motif_pos":2,"best_pos":2,"similarity":1.0,"stretto":false,"stretto_voices":0,"combination":[],"aug_dim":"","rhythm_ratio":1.0,"mirror":false,"chromatic_density":0.4,"complexity":0.663,"dissonance":0.135},{"voice":3,"pitch":52,"start":149.2174,"duration":1.0435,"velocity":127,"measure":72,"beat":3.0,"subject_pos":-1,"motif":"","motif_pos":-1,"best_pos":6,"similarity":0.661,"stretto":false,"stretto_voices":0,"combination":[],"aug_dim":"","rhythm_ratio":1.0,"mirror":false,"chromatic_density":0.4,"complexity":0.663,"dissonance":0.135},{"voice":0,"pitch":78,"start":149.6087,"duration":0.1304,"velocity":127,"measure":72,"beat":3.75,"subject_pos":-1,"motif":"","motif_pos":-1,"best_pos":6,"similarity":0.589,"stretto":false,"stretto_voices":0,"combination":[],"aug_dim":"","rhythm_ratio":1.0,"mirror":false,"chromatic_density":0.4,"complexity":0.663,"dissonance":0.135},{"voice":2,"pitch":62,"start":149.6087,"duration":0.1304,"velocity":127,"measure":72,"beat":3.75,"subject_pos":-1,"motif":"","motif_pos":-1,"best_pos":6,"similarity":0.507,"stretto":false,"stretto_voices":0,"combination":[],"aug_dim":"","rhythm_ratio":1.0,"mirror":false,"chromatic_density":0.4,"complexity":0.663,"dissonance":0.135},{"voice":0,"pitch":79,"start":149.7391,"duration":1.0435,"velocity":127,"measure":72,"beat":4.0,"subject_pos":-1,"motif":"","motif_pos":-1,"best_pos":7,"similarity":0.429,"stretto":false,"stretto_voices":0,"combination":[],"aug_dim":"","rhythm_ratio":1.0,"mirror":false,"chromatic_density":0.4,"complexity":0.663,"dissonance":0.135},{"voice":1,"pitch":76,"start":149.7391,"duration":0.913,"velocity":127,"measure":72,"beat":4.0,"subject_pos":-1,"motif":"","motif_pos":-1,"best_pos":1,"similarity":0.35,"stretto":false,"stretto_voices":0,"combination":[],"aug_dim":"","rhythm_ratio":1.0,"mirror":false,"chromatic_density":0.4,"complexity":0.663,"dissonance":0.135},{"voice":2,"pitch":61,"start":149.7391,"duration":0.3913,"velocity":127,"measure":72,"beat":4.0,"subject_pos":-1,"motif":"","motif_pos":-1,"best_pos":2,"similarity":0.443,"stretto":false,"stretto_voices":0,"combination":[],"aug_dim":"","rhythm_ratio":1.0,"mirror":false,"chromatic_density":0.4,"complexity":0.663,"dissonance":0.135},{"voice":2,"pitch":59,"start":150.1304,"duration":0.1304,"velocity":127,"measure":72,"beat":4.75,"subject_pos":-1,"motif":"","motif_pos":-1,"best_pos":3,"similarity":0.525,"stretto":false,"stretto_voices":0,"combination":[],"aug_dim":"","rhythm_ratio":1.0,"mirror":false,"chromatic_density":0.4,"complexity":0.663,"dissonance":0.135},{"voice":2,"pitch":57,"start":150.2608,"duration":1.0435,"velocity":127,"measure":73,"beat":1.0,"subject_pos":-1,"motif":"","motif_pos":-1,"best_pos":4,"similarity":0.589,"stretto":false,"stretto_voices":0,"combination":[],"aug_dim":"","rhythm_ratio":1.0,"mirror":false,"chromatic_density":0.273,"complexity":0.579,"dissonance":0.138},{"voice":3,"pitch":53,"start":150.2608,"duration":0.5217,"velocity":127,"measure":73,"beat":1.0,"subject_pos":-1,"motif":"","motif_pos":-1,"best_pos":7,"similarity":0.464,"stretto":false,"stretto_voices":0,"combination":[],"aug_dim":"","rhythm_ratio":1.0,"mirror":false,"chromatic_density":0.273,"complexity":0.579,"dissonance":0.138},{"voice":1,"pitch":69,"start":150.6521,"duration":0.1304,"velocity":127,"measure":73,"beat":1.75,"subject_pos":-1,"motif":"","motif_pos":-1,"best_pos":0,"similarity":0.464,"stretto":false,"stretto_voices":0,"combination":[],"aug_dim":"","rhythm_ratio":1.0,"mirror":false,"chromatic_density":0.273,"complexity":0.579,"dissonance":0.138},{"voice":0,"pitch":77,"start":150.7826,"duration":1.0435,"velocity":127,"measure":73,"beat":2.0,"subject_pos":-1,"motif":"","motif_pos":-1,"best_pos":3,"similarity":0.471,"stretto":false,"stretto_voices":0,"combination":[],"aug_dim":"","rhythm_ratio":1.0,"mirror":false,"chromatic_density":0.273,"complexity":0.579,"dissonance":0.138},{"voice":1,"pitch":74,"start":150.7826,"duration":0.3913,"velocity":127,"measure":73,"beat":2.0,"subject_pos":-1,"motif":"","motif_pos":-1,"best_pos":1,"similarity":0.714,"stretto":false,"stretto_voices":0,"combination":[],"aug_dim":"","rhythm_ratio":1.0,"mirror":false,"chromatic_density":0.273,"complexity":0.579,"dissonance":0.138},{"voice":3,"pitch":50,"start":150.7826,"duration":0.5217,"velocity":127,"measure":73,"beat":2.0,"subject_pos":-1,"motif":"","motif_pos":-1,"best_pos":3,"similarity":0.343,"stretto":false,"stretto_voices":0,"combination":[],"aug_dim":"","rhythm_ratio":1.0,"mirror":false,"chromatic_density":0.273,"complexity":0.579,"dissonance":0.138},{"voice":1,"pitch":72,"start":151.1739,"duration":0.1304,"velocity":127,"measure":73,"beat":2.75,"subject_pos":-1,"motif":"","motif_pos":-1,"best_pos":2,"similarity":0.721,"stretto":false,"stretto_voices":0,"combination":[],"aug_dim":"","rhythm_ratio":1.0,"mirror":false,"chromatic_density":0.273,"complexity":0.579,"dissonance":0.138},{"voice":1,"pitch":70,"start":151.3043,"duration":0.3913,"velocity":127,"measure":73,"beat":3.0,"subject_pos":-1,"motif":"","motif_pos":-1,"best_pos":3,"similarity":0.664,"stretto":false,"stretto_voices":0,"combination":[],"aug_dim":"","rhythm_ratio":1.0,"mirror":false,"chromatic_density":0.273,"complexity":0.579,"dissonance":0.138},{"voice":2,"pitch":58,"start":151.3043,"duration":1.4348,"velocity":127,"measure":73,"beat":3.0,"subject_pos":-1,"motif":"","motif_pos":-1,"best_pos":5,"similarity":0.5,"stretto":false,"stretto_voices":0,"combination":[],"aug_dim":"","rhythm_ratio":1.0,"mirror":false,"chromatic_density":0.273,"complexity":0.579,"dissonance":0.138},{"voice":3,"pitch":55,"start":151.3043,"duration":1.5652,"velocity":127,"measure":73,"beat":3.0,"subject_pos":-1,"motif":"","motif_pos":-1,"best_pos":1,"similarity":0.379,"stretto":false,"stretto_voices":0,"combination":[],"aug_dim":"","rhythm_ratio":1.0,"mirror":false,"chromatic_density":0.273,"complexity":0.579,"dissonance":0.138},{"voice":1,"pitch":69,"start":151.6956,"duration":0.1304,"velocity":127,"measure":73,"beat":3.75,"subject_pos":-1,"motif":"","motif_pos":-1,"best_pos":4,"similarity":0.489,"stretto":false,"stretto_voices":0,"combination":[],"aug_dim":"","rhythm_ratio":1.0,"mirror":false,"chromatic_density":0.273,"complexity":0.579,"dissonance":0.138},{"voice":0,"pitch":76,"start":151.826,"duration":0.3913,"velocity":127,"measure":73,"beat":4.0,"subject_pos":-1,"motif":"","motif_pos":-1,"best_pos":2,"similarity":0.446,"stretto":false,"stretto_voices":0,"combination":[],"aug_dim":"","rhythm_ratio":1.0,"mirror":false,"chromatic_density":0.273,"complexity":0.579,"dissonance":0.138},{"voice":1,"pitch":67,"start":151.826,"duration":0.3913,"velocity":127,"measure":73,"beat":4.0,"subject_pos":-1,"motif":"","motif_pos":-1,"best_pos":2,"similarity":0.589,"stretto":false,"stretto_voices":0,"combination":[],"aug_dim":"","rhythm_ratio":1.0,"mirror":false,"chromatic_density":0.273,"complexity":0.579,"dissonance":0.138},{"voice":0,"pitch":74,"start":152.2174,"duration":0.1304,"velocity":127,"measure":73,"beat":4.75,"subject_pos":-1,"motif":"","motif_pos":-1,"best_pos":3,"similarity":0.536,"stretto":false,"stretto_voices":0,"combination":[],"aug_dim":"","rhythm_ratio":1.0,"mirror":false,"chromatic_density":0.273,"complexity":0.579,"dissonance":0.138},{"voice":1,"pitch":65,"start":152.2174,"duration":0.1304,"velocity":127,"measure":73,"beat":4.75,"subject_pos":-1,"motif":"","motif_pos":-1,"best_pos":3,"similarity":0.614,"stretto":false,"stretto_voices":0,"combination":[],"aug_dim":"","rhythm_ratio":1.0,"mirror":false,"chromatic_density":0.273,"complexity":0.579,"dissonance":0.138},{"voice":0,"pitch":73,"start":152.3478,"duration":0.5217,"velocity":127,"measure":74,"beat":1.0,"subject_pos":-1,"motif":"","motif_pos":-1,"best_pos":4,"similarity":0.464,"stretto":false,"stretto_voices":0,"combination":[],"aug_dim":"","rhythm_ratio":1.0,"mirror":false,"chromatic_density":0.385,"complexity":0.633,"dissonance":0.123},{"voice":1,"pitch":64,"start":152.3478,"duration":1.4348,"velocity":127,"measure":74,"beat":1.0,"subject_pos":-1,"motif":"","motif_pos":-1,"best_pos":4,"similarity":0.532,"stretto":false,"stretto_voices":0,"combination":[],"aug_dim":"","rhythm_ratio":1.0,"mirror":false,"chromatic_density":0.385,"complexity":0.633,"dissonance":0.123},{"voice":2,"pitch":58,"start":152.7391,"duration":0.1304,"velocity":127,"measure":74,"beat":1.75,"subject_pos":-1,"motif":"","motif_pos":-1,"best_pos":3,"similarity":0.35,"stretto":false,"stretto_voices":0,"combination":[],"aug_dim":"","rhythm_ratio":1.0,"mirror":false,"chromatic_density":0.385,"complexity":0.633,"dissonance":0.123},{"voice":0,"pitch":76,"start":152.8695,"duration":0.5217,"velocity":127,"measure":74,"beat":2.0,"subject_pos":-1,"motif":"","motif_pos":-1,"best_pos":5,"similarity":0.25,"stretto":false,"stretto_voices":0,"combination":[],"aug_dim":"","rhythm_ratio":1.0,"mirror":false,"chromatic_density":0.385,"complexity":0.633,"dissonance":0.123},{"voice":2,"pitch":57,"start":152.8695,"duration":0.3913,"velocity":127,"measure":74,"beat":2.0,"subject_pos":-1,"motif":"","motif_pos":-1,"best_pos":1,"similarity":0.429,"stretto":false,"stretto_voices":0,"combination":[],"aug_dim":"","rhythm_ratio":1.0,"mirror":false,"chromatic_density":0.385,"complexity":0.633,"dissonance":0.123},{"voice":3,"pitch":49,"start":152.8695,"duration":0.5217,"velocity":127,"measure":74,"beat":2.0,"subject_pos":-1,"motif":"enigmatic_cell","motif_pos":0,"best_pos":0,"similarity":1.0,"stretto":false,"stretto_voices":0,"combination":[],"aug_dim":"","rhythm_ratio":1.0,"mirror":false,"chromatic_density":0.385,"complexity":0.633,"dissonance":0.123},{"voice":2,"pitch":55,"start":153.2608,"duration":0.1304,"velocity":127,"measure":74,"beat":2.75,"subject_pos":-1,"motif":"","motif_pos":-1,"best_pos":2,"similarity":0.579,"stretto":false,"stretto_voices":0,"combination":[],"aug_dim":"","rhythm_ratio":1.0,"mirror":false,"chromatic_density":0.385,"complexity":0.633,"dissonance":0.123},{"voice":0,"pitch":69,"start":153.3913,"duration":1.5652,"velocity":127,"measure":74,"beat":3.0,"subject_pos":-1,"motif":"","motif_pos":-1,"best_pos":2,"similarity":0.111,"stretto":false,"stretto_voices":0,"combination":[],"aug_dim":"","rhythm_ratio":1.0,"mirror":false,"chromatic_density":0.385,"complexity":0.633,"dissonance":0.123},{"voice":2,"pitch":53,"start":153.3913,"duration":0.3913,"velocity":127,"measure":74,"beat":3.0,"subject_pos":-1,"motif":"","motif_pos":-1,"best_pos":3,"similarity":0.593,"stretto":false,"stretto_voices":0,"combination":[],"aug_dim":"","rhythm_ratio":1.0,"mirror":false,"chromatic_density":0.385,"complexity":0.633,"dissonance":0.123},{"voice":3,"pitch":50,"start":153.3913,"duration":0.5217,"velocity":127,"measure":74,"beat":3.0,"subject_pos":-1,"motif":"enigmatic_cell","motif_pos":1,"best_pos":1,"similarity":1.0,"stretto":false,"stretto_voices":0,"combination":[],"aug_dim":"","rhythm_ratio":1.0,"mirror":false,"chromatic_density":0.385,"complexity":0.633,"dissonance":0.123},{"voice":1,"pitch":67,"start":153.7826,"duration":0.1304,"velocity":127,"measure":74,"beat":3.75,"subject_pos":-1,"motif":"","motif_pos":-1,"best_pos":1,"similarity":0.429,"stretto":false,"stretto_voices":0,"combination":[],"aug_dim":"","rhythm_ratio":1.0,"mirror":false,"chromatic_density":0.385,"complexity":0.633,"dissonance":0.123},{"voice":2,"pitch":52,"start":153.7826,"duration":0.1304,"velocity":127,"measure":74,"beat":3.75,"subject_pos":-1,"motif":"","motif_pos":-1,"best_pos":4,"similarity":0.543,"stretto":false,"stretto_voices":0,"combination":[],"aug_dim":"","rhythm_ratio":1.0,"mirror":false,"chromatic_density":0.385,"complexity":0.633,"dissonance":0.123},{"voice":1,"pitch":65,"start":153.913,"duration":0.3913,"velocity":127,"measure":74,"beat":4.0,"subject_pos":-1,"motif":"","motif_pos":-1,"best_pos":2,"similarity":0.471,"stretto":false,"stretto_voices":0,"combination":[],"aug_dim":"","rhythm_ratio":1.0,"mirror":false,"chromatic_density":0.385,"complexity":0.633,"dissonance":0.123},{"voice":2,"pitch":50,"start":153.913,"duration":0.3913,"velocity":127,"measure":74,"beat":4.0,"subject_pos":-1,"motif":"","motif_pos":-1,"best_pos":3,"similarity":0.714,"stretto":false,"stretto_voices":0,"combination":[],"aug_dim":"","rhythm_ratio":1.0,"mirror":false,"chromatic_density":0.385,"complexity":0.633,"dissonance":0.123},{"voice":3,"pitch":45,"start":153.913,"duration":0.5217,"velocity":127,"measure":74,"beat":4.0,"subject_pos":-1,"motif":"enigmatic_cell","motif_pos":2,"best_pos":2,"similarity":1.0,"stretto":false,"stretto_voices":0,"combination":[],"aug_dim":"","rhythm_ratio":1.0,"mirror":false,"chromatic_density":0.385,"complexity":0.633,"dissonance":0.123},{"voice":1,"pitch":64,"start":154.3043,"duration":0.1304,"velocity":127,"measure":74,"beat":4.75,"subject_pos":-1,"motif":"","motif_pos":-1,"best_pos":4,"similarity":0.407,"stretto":false,"stretto_voices":0,"combination":[],"aug_dim":"","rhythm_ratio":1.0,"mirror":false,"chromatic_density":0.385,"complexity":0.633,"dissonance":0.123},{"voice":2,"pitch":49,"start":154.3043,"duration":0.1304,"velocity":127,"measure":74,"beat":4.75,"subject_pos":-1,"motif":"","motif_pos":-1,"best_pos":4,"similarity":0.857,"stretto":false,"stretto_voices":0,"combination":[],"aug_dim":"","rhythm_ratio":1.0,"mirror":false,"chromatic_density":0.385,"complexity":0.633,"dissonance":0.123},{"voice":1,"pitch":62,"start":154.4347,"duration":0.3913,"velocity":127,"measure":75,"beat":1.0,"subject_pos":-1,"motif":"","motif_pos":-1,"best_pos":2,"similarity":0.518,"stretto":false,"stretto_voices":0,"combination":[],"aug_dim":"","rhythm_ratio":1.0,"mirror":false,"chromatic_density":0.333,"complexity":0.695,"dissonance":0.14},{"voice":2,"pitch":50,"start":154.4347,"duration":0.5217,"velocity":127,"measure":75,"beat":1.0,"subject_pos":0,"motif":"subject","motif_pos":0,"best_pos":0,"similarity":1.0,"stretto":false,"stretto_voices":0,"combination":[],"aug_dim":"","rhythm_ratio":1.0,"mirror":false,"chromatic_density":0.333,"complexity":0.695,"dissonance":0.14},{"voice":3,"pitch":46,"start":154.4347,"duration":1.5652,"velocity":127,"measure":75,"beat":1.0,"subject_pos":-1,"motif":"","motif_pos":-1,"best_pos":2,"similarity":0.4,"stretto":false,"stretto_voices":0,"combination":[],"aug_dim":"","rhythm_ratio":1.0,"mirror":false,"chromatic_density":0.333,"complexity":0.695,"dissonance":0.14},{"voice":1,"pitch":60,"start":154.826,"duration":0.1304,"velocity":127,"measure":75,"beat":1.75,"subject_pos":-1,"motif":"","motif_pos":-1,"best_pos":2,"similarity":0.643,"stretto":false,"stretto_voices":0,"combination":[],"aug_dim":"","rhythm_ratio":1.0,"mirror":false,"chromatic_density":0.333,"complexity":0.695,"dissonance":0.14},{"voice":0,"pitch":62,"start":154.9565,"duration":1.0435,"velocity":127,"measure":75,"beat":2.0,"subject_pos":-1,"motif":"","motif_pos":-1,"best_pos":0,"similarity":0.304,"stretto":false,"stretto_voices":0,"combination":[],"aug_dim":"","rhythm_ratio":1.0,"mirror":false,"chromatic_density":0.333,"complexity":0.695,"dissonance":0.14},{"voice":1,"pitch":58,"start":154.9565,"duration":0.3913,"velocity":127,"measure":75,"beat":2.0,"subject_pos":-1,"motif":"","motif_pos":-1,"best_pos":3,"similarity":0.721,"stretto":false,"stretto_voices":0,"combination":[],"aug_dim":"","rhythm_ratio":1.0,"mirror":false,"chromatic_density":0.333,"complexity":0.695,"dissonance":0.14},{"voice":2,"pitch":52,"start":154.9565,"duration":0.3913,"velocity":127,"measure":75,"beat":2.0,"subject_pos":-1,"motif":"subject","motif_pos":0,"best_pos":0,"similarity":1.0,"stretto":false,"stretto_voices":0,"combination":[],"aug_dim":"","rhythm_ratio":1.0,"mirror":false,"chromatic_density":0.333,"complexity":0.695,"dissonance":0.14},{"voice":1,"pitch":57,"start":155.3478,"duration":0.1304,"velocity":127,"measure":75,"beat":2.75,"subject_pos":-1,"motif":"","motif_pos":-1,"best_pos":4,"similarity":0.764,"stretto":false,"stretto_voices":0,"combination":[],"aug_dim":"","rhythm_ratio":1.0,"mirror":false,"chromatic_density":0.333,"complexity":0.695,"dissonance":0.14},{"voice":2,"pitch":54,"start":155.3478,"duration":0.1304,"velocity":127,"measure":75,"beat":2.75,"subject_pos":-1,"motif":"subject","motif_pos":0,"best_pos":0,"similarity":1.0,"stretto":false,"stretto_voices":0,"combination":[],"aug_dim":"","rhythm_ratio":0.62,"mirror":false,"chromatic_density":0.333,"complexity":0.695,"dissonance":0.14},{"voice":1,"pitch":58,"start":155.4782,"duration":1.0435,"velocity":127,"measure":75,"beat":3.0,"subject_pos":-1,"motif":"","motif_pos":-1,"best_pos":5,"similarity":0.564,"stretto":false,"stretto_voices":0,"combination":[],"aug_dim":"","rhythm_ratio":1.0,"mirror":false,"chromatic_density":0.333,"complexity":0.695,"dissonance":0.14},{"voice":2,"pitch":55,"start":155.4782,"duration":0.3913,"velocity":127,"measure":75,"beat":3.0,"subject_pos":1,"motif":"subject","motif_pos":1,"best_pos":1,"similarity":1.0,"stretto":false,"stretto_voices":0,"combination":[],"aug_dim":"","rhythm_ratio":0.62,"mirror":false,"chromatic_density":0.333,"complexity":0.695,"dissonance":0.14},{"voice":2,"pitch":53,"start":155.8695,"duration":0.1304,"velocity":127,"measure":75,"beat":3.75,"subject_pos":2,"motif":"subject","motif_pos":2,"best_pos":2,"similarity":1.0,"stretto":false,"stretto_voices":0,"combination":[],"aug_dim":"","rhythm_ratio":0.62,"mirror":false,"chromatic_density":0.333,"complexity":0.695,"dissonance":0.14},{"voice":0,"pitch":67,"start":156.0,"duration":0.913,"velocity":127,"measure":75,"beat":4.0,"subject_pos":-1,"motif":"","motif_pos":-1,"best_pos":1,"similarity":0.357,"stretto":false,"stretto_voices":0,"combination":[],"aug_dim":"","rhythm_ratio":1.0,"mirror":false,"chromatic_density":0.333,"complexity":0.695,"dissonance":0.14},{"voice":2,"pitch":52,"start":156.0,"duration":0.3913,"velocity":127,"measure":75,"beat":4.0,"subject_pos":-1,"motif":"subject","motif_pos":2,"best_pos":2,"similarity":1.0,"stretto":false,"stretto_voices":0,"combination":[],"aug_dim":"","rhythm_ratio":0.62,"mirror":false,"chromatic_density":0.333,"complexity":0.695,"dissonance":0.14},{"voice":3,"pitch":43,"start":156.0,"duration":0.5217,"velocity":127,"measure":75,"beat":4.0,"subject_pos":-1,"motif":"","motif_pos":-1,"best_pos":5,"similarity":0.511,"stretto":false,"stretto_voices":0,"combination":[],"aug_dim":"","rhythm_ratio":1.0,"mirror":false,"chromatic_density":0.333,"complexity":0.695,"dissonance":0.14},{"voice":2,"pitch":50,"start":156.3913,"duration":0.1304,"velocity":127,"measure":75,"beat":4.75,"subject_pos":3,"motif":"subject","motif_pos":3,"best_pos":3,"similarity":1.0,"stretto":false,"stretto_voices":0,"combination":[],"aug_dim":"","rhythm_ratio":0.62,"mirror":false,"chromatic_density":0.333,"complexity":0.695,"dissonance":0.14},{"voice":1,"pitch":57,"start":156.5217,"duration":1.5652,"velocity":127,"measure":76,"beat":1.0,"subject_pos":-1,"motif":"","motif_pos":-1,"best_pos":4,"similarity":0.621,"stretto":false,"stretto_voices":0,"combination":[],"aug_dim":"","rhythm_ratio":1.0,"mirror":false,"chromatic_density":0.286,"complexity":0.557,"dissonance":0.196},{"voice":2,"pitch":49,"start":156.5217,"duration":1.0435,"velocity":127,"measure":76,"beat":1.0,"subject_pos":4,"motif":"subject","motif_pos":4,"best_pos":4,"similarity":1.0,"stretto":false,"stretto_voices":0,"combination":[],"aug_dim":"","rhythm_ratio":0.62,"mirror":false,"chromatic_density":0.286,"complexity":0.557,"dissonance":0.196},{"voice":3,"pitch":45,"start":156.5217,"duration":5.6087,"velocity":127,"measure":76,"beat":1.0,"subject_pos":-1,"motif":"","motif_pos":-1,"best_pos":6,"similarity":0.604,"stretto":false,"stretto_voices":0,"combination":[],"aug_dim":"","rhythm_ratio":1.0,"mirror":false,"chromatic_density":0.286,"complexity":0.557,"dissonance":0.196},{"voice":0,"pitch":70,"start":156.913,"duration":0.1304,"velocity":127,"measure":76,"beat":1.75,"subject_pos":-1,"motif":"","motif_pos":-1,"best_pos":3,"similarity":0.371,"stretto":false,"stretto_voices":0,"combination":[],"aug_dim":"","rhythm_ratio":1.0,"mirror":false,"chromatic_density":0.286,"complexity":0.557,"dissonance":0.196},{"voice":0,"pitch":69,"start":157.0434,"duration":0.3913,"velocity":127,"measure":76,"beat":2.0,"subject_pos":-1,"motif":"","motif_pos":-1,"best_pos":4,"similarity":0.464,"stretto":false,"stretto_voices":0,"combination":[],"aug_dim":"","rhythm_ratio":1.0,"mirror":false,"chromatic_density":0.286,"complexity":0.557,"dissonance":0.196},{"voice":0,"pitch":67,"start":157.4347,"duration":0.5217,"velocity":127,"measure":76,"beat":2.75,"subject_pos":-1,"motif":"","motif_pos":-1,"best_pos":5,"similarity":0.471,"stretto":false,"stretto_voices":0,"combination":[],"aug_dim":"","rhythm_ratio":1.0,"mirror":false,"chromatic_density":0.286,"complexity":0.557,"dissonance":0.196},{"voice":2,"pitch":50,"start":157.5652,"duration":1.0435,"velocity":127,"measure":76,"beat":3.0,"subject_pos":5,"motif":"subject","motif_pos":5,"best_pos":5,"similarity":1.0,"stretto":false,"stretto_voices":0,"combination":[],"aug_dim":"","rhythm_ratio":0.62,"mirror":false,"chromatic_density":0.286,"complexity":0.557,"dissonance":0.196},{"voice":0,"pitch":69,"start":157.9565,"duration":0.1304,"velocity":127,"measure":76,"beat":3.75,"subject_pos":-1,"motif":"","motif_pos":-1,"best_pos":6,"similarity":0.4,"stretto":false,"stretto_voices":0,"combination":[],"aug_dim":"","rhythm_ratio":1.0,"mirror":false,"chromatic_density":0.286,"complexity":0.557,"dissonance":0.196},{"voice":0,"pitch":67,"start":158.0869,"duration":0.3913,"velocity":127,"measure":76,"beat":4.0,"subject_pos":-1,"motif":"","motif_pos":-1,"best_pos":2,"similarity":0.464,"stretto":false,"stretto_voices":0,"combination":[],"aug_dim":"","rhythm_ratio":1.0,"mirror":false,"chromatic_density":0.286,"complexity":0.557,"dissonance":0.196},{"voice":1,"pitch":59,"start":158.0869,"duration":0.5217,"velocity":127,"measure":76,"beat":4.0,"subject_pos":-1,"motif":"","motif_pos":-1,"best_pos":5,"similarity":0.579,"stretto":false,"stretto_voices":0,"combination":[],"aug_dim":"","rhythm_ratio":1.0,"mirror":false,"chromatic_density":0.286,"complexity":0.557,"dissonance":0.196},{"voice":0,"pitch":65,"start":158.4782,"duration":0.5217,"velocity":127,"measure":76,"beat":4.75,"subject_pos":-1,"motif":"","motif_pos":-1,"best_pos":5,"similarity":0.4,"stretto":false,"stretto_voices":0,"combination":[],"aug_dim":"","rhythm_ratio":1.0,"mirror":false,"chromatic_density":0.286,"complexity":0.557,"dissonance":0.196},{"voice":1,"pitch":61,"start":158.6087,"duration":1.0435,"velocity":127,"measure":77,"beat":1.0,"subject_pos":-1,"motif":"","motif_pos":-1,"best_pos":6,"similarity":0.429,"stretto":false,"stretto_voices":0,"combination":[],"aug_dim":"","rhythm_ratio":1.0,"mirror":false,"chromatic_density":0.571,"complexity":0.464,"dissonance":0.209},{"voice":2,"pitch":52,"start":158.6087,"duration":1.0435,"velocity":127,"measure":77,"beat":1.0,"subject_pos":6,"motif":"subject","motif_pos":6,"best_pos":6,"similarity":1.0,"stretto":false,"stretto_voices":0,"combination":[],"aug_dim":"","rhythm_ratio":0.62,"mirror":false,"chromatic_density":0.571,"complexity":0.464,"dissonance":0.209},{"voice":0,"pitch":67,"start":159.0,"duration":0.1304,"velocity":127,"measure":77,"beat":1.75,"subject_pos":-1,"motif":"","motif_pos":-1,"best_pos":2,"similarity":0.386,"stretto":false,"stretto_voices":0,"combination":[],"aug_dim":"","rhythm_ratio":1.0,"mirror":false,"chromatic_density":0.571,"complexity":0.464,"dissonance":0.209},{"voice":0,"pitch":65,"start":159.1304,"duration":0.3913,"velocity":127,"measure":77,"beat":2.0,"subject_pos":-1,"motif":"","motif_pos":-1,"best_pos":3,"similarity":0.593,"stretto":false,"stretto_voices":0,"combination":[],"aug_dim":"","rhythm_ratio":1.0,"mirror":false,"chromatic_density":0.571,"complexity":0.464,"dissonance":0.209},{"voice":0,"pitch":64,"start":159.5217,"duration":0.5217,"velocity":127,"measure":77,"beat":2.75,"subject_pos":-1,"motif":"","motif_pos":-1,"best_pos":4,"similarity":0.671,"stretto":false,"stretto_voices":0,"combination":[],"aug_dim":"","rhythm_ratio":1.0,"mirror":false,"chromatic_density":0.571,"complexity":0.464,"dissonance":0.209},{"voice":1,"pitch":56,"start":159.6521,"duration":1.0435,"velocity":127,"measure":77,"beat":3.0,"subject_pos":-1,"motif":"","motif_pos":-1,"best_pos":4,"similarity":0.429,"stretto":false,"stretto_voices":0,"combination":[],"aug_dim":"","rhythm_ratio":1.0,"mirror":false,"chromatic_density":0.571,"complexity":0.464,"dissonance":0.209},{"voice":2,"pitch":53,"start":159.6521,"duration":1.0435,"velocity":127,"measure":77,"beat":3.0,"subject_pos":7,"motif":"subject","motif_pos":7,"best_pos":7,"similarity":1.0,"stretto":false,"stretto_voices":0,"combination":[],"aug_dim":"","rhythm_ratio":0.62,"mirror":false,"chromatic_density":0.571,"complexity":0.464,"dissonance":0.209},{"voice":0,"pitch":65,"start":160.0434,"duration":0.1304,"velocity":127,"measure":77,"beat":3.75,"subject_pos":-1,"motif":"","motif_pos":-1,"best_pos":5,"similarity":0.507,"stretto":false,"stretto_voices":0,"combination":[],"aug_dim":"","rhythm_ratio":1.0,"mirror":false,"chromatic_density":0.571,"complexity":0.464,"dissonance":0.209},{"voice":0,"pitch":64,"start":160.1739,"duration":0.3913,"velocity":127,"measure":77,"beat":4.0,"subject_pos":-1,"motif":"","motif_pos":-1,"best_pos":1,"similarity":0.436,"stretto":false,"stretto_voices":0,"combination":[],"aug_dim":"","rhythm_ratio":1.0,"mirror":false,"chromatic_density":0.571,"complexity":0.464,"dissonance":0.209},{"voice":0,"pitch":62,"start":160.5652,"duration":0.5217,"velocity":127,"measure":77,"beat":4.75,"subject_pos":-1,"motif":"","motif_pos":-1,"best_pos":2,"similarity":0.604,"stretto":false,"stretto_voices":0,"combination":[],"aug_dim":"","rhythm_ratio":1.0,"mirror":false,"chromatic_density":0.571,"complexity":0.464,"dissonance":0.209},{"voice":1,"pitch":57,"start":160.6956,"duration":1.0435,"velocity":127,"measure":78,"beat":1.0,"subject_pos":-1,"motif":"","motif_pos":-1,"best_pos":5,"similarity":0.514,"stretto":false,"stretto_voices":0,"combination":[],"aug_dim":"","rhythm_ratio":1.0,"mirror":false,"chromatic_density":0.2,"complexity":0.588,"dissonance":0.178},{"voice":2,"pitch":52,"start":160.6956,"duration":1.0435,"velocity":127,"measure":78,"beat":1.0,"subject_pos":-1,"motif":"","motif_pos":-1,"best_pos":4,"similarity":0.371,"stretto":false,"stretto_voices":0,"combination":[],"aug_dim":"","rhythm_ratio":1.0,"mirror":false,"chromatic_density":0.2,"complexity":0.588,"dissonance":0.178},{"voice":0,"pitch":59,"start":161.0869,"duration":0.1304,"velocity":127,"measure":78,"beat":1.75,"subject_pos":-1,"motif":"","motif_pos":-1,"best_pos":3,"similarity":0.493,"stretto":false,"stretto_voices":0,"combination":[],"aug_dim":"","rhythm_ratio":1.0,"mirror":false,"chromatic_density":0.2,"complexity":0.588,"dissonance":0.178},{"voice":0,"pitch":61,"start":161.2174,"duration":0.3913,"velocity":127,"measure":78,"beat":2.0,"subject_pos":-1,"motif":"","motif_pos":-1,"best_pos":6,"similarity":0.407,"stretto":false,"stretto_voices":0,"combination":[],"aug_dim":"","rhythm_ratio":1.0,"mirror":false,"chromatic_density":0.2,"complexity":0.588,"dissonance":0.178},{"voice":0,"pitch":64,"start":161.6087,"duration":0.1304,"velocity":127,"measure":78,"beat":2.75,"subject_pos":-1,"motif":"","motif_pos":-1,"best_pos":6,"similarity":0.232,"stretto":false,"stretto_voices":0,"combination":[],"aug_dim":"","rhythm_ratio":1.0,"mirror":false,"chromatic_density":0.2,"complexity":0.588,"dissonance":0.178},{"voice":0,"pitch":57,"start":161.7391,"duration":0.3913,"velocity":127,"measure":78,"beat":3.0,"subject_pos":-1,"motif":"","motif_pos":-1,"best_pos":0,"similarity":0.189,"stretto":false,"stretto_voices":0,"combination":[],"aug_dim":"","rhythm_ratio":1.0,"mirror":false,"chromatic_density":0.2,"complexity":0.588,"dissonance":0.178},{"voice":0,"pitch":67,"start":162.1304,"duration":0.1304,"velocity":127,"measure":78,"beat":3.75,"subject_pos":-1,"motif":"","motif_pos":-1,"best_pos":1,"similarity":0.386,"stretto":false,"stretto_voices":0,"combination":[],"aug_dim":"","rhythm_ratio":1.0,"mirror":false,"chromatic_density":0.2,"complexity":0.588,"dissonance":0.178},{"voice":3,"pitch":46,"start":162.1304,"duration":0.1304,"velocity":127,"measure":78,"beat":3.75,"subject_pos":-1,"motif":"","motif_pos":-1,"best_pos":7,"similarity":0.436,"stretto":false,"stretto_voices":0,"combination":[],"aug_dim":"","rhythm_ratio":1.0,"mirror":false,"chromatic_density":0.2,"complexity":0.588,"dissonance":0.178},{"voice":0,"pitch":65,"start":162.2608,"duration":0.3913,"velocity":127,"measure":78,"beat":4.0,"subject_pos":-1,"motif":"","motif_pos":-1,"best_pos":2,"similarity":0.443,"stretto":false,"stretto_voices":0,"combination":[],"aug_dim":"","rhythm_ratio":1.0,"mirror":false,"chromatic_density":0.2,"complexity":0.588,"dissonance":0.178},{"voice":1,"pitch":61,"start":162.2608,"duration":0.5217,"velocity":127,"measure":78,"beat":4.0,"subject_pos":-1,"motif":"","motif_pos":-1,"best_pos":6,"similarity":0.507,"stretto":false,"stretto_voices":0,"combination":[],"aug_dim":"","rhythm_ratio":1.0,"mirror":false,"chromatic_density":0.2,"complexity":0.588,"dissonance":0.178},{"voice":2,"pitch":57,"start":162.2608,"duration":0.5217,"velocity":127,"measure":78,"beat":4.0,"subject_pos":-1,"motif":"","motif_pos":-1,"best_pos":1,"similarity":0.379,"stretto":false,"stretto_voices":0,"combination":[],"aug_dim":"","rhythm_ratio":1.0,"mirror":false,"chromatic_density":0.2,"complexity":0.588,"dissonance":0.178},{"voice":3,"pitch":45,"start":162.2608,"duration":0.3913,"velocity":127,"measure":78,"beat":4.0,"subject_pos":-1,"motif":"","motif_pos":-1,"best_pos":4,"similarity":0.486,"stretto":false,"stretto_voices":0,"combination":[],"aug_dim":"","rhythm_ratio":1.0,"mirror":false,"chromatic_density":0.2,"complexity":0.588,"dissonance":0.178},{"voice":0,"pitch":64,"start":162.6521,"duration":0.1304,"velocity":127,"measure":78,"beat":4.75,"subject_pos":-1,"motif":"","motif_pos":-1,"best_pos":4,"similarity":0.386,"stretto":false,"stretto_voices":0,"combination":[],"aug_dim":"","rhythm_ratio":1.0,"mirror":false,"chromatic_density":0.2,"complexity":0.588,"dissonance":0.178},{"voice":3,"pitch":43,"start":162.6521,"duration":0.5217,"velocity":127,"measure":78,"beat":4.75,"subject_pos":-1,"motif":"","motif_pos":-1,"best_pos":5,"similarity":0.479,"stretto":false,"stretto_voices":0,"combination":[],"aug_dim":"","rhythm_ratio":1.0,"mirror":false,"chromatic_density":0.2,"complexity":0.588,"dissonance":0.178},{"voice":0,"pitch":62,"start":162.7826,"duration":1.0435,"velocity":127,"measure":79,"beat":1.0,"subject_pos":0,"motif":"subject","motif_pos":0,"best_pos":0,"similarity":1.0,"stretto":false,"stretto_voices":0,"combination":[],"aug_dim":"","rhythm_ratio":1.0,"mirror":false,"chromatic_density":0.231,"complexity":0.652,"dissonance":0.092},{"voice":1,"pitch":62,"start":162.7826,"duration":0.3913,"velocity":127,"measure":79,"beat":1.0,"subject_pos":-1,"motif":"","motif_pos":-1,"best_pos":5,"similarity":0.471,"stretto":false,"stretto_voices":0,"combination":[],"aug_dim":"","rhythm_ratio":1.0,"mirror":false,"chromatic_density":0.231,"complexity":0.652,"dissonance":0.092},{"voice":2,"pitch":57,"start":162.7826,"duration":1.0435,"velocity":127,"measure":79,"beat":1.0,"subject_pos":-1,"motif":"head_inv","motif_pos":0,"best_pos":0,"similarity":1.0,"stretto":false,"stretto_voices":0,"combination":[],"aug_dim":"","rhythm_ratio":1.0,"mirror":false,"chromatic_density":0.231,"complexity":0.652,"dissonance":0.092},{"voice":1,"pitch":65,"start":163.1739,"duration":0.1304,"velocity":127,"measure":79,"beat":1.75,"subject_pos":-1,"motif":"","motif_pos":-1,"best_pos":1,"similarity":0.357,"stretto":false,"stretto_voices":0,"combination":[],"aug_dim":"","rhythm_ratio":1.0,"mirror":false,"chromatic_density":0.231,"complexity":0.652,"dissonance":0.092},{"voice":3,"pitch":45,"start":163.1739,"duration":0.1304,"velocity":127,"measure":79,"beat":1.75,"subject_pos":-1,"motif":"","motif_pos":-1,"best_pos":6,"similarity":0.4,"stretto":false,"stretto_voices":0,"combination":[],"aug_dim":"","rhythm_ratio":1.0,"mirror":false,"chromatic_density":0.231,"complexity":0.652,"dissonance":0.092},{"voice":1,"pitch":64,"start":163.3043,"duration":0.3913,"velocity":127,"measure":79,"beat":2.0,"subject_pos":-1,"motif":"","motif_pos":-1,"best_pos":2,"similarity":0.464,"stretto":false,"stretto_voices":0,"combination":[],"aug_dim":"","rhythm_ratio":1.0,"mirror":false,"chromatic_density":0.231,"complexity":0.652,"dissonance":0.092},{"voice":3,"pitch":43,"start":163.3043,"duration":0.3913,"velocity":127,"measure":79,"beat":2.0,"subject_pos":-1,"motif":"","motif_pos":-1,"best_pos":2,"similarity":0.464,"stretto":false,"stretto_voices":0,"combination":[],"aug_dim":"","rhythm_ratio":1.0,"mirror":false,"chromatic_density":0.231,"complexity":0.652,"dissonance":0.092},{"voice":1,"pitch":62,"start":163.6956,"duration":0.1304,"velocity":127,"measure":79,"beat":2.75,"subject_pos":-1,"motif":"","motif_pos":-1,"best_pos":3,"similarity":0.589,"stretto":false,"stretto_voices":0,"combination":[],"aug_dim":"","rhythm_ratio":1.0,"mirror":false,"chromatic_density":0.231,"complexity":0.652,"dissonance":0.092},{"voice":3,"pitch":41,"start":163.6956,"duration":0.5217,"velocity":127,"measure":79,"beat":2.75,"subject_pos":-1,"motif":"","motif_pos":-1,"best_pos":5,"similarity":0.4,"stretto":false,"stretto_voices":0,"combination":[],"aug_dim":"","rhythm_ratio":1.0,"mirror":false,"chromatic_density":0.231,"complexity":0.652,"dissonance":0.092},{"voice":0,"pitch":69,"start":163.826,"duration":1.0435,"velocity":127,"measure":79,"beat":3.0,"subject_pos":1,"motif":"subject","motif_pos":1,"best_pos":1,"similarity":1.0,"stretto":true,"stretto_voices":2,"combination":[],"aug_dim":"","rhythm_ratio":1.0,"mirror":false,"chromatic_density":0.231,"complexity":0.652,"dissonance":0.092},{"voice":1,"pitch":61,"start":163.826,"duration":0.3913,"velocity":127,"measure":79,"beat":3.0,"subject_pos":-1,"motif":"","motif_pos":-1,"best_pos":4,"similarity":0.571,"stretto":false,"stretto_voices":0,"combination":[],"aug_dim":"","rhythm_ratio":1.0,"mirror":false,"chromatic_density":0.231,"complexity":0.652,"dissonance":0.092},{"voice":1,"pitch":57,"start":164.2174,"duration":0.1304,"velocity":127,"measure":79,"beat":3.75,"subject_pos":-1,"motif":"","motif_pos":-1,"best_pos":5,"similarity":0.536,"stretto":false,"stretto_voices":0,"combination":[],"aug_dim":"","rhythm_ratio":1.0,"mirror":false,"chromatic_density":0.231,"complexity":0.652,"dissonance":0.092},{"voice":3,"pitch":43,"start":164.2174,"duration":0.1304,"velocity":127,"measure":79,"beat":3.75,"subject_pos":0,"motif":"subject_inv","motif_pos":0,"best_pos":0,"similarity":1.0,"stretto":true,"stretto_voices":2,"combination":[],"aug_dim":"","rhythm_ratio":1.0,"mirror":false,"chromatic_density":0.231,"complexity":0.652,"dissonance":0.092},{"voice":1,"pitch":59,"start":164.3478,"duration":0.3913,"velocity":127,"measure":79,"beat":4.0,"subject_pos":-1,"motif":"","motif_pos":-1,"best_pos":5,"similarity":0.604,"stretto":false,"stretto_voices":0,"combination":[],"aug_dim":"","rhythm_ratio":1.0,"mirror":false,"chromatic_density":0.231,"complexity":0.652,"dissonance":0.092},{"voice":3,"pitch":41,"start":164.3478,"duration":0.3913,"velocity":127,"measure":79,"beat":4.0,"subject_pos":-1,"motif":"subject_inv","motif_pos":0,"best_pos":0,"similarity":1.0,"stretto":true,"stretto_voices":2,"combination":[],"aug_dim":"","rhythm_ratio":1.0,"mirror":false,"chromatic_density":0.231,"complexity":0.652,"dissonance":0.092},{"voice":1,"pitch":61,"start":164.7391,"duration":0.1304,"velocity":127,"measure":79,"beat":4.75,"subject_pos":-1,"motif":"","motif_pos":-1,"best_pos":6,"similarity":0.65,"stretto":false,"stretto_voices":0,"combination":[],"aug_dim":"","rhythm_ratio":1.0,"mirror":false,"chromatic_density":0.231,"complexity":0.652,"dissonance":0.092},{"voice":3,"pitch":40,"start":164.7391,"duration":0.1304,"velocity":127,"measure":79,"beat":4.75,"subject_pos":-1,"motif":"subject_inv","motif_pos":0,"best_pos":0,"similarity":1.0,"stretto":true,"stretto_voices":2,"combination":[],"aug_dim":"diminution","rhythm_ratio":0.35,"mirror":false,"chromatic_density":0.231,"complexity":0.652,"dissonance":0.092},{"voice":0,"pitch":65,"start":164.8695,"duration":1.0435,"velocity":127,"measure":80,"beat":1.0,"subject_pos":2,"motif":"subject","motif_pos":2,"best_pos":2,"similarity":1.0,"stretto":true,"stretto_voices":2,"combination":[],"aug_dim":"","rhythm_ratio":1.0,"mirror":false,"chromatic_density":0.167,"complexity":0.696,"dissonance":0.111},{"voice":1,"pitch":62,"start":164.8695,"duration":0.5217,"velocity":127,"measure":80,"beat":1.0,"subject_pos":-1,"motif":"","motif_pos":-1,"best_pos":7,"similarity":0.464,"stretto":false,"stretto_voices":0,"combination":[],"aug_dim":"","rhythm_ratio":1.0,"mirror":false,"chromatic_density":0.167,"complexity":0.696,"dissonance":0.111},{"voice":3,"pitch":38,"start":164.8695,"duration":0.5217,"velocity":127,"measure":80,"beat":1.0,"subject_pos":1,"motif":"subject_inv","motif_pos":1,"best_pos":1,"similarity":1.0,"stretto":true,"stretto_voices":2,"combination":[],"aug_dim":"diminution","rhythm_ratio":0.35,"mirror":false,"chromatic_density":0.167,"complexity":0.696,"dissonance":0.111},{"voice":2,"pitch":50,"start":165.2608,"duration":0.1304,"velocity":127,"measure":80,"beat":1.75,"subject_pos":-1,"motif":"head_inv","motif_pos":1,"best_pos":1,"similarity":1.0,"stretto":false,"stretto_voices":0,"combination":[],"aug_dim":"","rhythm_ratio":1.0,"mirror":false,"chromatic_density":0.167,"complexity":0.696,"dissonance":0.111},{"voice":1,"pitch":60,"start":165.3913,"duration":1.0435,"velocity":127,"measure":80,"beat":2.0,"subject_pos":-1,"motif":"","motif_pos":-1,"best_pos":2,"similarity":0.532,"stretto":false,"stretto_voices":0,"combination":[],"aug_dim":"","rhythm_ratio":1.0,"mirror":false,"chromatic_density":0.167,"complexity":0.696,"dissonance":0.111},{"voice":2,"pitch":52,"start":165.3913,"duration":0.3913,"velocity":127,"measure":80,"beat":2.0,"subject_pos":-1,"motif":"head_inv","motif_pos":2,"best_pos":2,"similarity":1.0,"stretto":false,"stretto_voices":0,"combination":[],"aug_dim":"","rhythm_ratio":1.0,"mirror":false,"chromatic_density":0.167,"complexity":0.696,"dissonance":0.111},{"voice":2,"pitch":53,"start":165.7826,"duration":0.1304,"velocity":127,"measure":80,"beat":2.75,"subject_pos":-1,"motif":"head_inv","motif_pos":3,"best_pos":3,"similarity":1.0,"stretto":false,"stretto_voices":0,"combination":[],"aug_dim":"","rhythm_ratio":1.0,"mirror":false,"chromatic_density":0.167,"complexity":0.696,"dissonance":0.111},{"voice":0,"pitch":62,"start":165.913,"duration":1.0435,"velocity":127,"measure":80,"beat":3.0,"subject_pos":3,"motif":"subject","motif_pos":3,"best_pos":3,"similarity":1.0,"stretto":true,"stretto_voices":2,"combination":[],"aug_dim":"","rhythm_ratio":1.0,"mirror":false,"chromatic_density":0.167,"complexity":0.696,"dissonance":0.111},{"voice":2,"pitch":55,"start":165.913,"duration":0.3913,"velocity":127,"measure":80,"beat":3.0,"subject_pos":-1,"motif":"head_inv","motif_pos":4,"best_pos":4,"similarity":1.0,"stretto":false,"stretto_voices":0,"combination":[],"aug_dim":"","rhythm_ratio":1.0,"mirror":false,"chromatic_density":0.167,"complexity":0.696,"dissonance":0.111},{"voice":2,"pitch":57,"start":166.3043,"duration":0.1304,"velocity":127,"measure":80,"beat":3.75,"subject_pos":-1,"motif":"","motif_pos":-1,"best_pos":1,"similarity":0.457,"stretto":false,"stretto_voices":0,"combination":[],"aug_dim":"","rhythm_ratio":1.0,"mirror":false,"chromatic_density":0.167,"complexity":0.696,"dissonance":0.111},{"voice":3,"pitch":40,"start":166.3043,"duration":0.1304,"velocity":127,"measure":80,"beat":3.75,"subject_pos":2,"motif":"subject_inv","motif_pos":2,"best_pos":2,"similarity":1.0,"stretto":true,"stretto_voices":2,"combination":[],"aug_dim":"diminution","rhythm_ratio":0.35,"mirror":false,"chromatic_density":0.167,"complexity":0.696,"dissonance":0.111},{"voice":1,"pitch":58,"start":166.4347,"duration":0.913,"velocity":127,"measure":80,"beat":4.0,"subject_pos":-1,"motif":"","motif_pos":-1,"best_pos":3,"similarity":0.479,"stretto":false,"stretto_voices":0,"combination":[],"aug_dim":"","rhythm_ratio":1.0,"mirror":false,"chromatic_density":0.167,"complexity":0.696,"dissonance":0.111},{"voice":2,"pitch":55,"start":166.4347,"duration":0.3913,"velocity":127,"measure":80,"beat":4.0,"subject_pos":-1,"motif":"","motif_pos":-1,"best_pos":2,"similarity":0.604,"stretto":false,"stretto_voices":0,"combination":[],"aug_dim":"","rhythm_ratio":1.0,"mirror":false,"chromatic_density":0.167,"complexity":0.696,"dissonance":0.111},{"voice":3,"pitch":41,"start":166.4347,"duration":0.3913,"velocity":127,"measure":80,"beat":4.0,"subject_pos":3,"motif":"subject_inv","motif_pos":3,"best_pos":3,"similarity":1.0,"stretto":true,"stretto_voices":2,"combination":[],"aug_dim":"diminution","rhythm_ratio":0.35,"mirror":false,"chromatic_density":0.167,"complexity":0.696,"dissonance":0.111},{"voice":2,"pitch":53,"start":166.826,"duration":0.1304,"velocity":127,"measure":80,"beat":4.75,"subject_pos":-1,"motif":"","motif_pos":-1,"best_pos":3,"similarity":0.621,"stretto":false,"stretto_voices":0,"combination":[],"aug_dim":"","rhythm_ratio":1.0,"mirror":false,"chromatic_density":0.167,"complexity":0.696,"dissonance":0.111},{"voice":3,"pitch":43,"start":166.826,"duration":0.1304,"velocity":127,"measure":80,"beat":4.75,"subject_pos":4,"motif":"subject_inv","motif_pos":4,"best_pos":4,"similarity":1.0,"stretto":true,"stretto_voices":2,"combination":[],"aug_dim":"diminution","rhythm_ratio":0.35,"mirror":false,"chromatic_density":0.167,"complexity":0.696,"dissonance":0.111},{"voice":0,"pitch":61,"start":166.9565,"duration":1.0435,"velocity":127,"measure":81,"beat":1.0,"subject_pos":4,"motif":"subject","motif_pos":4,"best_pos":4,"similarity":1.0,"stretto":true,"stretto_voices":2,"combination":[],"aug_dim":"","rhythm_ratio":1.0,"mirror":false,"chromatic_density":0.385,"complexity":0.645,"dissonance":0.226},{"voice":2,"pitch":52,"start":166.9565,"duration":0.3913,"velocity":127,"measure":81,"beat":1.0,"subject_pos":-1,"motif":"","motif_pos":-1,"best_pos":4,"similarity":0.532,"stretto":false,"stretto_voices":0,"combination":[],"aug_dim":"","rhythm_ratio":1.0,"mirror":false,"chromatic_density":0.385,"complexity":0.645,"dissonance":0.226},{"voice":3,"pitch":45,"start":166.9565,"duration":1.0435,"velocity":127,"measure":81,"beat":1.0,"subject_pos":5,"motif":"subject_inv","motif_pos":5,"best_pos":5,"similarity":1.0,"stretto":true,"stretto_voices":2,"combination":[],"aug_dim":"diminution","rhythm_ratio":0.35,"mirror":false,"chromatic_density":0.385,"complexity":0.645,"dissonance":0.226},{"voice":1,"pitch":58,"start":167.3478,"duration":0.1304,"velocity":127,"measure":81,"beat":1.75,"subject_pos":-1,"motif":"","motif_pos":-1,"best_pos":3,"similarity":0.479,"stretto":false,"stretto_voices":0,"combination":[],"aug_dim":"","rhythm_ratio":1.0,"mirror":false,"chromatic_density":0.385,"complexity":0.645,"dissonance":0.226},{"voice":2,"pitch":55,"start":167.3478,"duration":0.1304,"velocity":127,"measure":81,"beat":1.75,"subject_pos":-1,"motif":"","motif_pos":-1,"best_pos":1,"similarity":0.429,"stretto":false,"stretto_voices":0,"combination":[],"aug_dim":"","rhythm_ratio":1.0,"mirror":false,"chromatic_density":0.385,"complexity":0.645,"dissonance":0.226},{"voice":1,"pitch":57,"start":167.4782,"duration":0.3913,"velocity":127,"measure":81,"beat":2.0,"subject_pos":-1,"motif":"","motif_pos":-1,"best_pos":4,"similarity":0.421,"stretto":false,"stretto_voices":0,"combination":[],"aug_dim":"","rhythm_ratio":1.0,"mirror":false,"chromatic_density":0.385,"complexity":0.645,"dissonance":0.226},{"voice":2,"pitch":53,"start":167.4782,"duration":0.3913,"velocity":127,"measure":81,"beat":2.0,"subject_pos":-1,"motif":"","motif_pos":-1,"best_pos":2,"similarity":0.482,"stretto":false,"stretto_voices":0,"combination":[],"aug_dim":"","rhythm_ratio":1.0,"mirror":false,"chromatic_density":0.385,"complexity":0.645,"dissonance":0.226},{"voice":1,"pitch":55,"start":167.8695,"duration":0.1304,"velocity":127,"measure":81,"beat":2.75,"subject_pos":-1,"motif":"","motif_pos":-1,"best_pos":2,"similarity":0.446,"stretto":false,"stretto_voices":0,"combination":[],"aug_dim":"","rhythm_ratio":1.0,"mirror":false,"chromatic_density":0.385,"complexity":0.645,"dissonance":0.226},{"voice":2,"pitch":52,"start":167.8695,"duration":0.1304,"velocity":127,"measure":81,"beat":2.75,"subject_pos":-1,"motif":"","motif_pos":-1,"best_pos":2,"similarity":0.5,"stretto":false,"stretto_voices":0,"combination":[],"aug_dim":"","rhythm_ratio":1.0,"mirror":false,"chromatic_density":0.385,"complexity":0.645,"dissonance":0.226},{"voice":0,"pitch":62,"start":168.0,"duration":0.5217,"velocity":127,"measure":81,"beat":3.0,"subject_pos":5,"motif":"subject","motif_pos":5,"best_pos":5,"similarity":1.0,"stretto":true,"stretto_voices":2,"combination":[],"aug_dim":"","rhythm_ratio":1.0,"mirror":false,"chromatic_density":0.385,"complexity":0.645,"dissonance":0.226},{"voice":1,"pitch":53,"start":168.0,"duration":0.5217,"velocity":127,"measure":81,"beat":3.0,"subject_pos":-1,"motif":"","motif_pos":-1,"best_pos":2,"similarity":0.5,"stretto":false,"stretto_voices":0,"combination":[],"aug_dim":"","rhythm_ratio":1.0,"mirror":false,"chromatic_density":0.385,"complexity":0.645,"dissonance":0.226},{"voice":2,"pitch":50,"start":168.0,"duration":1.0435,"velocity":127,"measure":81,"beat":3.0,"subject_pos":-1,"motif":"","motif_pos":-1,"best_pos":3,"similarity":0.65,"stretto":false,"stretto_voices":0,"combination":[],"aug_dim":"","rhythm_ratio":1.0,"mirror":false,"chromatic_density":0.385,"complexity":0.645,"dissonance":0.226},{"voice":3,"pitch":46,"start":168.3913,"duration":0.1304,"velocity":127,"measure":81,"beat":3.75,"subject_pos":6,"motif":"subject_inv","motif_pos":6,"best_pos":6,"similarity":1.0,"stretto":true,"stretto_voices":2,"combination":[],"aug_dim":"diminution","rhythm_ratio":0.35,"mirror":false,"chromatic_density":0.385,"complexity":0.645,"dissonance":0.226},{"voice":0,"pitch":64,"start":168.5217,"duration":0.5217,"velocity":127,"measure":81,"beat":4.0,"subject_pos":6,"motif":"subject","motif_pos":6,"best_pos":6,"similarity":1.0,"stretto":true,"stretto_voices":2,"combination":[],"aug_dim":"","rhythm_ratio":1.0,"mirror":false,"chromatic_density":0.385,"complexity":0.645,"dissonance":0.226},{"voice":1,"pitch":58,"start":168.5217,"duration":0.5217,"velocity":127,"measure":81,"beat":4.0,"subject_pos":-1,"motif":"","motif_pos":-1,"best_pos":3,"similarity":0.579,"stretto":false,"stretto_voices":0,"combination":[],"aug_dim":"","rhythm_ratio":1.0,"mirror":false,"chromatic_density":0.385,"complexity":0.645,"dissonance":0.226},{"voice":3,"pitch":45,"start":168.5217,"duration":0.3913,"velocity":127,"measure":81,"beat":4.0,"subject_pos":7,"motif":"subject_inv","motif_pos":7,"best_pos":7,"similarity":1.0,"stretto":true,"stretto_voices":2,"combination":[],"aug_dim":"diminution","rhythm_ratio":0.35,"mirror":false,"chromatic_density":0.385,"complexity":0.645,"dissonance":0.226},{"voice":3,"pitch":43,"start":168.913,"duration":0.1304,"velocity":127,"measure":81,"beat":4.75,"subject_pos":8,"motif":"subject_inv","motif_pos":8,"best_pos":0,"similarity":1.0,"stretto":true,"stretto_voices":2,"combination":[],"aug_dim":"diminution","rhythm_ratio":0.35,"mirror":false,"chromatic_density":0.385,"complexity":0.645,"dissonance":0.226},{"voice":0,"pitch":65,"start":169.0434,"duration":1.4348,"velocity":127,"measure":82,"beat":1.0,"subject_pos":7,"motif":"subject","motif_pos":7,"best_pos":7,"similarity":1.0,"stretto":false,"stretto_voices":0,"combination":[],"aug_dim":"","rhythm_ratio":1.0,"mirror":false,"chromatic_density":0.5,"complexity":0.601,"dissonance":0.042},{"voice":1,"pitch":57,"start":169.0434,"duration":1.0435,"velocity":127,"measure":82,"beat":1.0,"subject_pos":-1,"motif":"","motif_pos":-1,"best_pos":4,"similarity":0.664,"stretto":false,"stretto_voices":0,"combination":[],"aug_dim":"","rhythm_ratio":1.0,"mirror":false,"chromatic_density":0.5,"complexity":0.601,"dissonance":0.042},{"voice":2,"pitch":49,"start":169.0434,"duration":0.5217,"velocity":127,"measure":82,"beat":1.0,"subject_pos":-1,"motif":"","motif_pos":-1,"best_pos":4,"similarity":0.764,"stretto":false,"stretto_voices":0,"combination":[],"aug_dim":"","rhythm_ratio":1.0,"mirror":false,"chromatic_density":0.5,"complexity":0.601,"dissonance":0.042},{"voice":3,"pitch":45,"start":169.0434,"duration":0.3913,"velocity":127,"measure":82,"beat":1.0,"subject_pos":-1,"motif":"","motif_pos":-1,"best_pos":1,"similarity":0.386,"stretto":false,"stretto_voices":0,"combination":[],"aug_dim":"","rhythm_ratio":1.0,"mirror":false,"chromatic_density":0.5,"complexity":0.601,"dissonance":0.042},{"voice":3,"pitch":41,"start":169.4347,"duration":0.1304,"velocity":127,"measure":82,"beat":1.75,"subject_pos":-1,"motif":"","motif_pos":-1,"best_pos":3,"similarity":0.464,"stretto":false,"stretto_voices":0,"combination":[],"aug_dim":"","rhythm_ratio":1.0,"mirror":false,"chromatic_density":0.5,"complexity":0.601,"dissonance":0.042},{"voice":2,"pitch":50,"start":169.5652,"duration":1.0435,"velocity":127,"measure":82,"beat":2.0,"subject_pos":-1,"motif":"","motif_pos":-1,"best_pos":5,"similarity":0.636,"stretto":false,"stretto_voices":0,"combination":[],"aug_dim":"","rhythm_ratio":1.0,"mirror":false,"chromatic_density":0.5,"complexity":0.601,"dissonance":0.042},{"voice":3,"pitch":40,"start":169.5652,"duration":0.3913,"velocity":127,"measure":82,"beat":2.0,"subject_pos":-1,"motif":"","motif_pos":-1,"best_pos":3,"similarity":0.45,"stretto":false,"stretto_voices":0,"combination":[],"aug_dim":"","rhythm_ratio":1.0,"mirror":false,"chromatic_density":0.5,"complexity":0.601,"dissonance":0.042},{"voice":3,"pitch":38,"start":169.9565,"duration":0.1304,"velocity":127,"measure":82,"beat":2.75,"subject_pos":-1,"motif":"","motif_pos":-1,"best_pos":4,"similarity":0.493,"stretto":false,"stretto_voices":0,"combination":[],"aug_dim":"","rhythm_ratio":1.0,"mirror":false,"chromatic_density":0.5,"complexity":0.601,"dissonance":0.042},{"voice":1,"pitch":58,"start":170.0869,"duration":0.5217,"velocity":127,"measure":82,"beat":3.0,"subject_pos":-1,"motif":"","motif_pos":-1,"best_pos":3,"similarity":0.507,"stretto":false,"stretto_voices":0,"combination":[],"aug_dim":"","rhythm_ratio":1.0,"mirror":false,"chromatic_density":0.5,"complexity":0.601,"dissonance":0.042},{"voice":3,"pitch":43,"start":170.0869,"duration":0.5217,"velocity":127,"measure":82,"beat":3.0,"subject_pos":-1,"motif":"","motif_pos":-1,"best_pos":5,"similarity":0.546,"stretto":false,"stretto_voices":0,"combination":[],"aug_dim":"","rhythm_ratio":1.0,"mirror":false,"chromatic_density":0.5,"complexity":0.601,"dissonance":0.042},{"voice":0,"pitch":67,"start":170.4782,"duration":0.1304,"velocity":127,"measure":82,"beat":3.75,"subject_pos":-1,"motif":"","motif_pos":-1,"best_pos":6,"similarity":0.464,"stretto":false,"stretto_voices":0,"combination":[],"aug_dim":"","rhythm_ratio":1.0,"mirror":false,"chromatic_density":0.5,"complexity":0.601,"dissonance":0.042},{"voice":0,"pitch":65,"start":170.6087,"duration":0.3913,"velocity":127,"measure":82,"beat":4.0,"subject_pos":-1,"motif":"","motif_pos":-1,"best_pos":3,"similarity":0.464,"stretto":false,"stretto_voices":0,"combination":[],"aug_dim":"","rhythm_ratio":1.0,"mirror":false,"chromatic_density":0.5,"complexity":0.601,"dissonance":0.042},{"voice":1,"pitch":57,"start":170.6087,"duration":0.913,"velocity":127,"measure":82,"beat":4.0,"subject_pos":-1,"motif":"","motif_pos":-1,"best_pos":2,"similarity":0.514,"stretto":false,"stretto_voices":0,"combination":[],"aug_dim":"","rhythm_ratio":1.0,"mirror":false,"chromatic_density":0.5,"complexity":0.601,"dissonance":0.042},{"voice":2,"pitch":49,"start":170.6087,"duration":0.5217,"velocity":127,"measure":82,"beat":4.0,"subject_pos":-1,"motif":"","motif_pos":-1,"best_pos":4,"similarity":0.8,"stretto":false,"stretto_voices":0,"combination":[],"aug_dim":"","rhythm_ratio":1.0,"mirror":false,"chromatic_density":0.5,"complexity":0.601,"dissonance":0.042},{"voice":3,"pitch":45,"start":170.6087,"duration":0.5217,"velocity":127,"measure":82,"beat":4.0,"subject_pos":-1,"motif":"","motif_pos":-1,"best_pos":6,"similarity":0.621,"stretto":false,"stretto_voices":0,"combination":[],"aug_dim":"","rhythm_ratio":1.0,"mirror":false,"chromatic_density":0.5,"complexity":0.601,"dissonance":0.042},{"voice":0,"pitch":64,"start":171.0,"duration":0.1304,"velocity":127,"measure":82,"beat":4.75,"subject_pos":-1,"motif":"","motif_pos":-1,"best_pos":4,"similarity":0.393,"stretto":false,"stretto_voices":0,"combination":[],"aug_dim":"","rhythm_ratio":1.0,"mirror":false,"chromatic_density":0.5,"complexity":0.601,"dissonance":0.042},{"voice":0,"pitch":62,"start":171.1304,"duration":4.1739,"velocity":127,"measure":83,"beat":1.0,"subject_pos":-1,"motif":"","motif_pos":-1,"best_pos":2,"similarity":0.286,"stretto":false,"stretto_voices":0,"combination":[],"aug_dim":"","rhythm_ratio":1.0,"mirror":false,"chromatic_density":0.385,"complexity":0.546,"dissonance":0.113},{"voice":2,"pitch":50,"start":171.1304,"duration":0.5217,"velocity":127,"measure":83,"beat":1.0,"subject_pos":-1,"motif":"","motif_pos":-1,"best_pos":5,"similarity":0.793,"stretto":false,"stretto_voices":0,"combination":[],"aug_dim":"","rhythm_ratio":1.0,"mirror":false,"chromatic_density":0.385,"complexity":0.546,"dissonance":0.113},{"voice":3,"pitch":46,"start":171.1304,"duration":0.3913,"velocity":127,"measure":83,"beat":1.0,"subject_pos":-1,"motif":"","motif_pos":-1,"best_pos":5,"similarity":0.6,"stretto":false,"stretto_voices":0,"combination":[],"aug_dim":"","rhythm_ratio":1.0,"mirror":false,"chromatic_density":0.385,"complexity":0.546,"dissonance":0.113},{"voice":1,"pitch":54,"start":171.5217,"duration":0.1304,"velocity":127,"measure":83,"beat":1.75,"subject_pos":-1,"motif":"","motif_pos":-1,"best_pos":4,"similarity":0.614,"stretto":false,"stretto_voices":0,"combination":[],"aug_dim":"","rhythm_ratio":1.0,"mirror":false,"chromatic_density":0.385,"complexity":0.546,"dissonance":0.113},{"voice":3,"pitch":48,"start":171.5217,"duration":0.1304,"velocity":127,"measure":83,"beat":1.75,"subject_pos":-1,"motif":"","motif_pos":-1,"best_pos":6,"similarity":0.464,"stretto":false,"stretto_voices":0,"combination":[],"aug_dim":"","rhythm_ratio":1.0,"mirror":false,"chromatic_density":0.385,"complexity":0.546,"dissonance":0.113},{"voice":1,"pitch":55,"start":171.6521,"duration":0.3913,"velocity":127,"measure":83,"beat":2.0,"subject_pos":-1,"motif":"","motif_pos":-1,"best_pos":5,"similarity":0.768,"stretto":false,"stretto_voices":0,"combination":[],"aug_dim":"","rhythm_ratio":1.0,"mirror":false,"chromatic_density":0.385,"complexity":0.546,"dissonance":0.113},{"voice":2,"pitch":52,"start":171.6521,"duration":0.3913,"velocity":127,"measure":83,"beat":2.0,"subject_pos":-1,"motif":"","motif_pos":-1,"best_pos":6,"similarity":0.643,"stretto":false,"stretto_voices":0,"combination":[],"aug_dim":"","rhythm_ratio":1.0,"mirror":false,"chromatic_density":0.385,"complexity":0.546,"dissonance":0.113},{"voice":3,"pitch":46,"start":171.6521,"duration":0.3913,"velocity":127,"measure":83,"beat":2.0,"subject_pos":-1,"motif":"","motif_pos":-1,"best_pos":3,"similarity":0.536,"stretto":false,"stretto_voices":0,"combination":[],"aug_dim":"","rhythm_ratio":1.0,"mirror":false,"chromatic_density":0.385,"complexity":0.546,"dissonance":0.113},{"voice":1,"pitch":57,"start":172.0434,"duration":0.1304,"velocity":127,"measure":83,"beat":2.75,"subject_pos":-1,"motif":"","motif_pos":-1,"best_pos":6,"similarity":0.732,"stretto":false,"stretto_voices":0,"combination":[],"aug_dim":"","rhythm_ratio":1.0,"mirror":false,"chromatic_density":0.385,"complexity":0.546,"dissonance":0.113},{"voice":2,"pitch":54,"start":172.0434,"duration":0.1304,"velocity":127,"measure":83,"beat":2.75,"subject_pos":-1,"motif":"","motif_pos":-1,"best_pos":6,"similarity":0.661,"stretto":false,"stretto_voices":0,"combination":[],"aug_dim":"","rhythm_ratio":1.0,"mirror":false,"chromatic_density":0.385,"complexity":0.546,"dissonance":0.113},{"voice":3,"pitch":45,"start":172.0434,"duration":0.1304,"velocity":127,"measure":83,"beat":2.75,"subject_pos":-1,"motif":"","motif_pos":-1,"best_pos":4,"similarity":0.607,"stretto":false,"stretto_voices":0,"combination":[],"aug_dim":"","rhythm_ratio":1.0,"mirror":false,"chromatic_density":0.385,"complexity":0.546,"dissonance":0.113},{"voice":1,"pitch":58,"start":172.1739,"duration":1.4348,"velocity":127,"measure":83,"beat":3.0,"subject_pos":-1,"motif":"","motif_pos":-1,"best_pos":7,"similarity":0.5,"stretto":false,"stretto_voices":0,"combination":[],"aug_dim":"","rhythm_ratio":1.0,"mirror":false,"chromatic_density":0.385,"complexity":0.546,"dissonance":0.113},{"voice":2,"pitch":55,"start":172.1739,"duration":1.4348,"velocity":127,"measure":83,"beat":3.0,"subject_pos":-1,"motif":"","motif_pos":-1,"best_pos":3,"similarity":0.479,"stretto":false,"stretto_voices":0,"combination":[],"aug_dim":"","rhythm_ratio":1.0,"mirror":false,"chromatic_density":0.385,"complexity":0.546,"dissonance":0.113},{"voice":3,"pitch":43,"start":172.1739,"duration":0.3913,"velocity":127,"measure":83,"beat":3.0,"subject_pos":-1,"motif":"","motif_pos":-1,"best_pos":5,"similarity":0.636,"stretto":false,"stretto_voices":0,"combination":[],"aug_dim":"","rhythm_ratio":1.0,"mirror":false,"chromatic_density":0.385,"complexity":0.546,"dissonance":0.113},{"voice":3,"pitch":45,"start":172.5652,"duration":0.1304,"velocity":127,"measure":83,"beat":3.75,"subject_pos":-1,"motif":"","motif_pos":-1,"best_pos":6,"similarity":0.657,"stretto":false,"stretto_voices":0,"combination":[],"aug_dim":"","rhythm_ratio":1.0,"mirror":false,"chromatic_density":0.385,"complexity":0.546,"dissonance":0.113},{"voice":3,"pitch":46,"start":172.6956,"duration":0.3913,"velocity":127,"measure":83,"beat":4.0,"subject_pos":-1,"motif":"","motif_pos":-1,"best_pos":7,"similarity":0.436,"stretto":false,"stretto_voices":0,"combination":[],"aug_dim":"","rhythm_ratio":1.0,"mirror":false,"chromatic_density":0.385,"complexity":0.546,"dissonance":0.113},{"voice":3,"pitch":43,"start":173.0869,"duration":0.1304,"velocity":127,"measure":83,"beat":4.75,"subject_pos":-1,"motif":"","motif_pos":-1,"best_pos":3,"similarity":0.307,"stretto":false,"stretto_voices":0,"combination":[],"aug_dim":"","rhythm_ratio":1.0,"mirror":false,"chromatic_density":0.385,"complexity":0.546,"dissonance":0.113},{"voice":3,"pitch":50,"start":173.2173,"duration":1.0435,"velocity":127,"measure":84,"beat":1.0,"subject_pos":-1,"motif":"","motif_pos":-1,"best_pos":1,"similarity":0.286,"stretto":false,"stretto_voices":0,"combination":[],"aug_dim":"","rhythm_ratio":1.0,"mirror":false,"chromatic_density":0.286,"complexity":0.411,"dissonance":0.083},{"voice":1,"pitch":57,"start":173.6087,"duration":0.1304,"velocity":127,"measure":84,"beat":1.75,"subject_pos":-1,"motif":"","motif_pos":-1,"best_pos":4,"similarity":0.629,"stretto":false,"stretto_voices":0,"combination":[],"aug_dim":"","rhythm_ratio":1.0,"mirror":false,"chromatic_density":0.286,"complexity":0.411,"dissonance":0.083},{"voice":2,"pitch":54,"start":173.6087,"duration":0.1304,"velocity":127,"measure":84,"beat":1.75,"subject_pos":-1,"motif":"","motif_pos":-1,"best_pos":4,"similarity":0.629,"stretto":false,"stretto_voices":0,"combination":[],"aug_dim":"","rhythm_ratio":1.0,"mirror":false,"chromatic_density":0.286,"complexity":0.411,"dissonance":0.083},{"voice":1,"pitch":58,"start":173.7391,"duration":0.3913,"velocity":127,"measure":84,"beat":2.0,"subject_pos":-1,"motif":"","motif_pos":-1,"best_pos":5,"similarity":0.507,"stretto":false,"stretto_voices":0,"combination":[],"aug_dim":"","rhythm_ratio":1.0,"mirror":false,"chromatic_density":0.286,"complexity":0.411,"dissonance":0.083},{"voice":2,"pitch":55,"start":173.7391,"duration":0.3913,"velocity":127,"measure":84,"beat":2.0,"subject_pos":-1,"motif":"","motif_pos":-1,"best_pos":5,"similarity":0.507,"stretto":false,"stretto_voices":0,"combination":[],"aug_dim":"","rhythm_ratio":1.0,"mirror":false,"chromatic_density":0.286,"complexity":0.411,"dissonance":0.083},{"voice":1,"pitch":55,"start":174.1304,"duration":0.1304,"velocity":127,"measure":84,"beat":2.75,"subject_pos":-1,"motif":"","motif_pos":-1,"best_pos":5,"similarity":0.368,"stretto":false,"stretto_voices":0,"combination":[],"aug_dim":"","rhythm_ratio":1.0,"mirror":false,"chromatic_density":0.286,"complexity":0.411,"dissonance":0.083},{"voice":2,"pitch":52,"start":174.1304,"duration":0.1304,"velocity":127,"measure":84,"beat":2.75,"subject_pos":-1,"motif":"","motif_pos":-1,"best_pos":5,"similarity":0.368,"stretto":false,"stretto_voices":0,"combination":[],"aug_dim":"","rhythm_ratio":1.0,"mirror":false,"chromatic_density":0.286,"complexity":0.411,"dissonance":0.083},{"voice":1,"pitch":57,"start":174.2608,"duration":1.0435,"velocity":127,"measure":84,"beat":3.0,"subject_pos":-1,"motif":"","motif_pos":-1,"best_pos":6,"similarity":0.318,"stretto":false,"stretto_voices":0,"combination":[],"aug_dim":"","rhythm_ratio":1.0,"mirror":false,"chromatic_density":0.286,"complexity":0.411,"dissonance":0.083},{"voice":2,"pitch":54,"start":174.2608,"duration":1.0435,"velocity":127,"measure":84,"beat":3.0,"subject_pos":-1,"motif":"","motif_pos":-1,"best_pos":6,"similarity":0.318,"stretto":false,"stretto_voices":0,"combination":[],"aug_dim":"","rhythm_ratio":1.0,"mirror":false,"chromatic_density":0.286,"complexity":0.411,"dissonance":0.083},{"voice":3,"pitch":38,"start":174.2608,"duration":1.0435,"velocity":127,"measure":84,"beat":3.0,"subject_pos":-1,"motif":"","motif_pos":-1,"best_pos":2,"similarity":0.143,"stretto":false,"stretto_voices":0,"combination":[],"aug_dim":"","rhythm_ratio":1.0,"mirror":false,"chromatic_density":0.286,"complexity":0.411,"dissonance":0.083}],"chromatic_density":[{"measure":1,"density":0.0,"chromatic_count":0,"interval_count":1},{"measure":2,"density":0.0,"chromatic_count":0,"interval_count":1},{"measure":3,"density":0.5,"chromatic_count":1,"interval_count":2},{"measure":4,"density":0.333,"chromatic_count":1,"interval_count":3},{"measure":5,"density":0.143,"chromatic_count":1,"interval_count":7},{"measure":6,"density":0.286,"chromatic_count":2,"interval_count":7},{"measure":7,"density":0.556,"chromatic_count":5,"interval_count":9},{"measure":8,"density":0.25,"chromatic_count":2,"interval_count":8},{"measure":9,"density":0.429,"chromatic_count":3,"interval_count":7},{"measure":10,"density":0.333,"chromatic_count":4,"interval_count":12},{"measure":11,"density":0.333,"chromatic_count":3,"interval_count":9},{"measure":12,"density":0.364,"chromatic_count":4,"interval_count":11},{"measure":13,"density":0.286,"chromatic_count":4,"interval_count":14},{"measure":14,"density":0.333,"chromatic_count":3,"interval_count":9},{"measure":15,"density":0.385,"chromatic_count":5,"interval_count":13},{"measure":16,"density":0.455,"chromatic_count":5,"interval_count":11},{"measure":17,"density":0.545,"chromatic_count":6,"interval_count":11},{"measure":18,"density":0.545,"chromatic_count":6,"interval_count":11},{"measure":19,"density":0.6,"chromatic_count":6,"interval_count":10},{"measure":20,"density":0.6,"chromatic_count":6,"interval_count":10},{"measure":21,"density":0.5,"chromatic_count":3,"interval_count":6},{"measure":22,"density":0.571,"chromatic_count":4,"interval_count":7},{"measure":23,"density":0.143,"chromatic_count":1,"interval_count":7},{"measure":24,"density":0.111,"chromatic_count":1,"interval_count":9},{"measure":25,"density":0.417,"chromatic_count":5,"interval_count":12},{"measure":26,"density":0.273,"chromatic_count":3,"interval_count":11},{"measure":27,"density":0.0,"chromatic_count":0,"interval_count":8},{"measure":28,"density":0.222,"chromatic_count":2,"interval_count":9},{"measure":29,"density":0.625,"chromatic_count":5,"interval_count":8},{"measure":30,"density":0.182,"chromatic_count":2,"interval_count":11},{"measure":31,"density":0.429,"chromatic_count":3,"interval_count":7},{"measure":32,"density":0.286,"chromatic_count":2,"interval_count":7},{"measure":33,"density":0.455,"chromatic_count":5,"interval_count":11},{"measure":34,"density":0.3,"chromatic_count":3,"interval_count":10},{"measure":35,"density":0.25,"chromatic_count":2,"interval_count":8},{"measure":36,"density":0.417,"chromatic_count":5,"interval_count":12},{"measure":37,"density":0.182,"chromatic_count":2,"interval_count":11},{"measure":38,"density":0.308,"chromatic_count":4,"interval_count":13},{"measure":39,"density":0.286,"chromatic_count":2,"interval_count":7},{"measure":40,"density":0.444,"chromatic_count":4,"interval_count":9},{"measure":41,"density":0.273,"chromatic_count":3,"interval_count":11},{"measure":42,"density":0.375,"chromatic_count":3,"interval_count":8},{"measure":43,"density":0.167,"chromatic_count":2,"interval_count":12},{"measure":44,"density":0.25,"chromatic_count":3,"interval_count":12},{"measure":45,"density":0.286,"chromatic_count":2,"interval_count":7},{"measure":46,"density":0.111,"chromatic_count":1,"interval_count":9},{"measure":47,"density":0.3,"chromatic_count":3,"interval_count":10},{"measure":48,"density":0.4,"chromatic_count":4,"interval_count":10},{"measure":49,"density":0.444,"chromatic_count":4,"interval_count":9},{"measure":50,"density":0.364,"chromatic_count":4,"interval_count":11},{"measure":51,"density":0.5,"chromatic_count":5,"interval_count":10},{"measure":52,"density":0.444,"chromatic_count":4,"interval_count":9},{"measure":53,"density":0.333,"chromatic_count":3,"interval_count":9},{"measure":54,"density":0.143,"chromatic_count":1,"interval_count":7},{"measure":55,"density":0.364,"chromatic_count":4,"interval_count":11},{"measure":56,"density":0.3,"chromatic_count":3,"interval_count":10},{"measure":57,"density":0.417,"chromatic_count":5,"interval_count":12},{"measure":58,"density":0.545,"chromatic_count":6,"interval_count":11},{"measure":59,"density":0.556,"chromatic_count":5,"interval_count":9},{"measure":60,"density":0.6,"chromatic_count":6,"interval_count":10},{"measure":61,"density":0.25,"chromatic_count":2,"interval_count":8},{"measure":62,"density":0.2,"chromatic_count":2,"interval_count":10},{"measure":63,"density":0.5,"chromatic_count":6,"interval_count":12},{"measure":64,"density":0.2,"chromatic_count":2,"interval_count":10},{"measure":65,"density":0.5,"chromatic_count":5,"interval_count":10},{"measure":66,"density":0.25,"chromatic_count":2,"interval_count":8},{"measure":67,"density":0.364,"chromatic_count":4,"interval_count":11},{"measure":68,"density":0.0,"chromatic_count":0,"interval_count":9},{"measure":69,"density":0.3,"chromatic_count":3,"interval_count":10},{"measure":70,"density":0.6,"chromatic_count":3,"interval_count":5},{"measure":71,"density":0.6,"chromatic_count":6,"interval_count":10},{"measure":72,"density":0.4,"chromatic_count":4,"interval_count":10},{"measure":73,"density":0.273,"chromatic_count":3,"interval_count":11},{"measure":74,"density":0.385,"chromatic_count":5,"interval_count":13},{"measure":75,"density":0.333,"chromatic_count":4,"interval_count":12},{"measure":76,"density":0.286,"chromatic_count":2,"interval_count":7},{"measure":77,"density":0.571,"chromatic_count":4,"interval_count":7},{"measure":78,"density":0.2,"chromatic_count":2,"interval_count":10},{"measure":79,"density":0.231,"chromatic_count":3,"interval_count":13},{"measure":80,"density":0.167,"chromatic_count":2,"interval_count":12},{"measure":81,"density":0.385,"chromatic_count":5,"interval_count":13},{"measure":82,"density":0.5,"chromatic_count":6,"interval_count":12},{"measure":83,"density":0.385,"chromatic_count":5,"interval_count":13},{"measure":84,"density":0.286,"chromatic_count":2,"interval_count":7}],"complexity":[{"measure":1,"complexity":0.371,"voice_count":1,"note_density":0.062,"motif_saturation":1.0,"interval_diversity":0.143,"rhythm_variety":0.167},{"measure":2,"complexity":0.371,"voice_count":1,"note_density":0.062,"motif_saturation":1.0,"interval_diversity":0.143,"rhythm_variety":0.167},{"measure":3,"complexity":0.424,"voice_count":1,"note_density":0.094,"motif_saturation":1.0,"interval_diversity":0.286,"rhythm_variety":0.333},{"measure":4,"complexity":0.268,"voice_count":1,"note_density":0.125,"motif_saturation":0.25,"interval_diversity":0.286,"rhythm_variety":0.5},{"measure":5,"complexity":0.401,"voice_count":2,"note_density":0.281,"motif_saturation":0.222,"interval_diversity":0.429,"rhythm_variety":0.667},{"measure":6,"complexity":0.376,"voice_count":2,"note_density":0.281,"motif_saturation":0.222,"interval_diversity":0.429,"rhythm_variety":0.5},{"measure":7,"complexity":0.405,"voice_count":2,"note_density":0.344,"motif_saturation":0.273,"interval_diversity":0.286,"rhythm_variety":0.667},{"measure":8,"complexity":0.495,"voice_count":2,"note_density":0.312,"motif_saturation":0.3,"interval_diversity":0.714,"rhythm_variety":0.833},{"measure":9,"complexity":0.561,"voice_count":3,"note_density":0.312,"motif_saturation":0.5,"interval_diversity":0.571,"rhythm_variety":0.667},{"measure":10,"complexity":0.563,"voice_count":3,"note_density":0.469,"motif_saturation":0.2,"interval_diversity":0.714,"rhythm_variety":0.833},{"measure":11,"complexity":0.531,"voice_count":3,"note_density":0.375,"motif_saturation":0.417,"interval_diversity":0.429,"rhythm_variety":0.667},{"measure":12,"complexity":0.539,"voice_count":3,"note_density":0.438,"motif_saturation":0.214,"interval_diversity":0.571,"rhythm_variety":0.833},{"measure":13,"complexity":0.621,"voice_count":4,"note_density":0.562,"motif_saturation":0.278,"interval_diversity":0.429,"rhythm_variety":0.833},{"measure":14,"complexity":0.58,"voice_count":4,"note_density":0.406,"motif_saturation":0.154,"interval_diversity":0.571,"rhythm_variety":0.833},{"measure":15,"complexity":0.623,"voice_count":4,"note_density":0.531,"motif_saturation":0.412,"interval_diversity":0.429,"rhythm_variety":0.667},{"measure":16,"complexity":0.608,"voice_count":4,"note_density":0.469,"motif_saturation":0.2,"interval_diversity":0.429,"rhythm_variety":1.0},{"measure":17,"complexity":0.675,"voice_count":4,"note_density":0.469,"motif_saturation":0.467,"interval_diversity":0.429,"rhythm_variety":1.0},{"measure":18,"complexity":0.486,"voice_count":3,"note_density":0.438,"motif_saturation":0.071,"interval_diversity":0.286,"rhythm_variety":1.0},{"measure":19,"complexity":0.677,"voice_count":4,"note_density":0.438,"motif_saturation":0.5,"interval_diversity":0.429,"rhythm_variety":1.0},{"measure":20,"complexity":0.412,"voice_count":3,"note_density":0.406,"motif_saturation":0.0,"interval_diversity":0.286,"rhythm_variety":0.667},{"measure":21,"complexity":0.498,"voice_count":4,"note_density":0.312,"motif_saturation":0.0,"interval_diversity":0.571,"rhythm_variety":0.667},{"measure":22,"complexity":0.508,"voice_count":4,"note_density":0.344,"motif_saturation":0.0,"interval_diversity":0.429,"rhythm_variety":0.833},{"measure":23,"complexity":0.504,"voice_count":4,"note_density":0.344,"motif_saturation":0.0,"interval_diversity":0.571,"rhythm_variety":0.667},{"measure":24,"complexity":0.493,"voice_count":3,"note_density":0.375,"motif_saturation":0.167,"interval_diversity":0.429,"rhythm_variety":0.833},{"measure":25,"complexity":0.625,"voice_count":3,"note_density":0.469,"motif_saturation":0.533,"interval_diversity":0.571,"rhythm_variety":0.833},{"measure":26,"complexity":0.722,"voice_count":4,"note_density":0.469,"motif_saturation":0.4,"interval_diversity":0.857,"rhythm_variety":1.0},{"measure":27,"complexity":0.598,"voice_count":4,"note_density":0.375,"motif_saturation":0.25,"interval_diversity":0.571,"rhythm_variety":0.833},{"measure":28,"complexity":0.592,"voice_count":4,"note_density":0.406,"motif_saturation":0.385,"interval_diversity":0.429,"rhythm_variety":0.667},{"measure":29,"complexity":0.535,"voice_count":4,"note_density":0.375,"motif_saturation":0.167,"interval_diversity":0.286,"rhythm_variety":0.833},{"measure":30,"complexity":0.575,"voice_count":3,"note_density":0.438,"motif_saturation":0.357,"interval_diversity":0.571,"rhythm_variety":0.833},{"measure":31,"complexity":0.597,"voice_count":4,"note_density":0.344,"motif_saturation":0.455,"interval_diversity":0.429,"rhythm_variety":0.667},{"measure":32,"complexity":0.526,"voice_count":4,"note_density":0.344,"motif_saturation":0.273,"interval_diversity":0.429,"rhythm_variety":0.5},{"measure":33,"complexity":0.493,"voice_count":3,"note_density":0.438,"motif_saturation":0.214,"interval_diversity":0.429,"rhythm_variety":0.667},{"measure":34,"complexity":0.645,"voice_count":4,"note_density":0.438,"motif_saturation":0.214,"interval_diversity":0.857,"rhythm_variety":0.833},{"measure":35,"complexity":0.573,"voice_count":4,"note_density":0.375,"motif_saturation":0.333,"interval_diversity":0.429,"rhythm_variety":0.667},{"measure":36,"complexity":0.602,"voice_count":4,"note_density":0.5,"motif_saturation":0.25,"interval_diversity":0.429,"rhythm_variety":0.833},{"measure":37,"complexity":0.597,"voice_count":4,"note_density":0.469,"motif_saturation":0.0,"interval_diversity":0.857,"rhythm_variety":0.833},{"measure":38,"complexity":0.529,"voice_count":3,"note_density":0.5,"motif_saturation":0.125,"interval_diversity":0.571,"rhythm_variety":0.833},{"measure":39,"complexity":0.464,"voice_count":3,"note_density":0.312,"motif_saturation":0.2,"interval_diversity":0.429,"rhythm_variety":0.667},{"measure":40,"complexity":0.556,"voice_count":3,"note_density":0.375,"motif_saturation":0.417,"interval_diversity":0.429,"rhythm_variety":0.833},{"measure":41,"complexity":0.722,"voice_count":4,"note_density":0.469,"motif_saturation":0.4,"interval_diversity":0.857,"rhythm_variety":1.0},{"measure":42,"complexity":0.557,"voice_count":4,"note_density":0.375,"motif_saturation":0.083,"interval_diversity":0.571,"rhythm_variety":0.833},{"measure":43,"complexity":0.484,"voice_count":3,"note_density":0.469,"motif_saturation":0.067,"interval_diversity":0.571,"rhythm_variety":0.667},{"measure":44,"complexity":0.571,"voice_count":3,"note_density":0.469,"motif_saturation":0.4,"interval_diversity":0.429,"rhythm_variety":0.833},{"measure":45,"complexity":0.464,"voice_count":3,"note_density":0.312,"motif_saturation":0.2,"interval_diversity":0.429,"rhythm_variety":0.667},{"measure":46,"complexity":0.495,"voice_count":3,"note_density":0.375,"motif_saturation":0.0,"interval_diversity":0.714,"rhythm_variety":0.833},{"measure":47,"complexity":0.458,"voice_count":3,"note_density":0.406,"motif_saturation":0.0,"interval_diversity":0.429,"rhythm_variety":0.833},{"measure":48,"complexity":0.655,"voice_count":3,"note_density":0.406,"motif_saturation":0.615,"interval_diversity":0.714,"rhythm_variety":0.833},{"measure":49,"complexity":0.556,"voice_count":3,"note_density":0.375,"motif_saturation":0.417,"interval_diversity":0.429,"rhythm_variety":0.833},{"measure":50,"complexity":0.507,"voice_count":3,"note_density":0.438,"motif_saturation":0.286,"interval_diversity":0.571,"rhythm_variety":0.5},{"measure":51,"complexity":0.598,"voice_count":4,"note_density":0.438,"motif_saturation":0.286,"interval_diversity":0.429,"rhythm_variety":0.833},{"measure":52,"complexity":0.582,"voice_count":3,"note_density":0.375,"motif_saturation":0.333,"interval_diversity":0.571,"rhythm_variety":1.0},{"measure":53,"complexity":0.473,"voice_count":3,"note_density":0.375,"motif_saturation":0.083,"interval_diversity":0.429,"rhythm_variety":0.833},{"measure":54,"complexity":0.539,"voice_count":3,"note_density":0.312,"motif_saturation":0.5,"interval_diversity":0.429,"rhythm_variety":0.667},{"measure":55,"complexity":0.583,"voice_count":4,"note_density":0.469,"motif_saturation":0.2,"interval_diversity":0.429,"rhythm_variety":0.833},{"measure":56,"complexity":0.545,"voice_count":4,"note_density":0.438,"motif_saturation":0.071,"interval_diversity":0.429,"rhythm_variety":0.833},{"measure":57,"complexity":0.672,"voice_count":4,"note_density":0.5,"motif_saturation":0.375,"interval_diversity":0.857,"rhythm_variety":0.667},{"measure":58,"complexity":0.579,"voice_count":4,"note_density":0.469,"motif_saturation":0.0,"interval_diversity":0.571,"rhythm_variety":1.0},{"measure":59,"complexity":0.427,"voice_count":3,"note_density":0.375,"motif_saturation":0.0,"interval_diversity":0.429,"rhythm_variety":0.667},{"measure":60,"complexity":0.577,"voice_count":4,"note_density":0.438,"motif_saturation":0.214,"interval_diversity":0.571,"rhythm_variety":0.667},{"measure":61,"complexity":0.489,"voice_count":3,"note_density":0.344,"motif_saturation":0.273,"interval_diversity":0.429,"rhythm_variety":0.667},{"measure":62,"complexity":0.655,"voice_count":4,"note_density":0.438,"motif_saturation":0.429,"interval_diversity":0.571,"rhythm_variety":0.833},{"measure":63,"complexity":0.561,"voice_count":4,"note_density":0.5,"motif_saturation":0.188,"interval_diversity":0.429,"rhythm_variety":0.667},{"measure":64,"complexity":0.57,"voice_count":4,"note_density":0.438,"motif_saturation":0.071,"interval_diversity":0.429,"rhythm_variety":1.0},{"measure":65,"complexity":0.559,"voice_count":4,"note_density":0.438,"motif_saturation":0.143,"interval_diversity":0.571,"rhythm_variety":0.667},{"measure":66,"complexity":0.664,"voice_count":4,"note_density":0.375,"motif_saturation":0.583,"interval_diversity":0.286,"rhythm_variety":1.0},{"measure":67,"complexity":0.521,"voice_count":3,"note_density":0.438,"motif_saturation":0.143,"interval_diversity":0.571,"rhythm_variety":0.833},{"measure":68,"complexity":0.468,"voice_count":3,"note_density":0.375,"motif_saturation":0.167,"interval_diversity":0.429,"rhythm_variety":0.667},{"measure":69,"complexity":0.605,"voice_count":4,"note_density":0.438,"motif_saturation":0.143,"interval_diversity":0.714,"rhythm_variety":0.833},{"measure":70,"complexity":0.619,"voice_count":4,"note_density":0.375,"motif_saturation":0.333,"interval_diversity":0.571,"rhythm_variety":0.833},{"measure":71,"complexity":0.638,"voice_count":4,"note_density":0.438,"motif_saturation":0.429,"interval_diversity":0.286,"rhythm_variety":1.0},{"measure":72,"complexity":0.663,"voice_count":4,"note_density":0.438,"motif_saturation":0.357,"interval_diversity":0.571,"rhythm_variety":1.0},{"measure":73,"complexity":0.579,"voice_count":4,"note_density":0.469,"motif_saturation":0.0,"interval_diversity":0.571,"rhythm_variety":1.0},{"measure":74,"complexity":0.633,"voice_count":4,"note_density":0.531,"motif_saturation":0.176,"interval_diversity":0.714,"rhythm_variety":0.833},{"measure":75,"complexity":0.695,"voice_count":4,"note_density":0.5,"motif_saturation":0.438,"interval_diversity":0.571,"rhythm_variety":1.0},{"measure":76,"complexity":0.557,"voice_count":4,"note_density":0.344,"motif_saturation":0.182,"interval_diversity":0.286,"rhythm_variety":1.0},{"measure":77,"complexity":0.464,"voice_count":3,"note_density":0.312,"motif_saturation":0.2,"interval_diversity":0.429,"rhythm_variety":0.667},{"measure":78,"complexity":0.588,"voice_count":4,"note_density":0.438,"motif_saturation":0.0,"interval_diversity":1.0,"rhythm_variety":0.667},{"measure":79,"complexity":0.652,"voice_count":4,"note_density":0.531,"motif_saturation":0.353,"interval_diversity":0.714,"rhythm_variety":0.667},{"measure":80,"complexity":0.696,"voice_count":4,"note_density":0.5,"motif_saturation":0.625,"interval_diversity":0.429,"rhythm_variety":0.833},{"measure":81,"complexity":0.645,"voice_count":4,"note_density":0.531,"motif_saturation":0.412,"interval_diversity":0.571,"rhythm_variety":0.667},{"measure":82,"complexity":0.601,"voice_count":4,"note_density":0.5,"motif_saturation":0.062,"interval_diversity":0.571,"rhythm_variety":1.0},{"measure":83,"complexity":0.546,"voice_count":4,"note_density":0.531,"motif_saturation":0.0,"interval_diversity":0.429,"rhythm_variety":0.833},{"measure":84,"complexity":0.411,"voice_count":3,"note_density":0.312,"motif_saturation":0.0,"interval_diversity":0.571,"rhythm_variety":0.5}],"dissonance":[{"measure":1,"dissonance":0,"dissonant_pairs":0,"total_pairs":0},{"measure":2,"dissonance":0,"dissonant_pairs":0,"total_pairs":0},{"measure":3,"dissonance":0,"dissonant_pairs":0,"total_pairs":0},{"measure":4,"dissonance":0,"dissonant_pairs":0,"total_pairs":0},{"measure":5,"dissonance":0.125,"dissonant_pairs":1.0,"total_pairs":8},{"measure":6,"dissonance":0.143,"dissonant_pairs":1.0,"total_pairs":7},{"measure":7,"dissonance":0.225,"dissonant_pairs":1.8,"total_pairs":8},{"measure":8,"dissonance":0.062,"dissonant_pairs":0.5,"total_pairs":8},{"measure":9,"dissonance":0.105,"dissonant_pairs":2.3,"total_pairs":22},{"measure":10,"dissonance":0.021,"dissonant_pairs":0.5,"total_pairs":24},{"measure":11,"dissonance":0.082,"dissonant_pairs":1.8,"total_pairs":22},{"measure":12,"dissonance":0.212,"dissonant_pairs":5.1,"total_pairs":24},{"measure":13,"dissonance":0.125,"dissonant_pairs":6.0,"total_pairs":48},{"measure":14,"dissonance":0.011,"dissonant_pairs":0.5,"total_pairs":45},{"measure":15,"dissonance":0.128,"dissonant_pairs":5.5,"total_pairs":43},{"measure":16,"dissonance":0.044,"dissonant_pairs":2.0,"total_pairs":45},{"measure":17,"dissonance":0.051,"dissonant_pairs":2.3,"total_pairs":45},{"measure":18,"dissonance":0.195,"dissonant_pairs":4.1,"total_pairs":21},{"measure":19,"dissonance":0.172,"dissonant_pairs":6.9,"total_pairs":40},{"measure":20,"dissonance":0.133,"dissonant_pairs":2.8,"total_pairs":21},{"measure":21,"dissonance":0.167,"dissonant_pairs":2.5,"total_pairs":15},{"measure":22,"dissonance":0.163,"dissonant_pairs":4.9,"total_pairs":30},{"measure":23,"dissonance":0.033,"dissonant_pairs":0.5,"total_pairs":15},{"measure":24,"dissonance":0.159,"dissonant_pairs":3.5,"total_pairs":22},{"measure":25,"dissonance":0.118,"dissonant_pairs":2.6,"total_pairs":22},{"measure":26,"dissonance":0.16,"dissonant_pairs":7.2,"total_pairs":45},{"measure":27,"dissonance":0.067,"dissonant_pairs":3.0,"total_pairs":45},{"measure":28,"dissonance":0.05,"dissonant_pairs":1.3,"total_pairs":26},{"measure":29,"dissonance":0.087,"dissonant_pairs":2.6,"total_pairs":30},{"measure":30,"dissonance":0.088,"dissonant_pairs":2.1,"total_pairs":24},{"measure":31,"dissonance":0.091,"dissonant_pairs":3.0,"total_pairs":33},{"measure":32,"dissonance":0.132,"dissonant_pairs":3.3,"total_pairs":25},{"measure":33,"dissonance":0.186,"dissonant_pairs":4.1,"total_pairs":22},{"measure":34,"dissonance":0.137,"dissonant_pairs":3.7,"total_pairs":27},{"measure":35,"dissonance":0.179,"dissonant_pairs":2.5,"total_pairs":14},{"measure":36,"dissonance":0.12,"dissonant_pairs":4.8,"total_pairs":40},{"measure":37,"dissonance":0.045,"dissonant_pairs":1.5,"total_pairs":33},{"measure":38,"dissonance":0.146,"dissonant_pairs":3.5,"total_pairs":24},{"measure":39,"dissonance":0.08,"dissonant_pairs":0.8,"total_pairs":10},{"measure":40,"dissonance":0.236,"dissonant_pairs":5.2,"total_pairs":22},{"measure":41,"dissonance":0.17,"dissonant_pairs":6.8,"total_pairs":40},{"measure":42,"dissonance":0.154,"dissonant_pairs":4.3,"total_pairs":28},{"measure":43,"dissonance":0.141,"dissonant_pairs":3.1,"total_pairs":22},{"measure":44,"dissonance":0.082,"dissonant_pairs":1.8,"total_pairs":22},{"measure":45,"dissonance":0.091,"dissonant_pairs":2.0,"total_pairs":22},{"measure":46,"dissonance":0.031,"dissonant_pairs":0.5,"total_pairs":16},{"measure":47,"dissonance":0.127,"dissonant_pairs":2.8,"total_pairs":22},{"measure":48,"dissonance":0.113,"dissonant_pairs":1.8,"total_pairs":16},{"measure":49,"dissonance":0.118,"dissonant_pairs":2.6,"total_pairs":22},{"measure":50,"dissonance":0.068,"dissonant_pairs":1.5,"total_pairs":22},{"measure":51,"dissonance":0.206,"dissonant_pairs":6.8,"total_pairs":33},{"measure":52,"dissonance":0.155,"dissonant_pairs":3.1,"total_pairs":20},{"measure":53,"dissonance":0.133,"dissonant_pairs":2.0,"total_pairs":15},{"measure":54,"dissonance":0.05,"dissonant_pairs":0.5,"total_pairs":10},{"measure":55,"dissonance":0.115,"dissonant_pairs":4.6,"total_pairs":40},{"measure":56,"dissonance":0.211,"dissonant_pairs":9.5,"total_pairs":45},{"measure":57,"dissonance":0.1,"dissonant_pairs":3.1,"total_pairs":31},{"measure":58,"dissonance":0.12,"dissonant_pairs":4.8,"total_pairs":40},{"measure":59,"dissonance":0.114,"dissonant_pairs":2.4,"total_pairs":21},{"measure":60,"dissonance":0.1,"dissonant_pairs":2.0,"total_pairs":20},{"measure":61,"dissonance":0.062,"dissonant_pairs":1.5,"total_pairs":24},{"measure":62,"dissonance":0.153,"dissonant_pairs":4.6,"total_pairs":30},{"measure":63,"dissonance":0.182,"dissonant_pairs":7.3,"total_pairs":40},{"measure":64,"dissonance":0.086,"dissonant_pairs":3.1,"total_pairs":36},{"measure":65,"dissonance":0.177,"dissonant_pairs":3.9,"total_pairs":22},{"measure":66,"dissonance":0.163,"dissonant_pairs":4.4,"total_pairs":27},{"measure":67,"dissonance":0.175,"dissonant_pairs":3.5,"total_pairs":20},{"measure":68,"dissonance":0.136,"dissonant_pairs":3.0,"total_pairs":22},{"measure":69,"dissonance":0.16,"dissonant_pairs":6.4,"total_pairs":40},{"measure":70,"dissonance":0.05,"dissonant_pairs":2.0,"total_pairs":40},{"measure":71,"dissonance":0.183,"dissonant_pairs":6.4,"total_pairs":35},{"measure":72,"dissonance":0.135,"dissonant_pairs":4.6,"total_pairs":34},{"measure":73,"dissonance":0.138,"dissonant_pairs":5.5,"total_pairs":40},{"measure":74,"dissonance":0.123,"dissonant_pairs":4.9,"total_pairs":40},{"measure":75,"dissonance":0.14,"dissonant_pairs":5.9,"total_pairs":42},{"measure":76,"dissonance":0.196,"dissonant_pairs":8.8,"total_pairs":45},{"measure":77,"dissonance":0.209,"dissonant_pairs":4.6,"total_pairs":22},{"measure":78,"dissonance":0.178,"dissonant_pairs":4.1,"total_pairs":23},{"measure":79,"dissonance":0.092,"dissonant_pairs":3.3,"total_pairs":36},{"measure":80,"dissonance":0.111,"dissonant_pairs":4.0,"total_pairs":36},{"measure":81,"dissonance":0.226,"dissonant_pairs":9.5,"total_pairs":42},{"measure":82,"dissonance":0.042,"dissonant_pairs":2.0,"total_pairs":48},{"measure":83,"dissonance":0.113,"dissonant_pairs":5.1,"total_pairs":45},{"measure":84,"dissonance":0.083,"dissonant_pairs":1.0,"total_pairs":12}]}